<svg viewBox="0 0 413.51 41.16184803538476" xmlns="http://www.w3.org/2000/svg" width="2500" height="249"><path d="M0 40.43h37.85V0H0zM3.07 3.06h31.69v34.3H3.07z" fill="#004ea2"/><path d="M17 26.78c-.36-.39-9-9.17-9.65-9.86a1.07 1.07 0 0 0-1.84.83v15.79a1.21 1.21 0 0 0 1.23 1.22h9.9a1.2 1.2 0 0 0 1.21-1.22v-5.25c0-.59 0-.69-.85-1.51m15.2-9a1.06 1.06 0 0 0-1.82-.83c-.7.69-9.29 9.47-9.66 9.86-.85.82-.85.92-.85 1.51v5.25a1.22 1.22 0 0 0 1.22 1.22l9.91.07a1.23 1.23 0 0 0 1.22-1.24zm-4-3.31s-5.41-5.35-9.07-9C15.6 9 9.74 14.76 8.93 15.59l9.07 9.1a1.23 1.23 0 0 0 1.71 0l8.51-8.54a1.2 1.2 0 0 0 0-1.71" fill="#e60012"/><path d="M78.2 9L67.46 40.43h6.2v-.07l8-23.56 8 23.63H96L85.27 9zm65.9 0l-10.73 31.43h6.19v-.07l8-23.56 8 23.63H162L151.18 9zm68.7 0h-7.07L195 40.43h6.2v-.07l8-23.56 8 23.63h6.37zm-98.15 23.25L106.92 9h-7.18v31.43h5.72V22.2l6 18.23h6.18l6.18-18.12v18.12h5.61V9h-7.24zM184.49 9h-19v31.43h17.26c1.19 0 12.23-.85 12.23-15.76C195 9.61 184.49 9 184.49 9m-1.57 26h-11.76V14.32h12.32c.58 0 5.4 1.41 5.4 10.35 0 9.25-5.57 10.24-6 10.27M52.09 0l10.26 17.59-1.05 1.78L50 0h-8.89l13.24 22.76v17.67h8.86V22.82L76.64 0z" fill="#004ea2"/><path d="M52.09 0l10.25 17.59L72.7 0z" fill="#e60012"/><g fill="#231815"><path d="M271.38 40.41h-3.88V24.87h-16.27v15.54h-3.88V8.97h3.88v12.54h16.27V8.97h3.88zM302.61 40.41h-19.58V8.97h3.88v28.06h15.7zM311.29 40.41V9h7.57q6.64 0 10.43 1.74a13.48 13.48 0 0 1 6 5.28 16.26 16.26 0 0 1 2.2 8.73 16 16 0 0 1-4.16 11.06q-4.15 4.63-14.38 4.63zm3.88-28.14v24.84h4.05q7.44 0 10.83-3.15t3.37-9.3q0-5.84-3.42-9.11t-10.78-3.28zM371.18 38.07Q364.43 41 360.13 41q-7.51 0-11.67-4.25t-4.16-12.1q0-7.6 4.23-11.93t11.6-4.32a24 24 0 0 1 11 2.86v4.57h-.29a17.64 17.64 0 0 0-11.41-4.15 10.15 10.15 0 0 0-8.14 3.46q-3 3.47-3 9.39 0 6.2 3.1 9.69a10.81 10.81 0 0 0 8.5 3.49 18.38 18.38 0 0 0 7.41-1.5v-8.1h-8.16v-3.37h12zM391.57 41a27 27 0 0 1-11.12-2.62v-4.77h.27a16.32 16.32 0 0 0 10.89 4.09 10 10 0 0 0 5.89-1.53 4.79 4.79 0 0 0 2.14-4.08 4.71 4.71 0 0 0-.91-3.08 6.06 6.06 0 0 0-3.16-1.74l-7-1.42a11 11 0 0 1-5.91-3 7.8 7.8 0 0 1-2-5.56 7.86 7.86 0 0 1 3.13-6.4 12.52 12.52 0 0 1 8.15-2.53 25.83 25.83 0 0 1 10.52 2.32v4.62h-.3a15.46 15.46 0 0 0-10.22-3.61 8.72 8.72 0 0 0-5.24 1.44 4.43 4.43 0 0 0-2 3.77q0 3.9 4.55 5 2.63.48 5.85 1.2a18.2 18.2 0 0 1 4.61 1.5 8.49 8.49 0 0 1 2.29 1.81 7 7 0 0 1 1.29 2.28 8.91 8.91 0 0 1 .43 2.81 8.37 8.37 0 0 1-3.32 6.78 13.48 13.48 0 0 1-8.83 2.72M408.78 34.71h4.73v5.7h-4.73z"/></g></svg>