<svg height="677" viewBox="1.936 .839 250.343 66.023" width="2500" xmlns="http://www.w3.org/2000/svg"><path d="m159.99 65.894c-.964-1.169-1.485-3.055-2.043-7.385-.225-1.747-1.17-7.819-2.1-13.494s-1.776-10.914-1.878-11.642c-.337-2.387-.496-2.605-1.75-2.404-1.649.264-4.576 1.566-8.204 3.65-2.135 1.225-3.64 1.914-4.366 1.998-1.032.12-1.146.067-1.653-.764-.3-.49-.544-1.077-.545-1.303-.003-1.155 4.778-4.065 10.837-6.597 3.889-1.624 5.21-2.48 6.652-4.303 1.549-1.96 2.073-3.14 2.353-5.297.41-3.145.342-5.208-.176-5.406-.244-.094-2.05.379-4.035 1.056-4.28 1.459-6.912 1.935-8.433 1.526-1.423-.383-1.893-.955-1.219-1.483.681-.532 5.004-2.615 7.42-3.574 2.773-1.102 5.12-2.323 5.284-2.748.076-.2-.584-1.425-1.467-2.724-.884-1.298-1.607-2.5-1.607-2.67 0-1.491 4.919 2.417 6.184 4.914 1.453 2.867 2.408 8.545 2.014 11.974-.379 3.3-1.22 5.2-3.096 6.998l-1.24 1.189.705 3.513c.387 1.933.895 4.883 1.129 6.556.233 1.674 1.254 7.984 2.269 14.023 1.014 6.04 1.87 11.933 1.9 13.097l.057 2.117-1.094.08c-.982.071-1.176-.02-1.898-.897zm79.721-21c-2.084-.204-3.71-.927-4.682-2.081-.783-.931-1.082-1.694-1.67-4.258-.248-1.079-.657-2.448-.91-3.043-.252-.594-.539-1.494-.638-2-.172-.878-.092-1.003 1.81-2.838 1.094-1.056 1.99-1.982 1.99-2.058 0-.334-1.591-.079-3.94.634-3.715 1.126-4.183 1.194-4.922.71-1.075-.705-1.447-3.389-.566-4.088.165-.13 2.323-.862 4.797-1.625 5.473-1.688 6.892-2.234 7.993-3.07 1.07-.814 1.254-1.739 1.007-5.035-.18-2.414-.216-2.525-.758-2.398-.313.074-1.98.502-3.706.952-3.573.932-6.3 1.073-7.716.4-.98-.464-1.715-1.74-1.715-2.978 0-.442-.128-1.138-.285-1.548l-.285-.745-.508.625c-.28.344-.51.806-.51 1.028 0 1.889-2.336 4.98-4.632 6.126-2.353 1.175-5.56.32-6.716-1.792-.86-1.572-1.04-4.172-.434-6.271.716-2.479 1.433-3.554 2.743-4.118 1.508-.648 1.919-.628 4.327.206l2.034.705 5.507-1.48c6.212-1.67 7.812-1.94 8.951-1.512.91.343 2.773 2.064 2.773 2.562 0 .587-1.09 1.064-4.762 2.086-5.738 1.596-8.2 2.949-6.258 3.437 1.932.484 10.513-2.408 11.254-3.794.156-.292.362-1.197.458-2.013.106-.9.302-1.483.499-1.483.178 0 .867.58 1.53 1.289 1.574 1.682 1.647 2.169 1.636 10.882-.007 5.83-.09 7.368-.493 9.128-.629 2.744-.932 3.303-3.107 5.723-.999 1.111-1.815 2.109-1.815 2.217 0 .109.407.648.904 1.199.497.55 1.035 1.244 1.194 1.542.384.717-.127.977-2.279 1.163-2.147.185-2.292.296-2.115 1.615.24 1.796.884 2.118 3.825 1.913 1.35-.094 4.2-.407 6.334-.696 2.133-.289 4.068-.465 4.3-.39.476.15 2.124 3.316 2.124 4.079 0 .617-.52.751-3.638.936-4.96.295-7.12.333-8.93.156zm-21.439-32.407c1.663-1.187 2.522-2.178 2.522-2.91 0-.511-1.47-1.28-2.078-1.087-.508.161-2.57 3.431-2.839 4.502-.255 1.017.478.863 2.395-.505zm-179.908 31.635c-2.266-.602-4.101-2.261-4.101-3.707 0-.312.652-1.87 1.45-3.461 1.957-3.902 2.366-5.832 1.233-5.828-2.039.007-3.984 1.521-6.45 5.022-1.808 2.565-2.81 3.708-3.253 3.708-.523 0-1.183-.934-1.183-1.672 0-1.122.827-3 2.729-6.203 1.962-3.304 2.206-4.199 1.068-3.913-.962.242-10.416 4.427-15.57 6.894-5.09 2.436-8.825 4.019-10.005 4.24-1.36.255-2.086-.492-2.236-2.303-.11-1.322-.058-1.507.56-1.993.673-.529 20.19-8.977 26.1-11.298 8.79-3.45 21.981-8.196 23.082-8.303 1.552-.151 2.612.268 3.642 1.441 1.433 1.633.946 2.354-2.117 3.138-.946.241-4.59 1.385-8.098 2.54-7.232 2.383-7.896 2.777-9.495 5.635-.842 1.506-1.161 2.536-.785 2.536.078 0 .584-.223 1.124-.497 2.167-1.097 3.564-.905 4.795.66.808 1.027.748 3.044-.143 4.833-.646 1.296-1.123 1.768-3.96 3.921-.648.491-.706.626-.372.856 2.046 1.408 12.539-2.978 18.887-7.893 1.147-.889 2.246-1.615 2.442-1.615.803 0 .635 2.7-.279 4.467-1.212 2.345-7.06 6.187-12.319 8.091-2.098.76-5.284 1.093-6.746.704zm92.189-21.795c-.75-1.193-.54-2.449.97-5.797.679-1.505 2.05-4.576 3.05-6.826.998-2.25 1.981-4.256 2.184-4.459.481-.48 1.272-.222 2.43.795 1.186 1.04 1.178 1.85-.047 4.58-.523 1.163-1.01 2.375-1.083 2.693-.179.777.894 2.141 2.963 3.767 1.635 1.285 1.654 1.315 1.79 2.843.074.85.031 1.656-.096 1.793-.538.578-2.105-.657-3.835-3.023-.959-1.312-1.893-2.385-2.075-2.385s-.969 1.19-1.747 2.644c-2.281 4.262-3.415 5.111-4.504 3.375zm-103.797-5.244-.76-.6.136-2.8c.075-1.54.33-3.417.567-4.171.812-2.59 3.873-5.652 5.23-5.233 1.068.33 2.973 1.885 3.913 3.194.715.995.93 1.581 1.016 2.758.141 1.96-.308 2.796-2.456 4.567-3.21 2.648-6.094 3.51-7.646 2.285zm4.462-4.763c1.846-1.772 2.332-2.65 2.204-3.982-.141-1.469-.826-1.28-2.218.61-.677.92-1.516 2.233-1.865 2.92-1.3 2.563-.516 2.752 1.88.452z" fill="#101010" stroke-width=".265"/></svg>