<svg height="303" width="2500" xmlns="http://www.w3.org/2000/svg" viewBox="0 0 214.227 25.938"><path d="M0 0h52.69v25.938H0z" fill="#c50018"/><g fill="#fff"><path d="M1.947 5.943h6.17v3.768H2.058v4.91H8v4.8H1.947v4.516h10.908V1.543H1.947zM15.379 1.2l-1.032 3.711 5.881 1.547.92-3.6zM14.059 11.429l6.053 1.6 1.148-3.54-6.175-1.716zM14 18.686v4.971l11.313-4.288v-5.2L14 18.681zM29.114 1.8l-3.768 22.479 9.381-1.25.182 1.138h4.238l-1.886-10.684H32.8l.915 4.683-2.286.344L34.176 1.8zM39.314 6.054H50.4V1.77l-11.086.03zM39.4 12.112h6.205l-4.921 12.081h5.032L50.4 12.567V7.738h-11z"/></g><path d="M0 0h214.227v25.938H0z" fill="none"/></svg>