<svg height="2500" viewBox="16.86 .47 56.28 59.05" width="1682" xmlns="http://www.w3.org/2000/svg"><path d="m16.86.47h56.28v59.05h-56.28z" fill="#fff"/><path d="m18.03 1.87h32.21l-19.58 20.77 25.61-20.77h3.05l-12.93 13.71 16.91-13.71h8.67v56.35h-53.94z" fill="#e2000f" fill-rule="evenodd"/><g fill="#fff"><path d="m26.41 30.95c1.08.43 1.88.96 2.38 1.61.51.64.76 1.39.76 2.25 0 .46-.08.93-.22 1.39-.15.46-.4.87-.75 1.24s-.81.66-1.37.89-1.26.34-2.08.34c-.57 0-1.15-.07-1.73-.2s-1.06-.3-1.41-.52l-.14-.14.57-1.86.15.14c.43.28.88.49 1.36.63.47.14.93.21 1.36.21.71 0 1.27-.17 1.68-.52.4-.35.61-.84.61-1.48 0-.5-.16-.92-.48-1.25s-.87-.68-1.66-1.03c-1.15-.43-1.99-.94-2.51-1.53s-.78-1.32-.78-2.17c0-.54.1-1.03.3-1.49s.49-.85.86-1.18c.37-.32.81-.58 1.31-.77.51-.18 1.06-.28 1.67-.28.71 0 1.29.08 1.73.24s.77.32.98.47h.16l-.59 1.71h-.28c-.22-.14-.5-.28-.86-.4s-.79-.19-1.28-.19c-.25 0-.49.03-.73.09s-.45.15-.64.28c-.19.12-.34.29-.46.49-.11.2-.17.45-.17.73 0 .25.04.47.12.68.08.2.21.39.38.57.18.18.41.35.71.52.29.17.65.34 1.08.52m13.7-5.7v1.89h-9.48v-1.89zm-5.7 2.48h2.03v10.94h-2.03zm13.18 5.48v5.46h-2.07v-5.62l-3.98-7.8h2.36l1.77 3.68c.15.31.28.58.38.8.1.23.22.45.37.68l.14.59.14.16zm4.28-7.96-3.98 7.21-.89-1.89c.08-.24.18-.46.3-.66s.21-.38.29-.54l.16-.45 1.89-3.68h2.23zm7.82 11.49v1.91h-7.25v-13.4h2.03v11.49zm3.12-4.12v3.68h-2.03v-11.05h7.05v1.77h-5.02v3.68h4.73v1.93h-4.73zm5.32 4.27v1.77h-7.35v-1.77zm-44.27 7.81c.54 0 .97-.12 1.3-.36s.5-.58.5-1.02c0-.47-.15-.82-.46-1.04s-.75-.33-1.34-.33h-.84v2.75zm-.41 5.85c-.43 0-.8-.02-1.12-.05a8.49 8.49 0 0 0 -.71-.05h-.11v-1.17h2.34c.18 0 .4-.02.64-.05.25-.04.48-.11.7-.23s.4-.29.55-.51c.16-.22.23-.52.23-.89s-.09-.68-.26-.89c-.18-.22-.38-.37-.62-.48s-.48-.17-.74-.2c-.25-.03-.46-.04-.61-.04h-.73v2.87h-1.5v-7.97h.11c.32-.06.67-.11 1.03-.15s.72-.06 1.09-.06c.64 0 1.16.06 1.55.17.4.11.73.3 1 .57.26.22.47.48.63.79.15.31.23.65.23 1.01 0 .43-.12.82-.36 1.17s-.55.64-.92.85c.19.08.37.19.56.34.19.14.36.32.52.52.16.21.28.44.38.71s.15.56.15.88c0 .37-.07.71-.22 1.03s-.36.61-.64.88c-.31.31-.73.55-1.23.71-.51.16-1.16.24-1.95.24m6.3 0h-1.63l3.24-9.86h1.63l3.15 9.86h-1.51l-.87-2.59-.44-1.63-.11-.22v-.11l-.77-2.27c-.05-.22-.1-.42-.16-.6s-.11-.38-.16-.6c-.06.22-.12.43-.17.64s-.11.39-.16.56l-.77 2.6h1.84l.33 1.2h-2.59l-.87 3.03zm8.78 0h-1.63l3.24-9.86h1.63l3.15 9.86h-1.51l-.87-2.59-.44-1.63-.11-.22v-.11l-.77-2.27c-.05-.22-.11-.42-.16-.6-.06-.18-.11-.38-.16-.6-.06.22-.12.43-.17.64s-.11.39-.16.56l-.77 2.6h1.84l.33 1.2h-2.6l-.87 3.03zm9.12-1.31h.11l-2.07 1.3v-.87l4.99-7.73h-4.56v-1.28h6.52v.97l-4.99 7.6zm-1.31 1.31 2.06-1.3h4.24v1.3zm8.74 0h-1.63l3.24-9.86h1.63l3.15 9.86h-1.51l-.87-2.59-.44-1.63-.11-.22v-.11l-.77-2.27c-.05-.22-.11-.42-.16-.6s-.11-.38-.16-.6c-.06.22-.12.43-.17.64s-.11.39-.16.56l-.77 2.6h1.84l.33 1.2h-2.6l-.87 3.03zm9.61-5.34c.59 0 1.04-.15 1.35-.44s.47-.69.47-1.17c0-.35-.06-.62-.17-.84-.11-.21-.25-.37-.42-.49s-.37-.2-.59-.23c-.22-.04-.44-.06-.65-.06h-.96v8.56h-1.5v-9.63h.11c.27-.05.61-.1 1.01-.15.4-.04.82-.07 1.25-.07.64 0 1.18.06 1.61.17s.79.31 1.06.58c.26.27.46.56.58.88s.18.67.18 1.05c0 .59-.13 1.09-.39 1.51s-.63.74-1.11.96c.26.16.5.4.7.72.21.32.36.72.47 1.2.11.64.21 1.19.32 1.64.11.46.22.76.32.92l.11.21h-1.5l-.11-.11c-.05-.11-.13-.33-.22-.68-.1-.35-.2-.87-.3-1.58-.08-.32-.17-.58-.27-.8s-.22-.4-.35-.53-.29-.23-.47-.28c-.18-.06-.39-.09-.63-.09h-.54v-1.28h.65z"/><path d="m50.24 1.87-19.58 20.77 25.61-20.77zm9.17-.09-13.02 13.8 17.02-13.8z" fill-rule="evenodd"/></g></svg>