<svg fill="none" height="2500" width="2500" xmlns="http://www.w3.org/2000/svg" viewBox="0 0 288 288"><path d="M0 0h288v288H0z" fill="#000"/><path d="M102.901 143.824c-2.433-6.462-4.61-12.272-6.823-18.058-.268-.699-1.222-1.456-1.06-1.933 2.504-7.685 4.239-15.8 7.988-22.833 3.994-7.475 11.119-12.586 19.467-14.787 18.397-4.843 35.606-1.944 50.067 10.747 5.6 4.914 9.466 11.783 13.238 18.618-9.92-9.944-20.411-18.245-34.965-19.794 15.055 6.113 26.745 15.637 31.845 31.949-1.304-1.397-2.573-2.829-3.901-4.203-7.836-8.115-16.661-14.542-28.293-15.8-2.27-.244-4.657-.116-6.916.303-4.657.85-8.476 2.981-9.42 8.15-.943 5.147.85 9.781 5.321 11.888 5.484 2.585 11.527 4.238 17.5 5.484 6.043 1.258 12.412.978 18.397 2.399 3.97.943 7.987 3.108 11.154 5.728 7.789 6.404 9.21 13.832 4.471 22.728-2.643 4.971-2.899 9.489-.07 14.263.396.663.978 1.35 1.025 2.061.547 7.428 1.001 14.868 1.502 22.576-.815.14-1.735.408-2.655.454-5.736.287-8.635-2.375-8.697-7.987-.129-12.633-7.86-24.055-18.63-27.56-12.155-3.947-27.315.838-34.441 11.981-3.679 5.752-6.45 12.447-8.01 19.095-1.456 6.206-5.414 4.588-8.826 4.32-4.448-.338-2.585-4.029-2.317-6.358.792-6.916 2.177-13.785 2.806-20.713.221-2.433-.407-5.472-1.793-7.417-5.251-7.37-5.926-14.903-2.177-23.007 1.548-3.341 3.318-6.637 4.285-10.141.582-2.119.151-4.704-.524-6.87-.21-.675-3.575-1.315-3.959-.815-1.386 1.84-2.317 4.11-3.062 6.334-1.048 3.132-1.793 6.357-2.573 9.198z" fill="#fff"/><circle cx="111" cy="109" fill="#000" r="3"/></svg>