<svg fill="none" height="2500" width="2500" xmlns="http://www.w3.org/2000/svg" viewBox="0 0 288 288"><path d="M0 0h288v288H0z" fill="#e9d8ff"/><path d="M101.96 163.08c-4.967 6.085-11.575 6.96-18.863 4.955-3.683-1.012-6.214-3.525-7.796-6.997-.996-2.185-2.06-2.309-3.382-.362-3.633 5.344-8.83 7.767-15.127 7.866-7.217.115-14.44.035-21.66.022-1.712 0-2.13-.418-2.13-2.08-.003-14.953-.003-29.907 0-44.864.003-1.798.362-2.151 2.188-2.151 6.963-.006 13.924-.016 20.887.003 3.169.009 6.22.529 9.17 1.823 7.873 3.447 9.658 15.805 2.55 20.729-.195.136-.356.321-.675.615 2.467.845 4.184 2.39 5.561 4.407.758 1.111 1.814 1.108 2.5-.043 3.693-6.165 9.548-7.718 16.159-7.728 3.55-.006 7.099 0 10.803 0 .09-3.227.437-6.372-2.506-8.557-2.433-1.804-7.128-1.996-9.68-.164-1.087.78-1.932 2.099-2.498 3.346-.49 1.08-.9 1.693-2.182 1.662-2.937-.075-5.877-.016-8.817-.028-1.724-.009-2.117-.437-1.913-2.154.675-5.67 3.436-9.928 8.793-12.116 6.734-2.751 13.678-3.036 20.552-.628 6.846 2.398 9.897 7.848 10.423 14.709.384 4.976.195 9.996.263 14.994.006.464-.145 1.018.056 1.371.312.551.941 1.399 1.3 1.337.578-.099 1.126-.78 1.528-1.331.199-.272.047-.801.047-1.213v-28.62c0-2.132.282-2.439 2.395-2.414 5.825.074 11.686-.229 17.458.362 9.021.925 15.631 5.636 19.351 14.109.285.647 1.074 1.476 1.634 1.476.557 0 1.378-.82 1.644-1.464 4.369-10.615 15.028-15.854 25.928-14.647 9.51 1.052 16.414 5.874 20.292 14.79.26.597 1.043 1.349 1.572 1.34.548-.01 1.34-.755 1.581-1.356 6.577-16.436 28.16-19.181 39.728-8.968 6.821 6.022 9.29 13.771 8.074 22.588-1.349 9.783-6.793 16.675-16.223 19.767-9.627 3.156-18.54 1.435-26.178-5.475-2.399-2.17-4.023-4.927-5.329-7.892-.282-.64-1.068-1.451-1.637-1.467-.551-.012-1.393.793-1.65 1.424-4.193 10.302-14.573 15.656-25.309 14.731-8.006-.69-14.477-4.166-18.9-11.027-.804-1.247-1.29-2.695-2.064-3.964-.325-.535-1.012-1.182-1.535-1.179-.523 0-1.293.64-1.529 1.185-4.382 10.182-12.549 14.422-23.155 14.747-4.636.142-9.281.034-13.923.018-1.841-.006-2.219-.418-2.231-2.305-.003-.619.102-1.26-.028-1.851-.146-.653-.35-1.56-.814-1.795-.48-.244-1.439-.012-1.953.35-2.234 1.569-4.438 3.197-6.539 4.936-1.182.981-2.182.947-3.039-.17-1.142-1.486-2.12-3.095-3.172-4.652zm142.764-17.785c-.003-5.757-1.745-9.548-4.84-11.804-5.357-3.905-13.119-2.869-17.04 2.272-4.153 5.447-3.28 14.415 1.928 18.469 4.07 3.169 8.647 3.556 13.236 1.396 4.807-2.262 6.598-6.508 6.716-10.333zm-49.429-2.619c-.022-3.079-1.458-7.065-5.484-9.587-4.28-2.683-8.839-2.73-13.181-.186-4.456 2.612-5.973 6.911-5.775 11.856.183 4.553 2.006 8.319 6.119 10.584 7.473 4.116 18.231.059 18.317-12.663zm-65.433 1.371c0 2.993-.028 5.983.006 8.975.05 4.268-.724 3.838 3.9 3.791 5.443-.055 9.612-3.06 11.326-8.003 1.882-5.431.378-11.593-3.568-14.87-2.992-2.485-6.511-2.838-10.194-2.761-1.179.025-1.498.474-1.485 1.576.046 3.763.018 7.529.015 11.296zm-33.46 4.723c-.01-.083-4.649.053-6.846.628-2.197.576-3.16 2.352-3.024 4.451.136 2.101 1.353 3.654 3.485 4.187 4.27 1.067 7.904-.124 10.921-3.29 1.43-1.501 1.415-3.358 1.167-5.215-.04-.297-.693-.708-1.08-.727-1.538-.083-3.082-.034-4.627-.034zm-44.605.05v-.053c-1.696 0-3.395.022-5.091-.009-.864-.016-1.368.238-1.353 1.21.028 1.903-.043 3.809.05 5.706.019.394.579 1.087.891 1.09 3.751.034 7.511.117 11.25-.127 2.59-.17 3.806-1.742 3.732-4.036-.071-2.166-1.56-3.614-4.079-3.763-1.792-.105-3.6-.022-5.397-.022zm-.687-17.73c0 .037-.006.077-.006.114-1.443 0-2.888.044-4.33-.015-1.093-.044-1.476.424-1.427 1.47.053 1.132.006 2.268.013 3.401.024 3.658-.39 3.215 3.218 3.194 2.671-.016 5.367.021 8.006-.307 2.061-.257 3.04-1.73 3.049-3.679.009-1.978-1.062-3.426-3.148-3.782-1.764-.3-3.58-.279-5.372-.396z" fill="#c8001a"/></svg>