<svg height="18in" viewBox="110.824 138.045 229.799 28.911" width="18in" xmlns="http://www.w3.org/2000/svg"><path d="m116.055 138.045-5.23 2.005v4.957l5.23-2.006zm.016 4.973v4.078h11.112c.333 0 .65.066.932.199a2.845 2.845 0 0 1 1.8 2.636s-.016.398-.067.597a2.578 2.578 0 0 1 -1.582 1.972 2.887 2.887 0 0 1 -1.2.265h-11.011v-5.646l-5.231 2v17.837h18.89s.317-.018.45-.018c3.316-.215 5.964-2.9 6.18-6.265.017-.166 0-1.094 0-1.26-.149-1.758-1.049-3.333-2.448-4.493a6.806 6.806 0 0 0 1.3-3.564c0-.132.033-1.36.016-1.525-.3-3.813-4.081-6.813-8.679-6.813zm-.016 4.101.016-.006v-.016h-.016zm202.18-3.155v22.974h17.274c2.815 0 5.097-2.27 5.097-5.073v-8.22c.017-2.803-2.265-5.09-5.097-5.09h-12.028v-4.591h-.1zm-113.373 0v22.976h17.275c.088 0 .175-.002.262-.007 2.693-.136 4.834-2.353 4.834-5.067v-8.238c.017-2.801-2.264-5.072-5.096-5.072h-12.027v-4.592h-.1zm62.281.033v22.943h19.19l-1.649-4.343h-12.31v-18.6zm22.955 4.558 1.499 3.962h16.742c.283 0 .516.231.516.513v2.338h-14.943c-2.815 0-5.097 2.27-5.097 5.071v1.426c0 2.802 2.282 5.073 5.097 5.073h19.724v-13.327c0-2.785-2.283-5.056-5.114-5.056zm-148.59 0 1.5 3.962h16.741c.284 0 .517.232.517.514v2.338h-14.942c-2.815 0-5.098 2.27-5.098 5.072v1.425c0 2.802 2.283 5.073 5.098 5.073h19.707v-13.327c.016-2.802-2.283-5.056-5.098-5.056zm28.153 0v18.384h5.098v-13.842c0-.281.233-.513.516-.513h6.897c.283 0 .516.232.516.513v13.842h5.115v-13.842a.518.518 0 0 1 .516-.513h6.797c.283 0 .516.232.516.513v13.843h5.13v-13.312c-.05-2.801-2.332-5.072-5.147-5.072zm61.853 0v13.311c0 2.802 2.281 5.073 5.098 5.073h12.676c2.816 0 5.098-2.27 5.098-5.073v-13.31h-4.782v13.874h.017a.518.518 0 0 1 -.516.514h-12.26a.518.518 0 0 1 -.517-.514v-13.874zm-21.405 4.029h11.477c.284 0 .517.232.517.514v9.332a.518.518 0 0 1 -.517.515h-11.476zm113.373.015h11.478c.283 0 .516.233.516.514v9.333a.517.517 0 0 1 -.516.513h-11.478zm-207.427 4.227h11.861a3.05 3.05 0 0 1 3.065 3.05 3.054 3.054 0 0 1 -3.065 3.068h-11.861zm178.041 2.487h14.743v3.63h-14.743a.518.518 0 0 1 -.517-.514v-2.603c0-.281.233-.513.517-.513zm-148.59 0h14.743v3.63h-14.743a.518.518 0 0 1 -.516-.513v-2.602c0-.282.234-.514.516-.514z" stroke-width="2.59"/><text stroke-width=".265" transform="translate(312.921 98.35)" x="-291.967" y="382.842"/></svg>