<svg height="18in" viewBox="147.301 140.273 165.249 67.169" width="18in" xmlns="http://www.w3.org/2000/svg"><path d="m153.321 140.273-6.02 2.31v5.704l6.02-2.309zm.019 5.725v4.694h12.79c.384 0 .75.076 1.074.229a3.274 3.274 0 0 1 2.072 3.034s-.02.458-.078.687a2.967 2.967 0 0 1 -1.82 2.27c-.423.191-.884.305-1.382.305h-12.675v-6.499l-6.02 2.302v20.531h21.744s.364-.019.518-.019c3.816-.248 6.864-3.34 7.113-7.213.02-.19 0-1.259 0-1.45-.172-2.022-1.207-3.835-2.818-5.171a7.834 7.834 0 0 0 1.496-4.102c0-.153.038-1.565.018-1.756-.344-4.388-4.697-7.842-9.99-7.842zm-.019 4.72.019-.007v-.019h-.019zm102.223-3.631v26.446h19.886c3.24 0 5.867-2.614 5.867-5.84v-9.482c.019-3.225-2.607-5.839-5.867-5.839h-13.844v-5.285h-.116zm-72.924 5.285 1.726 4.56h19.27c.327 0 .595.267.595.592v2.69h-17.2c-3.24 0-5.867 2.614-5.867 5.839v1.64c0 3.226 2.628 5.84 5.868 5.84h22.684v-15.341c.018-3.225-2.628-5.82-5.868-5.82zm32.406 0v21.161h5.868v-15.933c0-.324.268-.591.594-.591h7.938c.327 0 .595.267.595.59v15.934h5.887v-15.933c0-.324.269-.591.594-.591h7.824c.326 0 .593.267.593.59v15.934h5.907v-15.322c-.058-3.225-2.685-5.84-5.926-5.84zm71.197 0v15.322c0 3.225 2.626 5.84 5.868 5.84h14.591c3.24 0 5.868-2.615 5.868-5.84v-15.322h-5.504v15.97h.02a.596.596 0 0 1 -.594.592h-14.113a.596.596 0 0 1 -.595-.591v-15.971zm-24.638 4.637h13.21c.327 0 .595.267.595.591v10.743a.596.596 0 0 1 -.594.592h-13.21zm-108.264 4.884h13.653a3.511 3.511 0 0 1 3.529 3.51 3.516 3.516 0 0 1 -3.529 3.531h-13.653zm33.901 2.862h16.97v4.179h-16.97a.596.596 0 0 1 -.594-.591v-2.996c0-.325.27-.592.594-.592zm18.889 16.24v26.446h19.884c3.24 0 5.867-2.615 5.867-5.84v-9.463c.02-3.225-2.608-5.859-5.867-5.859h-13.845v-5.284h-.114zm-58.81.039v26.408h22.09l-1.899-5h-14.17v-21.408zm26.423 5.245 1.725 4.56h19.271c.326 0 .595.268.595.592v2.69h-17.201c-3.24 0-5.867 2.615-5.867 5.839v1.641c0 3.225 2.626 5.84 5.867 5.84h22.703v-15.341c0-3.206-2.627-5.82-5.887-5.82zm38.426 4.656h13.213c.326 0 .594.268.594.591v10.743a.596.596 0 0 1 -.594.592h-13.213zm-33.824 7.728h16.97v4.179h-16.97a.596.596 0 0 1 -.595-.592v-2.996c0-.324.268-.591.595-.591z" stroke-width="2.59"/><text stroke-width=".265" transform="translate(312.921 98.35)" x="-291.967" y="382.842"/></svg>