<svg height="18in" viewBox="114.795 142.49 233.243 67.205" width="18in" xmlns="http://www.w3.org/2000/svg"><path d="m114.795 142.49v42.131l24.084-9.445v-32.685zm27.823 0v21.066l24.083 9.446v-30.512zm46.192.036-6.02 2.31v5.704l6.02-2.308zm.018 5.725v4.694h12.79c.384 0 .75.076 1.074.229a3.274 3.274 0 0 1 2.072 3.034s-.02.458-.078.687a2.967 2.967 0 0 1 -1.82 2.27c-.422.192-.884.306-1.382.306h-12.674v-6.5l-6.021 2.302v20.532h21.744s.364-.02.518-.02c3.816-.247 6.864-3.34 7.113-7.213.02-.19 0-1.259 0-1.45-.171-2.022-1.207-3.835-2.818-5.17a7.834 7.834 0 0 0 1.496-4.103c0-.153.038-1.565.018-1.755-.344-4.389-4.697-7.843-9.99-7.843zm-.018 4.72.018-.007v-.019h-.018zm102.222-3.631v26.446h19.885c3.24 0 5.867-2.614 5.867-5.839v-9.483c.019-3.224-2.607-5.839-5.867-5.839h-13.844v-5.285h-.116zm-72.923 5.285 1.725 4.56h19.27c.327 0 .595.268.595.592v2.69h-17.199c-3.24 0-5.868 2.615-5.868 5.84v1.64c0 3.225 2.628 5.84 5.868 5.84h22.684v-15.342c.018-3.225-2.628-5.82-5.868-5.82zm32.405 0v21.161h5.868v-15.933c0-.324.268-.591.594-.591h7.939c.326 0 .594.267.594.591v15.933h5.887v-15.933c0-.324.269-.591.594-.591h7.824c.326 0 .594.267.594.591v15.933h5.906v-15.322c-.058-3.225-2.685-5.84-5.926-5.84zm71.197 0v15.322c0 3.225 2.626 5.84 5.868 5.84h14.591c3.24 0 5.868-2.615 5.868-5.84v-15.322h-5.504v15.971h.02a.596.596 0 0 1 -.594.591h-14.113a.596.596 0 0 1 -.595-.591v-15.971zm-24.638 4.637h13.21c.327 0 .596.267.596.592v10.742a.596.596 0 0 1 -.595.592h-13.21zm-108.263 4.884h13.652a3.511 3.511 0 0 1 3.529 3.51 3.516 3.516 0 0 1 -3.529 3.531h-13.652zm33.9 2.863h16.97v4.178h-16.97a.596.596 0 0 1 -.593-.59v-2.997c0-.324.268-.591.593-.591zm-80.092.574v42.112h24.082v-32.686zm-3.739 11.62-24.084 9.444v21.047h24.084zm102.72 4.045v26.446h19.884c3.24 0 5.868-2.615 5.868-5.84v-9.462c.018-3.225-2.609-5.86-5.868-5.86h-13.844v-5.284h-.115zm-58.81.039v26.408h22.09l-1.899-5h-14.17v-21.408zm26.423 5.245 1.725 4.56h19.271c.327 0 .595.268.595.592v2.69h-17.201c-3.24 0-5.866 2.615-5.866 5.839v1.641c0 3.225 2.625 5.84 5.866 5.84h22.703v-15.341c0-3.206-2.627-5.82-5.887-5.82zm38.427 4.656h13.212c.326 0 .594.268.594.592v10.743a.596.596 0 0 1 -.594.59h-13.212zm-33.825 7.728h16.97v4.179h-16.97a.596.596 0 0 1 -.595-.591v-2.997c0-.324.268-.59.595-.59z" stroke-width="2.59"/><text stroke-width=".265" transform="translate(312.921 98.35)" x="-291.967" y="382.842"/></svg>