<svg height="2183" viewBox="0 0 991.079 865.47" width="2500" xmlns="http://www.w3.org/2000/svg"><g fill="#960"><path d="m137.497 455.51q15.009-2.574 22.91.212 11.308 3.926 17.114 16.037 6.126 12.779 1.714 25.166-5.488 15.06-25.196 24.51l-47.15 22.604-1.481-3.09q6.433-3.084 8.01-5.587 1.606-2.619 1.374-5.384-.163-2.798-4.568-11.985l-35.237-73.499q-4.405-9.187-6.484-11.066-2.051-1.996-5.059-2.3-3.007-.305-9.371 2.747l-1.482-3.09 44.48-21.326q15.945-7.644 24.265-7.319 8.28.242 15.435 5.337 7.116 5.011 10.84 12.779 3.924 8.185 2.148 16.945-1.815 8.677-12.262 18.309zm-25.99 9.687q9.717-4.659 13.02-9.53 3.372-4.903 3.513-10.929.141-6.025-3.462-13.542-3.604-7.517-8.35-11.097-4.718-3.695-10.436-4.036-5.717-.34-15.668 4.534zm3.123 6.514 17.419 36.332 1.934 4.209q2.162 4.51 5.13 5.963 2.998 1.336 6.693-.435 5.475-2.625 8.658-7.746 3.212-5.238 2.993-12.015-.26-6.86-3.583-13.793-3.805-7.934-9.819-12.755-6.054-4.904-12.524-4.883-6.47.02-16.9 5.123zm125.778-31.335-32.779 15.715 1.385 12.895q.727 6.431 2.449 10.023 2.282 4.76 6.511 5.506 2.489.45 10.063-2.359l1.481 3.09-30.862 14.797-1.482-3.09q4.555-3.314 5.81-8.949 1.213-5.718-.272-20.927l-10.137-106.282 1.3-.623 77.99 76.832q11.118 10.9 15.839 12.848 3.568 1.473 8.011-.143l1.482 3.09-44.891 21.522-1.482-3.09 1.848-.886q5.406-2.592 6.715-5.479.865-2.058-.337-4.564-.72-1.503-1.892-2.893-.497-.686-5.056-5.28zm-5.29-5.065-32.523-32.377 4.466 45.828zm44.322-113.286 79.457 48.292-23.345-48.693q-4.885-10.19-9.002-12.632-5.607-3.27-13.26.605l-1.482-3.09 30.657-14.699 1.482 3.09q-5.445 3.74-6.777 6.228-1.304 2.372-.865 6.27.467 3.782 4.31 11.8l45.21 94.296-2.327 1.115-107.96-64.21 34.517 71.995q4.685 9.772 9.954 11.458 5.337 1.653 10.058-.611l2.19-1.05 1.482 3.09-32.916 15.781-1.481-3.09q7.624-3.758 8.833-8.96 1.21-5.202-3.116-14.223l-38.32-79.93-3.427-2.055q-5.105-3.099-8.044-3.436-2.939-.337-7.261 1.53l-1.482-3.09zm158.683-79.263 18.82 39.255-2.669 1.28q-10.379-13.924-22.515-18.173-12.136-4.248-22.537.74-8.691 4.166-13.022 13.74-4.33 9.575-2.958 21.038 1.735 14.68 9.143 30.13 7.288 15.201 16.442 26.22 9.114 10.936 18.904 14.152 9.75 3.132 20.425-1.986 8.759-4.2 13.77-12.354 5.08-8.188 7.669-23.502l4.685 9.772q-3.036 13.68-9.36 22.258-6.294 8.462-17.585 13.875-14.85 7.12-29.898 5.398-14.98-1.755-27.803-12.35-12.754-10.629-20.122-25.997-7.769-16.203-7.825-34.049.013-17.88 7.939-31.54 7.994-13.694 21.27-20.059 9.786-4.691 23.149-4.73 7.737-.011 9.448-.832 2.19-1.05 2.843-3.725.68-2.792-.882-7.281zm62.342-28.656q21.691-11.632 43.563-1.472 21.94 10.128 34.033 35.351 10.331 21.549 7.846 42.873-3.275 28.277-28.252 40.252-25.046 12.008-48.663-2.144-18.66-11.186-29.432-33.653-12.093-25.224-6.113-48.737 6.008-23.63 27.018-32.47zm3.384 4.952q-12.728 6.102-11.758 25.153.84 15.621 12.533 40.01 13.895 28.981 28.89 38.843 10.462 6.9 20.932 1.88 7.049-3.379 9.768-9.819 3.46-8.232 1.207-21.533-2.293-13.384-11.343-32.26-10.772-22.467-19.519-31.935-8.787-9.551-16.327-11.586-7.472-2.067-14.383 1.247zm143.373 65.926-1.482-3.09 3.08-1.476q4.037-1.936 5.438-4.457 1.429-2.636 1.174-5.801-.225-2.05-4.43-10.819l-35.718-74.5q-4.165-8.687-5.959-10.498-1.794-1.81-4.881-2.282-3.06-.588-6.96 1.282l-3.08 1.477-1.48-3.09 41.537-19.915q16.629-7.973 29.4-7.316 15.629.827 28.56 11.473 13 10.614 21.289 27.903 5.726 11.943 7.423 23.559 1.657 11.531-.175 20.524-1.872 8.91-6.52 16.069-4.618 7.042-13.02 13.741-3.694 3.004-12.659 7.302zm-15.837-123.784 42.366 88.365q3.364 7.016 4.672 8.34 1.308 1.325 3.009 1.537 2.448.367 5.938-1.307 11.428-5.479 12.885-17.887 2.045-16.8-10.929-43.86-10.451-21.8-22.309-32.138-9.333-8.057-18.075-8.386-6.169-.227-17.557 5.336zm102.277-48.933 22.103 46.103 1.848-.885q8.828-4.233 9.553-12.9.726-8.669-4.506-22.39l2.6-1.247 28.43 59.3-2.6 1.247q-5.466-9.295-11.098-14.196-5.563-4.934-10.054-5.349-4.532-.498-11.17 2.684l15.297 31.905q4.485 9.355 6.102 11.148 1.685 1.76 4.105 2.243 2.42.483 6.39-1.42l5.542-2.657q13.002-6.234 17.28-17.324 4.345-11.123.559-27.797l2.532-1.214 13.084 38-80.201 38.45-1.482-3.09 3.08-1.476q4.037-1.936 5.66-4.87 1.218-2.023.815-5.322-.209-2.366-4.293-10.885l-35.718-74.5q-3.684-7.685-4.867-9.274-2.086-2.596-4.695-3.297-3.721-1.092-8.238 1.074l-3.079 1.476-1.482-3.09 77.67-37.238 16.057 33.492-2.6 1.247q-7.871-11.326-14.06-14.933-6.122-3.639-13.893-2.995-4.553.334-15.091 5.386z" stroke-width="3.472"/><path d="m195.033 592.72 9.018 23.994-47.719 22.879-.858-1.79 1.784-.855q2.338-1.121 3.278-2.821.706-1.172.472-3.082-.12-1.37-2.486-6.304l-20.687-43.15q-2.412-5.03-3.451-6.079-1.04-1.048-2.827-1.321-1.772-.34-4.031.742l-1.784.855-.858-1.79 28.655-13.738.858 1.79-2.338 1.121q-2.339 1.121-3.278 2.821-.706 1.172-.512 3.101.12 1.37 2.486 6.304l20.038 41.795q2.412 5.03 3.56 6.205 1.125 1.127 2.837 1.139 1.2-.04 5.004-1.864l4.479-2.147q4.28-2.052 6.252-5.259 1.973-3.206 2.132-8.16.199-4.974-1.65-13.607zm38.827-13.261-18.984 9.102.802 7.468q.421 3.725 1.418 5.805 1.322 2.757 3.772 3.189 1.44.26 5.827-1.366l.858 1.79-17.874 8.57-.858-1.79q2.638-1.92 3.364-5.183.703-3.312-.157-12.12l-5.871-61.556.753-.361 45.17 44.499q6.439 6.313 9.173 7.44 2.067.854 4.64-.082l.858 1.79-26 12.465-.858-1.79 1.07-.513q3.131-1.501 3.89-3.173.5-1.192-.195-2.644-.418-.87-1.096-1.675-.288-.398-2.929-3.058zm-3.063-2.934-18.837-18.752 2.587 26.543zm60.436-38.137 8.72 18.188q2.551 5.321 3.739 6.477 1.204 1.089 2.946 1.265 1.781.157 5.428-1.59l.858 1.789-27.308 13.092-.858-1.79q3.726-1.786 4.64-3.235.93-1.517.795-3.119-.094-1.62-2.645-6.941l-20.409-42.568q-2.551-5.321-3.755-6.41-1.188-1.156-2.93-1.332-1.742-.176-5.428 1.59l-.858-1.789 23.424-11.23q11.573-5.548 19.018-2.93 7.445 2.617 11.063 10.163 3.062 6.385 1.992 12.49-1.07 6.106-5.989 10.487-3.288 3.004-12.443 7.393zm-15.4-32.12 13.59 28.347q1.355-.53 2.029-.853 4.835-2.319 5.781-7.056.923-4.785-2.602-12.138-3.502-7.304-7.741-9.436-4.24-2.132-9.432.357zm64.571 8.308 8.813 18.381q2.551 5.321 3.74 6.477 1.203 1.089 2.945 1.265 1.742.176 5.428-1.591l.858 1.79-27.506 13.187-.858-1.79q3.726-1.786 4.64-3.235.93-1.517.795-3.119-.094-1.62-2.645-6.941l-20.409-42.568q-2.551-5.322-3.755-6.41-1.188-1.156-2.93-1.332-1.742-.176-5.428 1.59l-.858-1.789 24.97-11.971q9.75-4.674 15.056-5.196 5.307-.521 10.294 2.56 4.964 3.035 7.817 8.984 3.478 7.256 1.47 14.05-1.296 4.31-5.492 8.165l23.566 16.009q4.6 3.089 6.18 3.64 2.345.72 4.554-.16l.859 1.79-16.924 8.113-31.652-21.59zm-15.422-32.169 13.776 28.734 2.259-1.083q5.509-2.641 7.664-5.162 2.132-2.569 2.147-6.502.031-4.001-2.45-9.177-3.595-7.498-8.205-9.69-4.57-2.212-10.95.847zm66.313-37.266q12.563-6.737 25.23-.852 12.708 5.866 19.712 20.474 5.983 12.48 4.544 24.83-1.897 16.378-16.363 23.314-14.506 6.954-28.184-1.242-10.808-6.479-17.046-19.491-7.004-14.609-3.541-28.227 3.48-13.686 15.648-18.806zm1.96 2.868q-7.372 3.534-6.81 14.568.487 9.048 7.259 23.173 8.048 16.785 16.733 22.497 6.059 3.996 12.123 1.089 4.082-1.957 5.657-5.687 2.003-4.768.699-12.471-1.328-7.752-6.57-18.684-6.238-13.013-11.304-18.496-5.09-5.532-9.457-6.71-4.327-1.198-8.33.721zm88.012-44.873.859 1.79q-2.655 1.986-3.4 6.329-.505 3.217.496 13.743l5.518 58.988-1.308.627-43.43-43.31q-7.852-7.837-9.79-8.93-1.898-1.113-5.238-.047l-.858-1.79 25.762-12.351.858 1.79-.872.418q-3.488 1.672-4.246 3.344-.563 1.163.11 2.566.417.87 1.313 1.928.874 1.009 5.179 5.31l27.108 27.16-3.316-34.164q-.626-6.185-1.048-8.184-.422-1.998-1.025-3.256-.696-1.451-1.863-2.26-1.168-.808-2.675-.8-2.098-.005-4.912 1.344l-.858-1.79zm61.187 49.134.859 1.79-28.1 13.472-.859-1.79 1.784-.855q2.338-1.12 3.278-2.82.706-1.172.472-3.083-.12-1.37-2.486-6.304l-20.687-43.148q-2.412-5.031-3.451-6.08-1.039-1.049-2.827-1.322-1.772-.34-4.031.743l-1.784.855-.858-1.79 28.1-13.472.859 1.79-1.784.855q-2.338 1.121-3.278 2.821-.706 1.171-.512 3.101.12 1.37 2.486 6.304l20.687 43.149q2.412 5.03 3.451 6.08 1.079 1.03 2.85 1.37 1.789.273 4.048-.81zm-8.554-74.369 46.02 27.97-13.521-28.202q-2.83-5.901-5.214-7.316-3.248-1.894-7.68.35l-.858-1.79 17.756-8.512.858 1.79q-3.153 2.166-3.925 3.607-.755 1.373-.501 3.63.27 2.191 2.497 6.835l26.183 54.614-1.347.646-62.528-37.19 19.992 41.699q2.713 5.66 5.765 6.635 3.09.958 5.825-.354l1.269-.608.858 1.79-19.064 9.14-.858-1.79q4.416-2.176 5.116-5.19.7-3.012-1.805-8.236l-22.194-46.293-1.984-1.19q-2.957-1.796-4.66-1.991-1.701-.195-4.205.886l-.858-1.79zm91.905-45.906 10.9 22.735-1.546.741q-6.01-8.064-13.04-10.525-7.028-2.46-13.053.428-5.033 2.413-7.541 7.959-2.508 5.545-1.714 12.184 1.005 8.502 5.296 17.45 4.22 8.805 9.523 15.187 5.278 6.333 10.948 8.196 5.647 1.814 11.83-1.15 5.073-2.433 7.975-7.156 2.942-4.742 4.442-13.611l2.713 5.66q-1.758 7.922-5.42 12.89-3.646 4.902-10.186 8.037-8.6 4.123-17.316 3.126-8.676-1.016-16.103-7.153-7.387-6.156-11.654-15.056-4.5-9.385-4.531-19.72.007-10.356 4.597-18.268 4.63-7.931 12.32-11.617 5.667-2.718 13.406-2.74 4.482-.006 5.472-.481 1.269-.608 1.647-2.158.395-1.617-.51-4.217zm65.512 48.905.859 1.79-28.1 13.472-.859-1.79 1.784-.855q2.338-1.12 3.278-2.82.706-1.172.472-3.083-.12-1.37-2.486-6.304l-20.687-43.149q-2.412-5.03-3.451-6.08-1.039-1.048-2.827-1.32-1.772-.341-4.031.742l-1.784.855-.858-1.79 28.1-13.472.859 1.79-1.784.855q-2.338 1.12-3.278 2.82-.706 1.172-.512 3.102.12 1.37 2.486 6.304l20.687 43.149q2.412 5.03 3.451 6.08 1.079 1.029 2.85 1.37 1.789.272 4.048-.81zm27.497-33.946-18.984 9.102.802 7.469q.421 3.724 1.418 5.804 1.322 2.757 3.771 3.19 1.442.26 5.828-1.367l.858 1.79-17.874 8.57-.858-1.79q2.638-1.92 3.364-5.183.703-3.311-.157-12.12l-5.871-61.556.753-.36 45.17 44.497q6.439 6.313 9.173 7.441 2.066.854 4.64-.082l.858 1.79-26 12.464-.858-1.79 1.07-.512q3.131-1.502 3.89-3.174.5-1.192-.195-2.643-.418-.87-1.096-1.676-.288-.397-2.929-3.058zm-3.064-2.933-18.836-18.752 2.587 26.542zm53.83 1.559-.859-1.79 1.784-.855q2.338-1.121 3.15-2.581.827-1.527.68-3.36-.13-1.187-2.566-6.266l-20.687-43.15q-2.412-5.03-3.451-6.079-1.039-1.048-2.827-1.321-1.772-.34-4.031.742l-1.783.855-.859-1.79 24.058-11.533q9.63-4.618 17.027-4.237 9.052.479 16.542 6.645 7.529 6.147 12.33 16.16 3.316 6.917 4.299 13.644.96 6.68-.101 11.888-1.085 5.16-3.776 9.306-2.675 4.079-7.542 7.959-2.14 1.74-7.331 4.229zm-9.172-71.693 24.537 51.178q1.948 4.064 2.705 4.83.758.768 1.743.89 1.418.213 3.44-.756 6.618-3.173 7.462-10.36 1.184-9.73-6.33-25.403-6.053-12.625-12.92-18.613-5.406-4.666-10.47-4.857-3.572-.131-10.167 3.09zm59.235-28.341 12.802 26.702 1.07-.513q5.113-2.45 5.533-7.471.42-5.02-2.61-12.968l1.506-.722 16.466 34.345-1.506.722q-3.166-5.383-6.428-8.221-3.222-2.858-5.823-3.098-2.624-.289-6.469 1.554l8.86 18.479q2.597 5.418 3.534 6.456.976 1.02 2.377 1.3 1.402.28 3.7-.823l3.21-1.54q7.531-3.61 10.009-10.032 2.516-6.442.324-16.1l1.466-.703 7.578 22.008-46.45 22.27-.858-1.79 1.783-.855q2.339-1.12 3.278-2.82.706-1.172.472-3.083-.12-1.37-2.486-6.304l-20.687-43.149q-2.134-4.45-2.819-5.37-1.208-1.504-2.719-1.91-2.155-.632-4.77.622l-1.784.855-.858-1.79 44.983-21.567 9.3 19.398-1.506.722q-4.558-6.56-8.143-8.649-3.545-2.107-8.046-1.734-2.637.193-8.74 3.12z" stroke-width="2.011"/><path d="m264.408 628.998 17.423 36.34-2.682 1.286q-9.847-12.776-21.732-16.397-11.885-3.62-22.339 1.39-8.733 4.188-13.317 13.328-4.583 9.139-3.579 19.878 1.265 13.753 8.123 28.057 6.747 14.073 15.471 24.154 8.687 10.005 18.281 12.727 9.557 2.645 20.285-2.498 8.803-4.22 14.016-12.045 5.283-7.858 8.32-22.342l4.336 9.047q-3.428 12.96-9.954 21.223-6.494 8.154-17.841 13.594-14.923 7.155-29.77 6-14.78-1.188-27.149-10.758-12.3-9.603-19.121-23.83-7.192-15-6.696-31.784.564-16.817 8.834-29.91 8.338-13.128 21.68-19.524 9.834-4.715 23.067-5.163 7.661-.25 9.38-1.074 2.201-1.055 2.93-3.592.761-2.647-.648-6.821zm62.614-28.878q21.836-11.61 43.18-2.73 21.41 8.849 32.606 32.2 9.564 19.949 6.446 40.082-4.116 26.698-29.217 38.732-25.17 12.068-48.118-.514-18.131-9.945-28.103-30.744-11.196-23.351-4.549-45.652 6.679-22.41 27.755-31.374zm3.197 4.553q-12.791 6.132-12.418 24.021.35 14.667 11.174 37.245 12.864 26.83 27.408 35.643 10.145 6.167 20.667 1.122 7.084-3.396 9.975-9.537 3.68-7.85 1.86-20.29-1.858-12.518-10.236-29.993-9.972-20.8-18.34-29.434-8.407-8.713-15.81-10.394-7.334-1.713-14.28 1.617zm117.361 9.633 14.087 29.382q4.078 8.505 6.047 10.319 2 1.703 4.97 1.896 2.968.194 9.363-2.873l1.372 2.861-47.727 22.882-1.372-2.86q6.465-3.1 8.104-5.502 1.671-2.513 1.527-5.107-.075-2.626-4.153-11.132l-32.622-68.042q-4.078-8.505-6.078-10.209-1.97-1.814-4.938-2.007-2.968-.193-9.364 2.873l-1.372-2.861 43.326-20.772q16.918-8.11 26.018-9.24 9.1-1.13 17.462 3.61 8.325 4.662 12.885 14.172 5.56 11.598 1.766 22.737-2.447 7.069-9.825 13.554l39.434 24.742q7.7 4.771 10.373 5.582 3.969 1.045 7.794-.503l1.371 2.86-29.365 14.08-52.962-33.377zm-24.651-51.419 22.02 45.929 3.92-1.88q9.558-4.583 13.377-8.79 3.781-4.286 4.017-10.675.267-6.5-3.7-14.773-5.746-11.984-13.51-15.3-7.694-3.347-18.766 1.961zm113.787 67.452-1.372-2.861 3.095-1.484q4.058-1.945 5.522-4.359 1.497-2.524 1.342-5.493-.16-1.92-4.052-10.04l-33.067-68.97q-3.855-8.04-5.576-9.689-1.72-1.647-4.762-1.995-3.011-.459-6.931 1.42l-3.095 1.484-1.372-2.86 41.744-20.014q16.711-8.012 29.336-7.789 15.45.296 27.926 9.91 12.544 9.581 20.217 25.587 5.301 11.057 6.623 21.93 1.285 10.794-.806 19.31-2.13 8.438-6.952 15.314-4.79 6.767-13.317 13.327-3.75 2.94-12.76 7.258zm-11.859-115.94 39.22 81.806q3.115 6.495 4.37 7.7 1.254 1.205 2.931 1.352 2.413.27 5.92-1.412 11.485-5.506 13.31-17.222 2.544-15.864-9.466-40.916-9.676-20.18-21.098-29.54-8.993-7.29-17.638-7.328-6.101-.023-17.549 5.56zm115.208-64.364q21.837-11.61 43.18-2.729 21.412 8.848 32.607 32.2 9.564 19.948 6.446 40.082-4.116 26.697-29.218 38.732-25.17 12.067-48.117-.514-18.132-9.946-28.104-30.745-11.195-23.35-4.548-45.651 6.678-22.411 27.754-31.375zm3.198 4.553q-12.791 6.133-12.419 24.022.35 14.667 11.175 37.244 12.864 26.83 27.407 35.644 10.146 6.166 20.668 1.122 7.083-3.396 9.975-9.537 3.68-7.85 1.86-20.29-1.858-12.519-10.236-29.993-9.972-20.8-18.34-29.435-8.407-8.712-15.81-10.393-7.334-1.714-14.28 1.616zm138.856-10.277q14.94-2.884 22.677-.507 11.076 3.344 16.451 14.555 5.672 11.83.92 23.618-5.899 14.334-25.704 23.83l-47.383 22.717-1.372-2.86q6.464-3.1 8.104-5.503 1.67-2.512 1.527-5.106-.076-2.627-4.153-11.132l-32.622-68.042q-4.078-8.506-6.079-10.21-1.969-1.813-4.937-2.006-2.969-.194-9.364 2.873l-1.372-2.861 44.7-21.432q16.024-7.682 24.252-7.633 8.19-.028 15.119 4.544 6.89 4.494 10.338 11.685 3.633 7.577 1.605 15.872-2.065 8.217-12.707 17.598zm-26.034 9.914q9.766-4.682 13.187-9.365 3.49-4.716 3.816-10.388.326-5.672-3.01-12.63-3.337-6.96-7.926-10.18-4.557-3.33-10.208-3.474-5.65-.143-15.654 4.748zm2.892 6.031 16.126 33.635 1.784 3.899q2.002 4.175 4.897 5.45 2.926 1.164 6.64-.616 5.502-2.638 8.812-7.553 3.342-5.026 3.334-11.393-.045-6.445-3.122-12.863-3.522-7.345-9.328-11.693-5.843-4.426-12.25-4.207-6.408.22-16.893 5.341zm125.507-33.356-32.941 15.793.973 12.086q.521 6.026 2.115 9.351 2.113 4.407 6.278 4.978 2.45.347 10.036-2.53l1.372 2.862-31.016 14.87-1.372-2.861q4.613-3.258 6.029-8.596 1.378-5.416.378-19.675l-6.757-99.653 1.307-.626 74.85 69.858q10.672 9.909 15.287 11.595 3.487 1.276 7.936-.382l1.372 2.861-45.114 21.63-1.371-2.862 1.856-.89q5.433-2.604 6.818-5.36.92-1.963-.192-4.283-.667-1.392-1.784-2.663-.471-.63-4.844-4.81zm-5.081-4.6-31.204-29.45 3.008 42.967z" stroke-width="3.349"/></g><path d="m242.983 831.982 727.523-348.801 16.055 33.488-727.523 348.801zm435.052-150.36-87.366 41.887 400.41-.054-.005-41.875zm-501.559 41.941-20.074-41.872-156.402.02.007 41.876zm-165.148-374.762 727.523-348.801 16.056 33.488-727.523 348.802z" fill="#903" fill-rule="evenodd"/></svg>