<svg height="1932" viewBox="0 0 1080.376 835.1" width="2500" xmlns="http://www.w3.org/2000/svg"><g fill="#903"><path d="m194.285 502.848q15.17-3.753 23.085-1.886 11.332 2.615 16.982 13.327 5.962 11.302 1.308 23.2-5.781 14.475-25.802 25.035l-47.896 25.265-1.441-2.733q6.534-3.447 8.166-5.913 1.662-2.576 1.474-5.121-.117-2.582-4.404-10.708l-34.29-65.006q-4.287-8.126-6.35-9.68-2.035-1.666-5.06-1.675-3.026-.01-9.491 3.401l-1.442-2.733 45.185-23.835q16.197-8.544 24.576-8.998 8.34-.528 15.468 3.55 7.088 4.003 10.712 10.873 3.819 7.24 1.883 15.531-1.974 8.218-12.663 18.106zm-26.356 11.352q9.871-5.207 13.282-10.028 3.48-4.857 3.722-10.462.243-5.605-3.264-12.253-3.507-6.648-8.23-9.539-4.694-3-10.45-2.797-5.758.204-15.868 5.632zm3.04 5.762 16.95 32.133 1.879 3.73q2.104 3.99 5.072 5.068 2.998.967 6.752-1.013 5.561-2.933 8.855-7.976 3.324-5.152 3.216-11.422-.147-6.343-3.381-12.474-3.702-7.018-9.683-10.945-6.02-4-12.542-3.393-6.522.607-17.119 6.292zm127.287-40.515-33.298 17.564 1.181 11.841q.625 5.902 2.301 9.079 2.221 4.21 6.47 4.518 2.501.192 10.182-3.104l1.441 2.733-31.35 16.538-1.443-2.733q4.646-3.49 6.004-8.833 1.319-5.417.076-19.397l-8.447-97.712 1.32-.697 77.324 64.213q11.023 9.105 15.749 10.483 3.571 1.044 8.076-.86l1.442 2.733-45.602 24.055-1.442-2.734 1.877-.99q5.492-2.897 6.859-5.695.906-1.989-.263-4.205-.702-1.33-1.859-2.513-.49-.592-5.008-4.44zm-5.247-4.22-32.24-27.09 3.738 42.124zm46.557-109.164 79.277 37.594-22.718-43.067q-4.754-9.012-8.862-10.905-5.597-2.525-13.374 1.767l-1.442-2.733 31.143-16.428 1.441 2.733q-5.55 3.966-6.933 6.396-1.354 2.32-.977 5.897.408 3.468 4.148 10.56l43.993 83.4-2.363 1.246-107.739-49.773 33.59 63.676q4.559 8.643 9.84 9.728 5.352 1.049 10.149-1.481l2.224-1.174 1.442 2.733-33.437 17.638-1.442-2.733q7.747-4.18 9.052-9.118 1.305-4.938-2.903-12.916l-37.29-70.694-3.42-1.596q-5.093-2.412-8.05-2.458-2.956-.046-7.344 2.08l-1.441-2.733zm161.249-87.985 18.314 34.719-2.71 1.43q-10.23-11.979-22.39-14.818-12.16-2.839-22.727 2.735-8.828 4.657-13.352 13.936-4.524 9.28-3.332 19.793 1.504 13.465 8.713 27.13 7.092 13.445 16.134 22.839 9.004 9.32 18.817 11.414 9.774 2.02 20.618-3.7 8.898-4.693 14.085-12.717 5.256-8.06 8.12-22.507l4.56 8.643q-3.289 12.97-9.804 21.506-6.485 8.426-17.955 14.476-15.085 7.957-30.223 7.728-15.069-.267-27.816-8.934-12.677-8.704-19.847-22.296-7.56-14.331-7.319-30.888.31-16.594 8.527-29.992 8.285-13.436 21.77-20.55 9.941-5.243 23.41-6.494 7.798-.714 9.536-1.63 2.225-1.174 2.927-3.716.734-2.653-.767-6.677zm63.309-32.263q22.055-12.767 43.93-5.326 21.944 7.404 33.711 29.713 10.054 19.058 7.194 39.074-3.771 26.54-29.144 39.924-25.443 13.421-49.01 2.435-18.62-8.685-29.102-28.556-11.768-22.309-5.35-44.674 6.45-22.475 27.771-32.59zm3.328 4.288q-12.93 6.82-12.269 24.413.587 14.42 11.965 35.99 13.522 25.634 28.471 33.422 10.429 5.453 21.065-.158 7.16-3.777 10.008-10 3.623-7.955 1.574-20.094-2.088-12.212-10.894-28.907-10.482-19.871-19.14-27.862-8.698-8.066-16.263-9.268-7.496-1.24-14.517 2.464zm143.401 48.147-1.442-2.733 3.129-1.65q4.101-2.163 5.555-4.63 1.484-2.576 1.28-5.49-.193-1.882-4.285-9.638l-34.758-65.893q-4.052-7.682-5.83-9.2-1.778-1.517-4.882-1.673-3.073-.268-7.035 1.822l-3.129 1.65-1.441-2.733 42.195-22.258q16.893-8.91 29.753-9.462 15.738-.653 28.593 8.051 12.925 8.668 20.991 23.96 5.573 10.563 7.09 21.188 1.478 10.55-.518 19.063-2.035 8.44-6.838 15.505-4.773 6.956-13.353 13.937-3.773 3.123-12.88 7.927zm-13.899-113.438 41.227 78.155q3.273 6.206 4.57 7.316 1.296 1.11 3.007 1.152 2.461.118 6.006-1.752 11.61-6.124 13.284-17.772 2.341-15.776-10.284-39.71-10.17-19.28-21.949-27.798-9.272-6.628-18.077-6.138-6.214.35-17.784 6.547zm103.895-54.709 21.51 40.776 1.876-.99q8.968-4.73 9.843-12.84.876-8.11-4.169-20.369l2.642-1.393 27.666 52.448-2.641 1.393q-5.355-8.129-10.95-12.165-5.524-4.073-10.044-4.05-4.558-.05-11.301 3.507l14.885 28.218q4.364 8.274 5.964 9.79 1.67 1.48 4.1 1.709 2.431.228 6.463-1.898l5.63-2.97q13.209-6.968 17.704-17.648 4.565-10.718 1.027-25.848l2.572-1.357 12.554 34.075-81.471 42.976-1.442-2.733 3.128-1.65q4.102-2.164 5.786-5.035 1.262-1.988.91-5.013-.17-2.176-4.145-9.71l-34.758-65.893q-3.585-6.796-4.751-8.164-2.059-2.219-4.676-2.632-3.733-.675-8.32 1.745l-3.129 1.65-1.442-2.733 78.9-41.62 15.625 29.623-2.641 1.393q-7.744-9.796-13.922-12.58-6.109-2.82-13.951-1.517-4.595.724-15.3 6.371z" stroke-width="3.486"/><path d="m256.913 578.488 18.865 35.762-2.823 1.49q-10.571-12.32-23.192-15.195-12.621-2.874-23.626 2.93-9.194 4.85-13.938 14.453t-3.555 20.453q1.5 13.896 8.925 27.972 7.305 13.849 16.656 23.506 9.31 9.58 19.496 11.697 10.145 2.04 21.44-3.917 9.266-4.889 14.692-13.198 5.5-8.347 8.543-23.278l4.696 8.903q-3.477 13.408-10.287 22.252-6.777 8.73-18.723 15.032-15.71 8.287-31.437 8.12-15.654-.203-28.857-9.093-13.13-8.927-20.516-22.928-7.787-14.761-7.458-31.858.4-17.135 9-31.008 8.67-13.912 22.716-21.32 10.352-5.461 24.352-6.816 8.105-.774 9.915-1.729 2.317-1.222 3.059-3.85.774-2.743-.766-6.89zm65.929-33.61q22.975-13.286 45.666-5.706 22.765 7.541 34.886 30.52 10.356 19.632 7.29 40.312-4.043 27.421-30.468 41.36-26.497 13.978-50.93 2.745-19.306-8.88-30.103-29.348-12.122-22.98-5.348-46.102 6.806-23.237 29.007-33.781zm3.437 4.412q-13.465 7.103-12.862 25.264.542 14.887 12.262 37.106 13.928 26.403 29.423 34.375 10.81 5.58 21.887-.263 7.456-3.933 10.445-10.373 3.802-8.23 1.73-20.754-2.112-12.6-11.183-29.796-10.797-20.469-19.755-28.68-8.998-8.286-16.853-9.492-7.782-1.245-15.094 2.613zm124.321 1.824 15.252 28.914q4.415 8.37 6.52 10.08 2.137 1.596 5.281 1.591 3.144-.005 9.877-3.556l1.485 2.815-50.243 26.503-1.486-2.815q6.806-3.59 8.513-6.143 1.739-2.668 1.556-5.295-.11-2.666-4.526-11.036l-35.32-66.959q-4.416-8.37-6.553-9.966-2.105-1.71-5.249-1.705-3.144.005-9.877 3.556l-1.485-2.815 45.61-24.059q17.81-9.395 27.428-11.161 9.618-1.767 18.523 2.484 8.865 4.175 13.802 13.534 6.02 11.413 2.135 22.995-2.507 7.352-10.24 14.447l42.025 22.475q8.205 4.328 11.043 4.971 4.213.793 8.242-1.04l1.485 2.815-30.913 16.306-56.442-30.335zm-26.692-50.6 23.842 45.198 4.126-2.177q10.063-5.308 14.055-9.846 3.952-4.613 4.127-11.124.206-6.626-4.088-14.768-6.222-11.794-14.477-14.637-8.183-2.88-19.838 3.268zm121.214 60.848-1.485-2.816 3.258-1.718q4.272-2.253 5.793-4.807 1.555-2.668 1.356-5.675-.191-1.942-4.406-9.931l-35.802-67.873q-4.175-7.913-6.014-9.472-1.84-1.558-5.065-1.705-3.191-.262-7.318 1.915l-3.258 1.72-1.485-2.816 43.945-23.18q17.592-9.28 30.956-9.91 16.355-.75 29.67 8.178 13.388 8.889 21.697 24.64 5.74 10.88 7.266 21.844 1.486 10.888-.628 19.687-2.154 8.722-7.178 16.04-4.991 7.205-13.938 14.453-3.935 3.243-13.419 8.246zm-13.906-117.063 42.465 80.503q3.372 6.392 4.713 7.532 1.342 1.14 3.12 1.175 2.556.11 6.248-1.837 12.09-6.378 13.886-18.413 2.506-16.3-10.498-40.953-10.476-19.86-22.674-28.599-9.603-6.8-18.753-6.253-6.457.39-18.507 6.845zm121.176-73.258q22.975-13.286 45.666-5.706 22.765 7.542 34.886 30.52 10.355 19.632 7.29 40.312-4.043 27.422-30.468 41.36-26.497 13.978-50.93 2.745-19.306-8.88-30.103-29.348-12.122-22.979-5.348-46.102 6.806-23.237 29.007-33.78zm3.437 4.412q-13.466 7.103-12.862 25.264.542 14.887 12.262 37.106 13.928 26.403 29.423 34.375 10.81 5.58 21.887-.262 7.456-3.934 10.445-10.374 3.802-8.23 1.73-20.754-2.112-12.6-11.183-29.796-10.797-20.469-19.755-28.679-8.998-8.287-16.853-9.493-7.782-1.244-15.094 2.613zm146.836-19.876q15.779-3.947 23.995-2.056 11.76 2.647 17.58 13.68 6.142 11.642 1.25 23.949-6.075 14.973-26.925 25.971l-49.881 26.313-1.486-2.816q6.806-3.59 8.513-6.143 1.739-2.668 1.556-5.295-.11-2.665-4.526-11.035l-35.32-66.96q-4.416-8.37-6.553-9.966-2.105-1.71-5.249-1.705-3.144.005-9.877 3.557l-1.485-2.816 47.058-24.823q16.869-8.898 25.577-9.406 8.668-.585 16.054 3.592 7.345 4.1 11.078 11.177 3.933 7.457 1.884 16.028-2.09 8.494-13.243 18.754zm-27.436 11.846q10.28-5.423 13.847-10.416 3.638-5.032 3.916-10.82.279-5.788-3.334-12.636-3.612-6.848-8.506-9.81-4.862-3.077-10.844-2.84-5.983.238-16.512 5.89zm3.13 5.935 17.46 33.1 1.935 3.842q2.167 4.109 5.246 5.208 3.11.986 7.02-1.077 5.792-3.055 9.238-8.277 3.478-5.336 3.395-11.809-.123-6.549-3.455-12.864-3.813-7.229-10.008-11.255-6.236-4.103-13.015-3.445-6.779.658-17.815 6.577zm132.439-42.433-34.678 18.293 1.172 12.22q.622 6.092 2.348 9.364 2.287 4.337 6.701 4.635 2.597.186 10.592-3.253l1.486 2.815-32.651 17.223-1.485-2.815q4.843-3.625 6.279-9.148 1.396-5.6.17-20.029l-8.317-100.851 1.376-.726 80.035 65.938q11.41 9.35 16.313 10.75 3.706 1.06 8.395-.926l1.485 2.815-47.492 25.052-1.485-2.815 1.954-1.032q5.72-3.016 7.153-5.912.95-2.058-.253-4.34-.723-1.37-1.92-2.587-.506-.608-5.182-4.561zm-5.431-4.332-33.369-27.82 3.686 43.478z" stroke-width="3.611"/><path d="m46.977 399.502 757.353-399.502 31.523 59.759-757.353 399.502zm198.254 375.839 757.353-399.502 31.523 59.76-757.353 399.501zm415.337-120.441-133.978 70.673 553.781.055.005-70.687zm-477.734 70.639-37.289-70.69-145.538-.015-.007 70.687z" fill-rule="evenodd"/></g></svg>