<svg viewBox="0 -6.661338147750939e-16 503.79999999999984 36.1" xmlns="http://www.w3.org/2000/svg" width="2500" height="179"><path d="M9.2 6.7l5.3 1.1c-.3 1.1-.7 2.9-.9 3.8a90.07 90.07 0 0 1-3.1 11.3 51.14 51.14 0 0 1-5.4 10.7L0 31.4A50 50 0 0 0 5.7 21 58.64 58.64 0 0 0 9.2 6.7zm9.2 1.1l4.9-1.6c1.5 2.9 4 8.7 5.4 12.3 1.3 3.4 3.2 9.4 4.2 13.1l-5.4 1.8a117.48 117.48 0 0 0-3.8-13.2 112.69 112.69 0 0 0-5.3-12.4zm11.6 0l-2.9 1.3a52.06 52.06 0 0 0-2.8-5.2l2.9-1.2c.8 1.4 2.1 3.7 2.8 5.1zm4.4-1.7l-2.9 1.3a32 32 0 0 0-2.9-5.1L31.4 1a42.67 42.67 0 0 1 3 5.1zM53 24.2A36 36 0 0 0 66.3 9.6l2.8 5.3a39.92 39.92 0 0 1-13.5 13.9 38.49 38.49 0 0 1-13.5 5.3l-3.1-5a38.36 38.36 0 0 0 14-4.9zm0-12.1L49.3 16a77.49 77.49 0 0 0-9.1-8.1l3.4-3.8a72.19 72.19 0 0 1 9.4 8zm48-5.2l-2 .9 2.7 1.7a16 16 0 0 0-1.2 2.7A43.68 43.68 0 0 1 95.1 23c1.6 1.2 3 2.2 4.1 3.1l-3.5 4.2c-1-.9-2.3-2.1-3.8-3.4a34.35 34.35 0 0 1-13 8.9L74.7 32A30.16 30.16 0 0 0 88 23.8c-2.4-1.8-4.8-3.5-6.6-4.7l3.2-3.4c1.9 1.1 4.2 2.7 6.6 4.3a27.72 27.72 0 0 0 4-8.3H84.6a46.92 46.92 0 0 1-9.6 9.8l-3.9-3.1A34.24 34.24 0 0 0 82.8 5.9 13.36 13.36 0 0 0 84.4 2l5.3 1.7c-.9 1.3-1.8 3-2.3 3.8h7.4a12.65 12.65 0 0 0 2.8-.3 36.23 36.23 0 0 0-2.4-4.3l2.9-1.2a55.39 55.39 0 0 1 2.9 5.2zm4.4-1.7l-2.9 1.3a53.86 53.86 0 0 0-3-5.2l3-1.2c.9 1.4 2.3 3.8 3 5.1zm16.2 6.1a49.47 49.47 0 0 0 10.3-9.1l4 3.8a69.14 69.14 0 0 1-9.8 8.1v15.2a40.28 40.28 0 0 0 .3 4.9h-5.8a26.8 26.8 0 0 0 .2-4.9v-12a73.22 73.22 0 0 1-12.9 5.4l-2.3-4.8a53.56 53.56 0 0 0 16-6.6zm29.8-8.4h5.8a32.53 32.53 0 0 0-.3 4.4v4.1h8.2c1.3 0 2.7-.1 4-.2v5.1c-.8 0-2.6-.1-4-.1h-8.2c-.2 7.6-2.5 13.7-10.4 18.6l-4.5-3.5c7.1-3.3 9.6-8.8 9.9-15.1h-9.3c-1.6 0-3.1.1-4.2.2v-5.2c1.1.1 2.6.3 4 .3h9.5V7.3a22 22 0 0 0-.5-4.4zm33.8 5.6c-1.2 3.7-4.1 13.2-5.9 18.2 4.4-.5 9.6-1 13.3-1.5a57.64 57.64 0 0 0-3.8-6.9l4.6-1.9a114.72 114.72 0 0 1 8 15.6l-4.9 2.2c-.5-1.3-1.1-2.8-1.8-4.4-5.9.7-16.9 1.9-21.5 2.4l-3.4.5-.8-5.5h5c2.1-5.6 5.2-15.8 6.3-19.8a32.9 32.9 0 0 0 .9-4.3l5.8 1.2a37.89 37.89 0 0 0-1.8 4.2zm25.5-2.3h18.4a29.19 29.19 0 0 0 3.2-.1c0 .9-.1 2.4-.1 3.5V29c0 1.3.1 3.3.1 4.4H227v-2h-16.6c-1.4 0-3.5.1-4.7.2v-5.3c1.3.1 2.9.2 4.6.2h16.8V11h-16.4c-1.5 0-3.5.1-4.5.1V6c1.4.1 3.3.2 4.5.2zm39.6 23l-4-2.8a37.18 37.18 0 0 0 6.9-9.7l4.1 2a66.15 66.15 0 0 1-7 10.5zm15.3-23.4v3h8.5a21.86 21.86 0 0 0 3.6-.3v4.9c-1.1-.1-2.5-.1-3.6-.1h-8.5v17.5c0 2.2-1.2 3.5-3.8 3.5a58.28 58.28 0 0 1-5.9-.3l-.5-4.6a27 27 0 0 0 4.1.5c1 0 1.3-.4 1.3-1.4v-15h-9.2c-1.2 0-2.3 0-3.5.1v-5c1.1.1 2.4.3 3.5.3h9.2v-3a18.41 18.41 0 0 0-.3-3.3h5.4a17.33 17.33 0 0 0-.3 3.2zm13.6 20.7l-4.2 2.4a68.88 68.88 0 0 0-6-10.1l4-2.2a71.62 71.62 0 0 1 6.2 9.9zm8.5-11h16.1c1.2 0 2.4-.1 3.5-.2v5.9c-.7 0-2.3-.2-3.5-.2h-16.1c-1.7 0-3.7.1-4.8.2v-5.9c1 .1 3.2.2 4.8.2zm28.7 6.8c1-3.2 1.1-10.3 1.1-14.9a20.68 20.68 0 0 0-.3-3.5h5.4a19.53 19.53 0 0 0-.3 3.4c0 4.4-.1 12.4-1.1 16.1a22.36 22.36 0 0 1-6.5 10.8l-4.4-3a17.29 17.29 0 0 0 6.1-8.9zm11 6.7V7.1a16.55 16.55 0 0 0-.3-3.2h5.4a18.41 18.41 0 0 0-.3 3.3v19.6a23.59 23.59 0 0 0 9-7.9L344 23a40.2 40.2 0 0 1-12.3 10.2 9.06 9.06 0 0 0-1.6 1.1l-3.1-2.6a8 8 0 0 0 .4-2.7zm22.1-14.9h23.9c1.1 0 2.2-.1 3.3-.2v4.9c-.9-.1-2.3-.1-3.3-.1h-8.8a24.6 24.6 0 0 1-2.3 9.6 17.47 17.47 0 0 1-7.3 7.2l-4.3-3.2a14.09 14.09 0 0 0 6.5-5.3 16.22 16.22 0 0 0 2.3-8.3h-10c-1.1 0-2.5.1-3.5.1v-5a20.68 20.68 0 0 0 3.5.3zm4.7-9.5H366a25.61 25.61 0 0 0 3.9-.3v4.8c-1.2 0-2.6-.1-3.9-.1h-11.9c-1.2 0-2.8 0-3.9.1V4.3a26 26 0 0 0 4 .3zM375 6.8l-2.9 1.3a38.09 38.09 0 0 0-2.9-5.2l2.9-1.2a51.43 51.43 0 0 1 2.9 5.1zm4.4-1.7l-2.9 1.3a52.94 52.94 0 0 0-2.9-5.2l2.9-1.2c.9 1.4 2.2 3.8 2.9 5.1zm11.4 11.4a40.87 40.87 0 0 0 9.1-8l3.6 3.6a47.88 47.88 0 0 1-8.1 6.8v12.9a28.15 28.15 0 0 0 .2 4.1h-5.4c.1-.8.2-2.7.2-4.1V22a80.34 80.34 0 0 1-10.5 4.4l-2.1-4.4a46.22 46.22 0 0 0 13-5.5zm30.5 7.7a35.34 35.34 0 0 0 13.3-14.6l2.8 5.3A40.53 40.53 0 0 1 424 28.8a38.49 38.49 0 0 1-13.5 5.3l-3.1-5a37.87 37.87 0 0 0 13.9-4.9zm0-12.1l-3.7 3.9a77.49 77.49 0 0 0-9.1-8.1l3.4-3.8a72.19 72.19 0 0 1 9.4 8zm47.5-5l-2.7 1.2 3.1 2A16 16 0 0 0 468 13a37.08 37.08 0 0 1-6.4 12.5c-3.4 4.3-7.8 7.7-14.6 10.6l-4.3-4c7.4-2.3 11.5-5.6 14.7-9.3a28.21 28.21 0 0 0 5.2-10.2h-10.3a41.79 41.79 0 0 1-9.2 9.1l-4.1-3.2a32.31 32.31 0 0 0 11.4-12.1 13.36 13.36 0 0 0 1.6-3.9l5.4 1.8a28.84 28.84 0 0 0-2.2 3.8c0 .1-.1.1-.1.2h7.3a17.5 17.5 0 0 0 3.2-.4l.2.2a54.24 54.24 0 0 0-2.6-4.8l2.9-1.2a33 33 0 0 1 2.7 5zm4.4-1.8l-2.9 1.3a38.83 38.83 0 0 0-3-5.2l2.9-1.2a52.35 52.35 0 0 1 3 5.1zm26.1 4.2a51.86 51.86 0 0 1-5.7 10.3 114.92 114.92 0 0 1 10.2 10.7l-4.1 3.7a84.24 84.24 0 0 0-9.2-10.6 46.81 46.81 0 0 1-13.7 10.5l-3.8-4a40.36 40.36 0 0 0 15-10.8 27.57 27.57 0 0 0 5.4-9.2H481a41.14 41.14 0 0 0-4.3.3V5.1c1.4.2 2.9.2 4.3.3h12.9a12.42 12.42 0 0 0 3.8-.5l3 2.3a10.89 10.89 0 0 0-1.4 2.3z"/></svg>