<svg height="709" viewBox="-.049 .003 400 113.477" width="2500" xmlns="http://www.w3.org/2000/svg"><path d="m166.918 88.75h15.117c8.438 0 20.156-1.44 20.156-13.53 0-9.638-6.239-13.013-19.516-13.013h-15.757zm0-40.589h14.997c10.918 0 16.356-4.683 16.356-11.59 0-7.934-5.438-11.825-17.796-11.825h-13.557zm-16.357-37.46h35.873c13.917 0 28.234 6.359 28.234 23.151 0 10.406-6.518 17.297-15.997 20.152v.268c11.598 1.296 19.916 10.402 19.916 22.244 0 20.028-17.436 26.278-34.873 26.278h-33.153zm142.971 21.592c-6.758-7.155-12.997-9.11-19.396-9.11-18.996 0-31.593 14.576-31.593 32.9 0 19.653 12.597 34.214 31.593 34.214 7.439 0 14.557-3.375 20.676-11.186l13.557 9.638c-8.318 11.45-20.835 16.389-34.353 16.389-28.354 0-48.67-19.264-48.67-48.006 0-29.526 20.316-48.775 48.67-48.775 12.478 0 23.156 4.032 32.274 14.561zm18.877-21.608h18.876l25.075 69.598 25.915-69.598h17.676l-37.192 92.11h-14.199z" fill="#646363"/><path d="m3.35.003c-1.92 0-3.399 1.56-3.399 3.5v106.477c0 1.924 1.48 3.5 3.4 3.5h106.698c1.92 0 3.48-1.576 3.48-3.5v-106.478c0-1.94-1.56-3.499-3.48-3.499zm3.12 4.3h100.38c1.24 0 2.28 1.015 2.28 2.299v100.28c0 1.295-1 2.4-2.28 2.4h-100.38c-1.32 0-2.32-1.105-2.32-2.4v-100.28c0-1.284 1-2.3 2.32-2.3zm69.626 55.684c-1.92-3.171-1.88-3.311.12-6.499 2-3.171 24.555-39.676 25.395-41.131 1-1.64-.12-2.388-1.28-2.388h-44.111c-5.519 0-5.559-.016-7.639 3.467-2.12 3.484-23.235 37.68-24.835 40.272-1.92 3.156-1.92 3.172 0 6.28 1.92 3.142 22.716 36.948 24.835 40.431 2.08 3.467 2.12 3.467 7.639 3.467h44.111c1.16 0 2.28-.764 1.28-2.407-.6-1-23.595-38.305-25.515-41.492" fill="#009e4d"/></svg>