<svg height="1214" viewBox="135.68 70.2 2667.33 1299.6" width="2500" xmlns="http://www.w3.org/2000/svg"><g fill="#284738"><path d="m614.17 1060.62c0 19.54-3.04 36.97-9 52.37-5.82 15.44-13.94 28.19-24.17 38.27-12.03 11.88-25.13 20.46-39.59 25.51-14.23 5.06-32.35 7.62-54.4 7.62h-132.35v-404.34h117.64c24.54 0 42.41 1.11 53.69 3.26 11.3 2.19 22.6 7.01 33.75 14.41 11.47 7.85 20.11 18.31 25.63 31.53 5.74 12.99 8.62 27.93 8.62 44.82 0 19.5-3.91 36.89-11.57 51.79-7.82 14.83-18.75 26.43-32.92 34.79v2.18c19.9 5.25 35.55 16.09 47.14 32.56 11.72 16.51 17.55 38.27 17.55 65.24m-100.23-166.19c0-6.7-1.34-13.52-3.87-20.11-2.49-6.63-6.9-11.68-13.26-14.98-5.69-2.87-12.87-4.4-21.37-4.64-8.43-.27-20.31-.5-35.69-.5h-7.34v85.62h12.24c12.32 0 22.85-.31 31.57-.88 8.71-.54 15.57-2.38 20.59-5.36 7.09-4.29 11.67-9.62 13.83-16.2 2.16-6.59 3.2-14.25 3.3-22.95m19.16 164.53c0-12.76-1.96-22.79-5.75-29.65-3.69-7.09-9.88-12.22-18.92-15.78-6.13-2.38-14.59-3.53-25.22-3.71-10.75-.15-21.93-.23-33.71-.31h-17.07v100.83h5.69c22.05 0 37.87-.15 47.21-.38 9.58-.12 18.27-2.53 26.36-7.05 8.1-4.45 13.75-10.5 16.7-17.93 3.12-7.58 4.71-16.32 4.71-26.01m393.9 125.41h-80.85l-21.05-81.71h-112.38l-20.94 81.71h-78.86l111.97-404.34h90.06l112.03 404.34zm-120.79-155.88-37.21-144.96-37.29 144.96h74.51zm414.51 155.88h-75.29l-128.81-277.5v277.5h-71.64v-404.34h93.44l110.55 231.68v-231.68h71.75zm201.04-280.45c0-10.15-1.53-18.81-4.69-26.16-3.16-7.13-8.52-12.91-16.07-17.01-5.36-2.95-11.51-4.68-18.62-5.25-7.05-.65-15.25-1-24.56-1h-28.38v108.8h24.13c12.41 0 22.87-.8 31.26-2.45 8.43-1.57 15.55-5.25 21.26-11.11 5.44-5.52 9.35-11.72 11.72-18.35 2.6-7.01 3.94-16.09 3.94-27.47m122.06 280.45h-95.62l-82.71-148.33h-36.05v148.33h-77.73v-404.34h131.17c17.91 0 33.35 1.46 46.18 4.14 12.93 2.72 25 8.54 36.26 17.62 11.38 9.12 20.49 20.8 27.16 35.32 6.76 14.29 10.15 32.29 10.15 53.98 0 29.92-5.25 54.28-15.71 73.09-10.3 18.85-25.09 34.44-44.4 46.96l101.29 173.23zm257.47-146.38c0 49.95-11.45 88.3-34.23 114.89-22.83 26.62-56.47 39.88-100.83 39.88s-77.94-13.26-100.81-39.88c-22.68-26.59-34.01-64.85-34.01-114.58v-258.27h78.64v252.26c0 28.08 4.37 48.96 13.14 62.75 8.89 13.83 23.18 20.69 43.04 20.69s33.81-6.67 42.77-19.88c9.12-13.29 13.68-34.4 13.68-63.55v-252.26h78.61v257.97zm200.85-134.07c0-10.15-1.57-18.81-4.64-26.16-3.21-7.13-8.46-12.91-16.03-17.01-5.36-2.95-11.51-4.68-18.64-5.25-6.99-.65-15.25-1-24.67-1h-28.27v108.8h23.98c12.53 0 22.97-.8 31.41-2.45 8.47-1.57 15.4-5.25 21.17-11.11 5.4-5.52 9.37-11.72 11.92-18.35 2.55-7.01 3.77-16.09 3.77-27.47m122.05 280.45h-95.54l-82.67-148.33h-36.09v148.33h-77.76v-404.34h131.14c17.95 0 33.31 1.46 46.18 4.14 12.97 2.72 25.05 8.54 36.34 17.62 11.38 9.12 20.4 20.8 27.03 35.32 6.78 14.29 10.19 32.29 10.19 53.98 0 29.92-5.29 54.28-15.63 73.09-10.34 18.85-25.21 34.44-44.44 46.96zm326.42 0h-80.87l-20.99-81.71h-112.55l-20.84 81.71h-78.92l112.09-404.34h89.94l112.13 404.34zm-120.84-155.88-37.26-144.96-37.33 144.96zm357.51 155.88h-218.74v-404.34h78.19v326.07h140.55zm-2258.64 156.68h-73.4v-101.4h73.4v19.73h-47.18v17.35h43.86v19.69h-43.86v24.94h47.18z" fill-rule="evenodd"/><path d="m447.06 1235.15h24.5v105.92h-24.5z"/><path d="m584.18 1321.19v-16.05c-3.29.27-6.86.54-10.72 1.04-3.76.53-6.74 1.15-8.66 1.84-2.51.61-4.33 1.76-5.71 3.3-1.19 1.49-1.78 3.37-1.78 5.82 0 1.57.12 2.87.4 3.91.19.99.92 2.03 1.91 2.87 1.17.96 2.38 1.57 3.83 2.03 1.42.42 3.66.61 6.76.61 2.47 0 4.94-.5 7.38-1.49 2.45-.99 4.71-2.3 6.59-3.87m0 11.71c-1.38 1.11-2.91 2.3-4.83 3.68-2.03 1.38-3.79 2.53-5.56 3.34-2.41 1.15-4.94 1.91-7.43 2.41-2.58.54-5.48.8-8.54.8-7.28 0-13.35-2.22-18.16-6.7-4.86-4.52-7.39-10.23-7.39-17.27 0-5.55 1.27-10.15 3.72-13.75 2.58-3.48 6.03-6.32 10.65-8.47 4.52-2.07 10.15-3.45 16.82-4.29 6.76-.96 13.64-1.49 20.88-1.88v-.42c0-4.29-1.76-7.24-5.23-8.73-3.39-1.68-8.49-2.45-15.15-2.45-3.98 0-8.26.73-12.91 2.14-4.48 1.38-7.78 2.53-9.85 3.26h-2.26v-18.47c2.72-.73 6.9-1.5 12.64-2.45 5.84-.92 11.66-1.42 17.56-1.42 13.75 0 23.93 2.22 30.02 6.47 6.17 4.25 9.27 11.03 9.27 20.23v52.14h-24.25v-8.16zm119.18-45.97v54.13h-24.54v-38.16c0-3.64-.17-6.82-.29-9.5-.23-2.61-.71-4.75-1.55-6.4-.83-1.61-2.11-2.72-3.7-3.53-1.65-.8-3.98-1.15-6.97-1.15-2.49 0-4.79.5-7.09 1.49-2.2.92-4.29 1.95-6.15 3.1v54.13h-24.58v-76.39h24.58v8.43c4.23-3.33 8.29-5.94 12.12-7.74 3.89-1.84 8.08-2.84 12.83-2.84 5.02 0 9.46 1.11 13.29 3.37 3.91 2.22 6.97 5.55 9.12 10.04 4.83-4.21 9.61-7.43 14.25-9.85 4.6-2.3 9.17-3.56 13.62-3.56 8.18 0 14.5 2.45 18.85 7.47 4.2 4.98 6.36 12.03 6.36 21.34v49.72h-24.46v-38.16c0-3.71-.11-6.97-.36-9.5-.06-2.61-.56-4.75-1.42-6.4-.71-1.61-1.92-2.72-3.69-3.53-1.61-.8-3.99-1.15-7.07-1.15-2.01 0-4.06.35-6.03 1.15-1.94.62-4.33 1.8-7.13 3.45m95.07 54.17h-24.5v-76.39h24.5zm.7-87.5h-25.93v-18.43h25.93zm94.55 78.73c0 7.09-1.15 13.14-3.06 18.04-1.95 4.9-4.9 8.73-8.62 11.45-3.71 2.91-8.03 4.83-13.31 6.13-5.23 1.34-11.09 1.88-17.64 1.88-5.27 0-10.52-.27-15.67-.92-5.19-.73-9.62-1.38-13.37-2.3v-19.27h2.95c2.95 1.19 6.65 2.34 10.95 3.33 4.33.96 8.2 1.49 11.57 1.49 4.56 0 8.33-.5 11.07-1.3 2.84-.77 4.98-1.99 6.55-3.53 1.38-1.42 2.38-3.29 3.14-5.55.57-2.38.84-5.02.84-8.2v-1.42c-2.93 2.41-6.24 4.29-9.77 5.67-3.66 1.53-7.6 2.22-12.07 2.22-10.74 0-19.02-3.3-24.86-9.77-5.75-6.48-8.6-16.17-8.6-29.34 0-6.32.78-11.72 2.66-16.36 1.73-4.56 4.17-8.51 7.47-11.95 2.95-3.1 6.66-5.63 11.07-7.43 4.37-1.73 8.77-2.64 13.41-2.64 4.21 0 7.97.54 11.36 1.57 3.35.88 6.47 2.22 9.21 3.95l.88-3.37h23.83v67.61zm-24.59-15.36v-34.59c-1.4-.69-3.01-1.04-5.13-1.46-2.03-.35-3.87-.42-5.51-.42-6.4 0-11.22 1.8-14.44 5.48-3.25 3.75-4.86 8.85-4.86 15.4 0 7.36 1.4 12.57 4.17 15.4 2.8 2.99 6.74 4.45 12.18 4.45 2.45 0 4.83-.46 7.22-1.19 2.28-.76 4.46-1.8 6.38-3.06m123.61-14.04c0 12.57-3.76 22.45-11.03 29.73-7.32 7.12-17.66 10.88-30.93 10.88s-23.54-3.75-30.8-10.88c-7.41-7.28-11.09-17.16-11.09-29.73s3.68-22.6 11.09-29.8 17.56-10.88 30.8-10.88 23.71 3.68 31.09 10.92c7.26 7.32 10.88 17.2 10.88 29.76m-30.18 18.47c1.55-1.88 2.78-4.25 3.62-6.97.81-2.76 1.11-6.59 1.11-11.38 0-4.48-.42-8.24-1.11-11.34-.84-2.95-2.07-5.36-3.49-7.13-1.42-1.95-3.2-3.07-5.21-4.02-2.07-.73-4.35-1.07-6.72-1.07s-4.5.27-6.23.92c-1.95.57-3.66 1.95-5.31 3.83-1.55 1.73-2.78 4.18-3.58 7.2-.96 3.11-1.34 7.01-1.34 11.61 0 4.25.38 7.74 1.13 10.88.78 3.03 1.89 5.48 3.37 7.31 1.51 1.84 3.27 3.07 5.19 3.83 2.07.81 4.44 1.22 7.01 1.22 2.3 0 4.41-.34 6.47-1.15 1.88-.65 3.62-1.95 5.08-3.75m165.21 47.7h-24.63v-35.51c-3.94 3.26-7.85 5.59-11.65 7.28-3.79 1.49-8.2 2.3-12.93 2.3-9.33 0-16.87-3.52-22.39-10.73-5.57-7.12-8.35-16.78-8.35-29 0-6.48.92-12.14 2.78-17.2 1.94-5.05 4.54-9.35 7.82-12.87 3.06-3.41 6.88-6.09 11.28-7.97 4.33-1.84 8.77-2.84 13.18-2.84s7.89.54 10.8 1.42c3.03 1.04 6.15 2.38 9.35 4.1l.96-3.37h23.79v104.39zm-24.63-49.07v-37.58c-1.72-.76-3.49-1.26-5.4-1.53-1.86-.35-3.74-.42-5.25-.42-6.44 0-11.26 1.95-14.39 5.98-3.32 4.1-4.96 9.65-4.96 16.82s1.34 12.87 3.87 16.24c2.57 3.49 6.74 5.17 12.49 5.17 2.34 0 4.5-.5 7.13-1.34 2.41-.88 4.67-1.88 6.51-3.34m121.51 21.07h-24.52v-8.43c-4.56 3.45-8.73 6.05-12.49 7.85-3.77 1.8-8.16 2.64-13.37 2.64-8.43 0-15-2.41-19.44-7.24-4.69-4.87-6.91-12.11-6.91-21.49v-49.73h24.61v37.85c0 3.87.06 7.05.29 9.58.31 2.64.86 4.75 1.76 6.47.92 1.65 2.22 2.87 3.91 3.6 1.72.88 4.17 1.15 7.36 1.15 2.05 0 4.37-.27 6.95-1.15 2.59-.73 4.94-1.88 7.34-3.37v-54.13h24.52v76.39zm96.35-33.6h-56.14c.44 5.98 2.64 10.61 6.8 13.75 4.29 3.26 10.38 4.83 18.62 4.83 5.23 0 10.25-.99 15.06-2.87 4.79-1.95 8.73-3.91 11.49-6.09h2.76v19.73c-5.51 2.22-10.8 3.91-15.67 4.82-4.94 1.07-10.35 1.49-16.36 1.49-15.32 0-27.09-3.45-35.17-10.26-8.22-6.93-12.34-16.82-12.34-29.57s3.91-22.64 11.57-29.96c7.79-7.43 18.37-11.11 31.87-11.11 12.41 0 21.84 3.14 28.16 9.58 6.17 6.2 9.35 15.21 9.35 27.01v8.66zm-24.46-14.4c-.13-5.13-1.48-8.96-3.83-11.53-2.35-2.61-6.19-3.95-11.17-3.95-4.69 0-8.56 1.27-11.67 3.72-2.99 2.45-4.73 6.44-5.02 11.76h31.68zm133.98 47.31c-2.64.77-5.42 1.26-8.41 1.68-2.95.46-6.49.54-10.84.54-9.56 0-16.57-1.88-21.32-5.78-4.71-3.91-6.97-10.46-6.97-19.81v-35.85h-10.04v-16.47h10.04v-21.91h24.52v21.91h23.03v16.47h-23.03v27.27c0 2.64.08 5.02.08 7.05s.42 3.75 1.04 5.36c.71 1.57 1.84 2.83 3.37 3.83 1.61.88 4.02 1.38 7.09 1.38 1.38 0 2.97-.27 5.15-.92 2.01-.46 3.45-.99 4.27-1.49h2.03v16.74zm87.69-32.91h-56.14c.4 5.98 2.7 10.61 6.88 13.75 4.21 3.26 10.38 4.83 18.54 4.83 5.29 0 10.26-.99 15.05-2.87 4.83-1.95 8.74-3.91 11.49-6.09h2.76v19.73c-5.52 2.22-10.76 3.91-15.67 4.82-4.9 1.07-10.34 1.49-16.24 1.49-15.42 0-27.11-3.45-35.29-10.26-8.16-6.93-12.29-16.82-12.29-29.57s3.91-22.64 11.68-29.96c7.7-7.43 18.31-11.11 31.76-11.11 12.47 0 21.8 3.14 28.04 9.58 6.26 6.2 9.42 15.21 9.42 27.01v8.66zm-24.44-14.4c-.12-5.13-1.34-8.96-3.72-11.53-2.41-2.61-6.23-3.95-11.3-3.95-4.67 0-8.54 1.27-11.49 3.72-3.14 2.45-4.83 6.44-5.19 11.76zm131.35 28.12v-16.05c-3.29.27-6.87.54-10.65 1.04-3.91.53-6.78 1.11-8.7 1.84-2.53.61-4.35 1.76-5.71 3.3-1.23 1.49-1.84 3.37-1.84 5.82 0 1.57.12 2.87.35 3.91.27.99 1.05 2.03 2.05 2.87 1.05.96 2.2 1.57 3.66 2.03 1.49.42 3.68.61 6.86.61 2.38 0 4.87-.5 7.43-1.49 2.45-.99 4.67-2.3 6.55-3.87m0 11.71c-1.32 1.11-2.89 2.3-4.94 3.68-1.94 1.46-3.64 2.53-5.42 3.34-2.45 1.15-4.92 1.91-7.45 2.41-2.57.54-5.48.8-8.54.8-7.26 0-13.29-2.22-18.2-6.7-4.94-4.52-7.28-10.23-7.28-17.27 0-5.55 1.19-10.15 3.6-13.75 2.64-3.48 6.13-6.43 10.73-8.35 4.5-2.18 10.08-3.56 16.8-4.4 6.69-.96 13.62-1.49 20.8-1.88v-.42c0-4.29-1.66-7.24-5.15-8.73-3.37-1.68-8.5-2.45-15.17-2.45-3.93 0-8.29.73-12.87 2.14-4.63 1.38-7.89 2.45-9.86 3.26h-2.24v-18.47c2.53-.73 6.8-1.5 12.6-2.45 5.82-.92 11.65-1.42 17.45-1.42 13.87 0 23.92 2.22 30.21 6.47 6.09 4.25 9.21 11.03 9.21 20.23v52.14h-24.27v-8.16zm78.96-19 17.35-49.23h25.34l-42.44 104.39h-26.74l12.16-28.73-29.61-75.66h25.86zm130.26 27.16h-24.57v-8.43c-4.52 3.45-8.73 6.05-12.45 7.85-3.75 1.8-8.27 2.64-13.39 2.64-8.49 0-14.96-2.41-19.59-7.24-4.48-4.87-6.74-12.11-6.74-21.49v-49.73h24.48v37.85c0 3.87.25 7.05.38 9.58.29 2.64.88 4.75 1.76 6.47.92 1.65 2.13 2.87 3.91 3.6 1.76.88 4.18 1.15 7.36 1.15 2.03 0 4.29-.27 7.01-1.15 2.45-.73 4.87-1.88 7.28-3.37v-54.13h24.57v76.39zm95.29 0h-24.59v-7.93c-4.17 3.45-8.2 5.97-11.89 7.59-3.66 1.61-7.89 2.41-12.66 2.41-9.35 0-16.82-3.52-22.37-10.73-5.63-7.12-8.35-16.78-8.35-29 0-6.48.82-12.14 2.72-17.2 1.97-5.05 4.5-9.35 7.74-12.87 3.12-3.41 6.89-6.09 11.34-7.97 4.37-1.84 8.77-2.84 13.18-2.84 4.63 0 8.27.54 11.3 1.49 2.89.96 5.92 2.22 9 3.75v-32.64h24.59v105.92zm-24.59-21.07v-37.58c-1.76-.76-3.48-1.26-5.46-1.53-1.82-.35-3.66-.42-5.19-.42-6.51 0-11.26 1.95-14.48 5.98-3.22 4.1-4.87 9.65-4.87 16.82s1.28 12.87 3.87 16.24c2.68 3.49 6.74 5.17 12.45 5.17 2.26 0 4.56-.5 7.13-1.34 2.51-.88 4.71-1.88 6.55-3.34m91.59 1.19v-16.05c-3.29.27-6.8.54-10.61 1.04-3.83.53-6.66 1.11-8.73 1.84-2.49.61-4.29 1.76-5.55 3.3-1.26 1.49-1.91 3.37-1.91 5.82 0 1.57.08 2.87.4 3.91.25.99.92 2.03 1.99 2.87 1.05.96 2.3 1.57 3.75 2.03 1.4.42 3.66.61 6.76.61 2.45 0 4.94-.5 7.35-1.49 2.53-.99 4.67-2.3 6.55-3.87m0 11.71c-1.24 1.11-2.85 2.3-4.77 3.68-2.03 1.46-3.77 2.53-5.57 3.34-2.32 1.15-4.94 1.91-7.51 2.41-2.53.54-5.4.8-8.51.8-7.15 0-13.25-2.22-18.12-6.7-4.87-4.52-7.36-10.23-7.36-17.27 0-5.55 1.22-10.15 3.66-13.75 2.62-3.48 6.07-6.43 10.71-8.35 4.5-2.18 10.11-3.56 16.84-4.4 6.72-.96 13.5-1.49 20.84-1.88v-.42c0-4.29-1.78-7.24-5.15-8.73-3.45-1.68-8.47-2.45-15.29-2.45-3.95 0-8.3.73-12.74 2.14-4.62 1.38-7.89 2.45-9.94 3.26h-2.22v-18.47c2.6-.73 6.84-1.5 12.56-2.45 5.82-.92 11.69-1.42 17.49-1.42 13.91 0 23.96 2.22 30.13 6.47s9.25 11.03 9.25 20.23v52.14h-24.31v-8.16zm136.38-11.72v-16.05c-3.41.27-6.9.54-10.75 1.04-3.79.53-6.76 1.11-8.69 1.84-2.49.61-4.35 1.76-5.67 3.3-1.25 1.49-1.86 3.37-1.86 5.82 0 1.57.19 2.87.4 3.91.21.99.94 2.03 1.93 2.87 1.05.96 2.41 1.57 3.79 2.03 1.49.42 3.73.61 6.82.61 2.45 0 4.92-.5 7.34-1.49 2.49-.99 4.73-2.3 6.68-3.87m.01 11.71c-1.34 1.11-2.99 2.3-4.87 3.68-2.03 1.46-3.87 2.53-5.56 3.34-2.38 1.15-4.9 1.91-7.47 2.41-2.61.54-5.44.8-8.51.8-7.32 0-13.35-2.22-18.2-6.7-4.86-4.52-7.36-10.23-7.36-17.27 0-5.55 1.21-10.15 3.68-13.75 2.61-3.48 6.05-6.43 10.69-8.47 4.44-2.07 10.13-3.45 16.74-4.29 6.82-.96 13.66-1.49 20.99-1.88v-.42c0-4.29-1.76-7.24-5.28-8.73-3.34-1.68-8.49-2.45-15.13-2.45-3.98 0-8.31.73-12.95 2.14-4.56 1.38-7.78 2.45-9.81 3.26h-2.24v-18.47c2.66-.73 6.8-1.5 12.55-2.45 5.94-.92 11.7-1.42 17.58-1.42 13.91 0 23.85 2.22 30.13 6.47 6.15 4.25 9.21 11.03 9.21 20.23v52.14h-24.21v-8.16zm129.75 10.23c-6.7 0-12.83-.8-18.39-2.3-5.38-1.68-10.19-4.1-14.31-7.43-4.15-3.29-7.14-7.47-9.42-12.45-2.16-5.06-3.29-10.96-3.29-17.7 0-7.16 1.13-13.37 3.62-18.5 2.34-5.21 5.59-9.58 9.89-12.87 4.16-3.18 8.96-5.56 14.37-7.05 5.32-1.53 10.99-2.3 16.78-2.3 5.32 0 10.1.61 14.37 1.76 4.44 1.07 8.52 2.53 12.43 4.4v20.88h-3.51c-1.03-.77-2.03-1.72-3.45-2.76-1.38-1.11-3.03-2.18-4.98-3.29-1.84-.92-3.89-1.76-6.05-2.41-2.24-.58-4.83-1.03-7.82-1.03-6.51 0-11.53 2.11-14.98 6.28-3.49 4.17-5.25 9.81-5.25 16.93s1.76 12.87 5.33 16.7c3.56 3.79 8.67 5.79 15.36 5.79 3.1 0 5.86-.35 8.27-1.11 2.53-.69 4.56-1.57 6.17-2.49 1.57-.96 2.91-1.88 4.1-2.91 1.26-1.07 2.26-1.91 3.29-2.87h3.51v20.84c-3.91 1.88-7.99 3.26-12.13 4.33-4.17 1.07-8.81 1.57-13.91 1.57m95.5-55.06h-2.3c-1-.34-2.61-.65-4.98-.84-2.3-.23-4.24-.31-5.77-.31-3.52 0-6.55.23-9.25.73-2.61.42-5.52 1.23-8.74 2.38v51.03h-24.44v-76.39h24.44v11.26c5.48-4.71 10.17-7.82 14.21-9.35 3.99-1.49 7.61-2.22 10.96-2.22.96 0 1.82 0 2.95.19 1.03 0 1.95 0 2.91.12v23.41zm86.83 19.38h-56.06c.38 5.98 2.62 10.61 6.82 13.75 4.23 3.26 10.42 4.83 18.52 4.83 5.27 0 10.25-.99 15.07-2.87 4.94-1.95 8.7-3.91 11.55-6.09h2.7v19.73c-5.56 2.22-10.77 3.91-15.71 4.82-4.9 1.07-10.3 1.49-16.24 1.49-15.4 0-27.24-3.45-35.4-10.26-8.08-6.93-12.22-16.82-12.22-29.57s3.91-22.64 11.72-29.96c7.7-7.43 18.25-11.11 31.76-11.11 12.52 0 21.83 3.14 28.08 9.58 6.25 6.2 9.4 15.21 9.4 27.01v8.66zm-24.42-14.4c-.16-5.13-1.34-8.96-3.85-11.53-2.38-2.61-6.11-3.95-11.13-3.95-4.75 0-8.58 1.27-11.72 3.72-2.91 2.45-4.67 6.44-4.94 11.76zm79.37 50.07c-6.63 0-12.72-.8-18.24-2.3-5.54-1.68-10.38-4.1-14.46-7.43a32.42 32.42 0 0 1 -9.29-12.45c-2.24-5.06-3.37-10.96-3.37-17.7 0-7.16 1.19-13.37 3.52-18.5 2.38-5.21 5.75-9.58 10.06-12.87 4.06-3.18 8.85-5.56 14.29-7.05 5.38-1.53 10.94-2.3 16.78-2.3 5.23 0 10 .61 14.46 1.76 4.39 1.07 8.45 2.53 12.28 4.4v20.88h-3.47c-.96-.77-2.09-1.72-3.39-2.76-1.36-1.11-3.01-2.18-4.94-3.29-1.89-.92-3.92-1.76-6.15-2.41-2.26-.58-4.79-1.03-7.68-1.03-6.55 0-11.53 2.11-15 6.28-3.64 4.17-5.38 9.81-5.38 16.93s1.74 12.87 5.42 16.7c3.58 3.79 8.69 5.79 15.24 5.79 3.18 0 5.96-.35 8.45-1.11 2.49-.69 4.5-1.57 6.11-2.49 1.57-.96 2.89-1.88 4.14-2.91 1.09-1.07 2.22-1.91 3.18-2.87h3.47v20.84c-3.83 1.88-7.89 3.26-12.01 4.33-4.14 1.07-8.93 1.57-14.02 1.57m115.5-35.68h-56.2c.4 5.98 2.68 10.61 6.9 13.75 4.2 3.26 10.32 4.83 18.52 4.83 5.19 0 10.25-.99 15.08-2.87 4.82-1.95 8.66-3.91 11.49-6.09h2.7v19.73c-5.54 2.22-10.71 3.91-15.61 4.82-4.94 1.07-10.38 1.49-16.32 1.49-15.32 0-27.16-3.45-35.24-10.26-8.2-6.93-12.3-16.82-12.3-29.57s3.91-22.64 11.61-29.96c7.74-7.43 18.31-11.11 31.87-11.11 12.39 0 21.8 3.14 28.04 9.58 6.28 6.2 9.46 15.21 9.46 27.01v8.66zm-24.52-14.4c-.08-5.13-1.32-8.96-3.77-11.53-2.38-2.61-6.15-3.95-11.19-3.95-4.69 0-8.6 1.27-11.67 3.72-2.99 2.45-4.69 6.44-5.05 11.76zm94.97-4.98h-2.16c-1.02-.34-2.78-.65-4.98-.84-2.4-.23-4.31-.31-5.84-.31-3.37 0-6.55.23-9.23.73-2.68.42-5.52 1.23-8.58 2.38v51.03h-24.55v-76.39h24.55v11.26c5.38-4.71 10.13-7.82 13.98-9.35 4.04-1.49 7.74-2.22 11.11-2.22.76 0 1.8 0 2.87.19 1.07 0 2.03 0 2.83.12v23.41z" fill-rule="evenodd"/></g><g fill-rule="evenodd"><path d="m1680.4 437.04c0-202.61 164.15-366.84 366.8-366.84s366.95 164.23 366.95 366.84c0 11.49-.11 17.39-1.11 28.46 0 0-396.6 144.5-732.64-28.46" fill="#e08c2d"/><path d="m2025.63 482.59s-176.54-6.59-390.78-124.16c0 0-183.34-108.18-345-91.79 0 0-144.76 10.5-434.3 173.61-287.2 161.81-288.19 156.99-330.18 178.9-109.14 56.97-194.53 85.04-278.65 100.1-54.9 9.88-101.52 12.22-104.28 12.53-6.76.84 102.11 40.61 315.03-35.44 0 0 104.41-27.2 387.58-190.7 66.77-38.54 205.98-124.81 354.25-154.84 132.03-26.74 253.95 12.53 317.65 32.75 63.84 20.27 174.84 65.24 229.45 88.07 0 0 491.26 214.26 962.97-140.44 14.15-10.69 93.64-81.29 75.91-74.09-24.36 16.78-58.3 38.92-98.49 62.33-53.78 30.22-300.2 180.55-661.16 163.15" fill="#284738"/></g></svg>