<svg height="436" viewBox="1 1.4 1772 324.7" width="1771pt" xmlns="http://www.w3.org/2000/svg"><path d="m1566.5 3.5c-55.5 6.3-92.5 26.1-108.5 58-9.8 19.6-11.5 43.7-4.5 63.8 7.5 21.5 27.5 38.4 58.5 49.2 26.4 9.2 49.1 13.1 109.5 19 49.9 4.9 68.4 11 75.8 25 3 5.6 3 18.1 0 24.6-5 11-16.8 17.9-37.3 21.5-20.6 3.6-66.5 3.6-91.1-.1-34.2-5.1-59.7-16.1-82.6-35.4-6.8-5.8-8.5-6.6-12.4-6.3-1.5.2-30.5 33.7-32.8 38-2.2 4-.3 6.8 9.6 14.3 37.1 28 76 43.1 126.8 49.1 16.3 1.9 61.7 1.6 77.9-.6 69.2-9.1 107.1-37.9 113.6-86.4 4-29.5-4.8-55.5-24.5-72.2-24.1-20.4-62.5-30.8-137.5-37-54.6-4.6-71-8.1-80.8-17.4-5.1-4.7-6.6-8.3-6.6-15.6 0-17.6 15.8-28.5 48.2-33.2 11.3-1.7 55.3-1.6 69.2 0 30.2 3.7 49.4 10.1 72.5 24.3 6 3.6 8.6 4.7 10.4 4.2 3.2-.8 32.1-36.9 32.1-40.1 0-4-1.7-5.8-11.6-12.2-25.9-16.8-55.7-27.6-91.1-33.1-17.9-2.7-64.3-3.5-82.8-1.4zm-1562.5 7.4-3 2.9v300.2l2.9 3.2 2.9 3.3 114.9.3c122.4.3 132.9 0 150.1-4.3 26.7-6.8 50.5-25.5 61.3-48 6.4-13.3 8.2-21.7 8.2-38.5s-1.8-25.4-8-37.3c-5.1-10-18.1-22.9-28.6-28.7-4.3-2.3-7.5-4.6-7-4.9.4-.4 3.4-2.7 6.6-5.1 21.3-15.9 31.2-40.6 28.6-70.5-3.4-37.3-28-62.6-71.4-73.2-6.4-1.5-18.1-1.7-130.8-2l-123.8-.4zm236.6 60.4c11.9 5.5 17.6 14.5 17.6 27.4 0 13.1-6.7 23.4-19.2 29.2l-5.5 2.6-79.2.3-79.3.2v-63l79.8.2 79.7.3zm4.6 122.5c7.7 3.1 15.9 10.7 18.9 17.4 1.9 4.3 2.3 7.1 2.4 14.3 0 8.2-.3 9.6-3.3 15.7-3.3 6.8-8.2 11.8-15 15.2-8.5 4.4-12.8 4.6-94.9 4.6h-78.3v-70.1l82.3.3 82.2.3zm151.5-184.7c-4.9 2.9-4.7-4-4.7 155.1 0 116.6.3 148.8 1.3 150.8.7 1.4 2.8 3.3 4.7 4.2 3.3 1.7 12.5 1.8 149.1 1.8 101.2 0 146.5-.3 148.7-1.1 5.9-2 6.2-3.3 6.2-29.9v-24.2l-2.9-2.9-2.9-2.9h-230.2l.2-34.3.3-34.2 93.8-.5 93.9-.5 2.4-2.8c2.4-2.8 2.4-2.9 2.4-26.7s0-23.9-2.4-26.7l-2.4-2.8-93.9-.5-93.8-.5v-62l115.2-.3 115.1-.2 2.6-3.1 2.6-3.1v-48l-2.9-2.9-2.9-2.9h-148.9c-99.2.1-149.4.4-150.6 1.1zm523.8.3c-1.6.8-4.2 2.6-5.6 4.2-1.5 1.6-15 24.3-30.2 50.4-15.1 26.1-50.7 87.8-79.2 137s-52.6 91.3-53.6 93.5-1.9 5.6-1.9 7.5c0 7.3 6.3 15.9 12.8 17.8 1.5.4 79 .7 172.2.7h169.5l4-2.3c5.8-3.3 8.8-8.2 9.3-15.1.3-4.1-.1-6.7-1.2-9-6.5-12.5-160.4-278.2-162.5-280.5-1.4-1.6-4-3.5-5.8-4.2-4.3-1.9-23.7-1.8-27.8 0zm46.4 67.4c1.7 1.3 9.6 25.1 34.6 103.7 17.9 56.1 32.5 102.5 32.5 103.1 0 2.5-4.2 6.4-6.8 6.4-1.5-.1-49.5-10.3-106.6-22.9-83.9-18.4-104.2-23.2-105.3-24.7-3.8-5.1-4.6-4.2 64.7-80.1 36-39.5 68.8-75.3 72.9-79.5 7.8-8.3 10.1-9.2 14-6zm123-65.9-2.9 2.9v24.7c0 26.8.5 29.6 5.6 31.5 1.5.6 26.2 1 61 1h58.4v243.7l2.4 2.6c1.3 1.4 3.9 2.9 5.7 3.2 1.9.3 16.1.5 31.6.3l28.3-.3 2.7-2.8 2.8-2.7.3-122 .2-122h118l3.2-2.9 3.3-2.9v-51.1l-2.9-3-3-3.1h-311.8z"/></svg>