<svg fill="none" height="483" width="2500" xmlns="http://www.w3.org/2000/svg" viewBox="-4.440892098500626e-16 0.9094690710166398 150 27.29153092898336"><path d="M70.474 28.191V.912h5.042a3.866 3.866 0 0 1 3.388 2.004l9.872 17.946h.141V4.778A3.866 3.866 0 0 1 92.785.91h1.882v27.28h-7.328L76.365 8.202h-.14v19.986h-5.75z" fill="#04bbf2"/><path d="M54.363 16.988h-13.81c.327 2.385 1 3.909 2.015 4.96 1.015 1.053 2.52 1.579 4.506 1.579h9.257v4.664H45.496c-3.694 0-6.5-1.169-8.416-3.506-1.917-2.337-2.876-5.715-2.876-10.133 0-4.417.959-7.795 2.876-10.134C38.997 2.08 41.802.911 45.496.912H56.33v.795a3.864 3.864 0 0 1-3.867 3.868h-5.39c-.664.002-1.327.061-1.98.176a4.582 4.582 0 0 0-1.946.84 5.553 5.553 0 0 0-1.595 2.018c-.457.9-.79 1.94-1 3.506h13.81a1.547 1.547 0 0 1 1.547 1.547v1.781a1.548 1.548 0 0 1-1.547 1.545zM118.637 16.988h-13.812c.327 2.385 1 3.909 2.017 4.96 1.017 1.053 2.518 1.579 4.506 1.579h9.257v4.664H109.77c-3.694 0-6.498-1.169-8.414-3.506-1.916-2.337-2.875-5.715-2.876-10.133 0-4.417.959-7.795 2.876-10.134 1.917-2.338 4.722-3.507 8.414-3.506h10.835v.795a3.865 3.865 0 0 1-3.867 3.868h-5.39c-.664.002-1.327.061-1.98.176a4.581 4.581 0 0 0-1.946.84c-.609.446-1.141 1.118-1.595 2.018-.457.9-.789 1.94-1 3.506h13.812a1.55 1.55 0 0 1 1.547 1.547v1.781a1.55 1.55 0 0 1-1.549 1.545z" fill="#10385b"/><path d="M60.692 28.191V2.846A1.934 1.934 0 0 1 62.626.912h1.884a1.934 1.934 0 0 1 1.934 1.934v25.345z" fill="#04bbf2"/><path d="M132.516 2.726l4.755 7.583 4.754-7.583a3.864 3.864 0 0 1 3.278-1.814H150l-9.818 13.64L150 28.192h-6.836l-5.891-9.397-5.89 9.396h-6.839l9.782-13.64L124.544.913h4.698a3.855 3.855 0 0 1 3.274 1.814zM29.605 17.025a7.102 7.102 0 0 0-3.384-2.471c1.449-.63 2.518-1.542 3.208-2.735a8.127 8.127 0 0 0 1.035-4.136 6.084 6.084 0 0 0-.684-2.946 6.352 6.352 0 0 0-1.824-2.104 8.409 8.409 0 0 0-2.595-1.28c-.961-.29-1.96-.439-2.963-.439H2.332A2.332 2.332 0 0 0 0 3.246v2.157h20.611c1.333 0 2.32.304 2.963.912.642.609.963 1.45.963 2.524 0 1.075-.321 1.923-.963 2.543-.645.619-1.632.928-2.963.928h-8.919V16.8h8.92c1.332 0 2.32.304 2.962.913s.963 1.45.963 2.523c0 1.099-.321 1.952-.963 2.56-.645.61-1.632.914-2.963.914h-8.91v4.488H22.4c1.055.003 2.108-.11 3.139-.333a7.394 7.394 0 0 0 2.7-1.156 5.896 5.896 0 0 0 1.875-2.208c.468-.925.702-2.088.702-3.49 0-1.546-.403-2.875-1.21-3.985z" fill="#10385b"/><g clip-rule="evenodd" fill-rule="evenodd"><path d="M4.22 6.7H0v4.488h4.22zm1.353 4.488V6.699h4.717v4.489zM4.22 12.309H0v4.488h4.22zm1.353 4.488V12.31h4.717v4.488zM4.22 18.004H0v4.488h4.22zm1.353 4.488v-4.488h4.717v4.488z" fill="#04bbf2"/><path d="M4.22 23.703H0v4.489h4.22zm1.353 4.489v-4.489h4.717v4.489z" fill="#10385b"/></g></svg>