<svg height="812" width="2500" xmlns="http://www.w3.org/2000/svg" viewBox="0 0 376.967 122.56170224408899"><path d="M0 0h23.886v43.739h.338A25.478 25.478 0 0 1 36.083 33.9a40.148 40.148 0 0 1 15.559-3.113 33.154 33.154 0 0 1 24.475 10.931 42.168 42.168 0 0 1 8.327 14.215 59.652 59.652 0 0 1 3.2 20.608 59.632 59.632 0 0 1-3.2 20.606 43.12 43.12 0 0 1-8.327 14.3 32.7 32.7 0 0 1-11.523 8.325 33.135 33.135 0 0 1-12.952 2.693 44.793 44.793 0 0 1-17.158-3.112 22.15 22.15 0 0 1-11.438-10.345h-.336v11.1H0zm63.753 76.707a46.593 46.593 0 0 0-1.177-10.6 27.693 27.693 0 0 0-3.7-8.916 19.111 19.111 0 0 0-6.391-6.14 17.632 17.632 0 0 0-9.085-2.266 17.5 17.5 0 0 0-9.168 2.271 19.368 19.368 0 0 0-6.308 6.14 27.6 27.6 0 0 0-3.7 8.916 46.368 46.368 0 0 0-1.178 10.6 45.619 45.619 0 0 0 1.178 10.43 27.578 27.578 0 0 0 3.7 8.915 19.368 19.368 0 0 0 6.308 6.14 17.492 17.492 0 0 0 9.168 2.272 17.623 17.623 0 0 0 9.084-2.272 19.111 19.111 0 0 0 6.391-6.14 27.668 27.668 0 0 0 3.7-8.915 45.843 45.843 0 0 0 1.177-10.43M87.64 29.383L51.977 0H87.64z" fill="#da0d26"/><path d="M122.46 82.428q.5 11.44 5.887 16.736t15.476 5.3a21.294 21.294 0 0 0 12.448-3.617q5.211-3.617 6.393-7.654h21.026q-5.048 15.479-15.475 22.372t-25.232 6.9a48.558 48.558 0 0 1-18.505-3.366 39.283 39.283 0 0 1-13.961-9.419 41.916 41.916 0 0 1-8.831-14.468 52.888 52.888 0 0 1-3.113-18.5 50.708 50.708 0 0 1 3.2-18.166A42.043 42.043 0 0 1 124.9 34.317a45.022 45.022 0 0 1 18.085-3.532 41.362 41.362 0 0 1 19.344 4.289A38.62 38.62 0 0 1 175.868 46.6a47.406 47.406 0 0 1 7.655 16.486 61.5 61.5 0 0 1 1.677 19.342zm38.857-15.14q-1.683-9.084-5.972-13.8t-13.036-4.708a20.824 20.824 0 0 0-9.5 1.933 18.137 18.137 0 0 0-6.056 4.8 17.546 17.546 0 0 0-3.2 6.055 27.252 27.252 0 0 0-1.093 5.719zM201.519 0h23.887v64.428l30.11-31.288h28.26L250.974 65.1l36.5 55.006h-28.931l-23.885-38.857-9.252 8.915v29.943h-23.887zM294.877 59.886q.5-8.409 4.2-13.961a28.615 28.615 0 0 1 9.423-8.915 41.071 41.071 0 0 1 12.784-4.8 72.9 72.9 0 0 1 14.466-1.429 97.454 97.454 0 0 1 13.29.926 40.693 40.693 0 0 1 12.28 3.616 23.883 23.883 0 0 1 9.08 7.577q3.534 4.88 3.534 12.616v45.249a90.984 90.984 0 0 0 .672 11.271 20.315 20.315 0 0 0 2.356 8.074h-24.218a33.523 33.523 0 0 1-1.094-4.12 35.458 35.458 0 0 1-.589-4.292 31.808 31.808 0 0 1-13.458 8.328 52.35 52.35 0 0 1-15.811 2.44 40.653 40.653 0 0 1-11.607-1.6 27.63 27.63 0 0 1-9.421-4.795 21.886 21.886 0 0 1-6.308-8.071 27.305 27.305 0 0 1-2.27-11.606q0-7.4 2.523-12.2a20.767 20.767 0 0 1 6.729-7.651 31.193 31.193 0 0 1 9.5-4.292 98.968 98.968 0 0 1 10.85-2.271q5.55-.84 10.6-1.345a61.152 61.152 0 0 0 9-1.514 16.079 16.079 0 0 0 6.308-2.944 6.865 6.865 0 0 0 2.356-5.634 12.671 12.671 0 0 0-1.262-6.14 9.261 9.261 0 0 0-3.365-3.532 13.221 13.221 0 0 0-4.877-1.683 40.107 40.107 0 0 0-5.971-.42q-6.9 0-11.019 3.026t-4.794 10.094zm55.175 17.662a10.642 10.642 0 0 1-3.785 2.1 38.544 38.544 0 0 1-4.879 1.264q-2.609.5-5.551.841t-5.635.839a37.965 37.965 0 0 0-5.382 1.348 15.821 15.821 0 0 0-4.458 2.271 10.551 10.551 0 0 0-3.112 3.7 11.747 11.747 0 0 0-1.178 5.465 11.13 11.13 0 0 0 1.178 5.468 9.166 9.166 0 0 0 3.2 3.363 13.506 13.506 0 0 0 4.709 1.767 29.9 29.9 0 0 0 5.551.5q7.065 0 10.935-2.356a15.749 15.749 0 0 0 5.718-5.634 18.018 18.018 0 0 0 2.271-6.644 45.976 45.976 0 0 0 .421-5.383z" fill="#3b3f53"/><path d="M0 0h376.967v122.463H0z" fill="none"/></svg>