<svg height="1000mm" viewBox="-527.2082653405216 0 1527.2082653405216 1000" width="1000mm" xmlns="http://www.w3.org/2000/svg"><linearGradient id="a" gradientUnits="userSpaceOnUse" x1="-527.208" x2="-461.567" y1="368.814" y2="303.173"><stop offset="0" stop-color="#5901a3"/><stop offset="1" stop-color="#f24f18"/></linearGradient><path d="M0 0v1000h1000V0z" fill="#999" fill-rule="evenodd"/><path d="M567.58 164.18a367.225 367.226 0 0 0-367.226 367.225A367.225 367.226 0 0 0 567.58 898.63a367.225 367.226 0 0 0 367.225-367.225A367.225 367.226 0 0 0 567.58 164.179z" fill="#fff" fill-rule="evenodd"/><path d="M-523.343 310.425a3.864 3.864 0 0 0-3.865 3.865 3.864 3.864 0 0 0 3.865 3.864 3.864 3.864 0 0 0 3.864-3.864 3.864 3.864 0 0 0-3.864-3.865zm57.912 0a3.864 3.864 0 0 0-3.864 3.865 3.864 3.864 0 0 0 3.864 3.864 3.864 3.864 0 0 0 3.864-3.864 3.864 3.864 0 0 0-3.864-3.865zm-57.912 14.452a3.864 3.864 0 0 0-3.865 3.864 3.864 3.864 0 0 0 3.865 3.865 3.864 3.864 0 0 0 3.864-3.865 3.864 3.864 0 0 0-3.864-3.864zm14.504 0a3.864 3.864 0 0 0-3.864 3.864 3.864 3.864 0 0 0 3.864 3.865 3.864 3.864 0 0 0 3.865-3.865 3.864 3.864 0 0 0-3.865-3.864zm28.904 0a3.864 3.864 0 0 0-3.865 3.864 3.864 3.864 0 0 0 3.865 3.865 3.864 3.864 0 0 0 3.864-3.865 3.864 3.864 0 0 0-3.864-3.864zm14.504 0a3.864 3.864 0 0 0-3.864 3.864 3.864 3.864 0 0 0 3.864 3.865 3.864 3.864 0 0 0 3.864-3.865 3.864 3.864 0 0 0-3.864-3.864zm-57.912 14.504a3.864 3.864 0 0 0-3.865 3.865 3.864 3.864 0 0 0 3.865 3.864 3.864 3.864 0 0 0 3.864-3.864 3.864 3.864 0 0 0-3.864-3.865zm14.451 0a3.864 3.864 0 0 0-3.864 3.865 3.864 3.864 0 0 0 3.864 3.864 3.864 3.864 0 0 0 3.865-3.864 3.864 3.864 0 0 0-3.865-3.865zm14.505 0a3.864 3.864 0 0 0-3.864 3.865 3.864 3.864 0 0 0 3.864 3.864 3.864 3.864 0 0 0 3.864-3.864 3.864 3.864 0 0 0-3.864-3.865zm14.452 0a3.864 3.864 0 0 0-3.865 3.865 3.864 3.864 0 0 0 3.865 3.864 3.864 3.864 0 0 0 3.864-3.864 3.864 3.864 0 0 0-3.864-3.865zm14.504 0a3.864 3.864 0 0 0-3.864 3.865 3.864 3.864 0 0 0 3.864 3.864 3.864 3.864 0 0 0 3.864-3.864 3.864 3.864 0 0 0-3.864-3.865zm-57.912 14.452a3.864 3.864 0 0 0-3.865 3.864 3.864 3.864 0 0 0 3.865 3.865 3.864 3.864 0 0 0 3.864-3.865 3.864 3.864 0 0 0-3.864-3.864zm14.451 0a3.864 3.864 0 0 0-3.864 3.864 3.864 3.864 0 0 0 3.864 3.865 3.864 3.864 0 0 0 3.865-3.865 3.864 3.864 0 0 0-3.865-3.864zm14.505 0a3.864 3.864 0 0 0-3.864 3.864 3.864 3.864 0 0 0 3.864 3.865 3.864 3.864 0 0 0 3.864-3.865 3.864 3.864 0 0 0-3.864-3.864zm14.452 0a3.864 3.864 0 0 0-3.865 3.864 3.864 3.864 0 0 0 3.865 3.865 3.864 3.864 0 0 0 3.864-3.865 3.864 3.864 0 0 0-3.864-3.864zm14.504 0a3.864 3.864 0 0 0-3.864 3.864 3.864 3.864 0 0 0 3.864 3.865 3.864 3.864 0 0 0 3.864-3.865 3.864 3.864 0 0 0-3.864-3.864z" fill="url(#a)" transform="matrix(7.56636 0 0 7.2859 4308.316 -1994.628)"/><path d="M618.61 662.027c-3.208.174-6.399.973-9.368 2.464-1.427.717-13.318 8.444-26.424 17.171-13.107 8.728-24.035 15.988-24.286 16.136-.255.149-11.185-7.261-24.83-16.835-13.407-9.406-24.966-17.348-25.686-17.652-5.107-2.148-11.283.13-13.855 5.11-2.125 4.114-1.233 9.662 2.035 12.652 1.77 1.62 56.242 39.668 57.58 40.221 2.073.854 4.688 1.037 6.821.474 1.81-.477 21.792-13.46 53.363-34.673 5.356-3.6 6.934-4.064 8.507-2.506 1.105 1.094 1.055 3.2-.1 4.25-.496.45-18.113 12.258-39.15 26.238-21.035 13.98-38.852 25.98-39.59 26.663s-1.773 2.16-2.299 3.277c-.937 2.003-.96 2.212-.96 14.193v12.16l1.302 2.477c1.363 2.595 3.843 4.714 6.452 5.511h-.008c3.49 1.068 8.944-.499 11.28-3.24 2.386-2.799 2.57-3.723 2.586-12.636l.015-8.155 35.728-23.762c19.65-13.069 36.797-24.558 38.105-25.53 4.32-3.217 7.626-8.607 8.837-14.408 1.2-5.758.534-10.603-2.22-16.136-4.426-8.89-14.208-13.987-23.832-13.464zm-159.805.353c-1.593-.037-3.162.208-4.343.74-.881.397-11.515 8.728-23.63 18.513-30.542 24.668-36.648 29.527-37.097 29.527-.215 0-13.222-10.481-28.906-23.291-16.046-13.107-29.477-23.788-30.717-24.425-1.993-1.024-2.497-1.117-5.291-.965-2.54.136-3.429.373-5.007 1.334-2.087 1.272-4.26 4.119-4.908 6.43-.268.958-.408 18.397-.393 50.831.015 40.525.112 49.644.558 50.882 1.171 3.25 3.57 5.633 6.918 6.87v-.002c2.087.771 6.279.492 8.35-.555.896-.454 2.31-1.571 3.143-2.484 3.041-3.333 2.825-.257 2.947-41.922.061-20.558.2-37.378.31-37.378.175 0 33.535 27.068 34.967 28.372.448.407-.66 1.454-6.207 5.872-3.714 2.958-7.13 5.966-7.59 6.685-2.804 4.374-2.164 10.2 1.504 13.68 3.075 2.918 8.459 3.874 12.061 2.141 1.708-.821 30.67-23.654 57.56-45.378l14.618-11.81.2 37.795c.192 35.932.238 37.863.95 39.182 1.449 2.69 2.669 3.911 5.117 5.123 5.607 2.774 12.224.447 14.804-5.207l.957-2.096V721.27c0-41.021-.095-49.897-.553-51.459-.724-2.469-3.284-5.315-5.84-6.494-1.273-.587-2.89-.903-4.482-.939zm214.33.006l-2.003.928c-4.116 1.906-6.363 5.362-6.348 9.772.004 1.447.282 3.21.635 4.021.855 1.964 3.31 4.579 5.284 5.625l1.63.863 58.873.198c56.65.191 58.93.227 60.392.946 2.633 1.295 3.521 4.448 1.785 6.335-.848.921-23.236 15.878-24.469 16.347-.328.124-3.969-2.02-8.527-5.02-4.375-2.882-8.586-5.505-9.357-5.83-1.822-.764-6.207-.754-8.065.023-.802.335-2.227 1.295-3.167 2.134-4.639 4.142-4.831 11.406-.41 15.518 1.006.937 13.275 9.195 27.262 18.35 13.987 9.156 26.017 17.267 26.733 18.024 2.135 2.257 1.633 4.898-1.226 6.446-1.194.646-5.16.704-60.75.89-55.892.187-59.553.24-60.77.9-1.96 1.06-4.117 3.377-5.037 5.41-1.024 2.263-1.082 6.308-.121 8.471 1.26 2.839 4.107 5.37 7.051 6.268v.001c.553.172 28.308.274 61.68.238l60.675-.066 3.365-1.163c11.466-3.963 19.038-14.704 18.33-26.003-.414-6.62-3.642-13.43-8.375-17.67-1.158-1.037-6.036-4.446-10.84-7.575-4.804-3.128-8.638-5.843-8.52-6.031s4.241-3.032 9.163-6.317c10.38-6.93 12.922-9.301 15.482-14.444 3.772-7.577 3.587-16.14-.515-23.907-.755-1.429-2.54-3.65-4.467-5.561-3.862-3.83-7.343-5.763-12.878-7.153l-3.85-.968h-59.323z"/><g fill-rule="evenodd"><path d="M254.808 101.37A189.613 189.615 0 0 0 65.195 290.987 189.613 189.615 0 0 0 254.808 480.6a189.613 189.615 0 0 0 189.613-189.615A189.613 189.615 0 0 0 254.808 101.37z" fill="#6d378f"/><g fill="#fff"><path d="M105.786 255.277a6.312 6.312 0 0 0-6.296 5.727l-.023.273a5.863 5.863 0 0 0-.008.328v61.917c0 3.46 2.702 6.317 6 6.317l79.27.007c6.173 0 9.622-4.729 9.617-8.652-.023-15.602-38.386-28.212-60.19-35.216-3.413-1.116-8.193.939-9.45 3.695-1.453 3.189 1.083 6.656 4.364 7.888 21.701 8.15 37.827 14.359 46.173 19.633h-63.13v-49.263h70.994c3.504 0 6.324-2.82 6.324-6.325s-2.82-6.328-6.324-6.328zM223.845 255.277c-7.132 0-12.363 6.713-12.363 12.653 0 10.816 5.246 20.742 20.176 25.427-14.93 4.684-20.176 14.61-20.176 25.427 0 5.94 5.23 12.653 12.363 12.653h74.48c3.504 0 6.515-3.074 6.515-6.579s-3.011-7.074-6.516-7.074H225.97c.366-7.756 15.034-18.228 28.838-18.228 5.455 0 10.848-.86 10.848-6.2 0-5.338-5.214-6.324-10.669-6.324-18.679 0-30.901-11.346-31.267-19.102h74.792a6.313 6.313 0 0 0 6.328-6.325 6.317 6.317 0 0 0-6.328-6.328zM358.972 256.024a7.034 7.034 0 0 0-5.964 3.506l-35.39 61.059c-1.757 3.032-.812 6.88 2.2 8.672 3.012 1.792 6.914.829 8.672-2.203l30.739-53.01 34.42 54.713c1.866 2.966 5.796 3.787 8.741 1.886 2.945-1.9 3.75-5.776 1.888-8.746l-39.225-62.58a7.034 7.034 0 0 0-6.081-3.297z"/></g></g></svg>