<svg clip-rule="evenodd" fill-rule="evenodd" height="912" image-rendering="optimizeQuality" shape-rendering="geometricPrecision" text-rendering="geometricPrecision" viewBox="-.08 -.01 14775.82 5530.59" width="2500" xmlns="http://www.w3.org/2000/svg"><g fill-rule="nonzero"><path d="m6380.76 0c129.94 80.91 253.42 157.68 376.71 234.76 63.17 39.55 127.39 77.59 188.37 120.28 38.68 27.05 69.38 23.26 107.6-1.28 169.27-108.69 341.33-213.14 509.68-323.2 44.93-29.38 76.17-25.46 118.77 2.13 164.71 106.7 332.79 208.09 497.32 315.05 45.56 29.65 79.13 32.75 126.48 1.64 159.82-105 322.8-205.17 485.27-306.16 19.79-12.27 39.77-39.72 65.14-24.76 20.7 12.27 9.71 41.05 9.76 62.31.63 298.26-.86 596.51 1.64 894.72.4 55.29-14.92 71.94-71.16 71.85-785.35-1.73-1570.75-1.46-2356.1-.36-46.16.04-66.32-9.63-66-61.35 2.06-315.65 1.01-631.28 1.24-946.92 0-9.13 2.42-18.24 5.29-38.72z" fill="#ffc412"/><path d="m14041.2 3326.46c-64.35 227.65-249.5 364.99-485.63 360.29-216.8-4.29-403.62-160.38-456.4-380.82-14.54-60.7-21.49-122.09-20.33-165.11.04-277.87 122.32-476.01 324.75-545.52 309.44-106.28 602.86 78.26 655.5 413.7 16.75 106.59 11.64 212.96-17.88 317.46zm671.47-1343.01c-193.85 2.78-387.84 3.2-581.66-.18-54.77-.96-66.82 18.1-64.17 68.04 3.83 73.89.99 148.11.99 243.17-70.79-93.87-134.23-159.24-213-208.86-410.01-258.25-987.33-136.24-1271.9 269.17-281.2 400.66-299.03 1063.17-39.88 1478.7 243.98 391.08 699.74 564.4 1115.77 424.96 161.83-54.24 294.29-149.28 405.04-298.8 0 143.4 7.33 267.83-1.51 391.17-20.25 282.43-185.19 433.59-466.84 431.17-191.56-1.69-360.69-51.86-443.17-249.32-15.09-36.07-41.69-29.1-67.6-29.14-188.87-.46-377.89 2.6-566.72-1.79-64.13-1.55-74.22 18.21-62.77 75.77 63.73 320.2 244.67 547.39 537.04 689.01 218.12 96.84 891.77 264.06 1400.75-110.79 275.37-228.46 377.13-535.11 378.91-879.4 3.79-743.25.78-1486.5 2.33-2229.76.09-48.25-11.82-63.81-61.62-63.12zm-13140.04 1492.41c-25.4 112.29-113.53 191.94-241.11 210.27-194.86 28.1-391.13 6.39-586.62 13.35-37.12 1.33-38.58-20.38-38.45-47.38.46-89.27.18-178.53.18-267.78 0-86.75.83-173.56-.45-260.31-.5-34.39 3.7-55.2 47.49-54.42 173.5 3.14 347.34-3.34 520.44 5.25 223.03 11.12 347.52 184.13 298.53 401.02zm-821.07-1519.25c168.26 5.74 337.21-10.68 505.12 10.4 159.32 19.94 252.37 121.28 256.25 275.72 4.24 168.41-73.2 269.38-236.91 297.48-177.03 30.43-356.23 7.03-534.31 13.6-38.94 1.46-35.17-24.86-35.12-49.91.09-81.78.04-163.61.04-245.39-.04-84.29.83-168.59-.45-252.88-.55-33.02 7.3-50.36 45.38-49.03zm1027.7 841.68c5.52-27.14 27.45-23.58 42.05-29.61 535.49-221.08 498.96-919 165.25-1172.23-193.85-147.1-413.83-200.69-648.7-203.11-422.55-4.33-845.15-.45-1267.6-3.05-56.88-.37-70.29 16.19-70.2 71.33 1.73 912.2 1.77 1824.4-.05 2736.6-.09 57.74 18.57 69.88 72.48 69.61 425.02-2.06 850.02-1.06 1275.04-1.28 124.75-.09 248.13-12.81 368.73-45.52 570.56-154.68 667.39-679.17 517.55-1030.19-86.34-202.35-242.1-333.02-454.56-392.54zm2146.98 101.79c-126.53-3.2-253.24-1.06-379.85-1.06-126.67 0-253.29-.27-379.91.14-29.83.14-51.17 2-43.92-42.92 31.79-196 207.8-338.71 427.84-342.18 226.11-3.61 391.82 122.65 428.99 322.35 9.31 50.04-1.5 64.99-53.14 63.68zm94.06-871.8c-246.72-96.92-503.89-103.63-762.1-45.2-326.77 73.98-573.26 254.57-721.44 557.93-137.11 280.64-157.78 576.63-97.02 879.59 49.89 248.91 163.16 465.37 364.71 622.97 358.38 280.15 761.4 322.94 1183.23 182.27 323.93-108.01 537.69-335.84 646.37-661.33 14.92-44.75 13.19-60.21-40.28-59.58-213.74 2.6-427.53 2.11-641.3.14-37.64-.36-56.7 12.72-74.63 44.51-41.65 73.85-103.54 125.66-185.32 152.39-271.62 88.72-514.64-55.14-573.53-335.28-13.19-62.58 3.05-73.89 62.26-73.12 238.55 3.01 477.24 1.23 715.84 1.23 241.11-.05 482.31-2.42 723.36 1.64 60.21 1.01 79.14-19.94 78.82-74.49-.5-74.58 6.62-149.47 1.19-223.59-33.58-458.09-242.25-798.03-680.17-970.09zm8166.84 917c.18-84.88-7.03-168.86-21.67-252.14-100.94-574.21-557.29-803.64-1054.33-713.11-195.35 35.63-355.82 132.55-496.94 298.76 0-94.09-2.64-165.7.96-237 2.29-45.62-11.44-58.97-57.96-58.34-196.27 2.69-392.64 2.37-588.91.18-44.28-.5-59.33 9.31-59.2 57.06 1.55 723.14 1.55 1446.28.09 2169.42-.09 47.71 16.38 57.87 60.21 57.42 191.3-2 382.78-3.83 573.99.83 63.3 1.54 72.25-21.94 71.93-76.77-2.06-367.82-1.55-735.58-.59-1103.36.18-59.48 3.51-119.4 11.82-178.25 12.36-87.44 44.19-168.32 106.41-233.22 125.53-130.95 282.43-148.29 447.68-110.02 158.32 36.63 247.86 147.15 286.04 301.41 13.77 55.5 20.39 112.02 20.25 169.72-.78 387.7.5 775.36-1.5 1163.02-.23 50.9 11.77 68.01 65.32 67.05 188.83-3.28 377.76-3.43 566.54.04 55.7 1.05 71.11-13.91 70.79-70.29-2.42-417.44-1.77-834.93-.91-1252.42zm-6080.5 722.69c-69.47 2.29-139.16 1.28-208.72.47-148.79-1.83-204.44-53.92-205.43-201.47-1.97-280.79.36-561.68-1.51-842.47-.27-45.51 12.96-60.38 58.93-59.2 114.26 2.92 228.6-1.05 342.86 1.93 45.76 1.18 59.76-12.83 58.99-58.8-2.56-156.54-2.28-313.16-.14-469.71.59-41.23-9.98-56.1-53.36-55.05-114.22 2.78-228.7-2-342.86 2.23-54.1 2-65.73-16.42-64.63-67.18 3.19-156.5-.47-313.14 2.04-469.67.69-46.16-14.04-58.93-59.42-58.38-196.32 2.28-392.63 2.42-588.95-.05-47.11-.6-58.19 15.01-57.56 59.62 2.46 161.52-.09 323.07 1.69 484.58.4 37.31-7.16 53.32-48.54 50.72-59.38-3.7-119.33 1.32-178.8-1.7-40.22-2.04-50.67 13.32-49.95 51.37 2.15 104.32-.54 208.72 1.14 313.08 1.15 69.15-28.64 157.33 11.64 202.33 41.74 46.48 131.51 9.45 199.97 15.6 2.46.23 5.06.42 7.44 0 47.62-8.93 58.01 13.32 57.29 57.7-2.42 154.03-.92 308.11-.92 494.8 7.07 163.38-11.26 359.75 14.78 555.61 37.41 281.06 200.6 471.17 474.05 550.3 209.73 60.75 424.21 35.67 637.02 42.51 36.03 1.15 39.96-18.19 39.86-46.43-.45-168.99-1.09-337.99.46-506.98.31-36.27-12.23-46.89-47.35-45.76zm2726.89-2217.03c9.53-15.28 34.48-29.78 21.11-50.72-12-18.88-36.76-8.16-55.51-8.21-228.7-.68-457.31.96-685.92-1.55-50.31-.54-79.03 14.06-106.59 58.39-276.28 444.76-555.01 887.98-834.57 1330.69-23.03 36.5-24.72 61.62-.69 99.62 280.01 442.4 558.71 885.65 834.81 1330.41 27.82 44.75 56.78 59.58 106.73 58.12 111.75-3.15 223.63-.96 335.52-1.01 116.77 0 233.63.5 350.39-.5 18.57-.13 43.43 11.22 54.83-8.84 11.86-20.84-11.87-35.71-21.67-51.35-264.37-422.92-526.37-847.35-797.17-1266.1-55.14-85.35-49.44-141.45 2.33-222.27 268.97-420 532.06-843.7 796.39-1266.66zm-1820.48-60.55c-188.74 2.96-377.58 3.46-566.36-.18-58.57-1.15-75.17 14.18-74.86 74.16 2.7 454.57 1.51 909.19 1.46 1363.8 0 454.62.95 909.24-1.23 1363.85-.27 56.98 11.64 77.64 73.44 76.27 188.65-4.33 377.58-3.24 566.36-.5 51.82.73 67.28-14.42 67.19-67.05-1.51-914.2-1.46-1828.41-.09-2742.61.09-51.1-12.73-68.56-65.91-67.74zm2598.96 592.78c-191.16 3.64-382.45 2.87-573.62.32-47.31-.65-63.49 10.12-63.41 60.57 1.59 720.21 1.46 1440.34.32 2160.51-.09 47.16 11.26 64.27 62.22 63.41 191.2-3.2 382.45-3.37 573.56 0 55.38.99 71.53-13.23 71.07-69.97-2.69-357.55-1.33-715.21-1.33-1072.76 0-357.64-1.36-715.24 1.42-1072.79.45-56.75-14.78-70.33-70.25-69.29z" fill="#111541"/></g></svg>