<svg height="2500" viewBox="0 0 1480 1480" width="2500" xmlns="http://www.w3.org/2000/svg"><path d="m0 0h1480v1480h-1480z" fill="#fefefe"/><path d="m0 0h1480v1480h-1480zm301 68-8 7-214 214-8 7-3 3v880l7 8 224 224 8 1h863l10-1 222-222 8-7 2-4v-878l-231-231-2-1z" fill="#fefefe"/><g fill="#020202"><path d="m416 277h94l20 2 15 5 10 5 11 9 9 11 7 14 4 16v18l-4 15-6 12-9 10v3l11 7 11 10 8 11 8 16 4 16v21l-4 17-8 16-10 13-10 9-14 8-14 5-12 2-29 1h-93v-271z"/><path d="m301 68h878l8 7 225 225v878l-4 6-15 14-213 213-10 1h-863l-8-1-230-230-1-2v-880l9-9 8-7 214-214zm2 8-213 213-4 5-2 1v2l-4 2-4 6v870l7 8 206 206 7 8 6 6 6 1 869-1 4-4v-2l4-2 8-8v-2l4-2 15-15 5-6 7-6 16-16 5-6 4-3v-2l3-1 7-8 5-5 8-7 5-6 8-7 4-5 8-7 24-24v-2l4-2 28-28v-2l4-2 16-16v-2l4-2 7-7 5-6 8-7 6-7v-873l-7-8-9-9-8-7-50-50-5-6-8-7-15-15-6-7-8-7-9-10h-2v-2l-7-6-6-7-6-5-48-48-6-7-8-7-9-9-7-8-3-2z"/><path d="m343 737h11l13 2 14 6 12 9 8 9 8 16 2 8v22l-4 14-6 12-13 15-9 8-4 3 2 4 62 62 2 1 3-14 1-8v-19l-3-22-3-14 7-3 25-7h4l4 15 3 16 1 10v28l-2 13-5 18-6 14v3l17 17 6 5 31 31v1h-51l-25-25-4 1-8 7-15 9-14 6-21 5-9 1h-24l-18-3-15-5-13-7-11-8-9-9-9-14-6-16-2-11v-20l4-17 8-16 6-9 11-12 11-10 4-3h2l-3-5-10-11-8-13-5-11-3-13v-10l3-14 8-16 9-10 9-7 12-6zm764 2h26l21 5 17 8 12 9 11 11 10 16 6 14 4 18v28l-5 21-8 16-7 10-11 12-10 7-12 7-18 6-12 2h-20l-17-3-14-5-16-9-10-9-9-9-8-13-5-11-4-13-2-11v-24l3-15 5-14 7-13 10-13h2v-2l8-7 14-9 14-6zm-266-462h38l1 1v105l149 1v-106l1-1h38l1 1v271h-39l-1-126-30-1h-119v126l-1 1h-38l-1-1v-270zm-19 460h19l21 3 20 6 13 6 16 9 11 9 7 6 2 4-23 23-1 2-4-1-9-8-15-9-11-5-14-4-11-2h-23l-15 3-14 5-13 7-11 9-9 9-9 13-8 17-5 18-1 6v28l5 21 7 16 9 14 11 12 14 10 17 8 14 4 18 2h10l15-2 16-5 16-8 13-10 10-10 1-2 4 1 10 9 12 11 3 2-1 5-16 16-13 9-14 8-11 5-15 5-14 3-8 1h-27l-21-3-24-8-16-8-13-9-10-9-12-12-10-14-10-19-6-18-4-21-1-20 1-16 5-24 7-19 8-15 10-14 9-10 8-8 18-13 16-8 17-6 19-4z"/></g><path d="m1109 775h23l12 4 11 7 11 11 8 16 3 13v16l-5 19-7 11-12 12-12 6-11 3h-21l-12-4-9-5-10-9-6-8-6-13-3-15v-11l3-14 5-11 6-9 9-9 10-6zm-655-354h61l17 1 13 4 11 7 7 9 5 10 2 8v11l-3 12-6 11-8 8-10 5-12 3-8 1h-69zm-113 460 4 2 64 64 6 7 4 4-1 4-11 8-15 7-13 3-7 1h-12l-17-3-12-5-9-7-5-5-5-8-4-10-1-14 3-13 8-14 14-14zm113-566h58l14 3 6 3 8 7 6 12 1 5v9l-3 10-4 6-7 7-8 4-9 2-12 1h-49l-1-1z" fill="#fefefe"/><path d="m1059 980h122l1 1v35l-35 1h-88l-1-1v-35zm-37 204 9 1 8 6 3 6 1 8-4 8 2 4 4 6 2 7-1 8-6 9-6 4-7 2h-7l-9-3-7-7-3-6v-11l5-8 3-4-4-8v-7l4-8 6-5z" fill="#020202"/><path d="m344 773h11l9 4 7 8 3 9v10l-7 14-6 7-8 7-7 4-11-13-7-11-3-9v-11l5-10 8-7z" fill="#fefefe"/><path d="m846 1184 10 1 9 6 4 6 2 13-3 10-10 16-10 14-6 3-6-1 2-6 8-11 2-5h-7l-9-5-5-6-3-10 2-11 4-6 5-5 5-2zm-408 1h37l1 1v8l-1 1-27 1v14l21 1v10l-21 1v20h28l1 1v8l-1 1h-39v-66zm103-1 13 2 6 4 1 4-4 4-5-1-4-2h-9l-5 5 1 6 5 4 16 8 6 5 3 7-1 10-4 6-6 5-6 2h-9l-11-4-6-5 1-8 7 1 6 4 3 1h9l5-4 1-7-5-5-19-10-5-6-1-2v-11l6-9 6-3zm376 1h41l1 5-5 12-19 38-6 11-3 2h-7l-1-2 17-35 10-20-29-1v-9zm-311 0h44l2 3-1 6-3 1h-15v57l-9 1-2-2 1-56h-16l-3-3v-6zm163-1h2l1 6v61l-1 1h-9l-1-53-8 4-4-1v-7l9-6z" fill="#020202"/><path d="m844 1194h7l6 3 3 4 1 9-3 6-4 4-9 1-6-3-4-5-1-9 3-5 4-4zm176 26h7l6 3 3 3 1 9-6 7-9 2-7-3-4-5v-9l5-5zm3-27 6 2 3 3v8l-5 4h-8l-4-5v-6l5-5z" fill="#fefefe"/></svg>