<svg height="2500" width="1604" xmlns="http://www.w3.org/2000/svg" viewBox="0 -1.361000000000001 300 469.054"><path d="M300 467.693H0V47.86h300z" fill="#c91935"/><g fill="#fff"><path d="M172.987 65.761h-38.873v110.056h38.873z"/><path d="M244.029 175.815h38.084v-68.767l-45.439-.05-.031 28.892 6.645-.02v27.136s-22.373-4.406-21.85-70.595l60.675-.122v-26.53h-103.57s-14.102 111.631 65.486 110.056M54.65 175.674h2.364v-.025c81.622-1.12 72.328-63.056 72.328-63.056H88.348c45.295-3.308 41.2-46.904 41.2-46.904H17.879v109.985zM56.73 92.41h37.661c-6.044 18.124-32.914 20.183-32.914 20.183v26.831l31.337.054c-3.328 23.25-27.997 23.652-36.084 23.345V92.41zM142.904 184.835H84.592s-10.77 73.317 58.312 67.806v-11.295s-34.935 1.475-32.834-36.873l32.834-.008v-19.63z"/><path d="M40.728 225.549h16.68v26.585h22.85v-67.299h-22.85v25.743h-16.68v-25.743h-22.85v67.3h22.85zM142.904 210.576h-28.367v14.971h28.367zM218.55 184.808l-71.355.06v67.241h22.851v-29.874c22.53 1.824 23.42 29.87 23.42 29.87h23.77c1.575-23.9-20.488-35.225-20.488-35.225 22.063-6.303 21.802-32.072 21.802-32.072m-48.504 28.678v-10.79l22.235-.02c-2.821 9.769-17.29 10.76-22.235 10.81"/><path d="M249.13 183.134c-19.548 0-35.393 15.847-35.393 35.394s15.845 35.393 35.393 35.393c19.55 0 35.392-15.845 35.392-35.393s-15.842-35.394-35.392-35.394m10.82 46.303h-21.802v-21.8h21.802zM86.147 306.22l195.926.018.015-43H44.412s-26.488-1.818-26.464 23.932v23.934H18v90.97h-.05v23.577c-.025 25.755 26.463 23.932 26.463 23.932H255.625s26.485 1.823 26.463-23.932v-71.703c.022-25.753-26.463-23.932-26.463-23.932h-29.07v.012l-152.759.049s.066-8.756-.031-13.046c-.166-7.359-.237-10.845 12.383-10.81m140.406 71.52V401.789H73.6v-24.048h152.955z"/></g><path d="M143.232 17.98c-.229-.754-.543-1.496-1.378-1.625-.487.111-.762.606-.862.97-.594 3.501-.698 7.163-.647 10.877.06 1.276-.159 3.126 1.397 3.452.757.214 1.507 0 2.1-.487.205-4.196-.133-8.048-.396-12.074a8.177 8.177 0 0 0-.214-1.112M186.347 19.75c.742-.049 2.8.051 3.77-.755.11-1.188-.97-2.261-2.042-2.746-3.29-.214-6.414.485-9.532.862-.295.046-.867.105-.867.538.27 1.397 1.67 1.67 2.748 1.935l-.058.164-.855 2.612-.214.003-.416.035a1.811 1.811 0 0 0-.278.06c-.355.112-.788.29-.657.738 1.025 2.047-1.025 3.44-.806 5.492.144 1.331.845 2.714 2.033 3.388.173.083.429.178.777.217 3.135.275 5.693-1.375 8.062-3.228.27-.594-.153-1.349-.54-1.83-2.26-.487-4.411.535-6.673.698l-.006-.008-.182.022c.238-.577.662-1.83 1.134-3.267a7.317 7.317 0 0 1 1.327-.031c.46.013.95.058 1.227.056 1.098 0 2.193.092 2.99-.497a.488.488 0 0 0 .17-.336c.029-.377.14-1.11-.147-1.538-1.348-.485-3.013-.27-4.469-.27l-.21.001.7-2.212 3.013-.105zM203.683 17.903c-.107-.12-.222-.222-.295-.29a2.098 2.098 0 0 0-1.26-.47c-.361 0-.838.23-1.084.363-1.777 1.018-3.325 2.459-4.745 4.126l-.075.09a38.67 38.67 0 0 0-3.184 4.46c-.324-.375-.324-1.151-.285-1.626.377-3.286 3.695-5.487 3.323-8.902-.616-.047-1.02.53-1.439.925-.148.153-.31.328-.475.518-2.339 2.924-4.204 6.212-3.685 10.19a5.68 5.68 0 0 0 .535 1.587c.093.205.2.368.283.48a30.113 30.113 0 0 0-1.5 3.68c-.63 2.106-1.21 4.224-1.553 6.459-.102.509-.258 1.482-.15 2.342.024.258.072.51.18.745.535 1.134 1.779 2.375 3.013 2.21.375-2.85 1.04-5.592 1.82-8.277a53.152 53.152 0 0 1 1.68-4.671c1.62.282 2.936-.197 2.936-.197 3.389-1.186 6.61-4.411 7.347-7.912.528-2.145-.075-4.185-1.387-5.83m-.616 3.88l-.002-.004c-.022 1.714-.718 3.211-2.033 4.38-1.285 1.024-2.79 1.828-4.447 1.83.082-.148.158-.297.24-.45.378-.657.758-1.32 1.145-1.984a32.248 32.248 0 0 1 3.252-4.399c.034-.034.063-.07.097-.107.027-.03.054-.058.078-.088.253-.27.521-.54.796-.805.066-.052.17-.112.266-.086h-.002c.28.052.384.388.48.672.055.21.13.592.13 1.037v.004zM151.205 4.952c-.063-.083-.139-.156-.212-.226h.002s-.44-.448-1.039-.633l-.185-.052a3.124 3.124 0 0 0-.682-.082c-.056 0-.114.004-.18.011-.187-.637-.956-1.049-.956-1.049-.531-.292-1.12-.433-1.653-.496l-.07-.01a8.545 8.545 0 0 0-3.08.231 9.27 9.27 0 0 0-1.495.555c-3.043 1.522-4.214 3.274-4.662 4.302-.013.026-.031.053-.043.075-.044.12-.086.24-.122.363a2.862 2.862 0 0 0-.098.384c-.275 1.315.037 2.732 1.03 3.722 0 .124-.017.494-.013.857.01.195.036.448.094.694.037.139.093.297.166.472.236.5.45.667.83.667.696.059 1.022-1.076 1.24-1.341 1.345.428 2.96.701 4.417.265 1.018-.324 1.885-.752 2.795-1.346 1.502-.99 2.865-2.218 3.822-3.834.304-.533.445-1.05.514-1.388.155-.82.077-1.548-.42-2.142M139.062 9.47c-.058.069-.117.137-.173.21-.285-.251-.236-.655-.131-1.04.082-.29.207-.499.243-.56a5.81 5.81 0 0 1 .86-1.095c.489-.485 1.068-.886 1.689-1.237a3.994 3.994 0 0 1 .499-.221c.168-.061.533-.16 1.049-.107h.004c.105.011.217.029.319.058-2.142 1.417-3.834 3.357-4.36 3.992m8.603.266c-.48.321-.969.535-1.448.75-1.507.542-3.073.808-4.63.542 1.333-2.105 3.449-4.155 5.74-5.046.124-.039.372-.117.63-.156.662-.06 1.42-.114 1.65.674.27 1.4-.915 2.479-1.942 3.236M172.711 15.55c-.433-.618-1.188-1.78-2.156-1.833-.375.165-.392.699-.322 1.02.701 3.542 2.086 6.762 2.099 10.565 0 .148-.004.404-.042.555-.053.156-.136.285-.282.3-2.125-2.868-3.564-6.099-6.188-8.718a1.87 1.87 0 0 0-.234-.182c-.426-.188-.815.043-1.108.374-.077.108-.245.336-.42.738-.836 1.93-1.223 4.08-1.525 6.227-.163 1.09-.645 4.092.108 5.76.32.596.912 1.19 1.613 1.136.482-.056.862-.645 1.023-1.136l.53-8.718.225.375c1.779 2.856 2.69 6.084 5.491 8.343.4.262.908.202 1.347.026.277-.097.662-.27.983-.555.962-.774 1.47-2.12 1.61-3.191.476-4.087-.544-7.914-2.752-11.086M161.077 17.319a.33.33 0 0 0-.09-.204.615.615 0 0 0-.149-.096c-4.085-1.677-9.74-1.187-13.532.904-1.154.596-1.673 1.709-1.765 2.967-.004.21 0 .755.236 1.198.19.323.462.616.772.784.046.022.126.053.224.077 1.253.266 2.58.36 3.907.444l1.156.08c2.515.212 3.698.535 3.698.535h.013c1.003.28 2.393.51 2.668 1.743.01.056 0 .09-.017.14-.843 1.357-3.374 1.822-5.078 2.097-1.11.132-3.934.597-5.307-.533a.656.656 0 0 1-.236-.455c0-.027 0-.053.002-.083v-.002c.01-.192.073-.389.202-.572.022-.026.083-.104.18-.17 1.78-1.032 4.048 1.176 5.86.957 1.832-.183 2.422-.621 2.607-1.015.15-.295.08-.497.08-.497-.643-.536-2.091-.964-3.28-1.18-1.676-.244-4.065-.595-5.75.416-.026.017-.342.219-.557.535-.326.477-.56 1.057-.586 1.673.004.107.013.27.075.455.862 2.147 3.104 3.289 5.151 3.756 2.778.445 5.787.068 7.841-1.76h-.002c.394-.35.604-.665.704-.835.518-1.025.674-2.668.343-3.944a2.579 2.579 0 0 0-.38-.815c-2.132-2.82-6.069-2.02-9.399-2.556a9.563 9.563 0 0 1-1.514-.322 3.504 3.504 0 0 1-.61-.228c-.03-.014-.06-.034-.084-.049-.008-.004-.01-.01-.01-.01a.423.423 0 0 1-.16-.224c-.01-.056.024-.087.043-.104 2.892-1.157 6.369-1.003 9.584-1.378 1.02-.153 2.091-.114 2.797-.896.022-.022.054-.058.098-.117.002-.002.008-.004.008-.01l.002-.001c.07-.093.146-.23.202-.39.027-.085.041-.168.048-.229v-.034l.002-.044v-.007zM138.19 20.784h.002s-.538-5.816-8.725-12.004c-.053-.039-.104-.083-.156-.124-.031-.022-.06-.04-.092-.06a37.253 37.253 0 0 0-1.83-1.284c-2.6-1.718-5.28-3.001-7.416-3.94-6.317-2.769-15.567-4.733-23.83-2.202-1.195.426-1.62 1.573-2.008 2.649-.041.156-.097.453.012.635.44.475 1.154.524 1.85.553.29.002.913 0 1.33-.068.262-.056.493-.166.489-.448a.28.28 0 0 0-.052-.144c-.528-.667-1.38-.402-1.96-.733-.019-.02-.019-.041-.015-.06a.412.412 0 0 1 .093-.117h-.004c.202-.19.548-.29.847-.356.01 0 .112-.022.122-.029l.17-.024c.068-.012.112-.018.112-.018 6.682-1.049 13.15.183 18.937 2.306 6.638 2.709 14.367 6.784 17.475 14.031a8.215 8.215 0 0 1 .259.738l.036.138c.037.144.068.29.097.436.008.034.018.066.02.1.48 2.539-.117 5.331-2.225 7.067-4.577 3.666-11.086 3.985-16.846 2.909l-.15-8.167c0-.414.004-1.364-.01-1.797-.008-.153-.004-.083 0-.236.759-.018.978 0 1.231.012 2.595.116 6.264.594 8.98 1.94.044.029.112.085.115.182v.004a1.4 1.4 0 0 1-.188.5h.002l-.008.017a4.41 4.41 0 0 1-.102.156c-.214.314-.346.426-.387.455-.485.401-1.193.601-1.193 1.217.004.046.02.06.065.09a4.85 4.85 0 0 0 1.816.36c.083 0 .41-.01.745-.178.916-.501 1.977-1.302 2.216-2.315.26-.915-.044-1.691-.453-2.407-.256-.426-.645-.774-.845-.933-2.244-1.706-4.973-2.366-7.8-2.587a27.869 27.869 0 0 0-3.707-.102h-.224l-.185.011-.182.014-.115-4.657c-.163-1.185-.803-2.583-2.047-3.016-1.293 2.369-1.322 7.614-1.444 8.026-.155.034-.316.065-.467.102-.847.151-1.775.353-2.741.616-.808.202-1.61.43-2.398.73-1.468.582-2.93 1.308-4.194 2.527a2.813 2.813 0 0 0-.285.35c-.295.466-.494 1.079-.385 1.663.012.056.056.214.146.395 2.228 3.807 6.266 6.67 10.044 8.425.27 1.346.27 2.797 1.132 3.773.755.21 1.59.09 2.155-.056.75-.304.703-1.349.769-2.067.058.01.054.01.092.02 6.56 1.56 13.781.966 19.056-2.912 3.301-2.468 4.918-6.117 4.25-10.11m-27.617 8.654c-3.21-1.17-6.58-2.882-8.785-5.968a.487.487 0 0 1-.066-.154c0-.002-.004-.004-.004-.012v-.013c-.095-.584.594-1.018 1.05-1.171 1.238-.429 2.585-.701 3.933-.918 2.352-.358 3.657-.423 4.197-.465 0 2.907-.214 5.748-.324 8.703" fill="#c91935"/></svg>