<svg height="-13168" viewBox="197.8 312.5 225.5 166.6" width="2500" xmlns="http://www.w3.org/2000/svg"><g stroke="#000"><g stroke-width=".3"><g fill="#fff"><path d="m245.8 374.5c.1 0 .4-.1.6 0 .8.2 1.3 1.1 1.4 1.2.2.3.2.7.2 1.4 0 .4-.1 1.2-.3 2-.1.3-.2.5-.4.8-.1.1-.3.4-.8.5-.4.1-.9 0-1.1 0h-3.6c-2.6-.1-4-.1-5.2.1s-2 .6-2.5.8c-8.4 3.7-12.7 6.1-12.7 6.1-3.1 1.8-5.9 3.1-8.6 4.8-.5.3-1.2.9-2.7 1.6-.5.2-1.5.5-2.3.7-1.3.4-1.6.4-2.9.8-2 .6-2.7.9-2.9.8-.2-.2 1.8-1.6 2.6-2.1 3.7-2.4 6.8-4.1 7.9-4.7 3.1-1.7 1.8-1.1 7.4-4.2s9.7-5.3 10.6-5.8c1-.5 1.9-1 2.7-1.4 1.2-.6 2.5-1.1 3.9-1.4zm14.8 9.5c.1 0 .4-.1.6 0 .8.2 1.3 1.1 1.4 1.2.2.3.2.7.2 1.4 0 .4-.1 1.2-.3 2-.1.3-.2.5-.4.8-.1.1-.3.4-.8.5-.4.1-.9 0-1.1 0h-3.6c-2.6-.1-4-.1-5.2.1s-2 .6-2.5.8c-8.4 3.7-12.7 6.1-12.7 6.1-3.1 1.8-5.9 3.1-8.6 4.8-.5.3-1.2.9-2.7 1.6-.5.2-1.5.5-2.3.7-1.3.4-1.6.4-2.9.8-2 .6-2.7.9-2.9.8-.2-.2 1.8-1.6 2.6-2.1 3.7-2.4 6.8-4.1 7.9-4.7 3.1-1.7 1.8-1.1 7.4-4.2s9.7-5.3 10.6-5.8c1-.5 1.9-1 2.7-1.4 1.2-.6 2.5-1.1 3.9-1.4zm114.3-9.5c-.1 0-.4-.1-.6 0-.8.2-1.3 1.1-1.4 1.2-.2.3-.2.7-.2 1.4 0 .4.1 1.2.3 2 .1.3.2.5.4.8.1.1.3.4.8.5.4.1.9 0 1.1 0h3.6c2.6-.1 4-.1 5.2.1s2 .6 2.5.8c8.4 3.7 12.7 6.1 12.7 6.1 3.1 1.8 5.9 3.1 8.6 4.8.5.3 1.2.9 2.7 1.6.5.2 1.5.5 2.3.7 1.3.4 1.6.4 2.9.8 2 .6 2.7.9 2.9.8.2-.2-1.8-1.6-2.6-2.1-3.7-2.4-6.8-4.1-7.9-4.7-3.1-1.7-1.8-1.1-7.4-4.2s-9.7-5.3-10.6-5.8c-1-.5-1.9-1-2.7-1.4-1.2-.6-2.5-1.1-3.9-1.4zm-14.8 9.5c-.1 0-.4-.1-.6 0-.8.2-1.3 1.1-1.4 1.2-.2.3-.2.7-.2 1.4 0 .4.1 1.2.3 2 .1.3.2.5.4.8.1.1.3.4.8.5.4.1.9 0 1.1 0h3.6c2.6-.1 4-.1 5.2.1s2 .6 2.5.8c8.4 3.7 12.7 6.1 12.7 6.1 3.1 1.8 5.9 3.1 8.6 4.8.5.3 1.2.9 2.7 1.6.5.2 1.5.5 2.3.7 1.3.4 1.6.4 2.9.8 2 .6 2.7.9 2.9.8.2-.2-1.8-1.6-2.6-2.1-3.7-2.4-6.8-4.1-7.9-4.7-3.1-1.7-1.8-1.1-7.4-4.2s-9.7-5.3-10.6-5.8c-1-.5-1.9-1-2.7-1.4-1.2-.6-2.5-1.1-3.9-1.4zm-120 23.1c.1-.2.4-.4.8-.6 1.1-.4 2.3.8 2.4.9.4.4.6 1.1 1 2.4.2.8.6 2.1.8 3.8.1.5.1 1-.1 1.6-.1.3-.2 1-.7 1.4s-1.1.8-1.3.9c-1.6.9-3 1.9-4.5 2.8-3.3 2-5 2.9-6.3 4.3-1.4 1.3-2.2 2.5-2.7 3.4-8.3 12.9-12.2 20.4-12.2 20.4-2.8 5.6-5.5 10-8 15-.5 1-1 2.5-2.5 4.8-.5.8-1.6 2-2.4 3-1.4 1.7-1.7 1.9-3.1 3.6-2.1 2.5-2.9 3.8-3.1 3.7-.4-.2 1.4-4.2 2-5.6 3.2-7.1 6.1-12.4 7.2-14.4 2.9-5.4 1.6-3.4 6.8-13.1 5.1-9.8 9-16.8 9.9-18.3.9-1.7 1.8-3.2 2.5-4.5 1.1-2 2.5-3.8 4.1-5.4zm21.5.5c.1-.2.4-.4.8-.6 1.1-.4 2.3.8 2.4.9.4.4.6 1.1 1 2.4.2.8.6 2.1.8 3.8.1.5.1 1-.1 1.6-.1.3-.2 1-.7 1.4s-1.1.8-1.3.9c-1.6.9-3 1.9-4.5 2.8-3.3 2-5 2.9-6.3 4.3-1.4 1.3-2.2 2.5-2.7 3.4-8.3 12.9-12.2 20.4-12.3 20.4-2.8 5.6-5.5 10-8 15-.5 1-1 2.5-2.5 4.8-.5.8-1.6 2-2.4 3-1.4 1.7-1.7 1.9-3.1 3.6-2.1 2.5-2.9 3.8-3.1 3.7-.4-.2 1.4-4.2 2-5.6 3.2-7.1 6.1-12.4 7.2-14.4 2.9-5.4 1.6-3.4 6.8-13.1 5.1-9.8 9-16.8 9.9-18.3.9-1.7 1.8-3.2 2.5-4.5 1.1-2 2.5-3.8 4.1-5.4zm119.4-.6c-.1-.2-.4-.4-.8-.6-1.1-.4-2.3.8-2.4.9-.4.4-.6 1.1-1 2.4-.2.8-.6 2.1-.8 3.8-.1.5-.1 1 .1 1.6.1.3.2 1 .7 1.4s1.1.8 1.3.9c1.6.9 3 1.9 4.5 2.8 3.3 2 5 2.9 6.3 4.3 1.4 1.3 2.2 2.5 2.7 3.4 8.3 12.9 12.2 20.4 12.2 20.4 2.8 5.6 5.5 10 8 15 .5 1 1 2.5 2.5 4.8.5.8 1.6 2 2.4 3 1.4 1.7 1.7 1.9 3.1 3.6 2.1 2.5 2.9 3.8 3.1 3.7.4-.2-1.4-4.2-2-5.6-3.2-7.1-6.1-12.4-7.2-14.4-2.9-5.4-1.6-3.4-6.8-13.1-5.1-9.8-9-16.8-9.9-18.3-.9-1.7-1.8-3.2-2.5-4.5-1.1-2-2.5-3.8-4.1-5.4zm-21.4.5c-.1-.2-.4-.4-.8-.6-1.1-.4-2.3.8-2.4.9-.4.4-.6 1.1-1 2.4-.2.8-.6 2.1-.8 3.8-.1.5-.1 1 .1 1.6.1.3.2 1 .7 1.4s1.1.8 1.3.9c1.6.9 3 1.9 4.5 2.8 3.3 2 5 2.9 6.3 4.3 1.4 1.3 2.2 2.5 2.7 3.4 8.3 12.9 12.2 20.4 12.2 20.4 2.8 5.6 5.5 10 8 15 .5 1 1 2.5 2.5 4.8.5.8 1.6 2 2.4 3 1.4 1.7 1.7 1.9 3.1 3.6 2.1 2.5 2.9 3.8 3.1 3.7.4-.2-1.4-4.2-2-5.6-3.2-7.1-6.1-12.4-7.2-14.4-2.9-5.4-1.6-3.4-6.8-13.1-5.1-9.8-9-16.8-9.9-18.3-.9-1.7-1.8-3.2-2.5-4.5-1.1-2-2.5-3.8-4.1-5.4z"/><path d="m284.7 410.3c0-.3 2.7-7.7 3.9-9.8.9-1.6 1.7-2.7 2.1-3.2 1.8-2.4 3.6-4.1 5.2-5.4.9-.7 1.8-1.5 2.8-2 0 0 2.3-1.2 8.4-3.3 1.6-.5 8.4-2.5 10.6-3.2.4-.1.8-.4 1-.9.5-1.2 1.6-3.5 2.8-3.6s5.6-.3 7.1-.4c.4 0 .7-.1 1.1-.3l.4-.2c.5-.2.9-.6 1.2-1l2-2.5c.5-.6 1.7-1.3 2.4-1.4l8.8-1.1c.4 0 .7-.1 1.1-.3 1.4-.5 5.1-1.8 7.7-2.4.7-.2 1.9-.5 3.3-.8 3.8-.8 6.8-1.4 10.4-.8 1.1.2 3.2.6 5.4 2.1 1.8 1.2 2.8 2.4 3.1 2.8.5.7 1.6 2.1 2.1 4.3.1.4.5 2.2.1 4.4-.4 2.6-1.6 4.3-2.7 5.9-2.1 3.1-4.5 4.9-6.2 6.2-1.2.9-2.1 1.5-3.4 2.1-1.5.6-2.8.9-5.4 1.3-3.3.5-3.9.4-5.8 1.1-2 .7-2.8 1.3-3.2 1.6-.7.6-1.2 1.2-2.2 2.9-1.7 2.9-2.6 4.4-3.6 6.7-.7 1.4-1 2.3-1.9 2.9-1.2.8-2.6.8-2.8.8-1.6 0-2-.8-3.7-.8-.6 0-1.2.1-1.9.4-5.8 2-11.6 5.6-11.6 5.6-9 5.7-11.8 7.1-14.3 8.1-1.2.5-2.1.9-2.8 1.1-1.4.4-2.7.5-5.2.6-1.5 0-3.9 0-6-.6-.8-.3-1.7-.7-2-1.5-.1-.2-.1-.3-.1-.5.2-.9 2.7-.9 5.1-1.4 1.1-.2 2.5-.8 5.3-2 1.5-.6 3.5-1.5 8-3.9 10-5.2 11.6-6.8 15.8-9.2.2-.1.7-.4 1.3-.9 1.2-1 1.8-2.2 2.1-3 1.3-2.8 2-4.3 2.8-6.6 1.3-4 1.5-5.5 1.3-7-.1-.6-.3-1.2-.6-1.8-1.2-1.8-3.5-2.2-4.6-2-.4.1-.6.2-.7.3-.4.3-.3.8-.5 1.4-.2.5-.6.8-1 1.2-1.5 1.2-5.5 1.1-9 1.6-1.3.2-2.2.3-4.1.7s-4 .8-6.6 1.7c0 0-3.3.9-6.3 2.6-6 3.3-12.4 9.6-14.3 11.5-.3.3-.6.6-.8.9s-.5.6-.7.7c-.3.6-.7.7-.7.3zm-16.8-25.9c.1-.5.1-1 0-1.4 0-.4-.1-.7-.3-1-.2-.4-.4-.9-.7-1.2-.7-1.3-1.8-2.3-3-3.2l-4.3-2.8c-.9-.6-1.8-1.3-2.5-2.2l-6-6.6c-.5-.5-1.1-.8-1.8-.8-.3 0-.7.1-1 .3l-.1.1c-.7.5-1.2 1.3-1.5 2.2l-.1.5c-.1.5-.2 1.1-.2 1.7v3.2c0 1.6.2 3.3.6 4.9l2.1 8.3c.2.6.6 1.5 1 2.2.2.5.6.9 1 1.2l5.1 3.7c.1.1.3.2.4.3l1.2.7c.5.3 1.1.6 1.7.8.3.1.6.1.9.2l2.3.2c.3 0 .5-.1.7-.4 1.1-2 4.4-8 4.5-10.9z"/><path d="m267.9 384.4s6.5 3.8 7.7 5c1.5 1.3 4.2 4.7 5.1 6 .3.4.5.8.7 1.3.1.2.3 1.5.1 1.4-.2-.2-2.2-1.7-3.8-3-.4-.3-.8-1-1.2-1.4-.9-.9-2-1.5-2.8-1.7-.7-.1-3-.2-3.9-.2-.1 0-.2.1-.2.3.4.8 1.4 2.9 2.3 3.7 1.1.9 8.5 3.2 8.9 3.4.3.2.5.7.3.7s-6.4.8-9.6-.6c-3.2-1.3-8.1-4.4-8.1-4.4l.8-1.4 1.1-2.1 1-2.1c.1-.2.2-.4.3-.7l.7-1.8c.2-.6.4-1.1.5-1.7z"/></g><path d="m302.9 361.5s2 0 2.6.1 1.6.9 2 1.3.5.7.9 1.2 1.4 3 2 3.8 1 1.1 1.4 1.4 1 .6 2 .6 1.9-.3 1.9-.3.3.1.2.7c-.1.5-.1.7-.4 1-.3.4-.7.8-1.3 1.1s-1.4.4-2.4.5c-1.6.2-7.1.2-8.9.2s-7.3-.1-8.9-.2c-1-.1-1.9-.2-2.4-.5s-1-.7-1.3-1.1-.4-.5-.4-1c-.1-.5.2-.7.2-.7s1 .3 1.9.3c1 0 1.6-.4 2-.6s.8-.6 1.4-1.4 1.6-3.3 2-3.8.5-.8.9-1.2 1.4-1.2 2-1.3 2.7-.1 2.6-.1" fill="#f9f9f9"/></g><path d="m302.9 361.5s2 0 2.6.1 1.6.9 2 1.3.5.7.9 1.2 1.4 3 2 3.8 1 1.1 1.4 1.4 1 .6 2 .6 1.9-.3 1.9-.3 15.4-4.1 16.9-5 2.2-2.6 2.3-2.8c.5-1.1 3.9-15.8 3.9-17.6 0-1 .1-.6-.1-1.9-.1-.7-.4-1.9-.9-3.1-.4-1.2-.8-2.1-.9-2.5-.2-.4-.9-1.9-1.5-2.6-.7-.7-1.8-1.3-2.5-1.4-.6-.1-1.5-.1-2.3.1-1.6.3-15.3 9.3-17.7 10.6-.3.1-.8.2-1.2.3-3.3.1-8.8 0-8.8 0s-5.6.1-8.8 0c-.5-.1-.9-.2-1.2-.3-2.5-1.2-16.2-10.3-17.7-10.6-.8-.2-1.6-.2-2.3-.1s-1.8.7-2.5 1.4-1.4 2.2-1.5 2.6c-.2.4-.5 1.3-.9 2.5s-.8 2.4-.9 3.1c-.1 1.3-.1.9-.1 1.9 0 1.9 3.4 16.6 3.9 17.6.1.2.8 1.9 2.3 2.8s16.9 5 16.9 5 1 .3 1.9.3c1 0 1.6-.4 2-.6s.8-.6 1.4-1.4 1.6-3.3 2-3.8.5-.8.9-1.2 1.4-1.2 2-1.3 2.6-.1 2.6-.1z" stroke-width=".4"/><g stroke-width=".3"><path d="m290.5 371.5s-.3-.3-.5-.8 0-1.1 0-1.1-15.4-4.3-16.1-4.6-2.2-1-3-3.1c-.9-2.1-3.6-15.8-3.6-15.8h-1.1s2.6 14.5 3 15.4c.4 1.6 2 4.1 4.1 5.1 2.2 1.1 17.2 4.9 17.2 4.9zm24.8 0s.3-.3.5-.8 0-1.1 0-1.1 15.4-4.3 16.1-4.6 2.2-1 3-3.1c.9-2.1 3.6-15.8 3.6-15.8h1.1s-2.6 14.5-3 15.4c-.4 1.6-2 4.1-4.1 5.1-2.2 1.1-17.2 4.9-17.2 4.9z" fill="#fff"/><path d="m302.9 343.7h8.8c.5 0 1-.1 1.4-.3s10.6-6.6 10.6-6.6 6.5-3.9 7-4 3.2-.8 5.2 2c.7 1 1.1 2 1.1 2s1.7 4.4 1.8 5.3c.1 1 .1 1.8.1 2.5s-.2 1.5-.2 1.5h1.1c.4 0 1.3-.3 2.4-1.2 1-.8 1.8-1.9 1.9-2.9s0-2.2-.2-3.4c-.1-.8-.9-4.1-2.2-7.6-1.5-4-3-6.8-3.6-7.8s-1.4-2.3-2.1-2.9-2-1.7-4-2.9c-4.8-2.8-9.7-4.1-11.7-4.5s-17.3-.3-17.3-.3-15.3-.1-17.3.3-6.9 1.7-11.7 4.5c-2 1.2-3.4 2.3-4 2.9-.7.6-1.5 1.9-2.1 2.9s-2.1 3.9-3.6 7.8c-1.3 3.5-2.1 6.7-2.2 7.6-.2 1.2-.2 2.4-.2 3.4s.9 2.1 1.9 2.9c1.1.8 2.1 1.2 2.4 1.2h1.1s-.2-.8-.2-1.5 0-1.5.1-2.5 1.8-5.3 1.8-5.3.4-1 1.1-2c2-2.8 4.7-2 5.2-2 .5.1 7 4 7 4s10.2 6.4 10.6 6.6.9.3 1.4.3z" fill="#fff"/><path d="m342.3 333s-3.1-4.6-5.1-6.5c-2-2-3.6-2.7-4.5-3s-2.8-.3-3.6-.2-1.5.3-2.9 1.1c-1.7 1-3.7 3.5-5.6 5.8-2.3 2.7-4.3 5.2-4.3 5.2s-2.3 2.4-4.6 2.7c-2.4.3-8.7.1-8.7.1h.1s-6.4.2-8.7-.1c-2.4-.3-4.6-2.7-4.6-2.7s-2-2.4-4.3-5.2c-1.9-2.2-3.9-4.7-5.6-5.8-1.4-.8-2-1-2.9-1.1-.8-.1-2.7-.1-3.6.2-1 .3-2.5 1-4.5 3s-5.1 6.5-5.1 6.5" fill="none"/></g></g></svg>