<svg height="983" viewBox="7.3 26.8 1904.7 772.8" width="2500" xmlns="http://www.w3.org/2000/svg"><path d="m326 407.1c-1.1 187.3-127.5 343.5-305.4 381.1-2.2.5-4.7 1.4-6.7.8-2.1-.6-4.7-2.6-5.1-4.4-.4-1.9 1-5 2.6-6.3 1.8-1.5 4.7-1.5 7.2-2.1 152.8-37.9 251-132.9 286.2-285.9 46.3-201.6-84.3-399.9-286.8-443.1-.7-.2-1.5-.2-2.3-.4-4.1-1-8.4-2.2-7.3-7.8 1.1-5.5 5.4-5.4 9.6-4.2 21.5 6.3 43.7 10.6 64.1 19.2 132.5 55.6 211.5 154.9 238.6 295.8 1.6 8.5 2.6 17.1 3.3 25.7 1.1 11.9 1.5 23.8 2 31.6zm233.9 10.8h-192.1c-2.3 0-5 .7-6.7-.3-2.3-1.3-4.8-3.9-5.1-6.2-.2-1.6 2.9-4.2 5.1-5.4 1.6-.9 4-.3 6-.3h387.3c2 0 4.5-.6 6 .3 2.1 1.3 4.7 3.8 4.7 5.8s-2.6 4.6-4.6 5.8c-1.8 1-4.5.3-6.7.3zm-213.2 93.8c3.2.9 5.2 1.4 7.1 1.9 86.2 23.1 172.5 46.1 258.7 69.2 1.2.3 2.9.4 3.6 1.2 2 2.4 3.6 5.2 5.3 7.8-2.9 1.2-6.2 4-8.7 3.4-18.7-4.5-37.3-9.6-55.9-14.6-67.9-18.2-135.8-36.4-203.6-54.6-2.7-.7-5.8-1-7.9-2.6-1.8-1.4-3.7-4.5-3.4-6.6.3-2 3.3-3.6 4.8-5.1zm0-199.9c-1.4-1.5-5.2-4-4.8-5.3.8-2.8 3.3-6.4 5.9-7.2 12.8-4 25.9-7.3 38.9-10.7 73.7-19.8 147.4-39.5 221.1-59.3 1-.3 2-.4 3-.7 4.5-1.6 9.1-2 10.5 3.6 1.5 5.8-3.5 7.1-7.7 8.2-33.8 9.1-67.6 18.1-101.4 27.1-52.9 14.2-105.8 28.3-158.7 42.5-1.8.4-3.5.9-6.8 1.8zm149.1 409.6c-.8 6.5-3.6 8.4-8.1 7.3-2.1-.5-4.1-2-6-3.2l-173.4-100.2c-1.5-.9-3.8-1.5-4.4-2.8-1.3-2.6-1.6-5.6-2.4-8.4 2.7-.7 5.4-1.8 8.1-1.9 1.5-.1 3.1 1.5 4.6 2.4 58 33.5 116.1 67 174 100.6 2.9 1.9 5.5 4.5 7.6 6.2zm-195.4-517c1.9-1.6 4.5-4.3 7.5-6 48.5-28.1 97.1-56.1 145.6-84.2 10.3-6 20.5-12.3 31.1-17.7 2.6-1.3 8.2-1 9.7.8 3.3 3.9.2 7.3-3.8 9.6-59.8 34.5-119.5 69-179.3 103.5-5.7 3.2-10.9.9-10.8-6zm23.6-173.6c5.5-.1 8.5 4.5 6.4 8.6-.9 1.8-2.4 3.2-3.9 4.6-26 26.1-52.1 52.1-78.2 78.2-1.4 1.4-2.9 3.5-4.6 3.8-2.2.4-5.5.2-6.8-1.2s-1.3-4.6-.9-6.9c.3-1.5 2.1-2.8 3.4-4 26.2-26.3 52.5-52.5 78.7-78.7 2-1.8 4.4-3.2 5.9-4.4zm7.1 754.1c.3 5.8-4.1 9-8.2 7-1.8-.8-3.2-2.4-4.7-3.8-26.1-26-52.2-52.1-78.2-78.1-1.4-1.4-3.5-2.8-3.9-4.6-.5-2.2-.4-5.5.9-6.8 1.3-1.4 4.7-1.7 6.8-1.1 2 .5 3.5 2.7 5.2 4.3l77.1 77.1c2 2.1 3.8 4.6 5 6zm401.6-157.4c-3.2-.7-4.7-1-6.1-1.4-18.4-4.9-36.7-9.8-55.1-14.7-4.2-1.1-9.1-2.3-7.6-8.2 1.5-5.8 6.2-4.8 10.6-3.7 19.1 5.1 38.2 10 57.2 15.6 2.5.7 5 4.5 5.7 7.3.3 1.3-3.4 3.7-4.7 5.1zm-65.9-399.3c-1-2.6-2.8-5.2-2.8-7.8 0-2.3 1.8-4.8 3.3-6.8.8-1 2.8-1.1 4.2-1.5 18.4-4.9 36.7-9.8 55.1-14.7 4.3-1.1 9.2-2.6 10.8 3.2 1.8 6.2-3.2 7.4-7.9 8.6-18.1 4.8-36.2 9.8-54.3 14.6-1.7.5-3.5.8-5.2 1.2-1.1 1.1-2.1 2.2-3.2 3.2zm-510 533.6c1.1.9 3.6 2 4.8 4 4.4 7.1 8.9 14.2 12.4 21.7 1.1 2.4.5 7.4-1.3 9-3.6 3.1-6.9.4-9.1-3.3-4-7-8.3-13.9-12.1-21-2.9-5.4-.8-10.1 5.3-10.4zm-7.2-705.3c.7-2.2.9-3.5 1.5-4.6 4.2-7.5 8.2-15.1 13.1-22.1 1.4-2 5.7-2 8.7-3 .6 2.9 2.5 6.5 1.4 8.6-3.8 7.9-8.4 15.6-13.3 22.9-1.2 1.7-4.7 2.9-7 2.6-1.7-.2-3.1-3-4.4-4.4zm821 63.3c0-2 .5-3.6 1.6-4.9s2.6-1.9 4.6-1.9h79.2c9.4 0 18.2 1.6 26.4 4.7s15.2 7.6 21.2 13.3c6 5.8 10.7 12.8 14.1 21s5.2 17.5 5.2 27.9v18.3c0 6.2-1 12.1-2.9 17.7s-4.5 10.6-7.8 15.1-7 8.3-11.2 11.3c-4.2 3.1-8.7 5.2-13.3 6.4 4.5 1.1 9.3 3.1 14.3 6s9.7 6.9 13.9 12 7.7 11.4 10.4 18.9 4.1 16.4 4.1 26.6v17.3c0 10-1.7 19.1-5.1 27.4s-8 15.4-13.9 21.3-12.8 10.5-20.8 13.7c-8 3.3-16.5 4.9-25.7 4.9h-88.2c-2.1 0-3.7-.6-4.7-1.9s-1.5-3-1.5-5.1v-270zm23.9 16.1v104.1h59.1c4.5 0 9.4-.8 14.7-2.3s10.2-3.9 14.7-7.2 8.3-7.4 11.3-12.5 4.6-11.3 4.6-18.6v-18.1c0-7.2-1.1-13.6-3.3-19.2s-5.2-10.4-9.2-14.3c-3.9-3.9-8.6-6.9-14.1-8.9s-11.6-3-18.2-3zm0 125v113.1h68.1c7.8 0 14.5-1.5 20-4.5s10-6.8 13.5-11.3c3.5-4.6 6.1-9.6 7.8-14.9 1.7-5.4 2.5-10.5 2.5-15.2v-16.3c0-8.6-1.4-16.1-4.2-22.5s-6.3-11.6-10.6-15.8-9.1-7.3-14.4-9.4-10.5-3.1-15.5-3.1h-67.2zm182.5-141.1c0-2 .5-3.6 1.6-4.9s2.6-1.9 4.6-1.9h12.3c2 0 3.5.6 4.4 1.9s1.4 2.9 1.4 4.9v254h99.5c1.6 0 3 .4 4.2 1.1s1.8 2.2 1.8 4.3v11.5c0 2.1-.6 3.7-1.8 4.7s-2.6 1.5-4.2 1.5h-117.6c-2.1 0-3.7-.6-4.7-1.9s-1.5-3-1.5-5.1zm330.2 269.7c.7 2.3.5 4-.6 5.4-1.1 1.3-2.5 2-4.4 2h-13.3c-1.1 0-2.2-.3-3.5-1s-2.2-2-2.9-4l-16.7-62.3h-95.1l-16.7 62.3c-.5 2-1.5 3.3-2.8 4s-2.5 1-3.4 1h-13.5c-1.9 0-3.3-.7-4.4-2s-1.3-3.1-.6-5.4l77-271.5c.7-2 1.6-3.4 2.7-4.1s2.3-1.1 3.5-1.1h11.5c1.2 0 2.4.4 3.6 1.1s2.1 2.1 2.6 4.1zm-130.4-82.4h82.8l-38.8-145.1-2.6-16.3-2.4 16.3zm160.3-141.8c3.6-11.3 9.1-21.2 16.2-29.7 7.2-8.4 16-15.1 26.6-19.9 10.5-4.8 22.7-7.3 36.3-7.3 9 0 17.3 1.1 24.8 3.4s14.3 5.3 20.3 9.2c6 3.8 11.3 8.3 15.8 13.3s8.3 10.4 11.2 16c3 5.6 5.2 11.4 6.8 17.2 1.5 5.8 2.3 11.5 2.3 16.9v5.2c0 1.7-.4 3.2-1.3 4.3s-2.1 1.7-3.7 1.7h-12.9c-3.7 0-5.6-1.7-5.6-5.2v-2.8c0-6.5-1.2-13.1-3.7-19.7s-6.1-12.6-11-18-11-9.8-18.4-13.1c-7.4-3.4-16-5.1-26-5.1-9.4 0-17.8 1.8-25.1 5.3s-13.5 8.4-18.5 14.6-8.9 13.6-11.5 22c-2.7 8.4-4 17.5-4 27.4v107.7c0 9.8 1.3 19 4 27.5s6.5 15.9 11.6 22.1 11.4 11.1 18.9 14.7 16.1 5.4 25.8 5.4 18.2-1.8 25.6-5.3 13.5-8 18.5-13.5 8.7-11.6 11.2-18.3 3.8-13.2 3.8-19.4v-3.9c0-1.9.5-3.3 1.5-4.3s2.2-1.5 3.7-1.5h13.3c1.5 0 2.7.6 3.8 1.8s1.6 2.7 1.6 4.6v3c0 10-2 19.7-5.9 29.4-3.9 9.6-9.5 18.1-16.7 25.6-7.2 7.4-16 13.4-26.2 18s-21.6 6.9-34.2 6.9c-13.1 0-24.9-2.3-35.3-7-10.4-4.6-19.2-11.1-26.5-19.4-7.2-8.3-12.8-18.2-16.7-29.8-3.9-11.5-5.9-24.2-5.9-38v-105.7c0-12.9 1.9-25 5.5-36.3zm289.5 63.6 84.2 160c1.2 2 1.2 3.8.1 5.5s-2.6 2.5-4.5 2.5h-14.3c-1.6 0-2.9-.4-4-1.1s-2-1.8-2.8-3.3l-74-141.5-39.4 56.5v82.4c0 2.1-.4 3.8-1.3 5.1s-2.4 1.9-4.5 1.9h-12.3c-2.1 0-3.7-.6-4.7-1.9s-1.5-3-1.5-5.1v-270.1c0-2 .6-3.6 1.7-4.9s2.6-1.9 4.5-1.9h12.3c2 0 3.5.6 4.4 1.9s1.4 2.9 1.4 4.9v147.5l102.7-150.5c1.1-1.6 2.1-2.6 3.2-3.1s2.3-.7 3.6-.7h13.7c2.5 0 4.2 1 5.1 3s.7 3.9-.5 5.8zm-875.5 407.7c0-1.9.4-3.4 1.3-4.8.9-1.3 2.3-2 4.3-2h12.7c1.9 0 3.3.6 4.3 1.7s1.5 2.5 1.5 4.1v2.8c0 8.1 1.6 15.5 4.8 22.2s7.5 12.5 13 17.3 12 8.6 19.4 11.2c7.4 2.7 15.4 4 23.9 4 7.6 0 14.7-1.3 21.4-3.8s12.6-5.9 17.6-10.3c5-4.3 9-9.4 11.9-15.1 2.9-5.8 4.4-12 4.4-18.6 0-6.9-1.2-13.3-3.5-19.1s-6.2-11.5-11.5-17c-5.4-5.5-12.4-11-21-16.6s-19.2-11.5-31.8-17.7c-9.7-4.9-18.7-9.9-27-15s-15.5-10.7-21.6-16.9-10.9-13-14.4-20.6-5.3-16.3-5.3-26.3c0-12.7 2.5-23.7 7.4-32.8 4.9-9.2 11.1-16.7 18.7-22.6s16-10.3 25.3-13.1c9.3-2.9 18.3-4.3 27.1-4.3 12.7 0 24 2.2 33.8 6.7 9.8 4.4 18.1 10.2 24.8 17.4s11.7 15.2 15.1 24.2 5.1 17.9 5.1 27v3.8c0 2.3-.6 3.9-1.7 5s-2.5 1.7-4.1 2h-12.1c-3.9 0-5.8-2.2-5.8-6.6v-3.2c0-7-1.3-13.8-4-20.2s-6.4-12.1-11.1-16.9c-4.8-4.8-10.5-8.7-17.2-11.6s-14-4.4-22-4.4c-6.1 0-12.4.9-18.9 2.8s-12.4 4.8-17.8 8.8-9.8 9.1-13.2 15.4c-3.5 6.3-5.2 13.8-5.2 22.6 0 7.7 1.7 14.5 5.1 20.3s7.8 11 13.1 15.6c5.4 4.6 11.3 8.7 17.9 12.3s13 7.1 19.4 10.2c14.3 7.3 26.6 14.2 36.8 20.8s18.6 13.3 25.1 20.2 11.3 14.3 14.3 22.2c3.1 7.9 4.6 16.9 4.6 27 0 10.3-2 19.9-6.1 28.7s-9.7 16.3-16.8 22.7c-7.2 6.4-15.6 11.3-25.4 14.9s-20.3 5.4-31.5 5.4c-12.2 0-23.5-2-33.9-6s-19.4-9.5-27-16.5-13.5-15.4-17.7-25-6.4-20-6.4-31.1v-1.2zm229.5-10.7c0 8 1.3 16 3.8 24s6.3 15.2 11.2 21.6c5 6.4 11.2 11.6 18.7 15.6 7.5 4.1 16.3 6.1 26.4 6.1s18.9-2 26.4-6.1c7.5-4 13.7-9.3 18.7-15.7s8.7-13.6 11.1-21.6c2.5-8 3.7-15.9 3.7-23.9v-190.7c0-1.9.4-3.5 1.3-5s2.4-2.2 4.7-2.2h12.5c2.1 0 3.6.7 4.5 2.2s1.3 3.1 1.3 5v189.5c0 11.8-1.9 23.2-5.6 34.2s-9.2 20.8-16.3 29.3c-7.2 8.5-16 15.3-26.4 20.4s-22.3 7.7-35.7 7.7c-13.7 0-25.8-2.6-36.3-7.8s-19.4-12-26.6-20.5-12.6-18.2-16.2-29.3c-3.6-11-5.5-22.4-5.5-34v-190.1c0-2 .5-3.6 1.6-4.8s2.5-1.8 4.2-1.8h12.9c2 0 3.4.6 4.3 1.9s1.3 2.8 1.3 4.7zm205.9-191.3c0-2 .5-3.6 1.6-4.9s2.5-1.9 4.4-1.9h11.3c1.1 0 2.2.3 3.5 1s2.4 1.9 3.5 3.8l114.6 222.7 4.4 13.7-1.4-13.7-.6-220.7c0-1.9.5-3.5 1.4-4.8s2.5-2 4.6-2h11.7c3.8 0 5.8 2.3 5.8 6.8v270.3c0 4.5-2.1 6.8-6.2 6.8h-11.1c-1.1 0-2.3-.3-3.6-.9s-2.5-1.8-3.4-3.7l-113.8-219.9-5.8-16.1 2 16.5.4 217.1c0 2.1-.4 3.8-1.2 5.1s-2.3 1.9-4.4 1.9h-11.7c-2.1 0-3.7-.6-4.6-1.9s-1.4-3-1.4-5.1z" fill="#1e1e50"/></svg>