<svg height="500pt" viewBox="87 157.7 343.4 179.3" width="500pt" xmlns="http://www.w3.org/2000/svg"><path d="m170.8 159.7c-.9 1-4.2 7.4-7.3 14.3s-8.2 17.8-11.3 24.3l-5.6 11.8 3.6 7.2c2.1 4 5.7 10.1 8.2 13.6 4.6 6.6 17.1 20.1 18.4 20.1.5 0 1.4-1.7 2.1-3.8.8-2 2.8-6.9 4.6-10.7 1.8-3.9 3.5-7.8 3.8-8.8 1.1-2.9 2.6-1.9 3.8 2.5.6 2.4 3.9 10.7 7.2 18.6 5.2 11.9 6.6 14.4 8.7 15 1.4.4 8.4.6 15.5.6 14-.1 24.8-2.4 26.8-5.6.9-1.3.1-4.1-3.2-12.5-6.6-16.5-5.1-15.3-18.9-15.3-6.4 0-13.4-.3-15.4-.6l-3.6-.6.1-35.7.2-35.6-18.1-.3c-16.2-.2-18.2-.1-19.6 1.5z"/><path d="m411 159.1c-6.3.4-30.3.7-53.4.8-23 0-41.9.1-42 .3s-2.1 5.2-4.5 11.3c-2.5 6-8.5 20.2-13.4 31.5s-10 23-11.3 26l-2.4 5.5v48.2c0 27.6-.4 48.3-.9 48.3s-3.2-5.5-5.9-12.3c-2.8-6.7-8.5-20.1-12.6-29.7-4.2-9.6-7.6-18-7.6-18.7 0-2.5-2.3-2.3-7.5.6-3 1.7-6.4 3.1-7.6 3.1-2.1 0-2.1-.1-.6-1.8 1.6-1.7 2.3-4.2 1.2-4.2-.2 0-3 .7-6.2 1.5-15.1 4-39.5-.4-55.8-10l-4.3-2.5-1.6 4.7c-.9 2.6-1.6 5.2-1.6 5.9 0 .8-2.7 7.5-6.1 15-3.3 7.5-5.8 14.3-5.5 15 1.2 3 28.1 9.7 48.1 11.9l6.1.6 1.7-3.5c2.9-6.3 3.4-5.7 11.7 14.9 2.9 7.1 5.7 13.6 6.3 14.3.7.9 11.3 1.2 49.1 1l48.1-.3.5-33 .5-33 23.1-.3 23.1-.2.6-3.8c.3-2 1.9-11 3.6-19.9s3.1-16.6 3.1-17.2c0-.8-8.5-1.1-27-1.1h-27v-25h43.1c23.7.1 43.3 0 43.4-.2s1.2-5.7 2.5-12.3 3.4-15.6 4.7-19.9c1.2-4.4 2.3-9 2.3-10.3 0-2.6 1.4-2.5-18-1.2zm-126.5.7c-.8.9-.6 18.2.3 18.2.8 0 18.2-17.2 18.2-18.1 0-.6-17.8-.7-18.5-.1z"/><path d="m214.6 217.6c-.3.9-.6 2.6-.6 3.9 0 2.2.4 2.3 9.8 3 21.3 1.4 40.3 8.9 46.8 18.4l2.3 3.5 1.6-3.8c1.5-3.5 1.5-4-.6-8.2-5.4-10.7-25.8-18.4-48.9-18.4-8 0-9.9.3-10.4 1.6zm-76.4 9.6c-.6 1.3-5.9 12.6-11.8 25.3-13.6 29.1-27.6 58.9-34.3 72.7-2.8 5.9-5.1 10.9-5.1 11.2s11.3.6 25 .6h25l1.1-2.7c.5-1.5 2.4-5.6 4.1-9.2 1.6-3.7 6.5-14.5 10.8-24.1s9.2-20.6 10.9-24.3l3.2-6.8-5.4-6.7c-8.2-10.1-13.2-18.3-17.3-28.7-2.1-5.2-4-9.5-4.4-9.5s-1.2 1-1.8 2.2z"/></svg>