<svg height="2500" width="2500" xmlns="http://www.w3.org/2000/svg" viewBox="0 0 1080 1080"><path d="M0 0h1080v1080H0V0z"/><path d="M230.282 474.873l2.724-.009 2.996.007 3.149-.006c3.448-.004 6.897-.001 10.345.002l7.167-.003c5.013-.001 10.026.001 15.038.006 6.435.005 12.869.002 19.303-.004 4.935-.004 9.87-.002 14.806 0 2.373 0 4.745 0 7.118-.002 3.314-.003 6.627.001 9.94.007l2.99-.007 2.733.009 2.374.001c4.845.3 6.862 2.715 10.035 6.126 2.512 2.907 3.376 4.639 3.401 8.483l.039 2.705-.004 2.946.03 3.12c.029 3.409.035 6.817.038 10.226l.03 7.116c.018 4.975.024 9.95.022 14.927 0 6.364.04 12.728.092 19.092.034 4.901.04 9.802.038 14.703.004 2.346.017 4.691.04 7.037a682 682 0 0 1 .003 9.864l.05 2.915c-.095 6.89-2.027 11.77-6.779 16.866h-2v2c-2.81.937-4.505 1.126-7.41 1.127l-2.731.009-2.99-.007-3.154.006c-3.448.004-6.896.001-10.344-.002l-7.17.003c-5.01.001-10.022-.001-15.033-.006-6.435-.005-12.87-.002-19.306.004-4.935.004-9.87.002-14.806 0-2.373 0-4.747 0-7.12.002-3.312.003-6.623-.001-9.934-.007l-2.996.007-2.724-.009-2.373-.001C226 604 226 604 224 603v-2l-2.313-.813c-2.623-1.159-3.958-1.94-5.687-4.187-.885-2.842-1.129-5.415-1.14-8.382l-.018-2.638-.003-2.87-.015-3.041c-.015-3.321-.022-6.642-.027-9.964l-.017-6.927c-.01-4.843-.017-9.686-.02-14.529-.006-6.2-.03-12.401-.058-18.602-.019-4.77-.024-9.54-.026-14.312-.003-2.285-.01-4.571-.024-6.857-.017-3.2-.015-6.4-.008-9.6l-.028-2.852c.039-6.163.68-11.356 4.92-16.168 3.873-2.873 5.955-4.383 10.746-4.385z" fill="#fcfcfc"/><path d="M399.852 496.823l3.137-.039 3.421-.022 3.503-.025c2.456-.014 4.911-.024 7.367-.032 3.742-.017 7.484-.061 11.226-.105 2.385-.01 4.77-.019 7.154-.026l3.379-.053c8.821.025 14.703 2.08 21.461 7.979l2.031 1.719C464 508 464 508 464 512h2c1.594 3.188 1.102 6.629 1.063 10.125l-.014 2.285c-.012 1.863-.03 3.727-.049 5.59 1.595.2 1.595.2 3.223.402 4.32.684 7.738 1.968 11.777 3.598v2l1.813.187c3.09 1.149 3.775 2.918 5.187 5.813v2h2c2.515 5.972 3.159 12.155 1.277 18.398A53.043 53.043 0 0 1 484 576c-2.156.687-2.156.687-4 1v2c-5.312 1.478-9.946 2.254-15.498 2.275l-2.127.015c-2.293.014-4.586.013-6.879.01l-4.825.014c-3.36.007-6.72.007-10.079.002-4.293-.006-8.585.01-12.878.034-3.317.015-6.635.016-9.952.013-1.582 0-3.165.005-4.747.015-2.216.013-4.43.006-6.646-.006l-3.81.002c-4.286-.45-6.804-1.251-10.559-3.374-2.355-3.754-2.263-7.45-2.29-11.806l-.02-2.013a853.634 853.634 0 0 1-.026-6.552l-.02-4.577c-.012-3.193-.016-6.386-.015-9.58 0-4.083-.027-8.166-.061-12.249-.022-3.15-.026-6.298-.025-9.448-.003-1.505-.012-3.01-.027-4.515a420.4 420.4 0 0 1-.002-6.324l-.008-3.629c1.003-6.715 3.804-10.414 10.346-10.484z" fill="#f8f8f8"/><path d="M674 497c8.43 3.728 15.56 10.522 22 17a494.14 494.14 0 0 0 6.39 5.414L704 521v2l1.719.793c6.139 3.248 11.047 7.763 15.281 13.207l2.25 1.313c4.161 2.553 7.58 5.982 10.75 9.687v2h2l1-51c5.487-2.195 9.36-2.88 15-1 1.51 3.019 1.139 6.136 1.13 9.447l.005 2.326c.004 2.545.001 5.089-.002 7.633a6682.395 6682.395 0 0 1-.002 16.387 5787.4 5787.4 0 0 0 .003 14.245c.004 3.643.002 7.285 0 10.928 0 1.75 0 3.502.002 5.253.003 2.445-.001 4.89-.007 7.334l.007 2.207c-.022 5.011-.022 5.011-1.136 7.24h-8v-2l-1.75-.812c-2.306-1.217-4.27-2.491-6.25-4.188v-2l-1.695-.727c-2.8-1.547-4.848-3.461-7.18-5.648-2.616-2.452-5.11-4.615-8.098-6.605-3.144-2.098-5.814-4.395-8.59-6.957l-2.753-2.528a272.008 272.008 0 0 1-10.184-10.16c-2.363-2.426-2.363-2.426-5.063-3.875-2.868-1.765-4.344-3.884-6.437-6.5a121.55 121.55 0 0 0-5-3l-.025 1.954c-.085 6.7-.185 13.399-.292 20.098-.039 2.502-.074 5.003-.105 7.505a2594.09 2594.09 0 0 1-.164 10.775l-.035 3.4-.06 3.154-.04 2.78C680 578 680 578 678 581c-2.715.398-2.715.398-5.938.375l-3.214.023C666 581 666 581 664.348 579.941c-2.045-2.944-1.774-5.935-1.752-9.394l-.02-2.292a782.496 782.496 0 0 1-.01-7.505l-.015-5.212c-.01-3.642-.007-7.283.003-10.925.011-4.67-.009-9.341-.038-14.012a1606.03 1606.03 0 0 1-.012-10.763c0-1.722-.006-3.445-.019-5.167-.014-2.407-.004-4.812.013-7.218l-.029-2.163c.048-3.188.126-4.86 2.355-7.228 3.279-1.6 5.567-1.49 9.176-1.062z" fill="#f9f9f9"/><path d="M860 496c3.41 3.463 4.852 6.907 5.5 11.688-2.128 4.698-5.2 5.562-9.836 7.464C853 516 853 516 850 516v2c-3.445 2.296-5.938 2.54-10 3v2l-10 3v2l-3.75 1.313c-3.214 1.195-5.528 2.6-8.25 4.687a100.38 100.38 0 0 1-6 2c-1.626.538-3.251 1.08-4.875 1.625L803 539c1.353 2.705 2.637 2.818 5.438 3.875l2.707 1.04L814 545c1.876.746 3.751 1.496 5.625 2.25l2.54 1.016L824 549v2l8 2v2l3.063.25c3.51.5 6.098 1.777 9.132 3.645 5.624 3.444 11.63 5.895 17.801 8.175C864 568 864 568 865 570c.23 5.538.23 5.538-1 8h-2l-.438 1.938C861 582 861 582 860 583c-5.183.759-7.698-.861-11.805-3.64-3.051-1.89-6.267-3.055-9.613-4.325-3.537-1.418-6.886-3.146-10.277-4.879-3.045-1.527-6.163-2.842-9.305-4.156-1.48-.665-2.96-1.331-4.438-2-4.13-1.845-8.31-3.454-12.562-5v-2l-2.313-.438C797 556 797 556 794 555v26c-2.711 1.356-4.913 1.17-7.938 1.188l-3.214.042C780 582 780 582 777 580c-.286-2.603-.378-4.967-.34-7.57l-.002-2.366c.002-2.587.026-5.173.049-7.76a3078.278 3078.278 0 0 1 .087-19.527c.03-4.812.044-9.625.06-14.437.032-9.447.083-18.893.146-28.34h2v-2c2.125-.027 4.25-.046 6.375-.063l3.586-.035C792 498 792 498 794 499v27c5.015-.933 5.015-.933 8-4a96.593 96.593 0 0 1 6.063-2.688l3.222-1.324C814 517 814 517 816 517v-2c3.73-2.034 5.67-3 10-3v-2l6-1v-2c10.374-5.556 10.374-5.556 16-6v-2c4.114-2.351 7.26-4.11 12-3z" fill="#f5f5f5"/><path d="M524.5 495.688l2.906-.051c2.594.363 2.594.363 4.235 1.486 1.995 2.756 1.719 4.898 1.7 8.276v1.952a633.07 633.07 0 0 1-.048 6.38 2078.425 2078.425 0 0 1-.087 16.07c-.03 3.962-.044 7.923-.06 11.885-.032 7.771-.083 15.543-.146 23.314l3.564-.016c4.348-.018 8.696-.03 13.044-.039 1.884-.005 3.77-.012 5.654-.02 2.703-.013 5.406-.018 8.11-.023l2.569-.015c2.02 0 4.04.05 6.059.113 1.872 1.872 1.174 4.937 1.188 7.438l.042 3.558C573 579 573 579 571 581c-2.15.26-2.15.26-4.845.275l-3.055.029-3.31-.003-3.394.013c-2.372.006-4.744.006-7.117.002-3.632-.003-7.264.02-10.896.045-2.302.003-4.604.003-6.906.002l-3.3.028-3.073-.019-2.7.002c-3.078-.479-4.338-1.015-6.404-3.374-.398-2.686-.537-4.966-.502-7.653l-.016-2.356c-.013-2.571.004-5.142.022-7.714 0-1.784-.002-3.569-.005-5.353 0-3.74.012-7.48.034-11.22.029-4.801.026-9.602.013-14.403-.007-3.685.001-7.369.014-11.054.004-1.77.004-3.54 0-5.312a739.62 739.62 0 0 1 .036-7.412l-.014-2.23c.03-2.036.03-2.036.418-5.293 3.334-2.223 4.595-2.297 8.5-2.313z" fill="#f7f7f7"/><path d="M628.75 496.734l3.25.016 3.25-.016C638 497 638 497 640 499c.193 2.58.262 5.05.243 7.63l.006 2.386c.003 2.61-.007 5.218-.019 7.828v5.425c-.002 3.793-.01 7.586-.024 11.379-.017 4.87-.021 9.739-.02 14.608 0 3.735-.006 7.47-.013 11.205a3949.08 3949.08 0 0 0-.006 5.388c-.002 2.507-.011 5.013-.022 7.52l.002 2.264c-.033 5.138-.033 5.138-1.147 7.367h-13v-2h-2c-.046-10.527-.082-21.053-.104-31.58-.01-4.887-.024-9.775-.047-14.662a4044.56 4044.56 0 0 1-.039-14.142c-.003-1.8-.01-3.602-.021-5.404-.015-2.516-.017-5.033-.016-7.55l-.022-2.273c.029-7.175.029-7.175 4.999-7.655z" fill="#f9f9f9"/><path d="M414.38 547.482l3.842-.038c1.375.007 2.75.016 4.126.025l4.254-.012c2.967-.006 5.933.003 8.9.022 3.798.022 7.596.01 11.395-.015 2.926-.014 5.852-.01 8.779 0 1.4.003 2.8 0 4.201-.01 1.958-.01 3.916.009 5.873.028l3.373.01c3.54.625 4.723 1.678 6.877 4.508.5 3 .5 3 0 6-2.197 2.932-3.367 3.9-7.025 4.481l-3.58-.027-1.982.002a486.27 486.27 0 0 1-6.46-.065c-1.496-.008-2.993-.014-4.49-.018-3.932-.015-7.864-.054-11.796-.098-4.015-.041-8.03-.06-12.046-.08A4497.78 4497.78 0 0 1 405 562v-2h-2c-.488-5.86-.488-5.86 0-8 3.735-3.682 6.187-4.503 11.38-4.518z" fill="#0b0b0b"/><path d="M318.5 511.25l2.406.203C323 512 323 512 325 515c-.248 4.63-.64 6.9-4 10-1.142 2.29-2.056 4.617-3 7h-2l-.813 2.063c-1.348 3.334-2.762 6.634-4.187 9.937h-2v2h-2l-.313 1.688c-.82 2.762-2.189 4.855-3.687 7.312a122.751 122.751 0 0 0-2 5h-2l-.875 2.313C297 565 297 565 295 568c-2.094.363-2.094.363-4.5.313l-2.406-.012C286 568 286 568 284 566c-.53-8.206-.53-8.206 2-12h2l.625-2.375c1.577-4.157 3.7-7.684 6.035-11.453 1.345-2.109 1.345-2.109 2.34-4.172h2l2-6h2l.563-2.813c1.582-5.623 5.01-10.516 8.437-15.187 2.46-1.23 3.783-1.015 6.5-.75z" fill="#0f0f0f"/><path d="M267.875 510.75c2.58.046 3.853.097 6.125 1.375 1.488 2.79 1.272 4.727 1 7.875-1.117 2.577-2.246 4.888-3.625 7.313l-1.098 1.989c-7.011 12.542-7.011 12.542-10.804 16.151-1.78 1.87-2.643 3.705-3.723 6.047-1.932 3.939-3.956 7.784-6.188 11.563l-1.62 2.785C246 568 246 568 242.956 568.902 240 569 240 569 237.125 567.5c-2.125-2.5-2.125-2.5-2.563-6 .385-3.077.79-4.926 2.438-7.5h2l2-6h2l.852-2.18c14.017-34.424 14.017-34.424 24.023-35.07z" fill="#0d0d0d"/><path d="M416.816 513.602l2.585-.01c1.8-.001 3.599.004 5.399.017 2.756.016 5.512 0 8.268-.02 1.75.003 3.5.007 5.248.013l2.5-.019c5.74.07 5.74.07 7.906 1.758 1.96 2.545 1.596 4.54 1.278 7.659-1.4 3.7-1.4 3.7-4 5-2.797.123-5.569.188-8.367.203l-2.519.017c-1.76.01-3.52.016-5.28.02-2.691.01-5.382.041-8.072.073l-5.13.015-2.436.038c-3.345-.014-5.75-.117-8.702-1.765-1.839-1.97-2.034-2.932-1.994-5.601l-.031-2.062C404 517 404 517 405.482 515.404c3.726-2.078 7.135-1.833 11.334-1.802z" fill="#0c0c0c"/><path d="M597.5 562.75l2.906-.016C603 563 603 563 606 565c.398 2.46.398 2.46.375 5.375l.023 2.898c-.464 3.182-1.03 4.551-3.398 6.727-2.594.46-2.594.46-5.5.375l-2.906-.04C592 580 592 580 589 578c-.398-2.969-.398-2.969-.375-6.5l-.023-3.531L589 565c3.352-2.235 4.578-2.271 8.5-2.25z" fill="#eaeaea"/><path d="M840 524v3l-5 1-1-4c3.75-1.125 3.75-1.125 6 0z" fill="#181818"/><path d="M224 477c-1.285 2.867-2.571 4.976-5 7h-2c3.138-7 3.138-7 7-7z" fill="#c2c2c2"/></svg>