<svg viewBox="-0.05000000000000643 1.8041124150158794e-16 196.90000000000006 61.30000000000002" xmlns="http://www.w3.org/2000/svg" width="2500" height="778"><g fill="#fff000" fill-rule="evenodd"><path d="M12.74 61.27c-.16-.03-.32-.04-.51-.04h-.21a.45.45 0 0 1-.3-.12c-.06.02-.13.03-.21.03h-.02c-.08 0-.16-.02-.22-.06h-.09c-.09-.01-.21-.03-.33-.07-.2-.08-.35-.22-.47-.35h-.06c-.22 0-.37-.1-.48-.17-.13-.05-.29-.09-.41-.26a.711.711 0 0 1-.07-.15c-.02-.01-.04-.03-.06-.04h-.06c-.11 0-.22-.04-.3-.12-.14-.11-.25-.19-.34-.32-.01-.02-.02-.04-.03-.05-.05-.01-.1-.03-.13-.04-.12-.06-.31-.24-.44-.46a.4.4 0 0 1-.26-.16l-.13-.17a.486.486 0 0 1-.3-.27l-.03-.08a.708.708 0 0 1-.2-.12c-.1-.09-.15-.19-.19-.27-.06-.09-.1-.13-.14-.18-.17-.18-.41-.42-.46-.86a.219.219 0 0 0-.05-.03h-.09c-.07 0-.13-.02-.19-.05-.2-.1-.26-.29-.29-.41a.477.477 0 0 1-.12-.22c-.11-.1-.16-.22-.19-.29a.633.633 0 0 1-.34-.26c-.02-.04-.04-.08-.05-.12l-.07-.05c-.1-.11-.14-.16-.17-.21l-.05-.04s-.08-.07-.11-.12c-.08-.12-.09-.25-.1-.33-.03-.04-.06-.07-.07-.1-.02-.05-.03-.09-.04-.13a.41.41 0 0 1-.21-.2c-.03-.07-.06-.15-.09-.23-.02-.05-.04-.12-.05-.14-.15-.15-.32-.32-.36-.6a.572.572 0 0 1-.07-.08c-.1-.14-.13-.25-.16-.34-.01-.03-.02-.07-.04-.12-.01-.04-.06-.1-.1-.15-.07-.09-.13-.19-.18-.28a1.01 1.01 0 0 1-.07-.21s-.07-.06-.11-.14c-.06-.12-.08-.23-.1-.33 0-.04-.02-.09-.04-.14l-.05-.11c-.05-.1-.1-.21-.12-.31-.01-.05-.02-.11-.01-.16s-.08-.07-.11-.12-.06-.11-.07-.16l-.04-.13c-.05-.09-.12-.21-.16-.34-.01-.05-.02-.1-.02-.15a.677.677 0 0 1-.14-.32v-.18c-.06-.11-.09-.21-.12-.28 0-.03-.02-.06-.03-.09-.06-.08-.12-.16-.15-.26-.03-.09-.05-.18-.07-.27 0-.03-.03-.15-.04-.19v-.17s-.05-.05-.07-.1c-.06-.13-.08-.27-.11-.39-.01-.05-.02-.11-.03-.15 0-.04-.02-.07-.02-.11v-.49s-.06-.1-.08-.15c-.05-.1-.1-.19-.12-.27a.401.401 0 0 1-.03-.15v-.25s-.09-.11-.12-.2a.652.652 0 0 1 0-.46.35.35 0 0 1-.06-.14.64.64 0 0 1-.02-.3.666.666 0 0 1-.06-.12c-.01-.04-.02-.08-.02-.12v-.18c-.05-.12-.1-.29-.14-.41-.01-.04-.02-.08-.02-.12v-.36c-.07-.24-.15-.55-.09-.85 0-.03-.03-.19-.11-.44a.699.699 0 0 1 .01-.44.524.524 0 0 1-.1-.18c-.08-.23-.03-.47 0-.61a.593.593 0 0 1-.04-.37c-.01-.02-.03-.05-.04-.08-.08-.21-.01-.38.02-.46 0-.02-.03-.13-.06-.21l-.05-.14s-.01-.07-.02-.11v-.55c-.1-.35-.08-.82-.04-1.12-.06-.15-.14-.37-.05-.62v-.01a.682.682 0 0 1-.09-.34c0-.08.02-.16.06-.23-.02 0-.03-.08-.05-.13-.03-.15-.07-.32-.04-.5.01-.1.05-.2.09-.29.02-.04.03-.08.04-.11-.06-.09-.08-.14-.1-.19-.04-.15-.01-.3 0-.37.02-.1 0-.21 0-.32 0-.13-.02-.27 0-.41l-.04-.5v-.11c.01-.07.03-.13.05-.18a.554.554 0 0 1-.02-.4s0-.02-.01-.03c-.12-.29-.08-.69-.03-.88 0 0 .08-.25.09-.3a.567.567 0 0 1-.08-.25c-.02-.21.02-.47.05-.67l.02-.11s-.02-.12-.03-.17c-.04-.16-.08-.35-.04-.56.05-.32.06-.53.04-.89 0-.1.03-.21.09-.29-.03-.09-.04-.2-.04-.31 0-.07.02-.15.05-.21H.18c-.01 0-.02-.03-.02-.06-.02-.13-.04-.3 0-.49.02-.07.05-.12.08-.17l-.02-.24v-.11c.02-.1.06-.19.09-.24 0 0-.01-.11-.02-.19-.02-.14-.04-.29 0-.46.01-.07.03-.17.04-.26.02-.12.03-.24.05-.33v-.19c-.01-.15-.03-.4.14-.61.03-.15.08-.27.12-.37l.04-.1a.44.44 0 0 1 .36-.28c-.03-.01.05-.09.18-.15a.32.32 0 0 1 .14-.03l.55-.03c.07 0 .13.02.19.05 0 0 .3.15.31.16.04 0 .14-.02.15-.02.14 0 .27.07.35.18.08.12.12.23.14.36.23.07.48.22.5.6 0 .1-.02.2-.08.28-.02.03-.05.07-.07.11.05.12.07.24.08.33.02.12 0 .34-.09.43-.03.03-.07.07-.11.09.04.05.08.14.09.2.03.13 0 .29-.09.39a.613.613 0 0 1-.07.55v.12c0 .14.01.38-.15.57.03.07.06.16.07.26 0 .08 0 .16-.04.23.02.12.09.35.12.45.03.08.05.14.06.19.04.17-.02.35-.16.46 0 .03 0 .05.01.08 0 0 .08.14.09.17.04.04.1.21 0 .44 0 .02.01.04.02.06v.16l-.08.35c-.05.13-.11.22-.17.28v.06c.07.06.14.14.18.27s.02.25-.06.38v.04c.02.07 0 .13-.01.2 0 .02-.02.05-.04.08.06.08.13.21.14.39 0 .12-.03.23-.11.32 0 0 0 .02-.01.03l.03.26.03.38s0 .09-.01.14c0 .03-.02.06-.03.09.05.14.02.28 0 .34 0 .01 0 .02-.02.04 0 .02.01.03.01.04.02.06.02.15.01.23.09.24.18.49.12.76v.03c.12.39-.01 1.02-.07 1.18 0 0 0 .02-.01.02.02.05.04.1.04.16a.8.8 0 0 1-.08.33c.1.14.12.35.03.59v.09l.04.04c.04.05.09.15.1.21.02.07.02.14 0 .21.06.08.1.18.11.26.02.12 0 .24-.07.33.06.1.08.24.09.3.01.09 0 .18-.05.26.04.07.07.16.08.27 0 .06 0 .11-.02.16.04.12.08.28.03.45.02.04.04.08.05.12.03.12.02.24-.04.34.04.13.07.32-.03.52.06.11.09.25.1.32V42.49c.17.22.13.48.02.7.07.06.12.15.16.25.07.2.05.44-.05.64v.02c.04.05.1.13.13.25.03.11.01.23-.05.33 0 .01-.01.03-.02.04v.02c.17.12.22.29.24.41.01.09 0 .18-.05.26v.04c.12.08.21.22.23.47 0 .05 0 .1-.01.15.05.16.03.29 0 .38.09.18.2.4.12.63 0 .03-.02.06-.03.08.02.05.04.11.04.18.03 0 .15.12.19.36v.12c.01.03.03.05.03.06.05.07.06.16.05.24.03.04.07.1.09.17l.03.12c.08.05.15.12.19.21.12.15.08.38.06.46 0 .04-.02.08-.04.12.08.19.13.43.14.57.09.08.15.19.16.31v.27c.2.17.2.37.18.48.04.06.08.13.1.22.12.05.25.13.29.23.04.09.07.18.1.27.02.05.03.1.05.15.07.05.16.13.21.26.04.12.05.22.03.3.02.02.04.04.04.05.07.09.11.2.13.31.08.04.16.1.21.17.06.1.13.2.16.33 0 .03.01.05.01.08.03.02.05.04.06.05.09.11.12.23.13.32.08.05.16.13.22.24.02.04.03.09.04.12.02.01.05.03.07.04.08.07.16.19.17.3v.03c.05.04.1.08.13.14.02.03.04.11.06.17.03.03.06.06.07.09.06.13.07.25.06.34s.05.04.08.07c.14 0 .27.07.35.18.09.09.14.14.17.19.06.08.09.16.1.21 0 0 .04.03.07.05.08.07.18.15.27.27a.3.3 0 0 1 .04.08c.08.06.13.14.16.23l.11.07s.06.05.09.08c.12.1.2.16.27.24.01.02.04.06.06.09.07.05.18.14.21.21l.02.04.12.08s.08.06.11.1c.08.11.11.21.13.28.11.04.24.09.34.22 0 0 .07.08.12.2.03 0 .06.02.08.03.07.02.15.08.21.18.11.02.28.07.41.24.09.13.12.26.14.35l.06.1s.09.05.12.07l.05.05h.11c.19 0 .34.09.43.14h.07c.04 0 .07 0 .1.02.15.05.28.13.39.2.05.03.1.06.14.08h.13c.13.03.21.06.26.09h.19c.08.02.17.02.26.02.11 0 .21.01.32.03.19.03.34.18.37.38v.03a.505.505 0 0 1 .32.43c.03.14.04.2.05.3.02.19-.09.38-.27.45-.16.11-.39.12-.6.12l-.16-.43v.43h-.13c-.03 0-.15.02-.18.02-.1 0-.18-.02-.23-.04 0 .03-.11.08-.28.08h-.12zm59.87-10.94c-.13 0-.24-.04-.31-.06l-.15-.02c-.18 0-.31-.06-.41-.12-.06.02-.13.04-.21.05h-.04c-.07 0-.13-.02-.19-.05a.716.716 0 0 1-.26-.1c-.03-.02-.13-.13-.16-.16a.568.568 0 0 1-.18-.34c0-.12.01-.22.03-.28-.05-.15-.15-.44-.01-.72.05-.14.14-.22.19-.27l.06-.11c.14-.28.38-.74.9-.8h.1s0-.01.01-.02c.06-.06.12-.12.19-.17.09-.07.19-.11.25-.13.05-.06.15-.25.4-.33.09-.22.28-.55.42-.64.04-.03.09-.04.14-.05l.06-.06c.06-.07.15-.12.25-.13h.03l.05-.05c.11-.29.34-.53.51-.7l.08-.09.13-.2c.04-.05.08-.1.14-.13.03-.06.07-.12.14-.18.04-.03.09-.06.15-.07.11-.04.26-.32.34-.46.05-.09.1-.18.14-.24a.27.27 0 0 1 .07-.08l.23-.22s.01-.04.03-.07c.14-.25.24-.42.39-.53.02-.08.06-.15.11-.2.04-.04.09-.08.16-.12.02-.1.05-.22.12-.33.02-.03.04-.06.06-.08l.13-.13c.02-.07.04-.15.06-.18a.56.56 0 0 1 .18-.16c0-.02.02-.07.05-.12.02-.03.05-.06.08-.08 0-.12.07-.22.16-.3 0-.06.02-.15.07-.25.07-.13.18-.23.28-.32v-.13c0-.09.02-.18.08-.26.02-.08.05-.15.1-.23.01-.02.02-.04.04-.05l.02-.17c.06-.18.1-.26.15-.34a.59.59 0 0 0 .08-.16c.01-.05.01-.14.02-.23 0-.15 0-.31.06-.49.01-.04.06-.12.1-.17-.05-.17-.1-.32-.06-.51.03-.15.03-.38 0-.46-.09-.16-.13-.24-.16-.32a.8.8 0 0 1-.02-.4c-.15-.15-.3-.34-.32-.51l-.01-.13a.662.662 0 0 1-.27-.42c-.11-.12-.2-.26-.25-.38 0 0 0-.02-.01-.04-.04-.02-.08-.04-.09-.06-.05-.05-.08-.1-.11-.14-.12-.06-.23-.12-.31-.23 0 0 0-.01-.01-.02-.01 0-.21-.09-.21-.09-.08-.04-.17-.08-.25-.11l-.2-.02c-.17-.05-.24-.1-.29-.13h-.15c-.12 0-.23.02-.28.03-.04 0-.07.01-.11.01h-.27c.04 0-.01.03-.07.05-.06.03-.11.05-.17.07-.15.05-.29.05-.4.06-.07 0-.12 0-.16.01-.07.02-.13.05-.2.08-.16.07-.36.16-.61.18h-.04c-.04 0-.07 0-.1-.01-.05.03-.11.05-.18.06a.46.46 0 0 1-.18.1c-.02 0-.06.03-.12.07-.08.05-.19.13-.33.17-.04.01-.08.02-.12.02h-.07c-.12.17-.32.34-.65.38h-.13l-.02.02c-.04.03-.12.06-.18.09a.8.8 0 0 1-.48.28c-.03.05-.06.09-.08.13-.19.32-.34.47-.65.52-.03.04-.06.07-.09.1-.09.1-.24.18-.38.18h-.07c0 .02-.01.03-.02.05-.07.14-.17.22-.25.26-.02.09-.1.28-.34.38-.06.02-.13.04-.17.05h-.05a.68.68 0 0 1-.29.37c-.03.02-.08.03-.13.05-.06.12-.12.21-.22.3-.06.05-.12.08-.18.11l-.08.07c-.05.06-.16.15-.23.17h-.05c-.1.25-.31.34-.48.36-.1.21-.31.35-.46.45-.03.02-.05.04-.08.05 0 .06-.02.11-.03.15-.05.17-.19.28-.35.31-.12.19-.25.37-.5.42h-.09c-.05.08-.13.13-.21.16-.13.09-.23.16-.38.2-.04.01-.13.02-.17.02-.23 0-.48-.11-.76-.25l-.1-.05s-.1.04-.16.04a.93.93 0 0 1-.34-.08h-.19c-.04 0-.08 0-.11-.02-.11-.03-.38-.15-.44-.24-.12-.19-.14-.22-.23-.3s-.15-.18-.16-.3c-.03-.2-.05-.3-.03-.41 0-.01 0-.03.01-.05-.14-.19-.21-.43-.23-.61-.01-.11.01-.22.08-.3-.02-.03-.03-.06-.04-.09a.769.769 0 0 1 0-.48c-.09-.07-.19-.18-.2-.3-.03-.34-.06-.83-.02-1.17l-.03-.31v-.13l.05-.21v-.1a.929.929 0 0 1-.03-.43c0-.06.03-.13.06-.19.02-.08 0-.17 0-.23a1.23 1.23 0 0 1-.01-.43c.03-.13.08-.23.13-.3a.621.621 0 0 1-.02-.45c0-.01-.01-.03-.02-.04a.415.415 0 0 1-.03-.16c.01-.44.02-.48.03-.52 0-.03.05-.11.07-.17v-.15-.13c0-.03.03-.08.06-.12a.673.673 0 0 1-.05-.4s.03-.27.03-.31l-.02-.36V31c.03-.14.1-.25.15-.32l-.03-.26v-.15c.04-.15.11-.26.18-.36 0-.01.02-.03.03-.04v-.11c0-.05 0-.1.01-.15a.46.46 0 0 1 .09-.17.592.592 0 0 1-.09-.46c.03-.19.06-.38.08-.57.06-.4.11-.79.2-1.18.01-.06.04-.11.07-.16 0-.04-.02-.09-.02-.14 0-.09.02-.18.07-.26 0-.05.02-.12.05-.2v-.13-.12c0-.1 0-.24.04-.37.02-.09.06-.19.1-.29.01-.03.03-.06.04-.09v-.03c-.12.09-.24.18-.42.19-.08.08-.17.13-.27.16-.1.19-.21.28-.36.4l-.09.07-.07.07c-.11.11-.26.27-.58.32-.02.05-.04.11-.07.15 0 .01-.06.08-.07.09-.08.09-.2.14-.32.14-.09.1-.2.2-.32.26-.03.12-.11.24-.22.29 0 0-.08.04-.09.04l-.09.09s-.08.08-.13.11c-.14.08-.28.1-.4.12h-.06c-.02.03-.05.07-.08.09-.05.04-.1.07-.14.1-.02.07-.07.19-.19.28-.04.03-.08.05-.12.06l-.1.03s-.03.04-.04.05c-.07.07-.2.13-.3.15l-.04.04c-.01.08-.04.18-.1.27-.11.18-.28.26-.38.31l-.07.07-.05.09a.49.49 0 0 1-.12.13c-.1.07-.2.1-.27.11-.04.04-.1.08-.18.11-.01.12-.08.24-.19.31-.01.02-.06.08-.14.12-.02.01-.05.02-.08.04-.02.03-.04.05-.07.07v.14c0 .02-.02.05-.03.07-.07.21-.21.3-.34.33-.05.03-.11.05-.17.05-.03.04-.06.08-.11.11-.06.04-.19.09-.26.1h-.06a.47.47 0 0 1-.26-.08c-.04.03-.13.06-.25.07h-.04c-.12 0-.24-.05-.32-.14l-.05-.05-.34-.04c-.12-.03-.75-.29-.94-.65-.22-.36-.01-.71.06-.83 0-.14.01-.29.11-.45.09-.15.22-.23.3-.28.1-.16.18-.3.31-.41.03-.02.13-.08.16-.1-.02-.02.04-.14.17-.24.05-.03.1-.05.15-.07h.01c.04-.09.06-.15.1-.2s.13-.13.2-.17l.35-.41.25-.2c.18-.14.36-.28.55-.4l.17-.07c.02-.07.08-.17.18-.25.02-.02.05-.03.07-.04.1-.13.37-.38.49-.45.04-.02.08-.04.13-.05.01 0 .05-.04.07-.06.08-.08.19-.18.33-.25.04-.02.08-.03.12-.04.07-.05.12-.11.2-.17.03-.02.06-.04.1-.05l.1-.04c.13-.14.24-.24.39-.31.05-.03.11-.04.15-.06a.42.42 0 0 1 .2-.3c.04-.03.1-.09.19-.12.03-.01.1-.03.16-.03l.07-.07c.05-.05.11-.09.18-.12l.02-.03s.05-.07.09-.09a.87.87 0 0 1 .14-.08l.04-.04s.05-.05.08-.07c.07-.05.14-.07.2-.08l.09-.12s.07-.08.12-.11a.61.61 0 0 1 .25-.08c.11-.15.27-.19.34-.21-.01-.03.06-.11.16-.16h.01c.05-.08.12-.16.24-.21.05-.02.16-.04.22-.05l.03-.03c.03-.02.09-.05.14-.08.02-.05.11-.16.26-.22.05-.02.17-.04.24-.05l.02-.02c.09-.08.22-.19.41-.25a.49.49 0 0 1 .12-.15c.1-.06.17-.09.32-.11h.03c.15-.16.34-.25.48-.31.1-.04.2-.09.22-.13s-.01-.03-.01-.07c0-.11 0-.26.06-.42.03-.07.06-.12.1-.17v-.19c-.01-.05 0-.1 0-.15.04-.14.13-.23.19-.29-.03-.03-.04-.14 0-.27.03-.1.08-.17.11-.23 0-.1.01-.2.05-.32.02-.08.06-.14.09-.18v-.13c.06-.24.14-.34.19-.39.09-.22.22-.56.71-.59h.03c.1 0 .19.03.27.09-.01-.01 0-.02.02-.02h.04c.16.02.46.05.62.3h.07c.13 0 .26.06.34.17.07.07.14.16.17.35v.14c.02.02.03.04.04.07.04.06.06.14.06.21.01.02.03.03.04.05.03.04.05.08.07.14s.02.03.02.04c.1.09.12.18.1.32v.02h.04c.04-.04.1-.08.18-.11.05-.02.19-.05.25-.05h.08c.06-.07.17-.16.33-.21.04 0 .12-.02.16-.02.1 0 .18.02.24.04 0 0 .15-.02.17-.02.08-.06.25-.13.35-.13.07 0 .14.01.19.03.03-.01.06-.03.1-.04s.16-.03.2-.03c0 0 .59.01.8.25h.07c.09 0 .19.03.26.09.27.04.44.25.45.61.12.11.21.28.21.55 0 .1-.04.21-.1.29-.07.08-.18.15-.29.17h-.22c-.09.11-.19.21-.34.27-.05.02-.1.03-.14.03h-.14c-.22.06-.52.16-.69.23-.01.04-.03.07-.05.11-.03.05-.07.09-.11.12a.81.81 0 0 1-.21.1c-.03 0-.07.01-.1.01a.6.6 0 0 1-.19.16.96.96 0 0 1-.28.07c-.09 0-.16-.02-.21-.04-.02.02-.05.03-.07.05-.09.06-.19.13-.29.18-.03.04-.06.08-.11.11-.15.13-.29.23-.55.26-.03.06-.16.21-.44.24h-.04c-.03.03-.06.06-.09.08-.09.06-.18.11-.25.14q-.09.05-.12.1c.03.07.04.23-.04.38-.02.04-.05.08-.09.11.04.23.01.48-.06.67-.04.11-.1.2-.17.27.04.24-.06.44-.12.58.03.08.04.16.04.23 0 .12-.04.24-.13.33l-.09.09c.01.05.02.11.03.18 0 .1-.02.19-.08.27-.05.08-.13.23-.18.35.14.25.16.55.17.75 0 .14-.05.28-.16.37.02.18.01.41-.14.63l-.02.02c.05.25.02.49 0 .59-.03.16-.08.34-.18.49v.07c0 .12-.03.33-.11.41.01 0 .01.05.01.09 0 .12 0 .31-.09.47.03.05.06.1.07.16.11.26 0 .51-.06.63-.02.1-.08.19-.16.26.01.04.02.08.03.11.01.07 0 .14-.02.2.09.06.16.16.18.27s0 .22-.05.31c-.02.03-.03.06-.05.08.02.06.03.12.04.2.01.12-.03.24-.11.33.02.1.03.21 0 .32-.01.08-.04.14-.07.19v.27l.04.12s.02.1.02.15c0 .07-.02.17-.04.26.04.08.04.16.05.21.01.15-.05.3-.17.39 0 0 0 .02-.01.03-.02.06-.05.11-.07.15.03.06.04.14.05.23 0 .07 0 .15-.04.21 0 .05.01.11.02.12 0 .06 0 .12-.02.17.03.06.05.12.06.2.07.08.12.18.15.29.03.12 0 .24-.06.34.03.06.04.13.05.19l.09-.14a.4.4 0 0 1 .19-.15l.1-.08s.05-.06.08-.08c.01-.02.02-.05.03-.06a.5.5 0 0 1 .17-.16l.01-.02s.25-.34.52-.43c.02 0 .03-.01.05-.01.06-.12.14-.23.27-.3.02 0 .03-.02.05-.02.02-.07.07-.17.17-.25.09-.08.19-.11.24-.12 0-.01.06-.09.18-.15.06-.03.11-.04.16-.05 0 0 .1-.15.13-.18.08-.1.2-.15.33-.15h.04v-.02s.03-.08.06-.12c.16-.26.87-.6 1.08-.63h.01c.02-.07.05-.14.11-.19.08-.1.18-.24.37-.3.04-.01.16-.03.21-.03.06 0 .11 0 .16.02.07-.15.21-.33.5-.36.03 0 .07-.01.1-.02.05-.07.11-.14.21-.2.05-.03.1-.04.16-.05l.19-.02s.12-.15.29-.19c.04 0 .13-.02.17-.02h.06c.06-.08.14-.17.28-.22a.926.926 0 0 1 .4-.03s0-.01.01-.02c.09-.1.22-.16.4-.22.03-.01.07-.02.11-.03l.4-.04c.08-.04.19-.08.35-.08.02 0 .12 0 .14.01.47-.11.74-.17.91-.17.03 0 .11 0 .13.01.04 0 .1.03.15.04.06-.02.13-.04.22-.04.03 0 .11 0 .14.02.05.01.09.03.12.05.06-.01.12-.03.18-.03.03 0 .1 0 .13.01.08.02.16.04.24.07.06.02.13.04.19.05h.39c.18.05.3.15.37.21.01.01.07.01.12.01.13 0 .29 0 .43.06.11.03.3.1.43.19l.1.09c.13 0 .26.02.4.1.1.06.17.14.21.2.04.01.09.03.14.06.13.07.21.17.28.26l.02.02h.04c.08 0 .21.04.28.08.05.03.4.29.48.41.05.08.08.15.1.21.03.01.07.03.11.05a.6.6 0 0 1 .21.22c.07.03.15.08.22.17.1.14.12.28.13.36.06.12.11.18.14.26.02.05.03.09.04.13.09.03.19.08.24.15.19.27.23.56.26.86v.11c.03.05.05.1.07.16s.02.13 0 .19c.04.03.08.08.11.13.08.13.17.35.16.56v.02c.04.06.08.16.1.29.01.1 0 .19-.06.27.02.07.03.13.04.17.05.08.1.18.1.25v.17c.05.08.06.17.06.26.03.06.06.15.08.26.01.13-.03.25-.12.34-.02.02-.04.05-.07.07 0 .08-.02.16-.06.22.02.07.03.14.03.21 0 .18-.12.34-.3.4 0 0-.01 0-.02.01l.03.06c.2.25 0 .59-.08.7a.536.536 0 0 1-.26.59.48.48 0 0 1-.17.23c-.1.07-.14.09-.17.11.03.02.01.11-.05.22-.04.07-.09.12-.13.17 0 .06-.01.12-.04.18.03.05.05.1.05.16 0 .11-.03.3-.1.38-.06.07-.14.12-.24.15 0 .01-.02.03-.03.04-.03.05-.09.08-.14.11-.04.08-.09.17-.18.24v.04c-.02.17-.1.59-.33.75-.07.05-.16.08-.26.08h-.04c-.04.06-.08.12-.13.17 0 .02.01.05.02.08a.47.47 0 0 1-.13.39c-.02.12-.08.23-.18.31-.08.06-.16.1-.22.12-.06.13-.12.26-.24.36-.03.03-.07.05-.11.07-.03.05-.08.1-.14.14v.01c-.02.1-.07.21-.15.27l-.13.11s-.01.05-.02.08c-.09.24-.29.4-.52.42a.692.692 0 0 1-.58.46c.02.05.04.11.04.16.02.14-.04.28-.14.38a.59.59 0 0 1-.35.24c-.05.07-.15.18-.32.38-.03.04-.07.07-.12.09-.02 0-.05.02-.08.03-.05.11-.15.27-.35.34-.05.02-.09.02-.14.02-.04 0-.07 0-.11-.01 0 .01-.02.03-.03.04v-.05c0 .09-.03.22-.06.28-.06.11-.16.18-.22.23a.673.673 0 0 1-.26.3c-.08.09-.18.13-.31.13-.09 0-.18-.02-.24-.03-.03.02-.07.05-.12.08-.11.05-.18.08-.26.09-.04.03-.09.07-.15.09-.09.04-.19.05-.28.05zm-48.18-2.42c-.15 0-.37 0-.54-.06l-.12-.03-.42.02c-.04 0-.08 0-.12-.02a.75.75 0 0 1-.2-.1c-.06.01-.12.02-.17.02-.08 0-.15-.01-.22-.04a.858.858 0 0 1-.2-.13c-.08.04-.13.04-.19.04a.71.71 0 0 1-.26-.04.782.782 0 0 1-.32-.24c-.08 0-.13-.01-.17-.03-.35-.1-.56-.46-.62-.81-.26-.23-.38-.56-.45-.83a.559.559 0 0 1-.01-.22.62.62 0 0 1-.08-.29c0-.06 0-.13.03-.19-.03-.1-.03-.19-.02-.27s-.04-.05-.07-.13c-.04-.14-.01-.26 0-.33l-.03-.33v-.14c0-.04.06-.15.08-.19 0-.14 0-.29.07-.46.03-.06.07-.11.1-.15-.01-.1 0-.22.02-.36.04-.23.12-.35.19-.43 0-.12.04-.24.12-.33l.08-.07c0-.04.02-.16.09-.28.03-.04.06-.08.1-.11h.02c.02-.06.06-.14.14-.22a.36.36 0 0 1 .13-.22c.02-.06.05-.12.09-.17l.17-.17c.05-.05.14-.13.17-.17.04-.1.09-.23.22-.33l.1-.08s.08-.06.1-.09c.07-.08.17-.13.27-.15.04-.06.09-.12.16-.17s.24-.09.33-.09a.8.8 0 0 1 .36-.2h.05c.02-.04.05-.08.09-.11.08-.07.18-.11.29-.11h.07c.06.01.12.03.16.05.04-.02.1-.05.15-.07.04-.07.1-.13.17-.17.01 0 .03-.01.04-.02 0-.02 0-.05.01-.07.01-.05.03-.1.05-.14l-.1-.41c-.04-.13-.04-.29-.03-.44v-.05a.524.524 0 0 1-.1-.18.68.68 0 0 1 0-.38c-.1-.3-.18-.57-.22-.86 0-.06 0-.13.01-.19-.09-.16-.07-.4-.05-.59a.593.593 0 0 1-.14-.33c0-.07 0-.13.02-.2l-.02-.07h-.1c-.04.12-.11.24-.26.33-.07.04-.2.08-.28.08h-.01c-.12.17-.29.3-.48.36-.04.01-.07.02-.11.02h-.05s-.05.06-.07.07c-.08.06-.16.1-.24.12-.01.02-.03.04-.05.06-.02.03-.11.11-.14.13-.08.05-.16.07-.22.08-.04.04-.09.08-.15.12-.06.03-.19.07-.26.07s-.04.05-.07.06c-.12.08-.24.13-.35.17-.03.01-.06.02-.09.04-.06.13-.18.24-.31.26-.07.01-.24.05-.34.07l-.12.13s-.09.08-.14.1c-.15.07-.3.1-.43.12-.09.24-.29.41-.54.44h-.02c-.02.02-.03.04-.05.06-.08.1-.21.16-.33.16-.04 0-.08 0-.12-.02-.13.14-.27.29-.37.34-.06.03-.18.05-.24.05h-.01a.54.54 0 0 1-.32.16h-.02c-.03.07-.09.13-.15.17-.04.03-.09.05-.14.08l-.1.13c-.03.05-.08.1-.13.13-.14.09-.3.11-.45.12-.01.04-.03.08-.05.13-.03.05-.06.09-.11.12a.81.81 0 0 1-.21.1c-.03 0-.05 0-.08.01-.02.06-.05.11-.08.16a.6.6 0 0 1-.19.16.72.72 0 0 1-.47.4c-.04.01-.08.02-.12.02h-.13c-.06.06-.18.12-.37.12-.02 0-.13 0-.15-.01a.408.408 0 0 1-.29-.18c-.05.06-.13.1-.2.12-.04.01-.09.02-.12.02-.15 0-.26-.07-.34-.13 0 0-.1.01-.12.01h-.08c-.22-.04-.38-.17-.48-.25-.12-.1-.2-.27-.18-.42v-.18c0-.23-.02-.71.43-.89 0 0 .02 0 .03-.01.02-.03.05-.06.08-.08.08-.06.17-.15.26-.24.13-.13.27-.28.46-.4.04-.02.09-.04.14-.05h.03s.09-.08.14-.12c.12-.1.27-.21.43-.29.02-.01.06-.02.09-.03.03-.06.07-.12.13-.17.05-.05.12-.09.19-.1l.13-.03s.08-.07.14-.1c.01 0 .03-.01.05-.02.03-.06.11-.16.25-.22.06-.03.12-.04.17-.05.05-.1.13-.19.24-.25.07-.04.12-.06.17-.07.06-.06.14-.14.26-.17.04-.01.11-.02.15-.02h.08s.02-.01.03-.02c.04-.1.1-.22.17-.26l.2-.13c.06-.04.14-.07.21-.07h.02l.27-.19c.04-.03.09-.05.15-.07l.12-.03s.1-.08.21-.12c.03-.12.11-.22.22-.28.09-.05.19-.08.29-.12.09-.03.18-.07.24-.1a.55.55 0 0 0 .09-.07c.12-.1.3-.24.52-.28h.07c.11-.09.25-.17.35-.21.02 0 .04 0 .06-.01a.67.67 0 0 1 .16-.18c.08-.06.22-.13.3-.17a.32.32 0 0 1 .14-.03h.09a.98.98 0 0 1 .23-.17l.12-.03a.55.55 0 0 1 .15-.16c.04-.02.08-.04.12-.05l.18-.05s.11-.12.22-.16.2-.05.25-.05c-.02 0 .04-.04.09-.08-.02-.01.05-.14.21-.22.09-.04.17-.06.24-.07.02-.02.04-.04.06-.05.03-.03.07-.05.11-.06.08-.07.18-.19.33-.25.04-.02.09-.03.14-.05v-.22c-.02-.09 0-.18.06-.25 0-.04-.11-.22-.16-.3a1.25 1.25 0 0 1-.16-.33.855.855 0 0 1-.01-.5c-.03-.04-.06-.08-.08-.13-.04-.04-.08-.15-.05-.3-.04-.07-.06-.14-.08-.21-.02-.09 0-.19.03-.27v-.04c-.08-.06-.18-.15-.23-.3s-.03-.27 0-.36a.827.827 0 0 1-.08-.35c-.06-.15-.09-.2-.11-.25-.05-.13-.06-.25-.07-.34 0-.04-.01-.09-.02-.1a.47.47 0 0 1-.18-.29c-.01-.05-.02-.1-.01-.16.01-.33-.02-.44-.04-.48-.03-.01-.11-.09-.16-.21a.32.32 0 0 1-.03-.14v-.08s-.04-.1-.05-.12h-.03c-.14.2-.34.4-.63.46H20.93c-.12.1-.26.2-.39.23-.03 0-.07.01-.1.01h-.07c-.03.02-.06.03-.1.04s-.07.02-.11.02h-.11c-.09.12-.22.23-.44.27H19.5c-.05.13-.16.26-.42.3h-.07c-.04 0-.08 0-.12-.02-.03.05-.07.1-.12.13-.06.04-.12.06-.17.08-.05.07-.14.18-.31.24-.05.02-.1.03-.15.03l-.16-.01c-.06.04-.12.07-.16.09l-.04.04-.08.11a.36.36 0 0 1-.21.15l-.19.06c-.13.15-.29.32-.57.37-.03.05-.07.09-.13.13-.09.08-.22.13-.37.13h-.09a.61.61 0 0 1-.21.12c-.02.06-.04.11-.09.17l-.02.02c.01.05.02.14-.02.24-.03.16-.16.32-.32.41-.17.14-.4.16-.58.16h-.05c-.07.07-.19.13-.28.14h-.15c-.22 0-.4-.05-.53-.15-.01-.01-.03-.02-.04-.03-.14.04-.27.05-.32.05-.08 0-.23-.03-.29-.07h-.02c-.11.03-.21.03-.28.03-.1 0-.2-.04-.28-.1-.03-.02-.08-.05-.13-.08-.09-.05-.21-.11-.33-.21a.414.414 0 0 1-.15-.29c-.04-.53.04-.72.25-1.02l.05-.09c.07-.13.18-.29.43-.35.02-.03.05-.06.08-.08.11-.11.25-.26.51-.3h.11c.04-.07.1-.13.17-.17 0 0 .05-.03.08-.04a.44.44 0 0 1 .38-.27h.1a.4.4 0 0 1 .15-.19c.11-.08.21-.16.35-.21.05-.02.09-.03.13-.03.09-.18.24-.28.47-.33h.14c.07-.05.13-.08.19-.09l.09-.14s.07-.08.11-.11a.68.68 0 0 1 .38-.11h.11c.02 0 .13-.05.18-.07.05-.1.19-.3.44-.33.08-.12.21-.19.36-.19.02 0 .08 0 .1.01a.53.53 0 0 1 .15-.08c.02-.02.09-.13.26-.21.1-.05.22-.07.34-.07.1-.17.27-.32.6-.35h.12a.96.96 0 0 1 .32-.18c.04-.01.09-.02.13-.02h.03c.06-.04.12-.08.15-.09.05-.02.11-.03.17-.03.03-.03.06-.07.11-.1.04-.03.08-.05.13-.06s.01-.01.02-.02c.15-.15.33-.2.49-.22.05-.06.11-.1.18-.13.05-.03.54-.23.58-.24.04 0 .1-.02.14-.02h.03c.02-.02.04-.03.05-.04.18-.12.64-.25.84-.26h.08c.08-.09.19-.16.33-.19.04 0 .09-.02.12-.02h.08c.11-.09.25-.13.43-.13h.03c.02-.02.05-.04.08-.06a.94.94 0 0 1 .52-.17c.05 0 .12-.01.14-.02.06-.04.13-.09.21-.12l.71-.12s.08-.07.16-.11c.05-.02.1-.03.15-.03h.11c.04-.04.11-.1.22-.13.04-.01.15-.03.19-.03s.08 0 .12.01c.09-.07.2-.12.34-.12.04 0 .16.02.19.03.04-.03.11-.07.15-.08a.69.69 0 0 1 .25-.04h.13c0-.01.07-.05.15-.08s.18-.04.29-.04c.08 0 .17 0 .25.02.09-.06.2-.12.32-.16.04-.01.09-.02.13-.02l.32.02c.07-.04.18-.1.34-.11h.04c.07 0 .15.02.21.06.03 0 .06.02.1.04.11-.06.25-.09.44-.09h.01c.07 0 .14.02.21.05.01 0 .03.01.04.02.06-.03.12-.04.19-.05h.05c.12 0 .22.05.3.13h.05c.04 0 .08 0 .11.02l.55.15c.07.02.14.06.19.11.12.12.17.27.18.38.03.02.06.05.09.08.18.21.4.51.44.92a.44.44 0 0 1-.1.32c-.08.09-.21.17-.33.17-.1.08-.21.18-.41.23-.04 0-.07.01-.11.01a.432.432 0 0 1-.34-.17c-.05.01-.1.02-.13.02-.08.03-.18.04-.27.04-.21 0-.34-.09-.42-.15l-.26.04h-.15c-.09.06-.2.1-.35.11h-.02c-.04 0-.08 0-.12-.02-.08.01-.22.05-.31.08-.19.05-.35.1-.49.1s-.08 0-.12-.02c-.11.05-.23.08-.32.1-.07.01-.12.03-.17.05-.2.09-.36.16-.53.21-.02 0-.08.01-.1.02l-.32.03c.03 0 0 .02-.03.04-.07.04-.13.07-.19.1-.03.01-.07.02-.11.03l-.2.02c-.06.04-.13.09-.23.11-.03 0-.1.02-.13.02h-.05c-.08.08-.19.12-.3.12h-.03c-.03 0-.15-.03-.18-.03-.01 0-.09.06-.16.11-.13.08-.27.17-.44.23-.14.05-.29.07-.44.08v.02c.02 0 .04.01.05.02.11.07.17.18.21.25.09.04.19.11.25.23.03.06.05.12.05.18.05.14.05.27.04.38.14.11.27.28.27.59 0 .07-.02.15-.05.21.08.14.08.3.08.39v.08c.03.03.06.07.09.1.1.11.21.22.26.38.08.27 0 .46-.08.58.08.04.16.11.21.21.13.18.14.37.12.49.04.03.08.07.11.12.07.11.11.24.13.34.02.08.02.17 0 .26.07.1.14.21.19.28h.09c.11-.13.25-.17.34-.2.03-.04.07-.07.12-.09.12-.07.25-.08.34-.09.13-.17.33-.18.4-.19h.04c.07 0 .13.02.19.04.06 0 .13.02.15.03.05.02.09.04.13.06.04-.02.09-.03.14-.04h.07c.14 0 .28.07.36.19.07.11.1.2.11.29.12.08.19.2.22.36.02.02.04.04.06.07.08.14.11.26.11.4 0 .15-.06.29-.19.38 0 0-.08.05-.09.05-.06.12-.13.29-.32.4-.12.07-.24.1-.34.12h-.02c-.04.1-.1.2-.21.29-.09.07-.2.11-.36.17-.04.01-.09.03-.14.03h-.01s-.01 0-.02.01c-.08.06-.16.09-.22.11a.605.605 0 0 1-.41.33c-.03.06-.08.12-.15.18 0 .03 0 .05-.02.08 0 0-.03.09-.04.1a.64.64 0 0 0-.05.17c.03.01.07.06.1.15.02.01.05.03.07.04.08.07.15.17.16.27 0 .04.01.08.02.13.02.01.03.03.04.05.02.02.07.08.12.16.07.12.07.23.08.3 0 .06 0 .13-.03.18.18.46.24 1.15.24 1.15 0 .11-.03.21-.09.29.01.05.02.1.02.15.01.02.02.04.04.05.07.07.1.2.12.33l.07.07c.1.12.11.25.12.32 0 .09 0 .17-.05.25.03.06.05.13.07.2.01.07 0 .15-.01.22.01.06.03.14.01.23h.05c.02-.02.12-.06.25-.06.04 0 .13.01.17.02.05.01.1.03.13.05l.23-.01c.03 0 .06 0 .09.01.11.02.19.07.26.1l.3-.04h.14c.1.02.17.06.23.09.02 0 .05-.01.06-.01.05 0 .51.01.56.02.18.03.39.08.58.13l.15.04h.08l.19-.01c.18.03.28.07.38.11.04.02.08.03.12.05l.32-.02c.03 0 .06 0 .09.01 0 0 .6.14.72.16l.1-.02h.14c.1.02.18.06.24.1H33.24l.3.06s.1-.02.11-.02c.03 0 .07 0 .1.01.12.03.21.09.28.13.06.03.11.04.16.05.12.02.27.05.42.14.03.02.06.04.09.07l.05.05c.06 0 .16.02.22.05.04.02.08.04.11.08.04.04.12.14.2.26h.05c.06 0 .12.01.18.04.03.01.12.07.14.09.14.11.22.31.17.48-.01.05-.05.12-.07.16 0 0-.04.05-.07.08 0 .14-.07.28-.19.36-.21.14-.46.15-.65.16h-.22c-.08 0-.14-.01-.2-.03-.06.02-.13.03-.2.03-.13 0-.26-.03-.34-.05h-.27c-.04 0-.23-.06-.26-.06l-.23.02h-.08l-.1-.02c-.04 0-.08-.02-.1-.02-.06.01-.12.02-.17.02-.17 0-.3-.07-.37-.11l-.27.01c-.04 0-.07 0-.11-.01-.13-.03-.29-.06-.45-.09l-.26-.05h-.12c-.06 0-.15 0-.25-.04a.45.45 0 0 1-.14-.07H30.48c-.15-.03-.32-.05-.49-.08a5.84 5.84 0 0 1-.5-.08h-.14l-.22.01c-.21-.04-.3-.08-.36-.12-.02 0-.17.02-.17.02-.11 0-.19-.02-.27-.05l-.35.02v.02c.12.17.09.37.06.52.15.24.12.5.09.64-.01.09-.02.15 0 .19.07.27.12.49.05.69a.42.42 0 0 1-.09.14v.11c.05.08.09.2.1.35 0 .1-.03.2-.1.28-.02.04-.05.09-.09.14.06.09.09.17.1.31.01.12-.03.23-.1.32-.06.07-.14.12-.23.15-.01.04-.03.09-.06.13.06.11.1.19.11.35 0 .09-.01.18-.06.26-.03.06-.07.11-.12.15 0 .07-.02.14-.05.2v.02c0 .13-.04.3-.14.38-.07.1-.15.23-.31.32 0 .11-.04.22-.12.3-.07.1-.16.16-.28.2-.04.08-.11.15-.2.2-.05.03-.16.07-.22.07h-.06c-.04 0-.09 0-.13-.02-.04.08-.1.15-.15.18-.08.04-.28.09-.43.13-.01 0-.02.02-.04.03-.2.16-.54.24-1.02.24zm-.81-2.36c.07-.08.17-.16.31-.2h.02c.12-.15.29-.32.45-.46.01-.11.04-.22.1-.32 0-.01.02-.03.04-.05v-.08s0-.07.02-.11c.04-.12.09-.23.14-.32.03-.05.05-.1.07-.14a.689.689 0 0 1-.03-.44c0-.03.03-.06.05-.1-.03-.22.04-.44.11-.58a.495.495 0 0 1-.04-.28c-.05-.1-.08-.2-.09-.37v-.09c0-.04-.02-.08-.02-.13-.07.05-.16.1-.28.13h-.01s-.02.04-.04.06c0 .04 0 .09-.02.14-.07.27-.29.37-.39.41 0 0 0 .02-.03.05-.03.06-.08.12-.14.15-.01 0-.03.01-.04.02v.12c-.02.12-.09.23-.19.3.04.08.06.18.06.3 0 .14-.06.28-.18.36-.04.05-.08.11-.12.16.02.08 0 .17-.02.25v.05c.08.13.08.27.08.35 0 .06 0 .12-.03.17.01.03.02.07.02.1 0 .14 0 .23-.02.31.02.04.04.07.07.1.03.04.07.11.08.12s.04 0 .05 0zm14.7-17.79c-.16 0-.24-.01-.28-.03a.536.536 0 0 1-.2-.1h-.11c-.05 0-.18-.02-.23-.04a.749.749 0 0 1-.27-.19h-.08c-.06 0-.12-.02-.17-.05a.507.507 0 0 1-.23-.23.471.471 0 0 1-.15-.06c-.13-.07-.4-.42-.41-.44a.968.968 0 0 1-.08-.24c-.01 0-.06-.05-.1-.09-.07-.08-.14-.16-.2-.24-.06-.09-.09-.18-.11-.24l-.11-.1s-.05-.05-.07-.08c-.11-.16-.14-.33-.16-.47 0-.03-.01-.08-.02-.11l-.03-.03c-.14-.18-.16-.29-.17-.35-.04-.11-.1-.21-.16-.31-.1-.17-.2-.34-.26-.51-.01-.04-.02-.08-.02-.12v-.06c-.07-.13-.1-.2-.12-.27a.507.507 0 0 1-.02-.13v-.35a.687.687 0 0 1-.17-.25c-.04-.1-.07-.21-.1-.32l-.04-.13s-.02-.07-.02-.11V22a1.12 1.12 0 0 1-.19-.33c-.06-.19-.06-.39-.05-.54v-.16a.587.587 0 0 1-.16-.23c-.08-.21-.05-.39-.03-.52-.03-.13-.09-.25-.1-.42 0-.08 0-.16.04-.23-.19-.26-.32-.61-.23-.99.02-.08.05-.14.08-.19l-.02-.11v-.16c0-.03.04-.1.06-.15.01-.21.08-.42.18-.59.03-.04.06-.08.1-.11l.14-.11a.38.38 0 0 1 .17-.08c.04-.02.09-.03.13-.03.11 0 .18-.01.25-.01.1 0 .25 0 .39.08.02.01.06.04.1.07.04 0 .08.01.11.01.21.02.52.06.73.38.05.07.07.15.08.22.03 0 .05.01.08.02.11.03.21.11.26.21.15.27.18.45.11.65.13.17.2.38.14.61 0 .02-.02.06-.04.1.05.2.09.41.04.61a.36.36 0 0 1-.08.15v.12c.03.03.08.1.11.19.01.04.02.07.02.11v.15s.1.1.13.2c.03.08.03.16.03.22.1.1.19.24.2.45v.24s.06.08.08.13c.06.13.07.25.07.33.04.07.17.18.21.41.02.11 0 .23-.07.32 0 .01 0 .03.01.05l.04.02c.17.08.27.27.24.45 0 .03-.01.07-.01.09h.02c.1.09.16.21.17.34v.06s.04.05.05.09c.02.06.03.11.04.16a.4.4 0 0 1 .1.12c.05.05.11.12.16.2.06.12.07.23.08.29.05.07.1.14.13.22l.03.12.04.42c.05 0 .14.07.2.18.06.1.08.2.09.29.03.02.05.05.08.08.07.09.12.17.14.3.04.11.05.21.04.31.08.06.15.14.19.24.08.19 0 .42-.17.53-.01 0-.04.02-.07.04-.06.04-.18.11-.59.11zm4-.42c-.1 0-.21-.04-.29-.11a.5.5 0 0 0-.19-.12c0 .01-.09.05-.22.06h-.04c-.1 0-.19-.03-.27-.09-.06-.02-.12-.04-.19-.08-.19-.12-.48-.45-.53-.77v-.07c-.05-.08-.08-.15-.1-.2a.537.537 0 0 1-.29-.35v-.03a.517.517 0 0 1-.17-.16c-.1-.18-.14-.36-.18-.52-.02-.1-.04-.19-.07-.26-.08-.12-.13-.2-.16-.29-.05-.14-.05-.26-.06-.36v-.08a.354.354 0 0 1-.09-.16.546.546 0 0 1 0-.4c-.02-.03-.03-.07-.05-.12-.05-.17-.01-.33 0-.44 0-.01-.04-.18-.04-.19-.03-.13 0-.25.03-.33a.704.704 0 0 1-.08-.45c.01-.07.04-.16.07-.24.03-.09.01-.14 0-.17a.99.99 0 0 1-.08-.63c.03-.13.04-.19.03-.32 0-.06 0-.11.02-.17-.03-.06-.06-.12-.08-.2-.02-.12 0-.24.08-.34a.798.798 0 0 1-.02-.41c.05-.24.05-.51.04-.79 0-.29 0-.6.05-.9 0-.05.03-.1.05-.14-.07-.25-.07-.54.01-.73.04-.1.09-.17.14-.22 0-.03 0-.06-.01-.08-.02-.13-.04-.28 0-.43.07-.25.31-.68.72-.68.08 0 .2.02.32.1.04 0 .16-.02.17-.02.15 0 .29.08.36.2h.05c.17 0 .33.04.48.13.3.18.34.49.37.67 0 .07.02.13.04.17.12.04.4.2.43.69 0 .1-.02.19-.07.27.05.13.06.26 0 .39 0 .04-.04.11-.07.16-.02.04 0 .1.02.15.04.12.09.29.07.49 0 .07-.04.14-.08.19.02.08.04.16.04.24 0 .12-.03.24-.12.33 0 .01-.02.03-.04.05.03.07.05.14.06.2v.15c.04.09.07.19.04.29-.02.06-.05.12-.09.18 0 .02 0 .04-.01.05.04.08.07.19.05.34 0 .02-.02.08-.02.1s0 .06.03.09c.04.09.08.19.1.28.03.13.02.24 0 .32.02.07.03.16.01.26-.03.17-.11.45-.17.62-.01.04-.03.07-.05.1.06.12.1.28.05.44 0 .02-.01.04-.02.06.04.04.07.09.09.16.02.04.03.09.03.13v.19c.06.12.09.22.11.36 0 .09 0 .18-.05.26.02.04.04.1.05.16.09.08.18.18.22.34.02.09.01.19-.03.27.04.12.07.2.08.29 0 .07 0 .13-.02.2.11.13.21.31.22.55 0 .06 0 .11-.02.17.05.14.08.23.09.33.02.17-.07.34-.22.42v.02c-.04.21-.2.35-.43.4h-.09zM49.08 49.17c-.12 0-.24-.05-.32-.14-.08 0-.15-.02-.22-.06-.11.06-.24.12-.36.13h-.05c-.13 0-.26-.06-.34-.17l-.08-.1c-.14-.18-.32-.4-.4-.66a.746.746 0 0 1-.02-.36l-.02-.1v-.13l.02-.16c.02-.22.05-.46.12-.67.02-.08.06-.13.1-.18v-.05s0-.09.01-.13c.03-.09.07-.17.1-.25.02-.07 0-.15.02-.24a.44.44 0 0 1 .25-.35s.02-.01.03-.03c-.04-.25.06-.51.13-.7l.04-.1c.03-.12.13-.54.13-.54v-.06-.16c0-.04 0-.08.02-.12.02-.08.06-.15.09-.2v-.02s-.01-.09 0-.13c.02-.14.07-.48 0-.68a.857.857 0 0 1 0-.45.762.762 0 0 1-.13-.43c0-.04-.04-.08-.07-.1-.05-.05-.1-.1-.14-.16a.671.671 0 0 1-.08-.17c-.05-.04-.1-.09-.12-.1h-.12c-.06 0-.11 0-.16-.02-.05.03-.1.06-.17.08-.1.12-.27.21-.47.22h-.03c-.08 0-.16-.02-.23-.06 0 .03-.02.05-.03.08-.02.04-.05.07-.07.1-.12.17-.3.26-.42.32-.04.02-.07.03-.1.05l-.18.21c-.05.05-.11.09-.18.12l-.1.04c-.05.08-.11.16-.2.21-.06.03-.12.05-.19.05h-.02l-.03.04c-.03.03-.06.06-.09.08-.04.02-.08.04-.11.05-.07.18-.19.28-.31.34-.01.02-.03.05-.04.07a.69.69 0 0 1-.25.22c.01.03-.05.21-.24.32-.02.01-.04.02-.07.03a.4.4 0 0 1-.1.18.53.53 0 0 1-.28.16v.02c.03.13 0 .27-.08.37 0 .02 0 .04.01.06.02.11-.02.23-.09.32.01 0 .02.04.03.07l.02.15a.4.4 0 0 1-.16.38c0 .1-.03.2-.08.28v.02c.05.21-.06.42-.26.5-.12.05-.25.06-.37.06h-.02c-.09 0-.18-.03-.25-.08 0 .01 0 .02-.02.02a.429.429 0 0 1-.21-.09.45.45 0 0 1-.18.07h-.14c-.11 0-.44 0-.65-.25l-.02-.02a.442.442 0 0 1-.28-.22.937.937 0 0 1-.1-.36.579.579 0 0 1-.24-.21c-.16-.22-.09-.54-.04-.75.02-.08.01-.14.01-.19 0-.12-.02-.26.03-.41.03-.12.1-.21.14-.26 0-.08.01-.23.12-.38.02-.03.06-.07.11-.1 0-.03.02-.06.03-.09.04-.09.1-.16.14-.2.04-.1.09-.23.15-.27l.08-.06c.04-.13.07-.23.14-.33.1-.15.26-.24.37-.3.01 0 .03-.01.04-.02.02-.04.04-.08.04-.09.04-.07.41-.44.46-.48 0 0 .02-.01.03-.02a.559.559 0 0 1 .34-.38l.11-.03.1-.12c.14-.15.3-.32.45-.44.11-.08.23-.14.32-.18.05-.02.1-.04.15-.08.08-.08.17-.17.3-.22a.32.32 0 0 1 .14-.03h.04s.01-.02.02-.03c.09-.09.2-.19.33-.26.14-.07.27-.07.35-.08.04-.04.08-.05.13-.07s.09-.02.14-.02h.11c.03-.04.09-.08.17-.12.03-.01.08-.02.13-.03a.51.51 0 0 1 .41-.18c.1 0 .17.02.21.04.14-.05.36-.1.52-.1.04 0 .13 0 .16.02.01 0 .03 0 .04.01.06-.02.14-.04.22-.04.03 0 .11 0 .14.02.05.01.11.03.17.05.03.01.07.03.1.03h.19c.07 0 .13-.01.19-.01.09 0 .18 0 .26.03.14.04.26.11.34.17v.02l.05-.01c.04-.01.08-.02.12-.02h.07c.04 0 .13.02.53.26.15.09.25.23.33.35 0 0 .01.02.02.02h.02c.13 0 .26.06.34.17.06.08.19.25.25.29.06 0 .3.05.41.32.04.11.05.21.05.29.14.09.23.24.25.42v.1c.02.08.05.2.02.34.02.01.03.03.04.04.03.02.05.06.07.1.1.15.12.32.11.45.05.05.11.11.15.2.18.24.03.64-.09.95-.02.06-.05.12-.06.16.08.17.15.31.16.52 0 .11-.03.23-.11.31-.02.02-.04.04-.06.05.01.16-.04.31-.16.45 0 .09-.03.17-.06.23.02.05.02.1.03.15 0 .1-.02.21-.08.29.02.09.03.17.03.21 0 .09-.02.18-.08.26-.1.2-.19.39-.37.5.03.06.05.13.06.21.02.12-.01.25-.09.34s0 .05-.05.1a.43.43 0 0 1-.09.33.4.4 0 0 1-.22.14c-.03.04-.06.07-.1.11 0 .09-.03.17-.07.24-.03.11-.07.2-.13.29-.03.04-.06.08-.1.11-.03.13-.11.24-.24.31-.07.06-.32.18-.52.2h-.04z"/><path d="M46.35 41.8c-.17 0-.33-.1-.4-.27a.938.938 0 0 1-.06-.24c-.02-.19.09-.37.27-.44l.1-.05c.07-.07.12-.07.22-.07h.02c.23 0 .46.18.47.41 0 .14-.05.35-.16.44-.06.06-.16.17-.38.21h-.08zM122.16 20.77c-.22 0-.39-.11-.5-.19h-.07c-.03 0-.06 0-.09-.01-.1-.02-.25-.08-.35-.13a.637.637 0 0 1-.22-.21.559.559 0 0 1-.29-.18.784.784 0 0 1-.11-.18h-.01c-.08-.04-.29-.2-.29-.2-.11-.09-.45-.66-.55-.95a.58.58 0 0 1-.15-.13c-.17-.21-.15-.44-.13-.6-.13-.2-.23-.46-.22-.65 0-.02.01-.06.03-.1-.02-.04-.04-.09-.06-.15-.03-.13 0-.25.03-.32-.06-.34 0-.57.03-.7-.04-.01-.1-.15-.07-.34.01-.08.01-.16.01-.25 0-.17 0-.35.06-.55.03-.09.07-.16.11-.21v-.16l.04-.12c.05-.16.16-.26.21-.31 0 0 .04-.19.28-.3a.51.51 0 0 1 .22-.05c.04-.02.07-.05.09-.05a.93.93 0 0 1 .29-.05c.28 0 .54.13.71.24.03.02.05.04.07.05.04 0 .08-.01.13-.01.35 0 .74.29.89.42.13.11.18.28.14.44.08.06.16.14.21.26.03.08.05.17.06.22.01.11-.02.23-.1.32-.02.03-.05.05-.07.07.03.1.01.21-.03.3-.04.08-.11.15-.19.19a.3.3 0 0 1-.04.08c.06.12.07.25.08.4v.09c0 .02 0 .04.01.05.03.18-.06.35-.21.44v.02c.08.06.13.14.15.22l.05.26c0 .05.01.1 0 .15 0 .02-.01.06-.02.09.02.07.04.15.05.25 0 .09-.01.16-.02.21.01.01.02.03.03.05.02.03.03.07.04.1l.03.11c.06.06.12.13.16.23.05.13.08.28.1.41.22.13.29.34.29.52 0 .11-.03.21-.1.29l-.05.1c-.09.17-.17.33-.32.42-.08.06-.2.1-.33.1zM117.22 22.78a.43.43 0 0 1-.25-.07c-.02-.01-.08-.05-.14-.09h-.06c-.04 0-.11 0-.14-.02a.543.543 0 0 1-.26-.15c-.06 0-.11-.01-.16-.03a.577.577 0 0 1-.3-.27.55.55 0 0 1-.35-.12.777.777 0 0 1-.27-.43.408.408 0 0 1-.2-.13c-.08-.09-.13-.18-.17-.24-.09-.13-.14-.19-.2-.25-.13-.13-.27-.29-.36-.49l-.08-.36c-.06-.05-.14-.16-.18-.35 0-.05-.01-.09 0-.14-.03-.02-.05-.05-.07-.07-.09-.12-.12-.25-.15-.34a.84.84 0 0 0-.04-.12l-.08-.19c-.07-.17-.15-.35-.21-.51-.01-.05-.02-.09-.02-.14v-.17c-.13-.17-.29-.42-.21-.74 0-.04.04-.1.08-.16v-.1-.12c.05-.21.19-.85.83-.88h.02c.04 0 .08 0 .12.02.05-.03.11-.05.18-.05h.04c.17 0 .24.02.29.03.12.03.23.1.3.2.04 0 .09-.01.14-.01h.11l.14.04c.11.03.3.13.35.23.16.02.4.1.54.36.08.12.11.26.09.4h.04c.11 0 .22.04.3.13.13.11.31.42.26.58 0 .02-.02.05-.03.08-.04.11-.11.2-.2.26 0 .02 0 .03-.02.05-.05.1-.12.18-.19.23.09.12.16.25.21.36.02.04.03.09.03.14l.02.31c.03.08.08.2.06.35a.53.53 0 0 1 .2.36c.08.06.16.14.21.26.02.06.03.12.04.17.03.02.05.04.08.08.04.03.07.08.09.12.04.09.06.2.03.3.04.06.09.2.1.27.08.09.2.26.16.59-.02.13-.1.25-.21.32 0 .08 0 .16-.03.24-.03.07-.08.13-.14.18a.81.81 0 0 1-.21.1c-.03 0-.07.01-.1.01zM173.87 18.57c-.1 0-.15-.01-.21-.03a.429.429 0 0 1-.31-.41c0-.14.03-.22.07-.31.07-.15.22-.25.39-.26.1 0 .19 0 .29.06.18.08.33.28.3.47-.04.22-.15.32-.24.38-.08.08-.16.11-.28.11h-.01z"/><path d="M173.53 19.43c-.11 0-.25-.04-.33-.11-.08-.08-.17-.19-.18-.3 0-.06 0-.15.04-.25.02-.06.05-.11.09-.16.08-.08.18-.15.3-.15h.02c.2 0 .42.14.46.34l.03.12c.03.12 0 .25-.08.35s-.19.16-.32.17h-.02zM172.12 21.2c-.1 0-.15-.01-.22-.03a.429.429 0 0 1-.31-.4c0-.16.02-.25.07-.36a.42.42 0 0 1 .37-.24h.02c.16 0 .37.09.44.23.13.21.09.4.03.51-.05.19-.2.3-.4.3z"/><path d="M178.02 28.74c-.08 0-.17 0-.27-.03a.37.37 0 0 1-.18-.08h-.13c-.09 0-.17-.03-.24-.08-.02-.02-.09-.03-.16-.04-.1-.02-.2-.04-.31-.08a.683.683 0 0 1-.21-.12c-.04-.02-.09-.03-.13-.04-.11-.01-.27-.03-.43-.12a.284.284 0 0 1-.1-.09c-.15-.03-.27-.06-.39-.13a.468.468 0 0 1-.16-.15.569.569 0 0 1-.41-.29.234.234 0 0 1-.05-.1.74.74 0 0 1-.28-.21c-.03-.04-.05-.08-.07-.12a.65.65 0 0 1-.23-.09c-.09-.05-.55-.55-.65-.75a.79.79 0 0 1-.3-.27.836.836 0 0 1-.07-.16l-.16-.13-.13-.12s-.05-.06-.08-.09a.774.774 0 0 1-.53-.48c0-.01 0-.03-.01-.04l-.12-.09s-.06-.05-.08-.08c-.04-.06-.07-.11-.1-.16-.03 0-.07-.02-.11-.04a.57.57 0 0 1-.26-.28c-.04-.01-.07-.03-.11-.04-.16-.08-.23-.22-.26-.28-.09-.02-.15-.05-.21-.08-.14-.1-.21-.23-.25-.3a.793.793 0 0 1-.09-.04c-.12-.08-.18-.18-.23-.25-.08-.03-.19-.06-.29-.12-.13-.09-.3-.26-.4-.45-.12-.03-.21-.1-.28-.15-.03-.02-.08-.06-.1-.06-.15-.05-.26-.18-.28-.34s-.04-.03-.07-.05a.499.499 0 0 1-.18-.34c-.02-.27-.03-.38 0-.48.02-.09.07-.16.1-.21v-.18s.01-.08.02-.12c.1-.33.28-.53.44-.71.04-.05.11-.1.19-.14a.42.42 0 0 1 .14-.18c.11-.08.24-.22.36-.4.02-.03.05-.06.07-.08l.08-.07c.02-.06.06-.12.12-.17a.36.36 0 0 1 .1-.07c0-.02.01-.04.02-.05.09-.17.28-.39.43-.5.03-.02.06-.04.09-.05.08-.08.14-.19.23-.27.03-.11.09-.21.19-.27.04-.03.08-.05.12-.06.1-.21.26-.34.39-.46.04-.03.09-.07.12-.1 0-.04.02-.09.05-.14.06-.12.14-.2.19-.25l.02-.05a.4.4 0 0 1 .18-.24c.02-.01.06-.11.15-.21.07-.08.15-.12.2-.14.14-.23.29-.44.43-.65l.12-.18c.06-.09.14-.16.2-.21l.43.11-.39-.2a.4.4 0 0 1 .1-.18l.23-.25s.04-.1.08-.18c.03-.07.06-.14.1-.21.07-.13.16-.2.23-.25.03-.03.04-.07.06-.11.08-.19.24-.54.83-.57h.02c.07 0 .15.02.21.06.04.02.08.04.12.08 0 0 .08-.01.1-.01.07 0 .15.02.21.06.07.03.14.08.18.14h.02c.09 0 .17.03.24.08.1.04.25.12.35.3.13.18.13.36.1.51.02.02.03.04.05.06.06.09.09.17.11.29.01.08 0 .17-.04.24.04.18.07.32.05.47-.02.14-.1.26-.22.33s-.01.02-.05.05v.16c0 .14-.07.29-.18.37-.08.06-.15.1-.24.12 0 0-.01.02-.02.02-.04.05-.1.09-.16.12-.05.04-.13.09-.18.11-.02 0-.04.01-.06.02 0 .02-.03.05-.05.08 0 0 0 .02.01.03.02.06.03.12.03.18v.2c-.02.13-.08.24-.18.32a.67.67 0 0 1-.43.2c0 .02.02.05.02.07a.43.43 0 0 1-.21.48c-.06.14-.19.38-.53.45h-.13c-.02.02-.04.03-.06.04.06.12.07.23.07.29 0 .14-.05.28-.16.37 0 0-.26.18-.32.23-.02.12-.08.23-.18.29-.02.02-.04.06-.08.1-.12.16-.29.37-.55.43-.03.16-.15.28-.29.33 0 .14-.03.31-.19.47-.05.04-.14.08-.23.11-.02.04-.06.08-.13.13 0 .08-.02.16-.06.23.01.02.02.03.03.05.05.01.11.03.17.06.07.04.12.09.16.15.09.08.21.19.3.3.03 0 .07.01.09.02.21.06.35.23.44.34l.1.09c.07.04.18.1.28.21 0 .01.08.1.08.12.28.21.58.44.81.82.04.02.12.07.18.16.22.08.42.28.49.41.01.02.03.07.05.11.17.09.33.19.43.39.02.04.05.13.06.2.01.02.03.05.05.07.09 0 .18.05.25.11l.3.27c.17.19.31.36.46.45.03 0 .11.02.2.08.02 0 .05.04.08.07h.18c.12.02.17.03.23.05.04.01.12.03.14.04.14-.05.25-.09.42-.09.06 0 .14 0 .22.02.11.02.21.08.28.17.06 0 .14.02.2.04.37.09.38.51.38.69.23.06.41.26.45.5a.42.42 0 0 1-.18.42c-.09.12-.18.24-.33.31-.11.05-.23.08-.37.08h-.04c-.07.07-.16.12-.25.13-.03 0-.09.02-.12.02-.05 0-.1 0-.15-.02-.1.05-.23.09-.39.09zM186.42 30.95c-.26 0-.45-.15-.56-.24l-.23-.06c-.39-.17-.63-.32-.83-.48a.725.725 0 0 1-.23-.37.447.447 0 0 1-.2-.33l-.02-.3c-.08-.05-.15-.17-.18-.33v-.13l.06-.48c-.04-.26.06-.62.16-.89v-.24c0-.05.01-.1.03-.15a.68.68 0 0 1 .11-.19l.02-.13s.01-.07.03-.11c0-.02.03-.05.04-.08v-.2s.02-.08.04-.12c.05-.12.08-.24.12-.36.05-.15.09-.3.15-.44l.04-.31.03-.1c.05-.11.11-.19.16-.24l.02-.16s.01-.08.03-.11c.04-.09.09-.18.15-.27.01-.02.03-.04.04-.06l.03-.14s.02-.08.04-.12c.04-.07.08-.12.13-.16.01-.07.04-.14.09-.21 0-.12.02-.2.07-.32v-.08s.03-.1.05-.14c.02-.03.06-.09.1-.14 0-.09.04-.21.13-.33.03-.04.06-.07.1-.09v-.03a.4.4 0 0 1 .18-.33l.04-.02c0-.11.03-.23.12-.35.03-.04.07-.07.11-.1l.14-.09c.05-.14.22-.46.65-.46h.02c.07-.02.14-.04.21-.04.05 0 .1 0 .14.03.08.03.19.11.26.19.18.01.35.13.4.29.15.01.32.1.39.23a.497.497 0 0 1 .04.57c.04.01.07.03.1.04.12.04.22.14.27.26.11.3-.03.52-.09.62a.41.41 0 0 1-.2.17h-.03c0 .15-.02.28-.06.37a.716.716 0 0 1-.48.36c0 .01-.01.02-.02.04 0 .02-.03.04-.05.06v.18c.03.05.08.13.09.27s-.04.27-.15.36c-.03.03-.06.05-.08.07 0 .16-.04.29-.06.35-.03.09-.1.17-.18.22 0 .09-.02.18-.07.26.04.13.02.25 0 .3-.02.16-.13.29-.28.34l-.02.08c-.01.05-.04.09-.07.13v.08c0 .03-.02.07-.03.1l-.09.2c0 .06.01.15-.02.25.03.13 0 .24-.03.31-.02.04-.08.14-.11.18.01 0 .02.05.02.08.02.12.04.31-.04.51 0 0-.01.03-.02.04.02.08.03.21-.03.35-.02.04-.04.09-.06.14s.01.14 0 .28c0 .1-.05.19-.11.26.08.21.14.42.15.51.03.18-.03.33-.08.41v.07c0 .2-.15.38-.35.42-.05.02-.14.04-.22.04zM189.81 18.34s-.07 0-.1-.01a.556.556 0 0 1-.39-.27.474.474 0 0 1-.09-.33c.04-.25.15-.41.35-.5.03-.05.08-.12.08-.13.08-.11.21-.17.34-.17h.05c.16.02.38.13.44.28.07.09.1.21.08.33-.05.36-.22.49-.37.54-.02.04-.04.09-.05.1a.41.41 0 0 1-.35.18z"/><path d="M189.46 19.77a.42.42 0 0 1-.27-.14c-.22-.14-.54-.33-.54-.73-.02-.03-.04-.07-.06-.11a.808.808 0 0 1-.05-.31c0-.07.02-.13.05-.19-.12-.15-.25-.32-.28-.44a.785.785 0 0 1-.02-.33c-.07-.19-.13-.33-.11-.57 0-.08.04-.16.09-.23a.766.766 0 0 1-.09-.5c0-.05.02-.1.05-.15a.728.728 0 0 1-.07-.35c0-.08.03-.16.07-.23a.692.692 0 0 1 0-.32c.01-.09.05-.18.11-.24 0 0 .03-.03.05-.06a.602.602 0 0 1 .02-.37c.03-.07.07-.14.1-.19h.01l-.03-.09c-.04-.25.05-.49.1-.61-.02-.09-.06-.25.02-.46.07-.2.17-.43.27-.65l.15-.34c.03-.07.04-.16.06-.25.03-.16.07-.34.16-.5.04-.08.1-.14.15-.19v-.03c.01-.06.03-.12.06-.17.05-.08.11-.14.16-.18 0-.1 0-.2.01-.27.01-.11.07-.21.16-.28a.8.8 0 0 1 .07-.31c.04-.09.1-.15.15-.19v-.06c0-.05.01-.11.04-.16.06-.14.16-.22.22-.27-.01-.05 0-.16.06-.27.04-.07.09-.14.15-.22.03-.04.06-.08.08-.11l.07-.24c.03-.08.08-.16.14-.21l.04-.21.03-.1c.05-.12.12-.25.19-.38.1-.2.21-.4.28-.6.04-.11.13-.2.24-.25 0-.09 0-.19.05-.29.04-.11.21-.38.32-.49l.03-.17s.03-.14.04-.17c.07-.15.18-.24.24-.29.03-.13.06-.24.13-.37.03-.06.08-.11.12-.15l.02-.13.03-.12c.05-.11.12-.18.17-.24.04-.05.05-.11.08-.19.04-.12.08-.28.18-.43.02-.03.05-.06.08-.08s.03-.15.03-.15c.07-.2.15-.3.2-.38l.06-.15.05-.16.07-.15c.1-.21.18-.37.27-.49.01-.02.07-.07.1-.1l.02-.27s.01-.09.03-.13c.05-.13.14-.22.19-.28.02-.03.03-.08.04-.13.02-.1.05-.22.12-.35s.17-.22.24-.28c.08-.14.15-.38.42-.49.1-.05.2-.08.3-.08.36 0 .54.29.63.46l.04.04c.07.07.16.2.17.3v.05s.15 0 .16.01c.16.02.3.13.35.29.05.15.05.3.03.47.15.24.25.55.27.84.02.23-.06.5-.13.73-.03.08-.05.16-.06.22-.02.12-.1.23-.21.29-.06.05-.15.13-.31.16 0 .07 0 .13.01.16.03.14 0 .28-.1.38-.06.07-.15.12-.24.14v.18c0 .06-.02.13-.05.18.03.1.05.22 0 .37a.57.57 0 0 1-.19.28c-.03.09-.05.25-.06.33-.02.14-.11.27-.24.33-.05.02-.12.06-.17.08-.02.1-.07.18-.13.24.03.07.04.14.02.22-.09.59-.4.95-.7 1.23 0 .06 0 .12-.02.18-.02.15-.13.28-.27.33l-.06.02c0 .04.02.25.02.25 0 .14-.05.28-.17.37-.01 0-.02.02-.03.02-.02.08-.06.16-.12.22-.16.15-.33.43-.28.71.03.13-.01.27-.11.37-.07.08-.16.12-.26.13l-.03.12c-.02.09-.07.17-.14.22 0 .05-.03.1-.05.15-.05.09-.12.15-.18.19 0 .12 0 .27-.04.42-.03.08-.07.15-.14.21 0 .06.01.13 0 .2 0 .08-.04.16-.09.23 0 .07-.02.15-.06.24-.06.09-.14.16-.22.23 0 .08.01.17 0 .28-.01.14-.1.26-.22.33-.04.03-.14.17-.2.3l-.03.23c-.01.11-.07.21-.15.28l-.05.04-.06.28c-.02.08-.06.16-.12.22.03.07.06.15.06.25 0 .13-.04.25-.14.34.02 0 .02.12.01.2 0 .17-.02.36-.08.54 0 0-.11.28-.13.34v.13s-.03.09-.04.13c-.02.05-.05.08-.07.12.07.37-.05.84-.14 1.01-.06.11-.14.17-.19.21v.06c.04.04.08.1.11.17.1.24.02.9-.08 1.09-.04.08-.1.14-.18.18-.04.04-.12.1-.23.14-.04.01-.08.02-.12.02h-.09c-.08.05-.19.1-.35.1h-.12z"/><path d="M193.67 9.13c-.2 0-.38-.15-.42-.35-.01-.07-.02-.12-.02-.23 0-.17.11-.31.26-.38.07-.06.15-.09.23-.09.09 0 .17.03.26.09.21.14.25.3.26.46.01.18-.09.35-.26.42-.09.04-.17.07-.3.07h-.02zM107.88 32.29c-.23 0-.46-.18-.47-.41v-.04c-.01-.23.16-.43.4-.45h.03c.11 0 .23.04.3.11.09.08.16.18.16.3.01.24-.17.48-.41.49h-.02z"/><path d="M107.71 32.52c-.12 0-.25-.05-.33-.13a.439.439 0 0 1-.14-.34.9.9 0 0 1 .03-.16c.04-.12.12-.21.23-.27.06-.03.12-.04.19-.04.06 0 .11.01.16.03.2.09.35.33.28.54 0 .02-.01.04-.02.06-.02.06-.05.11-.09.16-.08.08-.18.15-.3.15h-.02z"/><path d="M107.16 32.79a.4.4 0 0 1-.29-.12.87.87 0 0 1-.12-.14c0-.01.02-.02.04-.02h.08c-.15 0-.33-.12-.41-.25-.07-.09-.18-.26.06-1.33a.38.38 0 0 1-.12-.18.873.873 0 0 1 .03-.57c-.02-.03-.04-.06-.05-.1-.1-.26-.02-.51.02-.64.02-.1.08-.21.17-.29-.07-.12-.15-.25-.2-.4a.588.588 0 0 1-.01-.32.579.579 0 0 1-.02-.3c0-.04.02-.1.04-.15-.05-.14-.16-.35-.1-.65 0-.02.02-.08.04-.12l-.03-.23v-.15c0-.02.03-.08.04-.12v-.03c-.01-.06 0-.12 0-.18 0-.02.01-.04.02-.06a.292.292 0 0 1-.02-.09l-.02-.17h-.19c0 .01-.01.02-.02.03-.09.11-.25.21-.39.21-.02.02-.05.03-.07.04-.1.06-.22.1-.35.1-.05 0-.09 0-.14-.01-.09.09-.18.19-.33.24-.05.02-.14.04-.19.04h-.07c-.04.03-.08.07-.13.09-.1.05-.21.08-.32.08h-.12c-.07.02-.12.03-.19.04-.04.06-.08.11-.13.15-.12.1-.63.29-.82.29h-.04c-.12.13-.28.25-.51.27h-.01c-.11.12-.26.18-.47.2s-.04.02-.04.03c-.11.08-.22.11-.32.12-.03.04-.05.07-.08.1-.09.1-.24.18-.37.18h-.05a.4.4 0 0 1-.26.1c-.08 0-.09 0-.16.06-.06.05-.14.11-.25.16-.03.1-.1.18-.19.24-.04.03-.1.09-.19.12-.04.02-.09.03-.13.03h-.11s-.1.12-.1.13c-.08.09-.2.14-.32.14-.05.13-.17.36-.48.4h-.07c-.07 0-.13-.02-.19-.04-.08.04-.17.06-.28.07h-.02c-.1 0-.2-.04-.27-.1a.922.922 0 0 1-.08-.05c-.08.05-.18.09-.31.09-.03 0-.1 0-.13-.01-.13-.03-.23-.09-.3-.13-.2-.05-.48-.11-.62-.43-.03-.03-.11-.2-.02-.44a.568.568 0 0 1-.01-.3c.06-.29.25-.45.36-.54.06-.07.16-.13.26-.16.16-.29.42-.42.62-.52.05-.03.11-.06.17-.09.11-.1.24-.21.43-.25h.06c.05-.08.11-.15.2-.2.05-.03.11-.05.17-.06.05-.08.13-.15.25-.2.05-.05.18-.06.27-.06a.516.516 0 0 1 .35-.15h.04c.1-.12.24-.22.44-.29.08-.03.17-.04.26-.04h.06l.04-.06s.06-.07.09-.09c.16-.12.34-.16.46-.19.06-.01.12-.03.16-.04 0-.02.07-.09.18-.14.07-.03.13-.04.18-.05a.485.485 0 0 1 .34-.14c.05-.05.1-.1.18-.13.15-.07.27-.1.38-.12.06-.01.12-.02.19-.05.07-.05.14-.1.24-.13.04-.01.17-.04.22-.04h.1c.11-.11.23-.2.36-.25.04-.01.08-.02.12-.02h.08c.11-.08.2-.15.32-.18a.69.69 0 0 1 .25-.04h.12c.13-.04.19-.07.24-.08.03 0 .07-.02.1-.02.03-.03.07-.07.1-.08.12-.07.23-.1.32-.12.04-.01.09-.02.14-.05.04-.02.07-.04.11-.06.13-.08.3-.18.53-.22.09-.07.16-.13.26-.17l.09-.03a.852.852 0 0 1-.02-.32c0-.18 0-.3.03-.41.03-.12.09-.19.13-.24v-.09a.218.218 0 0 1-.05-.08c-.15-.17-.12-.44-.1-.54-.02-.14-.05-.31.04-.5.03-.06.05-.1.08-.14-.03-.09-.04-.19-.05-.27 0-.08.01-.16.05-.23a.502.502 0 0 1 .01-.27c.03-.12.1-.2.17-.26 0-.04.02-.08.04-.12.06-.11.21-.31.58-.31h.16c.13.01.3.08.38.19.06.09.13.16.2.2.02-.03.05-.06.09-.09.06-.04.19-.09.27-.1h.06c.09 0 .18.03.26.08.11.02.14.04.2.13.08.08.15.18.19.34.01.06.01.13 0 .19.12.11.22.29.19.44 0 .02-.02.06-.03.09.03.09.05.22 0 .36-.02.06-.05.11-.09.15l-.08.09c.05.06.09.13.11.23.03.12 0 .24-.05.33.05.16.03.31 0 .43.04.01.08.03.12.06.03-.02.06-.03.08-.04.04-.04.18-.07.41-.07.21 0 .46.03.56.04.13.02.24.1.3.21.14.11.3.22.36.44.01.02.03.04.04.06.2.37.27.49.21.69-.15.28-.36.34-.47.37-.02.04-.11.16-.28.23-.06.02-.11.03-.16.04-.03.04-.07.08-.12.12-.14.1-.34.15-.6.15-.1.09-.21.14-.3.17 0 .07-.03.15-.07.23l-.03.06c.04.09.07.21.07.36 0 .11-.04.21-.1.29v.02c.04.06.07.14.08.24.02.17-.05.33-.18.42.02.05.04.1.05.17v.17c.04.09.07.2.07.35 0 .04 0 .09-.01.13 0 .07 0 .15-.03.22.06.09.09.21.07.32v.02c.05.08.1.19.11.33 0 .1-.02.2-.08.29-.02.03-.04.16-.05.24-.02.13-.04.29-.11.44-.03.07-.08.14-.15.18 0 .02-.1.19-.13.25.01.02.02.05.03.07.04.14.03.26.02.33 0 0 .02.05.04.08.05.1.12.23.15.4.02.13-.02.27-.11.36 0 .02 0 .04.01.06.02.13-.02.26-.11.36-.05.09-.1.18-.16.25v.07c0 .09-.02.28-.08.35-.23.36-.39.58-.65.64h-.09c-.07 0-.14-.02-.2-.05-.1 0-.2.02-.27.04 0 0-.09.02-.1.02h-.07z"/><path d="M107.96 20.69c-.15 0-.29-.08-.37-.21l.37-.22-.37.21c-.05-.09-.09-.16-.1-.31-.01-.09.01-.19.06-.27.05-.09.13-.18.22-.21.05-.02.1-.04.17-.05.05-.01.1-.02.14-.02.13 0 .37.08.44.19.05.05.1.13.13.26.03.12 0 .25-.07.35s-.18.17-.3.18c-.07.03-.13.07-.23.09-.03 0-.06.01-.09.01zM127.22 33.08c-.06 0-.12-.02-.16-.04-.06.02-.13.04-.21.04-.04 0-.12-.01-.16-.02-.1-.03-.19-.07-.27-.12l-.14-.05a.86.86 0 0 1-.35-.11.556.556 0 0 1-.16-.14c-.16-.04-.29-.05-.43-.13a.55.55 0 0 1-.09-.07l-.17-.17-.16-.1c-.13-.08-.26-.15-.4-.24-.13-.09-.19-.2-.23-.27l-.39-.25s-.06-.04-.08-.06l-.06-.06h-.03a.524.524 0 0 1-.18-.1l-.36-.33a.383.383 0 0 1-.13-.24l.4-.22-.43.09c-.08-.18-.09-.3-.06-.44a.822.822 0 0 1-.06-.24c0-.12.03-.24.12-.33.06-.08.14-.14.24-.18.04-.06.09-.11.14-.14.1-.09.25-.12.34-.12.12 0 .21.04.28.07.04-.01.1-.02.17-.02.05 0 .13.02.2.04.17.04.27.14.33.21h.08c.06 0 .19.03.25.05.05.02.1.06.13.09.04 0 .08.02.11.03.19.11.24.27.27.34s.07.06.11.11c.1.03.25.09.34.24.03.04.04.08.06.13.11.06.2.12.27.21.01.02.04.07.06.11.07.03.13.06.18.1.13.09.18.21.21.27.02.03.05.06.09.09.05.05.11.1.16.16l.19.14s.06.05.09.09c.13.17.15.33.17.44 0 .03 0 .07.02.11.11.18.19.32.19.6 0 .12-.05.24-.15.32a.43.43 0 0 1-.28.11h-.05zM109.58 40.68s-.06 0-.1-.01c-.07-.02-.14-.04-.22-.07-.05-.02-.1-.04-.15-.05l-.21.02-.28-.04c-.23-.04-.47-.08-.68-.15-.02 0-.07-.03-.11-.06a.47.47 0 0 1-.19.03c-.04 0-.12-.01-.16-.02-.05-.01-.11-.04-.17-.07l-.06-.45-.05.43h-.05c-.15 0-.22-.01-.29-.04a.749.749 0 0 1-.2-.11s-.16.02-.18.02h-.09a.776.776 0 0 1-.36-.19h-.05c-.23 0-.4-.09-.53-.15-.02 0-.04-.02-.06-.03H105.18a.69.69 0 0 1-.19-.07h-.1c-.04 0-.08 0-.11-.02a.561.561 0 0 1-.2-.12h-.12a.543.543 0 0 1-.24-.12h-.08c-.03 0-.07 0-.1-.01-.22-.05-.39-.15-.55-.24-.06-.04-.12-.07-.18-.1a.38.38 0 0 1-.13-.09c-.33-.05-.56-.22-.72-.35-.05-.04-.09-.07-.14-.1-.12-.04-.29-.1-.41-.26a.219.219 0 0 1-.03-.05.488.488 0 0 1-.13-.06.68.68 0 0 1-.19-.19h-.06a.41.41 0 0 1-.35-.18c-.14-.16-.29-.33-.33-.58a.435.435 0 0 1-.06-.07.452.452 0 0 1-.22-.19c-.11-.14-.2-.26-.25-.45v-.07a.679.679 0 0 1-.12-.12c-.21-.27-.15-.56-.1-.72 0-.02-.02-.05-.02-.07-.08-.3.13-.73.37-.89.08-.05.19-.11.36-.11.33 0 .74.21.86.29.04.03.1.07.15.12.03 0 .19.02.33.18.07.09.12.18.15.25.07.01.14.03.21.07.23.12.42.49.53.81.11.02.21.08.28.17.11.16.18.26.23.31.04.03.11.06.2.11.1.05.2.1.3.16.1.07.18.15.24.21l.08.08h.06c.05 0 .12 0 .19.03.12.04.25.1.38.16l.17.07c.1.04.17.1.22.16h.02s.13.01.17.02c.1.03.18.08.23.13l.38.04s.11.02.13.03c.13.03.3.08.42.13.06.03.11.06.15.09.06-.01.12-.02.18-.02.22 0 .42.09.58.17.02 0 .04.02.06.03.06-.02.12-.03.18-.03.16 0 .29.06.38.11a.652.652 0 0 1 .6.11c.06-.02.14-.04.24-.04h.02c.09 0 .18.03.25.08a.739.739 0 0 1 .46-.04c.05.01.09.03.13.05 0 0 .36-.03.38-.03.04 0 .08 0 .11.02.03 0 .06.02.1.04.17-.05.56-.12.88-.12.22 0 .39.04.52.11.04.03.1.08.15.14.27.08.35.29.38.43.02.11 0 .23-.07.33-.02.03-.05.06-.08.08 0 .1-.01.19-.02.26 0 .13-.08.35-.18.43-.12.11-.23.18-.42.2-.04.01-.08.02-.11.03-.09.07-.2.13-.33.17-.04 0-.14.02-.18.02-.1 0-.17-.02-.23-.03-.15.03-.31.05-.48.05-.1 0-.21 0-.32-.02l-.17.02-.27.02zM90.86 36.74c-.05 0-.1 0-.15-.03a.85.85 0 0 1-.19-.06s-.01 0-.02-.01c-.11.04-.22.05-.32.05-.04 0-.17-.02-.21-.03-.23-.06-.41-.18-.57-.29a1.48 1.48 0 0 0-.21-.13c-.01 0-.04-.02-.06-.04h-.05c-.06 0-.11-.01-.17-.03a.596.596 0 0 1-.28-.26c-.14-.03-.26-.05-.38-.12-.1-.06-.18-.14-.26-.22l-.01-.01h-.05c-.11 0-.21-.04-.29-.11l-.08-.07h-.03c-.16-.03-.72-.2-.92-.55-.11-.19-.11-.43-.07-.81 0-.09.05-.25.12-.32l.25-.27c.15-.12.24-.15.29-.16.07-.06.11-.06.2-.07h.13c.12 0 .44 0 .62.09.08.03.14.08.18.12.04 0 .13 0 .16.01.18.04.31.13.41.19.13.04.31.08.44.24.03.04.05.08.07.13.18.04.29.15.35.22l.08.02c.07.02.12.05.17.1.02.02.04.05.06.08.09.04.32.14.44.28.09.11.14.17.16.22.07.03.13.07.18.13l.17.21s.05.07.07.11c.01.03.02.05.03.08.1.05.19.14.26.29.05.07.05.22.04.32 0 .13-.07.32-.17.4.01.02-.05.14-.18.23-.07.04-.15.07-.23.07z"/><path d="M89.2 34.36v-.06h-.08c.01.03 0 .02.02.04.02.01.02.01.06.02zM91.12 36.68c-.23 0-.48-.17-.49-.4v-.08a.42.42 0 0 1 .11-.32c.08-.08.2-.16.32-.16h.02c.23 0 .48.18.49.41 0 .11-.03.3-.1.38-.08.09-.21.17-.33.17h-.02z"/><path d="M91 36.77c-.23 0-.48-.18-.49-.41v-.04c0-.14.05-.27.16-.36a.439.439 0 0 1 .39-.07c.18.05.36.23.37.41 0 .11-.03.24-.11.32s-.18.14-.3.15H91zM166.13 36.59c-.1 0-.2-.03-.27-.1-.18-.1-.36-.21-.44-.41a.353.353 0 0 1-.03-.14v-.16c-.08-.19-.1-.31-.05-.59v-.17s0-.08.02-.12c.04-.13.12-.22.18-.28v-.06a.53.53 0 0 1 .11-.21l.09-.09a.58.58 0 0 1 .09-.26c.02-.04.05-.07.08-.1l.09-.08c.03-.17.09-.4.31-.54 0-.03 0-.07.02-.1.01-.04.05-.11.09-.17v-.05c.04-.18.08-.28.11-.37.03-.08.06-.16.08-.23v-.14-.12l.06-.28v-.03a.308.308 0 0 1 0-.19c.01-.07.04-.13.07-.18-.02-.08-.02-.14-.02-.19 0-.09.03-.19.08-.26h-.01c-.03 0-.07-.08-.1-.13s-.06-.1-.07-.14a.266.266 0 0 1-.03-.12l-.02-.2c-.04-.07-.07-.12-.1-.18a.355.355 0 0 1-.02-.1h-.02s-.06-.06-.08-.09c-.1-.12-.26-.23-.37-.28a.665.665 0 0 1-.5.04.67.67 0 0 1-.31.11c-.05.05-.11.1-.2.13a.85.85 0 0 1-.22.04c-.09 0-.17-.02-.24-.03-.03.03-.07.06-.08.07a.56.56 0 0 1-.27.08c-.11.14-.26.25-.46.33-.04.02-.08.02-.13.03h-.2s-.07.08-.11.11c-.04.17-.17.33-.34.36h-.1c0 .01-.02.03-.03.04-.09.13-.25.35-.57.42-.03.03-.06.06-.09.08-.06.06-.13.13-.22.18v.03c0 .12-.03.23-.11.32l-.08.08c-.06.07-.15.12-.24.13-.03.06-.07.13-.1.19.02.12.03.24-.02.38-.05.13-.28.5-.57.57-.04 0-.07.01-.11.01-.05 0-.1 0-.15-.03h-.12c-.03 0-.12 0-.14-.01-.04 0-.08-.02-.11-.03 0 0-.12.02-.16.02h-.09a.694.694 0 0 1-.21-.09h-.11c-.1 0-.2-.04-.28-.1l-.15-.13s-.06.01-.09.02h-.05c-.14 0-.27-.07-.35-.18-.08-.1-.15-.19-.19-.3-.02-.05-.02-.1-.02-.15v-.12a.62.62 0 0 1-.04-.31c0-.02.01-.05.02-.08a.544.544 0 0 1-.04-.2c-.01-.15.06-.3.18-.38.05-.04.16-.17.19-.23.05-.18.08-.32.18-.45.07-.1.16-.16.22-.2.04-.05.1-.09.16-.11a.36.36 0 0 1 .07-.1c.06-.11.08-.16.12-.21s.14-.13.21-.18l.09-.11s.07-.08.09-.1c.05-.04.1-.06.14-.08.01-.02.03-.05.06-.09.05-.08.1-.15.13-.18.08-.09.19-.14.31-.15h.16c.08-.17.21-.36.49-.43.03-.03.05-.06.09-.08.12-.12.2-.22.34-.28.04-.02.08-.03.13-.04l.11-.02c.09-.06.22-.14.39-.15a.472.472 0 0 1 .31-.2c.03 0 .05-.01.11-.04.09-.04.22-.1.41-.11h.06c.07-.07.16-.1.25-.1h.1c.04 0 .08.02.11.03.07-.07.15-.11.25-.13.06-.02.11-.03.16-.03s.09 0 .12.01c.11-.07.2-.12.3-.15.04-.01.16-.03.2-.03.11 0 .21.03.27.05.12-.04.23-.06.34-.06.14 0 .26.03.37.06l.13.03h.27c.24.08.43.17.54.24.02.01.04.03.06.04h.01c.06 0 .11.02.17.05.05.02.09.05.12.08h.13c.1 0 .2.04.28.11.03.02.08.04.13.07.15.07.33.17.46.32l.18.09c.05.02.1.06.14.11.07.08.11.16.14.22l.09.04c.06.03.11.07.16.13.12.16.13.32.13.41l.07.07.12.09c.1.08.15.2.16.32v.16a.548.548 0 0 1 .25.56c.07.07.15.18.18.34.02.09.01.18-.02.26.02.08.03.18.01.29 0 .02.02.04.03.06.02.04.03.09.03.14v.15s.06.12.06.23c0 .09-.03.19-.09.26 0 .01-.01.02-.02.03.03.12.02.24.02.33 0 .13-.05.34-.15.42-.02.02-.04.05-.06.08 0 0-.09.12-.1.13.05.08.11.19.12.34 0 .08 0 .16-.04.23-.01.05-.03.11-.07.18l-.06.09c.01.04.02.07.02.12.03.19-.08.38-.25.45-.07.03-.13.05-.22.06h-.09c0 .01 0 .03-.01.04.03.06.05.12.06.18.02.14-.02.28-.12.38-.1.14-.19.28-.35.37-.02 0-.03.02-.05.02 0 .01-.02.03-.03.04l.03.14c.02.16-.05.32-.18.42a.85.85 0 0 1-.45.17h-.03c-.1 0-.2-.04-.27-.1-.09.06-.2.09-.31.09-.12 0-.23-.04-.32-.07-.16.09-.34.11-.5.12h-.01zM137.63 22.26s-.08 0-.12-.02a.412.412 0 0 1-.3-.31.609.609 0 0 1 0-.33.43.43 0 0 1 .39-.3h.02c.13 0 .29.06.37.16.09.11.14.25.1.39-.01.04-.06.16-.08.19s-.06.07-.08.1c-.08.08-.2.12-.31.12zM143.91 20.17h.05c0-.01.01-.02.01-.03v-.03-.07c-.04 0-.07-.02-.11-.03-.02.04-.03.04-.03.1.01.03.03.04.06.05zM149.78 23.38s-.13-.02-.16-.03a.441.441 0 0 1-.3-.43c0-.08.06-.25.1-.31.08-.12.22-.2.37-.2s.29.06.37.19l.06.1c.06.09.08.21.06.31-.03.08-.09.19-.16.26 0 0-.01 0-.02.01a.18.18 0 0 1-.07.05c-.07.04-.14.06-.22.06h-.04zM142.03 40.64l-.02-.02h-.05s.01.04.02.05c.03-.01.02 0 .03-.02l.02-.02zM139.68 18.54c-.16-.04-.31-.13-.35-.29l-.02-.1c-.03-.15.01-.3.12-.41.08-.08.19-.12.3-.12.04 0 .08 0 .12.02.19.05.38.25.37.45 0 .07-.04.21-.08.28a.52.52 0 0 1-.38.19h-.08zM133.1 13.13s-.08-.01-.11-.03a.436.436 0 0 1 .03-.82c.05-.01.09-.02.14-.02.13 0 .26.06.34.17.13.15.13.36.02.53-.08.11-.21.18-.35.18h-.07zM136.47 23.71s-.13-.02-.17-.02a.43.43 0 0 1-.32-.42c0-.29.17-.43.24-.49.07-.12.19-.17.33-.18h.03c.12 0 .27.04.36.12.1.08.15.19.15.31 0 .13-.06.24-.15.32l-.05.09c-.06.17-.22.27-.4.27h-.02zM144.01 13.28c-.18-.03-.34-.15-.37-.34-.01-.07-.01-.13-.01-.18 0-.2.15-.37.35-.41h.08c.17 0 .33.1.4.26.05.11.06.31.02.42a.48.48 0 0 1-.4.26h-.06zM150.99 33.82s-.09 0-.14-.02l.1-.42-.14.41c-.12-.03-.26-.11-.32-.21a.418.418 0 0 1-.17-.28c0-.04-.01-.08-.01-.12 0-.2.12-.38.31-.43.07-.04.15-.06.24-.06.05 0 .09 0 .14.02.12.04.23.13.27.25 0 .01 0 .02.01.03.08.07.14.16.16.27a.4.4 0 0 1-.1.35c-.03.04-.08.08-.12.11-.07.08-.15.1-.23.1z"/><path d="M151.03 33.74a.39.39 0 0 1-.23-.07.422.422 0 0 1-.2-.34v-.05c0-.12.04-.24.12-.33.08-.12.21-.19.34-.19.04 0 .07 0 .11.01.17.04.29.19.31.37.01.04.02.09.02.14 0 .14-.06.26-.17.34a1 1 0 0 1-.14.08c-.05.02-.11.03-.17.03z"/><path d="M140.88 43.73s-.13-.01-.17-.03c-.03-.01-.12-.06-.17-.09h-.09l-.15-.06a.623.623 0 0 1-.12-.09c-.05.01-.11.03-.17.03-.31-.04-.49-.14-.62-.21-.05-.03-.09-.05-.13-.07h-.05c-.19 0-.35-.12-.43-.32a.68.68 0 0 1-.06-.21.73.73 0 0 1-.02-.56V42l-.02-.17v-.11c0-.05.22-.59.3-.69.13-.15.32-.23.53-.23.17 0 .33.06.45.16.02 0 .05-.01.08-.02h.08c.1 0 .2.04.28.1h.14c.07-.05.13-.1.21-.13s.15-.05.22-.07c.05-.01.09-.03.11-.04 0-.01.06-.08.15-.12l.08-.03h.01c.04-.07.09-.11.15-.14s.15-.05.22-.05l.02-.05a.61.61 0 0 1 .12-.16c.12-.1.26-.13.35-.15.02 0 .06-.06.09-.09.06-.08.14-.17.24-.25.06-.04.12-.07.17-.09.03-.05.07-.1.13-.15.09-.07.19-.09.26-.11.1-.13.22-.29.45-.36.03-.09.09-.17.17-.22.01 0 .08-.04.1-.06.03-.03.06-.07.09-.09.01-.03.02-.06.03-.07 0 0 .19-.23.4-.39a.38.38 0 0 1 .09-.18c.07-.06.15-.13.17-.16.02-.04.07-.15.18-.23.03-.02.07-.04.11-.06l.07-.03.08-.08s.07-.07.11-.09c.06-.16.16-.28.29-.35.03-.1.09-.18.18-.24.15-.1.19-.17.3-.34l.1-.16c.07-.1.16-.16.23-.2.01-.04.03-.08.06-.12.07-.12.16-.19.22-.23.03-.03.06-.06.1-.08.02-.05.05-.09.08-.13.11-.12.21-.26.3-.4l.1-.15s.06-.07.1-.1l.11-.08c.01-.07.04-.13.08-.19a.4.4 0 0 1 .12-.1c.02-.07.06-.14.12-.19l.05-.05a.77.77 0 0 1 .11-.27c0-.01.19-.29.29-.38 0 0 .02-.02.04-.03l.02-.06c.01-.06.04-.11.08-.15l.2-.25.09-.09c0-.03.02-.05.04-.08.05-.09.12-.15.16-.2.07-.1.1-.17.13-.24.05-.12.1-.23.17-.34.02-.03.04-.06.06-.08l.12-.12c.04-.1.08-.22.19-.31.02-.01.05-.04.09-.06l.04-.16c.14-.28.26-.49.38-.68.06-.1.14-.16.21-.21 0-.06 0-.12.02-.19.04-.15.13-.25.21-.31 0-.09.04-.17.1-.24a.44.44 0 0 0 .06-.12l.09-.21a.47.47 0 0 1 .13-.15l.1-.07v-.09c0-.05 0-.1.02-.15.03-.1.09-.17.14-.22 0-.09.04-.17.09-.24l.04-.17c.02-.1.08-.18.16-.24a.4.4 0 0 1 .12-.29c.12-.13.18-.49.23-.76v-.08l-.02-.29v-.13c.02-.08.05-.15.07-.2-.03-.08-.05-.17-.06-.28 0-.05 0-.1.02-.15a.401.401 0 0 1-.03-.15v-.17s-.07-.05-.11-.1c-.08-.11-.12-.22-.15-.31a.365.365 0 0 0-.07-.14.616.616 0 0 1-.21-.25.744.744 0 0 1-.06-.29.502.502 0 0 1-.1-.14c-.08-.04-.15-.09-.18-.15h.03a.527.527 0 0 1-.26-.17c-.01-.02-.03-.04-.05-.07-.05-.03-.12-.07-.18-.15a.556.556 0 0 1-.09-.17.46.46 0 0 1-.23-.16c-.02-.02-.1-.11-.16-.17a.66.66 0 0 1-.18-.1c-.03-.03-.06-.06-.08-.1 0-.01-.01-.02-.02-.04-.1-.04-.18-.07-.25-.12a.686.686 0 0 1-.2-.23.638.638 0 0 1-.22-.09.595.595 0 0 1-.13-.14.509.509 0 0 1-.26-.19c-.04 0-.08-.02-.1-.03-.08-.03-.14-.08-.19-.12l-.21-.06a.4.4 0 0 1-.18-.1l-.13-.04c-.06-.02-.11-.05-.16-.09s-.01 0-.02 0c-.04 0-.09 0-.15-.03-.02 0-.04-.02-.07-.03-.05.02-.12.04-.2.04a.803.803 0 0 1-.24-.05c-.07.03-.16.05-.2.05-.08 0-.14-.02-.19-.04-.05.02-.15.06-.16.06a.693.693 0 0 1-.4 0c-.05.04-.11.07-.19.1-.04.01-.11.02-.15.02-.07 0-.14-.02-.19-.04l-.11.01c-.02.02-.04.04-.07.06a.62.62 0 0 1-.3.09h-.04c-.13.06-.25.12-.42.12h-.09c-.01.01-.03.02-.04.04-.09.07-.17.11-.29.13-.07.05-.17.1-.29.1-.04.04-.09.07-.12.08l-.16.06c-.18.16-.34.27-.65.28h-.02c-.04 0-.09 0-.13-.02-.04.02-.08.03-.13.04-.02.16-.11.34-.25.39 0 .03-.13.18-.38.22h-.02c-.02.03-.05.05-.08.07-.04.05-.09.08-.14.1a.36.36 0 0 1-.12.18c-.08.07-.18.12-.29.12h-.07c-.01 0-.04 0-.07-.02-.02.03-.04.06-.06.08-.03.02-.06.04-.09.05l-.14.05c-.07.08-.18.17-.29.21 0 .03-.02.07-.03.1-.04.08-.1.14-.17.18-.06.08-.15.14-.26.16-.11.17-.27.34-.54.38h-.05c0 .04-.02.09-.05.14 0 0-.35.56-.62.68-.04.02-.07.03-.11.03-.07.01-.17.08-.35.11l-.02.02c0 .11-.04.22-.12.31-.07.09-.17.21-.32.27-.05.02-.12.03-.17.03-.08.17-.23.34-.6.38h-.04c-.03 0-.07 0-.1-.01-.07.02-.13.02-.18.03h-.02c-.1 0-.19-.03-.27-.1-.08 0-.17-.02-.25-.06-.25 0-.52-.11-.67-.16-.1-.04-.2-.12-.25-.21a.42.42 0 0 1-.34-.22c-.11-.1-.11-.18-.08-.33 0-.05.02-.12.02-.19.03-.25.05-.5.17-.69.06-.11.14-.17.21-.21v-.06c0-.1.03-.2.09-.28.1-.15.18-.26.29-.35v-.03c.03-.11.08-.24.14-.34 0-.17 0-.36.14-.52a.374.374 0 0 1 .27-.12c.07-.11.16-.17.21-.21.02-.04.04-.08.07-.12.03-.05.06-.08.09-.11 0-.03.02-.06.03-.09v-.02s.02-.09.04-.13c.06-.12.14-.21.2-.29l.06-.1c.03-.08.1-.24.17-.29l.33.29-.08-.14-.22-.15s.04-.07.05-.11c.04-.08.07-.15.12-.23l.09-.09c.03-.09.12-.21.19-.26.04-.09.09-.17.17-.25.03-.05.06-.12.1-.18l.04-.13s.02-.07.04-.1c.06-.11.15-.18.2-.22 0-.05.02-.13.06-.21.03-.05.06-.1.11-.13 0-.03.02-.07.04-.1.03-.08.09-.14.14-.18.01-.05.03-.1.06-.15.04-.07.09-.13.13-.17v-.02s.03-.08.05-.11c.03-.05.06-.1.1-.14 0-.06.03-.12.06-.17.06-.1.14-.17.21-.21 0-.05.02-.11.05-.16.05-.09.11-.17.15-.23.02-.03.04-.05.06-.08.07-.15.15-.3.21-.44l.02-.1s.03-.07.05-.11c.06-.1.14-.18.2-.23l.26.08.19-.02-.42-.11s0-.07.02-.11c.04-.13.12-.25.19-.34l.03-.05.06-.2c.02-.06.05-.12.09-.17v-.03c.03-.08.07-.15.13-.21l.05-.05c.01-.08.05-.18.11-.24l.06-.06c0-.05.02-.14.04-.17.01-.04.06-.11.1-.16l.02-.08s.02-.06.04-.09c.03-.07.08-.14.13-.21.03-.04.05-.07.07-.11 0-.02.02-.06.03-.1.02-.08.05-.18.11-.29 0-.02.04-.06.07-.09v-.02s.01-.09.03-.14c.05-.13.13-.26.21-.39.05-.08.1-.16.13-.23l.03-.17s.03-.08.05-.12c.03-.06.08-.12.13-.18.02-.03.06-.08.07-.09v-.1c.01-.09.05-.17.11-.23l.04-.04.02-.08c.01-.06.08-.18.12-.24l.03-.13c.02-.08.06-.14.12-.2 0-.06.02-.11.03-.13.04-.09.09-.15.14-.19v-.04a.85.85 0 0 1 .15-.31c.03-.05.04-.09.04-.13.02-.09.04-.2.1-.33a.36.36 0 0 1 .07-.1l.1-.11h-.01s0-.03.02-.06c.04-.08.08-.16.13-.24l.07-.08s0-.05.01-.08c.03-.11.09-.2.13-.26 0-.02 0-.11.02-.22.03-.11.09-.2.13-.25s0-.1.07-.2c.04-.07.1-.15.16-.23.02-.02.03-.04.05-.06 0-.09 0-.21.07-.33.02-.04.05-.07.08-.1h.01s.01-.07.02-.1c.03-.09.26-.43.28-.46l.02-.02c0-.03.01-.05.02-.08h-.07c-.05 0-.1 0-.14-.01-.07.04-.14.06-.22.06l-.17-.01c-.15.13-.32.16-.47.16-.04.04-.16.15-.19.17a.41.41 0 0 1-.29.13h-.16c-.04.04-.09.07-.14.1-.02 0-.04.02-.07.02-.02.02-.05.04-.07.06-.11.07-.22.11-.3.13-.03.01-.07.02-.1.04.02 0-.05.06-.14.1l-.11.03-.21.02c-.13.09-.3.2-.52.2h-.02c-.04.04-.09.08-.17.11-.1.04-.19.05-.25.06-.04.06-.15.16-.33.2-.03 0-.07.01-.1.01-.08.06-.16.1-.27.13-.06.07-.14.11-.22.13-.05.06-.13.13-.25.17-.09.04-.18.05-.28.06-.02 0-.05 0-.08.01-.06.09-.18.22-.4.26h-.07c-.12.07-.25.08-.33.09s-.1 0-.14-.02c-.1.16-.23.29-.34.39-.05.05-.11.1-.15.15-.08.1-.2.15-.33.15H137c-.03.1-.08.18-.17.24-.11.07-.19.12-.35.13-.01.02-.03.04-.04.05-.08.1-.2.25-.46.3h-.08c-.07 0-.13-.02-.19-.04-.01 0-.03.01-.04.02-.02.03-.04.05-.06.08-.04.19-.09.35-.19.5-.04.06-.08.1-.13.13 0 .07-.01.14-.05.21.03.17-.04.34-.18.44-.12.08-.29.17-.51.17-.11 0-.21-.02-.33-.05a.51.51 0 0 1-.23-.12c-.03 0-.12.02-.13.02-.11 0-.21-.04-.29-.11h-.04c-.04 0-.11-.01-.18-.04-.18-.06-.33-.16-.45-.29 0 0-.02-.03-.03-.03-.02 0-.03 0-.04-.01a.48.48 0 0 1-.23-.17c-.1-.14-.23-.3-.25-.54-.01-.11.02-.23.09-.32-.03-.03-.03-.12 0-.23.02-.06.34-.63.54-.73.02-.01.05-.02.08-.03a.39.39 0 0 1 .2-.13c.12-.23.33-.43.54-.52.02 0 .04-.01.06-.02l.05-.08c.06-.1.16-.17.27-.2.05-.04.11-.09.18-.13l.13-.04c.13-.12.23-.22.37-.28.02 0 .04-.01.06-.02.03-.06.07-.11.13-.16.12-.09.24-.13.31-.15.13-.1.28-.25.55-.28H136.03c.06-.13.17-.3.4-.39.03 0 .07-.02.11-.03.09-.08.21-.15.41-.16h.07c.05-.05.11-.09.18-.12.1-.15.24-.24.42-.26h.08c.12-.12.25-.23.42-.3l.32-.06c.05-.06.11-.12.18-.17a.85.85 0 0 1 .31-.09h.06c.03-.02.06-.04.1-.07.11-.08.24-.17.39-.23.05-.02.16-.05.22-.05h.02c.11-.08.21-.15.33-.18.03 0 .08-.01.12-.01h.04c.06-.03.13-.05.21-.07.06-.05.12-.08.2-.1.06-.02.13-.05.22-.06.02-.02.03-.04.05-.06.2-.16.4-.16.54-.17h.05c.04-.04.09-.08.15-.1.06-.03.12-.04.18-.04h.12c.02-.02.06-.04.1-.05.03 0 .15-.03.18-.03s.05-.05.14-.08l.2-.04h.1l.02-.03c.13-.04.29-.1.41-.13a.88.88 0 0 1 .17-.02c.07 0 .13.01.17.03.03 0 .07-.02.1-.02h.18s.08-.08.12-.1c.12-.06.81-.21.93-.21.1.01.16.03.21.04.11-.08.24-.1.33-.1h.02c.07 0 .15.02.21.06.01 0 .04-.01.07-.01.05 0 .12.01.2.04.05.02.09.05.13.08l.07.06c.06.02.13.04.2.09.07.04.12.1.17.14.16.07.38.15.5.37.09.14.1.27.09.38.18.21.29.43.32.65.02.13-.02.25-.1.35.01.12-.02.23-.09.32 0 0-.01.02-.03.04 0 .17-.08.35-.13.48.03.1.05.24 0 .39-.01.04-.04.1-.08.15 0 .05-.02.13-.07.23-.03.05-.09.11-.16.16 0 .02-.02.04-.03.06s-.04.05-.06.07c-.03.09-.08.16-.13.21 0 .04 0 .07-.01.11-.02.13-.09.24-.2.3-.02.05-.04.1-.07.14-.01.13-.08.25-.19.32 0 .05 0 .11-.03.16-.06.16-.14.27-.23.33 0 .11-.06.21-.14.29 0 .08-.01.17-.05.24.02.06.03.14.04.23 0 .09-.02.17-.06.24-.05.1-.13.18-.23.22-.01 0-.03 0-.04.01-.02.06-.05.12-.09.17-.03.05-.07.09-.12.12-.02.07-.05.13-.09.19-.05.05-.11.1-.17.12-.04.04-.08.07-.13.1v.04c.07.08.12.18.14.32.02.12-.01.25-.09.35a.7.7 0 0 0-.08.1c.03.02.03.15-.03.29-.07.15-.17.24-.25.32-.09.32-.25.46-.4.52 0 .09 0 .19-.06.3-.01.02-.04.06-.07.09a.43.43 0 0 1-.08.31v.08c0 .13-.07.24-.17.32v.08s-.02.08-.03.11c-.02.06-.11.19-.15.23.02 0 0 .09-.04.18 0 .09-.02.17-.03.21-.03.1-.09.23-.18.29-.04.03-.08.05-.11.07.02.07.01.15 0 .22 0 .02-.02.06-.03.08-.05.12-.13.19-.19.23-.01.03-.02.06-.04.09-.02.04-.04.07-.06.11 0 .07 0 .14-.03.2-.02.09-.13.35-.3.49v.07c-.02.07-.06.13-.11.17 0 .02-.01.03-.02.05-.03.08-.08.15-.13.19 0 .04 0 .07-.02.11a.8.8 0 0 1-.24.4.36.36 0 0 1-.12.08c.01.08 0 .17-.03.23-.04.06-.08.11-.12.16-.06.08-.06.08-.06.11 0 .11-.05.21-.12.29h.07c.04-.08.12-.19.25-.25.04-.02.08-.04.12-.04l.26-.05s.06-.07.15-.1c.04-.01.07-.02.11-.02l.3-.02c.09-.09.22-.18.44-.2h.12c.11-.09.25-.13.42-.14h.07a.66.66 0 0 1 .28-.09h.05c.24-.13.58-.18.7-.18.04 0 .12 0 .16.02a.76.76 0 0 1 .3-.09h.04c.08 0 .15.02.21.06.05-.02.11-.04.17-.06h.11c.15 0 .27.05.34.08l.08-.02c.1-.02.21-.05.34-.05.04 0 .17.02.21.03.05.01.1.04.16.06.05 0 .22.04.27.05a.7.7 0 0 1 .17.09l.33-.01c.04 0 .08 0 .12.02.09.03.16.07.21.12.1 0 .2.04.28.11.1.09.19.13.22.14.05 0 .12 0 .21.04.11.04.19.1.24.14h.02c.04 0 .13.01.23.07.04.02.1.08.15.14.08.01.15.03.24.06.13.05.21.13.27.18.03 0 .13.02.25.1.03.02.07.05.09.08.04.04.12.06.2.11.12.07.24.15.36.24l.17.12c.1.06.16.14.2.21.11.02.17.04.21.06.16.07.29.18.38.26.03.02.05.05.07.08.03.02.05.03.08.06l.22.2s.05.05.07.08c.01.02.03.05.04.09.03.01.06.03.1.05.03.02.06.04.09.07l.19.2c.1.06.2.17.31.29.07.05.18.14.2.17.01.02.03.05.04.08.14.1.33.33.33.34.04.05.09.2.11.27.07.05.16.13.22.25.02.03.03.06.03.1l.04.19c.04.04.08.08.12.13.1.15.12.31.14.42l.04.17.03.1c0 .03.01.05.02.08.05.02.1.05.14.09.08.09.15.2.14.32l-.45.12.43.02-.04-.12c.06.09.2.28.14.55-.02.08-.04.14-.07.18.04.08.06.17.06.3.04.06.07.13.07.21 0 .13-.04.3-.13.41.01.12.02.23-.02.43-.02.12-.1.23-.21.3v.05s-.04.08-.06.11c0 0 0 .02-.02.02.05.19.02.37 0 .47 0 .04-.01.07-.02.1 0 .13-.07.25-.18.33.01.08 0 .17 0 .25.01.04.03.08.03.13.02.13-.02.26-.11.36q-.06.06-.08.15c-.02.05-.04.11-.07.19-.03.09-.1.16-.17.21 0 .19-.09.39-.25.46-.03.01-.05.02-.07.03 0 .05-.02.11-.03.15-.03.13-.14.3-.29.42v.01c.01.27-.11.44-.17.54l-.03.19c-.01.09-.05.17-.11.24-.01.05-.02.09-.04.14-.06.15-.21.25-.37.26-.05.08-.13.15-.23.21-.05.11-.14.21-.25.24-.03 0-.07.02-.11.04-.03 0-.06.02-.09.02.05.12.05.18.06.21a.5.5 0 0 1-.1.31c.03 0 .02.08-.01.18-.02.05-.06.12-.11.18 0 .07-.02.17-.09.27-.08.12-.18.19-.27.25.01.07.02.12.02.16 0 .19-.1.36-.27.42 0 0-.03 0-.05.02a.55.55 0 0 1-.17.17.37.37 0 0 1-.05.11l-.11.13c0 .13-.04.41-.37.56-.03.02-.07.03-.1.04-.02.08-.06.16-.12.22a.55.55 0 0 1-.09.07c-.06.04-.18.07-.25.07v.02c0 .06-.03.11-.06.16.01.09 0 .18-.04.25-.04.13-.14.26-.27.3h-.03c0 .12-.06.31-.25.43-.06.03-.2.07-.26.08h-.04c-.05 0-.1 0-.15-.03 0 .02-.02.03-.03.05.04.13.03.3-.05.44-.1.23-.32.3-.41.33l-.08.08c.01.11-.05.46-.44.56-.02.04-.05.07-.08.1a.49.49 0 0 1-.17.25c-.04.03-.1.06-.17.09-.01 0-.03.02-.05.02-.04.15-.15.26-.32.33-.05.02-.11.04-.15.05h-.04c0 .03 0 .06-.01.09-.03.11-.12.26-.23.32-.1.08-.14.12-.19.15-.02.01-.04.02-.07.03a.33.33 0 0 1-.15.1l-.17.05c-.04.08-.11.17-.21.24 0 0-.02.01-.03.02-.03.05-.06.09-.11.13-.08.07-.17.11-.24.15-.09.2-.26.27-.39.3-.02.03-.05.05-.08.07a.48.48 0 0 1-.19.22.31.31 0 0 1-.13.06l-.13.03s-.09.08-.15.1c-.11.05-.21.06-.27.07-.03.02-.1.09-.16.17-.14.17-.31.37-.61.48-.03.01-.07.02-.1.02l-.25.03c-.09.06-.18.12-.29.15-.03 0-.1.02-.13.02h-.07c-.04.04-.1.09-.17.12-.06.03-.2.06-.26.06h-.03c-.11.13-.25.27-.49.27z"/><path d="M144.32 13.35c-.15 0-.31-.07-.39-.2-.02-.03-.06-.11-.08-.14a.436.436 0 0 1 .08-.45c.06-.15.18-.22.34-.23h.02c.2 0 .43.12.48.3.05.11.05.28 0 .39-.06.16-.29.32-.46.33h-.02zM143.38 15.49v-.03s-.04 0-.06-.01c0 .05-.02.04.06.05zM151.31 33.82s-.09 0-.14-.02l.05-.21s-.02 0-.04.01l-.07.19a.555.555 0 0 1-.32-.19.522.522 0 0 1-.14-.25c0-.02-.02-.05-.02-.08 0-.06-.02-.14 0-.25.02-.17.14-.31.31-.36.05-.02.1-.03.15-.04h.03c.15 0 .34.08.42.2.03.05.06.11.07.16.08.07.14.16.16.26a.4.4 0 0 1-.1.35c-.03.04-.08.08-.12.11-.07.08-.15.1-.23.1z"/><path d="M151.35 33.74a.39.39 0 0 1-.23-.07.422.422 0 0 1-.2-.34v-.05c0-.12.03-.23.12-.32.06-.11.16-.18.28-.21h.08c.09 0 .19.04.27.1s.17.2.19.3c.04.17-.03.37-.18.47a1.4 1.4 0 0 1-.16.1c-.05.02-.11.03-.16.03z"/></g></svg>