<svg height="575pt" viewBox="6.4 70.4 562.6 430.6" width="575pt" xmlns="http://www.w3.org/2000/svg"><path d="m195 87v16h8.5c10 0 15.1-1.7 16.5-5.5 1.5-3.9 1.3-5-1.6-8.5-2.6-3-2.6-3.1-.9-5.1 2.1-2.3 2.4-7.1.6-9.3-1.9-2.3-7.7-3.6-15.8-3.6h-7.3zm15.1-9c2.7 1.5 2.4 4.8-.5 5.6-4.3 1-7.1.1-7.4-2.5-.6-3.7 3.6-5.3 7.9-3.1zm1 12c4.6 2.5.7 7.4-5.4 6.8-2.7-.3-3.1-.7-3.3-3.3-.1-1.7 0-3.3.3-3.8.6-1.1 6.1-.9 8.4.3zm19.5-17.1c-5 3.3-7.1 7.8-7 14.8 0 5.4.5 6.8 3 10 6.3 7.7 16.5 7.7 22.8 0 5.9-7.4 4.1-20-3.7-24.7-4.2-2.6-11.3-2.6-15.1-.1zm12.3 6.7c.8.7 1.6 3.8 1.9 6.8.4 4.8.2 5.7-2.1 8-6.3 6.3-13.2-.4-11.3-10.9 1.1-5.7 7.4-7.8 11.5-3.9zm16.1 7.3v16.1h7.1c12 0 17.9-4.5 18.7-14.5.9-11-4.6-16.3-17.8-17.2l-8-.6zm16-6.7c4.2 4.5 1.8 15.4-3.5 15.9-4.4.3-4.5.2-4.5-9.1v-9h3c1.7 0 3.8.9 5 2.2zm15 6.7v16.1h8v-5c0-4.2.3-5 1.8-5 1.2 0 2.6 1.7 4.2 5 2.3 4.9 2.5 5 6.7 5h4.3l-3.1-5.6-3.2-5.5 2.5-2.7c3.2-3.4 4.1-7.1 2.7-11-1.7-4.9-5.2-6.5-15.1-7l-8.8-.4zm15.8-7.7c3 3 0 7.8-4.9 7.8-2.8 0-2.9-.2-2.9-4.5 0-4.4.1-4.5 3.3-4.5 1.8 0 3.8.5 4.5 1.2zm13.2 2.8c0 12.3 1.3 16.8 5.4 19.5 3.8 2.5 11.9 2.4 15.4-.2 4.5-3.3 5.2-5.8 5.2-18.6v-11.8l-3.7.3-3.8.3-.3 11.5c-.3 12-1 14-5.3 14-4 0-4.9-2.6-4.9-14.6v-11.4h-8zm31 5v16h7v-8.5c0-8.9.8-10.3 3.5-6 .8 1.4 2.2 3.7 3.1 5.1l1.6 2.7 2.7-4.7c4.8-8.1 5.1-8 5.1 2.2v9.2h8v-32h-4.3c-4.2 0-4.3.1-7.5 6-1.9 3.3-3.7 5.8-4.2 5.5-.4-.3-2.2-3-3.9-6-3-5.2-3.3-5.5-7.1-5.5h-4zm-279 15.5v16.5l-2.7-.7c-4.8-1.4-18.7-.7-24.4 1.2-13.5 4.4-25 12.7-30.4 21.9-5.7 9.8-7.1 28.5-3 40.1 3.5 10.2 12.1 20.7 21.6 26.7 5.3 3.3 16.1 5.9 25.1 5.9 10 0 13.8-.5 22.8-3.4 15-4.6 23-10.9 28.7-22.5l3.8-7.6.3-47.3.3-47.3h-42.1zm-8.4 30.2c1.5 2.7 4.8 7.9 7.4 11.8 6.4 9.5 8.7 14.2 9.5 19.6 1 6.6-.9 12.2-5.8 17.3-11.4 11.9-30.6 6.6-34.8-9.6-1.6-6 0-13.6 4.4-20.7 6-9.6 15.2-23 15.9-23 .3-.1 1.9 2 3.4 4.6z"/><path d="m51.5 151.9c-4.1 1.8-9.2 8-9.5 11.6-.4 4.2.1 6.5 1.4 6.5.8 0 1.6.6 1.9 1.4.4 1 0 1.2-1.5.8-1.8-.4-1.9-.2-.9 1.4 3.3 5.7 7.9 8.9 14.4 9.8 4.7.7 4.9.6 4.7-1.6-.4-4-.1-4.6 2.3-5.4 1.2-.3 2.9-1.3 3.9-2.1 1.1-1 1.8-1.1 2.3-.4.8 1.4-.3 3.1-2.1 3.1-.8 0-1.4.9-1.4 1.9 0 1.1-.6 2.2-1.2 2.4-1 .4-.9.6.1.6 2.3.2 8.8-7.4 9.5-11.1 1.5-7.9-2.6-15.6-9.8-18.9-5.2-2.3-9-2.4-14.1 0zm8.5 2.6c1.1 1.3.8 1.4-2 .8-2.3-.4-3.1-.3-2.6.5.3.5 0 1.3-.6 1.6-.7.3-.1.3 1.5 0 1.5-.4 2.7-.3 2.7.2 0 1.3-4.3 5.4-5.7 5.4-.7 0-1.3.8-1.3 1.7 0 1.3.3 1.4 1.1.6 1.3-1.3 3.9-.6 5.7 1.5 1.5 1.9 1.6 3.2.2 3.2-.5 0-1-.7-1-1.6 0-.8-.5-1.2-1.1-.8-.6.3-.9 1.5-.6 2.5.6 2.3-.1 2.4-2.7.4-1.1-.8-2.7-1.3-3.6-1-.8.3-2-.3-2.7-1.3-1.2-2-.6-7.2.8-7.2.5 0 .9-.7.9-1.6 0-1.1-.5-1.4-1.7-1-1.1.4-.8-.2.8-1.7 3.6-3.7 9.7-4.8 11.9-2.2zm3.5 6.5c-.3.5-1.1 1-1.6 1-.6 0-.7-.5-.4-1 .3-.6 1.1-1 1.6-1 .6 0 .7.4.4 1zm1.4 4.1c-1.3.9-2.8 1.5-3.3 1.2s.2-1.4 1.5-2.4c1.3-.9 2.8-1.5 3.3-1.2s-.2 1.4-1.5 2.4zm.1 6.9c0 .5-.7.7-1.5.4-.8-.4-1.5-.8-1.5-1s.7-.4 1.5-.4 1.5.4 1.5 1zm-10 3.2c0 1.1-3.8 1-4.4-.1-.3-.5.5-.8 1.9-.7 1.4 0 2.5.4 2.5.8zm5.3.4c-.8.4-.9 1.3-.3 2.9.5 1.2.6 2.6.3 2.9-1 1-4.3.7-4.3-.4 0-.6.7-1 1.6-1 1.2 0 1.5-.6 1-2.5-.5-2-.3-2.5 1.1-2.4 1 0 1.3.3.6.5z"/><path d="m51.6 158.9c-.4.7-.5 1.5-.2 1.8.9.9 1.9-.4 1.4-1.8-.4-1.1-.6-1.1-1.2 0zm359.4-10.4.1 62.5h42.8l.6-5.3c.3-2.8.5-30.9.3-62.2l-.3-57-21.8-.3-21.7-.2zm-242.8-31.4c-20.5 1.9-35 11.6-41.3 27.6-1.9 4.8-2.3 7.7-2.4 17.3 0 12.3 1.9 19.7 7.1 28.2 6 9.5 18 17.7 29.3 19.8 2.9.5 18.8 1 35.3 1h29.9l-.3-29.3-.3-29.2-3.9-7.9c-10.4-20.6-28.3-29.9-53.4-27.5zm11.9 43.5c1.7.8 3.4 2.5 3.8 3.7 1 2.6-1 7.1-3.4 8.1-3.5 1.3-9.3.6-11.9-1.5-7.5-5.9 2.5-15 11.5-10.3zm98.4-43.2c-12.1 2.9-28.5 16.3-34.8 28.4-5.1 9.8-5.8 14.6-5.7 41.4l.1 23.8h41.9v-20.8c0-11.4.5-22.4 1-24.4 1.4-4.8 4.3-6.8 10.1-6.8 4 0 5.1.4 7.3 3.1 2.6 3.1 2.6 3.1 2.6 22.2 0 10.6.3 20.9.6 22.9l.7 3.8h31.4l.7-3.8c.3-2 .6-12.5.6-23.3v-19.6l2.6-2.7c3.4-3.3 10.8-3.7 14.5-.7 2.4 1.9 2.4 2.3 3 25.8.4 13.1.7 23.9.8 24 0 .2 9.5.3 21 .3h20.8l.2-23.3c.2-32.6-1.7-39.9-13.6-52.7-10.2-11.1-21.7-17.4-33.5-18.5-7.7-.8-19.6 2-27.5 6.5l-5.3 3-7.1-3.6c-7.4-3.7-17.7-6.4-23.9-6.3-1.9 0-5.8.6-8.5 1.3zm232.5-.4c-10 1-15.2 2.5-23.3 6.7-11.7 6.2-19 16.9-21 30.8-2.8 19.3 5.1 38.8 19.6 48.1 12.2 8 11.2 7.8 48.8 8.2l33.6.3.2-24.3c.1-13.7-.3-26.7-.9-29.8-1.4-7.6-8.4-21.2-13.5-26.5-6.8-7-19.3-12.4-32-13.8-2.2-.3-7.4-.1-11.5.3zm12.9 44.9c3.8 3.5 3.8 4.1.5 8-2.2 2.6-3.3 3.1-7 3.1-3.4 0-5.1-.6-6.9-2.5-3.1-3-3.2-5.5-.2-8.2 4.6-4.2 9.4-4.4 13.6-.4zm-371.5 78.9c-.7.4-1.6 2.3-2.2 4.2s-6.5 19.7-13.1 39.4c-6.7 19.8-12.1 36.3-12.1 36.8 0 .4 4.4.8 9.8.8h9.8l1.8-7 1.8-7.1 13.1.3 13.1.3 2 6.7 1.9 6.8h20.6l-13.6-40.3c-7.5-22.1-14.1-40.5-14.7-40.9s-4.7-.8-9.1-.8-8.5.4-9.1.8zm12.4 36.4c1.7 5.1 3.3 10.3 3.7 11.5.6 2.2.5 2.3-7 2.3-6.9 0-7.7-.2-7.3-1.8 2.3-8.6 6.4-21.2 7-21.2.4 0 2 4.2 3.6 9.2zm291.7-36.5-4 .4-13.7 40.4-13.7 40.5h9.8c11.1 0 10.3.6 13.2-9.8l1.2-4.2h25.6l2.2 7 2.3 7h20.4l-13.6-40.3c-7.4-22.1-13.6-40.3-13.6-40.3-.3-.5-12.9-1-16.1-.7zm9.5 37.5c1.7 5.7 3.3 10.9 3.5 11.5.3 1-1.5 1.3-7.1 1.3h-7.6l.6-2.8c1.7-6.8 6.1-20.2 6.8-20.2.4 0 2.1 4.6 3.8 10.2zm-412.3-36.5c-.4.3-.7 18.6-.7 40.5v39.8h20v-20.5c0-11.3.3-20.5.8-20.5.4 0 6.5 9.3 13.6 20.5l13 20.5h17.6v-81h-19v20c0 11-.4 20-.9 20-.8 0-4.4-5.4-21.1-31.8l-5.2-8.2h-8.7c-4.8 0-9.1.3-9.4.7zm153.3 39.8v40.5h19v-10.1c0-9.6.1-10.3 3-14.5 1.7-2.4 3.5-4.4 3.9-4.4s4.2 6.4 8.3 14.2l7.5 14.3 11.3.3c10.4.2 11.2.1 10.6-1.5-.4-1-5.9-11.4-12.3-23.2-7.7-14.3-11.3-21.9-10.7-22.7.5-.7 5.6-8 11.3-16.1s10.6-15.4 10.8-16.1c.4-.9-2-1.2-10.3-1.1h-10.9l-10.1 15.2c-5.5 8.3-10.6 15.3-11.2 15.5-.9.3-1.2-3.8-1.2-15.2v-15.6h-19zm71 0v40.5h50.5l-.3-9-.3-9h-29.9l-.2-31.3-.3-31.2-9.7-.3-9.8-.3zm60-38.8c0 1.6 2.2 3.3 16.2 12.6l2.8 1.9v-16.2h-9.5c-8.4 0-9.5.2-9.5 1.7zm27.3-1c.3.5 5.9 12 12.6 25.7l12.1 24.9v29.7h19v-29.8l12.5-25.1c6.9-13.8 12.5-25.3 12.5-25.6s-4.6-.5-10.3-.5h-10.3l-6.4 14.5c-3.5 8-6.7 14.5-7.2 14.5s-1.3-1.2-1.9-2.7c-1.1-3-1.6-4.1-7.8-17.6l-4-8.7h-10.6c-5.8 0-10.4.3-10.2.7zm130.1.6c-.3.8-.4 4.9-.2 9.3l.3 7.9 9.8.3 9.7.3v61.9h19v-61.9l9.7-.3 9.6-.3-.1-9-.1-9-28.6-.3c-23.3-.2-28.6 0-29.1 1.1zm-157.4 44.1v35.6h19v-58.5l-6.8-4.6c-3.7-2.5-7.9-5.4-9.4-6.4l-2.8-1.7zm-166 66.6c0 2 .8 2 115.5 2s115.5 0 115.5-2-.8-2-115.5-2-115.5 0-115.5 2zm8.5 33.9-10 .6v30.5h10.3c9.9 0 10.2-.1 10.2-2.3 0-2.1-.4-2.2-7.2-2.2h-7.3v-10l6.3-.3c5.4-.3 6.2-.6 6.2-2.2 0-1.8-.7-2-6.5-2h-6.5v-8h7.5c7.3 0 7.5-.1 7.5-2.5 0-1.4-.1-2.4-.2-2.3-.2.1-4.8.4-10.3.7zm19 15.3c5.1 14.9 5.3 15.3 8.2 15.6 3.3.3 2.5 2 10.7-21.1l3.5-9.7h-6.5l-3.4 11.5c-1.8 6.3-3.7 11.5-4.1 11.5-.5 0-1.6-2.6-2.4-5.8-4.4-15.5-4.9-16.7-8.2-17l-3.1-.3zm27.5.3v15.5h5.8c7.4-.1 13.5-2.8 15.7-7.1 1.3-2.4 1.6-5 1.3-10.2-.4-6.5-.6-7.1-4.1-10.3s-4-3.4-11.2-3.4h-7.5zm13.5-10.9c4.4 1.7 6 12.5 2.5 18.1-1.9 3.2-7.5 5.3-9.9 3.8-.7-.4-1.1-4.9-1.1-11.6v-10.9h3.4c1.9 0 4.2.3 5.1.6zm16.5 10.9v15.5h10.5c9.8 0 10.5-.1 10.5-2 0-1.7-.8-1.9-7.2-2.2l-7.3-.3-.3-5.3-.3-5.2h6c5.4 0 6.1-.2 6.1-2s-.7-2-6-2h-6v-8h7.5c6.8 0 7.5-.2 7.5-2 0-1.9-.7-2-10.5-2h-10.5zm26.1 0-.2 15.5h6.1v-10.7c0-12.5-.1-12.5 8.1 1 4.5 7.5 6 9.3 8.2 9.5l2.7.3v-31.1h-5v10c0 5.5-.3 10-.8 10-.4 0-3.4-4.5-6.7-10-5.5-9.3-6.2-10-9.1-10h-3.1zm43.9 0v15.5h10.5c9.8 0 10.5-.1 10.5-2 0-1.7-.8-1.9-7.2-2.2l-7.3-.3-.3-5.3-.3-5.2h6c5.4 0 6.1-.2 6.1-2s-.7-2-6-2h-6v-8h7.5c6.8 0 7.5-.2 7.5-2 0-1.9-.7-2-10.5-2h-10.5zm24.5-13.8c.4 1 2.8 7.9 5.4 15.3 4.5 13.1 4.8 13.5 7.7 13.8l3.1.3 5.2-14.8c2.8-8.1 5.1-15.1 5.1-15.6 0-.4-1.3-.7-2.8-.7-2.7 0-2.9.4-6.2 11-1.8 6.1-3.7 11.3-4.1 11.6-.5.2-2-3.5-3.4-8.3-1.5-4.8-3-9.9-3.4-11.3-.6-1.9-1.5-2.6-4.1-2.8-2.8-.3-3.2-.1-2.5 1.5zm32.5 13.8v15.5h10c9.3 0 10-.1 10-2 0-1.7-.8-1.9-7.2-2.2l-7.3-.3v-10l6.3-.3c5.4-.3 6.2-.6 6.2-2.2 0-1.8-.7-2-6.5-2h-6.5v-8h7.5c6.8 0 7.5-.2 7.5-2 0-1.9-.7-2-10-2h-10zm-247 35.3c-4.9 2.4-6.7 6-5.1 10 1 2.5 2.9 3.9 8.6 6.6 7.9 3.7 9.1 5.3 6.9 8.5-2.8 3.9-11.4 1.8-11.4-2.7 0-.7-1.4-1.2-3.1-1.2-2.7 0-3 .3-2.3 2.2 1 3.4 2.5 4.9 6.2 6.5 1.7.7 3.2 2 3.2 2.8s.7 1.5 1.5 1.5c1.8 0 2 3.6.3 4.3-2.3.8 0 2 2.5 1.3 3-.7 4.1-4.1 2-6.1-1.7-1.8-.9-3.5 1.7-3.5 2.7 0 6-3.9 6-7.1 0-3.8-3.3-7.5-8.8-9.5-5.6-2.1-8.2-4.1-8.2-6.4 0-4.5 7.8-5.7 10.6-1.5 1.7 2.6 6.4 3.5 6.4 1.2s-3.2-5.9-6.6-7.3c-4.4-1.8-6.2-1.8-10.4.4zm186.5-1.1c-6.3 1.7-9.5 7.2-9.5 16.3 0 6.4.9 9 4.3 12.7 4.4 4.8 14.8 3.8 18.8-1.8 3.1-4.4 3.7-15.1 1.2-19.8-3-5.8-9.3-8.9-14.8-7.4zm7.1 5.1c2.3 1.5 3.4 5.3 3.4 11.5 0 7.8-2.4 11.7-7 11.7-5.6 0-8.9-6.5-7.7-15.1.8-6 3.1-8.9 7-8.9 1.7 0 3.7.4 4.3.8zm-224.8 10.7-.3 15.5h10.3c9.5 0 10.2-.1 10.2-2 0-1.8-.7-2-7.5-2h-7.5v-10h6.5c5.8 0 6.5-.2 6.5-2s-.7-2-6.6-2h-6.5l.3-4.3.3-4.2 7.3-.3c6.4-.3 7.2-.5 7.2-2.2 0-1.9-.7-2-10-2h-9.9zm52.2-15c0 .2 2.3 4.7 5 9.8 4.3 8.1 5 10.1 5 15 0 5.7 0 5.7 3 5.7s3-.1 3-5.5c0-4.6.8-7.1 5-15.5l5-10h-3c-2.8 0-3.3.6-6.1 7-1.8 3.8-3.5 7-4 7-.4 0-2.2-3.2-4-7-2.9-6.3-3.5-7-6-7-1.6 0-2.9.2-2.9.5zm36.7.2c-.3.4-2.2 5.3-4.2 10.8-2.1 5.5-4.6 12.1-5.6 14.7l-1.9 4.8h2.9c2.3 0 3.1-.6 4-3 1-2.9 1.2-3 7.5-3 6.2 0 6.4.1 7.5 3 .8 2.4 1.6 3 3.9 3h3l-5.8-15.3c-5.2-13.6-6.1-15.2-8.3-15.5-1.4-.2-2.7 0-3 .5zm4.8 11.4c3 8.5 3.1 7.9-2 7.9-3.9 0-4.6-.3-4.1-1.6.4-.9 1.1-3.6 1.7-6.1 1.3-5.1 2.7-5.1 4.4-.2zm29.5 3.4v15.5h6.8c11.8 0 16.7-5.1 16-16.6-.3-5-.9-6.9-2.8-9-3.5-3.7-8-5.4-14.5-5.4h-5.5zm13.7-10c4.8 3.3 5.4 13.6 1.2 18.9-1.6 2-2.9 2.6-6 2.6h-3.9v-10.8c0-6 .3-11.2.7-11.5 1.2-1.2 5.8-.7 8 .8zm16.3 10v15.5h10.3c9.6 0 10.3-.1 10.4-2 .2-1.8-.4-2-7.8-2h-8l.3-4.8.3-4.7 6.3-.3c5.3-.3 6.2-.6 6.2-2.2s-.9-1.9-6.2-2.2l-6.3-.3v-8l7.8-.3c6.9-.3 7.7-.5 7.7-2.2 0-1.9-.7-2-10.5-2h-10.5zm26-.1v15.6h3c3 0 3-.1 3-5.4v-5.3l5.6-.6c9.1-.9 13.3-5.3 11.6-12-1.3-5.2-5.1-7.1-14.8-7.6l-8.4-.3zm15.8-9.8c2.4 1.7 3 6.2 1 8.2-.7.7-3.4 1.2-6 1.2h-4.8v-11h3.8c2.1 0 4.8.7 6 1.6zm46.2 9.9v15.5h9.5c8.8 0 9.5-.1 9.5-2 0-1.8-.7-2-7-2h-7v-27h-5zm31.4-8.3c-1.5 4-4 10.7-5.6 14.8-1.5 4.1-2.8 7.8-2.8 8.2 0 .5 1.3.8 2.9.8 2.5 0 3.1-.5 3.6-3 .7-3 .7-3 7.5-3 6.7 0 6.8 0 7.4 3 .5 2.6 1 3 3.7 3 2.6 0 3-.3 2.4-1.8-2.4-5.7-7.9-20.4-9.3-24.5s-1.9-4.7-4.3-4.7c-2.5 0-3 .7-5.5 7.2zm7.9 6.1c.9 3 1.7 5.7 1.7 6 0 .4-2 .7-4.4.7h-4.5l1.5-4.8c.9-2.6 1.7-5.3 2-6 .7-2.5 2.1-1 3.7 4.1zm16.7 2.2v15.5h6.2l-.7-11.6c-.4-6.6-.3-11.4.2-11.1s2.6 5.5 4.8 11.6c3.3 9.2 4.3 11.1 6 11.1s2.7-1.8 5.9-10.8c2.1-5.9 4.3-11.2 4.8-11.7.7-.6.8 3.2.3 10.7l-.7 11.8h6.2v-31h-7.7l-4 11.2c-2.1 6.2-4.3 11.3-4.7 11.3-.5 0-2.7-5.1-4.9-11.3l-4-11.2h-7.7zm49.7-14.8c-.3.5-2.2 5.3-4.2 10.8-2.1 5.5-4.6 12.1-5.6 14.7l-1.9 4.8h2.9c2.3 0 3.1-.6 4-3 1-2.9 1.2-3 7.5-3 6.2 0 6.4.1 7.5 3 .8 2.4 1.6 3 4 3 3 0 3 0 1.7-3.3-.7-1.7-3.5-8.7-6-15.5-4.2-10.8-5-12.2-7.1-12.2-1.3 0-2.6.3-2.8.7zm4.8 11.4c3 8.5 3.1 7.9-2 7.9-4.1 0-4.6-.2-4-1.8.3-.9 1.1-3.6 1.8-6 1.3-4.9 2.6-5 4.2-.1zm-285.5 50.4c0 1.3 13.5 1.5 115.5 1.5s115.5-.2 115.5-1.5-13.5-1.5-115.5-1.5-115.5.2-115.5 1.5z"/></svg>