<svg height="602" viewBox="144.8 62 791.4 217.8" width="2500" xmlns="http://www.w3.org/2000/svg"><path d="m662.3 149.5c.7 3.1 1.2 6.4 1.2 9.8v-9.8z" fill="none"/><path d="m354.2 116.2h-34.8c-23.7 0-43 19.4-43 43s19.4 43 43 43h34.8c23.7 0 43-19.4 43-43s-19.4-43-43-43zm0 66.3h-34.8c-12.8 0-23.2-10.5-23.2-23.2s10.5-23.2 23.2-23.2h34.8c12.8 0 23.2 10.5 23.2 23.2s-10.4 23.2-23.2 23.2zm-128.8-66.3h-35.4c-8.7 0-16.8 2.6-23.6 6.9v-61h-.1c-10.9 0-19.7 8.8-19.7 19.7v72.8c-.2 1.5-.3 3-.3 4.6s.1 3.1.3 4.6v.1c2.4 21.5 21 38.4 43.4 38.4h35.4c24 0 43.7-19.4 43.7-43s-19.7-43.1-43.7-43.1zm0 66.3h-35.4c-13 0-23.6-10.5-23.6-23.2s10.6-23.3 23.6-23.3h35.4c13 0 23.6 10.5 23.6 23.2s-10.7 23.3-23.6 23.3zm290.7 0c-7.9 0-15-4.1-19.2-10.2-2.6-3.8-3.8-8.5-3.8-13.2v-97c-10.9 0-20 8.8-20 19.7v74.4c-.1 1-.1 2-.1 3.1 0 15.2 8.1 28.7 20.1 36.3 6.7 4.2 14.5 6.7 22.9 6.7h23.8v-19.8zm146.2-33c-4.5-19-21.8-33.3-42.4-33.3h-35.3c-20.6 0-37.9 14.3-42.4 33.3-.7 3.1-1.2 6.4-1.2 9.8 0 3.5.4 6.8 1.2 10 2.4 9.6 8 18 15.7 23.9 7.4 5.7 16.6 9.1 26.6 9.1h71.9v-19.8h-71.9c-9.3 0-17.4-5.4-21.2-13.2h100.2v-10c0-3.4-.5-6.7-1.2-9.8zm-24.1 0h-74.9c3.8-7.9 11.9-13.5 21.3-13.5h35.3c9.4 0 17.5 5.5 21.3 13.5zm10.4-74 5 15.4-45.9 14.9c-2.6-8.8 2.3-18.1 11-20.9zm-200.7 107c-7.9 0-15-4.1-19.2-10.2-2.6-3.8-3.8-8.5-3.8-13.2v-97c-10.9 0-20 8.8-20 19.7v74.4c-.1 1-.1 2-.1 3.1 0 15.2 8.1 28.7 20.1 36.3 6.7 4.2 14.5 6.7 22.9 6.7h23.8v-19.8zm-303.1 66.9c0 6 4.9 10.9 10.9 10.9h48.6c4.3 0 7.9 3.5 7.9 7.9 0 4.3-3.5 7.9-7.9 7.9h-57.5v3h57.5c6 0 10.9-4.9 10.9-10.9s-4.9-10.9-10.9-10.9h-48.6c-4.3 0-7.9-3.5-7.9-7.9s3.5-7.9 7.9-7.9h60.3v-3h-60.2c-6.1-.1-11 4.8-11 10.9zm128.1-11h-35.3c-7.5 0-13.7 6.1-13.7 13.7v25.5h3v-17.3h56.5v17.3h3v-25.5c.1-7.5-6-13.7-13.5-13.7zm10.6 18.8h-56.5v-5.1c0-5.9 4.8-10.6 10.6-10.6h35.3c5.9 0 10.6 4.8 10.6 10.6zm11.1-5.1v25.5h3v-17.3h59.6v-3h-59.6v-5.1c0-5.9 4.8-10.6 10.6-10.6h49v-3h-49c-7.5-.2-13.6 6-13.6 13.5zm69.8 7c0 11.4 9.3 20.7 20.7 20.7h42v-3h-42c-9.3 0-17-7.3-17.6-16.5h59.6v-3h-59.5c.9-8.9 8.4-15.8 17.5-15.8h42v-3h-42c-11.4-.1-20.7 9.2-20.7 20.6zm71.5-17.6h29.1v36.8h3.1v-36.8h31.9v-3.1h-64.1zm129.8-1.5v17.6h-49.7c-4.1 0-7.4-3.3-7.4-7.4v-10.2h-3v10.2c0 5.8 4.7 10.4 10.4 10.4h49.7v8.3c0 4.1-3.3 7.4-7.4 7.4h-43.1v3h43.1c5.8 0 10.4-4.7 10.4-10.4v-28.9zm369.2-153.3c-1.1-1.3-2.8-1.9-4.5-1.4-56.5 17-92 10.1-108.5-21.1-.7-1.4-2.2-2.2-3.7-2.2-1.6 0-3 .9-3.7 2.2-16.5 31.3-52 38.2-108.5 21.2-1.6-.5-3.4.1-4.5 1.4s-1.2 3.2-.4 4.7l44 79.9c0 .3-.1.6-.1.9v23.9c0 3.5 2.8 6.3 6.3 6.3h133.9c3.5 0 6.3-2.8 6.3-6.3v-23.9c0-.3 0-.6-.1-.9l44-79.9c.8-1.6.6-3.4-.5-4.8zm-51.8 107.3h-129.7v-19.7h129.7zm1.7-28.2h-133.1l-38.4-69.7c51 13.4 86.3 6.1 104.9-21.8 18.7 27.8 53.9 35.1 104.9 21.8z"/></svg>