<svg height="395" viewBox="5.39 4.07 235.22 40.4" width="2500" xmlns="http://www.w3.org/2000/svg"><path d="m26.68 20.29c1.73 2.21 2.6 5.29 2.6 9.24 0 4.58-1.14 8.1-3.4 10.58-2.27 2.48-5.41 3.71-9.43 3.71-1.9 0-3.98-.43-6.25-1.28l-3.91 1.4-.9-.74.39-10.6-.33-27.97 7.37-.56-.22 16.91h.33c1.04-1 2.05-1.81 3.01-2.43.97-.61 2.05-1.14 3.24-1.59 3.27.01 5.77 1.12 7.5 3.33zm-5.89 16.66c1.04-1.34 1.56-3.38 1.56-6.14 0-2.57-.42-4.52-1.26-5.86s-2.09-2.01-3.77-2.01c-1.53 0-3.13.78-4.8 2.34l-.11 6.36.11 6.31c1.38.67 2.68 1 3.91 1 1.87.01 3.32-.66 4.36-2zm86.78-.11.61.56-.73 4.41c-1.9.97-3.83 1.56-5.8 1.79-5.02-.52-7.53-2.98-7.53-7.37l.28-4.63-.06-9.6h-3.46l-.28-.4.39-4.07h3.29v-4.3l6.75-2.18.5.45-.17 6.03h6.64l.22.39-.34 4.07h-6.64l-.34 12.5c0 1.19.22 2.04.67 2.54s1.19.75 2.23.75c1.22 0 2.46-.31 3.77-.94zm24.33-5.64-15.07.11c.33 4.65 2.7 6.98 7.09 6.98 2.31 0 4.87-.65 7.7-1.95l.61.39-1.12 5.52c-2.83 1.04-5.49 1.56-7.98 1.56-4.09 0-7.3-1.19-9.63-3.57s-3.49-5.67-3.49-9.88c0-4.17 1.13-7.47 3.4-9.91s5.34-3.65 9.21-3.65c3.31 0 5.87.9 7.67 2.71 1.8 1.8 2.71 4.33 2.71 7.56 0 .86-.09 1.94-.28 3.24zm-5.36-4.97c0-1.49-.33-2.61-1-3.38s-1.66-1.15-2.96-1.15c-1.45 0-2.66.47-3.63 1.42s-1.62 2.32-1.95 4.1l9.43-.22zm27.46-8.09-1 5.47-.89.28c-1.08-.71-2.16-1.25-3.24-1.62s-2.03-.56-2.85-.56c-.89 0-1.6.23-2.12.7s-.78 1.03-.78 1.7c0 .78.34 1.41 1.03 1.9.69.48 1.78 1.02 3.26 1.62 1.49.6 2.72 1.17 3.68 1.73.97.56 1.79 1.33 2.48 2.32s1.03 2.21 1.03 3.66c0 1.49-.38 2.87-1.14 4.16-.76 1.28-1.92 2.33-3.49 3.12-1.56.8-3.48 1.2-5.75 1.2-2.68 0-5.45-.56-8.31-1.67l.84-5.8.73-.45c1.15.97 2.44 1.74 3.85 2.32s2.66.86 3.74.86c1 0 1.79-.25 2.34-.75.56-.5.84-1.11.84-1.81 0-.78-.34-1.41-1.03-1.9-.69-.48-1.78-1.02-3.26-1.62-1.53-.67-2.77-1.27-3.74-1.81s-1.8-1.31-2.48-2.32c-.69-1-1.03-2.25-1.03-3.74 0-2.42.91-4.4 2.73-5.94s4.3-2.32 7.42-2.32c2.53-.01 4.91.41 7.14 1.27zm21.54 8.93c.04-1.3-.25-2.32-.87-3.04-.61-.72-1.5-1.09-2.65-1.09-1.67 0-3.46.8-5.36 2.4v6.47l.34 11.44h-7.42l.39-10.72-.28-14.73 7.03-.61v3.8h.39c2.05-1.86 4.28-3.2 6.7-4.02 2.83 0 4.98.64 6.47 1.93 1.49 1.28 2.19 3.13 2.12 5.55l-.17 7.42.33 11.38h-7.48zm38.34 11.33-.67 3.91c-1.38.89-2.79 1.36-4.24 1.4-1.08-.19-1.97-.61-2.68-1.28s-1.25-1.64-1.62-2.9h-.5c-2.12 2.08-4.32 3.44-6.58 4.07-2.83 0-4.98-.64-6.45-1.92s-2.19-3.13-2.15-5.55l.11-6.58-.28-11.72 7.2-.61-.17 16.46c-.04 1.3.22 2.29.78 2.96s1.4 1 2.51 1c1.64 0 3.25-.72 4.86-2.18v-17.65l7.09-.61-.5 19.31c0 .6.1 1.02.31 1.28s.53.39.98.39c.41 0 .91-.08 1.51-.22zm11.61-6.59.39 11.44h-7.42l.39-10.77-.33-27.85 7.42-.56zm14.67 0 .39 11.44h-7.42l.39-10.77-.33-27.85 7.42-.56z" fill="#171945"/><path d="m48.79 43.65c-.85 0-1.75-.07-2.68-.24-4.54-.79-8.19-3.15-10.28-6.65a12.946 12.946 0 0 1 -1.17-10.77c1.34-4.01 4.4-6.96 8.61-8.32 5.25-1.69 11.96-.62 16.44 2.62l-2.84 5.06c-2.91-2.1-8.37-3.11-11.78-2.01-1.67.54-3.86 1.76-4.78 4.54-.65 1.94-.42 4.07.64 5.83 1.21 2.02 3.34 3.35 6.18 3.84 6.57 1.14 9.15-4.76 9.42-5.43l.11-.24 3.04-6.06c2.98-5.98 9.26-9.71 15.62-9.26 5.68.4 10.17 3.96 12.03 9.52 1.17 3.49.66 7.56-1.36 10.88-2.14 3.51-5.62 5.81-9.8 6.47-6.55 1.04-12.82-3.87-13.54-4.44l2.74-5.03c1.4 1.1 6.49 4.12 9.87 3.59 2.42-.38 4.43-1.69 5.64-3.68 1.12-1.84 1.42-4.05.8-5.9-1.48-4.44-4.89-5.33-6.8-5.46-3.32-.24-7.66 1.53-9.88 5.98l-2.98 5.95c-1.41 3.46-5.79 9.21-13.25 9.21z" fill="#ed3248"/></svg>