<svg height="413" viewBox="-.08 14.99 89.38 29.78" width="2500" xmlns="http://www.w3.org/2000/svg"><path d="m1.33 27.98s2.95-2.95 6.43-4.55c1.69-.84 4.97-2.35 7.46-2.77 1.41-.09 5.21-.75 6.19 3.05.05.84.09 3.52-3.85 5.91-1.03.56-5.25 2.25-5.44 5.35.84-.42 2.35-1.55 3.61-1.69s5.21-.09 4.27 3c-.38.84-4.13 6.61-14.02 6.75.89.33 7.41 1.74 12.99-.98.98-.52 7.93-3.52 7.79-8.07 0-.84.12-3.05-3.38-4.64.84-.89 4.88-4.52 2.77-8.78-.56-.93-2.86-5.57-9.85-3.89-.75.19-4.6 1.22-9.19 4.83-.8.7-2.49 2.16-4.46 4.69-.8.84-1.31 1.78-1.31 1.78z" fill="#00a95b"/><path d="m16.38 22.12s-4.83 4.13-6.52 6.99c-.23.28-3.38 4.78-1.97 8.35.14.47 1.74 2.25 6.15.47 1.69-.66 4.03-2.06 4.03-2.06s-.94.98-2.11 2.16c-.75.66-3.28 3.05-7.69 4.17-1.55.33-6.1 1.13-7.41-2.11-.19-.47-.94-3.56 3.52-9.19.98-1.03 3.38-4.17 8.07-6.99 1.41-.89 3.94-1.78 3.94-1.78z" fill="#ffcd2d"/><path d="m30.36 36.28h58.7" fill="none" stroke="#00a95b" stroke-miterlimit="10" stroke-width=".47"/><path d="m30.69 19.68c0-.76 0-1.64-.37-2.21 1.49 0 3.01-.17 4.49-.17 1.32 0 2.52.57 2.52 2.04s-1.16 2.18-2.36 2.68v.03c1.57.35 2.92.98 2.92 2.8 0 2.67-2.03 3.44-4.32 3.44-1.15 0-2.28-.07-3.43-.07.56-1.2.56-2.94.56-4.24v-4.32zm1.52 2.3h.46c1.49 0 3-.47 3-2.26 0-1.52-1.03-1.74-2.41-1.74-.32 0-.68.03-1.05.07zm0 3.27c0 1.96 0 2.38 1.13 2.38 1.72 0 2.79-.68 2.79-2.48 0-2.31-1.69-2.57-3.63-2.57h-.29zm7.6-1.84c0-1.2 0-2.36-.44-2.72.62-.02 1.22-.08 1.42-.08.3 0 .12.84.3.84.08 0 .64-1.01 1.64-1.01.59 0 .93.24.93.64 0 .32-.17.56-.59.56-.32 0-.66-.05-1.06-.05-.84 0-.95.59-.95 1.33v3.48c0 .62 0 1.35.3 1.84h-1.86c.3-.49.3-1.22.3-1.84v-2.99zm8.76 4.93c-.15-.62-.13-1.05-.27-1.05-.07 0-.08.03-.1.05-.44.64-.79 1.16-1.98 1.16s-2.09-.64-2.09-1.87c0-1.47 1.91-2.08 3.04-2.62.96-.46 1.2-.49 1.2-1.59 0-.84-.32-1.49-1.32-1.49-1.6 0-.95 1.62-2.04 1.62-.37 0-.62-.19-.62-.59 0-1.15 1.7-1.54 3-1.54 1.2 0 2.23.27 2.23 1.37v3.71c0 1-.05 2.03.47 2.72l-1.52.1zm-1.72-.77c1.01 0 1.52-.91 1.52-1.87v-1.71l-.91.46c-1.25.62-1.91.96-1.91 1.92 0 .81.54 1.2 1.3 1.2zm9.66-5.22h-.08c-.41-.78-.71-1.3-1.69-1.3-1.5 0-2.33 1.55-2.33 3.41 0 1.69.62 3.11 2.48 3.11.62 0 1.37-.25 1.84-.76v.27c0 .88-1.18 1.43-2.46 1.43-2.13 0-3.38-1.74-3.38-3.78 0-2.43 1.57-4.29 4.07-4.29.83 0 1.55.17 1.55.24zm2.53 1.03c-.03.32-.07.59-.07.95 0 1.57.71 3.07 2.46 3.07.83 0 1.64-.34 2.04-.79v.19c0 .89-1.42 1.72-2.67 1.72-2.21 0-3.26-1.99-3.26-4.03 0-2.19 1.22-4.03 3.53-4.03 1.62 0 2.58 1.06 2.58 2.16 0 .78-.56.78-1.6.78h-3.02zm1.84-.51c.83 0 1.27 0 1.27-.64s-.46-1.28-1.28-1.28c-1.06 0-1.52 1.03-1.72 1.92h1.74zm4.19-3.19c0-.76 0-1.64-.37-2.21 1.35 0 2.65-.17 3.97-.17 2.14 0 3.14 1.18 3.14 2.84 0 1.94-1.2 3.38-3.21 3.38-.89 0-1.15-.17-1.47-.37 1.3-.17 2.92-.39 2.92-2.84 0-1.32-.39-2.33-2.11-2.33h-1.35v8.05c0 .68.05 1.62.44 2.21h-2.33c.39-.59.37-1.54.37-2.21zm10.38 8.83c-2.33 0-3.26-1.91-3.26-3.75 0-2.62 1.45-4.32 3.98-4.32 2.33 0 3.26 1.91 3.26 3.75 0 2.62-1.45 4.32-3.98 4.32zm.56-.61c1.59 0 2.01-1.57 2.01-2.97 0-1.98-.61-3.88-2.4-3.88-1.59 0-2.01 1.57-2.01 2.97 0 1.98.61 3.88 2.4 3.88zm4.9-4.49c0-1.2 0-2.36-.44-2.72.62-.02 1.22-.08 1.42-.08.3 0 .12.84.3.84.08 0 .64-1.01 1.64-1.01.59 0 .93.24.93.64 0 .32-.17.56-.59.56-.32 0-.66-.05-1.06-.05-.84 0-.95.59-.95 1.33v3.48c0 .62 0 1.35.3 1.84h-1.86c.3-.49.3-1.22.3-1.84v-2.99zm6.28-5.09v2.4h1.38c.07 0 .15 0 .15.12 0 .35-.71.49-1.25.49h-.29v5.18c0 .56.08 1.03.76 1.03.3 0 .84-.22 1.03-.41l-.07.73c-.02.15-.81.66-1.45.66-1.11 0-1.52-.73-1.52-1.76v-5.44h-.71v-.54l.71-.07.07-2.08 1.18-.32zm-56.68 11.84h.47v4.19h3.25l-.09.32h-3.63zm9.43 2.22c0 1.23-.88 2.35-2.75 2.35-1.7 0-2.7-1.02-2.7-2.32s.96-2.32 2.76-2.32c1.66 0 2.69.97 2.69 2.29zm-4.94.01c0 1.04.77 2.02 2.22 2.02 1.56 0 2.22-.95 2.22-2.02s-.74-1.97-2.2-1.97c-1.56 0-2.24.96-2.24 1.98zm10.82 2.28h-.39c-.03-.05-.05-.28-.06-.72-.22.31-.69.77-1.95.77-1.74 0-2.63-.99-2.63-2.27 0-1.35.95-2.36 2.72-2.36 1.31 0 2.17.51 2.36 1.34h-.47c-.26-.64-.86-1.02-1.91-1.02-1.51 0-2.2.88-2.2 2.02 0 1.03.67 1.96 2.14 1.96s1.94-.73 1.94-1.73v-.05h-1.95v-.32h2.4zm1.91-4.51v4.51h-.47v-4.51zm1.61 3.3c.18.6.72.95 1.71.95 1.11 0 1.53-.41 1.53-.9s-.3-.82-1.63-1.07c-1.28-.24-1.83-.55-1.83-1.2 0-.59.58-1.15 1.88-1.15s1.89.61 1.97 1.15h-.48c-.14-.48-.56-.83-1.51-.83-.87 0-1.35.3-1.35.8s.4.69 1.51.9c1.7.32 1.95.82 1.95 1.37 0 .66-.65 1.24-2.05 1.24-1.51 0-2.07-.66-2.18-1.26zm6.15-2.98h-2.03v-.32h4.55v.32h-2.04v4.19h-.48zm3.76-.32v4.51h-.47v-4.51zm6.13 3.3c-.29.71-.99 1.26-2.27 1.26-1.74 0-2.65-1.03-2.65-2.3s.9-2.33 2.66-2.33c1.31 0 2.07.54 2.27 1.3h-.47c-.28-.59-.79-.97-1.83-.97-1.5 0-2.14 1.02-2.14 2s.62 1.98 2.17 1.98c.99 0 1.49-.38 1.79-.93h.47zm1.28 0c.18.6.72.95 1.71.95 1.11 0 1.53-.41 1.53-.9s-.3-.82-1.63-1.07c-1.28-.24-1.83-.55-1.83-1.2 0-.59.58-1.15 1.88-1.15s1.89.61 1.97 1.15h-.48c-.14-.48-.56-.83-1.51-.83-.87 0-1.35.3-1.35.8s.4.69 1.51.9c1.7.32 1.95.82 1.95 1.37 0 .66-.65 1.24-2.05 1.24-1.51 0-2.07-.66-2.18-1.26zm-35.88 4.62h1.35c.46 0 .83.15 1.09.44.26.3.39.71.39 1.23s-.13.93-.39 1.23c-.26.29-.63.44-1.09.44h-1.35v-3.33zm1.16 3.06c.38 0 .66-.06.83-.19.33-.24.49-.63.49-1.16 0-.8-.28-1.27-.83-1.39a2.12 2.12 0 0 0 -.5-.04h-.83v2.78h.83zm2.97-.89c0 .66.29 1 .85 1 .38 0 .64-.19.78-.59l.29.05c-.19.51-.55.77-1.08.77-.77 0-1.15-.42-1.15-1.26 0-.39.1-.7.31-.93.2-.22.48-.34.84-.34.74 0 1.11.43 1.12 1.3h-1.95zm1.63-.24c-.05-.56-.32-.84-.8-.84s-.76.28-.83.84zm1.34-1.93v3.33h-.29v-3.33zm1.36 0v.43h-.29v-.43zm0 .92v2.41h-.29v-2.41zm1.38 0 .84 2.07.84-2.07h.32l-1.02 2.41h-.27l-1.02-2.41h.32zm2.88 1.23c0 .66.29 1 .85 1 .38 0 .64-.19.78-.59l.29.05c-.19.51-.55.77-1.08.77-.77 0-1.15-.42-1.15-1.26 0-.39.1-.7.31-.93.2-.22.48-.34.84-.34.74 0 1.11.43 1.12 1.3h-1.95zm1.63-.24c-.05-.56-.32-.84-.8-.84s-.76.28-.83.84zm1.55-1.01v.49c.12-.36.32-.54.59-.54.14 0 .29.05.45.15l-.12.24c-.15-.06-.27-.09-.34-.09-.37 0-.55.35-.55 1.04v1.13h-.3v-2.41h.27zm1.9-.92v.43h-.29v-.43zm0 .92v2.41h-.29v-2.41zm1.51 0v.36c.22-.27.49-.41.82-.41.38 0 .64.13.77.39.06.12.09.29.09.5v1.58h-.3v-1.5c0-.48-.2-.73-.59-.73-.19 0-.35.06-.49.17-.15.12-.24.27-.26.45-.02.1-.03.29-.03.56v1.05h-.3v-2.41h.3zm5.06 0v2.22c0 .78-.41 1.17-1.23 1.17-.66 0-1.01-.24-1.04-.71l.29.05c.06.28.3.43.72.43.64 0 .96-.29.96-.88v-.24c-.24.28-.56.42-.95.42-.34 0-.61-.11-.82-.34s-.31-.53-.31-.91.1-.69.31-.92c.2-.23.48-.35.82-.35.22 0 .41.04.57.12.14.07.27.18.38.34v-.41h.3zm-1.18.18c-.59 0-.88.34-.88 1.02 0 .32.08.57.24.76s.37.28.64.28.49-.09.65-.27.24-.43.24-.74c0-.7-.3-1.05-.89-1.05zm3.78-.19.67 2.06.6-2.06h.27l.6 2.06.68-2.06h.3l-.84 2.41h-.3l-.58-1.98-.57 1.98h-.3l-.85-2.41h.31zm4.49-.92v.43h-.29v-.43zm0 .92v2.41h-.29v-2.41zm1.57-.04h.47v.21h-.47v1.59c0 .28.09.43.28.43.04 0 .12 0 .23-.03l.04.23c-.14.02-.25.03-.31.03-.2 0-.34-.04-.42-.13s-.11-.25-.11-.48v-1.62h-.35v-.21h.35v-.62l.3-.19v.8zm1.76-1.15v1.38c.24-.3.53-.44.87-.44.4 0 .68.14.82.42.07.13.1.31.1.54v1.71h-.32v-1.62c0-.52-.21-.79-.63-.79-.2 0-.37.06-.53.19s-.25.29-.28.48c-.02.11-.03.31-.03.6v1.13h-.32v-3.61h.32zm5.7.28c.42 0 .72.09.92.26.21.19.31.42.31.69 0 .3-.11.53-.33.71s-.52.27-.9.27h-.97v1.41h-.37v-3.33h1.34zm-.97 1.64h.87c.64 0 .96-.23.96-.68 0-.32-.14-.52-.42-.61-.12-.04-.3-.06-.54-.06h-.87v1.36zm3.09-.07c.1-.47.5-.71 1.2-.71.48 0 .8.1.93.31.08.13.13.37.13.72v.68c-.01.3.04.55.15.76h-.36c-.05-.11-.08-.23-.1-.36-.3.28-.68.42-1.14.42-.58 0-.88-.22-.88-.67 0-.34.19-.56.57-.66.12-.03.32-.07.58-.1.38-.05.66-.1.83-.15v-.18c0-.36-.24-.54-.73-.54s-.77.18-.86.54l-.33-.04zm1.92.46c-.16.06-.46.12-.88.18-.29.05-.49.1-.6.17s-.16.17-.16.31c0 .29.2.43.61.43.22 0 .42-.05.61-.14.19-.1.31-.22.36-.36.04-.11.06-.26.06-.44zm3.05-.49c-.11-.3-.34-.45-.7-.45-.45 0-.67.13-.67.39 0 .12.06.22.18.29s.34.13.66.19c.65.12.97.35.97.69 0 .49-.36.74-1.09.74-.63 0-1.01-.23-1.14-.71l.33-.05c.1.35.37.53.81.53.49 0 .73-.16.73-.47 0-.21-.27-.37-.81-.47-.65-.12-.98-.35-.98-.68 0-.2.09-.37.27-.49s.42-.19.71-.19c.57 0 .91.21 1.04.64l-.32.04zm2.94 0c-.11-.3-.34-.45-.7-.45-.45 0-.67.13-.67.39 0 .12.06.22.18.29s.34.13.66.19c.65.12.97.35.97.69 0 .49-.36.74-1.09.74-.63 0-1.01-.23-1.14-.71l.33-.05c.1.35.37.53.81.53.49 0 .73-.16.73-.47 0-.21-.27-.37-.81-.47-.65-.12-.98-.35-.98-.68 0-.2.09-.37.27-.49s.42-.19.71-.19c.57 0 .91.21 1.04.64l-.32.04zm1.47-1.54v.42h-.32v-.42zm0 .92v2.41h-.32v-2.41zm2.37 2.46c-.38 0-.68-.11-.91-.34-.22-.22-.33-.53-.33-.91 0-.85.42-1.28 1.25-1.28.33 0 .6.08.81.25.29.22.44.56.44 1.02 0 .83-.42 1.25-1.25 1.25zm.02-2.29c-.61 0-.91.34-.91 1.03 0 .32.08.57.25.76s.39.29.66.29.49-.09.65-.27c.16-.19.24-.43.24-.74 0-.7-.3-1.05-.89-1.05zm2.31-.17v.36c.24-.27.54-.41.89-.41.42 0 .7.13.84.39.07.12.1.29.1.5v1.58h-.33v-1.5c0-.48-.22-.73-.65-.73-.2 0-.38.06-.54.17a.7.7 0 0 0 -.29.45c-.02.1-.04.29-.04.56v1.05h-.33v-2.41h.33z" fill="#010101"/></svg>