<svg viewBox="0 0 747.16 244.37" xmlns="http://www.w3.org/2000/svg" width="2500" height="818"><path d="M0 152.46l91.87 91.91h641.25V0H0z" fill="#1e4f2f" fill-rule="evenodd"/><path d="M739.37 244.07c-.68-.2-1.25-.51-1.73-.92s-.85-.93-1.1-1.55c-.25-.63-.38-1.36-.38-2.21v-2.08c0-.85.13-1.58.38-2.21s.62-1.14 1.1-1.55 1.05-.71 1.73-.92c.68-.2 1.44-.3 2.28-.3h.02c.85 0 1.61.1 2.28.3.68.2 1.25.51 1.73.92s.84.93 1.1 1.55c.25.63.38 1.36.38 2.21v2.08c0 .85-.13 1.58-.38 2.21-.26.63-.62 1.14-1.1 1.55s-1.06.71-1.73.92-1.44.3-2.28.3h-.02c-.85 0-1.61-.1-2.28-.3zm2.3-.64c.71 0 1.35-.08 1.9-.23.55-.16 1.02-.4 1.39-.73s.66-.75.86-1.26.29-1.12.29-1.83v-2.08c0-.71-.1-1.32-.29-1.83s-.48-.93-.86-1.26c-.37-.33-.84-.57-1.39-.73s-1.19-.23-1.9-.23h-.02c-.71 0-1.35.08-1.9.23s-1.02.4-1.39.73-.66.75-.86 1.26-.29 1.12-.29 1.83v2.08c0 .71.1 1.32.29 1.83.2.51.48.93.86 1.26.37.33.84.57 1.39.73.55.15 1.19.23 1.9.23zm-2.29-8.32h2.52c.35 0 .66.04.93.11s.5.18.68.32c.19.14.33.33.42.55s.14.48.14.78v.18c0 .3-.05.57-.14.79s-.23.41-.42.55-.41.25-.68.32-.58.11-.93.11h-1.29v2.75h-1.23zm1.19 3.51h1.53l2.77 2.95h-1.51l-2.78-2.95zm1.29-.86c.17 0 .31-.01.43-.04s.23-.07.31-.13.14-.14.19-.24c.04-.1.06-.21.06-.35v-.08c0-.14-.02-.25-.06-.35s-.1-.18-.19-.24a.728.728 0 0 0-.31-.13 1.85 1.85 0 0 0-.43-.04h-1.25v1.61h1.25z" fill="#1e4f2f"/><g fill="#fff"><path d="M206.95 65.33c-1.91-1.47-4.39-2.54-7.43-3.22s-6.74-1.02-11.09-1.02h-24.76v15.73h23.88c.93 0 1.69.06 2.29.19.6.12 1.08.34 1.44.66.36.31.62.74.76 1.28s.22 1.23.22 2.06v2.02h-8.91c-3.8 0-6.98.3-9.52.91-2.55.61-4.59 1.54-6.14 2.8s-2.64 2.85-3.29 4.77-.97 4.19-.97 6.8v8.49c0 2.64.32 4.92.97 6.86s1.73 3.54 3.25 4.8 3.53 2.2 6.04 2.82c2.51.61 5.62.92 9.35.92h29.4V79.29c0-3.23-.44-5.99-1.31-8.29s-2.26-4.18-4.18-5.65zm-14.71 42.58h-3.94c-.66 0-1.21-.07-1.66-.2-.45-.14-.81-.34-1.09-.61s-.48-.6-.6-1.01c-.12-.4-.19-.88-.19-1.44v-4.58c0-.85.05-1.56.16-2.13s.32-1.02.63-1.36.71-.58 1.22-.73c.5-.14 1.16-.22 1.95-.22H192.23v12.26zM122.67 122.19h20.2V76.84h14.22V61.09h-34.42zM263.57 64.75c-1.49-1.33-3.44-2.27-5.82-2.82-2.39-.56-5.31-.83-8.78-.83h-29.29v61.09h20.2V77.33h3.57c.83 0 1.5.05 2.04.16.53.11.96.32 1.27.64.32.32.54.76.66 1.33.13.57.19 1.32.19 2.26v40.48h20.2V78.26c0-3.29-.33-6.03-1-8.22-.66-2.19-1.75-3.95-3.24-5.28zM113.55 86.85a10.36 10.36 0 0 0-2.96-2.94c-1.17-.77-2.49-1.42-3.98-1.95 1.03-.44 2.01-1.08 2.94-1.9s1.75-1.84 2.46-3.04c.71-1.21 1.27-2.63 1.69-4.26s.62-3.49.62-5.57v-4.91c0-3.38-.49-6.22-1.46-8.51-.98-2.29-2.47-4.15-4.49-5.56s-4.58-2.42-7.68-3.03-6.79-.91-11.07-.91H62.34v69.08c0 4.88 4.01 8.84 8.95 8.84h19.86c4.3 0 8.02-.36 11.14-1.08s5.7-1.84 7.73-3.38c2.03-1.53 3.54-3.51 4.51-5.91.98-2.41 1.46-5.31 1.46-8.71v-5.69c0-2.42-.21-4.49-.62-6.2-.42-1.71-1.03-3.17-1.83-4.36zM83.5 61.01h5.87c.66 0 1.21.06 1.67.18.45.12.82.32 1.11.59s.5.61.61 1.04c.12.42.18.93.18 1.52v6.34c0 .59-.06 1.1-.18 1.52s-.32.77-.61 1.04-.66.47-1.11.6-1 .2-1.65.2H83.5V61.02zm10.67 40.63c0 .69-.06 1.27-.19 1.75s-.35.86-.67 1.17c-.32.3-.73.53-1.23.67s-1.13.21-1.89.21H83.5V90.16h6.72c.75 0 1.38.07 1.88.21s.9.37 1.22.68.54.7.67 1.17.19 1.05.19 1.74v7.69zM430.28 88.31c-1.31-1.38-3.06-2.44-5.23-3.2-2.18-.75-4.91-1.13-8.2-1.13h-5.79c-.74 0-1.37-.04-1.88-.11s-.92-.19-1.23-.36-.53-.41-.66-.71-.2-.69-.2-1.16v-3.01c0-.42.08-.76.23-1.03s.38-.48.68-.65c.3-.16.68-.28 1.13-.35s.98-.11 1.57-.11h22.28V61.1h-23.55c-3.68 0-6.9.31-9.66.93s-5.07 1.59-6.92 2.9c-1.85 1.32-3.24 2.99-4.17 5.01-.93 2.03-1.39 4.45-1.39 7.27v4.26c0 2.82.3 5.29.91 7.41s1.58 3.88 2.92 5.3 3.08 2.48 5.21 3.2c2.13.71 4.72 1.07 7.77 1.07h5.44c.87 0 1.59.04 2.17.13.58.08 1.04.23 1.39.45.35.21.59.49.74.85.14.35.21.79.21 1.31v3.18c0 .47-.08.85-.24 1.16s-.41.56-.75.74c-.34.19-.77.32-1.29.41-.52.08-1.13.12-1.82.12h-22.18v15.41h23.74c3.92 0 7.3-.33 10.13-1 2.83-.66 5.15-1.7 6.97-3.1 1.82-1.41 3.15-3.21 4.01-5.42s1.28-4.85 1.28-7.93v-4.8c0-2.43-.27-4.64-.82-6.6-.55-1.97-1.47-3.64-2.79-5.02zM303.78 61.09h-7.84c-3.51 0-6.57.35-9.18 1.05s-4.79 1.78-6.53 3.25-3.04 3.33-3.9 5.58-1.29 4.95-1.29 8.09v25.15c0 3.12.43 5.82 1.29 8.08s2.16 4.13 3.9 5.6 3.92 2.55 6.53 3.25 5.67 1.05 9.18 1.05h28.04V39.52h-20.19V61.1zm0 44.87h-3.31c-.78 0-1.45-.08-2.03-.23-.58-.16-1.05-.42-1.42-.78s-.65-.85-.83-1.46c-.19-.61-.28-1.37-.28-2.27V82.06c0-.91.09-1.67.28-2.28.19-.6.46-1.09.83-1.45s.84-.62 1.42-.77 1.25-.23 2.03-.23h3.31zM537.35 105.71c-.72-.16-1.33-.44-1.81-.83-.49-.39-.86-.92-1.11-1.59s-.38-1.52-.38-2.55v-18.2c0-1.03.13-1.88.38-2.55s.63-1.21 1.12-1.59c.49-.39 1.1-.66 1.83-.83.73-.16 1.56-.24 2.49-.24h13.57V61.1h-16.58c-4.11 0-7.63.35-10.58 1.04-1.67.39-3.18.93-4.51 1.6-1.02.51-1.94 1.11-2.76 1.79-1.9 1.57-3.31 3.62-4.2 6.16-.9 2.53-1.35 5.66-1.35 9.38v21.16c0 3.69.45 6.81 1.35 9.36s2.3 4.61 4.2 6.18c1.91 1.57 4.33 2.7 7.27 3.4 2.95.69 6.47 1.04 10.58 1.04h17.01v-16.23h-14.03c-.92 0-1.75-.08-2.47-.25zM608.37 70.99c-.87-2.3-2.26-4.18-4.18-5.65-1.91-1.47-4.39-2.54-7.43-3.22s-6.74-1.02-11.09-1.02h-24.76v15.73h23.88c.93 0 1.69.06 2.29.19.6.12 1.08.34 1.44.66.36.31.62.74.76 1.28s.22 1.23.22 2.06v2.02h-8.91c-3.8 0-6.98.3-9.52.91-2.55.61-4.59 1.54-6.14 2.8s-2.64 2.85-3.29 4.77-.97 4.19-.97 6.8v8.49c0 2.64.32 4.92.97 6.86s1.73 3.54 3.25 4.8 3.53 2.2 6.04 2.82c2.51.61 5.62.92 9.35.92h29.4V79.3c0-3.23-.44-5.99-1.31-8.29zm-18.88 36.92h-3.94c-.66 0-1.22-.07-1.66-.2-.45-.14-.81-.34-1.09-.61s-.48-.6-.6-1.01c-.12-.4-.19-.88-.19-1.44v-4.58c0-.85.06-1.56.16-2.13.11-.57.32-1.02.63-1.36s.71-.58 1.22-.73c.5-.14 1.15-.22 1.95-.22h3.52v12.26zM485.84 39.52h20.2v16.89h-20.2zM374.84 65.33c-1.91-1.47-4.39-2.54-7.43-3.22s-6.74-1.02-11.09-1.02h-24.76v15.73h23.88c.93 0 1.69.06 2.29.19.6.12 1.08.34 1.44.66.36.31.62.74.76 1.28s.22 1.23.22 2.06v2.02h-8.91c-3.8 0-6.98.3-9.52.91s-4.59 1.54-6.14 2.8-2.64 2.85-3.29 4.77-.97 4.19-.97 6.8v8.49c0 2.64.32 4.92.97 6.86s1.73 3.54 3.25 4.8 3.53 2.2 6.04 2.82c2.51.61 5.62.92 9.35.92h29.4V79.29c0-3.23-.44-5.99-1.31-8.29s-2.26-4.18-4.18-5.65zm-14.71 42.58h-3.94c-.66 0-1.22-.07-1.66-.2-.45-.14-.81-.34-1.09-.61s-.48-.6-.6-1.01c-.12-.4-.19-.88-.19-1.44v-4.58c0-.85.05-1.56.16-2.13s.32-1.02.63-1.36.71-.58 1.22-.73c.5-.14 1.16-.22 1.95-.22H360.12v12.26z"/><path d="M467.43 61.09V46.53h-8.94c-1.68 0-3.24.89-4.09 2.33l-5.82 9.9a4.739 4.739 0 0 1-4.08 2.33h-4.71V76.6h7.43v31.92c0 3.62 1.52 7.1 4.22 9.66s6.36 4 10.18 4h16.22v-15.41h-8.9c-.84 0-1.52-.65-1.52-1.44V76.59h18.41v45.58h20.2V61.08h-38.61zM641.86 53.06c-11.82 0-21.41 9.58-21.41 21.41s9.58 21.41 21.41 21.41 21.41-9.58 21.41-21.41-9.58-21.41-21.41-21.41zm4.7 35.04l-10.74.01c-1.91 0-3.45-1.54-3.45-3.45V60.82h13.66c3.68 0 6.89 3.13 6.82 6.95-.06 3.44-2.67 6.32-5.89 6.65v.09c3.43.39 6.13 3 6.13 6.78 0 3.99-3.12 6.8-6.53 6.8z"/><path d="M645.64 67.65h-6.45v13.2c0 .24.2.44.45.44h6c.25 0 .45-.2.45-.44V68.09c0-.24-.2-.44-.45-.44z"/></g></svg>