<svg viewBox="11.599999999999998 0.22999999999999554 58.98000000000002 59.42" xmlns="http://www.w3.org/2000/svg" width="2001" height="2500"><linearGradient id="a" gradientUnits="userSpaceOnUse" x1="33.39" x2="33.39" y1="-4.05" y2="55.32"><stop offset=".36" stop-color="#eb2126"/><stop offset=".68" stop-color="#821618"/></linearGradient><linearGradient id="b" gradientUnits="userSpaceOnUse" x1="26.37" x2="26.37" y1="1.46" y2="52.11"><stop offset=".36" stop-color="#b5b5b4"/><stop offset=".68" stop-color="#6b6b6b"/></linearGradient><linearGradient id="c" gradientUnits="userSpaceOnUse" x1="59.28" x2="40.27" y1="-.9" y2="57.1"><stop offset=".32" stop-color="#b5b5b4"/><stop offset=".38" stop-color="#aeaead"/><stop offset=".46" stop-color="#9c9c9b"/><stop offset=".55" stop-color="#7e7f7e"/><stop offset=".58" stop-color="#727372"/><stop offset=".88" stop-color="#343535"/></linearGradient><path d="M23.08 1.42s10.84-1 11.64 6.89c.09.33.05 3.93-1.92 8.88-.33 1.08-2.57 8.63-1.64 14.26.37 1.73.72 6.45 7.35 12.29 1.07 1.08 5.18 4.86 5.18 4.86s-1.08-1.54-2.76-3.51-7.01-7.85-7.27-13.6c-.07-.84-.68-5.09.4-9.39 1.08-4.35 2.38-8.65 2.57-10.7.19-1.4 1.12-6.78-4.35-9.44-1.22-.61-4.58-1.73-9.21-.54z" fill="url(#a)"/><path d="M39.78 46.72s-3.51-2.87-7.57-5.68c-2.85-1.96-10.66-7.34-13.27-11.5-.56-.61-5.09-6.54-2.8-13.18.19-.33 2.06-5.28 8.37-5.8.7-.09 3.93-.51 6.17 1.4-.75-.84-4.63-4.04-10.05-2.29-.37.19-6.08 2.01-7.53 8.55 0 .33-1.5 7.99 5.14 14.86 1.59 1.5 6.82 5.98 10.28 7.81s8.97 4.77 8.97 4.77l2.29 1.05z" fill="url(#b)"/><circle cx="42.27" cy="6.2" fill="#ee2027" r="2.78"/><path d="M52.46 58.39s1.65-.92.67-3.8c-.14-.35-.88-2.28-2.73-4.45-1.47-1.79-5.26-6.03-6.17-7.5s-4-6.13-3.82-11.57c.11-2.17.04-8.52 4.03-13.99.7-1.09 4.84-7.5 12.97-5.85 1.4.24 6.55 2.89 6.34 9.15-.05 1.66-2.05 6.8-7.01 11.57 5.05-4.14 8.29-8.7 8.55-11.64.17-1.31.35-10.35-8.41-11.67-.35 0-8.82-1.84-14.5 6.17-.19.32-6.57 8.23-4.92 19.91.28.95.98 6.66 7.43 13.43.53.6 2.31 2.49 4.35 4.45s3.32 2.91 3.47 4.8c.07.41-.25.99-.25.99z" fill="url(#c)"/><path d="M52.32 43.11s.23 1.73-1.96 4.67c-1.78 2.34-5.38 5.84-3.08 9.02.37.42 1.09 1.76 3.79 2.01-.28.28-2.46.84-4.53-1.17-.62-.56-2.25-2.43-1.27-5.09.72-1.8 2.08-3.27 3.38-4.53s2.32-2.74 2.84-3.32.84-1.59.84-1.59z" fill="#d62128"/><path d="M23.9 14.73s1.64-2.81 4.44-1.06c.45.25 3.4 2.65-.65 6.71-.37.45-3.79 2.66-3.79 2.66s-2.59-1.24-4.34-3.27c-.12-.07-1.68-1.85-1.24-4.04.09-.54 1.28-3.42 4.21-2.36.44.14.87.63 1.38 1.36z" fill="none" stroke="#dd141e" stroke-linecap="round" stroke-linejoin="round" stroke-width=".7"/><path d="M42.65 37.57h1.87s2.1-1.4 2.59-1.57c.36-.08.98-.37 2.5 1.57.91-.02 1.71 0 1.71 0l.82 3.25 1.85-26.52 1.54 34.05 1.33-10.82 1.87.02s2.48-3.15 3.51-2.43c.26.16 1.24 1.36 1.64 2.41 1.12-.02 2.81.04 2.81.04" fill="none" stroke="#a41e22" stroke-linecap="round" stroke-linejoin="round" stroke-width=".47"/><path d="M66.68 37.79v-.47s1.54-.5 2.5-.55 1.4.33 1.29 1.08c-.14.33-.37.58-1.73.47-1.4-.28-2.06-.53-2.06-.53z" fill="#a41e22"/><path d="M17.49 18.82c1.28-.08 2.56-.14 3.83-.15l-.22.14c.35-1.01.71-2.01 1.09-3.01.1-.28.53-.27.61.02.45 1.42.89 2.84 1.3 4.26l-.62-.08c.54-.87 1.1-1.73 1.66-2.59.09-.13.26-.17.39-.08.03.02.05.04.07.07l1.01 1.35-.18-.08c1.18.03 2.36.1 3.54.19-1.21.04-2.56.38-3.72.18l-1.11-1.26.48-.03c-.52.88-1.03 1.76-1.56 2.62-.1.16-.31.21-.47.11-.67-1.37-.92-2.99-1.41-4.46l.61.03c-.41.99-.83 1.97-1.27 2.95-.04.08-.12.13-.21.13-1.28-.07-2.55-.17-3.83-.3z" fill="#3081c3"/></svg>