<svg height="503" viewBox="0 -.51 253.78 50.53" width="2500" xmlns="http://www.w3.org/2000/svg"><g fill="#fff"><path d="m159.12 38.74c-.82-.15-.82.52-.81 1.21 1.1.62 1.22-.48.81-1.21zm25.3 0c-.82-.15-.82.52-.8 1.21 1.1.62 1.22-.48.8-1.21zm-59.39-.24c-.1-.15-.21-.23-.36-.23-.54 0-1.3 1.1-2.26 2.48-1.19 1.72-3.04 3.57-4.04 4.16h-.02c-5.56 3.61-6.77 3.09-7.03 2.69-.69-1.03 1.98-4.82 5.98-7.6 1.04-.98.98-1.2.96-1.28-.01-.04-.04-.09-.13-.12-.45-.11-1.9.8-2.75 1.48-1.65 1.33-3.26 3.18-4.29 4.76-1.21 1.86-1.23 3.23-.57 3.77.81.67 2.69.06 4.12-.56 1.84-.81 3.58-1.91 4.48-2.65.11-.05.16-.06.18-.04.11.11-.27.9-.57 1.54-.52 1.09-1.05 2.21-.71 2.52.06.05.13.08.23.08.24 0 .61-.16 1.13-.48.45-.31.67-.64.56-.83-.09-.16-.37-.18-.75-.04.64-1.81 1.8-3.33 2.93-4.81s2.29-3.01 2.92-4.81v-.05zm13.39 8.35c-.34-.12-.97.19-1.73.63-.65.37-1.68.66-2.17.79-.24.06-.5.04-.71-.08s-.27-.28-.09-.4c.13-.09.47-.4.81-.72.62-.58 1.15-1.25 1.54-2s.53-2.27-.36-2.23c-1.89.07-2.89 1.57-3.61 2.51-.2.26-.44.47-.72.64-.3.18-.59.33-.94.52-1.01.56-2.01 1.24-3.16 1.39-.31.05-.34.04-.38 0-.09-.12.51-.93 1-1.58 1.5-2.01 1.06-2.39.88-2.55a.366.366 0 0 0 -.12-.07c-.68-.18-1.21.26-2.69 1.37-.48.36-1.31.85-1.74 1.18.33-.25.75-1.74.68-2.27-.04-.29-.13-.47-.28-.52-.16-.06-.36.03-.6.26l-.02.02v.03c.18.57-.59 1.94-1.27 3.14-.7 1.24-1.12 2.02-.89 2.24.3.1 1.45-.95 1.45-.95.31-.34 3.89-3.28 4.11-2.97.15.21-.34.6-1.39 2.07-.58.92-.73 1.53-.42 1.82.13.12.34.18.6.18 1.17 0 3.33-1.19 4.3-1.75.35-.2.63-.36.95-.51.45-.22-.18 1.52 1.77 2.02.75.19 2.8.31 5.36-1.66 0 0 .48-.36-.15-.57zm-3.2-2.69c.09.25-.21.86-.76 1.6-.51.67-1.09 1.26-1.37 1.38-.29.07-.47.03-.51-.11-.19-.6 1.53-2.69 2.17-2.95.26-.13.43-.04.48.09z"/><path d="m177.23 44.69c-1.12.17-1.11-.25-1.28-.79-.1-.32-.59-.6-.91-.65-.62-.09-1.31.25-2.2.89s-1.62 1.38-2.16 2.52c-.15.31-.22.61-.28.88-.36.15-.76.37-1.37.63-1.03.44-2.2.99-2.86.39-.35-.27-.55-.58-.59-.95-.11-.91.63-1.87 1.18-2.81.33-.56.95-1.22 1.26-1.53.25-.25 2.78-.32 4.11-.37.97-.04 1.48-.05 2.22-.12.26-.02.87-.12 1.09-.24 0 0 .94-.6-3.39-.32-1.03.07-2.27.08-3.17.09.35-.53 1.53-2.58 1.21-2.87-.09-.08-.29-.09-1.01.59l-1.97 2.44c-.65.15-3.61.6-3.57.77v.1c.07.3 1.83.21 2.27.23.27 0 .48.02.51.06.02.04-.08.2-.2.4-.24.38-.61 1-1.18 2.13-.13.26-.33.47-.58.61-.22.12-.37.18-.62.28-.94.37-2.04.84-2.56 1s-.75.08-.65-.21c.03-.09.44-.8.44-.8 1.73-2.93 1.68-3.35 1.46-3.55-.45-.41-2.06.74-3.94 2.08-.17.12-1.62 1.06-2.25 1.45-.94.59-2.11 1.16-3.21 1.27-.14.01-.24-.15-.16-.27.42-.62.96-1.17 1.49-1.69.63-.63 2.62-2.34 1.41-2.39h-.08c-.7 0-2.11 1.25-3.1 2.55-.19.25-.42.45-.69.61-.1.06-.2.12-.28.16-1.96 1.22-3.08 1.59-3.35 1.31-.35-.35.46-2.11 1.65-3.51.85-1 1.19-1.61 1.32-1.97.12-.32-.06-.7-.41-.75-.86-.11-2.23 1.16-3.14 2-.27.25-.54.5-.65.57.07-.22.53-.91.85-1.22.62-.75 1.17-1.3 1.78-1.98.53-.59 1.03-1.15 1.53-1.58 1.49-1.36 2.29-2.24 2.22-2.64a.183.183 0 0 0 -.13-.15c-.35-.11-1.29.59-2.52 1.86-.56.52-2.59 2.8-4.25 4.95-.82 1.06-3.48 4.55-3.41 5.21 0 .08.05.12.09.13.08.03.25.02.76-.35.47-.34.89-.75 1.27-1.19 1.15-1.38 2.54-2.85 4.31-4.03.06-.04.14.04.09.1-2.19 2.93-3 4.74-2.41 5.38.16.18.41.25.72.25 1.03 0 2.69-.84 3.68-1.46-.16.47-.12.81.1 1.02.48.45 1.82.15 4-.88 0 0 1.01-.47 1.18-.48.16.62.51 1.05 1.04 1.3 1.23.57 3.37.11 6.47-1.42.09-.05.21.02.21.12.02.67.32 1.14.82 1.45 1.17.72 3.45.2 4.94-.71.1.46.4.74.87.81 1.29.19 3.6-1.29 4.76-3.59.08-.04.17-.08.27-.12.42-.18 1.01-.42 1.03-.97v-.07l-.06.01zm-2.48 1.45c-.33.54-.87 1.09-1.51 1.53s-1.29.7-1.68.69c-.17 0-.27-.06-.32-.17-.08-.2-.03-.74 1.27-2.2s.11-.07.19-.07c.15 0 .37.07.6.14.45.14 1 .31 1.44.09zm-1.32-1.14c-.05-.31.38-.69.38-.69.53-.46.75-.37.94-.27.02.01.67.35.46.99-.01.04-.04.09-.07.12-.47.45-1.65.18-1.71-.16zm-13.97 2.51s-.35.55-.65.6c-.3.04-.64-.09-.91-.28a.341.341 0 0 1 0-.56c.97-.69 2.05-1.46 2.88-2.2.09-.08.23 0 .2.12-.21.64-.99 1.73-1.51 2.32zm36.74-.66c-.31-.19-.97.19-1.73.63-.87.51-1.7.93-2.56.93 0 0-.46 0-.56-.35-.03-.12.1-.33.37-.51.26-.17.72-.58.91-.81.66-1.01 2.19-2.78 1.35-3.77a.906.906 0 0 0 -.58-.15c-1.4.12-3.4 2.43-3.9 3.4-.14.27-.33.51-.58.69-1.24.89-3.09 1.53-3.5 1.13-.11-.11.48-1.11.78-1.62.12-.19.17-.42.15-.65-.1-1.55-.35-2.31-.77-2.45-.53-.17-1.22.65-2.09 1.7-.19.23-.39.46-.59.7-.28.33-.61.63-.93.92-.17.15-.38.3-.55.41-.97.61-2 .96-3.11 1.14-.11.02-.19-.1-.13-.2.43-.66.83-1.22 1.36-1.79 1-1.07 1.64-1.57 1.8-1.84.13-.22 0-.52-.26-.54h-.02c-.92 0-3.29 2.36-3.99 3.99-.26.6-.26 1.03-.01 1.27.48.46 1.82.24 4.01-.8.26-.12.6-.31.89-.49.68-.43 1.04-.78 1.63-1.4.17-.19.35-.4.51-.61.29-.36.57-.71.81-.87.09-.06.21-.01.25.08.28.63-.11 1.14-.53 1.69-.38.49-.77 1-.71 1.63 0 0 .15.91 1.79.81h.01c1.23 0 2.67-.61 3.45-1.39.13-.13.33-.07.41.09.3.63.86 1.12 1.59 1.35.33.1.67.16 1.03.16 1.28 0 2.73-.66 4.12-1.9l.02-.04c.11-.27-.03-.45-.17-.54zm-3.68-2.77c.27-.07.43-.04.48.09.09.25-.21.86-.76 1.6-.51.67-1.09 1.26-1.37 1.38-.29.07-.47.03-.51-.11-.19-.6 1.53-2.69 2.17-2.95zm15.5-3.9c.24.62.72 1.43.86.78.05-.25-.09-.62-.16-.86-.11-.38-1.18-1.72-1.73-1.8-.14-.02-.33.11-.35.22-.08.49 1.27 1.38 1.38 1.66zm4.63 6.31c-.48-.63-1.46-.02-2.49.63-1 .62-2.12 1.32-2.96 1.04a.34.34 0 0 1 -.18-.48c.15-.27.39-.56.63-.82 1.74-1.89.73-1.85.73-1.85-1.06.08-1.5.86-2.02 1.55-.31.42-.49.88-.85 1.14l-.51.24c-.76.37-1.8.86-2.07.58-.11-.11-.14-.43.31-1.29.83-1.03 3.86-3.75 4.84-3.35.22.09.32.35.31.76 0 .07.06.15.13.16.22.04.34.06.67-.47.42-.83.24-1.16-.04-1.4-.33-.27-1.34-.14-1.96.09-2.18.8-5.31 3.49-5.37 5.3-.02.59.3 1.03.97 1.33h.02c.82-.06 1.49-.4 2.14-.74.29-.15.57-.3.86-.41.07-.03.16 0 .21.05 1.24 1.24 3.47.56 6.63-2.01l.04-.03-.03-.04zm23.55-5.36c-.17.17-.22.4-.11.42.28.05.89-.33 1.29-.61.26-.18 2.2-1.59 2.02-1.91 0 0-.39-.66-3.2 2.11zm3.52 5.31c-.56.46-1.08.7-1.8 1.1-.88.49-1.61.74-2.39.86 0 0-.73.07-.81-.44-.04-.23 1.03-.88 1.47-1.38.61-.7 2.03-2.76 1.09-3.57 0 0-1.79-1.6-4.43 3.6-1.18 1.08-3.27 2.27-4.17 1.66-.5-.34.22-1.42 1.38-2.71 0 0 .38-2.03-1-2.16-.56-.05-1.22.65-2.09 1.7-.35.43-.72.87-1.1 1.27-.22.23-.61.58-.87.77-.32.24-.48.37-.67.5-1.77 1.21-4.25 2.18-5.67.84-1.13-1.07 1.75-3.96 2.64-4.28.47-.19.8-.2.98-.03.27.24.13 1.01.02 1.69 0 .23.19.44.42.42s.5-.17.62-.31c.45-.59.05-2.36-.49-2.65-.59-.4-1.76-.21-2.45.21-1.3.78-2.73 2.01-3.12 3.58-.25.98.19 1.89 1.04 2.41.39.23.98.46 1.83.46.44 0 .96-.06 1.56-.21 1.35-.34 2.74-1.04 4.15-2.31.58-.52 1.4-1.42 1.47-1.51.33-.4 1.1-1.27 1.37-1.4.12-.06.51.22.55.35.2.6-.73 1.36-1.12 1.88-.38.49-.77.99-.71 1.63 0 0 .12.96 1.79.81h.01c1.24 0 2.71-.62 3.48-1.42.11-.11.3-.08.36.06.29.65.87 1.16 1.61 1.4 1.26.4 4.2-1.18 5.02-1.71.22-.14.19-.28.08-.48-.03-.05.01-.62-.03-.58zm-3.9-2.54c.33-.17.73-.1.82 0 .24.29-.4 1.17-.96 1.91-.51.67-.94 1.09-1.22 1.22-.29.07-.48-.04-.53-.24-.18-.71 1.25-2.63 1.89-2.9z"/><path d="m253.76 46.5c0-.1-.14-.14-.21-.07-.43.49-1.85 1.89-3.97 1.7-.16-.01-.26-.1-.29-.21-.07-.21 1.21-2.03 1.21-2.03-.09-1.79-.52-2.43-.98-2.58-.53-.18-1.22.65-2.09 1.7-.35.43-.72.87-1.1 1.27-.18.19-.37.36-.58.51-.26.2-.64.48-.97.67-.75.44-1.5.75-2.15.83-.21.03-.43.01-.63-.07-.25-.1-.33-.21-.36-.25-.16-.16.47-.48.98-.94.61-.56 2.4-3.12 1.56-4.14l-.06-.06c-.27-.17-1.97-.99-4.4 3.59-.5.94.39 2.02 1.35 2.53.45.24.95.35 1.48.35.8 0 2.24-.76 3.19-1.33.61-.36 1.15-.82 1.61-1.36.25-.29.52-.61.72-.86.36-.45.7-.87.98-.96.62.69.01 1.26-.44 1.85-.38.49-.77.99-.71 1.63 0 0 .58 1.65 3.8.36 1.03-.41 2.08-1.54 2.08-2.16zm-13 .11c.03-.62 1.52-2.65 2.15-2.92.33-.14.55.04.59.17.09.25-.26 1.19-.82 1.93-.51.67-.88 1.03-1.17 1.16-.29.07-.78-.06-.76-.33zm-179.58-22.52v-13.9h3.6v8.72c1.06-1.67 2.85-2.57 5-2.57 3.63 0 7.45 2.61 7.45 7.72 0 4.76-3.33 8.03-8.09 8.03s-7.97-3.15-7.97-8m12.42.12c0-2.64-1.79-4.51-4.42-4.51s-4.39 1.88-4.39 4.51 1.76 4.51 4.39 4.51 4.42-1.88 4.42-4.51m5.43 3.06h3.64c.03 1 .91 1.67 2.67 1.67 1.85 0 2.64-.76 2.64-1.67 0-1.15-1.33-1.3-2.94-1.51-2.3-.3-5.69-.7-5.69-4.36 0-3.06 2.33-5.06 5.94-5.06s5.91 2.06 6 4.7h-3.57c-.09-.91-.94-1.54-2.36-1.54-1.58 0-2.36.76-2.36 1.64 0 1.15 1.36 1.33 2.97 1.54 2 .27 5.66.67 5.66 4.39 0 3.03-2.45 5.03-6.27 5.03s-6.21-2.03-6.3-4.82m15.45-17.09h3.6v13.08l5.94-6.54h4.6l-7.03 7.33 7.3 7.64h-4.69l-6.12-6.76v6.76h-3.6zm16.35 2.09c0-.88.67-1.54 1.54-1.54s1.54.67 1.54 1.54-.67 1.54-1.54 1.54-1.54-.67-1.54-1.54m.55 4.45h2.03v14.96h-2.03zm5.54 6.21c0-4.45 2.61-6.6 6.06-6.6 2.42 0 4.42 1.15 5.39 3.36.94-2.21 2.94-3.36 5.39-3.36 3.45 0 6.06 2.15 6.06 6.6v8.75h-2.03v-8.75c0-3.18-1.76-4.73-4.18-4.73s-4.21 1.61-4.21 4.73v8.75h-2.03v-8.75c0-3.12-1.82-4.73-4.24-4.73s-4.18 1.54-4.18 4.73v8.75h-2.03zm25.87 0c0-4.45 2.61-6.6 6.06-6.6 2.42 0 4.42 1.15 5.39 3.36.94-2.21 2.94-3.36 5.39-3.36 3.45 0 6.06 2.15 6.06 6.6v8.75h-2.03v-8.75c0-3.18-1.76-4.73-4.18-4.73s-4.21 1.61-4.21 4.73v8.75h-2.03v-8.75c0-3.12-1.82-4.73-4.24-4.73s-4.18 1.54-4.18 4.73v8.75h-2.03zm25.26 1.27c0-4.54 3.33-7.88 8.06-7.88s8.06 3.33 8.06 7.88-3.33 7.88-8.06 7.88-8.06-3.33-8.06-7.88m14.06 0c0-3.45-2.42-6-6-6s-6 2.54-6 6 2.42 6 6 6 6-2.54 6-6m4.42-.09v-13.93h2.03v9.75c1.12-2.27 3.45-3.6 6.3-3.6 4.39 0 7.75 3.21 7.75 7.82s-3.33 7.94-8.09 7.94-8-3.15-8-7.97m14.03.09c0-3.45-2.42-6-6-6s-6 2.54-6 6 2.39 6 6 6 6-2.54 6-6m4.45-11.94c0-.88.67-1.54 1.54-1.54s1.54.67 1.54 1.54-.67 1.54-1.54 1.54-1.54-.67-1.54-1.54m.55 4.45h2.03v14.96h-2.03zm6.12-6.54h2.03v21.51h-2.03zm5.6 2.09c0-.88.67-1.54 1.54-1.54s1.54.67 1.54 1.54-.67 1.54-1.54 1.54-1.54-.67-1.54-1.54m.55 4.45h2.03v14.96h-2.03zm4.93 7.48c0-4.54 3.33-7.88 8.06-7.88s8 3.33 8 7.88v.67h-13.96c.27 3.12 2.6 5.33 5.97 5.33 2.36 0 4.18-.97 5.15-2.7h2.21c-1.15 2.76-3.88 4.57-7.36 4.57-4.73 0-8.06-3.33-8.06-7.88m13.93-1.15c-.48-3.03-2.85-4.85-5.88-4.85s-5.45 1.91-5.91 4.85h11.78zm4.48-.32c0-4.3 2.57-6.39 6.3-6.39s6.27 2.09 6.27 6.42v.18h-2v-.21c0-3.12-1.73-4.51-4.27-4.51s-4.27 1.39-4.27 4.51v8.97h-2.03zm-233.11 19.55h-.44c-4.21-.02-7.64-3.45-7.64-7.67v-16.86c0-2.68 1.31-5.2 3.5-6.75l13.49-9.5c2.85-2.01 6.68-2 9.53.02l13.34 9.47a8.27 8.27 0 0 1 3.47 6.73v16.3c0 4.55-3.7 8.25-8.25 8.25h-3.78a1.931 1.931 0 0 1 0-3.86h3.78c2.42 0 4.4-1.97 4.4-4.4v-16.3c0-1.42-.69-2.76-1.85-3.58l-13.34-9.47a4.404 4.404 0 0 0 -5.08-.01l-13.49 9.49a4.4 4.4 0 0 0 -1.87 3.59v16.86c0 2.1 1.71 3.82 3.82 3.82h.07c.05 0 5.18.15 10.39-1.81 5.91-2.23 9.5-6.18 10.7-11.76-2.31.74-4.71 1.12-7.17 1.12-3.14 0-6.18-.61-9.05-1.81a1.926 1.926 0 0 1 1.49-3.55c2.39 1 4.94 1.51 7.56 1.51s5.37-.55 7.85-1.64c.99-.43 2.13-.19 2.86.6.48.53.72 1.23.65 1.94-.82 8.27-5.54 14.24-13.64 17.25-5.01 1.86-9.8 2.02-11.3 2.02"/></g></svg>