<svg clip-rule="evenodd" fill-rule="evenodd" height="1838" image-rendering="optimizeQuality" shape-rendering="geometricPrecision" text-rendering="geometricPrecision" viewBox="-.01 -.01 13552.56 9965.19" width="2500" xmlns="http://www.w3.org/2000/svg"><path d="m0 7836.95v-7709.84c69.61 54.73 135.17 105.88 200.04 157.36 641.23 505.73 1282.3 1011.87 1924.04 1516.93 30.17 23.75 41.21 47.58 41.21 86.17-1.04 1699.88-1.04 3399.8.28 5099.97 0 42.69-10.99 61.19-51.96 75.95-691.38 251.96-1381.92 505.85-2072.65 759.1-12.84 4.9-25.88 9.27-40.65 14.37h-.32zm4855.58 0c-101.82-37.12-201.56-73.18-301.16-109.78-608.88-223.59-1217.61-447.47-1826.74-670.36-27.6-10.19-36.03-23.03-36.03-52.2.68-1711.31.68-3422.79.2-5134.18 0-25.04 6.1-41.65 26.88-58.06 700.01-551.36 1399.54-1103.51 2099.22-1655.63 11.03-8.75 22.35-16.61 37.91-28.09v7708.08l-.28.2zm-4539.25 1876.86c64.31 0 124.9-1.45 185.43.44 35.39 1.16 46.99-15.97 46.99-46.99 0-109.53.68-219.22-.44-328.63-.48-44.02-31.42-83.77-70.57-86.42-52.97-3.65-106.36-1.01-161.61-1.01v462.61zm239.52 251.36h6.74c57.7-.68 107.73-18.9 153.59-50.8 65.24-45.3 102.51-106.36 101.39-189.41-1.73-123.98 0-247.91-.76-371.89-.49-101.54-36.8-183.56-132.69-231.02 77.79-56.74 107.05-105.36 108.29-193.22 1.89-127.59 2.57-255.06 0-382.52-2.65-137.54-92.6-222.76-229.34-222.76h-530.01v1640.67c177.15 0 349.74-1.41 522.35.76l.44.2zm-241.45-1393.75v430.71c62.75 0 122.97 1.24 183.32-1.13 8.79-.48 24.04-17.57 24.2-27.32 1.72-122.49 1.88-245.27 0-367.84-.16-11.59-17.78-32.22-28.29-32.7-59.11-3.13-118.2-1.72-179.23-1.72zm2009.1 6.17c-78.79 0-151.26-1.16-223.39.73-25.93.76-37.56-8.47-46.35-32.22-27.24-73.22-57.26-145.37-87.1-220.83h971.07c-10.44 31.1-19.67 59.74-29.7 88.34-15.4 44.82-32.7 89.23-46.22 134.85-7.1 24.2-19.5 30.38-43.26 29.86-73.57-1.37-147.24-.44-224.39-.44v1384.44h-270.43v-1384.44l-.24-.29zm2050.14 847.66c.92 11.15 2.37 21.38 2.37 31.58.28 76.22.76 152.74-.2 228.89-.28 24.96 8.22 38.76 34.47 38.76 44.17 0 88.02-.28 132.2-.28 27.52 0 38.68-16.65 38.96-41.05.64-96.65 2.33-193.02-1.24-289.68-.65-20.43-17.1-46.07-34.15-59.15-46.99-36.11-96.65-69.28-147.93-99.26-91.44-53.16-176.94-112.58-241.49-198.03-35.11-46.75-56.02-96.57-54.13-158.13 3.61-114.42.96-228.89.96-343.32 0-117.55 94.93-212.04 213.93-212.2 103.75-.32 207.46 0 311.06 0 137.17 0 214.85 71.38 225.72 208.15.96 13.04.76 26.2.76 39.24v252.77h-264.24c-.96-9.15-2.65-19.34-2.85-29.57-.76-59.67-1.53-119.24-1.24-178.83 0-24.67-10.2-39.2-34.87-39.64-48.92-.76-97.82-2.37-146.53 1.12-10.67.76-28.25 20.75-28.45 32.06-2.37 85.78-5.3 171.93 1.12 257.14 1.69 23.28 30.94 49.68 53.73 65.36 72.34 50.03 148.13 95.16 222.15 143.19 65.36 42.46 129.48 88.03 167.88 157.16 18.33 32.75 31.09 73.14 32.06 110.22 1.68 56.93 2.16 113.94 2.16 171.16v33.66c0 66.48-.72 132.77-.92 199.29-.32 118.68-95.89 216.29-214.85 217.69-113.3 1.41-226.56.93-339.83 0-90.91-.76-193.98-99.78-195.87-191.13l-.36-347.73zm6391.72-1380.72c-106.24-38.76-210.31-76.38-314.23-114.54-635.33-233.31-1270.5-466.94-1906.07-699.48-28.81-10.64-37.59-24.04-37.59-54.45.72-1785.63.72-3571.4.2-5357.11 0-26.12 6.38-43.46 28.04-60.59 730.42-575.3 1460.32-1151.42 2190.37-1727.52 11.52-9.11 23.31-17.34 39.56-29.29v8042.73l-.28.24zm527.61.04v-8044.58c72.61 57.1 141.03 110.49 208.71 164.18 669.07 527.73 1337.98 1055.8 2007.58 1582.81 31.49 24.79 43.01 49.63 43.01 89.91-1.08 1773.7-1.08 3547.4.28 5321.39 0 44.54-11.48 63.83-54.21 79.24-721.39 262.92-1441.93 527.84-2162.64 792.09-13.4 5.09-27 9.67-42.41 14.96zm1761.23 467.74 140.34 468.62 140.11-468.62h217.9l-249.16 681.95-5.69 14.64v505.46h-205.79v-505.46l-6.46-14.64-249.15-681.95zm-1303.03 823.3 238.76-823.3h205.78v1202.05h-196.87v-674.65l-175.78 674.65h-139.59l-180.75-674.65v674.65h-199.08v-1202.05h205.54l241.98 823.3zm-1561.78-652.47v344.45h47.06c28.81 0 48.4-1.69 59.07-5.02 37.19-12.56 55.77-38.08 55.77-76.55v-180.71c0-54.77-29.77-82.17-89.27-82.17h-72.61zm-205.54-170.84 299.23.6c182.48 0 273.75 84.1 273.75 252.41v180.71c0 105.8-53.8 175.46-161.93 208.91l231.1 559.42h-225.12l-185.48-528.69-26 2.93v525.76h-205.54v-1202.05zm-1045.7 775.64-78.32-500.04-78.39 500.04h156.72zm207.79 0 66.91 426.42h-207.78l-39.89-254.94h-210.03l-40.65 254.94h-207.02l66.91-424.54 145.33-777.52h281.66z" fill="#373435"/></svg>