<svg clip-rule="evenodd" fill-rule="evenodd" height="1113" image-rendering="optimizeQuality" shape-rendering="geometricPrecision" text-rendering="geometricPrecision" viewBox="-12.33 0 13021.53 5789.93" width="2500" xmlns="http://www.w3.org/2000/svg"><g fill="#2b2a29"><path d="m3943.2 5013.72h-3886.55v-133.12l3886.55 1.2z"/><path d="m4440.24 4561.71c0-107.76 2.1-206.95 6.36-256.46-4.26-17.24-19.11-23.74-29.58-23.74-14.9 0-95.31 41.01-188.24 69.01-84.55 23.62-183.95 47.41-270.79 60.42-16.86 12.87-14.72 64.5 4.25 75.37l97.3 12.9c93.05 12.87 101.55 45.23 101.55 187.01v695.82c0 172.4-12.76 193.93-116.26 202.54l-86.84 6.36c-18.97 13.02-16.86 69.45 4.25 75.82 76.2-4.26 203.11-5.73 342.63-5.73 131.13 0 258.04 1.47 334.2 5.73 21.11-6.37 23.25-62.8 4.26-75.82l-86.81-6.36c-103.5-8.62-116.26-30.14-116.26-202.54v-820.32zm930.6-280.2c-262.29 0-469.62 196.18-469.62 472.02 0 217.55 160.74 383.45 359.6 383.45 86.65 0 173.45-27.84 209.32-66.75 2.1-17.27-2.15-38.76-12.61-45.27-19.11 0-31.72 0-59.23-4.26-143.88-25.89-213.68-211.19-213.68-387.84 0-129.29 57.19-252.21 156.6-252.21 177.64 0 224.22 312.49 224.22 476.27 0 396.47-213.71 758.47-626.14 861.86-18.97 15.13-16.85 60.39 8.51 71.15 177.75-6.39 458.89-133.53 634.49-299.46 179.7-168.19 291.86-394.36 291.86-655.07 0-299.57-179.85-553.89-503.32-553.89zm1021.39 135.79c103.7 0 173.5 77.67 173.5 157.28 0 97.04-50.83 161.68-88.91 193.93-84.59 71.15-255.79 142.3-340.48 174.69-18.99 49.52 6.37 94.64 48.73 103.29 52.83-49.51 122.63-90.41 209.32-90.41 150.12 0 247.43 137.9 247.43 329.71 0 265.08-192.49 387.85-283.4 387.85-29.61 0-65.44-10.87-90.95-49.63-18.96-27.99-65.54-114.16-141.62-114.16-84.55 0-126.87 60.39-126.87 118.52 0 109.91 114.12 152.92 228.27 152.92 114.31 0 306.66-38.76 488.61-172.3 169.1-127.14 243.18-284.45 243.18-439.62 0-206.79-164.99-340.43-355.34-333.97-27.47 0-42.32-17.23-18.97-27.99 230.54-101.4 266.51-189.67 266.51-278.1 0-144.41-129.01-247.8-336.34-247.8-190.35 0-357.34 99.14-441.99 273.69 0 25.9 29.57 49.52 59.19 40.9 63.59-96.89 158.63-178.8 260.14-178.8zm1235.11 965.11c0 176.28-12.72 193.55-116.26 202.17l-86.8 6.36c-19 13.02-16.86 69.45 4.25 75.82 71.94-4.26 198.81-5.73 338.33-5.73 97.3 0 209.47 1.47 285.66 5.73 21.11-6.37 23.21-62.8 4.26-75.82l-44.48-4.22c-93.21-8.65-105.8-28.03-105.8-204.31v-60.39c0-55.72 4.25-62.12 48.57-62.12h139.67c31.72-19.38 31.72-103.5 0-120.66h-139.67c-44.33 0-48.57-6.48-48.57-62.5v-409.48c0-21.52-8.51-36.65-27.47-36.65-35.98 0-150.13 43.15-205.22 66.75-33.86 13.02-46.47 28.15-46.47 77.66v301.72c0 56.03-4.25 62.5-48.57 62.5h-260.14c-67.7 0-65.58-17.24-46.62-45.27l634.49-896.49c31.72-43 14.86-58.13-21.11-58.13h-61.3c-29.61 0-46.62 17.24-69.83 51.77l-687.32 999.76c-8.51 28-2.11 58.25 23.21 69.01h488.61c44.33 0 48.57 6.4 48.57 62.12v60.39z" fill-rule="nonzero"/><path d="m12054.18 5013.72h-3886.51v-133.12l3886.51 1.2z"/><g fill-rule="nonzero"><path d="m9790.22 2851.87c0 532.15-24.99 608.34-309.43 633.7l-164.58 15.39c-29.99 32.13-19.9 113.47 9.97 128.76 294.38-10.2 464.04-15.28 678.55-15.28h449.02c444.15 0 888.13 5.08 1337.31 15.28 64.79-137.27 189.44-528.8 224.47-706.7-20.05-45.79-89.85-60.91-124.77-35.56-129.7 264.4-264.44 442.26-354.29 493.13-109.64 55.87-254.46 76.3-638.59 76.3-439.1 0-543.81-56.03-603.82-116.94-79.77-86.43-94.63-259.24-94.63-528.84v-716.78c0-132.18 14.86-137.22 164.58-137.22h289.23c194.76 0 314.48 5.03 384.28 25.47 99.82 25.36 134.74 101.67 154.79 193.14l44.85 198.29c24.95 30.4 109.75 30.4 129.7-5.15 0-111.79-19.94-305.04-19.94-487.94 0-193.28 19.94-391.57 19.94-513.56-19.94-35.59-104.75-35.59-129.7-5.04l-39.95 208.38c-24.95 127.18-59.87 157.58-119.72 178.01-59.87 20.32-214.51 30.4-424.24 30.4h-289.23c-149.72 0-164.58 0-164.58-142.3v-1016.77c0-193.25 0-203.32 149.6-203.32h359.29c219.44 0 379.13 5.03 483.98 30.52 259.36 66.11 304.21 243.96 379.09 482.89 24.95 30.56 104.72 20.48 124.77-10.08-20.05-223.65-49.9-589.76-79.77-676.14-59.86 15.23-354.29 15.23-673.65 15.23h-938.02c-204.58 0-374.2-5.15-588.7-15.23-29.87 15.23-39.96 106.7-10.09 127.02l79.89 10.2c294.42 35.6 304.39 111.91 304.39 640.59v1830.17zm-1646.59 460.96c35.07 45.79 69.83 86.42 69.83 116.94 0 25.36-49.78 40.64-119.61 50.83l-114.8 20.32c-29.99 30.4-15.02 117.73 19.9 127.97 229.52-10.24 404.18-13.66 608.71-13.66 234.56 0 429.17 3.43 558.83 13.66 34.92-15.28 44.89-102.61 9.97-127.97l-134.74-15.27c-169.62-20.29-294.39-87.45-414.11-209.44l-1578.79-1527.54 1184.55-1017.71c209.46-201.86 500.95-337.14 793.38-360.08 29.99-30.41 25.07-101.71-9.81-127.03-149.76 10.2-319.38 15.24-494.07 15.24-174.55 0-374.19-5.04-548.85-15.24-39.95 25.32-44.89 91.43-9.97 127.03l134.74 30.52c64.9 15.38 84.81 30.51 84.81 50.98 0 20.28-1.99 53.35-34.91 81.34l-1542.52 1312.26 1537.48 1466.85zm-2746.22-2730.69c146.51 0 226.96-115.74 226.96-255.51 0-125.18-80.45-260.19-226.96-260.19-146.56 0-245.96 130.23-245.96 269.86 4.78 163.93 104.04 245.85 245.96 245.85zm-768.97 0c146.67 0 241.19-115.74 241.19-255.51 0-125.18-94.52-260.19-241.19-260.19-146.52 0-245.96 130.23-231.74 269.86 0 163.93 85.22 245.85 231.74 245.85zm-4196.73 2269.73c0 532.15-9.97 588.02-274.37 633.7l-89.86 15.39c-30.02 32.13-20.05 113.47 9.94 128.76 184.63-5.16 354.29-15.28 573.83-15.28 209.47 0 454.07 15.28 598.78 15.28 898.1 0 1327.22-396.47 1327.22-986.23 0-543.96-399.28-798.16-668.73-848.99-54.82-10.24-94.78-25.47-94.78-76.3 299.46-142.3 509.04-330.55 509.04-696.5 0-325.32-164.72-528.68-379.23-635.54-224.59-116.94-523.91-142.26-838.24-142.26-464.04 0-803.43 15.23-1072.75 40.6-39.96 20.44-44.89 96.62-5.04 127.18l159.69 15.12c224.59 20.44 244.49 116.94 244.49 493.24v1931.84zm409.22-2287.7c0-91.59 19.79-116.94 69.69-132.22 45-20.28 119.72-30.52 229.63-30.52 379.09 0 743.34 188.09 743.34 686.38 0 477.85-274.37 630.39-783.3 650.67-254.46 10.24-259.36 0-259.36-142.26zm0 1459.02c0-101.67 19.79-132.17 289.38-132.17 793.24 0 992.84 467.76 992.84 869.42 0 508.37-339.28 711.73-783.42 711.73-149.72 0-299.32-25.51-394.09-142.45-94.89-111.75-104.72-371.11-104.72-554.16v-752.38z"/><path d="m7099.95 238.39c39.96 20.29 39.96 96.63 9.97 127.14l-84.7 10.09c-119.87 14.48-241.33 50.72-309.4 123.6-106.49 114.26-109.64 222.97-109.64 365.27v1469.14c0 243.14-7.31 864.35 64.9 1046.35 22.43 57.07 104.45 88.79 219.4 101.82l134.74 15.27c29.99 30.37 24.95 102.46-9.97 127.93-204.65-8.62-612.18-10.08-816.86.41l.15-566.01c-259.62 685.21-2813.6 1168.78-2813.6-986.06v-1056.74c0-528.31-9.81-616.95-299.46-640.58l-124.77-10.24c-29.87-20.32-19.79-106.7 10.08-121.84 249.43 10.09 419.05 15.13 618.69 15.13 204.53 0 369.14-5.04 613.65-15.13 29.98 15.13 39.95 101.52 9.93 121.84l-119.58 10.24c-289.5 24.56-299.47 111.9-299.47 640.58v955.03c-159.01 1877.58 2173.02 1690.96 2404.54 813.02l.27-2209.67c-9.03-32.77-19.11-60.02-30.25-79.92-34.4-61.33-189.04-108.82-313.65-119.04l-124.81-10.24c-29.98-35.55-20.01-101.67 9.97-121.84 360.12 34.09 1078.48 38.76 1359.88-5.57z"/></g><path d="m12434.05 0c317.64 0 575.15 262.4 575.15 586.02 0 323.73-257.52 586.02-575.15 586.02-317.64 0-575.15-262.29-575.15-586.02 0-323.62 257.52-586.02 575.15-586.02zm-265.23 940.68v-716.78h311.8c62.8 0 110.43 6.51 142.98 19.38 32.62 12.76 58.66 35.59 78.15 68.1 19.53 32.51 29.08 68.52 29.08 107.92 0 50.83-16.18 93.72-48.46 128.64-32.24 34.88-82.02 56.93-149.45 66.37 24.68 12.07 43.42 24.01 56.14 35.71 27.25 25.32 52.98 57.19 76.99 95.42l121.45 194.98c88.16-91.32 142.46-216.36 142.46-354.4 0-279-222.07-505.32-495.92-505.32-273.84 0-495.91 226.32-495.91 505.32 0 279.15 222.06 505.32 495.91 505.32 138.31 0 263.23-57.61 353.2-150.65h-115.74l-93.05-149.18c-27.1-43.12-49.52-76.04-67.01-98.88-17.68-22.95-33.34-38.75-47.26-47.93-13.81-8.99-28.03-15.39-42.48-19.11-10.49-2.11-27.61-3.32-51.77-3.32h-107.65v318.43h-93.46zm93.46-400.45h199.64c42.75 0 75.78-4.52 99.56-13.55 24-8.77 42.18-23.22 54.41-43 12.49-19.65 18.7-41.02 18.7-64.23 0-33.86-11.93-62.01-35.98-83.76-24.15-21.9-62.12-32.66-114.01-32.66h-222.33v237.2z"/></g></svg>