<svg height="2500" viewBox="0 0 2095 2095" width="2500" xmlns="http://www.w3.org/2000/svg"><path d="m0 0h2095v2095h-2095z" fill="#fefefe"/><path d="m466 896 48.5-.188 15.22-.082c6.213-.014 6.213-.014 9.136-.016a1116.9 1116.9 0 0 0 6.025-.03c22.416-.164 46.927 1.557 64.396 17.379 8.68 9.051 12.085 19.34 11.934 31.683-.627 9.675-3.73 17.34-9.211 25.254l-1.813 2.688c-3.365 3.557-7.26 6.4-11.187 9.312l2.563 1.285c13.172 6.811 21.644 14.133 26.833 28.442 1.143 4.3 1.09 8.6 1.042 13.023l-.026 2.948c-.305 13-4.11 21.587-12.998 30.978-18.454 17.419-47.055 16.633-70.629 16.52-2.05-.004-4.1-.006-6.15-.007-7.524-.01-15.048-.038-22.572-.064l-51.063-.125z" fill="#980201"/><path d="m4 4h2087v2087h-2087zm3 3v2081h2081v-2081z" fill="#3a3a38"/><path d="m690 896h41l.044 9.477c.05 10.385.117 20.77.192 31.156.044 6.29.084 12.581.11 18.872.027 6.082.067 12.164.117 18.246.017 2.309.028 4.618.035 6.927-.337 27.446-.337 27.446 11.389 51.51 4.258 4.016 8.55 6.173 14.113 7.812l2.8 1.05c11.607 3.444 24.07.648 34.575-4.8 10.544-9.038 13.895-18.711 15.625-32.25.26-3.762.31-7.506.319-11.276l.03-3.198c.03-3.44.048-6.882.065-10.323a8613.107 8613.107 0 0 0 .187-26.092c.04-6.435.091-12.87.141-19.306.097-12.602.18-25.203.258-37.805h41c.068 13.736.123 27.472.155 41.208.016 6.38.037 12.76.071 19.14.033 6.173.05 12.346.059 18.519.005 2.339.016 4.678.032 7.017.186 27.625-1.76 54.39-21.88 75.303-16.464 16.326-38.956 21.006-61.437 21.25-21.439-.157-42.43-6.042-58-21.437-15.746-16.177-21.191-38.004-21.114-60.076v-3.313c0-3.598.008-7.196.016-10.795l.005-7.503c.003-5.9.01-11.8.021-17.7.012-7.38.018-14.762.023-22.142.01-13.157.028-26.314.049-39.471z" fill="#990302"/><path d="m1473 896h156v34h-57v145h-41v-145h-58z" fill="#980100"/><path d="m1107 896h42v145h89v34h-131z" fill="#980101"/><path d="m923 896h41v145h90v34h-131z" fill="#980302"/><path d="m1292 968h124v32h-83v42h97v33h-138z" fill="#980100"/><path d="m5 5h2085l-1 2083h-1v-2081h-2081v2081h-1z" fill="#686866"/><path d="m1292 896h135v34h-135z" fill="#9b0706"/><path d="m507 1000c7.61-.084 15.217-.164 22.827-.207 3.544-.021 7.089-.049 10.633-.095 4.081-.052 8.162-.071 12.243-.089l3.79-.062c9.152-.002 18.554 1.105 26.07 6.828 5.365 5.778 6.04 10.7 5.855 18.426-.759 5.806-3.336 9.358-7.642 13.165-12.696 9.303-31.964 6.48-46.713 6.284-2.63-.02-5.26-.038-7.89-.055-6.391-.04-12.781-.118-19.173-.195z" fill="#fdfcfc"/><path d="m507 927c6.741-.092 13.48-.172 20.22-.22 2.289-.02 4.577-.047 6.864-.082 31.22-.463 31.22-.463 41.916 9.302 4.23 5.457 3.748 12.412 3 19-2.46 5.297-6.547 9.376-11.854 11.872-6.576 2.392-12.673 2.518-19.619 2.421l-3.526-.013c-3.688-.017-7.376-.054-11.063-.093-2.513-.015-5.025-.028-7.538-.04-6.133-.03-12.266-.09-18.4-.147z" fill="#fdfbfb"/><path d="m868.738 1150.133c4.936 3.698 8.119 8.803 9.262 14.867.653 9.493.279 17.03-5.625 24.688-4.877 5.327-11.46 8.877-18.672 9.515-9.21.176-16.453-2.286-23.3-8.7-5.323-5.661-7.47-11.785-7.84-19.503.274-7.691 3.658-13.894 8.792-19.496 10.458-9.563 26.037-8.766 37.383-1.371z" fill="#090909"/><path d="m1317.813 1144.563 2.14.025c7.91.255 13.083 2.359 18.86 7.662 6.358 7.024 7.863 12.802 7.578 22.336-.773 6.754-3.568 12.59-8.391 17.414-8.935 6.498-17.232 6.75-28 6-3.199-.803-5.42-1.97-8-4l-1.887-1.438c-5.955-5.193-8.388-11.657-9.527-19.363-.378-7.03 1.356-12.459 5.414-18.199 6.164-6.721 12.517-10.578 21.813-10.438z" fill="#070707"/><path d="m741 1146 13.438-.25 4.18-.11c8.742-.079 15.321.65 21.917 6.676 1.856 3.4 1.965 5.761 1.903 9.621l-.004 3.59c-.475 3.801-1.428 6.225-3.434 9.473-3.188 2.375-3.188 2.375-6 4 1.69 5.021 4.648 8.68 7.898 12.803 3.102 4.003 3.102 4.003 3.102 6.197-4.012 1.117-7.024 1.344-11 0-2.187-2.415-3.784-5.14-5.438-7.938-3.327-5.916-3.327-5.916-8.921-9.347-3.663-.324-3.663-.324-8.641.285v17h-9z" fill="#080808"/><path d="m658 1146c30.462 0 30.462 0 36.875 5.438 4.855 5.853 4.752 11.147 4.125 18.562-1.625 4.964-4.486 8.365-9 11-7.285 2.893-15.322 2.15-23 2v15h-9z" fill="#060606"/><path d="m1492 1166h137v11h-137z" fill="#980101"/><path d="m466 1166h137v11h-137z" fill="#9b1212"/><path d="m1389 1146c9 0 9 0 12.3 2.938a120.89 120.89 0 0 1 3.013 4.062l1.642 2.163a499.897 499.897 0 0 1 5.045 6.837c1.117 1.485 2.236 2.969 3.36 4.45a882.17 882.17 0 0 1 7.29 9.768c1.739 2.295 3.551 4.534 5.35 6.782l1-37h9v52c-10 0-10 0-12.742-2.063l-2.133-2.937-1.206-1.6a187.04 187.04 0 0 1 -2.557-3.5c-1.448-2.02-2.942-4-4.448-5.978a812.616 812.616 0 0 1 -6.055-8.063c-2.937-3.964-5.898-7.911-8.859-11.859l-1 36h-9z" fill="#060606"/><path d="m996 1146h37v8h-28v14h25v8h-25v14h29v8h-38z" fill="#030303"/><path d="m1327.375 1154.063c4.316 3.185 7.911 6.796 9.625 11.937.76 6.719.452 11.779-3.563 17.344-3.192 3.677-6.343 6.48-11.265 6.894-11.443.248-11.443.248-16.172-4.238-4.325-4.565-5.774-8.66-6.375-14.875.193-5.623 2.305-9.787 6-13.96 6.38-5.663 13.866-5.584 21.75-3.102z" fill="#fbfbfb"/><path d="m859.25 1154.063c4.055 2.857 7.516 6.469 9.75 10.937.506 6.497.897 12.491-3 18-3.655 4.124-6.442 6.648-11.953 7.406-6.78.193-11.388-.031-16.524-4.722-4.837-5.347-5.121-10.476-4.93-17.485.707-5.56 2.756-9.136 7.169-12.57 6.164-3.613 12.79-3.756 19.488-1.566z" fill="#fcfcfc"/><path d="m1116 1148c3 2.188 3 2.188 5 4-.564 3.27-1.5 4.826-4 7-2.823-1.112-5.532-2.266-8.25-3.625-5.19-1.903-9.753-2.662-14.96-.426-4.127 2.431-7.144 4.998-9.79 9.051-.969 6.09-.928 12.006 1.688 17.625 4.575 4.699 7.829 7.51 14.437 7.75 5.242 0 8.098-1.192 12.121-4.477l1.754-.898c3.454 1.175 5.002 3.003 7 6-5.958 5.644-12.678 9.12-21 9.5-7.346-.324-14.84-3.192-20-8.5-5.842-7.96-7.873-15.133-7-25 1.406-7.223 5.966-13.078 11.871-17.355 9.262-5.518 21.608-5.492 31.129-.645z" fill="#090909"/><path d="m1158 1146h41v8h-16v44h-9v-44h-16z" fill="#050505"/><path d="m915 1146h40v8h-16v44h-9v-44h-15z" fill="#090909"/><path d="m1492 1166h137v11h-137zm1 1v7h128c1.345-3.14 1.345-3.14 0-7z" fill="#a22625"/><path d="m1292 968h124v1h-121v105h135v1h-138z" fill="#991e1e"/><path d="m1107 896h42v1h-41v177h129v-27h-2v-3l-86-1v-2h89v34h-131z" fill="#aa4545"/><path d="m1473 896h156v34h-57v-1h56v-31h-153v31h56v1h-58z" fill="#9c2827"/><path d="m1240 1146h9v52h-9z" fill="#0d0d0d"/><path d="m667 1154 7.688-.188 2.393-.082c4.534-.054 7.356.434 10.919 3.27 2.495 3.742 2.376 5.562 2 10-1.944 5.424-1.944 5.424-5.125 7.16-3.6 1.052-6.978 1.057-10.688.965l-7.187-.125z" fill="#f9f9f9"/><path d="m750 1154 8.188-.125 2.551-.055c4.17-.03 7.518.101 11.261 2.18 1.21 2.42 1.27 4.175 1.375 6.875l.148 2.617c-.523 2.508-.523 2.508-2.463 4.813-4.221 2.34-7.643 2.138-12.371 1.945l-8.689-.25z" fill="#fefefe"/><path d="m602 1174v2h-135v-2c17.306-.154 34.613-.302 51.92-.443 8.035-.066 16.07-.133 24.105-.205 7.002-.063 14.004-.122 21.005-.177 3.71-.03 7.418-.06 11.127-.096 4.136-.039 8.271-.07 12.407-.1l3.747-.04 3.4-.021 2.966-.025c2.323.107 2.323.107 4.323 1.107z" fill="#9c0000"/><path d="m466 896c12.683-.046 25.367-.082 38.05-.104 5.891-.01 11.781-.024 17.672-.047 5.693-.022 11.386-.034 17.079-.039 2.163-.003 4.327-.01 6.49-.021 11.083-.054 21.816-.091 32.709 2.211l-6 3a736.455 736.455 0 0 1 -4-2c-2.093-.306-2.093-.306-4.315-.278l-2.592-.034-2.819-.007-2.987-.03c-3.257-.031-6.514-.048-9.771-.065a7465.921 7465.921 0 0 0 -24.61-.187c-6.067-.04-12.133-.091-18.199-.141-11.902-.097-23.805-.181-35.707-.258z" fill="#aa3030"/><path d="m618 928c4.705 7.058 3.733 17.138 2.188 25.188l-1.188 3.812-3 1 .184-1.625c.596-5.577 1.027-11.154 1.379-16.75l.132-2.09c.194-3.189.305-6.338.305-9.535z" fill="#a32727"/><path d="m615.293 1057.332 1.707.668c-4.482 3.515-8.771 6.647-14 9 .358-2.787.805-3.824 2.926-5.738l2.387-1.575 2.363-1.613c2.324-1.074 2.324-1.074 4.617-.742z" fill="#9b1212"/><path d="m1624 1167h5v9l-1-2h-4z" fill="#920404"/><path d="m810 1004 3 1c.783 6.106-1.892 10.005-5 15-1.587-3.175.02-5.678 1-9 .37-2.328.714-4.66 1-7z" fill="#9a1514"/><path d="m827 1060-9 7-3-2a222.997 222.997 0 0 1 3.75-3.063l2.11-1.722c2.14-1.215 2.14-1.215 6.14-.215z" fill="#9b100f"/><path d="m575 999 1 4-15-3v-1c9.41-1.333 9.41-1.333 14 0z" fill="#981918"/><path d="m556 897c7.418-.094 14.662-.174 22 1l-6 3-1.734-.898c-2.88-1.4-5.33-1.52-8.516-1.727l-3.266-.227-2.484-.148z" fill="#911313"/><path d="m843 1031 3 1-4 10-2-3c1.444-6.444 1.444-6.444 3-8z" fill="#9c1414"/><path d="m838 1042 2 3-5 7-2-1c1.25-3.46 2.675-6.147 5-9z" fill="#9b0e0e"/><path d="m593 903 10 5-3 2c-2.938-1.25-2.938-1.25-6-3z" fill="#9c1616"/><path d="m613 919c3.09 2.528 4.116 5.144 5 9l-2 3c-1.425-3.99-2.4-7.805-3-12z" fill="#9a1313"/><path d="m617 951 3 1-2 6h-2z" fill="#9d1111"/><path d="m626 1008c2.786 4.18 1.796 6.147 1 11l-2-2c.023-2.164.023-2.164.375-4.625l.336-2.477z" fill="#9f1010"/><path d="m577 1073h8l-1 3h-7z" fill="#f1e2e2"/><path d="m575 1040 2 1-1 3-8-1c2.332-1.206 4.496-2.165 7-3z" fill="#a52928"/></svg>