<svg viewBox="7.28 4.01 226.75853259326908 64.55999999999999" xmlns="http://www.w3.org/2000/svg" width="2500" height="690"><g fill="#fff"><path d="M84.88 11.93h8a5.73 5.73 0 0 1 3.83 1.25A3.71 3.71 0 0 1 98 16.05a3.46 3.46 0 0 1-.83 2.36 4.09 4.09 0 0 1-2.54 1.22 5.73 5.73 0 0 1 3.5 1.94 5.36 5.36 0 0 1 1.37 3.32v.21q0 4.75-7.72 4.75h-6.9q-.36 0-.36-.3a1.24 1.24 0 0 1 .06-.21 3.9 3.9 0 0 0 .42-1.48l-.12-14.22a1.32 1.32 0 0 0-.18-.69 1.92 1.92 0 0 1-.21-.42v-.12q-.06-.41.39-.48zm8 15.75a2.26 2.26 0 0 0 1.65-2.37 4.05 4.05 0 0 0-1.17-2.89 5.89 5.89 0 0 0-1.68-1.17A4.07 4.07 0 0 0 90 20.8q-1 0-1 .75 0 .3.09 5.08a2.62 2.62 0 0 0 .18 1.17q.15.18.9.18h.12a8.39 8.39 0 0 0 2.55-.3zm.93-11.27a2.65 2.65 0 0 0-1.05-2.1 3.59 3.59 0 0 0-2.22-.9h-.84q-.45 0-.56.15a1.61 1.61 0 0 0-.11.75v3a3.53 3.53 0 0 0 .15 1.32 1 1 0 0 0 .6.12h.57a5.37 5.37 0 0 0 2.55-.5 1.89 1.89 0 0 0 .87-1.84zM105.22 23.56a5.32 5.32 0 0 0 .78 3.34 1.63 1.63 0 0 0 1.23.66 1.35 1.35 0 0 0 1.16-.77 4.36 4.36 0 0 0 .47-2.24v-.09l-.09-4.75a1.54 1.54 0 0 0-.08-.51 1.91 1.91 0 0 0-.18-.38l-.14-.23v-.12a.5.5 0 0 1 .42-.51 11.87 11.87 0 0 0 3.4-1.53.72.72 0 0 1 .42-.15q.33 0 .33.69V27.5a4 4 0 0 0 .42 1.8.49.49 0 0 1 .06.21.29.29 0 0 1-.33.33H110a1 1 0 0 1-.78-.36 1.7 1.7 0 0 1-.33-1.17v-.72a3.79 3.79 0 0 1-3.34 2.07 4.13 4.13 0 0 1-3.08-1.41 4.91 4.91 0 0 1-1.37-3.43v-1.61-1.89-1.61a1.54 1.54 0 0 0-.08-.51 1.91 1.91 0 0 0-.18-.38l-.14-.23v-.12a.49.49 0 0 1 .3-.47 7.52 7.52 0 0 0 3.4-1.53.83.83 0 0 1 .42-.15q.33 0 .33.69v3.31q.04 2.16.07 3.24zM122.08 19.27a1.32 1.32 0 0 0 .12-.54q0-.75-1-.75a2.26 2.26 0 0 0-1.29.41 1.31 1.31 0 0 0-.63 1.07v.09a1.81 1.81 0 0 0 .92 1.46 15.19 15.19 0 0 0 2.5 1.35 15.19 15.19 0 0 1 2.3 1.17 2.9 2.9 0 0 1 1.26 2.47 3.6 3.6 0 0 1-.5 1.8 3.86 3.86 0 0 1-1.4 1.41 7.16 7.16 0 0 1-3.88 1.11 6.14 6.14 0 0 1-3.5-1 5.35 5.35 0 0 1-2.15-2.93 2.77 2.77 0 0 1-.09-.66q0-.66.39-.72h.09a.85.85 0 0 1 .57.3 9.16 9.16 0 0 0 2.34 1.8 4.09 4.09 0 0 0 1.8.42q1.32 0 1.32-.75t-1.83-1.68q-3.52-1.68-4.33-3.55a3.19 3.19 0 0 1-.24-1.11 2.93 2.93 0 0 1 .6-1.76 4.6 4.6 0 0 1 1.55-1.34 8.22 8.22 0 0 1 3.94-.9 8 8 0 0 1 3.16.6 3.6 3.6 0 0 1 2 1.74 2.63 2.63 0 0 1 .24 1 1.67 1.67 0 0 1-.54 1.26 2.52 2.52 0 0 1-1.44.63 2.67 2.67 0 0 1-.48 0 2.85 2.85 0 0 1-1.59-.45 1.13 1.13 0 0 1-.57-.84 9.58 9.58 0 0 1 .36-1.11zM132.45 17l.06 10.85a3.93 3.93 0 0 0 .42 1.44.49.49 0 0 1 .06.21c0 .22-.13.33-.39.33h-4.21q-.39 0-.39-.33a.47.47 0 0 1 .06-.21 4 4 0 0 0 .42-1.44l-.18-8.11a1.67 1.67 0 0 0-.08-.53 1.2 1.2 0 0 0-.2-.38.87.87 0 0 1-.15-.24v-.12q0-.36.45-.48a8.64 8.64 0 0 0 3.37-1.56.8.8 0 0 1 .39-.15q.37.01.37.72zm-2-6.79a2.27 2.27 0 0 1 1.68.71 2.37 2.37 0 0 1-3.35 3.35 2.34 2.34 0 0 1 0-3.35 2.28 2.28 0 0 1 1.63-.7zM142.25 22.54a6 6 0 0 0-.75-3.34 1.63 1.63 0 0 0-1.23-.66 1.35 1.35 0 0 0-1.16.78 4.67 4.67 0 0 0-.47 2.34v6.19a3.83 3.83 0 0 0 .39 1.44.5.5 0 0 1 .06.21q0 .33-.36.33h-4.24q-.36 0-.36-.33a1.19 1.19 0 0 1 .06-.21 3.86 3.86 0 0 0 .39-1.44q0-1.74-.09-4.46t-.09-3.65a1.45 1.45 0 0 0-.06-.45 1.61 1.61 0 0 0-.17-.35l-.13-.23a.76.76 0 0 1 0-.24c0-.24.14-.4.42-.48a8.2 8.2 0 0 0 3.37-1.53.87.87 0 0 1 .45-.18q.33 0 .33.72v1.47a3.54 3.54 0 0 1 3.22-2 4.29 4.29 0 0 1 3.11 1.37 4.81 4.81 0 0 1 1.4 3.47v6.55a4 4 0 0 0 .42 1.44.53.53 0 0 1 0 .21c0 .22-.12.33-.36.33h-4.21q-.39 0-.39-.33a.49.49 0 0 1 .06-.21 3.53 3.53 0 0 0 .39-1.44q.06-2.79 0-5.32zM150.57 18a7.58 7.58 0 0 1 5-1.53 6.37 6.37 0 0 1 3.62 1 3.29 3.29 0 0 1 1.46 2.93v.12a3 3 0 0 1-.32 1.29 3.3 3.3 0 0 1-.62.86 3.14 3.14 0 0 1-1.07.59 9.7 9.7 0 0 1-1.14.36l-1.37.27a3.67 3.67 0 0 0-2.61 1.44 3.12 3.12 0 0 0 1.1 1.64 2.85 2.85 0 0 0 1.79.62 3.48 3.48 0 0 0 2.88-1.71c.06-.08.13-.19.21-.32l.2-.3a1 1 0 0 1 .17-.18.32.32 0 0 1 .21-.08q.36 0 .36.78a4.91 4.91 0 0 1-.06.6 4.24 4.24 0 0 1-1.82 2.76 5.87 5.87 0 0 1-3.38 1 7.11 7.11 0 0 1-4-1.26 6.33 6.33 0 0 1-2.57-3.58 7.06 7.06 0 0 1-.36-2.25 6.27 6.27 0 0 1 2.32-5.05zm3.91.12q-1.68.15-1.68 3.55a19.2 19.2 0 0 0 .15 2.16 6 6 0 0 1 1.4-.77 4.83 4.83 0 0 0 1.56-1 2.19 2.19 0 0 0 .56-1.59 2.68 2.68 0 0 0-.54-1.59 1.57 1.57 0 0 0-1.29-.75zM169.39 19.27a1.32 1.32 0 0 0 .12-.54q0-.75-1-.75a2.26 2.26 0 0 0-1.29.41 1.31 1.31 0 0 0-.63 1.07v.09a1.81 1.81 0 0 0 .92 1.46 15.19 15.19 0 0 0 2.5 1.35 15.19 15.19 0 0 1 2.27 1.19 2.9 2.9 0 0 1 1.29 2.45 3.6 3.6 0 0 1-.5 1.8 3.86 3.86 0 0 1-1.4 1.41 7.16 7.16 0 0 1-3.88 1.11 6.14 6.14 0 0 1-3.5-1 5.35 5.35 0 0 1-2.15-2.93 2.77 2.77 0 0 1-.09-.66q0-.66.39-.72h.09a.85.85 0 0 1 .57.3 9.16 9.16 0 0 0 2.34 1.8 4.09 4.09 0 0 0 1.8.42q1.32 0 1.32-.75t-1.83-1.68q-3.52-1.68-4.33-3.55a3.19 3.19 0 0 1-.24-1.11 2.93 2.93 0 0 1 .6-1.76 4.6 4.6 0 0 1 1.53-1.34 8.22 8.22 0 0 1 3.94-.9 8 8 0 0 1 3.16.6 3.6 3.6 0 0 1 2 1.74 2.63 2.63 0 0 1 .24 1 1.67 1.67 0 0 1-.54 1.26 2.52 2.52 0 0 1-1.44.63 2.67 2.67 0 0 1-.48 0 2.85 2.85 0 0 1-1.59-.45 1.13 1.13 0 0 1-.57-.84 9.58 9.58 0 0 1 .38-1.11zM182.82 19.27a1.32 1.32 0 0 0 .12-.54q0-.75-1-.75a2.26 2.26 0 0 0-1.29.41 1.31 1.31 0 0 0-.63 1.07v.09A1.81 1.81 0 0 0 181 21a15.19 15.19 0 0 0 2.5 1.35 15.19 15.19 0 0 1 2.27 1.19A2.9 2.9 0 0 1 187 26a3.6 3.6 0 0 1-.5 1.8 3.86 3.86 0 0 1-1.4 1.41 7.16 7.16 0 0 1-3.88 1.11 6.14 6.14 0 0 1-3.5-1 5.35 5.35 0 0 1-2.15-2.93 2.77 2.77 0 0 1-.09-.66q0-.66.39-.72h.13a.85.85 0 0 1 .57.3 9.16 9.16 0 0 0 2.34 1.8 4.09 4.09 0 0 0 1.8.42q1.32 0 1.32-.75t-1.83-1.68q-3.52-1.68-4.33-3.55a3.19 3.19 0 0 1-.24-1.11 2.93 2.93 0 0 1 .6-1.76 4.6 4.6 0 0 1 1.53-1.34 8.22 8.22 0 0 1 3.94-.9 8 8 0 0 1 3.16.6 3.6 3.6 0 0 1 2 1.74 2.63 2.63 0 0 1 .24 1 1.67 1.67 0 0 1-.54 1.26 2.52 2.52 0 0 1-1.44.63 2.67 2.67 0 0 1-.48 0 2.85 2.85 0 0 1-1.59-.45 1.13 1.13 0 0 1-.57-.84 9.58 9.58 0 0 1 .34-1.11zM90.34 54.22l.05 9.94a9.66 9.66 0 0 0 .68 2.56 2.22 2.22 0 0 1 .1.37c0 .35-.21.52-.63.52h-7.32c-.45 0-.68-.18-.68-.52a.83.83 0 0 1 .1-.37 6.25 6.25 0 0 0 .68-2.56L83 39.46a2.59 2.59 0 0 0-.31-1.26 6.38 6.38 0 0 1-.37-.73l-.05-.1v-.1q0-.68.79-.84A15 15 0 0 0 89 33.71a1.4 1.4 0 0 1 .68-.26q.63 0 .63 1.26v2a8.05 8.05 0 0 1 4.08-2.93 8.35 8.35 0 0 1 2.3-.31 9.92 9.92 0 0 1 9 6 14.65 14.65 0 0 1 1.31 6.06 14 14 0 0 1-2.2 7.85 7.87 7.87 0 0 1-3.32 2.83 10.41 10.41 0 0 1-4.47 1 7.89 7.89 0 0 1-6.67-2.99zm8.53-7.33a16.23 16.23 0 0 0-1.75-7.3q-1.54-2.69-3.37-2.69a2.65 2.65 0 0 0-2.28 1.7 10.65 10.65 0 0 0-.92 4.94v1a16 16 0 0 0 1.78 7.27q1.57 2.72 3.35 2.72A2.65 2.65 0 0 0 98 52.89a10.66 10.66 0 0 0 .92-4.95zM116.68 33.36l.1 20.6a3.89 3.89 0 0 0 .7 1.75.48.48 0 0 1 0 .26q0 .4-.6.4h-7c-.43 0-.65-.13-.65-.4a.47.47 0 0 1 .1-.26A3.45 3.45 0 0 0 110 54l-.25-17.27a1.3 1.3 0 0 0-.32-.86 2.21 2.21 0 0 1-.38-.53.13.13 0 0 0 0-.07.13.13 0 0 1 0-.07q0-.47.8-.58a16.42 16.42 0 0 0 5.6-1.86 1.77 1.77 0 0 1 .7-.22q.53-.06.53.82zM126.28 56.63a8.12 8.12 0 0 1-5.13-2.07 6 6 0 0 1-2.28-4.72v-.16a5.11 5.11 0 0 1 .57-2.26 6.39 6.39 0 0 1 1-1.48 5 5 0 0 1 1.84-1q1.32-.47 1.94-.62t2.38-.52a11.91 11.91 0 0 0 4.4-1.58 3.05 3.05 0 0 0 1.24-2.59v-.1a3.68 3.68 0 0 0-1.35-2.77 4.41 4.41 0 0 0-3-1.11 4 4 0 0 0-.73.05q-1.19.21-1.19 1.14a2.82 2.82 0 0 0 .26 1c.07.17.17.41.31.7s.25.54.34.75a1.52 1.52 0 0 1 .13.57 1.84 1.84 0 0 1-1 1.45 5.2 5.2 0 0 1-2.9.78 3 3 0 0 1-.67-.05A4.26 4.26 0 0 1 120 41a3 3 0 0 1-.93-2.2 4.52 4.52 0 0 1 .42-1.71 6.08 6.08 0 0 1 3.27-2.9 13.4 13.4 0 0 1 5.39-1 14.91 14.91 0 0 1 7.54 1.81 8.21 8.21 0 0 1 4.17 5.62 90.3 90.3 0 0 1 .42 11.4 6.85 6.85 0 0 0 .73 3.11 1.69 1.69 0 0 1 .1.41q0 .52-.67.52l-5.34-.05a2 2 0 0 1-1.45-.62 2 2 0 0 1-.62-1.5 8.9 8.9 0 0 1-6.53 2.7zm6.12-12.86a8.67 8.67 0 0 1-2.46 1.4 9.07 9.07 0 0 0-2.77 1.71 3.68 3.68 0 0 0-1 2.8 4.6 4.6 0 0 0 1 2.8 2.77 2.77 0 0 0 2.25 1.3h.21q2.9-.26 2.9-7.36-.08-1.81-.13-2.64zM157.07 43.52q-.1-4.2-1.3-5.75a2.82 2.82 0 0 0-2.13-1.14 2.32 2.32 0 0 0-2 1.35 8.06 8.06 0 0 0-.8 4l.05 10.68a6.63 6.63 0 0 0 .67 2.49.83.83 0 0 1 .1.36q0 .57-.62.57h-7.31q-.62 0-.62-.57a2.16 2.16 0 0 1 .1-.36 6.65 6.65 0 0 0 .67-2.49q-.05-3-.16-7.7t-.16-6.3a2.49 2.49 0 0 0-.1-.78 2.71 2.71 0 0 0-.29-.6q-.17-.28-.17-.35a1.36 1.36 0 0 1-.05-.41q0-.62.73-.83a14.16 14.16 0 0 0 5.77-2.69 1.51 1.51 0 0 1 .78-.31q.57 0 .57 1.24v2.54a6.11 6.11 0 0 1 5.55-3.47 7.4 7.4 0 0 1 5.37 2.36 8.3 8.3 0 0 1 2.41 6q.05 2.13.05 11.3a6.82 6.82 0 0 0 .73 2.49.9.9 0 0 1 .05.36q0 .57-.62.57h-7.26q-.67 0-.67-.57a.83.83 0 0 1 .1-.36 6.11 6.11 0 0 0 .67-2.49q0-4.79-.11-9.14zM180.92 43.52q-.1-4.2-1.3-5.75a2.82 2.82 0 0 0-2.13-1.14 2.32 2.32 0 0 0-2 1.35 8.06 8.06 0 0 0-.8 4l.05 10.68a6.63 6.63 0 0 0 .67 2.49.83.83 0 0 1 .1.36q0 .57-.62.57h-7.31q-.62 0-.62-.57a2.16 2.16 0 0 1 .1-.36 6.65 6.65 0 0 0 .67-2.49q-.05-3-.16-7.7t-.16-6.3a2.49 2.49 0 0 0-.1-.78 2.71 2.71 0 0 0-.29-.6q-.18-.28-.23-.39a1.36 1.36 0 0 1-.05-.41q0-.62.73-.83A14.16 14.16 0 0 0 173.3 33a1.51 1.51 0 0 1 .78-.31q.57 0 .57 1.24v2.54a6.11 6.11 0 0 1 5.54-3.47 7.4 7.4 0 0 1 5.37 2.36 8.3 8.3 0 0 1 2.41 6q.05 2.13.05 11.3a6.82 6.82 0 0 0 .73 2.49.9.9 0 0 1 .05.36q0 .57-.62.57h-7.26q-.67 0-.67-.57a.83.83 0 0 1 .1-.36 6.11 6.11 0 0 0 .67-2.49q-.02-4.79-.1-9.14zM195.28 35.74q3.16-2.64 8.66-2.64a11 11 0 0 1 6.25 1.68 5.68 5.68 0 0 1 2.51 5.05V40a5.17 5.17 0 0 1-.54 2.23 5.74 5.74 0 0 1-1.06 1.48 5.4 5.4 0 0 1-1.84 1 16.65 16.65 0 0 1-2 .62q-.7.16-2.36.47-3.53.73-4.51 2.49a5.38 5.38 0 0 0 1.89 2.83 4.91 4.91 0 0 0 3.08 1.06 6 6 0 0 0 5-3q.16-.21.36-.54c.14-.22.25-.4.34-.52a1.65 1.65 0 0 1 .29-.31.55.55 0 0 1 .36-.13h.05q.62.05.62 1.35a8.56 8.56 0 0 1-.1 1 7.31 7.31 0 0 1-3.14 4.77 10.12 10.12 0 0 1-5.83 1.71 12.27 12.27 0 0 1-7-2.18 10.94 10.94 0 0 1-4.43-6.17 12.23 12.23 0 0 1-.62-3.89 10.81 10.81 0 0 1 4.02-8.53zm6.74.21q-2.9.26-2.9 6.12a33.25 33.25 0 0 0 .26 3.73 10.44 10.44 0 0 1 2.41-1.32 8.35 8.35 0 0 0 2.7-1.74 3.77 3.77 0 0 0 1-2.75 4.63 4.63 0 0 0-.93-2.75 2.71 2.71 0 0 0-2.23-1.3zM222.44 34v.57a6.39 6.39 0 0 1 5-2.33 6.63 6.63 0 0 1 3.58 1 7.07 7.07 0 0 1 2.59 2.9 4.62 4.62 0 0 1 .41 1.76 2.87 2.87 0 0 1-.93 2.18 4.34 4.34 0 0 1-2.49 1.09 3.91 3.91 0 0 1-.73.05 4.8 4.8 0 0 1-2.85-.78A1.84 1.84 0 0 1 226 39a1.32 1.32 0 0 1 .13-.54l.34-.73c.14-.29.24-.53.31-.7a1.62 1.62 0 0 0 .1-.67 1.59 1.59 0 0 0-.42-1.09 1.33 1.33 0 0 0-1-.47q-1.09 0-2 1.63a12.11 12.11 0 0 0-1 5.16v3.21q0 5.24.05 7.88a6.63 6.63 0 0 0 .67 2.49.83.83 0 0 1 .1.36q0 .57-.62.57h-7.31q-.62 0-.62-.57a.83.83 0 0 1 .1-.36 6.65 6.65 0 0 0 .67-2.49l-.31-14a2.64 2.64 0 0 0-.34-1.32 4.43 4.43 0 0 1-.34-.65l-.05-.1v-.1q0-.67.78-.83a14.91 14.91 0 0 0 5.81-2.7 1.24 1.24 0 0 1 .73-.26q.66.02.66 1.28z"/></g><path d="M49.43 9.47A1 1 0 0 1 51 9.38c2.26 2.81 5.32 10.54-9 18.9l-1.59.72a1.5 1.5 0 0 1-1.32 0l-1.33-.69s-17.3-9.62-9.52-19a.81.81 0 0 1 1.34.14c2.04 3.81 10.87 13.26 19.85.02z" fill="#fd4917"/><circle cx="39.83" cy="7.97" fill="#fd4917" r="3.96"/><path d="M67 46.31a1 1 0 0 1 .09 1.54c-2.81 2.26-10.54 5.32-18.9-9l-.72-1.57a1.5 1.5 0 0 1 0-1.32l.69-1.33s9.62-17.3 19-9.52a.81.81 0 0 1-.16 1.36c-3.8 2.03-13.25 10.86 0 19.84z" fill="#fd4917"/><circle cx="68.49" cy="36.71" fill="#fd4917" r="3.96"/><path d="M12.75 26.25a1 1 0 0 1-.09-1.54c2.81-2.26 10.54-5.32 18.9 9l.72 1.57a1.5 1.5 0 0 1 0 1.32l-.69 1.33s-9.62 17.3-19 9.52a.81.81 0 0 1 .14-1.34c3.81-2.05 13.27-10.89.02-19.86z" fill="#fd4917"/><circle cx="11.24" cy="35.85" fill="#fd4917" r="3.96"/><path d="M29.71 63.1a1 1 0 0 1-1.54.09c-2.26-2.81-5.32-10.54 9-18.9l1.57-.72a1.5 1.5 0 0 1 1.32 0l1.33.69s17.3 9.62 9.52 19a.81.81 0 0 1-1.34-.14c-2.06-3.8-10.89-13.25-19.86-.02z" fill="#fd4917"/><circle cx="39.31" cy="64.61" fill="#fd4917" r="3.96"/></svg>