<svg fill="none" height="2500" viewBox="11 1 26 46" width="2500" xmlns="http://www.w3.org/2000/svg"><g stroke="#000"><g stroke-linecap="round" stroke-linejoin="round"><path d="m33 7h-18a4 4 0 0 0 -4 4v32a4 4 0 0 0 4 4h18a4 4 0 0 0 4-4v-32a4 4 0 0 0 -4-4z"/><path d="m36.998 13h-25.994v14h25.994zm-21.998-6v-6"/></g><path d="m18 33a.5.5 0 1 1 0-1m0 1a.5.5 0 1 0 0-1m6.001 1a.5.5 0 1 1 0-1m0 1a.5.5 0 1 0 0-1m6 1a.5.5 0 1 1 0-1m0 1a.5.5 0 1 0 0-1m-12.001 6a.5.5 0 1 1 0-1m0 1a.5.5 0 1 0 0-1m0 6a.5.5 0 1 1 0-1m0 1a.5.5 0 1 0 0-1m6.001-4a.5.5 0 1 1 0-1m0 1a.5.5 0 1 0 0-1m0 6a.5.5 0 1 1 0-1m0 1a.5.5 0 1 0 0-1m6-4a.5.5 0 1 1 0-1m0 1a.5.5 0 1 0 0-1m0 6a.5.5 0 1 1 0-1m0 1a.5.5 0 1 0 0-1"/></g></svg>