<svg viewBox="0 0 1080 646.9" xmlns="http://www.w3.org/2000/svg" width="2500" height="1497"><path d="M0 0h1080v646.9H0z" fill="#446f91"/><g stroke-miterlimit="10" stroke-width="3"><path d="M482.8 260.4v45.3H573v45.4h-90.2v101h-55.5V201.3h161.5v59.1zM711.1 200.2h-47.6l-96.6 252.7h62l24.5-52.9H727l23.1 52.9h62zm-47.3 145.3l23.1-58.4 24.5 58.4zM990.6 400.5v52.3H833.3v-247h150.8v52.3h-98.4v45h98.4v52.4h-98.4v45zM76.1 189.7l87.2-94.5 156.5 158.9v200.3l-91.6 97.3L76.1 385.1z" fill="#fff" stroke="#21537d"/><path d="M288.5 273.1l-63 59.5-58.3-61.7-63.3 61.9.2-128.8v-.1l.2-.1 62.8-59.3z" fill="#faa13b" stroke="#f98e16"/><path d="M288.3 442.8l.2.1-63 59.5-121.4-128.5 63-59.5 59.2 62.7L292 315z" fill="#74cdd5" stroke="#4ebfca"/></g><path d="M0 620.8h540v26.1H0z" fill="#faa13b"/><path d="M540 620.8h540v26.1H540z" fill="#74cdd5"/></svg>