<svg height="451" viewBox="22.2 20.1 44.9 48" width="2500" xmlns="http://www.w3.org/2000/svg"><path d="m36.3 23.5c-1.8.8-3.3 1.5-3.3 1.7s2.3.3 5.1.3c4.3 0 5.5.4 7.5 2.8 4.6 5.3 4.4 10.9-.6 15.8-3.3 3.3-8.3 3.9-13 1.4-3.7-1.9-5-4.3-5.1-9.2l-.1-3.8-1.3 3c-3.3 7.1-.6 16.8 6 22.3 2.6 2 3.1 2.9 1.8 2.6-1.3-.4-2.2 0-2.6 1-.5 1.3-1.2 1.4-3.3.6-1.5-.6-2.9-.9-3.1-.6-.2.2 1.7 1.1 4.3 2 13.9 4.7 29.7-2 35.6-15.2 2.7-5.9 2.9-17.1.4-22.2l-1.6-3.5.6 3.6c.7 4.7-.8 5.7-3.5 2.3-4.6-5.9-16.1-8.3-23.8-4.9z"/></svg>