<svg clip-rule="evenodd" fill-rule="evenodd" height="1339" image-rendering="optimizeQuality" shape-rendering="geometricPrecision" text-rendering="geometricPrecision" viewBox="-.01 -44.1 17296.11 9310.93" width="2500" xmlns="http://www.w3.org/2000/svg"><path d="m11509.71 2477.44c-8.19 150.84-10.55 402.47-10.55 538.87s2.36 157.56 16.47 168.15c14.11 10.58 39.98 10.58 58.79-41.16 18.82-51.74 30.58-155.21 47.04-288.08 16.47-132.87 37.63-295.14 50.56-378.63 12.94-83.48 17.65-88.19 97.6-90.54 79.96-2.35 235.18-2.35 483.28-1.17 248.1 1.17 589.1 3.53 923.04 35.28 333.95 31.75 660.84 92.88 892.49 148.15s368.04 104.65 457.4 141.11c32.26 13.16 58.38 24.63 79.61 33.98 51.77 62.24 103.31 116.62 157.07 162.93 65.62 56.52 243.35 181 330.21 195.75 22.74 3.85 35.85-.78 43.17-7.71 15.13-14.34 6-35.74-8.1-47.01-7.7-6.17-17.72-10.8-41.23-24.67-166.45-98.24-335.5-322.08-436.56-483.18-100.22-159.8-182.96-342.18-292.44-492.81-112.6-154.94-251.66-273.62-434.64-336.38-171.86-58.98-348.19-63.47-525.18-27.36-58.57 11.94-90.15 22.73-108.65 33.14-18.5 10.4-23.89 20.42-23.51 31.6.39 11.17 6.55 23.5 21.58 28.51s38.92 2.69 74.37-3.09c190-30.98 296.72-34.98 478.56 57.04 253.72 128.35 339.3 281.14 482.79 514.01 47.31 76.75 108.11 168.01 169.99 253.29-78.96-46-185.08-102.44-346.83-166.71-177.55-70.56-422.13-150.52-665.34-202.26s-485.04-75.26-730.8-84.66c-245.76-9.41-495.42-4.7-696.73 11.43s-354.24 43.7-437.73 82.5c-83.48 38.8-97.51 88.84-105.71 239.69zm-1971.73-1693.99c471.81 24.17 932.2 67.12 1378.39 126.94 24-67.08 55.14-132.86 91.64-198.05 169.51-302.66 422.69-460.61 742.9-578.52 411.96-151.7 842.87-177.92 1267.12-60.68 334.59 92.46 572.92 237.89 790.89 507.27 25.83 31.92 51.48 64.84 76.31 98.71 3.57-.69 7.57-1.28 11.99-1.79 24.7-2.82 62.8-2.82 127.7-1.41 488.17 10.6 1003.35 150.29 1399.75 440.24 273.29 199.92 477.89 513.55 594.57 828.81 100.64 271.88 135.6 608.29 56.8 891.98 774.67 636.71 1220.06 1381.08 1220.06 2176.54 0 2349.04-3881.24 4253.34-8668.99 4253.34-4358.32 0-7964.94-1578.08-8576.97-3633.1 773.91 1846.84 4027.55 3233.12 7924.39 3233.12 4473.23 0 8099.5-1826.6 8099.5-4079.81 0-472.44-159.43-926.12-452.68-1348.12-31.01 17.92-62.77 33.78-93.27 46.55-102.09 42.73-209.84 61.2-320.28 58.88-124.86-2.64-222.04-27.48-335.69-77.69-50.25-22.2-98.33-46.24-130.74-61.96-32.4-15.73-49.12-23.12-57.36-36.67-4.28-7.04-6.89-12.87-8.18-17.7-.75 61.18-1.57 120.36-2.12 163.23-1.13 88.04-1.13 107.24-11.29 119.09s-30.48 16.37-53.63 12.98c-23.14-3.39-49.1-14.68-169.32-55.88-120.22-41.21-334.71-112.32-550.32-182.31s-432.34-138.85-646.83-198.11c-214.48-59.27-426.69-108.94-625.37-149.58s-383.81-72.25-528.3-91.43c-144.49-19.19-248.34-25.97-309.87-29.35-61.52-3.39-80.72-3.39-92-12.42-11.29-9.03-14.67-27.09-8.46-39.5 6.21-12.42 22.01-19.2 137.15-28.79 115.14-9.6 329.63-22.02 567.82-17.5 238.19 4.51 500.07 25.96 754.62 72.81s501.78 119.09 719.65 204.33c217.87 85.22 406.38 183.43 520.39 244.4 114.01 60.96 153.53 84.65 173.28 96.51 19.76 11.85 19.76 11.85 18.06-10.73-1.69-22.58-5.07-67.73-.56-129.25 4.52-61.53 16.93-139.41 31.04-199.24 14.12-59.84 29.92-101.6 42.9-123.05 12.99-21.45 23.15-22.57 28.79.01 5.65 22.57 6.77 68.86 6.2 170.45-.27 48.85-.92 110.49-1.66 171.11 8.21-18.29 59.41-2.01 76.6 3.4 37.22 11.7 92.09 27.73 157.66 46.07 163.58 45.72 279.65 67.37 446.7 15.17 194.13-60.68 323.47-179.71 417.67-358.41 116.41-220.85 129.96-471.71 91.71-714.69-58.31-370.42-239.9-709.19-503.74-974.32-358.7-360.51-783.53-473.07-1260.76-581.35-77.97-17.69-139.51-29.91-178.97-41.73 66.48 97.42 123.71 202.13 156.99 313.09 21.17 70.55 33.87 143.92 35.98 195.43 2.12 51.5-6.34 81.14-16.22 95.95s-21.16 14.81-27.34.15c-6.18-14.67-7.26-43.99-11.09-74.47s-10.41-62.11-30.34-120.11c-70.8-206.18-183.79-368.4-344.67-515.33-421.51-385.04-1012.62-441.85-1555.68-335.12-362.47 71.23-687.85 224.51-912.24 527.02-95.83 129.21-180.4 318.72-170.73 483.28 10.64 180.64 93.16 305.61 208.84 437.43 105.72 120.47 219.73 229.43 299.01 370.64 26.69 47.52 43.38 87.51 45.31 111.25 1.93 23.73-10.89 31.19-24.17 26.71s-27.03-20.9-48.01-49.57-49.21-69.6-84.48-116.86c-97.97-131.31-183.33-196.89-300.54-304.78-134.86-124.13-238.3-248.69-269.51-434.6-21.34-127.05-11.73-246.53 20.11-361.67-435.13-84.74-888.37-151.18-1356.09-197.26zm-793.19 2011.98c0 47.77 7.86 93.06 23.55 135.86 15.68 42.82 36.23 79.98 61.64 111.83 4.47-33.63 6.72-66.18 6.72-97.31 0-36.09-.76-69.36-1.5-100.13-1.13-30.79-3.73-56.97-7.84-79.26-4.12-21.94-9.35-39.64-16.44-52.37-7.12-12.74-16.06-19.13-28.03-19.13-25.39 0-38.1 33.63-38.1 100.5zm-944.01-461.4c0 9.91-5.59 16.98-17.19 21.24-11.21 4.59-22.78 6.71-34.35 6.71-9.36 0-19.07-1.05-28.41-3.54-9.71-2.46-17.92-5.31-25.78-9.19-7.47-3.9-13.82-8.5-18.68-13.46-4.47-5.29-7.1-10.61-7.1-16.27 0-20.53 4.12-42.46 12.7-65.11 8.23-23 19.81-43.87 34.38-62.63 14.57-19.11 32.51-35.04 53.05-47.42 20.92-12.39 44.08-18.75 69.5-18.75 30.63 0 56.41 6.01 76.58 17.69 20.55 12.03 38.85 24.77 55.28 38.92 16.44 14.16 31.76 27.25 45.58 38.93 13.84 11.68 29.52 17.7 47.07 17.7 14.58 0 25.79-6.02 33.25-17.7 7.85-11.68 11.6-27.61 11.6-47.77 0-8.15 1.86-14.86 5.97-20.18 4.1-4.94 8.95-9.55 14.94-12.73 5.61-3.53 12.33-6.02 19.43-7.43 7.47-1.42 14.19-2.12 19.8-2.12 18.3 0 35.49 3.88 51.93 11.32 16.44 7.78 24.66 16.28 24.66 26.18 0 34.34-5.61 64.41-16.82 89.52-11.58 25.12-25.79 46.35-43.33 63.69-17.57 17.34-36.62 30.08-57.53 38.57-20.56 8.14-40.73 12.4-59.41 12.4-29.88 0-56.04-6.02-78.45-18.06-22.04-12.37-41.46-25.83-57.91-40.69-16.44-14.87-30.65-28.31-42.22-40.34-11.57-12.04-21.67-18.05-29.51-18.05-10.84 0-19.8 2.48-26.15 7.08-6.72 4.95-12.33 10.97-16.44 18.75-4.48 7.44-7.85 15.93-10.09 25.49-2.25 9.19-4.11 18.39-6.35 27.24zm-681.4 1750.07c18.31 0 31.75-7.07 40.36-20.88 8.96-13.8 14.94-29.72 18.3-48.11 3.36-18.42 4.85-36.81 4.85-55.57v-270.69c-36.6 34.68-65.74 73.96-88.14 117.48-22.05 43.51-33.27 96.93-33.27 160.64 0 32.91 5.23 60.86 15.7 83.14 10.82 22.65 24.66 33.97 42.21 33.97zm11.97-1891.97c0-18.75 3.73-36.09 10.46-51.66 7.09-15.92 16.8-29.73 29.13-41.04 12.32-11.33 26.91-20.53 43.71-26.9 16.82-6.73 34.75-9.91 53.8-9.91 17.94 0 35.49 3.18 51.93 9.91 16.43 6.37 30.63 15.57 42.96 26.9 12.71 11.31 22.42 25.12 29.52 41.04 7.47 15.57 11.21 32.91 11.21 51.66 0 18.05-3.74 34.68-11.21 50.25-7.1 15.57-16.81 29.37-29.52 41.05-12.33 11.68-26.53 20.87-42.96 27.95-16.44 7.08-33.99 10.26-51.93 10.26-19.05 0-36.98-3.18-53.8-10.26-16.8-7.08-31.39-16.27-43.71-27.95-12.33-11.68-22.04-25.48-29.13-41.05-6.73-15.57-10.46-32.2-10.46-50.25zm-217.78 129.5c-17.95 0-35.5-3.18-51.94-10.26s-30.64-16.27-42.6-27.95c-11.95-11.68-21.66-25.48-29.14-41.05-7.09-15.57-10.83-32.2-10.83-50.25 0-18.75 3.74-36.09 10.83-51.66 7.48-15.92 17.19-29.73 29.14-41.04 11.96-11.33 26.16-20.53 42.6-26.9 16.44-6.73 33.99-9.91 51.94-9.91 19.78 0 38.1 3.18 54.89 9.91 16.82 6.37 31.02 15.57 43.36 26.9 11.94 11.31 21.29 25.12 28.38 41.04 6.73 15.57 10.46 32.91 10.46 51.66 0 18.05-3.73 34.68-10.46 50.25-7.09 15.57-16.44 29.37-28.38 41.05-12.34 11.68-26.54 20.87-43.36 27.95-16.79 7.08-35.11 10.26-54.89 10.26zm-629.11 654.25c0 6.01.37 12.39 1.11 18.76.77 6.01 1.14 12.73 1.14 19.46 27.64-12.39 52.67-28.32 75.46-47.78 22.79-19.11 41.84-41.4 57.9-66.18 16.07-24.76 28.78-52.01 37.36-81.37 8.6-29.37 13.07-59.81 13.07-91.64 0-23.71-4.09-41.76-12.7-55.21-8.21-13.09-19.79-19.46-34.36-19.46-18.32 0-34.38 5.65-48.57 17.69-14.19 11.68-26.9 26.9-37.35 46.01-10.47 19.11-19.43 40.34-26.16 64.4-7.1 23.7-12.7 47.77-17.19 71.83-4.11 24.42-7.09 47.42-8.6 69.01-1.48 21.93-1.86 39.98-1.11 54.49zm-593.97 247.67c0 47.07-3.37 87.06-9.34 120.3-6.36 33.28-14.94 60.16-25.78 80.69-10.82 20.88-24.28 36.09-39.98 45.65-15.68 9.91-32.49 14.51-50.8 14.51-13.82 0-29.13-4.24-45.95-13.45-16.81-8.84-32.87-19.81-47.82-32.9-14.94-13.47-27.28-26.91-36.99-40.7-10.08-13.8-14.94-25.83-14.94-36.1 0-7.07 1.12-11.32 2.61-13.09 1.87-1.76 4.5-2.47 7.86-2.12 3.35.36 7.47 1.41 11.94 2.83 4.86 1.06 10.09 1.77 16.07 1.77 20.17 0 35.12-12.04 44.08-36.8 9.35-24.43 13.83-63.69 13.83-117.48v-333.66h-116.18c-11.57 0-22.41-3.53-32.14-10.62-9.7-6.72-18.29-15.57-25.77-25.83-7.1-10.27-13.08-21.58-16.81-34.33-4.1-12.38-5.98-24.05-5.98-35.03 0-12.02 2.61-21.93 8.22-30.07 5.23-8.5 13.82-12.39 25.41-12.39h163.25v-690.69c-78.83 4.95-150.56 15.93-215.56 33.27s-120.66 43.52-167.34 78.91c-46.71 35.02-83.31 81.02-109.08 137.28-25.79 56.26-38.86 126.32-38.86 209.83 0 36.8 3.71 69.71 11.58 99.07 7.47 29.37 17.55 55.91 29.88 79.26 12.7 23.71 26.15 44.23 41.11 62.28 14.93 18.04 29.88 33.97 44.44 47.77 12.34-3.53 21.29-2.12 26.17 3.9 5.23 6.37 7.83 14.85 7.83 26.18 0 13.79-3.37 27.96-9.34 42.81-6.34 14.88-14.56 28.32-24.66 40.7-10.46 12.03-21.67 21.94-34.37 30.08-13.08 7.79-25.78 11.68-38.85 11.68-5.99 0-11.59-.71-17.18-2.13-5.61-1.42-11.21-4.24-16.82-9.2-16.08-10.97-35.49-29.36-58.28-54.49-22.42-25.12-44.09-56.26-64.25-93.77-20.55-37.16-38.1-79.97-52.68-128.09s-22.05-100.12-22.05-156.03c0-203.82 68.75-359.15 206.59-466.35 137.48-107.22 340.32-160.64 608.92-160.64 20.54 0 46.32 0 77.32.34 31.01.36 63.9.71 99.01.71 34.73 0 70.61.36 106.45 1.07 36.24.7 69.87 1.05 100.87 1.05s57.53 0 79.94.36c22.04.35 37.36.35 45.21.35 11.21 0 20.17-.71 27.65-2.47 7.09-1.77 13.08-3.54 17.93-5.66 4.84-2.12 8.21-3.9 10.83-5.66 2.61-1.77 4.85-2.48 7.09-2.48 3.75 0 7.49 2.12 11.21 6.73 3.38 4.23 6.73 9.89 9.73 16.62 2.98 6.37 5.22 13.81 7.09 22.29 1.86 8.14 2.61 16.28 2.61 24.78 0 12.37-1.86 25.46-5.98 38.93-4.1 13.44-10.45 25.46-19.05 36.09-8.58 10.96-19.42 19.46-32.13 26.53-13.08 6.73-28.02 10.27-45.57 10.27-6.73 0-18.69 0-36.24-.36-17.56-.36-38.48-.72-62.77-1.06-24.66-.36-51.18-.71-80.69-1.07-29.14-.35-58.29-.7-87.79-1.05-29.5-.36-58.65-.71-87.04-1.07-28.38-.35-54.55-.7-77.7-1.41v694.58h280.17c11.59-8.49 20.18-10.61 26.16-6.36 5.97 4.23 9.34 11.68 10.45 22.63 1.13 11.33.37 24.42-2.23 39.64-2.63 15.22-6.72 29.37-11.96 42.81-5.6 13.45-11.96 25.13-19.42 35.04-7.1 9.55-15.32 14.51-23.92 14.51h-259.25v360.55zm1274.62-59.08c0 4.94.37 12.73 1.12 23.35.75 10.61 2.98 21.59 6.73 32.55 3.36 10.97 9.32 20.87 17.18 29.02 8.21 8.49 19.43 12.39 34 12.39 22.03 0 41.09-7.44 57.53-22.66s30.65-34.32 42.58-56.96c12.34-23 22.05-47.42 30.27-74.32 7.84-26.53 14.56-51.65 19.8-75.01 2.15-11.28 5-20.9 8.58-28.91v-368.1c0-20.18-1.49-34.68-4.85-43.53-3.36-8.84-4.85-17.34-4.85-24.76 0-10.62 5.6-19.12 17.17-25.49 11.95-6.72 25.78-9.89 41.85-9.89 36.99 0 66.5 9.19 88.16 27.58 21.29 18.05 32.13 40 32.13 65.82v745.18c40.72-42.8 78.45-91.63 112.81-146.12 21.16-33.55 40.04-70.7 56.67-111.4-.67-10.34-1-20.87-1-31.56 0-88.45 14.95-168.07 45.21-238.49 29.89-70.42 69.48-130.57 119.16-179.75 49.7-49.54 106.46-87.39 169.97-113.58 63.88-26.19 130.38-39.63 198.74-39.63 30.65 0 55.67 8.14 74.36 24.06 19.05 15.93 28.76 37.51 28.76 65.12 0 18.05-2.24 30.78-6.36 37.85-3.72 7.43-11.2 10.98-22.4 10.98-10.1 0-20.55-.71-31.77-2.13-10.84-1.42-22.04-2.12-33.61-2.12-42.59 0-85.55 8.85-129.25 26.53-43.71 17.7-83.3 44.6-118.8 81.04-35.49 36.1-64.26 82.09-87.03 137.64-22.43 55.56-34.01 121.71-34.01 198.51 0 55.91 11.58 99.06 34.01 129.14 22.78 30.08 53.79 44.95 93 44.95 30.65 0 56.43-10.62 76.59-32.56 20.55-21.58 36.99-47.41 49.32-77.14v-327.65c0-10.27-.37-19.11-1.5-25.83-1.12-7.08-2.24-12.74-3.36-17.69-1.12-4.96-1.86-9.21-2.61-13.1-.76-3.54-1.13-7.43-1.13-10.62 0-11.32 5.6-19.81 16.82-26.54 11.2-6.72 25.02-9.9 41.08-9.9 37.36 0 66.89 9.19 88.55 27.59 22.03 18.4 32.86 40.35 32.86 65.82v350.31c0 11.68 1.5 23.35 4.5 34.67 2.98 11.32 7.09 21.94 13.06 31.15 5.99 9.19 13.83 16.97 23.54 22.99 9.72 5.66 21.3 8.5 34.38 8.5 22.78 0 42.2-7.44 58.64-22.66 16.45-15.22 30.65-34.32 42.6-56.96 11.95-23 22.03-47.42 29.51-74.32 1.77-6.01 3.46-11.93 5.1-17.79-3.65-26.93-5.47-54.64-5.47-83.04 0-78.2 9.71-148.26 28.76-209.83 19.43-61.92 41.85-114.64 67.64-157.82 25.39-43.17 50.8-76.07 75.83-99.07 25.39-22.64 44.08-33.97 56.41-33.97 14.58 0 28.03 6.02 39.98 18.05s20.92 26.19 26.15 42.47c5.6 16.27 7.1 32.56 4.47 49.19-2.6 16.63-11.19 29.36-25.78 38.56-8.58 13.1-19.05 28.32-31 45.65-11.94 16.99-23.53 38.58-34 64.76-10.45 25.83-19.43 57.32-26.9 94.82-7.09 37.16-10.84 82.1-10.84 134.82 0 44.94 4.13 83.85 12.71 117.11 8.24 32.9 19.8 60.86 34.76 83.15 14.93 22.64 32.12 39.27 51.55 50.6 19.43 10.96 39.96 16.28 62.01 16.28 31.75 0 58.28-7.44 79.21-22.3 20.91-14.5 38.48-34.33 53.05-58.39-52.68-42.81-92.65-97.3-119.92-163.11-27.27-66.17-41.09-137.64-41.09-214.08 0-33.26 4.1-65.1 11.58-95.18 7.84-29.72 19.05-56.26 33.99-79.26 14.94-22.65 33.62-40.7 56.41-54.14 22.42-13.8 48.94-20.53 78.83-20.53 26.16 0 51.17 9.21 74.35 27.26 23.53 17.69 43.7 42.81 61.28 74.65 17.55 31.5 31.37 69.36 41.08 112.88 9.72 43.52 14.95 90.93 14.95 141.89 0 39.63-2.63 78.55-7.85 117.11-5.23 38.93-13.06 76.08-24.28 112.17 8.21 2.47 15.68 4.24 22.78 4.6 6.72.36 14.21.36 22.42.36 23.91 0 45.22-3.9 63.89-12.39 18.68-8.15 34.36-19.47 47.44-33.27 13.44-13.8 23.9-30.08 31.76-48.48 8.21-18.75 14.19-38.57 17.55-59.09 1.5-8.5 6.36-15.21 14.94-20.87 8.23-5.67 17.94-9.22 28.78-11.34 11.2-2.11 22.78-2.11 34.73 0 11.97 2.12 22.43 6.73 31.76 13.8 8.96 7.44 15.69 17.34 19.43 30.09 4.11 13.08 3.74 29.37-1.49 49.53-6.72 29.02-17.19 55.92-32.13 81.39-14.94 25.13-34 47.43-56.42 66.89-22.78 19.1-49.32 34.31-79.94 45.28-30.64 11.32-65.01 16.64-102.73 16.64-20.55 0-39.61-1.06-57.53-2.83-17.94-2.13-35.5-6.02-51.93-11.68-28.03 45.65-63.51 82.44-107.58 110.39-43.73 27.96-97.5 42.11-161.75 42.11-56.79 0-105.72-10.61-146.82-31.48-40.73-21.24-74.73-49.91-101.61-86.35-4.58-6.14-8.97-12.47-13.15-18.97a469.294 469.294 0 0 1 -17.49 23.93c-25.77 32.2-56.41 59.45-92.64 80.68-35.87 21.59-78.08 32.2-126.26 32.2-39.61 0-73.6-7.79-103.11-23.7-29.13-15.93-51.91-37.16-68.73-63.35-22.8 24.06-49.7 44.59-81.45 61.58-31.76 16.98-68.74 25.47-111.32 25.47-43.72 0-82.19-8.14-115.43-24.76-33.25-16.64-60.9-39.29-83.66-67.96-2.86-3.62-5.61-7.35-8.29-11.16-15.32 24.92-31.17 48.13-47.76 69.56-28.4 37.51-57.92 70.78-88.53 100.13-30.65 29.36-61.28 56.62-91.9 81.39v366.93c0 55.9-6.72 103.32-20.16 141.53-13.47 38.22-31.4 69.36-53.07 93.42-22.04 23.7-47.07 40.69-75.08 51.3-28.03 10.27-56.42 15.57-84.81 15.57-31.39 0-60.14-6.37-86.27-19.46-26.53-12.73-48.96-30.07-68.01-52.02-19.05-22.3-33.62-48.12-44.46-77.85-10.45-29.73-15.68-61.57-15.68-95.53 0-53.79 7.47-101.55 22.41-142.95 14.95-41.4 35.13-79.62 60.52-113.94 25.79-34.67 55.3-66.87 88.92-96.94 33.61-30.08 68.72-60.86 106.07-91.99v-216.4c-21.44 22.87-46.01 42.66-73.21 58.94-35.86 21.59-77.71 32.2-125.88 32.2-29.89 0-56.41-5.3-79.96-15.92-23.16-10.98-42.97-25.12-59.02-43.17-15.09-16.94-26.87-36.37-35.07-58.89-16.38 16.74-35 32.24-55.73 46.5-31.37 21.23-68.36 38.57-110.57 51.67s-90.77 19.81-145.68 19.81c-50.81 0-100.49-9.56-148.32-28.66-47.82-18.75-90.02-46.01-126.63-81.74-36.98-35.74-66.5-79.62-88.91-131.63-22.04-52.37-33.25-111.45-33.25-177.98 0-66.87 9.71-129.15 29.52-186.82 19.79-57.68 45.57-107.92 77.7-150.04 32.13-42.1 68.74-75.01 109.44-99.06 40.74-23.71 82.94-35.74 125.91-35.74 31.38 0 59.39 5.31 84.79 15.58 25.03 10.6 46.32 25.12 63.89 44.22 17.55 19.11 31.01 41.76 39.96 67.94 9.35 26.18 13.84 55.2 13.84 87.04 0 39.28-7.1 79.63-21.3 121.36-14.2 41.41-35.49 80.69-63.51 117.48-28.02 37.15-62.76 70.05-104.23 99.42-41.09 29.37-88.53 51.67-142.69 66.88 7.47 18.04 17.18 35.38 29.13 51.3 11.96 16.29 26.54 30.44 42.96 42.11 16.83 11.68 36.62 21.25 58.66 27.96 22.41 7.07 48.19 10.27 77.33 10.27 43.71 0 81.45-7.79 112.82-23 31.38-15.58 57.54-36.46 79.2-61.92 21.68-25.48 38.86-54.14 51.93-85.98 13.07-31.86 23.16-64.06 29.52-96.24v-358.8c0-20.18-1.51-34.68-4.85-43.53-3.37-8.84-4.87-17.34-4.87-24.76 0-10.62 5.61-19.12 17.18-25.49 11.97-6.72 25.79-9.89 41.86-9.89 36.98 0 66.49 9.19 88.14 27.58 21.3 18.05 32.14 40 32.14 65.82v538.91z" fill="#2e3260"/><g fill-rule="nonzero"><path d="m2696.93 3935.42 762.83 1022.23 174.15-967.12c12.2-68.07 71.52-115.84 138.34-115.77v-.53h683.83c77.93 0 141.1 63.18 141.1 141.1 0 12.98-1.76 25.55-5.05 37.49l-413.44 2296.09c-12.2 68.07-71.52 115.84-138.34 115.77v.53h-616.12c-50.4 0-94.61-26.43-119.57-66.18l-756.24-1016.97-174.09 966.84c-12.2 68.07-71.52 115.84-138.34 115.77v.53h-683.83c-77.93 0-141.1-63.18-141.1-141.1 0-12.98 1.76-25.55 5.05-37.49l413.44-2296.09c12.2-68.07 71.52-115.84 138.34-115.77v-.53h612.74c48.26 0 90.85 24.24 116.3 61.2zm2736.1 328.13c-9.39 52.14-26.97 100.09-52.73 143.76-1.86 3.15-3.82 6.2-5.88 9.15-17.21 27.55-37.4 53.16-60.57 76.82 57.49 17.84 99.23 71.44 99.23 134.78 0 12.98-1.76 25.55-5.05 37.49l-67.51 374.92c64.72-105.49 147.39-202.64 248.05-291.41 110.47-97.42 237.04-170.76 379.63-219.97 140.2-48.4 293.18-72.6 458.91-72.6 50.73 0 100.25 2.02 148.54 6.05 45.2 3.77 91.78 10.02 139.74 18.72 45.8 8.31 92.51 19.43 140.11 33.35 47.83 13.98 96.61 30.66 146.29 49.98 65.73 25.4 101.47 94.8 86.63 161.56l-33.27 184.75c53.22-66.1 114.61-126.97 184.2-182.62 114.02-91.18 241.6-159.37 382.64-204.52 140.05-44.84 291.99-67.27 455.81-67.27 165.8 0 312.2 22.98 439.14 68.92 133.3 48.23 243.45 121.19 330.38 218.85a778.53 778.53 0 0 1 33.03 39.66l-31.48-120.57c-19.48-75.19 25.68-151.94 100.86-171.42a140.84 140.84 0 0 1 35.28-4.53v-.43h639.82c70.81 0 129.42 52.16 139.55 120.14l113.79 534.11 361.12-587c26.61-43.29 72.82-67.15 120.15-67.2l578.89-.05c73.19 0 133.36 55.74 140.41 127.07 13.94-6.67 27.93-13.1 41.97-19.3 73.18-32.31 149.61-58.7 229.23-79.12 76.28-19.56 152.83-34.22 229.64-43.94 79.99-10.12 157.65-15.19 232.93-15.19 279.1 0 485.19 59.53 618.22 178.57 73.07 65.39 122.86 143.21 149.38 233.46 25.23 85.85 28.44 180.99 9.65 285.37l-110.07 611.28 9.11-3.91c26.86-11.54 55.33-14.09 82.04-8.98l317.23-1761.75c12.2-68.07 71.52-115.84 138.34-115.77v-.53h690.6c77.93 0 141.1 63.18 141.1 141.1 0 12.98-1.76 25.55-5.05 37.49l-282.99 1571.61h881.23c77.93 0 141.1 63.18 141.1 141.1 0 12.98-1.76 25.55-5.04 37.49l-98.29 545.89c-12.2 68.07-71.52 115.84-138.34 115.77v.53h-1740.04c-54.56 0-101.88-30.97-125.36-76.29-40.8 15.27-78.82 28.48-114.02 39.62-50.42 15.95-98.43 28.77-143.99 38.44-43.91 9.32-88.96 16.41-135.1 21.25-47.22 4.97-92.44 7.45-135.65 7.45-111.34 0-199.86-23.5-265.47-70.47-18.52-13.26-35.23-28.38-50.11-45.36l-7.98 4.2c-52.46 27.26-105.19 48.92-158.13 64.94-50.64 15.31-103.61 26.96-158.88 34.88-54.87 7.86-109.93 11.81-165.13 11.81-97.94 0-183.93-12.12-257.91-36.37-82.77-27.11-150.36-69.56-202.7-127.27-51.97-57.3-86.54-124.01-103.65-200.14-15.86-70.56-16.19-148.09-.98-232.63 18.21-101.1 55.53-190.91 111.94-269.33 55.75-77.52 129.29-142.52 220.6-194.98l11.76-6.66c-49.58 12.47-104.23-2.55-140.33-43.57-32.19-36.57-42.01-85.14-30.53-128.98l20.16-111.96-792.28 1255.27c-26.71 42.43-72.37 65.69-119.05 65.74v.41h-440.09c-69.65 0-127.5-50.47-139.01-116.82l-250.5-959.61c-3.35 35.99-8.4 72.79-15.18 110.41-27.36 152-76.78 288.75-148.2 410.24-72.58 123.45-166.53 229.98-281.79 319.51-114.12 88.66-241.77 155.45-382.89 200.33-139.2 44.27-288.81 66.42-448.76 66.42-336.94 0-592.06-94.99-765.34-284.96-47.49-52.07-86.55-108.95-117.18-170.65l-41.59 230.98c-9.27 51.73-45.77 91.73-92.08 107.92l.04.11c-60.68 21.31-118.08 39.45-172.14 54.39-57.54 15.89-109.64 28.01-156.28 36.32-48.44 8.63-98.33 15.12-149.6 19.43-51.33 4.31-103.52 6.47-156.52 6.47-169.37 0-317.3-25.21-443.76-75.64-133.86-53.37-241.38-133.8-322.5-241.26-73.22-96.99-123.71-203.41-151.45-319.23l-88.11 489.35c-12.2 68.07-71.52 115.84-138.34 115.77v.53h-595.82c-77.93 0-141.1-63.18-141.1-141.1 0-12.98 1.76-25.55 5.05-37.49l303.11-1683.36c12.2-68.07 71.52-115.84 138.34-115.77v-.53h35.26c-26.23-36.62-44.32-76.59-54.26-119.88-10.99-47.88-11.6-98.94-1.85-153.12 18.47-102.59 68.02-189.43 148.6-260.44 40.22-35.46 84.53-62.55 132.89-81.22 49.25-19.03 100.27-28.54 153.08-28.54 55.48 0 106.49 10.43 152.99 31.3 49.25 22.09 90.71 54.87 124.35 98.29 63.85 82.42 85.78 179.18 65.8 290.2zm1416.6 1045.78-8.66-1.27a140.701 140.701 0 0 1 -36.3-11.74l-.08.17a743.535 743.535 0 0 0 -100.45-40.1c-33.22-10.54-66.42-18.35-99.51-23.4-42.71-6.51-76.87-11-102.32-13.41-24.99-2.37-49.38-3.56-73.1-3.56-45.19 0-85.89 6.28-122.05 18.82-35.91 12.45-69.77 31.65-101.55 57.55-30.32 24.71-55.05 53.72-74.14 86.96-19.92 34.69-33.76 73.53-41.49 116.45-7.56 41.99-7.91 78.83-1.07 110.45 5.63 26 16.59 48.43 32.86 67.23 17.53 20.25 38.65 35.52 63.33 45.75 27.17 11.27 60.4 16.91 99.64 16.91 24.84 0 49.8-1.19 74.78-3.56 30.58-2.89 63.95-7.19 100.03-12.86 34.24-5.37 74.09-14.3 119.46-26.73 45.9-12.58 98.72-29.3 158.42-50.14 19.7-6.87 39.9-9.09 59.4-7.25 1.7-59.53 8.35-121.53 19.96-186.02 8.7-48.31 19.65-95.06 32.85-140.26zm870.12 189.86c-9.87 54.86-12.85 102.56-8.94 143.09 3.05 31.65 10.78 58.08 23.14 79.23 17.57 30.06 53.58 45.11 107.97 45.11 35.71 0 67.37-5.78 94.96-17.33 27-11.3 51.69-28.65 74-51.98 25.48-26.64 47.04-59.3 64.64-97.89l-.46-.21c20-43.96 35.04-93.83 45.08-149.61 9.82-54.54 12.79-101.93 8.93-142.12-3.18-31.93-10.62-57.75-22.33-77.4-8.18-13.72-19.07-23.91-32.63-30.49-19.24-9.35-45.97-14.03-80.14-14.03-33.87 0-63.78 5.45-89.68 16.35-26.73 11.24-51.93 28.91-75.56 52.94-25 25.43-46.39 57.36-64.11 95.72-19.79 42.83-34.76 92.39-44.88 148.62zm3268.41-101.43c73.23-36.31 164.45-74.67 273.66-115.09 122.45-45.34 269.44-94.25 440.93-146.78-5.26-3.07-11.34-5.6-18.23-7.58l-.52-.15-.04.15c-16.3-4.7-38.17-7.06-65.57-7.06-52.4 0-103.46 5.49-153.19 16.45-51.98 11.46-104.98 29.03-158.98 52.67-54.85 24.01-108.55 53.08-161.05 87.15-52.09 33.81-104.31 73.81-156.62 119.9l-.4.34zm465.26 490.64c5.48-.27 11.06-1.12 16.7-2.57 11.47-2.94 25.22-7.99 41.19-15.13 17.32-7.74 36.43-17.69 57.23-29.78l18.06-10.78 15.26-84.71c-48.37 22.08-84.87 45.91-109.51 71.47-19.66 20.41-31.56 42.03-35.67 64.85-.62 3.46-1.91 5.44-3.25 6.66zm-3478.9-4920.76c1020.54 0 1995.2 95.56 2888.57 269.19-2.21-58.99 2.14-116.45 12.07-172.74-899.03-175.1-1877.2-271.44-2900.64-271.44-4404.21 0-7974.53 1779.56-7974.53 3974.77 0 2195.19 3570.31 3974.75 7974.53 3974.75 4404.19 0 7974.51-1779.56 7974.51-3974.75 0-448.18-149.05-878.99-423.46-1280.89-55.51 23-112.67 38.83-171.03 48.09 271.9 386.46 419.5 801.01 419.5 1232.38 0 2098.31-3491.97 3799.33-7799.52 3799.33-4307.57 0-7799.54-1701.02-7799.54-3799.33 0-2098.33 3491.97-3799.35 7799.54-3799.35z" fill="#538c4a"/><path d="m2580.62 4015.33 959.98 1286.41 231.65-1286.41h683.83l-415.73 2308.78h-616.12l-956.61-1286.42-231.64 1286.42h-683.83l415.73-2308.78zm2714.07 223.43c-12.6 69.97-47.53 129.2-104.78 177.73-57.27 48.53-120.87 72.79-190.84 72.79s-124.83-24.26-164.62-72.79-53.39-107.76-40.79-177.73 47.07-129.77 103.4-179.42c56.33-49.66 120.6-74.48 192.83-74.48 72.22 0 127.55 24.82 166.01 74.48 38.46 49.65 51.39 109.45 38.79 179.42zm-22.7 389.31-305.4 1696.05h-595.82l305.4-1696.05zm1679.12 67.71-85.33 473.95c-78.86-38.37-158.92-63.76-240.2-76.18-81.27-12.41-146.72-18.62-196.37-18.62-119.61 0-223.74 36.12-312.34 108.33-88.61 72.22-143.69 168.14-165.23 287.75-21.95 121.87-.68 220.05 63.76 294.52 64.46 74.48 154.24 111.71 269.34 111.71 51.91 0 117.33-6.21 196.31-18.62 78.97-12.41 179.86-40.06 302.68-82.93l-84.72 470.55c-115.65 40.63-217.78 68.84-306.37 84.63-88.61 15.8-182.57 23.7-281.87 23.7-304.67 0-522.61-86.89-653.82-260.67-131.19-173.78-175.07-381.41-131.58-622.89 43.08-239.23 161.87-444.6 356.38-616.13 194.52-171.52 442.97-257.28 745.39-257.28 94.79 0 182.62 7.34 263.48 22.01 80.87 14.67 167.7 40.06 260.49 76.17zm1933.65 778.62c-48.77 270.83-174.83 485.23-378.19 643.21-203.35 157.98-451.72 236.98-745.11 236.98-295.65 0-516.04-79.56-661.17-238.67s-193.52-372.95-145.16-641.52c47.55-264.05 171.52-476.2 371.89-636.43 200.39-160.24 450.64-240.37 750.81-240.37 300.16 0 521.59 80.13 664.25 240.37 142.67 160.23 190.23 372.38 142.68 636.43zm-1303.35 0c-24.38 135.42-14.13 241.49 30.73 318.22 44.86 76.74 121.45 115.1 229.79 115.1 108.32 0 198.64-37.8 270.92-113.4 72.31-75.61 120.84-182.25 145.63-319.92 24.39-135.41 14.05-240.92-31.03-316.52-45.06-75.61-122.89-113.41-233.48-113.41-103.81 0-192.33 37.24-265.55 111.72s-122.22 180.55-147.01 318.21zm2043.46-846.33 188.98 886.96 545.64-886.96h578.89l-1070.49 1696.05h-440.09l-442.75-1696.05zm2826.59 501.03-114.6 636.44c-8.53 47.4-10.78 88.01-6.71 121.87 4.06 33.85 23.01 50.78 56.87 50.78 24.83 0 48.11-3.95 69.85-11.85 21.73-7.9 50.95-19.75 87.64-35.55l-62.79 348.69c-109.28 42.89-203.82 72.79-283.59 89.71-79.79 16.93-160.3 25.39-241.55 25.39s-142.36-14.67-183.35-44.01c-40.98-29.34-65.01-74.48-72.1-135.41-88.52 65.45-177.54 111.71-267.03 138.79-89.51 27.09-183.93 40.63-283.22 40.63-167.01 0-285.82-38.93-356.44-116.79-70.62-77.87-94.13-182.24-70.47-313.71 28.86-160.23 116.92-282.67 264.19-367.3 147.26-84.63 429.54-189.02 846.96-313.71l2.94-16.36c17.08-94.79 4.39-159.11-37.83-194.1-42.23-34.98-102.83-52.47-181.83-52.47-121.86 0-244.67 27.08-368.39 81.25-123.73 54.17-241.94 130.9-354.6 230.21l82.9-460.4c130.13-83.5 265.59-143.31 406.39-179.43 140.78-36.11 283.39-54.17 427.83-54.17 243.75 0 418.58 47.4 524.52 142.19 105.92 94.78 144.06 224.56 114.39 389.31zm-1001.71 900.5c33.85 0 73.49-10.16 118.89-30.47 45.42-20.31 93.93-48.53 145.58-84.63l72.75-403.98c-17.02 6.77-94.87 41.19-233.37 102.12-138.49 60.94-216.88 142.18-235.27 244.31-9.75 54.17-1.57 96.48 24.54 126.95 26.12 30.46 61.74 45.7 106.87 45.7zm2267.29-2014.26-315.16 1750.2h1049.45l-100.57 558.58h-1740.04l415.73-2308.78h690.6z" fill="#fefefe"/></g></svg>