<svg clip-rule="evenodd" fill-rule="evenodd" height="1684" image-rendering="optimizeQuality" shape-rendering="geometricPrecision" text-rendering="geometricPrecision" viewBox="-.5 -.5 4800 3233" width="2500" xmlns="http://www.w3.org/2000/svg"><path d="m-.5-.5h4800v3233h-4800z" fill="#bc0000"/><path d="m239.5 148.5c49.46-4.2 84.96 15.8 106.5 60 14.874 43.706 5.374 81.206-28.5 112.5-28.861 21.524-60.528 26.857-95 16-40.994-17.705-62.327-49.038-64-94 2.796-41.622 23.13-70.955 61-88a687.76 687.76 0 0 1 20-6.5zm330 0c50.685-4.34 86.352 16.493 107 62.5 14.307 46.738 2.307 85.071-36 115-45.877 26.299-88.044 21.466-126.5-14.5-25.073-30.432-31.407-64.432-19-102 14.83-32.673 39.663-53.006 74.5-61zm330 0c48.876-4.323 84.043 15.344 105.5 59 14 37.662 8.34 71.995-17 103-30.831 30.712-66.997 39.212-108.5 25.5-39.567-18.259-59.9-49.259-61-93 2.783-42.566 23.783-72.233 63-89a194.897 194.897 0 0 1 18-5.5zm330 0c43.86-4.315 77.36 12.018 100.5 49 19.13 38.239 16.13 74.572-9 109-33.23 36.074-72.73 44.908-118.5 26.5-40.68-22.845-58.51-57.679-53.5-104.5 10.12-43.618 36.95-70.285 80.5-80zm330 0c49.04-3.906 84.21 16.094 105.5 60 14.86 43.712 5.36 81.212-28.5 112.5-36.17 25.959-73.83 28.292-113 7-35.09-24.365-49.93-57.865-44.5-100.5 10.57-43.067 37.4-69.401 80.5-79zm329 0c50.93-4.297 86.77 16.703 107.5 63 12.92 42.166 3.42 78.332-28.5 108.5-34.91 26.109-71.91 29.442-111 10-37.55-24.257-53.39-58.757-47.5-103.5 10.9-42.065 37.4-68.065 79.5-78zm330 0c49.91-4.31 85.41 16.023 106.5 61 13.75 41.506 5.25 77.673-25.5 108.5-29.23 23.646-61.9 29.98-98 19-46.36-20.183-67.52-55.683-63.5-106.5 9.9-44.068 36.74-71.401 80.5-82zm330 0c48.83-4.256 84 15.411 105.5 59 15.63 44.896 5.8 83.063-29.5 114.5-36.08 24.906-73.41 26.906-112 6-33.9-23.97-48.73-56.804-44.5-98.5 9.68-44.18 36.51-71.18 80.5-81zm330 0c51.59-3.969 87.43 17.698 107.5 65 12.9 47.648-.6 85.815-40.5 114.5-37.2 20.513-73.53 19.179-109-4-37.22-31.36-48.05-70.193-32.5-116.5 14.98-32.147 39.81-51.813 74.5-59zm329 0c50.93-4.298 86.77 16.702 107.5 63 13.16 42.18 3.66 78.346-28.5 108.5-30.86 23.455-64.53 28.455-101 15-44.48-22.44-63.64-58.606-57.5-108.5 10.88-42.052 37.38-68.052 79.5-78zm330 0c49.93-4.298 85.43 16.035 106.5 61 14.07 41.564 5.57 77.73-25.5 108.5-30.29 24.388-63.95 30.388-101 18-46.13-22.414-65.96-59.247-59.5-110.5 11.31-41.481 37.81-67.148 79.5-77zm330 0c48.83-4.256 84 15.411 105.5 59 16.18 47.107 5.01 86.273-33.5 117.5-40.84 24.841-80.5 23.175-119-5-32.99-31.151-42.15-68.318-27.5-111.5 14.7-32.745 39.53-52.745 74.5-60zm330 0c50.86-3.922 86.52 17.244 107 63.5 12.95 42.803 2.95 79.137-30 109-33.11 24.359-68.44 28.026-106 11-42.79-25.754-59.29-63.254-49.5-112.5 12.65-38.723 38.82-62.39 78.5-71zm330 0c48.07-3.895 82.9 15.438 104.5 58 16.15 44.276 6.98 82.442-27.5 114.5-30.75 22.773-64.08 27.44-100 14-41.52-20.848-61.02-54.681-58.5-101.5 8.69-46.185 35.85-74.518 81.5-85zm-4048 361c43.675-.207 87.342.293 131 1.5a880.997 880.997 0 0 1 80 6c16.946 7.963 27.779 21.129 32.5 39.5 4.176 25.145-3.657 45.645-23.5 61.5a64.902 64.902 0 0 1 -14 6c-51.342.148-102.676.815-154 2-16.015 3.855-21.182 13.688-15.5 29.5 5.609 7.27 13.109 10.604 22.5 10 19.69-1.21 39.356-2.71 59-4.5 20.621-2.895 40.287.105 59 9 17.502 10.182 24.336 25.349 20.5 45.5-2.099 18.061-11.933 29.227-29.5 33.5l-53 1a6.978 6.978 0 0 0 -3.5 2.5c-.738 3.761-.405 7.428 1 11 55.447 50.868 94.78 112.201 118 184 19.406 67.2 16.073 133.2-10 198-15.288 31.63-37.455 57.46-66.5 77.5-67.776 47.07-141.776 60.74-222 41-54.366-16.7-93.532-50.86-117.5-102.5-26.983-55.79-30.65-113.13-11-172a4559.37 4559.37 0 0 1 44-120c21.693-61.491 31.693-124.824 30-190-3.082-22.916-11.082-43.916-24-63-18.126-25.792-39.959-47.959-65.5-66.5l-9.5-9.5c-3.706-4.391-5.372-9.391-5-15 5.779-5.147 12.612-7.314 20.5-6.5a4663.992 4663.992 0 0 1 206-9.5zm3643 79c61.33.808 122.66 1.474 184 2 12.51 47.044 25.18 94.044 38 141 26.32-1.102 52.65-1.268 79-.5 20.59 1.124 40.59 5.124 60 12 21.87 10.553 35.71 27.72 41.5 51.5 3.96 28.254-6.87 48.42-32.5 60.5a131.043 131.043 0 0 1 -40 11 989.869 989.869 0 0 1 -81 2.5c4.69 35.014 9.53 70.014 14.5 105 4.25 21.593 17.25 33.26 39 35 20.82-2.83 41.65-5.67 62.5-8.5 34.06-2.22 59.89 11.28 77.5 40.5 12.31 22.84 16.65 47.17 13 73-6.36 39.56-25.19 71.72-56.5 96.5-48.77 35.6-103.44 56.27-164 62-41.32 4.1-81.98.77-122-10-72.25-22.58-118.42-70.42-138.5-143.5-19.3-64.21-17.63-127.879 5-191a1196.61 1196.61 0 0 1 18-43 2365.872 2365.872 0 0 0 50-101c10.07-22.286 14.74-45.619 14-70-3.41-13.159-8.75-25.492-16-37-15.38-23.697-33.38-45.363-54-65-6.67-11.305-3.84-18.971 8.5-23zm-1965 11c34.85-1.653 62.69 11.347 83.5 39 17.46 32.357 13.29 61.524-12.5 87.5-27.24 20.92-57.24 25.92-90 15-41.92-18.67-57.42-50.17-46.5-94.5 13.88-26.714 35.72-42.38 65.5-47zm657 16c6.66-.666 13.49-1 20.5-1 56.73 1.122 113.4 2.122 170 3a437.514 437.514 0 0 1 22 67c1.17 18.977 1.84 37.977 2 57 33.87 78.931 60.53 160.264 80 244 8.88 36.83 12.22 74.17 10 112-7.41 63.03-36.91 112.53-88.5 148.5-42.45 25.95-87.45 31.28-135 16-44.29-14.3-72.13-44.13-83.5-89.5a377.62 377.62 0 0 1 -10.5-89c-1.65-31.61 1.85-62.61 10.5-93a866.28 866.28 0 0 1 38-103 1653.204 1653.204 0 0 1 73.5-142.5 9848.777 9848.777 0 0 0 -109-129.5zm1029 116c37.92-.864 71.25 10.969 100 35.5 14.59 12.569 26.09 27.403 34.5 44.5 6.6 15.599 4.1 29.432-7.5 41.5-20.98 15.324-44.31 20.991-70 17a92.046 92.046 0 0 1 -20-8l-18-14c-7.8-3.368-12.47-.868-14 7.5 1.56 10.053 6.56 17.887 15 23.5a142.243 142.243 0 0 0 36 15c149.63 30.732 202.8 119.56 159.5 266.5-9.04 22.68-21.71 43.02-38 61-14.88 18.23-32.72 32.73-53.5 43.5a201.628 201.628 0 0 1 -38 11c-51.62 3.23-102.62-1.1-153-13-49.69-17.07-93.19-43.9-130.5-80.5-43.12-46.76-50.46-98.76-22-156 24.44-32.945 57.27-47.111 98.5-42.5 18.31 2.658 35.64 8.325 52 17 24.82 14.8 50.16 28.8 76 42 9.04 4.12 18.37 7.46 28 10 10.38 1.9 20.04.23 29-5 7.78-6.38 10.94-14.55 9.5-24.5-.93-2.05-2.43-3.55-4.5-4.5-3.62-1.16-7.29-2.16-11-3-68.11-.69-128.11-22.694-180-66-26.67-25.785-37.51-57.285-32.5-94.5 8.68-49.676 35.85-85.176 81.5-106.5 23.44-10.11 47.77-15.944 73-17.5zm-528 11c119.35-1.603 203.52 51.73 252.5 160 24.39 54.904 33.73 112.24 28 172-9.2 61.58-37.03 112.75-83.5 153.5-40.23 30.99-85.89 45.49-137 43.5-66.64 1.63-124.97-19.21-175-62.5-41.72-40.28-64.39-89.45-68-147.5.33-27.33 8.16-52.33 23.5-75 25.42-37.091 59.25-63.258 101.5-78.5a225.62 225.62 0 0 1 24-4c22.35-.161 44.69-.827 67-2 11.19-1.201 17.86-7.201 20-18-2.29-14.943-10.62-19.943-25-15-24.61 12.703-50.61 20.87-78 24.5-27.99-2.154-47.49-16.154-58.5-42-7.71-27.436-1.71-51.436 18-72 17.13-16.983 37.63-27.816 61.5-32.5a325.413 325.413 0 0 1 29-4.5zm-2308 1c48.52 1.007 92.19 15.841 131 44.5 38.55 33.137 47.38 72.971 26.5 119.5-15.12 26.784-35.95 47.95-62.5 63.5-30.64 17.908-63.64 27.575-99 29a1526.903 1526.903 0 0 0 -42-13c-20.8-4.866-29.966 3.3-27.5 24.5 2.913 12.58 10.746 20.08 23.5 22.5 20.385 3.08 40.385 1.42 60-5 27.03-10.79 54.36-20.79 82-30 22.72-7.739 46.06-10.739 70-9 25.96 3.634 44.13 17.47 54.5 41.5 16.31 37.13 16.64 74.46 1 112-16.86 36.19-41.69 65.69-74.5 88.5-15.88 12.11-33.55 20.77-53 26-59.48 15.45-119.815 20.11-181 14-65.766-13.47-117.266-47.97-154.5-103.5-22.027-34.44-31.693-72.1-29-113 2.43-58.615 17.096-113.949 44-166 51.325-88.439 128.159-137.106 230.5-146zm1343 5c6.66-.666 13.49-1 20.5-1 43.83.71 87.66 1.21 131.5 1.5 9.17 9.167 18.33 18.333 27.5 27.5 17.78-16.147 38.61-22.647 62.5-19.5 22.62 2.763 43.62 10.096 63 22 38.63 26.96 69.13 61.126 91.5 102.5 22.63 40.525 36.3 83.858 41 130 1.98 39.15-2.68 77.49-14 115-7.61 23.58-20.11 44.08-37.5 61.5-24.88 21.65-53.88 31.15-87 28.5 8.06 45.83 4.9 90.83-9.5 135-18.48 47.81-52.31 78.97-101.5 93.5-36.18 10.24-72.85 12.58-110 7-70.51-19.85-111.34-66.02-122.5-138.5-2.9-26.89-1.56-53.55 4-80a2318.026 2318.026 0 0 1 57-202 14339.85 14339.85 0 0 1 43-128 154.08 154.08 0 0 0 3-44 47.44 47.44 0 0 0 -5-12c-19.19-33.063-38.36-66.063-57.5-99zm-1102 0c47.01.339 94.01 1.006 141 2 2 10.833 5.5 21.167 10.5 31 2.91 4.576 6.74 8.076 11.5 10.5 4.75.73 9.08-.27 13-3 5.33-6 10.67-12 16-18 14.89-12.127 32.06-17.627 51.5-16.5 13.14-.342 25.3 2.825 36.5 9.5 13.21 12.852 15.71 27.686 7.5 44.5-7.73 15.064-18.9 26.898-33.5 35.5a177.656 177.656 0 0 0 -33 17c-15.88 13.973-22.05 31.473-18.5 52.5.83 4.643 1.5 9.31 2 14a1763.18 1763.18 0 0 1 26 114c5.04 24.77 7.38 49.77 7 75-3.15 60.07-30.98 104.24-83.5 132.5-27.38 12.08-55.72 15.08-85 9-23.26-7.26-40.43-21.76-51.5-43.5-11.14-24.43-17.14-50.1-18-77-1.97-32.98.36-65.64 7-98a1349.263 1349.263 0 0 1 62.5-214 2188.203 2188.203 0 0 0 -69.5-67c-3.44-3.556-3.27-6.889.5-10zm843 3c53.56 2.382 107.06 5.048 160.5 8 16.41 119.312 32.74 238.646 49 358 3.29 33.01-2.37 64.34-17 94-16.4 27.8-40.57 44.63-72.5 50.5-74.35 13.41-120.85-16.42-139.5-89.5-6.18-30.7-8.18-61.7-6-93a1253.887 1253.887 0 0 1 50-180 750.855 750.855 0 0 1 20-48 109.465 109.465 0 0 0 6.5-21c-.34-2.367-.84-4.7-1.5-7a327.368 327.368 0 0 0 -12-21 1139.49 1139.49 0 0 1 -37.5-51zm-516 3c.77-.647 1.77-.98 3-1 36.31 3.097 72.64 5.931 109 8.5a1959.08 1959.08 0 0 0 28 34.5c27.68-13.726 56.68-23.559 87-29.5 44.87-1.709 83.7 12.791 116.5 43.5 12.03 13.387 21.7 28.387 29 45a2685.504 2685.504 0 0 1 89 238c6.28 21.1 11.61 42.44 16 64 4.29 41.93-11.88 73.1-48.5 93.5-23.33 13-48.33 19-75 18-26.45-5.48-48.62-18.31-66.5-38.5-27.04-32.6-39.87-70.27-38.5-113 .27-17.17 2.1-34.17 5.5-51 6.35-28.73 13.02-57.4 20-86 5.55-29.851.88-57.851-14-84-13.15-14.269-28.98-18.102-47.5-11.5-12.52 6.816-22.02 16.65-28.5 29.5-6.2 13.005-8.53 26.671-7 41l6 36c9.65 38.9 16.98 78.24 22 118 4.68 38.6-2.66 74.6-22 108-27.86 38.68-65.7 57.18-113.5 55.5-66.77-16.67-99.44-59.51-98-128.5 1.5-37.01 7.34-73.35 17.5-109a1085.255 1085.255 0 0 1 69.5-179.5 5013.357 5013.357 0 0 0 -59-101.5z" fill="#fefefe"/><path d="m981.5 868.5a92.987 92.987 0 0 1 30 3.5c10.26 4.071 10.59 9.071 1 15-16.181 8.246-32.514 8.58-49 1-3.08-1.711-4.246-4.211-3.5-7.5 5.746-6.528 12.913-10.528 21.5-12z" fill="#bd0c05"/><path d="m2602.5 913.5c10-.499 18.67 2.668 26 9.5 16.81 15.124 24.65 33.957 23.5 56.5-4.77 19.702-15.6 23.87-32.5 12.5-12.61-9.058-21.44-20.892-26.5-35.5-1.38-11.585-.38-22.918 3-34a29.345 29.345 0 0 1 6.5-9z" fill="#bc0502"/><path d="m3421.5 1026.5c9.42-.25 11.58 3.75 6.5 12-8.43 9.75-18.6 17.25-30.5 22.5-24.67 10.22-50.34 14.56-77 13-10.24-.97-19.57-4.3-28-10-6.97-7.08-6.63-13.75 1-20 10.83-6.7 22.67-9.87 35.5-9.5 16.86 1.13 33.69 2.46 50.5 4 7.69-.14 15.36-.64 23-1.5 6.73-2.93 13.07-6.43 19-10.5z" fill="#bc0602"/><path d="m3189.5 1366.5c1.64-.21 3.14.12 4.5 1 31.68 119.19 63.84 238.19 96.5 357 50.43-13.9 100.93-27.57 151.5-41 .95.41 1.61 1.07 2 2 13.27 48.99 26.44 97.99 39.5 147-.32 1.15-.98 1.98-2 2.5a729075.174 729075.174 0 0 0 -1139 305.5 54899.707 54899.707 0 0 1 -120.5-446c-.05-2.39-1.22-3.72-3.5-4-34.61 8.73-68.94 18.23-103 28.5 81.89 39.24 132.05 103.4 150.5 192.5 13.8 107.19-22.04 193.36-107.5 258.5-78.36 51.7-161.7 61.37-250 29-85.25-36.92-138.08-100.75-158.5-191.5-12.86-73.71 2.14-141.04 45-202 .67-.67.67-1.33 0-2-34.68 9.84-69.52 19.17-104.5 28 40.07 149.44 80.07 298.94 120 448.5-.09 1.11-.42 2.11-1 3l-212 57c-1.94.74-3.77.58-5.5-.5-40.31-149.24-80.31-298.57-120-448-.41-.46-.91-.79-1.5-1a5010.481 5010.481 0 0 1 -117 31c-4.76-18.88-9.76-37.71-15-56.5.14-.77.48-1.44 1-2 151.27-40.82 302.6-81.32 454-121.5 4.13 16.38 8.46 32.71 13 49 65.4-73.31 147.07-103.48 245-90.5 16.7 2.85 33.04 7.02 49 12.5-4.1-16.21-8.43-32.38-13-48.5.41-.95 1.07-1.61 2-2 150.69-40.51 301.36-81.01 452-121.5 5.79 18.84 11.13 37.84 16 57-.33.67-.67 1.33-1 2a7423.514 7423.514 0 0 1 -116 31c36.24 139.22 73.41 278.22 111.5 417 49.21-183.19 98.88-366.19 149-549 133.03 132.36 266.03 264.69 399 397a97553.619 97553.619 0 0 0 -125.5-469.5c.41-.95 1.07-1.61 2-2 71.26-18.73 142.26-37.9 213-57.5z" fill="#fed800"/><path d="m2047.5 1754.5c29.81-2.34 52.65 8.99 68.5 34 15.01 31.62 10.17 59.79-14.5 84.5-18.89 15.38-40.23 20.04-64 14-35.88-13.92-51.72-40.09-47.5-78.5 4.98-19.82 16.15-34.99 33.5-45.5 7.8-3.77 15.8-6.6 24-8.5z" fill="#bc0200"/><path d="m673.5 1758.5a13854.06 13854.06 0 0 1 69.5 111c1.187 1.54 1.52 3.21 1 5-6.833 4.83-13.667 9.67-20.5 14.5-1.259.98-2.592 1.32-4 1a5785.253 5785.253 0 0 0 -48-77.5 28669.138 28669.138 0 0 0 -230.5 157c-.667 1-.667 2 0 3l35.5 57a218.235 218.235 0 0 1 -24.5 18l-38-60a8727.827 8727.827 0 0 0 -125.5 86.5 4699.416 4699.416 0 0 0 48 78l-22 15c-1.259.98-2.592 1.32-4 1l-62.5-100.5c-2.934-4.53-5.267-9.2-7-14a34470.73200000001 34470.73200000001 0 0 0 150.5-103c-2.547-4.6-5.214-9.1-8-13.5 7.375-6.54 15.375-12.37 24-17.5a89.916 89.916 0 0 1 9 13c.502 1.02 1.168 1.19 2 .5 85.066-58.19 170.066-116.36 255-174.5zm3639 24c6.1 2.89 12.1 6.05 18 9.5a27.2 27.2 0 0 1 8 6c-17.06 27.4-13.39 51.73 11 73 78 47.34 156.34 94.17 235 140.5 1.08.86 1.25 1.86.5 3a399.802 399.802 0 0 1 -18.5 33c-100.46-59.3-200.8-118.8-301-178.5 6.04-11.25 12.21-22.41 18.5-33.5a260.31 260.31 0 0 0 16.5 10l1-1c-5.99-16.04-5.15-31.71 2.5-47 2.85-5.03 5.68-10.03 8.5-15z" fill="#fefdfd"/><path d="m2785.5 1782.5c40.82-1.33 66.32 17.67 76.5 57 2.79 34.95-11.71 59.45-43.5 73.5-32.95 10.35-59.78 1.85-80.5-25.5-18.34-33.29-13.84-63.13 13.5-89.5 10.26-7.63 21.6-12.8 34-15.5z" fill="#bc0200"/><path d="m778.5 1913.5a955.278 955.278 0 0 0 24.5 29c.667 1 .667 2 0 3-130.333 117.67-260.667 235.33-391 353a1128.05 1128.05 0 0 0 -25.5-31 99270.843 99270.843 0 0 0 392-354z" fill="#fefdfd"/><path d="m4212.5 1973.5c18.14-.55 34.48 4.62 49 15.5 75.17 61.83 150.33 123.67 225.5 185.5-5.89 9.94-12.73 19.44-20.5 28.5-1 .67-2 .67-3 0-3.07-2.95-6.24-5.78-9.5-8.5.75 8.99 1.42 17.99 2 27-8.27 15.25-21.1 23.75-38.5 25.5-14.29 1.49-28.29.16-42-4-54.34-22.01-94.18-59.51-119.5-112.5-11.95-26.84-16.28-54.84-13-84 .95-5.65 2.45-11.15 4.5-16.5-6.98-8.29-15.64-14.29-26-18-8.53-1.77-15.87.4-22 6.5a94.62 94.62 0 0 0 -7.5 9 264.184 264.184 0 0 0 -14.5 27 965.277 965.277 0 0 0 -22.5-19c7.73-22.59 21.23-41.09 40.5-55.5 5.66-2.49 11.33-4.66 17-6.5z" fill="#fefdfc"/><path d="m4273.5 2050.5c50.63 41.45 101.13 83.12 151.5 125 5.09 9.06 6.76 18.73 5 29-1.58 5.91-5.41 9.41-11.5 10.5-12.04.49-23.37-2.17-34-8-37.9-21.56-69.06-50.4-93.5-86.5-10-16.34-16.34-34.01-19-53-.88-5.82-.38-11.48 1.5-17z" fill="#bc0301"/><path d="m919.5 2065.5c33.167 28.33 66.501 56.5 100 84.5 1.02 1.05 1.18 2.22.5 3.5a3645.59 3645.59 0 0 1 -18 22 2821.4 2821.4 0 0 1 -69-58c-57.667 74.33-115.333 148.67-173 223-.711 1.87-.211 3.37 1.5 4.5a2913.797 2913.797 0 0 1 49 41.5c1.083.86 1.249 1.86.5 3a596.944 596.944 0 0 1 -18.5 22 1250.433 1250.433 0 0 1 -51-43.5c-.667-.67-1.333-.67-2 0a8129.747 8129.747 0 0 0 -93.5 120.5c.893 2.94 2.726 5.44 5.5 7.5a2307.542 2307.542 0 0 1 61.5 52.5c-5.202 8.67-11.202 17-18 25a6570.09 6570.09 0 0 0 -101.5-86.5c38.121-49.08 76.121-98.24 114-147.5a163.837 163.837 0 0 0 -11.5-10c-.667-1-.667-2 0-3a550.362 550.362 0 0 0 17.5-22 163.89 163.89 0 0 1 12 9.5c.949.62 1.782.45 2.5-.5a66255.489 66255.489 0 0 0 191.5-248zm3161 53a40226.636 40226.636 0 0 1 273.5 308c28.73 38.87 24.23 73.37-13.5 103.5-5.49 4.25-11.16 8.25-17 12-1.26.98-2.59 1.32-4 1a634.917 634.917 0 0 1 -20-22.5 157.525 157.525 0 0 0 31.5-24c8.34-14.56 7.01-28.23-4-41a1152.35 1152.35 0 0 1 -38-43c-21.35 10.33-43.85 13.83-67.5 10.5-32.37-5.69-61.37-18.69-87-39-46.15-35.8-82.32-79.63-108.5-131.5-9.44-20.45-12.44-41.78-9-64 3.54-13.21 10.71-24.05 21.5-32.5 9.01-.27 18.01-.27 27 0-3.33-4-6.67-8-10-12 8.54-8.37 16.87-16.87 25-25.5z" fill="#fefdfd"/><path d="m4060.5 2179.5c9.34-.83 18.18.84 26.5 5 59.65 67.82 119.48 135.48 179.5 203-8.96 3.72-18.3 4.88-28 3.5-24.69-4.85-47.02-14.85-67-30-33.46-25.8-63.3-55.3-89.5-88.5-11.11-14.54-20.44-30.21-28-47-4.65-10.91-6.32-22.24-5-34 2.05-5.88 5.88-9.88 11.5-12z" fill="#bc0201"/><path d="m3646.5 2244.5c1-.09 1.83.25 2.5 1 80.93 159.03 161.76 318.19 242.5 477.5a951.159 951.159 0 0 1 -36 20.5 19756.41 19756.41 0 0 0 -86-167 6749.305 6749.305 0 0 0 -67.5 38c-.67 1-.67 2 0 3 27.83 55 55.67 110 83.5 165a620.77 620.77 0 0 1 -35.5 20 6498.802 6498.802 0 0 1 -85.5-166l-1-1c-6 3.33-12 6.67-18 10a200.83 200.83 0 0 1 -14-26.5c5.3-3.99 10.97-7.49 17-10.5 1.08-.86 1.25-1.86.5-3-47.96-93.76-95.79-187.59-143.5-281.5 11.83-6.41 23.5-13.08 35-20 .95-.62 1.78-.45 2.5.5 47.48 93.64 94.98 187.3 142.5 281 .86 1.08 1.86 1.25 3 .5 22.69-12.34 45.03-25.18 67-38.5-47.63-94.43-95.63-188.6-144-282.5 11.73-6.86 23.4-13.69 35-20.5zm235 54c18.87-.99 35.87 4.18 51 15.5 22.5 17.17 42.33 37 59.5 59.5 26.91 34.8 50.58 71.8 71 111 10.74 21.21 18.07 43.54 22 67 4.07 35.07-10.43 58.24-43.5 69.5-9.13.99-18.13.33-27-2-13.28-4.97-25.28-11.97-36-21-28.18-25.5-52.68-54-73.5-85.5-23.2-32.71-42.53-67.71-58-105-7.99-20.29-11.33-41.29-10-63 5.92-24.08 20.75-39.42 44.5-46z" fill="#fefdfd"/><path d="m3881.5 2331.5c7.6-.54 14.6 1.29 21 5.5 9.09 6.42 17.59 13.58 25.5 21.5 46.04 52.37 84.37 110.04 115 173 4.01 9.7 7.01 19.7 9 30 1.91 9.59-.59 17.76-7.5 24.5-6.33 3.33-12.67 3.33-19 0-11.93-6.26-22.43-14.42-31.5-24.5-38.93-45.17-72.93-93.84-102-146-10.5-18.15-17.83-37.49-22-58-2.8-11.83 1.04-20.49 11.5-26z" fill="#bc0201"/><path d="m985.5 2361.5c26.69-3.17 48.69 5.33 66 25.5a889.49 889.49 0 0 1 -16 24.5c-13.61-14.93-29.95-19.09-49-12.5-10.808 4.23-20.475 10.23-29 18-21.854 20.5-40.687 43.34-56.5 68.5-17.261 26.52-31.928 54.52-44 84-8.656 20.59-11.656 41.93-9 64 1.596 8.69 5.43 16.19 11.5 22.5a252.189 252.189 0 0 0 18 11.5 486.661 486.661 0 0 1 -16 25c-28.991-11.51-45.491-32.84-49.5-64-2.427-25.77.906-50.77 10-75 18.961-49.55 45.294-94.55 79-135a341.493 341.493 0 0 1 39.5-36.5c13.839-9.59 28.839-16.42 45-20.5zm149 81c40 2.34 60.33 23.67 61 64-2.24 29.3-8.74 57.63-19.5 85-15.56 40.12-34.56 78.46-57 115-13.52 21.86-29.68 41.7-48.5 59.5-10.8 9.13-23.13 15.13-37 18-34.172.17-54.005-16.67-59.5-50.5-1.814-23.2.853-45.86 8-68 19.24-58.47 45.9-113.14 80-164 10.87-15.86 23.7-30.02 38.5-42.5 10.24-7.95 21.57-13.45 34-16.5z" fill="#fefdfc"/><path d="m1140.5 2475.5c11.22-.31 18.05 5.03 20.5 16 .7 14.7-1.3 29.03-6 43-22.24 64.47-51.91 125.14-89 182-7.05 10.06-15.22 19.23-24.5 27.5-3.89 3.11-8.22 5.44-13 7-13.24 1.1-20.41-5.07-21.5-18.5-.16-12.54 1.51-24.88 5-37 20.85-60.03 47.85-117.03 81-171 9.83-15.82 21.66-29.98 35.5-42.5 3.93-2.46 7.93-4.63 12-6.5z" fill="#bc0201"/><path d="m1291.5 2518.5c10.68 3.84 21.18 8.17 31.5 13-.94 5.46-2.27 10.8-4 16 7.67-4.17 15.67-7.5 24-10 32.82 8.6 49.65 29.93 50.5 64a207.48 207.48 0 0 1 -12.5 57c-32.14 82.58-63.97 165.25-95.5 248-11.86-4.26-23.53-9.1-35-14.5-.52-.56-.86-1.23-1-2a89160.91 89160.91 0 0 0 102.5-264.5c4.05-12.38 5.39-25.05 4-38-5.14-17.48-15.97-22.32-32.5-14.5-9.4 7.4-16.56 16.57-21.5 27.5-34.4 89.37-68.9 178.71-103.5 268-.86 1.08-1.86 1.25-3 .5-10.67-4.67-21.33-9.33-32-14-.52-.56-.86-1.23-1-2 42.91-111.56 85.91-223.06 129-334.5zm1482 25h4c18.5 178.5 37.17 357 56 535.5-.13 1.98-.8 3.65-2 5-11 1.22-22 2.39-33 3.5a54.66 54.66 0 0 0 -2.5-15c-5.5 6.83-11 13.67-16.5 20.5-16.25 4.1-31.25 1.44-45-8-14.96-12.31-26.13-27.47-33.5-45.5-13.54-36.13-21.54-73.46-24-112-3.72-39.43-.06-78.09 11-116 11.98-38.13 35.15-67.13 69.5-87-6.72-58.96-13.05-117.96-19-177 11.89-.61 23.56-1.95 35-4z" fill="#fefdfd"/><path d="m3422.5 2556.5c1-.09 1.83.25 2.5 1 30.2 87.61 60.2 175.28 90 263 5.91 18.33 7.57 36.99 5 56-5.9 28.9-23.4 46.07-52.5 51.5-23.22 2.81-42.06-5.03-56.5-23.5-10.69-15.05-19.03-31.39-25-49-28.44-84-57.28-167.83-86.5-251.5 12.12-5.76 24.45-10.26 37-13.5 31.87 93.1 64.03 186.1 96.5 279 5.11 11.44 13.28 19.94 24.5 25.5 16.21 2.13 25.05-5.03 26.5-21.5.98-9.78.31-19.45-2-29-30.97-91.23-62.13-182.4-93.5-273.5.41-.95 1.07-1.61 2-2 10.87-3.94 21.53-8.11 32-12.5z" fill="#fefdfc"/><path d="m1999.5 2584.5c11 1.33 22 2.67 33 4-2.74 21.99-5.41 43.99-8 66-10.99-1.76-21.99-3.43-33-5 2.42-21.7 5.09-43.36 8-65z" fill="#fefcfb"/><path d="m1524.5 2610.5c27.66-1.27 46.83 10.73 57.5 36 4.93 13.74 7.09 27.9 6.5 42.5-.48 24.43-3.31 48.59-8.5 72.5a713.857 713.857 0 0 1 -42 131c-10.09 23.69-24.25 44.52-42.5 62.5-19.7 16.43-41.04 18.76-64 7-13.32-9.11-21.82-21.61-25.5-37.5-4.54-26.65-4.54-53.31 0-80 10.68-63.02 30.34-123.02 59-180 7.68-13.85 17.18-26.35 28.5-37.5 8.99-8.16 19.33-13.66 31-16.5z" fill="#fefdfd"/><path d="m3203.5 2630.5c7.39-.25 14.72.25 22 1.5.93.39 1.59 1.05 2 2-1.83 9.48-3.5 18.98-5 28.5-13.05-1.76-25.38.41-37 6.5-14.24 11.16-18.07 25.33-11.5 42.5 5.26 11.51 12.26 21.84 21 31 20.54 18.21 41.37 36.04 62.5 53.5 29.58 25.31 49.41 56.81 59.5 94.5 7.8 44.56-7.37 78.73-45.5 102.5-19.13 9.02-39.13 11.86-60 8.5-.33-.67-.67-1.33-1-2 1.9-9.65 3.73-19.32 5.5-29 12.72 1.13 25.22-.37 37.5-4.5 23.2-12.23 32.7-31.4 28.5-57.5-4.73-18.57-13.06-35.23-25-50a522.94 522.94 0 0 0 -68.5-64.5 438.085 438.085 0 0 1 -25.5-25.5c-19.84-22.19-28.51-48.19-26-78 8.78-34.96 30.95-54.96 66.5-60z" fill="#fefdfc"/><path d="m1528.5 2643.5c9-1.75 15.83 1.25 20.5 9 4.24 12.65 5.57 25.65 4 39-10.16 65.3-27.49 128.63-52 190-6.05 14.43-13.38 28.1-22 41-4.58 5.25-9.74 9.75-15.5 13.5-9.5 3.17-16.66.34-21.5-8.5a77.831 77.831 0 0 1 -4.5-26c1.86-30.55 7.03-60.55 15.5-90a773.402 773.402 0 0 1 46-132 118.872 118.872 0 0 1 21.5-30.5c2.57-2.09 5.24-3.92 8-5.5z" fill="#bc0201"/><path d="m1683.5 2659.5a385.79 385.79 0 0 0 34 7c-1.3 5.64-2.13 11.31-2.5 17l19.5-13.5c25.98-.76 44.82 10.4 56.5 33.5 7.38-7.27 16.21-11.77 26.5-13.5 37.99-2.98 61.83 13.85 71.5 50.5 1.9 16.32 1.9 32.65 0 49-17.74 90.71-35.74 181.37-54 272-.52 1.02-1.35 1.68-2.5 2-12.02-2.67-24.02-5.34-36-8 18.64-94.71 37.48-189.38 56.5-284 2.8-15.76.13-30.43-8-44-8.44-7.34-17.27-7.84-26.5-1.5-8.84 8.52-15.01 18.68-18.5 30.5-19.1 95.67-38.27 191.34-57.5 287-12.71-2.46-25.38-5.13-38-8 19.37-95.23 38.2-190.56 56.5-286 1.29-11.57.29-22.9-3-34-6.5-14.06-16.67-17.56-30.5-10.5-9.42 8.67-15.92 19.17-19.5 31.5-19 94.99-38 189.99-57 285-.39.93-1.05 1.59-2 2a283.894 283.894 0 0 0 -36.5-8c23.48-118.65 47.14-237.32 71-356zm652 89c1.76.96 3.76 1.29 6 1v31c-12.67-.27-25.34-.6-38-1-2.79-.98-5.79-1.31-9-1v9c-2.15 74-4.48 148-7 222-.26 12.74.58 25.41 2.5 38 4.95 25.76 20.45 36.43 46.5 32 .32 10.25-.01 20.42-1 30.5-45.32 6.34-72.82-12.82-82.5-57.5-3.05-17.53-4.55-35.2-4.5-53 2.63-74.01 5.29-148.01 8-222h-16c.19-10.67.52-21.34 1-32h18c-.14-23.36.53-46.69 2-70 11.99.58 23.99.91 36 1-1.26 23.65-1.92 47.31-2 71 13.33.56 26.66.89 40 1z" fill="#fefdfc"/><path d="m2933.5 2695.5c26.74-2.05 46.57 8.62 59.5 32 22.92 44.5 25.59 90.16 8 137-13.11 27.94-33.61 48.27-61.5 61a319.508 319.508 0 0 0 23.5 67c7.25 14.25 18.08 24.75 32.5 31.5 8.85 2.23 17.51 1.73 26-1.5 2.92 10.12 4.92 20.46 6 31-35.14 11.01-63.98 2.01-86.5-27-10.73-14.79-19.4-30.79-26-48-22.36-65.81-32.69-133.48-31-203 1.5-18.99 6.5-36.99 15-54 8.04-13.42 19.54-22.08 34.5-26z" fill="#fefdfd"/><path d="m1979.5 2718.5c11.97 1.64 23.97 3.14 36 4.5 1.16 1.01 1.82 2.34 2 4a34493.02 34493.02 0 0 0 -45 356.5c-12.99-1.75-25.99-3.42-39-5a59386.06 59386.06 0 0 1 46-360z" fill="#fefdfc"/><path d="m2939.5 2726.5c9.79-.39 16.62 3.94 20.5 13 15.89 36.55 18.73 74.05 8.5 112.5-5.32 18.99-16.82 32.82-34.5 41.5-10.58-45.03-14.91-90.7-13-137 .88-8.32 3.55-15.99 8-23 3-3.24 6.5-5.57 10.5-7z" fill="#bc0301"/><path d="m2124.5 2733.5c15.83-.43 31.17 2.07 46 7.5 3.66 1.5 7 3.5 10 6-4.55 8.95-9.72 17.45-15.5 25.5-12.48-6.44-25.65-8.61-39.5-6.5-14.17 6.16-21.5 16.99-22 32.5.87 15.12 4.71 29.46 11.5 43 13.33 24 26.67 48 40 72 12.09 22.94 19.76 47.27 23 73 2.78 24.56-1.22 47.9-12 70-24.48 37.94-58.64 51.11-102.5 39.5-8.2-2.1-15.53-5.77-22-11a376.38 376.38 0 0 1 16-27.5c18.49 12.4 37.83 13.9 58 4.5 12.34-7.83 19.84-19 22.5-33.5 1.65-17.93.32-35.6-4-53-10.46-30.25-24.12-58.91-41-86-10.83-19.33-19.17-39.66-25-61-5.79-26.66-.45-50.66 16-72 11.26-11.8 24.76-19.47 40.5-23zm310 12c42.28-4.81 67.12 13.52 74.5 55 1.06 10.31 1.73 20.64 2 31 1.31 93 2.48 186 3.5 279-11.68.02-23.34.35-35 1 .17-5.68 0-11.34-.5-17-5.5 6.17-11 12.33-16.5 18.5-8.31 3.28-16.64 3.28-25 0-14.67-6.33-25.83-16.5-33.5-30.5-18.48-36.14-25.48-74.47-21-115 3.06-40.55 16.73-76.88 41-109 12.84-15.52 28.51-27.18 47-35 1.81-12.21.14-23.88-5-35-6.37-8.84-15.03-12.51-26-11-3.83.17-7.67.33-11.5.5-6.69 1.51-13.35 3.01-20 4.5-.33-10.69 0-21.35 1-32 8.33-2.33 16.67-3.99 25-5z" fill="#fefdfc"/><path d="m2335.5 2748.5h7c.28 1.91-.05 3.58-1 5v-4c-2.24.29-4.24-.04-6-1z" fill="#d96b69"/><path d="m2759.5 2760.5c1.26 1.01 1.93 2.51 2 4.5 9.44 89.99 18.77 179.99 28 270-1.19 10.86-6.19 19.52-15 26-10.47 3.36-18.97.53-25.5-8.5-11.57-17.35-19.23-36.35-23-57-10.51-54.42-12.17-109.09-5-164 3.87-22.73 12.87-43.06 27-61 3.81-3.47 7.65-6.8 11.5-10z" fill="#bc0301"/><path d="m2303.5 2779.5h-8c.31 2.89-.03 5.55-1 8v-9c3.21-.31 6.21.02 9 1z" fill="#eab1b0"/><path d="m2469.5 2858.5h3c.83 67.01 1.67 134.01 2.5 201-2.87 7.91-7.37 14.75-13.5 20.5-8.55 5.49-16.05 4.33-22.5-3.5-5.34-8.35-9.34-17.35-12-27-7.32-39-7.32-78 0-117 5.03-26.23 16.53-49.07 34.5-68.5 2.57-2.09 5.24-3.92 8-5.5z" fill="#bc0401"/></svg>