<svg height="1109" viewBox="0 0 407.161 180.694" width="2500" xmlns="http://www.w3.org/2000/svg"><path d="m0 0h407.161v127.74h-47.566l-201.002 52.954-13.951-52.954h-144.642z" fill="#d40000" fill-rule="evenodd"/><g fill="#ff0" stroke-width=".064"><path d="m152.975 144.592.91 3.458 6.827-1.798 6.942 26.35 12.757-3.362-6.942-26.35 6.856-1.806-.91-3.457-6.857 1.806-12.757 3.36z"/><path d="m176.799 154.286c2.136 8.108 10.496 12.982 18.604 10.846 8.137-2.144 12.981-10.497 10.845-18.605-2.151-8.167-10.474-13.019-18.612-10.875-8.107 2.136-12.989 10.467-10.837 18.634zm21.78-12.91c.613 2.324-.762 4.727-3.057 5.332-2.325.612-4.706-.8-5.318-3.126-.605-2.295.778-4.668 3.103-5.28a4.328 4.328 0 0 1 5.273 3.073z"/><path d="m195.765 133.32.91 3.457 6.827-1.798 6.942 26.35 12.757-3.362-6.942-26.35 6.856-1.806-.91-3.457-6.856 1.806-12.758 3.36z"/><path d="m230.081 124.278-9.346 34.34 34.398-9.063zm10.576 19.21c.761 2.89-.93 5.79-3.79 6.544a5.328 5.328 0 0 1 -6.554-3.82 5.348 5.348 0 0 1 3.82-6.553c2.862-.754 5.77.967 6.524 3.828z"/><path d="m244.888 120.378 5.52 20.954 2.333 8.853 12.758-3.36 8.942-2.357-2.183-8.286-8.942 2.356-5.67-21.521z"/></g><g fill="#fff"><g stroke-width=".114"><path d="m56.26 62.204c1.474 0 3.181-.62 3.181-3.88 0-3.026-4.19-3.57-5.975-3.337-1.707.156-4.423.311-5.587.311-1.242 0-2.018-.543-2.018-1.474 0-.932.31-1.708 2.018-1.708l11.795-.081c1.862 0 3.647-2.328 3.725-4.268.155-1.94-1.397-4.5-3.337-4.734-13.657-1.241-34.453.31-34.453.31-2.25.233-1.32 1.398-.233 2.406 0 0 7.527 5.122 7.604 11.562.077 17.925-10.863 24.599-5.975 37.17 3.182 8.07 9.312 10.475 15.52 10.708 7.372.31 16.295-4.268 19.089-11.096 5.432-13.813-3.958-25.918-9.08-30.574 0 0-.387-.387-.232-.853.077-.466.699-.389 1.164-.466h2.794z"/><path d="m64.079 89.208c0 7.915 8.38 15.675 16.838 16.063 4.967.155 12.726-.31 16.684-2.794 6.208-3.88 10.708-11.019 6.673-17.925-3.336-5.587-12.648-.698-16.838.621-1.475.466-6.751 1.397-6.751-1.785-.078-2.716 2.483-1.707 5.276-.776 1.785.543 4.811-.387 7.217-1.474 4.19-1.94 7.604-5.354 7.604-9.777-.077-5.898-7.449-9.39-13.657-9.545-.776 0-1.63.082-2.483.155-14.588 2.406-20.64 14.977-20.563 27.237zm21.261-15.132c-1.319 0-2.483-.387-2.483-.853 0-.543 1.164-1.241 2.328-1.241 1.32 0 2.561.31 2.639.776 0 .543-1.32 1.319-2.484 1.319zm27.224-5.586s-5.82 14.976-5.82 23.977c0 5.044 1.164 11.795 8.225 11.795 5.82-.082 11.95-4.966 11.485-13.657-.155-4.268-2.483-12.649-2.483-12.649-.621-3.026-1.087-6.052 2.948-7.449 2.561-1.009 4.734-3.725 3.958-5.975-.854-1.94-3.57-2.25-6.13-1.552-2.949.698-2.639 3.026-4.346 2.716-1.396-.31-1.862-3.414-1.862-3.414l-11.174-.082c-.388 0-.698 0-.854.232-.077.31.466.698.466.698l5.587 5.355zm26.245 2.483s-9.933 19.554-6.363 28.556c1.241 3.103 4.889 5.664 8.303 5.742 3.492 0 7.294-2.483 9.001-5.587 3.182-6.208-.465-14.356-1.086-20.719-.31-2.405 1.397-5.51 3.647-5.82 4.035-.698 4.656 4.579 4.578 6.596-.077 3.88-4.656 12.26-.776 19.632 1.63 3.027 5.354 5.975 8.769 5.51 4.268-.621 9.855-3.492 8.535-9.7-1.552-7.682-7.682-22.038-7.682-22.038-1.397-3.414-2.87-7.682-10.32-9.467-3.26-.776-9.933 2.484-9.933 2.484l-2.328-2.872-9.234-.776 4.889 8.458z"/><path d="m176.593 62.36 3.181 4.345c1.397 2.017 1.397 2.017.621 3.88-2.638 5.742-4.423 12.726-5.51 16.993-.62 2.561-1.706 16.762 8.924 16.917 10.398.233 10.631-9.234 10.166-12.571l-3.958-28.944zm13.347-6.209c0-3.414-3.104-6.052-6.829-6.13-3.725-.081-6.75 2.561-6.75 5.898 0 3.336 3.103 6.052 6.828 6.13 3.724 0 6.75-2.638 6.75-5.898zm8.2 5.975 4.966 8.536c.543.931.31 3.88-.388 5.354 0 0-6.208 17.46-7.993 26.461-2.25 11.174 5.354 17.77 12.881 17.692 19.71-.155 15.287-19.71 15.287-19.71s11.097 2.096 11.64-14.743c.31-9.467-8.07-23.667-18.003-22.814-1.785.082-3.414 1.63-3.414 1.63l-2.406-2.328-12.57-.082zm23.667 20.486c-1.087 0-2.949-1.63-3.415-3.181-.31-1.164-.155-3.725 1.087-3.725 1.086-.082 3.026 1.707 3.57 3.57.465 1.862 0 3.336-1.242 3.336zm14.785-31.427 9.156 10.631s-9.544 15.83-10.01 24.831c-.776 14.666 4.268 17.615 11.407 18.236 7.061.698 14.355-5.82 14.821-14.977.62-9.855-7.605-28.478-7.605-28.478s.156-3.104-.077-4.733c-.388-1.708-1.784-5.277-1.784-5.277l-15.908-.232zm32.383 18.546c.466 2.25 2.25 3.88 4.578 4.268 2.018.387 6.83-1.94 6.83-1.94.93-.31 1.861-.232 2.172.931.233.853-.543 1.785-2.173 1.785-2.483.233-6.053-.466-9.234 1.397 0 0-8.148 4.267-8.07 12.027 0 4.5 4.345 16.994 20.64 16.917 7.76-.082 11.95-4.346 13.736-6.674 2.948-3.725 4.733-9.079 4.035-14.899-.699-6.75-3.492-12.027-6.674-15.364-4.5-4.889-10.398-6.518-15.209-6.518-2.949 0-5.432.698-6.984 1.552-2.793 1.63-4.035 4.035-3.647 6.518zm10.476 19.167c-2.018 0-3.492-.698-3.492-1.708 0-.853 1.474-1.552 3.492-1.629 1.086 0 3.725.543 5.897.232.544-.081 1.087-.465 1.32-.542.155-.156.465-.233.62-.233.233 0 .388.082.388.155.388 1.087-2.87 3.647-8.225 3.725zm29.705-16.684c0 4.656 2.328 6.674 6.674 9.079 7.371 4.19 13.424 1.397 12.105 4.423-1.707 3.958-7.76-1.009-12.416-3.181-6.052-2.872-11.407.081-12.57 4.19-.699 2.173-.699 4.578-.233 6.208 1.552 5.975 11.018 10.941 14.433 11.562 9.079 1.552 14.355 2.017 18.623-2.561 2.794-3.104 5.354-6.053 5.2-14.2-.078-7.295-5.665-10.942-10.321-12.571-3.182-1.242-4.113-.698-6.751-2.173-.931-.466-2.018-1.862-1.242-2.638.543-.621 1.475.387 2.095.931.466.388 1.63 1.009 3.182 1.009 2.638 0 4.423-1.32 4.888-1.785 2.794-3.182-4.19-9.777-9.7-9.7-8.923 0-14.044 5.355-13.967 11.407zm36.693-23.124c-1.94 0-2.018 1.242-1.164 2.173 0 0 5.665 5.276 5.587 8.846-.077 7.527-9.622 15.131-8.225 27.625 1.63 14.355 11.329 17.537 20.253 17.46 8.768 0 22.193-5.122 20.485-16.374-.465-3.026-3.181-6.596-7.449-6.053l-4.656.621c-3.181.466-3.802-2.793-3.88-3.57l-1.086-7.837h5.044c3.104-.155 6.518-.93 7.527-3.491.853-2.173-.388-5.2-2.638-6.519-3.492-1.862-12.028-1.164-12.028-1.164l-3.337-11.64-14.433-.081z"/></g><path d="m35.451 26.096a7.425 7.425 0 0 0 7.442 7.442 7.435 7.435 0 0 0 7.441-7.442 7.444 7.444 0 0 0 -7.441-7.441 7.435 7.435 0 0 0 -7.442 7.441zm25.26 0a7.425 7.425 0 0 0 7.442 7.442 7.435 7.435 0 0 0 7.441-7.442 7.444 7.444 0 0 0 -7.441-7.441 7.435 7.435 0 0 0 -7.442 7.441zm25.261 0a7.425 7.425 0 0 0 7.441 7.442 7.435 7.435 0 0 0 7.441-7.442 7.444 7.444 0 0 0 -7.441-7.441 7.435 7.435 0 0 0 -7.441 7.441zm25.26 0a7.425 7.425 0 0 0 7.441 7.442 7.435 7.435 0 0 0 7.442-7.442 7.444 7.444 0 0 0 -7.442-7.441 7.435 7.435 0 0 0 -7.441 7.441zm25.26 0a7.425 7.425 0 0 0 7.442 7.442 7.435 7.435 0 0 0 7.441-7.442 7.444 7.444 0 0 0 -7.441-7.441 7.435 7.435 0 0 0 -7.442 7.441zm25.26 0a7.425 7.425 0 0 0 7.442 7.442 7.435 7.435 0 0 0 7.441-7.442 7.444 7.444 0 0 0 -7.441-7.441 7.435 7.435 0 0 0 -7.442 7.441zm25.261 0a7.425 7.425 0 0 0 7.441 7.442 7.435 7.435 0 0 0 7.442-7.442 7.444 7.444 0 0 0 -7.442-7.441 7.435 7.435 0 0 0 -7.441 7.441zm25.26 0a7.425 7.425 0 0 0 7.441 7.442 7.435 7.435 0 0 0 7.442-7.442 7.444 7.444 0 0 0 -7.442-7.441 7.435 7.435 0 0 0 -7.441 7.441zm25.26 0a7.425 7.425 0 0 0 7.442 7.442 7.435 7.435 0 0 0 7.441-7.442 7.444 7.444 0 0 0 -7.441-7.441 7.435 7.435 0 0 0 -7.442 7.441zm25.26 0a7.425 7.425 0 0 0 7.442 7.442 7.435 7.435 0 0 0 7.441-7.442 7.444 7.444 0 0 0 -7.441-7.441 7.435 7.435 0 0 0 -7.442 7.441zm25.261 0a7.425 7.425 0 0 0 7.441 7.442 7.435 7.435 0 0 0 7.442-7.442 7.444 7.444 0 0 0 -7.442-7.441 7.435 7.435 0 0 0 -7.441 7.441zm25.26 0a7.425 7.425 0 0 0 7.441 7.442 7.435 7.435 0 0 0 7.442-7.442 7.444 7.444 0 0 0 -7.442-7.441 7.435 7.435 0 0 0 -7.441 7.441zm25.26 0a7.425 7.425 0 0 0 7.442 7.442 7.435 7.435 0 0 0 7.441-7.442 7.444 7.444 0 0 0 -7.441-7.441 7.435 7.435 0 0 0 -7.442 7.441zm25.26 0a7.425 7.425 0 0 0 7.442 7.442 7.435 7.435 0 0 0 7.441-7.442 7.444 7.444 0 0 0 -7.441-7.441 7.435 7.435 0 0 0 -7.442 7.441z" stroke-width=".022"/></g></svg>