<svg clip-rule="evenodd" fill-rule="evenodd" height="484mm" shape-rendering="geometricPrecision" viewBox="7586.799999999988 7582.800000000017 131698.80000000008 33324.399999999965" width="1468mm" xmlns="http://www.w3.org/2000/svg"><g stroke="#000" stroke-width="-.1"><path d="M48278.7 24090.5c-9-7.5-15-21.8-26.4-22.8-69-1.4-274 10.9-316.7-25.9-265.9 5-500.1-9-765.6-30.5-300.7-44.2-565.3-48.9-844.8-184.3-159.9-91.1-328-228.2-475.1-342.2-147.9-136.4-323.6-292.4-475.2-444-226.7-139.1-473.1-362.8-660-553.5-11.3-1.4-22.6-2.8-33.9-4.3-24.3-64.6-12.9-65.2-71.7-100.9-236.7-143.8-436-356.1-659.9-526.5-169.8-123-343.3-248.8-528-345.4-38.5-27.7-63.8-80.9-105.6-102.9-164.2-86.6-285.3-183.5-448.8-263.1-242.1-117.9-533.9-263.7-765.5-395.3-176.2-52.2-269.3-131.9-422.4-183.8-45.6-11.6-89.2-11-132-30.2-57.5-25.9-125.4-82-184.8-101.9-32.1-10.8-99.8-14.4-132-29.8-59.4-28.6-125.1-79.1-184.8-101.9-184.8-70.4-393.3-154.2-580.7-210.1-255.3-52.1-489.2-137.3-739.2-215.2-63.3-20.2-165.2-81.9-237.6-101.5-83.9-22.6-181-28.1-264-56.5-45.2-15.4-156.5-87.5-211.2-101-126-23.8-242.3-38.3-369.5-56.8-41.7-34.9-59.1-11.4-105.6-26.5-30.2-11.6-96.6-65.3-132-74.9-103.9-28.1-236.2-29.6-343.2-56.2-97.8-24.5-196-79.1-290.4-102.3-109-26.8-232.7-27.8-343.2-56.2-53.2-17.6-290.2-78.6-316.8-101.7-197.2-30.7-382.1-56.5-580.7-82.9-27.1-3.6-178.9-67.9-211.2-74.9-83.1-12.8-406-43-448.8-78.7-52.9-1-105.7-2.3-158.4-3.9-9-7.5-17.8-15.2-26.4-22.8-73.4-9.8-237.9-8.1-290.4-52.5-357.1-21.1-688.9-89.5-1055.9-83.2-8.9-7.4-17.7-14.9-26.4-22.5-96.9-1.1-193.7-2.4-290.4-3.8-62-32.3-265.7-64.5-343.2-74.7-622.7-57-1319.3-59.5-1953.5-57.4-8.9-7.2-17.7-14.4-26.4-21.7-598.5 0-1196.7-.5-1795.1 0-8.8 7.3-17.6 14.5-26.4 21.8-580.6-1.5-1143.8 41.2-1715.9 31.2-8.8 7-17.6 14.1-26.4 21.2-214.7-3.2-352.5 46.1-554.4 57.1-8.8 7.7-17.6 15.2-26.4 22.9-61.5 2-123.3 3-184.8 3.6-8.7 7.4-17.6 14.8-26.4 22.2-236.4-9.1-476.6 33.6-712.7 56.8-76.8 14.5-501.2 78.1-528 101.2-146.9 12-279.2-7.5-422.4 31.1-130.5 35.2-280.6 40.4-395.9 78.3-42.1 35-179.4 64.6-237.6 74.9-160.2 22.1-319.1 21.2-475.2 56.9-120.3 30-202.9 58.8-316.8 101-118.9 25.1-275.9 26.1-396 57.2-244.2 79.2-391 102.4-633.5 157-56.8 15.2-148.9 64.7-211.2 76.7-125.4-2.1-438.2 79.1-580.8 108.3-21.1 4.6-136.8 58.6-158.4 75.5-107.7 9.8-319.6 51.7-422.4 83-82.4 52.9-169 78.5-263.9 101-43.6 2.6-89.4-5-132 4.5-140.8 35.7-444.5 98.7-554.4 179.7-74.9 14.1-137 7.5-211.2 30.9-100.1 31.6-210.8 100-316.8 127.3-46.8 12-167.8 8.2-211.2 30.5-58.9 30.1-124.6 79.9-184.8 101.4-44 15.7-112.5 15-158.3 30.5-230.2 98.1-375.2 135.7-607.2 210.2-50.4 18-130.4 83-184.8 101.7-46 15.7-109.2 19.1-158.4 30.5-33.1 7.6-225 111.9-264 127.8-50.5 20.4-182.2 33.9-237.6 56.4-56.1 22.6-126.5 82-184.8 101.7-240.2 60.5-452.8 158.5-686.3 240.7-59.2 20.7-100.9 76.2-158.4 101.3-15.4 6.6-112.6 21.2-132 30.6-140.2 68.3-567.7 307.6-686.4 316.1l-686.3 342.1c-131.5 70.3-287.7 130.3-396 233.6-111.7 52.5-394.9 207.4-501.6 214.6l-264 154.7-158.4 55.5c-17.8 16.4-35.4 33.2-52.8 50.1-79.6 7.3-169.9 65.3-237.6 106.8-174.9 112.4-448.1 259.9-633.5 343.6-6.7 3-66.3 67.8-79.2 75.2-30 17-74.2 14.3-105.6 30.4-173.1 122.3-363.6 217-554.4 312.8-264.8 129.5-533.5 238.2-818.3 315.5-81.9 16-382 44.6-422.4 78.7-70.4.8-140.9 2.1-211.2 3.9l-26.4 22.9c-283.6-15.7-551.8-40.8-844.8-23.5-90.4 7.9-576.3 23.3-607.1 49.4-230.7-6.3-469.5 10.3-686.4 2-140-16.7-383.5-32.5-528-28.1-45.4-39-208.4-7.9-290.3-26.2-206.3-55.9-429.6-132.4-633.6-184.2-101.8-51.7-178.5-133.4-196.5-248.6 45-185.1 104-370.3 158.8-553.2 12.7-42.1 85.9-136.7 101.9-184.3 55.2-182.9 76.5-249.7 158.4-421.5 25.2-95.3 35.7-233.6 82.7-316.1 17.3-30.4 64.9-62.8 75.4-105.3 53.1-244.9 99.4-288.9 184.3-500.5 16.5-56.9 10.8-152.3 31-210.7 17.4-50.6 83.5-130.7 101.8-184.4 64.1-202.5 85.8-306.9 184.1-500.4 22-74.1 28.1-188.6 57.2-263.4 21.1-54.6 85.4-126.4 102.7-184.4 25.3-84.9 24.6-179.3 55.6-263.4 19.5-53.2 85.9-127.2 101.3-184.4 33.5-124.7 21.1-281.7 83.5-395.1 24.1-44 83.5-105.4 101.3-158 52.4-219.7 76.2-249.8 158.7-447.8 22-74.3 29.1-213.3 56.2-289.7 17.7-50.2 85.6-129.2 101.8-184.4 13.1-44.8 20.6-135.9 30.2-184.4 10.4-53 107.8-235.5 129.2-289.7 27.5-70 30.9-189 56-263.4 84.6-196.4 113.1-344.9 184.9-526.8 18.2-39.4 61.5-88.6 75.7-131.7 58.9-232 104-335.1 184.2-553.2 21.3-66.8 30.5-192.5 56.3-263.4 17.8-49.1 84.5-153.1 102.3-210.7 21.6-70.1 31.3-190.8 56.6-263.4 79.9-183 103.4-257 158.3-447.8 9.5-26.7 65.3-100 76.6-131.7 41.3-115.9 63.6-277.6 108.4-395.1 6-15.8 67.7-93.5 75.3-131.7 19.9-100.3 26.3-192 56.2-289.7 94.5-202.3 97.4-275 159.2-474.1 103.7-207.9 92.8-242 158.5-447.8 24.7-65.5 103.7-165.6 127.8-237.1 52.7-225.3 78.4-248.7 157.9-447.7 25.6-95.5 24.7-220.1 56.5-316.1 15.5-47.1 87.4-131.4 102.4-184.4 13.1-46.4 17.7-135.2 30.3-184.4 14.8-58.1 105.2-203.9 128.2-263.4 27.5-71.3 27.2-189.2 56.9-263.4 82-178.7 102-236.2 158.3-421.4 31.2-50.8 84-129.8 102.4-184.4 30.8-91.5 54.2-196 81.6-289.7 70-123.9 93.5-231.7 157.7-342.5 32.8-49.2 142.8-156.1 197.2-195.8 71.2-23 217.2-13.5 264-52 768.9-6.8 1534.4-30 2296.7-28.1 6203.3 5.6 12406.3.1 18611 2 8.7 7 17.5 14 26.4 21 3229.4.4 6458.9-1.6 9688.3 2.7 132.2.1 243.6 22.9 369.6 25 1509.3 25 3029.7-.9 4540.5 2.3 45.7 0 163.1 16.7 211.2 26.5 84.3 25 168.9 84.1 198.2 170.1 14.1 110.4-.6 231.1.9 342.4 1.1 82.3-10.8 267.1-29.9 342.4-91.1 256-136.9 356.4-184.5 632.2-4 18.1-55.8 89.2-75.3 105.4-28.4 98.6-44.5 194.5-82.8 289.7-73.7 153.7-106.2 199.7-158.3 368.8-62.8 106.9-128.1 204.3-184.4 316-17.1 33.9-160.1 155.1-196.6 170-74.5 20.6-280.8 21.3-316.8 51.8-1812.7 3.4-3625.4 1.1-5438.1 0-8.9-7.4-17.7-14.8-26.4-22.3-1944.8-.3-3889.4-2.6-5834.1-4.1-453.8-58.6-1012.4-22.1-1478.3-22.1-8.8 7.4-17.6 14.7-26.4 22.1-3080 3.5-6159.7 3.2-9239.5 4.1-8.8 7.5-17.6 14.9-26.4 22.3-2605.2.4-5210.7 19.8-7814 30.4-147.9 42.4-196.3 182.7-275.5 301-68.3 154.5-146.1 320.1-211.3 474.1-8.9 23.4-22.4 103.9-29.6 131.7-107.5 154.6-168.6 298.3-234.5 474.1-32 87.2-46.1 202-82.3 289.7-99.8 184.8-149.7 338.8-234.1 526.8-42.9 94.8-74.3 290.5-109.3 395.1-96.5 99.3-158.8 339-207.5 474.2-32.4 89.9-66 298.1-83.1 395.1-7.5 42.1-110.1 215.5-127.5 263.4-9.8 26.8-17.7 151.2-30.7 184.3-137.6 320.6-183.4 596.9-286.3 921.9 69.6 84.4 168 109.1 275 90.9 99.1-38.1 172-48.7 263.9-102.2 370.7-65.3 672-164.9 1029.6-267.4 15.6-4.4 108.1-69.7 132-74.9 125.7-27.3 241.9-30 369.6-57.1 124-59.9 263-89.4 395.9-127 91.6-24 270-30.2 369.6-57.1 75.4-20.5 184.2-83.3 264-100.9 68.2-15 197.7-7.3 264-30.5 331.2-131.6 779.1-211 1135.1-286.3 176.1-35.5 396.6-36.7 580.8-56.6 46.9-8.7 323.8-84.3 343.2-100.9 206.2-20.6 403.7-21.4 607.1-56.9 67.2-15.7 426-82 448.8-101.4 276.2 9.3 566.2-63.8 844.8-56.8 37.7-30.9 221.5-34 290.4-51.9.4-.2 25.7-23 26.4-23.1 87.5-15.7 414.5-24.2 448.7-52.2 308 9.2 611-5.2 924-30.9 66.4-11 449.7-79.3 475.2-101.1 261.7-.9 849.2 7.3 1082.3-52 387.2.3 774.3-7.6 1161.5-5.5 8.8-6.9 17.6-13.8 26.4-20.6 230.5 4.2 389.7-49.7 607.2-57.2 8.7-7.7 17.5-15.2 26.4-22.6 538.8-1.1 1358.5-72.7 1847.9-27.8 916 .5 1833.5 34 2745.5 27.8 184.7 46.4 462.5 24.3 659.9 25.2 30.2 17.2 98.3 48.5 132 50.2 185.4 2.9 369.6 3.1 554.4 4 8.7 7 17.5 14.1 26.4 21.1 158.3 2.5 316.7 4.3 475.2 5.4 231.4 50 577.9 57.1 818.3 52.2 152.9 49.4 413.3 76.8 580.8 101 132 10.1 263.9 3.3 396 4.8 159.4 43.7 402.4 29.3 580.7 52.1 60.2 35.3 291.6 91.1 369.6 101.1 260.2-1 514.3 65.4 765.6 56.9 61.9 38.3 264.2 87.2 343.2 101 107.2 3.7 319.4 13.1 422.3 30.9 49.5 41.3 170.8 33.7 237.6 51.7 67.1 29.9 138.5 64.2 211.2 76.2 170.1 22.3 331.4 38 501.6 56 32.6 28.4 63.2 24.2 105.6 26.3 28.3 26.3 101.6 73.7 132 76.1 162.2 12.8 374.9 36.6 528 82.2 215.5 76.9 285.5 85.6 501.5 131.4 81.6 25.4 235.8 102 316.8 127.9 66.2 21.2 242.2 30 316.8 57 71.3 25.8 160.3 74.5 237.6 101.4 38.3 13.2 193.8 23.9 237.6 29.9 31.4 4.3 276.4 115.5 316.7 127.9 52.2 16 155.4 13.9 211.2 30.8 227.9 93.6 363.8 149.4 607.2 209.8 22 27.1 77.1 61.6 105.6 75.2 27.2 13 151.4 22.7 184.8 31 100.1 40.5 177.5 66.5 264 127.2 64.5 26.7 171 28 237.6 56.5 222.7 95.8 415.6 179.6 633.5 286.4 55.7 21.5 154.1 29.3 211.2 55.9 23.4 10.9 126 86.6 158.4 101.8 52.3 21.6 129 42.6 184.8 56.8 22.3 27 74.5 69.2 105.6 76.3 316.6 109.5 547.6 291.5 871.1 397.3 119 74.6 303.1 146.3 396 233.8 56.8 31.2 149.7 58.7 211.2 82.3 155.1 121.8 298.3 222.4 475.2 312.4 16.1 6.8 35.1 3 52.8 4.4 144.1 125.3 201.7 102.9 343.2 183.6 232.1 156.6 499 276.5 712.7 444.8 47.6 28.6 103 46.3 158.4 52.5 94.9 10.6 204.1-15.5 290.4-53.3 252.7-116.1 873.3-401.6 1056-576 88.9-41.3 182.8-55.1 263.9-108.3 128.6-81.1 284.7-131 396-233.8 63.7-25.6 117.5-40.2 184.8-56.5 15.5-16.9 110.9-92.4 132-101.6 59.9-26.5 123.5-30.6 184.8-55.9 59.8-24.9 102.2-72.1 158.4-102 18-9.7 159.9-42.2 184.8-55.4 305-170.4 628.2-309.6 950.3-445.4 33.4-13.9 120.3-19.8 158.4-29.2 225.9-92.8 345.2-139.5 580.8-211.1 181.2-93.8 359.8-141.3 528-233.3 23.1-12.9 153.1-33.2 184.7-30.7 114.1-52.5 249.1-101.3 369.6-153.4 99.3-18.2 256.2-41.4 343.2-83 41.4-19.8 86.8-61 132-75.4 73.1-23.3 211.8-34 290.4-56.7 202.1-67.6 317.4-110.2 528-158 105.2-39.3 206.8-100 316.7-127.6 22.9-5.8 103.6.5 132-4.4 297.4-86.5 516.8-141.5 818.4-210.2 73.6-19.6 186-82.6 264-101.6 73.4-17.8 186.4-17.9 264-30.6 64.5-10.6 300-110.4 369.5-126.8 120-28.5 322.6-27.3 448.8-56.5 10.4-2.5 113-71.4 132-76.4 43-5 71.5 3 105.6-26 195.3-19.6 384.3-36.1 580.8-56.7 22.1-2.6 136-57.2 158.4-74.6 88.2-11 456.8-42.3 501.5-78.7 70.3-1.2 140.8-2.7 211.2-4.5 39.7-32.3 84.1-14.9 132-25.6 14-3.7 86.6-46.9 105.6-49.8 44.6-2.8 88-2.1 132-3.2 8.7-7.6 17.5-15.1 26.4-22.3 227.4 9.1 478.5-44.7 712.8-57.3 60.5-9.6 368.2-76.8 396-100.7 365.6-53.5 789.1-24.1 1161.5-83.6 56.7-13.5 227.3-43 264-74.5 217 2.5 732.1 5.7 923.9-52.2 272.8-.7 545.5-4.2 818.4-5.4 48-38 125.8-14.1 184.8-25.1 7.3-1.7 91.5-48.7 105.6-49.2 154.5-1.5 563.5 21 686.3-26.2 1379.7-6.4 2803.9 57.5 4171 26.2 76.4 34.3 350.8 64.2 448.8 74.3 211.6 8.6 422.3 3.7 633.5 5.3 212.2 47.8 544.3 57.6 765.6 52.1 73.5 36.3 401.1 88.4 501.6 101.2 264.8 3.4 554.1 39.9 818.3 56.8 8.8 7.4 17.6 14.9 26.4 22.5 61.4.2 123.3 1.8 184.8 3.9 26.9 23.6 241 68.8 290.4 74.8 155.3 2 564.8 26.8 712.8 57.1 70 38.3 298.5 76.2 396 101 75.7 19.1 363 17.3 448.7 31 182.3 43.7 321.8 76.5 501.6 127.3 178.4 18.9 352.7 18.4 528 56.8 60.1 13.2 170 85.7 237.6 101 269 49.7 373.7 75.3 633.5 158.2 119.3 29.1 273.3 27 396 56.6 266.4 86.7 419.3 120.2 686.4 184.3 63.6 20.5 163.9 83.3 237.6 101.2 98.5 23.8 242.9 28.8 343.1 57 17 4.8 107.7 67.8 132 75.1 232.9 61 332.1 94.3 554.4 184 99.6 27.5 216.4 25.5 316.8 57.2 165 79.7 227.2 98.7 396 157.8 57.9 24.5 124.3 83.3 184.7 101.8 85.9 26.4 178.6 25.3 264 56.2 63.2 22.8 170.2 99.7 237.6 127.6 35.4 14.7 120.5 14.6 158.4 30.4 169 87.6 227.6 96.1 396 158 96.2 44.1 191.3 115.2 290.4 153.6 22.7 8.8 104.5 23.4 132 30.3 168.8 102.6 351 192.9 527.9 286.3 3.1 1.6 121.2 26 132 30.1 38.6 16 101.6 66.4 132 101.9 210.9 63.1 327.8 184.9 554.4 240.5 110 120.8 207 115.1 343.2 184.2 12.3 6.8 61.2 65.8 79.2 75.6 133 72.2 289.7 136.4 422.4 213.5 15.1 8.7 59.7 65.7 79.2 76.6 166.1 77 201.3 120 343.1 210.2 55.4 28.8 131.9 47.9 184.8 82.9 95.1 63 196.5 148.4 290.4 208.3 142.9 70.3 208.6 89.1 369.6 81 99.7-20.1 193.6-24 290.4-56.4 153.4-68.9 200.1-105.6 369.6-158 244.6-142.3 487-243.6 739.1-367.3 114.8-111.8 378.2-239.1 528-313.2 114.5-55.2 380.5-176.9 475.2-237.3 84.3-43.4 171.6-58.7 264-83 13.8-16 112.6-92.7 131.9-101 41.7-18 141-36.4 184.8-56.6 45.5-21 108.4-80.9 158.4-102 247.3-51.6 528.2-233.2 765.6-341.9 29.2-13.2 125.7-16.4 158.4-30.8 59.1-26.1 126.7-75.8 184.8-102 254.7-34.2 494.5-163.5 739.1-240 22.5-26.9 75.7-65 105.6-75.1 188.9-58.2 265.7-66 448.8-158.5 231.1-59.5 434-159 633.6-209.9 110.4-14.7 164.9-22.8 264-56.4 24-8.2 101.4-67.4 131.9-75.4 97.2-25.6 218.7-25.7 316.8-57.4 45.9-15 132.5-87.6 184.8-101 266.3-52.3 435-117.1 686.4-184.6 66.2-15.2 169.9-10.1 237.6-30.1 117.1-34.6 249.1-99.4 369.5-127.3 273.5-39.2 402-87.1 660-158.6 73.4-17.9 186.4-17.8 264-30.5 79-13.1 287.9-109.4 369.6-127 157.3-33.8 387.8-34 554.4-57.3 50.3-11.1 204-46 237.5-75.4 202.3-34.9 474.5-26.4 660-82.5 57.4-19.6 199.9-41.9 237.6-74.9 292.8-39 611.2-28.4 897.5-82.8 54.7-12.9 262.9-51.3 290.4-75.2 135.2-2.7 242.3-40.5 369.6-52.4 214.9-10.2 427.2-41 633.6-30.5 50.8-42.3 169.7-31.8 237.6-52 10-6.2 17.6-15.6 26.4-23.4 52.8-1.9 105.4-3.1 158.4-3.6 8.5-7.6 17.4-15.1 26.4-22.5 156.2 2.2 552-1.8 686.3-52.2 158.4-1.3 316.8-3 475.2-5 8.7-7.2 17.5-14.4 26.4-21.4 335.2.4 624.5-68.9 950.3-80.5 221.6 4.7 277.4 3.8 434.6 170.4 6.9 285.5-45.7 514.4-54.6 790.2-41.5 52.6-14.3 146.2-25.7 210.7-8.1 36.8-66 141.8-75.1 184.4-5.5 54.2 9.2 115.1-26.1 158 3 242.5-52.6 445.8-57.7 684.8l-21.6 26.4c7.5 145.4-69.9 307-110 447.8-8.8 29.4-64.8 96.7-90.2 117.1-45.5 3.2-149.6 51.4-158.4 52.6-85.2 11.2-402.2 38.7-448.7 79-203.7 11-369.3 56.1-580.8 56.5-8.8 7.2-17.6 14.4-26.4 21.7-96.9 1.1-193.7 2.7-290.4 4.6-36.3 29.7-243.2 32.8-316.8 52.3-32 12.2-101 43.9-132 48.8-240.3 37.8-535.3 29.4-765.5 83.4-55.4 45.2-189.3 34.2-264 52.2-57.7 15.5-147.3 63.8-211.2 74.9-100.2 17.2-215.2 10.2-316.8 31-68.1 18.6-392.1 100.9-422.4 126.9-27.9 10.8-252.3 26-290.3 31.3-264.3 71.4-437 128.5-712.8 183.6-72.7 18.9-187.3 83.3-264 102-115.8 28.1-252.7 21.7-369.6 56.4-58.4 17.2-169.7 85.3-237.5 101.8-108.6 26.5-233.9 23.6-343.2 56.1-97.7 29-213.8 99.4-316.8 127.8-59 16.3-150.4 11.4-211.2 30.3-87.5 27.3-199.8 97.9-290.4 127.5-71.1 23.1-214.3 32.4-290.4 56.5-204.3 87.2-377.2 109.6-554.3 184-57 29.1-125.4 82.4-184.8 102.1-314.5 75.1-588 243.4-897.6 345.9-51.1 15.9-179.7 105.8-237.6 128.1-56.2 21.5-153.5 30.6-211.2 56.5-44.4 19.8-110 80.7-158.4 101.4-15.8 6.7-111.9 21.1-132 30.3-230.9 105.9-458 226.5-686.3 342.6-131.9 68.2-288.6 130.9-396 233.4-63.1 31.8-143.5 61.4-211.2 82.2-217.5 179.3-688.7 427.3-950.3 576-78.8 7.8-175 61.7-237.6 109.1-323.3 236.5-651.5 470.3-976.8 707.6-24.3 17.3-130.8 56.5-158.4 82.3-174.7 173.3-372.5 313.8-580.7 444.3-194.4 75-408.7 231.6-607.2 315.9-48.9 13.5-91.8-7.6-132 26.9-166.1 27.4-354 27.5-528 30-8.8 7.4-17.6 14.7-26.4 22.1-613.8 4.1-1240.1 42.8-1847.9 26.6-304.3-57.2-709.4-36.6-1029.5-53.1-62.8-7.3-225.3-71.2-290.4-78.6-67.1-48.4-219.9-89.1-290.4-131.8-254.4-168.6-546.5-438-765.5-654.5-332.3-238.8-605.3-490.9-924-737.7-35.2-26.4-170.4-78.8-211.2-108.5-273.2-213.8-494.2-390.8-791.9-576.8-256.6-112.3-544.3-306.4-792-447.8-52.3-29.8-158.3-49.8-211.2-81.4-115.7-68.7-306.8-150.6-396-234.8-166.1-72.2-306.5-165.6-475.1-236.1-181.1-77.2-310-136.3-501.6-188.3-49-24.1-105.6-80.2-158.4-101.4-98.7-32.3-191.6-55-290.4-83.2-22.5-27.5-75.3-65.2-105.6-75-205.8-53.1-346.2-133.3-528-184.8-91.8-19.4-176.3-25.7-263.9-56.2-46.2-16.1-156-85.8-211.2-101.3-43.8-12.2-166.1-14-211.2-30.6-307.6-126.2-632.5-213.7-950.4-311.4-45.7-13.8-182.2-12.5-237.5-30.8-39.9-13.2-117.7-62.8-158.4-75.1-156.8-47.7-391.9-62.7-554.4-108.5-24.1-6.8-121-71.5-158.4-75.8-169.7-19.5-394.3-38.6-554.4-83-26.1-22.9-264.2-87.4-316.8-101.6-81.8-19.3-229.5-13.2-316.7-30.5-55.4-15.4-320.1-81.3-343.2-101.3-235.1-42.7-514-31.1-739.2-83-70.9-34.1-336.9-91.6-422.4-100.8-250.7-2.1-562.3-39.8-818.3-57.1-115.5-51.9-436.5-81.6-580.8-101.3-498.9-54.5-1098.4-59-1610.3-57-8.9-7.3-17.7-14.5-26.4-21.8-862.4-7.7-1724.8-2-2587.1 0-83.1 39.4-316.3 24.6-422.3 26.4-8.8 7.3-17.6 14.5-26.4 21.8-220.1 1.3-440.1 2.6-660 4.9-48.8 39.3-171.4 16.2-237.6 26-12.2 2.2-116.6 48.4-132 48.2-348.9 7.4-670.1 77.8-1029.5 83.8-193 23.2-647.4 92.7-818.4 153.4-98.2-3.9-276.1 12.2-369.6 30.5-121.8 27.8-203.1 59.9-316.7 101.1-141.5 28.7-303.3 34-448.8 57.2-343.5 70.8-649 169.7-976.8 285.4-102.8 25.4-238 29.4-343.2 56.4-71.8 18.4-188.2 81.4-263.9 101.5-104.9 27.7-236.7 24.9-343.2 57-97.8 29.3-212.9 99.9-316.8 127.3-16.6 4.3-85.6-3.7-105.6 3.9-159 52-315.7 102-475.2 154.5-47.3 13-135.9 13.3-184.8 29.9-78 26.6-135.7 74.3-211.2 102.2-112.1 41.4-255.4 65.3-369.5 108.5-29 10.8-98.2 63.3-132 75.7-59.7 21.7-172.6 40.4-237.6 55.8-151.7 70.4-251.9 99-396 157.9-254.8 144.4-487.7 252.2-765.6 342.8-47.3 22.4-107.3 79.1-158.3 101.3-14.7 6.3-111.8 23.7-132 30.4-32 10.6-176.8 112.6-211.2 128.4-9.8 4.5-117.6 21.2-132 30-100.6 61.2-209.4 134.5-316.8 180.1-16.7 6.1-35.3 2.3-52.8 3.8-14.7 16.4-111.8 93.6-132 102-56.6 23.5-105.1 29.1-158.4 56.5-195.7 152.1-400.1 210.3-607.2 342-141.6 142.6-450.9 317.6-633.5 417.7-33.8 17.9-68.6 18-105.6 30.4-12.5 4.1-139.5 111.8-158.4 127.8-236.3 97.9-442.1 266-660 398.8-106.4 62.8-235 191.7-343.2 260.4-202.4 132.5-407.1 313-633.5 397.5-26.9 23.5-47.4 59.8-79.2 76.9-117.5 63-194.6 118.4-316.8 183.4-283.5 126.1-553.6 214.3-844.8 315.8-155.7 12.8-254.3 57.7-422.3 56.8-8.9 7.3-17.7 14.7-26.4 22.2-70.5 1.1-140.9 2.4-211.2 3.9-59.4 50.8-153.9-10.7-211.2 49.4-272.9 6-545.6 4.9-818.4-.5zM120426.1 24037.6c-218.8-48.4-564-58-792-52.5-9-7.3-17.8-14.7-26.3-22.1-160.8 0-187.1-39-316.8-55.9-113.3-80.7-453.6-201.7-580.8-290-224-155.5-471.3-441.4-686.4-629.4-149-130.3-334.6-307.3-501.5-421.8-215.2-147.5-422.8-339.5-633.6-500.6-157.4-115.6-334.8-229.7-501.6-342.4-28.1-10-54.5-13.4-79.2-29.4-182.8-173.5-661.5-448.3-897.5-576.4-285.2-147.4-571.7-311.6-871.2-423.5-51.2-31.1-102.8-79.4-158.4-104-62.8-27.7-157-38.2-211.2-80.8-37.5-29.4-59.8-60.6-105.5-75.9-196.3-39.3-318.9-140.3-501.6-209.9-21.9-7.8-136.4-12.7-158.4-30.8-36.4-30.1-62-60.5-105.6-75.5-212.7-66.4-322.5-82.9-528-184.6-100.9-19.3-255-39.4-343.2-81.9-41.5-20-86.5-62.2-132-75.1-90-25.4-249.1-29.4-343.1-57.1-30.2-8.8-169-91.1-211.2-101-128.9-23.8-238-38.3-369.6-57-41.3-34.1-60.2-11.3-105.6-25.9-30.2-11.7-96.2-66.7-132-75.3-137.6-25.1-257.2-39.9-396-56.9-41.8-34.6-56.4-10-105.6-26-29.7-11.5-97.4-64.4-132-75.9-103.7-34.4-387.3-64-501.5-82.1-115.4-42-195.7-69.7-316.8-102.2-145.6-26.1-276.2-37.1-422.4-55.8-98.5-54.1-353.2-102.3-475.2-127.5-109.9-21-284.1-2.8-395.9-31-203.9-64.2-469.5-102.9-686.4-156.3-85.6-82.7-136.2-188.7-170-302.4-31.4-146.7-28.3-292.5-25.8-447.8 34.7-42.1 24.7-224.3 26.2-289.8 34.1-58.3 85.8-312.9 101.3-395.1 15.6-99.6 8.1-244.9 31-342.4 43.7-171.1 111.6-338.6 183-500.4 115.7-201.2 166.3-267.9 355.9-406 140.7-4.4 281.5-4.4 422.3 0 75.8 38.4 273.6 24.7 369.6 26 8.8 7.4 17.6 14.9 26.4 22.6 144.3 10.2 242.9 57.2 396 56.8 8.6 7.3 17.5 14.6 26.4 21.8 213.9-8.3 470.7 37.3 686.4 56.8 47.7 40.2 98.2 11.7 158.3 25.7 60.9 17.7 143.2 66.7 211.2 75.5 164.6 14.7 309.9 21.2 475.2 30.7 37.1 30.9 218.1 29.1 290.4 52.3 68.1 25.5 137.4 67.7 211.2 74.8 192.7 18.4 368.9 20.6 554.4 57 55.8 11 199 88.1 263.9 101.6 134.9 27.9 285.7 25 422.4 56.6 66.9 15.4 190.9 87.8 264 101.6 153.1 28.8 331.3 30.3 475.2 82.6 71.3 25.8 156.9 84 237.6 101.4 127.1 22 244 36.4 369.6 57 60.1 59.8 129.5 81.5 211.1 101.4 106.2 21.2 212.6 25.1 316.8 56.5 47.3 14.3 157.7 84.3 211.2 100.8 54.6 16.8 154.3 11.7 211.2 30.7 221.3 84.7 362 118 580.8 183.7 53.6 20.5 127.3 84.4 184.8 101.8 86.7 26.1 177.9 25.8 263.9 57.1 51.1 18.5 129.8 83.3 184.8 101.7 92.5 31.1 199 44.4 290.4 81.9 54.2 22.2 126.4 82.5 184.8 101.8 53.3 17.7 182.1 33.1 237.6 56.1 169.8 88.6 227.1 96.4 396 158.9 22.6 10.4 125.4 88.4 158.4 101.1 23.1 8.9 107.3 15.6 132 29.8 334 181.2 672.7 305 1003.1 497 17.8-2.4 95.1 22.2 105.6 29.3 52.3 35.3 101.4 75.2 158.4 103.2 43.7 21.3 113.2 30.7 158.4 55.4 229.3 141.3 464.7 270.6 686.3 418.2 59.6 12.8 108.5 24.3 158.4 56.5 20 12.8 55.5 63.1 79.2 75.7 85.3 45.2 179.3 64.4 264 108.6 11.1 5.7 62.8 66.5 79.2 75.9 68.4 38.2 158.4 102.8 237.6 108.4 41.3 48 159.4 99.6 211.2 131.5 38.2 23.6 66.2 79.3 105.6 102 34.2 19.7 121.9 31.5 158.4 56.5 113.6 77.6 201.8 179.8 316.8 259.3 258.4 112.7 586.6 356.6 818.3 530.6 285.8 252.3 603.5 485.7 871.2 737.6 275 258.8 556.6 516 803.7 801.7 120.3 154.1 233.7 312.7 343.9 474.1 64.9 93.7 123.5 206.1 183.4 316 65.5 150.8 166.5 397.9 106.3 553.2-16.5 17.8-129.2 113.9-143.8 116.5-42.8 4-72.2-2.6-105.6 26.1-85.7 6-430.6 15.5-475.2 52.4-184.9 3.1-855.2-24.4-976.7 26.7-783.3.6-1566.3 5-2349.5-.1zM99254.4 40859.1c-33.3-2.5-15.7-39-13.4-65.6-48.4-.8-97.9 7.6-145-2.9-2.4-.6-94.7-48.6-105.6-49.9-58.6-3.4-139.4 12.3-184.7-25.5-430.1 10.7-863.9-63.1-1293.6-57-36.4-30.8-182.3-58.8-237.6-74.7-59.9-7.2-138 12.7-184.8-26.4-246.5 8-490.1-66.9-739.1-56.9-65.5-35-306.9-82.5-396-101.3-190.3-25.1-366.9-37.7-554.4-56.5-64.2-33.4-285.7-81.4-369.5-101.3-230-30.9-434.7-74.8-660-109.3-.2 0-124.8-48.2-132-49.2-144.5-20.1-278.6-26.4-422.4-56.7-35.6-7.6-144.5-63.2-184.8-75-181.8-50.6-366.3-97.6-554.3-109.2-95.3-32.1-189.5-79.9-290.4-101-119.4-24.9-251.6-22.2-369.6-56.9-28-8.3-119.4-66.3-158.4-75.1-103.6-23.3-213.8-29-316.8-56.6-75.1-20.2-186.2-80.1-264-102-65.9-13.6-159.2-7.2-211.2-52-35.2-1.6-72 6.2-105.5-4.5-313.7-98.7-591.2-196.8-897.6-312-52.2-13.2-132.1-12.2-184.8-30.2-56.4-19.2-152.1-79.5-211.2-101.7-70.2-26.3-165.5-29.7-237.6-56.2-52.7-19.5-129-83.3-184.8-102.2-64.2-21.7-147.9-28.9-211.1-55.9-169.1-87.7-224.9-97.1-396-157.7-42-18-111.7-84.4-158.4-102.1-71.7-27.1-205.6-34.8-264-82.6-229-154.2-689.6-368.5-950.3-474.1-13.6-15.7-113.2-94.3-132-101.8-51.4-20.4-110.7-26.9-158.4-55.3-340.6-190.6-644.5-381.5-976.8-577.4-80.6-7-167.4-69-237.6-108-88.1-49.2-230.1-174.2-316.8-233.9-88.7-61.2-244.7-133.7-343.1-187.2-165.8-124.7-285.6-179.4-448.8-286.7-186.8-95.4-396.8-154.1-607.2-159.6-197.2 22.4-307.1 100.3-475.2 133.5-116.1 78.8-222.9 160-343.1 233.8-70.7 40.1-132.9 58.1-211.2 82.5-143.3 120.6-312.2 197.3-475.2 287.2-253.2 119.6-591.6 314.3-844.8 397.4-42.5 45.9-79.2 76.7-132 101.3-166.3 56.8-194.7 79.2-343.1 158.1-192.2 41.9-390.3 146.8-580.8 214.6-30.3 10.7-121.4 87-158.4 101.6-192.4 57.9-197.1 67.8-369.6 157.9-75.6 31.5-210.1 51.3-290.4 83.2-4.1 1.5-44.9 44.9-52.8 49-131.5 61.2-286.9 87-395.9 183.9-395.8 121.2-764.3 280.3-1161.6 398.7-57.6 24.2-123 91.7-184.8 101.7-274.8 44.3-776.1 247.5-1029.5 342.3-27.9 10.4-174 17.1-211.2 30.7-88 32.4-174 76.4-264 101.8-121.5 34.3-272.1 46.9-396 82.1-77.2 21.9-183.4 81.1-263.9 102-96.7 24.9-218.5 28.8-316.8 56.4-265.7 96.5-498.3 154.1-765.6 233.9-289.6 70.8-523.3 93.2-818.3 183.6-201.6 34-403.7 55.1-607.2 83.1-29.5 4-177.6 66.7-211.2 74.7-120.1 28.9-272.9 26.9-396 57.1-57.1 18.7-200.1 41.7-237.6 74.8-89.2 10.9-455.5 40.9-501.5 78.8-61.6 1.1-124.3-6.7-184.8 4-63.7 15.7-403.7 85.5-422.4 101.5-208.4 20-402.5 24.7-607.2 56.5-147.2 26.1-233.2 54-369.6 101.5-490.4 53.4-1065 31.4-1557.5 82.5-82.9 24.7-145 28.1-145 118.5-163 1.9-325.7 13.3-488.5 14-1876.6 7.9-3760.6 13.7-5636.6-13.9 0-104-81-66.3-171.1-118.3-91.6-4.9-564-17.2-607.2-51.5-260.8-3-549.4-22.3-792-31.1-33.6-1.2-96.1-42.8-131.9-48.9-73.9-10.4-237.1-8-290.4-52.4-252.6-9.2-483.1-55.6-739.2-57.1-9-7.4-17.8-14.9-26.4-22.4-52.8-1.5-105.6-2.7-158.4-3.6-8.9-7.6-17.7-15.3-26.4-22.9-66.9-11.1-187.1-10.1-237.6-51.8-221.8.7-394-46.2-607.1-56.7-60.9-35.8-261.1-80.6-343.2-101.5-86-19.5-227.7-6.9-316.8-30.9-68.7-22.9-338.4-73.9-369.6-101.1-187.7-28.1-366.7-55.2-554.4-82.9-191-63.1-356.4-112.2-554.3-153.7-31.2-6-98.5 5.1-132-4.5-78.9-22.9-182-81.2-264-101.6-141.3-35.3-306-46.3-448.8-82.1-216.5-83.6-369.9-97.6-580.8-158.7-34.8-11.4-114.4-63.4-158.3-75.1-88.6-23.6-202-27.8-290.4-56.3-101.4-32.6-211-97.9-316.8-127.9-83.8-23.7-210.4-16.5-290.4-56.7-283.3-142.4-653-195.2-950.3-315.8-55.8-22.7-127.1-81.2-184.8-101.6-63.5-22.4-175.2-26.5-237.6-56.8-205.4-98.2-402.3-183.2-607.2-285.5-20.7-8.3-108.3-19.2-132-30.1-77.8-36.1-157.6-94.9-237.6-128.3-17-7.1-109.6-24.4-132-30.3-131.7-84.3-236.9-154.5-395.9-184.3-58.3-38.2-98.4-70.7-158.4-101.2-51.2-23.2-129.6-43-184.8-56.8-216.6-137.3-604.7-254.7-765.6-417.3-76.5-7.3-193.8-68.5-264-109-117.2-67.6-224.9-164.5-343.2-233.6-255.8-91.3-396.8-251.6-633.5-346.3-13.7-4.7-136.4-115-158.4-128.2-46.9-28.1-135.9-53.7-184.8-82.4-33.7-19.8-99.5-82.5-132-101.8-119.6-69.4-290.9-191.5-422.4-214.7-63.9-59.2-76.2-77.5-158.4-102.8-1.1-.4-157.3 1.2-158.4 1.9-110 69.7-255.2 121.9-369.5 183.4-121 115.5-227.3 154.4-369.6 234.2-149.5 85.5-370 148.6-528 240.1-138.3 78.8-335.9 155.7-448.8 260.1-328.7 122.6-682.4 349.3-1003.1 501-217.1 76.9-521.8 238.8-739.2 342-168.7 36.9-221.1 90.1-369.6 157.6-33.1 13.8-122.7 14.7-158.3 30.8-204.6 94.3-405 189.8-607.2 285.3-29.3 8.3-131.5 14.1-158.4 30.4-51.6 31.1-129.8 82.1-184.8 101.6-246.8 48-569.5 184.3-818.3 267.2-84.7 80.6-445.6 185.3-580.8 234.3-92.9 33.5-245.7 45-343.2 81.3-41.8 15.5-109.2 64.2-158.4 76.3-130 31.8-264.3 54.7-396 82.4-22.7 4.7-131 66.6-158.4 75-249.1 68-436.4 94.8-686.3 184.1-110.1 13.7-317.9 52-422.4 83.2-2.8 3.5-77.2 48.3-79.2 49-252.5 62.4-487.4 118.9-739.2 184-167.1 25.2-332.4 82.7-501.5 82.7-58.4 34.9-264.1 83-343.2 101.3-164.8 24.9-312.1 37.8-475.2 57.1-64.1 35-306 80.5-396 101-39.7 8.4-140.4-6.6-184.8 4.9-72.6 22.9-337 72.6-369.5 100.9-390 61.8-778.1 113.4-1161.6 184.1-278.7 7.3-538.6 66.2-818.3 83.3-51.3 43.4-191.5 30.1-264 52.2-10.2 5.7-17.6 15.2-26.4 22.7-114.4 2.6-228.8 4-343.2 4.7-8.8 7-17.6 14.1-26.4 21.1-326.3-3.7-651.7 29.5-976.7 57.3-88.8 14.2-197.5 18.7-197.5 118-1756.3 37.5-3523.7 15.7-5280.5 0v-89.7c-47.1-2.1-84.1 2.6-119.7-29.7-225-3.3-417.8-29.8-632.4-51.1-176-10.9-352-4.3-528-4.8-52.4-41.6-146.6-14.5-211.2-25.3-1.9-.5-95.5-48.4-105.6-50-73.9-9.3-237-7-290.4-51.9-198.3-19.9-381.3-37.5-580.7-56.3-58.8-34.1-287.8-82.7-369.6-101.7-143.4-29.6-328.5-24.6-475.2-56.3-86.1-18.7-177.5-81.5-264-101.7-83.1-19.4-229.1-10.8-316.7-30.5-153.1-35.3-304.8-64.8-448.8-127.4-134.7-21.2-261.2-38.8-396-56.5-65.3-35.4-312.6-108.5-396-127.5-308.9-27.9-620.4-136.7-923.9-215.2-47.8-12.6-176.2-86.5-237.6-100.9-21.5-5.1-82.4 3.8-105.6-4.7-137.1-45.1-257.2-78.2-396-128-134-34.4-288-44.2-422.4-82.4-71.8-20.5-162.2-79.9-237.6-101.1-85.2-23.9-204.2-30.1-290.3-56.9-296.8-91.6-555.1-177.4-844.8-286.2-51.4-13.1-133.8-9.2-184.8-29.2-87.2-34.3-193.4-109.1-290.4-128.7-61.8-12.6-125.6-8.2-184.8-30.5-54.9-20.6-127.7-82.6-184.8-100.9-254.2-82.9-480.2-167.9-739.1-241.3-58.4-27.3-124.6-81.5-184.8-102.2-64.1-22.2-175.2-24.4-237.6-55.6-183.1-89.8-368.8-169.8-554.4-259.9-53.6-21.4-155.7-31.2-211.2-55.4-169-88.9-228.7-96.2-395.9-159-96.2-44.4-190.4-117.6-290.4-153.6-21.6-7.8-135.7-12.6-158.4-30.7-62.6-50.1-89.5-71.7-158.4-102.1-12.6-5.6-115.4-20-132-29.7-291.2-159.6-771-410.3-1082.3-500.5-54-41.6-149.3-101-211.2-128-52.4-21.4-129.2-42.3-184.8-56.1-37.6-44-83.7-79.7-132-101.6-172.7-53.9-273.5-133.3-422.4-183.9-47.9-11.8-83.9-19.6-132-30.5-221.3-166.7-513.7-223.6-712.7-417.6-54.8-28.1-105.9-30.5-158.4-56.8-29.1-14.7-100.9-87.9-132-101.4-194.8-67.8-298.2-158.4-475.2-240.3-5.7-2.5-66.8-69.4-79.2-75.8-55.9-28.8-130.5-49.4-184.8-82.4-17.3-10.5-59.4-62.6-79.2-76.2-321.7-186.9-614.8-374.3-923.9-581.7-48.2-32.3-84.9-94.9-132-128.9-15.2-11-62.2-19.1-79.2-29.6-112.7-76.8-321.6-272.4-422.4-315.9-229.8-227.9-476.3-420.2-698.4-644.1-98.6-108.9-390.3-456.5-500.7-526.8-6.7-53.6-121.7-134.5-159.8-184.3-110.4-151.3-227.8-324.3-342.4-474.2-64.7-109.2-124.2-185.3-107.5-316 162.7-165.7 239-204.3 462.5-275.4 58.3-13.3 321.4-59.5 343.2-78 72.7-.7 297.9 11.1 343.1-26.5 1187.8-5.9 2376 6.5 3563.8-.3 104.8-.7 331.6 21.1 448.8 52.5 134.2 35.9 219.2 58.3 369.6 105.6 132.5 56.7 284.3 168.9 396 210.5 142.2 115.6 280.1 269.1 422.4 391.6 308.1 265.4 638.3 519.4 950.3 790.9 22.6 19.7 131.7 61.8 158.4 81.7 112.1 83.7 231.5 199.1 343.2 286.5 2.9 2.3 122.8 49.2 132 56.3 277.1 231.1 538.6 411.9 844.7 602.8 180.4 74.3 303.9 130.8 448.8 262.9 50.4 27.7 156 78.9 211.2 82.7 33.1 37.2 114.1 109.8 158.4 127.7 172.5 72.7 319.1 182 501.6 214.8 142.7 145.5 564.5 322.6 765.5 418.8 134.6 39.4 271.7 116.6 396 182.9 19.2-1.7 144.7 22.5 158.4 29.7 153.6 84.9 200.7 112.2 369.6 158.5 78.2 36 157 95.1 237.6 128.7 47.5 19.7 183.3 36 237.5 56 29.1 10.6 98.4 63.2 132 75.6 215.8 64.1 407.9 150.6 607.2 210.2 61.7 12.5 125.5 7.5 184.8 30.2 35.9 13.8 118.2 81.3 158.4 101.4 196.3 66.4 279 56.8 475.2 158.2 115.2 29.4 226.7 23.6 343.1 56.9 95.4 27.3 215 101.5 316.8 127.9 240.8 50.1 378.3 94.7 607.2 157.9 161.4 27 351.3 27 501.6 82.4 42 15.4 107 67.5 158.4 74.8 169.8 24 366.6 36.5 527.9 83 48.2 13.9 131.2 67 184.8 75.2 177.8 27.5 510.2 40.6 686.4 57.3 65.8 14.4 335.3 72.2 369.6 101.2 174.5 41.8 522.9 55.9 712.7 56.5 37.6 31 84.8 23.6 132 25.8 8.8 7.6 17.6 15.4 26.4 23.1 61.5.8 124.3-8.6 184.8 3.1 9.9 1.9 117.5 49.7 132 49.2 159.6-3.6 575.3 2.5 712.8 52.4 175.9 2 351.8 3.7 527.9 5 49.9 41.1 148.8 24.6 211.2 25.6 8.8 7.4 17.6 15 26.4 22.7 417.1-3 783.5 45.9 1188 54.8 246.3.2 492.7-.3 739.1-2.8 43.5-35.9 247-25 316.8-26 8.8-7.5 17.6-14.9 26.4-22.5 228.4-.8 456.8-1.5 685.3-2.2 9-8 18.3-16 27.5-23.8 53.3-2.4 115.8 8.3 158.4-25.8 350.6-.7 688.1-40.5 1029.5-31.6 8.7-7.3 17.6-14.5 26.4-21.7 212.5 3.6 348.7-31 554.4-56.9 27.1-3.3 75.3-45.2 105.6-47.9 106.8-2.9 211.2-2.5 316.8-4.8 105.2-46.9 395.4-44.5 527.9-52.8 61.8-36.2 264.8-88.6 343.2-101 224.7-22.7 500-5.8 712.8-56.9 301.1-89.5 468.8-102 765.5-157.8 65.7-15.2 192.6-84.7 264-101.4 116.7-27.2 273.8-39.8 396-56.7 243-114.6 384.9-101.2 633.6-158.1 72.9-18.2 168.2-83.5 237.5-101.2 107.3-27.6 233.6-28.3 343.2-57.2 226.4-93.5 366.9-110.5 580.8-184.1 35.3-14.5 93-63.3 132-75.8 105-33.6 233.4-57.1 343.2-81.1 154.5-43.4 446.2-152.6 580.7-234.8 238.9-63.7 381.1-121.3 607.2-210 25.2-8.5 130.3-16.2 158.4-30.8 184.3-104.8 357.9-179.9 554.4-259.4 56.3-21.7 150.9-37.2 211.2-56.1 26.2-8.3 180.5-115.4 211.1-127.8 51.4-21.1 156.6-32.5 211.2-56.8 157.2-91.1 223.6-121.3 396-184.1 13.7-16.1 112.1-95.2 132-101.5 35.5-11.2 98.4-10 132-29.5 182.5-101.2 347.7-176.9 528-286.6 197.6-39.1 312.1-151 501.5-213.2 16.5-5.1 84.7-64.8 105.6-77.7 73.5-38 133-57.5 211.2-81.9 14.6-16.5 112-93.2 132-102.5 60-27.9 132-41.2 184.8-81 207.2-141.9 489.6-229.2 660-392.5 165.2-57.3 224.1-121.1 369.6-187.4 232.7-141.6 379.3-264.1 580.7-444.3 136.5-52.3 253-153.7 369.6-240.9 250.8-214.6 463-412.5 739.2-602.6 196.5-121 366.4-167.5 554.3-266.4 15.1-10.5 33.8-42.5 52.8-48.9 159-53.5 315.5-115.9 475.2-158.6 55.1-9 114.4 10.7 158.4-26 847.8-2.4 1695.1-45.9 2534.3-25.8 87.6 42.1 273.4 18.8 395.9 52 128.6 40 347 97.7 475.2 132 98.5 26.3 228 141.9 343.2 183.4 52.2 30.6 133.4 127.1 184.8 132.5 91.8 98.7 247.7 266.5 343.2 339.1 55.1 41.6 377 317.2 396 319.3 11.5 23.1 79.6 109.8 105.5 128.4 164.8 121.4 318.9 282.5 501.6 371.9 85.5 60.1 231.5 217.5 316.8 286.5 209.3 156.1 419.6 277.3 633.6 447.6 270.7 166.7 515.6 330 791.9 501 273.7 156.4 547.8 279.7 818.4 424.4 74.5 47.2 311.3 208.5 369.6 234.5 189.9 64.6 299.1 162 501.5 213.6 53.3 30 101.4 76.9 158.4 101.4 47.4 20.3 157.8 37.9 211.2 56.8 165.5 117.7 366.3 209.1 554.4 285.2 214.9 62.1 413.8 157.5 607.2 210.6 19.3 3.6 60-4.9 79.2 4.2 62.7 29.6 100.4 66 158.3 101.6 17.6 10.7 157.7 25.9 184.8 30.8 256.6 123.9 544.9 227 818.4 311.5 80.4 23.2 257 29.1 343.2 56.9 43.9 14 132.5 87.6 184.8 100.8 252.5 49.6 345.9 87.8 580.7 158.5 131.1 25.9 287.7 36.8 422.4 56.7 15.3 2.2 135.4 67.8 158.4 74.9 67.3 13.7 186.5 10.9 237.6 52.3 120.4 11 226.2.7 343.2 31.3 49.6 12.8 173.2 97.5 237.6 100.7 218.3 11.1 477.8 45.6 686.3 57 56.6 10.5 313.3 75.5 343.2 100.8 285.4-8.5 560.4 37 844.8 57.6 65.6 11.4 452.5 81.9 475.1 100.7 200.5-3.5 694.7-2.7 871.2 52.6 184.7 2.8 369.5 4.3 554.4 4.8 86.3 39.9 293.5 44.4 395.9 48.6 714.2 4.3 1425.6 3.9 2138.3-.6 8.7-7.7 17.5-15.3 26.4-22.7 58.8-1.7 138.1 12 184.8-25.1 202.4-1 404.8-2.8 607.2-5.2 227.8-47.7 550.6-39.5 791.9-52.3 174.7-17.4 289-63.1 448.8-100.6 274.4 8.8 570.1-39.2 844.8-57.3 40.1-33.6 83.5-15.3 132-26.6 47.4-12.9 131.7-72 184.8-74.3 213.9 4.6 472.8-37.3 686.3-57.4 61.6-33.5 264.4-82 343.2-101.1 131.9-28.1 337-25.6 475.2-56.8 64.9-14.8 193.5-85.6 264-102.2 117.1-27.5 250.5-25.8 369.5-55.1 69.4-17.2 189.2-87.7 264-101.9 141.5-26.8 317.9-31.3 448.8-83.1 76-30.1 154.5-82.4 237.6-101.4 65.9-15 168.3-17.1 237.6-30.4 196.6-67.7 290-114.3 501.6-158.3 205.9-87.1 319.9-118.1 527.9-184.3 51.8-19.1 129.8-82.1 184.8-101 48.7-16.8 185-36.5 237.6-55.8 29.7-10.9 99.9-61 132-76.5 56.3-27.2 278-60.7 343.2-82 47.9-15.8 110.3-81.6 158.4-101.7 23.8-10 204.5-40.7 237.6-57.1 176-92.7 229-128.2 422.3-184.2 35.6-18.4 115.7-84.5 158.4-101.7 175-37 310.8-119.9 475.2-187.5 144.4-62.6 335.1-155.9 448.8-260.4 86.1-39.2 180.4-62.9 264-108.1 12.6-6.9 61.1-66.4 79.2-75.6 24.4-12.4 152.7-45.6 184.7-56.4 127.4-69.8 255.5-119.7 369.6-184.3 18.8-12.1 56.9-63.5 79.2-76.5 60.5-35.6 147.6-51.3 211.2-82.1 102.9-96.3 218.8-167.2 343.2-233.7 56.6-28.6 129.4-48.6 184.8-81.5 16.7-10 59.1-63.9 79.2-76 48.7-29.3 162.9-48.1 211.2-82.2 211.4-161.8 404.3-262.1 607.1-444.5 102.5-73.6 315.8-165.8 422.4-240.9 420.3-296.3 820.8-618.2 1240.7-921.3 110.2-79.6 227.4-209.4 343.2-287 62.9-42.2 234.5-128.2 316.8-158.1 99.6-36.1 209.8-77.9 316.8-104.7 74.3-13.4 238-8.1 290.4-52.8 590.9 5.6 1240.7 20.5 1821.5-4.3 108.8-48.5 343.5-12.6 497.4-51.2 128.2 48.7 560.7 58.8 716.9 55.3 8.8 7.5 17.6 15 26.4 22.6 154.7-4.2 301.6 66.4 448.8 108.7 15 4.2 92.1 40.7 105.6 52.9 35.8 35.2 79.9 100.2 132 105.3 175.6 181 557.9 529.3 765.5 658.5 332 358.1 795.1 761.1 1161.6 1076.6 38.6 27.8 120.7 52.9 158.4 82.9 322.9 287 636.2 507.5 1003.1 734.9 168.8 101.2 291.9 170.3 475.2 239.4 158.3 128 448.2 291.6 633.6 391.6 237.1 121.5 523.3 253.1 765.5 368.7 165.6 79.9 294.5 146.3 475.2 188.5 199.2 115.9 372.8 189.4 580.8 285.2 11.5 5.2 213 45.5 237.5 56.9 77.1 35.7 155.8 97.9 237.6 127.4 27.4 9.9 152.2 15.2 184.8 30 205.7 101.3 287.4 121.4 501.6 184.7 28.4 10.7 98 66 132 76.7 237 62.7 373.5 97.1 607.2 182.7 110.3 30 256.4 24.8 369.5 57.2 28.3 8.1 169 92.4 211.2 101.1 137.3 28.2 309.8 23 448.8 56.6 64.7 15.6 165.8 87.9 237.6 101.8 157.5 22.9 313.1 52 475.2 56.7 32.7 28.4 63.1 23.8 105.6 25.3 3.2 4.1 76.3 48 79.2 49.2 67.2 17 218.5 16.1 263.9 52.7 135.7-3.5 369.9 9.8 501.6 30.7 48.1 39.9 125.1 12.9 184.8 25.9 57.8 15.6 146.3 66.4 211.2 74.8 85.7 7.1 431.3 17 475.2 52.7 87.9 2.3 177-10 264 4.6 70.9 15.9 512.2 87.8 527.9 100.8 168.2-2.7 592.9 1.9 739.2 52.6 228.8 2.9 457.6 2.6 686.4 5.2 35.2 28.3 257.9 46.7 316.7 49.4 988.5 4.3 1971.1 4.2 2956.7-1.5 8.7-7.6 17.5-15.1 26.4-22.5 69.1-1.3 181.9 18.7 237.6-25.6 412.5-.8 809.5-39.2 1214.3-31.3 159.9-43.7 402.1-29 580.8-52.1 26.5-22.7 263.7-67.9 316.8-75 224.1-10.4 446.8-41.3 659.9-31.2 100.4-41.8 392.9-54.8 528-78.3 38.1-6.8 66.9-47.5 105.6-48.7 222.9 5.4 464.3-63.4 686.3-57 58.1-33.6 267.5-87 343.2-101 160.6-22.1 315.9-35 475.2-56.8 16.4-2.3 134.5-68 158.4-75.2 172.4-51.9 385.9-34 554.4-82.8 228.4-76.8 385.1-99.1 607.1-157.5 32.8-10.1 167.4-92.3 211.2-102.4 118.2-27.6 250.2-25 369.6-56.5 243.8-100.3 294.9-110 554.4-157.8 52-11.2 210.8-103.2 264-127.4 29-13.2 124.8-18.4 158.4-30.3 208-88.6 319-117.3 527.9-184.7 33.9-12.6 117.3-89.3 158.4-101.6 253.3-59 396.4-132.5 633.6-214.2 153.6-81.4 241.7-114.2 396-183.9 28.7-14.1 121-85.2 158.4-102.6 169.9-56.5 190.9-72.4 343.1-158.4 28.9-13.7 154-34.2 184.8-55.7 203.1-132 556.7-268.7 712.8-418.6 141.9-62.6 346.3-156.5 475.2-239.4 251-161.5 489.6-313.4 739.1-474.5 50.3-35.1 87.5-85.8 132-127.9 165.6-64 300.2-197.7 448.8-293.5 229.4-240.3 568.2-474.2 818.3-684.2 297.3-292.1 673.7-671.9 1003.2-920.3 219.1-145 456.3-276.7 712.8-340.7 51.6-4.8 203.9 1.2 237.5-27.1 763.9-41.1 1666.3-8.8 2455.1-3 413.2-12.2 864.1 27.7 1293.5 29.9 64.4 29.7 197 40.9 237.6 75.4 170.3 10.7 369 27 528 82.6 103 45.5 223.7 115.3 303.9 195.7-38 224-327.7 486-477.1 684.8-193.3 242.3-656.7 632-909.1 880.6-89.1 39.9-252.3 238.5-343.2 316-235.5 193.2-467.3 422.4-712.8 606-118.9 88.9-211.7 168.9-343.2 239.9-75.1 54-189.3 175.8-264 234.1-199.8 155.9-436.2 309.5-633.5 474.2-102.4 85.4-309.4 186.3-422.4 266.6-238.6 184.4-474.3 344.7-712.8 523.5-20.2 15.7-157 60.6-184.8 82.4-50.9 40.1-102.2 98.5-158.3 128.4-302.6 152.2-533.1 313.5-818.4 473.9-60.5 30.3-154.6 41.9-211.2 82.8-23.6 16.9-51.8 60.7-79.2 75.4-179.6 62.9-385.1 172.7-554.4 265.9-115 66.1-221.6 153.5-343.1 208.8-71.7 32.5-165.6 48.1-237.6 81.9-46.6 21.9-110 77.5-158.4 102.3-21.6 11-157.1 42-184.8 55.8-61.6 30.5-98.7 70-158.4 101.5-186.3 59.5-236.2 113.7-396 184.3-24.3 9.3-103.8 23.3-132 30.7-156.8 88.3-204.8 97.5-369.5 157.9-68.6 26.7-165.7 99.3-237.6 127.6-81.2 31.9-208.6 44.6-290.4 82.8-188.7 82-341.9 139-528 233.6-36.6 14.3-119.9 12.8-158.4 29.9-90 39.8-165.1 102.9-264 127.7-104.7 26.3-247.6 37.2-343.1 82.9-41.6 19.9-87 60.8-132 75.2-51.2 16.2-156.5 14.8-211.2 30.5-106.7 30.4-235.1 97.6-343.2 127.9-253.6 61.3-410.6 97.1-660 184.6-55.9 15.8-152.2 14.2-211.2 30.1-75.8 20.4-186 80.3-264 101.6-102.4 27.8-237.2 29.2-343.1 56.6-86.6 22.4-203 81.5-290.4 101.4-152.5 30.2-295.2 54.1-448.8 82.7-26.3 23-263.3 86.2-316.8 101.1-108 27.8-282.4 27.9-396 56.8-56.9 19-200.3 42.4-237.5 75.1-289.9 36.3-564.6 130.7-844.8 184.4-218 39.7-438.5 79.2-660 83-18.2 1.3-184.7 71.1-211.2 74.7-268.8 11.2-526.6 50.4-791.9 57.3-37.8 31.3-221.3 34-290.4 52.1-31.8 12.6-100.5 45.6-132 48.8-64.6 3.3-189.2-13.1-237.6 26-455.9 1.6-982.3.8-1425.5 57-87.3 26.4-171 22.8-171 118.3-2012.1 18.3-4048.6 47.7-6059.1-.4z"/><path d="M119423 28384.2c-574.2-26.2-1137.4-48.9-1716-53.1-53.3-43.6-145.5-12-211.1-26.3-12.1-3-111.2-70.2-132-74.8-53.8-5.4-115.7 8.5-158.4-26-350.6 8.4-718.7-29.5-1082.4-30.9-38.6-30.5-84.3-23.2-132-26.4-22.6-27.3-74.6-67.7-105.6-75.1-47.8-5.7-93.9 6.2-131.9-26.1-160.9-23.2-415.3-34.5-580.8-30.5-47.9-38.5-99-11.7-158.4-25.2-73.4-19.8-185.6-84.9-264-102.1-181.1-31.1-366.3-28.4-554.4-31.1-38.2-31.1-84.3-23.3-131.9-25.2-36.8-27.1-139.9-93.9-184.8-101.9-152.6-27.5-322.2-22.2-475.2-56.2-96.6-52.2-181.3-104.3-290.4-127.6-144-15.1-280-.7-422.4-31.4-60.7-13-217.4-111.3-290.4-127.2-74.2-16.1-218.2 3-290.4-29.6-245.9-124.3-257.3-107-527.9-159-58.3-16.8-148.1-108.2-237.6-127.3-104-22.4-241.9-25.2-343.2-56.3-42.1-13-135.5-88.8-184.8-103.3-230.6-63.9-426.9-154.5-659.9-212.4-46.1-30.6-133-88.2-184.8-103.2-81-23.4-209.4-23.4-290.4-55.1-66.8-35.5-123.7-87.1-184.8-128.3-19 1.5-145.9-21.1-158.4-29.6-66.3-47.6-118.8-84.5-184.8-128.6-20 1.7-145.7-19.4-158.4-29.7-32.9-26.6-96.5-90.3-132-103.3-229.8-57.5-369.7-135.4-580.7-238.7-230.6-120.7-477.7-266.1-686.4-419.2-59.4-21-162.8-45.9-211.2-81.1-110.7-106.8-147.8-83.4-264-158.1-137.2-102.3-245.9-133.9-369.6-260.9-28.3-4.1-165.8-63.2-184.8-81.6-97.4-88.5-183.5-132-290.3-235.1-134.7-54-228.3-125.9-343.2-213.3-115.7-89.7-220.8-229.5-343.2-313-96-64.7-156.5-115.6-264-161.3-46.8-39.2-83.7-91.8-132-128.6-25.8-16-51.6-19.3-79.2-30.1-77.9-99.9-198.9-228.4-290.4-312.1-129.3-82.3-292.8-248.6-410.3-357.2-191.7-179.1-378.3-378.6-528.3-579.4-72.9-73.9-201.8-208.7-287.3-263.4-10.4-28.1-12.2-55.3-30-79-35.7-47.7-93.2-83.8-128.3-131.7-46-124.7-141.6-230.2-213.7-342.5-25-38.7-81.5-65.7-105-105.3-72.9-187.3-119.3-258.1-238.9-421.5-21.6-28.2-38.9-37.7-72.9-42.8-51-187.1-63.3-185.8-162.8-352.3-15.1-46.6-12.8-110.1-28.7-158-18.1-40.6-127.3-160.1-154.6-184.4-4.5-111.7-21.4-190-55.3-289.7-16.9-49.6-82.7-108.9-103.2-158.1-56-180.4-92.8-254.1-158.7-421.4-48.2-356.8-109.6-494.2-183.7-816.5-31.9-295.6 5-600.4-28.1-895.6-20.5-269.6 22.1-541.6 27.6-816.5 141.7-293.5 81.9-367.7 158.8-632.2 133.9-224.4 132.4-243.9 184.4-500.4 43.8-37.3 83.9-82.7 103.8-131.7 71.3-186.6 166.4-343.4 237.8-526.8 25.1-26.8 60.6-46.2 77.1-79.1 31.5-62.4 39.2-176.7 81.5-237 77.8-105.6 161.5-177.1 235.2-263.4 33-63.7 61.5-142 81.9-210.7 191.9-182.5 216.8-257.2 343.3-474.2 55.9-71.7 312.2-334.4 319.2-381.3 211.5-139.5 372.5-404.3 602.1-566.9 29.1-80.9 125-148.1 184.3-210.7 1.6-10.6 3.2-21.3 4.9-31.9 42.7-22.7 84.7-45.2 126.5-68 95.1-162.9 283-250.7 385.4-412.2 139.4-76.6 213.8-164.9 369.6-240.5 28.1-14.3 35.8-40.7 41.8-67.2 40.1-29.9 125.4-70.2 169.4-90.7 29.6-13.9 36.9-43.5 42.7-70.8 159.6-66 242-112.6 379.7-218.3 105.7-82.4 198.2-222.1 316.8-287.5 10.5-5.9 185.9-37.9 211.1-55.9 47.9-34.2 81.8-96.7 132-127.8 47.5-23.2 134.3-42.3 184.8-55.8 99.4-111.1 186.3-131.1 290.4-233.6 161.4-45.2 198.4-67.5 316.8-184.1 18.4 1.3 146.6-20.8 158.4-29.8 159.9-112.2 330.3-176.6 501.6-288.3 47.7-15.3 108.7-14.8 158.3-28.8 173.6-109 220-123.1 396-210.6 40.4-28.4 69.4-68.4 105.6-100.9 31.6 2.2 161.3-16.7 184.8-30.2 61.8-35.9 95.3-68.1 158.4-102.4 188.3-58.9 231.4-103.7 396-184.1 34-14.5 196.7-32.9 237.6-30.3 60.8-41.7 116.5-99.1 184.8-127.5 279.7-48.8 474.3-137.2 739.1-213.9 68.7-18.9 143-81.2 211.2-103.2 70-22.7 215.4-29.3 290.4-56.1 53.4-19.1 127.7-89 184.8-102 56.6-13.1 180.3-3 237.6-29.3 112.5-51.6 225-119.9 343.2-153.9 284.7-40.3 401.4-115.4 659.9-184.1 75.3-16.3 184.3.6 264-29.9 98.2-49.1 179.3-107.8 290.4-127.9 95.6-2.2 230.1-.7 316.8-30.3 75.5-25.7 135-84.2 211.2-102.2 78.7-18.8 233.7-9 316.7-30.4 51.3-15.6 382.7-115.9 396-127.4 192.2-19.6 368.7-16.5 554.4-57.1 99.1-21.6 257-114.6 369.6-127.3 161.3-18.2 340.7-4.8 501.6-30.9 104.8-26.2 169.9-47.5 263.9-101.1 43.9-1.6 88-2.9 132-4 91.6-40.3 380.3-58.3 501.6-74.1 87.8-7.5 176-2.9 264-5 73.6-34.6 335.3-92.2 422.4-100.9 344.3-19.6 721.9-1.5 1055.9-57 84.6-14.9 208.4-23.1 224.1-123.7 110.1-4.9 220-16.9 330.3-17.6 1451.7-9.3 2903.8-9.1 4355.8-1.8 180.2.9 360.9 14.5 541.4 18.8 3.9 80.9 98.6 120.1 171.3 123.8 392.1-11.4 785.1 62.3 1187.9 57.2 8.7 7.3 17.5 14.8 26.4 22.3 66.4 11.2 159.9 8.8 211.2 52.6 43.9 1.2 88 2.7 132 4.3 8.6 7.5 17.4 14.8 26.4 22.1 251.1 13.8 572.9 31.2 818.4 57.3 38.7 7.2 211.2 89.6 264 100.6 256.5 53.2 628.2 30.2 897.5 82.7 337.4 116 493.2 96.3 818.4 158.2 38.4 9 182 91.9 237.6 101.3 114.4 19.2 251.3 21.1 369.5 31.4 161 23.4 210.8 90 343.2 127.2 135.9 25.9 286.6 22.4 422.4 56.6 67.2 16.9 143 83.8 211.2 101.3 102.6 26.2 264.3 19.3 369.6 56.8 75.3 26.8 174.9 103.8 264 127.2 57.9 15.2 176.3 11.6 237.5 30.8 256.7 106.4 357.8 112.7 607.2 184.3 58.8 21.5 99.6 79.2 158.4 101 25.3 9.4 152.8 18.1 184.8 29.9 222.3 92.6 331.5 118.5 554.4 185.3 37.5 15 115.1 83.4 158.4 101.1 180.5 55.3 231.1 87.1 395.9 159.4 76.3 22.9 159 39.2 237.6 55.3 13.9 16.1 111.8 95.1 132 101.7 93.8 30.5 199 42.6 290.4 82.1 140.7 90.2 177.6 116.1 343.2 156.9 14.2 16.8 112.1 94.4 132 103 42.2 18.2 141.3 35.2 184.8 56.9 10.7 5.3 62.9 67 79.2 75 57 27.9 103.9 27.8 158.4 56.3 212.8 110.8 424.7 223.6 633.5 341.9 40.8 28.1 70 69 105.6 103.1 36.4 6.2 181.8 57.6 211.2 82 123.7 119.2 159.3 97.8 290.4 183.8 68.3 71.6 155.2 159.3 237.6 208.2 168 75.7 267.8 140.6 422.4 238.9 82.8 53.6 203.2 197.9 290.3 261.3 153.1 65.3 208.8 133.8 343.2 213.2 49.7 29 76.4 85 99 128.4 47.3 5.9 195.7 144.5 244.2 186.4 145.5 128.5 312.5 345.2 448.8 446.7 56.7 40.8 126.5 109.7 199.2 110 56.4 105 180.3 207.2 263.8 326.1 205.6 216.5 410.7 449.4 604.2 658.5 66.7 78.6 116.1 216.1 185 289.7 19.1 85.8 15.1 117.9 78.6 182.3-295.3 97.4-552.4 60.2-855.7 96.3-60 35.8-266.5 89.6-343.1 100.9-305.8 29.3-619.4 26.2-924 26.4-775.9.5-1587.1-11.3-2375.8-26.3-162.1-72.4-214.6-110.1-396-157.5-91.4-88.6-140.8-110.4-237.6-183.7-210.6-179.9-304.2-323.9-554.4-474.5-116.6-149.3-302.5-318.9-448.8-444.2-28-10.5-51.3-19.5-79.2-30.6-11.4-23.5-80.7-107.5-105.6-127.7-225.5-80.7-486.6-364.1-686.3-526.9-133.3-87.5-176.5-101.4-316.8-160.9-36.5-32.9-62.6-79.5-105.6-102.9-56.5-30.7-176.7-47.1-237.6-82-118-106.8-240.3-156.7-343.2-260.4-53.2-18.1-110.8-24.4-158.4-55.6-48.2-39.9-86.9-86.3-132-127.6-44.1-1.7-88.8 3.4-131.9-5-19.6-3.8-185.5-118.2-211.2-128.6-66.4-26.8-143.3-27.6-211.2-54.4-178.9-88.2-376.2-190.3-554.4-286.9-23.4-12.6-153.4-32.6-184.8-30.1-61-42-124.2-85.5-184.8-127.4-110.1-4-216-20.2-316.8-55.2-27.3-9.5-121.5-91.7-158.4-103.6-234.8-55.9-262.1-75.8-475.1-158.5-270.5-29.3-370-32.9-607.2-157.1-140.6-26.2-307-32-448.8-56.1-23.2-4-233.3-120-264-128.2-367.1-42.5-501.5-85.3-844.7-157.8-198.6-19.4-433.4-27.4-633.6-30.8-8.5-.2-140.6-64.3-158.4-75.5-62.3-20.5-165-13-211.2-52.2-334.9 7.2-705.2-26.3-1055.9-30.9-28.9-.6-158.1-51.1-184.8-74.9-74-9.3-236.5-7.4-290.4-52-615 8.1-1206.4-29-1821.5-29.6-840.4 2.5-1700.9 41.5-2534.2 30.1-41.8 33.9-226.4 24.5-290.4 25.4-64.2 37.4-310.8 87.9-396 101.2-168.5 8.1-334.4 4-501.6 5.5-98 40.3-355.7 15.8-501.6 51.6-28.2 8-167.8 95.1-211.1 101-164.5 22.3-359.1 19.8-528 31-150.6 34.6-240.2 91-369.6 127.3-105 21.9-388.1 21.8-501.6 31.1-318.8 114.5-398.7 113.1-712.7 182.8-18.1 5-128.1 96.2-158.4 102-146.7 28-325.7 29.8-475.2 57.1-243.3 128.9-256.7 110.1-528 157.4-162.8 52.2-308.2 106.1-475.1 158.9-65.4 50-80.7 86.5-158.4 127.1-17.5 9.1-209.5 25.3-237.6 30.8-229.8 84.7-259.9 126-528 183-25.7 6.7-104.9 82.1-132 102.8-22.7 17.2-176.5 21.8-211.2 30.8-33.5 12.5-132.5 97.3-158.4 127.2-57.7 15-100 12.8-158.4 30.9-57.5 22.8-115.9 77.4-158.4 127.7-170 36.9-209.5 34.6-343.1 157.1-19.3-1.5-145.6 21.8-158.4 30.1-103.2 67.8-188.3 152.2-316.8 159.1-32.4 16-123.9 107.3-158.4 128.9s-141.3 41.7-184.8 54.5c-13.6 4.7-152.3 122.5-158.4 129.7-46.3 16.1-137.1 41.7-184.8 53.6-35.9 33.4-64.5 75.7-105.6 102.6-36.9 24-143.6 55.7-184.8 81.7-29 18.1-52.6 55.1-79.1 76.5-179.4 73-311.3 209.2-475.2 316.5-14.6 9.4-115.3 40.8-132 55.1-84.1 80.6-248.3 205-290.4 287.2-115.4 32-215.3 146.7-316.8 214.1-142.6 136.4-181 191.4-343.2 313.5-183 208.4-347.7 390.1-540 593.6-32.8 34.7-28.6 92.4-55.5 131.7-41 44.9-150.8 128.5-157.6 184.4-26.1 31.4-96.7 86.4-129.1 105.4-52.2 112.5-147.8 237.7-214.6 368.7-13.2 19.9-64.7 55-76.9 79.1-40.7 80.1-63.5 183-108.1 263.4-114.6 117.5-134.5 228.6-234.4 342.4-45.5 250.2-94.6 252-184.3 474.1-37.5 285.1-106.5 329.7-158.1 553.1-4.6 249.3 6.2 810.6-52.7 1027.3 20.1 186.3 27.1 413.9 26.3 605.8 14.5 211.2 97.8 224.7 154.2 395.1 12.1 40.8 8.9 166.7 29.7 210.7 94.3 181.9 112.9 278.2 185.1 447.8 35.7 60 112.1 99.4 127.7 184.4 14.8 80.6 9.6 115.5 56.2 184.4 13.5 20 63.4 54.3 77.3 79 71.6 165.8 152.2 291.4 240.1 447.8 75.8 109 220.3 254.5 264.7 368.7 255.1 231.4 525.2 605.3 762.6 869.2 175.2 199.1 583.9 532.1 805.8 697 109.9 76.8 218.2 165.4 343.2 213.2 26.2 18 128.2 134.7 158.4 154.3 92.4 60.1 223.9 101 316.7 161 48.3 31.3 84.1 96.6 132 129.3 195.7 114.9 297.8 131.8 475.2 290.8 74.1 35 96.9 50.2 184.8 55.5 44.7 41.6 80.7 93.8 132 127.6 180.8 70.4 206 91.2 369.6 185 56.9 19 97.6 21 158.4 29.5 51.2 47.2 120.8 113.7 184.8 127.6 39.9 8.6 119.7 4.5 158.3 28.3 47.9 29.5 81.7 69.8 132 104.5 165.6 61.4 253.7 125.9 396 183.6 93.7 25.1 196.3 39.7 290.4 56.4 36.3 44.3 85 78.4 132 102.6 22.1 11.4 154.7 24.2 184.8 28.4 213.4 101.6 280.4 152 528 185.4 57.4 53.5 87.1 81.8 158.4 101.3 151.9 27.3 297.9 38.9 448.7 56.7 37.6 44 85.1 76.5 132 102.2 354.2 26.9 363 60.6 686.4 183.2 111.8 23.8 307-6 422.4 30.5 102.4 32.4 201.9 111.9 316.7 128.1 430.5 43 456.1 4.4 871.2 158.2 287.7 11.2 554.9 6.9 844.8 30.3 9.3.7 163.5 70.6 184.7 75.4 67.3 11.9 186.8 9.5 237.6 51.7 572-16.4 1204.1 30.9 1795.1 31.2 8.7 7.1 17.5 14.1 26.4 21.2 52.7 1 105.6 2.6 158.4 4.7 41.8 42.8 127.2 44.1 184.8 50 282.9 3.6 563.4 5.4 844.8-.7 8.8-7.9 15.4-19.3 26.4-23.5 66.1-13.9 282.3-24.2 316.8-51.8 674.7-.3 1404.8-52.5 2059-31.4 36.4-29.2 243.8-32.7 316.8-51.4 58.7-21.3 121.1-73.1 184.8-75.6 291.3 5.9 576.9-26.4 871.2-30.8 40.7-33.5 83.6-12.3 132-26.1 25.9-8.8 101-65.9 132-76.1 42.8-6.5 70.9 3.3 105.6-25.3 167.8 3.2 417.7 7 580.7-29.6 97.1-21.8 240.3-100.6 343.2-128.6 66.2-18 370.5-20.2 448.8-29.8 347.4-156.1 406.3-107.8 739.1-185 59-17.6 184.2-113.6 264-127.1 122.8-10.7 228.8-2.3 343.2-30.9 14.8-16.7 110.4-95.8 132-101.2 258.1-50.2 271.7-30.8 501.6-158.5 95.7-26.1 241.4-34.2 343.2-55.9 40.9-10.9 177-99 211.1-127.6 76.2-14.7 136.2-6.2 211.2-30.6 41.5-13.6 115.5-80.5 158.4-103.4 147.2-57.6 227.2-91 369.6-156.2 91.4-34.4 229.3-34.5 316.8-83 38.1-21.2 67.8-80.4 105.6-102.6 139.9-58.9 201.9-33.1 316.8-158.1 80-22.7 121.1-39.2 211.2-54.9 5.2-1 141-117.2 158.3-129.6 98.2-63 223.7-156.6 343.2-160.8 142.7-106 195.1-126.3 343.2-209.1 103.4-72.6 208.3-190 316.8-261 23.8-15.7 128.2-34.7 158.4-55.6 48.3-33.4 80.2-101.7 132-129.6 115.7-65.3 216.8-141.3 343.2-186.5 82.5-84.3 301.9-305.8 395.9-342.5 8.5-4.6 75.3-95.1 79.2-102.4 24.3-14.1 108.2-37.3 132-55.5 144.7-114.1 238.3-177.4 369.6-313.6 8.8-1.2 17.6-2.3 26.4-3.4 155.4-211.6 364.2-360.3 540.7-537.9 19.1-19.1 21-47.2 40.1-63.8 95.7-50.9 120.4-93.6 211.2-159.7 135.9-45.6 213-46.2 316.7-158.7 54.1-5.1 103.3-22.3 158.4-24.1 688 32 1360.7-25.7 2032.7-1.2 433.6.7 857.8 9.4 1267.2 27.2 270.6 79.6 402.8 114.6 686.3 158 75.8 61.4 193.7 143.4 276.7 196-30.1 75.1-80.5 198.9-133.8 263.4-171.8 182-404.6 382.5-591.7 564.4-112 90-224.3 181-352.2 245.8-58.7 119.4-324.1 326-439.7 413.2-81.9 60.4-231.3 106.5-316.8 186.5-147.2 148.6-376.6 301.2-475.2 471.3-27.9 10.7-54.7 12.9-79.2 29.9-38.5 26.8-66.3 76.9-105.6 102.3-52.1 27.7-198.7 130.7-237.5 135.1-72.7 46-197.2 170-264 234-126.6 67.1-195.8 109.2-316.8 187.2-82.4 67.4-207.6 197.5-290.4 260.9-80 8.8-168.9 66.1-237.6 106.8-85.2 56.7-192.1 155.9-264 234.4-74.7 6.5-193.7 72.1-263.9 109-55 31.6-166.6 132.6-211.2 181.9-79.8 8.2-169.4 66-237.6 106.8-18 11.2-58 64.6-79.2 77.5-46.7 28.2-161.4 53.5-211.2 81.4-38.3 21.4-69.6 76.8-105.6 102-183 53.4-356.9 154.9-528 238.8-91 45.2-193.5 142.6-290.4 182.7-240.6 99.5-565.2 269.3-791.9 395.3-194.6 51.1-220 44.5-396 157.8-19.5-1.8-145.1 20.4-158.4 29.2-62.3 41.1-115.8 100.2-184.8 128.5-215.4 54.7-272.7 77.3-475.2 158.9-67.2 22.5-215.3 39-290.3 55.2-236 122.5-453.1 174.3-686.4 286.4-209.1 17-289.6 97.1-475.2 158.7-76.4 22.5-259.4 29.2-343.2 56-38.5 12.3-160.7 90.4-211.2 102-114.4 26.1-279.8 22.8-395.9 56.7-59.6 23.7-105.4 67.2-158.4 102.1-71.6-3.6-279.3 6.4-343.2 30-347.1 140.6-391.9 122.5-739.2 183-51.8 14.3-218.5 97.4-264 128-173.8-3.5-410.2 9.1-580.7 30.8-36.1 28.8-64.2 13.4-105.6 26.2-33 12.8-94.8 63.7-132 74.9-48.4 7-93-5.9-132 26.4-199.7 11.2-382.9-1.6-580.8 31.1-82.5 13.6-250 118.2-343.2 126.9-302 9.3-572.8 31.7-871.1 30.6-46.5 37.8-126.9 24.1-184.8 25.9-60.5 35.7-267.7 93-343.2 101.6-522.9 26.8-1085.6 31.5-1610.3 30.9-12.2 0-42.6 6.5-52.8 21.3-950.3 6-1901.2 28.6-2851 .8z" fill="red"/></g></svg>