<svg height="2500" viewBox="0 0 1300 1040" width="2500" xmlns="http://www.w3.org/2000/svg"><path d="m0 0h1300v1040h-1300z" fill="#1f1f1f"/><path d="m748 336h10l6 5 1 2v9l-4 12-12 25-10 17 5-2h14l6 3 1 2v8l-7 11-13 13-13 10-3 3 12 3 10 6 7 7 9 16 4 8 22 4 12 5 7 5 4 8-1 8-5 6-6 3h-14l-10-3-10-8v-2h-2l-12-19h-17l-30 4-19 5-24 9-19 10-15 10-13 10-13 12-13 13-11 14-11 15-14 24-5 9-1 12-1 1h-8l-2-2 1-8 8-16 13-21 11-16 13-16 4-5h2l2-4 12-12 11-9 18-13 17-10 20-9 22-7 25-5 23-2h12l-8-16-6-9-6-5-8-3-10-1-1-4 12-11 16-16 5-9 1-4h-8l-7 4-8 9-8 15-6 16-5 22-2 4-7-1-4-3 1-14-28 28-11 7-3 1h-11l-6-7-1-6-3 3-7 11-11 12-4 3h-7l-4-5-1-5v-7l-6 10-11 14-6 5-2 1h-9l-6-5-2-3v-13h-3l-2 5-9 10-9 12-5 8-4 19-3 23-4 57-2 27-3 19-4 12-5 8-6 5-8 3h-10l-8-3-7-8-5-13-1-7v-15l4-20 5-16 10-24 8-16 8-14 11-18 4-7 3-9 5-25 9-36 9-25 7-14-9 6-25 15-7 4-12 17-11 17-13 19-9 12-9 10-7 6-3 1h-9l-7-6-1-2v-15l4-13 6-10 9-10 12-9 28-15 15-8 4-2 2-4 14-18 11-14 11-12 9-11 11-8 5 1 2 3-1 5-7 3-5 3-3 3h-2l-2 4-9 10-13 16-5 8 16-11 16-12 10-9 8-7 16-16 14-11 13-10 15-8 5 1v4l-7 6-17 12-10 9-6 5-5 5-12 14-10 16-6 10-7 16-7 21-7 27-1 7 11-14 26-30 9-9 6-7 10-7 9-2 7 3 5 8v2l4 2 1 1-1 8-4 10-3 13 1 3 5-5 8-12 4-5 9-14 5-10 10-14 10-10 9-5 2-1h8l6 5 1 2v7l-5 9-3 2-6-1v-4l4-5-4-1-8 7-9 11-8 17-1 11 2 3 6-1 11-8 13-13 9-11 7-10 7-21 10-32 10-26 10-21 9-12z" fill="#a3a2a4"/><path d="m505 579h2l-2 13-3 35-3 43-3 21-4 12-5 4-6 1-6-4-6-8-2-6-1-9 2-18 6-21 11-27 9-17 9-16zm-22-96 1 3-7 9-22 33-9 11-8 7-5-1-1-4 2-12 5-12 7-10 9-9 9-6zm117-12h4l-2 4-2 6h2l-1 6-7 12-12 16-5 6-5 1-2-3 1-8 5-13 7-11 9-10zm172 30 10 1 15 4 8 5 3 4v7l-6 5h-9l-8-4-7-8-6-12z" fill="#1f1f1f"/><path d="m638 585 4 2 6 16v2h2l1-9 5-10h4l4 9 2 8 2-1 6-16 4-1-1 10-6 19-2 2-5-1-6-18-4 10-2 8-5 1-3-4-7-24zm227 0 4 1 3 4 8 20 1 5-5 1-2-6v-2h-12l-3 7-4 1-1-4 6-16zm-174 1 5 1 1 11 12 1v-11l1-2h4l1 19-1 10-4 1-1-1v-10l-13-1v12h-5l-1-5v-23zm96-1h16l1 4-2 2-12-1v9l13 1v3l-14 1 1 6 2 1h11l1 5h-20l-1-3v-13l1-14zm32 0 3 1v12l14 1v-11l1-2 4 1v28l-4 1-1-1v-11h-14l1 11h-5l-1-1v-23z" fill="#a4a3a5"/><path d="m753 350h3l-1 9-13 27-12 20-2 1 1-6 8-21 11-23z" fill="#1f1f1f"/><path d="m757 585h13l1 1v5l-9-1-1 26h-5v-25h-8l-1-5zm169 1 5 1-1 24 15 1v4h-19l-1-3v-26zm-32 0 5 1-1 24 15 1v4h-19l-1-3v-26zm-164 0h4l1 4v24l-1 2-5-1v-17z" fill="#a4a3a5"/><path d="m865 595 4 1 2 7h-6z" fill="#1f1f1f"/></svg>