<svg clip-rule="evenodd" fill-rule="evenodd" image-rendering="optimizeQuality" shape-rendering="geometricPrecision" text-rendering="geometricPrecision" viewBox="0 0 16709 5186" xmlns="http://www.w3.org/2000/svg" width="2500" height="776"><path d="M0 0h16709v5186H0z" fill="none"/><path d="M2596 521c1144 0 2071 928 2071 2072s-927 2072-2071 2072c-458 0-881-149-1224-400l426-427c230 148 504 234 798 234 816 0 1478-662 1478-1479s-662-1479-1478-1479c-817 0-1479 662-1479 1479 0 294 86 567 233 797l-426 427c-252-343-400-766-400-1224 0-1144 927-2072 2072-2072zm0 1084c545 0 988 442 988 988s-443 988-988 988c-546 0-989-442-989-988s443-988 989-988zm0 334c361 0 654 293 654 654h122c0-429-348-776-776-776z" fill="#00b0f0"/></svg>