<svg height="2500" viewBox="2.09 -.54 306.97 460.49" width="1653" xmlns="http://www.w3.org/2000/svg"><g fill="none" stroke="#000" stroke-linecap="round" stroke-linejoin="round"><path d="m270.46 317.14c4.66-16-1-29.71-8.35-43.71-9.22-17.64-20.85-33.4-33.16-48.87-22.47-28.23-44.8-56.7-70.58-81.91a130.2 130.2 0 0 1 -24.89-34 37 37 0 0 0 -7-9.53c-7.35-7.18-16.24-6-21.93 2.6-5.86 8.84-4.83 18.86-4.08 28.22 1.23 15.22 5.82 29.61 17.41 40.8a15.19 15.19 0 0 1 4.72 10.09c.58 6.91 6.94 11.29 9.33 17.57" stroke-width="5.46"/><path d="m159.3 246.05c-8.34-10-12.48-21.46-13.19-34.57-.4-7.28-8.21-9.55-13.23-11-21.8-6.21-41.32-17.62-62.26-25.68-10.34-4-20.68-9.51-32-6.58-9.92 2.56-17.24 8.33-20 19.68-3 12.17 1.49 21 9.33 28.93 9 9.05 21.32 11.41 33.1 13.66 10.42 2 20.15-5.34 23.32-15.32 2.44-7.67-4.44-20.62-13.37-25.24-1.34-.7-2.59-1.57-3.89-2.36m109.78 240.89c-8.9 5.54-17.59 1.12-26-1.11-34.84-9.19-66.6-25.08-94-48.33-6.83-5.79-14.07-10.89-20.84-16.61-9.18-7.75-12.12-21.44-2.06-35.09" stroke-width="5.46"/><path d="m87.83 23.04c-8.48-17.64-18.89-23.58-36.62-18.08-20.52 6.4-37.74 17.58-46.28 39-2.84 7.14-2.78 13.08 1.34 19.48 14.73 22.86 22.92 24.24 48.55 14.55a62.71 62.71 0 0 0 33.77-29.7c4.07-7.57 7.69-16.67.21-25.06" stroke-width="5.93"/><path d="m65.8 231.58c6.68 12.92 20.47 14.33 31.89 19.3 11.6 5.05 23.95 8.38 35.49 13.54 11.15 5 14.61 10.33 14.53 21.48 0 7.42-7.37 16-15.88 19a6.32 6.32 0 0 1 -3.26.13 373.18 373.18 0 0 1 -88.05-32.05c-17.63-8.95-23.14-32.92-4.78-48.06" stroke-width="5.46"/><path d="m131.67 307c9.4 15.13 6.22 25.31-9.59 31.48-6.82 2.67-13-.55-19.51-1.34-20.24-2.46-40.63-3.66-60.52-9-12.89-3.45-20.12-11.51-22.72-23.79-2.68-12.66-.53-24.34 10.41-33a33.22 33.22 0 0 0 2.69-2.62m88.98 72.51c4.81 5.49 11.66 10.36 8.49 19.07-3.33 9.15-11.87 11.29-20.14 12-16.14 1.47-32.37 2.79-48.52-.62-3-.63-6.22-.33-9.34-.46" stroke-width="5.46"/><path d="m15.65 72.31c30.3 2.7 62-14.88 71-48.49" stroke-width="5.93"/><path d="m207.75 334.28c-22.5-.35-41.91-8-57.53-24.49" stroke-width="3.64"/><path d="m173.75 431.84c3.42 4.87 9.25 5.81 14 8.49 10.1 5.7 19.32 12.64 28.53 19.62m57.15-163.38c5.11 2.28 6.59 7.74 10 11.51 7.5 8.3 16.48 14.68 25.63 20.91m-62.4 37.58c-7.63 12.79-15.25 25.58-28.2 33.95" stroke-width="5.46"/><path d="m99.39 225.46q1.16 13 2.3 25.92m19.48-17.92.27 25.75m124.75 127.33a49.35 49.35 0 0 1 -11.81 14.11m-144.44-203.36c-.87 4 .94 9-4.61 11" stroke-width="3.64"/></g></svg>