<svg viewBox="0 0 263 60" xmlns="http://www.w3.org/2000/svg" xmlns:xlink="http://www.w3.org/1999/xlink" width="2500" height="570"><linearGradient id="a"><stop offset="0" stop-color="#fff"/><stop offset="1" stop-color="#2786f6"/></linearGradient><linearGradient id="b" gradientUnits="userSpaceOnUse" x1="233" x2="247" xlink:href="#a" y1="12.5" y2="12.5"/><linearGradient id="c" gradientUnits="userSpaceOnUse" x1="249" x2="263" xlink:href="#a" y1="29.5" y2="29.5"/><path d="M44 4H18.1L4 35.3l29 21.3z" fill="none" stroke="#2786f6" stroke-miterlimit="10" stroke-width="2"/><g fill="#2860e1"><path d="M18 8c2.2 0 4-1.8 4-4s-1.8-4-4-4-4 1.8-4 4 1.8 4 4 4zM44 8c2.2 0 4-1.8 4-4s-1.8-4-4-4-4 1.8-4 4 1.8 4 4 4zM33 60c2.2 0 4-1.8 4-4s-1.8-4-4-4-4 1.8-4 4 1.8 4 4 4zM4 39c2.2 0 4-1.8 4-4s-1.8-4-4-4-4 1.8-4 4 1.8 4 4 4zM58 6h20v6.2H64.6v6h12v6.2h-12V36H58zM97 36c-2.1 0-4.1-.4-6-1.2-1.8-.8-3.4-1.8-4.8-3.2-1.3-1.3-2.4-2.9-3.1-4.7S82 23.1 82 21s.4-4.1 1.1-5.9c.8-1.8 1.8-3.4 3.1-4.8C87.6 9 89.2 8 91 7.2c1.9-.8 3.9-1.2 6-1.2s4.1.4 6 1.2c1.8.8 3.4 1.8 4.8 3.2 1.3 1.3 2.4 2.9 3.1 4.8.8 1.8 1.1 3.8 1.1 5.9s-.4 4.1-1.1 5.9c-.8 1.8-1.8 3.4-3.1 4.7s-2.9 2.4-4.8 3.2c-1.9.7-3.9 1.1-6 1.1zm0-5.9c1.2 0 2.4-.2 3.4-.6 1.1-.4 2-1 2.8-1.8s1.4-1.8 1.9-2.9c.4-1.1.7-2.4.7-3.7 0-1.4-.2-2.6-.7-3.7-.4-1.1-1.1-2.1-1.9-2.9s-1.7-1.4-2.8-1.8-2.2-.6-3.4-.6-2.4.2-3.5.6-2 1-2.8 1.8-1.4 1.8-1.9 2.9c-.4 1.1-.7 2.4-.7 3.7 0 1.4.2 2.6.7 3.7.4 1.1 1.1 2.1 1.9 2.9s1.7 1.4 2.8 1.8 2.2.6 3.5.6zM116 6h11.6c1.7 0 3.2.2 4.5.7s2.4 1.2 3.3 2c.9.9 1.6 1.9 2.1 3.1s.7 2.5.7 3.9c0 1-.2 1.9-.5 2.7s-.8 1.6-1.3 2.3c-.6.7-1.2 1.3-2 1.9-.7.5-1.6 1-2.4 1.4v.4l8 11.2v.4h-7.6l-7.8-10.8h-1.9V36H116zm11.6 13.1c1.2 0 2.1-.3 2.8-1s1-1.5 1-2.5-.3-1.9-1-2.5c-.6-.7-1.6-1-2.9-1h-4.9v7.1zM168 6h-24v6h24zM168 18h-24v6h24zM168 30h-24v6h24zM172 6h7.3l10.5 18.5h.4l-.4-5.8V6h6.2v30h-6.6l-11.1-19.6h-.4l.4 5.8V36H172zM211.2 6h7.5L230 36h-7.2L215 13.7 207.2 36H200z"/></g><path d="M254 6l-21 30h9l21-30z" fill="#2786f6"/><path d="M233 6l9 13 5-6-5-7z" fill="url(#b)"/><path d="M263 36l-9-13-5 6 5 7z" fill="url(#c)"/><path d="M61.1 56v-8h-2.8v-2h7.8v2h-2.8v8zM72 48v2h4v2h-4v1.9h4.4V56h-6.6V46h6.6v2zm17.1 6.4c-1 1.2-2.4 1.8-4 1.8-.7 0-1.4-.1-2.1-.4-.6-.3-1.2-.6-1.7-1.1s-.8-1-1.1-1.7c-.3-.6-.4-1.3-.4-2.1 0-.7.1-1.4.4-2.1.3-.6.6-1.2 1.1-1.7s1-.8 1.7-1.1c.6-.3 1.3-.4 2.1-.4s1.5.1 2.1.4 1.2.7 1.7 1.2l-1.5 1.5c-.3-.3-.6-.5-.9-.7-.4-.2-.8-.3-1.3-.3-.4 0-.8.1-1.2.2s-.7.4-1 .6c-.3.3-.5.6-.7 1-.2.6-.3 1-.3 1.5s.1.9.2 1.3c.2.4.4.7.7 1s.6.5 1 .6.8.2 1.2.2c.5 0 1-.1 1.4-.3s.7-.5 1.1-.9zM93 46h2.2v3.9H99V46h2.2v10H99v-4.1h-3.8V56H93zm12.6 0h2.5l3.6 6.2h.1l-.1-1.9V46h2.2v10h-2.3l-3.8-6.6h-.1l.1 1.9V56h-2.2zm17.3 10.2c-.8 0-1.5-.1-2.1-.4s-1.2-.6-1.7-1.1-.8-1-1.1-1.7c-.3-.6-.4-1.3-.4-2.1 0-.7.1-1.4.4-2.1.3-.6.6-1.2 1.1-1.7s1-.8 1.7-1.1c.6-.3 1.3-.4 2.1-.4s1.5.1 2.1.4 1.2.6 1.7 1.1.8 1 1.1 1.7c.3.6.4 1.3.4 2.1 0 .7-.1 1.4-.4 2.1-.3.6-.6 1.2-1.1 1.7s-1 .8-1.7 1.1c-.6.3-1.3.4-2.1.4zm0-2c.4 0 .8-.1 1.2-.2s.7-.4 1-.6c.3-.3.5-.6.7-1s.2-.8.2-1.3-.1-.9-.2-1.3c-.2-.4-.4-.7-.7-1s-.6-.5-1-.6-.8-.2-1.2-.2-.8.1-1.2.2-.7.4-1 .6c-.3.3-.5.6-.7 1s-.2.8-.2 1.3.1.9.2 1.3c.2.4.4.7.7 1s.6.5 1 .6.8.2 1.2.2zm9.2-8.2h2.2v8h4.2v2h-6.4zm14.7 10.2c-.8 0-1.5-.1-2.1-.4s-1.2-.6-1.7-1.1-.8-1-1.1-1.7c-.3-.6-.4-1.3-.4-2.1 0-.7.1-1.4.4-2.1.3-.6.6-1.2 1.1-1.7s1-.8 1.7-1.1c.6-.3 1.3-.4 2.1-.4s1.5.1 2.1.4 1.2.6 1.7 1.1.8 1 1.1 1.7c.3.6.4 1.3.4 2.1 0 .7-.1 1.4-.4 2.1-.3.6-.6 1.2-1.1 1.7s-1 .8-1.7 1.1c-.6.3-1.3.4-2.1.4zm0-2c.4 0 .8-.1 1.2-.2s.7-.4 1-.6.5-.6.7-1 .2-.8.2-1.3-.1-.9-.2-1.3c-.2-.4-.4-.7-.7-1s-.6-.5-1-.6-.8-.2-1.2-.2-.8.1-1.2.2-.7.4-1 .6c-.3.3-.5.6-.7 1s-.2.8-.2 1.3.1.9.2 1.3c.2.4.4.7.7 1s.6.5 1 .6.8.2 1.2.2zm13.8-3.8h4.9c0 .1.1.3.1.4v.5c0 .7-.1 1.3-.3 1.9s-.5 1-.9 1.5-1 .8-1.6 1.1-1.4.4-2.2.4c-.7 0-1.4-.1-2.1-.4-.6-.3-1.2-.6-1.7-1.1s-.9-1-1.1-1.7c-.3-.6-.4-1.3-.4-2.1s.1-1.5.4-2.1.7-1.2 1.1-1.7c.5-.5 1.1-.8 1.7-1.1.7-.3 1.3-.4 2.1-.4s1.6.1 2.2.4 1.2.7 1.7 1.2l-1.5 1.5c-.3-.3-.7-.6-1.1-.7-.4-.2-.8-.3-1.4-.3-.4 0-.8.1-1.2.2s-.7.4-1 .6c-.3.3-.5.6-.7 1s-.2.8-.2 1.3.1.9.2 1.3c.2.4.4.7.7 1s.6.5 1 .6.8.2 1.2.2c.9 0 1.5-.2 2.1-.7.2-.1.3-.3.4-.5s.3-.4.3-.7h-2.9v-1.6zm9.1-4.4h2.2v10h-2.2zm8.7 2v2h4v2h-4v1.9h4.4V56h-6.6V46h6.6v2zm11.7 8.2c-.9 0-1.7-.2-2.4-.7s-1.1-1.2-1.4-2.2l2.1-.8c.1.5.3.9.6 1.2s.7.5 1.2.5c.2 0 .3 0 .5-.1.2 0 .3-.1.4-.2l.3-.3c.1-.1.1-.3.1-.4s0-.3-.1-.4-.2-.3-.3-.4-.3-.2-.6-.4c-.2-.1-.5-.2-.9-.4l-.6-.2c-.3-.1-.5-.2-.8-.4s-.5-.4-.7-.6-.4-.5-.5-.8-.2-.6-.2-1 .1-.8.2-1.1c.2-.4.4-.7.7-.9.3-.3.6-.5 1.1-.6.4-.1.9-.2 1.4-.2s1 .1 1.3.2c.4.1.7.3 1 .5s.5.4.6.7c.2.3.3.5.4.8l-1.9.8c-.1-.3-.3-.5-.5-.7s-.5-.3-.9-.3-.7.1-.9.2-.3.3-.3.6.1.5.3.7.6.4 1.2.6l.6.2c.8.3 1.5.7 2 1.2s.7 1.1.7 2c0 .5-.1 1-.3 1.4s-.5.7-.8 1-.7.4-1.1.6c-.7-.1-1.1-.1-1.5-.1z" fill="#2860e1"/><path d="M258 56c2.8 0 5-2.2 5-5s-2.2-5-5-5-5 2.2-5 5 2.2 5 5 5zM242 56c2.8 0 5-2.2 5-5s-2.2-5-5-5-5 2.2-5 5 2.2 5 5 5zM226 56c2.8 0 5-2.2 5-5s-2.2-5-5-5-5 2.2-5 5 2.2 5 5 5zM210 56c2.8 0 5-2.2 5-5s-2.2-5-5-5-5 2.2-5 5 2.2 5 5 5z" fill="#2786f6"/></svg>