<svg height="2500" width="2500" xmlns="http://www.w3.org/2000/svg" viewBox="0 0 500 500"><path d="M500 500H0V0h500z" fill="#0077d7"/><path d="M415.692 134.425a27.285 27.285 0 0 1-9.119 1.557c-14.396 0-26.067-11.072-26.067-24.732 0-3.808.908-7.417 2.53-10.639h-31.998a51.285 51.285 0 0 0-1.114 10.64c0 29.682 25.363 53.746 56.65 53.746 3.104 0 6.15-.24 9.118-.697zm-9.119-47.907c14.397 0 26.068 11.073 26.068 24.732 0 4.196-1.103 8.146-3.046 11.607h32.298a51.322 51.322 0 0 0 1.33-11.607c0-22.891-15.086-42.438-36.339-50.184V36.778h-28.048v50.848a27.354 27.354 0 0 1 7.737-1.108" fill="#bfddf5"/><path d="M343.32 294.223c0 4.888-.79 9.491-7.335 9.491-3.739 0-5.393-2.3-5.393-4.961 0-3.595 2.3-5.537 8.558-5.537h4.17zm10.068 6.328v-15.604c0-8.916-5.466-12.8-15.39-12.87-10.217 0-14.557 4.303-15.694 9.983l9.51 1.953c.432-2.732 1.439-4.53 5.754-4.53 4.817 0 5.752 2.587 5.752 5.248v2.23H338c-10.93 0-17.688 3.954-17.688 12.439 0 5.753 3.74 11.648 12.726 11.648 6.616 0 9.132-2.445 10.499-4.53 0 .935.216 2.95.505 3.667h9.85c-.216-.862-.503-6.04-.503-9.634m99.48-13.087c-.072-4.315-1.799-7.983-6.831-7.983-4.89 0-6.905 3.381-7.336 7.983zm-14.382 6.326c0 4.675 2.374 9.205 7.48 9.205 4.312 0 5.535-1.725 6.542-3.954h10.283c-1.296 4.53-5.393 12.008-17.041 12.008-12.297 0-17.619-9.132-17.619-18.91 0-11.722 5.969-20.062 17.977-20.062 12.728 0 17.114 9.274 17.114 18.55 0 1.294 0 2.085-.145 3.163zm-11.204 4.387c-1.223 6.184-5.608 12.871-16.683 12.871-11.575 0-17.543-7.982-17.543-19.2 0-11 6.687-19.772 18.048-19.772 12.51 0 16.033 9.06 16.178 13.23h-9.994c-.647-3.02-2.374-5.105-6.4-5.105-4.746 0-7.407 4.099-7.407 11.29 0 7.98 2.877 11.575 7.334 11.575 3.596 0 5.466-2.085 6.4-4.889zm-69.747-15.819c0-3.163 0-6.615-.071-9.418h9.994c.216 1.004.358 3.594.431 4.743 1.223-2.3 4.244-5.606 10.786-5.606 7.478 0 12.295 5.104 12.295 14.451v23.656h-10.281V287.68c0-4.244-1.367-7.263-5.969-7.263-4.385 0-6.83 2.446-6.83 9.059v20.708h-10.355zm-58.17.72c0-3.74 0-6.976-.071-10.14h10.138c.143.863.287 4.53.287 6.545 1.654-4.244 5.609-7.336 11.937-7.407v9.852c-7.478-.218-11.937 1.796-11.937 12.006v16.251h-10.354zm-17.142 27.107v-29.482h-3.029v-7.764h3.03v-3.235c0-7.695 3.81-12.728 11.863-12.728 1.654 0 3.812.144 4.746.431v8.125a18.178 18.178 0 0 0-2.157-.142c-3.02 0-4.17 1.078-4.17 5.103v2.446h5.253v7.764h-5.253v29.482zm180.751 113.051c0 12.092 0 25.67.247 37.023h-34.558c-.492-3.456-.74-10.367-.986-14.807-7.652 12.835-18.76 17.77-35.298 17.77-25.915 0-42.453-15.798-42.453-47.392V332.4h35.295v76.272c0 14.07 4.445 25.672 19.746 25.672 16.044 0 22.71-8.64 22.71-33.817V332.4h35.297zm-159.096-40.973c-.247-14.813-6.172-27.4-23.449-27.4-16.785 0-23.696 11.603-25.176 27.4zm-49.366 21.72c0 16.042 8.146 31.594 25.67 31.594 14.811 0 19.006-5.922 22.463-13.574h35.295c-4.444 15.548-18.512 41.218-58.5 41.218-42.207 0-60.47-31.35-60.47-64.916 0-40.234 20.486-68.866 61.706-68.866 43.688 0 58.744 31.843 58.744 63.683 0 4.444 0 7.157-.492 10.86zm-46.048 56.277h-36.778V290.192h36.778zM98.239 357.826c-20.24 0-27.397 13.08-27.397 39.246 0 21.474 6.418 38.01 26.905 38.01 18.016 0 27.644-16.042 27.644-40.234 0-21.474-8.146-37.022-27.152-37.022m-61.213-77.753h35.545v65.906c5.181-8.146 15.797-16.54 36.529-16.54 34.801 0 52.08 28.88 52.08 64.67 0 36.53-18.759 69.112-55.535 69.112-19.006 0-27.399-5.678-33.57-15.057 0 4.2-.741 8.89-1.48 12.096H36.779c.247-13.825.247-27.893.247-41.714z" fill="#fff"/></svg>