<svg height="471" viewBox="0 0 171.97900000000004 32.408" width="2500" xmlns="http://www.w3.org/2000/svg"><path d="M146.845 21.198a5.88 5.88 0 1 1-11.76 0 5.88 5.88 0 0 1 11.76 0" fill="#0082e6"/><g fill="#232323"><path d="M164.788 11.365l5.637-6.926V.887h-18.867v5.328h10.154l-5.581 6.603v3.83a8.508 8.508 0 0 1 3.73-.888c3.462 0 6.125 2.442 6.125 5.682 0 3.33-2.886 5.638-5.816 5.638-2.352 0-4.482-1.288-5.77-3.107l-4.307 3.596c2.752 3.106 6.437 4.838 10.3 4.838 6.436 0 11.586-4.395 11.586-10.965 0-4.705-2.93-8.434-7.191-10.077M61.739 31.963V10.432h5.55v1.732c1.642-1.332 3.684-2.176 6.081-2.176a9.706 9.706 0 0 1 7.458 3.463c1.42 1.687 2.219 3.862 2.219 7.547v10.965h-5.771V20.555c0-2.131-.488-3.242-1.286-4.04-.756-.756-1.91-1.2-3.241-1.2-2.442 0-4.44 1.555-5.239 2.664v13.984zM123.727 18.423c-.178-1.908-1.908-3.773-4.262-3.773-2.397 0-4.35 1.82-4.617 3.773zm5.372 10.122c-2.087 2.486-5.505 3.863-8.834 3.863-6.437 0-11.277-4.44-11.277-11.188 0-5.993 4.085-11.23 10.477-11.23 5.948 0 10.167 5.014 10.167 11.008a9.45 9.45 0 0 1-.134 1.642h-14.916c.31 3.02 2.753 5.106 5.816 5.106 2.44 0 4.395-1.376 5.415-2.486zM51.274 17.98a6.62 6.62 0 0 0-5.327-2.664c-3.374 0-5.55 2.797-5.55 5.904 0 3.374 2.443 5.86 5.683 5.86 2.175 0 4.084-1.065 5.194-2.663zm5.771 13.984h-5.549v-1.732c-1.776 1.51-3.818 2.175-5.993 2.175-3.197 0-6.216-1.42-8.124-3.64-1.687-1.953-2.753-4.616-2.753-7.547 0-6.348 4.706-11.231 10.567-11.231 2.44 0 4.616.798 6.303 2.175v-1.732h5.55zM107.667 27.568c-2.53 3.374-5.727 4.839-9.766 4.839-6.659 0-11.542-4.972-11.542-11.186 0-6.26 5.015-11.232 11.587-11.232 3.728 0 7.058 1.731 9.055 4.306l-4.085 3.595c-1.153-1.51-2.884-2.575-4.97-2.575-3.33 0-5.816 2.62-5.816 5.906 0 3.373 2.441 5.858 5.948 5.858 2.353 0 4.218-1.419 5.15-2.84zM33.739 15.538c-.4-.134-1.243-.223-2.087-.223-2.53 0-4.528 1.82-5.238 3.108v13.54h-5.771v-21.53h5.55v2.174c1.287-1.598 3.64-2.618 6.259-2.618.843 0 1.331.088 1.953.177zM17.09 5.328a7.378 7.378 0 0 0-1.73-.223c-1.421 0-2.53.4-3.241 1.244-.49.62-.8 1.42-.8 3.418v.666h6.66v4.883h-6.66v16.647H5.55V15.316H0v-4.883h5.549v-.888c0-3.463.799-5.549 2.308-7.015C9.367 1.066 11.63 0 14.56 0c1.155 0 2.22.089 3.419.4z"/></g></svg>