<svg viewBox="0 1.7763568394002505e-15 436 56.699999999999996" xmlns="http://www.w3.org/2000/svg" width="2500" height="325"><path d="M94 27.1c4.6-2.4 7.9-6.6 7.9-12.1.1-9.5-7.3-15-20.2-15H57.3v56.5h26.3c12.6 0 20.5-6.1 20.5-16 0-6.6-4.4-11-10.1-13.4zM81.9 25H66.7V4.7H81c8 0 11.5 3.1 11.5 10.4 0 7-3.2 9.9-10.6 9.9zM66.7 51.8V29.7h15c4.7 0 12.7 1.4 12.7 11 0 7.8-3.5 11.1-11.6 11.1zM0 32.3C0 18.8 10.3 7.9 23 7.9s23 10.9 23 24.4-10.3 24.4-23 24.4S0 45.8 0 32.3zm8.9 0C8.9 44.6 14.2 52 23 52s14-7.4 14-19.7-5.2-19.7-14-19.7S8.9 20 8.9 32.3zm103.2 0c0-13.5 10.3-24.4 23-24.4s23 10.9 23 24.4-10.3 24.4-23 24.4-23-10.9-23-24.4zm8.9 0c0 12.3 5.2 19.7 14 19.7s14-7.4 14-19.7-5.2-19.7-14-19.7-14 7.4-14 19.7zm55.8-19.1H160V8.5h42.1v4.6h-16.9V56h-8.5zm42.3-4.7h-8.5V56h8.5zm32.4 43.4c3.8 0 10.5-1.2 13.4-9.2l.8-2.3 4.1 2.1-.7 1.9c-2.9 7.8-9.4 12.3-18 12.3-12.9 0-22.7-10.5-22.7-24.3 0-13.7 10-24.4 22.7-24.4 8.6 0 15.1 4.5 17.9 12.4l.7 1.9-4.1 2.1-.8-2.3c-2.1-5.9-6.9-9.3-13.3-9.3-8.8 0-14.1 7.3-14.1 19.6 0 12.2 5.3 19.5 14.1 19.5zm107.7-4.5l-2.5-7.2c-1-2.7-2.8-4.9-5.3-6.3 4.4-2 8.3-5.7 8.3-11.6 0-8.6-6.9-13.7-18.4-13.7H324V56h8.5V35.8h7.4c5.4 0 7.2 2.2 8.7 6.5l2.4 6.8c.6 2.1 1.5 4.1 2.7 5.9l.6.9h11.4l-4-3.8c-1.1-1.3-2-2.9-2.5-4.7zm-26.6-34.2h8.2c7.2 0 10.2 2.7 10.2 9.1 0 6.1-3.1 8.9-10.1 8.9h-8.3zm39.5-4.7h8.5V56h-8.5zm40.9-.6c-12.7 0-23 10.9-23 24.4s10.3 24.4 23 24.4c12.6 0 23-10.9 23-24.4S425.6 7.9 413 7.9zm0 4.6c8.8 0 14 7.4 14 19.7S421.7 52 413 52c-8.8 0-14.1-7.3-14.1-19.7s5.3-19.8 14.1-19.8zM295.6 1h5l-3.9 9.2L317 56.1h-9L300.8 40H284l-7 16.1h-5zm-3.3 19.6L286 35.2h12.7c.1 0-6.4-14.6-6.4-14.6z" fill="#6f967e"/></svg>