<svg viewBox="20.086 133.4 335.414 105.79999999999998" xmlns="http://www.w3.org/2000/svg" width="2500" height="-219"><path d="M108.7 179.5c0-8.8 5-13.8 12.2-13.8s12.2 5.1 12.2 13.8c0 8.8-5 14-12.2 14-7.2.1-12.2-5.2-12.2-14zm18.2 0c0-5.4-2.3-8.6-6-8.6s-6 3.2-6 8.6 2.3 8.8 6 8.8 6-3.4 6-8.8zm17.2 11.4h-.1l-.5 2.2h-4.7v-28.9h6.1v7.1l-.2 3.1c1.6-1.4 3.5-2.3 5.4-2.3 5 0 8 4.1 8 10.4 0 7-4.2 11.1-8.6 11.1-1.9 0-3.8-1-5.4-2.7zm7.8-8.3c0-3.7-1.1-5.5-3.6-5.5-1.2 0-2.3.6-3.5 1.8v8.4c1.1 1 2.2 1.3 3.3 1.3 2.1 0 3.8-1.8 3.8-6zm9.7 8.1l2.7-3.8c1.9 1.4 3.6 2.1 5.3 2.1 1.8 0 2.6-.7 2.6-1.8 0-1.3-2-2-4.1-2.8-2.5-1-5.4-2.6-5.4-6 0-3.8 3.1-6.4 7.8-6.4 3.1 0 5.5 1.3 7.2 2.6l-2.7 3.6c-1.5-1.1-2.9-1.7-4.3-1.7-1.6 0-2.3.6-2.3 1.6 0 1.3 1.9 1.8 4 2.6 2.6 1 5.5 2.4 5.5 6.2 0 3.7-2.9 6.6-8.4 6.6-2.8.1-5.9-1.1-7.9-2.8zm19.9-7.8c0-6.6 4.7-10.7 9.6-10.7 5.8 0 8.7 4.2 8.7 9.8 0 1.1-.1 2.2-.3 2.7h-12.2c.5 3 2.6 4.3 5.3 4.3 1.5 0 2.9-.5 4.4-1.3l2 3.7c-2.1 1.4-4.8 2.3-7.3 2.3-5.7-.1-10.2-4.1-10.2-10.8zm13.2-2.3c0-2.2-1-3.9-3.4-3.9-1.9 0-3.6 1.3-4 3.9zm10.3-8h4.9l.4 3.6h.1c1.5-2.7 3.7-4.1 5.8-4.1 1.2 0 1.8.2 2.4.4l-1 5.2c-.7-.2-1.3-.3-2.2-.3-1.5 0-3.4 1-4.5 3.8V193H205zm15.3 0h6.1l2.7 9.7c.5 2 1.1 4.1 1.6 6.3h.2c.5-2.1 1.1-4.3 1.6-6.3l2.7-9.7h5.8l-6.7 20.4h-7zm23.8 14.8c0-4.3 3.4-6.6 11.5-7.5-.1-1.8-1-3-3.2-3-1.7 0-3.4.7-5.4 1.8l-2.2-4c2.6-1.6 5.5-2.7 8.7-2.7 5.2 0 8.1 3 8.1 9.3V193h-4.9l-.4-2.1h-.2c-1.7 1.5-3.7 2.6-5.9 2.6-3.7.1-6.1-2.7-6.1-6.1zm11.5-.3v-3.6c-4.3.6-5.7 1.8-5.7 3.4 0 1.3.9 2 2.3 2s2.4-.7 3.4-1.8zm13-1.5v-8.3h-2.8v-4.5l3.1-.2.7-5.4h5v5.4h4.9v4.8h-4.9v8.2c0 2.3 1.1 3.2 2.6 3.2.7 0 1.4-.2 1.9-.4l1 4.4c-1.1.3-2.6.7-4.5.7-5 .1-7-3.1-7-7.9zm14.8-2.7c0-6.8 4.8-10.7 10-10.7s10 3.9 10 10.7-4.8 10.7-10 10.7-10-4-10-10.7zm13.8 0c0-3.5-1.2-5.8-3.8-5.8s-3.8 2.3-3.8 5.8 1.2 5.8 3.8 5.8 3.8-2.3 3.8-5.8zm10.9-16.4c0-1.9 1.5-3.2 3.5-3.2s3.5 1.3 3.5 3.2c0 1.8-1.5 3.2-3.5 3.2-2.1-.1-3.5-1.4-3.5-3.2zm.4 6.1h6.1V193h-6.1zm12.4 0h4.9l.4 3.6h.1c1.5-2.7 3.7-4.1 5.8-4.1 1.2 0 1.8.2 2.4.4l-1 5.2c-.7-.2-1.3-.3-2.2-.3-1.5 0-3.4 1-4.5 3.8V193h-6.1v-20.4zm16.3 10.3c0-6.6 4.7-10.7 9.6-10.7 5.8 0 8.7 4.2 8.7 9.8 0 1.1-.1 2.2-.3 2.7H343c.5 3 2.6 4.3 5.3 4.3 1.5 0 2.9-.5 4.4-1.3l2 3.7c-2.1 1.4-4.8 2.3-7.3 2.3-5.7-.1-10.2-4.1-10.2-10.8zm13.2-2.3c0-2.2-1-3.9-3.4-3.9-1.9 0-3.6 1.3-4 3.9zM109 226.2c0-6.4 4.1-10.4 8.8-10.4 2.4 0 4 .9 6 2.4l-.1-3.6v-8.2h1.8V236H124l-.2-2.6h-.1c-1.6 1.6-3.8 3.1-6.5 3.1-5 .1-8.2-3.6-8.2-10.3zm14.6 5.5V220c-2.1-1.9-3.8-2.5-5.8-2.5-3.9 0-7 3.8-7 8.8 0 5.3 2.3 8.7 6.5 8.7 2.3 0 4.3-1.2 6.3-3.3zm10.2-2.7v-12.7h1.8v12.5c0 4.2 1.3 6.2 4.5 6.2 2.4 0 4.1-1.2 6.4-4v-14.6h1.8v19.8h-1.5l-.2-3.3h-.1c-1.9 2.3-4 3.8-6.7 3.8-4.1-.1-6-2.6-6-7.7zm29.2-19.8h6.2l1.9 12.5c.4 2.8.7 5.7 1.1 8.5h.2c.5-2.8 1.1-5.7 1.6-8.5l2.9-12.5h5.2l2.9 12.5c.5 2.7 1.1 5.6 1.6 8.5h.2c.4-2.9.7-5.7 1.1-8.5l1.9-12.5h5.8l-4.8 26.9h-7.6l-2.6-12.2c-.4-2.1-.8-4.2-1.1-6.2h-.2c-.3 2-.7 4.2-1.1 6.2l-2.5 12.2h-7.5zm35.4 16.7c0-6.8 4.8-10.7 10-10.7s10 3.9 10 10.7-4.8 10.7-10 10.7-10-4-10-10.7zm13.7 0c0-3.5-1.2-5.8-3.8-5.8s-3.8 2.3-3.8 5.8 1.2 5.8 3.8 5.8 3.8-2.3 3.8-5.8zm11.4-18.7h5.9v16.5h.2l6.5-8.1h6.6l-7.2 8.4 7.7 12h-6.6l-4.6-8-2.6 2.9v5h-5.9zm23.2 2.3c0-1.9 1.5-3.2 3.5-3.2s3.5 1.3 3.5 3.2c0 1.8-1.5 3.2-3.5 3.2-2.1-.1-3.5-1.4-3.5-3.2zm.4 6.1h6.1V236h-6.1zm10.6 18.1l2.7-3.8c1.9 1.4 3.6 2.1 5.3 2.1 1.8 0 2.6-.7 2.6-1.8 0-1.3-2-2-4.1-2.8-2.5-1-5.4-2.6-5.4-6 0-3.8 3.1-6.4 7.8-6.4 3.1 0 5.5 1.3 7.2 2.6l-2.7 3.6c-1.5-1.1-2.9-1.7-4.3-1.7-1.6 0-2.3.6-2.3 1.6 0 1.3 1.9 1.8 4 2.6 2.6 1 5.5 2.4 5.5 6.2 0 3.7-2.9 6.6-8.4 6.6-2.7.1-5.8-1.1-7.9-2.8zm21.1-18.1h4.9l.4 2.6h.1c1.7-1.7 3.5-3.1 6.2-3.1 2.9 0 4.6 1.2 5.6 3.4 1.8-1.9 3.7-3.4 6.4-3.4 4.4 0 6.4 3.1 6.4 8.2V236h-6.1v-11.9c0-2.9-.8-3.9-2.5-3.9-1 0-2.2.6-3.5 2V236h-6.1v-11.9c0-2.9-.8-3.9-2.5-3.9-1 0-2.2.6-3.5 2V236h-6.1v-20.4zm35.2 10.3c0-6.6 4.7-10.7 9.6-10.7 5.8 0 8.7 4.2 8.7 9.8 0 1.1-.1 2.2-.3 2.7h-12.2c.5 3 2.6 4.3 5.3 4.3 1.5 0 2.9-.5 4.4-1.3l2 3.7c-2.1 1.5-4.8 2.3-7.3 2.3-5.7-.1-10.2-4.1-10.2-10.8zm13.2-2.3c0-2.2-1-3.9-3.4-3.9-1.9 0-3.6 1.3-4 3.9z" fill="#1c2341"/><circle cx="95.7" cy="139.8" fill="#fff" r="6.4"/><path d="M40.1 203.6h35.6v35.6H40.1zm0 0h35.6L57.9 168z" fill="#1c2341"/><path d="M57.951 198.378l12.586-12.587 25.174 25.173-12.587 12.586zM20.14 160.604l12.587-12.586L57.9 173.19l-12.586 12.587z" fill="#e5252c"/><path d="M50.07 181.062l3.112-3.111 12.587 12.586-3.112 3.111z" fill="#fff"/><path d="M45.26 185.796l12.586 12.587-25.174 25.173-12.586-12.587zM83.07 148.023l12.586 12.586-25.174 25.173-12.586-12.587z" fill="#e5252c"/><g fill="#fff"><path d="M62.614 177.956l3.112 3.11-12.587 12.587-3.111-3.111zM51.8 220.5h12.3v12.3H51.8z"/><circle cx="57.9" cy="220.5" r="6.2"/></g></svg>