<svg viewBox="1 0.993 400.0000000000006 121.00700000000006" xmlns="http://www.w3.org/2000/svg" width="2500" height="752"><path d="M120 122H1c0-16.02 0-32.041.277-48.36.746.919 1.215 2.136 1.677 3.72.544 2.16 1.095 3.955 1.728 6.105.784 2.076 1.486 3.798 2.228 5.85.666 1.467 1.293 2.603 1.985 4.046.84 1.459 1.616 2.612 2.51 4.09 1.217 1.723 2.314 3.123 3.536 4.842 1.798 2.056 3.471 3.791 5.33 5.805 2.927 2.21 5.669 4.142 8.635 6.354 6.507 3.999 13.127 6.243 19.703 5.635-3.15-3.682-6.363-7.436-9.622-11.488-.66-1.082-1.273-1.866-1.935-2.973-.714-1.425-1.378-2.527-2.063-3.97-.676-1.778-1.331-3.217-2-5.03-.969-2.644-1.924-4.914-2.86-7.428-.086-.551-.152-.868-.084-1.567-.159-1.837-.414-3.301-.691-5.183-.199-2.087-.375-3.756-.507-5.805-.219-1.811-.483-3.242-.743-5.116-.075-2.809-.153-5.174-.183-7.934.026-1.452.004-2.51.025-3.828.03-.436.018-.611.06-1.182.025-1.46-.003-2.523.102-3.912.203-1.449.272-2.573.493-4.09.197-1.793.243-3.19.364-4.953.097-1.104.118-1.845.361-2.88.35-1.781.48-3.267.716-5.082.328-1.446.55-2.563.902-4.023.483-1.759.837-3.174 1.409-4.81.446-1.225.675-2.23 1.168-3.47 1.052-1.926 1.84-3.614 2.877-5.47.713-1.04 1.177-1.913 1.917-2.977 4.128-4.304 7.978-8.416 12.2-12.924-8.886.473-16.737 2.619-23.957 7.877-2.407 1.767-4.483 3.449-6.873 5.245-1.964 1.994-3.614 3.872-5.522 5.946-1.482 2.033-2.706 3.87-4.156 5.895-.839 1.474-1.451 2.76-2.295 4.303-.81 1.759-1.39 3.26-2.16 4.978-.393.95-.594 1.684-1.019 2.695-.623 1.872-1.022 3.467-1.533 5.39-.418 1.442-.725 2.555-1.275 3.665C1.484 49.983 1 50 1 50V1c79.02 0 158.042 0 237.534.14.47.141.48.423.156.598-2.14 3.541-3.958 6.907-6.022 10.502-1.17 2.037-2.091 3.845-3.263 5.855-1.002 1.718-1.756 3.235-2.776 4.967-1.226 2.084-2.184 3.952-3.363 6.042-.952 1.712-1.684 3.202-2.669 4.917.223 2.855.697 5.485 1.259 8.448.543 1.39 1 2.45 1.509 3.823.84 1.806 1.63 3.297 2.463 5.148 1.005 2.465 1.966 4.569 2.99 7.04 1.422 3.438 2.78 6.509 4.17 9.898.394 1.089.756 1.859 1.13 2.946.609 1.433 1.207 2.547 1.84 4.004.687 1.783 1.337 3.225 2.022 5.028.98 2.522 1.925 4.682 2.922 7.18.67 1.8 1.287 3.261 1.932 5.066.686 1.77 1.345 3.197 2.054 4.924.658 1.349 1.265 2.398 1.932 3.786.702 1.785 1.344 3.23 1.993 5.005.174 1.397.34 2.464.446 3.925-.089 1.698-.118 3.002-.352 4.556-.561 1.5-.917 2.75-1.454 4.14-.337.399-.476.668-.85 1.121-.368.763-.486 1.352-.603 1.941-3.693 0-7.386 0-11.498-.315-.778-.774-1.137-1.232-1.708-1.83-.364-.212-.517-.283-.84-.621-2.655-2.826-5.138-5.384-7.722-8.209-.779-1.199-1.457-2.131-2.175-3.402-.725-1.765-1.411-3.192-2.11-4.961-.686-1.78-1.358-3.219-2.05-5.006-.844-2.022-1.67-3.695-2.52-5.593-.1-.521-.218-.8-.395-1.404-.685-1.779-1.35-3.217-2.032-4.995-.686-1.778-1.356-3.216-2.032-4.978-.638-1.446-1.27-2.567-1.886-4.037-.672-1.782-1.36-3.214-2.041-4.978-.596-1.467-1.2-2.602-1.839-4.109-1.001-2.791-1.967-5.211-2.988-7.975-.691-1.77-1.328-3.195-2.008-4.98-.765-2.11-1.486-3.862-2.228-5.954-.691-1.78-1.361-3.22-2.046-4.993-.868-2.096-1.722-3.86-2.623-5.967-.676-1.783-1.304-3.224-1.971-4.992-.389-1.116-.738-1.906-1.23-3.022-.73-1.797-1.318-3.266-2.055-5.062a62.446 62.446 0 0 1-1.329-3.954c-.798-1.953-1.543-3.577-2.337-5.472-.334-.941-.62-1.611-.993-2.663-1.262-3.51-2.435-6.638-4.207-11.36-2.545 4.823-4.395 8.328-6.489 12.047-.822 1.368-1.401 2.522-2.222 3.894-.81 1.397-1.38 2.575-2.16 3.965-.83 1.446-1.45 2.68-2.25 4.17-.504 1.013-.83 1.772-1.408 2.748-1.008 1.812-1.764 3.406-2.728 5.275-.466 2.104-.722 3.934-.947 6.124.918 2.312 1.803 4.264 2.74 6.535.534 1.56 1.018 2.804 1.56 4.384.927 2.177 1.797 4.017 2.711 6.191.661 1.754 1.277 3.173 1.966 4.937 1.048 2.413 2.024 4.482 3.036 6.891.68 1.78 1.325 3.22 2.006 4.985.584 1.469 1.131 2.612 1.741 4.093.7 1.746 1.338 3.152 2.022 4.903.7 1.78 1.353 3.216 2.044 5.019.68 1.92 1.32 3.474 1.998 5.322.35.997.665 1.7 1.025 2.76.72 1.841 1.394 3.324 2.095 5.108.354 1.026.682 1.75 1.025 2.816.46 1.805.906 3.27 1.362 4.965.012.23.32.573.298.885.026.515.073.718.076 1.3.016 1.396.077 2.41-.064 3.727-.409 1.754-.616 3.206-1.032 4.876-.333.794-.457 1.37-.631 2.19-.05.244.089.722.089.722-12.688 0-25.375 0-38.368-.119-.306-.119-.436-.5-.469-.894-.72-.664-1.407-.935-2.106-1.553-1.575-2.596-3.139-4.843-4.775-7.381-.483-1.21-.893-2.13-1.298-3.429-.364-1.65-.503-3.056-1.157-4.158-.893-1.505-2.177-2.779-3.293-4.152-1.164 1.234-2.447 2.379-3.455 3.729-.883 1.181-1.457 2.593-2.443 4.038-.812 1.2-1.349 2.263-2.15 3.55-2.377 2.775-4.488 5.328-6.923 8.104-.469.704-.612 1.185-.816 1.85-.062.185.253.415.253.415m-13.822-96.718c-.382-.43-.764-.86-1.343-1.917-1.748-1.837-3.496-3.674-5.591-6.126-2.534-1.828-5.067-3.655-8.07-6.099C84.17 8.392 77.605 3.883 71.1 4.85c2.67 3.285 5.68 6.988 8.867 11.302.947 1.414 1.895 2.828 2.947 4.889.614 1.36 1.228 2.722 1.955 4.726.296.77.592 1.539 1.042 2.982.369 1.083.738 2.165 1.072 3.988.34 1.42.679 2.842.956 5.067.255 1.786.51 3.572.868 6.16.15 1.337.3 2.675.34 4.746.257 1.433.513 2.866.693 5.128.076 1.385.151 2.769.13 4.983.03 1.39.06 2.78.006 5.068.004 2.703.01 5.406-.087 8.903.006 1.065.012 2.13-.246 3.787-.007 1.45-.015 2.9-.277 4.975-.198 1.109-.396 2.218-1.12 3.897-.137 1.833-.275 3.665-.834 6.034-.23 1.124-.461 2.247-1.179 3.884-.492 1.851-.983 3.703-1.894 5.938-.148.545-.296 1.089-.957 2.064-1.174 2.19-2.349 4.38-4.064 6.948l-7.912 9.131c8.989.687 16.066-2.569 23.292-7.573 2.04-1.855 4.082-3.71 6.647-5.832 1.27-1.688 2.542-3.376 4.294-5.409.488-.826.977-1.653 1.996-2.905 1.122-2.243 2.245-4.486 3.887-7.19.534-1.52 1.068-3.042 2.006-5.1.478-1.478.956-2.956 1.792-5.087.274-1.456.549-2.912 1.144-5.022.197-1.446.393-2.893.912-5.064.168-2.428.335-4.855.591-8.027-.186-1.452-.373-2.903-.671-5.167-.129-1.361-.257-2.723-.34-4.854-.402-1.747-.803-3.494-1.18-5.902-.56-1.435-1.12-2.87-1.724-5.006-.623-1.457-1.246-2.914-2.029-5.016-.785-1.49-1.57-2.98-2.498-5.174-1.046-1.763-2.091-3.526-3.348-5.84z" fill="#fffefe"/><path d="M239.015 1.563s-.01-.282-.013-.422C291.667 1 344.333.993 397 1.04c1.334.002 2.667.626 3.566 1.658-10.941.699-21.449.699-33.142.699 1.824 1.72 2.726 2.571 3.77 3.725 1.712 2.155 3.283 4.007 4.943 6.181 1.325 2.157 2.56 3.991 3.843 6.18 1.19 2.769 2.335 5.184 3.962 8.618 1.806-3.542 3.086-6.054 4.616-8.817 1.413-2.555 2.577-4.86 4.048-7.227 1.436-1.432 2.565-2.8 3.992-4.35A208.134 208.134 0 0 0 401 4c0 23.02 0 46.042-.136 69.507-.136.444-.413.446-.92.39-14.71-.056-28.911-.056-44.425-.056 3.72 2.998 6.365 5.13 9.187 7.55 1.18 1.724 2.182 3.161 3.213 4.92.63 1.436 1.232 2.551 1.864 4.017.378 1.456.725 2.561 1.066 4.048.258 2.116.523 3.85.72 6.01-.037 2.144-.006 3.862-.092 5.9-.191 1.454-.265 2.588-.469 4.044-.44 1.431-.752 2.54-1.31 3.868-1.73 2.746-3.214 5.274-4.698 7.802-24.354 0-48.708 0-73.385-.103-.323-.104-.425-.447-.372-.799-.284-.65-.622-.948-1.117-1.543-2.048-2.088-3.938-3.881-5.877-6.02-.791-1.738-1.533-3.13-2.296-4.842-.693-1.109-1.364-1.898-1.955-3.032-.493-1.823-1.068-3.3-1.704-5.131-.84-2.074-1.617-3.796-2.406-5.86-.883-2.166-1.753-3.991-2.669-6.143-.667-1.433-1.29-2.54-1.947-4.012-.732-2.113-1.43-3.86-2.288-5.917-.5-1.4-.837-2.49-1.238-3.91-.687-1.777-1.31-3.223-1.996-4.963-.66-1.102-1.258-1.908-1.81-3.095-1.177-3.493-2.4-6.606-3.724-10.061-.79-2.082-1.48-3.822-2.207-5.923-.968-2.53-1.9-4.7-2.864-7.179-.38-1.034-.725-1.757-1.172-2.823-.776-2.113-1.449-3.884-2.134-5.974-.734-1.821-1.457-3.324-2.228-5.187-.738-2.109-1.428-3.859-2.21-5.962-.83-2.087-1.568-3.819-2.33-5.91-.758-2.112-1.491-3.866-2.248-5.98-1.284-3.597-2.546-6.833-3.808-10.068m87.528 114.874c7.083 3.291 14.438 4.85 22.691 4.053-3.73-2.188-6.882-4.038-10.41-6.436-1.81-1.582-3.62-3.165-5.583-5.371-1.344-1.755-2.688-3.511-4.096-5.897-.725-1.257-1.45-2.514-2.216-4.422-.568-1.146-1.136-2.292-1.779-4.16-.687-1.74-1.375-3.479-2.001-5.989-.43-1.732-.86-3.464-1.218-5.891-.303-1.109-.606-2.218-.86-4.066-.273-1.433-.547-2.865-.8-5.093-.07-1.057-.14-2.115-.18-4.004-.05-1.384-.101-2.769-.069-5.04-.014-2.375-.029-4.75.063-7.918a277.3 277.3 0 0 1-.016-3.942c.257-1.425.513-2.85.926-5.01.016-.75.032-1.499.364-2.912.195-1.448.39-2.895.741-4.963.031-.423.061-.847.534-1.823.17-1.17.338-2.34.953-4.06.102-1.166.205-2.332.588-4.1.602-1.135 1.204-2.27 2.286-3.869.885-1.828 1.77-3.657 3.174-5.834.81-1.218 1.619-2.436 2.994-4.025L347.13 3.889c-10.737.45-20.143 3.467-28.946 10.21-1.62 1.562-3.242 3.125-5.483 4.693-1.295 1.307-2.59 2.613-4.447 4.291-1.468 1.972-2.937 3.943-4.89 6.29-.476.845-.952 1.691-1.932 2.927-.538 1.145-1.075 2.29-2.1 3.916-.483 1.266-.965 2.532-1.823 4.32-.26 1.026-.521 2.052-1.227 3.597-.373 1.285-.746 2.569-1.332 4.514-.241 1.112-.482 2.223-.896 4.159-.044 1.402-.088 2.804-.438 4.89.069 2.424.137 4.85.17 8.081.059 1.073.118 2.146.145 3.954.29 1.412.578 2.824.872 5.008.35 1.429.7 2.857 1.087 5.027.663 1.795 1.326 3.59 2.068 6.048.663 1.393 1.327 2.786 2.074 4.828.923 1.445 1.846 2.89 2.887 5.037 1.668 2.147 3.335 4.294 5.28 7.035 1.913 1.803 3.827 3.606 6.086 5.962 2.165 1.474 4.33 2.947 6.937 4.944 1.595.785 3.19 1.57 5.32 2.817z" fill="#fffefe"/><path d="M400.45 73.953s.278-.002.414.022C401 89.912 401 105.824 401 122c-10.353 0-20.708 0-31.33-.365 7.662-2.002 15.59-3.64 23.87-5.41 1.116-2.169 1.88-4.204 2.747-6.63.063-1.469.022-2.546.046-3.75.066-.127-.023-.4.138-.8.077-3.933-.006-7.467.048-11.39.05-1.475-.038-2.56.003-4.044.047-1.789-.035-3.177.01-4.952.168-1.468.211-2.549.374-3.97 1.261-2.472 2.403-4.604 3.545-6.736z" fill="#fcfaf5"/><path d="M27.873 63.988c.078 2.365.156 4.73-.248 7.549C18.43 71.66 9.715 71.33 1 71c0-2.042 0-4.083.469-6.563 9.113-.441 17.759-.445 26.404-.45z" fill="#eee392"/><path d="M393.188 116.358c-7.928 1.638-15.856 3.275-23.986 5.277-1.269.365-2.335.365-3.802.365 1.084-2.528 2.567-5.056 4.77-7.796 5.552-.21 10.405-.47 15.21-.1 2.644.204 5.207 1.468 7.808 2.254z" fill="#b08a47"/><path d="M1 71.333c8.715-.003 17.43.327 26.622.647.742 1.421 1.006 2.852.775 4.656-8.809.368-17.123.363-25.436.357-.469-1.217-.938-2.434-1.684-3.822C1 72.556 1 72.11 1 71.333z" fill="#e9dc8b"/><path d="M1 50.417c0-.417.484-.434 1.197-.429 9.226.333 17.74.66 26.252.987-.069 1.123-.138 2.247-.754 3.643-8.929.309-17.312.345-25.945.381L1 55v-4.583z" fill="#decb7d"/><path d="M2 55c8.383-.037 16.766-.073 25.562-.057.441 1.117.469 2.18.064 3.474C18.463 58.432 9.731 58.216 1 58c0 0 0-.5.246-.916.416-.972.585-1.528.754-2.084z" fill="#e2d082"/><path d="M27.92 63.593c-8.692.399-17.338.403-26.451.407-.469-.75-.469-1.5 0-2.625 3.593-.375 6.723-.265 9.842-.4 5.534-.238 11.061-.625 16.591-.95.023 1.058.045 2.116.019 3.568z" fill="#e9dc8b"/><path d="M27.946 59.765a270.7 270.7 0 0 1-16.635 1.21C8.19 61.11 5.062 61 1.469 61 1 60.25 1 59.5 1 58.375c8.731-.159 17.463.057 26.573.438.391.341.404.516.373.952z" fill="#e8da8a"/><path d="M401 3.75c-1.368 1.426-2.736 2.601-4.506 3.49-1.238-.922-2.06-2.088-2.91-2.108a430.81 430.81 0 0 0-19.768-.019c-.934.02-1.843 1.111-2.764 1.707l-3.628-3.422c11.693 0 22.2 0 33.142-.2C401 3 401 3.5 401 3.75z" fill="#a9803b"/><path d="M187.469 122c-.469 0-.607-.478-.22-.728.835-.28 1.284-.31 2.2-.302 14.502.018 28.535-.001 42.808-.087.547-.255.716-.53.748-.889.36.459.72.917 1.037 1.69-15.396.316-30.75.316-46.573.316zM291.19 121.45s.102.343-.044.447c-14.834.103-29.521.103-44.677.103-.352-.589-.234-1.178.286-1.651 1.012.272 1.62.43 2.698.625 13.503.016 26.538-.003 39.944.018.845.18 1.319.319 1.793.458zM120.469 122c-.469 0-.784-.23-.445-.57.546-.387.75-.436 1.425-.453 8.504.005 16.54-.021 24.945-.01.847.162 1.325.288 1.802.413 0 0 .13.382-.033.501-9.184.119-18.205.119-27.694.119z" fill="#cdb68e"/><path d="M1.75 55c.08.556-.088 1.112-.504 1.834C1 56.556 1 56.11 1 55.334c0-.334.5-.336.75-.335z" fill="#e8da8a"/><path d="M260.316 56.91c1.224 3.114 2.447 6.227 3.166 9.716-8.8.376-17.096.316-25.39.422-1.716.022-3.424.659-5.136 1.012-1.358-3.071-2.716-6.142-3.7-9.659 2.48-.764 4.583-1.323 6.695-1.358 8.12-.135 16.243-.102 24.365-.132z" fill="#ede291"/><path d="M232.016 120.95c-14.032.019-28.065.038-42.593-.3a16.487 16.487 0 0 1-1.672-1.78c.207-1.452.414-2.904 1.308-4.632 10.307-.264 19.93-.105 29.543-.362 1.932-.051 3.822-1.682 5.73-2.584 2.484 2.558 4.967 5.116 7.59 8.304.124.87.11 1.112.094 1.353z" fill="#b28c48"/><path d="M172.91 67.989c-.976-2.069-1.952-4.138-2.603-6.73 2.099-.769 3.87-1.208 5.646-1.227 8.755-.095 17.511-.078 26.267-.1.965 2.419 1.93 4.839 2.446 7.652-10.886.398-21.32.401-31.756.405zM117.88 62.985c-.168 2.428-.335 4.855-1.093 7.657-9.325.702-18.06 1.029-26.796 1.356-.005-2.703-.01-5.406.49-8.555 9.47-.45 18.434-.454 27.398-.458z" fill="#eee392"/><path d="M289.026 120.95c-13.035.02-26.07.04-39.61-.312-.93-.86-1.356-1.35-1.783-1.839.357-1.25.713-2.5 1.807-3.868 12.111-.427 23.485-.739 34.858-1.05 1.89 1.793 3.78 3.586 5.567 5.796-.348.704-.594.989-.84 1.274z" fill="#b08a47"/><path d="M224.232 111.025c-1.808 1.17-3.698 2.8-5.63 2.851-9.613.257-19.236.098-29.341.06-.546-1.04-.607-2.055-.396-3.564.088-.829-.096-1.164-.28-1.499 0 0-.31-.343.21-.583 11.446-.27 22.374-.299 33.302-.328a66.23 66.23 0 0 1 2.135 3.063z" fill="#b89550"/><path d="M251.85 34.988c.674 1.772 1.347 3.543 1.648 5.66-7.773.349-15.176.242-22.572.403-3.059.066-6.105.706-9.157 1.084-.475-2.63-.95-5.26-.882-7.785 10.683.281 20.823.46 30.964.638z" fill="#d2ba6e"/><path d="M197.95 48.993c.72 1.752 1.441 3.504 1.718 5.625-9.2.373-17.955.317-26.709.434-1.691.023-3.373.725-5.06 1.114-.87-1.84-1.739-3.679-2.267-5.91 2.273-.68 4.202-1.196 6.136-1.216 8.726-.093 17.454-.045 26.182-.047z" fill="#e2d082"/><path d="M260.216 56.569c-8.022.372-16.145.339-24.265.474-2.112.035-4.215.594-6.759.992-1.398-2.026-2.359-4.13-2.875-6.62 10.872-.394 21.3-.401 31.729-.408.69 1.74 1.38 3.48 2.17 5.562z" fill="#e5d686"/><path d="M163.621 45.607c-.885-1.952-1.77-3.904-2.264-6.274 2.326-.723 4.259-1.271 6.196-1.29 8.584-.086 17.17-.019 25.754-.007.853 1.764 1.707 3.528 2.115 5.626-9.268.335-18.093.256-26.914.41-1.638.028-3.258 1-4.887 1.535z" fill="#d4bc70"/><path d="M258.01 50.646c-10.392.368-20.82.375-31.738.408-1.277-1.465-2.066-2.956-2.511-4.77 8.86-.644 17.381-.905 25.893-1.33 1.856-.092 3.683-.769 5.524-1.176.931 2.169 1.863 4.337 2.831 6.868z" fill="#decb7d"/><path d="M167.944 56.501c1.642-.724 3.324-1.426 5.015-1.449 8.754-.117 17.51-.06 26.752-.076 1.125 1.416 1.762 2.842 2.453 4.611-8.7.367-17.456.35-26.21.445-1.777.02-3.548.458-5.72.882-1.013-1.24-1.629-2.659-2.29-4.413z" fill="#e8da8a"/><path d="M163.672 45.926c1.578-.855 3.198-1.826 4.836-1.854 8.82-.154 17.646-.075 26.93-.078 1.129 1.439 1.799 2.879 2.49 4.659-8.706.342-17.434.294-26.16.387-1.934.02-3.863.536-6.194.878-.883-1.188-1.367-2.431-1.902-3.992z" fill="#dbc679"/><path d="M222.057 107.623c-10.888.368-21.816.398-33.274.437-.975-1.455-1.42-2.92-1.403-4.724 11.17-.338 21.875-.335 32.58-.333.686 1.428 1.372 2.855 2.097 4.62z" fill="#be9e57"/><path d="M273.264 88.854c.87 1.825 1.741 3.65 2.217 5.871-8.63.69-16.866.92-25.094 1.321-1.864.091-3.7.771-5.55 1.18-.658-1.427-1.317-2.855-1.711-4.961 7.046-.875 13.843-.877 20.606-1.35 3.21-.224 6.357-1.346 9.532-2.06z" fill="#ccb167"/><path d="M284.25 113.535c-11.325.657-22.699.969-34.605 1.147-.504-1.438-.475-2.742.144-4.388 7.375-.326 14.164-.196 20.946-.338 3.751-.079 7.493-.614 11.239-.943.742 1.392 1.484 2.784 2.275 4.522z" fill="#b5904c"/><path d="M269.145 78.908c.697 1.747 1.395 3.494 1.677 5.651-8.427.753-16.442 1.038-24.449 1.484-1.857.103-3.683.756-5.523 1.156-.945-2.16-1.89-4.321-2.449-6.79 7.493-.01 14.603.529 21.709.477 3.016-.021 6.024-1.281 9.035-1.978zM180.722 86.962c-.654-1.436-1.307-2.872-1.503-4.64 10.873-.66 21.289-.985 31.704-1.31.67 1.436 1.341 2.874 1.601 4.652-10.874.66-21.338.978-31.802 1.298z" fill="#d8c276"/><path d="M244.888 97.526c1.798-.709 3.635-1.389 5.5-1.48 8.227-.4 16.464-.631 25.105-.978 1.184 1.666 1.961 3.388 2.302 5.497-10.635.394-20.835.4-31.035.407-.607-1.048-1.214-2.097-1.872-3.446z" fill="#c5a75f"/><path d="M172.946 68.33c10.4-.345 20.834-.348 31.756-.374 1.09 1.113 1.693 2.248 1.875 3.768-2.368.682-4.312 1.214-6.261 1.235-8.466.09-16.933.033-25.4.029-.645-1.44-1.29-2.879-1.97-4.659z" fill="#e9dc8b"/><path d="M210.918 80.686c-10.41.65-20.826.977-31.746 1.29-1.141-1.417-1.779-2.823-1.974-4.589 10.9-.369 21.36-.379 31.819-.389.631 1.121 1.263 2.242 1.9 3.688z" fill="#decb7d"/><path d="M89.918 53.01c-.257-1.434-.513-2.867-.314-4.674 9.02-.702 17.584-1.03 26.148-1.357.402 1.747.803 3.494.722 5.63-9.175.392-17.866.396-26.556.4z" fill="#dcc87b"/><path d="M265.813 70.02c.623 1.445 1.246 2.891 1.527 4.675-10.7.323-21.06.307-31.418.291-.597-1.115-1.195-2.23-1.345-3.664 10.71-.647 20.973-.975 31.236-1.302z" fill="#e4d485"/><path d="M193.26 37.693c-8.538.331-17.123.264-25.707.35-1.937.019-3.87.567-6.228.93-.167-1.772.09-3.602 1.016-5.704 10.109-.261 19.547-.25 28.986-.24.628 1.44 1.256 2.88 1.932 4.664z" fill="#ceb469"/><path d="M117.924 62.613c-9.009.376-17.973.38-27.4.382-.493-1.394-.523-2.784-.082-4.588 4.226-.744 7.982-1.353 11.735-1.338 5.078.021 10.154.522 15.231.817.187 1.452.374 2.903.516 4.727z" fill="#e8da8a"/><path d="M246.82 101.312c10.14-.346 20.34-.353 31.038-.395 1.072 1.443 1.647 2.92 1.677 4.741-10.605.338-20.668.333-30.73.328-.641-1.445-1.283-2.89-1.985-4.674z" fill="#be9e57"/><path d="M240.902 87.537c1.788-.738 3.614-1.39 5.471-1.494 8.007-.446 16.022-.731 24.484-1.118 1.072 1.062 1.695 2.169 2.362 3.602-3.13 1.042-6.277 2.164-9.487 2.388-6.763.473-13.56.475-20.634 1.007-.91-1.125-1.527-2.586-2.196-4.385z" fill="#d2ba6e"/><path d="M235.959 75.328c10.322-.326 20.68-.31 31.444-.301.744 1.082 1.082 2.171 1.58 3.57-2.85 1.008-5.857 2.268-8.873 2.29-7.106.05-14.216-.488-21.744-.84-1.071-1.494-1.721-2.936-2.407-4.72z" fill="#decb7d"/><path d="M2.954 77.36c8.32-.361 16.634-.356 25.398-.344.627 1.676.803 3.345.498 5.472-8.404.514-16.327.567-24.25.621-.55-1.794-1.102-3.588-1.646-5.749z" fill="#e2d082"/><path d="M251.839 34.67a490.4 490.4 0 0 1-30.7-.545c.443-1.819 1.175-3.309 2.594-4.984 9.1.111 17.513.406 25.927.702.722 1.503 1.445 3.006 2.179 4.827z" fill="#ccb167"/><path d="M146.024 120.93c-8.036.026-16.07.052-24.594-.312-.507-.629-.524-.868-.542-1.107 2.11-2.552 4.221-5.105 6.697-7.46 3.923 4.11 9.62 4.15 13.77.293 1.563 2.247 3.127 4.494 4.686 7.376a86.625 86.625 0 0 1-.017 1.21z" fill="#b38e4b"/><path d="M249.611 29.483c-8.365.064-16.778-.231-25.658-.564.492-1.905 1.45-3.773 2.964-5.536 7.229.234 13.902.363 20.576.492.69 1.75 1.38 3.499 2.118 5.608z" fill="#c4a65e"/><path d="M180.76 87.329c10.426-.687 20.89-1.006 31.78-1.325 1.092 1.438 1.757 2.876 1.973 4.655-9.23.34-18.012.271-26.79.402-1.673.025-3.335.844-5.002 1.296-.641-1.554-1.283-3.108-1.962-5.028z" fill="#d2ba6e"/><path d="M26.89 11.784c6.888-5.173 14.74-7.32 23.625-7.792-4.222 4.508-8.072 8.62-12.223 12.509-1.633-.982-2.897-1.917-4.311-2.46-2.312-.887-4.722-1.518-7.091-2.257z" fill="#af894a"/><path d="M219.947 102.662c-10.692.339-21.398.336-32.582.333-.806-.725-1.134-1.45-1.2-2.807 10.757-1.15 21.255-1.666 31.752-2.183.672 1.438 1.344 2.877 2.03 4.657z" fill="#c4a65e"/><path d="M209.032 76.649c-10.474.36-20.933.37-31.897.4-1.052-1.123-1.6-2.266-2.183-3.735 8.43-.322 16.898-.264 25.364-.355 1.95-.021 3.893-.553 6.254-.903 1.102 1.38 1.79 2.811 2.462 4.593z" fill="#e3d384"/><path d="M217.898 97.656c-10.478.866-20.976 1.383-31.76 2.23-.962-1.15-1.636-2.634-1.865-4.491 8.752-.382 17.064-.221 25.359-.519 1.951-.07 3.847-1.685 5.77-2.589.825 1.674 1.65 3.347 2.496 5.37z" fill="#c8ac63"/><path d="M255.145 43.467c-1.808.718-3.635 1.395-5.49 1.488-8.513.424-17.033.685-25.946 1.013-.853-1.05-1.31-2.108-1.853-3.5 2.965-.711 6.011-1.35 9.07-1.417 7.396-.16 14.799-.054 22.674-.06.82.719 1.166 1.442 1.545 2.476z" fill="#d8c276"/><path d="M115.765 46.648c-8.577.658-17.14.986-26.106 1.322-.552-1.33-.701-2.669-.495-4.59 8.549-.845 16.741-1.106 24.933-1.368.56 1.436 1.12 2.87 1.668 4.636z" fill="#d5be71"/><path d="M89.622 80.93c.007-1.45.015-2.9.632-4.643 9.037-.295 17.464-.297 25.89-.3-.274 1.455-.549 2.911-1.467 4.691-8.781.3-16.918.276-25.055.252z" fill="#e3d384"/><path d="M94.051 112.084c-6.578 4.797-13.655 8.053-22.644 7.366 2.865-3.307 5.388-6.219 8.65-9.303 5.157.531 9.575 1.234 13.994 1.937z" fill="#ba9853"/><path d="M114.075 41.662c-8.17.612-16.362.873-24.962 1.317-.663-1.603-.918-3.39-.674-5.577 8.248-.421 15.996-.442 23.744-.462.624 1.458 1.247 2.915 1.892 4.722z" fill="#cfb56a"/><path d="M248.813 106.317c10.054-.326 20.117-.32 30.642-.313 1.134.791 1.805 1.58 2.498 2.689-3.725.65-7.467 1.184-11.218 1.263-6.782.142-13.57.012-20.887-.056-.695-1.119-.86-2.186-1.035-3.583z" fill="#b99752"/><path d="M4.682 83.465c7.84-.41 15.764-.463 24.19-.558.76 1.423 1.014 2.887.71 4.722-7.944.7-15.328 1.027-22.711 1.355a212.716 212.716 0 0 1-2.19-5.52z" fill="#dbc679"/><path d="M215.376 92.063c-1.897 1.128-3.793 2.743-5.744 2.813-8.295.298-16.607.137-25.404.161-.806-.686-1.121-1.389-1.471-2.386 1.631-.746 3.293-1.565 4.966-1.59 8.778-.131 17.56-.061 26.809-.061.627.262.744.542.844 1.063z" fill="#ceb469"/><path d="M265.75 69.725c-10.2.622-20.463.95-31.184 1.28-.822-.768-1.184-1.538-1.579-2.627 1.68-.671 3.389-1.308 5.105-1.33 8.294-.106 16.59-.046 25.343-.042 1.057.81 1.655 1.617 2.315 2.719z" fill="#e9dc8b"/><path d="M89.494 81.242c8.265-.288 16.402-.264 25.004-.237-.013 1.48-.49 2.958-1.652 4.712-2.65.279-4.622.375-6.583.266-5.832-.324-11.66-.729-17.49-1.102.198-1.109.396-2.218.721-3.639z" fill="#dcc87b"/><path d="M88.51 85.166c6.093.088 11.92.493 17.753.817 1.961.109 3.933.013 6.381.003-.053 1.513-.587 3.034-1.85 4.785-8.139.213-15.55.195-22.96.177.138-1.832.276-3.664.676-5.782z" fill="#d7c073"/><path d="M33.257 25.599c-.229 1.004-.458 2.009-1.383 3.218-7.678.12-14.66.035-21.641-.049 1.224-1.837 2.448-3.675 4.443-5.671 3.552-.138 6.386-.441 9.104-.012 3.211.508 6.322 1.648 9.477 2.514z" fill="#be9e57"/><path d="M87.624 91.217c7.62-.251 15.031-.233 22.91-.216-.653 2.244-1.776 4.487-3.412 6.633-3.734-.61-6.947-1.182-10.177-1.616-3.399-.457-6.815-.78-10.224-1.162.23-1.124.461-2.247.903-3.64z" fill="#d0b76b"/><path d="M112.104 36.618c-7.669.342-15.417.363-23.634.382-.807-1.421-1.147-2.842-1.001-4.632 7.723-.426 14.96-.485 22.2-.543.785 1.49 1.57 2.98 2.435 4.793z" fill="#c8ac63"/><path d="M117.353 57.48c-5.022.11-10.098-.39-15.176-.41-3.753-.016-7.51.593-11.687.923-.498-1.386-.573-2.77-.61-4.569 8.728-.419 17.42-.423 26.57-.43.59 1.357.718 2.719.903 4.486z" fill="#e2d082"/><path d="M247.4 23.52c-6.58.226-13.254.097-20.216-.353.465-1.837 1.219-3.354 2.714-5.039 5.561-.165 10.38-.161 15.199-.158a242.429 242.429 0 0 1 2.303 5.55z" fill="#be9e57"/><path d="M10.007 28.955c7.207-.103 14.189-.018 21.649.082.125 1.432-.229 2.847-1.166 4.61-7.905.016-15.226-.315-22.546-.645.612-1.287 1.224-2.573 2.063-4.047z" fill="#c4a65e"/><path d="M39.033 108.898c3.213 3.753 6.425 7.507 9.576 11.19-6.576.607-13.196-1.637-19.358-5.857 2.074-1.078 3.999-1.978 5.986-2.146 2.23-.188 4.034-.307 3.796-3.187z" fill="#b89550"/><path d="M116.305 75.66c-8.587.33-17.014.332-25.919.331-.484-1.069-.49-2.134-.446-3.596 8.786-.724 17.522-1.051 26.686-1.39.232 1.434.036 2.88-.321 4.654z" fill="#e8db8b"/><path d="M28.6 50.58c-8.664.068-17.177-.26-26.161-.588-.164-1.116.143-2.229 1.02-3.668 8.858-.328 17.144-.33 25.431-.332-.046 1.398-.092 2.796-.29 4.588z" fill="#d8c276"/><path d="M6.91 89.315c7.344-.659 14.728-.987 22.576-1.312.491.327.557.644.585 1.62-2.003 1.57-3.882 3.103-5.865 3.253-5.101.387-10.248.16-15.376.18-.627-1.138-1.254-2.274-1.92-3.741z" fill="#d5be71"/><path d="M99.591 17.854c1.748 1.837 3.496 3.674 4.872 5.827-6.817.692-13.261 1.067-19.706 1.443-.614-1.361-1.228-2.722-1.63-4.766 5.629-1.29 11.046-1.897 16.464-2.504z" fill="#ba9853"/><path d="M99.417 17.547c-5.244.914-10.661 1.52-16.342 2.487-1.212-1.054-2.16-2.468-2.998-4.56 3.929-1.69 7.748-2.704 11.567-3.718 2.533 1.828 5.066 3.655 7.773 5.79z" fill="#b5904c"/><path d="M33.002 97c.656 1.439 1.311 2.878 1.518 4.657-6.867.333-13.286.324-19.704.316-1.097-1.4-2.194-2.799-2.877-4.552 7.296-.376 14.18-.399 21.063-.421zM86.478 95.112c3.652.126 7.068.45 10.467.906 3.23.434 6.443 1.006 9.912 1.828-.24 1.137-.729 1.964-1.941 2.969-7.202.155-13.68.132-20.157.108.492-1.851.983-3.703 1.719-5.81z" fill="#caae65"/><path d="M91.408 11.448c-3.583 1.322-7.402 2.335-11.42 3.722-3.208-3.332-6.217-7.035-8.887-10.32 6.505-.967 13.07 3.542 20.307 6.598z" fill="#ad8645"/><path d="M4.757 40.654c.201-.734.402-1.468 1.289-2.424 8.42-.226 16.155-.23 23.89-.235-.13 1.486-.26 2.972-1.034 4.691-6.666-.073-12.694-.298-18.707-.735-1.834-.133-3.626-.849-5.438-1.297z" fill="#cfb56a"/><path d="M14.94 102.293c6.294-.312 12.713-.303 19.601-.295 1.133 1.1 1.797 2.203 2.12 3.798-2.25.73-4.156 1.02-6.072 1.192-3.498.314-7.002.558-10.504.831-1.673-1.735-3.346-3.47-5.144-5.526z" fill="#c4a65e"/><path d="M4.533 40.931c2.036.171 3.828.887 5.662 1.02 6.013.437 12.04.662 18.486 1.03.402.802.38 1.543.284 2.647-8.362.366-16.648.368-25.394.367-.06-1.597.339-3.192.962-5.064z" fill="#d4bc70"/><path d="M94.375 111.98c-4.743-.599-9.161-1.302-14.048-2.021.707-2.207 1.882-4.398 3.636-6.573 2.334.548 4.055 1.286 5.848 1.57 3.65.581 7.338.918 11.01 1.355-2.04 1.855-4.081 3.71-6.446 5.67z" fill="#c1a25b"/><path d="M30.042 37.666c-7.84.333-15.576.338-23.805.348.086-1.495.665-2.997 1.475-4.756 7.552.074 14.873.405 22.648.732.232 1.113.01 2.23-.318 3.676z" fill="#caae65"/><path d="M186.727 20.992c.376 1.1.751 2.199.88 3.793-7.301.398-14.356.301-21.411.204.62-1.234 1.24-2.47 2.58-3.877 6.465-.155 12.208-.137 17.951-.12z" fill="#be9e57"/><path d="M166.017 25.244c7.234-.158 14.289-.061 21.74-.132.983 1.301 1.57 2.77 1.814 4.565-6.411.325-12.488.51-18.542.22-2.085-.099-4.114-1.38-6.168-2.123.325-.758.651-1.517 1.156-2.53z" fill="#c4a65e"/><path d="M32.989 96.626c-6.87.396-13.754.419-21.17.47-1.308-1.123-2.083-2.276-2.924-3.735 5.063-.325 10.21-.098 15.31-.485 1.984-.15 3.863-1.683 5.847-3.01 1.013 1.846 1.968 4.116 2.937 6.76z" fill="#d0b76b"/><path d="M20.27 108.098c3.317-.552 6.82-.796 10.319-1.11 1.916-.172 3.821-.462 6.122-.869 1.003.614 1.616 1.398 2.276 2.48.284 3.18-1.52 3.298-3.75 3.486-1.987.168-3.912 1.068-6.21 1.866-3.087-1.711-5.83-3.643-8.757-5.853z" fill="#be9e57"/><path d="M26.558 11.87c2.7.653 5.11 1.284 7.423 2.171 1.414.543 2.678 1.478 4.034 2.651-.44 1.288-.904 2.161-2.04 3.138-3.706-.207-6.77-.353-9.763-.886C24.093 18.567 22.067 17.667 20 17c2.075-1.682 4.151-3.364 6.558-5.13z" fill="#b38e4b"/><path d="M109.597 31.474c-7.167.41-14.405.468-22.11.524-.837-1.084-1.206-2.166-1.165-3.609 2.548-.37 4.715-.162 6.82-.435 4.433-.574 8.833-1.4 13.247-2.122 1.046 1.764 2.091 3.527 3.208 5.642z" fill="#c1a25b"/><path d="M19.685 17.114c2.382.553 4.408 1.453 6.527 1.83 2.994.533 6.057.679 9.513 1.053-.364 1.752-1.152 3.44-2.204 5.365-3.419-.629-6.53-1.77-9.74-2.277-2.719-.429-5.553-.126-8.847-.183 1.137-1.916 2.787-3.794 4.751-5.788z" fill="#b99752"/><path d="M164.608 27.992c2.307.524 4.336 1.806 6.421 1.906 6.054.289 12.13.104 18.685.106.836.791 1.185 1.58 1.574 2.697-9.4.317-18.838.307-28.738.294.294-1.597 1.05-3.191 2.058-5.003z" fill="#c8ac63"/><path d="M101.083 106.178c-3.934-.304-7.622-.64-11.272-1.221-1.793-.285-3.514-1.023-5.592-1.786-.175-.775-.027-1.32.33-2.056 6.688-.168 13.165-.145 20.127-.128-.788 1.682-2.06 3.37-3.593 5.191z" fill="#c5a75f"/><path d="M106.284 25.557c-4.309.998-8.71 1.823-13.142 2.397-2.105.273-4.272.065-6.897.098-.783-.746-1.08-1.515-1.431-2.606 6.388-.698 12.832-1.073 19.747-1.451.853.427 1.235.857 1.723 1.562z" fill="#be9e57"/><path d="M141.282 112.053c-4.077 4.147-9.774 4.107-13.431-.224.436-1.485.973-2.549 2.164-3.58 3.757.274 6.86.514 9.964.753.41.92.82 1.84 1.303 3.051zM245.072 17.612c-4.794.355-9.613.351-14.925.315.43-1.842 1.352-3.65 2.926-5.682 3.692-.234 6.733-.244 9.773-.254.734 1.754 1.467 3.508 2.226 5.62z" fill="#b89550"/><path d="M186.674 20.663c-5.69.312-11.433.294-17.686.238.059-1.217.627-2.395 1.926-3.759 4.977-.683 9.224-1.18 13.471-1.679.746 1.623 1.491 3.247 2.29 5.2z" fill="#ba9853"/><path d="M172.892 13l6.245-11.833c1.772 4.723 2.945 7.851 3.715 11.387-3.588.42-6.774.434-9.96.447z" fill="#af894a"/><path d="M242.823 11.63c-3.017.37-6.058.38-9.503.386 1.412-3.37 3.23-6.737 5.37-10.278 1.587 3.06 2.849 6.296 4.133 9.892z" fill="#b08a47"/><path d="M139.984 108.624c-3.108.139-6.212-.101-9.694-.51.332-1.478.906-2.89 1.789-4.071 1.008-1.35 2.291-2.495 3.455-3.73 1.116 1.374 2.4 2.648 3.293 4.153.654 1.102.793 2.509 1.157 4.158z" fill="#c1a25b"/><path d="M172.648 13.215c3.43-.227 6.616-.24 10.293-.28.776.645 1.062 1.315 1.396 2.256-4.199.77-8.446 1.268-13.181 1.733.09-1.187.67-2.341 1.492-3.71z" fill="#b5914f"/><g fill="#a9803b"><path d="M187.542 119.088c.601.257.993.73 1.412 1.525-.421.35-.87.38-1.656.415-.213-.57-.089-1.146.244-1.94zM247.453 118.938c.607.35 1.033.84 1.495 1.663-.573.178-1.181.02-1.942-.427-.03-.568.11-.837.447-1.236zM146.394 120.967c-.366-.229-.362-.42-.342-.899.704-.016 1.391.255 2.111.92-.444.267-.922.141-1.77-.021z"/></g><path d="M188.562 109.185c.207.023.39.358.348.807-.275-.09-.322-.292-.348-.807z" fill="#b28c48"/><path d="M120.563 119.735c.343.015.36.254.398.852-.186.407-.391.456-.875.658-.135-.325.008-.806.477-1.51zM232.257 120.883c-.226-.175-.211-.416-.164-1.02.184-.291.337-.22.701-.009.179.5.01.774-.537 1.03z" fill="#a9803b"/><path d="M399.943 73.897c-.634 2.188-1.776 4.32-3.487 6.782-11.022.361-21.475.392-31.928.423l-9.01-7.261c15.515 0 29.716 0 44.425.056z" fill="#ddc97e"/><path d="M319.979 56.996c.014 2.375.029 4.75-.461 7.566-8.901.43-17.298.419-25.695.408-.069-2.425-.137-4.85.423-7.62 8.997-.348 17.365-.35 25.733-.354z" fill="#eee493"/><path d="M371.193 7.123c.78-.899 1.69-1.99 2.623-2.01a430.81 430.81 0 0 1 19.768.019c.85.02 1.672 1.186 2.612 2.29-1.025 1.836-2.154 3.204-4.076 4.6-5.885.339-10.979.65-16.072.96-1.571-1.852-3.142-3.704-4.855-5.859z" fill="#b38e4b"/><path d="M396.381 94.045c.084 3.533.167 7.067-.014 10.536-.026-3.312-1.146-4.813-4.783-4.663-6.639.273-13.298.055-19.948.042-.264-1.734-.529-3.468-.305-5.583 8.675-.364 16.863-.348 25.05-.332z" fill="#c5a861"/><path d="M364.706 81.39c10.275-.319 20.728-.35 31.63-.371.407 1.091.364 2.172-.162 3.719-2.268.73-4.05 1.205-5.838 1.225-7.481.083-14.964.03-22.446.026-1.002-1.437-2.004-2.874-3.184-4.599z" fill="#d5be71"/><path d="M321.859 83.018c.43 1.733.86 3.465.835 5.635-7.884.74-15.314 1.04-22.745 1.34-.663-1.393-1.327-2.786-1.736-4.83 2.191-.823 4.126-1.038 6.067-1.155 5.858-.35 11.72-.662 17.579-.99z" fill="#d2ba6e"/><path d="M371.569 100.386c6.717-.413 13.376-.195 20.015-.468 3.637-.15 4.757 1.35 4.622 5.063.104.464.193.737-.366.871-8.455.128-16.35.12-24.246.114-.031-1.718-.062-3.436-.025-5.58z" fill="#be9e57"/><path d="M318.83 13.941c8.158-6.585 17.564-9.602 28.301-10.052-5.057 4.106-9.78 7.941-15.103 11.73-4.8-.59-9-1.134-13.198-1.678z" fill="#b5914f"/><path d="M320.032 56.6c-8.421.4-16.789.402-25.633.409-.432-1.399-.388-2.801.19-4.61 8.845-.068 17.155.27 25.465.607.01 1.066.02 2.131-.022 3.594z" fill="#e8db8b"/><path d="M293.805 65.374c8.415-.393 16.812-.383 25.672-.37.513 1.388.563 2.773.124 4.575-8.872.084-17.255-.25-25.637-.583-.06-1.073-.118-2.146-.16-3.622z" fill="#e9dc8b"/><path d="M321.895 82.671c-5.896.675-11.757.987-17.615 1.337-1.94.117-3.876.332-6.106.823-.957-1.475-1.62-3.27-1.82-5.444 8.53-.382 16.6-.386 24.668-.39.303 1.11.606 2.218.873 3.674z" fill="#d8c276"/><path d="M293.948 69.364c8.398-.034 16.781.299 25.638.63.545 1.056.615 2.114.22 3.583-8.646.404-16.827.397-25.007.39-.289-1.412-.578-2.824-.85-4.603z" fill="#e4d485"/><path d="M296.729 43.614c.26-1.026.52-2.052 1.448-3.343 8.368-.268 16.068-.272 23.769-.275-.196 1.448-.392 2.895-1.218 4.674-6.76.33-12.893.427-19.019.266-1.67-.044-3.32-.86-4.98-1.322z" fill="#dbc679"/><path d="M313.94 108.123c-1.913-1.803-3.827-3.606-5.642-6.024 2.269-1.11 4.416-1.796 6.614-2.057 4.003-.475 8.037-.698 12.058-1.026.725 1.256 1.45 2.513 2.033 4.495-3.084 1.313-6.052 1.794-8.958 2.524-2.079.523-4.073 1.38-6.105 2.088z" fill="#be9e57"/><path d="M299.991 90.318c7.389-.625 14.819-.926 22.673-1.28 1.11 1.687 1.799 3.426 2.036 5.549-7.599.386-14.748.388-21.898.39-.923-1.445-1.846-2.89-2.81-4.66z" fill="#cbaf66"/><path d="M302.861 95.328c7.09-.353 14.24-.355 21.877-.38 1.055 1.124 1.623 2.27 2.212 3.742-4 .654-8.035.877-12.038 1.352-2.198.26-4.345.947-6.752 1.76-1.905-1.83-3.572-3.976-5.299-6.474z" fill="#c4a65e"/><path d="M367.919 86.31c7.453-.318 14.936-.264 22.417-.347 1.787-.02 3.57-.495 5.712-.84.44 1.31.52 2.7.058 4.485-9.148.388-17.75.379-26.354.37-.601-1.116-1.202-2.23-1.833-3.667z" fill="#d0b76b"/><path d="M294.802 74.353c8.177-.379 16.358-.372 24.993-.379.729 1.419 1.003 2.851 1.252 4.654-8.094.373-16.162.377-24.713.388-.83-1.42-1.18-2.848-1.532-4.663z" fill="#decb7d"/><path d="M393.54 116.225c-2.953-.653-5.516-1.917-8.16-2.121-4.805-.37-9.658-.11-14.963-.118-.161-1.115.15-2.225 1.05-3.658 8.63-.33 16.673-.336 24.716-.342-.764 2.035-1.527 4.07-2.643 6.239z" fill="#b38e4b"/><path d="M369.783 90.328c8.572-.341 17.175-.332 26.194-.32.504 1.088.592 2.172.542 3.646-8.325.375-16.513.359-25.181.341-.83-1.106-1.177-2.21-1.555-3.667z" fill="#cbaf66"/><path d="M320.062 52.634c-8.318.034-16.628-.303-25.385-.647-.208-1.117.033-2.228.834-3.666 8.816-.329 17.072-.332 25.328-.334-.257 1.424-.513 2.85-.777 4.647z" fill="#e3d384"/><path d="M314.113 108.4c1.86-.985 3.853-1.842 5.932-2.365 2.906-.73 5.874-1.211 8.99-2.209 1.518 1.346 2.862 3.102 4.019 5.552-4.217 1.703-8.245 2.71-12.274 3.719-2.165-1.474-4.33-2.947-6.667-4.698zM396.287 109.594c-8.147.398-16.19.403-24.69.411-.385-1.131-.311-2.265-.12-3.72 8.012-.312 15.908-.305 24.297-.305.535 1.07.576 2.146.513 3.614z" fill="#b89550"/><path d="M308.816 22.71c1.295-1.305 2.59-2.611 4.67-3.852 5.732.437 10.681.809 15.63 1.18-.885 1.83-1.77 3.658-3.276 5.554-3.708-.152-6.834-.148-9.871-.662-2.44-.414-4.773-1.456-7.153-2.22z" fill="#c1a25b"/><path d="M329.376 19.864c-5.209-.197-10.158-.569-15.58-1.009 1.147-1.63 2.768-3.194 4.711-4.835 4.522.465 8.72 1.01 13.238 1.785-.491 1.45-1.3 2.667-2.37 4.06z" fill="#ba9853"/><path d="M299.82 35.735c.538-1.145 1.075-2.29 2.156-3.319 7.417.62 14.291 1.124 21.166 1.628-.17 1.17-.339 2.34-1.128 3.607-5.332-.15-10.051-.306-14.752-.69-2.497-.203-4.962-.804-7.442-1.226z" fill="#d2ba6e"/><path d="M308.536 22.897c2.66.577 4.993 1.62 7.433 2.033 3.037.514 6.163.51 9.631.894-.22 1.3-.823 2.434-1.98 3.86-6.96-.034-13.366-.36-19.77-.686 1.468-1.972 2.937-3.943 4.686-6.101z" fill="#c8ac63"/><path d="M303.607 29.186c6.647.138 13.052.464 19.872.8.313 1.175.21 2.341-.114 3.783a258.12 258.12 0 0 1-21.137-1.548c.185-1.157.661-2.003 1.38-3.035z" fill="#ccb167"/><path d="M321.001 113.358c3.808-1.27 7.836-2.277 12.129-3.668 2.074 1.2 3.884 2.782 5.726 4.984-1.552 1.252-3.132 2.395-4.716 2.4-2.71.01-5.421-.694-8.132-1.097-1.595-.786-3.19-1.572-5.007-2.619z" fill="#b28c48"/><path d="M376.137 13.304c5.004-.633 10.098-.943 15.677-1.218-.679 2.34-1.843 4.644-3.505 6.834-3.124-.006-5.75.102-8.375.21-1.236-1.835-2.472-3.67-3.797-5.826z" fill="#b99752"/><path d="M320.917 47.619c-8.334.37-16.59.373-25.3.372-.08-1.289.293-2.573.889-4.117 1.882.202 3.532 1.018 5.203 1.062 6.126.16 12.259.065 18.862.066.456.75.44 1.5.346 2.617z" fill="#decb7d"/><path d="M299.577 35.976c2.723.18 5.188.782 7.685.986 4.7.383 9.42.538 14.53.966.37.601.339 1.025.231 1.758-7.778.313-15.478.317-23.659.324.004-1.262.486-2.528 1.213-4.034z" fill="#d5be71"/><path d="M326.275 116.207c2.444.173 5.156.877 7.865.867 1.584-.005 3.164-1.148 4.903-2.125 3.309 1.503 6.462 3.353 10.191 5.54-8.253.798-15.608-.761-22.959-4.282z" fill="#b5914f"/><path d="M379.98 19.483c2.58-.461 5.205-.569 8.08-.312-1.032 2.877-2.312 5.39-4.118 8.931-1.627-3.434-2.772-5.85-3.962-8.619z" fill="#c1a25b"/><path d="M289.397 120.992c-.126-.326.12-.611.626-1.019.598.177.936.475 1.22 1.125-.527.213-1 .074-1.846-.106z" fill="#a9803b"/></svg>