<svg height="2500" viewBox="28 132.1 242 37.1" width="2500" xmlns="http://www.w3.org/2000/svg"><path d="m181.7 132.6c-.4.4-.7 8.3-.7 17.6v16.9l2.3-.3c1.4-.2 2.1-.9 2.1-2.1-.2-2.2.2-2.1 3.3.3 3 2.3 9.5 2.6 13.1.6 3.7-2 6.2-6.6 6.2-11.4 0-9.2-10.5-15.1-18.5-10.3-2 1.1-3.7 2.1-3.8 2.1s-.2-3-.2-6.7c0-5.3-.3-6.8-1.5-7.1-.9-.1-1.9 0-2.3.4zm16.7 13.4c2.9 1.1 5.6 5.7 5.6 9.5 0 1.6-1.2 3.8-2.9 5.6-3.7 3.7-7.9 3.8-12 .3-2.6-2.1-3.1-3.3-3.1-6.9s.5-4.8 3.1-6.9c3.3-2.8 5.3-3.2 9.3-1.6zm13.2-9.1c-1 1.6.5 4.1 2.4 4.1s3-1.7 2.3-3.8c-.5-1.4-3.9-1.6-4.7-.3zm-100.6 4.9c0 1 9.5 24 10.1 24.7.3.2 2.5-3.6 4.9-8.5 2.4-5 4.7-9 5-9s2.6 4.2 5.2 9.2c3.7 7.5 4.7 8.9 5.3 7.3.4-1.1 2.8-6.6 5.2-12.3s4.3-10.7 4.1-11.2c-.2-.4-1.2-.4-2.3 0-1.3.5-3 3.4-4.9 8.4-1.6 4.2-3.2 7.6-3.5 7.6-.3-.1-2.4-3.9-4.5-8.5-2.2-4.7-4.2-8.5-4.6-8.5s-2.4 3.8-4.6 8.5c-2.1 4.6-4.2 8.4-4.5 8.5-.3 0-1.9-3.5-3.6-7.7-2.1-5.3-3.6-7.9-5.1-8.4-1.2-.5-2.2-.5-2.2-.1zm-74.7 2.2c-7.9 4.8-8.3 15.7-.7 21.5 4.9 3.7 6.1-.1 1.4-4.5-4.1-3.8-4.1-8.1.1-12.2 1.7-1.7 2.9-3.9 2.7-4.9-.3-1.8-.4-1.8-3.5.1zm8.4-1.4c-.9.9.4 3.3 3.4 6.4 3.9 3.8 3.9 8.3.1 11.8-1.6 1.5-3.1 3.5-3.5 4.4-1.1 3 2.8 2.2 6.2-1.2 4.6-4.7 5.2-10.9 1.5-16.7-1.5-2.4-6.8-5.6-7.7-4.7zm46.2 1.7c-4.8 3.2-6.8 9.1-4.8 14.3 1.7 4.5 6.9 8.4 11.1 8.4 3.6 0 9.8-2.8 10.5-4.7 1.1-2.9-1.4-3.6-4.5-1.3-2.4 1.8-3.9 2.2-6.7 1.7-4-.7-6.5-2.3-6.5-4.1 0-.7 4.3-2.2 10-3.5 5.8-1.3 10-2.7 10-3.4 0-2-3.7-7-6.2-8.3-3.6-2.1-9.1-1.7-12.9.9zm12.2 3.6c1.3 1.1 2.2 2.1 1.9 2.4s-4 1.3-8.2 2.4c-8.9 2.2-10 1.3-4.9-3.8 3.5-3.4 7.7-3.8 11.2-1zm57.4-4.9c-6 2.5-9.1 10.9-6.1 16.7 3.7 7.3 11.2 9.4 17.6 5 1.9-1.2 3.5-2.7 3.7-3.3.7-2.1-2.7-2.4-4.7-.4-2.6 2.6-8 2.6-11.4-.1-1.4-1.1-2.6-2.4-2.6-2.9 0-.4 3-1.3 6.6-2s8.3-1.8 10.4-2.4l3.8-1.1-1.3-3.2c-2.4-5.7-10.1-8.8-16-6.3zm10.3 4.6c1.2.8 2.2 1.9 2.2 2.4 0 .4-2.8 1.5-6.2 2.3-3.5.8-7.1 1.8-8 2.2-2.8 1.1-2.3-3.1.7-6 2.8-2.9 7.9-3.3 11.3-.9zm82.1-3.3c-9.9 6.6-5 22.7 6.9 22.7 3.4 0 10.2-3.3 10.2-5 0-1.6-3.2-2-5.3-.5-4.3 3-10 1.5-12.5-3.2-1.9-3.5-1.4-6.3 1.7-9.4 3.1-3 6.7-3.7 10.1-1.9 1.9 1 5 .4 5-1 0-1.3-6.6-4-9.8-4-1.6 0-4.4 1-6.3 2.3zm-194.9 10.7c0 12 0 12 2.4 12 2.3 0 2.4-.2 2.2-7.9-.1-9.6 1.4-12.1 7.5-12.1 5.5 0 6.9 2.5 6.9 12.2 0 7.7 0 7.8 2.5 7.8 2.4 0 2.5-.2 2.5-6.3 0-8.2-1.5-13.2-4.7-15.7-3.4-2.6-9.2-2.6-12.7.1l-2.6 2v-2c0-1.4-.6-2.1-2-2.1-1.9 0-2 .7-2 12zm154 0c0 11.3.1 12 2 12s2-.7 2-12-.1-12-2-12-2 .7-2 12zm8 0v12h2.5c2.5 0 2.5-.1 2.4-8.1-.1-9.6 1.2-11.9 7.1-11.9 5.7 0 7 2.2 7 11.8 0 8.2 0 8.2 2.6 8.2h2.7l-.5-9.2c-.5-8.8-.7-9.3-3.7-12-3.9-3.5-9.6-3.8-13.5-.7l-2.6 2v-2c0-1.4-.6-2.1-2-2.1-1.9 0-2 .7-2 12z"/><path d="m129.6 162.8c-2.1 4.1-2.1 4.2 1.4 4.2s3.4.2 1.6-4.1l-1.4-3.3z"/></svg>