<svg height="2349.438" viewBox="0 0 1000.12 621.622" width="1000mm" xmlns="http://www.w3.org/2000/svg"><path d="m758.37 0c-93.406 3.335-173.533 11.968-255.52 26.898-222.765 40.562-502.85 173.472-502.85 358.672 0 221.018 255.74 236.052 411.946 236.052 131.005 0 384.017-56.766 529.019-226.517 38.738-45.35 59.008-99.355 59.035-133.934.12-155.932-139.133-190.02-265.026-193.71l-20.523 59.176c66.144 3.786 218.418 15.111 218.418 125.572 0 28.854-28.937 86.104-63.847 123.386-34.91 37.281-82.001 63.129-123.78 86.709-97.174 54.845-186.812 78.737-313.568 90.602-101.046 4.697-194.235-4.698-260.573-32.734-66.339-28.037-105.829-74.713-99.476-144.577 3.616-39.78 29.347-81.28 72.484-119.132s103.682-72.057 165.282-99.367c61.6-27.309 127.167-43.485 197.406-57.253 70.24-13.768 147.886-29.535 228.177-32.381z"/><path d="m543.62 150.16-98.477 15.617-100.824 299.517 94.033-15.97 28.12-79.922 82.719-14.476-28.197 80.361 103.186-17.525 90.276-291.137-88.848 10.534-56.668 161.481-82.314 13.484z"/></svg>