<svg fill="none" height="343" width="2500" xmlns="http://www.w3.org/2000/svg" viewBox="1.6119999999999997 1.3225048384654254 171.77700000000002 21.360838523926745"><path d="M13.749 1.397a11.06 11.06 0 0 0-7.141 2.35.35.35 0 0 0-.025.52l2.455 2.398a.364.364 0 0 0 .458.037 6.742 6.742 0 0 1 4.141-1.248c3.583.097 6.497 2.967 6.547 6.48.062 3.682-2.976 6.685-6.733 6.685a6.842 6.842 0 0 1-3.955-1.26.364.364 0 0 0-.458.037l-2.455 2.398a.35.35 0 0 0 .025.521 11.012 11.012 0 0 0 6.843 2.362c6.063 0 10.973-4.845 10.886-10.792-.074-5.692-4.786-10.343-10.588-10.488z" fill="#fff"/><path d="M7.96 16.33a.342.342 0 0 0 .036-.448 6.479 6.479 0 0 1-1.289-3.863c0-1.442.484-2.786 1.29-3.864a.344.344 0 0 0-.038-.448L4.835 4.655a.37.37 0 0 0-.533.024c-1.674 1.998-2.69 4.554-2.69 7.352 0 2.797 1.004 5.34 2.69 7.34a.37.37 0 0 0 .533.023z" fill="#0a1b5f"/><g fill="#fff"><path d="M46.258 7.295a6.32 6.32 0 0 0-.508-1.502 8.253 8.253 0 0 0-.88-1.43c-.36-.46-.794-.86-1.303-1.21s-1.103-.63-1.76-.836a7.678 7.678 0 0 0-2.257-.315H28.392a.628.628 0 0 0-.632.618v18.748c0 .34.285.618.632.618h2.443a.628.628 0 0 0 .632-.618v-4.287h8.083c.46 0 .943-.048 1.463-.157a7.288 7.288 0 0 0 3-1.345c.472-.351.881-.775 1.24-1.272a6.08 6.08 0 0 0 .856-1.72c.21-.653.31-1.392.31-2.216V8.724a8.68 8.68 0 0 0-.161-1.43zM42.7 10.37a3.3 3.3 0 0 1-.224 1.248 2.808 2.808 0 0 1-1.636 1.562 4.268 4.268 0 0 1-1.29.29h-8.083V5.624h8.083c.484 0 .918.073 1.29.23.372.158.694.364.954.63.26.267.472.594.62.981.15.376.248.8.298 1.26zM88.66 21.284a.724.724 0 0 1-.732.714h-2.132a.751.751 0 0 1-.52-.218L73.695 8.276v13.093c0 .339-.286.617-.633.617h-2.442a.628.628 0 0 1-.633-.618V2.62c0-.34.285-.618.633-.618h2.194c.198 0 .384.085.52.218l11.606 13.54V2.62c0-.34.285-.618.632-.618h2.442c.347 0 .633.279.633.618v18.664zM153.192 21.284a.724.724 0 0 1-.731.714h-2.133a.75.75 0 0 1-.52-.218L138.24 8.276v13.093c0 .339-.285.617-.632.617h-2.442a.628.628 0 0 1-.633-.618V2.62c0-.34.285-.618.633-.618h2.194c.198 0 .384.085.521.218l11.592 13.54V2.62c0-.34.285-.618.632-.618h2.443c.347 0 .632.279.632.618v18.664zM65.958 18.365H53.511v-4.542h10.774a.628.628 0 0 0 .632-.618v-2.41a.628.628 0 0 0-.632-.618H53.51V5.623h12.447a.628.628 0 0 0 .633-.617V2.62a.628.628 0 0 0-.633-.618H50.423a.628.628 0 0 0-.632.618v18.749c0 .339.285.617.632.617h15.523a.628.628 0 0 0 .632-.618v-2.385c.025-.34-.26-.618-.62-.618zM128.607 2.002h-5.901c-1.476 0-2.839.242-4.079.739a10.035 10.035 0 0 0-3.249 2.059c-.917.884-1.624 1.938-2.144 3.16-.521 1.224-.769 2.568-.769 4.034v9.374c0 .34.285.618.632.618h2.455a.628.628 0 0 0 .632-.618v-4.275h11.258v4.288c0 .339.285.617.632.617h2.443a.628.628 0 0 0 .632-.617V2.62a.628.628 0 0 0-.632-.618zm-1.19 11.458h-11.245v-1.466c0-1.017.149-1.877.434-2.592.285-.714.657-1.308 1.103-1.78a5.313 5.313 0 0 1 1.476-1.115c.533-.266 1.041-.472 1.525-.593a7.649 7.649 0 0 1 1.264-.242c.372-.037.608-.049.719-.049h4.724zM172.745 18.365h-12.436v-4.542h10.774a.628.628 0 0 0 .633-.618v-2.41a.628.628 0 0 0-.633-.618h-10.774V5.623h12.448a.628.628 0 0 0 .632-.617V2.62a.628.628 0 0 0-.632-.618h-15.535a.628.628 0 0 0-.632.618v18.749c0 .339.285.617.632.617h15.523a.628.628 0 0 0 .632-.618v-2.385c.012-.34-.273-.618-.632-.618zM108.422 18.365H95.764V2.62a.628.628 0 0 0-.633-.618H92.69a.628.628 0 0 0-.632.618v18.748c0 .34.285.618.632.618h15.746a.628.628 0 0 0 .632-.618v-2.386c0-.339-.298-.617-.645-.617z"/></g></svg>