<svg height="2500" viewBox="0 0 1024 1024" width="2500" xmlns="http://www.w3.org/2000/svg"><path d="m0 0h1024v1024h-1024z" fill="#61628e"/><path d="m787 274 3 1-2 13-2 15v17l3 19 10 29 14 29 10 26 5 21 3 19 2 26v34l-2 25-6 30-6 23-8 21-16 33-13 22-14 20-16 21-11 13-9 10-7 8-9 10-13 15-11 12-12 16-8 13-8 16-5 12-3 15v25l3 15 8 20 11 19 3 1 4-26 5-25 7-20 13-27 3-8 7 3 14 11 17 14 16 15 10 9 20 20 8 7 14 15 12 12 9 11 11 12 7 8 14 17 12 14 5 7-2 5-15 10-2 2h-307l-5-17-9-40-7-42-3-26-2-33v-59l2-32 7-48 6-34 8-30 8-23 5-12 3-10-4 2-7 8-5 8h-3l-2 4h-2l-2 5-10 15-12 19-12 25-11 28-7 25-5 27-4 31-7-1-20-9-80-27-33-14-29-15-22-14-14-11-10-8-20-18-8-7-7-7-9-11-10-13-11-15-11-18-13-24-11-25-11-30-9-36 1-4 4 5 10 19 10 13 9 10 15 12 13 8 11 6 26 8 22 4h47l32-6 28-7 45-15 51-19 31-10 23-5h21l14 4 10 7 10 14 5 9v2l3-1 9-17 10-14 9-11 11-13 12-13 9-8 11-8 5 1 9 11 9 10 10 14 8 13 11 23 7 25 4 23v35l-3 21-7 27-9 24-12 23-12 20-2 5 6-3 10-8 12-14 10-14 9-13 5-9 4-7 4-10 4-8 9-24 7-24 5-29v-52l-6-38-18-66-4-24-1-12v-17l3-24 5-20 12-30 14-22z" fill="#fcfcfc"/><path d="m714 462h12l8 14 8 17 9 28 4 17 3 19 1 35-3 31-7 38-2 2-2 13-4 2v7l-3 1-6 13 1 6-10 14-7 10-11 13-7 8-10 7-4 1 2-6 17-29 9-19 7-19 7-27 3-21v-35l-5-27-6-21-13-27-9-13-12-16-7-7-5-7-4-4 23-11zm-141 156h3l-3 12-4 10-1-2h-2l-2 6-7 14-11 30-10 29-9 44-3 19-3 30-2 27-7-4-10-8-16-9 4-1 1-13 3-23 5-26 8-27 10-24 12-25 11-17 8-12 5-8 4-4h3l2-6 8-8zm115 196h6l17 13 4 4-1 2-7 15-9 19-8 24-6 33-2 12-1-2-5-2-7-22-4-16-1-5v-20l4-17 6-15 10-18z" fill="#b2b2b5"/></svg>