<svg height="1294" viewBox="0 .251 84.874 43.15306423" width="2500" xmlns="http://www.w3.org/2000/svg"><path d="m81.199.251c-2.03 0-3.676 1.628-3.676 3.635 0 2.008 1.646 3.635 3.676 3.635s3.675-1.627 3.675-3.635c0-2.007-1.646-3.635-3.675-3.635m3.323 32.453a.573.573 0 0 1 -.576.569h-5.496a.572.572 0 0 1 -.575-.57v-21.044c0-.314.257-.57.575-.57h5.496c.318 0 .576.256.576.57v21.046zm-20.301-21.615h-3.91a.572.572 0 0 0 -.576.57v3.284c0 1.502 1.232 2.72 2.75 2.72h1.736c2.565 0 4.96 2.031 4.96 4.901 0 3.007-2.569 4.905-4.96 4.905-2.471 0-5.421-1.504-5.421-4.905v-2.182c0-1.502-1.231-2.72-2.75-2.72h-3.322a.572.572 0 0 0 -.575.57v24.601c0 .314.257.57.575.57h5.496a.572.572 0 0 0 .576-.57v-10.12c1.558.877 3.793 1.327 5.421 1.327 6.116 0 11.603-4.888 11.603-11.476 0-6.416-5.331-11.475-11.603-11.475m-13.969 0h-.81c-6.272 0-11.603 5.059-11.603 11.475v10.14c0 .314.257.569.575.569h5.496a.572.572 0 0 0 .575-.57l-.002-10.139c0-2.87 2.395-4.901 4.959-4.901h.81a.572.572 0 0 0 .575-.57v-5.435a.572.572 0 0 0 -.575-.57m-32.397 19.988c-6.05 0-10.972-4.868-10.972-10.851s4.922-10.851 10.972-10.851 10.971 4.868 10.971 10.85c0 5.984-4.921 10.852-10.971 10.852m.015-28.514c-9.854 0-17.87 7.929-17.87 17.674s8.016 17.674 17.87 17.674 17.87-7.929 17.87-17.674-8.016-17.674-17.87-17.674" fill="#e30613"/></svg>