<?xml version="1.0" encoding="UTF-8"?>
<svg id="Layer_1" xmlns="http://www.w3.org/2000/svg" viewBox="0 0 681.98 80.21">
  <defs>
    <style>
      .cls-1 {
        fill-rule: evenodd;
      }
    </style>
  </defs>
  <path class="cls-1" d="M467.77,70.14c-.25.31-.56.65-.83,1.04-1.79,2.6-4.36,3.45-7.52,3.11-2.73-.3-4.97-2.31-5.76-4.95-2.01-6.77-3.84-13.58-3.95-20.72-.05-3.2,1.26-4.64,4.4-4.54,2.11.07,3.42,1.07,3.88,3.21.4,1.87.63,3.78.93,5.67.06.37.15.73.24,1.15.22-.18.41-.25.45-.37,1.55-4.48,4.74-7.56,8.74-9.81,6.83-3.83,38.37-10.69,38.37-16.56,0-9.62-48.42-19.12-82.77-7.48-.44.15-.87.36-1.28.59-.84.46-.96,1.69-.15,2.22.49.33,1.06.53,1.6.76,1.59.68,2.99,1.53,3.74,3.17,1.53,3.33-.44,5.82-3.63,5.54-4.87-.41-8.69-2.52-11.58-6.37-1.36-1.81-1.43-3.85-.75-5.94,1.14-3.48,3.74-5.69,6.73-7.51,2.5-1.52,5.3-2.19,8.12-2.79,40.48-9.88,91.19.12,91.19,18.12,0,13.33-43.21,19-48.25,25.24-2.14,2.53-1.99,5.65.38,7.97,2.02,1.98,4.57,3.1,7.3,3.29,3.65.25,7.33.06,11.19.06.28-1.07-.41-9.29,7.51-9.29,6.98,0,6.06,7.83,6.25,8.84,1.82-.43,3.43-.8,5.05-1.18,3.3-.77,6.2-.24,8.41,2.55,1.11,1.4,2.58,1.81,4.28,1.51.71-.12,1.42-.23,2.1-.45,5.48-1.78,11.09-2.2,16.82-1.93,2.69.13,5.39-.2,8.28-.32-.12-.65-.11-.96-.23-1.21-1.82-3.83-1.89-7.88-1.49-11.98.19-1.92,1.04-3.37,2.81-4.14,1.92-.84,4.37-.25,5.33,1.6.73,1.4.61,3.11.69,4.71.07,1.35-.05,2.71.09,4.05.27,2.58,1.76,4.3,4.21,4.99,2.46.69,4.97,1.22,7.48,1.64,3.86.65,7.73,1.25,11.62,1.7,4.2.49,8.29.08,12.05-2.12,1.02-.6,2.16-1.02,3.29-1.39,2.28-.75,4.42-.31,6.39,1.02.66.45,1.38.88,1.87,1.49,2.71,3.29,6.16,3.38,10.09,1.84.96-.37,1.94-.7,2.95-.84,1.76-.23,2.76-.98,2.86-2.59,0-.16.03-.32.04-.48.13-1.85.94-3.25,2.79-3.77,1.98-.56,3.61.16,4.89,1.72,3,3.61,1.56,9.55-2.85,11.57-1.37.63-2.84,1.08-4.29,1.52-3.36,1.03-6.76,1.94-10.1,3.04-3.6,1.18-7.25,1.22-10.91.66-12.13-1.85-24.26-3.73-36.37-5.76-2.2-.37-4.35-1.01-6.5-1.61-.63-.18-1.3-.23-1.94-.33-2.02,3.44-5.29,4.68-8.79,4.37-5.74-.51-11.29.3-16.92,1.13-3.53.52-7.16.42-10.75.51-2.03.05-3.77-.74-5.06-2.31-1.16-1.41-2.58-1.6-4.29-1.46-6.21.52-12.42.92-18.64,1.34-1.51.1-3.04.05-4.55.12-4.63.21-9.09-.47-13.33-2.37-.44-.2-.89-.37-1.34-.53-.14-.05-.31,0-.6,0ZM597.14,69.38c-1.21-1.27-3.65-2.8-5.08.17.81,1.88,3.84,1.91,5.08-.17ZM495.81,59.93c-1.65,0-1.67,3.65-.17,3.65,1.58,0,1.54-3.65.17-3.65ZM459.93,61.74c.26,1.08.44,1.84.71,2.96.96-1.41.68-2.15-.71-2.96Z"/>
  <path d="M109.97,19.86C91.72,5.73,60.06-5.12,30.47,2.52,12.1,7.27,1.32,14.88.12,23.95c-.69,5.23,1.65,10.79,6.96,16.52,1.37,1.47,2.99,2.46,4.7,2.84,1.95.44,3.6.11,4.64-.93,2.13-2.13,2.08-4.71-.15-7.09-4.29-4.29-5.99-8.2-5.03-11.6,1.41-5.02,8.76-9.25,21.23-12.25,26.98-6.48,56.84,4.42,73.17,17.28,7.55,5.95,11.89,12.16,11.89,17.03,0,12.43-17.8,25.84-46.54,25.84-24.71,0-37.29-9.47-40.81-18.31-.1-.26-.23-.51-.41-.84-1.18-2.15-2.84-3-4.94-2.53-1.08.24-1.98.95-2.53,2-.56,1.06-.66,2.39-.27,3.65,5.05,16.35,21.67,24.64,49.41,24.64,14.07,0,28.17-3.69,38.67-10.11,10.78-6.59,16.71-15.16,16.71-24.12,0-8.43-5.98-17.71-16.84-26.12Z"/>
  <path class="cls-1" d="M163.23,67.68c-.5,1.18-.79,1.9-1.12,2.61-1.13,2.36-2.97,3.73-5.62,3.86-2.39.12-4.79.25-7.19.24-4.62-.02-7.01-3.19-5.36-7.67-1.51-.79-3.07-1.56-4.59-2.39-2.94-1.62-4.99-3.95-5.75-7.3-.91-4,.87-6.8,4.95-7.44,3.82-.6,7.69-.38,11.41.61,3.78,1,6.04,3.85,7.26,7.39.46,1.33.07,2.95.07,4.66,1.49.75,3.25,1.63,5.19,2.62.59-3.9,3.31-6.22,6.57-8.05,3.23-1.81,6.63-2.17,10.18-1.04,4,1.28,5.26,3.83,3.79,7.72-.08.21-.31,1.08-.37,1.3,4.02.35,6.08-.4,7.78-3.22,3.62-5.99,12.11-6.43,17.05-2.37,1.85,1.52,3.6,3.17,5.33,4.84,1.85,1.78,3.5,2.23,5.82,1.13,1.2-.57,2.33-1.39,3.34-2.27,2.47-2.18,5.32-3.22,8.4-2.01,3.13,1.23,6.27,1.03,9.45.9,4.55-.19,9.09-.52,13.64-.73,1.11-.05,2.24.05,3.35.15,1.93.17,3.18,1.33,3.6,3.27.41,1.87-.27,3.62-2.03,4.42-1.36.62-2.87,1.03-4.35,1.22-4.99.62-10,1.1-15,1.63-2.59.28-5.12.06-7.54-.94-2.03-.84-3.86-.56-5.69.6-3.37,2.15-7.02,3.38-11.09,3.33-2.3-.03-4.47-.44-6.38-1.73-1.21-.83-2.33-.83-3.6-.22-2.17,1.05-4.45,1.75-6.9,1.79-1.84.02-3.54-.42-4.83-1.74-1.15-1.16-2.43-1.37-3.94-1.19-3.8.46-7.61.93-11.43,1.27-2.06.19-4.15.26-6.21.14-3.5-.2-6.25-1.8-8.2-5.39ZM195.27,65.76c2.75,1.58,4.75,1.54,6.66-1.84-3.62-1.57-5.14-.39-6.66,1.84ZM148.43,59.41c0-3.98-2.12-3.94-4.73-2.17,1.31,1.15,2.9,2.35,4.73,2.17ZM171.68,64.51c1,.88,2.98.69,4.79.31-1.21-1.63-2.04-3.75-4.79-.31Z"/>
  <path class="cls-1" d="M665.88,25.68c-2.19,0-82.3,2.53-101.41,6.39-3.99.81-7.86,2.12-11.78,3.21-1.45.4-2.4,1.26-2.81,2.61-.09.31-.21.61-.32.91-.65,1.79-1.79,3.19-3.98,3.35-2.05.15-3.42-1.02-4.5-2.46-1.83-2.45-1.66-5.83.46-8.28,2.12-2.45,4.9-4.17,8.15-5,3.69-.94,7.46-1.68,11.23-2.26,22.67-4.28,105.19-6.24,112.69-6.47,2.46-.07,4.9-.13,6.91,1.56,1.47,1.23,1.86,2.09,1.06,3.8-.5,1.08-1.16,2.19-2.08,2.98-1.71,1.48-3.6,2.78-5.51,4.04-.75.49-1.72.8-2.64.94-3.25.49-4.95-.78-5.27-3.8-.05-.46-.12-.92-.19-1.53Z"/>
  <path class="cls-1" d="M307.82,63.89c4.42,2,10.79,2.65,16.3,1.97-.15-1.06-.66-9.33,7.12-9.33,5.66,0,5.29,8.13,5.19,8.92,3.66.26,6.65-.14,10.12-.73,1.89-.32,3.78-.67,5.69-.79,2.28-.15,3.57.85,4.09,2.86.52,1.98-.25,3.99-2.04,4.91-.91.46-1.94.8-2.94.93-5.39.66-10.79,1.25-16.19,1.85-.55.06-1.15.13-1.67,0-4.35-1.16-8.76-.55-13.12-.32-4.97.26-9.75-.43-14.28-2.4-2.53-1.1-4.74-1.2-7.3.06-3.22,1.58-6.67,2.72-10.36,2.58-1.43-.05-2.88-.2-4.26-.56-5.84-1.54-7.76-8.88-3.54-13.24,3.99-4.12,12.33-4.91,16.91.3.34-1.51-.29-11.8,6.79-11.8s4.46,11.5,3.48,14.8ZM293.18,66.27c-3.25-3.96-7-3.38-6.97.24,2.27,1.59,4.54.92,6.97-.24ZM330.43,61.51c-1.24,0-1.46,3.78.07,3.78,1.72,0,1.19-3.78-.07-3.78Z"/>
  <path class="cls-1" d="M407.18,72.34c-.96-.05-1.92-.1-2.87-.14-2.41-.12-4.71.17-7.08.8-2.83.76-5.82,1.19-8.75,1.2-6.31.02-12.62-.27-18.93-.54-1.49-.06-3.02-.41-4.44-.9-3.42-1.17-5.8-3.48-6.33-7.15-.48-3.39-.74-9.02-.85-12.45-.07-2.36,2.07-4.05,4.72-4.1,2.18-.05,3.61,1.26,3.88,3.71.14,1.27.06,4.75.13,6.03.06,1.03.19,2.06.29,3.09.14,1.37.93,2.21,2.2,2.54,3.8.99,7.66,1.63,11.59,1.6,1.75-.01,3.26-.8,4.43-2.1,2.01-2.25,4.5-2.85,7.39-2.33,3.77.68,7.56,1.29,11.33,1.96,2.98.53,5.82.33,8.68-.83,1.81-.74,3.84-1.11,5.8-1.28,2.7-.23,4.29.87,4.87,2.93.74,2.6-.18,5.23-2.38,6.45-.82.45-1.78.81-2.7.89M388.22,68.72c2.42.75,3.75.67,4.87-1.68-2.24-.85-2.7-1.24-4.87,1.68Z"/>
</svg>