<svg height="500pt" viewBox="0 0 500 500" width="500pt" xmlns="http://www.w3.org/2000/svg"><path d="m0 250v250h500v-500h-500zm185.5-40c1.5 2.2 3 4 3.2 4s1.7-.7 3.3-1.5c2.9-1.5 3-1.5 3.6 1.1 1.9 7.7-2.5 22.7-8.8 29.9-4.1 4.6-12.2 9.2-17.3 9.7-3.5.3-3.4 1.5-1.7-16.1.7-6.3.9-14.8.5-18.9-.4-4.4-.2-7.3.3-7.1 6.4 3.2 6.3 3.2 7.9 1.9.9-.8 2.3-2.6 3.1-4.2.8-1.5 1.8-2.8 2.3-2.8s2.1 1.8 3.6 4zm-57.7 1.5c14.5 2.5 20.7 8 20.5 18-.2 5.9-1.2 8.6-5.2 12.8l-2.6 2.8 2.8 2.1c1.5 1.1 4 4.1 5.5 6.6 2.2 3.9 2.7 5.8 2.6 11.2-.4 19.8-15.2 28.3-46.9 26.7-11.6-.6-17.2-2.1-23.7-6.6-6-4.1-8.2-8.4-8.6-16.7-.5-8.7 1-11.8 9.1-18.9l5.1-4.4-2.1-2.3c-3.2-3.6-4.3-6.3-4.3-10.9 0-9.5 7.6-17.7 18.3-19.8 2.9-.5 6.1-1.2 7.2-1.4 4.4-1 14.4-.6 22.3.8zm92.9 3.5h7.6l-.7 3.1c-2.2 11-9.9 24.2-20.3 34.7-4.6 4.6-8.3 8.5-8.3 8.7s4.5 7 10 15.2l10 14.8-9.6.3c-6 .2-10.1-.1-10.9-.8-.8-.6-4.4-5.8-8-11.6-6.7-10.4-9.1-12.4-9.9-8.2-.3 1.3-1.2 6.1-2.1 10.7-.8 4.6-1.8 8.8-2.1 9.2-.5.9-14.7 1.3-15.5.4-.3-.2.3-5.5 1.2-11.7 2.5-15.7 2.5-15.5-1.5-17.2-5.6-2.3-5.1-3.3 2.2-4 23.7-2.4 36.9-13.5 42.7-36.1 1.5-6.1 3.8-9 6.3-8 .8.3 4.8.5 8.9.5zm38.8 21c0 6.4.4 10.5 1 10.4.6 0 2.4-.6 4-1.4 1.7-.7 6.7-1.5 11.3-1.8 10.5-.5 17.2 1.9 23.1 8.3 4.7 5.1 5.6 7.8 5.6 16-.1 14.6-13.5 25.5-31.3 25.5-6.5 0-8.6-.4-13.7-3-3.3-1.6-6.8-3.5-7.7-4.2-1.5-1.1-2.2-.8-4.5 1.9-3.3 3.7-11.8 6.1-14.1 3.9-1.8-1.8.9-58.1 2.9-60 3.1-2.8 16.1-6.6 21.4-6.2 1.9.1 2 .8 2 10.6zm146-8.6 4 1.2-.3 8.2-.3 8.2h8.8c5 0 9.4.5 10 1.1 1.2 1.2.2 7.2-1.7 9.4-.8 1-3.8 1.5-9.3 1.7l-8.2.3-.3 8.1c-.2 7 0 8.3 1.8 9.9 2.2 2 7.1 2.2 12.9.5 1.9-.5 3.8-.7 4.2-.4.5.3.9 3.4.9 6.9 0 7.2.4 6.8-10.3 9.1-8.8 1.8-14.1 1.8-20.8-.2-11.8-3.5-15.3-8.8-15.4-23.9v-10l-4-.5c-3.9-.5-4-.6-3.8-4.3.4-5.7 1.8-7.7 5.7-7.7 3.3 0 3.3-.1 4-5.3.3-2.8.6-7 .6-9.3 0-2.2.3-4.4.7-4.8 1-1 15.6.3 20.8 1.8zm-56 16.7c13.4 2.5 20.5 9.5 20.5 20.4 0 7.8.7 7.5-17.7 7.5-14.9 0-16.4.2-16.1 1.7.2.9 1.9 2.6 3.8 3.7 4.5 2.6 12.5 2.7 20.8.2 7.6-2.4 8.6-1.7 7.7 4.8-.9 5.6-2.8 7.1-11.2 9.1-11.1 2.7-27.8 1.4-35.9-2.8-4.3-2.2-9.1-8-10.3-12.4-4.4-15.6 5.6-29.2 23.4-32.2 7.2-1.2 8.4-1.2 15 0z"/><path d="m109.5 223.5c-2.4 2.3-3.2 6.5-2.5 13 .5 5.2 7.2 7.3 11 3.5 1.6-1.6 2-3.3 2-8.4 0-5.8-.3-6.7-2.6-8.5-3.4-2.7-5-2.6-7.9.4zm-.9 31.6c-2.3 1.8-2.6 2.7-2.6 8.8 0 7.5 1.6 10.1 6.1 10.1 4-.1 6.2-2.5 6.9-7.8 1.4-10.9-3.7-16.3-10.4-11.1zm151.7 1.9c-3.1 1.3-4.3 4.1-4.3 10.5 0 4.6.4 6 2.5 8 1.4 1.5 3.5 2.5 5.2 2.5 5.4-.1 8.3-4.2 8.3-11.8 0-4.4-.4-5.4-3.1-7.6-3.2-2.7-5-3.1-8.6-1.6zm78.1 1.3c-3.9 3.4-2.4 4.7 5.2 4.7 5.7 0 6.4-.2 6.4-1.9 0-2.4-3.6-5.1-6.7-5.1-1.2 0-3.4 1.1-4.9 2.3z"/></svg>