<svg fill="none" height="1667" viewBox="-.033 -.024 95.93 63.86" width="2500" xmlns="http://www.w3.org/2000/svg"><g clip-rule="evenodd" fill="#808080" fill-rule="evenodd"><path d="m61.557 57.306c0-.08 0-.19-.02-.23-.21-.25-.14-.63-.27-.92-.12-.28-.25-.55-.4-.81-.06-.11-.17-.19-.25-.26.08-.44.15-.86.22-1.27.01-.05.04-.12.02-.15-.11-.23-.11-.47-.05-.73.02-.09.02-.19.03-.29 0-.08.03-.22 0-.25-.12-.14-.1-.29-.07-.46.02-.11 0-.23 0-.35-.01-.36-.01-.73-.05-1.09-.04-.39-.02-.77.06-1.15.04-.17.01-.37.01-.55 0-.2-.01-.39.1-.56a.38.38 0 0 0 .04-.19c.02-.75.05-1.49.04-2.24 0-.66-.05-1.33-.13-1.98 0-.06 0-.14.01-.19.06-.18.05-.33-.01-.52-.04-.11 0-.28.03-.41.04-.13.05-.24-.01-.36-.08-.17-.13-.35-.06-.56.02-.06.01-.14 0-.19-.07-.22 0-.41.1-.59-.09-.19-.17-.36-.02-.59.06-.1.04-.33.01-.5-.05-.37-.05-.75-.06-1.13 0-.32.04-.68-.13-.98a.582.582 0 0 1 -.03-.19c0-.07.02-.14 0-.2-.15-.49-.14-1.02-.16-1.54-.01-.27 0-.55.04-.82a.61.61 0 0 0 -.03-.27c-.06-.27-.08-.56-.11-.84-.01-.12-.02-.25-.04-.38 0-.06-.03-.13-.01-.19.12-.58.04-1.17.07-1.74 0-.26.02-.52.03-.79.01-.58.04-1.17.02-1.75-.01-.38 0-.75.03-1.12.02-.27-.01-.54.09-.81.05-.14.01-.33 0-.5-.04-.66-.1-1.32-.14-1.99 0-.09-.01-.19 0-.27.05-.29.04-.57-.02-.85a.649.649 0 0 1 0-.31c.1-.26.04-.51 0-.77-.03-.18 0-.37 0-.55-.01-.52 0-1.05-.06-1.57-.05-.41-.1-.82-.1-1.24 0-.65-.09-1.3 0-1.96.02-.18-.03-.38-.05-.61 0-.02.04-.05.06-.09.12-.18.12-.25-.04-.34-.1-.06-.13-.12-.14-.26-.01-.35 0-.71-.07-1.05-.07-.37.03-.78-.12-1.13a.257.257 0 0 1 -.01-.15c.06-.39-.03-.74-.07-1.11-.05-.38-.04-.78-.07-1.17-.03-.43-.05-.86-.1-1.29-.04-.29-.08-.57.07-.83.03-.06.03-.15.06-.24-.17-.19-.17-.43-.15-.72.03-.35.09-.69.04-1.05-.02-.15.05-.33.08-.55v-.48c0-.15-.02-.31-.02-.46 0-.09-.01-.18 0-.26.04-.27.11-.54.13-.81.01-.28-.06-.58-.04-.86.02-.33-.04-.66 0-1 .07-.5.11-1.02.04-1.53-.02-.12-.06-.27-.12-.34-.19-.2-.29-.53-.57-.58-.03 0-.06-.06-.08-.1-.06-.14-.13-.17-.25-.13-.07.02-.15 0-.23 0-.18 0-.36 0-.55.11-.17.1-.37.11-.55.14-.25.04-.36.22-.39.54-.01.15-.06.3-.11.44-.09.28-.18.55-.17.87 0 .41-.05.81-.04 1.21.02.47.08.93.12 1.4.02.27.05.54.1.81.04.23.11.46.17.75-.09.15-.04.35.02.59.06.23.11.49.09.73-.04.54.09 1.04.11 1.56.01.3.05.6.07.9v.08c-.19.53-.07 1.09-.11 1.63s-.02 1.08-.02 1.62c0 .31-.03.63-.04.94 0 .26 0 .52.02.78.1.93.13 1.85.12 2.79 0 .13.03.26.05.39.03.43.04.87.1 1.29.08.56 0 1.12.03 1.68.04.98-.13 1.93-.13 2.9 0 .53-.07 1.07-.09 1.61-.01.3 0 .6 0 .9v.95c0 .21-.05.42.06.6.01.03.03.08.02.11-.13.47.06.91.09 1.36.03.34 0 .68-.02 1.02-.02.27 0 .54 0 .81.01.26.03.52.06.78.01.2.03.39.04.58 0 .09.03.19.02.27-.07.56-.04 1.12-.03 1.69.01.5.05.99.11 1.48.04.4 0 .81 0 1.22 0 .03-.01.06-.01.08.15.41-.05.82 0 1.21.04.34.05.69.06 1.03.02.56.12 1.11.18 1.66.02.22 0 .34-.18.47.2.17.22.37.19.6v.27c.08.5.08 1.01.06 1.51 0 .09.03.18.04.27.09.46.06.93.04 1.4 0 .09-.01.18 0 .27.02.33-.06.43-.31.38-.12-.02-.27-.03-.33-.13-.12-.17-.19-.4-.27-.62-.04-.09-.04-.21-.06-.3-.03-.13-.08-.25-.09-.37-.02-.13-.01-.26-.01-.37-.11-.1-.22-.18-.31-.29-.02-.03.05-.18.09-.29-.03-.05-.1-.11-.1-.18 0-.36-.21-.58-.32-.87-.08-.2-.15-.4-.13-.63.02-.3-.06-.57-.19-.81-.11-.21-.22-.43-.35-.69.08-.37-.02-.75-.27-.88.05-.35-.01-.67-.12-.99-.21-.62-.39-1.25-.53-1.9-.12-.57-.35-1.1-.53-1.65-.03-.08-.06-.16-.08-.25-.11-.53-.27-1.02-.45-1.51-.06-.15-.04-.34-.18-.43.06-.29-.1-.49-.15-.74-.01-.07.01-.15.02-.23-.21-.27-.34-.59-.39-.97-.01-.09-.05-.17-.08-.25-.06-.21-.11-.42-.17-.62-.06-.22-.15-.42-.21-.64-.08-.28-.15-.57-.22-.85-.03-.11-.04-.23-.08-.34-.1-.28-.21-.55-.21-.88 0-.11-.06-.22-.1-.32-.02-.05-.07-.1-.06-.13.11-.48-.26-.74-.29-1.16v-.04c-.05-.63-.35-1.13-.48-1.71-.16-.68-.27-1.39-.4-2.08-.02-.09-.04-.17-.07-.25-.06-.21-.13-.41-.2-.61-.05-.12-.1-.24-.16-.36-.02-.06-.07-.1-.09-.15-.08-.37-.16-.75-.24-1.13-.01-.06 0-.14-.03-.19-.25-.42-.33-.94-.48-1.42-.2-.67-.35-1.36-.5-2.05-.08-.41-.11-.85-.18-1.27a8.29 8.29 0 0 0 -.44-1.61c-.06-.16-.09-.34-.13-.52-.01-.05 0-.12-.02-.15-.31-.56-.28-1.29-.5-1.89-.04-.12-.02-.3-.03-.48-.11-.07-.27-.11-.28-.38 0-.08-.11-.17-.18-.24-.21-.23-.43-.45-.63-.7-.06-.09-.07-.25-.11-.42-.41-.09-.58-.67-.99-.9-.17 0-.4-.01-.63-.01-.22 0-.45.02-.72.03 0-.01-.03.04-.04.1-.03.26-.13.44-.32.53-.22.1-.24.43-.37.63-.06.1-.11.21-.16.32-.02.04-.06.09-.06.13-.03.28-.07.57-.08.86-.01.39 0 .78-.01 1.18 0 .1.02.21.03.31.01.12.04.24.03.35-.05.67.2 1.15.5 1.64.15.24.34.44.43.78.09.38.04.7-.04 1.06-.08.33-.11.68-.15 1.03-.02.16-.02.31-.12.42-.04.05-.06.13-.08.21-.16.68-.27 1.37-.27 2.08 0 .16-.07.33-.08.49-.04.42-.05.85-.19 1.25-.04.11.03.28.02.43 0 .31-.04.62-.06.93-.02.29-.09.6-.03.85.1.42-.05.81.02 1.22.07.46 0 .96-.02 1.45-.01.57-.03 1.15-.04 1.71 0 .17.05.33.06.5 0 .16.01.36-.04.49-.09.2-.06.37-.01.56.1.43.15.87.06 1.32-.02.1-.04.22-.01.31.1.33.06.67.03 1.01 0 .05-.02.11 0 .16.18.77.11 1.58.12 2.37 0 .07 0 .13.02.19.06.24.15.46-.02.69-.03.05.01.19.02.29.02.18.06.36.06.54-.01.55 0 1.09.03 1.64.02.28-.02.59.06.83.11.31.04.55-.05.84.1.13.14.27.09.48-.04.18-.03.39 0 .58.06.36.05.7 0 1.06-.02.22.03.47-.03.66-.1.32-.08.64-.11.96-.04.47-.03.9.03 1.35.03.27-.05.57-.07.86-.03.39-.02.78-.12 1.16-.01.06.03.15.04.23 0 .07.03.17 0 .22-.14.34-.12.69-.08 1.05v.08c-.09.59 0 1.21-.18 1.79-.02.06-.01.13 0 .19 0 .05.03.11.02.15-.14.56.07 1.14-.08 1.71-.06.24-.02.54-.02.81 0 .03.01.06 0 .08-.1.26-.1.47.08.69.04.05-.04.28-.04.36.03.36.04.66.09.94.07.31.08.64.13.95.09.59.16 1.19.41 1.71.01.03.04.07.03.11-.05.33.14.51.26.71.14.22.31.39.47.57.07.08.14.08.21 0 .06-.07.13-.18.18-.17.34.06.52-.28.76-.5.15-.14.3-.25.45-.38.18-.16.38-.3.54-.49.2-.24.45-.42.61-.74.18-.37.38-.71.39-1.18 0-.35-.02-.68-.03-1.02s-.02-.68-.08-1.01c-.01-.08-.01-.17-.05-.22-.17-.22-.17-.52-.23-.79-.09-.36-.15-.72-.13-1.11.01-.15-.05-.34-.1-.48-.1-.28-.11-.58-.1-.88 0-.06.02-.14 0-.19-.15-.4-.15-.83-.13-1.26 0-.18-.06-.36-.09-.53-.08-.34-.07-.67.03-1.02-.13-.13-.16-.31-.16-.53 0-.51-.04-1.01-.06-1.52 0-.25 0-.5-.03-.74-.01-.25-.05-.49-.07-.73 0-.07-.03-.14-.02-.19.13-.59-.03-1.16-.04-1.75 0-.36-.04-.71 0-1.09.04-.26-.03-.54-.06-.81-.08-.56-.15-1.12-.13-1.7.02-.42.08-.85-.07-1.27-.07-.19-.06-.48 0-.69.05-.23.05-.43.04-.65 0-.23-.05-.46.05-.68.03-.06.02-.16 0-.23-.08-.27-.11-.56-.08-.85.06-.43-.12-.88.05-1.3.01-.03.02-.08 0-.11-.18-.38-.07-.82-.15-1.23-.05-.25 0-.54 0-.81 0-.08 0-.16-.02-.23-.07-.2-.07-.36.16-.44-.2-.28-.2-.56-.13-.86.02-.07.02-.16 0-.24-.09-.42.09-.84 0-1.27.14-.49 0-1.01.1-1.5.02-.09.03-.18.05-.27.15-.62.21-1.26.21-1.9v-.04c.05-.45.11-.9.17-1.35 0-.11.04-.21.04-.31 0-.19 0-.36.13-.5.05-.06.04-.19.06-.29.02-.15.04-.3.06-.49.1.06.16.1.24.15.02-.08.03-.15.06-.19.04-.07.11-.19.16-.19.06 0 .16.09.17.17.12.52.39.89.63 1.3.07.11.09.26.14.39.15.37.31.73.44 1.1.18.5.37 1 .46 1.55.04.25.16.48.22.72.11.44.12.93.36 1.29 0 .65.3 1.18.42 1.79.06.29.19.56.28.85.08.24.14.48.22.72.06.21.14.43.21.64.094.247.094.494 0 .74.1.11.24.19.19.42 0 .03 0 .09.02.11.24.26.17.68.29 1 .06.15.1.31.16.46.16.33.19.75.42 1.02.02.02.03.07.03.11.02.43.17.79.34 1.13.02.04.04.09.04.14 0 .47.23.82.34 1.23.03.12.09.23.14.37-.1.2-.07.38.07.59.15.22.28.47.24.82-.01.1.1.24.17.35.07.12.1.21.08.39-.03.39.09.73.22 1.08.02.07.09.14.08.2-.04.32.04.6.16.86 0 .02.02.06.01.07-.1.37.07.65.14.97.07.33.07.67.14 1 .07.31.19.6.25.91.13.65.39 1.26.39 1.96 0 .13.04.26.07.38.17.67.38 1.32.52 2 .1.49.19.97.29 1.46.04.17.09.34.13.52l.06.26c.09.62.17 1.24.27 1.85.04.24.1.48.19.7.11.25.11.52.15.79.11.73.25 1.45.38 2.17.05.31.15.59.22.89.02.11.03.25 0 .35-.07.21-.05.4-.02.61.02.11.05.25.01.35-.08.26 0 .47.04.72.08.44.26.84.28 1.3 0 .1.04.21.08.29.22.51.42 1.03.68 1.5.08.15.18.32.27.45.13.17.26.38.48.41.17.02.34.08.52.12.09-.2.16-.34.28-.47.14-.14.21-.41.31-.62.03-.07.03-.18.08-.21.21-.15.2-.46.29-.69.13-.32.21-.7.45-.94.08-.08.13-.23.19-.35.23-.46.47-.93.71-1.39.11-.21.13-.41.08-.67-.07-.35-.09-.72-.14-1.07zm-34.33-9.12c-.07-.26 0-.56 0-.84 0-.3.05-.62-.15-.88a.302.302 0 0 1 -.05-.16c.03-.22-.04-.42-.08-.63-.04-.19-.08-.36-.22-.52-.12-.13-.16-.35-.22-.54-.06-.21-.11-.42-.16-.64-.07-.26-.13-.52-.2-.78-.02-.1-.07-.19-.11-.3.12-.16.13-.34.09-.54-.03-.15 0-.31.03-.47.04-.25 0-.5 0-.75 0-.09-.02-.2.02-.27.07-.14.06-.25-.07-.37l.31-.2c-.07-.02-.12-.02-.16-.04-.12-.05-.19-.14-.13-.27.09-.15.04-.29-.02-.43-.07-.16-.11-.32 0-.49-.22-.21-.24-.45-.19-.73.04-.19.02-.39.03-.59.02-.28.04-.55.05-.83 0-.09-.02-.19-.05-.27-.05-.13-.1-.26-.04-.41.02-.04 0-.12-.02-.16-.07-.09-.06-.18-.07-.28 0-.29-.06-.59-.07-.88-.01-.3-.12-.58-.19-.87 0-.03-.01-.06 0-.08.15-.38 0-.77 0-1.16 0-.32-.1-.64-.13-.96-.04-.38-.15-.74-.12-1.13.02-.2-.01-.41-.04-.62-.02-.17-.06-.33.02-.49.02-.05 0-.13 0-.19 0-.05-.04-.13-.02-.16.18-.29-.07-.56-.02-.84 0-.03-.06-.07-.08-.11-.03-.08-.09-.18-.07-.25.08-.32-.03-.63-.02-.95 0-.18-.02-.36-.03-.53 0-.05-.01-.1 0-.14.11-.18.1-.38.06-.57 0-.04 0-.1.03-.13.07-.11.06-.2-.03-.3a.307.307 0 0 1 -.06-.21c.06-.36-.05-.7-.1-1.06-.03-.24-.03-.48-.06-.72-.02-.22-.05-.45-.1-.66-.11-.44-.18-.88-.17-1.34 0-.16-.04-.31-.06-.47-.04-.28-.08-.56-.13-.84-.01-.07-.03-.15-.03-.22-.02-.3-.05-.61-.08-.91 0-.04-.05-.08-.05-.12-.05-.32-.11-.64-.15-.95 0-.05.06-.11.1-.19-.35-.11-.21-.42-.26-.64-.05-.19-.05-.4-.06-.61 0-.13.02-.26 0-.39-.01-.28-.02-.56-.06-.83-.02-.15-.12-.29-.18-.45.03-.05.09-.13.1-.21 0-.06-.06-.13-.11-.22.08-.09.01-.19-.03-.32-.03-.11.03-.25-.18-.28.2-.18.19-.35.1-.53-.03-.06-.02-.13-.03-.19-.02-.06-.07-.13-.06-.18.07-.27.1-.52-.04-.78-.07-.12-.04-.29-.2-.37-.03-.01-.06-.09-.05-.12.03-.13-.04-.24-.03-.34.03-.29-.14-.47-.32-.67.1-.15.14-.29-.06-.4-.04-.02-.1-.09-.09-.13.04-.25-.14-.37-.3-.46-.28-.16-.38-.43-.5-.69-.05-.11-.04-.25-.22-.22-.02 0-.04 0-.05-.02-.11-.16-.22-.33-.35-.49-.23-.28-.47-.55-.77-.75-.11-.07-.25-.07-.31-.24-.03-.1-.2-.09-.29-.02-.127.1-.227.074-.3-.08 0 0-.02-.03-.05-.06-.04.02-.11.02-.13.06-.17.27-.4.36-.7.2-.04.12-.07.2-.11.3-.22 0-.26.15-.28.33-.02.23-.02.47-.18.67-.03.04-.02.11-.02.16 0 .27 0 .55.04.81.05.26.04.5.02.74-.01.13-.04.26-.06.38l-.03.24c0 .05.02.11 0 .14-.21.24-.06.51-.06.79-.07.03-.15.05-.25.09.02.1.04.18.06.29-.08.06-.16.11-.22.16-.03.17-.08.33-.08.48 0 .13.07.26.12.41-.24.08-.16.36-.29.53-.02.02 0 .08 0 .11.16.34 0 .6-.19.89.04.04.09.08.15.14 0 .02 0 .05-.02.08-.01.02-.04.04-.04.07-.05.26-.12.53-.14.79-.02.29-.06.57-.16.85-.08.26-.17.52-.15.81.01.19-.04.39-.06.58-.03.23-.12.46.07.67.02.02.02.06.01.08-.05.22 0 .42.01.64.03.43.03.86.04 1.28 0 .06.02.12 0 .17-.08.21-.11.42.04.61v.03c-.02.34-.04.69-.08 1.03-.02.19-.1.38-.13.57-.02.11.01.23.02.4-.02.03-.07.12-.13.2-.07.11-.08.22-.01.34.06.1.05.2.02.32-.04.15-.02.31-.04.46-.03.27.05.56-.15.8-.04.04-.04.12-.05.18-.02.16-.02.32-.03.48 0 .05-.01.11 0 .14.17.28.03.55 0 .82-.02.2-.05.41-.07.61-.03.36-.05.73-.07 1.09v.03c-.18.45-.05.91-.05 1.37 0 .51 0 1.03-.17 1.52a.32.32 0 0 0 -.03.14c0 .35-.09.7.03 1.05.02.05-.01.11-.02.16-.01.09-.04.17-.03.25.02.28.05.55-.02.83-.04.18.06.38.07.58 0 .19-.05.39-.02.57.07.52-.01 1.02-.06 1.53 0 .09 0 .18.01.28 0 .06.04.13.01.16-.18.23.01.51-.1.75-.03.05.06.17.1.27-.11.14-.2.3-.08.49-.1.35.05.69 0 1.06-.05.34-.08.7-.07 1.05 0 .39-.09.75-.13 1.13-.01.09-.01.18 0 .28.01.15.04.3-.08.42-.02.02-.03.05-.03.08 0 .19 0 .39-.1.57.1.31-.02.6-.07.89-.06.42-.04.86-.22 1.26-.01.03-.04.08-.03.11.08.21.04.4-.11.57-.04.05.02.17.04.3-.11.15-.23.34-.13.59.01.02 0 .06 0 .08-.05.32-.15.64-.15.97 0 .29-.17.58-.02.88-.11.28.07.61-.14.89-.05.06-.06.16-.07.24-.06.36-.1.73-.21 1.09-.1.33-.22.65-.34.97 0 .04-.04.09-.04.13.02.19-.04.39-.03.57.02.36-.04.7-.14 1.04-.01.05-.01.11 0 .17.02.15.04.3.07.44 0 .04.02.1.05.12.1.06.18.13.19.26 0 .02.03.06.05.06.21.03.34.28.58.21.05-.01.1.04.16.05.15.01.29.04.44.02.17-.01.33-.07.49-.11.23-.05.48-.08.55-.37 0-.03.05-.04.08-.06s.09-.03.1-.06c.12-.28.24-.57.36-.85a.31.31 0 0 0 .02-.08c-.06-.43.07-.85.08-1.27 0-.2.13-.39.05-.59.19-.32.07-.68.15-1.02.07-.29.03-.61.13-.92.08-.22.04-.48.1-.72.04-.19.03-.37-.04-.55-.04-.11-.03-.19.04-.29.05-.07.07-.18.06-.26-.05-.33-.08-.65-.03-.98v-.03c-.02-.33-.13-.66.11-.98-.11-.02-.17-.03-.23-.05-.04-.12-.03-.2.09-.25.11-.04.14-.14.13-.25-.02-.25-.03-.5-.04-.75 0-.1-.02-.2-.02-.3 0-.08.02-.16.03-.25.02-.09.03-.18.02-.26 0-.08-.04-.17-.03-.25.03-.24.08-.47 0-.72-.03-.09.05-.22.05-.33 0-.17-.05-.34-.02-.5.03-.15.16-.27.15-.44 0-.15.01-.29.01-.48.1-.07.15-.22.13-.4-.01-.13 0-.26.11-.36.06-.06.05-.16.09-.3.09-.05.18-.16.22-.33.02-.09.16-.17.26-.23.18-.13.37-.22.62-.21.37.02.75.04 1.1.18.11.04.22.1.33.15.06.03.11.06.17.09.09.05.17.11.25.17.07.04.13.11.2.13.17.04.25.14.26.32.22-.01.32.06.43.25.18.33.34.68.6.97.03.03.06.08.05.12-.02.17.05.31.15.44.02.03.04.07.05.1.06.53.17 1.05.14 1.58 0 .13.06.26.07.38 0 .17-.06.35.12.48.02.02.01.13-.02.17-.08.1-.05.2-.03.32.06.3.16.59.14.91 0 .07.03.14.05.21.04.13.1.26.11.4.04.39.07.78.09 1.17.03.36.05.72.08 1.08 0 .03 0 .06.02.08.21.39.24.84.38 1.25.03.1.02.22.04.33 0 .07.03.14.05.21.02.05.06.12.05.15-.13.27.03.49.09.73.07.24.16.48.19.72.03.26.14.48.25.71.05.11.2.19.32.23.17.06.36.11.54.11.35 0 .48-.31.61-.57.05-.11.09-.22.14-.33.11-.26.22-.51.33-.77.02-.04.03-.09.06-.13.26-.28.27-.65.35-.99.03-.11.07-.21.11-.31.05-.17.14-.33.15-.5.02-.32.08-.65.01-.98-.01-.08 0-.16 0-.24.03-.3.13-.58.05-.9zm-7.99-34.73s.04.02.06.04c-.02.02-.04.06-.06.06s-.05-.02-.12-.05c.07-.03.09-.05.12-.05zm-1-2.13c.02.06.04.08.05.12 0 .01-.05.05-.06.04-.03-.01-.06-.04-.06-.07 0-.02.04-.05.08-.09zm4.62 23.51c0 .23-.05.47-.03.7.04.37-.02.73-.13 1.08-.05.16-.07.35-.27.43-.03.01-.04.08-.05.12-.04.18-.09.22-.27.18-.07-.02-.14-.03-.18-.07-.16-.14-.32-.11-.45.02-.32-.14-.67-.15-.91-.38-.45.11-.81 0-1.09-.37-.05.08-.08.14-.12.21-.15-.02-.28-.05-.36-.2-.02-.04-.09-.06-.13-.09-.15-.1-.31-.18-.51-.13.04-.12.07-.23.11-.33-.08-.08-.25-.09-.2-.23.05-.13-.01-.23-.05-.35-.08-.25-.14-.5-.23-.75-.06-.17-.07-.3.04-.42-.05-.09-.12-.18-.12-.25 0-.1.07-.19.11-.29-.05-.05-.1-.09-.13-.12.01-.12.05-.23.02-.32-.07-.21 0-.4.02-.6 0-.26-.04-.53.08-.78.02-.04-.01-.11-.04-.16-.06-.11-.03-.21.02-.32.08-.2.16-.39.04-.61a.394.394 0 0 1 -.04-.3c.07-.26.02-.52.04-.77.01-.15-.01-.3 0-.44 0-.19.03-.39.04-.59.03-.3.25-.58.1-.91v-.05c.13-.25.13-.52.09-.79 0-.04 0-.12.02-.13.19-.11.14-.23.05-.37-.02-.04-.02-.09-.03-.14-.05-.26.02-.5.18-.71-.08-.08-.14-.13-.22-.21.15-.17.03-.46.27-.61.01 0-.01-.11-.05-.15-.03-.04-.09-.05-.15-.08.05-.12.1-.22.14-.32.07-.16-.14-.18-.14-.24.08-.29.15-.54.22-.78-.16-.1-.16-.26-.15-.42.02-.23.03-.47.05-.7.01-.14 0-.28.04-.42.05-.18.05-.36-.04-.52-.13-.23-.05-.48-.03-.71.01-.16.11-.31-.05-.45-.02-.01-.02-.06-.02-.08.04-.24.07-.48.13-.71.05-.22.13-.42.2-.64-.267.02-.393-.053-.38-.22.213-.026.35-.153.41-.38.02-.07.03-.15.04-.22.04-.19.07-.38.11-.58-.01-.11-.04-.23-.04-.36 0-.12.03-.24.03-.36 0-.18-.02-.36.19-.46-.11-.17-.12-.32.01-.47.04-.04 0-.14 0-.21-.02-.15-.03-.28.12-.4.11-.09.18-.23.25-.36.05-.09.04-.22.2-.24.03 0 .06-.11.09-.17l-.05-.05c-.08.03-.17.05-.26.08.11-.24.21-.46.3-.67.01-.02.03-.05.05-.06.17-.04.18-.21.28-.32-.08-.06-.15-.1-.21-.15.2 0 .36-.2.57-.06-.02.09-.04.17-.06.27.09 0 .17.01.2.02.15.27.29.51.42.75.03.04.04.12.02.16-.06.13 0 .23.01.35.03.25.26.47.13.74 0 .01 0 .04.01.06.13.31.18.63.19.96.01.17.02.31-.19.39.17.1.24.21.2.38-.02.06.03.14.06.21.02.07.07.14.07.21 0 .23.03.46-.04.69-.04.14-.06.36.02.45.12.14.11.26.1.41 0 .11 0 .22.01.34.06.46.14.92.17 1.39.01.38.21.74.09 1.13a3.173 3.173 0 0 1 .05 1.24c-.01.07-.03.17 0 .21.14.16.11.33.09.51-.03.26 0 .52.06.78.05.2.1.39.12.6.04.42.04.84.1 1.25.08.59.07 1.19.24 1.76.02.04 0 .1 0 .14.01.23.02.47.04.7.01.14.04.27.06.41.02.13.03.26.05.39 0 .08.01.17.02.25.01.22.03.44.04.66.01.26.05.52.03.78-.02.19 0 .32.15.42-.13.21-.12.21-.1.43.04.38.07.76.1 1.14 0 .12-.03.24-.04.36 0 .11-.03.22-.02.33.02.22.06.44.06.66zm-9.86 12c.07-.21-.1-.42-.03-.63.02-.07.06-.15.04-.2-.1-.26-.01-.51 0-.77.01-.12-.05-.23-.06-.35-.01-.18 0-.37 0-.55 0-.09.03-.18 0-.26-.11-.28-.04-.56-.01-.85.03-.24 0-.49-.02-.74 0-.07-.05-.16-.01-.21.15-.25.02-.48-.01-.71 0-.11-.03-.21-.02-.32.01-.1.04-.2-.06-.29-.04-.04-.02-.15-.02-.23 0-.16.01-.31.02-.47 0-.15 0-.31.04-.45.06-.2 0-.39-.03-.57-.04-.19.01-.37 0-.55v-.03c.12-.16.13-.31-.01-.47-.02-.02 0-.08.01-.13s.06-.12.04-.15c-.19-.24.06-.53-.13-.79-.09-.13-.05-.35-.07-.54l-.03-.55c0-.07.02-.14.03-.2 0-.03.04-.07.02-.1-.13-.26.06-.53-.03-.8-.02-.06.04-.15.07-.26-.05-.03-.11-.07-.15-.09 0-.06-.01-.08 0-.09.08-.11.1-.22.06-.37-.05-.16-.02-.33-.04-.5-.01-.11-.04-.22-.06-.33 0-.04-.03-.07-.03-.1.04-.51-.11-1.02.04-1.54.02-.06-.01-.16-.06-.22-.1-.14-.11-.28-.01-.41.06-.09.06-.16 0-.24-.14-.19-.14-.4-.12-.62.01-.25 0-.5-.01-.75 0-.09-.09-.17-.14-.27.23-.21.06-.49.07-.74.01-.19-.07-.39-.09-.59-.01-.14-.03-.27-.01-.41.02-.12.01-.25.01-.37 0-.42-.02-.84 0-1.27 0-.19.08-.38.12-.56 0-.05.03-.12.01-.15-.11-.16-.05-.31-.02-.46.06-.4.14-.79.18-1.2.02-.26-.02-.52-.03-.78 0-.05-.03-.11-.02-.16.14-.41.06-.83.13-1.25.01-.05 0-.11-.02-.16a.621.621 0 0 1 .07-.53c.08-.12.13-.25-.04-.37-.08-.05-.06-.14-.01-.22.08-.12.09-.25.07-.4-.04-.24-.05-.47.14-.67.02-.02.02-.05.03-.07.04-.19.1-.39.13-.59.02-.15.03-.3.02-.44 0-.13 0-.24.07-.36.02-.03.05-.08.05-.12-.02-.29.07-.57.02-.86-.04-.22-.03-.45-.04-.7-.05-.01-.12-.03-.2-.05-.08-.29-.28-.41-.59-.35-.11.02-.21.05-.33.08-.04-.07-.08-.13-.12-.21-.24 0-.48.01-.71.14-.05.03-.13.02-.18.05s-.11.07-.13.12c-.15.27-.29.54-.43.81-.07.13-.12.27-.17.41-.07.19-.1.38-.2.57-.09.19-.1.42-.13.63-.02.08-.02.15-.03.23-.04.21-.06.42-.24.59-.08.07-.06.25-.06.38.01.29.05.57-.09.85-.05.08 0 .21-.02.31-.04.28-.1.55-.13.83-.02.25-.04.51 0 .76.02.15.01.28-.06.4s-.1.24-.09.38c0 .08-.02.16-.04.23-.06.34-.12.67-.19 1.01-.02.09-.05.17-.08.25-.02.07-.04.14-.05.2-.03.2-.02.41-.1.59a1.8 1.8 0 0 0 -.13.72c0 .05-.03.1-.04.15-.02.09-.05.18-.07.27 0 .03 0 .08-.02.1-.19.15-.13.4-.24.58-.02.04-.02.1 0 .15.06.17.04.33-.05.49-.09.14-.01.33-.16.46v.05c.17.3-.1.49-.19.72-.04.09-.07.18-.1.27-.05.15-.11.3-.13.45-.04.27-.16.5-.28.74-.01.02-.03.05-.02.07.07.18 0 .3-.16.39-.02.01-.04.05-.04.07.05.17-.06.28-.15.4-.06.07-.07.18-.08.28-.03.24-.13.43-.34.55-.11-.1-.2-.19-.3-.27 0 0-.02-.01-.02-.02.04-.24-.24-.38-.2-.63.02-.18-.03-.36-.06-.55 0-.05-.05-.11-.03-.15.06-.14 0-.23-.12-.29.12-.36.03-.69 0-1.02-.02-.18-.02-.35-.04-.52 0-.04-.01-.09-.03-.13-.08-.24-.17-.48-.25-.73-.01-.04-.02-.1 0-.13.1-.14.06-.27 0-.42-.05-.14-.04-.28 0-.44.05-.18.02-.38-.01-.57s.06-.4-.12-.55c-.01 0-.02-.03-.01-.05.06-.31-.06-.6-.1-.91-.02-.17 0-.35.01-.52v-.44c0-.26-.02-.52-.05-.78-.04-.34-.1-.68-.15-1.01l-.21-1.51c0-.07.02-.13.03-.2-.12-.16-.24-.33-.39-.52.13-.25.09-.52-.06-.8-.05-.1-.06-.22-.08-.33 0-.03.01-.06 0-.08-.17-.23-.07-.49-.09-.74 0-.12-.06-.23-.08-.35a.916.916 0 0 1 -.01-.33c.02-.17.05-.32 0-.49-.04-.12.04-.28.07-.42 0-.04.04-.07.07-.11-.18-.19-.19-.42-.25-.64-.08-.28-.12-.59-.47-.72-.08-.03-.14-.11-.19-.18s-.08-.15-.13-.24h-.28c-.16 0-.4.18-.45.33-.01.04-.05.1-.07.09-.1-.01-.13.03-.14.12l-.02.02c-.43.1-.2.48-.33.71-.05.08-.03.22-.08.3-.14.17-.11.3.04.43-.13.36-.19.7-.13 1.07.04.28.02.57.03.86 0 .07 0 .14.02.21.05.28.12.57.17.85.07.4.06.8-.05 1.2-.04.12-.02.23.04.35.07.15.09.32.09.49 0 .06-.11.12-.18.2.16.18-.12.46.19.64-.18.07-.24.19-.24.34 0 .06-.05.13-.07.2-.03.09-.06.18-.1.27-.02.07-.04.15-.07.22-.01.02-.03.04-.04.07-.04.13.14.25.01.37-.12.12-.07.24-.03.37.03.09.03.2 0 .29-.05.19-.06.36.12.51-.06-.01-.13-.03-.2-.04a.41.41 0 0 0 -.04.41c.07.15.03.29.02.44-.01.17-.04.33-.06.49l-.06.38c0 .07-.03.15 0 .2.09.14.05.27 0 .4-.08.16-.1.3.06.44-.11.13-.17.27-.11.42.02.06-.02.13-.03.2-.02.09-.04.18-.05.27-.01.05 0 .12-.03.15-.16.16-.12.32-.02.47-.01.03-.01.05-.02.06-.153.107-.153.24 0 .4-.08.25-.17.48-.23.72-.03.1.02.21.04.31.03.12.02.21-.02.33-.07.18-.09.37-.11.56 0 .06.02.12.01.18-.06.3-.13.6-.19.9 0 .06.02.13.02.2 0 .11.05.24.01.34-.09.2-.01.38 0 .57 0 .04.01.1.04.12.12.12.11.22 0 .34-.15.17-.05.33.11.47-.05.05-.11.09-.14.13-.04.06-.09.13-.1.21-.02.2-.03.4-.04.6v.31c0 .04.02.1 0 .13-.14.15-.06.31-.05.48.01.29 0 .58-.02.87-.02.16-.09.32-.12.48-.02.05-.04.11-.02.16.14.39 0 .77.02 1.16 0 .15-.04.31-.06.47 0 .05-.02.11 0 .13.2.17.06.4.13.6v.05c-.17.21-.04.42-.02.63.01.17 0 .34 0 .51 0 .45.03.9-.11 1.33-.02.07-.03.17 0 .21.22.23.04.46.01.69 0 .05-.02.11 0 .15.08.24.07.46-.02.69-.03.06-.02.14-.01.21.04.31.04.61-.09.91-.03.07-.03.15-.02.23.02.23.1.45-.08.67-.07.09-.02.27-.02.41 0 .13.03.26.02.39-.02.15 0 .3.06.44.07.13.08.26.07.41-.01.17.05.34.08.51.02.12.06.24.07.35 0 .11.02.21.16.27.06-.03.12-.08.19-.12.05.03.11.06.15.08.03-.02.05-.02.05-.04.17-.23.34-.46.5-.69.12-.17.23-.34.34-.51.02-.04.06-.11.04-.15-.08-.26.05-.49.07-.73 0-.16 0-.33.02-.5.03-.22.07-.43.14-.64.06-.18.14-.34.07-.54-.02-.05 0-.12 0-.18 0-.16-.02-.31-.03-.47 0-.12-.02-.24 0-.36.04-.23.05-.23-.13-.34-.03-.21-.05-.38-.07-.55 0-.04-.03-.07-.02-.1.08-.31-.05-.62-.02-.94.02-.2-.06-.42-.05-.62 0-.24-.03-.49.05-.72 0-.03.02-.05.01-.08-.08-.37.01-.71.08-1.07.01-.07-.01-.14-.02-.21 0-.06-.02-.13 0-.18.09-.17.07-.34.05-.52v-.47c0-.05.02-.12 0-.16-.11-.18-.04-.35 0-.53.05-.27.06-.55.08-.83 0-.17.01-.33.02-.5 0-.07.03-.15 0-.21-.05-.14 0-.24.04-.37a.56.56 0 0 0 -.02-.44c-.15-.27.02-.44.16-.63.02-.03.05-.05.09-.09-.14-.17-.15-.37-.12-.57.01-.04 0-.09.03-.12.18-.21.13-.4-.05-.58-.02-.02-.02-.05-.03-.08.09-.13.18-.27.28-.42-.13-.06-.15-.17-.13-.31.02-.19.02-.39.04-.58 0-.17.01-.17-.11-.31.09-.14.13-.3.06-.47-.02-.04 0-.1.02-.13.17-.21.1-.46.13-.69.04-.36-.03-.72.1-1.07 0-.03.02-.07.02-.1-.01-.36.03-.72.09-1.07.02-.12.03-.25 0-.37-.1-.35.02-.67.12-1 .03-.1.07-.21.05-.31-.08-.49.17-.91.25-1.37.01-.06.06-.11.15-.16.05.18.11.37.15.55.06.28.09.55.13.83.27.29.11.68.26 1 .13.29.1.6.09.91 0 .06-.01.14.02.18.14.13.1.26.08.42-.02.27 0 .54.11.74-.01.17-.02.3-.03.43-.03.38.03.75.07 1.12.04.32.12.64.06.97-.01.04.05.09.06.14.04.11.08.21.03.35-.04.12-.01.28.02.41.12.43.2.86.22 1.31.02.49 0 .99.08 1.48.02.17-.04.36 0 .54.07.3-.03.59 0 .89.01.12.02.25.06.36.07.22.07.42 0 .64-.08.28-.03.58.04.86.04.17.14.32.21.48.06.16.12.33.18.49.02.06.06.13.11.18.27.36.49.32.84.17.06-.02.1-.09.16-.09.18-.02.24-.13.28-.28.01-.07.04-.15.1-.19.18-.13.29-.31.43-.47.13-.14.23-.29.3-.47.05-.14.15-.25.22-.39.15-.3.27-.61.27-.95 0-.03 0-.05.02-.08.12-.28.16-.57.12-.86 0-.03-.01-.06 0-.08.15-.23.05-.5.16-.73a.37.37 0 0 0 -.01-.38c-.02-.04-.04-.12-.01-.15.1-.12.03-.26.04-.38.01-.24 0-.48.16-.69-.06-.07-.15-.14-.16-.21 0-.06.09-.13.16-.21a1.68 1.68 0 0 0 -.18-.21c.03-.02.04-.05.07-.06.18-.06.21-.08.15-.23-.07-.19-.11-.37.02-.56.03-.04.01-.12.01-.18 0-.28 0-.55.13-.81a.38.38 0 0 0 .03-.26c-.02-.11-.03-.2.05-.29.01-.01.02-.04.02-.05-.14-.23.07-.4.12-.59.05-.2.17-.38.23-.58.04-.14.12-.3.05-.46-.04-.11-.02-.2.06-.29.04-.04.08-.1.09-.15.04-.15.04-.3.1-.43.16-.32.1-.68.21-1 .02-.04 0-.1.04-.12.15-.1.22-.23.17-.41 0-.02.05-.08.08-.09.03 0 .1.03.1.05 0 .18.18.18.3.24 0 .08 0 .15-.02.23-.02.14-.02.28.08.4.09.11.03.22-.01.32-.06.13-.11.24.06.34.1.06.08.16.05.27-.02.11-.02.22-.03.33v.23c-.03.17-.03.33.03.49.03.07.05.17.02.23-.1.17-.09.36-.09.54v.05c-.08.18-.04.32.17.4-.05.08-.08.14-.12.2.05.15.15.29.06.45v.03c.21.16.05.36.07.54s.07.36.01.55c-.01.05.02.1.03.15.04.2.07.4.03.6-.03.13 0 .26 0 .39 0 .27-.01.54 0 .8 0 .08.02.17.06.25.06.14.09.26 0 .4-.05.07-.04.18-.06.28 0 .04 0 .1-.02.13-.13.15-.05.26.04.33 0 .17 0 .29.01.42 0 .04.01.09 0 .13-.16.42-.02.84 0 1.26 0 .31-.02.63-.05.94 0 .04-.09.07-.16.13.22.08.16.24.17.4.01.48-.08.97.05 1.44.02.08 0 .2-.05.28-.07.12-.05.23-.03.35.03.23 0 .47.02.7.01.33-.13.65 0 .98.02.04 0 .09 0 .13v.39c-.09.05-.1.15 0 .28.03.04.05.1.04.15-.08.43-.03.86.02 1.28.06.48.05.97.25 1.42.02.06.02.12.03.18.05.24.06.49.24.69.01.01.03.03.03.05.08.35.15.7.22 1.05.05.07.12.15.18.23.07.09.13.17.27.13.03-.01.08-.01.11 0 .15.09.24.02.31-.1.03-.05.07-.11.12-.14.28-.15.4-.41.56-.66.15-.23.17-.46.23-.7.05-.21 0-.42.04-.62.01-.05-.02-.1-.04-.15-.01-.03-.06-.07-.05-.09zm-11.93-16.73s-.06-.08-.06-.1.04-.04.07-.06c.02.02.06.04.06.07 0 .02-.04.05-.07.09zm1.29-15.16c-.04-.05-.08-.08-.08-.11s.05-.06.07-.08c.03.03.08.05.09.08 0 .03-.04.06-.08.12zm39.39 2.19c-.14-.23-.15-.47-.15-.73 0-.13 0-.26-.04-.39a.36.36 0 0 0 -.15-.21c-.15-.08-.19-.19-.15-.35.04-.18 0-.35-.06-.53-.15-.45-.33-.89-.34-1.37 0-.06-.06-.11-.09-.16s-.07-.08-.1-.13c-.11-.21-.3-.4-.2-.68 0-.02-.01-.07-.04-.08-.31-.17-.29-.57-.49-.82-.02-.02-.02-.06-.02-.09.01-.27-.11-.48-.24-.7-.11-.2-.18-.43-.31-.62-.14-.21-.32-.39-.51-.62.09-.19-.03-.34-.24-.43-.03-.01-.07-.03-.08-.05-.12-.3-.45-.36-.63-.59-.04-.05-.08-.09-.1-.15-.05-.12-.11-.2-.26-.21-.06 0-.12-.06-.17-.11-.11-.12-.18-.29-.39-.28-.02 0-.05-.02-.05-.03-.05-.19-.23-.21-.36-.31-.22-.16-.51-.15-.72-.33-.1-.31-.21-.4-.5-.33-.22.05-.38-.04-.55-.14-.16-.1-.32-.22-.52-.19-.13-.25-.38-.37-.6-.5-.15-.08-.23-.18-.31-.34-.11-.25-.27-.48-.4-.72-.05-.09-.09-.19-.11-.3s-.04-.21-.18-.24c-.05 0-.13-.08-.13-.13-.01-.14-.1-.18-.21-.23-.38-.18-.76-.34-1.18-.37-.08 0-.17-.08-.25-.13-.1-.06-.18-.06-.27.02-.08.07-.2.11-.29.18-.15.1-.3.21-.47.33-.26-.08-.27-.06-.41.21-.06.13-.07.32-.28.34-.03 0-.06.11-.07.18 0 .05.03.11.05.17-.07.03-.13.05-.18.06-.12.03-.16.11-.15.22 0 .35.01.7.03 1.05 0 .03.02.06 0 .09-.17.31.03.61.04.91 0 .2.04.4.05.6 0 .06-.04.13-.08.2l.18.11-.28.25c.21.18.28.38.19.63-.02.05 0 .13.03.18.15.21.12.44.1.68-.02.21.06.42-.04.62-.02.04.04.13.08.18.08.09.1.17.02.27-.1.14-.09.31-.07.46.05.34.05.68-.01 1.02-.01.1.03.2.01.3-.03.19.03.4-.13.57-.03.03 0 .16.03.21.08.12.08.24.06.37-.03.37-.11.76-.04 1.12.09.52-.04 1.02-.04 1.52 0 .29-.08.58.03.87.03.07 0 .16 0 .24.01.11.04.21.07.31.02.07.08.13.07.19-.05.48.05.96.04 1.44 0 .15-.03.3-.04.45 0 .16 0 .32-.02.47 0 .06 0 .13-.03.17-.12.13-.08.25-.02.39.13.28.05.57.01.86-.03.22-.03.42.06.62.06.14.09.29 0 .43-.01.02-.02.06-.02.09l-.03.75c0 .21-.02.42-.02.63 0 .17.02.34.01.51-.02.41-.07.82 0 1.23.06.32.09.65.13.98 0 .09.02.18 0 .27-.03.22-.06.43.03.65.05.11.02.28 0 .41-.03.26.05.52-.03.78-.03.1-.02.23 0 .33.1.39.04.78.03 1.17 0 .11-.01.23.03.33.06.15.05.27-.11.38.16.15.21.29.13.46-.03.06 0 .14 0 .21v.63c0 .04-.01.09 0 .12.16.4.07.82.06 1.22 0 .08-.02.17 0 .24.12.36.05.72-.02 1.08-.02.09-.02.18-.02.27 0 .22.05.44-.03.66-.03.09 0 .2 0 .3.01.48.03.95.02 1.42 0 .4-.03.8-.04 1.2 0 .18 0 .37.04.54.13.56 0 1.12-.05 1.68-.02.26-.14.5-.2.75-.05.28-.22.53-.16.83.03.15.03.3-.06.44-.03.06-.02.16 0 .23.05.26.11.51.16.77.03.16.08.32.08.48 0 .34.13.64.23.95.05.17 0 .36.02.54.01.12.03.24.05.36.01.08.03.16.03.24v.36c0 .04.02.08 0 .12-.1.25-.04.49-.01.74 0 .07 0 .15-.02.21-.08.2-.11.4-.08.62.01.06-.03.13-.04.2-.03.11-.07.21-.07.32 0 .55-.03 1.11.18 1.65.06.13.1.24.24.27h.03c.16.03.26.23.46.16.25-.09.49-.19.68-.39.16-.16.33-.32.51-.46.18-.15.26-.36.33-.57.03-.07.02-.16.02-.24 0-.24.03-.45.11-.68.1-.25.14-.52.19-.79.02-.12.04-.24.17-.3.05-.02.08-.08.11-.12.22-.34.45-.68.75-.96.05-.05.11-.1.13-.16.18-.54.58-.95.78-1.47.1-.26.26-.49.4-.74 0 0 0-.02.01-.03.26-.1.27-.37.37-.57.11-.2.17-.43.27-.64.08-.18.22-.33.27-.52.1-.29.31-.48.51-.67.37-.36.51-.85.71-1.3.02-.05.07-.09.11-.14.02-.03.07-.07.06-.09-.04-.22.13-.37.17-.55.1-.48.33-.9.5-1.35.19-.5.37-1 .57-1.49.11-.27.27-.51.4-.77.02-.04.05-.07.06-.11.07-.39.24-.73.39-1.09.12-.27.19-.56.36-.81.03-.03.01-.09.02-.14 0-.08.02-.15.03-.23.01-.11.04-.22.01-.32-.04-.13 0-.22.07-.33.17-.24.31-.5.47-.75-.07-.26.11-.38.26-.54.16-.16.11-.37-.05-.59.05-.04.09-.08.14-.1.11-.06.14-.16.15-.28.02-.33.13-.64.23-.96.07-.23 0-.52-.03-.77-.01-.11-.02-.21.01-.32.08-.3.17-.61.1-.94-.01-.08.02-.19.07-.24.15-.15.21-.31.18-.52 0-.05 0-.1.03-.15.07-.12.08-.24.09-.38 0-.13.04-.25.03-.4-.01-.09.11-.2.18-.3.04-.07.12-.13.12-.2.02-.31.06-.6.21-.87 0-.01.01-.04 0-.06-.1-.24.03-.45.05-.68.01-.12-.01-.24-.01-.36 0-.21.02-.42 0-.63-.02-.23-.07-.45-.11-.68-.01-.06-.05-.13-.03-.17.07-.15 0-.3.02-.44.05-.4-.03-.79.09-1.2.12-.42.11-.88.16-1.32.01-.12.03-.24.04-.36.02-.21.16-.42.03-.64-.02-.04 0-.12.02-.18 0-.07.05-.15.03-.21-.14-.4.03-.77.05-1.16 0-.12-.01-.26-.07-.35zm-2.47 4.9c-.05.47-.07.94-.11 1.41-.01.2-.04.4-.06.6-.03.25-.11.49-.09.74 0 .17 0 .31-.09.45-.06.09-.09.2-.12.28.04.13.1.24.1.36 0 .47-.01.93-.03 1.39 0 .17.02.36-.04.5-.13.32 0 .69-.2 1-.03.04-.02.12-.01.18.02.37-.03.73-.15 1.09-.05.16-.14.31-.17.48-.04.28-.18.51-.3.75-.03.06-.07.13-.08.19-.05.26-.1.52-.26.73a.18.18 0 0 0 -.04.14c.02.31-.18.56-.24.84-.01.06-.09.1-.12.16-.14.25-.35.46-.28.79-.17.14-.17.14-.18.37 0 .14.02.31-.06.4-.14.18-.2.36-.15.52-.1.18-.17.31-.24.45-.03.06-.04.15-.09.19-.12.1-.11.23-.14.35-.04.15-.09.32-.18.44-.11.14-.17.28-.18.46 0 .08-.04.16-.05.24-.03.15-.06.31-.09.49-.27.25-.5.56-.52.99 0 .05-.02.1-.05.14-.15.3-.29.61-.46.9-.15.25-.29.5-.38.78-.04.1-.09.2-.16.29-.11.16-.28.3-.34.48-.06.16-.13.26-.28.31-.03.01-.05.05-.08.08-.12.13-.23.28-.37.38-.19.15-.4.25-.65.23a.518.518 0 0 1 -.49-.48c-.03-.35.05-.72-.06-1.07.12-.37-.16-.76.04-1.13v-.03c-.03-.25-.05-.5-.08-.75-.02-.15-.05-.3.07-.43.03-.03.02-.12.02-.17 0-.08-.04-.16-.03-.24.04-.43-.11-.86 0-1.28.01-.03-.02-.08-.02-.12 0-.09 0-.18.02-.26.04-.27.13-.54.09-.8-.03-.24 0-.45 0-.68.02-.31 0-.61.11-.91.09-.22.06-.5.05-.75 0-.16.03-.27.13-.38v-.06c-.05-.07-.1-.14-.14-.22.11-.18.11-.37.1-.56 0-.33.09-.66.03-.99 0-.03 0-.06.01-.09.06-.49.11-.98.16-1.47 0-.05 0-.11-.02-.15-.09-.14-.06-.26 0-.4a.62.62 0 0 0 .04-.23l-.06-1.21v-.27-.39c0-.48-.24-.92-.18-1.4 0-.02 0-.04-.01-.06-.09-.34-.11-.69-.09-1.04.01-.15-.03-.31 0-.45.04-.36-.18-.73.07-1.05-.07-.1-.15-.17-.18-.26-.04-.18-.07-.37-.08-.56-.02-.41-.03-.83-.03-1.24 0-.18.02-.37.03-.61-.14-.13-.11-.36-.08-.59.03-.31.09-.64-.05-.95-.02-.05 0-.15.04-.19.11-.14.08-.28.03-.43-.03-.09-.05-.19-.06-.29l-.06-.84c0-.07-.03-.14-.07-.2-.09-.12-.1-.23-.05-.37.03-.06.01-.14 0-.21-.02-.23-.05-.46-.06-.69-.02-.39-.05-.78-.06-1.17 0-.3 0-.6.02-.9.02-.31.12-.61.11-.91 0-.42.06-.82.12-1.23.02-.17-.04-.36.02-.51.14-.33.18-.7.43-.98.22-.25.23-.28.48-.15.15-.03.28-.11.35-.07.18.1.35.08.52.02.08.07.13.16.21.18.24.08.5.1.74.2.25.1.51-.04.77.08.33.16.68.3 1 .5.1.07.21.15.3.23.12.1.23.22.34.33.06.06.12.11.15.18.2.38.4.75.6 1.13.07.12.12.26.2.37.24.3.4.64.48 1.02.03.13.12.24.19.37.01.02.05.05.04.07-.03.22.12.38.16.57.12.49.28.97.33 1.48.02.21 0 .43.08.63.16.46.18.95.22 1.43.02.18-.06.38-.04.56.03.23.08.46 0 .69-.01.04 0 .1 0 .15.16.71.04 1.4-.04 2.11zm37.28 26.63c.06-.43.22-.85.03-1.28-.02-.03-.02-.08-.01-.12 0-.13.06-.28-.05-.4-.16-.17-.34-.31-.58-.34-.27-.04-.55-.07-.83-.09-.1 0-.2.02-.3.03-.12.01-.25.03-.38.05s-.27.04-.41.07c-.15.04-.3.11-.47.04a.139.139 0 0 0 -.09 0c-.3.11-.59.22-.89.33-.04.01-.07.06-.1.06-.37 0-.66.23-1 .34-.17.06-.37.06-.53.16-.09.05-.17.1-.27.12-.21.06-.42.1-.63.14-.07.02-.14.01-.2.05-.2.13-.4.17-.65.17-.21 0-.43.1-.62.19-.34.17-.69.26-1.05.34-.07.01-.15-.03-.23-.05-.26.11-.49.37-.84.29-.05.06-.11.13-.19.22-.11-.22-.34-.29-.41-.55-.04-.18-.17-.34-.21-.54-.02-.11-.05-.2 0-.31.04-.08.04-.17.04-.26 0-.1.01-.2 0-.3-.02-.2-.08-.41-.04-.59.04-.19.14-.37.1-.58-.02-.08.04-.18.05-.21-.03-.19-.05-.32-.07-.46 0-.09-.02-.17-.03-.26 0-.08-.03-.16-.01-.23.04-.14.02-.27-.02-.41-.03-.09 0-.2-.02-.29-.08-.36.12-.66.15-.99.04-.36.08-.72.13-1.08.01-.09.03-.18.07-.26.09-.15.14-.3.12-.48-.01-.08.02-.18.06-.25.14-.25.17-.49-.08-.72.12-.14.09-.28.07-.44-.03-.27-.06-.56.12-.81.03-.06.08-.14.06-.19-.14-.36.04-.71.02-1.07-.01-.27 0-.54 0-.8 0-.09.06-.18.1-.3l-.12-.24c.06-.06.11-.12.19-.19-.07-.08-.13-.15-.21-.25h.2c.047-.146.003-.236-.13-.27l.06-.44c.06-.25.21-.47.18-.74 0-.03.02-.06.02-.09-.16-.35.01-.66.09-.98.02-.07.02-.16 0-.23-.1-.31-.1-.61-.03-.92.07-.33.06-.33-.32-.44.24-.17.46-.33.67-.48.1-.06.24.04.32-.13.02-.03.14 0 .22 0h.28c.31-.03.62-.11.93-.17.38-.07.76-.09 1.14-.14.33-.04.66-.12.99-.2.27-.08.53-.19.78-.29.1-.04.2-.09.3-.14.16-.09.3-.18.46-.27.06-.04.11-.08.17-.11.18-.09.37-.16.5-.35.07-.1.26-.13.39-.19-.03-.24-.04-.49-.08-.75-.03-.2-.08-.38-.33-.45-.08-.03-.14-.15-.22-.24-.28-.05-.59-.08-.85-.28-.07-.05-.2-.04-.29-.02-.14.04-.27.08-.4 0-.03-.02-.08-.02-.12 0-.15.06-.25 0-.35-.14-.07.09-.13.17-.19.25-.06-.02-.13-.02-.17-.05-.21-.16-.43-.11-.65-.03-.08.03-.15.07-.23.07-.55-.03-1.1.09-1.66.03-.3-.03-.61-.1-.85-.3-.04-.04-.08-.12-.07-.18.02-.35.05-.71.08-1.06 0-.03 0-.07.02-.09.14-.18.08-.33-.06-.49.22-.16.08-.37.1-.56.04-.55-.06-1.09-.07-1.64h.01a.43.43 0 0 1 .1-.54c.12-.11.17-.22.07-.37 0-.02-.03-.04-.02-.05.12-.23-.04-.44-.03-.67 0-.2-.07-.4-.01-.61.04-.16.06-.33.11-.49.04-.11.06-.21-.02-.31-.04-.04-.08-.12-.07-.16.09-.3-.05-.59-.03-.89.02-.27.09-.55.14-.85-.06-.14-.15-.31-.23-.49-.02-.02-.02-.06-.02-.09.02-.27.05-.54.06-.81.01-.2 0-.4 0-.6 0-.11 0-.24.04-.32.11-.14.09-.26.07-.42-.07-.44-.1-.87-.14-1.31 0-.14.03-.28.04-.42.04-.3.13-.6.1-.89-.02-.29.06-.55.09-.83.01-.15 0-.33.17-.42.03-.02.05-.09.04-.13-.04-.18.07-.24.21-.31.62-.35 1.29-.53 1.99-.61.04 0 .09 0 .12-.03.26-.18.53-.22.85-.21.21 0 .42-.15.63-.24.04-.02.08-.06.11-.05.37.06.46-.26.62-.46.09-.12.16-.21.32-.23.1 0 .2-.08.28-.15.2-.15.36-.33.48-.55s.25-.44.39-.64c.22-.31.21-.4-.08-.64-.01 0-.03-.03-.01-.01-.02-.22-.03-.42-.04-.62-.14-.06-.27-.12-.26-.31 0-.05-.05-.13-.1-.14-.29-.07-.49-.32-.8-.39-.22-.05-.42-.07-.62.02-.11-.07-.05-.28-.23-.26-.14.02-.15.14-.15.28-.1-.03-.2-.06-.29-.06s-.17.02-.25.03c.01-.07.02-.14.02-.21-.12.09-.23.16-.38.07-.03-.02-.11 0-.14.02-.11.14-.28.14-.43.16-.1.01-.19.06-.3.09-.08-.16-.2-.12-.34-.04-.11.06-.24.08-.35.14-.23.14-.49.13-.73.18-.05.01-.1.03-.13.06-.09.1-.19.09-.3.04-.08-.03-.16-.08-.25.03.04.04.07.08.11.13.05.06.07.14 0 .17-.05.02-.14 0-.19-.03-.06-.05-.09-.13-.13-.2-.02 0-.04.01-.06.02v.22c-.07-.01-.13-.03-.18-.03-.07-.01-.16-.05-.2-.02-.31.17-.7.09-.97.35-.12.12-.29.13-.45.12-.07 0-.15 0-.2.02-.33.17-.66.35-.99.54-.06.03-.09.1-.14.15-.08.07-.17.2-.25.2-.2 0-.25.22-.43.23-.03 0-.07.1-.08.15a3.467 3.467 0 0 0 -.03.98c.1.06.19.15.22.32.02.14.14.26.22.38.12.18.23.36.24.59.01.26.06.51.1.77.01.09.05.18.04.27-.03.38.08.75.05 1.13-.02.36-.07.71.05 1.06v.03c-.12.47-.04.94-.04 1.41 0 .33.05.66.02.99-.04.33.07.63.1.94.03.41 0 .82 0 1.23v.21c.02.34.09.67.01 1.02-.03.14.02.3.03.45.02.3.03.6.04.9 0 .06-.02.12-.05.17-.07.12-.05.23 0 .35.04.09.06.19.06.29.02.44.05.89.05 1.34 0 .17-.06.33-.09.5-.08.36-.09.73-.07 1.1.02.45.02.9-.03 1.35-.02.21.02.41-.06.61-.08.23-.15.45-.36.59-.04.02-.09.05-.09.08-.03.36-.35.55-.48.84-.04.1-.06.21-.1.32-.04.1-.08.21-.11.3.02.12.05.24.07.36.02.13.05.25.07.38.04.22.07.43.12.65.1.48.37.88.64 1.28.14.21.25.41.24.69-.02.25.07.5.07.75 0 .22 0 .45-.07.65-.11.34-.13.67-.07 1.01.02.14.02.28 0 .42-.04.33-.11.66-.15.99-.05.46-.1.93-.12 1.4-.01.32.03.64.05.97 0 .09.03.19 0 .27-.08.23-.04.47-.03.71.01.21.04.43 0 .63-.09.4.01.8 0 1.19-.01.34-.07.68-.1 1.01 0 .02 0 .04-.01.06-.15.31-.3.63-.46.94-.24.45-.45.91-.44 1.44 0 .05.01.11 0 .15-.12.3-.09.61-.09.92 0 .18.05.36.05.53 0 .37.15.7.2 1.06 0 .06 0 .13.04.17.21.25.18.58.3.86.08.18.17.36.29.52.17.24.36.46.55.67.15.18.23.36.21.6-.02.31-.02.62 0 .93 0 .21.1.36.28.52.29.26.66.38.92.69.1-.03.2-.05.3-.07.06-.01.14-.04.17-.02.18.15.33 0 .49-.01.49-.05.93-.31 1.44-.32.18 0 .35-.15.53-.2.19-.06.38-.08.57-.13s.39-.08.57-.14c.42-.13.83-.28 1.24-.42.07-.03.16-.03.24-.04.39-.04.77-.07 1.15-.13.29-.05.57-.16.86-.23.21-.05.41-.08.61-.15s.38-.16.57-.25c.25-.12.5-.23.75-.36.16-.08.3-.17.42-.32.11-.14.28-.25.44-.35.15-.09.27-.2.36-.35.07-.12.18-.22.26-.32.03-.04.07-.08.08-.12z"/><path d="m86.657 46.676c.03-.53.02-1.05-.18-1.55-.02-.05-.04-.1-.03-.15.02-.28-.1-.52-.17-.78-.01-.06-.05-.1-.09-.15a3.57 3.57 0 0 1 -.4-.68c-.07-.17-.12-.36-.21-.53-.17-.33-.36-.66-.53-.99-.12-.23-.21-.48-.34-.7-.22-.37-.5-.72-.7-1.11-.11-.21-.15-.46-.31-.65-.03-.04-.02-.14-.06-.16-.15-.07-.13-.21-.12-.33-.07-.04-.15-.07-.18-.12-.12-.23-.23-.48-.34-.71-.02-.05-.03-.1-.05-.15-.15-.29-.3-.57-.45-.86-.05-.11-.1-.22-.16-.32-.13-.25-.23-.53-.4-.74s-.25-.47-.42-.67c-.07-.08-.09-.22-.13-.33-.03-.08-.06-.16-.1-.24-.11-.23-.23-.46-.3-.7-.08-.3-.2-.58-.35-.85-.05-.09-.09-.18-.14-.28-.06-.12-.11-.25-.18-.37-.1-.19-.24-.36-.31-.56-.16-.4-.29-.8-.43-1.21 0-.02-.02-.05-.01-.08.05-.21-.08-.36-.19-.51-.05-.08-.1-.16-.14-.25-.06-.17-.09-.36-.18-.51-.06-.11-.11-.21-.05-.34a.764.764 0 0 1 -.29-.74c.02-.17.01-.34 0-.51-.01-.25-.04-.49-.06-.74s-.05-.51-.08-.76c-.03-.28-.06-.56-.1-.84-.03-.2-.02-.42-.09-.61-.04-.13-.1-.25-.06-.39 0-.04 0-.09-.01-.13-.07-.3-.16-.6-.02-.9 0-.02.02-.05 0-.07-.08-.2 0-.41 0-.61 0-.5-.09-.99-.02-1.5.02-.13-.04-.27.04-.4.02-.02.02-.05.01-.07-.11-.2-.02-.4-.03-.6-.01-.21.05-.42-.02-.64-.04-.13.02-.3.03-.45 0-.07.02-.13.02-.2 0-.15-.01-.31-.02-.46 0-.1.03-.21 0-.31-.03-.11-.03-.19.03-.29.04-.07.05-.16.07-.25.03-.11.05-.22.07-.33.03-.17.05-.35.08-.52.02-.08.03-.16.07-.23.04-.09.11-.17.18-.27-.11-.11-.07-.22-.02-.35.04-.1.04-.21.06-.32.03-.12.02-.27.08-.37.11-.18.06-.43.27-.56.02-.01 0-.1 0-.15.02-.19 0-.4.07-.56.1-.21.28-.39.43-.6-.08-.09-.05-.17.03-.29.16-.24.34-.48.41-.75.06-.19.11-.33.32-.36 0-.3.14-.47.39-.58.04-.02.08-.04.11-.07.09-.08.19-.1.31-.07.09.02.23.01.3-.04.2-.18.39-.12.6-.05.09.03.15.03.24-.03.16-.11.34-.03.51-.02.18.27.51.2.75.31.18.08.42.05.62.13.03.01.07.02.1.02.23-.02.46-.03.69-.06.04 0 .09-.03.11-.05.08-.14.23-.23.23-.42 0-.08.06-.16.09-.23.02-.05.06-.11.06-.16-.02-.34-.05-.68-.08-1.02 0-.03-.03-.06-.05-.09-.03-.05-.06-.1-.08-.16-.07-.24-.18-.32-.43-.35-.1-.01-.2-.05-.29-.07-.1-.03-.2-.04-.29-.09-.16-.09-.38-.04-.49-.25-.14.07-.26.05-.36-.08-.03-.03-.07-.04-.11-.06-.19-.09-.38-.16-.56-.26-.1-.06-.17-.04-.25.03-.06.05-.15.13-.22.11-.2-.04-.36.05-.53.1-.24.07-.48.11-.72.17-.08.02-.17.05-.21.11-.09.13-.19.14-.33.1-.21-.06-.28.04-.21.26v.05c-.12.16-.27.08-.42.06-.15.19-.34.28-.57.33-.07.01-.15.07-.2.14-.1.14-.15.33-.33.42-.02.01-.03.06-.03.09 0 .11-.07.17-.16.21s-.12.11-.14.2c-.05.33-.28.58-.41.87-.05.12-.15.21-.2.33-.11.26-.32.44-.45.68-.11.2-.21.36-.12.58 0 .02 0 .05-.01.09-.03 0-.07.02-.09 0-.12-.03-.15.05-.12.13.07.16-.05.26-.11.37-.03.05-.09.11-.08.15.02.13-.07.18-.15.24 0 0 0 .03-.02.05.03.03.06.07.11.11-.14.26-.27.53-.44.78-.09.13-.09.27-.14.4-.07.16-.18.31-.26.47-.14.27-.34.52-.25.87v.08c-.07.64-.24 1.28-.23 1.93 0 .02 0 .06-.02.07-.15.12-.1.26-.06.4.02.09.05.19.03.28-.08.35.08.71-.05 1.05-.01.03-.02.08 0 .1.1.14 0 .27-.04.39-.04.13-.17.24-.05.37.14.14-.05.28.01.41l.01.02c.05.27.15.53.1.81-.02.11.01.22.02.33 0 .08.01.15 0 .23-.04.28.02.55.14.8.03.07.08.14.09.21.02.31.16.59.22.89.07.34.14.67.2 1.01.04.25.11.5.14.76.03.24.04.48.18.69.05.07.06.16.08.24.08.27.14.55.23.82.07.23.16.45.23.68.02.04.04.1.03.12-.13.21-.1.4.07.57 0 .28.13.51.26.74.1.19.25.35.29.57 0 .02.03.04.05.05.1.05.11.14.12.24 0 .06.01.13.05.17.13.17.23.36.28.57.02.08.08.15.12.23.03.04.07.09.07.13.07.36.23.68.45.97.03.05.05.11.07.16.1.41.34.75.55 1.11.1.18.23.34.3.53.18.49.42.96.7 1.4.08.12.14.23.08.37.12.07.3.12.23.28-.08.17 0 .28.09.4.14.17.26.34.28.57 0 .05.04.12.07.16.12.14.24.27.38.39.25.22.5.44.65.75.03.06.1.09.14.15.05.06.11.12.11.18.01.16.02.3.15.43.02.03.02.08.03.12.04.18.08.36.13.55.06.04.17.08.2.15.07.19.17.34.29.48.04.05.04.13.07.19.04.1.06.22.12.31.07.1.1.19.07.31-.01.07.02.15.05.21.06.13.14.26.19.39.1.27.17.54.26.81.04.12.05.25.12.33.08.1.1.18.08.3-.01.07.02.15.03.23.01.13.04.26.02.38s-.01.22.03.32c.07.15.12.3.03.47-.02.04 0 .12.01.17 0 .08.02.15.02.23 0 .18 0 .36.01.54 0 .07.04.15.01.2-.14.34-.06.7-.14 1.06-.07.31-.21.62-.11.96 0 .03-.01.07-.02.1-.06.2-.13.39-.18.59-.05.17-.09.34-.13.52-.07.26-.12.53-.21.78-.12.3-.28.59-.43.88-.06.11-.16.22-.18.33-.02.16-.1.23-.24.24-.05.24-.17.45-.35.55-.29.16-.62.24-.93.35-.05.02-.1-.01-.16-.01-.1 0-.2-.01-.3-.01-.17 0-.34.03-.48-.11h-.06c-.05.04-.1.09-.16.14-.22-.15-.44-.29-.65-.44-.13-.09-.25-.19-.37-.28-.19-.15-.32-.36-.44-.57-.11-.2-.36-.32-.36-.59 0-.04-.06-.08-.1-.12-.09-.11-.24-.2-.28-.33-.05-.21-.19-.31-.34-.43-.07-.05-.11-.13-.16-.2-.07-.12-.15-.21-.3-.22-.04 0-.07-.03-.11-.05-.14-.08-.18-.09-.24.04-.06.15-.18.22-.3.31-.2.16-.28.39-.25.63.03.19.12.38.13.57 0 .27.13.48.28.68.2.29.37.59.51.92.02.05.05.11.09.15.12.11.19.25.22.4.02.09.07.18.12.26.12.19.24.37.37.55.02.03.06.06.09.08.33.15.58.4.81.69.09-.12.2-.09.3-.01.09.07.17.1.29.07.04 0 .1.02.14.04.37.1.74.19 1.11.29.04 0 .09 0 .12-.01.24-.08.49-.06.73.02.03-.08.06-.14.08-.2.1.06.18.14.25.14.17 0 .34-.06.51-.1.08-.02.16-.05.24-.08.29-.1.61-.15.8-.45.07-.12.2-.21.3-.31.03-.04.05-.08.08-.13.03-.07.06-.13.09-.2.08-.15.19-.3.22-.46.04-.28.12-.52.31-.73.16-.18.3-.37.43-.57.1-.15.18-.33.25-.5.09-.21.16-.44.23-.65.02-.08.06-.16.09-.23.03-.09.07-.17.1-.26.03-.08.03-.17.08-.24.07-.11.09-.22.07-.34a.544.544 0 0 1 0-.18c.07-.24.14-.48.22-.72l.09-.32c.09-.3.2-.6.2-.93 0-.09.05-.18.07-.26.05-.16.11-.32.15-.49.02-.08.02-.17.04-.25.06-.26.1-.53.03-.79a.496.496 0 0 1 0-.21zm-5.84-35.4s.04.01.06.02c0 .02-.02.04-.03.07-.03-.02-.05-.03-.07-.04.01-.02.02-.05.03-.05zm14.9 35.74c.18-.2.11-.4.04-.6-.03-.1 0-.22 0-.32 0-.05.02-.1.01-.15-.09-.33-.1-.67-.08-1.02 0-.11 0-.22-.11-.29-.03-.02-.08-.08-.06-.1.12-.19 0-.38.06-.57.05-.15 0-.26-.07-.38-.04-.07-.09-.15-.08-.22.04-.16 0-.3-.07-.44-.28-.48-.3-1.03-.52-1.53-.12-.28-.18-.57-.39-.82-.21-.24-.39-.52-.52-.8-.1-.24-.31-.45-.23-.73-.16-.13-.31-.25-.46-.37.16-.13.09-.23-.03-.32-.13-.09-.19-.2-.14-.29-.08-.11-.16-.17-.19-.24-.06-.22-.27-.37-.3-.59-.01-.08-.12-.17-.22-.21-.11-.05-.15-.11-.17-.2-.03-.11-.04-.24-.12-.32-.17-.19-.31-.4-.37-.64a.617.617 0 0 0 -.16-.31c-.26-.25-.32-.56-.4-.87-.02-.07-.04-.15-.09-.19-.34-.25-.59-.55-.66-.94-.06-.3-.15-.57-.33-.82-.12-.17-.03-.41-.24-.54-.01 0-.01-.05 0-.07.05-.16.06-.32-.1-.43-.03-.02-.02-.08-.04-.12-.06-.16-.13-.32-.17-.49-.06-.23-.03-.48-.21-.67.08-.17-.05-.29-.08-.43-.04-.17-.12-.33-.17-.49-.06-.17-.11-.35-.16-.52-.02-.05-.04-.1-.03-.15.11-.3-.14-.51-.19-.78-.02-.07-.08-.6-.05-.68.04-.11.02-.19-.04-.28-.06-.1-.08-.23-.1-.35-.02-.14-.01-.28-.02-.42 0-.11-.02-.22-.02-.32 0-.22.01-.44.01-.65v-.67c0-.27.02-.53.05-.8.02-.24.05-.48.09-.72.01-.09.09-.19.07-.27-.09-.29.18-.59.07-.88-.02-.05.04-.13.06-.2.01-.05.05-.1.04-.15-.03-.15.03-.26.16-.36-.03-.09-.08-.17-.07-.24.02-.2.06-.4.11-.6.06-.25.09-.5.23-.74.1-.16.13-.34.21-.51.05-.12.12-.24.22-.34.16-.16.31-.33.37-.53.03-.09.09-.15.21-.18.07-.02.14-.07.2-.12.18-.12.36-.25.54-.38.08.06.14.17.22.17.39.01.52.28.76.45.11.08.19.17.19.31 0 .09.06.17.21.2.22.04.42.13.66.2.09-.07.16-.16.25-.19.41-.15.67-.44.93-.72.16-.17.28-.35.35-.57.08-.24.11-.5.33-.72.05-.05.02-.14.02-.21 0-.06-.04-.11-.03-.17.02-.14-.15-.14-.19-.23-.03-.09.03-.22-.03-.27-.16-.14-.16-.3-.12-.47-.15-.05-.28-.1-.41-.15-.09-.03-.14-.08-.11-.17.02-.06.02-.12.02-.14-.18-.12-.33-.23-.46-.32.03-.09.05-.15.07-.23-.26.04-.49.07-.6-.15-.21.07-.4.13-.58.18-.06-.04-.12-.08-.2-.14-.07.14-.12.24-.18.37-.1-.08-.18-.14-.27-.21-.09.09-.18.16-.29.26-.01-.13-.02-.22-.03-.35-.11.05-.2.07-.26.12-.04.03-.04.1-.06.17-.17-.02-.28.02-.34.18-.03.1-.12.14-.25.11l.03-.23c-.12.08-.24.16-.21.29.01.05-.02.13-.07.15-.2.1-.41.17-.65.27 0 0-.02.05-.03.11l-.22-.03c-.08.16.01.35-.25.43l-.15-.18c-.02 0-.04.01-.07.02 0 .12.02.24.02.36 0 0 0 .02-.01.02-.34.09-.41.38-.63.55-.03.02-.04.08-.03.12.05.23-.05.42-.23.59-.03.03-.06.09-.04.12.06.14-.01.24-.12.35-.04.04-.04.11-.06.17-.07.2-.07.43-.37.5-.04.22-.08.43-.09.64-.01.17-.07.32-.25.42-.09.05-.12.11-.09.2.02.04.04.1.03.14-.07.33-.15.67-.22 1-.05.23-.18.45-.12.67.04.13.12.25-.02.39-.02.02-.01.07 0 .1.04.12.02.22-.04.34a.24.24 0 0 0 .03.23c.05.08.07.15 0 .23s-.05.16 0 .23c.03.05.08.12.07.18-.02.33-.07.67-.08 1 0 .18.02.35-.07.52-.02.05-.01.11 0 .15.08.17.05.34 0 .52-.02.07 0 .15 0 .22.03.32.1.64.11.96.01.25-.04.52.08.77.03.06 0 .13.02.19.08.29-.11.64.14.9.01.01 0 .05 0 .07 0 .15 0 .3.03.44.03.21.11.4.13.61.04.33 0 .68.18.99.04.06 0 .15.02.22.04.22.05.45.13.66.1.26.16.52.18.8 0 .07 0 .13.03.2.08.22.17.43.25.65.06.16.08.34.18.48.06.09.11.17.09.27-.04.17.03.3.18.39.1.06.12.15.13.26 0 .21.21.37.18.59l.02.02c.04.08.07.16.11.24.03.07.05.14.1.2.15.18.32.35.47.54.04.05.04.14.07.2.05.11.1.22.18.32.09.12.21.22.31.34.17.21.24.48.51.58 0 .1-.02.19.02.23.18.16.33.34.45.54.1.15.21.3.32.45.16.24.25.52.48.72.04.03.05.09.07.13l.24.78c.1.35.2.69.42 1.01.18.26.25.56.37.85.08.2.13.41.24.6.05.08.1.15.1.24 0 .08.02.17.05.24.13.3.17.62.18.95 0 .06 0 .14.04.19.13.19.07.4-.04.58-.08.13-.09.24-.02.36.07.11.07.21.02.34-.06.16-.23.32-.11.5.01.02-.04.06-.05.09-.03.06-.07.12-.05.17.08.24.03.48-.06.72-.05.11-.08.23-.11.34-.02.07-.04.14-.03.2.02.16.07.31-.13.44-.02.01-.02.05-.03.07-.05.27-.17.52-.42.71-.14.1-.24.26-.44.26-.28 0-.51-.11-.68-.29-.29-.3-.59-.6-.89-.9-.02-.03-.06-.04-.1-.05-.29-.08-.6-.14-.92-.09-.2.03-.36.12-.47.27-.14.21-.27.42-.4.64.04.05.09.1.11.16.12.36.31.68.53 1 .2.28.32.6.58.86.22.22.41.47.79.52.06 0 .12.05.18.08.27.18.6.24.93.31.25.06.51.09.81.14.21-.23.38-.02.56.06.19-.08.36-.18.54-.23.34-.09.58-.3.77-.51.24-.26.49-.53.6-.87.11-.3.34-.58.31-.9 0-.03.02-.07.04-.09.16-.12.17-.27.18-.43 0-.06 0-.12.04-.17.17-.23.12-.47.13-.71 0-.08 0-.17.02-.24.06-.25.16-.49.11-.75 0-.04-.02-.1 0-.13z"/></g></svg>