<svg height="367" viewBox="-.3 -.5 1261.5 184.6" width="2500" xmlns="http://www.w3.org/2000/svg"><path d="m322.9 123.7c-8.1 6.9-16.3 11.8-26.2 12.7-29 2.5-48.4-14.1-51.4-44.1-3.3-32.3 18.7-57.2 49.3-55.9 11.2.5 20.1 4.6 28.4 12.4v-3.7c0-3.4 2.8-6.2 6.2-6.2h16c3.4 0 6.2 2.8 6.2 6.2 0 27.7.4 61.2-.3 88.1-.5 20.3-13.7 38.2-33 44.5-19.6 6.4-39 4.5-57.6-4-7.1-3.2-7.7-5.7-4.4-12.8.9-1.9 1.9-3.8 2.8-5.7 2.3-5.2 5.7-6.8 11.1-4.5 5 2.2 10.3 3.8 15.8 4.4 24.8 3 37.9-7.6 37.1-31.4zm-49.2-36.4c0 15.1 9.5 24.9 24.4 25 14.5.1 25.1-10.6 25.1-25.5 0-15.6-9.5-25.2-24.9-25.1-15.1 0-24.6 9.9-24.6 25.6zm-200.1 24.3c-6.4 10.7-21.9 10.5-28-.3-4.7-8.3-15.2-29.5-15.2-29.5-.8 11.7-2.2 34.8-3.1 49.8-.2 3.9-3.4 6.9-7.3 6.9h-12.7c-4.3 0-7.6-3.6-7.3-7.9 1.9-22.6 4.9-61.4 6.8-84.8.3-3.8 3.5-6.7 7.3-6.7h13.8c2.7 0 5.1 1.5 6.4 3.8 7.7 14.3 18.1 32.9 26 47.3 7.3-12.3 20.3-33.6 27.5-47.2 1.3-2.4 3.7-3.9 6.4-3.9h13.1c3.8 0 7 2.9 7.3 6.7 1.9 24.3 4.6 59.2 6.7 84.8.3 4.2-3 7.9-7.3 7.9h-13.5c-3.9 0-7.1-3-7.3-6.9-.8-14.6-2-40.7-2.5-49.8.1-.1-11.9 21.1-17.1 29.8zm1160.4 15.5c-12.8 11.8-27.3 15.9-43.4 12.3-20.4-4.5-33.4-21.7-35.6-46-2.5-28.9 14-52.4 40.1-56.5 12.6-1.9 24.3.5 34.4 8.7 3 2.4 4.5 4.2 4.5 4.2v-2.8c0-4.4 3.6-7.9 7.9-7.9h11.3c4.4 0 7.9 3.5 7.9 7.9-.1 22.9 0 60.5.1 83.4 0 4.4-3.5 7.9-7.9 7.9h-11.4c-4.4 0-7.9-3.5-7.9-7.9zm-25.8-11.7c14.9 0 25-11.1 24.9-27.1-.2-16.1-9.8-26.5-24.6-26.6-15-.1-25.1 10.7-25.2 26.9-.2 16.2 9.6 26.8 24.9 26.8zm-457-19.2s0 3.2 2.4 7.3c6 10.5 20.6 15.5 34.7 10.7 4-1.3 7.8-3.3 11.4-5.5 4.1-2.5 7.3-1.9 10.6 1.5 10.7 10.8 10.7 14.5-2.8 22.1-20.3 11.4-41.3 11.9-61.8.8-18.6-10.1-27.2-35.3-21.1-58.7 5.8-22.5 23.8-37.6 45.6-38.2 31.8-1 52.3 20.3 50.4 52.1-.3 5.8-3.4 7.8-8.6 7.9-9.4 0-52.1-.1-60.8 0zm41.7-20.1c-.8-10.4-10.1-17.3-20.1-17.4-9.1-.1-19.2 7.4-20.8 17.1zm-150.2-26.4c5.9-5.7 12.3-10.3 20.4-12 26.1-5.7 46.6 9 48.7 36.6 1.3 16.6.7 38.8.7 56.8 0 4-3.3 7.2-7.3 7.2h-14.1c-4 0-7.3-3.3-7.3-7.3 0-13.7.1-31.4 0-43.3 0-3.7-.3-7.5-1.1-11.2-1.8-8.9-6.8-13.9-14.6-14.9-8.7-1.2-16.5 2.8-20.5 10.6-2.3 4.5-3.2 9.3-3.1 14.3 0 11.9-.1 30.6-.2 44.6 0 4-3.3 7.2-7.3 7.2h-14.2c-4 0-7.3-3.3-7.3-7.3v-84.8c0-4 3.3-7.3 7.3-7.3h4.1c11.6.2 12.3.2 15.8 10.8zm-87 62.6h-40.3c13.3-15.5 31.3-36.5 44.2-50.9 1.2-1.3 1.8-3.1 1.8-4.8v-10.3c0-4-3.3-7.3-7.3-7.3h-2.9c-18.8-.1-37.6 0-56.3 0-2.6 0-4.8 0-6.6.1h-1.3c-4 0-7.3 3.3-7.3 7.3v11.1c0 4 3.3 7.3 7.3 7.3h.3c1 0 2.2.1 3.5.1h33.7c-11.1 12.8-32.1 37.3-44.4 51-1.2 1.3-1.9 3.1-1.9 4.9v10.3c0 4 3.3 7.3 7.3 7.3h.3c.5 0 1 .1 1.6.1 4.9 0 9.7 0 14.6-.1h35.1c5.5 0 11 0 16.5.1.7 0 1.3 0 1.9-.1h.1c4 0 7.3-3.3 7.3-7.3v-11.3c.1-4.2-3.2-7.5-7.2-7.5zm276-35.6c0-9.6.2-19.2-.1-28.9-.1-6.2 2.3-8.9 8.7-9 20.6-.5 20.5-.6 20.6 19.8 0 12 0 23.9.1 35.9.1 13.9 3.7 17.6 17.4 17.6 7.5 0 15 .1 22.5 0 5.7-.1 7.9 2.7 8.3 8.1 1.1 16.9.2 17.9-16.7 17.9-8.9 0-17.8.2-26.7-.2-20.7-.8-33.5-13.9-33.9-34.5-.3-8.8-.1-17.8-.2-26.7zm223.1 12c0 13.4-.2 26.7.1 40.1.1 6.4-2.1 9.4-8.9 9.5-18.8.2-18.8.4-18.8-18.5v-70.3c0-9.4 1.1-10.4 10.6-10.5 17-.1 17-.1 17 16.7zm-467.3-58.4c-9-.1-15.9-6.9-15.6-15.4.3-8.3 7.8-15.2 16.3-14.9 8.4.3 15.2 7.1 15.2 15.2.1 8.6-7 15.2-15.9 15.1zm452.8 0c-9-.4-15.7-7.4-15.2-15.8s8.1-15 16.7-14.5 15.3 7.9 14.8 16.4c-.5 8.1-7.7 14.3-16.3 13.9zm-599.9 96.9c-12.8 11.8-27.3 15.8-43.4 12.3-20.4-4.5-33.4-21.7-35.6-46-2.5-28.9 14-52.4 40.1-56.5 12.6-1.9 24.3.5 34.4 8.7 3 2.4 4.5 4.2 4.5 4.2v-2.9c0-4.4 3.6-7.9 7.9-7.9h11.3c4.4 0 7.9 3.5 7.9 7.9-.1 22.9 0 60.5.1 83.4 0 4.4-3.5 7.9-7.9 7.9h-11.4c-4.4 0-7.9-3.5-7.9-7.9zm-25.9-11.8c14.9 0 25-11.1 24.9-27.1-.2-16.1-9.8-26.5-24.6-26.6-15-.1-25.1 10.7-25.2 26.9-.2 16.2 9.6 26.8 24.9 26.8zm-206.7 11.8c-12.8 11.8-27.3 15.9-43.4 12.3-20.4-4.5-33.4-21.7-35.6-46-2.5-28.9 14-52.4 40.1-56.5 12.6-1.9 24.3.5 34.4 8.7 3 2.4 4.5 4.2 4.5 4.2v-2.9c0-4.4 3.6-7.9 7.9-7.9h11.3c4.4 0 7.9 3.5 7.9 7.9-.1 22.9 0 60.5.1 83.4 0 4.4-3.5 7.9-7.9 7.9h-11.4c-4.4 0-7.9-3.5-7.9-7.9zm-25.9-11.7c14.9 0 25-11.1 24.9-27.1-.2-16.1-9.8-26.5-24.6-26.6-15-.1-25.1 10.7-25.2 26.9-.2 16.2 9.7 26.8 24.9 26.8zm412.7 22.7h-13.4c-4 0-7.3-3.3-7.3-7.3v-84.6c0-4 3.3-7.3 7.3-7.3h13.4c4 0 7.3 3.3 7.3 7.3v84.6c0 4-3.3 7.3-7.3 7.3zm391.9-10.6c-5.9 5.7-12.3 10.3-20.4 12-26.1 5.7-46.6-9-48.7-36.6-1.3-16.6-.7-38.8-.7-56.8 0-4 3.3-7.2 7.3-7.2h14c4 0 7.3 3.3 7.3 7.3 0 13.7-.1 31.4 0 43.3 0 3.7.3 7.5 1.1 11.2 1.8 8.9 6.8 13.9 14.6 14.9 8.7 1.2 16.5-2.8 20.5-10.6 2.3-4.5 3.2-9.3 3.1-14.3 0-11.9.1-30.6.2-44.6 0-4 3.3-7.2 7.3-7.2h14.2c4 0 7.3 3.3 7.3 7.3v84.8c0 4-3.3 7.3-7.3 7.3h-4.1c-11.6-.2-12.3-.2-15.7-10.8zm156.5-15.3h-40.3c13.3-15.5 31.3-36.5 44.2-50.9 1.2-1.3 1.8-3.1 1.8-4.8v-10.3c0-4-3.3-7.3-7.3-7.3h-2.9c-18.8-.1-37.6 0-56.3 0-2.6 0-4.8 0-6.6.1h-1.3c-4 0-7.3 3.3-7.3 7.3v11.1c0 4 3.3 7.3 7.3 7.3h.3c1 0 2.2.1 3.5.1h33.7c-11.1 12.8-32.1 37.3-44.4 51-1.2 1.3-1.9 3.1-1.9 4.9v10.3c0 4 3.3 7.3 7.3 7.3h.3c.5 0 1 .1 1.6.1 4.9 0 9.7 0 14.6-.1h35.1c5.5 0 11 0 16.5.1.7 0 1.3 0 1.9-.1h.1c4 0 7.3-3.3 7.3-7.3v-11.3c.1-4.3-3.1-7.5-7.2-7.5z" fill="#168afb"/></svg>