<svg height="400" viewBox="9 72.4 1981 151.3" width="2000pt" xmlns="http://www.w3.org/2000/svg"><path d="M377.9 76.1c-34.7 5.1-53.9 31.4-53.9 73.7 0 47.9 22.6 73.9 62.5 71.9 16.4-.8 25.4-5 32.4-15.3l3.3-4.9-.7 9.2-.7 9.3H446v-83h-49v24h12.1c12.1 0 12.1 0 11.5 2.2-.3 1.3-.6 2.9-.6 3.5 0 .7-1.6 3.1-3.6 5.2-5.1 5.7-11.2 7.6-24.9 7.6-18.6 0-29.4-4.9-35-15.9-2.7-5.3-3-7-3-14.6 0-7.9.3-9.1 3-13.6 3.6-5.8 10.5-10.7 18.4-13.2 4.3-1.3 9-1.7 20.6-1.6 17.2 0 30 1.8 43.8 6 1.6.5 1.7-.9 1.7-20.4v-21l-5.1-2.1c-14.8-6.4-40.8-9.6-58-7zM561.5 75.9c-15.5 2.5-26.4 7.8-36.1 17.5-12.3 12.2-18.1 27.8-19.1 50.7-1.8 40 15 67.1 46.7 75.6 5 1.4 10.4 1.8 23 1.8 16.6-.1 21.1-.7 34.8-4.7l7.2-2.1v-43.9l-2.2.6c-15.9 4.5-19.4 5-36.8 5-15.4 0-18.2-.2-23.2-2.1-12.9-4.9-19.5-12.3-20.5-23.2-1.8-19.1 14.4-31 42.2-31.1 10.9 0 25.9 2.2 33.8 4.9l5.7 2V83.1l-5.7-2.1c-3.2-1.2-8.7-2.8-12.3-3.6-8-1.7-30.7-2.6-37.5-1.5zM920 76.2c-15.6 2.2-31.2 10.2-39 20.1-5.1 6.4-10.2 17-12.6 26.2-2.7 10.2-2.7 41.8 0 52.5 6 24.3 20.6 39.6 43.6 45.7 9.1 2.4 34.9 2.4 44 0 22.8-6 37.3-21.1 43.6-45.2 2.7-10.2 2.7-42.9.1-53-2.7-10.2-9.1-22.5-14.6-28.3-14.4-15.1-38.8-21.8-65.1-18zm35.5 46.4c7.8 2.5 14.8 9 16.5 15.4 1.4 5.3 1.5 17.2.1 21.9-3.8 12.8-15 18.1-38.1 18.1-19.6 0-30-3.7-35.4-12.4-2.7-4.2-3.1-5.9-3.4-14-.5-11.2.8-16.5 5.4-21.6 6.7-7.4 16.7-10.1 35.9-9.6 9.3.2 14.7.8 19 2.2zM1067 76.2c-15.6 2.2-31.2 10.2-39 20.1-5.1 6.4-10.2 17-12.6 26.2-2.7 10.2-2.7 41.8 0 52.5 6 24.3 20.6 39.6 43.6 45.7 9.1 2.4 34.9 2.4 44 0 22.8-6 37.3-21.1 43.6-45.2 2.7-10.2 2.7-42.9.1-53-2.7-10.2-9.1-22.5-14.6-28.3-14.4-15.1-38.8-21.8-65.1-18zm35.5 46.4c7.8 2.5 14.8 9 16.5 15.4 1.4 5.3 1.5 17.2.1 21.9-3.8 12.8-15 18.1-38.1 18.1-19.6 0-30-3.7-35.4-12.4-2.7-4.2-3.1-5.9-3.4-14-.5-11.2.8-16.5 5.4-21.6 6.7-7.4 16.7-10.1 35.9-9.6 9.3.2 14.7.8 19 2.2zM1404.5 76.1c-20.4 3-35 12.3-41.8 26.6-5.7 12.3-4.9 31 2 41.4 6.8 10.4 19.8 15 46.3 16.4 20.9 1.1 29 3.6 29 8.6 0 3.6-5.1 7.6-11.6 8.9-8.2 1.7-35.7.6-49.9-2-6-1.1-12.6-2.2-14.5-2.6l-3.5-.6.2 14.9c.2 8.1.6 17.2.9 20l.5 5.3 5.2 1.5c2.9.9 10.8 2.8 17.7 4.2 16 3.4 41.1 3.9 52.4 1 14.2-3.6 25.9-11.2 31.2-20.3 8.2-13.9 7.1-38.4-2.2-49.2-7.5-8.8-17.4-12.1-44.1-14.7-25.7-2.5-29.7-3.9-29.1-9.8.2-2.6 1.1-3.6 4.3-5.2 3.6-1.8 5.9-2 22.5-1.9 18.3.1 31.9 1.7 42.8 4.9l4.5 1.4-.7-20.7c-.4-11.4-.9-20.8-1-21-1-1-21.9-5.5-31.3-6.7-12.4-1.6-20.5-1.7-29.8-.4zM1648 76.2c-15.6 2.2-31.2 10.2-39 20.1-5.1 6.4-10.2 17-12.6 26.2-2.7 10.2-2.7 41.8 0 52.5 6 24.3 20.6 39.6 43.6 45.7 9.1 2.4 34.9 2.4 44 0 22.8-6 37.3-21.1 43.6-45.2 2.7-10.2 2.7-42.9.1-53-2.7-10.2-9.1-22.5-14.6-28.3-14.4-15.1-38.8-21.8-65.1-18zm35.5 46.4c7.8 2.5 14.8 9 16.5 15.4 1.4 5.3 1.5 17.2.1 21.9-3.8 12.8-15 18.1-38.1 18.1-19.6 0-30-3.7-35.4-12.4-2.7-4.2-3.1-5.9-3.4-14-.5-11.2.8-16.5 5.4-21.6 6.7-7.4 16.7-10.1 35.9-9.6 9.3.2 14.7.8 19 2.2zM9.1 148.5V220h29.4l-.4-49-.3-49h5c4 0 5.2.4 5.6 1.7.9 2.9 24.6 95.2 24.6 95.8 0 .3 7.2.5 16 .5h15.9l.9-3.2c.5-1.8 6.2-23.9 12.7-49.1l11.9-45.7h9.6v98h29.5l-.2-71.2-.2-71.3-26.3-.3c-14.4-.1-26.6.2-27 .6-.5.5-6.5 24-13.3 52.2-6.9 28.2-12.7 51.5-13 51.8s-.6.3-.8.1-5.6-22.2-12.1-48.9-12.2-50.2-12.7-52.3l-1-3.7H9zM227.2 78.7c-.5 1-4.7 13.5-9.2 27.8-6.7 21.3-35 107.7-36.7 112.3-.4 1 2.7 1.2 14.8 1l15.4-.3L215 208c1.9-6.3 3.8-12.3 4.2-13.2.7-1.7 3.1-1.8 30.2-1.8h29.4l1.1 3.2c.5 1.8 2.4 7.9 4.1 13.5l3.1 10.3H302c8.3 0 15-.3 15-.7 0-.3-5.8-18.2-12.9-39.7s-17.4-53.3-22.9-70.6l-10-31.5-21.6-.3c-19.7-.2-21.6-.1-22.4 1.5zm33.7 56c2.3 7.6 4.5 14.6 4.7 15.5.5 1.7-.7 1.8-16 1.8-12.6 0-16.6-.3-16.6-1.2 0-.7 1.9-7.7 4.2-15.5l4.2-14.3h15.2zM462.1 148.5V220h28.4l-.2-71.2-.3-71.3-14-.3-13.9-.3zM690 77.2c0 .2-.1 32.4-.3 71.6l-.2 71.2H719v-98h5c2.8 0 5 .2 5 .5 0 .5 23.8 93 24.6 95.7.5 1.6 2.2 1.8 16.5 1.8 8.7 0 15.9-.2 15.9-.5 0-.4 16.2-63.5 24.1-93.8 1-3.7 1-3.7 6-3.7h5.1l-.4 49-.3 49h29.4V77H823c-24.7 0-26.9.1-27.4 1.7-.2 1-6 24.5-12.7 52.3s-12.3 50.7-12.5 50.9-.6.2-.8 0-5.9-22.9-12.5-50.4c-6.7-27.5-12.6-51-13.1-52.3l-1-2.2h-26.5c-14.6 0-26.5.1-26.5.2zM1165 148.5V220h29.5l-.3-49-.4-49h6.8l22.4 49 22.3 49h43.6V76.9l-14.7.3-14.7.3v98l-3 .3-3 .3-22.5-49.3-22.5-49.3-21.8-.3-21.7-.2zM1481 99v22l19.3.2 19.2.3-.2 49.2-.3 49.3h28.9l-.2-49.3-.2-49.2 19.3-.3 19.2-.2V77h-105zM1746.1 148.4V220h29.2l-.8-24.1-.7-24 23.8.3 23.9.3 5.3 2.9c3.8 2.1 6.1 4.4 8 7.5 2.6 4.4 2.7 5.3 3 20.8l.4 16.3h29.1l-.6-17.7c-.7-24.9-3.6-33.2-13.8-39.5-5.4-3.4-5.9-4.3-2.8-5.3 3-1 10.7-8.3 12.6-11.9 4.3-8.3 5.6-25 2.9-35.2-3.2-11.9-11.3-21.7-22.2-26.9s-15.8-5.7-58.1-6.2l-39.2-.5zm79.4-28.9c4.8 2.4 8.5 7.6 8.5 11.9 0 5.2-4 11.7-8.5 14-3.6 1.9-6.1 2.1-27.7 2.4l-23.8.3V116.8l23.8.4c21.3.3 24.1.5 27.7 2.3zM1884 77.2c0 .2-.1 32.4-.3 71.6l-.2 71.2H1990v-44h-78v-18h66v-22h-66v-14h76V77h-52c-28.6 0-52 .1-52 .2z"/></svg>