<svg fill="none" height="732" viewBox="0 0 157.395 46.605" width="2500" xmlns="http://www.w3.org/2000/svg"><path d="m95.955 8.93c0-4.932 3.957-8.93 8.838-8.93h31.509c4.881 0 8.838 3.998 8.838 8.93v27.953c0 4.931-3.957 8.93-8.838 8.93h-31.509c-4.881 0-8.838-3.999-8.838-8.93z" fill="#ed462f"/><path d="m108.513 5.436v34.474h-5.257v-34.474zm12.158 12.625c.892-1.242 2.106-2.252 3.643-3.028 1.568-.808 3.305-1.211 5.211-1.211 2.244 0 4.272.543 6.086 1.63s3.243 2.64 4.289 4.659c1.045 1.988 1.567 4.27 1.567 6.849s-.522 4.891-1.567 6.941c-1.046 2.02-2.49 3.603-4.335 4.752-1.814 1.118-3.827 1.678-6.04 1.678-1.968 0-3.72-.389-5.257-1.165-1.506-.777-2.705-1.77-3.597-2.982v3.727h-5.256v-34.475h5.256zm15.447 8.899c0-1.77-.368-3.293-1.106-4.566-.707-1.305-1.66-2.283-2.859-2.935a7.362 7.362 0 0 0 -3.781-1.025c-1.322 0-2.582.342-3.781 1.025-1.168.683-2.121 1.677-2.859 2.982-.707 1.304-1.061 2.841-1.061 4.612 0 1.77.354 3.323 1.061 4.659.738 1.304 1.691 2.298 2.859 2.981 1.199.684 2.459 1.025 3.781 1.025a7.362 7.362 0 0 0 3.781-1.025c1.199-.714 2.152-1.739 2.859-3.074.738-1.336 1.106-2.89 1.106-4.66z" fill="#f2f2f7"/><path d="m128.118 17.856c4.471.993 7.299 5.459 6.319 9.979-.983 4.518-5.403 7.375-9.877 6.385-.285-.049-.669-.15-.954-.2a9.229 9.229 0 0 0 5.301 3.122c5.471 1.291 10.941-2.145 12.219-7.673s-2.123-11.055-7.594-12.346a10.284 10.284 0 0 0 -.358-.078 9.42 9.42 0 0 0 -6.461.784 5.825 5.825 0 0 1 1.402.03zm-94.365-9.858v32.379h-5.256v-22.177l-9.777 22.177h-3.643l-9.82-22.177v22.177h-5.257v-32.38h5.672l11.25 25.392 11.207-25.391zm5.157 19.427c0-2.578.523-4.86 1.568-6.848 1.076-1.988 2.52-3.526 4.334-4.613 1.845-1.118 3.874-1.677 6.087-1.677 1.998 0 3.735.404 5.21 1.211 1.507.777 2.706 1.755 3.597 2.935v-3.727h5.303v25.67h-5.303v-3.82c-.891 1.212-2.105 2.221-3.642 3.029s-3.29 1.211-5.257 1.211c-2.183 0-4.18-.559-5.995-1.677-1.813-1.15-3.258-2.733-4.334-4.752-1.045-2.05-1.568-4.364-1.568-6.942zm20.796.093c0-1.77-.369-3.308-1.106-4.612-.707-1.304-1.645-2.298-2.813-2.982-1.168-.683-2.429-1.025-3.781-1.025s-2.613.342-3.781 1.025c-1.169.653-2.122 1.63-2.86 2.935-.706 1.274-1.06 2.796-1.06 4.566s.354 3.323 1.06 4.659c.738 1.335 1.691 2.36 2.86 3.075 1.198.683 2.459 1.025 3.78 1.025a7.36 7.36 0 0 0 3.782-1.025c1.168-.683 2.106-1.677 2.813-2.982.737-1.335 1.106-2.888 1.106-4.659zm14.882-16.213c-.953 0-1.752-.326-2.398-.978-.645-.652-.968-1.46-.968-2.423 0-.962.323-1.77.968-2.422.646-.652 1.445-.979 2.398-.979.922 0 1.706.327 2.352.979.645.652.968 1.46.968 2.422 0 .963-.323 1.77-.968 2.423a3.185 3.185 0 0 1 -2.352.978zm2.582 3.401v25.67h-5.256v-25.67zm12.158-8.805v34.476h-5.256v-34.477z" fill="#293e51"/><g fill="#ed462f"><path d="m152.023 38.022c-1.137.248-2.241.943-2.73 2.041-.706 1.55-.121 3.518 1.226 4.516 1.561 1.196 4.116.76 5.144-.942.958-1.606.534-3.898-.923-5.06-.756-.608-1.789-.773-2.717-.555zm-.417-.643c1.384-.292 2.929.004 4.01.959 1.487 1.324 1.779 3.73.86 5.465-1.161 2.12-4.133 2.802-6.18 1.621-2.371-1.327-2.816-5.112-.819-6.96.59-.551 1.342-.915 2.129-1.085z"/><path d="m151.533 39.965c-.005.473-.005.946-.003 1.419.61-.01 1.235.057 1.836-.09.514-.16.575-.995.078-1.215-.614-.205-1.278-.085-1.911-.114zm-.564-.468c.957.06 1.986-.179 2.898.19.921.59.454 2.054-.592 2.159.62.53 1.014 1.255 1.442 1.942-.253-.013-.502-.029-.748-.042-.331-.547-.636-1.116-1.062-1.593-.339-.403-.92-.235-1.372-.298-.007.643-.007 1.285-.005 1.928l-.564-.017c.007-1.423 0-2.846.003-4.27z"/></g></svg>