<svg fill="none" height="1968" width="2500" xmlns="http://www.w3.org/2000/svg" viewBox="5.107310785833217 1.9999645354334732 377.3926892141668 299.5001309315555"><path d="M317 172.5l17 37h48.5L355 256h-48.5l-27 45.5h-46L217 263l24.5-46.5 16 39.5h49L290 217z" fill="#157cbf"/><path d="M62.5 84l-23-42h49l-22-39h57L145 43h155.5c7.333 11.667 23.2 37.7 24 40.5H271l46 89h49l16.5 37H334l-17-37-27 44.5 16.5 39h-49L241 217h49l27-44.5h-52L218 84h-53.5l18.5 35.5h-51.5l-20-35.5z" fill="#efefef"/><path d="M39.5 42L62 83h49.5l20 36.5H183L164.5 83h53l47.5 89.5h52L296 132l-25-48.5h53.5L296 132l21 40.5-26.5 44.5h-62l-43-73.5-23 31h-58l-27-50H21L5.5 94l34-52 27-39 22 39z" fill="#157cbf"/><path d="M290.083 217l26.859-44.979M290.083 217l16.417 39m-16.417-39H241M66.253 2L5.33 93.505a1 1 0 0 0-.052 1.02l15.928 30.184a1 1 0 0 0 .885.534h55.197a1 1 0 0 1 .885.535l25.403 48.406a1 1 0 0 0 .885.536h57.971c.323 0 .627-.157.815-.421l21.185-29.801a1 1 0 0 1 1.679.076l41.905 71.929c.18.308.509.497.865.497H241M66.253 2L88.09 40.993a1 1 0 0 1-.873 1.488H40.971a1 1 0 0 0-.874 1.486L61.49 82.448a1 1 0 0 0 .874.514h48.208a1 1 0 0 1 .878.523l19.588 36.039a1 1 0 0 0 .879.522h50.181a1 1 0 0 0 .887-1.463l-17.827-34.158a1 1 0 0 1 .886-1.463h50.917c.369 0 .709.204.882.53l46.887 87.999c.174.326.514.53.883.53h51.328M66.253 2h56.02a1 1 0 0 1 .879.523l21.422 39.436a1 1 0 0 0 .879.522h154.684c.351 0 .677.184.857.486L325 82.963m0 0h-52.964a1 1 0 0 0-.886 1.462L296 132m29-49.037L296 132m20.942 40.021L296 132m20.942 40.021l16.791 36.893c.163.357.519.586.911.586H382.5m-65.558-37.479h48.406a1 1 0 0 1 .915.597L382.5 209.5m0 0l-27.21 46.009a1 1 0 0 1-.86.491H306.5m0 0l-26.424 45.006c-.18.306-.508.494-.863.494h-44.561a1 1 0 0 1-.915-.596l-16.543-37.464a1 1 0 0 1 .029-.866L241 217m65.5 39h-48.337a.999.999 0 0 1-.921-.61L241 217" stroke="#000a13" stroke-width="3"/></svg>