<svg height="1611" viewBox=".564 .35 58.205 37.21" width="2500" xmlns="http://www.w3.org/2000/svg"><g fill-rule="evenodd"><path d="m37.578.634-7.81 13.423 7.81 13.4h15.604zm-15.623 0 7.813 13.423-7.813 13.4h-15.582z" fill="#231f20"/><path d="m45.19 1.48a1.123 1.123 0 0 1 -.335.816 1.065 1.065 0 0 1 -.366.235 1.26 1.26 0 0 1 -.887.001 1.253 1.253 0 0 1 -.38-.234l-.002-.002v-.001a1.317 1.317 0 0 1 -.25-.385h.001a1.12 1.12 0 0 1 -.084-.43c0-.143.03-.282.085-.413a1.36 1.36 0 0 1 .247-.382l.002-.002c.118-.115.244-.198.38-.253s.282-.08.438-.08c.155 0 .302.025.438.08.137.055.263.138.377.254l.002.001c.105.118.19.246.249.384.054.13.085.268.085.412zm-.223 0a.974.974 0 0 0 -.06-.349.825.825 0 0 0 -.19-.289 1.038 1.038 0 0 0 -.312-.218.894.894 0 0 0 -.366-.072.845.845 0 0 0 -.358.071v.001a1.064 1.064 0 0 0 -.303.219h-.001a.787.787 0 0 0 -.205.29.933.933 0 0 0 -.06.348c0 .137.019.258.06.368.043.11.11.211.205.31.099.076.196.14.303.184a.978.978 0 0 0 .727 0 1.28 1.28 0 0 0 .31-.184.985.985 0 0 0 .19-.31c.04-.11.06-.231.06-.368zm-1.334-.68h.463a.85.85 0 0 1 .22.026c.066.019.12.046.156.08v.001a.516.516 0 0 1 .097.124.318.318 0 0 1 .034.15c0 .048-.013.11-.038.166a.332.332 0 0 1 -.095.126.273.273 0 0 1 -.107.054l-.035.01a.125.125 0 0 1 .021.018h.001a.598.598 0 0 1 .12.158c.02.032.035.058.06.081l.005.005.002.006.103.201.03.059h-.246l-.013-.018-.123-.177-.065-.094a.707.707 0 0 0 -.122-.156l-.006-.003-.005-.005a.167.167 0 0 0 -.075-.036.55.55 0 0 0 -.137-.015h-.06v.503h-.225v-1.264zm.184.216v.325h.453a.26.26 0 0 0 .064-.05v-.001l.013-.013a.713.713 0 0 0 .033-.08.137.137 0 0 0 -.017-.061.24.24 0 0 0 -.05-.067l-.003-.003c-.013-.013-.044-.025-.092-.034a1.272 1.272 0 0 0 -.218-.017z" fill="#40494d"/><path d="m42.755 31.122h-1.635v-1.574h4.766v1.573h-1.576v5.874h-1.555v-.393zm-11.92-1.574h1.282v2.306l2.111-2.184.118-.122h2.194l-.66.67-2.716 2.753 2.776 3.36.532.645h-2.147l-.12-.147-2.089-2.56v2.707h-1.674v-7.428zm-23.515 4.137 2.072-4.14.362-.725.343.734 3.212 6.862.262.56h-1.635l-.105-.23-2.103-4.549-2.28 4.56-.401.803-.316-.84-1.731-4.589-2.522 4.639-.111.207h-1.803l.342-.591 4.037-6.964.405-.7.299.752zm47.355-4.195 3.778 6.924.316.58h-1.837l-.109-.217-.734-1.478h-3.637l-.755 1.48-.11.216h-1.818l.329-.586 3.89-6.924.347-.618zm-.405 2.5-1.02 1.797h2.025zm-33.121-2.536 3.774 6.94.316.582h-1.83l-.108-.222-.721-1.475h-3.671l-.741 1.478-.11.219h-1.839l.33-.586 3.915-6.94.348-.617zm-.389 2.522-1.011 1.773h1.987z" fill="#231f20"/><path d="m13.02 32.874 1.59-1.596.28-.281.278.281 1.579 1.596.273.275-.273.277-1.579 1.597-.278.282-.28-.28-1.59-1.597-.275-.277zm33.387-.044 1.593-1.574.276-.273.275.275 1.577 1.573.277.277-.274.278-1.576 1.594-.279.28-.28-.279-1.593-1.594-.28-.28zm-9.69 0 1.574-1.572.275-.275.277.273 1.596 1.574.282.277-.28.28-1.596 1.594-.28.278-.277-.28-1.574-1.595-.274-.277zm-11.482.08 1.592-1.572.275-.271.275.271 1.596 1.571.282.277-.279.28-1.595 1.596-.28.28-.277-.28-1.592-1.596-.278-.28z" fill="#cecece"/></g></svg>