<svg fill="none" height="775" viewBox=".112 .111 170.037 53.43289539" width="2500" xmlns="http://www.w3.org/2000/svg"><path d="m48.73 1.69h-48.618v48.62h48.618z" fill="#7ecef4"/><path d="m61.875 6.722.023-.016c-3.678-4.052-8.983-6.595-14.878-6.595-9.994 0-18.285 7.303-19.818 16.878-10.437.707-18.682 9.403-18.682 20.02a20 20 0 0 0 5.141 13.416l.024-.015a7.628 7.628 0 0 0 13.284-5.118c0-1.976-.747-3.78-1.983-5.133a4.813 4.813 0 0 1 7.132-6.463l.031-.032a7.598 7.598 0 0 0 5.67 2.536 7.628 7.628 0 0 0 5.686-12.717c-.016-.023-.04-.047-.055-.07-.015-.016-.03-.023-.039-.039a4.792 4.792 0 0 1 -1.213-3.197 4.813 4.813 0 0 1 8.143-3.476c.078.085.148.171.226.256.078.086.155.172.241.25a7.615 7.615 0 0 0 5.429 2.27c4.208 0 7.622-3.414 7.622-7.63 0-1.983-.754-3.78-1.99-5.14" fill="#e60012"/><g fill="#00a0e9"><path d="m120.644 38.697a10.422 10.422 0 0 0 -5.841.513v-.98h-4.084v12.398h3.905v-.016h.179v-7.622c1.306-.685 2.862-.965 4.379-.669 3.087.614 4.83 3.36 3.889 6.144a6.12 6.12 0 0 1 -1.276 2.17h4.76c.194-.412.366-.847.513-1.298 1.548-4.823-1.33-9.583-6.424-10.64zm-40.064-4.169c-3.204-.661-6.494-.117-9.302 1.298-.226.117-.451.242-.677.366a12.557 12.557 0 0 0 -4.153-1.672c-2.917-.6-5.895-.21-8.524.94v-1.376h-4.862v16.512h4.862v-9.706c1.975-1.75 4.775-2.606 7.482-2.046 4.16.864 6.51 4.76 5.242 8.688a8.579 8.579 0 0 1 -1.719 3.072l5.491.016a15.12 15.12 0 0 0 .692-1.766c1.066-3.336.568-6.642-1.104-9.279 1.68-.816 3.617-1.12 5.515-.73 4.16.863 6.517 4.76 5.25 8.687a8.696 8.696 0 0 1 -1.72 3.072l5.492.016a15.12 15.12 0 0 0 .692-1.766c2.084-6.494-1.789-12.919-8.657-14.334m89.569 3.765h-4.005v12.32h4.005zm0-4.139h-4.005v3.415h4.005zm-65.364 16.419-.312-1.672c-1.438.98-3.383 1.587-5.514 1.587-4.449 0-8.058-2.637-8.058-5.888s3.61-5.88 8.058-5.88c1.353 0 2.621.241 3.741.669l-.202-1.073h3.99l2.287 12.257zm-5.523-3.025c2.489 0 4.504-1.315 4.504-2.94 0-1.626-2.015-2.94-4.504-2.94s-4.495 1.314-4.495 2.94c0 1.625 2.014 2.94 4.495 2.94zm46.403-13.51v16.6h-4.052v-.98c-1.284.536-2.777.84-4.379.84-4.667 0-8.447-2.606-8.447-5.826s3.78-5.826 8.447-5.826c1.602 0 3.095.312 4.379.848v-5.662h4.052zm-8.431 13.627c2.481 0 4.495-1.314 4.495-2.94 0-1.625-2.006-2.94-4.495-2.94s-4.504 1.315-4.504 2.94c0 1.626 2.015 2.94 4.504 2.94zm23.839 2.908-.311-1.672c-1.447.98-3.384 1.587-5.515 1.587-4.449 0-8.065-2.637-8.065-5.888s3.609-5.88 8.065-5.88c1.354 0 2.621.241 3.741.669l-.202-1.073h3.99l2.279 12.257h-3.99zm-5.515-3.025c2.481 0 4.504-1.315 4.504-2.94 0-1.626-2.015-2.94-4.504-2.94s-4.503 1.314-4.503 2.94c0 1.625 2.014 2.94 4.503 2.94zm-95.176-19.616-1.455 3.64h2.178s-.482 1.135-2.66 1.135c0 0-1.237 0-.933-1.213.303-1.213 1.314-3.539 1.314-3.539s.156-.482-.381-.482-2.403 1.571-3.492 5.265h-1.517l2.123-5.413h-1.516l.466-1.15h1.338s1.011-.048 1.408.715c0 0 1.011-.6 2.108-.6.84 0 1.159.74 1.096 1.253 0 0-.007.117-.07.397m7.443-1.742h3.065l-1.727 4.535s-.28.707.156.754c.466.062 1.065.148 2.177-2.707l1.035-2.558h1.19l-1.773 4.588s-.32.81.35.833c.925.03 1.695-2.505 1.695-2.505l1.089-2.94h1.361l-1.944 5.087s-.662 1.672-2.435 1.672c-1.517 0-1.384-.708-1.384-.708s-.203.685-1.4.685c-1.198 0-2.178-.53-1.774-1.696.413-1.167 1.315-3.74 1.315-3.74h-1.548l.537-1.292zm17.944 1.291.506-1.29h-3.952l-1.058 2.885h-1.595l-.513 1.268h1.595l-1.004 2.628h1.439l1.003-2.629h2.49l.427-1.244h-2.45l.677-1.618zm23.917-1.26-1.105 2.878h-1.322l1.112-2.878h-1.516l-1.105 2.878h-1.198l-.536 1.291h1.236l-.98 2.559h1.517l.98-2.559h1.314l-.98 2.559h1.525l2.582-6.728zm-11.239 1.416.56-1.447h-3.804l-1.082 2.722h-.863l-.607 1.416h.895l-.646 1.836c-.179.505.786.785 2.458.785s2.769-1.369 2.769-1.369h-3.477l.42-1.252h2.295l.583-1.416h-2.355l.6-1.283h2.255zm5.67.661.583-1.493s.303-.615-1.027-.615c-1.089 0-2.629-.008-2.629-.008s-.902 0-1.213.957c-.303.918-.264 1.665.342 2.427l1.47 1.548s.226.404-.233.427c-.451.024-3.134 0-3.134 0l-.56 1.424h3.896s1.416-.11 1.595-1.268c.147-.934-.685-1.921-.786-2 0 0-1.47-1.282-1.26-1.75.226-.512.762-.435.762-.435h.934l-.28.786zm-42.164-.187c1.105-1.68 2.948-2.411 4.122-1.641 1.167.77 1.222 2.753.117 4.433-1.104 1.68-2.948 2.411-4.122 1.641s-1.221-2.753-.124-4.433m.824 3.376c.397.272 1.314-.397 2.038-1.494.723-1.097.972-2.193.568-2.458-.405-.272-1.315.397-2.03 1.494-.716 1.089-.973 2.193-.568 2.458"/><path d="m90.341 26.237c.467.085 1.074.357 1.385.809.404.606.459 1.773-.18 2.38-.761.715-1.213.886-1.213.886l.226 1.245h2.248s-1.525 1.509-2.761 1.392c-1.144-.117-.918-1.392-.918-1.392s.031-1.136-.653-1.136c0 0-.327 0-.428.327-.101.334-.84 2.209-.84 2.209h-1.501l2.123-5.453h-1.19l.49-1.306h2.878l.326.054zm-.809 2.854s.226.031.693-.257c.676-.412.459-.917.24-1.166-.194-.218-1.08-.202-1.08-.202l-.724 1.617h.871z"/></g></svg>