<svg height="-824" viewBox="253 1273.2 2554.7 515" width="2500" xmlns="http://www.w3.org/2000/svg" xmlns:xlink="http://www.w3.org/1999/xlink"><linearGradient id="a" gradientUnits="userSpaceOnUse" x1="285.9" x2="1186.4" y1="1510.4" y2="1536.8"><stop offset="0" stop-color="#54169c"/><stop offset="1" stop-color="#00a5ff"/></linearGradient><linearGradient id="b" x1="283" x2="1183.6" xlink:href="#a" y1="1607.6" y2="1634"/><path d="m1553.6 1404c-.6-26.5-21.7-48.5-48.5-48.5s-48.1 22-48.1 48.5v86.1c0 .3-.3.6-.3.6v.6c-.6 1.9-2.2 3.2-3.8 4.1-1.3.6-2.5 1-3.8 1h-1.6c-.3 0-.6-.3-.6-.3-.6 0-1.3-.6-1.9-1-.3 0-.6-.3-1-.6l-1-1c-.3-.3-.3-.6-.6-.6q0-.3-.3-.6s0-.3-.3-.6c0-.3 0-.6-.3-1v-86.7c0-26.5-21.4-48.5-48.1-48.5s-48.1 22-48.1 48.5v85.1c0 2.5-1.3 4.8-3.5 6.1-.3.3-1.3 1-1.9 1-.3.3-.6.3-1.3.3h-1.9c-2.9-.3-5.4-2.9-6.4-5.7v-142.8c0-4.1 3.5-7.3 7.3-7.3s7.7 3.2 7.7 7.3v15c11.5-13.7 28.7-22.3 48.1-22.3s45 13.4 55.8 33.2c11.2-19.8 32.2-33.2 56.1-33.2 35.1 0 63.4 28.4 63.4 63.4v85.1c0 3.8-3.2 7.3-7.7 7.3s-7.3-3.5-7.3-7.3v-85.1zm202.7-56.1v140.9c0 4.1-3.5 7.6-7.7 7.6s-7.7-3.5-7.7-7.6v-23.3c-13.4 18.5-34.7 30.9-58.7 30.9-41.1 0-74-35.4-74-78.1s32.8-78.1 74-78.1 45.3 12.1 58.7 30.6v-23c0-4.5 3.5-7.6 7.7-7.6s7.7 3.2 7.7 7.6zm-15.3 70.4c0-35.1-26.5-63.1-58.7-63.1s-58.7 28.1-58.7 63.1 26.8 62.8 58.7 62.8 58.7-27.7 58.7-62.8zm73.7-70.1c0-4.5 3.5-7.7 8-7.7s7.3 3.2 7.3 7.7v34.4c.6-1.3 1.3-2.5 2.2-3.8 11.8-18.5 32.5-38.3 62.5-38.3s7.7 3.2 7.7 7.7-3.5 7.6-7.7 7.6c-20.4 0-34.4 11.5-45.3 25.5-10.5 14-16.6 30-18.8 36.3-.6 1.3-.6 1.9-.6 2.5v68.5c0 4.5-3.5 7.6-7.3 7.6s-8-3.2-8-7.6v-140.6zm132-67.3c0-4.1 3.5-7.7 7.6-7.7s8 3.5 8 7.7v150.2l92.5-92.1c3.2-3.2 7.6-3.2 10.8 0 3.2 2.9 3.2 7.6 0 10.8l-60.3 60.3 60.6 73.6c2.9 3.5 2.5 8-.6 11.2-1.6 1.3-3.5 1.6-5.1 1.6s-4.8-.6-6.1-2.9l-59.9-72.4-31.9 31.9v35.7c0 4.1-3.5 7.6-8 7.6s-7.6-3.5-7.6-7.6zm151.4 137.7c0-43.4 33.8-78.4 75.9-78.4s72.1 31.9 75.2 72.7v1.3c0 4.1-3.5 7-7.7 7h-128.1c1.6 34.1 28.4 59.9 60.6 59.9s39.9-10.8 50.4-28.4c2.2-3.8 7-4.5 10.2-2.5 3.5 2.5 4.8 7 2.5 10.8-13.4 21.4-36.7 35.4-63.1 35.4-42.1 0-75.9-35.1-75.9-77.8zm16.3-12.4h118.3c-5.1-29.3-30-50.7-58.7-50.7s-53.9 21-59.6 50.7zm222.8-58.3c0 3.8-3.8 7.7-7.7 7.7h-20.1v113.8c0 7.7 7.6 11.5 11.5 11.5s8 4.1 8 8-4.1 7.6-8 7.6c-15.6 0-27.4-11.5-27.4-27.1v-113.8h-19.5c-7.6 0-7.6-3.8-7.6-7.7s0-7.6 7.6-7.6h19.5v-58c0-3.8 3.8-7.6 7.7-7.6s8.3 3.8 8.3 7.6v58h20.1c3.8 0 7.7 3.8 7.7 7.6zm65.3-51c0-4.1 3.5-7.6 7.6-7.6s8 3.5 8 7.6v7.3c0 4.5-3.5 8.3-8 8.3s-7.6-3.8-7.6-8.3zm0 51c0-4.5 3.5-7.6 7.6-7.6s8 3.2 8 7.6v140.9c0 4.1-3.5 7.6-8 7.6s-7.6-3.5-7.6-7.6zm192.9 56.1c0-26.5-21.4-48.1-48.1-48.1s-47.8 21.7-48.5 48.1v86.1c-.3 1.3-.6 2.5-1.6 3.5-1.3 1.9-3.5 2.9-5.7 2.9h-1.9c-2.2-.6-4.1-2.2-5.1-4.1-.3-.3-.3-.6-.3-1s-.3-.6-.3-.6v-142.5c0-4.1 3.2-7.7 7.6-7.7s7.3 3.5 7.3 7.7v15c11.5-13.7 29-22.6 48.5-22.6 35.1 0 63.4 28.7 63.4 63.4v84.8c0 4.5-3.5 7.6-7.7 7.6s-7.7-3.2-7.7-7.6v-84.8zm212.3 80c0 40.5-32.8 73.3-73.6 73.3s-22.3-2.9-32.5-7.3c-3.2-2.2-5.1-6.7-3.2-10.2 1.9-4.1 6.4-5.7 10.2-3.5 8 3.8 15.9 5.7 25.5 5.7 32.5 0 58.3-25.8 58.3-58v-19.1c-13.1 18.8-34.4 30.6-58.3 30.6-40.8 0-73.3-34.7-73.3-77.8s32.5-77.5 73.3-77.5 45.3 12.1 58.3 30.6v-23c0-4.1 3.5-7.6 8-7.6s7.3 3.5 7.3 7.6v136.1zm-15.3-66.3c0-34.7-26.1-62.2-58.3-62.2s-58 27.4-58 62.2 26.1 62.8 58 62.8 58.3-27.7 58.3-62.8zm-1473.4 250c0-43.4 35.7-77.8 80.3-77.8s36 6.4 49.7 17.2c3.2 2.2 3.8 7 1 10.5-2.6 2.9-7 3.8-10.5 1.3-11.2-8.9-25.2-14-40.2-14-36.3 0-65 28.4-65 62.8s28.7 63.1 65 63.1 29-5.1 40.2-13.7c3.5-2.6 8-1.6 10.5 1.3 2.9 3.5 2.2 8.3-1.6 11.2-13.1 10.2-30.6 16.6-49.1 16.6-44.6 0-80.3-34.4-80.3-78.4zm247-77.8c41.1 0 74 35.7 74 78.1s-32.8 78.1-74 78.1-74-35.7-74-78.1 33.2-78.1 74-78.1zm0 140.9c31.9 0 58.7-28.1 58.7-62.8s-26.8-63.1-58.7-63.1-58.7 28.4-58.7 63.1 26.8 62.8 58.7 62.8zm249.6-15c-13.7 18.5-35.4 30.3-59.9 30.3-42.1 0-75.6-35.1-75.6-77.8s33.5-78.4 75.6-78.4 46.2 12.1 59.9 30.6v-89.9c0-4.1 3.5-7.7 8-7.7s7.7 3.5 7.7 7.7v207.9c0 4.1-3.5 7.7-7.7 7.7s-8-3.5-8-7.7v-22.6zm0-44.9v-5.1c-1.3-33.5-27.7-60.3-59.9-60.3s-59.9 28.1-59.9 62.8 27.1 62.2 59.9 62.2 58.7-26.5 59.9-59.6zm61.6-2.6c0-43.4 33.8-78.4 75.9-78.4s72.1 31.9 75.2 72.7v1.3c0 4.1-3.5 7-7.7 7h-128.1c1.6 34.1 28.4 59.9 60.6 59.9s39.9-10.8 50.4-28.4c2.2-3.8 7-4.5 10.2-2.5 3.5 2.5 4.8 7 2.5 10.8-13.4 21.4-36.7 35.4-63.1 35.4-42.1 0-75.9-35.1-75.9-77.8zm16.2-12.4h118.3c-5.1-29.3-30-50.7-58.7-50.7s-53.9 21-59.6 50.7z" fill="#1b223c"/><path d="m450.2 1441.8c-1.2-31.1 14.1-51.2 39.1-63.3 30-14.6 59.1-9.9 83.5 12.7 25.9 23.9 49.9 49.9 75.1 74.5 39.2 38.3 76.9 38 116.5-.7 17.8-17.4 35.2-35.2 52.9-52.8 48-47.8 107.5-54.6 158.4-9.9 57.6 50.5 111.1 105.9 163.8 161.6 27.7 29.3 23.6 72.8-3.5 98.2-28.8 27-70 26-100.5-3.4-26.2-25.2-51.1-51.6-77.2-76.8-35.5-34.3-74.4-34.1-109.6.1-20.8 20.2-40.7 41.5-61.8 61.4-49.6 46.8-112.4 47.7-161.3.6-52.2-50.4-102.9-102.4-154.2-153.9-13.6-13.7-22.6-29.7-21.2-48.3z" fill="url(#a)"/><path d="m323.6 1537.6c37.8-.6 71.8 31.9 73.4 70 1.6 38.6-33.1 72.7-73.7 72.5-37.9-.3-68.9-31.2-69.6-69.5-.7-38.6 31.6-72.3 69.9-73z" fill="url(#b)"/><path d="m2091.2 1673.8h241.2" fill="none" stroke="#00a5ff" stroke-linecap="round" stroke-linejoin="round" stroke-width="14.7"/><path d="m2377.8 1657.1c0-10.8 2.4-20.8 7.3-29.8 4.9-9.1 11.5-16.2 19.9-21.4s17.6-7.8 27.7-7.8 14.7 1.2 20.8 3.7 11.2 5.9 15.1 10.1c3.9 4.3 7.2 9.4 9.7 15.4 2.6 6 4.4 12.2 5.4 18.8 1 6.5 1.5 13.6 1.5 21.1 0 17-4 33.8-12 50.3s-19 31.1-32.9 43.6c-14 12.5-29.4 21.6-46.3 27.1l-3.6-9.3c8.6-3.9 16.4-8.4 23.4-13.4 7.1-5 13-10.1 17.9-15.4s9.2-11 13-17.2 6.8-12.2 9.1-18 4.3-12 6-18.5h-1.5c-9.9 10.3-22.2 15.5-36.8 15.5s-17.4-2.4-24.1-7.2-11.7-11.3-14.9-19.4-4.9-17.5-4.9-28.1zm23.4-4c0 14 2.7 24.9 8 32.7 5.4 7.8 13.3 11.7 23.8 11.7s11.8-1.2 16.7-3.7c4.8-2.5 8.5-5.5 11-9.1.7-3.9 1.1-11.2 1.1-21.9 0-15.9-3-28.9-9-39.2s-13.6-15.4-22.9-15.4c-19.2 0-28.8 15-28.8 45zm103.9 49.7c0-18.1 10.9-34.9 32.8-50.2v-1.1c-7.6-5.3-13.8-11.7-18.5-19.4s-7.1-16-7.1-25.1 1.2-12.3 3.6-18 5.6-10.7 9.8-14.8c4.2-4.2 9.3-7.5 15.3-10s12.5-3.8 19.6-3.8c13 0 23.4 3.8 31.2 11.5s11.7 17.7 11.7 30.1c0 18.9-8.6 34.8-25.7 47.8l-.2.9c11.4 7.5 19.9 15.4 25.5 23.6s8.3 17 8.3 26.5-2.6 17.7-7.9 25.3-12.4 13.6-21.3 17.9c-9 4.3-18.8 6.4-29.4 6.4s-25.7-4.4-34.5-13.2-13.2-20.2-13.2-34.2zm20.8-4.9c0 5.6 1 10.9 3.1 16.1s4.7 9.5 8 13 7 6.3 11.1 8.3c4.1 2.1 8.1 3.1 12.1 3.1 10.1 0 18-2.7 23.8-8.2s8.7-12.9 8.7-22.4-3.5-16.3-10.6-23.6-19.2-16.3-36.6-27c-5.9 4.5-10.6 10.3-14.2 17.2-3.6 7-5.4 14.8-5.4 23.6zm3.7-102.6c0 9.4 3.1 18 9.4 25.7 6.3 7.8 16.4 15.9 30.3 24.3 2.3-2.3 4.2-4.4 5.9-6.4 1.6-2 3.4-4.6 5.2-7.7s3.2-6.7 4.1-10.7 1.4-8.5 1.4-13.2c0-10.1-2.9-18.9-8.7-26.3s-13.1-11.1-21.9-11.1-13.5 2.4-18.4 7.3c-4.8 4.8-7.3 10.9-7.3 18.1z" fill="#1b223c"/></svg>