<svg height="541" viewBox=".00196876 -.27976404 224.30119498 48.73485097" width="2500" xmlns="http://www.w3.org/2000/svg"><path d="m223.895 7.868a3.876 3.876 0 0 0 -3.663-5.139l-21.07-.006a3.877 3.877 0 0 0 -3.665 2.613l-1.593 4.623a3.867 3.867 0 0 0 -.188.863 3.817 3.817 0 0 0 -.538-.041h-6.384l1.3-3.779a3.877 3.877 0 0 0 -3.665-5.138h-6.973a3.877 3.877 0 0 0 -3.665 2.614l-2.17 6.3-79.78.008a3.876 3.876 0 0 0 -3.665 2.614l-.054.156h-2.235l2.255-6.549a3.876 3.876 0 0 0 -3.665-5.138h-6.978a3.877 3.877 0 0 0 -3.665 2.614l-3.124 9.074h-3.3a3.845 3.845 0 0 0 -3.687-2.7h-6.977a3.876 3.876 0 0 0 -3.665 2.614l-1.9 5.523-.53-4.7a3.876 3.876 0 0 0 -3.852-3.441h-4.652a3.859 3.859 0 0 0 -.82.088l-.048-.011 3.242-4.926a3.876 3.876 0 0 0 -4.2-5.886l-37.405 9.591a3.877 3.877 0 0 0 -2.914 3.755v11.769a3.876 3.876 0 0 0 5.587 3.478l4.07-2 .714 1.758 3.516 8.657a3.877 3.877 0 0 0 3.591 2.418h7.171a3.876 3.876 0 0 0 3.591-5.335l-.871-2.145 5.592-8.5 1.415 12.534a3.877 3.877 0 0 0 3.852 3.441h4.653a2.328 2.328 0 0 1 1.23-.022l-1.309 3.8a3.876 3.876 0 0 0 3.665 5.138h6.978a3.876 3.876 0 0 0 3.665-2.614l3.212-9.327h2.479l-2.319 6.736a3.876 3.876 0 0 0 3.665 5.138h6.979a3.876 3.876 0 0 0 3.665-2.614l3.188-9.26h2.89a3.861 3.861 0 0 0 3.761 2.957l75.464-.008a3.869 3.869 0 0 0 1.8-.444l-1.454 4.223a3.876 3.876 0 0 0 3.665 5.138h6.979a3.876 3.876 0 0 0 3.665-2.614l2.342-6.8a3.875 3.875 0 0 0 1.9.5h6.979a3.876 3.876 0 0 0 3.665-2.614l4.68-13.592h10.7l-3.811 11.069a3.876 3.876 0 0 0 3.665 5.138h6.979a3.876 3.876 0 0 0 3.665-2.614l7.208-20.937a3.873 3.873 0 0 0 -.432-3.389c0-.013.01-.025.015-.038z" fill="#fff"/><path d="m56.745 14.732-10.28 29.854h6.978l10.279-29.853zm-20.882 0 2.364 20.936h4.652l-2.364-20.936zm10.933 0h-4.652l2.364 20.936h4.652zm71.046-.076-1.629 4.73h16.481l-3.951 11.476h-16.48l-1.629 4.73h23.46l7.2-20.936zm26.003 0-1.629 4.73h16.478l-3.951 11.476h-16.478l-1.629 4.73h23.456l7.209-20.937zm50.124 4.731h16.475l-5.58 16.206h6.98l7.209-20.937h-23.455zm26.261-12.782-21.069-.006-1.59 4.623 21.069.006zm-35.8-.865h-6.979l-3.07 8.917h-4.659l-1.629 4.73h4.66l-8.65 25.123h6.979l8.65-25.123h4.839l-5.58 16.206h6.979l7.209-20.937h-11.819zm-69.137 8.927h-23.457l-1.629 4.73h16.478l-1.162 3.373h-15.9l-1.629 4.73h15.9l-1.161 3.373h-16.476l-1.629 4.73h23.456zm-29.962 13.247h-8.491l1.98-5.749h8.491l1.628-4.73h-8.49l4.024-11.688h-6.978l-4.025 11.688h-8.491l-1.628 4.73h8.49l-1.979 5.749h-8.491l-1.628 4.73h8.49l-4.088 11.874h6.975l4.088-11.874h8.491zm-44.049-24.038-37.406 9.591v11.769l27.4-13.477-10.17 15.184-1.062-2.615h-7.171l4.606 11.341h7.175l-1.638-4.032z"/></svg>