<svg height="859" viewBox="11.38 20.16 377.23 129.67" width="2500" xmlns="http://www.w3.org/2000/svg"><g transform="matrix(1.06036 0 0 1.06036 -12.067 -21.377)"><path d="m11.38 20.16h377.23v129.67h-377.23z" fill="#51ac32"/><path d="m388.61 132.16h-318.29c-23.86 0-43.77-3.37-58.94-11.79v-64.83c25 44.53 75.29 70.72 123 70.72h254.23z" fill="#ffdc00"/><path d="m388.61 144h-377.23v-17.74c14 8.85 37.02 11.74 76.62 11.74h300.6z" fill="#e32516"/></g><path d="m118.358 58.405 7.698-20.147s.795-3.107 6.786-3.107h6.257s2.184 0 2.184 2.704l1.993 39.233a4.422 4.422 0 0 1 -.816 2.959c-1.304 1.315-2.354 1.06-2.354 1.06h-6.723l-.7-17.655c-.212-5.514-.413-12.205-.413-18.885h-.127c-1.496 5.864-10.774 25.618-10.774 25.618-3.18 4.677-5.917 0-5.917 0l-.625-1.06s-8.632-18.705-10.137-24.569h-.117c0 6.68-.212 13.372-.403 18.886l-.657 14.05s.222 2.12-.594 2.947a3.616 3.616 0 0 1 -2.566.594h-7.053l2.206-43.231c0-2.757 2.12-2.704 2.12-2.704h6.246c5.991 0 6.808 3.107 6.808 3.107l7.666 20.147m56.656 14.643a41.863 41.863 0 0 0 .562 8.049h-9.341l-.626-3.351h-.19a12.046 12.046 0 0 1 -9.544 4.093c-6.744 0-10.763-4.899-10.763-10.222 0-8.663 7.762-12.724 19.543-12.724v-.403c0-1.845-.944-4.358-6.055-4.358a18.684 18.684 0 0 0 -9.193 2.513l-1.92-6.68a27.273 27.273 0 0 1 12.958-3.001c11.102 0 14.58 6.542 14.58 14.442zm-9.988-7.719c-5.45 0-9.67 1.304-9.67 5.302a3.722 3.722 0 0 0 4.071 3.955 5.705 5.705 0 0 0 5.387-3.817 6.871 6.871 0 0 0 .212-1.771zm22.395-17.57 3.266 5.577c.954 1.707 1.855 3.34 2.735 4.973h.138c.89-1.834 1.697-3.478 2.577-5.1l2.937-5.45h11.25l-10.973 15.904 11.112 17.464h-11.738l-3.319-6.012c-.954-1.643-1.781-3.33-2.598-5.037h-.212c-.827 1.771-1.707 3.394-2.523 5.037l-3.181 6.012h-11.262l11.292-16.964-11.09-16.404zm34.091-9.278c0 2.852-2.121 5.174-5.6 5.174a5.111 5.111 0 0 1 -5.386-5.174c0-2.938 2.184-5.175 5.525-5.175a5.122 5.122 0 0 1 5.46 5.175m-10.72 9.278h10.434v33.327h-10.38zm20.179-12.004a84.394 84.394 0 0 1 14.05-.964c6.415 0 10.974 1.23 14.05 3.69a13.244 13.244 0 0 1 4.898 10.603c0 4.496-1.431 8.377-4.241 10.9-3.51 3.31-8.812 4.89-14.909 4.89a17.05 17.05 0 0 1 -3.541-.298v16.51h-10.307zm10.307 20.858a15.725 15.725 0 0 0 3.478.265c5.524 0 8.928-2.789 8.928-7.423 0-4.241-2.927-6.744-8.176-6.744a17.475 17.475 0 0 0 -4.241.34zm52.869 16.435a42.87 42.87 0 0 0 .552 8.049h-9.342l-.615-3.351h-.202a12.025 12.025 0 0 1 -9.543 4.093c-6.744 0-10.752-4.899-10.752-10.222 0-8.663 7.773-12.724 19.564-12.724v-.403c0-1.845-.965-4.358-6.065-4.358a18.768 18.768 0 0 0 -9.215 2.513l-1.909-6.68a27.347 27.347 0 0 1 12.926-3.033c11.102 0 14.58 6.542 14.58 14.442zm-10.02-7.708c-5.44 0-9.681 1.304-9.681 5.301 0 2.651 1.77 3.956 4.103 3.956a5.747 5.747 0 0 0 5.387-3.818 7.423 7.423 0 0 0 .19-1.77zm15.131-32.66h10.36v48.406h-10.36zm15.577 15.079h10.307v33.327h-10.35zm16.234-14.527-8.345 10.36h-7.072l5.863-10.36zm6.649 8.059a3.966 3.966 0 0 1 -4.093-4.115 4.05 4.05 0 1 1 8.09 0 3.976 3.976 0 0 1 -4.03 4.115m0-7.529a3.414 3.414 0 1 0 3.182 3.414 3.181 3.181 0 0 0 -3.181-3.414m-.817 5.768h-.752v-4.57h1.75c1.06 0 1.675.382 1.675 1.315a1.177 1.177 0 0 1 -1.199 1.251l1.273 2.004h-.838l-1.188-1.95h-.71zm.849-2.598c.562 0 1.06 0 1.06-.71s-.54-.636-.997-.636h-.901v1.346zm-218.117 65.563-3.584-11.113h2.767l1.358 4.698c.381 1.325.731 2.587.996 3.976a32.39 32.39 0 0 1 1.06-3.923l1.422-4.75h2.682l-3.753 11.112zm11.727 0-.148-.806h-.085a2.948 2.948 0 0 1 -2.322.986 2.481 2.481 0 0 1 -2.62-2.47c0-2.121 1.888-3.097 4.762-3.086v-.117c0-.424-.233-1.06-1.474-1.06a4.56 4.56 0 0 0 -2.237.604l-.467-1.612a6.66 6.66 0 0 1 3.181-.71c2.704 0 3.563 1.58 3.563 3.478v2.8a12.184 12.184 0 0 0 .117 1.961zm-.296-3.807c-1.326 0-2.354.297-2.354 1.272a.901.901 0 0 0 .986.955 1.378 1.378 0 0 0 1.315-.923 1.951 1.951 0 0 0 .053-.434zm4.431-1.601c0-1.188 0-1.962-.063-2.651h2.174l.074 1.485h.074a2.386 2.386 0 0 1 2.185-1.665 2.683 2.683 0 0 1 .53 0v2.354a3.69 3.69 0 0 0 -.679-.064 1.622 1.622 0 0 0 -1.728 1.273 3.033 3.033 0 0 0 0 .562v4.082h-2.524zm8.897-4.888a1.262 1.262 0 0 1 -1.357 1.25 1.262 1.262 0 1 1 0-2.523 1.262 1.262 0 0 1 1.357 1.273zm-2.598 10.296v-8.059h2.514v8.059zm6.479-3.234c.085 1.06 1.06 1.537 2.28 1.537a7.2 7.2 0 0 0 2.237-.329l.34 1.697a8.08 8.08 0 0 1 -2.937.488c-2.747 0-4.327-1.58-4.327-4.093a4.04 4.04 0 0 1 4.093-4.305c2.62 0 3.616 2.025 3.616 4.019a5.896 5.896 0 0 1 -.085.986zm2.959-1.708a1.453 1.453 0 0 0 -1.421-1.632 1.644 1.644 0 0 0 -1.559 1.632zm11.706-6.765v9.3c0 .912 0 1.866.064 2.407h-2.185l-.116-1.188a2.831 2.831 0 0 1 -2.535 1.368c-1.93 0-3.467-1.633-3.467-4.135 0-2.715 1.686-4.242 3.627-4.242a2.513 2.513 0 0 1 2.12.901v-4.368zm-2.524 7.062v-.445a1.516 1.516 0 0 0 -1.473-1.24c-1.146 0-1.74 1.06-1.74 2.29s.68 2.227 1.718 2.227a1.485 1.485 0 0 0 1.464-1.199 2.587 2.587 0 0 0 .063-.583zm9.141 4.645-.149-.806a2.958 2.958 0 0 1 -2.322.986 2.481 2.481 0 0 1 -2.619-2.47c0-2.121 1.887-3.097 4.75-3.086v-.117c0-.424-.222-1.06-1.473-1.06a4.591 4.591 0 0 0 -2.238.604l-.456-1.612a6.606 6.606 0 0 1 3.181-.71c2.704 0 3.574 1.58 3.574 3.478v2.8a13.785 13.785 0 0 0 .106 1.961zm-.297-3.807c-1.326 0-2.354.297-2.354 1.272a.912.912 0 0 0 .997.955 1.357 1.357 0 0 0 1.304-.923 1.485 1.485 0 0 0 .095-.434zm12.3-7.9v9.3c0 .912 0 1.866.064 2.407h-2.238l-.116-1.188a2.831 2.831 0 0 1 -2.535 1.368c-1.93 0-3.467-1.633-3.467-4.135 0-2.715 1.686-4.242 3.627-4.242a2.513 2.513 0 0 1 2.12.901v-4.368zm-2.524 7.062v-.445a1.516 1.516 0 0 0 -1.473-1.24c-1.146 0-1.74 1.06-1.74 2.29s.68 2.227 1.718 2.227a1.485 1.485 0 0 0 1.464-1.199 2.587 2.587 0 0 0 .063-.583zm9.777-3.414 1.209 3.955c.127.477.297 1.06.392 1.495h.096c.116-.424.243-1.06.36-1.495l.997-3.955h2.704l-1.888 5.302c-1.166 3.18-1.94 4.485-2.852 5.302a4.57 4.57 0 0 1 -2.439 1.06l-.53-2.12a3.393 3.393 0 0 0 1.06-.425 2.969 2.969 0 0 0 1.06-1.06.742.742 0 0 0 .128-.36.816.816 0 0 0 -.117-.414l-2.958-7.423zm14.728 8.059-.148-.806h-.053a2.948 2.948 0 0 1 -2.322.986 2.481 2.481 0 0 1 -2.62-2.47c0-2.121 1.888-3.097 4.762-3.086v-.117c0-.424-.234-1.06-1.474-1.06a4.56 4.56 0 0 0 -2.238.604l-.466-1.612a6.66 6.66 0 0 1 3.181-.71c2.704 0 3.563 1.58 3.563 3.478v2.8a12.184 12.184 0 0 0 .116 1.961zm-.307-3.807c-1.326 0-2.343.297-2.343 1.272a.901.901 0 0 0 .986.955 1.378 1.378 0 0 0 1.315-.923 1.951 1.951 0 0 0 0-.434zm4.443-7.9h2.524v4.602a3.043 3.043 0 0 1 .996-.827 2.884 2.884 0 0 1 1.305-.307c1.611 0 2.83 1.06 2.83 3.52v4.719h-2.512v-4.433c0-1.06-.371-1.781-1.315-1.781a1.357 1.357 0 0 0 -1.262.87 1.675 1.675 0 0 0 -.074.562v4.782h-2.524zm17.708 7.582a4.05 4.05 0 0 1 -4.242 4.305 3.955 3.955 0 0 1 -4.241-4.157 4.03 4.03 0 0 1 4.326-4.241 3.923 3.923 0 0 1 4.157 4.093zm-5.864.085c0 1.389.583 2.428 1.654 2.428s1.612-.976 1.612-2.428c0-1.198-.466-2.418-1.612-2.418s-1.654 1.23-1.654 2.46zm7.423-1.368c0-1.188 0-1.962-.064-2.651h2.12l.075 1.485h.074a2.375 2.375 0 0 1 2.185-1.665 2.683 2.683 0 0 1 .53 0v2.354a3.785 3.785 0 0 0 -.679-.064 1.622 1.622 0 0 0 -1.728 1.273 3.033 3.033 0 0 0 0 .562v4.082h-2.524zm6.298 0c0-1.188 0-1.962-.074-2.651h2.174l.085 1.485h.063a2.386 2.386 0 0 1 2.185-1.665 2.852 2.852 0 0 1 .54 0v2.354a3.913 3.913 0 0 0 -.689-.064 1.622 1.622 0 0 0 -1.718 1.273 2.98 2.98 0 0 0 -.053.562v4.082h-2.513zm14.167 1.283a4.061 4.061 0 0 1 -4.242 4.305 3.955 3.955 0 0 1 -4.241-4.157 4.04 4.04 0 0 1 4.326-4.241 3.934 3.934 0 0 1 4.157 4.093zm-5.875.085c0 1.389.583 2.428 1.665 2.428s1.601-.976 1.601-2.428c0-1.198-.466-2.418-1.6-2.418s-1.666 1.23-1.666 2.46zm12.714.806c.085 1.06 1.06 1.537 2.28 1.537a7.2 7.2 0 0 0 2.237-.329l.34 1.697a8.08 8.08 0 0 1 -2.938.488c-2.746 0-4.326-1.58-4.326-4.093a4.04 4.04 0 0 1 4.093-4.305c2.62 0 3.616 2.025 3.616 4.019a5.896 5.896 0 0 1 -.085.986zm2.97-1.708a1.453 1.453 0 0 0 -1.432-1.632 1.644 1.644 0 0 0 -1.56 1.632zm3.838-.55c0-.998 0-1.857-.064-2.567h2.184l.117 1.06a3 3 0 0 1 2.502-1.24c1.665 0 2.906 1.06 2.906 3.457v4.782h-2.481v-4.464c0-1.06-.361-1.75-1.273-1.75a1.325 1.325 0 0 0 -1.272.944 1.538 1.538 0 0 0 -.106.625v4.645h-2.513zm20.793-2.567c0 .509-.074 1.188-.074 2.386v4.506a4.623 4.623 0 0 1 -1.22 3.627 5.069 5.069 0 0 1 -3.297.986 6.362 6.362 0 0 1 -2.916-.626l.498-1.898a4.952 4.952 0 0 0 2.354.615 1.93 1.93 0 0 0 2.121-2.12v-.53a2.587 2.587 0 0 1 -2.184 1.06c-2.004 0-3.436-1.612-3.436-3.945 0-2.587 1.697-4.241 3.68-4.241a2.439 2.439 0 0 1 2.216 1.134l.074-.954zm-2.587 3.277a1.993 1.993 0 0 0 -.053-.456 1.378 1.378 0 0 0 -1.357-1.06c-.912 0-1.654.816-1.654 2.29 0 1.198.593 2.12 1.654 2.12a1.368 1.368 0 0 0 1.325-1.06 2.195 2.195 0 0 0 .085-.657zm4.56-.626c0-1.188 0-1.962-.064-2.651h2.12l.086 1.485h.063a2.386 2.386 0 0 1 2.195-1.665 2.683 2.683 0 0 1 .53 0v2.354a3.785 3.785 0 0 0 -.678-.064 1.622 1.622 0 0 0 -1.729 1.273 2.98 2.98 0 0 0 0 .562v4.082h-2.523zm10.699 5.408-.096-.817h-.053a2.948 2.948 0 0 1 -2.322.986 2.481 2.481 0 0 1 -2.62-2.47c0-2.121 1.888-3.096 4.762-3.086v-.117c0-.424-.233-1.06-1.474-1.06a4.591 4.591 0 0 0 -2.237.605l-.467-1.612a6.66 6.66 0 0 1 3.181-.71c2.704 0 3.563 1.58 3.563 3.477v2.8a12.184 12.184 0 0 0 .117 1.961zm-.297-3.807c-1.326 0-2.354.297-2.354 1.272a.901.901 0 0 0 .986.955 1.378 1.378 0 0 0 1.315-.923 1.951 1.951 0 0 0 .053-.434zm4.443-1.685c0-.998 0-1.857-.064-2.567h2.184l.117 1.06a2.969 2.969 0 0 1 2.503-1.283c1.654 0 2.894 1.06 2.894 3.457v4.782h-2.513v-4.464c0-1.06-.37-1.75-1.283-1.75a1.347 1.347 0 0 0 -1.272.944 1.76 1.76 0 0 0 -.096.626v4.644h-2.47zm17.549-6.215v9.3c0 .912 0 1.866.074 2.407h-2.237l-.117-1.188a2.842 2.842 0 0 1 -2.545 1.368c-1.92 0-3.457-1.633-3.457-4.135 0-2.715 1.686-4.242 3.627-4.242a2.513 2.513 0 0 1 2.12.901v-4.368zm-2.513 7.062v-.445a1.516 1.516 0 0 0 -1.474-1.24c-1.145 0-1.74 1.06-1.74 2.29s.68 2.227 1.719 2.227a1.485 1.485 0 0 0 1.463-1.199 2.587 2.587 0 0 0 .063-.583zm6.478 1.411c.085 1.06 1.06 1.537 2.28 1.537a7.2 7.2 0 0 0 2.238-.329l.339 1.697a8.122 8.122 0 0 1 -2.937.488c-2.747 0-4.327-1.58-4.327-4.093a4.04 4.04 0 0 1 4.093-4.305c2.62 0 3.616 2.025 3.616 4.019a5.896 5.896 0 0 1 -.085.986zm2.959-1.708a1.453 1.453 0 0 0 -1.421-1.632 1.644 1.644 0 0 0 -1.559 1.632z" fill="#fff"/></svg>