<svg viewBox="-0.0000019573098466452166 -0.040000000000000036 222.88007729998208 118.51" xmlns="http://www.w3.org/2000/svg" width="2500" height="1330"><path d="M127.32 12.27H14.11A14.14 14.14 0 0 0 0 26.38v48A14.12 14.12 0 0 0 14.11 88.5h194.65a14.11 14.11 0 0 0 14.11-14.1v-48a14.1 14.1 0 0 0-14.11-14.12h-81.44z" fill="#fff"/><g fill="#c70067"><path d="M47.63 48.54l-7.46 21.22c-.72 1.93-.94 2.05-2.21 2.05s-1.66-.24-2.27-1.93l-7.23-21.34v21.28c-.06 1.27-.39 1.81-1.66 1.81h-5.25c-1.28 0-1.5-.54-1.55-1.81v-39c0-1.55.94-1.55 1.55-1.55h8.33c1.45 0 1.67.12 2.21 1.61l7 19.73 7.24-19.91c.44-1.19.71-1.43 1.88-1.43h8.34c1.06 0 1.61.12 1.61 1.55v39.1c.06 1.57-.67 1.63-1.77 1.69h-7.16c-1.27 0-1.6-.43-1.6-1.87zM84.21 65.19a6.52 6.52 0 0 1-.78 3.81c-.38.54-2.93 3.5-10.55 3.5-5 0-12.76-1-12.76-9.06 0-8.88 9.34-10.37 14.2-11.15v-3.21c0-1.32 0-3.42-1.82-3.42-1.49 0-1.93 1.18-2.27 2.21-.71 2-1.32 3.83-4.36 3.83a4.39 4.39 0 0 1-4.58-4.56c0-2.45 1.77-4.74 4.58-6a21.16 21.16 0 0 1 8.9-1.45c3.43 0 6.52.55 8.29 3.42a9.74 9.74 0 0 1 1.16 5.34zm-9.89-8.14c-1.6.46-2.37.77-3.09 1.85a8.08 8.08 0 0 0-1 4c0 2.1.78 3.71 2.21 3.71 1.88 0 1.88-2.08 1.88-3.6zM96.91 64.91l-3.31 5.57c-.67 1.08-.88 1.15-1.83 1.15h-5.91c-.62 0-1.21-.18-1.21-1a1.66 1.66 0 0 1 .39-1l7.68-12.52-7.08-14.22c-.39-.78-.5-1-.5-1.37 0-1 .89-1 1.28-1h8c1.1 0 1.32.06 2 1.32l2.48 5.27 3.32-5.27c.77-1.26.82-1.32 1.93-1.32h5c.61 0 1.43 0 1.43.9a2.07 2.07 0 0 1-.44 1.13l-7 11.94 7.68 15a2.15 2.15 0 0 1 .39 1.14c0 1-.83 1-1.27 1h-8.62c-1.27 0-1.38-.18-2-1.45zM161.5 65.19a6.53 6.53 0 0 1-.78 3.84c-.39.54-2.93 3.5-10.55 3.5-5 0-13.26-1-13.26-9.06 0-8.88 9.83-10.37 14.7-11.15v-3.24c0-1.32 0-3.42-1.82-3.42-1.5 0-1.93 1.18-2.27 2.21-.72 2-1.33 3.83-4.37 3.83a4.39 4.39 0 0 1-4.58-4.56c0-2.45 1.77-4.74 4.58-6a21.2 21.2 0 0 1 8.9-1.45c3.43 0 6.52.55 8.29 3.42a9.67 9.67 0 0 1 1.16 5.34zm-9.89-8.14c-1.6.46-2.66.77-3.46 1.85a7.39 7.39 0 0 0-1.12 4c0 2.1 1.26 3.71 2.7 3.71 1.88 0 1.88-2.08 1.88-3.6zM165.11 27.12c0-1.3.71-1.37 1.49-1.37h7.74c1 0 1.49.24 1.49 1.43v42.88c0 1.32-.5 1.57-1.49 1.57h-7.68c-1.11 0-1.49-.24-1.54-1.57zM204.47 64.43a8.28 8.28 0 0 1-.55 3.71c-1.38 2.88-6.74 4.38-11.82 4.38-10.89 0-12.6-4.74-12.6-10.15V41.89c0-1.2.72-1.32 1.43-1.32h7.8c.83 0 1.49.12 1.49 1.38v19.77c0 1.69 0 3.14 1.77 3.14 1.6 0 1.65-1.45 1.65-3.14V42.11c.06-.94.06-1.54 1.27-1.54H203c.88 0 1.49.18 1.49 1.44z"/><path d="M218.74 16.4a14.06 14.06 0 0 0-10-4.13h-63l2.76-9.85a6.12 6.12 0 0 0 .27-1.27c0-1-.76-1.19-1.49-1.14h-6.94c-1.17 0-1.5.23-1.83 1.44l-13.08 48.69L121.27 31c-.34-1.43-.67-1.67-2-1.67h-9.07c-.43 0-1.32-.06-1.32.91a4.86 4.86 0 0 0 .22 1.13l11.16 38.92c.39 1.27.66 1.39 1.82 1.39h5.52c1.34 0 1.5-.36 1.94-1.81l13.94-49.34h65.27a5.9 5.9 0 0 1 5.89 5.9v48a5.91 5.91 0 0 1-5.89 5.9H14.11a5.89 5.89 0 0 1-5.89-5.9v-48a5.9 5.9 0 0 1 5.89-5.9h111l2.21-8.21H14.11A14.14 14.14 0 0 0 0 26.38v48A14.12 14.12 0 0 0 14.11 88.5h194.65a14.11 14.11 0 0 0 14.11-14.1v-48a14.08 14.08 0 0 0-4.13-10z"/></g><path d="M177.09 102.67h5v1.25h-5zm-5.31-3.72h10.31v1h-8.7v10.29h5.7a13.17 13.17 0 0 1-3.7 2.55 33.63 33.63 0 0 1-4.14 1.64l2.27 3.88a23 23 0 0 0 8.57-6.12v6.28H186v-6.41a21.15 21.15 0 0 0 8.41 6.2l2.32-3.93a18.75 18.75 0 0 1-7.79-4.09h5.83V100H186v-1h10.34v-3.47H186v-1.82h-3.91v1.82h-10.31zm5.31 7.39h5v1.22h-5zm14-3.67v1.25H186v-1.25zm0 3.67v1.22H186v-1.22zM217.66 103.76v2.11h-2.37c.05-1.22.05-1.59.08-2.11zm-9.9 13.1c.18-.6.23-.83.52-2.13h8.83c-.08.47-.18 1-1.09 1h-2.92l.62 2.71h4c2.55 0 2.84-2.45 3-3.72H222v-3.33h-1c.05-.62.05-.91.13-2.21h1.15v-3.31h-1.07c0-.78.05-4.22.05-4.92v-.5h-13.41a16.94 16.94 0 0 0 1-1.43h13.46v-3.46h-11.7c.21-.52.31-.81.52-1.48l-3.83-.34a15 15 0 0 1-4.37 6.51l2.66 2.79.57-.57c-.05.81-.1 1.51-.29 3.41h-1.56V109l-2.55-2.29a37.8 37.8 0 0 1-4.46 8.29l2.53 3.44a37.3 37.3 0 0 0 4.71-9.22l-.05-.05h1A44.76 44.76 0 0 1 204 116zm4.17-13.1c-.05.62-.05.88-.13 2.11h-2.37c.1-1 .18-1.74.18-2.11zm-3.1 7.63c.21-1.56.23-1.72.26-2.21h2.4c-.1.91-.16 1.38-.29 2.21zm8.7-2.21c0 .6-.05.81-.13 2.21h-2.6c.1-.68.16-1 .26-2.21zm-19.42-12.37a23.31 23.31 0 0 1 4.45 2.79l2.21-3.12a20.29 20.29 0 0 0-4.63-2.63zm-.75 6.61a19.41 19.41 0 0 1 4.37 3l2.13-3.15a16.71 16.71 0 0 0-4.48-2.76z" fill="#231815"/><path d="M20.26 99.44a8.7 8.7 0 0 1-1.95 4.75 13.69 13.69 0 0 1-4.43 3.53 23.27 23.27 0 0 0-9.21-3.58V108q.75.16 1.48.38a19.63 19.63 0 0 1 11.63 9.5h4.61a23.25 23.25 0 0 0-5.56-7.88 16.54 16.54 0 0 0 8.28-14.7H1.63v4.14zM53.72 95.59a11.39 11.39 0 0 1-2.66 4.52 7 7 0 0 1-3.52 2v3.68a8.28 8.28 0 0 0 4-1.17 11.18 11.18 0 0 0 4.51-5.11h10.32a14.91 14.91 0 0 1-1.43 6.42 13 13 0 0 1-3.38 4.37 10.09 10.09 0 0 1-3.18 1.81 27 27 0 0 1-8.94 1.49v3.93a27.73 27.73 0 0 0 5.7-.38 21.52 21.52 0 0 0 9.86-4.5 13.45 13.45 0 0 0 4.18-5.85 33.92 33.92 0 0 0 1.52-5.61 27.22 27.22 0 0 0 .43-5.61zM82.24 110.42a9.52 9.52 0 0 0 1.52-1.14 15.9 15.9 0 0 0 3.42-4.51 10.82 10.82 0 0 0 1.14-5.66h-14v-3.9h18.81a27.2 27.2 0 0 1-.62 6.46 23.24 23.24 0 0 1-1.83 5.26A15.66 15.66 0 0 0 97 113v4.32a4.66 4.66 0 0 1-1.28-.28 12.83 12.83 0 0 1-2.66-1.38 15.84 15.84 0 0 1-4.77-5.1 21.49 21.49 0 0 1-9.68 5.86 17.37 17.37 0 0 1-5.23.66v-4a18.5 18.5 0 0 0 8.86-2.66zM105 95.21v6.66a19.73 19.73 0 0 1-.54 4.56 10.85 10.85 0 0 1-3.8 6 3.86 3.86 0 0 1-.87.52v4.53a3.06 3.06 0 0 0 .56-.11 9.63 9.63 0 0 0 5.11-3.59A17.84 17.84 0 0 0 108 109a24.83 24.83 0 0 0 1.31-8v-5.79zM118.65 97.57v4.49a17.5 17.5 0 0 0 1.24 6.46 8.72 8.72 0 0 0 4 4.46v4.53a9.23 9.23 0 0 1-5-2.94 16.65 16.65 0 0 1-2.8-4.49 21.41 21.41 0 0 1-1.68-8.32v-4.19zM145 95.57v5.75a16.09 16.09 0 0 1-1.66 7.12 6.12 6.12 0 0 1-1.9 2.24 15.91 15.91 0 0 1-8.39 3 27.44 27.44 0 0 1-4.33-.09v4.21a31.76 31.76 0 0 0 11.28-1.57 13 13 0 0 0 7.47-6.32 17.71 17.71 0 0 0 2-7.24v-7.1zM152.69 101H166v9.75a6.87 6.87 0 0 1-1.16 3.82H170v3.38h-18.36v-3.37H159a3.06 3.06 0 0 0 1.74-.43 2.9 2.9 0 0 0 1.31-1.71 9.89 9.89 0 0 0 .36-2.66v-5.61h-9.68zM44.83 101.06a25.64 25.64 0 0 1-.57 6.17 13.22 13.22 0 0 1-2.23 5 13.75 13.75 0 0 1-4.82 4.14 12.59 12.59 0 0 1-5.09 1.38q-2 .11-4.06.08v-3.13h2.66a10.19 10.19 0 0 0 2.8-.38 11.17 11.17 0 0 0 5.56-3.61 6.17 6.17 0 0 0 1.09-1.95 21.56 21.56 0 0 0 1.14-7.69zM27.21 101.06l1.44 9.22h3.45l-1.44-9.22z"/><path d="M32.83 101.06l1.31 9.23h3.45l-1.3-9.23zM113.64 93.79h4.15v3.01h-4.15zM118.68 93.79h4.15v3.01h-4.15zM127.26 95.57h4.31v13.67h-4.31z"/></svg>