<svg height="2500" viewBox="4.16 4.41 4499.18 4499.59" width="2500" xmlns="http://www.w3.org/2000/svg"><path d="m2896 4504h-2891.84v-4499.59h4499.18v4499.59zm-35.595-2630.514c28.114 19.077 56.203 38.193 84.379 57.178 3.035 2.044 6.58 3.33 10.851 5.444 1.96-5.028 3.766-8.542 4.71-12.274 4.892-19.348 10.158-38.628 14.175-58.162 6.164-29.978 11.514-60.16 13.324-90.768 1.69-28.574 2.554-57.198 3.74-85.802 1.186-28.608 2.959-57.21 3.266-85.83.221-20.602-2.08-41.22-2.301-61.842-.416-38.711-4.946-77.084-9.604-115.378-5.38-44.232-13.167-88.12-22.341-131.781-16.866-80.271-38.89-159.008-67.495-235.887-1.58-4.244-3.868-8.225-5.307-11.241-20.96-4.517-40.572-8.2-59.907-12.999-109.202-27.1-216.97-59.363-324.886-91.052-75.364-22.13-150.467-45.157-225.56-68.197-10.723-3.29-20.43-3.493-31.107.047-25.271 8.377-50.768 16.108-76.318 23.606-120.707 35.422-241.344 71.086-362.253 105.806-54.324 15.6-108.615 31.693-164.654 40.455-5.089.796-8.643 3.11-10.415 8.017-1.131 3.132-2.335 6.238-3.516 9.352-19.383 51.116-35.039 103.439-48.405 156.366-18.745 74.228-33.654 149.216-41.624 225.52-3.53 33.786-7.37 67.485-7.768 101.485-.047 3.992-.565 7.977-.64 11.97-.497 26.62-1.598 53.25-1.195 79.858.372 24.618 3.138 49.2 3.494 73.819.617 42.683 3.36 85.172 11.282 127.1 5.554 29.388 12.94 58.435 19.807 87.564 1.141 4.84 3.822 9.319 6.164 14.84 3.54-1.997 5.948-3.024 7.973-4.556 10.624-8.039 21.173-16.178 31.707-24.334 16.329-12.64 32.694-25.235 48.892-38.041 5.011-3.962 10.247-5.636 16.635-4.864 40.277 4.867 80.565 9.659 120.867 14.321 50.905 5.89 101.523 13.584 151.81 23.467 5.088 1 10.443 2.727 16.149-1.512 1.419-3.55 3.216-7.814 4.838-12.143 15.438-41.183 39.122-77.37 69.424-108.794 73.499-76.217 165.335-102.19 268.017-91.096 71.578 7.733 131.064 42.94 181.002 93.839 30.655 31.244 53.802 67.704 68.25 109.35 1.25 3.6 3.313 6.918 5.21 10.801 3.451-.682 5.986-1.091 8.477-1.689 27.82-6.674 55.526-13.861 83.469-19.97 53.302-11.65 106.66-23.166 161.363-26.317 15.812-5.75 28.462.845 40.381 10.328 1.042.83 2.168 1.552 5.64 3.996m-118.405 606.704c69.313-.219 138.627-.424 207.94-.662 46.653-.16 93.305-.311 139.956-.603 7.04-.044 14.339.88 22.175-2.297-1.129-4.217-1.813-7.342-2.798-10.369-48.781-150.073-97.623-300.127-146.305-450.232-2.997-9.24-7.824-16.277-15.82-22.109-27.995-20.416-56.301-40.526-82.98-62.578-17.135-14.163-34.475-21.78-56.476-16.142-.633.162-1.327.087-1.993.116-50.68 2.204-100.864 8.98-150.68 18.023-105.147 19.086-207.326 48.795-306.51 88.59-29.032 11.647-57.631 24.374-87.005 36.851-5.693-2.468-11.818-5.039-17.876-7.762-173.571-78.023-354.514-126.748-545.074-137.485-9.194-.519-16.676 1.478-24.03 7.083-32.325 24.642-64.75 49.165-97.58 73.128-8.662 6.322-13.407 14.154-16.505 23.957-8.825 27.934-17.99 55.76-27.064 83.616-38.56 118.388-77.173 236.758-115.598 355.189-2.162 6.662-6.47 13.173-3.996 21.704 6.804.263 13.41.701 20.016.741 33.322.201 66.646.26 99.968.438 223.923 1.19 447.846 2.393 671.768 3.641 4.54.026 9.077.664 13.363.996 1.135 2.583 2.132 4.338 2.699 6.223 3.505 11.644 11.949 17.613 23.388 18.83a183.668 183.668 0 0 0 29.761.73c14.739-.84 25.089-8.042 28.952-23.058.27-1.05 1.754-1.787 3.883-3.83 142.612-.904 286.517-1.816 434.421-2.729m-837.595 536.678c-1.865-32.568-3.668-65.139-5.618-97.701-1.234-20.599-2.637-41.188-4.053-61.774-3.424-49.8-7.016-99.589-10.313-149.396-2.067-31.222-3.606-62.478-5.617-93.704-.81-12.556-2.25-25.07-3.387-37.42-14.951-2.819-95.542-3.274-116.8-.64-2.094 4.918-4.573 10.284-6.695 15.787-29.454 76.385-58.73 152.84-88.31 229.176-37.289 96.224-73.687 192.745-100.91 292.443-.858 3.141-2.976 5.938-5.373 10.57-2.027-6.026-3.525-9.732-4.525-13.567-17.144-65.738-37.967-130.349-61.106-194.167-39.929-110.13-80.707-219.953-121.179-329.887-1.356-3.683-3.252-7.168-4.75-10.425-19.817-2.445-101.377-2.096-116.435.48-.445 2.458-1.16 5.034-1.349 7.647-4.201 58.428-8.332 116.86-12.507 175.29-1.518 21.249-3.091 42.494-4.682 63.738-4.823 64.388-9.748 128.767-14.474 193.162-3.264 44.484-6.188 88.993-9.411 133.479-1.828 25.224-3.976 50.424-5.932 75.639-.552 7.109-1.616 14.27.222 22.561 14.823.075 28.714.604 42.565.086 14.339-.536 28.973 2.507 43.63-2.183 12.71-191.696 26.534-382.565 32.456-574.423 2.026.858 3.057.984 3.19 1.398 1.627 5.048 3.121 10.138 4.651 15.217 15.356 50.97 29.05 102.514 46.39 152.8 45.128 130.87 91.847 261.192 137.992 391.71 1.304 3.69 3.292 7.136 4.821 10.398 25.281 2.343 56.226 1.778 69.802-1.202.33-.58.745-1.126.977-1.742 70.98-188.737 147.99-375.254 209.01-567.66.143-.45.959-.776 1.525-.976.489-.173 1.07-.084 2.116-.137.827 22.567 1.635 45.135 2.486 67.701 2.108 55.883 3.693 111.792 6.51 167.64 2.749 54.5 6.919 108.927 10.18 163.403 3.26 54.485 6.138 108.993 9.286 163.484.26 4.497 1.301 8.948 1.94 13.157 25.721 3.058 75.223 2.223 89.062-1.71-5.014-74.652-10.048-149.588-15.385-228.252m154.222-270.869c.13 165.246.255 330.492.444 495.738.002 1.237.874 2.474 1.651 4.539 2.74.51 5.889 1.383 9.089 1.645 21.228 1.734 42.454 3.519 63.704 4.946 56.605 3.802 113.11 2.986 169.38-4.795 33.121-4.58 65.494-12.289 95.734-26.949 66.51-32.244 102.395-85.495 105.355-159.35 2.259-56.378-19.884-102.345-64.74-137.004-18.622-14.39-39.34-24.835-61.515-32.555-4.578-1.594-8.982-3.69-15.526-6.412 8.221-3.952 14.142-6.836 20.096-9.653 20.685-9.787 39.262-22.654 54.983-39.256 31.152-32.897 43.905-72.108 39.72-117.193-3.633-39.126-19.983-71.316-50.414-96.303-26.222-21.532-56.093-35.534-88.97-43.393-29.928-7.154-60.395-10.08-91.049-10.803-31.957-.753-63.946-.492-95.798 2.58-27.154 2.62-54.253 5.84-81.337 9.127-3.657.444-7.078 2.829-10.805 4.398 0 52.767 0 104.73-.002 160.693m982.522-762.917c-8.098 28.12-16.063 56.278-24.378 84.333-2.324 7.838-3.148 15.12-.49 23.242 19.044 58.184 37.689 116.499 56.55 174.743.94 2.906 1.64 6.51 7.478 6.805 101.052-90.54 178.678-198.863 231.587-324.868 39.202-93.363 73.03-247.797 65.87-300.851-2.908-.431-6.089-1.33-9.263-1.31-45.54.302-90.24-6.961-134.627-15.884-43.036-8.652-85.761-18.847-128.657-28.206-4.94-1.078-10.102-1.143-16.758-1.846-.054 10.808-.257 20.05-.12 29.287.774 52.03-3.517 103.786-9.535 155.358-7.721 66.16-19.938 131.562-37.657 199.197m-1538.481 60.192c-6.601-23.726-13.684-47.331-19.67-71.21-6.147-24.527-11.677-49.231-16.639-74.025-4.832-24.15-9.118-48.436-12.698-72.802-3.677-25.034-6.746-50.187-9.09-75.38-2.283-24.522-3.75-49.143-4.765-73.753-1.036-25.146-1.086-50.333-1.555-74.87-7.477-3.594-13.168-.825-18.859.427-42.91 9.443-85.631 19.845-128.74 28.259-43.79 8.547-87.886 15.743-132.794 15.314-3.062-.03-6.137 1.292-8.986 1.935-1.04 87.84 30.119 238.355 96.972 366.525 47.575 91.21 146.807 219.996 193.206 247.992 2.404-6.259 4.912-12.28 7.048-18.43 19.007-54.728 37.717-109.562 57.102-164.157 4-11.266 5.395-21.745-.532-35.825m1600.22 1166.518v-365.972c0-57.996-.058-115.992.082-173.987.016-6.472-1.84-13.387 3.636-20.413h21.02c57.996 0 115.99.05 173.986-.088 5.063-.012 10.757 1.838 14.964-2.887 2.303-36.169 1.608-58.74-2.449-71.865h-341.577c-53.996 0-107.992-.039-161.988.065-5.058.01-10.114.917-14.911 1.382-2.503 34.192-1.802 59.847 2.049 73.16 69.532.79 139.326-.46 208.42.691 4.397 7.56 2.902 14.36 2.922 20.869.134 43.33.07 86.66.07 129.99 0 141.322-.01 282.644.027 423.967.002 7.19.404 14.38.633 22.008 10.947 2.96 20.918 1.358 30.724 1.61 10.659.274 21.338.317 31.994-.013 9.698-.301 19.672 1.625 30.397-2.016zm-477.768-563.784c.153 199.126.306 398.252.492 597.378 0 .587.452 1.203.78 1.754.337.57.78 1.078 1.177 1.612 21.604 2.96 75.647 2.288 89.811-1.44v-21.424-625.374c0-3.996.227-8.01-.07-11.983-.281-3.753-1.114-7.466-1.661-10.925-29.104-2.127-74.184-1.523-89.5 1.265-2.176 21.513-.486 43.363-1.029 69.137m617.323-1122.224c-1.138-18.59-1.774-37.227-3.51-55.76-4.92-52.524-15.928-103.824-32.339-153.952-2.247-6.864-5.12-13.522-7.47-19.661-25.885-6.207-50.37-12.346-74.984-17.905-25.009-5.649-49.072-15.039-77.492-20.652 12.279 50.75 21.502 99.545 27.837 148.79 6.362 49.445 10.686 99.104 10.762 148.1 23.503 14.425 121.643 35.484 156.96 33.989 3.328-19.608.8-39.454.236-62.95m-1780.727-179.608c2.863-14.35 6.192-28.625 8.458-43.068 2.312-14.736 8.65-28.86 8.144-44.67l-150.39 38.863c-.824 1.582-2.373 3.81-3.218 6.28-15.103 44.162-27.27 89.082-32.766 135.525-2.499 21.114-3.898 42.382-5.106 63.62-1.435 25.224-2.234 50.488-3.024 75.743-.113 3.634 1.37 7.318 2.322 11.997 11.564-1.611 22.072-2.933 32.533-4.56 32.864-5.11 65.683-10.507 97.69-19.8 8.152-2.367 16.863-3.8 23.957-10.405 1.134-18.486 2.002-37.041 3.475-55.549 1.95-24.525 3.913-49.066 6.72-73.503 2.958-25.76 6.916-51.407 11.205-80.473m-1165.306 2133.828c-.546-23.747 1.14-47.565-1.102-72.772-14.221.44-27.244-1.413-40.152.901-1.75 3.065-3.133 5.302-4.34 7.63-10.405 20.085-20.652 40.254-31.253 60.235-2.596 4.893-3.984 11.023-10.115 13.766-16.256-27.133-27.82-56.26-44.563-82.667-10.344 0-19.65-.201-28.938.098-3.716.12-7.397 1.34-11.687 2.175 0 64.915-.004 128.85.014 192.784.001 2.66.157 5.324.357 7.978.044.582.544 1.152.904 1.681.372.55.828 1.042 2.103 2.614 5.07 0 11.03.31 16.943-.09 5.71-.385 11.952 2.02 16.528-1.9.783-1.376 1.21-1.912 1.4-2.521.194-.623.206-1.318.208-1.98.07-35.976.126-71.95.212-107.925.005-1.987.233-3.976.415-5.959.06-.656.114-1.482.516-1.888.368-.372 1.202-.284 3.207-.648l42.345 76.19c8.122-8.129 11.43-17.718 16.406-26.225 5.036-8.609 9.543-17.526 14.472-26.2 4.754-8.367 8.568-17.373 16.792-27.617.76 7.605 1.54 11.864 1.554 16.127.105 31.979.015 63.959.11 95.938.013 4.505.691 9.007 1.103 14.012 12.5.58 24.166 1.976 36.561-.907zm2683.2 351.988c0 10.654-.144 21.311.04 31.962.18 10.445-.903 21.002 1.145 32.698 12.751-.112 24.4 1.217 37.239-.94.314-5.336.686-9.826.815-14.322.132-4.657.03-9.321.03-13.983v-11.986-13.984-13.984-13.984-11.986c0-4.661-.205-9.335.063-13.98.242-4.209-1.502-8.994 3.499-13.86l77.876 122.56h30.816c2.733-15.135 3.16-183.428.44-207.33-11.944.648-24.128-2.02-37.002 1.658 0 37.555.003 74.13-.025 110.705 0 .63-.342 1.267-.562 1.887-.223.627-.33 1.469-.789 1.787-.442.308-1.264.067-3.702.067l-73.736-116.036c-12.458.023-23.652-1.292-36.148 1.212zm-2373.735-62.122-51.042-80.865c-12.667.484-24.47-2.583-35.69 1.842-2.211 73.55-1.342 187.485 1.647 205.174 11.537 1.224 23.179 1.51 35.827-.196.24-7.453.613-14.016.633-20.579.095-30.642.073-61.285.155-91.927.009-3.34.215-6.823 5.731-6.752 25.937 39.557 50.468 80.611 76.577 120.052 11.285.057 21.115 1.147 32.2-.903.942-23.255.346-45.76.448-68.242.106-23.315.203-46.632-.028-69.945-.222-22.443 1.057-44.936-.867-67.182-21.518-2.623-25.406-2.454-38.332 1.698v19.684c-.005 28.645.034 57.29-.085 85.934-.012 2.906 1.186 6.863-4.398 7.838-6.94-10.934-14.022-22.09-22.776-35.63m2350.806-362.804c-22.654.003-45.31-.1-67.961.112-3.686.034-7.36 1.453-10.574 2.134-.488 2.522-.96 3.828-.961 5.135-.048 63.964-.077 127.928.02 191.892.004 2.43 1.265 4.858 2.114 7.913 30.539 0 60.485.236 90.423-.187 6.51-.092 13.164-2 19.447-4.02 17.141-5.51 28.118-17.23 32.782-34.658 3.158-11.802 3.046-23.8.36-35.582-2.262-9.919-7.183-18.598-15.46-25.009-3.537-2.74-7.028-5.54-11.065-8.728 3.882-4.927 7.447-8.754 10.225-13.087 17.555-27.384 10.698-78.417-35.814-84.865-3.286-.455-6.6-.703-13.536-1.05m-1733.422 26.513c-10.58-18.923-27.905-25.949-48.337-26.377-23.306-.488-46.63-.181-69.945-.055-3.806.021-7.607.894-11.143 1.34-2.426 20.356-2.07 188.423.367 204.483 1.663.438 3.5 1.338 5.34 1.344 27.312.097 54.628.291 81.935-.074 6.54-.088 13.264-1.45 19.547-3.385 40.2-12.386 52.18-66.638 21.167-95.26-3.743-3.454-7.666-6.714-11.7-10.233 20.411-20.687 23.029-43.733 12.77-71.783m311.518 152.102 17.969 28.238c11.438.589 21.923 1.422 33.227-.772.351-4.344.932-8.206.935-12.068.058-60.559.071-121.117-.036-181.675-.007-3.755-1.106-7.507-1.764-11.686-12.7-.322-24.43-2.594-36.896 1.72v20.293c-.002 29.281.035 58.562-.064 87.843-.01 2.936 1.328 6.855-4.375 7.99-12.248-19.354-24.516-39.085-37.139-58.586-12.94-19.992-24.726-40.768-38.598-59.942-12.17 1.041-23.432-2.411-34.987 2.783 0 5.1-.008 9.701 0 14.302.116 61.885.23 123.77.385 185.654.002.578.52 1.173.854 1.727.343.568.755 1.095 2.066 2.968 4.97 0 10.897.218 16.8-.063 5.765-.274 11.85 1.43 16.426-1.23 1.104-1.615 1.79-2.15 1.794-2.69.19-37.262.326-74.523.478-111.785.003-.66.105-1.33.24-1.978.125-.599.203-1.322.584-1.72.427-.446 1.17-.59 1.777-.864.552.07 1.418-.063 1.611.238 19.043 29.614 38.034 59.26 58.713 91.303m489.578-178.57c-25.269.11-50.538.216-75.807.363-.594.003-1.215.41-1.767.726-.574.328-1.078.776-2.229 1.627-.265 2.038-.887 4.596-.889 7.153-.045 63.185-.045 126.37.06 189.555.003 2.411 1.126 4.82 1.863 7.771 29.989 0 59.203.415 88.392-.26 8.424-.195 17.261-2.371 25.064-5.65 17.975-7.553 28.282-21.569 29.953-41.27.505-5.945.298-11.964.193-17.944-.235-13.37-5.392-24.493-15.594-33.208-3.912-3.34-7.852-6.648-11.618-9.834 1.184-2.05 1.683-3.19 2.431-4.133.818-1.032 1.94-1.818 2.803-2.82 13.273-15.423 15.759-33.627 11.622-52.537-4.139-18.922-15.888-31.889-35.241-36.775-5.125-1.293-10.435-1.855-19.236-2.764m547.006 57.33-36.361-57.31c-6.298 0-11.625-.27-16.913.071-5.774.374-11.978-1.81-17.171 2.308-2.315 22.372-1.738 188.471.88 204.495 5.599.125 11.458.441 17.31.333 5.718-.104 11.428-.642 16.435-.946.84-2.115 1.3-2.734 1.303-3.354.166-34.654.291-69.308.432-103.962.01-2.666.07-5.333.17-7.997.023-.648.269-1.293.447-1.93.18-.641.242-1.421.654-1.86.357-.38 1.133-.367 2.938-.858 5.815 4.519 8.541 12.137 12.95 18.37 4.61 6.517 8.628 13.453 12.882 20.22 4.254 6.766 8.463 13.561 12.726 20.322 4.619 7.324 9.279 14.623 13.92 21.933l12.848 20.242 12.414 19.558c11.849-.006 22.271 1.616 33.15-1.387 0-64.426.007-127.697-.022-190.967-.002-3.316-.296-6.634-.509-9.948-.041-.64-.215-1.346-.555-1.875-.346-.538-.974-.894-2.7-2.386-9.842-.478-20.9-1.125-33.202.74-.228 7.034-.605 13.574-.625 20.116-.093 29.332-.055 58.663-.153 87.995-.01 3.201.085 6.844-5.792 7.108-11.789-18.506-23.899-37.515-37.456-59.03m1130.414 286.313c-4.77-9.45-8.487-19.633-14.48-28.23-35.306-50.631-108.164-50.26-142.948 2.6-10.411 15.821-16.653 33.344-18.478 52.12-3.341 34.362 3.006 66.338 26.412 93.089 33.547 38.343 91.6 38.807 125.682 2.868 13.077-13.79 21.513-30.19 26.274-48.537 6.166-23.756 5.256-47.383-2.462-73.91m-531.198 78.193c2.026 5.618 3.612 11.444 6.153 16.818 10.323 21.843 25.942 38.887 48.627 47.75 33.162 12.954 74.29 6.737 101.06-29.83 21.784-29.756 26.007-63.374 19.674-98.764-3.337-18.645-11.43-35.254-23.75-49.817-32.715-38.673-91.77-39.758-125.613-4.459-15.668 16.342-24.516 35.942-29.063 57.932-3.999 19.34-2.22 38.329 2.912 60.37m-1146.178-40.662c-.392-27.524-8.732-52.141-26.597-73.356-32.472-38.558-90.78-38.316-124.145-5.55-37.59 36.913-44.787 109.983-9.327 155.832 38.493 49.77 108.969 43.66 140.614-5.37 13.346-20.678 19.997-43.214 19.455-71.556m1708.716 11.076c.887 20.276 5.565 39.567 15.88 57.153 12.367 21.085 30.176 36.035 54.266 40.849 36.732 7.338 68.19-3.429 93.838-30.867 0-28.56.019-56.536-.062-84.512-.003-1.164-.928-2.326-1.428-3.486-18.548-2.62-57.762-2.495-73.699.364-1 12.184-1.854 24.47.63 36.486 12.631 3.866 25.007-1.217 36.43 3.517v25.882c-26.819 19.601-55.135 16.374-72.338-7.973-17.205-24.353-17.91-63.117.51-88.4 12.326-16.92 28.75-23.299 48.973-18.27 6.284 1.562 12.17 5.142 17.9 8.395 4.424 2.512 8.32 5.956 13.06 9.43 9.364-10.56 16.007-21.887 23.62-33.188-1.945-2.532-3.328-4.76-5.114-6.595-29.784-30.591-96.885-35.067-130.288 12.386-15.965 22.681-22.665 47.842-22.178 78.829m-3048.602-322.855c-1.268-3.77-2.45-7.572-3.816-11.306-12.025-32.859-43.64-58.868-84.583-58.11-10.634.196-21.277-.083-31.913.06-10.5.141-21.059-.683-31.492.672-.784 2.681-1.806 4.548-1.808 6.416-.074 64.49-.065 128.981.021 193.472.003 1.85.971 3.7 1.806 6.682 21.84 0 43.727.165 65.61-.037 36.1-.334 61.712-17.828 78.23-49.172 14.325-27.185 14.628-56.029 7.945-88.677m1038.662 137.393c27.48 9.954 50.632.473 72.162-17.482l20.913 22.196 27.467-23.272-23.982-30.667c6.688-14.979 16.2-28.015 20.699-44.649l-26.55-17.358c-8.892 9.376-9.105 23.095-19.642 31.408l-18.443-22.024c4.452-3.393 8.136-6.128 11.743-8.96 21.812-17.124 28.916-48.992 16.365-73.811-1.488-2.942-3.416-5.72-5.477-8.305-22.581-28.325-68-20.097-82.677 8.743-9.743 19.147-9.101 38.384-1.668 57.969 1.558 4.106 5.628 7.596 3.66 12.635-42.628 35.4-41.45 85.931 5.43 113.577m1451.779-206.778-13.822 2.084c0 13.793.294 26.407-.08 39.001-.392 13.128 1.783 26.434-1.984 40.451-18.902 0-37.469.046-56.035-.053-2.507-.014-5.01-.755-8.655-1.343-.397-5.053-1.02-9.509-1.05-13.97-.12-17.304.048-34.611-.12-51.915-.044-4.447-.923-8.886-1.522-14.256-6.919 0-12.875-.242-18.802.069-5.696.299-11.813-1.585-16.804 1.778-2.1 21.73-1.81 188.974.352 204.688h36.065c.282-5.96.716-11.217.744-16.475.094-17.97-.082-35.943.155-53.911.048-3.7 1.43-7.384 2.385-11.985 11.479 0 22.07-.133 32.656.038 10.388.167 20.887-.874 31.894 1.019 2.231 27.562-.818 54.083 2.034 82.016 12.984-.88 25.217 2.059 38.017-1.933 0-63.412.008-125.924-.019-188.437-.002-3.978-.261-7.958-.446-11.935-.03-.653-.171-1.367-.49-1.92-.312-.543-.916-.917-2.756-2.648-5.093-.102-11.624-.233-21.717-.363m-636.956 323.336c9.988-.001 19.98.156 29.963-.086 3.73-.09 7.437-1.11 11.472-1.758.266-13.571 1.121-26.005-.471-38.216-18.944-2.555-113.07-2.325-128.149.174-.51 1.156-1.404 2.291-1.464 3.47-.238 4.647-.285 9.307-.275 13.963.14 61.247.3 122.495.477 183.742a3.98 3.98 0 0 0 .505 1.894c.32.557.91.96 1.378 1.433 16.347 2.56 110.016 2.592 126.872.043 3.327-17.748 3.056-28.116-1.325-40.911-24.97 0-50.222.074-75.472-.071-4.39-.026-8.773-.982-13.734-1.577 0-7.137-.101-13.092.027-19.043.139-6.452.49-12.901.798-20.565 13.912 0 26.462.212 39.002-.058 13.129-.284 26.382 1.28 40.364-1.374.17-7.377.488-13.936.426-20.492-.06-6.45-.505-12.898-.826-20.387-9.832-.158-18.362-.348-26.894-.416-8.656-.068-17.315.101-25.969-.048-8.482-.146-17.062.754-26.553-.993-.137-6.739-.534-12.598-.3-18.431.256-6.396-1.648-13.153 2.477-20.293zm-813.776 39.86c-11.998-.026-24.003.215-35.99-.152-12.536-.384-25.203 1.61-38.925-1.604 0-6.13-.243-12.056.066-17.954.332-6.37-1.78-13.174 3-20.181h88.352c.22-8.024.575-14.594.532-21.16-.042-6.465-.487-12.926-.805-20.58-5.207 0-9.085-.017-12.962.002-37.303.182-74.605.366-111.908.589-.614.004-1.29.403-1.82.78-.482.342-.805.907-1.199 1.374-2.017 27.258-1.408 188.56.918 204.362 2.913.348 6.088 1.053 9.264 1.06 36.659.074 73.317.09 109.975-.046 3.086-.011 6.168-1.227 9.634-1.965-.016-13.948 2.65-27.05-2-40.603-15.21 0-29.854.287-44.482-.08-15.18-.379-30.486 1.695-45.633-1.346v-38.82c5.396-.403 9.931-1.004 14.47-1.033 17.995-.116 35.993.053 53.987-.141 3.75-.04 7.487-1.177 11.914-1.923 0-12.24.117-23.505-.125-34.762-.037-1.702-1.745-3.37-6.263-5.818m1183.98-81.615c-4.692.288-7.15 2.522-7.137 7.482.057 20.658.056 41.316-.08 61.973-.026 3.72-.796 7.437-1.189 10.871-32.217 2.483-53.219 1.924-67.013-1.841-1.036-25.457.5-51.274-.932-77.605-13.478-1.002-25.826-2.49-37.84 1.005-.404 2.139-.866 3.444-.866 4.75-.05 63.972-.091 127.945.028 191.916.006 3.023 1.48 6.043 2.44 9.712 6.809 0 12.792.287 18.735-.082 5.76-.358 12.03 1.948 17.546-2.98 1.904-26.064-1.077-52.596 1.606-78.669 24.264-2.46 53.13-1.995 66.98 1.033 1.921 26.136-1.104 52.653 1.792 79.71 12.764 1.254 24.37 1.845 35.939-.203.683-3.054 1.472-4.936 1.47-6.818-.05-65.292-.174-130.584-.31-195.875-.002-.646-.174-1.381-.52-1.91-.326-.499-.985-.78-3.37-2.533-6.68 0-15.271 0-27.28.064m-2187.122-120.806c.867 15.087-1.893 30.369 1.706 45.629 12.455 1.401 24.166 1.137 37.27.404.146-5.743.347-10.235.357-14.728.04-18.638-.076-37.278.108-55.915.036-3.671 1.142-7.332 1.889-11.799 22.162.1 43.21-1.078 65.016.872 1.953 27.188-.215 53.678 1.38 81.233 6.801.315 12.599.822 18.394.79 6.425-.036 12.847-.563 19.26-.875.594-3.311 1.23-5.202 1.23-7.092.055-63.239.08-126.478-.042-189.716-.006-3.02-1.392-6.036-2.182-9.245-12.77.129-24.598-2.23-36.55 1.598-1.855 26.499.595 52.387-1.419 77.923-22.55 2.887-52.6 2.361-66.647-1.253-1.458-25.344.926-51.166-1.504-78.074-13.122-.29-25.317-2.454-38.266 2.013zm1542.565 45.177c.55-3.901 1.572-7.802 1.579-11.704.101-60.635.1-121.27.004-181.905-.006-3.812-.988-7.623-1.552-11.69-11.987-.917-23.091-1.19-35.15.157-.352 5.542-.861 10.055-.886 14.57-.097 17.99.05 35.983-.123 53.971-.036 3.722-1.06 7.434-1.699 11.6h-65.473c-.52-5.014-1.35-9.515-1.389-14.022-.157-17.99 0-35.982-.124-53.971-.027-3.803-.755-7.602-1.229-12.058-12.806-1.01-24.43-2.105-35.806.528-2.477 21.797-2.016 189.284.613 205.237 11.447.771 23.066 1.42 35.703-.568.288-5.343.72-9.873.742-14.405.083-17.99-.088-35.982.13-53.97.052-4.336 1.233-8.657 1.964-13.433 20.515 0 39.819-.04 59.122.062 1.899.01 3.794.884 6.464 1.55.353 4.511.987 9.06 1.016 13.613.118 18.656-.037 37.314.129 55.97.034 3.757 1.025 7.506 1.637 11.687 10.972 0 20.93 0 34.328-1.219m-863.87-192.338-1.904-12.609c-31.049-2.339-111.672-1.629-127.85 1.207-.292 2.82-.905 5.983-.908 9.147-.052 61.957-.06 123.914.052 185.87.006 3.088 1.178 6.172 1.752 8.993 28.325 2.372 113.775 1.61 129.121-1.246.625-12.14.628-24.456-.08-38.156-15.751-.747-30.269-.232-44.758-.4-15.163-.175-30.357.405-45.199-.362-3.31-20.137-3.094-29.062 1.046-42.722h25.42c8.66 0 17.331.258 25.979-.073 8.397-.321 17.094 1.794 25.995-2.21 0-6.314.116-12.246-.03-18.171-.16-6.433-.563-12.86-.888-19.892-27.009-1.678-52.808.84-79.747-1.657 0-7.064-.103-12.95.028-18.832.144-6.458.503-12.91.822-20.673 15.81 0 30.359.393 44.877-.11 15.075-.521 30.375 2.281 46.273-2.068zm2823.562 72.291c-2.069-3.281-5.352-3.454-8.733-3.453-15.32.004-30.64.04-45.96-.044-7.865-.043-15.73-.312-23.296-.473-3.476-18.195-3.319-26.912.597-39.775 28.891-1.258 58.04.876 86.76-1.162 3.304-19.573 3.095-27.315-.8-39.817-1.252-.367-2.503-1.052-3.755-1.055-38.63-.085-77.26-.143-115.89-.038-2.44.007-4.876 1.369-8.028 2.314v68.352c0 22.647-.23 45.297.066 67.94.294 22.41-1.348 44.9 1.067 67.242 3.03.598 4.923 1.293 6.817 1.297 38.632.062 77.265.084 115.897-.046 2.396-.008 4.787-1.34 7.477-2.143-.47-13.131 2.136-25.6-1.887-38.615-15.289 0-29.905.348-44.498-.096-15.08-.46-30.345 2.036-46.244-1.802 0-7.238-.12-13.866.035-20.486.152-6.44.588-12.875.949-20.348 9.859-.135 18.402-.298 26.945-.355 8.659-.059 17.32.104 25.977-.046 8.47-.147 17.054.788 26.741-1.123.054-11.463.103-21.975-.237-36.268m-2947.055 370.15c5.063 8.691 10.87 16.65 19.157 22.736 15.981 11.739 33.966 14.281 53.118 12.867 28.95-2.137 48.392-17.168 59.104-43.62 5.795-14.31 8.147-29.442 8.115-44.941-.077-35.998-.002-71.995-.053-107.992-.006-3.894-.44-7.788-.709-12.254-13.057-1.835-25.434-2.281-38.766.457v20.33c0 32.664-.04 65.328.025 97.992.017 8.71-.32 17.252-3.864 25.47-6.296 14.597-17.666 22.582-32.428 22.3-14.137-.27-26.84-9.043-31.368-23.696-2.701-8.741-3.89-18.249-4.013-27.435-.454-33.992-.146-67.993-.223-101.99-.01-4.454-.594-8.906-.97-14.16-13.324-.225-25.646-2.476-38.277 1.9 0 42.06-.503 83.378.262 124.673.281 15.207 2.642 30.563 10.89 47.363m1524.816-355.407c-.028 7.989.389 16.012-.222 23.956-.504 6.558-1.404 13.31-3.563 19.473-5.718 16.327-16.337 23.316-33.212 23.026-16.035-.275-27.435-8.58-31.726-25.051-2.485-9.544-3.655-19.663-3.788-29.545-.452-33.284-.14-66.578-.223-99.868-.01-3.77-.681-7.54-1.105-11.923h-35.243c-.496 3.857-1.262 7.067-1.268 10.278-.083 39.282-.13 78.565.017 117.846.025 6.632.413 13.373 1.658 19.867 3.73 19.453 11.443 36.83 28.028 48.996 38.766 28.438 95.554 11.58 112.498-33.297 5.245-13.892 7.337-28.314 7.398-43.023.153-36.619.118-73.239-.03-109.857-.015-3.667-1.32-7.33-2.099-11.371-12.824.547-24.654-2.3-37.12 2.248zm-1872.418 91.598c15.549 14.702 34.415 19.186 55.216 18.466 30.476-1.056 53.277-17.161 63.82-45.84 4.631-12.597 7.077-25.695 7.204-39.106.374-39.316.584-78.634.697-117.951.007-2.383-1.388-4.77-2.211-7.415-12.552-.094-24.347-2.052-37.172 1.528v18.38c-.001 31.33.302 62.665-.18 93.988-.152 9.865-1.27 20.022-3.963 29.472-4.445 15.6-15.319 23.002-30.88 23.306-16.845.33-27.364-6.979-33.488-22.862-3.437-8.913-3.985-18.13-3.973-27.508.046-34.664.051-69.327-.035-103.99-.01-3.774-.712-7.545-1.165-12.042-12.997-.982-24.677-1.213-35.63-.12-1.246 2.594-2.275 3.74-2.277 4.886-.069 41.316-.736 82.648.251 123.94.53 22.196 5.734 43.67 23.786 62.868m1532.77 15.06c3.604-.563 7.926 1.414 10.871-3.557-.498-2.072-.89-4.692-1.752-7.146-22.462-63.896-44.953-127.782-67.56-191.627-.82-2.316-2.866-4.198-4.428-6.406-11.624.345-22.802-1.358-34.288 1.265l-73.165 207.21c14.224.183 26.557.832 39.658-.444l16.2-44.84c24.332.404 47.461-.878 70.983.973l15.675 44.574c8.376 0 16.285 0 27.807-.002m806.116-119.587c-6.845 19.417-13.86 38.777-20.486 58.269-6.739 19.825-15.595 39.008-20.01 60.655 13.795.591 26.165 2.02 38.25-1.008 6.188-14.748 9.465-29.697 16.41-43.84 12.11 0 23.372-.197 34.624.055 11.825.264 23.76-1.252 36.132 1.264l15.417 44.195c7.297 0 13.866.193 20.419-.055 6.19-.235 12.757 1.37 19.469-2.186l-72.719-205.741c-12.634-1.115-24.353-1.667-36.268.138-10.39 29.05-20.433 57.134-31.238 88.254m572.553-89.252h-27.068c-9.728 19.566-70.584 193.477-72.807 207.922 12.496 1.304 24.867 1.728 37.435-.355l15.623-43.509h70.782c7.489 14.396 8.763 30.894 17.478 44.789 6.397 0 12.366.199 18.315-.055 6.363-.27 13.015 1.434 18.895-1.637.1-1.394.367-2.134.165-2.71a189042.514 189042.514 0 0 0 -69.228-197.252c-1.08-3.073-2.228-6.327-9.59-7.193m-3383.828 186.39 8.713 22.008c13.294.376 25.717 1.417 39.504-1.048-24.615-69.607-48.478-138.396-73.238-206.629h-36.028c-23.7 67.211-47.318 134.145-70.837 201.113-.584 1.661-.074 3.706-.074 6.337 12.958.742 25.376 1.756 37.669-.783l15.39-44.036c21.706 0 42.263-.038 62.82.049 2.565.01 5.127.68 8.293 1.129 2.373 6.36 4.67 12.52 7.788 21.86m3171.49-23.648c.815-4.971-2.07-10.716 3.786-15.405 9.276 0 19.285.503 29.227-.09 38.01-2.267 62.834-27.557 64.469-65.429.287-6.64.299-13.341-.242-19.959-2.98-36.464-27.49-59.587-64.262-60.329-19.969-.402-39.954-.18-59.929.035-3.705.04-7.396 1.396-11.772 2.282 0 63.52-.007 126.083.016 188.646.001 3.99.195 7.982.401 11.968.03.577.616 1.139.98 1.682.368.547.782 1.062 2.024 2.732 5.094 0 11.043.148 16.982-.042 5.74-.184 11.47-.717 18.32-1.171zm-2909.196 313.588c19.454 13.29 41.028 18.44 64.346 16.407 22.358-1.95 39.04-12.834 48.273-33.38 7.641-17.006 6.796-35.049 2.836-52.813-1.914-8.581-6.888-16.085-13.971-21.333-6.867-5.088-14.246-9.765-22.002-13.3-9.627-4.39-19.944-7.242-29.826-11.108-5.518-2.159-11.37-4.222-16.002-7.739-10.453-7.937-8.055-23.986 3.855-29.379 5.638-2.553 11.543-3.798 17.454-1.762 7.494 2.583 14.958 5.416 22.073 8.884 5.22 2.544 9.859 6.283 15.835 10.196 7.797-11.124 14.249-22.339 19.792-34.89-20.493-19.29-43.923-28.109-71.298-25.65-17.425 1.566-32.005 8.917-41.753 23.912-12.85 19.764-13.645 41.294-7.347 63.216 3.87 13.47 13.138 23.18 25.861 28.799 10.9 4.813 22.418 8.206 33.48 12.676 7.335 2.963 15.044 5.758 21.354 10.329 10.911 7.903 9.07 23.574-2.939 29.468-3.47 1.703-7.527 2.622-11.404 3.006-11.681 1.156-22.477-2.068-32.217-8.326-7.161-4.6-13.862-9.916-21.84-15.69-4.086 5.545-8.051 10.65-11.71 15.968-3.645 5.297-6.98 10.806-10.927 16.963 5.887 5.177 10.819 9.515 18.077 15.546m1965.818-27.178c-15.318-4.333-25.06-15.045-30.982-29.004-9.246-21.793-9.29-44.1-.385-66.073 2.208-5.449 5.644-10.648 9.47-15.148 15.478-18.202 39.207-21.3 59.178-7.841 5.93 3.996 11.306 8.817 17.894 14.017 8.706-11.303 17.54-21.704 23.346-33.715-28.19-41.155-105.132-47.094-138.387 8.298-25.774 42.932-26.256 87.599-2.07 131.075 18.29 32.875 47.843 46.835 85.669 42.218 23.842-2.91 42.492-15.276 55.698-37.715-3.513-4.475-6.94-9.373-10.923-13.765-4.255-4.691-6.664-11.618-14.211-13.173-14.231 14.412-29.144 26.474-54.297 20.826m-588.66-18.479.362-18.796c9.77-.202 18.255-.453 26.742-.534 9.33-.088 18.665.121 27.993-.063 8.39-.166 16.938.958 26.427-1.312 0-11.699.101-22.28-.074-32.855-.042-2.543-1.003-5.071-1.724-8.468-23 0-45.627.085-68.253-.085-3.718-.028-7.428-1.177-11.473-1.865 0-7.71-.106-14.366.03-21.017.134-6.46.516-12.916.833-20.438 11.176-.146 21.043-.324 30.91-.388 9.998-.064 20 .142 29.993-.058 9.806-.196 19.725.973 30.622-1.07.108-13.81 1.274-26.69-1.025-40.627h-45.007c-13.997 0-28.006-.362-41.988.101-14.342.475-28.908-2.061-42.906 1.584-2.26 33.793-1.458 189.304 1.2 205.846 11.989.65 24.195 2.228 37.339-1.567v-58.388m1966.327-147.587h-20.048c-14.806 25.743-25.79 52.648-41.328 79.589-16.19-26.595-26.682-53.815-41.07-79.589-7.892 0-15.166-.336-22.394.097-6.924.415-14.342-1.965-21.053 2.381 1.377 3.107 2.314 5.598 3.543 7.936 17.624 33.533 34.982 67.213 53.134 100.458 5.314 9.73 7.83 19.321 7.526 30.3-.498 17.957-.182 35.937-.09 53.907.019 3.802.547 7.601.93 12.56 13.446.345 25.682 2.443 38.532-1.906 0-21.182.564-41.811-.204-62.39-.49-13.135 2.75-24.531 9.04-35.933 16.368-29.67 31.99-59.75 47.895-89.676 2.69-5.062 5.904-9.93 7.257-16.39-6.597-2.135-12.555-1.02-21.67-1.344m-2508.671 42.63c9.771-.604 19.751 1.467 30.335-2.01 0-6.88.101-13.484-.028-20.084-.126-6.413-.489-12.822-.767-19.717-4.64-.33-7.905-.761-11.17-.765-39.902-.046-79.804-.073-119.706.042-3.7.01-7.398 1.025-11.245 1.595v39.332c16.675 3.756 33.4-.302 49.534 2.614 3.258 6.691 1.823 13.444 1.843 19.975.133 43.227.043 86.454.11 129.682.006 4.438.562 8.876.932 14.321 13.572.283 25.8 2.602 38.497-2.049v-40.47-39.901c0-13.966-.257-27.938.075-41.896.314-13.168-1.552-26.461 1.635-40.668zm-645.128 155.176 1.604 9.79c12.833.676 24.514 1.508 37.15-.557.26-7.52.67-14.025.678-20.532.059-43.236-.01-86.473.095-129.71.01-4.428.89-8.854 1.336-12.995 17.161-3.266 33.865 1.407 50.027-2.979v-38.664c-15.443-2.775-124.112-2.99-142.95-.162.59 12.842-1.023 25.908 1.102 39.9 16.712 1.937 33.297-.593 48.98 1.594.897 2.446 1.738 3.672 1.741 4.9.124 48.557.172 97.114.237 149.415m188.842-188.65c.31 10.522-.768 21.116.897 32.21 16.76 3.26 33.468-.74 50.408 2.592.25 7.524.645 14.08.653 20.636.057 43.312-.027 86.624.119 129.935.014 4.343 1.255 8.68 2.11 14.207 12.847-1.934 24.755 1.92 37.107-2.994v-40.261-39.98c0-13.993-.262-27.993.076-41.977.318-13.142-1.586-26.427 1.583-39.955 16.634-2.74 33.344 1.305 49.99-2.62.186-13.922 1.294-26.934-.735-40.146-3.985-.336-6.603-.746-9.221-.749-39.98-.045-79.96-.06-119.94.002-3.277.006-6.679.204-9.768 1.145-1.381.422-2.133 2.907-3.28 7.956m2887.944-221.53c0 41.322-.047 82.644.07 123.966.013 4.421.981 8.84 1.618 14.196 7.03 0 12.989.162 18.935-.047 5.797-.204 11.808 1.057 18.46-1.784.104-6.773.287-13.318.292-19.863.027-42.655-.028-85.31.081-127.965.011-4.414.922-8.826 1.54-14.35 13.65 0 26.227.134 38.798-.083 3.723-.064 7.429-1.12 11.594-1.793 0-7.703.244-14.351-.07-20.974-.303-6.41 1.751-13.198-2.734-20.56-23.019 0-46.237-.203-69.45.058-23.106.26-46.283-1.223-70.195 1.155-1.54 14.151-1.12 27.142-.417 40.792 17.347 3.487 34.078-.75 51.478 2.935zm-565.25 363.082c-.002-24.644.178-49.29-.053-73.931-.234-25.081 1.026-50.21-.925-76.5-9.55-.12-18.122-.344-26.693-.275-3.211.026-6.418.735-10.507 1.242-1.196 23.222-.44 45.741-.57 68.235-.136 23.311-.297 46.628.045 69.935.329 22.399-1.541 44.895 1.204 67.182 3.06.74 4.934 1.59 6.807 1.588 37.285-.049 74.57-.195 111.854-.345.642-.003 1.396-.148 1.895-.508.502-.363.751-1.077 2.017-3.043.437-11.686 1.819-24.778-1.203-38.26-27.595-1.411-54.78.364-83.032-1.074-.326-4.062-.58-7.214-.84-14.246m862.806-432.29c-4.429.53-8.859 1.06-13.16 1.573-.512 3.077-1.113 5.006-1.112 6.934.03 64.605.116 129.211.217 193.817 0 .617.215 1.291.516 1.836.314.569.855 1.013 1.295 1.516 1.182.463 2.364 1.33 3.547 1.332 37.956.057 75.912.033 113.868-.008.607-.001 1.272-.26 1.804-.575.56-.332.994-.878 2.818-2.567 0-5.26.236-11.818-.068-18.35-.294-6.34 1.677-13.067-2.287-19.913h-28.208c-8.659 0-17.325.23-25.975-.064-9.001-.306-18.23 1.343-28.126-1.587 0-27.564.206-54.133-.056-80.697-.268-27.102 1.138-54.255-.902-82.475-7.563-.284-14.074-.529-24.17-.772m-1948.602 281.693c-17.312.138-34.624.265-51.934.47-.486.007-.963.85-2.96 2.732-.573 11.499-.517 24.432.088 38.785 9.05.161 16.878.157 24.694.48 8.434.347 17.101-1.414 26.212 1.887.24 7.104.643 13.632.651 20.16.058 43.295-.025 86.589.119 129.882.014 4.314 1.248 8.624 1.995 13.444 12.445-.142 23.567 1.33 35.758-1.27.202-7.119.54-13.646.547-20.174.049-42.628-.034-85.256.105-127.883.016-5.08-1.782-10.761 4.678-16.45h46.827c.606-14.434.665-27.368-.068-42.018-28.456-.082-55.588-.03-86.712-.045m-1895.23 151.148c.68 18.477-1.44 37.055 1.414 56.89 6.46 0 12.341.12 18.216-.035 5.771-.15 11.535-.58 17.056-.874 2.675-20.85 2.308-190.932-.489-207.03-11.462.112-23.128-.667-36.198.559v150.49m590.228-19.937c0 12.645-.214 25.294.06 37.932.271 12.434-1.234 25.003 1.11 38.061 12.835 1.324 24.431 1.781 35.79-.052 2.785-20.231 2.445-190.956-.396-206.698-11.574-.708-23.306-1.626-34.612.514-.84 2.113-1.716 3.29-1.72 4.47-.128 40.592-.174 81.183-.232 125.773m2406.67-212.835c1.064 2.245 1.974 6.343 3.216 6.446 11.06.92 22.214 1.777 33.017-.359 2.27-23.356 1.792-189.543-.628-205.248-11.429-.897-22.996-2.238-35.64 1.124 0 65.144 0 129.667.034 198.037z" fill="#feffff"/><path d="m2859.212 1872.65c-2.28-1.608-3.405-2.33-4.447-3.16-11.919-9.483-24.569-16.077-40.381-10.328-54.703 3.151-108.061 14.666-161.363 26.318-27.943 6.108-55.65 13.295-83.47 19.97-2.49.597-5.025 1.006-8.476 1.688-1.897-3.883-3.96-7.201-5.21-10.802-14.448-41.645-37.595-78.105-68.25-109.35-49.938-50.898-109.424-86.105-181.002-93.838-102.682-11.093-194.518 14.88-268.017 91.096-30.302 31.424-53.986 67.611-69.424 108.794-1.622 4.33-3.42 8.593-4.838 12.143-5.706 4.239-11.06 2.512-16.149 1.512-50.287-9.883-100.905-17.577-151.81-23.467-40.302-4.662-80.59-9.454-120.867-14.321-6.388-.772-11.624.902-16.635 4.864-16.198 12.806-32.563 25.4-48.892 38.041-10.534 8.156-21.083 16.295-31.707 24.334-2.025 1.532-4.434 2.559-7.973 4.557-2.342-5.522-5.023-10-6.164-14.841-6.868-29.129-14.253-58.176-19.807-87.564-7.923-41.928-10.665-84.417-11.282-127.1-.356-24.618-3.122-49.201-3.494-73.82-.403-26.607.698-53.238 1.195-79.857.075-3.993.593-7.978.64-11.97.397-34 4.239-67.7 7.768-101.484 7.97-76.305 22.879-151.293 41.624-225.52 13.366-52.928 29.022-105.25 48.405-156.367 1.18-3.114 2.385-6.22 3.516-9.352 1.772-4.906 5.326-7.221 10.415-8.017 56.039-8.762 110.33-24.855 164.654-40.455 120.909-34.72 241.546-70.384 362.253-105.806 25.55-7.498 51.047-15.229 76.318-23.606 10.677-3.54 20.384-3.337 31.108-.047 75.092 23.04 150.195 46.067 225.559 68.197 107.916 31.69 215.684 63.952 324.886 91.052 19.335 4.799 38.947 8.482 59.907 12.999 1.44 3.016 3.728 6.997 5.307 11.241 28.605 76.88 50.63 155.616 67.495 235.887 9.174 43.661 16.96 87.55 22.34 131.781 4.659 38.294 9.189 76.667 9.605 115.378.221 20.621 2.522 41.24 2.301 61.843-.307 28.618-2.08 57.221-3.266 85.83-1.186 28.603-2.05 57.227-3.74 85.801-1.81 30.608-7.16 60.79-13.324 90.768-4.017 19.534-9.283 38.814-14.176 58.162-.943 3.732-2.75 7.246-4.709 12.274-4.27-2.114-7.816-3.4-10.851-5.444-28.176-18.985-56.265-38.1-85.572-58.014m-629.942-252.16c.831 5.253 1.767 10.492 2.471 15.763 1.32 9.885 2.289 19.822 3.871 29.662.5 3.105 1.826 6.65 3.985 8.75 2.108 2.049 6.047 3.843 8.655 3.285 2.554-.546 5.008-3.897 6.448-6.584 1.161-2.167 1.021-5.183.985-7.815-.186-13.328-.184-26.671-.88-39.976-1.95-37.216-4.33-74.41-6.31-111.625-1.451-27.255-2.526-54.53-3.792-81.795-1.359-29.264-2.935-58.519-4.075-87.79-1.918-49.251-3.446-98.517-5.399-147.766-.632-15.953-1.752-31.904-3.266-47.797-1.032-10.832-5.644-14.315-19.777-15.906-1.182 4.809-2.943 9.75-3.502 14.823-.652 5.932-.663 12.01-.229 17.972.823 11.31-2.638 20.947-9.918 29.459-2.594 3.034-4.608 6.594-7.364 9.454-6.51 6.753-8.663 14.742-7.758 23.835 1.844 18.54 3.343 37.12 5.549 55.617 4.726 39.623 9.984 79.184 14.7 118.809 4.558 38.313 8.673 76.678 13.055 115.012 1.587 13.877 3.427 27.726 5.076 41.596 2.357 19.815 4.645 39.64 7.475 63.016m562.64-232.028c-12.609 7.283-19.1 20.202-28.206 30.701-26.617 30.691-53.209 61.406-79.66 92.24-35.99 41.951-71.867 84-107.743 126.048-30.69 35.97-61.316 71.994-91.943 108.019-2.148 2.526-4.327 5.095-6.011 7.93-1.816 3.055-2.233 6.929 1.103 8.843 2.54 1.458 6.857 2.442 9.103 1.24 4.568-2.442 8.57-6.206 12.288-9.94 118.479-119.007 236.9-238.072 355.303-357.154 3.752-3.773 7.635-7.52 10.768-11.784 7.245-9.865 4.916-16.947-6.258-21.97-5.498-2.47-10.574-1.814-15.197 1.191-6.677 4.34-13.097 9.113-19.367 14.03-5.427 4.257-10.82 6.927-18.229 6.065-4.231-.493-8.804 1.951-15.95 4.541m-447.346-101.263c2.301-19.122 4.592-38.245 6.907-57.365.929-7.672-.217-14.35-6.951-19.521-11.056-8.49-14.796-20.045-12.799-33.657.29-1.972.523-3.975.516-5.962-.032-9.093-7.227-14.583-16.028-12.31-10.542 2.723-15.176 8.263-15.733 20.006a7033.828 7033.828 0 0 0 -3.418 81.706c-1.594 44.533-2.963 89.075-4.505 133.61-1.081 31.234-2.42 62.46-3.417 93.696-1.806 56.513-3.448 113.03-5.14 169.547-.099 3.325-.201 6.666.002 9.98.418 6.832 4.973 11.416 11.114 11.45 4.197.024 7.983-3.328 9.043-9.02 1.458-7.828 2.64-15.732 3.444-23.654 1.878-18.511 3.225-37.078 5.214-55.577 3.338-31.039 7.202-62.021 10.482-93.066 3.28-31.053 6.086-62.157 9.16-93.233 1.44-14.547 3.011-29.08 4.538-43.618 2.43-23.12 4.871-46.238 7.571-73.012m-624.572 194.81c-24.09-23.982-48.118-48.026-72.33-71.883-4.222-4.16-8.97-7.915-13.93-11.16-4.494-2.939-9.12-1.515-12.245 2.73-6.076 8.251-6.828 15.72-1.352 24.016 4.017 6.086 8.8 11.708 13.6 17.225 4.083 4.691 7.071 9.403 6.43 16.068-.964 10.038 3.962 18.125 10.302 25.124 5.345 5.9 11.451 11.152 17.499 16.367 15.635 13.484 31.469 26.736 47.141 40.177 31.857 27.32 63.638 54.729 95.49 82.054 33.366 28.624 66.803 57.165 100.165 85.794 29.826 25.593 59.578 51.272 89.412 76.857 2.506 2.149 5.153 4.719 8.157 5.531 2.81.76 6.675.29 9.188-1.168 3.326-1.93 2.984-6.136 1.015-8.87-4.25-5.902-8.703-11.787-13.86-16.884-28.904-28.576-58.212-56.746-87.068-85.37-65.3-64.774-130.417-129.732-197.614-196.609m16.334-76.594c14.998 16.963 30.13 33.81 44.97 50.91 38.838 44.756 77.515 89.652 116.32 134.436 34.011 39.25 68.046 78.48 102.202 117.603 13.133 15.043 26.588 29.805 40.03 44.572 1.223 1.342 3.432 1.786 6.092 3.095l14.254-7.776c-5.39-7.528-9.823-14.01-14.548-20.275-43.7-57.94-87.411-115.871-131.2-173.744-36.56-48.317-73.168-96.598-109.892-144.791-9.154-12.013-9.422-11.806-24.76-5.47-1.12.464-2.6.061-5.547.061-6.89-6.451-14.381-13.968-22.435-20.825-4.983-4.243-10.506-8.146-16.386-10.944-4.049-1.926-9.47-2.1-12.952 1.972-3.452 4.036-2.576 9.024-.011 13.055 3.557 5.592 7.916 10.673 13.863 18.121m786.917 372.763c-10.571 12.122-10.571 12.122-.92 25.315 2.714-1.591 5.691-2.964 8.246-4.897 14.32-10.838 28.47-21.9 42.802-32.724 88.641-66.94 177.35-133.79 265.933-200.807 10.05-7.603 19.521-15.981 29.105-24.181 1.364-1.167 1.842-3.367 2.823-5.271l-7.66-14.079c4.687-5.626 8.782-10.807 13.17-15.726 3.984-4.467 8.483-8.48 12.386-13.01 3.01-3.496 5.8-7.288 8.046-11.307 2.657-4.753 4.115-9.982.282-14.935-2.645-3.416-8.561-3.498-14.731-.036-3.45 1.935-6.738 4.295-9.728 6.891a132344.255 132344.255 0 0 0 -155.062 134.914c-24.575 21.414-49.033 42.96-73.61 64.373-39.618 34.52-79.29 68.977-121.082 105.48m-391.41-132.061c-35.032-95.53-70.048-191.068-105.119-286.585-5.272-14.36-10.52-28.743-16.382-42.864-1.958-4.716-5.245-9.22-8.92-12.8-4.852-4.726-12.488-1.524-13.437 5.199-1.046 7.412-.056 14.552 3.14 21.413 1.96 4.207 3.92 8.485 5.177 12.93 1.914 6.766-1.52 12.231-8.325 13.138-4.427.59-8.997.112-12.836.112-6.046 9.511-1.543 16.684 1.69 23.754 16.604 36.3 33.384 72.52 50.088 108.775 26.17 56.8 52.335 113.603 78.487 170.412 4.728 10.272 9.23 20.651 14.16 30.824 1.702 3.512 3.75 7.521 6.807 9.52 2.943 1.924 7.566 2.539 11.134 1.914 4.058-.71 6.924-4.49 6.71-8.841-.322-6.558-.743-13.281-2.485-19.556-2.303-8.3-5.923-16.234-9.888-27.345m485.49 233.1c97.36-35.803 194.722-71.598 292.077-107.417 13.729-5.052 27.454-10.118 41.1-15.385 4.315-1.665 8.565-3.688 12.485-6.126 4.179-2.6 5.897-8.227 4.172-12.25-1.767-4.126-5.388-6.246-9.577-5.766-5.865.672-11.774 1.82-17.38 3.64-6.2 2.011-12.08 5.01-17.667 7.394-7.46-3.882-11.072-8.681-10.35-16.46.277-2.972-.706-6.061-1.002-8.26-8.486-4.044-14.374-.135-20.292 2.581-53.203 24.418-106.331 49-159.537 73.412-40.508 18.586-81.122 36.937-121.632 55.516-12.09 5.545-24.13 11.239-35.919 17.39-5.918 3.089-7.55 10.643-4.85 17.5 1.831 4.654 7.177 7.3 13.367 6.195 3.248-.58 6.42-1.702 9.55-2.796 7.532-2.63 15.02-5.39 25.454-9.167m-974.449-132.02c32.638 14.987 65.33 29.858 97.901 44.99 45.845 21.298 91.595 42.8 137.395 64.194 16.873 7.88 33.746 15.763 50.682 23.508 4.825 2.207 9.768 4.28 14.844 5.786 5.912 1.754 11.916-1.27 15.025-6.844 2.405-4.313.372-9.472-5.442-13.346-2.207-1.47-4.62-2.636-6.954-3.913-60.102-32.892-120.215-65.766-180.308-98.675-28.003-15.335-55.883-30.802-82.23-49.013-14.16-9.788-29.741-17.54-44.805-25.99-4.692-2.632-9.694-4.293-15.11-1.122-6.143 3.597-11.495.847-16.63-2.678-7.13-4.895-14.115-10.03-21.48-14.543-5.066-3.104-10.497-5.821-16.086-7.81-5.539-1.97-12.27 1.107-15.43 6.41-3.081 5.167.39 8.915 3.595 12.264 24.47 25.566 50.075 49.73 85.033 66.782m868.609-245.589c15.106-25.088 30.367-50.085 45.257-75.301 8.114-13.74 15.633-27.833 23.351-41.806 2.986-5.405 4.821-10.859 1.462-17.007-2.497-4.57-1.052-9.019 1.777-13.104 5.686-8.213 11.635-16.265 16.893-24.743 3.115-5.022 5.793-10.539 7.41-16.193 1.352-4.72-.88-9.817-5.317-11.875-3.166-1.469-7.973-1.601-11.172-.252-4.098 1.728-7.569 5.284-10.87 8.503-16.752 16.333-32.193 33.942-43.95 54.144-10.347 17.78-19.201 36.477-27.964 55.122-31.437 66.88-62.55 133.91-93.797 200.879-8.726 18.702-17.543 37.362-26.193 56.1-1.657 3.59-3.237 7.36-3.943 11.214-1.13 6.174 3.263 13.014 9.537 16.056 3.88 1.882 7.384-.523 11.749-8.064.334-.576.68-1.146.999-1.73 34.445-63.12 68.89-126.242 104.77-191.943m-159.032 72.792c-6.252 27.914-12.554 55.816-18.725 83.747-1.928 8.727.544 15.239 6.011 16.933 5.132 1.59 11.682-2.747 15.344-10.245.58-1.186.814-2.536 1.286-3.78 2.362-6.226 4.85-12.407 7.114-18.669a584210.622 584210.622 0 0 0 87.557-242.326c3.4-9.415 7.02-18.836 4.452-29.147-1.137-4.566-2.543-9.052-9.22-10.69-3.383 1.05-7.721 2.626-12.176 3.73-7.38 1.83-11.553-2.45-9.506-10.105 1.543-5.765 3.997-11.283 5.975-16.935 4.043-11.549 1.73-21.875-5.717-32.6-9.873 4.818-14.967 11.566-17.068 21.357-6.42 29.918-13.143 59.772-19.808 89.637-11.592 51.94-23.23 103.87-35.52 159.093m-212.252-36.45c4.018 14.061 7.998 28.134 12.06 42.183 7.57 26.183 15.077 52.387 22.887 78.5 1.491 4.986 3.612 10.048 6.594 14.26 3.667 5.18 11.896 3.577 14.924-2.171 2.29-4.348 2.415-8.66 1.487-13.483-7.03-36.533-13.874-73.101-20.685-109.675-7.42-39.844-14.494-79.753-22.208-119.54-4.295-22.154-6.703-44.895-15.278-65.939-8.774-21.529-18.953-42.487-28.616-63.65-.805-1.762-2.043-3.916-3.634-4.6-2.858-1.23-6.528-2.663-9.127-1.803-2.515.833-5.736 4.406-5.8 6.85-.189 7.216 1.134 14.462 1.67 21.71.536 7.243.835 14.503 1.237 21.756-11.457 16.06-3.04 31.148 1.63 46.848 14.398 48.425 28.106 97.055 42.86 148.753m-463.65 69.917c3.524 3.977 6.912 8.086 10.608 11.897 4.7 4.847 8.676 9.91 10.196 16.791 2.911 13.181 11.614 21.647 22.601 29.078 76.664 51.853 153.063 104.097 229.569 156.184 5.497 3.743 11.007 7.521 16.804 10.758 6.538 3.65 12.607 1.355 16.558-5.628 2.212-3.91 1.254-7.176-4.435-11.664-23.004-18.141-46.102-36.165-69.22-54.163-46.23-35.993-92.495-71.94-138.745-107.907-24.703-19.21-49.41-38.414-74.102-57.64-3.872-3.014-8.097-4.94-12.948-3.091-5.57 2.122-8.322 6.35-6.887 15.385m935.164-86.143c22.263-29.708 46.312-58.082 67.466-87.945-10.11-16.684-11.702-17.053-23.936-6.469-3.02 2.613-5.71 5.68-8.981 7.91-4.347 2.964-8.862 6.827-13.748 7.639-14.05 2.335-21.702 11.872-28.897 22.544-31.607 46.888-63.206 93.78-94.94 140.582-22.03 32.489-44.321 64.802-66.366 97.28-2.566 3.78-4.834 7.942-6.28 12.249-1.406 4.185 1.558 9.422 5.751 11.696 4.069 2.205 7.773 1.052 10.826-2.041 2.798-2.835 5.487-5.814 7.93-8.957 49.807-64.082 99.571-128.196 151.175-194.488m37.815 269.72c26.103-14.67 52.25-29.258 78.295-44.028 23.728-13.457 47.326-27.142 71.026-40.648 4.693-2.674 9.045-5.453 11.316-10.735 5.349-12.44 14.176-22.403 23.22-32.223 4.475-4.858 9.26-9.7 9.058-16.98-2.662-4.944-6.691-6.337-11.823-5.14-13.11 3.055-25.192 8.415-36.3 16.03-71.89 49.286-143.8 98.542-215.685 147.834a990.162 990.162 0 0 0 -21.195 14.973c-2.676 1.94-5.474 3.92-7.544 6.435-2.757 3.35-2.947 7.487-.465 11.117 2.462 3.6 6.117 5.146 10.39 3.326 4.278-1.821 8.538-3.76 12.576-6.054 24.877-14.128 49.688-28.37 77.131-43.908m-610.317-184.681c-13.062-23.152-26.069-46.335-39.203-69.446-12.476-21.953-24.943-43.916-37.758-65.67-2.59-4.399-5.985-9.444-10.291-11.489-10.486-4.979-18.678-12.568-27.215-19.963-4.507-3.904-9.359-7.47-14.355-10.73-3.48-2.271-8.057-3.111-11.044.07-1.898 2.022-2.904 6.194-2.332 8.998 2.818 13.812 8.764 26.227 16.832 37.938 52.783 76.618 105.266 153.443 157.897 230.167 2.996 4.366 6.156 8.684 9.74 12.561 2.825 3.055 6.605 4.576 10.666 1.788 3.668-2.518 5.324-6.33 4.008-10.392-1.623-5.007-3.924-9.873-6.511-14.475-16.286-28.961-32.732-57.832-50.434-89.357z" fill="#f0cd55"/><path d="m2740 2480.19c-145.904.913-289.809 1.825-432.42 2.73-2.13 2.042-3.614 2.78-3.884 3.83-3.863 15.015-14.213 22.217-28.952 23.057-9.883.563-19.918.318-29.76-.73-11.44-1.217-19.884-7.186-23.39-18.83-.566-1.885-1.563-3.64-2.698-6.223-4.286-.332-8.822-.97-13.363-.996-223.922-1.248-447.845-2.45-671.768-3.641-33.322-.177-66.646-.237-99.968-.438-6.607-.04-13.212-.478-20.016-.74-2.474-8.532 1.834-15.043 3.996-21.705 38.425-118.431 77.039-236.801 115.598-355.19 9.073-27.854 18.239-55.681 27.064-83.615 3.098-9.803 7.843-17.635 16.505-23.957 32.83-23.963 65.255-48.486 97.58-73.128 7.354-5.605 14.836-7.602 24.03-7.083 190.56 10.737 371.503 59.462 545.074 137.485 6.058 2.723 12.183 5.294 17.876 7.762 29.374-12.477 57.973-25.204 87.005-36.852 99.184-39.794 201.363-69.503 306.51-88.59 49.816-9.042 100-15.818 150.68-18.022.666-.029 1.36.046 1.993-.116 22-5.637 39.341 1.98 56.476 16.142 26.679 22.052 54.985 42.162 82.98 62.578 7.996 5.832 12.823 12.87 15.82 22.109 48.682 150.105 97.524 300.159 146.305 450.232.985 3.027 1.67 6.152 2.798 10.369-7.836 3.178-15.136 2.253-22.175 2.297-46.651.292-93.303.444-139.955.603-69.314.238-138.628.443-209.941.662m-684.01-486.404c-94.987-29.24-191.25-52.327-290.668-60.127-21.792-1.71-43.596-2.844-64.87-.324-5.107 11.701-117.497 408.161-120.537 425.157-.311 1.742.55 3.693 1.103 6.925 6.123-1.884 11.707-3.373 17.132-5.308 42.93-15.312 87.338-23.963 132.622-27.167 52.575-3.72 105.209-2.442 157.557 4.103 61.505 7.69 122.055 20.298 181.723 37.11 55.784 15.716 110.524 34.434 164.076 56.641 5.815 2.412 11.45 6.845 19.585 5.05.417-3.518 1.1-6.653 1.115-9.792.535-119.12 1.23-238.242 1.336-358.14-65.07-28.05-130.527-52.116-200.175-74.128m544.162 348.406c50.113-8.121 100.534-11.576 151.31-10.946 61.791.766 122.062 9.742 180.26 31.102 3.478 1.277 7.241 1.779 10.75 2.613.828-2.421 1.838-3.784 1.56-4.788a388611.059 388611.059 0 0 0 -116.624-419.505c-.685-2.46-2.267-4.67-3.62-7.376-19.512-2.377-38.794-1.652-57.958-.27-61.247 4.42-121.635 14.593-181.354 28.735-103.948 24.617-204.532 59.471-303.192 100.117-4.238 1.746-8.233 4.08-12.994 6.469-.199 6.851-.57 13.42-.55 19.99.24 79.32.52 158.642.832 237.964.132 33.328.281 66.656.666 99.982.04 3.528 1.726 7.037 2.832 11.254 6.335-2.34 11.372-3.993 16.248-6.034 49.816-20.853 100.698-38.684 152.592-53.6 51.239-14.727 102.96-27.376 159.242-35.707m-310.335 136.164c-2.635-12.432-12.13-16.58-23.028-18.145-11.45-1.645-22.427-.132-30.975 8.886-5.969 6.3-5.804 15.196.637 21.086 8.29 7.581 18.39 10.388 29.273 8.523 10.62-1.82 20.59-5.381 24.093-20.35z" fill="#2084c4"/><path d="m1904.557 3018.732c5.185 76.8 10.219 151.736 15.233 226.388-13.84 3.933-63.34 4.768-89.063 1.71-.638-4.209-1.68-8.66-1.94-13.157-3.147-54.491-6.025-109-9.286-163.484-3.26-54.476-7.43-108.903-10.179-163.403-2.817-55.848-4.402-111.757-6.51-167.64-.851-22.566-1.659-45.134-2.486-67.7-1.046.052-1.627-.037-2.116.136-.566.2-1.382.526-1.524.977-61.02 192.405-138.032 378.922-209.011 567.659-.232.616-.648 1.163-.977 1.742-13.576 2.98-44.52 3.545-69.802 1.202-1.53-3.262-3.517-6.709-4.821-10.398-46.145-130.518-92.864-260.84-137.992-391.71-17.34-50.286-31.034-101.83-46.39-152.8-1.53-5.08-3.024-10.17-4.65-15.217-.134-.414-1.165-.54-3.19-1.398-5.923 191.858-19.746 382.727-32.457 574.423-14.657 4.69-29.291 1.647-43.63 2.183-13.851.518-27.742-.011-42.565-.086-1.838-8.29-.774-15.452-.222-22.561 1.956-25.215 4.104-50.415 5.932-75.639 3.223-44.486 6.147-88.995 9.411-133.479 4.726-64.395 9.651-128.774 14.474-193.162 1.591-21.244 3.164-42.49 4.682-63.739 4.175-58.43 8.306-116.861 12.507-175.289.188-2.613.904-5.189 1.35-7.647 15.057-2.576 96.617-2.925 116.434-.48 1.498 3.257 3.394 6.742 4.75 10.425 40.472 109.934 81.25 219.757 121.18 329.887 23.138 63.818 43.961 128.429 61.105 194.167 1 3.835 2.498 7.54 4.525 13.567 2.397-4.632 4.515-7.429 5.373-10.57 27.223-99.698 63.621-196.219 100.91-292.443 29.58-76.336 58.856-152.79 88.31-229.176 2.122-5.503 4.6-10.87 6.695-15.787 21.258-2.634 101.849-2.179 116.8.64 1.136 12.35 2.578 24.864 3.387 37.42 2.011 31.226 3.55 62.482 5.617 93.704 3.297 49.807 6.89 99.596 10.313 149.396 1.416 20.586 2.82 41.175 4.053 61.774 1.95 32.562 3.753 65.133 5.77 99.565zm154.071-274.733v-158.693c3.728-1.57 7.15-3.954 10.806-4.398 27.084-3.287 54.183-6.507 81.337-9.126 31.852-3.073 63.84-3.334 95.798-2.58 30.654.721 61.121 3.648 91.048 10.802 32.878 7.859 62.749 21.861 88.971 43.393 30.431 24.987 46.781 57.177 50.414 96.303 4.185 45.085-8.568 84.296-39.72 117.193-15.721 16.602-34.298 29.469-54.983 39.256-5.954 2.817-11.875 5.701-20.096 9.653 6.544 2.722 10.948 4.818 15.526 6.412 22.174 7.72 42.893 18.164 61.516 32.555 44.855 34.66 66.998 80.626 64.739 137.005-2.96 73.854-38.845 127.105-105.355 159.349-30.24 14.66-62.613 22.369-95.733 26.949-56.271 7.781-112.776 8.597-169.381 4.795-21.25-1.427-42.476-3.212-63.704-4.946-3.2-.262-6.35-1.135-9.089-1.645-.777-2.065-1.65-3.302-1.65-4.54-.19-165.245-.316-330.491-.444-497.737m92.229 230.055c0 62.538-.058 125.075.088 187.612.014 6.422-1.884 13.275 3.003 20.112 3.945.584 8.456 1.795 12.977 1.835 31.234.272 62.517 1.413 93.69.076 28.041-1.203 55.114-8.31 80.494-20.977 38.845-19.387 61.33-50.538 65.12-93.722 4.398-50.102-13.604-89.854-58.187-115.69-6.301-3.651-12.999-6.696-19.72-9.53-21.628-9.114-44.332-13.769-67.62-16.065-32.497-3.205-65.079-2.528-97.648-2.404-3.693.013-7.382 1.283-12.198 2.18v46.573m-.009-272.028c.207 50.574.413 101.148.651 151.721.003.624.358 1.297.699 1.855.324.53.846.94 1.701 1.852 1.383.338 3.265 1.194 5.15 1.201 28.627.114 57.282.913 85.874-.087 26.707-.934 52.917-5.724 77.13-18.015 41.781-21.207 64.785-53.78 62.338-102.179-1.793-35.48-17.628-62.009-48.514-79.564-18.216-10.355-38.066-15.756-58.595-18.601-37.135-5.147-74.324-3.648-111.459.286-4.506.478-8.89 2.112-13.774 3.32-2.472 18.429-.611 36.37-1.2 58.21z" fill="#2d4476"/><path d="m3041.7 1981.536c17.168-66.09 29.385-131.49 37.106-197.651 6.018-51.572 10.309-103.328 9.535-155.358-.137-9.237.066-18.479.12-29.287 6.656.703 11.818.768 16.758 1.846 42.896 9.36 85.62 19.554 128.657 28.206 44.388 8.923 89.087 16.186 134.627 15.884 3.174-.02 6.355.879 9.263 1.31 7.16 53.054-26.668 207.488-65.87 300.85-52.91 126.006-130.535 234.329-231.587 324.869-5.837-.294-6.538-3.899-7.479-6.805-18.86-58.244-37.505-116.559-56.548-174.743-2.659-8.122-1.835-15.404.489-23.242 8.315-28.055 16.28-56.213 24.929-85.88zm-1538.597 63.294c5.492 12.524 4.097 23.003.097 34.27-19.385 54.594-38.095 109.428-57.102 164.157-2.136 6.15-4.644 12.17-7.048 18.43-46.399-27.997-145.631-156.783-193.206-247.993-66.853-128.17-98.012-278.686-96.972-366.525 2.849-.643 5.924-1.965 8.986-1.935 44.908.43 89.004-6.767 132.793-15.314 43.11-8.414 85.83-18.816 128.741-28.259 5.691-1.252 11.382-4.021 18.859-.426.47 24.536.519 49.723 1.555 74.869 1.014 24.61 2.482 49.231 4.764 73.753 2.345 25.193 5.414 50.346 9.091 75.38 3.58 24.366 7.866 48.652 12.698 72.802 4.962 24.794 10.492 49.498 16.64 74.024 5.985 23.88 13.068 47.485 20.104 72.768z" fill="#1a66a3"/><path d="m3102.888 3211.754v34.54c-10.726 3.64-20.7 1.714-30.398 2.015-10.656.33-21.335.287-31.994.013-9.806-.252-19.777 1.35-30.724-1.61-.229-7.629-.63-14.818-.633-22.008-.036-141.323-.027-282.645-.027-423.968 0-43.33.064-86.66-.07-129.99-.02-6.507 1.475-13.307-2.923-20.868-69.093-1.15-138.887.1-208.419-.691-3.851-13.313-4.552-38.968-2.05-73.16 4.798-.465 9.854-1.373 14.912-1.382 53.996-.104 107.992-.065 161.988-.065h341.577c4.057 13.125 4.752 35.696 2.45 71.865-4.208 4.725-9.902 2.875-14.965 2.887-57.995.138-115.99.088-173.986.088h-21.02c-5.477 7.026-3.62 13.941-3.636 20.413-.14 57.995-.081 115.991-.082 173.987z" fill="#2e4577"/><path d="m2625.12 2644.011c.543-23.777-1.147-45.627 1.028-67.14 15.317-2.788 60.397-3.392 89.5-1.265.548 3.46 1.38 7.172 1.662 10.925.297 3.974.07 7.987.07 11.983v646.798c-14.164 3.728-68.207 4.4-89.81 1.44-.398-.534-.841-1.042-1.179-1.612-.327-.55-.778-1.167-.779-1.754-.186-199.126-.339-398.252-.492-599.375z" fill="#2e4476"/><path d="m3242.67 1525.643c.338 21.636 2.865 41.482-.462 61.09-35.318 1.495-133.458-19.564-156.961-33.99-.076-48.995-4.4-98.654-10.762-148.1-6.335-49.244-15.558-98.038-27.837-148.79 28.42 5.614 52.483 15.004 77.492 20.653 24.615 5.56 49.099 11.698 74.984 17.905 2.35 6.14 5.223 12.797 7.47 19.661 16.41 50.128 27.418 101.428 32.339 153.951 1.736 18.534 2.372 37.171 3.737 57.62zm-1781.338-179.783c-3.905 27.38-7.863 53.027-10.822 78.788-2.806 24.437-4.768 48.978-6.72 73.503-1.472 18.508-2.34 37.063-3.474 55.549-7.094 6.604-15.805 8.038-23.957 10.405-32.007 9.293-64.826 14.69-97.69 19.8-10.461 1.627-20.97 2.949-32.533 4.56-.951-4.68-2.435-8.363-2.322-11.997.79-25.255 1.59-50.519 3.024-75.743 1.208-21.238 2.607-42.506 5.106-63.62 5.495-46.443 17.663-91.363 32.766-135.525.845-2.47 2.394-4.698 3.219-6.28l150.389-38.862c.506 15.81-5.832 29.933-8.144 44.669-2.266 14.443-5.595 28.718-8.842 44.752z" fill="#f8b619"/><path d="m296.409 3480.002v130.831c-12.395 2.883-24.06 1.488-36.561.907-.412-5.005-1.09-9.507-1.104-14.012-.094-31.98-.004-63.96-.11-95.938-.013-4.263-.793-8.522-1.553-16.127-8.224 10.244-12.038 19.25-16.792 27.617-4.929 8.674-9.436 17.591-14.472 26.2-4.975 8.507-8.284 18.096-16.406 26.224l-42.345-76.19c-2.005.365-2.839.277-3.207.65-.402.405-.456 1.23-.516 1.887-.182 1.983-.41 3.972-.415 5.959-.086 35.974-.141 71.95-.212 107.924-.002.663-.014 1.358-.208 1.981-.19.61-.617 1.145-1.4 2.52-4.576 3.921-10.818 1.516-16.528 1.902-5.912.4-11.872.089-16.943.089-1.275-1.572-1.73-2.065-2.103-2.614-.36-.529-.86-1.1-.904-1.681-.2-2.654-.356-5.318-.357-7.978-.018-63.935-.014-127.87-.014-192.784 4.29-.835 7.97-2.055 11.687-2.175 9.289-.3 18.594-.098 28.938-.098 16.742 26.407 28.307 55.534 44.563 82.667 6.131-2.743 7.519-8.873 10.115-13.766 10.601-19.981 20.848-40.15 31.253-60.235 1.207-2.328 2.59-4.565 4.34-7.63 12.908-2.314 25.93-.461 40.152-.901 2.243 25.206.556 49.025 1.102 74.771z" fill="#0d0f10"/><path d="m2979.608 3827.992v-139.84c12.496-2.504 23.69-1.19 36.148-1.212l73.736 116.036c2.438 0 3.26.24 3.702-.067.458-.318.566-1.16.789-1.787.22-.62.562-1.257.562-1.887.028-36.575.025-73.15.025-110.705 12.874-3.678 25.058-1.01 37.003-1.659 2.72 23.903 2.292 192.196-.441 207.331h-30.816l-77.876-122.56c-5 4.866-3.257 9.651-3.5 13.86-.267 4.645-.062 9.319-.063 13.98v65.924c0 4.662.103 9.326-.03 13.983-.128 4.496-.5 8.986-.814 14.323-12.839 2.156-24.488.827-37.24.939-2.047-11.696-.964-22.253-1.144-32.698-.184-10.651-.04-21.308-.04-33.96z" fill="#0c0e0f"/><path d="m606.71 3769.062c7.918 12.348 15 23.504 21.94 34.438 5.584-.975 4.386-4.932 4.398-7.838.12-28.644.08-57.29.085-85.934v-19.684c12.926-4.152 16.814-4.32 38.332-1.698 1.924 22.246.645 44.74.867 67.182.23 23.313.134 46.63.028 69.945-.102 22.481.494 44.987-.448 68.242-11.085 2.05-20.915.96-32.2.903-26.11-39.44-50.64-80.495-76.577-120.052-5.516-.071-5.722 3.412-5.731 6.752-.082 30.642-.06 61.285-.155 91.927-.02 6.563-.394 13.126-.633 20.579-12.648 1.706-24.29 1.42-35.827.196-2.989-17.689-3.858-131.624-1.647-205.174 11.22-4.425 23.023-1.358 35.69-1.842 17.005 26.94 34.023 53.903 51.878 82.058z" fill="#0b0d0e"/><path d="m2958.498 3405.067c5.118.346 8.432.594 11.718 1.049 46.512 6.448 53.37 57.481 35.814 84.865-2.778 4.333-6.343 8.16-10.225 13.087 4.037 3.188 7.528 5.988 11.066 8.728 8.276 6.411 13.197 15.09 15.459 25.01 2.686 11.782 2.798 23.78-.36 35.581-4.664 17.428-15.64 29.148-32.782 34.659-6.283 2.02-12.936 3.927-19.447 4.019-29.938.423-59.884.187-90.423.187-.85-3.055-2.11-5.483-2.114-7.913-.097-63.964-.068-127.928-.02-191.892 0-1.307.473-2.613.96-5.135 3.215-.68 6.889-2.1 10.575-2.134 22.652-.211 45.307-.11 69.779-.11m-42.808 152.367 1.482 14.137c15.807 0 30.396.377 44.947-.205 5.1-.204 10.377-2.208 15.054-4.464 2.7-1.303 5.175-4.42 6.36-7.293 6.223-15.091-1.538-28.89-17.34-31.498-7.908-1.306-39.625-.08-49.212 1.9-.373 1.215-1.041 2.423-1.071 3.646-.16 6.66-.163 13.325-.22 23.777m52.81-73.994c6.195-5.001 8.457-11.49 7.463-19.303-1.12-8.804-6.107-14.489-14.621-16.456-7.75-1.79-34.163-.742-45.843 2.094 1.792 12.423-2.434 25.397 2.496 38.498 9.235 0 17.81.404 26.328-.124 7.115-.442 14.162-1.975 24.177-4.71z" fill="#0f1112"/><path d="m1223.82 3432.974c9.698 26.655 7.08 49.701-13.33 70.388 4.033 3.52 7.956 6.78 11.7 10.234 31.012 28.62 19.033 82.873-21.168 95.259-6.283 1.935-13.006 3.297-19.547 3.385-27.307.365-54.623.171-81.935.074-1.84-.006-3.677-.906-5.34-1.344-2.438-16.06-2.793-184.127-.367-204.483 3.536-.446 7.337-1.319 11.143-1.34 23.315-.126 46.64-.433 69.945.055 20.432.428 37.757 7.454 48.9 27.772m-85.428 94.753c-3.449.076-6.986.48-7.182 4.86-.556 12.454-.873 24.92.365 38.36 7.685.257 14.19.619 20.696.658 9.301.055 18.616.123 27.899-.34 3.175-.16 6.441-1.558 9.371-2.992 8.1-3.963 11.04-10.831 10.744-19.63-.3-8.943-4.305-15.407-12.52-18.547-4.217-1.613-9.024-2.15-13.591-2.29-10.624-.32-21.265-.105-35.782-.08m22.664-80.892c-9.696.583-19.6-1.337-30.021 1.504.4 13.746-2.029 26.673 1.858 39.957 10.9 0 20.81.092 30.717-.046 3.96-.055 8.04-.109 11.844-1.054 9.935-2.468 15.714-10.377 15.517-20.402-.209-10.666-5.336-16.956-16.316-19.379-3.19-.704-6.601-.413-13.6-.58z" fill="#0e1011"/><path d="m1533.935 3582.482c-19.837-30.843-38.828-60.49-57.871-90.104-.193-.3-1.06-.169-1.611-.238-.607.275-1.35.418-1.777.864-.381.398-.46 1.121-.584 1.72-.135.648-.237 1.318-.24 1.978-.152 37.262-.287 74.523-.478 111.785-.003.54-.69 1.075-1.794 2.69-4.576 2.66-10.66.956-16.426 1.23-5.903.281-11.83.063-16.8.063-1.311-1.873-1.723-2.4-2.066-2.968-.333-.554-.852-1.15-.854-1.727-.155-61.885-.27-123.77-.384-185.654-.009-4.6-.001-9.202-.001-14.302 11.555-5.194 22.818-1.742 34.987-2.783 13.872 19.174 25.658 39.95 38.598 59.942 12.623 19.5 24.89 39.232 37.14 58.585 5.702-1.134 4.364-5.053 4.374-7.989.099-29.28.062-58.562.064-87.843v-20.293c12.467-4.314 24.195-2.042 36.896-1.72.658 4.179 1.757 7.931 1.764 11.686.107 60.558.094 121.116.036 181.675-.003 3.862-.584 7.724-.935 12.068-11.304 2.194-21.789 1.36-33.227.772a6418.854 6418.854 0 0 0 -18.81-29.437z" fill="#111314"/><path d="m2026.144 3405.116c7.012.904 12.322 1.466 17.447 2.76 19.353 4.885 31.102 17.852 35.241 36.774 4.137 18.91 1.65 37.114-11.622 52.537-.863 1.002-1.985 1.788-2.803 2.82-.748.943-1.247 2.084-2.431 4.133 3.766 3.186 7.706 6.493 11.618 9.834 10.202 8.715 15.36 19.838 15.594 33.208.105 5.98.312 11.999-.193 17.943-1.67 19.702-11.978 33.718-29.953 41.271-7.803 3.279-16.64 5.455-25.064 5.65-29.19.675-58.403.26-88.392.26-.737-2.95-1.86-5.36-1.864-7.77-.104-63.185-.104-126.37-.059-189.556.002-2.557.624-5.115.889-7.153 1.15-.851 1.655-1.299 2.229-1.627.552-.317 1.173-.723 1.767-.726 25.269-.147 50.538-.253 77.596-.358m24.821 151.08c.441-21.257-5.52-27.957-25.96-28.54-10.648-.305-21.313-.206-31.964.018-3.703.077-7.387 1.078-11.565 1.733-.438 14.375-.92 27.438.407 41.86 17.753.672 34.25 1.193 50.696-.136 7.506-.607 13.96-4.37 18.386-14.935m-37.804-109.49c-10.269.64-20.802-1.498-31.955 1.95.234 13.255-.986 25.544.882 39.29 14.568.615 28.313 1.37 41.957-.208 11.4-1.318 17.636-9.157 17.835-20.18.207-11.502-4.908-17.711-17.175-20.431-2.539-.563-5.26-.301-11.544-.421z" fill="#0c0e0f"/><path d="m2572.085 3463.694c12.833 20.263 24.943 39.272 36.732 57.778 5.877-.264 5.782-3.907 5.792-7.108.098-29.332.06-58.663.153-87.995.02-6.542.397-13.082.625-20.116 12.302-1.865 23.36-1.218 33.202-.74 1.726 1.492 2.354 1.848 2.7 2.386.34.529.514 1.235.555 1.875.213 3.314.507 6.632.509 9.948.03 63.27.021 126.54.021 190.967-10.878 3.003-21.3 1.381-33.15 1.387l-12.413-19.558-12.848-20.242c-4.641-7.31-9.301-14.609-13.92-21.933-4.263-6.76-8.472-13.556-12.726-20.323-4.255-6.766-8.272-13.702-12.881-20.218-4.41-6.234-7.136-13.852-12.95-18.371-1.806.491-2.582.478-2.94.858-.411.439-.474 1.219-.653 1.86-.178.637-.424 1.282-.448 1.93-.098 2.664-.158 5.33-.17 7.997-.14 34.654-.265 69.308-.431 103.962-.003.62-.462 1.239-1.303 3.354-5.007.304-10.717.842-16.435.946-5.852.108-11.711-.208-17.31-.333-2.618-16.024-3.195-182.123-.88-204.495 5.193-4.118 11.397-1.934 17.17-2.308 5.289-.342 10.616-.072 16.914-.072 12.152 19.153 24.256 38.232 37.085 58.564z" fill="#0a0c0d"/><path d="m3702.388 3750.252c7.105 25.03 8.015 48.657 1.85 72.413-4.762 18.346-13.198 34.747-26.275 48.537-34.082 35.939-92.135 35.475-125.682-2.868-23.406-26.751-29.753-58.727-26.412-93.09 1.825-18.775 8.067-36.298 18.478-52.12 34.784-52.86 107.642-53.23 142.947-2.598 5.994 8.596 9.711 18.779 15.094 29.726m-34.744 43.285c.53-19.314-4.321-36.77-17.298-51.613-17.985-20.572-50.535-20.865-68.398.557-20.592 24.696-22.61 66.08-1.84 92.661 23.653 30.267 60.943 23.164 77.69-6.105 5.707-9.973 8.767-20.732 9.846-35.5z" fill="#0d0f10"/><path d="m3169.985 3825.432c-4.54-20.525-6.319-39.513-2.32-58.854 4.547-21.99 13.395-41.59 29.063-57.932 33.843-35.299 92.898-34.214 125.614 4.46 12.319 14.562 20.412 31.17 23.749 49.816 6.333 35.39 2.11 69.008-19.674 98.764-26.77 36.567-67.898 42.784-101.06 29.83-22.685-8.863-38.304-25.907-48.627-47.75-2.54-5.374-4.127-11.2-6.745-18.334m43.301-68.682c-7.163 14.282-7.228 29.562-6 44.924 1.094 13.687 6.493 25.774 15.437 36.101 20.452 23.619 53.56 22.116 72.08-3.105 18.526-25.227 17.942-65.181-1.31-89.735-12.704-16.204-33.383-23.01-51.644-16.224-12.335 4.583-21.266 13.376-28.563 28.039zm-1188.886 31.393c.541 26.485-6.11 49.02-19.456 69.698-31.645 49.03-102.121 55.141-140.614 5.37-35.46-45.848-28.263-118.918 9.327-155.832 33.364-32.765 91.673-33.007 124.145 5.551 17.865 21.215 26.205 45.832 26.598 75.213m-133.764-34.523c-5.321 9.487-7.715 19.882-8.41 30.544-1.398 21.413 3.43 41.027 19.222 56.584 21.048 20.735 52.489 18.078 69.048-6.455 5.457-8.085 9.896-17.711 11.73-27.225 5.051-26.227.375-50.537-20.316-69.4-17.133-15.617-42.972-15.017-59.74.97-3.811 3.635-6.77 8.163-11.534 14.982zm1842.478 41.95c-.486-29.195 6.214-54.356 22.18-77.037 33.402-47.453 100.503-42.977 130.287-12.386 1.786 1.835 3.169 4.063 5.114 6.595-7.613 11.301-14.256 22.627-23.62 33.189-4.74-3.475-8.636-6.919-13.06-9.43-5.73-3.254-11.616-6.834-17.9-8.396-20.222-5.029-36.647 1.35-48.973 18.27-18.42 25.283-17.715 64.047-.51 88.4 17.203 24.347 45.52 27.574 72.338 7.973v-25.882c-11.423-4.734-23.799.35-36.43-3.517-2.484-12.017-1.63-24.302-.63-36.486 15.937-2.86 55.15-2.984 73.701-.365.498 1.161 1.423 2.323 1.426 3.487.08 27.976.062 55.952.062 84.512-25.648 27.438-57.106 38.205-93.838 30.867-24.09-4.814-41.9-19.764-54.266-40.85-10.315-17.585-14.993-36.876-15.881-58.944z" fill="#0d0e0f"/><path d="m684.897 3476.147c6.3 31.008 5.997 59.852-8.329 87.037-16.517 31.344-42.13 48.838-78.228 49.172-21.884.202-43.771.037-65.611.037-.835-2.982-1.803-4.831-1.806-6.682-.086-64.49-.095-128.981-.021-193.472.002-1.868 1.024-3.735 1.808-6.416 10.433-1.355 20.992-.53 31.492-.672 10.636-.143 21.279.136 31.913-.06 40.943-.758 72.558 25.251 84.583 58.11 1.366 3.734 2.548 7.536 4.199 12.946m-116.588 21.903c0 11.973-.17 23.949.049 35.917.213 11.748-1.04 23.613 1.113 36.606 11.673 0 22.263.813 32.681-.18 17.916-1.71 30.97-11.344 38.707-27.611 11.35-23.86 10.475-47.727-1.78-70.884-6.125-11.574-16.093-19.363-28.85-23.063-8.083-2.344-30.108-1.314-40.801 1.622-.33 1.24-.934 2.478-.945 3.72-.112 13.301-.13 26.603-.174 43.873z" fill="#0b0d0e"/><path d="m1721.71 3611.37c-45.414-27.117-46.592-77.647-3.963-113.048 1.967-5.039-2.103-8.529-3.661-12.635-7.433-19.585-8.075-38.822 1.668-57.969 14.676-28.84 60.096-37.068 82.677-8.743 2.06 2.585 3.99 5.363 5.477 8.305 12.551 24.819 5.447 56.687-16.365 73.812-3.607 2.831-7.29 5.566-11.743 8.96l18.443 22.023c10.537-8.313 10.75-22.032 19.642-31.408l26.55 17.358c-4.5 16.634-14.011 29.67-20.7 44.65l23.983 30.666-27.467 23.272-20.913-22.196c-21.53 17.955-44.682 27.436-73.628 16.954m40.469-59.422c-6.958-7.843-12.548-16.94-20.976-23.938-9.48 5.33-13.475 13.317-14.33 23.028-.594 6.758.517 13.263 5.386 18.569 4.255 4.636 9.533 7.201 15.787 7.4 9.762.313 17.907-2.96 24.558-11.512a1753.628 1753.628 0 0 0 -10.425-13.547m-17.592-87.655c1.94 6.923 3.676 13.967 11.109 18.496 3.863-2.332 8.078-4.323 11.638-7.14 7.45-5.897 9.7-13.97 8.305-23.169-1.154-7.615-5.71-12.434-12.563-13.437-7.493-1.097-12.971 1.44-16.005 8.678-1.734 4.135-1.907 8.925-2.484 16.572z" fill="#0d0f10"/><path d="m3176.736 3405.12c8.312.131 14.843.262 19.936.364 1.84 1.731 2.444 2.105 2.756 2.647.319.554.46 1.268.49 1.92.185 3.978.444 7.958.446 11.936.027 62.513.02 125.025.02 188.437-12.8 3.992-25.034 1.052-38.018 1.933-2.852-27.933.197-54.454-2.034-82.016-11.007-1.893-21.506-.852-31.894-1.02-10.586-.17-21.177-.037-32.656-.037-.956 4.601-2.337 8.284-2.385 11.985-.237 17.968-.061 35.94-.155 53.911-.028 5.258-.462 10.514-.744 16.475h-36.065c-2.163-15.714-2.451-182.959-.352-204.688 4.991-3.363 11.108-1.48 16.804-1.778 5.927-.311 11.883-.07 18.802-.07.6 5.371 1.478 9.81 1.521 14.257.169 17.304.001 34.61.12 51.916.032 4.46.654 8.916 1.05 13.969 3.645.588 6.149 1.33 8.656 1.343 18.566.1 37.133.053 56.035.053 3.767-14.017 1.592-27.323 1.983-40.45.375-12.595.081-25.21.081-39.002 5.115-.771 9.468-1.427 15.603-2.084z" fill="#0b0d0e"/><path d="m2536.027 3728.457h-45.699c-4.125 7.14-2.221 13.897-2.477 20.293-.234 5.833.163 11.692.3 18.431 9.49 1.747 18.071.847 26.553.993 8.654.15 17.313-.02 25.97.048 8.53.068 17.06.258 26.893.416.32 7.49.766 13.937.826 20.387.062 6.556-.256 13.115-.426 20.492-13.982 2.653-27.235 1.09-40.364 1.374-12.54.27-25.09.058-39.002.058-.307 7.664-.66 14.113-.798 20.565-.128 5.95-.027 11.906-.027 19.043 4.961.595 9.345 1.551 13.734 1.577 25.25.145 50.503.07 75.472.07 4.38 12.796 4.652 23.164 1.325 40.912-16.856 2.55-110.525 2.517-126.87-.045-.47-.472-1.06-.874-1.38-1.431a3.98 3.98 0 0 1 -.505-1.894c-.177-61.247-.337-122.495-.477-183.742-.01-4.656.037-9.316.275-13.964.06-1.178.954-2.313 1.466-3.468 15.076-2.5 109.203-2.73 128.147-.175 1.592 12.21.737 24.645.47 38.216-4.034.647-7.741 1.668-11.471 1.758-9.983.242-19.975.085-31.935.086z" fill="#101213"/><path d="m1726.015 3768.699c2.726 2.066 4.434 3.733 4.471 5.435.242 11.257.125 22.522.125 34.762-4.427.746-8.165 1.882-11.914 1.923-17.994.194-35.992.025-53.987.141-4.539.029-9.074.63-14.47 1.033v38.82c15.147 3.041 30.453.967 45.633 1.347 14.628.366 29.272.079 44.482.079 4.65 13.553 1.984 26.655 2 40.603-3.466.738-6.548 1.954-9.634 1.965-36.658.136-73.316.12-109.975.046-3.176-.007-6.35-.712-9.264-1.06-2.326-15.801-2.935-177.104-.918-204.362.394-.467.717-1.032 1.199-1.374.53-.377 1.206-.776 1.82-.78 37.303-.223 74.605-.407 111.908-.589 3.877-.02 7.755-.003 12.962-.003.318 7.655.763 14.116.805 20.58.043 6.567-.312 13.137-.532 21.16l-44.743.001h-43.608c-4.781 7.007-2.669 13.81-3.001 20.181-.309 5.898-.066 11.824-.066 17.954 13.722 3.214 26.39 1.22 38.925 1.604 11.987.367 23.992.126 37.782.534z" fill="#0d0f10"/><path d="m2909.911 3686.67c10.3-.033 18.891-.033 25.57-.033 2.386 1.753 3.045 2.034 3.371 2.533.346.529.518 1.264.52 1.91.136 65.291.26 130.583.31 195.875.002 1.882-.787 3.764-1.47 6.818-11.568 2.048-23.175 1.457-35.939.204-2.896-27.058.13-53.575-1.792-79.71-13.85-3.029-42.716-3.494-66.98-1.034-2.683 26.073.298 52.605-1.606 78.668-5.516 4.93-11.786 2.623-17.546 2.981-5.943.37-11.926.082-18.734.082-.96-3.67-2.435-6.69-2.44-9.712-.12-63.971-.078-127.944-.03-191.916.001-1.306.463-2.611.867-4.75 12.014-3.494 24.362-2.007 37.84-1.005 1.432 26.331-.104 52.148.932 77.605 13.794 3.765 34.796 4.324 67.013 1.841.393-3.434 1.163-7.15 1.188-10.871.137-20.657.138-41.315.081-61.973-.014-4.96 2.445-7.194 8.845-7.514z" fill="#111314"/><path d="m721.079 3563.914v-156.254c12.949-4.467 25.144-2.304 38.266-2.013 2.43 26.908.046 52.73 1.504 78.074 14.046 3.614 44.097 4.14 66.647 1.253 2.014-25.536-.436-51.424 1.42-77.923 11.95-3.828 23.78-1.469 36.55-1.598.79 3.21 2.175 6.226 2.18 9.245.123 63.238.098 126.477.044 189.716-.002 1.89-.637 3.78-1.231 7.092-6.413.312-12.835.84-19.26.875-5.795.032-11.593-.475-18.394-.79-1.595-27.555.573-54.045-1.38-81.233-21.806-1.95-42.854-.773-65.016-.872-.747 4.467-1.853 8.128-1.89 11.799-.183 18.637-.067 37.277-.107 55.915-.01 4.493-.211 8.985-.356 14.728-13.105.733-24.816.997-37.271-.404-3.599-15.26-.84-30.542-1.706-47.611z" fill="#0f1112"/><path d="m2261.924 3611.683c-11.678.61-21.636.61-32.608.61-.612-4.182-1.603-7.93-1.637-11.688-.166-18.656-.01-37.314-.13-55.97-.028-4.553-.662-9.102-1.015-13.612-2.67-.667-4.565-1.541-6.464-1.551-19.303-.102-38.607-.062-59.122-.062-.73 4.776-1.912 9.097-1.964 13.432-.218 17.989-.047 35.98-.13 53.971-.021 4.532-.454 9.062-.742 14.405-12.637 1.988-24.256 1.34-35.703.568-2.63-15.953-3.09-183.44-.613-205.237 11.375-2.633 23-1.539 35.806-.528.474 4.456 1.202 8.255 1.229 12.058.125 17.99-.033 35.981.124 53.97.04 4.508.87 9.01 1.389 14.023h65.473c.638-4.166 1.663-7.878 1.699-11.6.174-17.988.026-35.98.123-53.97.025-4.516.534-9.03.885-14.57 12.06-1.349 23.164-1.075 35.15-.159.565 4.068 1.547 7.879 1.553 11.69.096 60.636.097 121.27-.004 181.906-.007 3.902-1.03 7.803-3.299 12.314z" fill="#0d0e0f"/><path d="m1399.774 3420.554.001 24.217c-15.898 4.35-31.198 1.547-46.273 2.069-14.518.502-29.067.109-44.877.109-.32 7.762-.678 14.215-.822 20.673-.13 5.881-.028 11.768-.028 18.832 26.939 2.497 52.738-.02 79.747 1.657.325 7.031.728 13.459.887 19.892.147 5.925.031 11.857.031 18.171-8.9 4.004-17.598 1.889-25.995 2.21-8.648.33-17.318.073-25.98.073h-25.419c-4.14 13.66-4.356 22.585-1.046 42.722 14.842.767 30.036.187 45.2.363 14.488.167 29.006-.348 44.756.399.709 13.7.706 26.016.081 38.156-15.346 2.855-100.796 3.618-129.12 1.246-.575-2.82-1.747-5.905-1.753-8.993-.112-61.956-.104-123.913-.052-185.87.003-3.164.616-6.327.909-9.147 16.177-2.836 96.8-3.546 127.849-1.207.601 3.984 1.252 8.296 1.904 14.428z" fill="#101213"/><path d="m4223.531 3492.917c.145 12.402.096 22.914.042 34.377-9.687 1.911-18.27.976-26.741 1.123-8.657.15-17.318-.013-25.977.046-8.543.057-17.086.22-26.945.355-.361 7.473-.797 13.907-.949 20.348-.156 6.62-.035 13.248-.035 20.486 15.9 3.838 31.163 1.343 46.244 1.802 14.593.444 29.21.096 44.498.096 4.023 13.015 1.416 25.484 1.887 38.615-2.69.804-5.081 2.135-7.477 2.143-38.632.13-77.265.108-115.897.046-1.894-.004-3.787-.7-6.817-1.297-2.415-22.343-.773-44.832-1.067-67.243-.297-22.642-.065-45.292-.065-67.939v-68.352c3.151-.945 5.587-2.307 8.027-2.314 38.63-.105 77.26-.047 115.89.038 1.252.003 2.503.688 3.754 1.056 3.896 12.501 4.105 20.243.802 39.816-28.721 2.038-57.87-.096-86.761 1.162-3.916 12.863-4.073 21.58-.597 39.775 7.567.16 15.431.43 23.297.473 15.319.084 30.64.048 45.959.044 3.38-.001 6.664.172 8.928 5.344z" fill="#101112"/><path d="m1275.708 3859.781c-7.675-15.405-10.036-30.761-10.317-45.969-.765-41.294-.262-82.612-.262-124.671 12.631-4.377 24.953-2.126 38.277-1.901.376 5.254.96 9.706.97 14.16.077 33.997-.231 67.998.223 101.99.122 9.186 1.312 18.694 4.013 27.435 4.528 14.653 17.231 23.426 31.368 23.696 14.762.282 26.132-7.703 32.428-22.3 3.544-8.218 3.881-16.76 3.864-25.47-.065-32.664-.025-65.328-.025-97.993v-20.329c13.332-2.738 25.71-2.292 38.766-.457.27 4.466.703 8.36.709 12.254.051 35.997-.024 71.994.053 107.992.032 15.499-2.32 30.63-8.115 44.941-10.712 26.452-30.154 41.483-59.104 43.62-19.152 1.414-37.137-1.128-53.118-12.867-8.286-6.087-14.094-14.045-19.73-24.13zm1525.389-355.978v-96.279c12.465-4.547 24.296-1.7 37.12-2.248.78 4.042 2.084 7.704 2.098 11.371.149 36.618.184 73.238.031 109.857-.06 14.71-2.153 29.13-7.398 43.023-16.944 44.877-73.732 61.735-112.498 33.297-16.585-12.166-24.298-29.543-28.028-48.996-1.245-6.494-1.633-13.235-1.658-19.867-.147-39.281-.1-78.564-.017-117.846.006-3.211.772-6.42 1.268-10.278h35.243c.424 4.384 1.095 8.153 1.105 11.923.084 33.29-.229 66.584.223 99.868.133 9.882 1.303 20 3.788 29.545 4.291 16.471 15.691 24.776 31.726 25.051 16.875.29 27.494-6.7 33.212-23.026 2.159-6.164 3.059-12.915 3.563-19.473.61-7.944.194-15.967.222-25.922z" fill="#0e1011"/><path d="m927.648 3596.334c-17.02-18.165-22.224-39.639-22.755-61.835-.987-41.292-.32-82.624-.25-123.94.001-1.147 1.03-2.292 2.275-4.886 10.954-1.093 22.634-.862 35.63.12.454 4.497 1.156 8.268 1.166 12.041.086 34.664.081 69.327.035 103.991-.012 9.378.536 18.595 3.973 27.508 6.124 15.883 16.643 23.191 33.487 22.862 15.562-.304 26.436-7.706 30.881-23.306 2.692-9.45 3.81-19.607 3.962-29.472.483-31.323.18-62.658.18-93.989v-18.38c12.826-3.579 24.621-1.621 37.173-1.527.823 2.646 2.218 5.032 2.211 7.415-.113 39.317-.323 78.635-.697 117.951-.127 13.41-2.573 26.509-7.204 39.106-10.543 28.679-33.344 44.784-63.82 45.84-20.801.72-39.667-3.764-56.247-19.499z" fill="#101112"/><path d="m2459.643 3612.428-26 .001-15.675-44.574c-23.522-1.851-46.65-.57-70.983-.972l-16.2 44.84c-13.101 1.275-25.434.626-39.658.444l73.165-207.21c11.486-2.624 22.664-.92 34.288-1.266 1.562 2.208 3.607 4.09 4.427 6.406 22.608 63.845 45.099 127.73 67.561 191.627.863 2.454 1.254 5.074 1.752 7.146-2.945 4.971-7.267 2.994-12.677 3.558m-64.059-112.778c-4.742-11.084-6.107-23.596-13.518-34.567-12.083 27.011-17.773 45.71-18.089 59.45h37.42c1.141-8.352-3.026-14.712-5.813-24.883zm872.362-8.328c10.425-29.602 20.469-57.686 30.858-86.736 11.915-1.805 23.634-1.253 36.268-.138 24.141 68.302 48.22 136.43 72.719 205.741-6.712 3.557-13.28 1.95-19.469 2.186-6.553.248-13.122.055-20.42.055l-15.416-44.195c-12.371-2.516-24.307-1-36.132-1.264-11.252-.252-22.515-.054-34.625-.054-6.944 14.142-10.22 29.09-16.408 43.84-12.086 3.026-24.456 1.598-38.25 1.007 4.414-21.647 13.27-40.83 20.01-60.655 6.625-19.492 13.64-38.852 20.865-59.787m43.09-14.624c-4.838 15.55-11.664 30.504-15.064 47.424 13.966 1.642 26.866 2.032 39.856-.176-2.859-18.229-11.617-43.114-20.356-57.504-1.378 2.767-2.47 4.962-4.436 10.256zm530.787-72.992c5.658.748 6.806 4.002 7.886 7.075 23.116 65.737 46.185 131.49 69.228 197.252.202.576-.064 1.316-.165 2.71-5.88 3.071-12.532 1.366-18.895 1.637-5.949.254-11.918.055-18.315.055-8.715-13.895-9.989-30.393-17.478-44.789h-70.782l-15.623 43.509c-12.568 2.083-24.939 1.66-37.435.355 2.223-14.445 63.08-188.356 72.807-207.922 8.602 0 17.835 0 28.772.118m-4.32 121.555 12.426-1.877-19.583-58.291c-8.681 8.88-9.688 19.82-12.989 29.494-3.242 9.505-8.337 18.787-8.354 30.676 9.105 0 16.964 0 28.5-.002zm-3381.622 63.128c-2.707-7.75-5.005-13.911-7.378-20.271-3.166-.45-5.728-1.119-8.293-1.13-20.557-.086-41.114-.048-62.82-.048l-15.39 44.036c-12.293 2.54-24.71 1.525-37.669.783 0-2.631-.51-4.676.074-6.337 23.519-66.968 47.136-133.902 70.837-201.113h36.028c24.76 68.233 48.623 137.022 73.238 206.63-13.787 2.464-26.21 1.423-39.504 1.047-2.936-7.415-5.825-14.711-9.123-23.597m-48.575-110.414-15.445 44.61c17.53 3.959 28.523 3.732 40.48-.504-3.797-18.376-12.496-42.904-20.164-56.277-1.555 3.493-2.85 6.398-4.87 12.17z" fill="#0e1011"/><path d="m3627.781 3568.273v42.977c-6.85.454-12.58.987-18.32 1.17-5.939.191-11.888.043-16.982.043-1.242-1.67-1.656-2.185-2.023-2.732-.365-.544-.95-1.105-.98-1.682-.207-3.986-.4-7.978-.402-11.968-.023-62.563-.016-125.126-.016-188.646 4.376-.886 8.067-2.242 11.772-2.282 19.975-.216 39.96-.437 59.93-.035 36.77.742 61.281 23.865 64.261 60.33.541 6.617.529 13.318.242 19.958-1.635 37.872-26.458 63.162-64.469 65.43-9.942.592-19.95.089-29.227.089-5.857 4.689-2.971 10.434-3.786 17.348m39.082-60.553c8.887-2.892 14.372-9.04 17.581-17.693 3.18-8.578 2.637-16.918-.331-25.377-2.893-8.243-8.815-14.06-16.871-15.566-12.83-2.396-25.97-2.656-39.246.451.055 20.202-1.406 39.307.902 58.789 12.146 0 23.35 0 37.965-.604z" fill="#111314"/><path d="m717.423 3879.071c-6.095-5.184-11.027-9.522-16.914-14.7 3.946-6.156 7.282-11.665 10.927-16.962 3.659-5.317 7.624-10.423 11.71-15.967 7.978 5.773 14.679 11.089 21.84 15.69 9.74 6.257 20.536 9.48 32.217 8.325 3.877-.384 7.934-1.303 11.404-3.006 12.008-5.894 13.85-21.565 2.939-29.468-6.31-4.57-14.019-7.366-21.353-10.33-11.063-4.469-22.58-7.862-33.48-12.675-12.724-5.618-21.992-15.329-25.862-28.799-6.298-21.922-5.502-43.452 7.347-63.216 9.748-14.995 24.328-22.346 41.753-23.911 27.375-2.46 50.805 6.36 71.298 25.65-5.543 12.55-11.995 23.765-19.792 34.889-5.976-3.913-10.614-7.652-15.835-10.196-7.115-3.468-14.579-6.301-22.073-8.884-5.911-2.036-11.816-.791-17.454 1.762-11.91 5.393-14.308 21.442-3.855 29.38 4.632 3.516 10.484 5.58 16.002 7.738 9.882 3.866 20.199 6.718 29.826 11.107 7.756 3.536 15.135 8.213 22.002 13.3 7.083 5.249 12.057 12.753 13.97 21.334 3.961 17.764 4.806 35.807-2.835 52.813-9.233 20.546-25.915 31.43-48.273 33.38-23.318 2.033-44.892-3.116-65.51-17.254z" fill="#0d0e0f"/><path d="m2686.04 3853.157c23.517 5.23 38.43-6.83 52.66-21.243 7.548 1.555 9.957 8.482 14.212 13.173 3.984 4.392 7.41 9.29 10.923 13.765-13.206 22.44-31.856 34.804-55.698 37.715-37.826 4.617-67.38-9.343-85.669-42.218-24.186-43.476-23.704-88.143 2.07-131.075 33.255-55.392 110.196-49.453 138.387-8.298-5.806 12.01-14.64 22.412-23.346 33.715-6.588-5.2-11.963-10.02-17.894-14.017-19.97-13.458-43.7-10.36-59.177 7.84-3.827 4.501-7.263 9.7-9.47 15.149-8.906 21.973-8.862 44.28.384 66.073 5.922 13.96 15.664 24.671 32.618 29.42zm-590.296-16.92v56.412c-13.144 3.795-25.35 2.217-37.34 1.567-2.657-16.542-3.458-172.053-1.2-205.846 13.999-3.645 28.565-1.109 42.907-1.584 13.982-.463 27.99-.1 41.988-.1h45.008c2.299 13.936 1.133 26.816 1.025 40.626-10.897 2.043-20.816.874-30.622 1.07-9.994.2-19.995-.006-29.993.058-9.867.064-19.734.242-30.91.388-.317 7.522-.7 13.977-.832 20.438-.137 6.651-.03 13.308-.03 21.017 4.044.688 7.754 1.837 11.472 1.865 22.626.17 45.254.085 68.253.085.721 3.397 1.682 5.925 1.724 8.468.175 10.576.074 21.156.074 32.855-9.49 2.27-18.038 1.146-26.427 1.312-9.328.184-18.663-.025-27.993.063-8.487.08-16.973.332-26.742.534-.137 7.101-.25 12.949-.362 20.772z" fill="#0d0f10"/><path d="m4063.724 3686.675c7.462.324 13.42-.792 20.017 1.343-1.353 6.46-4.567 11.328-7.257 16.39-15.905 29.925-31.527 60.007-47.895 89.676-6.29 11.402-9.53 22.798-9.04 35.932.768 20.58.204 41.21.204 62.391-12.85 4.349-25.086 2.251-38.531 1.906-.384-4.959-.912-8.758-.931-12.56-.092-17.97-.408-35.95.09-53.907.304-10.979-2.212-20.57-7.526-30.3-18.152-33.245-35.51-66.925-53.134-100.458-1.229-2.338-2.166-4.83-3.543-7.936 6.71-4.346 14.129-1.966 21.053-2.381 7.228-.433 14.502-.097 22.394-.097 14.388 25.774 24.88 52.994 41.07 79.589 15.538-26.941 26.522-53.846 41.328-79.589h21.701z" fill="#0e1011"/><path d="m1551.454 3729.305h-18.01c-3.186 14.207-1.32 27.5-1.634 40.668-.332 13.958-.075 27.93-.075 41.896v80.372c-12.697 4.65-24.925 2.331-38.497 2.048-.37-5.445-.926-9.883-.933-14.321-.066-43.228.024-86.455-.11-129.682-.02-6.53 1.416-13.284-1.842-19.975-16.134-2.916-32.86 1.142-49.534-2.614v-39.332c3.847-.57 7.545-1.585 11.245-1.595 39.902-.115 79.804-.088 119.706-.042 3.265.004 6.53.435 11.17.765.278 6.895.64 13.304.767 19.717.13 6.6.028 13.204.028 20.085-10.584 3.476-20.564 1.405-32.28 2.01zm-643.184 153.303c-.062-50.429-.11-98.986-.234-147.543-.003-1.228-.844-2.454-1.742-4.9-15.682-2.187-32.267.343-48.98-1.595-2.124-13.99-.511-27.057-1.1-39.9 18.837-2.828 127.506-2.612 142.95.163v38.664c-16.163 4.386-32.867-.287-50.028 2.979-.446 4.14-1.326 8.567-1.336 12.995-.105 43.237-.036 86.474-.095 129.71-.008 6.506-.418 13.012-.678 20.532-12.636 2.065-24.317 1.233-37.15.557-.594-3.622-1.1-6.706-1.608-11.662z" fill="#0d0e0f"/><path d="m1097.17 3694.081c1.091-3.299 1.843-5.784 3.224-6.206 3.09-.941 6.491-1.14 9.767-1.145 39.98-.062 79.96-.047 119.94-.002 2.62.003 5.237.413 9.222.75 2.03 13.21.921 26.223.735 40.145-16.646 3.925-33.356-.12-49.99 2.62-3.17 13.528-1.265 26.813-1.583 39.955-.338 13.984-.076 27.984-.076 41.977v80.241c-12.352 4.915-24.26 1.06-37.107 2.994-.855-5.526-2.096-9.864-2.11-14.207-.146-43.311-.062-86.623-.119-129.935-.008-6.557-.404-13.112-.653-20.636-16.94-3.331-33.648.668-50.408-2.592-1.665-11.094-.587-21.688-.843-33.959z" fill="#0d0f10"/><path d="m3985.058 3472.347v-22.363c-17.4-3.685-34.131.552-51.478-2.935-.702-13.65-1.122-26.641.417-40.792 23.912-2.378 47.089-.895 70.195-1.155 23.213-.261 46.431-.058 69.45-.058 4.485 7.362 2.43 14.15 2.734 20.56.314 6.623.07 13.271.07 20.974-4.165.674-7.871 1.73-11.594 1.793-12.57.217-25.148.083-38.798.083-.618 5.524-1.529 9.936-1.54 14.35-.109 42.654-.054 85.31-.081 127.965-.005 6.545-.188 13.09-.292 19.863-6.652 2.84-12.663 1.58-18.46 1.784-5.946.21-11.906.047-18.935.047-.637-5.356-1.605-9.775-1.618-14.196-.117-41.322-.07-82.644-.07-125.92z" fill="#111314"/><path d="m3419.811 3839.323c.257 5.092.51 8.244.836 12.306 28.252 1.438 55.437-.337 83.032 1.074 3.022 13.482 1.64 26.574 1.203 38.26-1.266 1.966-1.515 2.68-2.017 3.043-.499.36-1.253.505-1.895.508-37.285.15-74.57.296-111.854.345-1.873.003-3.746-.848-6.807-1.588-2.745-22.287-.875-44.783-1.204-67.182-.342-23.307-.181-46.624-.046-69.935.13-22.494-.625-45.013.57-68.235 4.09-.507 7.297-1.216 10.508-1.242 8.57-.069 17.144.156 26.693.276 1.951 26.29.69 51.418.925 76.499.23 24.642.051 49.287.056 75.871z" fill="#131516"/><path d="m4284.407 3405.093c8.303.243 14.814.488 22.377.772 2.04 28.22.634 55.373.902 82.475.262 26.564.056 53.133.056 80.697 9.896 2.93 19.125 1.28 28.126 1.587 8.65.294 17.316.064 25.975.064h28.208c3.964 6.846 1.993 13.572 2.287 19.912.304 6.533.068 13.09.068 18.35-1.824 1.69-2.258 2.236-2.818 2.568-.532.315-1.197.574-1.804.575-37.956.04-75.912.065-113.868.008-1.183-.001-2.365-.869-3.547-1.334-.44-.5-.98-.945-1.295-1.514-.301-.545-.515-1.219-.516-1.836-.101-64.606-.187-129.212-.217-193.817 0-1.928.6-3.857 1.112-6.934 4.301-.514 8.731-1.043 14.954-1.573z" fill="#0d0f10"/><path d="m2336.009 3686.786c29.127.016 56.26-.037 84.715.045.733 14.65.674 27.584.068 42.018h-46.827c-6.46 5.689-4.662 11.37-4.678 16.45-.14 42.627-.056 85.255-.105 127.883-.007 6.528-.345 13.055-.547 20.174-12.19 2.6-23.313 1.128-35.758 1.27-.747-4.82-1.98-9.13-1.995-13.444-.144-43.293-.061-86.587-.119-129.881-.008-6.529-.41-13.057-.65-20.161-9.112-3.301-17.779-1.54-26.213-1.887-7.816-.323-15.644-.319-24.694-.48-.605-14.353-.66-27.286-.089-38.785 1.998-1.882 2.475-2.725 2.96-2.731 17.311-.206 34.623-.333 53.932-.47zm-1897.228 149.16v-148.502c13.07-1.226 24.736-.447 36.198-.559 2.797 16.098 3.164 186.18.49 207.03-5.522.294-11.286.723-17.057.874-5.875.154-11.757.034-18.216.034-2.855-19.834-.734-38.412-1.415-58.877z" fill="#060809"/><path d="m1029.01 3815.998c.057-42.59.103-83.182.232-123.773.003-1.18.878-2.358 1.719-4.47 11.306-2.141 23.038-1.223 34.612-.515 2.84 15.742 3.18 186.467.396 206.698-11.359 1.833-22.955 1.376-35.79.052-2.344-13.058-.839-25.627-1.11-38.06-.274-12.64-.06-25.288-.06-39.932z" fill="#151617"/><path d="m3435.661 3603.238c-.017-66.446-.017-130.969-.017-196.113 12.644-3.362 24.211-2.021 35.64-1.124 2.42 15.705 2.899 181.892.628 205.248-10.803 2.136-21.956 1.28-33.017.359-1.242-.103-2.152-4.2-3.234-8.37z" fill="#090b0c"/><path d="m2229.014 1618.71c-2.574-21.598-4.862-41.422-7.219-61.237-1.65-13.87-3.49-27.719-5.076-41.596-4.382-38.334-8.497-76.7-13.056-115.012-4.715-39.625-9.973-79.186-14.7-118.81-2.205-18.496-3.704-37.076-5.548-55.616-.905-9.093 1.248-17.082 7.758-23.835 2.756-2.86 4.77-6.42 7.364-9.454 7.28-8.512 10.741-18.15 9.918-29.459-.434-5.962-.423-12.04.23-17.972.558-5.073 2.319-10.014 3.5-14.823 14.134 1.591 18.746 5.074 19.778 15.906 1.514 15.893 2.634 31.844 3.266 47.797 1.953 49.249 3.48 98.515 5.399 147.765 1.14 29.272 2.716 58.527 4.075 87.79 1.266 27.266 2.34 54.54 3.791 81.796 1.981 37.215 4.36 74.409 6.31 111.625.697 13.305.695 26.648.88 39.976.037 2.632.177 5.648-.984 7.815-1.44 2.687-3.894 6.038-6.448 6.584-2.608.558-6.547-1.236-8.655-3.285-2.159-2.1-3.486-5.645-3.985-8.75-1.582-9.84-2.551-19.777-3.871-29.662-.704-5.27-1.64-10.51-2.727-17.542z" fill="#fefdf9"/><path d="m2793.274 1387.727c5.783-1.856 10.356-4.3 14.587-3.807 7.409.862 12.802-1.808 18.229-6.064 6.27-4.918 12.69-9.692 19.367-14.031 4.623-3.005 9.699-3.661 15.197-1.19 11.174 5.022 13.503 12.104 6.258 21.969-3.133 4.265-7.016 8.01-10.768 11.784-118.404 119.082-236.824 238.147-355.303 357.154-3.718 3.734-7.72 7.498-12.288 9.94-2.246 1.202-6.563.218-9.103-1.24-3.336-1.914-2.92-5.788-1.103-8.844 1.684-2.834 3.863-5.403 6.011-7.93 30.627-36.024 61.254-72.047 91.943-108.018 35.876-42.049 71.753-84.097 107.742-126.048 26.452-30.834 53.044-61.549 79.661-92.24 9.106-10.499 15.597-23.418 29.57-31.435zm-448.84-98.701c-2.569 24.946-5.01 48.065-7.44 71.184-1.527 14.538-3.098 29.071-4.537 43.618-3.075 31.076-5.88 62.18-9.161 93.233-3.28 31.045-7.144 62.027-10.482 93.066-1.989 18.499-3.336 37.066-5.214 55.577-.804 7.922-1.986 15.826-3.444 23.654-1.06 5.692-4.846 9.044-9.043 9.02-6.141-.034-10.696-4.618-11.114-11.45-.203-3.314-.1-6.655-.001-9.98 1.691-56.516 3.333-113.034 5.139-169.547.998-31.237 2.336-62.462 3.417-93.696 1.542-44.535 2.91-89.077 4.505-133.61a7033.828 7033.828 0 0 1 3.418-81.706c.557-11.743 5.191-17.283 15.733-20.005 8.801-2.274 15.996 3.216 16.028 12.309.007 1.987-.227 3.99-.516 5.962-1.997 13.612 1.743 25.168 12.799 33.657 6.734 5.17 7.88 11.85 6.951 19.52-2.315 19.121-4.606 38.244-7.038 59.194z" fill="#fefdf8"/><path d="m1720.996 1483.004c66.194 65.88 131.311 130.838 196.61 195.612 28.857 28.624 58.165 56.794 87.07 85.37 5.156 5.097 9.61 10.982 13.86 16.884 1.968 2.734 2.31 6.94-1.016 8.87-2.513 1.458-6.377 1.928-9.188 1.168-3.004-.812-5.651-3.382-8.157-5.531-29.834-25.585-59.586-51.264-89.412-76.857-33.362-28.629-66.799-57.17-100.165-85.794-31.852-27.325-63.633-54.734-95.49-82.054-15.672-13.44-31.506-26.693-47.141-40.177-6.048-5.215-12.154-10.467-17.499-16.367-6.34-6.999-11.266-15.086-10.302-25.124.641-6.665-2.347-11.377-6.43-16.068-4.8-5.517-9.583-11.139-13.6-17.225-5.476-8.296-4.724-15.765 1.352-24.016 3.126-4.245 7.751-5.669 12.245-2.73 4.96 3.245 9.708 7 13.93 11.16 24.212 23.857 48.24 47.901 73.333 72.879z" fill="#fefdf9"/><path d="m1735.361 1404.339c-4.98-6.374-9.34-11.455-12.897-17.047-2.565-4.031-3.441-9.019.01-13.055 3.484-4.073 8.904-3.898 12.953-1.972 5.88 2.797 11.403 6.701 16.386 10.944 8.054 6.857 15.545 14.374 22.435 20.825 2.947 0 4.426.403 5.548-.06 15.337-6.337 15.605-6.544 24.76 5.469 36.723 48.193 73.33 96.474 109.89 144.791 43.79 57.873 87.5 115.805 131.201 173.744 4.725 6.264 9.158 12.747 14.548 20.275l-14.254 7.776c-2.66-1.309-4.87-1.753-6.091-3.095-13.443-14.767-26.898-29.53-40.03-44.572-34.157-39.123-68.192-78.353-102.203-117.603-38.805-44.784-77.482-89.68-116.32-134.436-14.84-17.1-29.972-33.947-45.936-51.984zm788.955 372.828c40.72-35.494 80.392-69.952 120.01-104.47 24.577-21.413 49.035-42.96 73.61-64.374 51.654-45.009 103.338-89.984 155.062-134.914 2.99-2.596 6.279-4.956 9.728-6.89 6.17-3.463 12.086-3.38 14.73.035 3.834 4.953 2.376 10.182-.28 14.935-2.247 4.019-5.037 7.81-8.047 11.307-3.903 4.53-8.402 8.543-12.386 13.01-4.388 4.92-8.483 10.1-13.17 15.726l7.66 14.079c-.981 1.904-1.46 4.104-2.823 5.27-9.584 8.201-19.055 16.579-29.105 24.182-88.584 67.016-177.292 133.868-265.933 200.807-14.331 10.823-28.482 21.886-42.802 32.724-2.555 1.933-5.532 3.306-8.246 4.897-9.651-13.193-9.651-13.193 1.992-26.324z" fill="#fefdf8"/><path d="m2132.29 1647.625c3.51 9.601 7.13 17.536 9.433 25.835 1.742 6.275 2.163 12.998 2.485 19.556.214 4.352-2.652 8.13-6.71 8.84-3.568.626-8.191.011-11.134-1.913-3.057-1.999-5.105-6.008-6.807-9.52-4.93-10.173-9.432-20.552-14.16-30.824a578996.838 578996.838 0 0 0 -78.487-170.412c-16.704-36.255-33.484-72.474-50.088-108.775-3.233-7.07-7.736-14.243-1.69-23.754 3.839 0 8.409.478 12.836-.112 6.806-.907 10.239-6.372 8.325-13.138-1.258-4.445-3.217-8.723-5.177-12.93-3.196-6.86-4.186-14.001-3.14-21.413.949-6.723 8.585-9.925 13.438-5.198 3.674 3.579 6.961 8.083 8.919 12.799 5.863 14.121 11.11 28.504 16.382 42.864a237539.595 237539.595 0 0 1 105.576 288.095zm483.57 232.125c-8.97 3.243-16.458 6.002-23.99 8.633-3.13 1.094-6.302 2.217-9.55 2.796-6.19 1.105-11.536-1.54-13.368-6.195-2.699-6.857-1.067-14.411 4.851-17.5 11.789-6.151 23.828-11.845 35.919-17.39 40.51-18.58 81.124-36.93 121.632-55.516 53.206-24.412 106.334-48.994 159.537-73.412 5.918-2.716 11.806-6.625 20.292-2.58.296 2.198 1.279 5.287 1.003 8.259-.723 7.779 2.889 12.578 10.35 16.46 5.586-2.385 11.465-5.383 17.665-7.395 5.607-1.819 11.516-2.967 17.38-3.64 4.19-.48 7.811 1.641 9.578 5.766 1.725 4.024.007 9.652-4.172 12.25-3.92 2.439-8.17 4.462-12.484 6.127-13.647 5.267-27.372 10.333-41.101 15.385-97.355 35.819-194.717 71.614-293.542 107.953z" fill="#fefdf9"/><path d="m1641.566 1746.499c-33.649-16.355-59.254-40.519-83.724-66.085-3.206-3.35-6.676-7.097-3.596-12.264 3.162-5.303 9.892-8.38 15.431-6.41 5.589 1.989 11.02 4.706 16.086 7.81 7.365 4.514 14.35 9.648 21.48 14.543 5.135 3.525 10.487 6.275 16.63 2.678 5.416-3.171 10.418-1.51 15.11 1.122 15.064 8.45 30.645 16.202 44.805 25.99 26.347 18.211 54.227 33.678 82.23 49.013 60.093 32.91 120.206 65.783 180.308 98.675 2.334 1.277 4.747 2.443 6.954 3.913 5.814 3.874 7.847 9.033 5.442 13.346-3.11 5.574-9.113 8.598-15.025 6.844-5.076-1.506-10.019-3.58-14.844-5.786-16.936-7.745-33.809-15.627-50.682-23.508-45.8-21.394-91.55-42.896-137.395-64.194-32.57-15.132-65.263-30.003-99.21-45.687zm869.199-243.602c-35.163 64.411-69.607 127.532-104.052 190.652-.32.585-.665 1.155-1 1.731-4.364 7.541-7.867 9.946-11.748 8.064-6.274-3.042-10.668-9.882-9.537-16.056.706-3.854 2.286-7.624 3.943-11.215 8.65-18.737 17.467-37.397 26.193-56.099 31.247-66.968 62.36-134 93.797-200.879 8.763-18.645 17.617-37.341 27.964-55.122 11.757-20.202 27.198-37.81 43.95-54.144 3.301-3.22 6.772-6.775 10.87-8.503 3.199-1.35 8.006-1.217 11.172.252 4.437 2.058 6.669 7.155 5.318 11.875-1.618 5.654-4.296 11.171-7.41 16.193-5.26 8.478-11.208 16.53-16.894 24.743-2.829 4.085-4.274 8.533-1.777 13.104 3.36 6.148 1.524 11.602-1.462 17.007-7.718 13.973-15.237 28.065-23.35 41.806-14.89 25.216-30.152 50.213-45.977 76.591z" fill="#fefdf8"/><path d="m2352.786 1572.755c11.954-53.578 23.592-105.509 35.184-157.45 6.665-29.864 13.387-59.718 19.808-89.636 2.1-9.79 7.195-16.539 17.068-21.357 7.446 10.725 9.76 21.051 5.717 32.6-1.978 5.652-4.432 11.17-5.975 16.935-2.047 7.654 2.126 11.936 9.506 10.106 4.455-1.105 8.793-2.68 12.175-3.731 6.678 1.638 8.084 6.124 9.22 10.69 2.569 10.311-1.051 19.732-4.451 29.147-29.17 80.78-58.35 161.558-87.557 242.326-2.264 6.262-4.752 12.443-7.114 18.67-.472 1.243-.707 2.593-1.286 3.78-3.662 7.497-10.212 11.834-15.344 10.244-5.467-1.694-7.94-8.206-6.011-16.933 6.17-27.931 12.473-55.833 19.06-85.391z" fill="#fefdf9"/><path d="m2139.81 1536.374c-14.365-50.124-28.073-98.754-42.472-147.179-4.668-15.7-13.086-30.788-1.629-46.848-.402-7.253-.701-14.513-1.237-21.756-.536-7.248-1.859-14.494-1.67-21.71.064-2.444 3.285-6.017 5.8-6.85 2.599-.86 6.269.573 9.127 1.803 1.59.684 2.83 2.838 3.634 4.6 9.663 21.163 19.842 42.121 28.616 63.65 8.575 21.044 10.983 43.785 15.278 65.94 7.714 39.786 14.788 79.695 22.208 119.539 6.811 36.574 13.655 73.142 20.685 109.675.928 4.822.803 9.135-1.487 13.483-3.028 5.748-11.257 7.35-14.924 2.171-2.982-4.212-5.103-9.274-6.594-14.26-7.81-26.113-15.316-52.317-22.887-78.5-4.062-14.05-8.042-28.122-12.448-43.758zm-463.741 70.023c-.956-7.566 1.796-11.795 7.366-13.917 4.851-1.849 9.076.077 12.948 3.092 24.691 19.225 49.399 38.428 74.102 57.639 46.25 35.966 92.516 71.914 138.746 107.907 23.117 17.998 46.215 36.022 69.219 54.163 5.69 4.488 6.647 7.753 4.435 11.664-3.951 6.983-10.02 9.278-16.558 5.628-5.797-3.237-11.307-7.015-16.804-10.758-76.506-52.087-152.905-104.331-229.569-156.184-10.987-7.431-19.69-15.897-22.601-29.078-1.52-6.88-5.495-11.944-10.196-16.791-3.696-3.811-7.084-7.92-11.088-13.365zm934.728-83.583c-50.689 65.2-100.453 129.314-150.26 193.396-2.443 3.143-5.132 6.122-7.93 8.957-3.053 3.093-6.757 4.246-10.826 2.04-4.193-2.273-7.157-7.51-5.751-11.695 1.446-4.307 3.714-8.469 6.28-12.248 22.045-32.48 44.335-64.792 66.365-97.281 31.735-46.801 63.334-93.694 94.941-140.582 7.195-10.672 14.847-20.209 28.897-22.544 4.886-.812 9.401-4.675 13.748-7.639 3.27-2.23 5.961-5.297 8.981-7.91 12.234-10.584 13.825-10.215 23.936 6.469-21.154 29.863-45.203 58.237-68.381 89.037zm37.425 269.293c-26.138 14.871-50.95 29.114-75.826 43.242-4.038 2.293-8.298 4.233-12.575 6.054-4.274 1.82-7.93.274-10.391-3.326-2.482-3.63-2.292-7.767.465-11.117 2.07-2.515 4.868-4.495 7.544-6.435a990.162 990.162 0 0 1 21.195-14.973c71.885-49.292 143.795-98.548 215.685-147.833 11.108-7.616 23.19-12.976 36.3-16.031 5.132-1.197 9.16.196 11.823 5.14.202 7.28-4.583 12.122-9.057 16.98-9.045 9.82-17.872 19.782-23.221 32.223-2.271 5.282-6.623 8.061-11.316 10.735-23.7 13.506-47.298 27.191-71.026 40.648-26.045 14.77-52.192 29.359-79.6 44.693zm-608.358-184.037c17.048 30.214 33.494 59.085 49.78 88.046 2.587 4.602 4.888 9.468 6.51 14.475 1.317 4.063-.339 7.874-4.007 10.392-4.06 2.788-7.84 1.267-10.665-1.788-3.585-3.877-6.745-8.195-9.74-12.56-52.632-76.725-105.115-153.55-157.898-230.168-8.068-11.711-14.014-24.126-16.832-37.938-.572-2.804.434-6.976 2.332-8.997 2.987-3.182 7.563-2.342 11.044-.071 4.996 3.26 9.848 6.826 14.355 10.73 8.537 7.395 16.729 14.984 27.215 19.963 4.306 2.045 7.7 7.09 10.291 11.488 12.815 21.755 25.282 43.718 37.758 65.671 13.134 23.11 26.14 46.294 39.857 70.758z" fill="#fefdf8"/><path d="m2057.482 1994.36c68.155 21.438 133.612 45.504 198.682 73.554-.107 119.898-.8 239.02-1.336 358.14-.014 3.139-.698 6.274-1.115 9.791-8.136 1.796-13.77-2.637-19.585-5.049-53.552-22.207-108.292-40.925-164.076-56.642-59.668-16.811-120.218-29.42-181.723-37.11-52.348-6.544-104.982-7.821-157.557-4.102-45.284 3.204-89.692 11.855-132.622 27.167-5.425 1.935-11.009 3.424-17.132 5.308-.553-3.232-1.414-5.183-1.103-6.925 3.04-16.996 115.43-413.456 120.536-425.157 21.275-2.52 43.079-1.386 64.871.324 99.419 7.8 195.68 30.887 292.16 60.701zm540.95 348.19c-54.564 7.973-106.284 20.622-157.523 35.35-51.894 14.915-102.776 32.746-152.592 53.6-4.876 2.04-9.913 3.693-16.248 6.033-1.106-4.217-2.791-7.726-2.832-11.254-.385-33.326-.534-66.654-.666-99.982-.312-79.322-.592-158.643-.833-237.965-.02-6.568.352-13.138.55-19.99 4.762-2.388 8.757-4.722 12.995-6.468 98.66-40.646 199.244-75.5 303.192-100.117 59.719-14.142 120.107-24.316 181.354-28.734 19.164-1.383 38.446-2.108 57.957.269 1.354 2.707 2.936 4.916 3.621 7.376 38.95 139.814 77.83 279.647 116.624 419.505.278 1.004-.732 2.367-1.56 4.788-3.509-.834-7.272-1.336-10.75-2.613-58.198-21.36-118.469-30.336-180.26-31.102-50.776-.63-101.197 2.825-153.03 11.304z" fill="#fefeff"/><path d="m2289.742 2479.769c-3.43 13.556-13.399 17.116-24.019 18.937-10.884 1.865-20.983-.942-29.273-8.523-6.44-5.89-6.606-14.787-.637-21.086 8.548-9.018 19.525-10.531 30.975-8.886 10.899 1.566 20.393 5.713 22.954 19.558z" fill="#f8f8f8"/><path d="m2150.856 2972.07v-44.59c4.816-.896 8.505-2.166 12.198-2.18 32.57-.123 65.151-.8 97.648 2.405 23.288 2.296 45.992 6.95 67.62 16.066 6.721 2.833 13.419 5.878 19.72 9.53 44.583 25.835 62.585 65.587 58.188 115.69-3.79 43.183-26.276 74.334-65.12 93.72-25.381 12.668-52.454 19.775-80.494 20.978-31.174 1.337-62.457.196-93.69-.076-4.522-.04-9.033-1.25-12.978-1.835-4.887-6.837-2.989-13.69-3.003-20.112-.146-62.537-.088-125.074-.089-189.596z" fill="#fdfdfe"/><path d="m2150.847 2700.034c.59-19.849-1.27-37.79 1.201-56.219 4.884-1.208 9.268-2.842 13.774-3.32 37.135-3.934 74.324-5.433 111.459-.286 20.529 2.845 40.38 8.246 58.595 18.6 30.886 17.556 46.721 44.085 48.514 79.565 2.447 48.4-20.557 80.972-62.338 102.18-24.213 12.29-50.423 17.08-77.13 18.014-28.592 1-57.247.201-85.875.087-1.884-.007-3.766-.863-5.149-1.201-.855-.911-1.377-1.321-1.701-1.852-.34-.558-.696-1.23-.699-1.855-.238-50.573-.444-101.147-.651-153.713z" fill="#fdfdfd"/><path d="m2915.69 3555.54c.057-8.557.06-15.221.22-21.882.03-1.223.698-2.43 1.073-3.645 9.585-1.981 41.302-3.207 49.21-1.901 15.802 2.609 23.563 16.407 17.34 31.498-1.185 2.874-3.66 5.99-6.36 7.293-4.677 2.256-9.953 4.26-15.054 4.464-14.55.582-29.14.205-44.947.205-.56-5.345-1.021-9.741-1.482-16.031z" fill="#f8f8f8"/><path d="m2967.031 3484.283c-8.546 1.892-15.593 3.425-22.708 3.867-8.518.528-17.093.124-26.328.124-4.93-13.101-.704-26.075-2.496-38.498 11.68-2.836 38.094-3.885 45.843-2.094 8.514 1.967 13.502 7.652 14.621 16.456.994 7.812-1.268 14.302-8.932 20.145z" fill="#f9f9f9"/><path d="m1140.335 3527.713c12.575-.012 23.216-.228 33.84.094 4.567.138 9.374.676 13.591 2.289 8.215 3.14 12.22 9.604 12.52 18.547.295 8.799-2.645 15.667-10.744 19.63-2.93 1.434-6.196 2.832-9.371 2.991-9.283.464-18.598.396-27.899.34-6.506-.038-13.01-.4-20.696-.657-1.238-13.44-.921-25.906-.365-38.36.196-4.38 3.733-4.784 9.124-4.874zm22.565-80.878c5.155.166 8.565-.125 11.756.58 10.98 2.422 16.107 8.712 16.316 19.378.197 10.025-5.582 17.934-15.517 20.402-3.804.945-7.884.999-11.844 1.054-9.907.138-19.818.046-30.717.046-3.887-13.284-1.458-26.21-1.858-39.957 10.422-2.84 20.325-.921 31.865-1.503z" fill="#f8f8f8"/><path d="m2050.335 3557.666c-3.797 9.094-10.25 12.858-17.756 13.465-16.446 1.329-32.943.808-50.696.136-1.326-14.422-.845-27.485-.407-41.86 4.178-.655 7.862-1.656 11.565-1.733 10.65-.224 21.316-.323 31.964-.018 20.44.583 26.401 7.283 25.33 30.01zm-35.351-110.959c4.46.119 7.182-.143 9.721.42 12.267 2.72 17.382 8.929 17.175 20.432-.199 11.022-6.434 18.861-17.835 20.18-13.644 1.577-27.39.822-41.957.206-1.868-13.745-.648-26.034-.882-39.289 11.153-3.448 21.686-1.31 33.778-1.95z" fill="#f0f0f0"/><path d="m3667.636 3795.23c-1.071 13.075-4.131 23.834-9.838 33.807-16.747 29.269-54.037 36.372-77.69 6.105-20.77-26.58-18.752-67.965 1.84-92.66 17.863-21.423 50.413-21.13 68.398-.558 12.977 14.843 17.828 32.299 17.29 53.306z" fill="#f9f9f9"/><path d="m3214.11 3755.41c6.473-13.323 15.404-22.116 27.739-26.7 18.261-6.784 38.94.02 51.644 16.225 19.252 24.554 19.836 64.508 1.31 89.735-18.52 25.22-51.628 26.724-72.08 3.105-8.944-10.327-14.343-22.414-15.437-36.1-1.228-15.363-1.163-30.643 6.825-46.266zm-1322.768-3.14c4.058-5.469 7.017-9.997 10.828-13.632 16.768-15.987 42.607-16.587 59.74-.97 20.691 18.863 25.367 43.173 20.315 69.4-1.833 9.514-6.272 19.14-11.73 27.225-16.558 24.533-47.999 27.19-69.047 6.455-15.793-15.557-20.62-35.17-19.223-56.584.696-10.662 3.09-21.057 9.117-31.894z" fill="#fafafa"/><path d="m568.31 3496.066c.043-15.286.061-28.588.173-41.889.01-1.242.616-2.48.946-3.72 10.692-2.936 32.717-3.966 40.8-1.622 12.757 3.7 22.725 11.49 28.85 23.063 12.255 23.157 13.13 47.025 1.78 70.884-7.737 16.267-20.79 25.9-38.707 27.61-10.418.994-21.008.181-32.681.181-2.152-12.993-.9-24.858-1.113-36.606-.218-11.968-.049-23.944-.049-37.901z" fill="#f8f8f8"/><path d="m1763.086 3553.085c3.685 4.773 6.463 8.41 9.518 12.41-6.651 8.552-14.796 11.826-24.558 11.514-6.254-.2-11.532-2.765-15.787-7.401-4.869-5.306-5.98-11.81-5.385-18.57.854-9.71 4.849-17.697 14.329-23.027 8.428 6.998 14.018 16.095 21.883 25.074zm-18.648-90.367c.726-6.071.899-10.86 2.633-14.996 3.034-7.238 8.512-9.775 16.005-8.678 6.853 1.003 11.409 5.822 12.563 13.437 1.395 9.199-.856 17.272-8.305 23.168-3.56 2.818-7.775 4.809-11.638 7.14-7.433-4.528-9.169-11.572-11.258-20.071zm651.581 38.578c2.352 8.525 6.52 14.885 5.377 23.236h-37.419c.316-13.74 6.006-32.438 18.089-59.449 7.411 10.97 8.776 23.483 13.953 36.213zm915.454-26.148c1.529-3.744 2.621-5.94 3.999-8.706 8.74 14.39 17.497 39.275 20.356 57.504-12.99 2.208-25.89 1.818-39.856.176 3.4-16.92 10.226-31.875 15.5-48.974zm524.191 50.114-26.66.001c.016-11.89 5.11-21.171 8.353-30.676 3.301-9.675 4.308-20.613 12.99-29.494l19.582 58.29c-5.246.793-8.836 1.336-14.265 1.88zm-3427.994-48.72c1.658-4.34 2.952-7.245 4.507-10.738 7.668 13.373 16.367 37.9 20.164 56.277-11.957 4.236-22.95 4.463-40.48.504 5.177-14.952 10.31-29.782 15.809-46.043z" fill="#f0f0f0"/><path d="m3665.157 3508.022c-12.909.302-24.113.302-36.26.302-2.307-19.482-.846-38.587-.9-58.789 13.274-3.107 26.416-2.847 39.245-.45 8.056 1.504 13.978 7.322 16.87 15.565 2.969 8.46 3.512 16.799.332 25.377-3.209 8.654-8.694 14.801-19.287 17.995z" fill="#f9f9f9"/></svg>