<svg height="2500" viewBox="181 363.8 717.4 350.4" width="2500" xmlns="http://www.w3.org/2000/svg"><path d="m758.1 367.1c-64.3 5-120.4 48.1-142.5 109.7-7.1 19.7-10.6 40.5-10.6 63.1 0 31.1 5.7 54.8 20.2 83.4 8.3 16.3 16 27.2 27.7 38.7 35.5 35.1 82.4 52.2 134.6 48.9 34.7-2.2 59.3-9.7 83.3-25.6 8.4-5.6 27.5-22.9 27-24.4-.2-.5-10.6-12.1-23.3-25.8l-23-24.9-5.5 5.2c-20.4 19.3-41.6 27.6-71.1 27.6-12.8 0-23.9-2-36.6-6.5s-16.3-6.8-27.8-17.7c-15.1-14.3-22.3-26.9-27.7-48.6-3-11.8-3.2-38.5-.4-51.2 7-32.2 20.9-52.9 43-64.1 17.9-9.2 33.4-12.4 54.9-11.6 16.8.6 29.1 3.4 41.9 9.5 9.7 4.6 12.8 6.9 22.3 16.1l7 6.7 23-24.8c12.7-13.7 23.1-25.2 23.3-25.7.6-1.6-13.6-16.8-22.1-23.6-30.5-24.5-75.6-37.7-117.6-34.4z"/><path d="m328.5 367.7c-6.8.8-18.5 3.7-26.5 6.5-16.5 5.8-27.9 12.9-39.9 24.6l-6.1 6v-30.8h-75v330h75v-104.8c0-119.9-.4-114.1 8.9-129.7 5.2-8.9 8-12.1 14.6-17.2 12.8-9.8 27.2-14.3 45.5-14.4 14.6 0 23.7 1.9 36 7.8 16.9 8.1 27.9 22.3 33 42.7 1.9 7.7 2 11.3 2 111.8v103.8h68.9l.4-103.8c.4-116.6.1-111.7 7.9-127.1 11.6-23.1 33.3-35.2 62.8-35.2 14.1 0 23.5 2.1 35 7.7 15.1 7.5 26.5 20.7 31.1 36.1.7 2.4 1.5 4.3 1.8 4.3s2.3-5.3 4.4-11.8c7.2-22.4 15.7-36.8 32.8-56.1l9.3-10.5-7.5-6.9c-16.9-15.9-33.7-24.9-57.4-30.8-11.6-2.9-37.6-3.7-51-1.5-19.7 3.3-41.4 12.4-56.5 23.7-8.1 6.1-20.6 18.7-25.5 25.6-1.7 2.4-3.3 4.3-3.6 4.3s-2.7-3.2-5.3-7c-9.5-13.9-24.9-27.6-38.9-34.7-9.7-4.9-25.6-10-36.7-11.8-8.6-1.4-31.3-1.9-39.5-.8zm277.5 284v52.3h75v-8.8l-9.6-6.8c-17.8-12.6-30.5-24.9-41.7-40.2-5.8-7.9-16.1-28-20.3-39.7l-3.3-9z"/></svg>