<svg clip-rule="evenodd" fill-rule="evenodd" height="1747" stroke-linejoin="round" stroke-miterlimit="2" viewBox="-25.642 -6.101 2454.136 1726.6734813" width="2500" xmlns="http://www.w3.org/2000/svg"><path d="m1491.06 658.099c52.613 142.654 105.582 285.178 158.462 427.73 16.142 43.511 39.29 89.139 34.044 137.4-7.986 73.47-92.639 135.741-165.032 112.056-41.475-13.568-63.736-48.574-80.222-86.5-28.96-61.55-48.068-127.188-70.22-191.28l-11.94-34.496c-4.743-13.843-16.825-21.25-29.64-21.788l-179.388-5.586c-33.91-1.044-60.826-29.64-59.782-63.55l2.315-73.44c1.045-33.91 29.414-60.6 63.368-59.556l85.337 2.631c40.386 1.308 30.838-44.198 23.557-67.998-33.991-111.14-72.005-221.009-108.214-331.449-34.388 136.631-69.985 272.96-103.903 409.708-16.76 67.576-24.249 142.12-64.683 201.585-77.113 113.41-250.479 122.015-342.895 22.759-46.437-49.873-60.478-117.56-76.482-181.36-35.35-140.946-74.397-281.102-103.539-423.46l-83.066 332.497-67.137 269.218-39.354 146.208c-20.22 67.496-43.64 180.769-133.862 182.837-16.623.385-33.773.437-49.7-4.355-15.955-4.804-31.072-13.251-43.943-23.832-70.783-57.21-42.697-145.531-20.201-219.786l126.646-435.446 124.69-428.774c6.412-24.443 28.9-103.207 28.96-103.402 14.44-49.24 51.114-142.297 117.339-143.483v-.275h.684c58.03 0 120.624 5.144 154.088 60.526 17.64 29.202 28.944 80.763 37.148 112.281l164.774 621.597c6.172 23.516 39.58 23.516 45.846 0l164.905-621.596c13.62-51.792 25.65-89.101 36.314-111.937 10.115-22.209 28.69-39.937 50.432-48.161 26.479-10.014 71.16-21.723 108.44-11.936 101.09 26.54 122.405 151.465 151.203 235.495l74.308 201.176 30.093 81.525 32.728 88.83zm904.026 128.597c22.152 46.028 33.32 102.494 33.408 169.314 0 80.117-19.29 152.11-57.737 215.975-38.447 63.82-94.736 113.799-168.813 149.975-6.856 3.36-13.846 6.537-20.925 9.577-68.27 29.186-143.35-22.379-143.35-98.953 0-37.54 18.61-72.855 49.885-91.74 8.625-5.174 16.842-10.937 24.65-17.203 46.298-37.038 69.45-83.204 69.45-138.626 0-43.984-12.482-79.618-37.451-107.08-24.965-27.374-57.284-48.344-96.82-62.777-39.63-14.434-92.51-29.778-158.78-46.073-88.696-22.24-162.96-48.298-222.74-78.12s-107.215-70.447-142.302-121.923c-35.088-51.565-52.658-115.523-52.658-192.009 0-72.9 18.521-137.627 55.56-194.23 37.131-56.605 90.651-100.136 160.871-130.548 70.176-30.369 152.7-45.62 247.569-45.62 75.757 0 141.302 10.123 196.635 30.276 55.289 20.2 101.18 46.983 137.675 80.39 36.452 33.409 63.141 68.54 79.983 105.264 16.886 36.767 25.28 72.583 25.28 107.534 0 31.91-10.527 60.643-31.59 86.199-21.063 25.6-47.3 38.403-78.712 38.403-28.64 0-50.427-7.719-65.229-23.059-14.931-15.389-31.048-40.447-48.477-75.397-22.467-50.067-49.387-89.06-80.844-117.02-31.409-28.054-81.978-42.034-151.563-42.034-64.55 0-116.656 15.207-156.192 45.62-39.585 30.412-59.373 66.997-59.373 109.804 0 26.462 6.715 49.383 20.197 68.629 13.438 19.294 32.003 35.86 55.56 49.707 23.56 13.843 47.436 24.694 71.54 32.502 24.191 7.852 64.047 19.334 119.607 34.359 69.633 17.432 132.636 36.767 189.058 57.83s104.445 46.62 144.03 76.757c39.58 30.141 70.446 68.224 92.598 114.297z"/><path d="m803.095 1154.099c28.737 0 53.2 10.078 73.49 30.279 20.246 20.108 30.413 44.526 30.413 73.215 0 32.866-10.122 58.648-30.413 77.392-20.241 18.748-44.073 28.098-71.401 28.098-28.232 0-52.61-9.257-73.126-27.778s-30.773-44.442-30.773-77.757c0-28.235 9.758-52.52 29.368-72.899 19.562-20.383 43.758-30.55 72.442-30.55zm1042.658 0c28.733 0 53.2 10.078 73.49 30.279 20.242 20.108 30.409 44.526 30.409 73.215 0 32.866-10.119 58.648-30.409 77.392-20.245 18.748-44.077 28.098-71.402 28.098-28.235 0-52.609-9.257-73.126-27.778-20.52-18.521-30.777-44.442-30.777-77.757 0-28.235 9.759-52.52 29.369-72.899 19.561-20.383 43.757-30.55 72.446-30.55zm-1698.695 500.775h1.283l12.705-83.997c1.016-6.42 2.449-11.819 4.319-16.138 1.853-4.326 4.136-7.823 6.868-10.555 2.801-2.696 5.91-4.598 9.407-5.711 3.468-1.085 7.305-1.66 11.563-1.66 4.894 0 9.313.51 13.223 1.526 3.878 1.02 7.278 2.866 10.164 5.468 2.865 2.64 5.209 6.326 6.99 11.054 1.785 4.772 3.084 10.936 3.942 18.55l14.494 144.11h-42.203l-7.873-144.608h-.518c-1.526 12.45-4.258 28.842-8.131 49.169-3.914 20.338-8.447 45.562-13.604 75.61-1.206 6.457-3.776 11.884-7.747 16.268-4.003 4.383-8.775 6.605-14.364 6.605-5.278 0-9.981-2.024-14.11-6.095-4.165-4.064-6.99-10.483-8.52-19.315l-21.354-118.183h-.502l-7.634 140.55h-42.073l14.494-144.864c.672-7.436 1.943-13.507 3.808-18.174 1.85-4.646 4.234-8.293 7.128-10.932 2.854-2.602 6.23-4.383 10.038-5.334 3.873-.923 8.293-1.405 13.21-1.405 18.117 0 28.795 10.775 32.037 32.283zm214.217-115.005v41.167h-4.318c-5.788 0-12.18.32-19.198.895-7.05.603-13.28 2.347-18.683 5.213-3.752 2.027-6.86 4.921-9.406 8.645-2.546 3.647-5.08 8.188-7.626 13.588h59.231v38.633h-59.23c2.359 5.59 4.76 10.135 7.248 13.591 2.44 3.497 5.242 6.298 8.39 8.39 3.11 2.13 6.796 3.656 11.054 4.57 4.222.867 9.314 1.368 15.251 1.526 2.542.199 5.214.255 8.01.255h9.277v41.18h-26.183c-11.377 0-21.925-2.227-31.651-6.74-9.755-4.476-18.238-10.697-25.419-18.679-7.115-7.945-12.773-17.315-16.902-28.09-4.165-10.826-6.229-22.609-6.229-35.314 0-12.527 2.028-24.183 6.1-34.958 4.071-10.827 9.697-20.225 16.906-28.207 7.184-7.937 15.627-14.223 25.289-18.804 9.726-4.57 20.367-6.861 31.906-6.861zm110.105 115.005h1.27l12.713-83.997c1.02-6.42 2.44-11.819 4.319-16.138 1.845-4.326 4.128-7.823 6.86-10.555 2.81-2.696 5.918-4.598 9.415-5.711 3.46-1.085 7.306-1.66 11.568-1.66 4.889 0 9.309.51 13.223 1.526 3.873 1.02 7.265 2.866 10.159 5.468 2.865 2.64 5.213 6.326 6.994 11.054 1.78 4.772 3.08 10.936 3.938 18.55l14.486 144.11h-42.195l-7.88-144.608h-.51c-1.526 12.45-4.258 28.842-8.132 49.169-3.91 20.338-8.455 45.562-13.6 75.61-1.206 6.457-3.78 11.884-7.758 16.268-3.995 4.383-8.775 6.605-14.353 6.605-5.278 0-9.981-2.024-14.122-6.095-4.156-4.064-6.99-10.483-8.507-19.315l-21.359-118.183h-.51l-7.625 140.55h-42.074l14.498-144.864c.668-7.436 1.93-13.507 3.809-18.174 1.845-4.646 4.23-8.293 7.123-10.932 2.858-2.602 6.221-4.383 10.038-5.334 3.874-.923 8.293-1.405 13.215-1.405 18.113 0 28.794 10.775 32.036 32.283zm235.183-58.203c0 8.484-1.235 16.486-3.684 24.018-2.48 7.557-6.233 14.203-11.32 19.95-5.015 5.78-11.366 10.293-19.06 13.592-7.719 3.31-16.907 4.97-27.576 4.97h-10.171v-41.179l7.362-.255c6.776-.32 11.855-2.028 15.26-5.08 3.363-3.055 5.087-8.297 5.087-15.76 0-4.995-1.627-9.407-4.833-13.212-3.242-3.82-7.815-5.723-13.725-5.723-5.278 0-9.35 1.652-12.203 4.958-2.894 3.3-4.319 7.371-4.319 12.196v122.375h-44.117v-116.276c0-9.398 1.404-18.08 4.201-26.054 2.793-7.933 6.893-14.769 12.329-20.452 5.403-5.662 12.017-10.074 19.832-13.223 7.881-3.108 16.806-4.703 26.815-4.703 8.803 0 16.906 1.595 24.277 4.703 7.37 3.15 13.66 7.44 18.938 12.839 5.343 5.436 9.471 11.782 12.458 19.056 2.96 7.313 4.449 15.06 4.449 23.26zm65.213-56.802v62.137h35.08v-62.137h44.109v177.652h-44.11v-72.81h-35.08v72.81h-44.109v-177.651zm108.4 0h44.118v177.654h-44.118zm164.996 0v41.167h-45.252c-2.546 0-4.797.575-6.74 1.66-1.97 1.113-2.922 3.015-2.922 5.71 0 2.291 1.688 4.959 5.08 8.01 3.375 3.056 8.645 6.865 15.76 11.435 6.776 4.42 12.969 8.767 18.558 13.093 5.598 4.315 10.366 8.735 14.365 13.211 3.975 4.517 7.059 9.249 9.28 14.235 2.19 5.023 3.312 10.394 3.312 16.142 0 8.888-1.02 16.392-3.056 22.492-2.036 6.095-5.278 11.28-9.661 15.501-5.428 5.432-12.523 9.277-21.225 11.568-8.735 2.287-18.53 3.428-29.361 3.428h-46.906v-41.179h46.643c4.391 0 8.135-.696 11.187-2.157 3.056-1.518 4.582-3.967 4.582-7.362 0-3.222-1.846-6.52-5.464-9.913-3.66-3.375-9.127-7.532-16.4-12.462-6.865-4.57-12.932-9.018-18.174-13.345-5.278-4.318-9.633-8.633-13.09-12.96-3.496-4.314-6.107-8.766-7.888-13.336-1.773-4.582-2.667-9.435-2.667-14.62 0-8.285 1.299-15.558 3.946-21.856 2.603-6.257 6.286-11.499 11.058-15.757 4.731-4.225 10.32-7.399 16.777-9.532 6.512-2.092 13.664-3.173 21.48-3.173zm229.322 177.652h-44.101v-61.886h-27.71v-40.159h27.71v-17.53c0-5.844-1.623-10.802-4.837-14.874-3.23-4.06-7.621-6.1-13.211-6.1s-10.01 2.04-13.227 6.1c-3.23 4.072-4.825 9.03-4.825 14.874v119.575h-44.11v-117.794c0-9.058 1.474-17.444 4.449-25.167 2.963-7.69 7.184-14.36 12.717-19.95 5.492-5.59 12.005-9.945 19.574-13.094 7.625-3.108 16.072-4.703 25.422-4.703 9.471 0 18.076 1.631 25.803 4.837 7.682 3.242 14.235 7.682 19.57 13.336 5.399 5.691 9.564 12.394 12.458 20.084 2.857 7.719 4.318 15.947 4.318 24.657zm151.49-127.84c0 22.306-10.03 34.437-30.114 36.472v.51c1.178.34 2.95.753 5.335 1.271 2.347.51 4.23.956 5.598 1.267 6.86 2.222 11.818 4.833 14.862 7.889 4.731 4.57 7.128 10.92 7.128 19.055v61.376h-44.62v-54.005c0-4.23-1.49-7.504-4.448-9.783-2.987-2.29-8.868-3.59-17.671-3.942h-4.574v-40.16c8.135 0 14.138-1.177 18.052-3.561 3.873-2.348 5.84-7.108 5.84-14.223 0-4.833-1.74-8.33-5.209-10.548-3.489-2.194-6.986-3.307-10.548-3.307-5.78 0-9.88 1.874-12.328 5.59-2.477 3.752-3.688 9.633-3.688 17.663v116.276h-46.145v-116.276c0-9.556 1.433-18.33 4.327-26.304 2.857-7.938 7.022-14.741 12.454-20.331 5.407-5.59 11.989-9.945 19.707-13.094 7.783-3.108 16.68-4.703 26.69-4.703 8.454 0 16.335 1.15 23.64 3.44 7.274 2.291 13.535 5.655 18.813 10.03 5.343 4.42 9.472 9.917 12.459 16.53 2.958 6.598 4.44 14.223 4.44 22.868zm130.017-49.812v42.693h-32.534v134.96h-44.11v-134.96h-32.545v-42.693zm179.919 0v41.167h-45.25c-2.539 0-4.797.575-6.732 1.66-1.967 1.113-2.922 3.015-2.922 5.71 0 2.291 1.68 4.959 5.08 8.01 3.367 3.056 8.645 6.865 15.76 11.435 6.768 4.42 12.969 8.767 18.558 13.093 5.598 4.315 10.358 8.735 14.365 13.211 3.966 4.517 7.059 9.249 9.273 14.235 2.197 5.023 3.31 10.394 3.31 16.142 0 8.888-1.02 16.392-3.047 22.492-2.036 6.095-5.278 11.28-9.658 15.501-5.44 5.432-12.527 9.277-21.237 11.568-8.738 2.287-18.521 3.428-29.356 3.428h-46.903v-41.179h46.648c4.38 0 8.14-.696 11.187-2.157 3.052-1.518 4.578-3.967 4.578-7.362 0-3.222-1.846-6.52-5.464-9.913-3.66-3.375-9.123-7.532-16.4-12.462-6.873-4.57-12.94-9.018-18.182-13.345-5.278-4.318-9.625-8.633-13.09-12.96-3.497-4.314-6.1-8.766-7.88-13.336-1.781-4.582-2.667-9.435-2.667-14.62 0-8.285 1.299-15.558 3.938-21.856 2.61-6.257 6.298-11.499 11.057-15.757 4.732-4.225 10.33-7.399 16.777-9.532 6.52-2.092 13.665-3.173 21.48-3.173zm158.791 177.652h-44.105v-61.886h-27.713v-40.159h27.713v-17.53c0-5.844-1.623-10.802-4.837-14.874-3.234-4.06-7.625-6.1-13.215-6.1s-10.01 2.04-13.215 6.1c-3.25 4.072-4.833 9.03-4.833 14.874v119.575h-44.11v-117.794c0-9.058 1.462-17.444 4.449-25.167 2.959-7.69 7.18-14.36 12.713-19.95 5.497-5.59 12.009-9.945 19.578-13.094 7.625-3.108 16.076-4.703 25.418-4.703 9.463 0 18.076 1.631 25.807 4.837 7.69 3.242 14.23 7.682 19.578 13.336 5.387 5.691 9.564 12.394 12.45 20.084 2.853 7.719 4.322 15.947 4.322 24.657zm72.556-177.652v117.041c0 6.796 1.53 11.5 4.581 14.098 3.044 2.639 8.698 3.942 17.032 3.942h31.271v42.571h-35.343c-21.188 0-36.795-4.476-46.776-13.466-9.917-8.965-14.863-23.16-14.863-42.575v-121.611zm244.735 88.831c0 12.704-2.376 24.644-7.107 35.832-4.78 11.114-11.252 20.804-19.457 29.097-8.224 8.322-17.857 14.875-28.846 19.7-10.936 4.824-22.593 7.236-34.958 7.236-12.705 0-24.593-2.469-35.59-7.358-11.03-4.894-20.585-11.568-28.729-19.954-8.066-8.39-14.421-18.089-19.068-29.106-4.662-11.082-6.994-22.905-6.994-35.448 0-12.713 2.36-24.6 7.128-35.71 4.732-11.188 11.18-20.906 19.323-29.228 8.188-8.293 17.82-14.874 28.85-19.699 10.997-4.824 22.686-7.249 35.08-7.249 12.863 0 24.787 2.51 35.719 7.504 10.989 5.015 20.585 11.685 28.72 20.076 8.144 8.386 14.495 18.169 19.065 29.348 4.581 11.123 6.864 22.755 6.864 34.958zm-90.368 46.626c6.605 0 12.713-1.206 18.303-3.687 5.597-2.534 10.357-5.966 14.364-10.28 4.072-4.327 7.245-9.314 9.536-15.005 2.283-5.658 3.432-11.555 3.432-17.655s-1.113-11.952-3.307-17.542c-2.226-5.585-5.346-10.478-9.406-14.74-4.007-4.315-8.831-7.784-14.486-10.415-5.695-2.61-11.916-3.938-18.691-3.938-6.61 0-12.705 1.328-18.303 3.938-5.59 2.631-10.39 6.1-14.364 10.414-4 4.263-7.116 9.156-9.407 14.741-2.29 5.59-3.432 11.443-3.432 17.542s1.141 11.997 3.432 17.655c2.291 5.691 5.464 10.678 9.536 15.004 4.072 4.315 8.9 7.747 14.486 10.281 5.602 2.481 11.697 3.687 18.307 3.687zm208.871-41.547h.506v-93.91h44.101v155.541c0 3.554-.631 6.86-1.894 9.908-1.283 3.052-3.028 5.72-5.213 8.01-2.235 2.291-4.704 4.06-7.513 5.335a20.895 20.895 0 0 1 -8.762 1.902c-7.051 0-12.839-2.384-17.409-7.115-4.581-4.732-9.256-11.685-13.988-20.84l-41.179-79.162h-.51v104.073h-44.097v-157.07c0-3.202.631-6.258 1.894-9.14a22.718 22.718 0 0 1 5.343-7.504c2.29-2.092 5.023-3.808 8.256-5.08 3.214-1.27 6.776-1.914 10.678-1.914 8.042 0 14.364 1.66 18.938 4.966 4.578 3.3 8.301 7.751 11.195 13.337z"/></svg>