<svg height="750" viewBox="-.16357359 -.83 449.88357359 134.16" width="2500" xmlns="http://www.w3.org/2000/svg"><path d="m400.9 35.66c2.14.62 6.61.05 12 .51 11.73 1 11.67-7.53 11.17-8.46s-2.79-8.37-12.84-3.93c-2 .93-7.78 6.71-12.84 6.71-3.84 0-15.24 2.17-14.72-8.53s-2.91-15-6-15.9-12.29-.95-16.92 3.08-5.23 11.86-5.23 11.86 2 4.78.72 7.37c-3.55 7.35-15 2.6-20.44.71s-4.09-5.46-3.81-8.54-2.33-8.55-11.53-9.74-12 3.56-12 3.56a25.69 25.69 0 0 0 -4.5 8.07c-1.76 4.76-.37 18.1 11.14 25.66 8.56 5.55 33.24 1.46 36.63-.26 8.62-4.32 9 5.45 9 8s-2.29 3.58-5.36 4.3-27.9 3.5-33.37 5.47a44.55 44.55 0 0 0 -5.79 2.4c-7.06-2.63-11.74 1.8-13.32 7.52-4.1 15.32 7.54 12.39 10.18 11.91s31.58-9.5 39.68-11.43 9.54-1.63 11.59 1.92 2.22 13.53 1.89 16.14c-.28 2.41-.65 7.05 4.26 7.28-3.4.93-2.7 6.05-3.55 7.49-.66 1-3.48 6.24-4.69 7.68s-3.09 4.83.38 8.62 9.63 8.2 13.09 3.73 4.23-4.45 2.38-13.94c-1.55-7.84-1.74-13-5.06-13.75 4.6-.68 3.6-3.29 4.36-15.9.87-13.77 9-14.73 13.53-16.6s15.74-2.83 22.85-4.27 6.22-8.3 2.91-10.4c-8.61-5.63-15.84-1.65-24.21.24s-11.28-2.59-11.28-2.59l.16-5.45c19.1-5.29 19.54-10.54 19.54-10.54z" fill="#2d2a26"/><g fill="#00b451"><path d="m90.89 52.39a36.89 36.89 0 0 0 32-13.37 37 37 0 0 0 8.14-23.54v-1.24a14.12 14.12 0 0 0 -14.09-14.12h-56.16a37 37 0 0 0 30.11 52.27z"/><path d="m86.34 69a46.1 46.1 0 0 1 -39.85-68.88h-32.36a14.13 14.13 0 0 0 -14.13 14.12v75a117.5 117.5 0 0 1 131.07 20.35v-73.52a.14.14 0 0 0 -.28 0 46.15 46.15 0 0 1 -44.45 32.93z"/><path d="m128.77 117.72a99.89 99.89 0 0 0 -126.83-2.41 3.85 3.85 0 0 0 -1.74 4.13 14.14 14.14 0 0 0 13.93 11.75h102.81a14.14 14.14 0 0 0 13.43-9.77c.39-1.36-.24-2.42-1.6-3.7z"/></g><g fill="#2d2a26"><path d="m285 37.61c-1.19-10.2-10.94-9.25-25.84-8.8-8.6.28-14 1-17.85.72s-25.84-.46-30.1-.72-6.21-3.76-1.21-3.32 7.34-3.81 11.27-4.78c11.57-2.84 21.94 6.7 21.94 6.7h7.12a20.67 20.67 0 0 0 5.24-3.8c2.58-2.62 4.75-2.14 6.63-1.91a86.83 86.83 0 0 0 14 0c5.72-.46 6.18-2.85 5.95-4.76s-3.8-4.49-6.65-4.49-10.94.73-16.63 1-6.44-6.92-6.87-8.11-4.05-4-7.37-4.26c-9.23-.69-8.32 7.57-8.32 9s-4.31 3.58-4.31 3.58-20.86.69-23.94.47-1.42-6.65-1.69-8.3-5.64-6.66-12.54-5.71-5.7 8.76-5.7 11.18a1.69 1.69 0 0 1 -2.13 1.88h-6.62c-6.4-3.57-7.62-2.12-10.92-.73s-4.25 6.17-1.46 12.35 12.08 1 13.55.46 11.15-.21 11.15 1.92c0 4.05-5 3.55-7.13 3.07s-10 0-13.51.24-3.81 1-6.17 5.69-2.62 30.37 9.23 29.65 10-13 10.23-20.88c.29-9.07 18-8.29 22-7.84a46.91 46.91 0 0 0 12.1.28c17.33-1.33 22.56-1 36.07-1s15.48 15.12 15.48 15.85-.26 7.06 1.4 11.09 1.08 3.45 2.27 8.16 4.14 5.27 8.2 1.69c5.63-5.03 4.23-25.36 3.13-35.57z"/><path d="m208.29 48.27c1.91-.7 31.55-.7 33.69-.7s4.61-.41 6.06.53a17.77 17.77 0 0 1 2.35 1.9c8.58-3.29 3.69-9.13 2.28-10.06s-5.94 0-7.36.48-28.46-.42-40.56-.42c-9.41 0-12.1 4.27-12.1 4.27-2.75 3.14.21 4.22 4.35 4.56 4.74.38 9.4.17 11.29-.56zm66.38 57.44a3.6 3.6 0 0 0 -3.34-1.48 5.42 5.42 0 0 0 1.26-3.28c0-1.46-1-9.49-2.86-12.81s-16.35-22.78-19.44-24.42c-7.13-3.84-16.21 7.07-16.21 7.07-.78-2.52-6.34-6.39-7-7.07s2.81-2.41 2.81-2.41c1.45.25 18.3-1.89 20.89-.93 7.33 2.65 6.87 0 9-3.8s-1.68-6.17-5-5.94-57.16 0-58.83-.23-6.41-.49-7.85 2.38c-4.26 8.65 5.97 10.21 5.97 10.21 1.19 0 .73.26 4.51-1.18s2.84 1.92.49 2.6-21.83 8.69-25.33 10.48c-2.84 1.48-3.35 4.08-1.91 5.73s2.59 2.45 7.1.81 23.7-12.27 25.33-13c2.91-1.27 4.66 3.36-.23 4.73-6.51 1.78-32.32 14.46-33.25 15.66s-2.78 6.17 1.49 7.36 22.53-10.67 24.9-12.32 10.17-6.68 12.79-7.63 4.87 1.5 1.9 2.39-15.65 11.37-19.23 13.54-5.67.92-8.74 3.08-1.4 6.89 2.6 6.89c10.93 0 27.27-15.18 30.11-18s5.45-1.42 7.12 0 .71 3.81-1.67 4.77a186.74 186.74 0 0 0 -18 9.93 207.54 207.54 0 0 1 -19.66 10.46c-3.34 1.4-6.5 4.27-6.28 7.85.93 13.52 15.53 1.54 17.6-.48 1.79-1.76 22.34-13.54 28.74-15.67s11.15-6.63 14.24-8.54 4.75-3.55 4.27-7.13c-1-7.86 5.43-3.78 5.43-3.78 6.69 5.91 6.69 14.69 14 20.64 2.57 2.08 4.51 2.94 6 3.1-3.48 2-.85 6.91-.85 6.91.25 1.18 4.3 9 11.65 5.21s-3.81-10.98-4.52-11.7zm160.49-100.71h4a8.53 8.53 0 0 1 1.61.16 4.06 4.06 0 0 1 1.39.53 2.87 2.87 0 0 1 1 1 3.31 3.31 0 0 1 .36 1.63 3.22 3.22 0 0 1 -.7 2.12 3 3 0 0 1 -2 1l3.09 5.14h-2.5l-2.69-4.92h-1.52v4.92h-2.07zm3.68 5a8.7 8.7 0 0 0 .89 0 2.53 2.53 0 0 0 .81-.2 1.33 1.33 0 0 0 .6-.47 1.48 1.48 0 0 0 .23-.9 1.45 1.45 0 0 0 -.21-.82 1.35 1.35 0 0 0 -.56-.47 2.57 2.57 0 0 0 -.76-.2 5.73 5.73 0 0 0 -.82 0h-1.79v3.06z"/><path d="m439 21.64a10.72 10.72 0 1 1 10.72-10.72 10.72 10.72 0 0 1 -10.72 10.72zm0-19.92a9.2 9.2 0 1 0 9.2 9.2 9.21 9.21 0 0 0 -9.2-9.2z"/></g></svg>