<svg height="832" width="2500" xmlns="http://www.w3.org/2000/svg" viewBox="0.27700000000000014 -1.597 2558.2749999999996 848.9799999999999"><g fill="#0999ab"><path d="M2308 41l2.897 1.307c46.712 21.26 87.934 51.622 124.254 87.669 1.007.999 2.016 1.997 3.026 2.993 6.005 5.929 11.644 12.02 16.892 18.638 1.793 2.222 3.663 4.314 5.619 6.393 53.673 59.944 83.368 141.127 93.312 220l.398 3.012c4.154 32.67 2.997 67.399-1.398 99.988l-.488 3.673C2541.763 562.54 2508.456 635.85 2458 696l-2.535 3.05c-7.14 8.512-14.703 16.5-22.583 24.33a1371.1 1371.1 0 0 0-5.837 5.849c-7.044 7.051-14.2 13.61-22.045 19.771a1839.11 1839.11 0 0 0-5.5 4.688c-14.932 12.417-30.923 23.225-47.5 33.312l-2.552 1.554c-46.22 27.853-97.864 45.98-151.135 54.196l-3.88.603c-20.082 2.945-40.086 4.03-60.37 3.96l-3.358-.006c-81.67-.225-162.586-23.951-230.705-69.307l-2.146-1.425c-15.934-10.636-31.126-22.307-45.272-35.24a197.148 197.148 0 0 0-4.243-3.753c-5.83-4.99-11.28-10.337-16.702-15.76-1.563-1.56-3.134-3.113-4.705-4.666-6.431-6.395-12.277-13.054-17.932-20.156a274.702 274.702 0 0 0-2.828-3.285C1790.773 676.056 1777.73 656.249 1766 636l-1.17-2.008c-28.84-49.76-46.211-104.954-52.83-161.992l-.355-2.946c-7.767-67.19 2.487-138.695 28.355-201.054l1.214-2.927c18.172-43.356 42.67-83.728 74.45-118.491a204.196 204.196 0 0 0 3.783-4.274c4.764-5.56 9.855-10.763 15.041-15.926 1.447-1.442 2.889-2.89 4.33-4.337 5.223-5.227 10.532-10.282 16.182-15.045l1.905-1.622c16.175-13.696 33.1-26.18 51.095-37.378l1.775-1.117C1986.14 18.96 2076.36-1.597 2308 41zm-219 119l-2.845.456C2045.08 167.223 2005.047 184.828 1972 210l-1.699 1.27c-9.71 7.276-18.58 15.304-27.301 23.73l-1.583 1.517c-6.695 6.431-12.704 13.172-18.417 20.483l-2.992 3.734C1884.196 305.931 1865.646 360.698 1863 418l-.105 2.162c-.18 4.29-.103 8.551.105 12.838l.125 2.697C1866.059 493.343 1885.794 549.48 1923 594l2.234 2.793c11.684 14.314 24.939 28.136 39.766 39.207l4.04 3.145c39.346 30.232 85.019 47.35 133.96 53.855l2.276.317C2155 699.325 2207.351 689.069 2252 667l2.223-1.093C2289.95 648.152 2323.408 621.23 2347 589l2.305-2.96c43.163-55.71 59.809-127.743 51.32-197.1-9.22-66.13-44.283-130.957-97.625-171.94-1.24-.99-2.477-1.98-3.715-2.973-10.87-8.618-22.322-16.019-34.285-23.027-.662-.39-1.324-.78-2.005-1.183C2211.688 159.93 2147.26 150.125 2089 160zM687.625 20.563l2.141-.02C705.301 20.457 724.16 21.83 736 33c3.643 5.43 4.844 10.017 5.655 16.451l.39 2.803c.424 3.07.827 6.142 1.23 9.215.3 2.2.6 4.398.903 6.598.635 4.636 1.262 9.274 1.881 13.913.899 6.723 1.82 13.442 2.75 20.16 1.77 12.836 3.52 25.674 5.265 38.513l2.455 18.023c1.682 12.34 3.363 24.682 5.042 37.023a386066.727 386066.727 0 0 0 10.928 80.226l3.764 27.627a565194.541 565194.541 0 0 0 23.048 168.982 3904011.667 3904011.667 0 0 0 14.65 107.293l.373 2.736a1894882.63 1894882.63 0 0 1 11.358 83.183c.984 7.203 1.966 14.407 2.942 21.612l1.125 8.29.278 2.045c1.23 9.048 2.495 18.09 3.791 27.13.693 4.831 1.375 9.664 2.054 14.498.455 3.231.919 6.462 1.393 9.69.516 3.514 1.012 7.03 1.503 10.547l.47 3.085c1.1 8.103.869 15.55-3.748 22.544-16.843 20.116-50.114 25.264-74.788 27.615-21.07 1.542-45.37 2.087-63.02-11.142-5.04-4.946-5.608-10.585-6.576-17.282l-.504-3.314A1530.05 1530.05 0 0 1 689 770l-.554-3.878a4689.838 4689.838 0 0 1-3.959-28.68c-.588-4.325-1.179-8.648-1.77-12.972-1.027-7.527-2.053-15.054-3.077-22.582-1.512-11.11-3.027-22.22-4.543-33.33-2.835-20.775-5.665-41.55-8.495-62.324-2.167-15.916-4.336-31.833-6.505-47.75l-.466-3.418a4156799.1 4156799.1 0 0 0-7.502-55.042l-6.62-48.587c-7.323-53.758-14.66-107.514-22.017-161.267-1.728-12.632-3.456-25.264-5.182-37.896l-.36-2.628a623283.765 623283.765 0 0 1-5.21-38.131l-.337-2.465c-1.78-13.017-3.563-26.033-5.348-39.05-1.772-12.921-3.54-25.843-5.302-38.766-.941-6.9-1.884-13.8-2.834-20.7-.86-6.245-1.713-12.49-2.561-18.737a3203.95 3203.95 0 0 0-.926-6.742 2723.15 2723.15 0 0 1-1.246-9.137l-.37-2.628c-1.217-9.168-2.154-16.99 3.176-24.911 15.522-18.39 46.7-24.515 69.332-27.07 7.095-.596 14.184-.717 21.301-.746zM240.719 42.941c4.141 3.738 9.003 8.699 9.483 14.496.168 11.794-1.543 23.263-3.169 34.92-.325 2.38-.649 4.759-.972 7.139a7436.93 7436.93 0 0 1-2.135 15.544 13761.65 13761.65 0 0 0-3.208 23.369c-1.817 13.3-3.643 26.6-5.474 39.898a61079.865 61079.865 0 0 0-5.486 39.942l-.346 2.527a432773.555 432773.555 0 0 0-5.356 39.103l-.37 2.693c-1.773 12.947-3.548 25.893-5.325 38.84-7.9 57.566-15.761 115.138-23.607 172.713a599773.181 599773.181 0 0 1-10.595 77.72l-2.861 20.984-.476 3.486c-2.22 16.282-4.438 32.564-6.656 48.847-2.88 21.14-5.762 42.281-8.648 63.422a73645.058 73645.058 0 0 0-4.623 33.918c-1.035 7.601-2.072 15.202-3.111 22.803-.595 4.348-1.188 8.697-1.778 13.046-.538 3.964-1.08 7.928-1.624 11.892-.195 1.427-.389 2.854-.581 4.28-3.129 23.17-3.129 23.17-10.801 29.477-25.353 15.347-62.471 10.49-89.874 4.05C35.494 803.628 16.975 797.437 6 782c-5.723-9.715-.899-25.645.59-36.268.284-2.065.567-4.13.848-6.194.615-4.49 1.235-8.98 1.86-13.47 1.023-7.363 2.035-14.728 3.046-22.092 1.486-10.812 2.977-21.622 4.471-32.432 2.3-16.633 4.589-33.266 6.875-49.9l1.861-13.54.314-2.284.315-2.292.951-6.919 4.239-30.811a120600.876 120600.876 0 0 0 20.817-152.045c2.983-21.874 5.964-43.75 8.945-65.624A588353.711 588353.711 0 0 1 72.41 265.39a439811.083 439811.083 0 0 1 7.555-55.412l.318-2.334a62017.82 62017.82 0 0 0 8.827-65.014 80316.685 80316.685 0 0 1 3.61-26.662c1.12-8.276 2.239-16.552 3.353-24.828.76-5.646 1.525-11.29 2.29-16.935.31-2.287.618-4.575.925-6.862.417-3.11.839-6.22 1.262-9.33l.358-2.7c2.462-17.942 2.462-17.942 9.341-24.439 32.697-22.294 100.467-11.113 130.469 12.066zM421.75 32.688l2.238.005c11.864.05 23.417.63 35.012 3.307l2.273.52c11.863 2.836 23.735 6.884 31.641 16.707 2.445 3.992 3.336 7.476 3.339 12.136l.017 3.247-.013 3.555.01 3.802c.01 3.495.007 6.99.002 10.485-.003 3.797.005 7.595.012 11.392.01 6.66.013 13.32.011 19.98-.003 9.903.006 19.806.016 29.71.02 18.715.025 37.43.026 56.145a114900.778 114900.778 0 0 0 .018 58.95c.013 29.07.02 58.14.02 87.21v3.323a2382658.585 2382658.585 0 0 1-.002 26.714c0 34.735.014 69.47.042 104.206a140158.347 140158.347 0 0 1 .045 132.589c0 16.49.013 32.98.03 49.472.017 16.566.02 33.132.006 49.698-.007 9.848-.004 19.695.016 29.543.012 6.574.01 13.148-.005 19.722-.008 3.749-.01 7.497.007 11.245.017 4.035.003 8.07-.013 12.106l.03 3.535c-.068 7.704-1.072 13.33-6.536 19.145-26.794 19.626-65.864 19.97-97.497 15.276C377.6 823.913 359.57 819.55 350 807c-1.914-3.193-2.25-5.561-2.254-9.265l-.018-3.257.012-3.583-.012-3.818c-.01-3.516-.008-7.03-.004-10.546.003-3.818-.006-7.636-.014-11.453-.012-6.698-.016-13.395-.016-20.092.001-9.959-.01-19.918-.022-29.876-.025-19.857-.034-39.715-.039-59.572v-3.117l-.001-3.124c-.003-11.414-.01-22.827-.016-34.24-.02-34.46-.037-68.92-.04-103.379v-3.341a3328372.706 3328372.706 0 0 1-.002-23.498v-3.368c-.003-34.93-.025-69.86-.061-104.789a114220.429 114220.429 0 0 1-.065-130.203v-3.12a37468.28 37468.28 0 0 0-.042-49.747c-.023-16.66-.027-33.32-.013-49.979.009-9.903.003-19.806-.023-29.709-.015-6.61-.013-13.222.004-19.833.01-3.77.01-7.539-.01-11.308-.022-4.059-.005-8.116.015-12.175l-.038-3.555c.076-6.976 1.069-11.67 5.659-17.053 17.427-16.145 46.266-17.429 68.75-17.312zM1026.373 610.334l3.28.437c3.608.482 7.214.976 10.82 1.469 2.613.352 5.227.703 7.841 1.053 5.66.76 11.32 1.526 16.98 2.295 8.366 1.138 16.733 2.266 25.101 3.393 14.824 1.996 29.648 4 44.47 6.009a94668.875 94668.875 0 0 0 56.821 7.683 1088461.133 1088461.133 0 0 1 60.523 8.177 59438.945 59438.945 0 0 0 128.946 17.307c10.216 1.359 20.431 2.72 30.647 4.084l2.132.284 18.854 2.517c14.764 1.972 29.528 3.938 44.294 5.89 11.294 1.493 22.587 2.996 33.878 4.51 5.701.765 11.402 1.525 17.106 2.272 5.179.678 10.356 1.37 15.532 2.071 1.865.25 3.732.497 5.599.737 2.532.327 5.062.671 7.592 1.02l2.188.27c5.953.852 11.488 2.866 15.976 6.977 15.487 21.924 13.216 53.92 9.027 79.121-2.352 12.758-5.806 25.176-10.98 37.09l-1.145 2.664c-3.71 8.017-9.261 17.29-17.367 21.465-12.944 4.532-31.107-.694-44.182-2.493-2.707-.366-5.414-.729-8.121-1.092-5.85-.786-11.7-1.58-17.548-2.378-8.63-1.179-17.262-2.345-25.893-3.51-14.375-1.939-28.747-3.887-43.12-5.84a64830.243 64830.243 0 0 0-58.286-7.898l-26.713-3.613a147521.213 147521.213 0 0 1-43.023-5.826 105934.677 105934.677 0 0 0-148.45-20.026c-20.965-2.817-41.93-5.635-62.896-8.448a63890.53 63890.53 0 0 1-31.355-4.216c-6.247-.84-12.494-1.68-18.74-2.516-3.753-.503-7.505-1.009-11.256-1.515l-5.118-.687C983.261 755.532 983.261 755.532 977 748c-8.632-13.016-9.237-29.02-9.25-44.125l-.002-2.16c.042-28.146 4.762-64.786 24.775-86.352 9.76-9.011 21.658-6.725 33.85-5.029zM1556.875 23.313c19.605 15.611 25.405 46.425 28.41 69.92 2.449 21.596 4.05 50.603-10.16 68.83-4.372 5.144-11.227 6.342-17.59 7.194l-2.218.306c-2.489.34-4.979.666-7.47.992-1.856.25-3.712.502-5.568.754-4.147.562-8.295 1.116-12.443 1.667-7.02.93-14.038 1.875-21.056 2.821a32695.302 32695.302 0 0 1-33.684 4.515c-14.493 1.937-28.986 3.88-43.477 5.829l-3.086.414a613204.107 613204.107 0 0 0-49.106 6.602l-3.42.46c-25.676 3.45-51.352 6.894-77.03 10.337a506674.574 506674.574 0 0 0-178.952 24.033 958563.11 958563.11 0 0 0-42.325 5.69c-3.764.506-7.528 1.011-11.292 1.514-6.972.932-13.941 1.88-20.906 2.866-3.353.475-6.707.943-10.061 1.41-1.584.224-3.168.45-4.751.68-26.326 3.813-26.326 3.813-33.924-.768C978.19 224.873 972.13 195.2 969 173l-.29-1.953c-3.026-23.04-3.77-51.907 10.915-71.18 3.154-3.139 6.108-4.196 10.46-4.916l2.959-.495c4.44-.685 8.883-1.324 13.336-1.917l2.993-.405c3.291-.444 6.583-.885 9.875-1.326l7.161-.965c5.173-.697 10.346-1.393 15.52-2.087 7.662-1.028 15.324-2.06 22.986-3.092 12.825-1.727 25.65-3.451 38.475-5.175 12.651-1.7 25.302-3.401 37.953-5.104l2.382-.32a1278500.12 1278500.12 0 0 0 36.117-4.86l2.433-.328c12.297-1.655 24.594-3.31 36.891-4.963l2.477-.333 9.903-1.332c38.995-5.244 77.99-10.495 116.983-15.749l10.823-1.458 33.586-4.525a1513099.109 1513099.109 0 0 1 115.782-15.596l2.58-.348 7.236-.972c2.92-.392 5.837-.79 8.755-1.192l2.044-.279c1.786-.244 3.571-.49 5.357-.737 15.794-1.876 15.794-1.876 22.183 1.92z"/></g><path d="M1008.145 350.747l2.498-.017 2.734.013c1.448-.006 1.448-.006 2.925-.01 3.26-.01 6.519-.005 9.778 0l7.051-.014c5.798-.011 11.596-.013 17.394-.01 6.943.002 13.886-.007 20.83-.017 14.396-.02 28.792-.025 43.188-.026a67989.822 67989.822 0 0 0 42.938-.017l2.409-.001c22.361-.013 44.722-.02 67.084-.02h2.556a1409419.374 1409419.374 0 0 1 20.549.002c26.72 0 53.438-.014 80.158-.042a82936.66 82936.66 0 0 1 99.606-.045h2.386c12.685 0 25.37-.013 38.056-.03 12.743-.017 25.486-.02 38.229-.006 6.907.007 13.814.007 20.72-.01a3609.81 3609.81 0 0 1 18.953.004c2.29.003 4.582 0 6.872-.012a940.02 940.02 0 0 1 9.312.013l2.72-.03c6.471.074 9.923 1.89 14.815 6.212 16.033 17.644 17.52 44.82 17.407 67.503l-.006 2.318c-.084 21.008-1.178 49.254-16.291 65.647-6.536 6.008-11.768 7.145-20.448 7.105l-2.906.01c-3.233.01-6.465.005-9.697 0l-7 .014c-5.752.011-11.504.013-17.256.01-6.889-.002-13.778.007-20.667.017-14.283.02-28.567.025-42.851.026a66965.338 66965.338 0 0 0-45 .018c-22.192.013-44.386.02-66.579.02h-2.536a1387905.457 1387905.457 0 0 1-20.391-.002c-26.512 0-53.023.014-79.535.042a81661.753 81661.753 0 0 1-98.85.045h-2.37c-12.584 0-25.17.013-37.755.03-12.646.017-25.291.02-37.937.006-6.852-.007-13.705-.007-20.557.01-6.27.016-12.54.014-18.81-.004-2.272-.003-4.543 0-6.814.012-3.083.014-6.164.003-9.247-.013l-2.684.03c-6.824-.078-11.854-1.962-17.228-6.176-15.578-17.656-17.326-45.534-17.21-67.977l.005-2.24c.092-22.349 1.527-50.091 17.932-67.198 3.491-3.351 6.613-5.186 11.52-5.19z" fill="#0a99ab"/></svg>