<svg height="636" width="2500" xmlns="http://www.w3.org/2000/svg" viewBox="-0.675 -0.763 4097.233 1043.3009999999997"><path d="M724.445-.203l3.172-.009c5.568-.015 11.136-.024 16.704-.028 4.482-.005 8.965-.018 13.447-.041C853.694-.763 949.224 10.7 1176 83l3.264 1.459C1204.47 95.786 1229.133 108.064 1253 122l2.446 1.41c27.8 16.039 54.567 34.457 79.554 54.59l2.816 2.262c17.446 14.144 33.787 29.262 49.684 45.113l1.572 1.564c5.863 5.84 11.565 11.753 16.928 18.061.925 1.049 1.852 2.096 2.781 3.14 8.656 9.852 16.491 20.272 24.219 30.86l1.69 2.313c6.983 9.597 13.418 19.385 19.31 29.687l1.128 1.964a892 892 0 0 1 6.803 12.111c.995 1.793 2.01 3.574 3.026 5.355 23.872 42.88 37.448 93.892 39.594 142.757l.127 2.868c.437 10.647.521 21.29.51 31.945l-.002 3.087c-.14 87.447-24.018 172.675-74.186 244.913l-1.327 1.923c-6.89 9.973-14.064 19.643-21.673 29.077l-2.336 2.926c-4.518 5.603-9.225 10.986-14.11 16.273a315.009 315.009 0 0 0-5.771 6.523c-3.484 3.986-7.122 7.778-10.861 11.524l-1.976 1.986c-1.37 1.375-2.742 2.75-4.114 4.122-2.068 2.07-4.128 4.148-6.187 6.226-6.523 6.55-13.036 12.868-20.322 18.571-2.482 1.975-4.808 4.07-7.135 6.224-6.123 5.564-12.625 10.596-19.188 15.625l-1.819 1.401A605.494 605.494 0 0 1 1256 918l-2.782 1.678c-15.778 9.492-31.94 18.152-48.392 26.406-1.788.897-3.574 1.797-5.36 2.697-75.322 37.777-157.486 61.608-325.528 87.907l-2.83.293c-40.456 4.145-81.001 5.557-121.65 5.406-3.4-.012-6.802-.019-10.204-.024-31.62-.058-63.15-.335-94.668-3.135-2.63-.232-5.26-.45-7.89-.666-84.805-7.016-169.843-22.728-383.87-112.847-2.94-1.784-5.892-3.547-8.846-5.309-11.276-6.755-22.282-13.768-32.98-21.406l-2.198-1.558C198.645 890.234 188.698 882.814 179 875l-2.816-2.262c-17.261-13.994-33.452-28.929-49.184-44.613l-1.5-1.492c-5.72-5.697-11.272-11.477-16.5-17.633-.985-1.13-1.97-2.259-2.957-3.387-6.644-7.658-13-15.47-19.043-23.613l-1.487-1.999C72.009 761.781 59.96 742.85 49 723l-1.3-2.32c-20.527-36.778-33.875-77.35-42.012-118.555l-.699-3.519C1.27 578.83-.47 559.254-.434 539.145c-.004-2.206-.01-4.411-.015-6.617-.01-4.584-.007-9.168.003-13.752.01-4.634.002-9.267-.02-13.9C-.675 462.376 2.964 423.46 17 383l.947-2.784C28.858 348.426 44.817 318.547 64 291l1.22-1.762c12.217-17.574 25.791-34.034 40.358-49.702a847.814 847.814 0 0 0 4.395-4.79c8.24-9.018 16.573-17.94 25.879-25.879 2.18-1.895 4.302-3.846 6.419-5.812 5.097-4.728 10.289-9.267 15.71-13.625a562.218 562.218 0 0 0 6.632-5.422c9.12-7.543 18.508-14.6 28.17-21.435a864.4 864.4 0 0 0 6.362-4.565c25.004-18 51.685-33.537 78.855-48.008l3.012-1.61C315.09 90.232 350.69 75.101 387 62l2.194-.792C474.511 30.49 564.244 10.65 683 1l2.137-.137c13.107-.818 26.179-1.042 39.308-1.066z" fill="#2d3277"/><path d="M1468 468c.812 6.999 1.194 13.921 1.273 20.965l.038 3.1c.402 40.751.402 40.751-4.627 60.267-.658 2.568-1.23 5.14-1.778 7.734C1450.898 614.918 1420.752 665.444 1385 708l-2.48 3c-7.567 9.063-15.703 17.462-24.085 25.77a2181.845 2181.845 0 0 0-6.587 6.568 8868.892 8868.892 0 0 1-4.27 4.252l-1.948 1.945c-4.389 4.343-8.946 8.443-13.63 12.465l-1.564 1.36c-9.164 7.967-18.72 15.362-28.436 22.64l-2.371 1.78c-10.335 7.743-20.783 15.211-31.629 22.22l-2.367 1.544c-57.156 37.25-118.35 65.094-182.633 87.456l-1.948.679c-13.815 4.807-27.665 9.214-41.814 12.926-4.314 1.134-8.59 2.37-12.866 3.639-11.259 3.326-22.63 5.916-34.102 8.389A434.205 434.205 0 0 0 977.937 928c-13.387 3.244-27.064 5.32-40.64 7.61-2.232.379-4.462.763-6.692 1.149-20.44 3.525-40.926 6.213-61.543 8.491l-3.421.378c-40.333 4.428-40.333 4.428-59.266 4.934-6.134.181-12.236.404-18.35.94-7.192.564-14.35.676-21.56.701l-4.157.021c-4.457.02-8.914.025-13.37.026l-2.317.001c-79.96.025-160.79-7.417-238.621-26.251-1.892-.45-3.784-.9-5.676-1.348-3.496-.828-6.99-1.661-10.484-2.5a892.371 892.371 0 0 0-9.461-2.21c-7.289-1.666-14.458-3.497-21.582-5.782a234.83 234.83 0 0 0-8.719-2.476C421.748 903.623 391.99 892.99 363 881l-2.788-1.15C327.528 866.298 295.542 850.872 265 833l-2.59-1.506c-44.952-26.206-86.113-58.253-122.973-94.932l-1.946-1.932a222.126 222.126 0 0 1-10.823-11.699 383.205 383.205 0 0 0-4.668-5.29c-31.377-35.296-56.198-76.412-72.02-120.89a705.947 705.947 0 0 0-2.664-7.321C33.527 551.09 32.654 512.17 33 472c5.147.504 10.14 1.13 15.176 2.348l3.45.821 3.686.893a3890.406 3890.406 0 0 0 10.2 2.421c7.252 1.712 14.53 3.306 21.81 4.9a1802.565 1802.565 0 0 1 40.49 9.367l2.303.56c9.998 2.433 19.952 5 29.885 7.69l3.015.809c16.47 4.435 32.71 9.511 48.905 14.85a2156.18 2156.18 0 0 0 10.313 3.362C262.533 533.09 303.69 548.153 339 572c-.31 1.917-.623 3.834-.938 5.75l-.527 3.234C337 584 337 584 336.481 585.896 332.103 605.028 338.344 624.644 348 641c2.117 3.241 4.395 6.14 7 9l2.05 2.293C375.03 671.359 398.087 675.215 423 676l1.285 3.516C429.916 694.645 436.581 706.565 448 718l2.215 2.25c11.201 10.68 31.235 21.775 46.946 21.744 7.379-.31 7.379-.31 14.75-.775 3.605-.123 6.594-.127 10.089.781 2.934 2.953 4.378 6.208 6 10 12.456 17.874 31.742 29.962 53.04 34.5 5.225.66 10.384.787 15.647.812l2.916.017c6.338-.063 12.233-.86 18.397-2.329l1.066 2.09c3.427 6.522 7.22 12.259 11.934 17.91l2.25 2.89c2.984 3.566 6.465 6.288 10.187 9.047l2.129 1.58c20.451 14.828 43.854 19.315 68.73 16.022 15.9-3.114 32.713-10.47 43.825-22.484C760 811 760 811 762.617 811.55a609.153 609.153 0 0 1 10.412 4.572c10.798 4.832 21.436 8.32 32.971 10.877l2.072.492c11.05 2.61 21.63 2.904 32.928 2.508l3.309-.059c17.61-.788 35.044-8.897 47.691-20.941.98-1.36 1.941-2.733 2.875-4.125 1.383-1.7 1.383-1.7 3.125-2.875 3.167-.25 6.031.1 9.18.516 21.297 2.7 42.124-2.51 59.388-15.451 2.52-1.97 4.982-4.007 7.432-6.065l2.621-2.031C986.657 770.663 992.426 757.944 997 746l3.777-.113c25.974-.93 47.78-6.435 68.285-23.407 1.938-1.48 1.938-1.48 4.063-2.43 2.373-1.33 2.785-2.604 3.875-5.05l2.625-2.813c10.329-11.847 15.5-27.708 16.375-43.187l3.7-.148c26.974-1.172 49.614-7.27 69.3-26.852l1.89-1.785c12.376-12.682 17.735-31.78 17.59-49.069-.32-9.006-1.923-18.331-6.18-26.345-1.3-2.801-1.3-2.801-1.33-4.775 1.682-3.308 4.904-4.01 8.21-5.24l2.261-.885c2.473-.962 4.953-1.9 7.434-2.839a2117.6 2117.6 0 0 1 18.568-7.097 3862.28 3862.28 0 0 0 7.191-2.724A2131.857 2131.857 0 0 1 1255 530l2.166-.785c20.078-7.26 40.292-14.081 60.584-20.715l3.142-1.029c11.678-3.817 23.374-7.518 35.18-10.914 3.145-.908 6.282-1.84 9.42-2.768 14.777-4.34 29.582-8.441 44.508-12.242a511.45 511.45 0 0 0 14.813-4.047c8.29-2.36 16.673-4.34 25.062-6.313l2.033-.482c1.923-.455 3.847-.902 5.772-1.35l3.398-.792C1464 468 1464 468 1468 468z" fill="#fed000"/><path d="M191 213c2.177.756 4.34 1.554 6.492 2.379l4.007 1.52 2.152.819c15.551 5.906 31.227 11.421 46.974 16.782l3 1.025c12.05 4.114 24.124 8.008 36.375 11.475l3.37.959c3.02.855 6.043 1.7 9.067 2.541a384559522.19 384559522.19 0 0 1 9.645 2.688c2.536.706 5.07 1.414 7.606 2.125 3.615 1.011 7.233 2.012 10.853 3.008 1.752.484 3.503.97 5.254 1.46A843.411 843.411 0 0 0 390 273l3.64.792c17.228 3.666 33.917 4.678 51.485 4.708l2.977.014c24.263.045 47.56-3.996 70.898-10.514l6.293-1.742 6.77-1.883 3.282-.913c6.124-1.713 6.124-1.713 12.151-3.735 2.658-.772 3.949-.71 6.504.273l-1.285 1.25a191.26 191.26 0 0 0-10.649 11.398c-2.558 2.912-5.182 5.758-7.816 8.602l-1.559 1.683a26539.73 26539.73 0 0 1-3.145 3.396 1881.876 1881.876 0 0 0-19.234 21.109 1084.97 1084.97 0 0 1-6.4 7.023c-.939 1.024-1.878 2.048-2.815 3.074a587.539 587.539 0 0 1-6.585 7.098c-10.306 11.05-15.337 20.699-14.957 35.765.42 6.424 2.847 11.334 6.445 16.602l1.348 2.04c12.453 16.483 39.687 23.302 59.03 26.523 6.12.717 12.292.66 18.446.677 2.144.01 4.286.04 6.43.073 13.501.105 26.355-1.672 38.871-7l2.563-1.066c20.376-8.675 38.18-22.4 55.312-36.247l5.188-4.125c3.317-2.657 6.6-5.353 9.875-8.062 20.802-17 42.57-31.444 66.75-43.188l2.567-1.264c16.762-7.98 35.834-10.207 53.62-4.361l2.142.7c15.872 5.278 29.217 12.566 42.262 23.031 2.603 2.07 5.26 4.07 7.909 6.082C866.009 336.709 873.5 342.858 881 349l3.074 2.512c1.788 1.46 3.574 2.923 5.36 4.386a2095.49 2095.49 0 0 0 5.226 4.266 1028.51 1028.51 0 0 1 16.504 13.75A659.649 659.649 0 0 0 921.5 382.5c4.605 3.749 9.142 7.57 13.666 11.416a618.182 618.182 0 0 0 10.272 8.522c4.864 3.958 9.623 8.028 14.373 12.123a466.843 466.843 0 0 0 10.627 8.877c5.105 4.143 10.06 8.444 15.015 12.765A407.14 407.14 0 0 0 996.5 445.5c5.034 4.078 9.925 8.306 14.81 12.56 4.059 3.532 8.14 7.035 12.253 10.503 4.497 3.791 8.975 7.604 13.437 11.437 4.485 3.851 8.983 7.686 13.5 11.5a2397.537 2397.537 0 0 1 15.27 13.02c3.896 3.343 7.807 6.668 11.73 9.98 4.494 3.795 8.973 7.608 13.438 11.438l1.755 1.505c2.975 2.552 5.947 5.108 8.916 7.666 5.23 4.502 10.467 8.982 15.829 13.328 4.499 3.66 8.92 7.401 13.312 11.188l1.861 1.595c12.39 10.734 12.39 10.734 15.201 16.842l1.145 2.41c3.247 7.868 4.696 15.786 2.285 24.16A56.843 56.843 0 0 1 1148 611l-1.75 3.125c-7.348 9.389-17.671 15.21-29.25 17.875-11.693 1.23-24.01 1.358-33.595-6.27-3.448-2.933-6.686-6.061-9.897-9.25-2.148-2.108-4.385-4.106-6.633-6.105-3.515-3.15-7.012-6.32-10.5-9.5a661.536 661.536 0 0 0-11.348-10.098A651.599 651.599 0 0 1 1038 584.5a778.074 778.074 0 0 0-16.223-14.25c-5.558-4.74-11.086-9.49-16.465-14.438-4.383-4.023-8.923-7.79-13.554-11.523-2.879-2.39-5.633-4.878-8.383-7.414-12.3-11.686-12.3-11.686-28.293-15.23-3.236.552-4.899 1.973-7.082 4.355-2.302 3.29-2.456 6.047-2 10 3.045 7.769 8.294 12.83 14.172 18.598 1.007 1.002 2.014 2.005 3.02 3.009 2.101 2.095 4.21 4.183 6.324 6.265 2.689 2.65 5.367 5.31 8.041 7.975a5009.094 5009.094 0 0 0 9.2 9.138c4.307 4.27 8.601 8.522 13.204 12.474 5.373 4.622 10.345 9.662 15.363 14.662l1.597 1.589c2.784 2.768 5.565 5.54 8.343 8.314a3008.51 3008.51 0 0 0 8.573 8.515c2.22 2.2 4.432 4.408 6.643 6.618a914.049 914.049 0 0 0 3.161 3.137c8.734 8.631 16.222 16.55 16.734 29.393-.181 10.421-4.374 19.002-11.25 26.688-11.282 10.895-26.666 16.4-42.129 16.146-14.356-.651-21.655-7.42-31.137-17.513-3.105-3.297-6.382-6.26-9.819-9.204-4.446-3.932-8.527-8.255-12.685-12.488a214.165 214.165 0 0 0-12.623-11.806c-2.007-1.75-3.883-3.595-5.732-5.51-3.152-3.195-6.415-6.176-9.82-9.098-2.506-2.186-4.931-4.451-7.367-6.715a226.202 226.202 0 0 0-12.625-10.687l-3.145-2.469c-5.622-3.752-11.374-5.063-18.043-4.031-2.87 1.794-4.491 2.983-6 6-.888 6.214-.214 9.35 3.438 14.5 3.514 4.452 7.342 8.469 11.421 12.402 2.533 2.482 4.822 5.112 7.13 7.801 2.614 2.985 5.311 5.889 8.011 8.797 3.79 4.085 7.522 8.204 11.168 12.418 2.83 3.217 5.74 6.362 8.64 9.515 3.697 4.021 7.363 8.07 11.008 12.137a802.308 802.308 0 0 0 4.461 4.922c17.294 18.979 17.294 18.979 17.024 29.703-.812 7.572-5.303 12.57-10.672 17.692-9.7 7.797-20.526 10.471-32.691 10.426l-2.604.048-2.557.002-2.273.01c-6.969-1.037-11.11-4.413-15.813-9.326l-1.728-1.753a943.335 943.335 0 0 1-5.4-5.544 3359.71 3359.71 0 0 0-7.122-7.266l-1.724-1.76c-3.522-3.573-7.127-6.976-10.957-10.22-3.132-2.676-6.084-5.546-9.072-8.379-5.262-4.952-10.607-9.665-16.266-14.16-2.297-1.864-4.447-3.824-6.61-5.84-4.747-4.176-9.23-5.769-15.437-6.625-4.574.678-6.13 2.255-9.375 5.5-1.9 3.798-1.602 8.088-.352 12.059 2.083 4.565 4.882 7.764 8.512 11.18 1.816 1.738 3.452 3.543 5.09 5.448 3.017 3.5 6.119 6.916 9.25 10.313 3.6 3.91 7.144 7.859 10.625 11.875 2.42 2.743 4.897 5.434 7.375 8.125 6.006 6.527 11.856 13.158 17.5 20-1.884 5.213-6.107 6.441-10.855 8.672C838 795.757 814.74 789.882 796 783c-4.139-1.737-8.106-3.768-12-6l.805-2.457c8.052-25.245 7.246-49.857-4.791-73.67-11.782-21.765-31.252-37.107-54.786-44.351-7.915-2.207-16.062-2.889-24.228-3.522l-.043-3.594C700.472 629.548 694.95 612.428 682 597l-2.188-3c-11.544-13.532-29.135-19.756-45.812-24l-2.414-.621c-3.964-.58-7.898-.565-11.899-.567l-2.673-.026c-5.074.005-9.717.45-14.677 1.493-3.232.652-6.04.962-9.337.721-4.013-3.004-6.31-6.825-9-11-13.992-16.538-35.943-24.476-57-27-18-1.242-37.397 1.368-52.64 11.809-2.36 1.191-2.36 1.191-4.45.578-1.96-1.423-3.71-2.912-5.473-4.575-15.683-13.87-34.813-19.5-55.554-19.117-15.213 1.194-30.658 7.19-42.305 17.176-1.899 1.358-3.27 1.784-5.578 2.129-2.65-1.424-5.065-2.904-7.563-4.563C321.603 516.243 286.368 502.595 251 490l-2.275-.811c-18.145-6.457-36.303-12.479-54.924-17.433-4.576-1.235-9.124-2.563-13.676-3.881-12.87-3.698-25.818-7.084-38.82-10.292a630.1 630.1 0 0 1-11.325-2.919 822.253 822.253 0 0 0-33.417-8.164C46.301 435.302 46.301 435.302 43 432c-.341-5.521.55-10.175 2-15.438l.671-2.471C55.851 377.466 71.79 343.532 93 312l1.574-2.343c7.242-10.69 15.128-20.77 23.426-30.657l1.515-1.815c13.668-16.34 28.212-32.7 44.5-46.482 2.533-2.173 4.97-4.44 7.423-6.703 3.437-3.113 6.875-6.218 10.437-9.188l2.055-1.73c2.811-1.47 4.017-.87 7.07-.082z" fill="#fefefe"/><path d="M846.805 194.51c2.172.485 4.344.895 6.535 1.283 30.465 5.547 59.56 18.152 87.619 30.8 11.16 4.99 22.522 9.323 34.041 13.407l2.2.784c29.946 10.575 61.282 16.811 92.8 20.216l3.123.355c36.39 4.004 72.783 2.147 108.877-3.355l2.249-.337c47.161-7.103 93.84-21.243 136.43-42.835 2.732-.975 3.63-.782 6.321.172 1.685 1.268 1.685 1.268 3.363 2.887l1.917 1.824 2.033 1.977 4.296 4.109 2.205 2.119c2.741 2.613 5.526 5.176 8.313 7.739 5.029 4.632 9.904 9.233 14.28 14.501 1.88 2.176 3.906 4.151 5.968 6.157 4.075 4.026 7.686 8.294 11.262 12.765a272.593 272.593 0 0 0 6.2 7.36C1412.997 306.694 1434.395 342.81 1449 380l.92 2.302c5.97 15 10.929 30.663 13.08 46.698l-3.095.747c-26.524 6.346-26.524 6.346-52.905 13.253-.925.255-1.85.51-2.804.771-19.235 5.31-38.473 10.677-57.476 16.773a862.137 862.137 0 0 1-14.325 4.456c-53.892 16.365-107.335 36.298-158.778 59.266l-3.256 1.452a431.72 431.72 0 0 0-5.73 2.629c-5.773 2.618-5.773 2.618-9.283 2.762-3.624-1.712-6.341-4.234-9.285-6.921l-4.024-3.579-2.046-1.834c-2.982-2.656-6.017-5.247-9.055-7.837l-3.473-2.973-1.731-1.481c-2.913-2.493-5.823-4.989-8.734-7.484l-3.5-3-22.75-19.5-3.498-2.998c-2.93-2.511-5.86-5.023-8.787-7.537a2894.78 2894.78 0 0 0-18.566-15.816 1717.482 1717.482 0 0 1-12.024-10.274 547.593 547.593 0 0 0-12.312-10.312c-5.052-4.102-9.964-8.349-14.87-12.62-5.652-4.919-11.362-9.765-17.091-14.591-1.641-1.385-3.278-2.774-4.914-4.164-5.007-4.253-10.027-8.482-15.125-12.625-4.863-3.957-9.62-8.027-14.37-12.12-4.417-3.798-8.903-7.502-13.427-11.173-3.06-2.511-6.07-5.075-9.078-7.645a380.339 380.339 0 0 0-13.625-11.062A331.535 331.535 0 0 1 919 332c-6.203-5.375-12.578-10.482-19.07-15.503-2.088-1.62-4.17-3.247-6.25-4.876A2568.897 2568.897 0 0 0 880 301l-2.136-1.647c-32.37-24.876-67.428-44.165-109.563-38.857-41.018 6.46-77.812 36.33-108.516 62.483-6.12 5.19-12.43 10.125-18.785 15.021l-1.918 1.49C611.507 360.848 585.7 373.82 550 371c-11.507-1.483-21.464-6.643-31-13 1.25-4.581 3.78-6.966 7.102-10.145 1.76-1.72 3.363-3.486 4.96-5.355 3.536-4.105 7.231-8.05 10.938-12 4.136-4.41 8.226-8.839 12.172-13.422 3.03-3.445 6.165-6.793 9.283-10.158a851.09 851.09 0 0 0 9.108-9.982l2.207-2.454c1.502-1.673 2.999-3.35 4.492-5.03 6.266-6.966 12.81-13.633 19.426-20.266l2.7-2.715c4.516-4.506 9.091-8.872 13.934-13.026 2.035-1.755 3.975-3.602 5.928-5.447 60.87-54.644 146.609-71.896 225.555-53.49z" fill="#fefefe"/><path d="M724.504 33.867a10765.282 10765.282 0 0 1 20.873.002c5.961.006 11.922.003 17.883-.003 4.651-.004 9.303-.002 13.954 0 2.194 0 4.389 0 6.583-.002 20.092-.017 40.122.594 60.145 2.341l2.711.237c.919.08 1.838.162 2.784.246l2.914.254c15.773 1.389 31.497 3.113 47.211 5.058l2.967.362c12.793 1.573 25.411 3.64 38.05 6.166 4.172.814 8.36 1.546 12.546 2.285 29.23 5.263 58.196 11.22 86.715 19.563 2.585.747 5.182 1.441 7.785 2.124 7.328 1.972 14.533 4.368 21.76 6.677 2.905.914 5.82 1.795 8.736 2.678C1113.475 92.723 1147.715 106.938 1181 123l3.162 1.522c14.957 7.242 29.475 15.126 43.838 23.478l3.247 1.875c19.875 11.5 38.981 23.905 57.753 37.125-3.087 2.54-6.097 4-9.813 5.453l-3.476 1.366-3.711 1.431-1.911.74c-4.357 1.688-8.721 3.353-13.089 5.01l-2.788 1.066c-22.735 8.617-46.497 14.244-70.41 18.435-1.818.324-3.634.663-5.446 1.02-7.8 1.518-15.635 2.315-23.544 3.042l-2.09.195c-4.573.427-9.147.838-13.722 1.242l-2.555.231c-66.424 5.85-133.681-10.61-193.633-38.356-19.32-8.936-39.454-15.72-59.812-21.875l-3.325-1.011c-8.501-2.514-17.028-4.412-25.738-6.051l-2.03-.387c-8.465-1.61-16.94-3.126-25.47-4.363l-2.314-.339c-14.416-1.961-28.87-2.094-43.395-2.144a865.745 865.745 0 0 1-6.892-.062C718.551 150.932 662.077 169.403 618 203l-2.676 2.035c-4.397 3.386-4.397 3.386-8.512 7.102-3.89 2.578-7.17 2.568-11.75 2.8-27.878 2.095-55.01 8.38-81.55 16.998-35.35 11.437-73.205 14.11-109.492 5.744a220.729 220.729 0 0 0-8.614-1.738c-14.392-2.66-28.61-6.047-42.844-9.441l-2.974-.707C336.98 222.788 324.46 219.568 312 216l-4.005-1.135C279.316 206.71 250.845 197.686 223 187v-3c2.082-1.755 2.082-1.755 5.027-3.703 1.09-.725 2.179-1.45 3.3-2.198a3360.99 3360.99 0 0 1 3.61-2.349l3.712-2.439c72.49-47.437 152.837-81.494 236.437-103.721A448.832 448.832 0 0 0 488 65.938c9.73-2.81 19.636-4.946 29.515-7.156 2.265-.508 4.528-1.021 6.79-1.54 19.976-4.584 40.077-7.853 60.334-10.886 2.422-.365 4.843-.737 7.263-1.11A1032.466 1032.466 0 0 1 627 40.5l2.702-.322c17.712-2.102 35.449-3.747 53.238-5.027 1.838-.135 3.674-.278 5.511-.422 12.018-.864 24.008-.875 36.053-.862z" fill="#fed000"/><path d="M1948 159l2.11 1.684c3.946 3.221 7.185 6.836 10.41 10.777L1962 173h2c1.464-1.487 1.464-1.487 3-3.438 18.645-21.74 46.655-35.42 75-38.562l3.602-.406c35.251-3.299 72.414 5.134 100.168 27.648 10.061 8.448 18.273 17.587 25.23 28.758l2.082 3.262c7.597 12.506 12.221 26.078 15.73 40.238l.591 2.328c4.147 17.897 3.889 36.27 3.833 54.523-.01 3.576-.007 7.152-.007 10.727 0 6.051-.01 12.102-.023 18.153-.014 6.05-.021 12.1-.02 18.15.001 27.42-.053 54.838-.422 82.256l-.03 2.223c-.21 15.38-.48 30.76-.734 46.14h-78l.048-18.489c.05-20.176.083-40.352.107-60.529.016-12.23.037-24.461.071-36.692.03-10.665.05-21.33.056-31.996.004-5.643.013-11.285.035-16.928.02-5.321.027-10.642.022-15.963.001-1.944.007-3.887.019-5.83.114-20.203-2.028-37.9-16.71-53.284-12.909-11.158-28.168-14.864-44.96-14.164-12.035 1.154-22.297 5.274-31.688 12.875l-3.188 2.312c-10.153 9.703-16.596 23.908-17.074 37.997-.015 1.519-.02 3.037-.016 4.556-.01 1.267-.01 1.267-.018 2.56-.017 2.805-.02 5.61-.023 8.415l-.03 6.063a6301.27 6301.27 0 0 0-.056 16.405c-.015 5.722-.042 11.443-.068 17.165-.046 10.826-.083 21.652-.116 32.479-.039 12.329-.088 24.657-.138 36.986A88826.49 88826.49 0 0 0 2000 465h-78l.048-18.796c.05-20.5.083-40.999.107-61.499.016-12.428.037-24.856.071-37.284.03-10.836.05-21.672.056-32.508.004-5.734.013-11.469.035-17.203.02-5.405.027-10.81.022-16.215.001-1.976.007-3.952.019-5.929.103-18.573-1.695-34.753-15.046-48.941-12.52-11.684-26.538-15.816-43.312-15.625-15.975.923-30.298 7.222-41.344 18.945-11.929 14.8-13.254 30.493-13.202 48.646-.009 2.042-.02 4.083-.031 6.125a3164.94 3164.94 0 0 0-.03 16.503c-.004 5.764-.03 11.528-.052 17.292-.04 10.897-.061 21.794-.074 32.691-.016 12.414-.055 24.828-.095 37.241-.082 25.52-.134 51.038-.172 76.557h-78c-.068-27.035-.123-54.07-.155-81.106-.016-12.554-.037-25.109-.071-37.664-.03-10.95-.05-21.9-.056-32.851-.004-5.791-.013-11.582-.035-17.373-.02-5.467-.027-10.933-.022-16.4-.001-1.99-.007-3.982-.019-5.973-.09-16.44.979-32.997 6.046-48.758l.765-2.457c4.165-12.9 9.606-25.383 17.547-36.418l2.238-3.133c20.708-28.276 50.624-45.202 85.137-51.055 38.482-5.25 75.331 1.957 105.625 27.188z" fill="#2d3176"/><g fill="#2c3176"><path d="M3732.176 29.895l3.465.023c2.787.02 5.573.047 8.359.082a88773.843 88773.843 0 0 1 1.013 179.815 21601.192 21601.192 0 0 1 .223 69.349c.01 5.147.027 10.294.047 15.441.028 6.89.04 13.78.041 20.669.003 2.48.01 4.962.024 7.442.09 17.775-.58 35.477-6.098 52.534l-.78 2.483c-10.492 32.458-31.495 59.724-61.99 75.689-22.672 11.388-47.98 17.565-73.378 17.816l-2.499.03c-25.925.243-50.707-1.381-75.603-9.268l-2.045-.647C3507.47 456.305 3492.15 448.939 3480 438l-2.207-1.746C3450.24 413.816 3436.16 372.014 3432 338l-.286-2.24c-1.071-9.777-.958-19.625-.964-29.448l-.002-2.905c.053-47.63 12.221-100.007 46.252-135.407 21.245-21.126 50.564-35.907 80.926-36.238l2.245-.03c21.905-.231 39.968 1.275 59.829 11.268 1.035.512 2.07 1.024 3.137 1.55 6.016 3.238 11.28 7.19 16.488 11.575l1.774 1.465c4.18 3.653 7.504 7.744 10.84 12.152l1.394 1.826c1.125 1.475 2.246 2.953 3.367 4.432l.011-3.499c.037-10.944.095-21.888.173-32.831.04-5.625.071-11.25.087-16.875.015-5.44.05-10.88.097-16.32.015-2.063.023-4.126.024-6.19.013-16.057.543-31.927 10.608-45.285l1.777-2.36c15.065-18.36 39.868-23.035 62.399-22.745zM3539 226c-17.303 21.543-22.23 50.017-22.25 76.875l-.002 2.38c.016 11.526.425 22.518 3.252 33.745l.488 2.061c4.852 20.186 13.689 40.183 31.512 51.939 17.113 9.713 36.37 11.417 55.367 7.102 10.501-3.185 19.584-8.662 27.633-16.102l1.887-1.723c6.126-6.263 9.55-14.39 13.113-22.277l1.477-3.258c6.548-15.708 8.205-31.83 7.96-48.68l-.02-2.645c-.102-12.638-.423-25.08-3.417-37.417l-.52-2.214c-4.715-19.422-14.192-38.7-31.48-49.786-27.418-16.66-63.104-15.267-85 10zM2767 655l2.55 2.184c33.887 29.67 47.359 72.289 50.637 115.879l.255 3.269c.86 12.929.558 25.628.558 38.668h-234c2.417 24.172 6.753 41.998 24 59l1.926 1.957c17.235 16.379 41.265 16.775 63.534 16.213 15.103-.727 29.717-7.18 40.927-17.334 1.808-1.903 1.808-1.903 3.158-4.908C2723 867 2723 867 2724.832 866.454c2.375-.195 4.685-.196 7.067-.135l2.721-.003c2.966.004 5.93.051 8.896.098 2.057.011 4.114.02 6.17.026 5.413.023 10.824.082 16.236.148 5.524.061 11.047.089 16.57.119 10.837.064 21.672.167 32.508.293-.629 1.915-1.26 3.83-1.893 5.743-.35 1.066-.702 2.132-1.064 3.23-11.331 32.884-40.347 57.626-70.578 72.831-41.814 20.282-94.536 20.496-138.09 5.508-22.553-8.262-42.597-20.19-60.375-36.312l-1.965-1.715c-28.786-26.619-38.403-70.55-39.91-108.078-.045-1.402-.086-2.805-.125-4.207l-.066-2.159c-1.285-48.318 8.729-98.066 42.351-134.439 54.842-57.655 162.878-65.29 223.715-12.402zm-159 65c-10.586 12.54-19.22 30.396-19 47 29.562.093 59.118-.165 88.678-.464l18.449-.18c11.958-.117 23.915-.236 35.873-.356-.143-2.08-.291-4.162-.44-6.242l-.249-3.511c-1.523-15.9-10.816-30.593-22.311-41.247-29.274-22.411-75.168-23.15-101 5zM2500.5 174.125c29.88 30.034 41.197 70.302 43.625 111.563l.127 2.087c.525 8.676.927 17.343.936 26.037l.002 2.439c-.032 3.175-.179 5.716-1.19 8.749h-233c1.701 23.817 8.073 43.278 25.938 59.813 15.142 12.44 33.63 16.599 52.874 16.5l3.472-.018c16.836-.241 34.292-4.085 46.716-16.295.964-1.552 1.919-3.11 2.864-4.673 2.283-2.96 3.49-4.156 7.136-5.124 3.767-.262 7.474-.243 11.242-.117 1.41.014 2.82.025 4.23.031 3.717.029 7.43.112 11.147.207 3.688.084 7.376.113 11.065.149 16.782.186 33.551.744 50.316 1.527-.296 1.415-.597 2.83-.9 4.243l-.507 2.387c-.933 3.727-2.437 7.102-4.093 10.558l-1.057 2.213c-16.586 33.562-49.877 57.282-84.556 69.333-17.067 5.7-33.94 7.779-51.89 7.657-2.797-.016-5.593 0-8.39.02-16.34.02-32.8-1.357-48.482-6.223l-2.63-.79c-26.41-8.108-49.63-21.27-69.495-40.398l-2.395-2.168c-18.791-17.541-28.624-44.018-33.918-68.582l-.446-2.068c-2.97-14.99-3.588-29.892-3.557-45.136.003-3.146-.02-6.29-.045-9.437-.131-41.682 9.983-83.268 37.361-115.609l2.121-2.531c5.414-6.253 11.322-11.444 17.879-16.469l2.652-2.059c61.577-46.386 159.51-41.816 214.848 12.184zm-165.688 45.5C2323.222 231.786 2313 250.835 2313 268h143c0-17.161-6.184-32.636-17.543-45.543-16.131-16.131-35.402-21.046-57.539-21.523-17.424.396-33.43 6.787-46.106 18.691zM4041 163a305.674 305.674 0 0 1 7.813 7.5l1.87 1.854c4.317 4.39 4.317 4.39 4.317 6.646l3 1a91.54 91.54 0 0 1 4.563 6.438l1.323 2.029c13.672 21.25 23.663 43.794 29.114 68.533l.814 3.548c2.522 11.866 2.678 23.647 2.632 35.743-.008 3.374.02 6.747.052 10.121.06 18.303-2.155 35.856-7.748 53.338l-.897 2.865c-2.939 9.115-6.609 17.807-10.853 26.385l-1.004 2.03c-14.984 29.88-36.448 53.178-66.996 66.97l-3.61 1.652c-43.828 18.805-100.578 17.244-144.822.391-36.672-14.899-61.37-44.782-76.587-80.617-8.668-21.434-15.042-44.632-15.184-67.88l-.022-2.345c-.23-32.626-.23-32.626 3.225-48.201l.602-2.763c9.705-43.194 31.677-83.612 69.52-107.885C3898.096 115.666 3991.067 119.087 4041 163zm-163 61c-2.502 3.162-4.306 6.349-6 10l-1.508 3.21c-16.104 36.014-18.959 77.027-5.254 114.325 6.529 17.666 6.529 17.666 18.762 31.465l2.3 1.805c16.554 12.302 36.055 18.003 56.554 15.301 18.406-2.847 35.898-11.962 47.146-27.106 1.702-2.81 3.124-5.706 4.5-8.688l1.159-2.491c4.06-9.011 6.975-18.237 9.341-27.821l.54-2.13c8.277-34.327 1.578-73.27-15.54-103.87-8.66-13.688-26.4-22.071-41.535-25.816-25.8-5.599-52.164 3.04-70.465 21.816zM3383.563 165.063c13.18 13.33 19.343 30.797 22.437 48.937l.524 2.866c.81 5.784.632 11.635.637 17.463l.015 4.043c.013 3.65.02 7.3.024 10.95.003 2.29.007 4.579.012 6.869.013 7.192.023 14.384.027 21.576.004 8.25.022 16.498.05 24.747.023 6.408.033 12.816.034 19.224.001 3.812.007 7.623.025 11.434.178 39.88.178 39.88-6.535 58.703l-.91 2.628c-9.532 26.45-30.173 46.73-55.215 58.747-31.82 14.585-66.57 18.31-101.22 18.141-3.927-.016-7.852 0-11.779.02-16.665.014-33.005-.467-48.876-6.098l-2.226-.77c-23.728-8.553-41.71-24.062-52.774-46.855-6.248-14.016-8.05-27.431-8.063-42.625l-.002-2.107c.044-28.22 8.987-51.135 28.69-71.706 27.663-26.805 70.228-31.31 106.546-35.855a5752.463 5752.463 0 0 0 13.849-1.756c14.961-1.91 14.961-1.91 29.48-5.889l2.544-.793c7.29-2.466 12.992-6.487 17.08-13.082 3.201-8.661 3.115-17.1-.68-25.55-4.458-8.24-10.083-11.769-18.894-14.419-10.486-2.927-20.06-4.133-30.925-4.218l-3.635-.088c-13.311-.094-26.87 3.458-37.088 12.4-7.566 7.92-10.808 17.13-13.137 27.664C3213 242 3213 242 3212 243c-2.556.095-5.085.126-7.64.114h-2.425c-2.657 0-5.313-.009-7.97-.016l-5.511-.005c-4.845-.003-9.69-.013-14.535-.024-4.94-.01-9.88-.015-14.82-.02-9.7-.01-19.4-.028-29.099-.049.148-2.569.3-5.137.452-7.705l.126-2.193c1.32-21.878 10.653-46.73 25.422-63.102l2.578-2.86c26.731-28.612 66.312-35.71 103.813-37.007 40.442-1.04 90.455 5.892 121.172 34.93zm-70.626 143.625c-4.76 2.403-9.465 4.286-14.593 5.773l-2.21.644c-9.915 2.793-20.062 4.496-30.193 6.3-23.616 4.158-23.616 4.158-44.941 14.595l-2.063 1.375c-7.227 5.476-12.078 14.796-13.937 23.625-.774 12.803-.523 24.583 8 35 9.12 9.242 19.965 13.836 33 14 20.861-.825 42.488-7.001 57.309-22.398 20.837-23.965 17.968-51.943 16.691-81.602-2.859 0-4.555 1.318-7.063 2.688zM3032.125 149.938l3.087 1.447c24.868 12.128 41.382 32.97 50.788 58.615 4.93 14.403 9 29.705 9 45h-92l-4-16c-6.797-15.39-14.335-24.515-29.938-31.313-16.412-6.04-36.294-5.39-52.18 1.833-16.767 8.61-26.778 20.569-32.882 38.48-3.204 10.489-5.78 21.088-7 32l-.336 2.91c-3.118 32.65-.979 71.914 20.086 98.777 10.123 11.204 24.968 17.513 39.835 18.481 17.671.742 34.396-.814 48.228-13.23 10.773-12.003 15.102-27.514 18.187-42.938h91c-2.827 33.928-16.85 61.405-40 86l-1.66 1.82c-25.05 26.466-63.014 40.038-98.781 41.118-41.656.725-85.36-4.662-118.559-31.938l-2.73-2.195c-13.07-11.127-22.558-25.61-30.27-40.805l-1.058-2.062c-12.34-24.303-19.027-50.863-19.145-78.149l-.017-3.176c-.01-2.21-.016-4.42-.02-6.631-.01-3.313-.04-6.626-.073-9.939-.086-17.285 1.495-33.875 6-50.605l.773-2.894c7.57-27.211 21.728-52.444 41.54-72.544l2.285-2.324c51.738-49.431 138.442-48.735 199.84-19.738zM1988 630h92l8.125 28.875a75446.368 75446.368 0 0 0 32.003 113.253c1.51 5.337 3.022 10.674 4.535 16.01 2.731 9.64 5.457 19.28 8.164 28.927l3.651 12.99 1.725 6.157c.786 2.813 1.576 5.625 2.368 8.436l.705 2.538c.795 3.704.795 3.704 2.724 6.814l.915-3.171c25.725-89.16 25.725-89.16 37.954-131.43l2.722-9.412a10732.27 10732.27 0 0 1 6.728-23.19 1695.85 1695.85 0 0 0 3.342-11.646c.871-3.065 1.755-6.127 2.636-9.19l.916-3.284c3.683-12.7 9.155-22.012 20.787-28.677 9.14-4.584 18.09-4.527 28.043-4.39a1829.168 1829.168 0 0 1 17.552.116c4.331.04 8.662.059 12.993.079 8.47.042 16.941.11 25.412.195-1.313 6.452-3.08 12.504-5.316 18.691l-.994 2.792c-1.08 3.028-2.166 6.054-3.253 9.08l-2.3 6.452c-1.591 4.462-3.184 8.923-4.78 13.383a9475.098 9475.098 0 0 0-9.696 27.3l-3.137 8.857a20416.534 20416.534 0 0 0-17.367 49.287 7923.393 7923.393 0 0 1-16.487 46.46c-5.628 15.707-11.155 31.45-16.67 47.198a9000.218 9000.218 0 0 1-23.428 66.117 4757.716 4757.716 0 0 0-3.772 10.555c-1.057 2.964-2.116 5.927-3.175 8.89l-1.102 3.104-.984 2.744-.837 2.348C2190 955 2190 955 2189 956c-2.708.095-5.391.126-8.1.114h-2.572c-2.819 0-5.638-.009-8.457-.016l-5.847-.005c-5.141-.003-10.282-.013-15.423-.024-5.241-.01-10.483-.015-15.724-.02-10.292-.01-20.585-.028-30.877-.049-3.32-7.748-6.336-15.535-9.047-23.516l-1.116-3.25a5334.78 5334.78 0 0 1-2.361-6.896 8784.085 8784.085 0 0 0-6.363-18.53l-.653-1.9c-4.265-12.392-8.627-24.749-13.023-37.096A5455.89 5455.89 0 0 1 2052 815a5678.219 5678.219 0 0 0-17.563-50.188 7015.322 7015.322 0 0 1-19.251-54.956l-2.096-6.055-1.036-2.993a8988.136 8988.136 0 0 0-10.679-30.62l-.837-2.39a38489.732 38489.732 0 0 0-3.153-9 3121.642 3121.642 0 0 0-4.337-12.303l-.983-2.782a1970.87 1970.87 0 0 0-1.9-5.352l-.858-2.43-.766-2.157C1988 632 1988 632 1988 630z"/></g><path d="M437.492 562.508c9.448 6.84 15.597 15.635 17.508 27.18l.375 2.761c.69 2.814 1.75 4.375 3.625 6.551 3.833-.248 5.57-.585 8.379-3.293l2.184-2.894 2.351-3.028c1.146-1.53 2.29-3.062 3.422-4.601C482.08 576.406 492.406 571.39 503 569c14.187-1.709 33.125-.503 45 8 8.55 6.952 15.379 15.839 17 27 .258 3.54.442 7.08.621 10.625.361 3.215.84 5.538 2.379 8.375 3.793 1.264 7.088 1.851 11 1 2.996-1.988 5.432-4.496 8-7 10.127-8.838 20.461-13.519 33.934-13.406 12.806.877 25.699 7.428 34.379 16.719C664.55 632.01 666.336 645.53 665 660c-1.04 6.631-2.506 13.444-5.11 19.64-1.64 4.348-1.424 8.793-.89 13.36 1.244 3.309 1.244 3.309 4 5 6.095.442 11.016-.592 16.813-2.375 1.596-.463 3.194-.922 4.792-1.379l2.307-.66c16.681-4.677 34.387-4.33 49.669 4.12 12.861 7.473 22.585 19.413 26.837 33.817 2.775 16.575.574 33.22-9.168 47.165-9.23 12.068-22.155 19.929-37.25 22.312-5.669.199-11.33.112-17 0l-3.29-.05c-13.02-.615-23.842-5.612-33.71-13.95l-1.988-1.648c-11.29-10.264-15.87-24.953-16.672-39.743-.5-3.84-1.785-5.744-4.34-8.609-3.279-1.64-6.47-1.655-10-1-2.964 1.654-5.438 3.785-8 6-7.506 6.314-15.98 10.928-26.074 10.445-14.786-2.25-28.077-7.445-37.27-19.746-2.653-4.324-4.229-8.853-5.656-13.699l-1-3a58.32 58.32 0 0 1 .043-4.055l.064-2.363c.054-1.63.119-3.26.196-4.89.09-4.062.029-6.145-2.127-9.7-2.692-2.464-4.667-2.909-8.238-3.492-4.97.631-7.38 2.656-11.317 5.617-9.678 6.952-19.74 10.13-31.621 8.883-16.266-3.986-28.703-12.838-37.36-27.031-7.07-12.794-7.867-23.53-7.337-37.832.169-5.723.169-5.723-1.94-10.903-2.35-1.456-2.35-1.456-5.281-1.257-3.632 1.206-5.58 2.82-8.394 5.398-9.351 7.895-17.557 8.56-29.688 7.625-11.719-1.937-22.596-9.203-29.625-18.625-7.177-10.853-8.96-21.566-7.375-34.375 2.52-10.773 9.478-18.962 18.313-25.375 14.358-8.714 32.547-9.97 47.18-1.117z" fill="#fefefe"/><path d="M1809 517v438h-81a205991.228 205991.228 0 0 1-.167-166.762c-.013-18.524-.037-37.048-.064-55.571-.029-19.014-.045-38.027-.051-57.041-.004-11.728-.017-23.456-.042-35.184-.016-8.047-.02-16.095-.017-24.142.002-4.64 0-9.28-.017-13.919-.014-4.256-.015-8.51-.005-12.766.002-1.532-.002-3.064-.012-4.596-.106-18.204 3.017-34.263 15.96-47.769 18.122-16.89 41.57-20.25 65.415-20.25zM2492 621v88h-37c-21.253 3.75-38.813 8.637-51.79 26.484-5.795 8.796-8.358 19.137-10.523 29.328l-.483 2.22c-3.834 19.951-2.339 41.175-2.305 61.405.006 4.462.006 8.923.008 13.385.003 8.417.01 16.835.021 25.253.013 11.397.019 22.793.024 34.19.01 17.912.03 35.823.048 53.735h-87c-.08-43.5-.08-43.5-.098-61.844-.011-12.624-.025-25.25-.053-37.874-.02-9.198-.033-18.395-.037-27.593-.003-4.861-.009-9.722-.023-14.583-.144-49.29-.144-49.29 4.399-68.731l.653-2.863c5.163-21.715 13.887-43.129 28.159-60.512l1.217-1.527c28.106-35.249 69.305-51.402 113.23-56.534C2464.29 621.444 2478.081 621 2492 621zM2770 133v87l-8-1c-25.31-1.287-52.154.175-72.375 17.25-14.716 14.168-20.024 36.574-20.764 56.483l-.02 3.91-.014 2.2c-.015 2.407-.024 4.814-.032 7.221l-.03 5.206c-.027 4.693-.048 9.387-.068 14.08-.022 4.912-.05 9.823-.076 14.735-.05 9.293-.095 18.586-.138 27.878-.06 12.563-.125 25.126-.191 37.689-.104 19.783-.197 39.565-.292 59.348h-85c-.161-46.389-.161-46.389-.195-65.963-.024-13.467-.052-26.934-.107-40.402-.04-9.812-.065-19.623-.074-29.436a3322.02 3322.02 0 0 0-.047-15.554c-.232-42.66 3.482-85.356 30.423-120.645l2.035-2.7c27.637-35.16 67.366-51.794 110.902-57.48 14.496-1.63 29.62-1.883 44.063.18z" fill="#2c3176"/><path d="M1874 630h86v325h-86V630z" fill="#2c3177"/><path d="M1874 524h86v86h-86v-86z" fill="#2d3276"/></svg>