<svg height="1042pt" viewBox="-.3 -.1 4097.4 1047" width="4096pt" xmlns="http://www.w3.org/2000/svg"><path d="m703.1 1c-74.6 3.5-141.3 13.2-210.6 30.4-121.8 30.2-225.3 76.9-308 138.8-109 81.6-172.8 182.6-183.5 290.7-1.3 13.3-1.3 85.2 0 99.6 21.2 232.5 231.3 412.9 541.3 465 110.3 18.5 229.5 21.4 346.7 8.4 100.8-11.1 197.8-36.1 280-72.2 114.1-50 204.9-122.2 262.4-208.7 39.3-58.9 61.6-119 70.3-189 2.3-18.5 2.6-92 .5-109-11.4-90.2-51.8-166.9-125.9-239-117.8-114.9-305.6-191.9-513.8-210.9-12.1-1.1-29.6-2.5-39-3.1-22.4-1.4-98.4-2.1-120.4-1zm112.9 34.1c53 2.7 101.4 8.8 155 19.5 116.4 23.3 209.8 60.8 299.4 120.2 21.8 14.5 21.5 12.1 2.3 19.8-50 20.2-107.4 31.6-159.2 31.7-58.2.1-113.6-12.5-170.5-38.8-73.8-34.1-161.2-45.6-227-29.9-38.1 9-71.6 24.8-101.6 47.7l-10.9 8.3-15.9 1.7c-19.8 2.2-41.1 6.5-59.2 11.8-7.6 2.3-17.5 5.3-21.9 6.6s-13.6 3.6-20.5 5.1c-11.6 2.4-14.3 2.6-37 2.7h-24.5l-27.5-5.7c-31.7-6.6-67.1-15.2-95-23.3-24.3-6.9-80-25.5-80-26.6 0-1.2 23.5-16.8 41.5-27.6 148.7-89.4 347-133.6 552.5-123.2zm-9.5 153.9c37.9 3.3 79.5 13.8 113.1 28.5 27.1 12 35.7 15.5 47.7 19.9 85.5 31 170.7 34.6 262.3 11.1 29.2-7.5 52.3-15.5 80.6-28.2l14.8-6.5 7.7 6.8c11.9 10.5 34.8 33.7 44.9 45.4 36.9 42.7 62.2 86 77.6 133 3.7 11.2 8.3 28.8 7.7 29.4-.2.2-12.4 3.4-27.2 7.1-86.6 21.5-177.6 52.2-261.1 87.9-9.8 4.2-18.2 7.8-18.6 7.9-.5.1-20.3-16.5-44.2-36.9-153.7-131.6-227.7-192.6-256.4-211.4-9.9-6.5-29.5-16.1-39.5-19.4-16.8-5.6-37.3-6-56.8-1.1-21.7 5.3-59.3 26.6-84.6 47.8-44.9 37.6-67.5 53-83.9 57.2-22.2 5.6-44.2 4.4-60.1-3.4-10.3-5-12-6.3-10.9-8.3 2.1-3.6 69.2-76.3 81-87.8 35.8-34.6 59-50.7 92.1-63.6 18.9-7.4 49-14 71.3-15.7 10.3-.8 31.3-.6 42.5.3zm-601.4 29.6c63.5 24 144 47.1 198.4 57 13.9 2.6 17 2.8 43 2.8 35.3.1 41.3-.9 87.8-14.4 9.8-2.8 18.2-5 18.7-4.8s-14.8 17.5-34 38.6c-39.9 43.9-39.4 43.2-39.5 58.2 0 8.4.3 10.2 2.8 15.2 1.5 3.1 5.2 8.1 8.3 11.1 9.1 9.2 29.5 18.3 49.5 22.2 17.5 3.4 43.1 2.9 58.6-1.1 21.1-5.5 45.2-20.8 86.3-54.6 18.5-15.3 37.3-27.8 56-37.2 22.4-11.4 27.6-13 44-13 13.1-.1 13.9 0 24.2 3.6 16.8 5.8 27 11.5 41.8 23.2 3.6 2.9 14.4 11.5 24 19.1 28.8 22.9 86.6 71.4 187.5 157.4 24.2 20.7 51.7 44 61 52 9.4 7.9 18.7 16.6 20.8 19.3 8 10.6 9.7 25.2 4.2 36.3-7.1 14.6-29.5 25.4-47 22.5-11.8-1.9-15.3-4.2-38.5-25.1-52.9-47.7-92.2-81.6-97.3-83.9-2.3-1.1-6.2-2-8.6-2-3.6 0-4.9.6-7.7 3.4-2.9 2.9-3.4 4.1-3.4 8 0 2.7.8 6.3 1.9 8.4s24.6 26 54 55c59.4 58.5 57.6 56.4 57.6 71.2 0 7.2-.5 9.4-2.8 14.1-3.4 6.9-11 14.3-20.1 19.4-8.4 4.7-12.5 6.1-21 7.5-7.5 1.2-17.6-.4-24.2-3.9-2.2-1.1-12.9-10.7-23.9-21.3-45.5-43.9-65.7-61.6-72.3-63.6-8.2-2.5-13.8-.8-16.8 4.9-1.9 3.8-1.8 7.3.6 11.7 1 2 18.9 22.4 39.6 45.2 21.4 23.6 38.5 43.2 39.5 45.5 6.6 14.3-5 30.8-26.2 36.9-7.3 2.1-23.2 2.3-27.9.4-2-.9-10.4-8.3-19.5-17.4-16.1-16-47-44.1-52.9-48-8.2-5.5-15.6-5.5-20.5.2-3.6 4-4.1 8.6-1.5 14 .9 1.9 14.4 17.7 30 35s28.4 31.9 28.4 32.4c0 1.8-6.6 5.9-12.7 7.9-3.4 1.1-9.2 2.4-13 2.7-13.5 1.3-35.2-3.1-50.4-10.2l-7.6-3.6 2.3-7.4c11-34.7-1.2-73.9-30.1-96.9-13.4-10.6-31.5-17.9-47.6-19.2l-7.6-.6-.6-10.1c-1.9-35.3-26.3-63.1-63.3-72.3-9.2-2.3-30.6-2.3-38.6-.1l-5.6 1.6-3.7-5.4c-5-7.3-15-16.4-23.2-21.3-9.4-5.5-25.9-10.9-37.3-12.1-18-1.8-34.9 1.3-50.2 9.2l-7.6 3.9-7.2-5.9c-16.8-14.2-37.9-20.8-58.4-18.2-14 1.7-28.3 7.6-38.3 15.6-2.3 1.9-4.4 3.4-4.8 3.4s-4.7-2.5-9.6-5.5c-51.2-31.7-142.9-63.5-257.4-89.5-16.4-3.7-51.1-12.7-52.7-13.6-1.9-1.2 7-32.9 14.9-52.9 17.4-44.3 45.1-86 83.3-125.8 14.5-15.1 43.9-41.7 46.1-41.7.3 0 8.4 3 18 6.6zm1262.9 251.1c0 1 .5 10.5 1.1 21.1 1.2 22.6.4 33.7-4 55.7-11.8 59-40.2 114.9-84.4 166-12.6 14.7-41.2 42.6-56.7 55.5-110.1 91.6-265.1 153.5-438 174.9-109 13.5-217 11.4-323.5-6.5-145.1-24.4-278.8-80.1-373.2-155.6-81.6-65.3-132.7-141.4-150.2-223.8-4.4-20.7-5.5-32.5-5.5-58.7-.1-13.8.2-25.4.5-25.7.6-.7 48.1 9.9 89.9 20 91.1 22 165.3 48.8 206.8 74.7 6.8 4.3 8.2 5.6 7.7 7.2-2.8 10.5-3.7 18.8-3.2 28.5 1.1 20.3 7.9 35.2 22.7 50.1 8.1 8.2 10.9 10.2 19 14.2 12.5 6.1 19 7.8 33.6 8.4l12.2.6 1.2 4.1c1.8 6.2 7.4 17.8 11.1 23.3 4.7 7 15.4 17.8 22.6 22.9 8.2 5.9 21.4 12 31.5 14.6 6.7 1.7 10.4 2 20.3 1.6l12.2-.4 2.6 4.6c9.7 16.9 26.4 30 47 36.8 16 5.3 29.5 6 42.7 2.2 1.9-.5 3.6-.6 3.8-.2 1 3 8.6 14.4 12.9 19.4 11.6 13.4 30.3 24.7 47.6 28.8 10 2.4 25.6 2.8 35.6 1 14.3-2.6 31.8-10.8 41.9-19.6l5-4.4 9.3 4.4c11.4 5.3 25.1 9.8 39 12.7 12.1 2.6 34.1 3.1 44.9 1 14.9-2.9 27.5-9.7 38.4-20.8l6.4-6.4 8.2 1.2c10.2 1.5 22 .7 32-2.1 15.3-4.3 33.6-16.2 44.2-28.8 4.7-5.5 13.8-21.9 13.8-24.8 0-1.1 2.1-1.4 9.8-1.4 20.3 0 37.2-5.4 55.7-18 19.6-13.3 29.9-30 34-55.3l.6-3.7h7.8c24.4 0 46.4-9 63.2-25.9 6.8-6.9 9.5-10.4 12.7-17.1 9.2-18.7 10.4-37.3 3.7-56.3-1.4-4-2.8-8-3.1-8.9-.7-2-2.1-1.3 28.9-13.4 60.8-23.7 124-44.6 186.7-62 21.4-5.9 66.3-17.2 68.8-17.3 1.5-.1 2.2.5 2.2 1.6zm-1036.8 90.2c7.7 3 15.8 10.5 19.7 18.3 1.7 3.4 3.1 7.3 3.1 8.7 0 7.8 4.5 14 8.9 12.6 1.2-.3 4.9-4.3 8.3-8.7 11.2-14.5 22.2-20.6 38.4-21.5 18.7-1.1 33.1 2.9 42.3 11.8 8.8 8.5 12.6 17.2 13.5 30.9.4 6.9.7 7.7 3.7 10.3 5 4.5 9.4 3.5 17.2-4 7.5-7.1 11.2-9.5 19.7-12.3 13.9-4.7 34 .4 46.2 11.8 12.9 12 16.1 34.6 8.4 58.7-3.5 11-3.4 15.8.3 19.6 1.6 1.6 4 2.9 5.3 2.9s8-1.6 14.9-3.5c29.5-8.4 50.4-4.8 66.9 11.5 11 10.9 16 23.1 16 39s-5 27.9-16.1 39.1c-4.7 4.8-8.7 7.7-14 10.2-11 5.2-16.2 6.1-30.8 5.3-20.3-1-29.8-4.5-41.2-15.4-8.8-8.2-14.5-19-16-30.2-.6-4.1-1.3-9-1.6-10.9-.6-4.6-5.2-9.1-9.3-9.1-3.9 0-6.2 1.2-12.6 6.6-6.8 5.8-15.2 9.5-22.8 10.1-4.9.4-7.9-.1-15.3-2.5-15.8-5.1-24.6-12.5-29.4-24.9-1.8-4.6-2.3-8-2.4-16.6-.1-10.1-.2-10.9-2.6-13.3-1.6-1.5-4.2-2.8-6.5-3.1-3.5-.4-4.8 0-10.9 4.3-15.3 10.4-26.1 12.7-39.3 8.1-10.3-3.6-17.5-8.2-24.1-15.4-6.6-7.1-11.3-15.9-13.7-25.3-1.3-5.1-1.5-9-1-18 .5-10 .3-11.8-1.2-13.6-3.7-4.6-5.9-4.1-16.2 3.8-7.1 5.5-11.7 7-21.1 6.9-21.5-.2-40-16.2-43.9-37.9-3.6-20.4 12.3-42.4 33.6-46.2 7.8-1.4 19.2-.5 25.6 1.9zm3292.8-529.2c-34.3 3.2-55.3 16.8-63.1 40.8-1 3-1.4 17.3-1.9 56.4l-.5 52.3-3.7-5.3c-5.6-8.2-17.3-19.5-26.8-25.8-18.8-12.6-40.7-18-67-16.7-31.8 1.6-59.9 13.7-81.6 35.2-22.4 22.3-40.5 63.2-45.9 103.8-2 15.6-2 53.5 0 68.9 4.2 31.7 17 62 36.7 86.4 28.5 35.1 100.5 52.6 164.4 39.8 57.6-11.6 94.5-47.9 107-105.5 1.8-8.1 1.9-16.3 1.9-168.8-.1-139.9-.2-160.4-1.5-161.2-1.4-.9-10.4-1.1-18-.3zm-119.7 176.2c28.3 7.3 46.6 30.6 53.2 68.1 2.5 14.5 3.1 44.1 1.1 56.5-3.1 18.7-12 39.8-21.2 50.3-5.9 6.7-16.4 13.7-25.4 16.9-6.4 2.3-9.5 2.7-21.6 3.1-16.4.5-22.7-.7-34.3-6.5-18.3-9.2-30.5-29-37.3-60.6-1.8-8.7-2.2-13.4-2.2-31.2s.4-22.5 2.2-31.2c7.8-36.4 24.3-58.2 49.5-65.4 8.8-2.5 26.1-2.5 36 0zm298.7-75.4c-45.4 6.2-77.7 25.2-100.1 58.9-40.2 60.4-44.6 136-11.8 200.7 23.2 45.6 53.8 68.1 105.4 77.5 14.2 2.5 47.9 3.1 64.5.9 37.4-4.7 63.1-16.4 85.6-38.9 21.3-21.3 38.4-55 46-90.8 3.5-16.7 4.5-49.3 2-66.8-8.3-57.2-38.6-105.3-79.3-125.9-15.9-8-32.7-12.9-53.1-15.6-13.8-1.8-45.8-1.8-59.2 0zm42.2 70c22.3 3.9 40.4 16.4 48.7 33.9 10.3 21.6 14.6 41.1 14.5 66.1 0 24.7-4.1 42.4-14.4 64.1-4 8.3-6 11.1-10.9 15.5-29.3 26.5-71.9 26.5-101.2 0-4.7-4.2-6.9-7.3-10.4-14.5-5.8-11.9-10-24.4-12.7-38.1-3.2-15.5-3.1-41.3.1-56.5 4.6-21.8 13.2-42.1 21.3-50.2 9.7-9.8 24.9-17.6 39.3-20.3 9.5-1.8 15.7-1.8 25.7 0zm-2096.7-69.4c-57.2 6.4-100.9 46.4-113.4 104.1-3.7 17.1-4.1 29.3-4.1 130v97.8h77v-101.3c0-111.3-.1-108.3 6.2-121.3 4.5-9.4 15.9-20.9 24.8-25.2 10.5-5.1 17.8-6.5 31-6 9.2.4 12.8 1 18.3 3.1 14.7 5.7 25.8 16.8 32 31.9l2.2 5.3.3 106.7.2 106.8h77.1l-.1-103.3c0-108.7-.1-106.5 4.4-117.1 2.6-6.3 10.4-16.4 15.9-20.8 6.2-4.9 17.2-10.1 24.5-11.7 7.4-1.6 21.5-1.3 29.1.4 18.6 4.4 34.7 20.3 39.5 39.1 1.4 5.5 1.6 18.5 1.6 109.8v103.6h77v-102.8c0-65.9-.4-105.8-1.1-111.2-4.3-35.4-17.6-64-39.1-84.5-17.4-16.7-38.3-26.9-65.3-32.1-12.7-2.5-41-2.5-52.2-.1-25.2 5.4-46.4 16.7-63.7 33.9l-7.8 7.9-9.8-9.5c-28.1-27.3-62-38.1-104.5-33.5zm1397.2 0c-35.5 2.9-63.3 13.9-83.1 32.8-7.9 7.6-12.6 14.2-18.5 25.9-7.4 14.7-13.1 35.5-13.1 47.8v4.4h80.5l1.7-7c6.5-26.8 25.2-39 58-37.6 34.5 1.5 50.1 11.9 49.9 33.3-.1 9.2-2.2 14.4-8.1 19.6-8 7.3-20.5 10.6-57.5 15.2-40.5 5.1-51.8 7.5-73.5 15.9-21.6 8.4-36.4 20.2-47.3 37.8-10.3 16.4-13.7 30-13.7 53.8 0 28.2 5.7 45.5 21.1 64 9.6 11.6 30.7 23.7 49.6 28.6 20.6 5.4 70.7 5.6 101.8.4 37.9-6.2 64-18.3 83.8-38.9 17.1-17.7 25.7-38.3 28.6-68.5 1.4-13.9 1.4-123.8.1-136.1-3.9-35.5-17.3-58.2-42-71-33.4-17.2-73.4-24.1-118.3-20.4zm75.1 199.5c-.3 24-.4 25.2-3 32.2-10 27.7-34.2 44.2-67.3 45.9-12 .6-18.5-.6-27.5-5.2-17.9-9.2-24.3-34.2-14-55.2 7.4-15 20.5-21.1 62.8-29.3 23-4.4 33.5-7.4 42.2-11.9 3-1.6 5.9-2.6 6.3-2.1.5.4.7 11.9.5 25.6zm-955.3-199c-18.5 2.2-32.4 5.7-46.4 11.6-46.2 19.8-75.3 54.8-87.1 104.9-8.6 36.4-7.5 85.7 2.5 120.3 6.7 22.8 16.2 39.3 32 55.2 27.1 27.2 64.5 43.9 106.2 47.4 37.9 3.1 66.4-1.8 95.5-16.7 14.9-7.6 26.4-16 38.8-28.3 13.8-13.8 22.1-26.5 28.6-43.7l2.4-6.3h-89.5l-5.7 6.4c-6.6 7.4-16.9 13.2-29.4 16.7-6.7 1.9-10.3 2.2-23.9 2.1-18.7-.1-27.3-1.9-40-8.1-22-10.9-37.2-34.7-39.2-61.4l-.6-8.7h234.3v-13.1c0-52.3-8.3-85.8-29-116.7-23.9-35.8-61-56.2-110.9-61.2-9.6-.9-31.8-1.1-38.6-.4zm36.4 69.9c30.4 6.4 51.2 29.4 54.7 60.5l.7 6h-72.7c-39.9 0-72.6-.2-72.6-.4 0-2.7 3.6-16.3 6-22.4 8.5-22 25.3-37.7 46.2-43.2 9.2-2.4 27.6-2.6 37.7-.5zm333.7-69.4c-21 1.6-41.8 6.3-60.1 13.6-52.9 20.9-86 68.7-91.5 132.3-.6 6.5-1 49.1-1 98.7v87.3h85.1l-.1-89.8c-.2-87.6-.1-89.9 1.9-99.9 5.5-26.7 14.8-40.3 33.6-49.3 13.5-6.4 19.9-7.5 44.2-7.5h21.3v-85.2l-6.7-.6c-7.9-.8-11.9-.7-26.7.4zm179.9 0c-42.8 5.8-80.7 28.5-102.3 61.3-17.7 26.8-27.8 56.2-30 87.6-1.4 18.5.1 54.1 2.7 66.5 5.5 26.2 13.2 44.9 27.6 66.6 20.9 31.4 53.6 49.5 99.5 55 16.4 2 51.4 1.8 63-.4 12.4-2.3 27.8-7.5 39.2-13.3 27.2-13.6 51.1-37.1 64.3-63.4 6.6-13.1 13.5-36.7 13.5-46.1v-2.9h-44.5c-34.8 0-44.6.3-44.9 1.2-.2.7-1 5-1.9 9.6-1.9 10.1-7.9 22.8-13.9 29.6-5.5 6.3-14.3 12-22.7 14.8-5.6 1.8-8.8 2.1-20.6 2-16.4-.2-23.6-1.8-34-7.7-17.5-9.7-26.8-25.3-33.2-55.5-1.5-6.9-1.8-13.2-1.8-34 0-28 .8-34.4 6.6-53.5 4.3-14.1 8.2-20.8 16.9-29.5 12.9-12.9 26.1-18 46.4-18 17.6 0 29.8 4.2 41 14.2 6.6 5.9 13.7 19 16.3 30.5l1.7 7.3h89.6v-3.6c0-5.3-4.5-26.7-7.6-35.9-11.6-35.1-30.6-55.1-65.9-69.5-24.9-10.2-41-13.1-73.5-13.5-13.5-.2-27.6.1-31.5.6zm-1123 385c-33.1 3.9-56.2 20.7-62 45-1.3 5.6-1.5 30.7-1.5 198.6v192.3h80v-437l-4.7.1c-2.7.1-7.9.5-11.8 1zm82.2 19.6c-.4 7.1-.7 26-.7 42v29.3h86v-84h-84.7zm586.8 85.4c-59.4 3.8-103.2 26.3-130.4 66.7-6.9 10.2-15.7 29.7-19.5 42.7-7.3 25.7-7 20.4-7.4 126.2l-.3 95.3h85.1v-87.3c0-75.7.2-88.6 1.6-96.8 6.3-36.6 20.9-53.1 53.7-60.6 5.3-1.2 12.4-1.6 27.5-1.7h20.2v-85.6l-9.2.1c-5.1.1-14.7.5-21.3 1zm166.2.9c-29.5 5.3-57.8 19.7-79.2 40.1-23.9 22.9-38.2 53.1-44.2 93.6-2.2 14.8-2.5 56-.5 70.3 5.5 39 17.6 66.4 38.7 87.5 25.2 25.2 63.2 42.4 102.8 46.6 15.8 1.7 46.6.6 58.9-2 50.6-10.9 93.3-45.7 108.4-88.4l1.3-3.7h-89.1l-6.6 6.8c-7.7 7.8-16.6 12.9-28.7 16.4-6.9 2-10.2 2.3-24.5 2.3-18.9-.1-25.3-1.3-38.8-7.6-6.2-2.8-10.2-5.6-15.4-10.6-15.1-14.6-22.8-31-24.5-52.2l-.6-8.1h234.6l-.6-22.8c-1.1-43.3-5.4-64.6-18.1-90.2-21.2-42.4-52.3-66-101.5-76.7-10.3-2.2-14.4-2.6-36.6-2.9-21.6-.3-26.5-.1-35.8 1.6zm51.6 76.6c4 .8 11.3 3.5 16.2 6 21.2 10.3 34.1 29.3 37 54.6l.6 5.8h-72.5c-44.4 0-72.6-.4-72.6-.9 0-3.1 3.4-16.3 5.9-22.6 3.7-9.6 12.8-23.2 19.3-28.9 6.6-5.8 15.3-10.4 24.8-13.3 9.5-2.8 30.1-3.2 41.3-.7zm-804.6-43.4c-.4 14.9-.7 87.8-.7 162v134.8h86v-324h-84.7zm114.3-26.4c0 .5 25.4 73.4 56.5 162.1 31.1 88.8 56.5 161.5 56.5 161.7s19.5.4 43.4.4h43.4l1-2.8c26-72.9 113.2-320.3 113.2-321.2s-8.8-1.1-36.2-.8c-35 .4-36.5.4-42 2.7-6.7 2.6-15.7 10.4-19.3 16.5-1.3 2.4-13.8 43.7-29.5 98.1-31.3 108.4-32 110.8-32.5 110.3-.3-.3-53-185.6-63-221.6l-1.8-6.2h-44.8c-24.7 0-44.9.4-44.9.8z"/></svg>