<svg height="321" viewBox="26.3 26.3 315.2 63.4" width="2500" xmlns="http://www.w3.org/2000/svg"><path d="m292.5 65.2c0-13.1 10.9-23.8 24.5-23.8s24.5 10.6 24.5 23.8c0 13.1-10.9 23.8-24.5 23.8s-24.5-10.6-24.5-23.8zm24.6 9.5c5.1 0 9.2-4.4 9.2-9.9s-4.1-9.9-9.2-9.9-9.2 4.4-9.2 9.9c0 5.4 4.1 9.9 9.2 9.9zm-271.5-31.4h-19.3v12.9h4.2v18.2h-4.2v13.1h19.6v-27.6c0-2.4.8-4.9 4.4-4.9 3.7 0 4.5 2.5 4.4 4.9v27.6h15.1v-27.6c0-2.5.8-4.9 4.4-4.9s4.4 2.5 4.4 4.9v27.6h19.7v-13.1h-4.2v-18.2c0-10-5.2-14.7-12.5-14.7-5.1 0-9.4 2-12.8 5.8-2.1-3.4-4.5-5.8-11.1-5.8-5.5.1-9.1 1.9-12.2 5.6v-3.8zm127.2-14.2h-15v14.2h-4.2v12.9h4.2v18.2h-4.3v13.2h23.6v-13.2h-4.2v-18.2h4v-12.9h-4.1zm40.2 17.3v-3.1h19.2v12.9h-3.7v18.2h3.6v13.1h-19.5v-3.1c-3.4 2.9-7.6 4.5-12.2 4.5-11.2.1-20.4-10.4-20.4-23.4s9.2-23.5 20.5-23.5c4.7.1 9 1.3 12.5 4.4zm-8.7 28.2c5 0 9.1-4.4 9.1-9.9 0-5.4-4.1-9.9-9.1-9.9s-9.1 4.4-9.1 9.9c-.1 5.4 4 9.9 9.1 9.9zm64.9-32.5c11.3 0 20.5 10.5 20.5 23.4s-9.2 23.4-20.5 23.4c-4.6 0-8.8-1.6-12.2-4.5v3.1h-19.5v-13.1h3.6v-35.4h-3.6v-12.7h19.2v20.2c3.5-3.1 7.8-4.4 12.5-4.4zm-3.7 32.4c5 0 9.1-4.4 9.1-9.8s-4.1-9.8-9.1-9.8-9.1 4.4-9.1 9.8 4.1 9.8 9.1 9.8zm-132.4.3h15.8c-1.7 6.9-10.7 14.7-23.3 14.8-12.7.1-24.4-8.8-24.4-23.9 0-12.7 9-23.7 24.4-23.9 14.9-.3 24.4 11.2 24.4 23.8 0 1.3-.1 2.4-.3 3.6h-31.8c.1 5.6 3.1 7.8 7.6 8.2 2.2.2 5.7-.4 7.6-2.6zm.2-14.4c0-4.2-3.5-7.6-7.8-7.6-3.8 0-7.7 3.5-7.7 7.6z" fill="#25473f"/></svg>