<svg height="2500" viewBox="32.2 11.6 295.6 336.8" width="2025" xmlns="http://www.w3.org/2000/svg"><path d="m326.2 119.2v-86.4l-5.8-1.8c-2.6-.8-63.3-19.4-139.7-19.4h-1.4c-76.5 0-137.2 18.6-139.7 19.4l-5.8 1.8v86.5c-.2 3.8-1.6 44.9 14.5 92.9 22 65.8 66.6 112.5 128.9 135.2l2.8 1 2.8-1c62.4-22.7 106.9-69.4 128.9-135.2 16.1-48 14.7-89.2 14.5-93m-30.2 88.3c-20.4 60.5-59.4 102-116 123.4-56.6-21.5-95.6-63-116-123.4-15.6-46.4-13.8-87.2-13.8-87.6v-74.8c16.8-4.6 68.3-17 129.1-17h1.4c60.6 0 112.2 12.5 129.1 17v74.8c0 .4 1.8 41.2-13.8 87.6"/><path d="m179.9 57.6s-17.4 9.1-29.4 26.7c-18.6-17-42.4-26.7-66.6-26.7v132.8c0 20.1 6.1 39.7 17.4 56.3v-169.7c3.2.7 6.3 1.7 9.5 2.9 4.5 1.7 9 3.8 13.3 6.3 20.2 11.5 34.2 29.8 41.5 53.4 3.3 10.1 5.3 21.4 5.7 33.8 0 1-.1 2-.1 3 0 1.4.1 2.9.1 4.4v25.2h-26.3v-29c-.6-23.1 2.3-41.3 6.8-55.5-3.5-6.1-7.6-11.6-12.4-16.5-7.3 17.5-12.5 41-11.7 72.3v90.2c0 6 2.8 11.6 7.5 15.3 3.2 2.5 6.5 4.9 9.8 7.1v-66.3h69.8v66.3c3.4-2.2 6.6-4.6 9.8-7 4.7-3.7 7.5-9.3 7.5-15.3v-90.3c.9-34.4-5.5-59.4-13.9-77.3 11.7-11.8 25.9-19.5 40.5-22.9v169.4c.1-.1.2-.3.3-.4 11.3-16.7 17.1-36.5 17.1-56.7v-131.8c-24.2 0-48.1 9.7-66.7 26.8-12-17.6-29.5-26.8-29.5-26.8m37.8 123.2v25.2h-28.9v-29.2c0-1.1-.1-2.2-.1-3.3.8-22 6.6-40.5 15.4-55.3-2.6-6.3-5.8-11.6-9.7-16.7-5.9 8.2-10.7 17.2-14.4 27-4.3-11.3-10.2-21.7-17.5-31 6.5-10.5 13.2-16.6 17.4-19.7 0 0 .2.1.5.4 1.6 1.2 3.6 2.9 5.7 5.1 4.5 4.4 10.9 11.4 16.6 20.5 1.9 3 3.7 6.1 5.2 9.5 4.2 8.9 7.4 19.3 8.1 30.9 1.2 10 1.8 22 1.7 36.6"/><path d="m171.2 304.1 8.8 3.8 8.8-3.8v-74.7l-17.6-.1zm111.4 3.8c0 4.8-3.7 8.5-8.6 8.5-4.8 0-8.7-3.7-8.7-8.5 0-4.7 3.8-8.4 8.7-8.4 4.9-.1 8.6 3.7 8.6 8.4zm-15.1 0c0 3.7 2.8 6.7 6.6 6.7 3.7 0 6.4-3 6.4-6.7s-2.7-6.8-6.5-6.8c-3.7 0-6.5 3.1-6.5 6.8zm5.2 4.4h-1.9v-8.4c.8-.2 1.8-.3 3.2-.3 1.6 0 2.3.3 2.9.6.5.4.8 1 .8 1.8 0 .9-.7 1.6-1.7 2v.1c.8.3 1.3.9 1.5 2.1.3 1.3.4 1.8.6 2.1h-2.1c-.3-.3-.4-1.1-.7-2.1-.2-.9-.7-1.3-1.7-1.3h-.9zm0-4.8h.9c1.1 0 2-.4 2-1.2s-.6-1.3-1.8-1.3c-.5 0-.9.1-1.1.1z"/></svg>