<svg height="165" viewBox="32.84 40.55769099 497.49 71.17230901" width="2500" xmlns="http://www.w3.org/2000/svg"><g fill="#010202"><path clip-rule="evenodd" d="m521.01 40.56c2.57 0 4.9 1.05 6.59 2.73 1.69 1.69 2.73 4.02 2.73 6.59s-1.04 4.9-2.73 6.58c-1.69 1.69-4.02 2.73-6.59 2.73s-4.9-1.04-6.59-2.73c-1.68-1.68-2.73-4.02-2.73-6.59s1.05-4.9 2.73-6.59a9.322 9.322 0 0 1 6.59-2.72zm5.91 3.41a8.321 8.321 0 0 0 -5.9-2.44 8.328 8.328 0 0 0 -8.34 8.34 8.328 8.328 0 0 0 8.34 8.34c2.31 0 4.4-.93 5.9-2.44a8.327 8.327 0 0 0 2.44-5.91c0-2.29-.93-4.38-2.44-5.89z" fill-rule="evenodd"/><path clip-rule="evenodd" d="m521.49 44.41h-4.31v10.93h1.8v-3.97h2.44l2.08 3.97h2l-2.31-4.36c.65-.23 1.16-.62 1.55-1.17s.58-1.19.58-1.92c0-.7-.16-1.31-.48-1.83-.32-.53-.76-.93-1.34-1.22s-1.25-.43-2.01-.43zm-2.51 5.4v-3.84h2.37c.65 0 1.16.17 1.54.52s.57.81.57 1.4c0 .58-.19 1.05-.57 1.4s-.89.52-1.54.52z" fill-rule="evenodd"/><path d="m179.36 61.66c4.03-.12 7.91 1.56 10.57 4.6 2.81 3.31 4.28 7.56 4.09 11.9v26.14h-11.26v-24.26c.15-2.23-.41-4.45-1.6-6.35a5.448 5.448 0 0 0 -4.65-2.16c-2.28-.11-4.48.9-5.9 2.69a11.972 11.972 0 0 0 -2.13 7.56v22.52h-10.96v-24.26c.15-2.23-.4-4.44-1.57-6.35a5.298 5.298 0 0 0 -4.58-2.16c-2.31-.11-4.54.89-5.99 2.69a11.85 11.85 0 0 0 -2.15 7.56v22.52h-11.27v-41.67h7.84l2.11 5.16c1.48-1.89 3.37-3.42 5.52-4.48 2.14-1.09 4.51-1.66 6.91-1.66 2.49-.04 4.94.56 7.12 1.75 2.08 1.14 3.8 2.85 4.97 4.92 2.97-4.19 7.79-6.67 12.93-6.66zm23.43-4.56v-10.47h11.23v10.47zm0 47.2v-41.66h11.27v41.67zm39.86 1.17c-3 .02-5.97-.56-8.74-1.71a21.543 21.543 0 0 1 -7.04-4.65c-2-2.02-3.57-4.41-4.63-7.04a22.59 22.59 0 0 1 -1.7-8.7c-.02-2.97.56-5.92 1.7-8.67a21.09 21.09 0 0 1 4.63-6.97c2.03-1.98 4.43-3.53 7.07-4.58 2.8-1.13 5.78-1.7 8.8-1.68a21.26 21.26 0 0 1 13.84 4.69c3.86 3.12 6.47 7.52 7.34 12.41h-11.19c-.83-1.97-2.23-3.64-4.03-4.8-1.8-1.15-3.89-1.74-6.03-1.71-2.89-.06-5.67 1.12-7.63 3.26a11.356 11.356 0 0 0 -3.07 8.08 11.52 11.52 0 0 0 3.09 8.16 9.948 9.948 0 0 0 7.61 3.33c2.15.04 4.26-.59 6.03-1.8 1.81-1.3 3.21-3.09 4.03-5.16h11.34c-.83 4.99-3.45 9.51-7.36 12.72a21.582 21.582 0 0 1 -14.06 4.82zm48.6-43.06h3.69v10.62h-4.86c-2.48-.24-4.95.57-6.8 2.24a10.777 10.777 0 0 0 -2.05 7.37v21.66h-11.27v-41.67h7.2l2 5.12c2.95-3.6 7.44-5.59 12.09-5.34zm27.39 43.06c-4.02.06-8-.93-11.53-2.86a20.821 20.821 0 0 1 -8.08-7.91c-3.89-7-3.89-15.51 0-22.51 1.92-3.32 4.71-6.04 8.08-7.87 7.2-3.8 15.82-3.8 23.02 0 3.38 1.83 6.18 4.56 8.1 7.89a22.975 22.975 0 0 1 0 22.49 20.873 20.873 0 0 1 -8.1 7.91 23.402 23.402 0 0 1 -11.49 2.86zm-7.99-13.77c4.48 4.24 11.5 4.24 15.98 0 4.17-4.7 4.17-11.76 0-16.46a11.608 11.608 0 0 0 -15.98 0 12.392 12.392 0 0 0 0 16.46z"/></g><path d="m386.94 104.3h-13.64l-13.34-19.93v19.93h-11.26v-56.7h11.25v33.53l12.51-18.5h12.95l-14.08 19.87zm27.16-42.64a14.25 14.25 0 0 1 11.26 4.73c2.93 3.56 4.42 8.08 4.18 12.68v25.24h-11.27v-23.44c0-6.23-2.42-9.34-7.27-9.34-2.6-.12-5.12.95-6.84 2.92a11.87 11.87 0 0 0 -2.5 7.97v21.89h-11.26v-41.68h7.72l2.18 5.16a16.87 16.87 0 0 1 6.01-4.5c2.45-1.1 5.11-1.66 7.79-1.63zm43.96 43.81c-4.02.06-8-.93-11.53-2.86a20.821 20.821 0 0 1 -8.08-7.91c-3.89-7-3.89-15.51 0-22.51 1.91-3.32 4.71-6.05 8.08-7.87 7.2-3.8 15.82-3.8 23.02 0 3.38 1.83 6.18 4.56 8.1 7.89a22.975 22.975 0 0 1 0 22.49 20.873 20.873 0 0 1 -8.1 7.91 23.348 23.348 0 0 1 -11.49 2.86zm-7.99-13.77c4.48 4.24 11.5 4.24 15.98 0a12.392 12.392 0 0 0 0-16.46 11.608 11.608 0 0 0 -15.98 0 12.392 12.392 0 0 0 0 16.46zm56.78 2.58h5.12v10.02h-7.99c-7.56.62-14.19-5.01-14.81-12.57-.06-.77-.06-1.54.01-2.31v-17.75h-7.53v-2.41l16.46-17.52h2.16v10.89h11.49v9.04h-11.3v16.23c-.35 3.17 1.94 6.02 5.12 6.37.42.05.85.05 1.27.01zm-393.11-17.24-6.48-8.38-7.16 9.28 4.62 6.03c1.4 1.81 2.01 4.1 1.71 6.37a8.414 8.414 0 0 1 -3.26 5.69c-3.75 2.89-9.13 2.19-12.02-1.56l-1.9-2.46-5.42-6.98v-.04l8.8-11.37c.7-.92 1.31-1.91 1.82-2.96a19.47 19.47 0 0 0 1.97-11.52 19.83 19.83 0 0 0 -3.67-9.25l-.27-.38c-.19-.23-.38-.49-.6-.72a.972.972 0 0 0 -.27-.3c-.42-.46-.83-.86-1.25-1.3-.49-.46-.98-.86-1.51-1.3-.88-.68-1.82-1.29-2.81-1.82-.48-.27-.97-.51-1.48-.72-.74-.33-1.5-.61-2.27-.83-.78-.24-1.58-.41-2.39-.53a9.863 9.863 0 0 0 -1.6-.19c-.53-.04-1.1-.08-1.63-.08s-1.1.04-1.63.08c-.32.01-.63.03-.95.08-.21.02-.41.06-.61.11a.328.328 0 0 0 -.19.04c-.91.15-1.8.38-2.68.66-.31.1-.61.22-.91.32-.83.31-1.65.66-2.44 1.07a17.67 17.67 0 0 0 -5.65 4.51 19.94 19.94 0 0 0 -2.77 22.06c.52 1.05 1.15 2.06 1.86 2.99l8.75 11.37-5.38 6.98-1.9 2.46c-2.91 3.74-8.29 4.43-12.06 1.56a8.616 8.616 0 0 1 -1.55-12.06l4.66-6.03-7.2-9.33-6.48 8.42c-6.7 8.79-5 21.35 3.79 28.05 4.16 3.17 9.4 4.59 14.59 3.94 5.25-.66 10.02-3.41 13.23-7.62l.08-.11 5.38-6.98h.04l5.38 6.98.08.11c6.73 8.73 19.27 10.35 28 3.62s10.35-19.27 3.62-28zm-43.86-10.09a8.564 8.564 0 0 1 -1.71-6.37c.19-1.67.89-3.25 2.01-4.51.17-.23.38-.43.61-.61.09-.11.19-.21.3-.3.1-.11.21-.2.34-.27.36-.3.75-.56 1.17-.76.39-.25.81-.44 1.25-.57h.04c.4-.13.8-.24 1.21-.3.51-.11 1.03-.16 1.56-.15.37-.01.74.01 1.1.08.14.01.28.03.42.08.42.05.82.15 1.21.3h.04c.43.16.85.35 1.25.57.43.19.82.45 1.18.76.24.17.47.36.68.57.23.23.42.46.61.65a8.5 8.5 0 0 1 2.01 4.47c.27 2.27-.35 4.55-1.74 6.37l-6.75 8.76z" fill="#67a72f"/></svg>