<svg viewBox="0 0 507.52 488" xmlns="http://www.w3.org/2000/svg" width="2500" height="2404"><path d="M500.52 91.09H285.64V0L0 48.8v389.1L285.64 488v-82.75h214.88c3.87 0 7-3.13 7-7V98.1c0-3.87-3.13-7-7-7zM178.28 333.14l-78.73-7.16V161.36l72.22-4.55-.65 32.53-42.94 1.95-.65 37.74 44.25-.65v31.23l-42.94.65-.65 37.09 50.1 2.6v33.18zm314.93 53.36H285.65v-21.84l20.87.72s43.63-38.26 68.26-87.6c.86-1.73.54-3.81-.78-5.22a4.647 4.647 0 0 0-6.6-.2l-63.54 60.32-18.22-.63v-83.96c10.93 7.95 23.12 15.72 36.07 22.19 1.73.86 3.81.54 5.22-.78a4.647 4.647 0 0 0 .2-6.6l-41.49-43.7v-57.07l23.68.82 18.78 18.06 13.94-19.23-28.23-27.8-28.17-.98v-24.34H493.2V386.5z"/><path d="M378.22 226.32c-1.76-.8-3.83-.41-5.19.96a4.657 4.657 0 0 0 .03 6.61l62.49 61.41v37.86h-41.23l-19.39-17.39-13.26 19.7 27.45 25.22a5.998 5.998 0 0 0 4.06 1.58h70.31c2.57 0 4.65-2.08 4.65-4.65v-66.11s-39.75-42.28-89.91-65.18z"/><path d="M333.28 227.15c1.84 1.81 4.81 1.78 6.6-.08l60.95-62.93 37.86-.27.3 41.23-17.25 19.52 19.8 13.12 26.59-29.37-.53-72.65c-.02-2.57-2.12-4.64-4.68-4.62l-63.67.46c-1.58.01-3.08.64-4.2 1.75-8.19 8.19-42.97 44.46-62.77 88.65-.79 1.76-.38 3.83 1 5.18z"/></svg>