<svg height="223" viewBox="257.895 139.394 1319.725 117.454" width="2500" xmlns="http://www.w3.org/2000/svg"><g fill="none"><path d="m369.266 210.259c-.761-14.17-1.708-31.278-1.523-46.263h-.566c-4.178 13.52-9.508 28.344-15.21 42.192l-18.624 47.563h-18.05l-17.102-46.915c-4.95-14.007-9.508-28.992-12.925-42.84h-.38c-.577 14.496-1.327 31.929-2.284 46.915l-2.851 44.146h-21.856l8.55-109.796h30.789l16.732 44.146a493.151 493.151 0 0 1 11.782 38.122h.566c3.416-11.894 7.79-25.416 12.729-38.285l17.68-43.983h30.407l7.409 109.796h-22.804zm49.718 44.797h23.564v-79.334h-23.564zm24.891-101.487c0 6.03-5.124 10.753-13.294 10.753-7.8 0-12.924-4.723-12.924-10.753 0-6.192 5.32-10.915 13.109-10.915 7.985 0 12.924 4.723 13.109 10.915m23.75 45.774c0-9.12-.196-16.776-.762-23.62h20.53l1.132 11.893h.577c3.992-6.192 14.067-13.685 29.462-13.685 16.143 0 32.877 8.962 32.877 34.046v47.08h-23.38v-44.799c0-11.4-4.94-20.035-17.68-20.035-9.313 0-15.764 5.701-18.245 11.726-.75 1.795-.946 4.238-.946 6.518v46.59h-23.565zm170.609 9.451c0-1.632-.195-3.585-.576-5.212-2.089-7.82-9.498-14.175-20.138-14.175-15.013 0-23.379 11.405-23.379 26.228 0 14.5 8.366 25.089 23.183 25.089 9.51 0 17.865-5.54 20.15-14.174.565-1.79.76-3.75.76-5.866zm23.37-69.4v93.348c0 8.14.38 16.944.761 22.315h-20.9l-.957-12.543h-.38c-5.506 8.794-16.722 14.334-30.213 14.334-22.04 0-39.535-16.124-39.535-40.561-.185-26.553 19.202-42.355 41.44-42.355 12.728 0 21.856 4.56 26.034 10.426h.38v-44.963zm39.111 36.328 9.694 36.004c2.088 8.468 4.178 17.104 5.885 25.738h.38c1.905-8.634 4.94-17.433 7.606-25.575l11.967-36.167h19.006l11.597 35.19c2.85 9.282 5.32 17.918 7.409 26.552h.38c1.524-8.634 3.613-17.27 6.083-26.553l10.259-35.189h22.999l-29.08 79.334h-21.662l-11.02-32.255c-2.851-8.305-4.951-15.802-7.04-25.412h-.38c-1.893 9.773-4.362 17.592-7.028 25.412l-11.782 32.255h-21.858l-27.362-79.334zm176.115 40.565c-16.537-.327-32.313 2.77-32.313 14.822 0 7.815 5.897 11.405 13.306 11.405 9.313 0 16.155-5.212 18.244-10.915.567-1.464.762-3.096.762-4.397zm22.802 19.71c0 7.17.381 14.173 1.327 19.06h-21.095l-1.512-8.804h-.577c-5.7 6.192-15.394 10.595-27.36 10.595-18.626 0-29.08-11.564-29.08-23.622 0-20.035 20.713-30.134 54.917-29.97v-1.307c0-5.212-2.469-13.843-18.81-13.843-9.117 0-18.626 2.443-24.89 5.861l-4.57-13.032c6.842-3.58 18.82-7.003 33.453-7.003 29.646 0 38.197 16.127 38.197 33.393zm24.664-34.697c0-10.75-.196-18.406-.762-25.578h20.334l.76 15.154h.763c4.558-11.242 15.394-16.944 25.272-16.944 2.285 0 3.612.163 5.517.49v18.897c-1.905-.326-3.993-.652-6.844-.652-11.217 0-18.811 6.192-20.91 15.148-.37 1.79-.75 3.912-.75 6.192v41.05h-23.38zm123.132 5.699c.186-7.33-3.611-19.382-19.191-19.382-14.448 0-20.53 11.241-21.476 19.382zm-40.667 14.011c.565 14.338 13.675 20.525 28.504 20.525 10.835 0 18.625-1.305 25.653-3.581l3.427 13.839c-7.985 2.778-19.006 5.055-32.312 5.055-30.026 0-47.706-15.965-47.706-40.235 0-21.993 15.59-42.681 45.237-42.681 30.213 0 39.905 21.177 39.905 38.606 0 3.749-.381 6.682-.75 8.472z" fill="#1a1918"/><path d="m1109.908 255.057-31.354-109.795h24.891l12.163 49.847c3.232 13.359 6.278 27.365 8.366 38.28h.381c2.09-11.562 5.701-24.595 9.313-38.442l13.871-49.685h24.522l12.73 50.5c3.23 13.032 5.895 25.248 7.79 37.139h.38c2.283-12.053 5.32-24.596 8.746-37.954l13.305-49.685h23.75l-34.4 109.795h-25.089l-13.294-51.64c-3.23-12.541-5.515-22.967-7.038-34.861h-.382c-2.273 11.73-4.743 22.32-8.55 34.862l-14.818 51.639zm154.442-39.587c0 15.314 8.748 26.886 22.999 26.886 13.296 0 22.608-11.246 22.608-27.211 0-12.38-6.462-26.55-22.422-26.55-16.538 0-23.184 13.68-23.184 26.876m69.747-.811c0 29.15-23.945 42.188-47.51 42.188-26.23 0-46.38-15.481-46.38-40.888 0-26.063 19.965-42.028 47.904-42.028 27.546 0 45.986 16.618 45.986 40.728m19.147-13.36c0-10.75-.195-18.406-.762-25.578h20.334l.761 15.154h.762c4.558-11.242 15.394-16.944 25.272-16.944 2.285 0 3.612.163 5.517.49v18.897c-1.905-.326-3.992-.652-6.844-.652-11.217 0-18.81 6.192-20.909 15.148-.37 1.79-.75 3.912-.75 6.192v41.05h-23.38zm91.006 9.285h.38c2.274-3.097 4.939-6.514 7.408-9.284l22.423-25.579h28.124l-34.204 32.42 39.153 46.915h-28.699l-26.61-35.026-7.975 7.982v27.044h-23.38v-115.662h23.38zm72.174 26.063c5.318 2.77 15.394 5.707 23.76 5.707 10.26 0 14.817-3.59 14.817-8.803 0-5.376-3.796-8.145-15.198-11.563-18.061-5.376-25.663-13.848-25.468-23.13 0-14.013 13.489-24.928 34.965-24.928 10.27 0 19.203 2.28 24.523 4.723l-4.57 14.175c-3.982-1.953-11.4-4.56-19.572-4.56-8.356 0-12.924 3.418-12.924 8.304 0 5.05 4.374 7.498 16.155 11.08 16.722 5.211 24.523 12.541 24.707 24.271 0 14.328-13.11 24.923-37.632 24.923-11.205 0-21.28-2.443-28.123-5.698z" fill="#84bf41"/></g></svg>