<svg clip-rule="evenodd" fill-rule="evenodd" height="1240" image-rendering="optimizeQuality" shape-rendering="geometricPrecision" text-rendering="geometricPrecision" viewBox="0.01 -0.04 21263.159999999996 10542.84" width="2500" xmlns="http://www.w3.org/2000/svg"><path d="M17496.55 4477.18h2197.01v502.25h-492.3c-119.16 0-216.66 97.49-216.66 216.64v2440.24c0 119.16 97.54 216.65 216.66 216.65h950.42c336.25 0 608.89-272.45 609.23-608.61v-404.84h502.25v1532.95h-3766.61v-519.5h394.42c119.14 0 216.65-97.52 216.65-216.65V5196.07c0-119.11-97.49-216.64-216.65-216.64h-394.42zm-754.22 3157.9l-1189.44-3157.9h-821.11l-1190.86 3161.65c-47.37 117.04-131.9 214.12-256.8 214.12h-161.85v519.5h1635.6v-519.5h-382.04c-128.12 0-231.06-115.74-178.64-251.43l125.26-332.54c23.43-54.4 58.54-94.98 121.26-96.28h1149.69c62.73 1.3 97.84 41.88 121.26 96.28l130.3 345.94c40.87 129.82-59.45 238.03-183.33 238.03h-364.37v519.5h2001v-519.5h-280.16c-130.16 0-232.72-100.65-275.79-217.87zm-2169.21-1031.61l445.44-1182.65 445.46 1182.65zM8370.8 8372.45h740.76c58.98-400.85 305.89-578.76 577.18-555.87 183.65 15.5 302.15 112.42 457.59 196.74 458.95 248.95 952.01 404.6 1518.69 359.13 683.36-54.93 1195.94-289.84 1516.56-831.66 219.81-390.41 262.32-806.97 160.82-1196.11-198.39-760.81-687.14-1023.2-1376-1293.29-467.72-183.42-941.58-311.93-1402.74-471.1-259.2-89.45-529.84-159.24-700.3-389.03-116.31-156.81-158.99-344.7-128.09-515.42 55.33-305.67 303.1-439.98 583.32-502.71 285.42-63.9 622.43-41.21 930.78 74.98 271.22 102.16 520.68 279.89 712.85 495.64 256.48 287.97 420.71 648.59 414.91 982.7h740.76V2491.98h-701.91c-2.05 117.38-24.87 213.3-65.73 293.99-94.64 186.9-230.29 235.03-434.4 185.58-203.23-49.24-417.57-226.99-629.66-317-323.57-137.31-649.32-189.31-999.09-210.23-597.92-35.77-1088.61 79.85-1420.31 388.67 61.26 55.05 186.98 181.79 288.43 298.94 81.01 93.54 150.92 187.02 175.55 251.55 11.72 30.69 19.91 59.69 21.03 96.18 1.72 56.86-14.56 106.19-57.91 152.31-24.9 26.46-58.02 48.32-97.83 65.76-29.06 12.75-62.6 23.8-99.47 33.11-32.5 8.2-70.2 15.71-114.27 21.86-40.51 5.66-87.01 9.96-140.56 12.24-46.31 1.97-98.75 2.18-152.94 1.09-63.13-1.28-122.02-3.91-172.54-7.32-30.45-2.06-60.48-4.55-90.22-7.62-5.33 35.19-10.05 71.09-14 107.85-27.68 257.44 4.05 518.14 120.7 758.48 230.06 473.95 670.42 714.74 1132.98 916.26 390.26 170.01 750.52 276.78 1161.52 384.85 380.33 100.02 903.73 218.95 1192.79 497.45 276.71 266.61 300.01 681.79 49.4 972.87-228.63 265.59-566.49 294.91-900.73 284.27-202.78-6.45-407.01-42.47-612.65-108.23-454.88-145.47-811.95-365.03-1101.03-748.78-237.48-315.25-376.06-684.77-423.79-1104.1h-660.49v2660.46zM.01 5246.31v598.97h2778.21v-598.97h-726.41c-119.16 0-216.66-97.5-216.66-216.65V1690.7l1639.76 4154.57h696.94l791.95-2006.52c-46.34.89-90.87-1.12-130.28-5.72-51.69-6.03-96.54-16.51-140.49-30.67-40.72-13.13-77.02-28.3-116.82-45.73-40.03-17.53-78.47-34.88-112.47-50.62-39.1-18.09-79.39-37.22-115.34-54.7-36.59-17.79-67.45-33.37-95.36-50.38-37.03-22.56-67.4-46.72-93.15-77.15-24.79-29.29-43.25-62.42-54.87-96.55l-60.87-147.78L2693.28-.04H.02v615.96h781.64c119.16 0 216.65 97.5 216.65 216.65v4197.06c0 119.15-97.5 216.65-216.65 216.65H.02zm4250.77-2150.52c7.22-4.43 14.75-8.9 22.6-13.45 24.93-14.48 46.47-26.35 69.17-38.87 43.78-24.13 91.75-50.58 121.92-69.84 36.24-23.13 67.98-47.91 99.14-72.24 14.11-11.01 28.13-21.96 45.42-34.92 30.9-23.19 62.36-45.41 92.04-63.36 35.32-21.36 72.81-40.45 112.17-54.94 37.53-13.84 75.38-22.63 115.42-28.5l5.9-.93c35.44-4.89 72.49-7.14 113.34-8.85 36.08-1.51 78.46-2.59 125.63-2.93 40.73-.31 81.98.01 121.66 1.15 60.73 1.75 88.87 3.46 112.86 4.98l22.34-56.61c.73-8.67 1.5-18.23 2.3-28.79 5.27-69.85 8.01-111.64 10.51-149.98l.62-9.56c-27.47-27.51-65.06-66.47-109.32-119.79-32.49-39.14-63.36-79.87-90.58-120.21-26.79-39.72-53.17-83.01-77.94-128.92-24.04-44.55-46.25-91.86-65.75-139.34-18.3-44.55-33.91-89.33-46.08-132.1l-2.43-8c-12.69-46.03-20.77-87.68-25.81-124.11-4.83-34.98-7.01-67.57-7.83-95.3l-.06-1.61c-.93-33.77.22-61.16 4.21-84.16 8.51-49.21 27.49-87.52 59.08-119.09 36.23-36.24 82.04-54.84 129.61-58.36 39.28-2.91 80.46 5.88 115.96 24.28 45.45 23.56 62.76 44.69 100.78 91.16l-.4.33 6.61 8.05c2.57 2.71 5.06 5.51 7.48 8.44 16.2 19.61 37.07 44.42 59.45 68.27 24.16 25.78 52.86 54.08 85.76 82.11 34.06 29.01 73.66 58.72 111.88 85.97 42.05 29.96 79.74 55.26 108.9 74.8 27.69 18.55 47.46 31.75 65.25 42.57 9.59 5.85 15.66 9.16 20 10.84 3.94 1.53 8.76 2.79 14.11 3.69 4.35.73 7.85 1.06 10.15.94 1.59-.08 12.62-2.5 25.38-5.29 11.92-2.61 25.06-5.48 54.05-10.12 27.87-4.46 60.25-7.99 94.26-9.81 29.57-1.58 61.97-1.94 95.59-.59 33.94 1.38 67.55 4.48 99.88 8.83 33.58 4.52 67.68 10.8 100.66 18.16 44.22 9.89 74.3 18.37 102.13 26.22 24.08 6.78 39.7 11.37 43.31 12.3 9.52 2.44 25.36 5.79 44.46 9.52 14.45 2.82 26.79 4.76 36.29 5.89 10.07 1.2 28.9 1.82 49.85 1.82 20.22 0 38.72-.59 49.07-1.82 9.5-1.12 21.86-3.08 36.35-5.91 19.1-3.72 34.86-7.06 44.41-9.5 3.6-.93 19.23-5.52 43.3-12.3 27.84-7.85 57.92-16.33 102.14-26.22 32.98-7.36 67.08-13.64 100.65-18.16 32.33-4.35 65.95-7.45 99.88-8.83l2.46-.09V832.62c0-119.15 97.49-216.65 216.65-216.65h781.64V.01H5395.04L4156.82 3005.98l93.99 89.83zm1541.74 2150.52h-845.68v598.97h1445.02c-25.5-7.35-50.43-15.92-74.78-25.83-37.57-15.29-76.91-35.23-118.22-60.33-41.43-25.16-81.68-53.76-119.03-85.45-35.87-30.44-71.02-64.98-104.35-103.57-33.91-39.25-66.02-83.4-94.62-130.44-28.57-46.98-52.61-94.76-70.44-141.26a784.484 784.484 0 0 1-17.9-52.09zm1140.23 598.97h1206.48v-598.97H7532.1a784.622 784.622 0 0 1-17.91 52.09c-17.83 46.51-41.87 94.29-70.43 141.26-28.61 47.05-60.71 91.2-94.62 130.44-33.35 38.6-68.5 73.14-104.36 103.57-37.36 31.69-77.61 60.29-119.02 85.45-41.33 25.1-80.66 45.04-118.22 60.33-24.35 9.91-49.3 18.48-74.79 25.83z" fill="#dd303f"/><path d="M11417.89 0h-732.78v273.43h172.57v601.49L10228.44 0h-759.33v273.43h164.64v1268.54h-185.88v273.43h854.91v-273.43h-260.21V542.35l915.19 1272.55 287.56.5V273.44h172.57V.01zM9132.11 1541.96h225.45v273.43H8449.6v-273.43h225.46V273.42H8449.6V-.01h907.96v273.43h-225.45zM11556.71 0h1605.75l148.68 661.3h-169.92c-93.86-247.66-230.41-387.87-471.53-387.87h-376.78v454.8h251.35V510.51h258.43v693.85h-258.43v-217.7h-251.35v555.31h376.78c241.12 0 377.67-140.22 471.53-387.88h169.92l-148.68 661.31h-1605.75v-273.43h279.16V273.43h-279.16V0zm1798.74 0l1160.25.34c273.18 9.27 493.62 224.91 493.62 487.25 0 199.93-128.04 372.73-309.87 447.75 88.14 36.84 171.82 108.74 170.49 279.76-1.63 80.33 17.21 129.93 65.14 135.93 73.63-3 62.3-96.3 93.46-144.43 25.85-41.7 79.3-28.82 118.95 107.61 24.24 108.65 23.16 205.66-6.97 289.3-40.43 112.26-119.85 188.37-237.47 210.95-164.11 31.53-279.41-109.55-342.67-242.99-34.42-72.57-46.71-137.98-65.62-207.97-22.12-81.92-67.02-201.86-129.23-260.14-93.87-87.86-257.67-80.18-377.63-81.41v520.01h203.89v273.43h-836.33v-273.43h175.39V273.42h-175.39V-.01zm973.21 273.43h-340.77v450.55h340.77c123.9 0 225.28-101.36 225.28-225.28 0-123.9-101.37-225.27-225.28-225.27zM7626.4 3521.47c2.27-19.26 4.53-38.51 8.5-61.74 3.96-23.22 9.62-50.41 16.99-70.8 7.36-20.4 16.43-33.99 28.9-44.76 12.46-10.76 28.31-18.68 42.47-22.65s26.62-3.97 38.52-2.26c11.89 1.69 23.23 5.09 48.72 16.42s65.13 30.59 117.24 56.65c52.11 26.05 116.67 58.91 173.32 88.36 56.64 29.45 105.34 55.51 172.75 73.64 67.41 18.12 153.49 28.31 253.75 35.11 100.26 6.79 214.68 10.2 307.56 6.23 92.89-3.96 164.25-15.29 220.33-29.45s96.86-31.15 114.98-50.41 13.59-40.78 1.69-71.93c-41.72-109.26-334.36-411.29-424.8-490.52-64.01-56.08-131.97-109.32-200.51-145.57s-137.64-55.51-215.24-68.54-163.69-19.82-232.79-16.43c-69.1 3.4-121.21 17-169.36 27.77-48.14 10.75-92.33 18.69-117.24 19.82-24.92 1.13-54.49-8.96-65.35-37.8-31.72-84.21-30.56-184.81-36.68-274.72-3.54-53.69-3.54-56.05 21.83-81.42 25.37-25.38 76.11-73.76 128.02-136.29 51.93-62.54 105.02-139.24 149.27-221.25 44.26-82.02 79.66-169.34 100.31-244.27 20.66-74.94 26.55-137.47 27.73-180.54 1.18-43.08-2.36-66.67-14.16-78.47s-31.86-11.8-47.79-3.54-27.73 24.77-61.37 65.49c-33.63 40.71-89.09 105.6-165.78 170.95-76.69 65.34-174.62 131.12-236.72 172.72-62.09 41.59-88.34 59-118.43 70.66-30.09 11.65-64.01 17.54-93.96 15.92-29.94-1.62-55.9-10.77-97.35-17.4-41.45-6.64-98.39-10.77-156.65-8.41s-117.85 11.21-170.66 23.01-98.83 26.56-140.12 37.18c-41.31 10.61-77.88 17.1-102.66 20.06-36.46 4.33-104.39 4.08-138.73 0-24.78-2.95-61.36-9.45-102.65-20.06-41.31-10.62-87.33-25.38-140.12-37.18-52.81-11.8-112.41-20.65-170.67-23.01s-115.2 1.77-156.65 8.41c-41.45 6.63-67.4 15.78-97.35 17.4-29.94 1.62-63.87-4.27-93.96-15.92-30.1-11.66-56.35-29.07-118.43-70.66-62.1-41.6-160.02-107.38-236.71-172.72-76.71-65.35-132.15-130.24-165.78-170.95-33.64-40.72-45.44-57.23-61.37-65.49-15.94-8.26-35.99-8.26-47.79 3.54s-15.34 35.39-14.16 78.47c1.18 43.07 7.07 105.6 27.72 180.54 20.65 74.93 56.06 162.25 100.32 244.27 44.25 82.01 97.35 158.71 149.26 221.25 51.92 62.54 102.66 110.91 128.03 136.29 25.36 25.37 25.36 27.73 21.82 81.42s-7.19 112.21-12.5 182.43c-5.3 70.21-10.18 105.38-14.16 133.92-14.67 105.32-52.04 114.86-141.54 110.91-45.48-2.01-73.7-5.41-155.7-7.77s-165.79-1.18-236.01 1.77c-70.21 2.95-126.84 7.67-182.89 28.33-56.06 20.64-111.51 57.22-161.08 94.4-49.56 37.17-93.22 74.93-155.16 114.46-61.96 39.53-142.2 80.82-197.07 112.68s-84.38 54.28-94.4 84.97c-10.04 30.68-.6 69.62 25.37 100.3 25.96 30.68 68.44 53.1 132.74 84.38 64.31 31.27 150.45 71.38 221.85 102.65 71.39 31.27 128.02 53.69 208.86 63.13 80.83 9.45 185.86 5.9 275.54-14.16s164.02-56.64 228.93-91.45c64.9-34.81 120.35-67.86 155.16-87.92s48.98-27.14 61.96-23c12.98 4.13 24.77 19.46 33.03 33.03s12.98 25.37 27.15 71.99c14.16 46.61 37.76 128.03 74.35 205.92 36.58 77.88 86.14 152.21 139.23 222.42 53.11 70.22 109.74 136.29 152.82 190.58 43.07 54.28 72.56 96.76 86.14 142.77 13.57 46.03 11.21 95.58 1.18 138.06-10.04 42.48-27.74 77.88-54.29 128.03s-61.95 115.04-83.19 187.62c-21.24 72.57-28.33 152.81-25.97 232.47 2.37 79.65 14.17 158.7 44.26 237.18 30.09 78.47 78.47 156.35 134.52 221.25 56.05 64.91 119.76 116.82 182.9 155.17 63.13 38.36 125.67 63.13 188.22 77.29 116.92 26.48 258.31 26.48 375.23 0 62.55-14.16 125.08-38.93 188.22-77.29 63.13-38.35 126.84-90.27 182.89-155.17 56.06-64.9 104.43-142.78 134.52-221.25 30.1-78.48 41.9-157.53 44.26-237.18 2.36-79.66-4.72-159.9-25.96-232.47-21.25-72.58-56.64-137.47-83.2-187.62-26.55-50.16-44.25-85.56-54.29-128.03-10.02-42.49-12.38-92.04 1.18-138.06 13.58-46.02 43.08-88.5 86.15-142.77 187.39-235.09 240.99-366 302.71-650.41zm744.38 5640.91h306.32l398.31 588.7v-588.7h310.02v1066.2h-310.02l-396.08-585.47v585.47h-308.55zm2023.39 1066.2h-275.67V10104c-41.04 51.38-82.34 87.86-123.87 109.7-41.79 21.83-92.97 32.75-153.78 32.75-81.1 0-144.38-24.32-190.61-73.21-45.99-48.65-69-123.84-69-225.35v-492.17h296.7v425.89c0 48.41 8.89 82.9 26.7 103.49 17.8 20.35 42.78 30.53 74.92 30.53 34.86 0 63.54-13.64 86.03-40.7 22.27-27.31 33.39-76.21 33.39-146.68v-372.53h295.21v772.85zm535.51-1066.2v293.35h161.68v217.41h-161.68v273.51c0 32.76 3.21 54.61 9.4 65.27 9.62 16.39 26.69 24.58 50.93 24.58 21.76 0 52.16-6.21 91.48-18.86l21.75 204.75c-72.93 16.13-140.92 24.07-204.22 24.07-73.43 0-127.57-9.42-162.43-28.29-34.61-18.87-60.33-47.65-77.14-86.13-16.57-38.46-24.96-101.01-24.96-187.13v-271.77h-108.29v-217.41h108.29v-141.7l295.2-151.64zm305.32 293.35h276.42v126.08c26.71-54.85 54.15-92.57 82.33-113.17 28.44-20.59 63.3-30.78 104.83-30.78 43.76 0 91.47 13.66 143.14 40.96l-91.49 210.22c-34.85-14.65-62.53-21.85-82.82-21.85-38.58 0-68.74 16.13-90 48.16-30.41 45.16-45.73 129.79-45.73 253.64v259.6h-296.7v-772.85zm665.82-293.35h295.2v201.02h-295.2zm0 293.35h295.2v772.85h-295.2zm1057.67 470.57l280.36 31.27c-15.57 58.82-40.78 109.7-76.14 152.89-35.11 42.93-80.35 76.43-135.23 100.26-54.64 23.84-124.36 35.74-208.92 35.74-81.84 0-149.81-7.7-204.22-22.83-54.15-15.38-100.87-40.2-140.17-74.46-39.08-34-69.74-74.21-91.99-120.37-22.24-46.15-33.37-107.2-33.37-183.4 0-79.43 13.59-145.69 40.54-198.56 19.78-38.96 46.98-73.7 81.35-104.47s69.48-53.86 105.81-68.75c57.61-23.82 131.28-35.75 221.04-35.75 125.84 0 221.51 22.59 287.53 67.52 66.03 45.17 112.25 110.93 138.94 197.56l-277.4 37.22c-8.64-33.01-24.48-57.82-47.47-74.71-23-16.62-53.89-25.06-92.72-25.06-48.7 0-88.27 17.63-118.67 52.61-30.17 35.25-45.24 88.36-45.24 159.84 0 63.53 15.07 111.67 45 144.69 29.91 33 67.99 49.38 114.47 49.38 38.56 0 71.2-9.92 97.42-29.54 26.44-19.84 45.98-50.12 59.08-91.08zm-333.76 423.4l21.75-86.37c45.5-11.17 88.03-16.88 127.82-16.88 82.59 0 139.69 14.15 171.09 42.2 31.4 28.29 47.22 61.55 47.22 99.76 0 23.33-7.16 47.41-21.52 71.98-14.08 24.83-39.8 44.69-76.39 59.81-36.84 15.15-85.8 22.6-146.61 22.6-55.12 0-120.15-6.2-194.59-18.87v-89.35c50.45 9.69 103.85 14.4 160.48 14.4 41.53 0 69.72-5.46 84.31-16.63 14.83-11.16 22.24-25.56 22.24-43.68 0-13.9-5.92-26.07-18.04-36.24-12.12-10.18-30.92-15.14-56.62-15.14-34.37 0-74.66 4.22-121.14 12.41zm1019.11-643.79l-281.86-29.78c10.64-49.65 25.96-88.61 46-116.9 20.01-28.54 48.71-53.1 86.52-73.95 26.96-15.14 64.04-26.81 111.27-35 47.2-8.19 98.38-12.42 153.52-12.42 88.26 0 158.97 4.97 212.63 14.9 53.4 9.93 98.15 30.77 133.75 62.3 25.21 21.84 44.99 52.86 59.33 92.82 14.58 39.96 21.76 78.18 21.76 114.66v341.51c0 36.48 2.22 65.02 6.93 85.62 4.44 20.6 14.58 46.91 29.91 78.92h-276.16c-11.13-19.85-18.29-34.75-21.76-45.16-3.22-10.43-6.69-26.57-10.14-48.65-38.57 37.22-76.89 63.78-115.2 79.67-52.18 21.34-112.74 32.01-181.73 32.01-91.72 0-161.44-21.34-208.92-64.28-47.71-42.69-71.45-95.56-71.45-158.09 0-58.83 17.06-107.2 51.44-145.19 34.36-37.96 97.65-66.26 189.87-84.64 110.51-22.32 182.22-37.97 215.1-47.15 32.89-8.93 67.74-20.6 104.33-35.25 0-36.48-7.42-61.79-22.5-76.44-14.84-14.64-41.05-21.85-78.62-21.85-48.22 0-84.33 7.7-108.55 23.33-18.77 12.42-33.87 35.26-45.48 69.01zm255.15 154.87c-40.57 14.64-82.84 27.55-127.09 38.96-59.82 16.13-97.92 32.02-113.71 47.65-16.57 16.15-24.72 34.51-24.72 55.11 0 23.58 8.15 42.94 24.23 57.83 16.29 14.89 40.05 22.34 71.45 22.34 32.87 0 63.52-8.19 91.98-24.33 28.17-16.14 48.21-35.74 60.07-59.07 11.87-23.33 17.81-53.6 17.81-90.84v-47.65zm25.21-698.4h114.22c.49 12.66.74 23.58.74 32.76 0 53.86-13.59 95.81-40.55 125.34-26.94 29.53-61.81 44.42-104.07 44.42-30.91 0-77.66-12.66-140.43-37.98-38.07-15.39-64.29-23.08-78.88-23.08-13.83 0-24.72 4.47-32.38 13.15-7.67 8.7-11.87 24.08-12.36 46.41h-112.74c-.5-11.66-.74-21.83-.74-30.77 0-52.12 14.33-93.56 42.77-124.09 28.43-30.77 62.07-46.16 101.12-46.16 16.82 0 32.9 1.98 47.72 5.71 15.08 3.97 42.52 14.4 82.83 31.27 40.31 17.13 69.73 25.57 88.02 25.57 12.87 0 23.49-4.48 31.4-13.41 7.91-8.94 12.37-25.31 13.35-49.14zm403.49 682.01c0-118.12 39.56-215.43 118.68-291.87 79.11-76.44 185.92-114.66 320.4-114.66 154.04 0 270.24 44.93 348.86 134.76 63.04 72.49 94.7 161.58 94.7 267.31 0 119.12-39.08 216.42-117.45 292.61-78.37 75.95-186.9 113.91-325.35 113.91-123.37 0-223.26-31.52-299.41-94.8-93.7-78.19-140.43-180.69-140.43-307.26zm295.21-.5c0 69.26 13.84 120.37 41.53 153.38s62.32 49.64 104.34 49.64c42.27 0 76.89-16.38 104.08-48.9 27.19-32.51 40.78-84.87 40.78-156.84 0-67.26-13.59-117.14-41.04-150.16-27.43-32.75-61.3-49.14-101.86-49.14-42.76 0-78.12 16.63-106.05 49.89-27.94 33.51-41.78 84.14-41.78 152.13zm1897.29 208.98h-371.84l-53.41 175.71h-335l399.77-1066.2h359.24l398.05 1066.2h-343.65zm-69.48-230.81l-115.94-383.19-116.45 383.19h232.4zm550.6-366.33h274.93v125.84c41.04-51.63 82.32-88.36 124.36-110.45 42.03-22.08 92.96-33.26 153.27-33.26 81.6 0 145.13 24.34 191.36 73.23 46 48.64 69 124.09 69 226.09v491.41h-296.7v-425.13c0-48.65-8.89-82.91-26.7-103-17.8-20.11-42.78-30.29-74.92-30.29-35.36 0-64.28 13.67-86.28 40.72-22.02 27.3-33.14 75.95-33.14 146.42v371.28h-295.2v-772.85zm999.81-293.35h295.21v201.02h-295.21zm0 293.35h295.21v772.85h-295.21zm486.57 0h274.93v112.44c39.56-47.17 79.62-80.68 119.91-100.52 40.31-19.87 89-29.8 146.11-29.8 61.32 0 109.77 10.93 145.63 32.77 35.84 21.84 65.02 54.36 87.76 97.55 46.24-50.39 88.27-84.89 126.34-102.99 38.07-18.13 85.05-27.32 140.91-27.32 82.34 0 146.62 24.58 192.86 73.97 46.23 49.14 69.47 126.32 69.47 231.06v485.7h-295.2v-441.52c0-35.24-6.69-61.3-20.27-78.19-19.54-26.79-44.26-40.2-73.44-40.2-34.62 0-62.55 12.66-83.81 37.97-21.03 25.32-31.66 66.03-31.66 121.86v400.07h-295.2V9802.7c0-34.01-1.97-57.08-5.94-69.25-6.18-19.36-17.05-35-32.64-46.91-15.31-11.91-33.61-17.87-54.39-17.87-33.87 0-61.81 12.91-83.58 38.47-21.74 25.81-32.62 68.01-32.62 126.82v394.61h-295.21v-772.85zm1750.44 250.18l-281.87-29.78c10.65-49.65 25.98-88.61 46-116.9 20.01-28.54 48.71-53.1 86.54-73.95 26.95-15.14 64.04-26.81 111.24-35 47.23-8.19 98.41-12.42 153.53-12.42 88.28 0 158.98 4.97 212.63 14.9 53.4 9.93 98.16 30.77 133.76 62.3 25.21 21.84 44.99 52.86 59.33 92.82 14.58 39.96 21.76 78.18 21.76 114.66v341.51c0 36.48 2.22 65.02 6.93 85.62 4.44 20.6 14.58 46.91 29.9 78.92h-276.17c-11.11-19.85-18.28-34.75-21.75-45.16-3.21-10.43-6.67-26.57-10.13-48.65-38.58 37.22-76.9 63.78-115.21 79.67-52.18 21.34-112.73 32.01-181.73 32.01-91.72 0-161.43-21.34-208.9-64.28-47.73-42.69-71.45-95.56-71.45-158.09 0-58.83 17.05-107.2 51.42-145.19 34.36-37.96 97.67-66.26 189.88-84.64 110.5-22.32 182.2-37.97 215.1-47.15 32.87-8.93 67.73-20.6 104.32-35.25 0-36.48-7.42-61.79-22.5-76.44-14.83-14.64-41.04-21.85-78.63-21.85-48.21 0-84.31 7.7-108.53 23.33-18.78 12.42-33.87 35.26-45.48 69.01zm255.14 154.87c-40.55 14.64-82.82 27.55-127.07 38.96-59.84 16.13-97.91 32.02-113.73 47.65-16.57 16.15-24.72 34.51-24.72 55.11 0 23.58 8.15 42.94 24.23 57.83 16.32 14.89 40.05 22.34 71.45 22.34 32.89 0 63.55-8.19 91.98-24.33 28.17-16.14 48.21-35.74 60.08-59.07s17.8-53.6 17.8-90.84v-47.65zm474.7-698.4h295.2v1066.2h-295.2z" fill="#37418d"/></svg>