<svg height="767" viewBox="0 0 590.9 181.3" width="2500" xmlns="http://www.w3.org/2000/svg"><g fill="#168285"><path d="m8.6 103.1c.4 0 .7 0 1.1-.1.3-.1.7-.3.9-.5.3-.2.5-.5.6-.9.1-.3.2-.7.2-1 0-.7-.3-1.5-.8-2s-1.2-.8-2-.8-1.5.3-2 .8-.8 1.2-.8 2c0 .4 0 .7.2 1 .1.3.4.6.6.9.3.2.6.4.9.5s.7.2 1.1.1zm7.4 0c.4 0 .7 0 1.1-.1.3-.1.7-.3.9-.5.3-.2.5-.5.6-.9.1-.3.2-.7.2-1 0-.7-.3-1.5-.8-2s-1.2-.8-2-.8-1.5.3-2 .8-.8 1.2-.8 2c0 .4 0 .7.2 1 .1.3.4.6.6.9.3.2.6.4.9.5s.7.2 1.1.1zm6.6 27.5c-.4 0-.7 0-1 .1s-.6.3-.9.5-.5.5-.6.8-.2.7-.2 1c0 .7.3 1.5.8 2s1.2.8 2 .8 1.5-.3 2-.8.8-1.2.8-2c0-.4 0-.7-.2-1-.1-.3-.4-.6-.6-.8-.3-.2-.6-.4-.9-.5s-.7-.2-1-.1zm7.3 0c-.4 0-.7 0-1 .1s-.6.3-.9.5-.5.5-.6.8-.2.7-.2 1c0 .7.3 1.5.8 2s1.2.8 2 .8 1.5-.3 2-.8.8-1.2.8-2c0-.4 0-.7-.2-1-.1-.3-.4-.6-.6-.8-.3-.2-.6-.4-.9-.5s-.7-.2-1-.1zm17.3-13.7c0-.7 0-1.5.3-2.2.2-.7.6-1.3 1.2-1.9.5-.5 1.1-.9 1.8-1.2s1.4-.4 2.2-.4c1.9 0 3.7.5 5.4 1.4l1.4-4.1c-2.3-1.1-4.7-1.7-7.2-1.8-1.2-.1-2.5 0-3.7.5-1.2.4-2.2 1.1-3.1 2s-1.6 1.9-2 3.1-.6 2.4-.5 3.7c0 2.3.6 4.5 1.4 6.6h-9.5v-15.6h-4.4v15.6h-11.9v-15.6h-7.1c-7 .1-11.5 4.3-11.5 10.1 0 1.4.3 2.8.8 4 .5 1.3 1.4 2.4 2.4 3.4 1 .9 2.2 1.7 3.5 2.1s2.7.6 4.1.5h49.5v-4.5h-11c-1.2-1.7-2-3.7-2.1-5.8zm-33 5.8h-3.8c-.8 0-1.6 0-2.3-.3s-1.4-.6-2-1.2c-.6-.5-1.1-1.2-1.4-1.9s-.5-1.5-.5-2.3.2-1.6.5-2.3.8-1.4 1.4-1.9 1.3-.9 2-1.2c.8-.2 1.5-.3 2.3-.2h3.8v11.2zm85.6-18.7c.4 0 .7 0 1.1-.1.3-.1.7-.3.9-.5.3-.2.5-.5.6-.9.1-.3.2-.7.2-1 0-.7-.3-1.5-.8-2s-1.2-.8-2-.8-1.5.3-2 .8-.8 1.2-.8 2c0 .4 0 .7.2 1 .1.3.4.6.6.9.3.2.6.4.9.5s.7.2 1.1.1zm7.4 0c.3 0 .7 0 1-.1s.6-.3.9-.5.5-.5.6-.9c.1-.3.2-.7.2-1s0-.7-.2-1c-.1-.3-.3-.6-.6-.9-.3-.2-.6-.4-.9-.5s-.7-.2-1-.1c-.4 0-.7 0-1 .1s-.6.3-.9.5-.5.5-.6.8-.2.7-.2 1c0 .4 0 .7.2 1 .1.3.4.6.6.9.3.2.6.4.9.5s.7.2 1.1.1z"/><path d="m127.2 106.6c-2.6 0-5.1.8-7.3 2.1l1.6 4.1c1.6-1.1 3.5-1.7 5.5-1.7 5.4 0 6.4 6.2 9.4 11.7h-22.5v-15.6h-4.4v15.6h-12v-5.4c0-6.4-3.9-10.7-9.8-10.7s-9.8 4.3-9.8 10.6c0 3.7-1.8 5.4-5.4 5.4h-3.1v-23.8h-4.4v28.2h7.5c1.4.2 2.8 0 4.1-.6s2.4-1.5 3.2-2.7c.9 1.2 2.2 2.1 3.6 2.6 1.4.6 2.9.8 4.4.6h54.6v-4.4c-4.2-1.9-4.3-16.1-15.1-16.1zm-34.2 16.1h-5.4c-.7 0-1.5 0-2.2-.3s-1.3-.7-1.8-1.2-.9-1.2-1.2-1.9c-.2-.7-.3-1.4-.3-2.2s0-1.5.2-2.3c.2-.7.6-1.4 1.1-2s1.1-1 1.8-1.4c.7-.3 1.5-.5 2.2-.5.8 0 1.5.2 2.2.5s1.3.8 1.8 1.4.9 1.3 1.1 2 .3 1.5.2 2.3v5.5zm37 7.9c-.6 0-1.2.3-1.6.7s-.7 1-.8 1.5c0 .6 0 1.2.4 1.7.3.5.8.9 1.4 1.1s1.2.2 1.7 0c.6-.2 1-.6 1.3-1.1s.4-1.1.3-1.7c0-.6-.4-1.1-.8-1.5-.3-.2-.6-.4-.9-.5s-.7-.2-1-.1zm33.4-7.9h-15.7v4.5h20.1v-28.2h-4.4v23.8z"/><path d="m156.8 101.7h-4.4v18.6h4.4zm21.2-2.7h-4.4v28.2h4.4zm15.7 1.6c0 .6.2 1.1.5 1.6s.7.8 1.3 1c.5.2 1.1.3 1.6.2s1-.4 1.4-.8.7-.9.8-1.4 0-1.1-.2-1.6-.6-.9-1-1.3c-.5-.3-1-.5-1.6-.5s-.7 0-1.1.2c-.3.1-.6.3-.9.6s-.5.6-.6.9-.2.7-.2 1.1zm7.4 0c0 .6.2 1.1.5 1.6s.7.8 1.3 1c.5.2 1.1.3 1.6.2s1-.4 1.4-.8.7-.9.8-1.4 0-1.1-.2-1.6-.6-.9-1-1.3c-.5-.3-1-.5-1.6-.5s-.7 0-1.1.2c-.3.1-.6.3-.9.6s-.5.6-.6.9-.2.7-.2 1.1zm9.3 30c-.4 0-.7 0-1 .1s-.6.3-.9.5-.5.5-.6.8-.2.7-.2 1c0 .7.3 1.5.8 2s1.2.8 2 .8 1.5-.3 2-.8.8-1.2.8-2c0-.4 0-.7-.2-1-.1-.3-.4-.6-.6-.8-.3-.2-.6-.4-.9-.5s-.7-.2-1-.1zm7.4 0c-.4 0-.7 0-1 .1s-.6.3-.9.5-.5.5-.6.8-.2.7-.2 1c0 .7.3 1.5.8 2s1.2.8 2 .8 1.5-.3 2-.8.8-1.2.8-2c0-.4 0-.7-.2-1-.1-.3-.4-.6-.6-.8-.3-.2-.6-.4-.9-.5s-.7-.2-1-.1zm39.5-26.5c.4 0 .7 0 1.1-.1.3-.1.7-.3.9-.5.3-.2.5-.5.6-.9.1-.3.2-.7.2-1 0-.6 0-1.1-.4-1.6-.3-.5-.7-.9-1.2-1.1s-1.1-.3-1.6-.3c-.6 0-1.1.3-1.5.7s-.7.9-.8 1.4 0 1.1.1 1.6c.2.5.6 1 1 1.3.5.3 1 .5 1.6.5zm14.9-5.1c-.4 0-.7 0-1 .1s-.6.3-.9.5-.5.5-.6.8-.2.7-.2 1c0 .7.3 1.5.8 2s1.2.8 2 .8 1.5-.3 2-.8.8-1.2.8-2c0-.4 0-.7-.2-1-.1-.3-.4-.6-.6-.8s-.6-.4-.9-.5-.7-.2-1-.1zm5 2.5c0 .6 0 1.1.3 1.6s.7.9 1.2 1.1c.5.3 1.1.3 1.6.3.6 0 1.1-.3 1.5-.7s.7-.9.8-1.4 0-1.1-.1-1.7c-.2-.5-.6-1-1-1.3-.5-.3-1-.5-1.6-.5-.4 0-.7 0-1 .1s-.6.3-.9.5-.5.5-.6.8-.2.7-.2 1z"/><path d="m296.6 122.7h-9.3v-15.6h-4.4v15.6h-13.4v-15.6h-4.4v15.6h-12.6v-5.4c0-6.4-3.9-10.7-9.8-10.7s-9.8 4.3-9.8 10.6c0 3.7-1.8 5.4-5.3 5.4h-4.5v-15.6h-4.6v15.6h-11.9v-15.6h-7.2c-6.9 0-11.4 4.2-11.4 10.1 0 1.4.3 2.8.8 4 .5 1.3 1.4 2.4 2.4 3.4 1 .9 2.2 1.7 3.5 2.1s2.7.6 4.1.5h28.7c1.4.2 2.8 0 4.1-.6s2.4-1.5 3.2-2.7c.9 1.2 2.2 2.1 3.6 2.6 1.4.6 2.9.8 4.4.6h58.4v-28.2h-4.4v23.8zm-94.6 0h-3.7c-.8 0-1.6 0-2.3-.3s-1.4-.6-2-1.2c-.6-.5-1.1-1.2-1.4-1.9s-.5-1.5-.5-2.3.2-1.6.5-2.3.8-1.4 1.4-1.9 1.3-.9 2-1.2c.8-.2 1.5-.3 2.3-.2h3.7v11.2zm46 0h-5.4c-.7 0-1.5 0-2.2-.3s-1.3-.7-1.8-1.2-.9-1.2-1.2-1.9-.3-1.4-.3-2.2 0-1.5.2-2.3c.2-.7.6-1.4 1.1-2s1.1-1 1.8-1.4c.7-.3 1.5-.5 2.2-.5.8 0 1.5.2 2.2.5s1.3.8 1.8 1.4.9 1.3 1.1 2 .3 1.5.2 2.3v5.5zm63.1-23.7h-4.4v28.2h4.4zm15.2 8.1c-6.9 0-11.4 4.2-11.4 10.1 0 1.4.3 2.8.8 4 .5 1.3 1.4 2.4 2.4 3.4s2.2 1.7 3.5 2.1 2.7.6 4.1.5h3.4c-.1 2.4-1.8 3.2-4.2 3.2-2 0-4-.3-5.8-.9l.9 4.7c1.7.5 3.4.7 5.1.7 5.7 0 8.5-2.1 8.5-8.8v-18.9h-7.3zm2.8 9.9v5.7h-3.8c-.8 0-1.6 0-2.3-.3-.7-.2-1.4-.6-2-1.2-.6-.5-1.1-1.2-1.4-1.9s-.5-1.5-.5-2.3.2-1.6.5-2.3.8-1.4 1.4-1.9 1.3-.9 2-1.2c.8-.2 1.5-.3 2.3-.2h3.8v5.5zm-97.3-45.1c0-6.4-2.9-9.6-9.4-9.6h-3.1v4.4h3.7c3.1 0 4.6 1.6 4.6 4.8v6.4h-12.3v4.4h16.5zm11.3 9.7v-19.3h-4.5v20c0 2.8-1.3 3.7-3.2 3.7s-1.7 0-2.8-.2l-.4 3.9c.9.2 1.9.3 2.8.3 4.7 0 8-1.9 8-8.4zm9.5-27.4h-4.4v28.2h4.4zm14.6 28.2h3.4c0 2.4-1.8 3.2-4.2 3.2-2 0-4-.3-5.8-.9l.9 4.7c1.4.5 2.8.7 4.2.7 5.3 0 9-1.8 9.3-7.7h9.5c1.3.2 2.7 0 3.9-.6s2.2-1.5 3-2.6c.9 1.2 2.2 2.1 3.6 2.6 1.4.6 2.9.8 4.4.6h23.5v-28.2h-4.4v23.8h-9.2v-5.4c0-6.4-3.9-10.7-9.8-10.7s-9.8 4.2-9.8 10.6c0 3.7-1.8 5.5-5.4 5.5h-9v-15.8h-7.2c-6.9 0-11.4 4.2-11.4 10.1-.1 5.9 4.2 10 10.7 10zm26.6-10c0-.8 0-1.5.2-2.3.2-.7.6-1.4 1.1-2s1.1-1 1.8-1.4c.7-.3 1.5-.5 2.2-.5.8 0 1.5.2 2.2.5s1.3.8 1.8 1.4.9 1.3 1.1 2 .3 1.5.2 2.3v5.5h-5.4c-.7 0-1.5 0-2.2-.3s-1.3-.7-1.8-1.2-.9-1.2-1.2-1.9c-.2-.7-.3-1.4-.3-2.2zm-33.2 0c0-.8.2-1.6.5-2.3s.8-1.4 1.4-1.9 1.3-.9 2-1.2c.8-.2 1.5-.3 2.3-.2h3.8v11.3h-3.7c-.8 0-1.6 0-2.3-.3-.7-.2-1.4-.6-2-1.2-.6-.5-1.1-1.2-1.4-1.9s-.5-1.5-.5-2.3zm72.3-18.2h-4.4v28.2h4.4zm-242.1 4.2c.4 0 .7 0 1.1-.1.3-.1.6-.3.9-.5s.5-.5.6-.9c.1-.3.2-.7.2-1 0-.7-.3-1.5-.8-2s-1.2-.8-2-.8-1.5.3-2 .8-.8 1.2-.8 2c0 .4 0 .7.2 1 .1.3.4.6.6.9.3.2.6.4.9.5s.7.2 1.1.1zm-7.3 0c.4 0 .7 0 1.1-.1.3-.1.6-.3.9-.5s.5-.5.6-.9c.1-.3.2-.7.2-1 0-.7-.3-1.5-.8-2s-1.2-.8-2-.8-1.5.3-2 .8-.8 1.2-.8 2c0 .4 0 .7.2 1 .1.3.4.6.6.9.3.2.6.4.9.5s.7.2 1.1.1zm2.1 24h24.2v-20.1h-4.4v15.6h-11.9v-15.6h-7.2c-6.9 0-11.4 4.2-11.4 10.1 0 1.4.3 2.8.8 4 .5 1.3 1.4 2.4 2.4 3.4 1 .9 2.2 1.7 3.5 2.1 1.3.5 2.7.6 4.1.5zm-6.6-10c0-.8.2-1.6.5-2.3s.8-1.4 1.4-1.9 1.3-.9 2-1.2c.8-.2 1.5-.3 2.3-.2h3.7v11.2h-3.8c-.8 0-1.6 0-2.3-.3-.7-.2-1.4-.6-2-1.2-.6-.5-1.1-1.2-1.4-1.9s-.5-1.5-.5-2.3zm70.2-16.3c.3 0 .7 0 1-.1s.6-.3.8-.5.4-.5.6-.8c.1-.3.2-.6.2-1 0-.5 0-1-.3-1.5s-.6-.8-1.1-1.1c-.5-.2-1-.3-1.5-.3s-1 .3-1.4.7-.7.8-.8 1.3 0 1 .1 1.5c.2.5.5.9 1 1.2.4.3.9.5 1.5.5zm-3.5 5.5c.6 0 1.1-.3 1.5-.7s.7-.9.7-1.5 0-1.1-.3-1.6-.8-.8-1.3-1-1.1-.2-1.7 0c-.5.2-1 .6-1.3 1.1s-.4 1.1-.3 1.6.4 1.1.8 1.5c.3.2.5.4.9.5.3.1.7.2 1 .1zm4.5-2.4c0 .5 0 1.1.3 1.6s.7.9 1.1 1.1c.5.2 1 .3 1.6.3.5 0 1-.3 1.4-.7s.7-.8.8-1.4c.1-.5 0-1.1-.1-1.6-.2-.5-.5-.9-1-1.2-.4-.3-1-.5-1.5-.5-.3 0-.7 0-1 .1s-.6.3-.9.5-.5.5-.6.8-.2.6-.2 1z"/><path d="m194.9 54.3h-4.4v23.8h-8.7v-15.7h-4.4v15.6h-11.9v-15.6h-4.4v15.6h-9.3v-12.8h-4.5v12.8h-8.1v-12.8h-4.4v12.8h-11.4v-16.1h-4.5v20.4c0 2.8-1.3 3.7-3.2 3.7s-1.7 0-2.8-.2l-.4 3.9c.9.2 1.9.3 2.8.3 4.5 0 7.8-1.7 8-7.7h71.5v-28.1zm10.2-.1h-4.4v28.2h4.4zm-105.3 34.2c0-.6-.2-1.1-.5-1.6s-.7-.8-1.3-1c-.5-.2-1.1-.3-1.6-.2s-1 .4-1.4.8-.7.9-.8 1.4 0 1.1.2 1.6.6.9 1 1.3c.5.3 1 .5 1.6.5s.7 0 1.1-.2c.3-.1.6-.3.9-.6s.5-.6.6-.9.2-.7.2-1.1zm7.4 0c0-.6-.2-1.1-.5-1.6s-.7-.8-1.3-1c-.5-.2-1.1-.3-1.6-.2s-1 .4-1.4.8-.7.9-.8 1.4 0 1.1.2 1.6.6.9 1 1.3c.5.3 1 .5 1.6.5s.7 0 1.1-.2c.3-.1.6-.3.9-.6s.5-.6.6-.9.2-.7.2-1.1zm64.2-2.5c-.4 0-.7 0-1 .1s-.6.3-.9.5-.5.5-.6.8-.2.7-.2 1c0 .6 0 1.1.3 1.6s.7.9 1.2 1.1c.5.3 1.1.3 1.6.3.6 0 1.1-.3 1.5-.7s.7-.9.8-1.4 0-1.1-.1-1.7c-.2-.5-.6-1-1-1.3-.5-.3-1-.5-1.6-.5zm279.6-39c.9.1 1.8.3 2.8.4 4.2-7.8 9.2-15.2 14.8-22.1-14.1-11-30-19.5-46.9-25.2l29.2 46.9zm75.5 59.4-48.2-15.6 56.6 90.6c3.3-25.3.4-51.1-8.4-75z"/></g><path d="m447.5 71.4c20.9-33.4 48.1-57.8 87.5-71.4l-56.6 90.6-56.6 90.6c-5.1-41.3 4.9-76.5 25.8-109.9z" fill="#f79520"/><path d="m365.9 54.1 60.2 19.6c6.4-3.5 12.9-6.7 19.7-9.6.9-2.1 1.8-4.3 2.8-6.4 1.6-3.6 3.4-7 5.2-10.4-29.4-5-59.6-2.6-87.9 6.8zm164.7 19.6-52.2 17 112.5 36.5a181.81 181.81 0 0 0 -60.2-53.5z" fill="#29b574"/><path d="m365.9 127.2 64.3-20.9c2.3-6.3 5-12.4 8.1-18.4 1.9-8.1 4.4-16.1 7.6-23.8-32 13.2-59.7 35-79.9 63.1zm139.8-80.3-27.4 43.8 112.5-36.5c-27.4-9.1-56.6-11.6-85.1-7.3z" fill="#fbb615"/></svg>