<svg height="2500" viewBox="2091.82 1815.73 346.67 356.04" width="2989" xmlns="http://www.w3.org/2000/svg"><text fill="#231f20" font-family="LEMONMILK-Bold, 'LEMON MILK'" font-size="270.49" font-weight="700" transform="translate(1221.54 2070.12)"><tspan x="0" y="0">MODL</tspan><tspan letter-spacing="-.09em" x="1141" y="0">G</tspan><tspan x="1363.82" y="0">Y</tspan></text><path d="m2438.43 1948.22c.06 16.19-2.98 31.82-9.51 46.58-11.42 25.81-13.66 52.34-8.33 79.92 6.83 35.35-19.2 71.63-54.75 77.38-10.73 1.74-21.2.2-31.78-.96-24.22-2.66-47.64.62-70.11 10.06-16.61 6.98-33.78 10.57-51.87 10.37-52.03-.55-99.84-38.09-112.88-88.95-7.38-28.78-4.7-56.6 8.2-83.37 8.95-18.57 13.39-38.12 12.77-58.72-.18-5.95-.85-11.92-1.71-17.82-5.34-36.65 22.16-72.63 58.84-75.99 8.66-.79 17.62.3 26.31 1.48 23.14 3.14 45.21-.16 66.54-9.45 52.87-23.02 112.62-6.69 146.2 40.17 14.79 20.64 21.95 43.89 22.07 69.29zm-272.7 42.46c-.03 55.52 45.36 101.03 100.74 101.01 56.12-.02 101.1-44.86 101.44-101.11.33-55.29-45.66-101.25-101.14-101.05-55.88.2-101.02 45.38-101.05 101.16z" fill="#fff"/><path d="m2266.84 1908.1c45.2-.14 82.46 37.13 82.55 82.56.09 44.9-37.2 82.51-81.8 82.52-46.27 0-83.24-36.8-83.31-82.94-.06-44.92 37.21-82 82.57-82.13zm-61.88 79.16c.86 3.03 1.13 6.42 2.72 8.99 2.03 3.27 5.6 4.46 9.57 3.27 4.33-1.29 6.52-4.29 6.8-9.28 1.26-22.96 16.05-39.04 38.77-42.12 1.03-.14 2.07-.17 3.11-.22 6.23-.32 10.33-4.09 10.22-9.4-.12-5.57-4.55-9.25-10.91-9.06-31.97.92-57.34 25.48-60.28 57.82z" fill="#d6df23"/></svg>