<svg height="878" viewBox="0 0 347.75 122.183" width="2500" xmlns="http://www.w3.org/2000/svg"><g fill-rule="evenodd"><path d="m4.405 60.921c1.159-5.433 1.956-10.14 2.358-12.962h18.797l-1.16 6.718h.132c3.927-4.561 9.632-7.992 17.275-7.992 6.314 0 12.367 2.489 13.125 7.45 3.872-4.629 9.096-7.45 17.095-7.45 7.452 0 15.792 3.43 13.79 12.83l-4.707 22.151h-19.734l3.99-18.797c.664-3.154-.14-5.975-3.897-5.975-3.3 0-6.151 1.747-7.234 6.848l-3.81 17.924h-19.74l4.096-19.27c.696-3.292-.641-5.502-3.864-5.502s-6.407 2.35-7.513 7.52l-3.665 17.252h-19.739l4.405-20.746m131.953-.47c1.098-5.17 2.04-9.6 2.263-12.552h18.938l-1.361 8.587h.14c4.42-8.186 9.344-9.523 17.537-9.862l-2.768 13.024h-3.694c-8.532 0-11.957 3.833-13.287 10.07l-2.526 11.886h-19.734l4.492-21.154" fill="#ec8d27"/><path d="m185.322 67.437c-1.205 5.704.518 8.324 5.016 8.324 3.827 0 5.744-1.747 6.74-3.888h19.339c-1.809 5.635-9.862 11.007-27.26 11.007-15.768 0-25.353-5.17-22.64-17.924 2.79-13.101 14.909-18.333 29.812-18.333 12.891 0 25.05 4.096 21.88 18.997l-.378 1.817zm14.531-6.447c.934-4.367-.542-7.257-5.031-7.257-4.237 0-7.181 2.83-8.133 7.257zm-90.253 32.21c15.582 0 28.21-12.63 28.21-28.205 0-15.582-12.628-28.212-28.21-28.212-15.576 0-28.204 12.63-28.204 28.212 0 15.575 12.628 28.205 28.204 28.205" fill="#ec8d27"/><path d="m109.6 82.216c9.514 0 17.229-7.715 17.229-17.22 0-9.516-7.715-17.229-17.229-17.229-9.507 0-17.222 7.713-17.222 17.228 0 9.506 7.715 17.22 17.222 17.22" fill="#3d6aaf"/></g><path d="m118.194 73.583.008.006a12.137 12.137 0 0 1 -8.602 3.561 12.147 12.147 0 0 1 -8.595-3.561v-.017c-2.196-2.204-3.564-5.242-3.564-8.58 0-3.355 1.368-6.393 3.564-8.587v-.017a12.149 12.149 0 0 1 8.595-3.563c3.354 0 6.391 1.369 8.594 3.563h.008a12.124 12.124 0 0 1 3.563 8.603c0 3.338-1.361 6.384-3.571 8.588" fill="#fee502"/><g fill-rule="evenodd"><path d="m286.66 122.183c33.738 0 61.09-27.353 61.09-61.092 0-33.73-27.351-61.091-61.09-61.091s-61.084 27.361-61.084 61.091c0 33.739 27.345 61.092 61.083 61.092" fill="#ec8d27"/><path d="m342.115 79.974-11.19-19.508 10.983-19.246h-13.673l-.194.348-4.691 8.571-4.731-8.571-.184-.348h-11.395c-1.778-5.388-6.369-7.444-15.706-7.444-11.26 0-15.697 2.25-16.431 10.853-.92-3.093-2.853-4.074-6.75-4.074-3.47 0-5.98 1.345-8.608 5.279-.62-3.71-3.285-5.28-7.298-5.28-3.168 0-5.603 1.192-8.077 4.817l-.191-3.934h-11.287v39.518h11.44v-27.183c0-3.247.387-4.638 2.32-4.638 1.692 0 2.125 1.46 2.125 4.638v27.183h11.508v-27.5c-.006-3.052.372-4.32 2.281-4.32 1.692 0 2.078 1.268 2.078 4.35v27.47h10.21c1.616 3.564 4.569 5.008 9.074 5.008 4.151 0 7.266-2.07 10.156-6.715l.636 5.58h13.417v-3.849h9.676l.194-.348 5.51-9.878 5.51 9.878.195.348h13.657zm-48.267-9.205c0 4.343-.535 6.346-3.308 6.346-2.769 0-3.354-2.003-3.354-6.346v-3.069c0-4.553 1.622-6.013 6.662-6.508zm.04-18.132c-9.344.571-14.863 1.7-17.916 5.124v-5.465c0-1.114-.045-2.14-.1-2.96h11.353v-.912c0-4.151.75-5.952 3.617-5.952 2.768 0 3.045 2.396 3.045 6.747zm21.826 7.813-7.774 13.55v-25.67c0-.555-.006-1.074-.034-1.592l7.806 13.688v.023" fill="#3d6aaf"/></g></svg>