<svg clip-rule="evenodd" fill-rule="evenodd" height="925" image-rendering="optimizeQuality" shape-rendering="geometricPrecision" text-rendering="geometricPrecision" width="2500" xmlns="http://www.w3.org/2000/svg" viewBox="-0.5 -0.5 1461 539"><path d="M1026.5-.5h21c35.9 9.43 53.06 32.763 51.5 70-6.53 34.195-27.2 52.529-62 55-42.865-4.866-63.532-28.866-62-72 5.574-29.073 22.741-46.74 51.5-53zM1169.5-.5h21c35.58 9.14 52.75 32.14 51.5 69-6.27 34.487-26.94 53.154-62 56-34.38-2.383-55.04-20.383-62-54-1.84-37.706 15.32-61.373 51.5-71z" fill="#00bd92" opacity=".985"/><g fill="#00261c"><path d="M1029.5 538.5h-40c-2.924-3.784-3.757-8.117-2.5-13a49303.197 49303.197 0 0 1 43.5-249 7.248 7.248 0 0 0-2-2.5 2208.146 2208.146 0 0 0-94 0c-1.016.519-1.682 1.353-2 2.5a175293.43 175293.43 0 0 1-45.5 258c-.69 1.85-1.856 3.184-3.5 4h-79a30.233 30.233 0 0 1-3.5-3 25.238 25.238 0 0 1 0-10 96278.217 96278.217 0 0 0 43.5-248c-.209-1.494-.876-2.661-2-3.5l-50-1a6.978 6.978 0 0 1-2.5-3.5 2377.975 2377.975 0 0 1 13-78 6.978 6.978 0 0 1 2.5-3.5l54-1a1275.529 1275.529 0 0 0 11.5-60.5 11.532 11.532 0 0 1 4.5-3.5c26-.667 52-.667 78 0 2.972 1.141 4.639 3.308 5 6.5a2619.895 2619.895 0 0 0-10 54.5 6.293 6.293 0 0 0 1 3l180 1 1.5 1.5c.1 9.421-.9 18.754-3 28a124727.96 124727.96 0 0 1-49 279c-8.16 24.01-24.66 38.01-49.5 42z" opacity=".99"/><path d="M662.5 538.5h-79c-2.59-1.501-3.923-3.835-4-7a56316.702 56316.702 0 0 1 26-146.5 6.293 6.293 0 0 0-1-3l-192-1c-3.359-1.135-4.692-3.468-4-7A24543.866 24543.866 0 0 1 442 180.5c6.352-23.018 21.186-37.185 44.5-42.5a4127.357 4127.357 0 0 1 126-1.5l117 .5c1.829.273 3.329 1.107 4.5 2.5a74.212 74.212 0 0 1-2 22 217905.46 217905.46 0 0 1-66 373c-.69 1.85-1.856 3.184-3.5 4zm-140-315c36.668-.167 73.335 0 110 .5a4.933 4.933 0 0 1 1 2.5 3523.108 3523.108 0 0 1-12.5 67 1531.755 1531.755 0 0 1-110.5 0 909.92 909.92 0 0 1 12-70zM1460.5 455.5v5a593.807 593.807 0 0 0-6.5 34c-7.48 24.964-23.98 39.631-49.5 44h-226c-2.59-1.501-3.92-3.835-4-7a80792.699 80792.699 0 0 1 69.5-392c1.17-1.393 2.67-2.227 4.5-2.5 25.33-.667 50.67-.667 76 0 4.23.737 5.89 3.237 5 7.5a45117.526 45117.526 0 0 1-51.5 294c-1 3.973-1.33 7.973-1 12 59.76.831 119.6 1.331 179.5 1.5 1.85.69 3.18 1.856 4 3.5zM298.5 538.5h-194c-26.126-4.493-42.96-19.493-50.5-45a59.35 59.35 0 0 1-1-19 3379.065 3379.065 0 0 0 15.5-93c-21.336.167-42.67 0-64-.5-2.407-.257-4.073-1.424-5-3.5v-6a3020.007 3020.007 0 0 1 15-75.5 1224.336 1224.336 0 0 1 69-2A626.943 626.943 0 0 0 95 232.5a1245.959 1245.959 0 0 0-49.5-1.5c-3.546-.713-5.546-2.88-6-6.5a9058.543 9058.543 0 0 0 13.5-76 9.465 9.465 0 0 1 1.5-2.5 5583.508 5583.508 0 0 1 149-1.5c49.374.002 98.707.336 148 1a4.457 4.457 0 0 1 1.5 2c.667 3 .667 6 0 9l-11 63c-.332 3.847-1.498 7.347-3.5 10.5a6121.967 6121.967 0 0 1-155 2 976.558 976.558 0 0 0-11 58.5 7.93 7.93 0 0 0 1 3.5l166 1c2.928 3.257 3.762 7.091 2.5 11.5-3.95 24.08-8.283 48.08-13 72a6.978 6.978 0 0 1-3.5 2.5c-56.336.167-112.67.667-169 1.5a4468.275 4468.275 0 0 0-12 65.5 6.293 6.293 0 0 0 1 3c56.083.008 112.083.675 168 2 2.004 2.841 2.504 6.007 1.5 9.5a3509.368 3509.368 0 0 1-13 73 30.233 30.233 0 0 1-3.5 3z" opacity=".988"/></g></svg>