<svg clip-rule="evenodd" fill-rule="evenodd" height="2500" image-rendering="optimizeQuality" shape-rendering="geometricPrecision" text-rendering="geometricPrecision" viewBox="1405.46 1080.74 14257.99 14749.22" width="2500" xmlns="http://www.w3.org/2000/svg"><g fill-rule="nonzero"><path d="m1982.43 10462.36c26.69 88.39 5.21 199.36-109.13 252l-32.39-107.13c40.71-29.06 51.4-67.52 37.49-113.21-19.36-63.93-82.43-90.62-156.4-68.16-65.8 19.99-110.74 78.84-91.74 143.63 13.89 46.31 49.41 76.11 100.79 73.13l32.41 107.12c-131.1 22.59-209.79-57.85-237.23-148.6-33.51-108.23 9.93-241.18 161.63-287.99 152.06-45.55 261.79 40.85 294.57 149.21zm67.4 868.08c154.93-65.55 67.78-271.11-87.13-205.58-156.18 66.06-69.03 271.62 87.13 205.58zm-132.82-313.33c297.54-125.87 475.81 294.72 178.25 420.58-298.29 126-476.54-294.58-178.25-420.58zm330.32 1204.87-56.73-101.54 181.6-101.67-137.04-31.79-6.2-11.04 44.81-132.95-181.61 101.66-56.72-101.54 408.52-228.76 20.49 36.6-91.86 251.14 263.41 55.6 19.85 35.5zm611.73 273.09c-14.77-22.21-31.9-45.18-46.91-66.54l-109 76.84 46.93 66.54c36 50.9 146.6-22.46 108.98-76.84zm-25.32-221.08 112.97 160.14c122.27 174.53-161.14 374.26-284.02 200.1l-47.29-67.05-97.59 68.67-65.53-92.98zm439.56 747.79c-16.87-20.73-35.74-41.59-53.13-61.83l-88.63 76.11 53.13 61.81c40.35 46.8 130.46-26.43 88.63-76.09zm-238.09 275.7 54.5-147.47-38.61-44.95-104.26 89.51-74.36-86.4 354.4-304.13 127.36 148.22c113.71 133.2-33.15 301.14-167.34 267.88l-55.48 162.62-13.17 11.29zm700.12 384.56c115.82-121.76-46.18-275.58-161.99-153.92-116.81 122.64 45.19 276.58 161.99 153.92zm-247.02-234.6c222.58-233.75 554 81.05 331.56 314.8-222.95 234.26-554.51-80.56-331.56-314.8zm782.55 974.21-92.24-70.64 126.5-165.84-138.42 25.32-10.05-7.69-11.43-140.03-126.49 165.84-92.35-70.63 284.64-373.15 33.27 25.57 14.89 267.27 264.04-53.88 32.27 24.7zm599.07-37.87-34.76 56.23 128.86 79.33-55.86 90.37-128.86-79.33-43.08 69.89 145 89.39-55.87 90.37-241.31-148.84 245.78-397.75 236.49 145.75-56.24 90.99zm741.21 284.76-48.17 95.22-97.19-48.78-162.38 321.62-100.54-50.51 162.37-321.52-97.81-49.03 48.15-95.34zm59.96 537.76 39.6-97.19 52.25 21.48 97.57-239.46-48.16-19.74 39.35-96.59 200.35 82.07-39.36 96.58-48.15-19.76-97.57 239.46 52.27 21.36-39.6 97.2zm792.22-91.6-51.51-16.02-74.12 238.71 51.65 16c135.43 41.98 209.42-196.74 73.98-238.69zm-106.25 342.73-160.26-49.65 138.52-446.77 160.26 49.66c276.45 87.15 138.79 531.3-138.52 446.76zm900.97-16.39c32.77-164.72-185.7-208.29-218.48-43.56-33.02 165.96 185.59 209.53 218.48 43.56zm-333.05-66.4c62.93-316.43 509.94-227.3 447 89.11-62.93 316.92-510.06 227.8-447-89.11zm979.54 248.75c3.1-32.4-32.9-43.31-76.84-50.39-95.46-16.63-155.29-57.35-146.85-158.27 15.51-200.73 359.49-166.97 337.64 33.13l-107.49-10.54c5.95-61.69-113.47-68.16-122.52-13.41-5.96 34.89 26.18 45.43 65.67 53.99 86.88 18.5 171.54 40.98 160.37 157.03-18.86 195.03-379.59 163-357.38-41.08l109.36 10.68c-5.72 59.1 132.7 73.36 138.04 18.86zm1051.79-320.01c91.99-5.34 194.65 41.46 218.98 164.85l-111.59 6.45c-18.63-46.29-53.51-65.67-101.06-62.93-66.53 3.97-107.25 58.96-102.77 136.17 3.97 68.52 50.64 125.87 117.92 122.65 48.17-2.72 85.4-30.3 94.47-80.93l111.72-6.47c-8.81 132.71-105.39 190.3-199.86 195.89-112.95 7.19-231.75-66.04-241.56-224.3-8.69-158.4 100.91-244.8 213.75-251.38zm859.26 137.04c-27.43-165.71-247.27-128.98-219.96 36.75 27.69 166.95 247.53 130.21 219.96-36.75zm-335.15 55.98c-52.64-318.15 397.23-393.38 449.73-75.1 52.77 318.79-397.11 394.01-449.73 75.1zm831.07 77.47-125.37-452.72 39.84-10.92 278.69 162.99-61.19-220.85 112.21-30.9 125.02 451.48-39.25 10.79-277.93-162.61 61.45 221.46zm1199.39-927.05 44.08 97.21-99.19 44.68 148.71 327.85-102.67 46.42-148.71-327.83-99.78 45.05-44.08-97.2zm622.54 17.38-152.93-269.12 94.47-53.74 154.06 270.85c50.76 89.26 6.57 182.73-73 227.92-79.07 44.94-183.1 35.74-233.88-53.51l-153.92-270.87 94.46-53.73 153.06 269.11c18.74 33.02 58.34 32.03 87.15 15.65 28.8-16.38 49.4-49.53 30.53-82.56zm844.37-373.27-294.57-365.46 32.15-25.94 320.01 38.49-143.63-178.38 90.5-73.13 293.71 364.47-31.65 25.56-319.15-38.34 144.13 178.88zm408.03-829.34 46.05 47.17 108.13-105.65 73.97 75.85-107.98 105.65 57.22 58.71 121.65-119.05 73.99 75.86-202.47 198.11-325.85-333.93 198.37-194.15 74.48 76.36zm389.29-583.31c58.21-67.91 155.55-107.75 258.19-49.41l-71.98 85.41c-42.46-11.79-73.51.13-102.54 34.63-46.3 54.75-26.32 122.27 28.17 168.32 59.21 49.91 125.74 49.67 169.2-1.74 29.41-34.88 38.61-65.41 17.51-109.73l-60.97 72.26-79.05-66.79 135.42-160.51c37.37 28.18 71.5 57.1 96.45 98.06 54.01 87.02 28.06 175.65-24.7 238.22-72.87 86.29-207.17 122.4-329.57 19.87-121.41-103.29-109-242.33-36.13-328.59zm694.66-528.69c-139.27-94.35-264.53 90.12-125.25 184.46 140.39 95.09 265.64-89.38 125.25-184.46zm-190.93 281.29c-267.51-181.24-11.29-558.62 256.22-377.49 268.13 181.61 11.92 558.97-256.22 377.49zm308.11-949.14c43.32-81.3 136.67-144.49 254.59-100.92l-52.62 98.69c-49.16-8.32-83.8 11.41-106.14 53.38-31.41 58.96-5.58 122.39 62.58 158.89 60.56 32.27 133.8 22.47 165.96-36.63 22.71-42.57 18.62-88.75-19.74-122.88l52.51-98.69c108.61 76.7 107.62 189.3 63.05 272.84-52.63 100.05-176.88 163.25-317.03 89.01-139.53-75.35-156.29-213.89-103.16-313.69zm647.99-250.76-96.59-41.08 22.12-52.14-237.98-101.28-20.35 48.03-95.85-40.85 84.68-199.72 95.82 40.83-20.37 48.05 237.98 101.29 22.09-52.13 96.58 41.08zm85.03-891.65c-159.88-51.89-228.65 160.63-68.77 212.4 161.12 52.25 229.89-160.15 68.77-212.4zm-104.9 323.74c-306.98-99.55-166.21-534.04 140.77-434.48 307.6 99.69 166.85 534.16-140.77 434.48zm-11843.96-7261.89 59.59 479.91-481.15 8.06-11.3 13.16 492.32 424.79 8.7-10.06-478.55-412.86 485.87-9.44-58.1-485.74 478.42 412.87 8.81-10.05-492.32-424.79zm652.83 386.8-159.76 184.96-330.95-285.63 35.37 293.45-17.37 20.11-294.69 6.84 330.95 285.62-159.64 184.84-744.82-642.64 57.6-66.66 561.71 1.36-79.07-560.23 55.85-64.66zm361.36-1051.55 214.13 121.29-155.67 116.69zm-145.86-196.99-1.12.75 141.27 606.51 404.31-302.88zm164.36 781.68 13.78-10.31-33.03-148.6 412.88-309.21 132.2 74.23 13.9-10.43-720.48-403.68-6.34 4.84zm136.04 17.13-186.69 139.89-21.86-29.16-237.58-1017.42 82.16-61.57 910.66 513.18 21.84 29.17-186.69 139.9-117.68-65.92-294.44 220.59zm1174.07-853.31-153.68-314.69 40.6-512.54-15.52 7.57-38.48 492.81-413.49-271.98-15.52 7.7 429.14 282.89 153.79 314.7zm-252.24-230.65-514.79-339.37-16.51-34.02 231.27-113.08 295.55 218.97 8.33-4.1 9.06-367.69 232.51-113.7 16.62 34.01-49.89 615.34 180.74 370.03-212.15 103.66zm1589.92-656.3c88.76 344.35-364.71 461.54-453.34 117.07-88.02-341.63 365.45-458.69 453.34-117.07zm-564.44 145.86c127.73 496.16 800.92 312.21 675.54-174.52-124.88-485.38-803.03-320.4-675.54 174.52zm688.45-177.89c-131.21-509.82-832.32-327.21-701.37 181.12 131.22 509.82 832.7 328.72 701.37-181.12zm-815.08 210.54c-168.93-656.18 758.6-895.76 927.55-239.59 169.31 657.56-758.22 897.13-927.55 239.59zm1922.99-598.58c-56.11.99-114.71 4.97-170.58 7.44l10.31 241.95 170.56-7.44c129.36-5.72 125.63-246.54-10.29-241.95zm16.14 346.71-286.52 12.54-19.36-451.72 286.5-12.54c277.19-12.05 300.54 439.43 19.38 451.72zm27.29 12.79 186.21 294.57 16.01-.75-144.48-224.8-43.2-72.38c250-54.37 223.43-486.11-61.71-473.69l-299.9 13.03 33.52 778.95 13.27-.49-12.78-299.3 286.5-12.54c9.31-.36 18.63-2.23 26.56-2.6zm102.29 390.66-172.29-281.06-124.01 5.35 12.41 288.12-238.47 10.42-42.07-978.94 409.02-17.86c366.44-14.52 453.1 445.39 224.45 623.53l195.87 302.52 1.48 36.25zm1093.63-27.94 1.74-13.9-137.54-17.75 96.2-740.23 126.99 16.4 1.75-13.91-268.51-34.63-1.86 13.9 128.36 16.5-96.22 740.23-140.13-18.12-1.87 13.9zm-392.88 52.38 28.31-218.1 117.8 15.27 69.76-537.5-108.5-14.04 28.17-216.61 451.13 58.22-28.19 216.62-108.49-13.91-69.76 537.39 117.68 15.26-28.3 217.98zm1237.5-466.86c-45.68 161.74 53.87 218.96 180.62 269.86 120.65 47.55 243.41 88.39 193.52 250.26-64.04 207.55-436.21 137.91-484.48-63.07l-15.3-4.84c32.67 219.84 443.56 299.79 513.69 72.25 51.25-165.97-73.73-217.73-200.35-268.62-122.04-47.92-218.6-101.18-172.31-251.13 63.56-210.53 409.39-150.58 453.34 46.29l16.51 5.1c-37.35-218.23-420.44-283.9-485.24-56.1zm272.11 488.7c20.22-65.65-50.28-99.16-137.92-132.07-189.06-74.6-295.07-183.46-234.86-387.8 117.17-406.54 810.35-192.28 680.51 210.29l-216.61-66.91c38.46-124.52-204.47-187.83-246.43-79.07-26.93 69.39 34.76 104.52 112.11 138.78 170.92 74.73 336.89 152.44 264.52 386.55-121.39 393.52-851.06 179.75-718.73-230.89l220.45 68.15c-36.73 119.17 243.06 202.72 276.96 92.97zm1250.15-82.91 222.09 116.69 5.95-11.17-454.83-238.96-5.83 11.16 223.19 117.31-357.75 680.38 11.79 6.22c119.9-228.03 237.34-454.21 355.39-681.63zm357.15 54.74-104.28 198.37-201.97-106.14-351.92 669.22-209.03-109.86 351.91-669.22-203.2-106.75 104.26-198.38zm551.65 874.04-61.2 238.46-153.43-120.04zm152.07-192.29-1-.86-549.05 294.56 398.48 311.7zm-712.16 362.48 13.66 10.68 134.81-70.64 406.91 318.29-37.13 147.1 13.66 10.67 201.35-801.3-6.34-4.83zm19.11 135.93-184.1-144.01 22.48-28.67 920.7-494.68 80.95 63.31-257.34 1013.7-22.47 28.67-183.97-144 32.9-130.84-290.1-226.92zm1431.52 362.22c-124.5 112.97-70.26 214.14 10.3 324.36 77.22 104.28 159.76 203.83 31.66 314.68-164.1 141.88-443.16-114.2-377.62-310.09l-10.42-12.16c-88.63 203.59 217.6 488.98 397.59 333.31 131.34-113.46 52.77-223.58-27.8-333.8-78.08-105.27-131.83-201.6-13.29-304.14 165.35-144.74 427.15 89.26 360.25 279.31l11.3 13.04c83.77-204.71-206.57-463.15-381.97-304.51zm-27.8 558.36c51.88-44.94 9.69-110.72-47.19-184.97-121.01-163.35-153.17-311.82 5.98-452.96 314.56-282.53 789.37 266.14 466.12 538.5l-148.34-171.44c98.45-85.14-74.11-267.38-167.21-197.49-59.71 44.44-25.94 107 21.61 177.01 105.5 153.93 205.06 307.49 19.73 467.75-311.33 269.11-817.31-298.44-487.61-576.37l150.95 174.54c-94.22 81.43 99.06 300.53 185.96 225.43z" fill="#414b4c"/><path d="m1998.31 7497.21c0-163.71-132.7-296.43-296.42-296.43-163.71 0-296.43 132.72-296.43 296.43 0 163.72 132.72 296.45 296.43 296.45 163.72 0 296.42-132.73 296.42-296.45zm13438.39 0c0-163.71-132.7-296.43-296.43-296.43-163.71 0-296.42 132.72-296.42 296.43 0 163.72 132.71 296.45 296.42 296.45 163.73 0 296.43-132.73 296.43-296.45z" fill="#ff333e"/><path d="m5726.88 11987.98h-272.11c-702.03 0-1271.13-569.11-1271.13-1271.15v-5210.47h272.09c702.04 0 1271.15 569.1 1271.15 1271.13z" fill="#414b4c"/><path d="m9081.58 8909.53c-68-105.51-127.71-220.71-177.86-345.51-97.47-241.93-147-536.33-147-874.77 0-140.94 14.36-280.97 42.63-419.15l-1230.85 1477.06-1543.25-1851.89v2160.54l1543.25 2006.21 1593.39-2028.02c-27.91-38.79-54.5-80.83-80.31-124.47zm2969.12-1818.78c318.18 0 576.15-257.96 576.15-576.14 0-318.2-257.97-576.15-576.15-576.15-318.16 0-576.14 257.95-576.14 576.15 0 318.18 257.98 576.14 576.14 576.14z" fill="#ff333e"/><path d="m13166.5 9491.81c-80.6-185.63-186.31-343.2-317.27-472.79-131.09-129.46-280.61-235.99-449.06-319.49a4616.815 4616.815 0 0 0 -515.93-217.96c-175.56-61.94-347.43-118.02-515.95-168.49-168.3-50.21-317.97-105.74-448.91-166.14-131.1-60.46-236.8-132.34-317.33-215.82-80.6-83.48-120.96-188.53-120.96-315.24 0-198.63 66.94-356.2 200.78-472.7 133.84-116.61 337.52-174.87 610.89-174.87 8.72 0 16.17 1.6 24.83 1.72-82.57-132.43-131.1-288.18-131.1-455.42 0-278.93 133.42-526.71 339.14-684.83-82.58-5.82-165.63-9.93-250.1-9.93-345.39 0-651.9 52.65-919.58 157.55-267.74 105.17-493.63 245.54-677.83 420.94-184.27 175.59-323.87 375.72-418.81 600.12-94.88 224.55-142.5 454.78-142.5 690.8 0 293.55 40.38 540.45 120.97 740.45 80.46 200.11 186.24 366.94 317.33 500.77 130.96 133.84 279.93 241.87 446.74 323.85 166.95 81.98 338.15 151.14 513.91 207.21 175.4 56.05 346.72 107.22 513.69 153.32 166.89 46 315.85 99.33 446.86 159.76 130.9 60.44 236.75 136.68 317.34 228.76 80.45 92.08 120.91 211.57 120.91 358.36 0 253.32-73.44 438.15-220.21 554.8-146.79 116.49-352.64 174.75-617.43 174.75-195.73 0-365.59-27.27-509.47-82-143.96-54.55-271.33-114.98-381.97-181.28-110.9-66.17-210.22-126.61-297.99-181.31-87.83-54.69-174.83-82.09-261.21-82.09-66.24 0-128.07 15.94-185.66 47.46-57.53 31.79-102.13 73.53-133.78 125.23l-431.75 682.19c123.71 123.74 269.16 236.01 436.12 336.68 166.82 100.82 345.39 187.83 535.28 261.22 190.03 73.41 386.46 130.28 589.3 170.53 202.98 40.38 402.15 60.43 597.88 60.43 356.85 0 675.79-53.89 956.41-161.8 280.62-108.04 516.57-256.18 708.02-444.7 191.37-188.52 337.45-409.39 438.14-662.69 100.8-253.33 151.16-525.33 151.16-816.04 0-261.91-40.38-485.64-120.9-671.31z" fill="#414b4c"/></g></svg>