<svg height="1000mm" viewBox="0 0 1326.062 1000" width="5046.539" xmlns="http://www.w3.org/2000/svg"><path d="m810.282 923.532v65.708h26.06c12.79.039 21.016-6.32 21.035-17.832-.02-5.052-1.182-11.321-8.75-14.333 4.995-2.65 6.926-8.571 6.888-14.556.038-6.348-3.49-18.95-17.386-18.95zm11.43 10.275 14.928.075c4.118 0 7.596 4.981 7.558 10.051 0 4.899-3.758 6.775-7.819 6.813l-14.667-.037zm0 29.076h14.444c4.67 0 9.344 1.066 9.382 8.004 0 5.49-3.88 8.08-9.121 8.041l-14.705.075zm41.744-39.33-.038 65.742h12.008l20.49-46.49h.153l-.019 46.509 11.36-.019.039-65.742h-12.008l-20.434 46.7-.152.038v-46.738zm60.895-.021c-.418 5.852-1.314 41.59-6.403 56.476h-4.803v19.954h10.275l.037-10.647 28.331.038-.074 10.61 10.313.037v-19.992h-4.84v-56.439zm9.456 13.477h12.472l-.075 42.999-17.31-.037c3.201-10.179 4.417-38.406 4.913-42.962zm-275.067-13.894-.02 65.78h43.022l-.039-10.827h-31.583l-.019-17.689h27.849v-10.312l-27.83-.038v-16.564l30.308.02-.039-10.332zm56.237.901-.67 48.025c-.173 5.566-1.021 8.88-4.319 8.86-1.544 0-2.645-.287-3.35-.633l.037 9.643c1.124.511 3.05.818 5.547.856 12.294-.038 12.857-11.145 13.104-20.066l.447-37.378 13.737-.037v56.178l10.945-.037v-65.411zm45.739-.176v65.74l43.021.04v-10.847l-31.622.039v-17.766h27.753v-10.293l-27.753-.038v-16.564h30.23v-10.293zm208.529-.153-.038 65.837h43.002l-.039-10.827h-31.603l.057-17.708 27.791-.038v-10.293l-27.848.038.02-16.678 30.306.019.02-10.312zm62.253-.267-11.874.038v66.409l11.874-.02v-33.375h19.138l-.02 33.376 11.78.019.058-66.447-11.78.038-.038 22.683-19.138.019zm40.924.667-.019 65.78h12.009l20.452-46.452.115-.038v46.528l11.38-.038-.02-65.78-11.951.038-20.472 46.719h-.133v-46.719zm52.8-.305v65.742l42.964.038.019-10.808-31.661-.038.057-17.708 27.791.038v-10.33h-27.79v-16.641l30.287.019v-10.312zm-998.682-1.292c-13.571-.02-19.393 7.917-20.29 21.145h11.43c0-2.726.058-10.74 8.674-10.721 6.767 0 7.854 5.847 7.893 8.115 0 7.224-4.693 9.625-10.945 9.605l-1.9.038v9.083h1.9c6.652 0 12.285 1.465 12.285 9.68-.038 6.443-3.8 10.312-9.233 10.312-7.967 0-9.12-7.219-9.12-11.317l-12.138.037c.325 13.82 7.353 21.685 20.886 21.704 18.565-.019 22.226-13.45 22.188-20.96.038-12.141-8.64-15.224-9.344-15.338l.037-.186c3.698-1.697 7.483-6.003 7.483-12.77 0-14.276-11.362-18.39-19.806-18.428zm-126.36.74-.058 65.76 10.865.019.305-50.626.152.038 10.122 50.588h11.494l11.036-50.588.172-.038-.287 50.626h10.942l-.058-65.78h-17.364l-9.664 51.865-.19.02-10.237-51.847zm73.16.004-12.173.037 15.3 47.243c0 1.83-1.491 6.033-6.142 5.994-.896.058-2.343-.108-3.201-.223l-.15 12.732c1.754.173 2.872.298 4.244.298 10.884-.019 12.15-6.624 17.163-21.854l14.482-44.19h-11.653l-8.674 33.32h-.186zm133.27 65.87 11.895-.038.019-65.398-11.913-.058m21.452-.302-.037 65.411 11.876.038v-28.183l4.095.038 11.54 28.442 13.03.038-16.082-33.58s4.502-9.215 5.398-14.743c.839-5.528 10.424-6.515 10.424-6.515l-.037-10.945s-15.47.013-17.795 12.099c-2.06 8.54-6.143 15.078-6.143 15.078h-4.393v-27.177zm60.273.038-19.396 65.746h11.913l3.723-13.552h19.955l3.462 13.552h12.286l-19.173-65.746zm6.218 14.817.148.037 6.664 25.986-13.774.037zm39.238-14.817-.67 48.062c-.137 5.566-1.024 8.88-4.207 8.823-1.64.057-2.72-.286-3.425-.595v9.642c1.144.454 3.071.8 5.473.819 12.37 0 12.931-11.11 13.179-19.992l.484-37.415h13.737l-.037 56.104 10.908-.037.037-65.411zm112.531.054-11.913.02v66.37h11.837v-33.433l19.061.058.038 33.394 11.875.039v-66.448h-11.856l-.02 22.702h-19.06zm64.157.02c-17.69.454-26.433 15.721-26.433 33.208 0 17.765 8.992 33.785 27.215 33.804 16.888 0 27.268-16 27.325-33.804-.038-17.764-10.4-33.208-27.25-33.208-.286 0-.576-.008-.857 0zm.41 10.834c.148-.005.296 0 .446 0 9.626 0 15.376 10.5 15.376 22.337 0 11.952-5.75 23.027-15.414 23.008-9.625 0-15.411-11.056-15.45-23.008.038-11.67 5.684-22.017 15.041-22.337zm32.93-10.796-.038 65.722 43.06.058v-10.865l-31.623.038-.038-17.727 27.867-.019-.019-10.293-27.848-.057.038-16.602 30.307.038-.038-10.293zm-163.12.223v65.783h23.752c3.183.038 20.811-1.167 20.811-20.476 0-14.238-11.347-20.643-22.002-20.662h-11.43v-24.645zm22.561 36.93c4.595-.013 10.49.674 10.35 8.34-.057 9.416-8.836 8.228-12.286 8.228h-9.493v-16.53h8.525c.833 0 1.844-.034 2.904-.037zm-235.583-37.005-11.131.038v65.746h23.677c3.221.018 20.811-1.13 20.811-20.476 0-14.182-11.309-20.644-22.002-20.625h-11.355zm10.312 36.969c4.7-.1 11.476.083 11.392 8.339-.115 9.435-8.854 8.21-12.285 8.19h-9.419v-16.492h8.45c.56-.003 1.191-.024 1.862-.038zm429.8-37.117-.02 10.293 17.327.019-.038 54.095h11.837l.057-54.095h17.288v-10.312zm570.174-.648.038 3.679h6.443v17.517h4.422v-17.479l6.462-.038v-3.66zm19.728.057-.019 21.177h4.098v-17.689h.057l3.87 17.651 4.307.038 3.984-17.67.076-.019v17.689h4.098l-.056-21.158-6.481-.019-3.717 16.43h-.039l-3.754-16.43zm-785.468-427.23-.114 393.034h3.527l73.518-50.988.132-262.948zm680.042-495.289-.116 284.697c3.794-4.155 8.083-8.73 11.819-13.648 3.564-4.84 15.02-21.94 17.555-25.523 3.889-5.394 9.244-9.778 13.266-15 5.337-7.11 10.026-14.297 15.364-21.444 1.886-2.479 13.762-14.334 19.06-19.728l.04-145.322-73.444-43.974zm76.909 359.282c-2.63 4.175-5.414 8.616-7.644 11.018-6.652 7.052-9.664 18.47-12.732 23.865h.001c-1.62 2.84-5.775 5.909-9.778 16.583-2.86 7.453-8.387 14.772-9.874 18.642-3.222 7.986-11.189 13.114-12.485 15.706-2.535 4.994-4.917 15.325-7.586 20.32-3.831 7.395-10.37 20.49-11.341 22.358-1.64 2.973-3.565 5.87-5.662 8.768l-.137 392.01 3.527-.038 73.538-50.874z" fill="#49638c"/><path d="m.446 0-.446 888.5 412.084.186.15-393.21 124.902 128.588 115.26-31.123 30.043-27.4-.112 323.22 409.628.149.111-392.242c-1.467 1.982-3.263 4.477-4.579 6.44-1.64 2.402-15.403 25.875-18.986 32.204-4.956 8.94-12.575 17.308-15.301 27.735-1.945 7.32-4.893 12.584-5.808 14.929-5.776 14.295-7.704 30.134-7.855 31.011-1.714 13.133 1.415 27.705-1.006 40.133-2.44 12.39-7.291 23.953-13.067 32.835-1.64 2.535-7.338 10.423-14.333 16.828-6.729 6.31-17.21 7.664-30.267 7.743-21.177.152-31.184-8.3-42.068-24.236-2.63-3.926-7.232-13.563-9.233-17.795-5.166-10.998-9.238-20.874-12.993-34.064-2.21-7.815-6.428-17.552-8.525-25.576-1.125-4.575-1.222-8.55-2.308-13.068-.858-3.507-3.188-8.236-3.872-11.838-3.47-17.975-9.595-33.489-12.435-50.11-1.524-8.94-7.19-25.076-10.088-33.692-5.356-16.507-8.95-32.282-14.669-47.988-3.069-8.387-13.105-34.645-13.811-39.276-2.84-16.545-6.194-46.005.744-59.938 3.775-7.53 15.594-12.477 22.933-17.014 3.202-1.887 5.354-4.125 9.605-5.25 7.148-1.982 17.988-2.329 26.432-1.414 3.736.382 11.197-.836 17.945 3.872 17.727 12.409 17.387 28.96 19.693 56.14 1.297 14.544 3.761 30.36 5.362 46.276 1.354 13.095.665 28.746 3.238 37.266 3.412 10.827 5.196 19.463 15.413 23.752 6.862 2.897 17.193-10.98 20.662-29.374 1.01-5.508 8.474-10.004 11.467-23.118 1.162-5.452 14.178-20.84 18.39-28.331 2.63-4.709 7.355-15.425 14.408-22.859 3.831-9.588 9.979-20.058 10.722-22.821.972-3.527 3.388-16.576 9.754-24.124 7.377-8.635 10.473-19.459 12.36-23.157 2.23-4.155 9.725-17.06 14.11-23.789 2.44-3.679 5.086-6.604 8.04-9.94l.113-284.688-414.543-.149-94.635 90.54-31.57-27.586-138.975-63.065z" fill="#e47e52"/><path d="m910.018 171.326c-.514.031-.983.084-1.34.187-5.947 1.696-14.782 7.896-18.652 10.907-1.696 1.296-13.457 9.232-15.896 12.472-1.354 1.715-7.578 11.408-12.286 15.487-4.06 3.546-14.776 6.96-20.513 11.02-3.545.82-10.722 2.15-13.886 3.313-2.993 1.201-14.96 7.463-17.572 8.34-1.735.612-10.121 2.86-12.733 3.872-1.963.762-7.371 4.257-8.153 4.467-4.097 1.163-11.898 1.772-16.492.819-2.382-.534-19.163-10.065-32.277-7.93-5.928.972-11.018 3.573-13.477 5.994-3.564.896-8.806 3.353-10.35 6.44-1.487 2.898-4.22 2.924-5.993 6.069-3.374 6.27-5.583 15.285-5.66 16.752-.626 5.986.89 11.144 1.862 16.195 2.63 14.353-2.051 20.101-11.391 24.98-2.097 1.087-9.32 6.327-11.17 7.223-2.591 1.182-12.97 4.64-15.486 6.031-9.95 5.68-18.936 9.055-21.109 11.057-9.53 8.978-24.05 17.125-24.05 17.125-4.898 3.069-13.36 7.829-23.9 13.738-6.424 3.564-15.933 11.943-17.572 13.03-1.81 1.2-10.829 5.6-13.44 7.297-1.639 1.105-9.678 7.02-12.137 8.45-5.108 2.84-11.713 4.683-18.651 6.627-11.265 3.221-22.833 6.49-30.267 14.742-11.265 12.524-15.991 31.924-10.35 47.02 5.738 15.078 18.685 23.82 25.204 26.507 10.217 4.289 27.05 3.225 34.846-2.531 4.975-3.737 7.653-9.412 9.94-14.482.915-1.868 3.767-8.033 8.265-12.36 4.69-4.575 11.96-16.688 13.96-18.652 4.728-4.613 10.641-8.522 17.312-11.838 13.496-6.862 21.84-15.227 26.358-19.21 3.126-2.802 5.692-5.95 9.047-7.819 13.476-7.357 20.47-12.75 24.645-15.934 3.66-2.687 14.346-7.801 20.14-10.87 5.89-3.126 12.782-9.112 15.451-10.313 3.526-1.677 9.627-1.784 11.876-.223 2.307 1.467 7.827 9.376 11.392 50.929.187 2.04.41 18.7.41 21.406.056 4.212 1.583 17.69 1.526 19.061-.555 7.968.024 17.436.707 26.433-.038.346-.644 8.102.745 16.604 1.01 5.68.552 17.72 0 22.523-.555 4.403-.114 8.853.036 13.142.137 10.864-1.526 21.385-1.526 23.863-.115 1.85-.223 14.39-.893 19.099-.173.915-1.986 8.043-2.234 10.35-.476 5.527 2.225 21.956 1.824 25.5-.511 4.843-1.973 9.69-3.574 14.818-2.63 8.902-5.657 18.929-4.17 30.937.858 6.671 2.242 14.258 5.1 22.226.08.36 2.697 10.828 3.612 15.784 0 0 3.638 11.91 4.877 19.248.915 5.756.172 14.378.186 16.417.057 4.06 2.972 16.874 3.24 18.876.172 1.372-.774 10.015-.262 13.179 1.087 6.938 3.725 19.881 11.579 24.57 9.492 5.814 18.052 5.302 23.752 7.037 13.743 4.155 29.812 1.776 38.866-1.75 2.879-1.144 6.362-3.64 8.116-6.366 1.81-2.878 5.71-5.195 8.302-9.121 3.011-4.594 7.287-22.79 10.09-30.49 2.992-8.064-.323-24.045-2.458-30.603-.684-2.096-8.036-19.489-9.865-23.453-1.792-4.023-3.205-21.06-3.872-24.758-.418-2.535-3.51-13.723-3.872-15.896-.245-1.697.365-11.193-.075-14.147-2.306-14.448-.69-28.915.968-42.925 0 0-.283-13.82-.074-15.86.782-7.948 1.09-17.067 1.414-25.873.173-5.928.329-11.519.745-16.455.209-2.745-1.626-10.168-.558-16.344.475-2.325-1.487-12.09-1.601-13.29-.648-5.395 1.65-29.042 1.117-35.256-.23-2.364-2.86-15.78-3.946-27.921 0 0-.586-15.381-.261-19.918.46-5.814-.502-20.352-.372-33.58.038-4.327-1.46-31.037-1.899-33.916-.782-5.26-1.31-15.307-.186-23.789 1.773-13.762.481-16.25 2.122-25.8 1.487-9.13 17.096-15.74 18.354-16.008 3.526-.82 15.677-3.308 18.689-5.919 7.243-6.366 16.298-8.98 20.587-10.238 6.5-1.886 10.038-6.933 12.211-8.153 2.878-1.487 11.61-6.91 14.221-8.302 2.612-1.353 5.715-5.824 12.062-7.483 3.24-.858 8.061-4.3 12.807-5.844 3.298-1.125 8.816-2.702 9.94-3.388 11.38-7.148 26.264-26.802 22.337-46.797-1.258-6.404-6.352-11.154-9.344-15.71-6.061-9.245-14.161-9.663-19.918-9.568-4.47.016-11.48-1.297-15.077-1.08z" fill="#fff"/><path d="m682.433 495.574-144.578 127.233.838.973 113.7-30.822 30.04-27.43zm-269.886-495.454 124.755 138.498 45.784-47.863-31.565-27.6z" fill="#49638c"/><path d="m1264.323 109.675c-2.055.038-4.105.16-6.142.336-15.459 1.296-26.055 8.966-35.032 16.38-2.25 1.83-3.615 4.668-5.846 6.441-6.404 4.842-12.954 10.555-17.758 16.864-2.573 3.393-3.997 7.124-6.589 10.536-6.938 9.226-14.634 17.708-21.63 27.028-1.448 1.85-18.8 19.044-21.183 22.152-5.337 7.147-10.002 14.333-15.338 21.443-4.022 5.223-9.402 9.609-13.291 15.003-2.535 3.584-13.97 20.698-17.534 25.54-6.1 8.062-14.238 15.12-19.88 23.602-4.385 6.729-11.88 19.634-14.11 23.79-1.888 3.697-4.983 14.52-12.36 23.156-6.366 7.548-8.782 20.597-9.754 24.124-.743 2.764-6.891 13.233-10.722 22.821-7.053 7.434-11.777 18.15-14.408 22.858-4.212 7.491-17.228 22.88-18.39 28.331-2.993 13.114-10.457 17.61-11.467 23.12-3.469 18.393-13.8 32.27-20.662 29.373-10.216-4.29-12-12.925-15.413-23.752-2.57-8.52-1.885-24.171-3.239-37.266-1.6-15.916-4.064-31.732-5.36-46.275-2.307-27.181-1.968-43.733-19.694-56.141-6.748-4.71-14.208-3.49-17.945-3.872-8.444-.915-19.284-.568-26.432 1.415-4.25 1.124-6.403 3.362-9.605 5.25-7.339 4.536-19.158 9.483-22.933 17.013-6.938 13.933-3.584 43.393-.744 59.938.705 4.631 10.742 30.889 13.811 39.276 5.719 15.706 9.312 31.48 14.669 47.987 2.897 8.616 8.563 24.753 10.088 33.692 2.84 16.622 8.966 32.136 12.435 50.11.686 3.603 3.013 8.332 3.871 11.84 1.087 4.517 1.184 8.492 2.309 13.067 2.097 8.024 6.314 17.76 8.525 25.576 3.755 13.19 7.827 23.066 12.993 34.064 2.001 4.231 6.603 13.869 9.233 17.795 10.884 15.935 20.891 24.387 42.068 24.236 13.057-.076 23.538-1.434 30.267-7.743 6.995-6.405 12.694-14.293 14.333-16.828 5.776-8.882 10.627-20.446 13.067-32.835 2.421-12.428-.71-27 1.006-40.133.152-.877 2.08-16.716 7.855-31.011.915-2.345 3.863-7.61 5.808-14.93 2.725-10.426 10.345-18.795 15.3-27.734 3.584-6.329 17.348-29.802 18.987-32.204 3.24-4.803 7.36-9.894 10.238-15.003.972-1.868 7.523-14.941 11.355-22.337 2.668-4.994 5.06-15.333 7.594-20.327 1.297-2.592 9.25-7.724 12.472-15.71 1.487-3.87 7.006-11.199 9.866-18.652 4.002-10.674 8.17-13.727 9.79-16.567 3.07-5.394 6.081-16.811 12.733-23.863 5.3-5.7 14.978-25.181 20.03-30.118 8.538-8.368 16.134-25.601 18.65-28.517 7.759-8.826 17.438-22.532 22.375-28.518 2.897-3.412 7.977-4.584 11.504-7.557 7.624-6.595 10.646-13.31 21.034-18.838 4.174-2.306 19.485-9.397 22.077-10.312 4.441-1.582 13.094-5.925 19.06-10.461 7.091-5.337 15.219-17.715 17.163-21.184 4.937-9.073 8.277-23.888 9.344-29.187 2.418-11.818 3.29-16.704 2.793-28.331-.534-13.343-11.01-30.691-24.162-39.574-8.272-5.57-22.69-8.64-37.08-8.377z" fill="#fff"/><g fill="none" stroke="#e47e52" stroke-width="19.091119"><path d="m910.018 171.326c-.511.031-.983.087-1.34.188-5.947 1.696-14.782 7.896-18.652 10.908-1.696 1.296-13.456 9.23-15.896 12.471-1.354 1.716-7.578 11.408-12.286 15.487-4.06 3.546-14.775 6.96-20.513 11.02-3.545.82-10.722 2.15-13.886 3.313-2.993 1.201-14.96 7.463-17.572 8.34-1.735.612-10.12 2.86-12.732 3.871-1.963.762-7.372 4.258-8.153 4.467-4.098 1.163-11.899 1.773-16.493.82-2.382-.534-19.163-10.065-32.277-7.93-5.927.972-11.018 3.573-13.477 5.994-3.564.896-8.805 3.352-10.35 6.44-1.486 2.898-4.22 2.924-5.993 6.068-3.374 6.272-5.583 15.285-5.659 16.753-.627 5.985.89 11.144 1.862 16.195 2.63 14.353-2.052 20.1-11.392 24.98-2.097 1.087-9.32 6.327-11.169 7.223-2.592 1.181-12.971 4.64-15.487 6.03-9.95 5.681-18.936 9.056-21.109 11.058-9.53 8.977-24.05 17.125-24.05 17.125-4.898 3.069-13.36 7.828-23.9 13.737-6.424 3.565-15.933 11.944-17.572 13.03-1.81 1.201-10.828 5.6-13.44 7.297-1.639 1.106-9.677 7.021-12.136 8.451-5.109 2.84-11.714 4.682-18.652 6.626-11.265 3.222-22.833 6.49-30.267 14.743-11.265 12.523-15.992 31.924-10.35 47.02 5.738 15.077 18.686 23.82 25.204 26.507 10.217 4.288 27.05 3.224 34.846-2.532 4.976-3.736 7.653-9.411 9.94-14.482.915-1.868 3.767-8.033 8.265-12.36 4.69-4.574 11.96-16.688 13.961-18.651 4.727-4.613 10.64-8.522 17.311-11.839 13.496-6.862 21.84-15.226 26.358-19.21 3.126-2.802 5.692-5.95 9.047-7.818 13.476-7.358 20.47-12.75 24.645-15.934 3.66-2.688 14.346-7.802 20.14-10.87 5.891-3.127 12.782-9.112 15.45-10.313 3.527-1.677 9.628-1.784 11.877-.223 2.307 1.467 7.827 9.376 11.392 50.929.187 2.04.41 18.7.41 21.406.058 4.212 1.584 17.689 1.527 19.061-.555 7.968.024 17.436.706 26.433-.038.345-.641 8.102.745 16.604 1.01 5.68.555 17.72 0 22.523-.555 4.403-.115 8.853.037 13.142.137 10.865-1.527 21.385-1.527 23.863-.115 1.85-.223 14.39-.893 19.099-.173.914-1.986 8.043-2.234 10.35-.475 5.527 2.225 21.955 1.824 25.5-.511 4.843-1.973 9.69-3.574 14.818-2.63 8.901-5.657 18.928-4.17 30.937.858 6.67 2.242 14.258 5.101 22.225.08.36 2.697 10.83 3.611 15.785 0 0 3.639 11.91 4.878 19.248.915 5.756.173 14.378.187 16.417.057 4.06 2.972 16.874 3.239 18.875.173 1.373-.774 10.015-.26 13.18 1.087 6.938 3.725 19.881 11.579 24.57 9.492 5.814 18.052 5.302 23.752 7.037 13.743 4.155 29.812 1.776 38.866-1.75 2.878-1.144 6.362-3.64 8.116-6.367 1.81-2.878 5.71-5.194 8.302-9.12 3.012-4.595 7.287-22.79 10.09-30.491 2.992-8.063-.325-24.045-2.458-30.602-.685-2.096-8.036-19.49-9.866-23.454-1.791-4.022-3.204-21.06-3.871-24.757-.418-2.535-3.51-13.724-3.872-15.897-.245-1.696.368-11.192-.072-14.147-2.307-14.448-.692-28.914.968-42.924 0 0-.28-13.82-.072-15.86.782-7.948 1.09-17.067 1.415-25.874.173-5.927.332-11.518.745-16.455.209-2.745-1.626-10.167-.562-16.343.476-2.326-1.486-12.09-1.6-13.29-.649-5.395 1.65-29.043 1.116-35.256-.23-2.364-2.86-15.78-3.946-27.922 0 0-.584-15.38-.26-19.917.461-5.814-.504-20.352-.374-33.58.038-4.327-1.46-31.038-1.9-33.916-.781-5.261-1.308-15.307-.187-23.789 1.773-13.762.483-16.25 2.123-25.8 1.487-9.13 17.095-15.741 18.353-16.008 3.527-.82 15.678-3.309 18.69-5.92 7.242-6.366 16.298-8.98 20.587-10.237 6.5-1.887 10.038-6.933 12.21-8.153 2.879-1.487 11.61-6.911 14.222-8.302 2.612-1.354 5.715-5.825 12.062-7.483 3.24-.858 8.06-4.3 12.807-5.845 3.297-1.125 8.815-2.702 9.94-3.388 11.38-7.148 26.264-26.802 22.337-46.797-1.258-6.404-6.352-11.155-9.344-15.71-6.062-9.245-14.161-9.663-19.918-9.568-4.47.016-11.48-1.297-15.077-1.08z"/><path d="m1264.323 109.676a88.206 88.206 0 0 0 -6.143.338c-15.458 1.296-26.054 8.966-35.032 16.38-2.249 1.83-3.614 4.669-5.845 6.441-6.404 4.842-12.954 10.556-17.758 16.865-2.573 3.393-3.997 7.124-6.59 10.536-6.938 9.225-14.634 17.707-21.63 27.028-1.448 1.848-18.8 19.044-21.182 22.15-5.337 7.149-10.002 14.335-15.339 21.445-4.022 5.223-9.401 9.608-13.29 15.003-2.535 3.583-13.97 20.697-17.535 25.539-6.1 8.063-14.238 15.12-19.88 23.603-4.384 6.728-11.88 19.633-14.11 23.789-1.886 3.698-4.983 14.521-12.36 23.156-6.366 7.548-8.782 20.598-9.753 24.124-.744 2.764-6.891 13.234-10.722 22.821-7.053 7.434-11.778 18.15-14.408 22.859-4.212 7.49-17.228 22.88-18.39 28.33-2.993 13.115-10.457 17.612-11.467 23.12-3.47 18.394-13.8 32.27-20.662 29.373-10.217-4.288-12.001-12.925-15.413-23.752-2.57-8.52-1.885-24.17-3.239-37.266-1.6-15.916-4.065-31.731-5.361-46.275-2.306-27.18-1.968-43.732-19.694-56.14-6.748-4.71-14.208-3.49-17.944-3.872-8.444-.915-19.285-.57-26.433 1.415-4.25 1.124-6.403 3.362-9.605 5.249-7.338 4.536-19.158 9.484-22.933 17.013-6.938 13.934-3.584 43.393-.744 59.938.706 4.632 10.743 30.89 13.812 39.277 5.718 15.706 9.312 31.48 14.668 47.987 2.897 8.616 8.564 24.753 10.09 33.692 2.839 16.622 8.965 32.136 12.433 50.11.685 3.603 3.014 8.332 3.872 11.839 1.086 4.518 1.184 8.493 2.308 13.067 2.097 8.025 6.315 17.761 8.526 25.576 3.754 13.19 7.827 23.066 12.992 34.065 2.002 4.231 6.603 13.869 9.233 17.795 10.884 15.935 20.892 24.387 42.069 24.236 13.056-.08 23.538-1.435 30.266-7.744 6.996-6.404 12.694-14.292 14.333-16.827 5.776-8.883 10.628-20.446 13.068-32.836 2.42-12.428-.713-27 1.005-40.132.15-.877 2.08-16.716 7.855-31.012.915-2.344 3.864-7.61 5.807-14.929 2.726-10.426 10.346-18.795 15.301-27.735 3.584-6.328 17.348-29.8 18.987-32.203 3.24-4.803 7.36-9.894 10.238-15.003.972-1.868 7.523-14.941 11.355-22.337 2.668-4.994 5.06-15.333 7.594-20.327 1.296-2.592 9.25-7.724 12.472-15.71 1.487-3.87 7.006-11.2 9.865-18.652 4.003-10.674 8.171-13.727 9.792-16.567 3.069-5.394 6.08-16.811 12.732-23.864 5.298-5.699 14.978-25.18 20.029-30.117 8.54-8.368 16.135-25.601 18.651-28.518 7.758-8.825 17.438-22.532 22.375-28.517 2.897-3.412 7.977-4.584 11.504-7.557 7.624-6.596 10.645-13.31 21.034-18.838 4.174-2.307 19.484-9.397 22.076-10.312 4.442-1.582 13.095-5.925 19.061-10.462 7.09-5.336 15.218-17.714 17.163-21.183 4.937-9.073 8.277-23.888 9.344-29.187 2.418-11.818 3.29-16.704 2.793-28.331-.534-13.343-11.01-30.692-24.162-39.574-8.272-5.57-22.69-8.64-37.08-8.377z"/></g></svg>