<svg height="1389" viewBox="-319.216 -181.667 2805.612 1570.456" width="2500" xmlns="http://www.w3.org/2000/svg" xmlns:xlink="http://www.w3.org/1999/xlink"><linearGradient id="a" gradientUnits="userSpaceOnUse" x1="363.09" x2="466.879" xlink:href="#b" y1="297.953" y2="297.953"/><linearGradient id="b"><stop offset="0" stop-color="#f8ebae"/><stop offset=".25" stop-color="#e8d188"/><stop offset=".5" stop-color="#d9b75e"/><stop offset=".75" stop-color="#cb9c2e"/><stop offset="1" stop-color="#bd830b"/></linearGradient><linearGradient id="c" gradientUnits="userSpaceOnUse" x1="-29.418" x2="121.542" y1="782.815" y2="782.815"><stop offset="0" stop-color="#f8ebae"/><stop offset=".5" stop-color="#dbb962"/><stop offset="1" stop-color="#bc830b"/></linearGradient><linearGradient id="d" gradientUnits="userSpaceOnUse" x1="392.07" x2="562.398" xlink:href="#b" y1="1090.61" y2="1090.61"/><linearGradient id="e" gradientUnits="userSpaceOnUse" x1="-511.505" x2="-356.499" y1="1308.109" y2="1386.754"><stop offset="0" stop-color="#f7ebcb"/><stop offset=".125" stop-color="#f4d8b2"/><stop offset=".25" stop-color="#f0c495"/><stop offset=".375" stop-color="#ecaf7e"/><stop offset=".5" stop-color="#e79866"/><stop offset=".625" stop-color="#e3814b"/><stop offset=".75" stop-color="#de5430"/><stop offset=".875" stop-color="#d82a22"/><stop offset="1" stop-color="#d4001f"/></linearGradient><linearGradient id="f" gradientUnits="userSpaceOnUse" x1="254.596" x2="395.782" y1="1258.916" y2="1258.916"><stop offset="0" stop-color="#f7ebcb"/><stop offset=".125" stop-color="#f4dab4"/><stop offset=".25" stop-color="#f1c99c"/><stop offset=".375" stop-color="#eeb887"/><stop offset=".5" stop-color="#eaa573"/><stop offset=".625" stop-color="#e69060"/><stop offset=".75" stop-color="#e27844"/><stop offset=".875" stop-color="#dd512f"/><stop offset="1" stop-color="#d92b23"/></linearGradient><linearGradient id="g" gradientUnits="userSpaceOnUse" x1="-393.766" x2="-394.66" y1="993.694" y2="1031.229"><stop offset="0" stop-color="#d40020"/><stop offset=".125" stop-color="#d92d22"/><stop offset=".25" stop-color="#de5731"/><stop offset=".375" stop-color="#e3824c"/><stop offset=".5" stop-color="#e89a68"/><stop offset=".625" stop-color="#ecb17f"/><stop offset=".75" stop-color="#f1c89a"/><stop offset=".875" stop-color="#f5dbb6"/><stop offset="1" stop-color="#f7ebcb"/></linearGradient><linearGradient id="h" gradientUnits="userSpaceOnUse" x1="315.44" x2="316.577" y1="965.299" y2="1023.429"><stop offset="0" stop-color="#d4001f"/><stop offset=".125" stop-color="#d82b23"/><stop offset=".25" stop-color="#de5731"/><stop offset=".375" stop-color="#e3824c"/><stop offset=".5" stop-color="#e79867"/><stop offset=".625" stop-color="#ecb07e"/><stop offset=".75" stop-color="#f0c696"/><stop offset=".875" stop-color="#f4d8b2"/><stop offset="1" stop-color="#f7ebcb"/></linearGradient><linearGradient id="i" gradientUnits="userSpaceOnUse" x1="538.74" x2="538.74" y1="982.507" y2="1044.171"><stop offset="0" stop-color="#d4021e"/><stop offset=".125" stop-color="#d82b23"/><stop offset=".25" stop-color="#de5731"/><stop offset=".375" stop-color="#e3824c"/><stop offset=".5" stop-color="#e89968"/><stop offset=".625" stop-color="#ecb07e"/><stop offset=".75" stop-color="#f0c696"/><stop offset=".875" stop-color="#f4d8b2"/><stop offset="1" stop-color="#f7ebcb"/></linearGradient><linearGradient id="j" gradientUnits="userSpaceOnUse" x1="-17.629" x2="-14.948" y1="1027.175" y2="1039.686"><stop offset="0" stop-color="#da2e23"/><stop offset=".125" stop-color="#dd512f"/><stop offset=".25" stop-color="#e27844"/><stop offset=".375" stop-color="#e69060"/><stop offset=".5" stop-color="#eaa573"/><stop offset=".625" stop-color="#edb987"/><stop offset=".75" stop-color="#f1ca9e"/><stop offset=".875" stop-color="#f5dbb6"/><stop offset="1" stop-color="#f7ebcb"/></linearGradient><linearGradient id="k" gradientUnits="userSpaceOnUse" x1="-342.403" x2="-291.114" xlink:href="#l" y1="452.209" y2="674.469"/><linearGradient id="l"><stop offset="0" stop-color="#f7ebcb"/><stop offset=".125" stop-color="#f4d8b2"/><stop offset=".25" stop-color="#f0c696"/><stop offset=".375" stop-color="#ecb07e"/><stop offset=".5" stop-color="#e79867"/><stop offset=".625" stop-color="#e3824c"/><stop offset=".75" stop-color="#de5731"/><stop offset=".875" stop-color="#d82b23"/><stop offset="1" stop-color="#d4001f"/></linearGradient><linearGradient id="m" gradientUnits="userSpaceOnUse" x1="-38.834" x2="-137.993" xlink:href="#l" y1="105.588" y2="348.363"/><linearGradient id="n" gradientUnits="userSpaceOnUse" x1="477.222" x2="507.444" y1="890.148" y2="890.148"><stop offset="0" stop-color="#f8ebae"/><stop offset=".5" stop-color="#f0bc81"/><stop offset="1" stop-color="#e4855d"/></linearGradient><linearGradient id="o" gradientUnits="userSpaceOnUse" x1="-94.969" x2="164.527" y1="455.167" y2="413.398"><stop offset="0" stop-color="#ac081c"/><stop offset=".063" stop-color="#a90a1c"/><stop offset=".125" stop-color="#a40d1a"/><stop offset=".188" stop-color="#9f0f1a"/><stop offset=".25" stop-color="#9a1119"/><stop offset=".313" stop-color="#961318"/><stop offset=".375" stop-color="#931617"/><stop offset=".438" stop-color="#941717"/><stop offset=".5" stop-color="#a41c19"/><stop offset=".563" stop-color="#b2201c"/><stop offset=".625" stop-color="#c5251f"/><stop offset=".688" stop-color="#d62a21"/><stop offset=".75" stop-color="#dd492b"/><stop offset=".813" stop-color="#e26b3b"/><stop offset=".875" stop-color="#e68851"/><stop offset=".938" stop-color="#e99966"/><stop offset="1" stop-color="#eeab75"/></linearGradient><linearGradient id="p" gradientUnits="userSpaceOnUse" x1="-130.412" x2="186.846" y1="1640.39" y2="1709.708"><stop offset="0" stop-color="#edaa75"/><stop offset=".125" stop-color="#e6874f"/><stop offset=".25" stop-color="#dd472b"/><stop offset=".375" stop-color="#c3251e"/><stop offset=".5" stop-color="#a31c19"/><stop offset=".625" stop-color="#931617"/><stop offset=".75" stop-color="#9b1119"/><stop offset=".875" stop-color="#a40d1a"/><stop offset="1" stop-color="#ac081c"/></linearGradient><linearGradient id="q" gradientUnits="userSpaceOnUse" x1="250.16" x2="340.276" y1="545.34" y2="608.758"><stop offset="0" stop-color="#eeab75"/><stop offset=".125" stop-color="#e68851"/><stop offset=".25" stop-color="#dd492b"/><stop offset=".375" stop-color="#c5251f"/><stop offset=".5" stop-color="#a41c19"/><stop offset=".625" stop-color="#931617"/><stop offset=".75" stop-color="#9a1119"/><stop offset=".875" stop-color="#a40d1a"/><stop offset="1" stop-color="#ac081c"/></linearGradient><linearGradient id="r" gradientUnits="userSpaceOnUse" x1="-547.407" x2="-549.202" y1="-21.762" y2="493.002"><stop offset="0" stop-color="#f8ebae"/><stop offset=".063" stop-color="#efda96"/><stop offset=".125" stop-color="#e5cb82"/><stop offset=".188" stop-color="#ddbc6b"/><stop offset=".25" stop-color="#d4ad4c"/><stop offset=".313" stop-color="#cc9d30"/><stop offset=".375" stop-color="#c28d17"/><stop offset=".438" stop-color="#bd850d"/><stop offset=".5" stop-color="#c5911c"/><stop offset=".563" stop-color="#ca9a2b"/><stop offset=".625" stop-color="#d1a741"/><stop offset=".688" stop-color="#d8b356"/><stop offset=".75" stop-color="#ddbd6d"/><stop offset=".813" stop-color="#e4c97e"/><stop offset=".875" stop-color="#ead48d"/><stop offset=".938" stop-color="#f0e09d"/><stop offset="1" stop-color="#f8ebae"/></linearGradient><linearGradient id="s" gradientUnits="userSpaceOnUse" x1="796.122" x2="765.736" y1="-299.609" y2="25.693"><stop offset="0" stop-color="#e4bc39"/><stop offset=".5" stop-color="#eed37e"/><stop offset="1" stop-color="#f7eaae"/></linearGradient><linearGradient id="t" gradientUnits="userSpaceOnUse" x1="-250.378" x2="-255.748" y1="330.863" y2="995.758"><stop offset="0" stop-color="#f9eaae"/><stop offset=".031" stop-color="#f7e8a9"/><stop offset=".063" stop-color="#f7e6a3"/><stop offset=".094" stop-color="#f5e39d"/><stop offset=".125" stop-color="#f4e099"/><stop offset=".156" stop-color="#f3de93"/><stop offset=".188" stop-color="#f2db8e"/><stop offset=".219" stop-color="#f1d98a"/><stop offset=".25" stop-color="#f0d685"/><stop offset=".281" stop-color="#efd37f"/><stop offset=".313" stop-color="#eed17b"/><stop offset=".344" stop-color="#eecf76"/><stop offset=".375" stop-color="#ebcb6d"/><stop offset=".406" stop-color="#ebc966"/><stop offset=".438" stop-color="#eac75d"/><stop offset=".469" stop-color="#e9c454"/><stop offset=".5" stop-color="#e8c24d"/><stop offset=".531" stop-color="#e7bf44"/><stop offset=".563" stop-color="#e6bd3b"/><stop offset=".594" stop-color="#e5bd3a"/><stop offset=".625" stop-color="#e7c048"/><stop offset=".656" stop-color="#e9c455"/><stop offset=".688" stop-color="#ebc964"/><stop offset=".719" stop-color="#edcd71"/><stop offset=".75" stop-color="#eed17b"/><stop offset=".781" stop-color="#f0d684"/><stop offset=".813" stop-color="#f2da8c"/><stop offset=".844" stop-color="#f3de93"/><stop offset=".875" stop-color="#f4e29c"/><stop offset=".906" stop-color="#f7e7a5"/><stop offset=".938" stop-color="#f9eaae"/><stop offset=".969" stop-color="#d9b75e"/><stop offset="1" stop-color="#ba880a"/></linearGradient><linearGradient id="u" gradientUnits="userSpaceOnUse" x1="971.91" x2="923.651" y1="-198.525" y2="71.36"><stop offset="0" stop-color="#e5bc38"/><stop offset=".5" stop-color="#eed37e"/><stop offset="1" stop-color="#f9ebaf"/></linearGradient><linearGradient id="v" gradientUnits="userSpaceOnUse" x1="1222.232" x2="1491.394" y1="302.264" y2="302.264"><stop offset="0" stop-color="#efd887"/><stop offset=".5" stop-color="#d5ad3f"/><stop offset="1" stop-color="#bd830b"/></linearGradient><linearGradient id="w" gradientUnits="userSpaceOnUse" x1="1184.453" x2="1262.204" y1="580.16" y2="580.16"><stop offset="0" stop-color="#efd887"/><stop offset=".25" stop-color="#e3c268"/><stop offset=".5" stop-color="#d5ad42"/><stop offset=".75" stop-color="#c89620"/><stop offset="1" stop-color="#bd830b"/></linearGradient><linearGradient id="x" gradientUnits="userSpaceOnUse" x1="788.379" x2="797.763" y1="527.823" y2="668.579"><stop offset="0" stop-color="#bd830b"/><stop offset=".25" stop-color="#c99822"/><stop offset=".5" stop-color="#d6ae43"/><stop offset=".75" stop-color="#e3c268"/><stop offset="1" stop-color="#efd887"/></linearGradient><linearGradient id="y" gradientUnits="userSpaceOnUse" x1="1071.93" x2="1104.265" y1="778.965" y2="778.965"><stop offset="0" stop-color="#efd887"/><stop offset=".25" stop-color="#e2c165"/><stop offset=".5" stop-color="#d5ad42"/><stop offset=".75" stop-color="#c7941e"/><stop offset="1" stop-color="#bd840c"/></linearGradient><linearGradient id="z" gradientUnits="userSpaceOnUse" x1="1301.12" x2="1506.18" y1="358.973" y2="358.973"><stop offset="0" stop-color="#efd887"/><stop offset=".5" stop-color="#d6ae43"/><stop offset="1" stop-color="#bd830b"/></linearGradient><linearGradient id="A" gradientUnits="userSpaceOnUse" x1="619.683" x2="646.494" y1="917.007" y2="1002.801"><stop offset="0" stop-color="#ac081c"/><stop offset=".125" stop-color="#b41d1f"/><stop offset=".25" stop-color="#bb3425"/><stop offset=".375" stop-color="#c34d2e"/><stop offset=".5" stop-color="#cb6539"/><stop offset=".625" stop-color="#d37c48"/><stop offset=".75" stop-color="#dd8b5a"/><stop offset=".875" stop-color="#e49a68"/><stop offset="1" stop-color="#eeab75"/></linearGradient><linearGradient id="B" gradientUnits="userSpaceOnUse" x1="807.74" x2="864.042" y1="123.332" y2="257.385"><stop offset="0" stop-color="#f7ebcb"/><stop offset=".125" stop-color="#f4d6af"/><stop offset=".25" stop-color="#f0c696"/><stop offset=".375" stop-color="#ecae7c"/><stop offset=".5" stop-color="#e79766"/><stop offset=".625" stop-color="#e3824c"/><stop offset=".75" stop-color="#de5731"/><stop offset=".875" stop-color="#d82b23"/><stop offset="1" stop-color="#d4021e"/></linearGradient><linearGradient id="C" gradientUnits="userSpaceOnUse" x1="649.265" x2="582.612" y1="-53.033" y2="130.92"><stop offset="0" stop-color="#edaa75"/><stop offset=".031" stop-color="#eca26d"/><stop offset=".063" stop-color="#e99966"/><stop offset=".094" stop-color="#e8905c"/><stop offset=".125" stop-color="#e68851"/><stop offset=".156" stop-color="#e47c44"/><stop offset=".188" stop-color="#e26b3b"/><stop offset=".219" stop-color="#df5931"/><stop offset=".25" stop-color="#dd492b"/><stop offset=".281" stop-color="#db3826"/><stop offset=".313" stop-color="#d62a21"/><stop offset=".344" stop-color="#ce2820"/><stop offset=".375" stop-color="#c5251f"/><stop offset=".406" stop-color="#bc231d"/><stop offset=".438" stop-color="#b2201c"/><stop offset=".469" stop-color="#ab1e1b"/><stop offset=".5" stop-color="#a41c19"/><stop offset=".531" stop-color="#9c1918"/><stop offset=".563" stop-color="#941717"/><stop offset=".594" stop-color="#901718"/><stop offset=".625" stop-color="#931617"/><stop offset=".656" stop-color="#951417"/><stop offset=".688" stop-color="#961318"/><stop offset=".719" stop-color="#981218"/><stop offset=".75" stop-color="#9a1119"/><stop offset=".781" stop-color="#9d1119"/><stop offset=".813" stop-color="#9f0f1a"/><stop offset=".844" stop-color="#a10e1a"/><stop offset=".875" stop-color="#a40d1a"/><stop offset=".906" stop-color="#a60b1c"/><stop offset=".938" stop-color="#a90a1c"/><stop offset=".969" stop-color="#ab091c"/><stop offset="1" stop-color="#ac081c"/></linearGradient><linearGradient id="D" gradientUnits="userSpaceOnUse" x1="481.422" x2="665.375" y1="-437.627" y2="-413.636"><stop offset="0" stop-color="#f7ebcb"/><stop offset=".125" stop-color="#f4d8b2"/><stop offset=".25" stop-color="#f0c696"/><stop offset=".375" stop-color="#ecaf7e"/><stop offset=".5" stop-color="#e79867"/><stop offset=".625" stop-color="#e3824c"/><stop offset=".75" stop-color="#de5731"/><stop offset=".875" stop-color="#d82a22"/><stop offset="1" stop-color="#d4001f"/></linearGradient><linearGradient id="E" gradientUnits="userSpaceOnUse" x1="161.807" x2="252.451" y1="492.214" y2="660.17"><stop offset="0" stop-color="#eeab75"/><stop offset=".125" stop-color="#e68851"/><stop offset=".25" stop-color="#dd492b"/><stop offset=".375" stop-color="#c5251f"/><stop offset=".5" stop-color="#a41c19"/><stop offset=".625" stop-color="#931518"/><stop offset=".75" stop-color="#9a1119"/><stop offset=".875" stop-color="#a40d1a"/><stop offset="1" stop-color="#ac081c"/></linearGradient><linearGradient id="F" gradientUnits="userSpaceOnUse" x1="844.104" x2="844.104" y1="940.203" y2="1007.229"><stop offset="0" stop-color="#d4021e"/><stop offset=".125" stop-color="#d92e1f"/><stop offset=".25" stop-color="#de5a28"/><stop offset=".375" stop-color="#e3823a"/><stop offset=".5" stop-color="#e99b57"/><stop offset=".625" stop-color="#edb26e"/><stop offset=".75" stop-color="#f2c783"/><stop offset=".875" stop-color="#f5da97"/><stop offset="1" stop-color="#f9ecae"/></linearGradient><linearGradient id="G" gradientUnits="userSpaceOnUse" x1="1236.319" x2="1266.526" y1="384.768" y2="394.834"><stop offset="0" stop-color="#f8eaad"/><stop offset=".063" stop-color="#f2e0a1"/><stop offset=".125" stop-color="#edd595"/><stop offset=".188" stop-color="#e9ca8a"/><stop offset=".25" stop-color="#e4bf7f"/><stop offset=".313" stop-color="#dfb376"/><stop offset=".375" stop-color="#d9a86b"/><stop offset=".438" stop-color="#d69b61"/><stop offset=".5" stop-color="#d19053"/><stop offset=".563" stop-color="#cc8547"/><stop offset=".625" stop-color="#c87a3c"/><stop offset=".688" stop-color="#c36b32"/><stop offset=".75" stop-color="#be542b"/><stop offset=".813" stop-color="#ba4126"/><stop offset=".875" stop-color="#b62d21"/><stop offset=".938" stop-color="#b11a1e"/><stop offset="1" stop-color="#ac081c"/></linearGradient><linearGradient id="H" gradientUnits="userSpaceOnUse" x1="156.445" x2="418.555" y1="1075.36" y2="1075.36"><stop offset="0" stop-color="#eeab75"/><stop offset=".063" stop-color="#e99966"/><stop offset=".125" stop-color="#e6874f"/><stop offset=".188" stop-color="#e26a3a"/><stop offset=".25" stop-color="#dd4629"/><stop offset=".313" stop-color="#d32a21"/><stop offset=".375" stop-color="#c5251f"/><stop offset=".438" stop-color="#b1201d"/><stop offset=".5" stop-color="#a31c19"/><stop offset=".563" stop-color="#931717"/><stop offset=".625" stop-color="#931617"/><stop offset=".688" stop-color="#961318"/><stop offset=".75" stop-color="#9b1119"/><stop offset=".813" stop-color="#9f0f1a"/><stop offset=".875" stop-color="#a40d1a"/><stop offset=".938" stop-color="#a90a1c"/><stop offset="1" stop-color="#ac081c"/></linearGradient><linearGradient id="I" gradientUnits="userSpaceOnUse" x1="499.321" x2="586.982" y1="853.14" y2="853.14"><stop offset="0" stop-color="#f8eaad"/><stop offset=".5" stop-color="#f0bc81"/><stop offset="1" stop-color="#e5865d"/></linearGradient><linearGradient id="J" gradientUnits="userSpaceOnUse" x1="1253.511" x2="1263.991" y1="292.881" y2="292.881"><stop offset="0" stop-color="#f1e19f"/><stop offset="1" stop-color="#ebd790"/></linearGradient><linearGradient id="K" gradientUnits="userSpaceOnUse" x1="1041.167" x2="1041.167" y1="940.236" y2="949.091"><stop offset="0" stop-color="#d92c23"/><stop offset="1" stop-color="#dc4026"/></linearGradient><linearGradient id="L" gradientUnits="userSpaceOnUse" x1="1371.568" x2="1629.339" y1="1237.012" y2="1394.399"><stop offset="0" stop-color="#901718"/><stop offset=".25" stop-color="#961318"/><stop offset=".5" stop-color="#9e111a"/><stop offset=".75" stop-color="#a60d1b"/><stop offset="1" stop-color="#ac081c"/></linearGradient><linearGradient id="M" gradientUnits="userSpaceOnUse" x1="3112.883" x2="3279.353" y1="49.765" y2="575.489"><stop offset="0" stop-color="#f8eaad"/><stop offset=".031" stop-color="#f2e1a0"/><stop offset=".063" stop-color="#eed994"/><stop offset=".094" stop-color="#e8d188"/><stop offset=".125" stop-color="#e3c87c"/><stop offset=".156" stop-color="#dec071"/><stop offset=".188" stop-color="#dab760"/><stop offset=".219" stop-color="#d4ae4e"/><stop offset=".25" stop-color="#d0a53c"/><stop offset=".281" stop-color="#cb9c2e"/><stop offset=".313" stop-color="#c59321"/><stop offset=".344" stop-color="#c18b14"/><stop offset=".375" stop-color="#bd830b"/><stop offset=".406" stop-color="#c28d18"/><stop offset=".438" stop-color="#c99928"/><stop offset=".469" stop-color="#d0a53e"/><stop offset=".5" stop-color="#d8b355"/><stop offset=".531" stop-color="#ddbd6d"/><stop offset=".563" stop-color="#e4c97d"/><stop offset=".594" stop-color="#ead58d"/><stop offset=".625" stop-color="#f1e19f"/><stop offset=".656" stop-color="#f7e9ab"/><stop offset=".688" stop-color="#f0e09d"/><stop offset=".719" stop-color="#ebd790"/><stop offset=".75" stop-color="#e6cc83"/><stop offset=".781" stop-color="#e1c477"/><stop offset=".813" stop-color="#dcbb67"/><stop offset=".844" stop-color="#d8b355"/><stop offset=".875" stop-color="#d1a842"/><stop offset=".906" stop-color="#cc9e31"/><stop offset=".938" stop-color="#c79421"/><stop offset=".969" stop-color="#c18c16"/><stop offset="1" stop-color="#bd830b"/></linearGradient><linearGradient id="N" gradientUnits="userSpaceOnUse" x1="1312.007" x2="1690.188" y1="466.703" y2="466.703"><stop offset="0" stop-color="#f8ebae"/><stop offset=".5" stop-color="#d9b75e"/><stop offset="1" stop-color="#bd830b"/></linearGradient><linearGradient id="O" gradientUnits="userSpaceOnUse" x1="1157.155" x2="1691.847" xlink:href="#b" y1="795.133" y2="795.133"/><linearGradient id="P" gradientUnits="userSpaceOnUse" x1="1339.573" x2="1440.113" xlink:href="#l" y1="290.72" y2="324.233"/><linearGradient id="Q" gradientUnits="userSpaceOnUse" x1="2437.613" x2="2407.374" y1="400.188" y2="583.037"><stop offset="0" stop-color="#f7eccc"/><stop offset=".125" stop-color="#f4d8b2"/><stop offset=".25" stop-color="#f0c696"/><stop offset=".375" stop-color="#ecb07e"/><stop offset=".5" stop-color="#e89968"/><stop offset=".625" stop-color="#e3824c"/><stop offset=".75" stop-color="#de5731"/><stop offset=".875" stop-color="#d82b23"/><stop offset="1" stop-color="#d3001e"/></linearGradient><linearGradient id="R" gradientUnits="userSpaceOnUse" x1="1642.671" x2="1839.932" y1="526.58" y2="526.58"><stop offset="0" stop-color="#eeab75"/><stop offset=".063" stop-color="#e99964"/><stop offset=".125" stop-color="#e78952"/><stop offset=".188" stop-color="#e26d3b"/><stop offset=".25" stop-color="#dd492b"/><stop offset=".313" stop-color="#d62a21"/><stop offset=".375" stop-color="#c5251f"/><stop offset=".438" stop-color="#b3201c"/><stop offset=".5" stop-color="#a21b1a"/><stop offset=".563" stop-color="#941717"/><stop offset=".625" stop-color="#931617"/><stop offset=".688" stop-color="#961318"/><stop offset=".75" stop-color="#961318"/><stop offset=".813" stop-color="#9f0f1a"/><stop offset=".875" stop-color="#a40d1a"/><stop offset=".938" stop-color="#a90a1c"/><stop offset="1" stop-color="#ac081c"/></linearGradient><linearGradient id="S" gradientUnits="userSpaceOnUse" x1="1082.558" x2="1365.752" y1="1082.656" y2="1232.225"><stop offset="0" stop-color="#d92c23"/><stop offset=".25" stop-color="#c5251f"/><stop offset=".5" stop-color="#b1201d"/><stop offset=".75" stop-color="#a01b19"/><stop offset="1" stop-color="#911718"/></linearGradient><linearGradient id="T" gradientUnits="userSpaceOnUse" x1="2174.383" x2="2317.049" y1="91.858" y2="260.447"><stop offset="0" stop-color="#d92c23"/><stop offset=".031" stop-color="#d22920"/><stop offset=".063" stop-color="#cd2820"/><stop offset=".094" stop-color="#c7261f"/><stop offset=".125" stop-color="#c1241f"/><stop offset=".156" stop-color="#ba221d"/><stop offset=".188" stop-color="#b4201c"/><stop offset=".219" stop-color="#ae1f1b"/><stop offset=".25" stop-color="#a81e1a"/><stop offset=".281" stop-color="#a41c19"/><stop offset=".313" stop-color="#9e1a18"/><stop offset=".344" stop-color="#981817"/><stop offset=".375" stop-color="#941717"/><stop offset=".406" stop-color="#901718"/><stop offset=".438" stop-color="#921617"/><stop offset=".469" stop-color="#931617"/><stop offset=".5" stop-color="#941517"/><stop offset=".531" stop-color="#961518"/><stop offset=".563" stop-color="#961318"/><stop offset=".594" stop-color="#981218"/><stop offset=".625" stop-color="#9a1119"/><stop offset=".656" stop-color="#9b1119"/><stop offset=".688" stop-color="#9d0f19"/><stop offset=".719" stop-color="#9f0f1a"/><stop offset=".75" stop-color="#a10e1a"/><stop offset=".781" stop-color="#a30d1a"/><stop offset=".813" stop-color="#a40d1a"/><stop offset=".844" stop-color="#a50c1a"/><stop offset=".875" stop-color="#a60b1c"/><stop offset=".906" stop-color="#a90a1c"/><stop offset=".938" stop-color="#a9091c"/><stop offset=".969" stop-color="#ab091c"/><stop offset="1" stop-color="#ac081c"/></linearGradient><linearGradient id="U" gradientUnits="userSpaceOnUse" x1="956.019" x2="931.889" y1="869.593" y2="950.025"><stop offset="0" stop-color="#d4001f"/><stop offset=".125" stop-color="#d92d22"/><stop offset=".25" stop-color="#dd5832"/><stop offset=".375" stop-color="#e3824c"/><stop offset=".5" stop-color="#e89968"/><stop offset=".625" stop-color="#ecb17f"/><stop offset=".75" stop-color="#f1c799"/><stop offset=".875" stop-color="#f4d8b2"/><stop offset="1" stop-color="#f7ebcb"/></linearGradient><linearGradient id="V" gradientUnits="userSpaceOnUse" x1="1629.996" x2="1747.394" y1="953.357" y2="953.357"><stop offset="0" stop-color="#edaa75"/><stop offset=".063" stop-color="#e99964"/><stop offset=".125" stop-color="#e6874f"/><stop offset=".188" stop-color="#e16839"/><stop offset=".25" stop-color="#dd492b"/><stop offset=".313" stop-color="#d62a21"/><stop offset=".375" stop-color="#c5251f"/><stop offset=".438" stop-color="#b4201c"/><stop offset=".5" stop-color="#a31c19"/><stop offset=".563" stop-color="#931717"/><stop offset=".625" stop-color="#931617"/><stop offset=".688" stop-color="#961318"/><stop offset=".75" stop-color="#9a1119"/><stop offset=".813" stop-color="#9f0f1a"/><stop offset=".875" stop-color="#a40c1a"/><stop offset=".938" stop-color="#a90a1c"/><stop offset="1" stop-color="#ac081c"/></linearGradient><linearGradient id="W" gradientUnits="userSpaceOnUse" x1="1629.103" x2="1747.395" y1="1077.619" y2="1077.619"><stop offset="0" stop-color="#f7e9c8"/><stop offset=".25" stop-color="#f1c799"/><stop offset=".5" stop-color="#e99f6e"/><stop offset=".75" stop-color="#e16c3d"/><stop offset="1" stop-color="#d82c24"/></linearGradient><linearGradient id="X" gradientUnits="userSpaceOnUse" x1="1198.484" x2="1300.364" y1="1207.212" y2="1368.084"><stop offset="0" stop-color="#f7e9ab"/><stop offset=".031" stop-color="#f2e1a0"/><stop offset=".063" stop-color="#eed994"/><stop offset=".094" stop-color="#e8d289"/><stop offset=".125" stop-color="#e3c77c"/><stop offset=".156" stop-color="#dec071"/><stop offset=".188" stop-color="#d9b75e"/><stop offset=".219" stop-color="#d4ae4e"/><stop offset=".25" stop-color="#cfa43c"/><stop offset=".281" stop-color="#cc9c2f"/><stop offset=".313" stop-color="#c79421"/><stop offset=".344" stop-color="#c18b14"/><stop offset=".375" stop-color="#bd830b"/><stop offset=".406" stop-color="#c28d17"/><stop offset=".438" stop-color="#c99928"/><stop offset=".469" stop-color="#d0a53c"/><stop offset=".5" stop-color="#d8b355"/><stop offset=".531" stop-color="#ddbc6b"/><stop offset=".563" stop-color="#e4c97f"/><stop offset=".594" stop-color="#ead58d"/><stop offset=".625" stop-color="#f0e09e"/><stop offset=".656" stop-color="#f8eaad"/><stop offset=".688" stop-color="#f1e09e"/><stop offset=".719" stop-color="#ebd790"/><stop offset=".75" stop-color="#e6cd84"/><stop offset=".781" stop-color="#e1c478"/><stop offset=".813" stop-color="#dcbc69"/><stop offset=".844" stop-color="#d8b355"/><stop offset=".875" stop-color="#d1a842"/><stop offset=".906" stop-color="#cc9e31"/><stop offset=".938" stop-color="#c79522"/><stop offset=".969" stop-color="#c18c16"/><stop offset="1" stop-color="#bc830b"/></linearGradient><linearGradient id="Y" gradientUnits="userSpaceOnUse" x1="1129.987" x2="1171.243" y1="1032.805" y2="1138.634"><stop offset="0" stop-color="#f8eaad"/><stop offset=".25" stop-color="#e7d087"/><stop offset=".5" stop-color="#d9b75e"/><stop offset=".75" stop-color="#cc9c2f"/><stop offset="1" stop-color="#bd830b"/></linearGradient><linearGradient id="Z" gradientUnits="userSpaceOnUse" x1="940.216" x2="999.2" y1="1170.091" y2="1370.278"><stop offset="0" stop-color="#f8eaad"/><stop offset=".031" stop-color="#f2e1a0"/><stop offset=".063" stop-color="#eed994"/><stop offset=".094" stop-color="#e8d188"/><stop offset=".125" stop-color="#e3c87c"/><stop offset=".156" stop-color="#dec071"/><stop offset=".188" stop-color="#dab760"/><stop offset=".219" stop-color="#d4ae4e"/><stop offset=".25" stop-color="#d0a53c"/><stop offset=".281" stop-color="#cb9c2e"/><stop offset=".313" stop-color="#c59321"/><stop offset=".344" stop-color="#c18b14"/><stop offset=".375" stop-color="#bd830b"/><stop offset=".406" stop-color="#c28d17"/><stop offset=".438" stop-color="#c99928"/><stop offset=".469" stop-color="#d0a53c"/><stop offset=".5" stop-color="#d6b252"/><stop offset=".531" stop-color="#ddbc6b"/><stop offset=".563" stop-color="#e4c97d"/><stop offset=".594" stop-color="#ead58d"/><stop offset=".625" stop-color="#f0e09e"/><stop offset=".656" stop-color="#f8eaad"/><stop offset=".688" stop-color="#f1e09e"/><stop offset=".719" stop-color="#ebd790"/><stop offset=".75" stop-color="#e6cc83"/><stop offset=".781" stop-color="#e1c477"/><stop offset=".813" stop-color="#dcbb67"/><stop offset=".844" stop-color="#d8b355"/><stop offset=".875" stop-color="#d1a842"/><stop offset=".906" stop-color="#cc9e31"/><stop offset=".938" stop-color="#c79522"/><stop offset=".969" stop-color="#c18c16"/><stop offset="1" stop-color="#bd830b"/></linearGradient><linearGradient id="aa" gradientUnits="userSpaceOnUse" x1="1975.691" x2="1948.88" y1="1181.539" y2="1224.436"><stop offset="0" stop-color="#e5875d"/><stop offset=".25" stop-color="#e9a075"/><stop offset=".5" stop-color="#efbd8f"/><stop offset=".75" stop-color="#f3d3ad"/><stop offset="1" stop-color="#f7eac9"/></linearGradient><linearGradient id="ab" gradientUnits="userSpaceOnUse" x1="1889.312" x2="1949.717" y1="700.101" y2="758.752"><stop offset="0" stop-color="#eeab75"/><stop offset=".125" stop-color="#e78952"/><stop offset=".25" stop-color="#dd492b"/><stop offset=".375" stop-color="#c5251f"/><stop offset=".5" stop-color="#a31c19"/><stop offset=".625" stop-color="#931617"/><stop offset=".75" stop-color="#9a1119"/><stop offset=".875" stop-color="#a40c1a"/><stop offset="1" stop-color="#ac081c"/></linearGradient><linearGradient id="ac" gradientUnits="userSpaceOnUse" x1="1667.231" x2="1696.325" y1="849.451" y2="849.451"><stop offset="0" stop-color="#eda974"/><stop offset=".063" stop-color="#e99966"/><stop offset=".125" stop-color="#e6874f"/><stop offset=".188" stop-color="#e26a3a"/><stop offset=".25" stop-color="#dd472b"/><stop offset=".313" stop-color="#d62a21"/><stop offset=".375" stop-color="#c3251e"/><stop offset=".438" stop-color="#b2201c"/><stop offset=".5" stop-color="#a41c19"/><stop offset=".563" stop-color="#941817"/><stop offset=".625" stop-color="#931617"/><stop offset=".688" stop-color="#961318"/><stop offset=".75" stop-color="#9a1119"/><stop offset=".813" stop-color="#9f0f1a"/><stop offset=".875" stop-color="#a40d1a"/><stop offset=".938" stop-color="#a90a1c"/><stop offset="1" stop-color="#ac081c"/></linearGradient><linearGradient id="ad" gradientUnits="userSpaceOnUse" x1="2071.909" x2="2054.774" y1="1025.176" y2="1116.446"><stop offset="0" stop-color="#ab081c"/><stop offset=".063" stop-color="#a90a1c"/><stop offset=".125" stop-color="#a40d1a"/><stop offset=".188" stop-color="#9f0f1a"/><stop offset=".25" stop-color="#9a1119"/><stop offset=".313" stop-color="#961318"/><stop offset=".375" stop-color="#931617"/><stop offset=".438" stop-color="#941717"/><stop offset=".5" stop-color="#a21b1a"/><stop offset=".563" stop-color="#b2201c"/><stop offset=".625" stop-color="#c5251f"/><stop offset=".688" stop-color="#d62a21"/><stop offset=".75" stop-color="#dd492b"/><stop offset=".813" stop-color="#e26a3a"/><stop offset=".875" stop-color="#e78952"/><stop offset=".938" stop-color="#e99966"/><stop offset="1" stop-color="#eda974"/></linearGradient><linearGradient id="ae" gradientUnits="userSpaceOnUse" x1="1747.127" x2="1747.127" y1="996.318" y2="1074.963"><stop offset="0" stop-color="#e4855d"/><stop offset=".25" stop-color="#e9a075"/><stop offset=".5" stop-color="#efbd8f"/><stop offset=".75" stop-color="#f3d4ad"/><stop offset="1" stop-color="#f7ebcb"/></linearGradient><linearGradient id="af" gradientUnits="userSpaceOnUse" x1="1368.146" x2="1425.261" y1="1084.119" y2="1084.119"><stop offset="0" stop-color="#f7ebcb"/><stop offset="1" stop-color="#f8ebae"/></linearGradient><linearGradient id="ag" gradientUnits="userSpaceOnUse" x1="1171.462" x2="1242.957" y1="1082.673" y2="1118.42"><stop offset="0" stop-color="#ac081c"/><stop offset=".25" stop-color="#9d111b"/><stop offset=".5" stop-color="#8d161b"/><stop offset=".75" stop-color="#7b1b18"/><stop offset="1" stop-color="#691e17"/></linearGradient><linearGradient id="ah" gradientUnits="userSpaceOnUse" x1="1525.354" x2="1589.456" y1="947.872" y2="947.872"><stop offset="0" stop-color="#ac081c"/><stop offset=".5" stop-color="#8c161b"/><stop offset="1" stop-color="#691e17"/></linearGradient><linearGradient id="ai" gradientUnits="userSpaceOnUse" x1="1525.354" x2="1589.456" y1="987.885" y2="987.885"><stop offset="0" stop-color="#ac081c"/><stop offset=".25" stop-color="#9d111b"/><stop offset=".5" stop-color="#8d161b"/><stop offset=".75" stop-color="#7b1b19"/><stop offset="1" stop-color="#691e17"/></linearGradient><linearGradient id="aj" gradientUnits="userSpaceOnUse" x1="1447.075" x2="1450.65" y1="924.864" y2="944.525"><stop offset="0" stop-color="#691e17"/><stop offset=".25" stop-color="#7c1b18"/><stop offset=".5" stop-color="#8e161b"/><stop offset=".75" stop-color="#9d111b"/><stop offset="1" stop-color="#ac081c"/></linearGradient><linearGradient id="ak" gradientUnits="userSpaceOnUse" x1="1765.008" x2="1757.859" y1="878.514" y2="892.812"><stop offset="0" stop-color="#ac081c"/><stop offset=".25" stop-color="#9d0f1b"/><stop offset=".5" stop-color="#8e161b"/><stop offset=".75" stop-color="#7c1b18"/><stop offset="1" stop-color="#6a1e17"/></linearGradient><linearGradient id="al" gradientUnits="userSpaceOnUse" x1="1777.374" x2="1827.42" y1="954.209" y2="954.209"><stop offset="0" stop-color="#ac081c"/><stop offset=".5" stop-color="#8d161b"/><stop offset="1" stop-color="#691e17"/></linearGradient><path d="m414.509 501.684c-22.343 13.974-230.247 146.077-291.18 284.76-32.499 58.416-70.845 196.856-96.03 296.948-16.413 65.158-27.299 114.149-27.299 114.149l291.83-30.142c2.274-26.486 6.255-71.089 11.13-117.154 4.55-43.71 9.912-88.638 15.274-120.81 14.299-85.795 55.408-182.313 55.408-182.313s13.65-40.703 43.466-40.703c.894 0 1.706 0 2.6.081 18.198 1.462 21.448 12.268 20.96 21.123l5.363-1.95 147.377 214.487 12.35-.57z" fill="#ed1c24"/><path d="m682.372 587.651-1.383 9.33 1.383-.72z" fill="#f8e78f"/><path d="m361.773 415.316 103.83-54.109-89.53-42.41z" fill="url(#a)" transform="translate(319.216 181.667)"/><path d="m97.572 524.735c-29.655.31-43.227 40.72-43.227 40.72s-41.11 96.519-55.408 182.313c-14.3 85.794-28.355 262.5-28.355 262.5l19.418 29.41 21.448 1.22 25.023-32.174s5.606-155.258 23.48-251.776c8.043-43.466 11.05-75.476 58.74-198.642 0 0 13.486-31.036-18.2-33.473a33.485 33.485 0 0 0 -2.92-.098z" fill="url(#c)" transform="translate(319.216 181.667)"/><path d="m291.016 1177.367c-.418 5.06-1.217 14.568-1.217 14.568l1.217 1.842zm420.277-22.04c-1.238 24.617-1.463 38.396-1.463 38.396l1.463 1.809z" fill="#f8e78f"/><path d="m533.688 526.08c-33.138.393-52.81 29.138-52.81 29.138s-52.973 81.732-70.847 221.147c-17.873 139.415-19.417 235.691-19.417 235.691l24.781 30.629 17.873 1.788 39.323-32.174s14.299-196.61 28.598-275.255c14.299-78.644 57.195-175.165 57.195-175.165s13.65-34.284-21.448-35.747a56.238 56.238 0 0 0 -3.248-.052z" fill="url(#d)" transform="translate(319.216 181.667)"/><path d="m778.645 649.387-14.136 73.768 131.697 25.104 14.054-73.688z" fill="#f8e78f"/><path d="m241.91 633.897c-48.725 45.455-94.827 98.484-118.582 152.549-26.958 48.457-57.918 151.938-82.075 242.961z" fill="#f7e5b7"/><path d="m95.293 320.016c-13.635 8.528-96.356 61.166-172.632 132.334l-200.267 394.736c-4.945 18.636-10.034 37.634-14.312 54.637-16.411 65.158-27.298 114.15-27.298 114.15l159.225-16.445 196.94-388.18c9.554-26.373 17.476-45.794 17.476-45.794s7.252-21.124 22.456-32.915l59.774-117.817z" fill="url(#e)" transform="translate(319.216 181.667)"/><path d="m376.072 943.485-123.41 33.066 140.39-20.636c.244-3.98.488-8.124.813-12.43z" fill="url(#f)" transform="translate(319.216 181.667)"/><path d="m210.76 1219.727c27.784 1.457 50.738 1.7 66.745 1.591z" fill="#f7e5b7"/><path d="m-27.306 985.732-291.91 30.14s44.684 5.363 137.627 16.087 164.44 7.15 164.44 7.15l6.986.405-19.254-29.246s.81-9.262 2.11-24.536z" fill="url(#g)" transform="translate(319.216 181.667)"/><path d="m291.91 1167.4-131.108 13.536 129.679 3.072c.332-3.822.549-6.27 1.429-16.609z" fill="#ed1c24"/><path d="m1212.458 1193.873-430.86 8.446-29.114 23.82s121.543-3.574 282.406-14.298c62.831-4.195 125.005-11.102 177.568-17.968z" fill="#f7e5b7"/><path d="m672.964 958.294-196.417 3.848c-2.364 29.084-3.956 50.157-3.956 50.157l-10.11 8.27 431.151-8.448c43.86-5.738 81.29-11.444 106.234-15.503-1.706-2.844-4.469-7.635-8.206-14.054z" fill="url(#h)" transform="translate(319.216 181.667)"/><path d="m799.85 1125.314-3.413 10.074c-.285 3.459-.414 5.227-.677 8.462l196.807-3.86z" fill="#ed1c24"/><path d="m355.443 1225.814c33.521 3.984 96.853 9.882 162.895 7.475 66.244-2.453 140.977-5.649 182.883-7.475z" fill="#f7e5b7"/><path d="m393.053 955.915-140.392 20.637-240.401 64.427c2.492.385 11.183 1.651 24.164 3.191h345.043c19.432-.846 33.928-1.485 33.928-1.485l-24.781-30.629s.327-20.475 2.44-56.141z" fill="url(#i)" transform="translate(319.216 181.667)"/><path d="m712.27 1137.582-140.393 20.637-22.125 5.93h161.122c.346-7.587.792-16.377 1.395-26.567z" fill="#ed1c24"/><path d="m252.661 976.552-216.108 31.765-.083.408-25.022 32.172s.324 0 .812.082z" fill="url(#j)" transform="translate(319.216 181.667)"/><path d="m464.395 1187.023-127.31 27.285-6.42 8.256s.324 0 .81.082z" fill="#f7e5b7"/><path d="m463.225 1174.19-107.456 15.794-.083.408-6.387 8.214z" fill="#ef322b"/><path d="m97.324 318.799s-.73.405-2.03 1.217l191.246 437.908 83.602-3.576 4.873-27.54 14.462-241.784-37.535-88.476 13.162-3.656 10.968-74.093z" fill="url(#k)" transform="translate(319.216 181.667)"/><path d="m416.54 500.466s-.73.405-2.03 1.217l12.363 28.308 127.905-29.525z" fill="#f7e5b7"/><path d="m706.73 699.508-186.976 43.157 86.002 196.926 83.602-3.576 4.874-27.54z" fill="#ed1c24"/><path d="m693.006 825.925c-1.137 0-2.274-.244-3.33-.813-3.17-1.787-4.388-5.768-2.682-8.855 1.138-2.113 3.331-3.25 5.606-3.25 1.138 0 2.275.325 3.331.893 3.169 1.788 4.387 5.769 2.681 8.775-1.137 2.112-3.33 3.25-5.606 3.25m-158.02-500.79-1.543.812-67.84 35.342-29.41 15.273-24.373 12.675 7.15 71.657-45.58 292.236 1.625-26.323-4.874 27.541 30.06-1.218 13 1.625c20.229-126.173 67.676-199.536 67.676-199.536s20.067-29.167 53.62-29.167c.813 0 1.626 0 2.52.081 35.016 1.463 21.367 35.748 21.367 35.748s-42.897 96.518-57.196 175.081c-3.331 18.443-6.662 43.222-9.75 70.52a4424.49 4424.49 0 0 0 -2.193 19.093l18.198 36.397-26.81 80.676 501.52 38.185c-1.218-2.275-2.6-4.631-3.98-7.069a7893.532 7893.532 0 0 0 -19.743-34.447l-.081-.082c-1.056-.65-1.625-1.706-1.544-2.843-72.226-126.173-214.078-370.637-289.392-470.405v-.081.081c-4.143-5.443-8.043-10.48-11.699-15.03-.244-.325-.569-.65-.812-.975-43.466-53.134-84.413-94.324-119.917-125.847" fill="url(#m)" transform="translate(319.216 181.667)"/><path d="m721.323 750.675-28.717 184.12 1.626-26.32-4.874 27.54 30.06-1.22 13 1.626c11.683-72.864 32.406-127.978 47.863-161.66zm131.971 53.914c-12.25 33.521-25.94 75.863-32.89 114.04-3.33 18.442-6.66 43.222-9.748 70.52a4423.01 4423.01 0 0 0 -2.194 19.092l18.198 36.398-26.81 80.675 501.52 38.186c-1.219-2.275-2.598-4.632-3.979-7.07a7899.732 7899.732 0 0 0 -19.743-34.447l-.082-.08c-1.057-.65-1.624-1.707-1.543-2.845-28.16-49.194-66.938-116.398-108.197-185.97z" fill="#ed1c24"/><path d="m731.035 570.903-50.046 26.081 3.331-22.425-13.162 3.656 37.535 88.476-16.087 268.105 45.579-292.236z" fill="#ef322b"/><path d="m489.246 826.574c-4.306 39.728-8.206 82.462-11.13 116.91-.326 3.493-.57 6.906-.895 10.237l3.413-10.074 26.81-80.595z" fill="url(#n)" transform="translate(319.216 181.667)"/><path d="m317.74 935.198-279.32 33.961c-.649 11.78-1.136 21.448-1.461 28.273z" fill="url(#o)" transform="translate(319.216 181.667)"/><path d="m126.734 544.007-5.281 2.03c-.325 6.582-2.762 12.269-2.762 12.269-47.691 123.166-50.697 155.176-58.741 198.642-12.268 66.133-18.686 159.727-21.53 212.21l279.318-33.96-280.78 62.233c-.244 5.93-.406 9.75-.406 10.887l216.11-31.767 123.41-33.066h17.792c2.6-41.353 7.475-99.118 16.168-167.12a764.973 764.973 0 0 1 3.168-21.61l-12.999-1.625-30.06 1.218-83.6 3.575-12.35.569z" fill="url(#p)" transform="translate(319.216 181.667)"/><path d="m399.616 848.418c-12.454 41.309-15.54 63.673-20.448 90.197-.953 5.136-1.858 10.485-2.741 15.921zm6.217-19.763a916.838 916.838 0 0 0 -6.08 19.298l-23.435 107.27a996.084 996.084 0 0 0 -3.876 26.283z" fill="#f78d5f"/><path d="m719.419 934.796-4.36.175-42.911 196.381 23.14-6.201h17.793c2.6-41.354 7.476-99.118 16.17-167.12a764.959 764.959 0 0 1 3.167-21.61z" fill="#b12124"/><path d="m637 1116.854-67.965 8.27 1.054 6.561zm-201.019-204.109c-1.076.015-1.83.294-2.217.848-.592.822-.315 2.208.69 4.03.106.192.212.384.334.584l3.645-5.177c-.23-.045-.446-.084-.661-.12-.62-.102-1.19-.165-1.685-.165z" fill="#f78d5f"/><path d="m119.212 731.388-3.62 5.14c4.415 7.329 19.548 21.008 39.008 34.718 25.023 17.55 47.69 28.519 50.534 24.456s-15.111-21.61-40.134-39.24c-19.472-13.719-37.422-23.365-45.788-25.074z" fill="url(#q)" transform="translate(319.216 181.667)"/><path d="m695.288 107.243 30.386 316.365s32.579 10.724 80.838 45.09l223.747-86.931c-35.098-55.084-68.246-104.724-91.888-135.11-42.653-54.839-93.106-88.23-136.978-108.542l-68.326-24.048a190.821 190.821 0 0 0 -8.043-1.95c-18.442-4.062-29.736-4.874-29.736-4.874z" fill="#ed1c24"/><path d="m801.393 138.115c43.872 20.311 94.325 53.703 136.978 108.543 81 104.074 273.469 434.331 273.469 434.331s13.893-121.46 68.001-254.213l-180.606-183.693z" fill="#f8e78f"/><path d="m522.404-21.762c32.777 20.272 66.692 48.1 96.754 86.752 81 104.074 273.467 434.332 273.467 434.332s13.895-121.458 68.003-254.211l-180.606-183.695-236.017-83.178z" fill="url(#r)" transform="translate(319.216 181.667)"/><path d="m1769.783 271.296 2.967 87.315.325 9.589 40.055 18.28-.732-3.981-1.012-107.317z" fill="#f8e78f"/><path d="m1441.348-181.667 9.22 271.33 41.602 3.886-.776-82.179 86.282 21.529-.488-68.001z" fill="url(#s)" transform="translate(319.216 181.667)"/><path d="m1491.4 203.674v50.697s-67.028 41.597-114.069 76.207c-47.121 34.691-101.717 87.419-101.717 87.419l-49.64-63.046-3.736-5.198a525.212 525.212 0 0 0 -6.419 7.475c-9.749 11.699-19.5 24.048-29.006 37.21-6.662 9.18-13.24 18.765-19.74 28.677l57.601 61.909s-28.437 35.26-53.054 82.625c-24.698 47.365-30.06 79.538-30.06 79.538l-62.314 2.193a651.237 651.237 0 0 0 -2.436 16.901l74.094 80.106-46.633-10.48-27.298 93.349c2.356 19.092 5.28 37.048 8.611 53.785 13.893 70.926 33.796 118.696 37.127 126.333.082 0 .082.082.082.082.081.082.08.243.08.243.082.162.082.244.163.325 0 0 .082.082.082.163l11.291-2.602c-1.38-25.754-2.436-73.932 4.876-120.403 10.724-67.92 17.955-103.748 17.955-103.748l14.705 1.3c.893-4.794 1.787-9.669 2.762-14.462 3.575-17.468 7.8-35.422 12.919-53.54-5.85-.731-9.018-1.137-9.018-1.137s10.723-46.473 39.32-107.244c28.599-60.77 42.98-78.644 42.98-78.644s5.931-.568 16.087-1.462c14.786-20.474 29.736-39.728 44.685-57.927-3.575.488-6.745.894-9.263 1.3l-3.411-4.876c7.23-11.943 26.078-40.947 55.976-73.12-31.442 29.98-55.816 55.165-55.816 55.165l-8.04-6.66s50.857-58.984 96.273-99.524c45.334-40.46 91.4-73.446 91.4-73.446l17.386 12.106s-31.197 18.28-70.194 49.314c56.464-43.303 82.22-54.676 82.22-54.676s6.5-2.68 20.31-6.418c25.187-17.386 40.458-25.755 40.458-25.755zm-234.552 305.48 5.361 3.982s-4.063 8.043-26.16 46.552c-22.18 38.348-51.592 91.48-51.592 91.48s17.388-42.814 40.38-89.692c22.91-46.878 32.01-52.322 32.01-52.322z" fill="url(#t)" transform="translate(319.216 181.667)"/><path d="m1812.138 354.77.26 27.729.732 3.981 85.062 38.915-.082-12.593-.261-42.708z" fill="#f8e78f"/><path d="m1491.394 11.37 1.527 161.784 85.71 15.324-.955-155.58z" fill="url(#u)" transform="translate(319.216 181.667)"/><path d="m1440.964 1188.762c.317.751.757 1.817.958 2.279.082 0 .082.08.082.08.081.082.08.245.08.245.082.163.082.242.163.323 0 0 .083.082.083.163l11.291-2.599c0-.117-.01-.27-.02-.387z" fill="#ae741e"/><path d="m1453.86 186.532c-.083 0-.164 0-.326.08a6.522 6.522 0 0 1 -.894.244c-.082.082-.162.082-.162.082-12.837 3.9-110.087 36.072-208.473 138.765-1.706 1.869-3.493 3.656-5.2 5.525a633.542 633.542 0 0 0 -16.574 18.524l3.738 5.199 49.64 63.046s54.596-52.728 101.718-87.42c47.04-34.61 114.067-76.207 114.067-76.207v-50.696z" fill="url(#v)" transform="translate(319.216 181.667)"/><path d="m1810.61 385.34v50.698s-67.027 41.597-114.068 76.207c-5.628 4.144-11.363 8.557-17.1 13.095l35.67.292c.498-.447 1.002-.921 1.499-1.364 45.334-40.46 91.4-73.443 91.4-73.443l17.387 12.105s-31.198 18.28-70.195 49.315c56.465-43.303 82.217-54.679 82.217-54.679s6.5-2.68 20.312-6.418c25.185-17.386 40.46-25.753 40.46-25.753z" fill="#fae68f"/><path d="m1809.88 385.007v51.49c.034-.02.73-.46.73-.46v-50.696z" fill="#b36f1e"/><path d="m1256.843 509.154s-9.1 5.442-32.011 52.32c-22.992 46.878-40.38 89.694-40.38 89.694s29.411-53.132 51.59-91.48c22.1-38.51 26.162-46.555 26.162-46.555z" fill="url(#w)" transform="translate(319.216 181.667)"/><path d="m1581.338 694.738v.22c.01-.006.082-.158.082-.158z" fill="#b36f1e"/><path d="m1461.074 827.272-49.9 3.328 49.597-1.746s.095-.552.303-1.582z" fill="#eecf66"/><path d="m1213.817 499.467-92.268 6.15c-21.732 48.4-35.019 96.924-42.31 143.763l13.797-.49 48.809-3.243c1.385-6.897 8.198-36.644 29.688-77.993 15.191-29.133 31.752-53.6 42.284-68.187z" fill="url(#x)" transform="translate(319.216 181.667)"/><path d="m1486.364 604.782c-7.637 11.78-15.193 23.966-22.505 36.884a543.395 543.395 0 0 0 -23.112 45.62l92.276-6.154c6.61-9.156 10.862-14.441 10.862-14.441z" fill="#b36f1e"/><path d="m1072.174 728.675c-.975 35.666 1.056 69.545 4.793 100.58l27.298-93.35z" fill="url(#y)" transform="translate(319.216 181.667)"/><path d="m1391.308 913.68a660.54 660.54 0 0 0 0 29.156z" fill="#eecf66"/><path d="m1396.02 847.947a629.284 629.284 0 0 0 -4.55 56.627c-.08 1.95-.08 3.818-.08 5.768l32.091 7.23 46.635 10.481-74.095-80.106" fill="#fae68f"/><path d="m1488.795 269.158s-46.066 32.986-91.4 73.445c-45.416 40.541-96.276 99.524-96.276 99.524l8.043 6.661s24.375-25.185 55.816-55.165c14.055-15.192 30.628-31.115 49.558-46.227 7.637-6.093 14.705-11.7 21.448-16.818 38.997-31.035 70.198-49.315 70.198-49.315z" fill="url(#z)" transform="translate(319.216 181.667)"/><path d="m1401.739 1048.194-2.855.894 5.911 15.617a709.165 709.165 0 0 1 -3.056-16.51zm-32.69 10.217-108.41 33.876 36.752 64.144 46.716-42.003z" fill="#f78d5f"/><path d="m1072.557 775.484-177.258 55.392a15046.87 15046.87 0 0 1 46.129 79.757l141.097-44.093a754.064 754.064 0 0 1 -5.558-37.284 749.566 749.566 0 0 1 -4.41-53.772z" fill="url(#A)" transform="translate(319.216 181.667)"/><path d="m1336.063 420.034-71.171 45.901c-41.76 116.586-53.051 215.054-53.051 215.054s-32.906-56.627-77.347-130.234l-147.864 97.817v.083c57.447 76.1 153.432 236.114 227.877 363.877l177.266-55.392c-.068-1.47-.163-2.913-.222-4.39-3.494-93.675 11.619-204.168 72.308-311.085 13.487-23.804 27.623-45.576 42.165-65.562 9.506-13.161 19.257-25.513 29.006-37.212l-112.362-32.09c18.605 12.998 39.16 22.991 61.014 29.49l25.35 16.493c-59.552-10.318-113.173-44.685-147.133-95.787l21.123 13.73c9.261 10.887 19.58 20.799 30.79 29.492z" fill="#b12124"/><path d="m1441.348-181.667s-219.766 75.15-354.143 219.521l28.923 28.844 42.674 66.882 289.143-121.427z" fill="url(#B)" transform="translate(319.216 181.667)"/><path d="m1760.564 0s-160.756 54.986-291.36 161.223l292.663-122.936z" fill="#f7e5b7"/><path d="m1087.204 37.855c-6.013 6.5-11.943 13.161-17.55 19.986-47.69 56.87-82.95 123.41-109.029 187.268-5.362 13.243-10.318 26.323-14.949 39.16l71.17-45.903 77.75 80.188a226.938 226.938 0 0 0 8.857 6.58l112.36 32.092a525.185 525.185 0 0 1 6.418-7.474 633.5 633.5 0 0 1 16.575-18.524l-61.096-168.013-61.583-96.518z" fill="url(#C)" transform="translate(319.216 181.667)"/><path d="m1767.16 193.82-289.142 121.427 18.909 29.634 61.094 168.015c1.706-1.868 3.495-3.658 5.201-5.526 1.3-1.382 2.681-2.761 4.062-4.142l5.442-16.17-8.692 10.726c16.655-58.09 56.627-107.73 111.06-135.922l-15.924 19.417c-18.28 12.512-34.446 27.704-47.932 45.09l33.147-33.228 77.75-58.903h49.803z" fill="#ed1c24"/><path d="m695.288 107.242 24.557 255.679 31.62-242.378-18.399-6.475a190.87 190.87 0 0 0 -8.043-1.95c-18.442-4.063-29.735-4.876-29.735-4.876z" fill="#f7e5b7"/><path d="m432.27-61.116-31.64 242.366 5.829 60.69s32.579 10.723 80.837 45.09l91.313-35.455 26.546-203.51c-39.42-44.923-83.818-73.488-122.977-91.617z" fill="url(#D)" transform="translate(319.216 181.667)"/><path d="m711.042 200.1-223.746 86.932c14.624 10.399 30.629 22.991 47.69 38.103 35.504 31.522 76.451 72.714 119.917 125.847.325.325.568.65.812.975 3.656 4.55 7.556 9.587 11.7 15.03v-.081l147.864-97.818c-31.523-52.402-68.814-113.417-104.237-168.988z" fill="url(#E)" transform="translate(319.216 181.667)"/><path d="m1001.686 392.875-7.793 3.031-.315.122-.01.005-89.32 34.724c-2.763 4.305-7.558 6.663-12.514 6.663-1.218 0-2.437-.165-3.656-.408l-81.569 31.685a530.342 530.342 0 0 1 21.896 16.472c.01.005.015.015.025.02.298.236.591.461.891.7z" fill="#f78d5f"/><path d="m1128.706 541.153-159.189 85.928c1.533 1.852 3.062 3.685 4.602 5.568.325.325.567.651.811.976 3.656 4.55 7.556 9.587 11.7 15.03v-.082l147.864-97.818c-1.889-3.14-3.859-6.403-5.788-9.602z" fill="#b12124"/><path d="m1359.786 1134.495c-2.6 0-5.281-.65-7.719-2.031-7.474-4.143-10.318-13.405-6.337-20.555 2.681-4.874 7.8-7.556 13.08-7.556 2.6 0 5.282.65 7.8 2.032 7.475 4.143 10.318 13.405 6.337 20.554-2.762 4.875-7.8 7.556-13.161 7.556m27.298-116.585-42.979 96.518-46.715 42.003c1.381 2.437 2.762 4.793 3.98 7.068 8.694 15.193 14.787 25.999 17.712 30.792.244.406 5.037.65 12.755.65 19.743 0 58.009-1.138 83.926-1.95 11.862-.325 21.123-.65 24.86-.812l1.707-.325c0-.082-.082-.163-.082-.163-.082-.082-.082-.162-.163-.325 0 0 0-.162-.08-.243 0 0 0-.081-.083-.081-3.33-7.637-23.236-55.41-37.128-126.335l-17.712-46.797" fill="#f8e78f"/><path d="m1067.868 836.242v.003zm-.001.002-42.977 96.517-46.716 42.003c1.381 2.437 2.762 4.794 3.98 7.068 8.694 15.193 14.787 25.998 17.712 30.792.244.406 5.037.65 12.755.65 19.743 0 58.009-1.138 83.926-1.95 11.861-.325 21.123-.65 24.86-.813l1.706-.325c0-.082-.082-.162-.082-.162-.082-.082-.082-.163-.162-.325 0 0 0-.163-.081-.244 0 0 0-.08-.082-.08-3.331-7.637-23.236-55.41-37.129-126.335z" fill="url(#F)" transform="translate(319.216 181.667)"/><path d="m1387.083 1017.91-42.976 96.518-8.315 7.475h82.545a750.457 750.457 0 0 1 -13.542-57.195z" fill="#ed1c24"/><path d="m1406.42 219.521c-6.011 6.5-11.943 13.162-17.549 19.986-8.53 10.173-16.655 20.66-24.41 31.38-.226.314-.455.627-.681.941l112.559 40.783-.907-1.42-.08-.127-40.005-62.7z" fill="#f78d5f"/><path d="m1272.026 446.688a1164.06 1164.06 0 0 0 -7.134 19.247l21.675-13.978zm138.562 50.207 3.225 3.325a226.994 226.994 0 0 0 8.855 6.581l72.078 20.585z" fill="#b12124"/><path d="m1593.112 453.802a216.003 216.003 0 0 0 -10.066 20.582l-8.858 10.889-6.904 17.955a622.991 622.991 0 0 1 13.994-13.909z" fill="#f8e78f"/><path d="m1402.92 152.572-77.752 58.902-33.148 33.229a215.333 215.333 0 0 0 -28.191 48.016l-8.856 10.886-6.906 17.955c96.924-99.443 191.737-130.722 204.41-134.622 0 0 .083 0 .164-.081.406-.082.65-.163.893-.244a.616.616 0 0 1 .325-.08l-.325-9.506-.812-24.455z" fill="url(#G)" transform="translate(319.216 181.667)"/><path d="m1722.135 334.238-74.435 56.392-19.239 57.707c72.578-56.681 133.271-76.667 143.232-79.732 0 0 .082 0 .162-.082.406-.082.65-.162.894-.243.163-.081.244-.08.326-.08l-.326-9.506-.81-24.456z" fill="#b12124"/><path d="m165.325 939.016c0-117.885 94.406-213.428 210.747-213.428 14.3 0 28.273 1.462 41.76 4.224l.244-8.449a223.144 223.144 0 0 0 -42.003-3.981c-122.354 0-221.635 99.2-221.635 221.634 0 19.905 2.681 39.241 7.637 57.603l10.4-2.356a217.26 217.26 0 0 1 -7.15-55.247" fill="url(#H)" transform="translate(319.216 181.667)"/><path d="m474.222 1104.889a224.728 224.728 0 0 0 -.569 15.795c0 5.29.198 10.538.569 15.74z" fill="#f78d5f"/><path d="m475.604 1091.249a222.576 222.576 0 0 0 -1.462 14.898v29.176c.327 4.93.815 9.82 1.462 14.659z" fill="#f78d5f"/><path d="m501.269 753.291-1.948 10.157c46.877 39.16 76.775 98.467 76.775 164.843 0 7.8-.407 15.52-1.22 23.156l10.726 1.543c.894-8.125 1.38-16.33 1.38-24.699 0-71.17-33.555-134.459-85.713-175z" fill="url(#I)" transform="translate(319.216 181.667)"/><path d="m905.792 1096.44v26.77c.265-4.38.406-8.792.406-13.252 0-4.54-.137-9.046-.406-13.518z" fill="#f3624d"/><path d="m1361.899 456.998c33.96 51.103 87.58 85.47 147.133 95.787l-25.35-16.492c-21.855-6.5-42.41-16.493-61.014-29.492l-3.494-.974-5.361-5.607c-11.212-8.693-21.53-18.605-30.791-29.492z" fill="#ef322b"/><path d="m1413.813 500.22 5.361 5.607 3.494.974a226.994 226.994 0 0 1 -8.855-6.58z" fill="#ef322b"/><path d="m1263.991 280.37-3.087 3.493-7.393 21.53 1.462-1.788z" fill="url(#J)" transform="translate(319.216 181.667)"/><path d="m1675.094 361.862a219.738 219.738 0 0 0 -33.51 21.41v11.433a214.75 214.75 0 0 1 17.586-13.426z" fill="#f0ae30" fill-rule="evenodd"/><path d="m1611.237 426.37-23.155 23.155-4.875 12.511-9.018 23.236 8.856-10.887a215.332 215.332 0 0 1 28.192-48.015" fill="#f0dd99"/><path d="m890.762 407.277c-5.362 0-10.398 2.68-13.08 7.556-3.98 7.149-1.22 16.41 6.336 20.554 1.3.731 2.681 1.3 4.062 1.625l16.17-6.255c.243-.325.405-.57.568-.894 3.981-7.231 1.218-16.41-6.338-20.635-2.437-1.38-5.118-1.95-7.718-1.95z" fill="#f3c696"/><path d="m892.062 421.901c-2.112 0-3.98.976-5.037 2.844-1.462 2.762-.325 6.337 2.68 8.043 1.057.569 2.195.894 3.332.894 2.031 0 3.981-1.056 5.037-2.844 1.544-2.762.325-6.418-2.762-8.043-1.056-.65-2.112-.894-3.25-.894z" fill="#da2f23"/><path d="m1184.135 713.08c-.568 0-1.218-.08-1.787-.405-1.787-.975-2.437-3.087-1.544-4.631.57-1.056 1.625-1.544 2.844-1.544.569 0 1.219.163 1.787.488 1.788.975 2.438 2.925 1.544 4.468-.569 1.056-1.625 1.625-2.844 1.625m-1.218-14.949c-3.006 0-5.931 1.544-7.475 4.306-2.193 4.062-.65 9.262 3.575 11.7 1.462.73 2.925 1.137 4.387 1.137 3.006 0 5.931-1.544 7.393-4.306 2.275-4.062.732-9.343-3.574-11.7-1.381-.73-2.844-1.137-4.306-1.137" fill="#f1c99c"/><path d="m1183.649 706.5c-1.219 0-2.276.488-2.845 1.545-.894 1.543-.243 3.655 1.545 4.63.569.325 1.217.405 1.785.405 1.22 0 2.277-.569 2.845-1.625.894-1.544.243-3.492-1.545-4.467a3.698 3.698 0 0 0 -1.785-.489z" fill="#ef322b"/><path d="m1358.81 1104.353c-5.28 0-10.399 2.681-13.08 7.556-3.98 7.15-1.137 16.411 6.337 20.555a15.673 15.673 0 0 0 7.719 2.031c5.362 0 10.399-2.68 13.161-7.556 3.981-7.149 1.138-16.41-6.337-20.554-2.518-1.381-5.2-2.032-7.8-2.032zm1.382 14.624c1.056 0 2.193.325 3.168.894 3.088 1.706 4.306 5.28 2.762 8.043-1.056 1.787-3.005 2.844-5.037 2.844a6.65 6.65 0 0 1 -3.25-.813c-3.005-1.706-4.224-5.362-2.68-8.124.974-1.787 2.925-2.844 5.037-2.844z" fill="#f3c899"/><path d="m1035.895 940.236c-1.475 2.752-.253 6.354 2.723 8.044a6.653 6.653 0 0 0 3.25.81c2.032 0 3.983-1.057 5.04-2.844 1.067-1.91.812-4.209-.468-6.01z" fill="url(#K)" transform="translate(319.216 181.667)"/><path d="m1360.19 1118.978c-2.112 0-4.06 1.055-5.035 2.842-.015.025-.03.056-.045.083h10.545a6.89 6.89 0 0 0 -2.295-2.03c-.974-.57-2.113-.895-3.17-.895z" fill="#ef322b"/><path d="m1276.023 1119.059c-.081 1.137.487 2.193 1.543 2.843l.082.082c-.488-.975-1.056-1.95-1.625-2.925z" fill="#f6d4a9"/><path d="m1278.866 1116.621c-1.056 0-2.031.488-2.519 1.382-.162.325-.324.73-.324 1.055.569.975 1.137 1.95 1.625 2.925.487.163.893.244 1.3.244 1.055 0 2.03-.487 2.518-1.38.731-1.382.163-3.088-1.219-3.9-.406-.244-.975-.326-1.38-.326z" fill="#f8e0ba"/><path d="m1278.997 1119.384c-.32.01-.706.173-.863.488-.325.488-.08 1.218.488 1.543.163.081.406.163.569.163.406 0 .814-.244.976-.568.325-.488.081-1.22-.488-1.463-.244-.162-.407-.163-.651-.163h-.03z" fill="#f78d5f"/><path d="m1391.796 424.258c-2.843 0-5.687 1.462-7.15 4.062-2.112 3.9-.568 8.856 3.494 11.131 1.3.731 2.76 1.137 4.142 1.137 2.844 0 5.607-1.463 7.07-4.144 2.193-3.9.65-8.857-3.331-11.131a8.801 8.801 0 0 0 -4.225-1.055z" fill="#f2cfa2"/><path d="m1392.422 432.139c-1.097.035-2.104.598-2.577 1.543-.893 1.543-.242 3.493 1.383 4.387a3.698 3.698 0 0 0 1.785.488c1.138 0 2.113-.57 2.682-1.545.894-1.543.163-3.493-1.462-4.387-.569-.325-1.137-.486-1.706-.486h-.106z" fill="#ef322b"/><path d="m1452.242 324.978c-2.356 0-4.712 1.217-5.85 3.41-1.868 3.25-.569 7.396 2.762 9.183 1.138.65 2.356.892 3.494.892 2.437 0 4.712-1.219 5.85-3.331 1.787-3.25.567-7.392-2.845-9.26-1.056-.65-2.273-.894-3.41-.894z" fill="#ea985f"/><path d="m1452.81 331.558c-.975 0-1.787.406-2.275 1.219-.65 1.3-.082 2.843 1.219 3.656.487.243.975.406 1.462.406.894 0 1.788-.487 2.275-1.3.65-1.218.163-2.844-1.218-3.575-.488-.325-.975-.406-1.463-.406z" fill="#db3b22"/><path d="m1449.397 428.077c-3.006 0-5.931 1.543-7.475 4.305-2.356 4.143-.648 9.425 3.576 11.862 1.463.731 3.005 1.137 4.468 1.137 3.087 0 6.014-1.542 7.557-4.305 2.275-4.143.65-9.506-3.656-11.862-1.38-.812-2.926-1.137-4.47-1.137z" fill="#b32f14"/><path d="m1450.21 436.444c-1.218 0-2.355.569-2.924 1.625-.894 1.625-.163 3.737 1.625 4.712.568.325 1.218.406 1.787.406 1.219 0 2.356-.569 2.925-1.625.812-1.543.162-3.574-1.544-4.63a3.774 3.774 0 0 0 -1.869-.488z" fill="#b6041c"/><path d="m244.14 1063.894a10.199 10.199 0 0 0 -8.857 5.118c-2.763 4.875-.811 11.13 4.307 13.974 1.625.893 3.411 1.382 5.199 1.382 3.574 0 7.067-1.869 8.854-5.119 2.681-4.874.813-11.13-4.224-13.973-1.706-.894-3.492-1.382-5.279-1.382z" fill="#f3c899"/><path d="m245.032 1073.805c-1.382 0-2.68.732-3.411 1.951-.975 1.869-.163 4.304 1.868 5.442.65.406 1.462.57 2.194.57 1.38 0 2.68-.651 3.33-1.87 1.056-1.869.244-4.306-1.788-5.524-.731-.325-1.462-.569-2.193-.569z" fill="#ef322b"/><path d="m312.221 798.305c-2.356 0-4.55 1.22-5.687 3.25-1.706 3.17-.487 7.15 2.762 8.938 1.057.569 2.193.894 3.33.894 2.357 0 4.47-1.22 5.608-3.25 1.787-3.169.568-7.149-2.682-8.855-1.056-.65-2.193-.977-3.33-.977z" fill="#f4d1a4"/><path d="m312.707 804.643c-.86.03-1.639.512-2.111 1.22-.65 1.219-.08 2.762 1.22 3.493.406.244.894.406 1.382.406.894 0 1.706-.488 2.194-1.3.568-1.137.08-2.763-1.22-3.413a2.744 2.744 0 0 0 -1.382-.406z" fill="#dd4a2c"/><path d="m536.213 638.013c-2.031 0-3.983 1.055-5.039 2.842-1.543 2.844-.404 6.336 2.44 7.96.893.488 1.95.732 2.924.732 2.031 0 3.98-.974 5.036-2.842 1.544-2.763.487-6.339-2.356-7.964a6.81 6.81 0 0 0 -3.005-.728z" fill="#f4d2a6"/><path d="m536.742 643.617h-.038c-.787.025-1.559.427-1.874 1.057-.65 1.056-.16 2.519.977 3.087.407.244.812.406 1.3.406.73 0 1.543-.405 1.868-1.137.569-1.056.163-2.437-.974-3.087a2.298 2.298 0 0 0 -1.22-.326z" fill="#ef322b"/><path d="m1011.817 994.673c-2.275 0-4.47 1.138-5.607 3.25-1.706 3.088-.487 7.068 2.682 8.855 1.056.57 2.193.814 3.33.814 2.275 0 4.47-1.138 5.607-3.25 1.706-3.006.487-6.987-2.682-8.775-1.056-.569-2.193-.894-3.33-.894z" fill="#f4cb9c"/><path d="m1012.385 1000.929c-.893 0-1.707.488-2.113 1.22-.732 1.218-.16 2.761 1.14 3.492.405.244.891.406 1.379.406.894 0 1.707-.486 2.113-1.217.732-1.219.16-2.765-1.139-3.496-.406-.243-.892-.405-1.38-.405z" fill="#ef322b"/><path d="m1465.404 411.582c-2.356 0-4.712 1.22-5.85 3.333-1.787 3.25-.569 7.392 2.762 9.26 1.138.65 2.356.975 3.494.975 2.437 0 4.711-1.217 5.93-3.41 1.706-3.25.489-7.395-2.843-9.264-1.137-.65-2.355-.894-3.493-.894z" fill="#ba3d16"/><path d="m1465.972 418.164c-.894 0-1.787.407-2.275 1.3-.65 1.219-.082 2.844 1.219 3.575.487.243.975.406 1.462.406.975 0 1.869-.487 2.275-1.3.65-1.218.162-2.843-1.22-3.655-.405-.244-.973-.326-1.461-.326z" fill="#b2081a"/><path d="m1496.764 386.64c-2.112 0-3.982 1.057-5.038 2.925-1.544 2.763-.486 6.339 2.439 7.964.893.487 1.95.73 2.925.73 2.03 0 4.062-1.055 5.118-2.924 1.544-2.762.404-6.337-2.44-7.88a5.981 5.981 0 0 0 -3.004-.815z" fill="#d75023"/><path d="m1497.25 392.247c-.73 0-1.543.406-1.868 1.138-.65 1.056-.162 2.437.975 3.087.406.243.813.325 1.219.325.812 0 1.543-.325 1.95-1.056.65-1.056.162-2.437-.975-3.169-.406-.162-.813-.325-1.3-.325z" fill="#cc0b1d"/><path d="m1533.73 247.796c-2.355 0-4.63 1.218-5.85 3.33-1.786 3.25-.57 7.393 2.843 9.261 1.056.65 2.276.894 3.413.894 2.438 0 4.712-1.217 5.93-3.41 1.788-3.169.57-7.315-2.842-9.183-1.137-.65-2.356-.892-3.493-.892z" fill="#e4803e"/><path d="m1534.38 254.375c-.976 0-1.787.406-2.275 1.3-.73 1.137-.163 2.844 1.217 3.575.488.244.975.406 1.463.406.894 0 1.787-.487 2.194-1.3.73-1.3.164-2.843-1.217-3.656-.406-.243-.895-.325-1.383-.325z" fill="#d50e1e"/><path d="m745.335 230.49a5.765 5.765 0 0 0 -5.037 2.925c-1.544 2.762-.488 6.256 2.437 7.88.975.488 1.95.732 3.006.732 2.031 0 3.9-.975 4.956-2.844 1.544-2.762.488-6.337-2.437-7.88-.894-.57-1.95-.813-2.925-.813zm.488 5.606c.406 0 .893.162 1.3.325 1.137.65 1.624 2.03.974 3.087a2.188 2.188 0 0 1 -1.95 1.137c-.406 0-.812-.162-1.218-.324-1.138-.731-1.625-2.032-1.057-3.088a2.188 2.188 0 0 1 1.95-1.137z" fill="#f8e8c7"/><path d="m745.823 236.096c-.813 0-1.544.406-1.95 1.137-.57 1.056-.082 2.357 1.056 3.088.406.162.812.325 1.218.325.813 0 1.544-.406 1.95-1.138.65-1.056.163-2.437-.975-3.087-.406-.163-.893-.325-1.3-.325z" fill="#f9e4c0"/><path d="m1675.548 724.544-12.13 19.867c1.094.618 31.677 18.09 28.246 42.592-3.656 25.104-34.04 28.68-34.04 28.68l-36.775-1.548-108.267 177.325 234.817 11.896 108.42 5.512 91.625-150.069-37.801-6.558-26.485-40.783-43.142 19.418-10.885-6.99c-5.769 7.069-11.131 14.627-16.087 22.588l-6.581-3.576c5.118-8.124 10.643-15.761 16.492-23.073z" fill="url(#L)" transform="translate(319.216 181.667)"/><path d="m1997.147 676.36-.489.325c-6.337 4.956-12.673 6.01-12.673 6.01s-71.415 10.805-139.416 10.805l-.186.003-77.388 65.485 86.69 56.035 150.996-127.76z" fill="#ef322b"/><path d="m1915.408 334.315c20.555 27.624 29.085 39.81 35.34 52.403 39.323 78.644-21.448 189.462-21.448 189.462s203.599 47.853 228.784 332.451c1.3 14.705-9.261 72.633-9.83 85.794 8.937-39.078 42.735-113.66 29.492-211.804-7.556-56.302-53.622-117.966-83.114-142.096-29.491-24.13-91.155-53.621-91.155-53.621s37.534-64.346 8.043-128.691c-29.492-64.346-72.39-104.561-72.39-104.561z" fill="url(#M)" transform="translate(319.216 181.667)"/><path d="m2234.623 515.981c20.555 27.623 29.086 39.81 35.342 52.403 4.524 9.049 7.71 18.527 9.829 28.21l22.608-7.16c-22.843-34.17-44.054-54.115-44.054-54.115z" fill="#f8e78f"/><path d="m2486.396 1109.467-10.573 3.346c-2.688 22.921-7.954 54.04-8.353 63.278 3.727-16.296 11.767-38.845 18.926-66.624z" fill="#b36f1e"/><path d="m1666.557 445.701s-141.203 5.363-198.399 8.937c-48.665 3.006-132.347 13.812-156.151 16.98l128.447 16.087 247.389-7.312c.893-2.356 1.543-4.956 2.03-7.88 3.494-25.024-23.316-26.812-23.316-26.812z" fill="url(#N)" transform="translate(319.216 181.667)"/><path d="m1220.607 774.578-63.452 8.937 259.088 22.017 241.377 10.156s30.385-3.575 33.96-28.598c.406-2.762.325-5.444-.081-8.044l-417.27-4.468z" fill="url(#O)" transform="translate(319.216 181.667)"/><path d="m1578.366 713.78c-4.451 6.284-18.11 27.116-41.225 76.236-28.597 60.771-39.325 107.242-39.325 107.242s3.168.405 9.017 1.137c2.63.337 5.903.748 9.6 1.201z" fill="#f7e5b7"/><path d="m1360.992 521.262c-34.935 2.762-66.045 5.445-84 6.989-10.156.894-16.085 1.46-16.085 1.46s-1.001 1.391-1.847 2.57l-61.883 185.61c20.87 2.578 58.395 6.852 108.12 10.8l66.753-200.285z" fill="url(#P)" transform="translate(319.216 181.667)"/><path d="m1691.287 710.08-66.769 200.309a2707.86 2707.86 0 0 0 45.052 3.204l1.625-27.055 62.803 30.385c6.743.244 13.485.489 20.391.651 75.638 2.275 135.27 4.467 174.511 6.01l-217.49-125.602 40.623-48.666z" fill="#ed1c24"/><path d="m2070.92 428.152c-25.673 0-64.018 1.061-110.083 5.53-21.712 2.11-40.163 4.688-55.876 7.35l296.093 48.951c-46.341-37.172-95.446-61.017-95.446-61.017s-12.67-.814-34.688-.814z" fill="#f7e5b7"/><path d="m1585.849 259.345c-20.62 3.49-36.399 7.137-47.333 10.136-13.812 3.737-20.312 6.421-20.312 6.421s-25.755 11.373-82.22 54.676c-6.743 5.119-13.811 10.725-21.448 16.818-18.93 15.112-35.503 31.035-49.558 46.227-4.71 5.069-9.044 10.006-13.203 14.863l242.561 40.11c34.536-1.43 67.32-2.718 71.652-2.896l-24.456-35.827 55.697 55.736 258.23 42.7c9.796-37.11 14.505-83.162-4.71-121.592-14.688-29.406-41.336-56.287-68.957-78.437z" fill="url(#Q)" transform="translate(319.216 181.667)"/><path d="m1670.996 590.147c-22.246 25.976-36.688 48.2-42.78 58.263l3.413 4.876c2.519-.406 5.686-.813 9.26-1.3 31.767-4.143 103.1-13 146.485-15.681 31.035-1.968 81.744-4.202 126.25-6.046zm345.426 57.108 54.25 54.289 88.558 123.328-77.832-56.301-73.771-108.219c-2.275 7.556-6.337 12.676-10.48 16.007l209.773 303.53 99.28 55.244-9.586-257.462c-28.11-15.193-48.015-19.823-48.015-19.823s15.867-29.03 26.118-67.89z" fill="#ed1c24"/><path d="m1641.53 409.95 24.456 35.748h.568s26.813 1.797 23.32 26.82a62.47 62.47 0 0 1 -1.46 6.162l73.767 108.224 77.748 56.301-88.47-123.326z" fill="url(#R)" transform="translate(319.216 181.667)"/><path d="m1432.82 567.644-40.623 48.666 217.491 125.603c34.53 1.381 53.378 2.275 53.378 2.275s32.091 17.874 28.598 42.816c-3.656 25.104-34.042 28.679-34.042 28.679l-241.376-10.155-119.998-10.238-1.869-.162-46.878 33.066 2.6 88.394 152.82 13.486-5.361 24.13-58.984-2.681-32.173 29.491 440.995 22.343 191.736 9.75s91.156-.001 99.28-66.946c.732-6.256 1.057-12.106 1.057-17.468.244-51.996-30.63-62.964-30.63-62.964l-21.854-12.268.406 12.268-77.75-13.487-26.487-40.784-43.14 19.417z" fill="url(#S)" transform="translate(319.216 181.667)"/><path d="m1867.311 787.171c-13.811 10.318-26.648 22.586-38.185 36.722l10.887 6.987 43.14-19.417zm8.53-6.012a258.435 258.435 0 0 0 -8.286 5.85l20.149 11.211zm-197.91-286.467-.488.325c-6.337 4.955-12.674 6.012-12.674 6.012s-71.413 10.805-139.415 10.805c-35.26 0-105.211 4.794-164.357 9.424l71.82 46.391 390.135 252.182c14.38-17.873 30.71-33.066 48.34-45.334z" fill="url(#T)" transform="translate(319.216 181.667)"/><path d="m2306.2 1035.133.406 12.268-39.79-6.904-91.633 150.05 83.165 4.23s91.156 0 99.28-66.944c.732-6.256 1.055-12.105 1.055-17.467.244-51.996-30.629-62.965-30.629-62.965z" fill="#b12124"/><path d="m1844.44 693.5c-35.299.01-105.15 4.8-164.227 9.426l71.82 46.39 14.99 9.69z" fill="#ef322b"/><path d="m2130.816 869.787-83.326 70.51 94.679 61.2c14.38-17.874 30.708-33.065 48.338-45.333zm64.241 93.038a258.519 258.519 0 0 0 -8.286 5.85l20.149 11.21zm-8.529 6.012c-13.811 10.319-26.65 22.588-38.186 36.724l10.888 6.987 43.14-19.417z" fill="#b12124"/><path d="m2306.2 1035.133-99.28-55.246-20.718-11.536 16.168 24.78 26.486 40.784 77.75 13.486z" fill="#b12124"/><path d="m1695.324 835.598-16.086 29.41 67.027 37.616v-24.13z" fill="#84231b"/><path d="m1671.19 886.535-1.537 27.053c20.392 1.3 41.927 2.44 64.35 3.333z" fill="#561d17"/><path d="m1593.932 1162.2c-2.682 0-5.363-.65-7.8-2.032-7.474-4.143-10.318-13.405-6.337-20.636 2.681-4.793 7.718-7.474 13.08-7.474 2.6 0 5.281.65 7.8 2.03 7.474 4.144 10.318 13.325 6.256 20.556-2.6 4.874-7.719 7.555-13 7.555m-117.479-197.098s-7.23 35.829-17.955 103.749c-7.312 46.471-6.255 94.65-4.874 120.404.65 11.861 1.3 19.01 1.3 19.01s87.58 64.346 303.853 92.944c61.99 8.206 128.529 16.493 189.543 24.049v-146.159l-322.702-16.411 32.173-29.492 58.983 2.681 5.362-24.13-152.82-13.486-2.6-88.394 46.878-33.066-122.435-10.4z" fill="#f7e5b7"/><path d="m1135.152 923.369c-2.59 33.825-1.768 65.166-.746 84.217.066 1.21.128 2.144.194 3.253l405.484 121.641c30.166 3.803 60.251 7.548 89.018 11.11v-72.07l-297.458-89.217-25.244-1.284 5.168-4.736z" fill="url(#U)" transform="translate(319.216 181.667)"/><path d="m1476.453 965.101s-7.231 35.828-17.955 103.749c-1.903 12.09-3.229 24.287-4.14 36.183l124.267 37.272c.288-.946.676-1.875 1.17-2.772 2.681-4.794 7.717-7.475 13.08-7.475 2.6 0 5.281.65 7.8 2.03 6.33 3.51 9.319 10.628 7.625 17.118l22.484 6.744 27.006-24.756 58.984 2.682 5.361-24.13-152.82-13.485-2.6-88.395 46.876-33.065-122.434-10.4zm174.405 198.87 297.46 89.216v-74.087z" fill="#ed1c24"/><g fill="#f7e5b7"><path d="m2296.614 777.67 9.586 257.463 21.854 12.268s30.873 10.97 30.629 62.965c0 5.362-.323 11.211-1.054 17.467a69.397 69.397 0 0 1 -2.455 11.785 64.19 64.19 0 0 1 -.889 2.71c-18.468 52.451-95.937 52.45-95.937 52.45l-191.738-9.75v154.528c59.877 7.069 99.687 11.7 99.687 11.7s5.932.323 16.007.323c39.902 0 146.076-5.83 219.86-63.547a210.868 210.868 0 0 0 10.074-8.394c31.176-27.68 55.133-65.908 63.358-118.657 3.25-21.124 4.061-44.604 1.705-70.683-17.305-195.474-118.778-279.317-180.687-312.627z"/><path d="m2296.614 777.67 9.586 257.463 21.854 12.268s30.873 10.97 30.629 62.965c0 5.362-.323 11.211-1.054 17.467-8.125 66.945-99.281 66.944-99.281 66.944l-191.738-9.749v154.529c59.877 7.068 99.687 11.699 99.687 11.699s5.932.323 16.007.323c59.389 0 265.588-12.917 293.292-190.598 3.25-21.124 4.061-44.604 1.705-70.683-17.305-195.474-118.778-279.317-180.687-312.627z"/><path d="m2298.131 818.413 8.07 216.72 21.853 12.268s30.873 10.97 30.629 62.965c0 5.362-.323 11.211-1.054 17.467-8.125 66.945-99.281 66.944-99.281 66.944l-191.738-9.749v125.008a287.71 287.71 0 0 0 44.677 34.763c20.928 2.452 55.01 6.457 55.01 6.457s5.932.323 16.007.323c59.389 0 265.588-12.917 293.292-190.598 3.25-21.124 4.061-44.604 1.705-70.683-10.847-122.53-54.768-201.185-101.283-251.04a284.121 284.121 0 0 0 -77.887-20.845z"/><path d="m2299.498 855.144 6.702 179.99 21.854 12.267s30.873 10.97 30.629 62.965c0 5.362-.323 11.211-1.054 17.467-8.125 66.945-99.281 66.944-99.281 66.944l-191.738-9.749v71.224c38.255 48.97 94.342 83.348 158.453 93.32 83.132-7.525 227.656-41.871 250.533-188.591 3.25-21.124 4.061-44.604 1.705-70.683-6.427-72.595-24.468-129.781-47.775-174.713-35.708-31.696-80.536-53.33-130.028-60.44z"/></g><path d="m2301.382 905.72 4.818 129.413 21.854 12.268s30.873 10.97 30.629 62.965c0 5.362-.323 11.211-1.054 17.467-8.125 66.945-99.281 66.944-99.281 66.944l-163.101-8.291c32.305 62.885 97.83 105.947 173.338 105.947 107.486 0 194.743-87.254 194.743-194.74 0-96.309-70.058-176.362-161.946-191.973z" fill="#f26949"/><path d="m2303.684 967.53 2.516 67.603 21.854 12.268s30.873 10.97 30.629 62.965c0 5.362-.323 11.211-1.054 17.467-8.125 66.945-99.281 66.944-99.281 66.944l-98.63-5.015c25.57 31.878 64.84 52.302 108.867 52.302 77.02 0 139.495-62.479 139.495-139.498 0-64.896-44.358-119.464-104.396-135.036z" fill="#f26949"/><path d="m1629.102 903.27v94.079l118.292 6.095v-100.174z" fill="url(#V)" transform="translate(319.216 181.667)"/><path d="m1629.102 997.344v146.244c43.465 5.28 84.165 10.158 118.287 14.302v-154.45z" fill="url(#W)" transform="translate(319.216 181.667)"/><path d="m2067.992 1107.685h166.226v-24.13h-166.226z" fill="#ef322b"/><path d="m2267.063 923.543c-26.18 4.564-52.463 15.768-76.556 32.62l4.55 6.662c22.691-15.266 47.424-25.397 72.006-29.779z" fill="#eead7b" fill-rule="evenodd"/><path d="m2142.168 1001.498c-5.85 7.312-11.374 14.95-16.493 23.074l6.581 3.574c4.956-7.962 10.318-15.517 16.086-22.586z" fill="#e4814b"/><path d="m2190.508 956.164c-17.63 12.268-33.96 27.46-48.34 45.334l6.175 4.062c11.536-14.136 24.373-26.404 38.184-36.722l-.325-.488.569.325a258.435 258.435 0 0 1 8.287-5.85z" fill="#e69363"/><path d="m2186.202 968.35.325.488c.081-.081.163-.163.244-.163z" fill="#e89a68"/><path d="m2136.642 596.333c-5.28 0-10.398 2.762-13.08 7.555-3.98 7.312-1.135 16.494 6.339 20.637a15.67 15.67 0 0 0 7.718 2.031c5.362 0 10.48-2.68 13.162-7.555 3.98-7.23 1.136-16.412-6.338-20.637-2.519-1.381-5.201-2.03-7.8-2.03z" fill="#f2c696"/><path d="m2138.024 611.038c-2.03 0-3.98.975-5.037 2.844-1.543 2.762-.325 6.337 2.681 8.043 1.057.569 2.194.894 3.25.894 2.113 0 3.981-1.057 5.037-2.844 1.544-2.762.325-6.418-2.68-8.124a6.652 6.652 0 0 0 -3.25-.813" fill="#e06136"/><path d="m1592.874 1132.058c-5.362 0-10.398 2.681-13.079 7.475-3.98 7.23-1.136 16.49 6.338 20.634 2.438 1.381 5.117 2.033 7.798 2.033 5.281 0 10.4-2.683 13-7.557 4.062-7.231 1.218-16.411-6.256-20.555-2.519-1.38-5.2-2.03-7.8-2.03z" fill="#f3c797"/><path d="m1594.257 1146.682c-2.113 0-4.064.974-5.039 2.842-1.543 2.762-.324 6.419 2.682 8.044 1.056.568 2.113.894 3.25.894 2.032 0 3.98-1.055 5.037-2.843 1.543-2.762.326-6.42-2.68-8.126a6.878 6.878 0 0 0 -3.25-.811z" fill="#db3725"/><path d="m1594.257 1146.682c-.218 0-.435.01-.649.03l4.894 1.47a6.884 6.884 0 0 0 -.995-.69 6.878 6.878 0 0 0 -3.25-.811z" fill="#ef322b"/><path d="m1809.31 857.697c-5.28 0-10.4 2.762-13.081 7.555-4.062 7.23-1.22 16.41 6.255 20.634 2.519 1.382 5.201 2.031 7.8 2.031 5.282 0 10.4-2.761 13.08-7.555 3.981-7.23 1.22-16.49-6.335-20.634a15.67 15.67 0 0 0 -7.718-2.031z" fill="#f3c696"/><path d="m1810.69 872.402c-2.112 0-4.062.974-5.118 2.762-1.544 2.843-.325 6.417 2.762 8.123.975.569 2.113.814 3.25.814 2.113 0 3.983-.975 5.039-2.762 1.462-2.844.324-6.42-2.682-8.126a6.878 6.878 0 0 0 -3.25-.811z" fill="#ef322b"/><path d="m1867.318 586.827c-4.144 0-8.044 2.113-10.075 5.85-3.087 5.525-.891 12.674 4.796 15.924 1.95.975 3.979 1.463 6.01 1.463 4.062 0 8.043-2.033 10.074-5.77 3.087-5.525.895-12.673-4.873-15.842-1.869-1.056-3.982-1.625-5.932-1.625z" fill="#f4ca9b"/><path d="m1868.293 598.12c-1.543 0-3.087.813-3.818 2.275-1.219 2.113-.243 4.875 2.112 6.094a4.493 4.493 0 0 0 2.438.73c1.625 0 3.087-.812 3.9-2.193 1.137-2.112.243-4.875-2.113-6.256-.812-.406-1.625-.65-2.519-.65" fill="#db3b27"/><path d="m1824.666 543.2c-2.68 0-5.2 1.298-6.5 3.736-2.032 3.574-.569 8.124 3.087 10.237 1.219.65 2.6.974 3.9.974 2.599 0 5.119-1.299 6.5-3.736 2.031-3.575.567-8.125-3.17-10.237a8.077 8.077 0 0 0 -3.817-.975z" fill="#f4d0a3"/><path d="m1825.315 550.511c-.975 0-1.95.488-2.437 1.381-.813 1.381-.244 3.169 1.219 3.981.568.325 1.137.407 1.706.407 1.056 0 1.95-.488 2.518-1.381.731-1.382.081-3.169-1.38-3.981-.488-.325-1.057-.406-1.626-.406" fill="#e2703e"/><path d="m1680.13 858.836c-1.462 0-2.925.725-3.656 2.106-1.137 1.95-.326 4.547 1.705 5.685a4.434 4.434 0 0 0 2.197.568c.65 0 1.3-.156 1.95-.4l-1.214-.737a.768.768 0 0 1 -.413.09c-.326 0-.567-.082-.892-.245-.812-.487-1.142-1.461-.736-2.274.243-.487.813-.736 1.382-.736l1.873-3.488s-.078-.01-.078-.09a4.758 4.758 0 0 0 -2.118-.479z" fill="#f6d3a7"/><path d="m1682.326 859.402-.01.004c0 .001 0 .003.01.004zm0 .008-1.866 3.486c.325 0 .65.08.894.243.04.02.082.04.121.062l.078.045c.465.29.736.773.78 1.258v.078c.01.263-.044.522-.17.751a1.58 1.58 0 0 1 -.904.693 1.63 1.63 0 0 1 -.153.04l1.22.731a5.74 5.74 0 0 0 .997-.786 4.542 4.542 0 0 0 .406-.462v-.002l.045-.062a3.86 3.86 0 0 0 .253-.392c.38-.702.528-1.476.468-2.238 0-.035-.01-.065-.01-.098-.01-.1-.025-.198-.04-.297 0-.035-.01-.063-.02-.095a4.477 4.477 0 0 0 -2.1-2.955z" fill="#f7e5b7"/><path d="m1682.15 863.898c.237.458.254 1.002.016 1.434-.244.406-.651.65-1.057.731l1.22.732a5.342 5.342 0 0 0 1.348-1.176 5.263 5.263 0 0 0 -1.524-1.72z" fill="#f7e5b7"/><path d="m1680.404 862.896c-.55.015-1.092.258-1.328.73-.406.813-.081 1.787.731 2.275.325.162.569.245.894.245.163 0 .243-.002.406-.083l-1.868-1.056 1.22-2.111h-.053z" fill="#ef322b"/><path d="m1680.457 862.896-1.219 2.112 1.869 1.056a1.596 1.596 0 0 0 1.056-.731c.407-.731.082-1.788-.812-2.194-.244-.162-.57-.243-.894-.243z" fill="#ef322b"/><path d="m1986.666 486.572c-.568 0-1.137-.081-1.624-.407-1.544-.812-2.113-2.68-1.382-3.98.488-.894 1.463-1.463 2.519-1.463.487 0 1.056.163 1.625.488 1.543.812 2.112 2.6 1.3 3.98-.488.894-1.463 1.382-2.438 1.382m-1.137-13.162c-2.681 0-5.2 1.381-6.5 3.819-2.03 3.574-.65 8.205 3.088 10.237 1.218.73 2.6.974 3.9.974 2.6 0 5.199-1.3 6.499-3.737 1.95-3.575.569-8.206-3.169-10.237a7.336 7.336 0 0 0 -3.818-1.056" fill="#f6e0bc"/><path d="m1986.179 480.722c-1.056 0-2.031.57-2.519 1.463-.73 1.3-.162 3.168 1.382 3.98.487.326 1.056.407 1.624.407.975 0 1.95-.487 2.438-1.38.812-1.382.244-3.17-1.3-3.982-.569-.325-1.138-.487-1.625-.487" fill="#f6d2a7"/><path d="m1960.749 591.62 1.139 1.667v-.527z" fill="#f78d5f"/><path d="m2293.281 921.228c-8.67 0-17.438.785-26.218 2.315v9.503c9.04-1.61 18.059-2.453 26.95-2.475 2.599 0 5.28.083 7.88.246v-9.263c-2.843-.163-5.768-.326-8.612-.326z" fill="#f3c595" fill-rule="evenodd"/><path d="m1641.585 383.271c-37.275 28.872-64.534 69.112-77.551 114.513l8.692-10.726 7.395-21.528 3.087-3.494 4.873-12.51 23.157-23.157a211.42 211.42 0 0 1 30.347-31.664z" fill="#f9dc8f" fill-rule="evenodd"/><path d="m1211.169 679.842c.04.065.672 1.147.672 1.147s.128-.98.147-1.144z" fill="#f8e78f"/><path d="m1948.318 1084.936v94.08l.245.015.649.035v-94.126h-.649z" fill="#f78d5f"/><path d="m1948.318 1179.016v146.242c.113.015.212.025.325.04v-146.265z" fill="#f7e5b7"/><path d="m1589.293 914.643.163 57.764v13.082l.405 119.672v8.287l185.077 19.092s31.847-4.956 31.197-31.929c0-.487-.082-.975-.163-1.462l-171.589-11.78v-34.806l-16.167-1.511v-63.126l113.094 7.8s23.235-6.825 31.034-23.561a40.806 40.806 0 0 0 1.38-3.33l-115.042-6.582-16.084 10.723v-55.406l-28.6-1.951z" fill="url(#X)" transform="translate(319.216 181.667)"/><path d="m1744.315 1084.856.02 14.527 30.261-11.796z" fill="#f8e78f"/><path d="m1455.45 905.926-30.333 11.826.144 112.665v9.19l56.377-21.978-.806-109.404-2.6-.243z" fill="url(#Y)" transform="translate(319.216 181.667)"/><path d="m1800.854 1199.314-56.376 21.978v125.251l57.195-36.398z" fill="#b36f1e"/><path d="m1312.661 815.688-37.543 14.302 407.857 21.445 13.397.737 38.511 1.95 15.684.892s73.932 18.196 82.463 79.698c2.356 17.061.89 30.466-2.442 41.108-8.612 27.948-29.972 36.484-29.972 36.484s52.717 12.587 73.11 56.134c3.818 8.205 6.5 17.463 7.557 27.944 2.519 26.729-2.921 47.127-12.183 62.644-1.137 1.95-2.434 3.82-3.734 5.607 14.462-8.936 50.129-38.345 37.13-105.859-10.318-54.19-69.712-66.133-69.712-66.133s39.32-14.306 26.808-78.651c-12.512-64.346-89.362-75.06-89.362-75.06z" fill="url(#Z)" transform="translate(319.216 181.667)"/><path d="m1631.877 997.355-37.543 14.302 407.857 21.445 13.397.737 38.512 1.95 15.683.892s53.008 13.061 74.427 54.415l30.735-9.056c-19.784-52.27-85.499-61.443-85.499-61.443z" fill="#f8e78f"/><path d="m2223.224 1285.412-22.118 6.512c-.183 20.062-5.202 36.056-12.79 48.77-1.137 1.95-2.434 3.819-3.733 5.606 10.726-6.628 33.094-24.537 38.64-60.888z" fill="#b36f1e"/><path d="m1908.509 1096.31.126 44.982 43.179-27.347v-14.71z" fill="#f8e78f"/><path d="m2052.092 1275.798-46.256 29.298 88.318 9.11s31.847-4.955 31.197-31.928c0-.487-.082-.975-.163-1.462z" fill="#b36f1e"/><path d="m1909.077 1286.828-64.507 21.529v53.622l268.107 26.81s41.965-5.596 68.053-37.295l-69.872-43.667c-8.151 5.038-16.704 6.38-16.704 6.38l-185.077-19.092z" fill="#f7e5b7"/><path d="m1873.725 1068.438-67.838 29.817c.082.731.164 1.539.245 2.351.313 12.995-6.917 20.872-14.495 25.554l69.88 43.667a85.783 85.783 0 0 0 7.583-10.8c9.262-15.518 14.702-35.916 12.183-62.645-1.056-10.48-3.74-19.739-7.558-27.944z" fill="url(#aa)" transform="translate(319.216 181.667)"/><path d="m2192.941 1250.105-46.366 20.373 53.782 33.615c.918-7.935 1.033-16.588.142-26.044-1.056-10.48-3.74-19.739-7.558-27.944z" fill="#f3624d"/><path d="m2054.1 1035.784-6.181 10.734-.057.098-.935 1.625 11.834-12.19-.608-.036-.04-.002z" fill="#f78d5f"/><path d="m1739.568 854.383-11.894 12.253-12.86 22.335-7.634 33.716 31.602 2.11s18.998 7.385 24.673 25.857l52.932-54.534c-24.412-30.913-65.822-41.111-65.822-41.111z" fill="url(#ab)" transform="translate(319.216 181.667)"/><path d="m2135.593 1077.777-52.93 54.531a36.273 36.273 0 0 1 1.577 9.664c0 2.356-.327 4.554-.814 6.666-.406 1.868-1.048 3.569-1.86 5.193l68.238 3.656c3.331-10.643 4.798-24.047 2.442-41.108-2.147-15.477-8.443-28.21-16.653-38.602z" fill="#b12124"/><path d="m1986.421 1101.245-.08.346.08.005z" fill="#f78d5f"/><path d="m1682.97 851.435-15.739 68.032v.465l7.695.561 21.399-68.169v-.16z" fill="url(#ac)" transform="translate(319.216 181.667)"/><path d="m2015.507 1033.828v.27l.082-.264z" fill="#b12124"/><path d="m1762.34 972.164c-7.8 16.737-31.03 23.56-31.03 23.561l-113.09-7.8v46.585l233.14 43.76 22.37-9.83c-20.39-43.55-73.12-56.14-73.12-56.14s19.36-7.78 28.64-32.663l-28.98-5.442z" fill="url(#ad)" transform="translate(319.216 181.667)"/><path d="m1937.432 1216.2v16.521l15.681 1.462 138.847 13.405s30.384 7.311 33.065 32.091l.08.243 44.644-19.622.8-.351z" fill="#f78d5f"/><path d="m2119.395 1155.857 29.094 5.465c.463-1.24.907-2.508 1.315-3.834z" fill="#b12124"/><path d="m1844.57 1256.605v51.752l64.507-21.529-.103-30.223z" fill="#f7e5b7"/><path d="m1532.397 996.318-7.043 7.043v71.6h64.404l-.266-78.643z" fill="url(#ae)" transform="translate(319.216 181.667)"/><path d="m1862.444 1167.156-10.808 10.806h57.072l-.035-10.806z" fill="#f3624d"/><path d="m1687.362 1183.892v156.639l.326.04v-156.665z" fill="#f7e5b7"/><path d="m1368.147 1002.225v156.639l57.114 7.149v-161.27z" fill="url(#af)" transform="translate(319.216 181.667)"/><path d="m1275.12 829.987v62.557l93.026 8.937v100.744l57.115 2.519v-101.475l52.971 4.713 6.499.569 1.302-8.858 117.964 7.15v8.774l30.874 2.114 32.254 2.194 15.844-68.49z" fill="url(#ag)" transform="translate(319.216 181.667)"/><path d="m1594.337 1011.654v45.307l22.068-44.147z" fill="#b12124"/><path d="m1525.354 922.849v50.046l64.102-.487-.163-45.01-63.939-4.55" fill="url(#ah)" transform="translate(319.216 181.667)"/><path d="m1703.527 1017.393-32.117 64.22 15.955 1.538v100.743l57.115 2.52v-101.48l52.969 4.715 6.498.569 1.305-8.863 117.964 7.157v8.772l30.877 2.12 32.246 2.183 15.852-68.485z" fill="#561d17"/><path d="m1844.57 1104.517v50.046l1.545-.015v-49.922z" fill="#b12124"/><path d="m1589.456 985.488v-13.08l-64.102.487v30.467l17.874-17.874z" fill="url(#ai)" transform="translate(319.216 181.667)"/><path d="m1908.592 1154.074v13.082h.08v-13.082z" fill="#561d17"/><path d="m1486.032 899.694-1.3 8.856 40.622 3.656v10.643l63.94 4.55v-12.756l14.704.975v-8.774z" fill="url(#aj)" transform="translate(319.216 181.667)"/><path d="m1908.509 1101.013-31.84 5.788 31.84 2.266z" fill="#b12124"/><path d="m1805.252 1081.355-1.305 8.863 34.778 3.126 41.031-7.467z" fill="#561d17"/><path d="m2033.3 1034.73 16.627 8.3 4.172-7.246z" fill="#b12124"/><path d="m1696.374 852.167-2.687 8.562 29.032 14.516 7.991-13.877-16.606-8.302z" fill="url(#ak)" transform="translate(319.216 181.667)"/><path d="m2012.898 1042.414-18.756 59.746 32.254 2.194 7.635-33.716 7.904-13.728z" fill="#561d17"/><path d="m1827.42 933.654-44.684 7.15-5.362 28.598 42.897 5.362z" fill="url(#al)" transform="translate(319.216 181.667)"/><path d="m2146.636 1115.322-.163.025v.91zm-48.258 55.408v8.937h10.723v-7.15z" fill="#561d17"/><path d="m1001.686 392.875-195.176 75.822a530.344 530.344 0 0 1 21.895 16.472c.01.005.015.015.025.02.298.237.591.462.891.7z" fill="#f78d5f"/><path d="m904.248 430.757-16.167 6.256c1.219.244 2.438.406 3.656.406 4.956 0 9.749-2.356 12.511-6.662z" fill="#eeac77"/><path d="m898.674 427.39-.396 3.044a5.382 5.382 0 0 0 .396-3.044z" fill="#ef322b"/></svg>