<svg height="1065" viewBox="0 0 1000.753 426.241" width="2500" xmlns="http://www.w3.org/2000/svg"><g fill-rule="evenodd"><path d="m0 0v426.241h1000.753v-426.241z" fill="#1b1918"/><path d="m762.917 164.248-5.569 20.432h18.205l-18.57 70.976h34.912l19.319-70.976h18.224l5.569-20.432zm77.294 0-24.158 91.408h57.61c8.535 0 15.227-1.842 19.684-5.185 4.09-3.356 7.448-9.661 10.044-18.589 1.861-7.8 2.228-13.365 1.114-17.456-1.482-3.723-4.47-6.315-9.295-7.796 5.572-1.115 10.025-3.346 13-6.702 3.344-3.343 5.59-7.815 7.452-14.134 1.848-7.8 1.482-13.364-1.114-16.707-2.609-3.343-8.181-4.84-16.361-4.84zm30.092 20.432h4.09c1.862 0 3.346.384 3.726 1.498.734 1.481.367 2.96 0 5.57-.747 2.228-1.862 3.724-2.977 4.838-1.114 1.115-2.606 1.479-4.455 1.479h-3.725zm-8.91 33.088h4.09c1.862 0 2.972.744 3.706 1.478.38 1.115.383 2.609-.365 5.205l-1.113 3.725c-.367 2.229-1.48 4.09-2.228 5.204-1.114 1.115-2.607 1.479-4.455 1.479h-4.09zm-729.465-128.587-55.748 209.606h72.474l31.206-115.586-.384 115.586h46.088l60.952-115.586-30.86 115.586h73.223l56.113-209.606h-104.045l-45.723 86.589.749-86.589zm503.9 0c-16.347 0-30.091 3.345-40.5 10.044-10.776 6.685-17.856 16.724-21.566 29.362l-6.317 25.252h83.247l1.114-4.07c.734-3.724 2.595-6.697 5.204-9.66 2.595-2.229 5.57-3.36 8.545-3.36 3.343 0 5.189 1.129 6.683 3.725 1.114 2.595 1.131 5.949.384 9.659-1.481 4.824-3.726 8.545-6.702 10.773-3.343 2.596-7.431 3.706-12.636 3.706h-16.726l-12.617 47.588h18.205c4.825 0 7.794 1.113 9.276 3.341 1.861 2.596 1.865 6.318.384 11.522l-3.342 12.252c-1.494 5.572-2.975 9.291-5.204 11.887-2.229 2.229-5.203 3.342-8.546 3.342-3.723 0-5.948-1.113-6.682-3.342-1.128-2.976-.752-6.682.73-11.887l3.34-13h-84.341l-9.66 36.774c-2.975 12.638-1.494 22.682 5.205 29.381 6.686 6.686 18.562 10.025 35.277 10.025h84.745c17.475 0 31.218-3.707 41.614-10.773 10.776-7.434 17.84-18.969 21.93-34.202l5.57-20.432c4.09-14.867 4.454-26.003 1.478-33.069-3.343-7.053-10.772-11.888-22.296-14.863 13.018-4.078 23.046-9.296 30.112-16.362 7.053-6.686 11.9-15.223 14.863-26.366l4.84-17.84c3.342-12.638 1.481-22.677-5.205-29.362-7.066-6.7-18.965-10.044-35.68-10.044zm-246.746 0 25.637 130.45-21.546 79.156h82.114l21.181-79.156 95.883-130.45h-79.905l-35.296 50.179-8.181-50.179z" fill="#fff"/><path d="m750.275 212.56c43.485 0 78.789 34.937 78.789 78.788 0 43.472-35.304 78.776-78.789 78.776-43.838 0-78.775-35.304-78.775-78.776 0-43.851 34.937-78.788 78.775-78.788z" fill="#e30016"/><path d="m749.908 206.988c46.828 0 84.728 37.533 84.728 83.98 0 46.827-37.9 84.727-84.728 84.727-46.447 0-83.98-37.9-83.98-84.727 0-46.447 37.533-83.98 83.98-83.98zm0 8.18c41.99 0 76.18 34.177 76.18 75.8 0 41.99-34.19 76.18-76.18 76.18-41.623 0-75.813-34.19-75.813-76.18 0-41.623 34.19-75.8 75.813-75.8z" fill="#fff"/></g><path d="m749.916 206.995c-46.447 0-83.996 37.53-83.996 83.977 0 46.827 37.549 84.725 83.996 84.725 46.828 0 84.726-37.898 84.726-84.725 0-46.448-37.898-83.977-84.726-83.977z" fill="none" stroke="#fff" stroke-miterlimit="3.864" stroke-width="2.973"/><path d="m749.916 215.175c-41.623 0-75.815 34.174-75.815 75.797 0 41.99 34.192 76.18 75.815 76.18 41.99 0 76.18-34.19 76.18-76.18 0-41.623-34.19-75.797-76.18-75.797z" fill="none" stroke="#fff" stroke-miterlimit="3.864" stroke-width="2.973"/><g fill="#fff" fill-rule="evenodd"><path d="m730.943 270.155c-13.372 0-26.364 10.792-39.002 10.792v5.205c12.638 0 25.63-10.793 39.002-10.793 13.018 0 26.036 10.793 39.04 10.793 13.373 0 25.999-10.793 39.003-10.793v-5.204c-13.004 0-25.63 10.792-39.002 10.792-13.005 0-26.023-10.792-39.04-10.792z"/><path d="m730.943 281.312c-13.372 0-26.364 10.773-39.002 10.773v5.205c12.638 0 25.63-10.774 39.002-10.774 13.018 0 26.036 10.774 39.04 10.774 13.373 0 25.999-10.774 39.003-10.774v-5.204c-13.004 0-25.63 10.773-39.002 10.773-13.005 0-26.023-10.773-39.04-10.773z"/><path d="m730.943 292.085c-13.372 0-26.364 10.774-39.002 10.774v5.204c12.638 0 25.63-10.773 39.002-10.773 13.018 0 26.036 10.773 39.04 10.773 13.373 0 25.999-10.773 39.003-10.773v-5.205c-13.004 0-25.63 10.774-39.002 10.774-13.005 0-26.023-10.774-39.04-10.774z"/></g></svg>