<svg height="3965.134" viewBox="0 0 2500 1049.109" width="2500mm" xmlns="http://www.w3.org/2000/svg"><g stroke-width="4.495"><path clip-rule="evenodd" d="m0 0h2500v1049.109h-2500z" fill-rule="evenodd"/><path d="m384.375 149.889c-32.458.045-66.405 5.516-84.993 16.463-18.59 10.969-37.587 29.137-43.77 52.154-40.254 149.362-127.372 475.288-136.97 508.374-24.118 83.121 25.797 108.611 77.135 108.611h126.433l101.06-377.286-1.274 377.286h150.58l199.576-377.286-101.061 377.286h239.042l84.553-315.605-72.963-369.998h-167.57l-149.659 284.392 2.02-284.391s-189.727-.045-222.14 0zm1354.26.966-152.204 207.52h190.881l3.469-12.556c3.44-12.475 9.195-22.43 17.647-30.028 8.385-7.62 17.843-11.37 28.273-11.37 9.822 0 16.935 3.875 21.116 11.765 4.205 7.89 4.496 17.993 1.098 30.468-4.248 15.621-11.5 27.391-21.906 34.988-10.25 7.733-23.864 11.634-40.61 11.634h-54.875l-41.662 152.864h59.398c15.622 0 26.134 3.883 31.213 11.502 5.191 7.733 5.548 19.761 1.054 36.394l-10.931 39.95c-4.698 17.33-10.568 29.66-17.649 36.965-7.06 7.327-16.47 10.931-28.316 10.931-11.531 0-18.763-3.75-21.775-11.37-2.99-7.598-2.211-19.78 2.283-36.526l11.59-42.452h-274.645l-31.96 117.084c-11.306 41.628-5.71 73.29 16.77 95.002 22.544 21.713 61.042 32.706 115.504 32.706h276.225c57.408 0 102.947-11.803 136.708-35.472 33.918-23.668 57.524-60.169 71.032-109.709l17.648-64.71c13.104-48.169 14.6-83.605 4.435-106.285-10.272-22.702-34.34-38.763-72.394-48.159 42.19-13.014 74.922-30.31 98.164-52.023 23.196-21.578 39.615-49.948 49.213-85.08l15.365-56.325c11.284-41.38 5.366-73.044-17.517-94.914-22.862-21.856-61.478-32.794-115.854-32.794z" fill="#fff"/></g><path d="m996.31 150.239 84.02 426.238-69.455 259.344h267.503l69.478-259.344 312.503-426.238h-260.49l-116.276 164.49-26.838-164.49z" fill="#fff"/><g stroke-width="4.495"><path d="m2123.121 280.802c-125.625 0-228.066 102.463-228.066 228.066s102.44 228.066 228.066 228.066c125.603 0 228.023-102.463 228.023-228.066s-102.42-228.066-228.023-228.066z" fill="#e40f1b"/><path d="m1951.468 448.68-8.56 32.75h83.104l-25.42 97.68h39.337l25.507-97.68h73.84l-25.549 97.68h139.737c33.762 0 49.774-22.31 52.11-31.302 2.32-8.182 8.203-29.963-14.004-34.594 17.578-4.495 27.505-17.842 31.214-32.047 3.823-14.633-5.492-32.487-42.98-32.487zm226.793 32.75h81.964c21.623 0 10.736 16.111 3.16 16.111h-63.788l-8.56 32.707h63.788c10.7 0 6.462 16.375-6.893 16.375h-86.485l12.819-49.082z" fill="#fff"/></g></svg>