<svg height="307" width="2500" xmlns="http://www.w3.org/2000/svg" viewBox="-0.18339445931173515 0 268.5373944593117 33"><path d="M0 0h251v33H0z" fill="none"/><path d="M7.71 30.951l-7.161-12.4a4.1 4.1 0 0 1 0-4.1l7.161-12.4A4.1 4.1 0 0 1 11.258.002h14.321a4.1 4.1 0 0 1 3.549 2.049l7.16 12.4a4.1 4.1 0 0 1 0 4.1l-7.16 12.4A4.1 4.1 0 0 1 25.579 33H11.258a4.1 4.1 0 0 1-3.548-2.049z" fill="#ff8b00"/><path d="M8.633 29.705L2.09 18.372a3.744 3.744 0 0 1 0-3.744L8.633 3.295a3.743 3.743 0 0 1 3.243-1.873h13.087a3.742 3.742 0 0 1 3.242 1.873l6.543 11.333a3.744 3.744 0 0 1 0 3.744l-6.543 11.333a3.743 3.743 0 0 1-3.242 1.873H11.876a3.744 3.744 0 0 1-3.243-1.873z" fill="#242223"/><path d="M20.525 26.141H16.31l8.8-18.965h4.214z" fill="#ff8b00"/><path d="M25.162 7.175h4.214V26.14h-4.214zM20.545 26.141h-4.214L7.461 7.176h4.215z" fill="#ffa233"/><path d="M7.461 7.175h4.214V26.14H7.461z" fill="#ff8b00"/><g fill="#2c2c2c"><path d="M52.612 10.615c-.084-1.828-.189-4.034-.168-5.947h-.063a75.733 75.733 0 0 1-1.681 5.421l-2.059 6.136h-2l-1.891-6.052a70.93 70.93 0 0 1-1.429-5.505h-.042c-.063 1.849-.147 4.1-.252 6.031l-.315 5.694h-2.416l.95-14.162h3.4l1.849 5.695c.5 1.66.945 3.341 1.3 4.917h.063a69.18 69.18 0 0 1 1.408-4.938l1.954-5.674h3.362l.82 14.163H52.88zM61.247 16.394v-5.9l-4.475-8.258h2.942l1.7 3.635c.483 1.05.84 1.849 1.219 2.816h.042c.357-.9.756-1.786 1.24-2.816l1.7-3.635h2.921l-4.707 8.2v5.958zM77.587 12.38l-1.219 4.013h-2.669L78.24 2.231h3.3l4.6 14.163h-2.774l-1.282-4.013zm4.053-1.954l-1.114-3.488c-.273-.861-.5-1.828-.715-2.647h-.042c-.21.819-.42 1.807-.672 2.647l-1.093 3.488zM88.16 13.578a7.153 7.153 0 0 0 3.425.9c1.66 0 2.584-.777 2.584-1.933 0-1.072-.714-1.7-2.522-2.354-2.332-.841-3.824-2.08-3.824-4.118 0-2.311 1.933-4.077 5-4.077a7.483 7.483 0 0 1 3.4.715l-.631 2.08a5.994 5.994 0 0 0-2.816-.673c-1.639 0-2.353.883-2.353 1.7 0 1.093.819 1.6 2.71 2.333 2.459.924 3.656 2.164 3.656 4.2 0 2.269-1.723 4.245-5.379 4.245a8.411 8.411 0 0 1-3.824-.883zM99.156 13.578a7.153 7.153 0 0 0 3.425.9c1.66 0 2.585-.777 2.585-1.933 0-1.072-.714-1.7-2.521-2.354-2.332-.841-3.824-2.08-3.824-4.118 0-2.311 1.933-4.077 5-4.077a7.483 7.483 0 0 1 3.4.715l-.631 2.08a5.994 5.994 0 0 0-2.816-.673c-1.639 0-2.353.883-2.353 1.7 0 1.093.819 1.6 2.71 2.333 2.459.924 3.656 2.164 3.656 4.2 0 2.269-1.723 4.245-5.379 4.245a8.411 8.411 0 0 1-3.824-.883zM110.2 2.231h2.585v14.163H110.2zM127.162 15.742a14.02 14.02 0 0 1-4.56.8 7.63 7.63 0 0 1-5.547-1.891 7.016 7.016 0 0 1-1.975-5.211c0-4.476 3.194-7.355 7.88-7.355a9.4 9.4 0 0 1 3.761.672l-.567 2.08a7.633 7.633 0 0 0-3.215-.609c-3.026 0-5.148 1.786-5.148 5.085 0 3.215 1.975 5.127 4.917 5.127a4.95 4.95 0 0 0 1.954-.294v-3.53h-2.5V8.577h5zM129.929 16.394V2.231h2.941l3.657 6.073a39 39 0 0 1 2.416 4.749h.042c-.168-1.891-.231-3.719-.231-5.884V2.231h2.4v14.163h-2.669l-3.7-6.22a49.425 49.425 0 0 1-2.542-4.9l-.063.021c.1 1.828.126 3.7.126 6.031v5.068zM156.222 10.615c-.084-1.828-.189-4.034-.168-5.947h-.063a75.733 75.733 0 0 1-1.681 5.421l-2.057 6.137h-2l-1.89-6.052a70.93 70.93 0 0 1-1.429-5.505h-.042c-.063 1.849-.147 4.1-.252 6.031l-.315 5.694h-2.416l.944-14.163h3.4l1.849 5.695c.5 1.66.945 3.341 1.3 4.917h.063a69.18 69.18 0 0 1 1.408-4.938l1.954-5.674h3.362l.82 14.163h-2.522zM169.681 10.111h-5.341v4.161h5.968v2.122h-8.552V2.232h8.237v2.122h-5.653V8.01h5.337zM172.685 16.394V2.231h2.942l3.657 6.073a38.994 38.994 0 0 1 2.416 4.749h.042c-.168-1.891-.231-3.719-.231-5.884V2.231h2.4v14.163h-2.669l-3.7-6.22a49.419 49.419 0 0 1-2.542-4.9l-.063.021c.1 1.828.126 3.7.126 6.031v5.068zM189.705 4.395h-4.034V2.231h10.7v2.164h-4.076v12h-2.585zM205.101 2.231v5.673h5.989V2.231h2.585v14.162h-2.585v-6.24h-5.989v6.241h-2.585V2.231zM224.843 10.111h-5.337v4.161h5.968v2.122h-8.552V2.232h8.237v2.122h-5.653V8.01h5.337zM227.739 2.231h2.585v12h5.821v2.164h-8.406zM238.098 2.294a22.435 22.435 0 0 1 3.95-.294 6.408 6.408 0 0 1 4.182 1.156 4 4 0 0 1 1.387 3.131 4.292 4.292 0 0 1-1.219 3.215 6.249 6.249 0 0 1-4.476 1.513 7.29 7.29 0 0 1-1.261-.084v5.336h-2.564zm2.564 6.6a5.215 5.215 0 0 0 1.261.105c1.933 0 3.11-.946 3.11-2.606 0-1.576-1.093-2.417-2.879-2.417a7.141 7.141 0 0 0-1.492.126z"/></g><path d="M258.598.92h-2.742v7.611h-1.12V.92H252V0h6.6zm2.715-.92l2.793 6.961L266.895 0h1.459v8.531h-1.125V5.209l.105-3.586-2.801 6.908h-.861l-2.795-6.891.111 3.568v3.323h-1.125V0z"/><path d="M45.354 28.506l.93-4.549h1.041L45.931 30h-1l-1.154-4.412L42.6 30h-1.006L40.2 23.957h1.041l.938 4.543 1.154-4.543h.88zm2.324-.793a2.648 2.648 0 0 1 .262-1.189 1.91 1.91 0 0 1 .735-.813 2.07 2.07 0 0 1 1.087-.284 1.962 1.962 0 0 1 1.475.585 2.3 2.3 0 0 1 .612 1.552v.237a2.672 2.672 0 0 1-.249 1.186 1.887 1.887 0 0 1-.73.809 2.085 2.085 0 0 1-1.1.286 1.948 1.948 0 0 1-1.521-.632 2.424 2.424 0 0 1-.571-1.687zm1.009.087a1.809 1.809 0 0 0 .286 1.085.931.931 0 0 0 .8.392.921.921 0 0 0 .795-.4 2 2 0 0 0 .284-1.166 1.786 1.786 0 0 0-.293-1.079.934.934 0 0 0-.795-.4.926.926 0 0 0-.784.392 1.961 1.961 0 0 0-.293 1.176zm6.371-1.37a2.5 2.5 0 0 0-.411-.033.925.925 0 0 0-.934.531V30H52.7v-4.491h.963l.025.5a1.136 1.136 0 0 1 1.012-.583.944.944 0 0 1 .357.058zm1.71 3.57h-1.009v-6.375h1.009zm.909-2.279a2.67 2.67 0 0 1 .481-1.666 1.543 1.543 0 0 1 1.291-.629 1.466 1.466 0 0 1 1.154.5v-2.3h1.009V30H60.7l-.05-.465a1.487 1.487 0 0 1-1.21.548 1.534 1.534 0 0 1-1.276-.635 2.768 2.768 0 0 1-.487-1.727zm1.009.087a1.869 1.869 0 0 0 .264 1.069.855.855 0 0 0 .749.384.952.952 0 0 0 .9-.552v-1.917a.938.938 0 0 0-.9-.54.861.861 0 0 0-.755.388 2.082 2.082 0 0 0-.259 1.169zm4.57-3.665l-.108 1.623h-.66v-2.141h.768zm2.98 4.636a.457.457 0 0 0-.222-.411 2.362 2.362 0 0 0-.737-.249 3.787 3.787 0 0 1-.859-.274 1.147 1.147 0 0 1-.755-1.058 1.2 1.2 0 0 1 .49-.971 1.936 1.936 0 0 1 1.245-.39 2.015 2.015 0 0 1 1.3.4 1.264 1.264 0 0 1 .5 1.033h-1.013a.622.622 0 0 0-.216-.484.827.827 0 0 0-.573-.193.894.894 0 0 0-.542.154.484.484 0 0 0-.21.411.409.409 0 0 0 .2.361 2.682 2.682 0 0 0 .789.259 3.733 3.733 0 0 1 .932.311 1.319 1.319 0 0 1 .5.434 1.106 1.106 0 0 1 .164.614 1.17 1.17 0 0 1-.5.982 2.141 2.141 0 0 1-1.316.376 2.322 2.322 0 0 1-.984-.2 1.619 1.619 0 0 1-.672-.548 1.3 1.3 0 0 1-.241-.751h.979a.711.711 0 0 0 .27.55 1.048 1.048 0 0 0 .66.193 1.02 1.02 0 0 0 .606-.151.469.469 0 0 0 .204-.397zM75.112 30h-1.05l-2.693-4.287V30h-1.05v-6.043h1.05l2.7 4.3v-4.3h1.042zm.955-2.287a2.648 2.648 0 0 1 .261-1.189 1.91 1.91 0 0 1 .735-.813 2.07 2.07 0 0 1 1.087-.284 1.962 1.962 0 0 1 1.475.585 2.3 2.3 0 0 1 .612 1.552v.237a2.672 2.672 0 0 1-.255 1.187 1.887 1.887 0 0 1-.73.809 2.085 2.085 0 0 1-1.1.286 1.948 1.948 0 0 1-1.514-.633 2.424 2.424 0 0 1-.571-1.687zm1.009.087a1.809 1.809 0 0 0 .286 1.085.931.931 0 0 0 .8.392.921.921 0 0 0 .795-.4 2 2 0 0 0 .284-1.166 1.786 1.786 0 0 0-.293-1.079.934.934 0 0 0-.795-.4.926.926 0 0 0-.784.392 1.961 1.961 0 0 0-.294 1.176zm4.648 1.137a.576.576 0 0 1 .436.16.555.555 0 0 1 .154.4.536.536 0 0 1-.154.392.585.585 0 0 1-.436.156.587.587 0 0 1-.424-.153.526.526 0 0 1-.161-.392.555.555 0 0 1 .154-.4.571.571 0 0 1 .431-.162zM86.136 30h-1v-4.855l-1.486.505v-.85l2.357-.867h.129zm7.911-2.7h-2.483v1.862h2.9V30h-3.95v-6.043h3.922v.843h-2.872v1.668h2.482zm3.693 1.48a.457.457 0 0 0-.222-.411 2.362 2.362 0 0 0-.737-.249 3.787 3.787 0 0 1-.859-.274 1.147 1.147 0 0 1-.755-1.058 1.2 1.2 0 0 1 .49-.971 1.936 1.936 0 0 1 1.245-.39 2.015 2.015 0 0 1 1.3.4 1.264 1.264 0 0 1 .5 1.033H97.69a.622.622 0 0 0-.216-.484.827.827 0 0 0-.573-.193.894.894 0 0 0-.542.154.484.484 0 0 0-.21.411.409.409 0 0 0 .2.361 2.682 2.682 0 0 0 .789.259 3.733 3.733 0 0 1 .932.311 1.319 1.319 0 0 1 .5.434 1.106 1.106 0 0 1 .164.614 1.17 1.17 0 0 1-.5.982 2.141 2.141 0 0 1-1.316.376 2.322 2.322 0 0 1-.984-.2 1.619 1.619 0 0 1-.672-.548 1.3 1.3 0 0 1-.241-.751H96a.711.711 0 0 0 .27.55 1.048 1.048 0 0 0 .66.193 1.02 1.02 0 0 0 .606-.151.469.469 0 0 0 .204-.398zm4.387 0a.457.457 0 0 0-.222-.411 2.362 2.362 0 0 0-.737-.249 3.787 3.787 0 0 1-.859-.274 1.147 1.147 0 0 1-.755-1.058 1.2 1.2 0 0 1 .49-.971 1.936 1.936 0 0 1 1.245-.39 2.015 2.015 0 0 1 1.3.4 1.264 1.264 0 0 1 .5 1.033h-1.012a.622.622 0 0 0-.216-.484.827.827 0 0 0-.573-.193.894.894 0 0 0-.542.154.484.484 0 0 0-.21.411.409.409 0 0 0 .2.361 2.682 2.682 0 0 0 .789.259 3.733 3.733 0 0 1 .932.311 1.319 1.319 0 0 1 .5.434 1.106 1.106 0 0 1 .164.614 1.17 1.17 0 0 1-.5.982 2.141 2.141 0 0 1-1.321.374 2.322 2.322 0 0 1-.984-.2 1.619 1.619 0 0 1-.672-.548 1.3 1.3 0 0 1-.241-.751h.979a.711.711 0 0 0 .27.55 1.048 1.048 0 0 0 .66.193 1.02 1.02 0 0 0 .606-.151.469.469 0 0 0 .209-.396zM106.68 30a1.556 1.556 0 0 1-.116-.419 1.57 1.57 0 0 1-1.179.5 1.584 1.584 0 0 1-1.1-.386 1.235 1.235 0 0 1-.427-.955 1.275 1.275 0 0 1 .533-1.1 2.585 2.585 0 0 1 1.525-.384h.618v-.295a.787.787 0 0 0-.2-.558.773.773 0 0 0-.594-.21.888.888 0 0 0-.564.172.533.533 0 0 0-.22.438h-1.007a1.119 1.119 0 0 1 .245-.691 1.631 1.631 0 0 1 .666-.5 2.34 2.34 0 0 1 .94-.183 1.884 1.884 0 0 1 1.258.4 1.413 1.413 0 0 1 .481 1.114v2.025a2.3 2.3 0 0 0 .17.967V30zm-1.108-.726a1.147 1.147 0 0 0 .562-.145.97.97 0 0 0 .4-.39v-.847h-.544a1.487 1.487 0 0 0-.843.2.632.632 0 0 0-.282.552.589.589 0 0 0 .193.463.747.747 0 0 0 .514.167zm4.528-.718l.913-3.046h1.075l-1.78 5.171a1.451 1.451 0 0 1-1.395 1.133 1.8 1.8 0 0 1-.486-.075v-.784l.191.012a.982.982 0 0 0 .575-.139.921.921 0 0 0 .307-.466l.145-.386-1.579-4.467h1.087zm4.524-.187a1.383 1.383 0 0 1 .228-.77 3.584 3.584 0 0 1 .9-.832 3.762 3.762 0 0 1-.492-.755 1.472 1.472 0 0 1-.139-.6 1.48 1.48 0 0 1 .432-1.123 1.611 1.611 0 0 1 1.162-.413 1.533 1.533 0 0 1 1.081.388 1.254 1.254 0 0 1 .421.961 1.324 1.324 0 0 1-.191.7 2.262 2.262 0 0 1-.627.633l-.411.3 1.172 1.37a2.41 2.41 0 0 0 .253-1.108h.876a3.019 3.019 0 0 1-.523 1.83l.888 1.05h-1.17l-.34-.4a2.5 2.5 0 0 1-1.544.483 2.086 2.086 0 0 1-1.434-.475 1.576 1.576 0 0 1-.538-1.239zm2 .909a1.54 1.54 0 0 0 .955-.34l-1.32-1.556-.129.091a1.078 1.078 0 0 0-.5.863.906.906 0 0 0 .27.681.993.993 0 0 0 .729.261zm-.556-3.893a1.544 1.544 0 0 0 .427.876l.461-.315.129-.1a.747.747 0 0 0 .257-.585.536.536 0 0 0-.178-.4.634.634 0 0 0-.452-.168.592.592 0 0 0-.469.2.735.735 0 0 0-.17.492zm9.745 3.208h-2.336l-.49 1.407H121.9l2.283-6.043h.942L127.407 30h-1.1zm-2.046-.847h1.751l-.871-2.506zm6.74 1.033a.457.457 0 0 0-.222-.411 2.362 2.362 0 0 0-.737-.249 3.787 3.787 0 0 1-.859-.274 1.147 1.147 0 0 1-.755-1.058 1.2 1.2 0 0 1 .49-.971 1.936 1.936 0 0 1 1.245-.39 2.015 2.015 0 0 1 1.3.4 1.264 1.264 0 0 1 .5 1.033h-1.007a.622.622 0 0 0-.216-.484.827.827 0 0 0-.573-.193.894.894 0 0 0-.542.154.484.484 0 0 0-.21.411.409.409 0 0 0 .2.361 2.682 2.682 0 0 0 .789.259 3.733 3.733 0 0 1 .932.311 1.319 1.319 0 0 1 .5.434 1.106 1.106 0 0 1 .164.614 1.17 1.17 0 0 1-.5.982 2.141 2.141 0 0 1-1.316.376 2.322 2.322 0 0 1-.984-.2 1.619 1.619 0 0 1-.672-.548 1.3 1.3 0 0 1-.241-.751h.979a.711.711 0 0 0 .27.55 1.048 1.048 0 0 0 .66.193 1.02 1.02 0 0 0 .598-.152.469.469 0 0 0 .212-.396zm4.387 0a.457.457 0 0 0-.222-.411 2.362 2.362 0 0 0-.737-.249 3.787 3.787 0 0 1-.859-.274 1.147 1.147 0 0 1-.755-1.058 1.2 1.2 0 0 1 .49-.971 1.936 1.936 0 0 1 1.245-.39 2.015 2.015 0 0 1 1.3.4 1.264 1.264 0 0 1 .5 1.033h-1.007a.622.622 0 0 0-.216-.484.827.827 0 0 0-.573-.193.894.894 0 0 0-.542.154.484.484 0 0 0-.21.411.409.409 0 0 0 .2.361 2.682 2.682 0 0 0 .789.259 3.733 3.733 0 0 1 .932.311 1.319 1.319 0 0 1 .5.434 1.106 1.106 0 0 1 .164.614 1.17 1.17 0 0 1-.5.982 2.141 2.141 0 0 1-1.316.376 2.322 2.322 0 0 1-.984-.2 1.619 1.619 0 0 1-.672-.548 1.3 1.3 0 0 1-.241-.751h.979a.711.711 0 0 0 .27.55 1.048 1.048 0 0 0 .66.193 1.02 1.02 0 0 0 .606-.151.469.469 0 0 0 .205-.397zM137.841 30h-1.008v-4.491h1.009zm-1.07-5.657a.535.535 0 0 1 .147-.386.557.557 0 0 1 .421-.154.564.564 0 0 1 .423.154.531.531 0 0 1 .149.386.519.519 0 0 1-.149.38.568.568 0 0 1-.423.151.561.561 0 0 1-.421-.151.523.523 0 0 1-.147-.38zm1.992 3.378a2.626 2.626 0 0 1 .492-1.671 1.579 1.579 0 0 1 1.305-.625 1.479 1.479 0 0 1 1.208.535l.046-.452h.909v4.355a1.81 1.81 0 0 1-.55 1.395 2.1 2.1 0 0 1-1.484.51 2.392 2.392 0 0 1-.965-.205 1.715 1.715 0 0 1-.716-.537l.477-.606a1.441 1.441 0 0 0 1.146.552 1.114 1.114 0 0 0 .792-.272 1.042 1.042 0 0 0 .291-.8v-.3a1.485 1.485 0 0 1-1.162.486 1.575 1.575 0 0 1-1.289-.627 2.712 2.712 0 0 1-.5-1.738zm1 .087a1.808 1.808 0 0 0 .276 1.065.887.887 0 0 0 .766.388.971.971 0 0 0 .9-.523v-1.975a.957.957 0 0 0-.9-.51.891.891 0 0 0-.774.394 2.024 2.024 0 0 0-.264 1.162zm4.927-2.3l.029.519a1.615 1.615 0 0 1 1.307-.6q1.4 0 1.428 1.606V30h-1.009v-2.909a.925.925 0 0 0-.185-.633.777.777 0 0 0-.6-.205.972.972 0 0 0-.909.552V30h-1.009v-4.491zm4.74 0l.029.469a1.616 1.616 0 0 1 1.295-.552 1.241 1.241 0 0 1 1.233.689 1.593 1.593 0 0 1 1.378-.689 1.4 1.4 0 0 1 1.106.411 1.809 1.809 0 0 1 .371 1.212V30h-1.009v-2.922a.893.893 0 0 0-.187-.627.818.818 0 0 0-.618-.2.84.84 0 0 0-.562.185.974.974 0 0 0-.305.484V30h-1.001v-2.955a.719.719 0 0 0-.809-.793.888.888 0 0 0-.859.494V30h-1.009v-4.491zm8.429 4.575a2.087 2.087 0 0 1-1.554-.6 2.191 2.191 0 0 1-.6-1.608v-.125a2.7 2.7 0 0 1 .259-1.2 1.974 1.974 0 0 1 .728-.824 1.926 1.926 0 0 1 1.046-.295 1.763 1.763 0 0 1 1.417.585 2.475 2.475 0 0 1 .5 1.656v.407h-2.934a1.349 1.349 0 0 0 .371.88 1.115 1.115 0 0 0 .82.324 1.366 1.366 0 0 0 1.129-.56l.544.519a1.816 1.816 0 0 1-.72.625 2.254 2.254 0 0 1-1.006.216zm-.12-3.847a.849.849 0 0 0-.67.291 1.506 1.506 0 0 0-.326.809h1.922v-.075a1.226 1.226 0 0 0-.27-.766.843.843 0 0 0-.657-.259zm3.64-.726l.029.519a1.615 1.615 0 0 1 1.307-.6q1.4 0 1.428 1.606V30h-1.009v-2.909a.925.925 0 0 0-.185-.633.777.777 0 0 0-.6-.205.972.972 0 0 0-.909.552V30h-1.009v-4.491zm5.055-1.092v1.092h.793v.747h-.793v2.507a.552.552 0 0 0 .1.371.471.471 0 0 0 .363.114 1.554 1.554 0 0 0 .353-.042v.78a2.484 2.484 0 0 1-.664.1q-1.162 0-1.162-1.282v-2.549h-.739v-.747h.739v-1.091zM175.008 30h-1.046v-2.681h-2.7V30h-1.05v-6.043h1.05v2.515h2.7v-2.515h1.046zm3.121.083a2.087 2.087 0 0 1-1.554-.6 2.191 2.191 0 0 1-.6-1.608v-.125a2.7 2.7 0 0 1 .259-1.2 1.974 1.974 0 0 1 .728-.824 1.926 1.926 0 0 1 1.046-.295 1.763 1.763 0 0 1 1.417.585 2.475 2.475 0 0 1 .5 1.656v.407H177a1.349 1.349 0 0 0 .371.88 1.115 1.115 0 0 0 .82.324 1.366 1.366 0 0 0 1.129-.56l.544.519a1.816 1.816 0 0 1-.72.625 2.254 2.254 0 0 1-1.015.216zm-.12-3.847a.849.849 0 0 0-.67.291 1.506 1.506 0 0 0-.326.809h1.922v-.075a1.226 1.226 0 0 0-.27-.766.843.843 0 0 0-.656-.259zM181.786 30h-1.009v-6.375h1.009zm5.03-2.2a2.674 2.674 0 0 1-.473 1.662 1.515 1.515 0 0 1-1.27.62 1.525 1.525 0 0 1-1.183-.482v2.127h-1.009v-6.218h.93l.042.457a1.481 1.481 0 0 1 1.208-.54 1.531 1.531 0 0 1 1.289.612 2.745 2.745 0 0 1 .467 1.7zm-1-.087a1.873 1.873 0 0 0-.268-1.067.87.87 0 0 0-.766-.394.928.928 0 0 0-.888.51v1.992a.937.937 0 0 0 .9.523.869.869 0 0 0 .753-.388 2.062 2.062 0 0 0 .265-1.176zm8.683.32a2.182 2.182 0 0 1-.714 1.509 2.434 2.434 0 0 1-1.656.542 2.356 2.356 0 0 1-1.272-.342 2.247 2.247 0 0 1-.857-.975 3.512 3.512 0 0 1-.311-1.465v-.564a3.538 3.538 0 0 1 .3-1.507 2.283 2.283 0 0 1 .87-1 2.425 2.425 0 0 1 1.309-.353 2.336 2.336 0 0 1 1.61.542 2.263 2.263 0 0 1 .71 1.534h-1.046a1.493 1.493 0 0 0-.38-.94 1.255 1.255 0 0 0-.894-.288 1.226 1.226 0 0 0-1.052.5 2.5 2.5 0 0 0-.376 1.469v.536a2.654 2.654 0 0 0 .351 1.5 1.164 1.164 0 0 0 1.027.515 1.358 1.358 0 0 0 .93-.278 1.45 1.45 0 0 0 .394-.926zm.652-.32a2.648 2.648 0 0 1 .261-1.189 1.91 1.91 0 0 1 .735-.813 2.07 2.07 0 0 1 1.087-.284 1.962 1.962 0 0 1 1.475.585 2.3 2.3 0 0 1 .612 1.552v.237a2.672 2.672 0 0 1-.255 1.187 1.887 1.887 0 0 1-.73.809 2.085 2.085 0 0 1-1.1.286 1.948 1.948 0 0 1-1.521-.633 2.424 2.424 0 0 1-.571-1.687zm1.009.087a1.809 1.809 0 0 0 .286 1.085.931.931 0 0 0 .8.392.921.921 0 0 0 .795-.4 2 2 0 0 0 .284-1.166 1.786 1.786 0 0 0-.293-1.079.934.934 0 0 0-.795-.4.926.926 0 0 0-.784.392 1.961 1.961 0 0 0-.299 1.176zm4.64 1.138a.576.576 0 0 1 .436.16.555.555 0 0 1 .154.4.536.536 0 0 1-.154.392.585.585 0 0 1-.436.156.587.587 0 0 1-.427-.154.526.526 0 0 1-.158-.394.555.555 0 0 1 .154-.4.571.571 0 0 1 .431-.16zm6.379-.158a.457.457 0 0 0-.222-.411 2.362 2.362 0 0 0-.737-.249 3.787 3.787 0 0 1-.859-.274 1.147 1.147 0 0 1-.755-1.058 1.2 1.2 0 0 1 .49-.971 1.936 1.936 0 0 1 1.245-.39 2.015 2.015 0 0 1 1.3.4 1.264 1.264 0 0 1 .5 1.033h-1.009a.622.622 0 0 0-.216-.484.827.827 0 0 0-.573-.193.894.894 0 0 0-.542.154.484.484 0 0 0-.21.411.409.409 0 0 0 .2.361 2.682 2.682 0 0 0 .789.259 3.733 3.733 0 0 1 .932.311 1.319 1.319 0 0 1 .5.434 1.106 1.106 0 0 1 .164.614 1.17 1.17 0 0 1-.5.982 2.141 2.141 0 0 1-1.316.376 2.322 2.322 0 0 1-.984-.2 1.619 1.619 0 0 1-.672-.548 1.3 1.3 0 0 1-.241-.751h.979a.711.711 0 0 0 .27.55 1.048 1.048 0 0 0 .66.193 1.02 1.02 0 0 0 .606-.151.469.469 0 0 0 .204-.398zm2.946 1.22h-1.009v-4.491h1.009zm-1.071-5.657a.535.535 0 0 1 .147-.386.557.557 0 0 1 .421-.154.564.564 0 0 1 .423.154.531.531 0 0 1 .149.386.519.519 0 0 1-.149.38.568.568 0 0 1-.423.151.561.561 0 0 1-.421-.151.523.523 0 0 1-.147-.38zm3.1 1.166l.029.519a1.615 1.615 0 0 1 1.307-.6q1.4 0 1.428 1.606V30h-1.009v-2.909a.925.925 0 0 0-.185-.633.777.777 0 0 0-.6-.205.972.972 0 0 0-.909.552V30h-1.009v-4.491zm5.636 3.769a.912.912 0 0 0 .627-.22.751.751 0 0 0 .266-.544h.95a1.481 1.481 0 0 1-.261.782 1.715 1.715 0 0 1-.664.575 1.979 1.979 0 0 1-.9.212 1.915 1.915 0 0 1-1.494-.61 2.42 2.42 0 0 1-.552-1.685v-.1a2.38 2.38 0 0 1 .548-1.641 1.9 1.9 0 0 1 1.494-.616 1.845 1.845 0 0 1 1.305.467 1.673 1.673 0 0 1 .529 1.226h-.95a.924.924 0 0 0-.264-.635.848.848 0 0 0-.629-.249.888.888 0 0 0-.755.355 1.811 1.811 0 0 0-.27 1.077v.162a1.841 1.841 0 0 0 .264 1.089.887.887 0 0 0 .76.355zm4.582.805a2.087 2.087 0 0 1-1.554-.6 2.191 2.191 0 0 1-.6-1.608v-.125a2.7 2.7 0 0 1 .259-1.2 1.974 1.974 0 0 1 .728-.824 1.926 1.926 0 0 1 1.046-.295 1.763 1.763 0 0 1 1.417.585 2.475 2.475 0 0 1 .5 1.656v.407h-2.934a1.349 1.349 0 0 0 .371.88 1.115 1.115 0 0 0 .82.324 1.366 1.366 0 0 0 1.129-.56l.544.519a1.816 1.816 0 0 1-.72.625 2.254 2.254 0 0 1-1.002.216zm-.12-3.847a.849.849 0 0 0-.67.291 1.506 1.506 0 0 0-.326.809h1.922v-.075a1.226 1.226 0 0 0-.27-.766.843.843 0 0 0-.652-.259zM231.076 30h-4.063v-.693l2.013-2.2a5.012 5.012 0 0 0 .62-.811 1.315 1.315 0 0 0 .185-.654.993.993 0 0 0-.243-.7.842.842 0 0 0-.654-.266.971.971 0 0 0-.76.3 1.175 1.175 0 0 0-.27.818H226.9a1.977 1.977 0 0 1 .251-.994 1.729 1.729 0 0 1 .718-.687 2.285 2.285 0 0 1 1.077-.245 2.044 2.044 0 0 1 1.388.442 1.534 1.534 0 0 1 .508 1.222 2.074 2.074 0 0 1-.255.948 5.392 5.392 0 0 1-.836 1.127l-1.481 1.588h2.806zm4.707-2.544a3.3 3.3 0 0 1-.488 1.965 1.722 1.722 0 0 1-1.484.662 1.745 1.745 0 0 1-1.475-.645 3.156 3.156 0 0 1-.508-1.911V26.48a3.246 3.246 0 0 1 .488-1.955 1.738 1.738 0 0 1 1.488-.652 1.748 1.748 0 0 1 1.48.635 3.147 3.147 0 0 1 .5 1.9zm-1.009-1.129a2.557 2.557 0 0 0-.232-1.247.793.793 0 0 0-.739-.4.793.793 0 0 0-.726.376 2.363 2.363 0 0 0-.245 1.172V27.6a2.623 2.623 0 0 0 .237 1.262.8.8 0 0 0 .743.415.781.781 0 0 0 .718-.384 2.468 2.468 0 0 0 .245-1.2zm5.84 1.129a3.3 3.3 0 0 1-.488 1.965 1.722 1.722 0 0 1-1.484.662 1.745 1.745 0 0 1-1.475-.645 3.156 3.156 0 0 1-.508-1.911V26.48a3.246 3.246 0 0 1 .488-1.955 1.738 1.738 0 0 1 1.488-.652 1.748 1.748 0 0 1 1.48.635 3.147 3.147 0 0 1 .5 1.9zm-1.014-1.129a2.557 2.557 0 0 0-.232-1.247.793.793 0 0 0-.739-.4.793.793 0 0 0-.726.376 2.363 2.363 0 0 0-.245 1.172V27.6a2.623 2.623 0 0 0 .237 1.262.8.8 0 0 0 .743.415.781.781 0 0 0 .718-.384 2.468 2.468 0 0 0 .245-1.2zm5.923-1.81L243.112 30h-1.058l2.411-5.234h-3.125v-.809h4.188z" fill="#2c2c2c"/></svg>