<svg height="2500" viewBox="0 -3.062 372.69 127.931" width="2500" xmlns="http://www.w3.org/2000/svg"><g stroke-width="2.017"><path d="m338.416 98.69-17.892-47.237-12.337-.016-18.331 47.423c3.26 0 12.317-.117 12.317-.117l3.416-8.375 17.443-.033 3.047 8.344zm-23.97-33.876 5.37 17.133-11.42.048zm-127.826-.146 1.932-11.658s-4.447-2.359-6.647-3.08c-5.79-1.899-13.84-1.596-19.62.332-11.7 3.902-17.964 14.649-17.221 26.839.517 8.5 3.775 15.671 11.339 19.901 12.203 6.823 23.867 1.298 23.867 1.298l2.126-11.763c-2.918 1.393-13.78 2.887-18.14.1-11.25-7.187-6.059-24.451 5.728-26.314 3.143-.497 10.082-.336 16.636 4.345zm169.925-15.126-13.405-.02-.065 49.682 29.615.09-.047-11.844-16.037.056zm-123.082 49.148-9.914-47.237-15.661-.016-23.366 47.423c3.26 0 13.933-.117 13.933-.117l3.795-8.375 17.633.157 1.908 8.154zm40.487-18.936-15.8-28.301-13.508.037-6.836 47.263 12.478-.08 4.003-30.852 17.434 31.254 12.597-.045 6.245-47.653-12.553-.02zm-59.138-16.46 3.565 17.228-11.04-.142z" fill="#fff" fill-opacity=".946" stroke="#fff" stroke-width="1.512" transform="matrix(.49644 0 0 .49532 .375 67.411)"/><path d="m168.378 116.294-8.883-23.398-6.124-.008-9.1 23.49c1.618 0 6.114-.058 6.114-.058l1.696-4.148 8.66-.017 1.512 4.133zm-11.9-16.78 2.666 8.487-5.669.023zm-91.566-14.271h127.088v39.626h-127.088zm28.109 14.2.959-5.774s-2.208-1.169-3.3-1.526c-2.875-.94-6.87-.79-9.74.165-5.808 1.933-8.918 7.255-8.55 13.293.257 4.21 1.874 7.763 5.63 9.858 6.058 3.38 11.848.643 11.848.643l1.055-5.827c-1.448.69-6.84 1.43-9.005.05-5.584-3.56-3.008-12.111 2.844-13.034 1.56-.246 5.005-.167 8.259 2.152zm84.357-7.492-6.655-.01-.033 24.608 14.703.045-.024-5.866-7.961.027zm-61.103 24.344-4.922-23.398-7.774-.008-11.6 23.49c1.619 0 6.917-.058 6.917-.058l1.884-4.148 8.754.078.946 4.038zm20.1-9.38-7.844-14.018-6.706.02-3.393 23.409 6.194-.04 1.987-15.281 8.655 15.48 6.254-.022 3.1-23.603-6.232-.01zm-29.36-8.152 1.77 8.533-5.48-.07z" fill="#030303"/><path d="m79.434 10.104c1.932-2.271 5.778-2.727 6.666.896.554 2.26 2.182 19.992 9.388 20.312 4.256.189 9.306-7.716 10.635-11.322 1.213-3.29-1.107-8.156 1.171-15.71 2.215-7.342 7.723-3.375 8.603.778.352 1.661.708 6.569-.153 9.08-1.804 5.257-2.584 6.423.391 20.142 3.085-2.67 11.285-10.268 14.66-12.377 3.564-.4 9.09 1.751 1.174 7.846-4.662 3.589-14.073 10.928-14.073 10.928s1.323 8.04 1.21 12.088c-.143 5.054-.36 10.338-2.357 14.982-2.31 5.372-6.27 11.805-9.859 13.848-6.203 3.532-17.641.315-20.25-5.535-2.599-5.828-.152-13.328 2.886-17.383 4.747-6.335 20.509-19.777 20.509-19.777l-1.772-9.541c-.657-3.54-.929 5.583-11.778 6.918-5.713.702-11.261-4.456-12.7-9.51-1.048-3.682-1.031 6.264-5.33 9.948-1.766 3.62-9.549 4.818-9.549 4.818s1.49 5.19 1.914 7.85c.503 3.155 3.206 7.532.734 9.557-1.448 1.186-4.493.914-5.405-1.524-3.342-8.937-4.056-18.795-5.98-27.361-.712-3.174-4.601 23.161-5.742 25.29-1.541 2.876-4.673 3.034-6.058 1.815-3.377-2.973-8.544-31.862-10.642-32.745-2.391 1.056-8.502 21-7.907 38.679.13 3.866-5.535 3.279-6.187 1.939-1.43-2.94-1.475-19.221-2.63-23.796-2.708-13.178-7.414-23.569-8.19-21.102-2.203 6.995-3.9 16.81-4.982 25.984-.527 10.542-.415 9.258-.435 17.948 0 1.93.552 5.495-.688 7.025-.886.478-6.708 1.159-6.708-1.107 0-1.52.43-15.285.94-23.663.554-9.09 5-40.745 12.79-35.441 7.79 5.303 10.687 16.886 13.083 23.72 0 0 4.047-17.424 7.397-19.334 3.56-2.04 6.19.18 7.948 3.315 3.841 5.728 6.026 23.183 8.404 23.237 1.713-1.97 3.363-27.928 11.703-25.29 2.422.766 3.678 7.46 3.678 7.46l1.78 11.414c.278 1.773 5.719-.658 8.447-7.236 2.875-6.935 2.13-15.309 3.264-18.063zm31.847 35.938c-11.288 10.971-9.725 10.412-13.277 14.09-10.054 10.413-2.965 19.778 4.064 16.875 8.804-3.636 10.771-25.548 9.213-30.965z" stroke="#000" stroke-width="1.512" transform="matrix(.49644 0 0 .49532 .375 67.411)"/></g></svg>