<svg clip-rule="evenodd" fill-rule="evenodd" height="1903" image-rendering="optimizeQuality" shape-rendering="geometricPrecision" text-rendering="geometricPrecision" viewBox="-6.78 -.9 1815.11 1376.79" width="2500" xmlns="http://www.w3.org/2000/svg"><path d="m82.55 415.47c12.77-1.22 25.91 4.08 37.78 11.67.9.58 2.18 1.43 3.61 2.34 6.02-12.1 11.28-24.7 16.15-37.27 4.93-12.71 8.69-25.49 14.55-37.9 8.59-18.19 21.11-33.51 39.13-43 4.3-2.26 8.76-4.1 13.34-5.54 1.57-2.5 3.14-4.99 4.71-7.48 8.26-13.11 16.01-26.41 25.08-39.01 7.3-10.14 16.23-19.97 22.79-30.47 3.06-4.9 5.05-11 6.96-16.43 3.52-10.01 7.59-19.78 11.96-29.44 8.04-17.79 16.94-35.13 27.5-51.57 13.35-20.78 29.36-40.51 47.3-57.51 19.81-18.76 41.32-32.76 66.27-43.75 27.56-12.14 57.72-20.68 87.44-25.45 29.35-4.71 59.13-5.56 88.78-3.86 28.92 1.66 57 5.89 84.69 14.58 30.41 9.54 59.24 23.78 86.37 40.41 27.32 16.74 52.94 35.84 79.07 54.32 21.46 15.17 43.37 29.78 66.63 42.1 24.73 13.09 50.72 23.98 76.89 33.83 27.09 10.2 54.62 19.17 82.16 28.03 30.75 9.9 61.35 19.85 90.91 32.99 34.85 15.5 67.32 35.01 97.71 58.03 34.44 26.08 66.29 55.88 96.3 86.9 29.83 30.85 58.36 63.66 80.86 100.34 21.04 34.31 35.77 71.11 47.02 109.65 10.52 36.06 18.03 72.98 22.7 110.25 4.83 38.51 6.62 77.52 3.25 116.24-1.6 18.46-4.38 36.84-8.51 54.91 22.05 14.45 43.65 29.6 64.58 45.64 24.56 18.82 48.11 38.9 70.7 60.04 26.02 24.36 51.1 49.84 74.69 76.56 19.26 21.82 37.33 44.67 53.86 68.62 13.41 19.43 26.23 39.75 33.78 62.27 6.63 19.79 8.77 40.66 6.73 61.41-1.76 17.86-6.5 34.54-16.1 49.84-9.66 15.39-22.7 26.9-38.02 36.43-20.73 12.89-42.71 19.72-66.6 23.89-31.29 5.47-64.41 7.46-96.16 7.65-27.48.16-53.67-1.77-79.95-10.44-25.98-8.58-48.95-22.44-69.55-40.35-22.73-19.76-42.04-43.62-59.14-68.32-17.69-25.55-33.23-52.41-49.64-78.77-13.31-21.38-27.43-42.2-40.04-64.02-38.6 11.73-79.36 18.52-119.25 22.43-54.6 5.36-109.61 4.88-164.32 1.57-31.41-1.9-62.78-4.52-94.07-7.89-18.97 7.95-40.18 5.97-57.71-4.72a69.896 69.896 0 0 1 -21.83-5.6c-2.64-.4-5.27-.81-7.91-1.23-40.4-6.36-79.48-15.04-118.28-28.11-38.2-12.87-74.39-28.64-108.64-50.05a530.559 530.559 0 0 1 -27.53-18.46c-3.29 7.26-7.34 14.27-12.22 21.2-10.22 14.52-23.5 28.48-37.83 38.99-15.66 11.49-33.04 18.95-52.31 21.7-16.85 2.4-33.53 1-50.04-2.88-20.95-4.91-39.82-13.53-56.32-27.5-18.26-15.47-32.04-36.13-42.58-57.44-11.12-22.51-19.18-46.84-23.53-71.57-4.33-24.61-4.98-49.74-3.7-74.65 1.14-22.23 3.83-44.41 8.43-66.19 4.34-20.57 10.48-40.61 17.91-60.27 6.52-17.27 13.92-34.15 21.13-51.14 1.48-3.49 2.93-6.98 4.48-10.44l4.48-10.02c-.95-6.46-1.6-12.97-1.84-19.49-.04-1.08-.07-2.16-.08-3.23-2.56-.71-5.11-1.47-7.65-2.28-16.7-5.31-32.71-12.48-48.3-20.46-7.15 9.25-14.61 18.27-22.62 26.81-18.2 19.43-39.47 35.69-64.62 44.95-25.42 9.37-49.36 9.15-74.33-1.6-22.73-9.79-44.19-27.09-60.48-45.62-16.45-18.7-29.57-40.77-39.66-63.49-7.97-17.96-14.18-36.79-18.17-56.04-3.57-17.24-6.14-36-8.32-53.46-3.35-26.79-10.16-67 15.79-84.91l5.09-3.51 5.94-1.74c16.22-4.74 32.8 1.41 43.4 14.07 3.3 3.94 5.98 8.33 8.41 12.85.18.34.37.68.55 1.03z" fill="#fefefe"/><path d="m392.12 617.42c-.48-.01-.96-.03-1.45-.05-13.31-.63-26.57-3.36-39.25-7.39-18.85-5.99-37.19-15.02-54.54-24.44-25.55-13.88-51.98-30.73-70.24-53.81-19.25-24.33-28.94-55.39-28.81-86.27.11-26.91 7.7-53.66 18.74-78.04 7.96-17.56 17.45-32.45 27.65-48.63 7.83-12.43 15.17-25.11 23.77-37.05 7.79-10.81 17.18-21.34 24.19-32.55 4.89-7.82 7.59-15.43 10.61-24.03 3.19-9.05 6.78-17.64 10.73-26.38 7.27-16.1 15.25-31.74 24.81-46.62 11.62-18.07 25.8-35.61 41.4-50.39 16.68-15.8 34.25-27.2 55.34-36.49 24.37-10.73 51.73-18.46 78.05-22.68 26.61-4.27 53.61-4.98 80.49-3.43 25.88 1.49 50.6 5.1 75.41 12.88 27.33 8.57 53.42 21.57 77.79 36.51 26.54 16.26 51.58 34.98 76.98 52.93 22.93 16.21 45.98 31.52 70.82 44.67 26.08 13.81 53.72 25.44 81.33 35.83 27.68 10.42 55.78 19.59 83.93 28.65 29.47 9.48 58.74 18.92 87.07 31.53 32.27 14.35 61.99 32.24 90.14 53.55 32.64 24.72 63.43 53.57 91.88 82.98 27.71 28.65 54.84 59.66 75.73 93.72 19.31 31.48 32.57 64.98 42.89 100.33 9.95 34.1 17.04 69.02 21.46 104.27 4.49 35.83 6.23 72.12 3.1 108.13-2.22 25.52-6.88 50.91-14.69 75.31 7.57 4.71 14.97 9.55 22.02 14.16 21.74 14.21 43.02 29.1 63.64 44.9 23.6 18.08 46.1 37.28 67.81 57.59 25.01 23.41 49.47 48.26 72.14 73.94 18.26 20.69 35.36 42.31 51.04 65.02 11.07 16.05 22.75 34.09 28.97 52.66 4.94 14.75 6.44 29.99 4.92 45.44-1.17 11.86-4.02 23-10.41 33.18-6.49 10.35-15.5 17.84-25.77 24.23-16.47 10.24-33.93 15.35-52.94 18.68-28.35 4.96-60.94 6.9-89.77 7.07-23.18.14-45.51-1.19-67.68-8.51-21.15-6.99-39.63-18.29-56.39-32.86-20.15-17.52-37.61-39.31-52.77-61.2-17.31-25-32.55-51.41-48.61-77.21-13.43-21.58-27.85-42.75-40.47-64.8-4.9-8.57-9.46-17.24-13.86-25.99-4.77 1.93-9.65 3.76-14.67 5.5-40.08 13.92-84.53 21.64-126.66 25.78-52.58 5.16-105.56 4.64-158.25 1.46-58.98-3.56-119.49-9.84-177.86-19.03-38.84-6.11-74.73-14.02-111.99-26.57-35.56-11.98-68.63-26.28-100.54-46.22-25.77-16.1-51.34-35.8-74.71-56.71.22 10.39-.02 20.91-1.38 30.82-2.06 14.95-6.79 26.83-15.42 39.1-7.76 11.02-18.28 22.16-29.14 30.13-10.57 7.76-22.01 12.78-35.01 14.64-12.07 1.72-24.02.53-35.84-2.25-15-3.52-28.43-9.38-40.28-19.42-14.05-11.9-24.87-28.77-32.96-45.15-9.49-19.2-16.43-40.11-20.13-61.2-3.81-21.69-4.3-44.09-3.17-66.04 1.04-20.21 3.47-40.42 7.65-60.23 3.95-18.72 9.5-36.73 16.26-54.62 6.35-16.79 13.55-33.19 20.56-49.71 1.38-3.26 2.74-6.53 4.19-9.76l9.28-20.75c-1.79-8.82-3.01-17.57-3.32-25.87-.46-12.35 1.15-22.7 6.23-33.25z" fill="#373435"/><path d="m318.89 230.82c-2.71 7.69-5.74 17-12.24 27.4s-16.47 21.88-24.81 33.47-15.06 23.29-23.18 36.18c-8.13 12.89-17.66 26.97-26.54 46.58s-17.12 44.74-17.22 71.06c-.11 26.32 7.91 53.84 25.13 75.61s43.66 37.8 65 49.4c21.34 11.59 37.59 18.74 51.56 23.18s25.67 6.18 34.88 6.61 15.92-.43 20.8-.32c4.87.11 7.91 1.19 7.04 4.66s-5.63 9.32-9.64 16.14-7.26 14.63-6.71 29.25c.54 14.62 4.87 36.07 15.92 68.35s28.81 75.39 47.45 109.73c18.63 34.34 38.13 59.91 65.54 87.31 27.4 27.41 62.72 56.65 96.52 77.77 33.79 21.12 66.08 34.12 96.95 44.52s60.34 18.2 109.19 25.89 117.1 15.28 176.24 18.85c59.15 3.57 109.19 3.14 155.55-1.41s89.04-13.21 122.73-24.91 58.39-26.43 81.46-48.31 44.52-50.91 59.14-82.76c14.63-31.85 22.42-66.51 25.46-101.39 3.03-34.88 1.3-69.97-3.03-104.53-4.33-34.55-11.27-68.57-20.91-101.61s-21.99-65.1-41.05-96.19-44.85-61.2-73.44-90.77c-28.6-29.57-60.01-58.61-89.91-81.24-29.9-22.64-58.28-38.89-86.77-51.56s-57.08-21.77-85.36-30.87c-28.27-9.1-56.22-18.2-84.71-28.92s-57.52-23.07-83.3-36.72-48.31-28.6-72.68-45.82-50.59-36.72-76.04-52.32c-25.46-15.6-50.15-27.3-73.98-34.77s-46.8-10.72-71.28-12.13-50.48-.98-76.8 3.25c-26.32 4.22-52.97 12.24-73.88 21.45s-36.07 19.61-50.48 33.25c-14.41 13.65-28.06 30.55-38.78 47.23s-18.52 33.15-23.61 44.41-7.47 17.33-10.18 25.02z" fill="#c3caca"/><path d="m392.42 714.13c-5.46 12.88-13.66 31.48-20.29 49.03-6.63 17.56-11.71 34.07-15.48 51.96-3.77 17.88-6.24 37.13-7.28 57.42s-.65 41.62 2.92 61.97c3.58 20.35 10.34 39.73 18.53 56.32 8.19 16.58 17.82 30.37 28.42 39.34s22.17 13.14 32.71 15.61c10.53 2.47 20.03 3.25 29.13 1.95s17.82-4.68 26.86-11.31 18.4-16.52 25.04-25.95c6.63-9.43 10.53-18.4 12.29-31.15 1.75-12.75 1.36-29.26.52-45.45l-.02-.45a672.12 672.12 0 0 1 -5.99-5.91c-28.19-28.19-49.44-56.16-68.47-91.24-19-35.02-35.7-74.69-48.59-112.34-2.09-6.1-4.23-12.56-6.25-19.23-1.25 2.78-2.54 5.9-4.05 9.44z" fill="#c3caca" stroke="#373435" stroke-miterlimit="22.926" stroke-width="5.2"/><path d="m990.99 1031.31c-.29 1.9-.31 5.04-.36 6.41-.23 5.94-.65 12.63-2.71 18.23-4.16 11.27-14.73 16.01-26.09 12.22-2.59-.86-9.87-4.65-11.94-4.75-1.15.14-3.03 1.9-3.69 2.8-2.73 3.75-3.73 9.32-7.12 13.96-5.59 7.64-14.98 11.95-24.42 10.9-8.62-.96-15-6.03-20.32-12.52-1.34-1.63-5.11-6.98-7.22-8.95-1.66 1.74-4.32 5.83-5.57 7.32-6.2 7.42-14.35 11.26-24.14 9.87-11.37-1.6-20.63-9.38-26.43-18.99-7.02-11.63-10.53-27.82-12.68-41.13-2.63-16.25-4.04-33.77-3.21-50.21.76-15.03 3.66-29.01 7.35-43.53 3.27-12.87 6.83-25.62 9.33-38.68 2.67-13.99 4.26-28.35 4.64-42.59.42-15.8-.69-31.65-1.89-47.4-.59-7.69-1.22-15.39-1.85-23.08-9.94-2.58-18.4-6.66-27.15-13.45-11.73-9.1-22.5-21.67-28.81-35.19-6.21-13.29-8.56-28.46-8.18-43.05.34-12.62 5.87-11.94 18.07-9.5 4.11.82 9.79 2.17 22.41-.3 12.63-2.46 32.2-8.74 43.85-14.49s15.39-10.98 19.94-17.26c4.56-6.27 9.94-13.6 12.92-18.83 2.99-5.23 3.59-8.36 5.98-12.62s6.57-9.64 10.38-12.4c2.39-1.73 4.39 1.32 6.77 3.31 8.19 6.84 15.9 13.94 22.22 22.61 7.5 10.3 12.42 22.05 15.8 34.28 3.7 13.36 5.79 27.91 4.9 41.79-.19 2.97-.53 5.88-1 8.72 3.16 4.04 6.19 8.09 9.08 11.95 12.52 16.78 25.08 34.54 35.7 52.58 9.85 16.73 15.84 31.51 21.29 50.14 5.86 20.01 10.64 40.51 15.46 60.81 3.62 15.27 6.06 26.67 6.48 42.49.47 17.79-.23 38.28-2.38 55.92-1.56 12.82-4.12 25.04-15.79 32.41-6.78 4.29-14.73 6.04-22.4 8-1.52.39-5.18 1.28-7.19 2.18z" fill="#373435"/><path d="m864.35 1071.56c.99 2.6 2.29 5.29 3.97 7.88 2.88 4.42 6.9 8.58 10.92 10.72s8.04 2.28 12.39 1.54 9.05-2.34 12.66-5.36c3.45-2.88 5.94-7.04 7.55-11.79-1.98-1.21-3.89-3.08-5.9-5.52-3.45-4.21-7.18-10.15-11.87-12.91s-10.35-2.34-14.49.29c-4.13 2.64-6.74 7.49-9.57 10.87-1.71 2.05-3.5 3.55-5.67 4.28z" fill="#d2d3d5"/><path d="m869.62 1073.37c11.61 23.49 31.87 14.58 37.27 2.59-10.2-9.26-16.89-29.05-31.05-9.51l-6.22 6.91zm-7.13 4.15-3.5-8.5c14.99-5.01 11.36-18.57 27.78-18.89 15.44-.3 16.43 14.3 30.05 22.63-10.1 29.73-40.82 31.53-54.34 4.76z" fill="#373435" fill-rule="nonzero"/><path d="m928.04 1069.56c1.15 1.78 2.44 3.47 3.92 4.88 4.9 4.66 11.89 6.41 18 5.94 6.12-.47 11.36-3.15 14.45-7.81s4.02-11.3 4.37-17.48l.04-.67c-.67-.06-1.41-.23-2.25-.51-4.14-1.38-10.49-5.52-16.71-5.52-6.21 0-12.29 4.14-15.81 8.97-2.99 4.1-4.13 8.7-6.02 12.19z" fill="#d2d3d5"/><path d="m932.79 1069.17c6.29 8.09 29.27 15.29 31.69-11.64-12.96-4.84-21.8-11.82-31.69 11.64zm-6.14 5.52-3.39-4.96c6.99-12.93 12.93-34.09 40.76-21.37l9.12 2.32c-.81 14.89-2.42 32.23-22.87 33.79-8.93.68-17.85-2.53-23.62-9.79z" fill="#373435" fill-rule="nonzero"/><path d="m1008.14 1010.62c.07 1.1.11 2.23.1 3.4-.06 7.98-2.15 17.66-4.72 23.95-2.56 6.29-5.59 9.21-10.66 10.14s-12.18-.12-17.31-2.8l-.5-.27c.3-2.38.46-5.07.56-7.9.21-5.45.21-11.39 3.24-15.26 3.04-3.87 9.11-5.66 15.6-7.32 4.67-1.19 9.55-2.31 13.67-3.95z" fill="#d2d3d5"/><path d="m1012.25 1010.36c1.18 26.35-9.16 54.5-41.64 36.96 2.99-23.87-3.17-30.23 24.94-37.28l16.32-5.34.38 5.65zm-9.39 15.06c.6-3.05 1.02-6.18 1.19-9.09-25.66 7.44-22.91 3.23-24.61 26.24 16.06 6.23 20.49-2.3 23.41-17.14z" fill="#373435" fill-rule="nonzero"/><path d="m786.72 662.39c-.5 8.39-2.51 16.7-2.79 27.52-.29 10.82 1.15 24.15 6.74 36.12s15.34 22.58 24.3 29.53 17.13 10.25 28.88 12.26c.93.16 1.87.31 2.84.45.92 11.31 1.94 23.59 2.81 34.86 1.38 18.02 2.35 33.48 1.93 48.95-.41 15.46-2.21 30.93-4.9 45.01s-6.28 26.78-9.52 39.55-6.15 25.61-6.9 40.59c-.76 14.98.62 32.1 3.04 47.06s5.88 27.76 10.71 35.77 11.04 11.23 15.67 11.88c4.63.66 7.68-1.25 10.52-4.64 2.83-3.38 5.44-8.24 9.57-10.87 4.14-2.63 9.8-3.05 14.49-.29s8.42 8.7 11.87 12.91 6.63 6.7 10.36 7.11c3.73.42 8.01-1.24 10.63-4.83 2.63-3.59 3.59-9.11 7.11-13.94s9.6-8.97 15.81-8.97 12.57 4.14 16.71 5.52 6.08 0 7.25-3.18c1.17-3.17 1.59-8.14 1.79-13.6.21-5.45.21-11.39 3.24-15.26 3.04-3.87 9.11-5.66 15.6-7.32s13.39-3.17 18.09-6.14c4.69-2.97 7.18-7.39 8.91-21.54s2.69-38.04 2.28-53.71-2.21-23.13-6.08-39.42-9.8-41.42-15.26-60.06c-5.45-18.64-10.42-30.79-19.81-46.74s-23.19-35.69-34.79-51.22c-4.9-6.56-9.41-12.38-13.55-17.42 1.17-4.31 1.84-8.72 2.13-13.23.79-12.25-1.22-25.3-4.37-36.69-3.15-11.4-7.46-21.14-13.4-29.31-5.95-8.17-13.55-14.77-19.64-19.86s-10.68-8.67-16.34-11.54-12.4-5.02-21-5.81-19.07-.21-28.53 1.65-17.92 5.02-25.73 10.82-14.98 14.26-18.06 22.72-2.08 16.92-2.58 25.3z" fill="#c3caca"/><path d="m536.5 270.96c21.11.08 42.23 0 63.33.25 10.52.13 25.94-1.37 28.73 12.18 1.05 5.08.4 11.1-.91 16.08-1.76 6.68-5.07 13.15-9.17 18.69-4.59 6.2-10.55 11.77-17.15 15.78-7.09 4.3-14.72 6.65-22.95 7.55-8.49.93-17.88.43-26.14-1.79-8.42-2.26-15.55-6.29-22.4-11.6-6.48-5.02-12.9-11.25-17.48-18.04-3.76-5.57-6.81-12.46-7.9-19.12-1.13-6.89.35-13.84 6.72-17.74 5.63-3.44 18.92-2.27 25.33-2.24z" fill="#373435"/><path d="m536.46 282.8c16.32.06 47.3.06 63.24.25s16.82.57 17.27 2.73c.44 2.16.44 6.1-.76 10.67-1.21 4.57-3.62 9.77-7.24 14.66s-8.44 9.46-13.78 12.7c-5.33 3.24-11.18 5.14-18.1 5.9s-14.92.38-21.78-1.46-12.57-5.14-18.22-9.52-11.24-9.84-14.92-15.3-5.46-10.92-6.03-14.41.06-5.02 1.21-5.71c1.14-.7 2.79-.57 19.11-.51z" fill="#fefefe"/><path d="m533.91 279.71c16.32.06 50.49.24 66.42.43l.04 2.92c-.38 3.61-1.2 7.51-2.64 11.23-2.16 5.59-5.71 10.79-11.37 14.16-5.65 3.36-13.4 4.89-19.36 4.89-5.97 0-10.16-1.52-15.17-5.71-5.02-4.19-10.86-11.05-14.22-17.21-1.47-2.7-2.47-5.26-3.22-7.63zm-231.96-14.54c6.91-.42 11.62-.41 18.54-.55 4.53-.09 10.67-.41 14.97 1.04 8.65 2.93 9.26 10.56 8.45 18.32-.93 8.95-2.96 19.12-7.06 27.19-4.28 8.44-11.31 15.3-19.71 19.6-6.14 3.14-12.1 4.41-18.96 4.27-5.08-.1-10.61-.89-15.38-2.71-4.78-1.82-8.51-4.62-11.62-8.64-2.95-3.81-4.14-3.67-4.68-8.49 11.04-17.86 23.06-33.35 35.45-50.05z" fill="#373435"/><path d="m300.25 275.41c4.94-.3 14.15-.54 20.44-.66s9.66-.12 11.53.51 2.23 1.9 1.63 7.68-2.17 16.07-6.02 23.66-10 12.46-15.29 15.17c-5.3 2.71-9.75 3.25-14.14 3.16-4.4-.09-8.73-.81-11.97-2.05s-5.38-2.99-7.23-5.38c-1.86-2.39-3.42-5.43-3.74-8.26s.62-5.45 3.92-10.88c3.3-5.44 8.96-13.68 12.12-17.99 3.16-4.3 3.82-4.67 8.76-4.97z" fill="#fefefe"/><path d="m310.66 273.22c.17 2.31.16 5.27.23 9.18.06 3.91-.15 10.69-2.11 14.21s-5.63 5.15-9.96 6.08c-4.34.93-9.34 1.17-14.36-.15-2.11-.56-4.22-1.39-6.2-2.38.39-.68-2.05-.51-.28-3.4 1.78-2.88 8.84-12.51 12-16.82 3.16-4.3 6.39-6.5 10.16-6.73s6.6.12 10.52 0zm378.07 298.58c8.19.67 17.4-.19 24.43-1.73 9.49-2.08 19.34-6.05 28.13-10.94 2.93-2.61 5.75-5.24 8.27-7.89 11.6-12.21 16.65-24.77 19.99-34.38 3.34-9.62 4.98-16.3 8.66-19.37s9.42-2.53 12.42 1.16c3 3.68 3.28 10.5 2.93 21.42-.34 10.92-1.3 25.92-2.73 38.68-.6 5.38-1.29 10.36-2.19 14.96v.03c-2.27 13.89-6.12 26.81-12.75 40.08-12.66 25.31-33.93 48.82-56.41 65.79-24.8 18.72-55.63 33.13-86.3 38.31-30.5 5.15-59.29.78-88.29-9.45-29.97-10.58-59.46-26.91-85.06-45.78-21.12-15.58-42.22-34.69-59.74-54.3-7.44-8.33-13.62-17.68-21.27-25.65-11.11-11.56-25.1-23.93-37.86-33.63-5.88-4.47-11.46-8.57-18.84-9.84-3.85-.66-8.94-1.09-12.56.71-5.6 2.8-15.91 17.9-19.49 22.87-15.45 21.48-31.16 44.51-49.26 63.83-14.02 14.97-30.46 28.02-49.87 35.18-16.15 5.95-29.92 6.03-45.86-.84-17.37-7.48-34.42-21.58-46.82-35.7-13.8-15.7-24.94-34.65-33.4-53.72-6.85-15.44-12.24-31.71-15.67-48.26-1.68-8.1-16.39-93.39-8.32-98.96 8.4-2.46 30.7 77.71 54.52 81.66-2.64-6.24-4.94-12.95-6.64-19.22-1.12-4.13-4.58-27.87-3.43-32.12 6.18-6.28 28.42 22.05 51.15 17.26 10.21-2.15 14.15-10.75 18.69-19.43 7.68-14.68 14.62-30.99 20.61-46.45 4.48-11.56 8.21-24.25 13.47-35.37 4.96-10.5 11.83-19.91 22.3-25.42 11.08-5.83 23.98-6.14 35.99-3.5 14.75 3.25 27.94 10.78 38.69 21.33 11.5 11.29 21.33 26.91 28.74 41.18 2.99 5.76 5.56 11.44 8 17.21 1.98-2.67 3.98-5.33 6.03-7.96 10.96-14.06 22.75-26.32 37.7-36.23 18.85-12.49 41.38-20.44 63.89-22.49 25.24-2.31 51.83 2.57 73.07 16.92 21.81 14.72 36.99 38.76 49.24 61.54 10.86 20.2 20.77 43.86 33.79 62.44 3.31 4.72 6.92 9.09 10.89 13.06 4.8-5.52 8.05-12.51 9.87-22.1 1.98-10.44 2.25-23.95 1.36-34.79-.89-10.85-2.93-19.04-4.43-24.97s-2.46-9.62-2.11-13.03c.34-3.41 1.98-6.55 5.39-5.46s8.59 6.41 12.55 12.49c3.96 6.07 6.68 12.89 7.03 28.24.34 15.35-1.71 39.23-4.3 54.65-1.53 9.09-3.25 15.24-5.28 19.81l1.18.61c9.64 4.86 18.38 6.91 29.17 6.91 2.5 0 5.06-.1 7.65-.27 3.72-3.3 7.34-6.7 10.54-10.07 11.05-11.67 16.92-22.99 21.22-32.81 4.3-9.83 7.02-18.15 10.37-22.38 3.34-4.23 7.3-4.37 10.58-.75 3.27 3.62 5.87 10.99 3.62 20.95s-9.35 22.51-22.79 36.5c-1.04 1.08-2.12 2.17-3.23 3.27 6.88-2.01 15.25-4.73 21.25-3.38 9.1 2.05 13.84 10.89 11.36 19.74-1.45 5.18-5.08 9.71-8.85 13.42-5.8 5.71-13.53 11.47-20.97 16.45z" fill="#373435"/><path d="m315.85 438.76c-2.39-5.93-6.02-15.87-12.52-28.39s-15.87-27.63-26.28-37.85c-10.42-10.23-21.89-15.58-32.31-17.87-10.42-2.3-19.79-1.53-27.05 2.3-7.27 3.82-12.43 10.71-16.54 19.4-4.11 8.7-7.17 19.21-13.09 34.51-5.93 15.29-14.72 35.36-21.22 47.79s-10.71 17.21-14.62 20.36c-3.92 3.15-7.55 4.68-13 5.83s-12.71 1.91-19.5.1c-6.79-1.82-13.09-6.22-16.34-7.55-3.25-1.34-3.44.38-1.91 6.02s4.78 15.2 8.32 22.56 7.36 12.52 7.84 16.06-2.39 5.45-6.88 5.26-10.61-2.49-18.64-7.65-17.97-13.19-23.99-19.02-8.13-9.47-8.79-6.21c-.67 3.25.1 13.38 2.77 26.28s7.26 28.58 14.81 45.59 18.06 35.37 31.26 50.38c13.19 15.01 29.06 26.67 42.16 32.31 13.09 5.64 23.42 5.26 36.13.57 12.71-4.68 27.81-13.67 44.83-31.83 17.01-18.16 35.94-45.5 48.18-62.51 12.23-17.01 17.78-23.71 24.28-26.96s13.96-3.06 20.65-1.91 12.62 3.25 24.57 12.33 29.92 25.14 39.38 34.99c9.46 9.84 10.42 13.48 21.6 26s32.6 33.94 57.74 52.48 54 34.22 81.63 43.97c27.62 9.75 54.01 13.57 81.73 8.89s56.78-17.87 80.58-35.84 42.34-40.72 52.57-61.18c10.23-20.45 12.14-38.62 13.1-48.56s.96-11.66-2.1-9.27-9.18 8.89-19.5 15.68c-10.32 6.78-24.85 13.86-39.67 17.11s-29.92 2.68-39.09.19c-9.18-2.49-12.43-6.88-12.71-9.46-.29-2.58 2.39-3.35 9.94-8.03s19.98-13.29 26.38-19.6 6.79-10.33 3.82-10.99c-2.96-.67-9.27 2.01-19.5 4.49-10.23 2.49-24.38 4.78-36.8 4.78-12.43 0-23.13-2.3-35.08-8.32s-25.14-15.77-36.99-32.69-22.37-41.01-34.6-63.76c-12.24-22.75-26.19-44.16-45.02-56.87s-42.54-16.73-64.52-14.72-42.25 10.03-57.83 20.36c-15.58 10.32-26.48 22.94-34.6 33.36-8.13 10.42-13.48 18.64-16.73 21.8-3.25 3.15-4.4 1.24-6.79-4.68z" fill="#604323" stroke="#373435" stroke-miterlimit="22.926" stroke-width="5.2"/><path d="m898.83 287.44c-.34 10.62.56 24.4 6.21 37.17s16.04 24.51 26.32 35.13 20.45 20.11 25.42 31.18 4.74 23.72.9 32.99c-3.84 9.26-11.3 15.14-22.03 13.78s-24.74-9.94-39.65-22.82-30.73-30.05-40.45-52.42c-9.71-22.37-13.33-49.93-10.96-70.16 2.37-20.22 10.73-33.1 20.79-40.33s21.8-8.81 28.24-6.21 7.57 9.37 7.34 16.49c-.22 7.12-1.81 14.58-2.14 25.2zm53.21 5.31c.68 8.7 2.94 23.84 8.02 36.49s12.99 22.82 24.29 22.03 25.98-12.54 27.9-24.18-8.92-23.16-18.75-30.62-18.64-10.85-25.19-12.99c-6.55-2.15-10.85-3.05-13.45-2.37s-3.5 2.93-2.83 11.63zm113.66 96.37c-9.26-7.68-20.56-8.81-26.78.23-6.21 9.04-7.34 28.24-2.26 42.93s16.38 24.85 27.11 30.96c10.73 6.1 20.9 8.13 25.08 1.13 4.18-7.01 2.37-23.05-2.15-38.19s-11.75-29.37-21.01-37.05zm22.56-111.23c7.69 20.46 17.11 43.21 26.17 61.86 15.69 32.27 30.33 52.29 37.95 73.36s8.22 43.18.45 69.78c-7.77 26.59-23.91 57.67-22.71 75.3s19.72 21.82 33.77 9.42 23.61-41.39 28.54-66.64 5.23-46.77 7.92-71.57 7.77-52.89 5.38-78.29c-.61-6.48-1.71-12.78-3.25-19.02-21.19-14.05-41.81-25.13-62.5-34.33-17.23-7.67-34.5-14.02-51.72-19.87zm145.68 216.5c-3.81 4.67-11.62 12.1-14.86 23.54-3.24 11.43-1.9 26.87 3.72 33.35s15.53 4 21.72-4 8.67-21.54 6.86-32.68c-1.81-11.15-7.91-19.92-10.86-23.35s-2.76-1.52-6.57 3.15zm43.9-101.87c-.47 3.41-.81 7.07-1.02 10.96-1.14 21.25 1.72 49.27 6.38 72.32 4.67 23.06 11.15 41.16 18.87 50.31s16.67 9.34 21.53 3.24 5.63-18.49 5.24-34.49c-.38-16.01-1.91-35.64-1.43-52.6l.01-.39c-3.54-3.78-7.13-7.55-10.77-11.31-12.52-12.95-25.58-25.79-38.82-38.04zm117.36 137.42c-7.26 7.11-14.19 14.92-19.75 22.57-12.67 17.44-18.2 34.02-23.92 49.26-5.72 15.25-11.62 29.16-10.39 43.35 1.24 14.2 9.62 28.68 22.58 32.02s30.49-4.48 34.88-11.15c4.38-6.67-4.38-12.2-4.95-22.59s7.05-25.63 15.25-35.83c4.6-5.73 9.39-9.87 14.66-14.1-7.43-21.61-16.5-42.8-28.35-63.56z" fill="#a6a8a8"/><path d="m1325.55 1059.55c3.97 7.85 8.32 16.11 13.05 24.38 11.45 20.02 25.07 40.04 40.12 64.23 15.06 24.19 31.56 52.54 48.13 76.48 16.58 23.95 33.24 43.49 49.81 57.9 16.58 14.42 33.08 23.71 50.29 29.39 17.22 5.69 35.16 7.77 61.99 7.61s62.55-2.56 86.82-6.81c24.27-4.24 37.08-10.33 46.61-16.26 9.53-5.92 15.78-11.69 20.1-18.58 4.33-6.89 6.73-14.89 7.77-25.47 1.04-10.57.72-23.71-4.09-38.04-4.8-14.34-14.09-29.87-26.75-48.21-12.65-18.34-28.67-39.49-49.74-63.35-21.06-23.86-47.17-50.46-70.96-72.72-23.78-22.26-45.25-40.2-66.47-56.46s-42.21-30.83-62.55-44.13c-6.26-4.09-12.46-8.06-18.42-11.78-1.91 4.87-3.95 9.69-6.14 14.45-14.92 32.49-36.98 63.43-62.91 88.03-17.64 16.72-36.08 29.3-56.69 39.33z" fill="#c3caca"/><path d="m1394.31 1042.3c20.42 29.16 56.74 77.45 82.76 102.68 26.01 25.23 41.72 27.39 44.08 20.52s-8.64-22.77-30.04-49.28-53.21-63.61-72.64-86.68c-9.54-11.32-16.09-19.26-21.11-24.85-4.86 5.4-9.91 10.59-15.11 15.52l-1.69 1.58c3.47 5.52 7.97 12.25 13.75 20.51zm-46.53 9.62c17.08 31.9 50.07 87.27 74.7 119.07 24.64 31.81 40.94 40.05 41.82 30.33s-13.64-37.4-35.53-71.76c-20.5-32.18-47.46-70.21-65.56-93.13-5.64 4.29-11.4 8.25-17.32 11.92l1.89 3.56zm74.02-64.89c16.88 24.54 49.48 68.91 76.27 98.56 26.8 29.65 47.81 44.57 58.02 47.41 10.21 2.85 9.62-6.38-12.57-37.69-22.18-31.31-65.97-84.72-92.47-117.8-7.08-8.84-12.93-16.22-17.8-22.32-4.93 8.55-10.33 16.9-16.13 24.95 1.41 2.11 2.96 4.39 4.68 6.89z" fill="#a6a8a8"/></svg>