<svg fill="none" height="765" width="2500" xmlns="http://www.w3.org/2000/svg" viewBox="0 0 97.14474256634875 30"><path d="M37.403 6.71c.775 0 1.404.628 1.404 1.403V21.37c0 .564.457 1.021 1.02 1.021h5.417a1.403 1.403 0 0 1 0 2.807h-5.416A3.828 3.828 0 0 1 36 21.37V8.113c0-.775.628-1.403 1.403-1.403zm14.777 6.415a6.01 6.01 0 0 1 3.588 1.181 1.403 1.403 0 0 1 2.45.935v8.554a1.403 1.403 0 0 1-2.742.425 6.036 6.036 0 1 1-3.295-11.095zm0 2.807a3.23 3.23 0 1 0 0 6.46 3.23 3.23 0 0 0 0-6.46zm9.98-9.222c.774 0 1.403.628 1.403 1.403v5.948a6.036 6.036 0 1 1-.066 10.158 1.402 1.402 0 0 1-2.741-.425V8.114c0-.776.628-1.404 1.403-1.404zm4.632 9.222a3.23 3.23 0 1 0 0 6.46 3.23 3.23 0 0 0 0-6.46zm16.751-8.51a1.403 1.403 0 0 1 0 2.807h-5.23c-.667 0-1.207.54-1.207 1.208l-.001 3.559h5.547a1.403 1.403 0 1 1 0 2.807l-5.547-.001v3.568c0 .564.458 1.021 1.022 1.021h5.416a1.403 1.403 0 0 1 0 2.807h-5.416a3.828 3.828 0 0 1-3.828-3.828v-9.933a4.014 4.014 0 0 1 4.014-4.014zm10.944 6.569a1.403 1.403 0 0 1 2.164 1.788l-3.09 3.738 3.09 3.74a1.403 1.403 0 1 1-2.163 1.788L91.74 21.72l-2.747 3.325c-.463.56-1.27.669-1.86.273l-.116-.085a1.403 1.403 0 0 1-.188-1.976l3.09-3.74-3.09-3.738a1.403 1.403 0 0 1 2.164-1.788l2.747 3.323z" fill="#3c4858"/><path d="M21.5 0A1.5 1.5 0 0 1 23 1.5v5A1.5 1.5 0 0 1 21.5 8h-.503v1.515l8.72 12.108a1.5 1.5 0 0 1 .275.72L30 22.5v6a1.5 1.5 0 0 1-1.5 1.5h-27A1.5 1.5 0 0 1 0 28.5v-6a1.5 1.5 0 0 1 .283-.876L9 9.514V8H8.5a1.5 1.5 0 0 1-1.493-1.356L7 6.5v-5A1.5 1.5 0 0 1 8.5 0zM20 3H10v2h.501a1.5 1.5 0 0 1 1.493 1.356l.007.144v3.378c0 .394-.124.778-.354 1.097L3 22.983V27h24v-4.016l-8.648-12.009a1.878 1.878 0 0 1-.346-.929l-.008-.168V6.5a1.5 1.5 0 0 1 1.5-1.5H20zm-.6 18a1.5 1.5 0 0 1 0 3h-3.6a1.5 1.5 0 0 1 0-3zm-7.671-5.56l2.668 2.668a1.5 1.5 0 0 1 0 2.121l-2.668 2.668a1.5 1.5 0 1 1-2.121-2.121l1.607-1.607-1.607-1.608a1.5 1.5 0 0 1-.098-2.015l.098-.107a1.5 1.5 0 0 1 2.121 0z" fill="#2e7eee"/></svg>