<svg fill="none" height="2500" width="2500" xmlns="http://www.w3.org/2000/svg" viewBox="0 0 50 50"><path d="M0 0h50v50H0z" fill="#2e7eee"/><path d="M31.5 10a1.5 1.5 0 0 1 1.5 1.5v5a1.5 1.5 0 0 1-1.5 1.5h-.503v1.515l8.72 12.108a1.5 1.5 0 0 1 .275.72L40 32.5v6a1.5 1.5 0 0 1-1.5 1.5h-27a1.5 1.5 0 0 1-1.5-1.5v-6a1.5 1.5 0 0 1 .283-.876L19 19.514V18H18.5a1.5 1.5 0 0 1-1.493-1.355L17 16.5v-5a1.5 1.5 0 0 1 1.5-1.5zM30 13H20v2h.501a1.5 1.5 0 0 1 1.493 1.355l.007.145v3.378c0 .394-.124.778-.354 1.097L13 32.983V37h24v-4.016l-8.648-12.009a1.878 1.878 0 0 1-.346-.929l-.008-.168V16.5a1.5 1.5 0 0 1 1.5-1.5H30zm-.6 18a1.5 1.5 0 0 1 0 3h-3.6a1.5 1.5 0 0 1 0-3zm-7.671-5.56l2.668 2.668a1.5 1.5 0 0 1 0 2.121l-2.668 2.668a1.5 1.5 0 1 1-2.121-2.121l1.607-1.607-1.607-1.608a1.5 1.5 0 0 1-.098-2.015l.098-.107a1.5 1.5 0 0 1 2.121 0z" fill="#fff"/></svg>