<svg clip-rule="evenodd" fill-rule="evenodd" height="1352" stroke-linejoin="round" stroke-miterlimit="2" viewBox="-.001 -.002 232.91 125.9541766" width="2500" xmlns="http://www.w3.org/2000/svg"><g fill-rule="nonzero"><path d="m1.191 125.637a.17.17 0 0 1 -.027.097.185.185 0 0 1 -.097.066c-.047.016-.108.03-.184.041a1.952 1.952 0 0 1 -.287.018c-.111 0-.206-.006-.284-.018a1.037 1.037 0 0 1 -.187-.041.185.185 0 0 1 -.097-.066.17.17 0 0 1 -.028-.097v-8.6c0-.036.01-.069.032-.096a.207.207 0 0 1 .103-.066c.049-.016.111-.03.187-.042.076-.011.168-.017.274-.017.115 0 .211.006.287.017.076.012.137.026.184.042a.185.185 0 0 1 .097.066.17.17 0 0 1 .027.096zm7.808-1.877c0 .343-.063.65-.19.918a1.972 1.972 0 0 1 -.527.683c-.225.187-.49.328-.794.422a3.299 3.299 0 0 1 -.983.142c-.246 0-.474-.02-.684-.062a3.719 3.719 0 0 1 -.56-.154 2.7 2.7 0 0 1 -.415-.187c-.111-.064-.189-.119-.232-.164s-.076-.103-.096-.173a1.566 1.566 0 0 1 -.02-.487.503.503 0 0 1 .034-.134.148.148 0 0 1 .056-.07.156.156 0 0 1 .08-.02c.053 0 .127.032.224.096a3.498 3.498 0 0 0 .918.422c.214.067.46.1.74.1.212 0 .405-.029.581-.085.176-.057.327-.137.453-.241.127-.104.224-.232.292-.383s.102-.323.102-.516c0-.208-.047-.385-.141-.533s-.22-.277-.374-.388-.332-.214-.53-.306l-.61-.284a6.65 6.65 0 0 1 -.606-.32 2.576 2.576 0 0 1 -.528-.414 1.927 1.927 0 0 1 -.377-.558 1.858 1.858 0 0 1 -.144-.768c0-.306.056-.58.167-.82a1.69 1.69 0 0 1 .465-.603c.198-.163.434-.287.708-.372a2.977 2.977 0 0 1 1.378-.085c.164.029.32.067.465.114s.275.1.388.158c.114.06.188.106.224.142s.06.065.07.085c.012.021.022.047.03.08.007.032.013.07.016.116a2.165 2.165 0 0 1 -.003.357.702.702 0 0 1 -.025.133.163.163 0 0 1 -.048.08.109.109 0 0 1 -.071.025.457.457 0 0 1 -.196-.08c-.088-.052-.197-.112-.326-.178s-.28-.126-.456-.181a1.985 1.985 0 0 0 -.592-.082c-.204 0-.382.027-.533.082a1.092 1.092 0 0 0 -.374.218.863.863 0 0 0 -.221.323c-.05.125-.074.257-.074.397 0 .204.047.38.142.527.094.148.22.278.376.391.157.114.336.218.536.312.2.095.405.19.613.286.207.097.412.203.612.318s.379.251.536.408c.156.157.283.342.38.556.096.213.144.465.144.756zm6.591 1.632c0 .076-.003.139-.01.19a.464.464 0 0 1 -.038.13.196.196 0 0 1 -.062.08.15.15 0 0 1 -.088.025h-3.242a.402.402 0 0 1 -.246-.088c-.078-.058-.116-.161-.116-.309v-6.791c0-.03.007-.057.022-.08a.151.151 0 0 1 .08-.053c.037-.013.088-.025.153-.034s.142-.014.232-.014c.095 0 .173.004.235.014.063.01.113.02.15.034a.152.152 0 0 1 .08.054.14.14 0 0 1 .023.079v6.344h2.63a.15.15 0 0 1 .088.025.202.202 0 0 1 .062.074c.017.032.03.074.037.127s.012.117.012.193zm7.964.079c.03.084.046.15.048.202.002.05-.012.09-.042.116s-.08.043-.15.05-.164.012-.281.012-.21-.003-.28-.008a.628.628 0 0 1 -.16-.029.168.168 0 0 1 -.079-.053.45.45 0 0 1 -.048-.085l-.63-1.786h-3.05l-.6 1.763a.295.295 0 0 1 -.045.088.218.218 0 0 1 -.083.062.498.498 0 0 1 -.153.037 2.363 2.363 0 0 1 -.258.011c-.11 0-.199-.004-.269-.014s-.119-.027-.147-.054c-.029-.026-.042-.065-.04-.116a.7.7 0 0 1 .048-.201l2.46-6.814c.016-.042.036-.076.06-.102s.06-.048.108-.063a.805.805 0 0 1 .181-.03 4.29 4.29 0 0 1 .581 0c.08.005.144.015.193.03a.253.253 0 0 1 .113.065.304.304 0 0 1 .063.105zm-3.158-6.014h-.005l-1.264 3.656h2.55zm7.261 3.509v2.704a.14.14 0 0 1 -.023.08.15.15 0 0 1 -.078.053c-.038.013-.089.025-.153.034s-.14.014-.23.014c-.095 0-.173-.004-.235-.014s-.112-.02-.152-.034a.151.151 0 0 1 -.081-.054.14.14 0 0 1 -.023-.08v-2.703l-2.075-4.139a.917.917 0 0 1 -.076-.204c-.01-.049 0-.087.028-.113.028-.027.08-.044.153-.051s.173-.011.298-.011c.113 0 .205.003.275.01s.125.019.167.032a.196.196 0 0 1 .093.057c.021.024.04.056.06.093l1.015 2.11c.094.2.188.41.282.628.094.22.19.44.287.664h.011a36.548 36.548 0 0 1 .547-1.276l1.021-2.12a.29.29 0 0 1 .048-.096.187.187 0 0 1 .085-.06c.036-.013.086-.024.15-.031s.146-.011.244-.011a2.8 2.8 0 0 1 .32.014c.078.01.132.027.162.054.03.026.04.064.031.113a.827.827 0 0 1 -.076.198zm14.652.338c0 .42-.079.794-.234 1.122a2.41 2.41 0 0 1 -.642.834 2.79 2.79 0 0 1 -.97.516c-.372.115-.772.173-1.202.173-.3 0-.577-.026-.834-.076-.256-.051-.485-.113-.686-.187s-.369-.15-.505-.229-.23-.145-.283-.2-.094-.126-.119-.212-.038-.2-.038-.342c0-.102.004-.186.015-.253a.574.574 0 0 1 .041-.163.174.174 0 0 1 .07-.087.183.183 0 0 1 .096-.024c.065 0 .156.04.273.118a4.355 4.355 0 0 0 1.122.516c.26.08.562.12.904.12.259 0 .495-.034.71-.103.214-.07.398-.167.553-.294s.274-.283.356-.468c.085-.184.126-.394.126-.63 0-.253-.058-.47-.173-.65-.117-.18-.269-.339-.458-.475s-.405-.26-.647-.374-.49-.228-.744-.346-.501-.248-.742-.391a3.157 3.157 0 0 1 -.642-.506 2.338 2.338 0 0 1 -.461-.682c-.118-.26-.177-.573-.177-.938 0-.374.067-.707.205-1 .136-.294.325-.54.567-.738s.53-.35.866-.453a3.633 3.633 0 0 1 1.082-.156c.2 0 .4.017.6.052s.39.08.567.138c.18.058.337.123.475.194.138.072.23.13.274.173a.531.531 0 0 1 .086.104.399.399 0 0 1 .035.097c.01.04.017.087.021.142a3.1 3.1 0 0 1 -.004.436.723.723 0 0 1 -.031.163.186.186 0 0 1 -.06.097.13.13 0 0 1 -.085.031c-.052 0-.132-.032-.24-.097a7.278 7.278 0 0 0 -.397-.218c-.158-.08-.344-.155-.558-.222s-.455-.1-.724-.1c-.248 0-.465.033-.65.1s-.337.156-.458.267c-.12.11-.21.242-.269.395a1.3 1.3 0 0 0 -.09.484c0 .25.058.464.173.644s.269.34.46.478c.192.138.41.266.654.38.245.116.495.233.749.35s.502.248.747.388.463.307.655.499.345.418.463.678.178.57.178.925zm4.164 2.366c0 .03-.01.056-.024.08a.15.15 0 0 1 -.078.053c-.039.013-.089.025-.15.034s-.141.014-.236.014a1.64 1.64 0 0 1 -.233-.014.837.837 0 0 1 -.152-.034.149.149 0 0 1 -.08-.054.142.142 0 0 1 -.022-.08v-7.04c0-.03.007-.057.025-.08a.163.163 0 0 1 .084-.053c.04-.013.092-.025.154-.034s.137-.014.224-.014c.095 0 .173.004.235.014s.112.02.15.034a.15.15 0 0 1 .08.054.143.143 0 0 1 .023.079zm8.887-.255a.391.391 0 0 1 -.275.397.54.54 0 0 1 -.153.022h-.323c-.1 0-.19-.01-.266-.031-.077-.02-.15-.059-.217-.113s-.138-.13-.206-.224-.141-.216-.218-.363l-2.237-4.172a25.894 25.894 0 0 1 -.687-1.366h-.01c.008.272.014.55.016.833.005.283.006.565.006.844v4.428a.136.136 0 0 1 -.023.076.152.152 0 0 1 -.081.057c-.037.013-.088.025-.15.034s-.14.014-.236.014-.174-.004-.236-.014-.111-.02-.147-.034a.155.155 0 0 1 -.078-.057.136.136 0 0 1 -.024-.076v-6.77c0-.151.043-.259.129-.323s.18-.096.28-.096h.48c.114 0 .209.009.284.028a.59.59 0 0 1 .206.093c.06.044.118.104.175.182.057.077.116.175.178.292l1.72 3.22c.105.196.209.388.308.575.097.187.193.372.283.553l.272.536c.09.175.179.352.266.53h.006c-.007-.299-.013-.61-.015-.933l-.003-.932v-3.98c0-.026.01-.051.024-.074a.194.194 0 0 1 .081-.06.541.541 0 0 1 .15-.036c.061-.008.143-.011.242-.011.088 0 .164.003.227.01s.114.02.15.038a.192.192 0 0 1 .078.06.123.123 0 0 1 .023.073zm8.853-5.935c0 .071-.003.135-.012.19a.497.497 0 0 1 -.034.135.167.167 0 0 1 -.056.077.13.13 0 0 1 -.074.022c-.045 0-.12-.035-.226-.107a3.672 3.672 0 0 0 -.425-.238c-.177-.087-.39-.167-.638-.238s-.542-.108-.882-.108c-.405 0-.767.074-1.089.221a2.35 2.35 0 0 0 -.815.612c-.223.261-.394.57-.514.93a3.714 3.714 0 0 0 -.177 1.168c0 .468.065.884.195 1.247s.31.669.54.918c.232.25.507.439.826.567s.67.193 1.052.193c.226 0 .456-.027.688-.082s.45-.137.649-.247v-2.137h-1.7c-.064 0-.113-.032-.145-.096a.726.726 0 0 1 -.048-.3c0-.073.003-.134.01-.185a.407.407 0 0 1 .038-.125.19.19 0 0 1 .06-.07.147.147 0 0 1 .084-.023h2.33a.362.362 0 0 1 .24.09c.033.03.06.072.077.125a.53.53 0 0 1 .028.181v2.795a.592.592 0 0 1 -.05.255c-.034.072-.106.135-.215.19s-.252.115-.426.179a4.897 4.897 0 0 1 -1.099.266c-.189.023-.377.034-.561.034a4.123 4.123 0 0 1 -1.52-.263 3.088 3.088 0 0 1 -1.13-.751 3.276 3.276 0 0 1 -.706-1.168 4.481 4.481 0 0 1 -.244-1.52c0-.582.087-1.109.263-1.581s.424-.875.743-1.208c.32-.332.703-.59 1.15-.773s.945-.275 1.49-.275c.279 0 .542.024.787.073.245.05.464.107.654.173.192.066.352.138.483.216.13.077.22.14.27.19s.082.105.101.17.028.156.028.277zm7.012 5.912c0 .076-.004.139-.012.19a.484.484 0 0 1 -.037.13.21.21 0 0 1 -.062.08.154.154 0 0 1 -.088.025h-3.243a.4.4 0 0 1 -.246-.088c-.077-.058-.117-.161-.117-.309v-6.791c0-.03.007-.057.024-.08a.15.15 0 0 1 .078-.053c.038-.013.09-.025.154-.034s.141-.014.232-.014c.094 0 .172.004.236.014a.84.84 0 0 1 .15.034.149.149 0 0 1 .079.054.142.142 0 0 1 .022.079v6.344h2.63c.035 0 .064.008.09.025a.218.218 0 0 1 .061.074c.017.032.03.074.037.127s.012.117.012.193zm6.551.023c0 .068-.003.127-.012.178a.4.4 0 0 1 -.038.128.195.195 0 0 1 -.066.074.15.15 0 0 1 -.082.022h-3.521a.4.4 0 0 1 -.245-.088c-.079-.058-.117-.161-.117-.309v-6.542c0-.147.038-.25.117-.309a.4.4 0 0 1 .245-.087h3.481a.16.16 0 0 1 .083.022.16.16 0 0 1 .06.074.65.65 0 0 1 .036.127c.01.052.014.115.014.19 0 .068-.005.128-.014.179a.582.582 0 0 1 -.037.125.162.162 0 0 1 -.059.07.159.159 0 0 1 -.083.023h-2.868v2.302h2.46c.03 0 .058.008.082.025.025.017.046.041.062.071.018.03.03.072.037.125a1.36 1.36 0 0 1 0 .363.336.336 0 0 1 -.037.119.153.153 0 0 1 -.143.085h-2.461v2.625h2.908a.15.15 0 0 1 .082.022.199.199 0 0 1 .066.071.366.366 0 0 1 .038.125c.01.05.012.114.012.19zm17.847.222c0 .037-.01.07-.03.097a.19.19 0 0 1 -.098.066c-.048.016-.11.03-.182.041a1.937 1.937 0 0 1 -.29.018c-.109 0-.203-.006-.282-.018a.976.976 0 0 1 -.184-.041.18.18 0 0 1 -.096-.066.166.166 0 0 1 -.03-.097v-7.803h-.013l-3.158 7.838a.231.231 0 0 1 -.058.083.332.332 0 0 1 -.11.059.826.826 0 0 1 -.175.034 2.336 2.336 0 0 1 -.487-.003c-.07-.01-.128-.022-.173-.038s-.083-.036-.108-.059a.18.18 0 0 1 -.052-.076l-3.02-7.838h-.005v7.803c0 .037-.01.07-.03.097a.19.19 0 0 1 -.099.066c-.048.016-.11.03-.186.041a1.981 1.981 0 0 1 -.292.018c-.114 0-.208-.006-.285-.018a1.024 1.024 0 0 1 -.182-.041c-.046-.016-.077-.038-.093-.066a.188.188 0 0 1 -.025-.097v-8.24c0-.193.052-.332.155-.415a.537.537 0 0 1 .344-.125h.731c.151 0 .283.014.395.042s.211.072.295.132.154.136.21.228c.058.092.106.2.148.325l2.563 6.488h.033l2.667-6.467c.051-.138.108-.256.168-.353a.939.939 0 0 1 .201-.232.69.69 0 0 1 .242-.124c.09-.026.192-.039.31-.039h.767c.07 0 .137.01.201.032s.117.053.161.096.081.1.11.167.042.149.042.245zm9.361-.166c.03.084.046.15.047.202.003.05-.012.09-.041.116-.031.026-.082.043-.151.05s-.164.012-.28.012-.212-.003-.281-.008-.123-.015-.16-.029a.164.164 0 0 1 -.078-.053.394.394 0 0 1 -.049-.085l-.63-1.786h-3.05l-.6 1.763a.3.3 0 0 1 -.045.088.215.215 0 0 1 -.083.062.496.496 0 0 1 -.152.037 2.375 2.375 0 0 1 -.258.011c-.11 0-.2-.004-.27-.014s-.119-.027-.147-.054-.041-.065-.04-.116a.667.667 0 0 1 .049-.201l2.46-6.814a.284.284 0 0 1 .06-.102.233.233 0 0 1 .108-.063.791.791 0 0 1 .18-.03 4.324 4.324 0 0 1 .582 0 .88.88 0 0 1 .192.03c.049.015.087.037.114.065s.047.064.062.105zm-3.158-6.014h-.006l-1.265 3.656h2.551zm9.579 5.935c0 .076-.003.139-.012.19a.436.436 0 0 1 -.037.13.185.185 0 0 1 -.062.08.146.146 0 0 1 -.087.025h-3.244a.4.4 0 0 1 -.245-.088c-.078-.058-.117-.161-.117-.309v-6.791c0-.03.008-.057.022-.08a.155.155 0 0 1 .08-.053.842.842 0 0 1 .154-.034c.063-.01.14-.014.232-.014.094 0 .173.004.235.014s.112.02.15.034a.162.162 0 0 1 .08.054.142.142 0 0 1 .022.079v6.344h2.631c.034 0 .064.008.087.025a.19.19 0 0 1 .062.074c.018.032.03.074.037.127.009.053.012.117.012.193zm6.217-6.491c0 .072-.003.134-.01.187a.453.453 0 0 1 -.037.128.18.18 0 0 1 -.064.07.15.15 0 0 1 -.08.023h-2.064v6.36c0 .031-.008.057-.024.08a.15.15 0 0 1 -.078.054c-.039.013-.089.025-.151.034s-.14.014-.235.014a1.64 1.64 0 0 1 -.233-.014.837.837 0 0 1 -.152-.034.149.149 0 0 1 -.08-.054.142.142 0 0 1 -.022-.08v-6.36h-2.064c-.03 0-.057-.007-.083-.022s-.044-.04-.059-.071a.453.453 0 0 1 -.037-.128c-.01-.053-.014-.115-.014-.187s.004-.135.014-.19a.5.5 0 0 1 .037-.133c.015-.034.034-.059.06-.074s.051-.022.082-.022h5.102a.15.15 0 0 1 .081.022c.026.015.046.04.064.074a.5.5 0 0 1 .037.133c.007.055.01.118.01.19zm12.389 4.403c0 .42-.077.794-.232 1.122-.154.327-.37.605-.644.834s-.597.4-.969.516a4.03 4.03 0 0 1 -1.2.173c-.3 0-.58-.026-.835-.076-.256-.051-.485-.113-.686-.187s-.37-.15-.505-.229-.232-.145-.284-.2c-.053-.056-.093-.126-.118-.212s-.038-.2-.038-.342c0-.102.004-.186.013-.253a.623.623 0 0 1 .043-.163.18.18 0 0 1 .068-.087.192.192 0 0 1 .097-.024c.065 0 .157.04.274.118a4.355 4.355 0 0 0 1.122.516c.26.08.562.12.903.12.258 0 .495-.034.71-.103a1.68 1.68 0 0 0 .554-.294c.154-.127.273-.283.356-.468s.126-.394.126-.63c0-.253-.06-.47-.175-.65s-.267-.339-.456-.475-.405-.26-.647-.374-.49-.228-.744-.346-.501-.248-.742-.391a3.166 3.166 0 0 1 -.644-.506 2.333 2.333 0 0 1 -.46-.682c-.118-.26-.177-.573-.177-.938 0-.374.068-.707.204-1 .138-.294.327-.54.569-.738s.53-.35.866-.453a3.633 3.633 0 0 1 1.082-.156c.2 0 .4.017.6.052s.39.08.567.138.336.123.474.194.23.13.274.173c.044.044.073.079.087.104s.025.058.034.097c.01.04.016.087.02.142.006.055.008.127.008.215 0 .083-.003.157-.01.221-.008.065-.018.12-.032.163s-.034.076-.059.097a.132.132 0 0 1 -.085.031c-.052 0-.132-.032-.24-.097a7.383 7.383 0 0 0 -.398-.218c-.157-.08-.343-.155-.557-.222s-.457-.1-.724-.1c-.25 0-.467.033-.652.1s-.336.156-.456.267-.21.242-.27.395a1.33 1.33 0 0 0 -.09.484c0 .25.057.464.174.644.115.18.269.34.46.478s.41.266.654.38c.245.116.495.233.747.35.254.118.504.248.749.388.244.141.462.307.654.499.191.191.346.418.464.678.117.261.176.57.176.925zm8.087 1.476c0 .06-.001.113-.006.159a.635.635 0 0 1 -.019.119c-.009.034-.022.064-.037.09s-.041.059-.08.097a1.571 1.571 0 0 1 -.237.173 2.894 2.894 0 0 1 -.45.226c-.181.074-.386.136-.618.187a3.568 3.568 0 0 1 -.764.077c-.476 0-.905-.08-1.29-.238-.382-.159-.71-.393-.98-.703s-.477-.693-.624-1.148a5.194 5.194 0 0 1 -.218-1.573c0-.609.08-1.151.236-1.627s.377-.88.66-1.21.622-.583 1.018-.757c.395-.174.832-.261 1.312-.261.211 0 .418.02.617.06.201.04.386.09.557.15.17.06.32.13.454.21.131.079.223.144.274.195.05.051.085.09.1.116s.026.058.036.094a1.496 1.496 0 0 1 .02.496c-.008.053-.02.097-.035.133s-.032.062-.054.08a.116.116 0 0 1 -.077.025c-.053 0-.127-.037-.222-.11a3.653 3.653 0 0 0 -.367-.244 2.997 2.997 0 0 0 -.547-.244 2.396 2.396 0 0 0 -.772-.11c-.327 0-.625.064-.893.195s-.496.322-.686.575c-.191.253-.337.562-.442.927s-.157.781-.157 1.25c0 .465.05.876.15 1.233s.246.656.434.896c.189.24.42.421.693.544s.583.184.929.184c.292 0 .548-.036.766-.107s.405-.153.559-.241c.153-.09.28-.17.38-.241s.175-.108.233-.108a.13.13 0 0 1 .068.017c.019.011.034.033.045.065s.021.077.025.133c.006.057.01.129.01.216zm8.729-2.716c0 .594-.07 1.128-.21 1.605a3.342 3.342 0 0 1 -.626 1.216 2.733 2.733 0 0 1 -1.046.77c-.42.18-.909.27-1.468.27-.551 0-1.028-.082-1.432-.247a2.523 2.523 0 0 1 -.997-.717c-.263-.313-.458-.703-.586-1.168s-.194-1-.194-1.604c0-.578.07-1.103.21-1.576.14-.472.35-.874.63-1.205s.629-.585 1.048-.765.909-.27 1.468-.27c.541 0 1.012.082 1.412.245.4.162.735.4 1 .711s.466.697.596 1.157.195.985.195 1.578zm-1.031.068c0-.415-.037-.802-.111-1.159a2.678 2.678 0 0 0 -.368-.93 1.776 1.776 0 0 0 -.688-.615c-.287-.147-.641-.22-1.064-.22s-.778.079-1.065.237c-.286.159-.52.37-.698.635-.18.265-.31.574-.386.927a5.231 5.231 0 0 0 -.117 1.114c0 .431.037.828.108 1.19.073.363.194.676.364.939s.397.467.682.612.643.218 1.072.218c.427 0 .785-.08 1.076-.238.29-.159.524-.373.703-.643.176-.27.303-.583.378-.938s.114-.732.114-1.129zm8.253-3.231c0 .072-.005.134-.012.187s-.02.096-.037.128c-.016.032-.037.056-.062.07s-.052.023-.083.023h-2.064v6.36c0 .031-.007.057-.022.08a.149.149 0 0 1 -.08.054.826.826 0 0 1 -.149.034c-.063.01-.141.014-.236.014-.09 0-.167-.004-.232-.014a.888.888 0 0 1 -.154-.034.15.15 0 0 1 -.078-.054.132.132 0 0 1 -.023-.08v-6.36h-2.064a.15.15 0 0 1 -.081-.022.165.165 0 0 1 -.06-.071.58.58 0 0 1 -.038-.128c-.009-.053-.013-.115-.013-.187s.004-.135.013-.19c.01-.055.022-.099.037-.133a.163.163 0 0 1 .06-.074.15.15 0 0 1 .082-.022h5.102c.031 0 .058.007.083.022s.046.04.062.074c.018.034.03.078.037.133s.012.118.012.19zm7.112 5.879c0 .06-.002.113-.004.159a.628.628 0 0 1 -.021.119c-.009.034-.022.064-.037.09s-.041.059-.08.097a1.571 1.571 0 0 1 -.238.173c-.12.077-.27.153-.45.226a3.728 3.728 0 0 1 -.618.187 3.563 3.563 0 0 1 -.762.077c-.477 0-.907-.08-1.29-.238-.383-.159-.71-.393-.98-.703s-.479-.693-.625-1.148c-.145-.456-.217-.98-.217-1.573 0-.609.078-1.151.235-1.627s.376-.88.66-1.21.623-.583 1.018-.757.831-.261 1.311-.261c.213 0 .418.02.62.06.199.04.385.09.555.15s.32.13.453.21c.132.079.223.144.275.195.05.051.084.09.099.116s.028.058.037.094.018.078.022.127c.006.05.009.108.009.176 0 .076-.003.14-.012.193a.49.49 0 0 1 -.034.133.2.2 0 0 1 -.053.08.119.119 0 0 1 -.077.025c-.053 0-.128-.037-.223-.11s-.217-.156-.368-.244c-.149-.09-.332-.17-.546-.244s-.473-.11-.773-.11c-.326 0-.623.064-.892.195-.267.13-.496.322-.687.575-.189.253-.337.562-.442.927s-.156.781-.156 1.25c0 .465.05.876.15 1.233.102.357.246.656.435.896.187.24.418.421.691.544.275.123.584.184.93.184.292 0 .547-.036.766-.107s.405-.153.558-.241c.154-.09.28-.17.38-.241s.176-.108.233-.108a.13.13 0 0 1 .068.017c.02.011.036.033.046.065.012.032.02.077.027.133.004.057.007.129.007.216zm7.969.89c0 .03-.007.056-.022.08a.149.149 0 0 1 -.08.053.826.826 0 0 1 -.149.034c-.063.01-.14.014-.23.014-.098 0-.178-.004-.238-.014s-.11-.02-.148-.034a.161.161 0 0 1 -.08-.054.142.142 0 0 1 -.022-.08v-3.253h-3.338v3.254c0 .03-.008.056-.024.08a.149.149 0 0 1 -.08.053c-.037.013-.087.025-.149.034s-.14.014-.235.014a1.64 1.64 0 0 1 -.233-.014.837.837 0 0 1 -.152-.034.149.149 0 0 1 -.08-.054.142.142 0 0 1 -.022-.08v-7.04c0-.03.007-.057.022-.08a.149.149 0 0 1 .08-.053.851.851 0 0 1 .152-.034 1.64 1.64 0 0 1 .233-.014c.095 0 .173.004.235.014s.112.02.15.034a.149.149 0 0 1 .08.054.132.132 0 0 1 .023.079v2.937h3.338v-2.937c0-.03.008-.057.022-.08a.162.162 0 0 1 .08-.053c.038-.013.087-.025.148-.034s.14-.014.238-.014c.09 0 .167.004.23.014a.84.84 0 0 1 .15.034.149.149 0 0 1 .079.054.142.142 0 0 1 .022.079zm17.046-.116a.364.364 0 0 1 -.082.156.358.358 0 0 1 -.152.09c-.065.02-.145.036-.24.045a3.72 3.72 0 0 1 -.35.014c-.143 0-.264-.005-.363-.014a1.16 1.16 0 0 1 -.245-.045.304.304 0 0 1 -.147-.09.413.413 0 0 1 -.075-.156l-1.877-6.765h-.014l-1.731 6.765a.352.352 0 0 1 -.07.156.304.304 0 0 1 -.137.09c-.06.02-.139.036-.232.045-.096.01-.217.014-.365.014-.152 0-.279-.005-.38-.014a1.19 1.19 0 0 1 -.249-.045.33.33 0 0 1 -.149-.09.338.338 0 0 1 -.072-.156l-2.368-8.274a1.285 1.285 0 0 1 -.046-.25c-.002-.06.016-.106.056-.138a.355.355 0 0 1 .19-.062c.088-.01.206-.014.354-.014.143 0 .255.003.338.01.084.007.148.02.19.038a.166.166 0 0 1 .09.077c.017.032.03.073.039.124l2.015 7.506h.007l1.912-7.492c.013-.05.03-.094.051-.128s.054-.061.1-.08a.763.763 0 0 1 .197-.041c.086-.01.198-.014.337-.014.129 0 .232.004.307.014.077.009.138.023.183.041.048.019.08.045.1.08s.04.077.054.128l2.056 7.492h.014l1.973-7.499c.013-.046.028-.087.041-.121a.151.151 0 0 1 .088-.08.699.699 0 0 1 .186-.041c.08-.01.189-.014.322-.014.139 0 .248.006.33.017s.138.034.175.066.055.079.053.138c-.003.06-.016.144-.038.25zm10.807.116c0 .03-.009.056-.023.08a.149.149 0 0 1 -.08.053.826.826 0 0 1 -.15.034c-.063.01-.138.014-.23.014-.097 0-.177-.004-.238-.014s-.109-.02-.147-.034a.15.15 0 0 1 -.079-.054.132.132 0 0 1 -.023-.08v-3.253h-3.339v3.254c0 .03-.007.056-.023.08a.15.15 0 0 1 -.079.053c-.038.013-.088.025-.15.034s-.14.014-.235.014a1.64 1.64 0 0 1 -.234-.014.837.837 0 0 1 -.152-.034.149.149 0 0 1 -.08-.054.142.142 0 0 1 -.022-.08v-7.04c0-.03.008-.057.023-.08a.149.149 0 0 1 .08-.053.851.851 0 0 1 .151-.034 1.64 1.64 0 0 1 .234-.014c.094 0 .173.004.235.014s.112.02.15.034a.15.15 0 0 1 .079.054.132.132 0 0 1 .023.079v2.937h3.339v-2.937c0-.03.007-.057.023-.08a.15.15 0 0 1 .079-.053c.038-.013.087-.025.147-.034s.14-.014.238-.014c.092 0 .167.004.23.014a.84.84 0 0 1 .15.034.149.149 0 0 1 .08.054.143.143 0 0 1 .023.079zm4.317 0c0 .03-.007.056-.021.08a.155.155 0 0 1 -.08.053c-.038.013-.089.025-.15.034s-.141.014-.236.014c-.09 0-.168-.004-.232-.014a.828.828 0 0 1 -.153-.034.149.149 0 0 1 -.08-.054.142.142 0 0 1 -.022-.08v-7.04c0-.03.009-.057.025-.08a.174.174 0 0 1 .086-.053.953.953 0 0 1 .152-.034c.063-.01.137-.014.224-.014.095 0 .173.004.235.014s.113.02.15.034a.155.155 0 0 1 .08.054.142.142 0 0 1 .023.079zm7.285-1.91c0 .343-.064.65-.19.918a1.981 1.981 0 0 1 -.528.683c-.225.187-.49.328-.793.422s-.633.142-.984.142c-.245 0-.474-.02-.683-.062a3.704 3.704 0 0 1 -.561-.154 2.714 2.714 0 0 1 -.415-.187 1.14 1.14 0 0 1 -.232-.164.421.421 0 0 1 -.096-.173 1.613 1.613 0 0 1 -.02-.487.51.51 0 0 1 .033-.134.16.16 0 0 1 .058-.07.152.152 0 0 1 .078-.02c.053 0 .129.032.225.096s.22.134.372.21c.15.075.332.146.546.212.213.067.46.1.74.1.212 0 .405-.029.581-.085.176-.057.326-.137.454-.241.127-.104.224-.232.292-.383s.102-.323.102-.516c0-.208-.047-.385-.142-.533s-.219-.277-.374-.388-.332-.214-.53-.306l-.61-.284c-.208-.096-.41-.203-.606-.32s-.372-.255-.527-.414a1.948 1.948 0 0 1 -.378-.558 1.862 1.862 0 0 1 -.145-.768c0-.306.056-.58.169-.82.11-.24.265-.44.465-.603a2.07 2.07 0 0 1 .707-.372 2.984 2.984 0 0 1 1.379-.085c.164.029.319.067.465.114.145.047.275.1.387.158.114.06.189.106.224.142s.06.065.071.085c.012.021.021.047.028.08.008.032.014.07.018.116a2.12 2.12 0 0 1 -.003.357.672.672 0 0 1 -.026.133c-.01.036-.027.063-.048.08s-.044.025-.07.025a.467.467 0 0 1 -.197-.08c-.089-.052-.197-.112-.325-.178s-.28-.126-.456-.181-.374-.082-.593-.082c-.204 0-.382.027-.533.082s-.276.127-.374.218a.854.854 0 0 0 -.221.323 1.08 1.08 0 0 0 -.074.397c0 .204.047.38.142.527.094.148.22.278.376.391.158.114.336.218.536.312l.612.286c.208.097.412.203.613.318.2.115.378.251.536.408.157.157.282.342.38.556.096.213.145.465.145.756zm7.571 1.899a.17.17 0 0 1 -.019.082c-.013.024-.04.044-.077.06a.697.697 0 0 1 -.153.036c-.064.01-.148.014-.25.014-.131 0-.24-.005-.322-.017a.413.413 0 0 1 -.187-.062.442.442 0 0 1 -.102-.102l-2.7-3.668v3.668a.147.147 0 0 1 -.021.076.153.153 0 0 1 -.08.057c-.038.013-.089.025-.15.034s-.141.014-.236.014c-.091 0-.168-.004-.231-.014a.857.857 0 0 1 -.154-.034.147.147 0 0 1 -.08-.057.147.147 0 0 1 -.022-.076v-7.041c0-.03.007-.057.022-.08a.155.155 0 0 1 .08-.053.872.872 0 0 1 .154-.034c.063-.01.14-.014.231-.014.095 0 .173.004.235.014s.113.02.151.034a.162.162 0 0 1 .08.054.142.142 0 0 1 .022.079v3.26l2.597-3.26a.344.344 0 0 1 .078-.085.372.372 0 0 1 .11-.054c.045-.013.098-.024.16-.031a2.19 2.19 0 0 1 .479.003c.06.01.11.021.145.037.035.015.06.034.074.056.013.023.019.048.019.074a.32.32 0 0 1 -.037.147c-.024.05-.071.118-.139.205l-2.431 2.908 2.619 3.48c.063.099.103.166.116.202s.02.065.02.088zm6.723-.244c0 .068-.005.127-.012.178s-.02.094-.04.128-.04.059-.065.074-.051.022-.082.022h-3.52a.404.404 0 0 1 -.247-.088c-.077-.058-.117-.161-.117-.309v-6.542c0-.147.04-.25.117-.309a.404.404 0 0 1 .246-.087h3.48c.032 0 .06.007.083.022.025.015.045.04.06.074a.496.496 0 0 1 .036.127c.01.052.015.115.015.19a.914.914 0 0 1 -.015.179.451.451 0 0 1 -.037.125.153.153 0 0 1 -.059.07.152.152 0 0 1 -.082.023h-2.868v2.302h2.46c.031 0 .058.008.083.025a.21.21 0 0 1 .062.071c.017.03.03.072.037.125a1.36 1.36 0 0 1 0 .363.336.336 0 0 1 -.037.119.162.162 0 0 1 -.062.065.171.171 0 0 1 -.083.02h-2.46v2.625h2.908c.03 0 .057.007.082.022s.046.039.065.071c.02.032.033.074.04.125.007.05.012.114.012.19zm5.316-2.449v2.704c0 .03-.007.056-.023.08a.15.15 0 0 1 -.079.053c-.037.013-.088.025-.152.034s-.14.014-.232.014c-.093 0-.171-.004-.233-.014s-.112-.02-.152-.034c-.04-.013-.067-.031-.082-.054a.143.143 0 0 1 -.023-.08v-2.703l-2.074-4.139a.906.906 0 0 1 -.077-.204c-.009-.049 0-.087.028-.113s.08-.044.154-.051.173-.011.297-.011c.113 0 .205.003.276.01.07.008.125.019.167.032a.195.195 0 0 1 .093.057c.02.024.041.056.059.093l1.015 2.11c.094.2.189.41.282.628.094.22.19.44.288.664h.012a31.64 31.64 0 0 1 .547-1.276l1.02-2.12c.012-.038.027-.07.047-.096s.05-.047.086-.06a.669.669 0 0 1 .15-.031c.064-.008.145-.011.244-.011.136 0 .243.004.32.014a.31.31 0 0 1 .162.054c.03.026.04.064.03.113a.818.818 0 0 1 -.076.198z" fill="#d6b333"/><path d="m5.416 105.9c0 .507.039.873.117 1.097.078.225.23.376.454.454s.59.117 1.098.117h.995c1.523 0 2.84-.405 3.953-1.215 1.112-.81 1.854-1.908 2.225-3.294 0-.039.039-.058.117-.058.04 0 .083.014.132.044.049.029.073.053.073.073-.176 1.932-.263 3.542-.263 4.83 0 .157-.035.27-.103.337s-.18.103-.337.103h-13.819c-.039 0-.059-.059-.059-.176s.02-.175.059-.175c.625 0 1.078-.05 1.361-.147a.921.921 0 0 0 .586-.57c.107-.284.161-.718.161-1.304v-13.556c0-.585-.054-1.014-.161-1.288s-.307-.463-.6-.57-.742-.162-1.347-.162c-.039 0-.059-.058-.059-.175s.02-.176.059-.176l1.493.03a53 53 0 0 0 2.225.058 53 53 0 0 0 2.226-.059l1.493-.03c.058 0 .088.06.088.177s-.03.175-.088.175c-.605 0-1.054.054-1.347.161a.92.92 0 0 0 -.586.586c-.097.283-.146.717-.146 1.303zm39.496 2.137c.098 0 .147.058.147.175s-.049.176-.147.176c-.39 0-.995-.02-1.815-.059a46.308 46.308 0 0 0 -1.844-.058 33 33 0 0 0 -1.786.058 28.53 28.53 0 0 1 -1.582.059c-.077 0-.117-.059-.117-.176s.04-.175.117-.175c.508 0 .874-.054 1.098-.161s.337-.298.337-.571c0-.332-.194-.888-.585-1.67l-1.992-3.952h-7.202l-1.141 2.547c-.254.566-.38 1.093-.38 1.581 0 .703.248 1.25.747 1.64.498.39 1.166.586 2.005.586.098 0 .146.058.146.175s-.048.176-.146.176c-.352 0-.858-.02-1.522-.059a37.381 37.381 0 0 0 -1.933-.058c-.527 0-1.161.02-1.904.058-.662.04-1.2.059-1.61.059-.077 0-.116-.059-.116-.176s.039-.175.116-.175c.547 0 1.006-.113 1.377-.337.371-.225.741-.625 1.113-1.2s.809-1.43 1.317-2.562l6.354-13.966c.038-.059.126-.088.263-.088.156 0 .243.03.263.088l7.32 14.405c.682 1.386 1.25 2.342 1.698 2.87s.918.79 1.405.79zm-14.99-7.174h6.383l-3.367-6.675zm35.72 7.877c-2.225 0-4.159-.416-5.797-1.245-1.64-.83-2.9-1.957-3.777-3.382-.88-1.425-1.319-3.006-1.319-4.743 0-1.854.493-3.513 1.48-4.977.986-1.464 2.346-2.601 4.084-3.411s3.69-1.215 5.855-1.215c.937 0 1.874.073 2.811.22.938.146 1.69.336 2.255.57.214.078.336.142.365.19.03.05.054.21.073.484l.382 4.07c0 .058-.054.097-.162.117-.107.02-.17-.01-.19-.088-.254-.644-.664-1.347-1.23-2.108-.566-.762-1.307-1.425-2.225-1.991s-1.981-.85-3.192-.85c-1.249 0-2.391.342-3.425 1.025s-1.849 1.66-2.444 2.928c-.596 1.27-.893 2.743-.893 4.421 0 1.835.346 3.475 1.04 4.92.692 1.444 1.653 2.566 2.882 3.366s2.616 1.2 4.158 1.2c.8 0 1.415-.087 1.844-.263s.743-.517.938-1.025c.196-.507.292-1.259.292-2.254 0-1.015-.058-1.723-.175-2.123s-.365-.668-.747-.805c-.38-.137-1.049-.205-2.005-.205-.118 0-.175-.078-.175-.234 0-.059.014-.112.043-.161.03-.049.063-.073.102-.073 1.66.097 3.006.146 4.041.146.996 0 2.03-.03 3.103-.088.079 0 .122.069.132.205.01.137-.034.205-.132.205-.35-.02-.6.044-.745.19-.147.147-.241.444-.28.893-.038.45-.058 1.23-.058 2.343 0 .878.035 1.503.103 1.873s.102.605.102.703c0 .117-.019.195-.059.234-.039.04-.126.078-.263.117-2.517.547-4.782.82-6.792.82zm38.851-.703c.098 0 .147.058.147.175s-.049.176-.147.176c-.39 0-.995-.02-1.815-.059a46.308 46.308 0 0 0 -1.844-.058 33 33 0 0 0 -1.786.058 28.53 28.53 0 0 1 -1.581.059c-.078 0-.118-.059-.118-.176s.04-.175.118-.175c.508 0 .873-.054 1.097-.161s.337-.298.337-.571c0-.332-.194-.888-.585-1.67l-1.992-3.952h-7.202l-1.142 2.547c-.254.566-.38 1.093-.38 1.581 0 .703.25 1.25.747 1.64s1.166.586 2.005.586c.098 0 .147.058.147.175s-.049.176-.147.176c-.35 0-.858-.02-1.522-.059a37.381 37.381 0 0 0 -1.932-.058c-.528 0-1.162.02-1.903.058-.664.04-1.202.059-1.612.059-.077 0-.115-.059-.115-.176s.038-.175.115-.175c.547 0 1.006-.113 1.377-.337.372-.225.741-.625 1.113-1.2s.81-1.43 1.317-2.562l6.354-13.966c.039-.059.126-.088.263-.088.156 0 .244.03.263.088l7.32 14.405c.684 1.386 1.25 2.342 1.698 2.87s.918.79 1.405.79zm-14.99-7.174h6.383l-3.367-6.675zm40.637-10.774c.06 0 .09.059.09.176s-.03.175-.09.175c-.702 0-1.374.313-2.02.937-.642.625-1.16 1.464-1.55 2.518l-5.416 14.464c-.02.078-.128.117-.323.117-.196 0-.303-.04-.322-.117l-7.466-15.84c-.35-.703-.703-1.225-1.053-1.566-.352-.342-.743-.513-1.172-.513-.058 0-.088-.058-.088-.175s.03-.176.088-.176c.292 0 .497.01.615.03.39.038.898.058 1.522.058 1.678 0 3.104-.02 4.275-.059.311-.02.702-.03 1.171-.03.058 0 .088.06.088.177s-.03.175-.088.175c-.586 0-1.04.122-1.362.366s-.482.59-.482 1.04c0 .331.107.732.322 1.2l5.065 10.804 3.805-10.043c.196-.546.294-1.015.294-1.405 0-.605-.181-1.083-.542-1.435-.361-.351-.884-.527-1.567-.527-.058 0-.088-.058-.088-.175s.03-.176.088-.176l1.435.03c.82.038 1.552.058 2.196.058.37 0 .83-.02 1.376-.059zm25.357 3.748c0-1.054-.24-1.884-.717-2.489-.478-.605-1.148-.908-2.007-.908-.038 0-.058-.058-.058-.175s.02-.176.058-.176l1.405.03c.743.038 1.339.058 1.787.058.371 0 .908-.02 1.61-.059l1.347-.03c.039 0 .058.06.058.177s-.02.175-.058.175c-.762 0-1.357.303-1.787.908s-.643 1.435-.643 2.489v8.139c0 1.366-.303 2.567-.907 3.601-.606 1.035-1.46 1.83-2.562 2.386-1.104.557-2.377.835-3.822.835-1.443 0-2.722-.273-3.835-.82s-1.986-1.342-2.62-2.386-.952-2.27-.952-3.675v-9.457c0-.585-.053-1.014-.16-1.288a.972.972 0 0 0 -.587-.57c-.282-.108-.726-.162-1.332-.162-.058 0-.088-.058-.088-.175s.03-.176.088-.176l1.552.03c.899.038 1.61.058 2.137.058.587 0 1.328-.02 2.225-.059l1.494-.03c.058 0 .088.06.088.177s-.03.175-.088.175c-.606 0-1.05.059-1.332.176a1.018 1.018 0 0 0 -.587.6c-.107.283-.16.717-.16 1.303v8.374c0 2.322.459 4.04 1.377 5.153.916 1.112 2.214 1.669 3.893 1.669 1.62 0 2.889-.493 3.806-1.48.918-.985 1.377-2.395 1.377-4.23zm18.883 12.063c0 .507.04.873.118 1.097a.703.703 0 0 0 .453.454c.226.078.591.117 1.1.117h.994c1.523 0 2.84-.405 3.953-1.215 1.112-.81 1.855-1.908 2.225-3.294 0-.039.04-.058.117-.058.04 0 .083.014.132.044.05.029.073.053.073.073-.175 1.932-.263 3.542-.263 4.83 0 .157-.034.27-.102.337s-.182.103-.338.103h-13.818c-.04 0-.06-.059-.06-.176s.02-.175.06-.175c.623 0 1.078-.05 1.36-.147a.924.924 0 0 0 .587-.57c.107-.284.16-.718.16-1.304v-13.556c0-.585-.053-1.014-.16-1.288a.971.971 0 0 0 -.6-.57c-.294-.108-.743-.162-1.347-.162-.04 0-.06-.058-.06-.175s.02-.176.06-.176l1.492.03c.899.038 1.64.058 2.225.058s1.328-.02 2.225-.059l1.494-.03c.058 0 .088.06.088.177s-.03.175-.088.175c-.606 0-1.054.054-1.347.161s-.489.303-.585.586c-.098.283-.147.717-.147 1.303zm25.15.116c0 .606.05 1.045.148 1.318a.88.88 0 0 0 .57.556c.284.098.737.147 1.362.147.058 0 .088.058.088.175s-.03.176-.088.176c-.644 0-1.152-.01-1.522-.03l-2.225-.029-2.167.03c-.39.02-.918.029-1.582.029-.039 0-.058-.059-.058-.176s.02-.175.058-.175c.625 0 1.084-.05 1.377-.147s.493-.288.6-.57c.107-.284.16-.718.16-1.304v-13.556c0-.585-.053-1.014-.16-1.288s-.308-.463-.6-.57-.752-.162-1.377-.162c-.039 0-.058-.058-.058-.175s.02-.176.058-.176l1.582.03c.897.038 1.62.058 2.167.058.604 0 1.356-.02 2.254-.059l1.493-.03c.058 0 .088.06.088.177s-.03.175-.088.175c-.606 0-1.054.059-1.347.176a.965.965 0 0 0 -.585.6c-.098.283-.147.717-.147 1.303zm33.32-15.927c.038 0 .059.059.059.176s-.02.175-.06.175c-.78 0-1.396.308-1.844.923-.449.614-.673 1.439-.673 2.474v14.99c0 .059-.044.098-.132.117-.088.02-.152.01-.19-.03l-13.731-15.634v11.39c0 1.034.213 1.854.643 2.459s1.024.908 1.786.908c.039 0 .058.058.058.175s-.019.176-.058.176c-.546 0-.965-.01-1.26-.03l-1.58-.029-1.814.03c-.333.02-.811.029-1.435.029-.06 0-.088-.059-.088-.176s.028-.175.088-.175c.858 0 1.537-.303 2.035-.908.497-.605.745-1.425.745-2.46v-12.383c-.643-.703-1.194-1.186-1.653-1.45s-.933-.395-1.42-.395c-.04 0-.06-.058-.06-.175s.02-.176.06-.176l1.23.03c.253.019.624.029 1.113.029l2.224-.03c.274-.02.605-.03.996-.03.156 0 .273.04.352.118.077.078.213.244.408.498.333.449.567.751.704.907l10.13 11.682v-9.456c0-1.054-.214-1.884-.645-2.489-.43-.605-1.023-.908-1.785-.908-.039 0-.058-.058-.058-.175s.019-.176.058-.176l1.26.03c.623.038 1.15.058 1.58.058.39 0 .937-.02 1.64-.059z" fill="#3a6655"/><path d="m121.965 73.622c.019-.017.163-.042.322-.055.307-.025.859-.1.895-.12.013-.007.093-.025.18-.04.254-.044.72-.19 1.017-.317.597-.257 1.009-.58 1.193-.937.174-.339.202-.54.123-.886a1.132 1.132 0 0 0 -.353-.622c-.287-.271-.663-.394-1.114-.366-.8.049-1.374.862-1.135 1.607.076.234.21.431.409.601.22.189.205.229-.131.328-.425.125-.93.2-1.59.235-.53.029-.504.029-1.071 0a12.934 12.934 0 0 1 -1.93-.247c-1.614-.346-2.898-.864-4.222-1.702-1.359-.861-2.348-1.848-2.995-2.986a13.641 13.641 0 0 1 -.652-1.405c-.15-.367-.4-.89-.487-1.013-.058-.082-.143-.055-.187.057-.103.265-.517.569-.877.644-.358.074-.512.076-.885.01-1.039-.182-2.09-.825-2.896-1.771a5.185 5.185 0 0 1 -.507-.664c-.59-.89-.99-1.98-1.151-3.128-.114-.815-.07-2.429.08-2.9.08-.255.06-.277-.177-.185-.853.333-1.717-.237-2.104-1.389-.148-.441-.246-1.244-.214-1.76.022-.362.124-1.148.164-1.268.016-.045.055-.198.089-.34.282-1.203 1.054-2.637 2.01-3.738l.224-.26a14.31 14.31 0 0 1 1.32-1.228c.656-.494.973-.713 1.205-.832.109-.055.125-.076.125-.155a.415.415 0 0 0 -.04-.166 1.173 1.173 0 0 1 -.074-.25c-.067-.339-.062-.328-.134-.328a.409.409 0 0 0 -.167.062 5.1 5.1 0 0 1 -.247.14c-.234.125-1.191.682-1.415.823-1.2.76-2.107 1.445-3.015 2.279-.614.563-.83.733-1.087.85-.335.153-.69.106-.894-.118-.042-.047-.077-.108-.077-.135 0-.073-.118-.102-.166-.041-.02.026-.085.19-.143.365s-.118.343-.131.375c-.036.081-.192.68-.262 1.006-.113.523-.2 1.17-.273 2.032-.065.754-.043 2.927.035 3.492.016.112.036.462.046.778.015.47.01.614-.03.804-.115.556-.315.817-.795 1.034-.263.12-.292.156-.212.263.023.03.166.244.32.476a32.136 32.136 0 0 0 1.971 2.651c.367.444 1.091 1.273 1.222 1.4.046.046.201.205.345.355.427.447.526.543 1.294 1.256.938.87 1.412 1.272 2.326 1.966a25.48 25.48 0 0 0 1.28.912c.3.207.965.636 1.019.657.014.006.118.067.231.136.267.164.87.515.883.515.009 0 .406.21.515.272.024.014.117.062.206.106l.426.213c.289.145.772.368 1.074.495l.397.17c.28.12.592.243.927.366l.497.181c.12.044.23.08.245.08.016 0 .071.017.122.039.095.04.725.238.96.301l.442.123c.414.117.959.248 1.412.34.122.025.268.056.324.07.158.036.78.143 1.265.217.6.092 1.591.182 2.32.21.34.012.492.029.52.054.053.049 1.808.054 1.86.006zm.621-1.75c.042-.048.011-.15-.05-.166a3.576 3.576 0 0 0 -.313-.03 5.58 5.58 0 0 1 -2.007-.497 9.284 9.284 0 0 1 -2.466-1.658 9.407 9.407 0 0 1 -2.807-4.911 8.725 8.725 0 0 1 .23-4.542c.408-1.23 1.109-2.33 2.093-3.283a4.85 4.85 0 0 1 .444-.39c.183-.124.188-.188.019-.23a1.36 1.36 0 0 1 -.62-.337c-.226-.21-.324-.392-.401-.745l-.06-.275.085-.391c.086-.393.142-.537.36-.932.713-1.295 2.35-2.43 4.189-2.905.341-.088.495-.115 1.044-.182.55-.067.937-.049 1.696.082.711.123 1.485.458 1.962.849.093.077.454.497.52.607.014.024.035.034.046.024.029-.027-.084-.276-.224-.5-.63-.998-1.88-1.733-3.382-1.987-.562-.095-.979-.136-1.22-.119-.2.014-.31-.008-.31-.062 0-.014.072-.075.161-.136s.185-.133.213-.16c.07-.067.775-.499 1.127-.69.552-.3.661-.356.983-.5.468-.208.619-.264.725-.27.084-.003.103.011.167.12.194.324.517.643.88.862.342.208.629.304 1.063.354.325.038.395.038.706 0 .328-.04.443-.067.737-.165.414-.14.862-.434 1.158-.762.196-.216.44-.655.507-.916.077-.292.064-.288.776-.288.571 0 .63.005.934.077.571.135.954.28 1.512.573.377.199.43.235.478.333.03.06.054.13.054.155.002.107.134.366.242.475.142.143.269.185.543.181.31-.005.484-.102.654-.367.083-.128.115-.432.062-.581-.054-.153-.247-.334-.393-.37a1.167 1.167 0 0 0 -.566.046.582.582 0 0 1 -.213.032c-.164-.012-.218-.13-.202-.43.016-.286.07-.415.199-.475.156-.072.218-.056.396.102.131.118.19.15.29.163.25.032.562-.048.658-.168.085-.107.135-.34.118-.541-.03-.355-.259-.555-.634-.555-.248 0-.352.05-.52.25-.131.157-.144.165-.24.15-.175-.026-.247-.156-.32-.57-.039-.23-.022-.388.055-.497.06-.085.148-.107.349-.086.085.009.29.024.453.033.256.014.315.01.426-.036.353-.145.406-.754.093-1.051a.897.897 0 0 0 -.556-.212c-.188 0-.386.107-.527.282-.19.238-.253.291-.344.291-.141 0-.295-.19-.392-.488-.056-.169-.055-.397.002-.449.05-.046.25-.087.558-.114.237-.021.313-.044.463-.14.155-.098.23-.256.23-.482a.658.658 0 0 0 -.27-.547c-.217-.172-.442-.19-.692-.055-.144.077-.198.141-.36.434a1.204 1.204 0 0 1 -.157.237.43.43 0 0 1 -.152.022c-.099 0-.134-.018-.243-.123-.154-.15-.304-.415-.304-.54 0-.132.091-.195.397-.274.214-.056.283-.087.358-.163.192-.194.19-.567-.003-.835-.158-.217-.452-.314-.753-.247-.122.027-.173.06-.305.194-.167.172-.183.213-.25.651-.038.254-.124.445-.345.768a6.51 6.51 0 0 1 -1.18 1.283c-.418.354-1.076.75-1.19.717a1.467 1.467 0 0 1 -.26-.172c-.816-.633-1.847-.84-2.724-.545-.93.313-1.536.892-1.78 1.7-.049.16-.058 1.032-.016 1.556l.026.328-.232.125c-.127.069-.347.181-.488.25-.14.07-.366.188-.5.262-.328.182-.372.19-.545.097a3.726 3.726 0 0 1 -.611-.45.776.776 0 0 0 -.502-.21c-.256-.02-.356.033-.625.326-.266.29-.43.405-.749.53-.344.135-.719.183-1.254.162a5.067 5.067 0 0 1 -1.173-.154c-1-.238-1.937-.685-2.142-1.022-.076-.125-.047-.179.163-.303.2-.118.53-.322.706-.436.18-.117.706-.586.829-.74.065-.081.15-.216.19-.3.094-.195.26-.774.304-1.057.019-.12.06-.36.092-.532.031-.173.065-.455.075-.628.016-.269.01-.346-.045-.54-.14-.5-.6-1.193-1.221-1.839-.39-.406-.742-.663-1.077-.785-.466-.17-1.506.066-2.707.614a8.057 8.057 0 0 0 -1.057.578c-.33.208-.399.215-.488.049-.096-.178-.082-.467.034-.723.236-.516.634-1.008 1.054-1.302.266-.187.425-.242.855-.294.902-.11 1.06-.145 1.558-.335.405-.155.864-.485 1.518-1.094.3-.28.426-.428.533-.63.068-.129.068-.133-.05-.347a1.243 1.243 0 0 1 -.162-.623c0-.2.018-.23.135-.23.094 0 .105.01.205.196.301.566.733 1.002 1.092 1.102.117.032.147.03.284-.017.194-.067.352-.219.521-.498.136-.224.207-.27.333-.218.084.036.13.205.154.566.065.97.452 1.654 1.015 1.79.23.056.3.02.596-.313.103-.116.123-.126.244-.126.118 0 .146.013.272.13.215.2.252.368.197.909-.072.704.427 1.413 1.132 1.607.265.073.439.07.61-.011.195-.092.263-.17.288-.33.035-.227.057-.26.174-.26.122 0 .164.05.235.282.06.198.202.348.42.443.307.135.441.161.817.16.399-.001.5-.026.761-.187.147-.09.186-.134.29-.325.115-.214.119-.23.12-.494 0-.216-.013-.306-.063-.424-.137-.327-.468-.601-.853-.708-.237-.065-.32-.132-.27-.217a.197.197 0 0 1 .112-.075c.269-.062.457-.383.375-.64-.065-.201-.322-.415-.64-.531-.272-.1-.407-.123-.833-.144-.361-.018-.396-.025-.615-.121a2.79 2.79 0 0 1 -.712-.46 1.142 1.142 0 0 1 -.293-.527c-.05-.186-.06-.2-.348-.466a15.89 15.89 0 0 0 -.635-.55c-.837-.683-1.426-1.306-2.324-2.46-.269-.347-.318-.43-.278-.463.041-.035 1.256-.505 1.557-.603.737-.239 1.228-.571 1.442-.975.17-.322.155-.42-.073-.482-.333-.092-.677-.308-.677-.425 0-.076.21-.229.372-.269a3.73 3.73 0 0 1 .444-.06c.74-.06 1.246-.302 1.446-.69.098-.19.171-.577.139-.737l-.02-.1h-.231c-.294 0-.363-.042-.367-.223-.005-.215.186-.439.784-.917.175-.14.35-.3.391-.357.124-.174.147-.576.09-1.63a35.009 35.009 0 0 1 -.048-1.432c-.001-.45-.011-.582-.052-.692-.076-.206-.1-.207-.788-.057-.642.141-.775.186-.94.32-.17.14-.241.266-.28.504-.037.224-.007.58.106 1.238.049.288.038.4-.054.553-.062.102-.136.145-.496.287-.145.058-.3.222-.453.483-.305.516-.636.989-.945 1.35-.254.296-.906.915-1.305 1.24-.57.463-.82.613-1.022.615-.078 0-.098-.012-.114-.071a.526.526 0 0 1 .014-.207c.018-.074.033-.274.033-.444 0-.247-.011-.335-.058-.435-.199-.43-.794-.983-1.321-1.227a3.738 3.738 0 0 0 -1.225-.313l-.265-.017-.016-.286c-.02-.34-.068-.445-.297-.654-.305-.279-.718-.397-1.765-.506-1.476-.154-2.374-.581-2.983-1.418-.27-.372-.602-1.013-.677-1.308-.03-.117-.032-.173-.009-.198.041-.047.214-.046.256 0 .018.02.077.153.133.294.09.23.193.422.419.78.116.184.384.413.586.5.285.124.565.173 1 .175.667.003 1.273-.146 1.727-.424.203-.125.27-.115.447.068.178.182.283.249.576.365.289.115.532.17.742.17h.17v-.145c0-.164-.09-.589-.159-.739-.078-.174-.068-.291.038-.45.098-.148.106-.264.024-.324-.085-.061-.345-.087-.86-.087-.532 0-.554.002-.7.07a1.978 1.978 0 0 0 -.25.14.546.546 0 0 1 -.207.082c-.097.012-.114.005-.145-.059-.062-.127.051-.359.376-.77.095-.12.155-.171.213-.18.09-.012.258.045.258.087 0 .016.052.06.115.1.282.172.967.034 1.18-.238.166-.213.216-.384.218-.747.002-.298-.004-.34-.074-.477a2.667 2.667 0 0 0 -.184-.296c-.093-.126-.107-.167-.107-.303 0-.094-.015-.169-.037-.185-.045-.033-.487-.103-.91-.145a10.166 10.166 0 0 0 -.888-.021l-.574.009-.093-.082a1.49 1.49 0 0 1 -.192-.223.676.676 0 0 0 -.157-.17c-.073-.037-.26-.038-.589-.003-.139.014-.498.04-.798.056-.697.039-1.124.118-1.836.34-.502.156-.635.217-.635.29 0 .01.032.055.072.099.094.104.12.206.065.249-.07.053-.197.005-.359-.136-.206-.181-.454-.287-.89-.38a2.867 2.867 0 0 0 -.727-.08c-.416 0-.543.027-.683.146-.15.127-.162.285-.045.562.153.365.386.643.655.783.224.117.252.254.05.254-.136 0-.242.07-.401.265-.19.232-.406.642-.546 1.03-.144.4-.188.581-.21.875-.016.2-.01.263.028.333.063.111.061.21-.008.466-.091.34-.133.84-.092 1.104.078.496.165.726.317.838.072.053.104.058.278.043.255-.021.289-.008.288.116 0 .122-.063.476-.146.822-.092.387-.109.722-.045.933.084.277.179.447.322.58.15.14.223.153.473.082a.552.552 0 0 1 .179-.03c.018.007.041.109.051.227.094 1.076.173 1.39.411 1.635.16.164.31.194.659.133.238-.041.284-.043.317-.01.022.02.074.239.117.485.109.62.232.948.534 1.419.274.427.566.659.771.612.114-.026.3-.137.407-.241.107-.105.208-.16.26-.141s.075.54.042.973a28.293 28.293 0 0 1 -.248 1.896c-.065.324-.181.66-.298.859-.154.264-.297.436-.717.858-1.306 1.317-2.057 2.265-2.543 3.212a4.508 4.508 0 0 0 -.442 1.277 11.1 11.1 0 0 1 -.307 1.214c-.5 1.484-1.37 2.32-2.503 2.402-.69.05-1.23-.176-1.563-.652-.371-.53-.415-1.33-.113-2.05.306-.73.911-1.472 2.415-2.963.77-.762 1.087-1.093 1.575-1.644.024-.027.134-.163.244-.3.711-.889 1.198-1.774 1.432-2.601.19-.671.224-1.534.09-2.19a4.835 4.835 0 0 0 -.899-2.024c-.368-.496-1.06-1.12-1.601-1.444l-.21-.127-.004-.378c-.003-.311-.016-.412-.07-.57-.147-.42-.351-.697-.804-1.084-.484-.413-.638-.566-.704-.7-.053-.106-.055-.131-.022-.225.029-.08.03-.114.005-.137-.08-.074-.518.18-.638.37a1.288 1.288 0 0 0 -.155.631c.005.19-.015.232-.108.232-.069 0-.26-.115-.344-.208-.1-.108-.142-.428-.086-.652.113-.457.176-1.267.123-1.582-.09-.53-.367-.95-.847-1.285-.316-.22-1.194-.66-1.213-.608-.006.016.016.046.049.067.12.079.35.381.388.515.054.182.048.591-.01.796-.142.49-.306.827-.632 1.293-.375.535-.557 1.016-.654 1.727-.036.27-.031.333.064.837.118.622.57 1.128 1.109 1.242.116.024.213.06.222.082.011.026-.043.077-.156.148-.423.266-.58.636-.461 1.093.039.152.301.58.356.584.016.001.07-.078.121-.176.205-.397.509-.44 1.394-.2.357.097.848.146 1.153.116.318-.032.352-.04.581-.14.3-.13.5-.258.705-.454.249-.238.311-.24.622-.027.34.235.508.375.695.583.36.399.647.903.779 1.372l.106.374c.034.12.047.308.05.722.002.49-.006.594-.065.837-.132.547-.33.98-.605 1.325-.191.24-.26.287-.353.24-.11-.055-.256-.295-.32-.529-.032-.122-.074-.23-.09-.24-.052-.03-.141.028-.356.233-.658.63-.925 1.191-1.047 2.2-.047.391-.139.82-.206.966-.032.07-.17.233-.33.388-.485.476-.543.536-.848.868-1.312 1.432-1.94 2.801-1.826 3.978.059.593.182.969.44 1.334.356.506.902.868 1.563 1.036.221.056.312.063.794.061.455-.001.59-.011.82-.062 1.03-.225 1.779-.757 2.276-1.614.165-.284.257-.53.375-1.009.122-.489.133-.513.253-.534.054-.01.112-.009.129.001.044.025.039.19-.008.295-.041.09-.104.352-.168.692-.025.134-.031.366-.02.75.023.74.128 1.287.446 2.315l.177.573c.245.798.29 1.178.161 1.389-.083.138-.391.371-.565.428-.234.076-.357 0-.468-.29-.061-.159-.081-.183-.2-.238-.22-.103-.567-.066-.646.071a.456.456 0 0 0 -.031.178c0 .193-.116.6-.246.868l-.138.281a4.261 4.261 0 0 0 -.413 1.396c-.05.367.04.803.194.937.07.061.079.062.278.03a.786.786 0 0 1 .235-.018c.017.01.03.062.03.116 0 .11-.035.231-.226.772-.172.487-.217.885-.143 1.26.058.294.16.508.318.667.213.214.433.272.744.194.162-.04.266 0 .34.13.024.045.077.136.115.204.04.067.126.24.193.382s.17.354.23.471c.059.117.107.216.107.221s.067.123.149.263c.163.279.303.445.437.52.277.157.525.114.771-.134.166-.167.323-.245.374-.187a.8.8 0 0 1 .077.183c.122.38.153.451.25.581.279.37.758.563 1.311.529a1.65 1.65 0 0 0 .536-.126c.165-.061.32-.111.344-.111s.115.024.201.054c.466.161.835.201 1.099.118a.698.698 0 0 0 .453-.345c.18-.278.221-.45.221-.92v-.396l-.103-.16a1.827 1.827 0 0 0 -.323-.34c-.12-.099-.291-.244-.379-.323l-.16-.143.016-.213c.02-.279-.022-.394-.204-.549-.23-.195-.395-.25-.8-.268-.55-.024-.588-.013-.873.24-.132.117-.28.224-.326.236-.246.063-.625-.014-.802-.164a3.856 3.856 0 0 1 -.312-.401 12.896 12.896 0 0 0 -.449-.594 1.607 1.607 0 0 1 -.325-.56c-.214-.558-.304-1.285-.301-2.416.002-.826.002-.828.076-.973.22-.431.61-.464 1.264-.106.549.302.953.27 1.327-.106.353-.354.689-.798.82-1.084.196-.423.442-1.319.512-1.868.136-1.052.149-1.677.048-2.36-.04-.273-.201-.784-.279-.886-.052-.069-.216-.526-.219-.609-.003-.09.004-.095.16-.143.33-.1.828-.045 1.176.132.22.112.613.462.772.688.343.49.479 1.09.362 1.606-.068.298-.196.48-.411.583-.105.05-.149.053-.46.036-.414-.023-.478-.002-.595.198-.095.161-.1.229-.022.345.05.073.06.149.07.48.01.336.023.423.087.59.175.458.427.82.871 1.25.448.435.98.748 1.51.89.215.058.234.06.327.018.086-.038.102-.06.118-.173.01-.07.02-.163.02-.205 0-.19.138-.136.535.21.372.325.5.42.715.523.13.063.18.071.443.071.364 0 .462-.042.572-.243.118-.216.252-.248.588-.142.125.04.195.077.201.107.01.052-.002.064-.406.403-.327.275-.568.5-1.043.974-.607.605-1.261 1.195-1.407 1.27-.425.217-.773.268-1.086.158a.525.525 0 0 0 -.172-.042c-.011.007-.03.15-.04.317-.073 1.106-.205 1.74-.872 4.198a9.799 9.799 0 0 0 -.148.654 4.421 4.421 0 0 1 -.075.359c-.039.058-.188.924-.26 1.51-.1.81-.117 1.12-.115 2.046.001.908.006.987.093 1.596.082.575.204 1.156.342 1.623.06.204.271.79.307.853.015.026.082.173.148.327.328.758.97 1.71 1.603 2.378.412.435.938.908 1.371 1.233.341.256.87.624.897.624.01 0 .133.072.274.16s.322.193.403.235c.081.041.2.104.265.138.713.383 1.43.689 1.854.792.729.176 1.63.264 1.716.167zm-4.092-30.392c.06-.051.164-.122.231-.157.157-.084.734-.406 1.291-.721.243-.137.564-.316.712-.397.2-.109.279-.168.302-.226.017-.044.031-.25.031-.457 0-.449-.007-.455-.278-.242-.328.256-1.02.613-2.016 1.039-.445.19-.868.394-.876.423-.005.017.05.112.125.212.09.123.149.24.181.365l.058.219c.017.062.127.035.239-.058zm7.097-5.084c.054-.02.03-.001.53-.399.46-.364 1.014-.857 1.43-1.272a37.035 37.035 0 0 0 2.17-2.4l.286-.356c1.496-1.856 2.856-3.982 3.55-5.551.252-.569.513-1.306.52-1.473.004-.078-.001-.082-.15-.1-.202-.022-.293-.08-.37-.237-.057-.112-.064-.171-.06-.495.004-.48.072-.942.306-2.1.07-.343.17-.914.307-1.747.092-.555.138-.894.267-1.964.124-1.035.132-3.015.014-3.71-.085-.503-.128-.685-.163-.684-.016 0-.033.047-.037.104-.015.201-.096.603-.142.706-.117.259-.326.447-.496.447-.22 0-.5-.234-.691-.573-.14-.248-.298-.785-.367-1.244a18.231 18.231 0 0 0 -.473-1.989 17.259 17.259 0 0 0 -1.238-2.96 15.649 15.649 0 0 0 -1.671-2.533c-.116-.14-.251-.307-.301-.368-.306-.379-1.24-1.26-1.773-1.67a9.039 9.039 0 0 1 -.19-.154c-.155-.128-.245-.139-.12-.014.285.286.48.662.481.926a.743.743 0 0 1 -.246.507c-.318.272-.615.211-1.195-.243-2.098-1.641-4.1-2.764-6.459-3.62-.65-.236-1.64-.524-2.354-.683-1.218-.273-1.814-.38-2.446-.44a1.726 1.726 0 0 1 -.373-.069c-.061-.028-.174-.04-.37-.038-.187.002-.258.01-.21.025.041.012.124.023.184.024.06.002.212.034.338.072s.487.132.803.208a68.362 68.362 0 0 1 .924.225c.096.023.209.053.25.067s.156.046.253.072c.384.1 1.184.364 1.839.607 1.545.572 2.684 1.176 3.323 1.763.324.298.45.488.467.7.014.18-.005.206-.285.381-.322.201-.4.263-.4.315 0 .046.026.056.19.07.24.019 1.196.277 1.31.352.016.01.102.045.191.075.176.06.768.338.975.458.547.316.831.52 1.199.861.465.43.675.751.7 1.067.017.194.015.202-.083.321-.124.15-.317.252-.602.314-.215.047-.552.047-.666.001-.085-.034-.06.035.043.123a.42.42 0 0 0 .12.08c.031 0 .307.169.389.237.032.028.111.086.176.13.367.25 1.302 1.088 1.785 1.598.692.73 1.331 1.615 1.694 2.346.253.508.446 1.28.406 1.623-.062.535-.31.779-.858.842-.185.02-.282.02-.38-.005-.312-.077-.353-.022-.144.194.075.076.163.189.196.25.033.06.12.2.193.311.16.245.579 1.023.722 1.34a11.34 11.34 0 0 1 .417 1.01c.051.119.217.626.335 1.023.203.682.337 1.454.418 2.417.039.456.014.928-.076 1.488-.13.81-.535 1.427-1.052 1.605-.146.05-.34.044-.548-.018-.141-.042-.445-.214-.485-.275-.039-.058-.22-.17-.243-.149-.008.008.014.074.05.146.107.22.256.925.352 1.674.171 1.336.11 2.749-.18 4.174-.063.311-.186.813-.247 1.009-.132.42-.18.566-.286.86a9.429 9.429 0 0 1 -.334.822c-.024.047-.043.092-.043.1s-.052.117-.115.242a79.04 79.04 0 0 0 -.19.377 8.428 8.428 0 0 1 -.363.627c-.244.396-.79 1.174-.862 1.228-.01.007-.099.112-.198.232s-.241.278-.316.351c-.2.195-.182.231.142.292.144.027.313.068.376.091.12.045.16.049.23.023zm-8.443-14.62c.388-.048.722-.19.957-.404.385-.351.54-.905.41-1.474a1.524 1.524 0 0 0 -.436-.76c-.2-.185-.642-.454-.747-.454-.103 0-.087.122.033.258.385.435.446 1.042.157 1.551-.117.205-.426.471-.683.587-.196.089-.435.138-.922.19-.19.021-.26.04-.317.09-.104.09-.079.138.091.176.081.018.326.076.544.13.393.096.712.134.913.11zm1.054-5.11a.37.37 0 0 0 .133-.053c.048-.045.061-.992.02-1.43a11.464 11.464 0 0 0 -.434-2.091c-.182-.571-.455-1.28-.632-1.637a3.175 3.175 0 0 1 -.097-.218c-.05-.13-.53-1.02-.723-1.34a20.79 20.79 0 0 0 -3.483-4.297 22.635 22.635 0 0 0 -1.22-1.028c-.184-.13-.218-.208-.115-.268.108-.063.626-.277 1.01-.418.194-.071.392-.145.44-.164a4.98 4.98 0 0 1 .288-.095c.22-.067.375-.186.375-.289 0-.213-.225-.523-.454-.623-.247-.11-.436-.078-.728.119l-.562.382c-.24.163-.496.318-.57.344-.17.06-.275.032-.312-.084-.036-.112-.002-.748.051-.982.06-.256.056-.377-.014-.504a.59.59 0 0 0 -.472-.274c-.13 0-.31.077-.353.15-.03.053-.033.182-.014.606.04.86.037.922-.03.99-.087.09-.213.057-.447-.115-.512-.375-.886-.58-1.308-.713-.325-.104-.417-.094-.648.07-.207.148-.262.342-.154.542.08.15.877.57 1.38.73.352.111.68.248.777.324.12.093.11.161-.034.238-.052.028-.252.15-.443.272-1.07.68-2.285 1.808-3.203 2.976a24.114 24.114 0 0 0 -.95 1.337c-.045.075-.09.148-.103.163s-.079.126-.149.246l-.2.34c-.231.393-.523.962-.859 1.679a20.671 20.671 0 0 0 -.587 1.488c-.38 1.096-.59 2.14-.59 2.947v.382l.23.227.878.022c.483.012.908.015.944.008a.17.17 0 0 0 .097-.07c.018-.03.044-.35.059-.73.031-.777.12-1.606.219-2.065l.088-.424c.15-.735.488-1.76.855-2.59.13-.296.673-1.302.898-1.664.634-1.023 1.464-2.058 2.525-3.15.565-.58.624-.634.65-.587.012.022.014.275.005.562l-.018.523-.17.151c-.248.22-.33.399-.33.714 0 .223.01.264.095.423a.916.916 0 0 0 .435.432c.19.094.213.178.062.237a.748.748 0 0 1 -.225.04c-.3 0-1.7.445-1.743.553-.007.019-.01.26-.004.538.011.64.006.67-.133.736-.102.048-.179.148-.179.233 0 .081.07.175.152.201.152.05.153.087.023 1-.103.719-.3 1.329-.572 1.76-.19.302-.566.66-.743.71a.459.459 0 0 0 -.152.064c-.028.032-.09 1.042-.067 1.103.01.026.045.032.114.022.055-.008.447-.004.871.01.424.013 1.055.028 1.4.032.7.009.68.003.72.204a.89.89 0 0 0 .499.603c.21.092.617.087.825-.01.264-.123.39-.299.426-.598l.02-.164.603-.008c.332-.004 1.02.005 1.53.02.51.014.934.017.942.007s.01-.268.006-.573l-.01-.554-.133-.053c-.323-.128-.58-.399-.842-.885-.288-.536-.512-1.385-.568-2.159-.027-.367-.016-.399.156-.465.282-.108.278-.306-.007-.394-.106-.033-.151-.063-.166-.11-.03-.1-.027-.756.004-.936a.688.688 0 0 0 .014-.21c-.018-.052-.339-.234-.618-.35a5.372 5.372 0 0 0 -1.27-.327c-.283-.028-.303-.036-.303-.123 0-.076.088-.139.346-.245.364-.15.528-.416.5-.807-.025-.338-.188-.567-.502-.707l-.153-.069v-.572c0-.558.002-.573.061-.581.045-.006.112.046.248.19.102.11.322.335.489.5 1.478 1.466 2.685 3.216 3.404 4.937.056.135.112.277.124.314.012.038.039.105.06.15.095.202.366 1.092.468 1.538.042.186.082.346.089.356.027.041.221 1.296.251 1.625.018.195.033.588.032.873s.013.564.029.62c.036.126.113.151.586.186.186.014.372.03.412.038.151.026.784.038.878.016z" fill="#d64b33"/></g><g fill="#d6b333"><path d="m121.965 73.622c.019-.017.163-.042.322-.055.307-.025.859-.1.895-.12.013-.007.093-.025.18-.04.254-.044.72-.19 1.017-.317.597-.257.873-.675 1.193-.937.59-.485-.493-2.043-1.344-1.874-.785.155-1.374.862-1.135 1.607.076.234.21.431.409.601.22.189.205.229-.131.328-.425.125-.93.2-1.59.235-.53.029-.504.029-1.071 0a12.934 12.934 0 0 1 -1.93-.247c-1.614-.346-2.898-.864-4.222-1.702-1.359-.861-2.348-1.848-2.995-2.986a13.641 13.641 0 0 1 -.652-1.405c-.15-.367-.4-.89-.487-1.013-.058-.082-.143-.055-.187.057-.103.265-.517.569-.877.644-.358.074-.512.076-.885.01-1.039-.182-2.09-.825-2.896-1.771a5.185 5.185 0 0 1 -.507-.664c-.59-.89-.99-1.98-1.151-3.128-.114-.815-.07-2.429.08-2.9.08-.255.06-.277-.177-.185-.853.333-.881-.977-2.104-1.389-.903-.304.266-5.855 2.048-7.106.025-.018.121-.14.225-.26a14.31 14.31 0 0 1 1.32-1.228c.656-.494.973-.713 1.205-.832.109-.055.125-.076.125-.155a.415.415 0 0 0 -.04-.166 1.173 1.173 0 0 1 -.074-.25c-.067-.339-.062-.328-.134-.328a.409.409 0 0 0 -.167.062c-.055.034-.16.173-.247.14-.334-.125-5.352 3.606-5.517 3.952-.15.317-.69.106-.894-.118-.042-.047-.077-.108-.077-.135 0-.073-.118-.102-.166-.041-.02.026.047.413-.143.365-.621-.158-1.067 8.006-.614 8.487.401.427-.316.817-.796 1.034-.263.12-.292.156-.212.263.023.03-.219-.44.32.476 3.505 5.966 12.103 11.93 17.705 12.552.116.013.357.038.413.051.158.037.78.144 1.265.218.6.092 4.648.318 4.7.27zm-3.471-32.142c.06-.051.164-.122.231-.157.157-.084.734-.406 1.291-.721.243-.137.564-.316.712-.397.2-.109.279-.168.302-.226.017-.044.031-.25.031-.457 0-.449-.007-.455-.278-.242-.328.256-1.02.613-2.016 1.039-.445.19-.868.394-.876.423-.005.017.05.112.125.212.09.123.149.24.181.365l.058.219c.017.062.127.035.239-.058zm-1.346-19.705c.388-.047.722-.188.957-.403.385-.351.54-.905.41-1.474a1.524 1.524 0 0 0 -.436-.76c-.2-.185-.642-.454-.747-.454-.103 0-.087.122.033.258.385.435.446 1.042.157 1.551-.117.205-.426.471-.683.587-.196.089-.435.138-.922.19-.19.021-.26.04-.317.09-.104.09-.079.138.091.176.081.018.326.076.544.13.393.096.712.134.913.11zm1.054-5.109a.37.37 0 0 0 .133-.053c.048-.045.061-.992.02-1.43a11.464 11.464 0 0 0 -.434-2.091c-.182-.571-.455-1.28-.632-1.637a3.175 3.175 0 0 1 -.097-.218c-.05-.13-.53-1.02-.723-1.34a20.79 20.79 0 0 0 -3.483-4.297 22.635 22.635 0 0 0 -1.22-1.028c-.184-.13-.218-.208-.115-.268.108-.063.626-.277 1.01-.418.194-.071.392-.145.44-.164a4.98 4.98 0 0 1 .288-.095c.22-.067.375-.186.375-.289 0-.213-.225-.523-.454-.623-.247-.11-.436-.078-.728.119l-.562.382c-.24.163-.496.318-.57.344-.17.06-.275.032-.312-.084-.036-.112-.002-.748.051-.982.06-.256.056-.377-.014-.504a.59.59 0 0 0 -.472-.274c-.13 0-.31.077-.353.15-.03.053-.033.182-.014.606.04.86.037.922-.03.99-.087.09-.213.057-.447-.115-.512-.375-.886-.58-1.308-.713-.325-.104-.417-.094-.648.07-.207.148-.262.342-.154.542.08.15.877.57 1.38.73.352.111.68.248.777.324.12.093.11.161-.034.238-.052.028-.252.15-.443.272-1.07.68-2.285 1.808-3.203 2.976a24.114 24.114 0 0 0 -.95 1.337c-.045.075-.09.148-.103.163s-.079.126-.149.246l-.2.34c-.231.393-.523.962-.859 1.679a20.671 20.671 0 0 0 -.587 1.488c-.38 1.096-.59 2.14-.59 2.947v.382l.23.227.878.022c.483.012.908.015.944.008a.17.17 0 0 0 .097-.07c.018-.03.044-.35.059-.73.031-.777.12-1.606.219-2.065l.088-.424c.15-.735.488-1.76.855-2.59.13-.296.673-1.302.898-1.664.634-1.023 1.464-2.058 2.525-3.15.565-.58.624-.634.65-.587.012.022.014.275.005.562l-.018.523-.17.151c-.248.22-.33.399-.33.714 0 .223.01.264.095.423a.916.916 0 0 0 .435.432c.19.094.213.178.062.237a.748.748 0 0 1 -.225.04c-.3 0-1.7.445-1.743.553-.007.019-.01.26-.004.538.011.64.006.67-.133.736-.102.048-.179.148-.179.233 0 .081.07.175.152.201.152.05.153.087.023 1-.103.719-.3 1.329-.572 1.76-.19.302-.566.66-.743.71a.459.459 0 0 0 -.152.064c-.028.032-.09 1.042-.067 1.103.01.026.045.032.114.022.055-.008.447-.004.871.01.424.013 1.055.028 1.4.032.7.009.68.003.72.204a.89.89 0 0 0 .499.603c.21.092.617.087.825-.01.264-.123.39-.299.426-.598l.02-.164.603-.008c.332-.004 1.02.005 1.53.02.51.014.934.017.942.007s.01-.268.006-.573l-.01-.554-.133-.053c-.323-.128-.58-.399-.842-.885-.288-.536-.512-1.385-.568-2.159-.027-.367-.016-.399.156-.465.282-.108.278-.306-.007-.394-.106-.033-.151-.063-.166-.11-.03-.1-.027-.756.004-.936a.688.688 0 0 0 .014-.21c-.018-.052-.339-.234-.618-.35a5.372 5.372 0 0 0 -1.27-.327c-.283-.028-.303-.036-.303-.123 0-.076.088-.139.346-.245.364-.15.528-.416.5-.807-.025-.338-.188-.567-.502-.707l-.153-.069v-.572c0-.558.002-.573.061-.581.045-.006.112.046.248.19.102.11.322.335.489.5 1.478 1.466 2.685 3.216 3.404 4.937.056.135.112.277.124.314.012.038.039.105.06.15.095.202.366 1.092.468 1.538.042.186.082.346.089.356.027.041.221 1.296.251 1.625.018.195.033.588.032.873s.013.564.029.62c.036.126.113.151.586.186.186.014.372.03.412.038.151.026.784.038.878.016z" fill-rule="nonzero"/><path d="m107.734 33.568c-.343-.01-.686-.02-1.03-.032-.061-1.5-.927-3.387-1.768-3.445-.385-.027-.372-.211-.62.027a2.2 2.2 0 0 1 -.706.454c-.23.1-.263.108-.581.14-.305.03-.797-.02-1.153-.116-.885-.241-1.19-.198-1.394.2-.05.097-.105.177-.121.176-.055-.004-.317-.433-.356-.584-.118-.458.038-.827.461-1.094.113-.07.167-.122.156-.147-.009-.022-.107-.058-.222-.083-.54-.113-.99-.619-1.109-1.241-.096-.504-.1-.567-.064-.838.097-.71.279-1.192.654-1.727.326-.466.49-.802.632-1.293.058-.204.064-.613.01-.795-.04-.134-.268-.437-.389-.515-.032-.021-.054-.052-.048-.067.02-.053.897.387 1.214.607.479.335.756.756.846 1.286.053.314-.01 1.125-.123 1.582-.056.224-.014.543.086.652.084.093.275.207.344.207.093 0 .113-.042.107-.231a1.288 1.288 0 0 1 .156-.631c.12-.19.558-.445.638-.37.025.022.023.057-.005.136-.033.094-.03.12.022.226.066.133.22.286.704.7.452.387.657.663.804 1.084.054.157.066.258.07.57l.003.378.21.126c.542.325 1.234.949 1.602 1.445.465.626.737 1.237.898 2.023.074.357.097.775.072 1.19z"/><path d="m106.705 33.536 1.03.032c-.021.348-.076.694-.162 1-.234.828-.721 1.713-1.432 2.602-.11.137-.22.272-.244.3-.488.55-.806.882-1.575 1.643-1.504 1.491-2.11 2.234-2.415 2.964-.302.72-.259 1.52.113 2.049.333.476.873.702 1.563.652 1.133-.081 2.003-.917 2.503-2.402.097-.291.229-.809.307-1.214.091-.47.22-.844.442-1.276.486-.947 1.237-1.896 2.543-3.212.42-.423.563-.594.717-.858.117-.2.233-.535.298-.86.042-.208.127-.82.187-1.319 2.341.047 4.686.069 7.044.069 1.027 0 2.053.011 3.077.03.31.316.621.595.978.886.186.152.472.4.635.55.288.267.298.28.348.466.056.213.156.391.293.527.15.149.463.35.712.46.219.097.254.104.615.122.425.02.562.044.833.143.318.116.575.33.64.532.082.257-.106.578-.375.64a.198.198 0 0 0 -.113.075c-.05.085.034.151.271.217.385.106.716.38.853.708.05.118.063.208.063.423 0 .265-.005.28-.12.494-.104.192-.143.235-.29.325-.262.161-.362.186-.76.188-.377 0-.51-.025-.818-.16-.218-.095-.36-.245-.42-.444-.071-.23-.113-.28-.235-.28-.117 0-.139.032-.174.258-.025.16-.093.239-.287.33-.172.082-.346.085-.611.012-.705-.195-1.204-.903-1.133-1.608.055-.54.019-.71-.196-.909-.126-.116-.154-.13-.272-.13-.12 0-.14.01-.244.127-.295.332-.366.369-.596.313-.562-.137-.95-.82-1.015-1.79-.024-.362-.07-.53-.154-.566-.126-.053-.198-.007-.333.217-.169.28-.327.431-.52.498-.138.048-.168.05-.285.017-.359-.1-.79-.535-1.092-1.101-.1-.186-.11-.197-.205-.197-.117 0-.135.03-.135.23 0 .225.05.42.162.624.118.214.118.218.05.346-.107.203-.233.35-.533.63-.654.61-1.113.94-1.518 1.095-.497.19-.657.224-1.558.334-.43.053-.589.108-.855.294-.42.295-.818.787-1.054 1.303-.116.255-.13.544-.034.723.09.166.159.159.488-.05.4-.252.676-.403 1.057-.577 1.201-.549 2.241-.785 2.707-.614.335.122.687.379 1.077.784.62.647 1.081 1.34 1.22 1.84.055.194.062.271.046.54a6.16 6.16 0 0 1 -.075.627 24.93 24.93 0 0 0 -.092.532c-.045.284-.21.862-.304 1.057a1.89 1.89 0 0 1 -.19.3c-.123.154-.648.623-.83.74-.175.114-.506.318-.705.436-.21.125-.239.178-.163.303.205.337 1.143.785 2.142 1.022.44.105.669.135 1.173.155.535.021.91-.027 1.254-.162.32-.125.483-.24.749-.53.268-.293.37-.346.625-.327a.776.776 0 0 1 .501.211c.132.129.452.364.612.45.173.092.217.084.545-.097.134-.075.36-.192.5-.262s.36-.182.488-.25l.232-.125-.026-.328c-.042-.524-.033-1.396.015-1.556.245-.809.851-1.388 1.78-1.7.878-.295 1.908-.089 2.724.544.11.085.227.162.26.172.115.034.773-.363 1.19-.716a6.517 6.517 0 0 0 1.18-1.284c.221-.323.307-.514.346-.767.067-.438.083-.48.25-.651.132-.135.183-.168.305-.195.3-.066.595.03.753.248.194.267.195.64.003.834-.075.076-.144.107-.358.163-.306.08-.397.142-.397.275 0 .124.15.39.304.54.109.105.144.123.243.122a.43.43 0 0 0 .151-.022c.02-.011.091-.118.157-.237.163-.292.217-.357.36-.434.251-.135.476-.117.693.055.183.145.27.321.27.547 0 .227-.076.384-.23.483-.15.095-.227.119-.464.14-.307.027-.508.068-.557.113-.056.053-.058.28-.002.45.097.297.25.488.392.488.091 0 .154-.053.344-.291.14-.176.339-.282.526-.282.191 0 .43.09.557.211.313.298.26.907-.092 1.051-.112.046-.171.05-.427.037-.164-.01-.368-.024-.453-.033-.2-.021-.288 0-.349.086-.077.109-.094.266-.054.496.072.414.144.545.319.571.096.015.11.006.24-.15.168-.2.272-.25.52-.25.375 0 .603.2.634.554.017.202-.033.434-.119.541-.095.12-.407.2-.656.169-.102-.014-.16-.046-.292-.163-.177-.159-.239-.175-.395-.102-.129.06-.183.19-.199.474-.016.301.038.418.202.43.059.005.155-.01.213-.032.154-.06.425-.082.566-.046.146.036.339.218.393.37.053.15.021.453-.062.581-.17.265-.344.363-.654.368-.274.004-.4-.038-.543-.181-.108-.11-.24-.369-.242-.475a.542.542 0 0 0 -.054-.156c-.048-.097-.1-.134-.478-.332a5.714 5.714 0 0 0 -1.512-.574c-.303-.071-.363-.076-.934-.076-.712 0-.7-.005-.776.288-.068.26-.31.7-.507.916a2.926 2.926 0 0 1 -1.158.761 2.95 2.95 0 0 1 -.737.165c-.31.038-.381.038-.706 0-.434-.05-.72-.145-1.064-.353a2.65 2.65 0 0 1 -.878-.863c-.065-.108-.084-.122-.168-.119-.106.005-.257.061-.725.27-.322.144-.43.2-.983.5-.352.19-1.057.622-1.127.69-.028.027-.125.1-.213.16-.089.06-.161.121-.161.135 0 .054.11.077.31.063.241-.017.658.023 1.22.118 1.501.254 2.752.99 3.382 1.988.14.223.252.473.224.499-.011.01-.032 0-.046-.023a5.069 5.069 0 0 0 -.52-.608c-.477-.39-1.25-.725-1.963-.848-.758-.13-1.145-.15-1.695-.083-.549.068-.703.094-1.044.182-1.839.475-3.476 1.61-4.19 2.905-.217.395-.273.54-.359.932l-.085.392.06.275c.077.353.175.534.4.744.183.17.382.278.62.337.17.042.165.107-.018.231a4.918 4.918 0 0 0 -.444.39c-.984.953-1.685 2.053-2.092 3.282a8.726 8.726 0 0 0 -.232 4.542 9.408 9.408 0 0 0 2.808 4.911 9.288 9.288 0 0 0 2.465 1.659c.662.296 1.27.446 2.008.496.146.01.287.023.313.03.061.016.092.12.05.166-.087.097-.967-.093-1.716-.168-.546-.054-3.47-1.646-3.693-1.949-.314-.426-.959-.797-1.371-1.232-.634-.67-1.275-1.62-1.603-2.379a7.347 7.347 0 0 0 -.148-.326c-.036-.064-.247-.65-.307-.853a11.923 11.923 0 0 1 -.342-1.623c-.087-.61-.092-.688-.094-1.596-.001-.926.016-1.237.116-2.046.072-.586.221-1.453.26-1.511.006-.01.04-.17.075-.358a9.79 9.79 0 0 1 .148-.655c.667-2.457.799-3.092.872-4.198.01-.167.029-.31.04-.316a.523.523 0 0 1 .172.042c.313.11.66.059 1.086-.158.146-.075.8-.666 1.407-1.27.474-.474.716-.7 1.043-.974.404-.34.416-.352.406-.403-.006-.03-.076-.068-.2-.108-.337-.106-.471-.074-.59.142-.11.202-.208.244-.571.244-.262 0-.313-.008-.443-.072-.214-.103-.343-.198-.715-.522-.397-.347-.536-.401-.536-.21 0 .041-.008.134-.019.204-.016.113-.032.135-.118.173-.094.042-.112.04-.327-.017-.53-.142-1.062-.456-1.51-.89-.444-.431-.696-.793-.871-1.25-.064-.167-.077-.254-.087-.59-.01-.332-.021-.407-.07-.48-.077-.117-.073-.184.022-.345.117-.2.18-.222.595-.199.311.017.355.014.46-.036.215-.102.343-.284.41-.583.118-.515-.018-1.115-.361-1.605-.159-.226-.551-.577-.772-.689-.348-.176-.847-.232-1.177-.13-.155.046-.161.052-.159.141.003.084.167.54.22.61.077.101.237.613.278.886.1.682.088 1.307-.048 2.36-.07.549-.316 1.445-.511 1.868-.132.286-.468.73-.82 1.083-.375.376-.78.408-1.329.107-.652-.358-1.043-.326-1.263.106-.074.145-.074.147-.077.973-.003 1.13.088 1.858.302 2.415.098.256.15.348.325.56.114.14.316.407.449.594s.273.368.312.401c.177.15.556.228.802.164.047-.012.194-.118.327-.236.284-.253.322-.263.872-.24.405.018.57.073.8.269.182.154.225.27.204.549l-.016.212.16.143c.088.079.258.225.38.324.125.103.263.249.322.34l.103.16v.396c0 .469-.041.642-.22.92a.699.699 0 0 1 -.454.345c-.264.083-.633.043-1.099-.119-.086-.03-.176-.054-.2-.054s-.18.05-.345.111a1.642 1.642 0 0 1 -.536.126c-.553.034-1.032-.159-1.31-.528-.098-.13-.13-.202-.251-.582a.818.818 0 0 0 -.077-.182c-.051-.058-.208.02-.374.187-.246.247-.807-.166-.772.134.034.284-1.24-1.871-1.57-2.19-.222-.217-.53.019-.744-.196-.158-.159-.26-.372-.318-.666-.074-.376-.029-.774.143-1.26.19-.541.227-.663.227-.772 0-.054-.014-.106-.03-.116a.795.795 0 0 0 -.237.017c-.198.032-.207.031-.277-.03-.154-.134-.245-.57-.194-.937a4.27 4.27 0 0 1 .413-1.395l.138-.281c.13-.268.246-.676.246-.868 0-.068.014-.148.031-.179.08-.136.425-.174.647-.07.117.055.138.079.199.238.11.29.234.366.468.29.173-.057.482-.29.565-.429.128-.21.084-.59-.16-1.388l-.177-.573c-.319-1.028-.424-1.575-.447-2.315-.011-.385-.005-.616.02-.75.064-.341.127-.602.168-.692.047-.105.051-.27.008-.295-.017-.01-.076-.01-.13-.001-.119.02-.13.045-.252.534-.119.478-.235.713-.375 1.009-.483 1.016-1.448 1.347-2.275 1.614-1.397.45-3.417-.36-3.618-2.37-.133-1.339 1.218-4.026 2.675-4.845.197-.111.378-.328.329-.389-.116-.145.298-2.536 1.253-3.165.251-.166.304-.264.355-.234.017.01.3.715.41.77.094.047.05-.141.354-.24.623-.202.842-.924.808-1.768z"/><path d="m120.701 33.737c-1.024-.02-2.05-.031-3.077-.031-2.358 0-4.703-.022-7.044-.069.028-.235.05-.446.06-.577.034-.433.012-.954-.04-.973-.054-.018-.154.036-.262.141a1.057 1.057 0 0 1 -.405.242c-.206.046-.498-.186-.772-.613-.302-.47-.425-.798-.534-1.418-.043-.246-.095-.465-.117-.486-.033-.032-.08-.03-.317.01-.35.062-.5.032-.66-.132-.237-.245-.316-.56-.41-1.636-.01-.118-.033-.22-.051-.226a.552.552 0 0 0 -.18.03c-.25.07-.322.058-.473-.083-.143-.132-.237-.303-.321-.58-.064-.21-.048-.546.045-.932.083-.347.146-.7.146-.822.001-.124-.033-.138-.288-.116-.174.014-.206.01-.278-.044-.152-.111-.239-.341-.317-.838-.04-.264 0-.763.092-1.104.069-.255.07-.354.008-.466-.039-.07-.044-.133-.029-.333.023-.293.067-.475.21-.875.14-.387.358-.797.547-1.03.159-.195.265-.265.402-.265.2 0 .173-.136-.051-.253-.269-.14-.502-.419-.655-.783-.117-.278-.105-.436.044-.563.14-.119.268-.146.684-.146.285 0 .424.016.726.08.437.094.685.2.891.38.162.142.29.19.359.136.056-.043.029-.145-.066-.249a.356.356 0 0 1 -.071-.099c0-.072.133-.133.635-.29.712-.222 1.139-.3 1.836-.34.3-.016.659-.041.798-.056.33-.034.516-.033.589.003a.667.667 0 0 1 .157.17c.054.078.14.179.192.224l.093.081.574-.009c.315-.005.714.005.887.022.424.041.866.112.91.145.023.016.038.09.038.184 0 .136.014.177.106.304.06.08.142.213.185.296.07.137.076.178.074.477-.002.363-.052.534-.219.747-.212.272-.897.41-1.179.237-.063-.04-.115-.084-.115-.1 0-.042-.168-.098-.258-.086-.058.008-.118.06-.213.179-.325.412-.438.644-.376.77.031.064.048.071.145.06a.548.548 0 0 0 .207-.083 2 2 0 0 1 .25-.14c.146-.068.168-.07.7-.07.515 0 .775.027.86.088.082.06.073.176-.024.323-.106.16-.116.277-.037.451.067.15.158.574.158.739v.145h-.17c-.21 0-.453-.056-.742-.17-.293-.117-.398-.183-.576-.366-.178-.182-.244-.192-.447-.068-.454.279-1.06.427-1.728.424-.434-.002-.714-.05-1-.174a1.558 1.558 0 0 1 -.585-.5c-.226-.358-.33-.55-.42-.78a1.933 1.933 0 0 0 -.132-.294c-.042-.046-.215-.047-.256 0-.023.025-.02.08.01.197.074.296.405.937.676 1.308.609.837 1.507 1.264 2.983 1.418 1.047.11 1.46.228 1.765.507.23.209.277.314.297.653l.016.286.265.017a3.74 3.74 0 0 1 1.225.313c.527.244 1.122.797 1.321 1.228.047.1.058.187.058.434 0 .17-.015.37-.033.444s-.025.168-.015.207c.017.06.037.072.115.071.2-.001.451-.152 1.022-.615.399-.324 1.05-.944 1.304-1.24.31-.36.641-.833.946-1.35.154-.26.308-.425.453-.482.36-.142.434-.185.496-.287.092-.153.103-.266.054-.554-.113-.657-.143-1.014-.106-1.238.039-.238.11-.364.28-.504.165-.133.298-.178.94-.319.689-.15.712-.149.788.057.041.11.05.241.052.692 0 .305.022.95.048 1.431.056 1.054.034 1.457-.09 1.63-.04.057-.216.218-.39.357-.6.479-.79.702-.785.918.004.18.073.223.367.223h.23l.02.1c.033.16-.04.547-.138.737-.2.388-.707.63-1.446.69a3.74 3.74 0 0 0 -.444.06c-.162.04-.372.192-.372.269 0 .117.344.333.677.424.228.063.242.16.072.482-.213.404-.704.737-1.44.976-.302.097-1.517.567-1.558.602-.04.034.009.117.278.463.516.663.93 1.15 1.346 1.575z"/><path d="m128.27 33.975-1.886-.07c.093-.155.152-.261.198-.354l.19-.377a2.916 2.916 0 0 0 .158-.342c.08-.161.215-.495.334-.822.105-.293.154-.44.286-.86.06-.195.184-.697.248-1.009.29-1.425.35-2.837.179-4.174-.096-.748-.244-1.454-.353-1.673-.035-.073-.057-.139-.05-.146.023-.022.205.09.244.149.04.06.344.233.485.275.209.062.402.068.548.018.517-.179.921-.796 1.052-1.605.09-.56.115-1.033.076-1.489-.081-.962-.215-1.735-.418-2.417a16.898 16.898 0 0 0 -.41-1.227 11.572 11.572 0 0 0 -.342-.805 15.543 15.543 0 0 0 -.722-1.34 5.953 5.953 0 0 1 -.193-.312 1.497 1.497 0 0 0 -.195-.25c-.21-.215-.17-.27.143-.193.098.024.195.025.38.004.547-.063.796-.306.858-.842.04-.342-.153-1.114-.406-1.623-.363-.73-1.002-1.616-1.694-2.346-.483-.51-1.419-1.347-1.785-1.597a2.846 2.846 0 0 1 -.176-.13c-.082-.069-.358-.237-.389-.237a.412.412 0 0 1 -.12-.08c-.104-.088-.128-.157-.043-.123.114.046.451.045.666-.002.285-.062.478-.163.602-.313.098-.12.1-.127.084-.322-.026-.315-.236-.635-.701-1.066-.368-.34-.652-.545-1.2-.862a9.51 9.51 0 0 0 -.974-.457 1.606 1.606 0 0 1 -.191-.075c-.114-.075-1.07-.333-1.31-.353-.164-.014-.19-.024-.19-.07 0-.052.077-.113.4-.314.28-.175.3-.2.285-.38-.016-.214-.143-.404-.467-.702-.64-.586-1.778-1.19-3.323-1.763a24.801 24.801 0 0 0 -2.342-.745 67.79 67.79 0 0 0 -.925-.225c-.315-.076-.676-.17-.802-.208s-.278-.07-.338-.072-.143-.013-.183-.024c-.049-.015.022-.023.209-.025.196-.002.309.01.37.038.048.022.216.053.373.068.632.06 1.228.168 2.446.44.714.16 1.704.447 2.354.683 2.358.857 4.361 1.98 6.459 3.62.58.455.877.515 1.195.243a.742.742 0 0 0 .246-.506c0-.264-.196-.64-.482-.927-.124-.124-.034-.114.12.014l.191.155c.532.41 1.467 1.29 1.773 1.67l.3.367a15.637 15.637 0 0 1 1.672 2.534c.493.92.92 1.939 1.238 2.96.164.525.406 1.54.473 1.99.07.457.227.994.367 1.243.19.339.472.573.69.573.17 0 .38-.189.496-.448.047-.103.128-.504.143-.705.004-.057.02-.104.037-.104.035-.001.078.18.163.684.118.695.11 2.674-.015 3.71a38.915 38.915 0 0 1 -.266 1.964 55.289 55.289 0 0 1 -.307 1.746c-.234 1.158-.302 1.62-.307 2.1-.003.324.004.384.06.496.078.156.169.214.37.237.15.017.155.021.151.1-.007.167-.268.904-.52 1.472-.694 1.57-2.054 3.695-3.55 5.552l-.285.355a33.98 33.98 0 0 1 -1.452 1.651zm-1.886-.069 1.886.07c-.258.276-.508.536-.72.748-.415.416-.969.908-1.428 1.273-.502.398-.477.379-.53.399-.072.025-.11.022-.231-.023a3.087 3.087 0 0 0 -.376-.091c-.324-.061-.341-.097-.142-.292.075-.074.217-.232.316-.352s.188-.224.198-.232c.072-.054.618-.831.862-1.227.065-.106.12-.196.165-.273z"/></g></svg>