<svg height="1769" viewBox="44.36 53.36 171.18 143.11" width="2500" xmlns="http://www.w3.org/2000/svg"><path d="m128.62 124.81c.36 6.75-6 11.91-11.77 12-6 .1-12.37-5.4-12.07-11.83.32-6.6 5.54-12.37 12-11.84 3 .24 6.29.89 8.58 3.46a11.16 11.16 0 0 1 3.26 8.21z" fill="#222"/><g fill="#afd03a"><path d="m60.36 167.28a8.53 8.53 0 0 1 -7.08-2.41c-1.9-1.71-3.57-3.66-5.33-5.52-3.16-3.35-2.52-10.35.52-13.35 4.24-4.17 8.32-8.53 12.66-12.6 5.8-5.46 5.51-11.56-.08-17.08-4.06-4-7.94-8.19-12.11-12.07-4.58-4.27-3.76-12.16.73-15.8 2.83-2.31 5-5.55 9.17-5.88 3.08-.24 5.86.06 8.25 2.17 7.15 6.26 13.59 13.26 20.4 19.91 4.14 4 8.21 8.12 12.35 12.13 3.82 3.7 5.14 11.37-.07 16.23-8.23 7.68-16 15.83-24 23.77-2.55 2.53-5.2 4.95-7.7 7.51a9 9 0 0 1 -7.71 2.99zm112.69.02c-4.66.45-7.52-2.83-10.56-5.85q-10.65-10.53-21.35-21-3.54-3.49-7-7c-5.22-5.26-5.28-11.69-.05-16.9 10.37-10.35 20.82-20.62 31.18-31 3.88-3.88 11.19-4.26 15.07-.43 2.76 2.72 6 4.88 7.05 9a9.85 9.85 0 0 1 -2.48 9.76c-4.54 4.89-9.24 9.66-14 14.33-3.1 3-4 9.54.52 14.15 4 4.1 8.15 8 12.26 12 5.3 5.12 5.58 11.51.43 16.89-4.95 5.14-6.65 6.04-11.07 6.05zm-99.41-98.3c.15-1.06 1.23-7.77 7.11-11.31 7-4.21 14.92-.4 15.19-.11 4 4.06 8.4 7.71 12.12 12 5.09 5.84 12.07 5.61 17.45.14 3.85-3.92 7.74-7.77 11.64-11.63s9.77-4.73 14-1.57c3.62 2.68 7.41 5.43 8.21 10.47a11 11 0 0 1 -3.22 10.18c-10.34 10.22-20.6 20.51-31 30.69-5.23 5.14-11.72 5.06-16.91-.18q-15.16-15.36-30.63-30.43a14.63 14.63 0 0 1 -3.96-8.25zm42.56 69.46a10.36 10.36 0 0 1 8.79 3.39q15.81 15.72 31.65 31.41a11 11 0 0 1 0 15.05 60.75 60.75 0 0 1 -5.25 4.89c-3.86 3.15-10.83 2.16-14.18-1.24-3.87-3.92-7.8-7.77-11.65-11.7-5.55-5.66-12.37-5.78-18.31.6-3.59 3.85-7.4 7.5-11.25 11.1-4.69 4.38-10.36 4.51-15.14.27-2.52-2.24-5.11-4.48-6.41-7.85a9.38 9.38 0 0 1 2.06-10.62c11-11.09 22.1-22 33.22-33 1.85-1.76 4.09-2.88 6.47-2.3z"/><path d="m198.61 143.07a3.87 3.87 0 0 1 -3.38-1.41c-4.48-4.48-8.81-9.11-13.38-13.48-2.17-2.08-1.95-4.08-.36-6a136.43 136.43 0 0 1 14.56-14.49c2.17-1.9 5.42-1.14 7.62 1.33s2.34 4.85.24 7.15c-1.63 1.77-3.49 3.33-5.19 5a4.9 4.9 0 0 0 .08 7.49c1.66 1.53 3.19 3.17 4.94 4.63a4.35 4.35 0 0 1 1.24 5.44c-1.3 2.35-2.92 4.62-6.37 4.34z"/><path d="m215.38 119.91a4.91 4.91 0 0 1 -1.56 2.29c-3 2.82-1.85 3.8 0 5.49 1.31 1.16 1.72 2.16.75 3.65s-2 1.77-3.31.62c-1.95-1.76-3.83-3.6-5.68-5.47a2 2 0 0 1 -.13-2.83c1.84-2 3.81-3.8 5.77-5.65a2.12 2.12 0 0 1 2.66-.12 2.68 2.68 0 0 1 1.5 2.02z"/></g><g font-family="Montserrat-Bold, Montserrat" font-weight="700"><text fill="#231f20" font-size="48" transform="translate(231.85 115.27)"><tspan letter-spacing="0em">L</tspan><tspan letter-spacing="-.01em" x="29.18" y="0">A</tspan><tspan x="65.47" y="0">GOON</tspan><tspan font-family="Montserrat-Medium, Montserrat" font-size="26.68" font-weight="500"><tspan x="0" y="32.01">T</tspan><tspan letter-spacing="0em" x="15.66" y="32.01">E</tspan><tspan x="33.5" y="32.01">CHNO</tspan><tspan letter-spacing="-.01em" x="118.52" y="32.01">L</tspan><tspan letter-spacing="0em" x="134.02" y="32.01">OGIES</tspan></tspan></text><text fill="#808080" font-size="12.3" transform="translate(231.85 172.23)">B<tspan letter-spacing="-.01em" x="9.41" y="0">E</tspan><tspan letter-spacing="-.03em" x="17.58" y="0">Y</tspan><tspan x="25.52" y="0">OND </tspan><tspan letter-spacing="-.02em" x="59.48" y="0">B</tspan><tspan letter-spacing="-.01em" x="68.71" y="0">Y</tspan><tspan x="76.86" y="0">TES </tspan><tspan letter-spacing="-.02em" x="104.04" y="0">W</tspan><tspan x="118.17" y="0">E BUILD BONDS</tspan></text></g></svg>