<svg height="2500" width="2500" xmlns="http://www.w3.org/2000/svg" viewBox="0 0 500 500"><path d="M0 0h500v500H0V0z" fill="#fefefe"/><path d="M173.213 177.482c1.847-.005 3.694-.012 5.541-.02 4.998-.019 9.996-.012 14.994 0 5.242.01 10.483.001 15.725-.005 8.802-.007 17.604.002 26.406.022 10.16.021 20.321.014 30.482-.008 8.739-.018 17.478-.02 26.217-.01 5.213.006 10.425.007 15.638-.006 4.903-.012 9.805-.004 14.708.02 1.793.005 3.587.003 5.381-.006 10.63-.047 19.11.64 28.445 6.156 4.591 4.846 9.358 11.598 9.397 18.42l.022 2.566.008 2.82.02 2.968c.02 3.252.031 6.505.041 9.757l.013 3.367c.02 5.886.035 11.772.044 17.658a3845.2 3845.2 0 0 0 .085 18.204c.027 4.674.035 9.348.038 14.022.005 2.235.017 4.471.035 6.707.025 3.14.024 6.28.017 9.42l.039 2.771c-.066 8.2-2.15 15.43-7.759 21.57-6.513 5.952-13.517 8.273-22.219 8.279l-2.325.013c-2.579.014-5.158.02-7.737.026l-5.54.025c-6.07.026-12.143.041-18.214.055l-6.273.017c-8.7.021-17.398.04-26.098.051-12.462.016-24.923.05-37.384.107-8.765.038-17.53.058-26.294.063-5.233.004-10.465.016-15.698.048-4.928.03-9.855.037-14.782.025-1.803 0-3.607.008-5.41.025-11.164.104-19.658-.579-28.589-7.921-4.026-4.947-8.292-10.274-8.34-16.81-.01-.863-.018-1.726-.027-2.616l-.013-2.877-.025-3.026c-.025-3.318-.041-6.635-.055-9.953l-.017-3.433c-.026-6.003-.046-12.006-.06-18.008-.017-6.19-.061-12.378-.112-18.568-.034-4.766-.046-9.533-.051-14.3-.007-2.28-.022-4.56-.046-6.84a785.563 785.563 0 0 1-.024-9.607l-.05-2.828c.07-7.495 2.241-13.885 7.19-19.63 1.73-1.6 3.47-2.907 5.443-4.192l1.695-1.113c7.928-4.247 16.786-3.448 25.518-3.405z" fill="#fffefe"/><path d="M165.327 188.886h2.614c2.795 0 5.589.008 8.383.016l5.174.003c6.396.006 12.793.02 19.19.033L244 189v122l-43 .313-13.543.137c-5.486.023-5.486.023-8.06.027-1.786.008-3.571.025-5.357.05-2.715.038-5.43.043-8.145.04l-2.383.055c-5.95-.055-9.858-1.955-14.512-5.622-3.125-3.427-4.12-6.485-4.147-11.079l-.022-2.51-.008-2.744-.02-2.898c-.02-3.17-.031-6.338-.041-9.507l-.013-3.279a8562.6 8562.6 0 0 1-.044-17.177c-.011-5.915-.046-11.83-.085-17.745-.026-4.547-.035-9.095-.038-13.643-.005-2.18-.017-4.36-.035-6.54a893.212 893.212 0 0 1-.017-9.157l-.039-2.725c.046-5.502.843-8.632 4.509-12.996 5.318-4.8 9.39-5.145 16.327-5.114z" fill="#fffefe"/><path d="M173.213 177.482c1.847-.005 3.694-.012 5.541-.02 4.998-.019 9.996-.012 14.994 0 5.242.01 10.483.001 15.725-.005 8.802-.007 17.604.002 26.406.022 10.16.021 20.321.014 30.482-.008 8.739-.018 17.478-.02 26.217-.01 5.213.006 10.425.007 15.638-.006 4.903-.012 9.805-.004 14.708.02 1.793.005 3.587.003 5.381-.006 10.63-.047 19.11.64 28.445 6.156 4.591 4.846 9.358 11.598 9.397 18.42l.022 2.566.008 2.82.02 2.968c.02 3.252.031 6.505.041 9.757l.013 3.367c.02 5.886.035 11.772.044 17.658a3845.2 3845.2 0 0 0 .085 18.204c.027 4.674.035 9.348.038 14.022.005 2.235.017 4.471.035 6.707.025 3.14.024 6.28.017 9.42l.039 2.771c-.066 8.2-2.15 15.43-7.759 21.57-6.513 5.952-13.517 8.273-22.219 8.279l-2.325.013c-2.579.014-5.158.02-7.737.026l-5.54.025c-6.07.026-12.143.041-18.214.055l-6.273.017c-8.7.021-17.398.04-26.098.051-12.462.016-24.923.05-37.384.107-8.765.038-17.53.058-26.294.063-5.233.004-10.465.016-15.698.048-4.928.03-9.855.037-14.782.025-1.803 0-3.607.008-5.41.025-11.164.104-19.658-.579-28.589-7.921-4.026-4.947-8.292-10.274-8.34-16.81-.01-.863-.018-1.726-.027-2.616l-.013-2.877-.025-3.026c-.025-3.318-.041-6.635-.055-9.953l-.017-3.433c-.026-6.003-.046-12.006-.06-18.008-.017-6.19-.061-12.378-.112-18.568-.034-4.766-.046-9.533-.051-14.3-.007-2.28-.022-4.56-.046-6.84a785.563 785.563 0 0 1-.024-9.607l-.05-2.828c.07-7.495 2.241-13.885 7.19-19.63 1.73-1.6 3.47-2.907 5.443-4.192l1.695-1.113c7.928-4.247 16.786-3.448 25.518-3.405zm-25.588 18.143c-3.071 4.489-2.78 8.295-2.786 13.595l-.015 2.897c-.015 3.175-.022 6.35-.027 9.524l-.017 6.607c-.01 4.623-.017 9.247-.02 13.87-.006 5.923-.03 11.846-.058 17.769-.019 4.552-.024 9.104-.026 13.656-.003 2.183-.01 4.366-.024 6.55-.017 3.056-.015 6.113-.008 9.17l-.028 2.73c.033 5.09.548 8.601 3.384 13.007 5.666 5.23 9.829 6.295 17.44 6.227h2.615c2.79 0 5.578-.016 8.367-.032 1.723-.003 3.447-.005 5.17-.006 6.386-.01 12.772-.038 19.158-.064L244 311V189l-43.063-.25-13.57-.11c-4.033-.014-4.033-.014-8.066-.022-1.789-.006-3.577-.02-5.366-.04-2.718-.03-5.436-.034-8.154-.032l-2.394-.044c-6.725.05-11.15 2.025-15.762 7.123zM256 189v122l43 .313 13.543.137c4.03.017 4.03.017 8.06.027 1.786.008 3.571.025 5.357.05 2.715.038 5.43.043 8.145.04l2.383.055c5.88-.054 10.138-1.615 14.512-5.622 4.2-5.43 4.58-11.05 4.518-17.701l.02-2.837c.018-3.072.007-6.144-.007-9.216l.012-6.44c.006-4.49-.003-8.978-.022-13.468-.022-5.745-.01-11.49.015-17.236.014-4.43.01-8.858 0-13.288-.003-2.118 0-4.236.01-6.354a812.1 812.1 0 0 0-.028-8.888l.024-2.634c-.076-5.508-.82-9.719-4.542-13.938-5.272-4.629-10.032-5.725-16.895-5.568l-2.616-.001c-2.768.003-5.534.041-8.302.08-1.719.008-3.438.013-5.158.016-6.343.026-12.686.096-19.029.16L256 189z" fill="#ff9350"/><path d="M194.5 211.375c3.5.625 3.5.625 5.077 2.773 1.494 2.994 2.625 5.936 3.691 9.108l1.274 3.762 1.345 4.04 1.4 4.173c.974 2.91 1.944 5.821 2.911 8.733 1.238 3.724 2.489 7.442 3.743 11.16.967 2.869 1.924 5.741 2.88 8.614.458 1.372.918 2.743 1.382 4.113a883.347 883.347 0 0 1 1.917 5.764l1.103 3.305c.972 3.852 1.713 7.469-.348 11.018C219 289 219 289 216.062 289.25c-3.513-1.434-3.746-1.942-5.25-5.25a159.457 159.457 0 0 1-1.812-5l-.91-2.492c-1.176-3.337-2.09-5.944-2.09-9.508h-23l-2 9a118.243 118.243 0 0 1-1.875 5.938l-.93 2.777c-1.4 2.676-2.364 3.34-5.195 4.285-2.99-.352-3.827-.827-6-3 .218-8.05 2.805-15.254 5.367-22.828l1.32-3.961c.917-2.752 1.84-5.502 2.769-8.25 1.186-3.512 2.358-7.03 3.526-10.548.905-2.72 1.816-5.44 2.729-8.158.434-1.296.867-2.593 1.298-3.89.605-1.813 1.217-3.623 1.83-5.432l1.048-3.114c3.01-7.622 3.01-7.622 7.613-8.444zM305.5 210.625c2.984.448 3.676 1.026 5.5 3.375.34 2.085.34 2.085.293 4.45l-.03 2.568-.075 2.67-.042 2.705A550.09 550.09 0 0 1 311 233l3.797-.105c1.65-.029 3.302-.056 4.953-.083l2.5-.076c6.173-.074 6.173-.074 9.328 1.776.47.49.939.982 1.422 1.488-.25 3.375-.25 3.375-1 7-3.55 2.826-7.943 2.224-12.25 2.125l-2.258-.027c-1.83-.024-3.661-.06-5.492-.098 2.149 8.291 4.438 14.513 10 21a467.797 467.797 0 0 1 5.313 6.625l1.348 1.633c2.797 3.523 4.115 6.231 4.339 10.742-1.125 2.375-1.125 2.375-3 4-2.383.367-2.383.367-5 0-1.922-1.766-1.922-1.766-3.75-4.25l-2.059-2.738L317 279c-1.204-1.62-2.413-3.234-3.624-4.849a778.561 778.561 0 0 1-3.396-4.585c-1.569-2.033-3.106-3.822-4.98-5.566l-3.15 4.065c-.906 1.173-1.814 2.344-2.724 3.514-3.597 4.652-6.925 9.45-10.142 14.374-2.567 2.648-4.356 2.875-7.984 3.047-1.875-1.063-1.875-1.063-3-3-.53-4.011-.202-5.679 1.977-9.148a166.257 166.257 0 0 1 2.648-3.227l1.385-1.728A468.778 468.778 0 0 1 288 267c5.508-6.723 9.026-13.477 11-22l-3.324.105c-1.455.029-2.91.056-4.364.082l-2.185.077c-4.558.062-7.577-.307-11.127-3.264-.5-3-.5-3 0-6 1.59-2.119 2.444-2.91 5.085-3.34.78.015 1.56.03 2.364.047l2.569.03 2.67.075 2.705.042c2.203.035 4.405.084 6.607.146l-.048-1.697a809.318 809.318 0 0 1-.14-7.616l-.076-2.67-.029-2.568-.048-2.364c.588-3.594 2.33-4.933 5.841-5.46z" fill="#ff9452"/><path d="M246.654 351.678l3.034.01 2.974-.05c5.894-.003 10.155.486 15.338 3.362 3.011 3.4 3.472 6.486 3.293 11.004-.455 3.097-1.613 5.383-3.293 7.996-3 2-3 2-6 2v2l1.793.664c2.926 1.772 3.902 3.717 5.52 6.711l1.613 2.898c1.132 2.874 1.212 3.919.074 6.727-2.7.465-2.7.465-6 0-2.092-2.199-3.405-4.765-4.812-7.438l-2.333-4.183L256 380c-1.663-1.663-3.783-1.36-6.062-1.563l-2.786-.253L245 378l.035 3.465.028 4.472.025 2.288A182.68 182.68 0 0 1 245 394c-1 1-1 1-3.437 1.187C239 395 239 395 237 393c-.2-2.917-.28-5.738-.266-8.656l-.005-2.6c-.002-1.816.002-3.632.01-5.448.011-2.785 0-5.57-.012-8.355 0-1.761.003-3.523.007-5.285l-.012-2.535c.068-8.296 2.468-8.388 9.932-8.443z" fill="#8e19e3"/><path d="M162 100c2.966.18 4.524.561 6.726 2.591l1.544 2.057 1.755 2.301 1.787 2.426 1.752 2.309c4.565 6.042 8.982 12.192 13.436 18.316l1-29 5-1c2.698 2.698 2.238 4.788 2.252 8.452l-.022 2.677v2.742a1177.6 1177.6 0 0 1-.024 5.742c-.018 2.941-.02 5.882-.02 8.823l-.018 5.568-.003 2.683c-.049 6.197-.049 6.197-1.165 7.313-2.266.39-2.266.39-5 0-2.36-2.203-2.36-2.203-4.75-5.25l-1.291-1.623A349.555 349.555 0 0 1 181 132l-1.287-1.682A756.359 756.359 0 0 1 172 120l-3-4-.076 2.463c-.115 3.658-.238 7.316-.361 10.975l-.12 3.876-.127 3.682-.11 3.412C168 143 168 143 167 144c-2 .04-4 .043-6 0-1.683-3.366-1.163-7.172-1.168-10.875l-.01-2.667c-.005-1.863-.007-3.726-.007-5.589-.002-2.857-.02-5.715-.04-8.572-.003-1.807-.005-3.615-.005-5.422l-.022-2.601c.023-6.045.023-6.045 2.252-8.274z" fill="#8f1ce3"/><path d="M321.395 99.957c3.771 1.51 4.712 4.21 6.292 7.73l.99 2.103a492.137 492.137 0 0 1 2.14 4.636 519.676 519.676 0 0 0 3.956 8.355c.932 1.968 1.861 3.937 2.79 5.906l1.375 2.86 1.253 2.715 1.132 2.405c.811 2.796.449 4.559-.323 7.333h-5c-4-6.625-4-6.625-4-10h-22l-3 9c-1 1-1 1-3.563 1.062L301 144c-1.478-4.663-.404-7.19 1.605-11.55l.85-1.872a669.53 669.53 0 0 1 2.732-5.89 2321.15 2321.15 0 0 0 1.792-3.92c9.488-20.74 9.488-20.74 13.416-20.811zM131.395 99.957c3.771 1.51 4.712 4.21 6.292 7.73l.99 2.103a492.137 492.137 0 0 1 2.14 4.636 519.676 519.676 0 0 0 3.956 8.355c.932 1.968 1.861 3.937 2.79 5.906l1.375 2.86 1.253 2.715 1.132 2.405c.811 2.796.449 4.559-.323 7.333h-5c-4-6.625-4-6.625-4-10h-22l-3 9c-1 1-1 1-3.563 1.062L111 144c-1.478-4.663-.404-7.19 1.605-11.55l.85-1.872a669.53 669.53 0 0 1 2.732-5.89 2321.15 2321.15 0 0 0 1.792-3.92c9.488-20.74 9.488-20.74 13.416-20.811z" fill="#8d17e2"/><path d="M177 354l2 2c-.375 2.125-.375 2.125-1 4-4.507 1.252-4.507 1.252-6.867.047-3.857-1.893-7.943-1.589-12.133-1.047-4.11 2.055-6.36 3.73-8 8-.61 5.485-1.308 11.835 1.75 16.688 3.117 3.203 4.974 4.235 9.484 4.507l3.516-.07 3.547-.055L172 388v-10l-3.938.063A59.19 59.19 0 0 1 164 378c-1-1-1-1-1.063-3.563L163 372c2.48-.027 4.958-.047 7.438-.063l2.142-.025c1.807-.009 3.614.036 5.42.088 1 1 1 1 1.114 2.858l-.016 2.396-.01 2.588-.025 2.72-.014 2.733c-.012 2.235-.028 4.47-.049 6.705-8.644 3.823-15.912 5.676-25.188 2.5-5.16-2.25-8.195-5.556-10.812-10.5-2.216-6.471-1.972-15.037.125-21.5 3.14-5.862 7.548-8.935 13.742-10.996 7.029-1.66 13.618-.507 20.133 2.496zM381.688 101.688c2.726 1.574 3.196 1.992 4.312 5.062V109c-4.514 1.254-4.514 1.254-6.832.043-4.118-1.981-8.705-1.454-13.168-1.043-3.908 1.384-4.729 2.532-6.813 6.125-2.027 5.48-1.928 10.694-.062 16.188 2.441 3.498 3.935 4.92 7.875 6.687 4.355.321 8.642.233 13 0v-11h-9l-1-4c1.756-1.756 4.036-1.132 6.371-1.137l2.129.012 2.129-.012c5.244.01 5.244.01 6.371 1.137.1 2.989.139 5.95.125 8.938l.012 2.537-.004 2.427-.004 2.234C387 140 387 140 386 142c-4.303 2.333-8.597 2.333-13.375 2.313l-2.21.048c-5.94.006-10.693-1.031-15.34-5.01l-1.387-1.726-1.426-1.71c-4.104-6.226-3.953-12.688-3.262-19.915 1.674-6.196 5.689-10.533 11-14 6.717-3.247 14.853-3.36 21.688-.313z" fill="#8e19e3"/><path d="M242 103l2 2c-.375 2.625-.375 2.625-1 5-3.123-.486-5.996-.999-9-2-4.99-.524-8.905-.508-13.5 1.625-4.006 3.806-4.585 7.473-4.813 12.813.132 4.582.943 7.612 3.313 11.562 5.38 4.39 12.425 3.263 19 3v-11h-10l1-5c2.312-.027 4.625-.046 6.938-.063l3.902-.035C243 121 243 121 244 122c.332 3.115.325 6.245.375 9.375l.113 2.656c.034 2.422.005 4.597-.488 6.969-4.89 4.28-11.441 4.31-17.695 4.215-5.154-.48-9.026-2.197-13.055-5.403-6.305-7.88-7.373-14.694-6.25-24.812 1.548-6.48 5.361-9.456 10.879-12.871 7.588-4.039 16.57-2.676 24.121.871z" fill="#8d17e2"/><path d="M283 351c4.556.556 4.556.556 6 2 .134 2.013.204 4.03.246 6.047l.1 3.75c.06 2.62.118 5.24.172 7.86l.103 3.765.076 3.456c.305 3.139.84 5.337 2.303 8.122 3.724 2.483 6.691 2.41 11 2 2.389-.525 2.389-.525 4-2 1.944-3.91 2.272-7.206 2.344-11.543l.09-3.752.132-7.82.09-3.74.057-3.427C310 353 310 353 312 351c4.556.556 4.556.556 6 2 .243 4.024.229 8.05.24 12.081.01 2.015.04 4.03.072 6.044.033 8.1.022 15.17-5.937 21.313-3.947 3.165-8.074 3.138-12.938 3.187l-2.219.033c-5.114-.134-8.347-1.07-12.218-4.658-5.132-7.192-4.535-15.463-4.375-23.938.003-1.339.004-2.678.004-4.017.09-9.764.09-9.764 2.371-12.045zM257 100c4.556.556 4.556.556 6 2 .134 2.013.204 4.03.246 6.047l.1 3.75c.06 2.62.118 5.24.172 7.86l.103 3.765.076 3.456c.305 3.139.84 5.337 2.303 8.122 3.724 2.483 6.691 2.41 11 2 2.389-.525 2.389-.525 4-2 1.944-3.91 2.272-7.206 2.344-11.543l.09-3.752.132-7.82.09-3.74.057-3.427C284 102 284 102 286 100c4.556.556 4.556.556 6 2 .243 4.024.229 8.05.24 12.081.01 2.015.04 4.03.072 6.044.033 8.1.022 15.17-5.937 21.313-3.947 3.165-8.074 3.138-12.938 3.187l-2.219.033c-5.114-.134-8.347-1.07-12.218-4.658-5.132-7.192-4.535-15.463-4.375-23.938.003-1.339.004-2.678.004-4.017.09-9.764.09-9.764 2.371-12.045z" fill="#8e19e3"/><path d="M192 351c4.556.556 4.556.556 6 2 .122 2.086.18 4.176.21 6.266.03 1.282.058 2.565.087 3.886.041 2.045.078 4.09.104 6.136.028 1.972.075 3.943.122 5.915l.06 3.583c.453 3.493 1.324 5.409 3.417 8.214 3.064 1.532 5.617 1.23 9 1 3.822-1.698 5.51-3.128 7-7 .367-3.194.367-3.194.414-6.734l.117-3.926.094-4.09.117-4.137c.094-3.37.18-6.742.258-10.113 2.375-.625 2.375-.625 5-1 3.473 3.473 2.339 8.563 2.371 13.258v2.235c.004 2.235.04 4.468.078 6.702.006 1.43.01 2.86.012 4.29l.025 3.928c-.677 4.995-2.796 8.102-6.548 11.4-3.999 2.45-7.655 2.413-12.25 2.5l-3.926.113c-4.995-.566-7.78-2.032-11.008-5.931-3.762-6.07-3.293-12.882-3.166-19.806.037-2.08.041-4.16.04-6.24.09-10.168.09-10.168 2.372-12.449z" fill="#8d16e2"/><path d="M356.285 353.734C358 355 358 355 358.81 357.016 359 359 359 359 358 361c-4.665-.907-4.665-.907-6.887-1.523-2.278-.514-4.342-.645-6.676-.664l-2.316-.043c-2.423.098-2.423.098-5.121 2.23-.25 3.084-.25 3.084 0 6 4.185 1.953 8.125 3.31 12.625 4.375 4.708 1.255 7.536 2.46 10.375 6.625 1.313 4.17 1.377 6.887-.563 10.75-1.995 3.544-4.71 4.787-8.437 6.25-2.826.43-5.583.465-8.438.438l-2.197.06c-5.54-.005-8.763-1.436-13.365-4.498l1-5 3-1 2.5 1.438c5.821 2.598 12.398 2.338 18.5.562v-6c-3.869-1.81-7.36-3.147-11.563-3.938-5.52-1.13-9.273-3.316-12.437-8.062-.793-3.934-.83-7.527 1.168-11.074 7.303-8.956 17.107-8.625 27.117-4.192z" fill="#8e19e3"/><path d="M401.592 100.886l3.412.016 3.682.01 3.876.026 3.89.013c3.182.012 6.365.028 9.548.049a88.406 88.406 0 0 1 1 5c-1 1-1 1-3.041 1.114l-2.65-.016-2.862-.01-3.01-.025-3.021-.014c-2.472-.012-4.944-.03-7.416-.049v12l4.121-.035 5.316-.027 2.721-.026 2.588-.01 2.396-.016C424 119 424 119 425 120v5h-20v13h21l1 5c-1.803 1.803-4.54 1.13-6.969 1.133l-3.668.004-3.863-.012-3.863.012-3.668-.004-3.393-.004C399 144 399 144 398 143c-.101-3.018-.14-6.013-.133-9.031l-.003-2.746c0-1.92.001-3.84.006-5.76.005-2.95 0-5.9-.007-8.85 0-1.86.002-3.721.004-5.582l-.006-2.692c.028-7.29.028-7.29 3.731-7.453z" fill="#8a11e2"/><path d="M80 100.875C83 101 83 101 84 102c.089 2.594.115 5.16.098 7.754l-.005 2.35c-.005 2.486-.018 4.972-.03 7.458-.006 1.682-.01 3.364-.014 5.045-.011 4.131-.028 8.262-.049 12.393l1.82-.016c2.706-.02 5.412-.034 8.117-.047l2.866-.025 2.724-.01 2.524-.016C104 137 104 137 105 138c.125 2.5.125 2.5 0 5-2.645 2.645-10.374 1.186-13.938 1.188l-3.693.037-3.521.005-3.25.013C78 144 78 144 76 142a124.528 124.528 0 0 1-.23-8.91v-2.675c.004-1.867.012-3.734.024-5.6.018-2.87.02-5.737.02-8.606l.018-5.432.003-2.616c.058-7.115.058-7.115 4.165-7.286z" fill="#8e19e3"/><path d="M245 358c13.85-.42 13.85-.42 18 3 .629 1.938.629 1.938.563 4l.003 2.063C263 369 263 369 261.418 370.738c-4.943 2.58-11.008 1.412-16.418 1.262v-14z" fill="#faf5fd"/><path d="M320 110c3.506 2.748 4.665 6.662 6.188 10.688L329 128h-16a148.93 148.93 0 0 1 7-18zM130 110c3.506 2.748 4.665 6.662 6.188 10.688L139 128h-16a148.93 148.93 0 0 1 7-18z" fill="#f6eefd"/><path d="M194 235c2.716 2.716 3.47 5.866 4.625 9.438l.695 2.064c.97 2.948 1.68 5.375 1.68 8.498h-13c1.369-6.958 3.453-13.386 6-20z" fill="#fffaf7"/></svg>