<svg height="66" viewBox="26.2 212.6 600 227.7" width="2500" xmlns="http://www.w3.org/2000/svg"><path d="m26.2 212.6h600v227.7h-600z" fill="#004e87"/><path d="m35.3 230.3h31.6v67.5h49.8v27h-81.4zm131.8 59.4 8.6-22.9 8.6 22.9zm-46.6 35.1h33.7l4.9-12.7h33.1l5 12.7h34.3l-39.8-95.1h-31.3zm-60.2 98.1h31.6v-67.7h24.9v-26.7h-81.5v26.7h24.9v67.7zm91.6-49.5v-18.5h13.8c7.3 0 12 3 12 9v.3c0 5.8-4.6 9.2-12.1 9.2zm-31.6 49.5h31.6v-27h6.8l17.8 27h36l-22-32.1c11.5-5.5 18.6-15.1 18.6-28.9v-.3c0-9.7-3-16.7-8.6-22.4-6.6-6.6-17.3-10.8-34-10.8h-46.2zm159.9-23.9v-14h15.9c6.9 0 10.3 2.8 10.3 6.9v.3c0 4.1-3.5 6.9-10.4 6.9h-15.8zm0-33.5v-13.2h13.6c6.7 0 10.1 2.3 10.1 6.5v.3c0 4.2-3.2 6.5-10 6.5h-13.7zm-30.8 57.4h52.4c23.9 0 36.3-11.1 36.3-26.2v-.3c0-12.9-7.8-19.4-20-22.9 10.1-3.5 16.9-10.4 16.9-21.6v-.3c0-6.5-2.4-11.3-5.8-14.7-5.5-5.5-13.8-8.5-26.9-8.5h-52.9zm89.9-42.4c0 31.3 18.2 44.3 46.4 44.3s47-12.7 47-44.9v-51.4h-32.1v52.4c0 11.5-6.1 16.1-14.6 16.1s-14.6-5-14.6-16.7v-51.7h-32.1zm97.2 42.4h31.3v-43.6l35.1 43.6h28.1v-94.5h-31.3v41.7l-33.7-41.7h-29.6v94.5zm98.1 0h81.2v-25.9h-50.2v-10.3h46.2v-22.8h-46.2v-9.6h49.5v-25.9h-80.6v94.5zm-321.2 0h32.3v-94.5h-32.3z" fill="#fff"/></svg>