<svg height="-1059" viewBox="227.09 396.29 718.38 188.09" width="2500" xmlns="http://www.w3.org/2000/svg"><path d="m470.09 546.63v-127.39h31.83v118.69h63.88v28.88h-75.53c-11.14 0-20.18-9.03-20.18-20.18zm112.99 20.18v-147.57h95.71v19.6l-9.07 9.28h-54.81v30.15h43.43v28.25h-43.43v31.41h63.88v28.88zm118.48 0v-147.57h33.94l49.33 91.28h1.48l-2.95-28.04v-63.24h31.83v147.57h-33.94l-49.33-91.28h-1.48l2.95 28.04v63.25h-31.83zm137.66 0v-28.88h63.88c3.51 0 6.18-.91 8.01-2.74 1.83-1.82 2.74-4.5 2.74-8.01v-6.32c0-2.81-.88-5.23-2.64-7.27s-4.18-3.48-7.27-4.32l-36.47-7.8c-5.62-1.26-10.58-3.34-14.86-6.22-4.29-2.88-7.59-6.57-9.91-11.07s-3.48-9.7-3.48-15.6v-17.71c0-6.32 1.3-11.87 3.9-16.65s6.29-8.47 11.07-11.07 10.33-3.9 16.65-3.9h70.41v19.6l-9.07 9.28h-50.38c-3.52 0-6.19.92-8.01 2.74s-2.74 4.5-2.74 8.01v3.58c0 2.67.84 5.06 2.53 7.17s4.08 3.51 7.17 4.21l36.47 7.8c5.62 1.41 10.57 3.55 14.86 6.43s7.59 6.53 9.91 10.96 3.48 9.46 3.48 15.07v21.08c0 6.32-1.3 11.88-3.9 16.66s-6.29 8.47-11.07 11.07-10.33 3.9-16.65 3.9z" fill="#242424"/><g fill="#ff5e00"><path d="m380.54 403.15c.04-.24-.34-.4-.47-.19l-12.16 20.66-39.55 68.09c-2.47 4.35 1.8 10.66 6.8 10.66h95.92c.23-.01.28-.41.06-.5l-28.4-12.14c-1.65-21.9-11.3-41.55-26.06-56.05l3.86-30.52z"/><path d="m418.95 530.65h-118.82c-11.64 0-18.94-12.56-13.19-22.68l54.59-95.45h-.02l8.98-15.77c.12-.21-.21-.46-.4-.31l-18.06 13.67a88.72 88.72 0 0 0 -16.98-1.65c-48.58 0-87.96 39.38-87.96 87.96s39.38 87.96 87.96 87.96c31.06 0 58.35-16.11 74-40.42l29.96-12.81c.23-.09.17-.5-.07-.5z"/></g></svg>