<svg height="297mm" viewBox="12.238 120.413 183.897 38.613" width="210mm" xmlns="http://www.w3.org/2000/svg"><g fill-rule="evenodd" stroke-linecap="round" stroke-linejoin="round" stroke-width=".197"><path d="m66.322 151.14-20.02.284-.802-27.079 21.03-3.24z" fill="#f00"/><path d="m27.607 154.113h29.503l-12.32-33.7-17.143 1.513z" fill="#00004b"/><path d="m12.238 127.644 19.99.332-4.299 29.101-15.691 1.949z" fill="#008000"/></g><g fill="#fff" stroke-width="1.633"><path d="m21.358 146.455q-1.99 0-2.787-.686-.796-.708-1.018-1.372-.199-.685-.199-1.836v-12.056h3.451v11.79q0 .288.177.465.177.155.399.222l.907.044h5.442v3.429z" stroke-width="1.858"/><path d="m31.819 133.587q0-1.395.907-2.18.906-.784 2.371-.784 1.116 0 1.93.566.79.502 1.023 1.483l2.093 9.089 2.325-9.09q.21-.958 1-1.503.814-.545 1.953-.545 1.512 0 2.372.806.884.785.884 2.158v12.947h-3.418v-11.247l-2.628 9.482q-.558 2.114-2.348 2.114-1.79 0-2.419-2.114l-2.58-9.482v11.247h-3.465z" stroke-width="1.891"/><path d="m51.63 130.569h10.295v3.454h-3.454v12.51h-3.432v-12.51h-3.41z" stroke-width="1.86"/></g><g stroke-width="2.198"><path d="m75.529 143.392q-2.355 0-3.297-.811-.942-.837-1.204-1.622-.235-.811-.235-2.172v-14.26h4.082v13.946q0 .34.209.55.21.183.47.261l1.074.053h6.436v4.055zm9.267-14.155h3.558v14.155h-3.558zm1.78-5.94q.967 0 1.57.681.653.654.653 1.622 0 .89-.654 1.544-.628.628-1.57.628-.916 0-1.596-.628-.654-.654-.654-1.517 0-.969.628-1.649.654-.68 1.622-.68zm12.884 5.94q1.413 0 2.329.994.916.995.916 2.538v7.065q0 1.596-.916 2.59-.89.968-2.355.968h-5.076q-1.674 0-2.46-.811-.758-.837-.941-1.44-.183-.6-.183-1.543v-15.646h3.61v5.285zm-4.212 10.57h2.956q.393 0 .76-.287l.156-.314v-5.338q0-.445-.262-.732-.235-.288-.68-.288h-2.747q-1.047 0-1.047.994v5.128q0 .314.236.576.235.261.628.261zm9.885-6.907q0-3.663 3.663-3.663h2.46v3.61h-1.36q-.498 0-.838.21-.314.21-.314.523v9.812h-3.61zm11.502 10.492q-1.125 0-1.674-.157-.55-.183-1.178-.733-.549-.55-.784-1.125-.105-.287-.157-.654-.053-.392-.053-1.02l-.052-7.143q0-1.517.942-2.407.968-.916 2.59-.916h4.84q1.623 0 2.512.916.89.89.89 2.512v2.825l-8.111 3.088v.235q0 .419.183.68.21.262.523.314h7.379v3.585zm-.287-8.006 4.526-1.675q0-.261-.236-.445-.235-.209-.627-.261h-2.512q-.471 0-.811.261-.314.236-.34.655z" fill="#008000"/><path d="m124.767 127.85q0-1.674 1.02-2.616 1.021-.942 2.67-.942 1.255 0 2.171.68.89.602 1.151 1.78l2.355 10.91 2.616-10.91q.236-1.152 1.125-1.806.916-.654 2.198-.654 1.7 0 2.669.968.994.942.994 2.59v15.542h-3.846v-13.5l-2.956 11.38q-.628 2.539-2.643 2.539-2.015 0-2.721-2.538l-2.904-11.382v13.501h-3.899zm28.511 1.387q1.727 0 2.67.864.941.863.941 2.485v7.51q0 1.438-.916 2.38-.915.916-2.328.916h-4.92q-1.752 0-2.72-.837-.942-.838-.942-2.355v-2.878q0-1.57.916-2.46.941-.915 2.564-.915h4.788v-.34q0-.968-.968-.968h-7.222v-3.402zm-3.689 10.675h2.774q.968 0 .968-.81v-.995q0-.837-.995-.837h-2.747q-.55 0-.732.183-.184.183-.184.758v.89q0 .314.236.576.262.235.68.235zm1.57-14.809 3.192-.078-1.936 2.878-2.773.026zm8.212-1.151h3.611v5.285h2.407v3.61h-2.407v10.545h-3.61zm7.36 5.285h3.559v14.155h-3.559zm1.78-5.94q.967 0 1.57.681.653.654.653 1.622 0 .89-.654 1.544-.628.628-1.57.628-.915 0-1.596-.628-.654-.654-.654-1.517 0-.969.628-1.649.654-.68 1.622-.68zm7.966 20.095q-3.768 0-3.768-3.637v-7.169q0-1.57.785-2.46.785-.889 2.224-.889h6.515v3.61h-5.416q-.131 0-.314.21-.183.183-.183.366v5.39q0 .419.235.707.262.287.759.287h4.945v3.585zm16.048-14.155q1.726 0 2.668.864.942.863.942 2.485v7.51q0 1.438-.916 2.38-.915.916-2.328.916h-4.919q-1.753 0-2.721-.837-.942-.838-.942-2.355v-2.878q0-1.57.916-2.46.942-.915 2.564-.915h4.788v-.34q0-.968-.968-.968h-7.222v-3.402zm-3.69 10.675h2.774q.968 0 .968-.81v-.995q0-.837-.994-.837h-2.748q-.549 0-.732.183-.183.183-.183.758v.89q0 .314.235.576.262.235.68.235z" fill="#f00"/></g></svg>