<svg height="2500" viewBox="-64.45925233 -24.85034096 274.84425233 321.64734096" width="1772" xmlns="http://www.w3.org/2000/svg"><g fill-rule="evenodd" stroke-linecap="round" stroke-linejoin="round"><path d="m0 0h210.385v296.797h-210.385z" fill="#00004b" stroke-width=".172"/><g fill="none" stroke-width="6.488" transform="matrix(.89288 0 0 .89288 67.157 139.5)"><path d="m-.482-24.072a3.244 3.244 0 0 0 -.422.037l-23.551 3.629a3.244 3.244 0 0 0 -2.748 3.302l.896 30.329a3.244 3.244 0 0 0 3.29 3.146l22.421-.318a3.244 3.244 0 0 0 3.198-3.221l.232-33.639a3.244 3.244 0 0 0 -3.316-3.265zm-3.198 7.029-.183 26.654-16.053.229-.719-24.27z"/><path d="m-24.69-24.848a3.244 3.244 0 0 0 -.351.012l-19.2 1.695a3.244 3.244 0 0 0 -2.958 3.227l-.047 36.049a3.244 3.244 0 0 0 3.244 3.248h33.045a3.244 3.244 0 0 0 3.047-4.358l-13.8-37.742a3.244 3.244 0 0 0 -2.98-2.13zm-2.26 6.694 11.352 31.05h-25.156l.04-29.835z"/><path d="m-61.16-16.748a3.244 3.244 0 0 0 -3.299 3.244v35.145a3.244 3.244 0 0 0 3.645 3.22l17.574-2.183a3.244 3.244 0 0 0 2.808-2.744l4.817-32.592a3.244 3.244 0 0 0 -3.156-3.719zm3.19 6.541 15.396.256-3.914 26.496-11.483 1.426z"/></g><g stroke-width=".197"><path d="m66.584 150.937-20.02.284-.801-27.078 21.029-3.24z" fill="#f00"/><path d="m27.87 153.91h29.504l-12.32-33.7-17.143 1.513z" fill="#00004b"/><path d="m12.5 127.442 19.992.331-4.3 29.102-15.692 1.948z" fill="#008000"/></g></g><g fill="#fff" stroke-width="1.633"><path d="m21.621 146.252q-1.99 0-2.787-.686-.797-.708-1.018-1.371-.199-.686-.199-1.836v-12.057h3.451v11.791q0 .288.177.465.177.155.398.22l.907.045h5.442v3.43z" stroke-width="1.858"/><path d="m32.081 133.384q0-1.395.907-2.18.907-.784 2.372-.784 1.116 0 1.93.567.79.501 1.023 1.482l2.093 9.09 2.325-9.09q.21-.959 1-1.504.814-.545 1.953-.545 1.511 0 2.372.807.883.784.883 2.157v12.948h-3.418v-11.247l-2.627 9.481q-.558 2.114-2.349 2.114-1.79 0-2.418-2.114l-2.581-9.481v11.247h-3.465z" stroke-width="1.891"/><path d="m51.892 130.366h10.296v3.454h-3.454v12.51h-3.432v-12.51h-3.41z" stroke-width="1.86"/></g><g fill="none" transform="translate(.263 -.203)"><path d="m70.793 122.146a2.381 2.381 0 0 0 -2.38 2.381v14.26c0 1.044.073 1.953.33 2.836a2.381 2.381 0 0 0 .027.088c.365 1.095 1.058 1.92 1.88 2.65a2.381 2.381 0 0 0 .028.024c1.371 1.18 3.008 1.388 4.851 1.388h7.535a2.381 2.381 0 0 0 2.381-2.38v-4.057a2.381 2.381 0 0 0 -2.38-2.381h-5.81v-12.428a2.381 2.381 0 0 0 -2.38-2.38z"/><path d="m86.576 120.916c-1.203 0-2.497.536-3.34 1.412a2.381 2.381 0 0 0 -.033.035c-.8.867-1.26 2.104-1.26 3.264 0 .85.348 1.668.81 2.39a2.381 2.381 0 0 0 -.337 1.22v14.156a2.381 2.381 0 0 0 2.38 2.38h3.558a2.381 2.381 0 0 0 2.382-2.38v-14.157a2.381 2.381 0 0 0 -.355-1.242c.458-.728.799-1.549.799-2.394 0-1.157-.49-2.39-1.309-3.24-.824-.898-2.114-1.444-3.295-1.444zm0 4.475c-.066 0 .08.061.018.004l.068.066c-.054-.054.013.075.037.137l-.03.03c.03-.03-.18.052-.093.052.064 0-.072-.053-.156-.09.011-.016.092-.18.04-.129.003-.002.215-.07.116-.07z"/><path d="m90.773 121.57a2.381 2.381 0 0 0 -2.38 2.381v15.647c0 .782.064 1.506.287 2.238.299.983.822 1.646 1.455 2.344a2.381 2.381 0 0 0 .052.056c1.112 1.15 2.67 1.537 4.17 1.537h5.077c1.5 0 3.073-.612 4.107-1.736l.002-.002c1.04-1.13 1.543-2.683 1.543-4.201v-7.065c0-1.5-.518-3.035-1.545-4.15-1.024-1.112-2.58-1.764-4.08-1.764h-2.695v-2.904a2.381 2.381 0 0 0 -2.381-2.38zm2.381 9.703a2.381 2.381 0 0 0 .01.004c-.003.003-.007.003-.01.006zm7.467.26.08.094c-.016-.02-.045-.026-.062-.045-.012-.014-.005-.035-.018-.049z"/><path d="m108.797 126.855c-1.618 0-3.26.442-4.432 1.614-1.171 1.171-1.613 2.814-1.613 4.431v10.493a2.381 2.381 0 0 0 2.38 2.38h3.612a2.381 2.381 0 0 0 2.381-2.38v-8.164h.13a2.381 2.381 0 0 0 2.382-2.381v-3.612a2.381 2.381 0 0 0 -2.381-2.38z"/><path d="m116.27 126.855c-1.53 0-3.098.501-4.225 1.567-1.12 1.057-1.69 2.634-1.69 4.139a2.381 2.381 0 0 0 0 .017l.053 7.143c0 .477.016.895.072 1.316a2.381 2.381 0 0 0 .004.024c.054.377.14.753.278 1.13a2.381 2.381 0 0 0 .033.088c.302.739.765 1.367 1.305 1.907a2.381 2.381 0 0 0 .115.109c.579.507 1.206.937 1.992 1.2a2.381 2.381 0 0 0 .1.028c.779.223 1.467.25 2.328.25h7.85a2.381 2.381 0 0 0 2.38-2.38v-3.586a2.381 2.381 0 0 0 -1.369-2.153 2.381 2.381 0 0 0 1.397-2.164v-2.826c0-1.51-.484-3.074-1.578-4.178-1.097-1.12-2.681-1.63-4.206-1.63zm-1.01 4.506c-.005.003-.007.01-.012.014-.003.003-.008.001-.012.004zm6.84.026.12.1c-.019-.018-.044-.013-.064-.03s-.036-.054-.056-.07z"/><path d="m128.457 121.912c-1.552 0-3.135.511-4.285 1.572-1.197 1.105-1.785 2.766-1.785 4.366v15.543a2.381 2.381 0 0 0 2.38 2.38h3.899a2.381 2.381 0 0 0 2.057-1.189c.095.105.15.235.256.334.882.823 2.14 1.273 3.312 1.273 1.171 0 2.44-.457 3.316-1.298.096-.092.141-.21.227-.307a2.381 2.381 0 0 0 2.057 1.187h3.845a2.381 2.381 0 0 0 2.381-2.38v-15.543c0-1.567-.57-3.187-1.72-4.291-1.138-1.122-2.749-1.647-4.323-1.647-1.26 0-2.544.354-3.582 1.096a2.381 2.381 0 0 0 -.027.02c-1.05.77-1.79 1.99-2.047 3.247l-.162.668-.149-.693a2.381 2.381 0 0 0 -.004-.016c-.276-1.243-1.027-2.452-2.105-3.199-1.021-.742-2.292-1.123-3.541-1.123zm0 4.762c.407 0 .56.066.752.209a2.381 2.381 0 0 0 .084.062c.085.058.093.02.16.319 0 .004.001 0 .002.004l.088.414a2.381 2.381 0 0 0 -2.395.377v-.21c0-.632.09-.714.254-.865.211-.194.41-.31 1.055-.31zm11.617 0c.682 0 .832.117.985.27a2.381 2.381 0 0 0 .044.044c.16.151.252.241.252.862v.168a2.381 2.381 0 0 0 -2.382-.319l.093-.392a2.381 2.381 0 0 0 .018-.078c.055-.267.07-.261.193-.35.18-.126.357-.205.797-.205zm-5.254 13.263-.191.737a2.381 2.381 0 0 0 -.006.027c-.138.558-.308.754-.313.758-.004.004.153-.03-.02-.03-.17 0-.039.03-.064.007-.024-.023-.205-.24-.36-.795l-.003-.006-.16-.635a2.381 2.381 0 0 0 1.117-.063z"/><path d="m154.293 122.645-3.193.078a2.381 2.381 0 0 0 -2.04 1.254l-1.517 2.826a2.381 2.381 0 0 0 -.025.052h-2.377a2.381 2.381 0 0 0 -2.381 2.381v3.403a2.381 2.381 0 0 0 .77 1.748c-.506.911-.848 1.909-.848 2.935v2.877c0 1.504.58 3.102 1.742 4.135a2.381 2.381 0 0 0 .023.021c1.183 1.024 2.732 1.418 4.28 1.418h4.917c1.457 0 2.969-.57 4.012-1.613a2.381 2.381 0 0 0 .024-.023c1.033-1.063 1.59-2.577 1.59-4.041v-7.51c0-1.542-.538-3.163-1.713-4.24-.54-.495-1.181-.825-1.854-1.065l.623-.927a2.381 2.381 0 0 0 -2.033-3.71z"/><path d="m159.371 121.57a2.381 2.381 0 0 0 -2.38 2.381v19.442a2.381 2.381 0 0 0 2.38 2.38h3.611a2.381 2.381 0 0 0 2.381-2.38v-8.164h.026a2.381 2.381 0 0 0 2.38-2.381v-3.612a2.381 2.381 0 0 0 -2.38-2.38h-.026v-2.905a2.381 2.381 0 0 0 -2.38-2.38z"/><path d="m168.51 120.916c-1.203 0-2.495.536-3.338 1.412a2.381 2.381 0 0 0 -.033.035c-.8.867-1.26 2.104-1.26 3.264 0 .852.347 1.67.81 2.393a2.381 2.381 0 0 0 -.34 1.216v14.157a2.381 2.381 0 0 0 2.381 2.38h3.56a2.381 2.381 0 0 0 2.38-2.38v-14.157a2.381 2.381 0 0 0 -.354-1.242c.459-.728.8-1.549.8-2.394 0-1.157-.49-2.39-1.31-3.24-.823-.898-2.115-1.444-3.296-1.444zm0 4.475c-.067 0 .081.061.02.004l.068.066c-.055-.055.011.078.035.139l-.03.029c.03-.03-.18.05-.093.05.063 0-.07-.05-.154-.087.01-.012.092-.182.04-.131.003-.002.213-.07.114-.07z"/><path d="m175.717 126.855c-1.45 0-3.007.561-4.008 1.696-.983 1.114-1.38 2.592-1.38 4.035v7.17c0 1.623.47 3.282 1.669 4.44 1.199 1.156 2.84 1.577 4.479 1.577h5.783a2.381 2.381 0 0 0 2.38-2.38v-3.586a2.381 2.381 0 0 0 -2.38-2.381h-3.56v-2.197h3.531a2.381 2.381 0 0 0 2.381-2.381v-3.612a2.381 2.381 0 0 0 -2.38-2.38zm-.899 4.518c-.009.01-.018.03-.027.04-.02.023-.061.056-.08.077z"/><path d="m184.387 126.855a2.381 2.381 0 0 0 -2.381 2.381v3.403a2.381 2.381 0 0 0 .77 1.748c-.506.911-.848 1.91-.848 2.935v2.877c0 1.505.58 3.102 1.742 4.135a2.381 2.381 0 0 0 .023.021c1.184 1.024 2.732 1.418 4.28 1.418h4.918c1.456 0 2.968-.57 4.011-1.613a2.381 2.381 0 0 0 .024-.023c1.033-1.063 1.59-2.577 1.59-4.041v-7.51c0-1.542-.538-3.163-1.713-4.24-1.163-1.066-2.73-1.49-4.278-1.49z"/></g><g fill="#fff" stroke-width="2.198"><path d="m75.791 143.19q-2.354 0-3.296-.812-.942-.837-1.204-1.622-.235-.811-.235-2.171v-14.26h4.081v13.946q0 .34.21.549.209.183.47.262l1.073.052h6.437v4.055zm9.268-14.155h3.558v14.154h-3.558zm1.779-5.94q.968 0 1.57.68.654.655.654 1.623 0 .89-.654 1.543-.628.628-1.57.628-.916 0-1.596-.628-.654-.654-.654-1.517 0-.968.628-1.648.654-.68 1.622-.68zm12.885 5.94q1.413 0 2.328.994.916.994.916 2.538v7.064q0 1.596-.916 2.59-.89.968-2.354.968h-5.077q-1.675 0-2.46-.81-.758-.838-.941-1.44-.184-.601-.184-1.543v-15.647h3.611v5.286zm-4.213 10.57h2.957q.392 0 .759-.288l.157-.314v-5.337q0-.445-.262-.733-.235-.288-.68-.288h-2.747q-1.047 0-1.047.994v5.129q0 .314.236.575.235.262.627.262zm9.886-6.907q0-3.663 3.663-3.663h2.46v3.61h-1.361q-.497 0-.837.21-.314.209-.314.523v9.811h-3.611zm11.502 10.492q-1.125 0-1.675-.158-.549-.183-1.177-.732-.55-.55-.785-1.125-.104-.288-.157-.654-.052-.393-.052-1.02l-.052-7.144q0-1.517.941-2.407.969-.915 2.59-.915h4.841q1.622 0 2.512.915.89.89.89 2.512v2.826l-8.111 3.087v.236q0 .418.183.68.209.262.523.314h7.378v3.584zm-.288-8.007 4.527-1.674q0-.262-.236-.445-.235-.21-.628-.262h-2.512q-.47 0-.81.262-.315.235-.34.654z" fill="#008000"/><path d="m125.03 127.648q0-1.675 1.02-2.617 1.02-.941 2.669-.941 1.256 0 2.172.68.89.602 1.15 1.779l2.356 10.91 2.616-10.91q.236-1.151 1.125-1.805.916-.654 2.198-.654 1.7 0 2.669.968.994.942.994 2.59v15.541h-3.846v-13.5l-2.957 11.381q-.628 2.538-2.642 2.538-2.015 0-2.721-2.538l-2.905-11.381v13.5h-3.898zm28.511 1.387q1.727 0 2.669.863t.942 2.486v7.509q0 1.439-.916 2.38-.916.916-2.329.916h-4.919q-1.753 0-2.72-.837-.943-.837-.943-2.355v-2.878q0-1.57.916-2.46.942-.915 2.564-.915h4.788v-.34q0-.968-.968-.968h-7.221v-3.401zm-3.69 10.675h2.774q.968 0 .968-.812v-.994q0-.837-.994-.837h-2.747q-.55 0-.733.183-.183.183-.183.759v.89q0 .313.236.575.261.236.68.236zm1.57-14.81 3.193-.078-1.936 2.878-2.774.026zm8.213-1.15h3.61v5.285h2.408v3.61h-2.407v10.544h-3.611zm7.36 5.285h3.558v14.154h-3.558zm1.779-5.94q.968 0 1.57.68.654.655.654 1.623 0 .89-.654 1.543-.628.628-1.57.628-.916 0-1.596-.628-.654-.654-.654-1.517 0-.968.628-1.648.654-.68 1.622-.68zm7.967 20.095q-3.768 0-3.768-3.637v-7.17q0-1.57.784-2.459.785-.89 2.224-.89h6.515v3.611h-5.415q-.13 0-.314.21-.183.183-.183.366v5.389q0 .418.236.706.261.288.758.288h4.945v3.584zm16.047-14.155q1.727 0 2.669.863t.942 2.486v7.509q0 1.439-.916 2.38-.916.916-2.329.916h-4.918q-1.753 0-2.721-.837-.942-.837-.942-2.355v-2.878q0-1.57.915-2.46.942-.915 2.564-.915h4.789v-.34q0-.968-.969-.968h-7.22v-3.401zm-3.689 10.675h2.773q.969 0 .969-.812v-.994q0-.837-.995-.837h-2.747q-.55 0-.733.183-.183.183-.183.759v.89q0 .313.236.575.261.236.68.236z" fill="#f00"/></g></svg>