<svg height="297mm" viewBox="12.104 64.553 188.489 146.963" width="210mm" xmlns="http://www.w3.org/2000/svg"><g fill-rule="evenodd" stroke-linecap="round" stroke-linejoin="round" stroke-width=".197"><path d="m179.683 150.992-56.32.799-2.254-76.175 59.157-9.116z" fill="#f00"/><path d="m70.773 159.355h82.998l-34.657-94.802-48.224 4.256z" fill="#00004b"/><path d="m27.538 84.896 56.238.933-12.096 81.865-44.142 5.48z" fill="#008000"/></g><g fill="#fff" stroke-width="1.633"><path d="m53.196 137.812q-5.601 0-7.841-1.93-2.24-1.991-2.863-3.858-.56-1.93-.56-5.165v-33.917h9.708v33.17q0 .809.498 1.307.498.435 1.12.622l2.552.125h15.309v9.646z" stroke-width="1.858"/><path d="m82.622 101.613q0-3.924 2.55-6.131 2.552-2.208 6.673-2.208 3.14 0 5.429 1.595 2.224 1.41 2.878 4.17l5.887 25.568 6.541-25.569q.589-2.698 2.813-4.23 2.29-1.534 5.494-1.534 4.252 0 6.672 2.27 2.486 2.207 2.486 6.07v36.421h-9.616v-31.639l-7.391 26.673q-1.57 5.947-6.607 5.947-5.036 0-6.802-5.947l-7.261-26.673v31.64h-9.746z" stroke-width="1.891"/><path d="m138.35 93.122h28.964v9.717h-9.717v35.192h-9.654v-35.192h-9.592z" stroke-width="1.86"/></g><g stroke-width="2.198"><path d="m19.226 210.886q-3.541 0-4.958-1.22-1.416-1.259-1.81-2.439-.354-1.22-.354-3.266v-21.443h6.138v20.972q0 .512.315.826.315.276.708.394l1.613.079h9.68v6.098zm13.936-21.286h5.351v21.286h-5.35zm2.676-8.931q1.455 0 2.36 1.023.984.984.984 2.44 0 1.337-.984 2.32-.944.945-2.36.945-1.378 0-2.4-.944-.984-.984-.984-2.282 0-1.456.944-2.48.984-1.022 2.44-1.022zm19.376 8.931q2.125 0 3.502 1.495 1.377 1.496 1.377 3.817v10.623q0 2.4-1.377 3.895-1.338 1.456-3.541 1.456h-7.633q-2.519 0-3.699-1.22-1.14-1.259-1.416-2.164-.276-.904-.276-2.32v-23.53h5.43v7.948zm-6.335 15.896h4.446q.59 0 1.141-.433l.236-.472v-8.027q0-.668-.393-1.101-.354-.433-1.023-.433h-4.131q-1.574 0-1.574 1.495v7.712q0 .472.354.865.354.394.944.394zm14.866-10.387q0-5.509 5.508-5.509h3.699v5.43h-2.046q-.748 0-1.26.315-.471.315-.471.787v14.754h-5.43zm17.297 15.777q-1.692 0-2.518-.236-.827-.275-1.771-1.102-.826-.826-1.18-1.691-.158-.433-.236-.984-.08-.59-.08-1.535l-.078-10.74q0-2.283 1.417-3.62 1.455-1.378 3.895-1.378h7.279q2.44 0 3.777 1.377 1.338 1.338 1.338 3.778v4.249l-12.197 4.643v.353q0 .63.275 1.023.315.393.787.472h11.095v5.39zm-.433-12.04 6.807-2.518q0-.393-.355-.668-.354-.315-.944-.394h-3.777q-.708 0-1.22.394-.472.354-.511.983z" fill="#008000"/><path d="m93.27 187.515q0-2.518 1.535-3.934 1.534-1.417 4.013-1.417 1.889 0 3.266 1.023 1.337.905 1.73 2.676l3.542 16.407 3.934-16.407q.355-1.732 1.692-2.715 1.377-.984 3.305-.984 2.558 0 4.014 1.456 1.495 1.416 1.495 3.895v23.371h-5.784v-20.302l-4.446 17.115q-.944 3.817-3.974 3.817-3.03 0-4.092-3.817l-4.367-17.115v20.302h-5.863zm42.875 2.085q2.597 0 4.013 1.299 1.417 1.298 1.417 3.738v11.292q0 2.164-1.377 3.58-1.378 1.377-3.502 1.377h-7.397q-2.636 0-4.092-1.259-1.416-1.259-1.416-3.541v-4.328q0-2.36 1.377-3.698 1.416-1.378 3.855-1.378h7.2v-.511q0-1.456-1.455-1.456h-10.86v-5.115zm-5.548 16.053h4.17q1.457 0 1.457-1.22v-1.495q0-1.259-1.496-1.259h-4.13q-.827 0-1.102.276-.276.275-.276 1.14v1.339q0 .472.354.865.394.354 1.023.354zm2.361-22.27 4.8-.117-2.911 4.328-4.171.04zm12.349-1.73h5.43v7.947h3.62v5.43h-3.62v15.856h-5.43zm11.068 7.947h5.351v21.286h-5.35zm2.676-8.931q1.455 0 2.36 1.023.984.984.984 2.44 0 1.337-.984 2.32-.944.945-2.36.945-1.377 0-2.4-.944-.984-.984-.984-2.282 0-1.456.944-2.48.984-1.022 2.44-1.022zm11.979 30.217q-5.666 0-5.666-5.469v-10.78q0-2.361 1.18-3.699 1.181-1.338 3.345-1.338h9.797v5.43h-8.144q-.197 0-.473.315-.275.275-.275.55v8.106q0 .63.354 1.062.394.433 1.141.433h7.436v5.39zm24.133-21.286q2.597 0 4.013 1.299 1.417 1.298 1.417 3.738v11.292q0 2.164-1.378 3.58-1.377 1.377-3.501 1.377h-7.397q-2.636 0-4.092-1.259-1.417-1.259-1.417-3.541v-4.328q0-2.36 1.378-3.698 1.416-1.378 3.855-1.378h7.2v-.511q0-1.456-1.455-1.456h-10.86v-5.115zm-5.548 16.053h4.17q1.457 0 1.457-1.22v-1.495q0-1.259-1.496-1.259h-4.13q-.827 0-1.102.276-.276.275-.276 1.14v1.339q0 .472.354.865.394.354 1.023.354z" fill="#f00"/></g></svg>