<svg height="134pt" viewBox="1.6 5.1 70 126" width="440" xmlns="http://www.w3.org/2000/svg"><path d="m35.6 6.6c-.6 1.6.8 3.3 2.7 3.4 1.2 0 .4-4.3-.9-4.7-.6-.2-1.4.4-1.8 1.3zm-9.3.1c-1.7.6-1.6 3.2.1 3.9.8.3 1.1 1.5.8 3-.3 2 0 2.4 1.8 2.4 1.6 0 2 .4 1.6 1.5-.3.8-.3 2.2 0 3 .5 1.2 1 1.3 2 .4 1.1-.9 1.4-.9 1.4 0 0 2.3-2.1 5.1-3.7 5.1-1.2 0-1.3-.3-.4-1.4 1.3-1.6.4-4.9-1.3-4.3-.6.2-1 1.8-.9 3.5.2 2.4 0 3-1.2 2.6-.8-.4-1.5-1.4-1.5-2.4s-.5-3.1-1.1-4.7c-1.1-2.8-1.1-2.8-2-.6-.4 1.3-1.3 2.3-1.8 2.3s-.7.9-.4 2 1.2 2 2 2c1 0 1.2.6.8 2-.4 1.2-.1 2.8.6 3.6.9 1.1.9 2 0 4.1-1.1 2.3-1 2.9.4 3.9.9.7 1.8 2.4 1.9 3.8 0 1.4.4 2.6.8 2.6 1.2 0 4.8 3.4 4.8 4.5 0 .5-.7 1.9-1.5 2.9-1.4 1.9-1.6 1.9-3.4.2-1.1-1-2.5-1.5-3-1.1-.6.3-1.1.1-1.1-.4 0-.6-.7-1.1-1.5-1.1-1.9 0-1.9.7 0 2.6 2 2.1 1.9 3.4-.4 3.4-1.1 0-2.6.6-3.4 1.4-.8.9-2.4 1.2-3.6.9-1.8-.4-2-.2-1.4 1.3 1.4 3.8 3.9 4.4 4.9 1.1.8-2.8 2.2-3.7 5.4-3.6 1.4 0 1.9.3 1.3.6-.7.2-1.3 1.1-1.3 1.8s-.6 1.5-1.2 1.8c-1 .3-1 .8-.2 1.7.9.9 1.7.8 3.7-.5 1.6-1 2.7-1.2 3.2-.6.3.6 1.6 1 2.9.9 2.1-.2 2.2-.5 1.3-2.5-.6-1.3-1.5-2.3-2.1-2.3s-.6-.4.1-1.1c.8-.8 1.7-.7 3.4.2 2.1 1.2 2.2 1.4.6 1.7-1.7.4-1.7.5-.1 1.6 1.4 1 1.5 2 .9 5.2-.5 2.1-.7 4.5-.6 5.3.1.7-.5 4.8-1.3 9-.9 4.2-2.6 14.2-4 22.2-1.7 10-3.2 16.2-5 19.7-1.4 2.8-2.6 5.5-2.6 6.1 0 3.2 16.5 1.6 20-1.9 2.1-2.1 2-5.1-.5-21-1.9-11.7-2.2-40.4-.5-42.5.9-1.1 1.6-1.3 2.4-.5 1.4 1.4 4.6 1.3 4.5-.3-.2-1.9-1.7-6.3-1.8-5.1-.1.6-1.2.9-2.6.6-2-.3-2.4-.1-1.9 1.2.3.9.1 1.6-.5 1.6-1.5 0-1.4-5 .2-5.1.6-.1 2.5-.2 4.1-.3 1.8-.1 3.4-1 4.4-2.5 1.6-2.4 1.6-2.4-.6-1.2-3.7 2-2.7-.9 1.6-4.6 3.3-2.9 3.6-3.4 2.4-5.3-1.5-2.5-.8-5.5 1.6-6.4.9-.3 2.4-.9 3.2-1.2 1.3-.5 1.3-.4 0 .8-.8.7-1.5 2.3-1.6 3.5-.1 3.4 2.4 2.9 5.5-1 1.2-1.5 1.2-1.7-.3-1.1-1.1.4-1.6.1-1.6-1 0-.9.5-1.6 1-1.6.6 0 1-.7 1-1.5 0-1.4-.6-1.7-2.7-1.4-.5.1-.7.5-.6.9.1.5-.5.7-1.5.6-.9-.2-1.7-.7-1.7-1.2s-.4-1.5-.9-2.3c-.7-1.1-1.2-.8-2.3 1.3-.8 1.5-1.8 2.4-2.3 2.1-.6-.4-1 0-1 .7-.1.9-.5.7-1.4-.5-.7-.9-1.8-1.7-2.5-1.7-.6 0-1.1-1.2-1-2.8 0-1.5.3-2.1.6-1.5.6 1.5 3.3 1.7 3.3.3 0-.6.6-1 1.4-1 .7 0 1.9-.7 2.6-1.5 1.7-2.1-.9-4.7-3.3-3.3-1 .5-1.5 1.3-1.2 1.9.4.5-.1.9-.9.9s-2.2 1-3 2.2c-1.3 1.8-1.6 1.9-1.6.5 0-2-.9-2.1-3.2-.3-2.4 1.7-2.3 3.3.2 4.1 1.1.3 2 1.3 2 2.2 0 1.2.7 1.4 3 .9 1.7-.3 3-.2 3 .3 0 1-3 2.5-4.3 2.2-.5-.1-.6.3-.2.9.3.5-.1 1-.9 1-2.1 0-3.1 1.9-1.6 3.3.9.9 1.4.8 2.3-.4.8-1 2-1.3 3.7-.9 2.8.7 4.1 4 1.6 4-1 0-1.6.9-1.6 2.4 0 1.9-.5 2.4-1.9 2.1-2.5-.5-5.1 2.7-3.9 4.9.7 1.2.5 1.8-.7 2.3-1.9.7-3.5-1.2-3.5-4 0-.9-.4-1.7-1-1.7-.5 0-1-.5-1-1 0-.6.6-1 1.4-1 2.3 0 2.9-1.9 1.2-3.6-1.9-1.9-3.6-1-3.6 1.9-.1 2.1-.2 2-2.6-.7-2.2-2.5-2.5-3.6-2-6.8.4-2.6.3-3.7-.4-3.3-.5.3-1-.3-1-1.4 0-1.4.6-2.1 1.8-2.1 1 0 2.3-.5 3-1.2.9-.9 1.2-.8 1.2.5 0 .9.6 1.7 1.4 1.7 2.4 0 2.8-1.8.7-3.1-1.7-1.2-1.8-1.5-.4-3.6.8-1.3 2.4-2.3 3.4-2.3 3.6 0 2.2-3.6-2.1-5.3-2.9-1.1-3.8-2-3.4-3.1.3-.9.2-1.6-.4-1.6-.5 0-1.3-1.6-1.6-3.5-.7-3.5-1-3.8-3.3-2.8z"/><path d="m45.5 9c-.3.5-.1 1.8.4 2.8s.7 2.8.4 4c-.4 1.8-.1 2.2 1.7 2.2 1.9 0 2.2-.4 1.7-2.9-.3-1.6-.1-3.3.6-4 .9-.9.8-1.4-.3-2.1-1.9-1.3-3.7-1.2-4.5 0zm-29.4 3.4c-1.2 1.4-.5 2.6 1.6 2.6 1.5 0 1.8-2.6.4-3.4-.5-.3-1.4 0-2 .8zm22.4 1.6c-.8 2.6.5 4.3 2.8 3.4 2.2-.8 2.1-1.7-.2-3.8-1.8-1.7-2-1.6-2.6.4zm19 .9c-.3.6-.3 1.5 0 2.1.9 1.5 4.2 1.2 4.9-.5.3-.8.1-1.5-.3-1.5-.5 0-1.6-.3-2.4-.6s-1.8-.1-2.2.5zm-50 4.2c-.5 1.3-.2 2.5.6 3 2.8 1.7 4.1-1.9 1.5-4-1.2-1-1.6-.8-2.1 1zm4.5 2.8c0 1 .9 2.1 1.9 2.4 1.9.5 2.2-.7.8-3.1-1.2-1.8-2.7-1.5-2.7.7zm45.4 1.2c-.9 1.6 1.2 3.3 3.1 2.5 1.4-.5 1.5-.9.5-2.1-1.5-1.8-2.6-1.9-3.6-.4zm-45.4 2.9c0 .5-.7.7-1.5.4-1.8-.7-1.8-.4-.5 3 .5 1.4 1.4 2.6 1.9 2.6 1.5 0 3.2-3.6 2.5-5.4-.7-1.7-2.4-2.2-2.4-.6zm53.6.8c-1.1 1.8.5 4 2.4 3.5s3.6-3.3 2.1-3.3c-.5 0-1.6-.3-2.4-.6s-1.8-.1-2.1.4zm-62.6 6.7c-1.4 1.6-.5 3.5 1.6 3.5 1.5 0 2-3.5.5-4.4-.5-.3-1.4.1-2.1.9zm4 3.5c0 1.1.6 2 1.4 2 2.1 0 3.1-2.1 1.5-3.1-2.2-1.4-2.9-1.1-2.9 1.1zm8.2.2c.2 1.7.9 2.2 2.3 2 2.8-.5 3-.9 1.5-2.7-1.9-2.3-4.2-1.9-3.8.7zm14.5-.2c.8 2.9 2.4 3.6 3.9 1.5 1.7-2.3.9-3.5-2.1-3.5-1.8 0-2.2.4-1.8 2zm34.3 1c0 2.2.8 2.5 3 1 1.3-.9 1.3-1.1 0-2-2.2-1.5-3-1.2-3 1zm-43.9 3.7c-.7.8-1.9 1.2-2.7.9s-1.4-.1-1.4.4c0 .6-.6 1-1.4 1-1.7 0-2.9 2.7-1.6 3.5.5.3 1.9.1 3.1-.5 1.1-.6 2.7-.9 3.5-.6s1.4.1 1.4-.4c0-.6.7-1 1.5-1 1.8 0 2-2.4.3-3.8-.9-.7-1.7-.6-2.7.5zm-14.9 2c.2 1 1.2 1.8 2.3 1.8s2.1-.8 2.3-1.8c.3-1.3-.3-1.7-2.3-1.7s-2.6.4-2.3 1.7zm52 .3c-1.2 1-2.7 2-3.3 2.2-.5.2-.7 1.1-.3 2.1.5 1.4.9 1.5 2 .6.8-.6 1.4-1.8 1.4-2.6 0-1.1.4-1.3 1.3-.5 2 1.6 7.4 2.4 8.2 1.3.8-1.4-1.6-3.9-3.3-3.3-.6.2-1.2-.1-1.2-.7 0-1.7-2.2-1.3-4.8.9zm-47.3 6.6c-1 1.3-1 1.7.1 2.4 1.8 1.1 3 .3 3-2.1 0-2.3-1.3-2.5-3.1-.3zm4.7 1.1c-1.3 1.4-.5 3.3 1.4 3.3 1.1 0 2-.6 2-1.4 0-1.5-2.4-2.8-3.4-1.9zm36.9.3c-.9 1.5.4 3 2.5 3 2.4 0 3.6-2 1.9-3.1-1.9-1.2-3.6-1.1-4.4.1zm9.1-.2c-.9 1.4 1 3.3 2.7 2.6 2.1-.8 2.2-2 .1-2.8-2-.8-2.2-.8-2.8.2zm-3.6 7.2c0 1.1.6 2 1.4 2 2.1 0 3.1-2.1 1.5-3.1-2.2-1.4-2.9-1.1-2.9 1.1zm-6.3.7c-2.2.6-1.7 2.7.6 3.1 1.2.2 1.7-.3 1.7-1.7 0-1.2-.1-2-.2-2-.2.1-1.1.3-2.1.6zm-24.7 7.3c0 .5.6 1 1.3 1 .9 0 .8.3-.2.9-.9.6-1 1.1-.2 1.5 1.6 1 3.1-.2 3.1-2.5 0-1.2-.7-1.9-2-1.9-1.1 0-2 .4-2 1zm15 .4c0 1 .9 1.6 2.1 1.6 2.4 0 2.1-2.3-.4-2.8-1-.2-1.7.3-1.7 1.2z"/></svg>