<svg viewBox="1 1 98 98" xmlns="http://www.w3.org/2000/svg" width="2500" height="2500"><linearGradient id="a" gradientUnits="userSpaceOnUse" x1="1" x2="99" y1="50" y2="50"><stop offset="0" stop-color="#18c6e1"/><stop offset="1" stop-color="#ed0dfd"/></linearGradient><path d="M63.93 28.78L69 31.7l-5.05 2.91zm-4.35 34.54c-.3-6.12-5-11-10.8-11S38.27 57.2 38 63.32zm-6.52-19.07a4.29 4.29 0 1 0-4.28 4.29 4.29 4.29 0 0 0 4.28-4.29zM39.24 69.73A10.44 10.44 0 0 0 34.11 73h30.56a10.54 10.54 0 0 0-5.13-3.3zM99 50A49 49 0 1 1 50 1a49 49 0 0 1 49 49zM80 37.11a3 3 0 0 0-2-2.81v-4.4a.61.61 0 1 0-1.22 0v7.28a1.46 1.46 0 0 1-1.46 1.45H56.49A1.46 1.46 0 0 1 55 37.18v-11a1.47 1.47 0 0 1 1.46-1.46h18.89a1.47 1.47 0 0 1 1.46 1.46v.09a.61.61 0 0 0 1.22 0v-.09a2.68 2.68 0 0 0-2.68-2.68H56.49a2.68 2.68 0 0 0-2.68 2.68v7.86H23a3 3 0 0 0-3 3v8.36a.61.61 0 1 0 1.22 0v-8.29a1.8 1.8 0 0 1 1.8-1.8h30.79v1.87a2.69 2.69 0 0 0 2.68 2.68h18.86A2.69 2.69 0 0 0 78 37.18v-1.52a1.78 1.78 0 0 1 .75 1.45V66.7A1.81 1.81 0 0 1 77 68.5H23a1.81 1.81 0 0 1-1.8-1.8V48.54a.61.61 0 1 0-1.22 0V66.7a3 3 0 0 0 3 3h13.23A8.13 8.13 0 0 0 32.7 73h-6.3a1.5 1.5 0 0 0-1.5 1.5v.5a1.5 1.5 0 0 0 1.5 1.5h38.29a.61.61 0 1 0 0-1.22H26.4a.29.29 0 0 1-.28-.28v-.43a.28.28 0 0 1 .28-.28h47.2a.28.28 0 0 1 .28.28V75a.29.29 0 0 1-.28.28h-5.84a.61.61 0 1 0 0 1.22h5.84a1.5 1.5 0 0 0 1.5-1.5v-.43A1.5 1.5 0 0 0 73.6 73h-7.53a8.08 8.08 0 0 0-3.51-3.3H77a3 3 0 0 0 3-3zM36.73 63.93a.61.61 0 0 0 .62.61H60.2a.61.61 0 0 0 .62-.61c0-7.07-5.4-12.83-12-12.83s-12.09 5.76-12.09 12.83zm12.05-14.17a5.51 5.51 0 1 0-5.51-5.51 5.52 5.52 0 0 0 5.51 5.51zM69.7 30.7l-5.27-3a1.13 1.13 0 0 0-1.15 0 1.15 1.15 0 0 0-.58 1v6.08a1.16 1.16 0 0 0 .58 1 1.19 1.19 0 0 0 .58.15 1.16 1.16 0 0 0 .57-.15l5.27-3a1.16 1.16 0 0 0 0-2z" fill="url(#a)"/></svg>