<svg height="946pt" viewBox="20.9 35.4 886.6 880" width="946pt" xmlns="http://www.w3.org/2000/svg"><path d="m435.5 35.6c-11 .9-40.6 4.7-51 6.5-21.5 3.9-52.8 12.3-69.5 18.6-22.1 8.4-55.4 23.1-57 25.1-.3.4-3 1.9-6 3.4-10.3 5.2-37.5 22.3-46.5 29.2-1.1.9-5.7 4.4-10.1 7.8-17.7 13.7-23.6 18.9-42.4 37.7-10.7 10.8-20.6 20.9-22.1 22.6-4.1 4.6-20 24.7-21.8 27.5-.9 1.4-2.2 3.1-2.9 3.9-2.7 2.8-20.6 30.8-26.9 42-24.4 43.7-42.1 93.8-50.2 142.6-5.2 31.1-7.1 64.8-4 68 1.2 1.2 6.1 2.2 17 3.6 16.8 2.1 30.1 4.3 39.4 6.4 3.3.8 7.1 1.6 8.5 1.9 3.2.5 15.7 3.9 28.7 7.7 43.1 12.5 98.6 40.2 140.3 70.2 3.6 2.5 7 5 7.5 5.4.6.5 5.5 4.4 11 8.8 50.4 39.9 88.3 83.3 124.3 142.6 7.6 12.7 10.2 17.2 10.2 17.9 0 .5 3.6 8 7.9 16.7 22.3 44.7 37.3 94.2 43.6 144.3 1 7.4 2.4 14.5 3.1 15.7.8 1.3 2.9 2.5 5 2.9 4.3.8 31.5-1.1 46.4-3.2 5.8-.8 12.3-1.7 14.5-2 8.3-1.1 29.5-5.6 42.5-9 14.6-3.8 42.3-12.8 45.5-14.8 1.1-.7 4.4-2 7.4-3 15.7-5.1 58.6-27.5 76.5-40 3.2-2.3 7.5-5.2 9.5-6.5s3.8-2.8 3.9-3.3c.2-.4.8-.8 1.3-.8.9 0 15.8-11.2 23.8-17.8 29.4-24.7 65.5-63.7 79.6-86.2 1.5-2.5 3.1-4.7 3.5-5 2.8-1.9 24.1-38.2 32.2-55 5.9-11.9 12.8-27.7 12.8-29 0-.5 1.1-3.3 2.4-6.2 1.8-4 7-18.6 8.1-22.8.1-.3.4-1.2.8-2 .9-2.3 4.6-14.9 5.1-17.4.2-1.1 1.8-7.5 3.5-14.1 16.6-65.9 16-141.1-1.8-210.7-3.9-15.3-12.5-42.2-16-50.1-1-2.3-4-9.4-6.6-15.7-2.7-6.3-7.9-17.6-11.8-25-6.5-12.8-19.3-34.9-20.7-36-.4-.3-1.4-1.9-2.3-3.5-1.4-2.7-15.8-23.4-18.6-26.7-.6-.7-2.5-3.1-4.2-5.3-3.3-4.4-7.9-9.7-18-21.4-11.2-12.8-42.4-42.7-50.1-47.9-1.3-.9-2.5-1.9-2.8-2.2-.9-1.2-21.5-16.7-24.6-18.6-1.6-1.1-7.5-4.9-13-8.5-10-6.7-15.8-10-17-9.8-.4 0-1-.3-1.3-.8-2.1-3.2-34.8-19.4-55.6-27.6-38.7-15.2-68.3-22.8-110-28.2-16.5-2.2-24.9-2.7-48-3-15.4-.1-30.2-.1-33 .1zm76.5 25.8c51.9 6.7 95.3 20 140 42.7 26.3 13.4 35.7 19.3 63 39.3 34.6 25.4 72.1 66 98.2 106.2 26.9 41.2 47.8 92.8 57.8 142.4 1.2 5.8 2.4 11.4 2.6 12.5 2.9 14.3 5.4 47.1 5.4 70.9 0 50.1-7.9 95.5-24.4 141.1-2.6 7.1-4.9 13.4-5 14-.1.5-.9 2.3-1.8 4-.8 1.6-1.9 4.1-2.3 5.5-2.7 8.9-26.9 53.3-36.1 66.3-1.9 2.6-3.4 4.9-3.4 5.2 0 .5-4.9 7.1-9.8 13.4-1.5 1.8-3.8 5-5.2 7s-4.1 5.4-6 7.5c-21 23.9-29.4 32.6-41 42.9-7.4 6.5-15.2 13.4-17.2 15.3-2.1 1.9-4 3.4-4.4 3.4-.5 0-9.2 6.7-10.4 8.1-.3.3-2.7 2.1-5.5 3.9-2.7 1.9-5.1 3.7-5.3 4.2-.2.4-.8.8-1.3.8-.7 0-15.6 9.6-16.9 11-.3.3-3 1.8-6 3.4s-6.2 3.4-7 4.1c-2.4 2-32.6 16.9-43.4 21.5-38 16.1-76 26.1-116.3 30.5-19.7 2.2-20.2 1.9-23.9-18.5-4.9-26.8-18-69.7-28-91.7-1.3-2.8-2.4-5.5-2.4-5.8 0-2.7-24.7-49.9-33.2-63.5-9.2-14.6-17.1-26.5-18-26.8-.4-.2-.8-.8-.8-1.3 0-1-19.6-27.4-26.2-35.4-23.5-28.2-61-65.9-81.1-81.2-1.9-1.6-6.6-5.3-10.4-8.4-6.3-5.2-29.9-22.5-37.5-27.5-10.5-6.9-28.8-18.1-36.4-22.4-12.9-7.2-46.2-23.5-51.9-25.5-2.7-.9-5.4-2-6-2.4-1.6-1.3-16.5-6.8-32.9-12.3-18.7-6.2-40.2-11.7-61.9-15.8-3.3-.7-6.9-2.1-8.5-3.5-2.5-2.2-2.7-2.8-2.4-9.6.5-14.7 5.3-43.5 10.7-64.3 10.5-41.3 27.1-80.7 47.7-113.8 2.6-4.3 4.8-8.2 4.8-8.6 0-.5.9-1.7 2-2.7s2-2.2 2-2.6c0-.8 18.6-26.9 19.9-27.9.4-.3 2.2-2.5 4.1-5 5.1-6.7 27-30.8 33.1-36.5 3-2.8 8.5-7.7 12.3-11s7.4-6.5 8-7c1-.9 14.7-11.9 17.1-13.8 4.9-3.7 15.1-11 20-14.2 3.3-2.2 6.2-4.2 6.5-4.5.6-.7 18.4-11.2 22-13 1.4-.7 2.7-1.6 3-1.9.3-.4 2.4-1.5 4.8-2.5 2.3-1.1 4.2-2.4 4.2-2.9 0-.6.3-.7.6-.4.4.4 3.2-.7 6.3-2.3 23.9-12.4 61.1-26 88.1-32 16.7-3.8 40.7-7.8 53-8.9 6.9-.6 14.3-1.3 16.5-1.5 10.5-1 64.7.3 76.5 1.8z"/><path d="m285.5 306.6c-3.2.8-10.2 3.6-15.5 6.3-10.2 5.2-15 6.8-15 5.1 0-.6-1-2.6-2.2-4.5-2.7-4.1-6.5-5.5-14.9-5.5s-11.7 1.5-12.9 5.8c-.8 2.5-1 24.5-.8 67.4.3 59.6.4 63.8 2.1 65.5 1.5 1.5 3.6 1.8 13.2 1.8s11.7-.3 13.2-1.8c1.7-1.6 1.8-5.5 2.3-50.6.5-52.7.2-49.6 6-54.7 4.2-3.7 14.6-8.4 22.5-10.1 6.2-1.4 8.3-1.4 12.7-.4 8.7 2 11.8 4.1 15.2 10.1l3.1 5.5.5 49.2c.5 45.5.6 49.4 2.3 51 1.5 1.5 3.5 1.8 12.6 1.8 11 0 12.8-.6 14.1-4.5.3-.8.5-22.9.5-49s.3-48.4.8-49.6c1.6-4.5 15-11.7 25.9-14 8.5-1.8 17.3-1.2 22.1 1.5 4 2.2 9.2 8.9 10.8 13.9.9 2.5 1.4 18.4 1.8 50.9.6 43.5.7 47.4 2.4 49 2.6 2.7 22.8 2.7 25.4 0 1.7-1.6 1.8-5.1 2.1-46.4.3-46.5-.4-57.2-4.3-68.4-6.1-17.3-21.7-26.9-43.3-26.9-14 0-26.4 3.9-39.9 12.3-8.6 5.3-10.7 5.4-16.8.3-2.7-2.2-5.2-4.3-5.5-4.6-.3-.4-2.1-1.6-4.1-2.8-8.2-5-24.1-6.6-36.4-3.6zm249.7.3c-2.9 1-7.8 3.6-10.8 5.7-3.1 2.1-7.3 4.9-9.4 6l-3.8 2.1-.6-2.8c-.3-1.5-1.8-4.2-3.4-6-2.7-3-3.4-3.2-10.8-3.7-5.7-.3-8.9 0-11.6 1.1-3.2 1.4-3.7 2.1-4.3 5.9-.3 2.4-.5 32.5-.3 67 .3 58.7.4 62.8 2.1 64.5 1.4 1.4 3.8 1.9 10.4 2.2 11.2.4 15.8-.9 17.2-5.1.7-2.1 1.1-18.4 1.1-49 0-49.8-.1-48.7 5.7-53.9 3.2-2.9 11.5-7.3 15.8-8.4 1.7-.5 6.4-1.1 10.4-1.4 7-.6 7.6-.8 9.2-3.6 1-1.7 2.1-6.4 2.5-10.8.6-6.7.4-8-1.1-9.7-2.4-2.6-10.9-2.7-18.3-.1zm93.9-.8c-9.7 1.9-24.2 8.2-29.5 12.8-5.1 4.4-13.6 13.6-13.6 14.7 0 .7-.3 1.4-.7 1.6-.5.1-1.8 2.2-3.1 4.4-9.7 18-12.2 43.2-6.1 63.9 8.1 27.7 26.4 43.4 56 48.1 9 1.5 12.1 1.5 22.9.5 18.6-1.8 34.1-5.8 38.9-10.1 2-1.8 2.3-2.7 1.8-6.5-.9-5.9-3.2-11.4-5.3-12.2-.9-.3-6.7.6-12.8 2.2-13.3 3.3-29.6 4.4-37.7 2.5-12.8-3-24.8-12.3-29.9-23.2-4.1-8.8-4.8-14.6-2.2-17.8l2-2.5 44.6-.5c41.1-.5 44.7-.6 46.3-2.3 2.5-2.5 2.4-20.1-.1-31-5.1-22.3-21.2-39.3-41.8-44.2-6.8-1.6-22.6-1.8-29.7-.4zm26 23.6c5.4 2.4 11 8 13.9 13.8 2.4 5 4 13 3.3 16.8-1 5.3-3.5 5.7-32.8 5.7-26.2 0-29.7-.4-31.7-3.4-3.7-5.5 4.9-22.8 14.4-29.4 9.3-6.4 23.1-7.8 32.9-3.5zm-589 292.4c-2.3.5-5.1 1.7-6.1 2.8-.9 1.2-2.1 1.7-2.6 1.3s-.6-.3-.2.2-.1 2.1-1.2 3.6c-2.3 3.2-3 13.7-.8 12.4.7-.4.8-.3.4.4-.6 1.1 2.9 9.2 4 9.2.3 0 .2-.6-.2-1.3-.4-.6.4-.2 1.8 1.1 3.4 3.1 11.5 4.1 15 1.8 1.3-.9 2.6-1.5 2.9-1.4.2.2.3.1.2-.1-.2-.2.6-1.1 1.6-2 3.1-2.7 4-5.6 3.7-11.3-.2-4.3-1-6.5-3.2-9.4-3.6-4.9-5.6-6.5-7.1-5.9-.7.2-1.3 0-1.3-.4 0-1.5-2.3-1.8-6.9-1zm208.4 42.7c-3.4.3-13.7 3.4-14.5 4.3-.3.4-2.2 1.5-4.2 2.6-2.1 1.1-3.5 2.3-3.2 2.6s-.3.8-1.4 1.1c-2.4.8-6.2 6.5-8.6 12.9-2.2 6-1.9 21.4.5 24.3.7.9 1.3 2 1.2 2.3-1.2 3 6.9 11.4 14.2 14.6 5 2.2 17.5 4.8 29 6 7.9.8 21.9 3.4 26.3 4.9 2.8.9 6.2 7.4 6.2 11.8 0 3.5-3 11-5.2 13.1-2.5 2.4-10.3 6.4-15.1 7.7-6.7 1.8-17.2.9-23.3-2.1-2.7-1.3-5.3-3-5.7-3.7-.5-.7-1.1-1.1-1.5-.9s-1.5-.4-2.4-1.5c-1-1-1.5-1.8-1.1-1.8s-.3-.7-1.5-1.6c-1.2-.8-2.2-2.1-2.2-2.7 0-.7-1-2.4-2.2-3.7-1.3-1.4-3.4-4.7-4.7-7.2-1.2-2.6-3-5-4-5.4-2.4-1.1-6.1-1.1-6.1 0 0 .5-.3.6-.7.3-.3-.4-1.3.6-2.1 2.1-1.3 2.1-1.7 6.9-1.9 22.2-.3 21.8.3 25.2 4.7 27 2.5 1 3.4 1 5.6-.5 1.4-.9 3.3-3 4.2-4.7 1-1.7 2.4-4 3.4-5.2l1.6-2.1 7.1 4.8c3.8 2.7 9.4 5.5 12.3 6.3 6.2 1.8 20.2 1.9 26.1.3 7.1-1.9 11.7-4.1 11-5.2-.3-.5-.2-.7.4-.4.6.4 2.5-.7 4.3-2.3 1.9-1.7 3.8-3 4.3-3 .6 0 .8-.3.5-.6s.5-1.7 1.9-3.2c3.9-4.1 7.5-10.3 7.8-13.1.1-1.4.6-3.4 1-4.3.4-1 .4-5.3.1-9.5-.8-10.6-.9-11.3-1.7-11.3-.4 0-1-.8-1.3-1.8-.3-.9-1.7-2.9-3.1-4.5-1.4-1.5-2.3-2.7-1.9-2.7s-.3-.9-1.6-2-2-2-1.6-2c1.5 0-2.1-2.6-6.4-4.6-3.9-1.9-8.7-3.3-14-4-.8-.1-3.5-.7-6-1.3-2.5-.5-10.5-1.5-17.8-2.1s-14.5-1.6-16-2.3c-8.2-3.7-9.4-14.6-2.4-22.2 4.3-4.7 8.2-5.9 19.3-5.8 16.6.1 23.3 3.6 28.6 14.8 5.8 12.1 7.7 14.4 12.1 14.5 3.7 0 5.8-1.7 7.6-6.1 1.4-3.5 1.6-6.5 1.1-19.3-.7-16.4-1.1-19-2.7-18-.8.5-.9.1-.4-1.2.4-1 .4-1.5.1-1.2-.4.4-1.8.3-3.1-.3-2.7-1-5.8.5-10.3 4.8-1.7 1.7-2.8 2-4.1 1.3-.9-.5-2-.6-2.4-.3-.3.3-.6.1-.6-.5 0-.7-.8-1.2-1.8-1.2s-2.2-.4-2.7-.9c-2.5-2.3-23.2-6.9-29-6.3zm-240.2 4.6c-1.5.5-3.5 1.5-4.4 2.2-.9.8-1.9 1.2-2.2.9-.4-.3-.5-.2-.2.2.3.3.1 1.1-.4 1.7-1.4 1.9-2.2 6.4-1.1 7.1.6.4.8 1 .5 1.4-.2.5.6 2.1 2 3.7 2.4 2.8 2.6 2.8 17.6 3.6 8.3.4 15.4 1 15.8 1.3.9.9.7 56.3-.2 67-.4 5-1.3 9.5-2 10.3-1.8 1.7-10.8 3.1-22.2 3.3-9.5.2-9.5.2-12.5 3.6-3.7 4.1-4.1 10.2-1.1 13.2 1.4 1.4 1.6 2.1.8 2.5-.7.3-.2.3 1 .1 1.2-.3 2.4-.1 2.8.5.4.7 14.5 1 42.4 1 40.5 0 41.9-.1 44.4-2 2.3-1.8 2.5-2.7 2.4-7.9-.2-5-.6-6.3-2.8-8.4-2.3-2.1-3.7-2.4-10.9-2.6-9.9-.3-19-1.7-20.4-3.1-.8-.7-1.2-15.9-1.4-46.7l-.3-45.6-2.6-3.1c-2.8-3.4-7.2-5.2-11.8-4.9-4.6.2-22.6.3-26.7 0-2-.1-5 .2-6.5.7zm136.7-.7c-1.9.3-5.8 1.5-8.7 2.9-2.8 1.3-5.7 2.4-6.2 2.4-.6 0-1.1.4-1.1 1 0 .5-.6 1-1.4 1-1.6 0-10.5 7.1-10.4 8.4 0 .5-.8 1.4-1.7 1.9-2.5 1.4-10.1 18-12.2 26.7-2.2 9.4-2.4 33.2-.3 40 .7 2.5 1.2 5.1 1.1 5.9-.1.7.2 1 .7.7.6-.3 1.3 1.2 1.7 3.4s1 4 1.4 4c.3 0 1.5 1.7 2.6 3.7 2.3 4.3 7.4 9.9 8.8 9.5.4-.1.6.2.3.7s1.2 2.4 3.4 4.1 4 2.8 4 2.4.7.1 1.6 1.2c.8 1 1.3 1.4 1 .7-.4-.6 1-.4 3.1.7 6.8 3.3 11.5 4.2 20.7 4.2 9.8-.1 15.8-1.1 22.1-3.8 2.2-1 4.6-1.7 5.4-1.5.7.1 1-.2.6-.8-.5-1 .7-1.5 2.7-1.2.4 0 3.1-2.3 6-5.2 5.8-5.8 12.8-18.2 12.7-22.5 0-2.7-1.7-7.6-1.8-5.7-.1.5-.5.4-1-.4-2.8-4.3-11.6 0-17.9 8.7-3.7 5.1-10 10.2-12.7 10.2-.8 0-2.9.9-4.8 2-3.3 2-12.6 2.8-18.9 1.8-2.7-.5-11.4-5.4-15.3-8.6-2.8-2.3-8.1-11.2-9.5-15.9-.6-2.1-1-6.5-.8-9.8l.3-6 4-.7c2.2-.5 19.2-1 37.7-1.2 36.2-.5 37.9-.8 41.3-5.9 1.6-2.6 1.5-8.2-.5-15.8-1.2-5-1.8-6.3-5.1-13.4-1.3-2.8-2.3-5.3-2.2-5.6.4-1.3-14.9-14.9-15.9-14.3-.6.4-.9.3-.6-.2.7-1.1-1.7-3.5-2.6-2.7-.3.4-.6.1-.6-.5 0-.7-.3-1.1-.7-1-.5.1-2.9-.8-5.5-2-5.7-2.7-17.4-4.3-24.8-3.5zm18.9 21.4c12.1 2.7 19 9.8 19.1 19.5 0 4-.4 5.3-1.7 5.9-2.9 1.1-34.8 1.8-47.5 1l-11.8-.7v-4c0-4.9 3.4-12.2 6.7-14.3 1.3-.9 2.1-2 1.8-2.5-.3-.6.1-.7.9-.4.9.3 1.6.2 1.6-.4 0-1.3 7.4-4 14-5 5.8-.9 9.8-.7 16.9.9z"/></svg>