<svg clip-rule="evenodd" fill-rule="evenodd" height="105mm" image-rendering="optimizeQuality" shape-rendering="geometricPrecision" text-rendering="geometricPrecision" viewBox="710.95 1560.22 13361.44 8943.68" width="148mm" xmlns="http://www.w3.org/2000/svg"><path d="m882.2 8012.09 2149.94-1939.46c646.69 1151.01 2355.93 126 3856.93-1135.35-389.16-464.65-1593.9-835.68-2600.97-745.03l-356.83-215.15c864.76-644.06 3117.16-409.09 3794.81 225.69 458.04-425.57 834.63-815.86 1148.53-1143.47-1218.7 98.13-3680.73 723.69-4304.95-888.74l7.69-147.01c1225.43 265.48 2399.84-131.87 3527.75-463.35l210.44 32.92c103.22 431.64 1137.55 599.1 2168.61 426.27l-2.66 409.64c-25.91 31.47-2125.9 2103.88-2231.29 2287.87 107 107.38 202.38 251.47 255.76 341.03 1555.32-1652.64 2812.27-2355.78 5013.78-2748.75l.47 181.69c-1371.19 541.79-6956.97 5096.4-2362.89 5096.26l2915.07-1.23-.25 1191.71-5091.98-3.26c-2419.28 12.95-2188.32-1614.2-1325.13-2764.06-47.13-129.75-115.37-244.18-247.16-431.08-1584.03 1218.6-4205.12 4753.4-6525.67 2432.86z" fill="#606062"/><path d="m710.95 8183.34 2149.94-1939.46c646.68 1151.01 2355.93 126.01 3856.93-1135.34-389.16-464.66-1593.92-835.69-2600.98-745.04l-356.82-215.13c864.75-644.08 3117.14-409.11 3794.81 225.67 458.03-425.56 834.62-815.85 1148.53-1143.47-1218.7 98.13-3680.73 723.7-4304.95-888.73l7.69-147.02c1225.43 265.48 2399.84-131.85 3527.74-463.35l210.45 32.93c103.21 431.63 1137.55 599.11 2168.59 426.28l-2.65 409.64c-25.9 31.47-2125.89 2103.88-2231.29 2287.85 107 107.4 202.38 251.47 255.77 341.03 1555.32-1652.62 2812.25-2355.78 5013.78-2748.75l.47 181.71c-1371.19 541.78-6956.98 5096.38-2362.91 5096.24l2915.09-1.22-.25 1191.7-5091.99-3.26c-2419.28 12.95-2188.31-1614.2-1325.12-2764.04-47.13-129.77-115.37-244.18-247.18-431.08-1584.03 1218.58-4205.1 4753.4-6525.65 2432.84z" fill="#0098da"/></svg>