<svg clip-rule="evenodd" fill-rule="evenodd" height="105mm" image-rendering="optimizeQuality" shape-rendering="geometricPrecision" text-rendering="geometricPrecision" viewBox="576.2899999999997 2409.43 13647.480000000001 5681.16" width="148mm" xmlns="http://www.w3.org/2000/svg"><linearGradient id="a" gradientUnits="userSpaceOnUse" x1="9701.93" x2="14194.37" y1="3015.04" y2="7508.38"><stop offset="0" stop-color="#c02222"/><stop offset=".8" stop-color="#d12023"/><stop offset="1" stop-color="#e31e24"/></linearGradient><linearGradient id="b" gradientUnits="userSpaceOnUse" x1="9816.28" x2="14080.19" y1="3129.33" y2="7394.09"><stop offset="0" stop-color="#d12023"/><stop offset=".2" stop-color="#d12023"/><stop offset=".761" stop-color="#dc3226"/><stop offset="1" stop-color="#e74629"/></linearGradient><linearGradient id="d" gradientUnits="userSpaceOnUse" x1="12833.4" x2="9419.04" y1="6969.2" y2="3554.17"><stop offset="0" stop-color="#d12023"/><stop offset=".2" stop-color="#d12023"/><stop offset=".878" stop-color="#dc3226"/><stop offset="1" stop-color="#e74629"/></linearGradient><linearGradient id="c" gradientUnits="userSpaceOnUse" x1="12874.06" x2="9280.94" y1="7058.52" y2="3464.67"><stop offset="0" stop-color="#c02222"/><stop offset=".2" stop-color="#c02222"/><stop offset=".839" stop-color="#d12023"/><stop offset="1" stop-color="#e31e24"/></linearGradient><g fill-rule="nonzero"><path d="M1966.66 4348.42c-121.04 0-121.04-27.19-121.04-45.21v-323.94c33.09-3.54 64.54-6.56 94.47-6.56 114.88 0 180.75 66.28 180.75 181.79 0 45.55-11.19 193.92-154.18 193.92zm390.17 3008.23c-2.35-18.85-8.95-68.93-60.46-68.93-30.69 0-68.31 49.15-73.59 53.15-36.82 26.96-64.87 43.86-108.54 56.67-32.12 9.11-71.84 13.87-118.15 13.87-56.47 0-115.32-6.82-170.5-14.17-171.74-22.79-639.69-274.79-657.55-284.63-3.95-6.52-7.19-12.62-9.15-16.4-11.56-29.78-12.4-258.23-12.4-553.95v-95.17l3.13-210.53h-3.13v-796.05c0-217.64 11.6-275.09 16.21-296.57 1.25-6.44 2.21-10.88 2.21-16.14 0-31.89-40.91-60.48-73.13-60.48-18.8 0-35.48 11.29-58.82 26.66-45.37 29.78-113.36 75.06-246.22 75.06h-57.73c-44.34 0-103.11 69.48-103.11 101.09 0 37.23 37.48 43.8 64.62 48.68 9.11 1.59 18.35 3.3 28.13 5.97 30.92 8.07 59.8 26.06 59.8 103v808.78h-.6v178.31l-2.66 327.31c-5.62 409.57-13.74 425.46-56.84 442.27 0 0-78.23 24.81-109.13 60.26-22.98 26.39-32.93 49.61-32.93 69.6 0 24.42 7.83 43.49 26.53 56.17 20.52 14.2 97.29 15.31 113.57 12.61 8.23-.18 66.72-2.42 70.46-2.17 149.47 9.05 278 58.78 434.96 134.75 169.24 81.6 344.19 166.19 548.85 166.19h.06c37.07 0 74.78-2.88 111.74-8.47 86.79-13.03 182.4-45.45 261.58-88.95 2.34-1.21 228.51-106.36 212.79-227.79zm6483.98-1564.74c114.78 0 174.65 127.18 174.65 252.71 0 81.53-27.83 81.53-46.2 81.53h-278.88c-17.71 0-33.03 0-33.03-49.53 0-153.26 100.84-284.71 183.46-284.71zm515.75 844.35c-29.73 0-50.55 30.8-82.2 69.26-55.59 67.32-139.46 169.09-307.3 169.09-189.76 0-313.72-211.31-318.46-544.89h572.81c108.72 0 157.15-48.96 157.15-151.46 0-370.14-190.27-618.7-473.48-618.7-347.54 0-619.71 375-619.71 853.91 0 462.81 226.82 777.66 564.41 777.66 311.01 0 528.78-356.25 528.78-387.49 0-30.8 9.35-64.27 15.56-86.46 4.15-14.9 6.63-23.87 6.63-31.13 0-25.81-20.96-49.79-44.19-49.79zm-1153.12 383.28c-21.01-2.49-44.72-5.21-55.32-15.24-38.84-35.27-54.79-89.35-54.79-282.4v-785.56c0-258.08-110-383.11-349.41-381.42-88.53.58-167.9 54.35-250.65 116.2-34.04 25.42-67.37 52.13-104.6 75.41 1.91-75.39 9.78-101.89 13.76-115.54 2.04-6.62 3.71-12.35 3.71-19.21 0-31.02-40.65-60.87-71.03-60.87-18.24 0-34.48 11.77-56.97 27.83-43.88 31.51-110.08 74.14-238.54 74.14h-56.09c-37.45 0-98.07 70.95-98.07 98.61 0 35.89 34.92 38.68 60.73 43.72 8.7 1.61 17.99 3.46 27.37 6.3 19.21 5.34 59.17 16.59 59.17 111.63v849.72c0 223.69-59.88 250.38-61.71 250.84-53.85 16.04-95.03 90.18-95.03 115.34 0 38.27 24.33 41.46 47.09 41.46 54.24 0 104.94-4.31 153.91-8.48 45.35-3.95 88.15-7.58 130.53-7.58 40.44 0 78.93 3.38 119.59 7.03 47.4 4.23 101.07 9.03 167.03 9.03 27.72 0 35.7-17.55 40.52-27.99 1.86-4.28 3.5-7.88 7.42-12.71 2.1-2.97 5.02-5.58 8.32-8.63 10.33-9.35 24.44-22.39 24.44-53.54 0-33.62-32.29-37.55-55.82-40.47-25.43-3.1-56.99-7.06-85.12-33.03-32.65-29.79-47.17-112.71-47.17-268.63v-640.78c0-121.92 126.11-252.53 214.83-252.53 84.13 0 134.28 84.47 134.28 225.93v704.74c0 223.69-59.88 250.38-59.88 250.43-29.71 5.86-77.05 102.67-77.05 114.56 0 38.23 31.18 38.34 53.88 38.34 41.46 0 101.89-5.67 160.29-9.98 49.12-3.7 96.73-6.73 123.12-6.73s55.82 3.47 89.31 6.73c45.6 4.39 106.38 8.1 177.24 8.1 19.36 0 29.96-10.87 49.89-38.84 3.13-5.21 6.5-9.13 9.56-12.73 7.98-9.54 21.86-21.17 21.86-42.6 0-41.51-48.27-46.82-80.6-50.6zm-1489.48 7.31c-11.74-2.1-26.74-4.87-46.03-9.35-38.19-9.08-81.93-39.35-81.93-195.77v-875.49c0-231.07 11.37-292.2 15.7-315.2 1.31-7.33 1.96-11.92 1.96-15.98 0-31.15-38.64-60.55-68.63-60.55-18.07 0-34.11 11.71-56.36 28.01-43.31 31.65-108.75 70.13-235.7 70.13h-55.36c-43.23 0-97.44 68.46-97.44 96.89 0 36.17 34.96 43.09 60.48 48.08 8.58 1.78 17.69 3.54 27.04 6.38 28.94 8.26 58.46 27.99 58.46 112.51v804.76c0 197.35-17.63 283.04-61.19 295.8-61.38 19.54-89.26 85.82-89.26 105.75 0 26.48 16.95 44.29 42.16 44.29 82.84 0 142.35-5.67 190.05-10.22 32.98-3.22 61.5-5.89 88.75-5.89 58.03 0 104.58 4.24 149.55 8.25 44.51 4.09 86.48 7.86 138.07 7.86 23.64 0 77.55-60.51 77.55-84.25 0-43.63-16.66-48.43-57.87-56.01zm-1196.41-679.69v117.09c0 245.41-92.23 423.7-214.44 423.7-122.46 0-148.17-98.97-148.17-187.66 0-227.94 209.3-333.58 362.61-353.13zm495.76 485.75c-20.01 0-34.1 12.24-45.39 22.16-10.93 9.54-18.07 15.34-27.57 15.34-41.41 0-81.8-13.73-81.8-178.27 0-159.64 4.06-299.18 7.58-429.49 2.97-104.62 5.64-203.44 5.64-288.92 0-243.91-168.33-414.17-409.35-414.17-51.41 0-139.74 16.93-217.73 31.86-58.53 11.15-113.82 21.75-136.35 21.75-35.59 0-47.59-15.4-59.15-30.2-8.15-10.44-18.25-23.41-35.97-23.41-28.13 0-79.75 37.09-79.75 97.76 0 218.21-40.17 363.16-53.18 409.06-3.76 13.35-5.06 17.9-5.06 22.53 0 31.17 18.74 52.2 46.57 52.2 20.28 0 35.79-11.79 50.72-23.28 7.94-5.85 16.01-11.99 25.98-17.2 10.14-6.1 15.15-18.28 27.42-47.5 34.59-82.8 106.63-255.22 294.11-255.22 98.02 0 197.52 59.36 197.52 212.18v157.92c-343.69 21.4-703.6 194.06-703.6 607.28 0 237.7 152.28 416.96 354.16 416.96 131.1 0 215.43-85.86 296.93-168.88 22.29-22.65 45.13-45.89 69.11-67.65 17.09 118.84 97.42 236.53 204.83 236.53 56.28 0 100.38-40.72 147.01-83.7 33.18-30.67 67.46-62.31 111.11-85.47 40.41-24.51 64.99-128.1 64.99-140.51 0-32.07-17.33-49.66-48.78-49.66zM3588.47 5557.86c-94.59 0-172.56 81.34-248.65 182.79-11.37 15.23-22.49 30.03-33.48 44.18 4.56-62.39 15.02-90.85 21.67-121.68 4.71-21.63 8.31-34.39 8.31-48.24 0-19.89-40.12-57.05-68.63-57.05-13.3 0-24.64 9.19-45.38 26.15-39.85 32.32-106.65 74.32-204.66 74.32-11.44 0-24.15-1.01-38.24-2.18-18.05-1.39-38.57-3.16-61.28-3.16-26.18 0-38.72 20.39-48.86 36.8-2.86 4.63-5.89 9.61-9.89 15.2-2.54 3.87-6.14 7.42-9.47 10.85-9.06 9.46-18.47 22.19-18.47 38.98 0 21.61 20.74 50.04 76.64 50.04 38.29 0 63.07 23.28 63.07 149.93v906.39c0 133.38-44.05 155.08-76.21 170.89-14.26 7.03-29.03 14.31-36.68 29.49-2.81 5.48-5.89 10.52-8.99 15.4-9.22 15.24-19.79 22.57-19.79 45.92 0 10.91 0 44.24 39.95 44.24 49.01 0 109.03-4.9 161.93-9.1 43.75-3.65 85.01-7.04 112.4-7.04 38.7 0 88.5 3.58 141.24 7.33 61.76 4.32 125.7 8.81 184.03 8.81 24.39 0 77.54-67.68 77.54-94.22 0-51.54-47.84-51.86-79.53-52.12-27.66-.13-59-.46-84.14-18.34-45.82-31.09-62.01-78.92-62.01-164.29v-646.81c0-209.05 91.53-331.53 153.78-331.53 26.14 0 42.03 12.91 62.33 43.58 16.25 24.44 33.01 49.72 60.93 49.72 34.96 0 56.98-32.47 85-84.99 6.3-11.72 49.77-75.74 59.99-91.61 24.66-38.48 34.97-46.9 34.97-86.61 0-76.62-89.1-132.04-189.42-132.04zm999.76 0c-94.61 0-172.61 81.34-248.68 182.79-11.34 15.23-22.49 30.03-33.5 44.18 4.6-62.39 15.07-90.85 21.69-121.68 4.72-21.63 8.32-34.39 8.32-48.24 0-19.89-40.09-57.05-68.63-57.05-13.33 0-24.61 9.19-45.36 26.15-39.87 32.32-106.64 74.32-204.66 74.32-11.45 0-24.15-1.01-38.21-2.18-18.07-1.39-38.62-3.16-61.32-3.16-26.17 0-38.76 20.39-48.85 36.8-2.88 4.63-5.88 9.61-9.95 15.2-2.5 3.87-6.07 7.42-9.42 10.85-9.11 9.46-18.46 22.19-18.46 38.98 0 21.61 20.72 50.04 76.65 50.04 38.29 0 63.02 23.28 63.02 149.93v906.39c0 133.38-44.03 155.08-76.19 170.89-14.22 7.03-29.03 14.31-36.71 29.49-2.75 5.48-5.86 10.52-8.95 15.4-9.23 15.24-19.78 22.57-19.78 45.92 0 10.91 0 44.24 39.9 44.24 49.01 0 109.06-4.9 161.99-9.1 43.69-3.65 84.98-7.04 112.34-7.04 38.73 0 88.55 3.58 141.29 7.33 61.76 4.32 125.65 8.81 183.99 8.81 24.44 0 77.56-67.68 77.56-94.22 0-51.54-47.81-51.86-79.51-52.12-27.66-.13-59.03-.46-84.19-18.34-45.76-31.09-62.01-78.92-62.01-164.29v-646.81c0-209.05 91.58-331.53 153.81-331.53 26.17 0 42.06 12.91 62.36 43.58 16.22 24.44 32.98 49.72 60.89 49.72 35.02 0 57.01-32.47 85.01-84.99 6.3-11.72 49.79-75.74 60.01-91.61 24.67-38.48 34.92-46.9 34.92-86.61 0-76.62-89.1-132.04-189.37-132.04zM2162.9 6890.49c-148.66 0-298.62-185.45-298.62-600 0-267.93 88.99-434.38 232.22-434.38 148.62 0 298.59 185.56 298.59 600.09 0 267.92-89.02 434.29-232.19 434.29zm75.19-1330.95c-345.22 0-714.75 371.06-714.75 923.4 0 394.88 218.67 704.31 497.93 704.31 345.2 0 714.72-371.14 714.72-923.47 0-394.91-218.7-704.24-497.9-704.24zm6244.78-1317.57c85.91 0 130.88 95.49 130.88 189.92 0 61.22-20.87 61.22-34.76 61.22h-209.1c-13.19 0-24.72 0-24.72-37.18 0-115.26 75.72-213.96 137.7-213.96zm388.09 637.05c-22.18 0-39.38 20.72-63.07 49.55-41.8 50.67-104.55 127.04-230.5 127.04-142.28 0-235.22-161.12-238.82-411.81h429.58c81.55 0 117.93-34.45 117.93-111.5 0-278.17-142.74-465.14-355.11-465.14-260.51 0-464.66 282.04-464.66 641.94 0 347.9 170.11 581.53 423.15 581.53 233.17 0 396.62-264.73 396.62-288.23 0-23.16 7.01-48.29 11.43-65 3.24-11.2 5.04-17.88 5.04-23.31 0-19.49-14.12-35.07-31.59-35.07zm-1184.81-947l12.97 19.22c30.07 44.88 46.58 69.71 80.76 69.71 33.63 0 66.26-37.77 96.65-78.27 40.75-53.7 57.75-80.98 57.75-111.61 0-46.01-17-70.18-65.77-133.21-30.45-43.33-51.18-56.6-88.63-56.6-17.14 0-38.49 17.19-95.42 76.91-48.38 50.67-58.93 70.73-58.93 112.9 0 17.87 12.84 35.18 34.01 63.83 7.74 10.49 16.8 22.78 26.61 37.12zm-98.2 328.69c6.46 1.34 13.31 2.59 20.37 4.74 14.06 4.04 43.79 12.54 43.79 84.01v582.64c0 147.34-13.21 211.23-45.95 220.77-46.03 14.45-66.91 69.75-66.91 84.63 0 19.84 12.8 33.06 31.62 33.06 62.16 0 106.73-4.14 142.51-7.58 24.73-2.37 46.01-4.44 66.51-4.44 43.66 0 78.46 3.16 112.1 6.21 33.36 3.06 64.92 5.81 103.63 5.81 17.6 0 58.13-51.47 58.13-69.26 0-32.48-13.27-36.3-43.39-41.81-8.69-1.63-20.01-3.71-34.5-7-28.65-6.68-61.44-29.3-61.44-146.09v-646.86c0-172.49 8.53-218.09 11.64-235.27 1.07-5.53 1.58-8.85 1.58-11.89 0-23.24-29-45.24-51.43-45.24-13.65 0-25.59 8.81-42.3 20.93-32.48 23.71-81.64 59.42-176.72 59.42h-41.46c-32.51 0-73.2 56.18-73.2 77.38 0 26.95 26.35 32.13 45.42 35.84zm-761.18 901.61c-10.72 5.24-21.81 10.78-27.5 22.04-2.11 4.05-4.45 7.81-6.73 11.5-6.9 11.36-14.93 24.14-14.93 41.64 0 8.23 0 33.06 30 33.06 36.69 0 81.74-3.59 121.45-6.87 32.87-2.61 63.7-5.15 84.19-5.15 29.05 0 66.42 2.65 105.94 5.42 46.31 3.33 94.2 6.6 137.97 6.6 18.31 0 58.19-55.46 58.19-75.25 0-38.54-35.89-38.73-59.66-38.98-20.72-.1-44.21-.35-63.07-13.73-34.4-23.2-46.55-54.08-46.55-118.07V4570.5c0-156.45 67.76-256.34 114.47-256.34 19.68 0 31.97 16.36 47.18 39.28 12.15 18.32 24.69 37.18 45.68 37.18 26.22 0 41.4-28.41 62.39-67.6 4.72-8.92 9.78-18.48 15.35-28.37 9.78-17.14 18.42-30.67 26.08-42.49 18.48-28.76 30.74-47.72 30.74-77.57 0-57.16-66.06-107.45-141.2-107.45-70.9 0-129.93 78.45-186.87 154.35-8.64 11.37-16.81 22.41-25.16 32.99 3.41-46.67 10.33-78.7 15.29-101.69 3.49-16.29 6.05-28.02 6.05-38.41 0-14.82-28.48-47.24-49.88-47.24-9.84 0-18.42 6.98-33.93 19.57-30.01 24.23-80.05 64.85-153.54 64.85-8.53 0-18.06-.8-28.61-1.7-13.52-1.03-29-2.37-46.01-2.37-19.57 0-29.02 15.32-36.54 27.53-2.08 3.46-4.53 7.17-7.53 11.35l-7.03 8.15c-6.9 7.08-15.39 15.82-15.39 28.33 0 16.2 6.35 43.18 48.21 43.18 28.78 0 57.97 12.75 57.97 107.55v660.92c0 99.76-32.9 115.92-57.02 127.82zm-521.91-920.35c86.02 0 131.08 95.49 131.08 189.92 0 61.22-21.09 61.22-34.83 61.22h-209.1c-13.33 0-24.78 0-24.78-37.18 0-115.26 75.66-213.96 137.63-213.96zm6.55 1048.66c233.23 0 375.09-263.53 385.92-288.23 9.29-21.23 17.79-48.29 22.37-65 3.1-11.2 5.01-17.88 5.01-23.31 0-19.49-14.22-35.07-31.7-35.07-22.18 0-39.35 20.72-63.17 49.55-41.62 50.67-104.53 127.04-230.37 127.04-142.24 0-235.19-161.12-238.74-411.81h429.56c81.42 0 117.77-34.45 117.77-111.5 0-278.17-142.77-465.14-355.11-465.14-260.49 0-464.54 282.04-464.54 641.94 0 347.9 170.01 581.53 423 581.53zm-1252.08-41.12c0 37.24 24.34 41.13 34.86 41.13 14.36 0 26.82-6.27 39.88-13.08 17.28-8.88 36.96-19 67.92-19 29.82 0 51.35 5.8 76.18 12.43 34.39 9.16 73.26 19.65 144.57 19.65 244.1 0 389.94-207.74 389.94-408.84 0-244.89-163.16-300.18-294.19-344.58-104.51-35.44-187.01-63.4-187.01-165.56 0-59.9 32.56-129.68 124.4-129.68 59.03 0 164.13 41.07 194.57 151.59 3.33 12.52 4.69 27.76 5.94 42.5 2.42 29.02 4.99 58.95 30.04 58.95 19.84 0 26.71-8.12 34.66-17.77 2.11-2.56 4.67-5.53 7.97-9.05l5.45-5.72c14.61-15.32 28.3-29.76 28.3-74.85 0-6.86-1.02-13.79-2.49-22.53-3-18.29-7.39-46.01-7.39-104.09 0-36.94 3.49-73.98 6.22-103.93 1.96-21.89 3.66-40.85 3.66-54.73 0-25.92-16.96-35.19-31.6-35.19-9.18 0-17.25 5.43-26.62 11.78-13.39 9.1-30.21 20.36-54.63 20.36-9.95 0-24.26-3.98-42.43-9.1-34.62-9.79-81.88-23.04-148.33-23.04-225.89 0-383.38 204.89-383.38 388.78 0 246.66 160.54 299.62 289.35 342.11 107.22 35.35 191.88 63.34 191.88 176.18 0 65.44-37.8 141.76-144.34 141.76-140.73 0-225.05-82.31-250.71-245.16-1.63-8.13-2.69-15.71-3.6-22.47-2.66-20.39-6.15-45.84-32.65-45.84-22.97 0-66.42 55.82-66.42 85.34 0 7.36 1.09 24.3 2.59 47.8 2.92 43.46 7.31 109.19 7.31 159.2 0 45.82-4.01 86.51-6.95 116.23-1.71 17.35-2.95 29.86-2.95 38.42zm-829.59 0c0 37.24 24.37 41.13 34.91 41.13 14.34 0 26.71-6.27 39.8-13.08 17.36-8.88 37.07-19 68.02-19 29.8 0 51.3 5.8 76.17 12.43 34.3 9.16 73.25 19.65 144.5 19.65 244.11 0 389.97-207.74 389.97-408.84 0-244.89-163.18-300.18-294.19-344.58-104.47-35.44-186.98-63.4-186.98-165.56 0-59.9 32.6-129.68 124.45-129.68 58.93 0 164.06 41.07 194.48 151.59 3.4 12.52 4.76 27.76 6.02 42.5 2.36 29.02 4.9 58.95 29.98 58.95 19.81 0 26.69-8.12 34.61-17.77 2.13-2.56 4.71-5.53 8.05-9.05l5.36-5.72c14.56-15.32 28.4-29.76 28.4-74.85 0-6.86-1.14-13.79-2.54-22.53-2.97-18.29-7.32-46.01-7.32-104.09 0-36.94 3.32-73.98 6.13-103.93 1.96-21.89 3.73-40.85 3.73-54.73 0-25.92-16.93-35.19-31.53-35.19-9.3 0-17.39 5.43-26.69 11.78-13.51 9.1-30.25 20.36-54.67 20.36-10.01 0-24.31-3.98-42.49-9.1-34.56-9.79-81.88-23.04-148.27-23.04-225.96 0-383.38 204.89-383.38 388.78 0 246.66 160.49 299.62 289.29 342.11 107.22 35.35 191.88 63.34 191.88 176.18 0 65.44-37.77 141.76-144.26 141.76-140.78 0-225.09-82.31-250.71-245.16-1.68-8.13-2.72-15.71-3.59-22.47-2.73-20.39-6.14-45.84-32.77-45.84-22.89 0-66.36 55.82-66.36 85.34 0 7.36 1.01 24.3 2.67 47.8 2.89 43.46 7.23 109.19 7.23 159.2 0 45.82-4.07 86.51-6.93 116.23-1.77 17.35-2.97 29.86-2.97 38.42zm-456.38-592.13v87.82c0 183.9-69.1 322.46-160.81 322.46-91.72 0-111.07-79.13-111.07-145.63 0-170.86 156.99-249.93 271.88-264.65zm12.54 456.02c12.8 89.15 73.09 177.24 153.53 177.24 42.21 0 73.72-23.38 108.8-55.71 24.8-22.89 50.94-47.89 77.89-69.42 26.99-21.53 52.2-64.43 52.96-80.9 1.2-23.87-10.41-42.73-33.99-42.73-15.01 0-25.53 9.13-33.98 16.52-8.21 7.16-13.53 11.53-20.74 11.53-31 0-61.35-10.31-61.35-133.61 0-119.65 3.13-244.62 5.8-342.26 2.13-78.27 4.17-152.36 4.17-216.54 0-182.7-126.28-310.36-306.98-310.36-38.49 0-104.74 12.65-163.26 23.88-43.8 8.42-85.36 16.24-102.16 16.24-26.76 0-35.65-11.44-44.34-22.54-6.16-7.77-13.7-17.58-27.06-17.58-21.07 0-59.83 27.83-59.83 73.35 0 163.53-29.52 268.16-39.28 302.62-2.83 10.02-3.73 13.35-3.73 16.75 0 23.48 14.01 39.31 34.86 39.31 15.24 0 50.01-26.51 57.54-30.44 7.55-4.53 11.33-13.58 20.52-35.55 26.03-62.05 79.99-191.22 220.58-191.22 73.45 0 147.51 51.27 147.51 165.76v118.35c-257.68 16.03-527.56 142.6-527.56 452.14 0 178.17 114.2 312.41 265.55 312.41 98.39 0 161.57-64.18 222.71-126.41 16.7-17.01 33.74-34.4 51.84-50.83zm-748.06 157.17c18.4 0 58.22-55.46 58.22-75.25 0-38.55-35.85-38.73-59.53-38.98-20.77-.11-44.34-.36-63.26-13.74-34.29-23.19-46.44-54.07-46.44-118.06v-454.06c0-156.42 67.78-256.31 114.47-256.31 19.6 0 31.94 16.35 47.21 39.25 12.07 18.34 24.69 37.2 45.66 37.2 26.22 0 41.31-28.4 62.38-67.7 4.69-8.81 9.81-18.37 15.34-28.27 9.73-17.11 18.43-30.66 26.03-42.48 18.48-28.76 30.74-47.73 30.74-77.58 0-57.18-65.97-107.44-141.2-107.44-70.87 0-129.88 78.44-186.92 154.35-8.54 11.37-16.8 22.41-25.02 32.98 3.4-46.66 10.36-78.63 15.26-101.69 3.52-16.27 6-28.02 6-38.4 0-14.83-28.49-47.24-49.77-47.24-10.01 0-18.56 6.98-34.08 19.57-29.89 24.23-79.96 64.81-153.44 64.81-8.59 0-18.18-.76-28.7-1.65-13.49-1.04-28.99-2.41-46.01-2.41-19.49 0-28.94 15.32-36.49 27.56-2.19 3.46-4.51 7.14-7.45 11.34l-7.09 8.15c-6.86 7.08-15.33 15.84-15.33 28.34 0 16.16 6.18 43.18 48.13 43.18 28.72 0 58.02 12.72 58.02 107.52v660.97c0 99.74-32.92 115.89-57.07 127.8-10.74 5.23-21.72 10.78-27.47 22-2.05 4.09-4.47 7.85-6.71 11.53-7.03 11.36-14.9 24.15-14.9 41.65 0 8.2 0 33.06 29.95 33.06 36.66 0 81.74-3.6 121.39-6.87 32.82-2.64 63.78-5.15 84.3-5.15 28.98 0 66.42 2.64 105.92 5.42 46.28 3.3 94.19 6.6 137.86 6.6zm-1192.22-741.03c30.36-3.47 62.12-6.27 102.75-6.27 187.5 0 278.67 89.72 278.67 274.22 0 130.61-35.93 286.26-207.31 286.26-107.42 0-174.11-26.54-174.11-69.31zm164.17 753.08c292.41 0 496.2-276.87 496.2-525.3 0-223.99-141.26-337.81-287.02-357.79 97-48.47 180.82-149.14 180.82-293.19 0-205.13-131.68-332.41-343.54-332.41-48.11 0-89.85 4.41-138.02 9.66-62.69 6.67-133.66 14.36-240.23 14.36-80.38 0-136.53-6.46-166.72-10.01-11.21-1.2-18.73-2.01-22.4-2.01-15.33 0-68.07 51.45-68.07 71.32 0 32.77 15.13 37.59 36.47 40.8 7.31.96 16.22 2.41 27.28 5.71 49.61 15 82.15 40.3 82.15 244.8v753.3c0 212.37-32.65 239.35-71.76 250.77-24.01 6.41-49.36 58.43-49.36 82.89 0 8.2 2.89 35.05 39.95 35.05 9.58 0 18.57-1.12 31.02-2.76 26.66-3.35 71.31-9.26 173.02-9.26 44.1 0 97.03 5.67 153.12 11.66 57.3 6.11 116.44 12.41 167.09 12.41z" fill="#2b2a29"/><path d="M11947.84 8090.53c216.38.06 392.32-168.27 407.04-380.49 1061.87-265.9 1868.67-1480.27 1868.83-2747.41.06-1267.06-806.44-2006.18-1867.85-2169.09-12.95-213.68-189.84-384.08-407.45-384.08-217.2-.03-394.46 170.32-407.44 384.01-1061.72 162.65-1867.88 901.64-1868.02 2168.69-.05 1267.12 805.98 2481.74 1868.02 2747.78 14.8 212.21 190.57 380.65 406.87 380.59z" fill="#d6bc7a"/><path d="M13458.9 3369.02c-301.44-281.74-702.78-462-1154.36-524.37.8-8.69 1.09-17.39 1.09-26.05.03-197.58-159.63-357.44-357.23-357.46-197.33 0-357.51 159.77-357.51 357.37 0 8.67.37 17.36.84 26.06-451.02 62.25-852.64 242.47-1154.38 524.13-409.82 383.4-627.1 934.05-627.18 1593.47-.06 674.25 227.01 1361.82 621.97 1887.34 198.42 263.31 426.71 471.03 678.5 618.43 156.2 90.79 316.55 155.57 480.25 193.68-.28 6.73-.55 13.11-.52 19.87-.03 197.49 160.15 357.48 357.46 357.53 197.63 0 357.26-160.02 357.26-357.48.03-6.65-.21-13.09-.46-19.84 164.24-38.08 324.61-102.84 480.46-193.54 252.06-147.34 480.27-355.12 678.48-618.32 395.66-525.46 622.37-1212.99 622.43-1887.21.06-659.45-216.79-1210.15-627.1-1593.61z" fill="#fefefe"/></g><path d="M9853.49 4962.18c-.08 1366.41 937.43 2697.65 2094.41 2697.73 1156.97.14 2094.72-1330.83 2094.89-2697.27.11-1366.57-937.43-2099.01-2094.38-2099.14-1156.94-.11-2094.81 732.14-2094.92 2098.68z" fill="url(#a)"/><path d="M10545.33 3484c-377.96 352.39-577.53 863.65-577.58 1478.12-.06 640.62 215.07 1293.78 590.55 1792.42 383.97 510.12 877.3 790.98 1389.6 790.98 512.7.03 1006.08-280.68 1390.06-790.76 375.53-498.43 590.63-1151.61 590.77-1792.23.07-614.52-199.71-1125.76-577.14-1478.23-349.67-326.72-848.06-506.35-1403.18-506.41-555.27-.05-1053.31 179.48-1403.08 506.11z" fill="url(#b)"/><path d="M9853.49 4962.12c-.08 1366.47 937.43 2697.71 2094.41 2697.79l.41-4796.49c-1156.84-.14-2094.71 732.14-2094.82 2098.7z" fill="url(#c)"/><path d="M10545.33 3484c-377.96 352.39-577.53 863.65-577.58 1478.12-.06 640.62 215.07 1293.78 590.55 1792.42 383.97 510.12 877.3 790.98 1389.6 790.98l.51-4567.63c-555.27-.05-1053.31 179.48-1403.08 506.11z" fill="url(#d)"/><path d="M13466.17 5258.58c-19.87 0-39.25 2.01-57.89 5.28-13.03-128.84-121.48-229.33-253.59-229.33-125.46 0-230.14 91.34-250.64 211.26l-629.06-.05.08-726.83 422.63.06c20.49 119.84 124.61 211.33 250.53 211.42 132.19 0 240.37-100.9 253.15-229.35 19.05 3.43 38.6 5.17 58.47 5.17 173.55.02 314.45-140.63 314.5-314.09.02-173.46-140.91-314.23-314.45-314.23-19.9-.03-39.42 2.01-58.49 5.42-12.7-128.64-120.8-229.35-253.07-229.35-125.95-.03-230.01 91.6-250.54 211.36l-422.65-.03.03-484.22c119.93-20.58 211.5-125.02 211.5-250.86 0-131.91-100.87-240.42-229.9-253.09 3.74-19.03 5.7-38.33 5.7-58.49.03-173.62-140.5-314.26-314.15-314.26-173.5-.03-314.17 140.59-314.17 314.23 0 20.14 1.85 39.46 5.5 58.41-128.59 12.67-229.3 121.15-229.38 253.09.06 125.9 91.36 230.32 211.09 250.89v484.2h-422.35c-20.8-119.79-125-211.43-250.61-211.43-132.27-.02-241.02 100.66-253.59 229.33-19.08-3.46-38.27-5.47-58.19-5.5-173.95 0-314.18 140.75-314.18 314.23 0 173.45 140.18 314.12 314.1 314.14 19.87 0 39.16-1.76 58.27-5.2 12.54 128.48 121.2 229.36 253.42 229.36 125.71.05 229.93-91.5 250.64-211.31l422.41.05-.03 726.82-629.49-.08c-19.98-119.93-124.26-211.34-250.37-211.34-131.76 0-240.58 100.52-253.34 229.3-18.89-3.24-38.46-5.28-58.41-5.28-173.31 0-314.23 140.55-314.28 314.06-.06 173.45 140.88 314.34 314.17 314.34 20.03.05 39.6-1.93 58.52-5.7 12.73 128.49 121.48 229.14 253.23 229.14 126.14.06 230.4-91.14 250.45-210.96l629.47.03-.22 1219.82c-119.73 20.55-211.06 125.11-211.12 250.87 0 131.99 100.73 240.66 229.27 253.31-3.64 18.89-5.48 38.48-5.5 58.35 0 173.3 140.67 314.2 314.2 314.2 173.59 0 314.07-140.79 314.13-314.2a298.53 298.53 0 0 0-5.71-58.3c129.11-12.59 230.01-121.28 230.01-253.22.06-125.79-91.57-230.43-211.47-250.9l.14-1219.85 629.06.06c20.49 119.86 125.07 211.04 250.61 211.04 132.08.05 240.53-100.58 253.58-229.12 18.62 3.82 38.03 5.76 57.95 5.76 173.83.05 314.26-140.83 314.37-314.29 0-173.42-140.5-314.14-314.34-314.14z" fill="#c5c6c6" fill-rule="nonzero"/><path d="M12231.52 3908.52l505.76.02c0-116.54 94.09-211.09 211.04-211.09 116.76 0 211.15 94.63 211.15 211.15-.06 11.06-1.31 22.24-2.78 33.06 31.62-13.17 66.83-20.74 103.19-20.71 150.07 0 271.11 121.64 271.06 271.16l-1582.73-.16v-.01l.11-1644.63c-149.63-.03-271.08 121.67-271.08 271.29 0 36.56 7.38 71.5 20.63 103.39-10.9-1.96-21.83-2.92-33.08-2.92-116.39 0-211.26 94.56-211.29 211.04.03 116.82 94.85 211.51 211.2 211.51v566.81l-505.35-.03c.09-116.52-94.38-211.18-210.96-211.18-116.92 0-211.64 94.57-211.64 211.16-.02 11 1.15 22.21 2.76 33.06-31.67-13.23-66.83-20.75-102.95-20.77-149.85 0-271.38 121.6-271.38 271.15l1583.03.12zm-283.47 1664.04l.17-1380.61-283.62 283.63-.12 813.33h-711.5c0-116.68-94.69-211.26-211.56-211.26-116.3 0-211.21 94.58-211.21 211.15-.02 11.29.98 22.38 2.84 33.12-31.92-13.25-66.88-20.64-103.49-20.64-149.25-.13-270.94 121.13-270.94 271.05zm-283.62 283.39l-.11 1295.76c-116.3.05-211.23 94.32-211.18 211.23-.05 116.19 94.83 210.9 211.18 210.9 11.17 0 22.16-1.23 33.06-3-13.19 32.22-20.69 66.89-20.69 103.66 0 149.58 121.4 270.62 271.14 270.62l.22-2372.55zm567.02-566.94l712.02.06c.03-116.63 94.55-211.13 211.23-211.13 116.74 0 211.31 94.56 211.31 211.13 0 11.25-1.12 22.4-2.8 33.17 31.77-13.25 66.55-20.67 102.97-20.74 149.82.07 270.92 121.29 270.97 271.21l-1789.08-.15z" fill="#fefefe" fill-rule="nonzero"/></svg>