<svg height="2500" viewBox=".2 0 809.6 1012" width="2000" xmlns="http://www.w3.org/2000/svg"><g fill="#fff"><path d="m.2 0h809.6v1012h-809.6zm0 0"/><path d="m.2 0h809.6v1012h-809.6zm0 0"/></g><path d="m353.45 551.129c.55-3.934 1.28-7.836 1.671-11.8.277-2.845.004-5.712.492-8.536.426 1.176.848 2.348 1.27 3.52.289-1.465 1.027-3.125-1.262-3.516-.683-1.676-.433-3.465-.543-5.195-.16-2.54-.41-5.055-.926-7.547-.132-.645-.097-1.325-.164-2.36 1.54 1.739 1.09 3.828 2.352 5.575-.63-6.188-2.05-11.81-4.676-17.106.211 3.441 2.352 6.426 2.281 10.121-1.886-4.02-2.398-8.332-4.332-12.16-1.91-3.781-3.832-7.543-6.707-11.078 1.016.336 1.461 1.168 2.364.898.257-.535-.204-.832-.47-1.16-4.956-6.137-10.898-10.996-18.55-13.219-5.188-1.507-10.57-1.625-15.95-.847-6.898 1-13.296 3.543-19.585 6.386-2.305 1.04-3.965 2.973-5.465 4.922-3.305 4.29-6.488 8.672-9.203 13.375-.371.649-.633 1.688-1.578 1.637-1.258-.066-1.582-1.078-.793-2.187 2.387-3.364 4.793-6.711 7.18-10.075.585-.828 1.132-1.683 1.699-2.527-.13-.094-.262-.184-.39-.277-1.513 1.918-3.06 3.808-4.528 5.761-1.207 1.598-2.387 3.223-3.453 4.918-.645 1.024-1.145.895-2.102.383-1.258-.672-.453-1.293-.11-1.828 1.442-2.227 2.958-4.402 4.446-6.598.527-.777 1.121-1.527 1.086-3.074-2.219 3.184-4.2 6.027-6.18 8.863-.84 1.204-1.195 2.688-3.414 2.524-.988-.07-2.156 1.066-3.387.078-.226-.18-.652-.277-.609-.563.246-1.597-1.262-1.558-1.898-2.292-1.153-1.336-2.461-.758-3.657-.957-1.5-.247-3.214.21-3.78-1.86-.06-.219-.22-.226-.403-.133-.488.25-1.348.868-1.43.157-.098-.872-.46-1.684-.336-2.73.3-2.52 1.387-4.61 2.508-6.724 2.27-4.277 5.281-8.058 8.152-11.93.446-.597 1.016-1.124 1.22-1.94-1.208-.102-1.923.21-2.384 1.355-.683 1.699-2.265 2.777-3.363 4.207-1.836 2.394-3.242 4.93-4.223 7.746-.328.941-.738 1.695-1.996 1.562-.758-.082-.992-.175-.844-1.027.32-1.836 1.266-3.418 1.899-5.125 1.523-4.121 3.36-8.11 5.043-12.164.703-1.695.89-3.61 1.32-5.445-.922-.356-1.133.922-2.156.308 2.887-7.648 7.91-14.347 11.082-22.324-4.57 2.445-8.813 4.7-13.043 6.98-5.629 3.032-11.281 6.032-16.852 9.169-1.257.707-1.539-.086-1.96-.774-.598-.984.398-1.008.894-1.262 2.352-1.214 4.719-2.394 7.074-3.605.278-.145.707-.2.645-.817-2.07.188-3.66 1.473-5.406 2.317-.997.48-1.567.668-2.258-.508-.785-1.336.379-1.469.925-1.734 2.735-1.313 4.993-3.36 7.586-4.903-2.023.332-3.546 1.762-5.37 2.536-1.454.613-2.77 1.543-4.204 2.218-.875.41-1.832 1.282-2.797-.008-.242-.32-.793-.168-1.175-.003-.915.394-1.727.343-2.336-.516-.559-.79-1.368-1.59-.157-2.512.118-.094.243-.394.192-.46-.844-1.094-1.528-2.458-2.625-3.16-1.156-.735-2.633-1.044-3.774-1.888-.765-.562-1.511-1.3-.578-2.34-.523-.351-1-.074-1.453-.132-.508-.063-.684-.274-.476-.84.46-1.262 1.152-2.297 2.328-2.992.41-.242 1.238-.164.738-1.188-.191-.394.758-.742 1.238-1.066 9.938-6.738 21.184-11.09 31.426-17.274 2.648-1.597 5.363-3.117 8.035-4.644 1.988-1.137 4.27-2.422 5.766-4.59.82-1.195 2.61-1.816 3.96-2.363 2.805-1.133 5.22-2.864 7.782-4.332 5.191-2.98 10.223-6.243 15.289-9.442 1.023-.648 2.223-1.144 2.813-2.343.093-.188.39-.477.472-.442 1.41.625 2.758.012 4.086-.02 1.215-.027 2.238-.503 3.371-.59.535-.038.906-.34 1.254.395.516 1.086 1.031 2.262 2.477 2.469.14.02.375.234.363.336-.176 1.715 1.191 1.594 2.152 2.281 1.664 1.192 2.852.266 4.16-.008 1.934-.406 3.375-.015 4.04 1.461.609-.129 1.18-1.289 1.554-.71.45.695.895 1.628.735 2.667-.54 3.461-1.602 6.746-2.993 9.957-.914 2.11-1.972 4.133-3.109 6.125-5.61 9.82-11.184 19.664-16.898 29.426-1.141 1.953-2.184 3.977-3.63 5.809-1.109 1.41-1.784 3.36-2.515 5.125-.441 1.078.54.793 1.031.656 2.903-.82 5.88-1.242 8.856-1.64 14.894-2.012 29.015.156 41.984 8.117 10.059 6.171 17.813 14.543 23.68 24.793 4.316 7.543 7.68 15.449 9.582 23.902 1.8 7.984 3.535 16.035 2.586 24.328-.254 2.207.457 4.344.324 6.504-.5 8.32-1.894 16.492-3.738 24.633-1.094 4.832-2.219 9.617-4.559 13.96-2.617 4.852-4.598 10.079-8.23 14.372-11.828 13.984-26.235 23.984-43.899 29.234-11.922 3.54-23.941 4.156-35.969 1.278-14.707-3.52-26.085-11.723-33.156-25.418-2.582-5.004-5.07-10.106-5.699-15.727-.91-8.145-.805-16.309 1.387-24.309.183-.668.035-1.722 1.375-1.496.136.028.547-1.086.703-1.703 1.074-4.265 3.531-7.945 4.855-12.285.743.79.61 1.934 1.825 1.965.515.015.261.715.175 1.058-1.468 5.7-1.96 11.625-4.011 17.196-.575 1.554-.63 3.258-.559 4.894.426 9.824 2.875 19.094 8.012 27.547 2.199 3.625 4.879 6.88 8.254 9.535-8.078-7.554-12.243-17.125-14.286-27.75-.769-4.008-1.18-8.066.551-12.02.754.395-.328 1.513.657 1.782 1.171.324.687-1.184 1.578-1.406.242 1.754.43 3.48.742 5.183.094.512-.176 1.47 1.11 1.246.527-.093.515.922.613 1.485 1.308 7.722 3.859 14.953 8.546 21.305 5.782 7.835 13.727 12.02 23.176 13.605 2.367.395 4.735.758 7.164.441-2.277-.644-4.715-.492-6.918-1.476-.879-.39-1.558-.543-2.035-1.754-.453-1.137-1.812-2.277-3.266-2.7-6.34-1.843-10.277-6.585-13.464-11.85-1.567-2.59-3.305-5.38-3.813-8.454-.71-4.289-2.726-8.363-2.242-12.852.2-1.835.246-3.804 2.687-4.332-.757 13.016 3.043 24.02 14.618 30.997 6.8 4.097 14.324 3.734 22.129 1.656-1.254-.801-2.555.004-3.5-1.098 1.722-.379 3.347-.765 4.988-1.086 9.074-1.785 17.297-5.57 24.55-11.195 5.188-4.024 9.606-8.922 12.508-14.93 1.864-3.863 3.801-7.722 4.684-11.996.184-.89.723-1.707 1.102-2.558.007 1.55-.102 3.085-.454 4.605.954-2.414 2.403-4.703 1.825-7.606-.614.481-.801 1.036-1.024 1.567zm-65.13-73.793c4.817-2.27 9.883-3.93 15.063-5.238 5.238-1.325 10.61-1.696 15.984-1.895-11.16-1.219-21.254 2.293-31.047 7.133zm13.149-.422c-5.942.82-12.281 3.356-13.465 5.395 4.726-1.551 8.75-4.375 13.465-5.395zm32.582-2.883c-3.426-2.25-7.352-2.883-11.301-3.43 3.848.88 7.566 2.188 11.3 3.43zm-48.223 4.86c-2.633 1.12-6.234 5.007-6.863 7.476 2.308-2.726 4.055-5.597 6.863-7.476zm-38.398-35.754c.07.129.14.261.207.394 2.558-1.37 5.324-2.344 7.707-4.054-.082-.157-.164-.317-.25-.477-2.551 1.379-5.11 2.758-7.664 4.137zm97.687 38.8c-1.832-1.914-3.707-3.777-6.125-4.933 1.914 1.808 4.133 3.234 6.125 4.933zm6.528 77.641c-1.141 2.024-1.278 2.758-.715 4.55.402-1.667 1.582-2.745.715-4.55zm-99.31-113.73c-1.136.027-2.206.164-3.194.668-.391.199-1.094.336-.852.863.274.605.895.289 1.36.027.886-.508 1.769-1.027 2.687-1.558zm89.798 131.972c-2.356.442-2.356 2.825-3.914 3.684 1.406-.988 2.742-2.05 3.914-3.684zm5.996-80.039c.055.016.117.059.16.043.04-.012.074-.082.09-.129.281-1.125-.113-2.074-.887-2.832-.281-.277-.238.242-.344.38-.828 1.1.641 1.472.75 2.284.016.094.149.168.23.254zm0 0"/><path d="m507.746 521.547c-2.766-16.317-11.02-29.235-24.766-38.496-11.113-7.492-23.57-10.711-36.843-10.801-16.93-.117-33.864-.027-50.801-.027h-1.52c-.07.394-.148.617-.148.843-.004 7.997.004 15.989-.02 23.98h12.297c-.043-3.655-.015-7.316-.007-10.972 0-.492.039-.984.066-1.543h1.289c12.664 0 25.332-.097 37.992.055 4.152.047 8.352.434 12.434 1.18 9.785 1.785 18.441 6.039 25.46 13.171 9.985 10.149 13.798 22.614 13.118 36.614-.594 12.183-4.942 22.785-13.977 31.125-9.101 8.402-20.172 12.515-32.379 12.89-14.246.442-28.511.16-42.77.184-.304 0-.605-.113-.948-.184v-32.175c.543-.032.953-.067 1.367-.067 7.082-.004 14.164-.004 21.246-.004 3.512 0 7.016.004 10.523.004v-12.297c-14.468-.007-28.941-.011-43.406-.007-2.367 0-2.039-.223-2.105 2.128-.008.235-.004.47-.004.704 0 17.449 0 34.902.004 52.351 0 1.844.004 1.848 1.808 1.848 16.887 0 33.77.027 50.656-.012 10.31-.027 20.223-2.008 29.57-6.453 12.966-6.172 22.544-15.695 28.161-28.98 4.762-11.293 5.734-23.07 3.703-35.06zm0 0"/><path d="m467.145 507.418c-42.465.004-57.133.004-71.805.008-.457 0-.914.043-1.461.07v12.192h73.266zm0 0"/><path d="m187.46 526.626c-2.461 0-4.387.781-5.781 2.344-1.399 1.554-2.2 3.765-2.407 6.64h16.297c-.054-2.875-.804-5.086-2.25-6.64-1.449-1.563-3.402-2.344-5.859-2.344zm1.64 35.86c-6.855 0-12.214-1.891-16.078-5.673-3.855-3.78-5.78-9.14-5.78-16.078 0-7.125 1.78-12.632 5.343-16.53 3.57-3.895 8.504-5.845 14.797-5.845 6.02 0 10.703 1.715 14.047 5.141 3.351 3.43 5.031 8.164 5.031 14.203v5.625h-27.453c.125 3.305 1.098 5.883 2.922 7.734 1.832 1.856 4.398 2.782 7.703 2.782 2.562 0 4.984-.266 7.265-.797 2.282-.54 4.665-1.395 7.157-2.563v8.985a26.642 26.642 0 0 1 -6.516 2.265c-2.305.5-5.117.75-8.437.75zm37.952-23.906 5.063-6.485 11.906-12.938h13.11l-16.907 18.469 17.922 24.094h-13.39l-12.266-17.25-4.984 4v13.25h-11.61v-59.235h11.61v26.422l-.61 9.672zm64.221 23.14-2.25-5.782h-.297c-1.961 2.461-3.977 4.168-6.047 5.125-2.063.946-4.758 1.422-8.078 1.422-4.094 0-7.313-1.164-9.656-3.5-2.344-2.343-3.516-5.672-3.516-9.984 0-4.52 1.578-7.848 4.734-9.984 3.157-2.145 7.922-3.332 14.297-3.563l7.375-.234v-1.86c0-4.312-2.203-6.468-6.61-6.468-3.405 0-7.405 1.027-12 3.078l-3.843-7.844c4.895-2.563 10.328-3.844 16.297-3.844 5.707 0 10.082 1.246 13.125 3.735 3.05 2.48 4.578 6.261 4.578 11.343v28.36zm-3.438-19.72-4.484.156c-3.375.094-5.89.703-7.547 1.828-1.648 1.118-2.469 2.813-2.469 5.094 0 3.274 1.88 4.906 5.64 4.906 2.688 0 4.833-.77 6.438-2.312 1.614-1.55 2.422-3.61 2.422-6.172zm53.183 7.08c0 4.366-1.516 7.694-4.547 9.983-3.031 2.282-7.57 3.422-13.61 3.422-3.093 0-5.734-.214-7.921-.64a29.704 29.704 0 0 1 -6.125-1.844v-9.594c2.156 1.024 4.582 1.875 7.281 2.563 2.707.68 5.086 1.015 7.14 1.015 4.22 0 6.329-1.218 6.329-3.656 0-.906-.281-1.644-.844-2.219-.555-.57-1.515-1.218-2.89-1.937-1.368-.727-3.196-1.57-5.485-2.531-3.273-1.375-5.68-2.645-7.219-3.813-1.53-1.164-2.648-2.504-3.343-4.016-.7-1.507-1.047-3.367-1.047-5.578 0-3.78 1.46-6.703 4.39-8.765 2.938-2.07 7.098-3.11 12.485-3.11 5.125 0 10.11 1.118 14.953 3.344l-3.5 8.375a67.798 67.798 0 0 0 -5.984-2.234 18.392 18.392 0 0 0 -5.672-.89c-3.43 0-5.141.929-5.141 2.78 0 1.043.55 1.946 1.656 2.703 1.102.762 3.524 1.891 7.266 3.391 3.32 1.344 5.754 2.602 7.297 3.766 1.55 1.168 2.691 2.515 3.422 4.047.738 1.523 1.109 3.336 1.109 5.437zm0 0"/><path d="m376.543 591.565c0-2.164 1.203-3.25 3.61-3.25 2.406 0 3.609 1.086 3.609 3.25 0 1.023-.305 1.82-.907 2.39-.593.575-1.496.86-2.703.86-2.406 0-3.609-1.082-3.609-3.25zm6.922 30.578h-6.625v-24.297h6.625zm28.708 0h-6.625v-14.188c0-1.757-.297-3.078-.89-3.953-.587-.875-1.509-1.312-2.766-1.312-1.7 0-2.934.625-3.704 1.875-.761 1.242-1.14 3.289-1.14 6.14v11.438h-6.625v-24.297h5.062l.89 3.11h.36c.657-1.114 1.598-1.985 2.828-2.61 1.227-.633 2.645-.953 4.25-.953 3.633 0 6.094 1.187 7.375 3.562h.594c.656-1.132 1.613-2.007 2.875-2.625 1.27-.625 2.703-.937 4.297-.937 2.75 0 4.832.71 6.25 2.125 1.414 1.406 2.125 3.668 2.125 6.781v15.844h-6.656v-14.188c0-1.757-.297-3.078-.89-3.953-.587-.875-1.509-1.312-2.766-1.312-1.625 0-2.84.586-3.641 1.75-.805 1.156-1.203 2.996-1.203 5.515zm35.298.437c-2.855 0-5.094-1.035-6.719-3.109h-.343c.226 2.031.343 3.203.343 3.516v9.843h-6.625v-34.984h5.391l.922 3.14h.312c1.551-2.394 3.848-3.593 6.891-3.593 2.863 0 5.11 1.11 6.734 3.328 1.625 2.211 2.438 5.29 2.438 9.234 0 2.594-.383 4.852-1.14 6.766-.762 1.906-1.844 3.36-3.25 4.36-1.407 1-3.06 1.5-4.954 1.5zm-1.953-19.89c-1.648 0-2.844.508-3.594 1.515-.75 1-1.14 2.664-1.172 4.985v.719c0 2.605.383 4.476 1.157 5.609.78 1.125 2.007 1.687 3.687 1.687 2.969 0 4.453-2.445 4.453-7.343 0-2.395-.367-4.188-1.093-5.375-.73-1.196-1.875-1.797-3.438-1.797zm30.338-5.297c.894 0 1.64.062 2.234.187l-.5 6.22c-.543-.145-1.195-.22-1.953-.22-2.117 0-3.766.547-4.953 1.641-1.18 1.086-1.766 2.602-1.766 4.547v12.375h-6.625v-24.297h5.016l.984 4.078h.313a9.088 9.088 0 0 1 3.062-3.281 7.537 7.537 0 0 1 4.188-1.25zm16.711 4.703c-1.406 0-2.512.45-3.312 1.344-.793.898-1.247 2.164-1.36 3.797h9.297c-.031-1.633-.46-2.899-1.281-3.797-.824-.895-1.938-1.344-3.344-1.344zm.922 20.484c-3.906 0-6.965-1.078-9.172-3.234-2.2-2.164-3.297-5.227-3.297-9.187 0-4.063 1.016-7.204 3.047-9.422 2.04-2.227 4.86-3.344 8.453-3.344 3.438 0 6.11.98 8.016 2.937 1.914 1.95 2.875 4.649 2.875 8.094v3.219h-15.672c.07 1.887.629 3.36 1.672 4.422 1.039 1.054 2.504 1.578 4.39 1.578 1.457 0 2.836-.149 4.141-.453 1.313-.301 2.676-.785 4.094-1.453v5.125a15.193 15.193 0 0 1 -3.719 1.297c-1.312.28-2.922.421-4.828.421zm32.265-7.656c0 2.492-.87 4.39-2.61 5.703-1.73 1.305-4.32 1.953-7.765 1.953-1.773 0-3.281-.12-4.531-.359a16.601 16.601 0 0 1 -3.484-1.062v-5.47c1.226.575 2.613 1.06 4.156 1.454 1.539.398 2.898.594 4.078.594 2.406 0 3.61-.696 3.61-2.094 0-.52-.165-.942-.485-1.266-.312-.332-.867-.703-1.656-1.11-.781-.413-1.824-.898-3.125-1.452-1.867-.781-3.242-1.504-4.125-2.172-.875-.664-1.512-1.426-1.906-2.281-.399-.864-.594-1.926-.594-3.188 0-2.164.832-3.836 2.5-5.015 1.676-1.176 4.05-1.766 7.125-1.766 2.926 0 5.773.637 8.547 1.906l-2 4.781a37.94 37.94 0 0 0 -3.422-1.28 10.711 10.711 0 0 0 -3.235-.5c-1.96 0-2.937.526-2.937 1.577 0 .606.316 1.125.953 1.563.633.43 2.016 1.07 4.14 1.922 1.895.773 3.286 1.492 4.173 2.156.882.668 1.535 1.437 1.953 2.312.425.868.64 1.899.64 3.094zm4.874-23.359c0-2.164 1.203-3.25 3.61-3.25 2.406 0 3.609 1.086 3.609 3.25 0 1.023-.305 1.82-.906 2.39-.594.575-1.496.86-2.703.86-2.407 0-3.61-1.082-3.61-3.25zm6.922 30.578h-6.625v-24.297h6.625zm12.24-12.188c0 2.407.39 4.227 1.171 5.454.79 1.23 2.078 1.843 3.86 1.843 1.77 0 3.039-.61 3.812-1.828.781-1.226 1.172-3.05 1.172-5.469 0-2.406-.39-4.207-1.172-5.406-.781-1.207-2.062-1.812-3.844-1.812-1.773 0-3.047.601-3.828 1.797-.781 1.187-1.172 2.996-1.172 5.421zm16.796 0c0 3.95-1.047 7.043-3.14 9.282-2.086 2.23-4.985 3.343-8.704 3.343-2.335 0-4.39-.507-6.171-1.53-1.782-1.02-3.153-2.49-4.11-4.407-.96-1.914-1.437-4.145-1.437-6.688 0-3.976 1.035-7.066 3.11-9.265 2.07-2.196 4.983-3.297 8.733-3.297 2.332 0 4.391.508 6.172 1.516 1.782 1.011 3.149 2.468 4.11 4.375.957 1.898 1.437 4.12 1.437 6.671zm27.901 12.188h-6.625v-14.188c0-1.757-.312-3.078-.937-3.953s-1.618-1.312-2.97-1.312c-1.866 0-3.21.62-4.03 1.86-.825 1.241-1.235 3.292-1.235 6.155v11.438h-6.625v-24.297h5.063l.89 3.11h.36c.738-1.176 1.754-2.063 3.047-2.657 1.3-.601 2.78-.906 4.437-.906 2.82 0 4.961.766 6.422 2.297 1.469 1.523 2.203 3.726 2.203 6.61zm16.893-20.047c-1.406 0-2.512.45-3.313 1.344-.792.898-1.246 2.164-1.359 3.797h9.297c-.031-1.633-.46-2.899-1.281-3.797-.824-.895-1.938-1.344-3.344-1.344zm.922 20.484c-3.906 0-6.965-1.078-9.172-3.234-2.2-2.164-3.297-5.227-3.297-9.187 0-4.063 1.016-7.204 3.047-9.422 2.04-2.227 4.86-3.344 8.453-3.344 3.438 0 6.11.98 8.016 2.937 1.914 1.95 2.875 4.649 2.875 8.094v3.219h-15.672c.07 1.887.629 3.36 1.672 4.422 1.039 1.054 2.504 1.578 4.39 1.578 1.457 0 2.836-.149 4.141-.453 1.312-.301 2.676-.785 4.094-1.453v5.125a15.193 15.193 0 0 1 -3.719 1.297c-1.313.28-2.922.421-4.828.421zm32.265-7.656c0 2.492-.87 4.39-2.61 5.703-1.73 1.305-4.32 1.953-7.765 1.953-1.773 0-3.281-.12-4.531-.359a16.601 16.601 0 0 1 -3.484-1.062v-5.47c1.226.575 2.613 1.06 4.156 1.454 1.539.398 2.898.594 4.078.594 2.406 0 3.61-.696 3.61-2.094 0-.52-.165-.942-.485-1.266-.312-.332-.867-.703-1.656-1.11-.781-.413-1.824-.898-3.125-1.452-1.867-.781-3.242-1.504-4.125-2.172-.875-.664-1.512-1.426-1.906-2.281-.399-.864-.594-1.926-.594-3.188 0-2.164.832-3.836 2.5-5.015 1.676-1.176 4.05-1.766 7.125-1.766 2.926 0 5.773.637 8.547 1.906l-2 4.781a37.94 37.94 0 0 0 -3.422-1.28 10.711 10.711 0 0 0 -3.235-.5c-1.96 0-2.937.526-2.937 1.577 0 .606.316 1.125.953 1.563.633.43 2.016 1.07 4.14 1.922 1.895.773 3.286 1.492 4.173 2.156.882.668 1.535 1.437 1.953 2.312.425.868.64 1.899.64 3.094zm0 0"/></svg>