<svg height="104pt" viewBox="24.4 3.7 55.1 58.3" width="284pt" xmlns="http://www.w3.org/2000/svg"><path d="m46.4 5.1c-1.8.5-5.3 2.4-8 4.1-12.2 8.3-14 26.1-4.5 46.3 1.6 3.6 3.2 6.5 3.4 6.5.3 0-.4-2.8-1.5-6.3-2.8-8.4-3-22.2-.5-29.4 2.4-6.9 9.4-14.5 16.2-17.7 3-1.5 6.2-2.6 7.2-2.6s2.5-.5 3.3-1c2-1.3-11.2-1.2-15.6.1z"/><path d="m58.9 12.9c1.8 1.1 2.9 14.1 1.3 14.1-.5 0-1.2 1-1.6 2.3-1.5 6-12.2 9.3-17.8 5.4l-2.8-1.8v4.8c0 5.2 2.8 12.4 6.3 16.1 6.5 7.1 18 8.2 25.9 2.6 6.3-4.4 9.3-11 9.2-20.4 0-8.7-2.2-13.8-7.8-18.8-3.3-2.8-9-5.2-12.6-5.2-1.3 0-1.3.2-.1.9z"/></svg>