<svg height="1079" viewBox="-1.3 -1 267.56 114.99" width="2500" xmlns="http://www.w3.org/2000/svg"><g fill="#e52520"><path d="m137.32 10.03c0 1.99-.79 3.71-1.76 5.37-2.64 4.49-5.31 8.98-7.96 13.46-.16.27-.33.53-.46.81-.16.37-.22.77.13 1.08.3.26.67.23.99.06.65-.35 1.29-.72 1.9-1.13 8.55-5.77 16.67-12.12 24.88-18.35 3.5-2.66 6.95-5.38 10.45-8.05 1.78-1.36 3.74-2.39 5.91-2.95 4.84-1.25 9.09 1.17 10.56 5.96 1.56 5.1-.59 11.98-4.73 15.34-7.73 6.29-15.79 12.14-23.71 18.17-4.43 3.37-8.73 6.9-13.12 10.31-2.15 1.67-2.94 2.89-1.78 6.46 2.63 8.1 5.4 16.16 8.11 24.24 1.34 3.98 2.68 7.97 4 11.95 1.22 3.68 1.35 7.41.38 11.15-1.53 5.89-6.51 9.82-12.57 9.98-3.73.1-6.44-1.84-7.64-5.45-5.36-16.17-10.72-32.35-16.09-48.52-.23-.7-.48-1.4-.75-2.09-.21-.55-.45-1.16-1.12-1.21-.62-.05-.94.5-1.22.96-1.38 2.35-2.74 4.71-4.1 7.07-2.74 4.75-5.44 9.53-8.22 14.26-2.19 3.73-5 6.87-9.12 8.54-4.09 1.67-8.2 1.67-12.19-.31-3.24-1.6-4.88-5.13-4.24-8.7.41-2.27 1.4-4.28 2.55-6.23 9.1-15.51 17.6-31.34 26.29-47.08 2.84-5.14 5.72-10.27 8.81-15.27 1.49-2.42 3.12-4.75 5.37-6.56 2.82-2.26 6.07-3.01 9.61-2.82 1.4.08 2.78.24 4.16.48 2.78.49 4.62 2.1 5.68 4.65.58 1.41 1 2.86 1 4.41zm-123.99 50.55c1.6.03 4.11.78 6.5 2.01 3.02 1.55 6.05 3.03 9.46 3.51 3.67.52 7.29.44 10.81-.85 3.73-1.36 5.49-3.92 5.39-7.7-.06-2.31-1.35-3.93-3.03-5.28-2.31-1.86-4.93-3.27-7.36-4.94-2.76-1.89-5.23-4.04-6.81-7.07-2.13-4.09-2.08-8.39-1.13-12.74 1.62-7.44 6-12.98 12.07-17.28 7.41-5.24 15.8-7.92 24.68-9.2 5.96-.86 11.94-1.06 17.86.24 4.88 1.07 9.64 2.61 13.61 5.8 2.49 2 3.46 4.66 2.55 7.81-1.13 3.93-3.32 7.2-6.56 9.68-3.1 2.37-6.56 2.27-10.12 1.2-2.68-.81-5.23-2.02-8-2.53-4.03-.74-8.07-1.23-12.12-.13-2.85.77-5 2.43-6.49 4.97-1.39 2.36-1.16 4.18.76 6.11 1.69 1.7 3.8 2.83 5.78 4.12 2.65 1.72 5.28 3.45 7.39 5.84 4.41 5 5.36 10.78 3.49 17.02-2.33 7.78-7.05 13.98-13.33 19.01-7.45 5.96-16 8.98-25.52 9.26-9.47.28-18.36-1.81-26.55-6.64-1-.59-1.94-1.3-2.82-2.07-4.8-4.2-5.14-10.48-.9-15.5 2.56-3.03 5.83-4.68 10.38-4.66zm232.88 3.79c3.73 0 7.47-.03 11.2.01 2.26.02 4.42.46 6.18 2.03 2.18 1.94 2.67 4.54 2.45 7.25-.42 5.24-3.04 9.12-7.63 11.68-1.68.94-3.5 1.22-5.39 1.28-9.91.31-19.83.22-29.74.22-3.14 0-6.27.39-9.43.05-6.23-.67-10.79-4.49-11.89-10.28-.68-3.57-.08-7.01 1.72-10.14 9.61-16.74 19-33.59 28.28-50.51 1.76-3.21 3.45-6.45 5.64-9.4 4.2-5.66 9.94-7.38 16.62-6.11 6.01 1.15 8.7 7.05 5.89 12.76-1.47 3-3.29 5.83-4.94 8.73-7.15 12.58-14.57 25.01-21.04 37.97-.35.7-.68 1.4-.97 2.12-.7 1.77-.36 2.29 1.51 2.32 2.02.03 4.04.02 6.07.02h5.48z"/><path d="m166.35 88.49c-2.97-.13-6.03-.62-8.34-3.07-2.77-2.93-3.26-7.29-1.09-11.42 2.07-3.92 4.38-7.71 6.61-11.55 10.41-17.98 20.91-35.9 31.19-53.95 4.52-7.94 13.42-9.5 19.46-7.15 5.53 2.15 7.2 6.74 4.35 11.96-2.52 4.61-5.13 9.17-7.7 13.74-7.92 14.11-15.84 28.22-23.78 42.32-2.33 4.13-4.51 8.37-7.4 12.15-3.29 4.31-7.52 6.91-13.29 6.97z"/></g></svg>