<svg height="644" width="2500" xmlns="http://www.w3.org/2000/svg" viewBox="0 -0.276 1116.455 286.566"><path d="M82.88 285.548c-5.376 0-12.992-.825-22.848-2.464s-20.237-5.151-31.137-10.527C17.99 267.18 8.358 258.969 0 247.916l30.016-32.705c8.064 8.96 15.379 15.387 21.952 19.265 6.566 3.885 12.467 6.202 17.696 6.943 5.222.749 9.478 1.12 12.768 1.12 9.254 0 15.232-1.938 17.92-5.824 2.688-3.878 4.032-7.462 4.032-10.752 0-4.479-1.869-8.134-5.6-10.976-3.738-2.835-8.513-5.299-14.337-7.392a941.39 941.39 0 0 1-18.144-6.721c-15.533-5.971-26.656-13.888-33.376-23.744-6.72-9.855-10.08-20.607-10.08-32.256 0-5.971 1.12-12.768 3.36-20.384 2.239-7.616 6.118-15.008 11.647-22.176 5.523-7.168 13.286-13.14 23.296-17.92 10.003-4.774 22.918-7.168 38.752-7.168 8.96 0 17.99.672 27.104 2.016 9.106 1.344 18.067 3.885 26.88 7.616 8.806 3.738 17.248 9.037 25.313 15.904l-28.225 35.392c-6.271-6.272-12.768-11.046-19.488-14.336-6.72-3.283-13.965-4.928-21.728-4.928-5.677 0-10.157.825-13.44 2.464-3.29 1.645-5.677 3.808-7.168 6.496-1.498 2.688-2.239 5.529-2.239 8.512 0 4.781 2.239 8.666 6.72 11.648 4.479 2.988 9.926 5.529 16.352 7.615a227.012 227.012 0 0 1 19.04 7.168c8.96 3.584 16.576 8.064 22.849 13.44 6.271 5.376 10.821 11.725 13.664 19.04 2.835 7.322 3.653 15.904 2.464 25.76-.896 8.666-3.438 16.954-7.616 24.864-4.187 7.917-9.786 14.86-16.8 20.832-7.021 5.979-15.61 10.604-25.76 13.888-10.157 3.285-21.805 4.931-34.944 4.931zM229.375-.276h62.72l-10.304 85.12h47.487l-5.824 48.831h-47.487l-17.92 147.841h-62.72l17.92-147.841h-30.464l5.823-48.831h30.464zM399.165 85.74l-1.792 43.456c7.168-11.648 15.75-21.427 25.761-29.344 10.003-7.91 20.16-13.889 30.464-17.92 10.304-4.032 19.04-6.048 26.208-6.048l-10.752 62.72c-14.336-1.792-27.182.602-38.528 7.168-11.354 6.573-20.461 15.231-27.328 25.983-6.874 10.752-11.053 21.806-12.544 33.152l-9.408 76.608h-62.271L342.718 85.74zM537.592 285.996c-12.846.294-25.391-3.29-37.632-10.753-12.25-7.462-22.33-18.367-30.24-32.703-7.917-14.336-11.872-31.653-11.872-51.968 0-14.63 2.688-28.742 8.063-42.336 5.376-13.587 12.992-25.83 22.849-36.736 9.855-10.898 21.504-19.558 34.943-25.983 13.439-6.419 28.225-9.632 44.353-9.632 13.139 0 23.813 1.497 32.032 4.479 8.211 2.989 14.854 6.797 19.936 11.424 5.075 4.634 9.408 9.632 12.992 15.008l-4.032 9.408 9.856-30.464h58.239l-23.743 195.776h-62.721l4.928-42.561 3.584 13.44c-.603 0-2.688 1.722-6.271 5.151-3.584 3.438-8.735 7.393-15.456 11.872-6.72 4.479-15.085 8.441-25.088 11.872-10.01 3.432-21.58 5-34.72 4.706zm35.392-50.176c5.972 0 11.719-1.12 17.248-3.36 5.523-2.239 10.822-5.522 15.904-9.855 5.075-4.326 9.555-9.779 13.439-16.353l5.823-47.936c-1.498-6.566-4.333-12.166-8.512-16.8-4.187-4.627-9.408-8.211-15.681-10.752-6.271-2.534-13.439-3.809-21.504-3.809-10.156 0-18.815 1.792-25.983 5.376s-13.068 8.218-17.695 13.889c-4.635 5.677-7.994 11.725-10.08 18.144-2.094 6.426-3.137 12.621-3.137 18.592 0 10.752 2.086 20.09 6.271 28 4.181 7.917 10.08 14.042 17.697 18.368 7.618 4.333 16.354 6.496 26.21 6.496zM725.75 85.74h62.721l-24.192 195.776h-62.72z"/><path d="M787.125 85.74h74.367l54.467 149.805-42.37-15.853 73.92-133.952h69.888L882.1 285.548z"/><circle cx="1029.728" cy="247.996" fill="#00dfca" r="38"/><path d="M1092.156 38.218c4.081 0 8.067 1.048 11.956 3.142 3.889 2.096 6.918 5.092 9.088 8.992 2.17 3.898 3.255 7.965 3.255 12.197 0 4.189-1.069 8.218-3.206 12.085-2.139 3.867-5.136 6.87-8.992 9.007-3.855 2.139-7.891 3.207-12.101 3.207-4.211 0-8.245-1.068-12.101-3.207-3.857-2.137-6.859-5.14-9.008-9.007s-3.223-7.896-3.223-12.085c0-4.232 1.09-8.299 3.271-12.197 2.18-3.9 5.215-6.896 9.104-8.992 3.889-2.095 7.874-3.142 11.957-3.142zm0 4.028c-3.416 0-6.741.876-9.974 2.627-3.234 1.751-5.764 4.254-7.59 7.508-1.826 3.256-2.739 6.645-2.739 10.168 0 3.502.897 6.859 2.69 10.07 1.794 3.213 4.303 5.716 7.525 7.51s6.585 2.69 10.087 2.69c3.501 0 6.864-.896 10.087-2.69s5.725-4.297 7.509-7.51c1.783-3.211 2.675-6.568 2.675-10.07 0-3.523-.908-6.912-2.723-10.168-1.816-3.254-4.346-5.757-7.59-7.508s-6.563-2.627-9.957-2.627zm-10.667 33.741V49.819h8.991c3.072 0 5.296.241 6.671.726 1.375.482 2.471 1.326 3.287 2.529s1.225 2.481 1.225 3.835c0 1.912-.682 3.577-2.047 4.995-1.364 1.418-3.174 2.213-5.43 2.385.924.387 1.664.849 2.224 1.386 1.052 1.031 2.341 2.761 3.867 5.188l3.19 5.124h-5.156l-2.32-4.125c-1.826-3.244-3.299-5.274-4.415-6.091-.773-.602-1.901-.902-3.384-.902h-2.481v11.118zm4.221-14.727h5.124c2.449 0 4.119-.365 5.012-1.096.891-.73 1.337-1.697 1.337-2.9 0-.773-.215-1.467-.645-2.078-.431-.613-1.026-1.069-1.788-1.37-.764-.301-2.176-.451-4.238-.451h-4.802z"/></svg>