<svg height="-648" viewBox="64.40670831 193.17 371.99329169 113.43169607" width="2500" xmlns="http://www.w3.org/2000/svg"><path d="m436.4 239.54v-.26c0-.26-.02-.53-.04-.79-.01-.31-.04-.63-.07-.94v-.03c-.04-.31-.07-.61-.11-.91-.03-.25-.07-.49-.1-.73-.02-.16-.05-.32-.08-.48-.04-.24-.08-.47-.13-.7-.06-.29-.13-.57-.19-.86-.07-.3-.14-.6-.22-.9-.07-.26-.14-.52-.22-.77-.1-.32-.2-.64-.31-.95-.06-.19-.13-.37-.19-.55-.31-.87-.66-1.71-1.06-2.54-.12-.26-.25-.51-.38-.77-.48-.95-1.02-1.87-1.61-2.75-.13-.21-.27-.4-.41-.6-.39-.56-.79-1.09-1.22-1.62-.13-.16-.26-.31-.39-.47-.79-.93-1.64-1.82-2.54-2.63-.2-.19-.41-.36-.62-.54-.17-.15-.34-.29-.51-.43-.46-.38-.94-.74-1.42-1.09-.19-.14-.39-.28-.6-.41-.13-.1-.28-.19-.42-.28a13.1 13.1 0 0 0 -.79-.5c-.28-.17-.57-.33-.86-.5-.33-.19-.68-.37-1.03-.54-.22-.11-.44-.22-.67-.32-.39-.19-.79-.37-1.2-.54-.3-.13-.6-.24-.9-.36h-.03c-.33-.13-.67-.24-1-.35a32.224 32.224 0 0 0 -1.77-.51c-.16-.04-.33-.08-.5-.12-.02 0-.04-.01-.07-.01-.26-.07-.52-.12-.78-.17-.73-.15-1.47-.27-2.21-.35-.33-.04-.68-.07-1.03-.1h-.07c-.31-.02-.63-.04-.95-.05h-.16c-.34-.01-.69-.02-1.04-.02h-18.6c-12.15 0-22.48 7.89-26.31 18.9a28.718 28.718 0 0 0 -1.59 9.46v37.8c0 .38 0 .76.02 1.13 0 .26.02.53.04.79.01.32.04.63.07.94.03.32.07.63.11.94.03.26.07.52.11.78.06.36.12.71.19 1.06.07.31.13.61.2.91.06.28.13.55.2.83 0 .02.01.05.02.07.09.33.18.65.28.97v.02c.1.31.2.62.3.92.04.12.09.25.13.37.2.54.41 1.07.63 1.6.13.31.28.62.42.93s.3.61.45.91c.16.31.32.6.48.89.22.41.46.8.71 1.2.24.39.49.76.75 1.13.46.65.94 1.29 1.45 1.9.19.23.39.45.59.68.21.24.42.48.65.71.11.12.22.23.33.35.31.31.63.63.97.94.26.24.52.47.78.69.17.14.34.28.51.43.25.21.51.41.77.61l.65.47c.28.2.57.4.86.6.8.53 1.63 1.01 2.48 1.47.11.06.22.12.33.17.28.14.56.28.85.41.31.14.64.28.97.42.31.13.63.25.95.38h.03c.33.12.67.24 1 .35s.68.22 1.02.31c.35.1.71.19 1.06.28.34.08.68.16 1.03.22.34.07.69.13 1.04.19.39.07.78.12 1.17.16.33.04.68.07 1.03.1h.07c.31.02.63.04.95.05h.16c.34.01.69.02 1.04.02h18.6c12.15 0 22.48-7.89 26.31-18.91 1.03-2.95 1.59-6.14 1.59-9.45v-37.8c0-.29 0-.59-.01-.88zm-46.49 48.13c-.17 0-.34 0-.51-.01-.46-.02-.91-.08-1.34-.17a9.22 9.22 0 0 1 -2.13-.72 7.455 7.455 0 0 1 -1.15-.66c-.13-.07-.25-.16-.36-.25-.06-.04-.13-.1-.19-.15-.08-.06-.16-.12-.24-.19-.42-.36-.82-.75-1.18-1.18-.1-.11-.19-.23-.28-.35-.18-.24-.34-.48-.5-.73-.06-.1-.12-.19-.17-.28-.1-.16-.19-.33-.27-.51-.07-.13-.13-.27-.19-.4-.05-.1-.1-.21-.13-.32-.07-.19-.14-.37-.2-.56-.04-.11-.07-.22-.1-.34-.05-.19-.1-.37-.14-.56a4.96 4.96 0 0 1 -.08-.41c-.03-.16-.05-.31-.07-.46-.01-.1-.02-.22-.04-.32-.01-.13-.02-.26-.02-.39 0-.08-.01-.16-.01-.24v-38.29c.13-5.1 4.24-9.21 9.3-9.21h18.6a8.677 8.677 0 0 1 1.85.18c.74.16 1.46.39 2.13.72a7.455 7.455 0 0 1 1.15.66c.13.07.25.16.36.25.24.18.47.36.68.57.11.09.22.19.32.31.1.1.21.21.31.32.21.22.39.44.57.68.09.12.18.24.26.36s.16.25.24.37c.07.11.14.22.2.34.09.15.17.31.25.46.06.13.12.25.17.39.05.1.09.2.13.3.03.09.07.18.1.27.04.1.07.2.1.3.04.13.08.25.12.38 0 .01 0 .03.01.05.04.13.07.26.1.39a5.47 5.47 0 0 1 .09.48c.03.16.05.31.07.46.01.1.02.22.04.32.01.13.02.26.02.39 0 .08.01.16.01.24v38.29c-.13 5.1-4.24 9.2-9.3 9.2h-18.6zm-55.8-9.44c0 5.22 4.16 9.45 9.3 9.45h9.3v18.9h-9.3c-15.41 0-27.9-12.69-27.9-28.35v-85.06h18.6v18.9h18.6v18.9h-18.6zm-139.5-18.91c0 15.66 12.49 28.35 27.9 28.35v18.9c-15.21 0-28.72-7.42-37.2-18.9-8.48 11.48-21.99 18.9-37.2 18.9v-18.9c15.41 0 27.9-12.69 27.9-28.35s-12.49-28.35-27.9-28.35v-18.9c15.21 0 28.72 7.42 37.2 18.9 8.48-11.48 21.99-18.9 37.2-18.9v18.9c-15.41 0-27.9 12.69-27.9 28.35zm83.7-47.25h-46.5v18.9h46.5c5.14 0 9.3 4.23 9.3 9.45v9.45h-27.9a27.377 27.377 0 0 0 -10.27 1.98 27.8 27.8 0 0 0 -8.32 5.23c-5.71 5.19-9.3 12.74-9.3 21.13 0 2.58.34 5.09.98 7.46a28.4 28.4 0 0 0 8.32 13.67c.81.74 1.66 1.42 2.55 2.06a27.459 27.459 0 0 0 16.05 5.16h18.6c12.15 0 22.48-7.89 26.31-18.9 1.03-2.96 1.59-6.14 1.59-9.45v-37.81c0-15.66-12.49-28.35-27.9-28.35zm9.3 66.16v.24c-.13 5.11-4.24 9.21-9.3 9.21h-18.6c-5.06 0-9.17-4.1-9.3-9.21v-.24-.24c.13-5.11 4.24-9.21 9.3-9.21h27.9zm-195.3 9.45c-5.14 0-9.3-4.23-9.3-9.45v-9.45h27.9a27.377 27.377 0 0 0 9.3-1.61c.33-.12.66-.24.98-.37a27.8 27.8 0 0 0 8.32-5.23c3.46-3.14 6.14-7.15 7.71-11.68 1.03-2.96 1.59-6.14 1.59-9.45 0-2.58-.34-5.09-.98-7.46-.18-.67-.38-1.34-.61-1.99a28.5 28.5 0 0 0 -7.71-11.68c-.81-.74-1.66-1.42-2.55-2.06a27.538 27.538 0 0 0 -6.75-3.55 27.58 27.58 0 0 0 -9.3-1.61h-18.6c-3.26 0-6.39.57-9.3 1.61-7.93 2.85-14.21 9.23-17.01 17.29a28.703 28.703 0 0 0 -1.59 9.45v37.81c0 3.31.56 6.49 1.59 9.45 2.8 8.06 9.09 14.44 17.01 17.29a27.58 27.58 0 0 0 9.3 1.61h46.5v-18.9h-46.5zm-9.3-47.26v-.24c.13-5.11 4.24-9.21 9.3-9.21h18.6c5.05 0 9.17 4.1 9.3 9.21v.49c-.13 5.11-4.24 9.21-9.3 9.21h-27.9v-9.45z" fill="#030304"/></svg>