<svg height="2500" viewBox="-.062 .001 403.373 405.516" width="2434" xmlns="http://www.w3.org/2000/svg"><circle cx="198.988" cy="180.391" fill="#548141" r="180.39"/><path d="m344.545 199.651h3.824c.518 0 1.021.056 1.508.164s.92.287 1.299.536c.377.248.681.576.909.979.229.405.342.896.342 1.478 0 .798-.226 1.447-.677 1.95-.45.502-1.064.844-1.842 1.019l2.938 4.882h-2.362l-2.55-4.664h-1.431v4.664h-1.958zm3.559 4.742c.28 0 .56-.021.84-.063.279-.039.531-.117.755-.232a1.47 1.47 0 0 0 .552-.489c.145-.212.217-.484.217-.815 0-.302-.067-.547-.202-.74a1.546 1.546 0 0 0 -.513-.458 2.218 2.218 0 0 0 -.708-.233 5.02 5.02 0 0 0 -.77-.062h-1.772v3.094h1.601z" fill="#fff"/><path d="m338.509 205.54c.002-5.195 4.213-9.405 9.406-9.407 5.195.002 9.407 4.212 9.407 9.407s-4.212 9.406-9.407 9.407c-5.193-.001-9.404-4.212-9.406-9.407zm2.17 0a7.244 7.244 0 0 0 7.236 7.237 7.246 7.246 0 0 0 7.238-7.237 7.248 7.248 0 0 0 -7.238-7.238 7.245 7.245 0 0 0 -7.236 7.238z" fill="#fff"/><g fill="#446832"><path d="m190.884 180.957-4.408 19.687s23.848-42.105 48.368-35.509l-24.487 39.42s-24.061-12.201-29.888 25.974l-9.297 60.025c-.608 3.931-2.915 7.342-8.18 8.658l-10.709 2.286c-3.892.831-6.549-1.701-5.907-5.629l18.179-110.996.136-.843c.077-.463.503-.967.948-1.118l.809-.273 19.182-6.491c3.769-1.274 6.546-.793 5.936 1.791-.463 1.954-.682 3.018-.682 3.018m-28.906-32.929c-6.16 2.134-10.236-.188-10.236-.188s-26.647 35.161-36.931 89.451c0 0-5.95 27.259-7.583 39.526-9.312-24.605-9.249-59.339-8.89-69.969.119-3.531-3.281-2.651-3.281-2.651l-23.87 5.886-.906.543s.29 42.069 19.513 98.691c0 0 1.407 4.396 1.131 7.156-1.322 14.13-8.979 52.792-54.459 82.298 0 0-2.159 1.121-2.159 3.148 0 3.598 7.133 3.449 7.133 3.449 12.326 0 42.329-25.774 54.992-50.375 14.077-27.346 28.536-56.771 40.686-110.122 11.72-51.46 19.237-68.61 23.8-78.899.902-2.033 4.672-9.221 5.487-11.057 0 0-1.575-8.497-2.006-14.032zm111.468 3.581c-28.607 0-67.17 65.242-67.17 100.591 0 4.038.205 29.899 22.79 29.899 30.385 0 75.908-65.303 75.908-65.303l6.432-10.225-5.046-10.873-3.827 5.133s-38.625 56.894-62.461 56.894c-11.743 0-4.057-22.337-4.057-22.337s28.835-9.548 45.424-33.282c0 0 10.863-13.59 10.863-28.117.001 0 1.302-22.38-18.856-22.38zm-20.818 34.542c5.777-9.327 13.398-15.069 17.023-12.824s3.473 12.147-2.834 21.69c-10.262 15.536-28.435 22.692-28.435 22.692 2.355-10.263 8.469-22.23 14.246-31.558z"/><path d="m384.246 104.359c19.065-48.399 10.511-81.445-13.827-81.445s-51.225 38.39-63.643 85.992c-7.756 29.736-9.998 73.469-4.654 102.109l.889 3.863s7.644 46.592 38.463 46.592c14.803 0 17.472-8.007 17.472-8.007-31.667-9.95-33.984-51.935-33.984-51.935s32.198-28.412 59.284-97.169zm-58.373 73.331c-1.034-17.872 5.856-64.492 11.95-83.232 7.244-22.284 19.502-41.375 26.164-39.365s4.164 24.718-1.81 47.614c-14.369 55.077-36.304 74.983-36.304 74.983zm-219.115-47.469c0-14.162-8.338-26.079-8.338-26.079s-7.41-12.105-21.503-12.105c-23.003 0-58.093 25.035-66.584 31.354 0 0-1.832 1.24-1.79 3.604l-4.185 203.804c-.065 3.232.535 7.302 7.911 6.261l15.021-2.92c4.424-.866 6.743-4.293 6.709-7.889l-.688-72.96c0 .001 73.447-60.809 73.447-123.07zm-66.388 86.46.631-90.668s34.223-19.321 34.223 18.816c0 40.79-34.854 71.852-34.854 71.852z"/></g><path d="m186.53 177.386-4.409 19.686s23.849-42.104 48.368-35.509l-24.487 39.42s-24.061-12.201-29.886 25.975l-9.298 60.024c-.608 3.931-2.914 7.342-8.18 8.658l-10.709 2.286c-3.89.831-6.549-1.701-5.906-5.627l18.177-110.997.137-.844c.076-.463.502-.966.947-1.116l.809-.275 19.182-6.491c3.769-1.274 6.548-.793 5.936 1.792a118.374 118.374 0 0 0 -.681 3.018m-23.068-32.017c.7-2.53.891-4.378.938-4.494-10.91 7.564-17.013 3.395-17.013 3.395s-26.648 35.161-36.932 89.452c0 0-5.949 27.26-7.583 39.525-9.313-24.605-9.25-59.339-8.891-69.969.12-3.531-3.281-2.649-3.281-2.649l-23.87 5.884-.906.543s.29 42.071 19.513 98.694c0 0 1.407 4.393 1.132 7.153-1.322 14.133-8.979 52.795-54.46 82.298 0 0-2.159 1.225-2.159 3.148 0 3.657 7.133 3.451 7.133 3.451 12.327 0 42.329-25.776 54.993-50.377 14.077-27.346 28.535-56.771 40.685-110.122 11.72-51.46 19.238-68.61 23.8-78.898l4.943-11.145c.003.001.896-1.992 1.958-5.889zm105.631 2.669c-28.607 0-67.171 65.243-67.171 100.591 0 4.041.206 29.899 22.79 29.899 30.385 0 75.908-65.302 75.908-65.302l6.432-10.226-5.046-10.873-3.827 5.133s-38.625 56.894-62.46 56.894c-11.744 0-4.058-22.337-4.058-22.337s28.836-9.549 45.425-33.282c0 0 10.862-13.59 10.862-28.117 0 0 1.302-22.38-18.855-22.38zm-20.82 34.543c5.777-9.327 13.398-15.069 17.024-12.825 3.624 2.245 3.471 12.147-2.834 21.691-10.263 15.535-28.434 22.691-28.434 22.691 2.355-10.263 8.467-22.23 14.244-31.557z" fill="#f5d54c"/><path d="m379.892 100.788c19.065-48.398 10.511-81.445-13.827-81.445s-51.225 38.391-63.642 85.992c-7.757 29.736-9.999 73.47-4.655 102.108l.89 3.863s7.644 46.594 38.462 46.594c14.803 0 17.473-8.009 17.473-8.009-31.668-9.95-33.985-51.934-33.985-51.934s32.198-28.412 59.284-97.169zm-58.372 73.332c-1.035-17.872 5.856-64.493 11.949-83.233 7.244-22.283 19.502-41.375 26.164-39.365s4.164 24.717-1.81 47.614c-14.37 55.078-36.303 74.984-36.303 74.984zm-219.116-47.47c0-14.162-8.336-26.079-8.336-26.079s-7.41-12.105-21.504-12.105c-23.003 0-58.093 25.035-66.584 31.354 0 0-1.832 1.24-1.79 3.604l-4.186 203.806c-.066 3.232.534 7.3 7.91 6.259l15.021-2.92c4.424-.866 6.743-4.291 6.709-7.889l-.688-72.958c.001 0 73.448-60.81 73.448-123.072zm-66.388 86.461.631-90.668s34.222-19.321 34.222 18.816c0 40.788-34.853 71.852-34.853 71.852z" fill="#f5d54c"/><path d="m129.884 135.223c-2.182-3.139 1.501-8.704 1.501-8.704 4.288-7.592 13.084-11.523 13.084-11.523s-19.266 7.5-21.639 2.647c-3.534-7.223 15.614-13.552 15.614-13.552s-15.145 1.047-15.145-6.83c0-7.343 15.22-4.204 15.22-4.204-10.304-7.166 1.671-7.52 1.671-7.52s-7.179.531-7.179-3.792c0-6.041 14.469-3.497 14.469-3.497s-9.758-3.361-9.758-7.374c0-2.428 3.582-2.327 3.582-2.327 19.52 0 25.394 5.302 25.394 5.302s-11.747-11.386-6.76-14.305c7.774-4.549 18.206 10.871 18.206 10.871s-10.097-17.84-.852-17.84c14.122 0 16.996 19.769 16.996 19.769s.46-5.741 2.472-10.474c0 0 2.523-7.116 11.204-7.116 6.565 0 1.445 8.855 1.445 8.855-1.257 2.511-1.303 3.44-1.303 3.44s5.341-8.683 10.462-6.212c6.021 2.905-.637 13.792-.637 13.792s12.444-13.249 18.589-9.876c5.752 3.157-8.615 14.338-8.615 14.338s15.466-7.268 17.968-1.661c1.979 4.432-9.4 7.47-9.4 7.47s6.338-1.642 11.81-1.642c0 0 9.971-.493 9.666 4.696-.194 3.299-7.569 3.055-7.569 3.055h-1.186c-6.747 0-9.842.792-9.842.792s19.689-.974 19.689 4.315c0 4.331-17.188 4.559-17.188 4.559s20.562-.228 20.562 7.204c0 7.067-29.51 1.814-29.51 1.814s13.844 3.484 14.656 12.784c0 0 .315 3.149-2.519 4.643-3.9 2.058-10.151-2.282-10.151-2.282-3.674-2.551-10.419-5.023-10.419-5.023s18.447 11.08 12.309 19.579c-6.466 8.953-23.213-9.94-23.213-9.94s9.678 23.24-.631 23.24c-11.174 0-15.153-15.709-15.153-15.709s2.443 19.042-9.026 19.042c-10.334 0-5.854-20.849-5.854-20.849s-7.08 25.917-12.614 25.917c-5.801 0-5.098-13.398-5.098-13.398 0-8.734 5.542-15.591 5.542-15.591s-4.527 4.293-11.421 9c0 0-3.759 2.743-7.228 2.743-4.67 0-3.632-6.857-3.632-6.857 1.069-8.855 8.245-13.681 8.245-13.681s-3.968 3.327-18.513 10.744c-5.018 2.558-7.369 2.428-8.301 1.168z" fill="#fff"/><ellipse cx="190.287" cy="98.542" fill="#548141" rx="27.492" ry="17.629"/><ellipse cx="190.585" cy="97.612" fill="#f5d54c" rx="21.376" ry="13.342"/></svg>