<svg clip-rule="evenodd" fill-rule="evenodd" height="297mm" image-rendering="optimizeQuality" shape-rendering="geometricPrecision" text-rendering="geometricPrecision" viewBox="3418.41 9475.91 14148.92 10749.24" width="210mm" xmlns="http://www.w3.org/2000/svg"><path d="m12327.35 13264.49c311.89 0 564.99 252.97 564.99 565.03s-253.1 565.03-564.99 565.03c-312.04 0-565.14-252.97-565.14-565.03s253.1-565.03 565.14-565.03zm0-976.99c241.07 0 436.61 195.55 436.61 436.64 0 241.24-195.54 436.79-436.61 436.79-241.22 0-436.61-195.55-436.61-436.79 0-241.09 195.39-436.64 436.61-436.64zm0-957.96c190.21 0 344.32 154.28 344.32 344.5s-154.11 344.5-344.32 344.5-344.47-154.28-344.47-344.5 154.26-344.5 344.47-344.5zm0-995.12c157.62 0 285.39 127.78 285.39 285.56 0 157.63-127.77 285.41-285.39 285.41-157.77 0-285.54-127.78-285.54-285.41 0-157.78 127.77-285.56 285.54-285.56zm0-858.51c84.98 0 153.96 68.99 153.96 154.13 0 84.98-68.98 153.97-153.96 153.97-85.13 0-154.11-68.99-154.11-153.97 0-85.14 68.98-154.13 154.11-154.13zm0 9403.07c371.58 0 672.96 301.4 672.96 673.16 0 371.61-301.38 673.01-672.96 673.01-371.73 0-673.11-301.4-673.11-673.01 0-371.76 301.38-673.16 673.11-673.16z" fill="#00afef"/><path d="m13672.21 13264.49c311.88 0 564.99 252.97 564.99 565.03s-253.11 565.03-564.99 565.03c-312.04 0-565.14-252.97-565.14-565.03s253.1-565.03 565.14-565.03zm0-976.99c241.07 0 436.61 195.55 436.61 436.64 0 241.24-195.54 436.79-436.61 436.79-241.23 0-436.61-195.55-436.61-436.79 0-241.09 195.38-436.64 436.61-436.64zm0-957.96c190.2 0 344.32 154.28 344.32 344.5s-154.12 344.5-344.32 344.5c-190.21 0-344.48-154.28-344.48-344.5s154.27-344.5 344.48-344.5zm0-995.12c157.62 0 285.38 127.78 285.38 285.56 0 157.63-127.76 285.41-285.38 285.41-157.77 0-285.54-127.78-285.54-285.41 0-157.78 127.77-285.56 285.54-285.56zm0-858.51c84.97 0 153.96 68.99 153.96 154.13 0 84.98-68.99 153.97-153.96 153.97-85.13 0-154.12-68.99-154.12-153.97 0-85.14 68.99-154.13 154.12-154.13zm0 9403.07c371.58 0 672.96 301.4 672.96 673.16 0 371.61-301.38 673.01-672.96 673.01-371.74 0-673.12-301.4-673.12-673.01 0-371.76 301.38-673.16 673.12-673.16z" fill="#00a859"/><path d="m9634.9 13264.49c311.89 0 564.99 252.97 564.99 565.03s-253.1 565.03-564.99 565.03c-312.04 0-565.14-252.97-565.14-565.03s253.1-565.03 565.14-565.03zm0-976.99c241.07 0 436.61 195.55 436.61 436.64 0 241.24-195.54 436.79-436.61 436.79-241.22 0-436.61-195.55-436.61-436.79 0-241.09 195.39-436.64 436.61-436.64zm0-957.96c190.21 0 344.32 154.28 344.32 344.5s-154.11 344.5-344.32 344.5-344.48-154.28-344.48-344.5 154.27-344.5 344.48-344.5zm0-995.12c157.62 0 285.39 127.78 285.39 285.56 0 157.63-127.77 285.41-285.39 285.41-157.77 0-285.54-127.78-285.54-285.41 0-157.78 127.77-285.56 285.54-285.56zm0-858.51c84.98 0 153.96 68.99 153.96 154.13 0 84.98-68.98 153.97-153.96 153.97-85.13 0-154.12-68.99-154.12-153.97 0-85.14 68.99-154.13 154.12-154.13zm0 9403.07c371.58 0 672.96 301.4 672.96 673.16 0 371.61-301.38 673.01-672.96 673.01-371.73 0-673.11-301.4-673.11-673.01 0-371.76 301.38-673.16 673.11-673.16z" fill="#ed3237"/><path d="m10981.58 13264.49c311.89 0 564.99 252.97 564.99 565.03s-253.1 565.03-564.99 565.03c-312.04 0-565.14-252.97-565.14-565.03s253.1-565.03 565.14-565.03zm0-976.99c241.07 0 436.61 195.55 436.61 436.64 0 241.24-195.54 436.79-436.61 436.79-241.22 0-436.76-195.55-436.76-436.79 0-241.09 195.54-436.64 436.76-436.64zm0-957.96c190.06 0 344.33 154.28 344.33 344.5s-154.27 344.5-344.33 344.5c-190.2 0-344.47-154.28-344.47-344.5s154.27-344.5 344.47-344.5zm0-995.12c157.62 0 285.39 127.78 285.39 285.56 0 157.63-127.77 285.41-285.39 285.41-157.77 0-285.54-127.78-285.54-285.41 0-157.78 127.77-285.56 285.54-285.56zm0-858.51c84.98 0 153.97 68.99 153.97 154.13 0 84.98-68.99 153.97-153.97 153.97-85.13 0-154.11-68.99-154.11-153.97 0-85.14 68.98-154.13 154.11-154.13zm-.15 9403.07c371.74 0 673.11 301.4 673.11 673.16 0 371.61-301.37 673.01-673.11 673.01-371.58 0-672.96-301.4-672.96-673.01 0-371.76 301.38-673.16 672.96-673.16z" fill="#ffcc29"/><g fill="#0267b1"><path d="m3418.41 14364.57h1129.08v-796.35h-1129.08zm17.83 3184.88h1099.35v-2983.35h-1099.35zm1312.44 0h1087.48v-1699.67c0-410.06 184.21-629.95 493.22-629.95 392.21 0 445.7 297.16 445.7 832.01v1497.61h1081.52v-1699.67c0-410.06 178.29-629.95 487.29-629.95 392.22 0 445.7 297.16 445.7 832.01v1497.61h931.28c-468.01-91.73-760.6-435.1-760.6-915.51 0-509.18 308.01-839.93 916.79-978.1 215.42-48.9 468.51-73.78 758.99-73.78 101.02 0 202.04 0 309.01 5.94v-172.34c0-285.27-136.67-445.72-362.5-445.72-213.92 0-368.44 160.45-368.44 392.22v53.5h-1051.81c2.83-312.51 113.02-546.14 331.74-704.99-177.09-127.55-414.52-192.1-710.41-192.1-421.92 0-736.87 178.3-1016.17 564.59-142.63-362.53-499.17-564.59-1004.28-564.59-410.04 0-766.59 190.17-944.86 499.2l-11.87-451.67h-1061.17zm10762.56-1854.18c53.48-416 225.82-606.19 552.64-606.19 291.2 0 469.46 208.02 505.12 606.19zm2044.21 891.44h-998.32c-53.5 285.25-213.96 433.83-487.3 433.83-380.33 0-570.48-243.68-570.48-713.17h2062.06c5.92-65.36 5.92-130.73 5.92-196.11 0-1057.83-522.92-1616.45-1521.28-1616.45-992.4 0-1556.93 564.57-1556.93 1592.7 0 1004.35 528.9 1534.25 1533.18 1534.25 903.26 0 1438.08-375.4 1533.15-1035.05zm-5352.54-624.01c0-558.65 184.22-837.96 546.7-837.96 326.85 0 528.89 297.15 528.89 837.96s-207.99 837.95-540.76 837.95c-350.61 0-534.83-285.27-534.83-837.95zm1164.72-1396.6-29.7 404.12c-261.47-332.79-588.32-481.37-1028.05-481.37-265.72 0-495.31 63.12-682.65 183.94 266.4 181.58 375.6 483.29 375.6 933.04v1224.24c0 211.63 4.74 413.77 26.75 606.58 100.09 19.58 207.39 29.6 321.89 29.6 404.09 0 724.99-142.62 944.86-421.95v380.36c0 464.53-172.33 684.42-594.25 684.42-217.8 0-492.64-97.96-596.26-246.07-18.91-24.06-31.08-45.64-40.24-72.26-7.01-20.33-14.52-42.85-14.99-67.96h-1000.52c11.88 635.89 689.34 1034.07 1556.93 1034.07 594.25 0 1057.78-142.64 1378.67-416.01 320.88-273.38 380.32-582.4 380.32-1035.05l2.09-2739.7zm-2422.57 1544.88c5.94 47.55 5.94 95.08 5.94 136.67 0 463.56-172.32 701.29-511.05 701.29-249.58 0-410.04-166.4-410.04-386.29 0-303.09 261.48-457.61 772.52-457.61 47.54 0 95.1 5.94 142.63 5.94z"/><path d="m3635.36 18519.56h251.89l43.86 134.78h154.87l-240.61-653.97h-164.47l-243.36 653.97h150.31zm125.49-371.61h1.83l84.52 258.6h-173.92zm350.72 506.39h139.8v-256.01h147.41c105.54 0 111.17 34.72 111.17 123.97 0 67.32 5.64 101.13 15.23 132.04h157.77v-17.36c-30.3-10.81-30.3-34.57-30.3-130.21 0-121.99-30.61-142.1-86.66-165.7 67.62-21.94 105.54-83.92 105.54-155.81 0-56.5-33.2-184.89-214.73-184.89h-345.23zm139.8-366.12v-174.99h177.72c83.76 0 99.9 51.02 99.9 85.74 0 64.58-36.09 89.25-110.41 89.25zm752-172.25h206.35v-115.6h-555.4v115.6h206.35v538.37h142.7zm727.32-115.6h-502.09v653.97h518.08v-115.74h-378.28v-169.36h332.6v-115.75h-332.6v-137.52h362.29zm31.07 452.64c0 81.17 42.79 218.85 291.94 218.85 59.85 0 269.09-17.52 269.09-214.29 0-117.42-85.43-153.97-178.63-175.75l-166.46-39.14c-28.47-6.4-72.33-17.36-72.33-68.38 0-59.25 64.72-78.28 118.93-78.28 124.58 0 135.85 69.14 139.65 98.38h136.91c-.76-80.26-56.96-211.39-266.05-211.39-221.73 0-262.54 128.39-262.54 201.34 0 143.92 106.6 167.53 216.86 192.2l73.09 16.3c72.34 16.45 123.66 30.15 123.66 81.17 0 69.15-75.08 84.68-142.54 84.68-124.57 0-143.61-69.3-144.52-105.69zm1188.46-40.97h158.83c-29.39 132.04-134.01 143.92-165.38 143.92-97.01 0-198.74-46.45-198.74-224.95 0-167.68 94.12-234.99 195.84-234.99 100.82 0 149.25 81.93 149.25 107.37h142.69c-7.61-90.16-90.46-220.38-299.55-220.38-230.11-.91-333.66 167.68-333.66 346.18 0 229.51 149.24 342.67 313.71 342.67 124.57 0 176.81-59.4 213.05-99.45l14.16 81.93h95.03v-352.57h-285.23zm353.76 242.3h139.8v-256.01h147.26c105.69 0 111.33 34.72 111.33 123.97 0 67.32 5.63 101.13 15.07 132.04h157.93v-17.36c-30.31-10.81-30.31-34.57-30.31-130.21 0-121.99-30.61-142.1-86.65-165.7 67.46-21.94 105.53-83.92 105.53-155.81 0-56.5-33.2-184.89-214.87-184.89h-345.09zm139.8-366.12v-174.99h177.72c83.76 0 99.75 51.02 99.75 85.74 0 64.58-36.09 89.25-110.26 89.25zm932.61-486.44h-146.5l-89.39 132.95h96.09zm-307.01 717.78h251.88l43.71 134.78h155.03l-240.61-653.97h-164.48l-243.35 653.97h150.15zm125.33-371.61h1.98l84.52 258.6h-173.91zm493.42 231.34h300.46v-115.74h-300.46v-147.58h343.25v-115.6h-485.8v653.97h142.55zm503.92-378.92h-142.7v653.97h142.7zm645.55 213.98c-7.62-96.55-90.31-231.34-294.83-231.34-175.9 0-313.72 116.66-313.72 345.26 0 225.86 130.36 343.59 311.89 343.59 171.17 0 268.18-99.45 296.66-241.55h-142.7c-17.05 80.11-72.18 122.91-151.07 122.91-120.91 0-169.34-105.7-169.34-223.12 0-184.89 100.81-228.6 169.34-228.6 117.87 0 139.65 73.71 151.07 112.85zm187.31 305.21h251.88l43.71 134.78h155.03l-240.61-653.97h-164.48l-243.35 653.97h150.15zm125.33-371.61h1.98l84.52 258.6h-173.91zm315.54 305.06c0 81.17 42.8 218.85 291.94 218.85 60 0 269.09-17.52 269.09-214.29 0-117.42-85.43-153.97-178.63-175.75l-166.45-39.14c-28.48-6.4-72.34-17.36-72.34-68.38 0-59.25 64.72-78.28 118.94-78.28 124.57 0 135.84 69.14 139.65 98.38h136.9c-.76-80.26-56.8-211.39-266.04-211.39-221.58 0-262.55 128.39-262.55 201.34 0 143.92 106.6 167.53 216.86 192.2l73.1 16.3c72.33 16.45 123.81 30.15 123.81 81.17 0 69.15-75.23 84.68-142.7 84.68-124.57 0-143.45-69.3-144.52-105.69z" fill-rule="nonzero"/></g></svg>