<svg fill="none" height="798" width="2500" xmlns="http://www.w3.org/2000/svg" viewBox="0 0 166 53"><path d="M0 0h166v53H0z" fill="#3a84c7"/><g fill="#fff"><path d="M158.034 8.103V5.69h1.143c.256 0 .475.033.656.1a.908.908 0 0 1 .419.29.72.72 0 0 1 .146.451.72.72 0 0 1-.146.452.92.92 0 0 1-.419.286c-.181.067-.4.1-.656.1h-.912l.188-.159v.893zm1.958 0l-.744-.875h.447l.753.875zm-1.539-.858l-.188-.17h.899c.268 0 .47-.046.607-.14a.464.464 0 0 0 .209-.404.456.456 0 0 0-.209-.4c-.137-.094-.339-.141-.607-.141h-.899l.188-.173zM4.792 4.022C3 4.022 3 4.917 3 5.812v6.267c0 1.79.896 1.79 1.792 1.79H20.02c1.433 0 1.792 1.194 1.792 1.79v17.008c0 1.433.895 1.791 1.791 1.79l15.23.001c1.433 0 1.791-1.193 1.791-1.79v-5.37c0-2.15-1.161-3.078-1.792-3.582-1.493-1.193-6.27-4.297-9.854-7.162-1.597-1.276-.896-2.685.896-2.685h21.5c1.792 0 2.878.42 4.48 1.79 2.09 1.79 9.853 7.162 9.853 7.162s.896.895.896 1.79v8.057c0 1.432.896 1.79 1.792 1.79H84.52c1.39 0 1.791-.597 1.791-1.79v-7.162c0-1.79-.335-1.79.896-2.685 3.285-2.388 11.646-8.772 15.23-11.637 1.993-1.594 3.583-1.193 3.583 0v20.589c0 1.79.896 2.685 2.687 2.685h39.417c.896 0 1.792-.895 1.792-1.79v-6.267c0-1.054-.896-1.79-1.792-1.79h-25.083c-1.434 0-1.792-.597-1.792-1.79v-6.266c0-2.149.896-2.686 2.688-2.686h24.187c1.433 0 1.792-.895 1.792-1.79V5.813c0-1.184-.896-1.79-1.792-1.79-14.648-.002-42.07-.001-51.48 0h-3.166c-2.687 0-3.36 0-4.479.894-1.493 1.194-6.99 5.015-9.854 7.162-2.688 2.014-2.688 2.014-5.375 0-1.195-.895-5.196-4.117-8.063-6.266-2.866-2.148-4.777-1.79-5.375-1.79zM21.109 47.042l2.214-5.017h1.398l2.221 5.017h-1.476l-1.734-4.322h.559l-1.735 4.322zm1.21-.975l.366-1.046h2.451l.366 1.046zm15.274.975v-5.017h2.293c.459 0 .853.074 1.183.222.334.148.592.363.774.645.181.277.272.607.272.99 0 .377-.09.704-.272.981-.182.272-.44.482-.774.63-.33.144-.724.216-1.183.216h-1.505l.631-.595v1.928zm3.103 0l-1.247-1.828h1.512l1.254 1.828zm-1.684-1.778l-.63-.652H39.8c.297 0 .516-.064.66-.193.148-.13.222-.308.222-.538 0-.234-.074-.416-.222-.545-.144-.128-.363-.193-.66-.193h-1.419l.631-.652zm16.643 1.878c-.397 0-.765-.062-1.104-.186a2.636 2.636 0 0 1-.881-.545 2.558 2.558 0 0 1-.574-.824c-.138-.32-.208-.672-.208-1.054s.07-.73.208-1.046a2.487 2.487 0 0 1 1.462-1.369 3.18 3.18 0 0 1 1.125-.193c.473 0 .896.078 1.269.236.373.158.68.385.924.681l-.903.817a1.742 1.742 0 0 0-.559-.416 1.485 1.485 0 0 0-.659-.143c-.215 0-.41.033-.588.1s-.327.165-.451.294a1.344 1.344 0 0 0-.294.452c-.067.172-.1.367-.1.587 0 .21.033.404.1.58.072.178.17.33.294.46.124.124.272.222.444.293.177.067.37.1.58.1s.416-.033.617-.1c.2-.071.404-.19.61-.358l.795.996a3.258 3.258 0 0 1-.996.473c-.378.11-.748.165-1.111.165zm.853-.824v-1.892h1.254v2.078zm13.706-2.35h2.33v1.06h-2.33zm.1 1.977h2.623v1.097H68.91v-5.017h3.934v1.097h-2.53zm13.66 1.097v-5.017h1.167l2.767 3.34h-.552v-3.34h1.39v5.017h-1.168l-2.766-3.34h.552v3.34zm17.089 0V43.15h-1.54v-1.125h4.493v1.125h-1.534v3.892zm13.73 0v-5.017h1.419v5.017zm12.677 0v-5.017h1.168l2.766 3.34h-.552v-3.34h1.391v5.017h-1.168l-2.767-3.34h.552v3.34zm15.42 0l2.215-5.017h1.397l2.222 5.017h-1.477l-1.734-4.322h.559l-1.734 4.322zm1.211-.975l.366-1.046h2.451l.365 1.046z"/><path clip-rule="evenodd" d="M159 8.7a1.7 1.7 0 1 0 0-3.4 1.7 1.7 0 0 0 0 3.4zm0 .3a2 2 0 1 0 0-4 2 2 0 0 0 0 4z" fill-rule="evenodd"/></g></svg>