<svg height="2500" viewBox="-682.806 -472.715 1677.439 1467.348" width="2500" xmlns="http://www.w3.org/2000/svg" xmlns:xlink="http://www.w3.org/1999/xlink"><path d="m500 5.367a494.634 494.634 0 0 0 -494.633 494.633 494.634 494.634 0 0 0 494.633 494.633 494.634 494.634 0 0 0 494.633-494.633 494.634 494.634 0 0 0 -494.633-494.633zm0 15.697a478.936 478.936 0 0 1 478.936 478.936 478.936 478.936 0 0 1 -478.936 478.936 478.936 478.936 0 0 1 -478.936-478.936 478.936 478.936 0 0 1 478.936-478.936zm0 13.737a465.2 465.2 0 0 0 -465.2 465.199 465.2 465.2 0 0 0 465.2 465.2 465.2 465.2 0 0 0 465.201-465.2 465.2 465.2 0 0 0 -465.201-465.2z" fill="#3e2c56"/><path d="m804.295 500c0 168.058-136.237 304.295-304.295 304.295-168.057 0-304.295-136.237-304.295-304.295s136.238-304.295 304.295-304.295c168.058 0 304.295 136.237 304.295 304.295z" fill="#fff"/><path d="m384.778 238.158 89.765-18.937v564.251l-89.765-24.618zm-138.242 132.562 44.882-60.6 44.883-41.662v460.096l-44.883-36.928-44.882-63.44zm368.686-132.562-89.765-18.937v564.251l89.765-24.618zm138.242 132.562-44.882-60.6-44.882-41.662v460.096l44.882-36.928 44.882-63.44z" fill="#745990"/><path d="m500 209.58a290.42 290.42 0 0 0 -290.42 290.42 290.42 290.42 0 0 0 290.42 290.42 290.42 290.42 0 0 0 290.42-290.42 290.42 290.42 0 0 0 -290.42-290.42zm0 13.875a276.545 276.545 0 0 1 276.545 276.545 276.545 276.545 0 0 1 -276.545 276.545 276.545 276.545 0 0 1 -276.544-276.546 276.545 276.545 0 0 1 276.544-276.544z" fill="#402c4f"/><g fill="#fff"><path d="m257.82 254.618-44.833-45.927-16.272 15.886-9.092-9.314 43.678-42.637 9.092 9.313-16.273 15.885 44.833 45.925zm14.675-59.101c-4.963-6.106-8.22-11.972-9.762-17.598a36.353 36.353 0 0 1 -1.11-12.747c.38-4.341 1.496-8.236 3.348-11.687 2.442-4.61 6.098-8.897 10.97-12.857 8.816-7.165 18.1-10.16 27.847-8.983s18.587 6.645 26.518 16.404c7.869 9.68 11.396 19.385 10.587 29.12-.808 9.737-5.609 18.174-14.398 25.318-8.9 7.234-18.186 10.268-27.858 9.097-9.673-1.167-18.387-6.526-26.142-16.067m12.088-10.506c5.521 6.793 11.277 10.667 17.264 11.621 5.987.955 11.397-.531 16.23-4.46 4.83-3.926 7.38-8.885 7.651-14.884.272-5.994-2.42-12.47-8.076-19.43-5.588-6.874-11.265-10.774-17.03-11.707-5.765-.93-11.145.633-16.14 4.692-4.995 4.061-7.628 9.046-7.902 14.953-.275 5.91 2.395 12.314 8.003 19.215zm55.629-79.185 14.765-4.91 13.23 39.788c2.099 6.315 3.642 10.346 4.628 12.096 1.63 2.797 3.933 4.715 6.907 5.745 2.974 1.034 6.515.867 10.622-.5 4.175-1.388 7.038-3.293 8.586-5.72 1.548-2.426 2.12-4.961 1.718-7.61-.403-2.65-1.569-6.882-3.501-12.693l-13.514-40.642 14.764-4.909 12.823 38.563c2.93 8.814 4.602 15.176 5.016 19.078.414 3.906-.033 7.466-1.341 10.682-1.31 3.217-3.508 6.162-6.599 8.84-3.09 2.676-7.523 4.975-13.3 6.897-6.971 2.317-12.526 3.266-16.667 2.844s-7.687-1.578-10.636-3.471c-2.952-1.891-5.232-4.146-6.838-6.764-2.363-3.886-4.909-9.937-7.64-18.15zm100.561 50.554-8.947-75.923 15.452-1.82 7.423 62.996 38.481-4.535 1.525 12.926zm64.559-43.057c.644-7.841 2.352-14.33 5.133-19.46a36.365 36.365 0 0 1 8.02-9.969c3.28-2.868 6.78-4.909 10.505-6.118 4.954-1.64 10.56-2.203 16.816-1.69 11.323.929 20.097 5.192 26.318 12.788 6.221 7.595 8.818 17.66 7.791 30.194-1.02 12.43-5.19 21.878-12.51 28.345-7.323 6.47-16.626 9.238-27.917 8.312-11.43-.936-20.231-5.174-26.404-12.712-6.173-7.537-8.757-17.435-7.752-29.69m15.998.782c-.715 8.725.758 15.504 4.42 20.336 3.66 4.834 8.594 7.503 14.8 8.013 6.204.508 11.478-1.307 15.824-5.45 4.345-4.139 6.883-10.676 7.616-19.613.725-8.83-.674-15.575-4.19-20.237-3.517-4.661-8.484-7.256-14.898-7.782-6.415-.526-11.766 1.25-16.052 5.324-4.288 4.077-6.793 10.546-7.52 19.409zm93.929-25.763 14.494 5.658-15.25 39.058c-2.42 6.2-3.81 10.288-4.17 12.262-.534 3.194.012 6.14 1.64 8.834 1.628 2.696 4.458 4.83 8.492 6.404 4.097 1.6 7.515 1.964 10.257 1.086 2.74-.877 4.802-2.461 6.186-4.756 1.383-2.295 3.191-6.296 5.418-12l15.577-39.897 14.493 5.66-14.78 37.855c-3.378 8.654-6.158 14.615-8.333 17.88-2.177 3.268-4.796 5.721-7.858 7.36-3.063 1.637-6.636 2.498-10.724 2.582-4.088.083-8.968-.98-14.637-3.195-6.845-2.672-11.723-5.492-14.64-8.462-2.914-2.971-4.902-6.126-5.962-9.468-1.062-3.34-1.374-6.531-.936-9.572.666-4.498 2.575-10.78 5.722-18.844zm54.464 76.708 13.269 7.38c-2.154 4.708-2.765 8.839-1.833 12.392.933 3.554 3.346 6.68 7.24 9.38 4.127 2.862 7.84 4.146 11.14 3.85 3.3-.294 5.762-1.608 7.382-3.944 1.04-1.498 1.483-3.079 1.335-4.74-.148-1.662-1.047-3.639-2.692-5.934-1.14-1.553-3.912-4.836-8.324-9.845-5.678-6.44-9.038-11.857-10.084-16.247-1.47-6.178-.47-11.77 3.005-16.78 2.235-3.223 5.237-5.605 9.01-7.144 3.772-1.54 7.887-1.854 12.343-.938 4.454.916 9.114 3.058 13.975 6.429 7.939 5.503 12.698 11.4 14.28 17.69s.444 12.432-3.413 18.424l-13.129-8.373c1.724-3.655 2.184-6.824 1.38-9.508s-3.005-5.274-6.606-7.77c-3.714-2.576-7.154-3.826-10.32-3.75-2.035.045-3.622.89-4.766 2.537-1.042 1.505-1.3 3.232-.775 5.18.671 2.48 3.612 6.606 8.825 12.385 5.21 5.778 8.762 10.487 10.654 14.13 1.891 3.644 2.734 7.413 2.53 11.311-.205 3.896-1.7 7.853-4.481 11.865-2.524 3.64-5.895 6.348-10.114 8.124-4.22 1.78-8.71 2.162-13.469 1.15-4.757-1.015-9.89-3.428-15.39-7.242-8.012-5.554-12.87-11.682-14.577-18.384-1.71-6.704-.508-13.914 3.605-21.627zm48.279 64.296 52.781-56.332 41.594 38.973-8.9 9.499-30.24-28.335-11.661 12.444 28.167 26.392-8.9 9.499-28.166-26.392-14.423 15.393 31.332 29.358-8.899 9.497z"/><path d="m138.729 708.324 55.045-36.095 24.762 37.763-9.28 6.086-17.488-26.669-13.121 8.604 15.11 23.042-9.282 6.086-15.11-23.042-23.362 15.32zm58.277 31.653c4.721-4.767 9.396-8.065 14.024-9.887a30.995 30.995 0 0 1 10.705-2.11c3.715-.073 7.119.515 10.214 1.768 4.134 1.648 8.101 4.355 11.905 8.123 6.883 6.816 10.271 14.412 10.165 22.784-.104 8.37-3.93 16.366-11.476 23.984-7.485 7.557-15.39 11.437-23.716 11.642-8.329.206-15.922-3.09-22.785-9.888-6.946-6.88-10.368-14.475-10.262-22.782.104-8.307 3.847-16.185 11.226-23.634m10.014 9.285c-5.252 5.304-8.01 10.538-8.27 15.7-.262 5.164 1.495 9.613 5.267 13.35 3.771 3.735 8.209 5.444 13.318 5.124 5.108-.32 10.351-3.194 15.732-8.627 5.316-5.366 8.104-10.537 8.366-15.509.26-4.973-1.558-9.39-5.457-13.252-3.9-3.864-8.367-5.64-13.4-5.33-5.036.308-10.22 3.157-15.556 8.544zm49.965 45.895c4.355-5.103 8.773-8.74 13.252-10.901a31.014 31.014 0 0 1 10.52-2.896c3.699-.35 7.136-.016 10.316 1.005 4.244 1.337 8.403 3.742 12.474 7.217 7.37 6.288 11.313 13.61 11.83 21.968.515 8.355-2.706 16.611-9.667 24.77-6.903 8.09-14.5 12.544-22.787 13.368-8.29.823-16.107-1.9-23.455-8.17-7.438-6.347-11.414-13.667-11.925-21.958-.512-8.292 2.636-16.427 9.442-24.403m10.676 8.517c-4.845 5.679-7.207 11.103-7.083 16.27.122 5.169 2.203 9.477 6.243 12.923 4.038 3.446 8.59 4.82 13.661 4.122 5.07-.698 10.086-3.954 15.05-9.77 4.902-5.747 7.298-11.109 7.192-16.087-.11-4.979-2.252-9.25-6.426-12.811-4.176-3.564-8.762-5.002-13.758-4.321-4.999.681-9.957 3.906-14.88 9.674zm53.722 73.226 22.563-49.858-17.665-7.995 4.576-10.11 47.417 21.459-4.575 10.11-17.666-7.993-22.564 49.856zm62.795-45.047 25.446 6.467c5.035 1.28 8.737 2.446 11.107 3.497 2.367 1.05 4.359 2.49 5.974 4.32s2.792 4.018 3.53 6.567c.739 2.549.76 5.2.06 7.956-.76 2.986-2.258 5.524-4.495 7.608-2.237 2.086-4.886 3.404-7.945 3.952 3.572 2.114 6.05 4.8 7.43 8.055 1.382 3.256 1.604 6.728.667 10.413-.739 2.904-2.13 5.554-4.172 7.956s-4.436 4.127-7.18 5.176c-2.747 1.048-5.874 1.326-9.383.835-2.2-.312-7.4-1.48-15.602-3.502l-21.653-5.505zm3.712 39.246-4.336 17.062 11.905 3.026c4.634 1.178 7.608 1.795 8.92 1.85 2 .138 3.773-.315 5.317-1.357 1.543-1.044 2.606-2.699 3.181-4.963.488-1.914.437-3.656-.152-5.228-.587-1.57-1.68-2.881-3.276-3.937-1.6-1.055-5.324-2.326-11.173-3.813zm6.443-25.345-3.74 14.712 8.43 2.143c5.01 1.274 8.14 1.993 9.394 2.158 2.267.298 4.191-.021 5.77-.96 1.58-.938 2.632-2.432 3.154-4.488.5-1.966.362-3.705-.412-5.21-.772-1.504-2.197-2.66-4.274-3.467-1.238-.468-4.882-1.472-10.937-3.01zm103.19 74.632-14.16-1.817-3.727-15.527-26.171-3.36-7.248 14.117-14.109-1.812 33.438-62.07 14.177 1.82zm-20.795-28.907-5.985-25.462-11.892 23.166zm38.7 27.697-7.031-64.806 13.19-1.431 5.833 53.772 32.847-3.563 1.197 11.034zm63.921-9.698-16.27-63.123 12.846-3.311 13.5 52.377 31.995-8.248 2.77 10.748zm156.041-63.128-38.422-52.66 10.716-7.82 31.881 43.694 26.69-19.474 6.543 8.966zm4.191-88.49 9.17-9.588 25.837 24.713c4.101 3.922 6.872 6.346 8.311 7.27 2.345 1.46 4.844 1.986 7.498 1.577 2.654-.406 5.256-1.945 7.808-4.613 2.592-2.71 3.99-5.287 4.189-7.733.2-2.447-.379-4.587-1.74-6.423-1.36-1.836-3.927-4.56-7.7-8.17l-26.394-25.243 9.17-9.588 25.043 23.952c5.724 5.476 9.521 9.603 11.39 12.38 1.868 2.778 2.95 5.64 3.248 8.585.295 2.947-.187 6.044-1.45 9.294-1.261 3.25-3.686 6.75-7.273 10.501-4.33 4.528-8.139 7.457-11.428 8.79-3.29 1.335-6.422 1.877-9.401 1.626-2.979-.249-5.596-1.039-7.852-2.371-3.329-1.987-7.662-5.533-12.995-10.634zm43.73-45.058 14.408-21.948c2.851-4.343 5.16-7.463 6.926-9.36 1.764-1.897 3.774-3.31 6.03-4.24 2.257-.931 4.71-1.33 7.36-1.198 2.65.134 5.165.977 7.54 2.538 2.577 1.69 4.487 3.935 5.73 6.728 1.242 2.795 1.624 5.729 1.146 8.8 3.162-2.688 6.508-4.155 10.037-4.4 3.527-.245 6.882.677 10.061 2.764 2.505 1.644 4.558 3.824 6.162 6.537 1.605 2.713 2.456 5.54 2.552 8.476.096 2.938-.66 5.985-2.268 9.143-1.012 1.976-3.811 6.513-8.397 13.607l-12.261 18.677zm16.451-5.07 12.69 8.33 4.773-7.268c2.837-4.323 4.538-7.047 5.103-8.18 1.021-2.045 1.346-3.968.973-5.767-.372-1.799-1.441-3.28-3.215-4.445-1.696-1.114-3.384-1.55-5.058-1.308-1.676.24-3.232 1.21-4.672 2.91-.846 1.019-2.983 4.136-6.412 9.358zm21.862 14.352 14.717 9.66 6.741-10.268c2.624-3.998 4.177-6.607 4.657-7.83.78-1.845.931-3.668.448-5.468-.482-1.8-1.7-3.344-3.653-4.626-1.652-1.084-3.315-1.604-4.991-1.56-1.677.044-3.273.648-4.792 1.814-1.518 1.169-3.934 4.276-7.246 9.32zm-144.621 85.913a34.146 34.146 0 0 0 -34.146 34.146 34.146 34.146 0 0 0 34.146 34.146 34.146 34.146 0 0 0 34.146-34.146 34.146 34.146 0 0 0 -.81-7.287l-13.792 3.775a20.109 20.778 0 0 1 .397 4.015 20.109 20.778 0 0 1 -20.108 20.777 20.109 20.778 0 0 1 -20.11-20.777 20.109 20.778 0 0 1 20.11-20.78 20.109 20.778 0 0 1 15.206 7.22l10.434-9.63a34.146 34.146 0 0 0 -25.473-11.46z"/><path d="m69.154 443.1v12.343h10.547v54.348h13.054v-66.691zm62.101 0a26.28 23.183 0 0 0 -26.28 23.184 26.28 23.183 0 0 0 26.28 23.181 26.28 23.183 0 0 0 .507-.014l-14.85 20.34h15.612l20.049-29.987a26.28 23.183 0 0 0 4.961-13.52 26.28 23.183 0 0 0 -26.279-23.184zm-.168 12.053a11.382 11.382 0 0 1 11.382 11.382 11.382 11.382 0 0 1 -11.382 11.381 11.382 11.382 0 0 1 -11.383-11.38 11.382 11.382 0 0 1 11.383-11.383z"/><path d="m930.846 443.053h-50.215v11.084h32.138l-27.117 55.702h13.726zm-105.134.094v10.906h25.51l-16.932 20.157 2.653 2.459c3.456-1.11 7.049-2.113 10.658-2.207 7.975 0 13.184 5.407 13.184 12.18 0 6.774-5.376 11.514-13.351 11.514-7.855-.004-14.097-4.505-14.262-11.174l-11.719 6.075c3.328 9.924 13.999 16.772 26.148 16.782 15.03 0 27.213-10.348 27.213-23.113-.013-10.139-7.803-19.086-19.213-22.067l17.488-21.512z" fill-rule="evenodd"/></g><g transform="matrix(1.18358 0 0 -1.18358 1094.263 976.05)"><path d="m-676.406 472.8v-185.784c.484-41.134 22.573-58.894 74.96-69.763 87.984-18.254 91.445-36.872 99.357-45.067 7.912 8.195 11.372 26.813 99.356 45.067 52.387 10.869 74.478 28.629 74.961 69.763v185.784z" fill="#e60746" fill-rule="evenodd"/><path d="m-676.2 596.8c115.959 13.295 233.109 12.297 351.2 0v-124h-351.2z" fill="#745990"/><g fill="#e1b57a"><g><path d="m-638.723 580.725c-6.866-6.14-11.791-12.658-11.774-21.225.02-9.487 6.786-18.032 8.397-27.531.249-1.467.463-4.159.388-5.92h6.437c-.075 1.761.14 4.453.39 5.92 1.61 9.5 9.082 17.71 8.394 27.531-.743 10.613-4.997 14.385-12.232 21.225zm-27.111-26.548c-1.74.011-3.434-.211-4.982-.719-5.609-2.263-6.14-10.815-4.543-15.49 1.999-5.853 11.237-9.905 18.086-10.302-1.357 2.346-4.606 9.045-1.083 8.78 3.985-.301 6.794-6.243 8.178-10.398h6.605c-.063 1.571-.097 4.31-.432 6-.789 3.987-3.314 12.596-7.697 16.48-3.285 2.912-8.913 5.616-14.132 5.649zm54.68 0c-5.219-.033-10.845-2.737-14.13-5.649-4.383-3.884-6.91-12.493-7.699-16.48-.316-1.598-.455-4.31-.562-6h6.337c1.334 4.157 4.544 10.093 8.577 10.397 3.522.266.275-6.433-1.082-8.78 6.849.398 16.086 4.45 18.085 10.304 1.596 4.674 1.067 13.226-4.542 15.49-1.548.507-3.243.73-4.983.718zm-38.018-42.907c-2.965-4.33-9.4-8.292-14.428-11.598 6.073-.348 11.92 1.623 17.219 3.5.112-6.131 1.612-10.783 7.566-15.252 6.413 4.34 8.433 11.49 8.209 15.252 5.298-1.877 11.146-3.848 17.219-3.5-5.028 3.306-11.464 7.267-14.428 11.598z" fill-rule="evenodd"/><path d="m-650.74 523.589h24.493c3.082 0 5.564-2.085 5.564-4.674 0-2.59-2.482-4.674-5.564-4.674h-24.493c-3.083 0-5.564 2.084-5.564 4.674s2.481 4.674 5.564 4.674z"/><path d="m-579.011 603.11c-2.965-4.331-9.4-8.292-14.429-11.598 6.073-.348 11.92 1.623 17.22 3.5.11-6.131 1.611-10.783 7.565-15.252 6.414 4.34 8.433 11.49 8.21 15.252 5.298-1.877 11.146-3.848 17.218-3.5-5.028 3.306-11.463 7.267-14.428 11.598zm10.448-104.945c-6.866-6.14-11.79-12.659-11.774-21.225.002-1.121.1-1.767.27-2.865h23.715c.078.941.09 1.895.022 2.865-.744 10.612-4.997 14.385-12.233 21.225z" fill-rule="evenodd"/></g><g><path d="m-502.319 580.725c-6.865-6.14-11.79-12.658-11.773-21.225.02-9.487 6.786-18.032 8.397-27.531.248-1.467.463-4.159.387-5.92h6.438c-.076 1.761.14 4.453.389 5.92 1.61 9.5 9.083 17.71 8.395 27.531-.743 10.613-4.997 14.385-12.233 21.225zm-27.11-26.548c-1.74.011-3.434-.211-4.982-.719-5.61-2.263-6.14-10.815-4.544-15.49 2-5.853 11.238-9.905 18.086-10.302-1.357 2.346-4.605 9.045-1.083 8.78 3.985-.301 6.795-6.243 8.179-10.398h6.604c-.062 1.571-.097 4.31-.431 6-.789 3.987-3.314 12.596-7.697 16.48-3.286 2.912-8.913 5.616-14.133 5.649zm54.68 0c-5.22-.033-10.845-2.737-14.13-5.649-4.383-3.884-6.91-12.493-7.7-16.48-.315-1.598-.454-4.31-.562-6h6.338c1.334 4.157 4.544 10.093 8.576 10.397 3.523.266.276-6.433-1.08-8.78 6.847.398 16.085 4.45 18.084 10.304 1.596 4.674 1.067 13.226-4.543 15.49-1.547.507-3.242.73-4.982.718zm-38.018-42.907c-2.965-4.33-9.4-8.292-14.428-11.598 6.072-.348 11.92 1.623 17.219 3.5.111-6.131 1.612-10.783 7.565-15.252 6.414 4.34 8.434 11.49 8.21 15.252 5.298-1.877 11.146-3.848 17.219-3.5-5.029 3.306-11.464 7.267-14.429 11.598z" fill-rule="evenodd"/><path d="m-514.335 523.589h24.493c3.082 0 5.564-2.085 5.564-4.674 0-2.59-2.482-4.674-5.564-4.674h-24.493c-3.083 0-5.564 2.084-5.564 4.674s2.481 4.674 5.564 4.674z"/></g><g><path d="m-365.454 580.725c6.865-6.14 11.79-12.658 11.773-21.225-.019-9.487-6.786-18.032-8.397-27.531-.248-1.467-.463-4.159-.387-5.92h-6.438c.076 1.761-.14 4.453-.389 5.92-1.61 9.5-9.083 17.71-8.395 27.531.743 10.613 4.997 14.385 12.233 21.225zm27.11-26.548c1.74.011 3.434-.211 4.982-.719 5.61-2.263 6.14-10.815 4.544-15.49-2-5.853-11.238-9.905-18.086-10.302 1.357 2.346 4.605 9.045 1.083 8.78-3.985-.301-6.795-6.243-8.178-10.398h-6.605c.063 1.571.097 4.31.431 6 .789 3.987 3.314 12.596 7.697 16.48 3.286 2.912 8.913 5.616 14.133 5.649zm-54.68 0c5.22-.033 10.845-2.737 14.13-5.649 4.384-3.884 6.91-12.493 7.7-16.48.316-1.598.455-4.31.562-6h-6.338c-1.333 4.157-4.543 10.093-8.576 10.397-3.523.266-.276-6.433 1.08-8.78-6.847.398-16.085 4.45-18.083 10.304-1.597 4.674-1.068 13.226 4.542 15.49 1.547.507 3.243.73 4.983.718zm38.018-42.907c2.965-4.33 9.4-8.292 14.428-11.598-6.072-.348-11.92 1.623-17.219 3.5-.111-6.131-1.612-10.783-7.565-15.252-6.414 4.34-8.434 11.49-8.21 15.252-5.298-1.877-11.146-3.848-17.218-3.5 5.028 3.306 11.463 7.267 14.428 11.598z" fill-rule="evenodd"/><path d="m-353.438 523.589h-24.493c-3.082 0-5.564-2.085-5.564-4.674 0-2.59 2.482-4.674 5.564-4.674h24.493c3.083 0 5.564 2.084 5.564 4.674s-2.481 4.674-5.563 4.674z"/><path d="m-425.166 603.11c2.965-4.331 9.4-8.292 14.428-11.598-6.072-.348-11.92 1.623-17.219 3.5-.111-6.131-1.612-10.783-7.565-15.252-6.414 4.34-8.434 11.49-8.21 15.252-5.298-1.877-11.146-3.848-17.219-3.5 5.028 3.306 11.464 7.267 14.429 11.598zm-10.448-104.945c6.865-6.14 11.79-12.659 11.773-21.225-.002-1.121-.099-1.767-.27-2.865h-23.715c-.078.941-.09 1.895-.021 2.865.743 10.612 4.997 14.385 12.233 21.225z" fill-rule="evenodd"/></g><path d="m-498.249 472v-296.8h-7.68v296.8z"/><path d="m-677.689 476.8h351.2v-12h-351.2z"/></g><path d="m-628.649 442.769v-92.364c-.888.835-2.14 1.215-3.393 1.197-1.252-.02-2.504-.438-3.393-1.197v52.2h-5.264v-10.438h-5.265v10.438h-5.265v-10.438h-5.264v10.438h-5.265v-10.438h-5.264v10.438h-5.266v-125.017h47.134l-.065 23.273c-.396 6.654 1.15 12.661 4.088 17.01 2.178 3.225 5.142 5.533 8.615 6.476a6.009 6.009 0 0 0 -.99 3.073l-.001.008v2.874h9.386v-2.875a5.687 5.687 0 0 0 -1.006-3.088c3.43-.958 6.288-3.297 8.394-6.556 2.799-4.33 4.327-10.282 4.327-16.922v-23.273h48.918v125.017h-5.265v-10.438h-5.264v10.438h-5.265v-10.438h-5.265v10.438h-5.264v-10.438h-5.265v10.438h-5.264v-52.2c-1.762 1.884-5.17 1.638-6.696 0v92.364h-5.067v-14.65h-4.569v14.65h-4.567v-14.65h-4.568v14.65h-4.569v-14.65h-4.568v14.65h-4.567v-14.65h-4.57v14.65zm16.187-113.503v-1.813a5.05 5.05 0 0 1 1.046-2.856c.881.16 1.79.24 2.726.222l.004.003.01-.002c.835 0 1.642-.081 2.425-.226.02.024.047.042.067.067a4.72 4.72 0 0 1 1.02 2.786v1.819zm3.767-5.478c-4.757.094-8.78-2.363-11.569-6.493-2.789-4.129-4.304-9.932-3.913-16.403l.003-.028.065-23.277h2.402v22.4c0 8.583 3.555 20.957 12.894 21.168 8.746.196 12.894-12.076 12.894-21.249v-22.319h2.468v23.274c0 6.482-1.504 12.254-4.161 16.364s-6.414 6.562-11.074 6.562z" fill="#fff" fill-rule="evenodd"/><g fill="#e60746"><g transform="matrix(1.0087 0 0 1 4.235 0)"><path id="a" d="m-668.425 337.288c1.04 0 1.879-.877 1.879-1.967v-4.433h-3.758v4.433c0 1.09.838 1.967 1.879 1.967z"/><use id="b" height="660" transform="translate(4.737)" width="600" xlink:href="#a"/><use id="c" height="660" transform="translate(9.474)" width="600" xlink:href="#a"/><use id="d" height="660" transform="translate(9.474)" width="600" xlink:href="#b"/><use id="e" height="660" transform="translate(18.948)" width="600" xlink:href="#a"/><use id="f" height="660" transform="translate(18.948)" width="600" xlink:href="#b"/><use id="g" height="660" transform="translate(18.948)" width="600" xlink:href="#c"/><use id="h" height="660" transform="translate(18.948)" width="600" xlink:href="#d"/><use id="i" height="660" transform="translate(37.897)" width="600" xlink:href="#a"/><use id="j" height="660" transform="translate(37.897)" width="600" xlink:href="#b"/><use id="k" height="660" transform="translate(37.897)" width="600" xlink:href="#c"/><use id="l" height="660" transform="translate(37.897)" width="600" xlink:href="#d"/><use id="m" height="660" transform="translate(37.897)" width="600" xlink:href="#e"/><use id="n" height="660" transform="translate(37.897)" width="600" xlink:href="#f"/><use id="o" height="660" transform="translate(37.897)" width="600" xlink:href="#g"/><use id="p" height="660" transform="translate(37.897)" width="600" xlink:href="#h"/><g transform="translate(37.897)"><use height="660" width="600" xlink:href="#i"/><use height="660" width="600" xlink:href="#j"/><use height="660" width="600" xlink:href="#k"/><use height="660" width="600" xlink:href="#l"/></g><use height="660" transform="translate(42.634)" width="600" xlink:href="#m"/><use height="660" transform="translate(47.371)" width="600" xlink:href="#n"/><use height="660" transform="translate(52.108)" width="600" xlink:href="#o"/><use height="660" transform="translate(23.686)" width="600" xlink:href="#p"/><use height="660" transform="translate(104.216)" width="600" xlink:href="#a"/><use height="660" transform="translate(108.953)" width="600" xlink:href="#b"/><use height="660" transform="translate(113.69)" width="600" xlink:href="#c"/></g><g transform="matrix(1.0087 0 0 1 4.235 0)"><use height="660" transform="matrix(1.60231 0 0 1.32288 440.238 -97.559)" width="600" xlink:href="#a"/><use height="660" transform="matrix(1.60231 0 0 1.32288 488.086 -97.559)" width="600" xlink:href="#a"/></g><g transform="matrix(1.0087 0 0 1 4.286 0)"><use height="660" transform="matrix(2.04927 0 0 1.96865 708.096 -286.32)" width="600" xlink:href="#a"/><use height="660" transform="matrix(2.04927 0 0 1.96865 725.696 -286.32)" width="600" xlink:href="#a"/></g><g transform="matrix(1.0087 0 0 1 96.653 0)"><use height="660" transform="matrix(2.04927 0 0 1.96865 708.096 -286.32)" width="600" xlink:href="#a"/><use height="660" transform="matrix(2.04927 0 0 1.96865 725.696 -286.32)" width="600" xlink:href="#a"/></g><g transform="matrix(1.0087 0 0 1 50.725 32)"><use height="660" transform="matrix(2.04927 0 0 1.96865 708.096 -286.32)" width="600" xlink:href="#a"/><use height="660" transform="matrix(2.04927 0 0 1.96865 725.696 -286.32)" width="600" xlink:href="#a"/></g><path d="m-622.217 378.868h7.178v-18.81h-7.178zm21.571 0h7.178v-18.81h-7.178z"/></g><path d="m-519.1 304a26.9 28.4 0 0 1 -26.9-28.4 26.9 28.4 0 0 1 26.9-28.4 26.9 28.4 0 0 1 26.9 28.4 26.9 28.4 0 0 1 -26.9 28.4zm1.1-6.2a24 24 0 0 0 24-24 24 24 0 0 0 -24-24 24 24 0 0 0 -24 24 24 24 0 0 0 24 24z" fill="#e1b57a"/><path d="m-517.977 293.1c-.283-.008-.57-.031-.862-.058-2.721-.595-7.939-1.724-8.441-3.578 2.303-.134 7.014-5.473 2.497-2.76-1.183 1.64-8.567 3.606-4.002.335 1.477-1.787 8.647-4.554 2.352-3.33-2.822.83-5.743 5.954-8.252 4.747.936-4.369 5.722-6.956 10.413-6.601.415-2.482-4.46-.726-4.95-3.374-.29-.84.064-3.642-2.542-2.454-1.122-1.398 3.86-2.935.146-3.008-1.112-1.6.39-3.632-2.483-3.126 1.662-2.722-4.406.352-1.898-2.95 2.378-1.692-3.524-5.538.306-4.761 1.882 1.082 1.553 8.476 2.395 3.578 2.041-2.181-1.886-3.85 0-6.192-.269-.776-.508-1.155-.715-1.3.418.03.25-.17.642-.307l.044-.978c.016-.179-.226-.215-.219-.395.01-.269.68-.191.701-.73.01-.27-.401-1.032-.394-1.212.014-.36.604-.204.628-.833.007-.18-.416-1.047-.41-1.226.011-.27.178-.419.176-.6l.03-.54c-.082-.008-.113-.099-.293-.116a.788.788 0 0 0 -.54.146c-.033-.189-.063-.372-.117-.6 3.276-2.56-.907-7.214.818-10.821 1.422-2.842-3.292-.761-.467-3.74 2.581.194 2.325 3.187 2.073 4.791 3.522-.877 1.152-7.677 5.594-5.623.848-1.757-2.111-4.522-1.387-1.27-1.334-.952-5.592 2.407-3.082-.57 2.179-1.86 2.302-2.61-.686-3.038-3.889-.47-5.031-2.515-8.413-3.972-3.476-.593-7.814-2.586-7.17-6.455-.027-4.666-1.159-9.345-2.454-13.89.047-2.732.608-6.904 2.716-5.9 2.916-.452 4.585 6.026 2.746 8.66.154 4.456 1.375 9.588 3.695 13.247 4.44 3.084 10.886.433 14.853 3.929 2.463-.302 6.005-2.08 6.426 2 2.842-.708-.642-4.305 3.505-4.746 4.055-2.14 5.99.652 4.557 4.017-.09 3.36 2.896 2.847 1.373-.585-1.513-2.605 3.834-6.337 2.906-4.63-2.717 2.545 1.553 2.543 2.79 2.834-2.68 2.583.144 3.151 1.68 1.066 1.314.684 2.222 1.645 3.066 2.556.03-.104.04-.206.044-.307l.365.044c.527.411 1.317.847 1.767.89.18.018.375-.06.555-.043-.457.136-1.207.514-1.387.497a2.59 2.59 0 0 1 -.424-.117c1.212 1.196 2.538 2.03 4.966 1.49 2.57-1.198-4.533-3.125.511-2.352 1.312 1.29 2.637 8.197 2.731 4.002.246.387.863.553 1.198 1.008-.007.18-.008.448-.015.628s.346.391.526.409c.27.026 1.008-.445 1.022-.804.021-.538-1.215-1.385-1.212-1.475.007-.18.388-.77.394-.95.007-.179-.076-.1-.073-.189-.086-.098-.082-.1-.262-.117-.313-.03-1.324.282-1.607.833-1.128-2.174 2.382-2.163 1.344-3.447 1.236 1.255 1.676 2.512 3.71 1.621 3.467.913 1.294 5.013 3.87 7.332-1.615.213-2.701 4.351-1.037 4.279.861 1.667 3.399-6.261 3.271-1.285 3.398 1.29.383-4.57 3.754-4.236.406-.144.691-.356.89-.613.048.142.09.263.088.321-.007.18-.113.173-.117.263-.28.243-.815.281-.832.73.19.357.387.405.628.424.08.006.173.006.263.014 1.261.122 1.455-.387 1.49-1.285.034-.898-.288-1.652-.614-2.585l-.365-.044c-.036.045-.068.075-.102.117-.037-1.568-.303-3.1 2.293-2.643.023.135.083.267.146.409-.465.315-1.086.087-1.11.715-.018.45.606.588.876.614.45.043.84-.275 1.11-.249.18.018.712.162.978.278.177.107.428.308.512.497-.004.09-.01.366.073.554 0 0 .185.188.365.205.45.043.91-.446.92-.716l.058-1.343c-.26-.296-.52-.509-.7-.526-.181-.018-.726.12-.906.102-.18-.017-.174-.2-.35-.307.377-.414 1.184-.61 1.211-1.329.007-.18-.24-.565-.233-.744.007-.18.387-.77.394-.95s-.234-.842-.307-1.3c-.176-.107-.345-.216-.525-.233-.36-.035-.494.596-.497.686-.007.18.095.273.088.453-.27-.026-.715-.164-.906.088a1.768 1.768 0 0 0 -.204.204c-.238-.383-.754-.17-1.432 1.387-4.143-2.143-2.757 3.95-4.688 5.098-1.22 1.12-2.046 2.98-3.49.51.547-1.251 2.108-5.558 1.957-1.445 4.495-.436.217-7.936 5.973-6.82 1.1-2.53 4.923.604 6.353-2.337 2.974 1.44 2.875.176 2.76-1.987 1.764 5.556 1.579-3.13 2.527-4.732.768-4.333-.237-9.036-1.197-13.348-.09-2.37-5.933-5.583-.687-5.755 4.323-.202 6.195 3.998 6.047 7.317-.472 5.423 1.418 10.932 3.46 16.051-.416 3.79-3.267 6.918-1.416 10.851-.056 4.205 3.488 7.086 1.198 10.954 1.692 5.181 1.01-1.927 3.023-3.052-1.888-2.556-2.129-5.658-2.892-8.632-1.38-2.374 1.237-7.371.263-2.176-.217 2.268 1.758 4.4 2.322 6.718 1.931-2.254-2.588-8.42.584-10.136 2.434 1.428.404 3.64 2.381 6.003-.544 3.449 2.257 7.314-.409 10.676 1.898 3.574-2.267 5.981-1.986 9.376-1.335 3.736-5.863 6.035-7.974 9.406-3.905 1.719-7.93 3.321-12.37 1.957-3.906 2.177-7.832-2.23-11.465-.394-3.88-.108-6.941-3.146-10.925-2.38-4.236-2.575-9.144 1.4-13.612.686-3.105-.459-8.863-.272-6.674 4.03-2.842.163-2.306 3.012-5.813 2.483-2.765.775-1.625 4.583.044 1.227 2.856-.373 5.548-.322 8.442.803 1.983-.678 8.626-.555 3.403.555-1.846 2.704 7.23-2.728 4.104 1.636-3.389.887-1.1 3.255.759.497.327 4.634-4.714 8.952-7.463 11.304-3.08 1.725 3.7.306.847 3.403-2.372 3.173-5.688 5.22-9.931 5.111zm4.235-7.098c.19.019.193.024.278-.058.238-.067 1.012-.724 1.022-.993a.452.452 0 0 0 -.409-.497c-.396-.038-.637.488-.774.745-.283.063-.555-.058-.862-.087-.084.082-.197.17-.204.35-.014.36.904.536.95.54zm-1.402-4.556c.18.017.763-.382 1.14-.526.367-.145.84-.183 1.27-.321.286-.153 2.298-1.402 2.322-2.03.014-.36-.296-.39-.35-.395-.18-.017-.695.292-1.023.35-.511.132-1.083-.107-1.562.118-.618.3-1.141 1.06-1.081 1.606-.223.159-1.041.534-1.052.803-.007.18.147.376.336.395zm-17.993-1.023c-.928-.09-1.793-1.602-1.928-2.336-.061-.277-.446-.5-.686-.614.16-.165.448-.31.628-.292.189.018.51.141.686.248.542.503 1.213 1.646 1.84 1.797.01 0 1.128.194 1.11.642-.007.18-.017.181-.102.263-.526.04-1.359.31-1.548.292zm10.968-4.892c.613.059.738-.901.745-1.08.007-.18-.124-.566-.117-.746s.154-.346.161-.526c.01-.269-.296-.389-.35-.394-.595-.057-.844 1.006-.848 1.095-.007.18.168.566.161.745-.01.27-.084.52-.073.701.06.096.132.187.321.205zm-12.779-.862c-.18-.017-.506-.326-.584-.423-.128-.193-.124-.554-.234-.745-.16-.286-.46-.678-.599-1.052.166-.074.346-.134.526-.117.19.018.306.113.35.117.44.583.828 1.251 1.33 1.84-.247.067-.6.398-.789.38zm4.352-4.44c.298.029.395-.321.395-.321.01-.27-.139-.39-.132-.57.014-.359.742-.28.76-.73.007-.18-.069-.267-.146-.365-.438-.132-1.192-.394-1.622-.526-.457.136-.188.428-.306.687-.124.168-.27.157-.41.233-.206-.02-.408.6-.408.6-.01.268.06.813.555.86.18.018.462-.323.643-.306.18.018.482.42.671.438zm12.648-3.388c.261.025.701-1.095.701-1.095.017-.45-.098-1.002-.467-1.037a.387.387 0 0 0 -.365.146c-.025.178.034.275 0 .452-.043.177-.189.432-.322.6-.027 0-.033-.007-.043.262-.007.18.262.65.496.672zm-13.13-1.986c.18.017.15.023.234-.059.34-.147.21-.526.292-.788.356-.326 1.14.382 1.169-.336.024-.629-1.889-1.266-1.943-1.27a.893.893 0 0 0 -.993.802c-.014.36.62 1.59 1.241 1.65zm14.868-1.081c.351.034.603-.213.613-.482.014-.36-.562-1.405-.832-1.431-.19-.018-.286.06-.365.233l-.044 1.154c-.014.36.583.522.628.526zm-18.972-4.571c-.094-.03-.179-.275-.248-.92-2.17-.836 1.273-2.753-1.694-2.527.44-2.29 2.19-3.516-1.417-3.023-1.864-2.507 3.154.892 1.46-2.001 1.984-2.302-3.048-8.196 1.432-6.952.122-1.648-1.803-4.966 1.928-3.534.995 3.786-4.716 4.486-1.27 8.251-1.404 1.195-.313 3.638.583 4.396-.162.63-.216 1.218-.233 1.256-.112.08-.358.055-.497.132-.156.075-.329.419-.336.599-.031.808.666 1.592.979 2.614.041.094-.049.366.044.555.05.08.093.129.146.16-.407.125-.674 1.056-.877.994zm9.508-1.125c.016-.179-.077-.363-.175-.643-.968-.454-.94-.994-1.68-1.066-.18-.017-.316.061-.496.044-.424-.04-.539-.867-1.242-.935-.189-.018-.506.222-.686.205-.19-.018-.36-.216-.54-.234-.469-.045-.944.367-.964.906-.032.808.458 1.392 1.314 1.475.415.04.237-.072.906-.278.21-.07.44.14.657.16.229-.067.477-.221.657-.204.19.019.573.323.862.35.212.112.648.249.832.176zm71.213-3.403c.811.078.936-.897.95-1.256.007-.18-.49-1.31-.482-1.49.007-.18.21-.515.306-.686.191-.252.73-.478.92-.73.468-.406.48-.588.497-1.037.02-.539-.252-.726-.672-1.578-.26-.295-.24-.753-.496-1.139l-.263-.029c-.094.081-.373.332-.38.511l-.044.979c-.031.808-.884 1.719-.89 1.898-.008.18.348.39.525.497-.093.081-.186.173-.19.263-.055 1.436-.59 1.203-.628 2.19-.007.18.126 1.538.847 1.607zm-69.709-1.402c.118.011.193-.068.293-.058.021-.088.095.006.102-.176.014-.359-.832-.707-.891-.803-.081-.008-.183-.288-.35-.394-.42-.13-.968-.1-1.403-.322-.144-.014-.352-.292-.496-.306-.222-.112-.638-.26-.818-.278-.19-.018-.682.032-.862.015-.495-.048-.573-.866-1.285-.935-.595-.057-.99.354-1.008.803-.02.54.901 2.071 1.388 2.118.64.062.674-.838.657-1.11.202-.07.453-.047.643-.029.216.021.627.784 1.285.847.189.018.692-.206 1.007-.175zm.468-4.834c.18.017 1.28-.324 1.46-.307.19.018.388.135.628.248.094-.08.183-.156.19-.335.017-.45-.888-.634-.978-.643-.19-.018-.512.033-.701.014-.18-.017-.799-.435-.979-.452-.198-.02-.778.11-.789.38-.017.448.781 1.057 1.169 1.095zm-3.958-.993c.46.044.34-.784.745-.745.18.017.462.304.642.321.352.034.746-.108.76-.467.003-.09-.13-.637-.438-.847-.199-.02-.463.05-.658-.059-.176-.107-.345-.216-.525-.233-.577-.056-1.093.53-1.11.978-.014.36.052 1 .584 1.052zm47.378-1.388a.324.324 0 0 0 .19-.073c.37-.234.665-.747.95-1.08.093-.082.197-.332.204-.512s-.168-.39-.161-.57c.007-.179.209-.606.219-.876.01-.269-.328-1.113-.599-1.139-.54-.052-.928.916-.934 1.096-.007.18.21 1.354.204 1.533-.02.539-.655.404-.686 1.212-.01.27.184.363.365.38.09.01.17.032.248.03zm-49.7-.745c.17.006.346-.024.584-.204.037-.267-.005-.638.146-.803.164-.255.446-.595.453-.774.014-.36-.255-.376-.453-.395-.19-.018-.243.076-.424.059-.189-.018-.637-.523-.817-.54-.595-.058-.636.758-1.037 1.08-.323.15-.825.183-1.286.409l-.014.263c.222.111.468.23.657.248.496.048.674-.295 1.008-.263.46.045.215.83 1.007.906.06.006.119.013.176.014zm1.708-2.891c.694.067.48-.777 1.11-.716.18.018.717.45.906.467.595.058.95-1.086.964-1.446.01-.269-.202-.739-.41-.759-.459-.044-.9.356-1.036.613l-.19-.014c-.639-.783-.412-1.034-1.051-1.096-.604-.058-.936 1.175-.95 1.534-.007.18-.027 1.35.657 1.417zm32.233-.307c.36.035.493-.582.497-.672.007-.18-.197-.112-.19-.292s.285-.346.292-.526c.014-.359-.15-.724-.511-.76-.54-.051-.746.562-.76.92-.01.27.042 1.27.672 1.33zm21.79-1.694c.181.017.448-.138.541-.22.184-.072.193-.246.38-.408.09.009.167.014.35-.059.094-.08.11-.17.117-.35s.025-.447-.336-.482c-.36-.035-1.399.778-1.416 1.227-.007.18.09.085.087.175.087.098.098.1.278.117zm-24.17-1.884c.18.017.256-.055.263-.234.007-.18-.314-.755-.307-.935s.665-1.28.672-1.46-.15-.557-.234-.745c-.173-.197-1.03-1.449-1.3-1.475-.45-.043-.57.832-.57.832-.01.27.504 1.048.497 1.227-.007.18-.197.434-.204.614-.014.359.192 2.08 1.183 2.176zm11.523-.862c.18.018.547-.41.73-.482.094-.081.363-.052.453-.044.094-.08.183-.156.19-.336s-.682-.883-.935-1.358c-.09-.009-.097-.1-.277-.117s-.45.232-.453.322c-.017.449-.14 1.076-.146 1.256-.007.18.078.724.438.76zm-3.622-.175c.45.043.734-.286.745-.555.017-.45-.68-1.055-.95-1.08-.27-.027-.463.391-.467.481-.007.168.187 1.001.584 1.14.027.008.06.01.088.014zm-32.86-2.03c.337-1.401-1.115-1.774 0 0zm17.627-.176c.29-.013.486-.11.497-.38.007-.179-.153-.564-.146-.744s.665-.828.671-1.008c.007-.18-.074-.47-.16-.57-.173-.196-1.324-1.019-1.504-1.036-.36-.035-.362.231-.366.321-.007.18.342.487.512.774-.274.064-.567.749-.585 1.198-.017.449.13 1.37.76 1.43.112.012.224.02.321.015zm10.443-.058c.45.043.478-.67.482-.76.048-1.256-1.055-.738-1.183-2.102a.758.758 0 0 0 -.453-.22c-.63-.06-.742.656-.745.745-.007.18.063.542.146.73.26.296.616.508.876.804.174.197.338.49.511.686-.003.09.185.1.366.117zm18.825-3.885c-3.177-2.569.997-2.925 0 0zm-24.916-.044c.631.061 1.382-.848 1.402-1.387.021-.539-.684-.882-.774-.891-.18-.017-.462.134-.642.117-.18-.018-.799-.435-.979-.453-.54-.052-.452.41-.452.41-.018.448.142.558.759.978.35.304.064.633.234.92.083.188.272.289.452.306zm-2.249-.219c.54.052.819-.444.833-.803.014-.36-.066-.47-.336-.496-.18-.018-.375.148-.555.13-.18-.017-1.412-.858-1.592-.875-.45-.044-.545.125-.555.394-.01.27.306 1.467.847 1.519.18.017.55-.12.73-.102.18.017.448.216.628.233zm39.2-1.066c.18.018.639-.487.92-.73 0 0 .11-.171.117-.35.007-.18-.17-.465-.351-.483-.45-.043-1.296.86-1.3.95-.01.27.433.596.614.613zm-20.155-1.431c-3.676-.713-.39-2.34 0 0zm18.314-.102c.18.017.543-.042.73-.205.098-.17.196-.428.293-.599.007-.18.364-.244.555-.496.093-.081.212-.332.219-.511.017-.45-.623-.699-.803-.716s-.546.049-.643.22c-.381.503-.957 1.44-.964 1.62s.163.643.613.687zm-40.893-.249c.55.054 1.359-1.043 1.373-1.402.017-.449-.24-.839-.628-.876-.838-.08-1.579.757-1.607 1.475-.02.539.718.79.862.803zm28.406-.525c-1.974-1.126-5.85-2.536-1.416-1.695-.228.613 3.504 1.726 1.416 1.695zm-17.044-.847c-2.13-1.284 2.805-.259 0 0zm17.628-.6c-1.094-1.022 3.219-3.507-.993-2.628-1.184-1.363.442-4.398-.438-6.675.44-5.464-1.939-11.408-6.66-15.13-1.272-2.386 2.593 1.57 1.33-1.315 3.437-1.656 5.286 2.304 6.615 4.265-.21 5.646 3.387 10.693 6.733 15.32-1.994 1.028-1.357 4.577-5.272 3.33 1.974 1.727 1.534 2.24-1.315 2.834zm-22.944-1.869c-.43-.582-.96-.994-1.782-.803l-.262-.117c.367-.145.652-.382.832-.365.27.026 1.426.496 1.402 1.125-.007.18-.096.08-.19.16zm31.196-.847c-2.637-1.018.893-1.56 0 0zm-52.913-1.051c-.34 0-.73-.05-1.169-.161-1.865-.053-3.728-.108-5.593-.16 1.154-2.183-.39-2.933-.175-3.564.85.12 1.498-.008 1.884-.263a1.039 1.039 0 0 0 -.015.117c-.014.359.158.728.482.76.342.033.625-.656.628-.746.014-.359-.23-.932-.686-1.066-.023.03-.038.071-.059.102-.155-.444-.768-.934-1.971-1.285 1.265-3.926 2.4-7.95 1.81-12.195 1.264-2.783-5.21-6.582-2.643-7.434 1.443 3 .526-2.718 3.9-.934 3.675-.284 1.31 3.882 4.279 4.644.646 5.059-1.767 10.204-.22 15.058 1.695 2.24 2.833 7.117-.452 7.127zm-7.025-.249a1 1 0 0 1 -.409-.087c.801-.148.745.08.409.087zm-1.052-.014a2.859 2.859 0 0 1 -.555-.102h-.116c.425-.894 1.636.16.671.102z" fill="#fff" fill-rule="evenodd"/><ellipse cx="-502.089" cy="-413.675" fill="#e1b57a" rx="57.466" ry="59.04" transform="scale(1 -1)"/><ellipse cx="-502.089" cy="-413.675" fill="#3d2f46" rx="55.511" ry="54.12" transform="scale(1 -1)"/><g fill-rule="evenodd"><path d="m-502.089 448.164-12.147-8.06 4.808-9.052 3.819-14.708-24.89 9.051-1.273-6.787-6.223-5.799 6.223-6.08.424-6.648 12.162 6.081 14.002 3.394-9.052-25.031 5.799-1.131 6.348-6.224 6.349 6.224 5.798 1.131-9.051 25.031 14.001-3.394 12.163-6.08.423 6.646 6.223 6.081-6.223 5.799-1.272 6.787-24.89-9.051 3.818 14.708 4.808 9.051z" fill="#e60746"/><g fill="#e1b57a"><path d="m-505.764 450.512c-.075-3.42-2.857-6.175-6.271-6.175-2.454-.09-3.827 1.456-5.372 3.046-2.987-1.095-4.34-2.028-1.979-4.421.018-.017.031-.04.049-.058a43.623 43.623 0 0 0 11.12-23.48c-10.03 1.43-18.953 6.32-25.551 13.428a37.49 37.49 0 0 1 -2.216-4.175c1.779-1.49 2.852-3.174 3.017-5.54 0-3.444-2.745-6.24-6.149-6.307-.241-2.462-.197-4.94.025-7.402 3.392-.08 6.124-2.88 6.124-6.314.112-2.453-1.437-3.747-3.017-5.294a37.49 37.49 0 0 1 2.298-4.314c6.583 7.053 15.46 11.907 25.436 13.337a43.664 43.664 0 0 0 -13.31-25.506 37.07 37.07 0 0 1 4.16-2.223c1.476 1.778 3.126 2.872 5.487 3.038 3.417 0 6.193-2.76 6.263-6.183 2.446-.256 4.906-.202 7.351.025h.008c.084 3.412 2.855 6.158 6.263 6.158 2.441.102 3.726-1.46 5.258-3.038a37.065 37.065 0 0 1 4.292 2.314 43.677 43.677 0 0 0 -13.213 25.382c9.879-1.472 18.677-6.299 25.208-13.296a37.503 37.503 0 0 1 2.29 4.322c-1.784 1.475-2.861 3.03-3.01 5.401 0 3.435 2.732 6.227 6.124 6.307.257 2.461.217 4.94 0 7.401-3.392.08-6.124 2.88-6.124 6.315-.096 2.454 1.427 3.843 3.01 5.401-1.1 3.08-2.039 4.33-4.457 1.943-6.26-5.835-14.233-9.836-23.074-11.147 1.422 10.045 6.247 18.986 13.254 25.613a37.063 37.063 0 0 1 -4.292 2.313c-1.463-1.792-3.015-2.893-5.389-3.046-3.413 0-6.188 2.755-6.263 6.175-2.444.27-4.905.22-7.35 0zm3.671-3.606c1.435-3.861 5.029-6.655 9.297-6.916a48.168 48.168 0 0 1 -8.038-25.474 47.41 47.41 0 0 1 25.306 8.077 10.7 10.7 0 0 1 6.877-9.344 10.692 10.692 0 0 1 -6.877-9.353 47.417 47.417 0 0 1 -25.306 8.085 48.19 48.19 0 0 1 8.038-25.474c-4.215-.305-7.75-3.1-9.174-6.924-1.447 3.893-5.08 6.712-9.395 6.933a48.197 48.197 0 0 1 8.013 25.465c-9.344-.244-18.013-3.198-25.29-8.093a10.707 10.707 0 0 1 -6.876 9.237 10.692 10.692 0 0 1 6.885 9.468 47.37 47.37 0 0 1 25.28-8.077 48.173 48.173 0 0 1 -8.02 25.474c4.263.264 7.843 3.059 9.28 6.916z"/><path d="m-502.089 454.298c-2.295 0-4.165-1.893-4.165-4.204s1.87-4.184 4.165-4.184 4.165 1.873 4.165 4.184-1.87 4.204-4.165 4.204zm-20.377-5.508c-2.04-1.054-2.666-3.72-1.518-5.722 1.147-2.002 3.695-2.693 5.683-1.538s2.704 3.744 1.518 5.722c-1.274 2.125-3.628 2.6-5.683 1.538zm35.071-1.538c-1.255-1.932-.47-4.566 1.519-5.722 1.987-1.155 4.535-.464 5.683 1.538 1.147 2.002.489 4.6-1.518 5.722-2.11 1.179-4.406.43-5.684-1.538zm-14.694-75.045c-2.295 0-4.165 1.892-4.165 4.203 0 2.312 1.87 4.185 4.165 4.185 2.296 0 4.165-1.873 4.165-4.185s-1.87-4.203-4.165-4.203zm-20.377 5.507c-2.04 1.055-2.666 3.72-1.518 5.722 1.147 2.002 3.695 2.694 5.683 1.538s2.704-3.743 1.518-5.722c-1.274-2.125-3.628-2.6-5.683-1.538zm35.071 1.538c-1.255 1.932-.47 4.566 1.519 5.722 1.987 1.156 4.535.464 5.683-1.538 1.147-2.001.489-4.6-1.518-5.722-2.11-1.178-4.406-.43-5.684 1.538zm26.065 33.997c0 2.295-1.892 4.165-4.203 4.165-2.312 0-4.185-1.87-4.185-4.165 0-2.296 1.873-4.165 4.185-4.165s4.204 1.87 4.204 4.165zm-5.507 20.377c-1.054 2.04-3.72 2.666-5.722 1.518s-2.693-3.695-1.538-5.683 3.744-2.704 5.722-1.518c2.125 1.274 2.6 3.628 1.538 5.683zm-1.538-35.072c-1.932 1.255-4.566.47-5.722-1.518-1.155-1.988-.464-4.535 1.538-5.683 2.001-1.148 4.6-.489 5.722 1.518 1.179 2.11.43 4.405-1.538 5.683zm-74.473 14.695c0-2.296 1.892-4.165 4.204-4.165 2.311 0 4.184 1.87 4.184 4.165s-1.873 4.165-4.184 4.165-4.204-1.87-4.204-4.165zm5.508-20.378c1.054-2.04 3.72-2.666 5.722-1.518 2.001 1.148 2.693 3.695 1.537 5.683s-3.743 2.704-5.722 1.518c-2.125-1.274-2.6-3.628-1.537-5.683zm1.537 35.072c1.932-1.255 4.567-.47 5.722 1.518 1.156 1.988.464 4.535-1.537 5.683-2.002 1.148-4.6.489-5.722-1.518-1.18-2.11-.43-4.405 1.537-5.683z"/></g></g><g fill="#fff"><path d="m-461.66 344.29-.006-27.435v-41.922h37.388l-.063 18.55v.001c0 2.95 1.469 6.346 3.813 9.054 2.344 2.707 5.603 4.737 9.24 4.737h.004c3.64 0 6.848-2.063 9.136-4.8 2.287-2.737 3.693-6.158 3.693-9.1v-18.442h3.799l-.063 18.55v.001c0 2.95 1.469 6.346 3.813 9.054 2.344 2.707 5.604 4.737 9.242 4.737 3.64 0 6.85-2.063 9.138-4.8 2.287-2.737 3.695-6.158 3.695-9.1v-18.442h37.325l-.014 69.358h-25.346v-27.436h-79.104v27.436zm50.372-38.1c-3.231 0-6.226-1.83-8.42-4.363-2.193-2.534-3.546-5.76-3.547-8.341v-.002l.061-18.551h2.178v17.16c0 5.176 4.289 11.623 9.616 11.623s9.617-6.514 9.617-11.691v-17.092h2.244v18.442c0 2.588-1.304 5.845-3.444 8.405s-5.074 4.409-8.303 4.409zm29.624 0c-3.232 0-6.228-1.83-8.422-4.363-2.193-2.534-3.546-5.76-3.547-8.341v-.002l.061-18.551h2.178v17.16c0 5.176 4.289 11.623 9.616 11.623s9.617-6.514 9.617-11.691v-17.092h2.242v18.442c0 2.588-1.3 5.845-3.44 8.405s-5.076 4.409-8.305 4.409zm-67.15 76.374-12.846-32.964h25.689z" fill-rule="evenodd"/><path d="m-461.66 348.109h25.69v-2.475h-25.69zm104.794 0h25.69v-2.475h-25.69z"/><path d="m-344.358 382.738-12.508-33.138h25.346z" fill-rule="evenodd"/></g><path d="m-417.386 408.572 20.8 36.106 20.8-36.106z" fill="#fff" fill-rule="evenodd"/><g fill="#fff"><path d="m-397.386 449.885-.019-7.281h1.596l.019 7.28h3.191l.005 1.82h-3.191l.009 3.641h-1.596l-.01-3.64h-3.19l-.006-1.82z" fill-rule="evenodd"/><path d="m-394.504 443.317a2.082 2.06 6.787 1 0 -4.164 0 2.082 2.06 6.787 0 0 4.164 0z"/></g><path d="m-448.98 387.924 10.277-38.324h-2.57z" fill="#e60746" fill-rule="evenodd"/><path d="m-451.864 386.895h2.494l-.014-4.889h1.247l.015 4.889h2.494l.003 1.222h-2.494l.007 2.444h-1.248l-.007-2.444h-2.494z" fill="#fff" fill-rule="evenodd"/><path d="m-447.36 381.726a1.385 1.382 45 1 0 -2.768 0 1.385 1.382 45 0 0 2.767 0z" fill="#fff"/><path d="m-344.523 387.522 10.277-37.922h-2.57z" fill="#e60746" fill-rule="evenodd"/><g fill="#fff"><path d="m-347.407 386.895h2.495l-.015-4.889h1.248l.014 4.889h2.495l.004 1.222h-2.495l.007 2.444h-1.247l-.007-2.444h-2.495z" fill-rule="evenodd"/><path d="m-342.903 381.726a1.385 1.382 43.367 1 0 -2.767 0 1.385 1.382 43.367 0 0 2.767 0zm-74.483-44.326h41.6v-22.146h-41.6zm0 22.56h41.6v-21.8h-41.6zm0 22.56h41.6v-21.8h-41.6zm0 22.56h41.6v-21.8h-41.6zm0 .72h41.6v1.888h-41.6z"/><path d="m-378.505 419.827-2.718-6.164v-5.091h1.273v4.094h2.925v-4.094h1.24v5.09zm0-2.668 1.48-3.23h-2.925z" fill-rule="evenodd"/><path d="m-378.641 421.292-.004-1.501h.336l.004 1.5h.673v.376h-.672l.002.75h-.336l-.002-.75h-.673l-.001-.375z" fill-rule="evenodd"/><path d="m-378.015 419.705a.439.425 2.197 1 0 -.878 0 .439.425 2.197 0 0 .878 0z"/><path d="m-414.667 419.827-2.719-6.164v-5.091h1.273v4.094h2.926v-4.094h1.239v5.09zm0-2.668 1.48-3.23h-2.926z" fill-rule="evenodd"/><path d="m-414.804 421.292-.004-1.501h.336l.004 1.5h.673l.001.376h-.673l.002.75h-.336l-.002-.75h-.673v-.375z" fill-rule="evenodd"/><path d="m-414.178 419.705a.439.425 2.197 1 0 -.878 0 .439.425 2.197 0 0 .878 0z"/></g><g fill="#e60746"><path d="m-387.545 419.827-2.72-6.164v-5.091h1.274v4.094h2.926v-4.094h1.238v5.09zm0-2.668 1.48-3.23h-2.926z" fill-rule="evenodd"/><path d="m-387.682 421.292-.004-1.501h.336l.004 1.5h.673l.001.376h-.673l.002.75h-.336l-.002-.75h-.673v-.375z" fill-rule="evenodd"/><path d="m-387.056 419.705a.439.425 2.197 1 0 -.878 0 .439.425 2.197 0 0 .878 0z"/><path d="m-396.586 419.827-2.719-6.164v-5.091h1.273v4.094h2.926v-4.094h1.239v5.09zm0-2.668 1.48-3.23h-2.926z" fill-rule="evenodd"/><path d="m-396.723 421.292-.004-1.501h.337l.004 1.5h.673v.376h-.672l.002.75h-.337l-.002-.75h-.672l-.001-.375z" fill-rule="evenodd"/><path d="m-396.097 419.705a.439.425 2.197 1 0 -.877 0 .439.425 2.197 0 0 .877 0z"/><path d="m-405.627 419.827-2.718-6.164v-5.091h1.273v4.094h2.925v-4.094h1.24v5.09zm0-2.668 1.48-3.23h-2.925z" fill-rule="evenodd"/><path d="m-405.763 421.292-.004-1.501h.336l.004 1.5h.673v.376h-.672l.002.75h-.336l-.002-.75h-.673l-.001-.375z" fill-rule="evenodd"/><path d="m-405.137 419.705a.439.425 2.197 1 0 -.878 0 .439.425 2.197 0 0 .878 0z"/></g><path d="m-455.69 313.886c1.547 0 2.794-2.362 2.794-3.304v-2.231h-5.59l.067 2.098c0 .943 1.18 3.437 2.728 3.437zm8.416 0c1.549 0 2.795-2.362 2.795-3.304v-2.231h-5.59l.067 2.098c0 .943 1.18 3.437 2.728 3.437zm8.417 0c1.549 0 2.795-2.362 2.795-3.304v-2.231h-5.59l.067 2.098c0 .943 1.18 3.437 2.728 3.437zm8.417 0c1.549 0 2.795-2.362 2.795-3.304v-2.231h-5.59l.067 2.098c0 .943 1.18 3.437 2.729 3.437zm8.418 0c1.548 0 2.794-2.362 2.794-3.304v-2.231h-5.59l.067 2.098c0 .943 1.18 3.437 2.729 3.437zm8.417 0c1.548 0 2.795-2.362 2.795-3.304v-2.231h-5.59l.066 2.098c0 .943 1.18 3.437 2.729 3.437zm8.417 0c1.548 0 2.795-2.362 2.795-3.304v-2.231h-5.59l.066 2.098c0 .943 1.18 3.437 2.729 3.437zm8.418 0c1.547 0 2.794-2.362 2.794-3.304v-2.231h-5.59l.067 2.098c0 .943 1.18 3.437 2.728 3.437zm8.416 0c1.549 0 2.795-2.362 2.795-3.304v-2.231h-5.59l.067 2.098c0 .943 1.18 3.437 2.728 3.437zm8.417 0c1.549 0 2.795-2.362 2.795-3.304v-2.231h-5.59l.067 2.098c0 .943 1.18 3.437 2.728 3.437zm8.417 0c1.549 0 2.795-2.362 2.795-3.304v-2.231h-5.59l.067 2.098c0 .943 1.18 3.437 2.728 3.437zm25.252 0c1.548 0 2.795-2.362 2.795-3.304v-2.231h-5.59l.066 2.098c0 .943 1.18 3.437 2.729 3.437zm8.417 0c1.548 0 2.795-2.362 2.795-3.304v-2.231h-5.59l.066 2.098c0 .943 1.18 3.437 2.729 3.437zm-16.834 0c1.548 0 2.794-2.362 2.794-3.304v-2.231h-5.59l.067 2.098c0 .943 1.18 3.437 2.729 3.437zm-8.417 0c1.548 0 2.794-2.362 2.794-3.304v-2.231h-5.59l.067 2.098c0 .943 1.18 3.437 2.728 3.437z" fill="#e60746"/><g fill="#e60746"><path d="m-398.871 371.97v-8.87l-6.586.028v8.87l3.293 6.076zm-10.572 0v-8.87l-5.302.028v8.87l2.651 6.076zm15.143 0v-8.87l6.585.028v8.87l-3.293 6.076zm10.57 0v-8.87l5.303.028v8.87l-2.651 6.076z"/><path d="m-402.146 355.52c-1.831 0-3.319-2.15-3.319-4.674l.018-10.486h6.584v10.676c0 2.523-1.452 4.484-3.283 4.484zm-9.934 0c-1.47 0-2.665-2.15-2.665-4.674l.015-10.486h5.287v10.676c0 2.523-1.166 4.484-2.636 4.484zm21.054 0c1.831 0 3.32-2.15 3.32-4.674l-.019-10.486h-6.584v10.676c0 2.523 1.452 4.484 3.283 4.484zm9.933 0c1.471 0 2.666-2.15 2.666-4.674l-.014-10.486h-5.288v10.676c0 2.523 1.166 4.484 2.636 4.484z"/><path d="m-402.146 334.174c-1.831 0-3.319-2.23-3.319-4.846l.018-10.874h6.584v11.07c0 2.617-1.452 4.65-3.283 4.65zm-9.934 0c-1.47 0-2.665-2.23-2.665-4.846l.015-10.874h5.287v11.07c0 2.617-1.166 4.65-2.636 4.65zm21.054 0c1.831 0 3.32-2.23 3.32-4.846l-.019-10.874h-6.584v11.07c0 2.617 1.452 4.65 3.283 4.65zm9.933 0c1.471 0 2.666-2.23 2.666-4.846l-.014-10.874h-5.288v11.07c0 2.617 1.166 4.65 2.636 4.65z"/><path d="m-398.871 394.082v-9.202l-6.586.03v9.202l3.293 6.302zm-10.572 0v-9.202l-5.302.03v9.202l2.651 6.302zm15.143 0v-9.202l6.585.03v9.202l-3.293 6.302zm10.57 0v-9.202l5.303.03v9.202l-2.651 6.302z"/></g><path d="m-502.09 614.606c-59.843-.559-119.688-4.014-179.532-15.575l-1.184-323.215c.483-39.653 28.972-53.294 81.36-64.163 87.983-18.254 91.445-44.072 99.357-52.267 7.912 8.195 11.372 34.013 99.356 52.267 52.387 10.869 80.878 24.51 81.361 64.163l-1.186 323.215c-59.844 11.561-119.687 15.016-179.531 15.575zm-21.19-12.65c7.064.05 14.128.002 21.19-.15 56.507 1.215 113.013-4.244 169.518-12.375v-302.415c-.483-41.134-17.774-52.494-70.16-63.363-87.985-18.254-91.445-36.872-99.357-45.067-7.912 8.195-11.374 26.813-99.358 45.067-52.387 10.869-69.676 22.229-70.16 63.363v302.414c49.443 7.115 98.885 12.183 148.327 12.525z" fill="#e1b57a" fill-rule="evenodd"/><path d="m-502.09 614.606c-59.843-.559-119.688-4.014-179.532-15.575l-.864-235.74.966-5.213c1.594 40.487 11.218 74.018 31.043 99.261 16.216 20.647 83.498 43.957 112.188 51.767 79.487 21.64 153.59 44.93 215.74 87.522l-.009 2.403c-59.844 11.561-119.687 15.016-179.531 15.575z" fill="#fff" fill-rule="evenodd" opacity=".206"/></g></svg>