<svg height="2500" viewBox="0 0 1196 1200" width="2492" xmlns="http://www.w3.org/2000/svg"><path d="M0 0h1196v1200H0z" fill="#681060"/><path d="M0 0h1196v1200H0zm438 81l-11 10-15 10-17 9-21 8-21 6-25 5-27 3h-47l-31-4-20-5-16-6-9-4-10 12-14 19-16 21-6 7v5l13 18 13 21 13 24 11 27 7 22 5 24 3 25v35l-3 24-5 24-7 24-8 21-12 26-12 22-15 24-11 15-13 17-12 14-9 11-1 3 48 48v65l2 25 4 27 5 25 9 30 9 24 12 25 9 16 10 15 14 19 13 14 7 8 12 12 8 7 12 10 19 14 21 13 22 12 21 10 28 11 28 9 23 6 28 6 36 5 33 3 13 11 11 9 14 12 10 8 11 9 16 13 4-2 13-11 14-11 14-12 11-9 14-12 7-5 23-2 28-3 28-5 26-6 25-7 26-9 26-11 21-10 24-14 18-12 17-13 14-12 13-12 16-17 11-14 11-15 13-21 12-23 8-19 11-33 6-26 5-30 2-19 1-20v-59l7-7 8-7 33-33-3-5-13-15-8-10-15-20-13-19-11-18-13-24-8-17-12-32-6-22-5-29-2-25v-13l2-25 5-28 8-27 10-25 12-24 8-13 14-21 7-10-1-5-7-8-12-16-16-21-9-12-2-1-18 8-22 6-25 4-12 1h-46l-27-3-29-6-20-6-17-7-16-8-16-11-11-10-5 2-10 7-18 11-17 10-16 8-14 6-19 6-26 5-19 2h-31l-21-2-22-4-23-7-20-9-22-12-31-20-4-3z" fill="#18008a"/><path d="M198 641h798l3 1 3 20v55l-4 33-6 28-12 36-12 25-10 17-12 17-8 10-9 10-11 12-8 7-13 11-17 12-18 11-14 8-22 10-21 8-25 8-33 8-35 6-36 4-27 2-25 1h-56l-33-2-35-3-35-5-34-7-25-7-26-9-30-13-22-12-17-11-16-12-11-10-8-7-12-12-9-11-10-13-12-19-13-25-9-23-7-22-6-28-3-20-2-24v-38l2-18z" fill="#fefffe"/><path d="M797 1046l5 1v3l3 3 17 1 10-1 9 2h10l3-1 4 1 16-1h14l19-1 17 2h9l7-1 8 1 2 1 10-2 5-2 7 1 9 1 16-2h8l3 1 13-1 11-2h8l6 1h32l9-1 5-1h17l4-1 15 1 22-1 3-1h9l2 2 7 1 5 2 5 3 7 4 3 6 5 6v129H0v-116h2v-3h2l1-4 4-3 7 5 6-1 5 1 8 1 6 2h8l4-2h11l11-2 7-2 19 2 12-2 26-2 7 1 20-1h12l4 1 1-1h45l14-3 16-1 4-1 9 1 4 1 12-2 1-1 16-1 9 1h45l1-3 7-1 8 2 14-1 2-1h7l2 1v-2l17 1v-3l2-1-1-3h2v-2h-6l-4-3 1-2 6-1 1 3 11-1 7 2h8l4 1 13 2h16l9 2 8 1 20-1h6l6 2 3 3v3l5 1 13 11 5 2 14 12 14 11 13 11 5 4 4-2 13-11 14-11 14-12 11-9 10-8 4 1v-2l4-2 3-3h16l4 1h11l20-3 14-1 9-3 15-1 5-2 13-1 3-1 5 1z" fill="#10448e"/><path d="M160 251h3v3l4 1 4 5 2 1v-3l5-4 9 25 6 23 4 25 1 11v35l-3 24-5 24-7 24-8 21-12 26-12 22-15 24-11 15-13 17-12 14-9 11-1 5 4 2 44 44v65l2 25 4 27 5 25 9 30 9 24 12 25 9 16 10 15 14 19 13 14 7 8 11 11 8 7 12 10 19 14 21 13 22 12 21 10 28 11 28 9 23 6 28 6 36 5 33 3 13 11 11 9 2 3-4-2-13-10-3-1-3-5-7-2h-13l-14 1-15-3h-19l-11-2-4-1h-7l-7-2h-6l-1 1h-6l2-1-1-2-6 1 3 3 6 1v2h-2v2l2 1-2 2-1 3-17-2v2h-9l-2 1-15 1-7-2-7 1-1 2-20 1h-25l-9-1-16 1-1 1-14 2-2-1-10-1-7 1-12 1-14 3h-45l-3 1-2-1h-12l-22 1-10-1-14 2h-9l-13 2-18-2-10 3-13 1-7 1-1 1h-8l-10-3h-7l-3-1-5 1-8-5-3 3-1 3H2v3H0V270h10l3 1 2-4h12l3 2 12 2 8-2 12-1 5 1 8-1 3 1 5-1 3 2h11l1-1 9-1 5-2 4-1 3-1 2 2 5-1 12-4 10-4h4l1-5 5 1zM1047 227l3 1h3l8 5 5 4 13 2 9 3 6 1 5 2 13-1 11 1 4-3 5-1 2-1 10 2v-2l5-1 7 5 9-1 2 1v2l10-1 8-2 7 6 3-5h1v827l-5-5-3-4v-3l-4-1-8-5-5-2-7-1-2-2h-9l-3 1-29 1-10-1-2 1h-20l-3 1-13 1h-30l-3-1h-8l-14 2-11 1-2-1-19 1-7 1-9-2-7 1-5 2-9 1-4-1-8-1-9 1h-8l-15-2-24 1h-15l-10 1-3-1-5 1h-7l-11-2-10 1-15-1-4-2 1-1-2-2v-2l-5 1-6 2-6-1-5 1-10 1-7 2-13 1-9 3-22 2-12 2h-11l-4-1h-18l-1 3-4 1v2l-3-1 4-5 6-4 23-2 28-3 28-5 26-6 25-7 26-9 26-11 21-10 24-14 18-12 17-13 14-12 13-12 15-16 11-14 11-15 13-21 12-23 8-19 11-33 6-26 5-30 2-19 1-20v-59l8-8 8-7 32-32-3-5-13-15-8-10-15-20-13-19-11-18-13-24-8-17-12-32-6-22-5-29-2-25v-13l2-25 5-28 8-27 9-23 2 2 7-8h2l1-2 5-5h2l1-3h4z" fill="#671060"/><path d="M438 81l5 2 10 7 16 10 15 9 21 11 21 8 18 5 26 4 13 1h31l26-3 23-5 25-9 16-8 20-11 17-11 11-7 4-3 4 2 10 9 15 10 16 8 17 7 20 6 29 6 27 3h46l26-3 23-5 15-5 14-6 9 11 14 19 20 26 3 3-1 6-11 15-12 19-9 16-12 25-9 25-6 23-4 23-2 25v13l2 25 5 29 7 25 12 31 12 25 13 23 10 15 12 17 13 17 11 13 9 11 3 5-35 35-8 7-5 5v59l-2 31-5 33-6 27-9 29-8 20-11 23-13 22-12 17-11 14-11 12-9 10-7 7-8 7-11 9-18 14-17 11-21 12-19 10-31 13-36 12-31 8-26 5-21 3-19 2-23 2-9 7-14 12-13 11-11 9-16 13-12 10-4-2-16-13-22-18-26-22-9-7-42-4-32-5-36-8-29-9-25-9-25-11-27-14-24-15-12-9-13-10-12-11-8-7-12-12-7-8-11-13-13-18-15-25-11-22-10-26-8-26-6-26-4-25-2-18-1-15v-65l-48-48 2-4 9-11 12-14 10-13 12-17 11-17 12-21 10-19 9-21 7-19 8-29 5-29 1-11v-35l-3-25-5-24-10-30-11-25-14-25-14-21-8-11v-5l8-9 14-19 16-21 8-10 16 7 20 6 22 4 18 2h47l27-3 29-6 20-6 20-8 17-9 14-10zm2 27l-15 10-23 12-18 7-25 7-24 5-23 3-13 1h-44l-33-4-25-6-10-3h-4l-10 14-13 17-2 2 1 5 10 15 10 17 12 23 11 27 7 23 4 17 4 26 1 12v36l-2 21-5 26-8 28-8 22-9 20-11 22-13 22-10 15-10 14-9 12-11 14-4 5 2 4 38 38 1 2-1 20v54l3 30 5 29 6 24 9 27 11 25 11 20 9 14 10 14 9 11 9 10 24 24 14 11 13 10 17 11 21 12 22 11 27 11 34 11 24 6 26 5 29 4 12 1 28 1 11 10 11 9 12 11 11 9 14 12 6 5 4-1 11-9 16-13 10-9 11-9 14-13 3-2 27-1 29-3 29-5 26-6 29-9 25-9 33-15 20-11 27-18 18-14 13-12 19-19 9-11 12-16 11-17 8-14 12-26 8-22 7-25 5-23 4-30 2-31v-31l-2-27 14-16 8-7 20-20-2-5-10-11-8-11-13-18-13-20-15-26-13-27-10-26-7-22-6-29-3-22-1-15v-19l2-26 4-24 6-23 7-20 9-21 13-25 12-19 8-12-2-5-9-11-11-15-4-5-9 2-24 6-26 4-13 1h-45l-34-4-29-6-23-7-19-8-16-8-11-7-7-5-5 2-17 11-14 8-16 8-25 10-21 6-21 4-20 2h-37l-27-3-23-5-27-9-26-12-19-11-12-8-4-3z" fill="#fefffe"/><path d="M440 108l5 2 10 7 15 9 17 9 19 8 24 8 29 6 21 2h37l26-3 23-5 24-8 18-8 16-8 20-12 10-7 5 2 10 7 14 8 21 9 21 7 25 6 26 4 19 2h45l21-2 23-4 25-7 4 1 10 13 15 20-2 5-13 20-12 21-11 23-2 5-3 1-2 3h-2l-1 2-2-5-3-15-3-2v-2h-7l-3-1-1 3-4 4h-2l-2 6-5 6-3 8-6 4v-7l8-21 10-23 9-17-33 3-28 1v58l-2 2-3-3-3-10-5-8-1-6-4 1-3-5-2-1-6 18-3 8-1 5-4 5-2 2-1-67-2-2-27-4-10-1-1 73-2-2v-4h-3l-4-7-1-7h-2l-4-8-1-3h-3l-1-2h-2l-3 13-4 8-2 5h-2l-1 6-4 3-1-87-24-11-12-7h-4v102l-3-4-1-2 1-2-3-1-4-8-3-3-3-5h-3l-2-4h-2l-2 10-5 7-5 13-4 3-1-84-6 1-25 9-9 2v70h-2v-2h-3l-3-7-3-9-4-5-2-7-5 1-1-1-3 12-4 7-3 10h-2l-1 4-3 3-2-67-34 1v68l-2 7-2 2-1-36v-24l1-14h-2l-1-3-24-1-23-3-27-6-36-12-5-2v30l-1 58-2 3h-2l-3 3-2-9-3-2-1-8-5-1-3 3-2-2-5 5-9-2-1-5-10 5-7 1 1 1-2 2-2-1v-2l-3-1-1 3-13 2-5 3-7-1-3-3-3-1-1 3-6 2-4 6-3-1-3-3v15h-1l-1-94-8 1-6 2-28 4-10 1h-59l-25-2-10-2 9 17 11 25 6 16 2 12 2 6-1 2-5 1-4-5-4-8v-2l-5-1-3-4h-2l-2 6h-2l-1 6h-2l-1 7-3 3-5-2-1 2h-2l-9-25-11-24-13-24-12-18-3-4 1-5 9-11 11-15 4-6 7 1 22 6 24 4 19 2h44l30-3 26-5 22-6 18-6 27-13 15-10z" fill="#1b0089"/><path d="M542 647h115l1 10v64l11 9 10 9 10 12 9 16 6 15 3 11 2 17-1 23-4 17-7 16-6 11-9 12-12 12-10 7h-2v61l-1 23-1 1-12 1h-89l-15-1-2-1-1-83-12-9-5-4-9-11-9-12-8-17-4-12-3-15v-26l3-16 6-17 9-16 8-10 10-11 13-10h2v-75z" fill="#6b0f60"/><path d="M308 647h115v328l-7-1-33-11-21-9-17-8-22-13-14-10-2-2V648zM774 647h114l1 1v271l-3 5-18 12-18 10-27 13-30 11-17 5h-3V648z" fill="#671060"/><path d="M0 168l6 1 1 2 4 1v3l4-1v3h5l3 4v3l5 2 5 1 6 1 2 4h10l1-1 10-1 3-1 2 1h8l7-3 13-3 5-1 6 4 9 4 5 2 8 3 7 3v-8l3-3 4 1 11 17 12 21 8 16 4 9-1 5-3 1v3l-4-2-3-4-3-1v-3l-5 3-5-1v5l-4-1-10 5-6 1-5 3-6-1-1 2-3-2-3 2h-5l-3 2-9 1-1 1H86l-5-2-5 1-3-1-6 1h-3l-5-1-15 2-5 1-11-3-1-1H15l-2 3H3l-3-1z" fill="#3a0075"/><path d="M757 157l5 2 19 10 12 5 2 3v319l-1 1-35 1-3-1V158zM711 179h4v317l-1 1h-38V192l8-3 25-9zM837 188l35 5 2 1 1 80v222l-1 1-36 1-2-1V189zM259 398h105l1 1v96l-1 2H230l-1-2 8-19 9-28 7-27 4-20z" fill="#fefffe"/><path d="M1195 147h1v97l-4 6-7-6-12 3-6-1v-2l-11 1-7-5h-5v2h-8l-3-1-3 2-4 1-5 2-14-1-9 1-7-3-8-1-4-2-13-2-9-7-6-3h-3l-3 3h-4l-7 8-6 4-2 3h-2l-1 3h-1l1-7 11-22 8-13 14-21 7-10 2-3v3l10 1v2l4-1 7-3 4-1 5-3 7-3 2-2h9l4-2 11-2 4-4 2 1v2l6 2 4 3v-3l10-3 16-6 4-2 8 1 3-1v-2l5-1 2-1 3 1z" fill="#3a0075"/><path d="M479 398h114l2 2v96l-1 1H478l-1-1 1-97zM361 187l4 1v88l-1 8-5 1H257l-3-3-8-27-9-25-15-32-3-5v-2l21 2 14 1h59l32-4zM478 178l5 1 36 12 27 6 23 3 24 1 2 4v78l-2 2H479l-1-1zM629 200h5l1 296-1 1h-33V202l1-1z" fill="#fefffe"/><path d="M679 885l1 2h2l-2 4-10 10-10 7h-2v61l-1 23-1 1-12 1h-89l-15-1-2-1-1-83-5-4 1-5 6-2 5 1-2 6 10 5 20 7 16 3h20l20-4 15-6 15-8 14-12 3-3z" fill="#681060"/><path d="M973 191l4 1-11 21-12 29-7 21-7 28-4 26-1 8v47l4 32 6 28 7 24 9 26 5 12v3h-49l-1-1V196l2-1 39-2zM690 521h45l11 2 9 6 6 7 3 8v8l-4 10-4 7v2l4 2 6 9 1 4v9l-3 11-8 11-8 4-13 3-25 1h-23l-5-1V522z" fill="#fefffe"/><path d="M477 177l4 1h-3v30l-1 58-2 3h-2l-3 3-2-9-3-2-1-8-5-1-3 3-2-2-5 5-9-2-1-5-10 5-7 1 1 1-2 2-2-1v-2l-3-1-1 3-13 2-5 3-7-1-3-3-3-1-1 3-6 2-4 6-3-1-3-3v15h-1v-74l1-21 6 2v3h3v3h2v-2l6-5 18-1h18l1-1 13-1 5 1 6 2 6 4 5-1 4 2h3l2-2 1 4 3 2v-7l3-7 4-2z" fill="#3a0075"/><g fill="#fefffe"><path d="M612 812h11l10 4 7 7 3 6v15l-7 14-12 12-14 9-16 7-20 6-21 4-21 2-8-7-10-11-9-14-1-3 1-1 12-2 12-5 9-6 8-9 15 5h12l12-5 8-7 5-7 4-9 4-3z"/><path d="M606 755h15l15 4 16 8 11 7 10 8 6 5 7 8 9 11 6 12 1 5v8l-4 18-3 8-3-3-6-8v-2l-12-6-3-1-21-1-5-14-7-9-12-6h-14l-10 4-5 1-7-7-6-11-1-6v-9l4-11 7-8 8-4z"/><path d="M585 711h3l-2 5-4 9-1 8 4 12 6 8-1 4-8 9-3 7-1 6v10l3 11 7 10v2h2v2h2v2h2l1 6-6 8-9 7-10 4-10-1-12-6-8-9-6-12-4-16v-30l3-18 6-20 10-7 15-6 15-4zM658 840l9 1 10 4 9 7 4 7v7l-6 11-12 14-10 9-13 8-15 7-15 4-11 2h-20l-20-4-25-10-2-4 30-5 21-6 19-8 14-9 10-9 6-7 9-16zM580 519h20l10 4 10 7 8 10-1 4-16 10-5-4-5-5-4-2h-12l-8 5-5 7-2 6-1 7v9l2 10 6 10 8 5h11l8-4 4-6 3-1 17 10-1 5-7 9-8 6-9 4-4 1h-18l-10-3-10-7-6-7-7-14-3-14v-18l3-14 6-12 8-9 10-6zM429 522h74l1 5-1 15-1 1-50 1-1 15h13l18 1v20l-1 1h-30v43l-2 1h-16l-4-1z"/><path d="M597 711h9l19 3 17 6 13 7 14 11 11 11 9 14 7 14 4 13 3 15-1 3-6-8-9-11-7-8-11-9-9-7-15-8-15-5-11-2h-15l-7 1-5-4-5-10v-13l6-9zM528 737l1 4-4 23-1 24 2 16 4 14 6 11 5 8-2 5-9 7-11 5-8 2h-10l-3-6-4-16-1-7v-24l3-15 6-16 9-16 11-14z"/></g><path d="M991 173l7 1 2 2h3l4 4 2 1 1-3 5-1 1 6v7h3l3-5 5-4h7l-7 12-10 16-14 27-5 12-3 1-2 3h-2l-1 2-2-5-3-15-3-2v-2h-7l-3-1-1 3-4 4h-2l-2 6-5 6-3 8-6 4v-7l8-21 10-23 9-17h-9l3-5 7-2h7l-1-9z" fill="#3d0074"/><path d="M216 194l1 2 6 2 15 32 7 19 2 12 2 6-1 2-5 1-4-5-4-8v-2l-5-1-3-4h-2l-2 6h-2l-1 6h-2l-1 7-3 3-5-2-1 2h-2l-9-25-11-24-10-18v-3l5 1 5 6 5 1v-2h2v-5l6-2 8 1 2 1v-2h5l-1-6z" fill="#3c0075"/><path d="M886 178l14 1 7 2 3-1v2l4 1 2 4 14 1 5 2h7v2h24v1l-23 2-28 1v58l-2 2-3-3-3-10-5-8-1-6-4 1-3-5-2-1-6 18-3 8-1 5-4 5-2 2-1-67-2-2-16-2v-1l13-1 5-3 6-1 3-6zM647 181l4 1v4h4v2l5-3h2l1-3 1 4 3 1v2l10 2-2 1v70h-2v-2h-3l-3-7-3-9-4-5-2-7-5 1-1-1-3 12-4 7-3 10h-2l-1 4-3 3-2-67-25 1-7-1 1-3h13l10-2 9-6 6 2v-6l2-3z" fill="#3b0075"/><path d="M732 178l8 1 5 1 4 4 5 9 1 4v63l-3-4-1-2 1-2-3-1-4-8-3-3-3-5h-3l-2-4h-2l-2 10-5 7-5 13-4 3v-81l3-2 7 1 3-3z" fill="#3a0075"/><path d="M813 180l14 4 1 3 7 1v73l-2-2v-4h-3l-4-7-1-7h-2l-4-8-1-3h-3l-1-2h-2l-3 13-4 8-2 5h-2l-1 6-4 3v-69h3l5-1 1-7 4-5z" fill="#390076"/><path d="M758 625l5 3v-2h2v4h2l-1 5-9 3-6 1h-63l-13-1-2-4 3-3 23-2 42-2h9l1-1z" fill="#a80056"/><path d="M705 579h29l7 3 3 5v8l-5 6-6 2h-28l-1-1v-22z" fill="#a10157"/><path d="M567 1054l15 7 8 3 13-2 2 1h11l1 1 1 2-1 2h2l1 4-6 7-11 9-4 3-4-1-9-8-1-5h-3l-4-4-5-4-4-8-3-3z" fill="#15418c"/><path d="M448 628h10l9 3h9l8 1 24 1 2 1v2l2 1-5 2h-60l-19-1-2-1v-2h-2l-1-3 2-2 11-1z" fill="#a80056"/><path d="M704 541h27l7 3 2 3v6l-4 5-3 1h-29z" fill="#a20156"/><path d="M571 555h5l2 3-1 4-1 3 1 7v15l7 4h15l2 5 1 4-6 3h-11l-9-6-6-10-2-10v-9l2-10z" fill="#a50056"/><path d="M223 630h28l16 1 3 1 3-1 6 2v2l-7 3-2 1h-57l-6-1v-4l7-1zM919 631l22 1 10-1h16l10 2 1-1h6l2 1-1 5-2 1h-69l1-6zM617 624l5 4 2 5-5 2-8 3-1 1h-32l-8-4-6-2 1-2 13-1 16-1v-1h5l2 1 12-2 3 1z" fill="#a80056"/><path d="M618 752h11l4 2v2l9-1 16 8 10 7 10 9 4 4-1 1 5 5 4 6 2 1 2 6-5-5-4-3-6-5v-2l-4-2-9-8-15-10-15-7-15-4-15-1v-2h11z" fill="#9c0357"/><path d="M646 719l12 2 11 9 10 9 10 12 7 12 2 9 1 3-2 3-2-3-2-2-7-14-9-12-10-10-15-11-3-3v-2h-3z" fill="#a00257"/><path d="M451 544h19l3 1v2h4l2 5-4 4-3 2-21 1z" fill="#a70056"/><path d="M135 577l2 2 2-1v2l2 1-1 5-2 3-1 10-1 2h-2l-1 3-6-2 1-4-4-1-1-2-1 4-4-2 2-5 7-8 3-1 3-4h2z" fill="#a50056"/><path d="M679 885l1 2h2l-2 4-10 10-10 7h-2v2l-8 2-5-1v-2l14-8 13-11 3-3z" fill="#4f036e"/><path d="M574 891l4 1-15 4h16l-4 2-21 4-12 1 1-4h-6l-1-2 24-3z" fill="#710d5f"/><path d="M582 724l3 1 2 2v13l3 5-1 4-5-4-4-12 1-8z" fill="#a20157"/><path d="M679 885l1 2h2l-2 4-5 5h-5v2l-6 5-3-1 14-15z" fill="#47046f"/><path d="M158 659h1l2 33v10h-1l-1 11h-1z" fill="#a80056"/><path d="M599 233h1v37l-2 7-2 2v-17l2-3z" fill="#3a0076"/><path d="M548 1079l4 2 13 11 14 11 3 4-4-2-14-11-14-12z" fill="#720d5f"/><path d="M520 1056l5 2 10 9 11 9 2 3-4-2-13-10-3-1-3-5-6-2z" fill="#710e5f"/><path d="M539 898l5 1-3 3-4-1v2h2v6l-5-2-2-4 1-3z" fill="#420272"/><path d="M597 465h1l1 9v20l-2 2-1-2v-13z" fill="#a80056"/><path d="M578 891h2v2h-3v2l2 1-13 1h-3l-2-2z" fill="#3b0075"/><path d="M592 544h6l7 3-1 4-5-1v-2l-6-1z" fill="#a50056"/><path d="M962 168l6 1-2 2-12 2-1-2z" fill="#3a0076"/><path d="M623 750l11 2 7 3-4 1h-4v-2l-9-2z" fill="#740d5e"/><path d="M651 1075v3l-2 1-1 3-4 2-1 2-5 1 4-5z" fill="#700e5f"/><path d="M672 895l2 2-8 7-4 2-1-3 5-1 2-4h2v-2z" fill="#6e0e5f"/><path d="M626 812h7v2l3 1-1 4-6-4-3-1z" fill="#a10157"/><path d="M757 565l4 1 1 2-1 3-3 1-3-3z" fill="#a50056"/><path d="M567 896h12l-4 2-11 2z" fill="#760c5e"/><path d="M980 170h4l-2 7-4 3v-5z" fill="#3a0076"/><path d="M570 582l3 4 3 6-1 3-5-8z" fill="#730d5e"/></svg>