<svg height="2500" width="2500" xmlns="http://www.w3.org/2000/svg" viewBox="-0.467 -0.258 2048.7250000000004 2051.408"><path d="M999.77-.203l5.517-.021c5.842-.02 11.684-.025 17.525-.026l3.017-.001C1055.985-.258 1085.967.008 1116 3l2.719.264c53.345 5.198 106.022 14.116 158.011 27.167 2.21.554 4.423 1.103 6.635 1.652C1345.717 47.63 1405.943 70.634 1464 98l3.404 1.598c14.58 6.862 28.87 14.08 42.94 21.931a652.048 652.048 0 0 0 8.031 4.362c35.333 18.95 68.94 40.93 101.625 64.109l2.345 1.66c16.463 11.69 32.303 24.12 47.915 36.916 1.56 1.276 3.124 2.546 4.69 3.815 10.47 8.499 20.683 17.278 30.62 26.394a288.039 288.039 0 0 0 6.18 5.465c9.631 8.39 18.843 17.246 27.814 26.335 3.381 3.411 6.881 6.595 10.549 9.698 1.875 1.706 3.478 3.482 5.114 5.416 3.727 4.313 7.706 8.312 11.773 12.301 4.645 4.556 9.11 9.176 13.356 14.107 2.434 2.803 4.98 5.498 7.519 8.205 4.538 4.874 8.818 9.891 12.988 15.086 2.096 2.552 4.277 4.985 6.512 7.414 3.978 4.37 7.634 8.924 11.253 13.59 3.597 4.632 7.281 9.186 10.997 13.723 5.302 6.499 10.436 13.095 15.375 19.875l1.452 1.99c11.494 15.791 22.844 31.67 33.548 48.01l1.291 1.966c18.282 27.884 35.064 56.591 50.709 86.034l1.616 3.025c8.738 16.387 16.74 33.052 24.384 49.975l1.445 3.187C1984.004 658.53 2003.513 715.167 2018 773l.563 2.237c13.71 54.512 22.55 110.129 27.124 166.138l.185 2.251c1.496 18.469 2.288 36.904 2.331 55.433l.021 5.6c.02 5.927.025 11.852.026 17.778l.001 3.06c.007 28.745-.082 57.357-2.998 85.983-.27 2.68-.522 5.363-.773 8.045-7.836 83.295-25.589 165.646-190.863 506.273-1.72 2.342-3.432 4.69-5.144 7.038-9.105 12.456-18.498 24.627-28.309 36.535a793.904 793.904 0 0 0-4.266 5.227c-8.654 10.684-17.7 21.037-26.933 31.222a391.487 391.487 0 0 0-5.278 5.992c-7.7 8.817-15.682 17.345-24.059 25.523a136.99 136.99 0 0 0-8.03 8.595c-3.535 4.086-7.366 7.738-11.348 11.382-4.842 4.48-9.615 8.994-14.25 13.688-3.502 3.538-7.065 6.903-10.852 10.133-2.18 1.895-4.303 3.847-6.42 5.813a300.495 300.495 0 0 1-16.091 13.882c-2.561 2.11-5.008 4.3-7.45 6.547-4.374 3.982-8.932 7.642-13.604 11.264a490.666 490.666 0 0 0-11.303 9.053c-8.555 7.044-17.37 13.687-26.347 20.183-2.292 1.66-4.58 3.329-6.864 5-10.948 7.986-22.09 15.634-33.382 23.125l-2.583 1.718c-12.554 8.342-25.139 16.589-38.104 24.282l-2.824 1.682A1086.999 1086.999 0 0 1 1507 1928l-2.63 1.41c-47.748 25.543-97.29 46.656-148.475 64.248a1614.781 1614.781 0 0 0-10.524 3.67c-73.545 25.523-151.29 40.191-228.657 47.415-2.56.242-5.119.498-7.677.757-56.598 5.65-116.113 5.255-172.701-.275-2.365-.228-4.73-.44-7.096-.647-75.042-6.613-149.72-21.94-221.24-45.578l-2.55-.84c-62.802-20.687-124.615-46.574-181.938-79.723-3.035-1.736-6.102-3.41-9.176-5.078-19.866-10.828-38.773-23.196-57.586-35.734l-2.51-1.672c-10.212-6.808-20.309-13.743-30.24-20.953l-2.573-1.863C405.93 1841.876 390.758 1830.214 376 1818l-5.313-4.313a665.95 665.95 0 0 1-28.25-24.464 318.938 318.938 0 0 0-6.312-5.598c-9.082-7.92-17.77-16.19-26.238-24.76-2.934-2.956-5.88-5.81-9.075-8.49-3.768-3.195-7.021-6.805-10.316-10.472-3.784-4.19-7.731-8.185-11.746-12.153-4.155-4.115-8.207-8.24-11.988-12.707-1.853-2.149-3.771-4.23-5.701-6.309a300.46 300.46 0 0 1-13.877-16.082c-2.178-2.645-4.437-5.184-6.747-7.715-3.575-3.932-6.946-7.97-10.234-12.144a557.582 557.582 0 0 0-4.844-6.055c-7.752-9.571-15.174-19.371-22.514-29.262-1.7-2.282-3.416-4.55-5.138-6.816-11.207-14.842-21.354-30.41-31.574-45.94-1.46-2.215-2.925-4.426-4.39-6.638C122.287 1518.189 90.375 1453.001 65 1386l-.81-2.134c-30.433-80.445-50.425-165.217-60.44-261.491l-.234-2.397C2.941 1113.99 2.455 1107.998 2 1102l-.264-3.387c-1.736-22.855-2.081-45.65-2.052-68.565.005-3.887-.002-7.775-.02-11.662C-.467 990.135.619 962.152 3 934l.317-3.76a727.833 727.833 0 0 1 1.933-19.178l.31-2.787c7.4-66.185 21.127-131.928 41.787-195.263.657-2.025 1.305-4.053 1.95-6.081C64.967 657.699 85.42 610.423 108 564l1.292-2.67c6.227-12.845 13.086-25.26 20.181-37.643a645.327 645.327 0 0 0 5.285-9.53C144.352 496.62 155 479.682 166 463l1.215-1.854a966.424 966.424 0 0 1 61.345-83.39c1.284-1.565 2.56-3.137 3.835-4.71A710.193 710.193 0 0 1 258 343.216c1.796-1.99 3.56-4 5.312-6.028a460.983 460.983 0 0 1 23.47-24.937 110.27 110.27 0 0 0 5.53-6.063c6.919-8.065 14.633-15.578 22.731-22.449 2.422-2.15 4.68-4.434 6.957-6.738 3.49-3.528 7.046-6.874 10.816-10.098 2.192-1.91 4.328-3.873 6.458-5.85a301.226 301.226 0 0 1 16.074-13.868c2.645-2.178 5.184-4.437 7.714-6.747 3.91-3.553 7.924-6.897 12.075-10.164a419.274 419.274 0 0 0 6.383-5.171c9.463-7.807 19.196-15.158 29.118-22.371a511.634 511.634 0 0 0 6.632-4.954c14.869-11.223 30.444-21.4 46-31.637 2.254-1.485 4.503-2.977 6.753-4.468C536.343 117.982 609.123 83.238 684 57l2.048-.718C721.418 43.917 757.485 33.417 794 25l2.112-.487C862.569 9.267 931.514-.041 999.77-.203z" fill="#2e26ff"/><path d="M1021.403 562.74c2.726.01 5.452 0 8.179-.013 13.796-.013 27.063 1.075 40.48 4.523l2.553.653c12.915 3.44 26.761 8.368 34.385 20.097 3.889 6.804 3.42 13.672 3.38 21.33a2292.638 2292.638 0 0 1 .011 16.658c-.006 4.428.005 8.856.013 13.284.012 7.765.014 15.53.007 23.294-.009 11.546 0 23.092.01 34.638.02 20.62.023 41.239.018 61.858a94329.834 94329.834 0 0 0 .007 72.326c.01 33.892.016 67.783.008 101.675l-.001 3.874-.008 31.142c-.01 40.495-.002 80.99.022 121.486a187043.887 187043.887 0 0 1 .029 154.585c-.002 18.034.005 36.069.019 54.103.015 20.504.015 41.009-.002 61.513-.01 11.48-.009 22.96.009 34.44.01 7.665.006 15.328-.01 22.992-.008 4.37-.01 8.74.005 13.109.013 3.975.009 7.95-.01 11.926-.004 1.429-.001 2.858.009 4.287.066 9.648-.941 16.993-6.848 24.785-2.922 2.952-5.724 4.811-9.356 6.82l-3.449 1.945c-8.29 4.282-16.607 6.8-25.738 8.618l-3.027.642c-12.76 2.61-25.494 2.91-38.473 2.92l-2.403.002c-25.32-.034-57.164-1.916-76.671-20.42-4.651-5.495-6.675-11.622-6.68-18.742l-.01-3.771.005-4.175-.007-4.429c-.007-4.085-.007-8.17-.006-12.255 0-4.433-.006-8.867-.011-13.3-.01-8.806-.014-17.612-.016-26.418-.003-10.543-.011-21.086-.02-31.628-.021-25.484-.032-50.969-.04-76.453l-.015-36.15a487565.316 487565.316 0 0 1-.042-131.457v-3.89l-.004-19.519v-3.912c-.009-41.878-.032-83.756-.065-125.635a189633.907 189633.907 0 0 1-.058-147.318v-3.623c-.003-19.263-.019-38.527-.04-57.79-.02-19.352-.025-38.703-.016-58.054.006-11.505 0-23.01-.022-34.515-.014-7.68-.013-15.358 0-23.037.007-4.38.008-8.759-.01-13.138-.015-3.983-.012-7.966.006-11.949.003-1.433 0-2.866-.011-4.299-.072-9.872.894-16.12 7.261-23.875 7.596-7.169 19.267-11.843 29.25-14.5l2.61-.766c14.686-4.048 29.651-4.566 44.793-4.495z" fill="#fdfdff"/><g fill="#fefeff"><path d="M1387.2 561.758c6.861 7.145 7.466 17.708 8.507 27.05.399 3.572.83 7.14 1.258 10.708l.26 2.184c.8 6.66 1.763 13.293 2.775 19.925 2.67 17.63 4.981 35.307 7.223 52.996.425 3.356.85 6.711 1.277 10.067l.321 2.532a1435.72 1435.72 0 0 0 4.732 34.076c1.593 10.54 2.993 21.101 4.385 31.669.737 5.598 1.487 11.194 2.25 16.789 2.08 15.283 4.12 30.569 6.058 45.87 1.635 12.914 3.355 25.803 5.307 38.674 1.593 10.539 2.993 21.1 4.385 31.667.737 5.598 1.487 11.194 2.25 16.789 2.08 15.283 4.12 30.569 6.058 45.87 1.635 12.916 3.357 25.806 5.307 38.678 2.45 16.23 4.543 32.509 6.6 48.792.406 3.219.814 6.437 1.222 9.656l.312 2.46c1.777 13.989 3.739 27.945 5.763 41.899a1700.01 1700.01 0 0 1 5.152 38.752A850.453 850.453 0 0 0 1472 1153.5c1.548 10.162 2.876 20.337 4.115 30.54 1.465 12.012 3.148 23.986 4.885 35.96 1.833 12.632 3.586 25.266 5.125 37.938 1.16 9.544 2.427 19.057 3.875 28.562 1.548 10.162 2.876 20.337 4.115 30.54 1.465 12.012 3.148 23.986 4.885 35.96a2117.336 2117.336 0 0 1 6.559 49.466c.629 5.036 1.32 10.063 2.016 15.09 1.133 9.185 1.705 16.394-3.762 24.24-17.904 21.762-53.753 29.096-80.35 31.988-4 .35-7.989.398-12.002.42l-2.679.016c-1.86.01-3.72.016-5.581.02-2.798.01-5.595.041-8.392.073-17.85.105-37.078-1.48-50.809-14.313-7.303-8.093-7.522-21.74-8.707-32.11-.403-3.52-.83-7.037-1.258-10.554l-.26-2.148c-.805-6.581-1.77-13.134-2.775-19.688-1.602-10.497-2.966-21.012-4.25-31.551a928.31 928.31 0 0 0-3.75-27.449c-1.601-10.497-2.966-21.012-4.25-31.551a928.962 928.962 0 0 0-3.75-27.449c-1.548-10.162-2.876-20.337-4.115-30.54-1.465-12.012-3.148-23.986-4.885-35.96-1.833-12.632-3.586-25.266-5.125-37.937-1.16-9.545-2.427-19.058-3.875-28.563-1.548-10.162-2.876-20.337-4.115-30.54-1.465-12.012-3.148-23.986-4.885-35.96-1.833-12.632-3.586-25.266-5.125-37.937-1.16-9.545-2.427-19.058-3.875-28.563-1.548-10.162-2.876-20.337-4.115-30.54-1.465-12.012-3.148-23.986-4.885-35.96-1.833-12.632-3.586-25.266-5.125-37.937-1.16-9.545-2.427-19.058-3.875-28.563-1.548-10.162-2.876-20.337-4.115-30.54-1.465-12.012-3.148-23.986-4.885-35.96-1.833-12.632-3.586-25.266-5.125-37.937-1.16-9.545-2.427-19.058-3.875-28.563-1.548-10.162-2.876-20.337-4.115-30.54-1.575-12.915-3.409-25.786-5.277-38.661a1669.353 1669.353 0 0 1-5.271-39.62c-.775-6.384-1.631-12.734-2.68-19.079-4.306-26.186-4.306-26.186.406-34.287 1.417-1.735 1.417-1.735 2.937-3.313l1.363-1.703c19-21.799 57.196-27.829 84.32-29.977 24.1-1.585 52.603-2.479 72.516 13.438zM714.875 548.563l2.722.007c14.81.06 28.912 1.192 43.403 4.43l2.268.47c21.098 4.374 46.057 12.599 59.357 30.655 4.25 9.143 1.041 23.646-.25 33.188-.178 1.363-.355 2.727-.531 4.091-1.746 13.352-3.696 26.676-5.627 40.002a1448.773 1448.773 0 0 0-4.342 32.532 1062.426 1062.426 0 0 1-4.38 31.876c-1.364 9.057-2.506 18.134-3.61 27.227-1.575 12.916-3.41 25.79-5.278 38.667-1.7 11.73-3.303 23.464-4.732 35.23a1062.426 1062.426 0 0 1-4.38 31.876c-1.364 9.057-2.506 18.134-3.61 27.227-1.575 12.916-3.41 25.79-5.278 38.667-1.7 11.73-3.303 23.464-4.732 35.23a1062.426 1062.426 0 0 1-4.38 31.876c-1.364 9.057-2.506 18.134-3.61 27.227-1.575 12.916-3.41 25.79-5.278 38.667-1.7 11.73-3.303 23.464-4.732 35.23a1062.426 1062.426 0 0 1-4.38 31.876c-1.364 9.057-2.506 18.134-3.61 27.227-1.575 12.916-3.41 25.79-5.278 38.667-1.7 11.73-3.303 23.464-4.732 35.23a1062.426 1062.426 0 0 1-4.38 31.876c-1.364 9.057-2.506 18.134-3.61 27.227-1.575 12.916-3.41 25.79-5.278 38.667-1.7 11.73-3.303 23.464-4.732 35.23a1057.832 1057.832 0 0 1-4.371 31.817c-1.74 11.55-3.159 23.136-4.574 34.73L712 1433l-.25 2.032c-.25 2.027-.507 4.052-.766 6.077l-.454 3.609c-1.275 7.892-3.782 13.721-10.116 18.75-16.383 10.392-35.31 10.926-54.039 10.845l-2.69-.007c-12.785-.05-25.188-.371-37.685-3.306l-2.755-.618c-21.155-4.827-49.5-12.308-61.87-31.944-5.283-12.98-.018-30.62 2.065-43.796.915-5.953 1.71-11.921 2.497-17.892l.496-3.738a3918.82 3918.82 0 0 0 2.72-21.106 34182.048 34182.048 0 0 1 1.534-12.117c1.777-13.988 3.739-27.944 5.763-41.898a1700.01 1700.01 0 0 0 5.152-38.752c1.145-9.344 2.485-18.647 3.903-27.953 1.364-9.057 2.506-18.134 3.61-27.227 1.575-12.916 3.41-25.79 5.278-38.667 1.7-11.73 3.303-23.464 4.732-35.23a1062.426 1062.426 0 0 1 4.38-31.876c1.364-9.057 2.506-18.134 3.61-27.227 1.575-12.916 3.41-25.79 5.278-38.667 1.7-11.73 3.303-23.464 4.732-35.23a1062.426 1062.426 0 0 1 4.38-31.876c1.364-9.057 2.506-18.134 3.61-27.227 1.575-12.916 3.41-25.79 5.278-38.667 1.7-11.73 3.303-23.464 4.732-35.23a1110.365 1110.365 0 0 1 4.378-32.01c2.464-16.348 4.578-32.744 6.65-49.146.406-3.219.814-6.437 1.222-9.656l.312-2.46c1.777-13.989 3.739-27.945 5.763-41.899a1700.01 1700.01 0 0 0 5.152-38.752c1.144-9.333 2.48-18.625 3.898-27.92 1.316-8.723 2.433-17.463 3.5-26.219 1.363-11.172 2.86-22.314 4.573-33.439.809-5.275 1.563-10.543 2.17-15.846l.358-3.021c.216-1.846.416-3.694.597-5.544.829-6.96 3.292-11.971 8.118-17.068 15.809-11.494 34.237-12.65 53.059-12.52z"/></g></svg>