<svg height="1067" viewBox="0 0 1080 1080" width="2500" xmlns="http://www.w3.org/2000/svg"><path d="m0 0h1080v1080h-1080z" fill="#fff" visibility="hidden"/><path d="m74.875 541.575h104.75v7.25h-104.75zm825.5 0h104.75v7.25h-104.75zm-657.75-178h50v137.5h-50zm49.75 227h-50v125h228.5v-37.5c-44.25 28.5-178.5 30.5-178.5 30.5zm279.5-112.75c21.5-94.5 85-117.75 149.25-110.5 39.5 4 84.5 30 107 49l2-36.5s-109-49-217.5-3.25c-59.5 29.25-86.25 75.5-95 124.5h50.75c.75-7.5 2-15.25 3.5-23.25zm213.25 219.75s-59.75 29.25-115.5 8.75c-37.75-14-81.25-50.5-97.25-115.75h-52.25c17 60.5 70.75 124.5 167.75 131.75 102 5.5 147-28 147-28v-103.75h-50v107zm-539-137.75-.25 1 1-.25c2.75-.5 6.5-.75 11-.75 1.5 0 3.5.25 6.5.5s5.25.5 6.75.5c3.75 0 6.75-.25 9-.75h.25l1.25-4.5-1 .25c-2.5.5-6 1-10.5 1h-19.75v-31.25c0-2 0-3.5.25-4.5l.25-.75h-5l.25.75c.25 1 .25 2.5.25 4.5v29.5c0 2.25 0 4-.25 4.75zm54.5-34.5v17.75c0 7 3.5 12.5 9.25 15.5 3 1.5 6.25 2.25 10 2.25s7.25-.75 10-2.25c6-3 9.25-8.5 9.25-15.5v-17.75c0-1.75 0-3.25.25-4.5v-.75h-4.25l.25.75c.25 1.25.25 2.75.25 4.5v17.75c0 4.25-1.5 7.5-4.25 10-3 2.5-6.75 3.75-11.25 3.75-3 0-5.75-.5-8-1.75-2.25-1-4-2.75-5.5-4.75-1.25-2-2-4.5-2-7.5v-17.75c0-1.75 0-3.25.25-4.5v-.75h-5l.25.75c.25 1.25.5 2.75.5 4.75zm60 33.5-1.25 1h6l.25-.25c.75-1 2-2.5 3.75-4.5l11.75-12.75 11.75 12.75c2 2 3.25 3.75 3.75 4.5l.25.25h6l-1.25-1-4.5-4.5-13.5-14.5 13-14 4.5-4.5 1.5-1h-6l-.25.25c-1.75 2-3 3.25-3.75 4l-11.75 12.5-11.25-12c-2.25-2.25-3.25-3.75-3.75-4.5l-.25-.25h-6l1.25 1c1 1 2.5 2.25 4.5 4.5l13 14-13.5 14.5c-1.5 1.75-3 3.25-4.25 4.5zm62.75-33.5v17.75c0 7 3.5 12.5 9.25 15.5 3 1.5 6.25 2.25 10 2.25s7.25-.75 10-2.25c6-3 9.25-8.5 9.25-15.5v-17.75c0-1.75 0-3.25.25-4.5v-.75h-4.75l.25.75c.25 1.25.25 2.75.25 4.5v17.75c0 4.25-1.5 7.5-4.25 10-3 2.5-6.75 3.75-11.25 3.75-3 0-5.75-.5-8-1.75-2.25-1-4-2.75-5.5-4.75-1.25-2-2-4.5-2-7.5v-17.75c0-1.75 0-3.25.25-4.5v-.75h-5l.25.75c.75 1.25 1 2.75 1 4.75zm94.75 16c-2.5-1.25-5.75-2.5-9.75-3-1.25-.25-2.25-.5-3.5-.5-7.75-1.25-15.25-2.5-15.25-7.5 0-1.5.5-2.5 1.75-3.75 2.5-2.25 6.75-3.5 11.75-3.5 2.75 0 5.5.25 8.25 1s5 1.5 6.75 2.5l1 .5v-4.25l-.25-.25c-2-1-4.25-1.75-7-2.25-5.75-1.25-12-1.25-17 .25-2.75.75-4.75 2-6.5 3.75s-2.5 3.75-2.5 6c0 3.25 1.5 5.75 4.5 7.5 2.5 1.25 5.75 2.5 9.75 3 1.25.25 2.25.5 3.5.5 7.75 1.25 15.25 2.5 15.25 7.75 0 2.25-1.25 4-3.75 5.5s-6 2.25-10.25 2.25c-6.75 0-13-1.5-18.75-4.5l-.75-.5-.25 4.25.5.25c6 2.75 12.5 4.25 19.25 4.25 5.5 0 9.75-1 13-3.25 3.5-2.25 5-5 5-8.5-.25-3-1.75-5.75-4.75-7.5zm70.75-16c5-2.25 11-2.75 17.5-1.25 2.5.5 4.75 1.5 6.5 2.5l.75.5.5-4-.5-.25c-2-1-4.25-1.75-7-2.5-2.75-.5-5.5-.75-8-.75-6.75 0-12.75 2-17 5.75s-6.75 9-6.75 15c0 4 1 7.75 3 10.75s4.75 5.5 8.25 7.25 7.75 2.5 12.25 2.5c4 0 8-.75 11.5-2.25s6.25-3.5 8-6v-13.75h-20.25l-1 4.5 1-.25c1-.25 2.5-.5 4.75-.5h12v8.5c-1.5 1.75-3.5 3.25-6.25 4.25-2.75 1.25-6 1.75-9.25 1.75-3.75 0-7.25-.75-10-2-3-1.25-5.25-3.25-7-5.75s-2.5-5.5-2.5-8.75.75-6.25 2.5-9c1.75-3 4-5 7-6.25zm76.25-.5c-1-1.75-1.5-3.25-2-4.25l-.25-.5h-5l-.25.5c-.25 1-1 2.5-2.25 4.5l-16 29.5c-1 1.75-1.75 3.25-2.75 4.5l-.75 1h5.25l.25-.5c.25-.75 1-2.25 2-4.5l3-5.5h27l3 5.5c1 2 1.75 3.5 2 4.5l.25.5h5.25l-.75-1c-.75-1-1.75-2.5-2.75-4.5zm6.75 21h-23l8.75-16.5c.25-.5 1.25-2.25 2.5-4.75zm33 14-.25 1 1-.25c2.75-.5 6.5-.75 11-.75 1.5 0 3.5.25 6.5.5s5.25.5 6.75.5c3.75 0 6.75-.25 9-.75h.25l1.25-4.5-1 .25c-2.5.5-6 1-10.5 1h-19.75v-31.25c0-2 0-3.5.25-4.5l.25-.75h-5l.25.75c.25 1 .25 2.5.25 4.5v29.5c0 2.25 0 4-.25 4.75zm61.75-39 .25-.75h-5l.25.75c.25 1 .25 2.5.25 4.5v29.5c0 2 0 3.5-.25 4.5l-.25.75h5l-.25-.75c-.25-1-.25-2.5-.25-4.5v-29.5c-.25-2 0-3.5.25-4.5zm65 33.5-16-29.5c-1-1.75-1.5-3.25-2-4.25l-.25-.5h-5l-.25.5c-.25 1-1 2.5-2.25 4.5l-16 29.5c-1 1.75-1.75 3.25-2.75 4.5l-.75 1h5.25l.25-.5c.25-.75 1-2.25 2-4.5l3-5.5h27l3 5.5c1 2 1.75 3.5 2 4.5l.25.5h5.25l-.75-1c0-1.25-1-2.75-2-4.75zm-9.25-8.5h-23l8.75-16.5c.25-.5 1.25-2.25 2.5-4.75z" fill="#2b2b29"/></svg>