<svg height="2500" viewBox="0 0 2048 971" width="2500" xmlns="http://www.w3.org/2000/svg"><path d="m0 0h2048v971h-2048z" fill="#fdfdfd"/><path d="m186 2 3 4 8 14 9 11 9 10 8 8 11 9 17 13 20 13 21 12 26 13 27 11 24 8 21 5 13 2h27l2-1-12-11-10-10-7-10-8-16-3-10-1-11 3 4 6 9 11 8 17 9 26 10 47 16 46 16 35 14 33 15 28 15 24 15 18 13 15 12 14 10 17 12 15 10 19 12 25 14 23 11 24 9 22 6 18 3 11 1h27l29-3 6-2 8-12 11-12 10-9 10-6 15-5 6-1h24l15 3 11 4 11 7 12 11 9 11 6 9v2l29 3h39l25-4 21-6 19-7 24-11 24-13 19-12 24-16 18-13 12-9 18-14 15-10 21-13 26-14 30-14 30-12 30-11 71-24 25-10 16-8 11-7 8-9 3-6 1 4-3 14-6 14-9 13-12 13-11 9-1 2h25l25-4 25-7 27-10 24-11 27-14 24-15 19-14 14-12 18-18 11-15 7-14h1v13l-3 26-5 22-8 21-8 15-10 14-12 14-10 9-15 11h-2v2l-28 14-20 8-28 8-31 6-33 4-32 2-3 8-5 6-11 7-12 5-20 4h-20l-20-4-20-7-12-6 3-1 14 4 6 1h27l19-4 22-8 9-4-36-2h-10l-19 2-19 4-21 7-25 11-22 12-22 14-28 21-11 9-13 11-12 11-10 9-35 35-8 7-14 12-11 10-8 7-10 9-12 11-7 7-8 7-12 12-7 8-12 13-9 12-1 4-1 20v45l2 19 3 11 1 4h2v-17l4-20 8-24 9-20 2-1-2 9-3 12 10-15 1 3-5 16 8-13 1 3-10 30-5 22-1 7v14l7-6-2 6-8 20-3 12-1 7-7-6-9-14-7-16-5-19-2-15v-25l3-22 6-23v-2l-12 19-6 14-3 14-4 54-5 25-2-1-3-13-4 12h-1v-15l-5 9h-1l-2-46-18 18-1-3 12-46v-3l-14 14-8 7-7 6 4-16 5-19-10 10-2-4-2-11v-5h-2l-1 9-6 16-8 12-9 9-3 1-2-4-4 1-4 16-8 22-3 9-2-3-4-17v-5l-5 5-8 11-5 9h-2l-8-14-8-11-2 4-5 21-2-2-8-24-5-16-1-7-4 1-3 4-10-9-9-14-5-12-3-12-4 20-7-6-4-5 4 16 5 18-1 2-28-28v3l12 47-1 2-7-7-8-7-3-3-2 46-3-4-3-6v16l-2-3-3-9-3 12-2 1-4-18-2-17-3-44-4-16-8-16-10-16 7 27 3 21v26l-3 19-5 17-6 14-8 12-6 7h-2l-4-18-6-16-5-10 1-2 6 7h1v-13l-3-18-7-24-6-17 1-3 8 13-3-10-2-9 4 4 7 10-5-18 1-3 9 19 7 19 5 21 2 23 4-9 2-12 1-13v-44l-1-21-2-5-9-11-10-11-7-8-28-28-8-7-15-14-11-9-14-13-11-9-17-16-9-10-10-10-8-7-8-8-8-7-14-12-14-11-16-12-24-16-19-11-16-8-18-8-5-1v-2l-9-2-24-6-15-2h-24l-28 2 20 8 16 5 17 3h20l16-3 9-2-4 3-16 7-16 5-10 2-19 1-16-2-17-5-13-7-7-7-4-9-48-4-32-5-26-6-33-11-23-11-6-4h-47l-37-4-42-7-34-7-13-3 8 7 17 9 21 7 29 6 26 3 18 1h19l28-2-3 2-15 5-14 3-7 1h-18v6h11l14 1v1l-5 1h-47l-8 1 30 8 12 3v1h-9l-25-4-23-6-24-9-16-8-15-8-21-14-13-10-13-11-13-12-17-17-14-16 1-2 15 5 36 17 31 13 30 11 26 8 24 6 31 6 32 4 14 1h15l-14-10-13-12-7-7-12-16-9-16-8-21-5-19-3-19-1-12z"/><path d="m1013 273h21l17 2 13 5 14 10 15 15 10 13 4 5-6-12 10 3 18 3 10 1-4 6-8 10-1 6 12 6 33 13v4l-10 5-4 1-17 1 11 7 8 8 6 8-2 4-2 1-9-1-8-5 4 7 5 9 4 18-16-2-6-4-3-3 1 4-5-1-4-1 5 5 9 5 4 5 4 17v3l-9 3-10-1-6-3-12 24-3 7h-2l-4-9-1-4v-13l3-15 4-5 2-6 1-9 2-2v-12l-5-21 1-3 14 9-2-12-5-13-8-14 1 10 4 11 3 9-9-3h-2l2 13 1 18 1 8-1 2h-5l-3-4v-2h-2l-1 9-5 15-8 16-10 16-9 10 6-2 12-7h3l1 4 3-4 4 1-1 8-8 17-8 13h-6l1-11-4 1-5 10-7 23-3 8h-3l-1-2-1-13-7 10-8 9-6 9h-2l-9-13-8-9-4-7-1 14-4 2-5-16-6-18-5-8-4-1 2 7v5h-5l-7-10-8-16-3-8 1-5 4 1 2 2 1-4 4 1 11 7 7 2-8-8-7-10-8-14-7-16-4-13v-5h-2l-2 5-5 1-1-1 1-27 2-13 1-2-12 5 1-5 5-12 2-8v-5l-6 10-6 13-2 7-1 8 14-8 1 3-5 21-1 12 3 1 2 14 5 6 3 15v14l-4 11-3 1-15-30h-2l-5 3h-12l-6-3 2-11 3-10 5-5 8-4 3-1 1-4-9 3 1-6-6 7-4 2-6 1h-9l4-17 4-8 5-7-3 1-10 4-6-1-2-4 8-10 8-8 8-5-19-2-9-4-3-2v-3l35-14 10-5h2l-3-8-11-13v-1l26-4 12-4-2 5-3 7 9-12 12-14 10-9 11-7 9-4z" fill="#fdfdfd"/><path d="m253 203 2 1-10 7-18 10-23 10-15 5 12-1 29-7 3 1-36 12-9 2v2l21-3 20-6 5-2 3 1-14 6-19 6-30 7-9 2-1 3h34l33-4 40-7 42-9 4 1-36 12-25 7-5 4-8 3-18 10-15 8-26 12 25-5 4 1-27 12 5-1 27-8 3 1-17 9-37 13-1 1 6 1h20l18-3 25-7 28-11 26-13 20-12 14-10 2 1-10 9-17 13-14 10-7 9 12-7 2 1-12 11-11 9-10 9 12-6 18-13h3l-11 11-17 13-14 9-19 10-19 7-18 5 4 1h26l23-4 24-6 29-10 23-10 18-9 2 1-14 11-11 10-8 7-6 6 9-6 20-16 2 1-10 10-7 8-8 8 11-7 11-8 2 1-8 8-30 23v2l10-2 17-7 25-13 27-16 8-5 2 1-12 10-20 14-22 13-21 11-26 11-27 9-25 6-25 4-12 1h-14l-2-2 19-10 42-28 2 1-8 7-3 5 13-5 24-12 17-10 12-8 10-8 4-5-19 9-25 10-22 6-22 4-21 2h-35l-28-3-24-5-20-6-9-4v-1l23-1 23-3 19-5 16-6 6-3 2 1-17 10 12-1 20-6 25-11 20-8 17-9 19-13-19 9-21 8-26 7-26 4-14 1h-26l-22-2-31-6-20-6-19-8-13-7-2-3 1-1 29-2 35-5 19-4 4 1-21 8 6 1h11l22-2 28-5 29-8 21-8 16-8 9-6-33 5-21 2h-43l-27-3-24-5-30-10-25-12-18-12-13-11-5-6v-1l11 1 31 3 26 1h16l26-1 31-3 30-5 8-1-2 2-21 6-23 4-26 3-59 4 7 6 12 6 15 4 15 2v-2l-10-3-15-6v-1l10 1 23 3h35l26-3 24-5 24-7 19-7zm1539 0 6 2 17 8 22 8 26 7 22 4 16 2 18 1h12l25-2 16-3h5l-3 2-23 9h10l18-4 14-7 6-7h-22l-41-3-31-4-24-5-12-4-1-2 28 5 35 4 17 1h46l28-2 25-3-2 4-10 10-17 12-16 9-15 7-19 7-28 7-19 3-27 2h-21l-27-2-27-4-12-2 11 7 16 8 25 9 27 7 22 4 18 2 25 1v-2l-9-3-17-6 3-1 27 6 28 4 35 3-4 4-17 9-22 8-28 7-20 3-11 1h-39l-24-3-23-5-27-9-25-12 8 6 19 12 17 8 13 5 23 10 15 5 9 2 10 1v-2l-5-1-12-7 2-1 16 7 22 6 20 3 27 2-4 3-18 6-22 5-20 3-10 1h-47l-24-3-23-5-27-9-25-12-4-2 7 8 12 9 20 12 27 14 14 6-3-5-6-7 5 2 27 18 20 12 9 5v1h-23l-28-4-32-8-23-8-21-9-17-8-21-12-21-14-17-13-4-4 5 2 24 14 18 10 19 10 15 6 10 1-5-5-16-12-11-9-9-8h3l16 11 7 5-6-7-22-22h3l16 13 13 10v-1l-16-16-11-9-9-7 2-1 29 14 24 9 25 8 28 6 17 2h14l9-2-23-6-21-9-18-10-14-10-11-9-13-12h3l18 13 12 7h2l-11-9-12-11-11-9-1-2 5 2 10 6-7-9-9-7-14-10-14-12-1-2 5 2 15 10 21 12 25 12 24 9 21 6 17 3h26l3-1-34-12-19-9-3-3 9 2 28 8-29-13 4-1 22 5h3l-29-14-25-13-6-4-8-3-4-3-29-8-29-10 4-1 48 10 43 7 30 3h17l8-1 1-3-12-2-30-7-24-8-6-3 3-1 15 5 18 4 12 1v-2l-10-2-34-11 4-1 30 7 9 1-35-14-17-9-15-10zm-118 31 1 2-8 11-11 13-12 13-7 7-13 10-10 4-17 2-11 11-16 8-17 3-13 7-8 2-12 1-10 7-18 5-7 8-11 4-13 3-7 6-8 3-6 1h-11l-1 4-4 5-10 6-11 4-7 9-8 5-10 2v10l-3 10-5 6-7 3h-18l-7 7-4 2h-13l-9-3-5 1-8 5-8 2-9-1-7-4-12 6h-11l-8-4-5-6-3-7v-10l3-9 6-7 3-1-2 8v12l3 8 6 7 7 3 7-1-1-5-5-9-1-4v-13l2-2 6 12 9 10 10 6 3 1h7l2-1-2-4-6-9-1-5 8 6 2 1-7-16-1-3-17-3-10-4v-1l23-3 22-5 8-4 1-2-8-1-13-5-7-6 2-1 11 3 9 1h16l13-2 6-3 2-4-3 1h-9l-11-4-11-7 4-1 7 1h30l13-3 7-4 1-2h-9l-15-4-14-7-6-5 3-1 13 3 8 1h25l11-3 3-2-16-5-10-6-9-8 2-1 12 5 9 2 9 1h24l21-2-4 4-15 7-8 2-9 1-7 8-10 8-3 6-4 5-10 7-9 5-4 6-9 7-14 5-5 2-4 5-10 7-11 4-8 2 11 11 8 7 8 8 4 2h9l2-2-1-5-8-10-3-6 1-2 8 6-6-11 6 2 14 8 5 2h7l6-2 2-5-1-5-9-5-7-8-1-4 7 6h2l-3-6 1-3 8 5 6 2h14l6-2v-3l-12-5-8-7 1-2 10 5h6l-5-4-2-3 1-3 11 5 11 2h12l4-2 1-4-15-4-9-6-1-3 7 1-8-10 2-1 25 11 11 3h11l3-3-12-7-7-7-2-5 9 6 1-5 17 5 5 1h19l3-3-11-7-8-7-6-9 1-2 19 10 10 4 6 1h14l2-1v-2l-9-7-9-10-5-8 1-3 7 4 12 10 9 5 13 3h10l4-2v-2l-10-5-8-9-5-12-1-7 5 5 9 8 10 6 9 3 5 1h21l10-4 5-4 1-2-10-1-16-8-7-6-9-12 1-2 10 9 10 6 6 2h13l6-3 5-1 16-1 8-3 1-5-21-2-13-4-1-2h15l-19-8-10-7-3-4 9 2 20 4 10 1h16l15-2 16-5 11-6zm-1301 0 15 8 17 5 7 1h29l17-3 16-4-5 6-12 7-17 7h16l-4 3-12 3-18 1-1 4 3 3 13 2 12 1 10 4h10l12-5 13-10 2-1-2 5-11 12-11 7-13 4h-4l5 5 9 4 4 1h16l16-4 10-6 10-8 5-5-2 10-5 10-6 7-10 5h-2l1 3 2 1h15l12-3 10-7 14-11h3l-2 6-7 9-5 6-8 6h-2l1 3 4 1h9l10-2 16-7 13-6-2 5-7 8-10 8-6 4 1 2 4 1h13l16-3 10-3v5l8-6 2 1-6 8-10 7-4 2-1 3 9 1 12-2 26-11 5-2-2 4-6 8 7-1-5 6-9 4-12 2 2 5 2 1h19l10-3 8-4-1 5-6 6 7-1 8-4h2l-2 4-9 6-7 3h-3l3 4 6 2h10l11-4 4-3h2l-1 6-2 4 8-7v3l-6 8-10 6-1 4 3 5 7 3 9-2 15-8 5-2-2 5-3 6 8-6 1 2-7 11-5 6 1 5 2 1h7l5-3 9-9 8-7 9-8 1-3h-7l-13-5-9-7-6-6-11-3-10-5-8-8-1-4-6-2-11-7-7-8-2-5-11-8-6-7-15-3-13-5-8-5v-1l14 1h37l17-4 6-3 2 1-7 7-14 8-12 3-1 1 10 4 7 1h18l20-3 9-2-5 5-10 6-10 4-19 4 8 5 16 3h22l16-2-5 4-10 6-10 3-10-1 2 4 8 3 5 1h28l15-3-2 4-12 6-13 3 3 3 15 5 22 4 14 2-2 2-14 4-11 2-7 16-1 3 8-6 2-2-1 6-7 10-2 3 7 1 10-3 9-7 7-9 5-11 2 3v12l-4 11-3 4 1 4h8l8-5 5-9 1-3v-13l-2-8 7 6 4 8 1 3v10l-3 8-7 7-7 3h-8l-8-3-3-3-5 1-7 3h-11l-12-6-1-1-8 1-7 2h-9l-8-4-4-5h-18l-8-4-5-6-3-9v-10l-13-4-7-5-6-8-11-4-8-5-6-7v-2l-14-1-10-3-9-7-18-4-8-5-3-5-17-5-8-4-5-4-14-1-12-5-5-3-16-3-11-4-11-8-6-6v-2l-16-1-11-4-11-8-23-23-9-11-9-12zm134 481h22l12 13 7 8 12 14 11 12 7 8 11 13 2 1-1-41-1-16-3-5-11-3v-4h84l14 2 13 5 9 7 6 10 3 8 1 14-2 12-6 12-7 8-11 7-11 4-9 2-12 1h-39l-1-4 11-3 2-4v-70l-2-4-10-2-9 2-1 5-1 80-5 1-13-14-9-11-9-10-9-11-10-11-9-11-3-3-1 35 1 21 3 7 9 2 1 5h-34l1-5 8-2 3-6 1-13v-50l-3-7-5-3-7-2zm833-30h62l12 3 9 5 6 7 3 8v15l-4 10-6 7-10 6-2 1 1 4 9 15 11 16 9 11 8 7 6 3-1 5-15-1-10-3-9-7-9-12-14-23-4-5-9-3-9-1 1 40 3 5 13 3v5h-52v-5l13-3 3-5v-96l-3-4-12-3z"/><path d="m2041 77 4 1-9 10-7 8-9 9-4 5-8 7-7 7-11 9-17 13-17 11-16 9-23 11-27 9-22 5-23 3-4-1 42-11-1-1-57-1 4-2 20-1 1-6h-22l-20-4-17-6 3-1 17 2h38l30-3 27-5 23-7 17-8 11-8 1-2-25 6-36 7-40 6-34 3h-24l-9-1 4-2 29-2 37-5 28-6 30-8 35-12 27-11 55-25zm-2038-1 13 4 24 11 31 14 31 12 33 11 31 8 31 6 32 4 28 2-2 2h-39l-37-4-42-7-34-7-13-3 8 7 17 9 21 7 29 6 26 3 18 1h19l28-2-3 2-15 5-14 3-7 1h-18v6h11l14 1v1l-5 1h-47l-8 1 30 8 12 3v1h-9l-25-4-23-6-24-9-16-8-15-8-21-14-13-10-13-11-13-12-17-17-14-16z" fill="#010101"/><path d="m975 346h2l-2 6-4 8 7 7 8 7 12 11 8 7 4 3 7 1v10l-3 10-4 5-4 2h-29v5l7 1 13 7 10 8 8 8 8 11v2h2l2-4 10-13 9-8 14-9 9-3h2v-4h-14l-16-1-6-5-3-7-1-5v-10l8-1 15-14 8-7 12-11 3-2-2-5-4-8 1-2 8 9 3 7v10l-4 6-4 3h-4l3 7v12l-5 6-12 6-1 4 7 3 20 5 5 2-4 2-10 3-5 4-14 21-12 21-13 27-5 12h-2l-11-25-8-16-10-18-14-21-7-6-11-3-1-2 22-6 9-2v-5l-15-8-3-4v-12l3-7-5-1-5-5-2-4v-10l5-9zm-308 104 2 2 3 13 2 27v13l5 1 3 5 1 4v25l-4 27-3 15 8-11 9-17 6-18 3-16 1-9v-46l2 4 4 19 1 9v26l-3 19-5 16-8 18-10 15-9 11-9 9-4 3-2-1 1-21 3-21 4-21 1-22h-2l-2 6-9 16-10 13-11 12-13 10-16 9-1-4 7-42h6l4-18 2-5h1l1 7 1 1 12-25 2-1-3 18-5 20-6 19 8-7 10-13 9-16 7-19 4-17 2-16zm713 1h1v26l3 21 6 21 9 19 9 13 11 13 2 1-9-31-4-18v-7l3 4 10 20h1l1-8 2 1 5 21v2h6l6 34 1 11-6-2-16-10-13-12-10-11-10-15-7-13v-2h-2l1 21 6 34 1 9 1 21-5-2-15-15-10-14-10-19-6-18-3-14-1-9v-25l3-20 3-12h1v46l3 20 6 20 8 16 7 11 3 4-5-27-2-16v-25l3-8 6-1v-13l2-28 3-12zm-591 264h46l9 2 8 5 4 5 2 5v13l-4 8-8 7-5 3 10 16 10 14 8 8 5 2v5l-16-2-8-5-7-8-13-21-5-4-11-1 1 28 2 5 10 2v4h-39l1-4 9-2 2-3v-73l-3-3-8-2zm165 167 5 2-3 12-6 15-9 17-6 10 8-7 9-11 11-13 12-16 5-7 6 1 4-2-1 4-1 2h2l5-7h4l-2 4-6 8 1 3 6-7 5-8h5l-5 9-13 17-8 10-9 10-6 7-8 7-12 9-1 4 19-10 11-8 14-12 10-10 9-11 9-14 4-7 2-1h7l-1 8-8 16-8 10-9 10-13 11-15 10-21 10-14 5-11 3-11 2-4 1h-12l-6-1-7 4-4-1 12-9 10-9 10-10 13-17 9-14 9-17 3-11zm197-7 3 1 4 10 12 18 11 13 11 12 8 7 13 10 14 8 2 2-9-1-6-1-8 2h-8l-24-3-20-5-16-6-16-8-12-8-11-9-11-11-9-14-3-9 2-1h6l4 4 8 11 11 12 11 9 13 10 15 9 13 6 10 3-1-3-12-7-12-9-14-12-13-13-7-8-10-12v-2h5l7 9 4 4h2l-2-4-8-8v-2l5 1 7 6-3-6 2-1 4 2 3-2 18 18 7 8 9 9 8 7 9 7-2-4-10-13-9-15-7-15-1-4zm124-424h1l-1 16-1 9 8-21 1 4-5 25 10-25 1 3-4 21-5 40-3 35 6-3 2-2-2 12-2 20v13l1 19v15l-6-4-12-14-10-16-8-16-7-21-4-22v-34l3-19 6-22 2-3-2 24v18l2 24 5 28 7 23 8 16 4 3-4-19-3-27v-46l3-23 4-17zm-503-1 2 3 5 15 4 19 2 18v46l-3 27-4 18-1 2 5-5 5-8 6-16 6-24 4-27 1-15v-18l-2-24 2 2 6 23 3 19v33l-3 18-5 18-7 16-8 15-10 13-9 10-5 4v-15l1-19v-13l-2-20-2-12 8 5-5-54-5-33-2-12 3 4 8 20-5-25 1-3 8 20-2-17z"/><path d="m641 720h14l12 3 9 5 7 7 4 8 2 6v21l-4 12-6 8-7 6-9 4-4 1h-17l-5-3-3-6v-67l3-4z" fill="#fefefe"/><path d="m1572 376 4 4 10 14 11 12 7 8 10 9 12 10 18 13 19 11 16 8 14 4-5-5-12-10-10-8-12-11-11-13-10-16-4-7 1-2 11 13 4 3-14-22 1-2 11 12-7-11 1-2 15 16 7 8 15 16 25 25h2l-8-16-1-5 4 4 12 17 11 14 9 10 7 8 4 4v2h-13l-18-3-21-6-23-10-17-10-16-12-14-12-10-10-9-11-10-13-12-19-4-7zm-1098 1 1 2-8 14-11 16-9 11-9 10-16 16-13 10-15 10-19 10-21 8-21 5-6 1h-19l6-7 10-10 11-14 10-13 9-13 1 3-9 18 8-6 22-22 7-8 7-7 7-8 13-14v3l-5 9 9-10 4-4-2 5-12 19-1 2 5-5 9-10 1 2-9 16-11 14-16 16-14 11-11 9-2 3 15-5 16-8 14-8 16-11 16-13 12-11 12-12 11-14zm967 25h1l5 26 9 30 10 24 9 16 7 9 8 7-3-11-10-26 1-2 9 13-3-20v-8l3 4 17 33 19 37 1 1v-27h1l6 27 7 21 7 13 5 7-9-2-16-7-15-10-13-11-12-12-13-17-11-18-8-17-8-24-4-22-1-12v-14zm-835 0h1l1 7v14l-2 20-6 25-10 25-9 16-12 17-13 15-13 12-16 11-16 8-8 3-4-1 7-10 8-19 6-22 3-15h1v18l-1 9 3-3 17-34 10-19 10-20h1l-1 16-2 13 8-12 1 3-13 35 8-6 9-12 12-23 9-25 7-25zm456 279h22l17 3 8 3 3 20v8l-5 1-8-16-8-7-12-4h-20l-10 3-10 6-5 4-7 10-5 13-2 12v9l2 13 5 14 8 11 8 7 11 5 8 2h16l11-4 6-4 7-7 8-13 5 1 1 2-7 20-4 8-18 4-7 1h-23l-14-3-13-5-10-7-6-5-9-13-5-13-1-4v-22l3-11 7-14 9-10 10-7 12-6 15-4zm-483-300 1 4-6 24-8 21-12 23-10 15-10 13-12 13-13 13-14 11-14 10-18 10-21 8-11 2 6-9 10-14 10-18 5-10 1 4-4 16 5-5 14-20 12-20 11-21 2-3-1 12 3-4 15-28 3-3-3 9-15 36 4-4 7-10 1 2-12 25-8 15 5-2 10-8 14-14 13-17 12-18 10-17 13-27zm889 1 2 3 10 24 11 21 12 19 11 15 9 11 11 12 13 10 4 2-21-42 1-2 11 15v2h2l-10-23-9-21 1-3 17 32 3 3-1-11 3 4 10 20 13 21 13 18 4 5 2 1-5-17 1-3 10 19 11 17 9 12 1 2-9-1-17-6-23-12-17-12-13-11-12-11-11-12-10-13-10-15-11-20-9-23-5-17-2-9zm-257 337h46l11 4 7 8 2 6v7l-3 9-7 7-5 3h-2l7 12 11 16 7 8 7 4-1 4-15-2-9-6-9-13-9-14v-2l-14-2 1 28 4 4 7 2v3h-37l1-4 9-2 2-7v-60l-2-7-9-2zm389-380 7 6 8 8 11 9 10 9 16 12 17 12 19 11 1-1-7-9-2-3 5 2 10 7-3-5-13-13 6 2 4 2-1-6 7 4 16 12 24 16 13 8 4 1-6-11-4-7 1-2 11 13 9 10 7 7 11 9 16 11 4 4-24-3-25-6-24-8-20-9-19-10-21-14-13-10-14-12-15-14-12-13-9-11-5-6zm-1154 1v3l-12 14-11 12-17 17-11 9-14 11-15 10-17 10-25 12-22 8-28 7-19 3h-8l5-4 17-12 13-12 5-4 7-8 10-12 1 2-8 14v2l6-2 23-15 20-14 13-10 2 1-3 6 8-4 2 1-10 9-5 7 7-4 4-3 2 1-8 11 14-7 15-10 19-14 13-11 11-9 7-7 8-7zm383 542h5l-1 4-9 9-22 18h-2l2 2 18-12 14-10 10-7 6-3 5-1h38l-2 4-9 8-13 9-16 9-21 10-13 5-1 3 17-3 26-8 20-9 21-11 14-9 11-8h15l-6 7-10 9-13 9-16 9-20 8-21 6-22 4-21 2h-33v-1l21-5 21-8 5-2v-3l-6 2-18 7-10 3-3-1 29-12v-2l-9 2-12 5-4 2-8 2-9 5-2-1 12-9 13-11 12-11 14-14zm444-20 7 1 13 11 16 12 20 13 7 4-2 1-13-5-7-1-16-5-7-1-1 3 16 4 13 4v1l-10-1-20-5-7-2 1 3 21 6 14 3 12 2v1l-19 2-29 1-28-2-22-4-20-6-16-7-16-9-13-10-2-3 15-1 18 10 22 10 27 9 22 5 15 2h8l1-3-17-4-20-7-20-9-15-9-8-7v-1l28-3h16l16 8 27 15 9 4-4-4-14-9-11-8-8-7zm-1082-18h550l1 5-2 1h-549l-2-1v-4zm1137 0h548l2 4-3 2h-547l-2-2v-3zm-575-370h1l2 19v36l-3 21-5 19-6 15-8 15-9 12-11 12-11 8-1-2 5-52 2-3 2 15 4-2 4-11 2-12 2-32 1-47 3 1 5 11 3 12v-22l2 1 3 19 2 24v10l4-4 3-11 2-16zm541 1h1l2 35 3 21 3 8 2 2 4-41 2-12 2-1v22l4-14 4-8 3-2 1 47 2 32 3 17 4 8h3l2-15 2 4 3 30 2 23-5-2-13-12-9-10-8-13-8-16-5-15-4-18-2-16v-36zm-1129 210h51v5l-1 1-11 2-3 4v96l5 5 5 1h20l9-3 5-5 5-8 4-8 5 1-1 8-5 21-1 2h-88v-6l12-2 4-4 1-5v-89l-2-7-5-2-8-1-1-1zm692-229h2l6 21 3 17 1 9v26l-3 19-5 17-6 14-8 12-6 7h-2l-4-18-6-16-5-10 1-2 6 7h1v-13l-3-18-7-24-6-17 1-3 8 13-3-10-2-9 4 4 7 10-5-18 1-3 9 19 7 19 5 21 2 23 4-9 2-12 1-13zm333 0h1v64l2 19 3 11 1 4h2v-17l4-20 8-24 9-20 2-1-2 9-3 12 10-15 1 3-5 16 8-13 1 3-10 30-5 22-1 7v14l7-6-2 6-8 20-3 12-1 7-7-6-9-14-7-16-5-19-2-15v-25l3-22 6-23zm348 255h24l10 11 9 11 13 14 7 8 12 14 11 12v-51l-1-9-2-3-12-3v-4h36v4l-10 3-2 4-1 11-1 74h-5l-12-14-13-15-12-14-13-15-12-14-2-2v55l2 9 6 3 6 1v4h-35v-4l10-3 2-6 1-11v-54l-3-7-5-3-8-2zm-447-147h15l13 4 11 6 10 8 4 6 11-3h10l11 4 9 7 5 7 3 11v7l-3 10-3 5 9-2h15l10 3 8 6 4 5 1 5h-5l-7-8-10-4h-10l-11 3-10 5-5 4h-15l1-3 9-7 4-4-2-5-9-8-7-3h-8l-1 4-1 25-1 1h-5l-1-4v-15l3-9 5-6 8-4h9l7 4 4 6 3 9 5-8 2-7-1-9-3-6-4-5-9-5-4-1h-9l-10 4-6 7-4 10-2 11-5-5h-3l-1 3-3 29-1 1h-8l-1-5 3-20 5-13 7-9 7-7-5-1-4 2-7 1h-8l4-3 9-3 12-1 1-5-34 2h-9l2-3 15-4-2-5-6-9-6-4-5-1zm-145-1h8l1 2-7 3-5 5-6 11 12 2 6 3-1 2-18-1h-21l-2 3 14 2 12 5v1l-13-1-13-3 14 16 5 11 3 14 1 14h-10l-3-30v-3l-6 2-3 4-3-15-6-12-4-2-7-3h-13l-10 5-6 7-3 8 1 10 5 10 2 1 2-9 4-6 6-4 6-1 9 3 7 6 3 6 1 5v15l-1 3h-6l-1-26-2-3h-8l-8 4-6 5-3 5 2 4 11 9 2 2h-17l-8-6-14-5h-15l-10 5-4 6h-6l1-4 7-8 6-4 7-2h20l6 1-4-7-2-8v-7l3-10 6-8 7-6 10-4h14l9 4 2-5 7-7 11-7 12-5zm580-172 3 4 11 18 12 17 13 16 15 15 13 9 11 4 7 1-9-12-14-18-10-16 1-2 9 12 12 14 16 16 8 7 16 13 6 4 3 1-11-18 1-2 12 14 9 10 17 17 10 7v1h-8l-15-3-16-5-17-7-17-9-12-8-13-10-12-11-14-14-13-17-11-18-8-16-5-11zm-1005 0 1 2-8 18-8 15-12 18-9 11-11 12-8 8-11 9-14 10-15 9-19 9-24 8-18 3-4-1 10-8 10-9 10-10 9-11 8-9 1 2-9 15h3l13-10 14-12 7-7 8-7 7-8 12-14 4-6 1 2-10 16-13 16-9 13 12-3 12-6 14-12 7-7 9-11 10-13 10-15zm-141 320h26l15 3 1 1 2 17v5l-4 1-4-10-6-7-10-4h-18l-11 4-8 6-6 10-3 8-1 7v10l3 13 5 10 5 6 10 6 10 3h13l8-3 2-3v-23l-2-3-11-2-1-5h37v5l-7 2-1 4v29l-17 4-6 1h-20l-16-4-12-7-8-8-7-14-2-11 1-14 4-11 7-10 10-8 11-5zm781 1h3l11 29 15 40 7 16 5 3 6 2v3h-37l1-4 7-2-1-9-6-16v-2h-31l-3 10-4 12 1 5 9 2v4h-32v-4l9-3 4-5 12-28 18-44 4-8zm605 0h3l25 67 6 15 5 5 7 2v4h-36v-4l9-2-2-8-7-18h-30l-7 20v5l10 4v3h-32v-4l9-3 4-5 15-36 16-39 2-5zm-1029 1 4 1 18 48 12 31 4 6 9 3v4h-36v-4l8-3-1-7-7-18h-30l-7 19v6l9 3v4h-31v-4l9-3 5-8 15-36 16-39zm726 2h65l1 9v12l-5-1-4-10v-2l-10-2h-21v36l17-1 8-2 3-8h5v27h-5l-3-8-6-2-19-1 1 35 4 3h25l6-4 7-13 4 1-1 10-3 12-1 1h-70v-4l11-3 2-3v-73l-3-3-7-1z"/><path d="m260 715h65l1 6v15h-4l-4-10-1-3-10-2h-21v36l18-1 7-2 4-8h4v27l-5-1-3-7-6-2-19-1 1 34 4 4h25l5-3 6-9 3-5 4 2-4 19-2 3h-69l-1-4 11-3 2-2 1-11v-50l-1-13-3-3-7-1zm170 0h65l1 4 1 17h-5l-5-12-9-3h-22v36l17-1 7-1 3-4 2-5h4v27l-5-1-3-7-6-2-19-1 1 34 4 4h25l5-3 4-5 5-9 4 2-4 19-2 3h-69l-1-4 11-3 2-2 1-6v-62l-2-8-9-2zm427 0h35v5l-7 2 1 6 14 24 4 7 8-13 9-17 1-7-9-3v-4h32l-1 5-9 3-7 8-12 20-8 16v27l1 6 13 3-1 4h-40l-1-4 11-3 2-3v-30l-14-25-11-17-5-4-6-2zm562-255 2 4 6 27 6 18 4 9v2h3l-1-16v-13l2 3 9 28 2-3 2-10h1l5 21 5 13 3 6v2h2l-1-25 2 3 5 20 7 20 8 14 3 3-1 2-11-4-11-7-13-11-10-11-10-15-8-16-6-18-4-20-1-11zm-791-1h1v15l-2 18-5 21-6 15-8 15-8 11-9 10-9 9-10 7-14 7-4-1 7-10 7-15 7-23 3-12 1 4v20l6-12 5-16 3-13 2 3 1 10h3l2-9 7-22h1v12l-1 17 3-2 6-15 7-24zm818-215 6 2 13 6 15 5 10 2h19l9-2 1 5 7-4h12l-1 3-10 7-12 4-9 1-9 8-15 7-12 5-8 7-14 5-6 1h-11l-16-4-19-9-5-4 12 2 19 3h38l8-3 1-4h-11l-15-4-14-7-10-8-2-3 6 2 8 4 14 4 7 1 20 1 13 1 7-2 3-5-10-2-17-8-13-9-9-7zm-847 0 2 1-11 9-16 10-15 6-6 1 2 4 4 2h13l29-2 15-4 12-6 2 1-10 9-16 8-11 3h-15l4 6 9 2h30l22-3 9-2 4 1-17 9-14 5-4 1h-19l-13-4-9-6-5-4-19-8-11-7-3-3-15-3-10-5-7-6 1-2h9l8 4 2-4 13 2h11l16-3 17-6zm1050 466h3l3 3h67l4-3 3 1 1 25-5-1-4-11-3-3-4-1-19-1 1 74 2 5 5 2 7 1v4h-42v-4l12-2 1-4 1-76-18 1-7 3-4 9-2 5-4-1 1-21z"/><path d="m1381 691h9l8 2 7 4 5 6 3 8v16l-4 9-4 5-9 5-5 1h-17v-52l3-3z" fill="#fefefe"/><path d="m1818 714h39v4l-9 2-2 2-1 4v66l1 6 4 1h20l6-3 4-5 5-9 4 1-4 20-1 2h-67l1-4 9-2 2-1 1-3v-71l-1-3-11-3zm-109-528v3l-11 14 10-5 7-8 3-3-3 10-7 11-9 9-10 6-13 5-12 2h-20l-18-3-15-5-2-2 24-3 21-5 20-7 21-10zm-1379 0 4 5 8 8 6 3 1-1-10-13h3l18 10 18 8 21 7 19 4 17 2 3 2-10 4-19 4-18 1-17-2-12-4-11-6-10-9-7-11-4-9z"/><path d="m483 189h24l20 3 22 6 6 2v2l-15 5-12 2h-20l-17-3-16-5-15-6-7-3v-1zm1065 0 25 1 23 1-2 2-25 10-19 5-6 1h-27l-18-4-6-3 4-3 21-6 18-3zm9-46h5l-3 2-26 9-28 12-30 14-28 15-25 15-17 11-12 8-20 14-13 10-2-1 15-14 14-11 18-14 15-10 21-13 18-10 24-12 27-11 27-9zm-1072-1 12 2 25 7 25 9 25 11 24 12 22 13 21 14 19 14 17 14 12 11 1 2-4-2-18-13-33-22-23-14-25-14-17-9-28-13-27-11-19-7-9-3zm332 578h12l7 3 5 5 3 7v11l-3 8-7 6-6 2h-14v-39zm424 3 10 1 7 4 4 6 1 3v12l-4 8-5 4-5 2h-14v-37l2-2zm-255-286 7 2 10 9 11 13 7 10 2 5h2l2-4 10-14 12-14 9-6 4 1-13 16-10 15-13 27-1 3h-2l-12-27-12-18-11-14z" fill="#fefefe"/><path d="m1475 223 6 2 19 9 11 3h17l13-4 10-5h2l-2 6 11-2 1 3 6-2-2 4-8 6-11 5-8 2h-19l-12-3-16-8-14-11zm-903-1 2 1-10 9-10 7-16 8-14 3h-13l-13-3-13-7-6-6 1-2 6 3v-3l8 1 3 1-2-7 16 7 12 3h11l13-3z"/><path d="m1847 28 1 3-6 16-8 16-7 12-10 14-12 14-13 13-13 10-14 9-16 8-10 4-3-1 17-9 15-10 14-11 13-12 8-8 9-11 10-13 11-17 11-20zm-1646 2 3 4 11 21 8 12 14 19 12 13 6 7 8 7 12 10 21 14 17 9-3 1-21-9-15-9-12-9-14-12-12-13-12-16-11-18-9-19-3-9z" fill="#fefefe"/><path d="m975 827h15l5 2 2 2v6l-4 4 5 3 1 2v6l-4 4-6 2h-15v-2h4v-27h-3zm190-2h3v14l4-2h6l3 3 1 5v11h2v2h-9v-2h2l-1-15-4-1-4 1 1 14 2 1v2h-10v-2h3v-27h-13l1 26 4 1v2h-13v-2l3-1 1-26-8 1-3 5h-1l1-9h28z"/><path d="m733 732 2 2 11 31v2h-26l3-9zm1028 0h2l11 31v3h-26l11-30zm-605 0h2l12 33v1h-26l1-6z" fill="#fefefe"/><path d="m1296 837h15l-1 3-2 1v6l-4 4-7 1v2l11 1 3 3-1 6-6 5h-10l-4-4 2-5 2-2-3-4 3-2-2-4-1-4 3-6zm-183-12h4v30h3v2l-7 1v-2l-4 2h-6l-5-4-1-9 4-6 4-2h8l-1-8-3-3zm-212 12h8l5 4 1 2v9l-4 5-2 1h-9l-5-5-1-2v-7l5-6zm152 0h9l5 5 1 2v7l-5 6-2 1h-8l-5-4-1-2v-9l5-5z"/><path d="m1067 381 2 2-1 10-5 8-7 3h-7l-6-3-1-4 6-2 4 4 3 1 1-8 6-8zm887-78h23v7l-19 1v4h-19v-4l14-2zm-1883 0h23l1 6 11 1 3 1v4h-19v-5h-19zm909 77 6 4 6 7 2 8 2 1 2-4 5-1 3 2-2 4-7 3-9-2-6-5-3-9z" fill="#fefefe"/><path d="m1230 825h4v21l5-4v-5h10l-2 2-5 3-2 2 1 4 5 6 4 2v2h-6l-8-9-2-1v8h3v2h-10v-2l2-1 1-27-3-1zm39 12h3l1 2 3-2h6l3 3 1 15 2 1v2h-10v-2h3l-1-15h-8v15h3v2h-10v-2l2-1v-14l-2-1v-2zm-64 0h3l1 2 3-2h6l3 4v15h3v2h-10v-2h3l-1-16-8 1v15h2v2h-10l3-3v-14l-2-1v-2zm-129 0h2l1 2 3-2h7l2 3 1 15 2 1v2h-9v-2h2l-1-15h-6l-1 1-1 14h3v2h-10v-2h3l-1-15-2-2zm-155 0h4l1 16 1 1h7l-1-14-2-2 7-1 1 17 3 2-5 2h-3l-1-2-3 2h-6l-3-3-1-15-2-2zm-130 0h4l1 16 1 1h7l-1-14-2-2 7-1 1 17 3 2-5 2h-3l-1-2-3 2h-6l-3-3-1-15-2-2zm49 0h3l1 14 1 3h6l1-1v-13l-3-2 8-1v18h3v2l-7 1-1-2-4 2h-6l-3-5-1-13-1-2zm-76-10h12v2l-3 1v25h8l3-3 1-2h2l-2 8h-22v-2h4v-27l-4-1zm247 10h6l4 3v5l-2 1h-11l3 7 7 1 3-1v2l-5 3h-7l-5-6v-8l5-6zm-198 0h10l-1 3 3 3 2-3-1-3h8v2l-5 3-2 5 5 8 3 1v2h-10v-2h2l-3-5-2-1-1 8h-8v-2l5-3 3-4-2-5-5-5z"/><path d="m1055 838 5 1 3 4v10l-4 4-4-1-3-3-1-9 3-5zm-152 0 5 1 2 3 1 8-2 5-2 2-5-1-3-4v-10z" fill="#fefefe"/><path d="m1023 837h10v2h-2l4 10 1 1 4-11h-2v-2h8v2h-3l-2 6-10 24h-4l1-4 4-6-1-6-5-13z"/><path d="m1107 838 5 2 1 1v13l-2 1h-6l-3-4v-9zm582-380 5 2 14 9-2-6 6 5 7 9-1 2-5-1-13-9-10-9zm-1331-1 2 1-12 11-16 10h-2l1-5 9-10 1 2-1 3z" fill="#fefefe"/><path d="m948 837h8l1 1v5l-4-4-4 1v3l8 5 1 1v6l-4 3h-8l-2-3 1-4 5 5h3l1-3-3-3-6-4v-6z"/><path d="m983 842 8 1 3 3v6l-4 4h-6l-1-1z" fill="#fefefe"/><path d="m868 837h2l1 3 3-3 5 1-2 4-4-1-2 2-1 13 4 1v1h-11v-2l2-1v-14l-2-1v-2zm324 0h3v19h3v2h-11l1-2h2v-16h-2v-2z"/><path d="m1177 936 5 2 19 9 9 5v1l-9-1-14-7-10-8z" fill="#fefefe"/><path d="m1256 837h3v19h3v2h-10v-2l2-1v-14l-2-1v-2zm-370 0h2l1 18 2 1v2h-10v-2h3v-16h-3v-2z"/><path d="m984 829 7 1 2 6-2 4-8 1v-11zm-50 117 2 1-8 8-10 7-11 4v-3l14-8 12-8zm364-88h6l3 2v5l-3 2h-7l-3-3 1-4zm0-20 4 1 2 3-1 7-5 1-2-3v-7zm30-252 3 3 4 8 1 7h-3l-3-6-2-8zm-609-1h1l-1 8-3 9-3 2-1-3 4-10zm-281-395h11l2 2v4l-7-1-6-3zm1160 1h12l-3 3-9 3-1-4zm-586 647 5 2v4h-9l2-5zm-72 110v3l-7 6-5 3-2-1 9-8zm583-408 4 2 3 5 1 7-4-4-4-8zm-351 399 6 2 11 7-1 2-11-6zm-648-400 2 1-8 14-1-3 3-8zm-303-138 3 3-4 3-4 1-1-4zm1604 1 5 1 3 3-1 2-7-2-1-2zm-232 124h3l3 4v2l-4 1-3-4zm-1140-1 3 3-5 5-2-3z" fill="#fefefe"/></svg>