<svg fill="none" height="784" width="2500" xmlns="http://www.w3.org/2000/svg" viewBox="0 0 51 16"><path d="M8.042 0h34.916C47.398 0 51 3.584 51 8v8H8.042C3.602 16 0 12.416 0 8s3.603-8 8.042-8z" fill="#225cff"/><path clip-rule="evenodd" d="M12.175 2.978c.77 0 1.397.62 1.397 1.39 0 .634-.428 1.168-1.011 1.336a8.36 8.36 0 0 1-.482 2.528c-.803 2.196-2.465 3.546-4.81 3.906a.985.985 0 0 1-1.124-.818.977.977 0 0 1 .823-1.118c2.77-.426 3.432-2.724 3.585-4.038H5.71c-.545 0-.988-.44-.988-.982s.443-.982.988-.982h5.078a1.397 1.397 0 0 1 1.387-1.224zm-.553 1.39a.552.552 0 0 0 1.106 0 .552.552 0 0 0-1.106 0zm27.579.81v-.014a.984.984 0 0 0-.987-.968H32.22c-.545 0-.987.44-.987.982s.442.982.987.982h4.714c-.15.296-.376.638-.722.984a.978.978 0 0 0 .702 1.668c.25 0 .509-.098.702-.292 1.524-1.538 1.582-3.102 1.578-3.344h.006zM19.835 7.344a.992.992 0 0 1 1.327-.426v-.004a.978.978 0 0 1 .428 1.32c-1.864 3.618-5.21 3.912-6.253 3.912h-.168c-.023.004-.039.004-.06.004a.981.981 0 0 1-.984-.946V5.182c0-.542.442-.982.987-.982.545 0 .987.44.987.982v4.946c1.028-.166 2.694-.758 3.736-2.782zm9.147-.912l-5.215-.274a.982.982 0 1 1 .105-1.962l5.215.274a.982.982 0 0 1-.053 1.962zm.105.906l-5.215-.274a.982.982 0 1 0-.104 1.962l5.214.274h.052a.98.98 0 0 0 .053-1.962zm-5.215 2.578l5.215.274a.982.982 0 0 1-.053 1.962h-.052l-5.215-.274a.982.982 0 1 1 .105-1.962zm21.827 2.232h-6.016a.989.989 0 0 1-.814-.428.987.987 0 0 1-.102-.912l2.366-5.972c.199-.504.774-.752 1.28-.554s.755.768.556 1.272l-1.832 4.628h3.106l-.474-1.174a.983.983 0 0 1 .546-1.276.99.99 0 0 1 1.283.544l1.017 2.52a.985.985 0 0 1-.917 1.346zm-11.954-4.65c0-.542.44-.982.985-.982s.987.44.987.982c0 3.4-2.614 4.53-2.726 4.576a.99.99 0 0 1-1.29-.528.975.975 0 0 1 .518-1.278c.08-.034 1.526-.722 1.526-2.77z" fill="#fff" fill-rule="evenodd"/></svg>