<svg height="2500" viewBox="0 0 2048 2048" width="2500" xmlns="http://www.w3.org/2000/svg"><path d="m0 0h2048v2048h-2048z" fill="#fefefe"/><path d="m1187 842h800l1 1v380l-1 1h-801v-381zm-1129 0h64l2 2v141l2 1h114v-141l1-2 12-1h68l2 1v360l-1 1h-81l-1-1-1-142-9-1h-104l-1 1-1 24-1 119h-82v-355l1-6zm400 130h26l19 4 13 5 15 8 13 10v-19l1-1h77v224l-1 1h-76l-1-22-5 2-10 9-16 9-12 5-19 4-15 1-15-2-19-5-14-6-15-10-12-11-8-9-10-15-7-15-5-16-3-19v-24l3-21 5-15 8-17 10-14 11-12 9-8 14-9 11-5 13-4zm432-145h76l1 1v227l5-3 10-11h2l1-3 8-7 39-39 7-8 6-5h99v3l-13 12-7 8-83 83 1 4 113 113v2l-84 1-14-1-8-7-79-79h-2l-1 86h-78v-376zm-120 145h28l22 4 21 7 15 8 1 1-1 7-8 16-11 21-5 10h-3l-10-5-12-3-7-1h-12l-12 3-10 5-10 8-9 13-4 11-1 5v19l4 13 4 8 9 11 10 7 14 5 7 1h9l16-3 12-5 5-1 25 50v5l-16 8-22 7-23 4-8 1h-9l-21-3-15-4-15-6-15-9-13-10-12-11-11-14-8-13-6-15-4-16-1-7v-25l4-20 5-13 7-13 10-14 10-11 11-9 11-8 12-7 15-6 15-4z" fill="#0bb890"/><path d="m1702 944h31l4 1 1 2v194l-2 3h-32l-7-2-1-4 1-6-7 4-10 7-11 4-7 1h-10l-16-4-12-6-12-11-7-11-5-13-2-11v-14l3-16 8-16 11-12 11-7 10-4 12-2 15 1 13 4 10 6 4 3 1-5v-82l1-3zm-340 5h24l21 4 15 5 11 6 2 2-1 5-16 32-20-8-17-3-15 1-16 5-11 6-4 4h-2l-2 4-7 10-5 13-1 4v17l4 14 6 10 9 10 10 7 13 5 11 2h14l14-3 12-5 3-2h5l16 32v5l-16 8-15 5-16 3h-28l-18-4-15-6-14-8-10-8-12-12-7-10-6-10-5-13-3-12-1-7v-15l3-18 6-16 8-14 9-11 8-8 14-10 16-8 14-5zm150 72 16 1 16 4 10 4 13 9 9 9 8 14 3 12v20l-3 12-7 13-9 10-7 6-16 8-16 4h-27l-16-4-16-8-10-8-8-11-4-8-3-10-1-7v-12l3-15 7-14 10-11 13-9 12-5 14-3zm308 0 14 1 15 4 14 7 9 8 7 11 4 10 2 9 1 17-1 2-85 1 2 10 7 8 10 5h14l10-4 10-8 9 3 20 11v3l-7 8-5 5-8 6-8 4-18 5-15 1-16-2-13-5-10-6-10-9-8-10-6-14-2-10v-13l3-15 7-14 9-10 8-7 10-6 12-4zm-1339 19h24l12 4 10 6 5 5 7 8 5 11 2 12v10l-2 12-4 10-7 9-5 5-5 4-10 5-11 3h-17l-12-3-10-5-9-8-7-10-4-12-1-5v-18l3-13 6-10 8-9 11-7z" fill="#fefefe"/><path d="m1511 1056h9l9 3 9 8 4 7 2 8v7l-4 10-7 8-9 5-11 1-10-3-8-6-5-8-2-6v-10l3-10 9-10zm154 0h9l9 3 7 6 7 12 1 4v8l-3 7-6 8-7 6-9 3h-7l-9-3-8-6-5-8-2-8 1-13 4-8 9-8zm150-8h13l10 5 7 10v5h-44l-1-5 4-7 8-7z" fill="#0bb890"/></svg>