<svg height="2500" viewBox="7.749 154.788 364.953 74.618" width="2500" xmlns="http://www.w3.org/2000/svg"><path d="m222.327 157.953h150.375v71.453h-150.375zm-199.125 40.287v27.188h-15.453v-67.766h15.453v27.031h21.844v-27.03h15.437v67.765h-15.437v-27.188zm50.012 21.985c-3.937-4.301-5.906-9.57-5.906-15.813 0-6.25 1.969-11.535 5.906-15.86 3.946-4.331 8.957-6.5 15.031-6.5 5.594 0 10.196 1.759 13.813 5.266v-4.03h14.531v42.14h-14.375v-4.766h-.156c-3.617 4-8.219 6-13.813 6-6.074 0-11.085-2.144-15.03-6.437zm12.36-22.97c-1.887 1.868-2.829 4.25-2.829 7.157 0 2.899.899 5.262 2.704 7.094 1.812 1.836 4.195 2.75 7.156 2.75 2.844 0 5.18-.926 7.015-2.781 1.844-1.864 2.766-4.223 2.766-7.079 0-2.894-.95-5.273-2.844-7.14-1.886-1.863-4.199-2.797-6.937-2.797-2.793 0-5.137.934-7.031 2.797zm63.304-3.28c-2.742 0-5.101 1.015-7.078 3.046-1.969 2.024-2.953 4.454-2.953 7.297 0 2.907.984 5.375 2.953 7.407 1.977 2.023 4.336 3.03 7.078 3.03 1.313 0 2.555-.16 3.734-.484 1.176-.332 2.036-.664 2.579-1l.75-.5 4.921 10.11c-.386.273-.921.617-1.609 1.031-.68.406-2.234.965-4.672 1.672-2.437.719-5.054 1.078-7.844 1.078-6.187 0-11.625-2.176-16.312-6.531-4.68-4.352-7.016-9.57-7.016-15.656 0-6.125 2.336-11.391 7.016-15.797 4.687-4.414 10.125-6.625 16.312-6.625 2.79 0 5.364.328 7.72.984 2.35.656 4.023 1.32 5.015 1.984l1.39.985-4.921 9.937c-1.813-1.312-4.168-1.968-7.063-1.968zm66.034-10.688-20.047 20.125 22.016 22.016h-18.72l-16.843-16.844v16.844h-14.547v-70.64h14.547v43.202l14.703-14.703zm0 0" fill="#10b98e"/><path d="m258.775 206.944c1.25 0 2.46-.188 3.64-.563 1.176-.375 2.04-.734 2.594-1.078l.828-.578 3.47 6.969a27.4 27.4 0 0 1 -.485.343c-.2.149-.668.418-1.406.813-.743.387-1.532.726-2.375 1.015-.836.293-1.934.551-3.297.782a24.61 24.61 0 0 1 -4.235.36c-3.336 0-6.496-.817-9.484-2.454a19.697 19.697 0 0 1 -7.234-6.781c-1.825-2.875-2.735-5.977-2.735-9.313 0-2.52.535-4.941 1.61-7.265 1.07-2.32 2.5-4.313 4.28-5.97 1.79-1.655 3.876-2.972 6.25-3.952 2.384-.989 4.821-1.485 7.313-1.485 2.32 0 4.461.278 6.422.828 1.957.555 3.344 1.106 4.156 1.657l1.22.812-3.47 6.969c-.21-.164-.515-.375-.921-.625s-1.22-.578-2.438-.984-2.453-.61-3.703-.61c-1.969 0-3.742.324-5.313.969-1.562.637-2.804 1.477-3.718 2.516-.918 1.043-1.617 2.168-2.094 3.375a9.875 9.875 0 0 0 -.719 3.671c0 2.73 1.02 5.18 3.063 7.344 2.05 2.156 4.976 3.235 8.781 3.235zm15.779 4.75c-2.48-2.207-3.718-5.036-3.718-8.485 0-3.457 1.289-6.297 3.875-8.515 2.582-2.22 5.773-3.329 9.578-3.329 3.738 0 6.89 1.122 9.453 3.36 2.57 2.23 3.86 5.058 3.86 8.484 0 3.43-1.259 6.25-3.766 8.469-2.512 2.219-5.696 3.328-9.547 3.328-4.012 0-7.258-1.101-9.735-3.312zm5.969-12.266c-1 .98-1.5 2.242-1.5 3.781 0 1.531.477 2.79 1.438 3.766.957.969 2.218 1.453 3.78 1.453 1.509 0 2.75-.488 3.72-1.469.976-.988 1.468-2.238 1.468-3.75 0-1.539-.508-2.8-1.515-3.781-1-.988-2.227-1.484-3.672-1.484-1.48 0-2.719.496-3.719 1.484zm22.212 12.156c-2.086-2.281-3.125-5.07-3.125-8.375 0-3.312 1.039-6.113 3.125-8.406 2.094-2.29 4.754-3.438 7.984-3.438 2.957 0 5.395.93 7.313 2.782v-17.235h7.703v37.438h-7.625v-2.531h-.078c-1.918 2.125-4.356 3.187-7.313 3.187-3.23 0-5.89-1.14-7.984-3.422zm6.562-12.156c-1 .98-1.5 2.242-1.5 3.781 0 1.531.477 2.79 1.438 3.766.957.969 2.219 1.453 3.781 1.453 1.508 0 2.75-.488 3.719-1.469.977-.988 1.469-2.238 1.469-3.75 0-1.539-.508-2.8-1.516-3.781-1-.988-2.226-1.484-3.672-1.484-1.48 0-2.719.496-3.719 1.484zm44.248 4.828h-16.187c0 1.563.504 2.727 1.515 3.484 1.02.75 2.125 1.125 3.313 1.125 1.25 0 2.234-.164 2.953-.5.726-.332 1.555-.992 2.484-1.984l5.578 2.781c-2.324 3.899-6.183 5.844-11.578 5.844-3.367 0-6.258-1.148-8.672-3.453-2.406-2.313-3.609-5.094-3.609-8.344s1.203-6.035 3.61-8.36c2.413-2.32 5.304-3.484 8.671-3.484 3.54 0 6.422 1.028 8.64 3.079 2.22 2.043 3.329 4.964 3.329 8.765 0 .524-.016.871-.047 1.047zm-15.969-4.266h8.485c-.18-1.164-.637-2.062-1.375-2.687-.742-.625-1.688-.938-2.844-.938-1.281 0-2.305.34-3.062 1.016-.75.668-1.153 1.54-1.204 2.61zm0 0" fill="#fff"/></svg>