<svg height="529" viewBox=".25 .34 400.246 84.023" width="2500" xmlns="http://www.w3.org/2000/svg"><path d="m4.031.79c-1.754.885-3.28 2.975-3.644 5.006-.094.493-.137 13.134-.137 37.192 0 35.938 0 36.457.274 37.34.484 1.672 1.738 3.047 3.398 3.734.543.223 3.039.239 38.578.278 26.777.015 38.2-.012 38.7-.125 1.55-.324 3.09-1.457 3.859-2.82.836-1.485.77 1.472.742-39.25-.041-34.676-.055-37.145-.271-37.708-.636-1.613-2-3.085-3.484-3.718l-.741-.309-38.2-.027-38.195-.043zm0 0" fill="#fff"/><path d="m4.035.797c-1.758.883-3.281 2.973-3.644 5.008-.098.492-.137 13.129-.137 37.187 0 35.942 0 36.461.27 37.344.488 1.668 1.742 3.043 3.402 3.73.539.227 3.035.239 38.578.282 26.777.015 38.195-.016 38.695-.125 1.555-.325 3.094-1.461 3.86-2.82.84-1.489.77 1.472.746-39.25-.043-34.68-.055-37.15-.274-37.708-.632-1.613-1.996-3.086-3.48-3.718l-.742-.309-38.2-.027-38.199-.043zm22.606 11.883c1.11.222 3.078 1.261 4.144 2.172.89.773 1.364 1.304 3.375 3.804.946 1.164 1.281 1.473 2 1.852 1.078.558 1.645.687 3.926.883 3.848.32 7.29.91 9.703 1.625 1.258.379 4.106 1.32 4.387 1.445.527.238 1.89.687 2.363.773.27.043 1.23.028 2.133-.058 1.93-.168 2.469-.07 3.902.648 1.985.98 3.75 2.34 5.64 4.332 1.403 1.473 2.321 2.668 2.915 3.817.23.449.473.87.527.953.094.129.391 1.012.461 1.375.028.097.106.336.188.535.242.617.554 2.102.715 3.492.23 1.992-.028 6.746-.551 10.184a10.97 10.97 0 0 0 -.137 1.011c0 .082.336.391.758.672.902.633 2.226 2.188 2.629 3.102.742 1.683.972 3.66.61 5.258-.434 1.84-.891 2.765-2.013 3.93-.566.6-1.105 1.093-1.203 1.093-.078 0-.27.098-.402.227-.23.222-.203.265.473.953 1.039 1.05 1.308 1.879 1.402 4.332.066 1.683.055 1.992-.16 2.5-.149.32-.395.629-.582.7-.176.07-12.38.124-29.14.124-26.391 0-28.86-.012-29.278-.223-.809-.394-.918-.812-.824-3.14.109-2.64.297-3.27 1.363-4.461l.406-.45-1.105-1.163c-.61-.633-1.27-1.391-1.461-1.7-1.348-2.062-1.496-4.965-.403-7.449.446-1.008 1.497-2.414 2.239-2.96l.648-.477v-1.793c0-2.078.215-3.016 1.027-4.282.633-.996 1.32-1.64 2.266-2.117.649-.324.797-.492 1.027-1.039.16-.363.43-1.023.622-1.457l.335-.8-.632-.7c-1.418-1.543-2.77-3.297-3.645-4.715-.594-.98-1.11-2.008-1.11-2.23 0-.125-.05-.223-.12-.223-.067 0-.149-.113-.188-.254a76.66 76.66 0 0 0 -.555-1.64c-1.863-5.305-1.484-10.34 1.083-14.309 1.253-1.95 3.402-3.523 5.64-4.152 1.082-.297 3.16-.297 4.602 0zm0 0" fill="#e60012"/><path d="m22.719 14.502c-2.414.516-4.524 2.231-5.586 4.532-.934 1.992-1.149 3.156-1.164 5.988 0 3.016.246 4.152 1.418 6.664 1.351 2.902 2.957 5.219 5.547 7.98l1.46 1.57-.73 1.868a47.838 47.838 0 0 1 -.781 1.938c-.043.027-.434.152-.895.265-1.726.406-3.007 1.711-3.668 3.73-.246.758-.285 1.122-.23 2.528.055 1.625.055 1.625-.285 1.836-.203.125-.7.59-1.133 1.039-2.012 2.09-2.54 5.344-1.27 7.812.54 1.051 1.688 2.372 2.512 2.848.336.211.649.395.66.406.028.016-.011.239-.093.504a8.131 8.131 0 0 0 -.215.844c-.043.211-.34.715-.649 1.121-.703.899-.984 1.613-1.105 2.723-.125 1.094.094 1.922.539 2.133.27.125 7.195.168 27.656.168 31.598 0 27.969.21 27.942-1.641-.028-1.629-.23-2.203-1.094-3.145-.649-.699-.758-.91-.813-1.484-.039-.367-.133-.746-.199-.844-.082-.097.106-.293.621-.59 1.442-.867 2.656-2.593 3.117-4.433.7-2.848-.691-6.156-3.226-7.7-.489-.296-.89-.562-.89-.574 0-.03.12-.632.253-1.347 1.461-7.324.934-13.242-1.512-17.031-1.672-2.594-4.91-5.415-7.433-6.454-1-.406-1.473-.418-4.2-.125-.757.07-1.011.016-3.644-.925-2.875-1.012-6.777-2.079-9.031-2.457-.672-.11-2.551-.364-4.168-.559-3.227-.379-4.414-.617-5.239-1.066-.769-.395-1.632-1.262-2.578-2.555-1.824-2.496-3.941-4.445-5.468-5.078-1.387-.559-3.157-.758-4.426-.489zm1.012 2.102c0 .645.351.953.812.703.2-.113.27-.297.27-.703s.05-.559.199-.559c.422 0 .597.829.324 1.446-.297.687-1.363.937-1.875.445-.566-.531-.566-1.89.016-1.89.199 0 .254.097.254.558zm4.941 1.32c.902.84 1.418 1.5 3.062 3.914l1.04 1.516-.375.14c-.204.083-.5.278-.665.434-.16.153-.351.239-.418.196-.066-.043-.148-.618-.187-1.262-.055-.98-.121-1.277-.418-1.754-.203-.309-.61-.7-.906-.856-.352-.183-.606-.449-.727-.757-.273-.66-1-1.078-2.039-1.164l-.851-.086.12-.434a4.35 4.35 0 0 0 .122-.969v-.547l.703.422a12.33 12.33 0 0 1 1.539 1.207zm-6.547-.547.203.91h-.945c-1.067 0-1.727.298-1.984.9-.137.308-.797.757-.797.546 0-.254.933-1.527 1.527-2.09.594-.547 1.469-1.148 1.71-1.18.056 0 .177.41.286.914zm-1.335 2.103c-.027.2.012.45.11.563.226.28.011.265-.297-.028-.313-.281-.313-.547 0-.73.12-.082.242-.153.242-.153.012 0-.016.153-.055.348zm1.727.086c.11.195.066.293-.16.465-.38.277-.594.293-.38.012.094-.114.137-.364.11-.547-.082-.39.215-.352.43.07zm3.726.195c0 .52-.066.59-.324.325-.215-.227-.203-.325.055-.59.27-.293.27-.293.27.265zm1.594-.265c.121.113.215.238.215.265 0 .086-.418.492-.512.492-.055 0-.098-.222-.098-.492 0-.547.083-.601.395-.265zm-3.512 0c.121.043.22.168.22.28 0 .477.347.927 1.022 1.25.864.419 1.133.685 1.133 1.106 0 .45-.375.758-1.293 1.024-1.011.308-1.66.297-2.754-.012-1.027-.297-1.16-.394-1.257-.883-.067-.41.406-1.027.785-1.027.12 0 .457-.125.754-.277.406-.227.61-.465.797-.914.285-.672.27-.672.593-.547zm-4.453 1.77c.121.167.215.487.215.714 0 .98.824 1.961 1.824 2.133.297.055.797.18 1.121.293.782.265 1.364.254 2.211-.07.39-.141.973-.293 1.282-.336.312-.043.675-.184.824-.325.285-.28.566-1.148.566-1.765 0-.465.473-.953.906-.953.176 0 .528.207.782.445.367.367.5.617.554 1.125.149 1.137-.308 1.555-2.199 2.004-3.348.816-8.355.281-9.785-1.024-.527-.476-.422-1.78.2-2.382.542-.52 1.093-.465 1.5.14zm14.832 3.448c.406.254.422.282.23.813-.132.351-.16.367-.39.14-.406-.378-.945-.351-1.254.07-.219.298-.246.434-.12.661.077.152.269.324.401.379.61.195.407 1.05-.242 1.05-.851 0-1.5-1.105-1.226-2.09.336-1.234 1.496-1.694 2.601-1.023zm-14.656.73c3.023.77 6.95.645 9.258-.296 1.011-.418 1.457-.11.61.422-1.204.773-4.552 1.219-7.13.98-2.804-.265-5.426-1.191-5.074-1.793.055-.086.324-.027.688.141.324.152 1.066.39 1.648.547zm17.64-.097c.137.11.204.266.149.406-.082.196-.148.211-.418.083-.258-.125-.379-.11-.594.097-.336.324-.336.578 0 .871.297.282.336.477.121.703-.418.434-1.066-.351-1-1.222.07-.867 1.094-1.43 1.743-.938zm2.567.25c.254.211.324.352.227.45-.079.085-.2.058-.348-.098-.274-.281-.527-.281-.746-.016-.133.184-.133.27.07.492.297.336.16.618-.219.422-.375-.21-.347-1.039.043-1.32.407-.293.54-.281.973.07zm4.266.899c1.199.21 2.023.422 5.101 1.277 1.43.406 4.63 1.555 4.79 1.727.07.07-.325.222-.864.347-1.89.438-3.523 1.39-4.871 2.848-1.555 1.672-2.176 3.242-2.188 5.516-.011 1.5.297 2.707 1.04 4.066.46.855 2.28 2.836 3.199 3.453l.593.406-.406.028c-.77.07-1.875.363-2.348.601-.62.34-1.375 1.18-1.742 1.922-.347.73-.39.73-2.726.254-2.602-.531-5.399-1.461-7.164-2.398-.621-.325-.649-.364-.649-.954 0-.546.055-.648.512-.957a3.072 3.072 0 0 0 1.352-2.367c.05-.73.105-.855.417-1.027 1.391-.77 1.985-2.777 1.2-4.164-.364-.645-1.067-1.25-1.766-1.516-.57-.222-1.676-.183-2.203.07-1.012.504-1.738 1.766-1.578 2.778.066.433.039.476-.567.785-.918.465-1.351 1.207-1.363 2.344l-.015.883-.688.363c-.578.297-.754.48-1.05 1.125-.286.601-.34.898-.286 1.36.066.573.066.589-.473.855-1.484.715-1.765 3.043-.484 3.87.676.45 1.645.325 2.16-.265.43-.504.473-.8.16-1.25-.308-.46-.851-.406-1.011.102-.176.504-.446.629-.73.347-.255-.265-.255-.53 0-1.105.433-.926 1.339-1.024 2.12-.211.528.531.54.59.485 1.305-.067.867-.43 1.668-1.336 2.96l-.676.954-2.535-.059c-2.512-.039-2.54-.039-3.012-.418-.375-.297-.539-.578-.77-1.402-.648-2.192-.769-2.414-1.714-3.02-.254-.152-.243-.168.015-.363.407-.324 1.282-.52 2.39-.52 1.118 0 1.645-.21 1.7-.671.067-.438-.176-.704-.945-1.067l-.633-.297.512-1.332c2.093-5.441 4.008-10.281 4.293-10.87.824-1.669 2.347-3.102 3.886-3.634.38-.14.891-.394 1.176-.59.457-.335.512-.351.903-.14.214.129.714.226 1.082.226.566 0 .753-.07 1.171-.449s.61-.465 1.204-.465c.593-.011.808-.097 1.414-.558.691-.535 1.593-.887 2.297-.899.187-.015.917.082 1.62.196zm-25.985.097c.43.196.5.953.082.953-.297 0-.488-.222-.61-.742-.093-.422 0-.46.528-.21zm11.54.211c-.012.38-.204.73-.473.856-.176.086-.352.113-.391.07-.148-.152-.082-.855.094-.926.258-.113.77-.113.77 0zm-9.747.774c-.05.617-.336.656-.402.039-.043-.406-.016-.489.203-.489.2 0 .242.083.2.45zm7.883.18c-.066.238-.215.437-.336.464-.336.07-.324-.914.012-.996.351-.086.433.07.324.531zm-6.125.308c.04.645-.148 1.164-.434 1.164-.23 0-.484-.715-.484-1.36 0-.46.027-.476.445-.433.403.04.43.082.473.629zm4.629-.477c-.016.059-.016.477-.016.926 0 .606-.05.844-.199.914-.367.14-.61-.308-.61-1.11 0-.671.028-.757.313-.812.375-.07.524-.058.512.082zm-1.77.45v.492h-.93c-.984 0-1.202-.156-1.027-.715.067-.227.23-.27 1.028-.27h.93zm-5.535.757c.719.211 1.055.395 1.406.774.512.574.958.644 1.47.223.284-.239.542-.282 1.675-.282 1.254 0 1.363.028 1.66.352.457.504 1 .46 1.512-.098.297-.336.676-.535 1.5-.785 1.2-.352 1.469-.281 1.105.309-.23.347-.742.558-2.687 1.05-.379.098-1.04.434-1.485.774-.457.336-.972.656-1.132.715-.555.168-1.203-.059-1.946-.688-.82-.687-1.468-1.066-1.836-1.066-.539 0-1.996-.59-2.28-.926-.606-.687-.391-.758 1.038-.352zm41.48.352c.485.195 1.31 1.11 1.31 1.418 0 .11-.176.293-.38.406-.363.196-.39.18-.754-.281-.636-.828-1.687-.535-1.5.422.165.812.137 1.094-.093 1.246-.16.113-.309.113-.555-.027-.43-.239-.633-.715-.633-1.489 0-.77.473-1.386 1.281-1.683.692-.25.786-.25 1.325-.012zm-39.991 2.144c.253.113.66.378.875.605.23.223.675.531 1.011.688 1.094.52 2.012.347 3.281-.563.528-.395 1.067-.645 1.594-.758l.781-.168-.308.645c-.27.547-1.149 2.777-1.781 4.504-.594 1.64-1.11 2.82-1.215 2.804-.488-.054-3.2-3.168-4.403-5.05-.957-1.5-1.62-2.79-1.511-2.973.093-.152 1.011-.016 1.676.266zm35.902.183c0 .492.39 1.36.77 1.711.406.379 1.199.672 1.835.672h.593l.082.8c.133 1.348 1.04 2.4 2.172 2.528l.621.082v.899c0 1.066.309 1.78 1.027 2.398l.485.422-.285.558c-.418.856-.391 2.106.07 2.989l.363.676-.351.433c-1.04 1.277-.715 3.313.62 3.942 1.673.785 3.227-.352 2.782-2.036-.164-.586-.582-.867-1.121-.726-.297.07-.336.168-.379.828-.039.617-.078.726-.336.77-.379.054-.715-.45-.715-1.067 0-.379.121-.602.54-1.039.511-.531.581-.559 1.175-.488 1.133.125 1.645 1.093 1.469 2.777-.106 1.106-.567 2.988-.903 3.66l-.257.535h-13.27l-.418-.34c-.226-.18-.566-.671-.742-1.078-.89-2.105-1.121-2.527-1.59-2.847l-.473-.336.782-.168c1.039-.227 1.66-.13 3.832.656 1 .367 2.066.703 2.351.758 1.59.297 1.942-1.078.457-1.809-5.101-2.523-6.14-3.172-7.449-4.683-2.363-2.711-2.473-6.82-.23-9.274 1.363-1.5 3.765-2.582 5.86-2.61.62-.015.632 0 .632.407zm7.867 1.078c.5.367 1.043 1.207 1.043 1.645 0 .125-.164.265-.352.308-.27.07-.394.028-.5-.168-.5-.925-1.351-1.293-1.875-.8-.34.32-.312.699.122 1.277.418.574.308.91-.313.98-.797.086-1.402-1.12-1.066-2.132.46-1.387 1.824-1.907 2.941-1.11zm2.297 3.746c.242.098.578.352.754.547.379.422.691 1.559.594 2.121-.067.32-.133.38-.497.336-.394-.043-.421-.086-.5-.73-.082-.785-.46-1.207-1.082-1.207-.55 0-.835.492-.66 1.125.203.754.16.965-.203 1.062-.445.114-.703-.125-.875-.797-.273-1.011.149-1.894 1.145-2.43.5-.265.758-.277 1.324-.027zm-28.914.606c.879.77.988 1.836.258 2.719-.352.449-.39.464-.73.28-.419-.237-.43-.35-.079-.812.5-.66.215-1.586-.473-1.586-.378 0-.566.239-.636.774-.078.84-.918.504-.918-.367 0-.25.164-.575.46-.883.391-.434.54-.504 1.067-.504.473 0 .715.082 1.05.379zm-2.035 3.476c.254.2.539.508.633.676.363.672.093 1.95-.512 2.399-.297.21-.34.21-.649-.114l-.324-.336.352-.449c.203-.238.363-.59.363-.758 0-.449-.43-.812-.902-.757-.313.027-.407.14-.555.605-.242.77-.352.84-.703.461-.23-.254-.27-.434-.215-.813.176-1.164 1.54-1.656 2.512-.914zm31.933.715c.676.34 1.067 1.082 1.055 2.024-.016.418-.082.937-.164 1.148l-.149.395-.472-.239c-.39-.183-.445-.27-.336-.476.176-.367.148-1.293-.067-1.602-.218-.308-.906-.351-1.23-.07-.148.125-.203.379-.187.871.039.758-.122 1.023-.528.898-.633-.21-.715-1.515-.148-2.343.527-.774 1.402-1.012 2.226-.606zm-34.148 2.668c.676.336 1.039 1.04.973 1.863-.07.676-.407 1.336-.77 1.489-.11.043-.324-.043-.473-.196l-.27-.296.298-.32c.539-.606.254-1.641-.461-1.641-.336 0-.727.476-.727.867 0 .547-.73.379-.84-.195-.242-1.305 1.028-2.176 2.27-1.57zm2.902 5.106c1.903.855 4.48 1.629 6.992 2.117 1.227.238 2.32.465 2.414.492s.165.293.165.688v.632h-13.529l.23-.379c.731-1.136 1.15-2.246 1.15-2.988 0-.379.714-1.11 1.093-1.125.105 0 .781.254 1.484.563zm-14.754.363c.407.297.649.816.918 1.965.121.535.313 1.11.407 1.277l.187.324h-2.82l-.137-.535c-.363-1.347-.04-2.804.703-3.113.406-.168.406-.168.742.082zm28.387.394c.188.184.473.801.648 1.375.176.563.403 1.149.5 1.305.106.153.188.32.188.38 0 .07-.594.112-1.336.112h-1.337l-.137-.605c-.214-.926 0-2.047.512-2.524.5-.464.555-.464.961-.043zm19.152 5.61c.809.437 2.024 1.797 2.024 2.262 0 .039-12.149.07-26.992.07h-26.997l.226-.395c.57-.941 1.473-1.71 2.457-2.078.395-.152 5.117-.18 24.649-.152 23.257.027 24.175.043 24.632.293zm2.43 4.223v.351l-27.293-.027-27.305-.043-.039-.32-.043-.31h54.68zm-.605 2.132c-.649 1.04-1.637 1.711-2.903 1.993-.554.125-6.64.156-24.297.125l-23.554-.04-.633-.308c-.742-.352-1.66-1.195-1.945-1.754l-.204-.395h53.762zm-4.09 4.63c.187.226.418.702.496 1.093.11.422.351.898.637 1.234.511.59.726 1.055.726 1.586v.336h-24.618c-15.16 0-24.66-.054-24.715-.125-.148-.281.176-1.234.649-1.894.27-.364.593-1.008.714-1.43s.336-.84.5-.969c.254-.18 2.942-.21 22.77-.21h22.487zm0 0"/><path d="m68.914 9.574c-2.601.29-4.785 2.324-5.254 4.903-.101.543-.101 1.617.004 2.132.356 1.809 1.488 3.332 3.133 4.22.43.233 1.074.464 1.625.581.64.137 1.785.137 2.422 0 1.98-.422 3.594-1.726 4.363-3.515a5.91 5.91 0 0 0 -1.18-6.489c-1.343-1.39-3.171-2.05-5.113-1.832zm1.36 1.219a4.803 4.803 0 0 1 4.101 3.988 4.755 4.755 0 0 1 -1.855 4.563c-2.364 1.761-5.73 1.02-7.114-1.567-.218-.402-.328-.691-.457-1.203-.14-.566-.14-1.535 0-2.094.25-.992.688-1.757 1.375-2.402 1.055-1 2.54-1.48 3.95-1.285zm0 0" fill="#fff"/><path d="m67.012 15.523v3.434h1.398v-2.492h.985c.882 0 1.004.012 1.148.086.191.097.277.187.395.418.14.285.183.594.183 1.308v.68h1.406l-.027-.824c-.027-.871-.074-1.172-.203-1.48-.11-.25-.438-.594-.68-.708-.101-.05-.191-.097-.191-.11 0-.007.09-.07.191-.128.625-.367.957-1.11.86-1.926-.04-.316-.227-.754-.422-.98-.172-.207-.59-.465-.93-.578-.273-.094-.371-.098-2.2-.114l-1.913-.015zm3.5-2.14c.398.164.582.457.586.922 0 .414-.133.683-.438.875l-.207.129-1.023.011-1.02.016v-2.016h.98c.743 0 1.012.016 1.122.063zm0 0" fill="#fff"/><path d="m353.824 18.156c-7.597.832-14.25 4.551-16.43 9.188-1.331 2.82-1.316 5.043.036 7.933.762 1.645 2.566 3.72 4.324 4.942 3.11 2.172 7.32 3.633 12.379 4.277 6.394.8 14.137-.969 18.953-4.328 1.399-.988 3.48-3.246 4.117-4.484 1.528-3.008 1.559-5.332.145-8.371-1.09-2.344-3.48-4.637-6.442-6.184-4.734-2.496-11.16-3.617-17.082-2.973zm8.364 7.254c2.343.883 4.05 2.258 4.832 3.906.535 1.137.52 2.852-.035 4.024-.782 1.664-2.454 2.988-4.961 3.922-1.27.476-1.399.492-4.473.492-3.156 0-3.172 0-4.621-.543-2.375-.898-4.016-2.242-4.75-3.871-.551-1.207-.535-3.008 0-4.13.715-1.44 2.426-2.901 4.297-3.632 1.804-.71 2.437-.797 5.398-.765 2.75.054 2.899.07 4.313.597zm-243.93-4.808v1.613h-13.664v6.285h39.367v-6.285h-13.992v-3.227h-11.711zm28.792 23.777v24.367h11.712v-24.453h2.605v24.453h11.711v-48.738h-11.71v19.191h-2.606v-19.191h-11.712zm77.923 0v24.367h11.71v-24.453h2.602v24.453h11.551v-48.738h-11.55v19.191h-2.602v-19.191h-11.711zm51.355-22.469c-.066 1.055-.262 2.567-.441 3.363-.438 1.801-1.82 4.825-2.91 6.317-3.012 4.129-7.664 7.148-13.34 8.644l-.715.188 2.668 2.785c1.691 1.766 2.781 2.785 2.992 2.785.57 0 3.871-.969 5.547-1.613 5.191-2.04 9.633-5.402 12.04-9.137l.796-1.242.781 1.379c2.633 4.633 7.856 8.64 13.86 10.629 1.171.375 2.78.918 3.593 1.187.813.274 1.547.496 1.63.496.081 0 .405-.375.714-.816s1.27-1.75 2.129-2.922c.848-1.172 1.613-2.207 1.66-2.328.082-.133-.422-.371-1.543-.727-3.058-.988-5.336-2.125-7.875-3.925-1.937-1.375-4.945-4.516-6.215-6.47a25.087 25.087 0 0 1 -3.562-8.933l-.278-1.562h-11.433zm35.672 15.422v17.32h11.715v-18.172h7.969v-5.093h-7.97v-11.38h-11.714zm76.945-12.906v4.414h-7.32v5.094h7.484v10.699h11.387v-24.625h-11.55zm-201.39 15.418c0 20.176-.031 19.511.93 21.226.566 1.02 1.542 2.04 2.519 2.633 1.61.984 1.434.969 15.863.969h13.223v-6.285h-20.66v-12.907h20.011v-6.28h-20.171v-11.549h20.82v-6.285h-32.535zm-66.531-7.59c-8.657 1.035-15.422 6.18-17.196 13.074-.375 1.477-.375 4.602 0 6.082 2.278 8.813 12.621 14.52 23.57 13.008 5.239-.715 9.551-2.805 12.836-6.2 1.512-1.562 2.473-3.023 3.188-4.874 1.352-3.43 1.316-6.844-.063-10.157-3.109-7.402-12.69-12.09-22.335-10.933zm5.886 7.164c1.48.562 2.54 1.309 3.711 2.598 3.774 4.23 3.352 10.957-.93 14.691-1.07.934-2.894 1.816-4.421 2.156-1.711.356-3.075.137-5.028-.847-1.902-.934-3.66-2.735-4.508-4.57-1.87-4.141-1.171-8.575 1.856-11.7 1.398-1.445 2.39-2.07 4.117-2.547 1.594-.46 3.66-.375 5.203.219zm216.489 15.032c0 8.827.03 9.273.925 10.866.617 1.121 1.774 2.243 2.914 2.836l.957.512 26.16.05 26.141.032v-22.414h-11.386v4.074h-33.835v-4.074h-11.875zm45.71 5.128v2.715h-33.835v-5.434h33.835zm-121.843-3.769c0 7.351.066 7.945.93 9.507.617 1.121 1.769 2.243 2.91 2.836l.96.512 25.833.05 25.816.032v-6.453h-44.575v-13.246h-11.875zm0 0"/></svg>