<svg viewBox="0 0 728.41 72.55" xmlns="http://www.w3.org/2000/svg" width="2500" height="249"><path d="M363.93 69.34V3.19c0-1.33.66-2 2-2h22.22c6.66 0 12.76 1.55 18.3 4.64 5.54 3.1 9.92 7.33 13.13 12.71s4.82 11.31 4.82 17.8-1.61 12.36-4.82 17.7-7.57 9.56-13.08 12.66c-5.51 3.09-11.57 4.64-18.2 4.64h-22.37c-1.33 0-2-.66-2-2zm38.12-10.01c4.08-2.35 7.3-5.54 9.66-9.59s3.55-8.51 3.55-13.41-1.19-9.43-3.57-13.51-5.63-7.29-9.74-9.64-8.65-3.52-13.6-3.52h-15.43v53.18h15.63c4.93 0 9.43-1.17 13.51-3.52h-.01zM443.83 71.34h-4.99c-1.33 0-2-.66-2-2V3.19c0-1.33.66-2 2-2h4.99c1.33 0 2 .67 2 2v66.16c0 1.33-.66 2-2 2zM511.44 39.69h4.94c1.33 0 2 .66 2 2v21.42c0 1.03-.4 1.83-1.2 2.4-3.13 2.23-6.71 3.96-10.74 5.19s-8.06 1.85-12.08 1.85c-6.63 0-12.7-1.62-18.23-4.87-5.53-3.24-9.89-7.64-13.08-13.18-3.2-5.54-4.79-11.64-4.79-18.3s1.6-12.71 4.79-18.25 7.55-9.92 13.08-13.13S487.73 0 494.36 0c4.06 0 7.98.66 11.76 1.97 3.78 1.32 7.2 3.15 10.26 5.52.57.47.85.95.85 1.45 0 .43-.18.88-.55 1.35l-2.9 3.74c-.47.57-.97.85-1.5.85-.43 0-.87-.17-1.3-.5-2.36-1.8-4.97-3.2-7.81-4.22a26.12 26.12 0 0 0-8.81-1.52c-4.86 0-9.36 1.22-13.51 3.67-4.14 2.45-7.43 5.78-9.86 9.99s-3.64 8.85-3.64 13.91 1.21 9.77 3.64 14.03 5.72 7.63 9.86 10.11 8.65 3.72 13.51 3.72c2.5 0 5.08-.35 7.74-1.05s5.11-1.67 7.34-2.9V41.69c0-1.33.66-2 2-2zM537.81 71.34h-4.99c-1.33 0-2-.66-2-2V3.19c0-1.33.66-2 2-2h4.99c1.33 0 2 .67 2 2v66.16c0 1.33-.66 2-2 2zM581.66 71.34h-4.99c-1.33 0-2-.66-2-2V9.43h-20.42c-1.33 0-2-.67-2-2V3.19c0-1.33.66-2 2-2h49.83c1.33 0 2 .67 2 2v4.24c0 1.33-.67 2-2 2h-20.42v59.92c0 1.33-.67 2-2 2zM673.08 69.99c0 .43-.15.77-.45 1s-.73.35-1.3.35h-5.14c-1.13 0-1.9-.51-2.3-1.55l-5.54-14.23H624.9l-5.49 14.23c-.4 1.03-1.17 1.55-2.3 1.55h-5.14c-.57 0-1-.12-1.3-.37s-.45-.59-.45-1.02c0-.27.05-.57.15-.9l26.56-66.36c.4-1.03 1.18-1.55 2.35-1.55h4.74c1.17 0 1.95.52 2.35 1.55l26.51 66.36c.13.3.2.62.2.95zM655.2 47.32l-13.13-34-.45-1.4-.45 1.4-13.18 34zM726.41 71.34h-38.9c-1.33 0-2-.66-2-2V3.19c0-1.33.66-2 2-2h4.99c1.33 0 2 .67 2 2v59.67h31.91c1.33 0 2 .67 2 2v4.49c0 1.33-.67 2-2 2zM90.73 18.88H66.34c-1.02 0-1.85.83-1.85 1.85v13.79c0 1.02.83 1.85 1.85 1.85h15.64l-4.37 4.38-4.37 4.37-4.38 4.38-3.83 3.83c-.35.35-.54.82-.54 1.31v14.87c0 1.02.83 1.85 1.85 1.85h14.58c.68 0 1.33-.27 1.81-.75l3.63-3.62 4.37-4.38 4.37-4.38 4.38-4.37v13.79c0 2.05 1.66 3.7 3.7 3.7h11.94c1.02 0 1.85-.83 1.85-1.85V20.72c0-1.02-.83-1.85-1.85-1.85H90.73zM155.21 18.88l-4.37 4.38-4.38 4.37v-6.89c0-1.02-.83-1.85-1.85-1.85h-13.79c-1.02 0-1.85.83-1.85 1.85v48.78c0 1.02.83 1.85 1.85 1.85h13.79c1.02 0 1.85-.83 1.85-1.85V36.38h17.5v33.14c0 1.02.83 1.85 1.85 1.85h13.79c1.02 0 1.85-.83 1.85-1.85V20.76c0-1.02-.83-1.85-1.85-1.85h-24.39zM26.24 18.88l-4.37 4.38-4.38 4.37V3.24c0-1.02-.83-1.85-1.85-1.85H1.85C.83 1.39 0 2.22 0 3.24v66.28c0 1.02.83 1.85 1.85 1.85h13.79c1.02 0 1.85-.83 1.85-1.85V36.38h17.5v33.14c0 1.02.83 1.85 1.85 1.85h13.79c1.02 0 1.85-.83 1.85-1.85V20.76c0-1.02-.83-1.85-1.85-1.85H26.24zM228.45 3.24v15.65h-33.14c-1.02 0-1.85.83-1.85 1.85v48.78c0 1.02.83 1.85 1.85 1.85h48.78c1.02 0 1.85-.83 1.85-1.85V3.24c0-1.02-.83-1.85-1.85-1.85H230.3c-1.02 0-1.85.82-1.85 1.85zm0 50.65h-17.49V36.4h17.5v17.5zM257.94 20.74v48.79c0 1.02.83 1.85 1.85 1.85h48.78c1.02 0 1.85-.83 1.85-1.85v-9.42c0-1.02-.83-1.85-1.85-1.85h-33.14V51.7h33.14c1.02 0 1.85-.83 1.85-1.85V20.75c0-1.02-.83-1.85-1.85-1.85h-48.78c-1.02 0-1.85.83-1.85 1.85zm8.75 11.27h.01zm26.24 6.56h-17.49v-6.56h17.5v6.56z"/><rect height="52.49" rx="1.85" width="17.49" x="322.43" y="18.88"/><path d="M339.93 3.24c0-1.02-.83-1.85-1.85-1.85H324.3c-1.02 0-1.85.83-1.85 1.85v8.54c0 1.02.83 1.85 1.85 1.85h13.79c1.02 0 1.85-.83 1.85-1.85V3.24z"/></svg>