<svg height="2500" viewBox="0 0 2000 2000" width="2500" xmlns="http://www.w3.org/2000/svg"><path d="M0 0h2000v2000H0z" fill="#fff"/><path d="M1377 601h2v172l-23 13-26 15-22 13-26 15-24 14-25 14-15 9-48 28-22 13-11 7-13 9-8 7-5 8-2 7v18l3 10 6 10 9 8 23 14 26 15 22 13 48 28 25 14 41 24 29 17 20 12 17 10 1 1 1 166-8-4-16-10-20-12-13-8-21-13-28-17-97-59-27-16-20-12-28-17-25-15-23-14-11-8-16-12-17-16-8-10-10-15-10-17-11-24-6-20-3-20-1-22 2-21 6-29 6-16 13-27 7-10 11-13 11-12 7-7 19-14 16-10 21-12 25-14 25-15 26-15 27-16 28-16 24-14 27-15 15-9 48-28 26-15z" fill="#5d5f5e"/><path d="M824 603h3l1 212 7 2 18 10 22 12 16 9 19 11-2 13-6 34-3 26v67l1 23h-3l-17-10-29-16-22-12-2-1v242l-6-2-26-15-23-13-21-12-25-14-26-15-22-12-4-2V691l4-4 12-6 17-10 24-14 26-15 21-12 24-14z" fill="#5e605f"/><path d="M1108 432h1v232l-1 29-27 16-15 10-20 12-14 9-21 13-52 33-4 1V522l3-3 32-19 24-14 25-14 41-24 24-14z" fill="#010201"/><path d="M674 894l5 2 24 13 24 14 28 16 24 14 23 13 21 12 4 4-1 242-5-1-26-15-23-13-21-12-25-14-26-15-22-12-4-2z" fill="#010101"/><path d="M955 1121l6 2 21 12 22 13 21 12 17 10 26 15 29 17 11 7 1 1v184l-9-5-14-9-20-13-24-15-23-14-24-15-20-12-19-12-1-1z" fill="#020202"/><path d="M824 603h3v81l-1 128-5-1-27-14-25-14-24-14-29-16-24-13-18-10v-39l4-4 12-6 17-10 24-14 26-15 21-12 24-14z" fill="#010101"/></svg>