<svg height="945" viewBox="0 0 84.9 32.1" width="2500" xmlns="http://www.w3.org/2000/svg"><g fill="#215973"><path d="m3.5.1v7.8c.4-.9.9-1.6 1.5-2s1.3-.5 2-.5c.5 0 1 .1 1.3.2.4.1.6.3.9.6s.5.6.6 1 .2 1 .2 1.7v5.6c0 .6.1 1 .4 1.2.2.2.6.3 1.2.3v.4c-.2 0-.6 0-1.1-.1h-2.8c-.4 0-.8 0-1 .1v-.4c.5 0 .9-.1 1.1-.3s.3-.6.3-1.2v-6c0-.4 0-.8-.1-1.2s-.3-.7-.5-.9c-.2-.3-.6-.4-1.1-.4-.6 0-1.1.2-1.5.5s-.8.8-1 1.3c-.2.6-.4 1.2-.4 2v4.6c0 .6.1 1 .3 1.2s.6.3 1.1.3v.4c-.2 0-.6 0-1-.1h-2.7c-.5 0-.8 0-1.1.1v-.4c.6 0 1-.1 1.2-.3s.4-.6.4-1.2v-11.8c0-.6-.1-1.1-.3-1.4-.4-.3-.8-.5-1.4-.5v-.4c.4 0 .9.1 1.3.1s.8-.1 1.2-.1c.3-.1.7-.1 1-.2zm14 5.3c1.2 0 2.2.4 2.9 1.1s1 1.9 1 3.5h-7.4v-.4h5.4c0-.7 0-1.3-.2-1.9-.1-.6-.4-1-.7-1.4-.3-.3-.7-.5-1.2-.5-.6 0-1.2.3-1.7 1-.5.6-.8 1.7-.9 3l.1.1c0 .2 0 .4-.1.7v.8c0 .9.2 1.8.5 2.4.3.7.7 1.2 1.2 1.6s1 .5 1.5.5c.4 0 .8-.1 1.2-.2s.7-.4 1-.7.6-.7.8-1.2l.4.2c-.2.5-.4.9-.8 1.3-.3.4-.8.8-1.3 1.1s-1.1.4-1.8.4c-1 0-1.9-.2-2.6-.7s-1.3-1.1-1.6-1.9c-.2-.9-.4-1.9-.4-2.9 0-1.2.2-2.3.6-3.2s.9-1.6 1.6-2c.7-.5 1.6-.7 2.5-.7zm8.5 11.1c-.6 0-1.1-.1-1.5-.3s-.7-.5-.9-.9-.3-.8-.3-1.4.1-1.1.4-1.5.6-.7 1.1-.9c.4-.2.9-.4 1.4-.6s1-.3 1.4-.5c.4-.1.8-.3 1.1-.5s.4-.5.4-.8v-1.3c0-.6-.1-1-.3-1.3s-.4-.5-.7-.6-.6-.2-1-.2c-.3 0-.7 0-1.1.1s-.7.3-.9.6c.3.1.5.2.7.4s.3.5.3.9c0 .3-.1.6-.3.8s-.5.3-.9.3-.7-.1-.9-.4c-.2-.1-.3-.4-.3-.7 0-.4.1-.7.3-.9s.4-.4.7-.6.7-.4 1.2-.6 1.1-.2 1.7-.2 1.1.1 1.5.2.7.3 1 .6c.4.3.6.7.7 1.2s.2 1.1.2 1.7v5.8c0 .3.1.6.2.8s.3.2.5.2.3 0 .4-.1.3-.2.5-.3l.2.4c-.3.2-.6.4-.8.6-.3.1-.6.2-1.1.2-.4 0-.7-.1-1-.2s-.5-.3-.6-.6-.2-.6-.2-1c-.4.4-.9.9-1.4 1.2s-1.1.4-1.7.4zm.7-.8c.5 0 .9-.1 1.3-.4s.8-.7 1.1-1.2v-4.1c-.2.2-.4.4-.7.6s-.7.3-1 .5-.7.3-1.1.6-.6.5-.8.8-.3.8-.3 1.4.1 1 .4 1.3c.2.3.6.5 1.1.5zm10-15.7v14.4c0 .6.1 1 .4 1.2.2.2.6.3 1.2.3v.4c-.2 0-.6 0-1.1-.1h-2.8c-.5 0-.8 0-1.1.1v-.4c.6 0 1-.1 1.2-.3s.4-.6.4-1.2v-11.9c0-.6-.1-1.1-.3-1.4s-.6-.4-1.2-.4v-.4h2.3c.3-.1.7-.2 1-.3zm6 2.2v3.5h3.1v.4h-3.1v8.1c0 .7.1 1.1.4 1.4.2.3.6.4 1 .4s.8-.2 1.1-.5.6-.9.8-1.7l.4.1c-.1.8-.4 1.5-.8 2-.4.6-1 .8-1.9.8-.5 0-.9-.1-1.2-.2s-.6-.3-.8-.5c-.3-.3-.5-.7-.6-1.1s-.2-1-.2-1.8v-7h-2v-.4h2v-3.2c.3 0 .7 0 1-.1.2 0 .5-.1.8-.2zm7.3-2.1v7.8c.4-.9.9-1.6 1.5-2s1.3-.5 2-.5c.5 0 1 .1 1.3.2.4.1.6.3.9.6s.5.6.6 1 .2 1 .2 1.7v5.6c0 .6.1 1 .4 1.2s.6.3 1.2.3v.4c-.2 0-.6 0-1.1-.1h-2.7c-.4 0-.8 0-1 .1v-.4c.5 0 .9-.1 1.1-.3s.3-.6.3-1.2v-6c0-.4 0-.8-.1-1.2s-.2-.7-.5-.9c-.2-.2-.6-.3-1.1-.3-.6 0-1.1.2-1.5.5s-.8.8-1 1.3c-.2.6-.4 1.2-.4 2v4.6c0 .6.1 1 .3 1.2s.6.3 1.1.3v.4c-.2 0-.6 0-1-.1h-2.7c-.5 0-.8 0-1.1.1v-.4c.6 0 1-.1 1.2-.3s.4-.6.4-1.2v-11.9c0-.6-.1-1.1-.3-1.4s-.6-.4-1.3-.4v-.5c.4 0 .9.1 1.3.1s.8 0 1.2-.1c.1-.1.5-.1.8-.2zm18.3 5.5v.4c-.3 0-.5.1-.7.4-.2.2-.4.6-.6 1.1l-3.4 9h-.4l-3.9-9.2c-.2-.5-.4-.9-.7-1-.2-.1-.4-.2-.6-.2v-.5c.3 0 .6 0 .9.1h2.4c.5 0 .9 0 1.3-.1v.4c-.3 0-.7 0-.9.1-.3 0-.4.2-.5.4s0 .6.2 1.1l2.6 6.4-.1.3 2.4-6.2c.2-.5.3-.8.2-1.1 0-.3-.2-.5-.4-.6s-.6-.2-1.1-.2v-.6h2.6c.2.1.5.1.7 0zm4.1-.2v9c0 .6.1 1 .4 1.2s.6.3 1.2.3v.4c-.2 0-.6 0-1.1-.1h-2.8c-.5 0-.8 0-1.1.1v-.4c.6 0 1-.1 1.2-.3s.4-.6.4-1.2v-6.5c0-.6-.1-1.1-.3-1.4s-.6-.4-1.2-.4v-.5c.4 0 .9.1 1.3.1s.8 0 1.2-.1.5-.1.8-.2zm-1.1-5c.4 0 .7.1.9.4.3.3.5.6.5 1s-.1.7-.4.9c-.3.3-.6.4-.9.4s-.7-.1-1-.4-.4-.6-.4-.9c0-.4.1-.7.4-.9.3-.3.6-.5.9-.5zm8.9 5c.9 0 1.7.2 2.4.6s1.3 1 1.7 1.8.6 1.9.6 3.2-.2 2.4-.6 3.3c-.4.8-1 1.4-1.7 1.8s-1.5.6-2.4.6-1.7-.2-2.4-.6-1.3-1-1.7-1.8-.6-1.9-.6-3.2.2-2.4.6-3.2 1-1.4 1.7-1.8c.7-.6 1.5-.7 2.4-.7zm0 .4c-.8 0-1.4.4-1.9 1.2s-.8 2.2-.8 4c0 1.9.3 3.2.8 4s1.2 1.2 1.9 1.2 1.4-.4 1.9-1.2.8-2.1.8-4-.3-3.2-.8-4-1.1-1.2-1.9-1.2zm-57.9 14.98h1.14c.34 0 .59.08.76.23s.25.35.25.59c0 .1-.02.21-.05.32s-.09.21-.17.3-.19.17-.34.23-.32.09-.54.09h-.4v-.08h.36c.2 0 .35-.04.45-.11s.18-.17.21-.3c.04-.12.06-.25.06-.4 0-.26-.05-.46-.16-.59s-.28-.2-.54-.2c-.13 0-.21.02-.25.07s-.06.14-.06.29v2.07c0 .1.01.17.03.23.02.05.06.08.12.1s.15.03.27.03v.08c-.07 0-.16 0-.28-.01h-.64c-.09 0-.17 0-.23.01v-.08c.09 0 .17-.02.22-.03s.08-.05.1-.1.02-.13.02-.23v-2.07c0-.1 0-.18-.02-.23s-.05-.08-.1-.1-.12-.03-.22-.03v-.08zm3.37.75c.18 0 .34.04.48.12s.26.2.34.37.13.38.13.65-.04.48-.13.65-.2.29-.34.37-.3.12-.48.12-.33-.04-.48-.12c-.14-.08-.26-.2-.34-.37s-.13-.38-.13-.65.04-.48.13-.65c.08-.17.2-.29.34-.37s.3-.12.48-.12zm0 .08c-.16 0-.29.08-.39.25s-.15.43-.15.81.05.64.15.8.23.24.39.24.29-.08.39-.24.15-.43.15-.8-.05-.64-.15-.81c-.1-.16-.23-.25-.39-.25zm2.03-.02v.09c-.07 0-.13 0-.18.01-.05 0-.09.04-.1.09-.02.05 0 .13.04.25l.43 1.25h-.03l.61-1.7.08.03-.76 2.16h-.07l-.69-1.85c-.04-.11-.09-.18-.13-.2s-.08-.03-.11-.03v-.09c.06 0 .11.01.17.02h.46c.1 0 .19-.01.27-.02zm2.29 0v.08c-.05 0-.1.03-.15.07s-.09.12-.12.22l-.61 1.8h-.07l-.67-1.71.1-.48h.1l.65 1.73-.03.02.41-1.26c.03-.09.04-.17.04-.22s-.03-.09-.08-.12-.12-.04-.22-.05v-.08h.66zm1.11-.06c.25 0 .44.08.57.22.14.15.21.38.21.7h-1.47v-.08h1.07c0-.14 0-.26-.03-.38s-.07-.21-.13-.28-.14-.1-.23-.1c-.13 0-.24.06-.34.19s-.16.33-.18.61v.31c0 .19.03.35.09.49s.14.24.24.31.2.11.31.11c.08 0 .16-.01.24-.04s.14-.07.21-.13c.06-.06.12-.14.17-.25l.08.03c-.03.09-.08.18-.15.27s-.16.16-.26.21a.985.985 0 0 1 -.89-.06c-.14-.09-.25-.22-.33-.38s-.11-.35-.11-.56c0-.25.04-.46.12-.63s.19-.31.33-.41.31-.14.5-.14zm2.4 0c.08 0 .14.02.2.05s.1.07.13.12.05.1.05.17-.02.13-.06.18-.1.08-.17.08c-.06 0-.11-.02-.15-.06s-.07-.09-.07-.16c0-.05.01-.1.04-.14s.06-.07.1-.09c-.02-.03-.05-.04-.09-.04-.09 0-.17.03-.24.08s-.13.12-.18.2-.09.17-.12.26-.04.17-.04.25v.88c0 .14.04.23.12.27.08.05.19.07.32.07v.09c-.06 0-.15 0-.27-.01h-.65c-.09 0-.16 0-.21.01v-.09c.11 0 .2-.02.24-.06.05-.04.07-.12.07-.24v-1.31c0-.12-.02-.22-.07-.28-.04-.06-.13-.09-.25-.09v-.09c.09 0 .18.01.26.01s.16 0 .23-.01.14-.02.2-.04v.52c.03-.08.07-.16.13-.24s.13-.15.21-.21.17-.08.27-.08zm1.49 0c.25 0 .44.08.57.22.14.15.21.38.21.7h-1.47v-.08h1.07c0-.14 0-.26-.03-.38s-.07-.21-.13-.28-.14-.1-.23-.1c-.13 0-.24.06-.34.19s-.16.33-.18.61v.31c0 .19.03.35.09.49s.14.24.24.31.2.11.31.11c.08 0 .16-.01.24-.04s.14-.07.21-.13c.06-.06.12-.14.17-.25l.08.03c-.03.09-.08.18-.15.27s-.16.16-.26.21a.985.985 0 0 1 -.89-.06c-.14-.09-.25-.22-.33-.38s-.11-.35-.11-.56c0-.25.04-.46.12-.63s.19-.31.33-.41.31-.14.5-.14zm2.12 0c.12 0 .24.03.34.09.11.06.18.16.21.3l-.05.04c-.04-.12-.1-.2-.18-.25s-.18-.08-.29-.08c-.16 0-.3.08-.41.25s-.16.43-.16.79c0 .23.02.41.06.56s.11.26.19.33.19.11.31.11.22-.05.32-.15c.09-.1.15-.25.17-.44l.05.06c-.02.21-.09.38-.2.49s-.27.17-.46.17c-.17 0-.32-.04-.45-.12s-.23-.21-.3-.38-.1-.38-.1-.63.04-.46.13-.63.2-.29.35-.38c.14-.08.3-.13.47-.13zm.88-1.06v2.82c0 .12.02.22.07.28s.13.09.25.09v.09c-.09 0-.17-.01-.26-.01-.08 0-.16 0-.23.01s-.14.02-.2.05v-2.82c0-.12-.02-.22-.07-.28-.04-.06-.13-.09-.25-.09v-.09c.09 0 .18.01.26.01s.16 0 .23-.01c.07 0 .14-.02.2-.04zm2.15 0v3.05s-.07.06-.11.09-.07.06-.11.09-.07.06-.11.1l-.07-.03s.02-.08.02-.12v-2.68c0-.12-.02-.22-.07-.28-.04-.06-.13-.09-.25-.09v-.09c.09 0 .18.01.26.01s.16 0 .23-.01.14-.02.2-.04zm.65 1.06c.23 0 .42.09.57.28s.23.47.23.85c0 .25-.04.46-.13.63-.08.17-.2.29-.34.38a.93.93 0 0 1 -.46.12c-.14 0-.27-.04-.4-.12s-.23-.2-.29-.35l.08.05c.07.11.16.19.26.25s.21.08.32.08c.19 0 .33-.08.42-.25s.14-.43.14-.78c0-.23-.02-.41-.05-.56s-.09-.26-.17-.34-.17-.11-.29-.11c-.13 0-.25.06-.36.17-.11.12-.18.29-.2.51l-.05-.06c.03-.24.11-.42.25-.55.13-.13.3-.2.48-.2zm3.02.06v.08c-.05 0-.1.03-.15.07-.04.04-.09.12-.13.22l-.69 1.8h-.07l-.77-1.85c-.05-.11-.1-.17-.16-.2-.05-.02-.09-.04-.13-.04v-.09c.06 0 .12.01.19.02h.49c.1 0 .19-.01.27-.02v.09c-.07 0-.13 0-.19.01-.05 0-.09.04-.1.09s0 .13.05.25l.51 1.27h-.03l.48-1.24c.04-.09.05-.17.04-.22 0-.05-.04-.09-.09-.12s-.12-.04-.23-.05v-.08h.66zm-.96 2.17-.14.36c-.03.07-.06.13-.09.17-.03.05-.06.09-.09.12-.04.04-.1.07-.16.09-.06.01-.12.02-.17.02s-.1 0-.14-.03c-.04-.02-.08-.05-.1-.09s-.04-.08-.04-.14c0-.07.02-.12.06-.16s.09-.06.16-.06c.06 0 .11.02.15.05s.06.08.06.15c0 .05-.01.09-.03.12s-.05.05-.08.07h.02c.08 0 .14-.03.2-.08s.11-.13.15-.25l.15-.39.08.03zm20.65 7.83c-.13 0-.25-.02-.36-.07s-.2-.11-.28-.2a.907.907 0 0 1 -.19-.3c-.04-.11-.07-.24-.07-.37a.986.986 0 0 1 .26-.68c.08-.08.17-.15.28-.2s.23-.07.36-.07.24.02.34.07c.1.04.19.1.25.17.07.07.12.14.15.23l-.22.1a.602.602 0 0 0 -.2-.25c-.09-.06-.2-.09-.32-.09s-.24.03-.34.09-.18.14-.23.25-.08.23-.08.38.03.27.08.37a.62.62 0 0 0 .57.34c.13 0 .23-.03.32-.09s.16-.14.2-.25l.22.1a.739.739 0 0 1 -.4.4c-.1.04-.21.07-.34.07zm1.64 0a.642.642 0 0 1 -.59-.34c-.06-.1-.09-.22-.09-.36s.03-.25.09-.35.14-.18.24-.24.22-.09.35-.09.24.03.35.09c.1.06.18.14.24.24s.09.22.09.36-.03.25-.09.36a.58.58 0 0 1 -.25.24c-.1.06-.22.09-.34.09zm0-.22c.08 0 .16-.02.22-.06a.475.475 0 0 0 .22-.41.475.475 0 0 0 -.22-.41c-.07-.04-.14-.06-.22-.06s-.16.02-.22.06a.475.475 0 0 0 -.22.41.475.475 0 0 0 .22.41c.07.04.14.06.22.06zm.98.19v-1.32h.22v.26l-.04-.02c.03-.08.09-.15.16-.2s.16-.07.26-.07.18.02.25.06a.516.516 0 0 1 .25.43v.85h-.23v-.78c0-.07-.01-.14-.04-.19s-.06-.09-.11-.12-.1-.04-.17-.04-.12.01-.17.04-.09.07-.11.12c-.03.05-.04.11-.04.19v.78h-.23zm1.42 0v-1.32h.22v.26l-.04-.02c.03-.08.09-.15.16-.2s.16-.07.26-.07.18.02.25.06a.516.516 0 0 1 .25.43v.85h-.23v-.78c0-.07-.01-.14-.04-.19s-.06-.09-.11-.12-.1-.04-.17-.04-.12.01-.17.04-.09.07-.11.12c-.03.05-.04.11-.04.19v.78h-.23zm2.03.03a.64.64 0 0 1 -.58-.34c-.06-.11-.09-.22-.09-.35s.03-.25.08-.35.13-.18.23-.24.21-.09.33-.09c.1 0 .19.02.26.05.08.04.14.08.19.14s.09.13.12.2c.03.08.04.15.04.24v.12h-1.08v-.2h.95l-.11.09c.01-.08 0-.16-.03-.23s-.08-.12-.14-.16-.13-.06-.21-.06-.15.02-.21.06-.11.1-.15.17-.05.16-.04.26c0 .1 0 .18.04.25s.09.13.16.17.14.06.22.06c.09 0 .16-.02.22-.06s.11-.09.15-.16l.19.1c-.03.06-.07.12-.12.17s-.12.09-.19.12-.16.04-.25.04zm1.51 0a.642.642 0 0 1 -.59-.34c-.06-.1-.09-.22-.09-.35s.03-.25.09-.35.14-.18.24-.24.21-.09.35-.09c.09 0 .17.02.24.05s.14.07.2.12.1.11.12.18l-.2.1a.457.457 0 0 0 -.14-.17.41.41 0 0 0 -.44-.01c-.06.04-.12.1-.15.17-.04.07-.06.15-.06.24s.02.17.06.24.09.13.15.17.14.06.22.06.16-.02.22-.07c.06-.04.11-.1.14-.17l.2.1c-.03.07-.07.13-.12.18a.644.644 0 0 1 -.44.18zm1.4-.01c-.13 0-.23-.04-.3-.11s-.1-.18-.1-.31v-.7h-.24v-.22h.05c.06 0 .11-.02.14-.05.03-.04.05-.08.05-.14v-.11h.23v.3h.3v.22h-.3v.69s0 .08.02.12c.01.03.04.06.07.08s.08.03.13.03h.09v.2s-.05 0-.07.01h-.07c-.02 0 0 0 0 0zm.43-1.55v-.29h.23v.29zm0 1.53v-1.32h.23v1.32zm.59 0v-1.32h.22v.26l-.04-.02c.03-.08.09-.15.16-.2s.16-.07.26-.07.18.02.25.06a.516.516 0 0 1 .25.43v.85h-.23v-.78c0-.07-.01-.14-.04-.19s-.06-.09-.11-.12-.1-.04-.17-.04-.12.01-.17.04-.09.07-.11.12c-.03.05-.04.11-.04.19v.78h-.23zm2.05.54c-.09 0-.18-.01-.26-.04s-.15-.07-.2-.12a.463.463 0 0 1 -.13-.18l.21-.1c.02.06.07.12.13.16s.15.07.24.07c.07 0 .14-.01.2-.04s.11-.07.14-.13c.04-.06.05-.12.05-.2v-.3l.04.04c-.05.09-.11.16-.2.21s-.18.07-.28.07c-.12 0-.24-.03-.33-.09-.1-.06-.17-.14-.23-.24s-.08-.21-.08-.33.03-.24.08-.34a.63.63 0 0 1 .56-.33c.1 0 .2.02.28.07s.15.11.2.19l-.03.06v-.29h.22v1.26c0 .11-.03.22-.08.31s-.13.16-.22.21c-.1.05-.2.08-.33.08zm-.02-.79c.08 0 .15-.02.21-.06a.463.463 0 0 0 .21-.38.463.463 0 0 0 -.21-.38c-.06-.04-.13-.06-.21-.06s-.15.02-.22.06-.12.09-.15.16c-.04.07-.05.14-.05.22s.02.16.05.22c.04.07.09.12.15.16s.14.06.22.06zm2.29.28c-.13 0-.25-.02-.36-.07s-.2-.11-.28-.2a.907.907 0 0 1 -.19-.3c-.04-.11-.07-.24-.07-.37a.986.986 0 0 1 .26-.68c.08-.08.17-.15.28-.2s.23-.07.36-.07.24.02.34.07c.1.04.19.1.25.17.07.07.12.14.15.23l-.22.1a.602.602 0 0 0 -.2-.25c-.09-.06-.2-.09-.32-.09s-.24.03-.34.09-.18.14-.23.25-.08.23-.08.38.03.27.08.37a.62.62 0 0 0 .57.34c.13 0 .23-.03.32-.09s.16-.14.2-.25l.22.1a.739.739 0 0 1 -.4.4c-.1.04-.21.07-.34.07zm1.41 0c-.09 0-.16-.02-.23-.05s-.12-.08-.16-.13c-.04-.06-.06-.12-.06-.2s.02-.13.05-.19.08-.1.14-.14.15-.07.24-.08l.49-.08v.19l-.44.07c-.08.01-.15.04-.19.08s-.06.09-.06.14.02.1.07.13c.04.04.1.05.16.05.08 0 .16-.02.22-.05.06-.04.11-.08.14-.14.04-.06.05-.13.05-.2v-.34c0-.07-.03-.13-.08-.17s-.12-.07-.21-.07a.36.36 0 0 0 -.33.21l-.2-.1c.03-.06.06-.12.12-.16.05-.05.12-.09.19-.11s.15-.04.23-.04c.1 0 .19.02.27.06s.14.09.18.16.07.15.07.24v.9h-.22v-.25h.04c-.03.07-.07.11-.11.15a.46.46 0 0 1 -.17.09c-.06.02-.13.03-.21.03zm1.02-.03v-1.32h.22v.24l-.03-.03c.03-.07.08-.13.14-.17s.14-.05.23-.05h.08v.21h-.12c-.09 0-.17.03-.23.09s-.09.14-.09.25v.79h-.23zm1.46.03a.64.64 0 0 1 -.58-.34c-.06-.11-.09-.22-.09-.35s.03-.25.08-.35a.63.63 0 0 1 .56-.33c.1 0 .19.02.26.05.08.04.14.08.19.14s.09.13.12.2c.03.08.04.15.04.24v.12h-1.08v-.2h.95l-.11.09c.01-.08 0-.16-.03-.23s-.08-.12-.14-.16-.13-.06-.21-.06-.15.02-.21.06-.11.1-.15.17-.05.16-.04.26c0 .1 0 .18.05.25a.428.428 0 0 0 .38.23c.09 0 .16-.02.22-.06s.11-.09.15-.16l.19.1c-.03.06-.07.12-.12.17s-.12.09-.19.12-.16.04-.25.04z"/><path d="m61.9 27.75v-5.34h1.06v5.34zm-2.46.08c-.41 0-.76-.09-1.07-.27-.3-.18-.53-.42-.7-.73s-.25-.64-.25-1.02.09-.73.26-1.03.4-.54.7-.71c.29-.17.62-.26.99-.26.31 0 .58.05.81.14.24.1.43.23.6.41.16.17.29.38.37.6.08.23.13.48.13.74 0 .07 0 .15-.01.22 0 .07-.02.14-.04.19h-2.7c.01.1.04.19.07.27.07.17.18.29.32.38.15.09.32.14.53.14.19 0 .35-.04.48-.11s.24-.18.31-.31l.85.4c-.07.19-.19.35-.36.49-.16.14-.35.25-.58.33-.22.08-.46.12-.73.12zm-.84-2.65s-.03.1-.05.16h1.6c0-.06-.02-.12-.04-.17-.05-.16-.14-.28-.27-.37s-.29-.14-.48-.14-.34.05-.47.13c-.13.09-.23.22-.3.39zm5.13-2.78v5.34h1.06v-5.34zm3.83 5.43c-.33 0-.64-.06-.93-.18s-.54-.29-.75-.51-.37-.48-.47-.78l.9-.4c.13.29.31.51.55.68.23.17.49.25.77.25.15 0 .28-.02.39-.07s.19-.11.25-.19.09-.18.09-.29c0-.12-.04-.23-.11-.31-.07-.09-.19-.16-.35-.21l-1.03-.34c-.42-.14-.73-.33-.94-.58s-.32-.55-.32-.91c0-.31.08-.58.23-.82s.37-.42.64-.55c.28-.13.59-.2.95-.2.32 0 .61.05.87.16.27.11.5.26.7.46s.34.44.44.71l-.89.4c-.1-.24-.25-.44-.44-.58-.2-.14-.42-.21-.68-.21-.15 0-.27.02-.39.07-.11.05-.2.11-.26.2s-.09.19-.09.3c0 .12.04.23.12.32s.2.16.36.21l1.01.32c.42.14.74.33.95.57s.31.54.31.9c0 .31-.08.58-.24.82s-.38.42-.66.56c-.28.13-.61.2-.98.2zm2.85 1.44c.1.02.21.03.33.03.24 0 .45-.04.64-.13s.36-.22.51-.4.28-.4.38-.66l1.65-4.22h-1.14l-.91 2.48-.91-2.48h-1.14l1.52 3.85-.07.16c-.06.12-.13.23-.22.33s-.24.14-.44.14c-.07 0-.16 0-.25-.02-.09-.01-.17-.03-.23-.05v.87c.08.04.17.07.28.09zm3.98-1.53v-3.85h.99v.47c.09-.17.22-.3.38-.39.2-.11.43-.17.7-.17.29 0 .55.06.77.18s.39.29.51.51.18.47.18.77v2.48h-1.06v-2.25c0-.15-.03-.28-.09-.39s-.14-.19-.25-.25-.23-.09-.37-.09-.26.03-.37.09-.19.15-.25.25c-.06.11-.09.24-.09.39v2.25h-1.06zm5.08-.18c.31.18.66.27 1.04.27.29 0 .56-.05.8-.15s.45-.24.63-.42c.17-.18.3-.38.37-.61l-.92-.4c-.07.19-.18.35-.33.46-.16.11-.34.17-.55.17-.18 0-.35-.05-.49-.13-.14-.09-.26-.21-.34-.37s-.12-.34-.12-.55.04-.39.12-.55.2-.29.34-.37c.14-.09.31-.13.49-.13.21 0 .39.06.55.17s.27.27.34.46l.92-.39c-.07-.24-.2-.45-.37-.63-.18-.18-.38-.31-.63-.41-.24-.1-.51-.15-.8-.15-.39 0-.74.09-1.05.26s-.56.41-.73.72c-.18.3-.27.65-.27 1.03s.09.73.27 1.03c.18.31.43.55.74.72z" fill-rule="evenodd"/><path d="m49.52 19.49c-.01 0-.02.01-.04.02.05-.03.1-.06.16-.09-.04.02-.08.04-.12.07zm-.19.12c.05-.03.1-.07.15-.1-.02.01-.04.02-.05.03-.03.02-.07.04-.1.06zm-.3.21s.1-.07.15-.11c-.03.02-.07.04-.1.07-.02.01-.03.03-.05.04zm-.48.39-.01.01.03-.03s-.01 0-.02.01zm6.13 5.37-.28-.49-.59-1.03s-.03-.05-.05-.07a.902.902 0 0 0 -.09-.1h-.02a.651.651 0 0 0 -.23-.15h-.02a.507.507 0 0 0 -.24-.04h-.04c-.08.01-.15.03-.22.06-.01 0-.02.01-.03.02l-.03.02s-.01 0-.02.01c-.02.02-.05.03-.07.05l-.04.04c-.02.02-.04.03-.05.06-.02.02-.03.04-.04.06 0 0 0 .01-.02.02l-.01.02-.88 1.52-.93-1.61a1.4 1.4 0 0 0 -.83-.66h-.03-.03c-.37-.1-.75-.05-1.08.14l2.27 3.94.01.01v.03c.01.02.02.03.03.04.01.02.03.03.04.04s0 0 0 .01.01.01.02.02c.01 0 .02.02.03.03.02.02.04.03.07.05 0 0 .01 0 .02.02l.03.02s.04.02.05.03.04.02.06.02h.34s.03 0 .05-.01c.02 0 .03-.01.05-.02.03-.01.06-.03.08-.04h.02l.03-.03c.02-.01.05-.03.07-.05.02-.01.03-.03.05-.04l.05-.05c.01-.02.02-.03.04-.05s0-.03.02-.03 0 0 0-.01l.59-1.03.28-.49.87 1.52c.06.11.15.2.27.27l.04.03h.02c.09.06.19.08.29.09.2 0 .39-.08.52-.23.02-.03.04-.05.05-.07l.01-.02.12-.2.03-.04v-.02l2.35-4.06.12-.21c.44-.76.33-1.72-.28-2.35l-.01-.01a6.477 6.477 0 0 0 -3.68-1.89h-.02-.02c-.05 0-.11-.02-.16-.02-.04 0-.07 0-.11-.01s-.06 0-.09 0c-.06 0-.11 0-.17-.01h-.77c-.09 0-.17.01-.26.02h-.22c-.03 0-.06 0-.09.01h-.15-.02-.03c-.02 0-.04 0-.06.01h-.1c-.01 0-.03 0-.05.01s-.04 0-.06.01h-.01-.06-.05c-.01 0 0 0 0 0-.03 0-.06.02-.09.02s-.05.02-.08.02h-.02-.04c-.02 0-.04.01-.06.02-.03 0-.07.02-.1.03-.04.01-.08.03-.12.04s-.08.03-.11.04-.08.03-.12.04h-.02c-.03.01-.07.03-.1.04-.04.02-.08.03-.13.05-.03.01-.06.03-.09.04-.03.02-.07.03-.1.05-.04.02-.07.03-.11.05l-.12.06c-.04.02-.08.04-.12.07-.05.03-.09.05-.14.08.01 0 .03-.02.04-.03-.02.01-.04.03-.06.04-.02 0-.03.02-.05.03-.01 0-.02.01-.04.02s0 0-.01 0c-.02.01-.04.02-.05.03a6.541 6.541 0 0 0 -3.08 5.55v.74c.1.89.38 1.73.8 2.47l-.63 2.59c-.08.31.22.59.53.49l2.28-.76c.08.05.16.09.24.14.82.48 1.76.78 2.75.86h1.08c.73-.06 1.42-.23 2.06-.51.04-.01.07-.03.08-.03.08-.04.16-.07.24-.12.08-.04.15-.08.23-.12.05-.03.11-.06.16-.09s.09-.05.14-.08c.28-.18.54-.38.79-.6.06-.05.11-.1.16-.15.1-.09.19-.19.28-.28.05-.05.09-.1.14-.15.26-.29.21-.74-.11-.98a.64.64 0 0 0 -.64-.06h-.02a5.291 5.291 0 0 1 -4.06 1.91c-2.91 0-5.27-2.36-5.27-5.27s2.36-5.28 5.27-5.28c1.31 0 2.52.48 3.44 1.28.01.01.03.02.04.04.01 0 .02.02.03.03.01 0 .02.02.03.03.28.28.34.72.14 1.07l-1.9 3.3zm28.11-2.17v-.98h.2l.37.49h-.09l.36-.49h.2v.98h-.2v-.76l.08.02-.38.49h-.03l-.37-.49.07-.02v.76h-.2zm-.67 0v-.8h-.25v-.18h.7v.18h-.25v.8z"/></g></svg>