<svg height="1397" width="2500" xmlns="http://www.w3.org/2000/svg" viewBox="0 0 1825 1020"><path d="M0 0h1825v1020H0V0z"/><path d="M890.169 214.271c1.962-.003 3.924-.009 5.886-.017 5.316-.015 10.632.008 15.949.039 5.574.026 11.149.02 16.723.02 9.365.003 18.73.029 28.094.07 10.806.047 21.612.063 32.419.06 11.527-.002 23.054.02 34.581.047 3.31.006 6.62.008 9.93.01 5.217.002 10.434.02 15.651.05 1.908.01 3.815.013 5.723.012 13.154-.008 24.782 1.172 36.937 6.625l2.05.913c10.361 4.79 18.636 12.133 26.888 19.9l1.793 1.598c22.679 21.062 35.008 54.552 36.315 84.92.526 22.268-2.214 42.49-13.788 61.88-1.622 2.71-1.622 2.71-1.32 6.602a83.427 83.427 0 0 0 6.562 5.812c1.301 1.08 2.6 2.163 3.899 3.247l1.882 1.558c9.82 8.197 18.437 19.23 24.657 30.383v2h2l-.125-3.48c.008-4.529.871-8.5 2.125-12.833l.662-2.328c11.902-40.092 39.827-75.2 76.538-95.338 15.064-8.036 30.113-13.612 46.8-17.021l3.371-.695c21.025-3.517 42.982-2.23 63.629 2.695l2.533.567c11.216 2.523 21.313 6.055 31.467 11.433l1.988 1.032c13.847 7.237 25.679 16.197 37.012 26.968l1.547 1.465c29.481 28.088 46.421 65.797 47.508 106.588.091 4.985.048 9.963-.055 14.947l-.05 3.383c-.483 11.44-3.188 22.542-5.95 33.617l-.53 2.13c-6.142 23.508-20.88 44.527-37.47 61.87l-2.332 2.559c-19.479 20.616-44.616 33.834-71.668 41.441l-2.879.84c-38.446 10.514-81.703 3.65-116.16-15.531C1236.286 590.14 1215.65 569.31 1201 545l-.33 2.22c-5.051 32.293-18.516 60.837-40.67 84.78l-2.64 2.89c-5.019 5.26-10.331 9.843-16.11 14.235l-1.802 1.377c-11.175 8.25-23.564 14.768-35.85 21.182-3.747 1.957-7.486 3.928-11.227 5.898l-2.225 1.17A1057.17 1057.17 0 0 0 1073 688c-10.023 5.51-20.134 10.848-30.248 16.187-8.615 4.548-17.214 9.12-25.752 13.813-9.28 5.101-18.635 10.057-28 15-9.488 5.009-18.967 10.03-28.375 15.187a3169.28 3169.28 0 0 1-23.9 12.972c-1.265.68-2.53 1.361-3.794 2.043-1.761.95-3.524 1.895-5.286 2.841l-3.083 1.657c-5.651 2.868-11.753 3.494-17.855 1.581-5.66-2.633-9.36-6.447-11.707-12.281-.24-3.1-.24-3.1-.227-6.788v-2.041c0-2.219.016-4.437.032-6.655l.008-4.624c.008-4.051.028-8.102.05-12.152.02-4.136.03-8.272.04-12.408.02-8.11.055-16.221.097-24.332a426532127.102 426532127.102 0 0 0-14.1 8.139A4781.407 4781.407 0 0 1 858.5 709a4869.575 4869.575 0 0 0-23.063 13.25A5959.591 5959.591 0 0 1 808 738a7703.347 7703.347 0 0 0-31.3 17.953 797.988 797.988 0 0 0-16.63 9.842c-5.514 3.211-10.805 3.905-17.07 3.205-6.047-2.016-9.77-6.42-13.067-11.712-1.227-3.008-1.173-5.461-1.16-8.709v-3.942l.032-4.246.008-4.355c.008-3.814.028-7.628.05-11.442.02-3.895.03-7.79.04-11.684.02-7.637.055-15.273.097-22.91-3.918 2.186-7.834 4.374-11.75 6.562l-3.309 1.846A1177.182 1177.182 0 0 0 692 711a1244.562 1244.562 0 0 1-24.5 14c-8.155 4.54-16.26 9.155-24.313 13.875a2779.886 2779.886 0 0 1-25.056 14.522 6117.46 6117.46 0 0 0-5.253 3.01A1575.92 1575.92 0 0 1 603 762l-1.763.998c-1.75.987-3.507 1.962-5.264 2.936l-3.121 1.74c-5.642 2.624-9.835 1.965-15.602.138-5.209-2.904-8.531-6.538-11.25-11.812-.379-2.654-.379-2.654-.385-5.566l-.028-3.376.014-3.694-.02-3.935c-.018-3.604-.017-7.206-.014-10.81 0-3.886-.016-7.772-.03-11.658-.023-6.732-.035-13.464-.04-20.197-.006-9.734-.029-19.467-.056-29.201-.043-15.793-.073-31.585-.095-47.377a48012.46 48012.46 0 0 0-.084-46.024l-.006-2.865-.034-14.23c-.093-39.356-.165-78.712-.222-118.067l-1.585 1.612a5125.76 5125.76 0 0 1-14.872 15.052 2261.876 2261.876 0 0 0-7.643 7.738c-2.455 2.499-4.92 4.987-7.392 7.47a804.055 804.055 0 0 0-4.159 4.232c-5.54 5.542-10.498 10.318-18.787 10.333-6.117-.23-10.698-2.524-14.937-6.875-2.93-4.62-3.707-8.052-4.625-13.562l-41-1v154c14.618-6.991 29.223-14.002 43.782-21.115 2.228-1.088 4.457-2.174 6.687-3.26l1.992-.975c8.64-4.205 16.051-7.664 25.848-5.029 6.29 2.676 8.753 7.502 11.691 13.379.113 2.265.16 4.533.177 6.801l.02 2.12c.02 2.32.031 4.641.041 6.962l.013 2.405c.02 4.204.035 8.408.044 12.612.011 4.331.046 8.662.085 12.993.027 3.339.035 6.677.038 10.017.005 1.595.017 3.19.035 4.786.19 17.269.19 17.269-6.156 24.152-6.018 4.132-12.324 7.667-18.735 11.152-1.198.657-2.395 1.316-3.593 1.974a5510.55 5510.55 0 0 1-7.374 4.049c-5.426 2.979-10.823 6.01-16.22 9.04l-6.195 3.472-3.087 1.731c-6.24 3.498-12.482 6.992-18.723 10.486-5.184 2.903-10.367 5.807-15.55 8.713a8547.697 8547.697 0 0 1-25.761 14.398l-1.756.977c-2.889 1.606-5.78 3.207-8.676 4.803-5.018 2.768-10.006 5.556-14.908 8.525-13.947 8.372-13.947 8.372-22.098 7.547-5.305-1.447-9.608-3.626-12.667-8.32-3.948-7.593-3.517-15.486-3.473-23.815a2187.096 2187.096 0 0 1-.03-18.78c.005-4.95-.013-9.902-.028-14.852-.024-8.573-.032-17.146-.031-25.719.002-12.395-.019-24.79-.044-37.184-.042-20.11-.065-40.22-.077-60.331a58345.951 58345.951 0 0 0-.07-62.25c-.01-6.043-.019-12.085-.03-18.127-.082-50.112-.136-100.225-.171-150.337l-.004 2.324a261433.57 261433.57 0 0 1-.313 152.7l-.008 3.29c-.04 17.59-.072 35.18-.103 52.769-.03 18.047-.07 36.095-.115 54.142-.028 11.137-.05 22.274-.064 33.41-.01 7.637-.029 15.273-.052 22.91-.014 4.405-.024 8.811-.025 13.218-.002 4.036-.012 8.072-.03 12.108a904.966 904.966 0 0 0-.004 4.373c.026 20.473.026 20.473-7.056 27.862-4.281 3.643-9.147 6.162-14.101 8.769a6004.8 6004.8 0 0 0-6.758 3.672l-3.313 1.787c-3.989 2.176-7.903 4.462-11.804 6.791a1978.098 1978.098 0 0 1-19.438 11.375l-2.684 1.567c-7.899 4.543-14 7.132-23.128 4.933-5.082-2.237-7.847-5.664-10.187-10.592-1.578-4.673-1.346-9.42-1.294-14.304l-.01-3.584c-.006-3.266.007-6.531.027-9.797.017-3.528.011-7.056.008-10.584-.002-6.107.01-12.214.033-18.321.033-8.83.043-17.66.048-26.489.009-14.326.035-28.653.073-42.98.037-13.913.065-27.827.082-41.742l.003-2.6.016-12.916c.041-35.697.115-71.394.201-107.091h-75l.08 23.648c.08 24.976.135 49.953.175 74.929a127947.187 127947.187 0 0 0 .024 13.981c.021 12.504.06 25.008.107 37.512.047 12.833.074 25.665.084 38.498.007 7.917.029 15.833.07 23.75.03 6.073.032 12.146.026 18.22 0 2.489.01 4.979.03 7.468.025 3.4.019 6.8.005 10.2l.044 2.983c-.07 6.457-1.422 10.841-5.645 15.811-2.862 2.261-2.862 2.261-5.977 4.02l-1.71.987a291.586 291.586 0 0 1-3.548 2.01c-2.806 1.563-5.574 3.194-8.35 4.807a20116.182 20116.182 0 0 0-10.424 5.932 7438.568 7438.568 0 0 1-7.376 4.191c-2.366 1.343-4.73 2.688-7.093 4.035a7712.498 7712.498 0 0 1-9.585 5.455c-.962.55-1.925 1.1-2.917 1.665l-2.68 1.52c-1.155.655-1.155.655-2.332 1.325-4.582 2.403-8.943 2.79-14.008 2.053-5.424-2.379-10.773-6.044-13.086-11.616-1.058-3.919-1.188-7.564-1.16-11.587l-.007-2.467c-.005-2.733.004-5.465.012-8.198a6115.705 6115.705 0 0 1 .008-22.24c.01-5.86.007-11.722.005-17.583-.001-10.155.005-20.311.017-30.467.011-10.651.02-21.303.021-31.954v-2.007l.003-10.09c.004-23.822.017-47.645.036-71.467a162488.317 162488.317 0 0 0 .05-93.084 698459.747 698459.747 0 0 1 .017-45.814c.019-44.809.05-89.617.084-134.426l-1.884-.894c-2.456-1.284-3.959-2.788-5.866-4.794-2.68-2.754-5.396-5.371-8.313-7.875-3.233-2.778-6.238-5.703-9.21-8.757-1.723-1.676-3.528-3.132-5.415-4.618-4.29-3.652-6.742-7.708-7.69-13.292-.303-5.672 1.088-10.148 4.378-14.77 3.321-3.5 7.261-6.673 12.157-7.257l2.37-.01 2.736-.026 2.978.002 3.155-.02c3.446-.019 6.892-.023 10.338-.025l7.19-.02c5.027-.012 10.054-.016 15.08-.015 6.435 0 12.868-.027 19.302-.061 4.952-.022 9.903-.026 14.855-.025 2.371-.003 4.743-.012 7.114-.027 3.323-.02 6.644-.014 9.966-.002l2.954-.034c6.7.062 12.336 1.225 17.329 5.967 3.962 4.553 5.728 8.001 5.717 14.007l.008 3.357-.022 3.668v3.874c.002 3.502-.01 7.004-.024 10.505-.013 3.661-.014 7.322-.016 10.983-.006 6.93-.023 13.861-.043 20.792-.026 9.367-.037 18.734-.049 28.1-.019 14.756-.059 29.511-.095 44.267h71c.23-13.595.23-13.595.328-27.19.012-5.553.038-11.103.155-16.655.095-4.482.12-8.959.097-13.441.004-1.702.032-3.404.085-5.106.463-9.195.463-9.195-3.039-17.39-3.308-3.247-7.007-5.765-10.956-8.167-2.299-1.447-4.341-3.146-6.404-4.906l-2.035-1.684-1.981-1.649c-4.621-3.833-9.26-7.624-14-11.312-4.153-3.297-7.845-6.69-10.25-11.5-.673-6.787-1.194-13.62 3.228-19.21 5.555-5.61 12.604-7.357 20.267-7.468l3.13.031 3.384-.027c3.664-.021 7.327-.007 10.991.01 2.563-.003 5.125-.008 7.687-.015 5.36-.007 10.72.003 16.079.027 6.172.027 12.344.019 18.517-.009 5.968-.026 11.936-.023 17.904-.008 2.527.003 5.053 0 7.579-.012 3.537-.013 7.072.006 10.609.034l3.13-.03c7.039.101 12.68 1.57 18.495 5.677 9.253 11.037 6 21.698 6 37l190-1-11-14c-2.116-7.405-2.892-12.776.625-19.75 2.934-4.622 7.24-7.538 12.375-9.25 1.348-.094 2.7-.135 4.052-.14l2.493-.018 2.725-.003 2.878-.015c3.15-.015 6.3-.022 9.45-.027l6.574-.017c4.6-.01 9.201-.017 13.802-.02 5.88-.006 11.758-.03 17.636-.058 4.53-.019 9.061-.024 13.592-.026 2.166-.003 4.332-.01 6.498-.024 3.042-.017 6.083-.015 9.124-.008l2.682-.028c7.35.048 14.54 1.059 20.431 5.696 4.975 6.483 6.189 12.188 6.186 20.207l.004 1.951c.002 2.16-.002 4.321-.007 6.482l.003 4.69c.002 4.299-.002 8.597-.007 12.896-.004 4.634-.003 9.269-.002 13.903 0 8.03-.003 16.061-.008 24.092-.008 11.61-.011 23.221-.012 34.832-.002 18.837-.01 37.674-.019 56.511a203944.433 203944.433 0 0 0-.025 75.29c-.01 46.945-.028 93.89-.05 140.834a30845.004 30845.004 0 0 0 17.187-6.97c13.097-5.307 26.141-10.733 39.161-16.227 3-.908 5.534-.858 8.652-.803.193-38.438.312-76.876.333-115.315.002-4.545.005-9.09.009-13.634l.002-2.741c.012-14.623.074-29.245.154-43.867.082-15.02.11-30.038.088-45.057-.011-9.259.019-18.515.102-27.772.053-6.36.054-12.72.015-19.08-.021-3.663-.02-7.323.043-10.985.241-14.778.299-26.319-10.379-37.422a207.318 207.318 0 0 0-3.647-3.459c-2.698-2.617-4.848-5.534-7.095-8.543l-2.367-3.133L704 255l-2.32-2.93c-4.812-6.226-8.164-11.39-7.477-19.453.855-4.796 2.186-8.201 5.797-11.617 4.218-2.784 7.992-5.114 13.083-5.16l2.591-.031 2.85-.018 2.996-.03c3.285-.03 6.57-.05 9.855-.07l3.4-.02a8053.45 8053.45 0 0 1 17.833-.076c4.914-.018 9.827-.053 14.741-.103 5.935-.06 11.87-.09 17.805-.1 2.259-.009 4.517-.028 6.775-.057 3.171-.039 6.34-.04 9.512-.032l2.8-.06c6.933.076 12.638 1.942 17.759 6.757 6.06 7.376 5.694 15.524 5.601 24.584a1554.687 1554.687 0 0 1-.02 17.756c-.022 4.68-.015 9.362-.011 14.043.002 8.104-.013 16.209-.041 24.313-.041 11.718-.054 23.436-.06 35.154-.011 19.012-.044 38.025-.092 57.037-.046 18.466-.081 36.933-.102 55.4l-.004 3.45-.02 17.137c-.051 47.376-.14 94.75-.251 142.126 5.037-2.035 10.072-4.072 15.108-6.11l5.122-2.071c12.176-4.92 24.298-9.935 36.316-15.23 2.493-.598 4.552-.647 7.107-.626l2.465.016L895 589c.124-38.362.19-76.724.18-115.086a79616.787 79616.787 0 0 1-.003-16.335c0-14.596.037-29.19.09-43.786.053-14.986.064-29.972.037-44.959-.015-9.24.001-18.48.06-27.721.037-6.345.033-12.689-.002-19.033-.019-3.657-.02-7.31.027-10.966.696-19.107.696-19.107-8.205-35.204A215.565 215.565 0 0 0 883 272a142.959 142.959 0 0 1-3.855-4.918l-1.685-2.156C857.75 239.638 857.75 239.638 859 229c1.5-5.394 4.606-9.503 9.132-12.747 6.744-2.946 14.802-2.05 22.037-1.982z" fill="#fcb804"/><path d="M551 236h94l1 405c39.314-16.043 39.314-16.043 78.613-32.124C727 608 727 608 729 608v60l-23 13c-7.686 4.384-7.686 4.384-15.367 8.777a7097.836 7097.836 0 0 1-12.328 7.04c-12.108 6.901-24.188 13.845-36.215 20.887-8.951 5.233-17.952 10.378-26.96 15.51-7.93 4.52-15.837 9.074-23.711 13.69C586.108 750 586.108 750 585 750l-1-357-72 72h-1v-20h-80l1 203a6286.891 6286.891 0 0 0 52.161-25.304c19.643-9.65 19.643-9.65 28.644-13.895l3.523-1.663C519 606 519 606 521 606v64l-25 14-17.055 9.652c-7.61 4.295-15.255 8.526-22.898 12.762a2944.039 2944.039 0 0 0-24.335 13.668c-8.599 4.87-17.244 9.657-25.891 14.44a893.392 893.392 0 0 0-23.263 13.33C377.21 751 377.21 751 375 751l.009-2.601c.165-50.889.263-101.777.273-152.666 0-6.111.003-12.223.005-18.335l.001-3.687c.008-19.695.062-39.39.133-59.085.072-20.212.094-40.425.071-60.637-.013-12.47.013-24.94.088-37.409.047-8.554.047-17.108.01-25.662-.021-4.934-.02-9.865.037-14.8.052-4.523.044-9.043-.011-13.567-.01-1.63.003-3.26.04-4.89.176-8.318-.323-14.028-6.233-20.254-2.234-2.135-4.543-4.15-6.923-6.119-1.965-1.687-3.633-3.562-5.293-5.546-3.697-4.343-7.6-8.476-11.52-12.617l-2.166-2.297c-3.723-3.95-3.723-3.95-7.521-7.828l.004 2.635c.076 51.506.105 103.012.073 154.518l-.01 18.543-.002 3.729c-.009 19.939.013 39.877.048 59.816.034 20.451.034 40.902.003 61.353-.018 12.625-.01 25.249.032 37.874.027 8.651.02 17.302-.013 25.953-.018 4.995-.02 9.99.015 14.985.033 4.572.024 9.141-.018 13.713-.008 1.655 0 3.31.024 4.966.168 12.381.168 12.381-3.11 16.179-2.302 1.566-4.478 2.676-7.046 3.736a138.765 138.765 0 0 0-3.535 2.063c-1.174.648-2.35 1.294-3.527 1.937-9.109 5.05-18.09 10.312-27.079 15.57l-2.88 1.685c-2.118 1.24-4.234 2.485-6.348 3.732l-3.303 1.943-3.018 1.78C274 751 274 751 273 751V449H161v273l-22 12a1021.346 1021.346 0 0 0-12.687 7.375 4052.97 4052.97 0 0 1-5.762 3.398l-2.448 1.451a473.218 473.218 0 0 1-8.797 4.887l-3.009 1.639L104 754l.005-3.08c.074-44.799.135-89.597.132-134.396v-2.055c0-14.74-.003-29.481-.009-44.221l-.006-21.686v-2.18c-.006-23.315.02-46.63.064-69.945.044-23.96.056-47.919.026-71.879l-.011-10.152-.002-2.019c-.01-10.057.009-20.114.043-30.171.04-11.443.045-22.885.007-34.328-.019-5.84-.02-11.68.02-17.52.038-5.347.03-10.692-.016-16.04-.008-1.933 0-3.868.028-5.802.4-10.335.4-10.335-3.437-19.573-2.504-2.278-5.019-4.1-7.844-5.953a144.16 144.16 0 0 1-4.344-4.062l-2.074-1.963L84.5 255c-5.559-5.26-11.156-10.45-16.91-15.496L66 238v-1h99v145h108l.375-52.812.228-16.625c0-4.953 0-4.953-.018-9.907 0-2.192.029-4.384.08-6.576.827-13.392.827-13.392-4.73-24.911-3.379-2.914-7.036-5.02-10.935-7.169a105.84 105.84 0 0 1-4.516-3.637l-1.897-1.547-1.837-1.503c-1.346-1.098-2.692-2.196-4.04-3.293-.632-.517-1.266-1.033-1.918-1.564-2.461-2-4.938-3.98-7.417-5.956-7.343-5.867-7.343-5.867-10.375-8.5v-1h109v42h249l-11-14c-5.5-7-5.5-7-8.207-10.45-1.97-2.507-3.948-5.009-5.93-7.507l-1.547-1.955a1487.81 1487.81 0 0 0-2.964-3.734C551 237.112 551 237.112 551 236z" fill="#d40200"/><path d="M879 234c24.679-.094 49.357-.164 74.036-.207 11.46-.02 22.92-.049 34.38-.095 9.991-.04 19.983-.065 29.976-.074 5.287-.006 10.574-.018 15.861-.047 4.985-.027 9.97-.035 14.954-.03 1.822 0 3.643-.008 5.465-.024 20.175-.162 36.795 5.164 51.484 19.602.95.957 1.897 1.915 2.844 2.875l2.656 2.625c20.45 21.207 29.94 51.164 29.695 80.203-.511 20.489-5.847 38.934-20.93 53.695A156.832 156.832 0 0 1 1113 398c3.499 2.877 7.1 5.436 10.875 7.938 28.762 19.59 49.821 47.924 56.41 82.457 2.088 11.556 2.994 22.854 2.715 34.605l-.038 2.012c-.802 35.394-13.32 67.674-36.962 93.988l-2.297 2.59c-11.735 12.484-26.669 21.466-41.703 29.41l-5.366 2.857c-4.831 2.573-9.664 5.142-14.501 7.701a1722.41 1722.41 0 0 0-23.695 12.754c-7.266 3.99-14.58 7.873-21.938 11.688-8.354 4.332-16.64 8.77-24.892 13.296a2506.548 2506.548 0 0 1-22.233 12.016l-1.78.953-8.998 4.812c-4.707 2.516-9.411 5.037-14.116 7.558l-6.929 3.71a6507.714 6507.714 0 0 0-16.392 8.8c-2.577 1.39-5.156 2.777-7.735 4.165-1.229.661-2.457 1.324-3.685 1.987-1.702.92-3.407 1.837-5.111 2.754l-2.935 1.583c-2.525 1.28-5.06 2.333-7.694 3.366l.005-3.013c.074-43.825.135-87.65.132-131.476V614.5c0-14.426-.003-28.852-.009-43.277l-.006-21.224v-2.133c-.006-22.81.02-45.618.064-68.427.045-24.109.054-48.218.024-72.326-.017-14.44-.004-28.88.046-43.32.032-9.9.027-19.802-.007-29.703-.019-5.713-.02-11.425.02-17.138.038-5.235.03-10.467-.016-15.701-.008-1.89 0-3.78.028-5.67.124-9.183.138-16.381-6.16-23.532A256.012 256.012 0 0 0 903 267a104.423 104.423 0 0 1-3.18-4.145l-1.358-1.839-1.337-1.829a432.548 432.548 0 0 0-14.468-18.491C879 236.213 879 236.213 879 234z" fill="#d40100"/><path d="M1418.542 213.678l2.322-.03c2.537-.03 5.075-.043 7.613-.054l5.303-.035c3.71-.02 7.421-.032 11.132-.04 4.738-.01 9.474-.058 14.212-.115 3.655-.038 7.31-.048 10.964-.051 1.746-.006 3.491-.022 5.236-.049 16.634-.233 16.634-.233 23.105 5.113 1.878 1.893 3.51 3.666 4.907 5.946.5.796 1.002 1.591 1.518 2.41l1.521 2.54 3.367 5.394 1.663 2.71c2.305 3.733 4.699 7.407 7.095 11.083l2.688 4.156c3.096 4.786 6.204 9.565 9.312 14.344 4.008 6.162 8.01 12.327 12 18.5a8663.565 8663.565 0 0 0 13.515 20.834 45691.9 45691.9 0 0 0 8.383 12.889c6.23 9.574 12.44 19.16 18.602 28.777 3.62-4.285 6.543-8.876 9.5-13.625l3.219-5.133 1.652-2.641c2.531-4.041 5.08-8.071 7.629-12.101 2.97-4.7 5.939-9.4 8.895-14.11l1.456-2.315c.971-1.545 1.94-3.09 2.907-4.638a437.119 437.119 0 0 1 8.902-13.57l2.12-3.143a481.963 481.963 0 0 1 4.172-6.073l1.884-2.8 1.705-2.474c1.24-2.383 1.24-2.383.254-4.992-1.665-3.066-3.667-5.833-5.732-8.635-4.464-6.285-8.054-12.01-7.5-19.938 1.688-6.865 5.39-10.768 10.937-14.812 2.958-.983 5.689-1.133 8.793-1.154l2.914-.026 3.177-.013 3.362-.025c3.673-.024 7.346-.041 11.02-.055l3.803-.017c5.276-.02 10.552-.04 15.827-.051 7.545-.016 15.089-.05 22.633-.107 5.956-.043 11.911-.059 17.867-.065 2.528-.007 5.055-.022 7.583-.046 3.54-.032 7.08-.032 10.62-.024l3.152-.05c6.627.056 11.169 1.24 16.249 5.633 4.3 5.402 5.36 9.916 5.268 16.672-.44 3.819-2.076 6.605-4.08 9.828l-1.222 2.063c-3.863 6.453-7.968 12.76-12.095 19.046-2.922 4.454-5.78 8.947-8.621 13.453l-1.488 2.36c-4.751 7.545-9.473 15.11-14.195 22.674-4.314 6.908-8.653 13.8-13.008 20.681-4.692 7.42-9.34 14.867-13.988 22.314a3408.097 3408.097 0 0 1-11.696 18.596A2052.427 2052.427 0 0 0 1674.5 388.5a2752.098 2752.098 0 0 1-17.007 27.144c-2.543 4.013-5.08 8.028-7.618 12.043l-1.34 2.118a252.334 252.334 0 0 0-2.71 4.387C1644 437 1644 437 1641.543 440.066c-9.413 12.278-8.92 24.349-8.722 39.3a2322.44 2322.44 0 0 1-.02 7.915c-.016 5.651.004 11.302.048 16.953.064 8.18.07 16.36.06 24.54-.013 13.29.016 26.579.074 39.868.056 12.876.1 25.752.121 38.629l.004 2.406c.014 8.677.024 17.354.03 26.03v2.313c.003 3.05.004 6.101.006 9.152.003 8.913.02 17.826.063 26.74.03 6.246.045 12.493.056 18.74.007 2.56.02 5.118.037 7.676.025 3.495.03 6.99.031 10.485l.036 3.06c-.023 6.547-.419 13.604-4.8 18.839-5.223 4.978-12.057 8.188-18.317 11.663a3206.992 3206.992 0 0 0-7.496 4.223l-1.93 1.087a655.647 655.647 0 0 0-13.422 7.811l-1.849 1.103c-2.923 1.747-5.842 3.5-8.757 5.26-16.073 9.626-16.073 9.626-23.796 8.141-6.21-2.247-9.912-5.398-13.125-11.133-1.612-3.44-1.996-6.116-1.977-9.865l.007-3.148.024-3.47.013-3.677c.01-2.67.022-5.339.036-8.008.024-4.344.04-8.688.056-13.032l.017-4.559.008-2.322.028-7.157c.047-11.622.072-23.244.084-34.865l.003-2.549.022-23.437.015-16.08.003-2.697c.018-14.388.078-28.775.153-43.162.076-14.79.103-29.58.085-44.37-.01-9.11.019-18.218.098-27.327.052-6.261.054-12.52.02-18.781a495.56 495.56 0 0 1 .044-10.805c.28-17.793-1.689-29.686-13.115-43.684-1.97-2.46-3.627-5.073-5.269-7.759l-1.537-2.423-1.505-2.378c-1.17-1.84-2.339-3.682-3.508-5.523l-1.806-2.843c-7.826-12.304-15.684-24.59-23.624-36.821-4.195-6.464-8.32-12.97-12.428-19.491-6.198-9.833-12.477-19.614-18.749-29.4-3.4-5.306-6.8-10.613-10.198-15.922l-2.012-3.142c-3.16-4.936-6.313-9.874-9.453-14.822l-3.472-5.473-1.713-2.699c-4.248-6.679-8.572-13.306-12.912-19.926-4.644-7.096-9.236-14.22-13.688-21.438l-1.39-2.23-1.258-2.062-1.092-1.779c-2.164-4.258-2.641-9.05-1.885-13.741 3.954-9.056 10.693-14.292 20.542-14.322z" fill="#d40200"/><path d="M1338.375 325.75l3.581.02c39.12.463 72.536 16.927 99.732 44.445C1454.603 383.65 1464.489 399.53 1471 417l1.086 2.852c11.944 33.316 9.282 72.08-5.086 104.148-15.933 33.225-45.086 60.908-80.054 73.313-2.96.98-5.944 1.847-8.946 2.687l-3.031.89C1341 610.206 1303.014 605.39 1272 589c-25.492-14.677-45.38-36.103-59-62l-1.39-2.582c-3.001-6.03-4.915-12.348-6.797-18.793l-.759-2.574c-3.287-11.716-4.387-23.24-4.315-35.362.011-2.121 0-4.242-.012-6.363-.032-28.674 8.709-55.543 26.273-78.326l1.55-2.065c23.414-30.83 55.93-48.884 94-54.536 5.613-.65 11.18-.696 16.825-.649z" fill="#d40200"/><path d="M735.652 821.734l2.234-.005c1.556-.002 3.112.002 4.667.01 2.373.01 4.745 0 7.117-.012 1.515 0 3.03.003 4.545.007l2.137-.012c3.988.038 7.056.523 10.648 2.278l2-2a91.463 91.463 0 0 1 7.676-.3l2.31-.014c1.614-.006 3.229-.006 4.844-.002 2.463.003 4.924-.02 7.387-.045 1.57-.003 3.14-.003 4.709-.002l2.223-.028c4.454.04 7.313.636 10.851 3.391 1.165 2.33 1.123 3.67 1.12 6.265l.004 2.705-.01 2.988v3.184c0 3.414-.008 6.827-.016 10.24-.002 2.104-.003 4.206-.003 6.31-.006 7.81-.02 15.622-.032 23.433L810 933h106c.17-26.162.17-26.162.298-52.323.045-5.092.045-5.092.072-7.486.014-1.65.02-3.3.022-4.95.014-14.863 1.727-26.186 12.608-37.241 11.7-10.328 26.776-9.452 41.438-9.398a2747.772 2747.772 0 0 1 18.26.007c5.245.017 10.49.007 15.735-.01 4.066-.012 8.133-.008 12.2 0 1.932.002 3.865 0 5.797-.008 15.573-.044 28.462.457 40.57 11.409 7.921 8.649 10.138 16.95 10.193 28.373l.025 2.84c.024 3.097.041 6.194.055 9.29l.017 3.218c.026 5.622.046 11.245.06 16.867.013 4.637.041 9.274.082 13.911.05 5.615.074 11.229.081 16.843.007 2.131.022 4.262.046 6.393.153 14.355-.032 26.58-10.63 37.519-12.923 11.694-28.053 11.204-44.534 11.144a2750.028 2750.028 0 0 1-18.278-.007c-5.256-.017-10.51-.007-15.766.01-4.07.012-8.141.008-12.212 0-1.937-.002-3.874 0-5.811.008-15.959.045-27.97-1.424-40.328-12.409a115.013 115.013 0 0 1-4-5l-.078 2.23c-.466 8.01-.466 8.01-2.797 11.895-3.482 3.072-6.453 3.002-10.919 3.009l-3.662.013-4.024-.002-4.233.01c-3.835.01-7.67.012-11.504.012-3.201.001-6.402.005-9.603.008-7.551.009-15.103.011-22.655.01-7.79 0-15.581.01-23.372.026-6.688.013-13.376.018-20.064.018-3.995 0-7.99.002-11.984.013-3.757.01-7.515.01-11.273.003a803.89 803.89 0 0 0-4.134.007c-1.884.008-3.767.002-5.65-.005l-3.192.002C770 979 770 979 767.31 977.859L765 977l-3 2a95.124 95.124 0 0 1-7.773.371c-.761.01-1.522.018-2.306.027-1.609.015-3.217.024-4.826.028-2.455.011-4.907.06-7.36.111-1.566.01-3.13.017-4.696.022l-2.213.059c-3.937-.035-5.652-.48-8.766-2.965-2.998-3.861-3.187-6.622-3.2-11.371l-.018-3.611-.003-3.967-.015-4.174c-.013-3.781-.02-7.562-.024-11.343-.003-2.363-.007-4.725-.012-7.087-.013-7.39-.023-14.78-.027-22.17-.004-8.532-.022-17.064-.05-25.595a6435.09 6435.09 0 0 1-.034-19.784c-.001-3.939-.007-7.877-.025-11.816-.016-3.705-.018-7.41-.01-11.115.002-2.007-.012-4.013-.026-6.02.005-1.197.01-2.394.017-3.628l-.005-3.147c.432-3.278 1.457-5.156 3.372-7.825 3.48-2.638 7.463-2.29 11.652-2.266z" fill="#f7b10a"/><path d="M714 235h94l1 406c40.596-16.492 40.596-16.492 81.081-33.248C892 607 892 607 893 607c.396 7.648.697 15.295.88 22.951.09 3.557.209 7.107.402 10.66 1.212 22.805 1.212 22.805-2.803 28.575-3.901 3.505-8.379 5.33-13.292 7.017-3.135 1.143-5.855 2.818-8.69 4.563l-6.06 3.484a3249.755 3249.755 0 0 0-22.542 13.08 1575.552 1575.552 0 0 1-30.54 17.42c-7.169 4-14.276 8.094-21.355 12.25a1444.621 1444.621 0 0 1-25.75 14.75l-3.23 1.809c-3.977 2.218-7.941 4.416-12.02 6.441l.006-3.012c.09-43.811.167-87.623.174-131.435v-2.01c.002-14.423.002-28.846 0-43.27a182038.266 182038.266 0 0 1-.003-23.352c-.002-22.802.032-45.604.085-68.406.055-24.103.07-48.205.042-72.308-.016-14.436.001-28.87.06-43.305.037-9.9.034-19.799-.002-29.699-.019-5.711-.02-11.42.027-17.132.042-5.234.033-10.465-.015-15.7-.009-1.888.001-3.777.032-5.665.16-10.588-.54-17.688-8.128-25.517L736 265c-1.723-2.076-3.323-4.21-4.938-6.375a402.061 402.061 0 0 0-8.355-10.707l-1.678-2.07a844.882 844.882 0 0 0-3.27-4C714 237.22 714 237.22 714 235z" fill="#d40200"/><path d="M413.712 821.74l3.683-.022 4.063.007c1.421-.004 2.842-.01 4.262-.015 3.866-.014 7.732-.014 11.598-.012 3.225.001 6.451-.003 9.677-.008 7.61-.011 15.221-.012 22.832-.006 7.852.006 15.705-.006 23.557-.027 6.74-.018 13.478-.024 20.217-.02 4.026.001 8.052-.001 12.078-.015 3.788-.013 7.576-.011 11.364.002 1.39.002 2.779 0 4.168-.009 1.9-.01 3.798 0 5.696.01h3.219c3.286.429 5.112 1.607 7.874 3.375 3.006.308 3.006.308 4.889-1.477 2.531-1.826 3.802-1.898 6.89-1.897l2.906-.021 3.167.023 3.352-.011c3.664-.008 7.327.005 10.991.02 2.549 0 5.098 0 7.646-.002 5.348 0 10.697.01 16.045.029 6.162.02 12.324.025 18.486.018 5.944-.005 11.89 0 17.834.011 2.52.004 5.041.005 7.561.004 3.535 0 7.07.012 10.605.028l3.13-.007c12.693.092 24.372 2.676 33.904 11.579 11.037 11.794 11.08 26.58 10.93 41.872-.024 2.591-.02 5.181-.014 7.772-.024 14.88-.925 27.791-11.822 38.997C697.22 929 697.22 929 692 929a754.48 754.48 0 0 0 17.013 20.315c5.221 6.041 6.33 8.959 6.3 16.685l.048 2.484.002 2.391.01 2.18c-.484 2.523-1.372 3.377-3.373 4.945-3.568 1.19-6.84 1.181-10.555 1.203l-2.238.017c-1.561.01-3.123.016-4.685.02-2.381.01-4.762.041-7.143.073l-4.559.015-2.147.038c-4.42-.02-7.14-.693-10.673-3.366-2.07-2.242-2.07-2.242-4.125-4.875l-2.36-2.969-1.24-1.566c-2.165-2.699-4.408-5.33-6.65-7.965l-2.781-3.277-1.41-1.66c-2.44-2.872-4.874-5.749-7.309-8.625l-1.333-1.574c-2.168-2.56-4.017-4.884-5.687-7.813-1.978-2.379-3.108-2.676-6.216-3.241-3.907-.252-7.79-.32-11.702-.31-1.374-.018-2.748-.039-4.123-.062A655.207 655.207 0 0 0 605 932l.048 3.593c.054 4.407.088 8.814.117 13.222.015 1.906.035 3.812.061 5.718.037 2.743.054 5.486.067 8.229l.047 2.573c.001 4.687-.181 7.93-3.34 11.665-3.422 2.558-7.283 2.339-11.398 2.371-.713.01-1.426.018-2.16.027-1.504.015-3.009.024-4.513.028-2.29.011-4.577.06-6.867.111-1.466.01-2.932.017-4.398.022l-2.055.059c-4.3-.04-7.12-1.023-10.35-3.883-2.61-3.597-2.085-7.94-2.032-12.217l-.032-3.194c-.028-3.48-.014-6.958 0-10.437-.01-2.415-.025-4.829-.041-7.243-.036-6.35-.037-12.701-.03-19.052.001-6.482-.031-12.964-.062-19.446-.053-12.715-.07-25.43-.062-38.146l-3 2c-2.297.24-2.297.24-5.022.227h-3.094l-3.333-.032-3.418-.008c-3.607-.011-7.214-.037-10.82-.062-2.444-.01-4.887-.02-7.33-.027-5.995-.022-11.989-.056-17.983-.098l.034 3.99c.101 12.405.176 24.809.225 37.213.026 6.377.062 12.754.118 19.132.054 6.153.084 12.306.097 18.46.01 2.348.028 4.697.055 7.046.036 3.287.04 6.573.039 9.86l.054 2.95c-.035 4.58-.127 6.682-2.926 10.452-3.526 2.481-6.498 2.62-10.665 2.561l-2.297.015c-1.596.003-3.193-.006-4.79-.027-2.437-.027-4.87 0-7.307.032-1.556-.004-3.112-.01-4.668-.02l-2.194.03c-3.906-.09-5.628-.576-8.71-3.048-2.637-3.38-3.19-5.755-3.185-9.917l-.004-2.639.01-2.886v-3.045c0-3.328.009-6.656.016-9.983l.005-6.915c.003-6.071.013-12.143.024-18.214.01-6.193.015-12.387.02-18.58.01-12.156.028-24.311.049-36.467l-1.871.027c-6.424.088-12.847.149-19.272.193-2.397.02-4.795.047-7.193.082-3.445.048-6.89.071-10.336.089l-3.252.062-3.032.001-2.665.027c-3.163-.64-4.344-2.039-6.379-4.481-1.481-2.963-1.183-5.989-1.203-9.238l-.017-2.175c-.01-1.521-.016-3.042-.02-4.562-.01-2.318-.04-4.635-.073-6.953-.006-1.478-.011-2.957-.015-4.435l-.038-2.09c.037-7.965 3.009-12.792 11.078-12.808z" fill="#f6b20a"/><path d="M1418.542 213.678l2.322-.03c2.537-.03 5.075-.043 7.613-.054l5.303-.035c3.71-.02 7.421-.032 11.132-.04 4.738-.01 9.474-.058 14.212-.115 3.655-.038 7.31-.048 10.964-.051 1.746-.006 3.491-.022 5.236-.049 16.634-.233 16.634-.233 23.105 5.113 1.878 1.893 3.51 3.666 4.907 5.946.5.796 1.002 1.591 1.518 2.41l1.521 2.54 3.367 5.394 1.663 2.71c2.305 3.733 4.699 7.407 7.095 11.083l2.688 4.156c3.096 4.786 6.204 9.565 9.312 14.344 4.008 6.162 8.01 12.327 12 18.5a8663.565 8663.565 0 0 0 13.515 20.834 45691.9 45691.9 0 0 0 8.383 12.889c6.23 9.574 12.44 19.16 18.602 28.777 3.62-4.285 6.543-8.876 9.5-13.625l3.219-5.133 1.652-2.641c2.531-4.041 5.08-8.071 7.629-12.101 2.97-4.7 5.939-9.4 8.895-14.11l1.456-2.315c.971-1.545 1.94-3.09 2.907-4.638a437.119 437.119 0 0 1 8.902-13.57l2.12-3.143a481.963 481.963 0 0 1 4.172-6.073l1.884-2.8 1.705-2.474c1.24-2.383 1.24-2.383.254-4.992-1.665-3.066-3.667-5.833-5.732-8.635-4.464-6.285-8.054-12.01-7.5-19.938 1.688-6.865 5.39-10.768 10.937-14.812 2.958-.983 5.689-1.133 8.793-1.154l2.914-.026 3.177-.013 3.362-.025c3.673-.024 7.346-.041 11.02-.055l3.803-.017c5.276-.02 10.552-.04 15.827-.051 7.545-.016 15.089-.05 22.633-.107 5.956-.043 11.911-.059 17.867-.065 2.528-.007 5.055-.022 7.583-.046 3.54-.032 7.08-.032 10.62-.024l3.152-.05c6.627.056 11.169 1.24 16.249 5.633 4.3 5.402 5.36 9.916 5.268 16.672-.44 3.819-2.076 6.605-4.08 9.828l-1.222 2.063c-3.863 6.453-7.968 12.76-12.095 19.046-2.922 4.454-5.78 8.947-8.621 13.453l-1.488 2.36c-4.751 7.545-9.473 15.11-14.195 22.674-4.314 6.908-8.653 13.8-13.008 20.681-4.692 7.42-9.34 14.867-13.988 22.314a3408.097 3408.097 0 0 1-11.696 18.596A2052.427 2052.427 0 0 0 1674.5 388.5a2752.098 2752.098 0 0 1-17.007 27.144c-2.543 4.013-5.08 8.028-7.618 12.043l-1.34 2.118a252.334 252.334 0 0 0-2.71 4.387C1644 437 1644 437 1641.543 440.066c-9.413 12.278-8.92 24.349-8.722 39.3a2322.44 2322.44 0 0 1-.02 7.915c-.016 5.651.004 11.302.048 16.953.064 8.18.07 16.36.06 24.54-.013 13.29.016 26.579.074 39.868.056 12.876.1 25.752.121 38.629l.004 2.406c.014 8.677.024 17.354.03 26.03v2.313c.003 3.05.004 6.101.006 9.152.003 8.913.02 17.826.063 26.74.03 6.246.045 12.493.056 18.74.007 2.56.02 5.118.037 7.676.025 3.495.03 6.99.031 10.485l.036 3.06c-.023 6.547-.419 13.604-4.8 18.839-5.223 4.978-12.057 8.188-18.317 11.663a3206.992 3206.992 0 0 0-7.496 4.223l-1.93 1.087a655.647 655.647 0 0 0-13.422 7.811l-1.849 1.103c-2.923 1.747-5.842 3.5-8.757 5.26-16.073 9.626-16.073 9.626-23.796 8.141-6.21-2.247-9.912-5.398-13.125-11.133-1.612-3.44-1.996-6.116-1.977-9.865l.007-3.148.024-3.47.013-3.677c.01-2.67.022-5.339.036-8.008.024-4.344.04-8.688.056-13.032l.017-4.559.008-2.322.028-7.157c.047-11.622.072-23.244.084-34.865l.003-2.549.022-23.437.015-16.08.003-2.697c.018-14.388.078-28.775.153-43.162.076-14.79.103-29.58.085-44.37-.01-9.11.019-18.218.098-27.327.052-6.261.054-12.52.02-18.781a495.56 495.56 0 0 1 .044-10.805c.28-17.793-1.689-29.686-13.115-43.684-1.97-2.46-3.627-5.073-5.269-7.759l-1.537-2.423-1.505-2.378c-1.17-1.84-2.339-3.682-3.508-5.523l-1.806-2.843c-7.826-12.304-15.684-24.59-23.624-36.821-4.195-6.464-8.32-12.97-12.428-19.491-6.198-9.833-12.477-19.614-18.749-29.4-3.4-5.306-6.8-10.613-10.198-15.922l-2.012-3.142c-3.16-4.936-6.313-9.874-9.453-14.822l-3.472-5.473-1.713-2.699c-4.248-6.679-8.572-13.306-12.912-19.926-4.644-7.096-9.236-14.22-13.688-21.438l-1.39-2.23-1.258-2.062-1.092-1.779c-2.164-4.258-2.641-9.05-1.885-13.741 3.954-9.056 10.693-14.292 20.542-14.322zM1418 233c1.22 3.115 2.454 5.945 4.258 8.766l1.371 2.158 1.496 2.326 1.58 2.478c1.145 1.794 2.291 3.587 3.44 5.378 1.944 3.033 3.882 6.069 5.82 9.105 5.9 9.24 11.816 18.468 17.785 27.664A1499.443 1499.443 0 0 1 1464.688 308c9.91 15.73 19.93 31.39 30.125 46.937a720.682 720.682 0 0 1 14.334 22.775c3.246 5.357 6.661 10.575 10.166 15.765 2.886 4.285 5.657 8.629 8.375 13.023 4.794 7.752 9.772 15.38 14.783 22.992 1.195 1.82 2.37 3.652 3.527 5.497 1.897 2.995 1.897 2.995 4.08 5.392 8.624 10.96 7.048 24.278 6.935 37.575-.022 3.685.002 7.369.02 11.053.025 6.37.022 12.74-.002 19.11a4633.02 4633.02 0 0 0-.004 27.628c.033 14.945.03 29.89.004 44.835-.025 14.51-.033 29.02-.019 43.531l.003 2.714.014 13.481c.042 37.23.025 74.461-.029 111.692 4.83-1.531 8.938-3.56 13.25-6.188l4.48-2.68 2.502-1.494c6.52-3.858 13.108-7.603 19.681-11.371l3.216-1.849 2.846-1.632L1606 725l2.013-.888c2.355-1.165 4.11-2.263 5.987-4.112 1.177-3.59 1.024-7.057.926-10.806l.01-3.34c0-3.703-.055-7.403-.11-11.105-.011-2.651-.018-5.302-.021-7.954-.012-5.716-.052-11.431-.11-17.147a2935.97 2935.97 0 0 1-.124-24.85 10318.11 10318.11 0 0 0-.158-42.84c-.05-8.975-.105-17.95-.166-26.925l-.065-9.739-.016-2.427c-.088-13.4-.133-26.8-.145-40.2a2382.09 2382.09 0 0 0-.15-24.753c-.063-5.67-.085-11.337-.077-17.007.003-3.262-.017-6.52-.075-9.782-.267-15.801 1.174-26.65 10.957-39.368 1.926-2.556 3.54-5.248 5.187-7.991a322938768.074 322938768.074 0 0 0 5.353-8.56c4.843-7.733 9.74-15.43 14.65-23.12 4.522-7.095 8.961-14.238 13.378-21.399 6.002-9.722 12.118-19.371 18.235-29.021a2884.188 2884.188 0 0 0 18.531-29.63 1430.24 1430.24 0 0 1 11.803-18.724c5.914-9.246 11.677-18.579 17.403-27.942 4.405-7.185 8.901-14.3 13.6-21.297 2.063-3.117 3.264-5.393 4.184-9.073h-103c3.752 7.015 3.752 7.015 8.184 13.203l1.619 2.031a414.384 414.384 0 0 0 3.351 4.078l1.592 2.016 1.459 1.778c.795 1.894.795 1.894.113 4.334a84.368 84.368 0 0 1-4.154 7.193l-1.707 2.662-1.832 2.83-3.836 5.977-1.94 3.016A1729.54 1729.54 0 0 0 1639 296.5c-7.228 11.46-14.512 22.884-21.791 34.312a49587.77 49587.77 0 0 0-5.334 8.375l-1.754 2.756a5867.66 5867.66 0 0 0-12.908 20.395A2319.091 2319.091 0 0 1 1584 383c-2.624-3.205-5.033-6.447-7.285-9.922l-1.84-2.83c-.96-1.484-.96-1.484-1.937-2.998l-2.028-3.123c-1.973-3.04-3.942-6.083-5.91-9.127l-2.902-4.484A4755.392 4755.392 0 0 0 1546.5 326.5c-8.085-12.39-16.14-24.799-24.102-37.269a3131.138 3131.138 0 0 0-21.375-33.026l-1.988-3.03-1.906-2.82c-1.486-2.342-2.733-4.506-3.938-6.973-3.787-7.394-3.787-7.394-10.62-11.61-4.18-.394-8.142-.353-12.325-.14-1.512.027-3.023.047-4.535.06-3.954.054-7.9.191-11.851.347-4.042.144-8.084.207-12.128.277-7.914.15-15.822.388-23.732.684z" fill="#fcb704"/><path d="M1135.402 821.629l5.909-.027c4.11-.017 8.221-.025 12.332-.028 5.236-.005 10.472-.043 15.707-.088 4.063-.03 8.125-.037 12.187-.038 1.93-.004 3.859-.017 5.788-.038 15.074-.151 27.155 1.024 38.515 12.125 7.835 8.941 10.516 17.87 10.473 29.59l.048 2.668c.004 4.905-.178 8.226-3.361 12.207-2.916 2.916-5.984 2.344-9.895 2.371-.784.01-1.568.018-2.376.027-1.662.015-3.324.024-4.986.028a498.25 498.25 0 0 0-7.604.111c-1.616.01-3.23.017-4.846.022l-2.289.059c-3.836-.033-5.849-.51-9.022-2.715C1190 875 1190 875 1190 868h-65v65h65v-6l-2.323.063c-3.476.084-6.95.136-10.427.187l-3.656.102-3.516.039-3.237.063c-3.527-.564-4.64-1.707-6.841-4.454-2.336-4.672-1.312-11.638-1.35-16.83-.017-1.65-.044-3.3-.082-4.95a423.212 423.212 0 0 1-.091-7.146l-.07-2.223c.016-3.733.383-5.584 2.714-8.546 3.485-2.79 5.118-2.932 9.534-2.936l1.963-.022c2.13-.017 4.256.003 6.386.024 1.485 0 2.97-.003 4.456-.007 3.108-.003 6.215.012 9.323.04 3.98.033 7.96.027 11.94.008 3.066-.01 6.13-.001 9.196.014 1.468.005 2.935.005 4.403-.002a384.56 384.56 0 0 1 6.153.043l3.534.018c3.605.62 4.753 1.685 6.991 4.515 1.287 2.573 1.148 4.448 1.177 7.33l.039 3.38.022 3.68.025 3.793c.014 2.66.025 5.32.032 7.98.009 2.703.03 5.407.062 8.11.043 3.915.059 7.828.069 11.743l.053 3.606c-.03 11.752-2.003 23.7-10.479 32.378-13.194 13.011-27.946 12.315-45.41 12.3l-5.935.014c-4.129.007-8.258.007-12.388.002-5.27-.006-10.541.01-15.812.034-4.08.015-8.159.016-12.238.013-1.943 0-3.886.005-5.828.015-15.156.07-26.91-.74-38.588-11.382-5.237-5.411-7.719-10.82-9.801-17.996l-1-3a235.078 235.078 0 0 1-.145-8.535l-.01-2.643c-.01-2.89-.012-5.78-.013-8.67l-.01-6.036c-.006-4.224-.008-8.448-.007-12.672 0-5.395-.014-10.789-.031-16.183-.011-4.16-.013-8.32-.013-12.48a1798.85 1798.85 0 0 0-.013-5.963c-.01-2.792-.007-5.584 0-8.377-.007-.81-.012-1.62-.018-2.455.067-12.293 3.034-21.79 11.573-30.799 12.52-11.82 28.885-10.52 45.09-10.558zM956.578 829.596l2.797-.02c3.03-.019 6.06-.015 9.09-.01 2.12-.004 4.239-.01 6.358-.015 4.434-.01 8.868-.007 13.302.003 5.667.011 11.333-.009 17-.038 4.374-.018 8.749-.018 13.123-.012 2.089 0 4.178-.006 6.266-.019 2.927-.015 5.852-.004 8.779.013l2.584-.029c8.88.108 15.872 3.541 22.33 9.535 6.746 7.51 7.94 14.958 7.954 24.774l.015 2.648c.015 2.884.022 5.768.027 8.652l.017 6.035c.01 4.216.017 8.433.02 12.65.006 5.387.03 10.774.058 16.162.019 4.156.024 8.311.026 12.467.003 1.986.01 3.971.024 5.956.017 2.786.015 5.57.008 8.356l.028 2.457c-.068 9.464-3.12 16.806-9.384 23.839-6.685 6.504-14.561 8.602-23.644 8.55l-2.783.03c-3.01.028-6.02.026-9.03.022-2.11.007-4.222.016-6.332.026-4.416.014-8.83.014-13.246.003-5.633-.011-11.263.023-16.895.069-4.358.03-8.715.031-13.072.025-2.075.001-4.15.011-6.226.032-12.596.107-23.205.179-33.013-8.81-6.59-6.815-8.21-13.482-8.179-22.67l-.026-2.881a1196.04 1196.04 0 0 1-.023-9.384l-.023-6.557c-.013-4.577-.015-9.154-.009-13.731.006-5.848-.025-11.694-.065-17.541-.026-4.514-.029-9.027-.025-13.54a861.36 861.36 0 0 0-.03-6.465 687.67 687.67 0 0 1 .006-9.066l-.04-2.663c.104-7.79 2.863-14.086 7.83-20.07l2.138-1.817 2.113-1.87c6.532-4.292 12.54-5.136 20.152-5.096z" fill="#d30200"/><path d="M567 830l57.875-.25 18.234-.11c7.381-.018 7.381-.018 10.844-.022 2.403-.006 4.807-.02 7.21-.04 3.655-.03 7.308-.034 10.962-.032l3.212-.044c10.412.058 18.197 3.181 25.749 10.346 6.577 7.395 7.073 15.423 7.117 24.914l.017 2.866c.01 2 .016 4 .02 5.999.01 3.033.04 6.065.073 9.098l.015 5.85.038 2.712c-.033 9.447-2.213 17.46-8.358 24.736-6.28 6.183-13.462 7.907-22.008 8.977l1.652 1.8c4.799 5.275 9.42 10.639 13.864 16.216a124.366 124.366 0 0 0 5.718 6.406l1.671 1.8a119.733 119.733 0 0 0 3.286 3.392c3.4 3.707 4.142 6.255 4.149 11.323-.087 1.69-.19 3.378-.34 5.063-29.986 2.425-29.986 2.425-36.48-2.73-2.652-2.84-4.634-6.025-6.48-9.432-1.55-2.74-3.553-5.02-5.602-7.4l-2.149-2.645c-3.892-4.749-7.829-9.47-11.871-14.09C644 933 644 933 642.754 931.186c-1.976-2.717-3.531-4.825-6.833-5.8-2.447-.194-4.805-.175-7.257-.07l-2.364.022c-2.893.036-5.784.134-8.675.224L598 926l-1 45h-30V830z" fill="#d40200"/><path d="M844 38h128v128h-60v-64h-9v64h-59V38z" fill="#f9f3f4"/><path d="M991 465l39.813-.438 12.51-.193c5.092-.031 5.092-.031 7.486-.037 1.65-.01 3.3-.035 4.95-.071 10.941-.225 18.58.227 27.241 7.739l2.324 2.011c7.086 6.42 12.008 14.836 14.676 23.989l.621 2.086c4.23 17.094 1.474 36.438-6.621 51.914-11.126 17.919-27.128 27.643-45.813 36.125a2238.92 2238.92 0 0 1-14.94 6.853 6834.912 6834.912 0 0 0-6.875 3.133 6009.668 6009.668 0 0 1-17.91 8.141l-2.038.922-5.448 2.46a96.262 96.262 0 0 0-5.194 2.55C994 613 994 613 991 613V465z" fill="#010000"/><path d="M1245.809 821.504l2.558-.005c1.781.002 3.562.014 5.343.034 2.715.03 5.428.021 8.144.008 1.735.006 3.47.015 5.205.025l2.443-.008c5.657.093 9.925 1.038 14.214 5.045l1.362 1.733 1.563 1.955 1.609 2.084 1.719 2.17A753.124 753.124 0 0 1 1295 841l1.361 1.763c2.013 2.613 4.017 5.232 6.018 7.854 3.12 4.056 6.336 8.034 9.559 12.008l1.685 2.084 1.592 1.955 1.41 1.733c1.387 1.618 2.849 3.116 4.375 4.603l.695-1.605c1.728-3.171 3.93-5.899 6.18-8.708l1.469-1.851c1.548-1.949 3.101-3.893 4.656-5.836l1.513-1.892a5316.04 5316.04 0 0 1 5.984-7.473 977.047 977.047 0 0 0 9.11-11.52c.945-1.21 1.888-2.423 2.829-3.636 5.575-7.15 5.575-7.15 9.564-8.479 5.678-.278 11.357-.313 17.042-.35 1.885-.017 3.77-.044 5.656-.082a554.27 554.27 0 0 1 8.17-.091l2.544-.07c4.36.017 6.063.184 9.617 2.951C1408 827 1408 827 1408.672 829.79c-.988 4.721-3.517 7.807-6.422 11.586l-1.787 2.397c-1.808 2.419-3.635 4.824-5.463 7.228-1.016 1.354-2.03 2.71-3.043 4.066a2281.01 2281.01 0 0 1-5.867 7.817c-5.154 6.85-10.217 13.769-15.295 20.676a8055.777 8055.777 0 0 1-7.223 9.805l-3.34 4.528a261.246 261.246 0 0 0-3.241 4.501c-1.546 2.025-3.07 3.752-4.832 5.57-10.657 11.64-9.512 24.098-9.096 39.162.06 3.628.106 7.256.13 10.885.02 2.243.062 4.486.13 6.728.117 7.5.117 7.5-2.15 11.422-5.22 4.42-13.133 3.14-19.651 3.19a353.12 353.12 0 0 0-4.783.082 396.63 396.63 0 0 1-6.919.091l-2.147.07c-3.537-.016-5.62-.56-8.653-2.403-3.069-4.846-2.443-9.152-2.165-14.753.047-2.348.09-4.697.131-7.046.088-3.673.2-7.34.374-11.01.77-17.5-1.522-27.852-13.39-41.058l-2.065-2.215c-2.68-2.966-4.895-6.125-7.155-9.42-3.432-4.882-6.966-9.676-10.562-14.438-4.933-6.533-9.747-13.145-14.523-19.793a724.09 724.09 0 0 0-11.763-15.879c-5.788-7.845-5.788-7.845-6.464-12.203.562-3.375.562-3.375 2.547-5.555 4.056-2.448 7.174-2.38 11.824-2.316z" fill="#d30300"/><path d="M972 446l51.563-.563 16.197-.248c6.597-.04 6.597-.04 9.7-.048 2.136-.014 4.273-.045 6.41-.091 14.548-.298 24.594.688 36.13 9.95l2.966 2.373c11.828 9.881 20.09 22.712 24.034 37.627l.621 2.262c4.444 19.522 1.386 40.644-6.621 58.738l-1.152 2.676c-11.965 25.904-36.459 38.055-61.14 48.776-5.482 2.402-10.81 5.07-16.148 7.778-6.398 3.181-12.92 6.087-19.435 9.02l-8.684 3.926-2.163.977a1754.498 1754.498 0 0 0-13.688 6.265l-3.366 1.556c-2.065.956-4.128 1.915-6.19 2.877l-2.749 1.27-2.379 1.107C974 643 974 643 972 643V446zm19 19v148c4.468-.894 7.511-2.023 11.574-3.957l1.918-.906c2.067-.978 4.131-1.964 6.196-2.95 2.167-1.027 4.335-2.053 6.504-3.078l4.4-2.084c5.694-2.697 11.41-5.34 17.138-7.964A2826.82 2826.82 0 0 0 1054 585l2.5-1.159c8.659-4.042 16.397-8.327 23.5-14.841l2.137-1.895c13.302-12.44 19.558-29.557 20.197-47.478.305-17.198-3.999-31.51-15.85-44.256-6.887-6.573-12.652-10.53-22.147-10.485h-2.433c-2.606 0-5.212.008-7.818.016-1.606.002-3.213.003-4.82.003-5.963.006-11.927.02-17.891.032L991 465z" fill="#feb703"/><path d="M612 58h77v2l1.695-.105c11.219-.38 21.241 1.539 30.414 8.19 2.807 2.843 3.738 5.476 4.157 9.415-.04 6.476-.503 10.715-4.891 15.688C715.928 97.427 711.052 98 705 98v2l7 1v2l2.125.25c4.656 1.215 8.814 4.009 11.875 7.75v2h2c1.859 5.576 2.333 12.714.094 18.234-1.239 1.795-2.523 3.257-4.094 4.766-.47.48-.938.962-1.422 1.457-4.272 3.985-8.756 5.423-14.515 5.668L706 143v2c-12.187 1.595-24.099 2.279-36.383 2.195-1.49-.003-2.981-.005-4.472-.006-5.424-.01-10.847-.038-16.27-.064L612 147V58zM1107 58h77v2l1.695-.105c7.734-.262 14.814 1.292 22.305 3.105v2l2.125.688c3.967 1.81 7.874 4.31 9.875 8.312 1.202 12.435 1.202 12.435-2.125 16.563-6.029 5.11-10.04 7.089-17.875 7.437v2l7 1v2l2.125.25c5.722 1.493 9.61 4.913 12.875 9.75 1.09 3.3 1.198 6.477 1.25 9.938l.078 3.09c-.642 5.816-4.108 9.07-8.43 12.617-6.438 4.596-13.147 5.507-20.898 5.355v2c-9.275 1.179-18.491 1.128-27.82 1.098l-4.557-.003c-5.582-.006-11.165-.02-16.748-.033L1107 147V58z" fill="#fafafa"/><path d="M1031.034 293.941c2.875-.054 5.75-.091 8.626-.125l2.586-.058c7.153-.052 12.12 1.735 17.754 6.242l2.441 1.828c8.618 6.985 14.02 16.156 15.559 27.172.216 3.23.29 6.45.312 9.687l.018 2.412c-.131 10.66-3.318 21.084-10.373 29.272-7.804 7.307-16.56 11.797-27.274 11.743h-2.284c-2.439 0-4.878-.008-7.317-.016l-4.518-.003c-5.584-.006-11.168-.02-16.752-.033L972 382v-86c9.001-1.125 9.001-1.125 12.981-1.205l2.705-.06 2.857-.051 3.043-.063c2.124-.043 4.248-.085 6.372-.124 3.175-.058 6.35-.124 9.524-.19 5.163-.105 10.326-.19 15.49-.262 2.02-.03 4.04-.065 6.062-.104z" fill="#fdb804"/><path d="M584 285h1v100H429v-40h82v16l5-5 4.18-4.145 4.695-4.668c.777-.768 1.555-1.537 2.355-2.33 4.208-4.189 8.224-8.46 12.095-12.961 2.748-3.11 5.71-5.994 8.675-8.896 4.212-4.164 8.273-8.353 12.098-12.879 3.22-3.59 6.692-6.93 10.12-10.32 3.667-3.641 7.173-7.365 10.512-11.313C582 287 582 287 584 285z" fill="#fcb403"/><path d="M411 830h141v31h-55v110h-31V861h-55v-31z" fill="#d40300"/><path d="M772 830h30l1 110 110 1v30H772V830z" fill="#d40200"/><path d="M1135.402 821.629l5.909-.027c4.11-.017 8.221-.025 12.332-.028 5.236-.005 10.472-.043 15.707-.088 4.063-.03 8.125-.037 12.187-.038 1.93-.004 3.859-.017 5.788-.038 15.074-.151 27.155 1.024 38.515 12.125 7.835 8.941 10.516 17.87 10.473 29.59l.048 2.668c.004 4.905-.178 8.226-3.361 12.207-2.916 2.916-5.984 2.344-9.895 2.371-.784.01-1.568.018-2.376.027-1.662.015-3.324.024-4.986.028a498.25 498.25 0 0 0-7.604.111c-1.616.01-3.23.017-4.846.022l-2.289.059c-3.836-.033-5.849-.51-9.022-2.715C1190 875 1190 875 1190 868h-65v65h65v-6l-2.323.063c-3.476.084-6.95.136-10.427.187l-3.656.102-3.516.039-3.237.063c-3.527-.564-4.64-1.707-6.841-4.454-2.336-4.672-1.312-11.638-1.35-16.83-.017-1.65-.044-3.3-.082-4.95a423.212 423.212 0 0 1-.091-7.146l-.07-2.223c.016-3.733.383-5.584 2.714-8.546 3.485-2.79 5.118-2.932 9.534-2.936l1.963-.022c2.13-.017 4.256.003 6.386.024 1.485 0 2.97-.003 4.456-.007 3.108-.003 6.215.012 9.323.04 3.98.033 7.96.027 11.94.008 3.066-.01 6.13-.001 9.196.014 1.468.005 2.935.005 4.403-.002a384.56 384.56 0 0 1 6.153.043l3.534.018c3.605.62 4.753 1.685 6.991 4.515 1.287 2.573 1.148 4.448 1.177 7.33l.039 3.38.022 3.68.025 3.793c.014 2.66.025 5.32.032 7.98.009 2.703.03 5.407.062 8.11.043 3.915.059 7.828.069 11.743l.053 3.606c-.03 11.752-2.003 23.7-10.479 32.378-13.194 13.011-27.946 12.315-45.41 12.3l-5.935.014c-4.129.007-8.258.007-12.388.002-5.27-.006-10.541.01-15.812.034-4.08.015-8.159.016-12.238.013-1.943 0-3.886.005-5.828.015-15.156.07-26.91-.74-38.588-11.382-5.237-5.411-7.719-10.82-9.801-17.996l-1-3a235.078 235.078 0 0 1-.145-8.535l-.01-2.643c-.01-2.89-.012-5.78-.013-8.67l-.01-6.036c-.006-4.224-.008-8.448-.007-12.672 0-5.395-.014-10.789-.031-16.183-.011-4.16-.013-8.32-.013-12.48a1798.85 1798.85 0 0 0-.013-5.963c-.01-2.792-.007-5.584 0-8.377-.007-.81-.012-1.62-.018-2.455.067-12.293 3.034-21.79 11.573-30.799 12.52-11.82 28.885-10.52 45.09-10.558zm-41.902 17.683c-5.104 7.092-7.1 13.686-7.018 22.364l-.02 2.792c-.018 3.02-.007 6.04.007 9.06l-.012 6.346c-.006 4.424.003 8.847.022 13.271.022 5.65.01 11.3-.015 16.95-.014 4.365-.01 8.731 0 13.097.003 2.082 0 4.165-.01 6.247-.01 2.92.006 5.837.028 8.756l-.024 2.568c.125 8.934 3.122 16.963 9.542 23.237 7.295 5.323 13.251 7.3 22.221 7.29l2.791.02c3.042.02 6.083.024 9.125.026l6.363.02c4.448.012 8.896.016 13.344.015 5.68 0 11.362.027 17.043.061 4.383.022 8.766.026 13.15.025 2.093.003 4.186.012 6.28.027 2.938.02 5.876.014 8.815.002l2.587.034c7.465-.077 13.993-2.166 20.086-6.528l2.07-2.117 2.117-2.07c6.005-8.388 6.567-16.616 6.399-26.688l-.013-3.484c-.02-4.253-.076-8.505-.128-12.758L1228 889h-61v30h30v22h-80v-81h81v12h30c.59-16.698.59-16.698-5.687-31.75-7.893-7.68-15.78-10.544-26.616-10.572l-2.782-.03c-3.026-.03-6.053-.043-9.08-.054l-6.344-.035c-4.433-.02-8.867-.032-13.3-.04-5.656-.01-11.31-.058-16.966-.115-4.37-.038-8.74-.048-13.11-.051a638.542 638.542 0 0 1-6.25-.049c-13.13-.154-24.675-.198-34.365 10.008z" fill="#fab208"/><path d="M1360 423l2.277 1.031c12.424 6.286 21.026 16.668 25.996 29.547 4.03 13.432 1.717 26.727-4.398 39.11-6.647 11.057-17.25 18.8-29.406 22.699-4.233 1.05-8.375 1.145-12.719 1.113l-2.784-.017c-13.188-.345-22.739-5.44-32.118-14.58-10.822-11.427-13.466-23.724-13.16-39 .446-9.786 4.503-17.207 10.312-24.903l1.86-2.504c12.925-15.072 35.836-20.856 54.14-12.496z" fill="#020100"/><path d="M1381.25 413.41c14.93 11.763 25.16 27.526 27.75 46.59 1.389 19.35-3.436 36.998-16 52-11.796 13.147-25.848 21.783-43.748 23.22-11.632.479-22.45.528-33.252-4.22l-2.648-1.098c-6.572-2.982-11.943-7.17-17.352-11.902l-1.902-1.613c-10.986-10.04-18.408-25.82-19.22-40.622-.345-10.278-.298-19.95 3.122-29.765l.809-2.559c5.425-15.455 18.811-29.01 33.191-36.441 22.666-10.085 49.103-8.813 69.25 6.41zM1312 430l-3.125 2.25c-7.4 7.078-14.242 17.379-15.036 27.881-.322 17.484 1.467 29.89 13.974 43.181 9.54 8.989 20.426 13.283 33.437 13.188l2.784-.017c11.99-.313 21.072-4.391 29.966-12.483l1.93-1.688c8.577-7.95 13.19-19.054 14.422-30.613.407-15.464-4.786-27.434-15.223-38.664-11.284-10.787-24.377-13.544-39.41-13.312-9.404.371-16.303 4.822-23.719 10.277z" fill="#fcb803"/><path d="M1229 58c29 0 29 0 37.313 7.125 2.863 4.008 2.863 4.008 4.19 5.983 2.192 2.77 4.853 4.633 7.752 6.618 2.387 1.743 3.932 3.95 5.745 6.274 1.868 1.74 3.796 3.396 5.738 5.055 2.4 2.064 4.737 4.187 7.074 6.32 4.44 4.016 9.045 7.786 13.704 11.543a76.15 76.15 0 0 1 5.984 5.582c2.314 2.686 2.314 2.686 5.5 3.5V58h13v89h-32l-10-10c-3.023-2.658-3.023-2.658-6.07-5.29-2.063-1.828-3.996-3.746-5.93-5.71-3.065-3.106-6.238-5.988-9.547-8.828-3.942-3.49-7.75-7.124-11.559-10.758-5.437-5.134-11.054-9.635-16.894-14.414v55h-14V58zM531.041 57.757l3.865.013h2.062c1.44.004 2.879.012 4.318.024 2.205.018 4.41.02 6.616.02 10.803.038 10.803.038 13.098 1.186.57 1.758.57 1.758 1.125 4.125 1.392 4.958 3.46 9.293 5.875 13.812l1.043 1.972c1.704 3.124 3.384 5.647 5.957 8.091 1.188 3.187 1.188 3.187 2 6h2l1 5h2l1.313 3.187c.986 2.34 1.965 4.236 3.375 6.375 1.606 2.983 1.545 5.1 1.312 8.438l3 1c3.546 4.386 9 11.237 9 17h2l.586 1.934.789 2.503.773 2.497c.66 2.244.66 2.244 2.852 3.066v3h-39l-3-8a103.273 103.273 0 0 0-3.625-5.688c-2.61-3.803-3.433-5.604-4.375-10.312h-53l-2 5a144.55 144.55 0 0 1-2.875 4.812c-2.632 4.299-4.905 8.666-7.125 13.188-1 1-1 1-4.16 1.098l-3.902-.036-3.91-.027L477 147v-3l2-1c1.134-2.017 1.134-2.017 2-4h2l.55-2.371.763-3.067.738-3.058L486 128l3-1v-2h2l.375-2.188c1.227-5.521 3.783-9.98 6.625-14.812h2l.625-2.375c1.57-4.137 3.688-7.62 6.035-11.355 1.469-2.307 1.469-2.307 2.34-5.27h2l.285-2.105c.862-3.489 2.335-6.112 4.153-9.208l1.87-3.238L519 72h2l.379-1.742c.634-2.306 1.484-4.25 2.559-6.383l1.027-2.07c1.75-3.052 2.495-3.762 6.076-4.048z" fill="#f5f5f5"/><path d="M933.573 67.636c6.912 5.044 6.912 5.044 8.427 8.927.863 2.75.863 2.75 4 4.437.914 1.988.914 1.988 1.625 4.313l.727 2.3c3.04 11.193 2.976 23.208-2.524 33.602-5.022 8.323-11.896 17.628-21.266 21.035-3.32.699-6.184.915-9.562.75l-1-7-1 30h-1v-64h-9v64h-1l-1-22h-7v-2l-2.227-.332c-4.607-1.11-7.986-3.911-11.773-6.668l-1.926-1.309c-6.48-4.842-10.45-12.838-12.074-20.691-.22-3.393-.185-6.788-.188-10.187l-.037-2.752c-.022-10.452 1.576-18.816 8.662-26.811C878.402 69.77 884.555 65 890 65l1-3c14.094-5.491 30.601-2.815 42.573 5.636z" fill="#e6f3f3"/><path d="M775.883 56.867l2.23-.003c1.552 0 3.103.001 4.655.006 2.33.005 4.66 0 6.99-.007 8.8-.003 17.476.289 26.242 1.137v2l14 1v21c-3.397-1.699-5.247-2.985-7.937-5.5-2.879-2.588-5.268-4.433-9.063-5.5v-2l-7-1v-2c-4.125-.059-8.25-.094-12.375-.125l-3.504-.05c-8.25-.047-16.78-.057-24.121 4.175-2.302 3.223-2.475 6.12-2 10 1.947 3.806 4.129 5.3 8.063 6.625 8.15 2.151 16.606 3.169 24.937 4.375v2l2.047.184 2.703.254c.882.08 1.763.162 2.672.246A44.11 44.11 0 0 1 811 95v2l1.793.332c4.671.937 8.198 1.995 12.207 4.668l2.5.938c4.11 1.746 6.738 3.984 9.313 7.625 2.381 6.895 2.012 14.711-.813 21.437-6.132 8.38-19.162 12.802-29.144 14.55-9.641 1.375-19.062 1.769-28.793 1.7l-2.283-.007c-9.972-.038-19.898-.319-29.842-1.118l-3.006-.237c-6.67-.626-6.67-.626-8.932-2.888-.227-2.338-.227-2.338-.195-5.227l.02-3.125.05-3.273.027-3.297c.024-2.693.057-5.385.098-8.078 2.924 1.428 5.524 3.002 8.188 4.875 4.39 2.976 8.9 5.151 13.812 7.125v2h3v2c2.732.5 5.465.998 8.2 1.488 1.917.35 3.83.731 5.738 1.137 9.254 1.133 20.85 1.525 29.062-3.625 1.005-3.015 1.103-5.042 1.063-8.187l-.028-2.731L803 123c-6.373-3.175-11.85-5.595-19-6v-2h-5v-2l-1.8-.113c-5.712-.453-10.977-1.456-16.47-3.082-1.775-.524-3.565-1-5.367-1.422-9.492-2.355-16.387-8.937-21.476-17.188-1.133-2.804-1.188-5.113-1.2-8.132l-.05-3.09c.698-5.717 4.181-9.256 8.363-12.973 6.112-4.465 12.228-7.471 20-7v-2c4.99-.816 9.824-1.148 14.883-1.133z" fill="#f3f3f3"/><path d="M1245.809 821.504l2.558-.005c1.781.002 3.562.014 5.343.034 2.715.03 5.428.021 8.144.008 1.735.006 3.47.015 5.205.025l2.443-.008c5.657.093 9.925 1.038 14.214 5.045l1.362 1.733 1.563 1.955 1.609 2.084 1.719 2.17A753.124 753.124 0 0 1 1295 841l1.361 1.763c2.013 2.613 4.017 5.232 6.018 7.854 3.12 4.056 6.336 8.034 9.559 12.008l1.685 2.084 1.592 1.955 1.41 1.733c1.387 1.618 2.849 3.116 4.375 4.603l.695-1.605c1.728-3.171 3.93-5.899 6.18-8.708l1.469-1.851c1.548-1.949 3.101-3.893 4.656-5.836l1.513-1.892a5316.04 5316.04 0 0 1 5.984-7.473 977.047 977.047 0 0 0 9.11-11.52c.945-1.21 1.888-2.423 2.829-3.636 5.575-7.15 5.575-7.15 9.564-8.479 5.678-.278 11.357-.313 17.042-.35 1.885-.017 3.77-.044 5.656-.082a554.27 554.27 0 0 1 8.17-.091l2.544-.07c4.36.017 6.063.184 9.617 2.951C1408 827 1408 827 1408.672 829.79c-.988 4.721-3.517 7.807-6.422 11.586l-1.787 2.397c-1.808 2.419-3.635 4.824-5.463 7.228-1.016 1.354-2.03 2.71-3.043 4.066a2281.01 2281.01 0 0 1-5.867 7.817c-5.154 6.85-10.217 13.769-15.295 20.676a8055.777 8055.777 0 0 1-7.223 9.805l-3.34 4.528a261.246 261.246 0 0 0-3.241 4.501c-1.546 2.025-3.07 3.752-4.832 5.57-10.657 11.64-9.512 24.098-9.096 39.162.06 3.628.106 7.256.13 10.885.02 2.243.062 4.486.13 6.728.117 7.5.117 7.5-2.15 11.422-5.22 4.42-13.133 3.14-19.651 3.19a353.12 353.12 0 0 0-4.783.082 396.63 396.63 0 0 1-6.919.091l-2.147.07c-3.537-.016-5.62-.56-8.653-2.403-3.069-4.846-2.443-9.152-2.165-14.753.047-2.348.09-4.697.131-7.046.088-3.673.2-7.34.374-11.01.77-17.5-1.522-27.852-13.39-41.058l-2.065-2.215c-2.68-2.966-4.895-6.125-7.155-9.42-3.432-4.882-6.966-9.676-10.562-14.438-4.933-6.533-9.747-13.145-14.523-19.793a724.09 724.09 0 0 0-11.763-15.879c-5.788-7.845-5.788-7.845-6.464-12.203.562-3.375.562-3.375 2.547-5.555 4.056-2.448 7.174-2.38 11.824-2.316zM1240 830c3.014 5.417 3.014 5.417 6.523 10.516.457.6.913 1.202 1.383 1.821l1.469 1.913 3.215 4.242 1.69 2.23c2.916 3.862 5.788 7.756 8.658 11.653l1.783 2.42c3.388 4.606 6.744 9.233 10.076 13.88 6.098 8.502 12.362 16.862 18.736 25.158l1.936 2.522 1.7 2.208L1299 911l1.307 1.415c4.664 5.477 4.424 10.909 4.4 17.862l.046 3.535c.043 3.709.052 7.417.06 11.125.023 2.522.048 5.043.076 7.565.067 6.166.088 12.33.111 18.498h30l-.273-10.926c-.04-3.558-.056-7.116-.069-10.674a347.55 347.55 0 0 0-.141-7.323c-.506-17.582 1.825-28.134 13.824-41.24 2.08-2.302 3.88-4.753 5.667-7.286 5.3-7.207 10.615-14.402 15.992-21.551 8.74-11.623 17.39-23.314 25.875-35.125l1.282-1.776c1.988-2.332 1.988-2.332 2.843-5.099-4.98-.224-9.957-.386-14.941-.494a258.492 258.492 0 0 1-5.075-.185c-9.82-.727-9.82-.727-18.76 2.51-2.048 2.281-3.644 4.547-5.224 7.169a142.441 142.441 0 0 1-2.512 3.16l-2.175 2.902c-3.835 5.067-7.788 10.021-11.813 14.938-9.642 11.706-9.642 11.706-18.5 24-3.99-1.33-5.555-3.95-8-7.188l-2.977-3.863-1.528-1.998a935.548 935.548 0 0 0-6.87-8.826l-1.349-1.72c-4.137-5.263-8.357-10.458-12.598-15.637l-1.537-1.881-1.594-1.872C1283 839 1283 839 1281.701 836.538c-1.678-2.895-2.959-4.589-5.701-6.538-6.181-1.121-12.187-.85-18.437-.563-1.703.046-3.405.087-5.108.124-4.154.098-8.303.253-12.455.439z" fill="#f7b20c"/><path d="M1037.387 56.861l2.73.006 2.81-.003c1.971 0 3.944.001 5.916.006 2.985.005 5.97 0 8.954-.007 1.92 0 3.838.002 5.758.004l2.668-.006c6.304.023 12.51.48 18.777 1.139v2l1.723-.035 2.34-.028 2.285-.035c3.236.12 6.446.64 9.652 1.098v22h-2l-2-3-3-1-2-3-3-1v-2l-6-2v-2l-7-1v-2c-4.229-.089-8.458-.14-12.687-.188l-3.573-.076c-14.208-.116-27.16 2.405-37.74 12.264-2.498 2.845-4.461 5.538-6 9h-2v27h2l1.172 2.484 1.578 3.266c.51 1.067 1.02 2.135 1.547 3.234 2.367 4.192 5.003 6.876 9.266 9.078C1033 134 1033 134 1034.438 135.625c5.496 4.837 15.736 3.812 22.562 4l3.504.117c2.832.094 5.664.18 8.496.258v-2l2.676-.191c9.564-.976 17.601-3.27 24.043-10.825 1.14-1.63 2.218-3.303 3.281-4.984h2v22c-6.317.702-11.765 1.099-18 1v2c-9.076 1.102-18.114 1.186-27.241 1.185-2.49.002-4.98.02-7.47.04-15.87.057-30.294-1.828-45.289-7.225l-2.434-.863c-6.289-2.67-11.381-7.843-15.566-13.137-.785-2.816-.785-2.816-1-5l-3-1c-4.526-10.987-3.32-27.34.613-38.2 4.925-9.946 13.703-16.353 24.018-19.89 7.198-2.31 14.253-3.703 21.771-4.55 3.518-.487 6.102-1.484 9.985-1.499z" fill="#f6f6f6"/><path d="M729 830h31v141h-31V830z" fill="#d30500"/><path d="M962 868h65v65h-65v-65z"/><path d="M943 53l2.027 1.246c4.505 2.849 6.966 6.32 9.711 10.863 1.13 2.032 1.13 2.032 3.262 2.891v2h2c3 6.5 3 6.5 3 11h2c3.453 11.048 4.074 22.594 2 34h-2l-.078 1.906c-.42 6.324-1.768 10.6-4.922 16.094h-2l-.809 1.746c-1.618 3.062-3.718 5.634-5.851 8.352-1.52 1.965-1.52 1.965-2.34 4.902a86.565 86.565 0 0 1-6.563 3.938l-1.925 1.068c-14.825 8.18-14.825 8.18-24.512 7.994v-11l2.344-.516c9.228-2.147 16.198-4.308 22.656-11.484l2.125-2c2.045-2.181 3.367-4.424 4.875-7l1.953-2.23c6.523-8.827 7.121-22.273 6.047-32.77-1.675-9.394-4.843-16.719-11-24l-1.621-1.957C938.748 62.945 933.207 59.869 927 57l-2.227-1.04C913.733 51.788 897.737 52.215 887 57l-2.016.773C876.66 61.346 869.673 67.752 866 76h-2l-.875 3.25C862 83 862 83 860.937 85.063c-4.094 8.462-3.215 22.726-1.03 31.632 2.17 5.443 5.063 10.11 8.769 14.637C870 133 870 133 871.312 135.625c5.961 8.39 18.258 12.428 27.688 15.375v10c-8.97.585-16.466-2.329-24-7l-1.992-.898c-2.316-1.271-3.572-2.638-5.258-4.665-1.893-2.254-3.783-4.472-5.805-6.613-6.928-7.36-11.377-14.594-11.945-24.824h-2a42.94 42.94 0 0 1-1.098-10.082l.01-2.822.025-2.909.014-2.966c.012-2.407.028-4.814.049-7.221h2l.188-3.938C849.803 81.53 852.058 77.64 855 73l1.23-2.063C864.63 57.02 864.63 57.02 872 53h2l1-3c3.563-1.188 3.563-1.188 7-2v-2c1.373-.485 2.748-.963 4.125-1.438l2.32-.808C907.452 38.144 927.077 41.78 943 53z" fill="#e62b31"/><path d="M971 38h1v128h-59v-30l2-1v8c9.909-1.722 17.148-3.757 23.25-12.063L940 128l2-2.313c6.922-9.302 7.71-19.401 7-30.687-.738-3.771-1.759-7.366-3-11l-1-3-2.063-1.438L941 78v-4l-3-1-1.625-1.688c-8.982-8.745-17.4-10.437-29.5-10.562l-2.316-.029c-5.119.03-11.16.073-15.122 3.717L888 66a201.065 201.065 0 0 1-6 3c-3.64 1.947-5.596 3.68-8 7h-2l-.875 2.813C870 82 870 82 868 85c-2.757 14.002-2.376 28.165 4 41l1 3a91.892 91.892 0 0 0 4 2 101.13 101.13 0 0 1 3.688 3.375c4.054 3.657 8.226 5.73 13.312 7.625v2h7v-8h1v30l-2-2c-2.005-.223-4.013-.442-6.027-.559C892 163 892 163 889 160l10 1-1-10-2.598-.7c-6.814-1.943-11.909-3.837-17.402-8.3l-2.75-1.625c-4.044-2.472-5.898-5.304-8.25-9.375l-1.16-1.75c-1.35-2.048-2.608-4.13-3.84-6.25-.6-1.007-.6-1.007-1.21-2.035-5.324-10.703-4.058-25.738-.79-36.965 1.15-2.826 2.534-5.313 4-8h2l.5-2.5c3.245-7.57 10.64-13.52 18.176-16.59 13.582-5.055 28.634-6.294 42.5-1.234 12.504 5.863 23.002 16.068 27.86 29.101C958.807 97.85 957.942 111.394 953 124c-1.737 2.695-3.716 4.774-6 7a396.178 396.178 0 0 0-3 5c-4.62 5.922-8.382 8.973-15.375 11.688l-3.336 1.324C922 150 919.412 150.19 916 150v11c9.251-1.52 16.266-3.72 24-9 6.569-4 6.569-4 9-4l.254-1.64c1.005-3.177 2.72-5.426 4.683-8.11l2.153-2.984L958 133h2l.875-3.125a143.698 143.698 0 0 1 2.188-7c.854-2.621 1.458-5.163 1.937-7.875h2l1-19h2l1-58z" fill="#f3f0ee"/><path d="M1024.647 312.856c3.243-.127 6.484-.215 9.728-.294l2.908-.14c6.058-.095 9.497 1.03 14.122 4.999 1.804 1.786 3.275 3.493 4.533 5.704l1.152 1.945c3.349 7.101 3.024 17.243 1.226 24.805-2.368 5.817-5.812 9.013-11.165 12.24-2.653 1.092-4.695 1.125-7.562 1.112h-3.275l-3.517-.032-3.615-.008c-3.81-.011-7.621-.037-11.432-.062-2.583-.01-5.167-.02-7.75-.027-6.333-.02-12.666-.06-19-.098v-49c7.948-.294 15.891-.585 23.84-.814 3.27-.095 6.539-.201 9.807-.33z" fill="#050200"/><path d="M597 860h80v34h-80v-34z" fill="#f5ae0a"/><path d="M933.573 67.636c6.912 5.044 6.912 5.044 8.427 8.927.863 2.75.863 2.75 4 4.437.914 1.988.914 1.988 1.625 4.313l.727 2.3c3.04 11.193 2.976 23.208-2.524 33.602-5.022 8.323-11.896 17.628-21.266 21.035-3.32.699-6.184.915-9.562.75v-11h4v-2l1.828-.445c4.428-1.243 6.65-1.881 9.547-5.617L932 121l3-2c3.62-7.665 4.703-15.612 5-24h-2l-.375-1.652c-2.065-7.552-6.18-13.43-12.785-17.766-3.218-1.666-6.31-2.77-9.84-3.582v-2h-16v2l-3.125.75C889.213 74.694 883.567 79.027 880 85c-1.758 5.624-2.314 10.696-2.25 16.563l-.023 2.17c.032 8.832 2.707 14.593 8.273 21.267l1.75 2.313c3.68 2.76 7.825 3.523 12.25 4.687v12h-6v-2l-2.227-.332c-4.607-1.11-7.986-3.911-11.773-6.668l-1.926-1.309c-6.48-4.842-10.45-12.838-12.074-20.691-.22-3.393-.185-6.788-.188-10.187l-.037-2.752c-.022-10.452 1.576-18.816 8.662-26.811C878.402 69.77 884.555 65 890 65l1-3c14.094-5.491 30.601-2.815 42.573 5.636z" fill="#0ea556"/><path d="M955 860h80v81h-80v-81zm7 8v65h65v-65h-65z" fill="#f9b908"/><path d="M647 106c11.53-.24 22.596.26 34 2v2l2.75-.313c3.25.313 3.25.313 5.438 2.626L691 115l1.578 1.375c2.4 2.743 2.015 5.478 1.887 8.984-.828 4.7-2.93 7.53-6.465 10.641-7.806 3.84-16.515 3.451-25 3.375-1.335.01-2.67.022-4.004.035l-3.808-.012-3.458-.01L649 139c-2.453-3.68-2.232-5.474-2.195-9.855l.008-2.005c.011-2.11.037-4.218.062-6.328.01-1.431.02-2.863.027-4.294.022-3.506.057-7.012.098-10.518z" fill="#070707"/><path d="M1142 107c4.417-.088 8.833-.14 13.25-.188l3.742-.076c19.505-.154 19.505-.154 25.57 5.764L1186 115l1.566 1.313c2.026 2.384 1.834 4.101 1.809 7.187l.023 2.906c-.46 3-1.174 3.653-3.398 5.594l-1 3h-4v2c-7.58 2.42-14.967 2.332-22.875 2.313-1.344.015-2.688.031-4.031.048l-3.836.002-3.496.01L1144 139c-2.422-3.633-2.233-5.318-2.195-9.637l.02-3.935.05-4.115c.01-1.384.02-2.767.027-4.15.024-3.388.057-6.776.098-10.163z" fill="#0c0c0c"/><path d="M605 868h64v18h-64v-18z" fill="#020000"/><path d="M1144 66c2.522-.34 2.522-.34 5.664-.293l3.399.03c1.175.024 2.35.05 3.562.076l3.586.04c2.93.036 5.86.085 8.789.147v2l7 1v2l2.375.813C1181 73 1181 73 1183 76c.195 2.7.195 2.7.125 5.688l-.055 3.011L1183 87h-2l-1 3-5 1v2l-8 1v2c-8.343 1.192-16.593 1.093-25 1-.05-3.933-.086-7.865-.11-11.798-.015-1.995-.04-3.99-.066-5.985l-.02-3.799-.031-3.507C1142 69 1142 69 1144 66z" fill="#0a0a0a"/><path d="M916.293 77.504c4.1 1.584 6.844 4.247 9.707 7.496l2.188 2.437c4.28 6.051 4.476 12.373 3.812 19.563-1.796 7.76-6.026 12.549-12.414 17.082C918 125 918 125 916 125c-.632-10.022-.632-10.022 1.938-14l2.062-2c.932-2.797 1.135-4.543 1.125-7.438l.008-2.308C921 97.017 920.724 95.12 920 93c-1.866-1.183-1.866-1.183-4-2l-3-2c-2.872-.28-2.872-.28-6-.188l-3.187.02c-2.894.05-2.894.05-5.813 1.168-.733 2.015-.733 2.015-1 4h-2c-1.316 7.74-1.316 7.74 1 15l1.566 1.773c1.83 2.842 1.741 4.63 1.622 7.977l-.083 2.984L899 124c-3.282 0-5.365-.439-7.852-2.637-5.661-6.324-8.571-11.355-8.398-20.05.015-1.304.03-2.607.047-3.95C883 94 883 94 884 91h2l.563-2.125c5.687-11.376 18.127-13.921 29.73-11.371z" fill="#156db1"/><path d="M655.543 65.707l3.252.03 3.393.075 3.427.042c2.796.035 5.59.084 8.385.146v2l3.25.25c5.329 1.066 6.83 3.37 9.75 7.75.3 2.594.3 2.594.313 5.5l.05 2.906C687 87 687 87 685.605 88.844 684 90 684 90 682 90v2c-3.508 1.604-6.144 2.22-10 2v2c-8.343 1.192-16.593 1.093-25 1-.074-3.933-.129-7.865-.165-11.798-.022-1.995-.06-3.99-.099-5.985l-.029-3.799-.048-3.507C647 69 647 69 648.172 67.117c2.545-1.555 4.4-1.457 7.371-1.41z" fill="#090909"/><path d="M845 105h1v7h2v5h2l.48 1.617c3.81 12.164 9.543 20.753 18.797 29.547C871 150 871 150 871 152l3.063.75c4.642 1.326 8.618 3.713 12.617 6.363 4.665 2.956 8.835 3.638 14.32 3.887v3h-56v-61z" fill="#fefafa"/><path d="M180 468h75l1 290c-2-1-2-1-3-4-.09-1.6-.124-3.202-.123-4.804l-.006-3.016.009-3.323-.003-3.522c-.001-3.23.002-6.462.007-9.693.004-3.483.003-6.966.002-10.448 0-6.036.003-12.071.008-18.107.008-8.726.011-17.453.012-26.18.002-14.156.01-28.314.019-42.471.009-13.754.016-27.509.02-41.263v-2.568l.005-12.755c.01-35.283.028-70.567.05-105.85-9.11.107-18.22.22-27.329.34-4.23.055-8.459.108-12.688.157-4.079.048-8.157.1-12.235.156-1.56.02-3.12.04-4.679.056-2.176.024-4.353.054-6.53.086-1.241.015-2.482.03-3.761.047-2.685-.156-2.685-.156-3.778 1.158a55.598 55.598 0 0 0-.139 4.012l-.016 2.634-.003 2.927-.015 3.084c-.016 3.438-.024 6.876-.032 10.314l-.03 7.36c-.022 5.296-.04 10.592-.056 15.889-.023 7.657-.05 15.315-.08 22.972-.048 12.423-.091 24.845-.132 37.268-.039 12.07-.08 24.14-.125 36.21l-.008 2.254-.041 11.189c-.114 30.962-.22 61.925-.323 92.887h-1V468z" fill="#472e00"/><path d="M354 350l2 1 .005 2.585a647258.555 647258.555 0 0 0 .367 169.748l.009 3.657c.044 19.558.084 39.116.124 58.674.04 20.059.084 40.117.132 60.176.03 12.384.056 24.767.078 37.151.016 8.485.035 16.97.058 25.454.012 4.9.024 9.8.03 14.7.007 4.482.018 8.965.032 13.447.004 1.625.007 3.25.008 4.874.002 2.203.01 4.406.018 6.61l.008 3.713c.117 2.863.47 5.43 1.131 8.211-1.468-1.003-1.468-1.003-3-3a68.857 68.857 0 0 1-.512-7.95l-.054-2.34a878.147 878.147 0 0 1-.121-7.398c-.034-1.672-.068-3.345-.104-5.017-.085-4.098-.152-8.196-.209-12.295h-1z" fill="#100"/><path d="M530 77c2.313.563 2.313.563 5 2 .73 1.629 1.449 3.263 2.11 4.92 1.668 3.897 3.857 7.526 5.952 11.205C550 107.318 550 107.318 550 112h-38c3.032-9.097 7.618-17.196 12.25-25.563l1.36-2.456 1.28-2.297 1.158-2.077C529 78 529 78 530 77z" fill="#101010"/><path d="M584 392h1v358h-2l-1-353-4 2c.976-1.17 1.956-2.336 2.938-3.5l1.652-1.969L584 392z" fill="#fe9716"/><path d="M955 860h80v81h-80v-81zm2 2v77h76v-77h-76z" fill="#fa9915"/><path d="M893 285l2 1v303h-9l1-2h6V285z" fill="#2d1700"/><path d="M1557 450l2 1 1 298 2 1-5 2V450z" fill="#ca2300"/><path d="M1118 861h79v11h-1v-10h-77v77h77v-18l-6.527.035a6881 6881 0 0 1-6.235.02c-1.449.005-2.897.012-4.345.02-2.078.013-4.155.018-6.233.023l-3.793.016C1166 921 1166 921 1165 920c-.1-2.268-.13-4.539-.133-6.809l-.003-2.066c0-1.445.001-2.89.006-4.335.005-2.215 0-4.429-.007-6.644 0-1.401.002-2.803.004-4.205l.004-3.884C1165 889 1165 889 1166 887c8.067-.023 16.133-.04 24.2-.052 3.745-.005 7.49-.012 11.235-.023 3.612-.011 7.223-.017 10.835-.02 1.38-.002 2.761-.005 4.142-.01 1.928-.008 3.855-.008 5.783-.009l3.331-.006C1228 887 1228 887 1229 888c.11 1.937.15 3.878.161 5.817l.03 3.773.012 4.113.017 4.197c.01 2.94.017 5.878.02 8.817.006 3.76.03 7.521.058 11.282.019 2.892.024 5.785.026 8.678.003 1.386.01 2.772.024 4.158a520.9 520.9 0 0 1 .008 5.83l.011 3.349c-.411 3.345-1.446 5.25-3.367 7.986l-1-2 .918-2.744c1.105-3.324 1.356-5.867 1.4-9.353l.062-3.628.034-3.767.054-3.497c.062-4.295.109-8.59.157-12.886L1228 889h-61v30h30v21h-79v-79z" fill="#fea416"/><path d="M903 102h9v64h-9v-64z" fill="#323130"/><path d="M564 333h2v33h-32c6.76-7.887 6.76-7.887 9.586-10.902l1.87-1.998 1.919-2.038 1.993-2.123c4.021-4.272 8.09-8.48 12.312-12.556 1.435-1.368 1.435-1.368 2.32-3.383z" fill="#0f0a00"/><path d="M335 237h1v40l244-1 1-2c1.5 1.375 1.5 1.375 3 3v2H335v-42z" fill="#ffaa1e"/><path d="M567 830h117v1H569v138h26v-44h2v46h-30V830z" fill="#c51200"/><path d="M551 236h93v406h-1V237h-88l2 6c-4.875-4.75-4.875-4.75-6-7z" fill="#c50d00"/><path d="M560 416c0 3 0 3-1.822 5.183l-2.584 2.564-1.419 1.42a952.948 952.948 0 0 1-4.675 4.626 3126.717 3126.717 0 0 1-11.751 11.664c-2.9 2.87-5.793 5.749-8.686 8.627A8806.998 8806.998 0 0 1 512 467l-3-1v-19h-77v200l2 1-3 1V445h80l1 19z" fill="#fb9718"/><path d="M1107 58h77v2h10v1l-85-1v85h85v1c-9.275 1.179-18.491 1.128-27.82 1.098l-4.557-.003c-5.582-.006-11.165-.02-16.748-.033L1107 147V58z" fill="#bbb"/><path d="M996.326 462.751l2.245.022h2.365c2.587 0 5.173.016 7.76.032l5.372.008c4.718.008 9.436.028 14.154.05 4.813.02 9.626.03 14.438.04 9.447.02 18.893.055 28.34.097v2h-80v148l14-6 2 1-4 1v2a220.172 220.172 0 0 1-4.187 2.063l-2.356 1.16c-2.905.919-4.535.46-7.457-.223-.047-19.393-.082-38.785-.104-58.178-.01-9.004-.024-18.008-.047-27.011-.02-7.846-.033-15.691-.037-23.537-.003-4.156-.009-8.312-.023-12.468a2769.41 2769.41 0 0 1-.015-11.726c0-1.438-.005-2.875-.012-4.313-.01-1.956-.007-3.913-.003-5.87l-.005-3.324c.478-4.997 3.188-4.804 7.572-4.822z" fill="#eab524"/><path d="M226 237h109v42h-2v-40H232c3.25 4.062 6.191 6.934 10.25 10 1.248.96 2.496 1.923 3.742 2.887l1.976 1.525c4.173 3.261 8.257 6.634 12.35 9.996l1.893 1.549 1.752 1.46c1.987 1.612 1.987 1.612 4.125 2.82 3.134 1.934 5.485 3.425 6.635 7.03.263 2.806.267 5.511.185 8.328l.004 3.195c-.006 3.475-.068 6.947-.13 10.42-.016 2.414-.027 4.827-.035 7.24-.03 6.342-.11 12.684-.198 19.027-.082 6.475-.118 12.95-.158 19.425-.086 12.7-.221 25.399-.391 38.098h-1l.056-3.988c.166-12.432.258-24.862.278-37.295.013-6.392.051-12.781.15-19.172.093-6.173.118-12.344.096-18.518.004-2.35.032-4.7.085-7.048.817-13.34.817-13.34-4.73-24.81-3.379-2.914-7.036-5.02-10.935-7.169a105.84 105.84 0 0 1-4.516-3.637l-1.897-1.547-1.837-1.503c-1.346-1.098-2.692-2.196-4.04-3.293-.632-.517-1.266-1.033-1.918-1.564-2.461-2-4.938-3.98-7.417-5.956-7.343-5.867-7.343-5.867-10.375-8.5v-1z" fill="#d23400"/><path d="M66 237h99v145l-2-1V239H67l-1-2z" fill="#c41900"/><path d="M809 826h2v105h104c-.04-23.754-.04-23.754-.09-47.508-.005-4.607-.005-4.607-.005-6.767-.002-1.5-.005-3.002-.01-4.502-.008-2.28-.009-4.56-.009-6.84l-.006-3.89c.112-3.26.5-6.296 1.12-9.493h1v82l-107-1-1-107z" fill="#1f0c00"/><path d="M803 941h110v30H773v-2h138v-27H803v-1z" fill="#c20f00"/><path d="M355 350h2l.003 2.573a212748.117 212748.117 0 0 0 .26 169.058l.006 3.644c.036 19.474.06 38.947.081 58.421.022 19.981.055 39.962.099 59.943.026 12.33.044 24.66.05 36.99.006 8.454.022 16.908.047 25.362.014 4.879.023 9.757.019 14.635-.003 4.468.007 8.937.028 13.406.005 1.614.006 3.227 0 4.841-.353 12.475-.353 12.475 3.407 24.127a72.702 72.702 0 0 0 4 2l2 3c-4.44-1.357-6.452-3.134-9-7-1.8-4.483-2.253-8.248-2.262-13.063l-.012-2.093c-.01-2.314-.008-4.627-.004-6.94a4418.71 4418.71 0 0 1-.038-18.84c-.004-4.965-.02-9.93-.033-14.896-.023-8.602-.038-17.204-.048-25.807-.014-12.437-.04-24.875-.068-37.312-.045-20.179-.082-40.358-.113-60.536-.03-19.603-.065-39.205-.105-58.808l-.007-3.661-.037-18.183c-.104-50.287-.193-100.574-.273-150.861z" fill="#edba2d"/><path d="M183 230l2 1v130h68l-1-78 3 2c.287 2.544.379 4.843.34 7.387l.002 2.306a891.827 891.827 0 0 1-.049 7.565 2925.557 2925.557 0 0 1-.087 19.037c-.036 5.517-.05 11.033-.067 16.55-.03 8.385-.087 16.77-.139 25.155h-71l-1-133z" fill="#2e1800"/><path d="M612 58h77v1h-75v86l92-1v1c-12.187 1.595-24.099 2.279-36.383 2.195-1.49-.003-2.981-.005-4.472-.006-5.424-.01-10.847-.038-16.27-.064L612 147V58z" fill="#a8a8a8"/><path d="M991 465l40.375-.125 12.76-.055c5.132-.01 5.132-.01 7.533-.01 1.68-.004 3.361-.011 5.042-.021 2.543-.015 5.085-.017 7.627-.016l2.278-.022c5.157.02 5.157.02 7.385 2.249h-81v144l3 1-5 1V465z" fill="#261100"/><path d="M962 868h65v65h-65v-65zm2 1v62h62v-62h-62z" fill="#2f1a02"/><path d="M495 860h57v1h-55v110h-30v-2h28V860z" fill="#d03000"/><path d="M408 822c2.497-.378 2.497-.378 5.712-.381l3.683-.026 4.063.019a1931.913 1931.913 0 0 1 15.86-.015c4.043.008 8.086 0 12.129-.004 6.793-.006 13.586.002 20.38.016 7.852.016 15.705.01 23.557-.006a6346.22 6346.22 0 0 1 20.217-.007c4.026.004 8.052.005 12.078-.005 3.788-.009 7.576-.003 11.364.015 1.39.004 2.779.003 4.168-.004a506.91 506.91 0 0 1 5.696.017l3.219.003c3.309.435 5.198 1.414 7.874 3.378l1 2-2.606-.985c-3.443-1.03-6.117-1.262-9.696-1.256l-3.773-.008-4.1.022h-4.348c-3.923-.002-7.846.01-11.769.024-4.104.013-8.208.014-12.312.016-7.766.006-15.533.023-23.3.043-8.843.022-17.687.033-26.531.043-18.189.021-36.377.056-54.565.101l2-3z" fill="#dba612"/><path d="M1170.718 880.432l1.983-.002c2.148.004 4.295.042 6.444.082 1.495.01 2.99.016 4.485.021 3.924.02 7.848.068 11.772.124 4.008.05 8.017.074 12.026.099 7.858.053 15.715.139 23.572.244l1 2-2.523.018c-7.843.058-15.686.13-23.529.218-4.032.044-8.064.084-12.096.11-3.89.026-7.78.067-11.671.117-1.485.017-2.97.028-4.456.035-2.078.01-4.156.037-6.234.07l-3.587.033c-2.881.172-2.881.172-4.786 1.706-1.917 2.904-1.523 6.208-1.481 9.572l-.002 2.327c.003 1.621.012 3.243.029 4.864.023 2.487.02 4.972.014 7.46.005 1.574.012 3.149.021 4.724l-.003 2.26c-.078 4.201-.078 4.201 2.304 7.486 2.716.372 2.716.372 5.883.414l3.535.117 3.707.094 3.73.117c3.048.095 6.097.18 9.145.258v2c-4.25.116-8.5.187-12.75.25l-3.656.102-3.516.039-3.237.063c-3.527-.564-4.64-1.707-6.841-4.454-2.336-4.672-1.312-11.638-1.35-16.83-.017-1.65-.044-3.3-.082-4.95a423.212 423.212 0 0 1-.091-7.146l-.07-2.223c.016-3.731.385-5.586 2.71-8.55 3.514-2.805 5.153-2.91 9.601-2.869z" fill="#dfaf28"/><path d="M713.124 215.86l2.617-.018 2.878-.003 3.025-.015c3.314-.015 6.628-.022 9.942-.027l6.89-.017c4.82-.01 9.641-.017 14.462-.02 6.183-.006 12.365-.03 18.549-.058 4.745-.019 9.49-.024 14.237-.026 2.28-.003 4.56-.01 6.839-.024 3.187-.017 6.373-.015 9.56-.008l2.865-.028c6.422.04 6.422.04 9.63 1.906L816 219l-3.99-.007c-12.405-.02-24.809-.035-37.213-.045-6.377-.005-12.754-.012-19.132-.023-6.153-.011-12.306-.017-18.46-.02-2.348-.002-4.697-.005-7.046-.01a4203.26 4203.26 0 0 0-9.86-.009l-2.95-.01-2.724.004-2.354-.003c-4.785.209-4.785.209-8.783 2.498L702.313 223C700 226 700 226 698 227c-1.187 3.56-1.097 6.438-1.062 10.187l.027 3.856L697 244c-2.877-2.877-2.744-4.965-3-9 .606-5.623 1.787-10.014 6-14 4.24-2.798 8.005-5.12 13.124-5.14z" fill="#d5a112"/><path d="M1112 831c-2 2-2 2-4.625 2.688-3.997 1.554-6.363 3.735-9.445 6.656-1.93 1.656-1.93 1.656-4.047 2.5-2.94 1.806-3.041 3.843-3.883 7.156-.296 3.318-.311 6.623-.319 9.953l-.03 2.987c-.031 3.247-.048 6.493-.065 9.74a7483.594 7483.594 0 0 0-.187 24.552c-.04 6.053-.091 12.106-.141 18.159-.097 11.87-.181 23.74-.258 35.609-2.634-3.952-2.31-7.373-2.322-11.963l-.03-2.78c-.03-3.043-.043-6.085-.054-9.128l-.035-6.358c-.02-4.451-.033-8.902-.04-13.354-.01-5.679-.058-11.357-.115-17.036-.038-4.384-.048-8.766-.051-13.15a644.12 644.12 0 0 0-.049-6.275c-.273-23.366-.273-23.366 8.534-32.957 5.018-4.713 10.156-7.5 17.162-6.999z" fill="#c51400"/><path d="M226.73 217.866l2.95-.013 3.23.002 3.405-.01c3.726-.01 7.451-.012 11.177-.013l7.754-.01c5.422-.006 10.844-.008 16.266-.007 6.264 0 12.528-.01 18.791-.026 6.029-.015 12.058-.018 18.086-.018 2.564 0 5.128-.005 7.691-.013 3.584-.01 7.168-.007 10.752 0 1.062-.007 2.124-.012 3.218-.018l2.965.013 2.567-.002c2.753.283 4.904 1.118 7.418 2.249v1H217c3.028-3.028 5.64-3.126 9.73-3.134z" fill="#d8a312"/><path d="M879.392 214.379l2.48-.02c2.728-.015 5.455.005 8.183.026a2251.63 2251.63 0 0 1 21.847.01c5.577.02 11.154.013 16.732.011 9.37 0 18.74.02 28.111.052 10.814.037 21.628.046 32.441.039 10.42-.007 20.84.004 31.26.024 4.425.008 8.85.01 13.275.009 5.221 0 10.442.013 15.663.04 1.91.006 3.818.008 5.727.005 12.062-.017 22.59.765 33.889 5.425v1c-4.114.386-6.956-.618-10.645-2.246-6.02-1.927-12.452-1.903-18.718-1.901l-2.433-.011c-2.67-.011-5.34-.015-8.01-.019l-5.767-.02c-6.29-.02-12.581-.031-18.872-.041l-6.508-.013a29137.71 29137.71 0 0 0-30.553-.041c-11.75-.01-23.502-.036-35.252-.077-9.091-.03-18.182-.045-27.272-.048-5.428-.002-10.855-.011-16.282-.036-5.1-.024-10.2-.028-15.301-.018-1.871 0-3.743-.006-5.614-.02-2.555-.017-5.11-.01-7.664.003l-2.242-.033c-5.273.066-7.859 1.355-11.867 4.521l-2-1c5.3-4.383 8.58-5.735 15.392-5.621z" fill="#efb923"/><path d="M450 464h41c1 1 1 1 1.063 3.563L492 470l-2-3-39-1v151l2 1h-3V464z" fill="#100"/><path d="M958.752 821.839l2.605-.015c2.831-.015 5.663-.022 8.495-.027l2.946-.009c5.15-.015 10.299-.024 15.448-.028 5.292-.006 10.584-.03 15.876-.058 4.092-.019 8.184-.024 12.277-.026 1.95-.003 3.899-.01 5.848-.024 24.55-.154 24.55-.154 33.003 5.535L1057 829c-2.503-.417-4.63-.803-6.883-2-6.438-3.04-15.073-2.143-22.065-2.114h-2.842c-3.062 0-6.124.008-9.187.016l-6.414.005c-5.599.003-11.198.013-16.798.024-5.724.01-11.45.015-17.174.02-11.213.01-22.425.028-33.637.049 4.16-4.16 11.176-3.153 16.752-3.161z" fill="#dba715"/><path d="M550.065 215.866l2.502-.013 2.735.002 2.888-.01c3.16-.01 6.319-.012 9.478-.013l6.588-.01a9677.7 9677.7 0 0 1 13.828-.007c5.897 0 11.794-.014 17.69-.031 4.54-.011 9.079-.013 13.618-.013 2.173 0 4.346-.005 6.52-.013 3.046-.01 6.093-.007 9.14 0 1.338-.01 1.338-.01 2.703-.018 5.41.027 10.046.744 15.245 2.26v1H542c1.703-3.406 4.635-3.126 8.065-3.134z" fill="#d7a313"/><path d="M1096 972c1.98.475 3.96.955 5.938 1.438l3.34.808C1108 975 1108 975 1109 976c3.043.125 6.065.186 9.11.205l2.897.03c3.176.032 6.352.057 9.528.081l6.587.063c5.792.056 11.584.105 17.376.153 5.905.05 11.81.106 17.715.161 11.596.108 23.191.21 34.787.307v1c-4.979.995-9.732 1.154-14.784 1.161l-2.614.015c-2.841.015-5.683.022-8.524.027l-5.956.017c-4.159.01-8.318.017-12.477.02-5.31.006-10.62.03-15.93.058-4.102.019-8.203.024-12.303.026-1.957.003-3.914.01-5.87.024-23.684.148-23.684.148-32.542-6.348v-1z" fill="#bc911a"/><path d="M1124.075 821.855l2.634-.01c2.85-.01 5.7-.012 8.549-.013l5.976-.01c4.164-.006 8.328-.008 12.492-.007 5.33 0 10.661-.014 15.992-.031 4.11-.011 8.219-.013 12.328-.013 1.965 0 3.931-.005 5.897-.013 2.747-.01 5.494-.007 8.241 0 1.211-.01 1.211-.01 2.447-.018 4.514.025 8.115.55 12.369 2.26v1h-104v-2c5.735-.82 11.286-1.149 17.075-1.145z" fill="#daa514"/><path d="M1064 850h1c1.164 4.621 1.148 9.079 1.145 13.81l.01 2.658c.01 2.893.012 5.787.013 8.68l.01 6.05c.006 4.224.008 8.45.007 12.674 0 5.406.014 10.812.031 16.217.011 4.165.013 8.329.013 12.493 0 1.993.005 3.985.013 5.978.01 2.79.007 5.58 0 8.371.007.818.012 1.636.018 2.479-.027 4.903-.698 8.936-2.26 13.59h-1z" fill="#d42800"/><path d="M582 287h2v96h-1l-1-91-20 20-4 3-2-1 1.633-1.617c2.48-2.458 4.954-4.92 7.43-7.383l2.568-2.543c4.547-4.53 8.912-9.101 12.992-14.059L582 287z" fill="#feab12"/><path d="M177 223c6.745 6.39 6.745 6.39 7.246 11.522l-.005 2.894.008 3.332-.022 3.64v3.844c.002 3.475-.01 6.95-.024 10.424-.013 3.633-.014 7.266-.016 10.899-.006 6.878-.023 13.755-.043 20.633-.022 7.83-.033 15.661-.043 23.492-.021 16.107-.056 32.213-.101 48.32h-1l-.007-1.964c-.06-15.783-.135-31.566-.229-47.35a9418.46 9418.46 0 0 1-.11-22.898c-.023-6.654-.057-13.308-.103-19.962-.024-3.522-.042-7.044-.049-10.566-.007-3.936-.037-7.871-.07-11.807l.005-3.522c-.071-6.121-.55-10.51-3.437-15.931a605.18 605.18 0 0 1-2-5z" fill="#eeba2d"/><path d="M1372 310v1c-1.958.027-3.917.046-5.875.063l-3.305.035C1360 311 1360 311 1358 310c-2.905-.1-5.786-.14-8.691-.133l-2.608-.003c-1.82 0-3.64.001-5.46.006-2.796.005-5.591 0-8.387-.007-1.765 0-3.53.002-5.295.004l-2.55-.006c-3.813-.358-3.813-.358-7.009 1.139-3.1.324-6.202.513-9.313.719-2.603-.013-2.603-.013-3.687 1.281l-7 1-1 1c-2.67.141-5.324.042-8 0 20.725-13.817 60.21-10.188 83-5z" fill="#dcab21"/><path d="M1232 883h2c1.98 3.314 2.253 5.817 2.259 9.651l.019 3.44-.012 3.706.005 3.826c.002 2.674 0 5.346-.01 8.02-.012 3.407-.005 6.813.007 10.22.009 3.27.003 6.54-.002 9.809l.012 3.681c-.034 6.237-.425 11.68-2.278 17.647h-1l.007-2.434c.02-7.577.035-15.155.045-22.732.005-3.895.012-7.79.023-11.686.011-3.76.017-7.521.02-11.282.002-1.433.005-2.866.01-4.3a1693 1693 0 0 0 .009-6.032l.006-3.465c-.11-2.81-.476-5.337-1.12-8.069z" fill="#dda815"/><path d="M1181 493c8.182 12.272 3.315 38.766 1.688 52.625l-.357 3.102c-.76 5.85-2.065 10.829-4.331 16.273a272.136 272.136 0 0 0-2.613 9.379c-1.614 5.906-3.853 10.62-7.387 15.621l-1-2a152.388 152.388 0 0 1 3.125-7.5c12.086-28.23 12.902-57.271 10.875-87.5z" fill="#fc9e15"/><path d="M893 607v60l-5 2 1-2h2l-1-56-7 1c2.782-2.267 6.226-5 10-5z" fill="#d33500"/><path d="M902 102h1v64h-1l-1-22h-1v-12l-6-1c3.01-.934 3.867-1.044 7 0v-5h-4v-2h2c-.14-1.792-.288-3.584-.438-5.375-.08-.998-.162-1.995-.246-3.023-.166-2.581-.166-2.581-1.316-4.602l4 1 1-10z" fill="#c7d4d8"/><path d="M735 144c2.104-.027 4.208-.046 6.313-.063l3.55-.035C748 144 748 144 751 145c1.917.089 3.837.118 5.757.114h3.578l3.864-.016 3.956-.005c3.467-.003 6.934-.013 10.401-.024 3.54-.01 7.079-.015 10.618-.02 6.942-.01 13.884-.028 20.826-.049v1c-10.718 1.71-21.098 2.327-31.938 2.25l-2.28-.007c-9.994-.038-19.941-.32-29.907-1.118l-3.031-.237c-5.069-.474-5.069-.474-6.844-.888l-1-2z" fill="#c4c4c4"/><path d="M895 688v65h-2v-62l-3-1c3-2 3-2 5-2z" fill="#2e1800"/><path d="M521 606v64h-2v-61l-4-1c3.75-2 3.75-2 6-2z" fill="#c92300"/><path d="M1639 216c14.856-.117 29.712-.205 44.568-.26 6.898-.025 13.797-.06 20.695-.117 6.66-.055 13.318-.084 19.977-.097 2.539-.01 5.078-.028 7.617-.055 3.56-.036 7.118-.04 10.678-.039l3.172-.054c6.76.047 10.983 1.389 16.293 5.622l-2 1-3-2a75.316 75.316 0 0 0-5-1v-2h-113v-1z" fill="#eeba29"/><path d="M647 106c11.586-.181 22.554.253 34 2v2l2.875-.188L687 110l2 3-2.089-.632c-8.431-2.352-16.437-2.902-25.161-3.055-1.342-.034-2.685-.068-4.027-.104-3.241-.082-6.482-.147-9.723-.209v27h-1v-30z" fill="#545454"/><path d="M1296 598c1.98.14 3.959.287 5.938.438 1.102.08 2.204.162 3.34.246C1308 599 1308 599 1309 600c1.83.208 3.664.367 5.5.5 5.389.389 5.389.389 6.5 1.5 2.664.16 5.306.26 7.973.316l2.417.063c2.557.066 5.115.125 7.672.183l5.19.131c4.25.108 8.499.209 12.748.307v1c-19.775 3.34-41.986 1.279-61-5v-1z" fill="#cd2600"/><path d="M714 236h93v1h-89l1 5a282.832 282.832 0 0 1-5-5v-1z" fill="#c50e00"/><path d="M802 134v3c-14.337 6.73-28.32 3.896-43 0v-1l3.75-.063 2.11-.035c2.14.098 2.14.098 3.934.594 4.587 1.048 9.398.689 14.081.691l3.262.038c7.623.016 7.623.016 14.863-2.225z" fill="#565656"/><path d="M1371.938 821.797l2.656-.017c1.852-.01 3.705-.016 5.557-.02 2.838-.01 5.675-.041 8.513-.073 1.8-.006 3.599-.011 5.399-.015l2.575-.038c6.02.023 6.02.023 9.362 3.366h-47c2.262-4.525 8.509-3.181 12.938-3.203z" fill="#d9a514"/><path d="M450 464c5.82-.025 11.641-.043 17.462-.055 1.982-.005 3.964-.012 5.945-.02 2.843-.013 5.685-.018 8.527-.023l2.702-.015c2.121 0 4.243.05 6.364.113 1 1 1 1 1.063 3.562L492 470l-2-3a80.955 80.955 0 0 0-8.727-.512l-2.614-.054c-2.761-.054-5.522-.088-8.284-.122-1.87-.033-3.74-.067-5.61-.103A2259.52 2259.52 0 0 0 451 466l-1-2z" fill="#463004"/><path d="M1288 428c0 3.624-1.02 5.127-2.813 8.25-6.848 12.31-8.525 22.95-8.312 36.938l.027 3.462c.024 2.784.056 5.567.098 8.35h-1c-2.146-12.823-2.32-26.65 2-39l.879-2.664c2.128-5.893 5.106-10.545 9.121-15.336z" fill="#fda118"/><path d="M1334.102 324.794c2.29.019 4.58.02 6.87.02 12.12.04 12.12.04 18.028 1.186v1l-2.772-.063c-18.162-.36-35.47-.347-53.228 4.063l-2.354.58c-1.884.466-3.765.942-5.646 1.42v-2c3.54-2.124 6.95-2.465 11-3l1-1c8.954-2.241 17.944-2.282 27.102-2.206z" fill="#fea719"/><path d="M1191 876l1.754.493c3.612.815 7.265.628 10.95.605l2.538-.005c2.67-.005 5.339-.018 8.008-.03 1.812-.006 3.625-.01 5.438-.014 4.437-.011 8.875-.028 13.312-.049l-2 3c-2.72.317-5.207.444-7.93.434l-2.384.015c-1.666.007-3.332.006-4.998-.003-2.547-.008-5.09.02-7.637.052-1.619.002-3.237.001-4.856-.002l-2.304.034c-3.651-.048-5.52-.23-8.403-2.561L1191 876z" fill="#dca50c"/><path d="M864 76h2c-.457 1.542-.916 3.084-1.375 4.625l-.773 2.602a100.324 100.324 0 0 1-1.893 5.568c-.982 3.282-1.19 5.848-1.154 9.26l.02 3.36.05 3.46.027 3.531c.024 2.865.057 5.73.098 8.594-2-1-2-1-3-4-.229-3.204-.185-6.414-.188-9.625l-.037-2.621c-.02-9.31 1.777-16.6 6.225-24.754z" fill="#fbbec0"/><path d="M1100 144v1c-20.909 6.48-44.367 4.21-66 4v-1l49-1v-2c5.71-.74 11.242-1.105 17-1z" fill="#404040"/><path d="M735.625 821.797l2.252-.017c1.57-.01 3.14-.016 4.71-.02 2.404-.01 4.807-.041 7.21-.073l4.578-.015 2.178-.038c4.38.02 5.187.106 8.447 3.366h-41c2.125-4.25 7.449-3.178 11.625-3.203z" fill="#d9a515"/><path d="M1181 503h1c3.317 17.827.542 37.4-3 55h-1c.139-3.125.287-6.25.438-9.375l.119-2.695.127-2.578.11-2.38C1179 539 1179 539 1180 537c.156-2.551.258-5.08.316-7.633l.063-2.278c.066-2.405.125-4.81.184-7.214l.13-4.887c.108-3.996.209-7.992.307-11.988z" fill="#c20"/><path d="M1418 233h68l-1 2-64-1 1 6c-4-4.75-4-4.75-4-7z" fill="#bf1500"/><path d="M1191 877l1.47.988c3.63 1.452 7.165 1.258 11.014 1.207l2.472-.008c2.598-.011 5.196-.037 7.794-.062 1.764-.01 3.529-.02 5.293-.027A2928.9 2928.9 0 0 0 1232 879l-1 3-67-1v-1l26-1z" fill="#280200"/><path d="M1229 839c4.787 4.293 6.66 10.077 7.208 16.406.119 2.68.164 5.349.167 8.032l.005 2.656c-.074 4.248-.248 7.147-2.38 10.906h-1l.016-1.677c.98-17.762.98-17.762-4.016-34.323v-2z" fill="#d6a319"/><path d="M867 620c-7.87 3.707-15.853 6.952-24 10l-2.215.84c-5.574 2.109-11.181 4.13-16.785 6.16v-2a3431.01 3431.01 0 0 1 16.443-6.89c1.866-.78 3.73-1.563 5.593-2.35 2.676-1.13 5.358-2.245 8.042-3.358l2.523-1.076 2.365-.97 2.072-.869c2.325-.577 3.715-.239 5.962.513z" fill="#c91a00"/><path d="M907.063 87.75l3.222-.016C913 88 913 88 915 90l-2.125-.027c-6.46.202-10.779 1.186-15.48 5.773C894.82 99.907 895.388 104.3 896 109l-2-1c-1.27-4.956-1.511-9.42 1-14h2l.313-1.875c1.543-4.772 5.466-4.396 9.75-4.375z" fill="#c6e1f4"/><path d="M1029 71l2 1c-1.288 1.483-2.58 2.96-3.875 4.438l-2.18 2.496C1023 81 1023 81 1021 82c-5.615 7.812-6.54 16.643-7 26h-1c-.202-14.748-.202-14.748 1-21l2-1 1.25-2.125c3.057-5.022 6.79-9.632 11.75-12.875z" fill="#747474"/><path d="M890 149c7.875.875 7.875.875 9 2 .072 1.686.084 3.375.063 5.063l-.028 2.785L899 161c-6.028.393-11.404-.663-17-3l-1-2 16 3v-6l-1.813-.438c-1.749-.45-3.474-.99-5.187-1.562v-2z" fill="#e1494d"/><path d="M1276 449c1.054 3.732 1.054 3.732.57 6.145-.834 4.177-.717 8.293-.695 12.543l.006 2.7c.039 5.93.334 11.728 1.119 17.612-4.477-4.477-4.274-11.772-4.322-17.777l.01-2.723-.05-2.723c-.004-5.949.952-10.333 3.362-15.777z" fill="#ca1e00"/><path d="M970 94h1v15h-2l-.402 2.047-.535 2.703-.528 2.672c-.459 2.21-.968 4.393-1.535 6.578h-2l1-8h2l1-19h2v-2z" fill="#fde8e8"/><path d="M1144 66h25v2l4 1h-30l1-3z" fill="#535353"/><path d="M650 66c2.43-.34 2.43-.34 5.445-.293l3.262.03 3.418.076 3.441.04c2.812.036 5.623.085 8.434.147v2l4 1h-30l2-3z" fill="#515151"/><path d="M723 87c0 3 0 3-2.5 6.063C715.978 97.38 711.177 98 705 98v2l2 1c-6.055.195-6.055.195-8 0l-2-2c4.502-2.199 8.632-3.365 13.563-4.313C716.545 93.406 719.266 91.8 723 87z" fill="#9b9b9b"/><path d="M1005 65l-1.723.813c-5.363 2.721-8.997 5.637-12.77 10.32-1.42 1.76-2.808 3.372-4.507 4.867h-2l-1 4-1-2c3.2-7.465 14.046-20.985 23-18z" fill="#a7a7a7"/><path d="M1399 503l1 2c-7.642 10.395-16.319 20.16-28 26l-3-1c1.996-1.996 3.502-2.818 6-4.063 9.636-5.267 17.928-13.83 24-22.937z" fill="#c91b00"/><path d="M1316 405l2 1-2.668 1.574-3.52 2.113-1.751 1.03c-3.894 2.353-6.933 4.935-10.061 8.283a2213.281 2213.281 0 0 1-4.125 4.25l-2.008 2.078C1292 427 1292 427 1289 428c4.085-9.604 14.238-16.073 23-21l2.195-1.25L1316 405z" fill="#fea614"/><path d="M892 130l8 2v12h-6v-2l-2.063-.25c-3.812-.973-6.578-2.708-9.937-4.75l4-1v2l1.734.402c2.243.592 4.352 1.33 6.516 2.16L898 142v-9l-6-2v-1z" fill="#5fc08e"/><path d="M849 86h1v31h-2a42.94 42.94 0 0 1-1.098-10.082l.01-2.822.025-2.909.014-2.966c.012-2.407.028-4.814.049-7.221h2v-5z" fill="#e87174"/><path d="M893 81c2.164.367 2.164.367 4 1l-1.934 1.898-2.504 2.477-2.496 2.46c-2.1 1.988-2.1 1.988-3.066 4.165h-2l-1 16h-1c-.027-2.438-.047-4.875-.063-7.313l-.025-2.091c-.015-3.144.086-5.59 1.088-8.596h2l.688-2.188c1.6-3.428 3.376-5.435 6.312-7.812z" fill="#3f83b7"/><path d="M892 74c-1.38 4.266-3.305 6.582-6.563 9.625-3.487 3.18-3.487 3.18-5.437 7.375h-2c1.188-6.98 4.992-11.138 10-16 2-1 2-1 4-1z" fill="#cbf1dd"/><path d="M564 334l1 2c-5.635 6.712-11.76 12.86-18 19l-2-1c5.918-7.085 12.431-13.528 19-20z" fill="#1d0e00"/><path d="M898.52 58.707l3.095.03 3.197.075 3.256.042c2.645.035 5.288.084 7.932.146v1l-3.691.148-4.872.227-2.423.094C895.58 60.92 895.58 60.92 888 66a201.274 201.274 0 0 1-6 3l-3 2c1.451-3.825 3.382-5.19 7-7h2v-2c3.566-2.659 6.114-3.367 10.52-3.293z" fill="#9eddbc"/><path d="M1311 528c4.534.422 8.336 1.46 12.625 3 9.205 2.979 18.774 2.842 28.375 3v1c-24.634.82-24.634.82-36-4l-2.836-1.133L1311 529v-1z" fill="#fc9c18"/><path d="M1406 217l2 1a105.022 105.022 0 0 1-4 5h-2c-2.427 7.281-.66 14.765 1 22-4.032-3.767-4.823-7.43-5.438-12.875.13-5.602 3.322-9.93 7.106-13.855L1406 217z" fill="#daa61b"/><path d="M1099 122h2v22h-7v-1h5l-1-16h-3a105.022 105.022 0 0 1 4-5z" fill="#b2b2b2"/><path d="M709.438 217.25L711 218l-2.688.625c-4.247 1.763-5.543 3.76-8.312 7.375l-2 1c-1.187 3.56-1.097 6.438-1.063 10.188l.028 3.855L697 244c-2.877-2.877-2.744-4.965-3-9 .606-5.623 1.787-10.014 6-14 5.67-4.136 5.67-4.136 9.438-3.75z" fill="#e0ad20"/><path d="M1099 497h2c1.8 3.869 2.257 6.93 2.266 11.184l.007 3.56-.023 3.693.023 3.682-.007 3.565-.007 3.236c-.277 3.292-1.096 5.998-2.259 9.08-.762-2.287-1.06-3.727-.54-6.105.72-3.858.73-7.604.727-11.52l.002-2.408c-.054-6.147-.713-11.986-2.189-17.967z" fill="#e3b022"/><path d="M924 129v2c-2.647 1.46-3.894 2-7 2v8l12-2c-1 2-1 2-4.188 3.125-3.45.792-6.296 1.046-9.812.875v-11h4v-2c3-1 3-1 5-1z" fill="#63bf8f"/><path d="M1094 61h7v22h-2l-2-4h2V62h-5v-1z" fill="#b2b2b2"/><path d="M883 67l2 1c-3.744 4.445-7.364 8.455-12 12l-1 2h-2c1.576-6.16 4.425-9.362 9.75-12.75L882 68z" fill="#30af6d"/><path d="M1130 378l1 2c-8.556 12.204-8.556 12.204-14 17h-2l5 6c-3.426-1.204-5.533-2.359-8-5l2.16-1.836c6.32-5.53 11.36-10.977 15.84-18.164z" fill="#fd9f17"/><path d="M544 355c0 3 0 3-5 9l26-1v2h-30c6-7 6-7 9-10z" fill="#120300"/><path d="M963 81h2c2.829 9.052 3.142 17.562 3 27h-1c-.09-1.065-.09-1.065-.184-2.152l-.254-2.785c-.08-.917-.162-1.834-.246-2.778-.076-2.247-.076-2.247-1.316-3.285a246.67 246.67 0 0 1-1.063-8.063l-.275-2.298c-.224-1.88-.444-3.76-.662-5.639z" fill="#e4595d"/><path d="M906.75 68.813l2.383-.038c5.001-.012 9.171.447 13.867 2.225 1.938 2.625 1.938 2.625 3 5-3.724-1.213-7.378-2.509-11-4v-2h-16v2h-4v-2c3.92-1.307 7.665-1.184 11.75-1.188z" fill="#3db275"/><path d="M780 65c3.396-.03 6.792-.047 10.188-.063l2.908-.025 2.822-.01 2.587-.016c2.587.118 4.972.543 7.495 1.114v2l4 1h-8v-2l-22-1v-1z" fill="#535353"/><path d="M907.188 52.813l2.654.001c4.172.029 8.092.134 12.158 1.186v1l-2.095-.016c-3.114-.02-6.228-.034-9.342-.047l-3.3-.025-3.134-.01-2.904-.016c-2.198-.137-2.198-.137-3.225 1.114-1.849.234-3.705.413-5.563.563l-3.066.253L887 57c5.022-5.022 13.545-4.282 20.188-4.188z" fill="#fecdce"/><path d="M899 70h16v2l-2.746.184C905.48 72.65 898.74 73.186 892 74l1-2h6v-2z" fill="#a7e3c4"/><path d="M1109 563l1 2c-12.406 18.401-12.406 18.401-19 20 3.157-3.696 6.33-7.37 9.563-11 3.082-3.508 5.792-7.153 8.437-11z" fill="#c91900"/><path d="M1294 455c.942 2.826 1.096 4.407 1.027 7.316l-.04 2.554-.05 2.692c-.076 7.102.222 13.532 2.063 20.438-2-1-2-1-3.11-3.195-.97-3.057-1.134-5.49-1.12-8.692l.005-3.342.037-3.459.002-3.494c.046-8.537.046-8.537 1.186-10.818z" fill="#dcaa21"/><path d="M1332.004 398.867c5.426.017 10.628.338 15.996 1.133v1l-3.367.184c-7.9.44-15.766.942-23.633 1.816l1-2c2.327-.374 4.661-.708 7-1 1-1 1-1 3.004-1.133z" fill="#cc2500"/><path d="M956 89h2c.087 4.27.14 8.541.188 12.813l.076 3.681.029 3.526.048 3.253C958 115 958 115 956.48 116.873L955 118l.496-3.84c.584-5.253.617-10.443.567-15.722l-.014-2.768c-.012-2.223-.028-4.447-.049-6.67z" fill="#e1595c"/><path d="M1210 96c-3.62 1.316-6.096 2-10 2v2l2 1h-9l-1-2c5.161-2.526 12.435-5.783 18-3z" fill="#a8a8a8"/><path d="M897.86 51.902l3.378.01 3.512.026 3.559.013c2.897.012 5.794.028 8.691.049v1l-1.677.06c-14.28.481-14.28.481-28.323 2.94l1-3c3.193-1.282 6.458-1.115 9.86-1.098z" fill="#e66468"/><path d="M930 148c-3.745 3.745-7.983 3.69-13 4v8h6v1h-7v-11a785.48 785.48 0 0 1 5.875-1.563l3.305-.878C928 147 928 147 930 148z" fill="#e1595d"/><path d="M735 144c8.267-.237 15.92.187 24 2v1c-16.656.262-16.656.262-23-1l-1-2z" fill="#b9b9b9"/><path d="M1335 307v1l-3.465.402-4.473.536-2.287.263c-3.697.142-3.697.142-6.775 1.799-2.333.04-4.667.042-7 0 5.473-5.473 16.763-4.252 24-4z" fill="#cfa01d"/><path d="M876 93h1l1 21h-2c-1.11-3.33-1.133-5.872-1.125-9.375l-.008-3.398A42.22 42.22 0 0 1 876 93z" fill="#6fc89a"/><path d="M1191 877l3 2v2h-30v-1l26-1z" fill="#180100"/><path d="M897 42c3.5-.059 7-.094 10.5-.125l2.977-.05c5.882-.04 10.887.47 16.523 2.175v1c-1.48.027-2.958.046-4.438.063l-2.496.035C918 45 918 45 917 44a73.608 73.608 0 0 0-4.473-.316l-2.724-.127-2.866-.12-2.876-.13c-2.354-.107-4.707-.209-7.061-.307v-1z" fill="#e76065"/><path d="M1096 245c5.363 1.463 8.317 5.09 12 9 .975.983 1.954 1.963 2.938 2.938L1113 259l-1 2-16-16z" fill="#fc9a15"/><path d="M899 152h1v12c-7.625-.625-7.625-.625-11-4l10 1v-9z" fill="#fabdbf"/><path d="M902 149v17c-2.185-3.277-2.322-4.723-2.563-8.563-.176-3.864-.176-3.864-1.437-7.437 3-1 3-1 4-1z" fill="#fce6e6"/><path d="M479 143l1 2h12l-1 2h-14v-3z" fill="#c5c5c5"/><path d="M765 82l6 1v2l3.25.313c3.608.661 5.114 1.262 7.75 3.687-5.64-.495-9.959-1.378-15-4l-2-3z" fill="#777"/><path d="M1095 828c0 4.88-3.87 7.837-7.125 11.188L1086 841l-1.75 1.75L1083 844c1.306-5.118 3.316-7.761 7.125-11.375l2.758-2.648L1095 828z" fill="#e0ad1f"/><path d="M1080 68c5.083.477 9.047 2.911 13 6 2 2.813 2 2.813 3 5h-2l-2-3-3-1v-2l-6-2v-2l-3-1z" fill="#989898"/><path d="M874 53v2c-3.462 3-3.462 3-6 3l-2 4h-3c1.764-4.49 5.892-9 11-9z" fill="#e6595e"/><path d="M1549 769h17c-3.29 3.29-6.47 3.155-10.965 3.328C1553 772 1553 772 1549 769z" fill="#ce9e1c"/><path d="M901 88c1.958-.054 3.916-.093 5.875-.125l3.305-.07C913 88 913 88 915 90l-15 1 1-3z" fill="#b6d5ec"/><path d="M868 58l2 1-2 1v-2zm-6 4l4 1-4.59 3.613c-1.682 1.444-1.682 1.444-2.41 4.387h-2c1.25-3.46 2.675-6.147 5-9z" fill="#e13338"/><path d="M693 920l2 1c-4.91 3.927-7.74 4.432-14 4l-1 3-3-4 2.484-.367 3.266-.508 3.234-.492c2.97-.49 2.97-.49 5.282-1.766L693 920z" fill="#fa9214"/><path d="M831 106c2.856.985 3.97 1.958 5.75 4.438 1.719 4.898 1.497 9.423 1.25 14.562h-1l-.332-2.52-.48-3.293-.458-3.269c-.763-3.051-1.405-3.94-3.73-5.918-.688-2.188-.688-2.188-1-4z" fill="#a2a2a2"/><path d="M885 57l2 1a289.898 289.898 0 0 1-4.25 3.563l-2.39 2.003C878 65 878 65 875.702 64.715L874 64a700.574 700.574 0 0 1 3.813-2.938l2.144-1.652C882 58 882 58 885 57z" fill="#f8afb1"/><path d="M1307 327c1.675.286 3.344.618 5 1v1l-17 4v-2c3.54-2.124 6.95-2.465 11-3z" fill="#fc9b13"/><path d="M925 964h2v2l1.688.813c2.524 1.296 4.95 2.612 7.312 4.187v2l3 1-2 1c-10.644-6.93-10.644-6.93-12-11z" fill="#e2af22"/><path d="M356 753h2l.516 2.117.734 2.758.703 2.742c1.27 2.892 2.228 3.17 5.047 4.383l2 3c-4.449-1.36-6.519-3.064-9-7-.874-2.66-1.44-5.247-2-8z" fill="#dfac1f"/><path d="M1485 403c2.349 2.349 3.035 4.271 4.188 7.375l1.105 2.898c.72 2.78.692 4.078-.293 6.727-2.454-5.673-4.462-10.818-5-17z" fill="#e3af21"/><path d="M518 74c.924 2.507 1.169 3.6.11 6.105l-1.36 2.082-1.328 2.106C514 86 514 86 511 87c1.642-4.776 4.265-8.794 7-13z" fill="#949494"/><path d="M530 77l5 2-1 4-3-1h-3l2-5z" fill="#4b4b4b"/><path d="M897 43l-4 1v2c-2.75.917-4.36 1.109-7.188 1.063L882 47c4.903-3.268 9.132-4.28 15-4z" fill="#e76165"/><path d="M511 446h1v15l3 1-4 3v-19z" fill="#c31000"/><path d="M1100 144v1c-5.978 2.21-10.74 1.932-17 1v-1c5.71-.74 11.242-1.105 17-1z" fill="#656565"/><path d="M1227 382l1 2-1.813 2.188c-2.212 2.721-2.212 2.721-3.812 5.562C1221 394 1221 394 1219 395c1.59-5.09 4.745-8.875 8-13z" fill="#c81600"/><path d="M215 221l2 1c-4.625 5.875-4.625 5.875-8 7 1.27-3.914 2.512-5.79 6-8z" fill="#e2ac19"/><path d="M1076 216c4.5 1.068 8.75 2.14 13 4v1c-4.927.462-8.507-1.172-13-3v-2z" fill="#d5a41e"/><path d="M967 108h1c.218 5.439.104 9.87-2 15h-2l1-8h2v-7z" fill="#f8adaf"/><path d="M1096 972l12 3v3a319.501 319.501 0 0 1-4.313-1.313l-2.425-.738C1099 975 1099 975 1096 972z" fill="#d3a31d"/><path d="M1061 832c3.636 3.434 6.361 6.797 9 11l-1 2c-6.52-8.262-6.52-8.262-8-13z" fill="#deac22"/><path d="M707 617v2l-1.715.621-2.222.817-2.215.808c-1.831.608-1.831.608-2.848 1.754-1.666.04-3.334.043-5 0 3.707-3.244 8.975-6 14-6z" fill="#ca1c00"/><path d="M1161 413l10 10-1 2a420.912 420.912 0 0 1-3.938-3.75l-2.214-2.11c-1.853-2.146-2.456-3.375-2.848-6.14z" fill="#daa921"/><path d="M511 346h1v11l3 1-2 3h-2v-15z" fill="#c61200"/><path d="M177 223c5.9 5.59 5.9 5.59 7 9a63.06 63.06 0 0 1-1 4c-2.183-4.271-4.313-8.502-6-13z" fill="#d1a11f"/><path d="M927 141v2c-4.12 1.998-7.452 2.178-12 2v-2c1.625-.336 3.25-.668 4.875-1l2.742-.563C925 141 925 141 927 141z" fill="#cbf1dd"/><path d="M84 255c4.827 2.413 7.7 5.86 11 10-2.939-1.352-5.292-2.9-7.75-5l-1.86-1.563C84 257 84 257 84 255z" fill="#fd9e16"/><path d="M1406 217l2 1a105.022 105.022 0 0 1-4 5h-2l-1 4-2-1c4.143-6.429 4.143-6.429 7-9z" fill="#e7b220"/><path d="M897 112l2 1v11l-6-1 4-2v-9z" fill="#397db2"/><path d="M705 98v2l2 1c-6.055.195-6.055.195-8 0l-2-2c2.709-1.354 5.01-1.065 8-1z" fill="#a6a6a6"/><path d="M713 98l-1 3-7-1v-2c3.053-.981 4.947-.981 8 0z" fill="#303030"/><path d="M1190 409h1c.213 4.468-.409 7.823-2 12h-2c.508-4.318 1.197-8.033 3-12z" fill="#e2ae1f"/><path d="M1577 373h2l2.93 5.371c.984 1.795.984 1.795 3.07 2.629l-1 3c-2.956-2.752-5.116-5.42-7-9v-2z" fill="#fd9f1a"/><path d="M951 126l1 2c-1.25 2.563-1.25 2.563-3 5l-3 1c.542-3.796 2.201-5.472 5-8z" fill="#e76367"/><path d="M1487 517h2c-.282 1.46-.576 2.918-.875 4.375l-.492 2.46C1487 526 1487 526 1485 528v-6h2v-5z" fill="#ddaa1e"/><path d="M1457 360c3.192 2.416 5.747 4.68 8 8l-1 2a639.945 639.945 0 0 1-3.5-3.875l-1.969-2.18C1457 362 1457 362 1457 360z" fill="#dca91f"/><path d="M892 74v2l-1.938.813C887.67 77.886 887.67 77.886 887 81c-2.063.688-2.063.688-4 1 1.526-3.885 4.502-8 9-8z" fill="#90d9b4"/><path d="M952 61l4 1 1 5h2l-1 3v-2l-3-1c-3-3.444-3-3.444-3-6z" fill="#f5a7a9"/><path d="M1752 216c4.43 1.208 6.981 2.517 10 6l-10-3v-3z" fill="#d5a31e"/><path d="M1164 881l4 1-7 5v-4l3-2z" fill="#e2ad1d"/><path d="M916 114h1v8l4 1-5 2v-11z" fill="#2b73aa"/><path d="M1208 98h-3l1 3-6-1v-2c3.053-.981 4.947-.981 8 0z" fill="#353535"/><path d="M1310 432l2 1-6 6-2-1c3.75-4.875 3.75-4.875 6-6z" fill="#241301"/><path d="M881 156c4.557.438 7.577.85 11 4-4.056-.468-7.466-.88-11-3v-1z" fill="#ea7175"/><path d="M880 70v3c-2 1.688-2 1.688-4 3l-2-1c2.625-3.875 2.625-3.875 6-5z" fill="#43b57a"/></svg>