<svg height="297mm" viewBox="11.508 9.168 188.708 271.156" width="210mm" xmlns="http://www.w3.org/2000/svg"><g clip-rule="evenodd" fill-rule="evenodd" stroke-width=".819"><path d="m39.487 100.21c2.681 0 4.857-2.405 4.857-5.37s-2.176-5.37-4.857-5.37-4.856 2.404-4.856 5.37 2.174 5.37 4.856 5.37zm-7.83 22.531h-5.437s-1.842.267-2.658-.778c-.557-.713-.46-2.393-.46-2.393v-30.74c0-2.965-1.966-5.359-4.648-5.359s-4.837 2.236-4.837 5.201l-.045.158v30.739s-.483 5.527 3.423 9.986c3.66 4.18 8.425 3.703 8.425 3.703l6.396-.036s4.496-.344 4.496-5.28c-.002-4.935-4.655-5.2-4.655-5.2zm23.398 7.528c2.473 2.205 5.448 3.31 8.872 3.291 4.543-.03 8.948-2.63 11.622-6.833l.066-.028a18.446 18.446 0 0 0 1.703 2.276c1.781 2.04 5.82 4.995 11.793 4.717 5.252-.245 8.963-2.513 11.013-4.272.393 2.437 2.087 4.26 4.428 4.26 2.681 0 4.863-2.554 4.863-5.52v-11.967s.002-1.72.56-2.432c.539-.688 1.073-1.015 1.546-1.077l2.422.016v7.027s-.483 5.525 3.423 9.986c3.66 4.178 8.426 3.701 8.426 3.701l6.396-.034s2.266-.176 3.58-2.044c2.15 1.41 4.605 2.21 7.103 2.227 3.427.022 6.4-1.083 8.872-3.289l-.057.07.204.253s1.627 1.73 3.888 2.426c1.726.532 4.15.318 4.15.318 2.244-.006 4.265-1.466 4.866-3.675 2.456 2.08 5.47 3.285 8.55 3.304 3.386.022 6.334-1.056 8.803-3.215l.216.252s1.627 1.73 3.887 2.426c1.729.532 4.15.318 4.15.318 2.683-.009 5.059-2.089 5.053-5.054-.007-2.965-2.32-5.37-5.002-5.363l-.333-.053c-.496 0-1.179-.148-1.813-1.01-.471-.64-.376-2.345-.376-2.345l.006-30.983c0-2.965-1.968-5.402-4.651-5.403-2.68-.001-4.765 2.396-4.765 5.361v14.335a15.225 15.225 0 0 0 -5.455-1.017c-3.703-.01-7.44 2.001-10.113 5.219-2.428 2.925-3.675 7.048-3.675 10.775 0 2.018.342 3.948.965 5.723-.971-.055-1.767-.204-2.408-1.076-.473-.64-.375-2.345-.375-2.345l.006-12.122v-.133c0-2.966-1.969-5.404-4.652-5.404-1.346 0-2.543.605-3.4 1.583-2.067-1.067-4.426-1.623-6.818-1.63-8.462-.022-13.79 8.421-13.79 15.994 0 1.784.275 3.493.765 5.092h-2.975s-1.842.265-2.658-.78c-.556-.713-.46-2.392-.46-2.392l-.009-7.179 2.102.014c2.683-.007 4.844-2.04 4.838-5.005-.007-2.966-2.32-5.37-5.004-5.364l-1.936-.024.008-6.411c0-2.966-1.964-5.36-4.647-5.36s-4.838 2.236-4.838 5.201l-.044.159-.032 6.12-2.115.172s-4.71-.298-8.37 3.882a13.174 13.174 0 0 0 -2.111 3.32 10.536 10.536 0 0 0 -1.546-2.622c-1.238-1.52-4.775-4.504-10.719-4.26-5.417.223-9.405 2.205-11.799 4.991a19.034 19.034 0 0 0 -1.39 1.825l.001-.07c-2.778-4.826-7.32-7.321-11.648-7.31a15.263 15.263 0 0 0 -5.432 1.005l-.02-14.217c0-2.965-2.083-5.362-4.765-5.362s-4.652 2.436-4.652 5.402v30.874c.138 1.625-.701 3.448-2.584 3.4-1.867-.049-2.451-1.937-2.454-3.491v-11.96c0-2.966-2.18-5.518-4.862-5.518s-4.516 2.394-4.516 5.36l-.044.157v11.968s-.473 5.798 3.434 10.259c2.314 2.642 5.66 3.987 8.984 3.942 3.205-.045 6.019-1.242 7.75-3.352zm8.523-7.04c-2.804 0-4.545-2.421-4.717-4.826-.238-2.639 1.097-6.14 4.498-6.14 3.377 0 4.657 2.962 4.752 5.558.118 3.16-1.9 5.409-4.533 5.409zm20.325-3.874s-1.463-2.925 1.717-5.53c2.352-1.926 4.026-.712 4.026-.712-.439.055-6.101 6.24-5.743 6.242zm16.09-1.702v3.041c-.868-.473-1.775-.609-2.485-.643.891-.709 1.73-1.545 2.484-2.398zm42.994 5.55c-2.632 0-5.022-2.36-4.902-5.524.096-2.594 1.757-5.409 5.133-5.409 3.273.001 4.876 2.822 4.791 5.596-.083 2.69-1.752 5.338-5.022 5.338zm35.496-6.056c-.067 2.94-2.119 5.508-5.024 5.466-2.906-.045-5.01-2.647-4.902-5.525.108-2.877 1.833-5.41 5.133-5.409 3.301.001 4.86 2.53 4.793 5.468z" fill="#a00"/><path d="m91.712 125.5c1.828-.64 3.287-2.08 3.287-2.08s1.976-1.775 4.081-.09c1.73 1.382.248 3.636-.619 4.396a14.673 14.673 0 0 1 -7.492 3.474c-4.954.76-8.583-.113-12.011-4.071-2.284-2.639-3.048-5.638-3.146-8.259-.542 6.883-5.732 12.14-12.114 12.049-3.55-.05-6.125-1.41-8.438-3.98l-.434-.533c-.311.653-.621 1.258-1.087 1.82-3.584 4.318-10.468 3.63-13.909-.473-2.995-3.574-2.719-7.31-2.719-7.31s-.027-6.791-.027-12.91c0-1.037.428-3.083 2.575-3.083 1.888 0 2.487 2.102 2.487 3.14 0 1.153-.042 11.81-.042 11.81s-.044 3.346 1.446 4.73c2.071 1.923 5.046 1.762 6.968-.365 1.223-1.353 1.117-3.37 1.117-3.37s.038-5.001 0-7.83c0 0 .129 1.66 1.417 2.752 1.702 1.443 3.52.886 3.52.886-.057.42.057 1.439.057 1.566.114 4.176 3.262 7.769 6.897 7.783 3.708.017 6.944-3.321 6.888-7.77-.058-4.524-3.18-7.86-6.917-7.86-.974 0-3.006.507-4.436 1.994l-.229.253c-.41.453-1.05 1.275-1.975 1.518-1.803.474-3.118-1.054-2.947-2.69.085-.823.337-1.353.773-1.835l1.173-1.297c1.89-1.835 4.78-3.321 7.699-3.354 6.29-.068 11.985 5.386 12.293 12.551.07-.97.218-1.85.386-2.585.68-2.985 3.405-7.492 9.287-9.066s9.893.971 10.885 1.73c.991.76 2.76 2.599 2.779 5.484.016 2.62-2.172 4.598-2.172 4.598l-4.209 4.055s-1.038 1.134-1.698 1.495c-.66.363-2.52 1.686-4.21 0-1.968-1.961.518-3.86.518-3.86s4.87-4.873 5.118-5.118c.146-.143 1.009-1.07 1.009-1.07s-1-1.023-1.975-1.591c-1.315-.767-4.227-1.478-7.223.54-3.582 2.413-3.156 6.601-3.156 6.601s-.148 2.03 1.792 4.666c2.899 3.943 7.186 3.103 8.733 2.56zm39.412-7.82c.002-7.464 5.656-13.232 12.125-13.161 2.919.032 5.81 1.52 7.698 3.355l1.173 1.298c.437.483.687 1.014.772 1.835.172 1.637-1.144 3.164-2.948 2.69-.926-.244-1.564-1.067-1.974-1.52l-.23-.254c-1.43-1.487-3.462-1.98-4.434-1.994-4.35-.064-7.342 3.13-7.398 7.655-.06 4.45 2.93 8.013 7.366 7.977 3.635-.032 6.69-3.402 6.804-7.451 0 0 .115-1.02.059-1.442 0 0 1.815.558 3.519-.884 1.288-1.09 1.417-2.752 1.417-2.752-.038 2.83-.002 7.83-.002 7.83s.014 1.834 1.237 3.186c1.46 1.614 3.584 1.29 3.584 1.29h-.022c.94-.002 2.691.728 2.727 2.65.043 2.279-1.738 2.924-2.676 2.926 0 0-2.424.28-4.17-.544-1.623-.766-2.69-2.134-2.69-2.134-.286-.344-.496-.69-.714-1.037l-.372-.782-.435.532c-2.314 2.568-4.89 3.93-8.437 3.978-6.752.094-11.981-5.785-11.979-13.248zm-77.643-11.015c1.345-1.519 3.09-2.801 3.09-2.801-.026-6.06 0-12.505 0-14.982 0-2.278-1.55-3.084-2.49-3.084s-2.446.854-2.446 2.99v.198s-.021 12.022 0 20.74c0 0 .374-1.4 1.846-3.061zm-13.994-14.69c-1.43 0-2.59 1.283-2.59 2.865 0 1.581 1.16 2.863 2.59 2.863s2.59-1.282 2.59-2.863c0-1.582-1.16-2.864-2.59-2.864zm-18.66-3.227v31.64s-.186 2.19 1.06 3.52c1.433 1.532 3.326 1.288 3.326 1.288h5.838c3.928-.006 4.013 5.578-.003 5.557l-6.01.039s-4.554-.272-6.958-3.816c-2.235-3.293-2.175-6.462-2.175-6.462v-31.641c0-2.152 1.609-2.888 2.546-2.888.94.003 2.377 1.117 2.377 2.763zm132.495 17.925c-1.345-1.52-2.038-1.774-2.038-1.774.43-.285.5-.475 1.442-.475.937 0 2.445.855 2.445 2.99l-.002.199s.002-.198-.002 2.121c0 0-.373-1.399-1.845-3.061zm8.274 10.416c.002-7.464 5.658-13.232 12.125-13.16 2.918.032 5.809 1.52 7.698 3.356l1.173 1.297c.436.482.687 1.013.774 1.835.17 1.637-1.146 3.164-2.95 2.69-.926-.245-1.565-1.067-1.975-1.52l-.229-.254c-1.43-1.488-3.46-1.98-4.435-1.994-4.35-.064-7.342 3.13-7.398 7.655-.059 4.447 2.931 8.013 7.366 7.975 3.637-.03 6.69-3.4 6.805-7.451 0 0 .114-1.019.059-1.44 0 0 1.817.558 3.519-.884 1.287-1.092 1.416-2.753 1.416-2.753-.038 2.83-.002 7.832-.002 7.832s.015 1.833 1.237 3.186c1.46 1.613 3.584 1.29 3.584 1.29h-.02c.938-.005 2.689.727 2.725 2.65.042 2.276-1.739 2.923-2.677 2.925 0 0-2.424.277-4.17-.546-1.622-.764-2.689-2.133-2.689-2.133-.284-.343-.496-.69-.715-1.037l-.371-.782-.435.53c-2.312 2.57-4.888 3.93-8.437 3.98-6.75.094-11.98-5.783-11.978-13.247zm24.11-7.333s-.172-1.835-1.66-3.545c-.64-.736-1.544-1.644-3.245-2.808 0 0 .075-11.23-.074-15.48-.069-1.91 1.103-2.341 1.103-2.341.428-.285.5-.476 1.44-.476s2.445.855 2.445 2.992l-.002.197s.002-.197-.002 2.122zm-69.426.768v10.148s-.061 3.168 2.173 6.463c2.404 3.544 6.959 3.817 6.959 3.817l6.01-.038c4.017.02 3.932-5.566.004-5.557h-5.838s-1.892.24-3.328-1.29c-1.245-1.328-1.059-3.519-1.059-3.519v-10.023l.09-.379s2.65.04 4.055.037c.937-.003 2.789-.482 2.783-2.855-.004-2.089-1.907-2.746-2.847-2.743-.416.001-3.109.003-3.992-.007l-.089-.506v-8.393c0-1.645-1.435-2.76-2.375-2.76-.938 0-2.545.735-2.545 2.887v8.266l-.026.38-4.061.04s-3.992-.522-7.254 3.37c-2.995 3.573-2.719 7.31-2.719 7.31s-.027 6.79-.027 12.91c0 1.037.43 3.084 2.575 3.084 1.888 0 2.487-2.102 2.487-3.141 0-1.152-.04-11.81-.04-11.81s-.045-3.346 1.444-4.73c1.875-1.74 3.25-1.328 3.25-1.328l4.345-.01z" fill="#fff000"/></g><g stroke-width="7.728"><path d="m175.118 42.951c.197.022.918 0 1.137-.022a6.673 6.673 0 0 0 3.387-1.486c.262-.218.699-.633.918-.896.83-1.005 1.31-2.228 1.333-3.3 0-.196-.044-.24-.044-.24l-.088-.043-.218.13c-.546.372-1.246.569-2.01.569-.481 0-.83-.066-1.268-.219-1.224-.393-2.054-1.289-2.6-2.797-.503-1.398-.59-2.95-.197-4.13.197-.568.612-1.245.94-1.507.655-.547 1.923-.896 3.474-1.006.415-.021 1.377 0 1.77.044 1.355.131 2.295.415 2.95.918.984.743 1.486 1.748 1.66 3.3.045.415.045 1.748 0 2.338-.086.961-.152 1.551-.24 2.032-.284 1.42-.983 3.103-1.879 4.523-.065.11-.13.24-.13.24l.152.154s-.568.611 13.264-13.243c1.202-1.201 2.207-2.229 2.207-2.229.044-.065.044-.087-1.18-1.31-9.986-10.009-14.029-14.03-14.029-14.03-.087 0-.153.153-.153.153s.066.153.153.35c.853 1.617 1.53 3.606 1.705 4.917.175 1.464.218 2.95.11 3.89-.154 1.31-.635 2.272-1.443 2.971-.306.24-.568.394-.983.546-.46.175-1.093.328-1.727.416-.874.109-2.12.13-3.015.022-1.355-.153-2.339-.525-2.82-1.028-.24-.262-.414-.546-.59-.917-.699-1.42-.567-3.606.329-5.354.546-1.049 1.267-1.704 2.272-2.032.437-.153.787-.197 1.268-.197.786 0 1.485.197 2.054.59l.174.088.088-.044s.044-.044.044-.24c-.022-1.028-.481-2.23-1.268-3.213-.24-.284-.7-.743-.983-.983-1.005-.809-2.12-1.311-3.387-1.464-.306-.044-1.093-.044-1.377-.022a6.705 6.705 0 0 0 -2.404.765 7.183 7.183 0 0 0 -1.551 1.049c-.393.306-.962.896-1.311 1.333-2.032 2.534-3.3 6.577-3.606 11.537-.087 1.202-.11 3.169-.022 4.37.306 4.786 1.508 8.742 3.431 11.298.743.984 1.617 1.792 2.579 2.36a6.736 6.736 0 0 0 3.124 1.05z" fill="#000059"/><path d="m162.903 41.247c.437.437.525.459.525.459l.109-.044c.065-.087.087-.044-.262-.59-2.054-3.256-3.584-7.626-4.108-11.8a26.944 26.944 0 0 1 -.088-5.79c.372-4.087 1.573-7.977 3.43-11.19.285-.458.7-1.114.984-1.485.066-.11.11-.197.11-.197 0-.087-.066-.13-.154-.13 0 0-.13.043-1.922 1.835-1.006 1.027-4.48 4.501-7.714 7.735a651.398 651.398 0 0 0 -5.878 5.944v.087s1.049 1.093 3.103 3.147c.437.437 1.114 1.136 1.53 1.552.393.415 1.77 1.813 3.059 3.103 6.009 6.096 6.861 6.949 7.276 7.364z" fill="#d50000"/></g><path d="m16.165 37.737h-1.475v.797h1.399v1.051h-1.4v.823h1.476v1.051h-2.716v-4.773h2.716zm5.177-1.051v3.722h1.488v1.051h-2.73v-4.773zm10.395 4.773v-4.773h1.899q.804 0 1.266.392.468.386.468 1.178 0 1.62-1.69 1.62h-.703v1.583zm1.24-3.773v1.19h.475q.095-.006.235-.038.145-.032.215-.089.07-.057.12-.17.057-.114.057-.285 0-.178-.05-.292-.051-.12-.12-.183-.07-.063-.21-.089-.133-.031-.234-.038-.095-.006-.279-.006zm8.573 1.817 1.5 1.956h-1.544l-1.171-1.836h-.013v1.836h-1.24v-4.773h1.854q.747 0 1.203.367.456.367.456 1.101 0 .513-.279.887-.272.373-.766.462zm-1.228-1.868v1.19h.12q.861 0 .861-.595t-.86-.595zm8.944.102h-1.476v.797h1.4v1.051h-1.4v.823h1.476v1.051h-2.716v-4.773h2.716zm7.348-.937v1.487q-.19-.253-.48-.386-.286-.14-.609-.14-.563 0-.918.38-.354.38-.354.944 0 .57.354.937.361.36.937.36.304 0 .59-.132.284-.14.48-.374v1.488q-.722.222-1.095.222-1.02 0-1.792-.703-.766-.69-.766-1.804 0-1.026.703-1.748.355-.36.836-.563.48-.209.981-.209.55 0 1.133.24zm5.173-.114v4.773h-1.24v-4.773zm5.085.152q.602-.31 1.292-.31.69 0 1.291.31.602.303.975.873.374.57.374 1.273 0 1.158-.747 1.899-.74.734-1.893.734-1.152 0-1.9-.734-.74-.74-.74-1.9 0-.702.373-1.272.374-.57.975-.873zm2.242 1.272q-.4-.38-.95-.38-.55 0-.95.38-.399.38-.399.88 0 .608.393 1.02.392.404.956.404.563 0 .956-.405.392-.411.392-1.019 0-.5-.398-.88zm10.486 3.349.81-4.773h1.222l.969 2.55 1.026-2.55h1.234l.722 4.773h-1.241l-.348-2.748h-.013l-1.146 2.748h-.493l-1.096-2.748h-.012l-.4 2.748zm12.595-.829h-1.71l-.329.829h-1.316l1.835-4.773h1.355l1.798 4.773h-1.323zm-.336-.95-.506-1.52h-.013l-.513 1.52zm8.637-2.729-.494.963q-.38-.317-.823-.317-.196 0-.367.108-.165.108-.165.291 0 .127.102.228.107.101.196.14.095.037.253.088l.317.095q.557.165.867.468.31.298.31.836 0 .867-.493 1.285-.532.45-1.355.45-.9 0-1.678-.545l.532-1q.563.494 1.101.494.241 0 .418-.12.184-.127.184-.361 0-.323-.602-.5-.018-.007-.151-.045-.342-.095-.539-.177-.196-.082-.392-.228-.196-.152-.279-.38-.082-.228-.082-.563 0-.722.462-1.159.462-.443 1.184-.443.361 0 .766.108.412.107.728.285zm10.528 2.533v1.025h.361q.057 0 .209-.012.152-.013.221-.045.076-.031.171-.082.102-.057.14-.145.044-.095.044-.222 0-.095-.019-.171-.019-.076-.07-.127-.044-.05-.082-.088-.038-.045-.127-.063l-.126-.039q-.044-.018-.158-.025-.108-.006-.146-.006h-.292zm.671 1.975h-1.912v-4.773h1.773q1.418 0 1.418 1.24 0 .71-.526.975v.013q.975.127.975 1.216 0 .36-.145.626-.146.266-.399.418-.247.146-.544.215-.292.07-.64.07zm-.67-3.824v.925h.138q.304 0 .488-.095.183-.095.183-.368 0-.158-.063-.253-.057-.101-.177-.14-.12-.043-.222-.056-.101-.013-.26-.013zm9.139 2.995h-1.71l-.329.829h-1.316l1.836-4.773h1.354l1.798 4.773h-1.323zm-.336-.95-.506-1.52h-.013l-.512 1.52zm6.592-2.994h1.241v3.222q0 .779-.405 1.228-.405.45-1.177.45-.773 0-1.229-.703l.716-.753q.297.405.5.405.088 0 .152-.026.07-.031.101-.1.038-.07.057-.121.025-.05.032-.158.012-.108.012-.146v-.152zm6.295.152q.601-.31 1.291-.31t1.292.31q.601.303.975.873.373.57.373 1.273 0 1.158-.747 1.899-.74.734-1.893.734-1.152 0-1.899-.734-.74-.74-.74-1.9 0-.702.373-1.272.374-.57.975-.873zm2.241 1.272q-.399-.38-.95-.38-.55 0-.95.38-.398.38-.398.88 0 .608.393 1.02.392.404.955.404.564 0 .956-.405.393-.411.393-1.019 0-.5-.399-.88z" stroke-width=".313"/><path d="m16.171 138.696v5.473h2.187v1.545h-4.011v-7.018zm4.404.224q.884-.457 1.899-.457 1.014 0 1.898.456.885.447 1.434 1.285.549.837.549 1.87 0 1.704-1.098 2.793-1.09 1.08-2.783 1.08-1.694 0-2.793-1.08-1.089-1.09-1.089-2.792 0-1.034.55-1.871.549-.838 1.433-1.285zm3.295 1.87q-.587-.558-1.396-.558-.81 0-1.396.558-.587.559-.587 1.294 0 .893.577 1.498.577.596 1.406.596.828 0 1.405-.596.577-.605.577-1.498 0-.735-.586-1.294zm7.909-1.703-.726 1.415q-.559-.466-1.21-.466-.289 0-.54.158-.242.159-.242.429 0 .186.149.335.158.149.288.204.14.056.373.13l.465.14q.82.242 1.275.69.456.437.456 1.228 0 1.275-.726 1.89-.782.66-1.992.66-1.321 0-2.466-.8l.782-1.471q.828.726 1.62.726.353 0 .614-.177.27-.186.27-.53 0-.475-.885-.736l-.223-.065q-.503-.14-.791-.26-.289-.122-.577-.336-.289-.223-.41-.558-.12-.335-.12-.828 0-1.062.679-1.704.68-.651 1.74-.651.53 0 1.126.158.605.158 1.07.419zm3.927 6.627 1.192-7.018h1.796l1.424 3.75 1.508-3.75h1.815l1.061 7.018h-1.824l-.512-4.04h-.019l-1.684 4.04h-.726l-1.61-4.04h-.02l-.585 4.04zm13.556-5.473h-2.168v1.173h2.057v1.545h-2.057v1.21h2.168v1.545h-3.992v-7.018h3.993zm2.707-1.545h1.824v4.738q0 1.144-.595 1.805-.596.661-1.732.661-1.135 0-1.805-1.033l1.051-1.108q.438.596.736.596.13 0 .223-.037.102-.047.149-.15.056-.102.084-.176.037-.075.046-.233.019-.158.019-.214v-.223zm4.601.224q.884-.457 1.898-.457 1.015 0 1.899.456.884.447 1.433 1.285.55.837.55 1.87 0 1.704-1.099 2.793-1.089 1.08-2.783 1.08t-2.792-1.08q-1.089-1.09-1.089-2.792 0-1.034.55-1.871.548-.838 1.433-1.285zm3.294 1.87q-.586-.558-1.396-.558-.81 0-1.396.558-.586.559-.586 1.294 0 .893.577 1.498.577.596 1.405.596.829 0 1.406-.596.577-.605.577-1.498 0-.735-.587-1.294zm6.96 2.048 2.206 2.876h-2.271l-1.722-2.7h-.019v2.7h-1.824v-7.018h2.727q1.098 0 1.769.54.67.54.67 1.62 0 .753-.41 1.302-.4.55-1.126.68zm-1.806-2.746v1.75h.177q1.266 0 1.266-.875t-1.266-.875zm8.495.149h-2.168v1.173h2.057v1.545h-2.057v1.21h2.168v1.545h-3.993v-7.018h3.993zm5.713-1.154-.726 1.415q-.558-.466-1.21-.466-.288 0-.54.158-.242.159-.242.429 0 .186.15.335.157.149.288.204.14.056.372.13l.465.14q.82.242 1.276.69.456.437.456 1.228 0 1.275-.726 1.89-.782.66-1.992.66-1.322 0-2.467-.8l.782-1.471q.829.726 1.62.726.353 0 .614-.177.27-.186.27-.53 0-.475-.884-.736l-.224-.065q-.502-.14-.79-.26-.29-.122-.578-.336-.288-.223-.41-.558-.12-.335-.12-.828 0-1.062.679-1.704.68-.651 1.74-.651.531 0 1.127.158.605.158 1.07.419zm4.347 6.627v-7.018h2.792q1.182 0 1.862.577.688.568.688 1.731 0 2.383-2.485 2.383h-1.033v2.327zm1.824-5.547v1.75h.698q.14-.01.344-.057.215-.046.317-.13.102-.084.177-.251.084-.168.084-.419 0-.26-.075-.428-.074-.177-.177-.27-.102-.093-.307-.13-.195-.047-.344-.056-.14-.01-.41-.01zm7.95 2.671 2.206 2.876h-2.27l-1.723-2.7h-.018v2.7h-1.825v-7.018h2.727q1.099 0 1.769.54.67.54.67 1.62 0 .753-.41 1.302-.4.55-1.126.68zm-1.805-2.746v1.75h.176q1.266 0 1.266-.875t-1.266-.875zm8.495.149h-2.17v1.173h2.058v1.545h-2.057v1.21h2.169v1.545h-3.993v-7.018h3.993zm6.15-1.378v2.188q-.28-.373-.707-.568-.42-.205-.894-.205-.828 0-1.35.559-.52.558-.52 1.386 0 .838.52 1.378.53.53 1.378.53.447 0 .866-.195.418-.205.707-.549v2.187q-1.061.326-1.61.326-1.499 0-2.634-1.033-1.127-1.015-1.127-2.653 0-1.508 1.034-2.569.52-.53 1.228-.828.708-.307 1.443-.307.81 0 1.666.353zm2.952-.167v7.018h-1.824v-7.018zm2.822.224q.884-.457 1.899-.457 1.014 0 1.899.456.884.447 1.433 1.285.55.837.55 1.87 0 1.704-1.1 2.793-1.088 1.08-2.782 1.08t-2.792-1.08q-1.09-1.09-1.09-2.792 0-1.034.55-1.871.549-.838 1.433-1.285zm3.295 1.87q-.586-.558-1.396-.558-.81 0-1.396.558-.587.559-.587 1.294 0 .893.577 1.498.578.596 1.406.596t1.405-.596q.577-.605.577-1.498 0-.735-.586-1.294zm7.909-1.703-.726 1.415q-.558-.466-1.21-.466-.289 0-.54.158-.242.159-.242.429 0 .186.15.335.157.149.288.204.14.056.372.13l.465.14q.82.242 1.275.69.457.437.457 1.228 0 1.275-.726 1.89-.782.66-1.992.66-1.322 0-2.467-.8l.782-1.471q.828.726 1.62.726.353 0 .614-.177.27-.186.27-.53 0-.475-.884-.736l-.224-.065q-.502-.14-.791-.26-.289-.122-.577-.336-.289-.223-.41-.558-.12-.335-.12-.828 0-1.062.679-1.704.68-.651 1.74-.651.53 0 1.127.158.605.158 1.07.419zm7.139 1.154v5.473h-1.824v-5.473h-1.508v-1.545h4.84v1.545zm3.799-1.321q.884-.457 1.899-.457 1.015 0 1.899.456.884.447 1.433 1.285.55.837.55 1.87 0 1.704-1.099 2.793-1.089 1.08-2.783 1.08t-2.792-1.08q-1.09-1.09-1.09-2.792 0-1.034.55-1.871.549-.838 1.433-1.285zm3.295 1.87q-.586-.558-1.396-.558-.81 0-1.396.558-.587.559-.587 1.294 0 .893.578 1.498.577.596 1.405.596.828 0 1.405-.596.578-.605.578-1.498 0-.735-.587-1.294zm3.33 4.924v-7.018h2.587q1.47 0 2.513 1.024 1.052 1.014 1.052 2.485 0 1.47-1.052 2.494-1.042 1.015-2.513 1.015zm1.824-5.473v3.928h.41q.874 0 1.442-.493.577-.494.577-1.471 0-.922-.549-1.443t-1.452-.521zm6.804-1.321q.884-.457 1.898-.457 1.015 0 1.899.456.884.447 1.433 1.285.55.837.55 1.87 0 1.704-1.099 2.793-1.089 1.08-2.783 1.08t-2.792-1.08q-1.089-1.09-1.089-2.792 0-1.034.55-1.871.548-.838 1.433-1.285zm3.294 1.87q-.586-.558-1.396-.558-.81 0-1.396.558-.586.559-.586 1.294 0 .893.577 1.498.577.596 1.405.596.829 0 1.406-.596.577-.605.577-1.498 0-.735-.587-1.294zm10.522-.549h-2.168v1.173h2.057v1.545h-2.057v1.21h2.168v1.545h-3.993v-7.018h3.993zm2.958-1.545v5.473h2.188v1.545h-4.012v-7.018zm10.275 5.799h-2.513l-.484 1.219h-1.936l2.7-7.018h1.991l2.643 7.018h-1.945zm-.493-1.397-.745-2.233h-.019l-.754 2.233zm3.464 2.616v-7.018h1.825l3.341 4.29h.019v-4.29h1.824v7.018h-1.824l-3.342-4.3h-.018v4.3zm2.42-7.698h-.763l-.01-.102q0-.484.206-.828.307-.522.828-.522.251 0 .791.159.55.158.726.158.158 0 .233-.075.074-.083.14-.26h.79q-.046.577-.353 1.024-.307.446-.856.446-.242 0-.726-.167-.475-.177-.69-.177-.102 0-.176.065-.065.056-.084.103-.018.046-.056.177zm7.408.904q.884-.457 1.899-.457 1.014 0 1.899.456.884.447 1.433 1.285.55.837.55 1.87 0 1.704-1.1 2.793-1.088 1.08-2.782 1.08t-2.793-1.08q-1.089-1.09-1.089-2.792 0-1.034.55-1.871.549-.838 1.433-1.285zm3.295 1.87q-.586-.558-1.396-.558-.81 0-1.396.558-.587.559-.587 1.294 0 .893.577 1.498.577.596 1.406.596.828 0 1.405-.596.577-.605.577-1.498 0-.735-.586-1.294z" fill="#a00" stroke-width=".46"/><g fill="#000059" stroke-width="1.258"><path d="m11.508 23.085c0 1.195.178 2.416.56 3.637s.915 2.212 1.627 3c1.501 1.603 3.561 2.417 6.18 2.417 1.196 0 2.315-.204 3.358-.585s1.907-1.018 2.62-1.908c.711-.864 1.067-1.907 1.067-3.128 0-.814-.203-1.475-.584-1.984-.407-.483-1.018-.737-1.806-.737-.738 0-1.246.229-1.552.712-.229.33-.33.865-.33 1.551 0 .458-.026.814-.102 1.094s-.254.534-.534.788c-.407.382-1.068.585-1.958.585-1.247 0-2.188-.432-2.773-1.297s-.89-2.263-.89-4.196c0-2.035.28-3.484.865-4.35.56-.864 1.45-1.296 2.67-1.296.992 0 1.73.254 2.162.788.23.28.356.509.407.712.051.23.077.534.051.967-.05 1.348.585 2.009 1.933 2.009.585 0 1.068-.153 1.5-.483.433-.306.636-.738.636-1.272 0-.229-.025-.585-.102-1.043a6.368 6.368 0 0 1 -.101-1.017c0-.28.025-.712.101-1.297.077-.56.102-.992.102-1.272 0-.483-.152-.864-.458-1.17-.305-.305-.686-.457-1.17-.457-.508 0-.915.152-1.22.457-.305.331-.433.713-.356 1.196l-.051.05c-1.094-1.195-2.543-1.805-4.35-1.805-1.194 0-2.339.254-3.407.788s-1.908 1.272-2.543 2.238c-1.043 1.577-1.552 3.688-1.552 6.308zm21.608-1.857c0-.381.28-.585.84-.585.458 0 .864.127 1.22.356.331.255.51.61.51 1.068 0 .61-.28 1.069-.815 1.348s-1.195.484-1.958.585a33.84 33.84 0 0 0 -2.314.458c-.789.204-1.45.61-1.984 1.246s-.814 1.5-.814 2.62c0 1.22.432 2.162 1.323 2.823s1.958.992 3.204.992c1.755 0 3.205-.534 4.35-1.628.203.56.584.966 1.118 1.22.534.28 1.12.408 1.78.408.687 0 1.297-.153 1.832-.484.534-.33.788-.813.788-1.475 0-.381-.102-.737-.33-1.017s-.56-.407-.942-.407c-.076 0-.178 0-.305.026s-.229.025-.305.025c-.28 0-.432-.407-.432-1.195v-4.782c0-1.042-.102-1.882-.331-2.492-.229-.585-.661-1.068-1.297-1.424-.89-.509-2.264-.763-4.12-.763s-3.23.28-4.146.864c-.94.585-1.399 1.323-1.399 2.188 0 .635.23 1.144.687 1.551.458.432 1.017.636 1.653.636.585 0 1.12-.153 1.552-.458.432-.28.635-.712.635-1.246zm2.57 5.316c0 1.602-.738 2.39-2.239 2.39-.966 0-1.45-.407-1.45-1.195 0-.382.255-.687.763-.865.484-.178 1.069-.305 1.704-.432.636-.102 1.043-.255 1.221-.458zm12.858-6.918c0-.433-.05-.738-.178-.89-.127-.127-.33-.204-.61-.204-.204 0-.483.051-.84.127-.381.077-.66.128-.839.128-.152 0-.407-.051-.788-.128-.382-.076-.687-.127-.967-.127-.407 0-.712.153-.94.483s-.331.763-.331 1.272c0 .967.381 1.45 1.119 1.45.127 0 .28-.026.458-.102a1.62 1.62 0 0 1 .381-.076c.178 0 .28.101.356.33.076.23.102.712.102 1.45v3.662c0 .484-.026.865-.051 1.12-.025.28-.076.457-.127.533-.076.077-.153.128-.28.128a.782.782 0 0 1 -.203-.051c-.077-.026-.153-.051-.178-.051l-.458-.077c-.738 0-1.12.484-1.12 1.45 0 .509.103.916.331 1.246s.535.509.941.509c.306 0 .789-.05 1.425-.127.635-.077 1.093-.127 1.424-.127s.865.05 1.602.127c.738.076 1.348.127 1.831.127.407 0 .712-.178.941-.509.23-.33.331-.737.331-1.246 0-.966-.382-1.45-1.12-1.45-.152 0-.304.026-.457.077a1.048 1.048 0 0 1 -.381.101c-.178 0-.28-.127-.356-.356-.077-.228-.102-.712-.102-1.424s.025-1.322.076-1.831c.026-.509.127-1.119.305-1.806.178-.686.484-1.22.916-1.602.432-.356.966-.509 1.628-.458-.204.407-.306.738-.306.992 0 .483.178.89.535 1.195.33.306.763.458 1.246.458.661 0 1.195-.254 1.602-.737.381-.484.585-1.068.585-1.755 0-.89-.33-1.653-.992-2.264-.661-.61-1.45-.915-2.365-.915-1.094 0-1.984.28-2.696.839-.738.585-1.195 1.373-1.399 2.416h-.05v-1.907zm13.859 0c0-.433-.05-.738-.178-.89-.127-.127-.33-.204-.61-.204-.204 0-.484.051-.84.127-.381.077-.66.128-.839.128-.153 0-.407-.051-.788-.128-.382-.076-.687-.127-.967-.127-.407 0-.712.153-.94.483-.23.331-.331.763-.331 1.272 0 .967.381 1.45 1.119 1.45.127 0 .28-.026.457-.102a1.62 1.62 0 0 1 .382-.076c.178 0 .28.101.356.33.076.23.102.712.102 1.45v3.662c0 .484-.026.865-.051 1.12-.026.28-.076.457-.127.533-.077.077-.153.128-.28.128a.782.782 0 0 1 -.204-.051c-.076-.026-.152-.051-.178-.051l-.457-.077c-.738 0-1.12.484-1.12 1.45 0 .509.102.916.331 1.246s.534.509.941.509c.305 0 .789-.05 1.425-.127.635-.077 1.093-.127 1.424-.127s.864.05 1.602.127c.738.076 1.348.127 1.831.127.407 0 .712-.178.941-.509.229-.33.33-.737.33-1.246 0-.966-.38-1.45-1.118-1.45-.153 0-.305.026-.458.077a1.048 1.048 0 0 1 -.382.101c-.178 0-.28-.127-.356-.356-.076-.228-.101-.712-.101-1.424s.025-1.322.076-1.831c.025-.509.127-1.119.305-1.806.178-.686.483-1.22.916-1.602.432-.356.966-.509 1.627-.458-.203.407-.305.738-.305.992 0 .483.178.89.534 1.195.331.306.763.458 1.247.458.66 0 1.195-.254 1.602-.737.381-.484.585-1.068.585-1.755 0-.89-.33-1.653-.992-2.264s-1.45-.915-2.365-.915c-1.094 0-1.984.28-2.696.839-.738.585-1.196 1.373-1.399 2.416h-.05v-1.907zm19.073 6.231c.737 0 1.195-.102 1.398-.33.178-.23.28-.637.28-1.272 0-1.908-.534-3.383-1.602-4.477s-2.569-1.627-4.527-1.627c-2.035 0-3.662.661-4.858 1.983-1.195 1.348-1.806 3.027-1.806 5.087 0 2.086.61 3.764 1.832 5.01 1.22 1.272 2.874 1.908 4.934 1.908 1.627 0 3-.356 4.12-1.068 1.119-.713 1.678-1.552 1.678-2.544 0-.483-.152-.89-.483-1.17s-.763-.432-1.272-.432c-.432 0-.737.05-.966.178-.229.127-.56.407-.967.84-.356.38-.686.66-.966.788-.28.127-.661.203-1.094.203-.737 0-1.373-.254-1.856-.737-.509-.484-.763-1.069-.763-1.806 0-.229.05-.356.127-.432.076-.077.28-.102.61-.102h6.18zm-5.723-2.823c-.407 0-.686-.026-.84-.077-.152-.025-.228-.127-.228-.28 0-.355.254-.711.738-1.093a2.531 2.531 0 0 1 1.627-.56c.585 0 1.068.153 1.4.484s.508.712.508 1.093c0 .153-.026.255-.102.331s-.254.102-.534.102zm10.44 3.967c0 .687-.025 1.145-.076 1.4-.077.253-.204.38-.382.38-.05 0-.178-.025-.381-.101a3.796 3.796 0 0 0 -.458-.076c-.738 0-1.12.483-1.12 1.45 0 .508.128.915.357 1.245s.585.51 1.043.51c.228 0 .66-.052 1.297-.128.635-.076 1.119-.127 1.475-.127.33 0 .864.05 1.551.127.687.076 1.22.127 1.602.127.51 0 .89-.153 1.145-.483.229-.33.356-.738.356-1.272 0-.966-.382-1.45-1.12-1.45-.024 0-.177.026-.431.077a1.038 1.038 0 0 1 -.407.102c-.178 0-.306-.102-.356-.331-.077-.229-.102-.712-.102-1.45v-4.654c0-.381.025-.636.102-.788.076-.127.203-.204.432-.204.89 0 1.45-.101 1.73-.305.28-.178.406-.585.406-1.17 0-.508-.127-.865-.356-1.068s-.712-.305-1.45-.305c-.432 0-.66-.026-.737-.102-.076-.076-.127-.305-.127-.712 0-.966.432-1.45 1.271-1.45.179 0 .357.026.51.102-.153.254-.23.483-.23.687 0 .432.178.788.534 1.068s.763.432 1.196.432c.56 0 1.017-.178 1.373-.56.356-.38.534-.839.534-1.424 0-.966-.509-1.729-1.526-2.263-.687-.356-1.577-.534-2.62-.534-1.373 0-2.543.33-3.484.966-.966.662-1.475 1.653-1.526 2.95-.025.382-.076.636-.152.713-.102.076-.382.127-.865.127-.509 0-.865.127-1.094.356-.228.229-.33.61-.33 1.144s.127.89.381 1.068c.23.179.636.28 1.17.28.407 0 .661.051.738.127.076.102.127.382.127.865z"/><path d="m100.035 18.15c-2.161 0-3.84.611-5.01 1.857-1.17 1.247-1.755 2.95-1.755 5.138 0 2.212.585 3.916 1.755 5.137 1.17 1.246 2.849 1.857 5.036 1.857 2.162 0 3.79-.636 4.908-1.933 1.12-1.297 1.679-3.027 1.679-5.214 0-2.06-.585-3.738-1.755-4.985-1.17-1.246-2.797-1.856-4.858-1.856zm-.076 3.205c1.653 0 2.493 1.272 2.493 3.79 0 1.042-.178 1.933-.56 2.696-.356.737-1.043 1.093-2.06 1.093-.636 0-1.17-.305-1.653-.89s-.712-1.551-.712-2.9c0-1.296.254-2.263.737-2.873s1.068-.916 1.755-.916zm13.265-1.678c0-.407-.026-.712-.102-.89-.077-.178-.255-.255-.56-.255-.203 0-.483.051-.839.127-.381.077-.687.128-.966.128s-.687-.051-1.17-.128c-.484-.076-.865-.127-1.145-.127-1.093 0-1.628.585-1.628 1.755 0 .967.382 1.45 1.12 1.45.101 0 .254-.026.457-.102l.382-.076c.102 0 .178.025.254.101.05.077.102.255.153.535.025.28.05.66.05 1.144v4.705c0 1.297.382 2.289 1.12 3.001.737.738 1.78 1.094 3.077 1.094.89 0 1.73-.204 2.569-.585.814-.382 1.45-.916 1.907-1.603h.051v1.018c0 .229.076.407.229.585s.382.254.687.254c.152 0 .407-.05.788-.127.356-.076.636-.127.814-.127s.483.05.89.127c.382.076.687.127.916.127.508 0 .89-.153 1.144-.483.23-.33.356-.738.356-1.272 0-.966-.381-1.45-1.119-1.45-.127 0-.254.026-.432.077-.178.076-.33.102-.407.102-.305 0-.458-.585-.458-1.78v-7.63c0-.306-.05-.535-.152-.662-.128-.127-.331-.178-.662-.178-.203 0-.483.051-.864.127-.382.077-.713.128-.941.128-.28 0-.636-.051-1.12-.128-.483-.076-.839-.127-1.119-.127-1.042 0-1.55.585-1.55 1.755 0 .967.38 1.45 1.118 1.45.102 0 .254-.026.458-.102l.381-.076c.178 0 .28.127.356.356.077.254.102.737.102 1.424v1.755c0 1.144-.203 2.034-.585 2.62-.432.686-1.043 1.017-1.83 1.017-.611 0-1.095-.255-1.425-.789-.204-.33-.305-.992-.305-1.933zm16.933-.051c0-.433-.05-.738-.178-.89-.127-.127-.33-.204-.61-.204-.204 0-.483.051-.84.127-.38.077-.66.128-.839.128-.152 0-.407-.051-.788-.128-.382-.076-.687-.127-.967-.127-.406 0-.712.153-.94.483-.23.331-.331.763-.331 1.272 0 .967.381 1.45 1.119 1.45.127 0 .28-.026.458-.102a1.62 1.62 0 0 1 .381-.076c.178 0 .28.101.356.33.077.23.102.712.102 1.45v3.662c0 .484-.025.865-.05 1.12-.026.28-.077.457-.128.533-.076.077-.153.128-.28.128a.782.782 0 0 1 -.203-.051c-.077-.026-.153-.051-.178-.051l-.458-.077c-.738 0-1.12.484-1.12 1.45 0 .509.103.916.332 1.246s.534.509.94.509c.306 0 .789-.05 1.425-.127s1.093-.127 1.424-.127.865.05 1.602.127c.738.076 1.348.127 1.831.127.407 0 .713-.178.941-.509.23-.33.331-.737.331-1.246 0-.966-.381-1.45-1.119-1.45-.153 0-.305.026-.458.077a1.048 1.048 0 0 1 -.381.101c-.178 0-.28-.127-.356-.356-.077-.228-.102-.712-.102-1.424s.025-1.322.076-1.831c.026-.509.127-1.119.305-1.806.179-.686.484-1.22.916-1.602.432-.356.967-.509 1.628-.458-.204.407-.305.738-.305.992 0 .483.178.89.534 1.195.33.306.763.458 1.246.458.661 0 1.195-.254 1.602-.737.382-.484.585-1.068.585-1.755 0-.89-.33-1.653-.992-2.264-.661-.61-1.45-.915-2.365-.915-1.094 0-1.984.28-2.696.839-.737.585-1.195 1.373-1.399 2.416h-.05v-1.907z"/></g><path d="m90.398 60.045v-5.466h4.53v5.466h5.466v4.53h-5.466v5.496h-4.53v-5.496h-5.465v-4.53zm0 103.419v-5.466h4.53v5.466h5.466v4.53h-5.466v5.496h-4.53v-5.496h-5.465v-4.53z"/><path d="m17.088 229.737h1.01v-3.153h2.319c.74 0 1.29-.214 1.656-.644.363-.431.545-.934.545-1.514 0-.672-.203-1.193-.609-1.567-.407-.373-.939-.56-1.597-.56h-3.324zm4.506-5.297c0 .485-.14.824-.42 1.01-.277.194-.643.291-1.089.291h-1.986v-2.56h1.986c.384 0 .687.052.907.157.402.195.602.564.602 1.102m2.436 5.297h1.012v-3.189h2.218c.399 0 .692.045.875.136.328.164.502.491.527.979l.055 1.239c.013.286.028.487.047.587.017.1.045.182.075.248h1.25v-.169c-.156-.065-.263-.216-.324-.452a3.158 3.158 0 0 1 -.071-.628l-.034-1.002c-.018-.433-.102-.745-.251-.938-.147-.197-.37-.351-.661-.467.333-.171.59-.398.778-.685.183-.282.275-.647.275-1.091 0-.853-.342-1.436-1.026-1.755-.36-.166-.816-.25-1.372-.25h-3.373zm1.012-4.034v-2.522h2.374c.331 0 .597.052.796.152.369.191.554.548.554 1.074 0 .49-.131.827-.397 1.016-.265.186-.627.28-1.08.28zm6.438-3.403h5.414v.917h-4.427v2.25h4.095v.853h-4.095v2.536h4.485v.881h-5.472zm12.072.546c.517.496.802 1.06.857 1.694h-.985c-.11-.483-.326-.863-.654-1.139-.325-.282-.783-.421-1.368-.421-.72 0-1.298.255-1.745.77-.44.512-.66 1.3-.66 2.359 0 .87.202 1.577.597 2.114.396.542.992.81 1.78.81.728 0 1.279-.281 1.658-.85.198-.301.351-.693.45-1.185h.99c-.09.784-.374 1.442-.863 1.972-.58.637-1.365.956-2.355.956-.854 0-1.568-.26-2.149-.783-.761-.692-1.144-1.762-1.144-3.203 0-1.095.29-1.997.86-2.698.621-.76 1.478-1.144 2.57-1.144.93 0 1.65.252 2.161.748m2.455-.546h1.022v7.437h-1.022zm5.862-.201c-1.256 0-2.202.46-2.842 1.375-.5.715-.752 1.576-.752 2.582 0 1.11.295 2.033.879 2.76.653.755 1.554 1.133 2.694 1.133 1.226 0 2.167-.433 2.83-1.293.564-.738.844-1.658.844-2.766 0-1.027-.247-1.87-.74-2.525-.63-.845-1.6-1.266-2.913-1.266m.095 6.958c-.935 0-1.608-.283-2.027-.85-.416-.562-.622-1.259-.622-2.085 0-1.029.24-1.81.727-2.336.484-.53 1.113-.794 1.881-.794.794 0 1.422.263 1.877.801.457.533.686 1.238.686 2.113 0 .828-.2 1.56-.595 2.199-.395.633-1.038.952-1.927.952m5.422-1.727c.025.426.118.77.284 1.035.326.496.892.74 1.703.74.363 0 .693-.053.991-.162.578-.21.867-.586.867-1.125 0-.408-.125-.697-.37-.87-.248-.168-.635-.314-1.164-.441l-.972-.228c-.639-.146-1.092-.31-1.354-.491-.458-.31-.684-.775-.684-1.39 0-.669.224-1.217.673-1.643.452-.43 1.09-.642 1.913-.642.756 0 1.402.186 1.933.563.532.377.795.976.795 1.804h-.95c-.047-.4-.151-.705-.31-.92-.296-.389-.794-.58-1.5-.58-.571 0-.98.125-1.232.374-.245.252-.374.542-.374.872 0 .364.148.632.445.799.194.109.63.244 1.307.407l1.016.237c.487.116.861.273 1.125.471.46.346.69.852.69 1.511 0 .822-.295 1.412-.877 1.765-.584.356-1.263.533-2.038.533-.9 0-1.606-.237-2.118-.71-.512-.47-.761-1.102-.75-1.908zm9.098 2.407h3.162c.985 0 1.704-.293 2.154-.872.302-.391.453-.824.453-1.302 0-.571-.168-1.02-.503-1.343-.188-.185-.474-.348-.857-.492a1.98 1.98 0 0 0 .602-.433c.266-.302.401-.687.401-1.153a1.8 1.8 0 0 0 -.327-1.064c-.369-.519-.995-.778-1.869-.778h-3.216zm.987-.858v-2.63h2.014c.426 0 .767.053 1.028.157.484.197.73.57.73 1.11 0 .32-.083.598-.25.825-.268.36-.711.538-1.334.538zm0-3.437v-2.296h1.814c.444 0 .778.046 1.004.142.398.168.596.493.596.978 0 .478-.189.813-.561 1-.238.118-.574.176-1.002.176zm5.318 4.295h1.032l.802-2.226h2.918l.771 2.226h1.102l-2.695-7.437h-1.136zm2.134-3.044 1.188-3.287 1.142 3.287zm9.061.822c0 .626-.096 1.114-.282 1.46-.344.632-1 .95-1.959.95-.558 0-1.033-.15-1.428-.452-.395-.3-.59-.838-.59-1.61v-.532h.95v.532c0 .405.091.708.268.913.181.203.463.307.84.307.537 0 .885-.186 1.05-.553.1-.225.152-.65.152-1.281v-4.95h.999zm4.736-5.416c-1.255 0-2.2.46-2.84 1.375-.503.715-.75 1.576-.75 2.582 0 1.11.294 2.033.878 2.76.652.755 1.55 1.133 2.692 1.133 1.224 0 2.168-.433 2.83-1.293.563-.738.846-1.658.846-2.766 0-1.027-.248-1.87-.737-2.525-.633-.845-1.604-1.266-2.918-1.266m.099 6.958c-.938 0-1.613-.283-2.03-.85-.418-.562-.623-1.259-.623-2.085 0-1.029.242-1.81.73-2.336.482-.53 1.112-.794 1.884-.794.79 0 1.417.263 1.873.801.455.533.685 1.238.685 2.113 0 .828-.196 1.56-.594 2.199-.396.633-1.037.952-1.925.952m5.42-1.727c.023.426.12.77.288 1.035.32.496.888.74 1.698.74.362 0 .693-.053.993-.162.574-.21.862-.586.862-1.125 0-.408-.123-.697-.365-.87-.248-.168-.64-.314-1.166-.441l-.975-.228c-.637-.146-1.085-.31-1.35-.491-.46-.31-.686-.775-.686-1.39 0-.669.225-1.217.675-1.643.45-.43 1.088-.642 1.911-.642.758 0 1.404.186 1.936.563.53.377.795.976.795 1.804h-.952c-.046-.4-.154-.705-.311-.92-.294-.389-.794-.58-1.502-.58-.567 0-.98.125-1.226.374a1.2 1.2 0 0 0 -.375.872c0 .364.145.632.441.799.193.109.629.244 1.314.407l1.01.237c.487.116.861.273 1.128.471.456.346.686.852.686 1.511 0 .822-.29 1.412-.874 1.765-.588.356-1.264.533-2.037.533-.903 0-1.609-.237-2.118-.71-.51-.47-.762-1.102-.753-1.908zm14.354-5.03v.88h-2.511v6.557h-1.027v-6.556h-2.505v-.881zm3.942-.201c-1.256 0-2.205.46-2.843 1.375-.498.715-.747 1.576-.747 2.582 0 1.11.29 2.033.876 2.76.654.755 1.551 1.133 2.694 1.133 1.222 0 2.167-.433 2.832-1.293.56-.738.844-1.658.844-2.766 0-1.027-.25-1.87-.743-2.525-.627-.845-1.602-1.266-2.913-1.266m.098 6.958c-.937 0-1.612-.283-2.031-.85-.414-.562-.621-1.259-.621-2.085 0-1.029.241-1.81.728-2.336.487-.53 1.113-.794 1.884-.794.792 0 1.418.263 1.873.801.46.533.687 1.238.687 2.113 0 .828-.2 1.56-.596 2.199-.396.633-1.035.952-1.924.952m4.798.68h2.96c1.255 0 2.14-.565 2.656-1.692.292-.637.44-1.35.44-2.14 0-1.02-.25-1.857-.742-2.515-.557-.726-1.338-1.09-2.347-1.09h-2.967zm1.025-.858v-5.698h1.738c.791 0 1.367.255 1.724.762.355.51.532 1.223.532 2.142 0 .239-.025.499-.073.779-.085.467-.223.853-.42 1.154-.24.371-.553.624-.937.752-.212.072-.482.11-.813.11zm9.623-6.78c-1.255 0-2.205.46-2.842 1.375-.502.715-.75 1.576-.75 2.582 0 1.11.291 2.033.874 2.76.656.755 1.554 1.133 2.695 1.133 1.225 0 2.168-.433 2.827-1.293.568-.738.848-1.658.848-2.766 0-1.027-.247-1.87-.739-2.525-.633-.845-1.6-1.266-2.914-1.266m.095 6.958c-.934 0-1.612-.283-2.027-.85-.417-.562-.624-1.259-.624-2.085 0-1.029.245-1.81.73-2.336.488-.53 1.113-.794 1.884-.794.791 0 1.417.263 1.873.801.46.533.685 1.238.685 2.113 0 .828-.197 1.56-.593 2.199-.397.633-1.04.952-1.928.952m5.423-1.727c.025.426.119.77.288 1.035.32.496.886.74 1.698.74.363 0 .692-.053.992-.162.575-.21.862-.586.862-1.125 0-.408-.121-.697-.363-.87-.248-.168-.637-.314-1.166-.441l-.975-.228c-.638-.146-1.086-.31-1.351-.491-.457-.31-.686-.775-.686-1.39 0-.669.223-1.217.675-1.643.45-.43 1.089-.642 1.913-.642.755 0 1.404.186 1.933.563.532.377.8.976.8 1.804h-.956c-.048-.4-.152-.705-.31-.92-.293-.389-.795-.58-1.504-.58-.569 0-.976.125-1.226.374-.25.252-.373.542-.373.872 0 .364.147.632.44.799.194.109.628.244 1.314.407l1.01.237c.486.116.863.273 1.127.471.46.346.686.852.686 1.511 0 .822-.29 1.412-.874 1.765-.588.356-1.265.533-2.036.533-.904 0-1.611-.237-2.119-.71-.509-.47-.76-1.102-.749-1.908zm9.124-5.03h1.018v6.556h3.713v.881h-4.73zm8.971-.201c-1.254 0-2.202.46-2.843 1.375-.5.715-.748 1.576-.748 2.582 0 1.11.29 2.033.874 2.76.655.755 1.551 1.133 2.695 1.133 1.224 0 2.167-.433 2.83-1.293.561-.738.846-1.658.846-2.766 0-1.027-.249-1.87-.74-2.525-.632-.845-1.601-1.266-2.914-1.266m.095 6.958c-.933 0-1.611-.283-2.025-.85-.418-.562-.629-1.259-.629-2.085 0-1.029.243-1.81.73-2.336.487-.53 1.115-.794 1.884-.794.793 0 1.418.263 1.877.801.456.533.685 1.238.685 2.113 0 .828-.2 1.56-.595 2.199-.396.633-1.04.952-1.927.952m5.423-1.727c.022.426.118.77.287 1.035.318.496.888.74 1.697.74.364 0 .695-.053.995-.162.575-.21.864-.586.864-1.125 0-.408-.122-.697-.369-.87-.249-.168-.634-.314-1.163-.441l-.977-.228c-.635-.146-1.088-.31-1.35-.491-.457-.31-.685-.775-.685-1.39 0-.669.226-1.217.673-1.643.451-.43 1.086-.642 1.913-.642.76 0 1.404.186 1.935.563.53.377.794.976.794 1.804h-.95c-.052-.4-.154-.705-.312-.92-.295-.389-.795-.58-1.5-.58-.57 0-.978.125-1.228.374-.251.252-.375.542-.375.872 0 .364.147.632.443.799.194.109.631.244 1.308.407l1.014.237c.487.116.863.273 1.13.471.455.346.688.852.688 1.511 0 .822-.296 1.412-.88 1.765-.58.356-1.261.533-2.036.533-.901 0-1.607-.237-2.116-.71-.51-.47-.762-1.102-.753-1.908zm9.167 2.407h2.96c1.255 0 2.141-.565 2.658-1.692.291-.637.438-1.35.438-2.14 0-1.02-.25-1.857-.743-2.515-.555-.726-1.34-1.09-2.348-1.09h-2.965zm1.027-.858v-5.698h1.736c.793 0 1.366.255 1.722.762.357.51.534 1.223.534 2.142 0 .239-.024.499-.072.779-.088.467-.224.853-.418 1.154-.241.371-.556.624-.938.752-.212.072-.487.11-.816.11zm6.636-6.579h1.025v7.437h-1.025zm2.022 7.437h1.031l.804-2.226h2.915l.776 2.226h1.102l-2.698-7.437h-1.136zm2.134-3.044 1.186-3.287 1.145 3.287zm6.077.637c.022.426.117.77.29 1.035.321.496.884.74 1.694.74.364 0 .692-.053.994-.162.575-.21.863-.586.863-1.125 0-.408-.122-.697-.367-.87-.248-.168-.635-.314-1.164-.441l-.975-.228c-.636-.146-1.088-.31-1.352-.491-.458-.31-.685-.775-.685-1.39 0-.669.225-1.217.676-1.643.449-.43 1.087-.642 1.912-.642.758 0 1.403.186 1.935.563.53.377.793.976.793 1.804h-.951c-.049-.4-.15-.705-.31-.92-.293-.389-.793-.58-1.5-.58-.568 0-.98.125-1.23.374a1.204 1.204 0 0 0 -.372.872c0 .364.144.632.44.799.19.109.63.244 1.311.407l1.011.237c.488.116.863.273 1.13.471.453.346.686.852.686 1.511 0 .822-.292 1.412-.878 1.765-.583.356-1.26.533-2.036.533-.9 0-1.606-.237-2.115-.71-.511-.47-.763-1.102-.753-1.908z" fill="#231f20"/><g fill="#d50000"><path d="m133.08 254.687.036-.47.308.024c.157.012.32.06.308.246-.019.232-.191.232-.383.218zm-.017.187.265.021.342.677.254.019-.376-.689c.22-.01.401-.113.42-.382.023-.298-.141-.438-.496-.466l-.567-.043-.117 1.493.226.019zm.181 1.22a1.304 1.304 0 0 0 1.414-1.199c.056-.743-.503-1.336-1.21-1.39-.715-.056-1.361.44-1.419 1.188a1.304 1.304 0 0 0 1.215 1.4m-.957-1.38c.051-.618.55-1.04 1.144-.99.586.045 1.013.537.965 1.155-.047.621-.549 1.042-1.134 1-.593-.049-1.02-.54-.975-1.165m19.115-7.246c.187-.584.65-.938 1.178-.628.882.511 1.676 1.58 1.176 2.536-.102.188-.4.136-.661.15-.706.033-1.413.099-1.851-.553-.306-.457 0-.993.158-1.505m-65.042.918c.046-.112-.483-.206-.55-.29-.034-.038.271.042.389.024.557-.073-.243.06-.293-.291-.014-.087.069-.289.039-.333-.025-.032-.139-.145-.237.057-.036.074-.066-.104-.093-.15-.235-.448-.077-.905.395-1.407.91-.952 2.01-.999 2.452.019.09.207.25.81.078 1.092-.468.75-.834 1.275-1.69 1.393-.197.03-.634.28-.49-.114m47.725 14.952c.592.322 1.415-.52 2.054-.64l1.778-.594a2.877 2.877 0 0 1 1.702-.16c-.1-.164-.019-.352.12-.361.946-.065 1.906.029 2.786-.225.078-.019-.113-.203-.282-.262 1.323-.54 2.983.107 4.134-.807.042-.032.036-.31.166-.31.788.01 1.374-.362 2.09-.42-.033-.113-1.187-.179-1.173-.297.025-.28 1.52-.243 1.612-.374.104-.141-.837-.183-.264-.387.401-.143.847-.21 1.234-.373.433-.19 1.977-.094 2.55-.422.047-.025-.879.068-.962.028-.324-.145-.461.303-.771.284-.179-.007-.316-.114-.307-.3-.645.037-.598.785-1.285.255-.135-.098-.271.082-.339.226-.345-.125-.42-.329-.132-.52.106-.067.27-.064.407-.087-.836-.205-1.247.313-1.818.658-.077.047-.286-.099-.272-.281-.36.108-.247.455-.451.67-.114.122.098.237.268.296-.304.455-.908.604-1.175.191-.072-.107.363-.398.344-.609-.02-.241-.407-.136-.597-.044-.344.156-.216.562-.468.79-.152.131-.317.018-.45-.09.262-.166.104-.374.067-.571-.506.308-.61.778-.298 1.158.078.093.218-.15.344-.192.12-.043.293.093.287.283-.03.556-.808.153-.953.546-.169-.061-.24-.191-.342-.29-.106-.099-1.57.478-1.69.52-.126.047-.32-.099-.278-.282.038-.15 1.55-.532 1.669-.62.113-.085-.21-.219-.216-.289-.032-.332.618-.202.655-.342.11-.427-.502-.498-.948-.544.104.162.03.326-.126.37-.61.178-1.16-.356-1.802-.206.778.234.857.562 1.693.671.125.019.038.267-.115.33-.582.241-1.477.335-1.44-.466-.205.038-.512.027-.572.133-.148.26.413.253.473.443.037.123-.173.319-.304.22-1.117-.862-1.964-.655-3.174-.192-.293.112-.291-.51-.484-.365-.217.16-.823.403-.447.736.084.073.376-.038.583-.075-.102-.164 0-.366.111-.357.272.021.516.242.774.38-.89.797-7.499 2.046-2.963.356 0 0-2.387-.131-3.47.3-.082.029-.28-.103-.268-.28-.068.14-.164.301-.364.233-.169-.056-.304-.194-.463-.072-.148.115-.227.278-.334.424-.136-.108-.276-.193-.467-.105.106.161.024.334-.124.368-.534.108-3.475 1.04-3.964.722l1.564-.722c-.962.245-2.041.023-2.894.698 0 0-1.123.133-2.547.286.154.288-.206.399-.278.614-.167-.061-.312-.136-.3-.321-1.127.392-2.28.785-3.56.762-.641-.01-1.435-.07-2.07.417-.252.195-.142-.474-.467-.24-.355.261-.475.657-.617 1.027-.17-.06-.318-.133-.305-.318a4.173 4.173 0 0 1 -3.024.173c.033.122.123.272.066.342-.86 1.065-2.662.09-3.651.783-.608.432-.955-.017-1.51.24-.07.033.19.38-.115.499-.209.082-.464.177-.663-.05.007.31.395.783.007.849-.555.098-.208-.577-.473-.652-.674-.201-1.504.134-2.194.62-.068.043-.21-.188-.3-.24-.327-.178-.546.368-.967.328-.027.354.467-.035.535.272.038.173-.008.361-.135.359-1.178-.017-2.247-.415-3.223.147-.167.094.329.559-.042.846-.159.12-.424-.018-.398-.072.174-.385-.075-.637-.084-.947-1.15.211-1.761 1.064-3.046.979-.28-.018.067.62-.477.578-.18-.014-.32-.122-.305-.306-.452.025-.793.176-.954.55-.653-.258-1.33-.31-2.026-.195.088.049.171.091.258.142.016-.009-1.97.558-2.075.568-1.185.066-2.517.616-3.514 1.289-.242.164.67.56.209.989-.328-.342-1.02.188-1.035-.171-.01-.242-.068-.5-.087-.748-.296.013-.597.234-.882-.028.033.198.228.44-.08.553-.487.18-.984.223-1.505.11.105.162.016.354-.113.354-1.089-.014-1.822.63-2.926.619-.113 0-.2.324-.332.342-.492.05-1.008-.013-1.501.127.102.164.008.286-.114.396-.158-.262-.628-.167-.694-.152-2.527.579-4.845 1.605-7.217 2.458-1.902.682-4.073 1.081-5.13 2.596-.483.688.71 1.457 1.566 1.363 5.95-.675 11.17-3.248 16.93-4.65 2.46-.6 4.876-1.524 7.352-2.122 3.505-.84 6.937-1.849 10.525-2.449.868-.145 1.578-.628 2.405-.895 1.331-.431 2.756-.506 4.123-1.071.33-.139 1.032.18 1.454-.064 1.138-.65 2.71-.177 3.667-1.317.22-.265.652.148.847.094 4.273-1.125 8.633-1.711 12.807-2.99l1.013-.282c1.609.307 2.854-1.465 4.239-.361 0 0 1.203-1.608 2.715-.786m-21.386-3.091-.006.03c.024.045.067.299.105.33.575.5-.266.038-.075.573.057.16.397-.126.327.262-.123.7-1.502.242-1.989-.08-.255-.166.448-.32-.311-.637-.539-.22.266.807-.877-.366-.72-.745-.72-1.82-.72-1.82-.123-.566-.027-.662-.103-1.01-.018-.09.165-1.477.713-3.168.024-.082-.005-.232.08-.246.422-.074.174-.496.272-.754.326-.844.741-1.714 1.26-2.504l-.411.211c-.906 1.01-1.887 1.643-2.39 3.113-.086.244-.849-.024-.69.928.069.39-.018.436-.126.633-.388.717-.437.67-.776 1.418a3.92 3.92 0 0 0 -.106.237c-.049.103-.048.38-.14.311-.264-.19-.505 1.22-.594 1.44-.07.17-.161.335-.208.516-.323 1.16-.49.986-.49.986-.036.108-.66-.716-.584.807.013.286.565-.78.27.427-.107.44-.441.725-.94.763-.49.042-1.375-.362-1.426-1.013a4.38 4.38 0 0 1 .012-.714c.015-.147.207-.267.234-.43.01-.079-.146-.193-.133-.275.14-.845.386-1.855.623-2.891.483-2.119.61.283.606-1.05-.002-1.38.704-3.05 1.03-3.849l-.1-.105a19.196 19.196 0 0 0 -2.413 3.483c-.298.544-.998-.396-.84 1.688.01.11-.486.365-.457.473.183.643-.27 1.242-.493 1.984-.255.843-1.129 3.283-1.129 3.283.022.162-.232.574-.325.823-.128.333-.383.39-.383.39-.481.636-1.417-.13-2.162-1.037-.532-.64.024-.694.062-.867.02-.075.53.22.132-.343-.514-.724 1.272-.799.544-1.833-.075-.107-.085.085-.018-.173.15-.556.405-.305.453-.44 0 0 .301-.104.13-.423-.173-.318-.39-.27-.072-1.369.883-3.11 1.786-5.972 2.687-8.911.184-.59.432.103.622-1.313.158-1.193 1.09-1.743 1.536-1.776.4-.033 1.645.334 1.685.825.035.422-.5 1.65-1.062 2.962-.289.671-.787.328-.59.92.225.684-.648 1.928-.708 2.643.404-.66 1.424-1.887 2.5-3.113.192-.22.17.047.359-.169.07-.08 0-.24.072-.318.2-.227.398-.455.599-.67.286-.325.424-.775.702-1.044.195-.185.378-.147.557-.297.431-.36.807-.793 1.09-.814.446-.035 1.556.352 1.602.95.086 1.082-1.995 3.764-2.106 5.194.66-.975 2.03-2.649 3.38-4.07.192-.205.508.01.57-.587.033-.312.427-.449.65-.631 1.555-1.27 1.002-1.835 1.627-2.231.783-.498 2.324-.193 3.017.515.771.788-.766 2.76-1.128 3.282-1.171 1.72-2.996 3.75-3.499 6.858-.023.15-.182.337-.235.433-.29.497-.546-.674-.557-.616-.291 1.355.538 1.198.542 1.533.004.356-.004.778.116 1.069 0 0 .44 1.378.607 1.664"/><path d="m112.47 270.212c-1.155-.567-1.75.108-1.84.465-.106.395-.307 1.387-.065 1.179.707-.622.658.916-.194 1.033-.063.009-.15.298-.101.314 0 0 .077.164.101.3.027.134.209.282.164.337-.041.055-.137.296-.207.479-.074.187-.054.436.02.464.073.023-.053.065.18-.103.123-.085.177-.328.12-.525-.047-.148.08-.533.16-.544.07-.014-.027.393-.027.393.477.094.379-2.372.654-1.99.634.88-.814.188-.334 2.492.027.125.113.212.2.286.026.022.183-.192.213-.372.018-.088-.126-.125-.08-.204a.405.405 0 0 1 .36-.216c.288-.014-.108.492-.739 1.266-.038.046.12.033.179.033.724-.048 1.31-1.379 1.458-1.93.347-.808-.501.486-.305.003-1.077.347.382-.652.02-.66-.08-.22.146-.554.242-1.304 0 0 .183-.59.253-.2.144.796-.207 1.764-.317 1.351-.064-.232.337.096.436-.18 0 0-.156-.567.711-1.214.475-.357.2-1.238.2-1.238l-.186-.546s-.226-.659.613-.808l.255-.362 1.193-3.755.361-.943c.222-.345-.033-.674-.033-.674-.698-.333.03-.693.03-.693s.412.243.658-.7l.417-1.258c.704-.752-.484 1.137 1.418.598a8.137 8.137 0 0 0 1.982-.881c.6-.364.09-.746.438-1.013.186-.141.959-.07 1.178-.156 4.265-1.586 5.796-9.53 4.942-12.863-.361-1.408-1.008-1.884-2.6-1.37-.627.202-.722-.483-.722-.483-.042-.455-.44-.875-.935-.83-.724.063-1.572-.091-1.842.52l-.994 2.14c-.222.842-.694.924-.593.966.104.042.223-.124.58.258.36.38-.132.342-.492.417-.358.08-.476.248-.524.382-.045.138-.474 1.625-.848 2.332-.374.713-.264.685-.173.87.092.185.243.478.136.504-.107.028-.638.056-.879.391-.234.335-1.142 3.259-1.142 3.259-.553 1.351-.927 2.242-.927 2.242-.309.73-.168.48-.168.48l-.212.474s-.148.492-.115.842c.07.736.192 1.153-.64.919-.188-.056-1.414 3.497-1.81 6.21-.109.765-.611.018-1.078 2.242 0 0-.162.544.152.6s3.03 1.922 1.098.975m6.535-14.647c.718-1.704 1.42-3.545 2.572-5.012.538-.738 1.468-2.773 1.808-3.349.28-.469.603-.46.954.197.86 1.608-.48 4.477-.916 5.51-.775 1.834-2.313 3.406-3.736 4.588-1.579 1.312-.476-1.107-1.55.145zm14.419-8.69c-.978.807.567-1.828 1.525-2.737.52-.492.031-.45.16-.647.061-.091.39-.164.439-.249.205-.354.328-.66.326-.914-.001-.464-1.267-.817-1.684-.839-1.337-.068-.635 1-1.461 1.58-.087.06-.186.492-.256.58a22.283 22.283 0 0 0 -1.505 2.083c-.095.147.382.38.29.522-.062.106-.627-.059-.894.481-.362.734-1.003 2.069-1.175 2.456-.464.98-1.611 3.52-2.273 5.644-.057.169-.003.404-.141.474-.197.102.124.393.096.53-.037.183-.431-.564-.468.255 0 0 .017.884 1.887 1.671.388.164 1.432-2.92 1.432-2.92.223-.445.458-.887.702-1.327.246-.431.562-.445.775-1.289.05-.202-1.244.867.337-.524.62-.542.228-1.684.67-1.801 0 0 .267.065.096.469-.089.206.049.154.123.079.072-.077.584-.919.751-1.008.173-.087.418-.41.441-.494.369-1.343 1.886-2.033 2.933-2.904.143.01 1.504-1.12 1.264-1.257-.236-.129.18-.527.305-.36.12.17.46.173.5-.05s.601-.724.917-.722c.102.003.206-.054.3-.129.25-.201-.329-.323-.023-.286.579.08.095-.206.466-.182.146.009.053-.085-.176-.286-.166-.139.37-.736.822-.329.053.052-.06-.309-.033-.365.137-.265.147-.056.197-.066.01 0 .027-.01.042-.01a.733.733 0 0 0 .333-.187c.034-.037.068-.156.156-.274.29-.384-.196-.09-.154-.194.081-.21.384-.315.41-.351.084-.116.135.065.254-.127.174-.286.064-.268.064-.268s-.096.047-.145.075l-.251.178s-.029-.05.088-.121c.122-.071.122-.092.147-.146.027-.055.054-.122.173-.183.12-.056 0-.122-.123-.019-.12.104-.311.234-.373.324-.065.084-.148.101-.148.101s-.005-.09.213-.242c.217-.154.04-.103.04-.103s.204-.29-.026-.23c-.231.063-.57.673-.57.673l.027.072c-.227.003.344.437-1.044.294-.097-.013-.303.06-.262.162.166.386-.35.238-.551.384-.028.023-.187.11-.124.155.69.44-.159.1-.213.173-.224.31-.227.098-.439.257-.102.083-.112.582-.719.535-.085-.005-.261.101-.201.16.346.305-.166.44-.323.562-.576.478-1.097 1.006-1.683 1.443-.466.343.288-.923-.714.268-.06.075-.319.174-.398.225 0 0-.54.769-1.15 1.275m-71.481 24.597s.02-.159.188-.117c.167.036.403-.14.392-.182-.04-.155-.51-.207-.549.008-.16.891-.811.695-.947.695-.773.005-.99 0-.263.178-1.057.382-2.154-.099-1.773-.07 0 0 .05.02.158.002.114-.019.542.097.523-.016-.02-.108.064-.324.58-.364.553-.044.31-.165.537-.241.134-.047-.562.16-.578.139-.025-.031-.27-.172-.368-.132-.027.012.118.188.087.202-.212.1-.45.143-.562.166-.705.141-.363-.318-.252-.28.207.07.69-.242.065-.236-.051.003-.171-.003-.182-.05-.07-.324.074-.605.388-.537 2.408.507.47-.008.474-.303 0-.127 1.106-.39 1.698-.131.235.103 2.3-.385-.717-.429-.13-.003.204-.148.277-.228.29-.344 1.27-.342 1.594-.555.455-.298-.397.161.06-.687.182-.337.697-.394 1.098-.675.37-.248.393.63.702.216.227-.3.515.084.605-.183.163-.328-.326-.136-.59-.293 1.158-.146.8-.973 1.752-.828.202.017.417-.333.264-.14.596-.399.65.099.862-.39.12-.262 1.032.428 1.19.163-.269-.093-.46-.242-.432-.58.47.101.884-.435 1.036-.632 1.562-1.595 4.57-2.058 3.4-4.41-.46-.92-1.072-1.389-1.786-1.802-.193-.107-.473-.126-.602-.327-.639-1.016-.373-.199-.57-.31a9.025 9.025 0 0 1 -.934-.591c-.303-.225.476-.346-.477-.38-.215-.002-.072-.356-.306-.406-.697-.156-2.564-1.99-3.032-2.678-1.327-1.932.346-5.134.346-5.134a9.175 9.175 0 0 1 1.72-2.076c.69 1.092.447-.387.68-.567.361-.277.734-.53 1.121-.77 2.726-.145.82-.475 1.245-.689a23.914 23.914 0 0 1 2.006-.862c-.026.338.223.628.434.581.56-.163-.038-.832.284-1.012 2.088-1.16 3.566-1.116 5.184-1.533.598-.154 1.127-.152 1.669.073 1.074.446.852 1.096.137 1.406-1.868.804-3.849 1.097-6.021 2.22-3.11 1.608-3.702 1.598-5.883 4.233-.135.168-.25.272-.088 1.144.172.925 1.22 2.111 3.035 3.255 3.434 2.157 3.25 2.05 5.656 4.379 1.359 1.315 1.657 4.123-.474 5.876-.222.188-.829.075-.916.274-.412.93-.97 1.09-1.896 1.432-.28.118-.772.319-1.057.544-.829.637-2.045 1.097-2.335 1.252-1.297.703-2.512 1.443-2.388 1.148.138-.319-.535-.168-.606-.121-.072.046.263.388.176.388-2.327.043.188.497-1.771.699-.08.01-.15.07-.22.108-.022.01.056-.15-.083-.218-.16-.077-.481.124-.505.138-.048.021-.104.45.363.403.244-.021-.446.211-.656.337-.472.292-.55-.088-.368-.121.354-.062.17-.131.111-.15-.104-.045-.478.01-.523.03-.251.13-.148.373-.344.584-.257.328-.55.21-.847.253-.027.005-.16.042-.187-.078"/><path d="m60.559 271.436s.404-.173.398-.351c0-.135.454-.122.475-.043.018.08.033.211-.146.192-.185-.009-.312.033-.312.033l-.32.241-.12.013zm18.833-8.87c-1.048-.08.128-1.14.305-1.5 0 0 .05-.352.574-.7.131-.087-.614.277-.568-.024.09-.26.53-.391.928-.556.173-.079.264-.228.351-.337-1.056.029-.483-.446-.304-.813-.353.044.452-1.052.368-1.168.397-.096.18.116.577.017.132-.024.418-.544.239-.598-.261-.082-.096-.375-.498-.184.139-.493.101-.174.371-.692.267-.588.737-.947 1.1-1.925.183-.59.323-1.394.94-1.737.884-.48 2.993-.203 2.72.426-.676 1.728-1.194 3.097-3.66 5.38-.105.094.788-.121.471.394-.914 1.484-1.112 2.522-1.692 3.79-.139.336-.01.823-.366 1.31-.089.085-.917.118-.789.183.219.09.473.253.46.385-.2 1.275-.792 2.16-.888 3.197-.053.542-.261 1.58-.893 1.86-.578.25-1.32-.08-1.586-.27-.825-.615-.554-1.492.114-2.504.132-.183-.262-.324-.128-.506.446-.62.378-.3.3-.835.233-.483.475-.251.56-1.57 0 0 1.104.309.994-1.023m6.693-4.024c-.996 1.69-1.298 3.02-1.62 4.843-.081.467-.222 1.432.331 1.76.14.084-.253.328-.22.37.451.717 1.068 1.245 1.948 1.529.6.192 1.595.268 2.016.011.268-1.038 1.42-.332 1.313-.607-.347-.897.62-.366.776-.463.256-.165.241-.156.337-.338.026-.045-.036.019.008-.01.177-.136-.065-.281.034-.462.544-.996.511.143.605.063.45-.382 1.164-.665 1.99-1.987.037-.07.955-1.228.383-1.032-.089.029-.015-.546.414-.365.78.328.528-.605.861-.726.386-.146.537-.64.556-.68.016-.038.329-.563.329-.563s.042-.01.15.014c.106.02.146-.087.146-.087s-.04-.055-.09-.1c-.05-.047.162-.408.246-.427.086-.019.011.352.011.352.368-.258.635-.639.547-.628 0 0 .222-.172.276-.332 0 0 .62-.747.252-.65l.033.002s0-.07-.114-.483c-.071-.25.344-.094.28-.211-.062-.112-.305-.506-.305-.506.625.618.6-.455.906-.429.312.025.435-.23.435-.23s-.434-.586-.26-.384c.172.204.481-.528.481-.528l1.157-1.5.46-4.537s-2.09 4.33-2.493 4.675c-.401.345-.245.624-.245.624s-.055.41-.264.647c-.204.231-.547.185-.835.893-.374.911-1.738 2.812-2.144 3.215-.407.409-.848.437-.848.437s-.526.213-.412.468c.178.416-.257.479-.608.69-.7.422-.994 1.247-.994 1.247-.233.187-1.536 1.72-2.554 1.872-.141.021-.255.14-.39.214-.056.033.042.323-.02.36-.173.106-.363-.3-.53-.177-.49.356-1.447.716-1.545-.174-.135-1.303.91-1.842.786-3.338-.04-.55.254-.24.43-1.083.133.118.174.142.186-.005.088-.208.112-.531.199-.703.22-.492.486-.687.712-1.247.15-.35.304-.708.468-1.054.04-.076-.156-.32-.118-.394.077-.162.39-.16.472-.317a9.16 9.16 0 0 1 1.123-1.68c.753-.882 2.105-2.64 3.348-2.4.428 1.415-.903 2.212-1.709 3.998.456.18-.606.333-1.051 1.064-.161.26-.106-.515-.38-.248-.154.134-.452.29-.295.553.168.192.293-.516.512-.069.222.416-.477.336-.5.622-.134-.117-.404-.342-.564-.253-.557.314-.335.446-.805.891-.443.42.077.478.078.909-.066-2.123-2.367.22-1.34-.506-.225.197-.057.113-.258.385-.236.309-.703 1.129.544 1.509 0 0 .988-.232 2.584-.629-1.002-.17 1.128-.53 1.623-.82.448-.267.253-.276.34-.487.107-.342.608-.373.721-.69l.564-.55c1.649-1.482 3.045-5.452 1.687-6.118-1.1-.485-.673-.422-.636-.576-.153-.364.348-.289.101-.813-.281-.563-.517-.624-.952-1.056-.204-.163-.585-.117-1.203.113-.954.356-1.73.351-2.302 1.21-.126.206-.157.07-.248.356-.085.133.124.36.155.435.023.11-.253.446-.432.394-.142-.014-.24-.126-.227-.306-.3.156-.497.382-.659.632-.079.124-.1.167-.221.387-.212.394-.413.773-.828.975.153-.094.327-.01.391.103.194 1.214-.81.412-.849.92-.069.426-.134.59-.307.974-.1-.117-.253-.225-.358-.099-.74.881-.582 1.196-1.055 2.44-.068.144.41.116.374.312-.13.802-.891.589-.891.589m35.165-2.152s.267-.297.665-.31c.396-.006.861-.33.876-.526.017-.198-.069-.127-.054-.324.016-.196.417-.766.674-.984.257-.22.195-.98.352-1.447.153-.466.482-.578.634-.484.152.092.7-1.05.195-.692-.508.358-.463.05-.44-.265.024-.319.012-2.189.012-2.189zm25.938-8.107c-.281-.059-.497.525-.605-.024-.04-.22-.081-.431-.332-.066-.33.474-.756.61-.756.61s-.524.211-.41.466c.18.416-.135.439-.488.654-.699.42-1.319 1.041-1.319 1.041-.23.192-1.534 1.72-2.552 1.875-.14.021-.256.138-.388.21-.06.04.037.324-.023.362-.173.106-.512-.033-.675.09-.488.356-1.302.452-1.4-.441-.139-1.304.906-1.842.788-3.339-.044-.552.254-.238.429-1.085.13.119.173.143.185-.002.087-.209.11-.53.198-.703.222-.492.488-.687.713-1.246.15-.353.303-.708.468-1.056.038-.075-.155-.314-.117-.391.074-.162.388-.162.472-.32a9.005 9.005 0 0 1 1.122-1.68c.754-.878 2.106-2.639 3.347-2.4.427 1.416-.903 2.213-1.709 4 .455.177-.604.337-1.052 1.06-.16.266-.103-.513-.378-.24-.153.128-.454.285-.294.55.166.19.292-.518.511-.067.219.412-.48.33-.5.618-.133-.116-.404-.342-.562-.253-.558.314-.338.445-.804.89 0 0-.296.291-1.265.404.305-.036-.054.112-.256.384-.238.31-.705 1.13.542 1.51 0 0 .988-.23 2.585-.629-1.002-.168 1.128-.53 1.624-.82.445-.262.25-.276.337-.488.105-.342.607-.37.722-.689l.924-1.237c1.265-1.855 2.414-3.773 1.374-5.583-.409-.675-.632-.776-.564-.929.076-.159-.019-.309-.019-.309-.152-.342-.663-.792-.663-.792-.206-.164-.655-.286-1.288-.104-.974.291-1.75.455-2.507 1.163-.126.207-.155.075-.246.356-.085.137.124.364.153.437.025.11-.051.215-.224.164-.148-.01-.313-.042-.299-.22-.301.154-.634.527-.792.778a4.376 4.376 0 0 0 -.224.389c-.21.386-.41.768-.825.97.153-.093.327-.01.392.104.192 1.214-.813.414-.85.918-.07.426.297.595-.256 1.143-.099-.116-.25-.22-.358-.098-.736.886-.634 1.03-1.106 2.271l-.518.903c-.997 1.687-1.298 3.019-1.62 4.842-.083.464-.222 1.433.331 1.761.14.084-.251.325-.22.365.45.72 1.066 1.25 1.949 1.531.598.19 1.594.272 2.014.014 0 0 .973-.38 2.09-1.073 0 0 .537-.338.66-.49.098-.124.23-.177.323-.254.451-.381 1.167-.667 1.99-1.99.038-.07.955-1.228.381-1.031-.084.028-.012-.548.417-.366.78.329.532-.604.86-.726 0 0 .452-.267.422-.39-.031-.121-.616.155-.819.139-.2-.016-.182-.255.19-.349.37-.094 1.171-.08 1.039-.363-.143-.295 1.233-1.133 1.233-1.133s-1.225.446-.892.353c.329-.095 1.157-.882 1.157-.882s-.308-.183-.745.267c-.44.45-.634.354-.634.354s-.11-.129.019-.241c.127-.113 1.322-.906 1.412-1.062.096-.153-.16-.497-.354-.105-.19.386-.326.58-.573.642-.249.058-.568.034-.66.187-.094.155-.476.408-.476.408s1.482.74.244.483"/><path d="m147.95 247.26s.464-.245.313-.377c-.149-.133.061-.239-.149-.133-.21.105-.254.14-.35.333l-.095.196zm.596.094s-.02.357.336-.089c.102-.131.298-.52.027-.363-.345.204-.603.595-.363.452"/></g><path d="m67.71 192.37h6.787v18.593h8.635v6.567h-15.422zm-21.937 0h-6.492l-3.32 19.406-3.026-19.257h-7.82l-2.95 20.216-3.69-20.364h-6.861l6.179 25.159h8.116l3.19-16.231 3.1 16.23h7.746zm129.349 0h20.805v6.862h-6.934v18.491h-6.937v-18.491h-6.934zm-74.788 0h10.33l3.614 19.7 3.395-19.627h10.403v25.087h-6.492v-17.485l-4.131 17.485h-6.568l-3.984-18.003v18.003h-6.567zm-43.596 13.872-2.656-9.003-2.73 9.003zm-6.934 6.049-1.089 5.238h-6.935l7.433-25.085h10.033l7.452 25.085h-6.935l-1.328-5.238zm93.954-6.049-2.656-9.003-2.73 9.003zm-6.936 6.049-1.088 5.238h-6.934l7.432-25.085h10.034l7.45 25.085h-6.934l-1.327-5.238zm24.28-13.65v4.501h4.5s1.919-.368 1.919-2.655c0-1.846-1.992-1.846-1.992-1.846zm7.303-6.198s5.976.223 5.976 6.716c0 6.492-6.123 7.894-6.123 7.894l7.1 10.477h-7.967l-6.141-9.738v9.738h-6.789v-25.087zm-80.228 9.06h-6.633l5.353 3.908-2.071 6.347 5.4-3.955 5.323 3.896-2.037-6.29 5.318-3.906h-6.585l-2.028-6.27-2.05 6.283m110.553-7.64c.204.005.346-.045.346-.274 0-.244-.26-.244-.438-.244h-.443v.518zm.646 1.044h-.416l-.406-.77h-.359v.77h-.359v-1.823h.885c.154 0 .36.005.496.085.164.105.212.282.212.473 0 .336-.172.473-.495.496zm.531-.92c0-.76-.61-1.372-1.371-1.372-.766 0-1.377.611-1.377 1.372 0 .766.61 1.375 1.377 1.375.76 0 1.371-.61 1.371-1.375m-3.066 0c0-.93.757-1.69 1.695-1.69.929 0 1.69.76 1.69 1.69 0 .933-.761 1.695-1.69 1.695a1.696 1.696 0 0 1 -1.696-1.695" fill="#000059"/></svg>