<svg height="297mm" viewBox="15.795 37.837 179.718 200.064" width="210mm" xmlns="http://www.w3.org/2000/svg"><g fill="#a00"><path d="m188.6 140.253-.324-.051c-.478 0-1.14-.145-1.754-.978-.458-.62-.364-2.271-.364-2.271l.005-29.872v-.13c0-2.872-1.906-5.231-4.503-5.233-2.597 0-4.615 2.322-4.615 5.194v18.133l-.046 9.638-.028.887-.029.307c-.167 2.33-2.079 4.643-4.795 4.643-2.549 0-4.862-2.286-4.748-5.35.093-2.512 1.701-5.238 4.972-5.238 1.155 0 2.348.664 3.131 1.472l.637.828c.851.94 1.676 1.339 2.975 1.339 2.56 0 4.827-1.995 4.827-4.968 0-1.435-.818-3.294-2.036-4.52-2.525-2.793-6.29-4.265-10.142-4.276-4.193-.01-8.43 2.653-11.01 6.732l-.069.166-.058.27c-1.402 2.398-2.215 5.254-2.215 8.32 0 3.111.838 6.007 2.278 8.425l-.007.17.098.045c2.59 4.07 6.855 6.59 11.256 6.618 3.315.021 6.196-1.049 8.59-3.185l-.055.068.198.244s1.574 1.678 3.763 2.352c1.673.514 4.02.307 4.02.307 2.598-.008 4.896-2.021 4.89-4.894-.004-2.87-2.246-5.199-4.843-5.192"/><path d="m159.091 140.824-.324-.051c-.477 0-1.14-.143-1.753-.978-.458-.62-.365-2.271-.365-2.271l.006-11.737v-.131c0-2.87-1.906-5.23-4.503-5.232-2.599 0-4.615 2.32-4.617 5.192l-.044 9.64-.029.887-.028.307c-.167 2.328-2.079 4.641-4.795 4.641-2.55 0-4.862-2.286-4.748-5.348.093-2.512 1.701-5.24 4.972-5.239 1.156 0 2.348.664 3.13 1.472l.638.827c.851.94 1.676 1.339 2.975 1.339 2.56.001 4.826-1.995 4.827-4.968 0-1.436-.818-3.294-2.036-4.52-2.525-2.791-6.289-4.265-10.142-4.275-4.191-.012-8.43 2.652-11.011 6.732l-.068.166-.058.27c-1.402 2.397-2.215 5.252-2.215 8.319 0 3.113.838 6.007 2.276 8.426l-.005.17.098.046c2.589 4.068 6.855 6.587 11.254 6.617 3.317.022 6.197-1.049 8.592-3.184l-.057.068.2.244s1.574 1.677 3.765 2.351c1.67.515 4.017.307 4.017.307 2.597-.006 4.898-2.021 4.892-4.893-.005-2.871-2.247-5.2-4.844-5.194"/><path d="m123.742 131.142v6.584s-.093 1.626.446 2.318c.79 1.01 2.574.753 2.574.753h5.265s4.507.258 4.507 5.037c0 4.78-4.354 5.112-4.354 5.112l-6.193.036s-4.615.462-8.159-3.585c-3.783-4.321-3.315-9.671-3.315-9.671v-6.805l-1.625.046-.72-.061c-.46.06-.976.377-1.497 1.042-.54.69-.544 2.356-.544 2.356v11.588c0 2.872-2.11 5.343-4.708 5.343s-4.372-2.318-4.372-5.19l-.043-.153v-11.588s-.458-5.615 3.325-9.936c3.545-4.047 8.106-3.758 8.106-3.758l.62-.088 1.426-.08.032-5.925.043-.155c0-2.87 2.087-5.036 4.686-5.036 2.597 0 4.5 2.318 4.5 5.19v5.842l-.008.366 1.875.023c2.598-.007 4.838 2.322 4.843 5.194.007 2.873-2.085 4.84-4.684 4.847l-.138.048-1.896-.061zm-96.632-23.336v29.767s-.091 1.626.446 2.317c.792 1.01 2.576.753 2.576.753h5.265s4.506.257 4.506 5.038c0 4.779-4.354 5.112-4.354 5.112l-6.194.035s-4.615.463-8.157-3.584c-3.784-4.321-3.316-9.67-3.316-9.67v-29.768l.043-.152c0-2.873 2.088-5.037 4.685-5.037 2.598 0 4.5 2.317 4.5 5.19m15.87.618c-2.599 0-4.704 2.328-4.704 5.2 0 2.871 2.105 5.201 4.704 5.201 2.597 0 4.703-2.33 4.703-5.2 0-2.873-2.106-5.2-4.703-5.2"/><path d="m57.912 148.246c-3.401 3.213-7.34 2.962-7.34 2.962l-.62-.088s-4.561.289-8.105-3.758c-3.782-4.32-3.326-9.935-3.326-9.935v-11.589l.043-.152c0-2.873 1.776-5.19 4.373-5.19 2.598 0 4.709 2.472 4.709 5.342v11.59s.003 1.665.543 2.354c.52.665 1.038.982 1.496 1.042l.72-.06c.478 0 1.067-.269 1.705-1.082.54-.688.416-2.167.416-2.167v-29.895c0-2.873 1.907-5.232 4.504-5.232 2.596 0 4.614 2.321 4.614 5.194l.042 27.668.026.887.029.307c.165 2.328 2.079 4.643 4.793 4.643 2.55 0 4.864-2.286 4.75-5.348-.094-2.512-1.701-5.24-4.97-5.24-1.157 0-2.348.664-3.132 1.472l-.637.828c-.851.939-1.677 1.337-2.975 1.337-2.562 0-4.827-1.994-4.827-4.97 0-1.435.818-3.293 2.038-4.518 2.524-2.791 6.289-4.265 10.142-4.273 4.191-.012 8.43 2.654 11.01 6.734l.067.166.088-.158c2.511-4.01 6.702-6.639 11.448-6.639 4.688 0 8.836 2.564 11.355 6.493l.16.28c1.206 2.161 1.62 3.493 1.996 6.298l-5.239 4.687.164.095c1.452.733 2.684 2.403 2.684 4.502 0 1.412-.482 2.602-1.31 3.537-2.524 2.836-5.927 4.874-9.81 4.874-4.802 0-9.037-2.691-11.536-6.783l-.1.044c-2.59 4.07-6.856 6.588-11.254 6.615-3.316.021-6.196-1.05-8.59-3.186l.054.068-.198.245"/></g><g fill="#fff000"><path d="m183.935 128.069s-.166-1.778-1.606-3.432c-.623-.714-1.497-1.593-3.143-2.72 0 0 .073-10.873-.072-14.99-.066-1.849 1.067-2.267 1.067-2.267.417-.275.487-.46 1.394-.46.91 0 2.371.829 2.37 2.896l-.002.193s.002-.193-.002 2.054zm-23.275 7.1c0-7.227 5.477-12.812 11.74-12.744 2.827.032 5.626 1.474 7.454 3.25l1.137 1.257c.422.466.664.98.747 1.777.164 1.585-1.109 3.063-2.854 2.604-.898-.236-1.515-1.033-1.912-1.472l-.222-.244c-1.386-1.44-3.352-1.918-4.296-1.932-4.212-.063-7.109 3.032-7.165 7.414-.055 4.306 2.839 7.76 7.135 7.723 3.52-.032 6.478-3.294 6.59-7.217 0 0 .11-.987.054-1.393 0 0 1.76.54 3.41-.857 1.246-1.057 1.37-2.665 1.37-2.665-.036 2.74 0 7.582 0 7.582s.014 1.775 1.197 3.086c1.414 1.563 3.471 1.248 3.471 1.248h-.02c.91-.001 2.604.705 2.64 2.567.04 2.205-1.684 2.831-2.593 2.833 0 0-2.348.268-4.037-.528-1.573-.74-2.606-2.066-2.606-2.066-.275-.333-.48-.667-.692-1.004l-.36-.756-.42.512c-2.241 2.488-4.735 3.805-8.172 3.853-6.536.093-11.599-5.602-11.597-12.828m-8.013-10.086c-1.302-1.47-1.973-1.717-1.973-1.717.417-.277.486-.461 1.396-.46.907 0 2.368.827 2.368 2.896l-.002.192s.002-.192-.002 2.055c0 0-.362-1.354-1.787-2.966m-35.87 3.731v9.828s-.058 3.066 2.106 6.257c2.326 3.432 6.737 3.696 6.737 3.696l5.82-.039c3.89.02 3.806-5.387.002-5.38h-5.653s-1.832.233-3.22-1.249c-1.207-1.287-1.026-3.408-1.026-3.408v-9.705l.086-.369s2.565.04 3.924.037c.91-.004 2.702-.467 2.697-2.765-.004-2.023-1.847-2.66-2.756-2.656-.404 0-3.012 0-3.865-.008l-.086-.49v-8.128c0-1.593-1.39-2.673-2.3-2.673s-2.466.713-2.466 2.796v8.004l-.026.369-3.931.04s-3.865-.507-7.026 3.262c-2.9 3.46-2.632 7.077-2.632 7.077s-.028 6.577-.028 12.501c0 1.006.416 2.989 2.494 2.989 1.83 0 2.41-2.036 2.41-3.042 0-1.116-.04-11.436-.04-11.436s-.044-3.24 1.4-4.58c1.815-1.686 3.145-1.287 3.145-1.287l4.208-.01.026.368m-91.865-21.086v30.64s-.18 2.12 1.024 3.408c1.389 1.482 3.223 1.248 3.223 1.248h5.653c3.803-.008 3.886 5.4-.003 5.38l-5.82.037s-4.41-.262-6.738-3.693c-2.164-3.19-2.106-6.26-2.106-6.26v-30.64c0-2.082 1.556-2.794 2.466-2.794s2.301 1.079 2.301 2.674m18.069 3.126c-1.386 0-2.509 1.241-2.509 2.773s1.123 2.772 2.509 2.772c1.384 0 2.507-1.24 2.507-2.772s-1.123-2.773-2.507-2.773m13.55 14.222c1.303-1.47 2.994-2.711 2.994-2.711-.027-5.868 0-12.11 0-14.508 0-2.205-1.502-2.987-2.411-2.987s-2.37.827-2.37 2.896l.002.19s-.022 11.643-.002 20.085c0 0 .362-1.354 1.787-2.965"/><path d="m59.578 135.954c.112 3.92 3.16 7.384 6.68 7.414 4.295.036 7.19-3.415 7.136-7.721-.056-4.383-2.952-7.477-7.163-7.416-.943.013-2.91.49-4.296 1.932l-.223.244c-.396.44-1.015 1.234-1.911 1.47-1.746.46-3.02-1.02-2.854-2.604.083-.796.325-1.309.748-1.777l1.135-1.256c1.83-1.777 4.628-3.218 7.455-3.247 6.263-.068 11.74 5.519 11.74 12.745 0 7.228-5.066 12.92-11.6 12.827-3.437-.05-5.93-1.368-8.17-3.857l-.422-.514-.36.758c-.211.337-.417.67-.692 1.004-2.786 3.355-6.153 2.805-6.153 2.805h-.29s-3.867.504-7.026-3.264c-2.9-3.46-2.634-7.077-2.634-7.077s-.026-6.576-.026-12.502c0-1.006.415-2.987 2.494-2.987 1.828 0 2.41 2.036 2.41 3.042 0 1.117-.04 11.434-.04 11.434s-.045 3.243 1.398 4.582c1.816 1.684 3.146 1.286 3.146 1.286h.387s1.802-.077 3.216-1.638c1.185-1.31 1.08-3.264 1.08-3.264s.037-4.844 0-7.583c0 0 .124 1.61 1.372 2.666 1.648 1.398 3.409.857 3.409.857-.057.406.054 1.394.054 1.394"/><path d="m93.817 138.74a4.647 4.647 0 0 0 -.768.669l-.063.11c-.851.854-2.094 1.627-3.45 1.627-2.64 0-4.782-2.366-4.782-5.287 0-2.92 2.142-5.287 4.782-5.287 1.563 0 2.949.828 3.822 2.11l.064.174c.258.42.46.882.6 1.379l1.667-1.607c-1.123-3.217-3.966-4.352-6.153-4.352-3.786 0-6.858 3.395-6.858 7.583s3.028 7.64 6.817 7.64c1.928 0 3.713-.936 4.96-2.355l.146-.134c.45-.476 1.083-.759 1.753-.705 1.185.09 2.078.987 2.16 2.641.037.735-.338 1.35-.762 1.845-2.09 2.35-5.04 3.855-8.257 3.855-6.364 0-11.481-5.751-11.481-12.787s5.159-12.739 11.522-12.739c3.873 0 7.593 2.262 9.631 5.694.425.876 1.261 2.62 1.311 3.863l-6.369 5.696zm37.333-2.999c.001-7.228 5.478-12.813 11.74-12.743 2.828.031 5.628 1.471 7.456 3.249l1.135 1.257c.423.467.666.981.749 1.778.164 1.583-1.109 3.063-2.854 2.603-.896-.236-1.515-1.032-1.914-1.472l-.22-.244c-1.386-1.44-3.354-1.918-4.296-1.931-4.212-.063-7.109 3.03-7.165 7.412-.055 4.308 2.839 7.76 7.135 7.723 3.52-.03 6.476-3.294 6.589-7.215 0 0 .111-.99.055-1.394 0 0 1.76.54 3.408-.858 1.248-1.055 1.372-2.665 1.372-2.665-.036 2.74 0 7.583 0 7.583s.014 1.776 1.198 3.085c1.413 1.563 3.47 1.25 3.47 1.25h-.021c.909-.002 2.605.705 2.641 2.567.042 2.205-1.684 2.829-2.593 2.832 0 0-2.347.269-4.038-.528-1.573-.741-2.605-2.065-2.605-2.065-.275-.334-.48-.667-.692-1.004l-.36-.759-.42.515c-2.241 2.487-4.735 3.805-8.172 3.853-6.536.091-11.599-5.602-11.599-12.829"/></g><g stroke-width="7.728"><path d="m171.918 70.028c.187.021.874 0 1.082-.02a6.36 6.36 0 0 0 3.228-1.416c.25-.209.666-.604.875-.854.79-.958 1.249-2.124 1.27-3.144 0-.188-.042-.23-.042-.23l-.083-.041-.208.125c-.521.354-1.187.541-1.916.541a3.35 3.35 0 0 1 -1.208-.208c-1.166-.375-1.957-1.228-2.478-2.665-.479-1.333-.562-2.811-.187-3.936.187-.541.583-1.187.895-1.437.625-.52 1.833-.853 3.311-.957.396-.021 1.312 0 1.687.041 1.29.125 2.186.396 2.81.875.938.708 1.417 1.666 1.583 3.144.042.396.042 1.666 0 2.228-.083.916-.146 1.479-.229 1.937-.27 1.353-.937 2.956-1.79 4.31a4 4 0 0 0 -.125.229l.145.146s-.541.583 12.64-12.619a311.624 311.624 0 0 0 2.103-2.124c.041-.062.041-.083-1.125-1.25a5779.828 5779.828 0 0 0 -13.368-13.367c-.083 0-.146.146-.146.146s.063.145.146.333c.812 1.54 1.458 3.435 1.624 4.685.167 1.395.209 2.81.104 3.706-.145 1.25-.603 2.166-1.374 2.832a3.124 3.124 0 0 1 -.937.52 7.947 7.947 0 0 1 -1.645.396c-.833.104-2.02.125-2.873.021-1.291-.146-2.228-.5-2.687-.979a3.326 3.326 0 0 1 -.562-.874c-.666-1.354-.541-3.436.313-5.102.52-1 1.207-1.624 2.165-1.936.417-.146.75-.188 1.208-.188.75 0 1.416.188 1.957.563l.167.083.083-.042s.042-.041.042-.229c-.021-.978-.458-2.124-1.208-3.06a9.95 9.95 0 0 0 -.937-.938c-.958-.77-2.02-1.25-3.228-1.395-.291-.041-1.04-.041-1.311-.02a6.39 6.39 0 0 0 -2.29.728c-.5.25-1.042.604-1.48 1-.374.291-.915.853-1.249 1.27-1.936 2.415-3.144 6.267-3.435 10.994-.084 1.145-.104 3.02-.021 4.165.291 4.56 1.437 8.329 3.269 10.765.708.937 1.54 1.707 2.457 2.249a6.419 6.419 0 0 0 2.978 1z" fill="#000059"/><path d="m160.278 68.404c.416.417.5.437.5.437l.104-.041c.062-.083.083-.042-.25-.562-1.958-3.103-3.415-7.267-3.915-11.245a25.675 25.675 0 0 1 -.083-5.518c.354-3.893 1.5-7.6 3.269-10.66.27-.438.666-1.063.937-1.417.062-.104.104-.187.104-.187 0-.083-.062-.125-.146-.125 0 0-.125.042-1.832 1.749-.958.979-4.269 4.29-7.35 7.371a620.716 620.716 0 0 0 -5.602 5.664v.083s1 1.041 2.957 2.999c.417.416 1.062 1.083 1.458 1.478.374.396 1.686 1.728 2.915 2.957 5.726 5.81 6.538 6.622 6.934 7.017z" fill="#d50000"/></g><g fill="#000059" stroke-width="1.258"><path d="m16.014 51.098c0 1.139.17 2.302.533 3.465.364 1.163.872 2.109 1.551 2.86 1.43 1.527 3.393 2.302 5.89 2.302a9.244 9.244 0 0 0 3.198-.557c.994-.364 1.818-.97 2.496-1.818.679-.824 1.018-1.817 1.018-2.98 0-.776-.194-1.406-.557-1.891-.388-.46-.97-.703-1.72-.703-.704 0-1.188.218-1.48.679-.217.315-.314.824-.314 1.478 0 .436-.025.776-.097 1.042s-.243.51-.51.751c-.387.364-1.017.558-1.865.558-1.188 0-2.084-.412-2.642-1.236-.557-.824-.848-2.157-.848-3.999 0-1.939.267-3.32.824-4.144.533-.824 1.381-1.236 2.545-1.236.945 0 1.648.242 2.06.751.218.267.339.485.387.679.049.218.073.509.049.92-.049 1.285.557 1.915 1.842 1.915.557 0 1.018-.145 1.43-.46.412-.29.605-.703.605-1.212 0-.218-.024-.557-.097-.993a6.068 6.068 0 0 1 -.096-.97c0-.266.024-.678.096-1.236.073-.533.097-.945.097-1.212 0-.46-.145-.824-.436-1.114-.29-.291-.654-.437-1.115-.437-.484 0-.872.146-1.163.437-.29.315-.412.678-.34 1.139l-.048.048c-1.042-1.139-2.423-1.72-4.144-1.72-1.139 0-2.23.242-3.247.75a6.083 6.083 0 0 0 -2.424 2.133c-.993 1.503-1.478 3.514-1.478 6.01zm20.59-1.77c0-.363.267-.557.8-.557.436 0 .824.121 1.163.34.315.242.485.581.485 1.017 0 .582-.267 1.018-.775 1.285s-1.14.46-1.867.557c-.75.121-1.478.267-2.205.436a3.566 3.566 0 0 0 -1.89 1.188c-.51.606-.776 1.43-.776 2.496 0 1.163.412 2.06 1.26 2.69s1.867.945 3.054.945c1.672 0 3.054-.509 4.144-1.55.194.532.558.92 1.067 1.162.508.267 1.066.388 1.696.388.654 0 1.236-.145 1.745-.46s.751-.776.751-1.406c0-.363-.097-.703-.315-.97s-.533-.387-.897-.387c-.072 0-.17 0-.29.024s-.219.024-.291.024c-.267 0-.412-.387-.412-1.139v-4.556c0-.993-.097-1.793-.315-2.375-.218-.557-.63-1.018-1.236-1.357-.848-.485-2.157-.727-3.926-.727-1.77 0-3.078.267-3.95.824-.897.557-1.333 1.26-1.333 2.084 0 .606.218 1.09.654 1.478.436.412.97.606 1.575.606.558 0 1.066-.145 1.478-.436.412-.266.606-.678.606-1.187zm2.448 5.066c0 1.526-.703 2.278-2.133 2.278-.92 0-1.381-.388-1.381-1.14 0-.363.242-.654.727-.823.46-.17 1.018-.291 1.624-.412.606-.097.993-.243 1.163-.437zm12.253-6.592c0-.412-.048-.703-.17-.849-.12-.12-.314-.193-.58-.193-.195 0-.461.048-.8.12-.364.074-.63.122-.8.122-.146 0-.388-.049-.752-.121-.363-.073-.654-.121-.92-.121-.388 0-.68.145-.897.46-.218.315-.315.727-.315 1.212 0 .92.363 1.381 1.066 1.381a1.1 1.1 0 0 0 .436-.097c.17-.048.291-.072.364-.072.17 0 .266.096.339.315.073.218.097.678.097 1.38v3.49c0 .461-.024.825-.049 1.067-.024.267-.072.436-.12.509-.073.073-.146.121-.267.121a.745.745 0 0 1 -.194-.048c-.073-.025-.146-.049-.17-.049l-.436-.073c-.703 0-1.066.46-1.066 1.382 0 .484.097.872.315 1.187s.509.485.896.485c.291 0 .752-.048 1.357-.121.606-.073 1.043-.121 1.358-.121s.824.048 1.526.12c.703.074 1.285.122 1.745.122.388 0 .679-.17.897-.485s.315-.703.315-1.187c0-.921-.363-1.382-1.066-1.382-.146 0-.291.025-.437.073a.999.999 0 0 1 -.363.097c-.17 0-.267-.121-.34-.34-.072-.217-.096-.678-.096-1.356 0-.679.024-1.26.072-1.745.025-.485.122-1.067.291-1.72.17-.655.46-1.164.873-1.528.412-.339.92-.484 1.55-.436-.193.388-.29.703-.29.945 0 .46.17.848.509 1.14.315.29.727.435 1.187.435a1.91 1.91 0 0 0 1.527-.702c.364-.46.558-1.018.558-1.673a2.83 2.83 0 0 0 -.946-2.156 3.209 3.209 0 0 0 -2.253-.873c-1.042 0-1.89.267-2.57.8-.702.557-1.138 1.309-1.332 2.302h-.049zm13.206 0c0-.412-.048-.703-.17-.849-.12-.12-.314-.193-.58-.193-.195 0-.461.048-.8.12-.364.074-.63.122-.8.122-.146 0-.388-.049-.752-.121-.363-.073-.654-.121-.92-.121-.388 0-.68.145-.897.46s-.315.727-.315 1.212c0 .92.363 1.381 1.066 1.381a1.1 1.1 0 0 0 .436-.097c.17-.048.291-.072.364-.072.17 0 .266.096.34.315.072.218.096.678.096 1.38v3.49c0 .461-.024.825-.049 1.067-.024.267-.072.436-.12.509-.073.073-.146.121-.267.121a.745.745 0 0 1 -.194-.048c-.073-.025-.146-.049-.17-.049l-.436-.073c-.703 0-1.066.46-1.066 1.382 0 .484.097.872.315 1.187s.509.485.896.485c.291 0 .752-.048 1.358-.121.605-.073 1.042-.121 1.357-.121s.824.048 1.526.12c.703.074 1.285.122 1.745.122.388 0 .679-.17.897-.485s.315-.703.315-1.187c0-.921-.363-1.382-1.066-1.382-.146 0-.291.025-.436.073a.999.999 0 0 1 -.364.097c-.17 0-.267-.121-.34-.34-.072-.217-.096-.678-.096-1.356 0-.679.024-1.26.073-1.745.024-.485.12-1.067.29-1.72.17-.655.46-1.164.873-1.528.412-.339.92-.484 1.55-.436-.193.388-.29.703-.29.945 0 .46.17.848.509 1.14.315.29.727.435 1.187.435a1.91 1.91 0 0 0 1.527-.702c.364-.46.558-1.018.558-1.673a2.83 2.83 0 0 0 -.946-2.156 3.209 3.209 0 0 0 -2.253-.873c-1.042 0-1.89.267-2.57.8-.702.557-1.138 1.309-1.332 2.302h-.049zm18.175 5.938c.702 0 1.139-.098 1.332-.316.17-.218.267-.606.267-1.212 0-1.817-.509-3.223-1.527-4.265s-2.447-1.55-4.313-1.55c-1.94 0-3.49.63-4.63 1.89-1.138 1.284-1.72 2.883-1.72 4.846 0 1.988.582 3.587 1.745 4.775 1.163 1.211 2.738 1.817 4.701 1.817 1.551 0 2.86-.34 3.926-1.018 1.067-.678 1.6-1.478 1.6-2.423 0-.46-.145-.848-.46-1.115s-.728-.412-1.212-.412c-.412 0-.703.049-.921.17-.218.12-.533.387-.921.8-.34.363-.654.63-.921.75s-.63.195-1.042.195c-.703 0-1.309-.243-1.77-.703-.484-.46-.726-1.018-.726-1.72 0-.219.048-.34.12-.413.074-.073.267-.097.583-.097h5.889zm-5.453-2.69c-.388 0-.655-.025-.8-.074-.145-.024-.218-.12-.218-.266 0-.34.242-.679.703-1.042.46-.364.97-.533 1.55-.533.558 0 1.019.145 1.334.46s.484.679.484 1.042c0 .146-.024.242-.097.315-.072.073-.242.097-.509.097h-2.447zm9.947 3.78c0 .654-.023 1.09-.072 1.333-.073.242-.194.363-.363.363a1.3 1.3 0 0 1 -.364-.097 3.617 3.617 0 0 0 -.436-.072c-.703 0-1.067.46-1.067 1.38 0 .486.122.873.34 1.188s.557.485.993.485c.218 0 .63-.048 1.236-.121s1.067-.121 1.406-.121c.315 0 .824.048 1.478.12.655.074 1.164.122 1.527.122.485 0 .848-.145 1.09-.46.219-.315.34-.703.34-1.212 0-.921-.364-1.381-1.066-1.381-.025 0-.17.024-.412.072a.99.99 0 0 1 -.388.097c-.17 0-.291-.097-.34-.315-.072-.218-.096-.678-.096-1.381v-4.435c0-.364.024-.606.097-.751.072-.122.193-.194.412-.194.848 0 1.38-.097 1.647-.291.267-.17.388-.558.388-1.115 0-.485-.12-.824-.34-1.018-.217-.194-.678-.29-1.38-.29-.412 0-.63-.025-.703-.098-.073-.072-.121-.29-.121-.678 0-.921.412-1.382 1.211-1.382.17 0 .34.025.485.097-.145.243-.218.46-.218.655 0 .412.17.751.509 1.018.34.266.727.412 1.139.412.533 0 .97-.17 1.309-.534.339-.363.508-.8.508-1.357 0-.92-.484-1.648-1.454-2.157-.654-.339-1.502-.509-2.496-.509-1.308 0-2.423.316-3.32.921-.92.63-1.406 1.576-1.454 2.812-.024.363-.073.605-.145.678-.097.073-.364.121-.824.121-.485 0-.824.122-1.043.34-.218.218-.315.581-.315 1.09 0 .51.122.848.364 1.018.218.17.606.267 1.115.267.388 0 .63.048.703.12.072.098.12.364.12.825z"/><path d="m100.371 46.396c-2.06 0-3.66.582-4.774 1.77-1.115 1.187-1.672 2.81-1.672 4.895 0 2.108.557 3.732 1.672 4.895 1.115 1.188 2.714 1.77 4.799 1.77 2.06 0 3.61-.607 4.677-1.843s1.6-2.884 1.6-4.968c0-1.963-.558-3.562-1.673-4.75-1.115-1.187-2.666-1.769-4.629-1.769zm-.072 3.054c1.575 0 2.375 1.211 2.375 3.61 0 .994-.17 1.842-.534 2.57-.339.702-.993 1.042-1.963 1.042-.606 0-1.114-.291-1.575-.849-.46-.557-.678-1.478-.678-2.762 0-1.236.242-2.157.702-2.739s1.018-.872 1.673-.872zm12.639-1.6c0-.388-.024-.678-.097-.848s-.242-.242-.533-.242c-.194 0-.46.048-.8.12-.363.074-.654.122-.92.122s-.655-.049-1.115-.121c-.46-.073-.824-.121-1.091-.121-1.042 0-1.551.557-1.551 1.672 0 .92.364 1.381 1.066 1.381.097 0 .243-.024.437-.097l.363-.072c.097 0 .17.024.242.096.049.073.097.243.146.51.024.266.048.63.048 1.09v4.483c0 1.236.364 2.182 1.067 2.86.702.703 1.696 1.042 2.932 1.042.848 0 1.648-.194 2.448-.557.775-.364 1.381-.873 1.817-1.527h.049v.97c0 .217.073.387.218.557s.364.242.654.242c.146 0 .388-.048.752-.121.339-.073.606-.121.775-.121.17 0 .46.048.848.12.364.074.655.122.873.122.485 0 .848-.145 1.09-.46.219-.315.34-.703.34-1.212 0-.921-.364-1.381-1.067-1.381-.12 0-.242.024-.412.072-.17.073-.315.097-.387.097-.291 0-.437-.557-.437-1.696v-7.27c0-.291-.048-.51-.145-.63-.121-.122-.315-.17-.63-.17-.194 0-.46.048-.824.12-.364.074-.679.122-.897.122-.266 0-.606-.049-1.066-.121-.46-.073-.8-.121-1.066-.121-.994 0-1.479.557-1.479 1.672 0 .92.364 1.381 1.067 1.381.096 0 .242-.024.436-.097l.363-.072c.17 0 .267.12.34.339.072.242.097.703.097 1.357v1.672c0 1.09-.194 1.939-.558 2.496-.412.655-.994.97-1.745.97-.581 0-1.042-.243-1.357-.752-.194-.315-.29-.945-.29-1.841v-6.035zm16.136-.048c0-.412-.048-.703-.17-.849-.12-.12-.314-.193-.581-.193-.194 0-.46.048-.8.12-.363.074-.63.122-.8.122-.145 0-.387-.049-.75-.121-.364-.073-.655-.121-.922-.121-.387 0-.678.145-.896.46s-.315.727-.315 1.212c0 .92.363 1.381 1.066 1.381a1.1 1.1 0 0 0 .436-.097c.17-.048.291-.072.364-.072.17 0 .266.096.339.315.073.218.097.678.097 1.38v3.49c0 .461-.024.825-.049 1.067-.024.267-.072.436-.12.509-.074.073-.146.121-.267.121a.745.745 0 0 1 -.194-.048c-.073-.025-.146-.049-.17-.049l-.436-.073c-.703 0-1.066.46-1.066 1.382 0 .484.096.872.315 1.187s.509.485.896.485c.291 0 .752-.048 1.357-.121.606-.073 1.043-.121 1.358-.121s.824.048 1.526.12c.703.074 1.285.122 1.745.122.388 0 .679-.17.897-.485s.315-.703.315-1.187c0-.921-.364-1.382-1.066-1.382-.146 0-.291.025-.437.073a.999.999 0 0 1 -.363.097c-.17 0-.267-.121-.34-.34-.072-.217-.096-.678-.096-1.356 0-.679.024-1.26.072-1.745.025-.485.122-1.067.291-1.72.17-.655.46-1.164.873-1.528.412-.339.92-.484 1.55-.436-.193.388-.29.703-.29.945 0 .46.17.848.509 1.14.315.29.727.435 1.187.435a1.91 1.91 0 0 0 1.527-.702c.364-.46.558-1.018.558-1.673a2.83 2.83 0 0 0 -.946-2.156 3.209 3.209 0 0 0 -2.253-.873c-1.043 0-1.89.267-2.57.8-.702.557-1.138 1.309-1.332 2.302h-.049z"/></g><path d="m103.495 89.722v-5.208h4.317v5.208h5.208v4.317h-5.208v5.237h-4.317v-5.237h-5.208v-4.317zm0 93.115v-5.208h4.317v5.208h5.208v4.317h-5.208v5.237h-4.317v-5.237h-5.208v-4.317z"/><path d="m69.247 203.786h6.468v17.716h8.228v6.258h-14.696zm-20.903 0h-6.186l-3.164 18.491-2.884-18.35h-7.45l-2.81 19.264-3.517-19.405h-6.538l5.888 23.974h7.733l3.04-15.467 2.954 15.467h7.382zm123.256 0h19.825v6.538h-6.607v17.62h-6.61v-17.62h-6.608zm-71.265 0h9.843l3.444 18.77 3.235-18.701h9.913v23.905h-6.186v-16.662l-3.937 16.662h-6.258l-3.796-17.155v17.155h-6.258zm-41.542 13.217-2.531-8.578-2.601 8.578zm-6.608 5.765-1.037 4.991h-6.61l7.084-23.904h9.56l7.101 23.904h-6.608l-1.265-4.991zm89.529-5.765-2.531-8.578-2.602 8.578zm-6.61 5.765-1.036 4.991h-6.608l7.082-23.904h9.561l7.1 23.904h-6.607l-1.265-4.991zm23.136-13.008v4.29h4.29s1.827-.351 1.827-2.53c0-1.76-1.898-1.76-1.898-1.76zm6.96-5.905s5.694.212 5.694 6.4c0 6.185-5.834 7.521-5.834 7.521l6.765 9.983h-7.592l-5.852-9.279v9.28h-6.468v-23.905zm-76.449 8.633h-6.32l5.1 3.724-1.974 6.047 5.146-3.768 5.073 3.712-1.942-5.994 5.068-3.721h-6.275l-1.932-5.974-1.954 5.986m105.346-7.28c.194.005.33-.043.33-.261 0-.232-.25-.232-.418-.232h-.422v.493zm.616.995h-.397l-.387-.733h-.342v.733h-.342v-1.737h.843c.147 0 .343.005.473.08.156.101.202.27.202.451 0 .32-.164.451-.472.473zm.506-.877c0-.725-.583-1.307-1.307-1.307-.73 0-1.312.582-1.312 1.307 0 .73.582 1.31 1.312 1.31.724 0 1.307-.58 1.307-1.31m-2.923 0a1.614 1.614 0 0 1 3.227 0c0 .89-.726 1.615-1.611 1.615a1.616 1.616 0 0 1 -1.616-1.615" fill="#000059"/><path d="m19.019 66.272h1.774v-1.825h1.23v4.728h-1.23v-1.937h-1.773v1.937h-1.23v-4.728h1.23zm10.985-1.825v4.728h-1.23v-4.728zm6.756 4.728v-4.728h1.88q.797 0 1.255.389.464.383.464 1.166 0 1.606-1.675 1.606h-.696v1.567zm1.228-3.737v1.179h.471q.094-.006.232-.038.144-.031.213-.087.069-.057.119-.17.056-.113.056-.282 0-.176-.05-.288-.05-.12-.119-.182-.069-.063-.207-.088-.132-.031-.232-.038-.094-.006-.276-.006zm11.552.05h-1.46v.79h1.385v1.041h-1.385v.815h1.461v1.041h-2.69v-4.728h2.69zm9.161 1.75 1.486 1.937h-1.53l-1.16-1.818h-.012v1.818h-1.23v-4.728h1.838q.74 0 1.191.364.452.364.452 1.091 0 .508-.276.878-.27.37-.759.458zm-1.216-1.85v1.179h.119q.853 0 .853-.59t-.853-.59zm8.702 3.787.803-4.728h1.21l.96 2.527 1.015-2.527h1.223l.715 4.728h-1.23l-.344-2.721h-.013l-1.135 2.721h-.489l-1.085-2.721h-.012l-.395 2.721zm15.084-3.687h-1.461v.79h1.386v1.041h-1.386v.815h1.461v1.041h-2.69v-4.728h2.69zm9.161 1.75 1.486 1.937h-1.53l-1.16-1.818h-.013v1.818h-1.229v-4.728h1.838q.74 0 1.191.364.451.364.451 1.091 0 .508-.275.878-.27.37-.76.458zm-1.217-1.85v1.179h.12q.852 0 .852-.59t-.853-.59zm12.365-.828v1.474q-.188-.251-.477-.383-.282-.138-.602-.138-.558 0-.91.376-.35.377-.35.935 0 .564.35.928.358.357.929.357.3 0 .583-.131.282-.138.477-.37v1.473q-.715.22-1.085.22-1.01 0-1.775-.696-.759-.684-.759-1.787 0-1.016.697-1.731.35-.358.827-.558.477-.207.972-.207.546 0 1.123.238zm9.608 3.794h-1.693l-.326.821h-1.305l1.819-4.728h1.342l1.78 4.728h-1.31zm-.332-.94-.502-1.506h-.013l-.508 1.505zm8.285 1.761v-4.728h1.743q.991 0 1.694.69.708.683.708 1.674 0 .991-.708 1.68-.703.684-1.694.684zm1.23-3.687v2.646h.275q.59 0 .972-.332.389-.332.389-.99 0-.622-.37-.973-.37-.35-.978-.35zm10.534-.89q.596-.308 1.28-.308.683 0 1.279.308.595.3.965.865.37.564.37 1.26 0 1.148-.74 1.882-.733.727-1.874.727-1.142 0-1.882-.727-.733-.734-.733-1.882 0-.696.37-1.26.37-.564.965-.865zm2.22 1.26q-.395-.376-.94-.376-.546 0-.941.376-.395.376-.395.872 0 .602.389 1.01.388.4.947.4.558 0 .946-.4.39-.408.39-1.01 0-.496-.396-.872z" stroke-width=".325"/><path d="m21.195 159.31h2.633v-2.707h1.824v7.016h-1.824v-2.875h-2.633v2.875h-1.825v-7.016h1.824zm16.3-2.707v7.016h-1.825v-7.016zm10.024 7.016v-7.016h2.791q1.182 0 1.86.577.69.567.69 1.73 0 2.382-2.485 2.382h-1.033v2.327zm1.823-5.546v1.75h.698q.14-.01.344-.057.214-.046.317-.13.102-.083.177-.251.083-.167.083-.419 0-.26-.074-.428-.075-.176-.177-.27-.102-.093-.307-.13-.195-.046-.344-.056-.14-.01-.41-.01zm17.142.075h-2.168v1.172h2.056v1.544h-2.056v1.21h2.168v1.545h-3.992v-7.016h3.992zm13.593 2.596 2.205 2.875h-2.27l-1.722-2.699h-.018v2.699h-1.824v-7.016h2.726q1.098 0 1.768.54.67.54.67 1.619 0 .753-.41 1.302-.4.55-1.125.68zm-1.806-2.745v1.749h.177q1.266 0 1.266-.875 0-.874-1.266-.874zm12.913 5.62 1.191-7.016h1.796l1.424 3.75 1.507-3.75h1.814l1.06 7.016h-1.823l-.512-4.039h-.018l-1.684 4.039h-.726l-1.61-4.039h-.018l-.586 4.039zm22.382-5.471h-2.168v1.172h2.057v1.544h-2.057v1.21h2.168v1.545h-3.991v-7.016h3.991zm13.594 2.596 2.204 2.875h-2.27l-1.721-2.699h-.019v2.699h-1.823v-7.016h2.726q1.098 0 1.768.54.67.54.67 1.619 0 .753-.41 1.302-.4.55-1.126.68zm-1.806-2.745v1.749h.177q1.265 0 1.265-.875 0-.874-1.265-.874zm18.346-1.229v2.187q-.278-.372-.706-.568-.42-.204-.894-.204-.828 0-1.349.558-.52.558-.52 1.386 0 .838.52 1.377.53.53 1.377.53.447 0 .866-.195.418-.204.707-.549v2.187q-1.061.326-1.61.326-1.498 0-2.633-1.033-1.126-1.014-1.126-2.652 0-1.507 1.033-2.568.52-.53 1.228-.828.707-.307 1.442-.307.81 0 1.666.353zm14.258 5.63h-2.513l-.483 1.219h-1.936l2.699-7.016h1.99l2.643 7.016h-1.944zm-.493-1.396-.745-2.233h-.018l-.754 2.233zm12.295 2.615v-7.016h2.586q1.47 0 2.512 1.024 1.051 1.014 1.051 2.484t-1.051 2.493q-1.042 1.015-2.512 1.015zm1.823-5.471v3.926h.41q.874 0 1.441-.493.577-.493.577-1.47 0-.921-.549-1.442-.549-.521-1.451-.521zm15.632-1.322q.884-.456 1.898-.456 1.014 0 1.898.456.884.447 1.433 1.284.549.838.549 1.87 0 1.703-1.098 2.792-1.089 1.08-2.782 1.08t-2.791-1.08q-1.089-1.089-1.089-2.791 0-1.033.549-1.87.549-.838 1.433-1.285zm3.294 1.87q-.586-.558-1.396-.558-.81 0-1.396.559-.586.558-.586 1.293 0 .893.577 1.498.577.595 1.405.595.828 0 1.405-.595.577-.605.577-1.498 0-.735-.586-1.293z" stroke-width=".483"/><path d="m22.996 233.6h2.494v-2.564h1.727v6.645h-1.727v-2.724h-2.494v2.724h-1.727v-6.645h1.727zm15.439-2.564v6.645h-1.727v-6.645zm9.495 6.644v-6.644h2.643q1.12 0 1.763.546.652.538.652 1.64 0 2.255-2.353 2.255h-.978v2.204zm1.727-5.252v1.657h.66q.133-.009.327-.053.202-.044.3-.123.096-.08.167-.238.08-.159.08-.397 0-.247-.071-.405-.07-.168-.168-.256-.097-.088-.29-.123-.186-.044-.327-.053-.132-.009-.387-.009zm16.236.071h-2.054v1.11h1.948v1.463h-1.948v1.146h2.054v1.463h-3.781v-6.645h3.78zm12.874 2.458 2.089 2.724h-2.15l-1.63-2.556h-.018v2.556h-1.728v-6.645h2.582q1.04 0 1.675.51.634.512.634 1.534 0 .714-.387 1.234-.38.52-1.067.643zm-1.71-2.6v1.657h.168q1.199 0 1.199-.828t-1.199-.828zm12.231 5.323 1.128-6.644h1.701l1.349 3.551 1.427-3.551h1.719l1.004 6.645h-1.726l-.485-3.825h-.017l-1.595 3.825h-.688l-1.524-3.825h-.018l-.555 3.825zm21.2-5.181h-2.053v1.11h1.947v1.463h-1.947v1.146h2.053v1.463h-3.78v-6.645h3.78zm12.875 2.458 2.088 2.724h-2.15l-1.63-2.556h-.018v2.556h-1.727v-6.645h2.582q1.04 0 1.674.51.635.512.635 1.534 0 .714-.388 1.234-.379.52-1.066.643zm-1.71-2.6v1.657h.168q1.198 0 1.198-.828t-1.198-.828zm17.377-1.163v2.071q-.264-.352-.67-.537-.396-.194-.845-.194-.785 0-1.278.529-.494.528-.494 1.313 0 .793.494 1.304.502.502 1.304.502.423 0 .82-.185.396-.194.67-.52v2.071q-1.005.309-1.525.309-1.42 0-2.494-.978-1.067-.961-1.067-2.512 0-1.428.979-2.432.493-.503 1.163-.785.67-.29 1.366-.29.767 0 1.577.334zm13.504 5.332h-2.38l-.458 1.155h-1.833l2.556-6.645h1.886l2.503 6.645h-1.842zm-.467-1.322-.705-2.115h-.017l-.714 2.115zm11.645 2.476v-6.644h2.45q1.393 0 2.38.97.996.96.996 2.352 0 1.393-.996 2.362-.987.96-2.38.96zm1.728-5.181v3.719h.387q.829 0 1.366-.467.547-.468.547-1.393 0-.872-.52-1.366-.52-.493-1.375-.493zm14.806-1.252q.837-.432 1.798-.432.96 0 1.798.432.837.423 1.357 1.216.52.793.52 1.772 0 1.613-1.04 2.644-1.031 1.022-2.635 1.022-1.604 0-2.644-1.022-1.031-1.031-1.031-2.644 0-.979.52-1.772t1.357-1.216zm3.12 1.772q-.555-.53-1.322-.53t-1.322.53q-.555.528-.555 1.225 0 .846.546 1.418.546.564 1.33.564.785 0 1.332-.564.546-.572.546-1.418 0-.697-.555-1.225z" stroke-width=".457"/></svg>