<svg height="297mm" viewBox="11.55 57.494 189.368 166.989" width="210mm" xmlns="http://www.w3.org/2000/svg"><g fill="#a00"><path d="m193.633 149.413-.341-.054c-.504 0-1.201-.152-1.848-1.03-.483-.654-.383-2.394-.383-2.394l.005-31.475v-.136c0-3.027-2.009-5.513-4.745-5.515-2.737 0-4.863 2.446-4.863 5.473v19.107l-.049 10.155-.03.935-.029.323c-.177 2.455-2.19 4.893-5.053 4.893-2.686-.002-5.123-2.41-5.002-5.637.098-2.647 1.792-5.52 5.238-5.52 1.217 0 2.474.7 3.3 1.55l.67.873c.898.992 1.767 1.411 3.136 1.411 2.698 0 5.086-2.101 5.086-5.235 0-1.512-.862-3.47-2.145-4.762-2.662-2.943-6.629-4.494-10.687-4.506-4.418-.01-8.884 2.796-11.602 7.093l-.072.175-.061.285c-1.478 2.527-2.334 5.536-2.334 8.767 0 3.278.882 6.33 2.4 8.877l-.007.18.103.047c2.73 4.289 7.223 6.943 11.86 6.973 3.493.022 6.529-1.105 9.052-3.356l-.058.072.208.257s1.66 1.768 3.965 2.478c1.763.542 4.235.323 4.235.323 2.738-.008 5.16-2.13 5.154-5.156-.005-3.025-2.367-5.478-5.103-5.47"/><path d="m162.54 150.015-.34-.055c-.504 0-1.202-.15-1.849-1.03-.482-.653-.384-2.393-.384-2.393l.007-12.367v-.138c0-3.025-2.01-5.51-4.746-5.513-2.738 0-4.862 2.445-4.864 5.471l-.047 10.157-.03.935-.03.324c-.176 2.453-2.19 4.89-5.052 4.89-2.686 0-5.123-2.41-5.003-5.635.098-2.647 1.793-5.522 5.239-5.52 1.218 0 2.474.7 3.299 1.55l.671.872c.897.991 1.766 1.41 3.135 1.41 2.698.002 5.085-2.101 5.087-5.234 0-1.513-.862-3.47-2.146-4.763-2.66-2.94-6.626-4.493-10.686-4.504-4.417-.013-8.884 2.794-11.603 7.094l-.071.174-.062.285c-1.477 2.525-2.334 5.534-2.334 8.765 0 3.28.883 6.33 2.399 8.879l-.005.18.103.047c2.727 4.287 7.223 6.941 11.858 6.973 3.495.023 6.53-1.105 9.053-3.355l-.06.071.21.257s1.66 1.768 3.968 2.478c1.76.542 4.233.323 4.233.323 2.736-.006 5.161-2.13 5.154-5.156-.005-3.025-2.367-5.48-5.104-5.472"/><path d="m125.294 139.812v6.938s-.098 1.714.47 2.443c.832 1.065 2.712.794 2.712.794h5.547s4.75.27 4.75 5.306c0 5.037-4.589 5.387-4.589 5.387l-6.525.038s-4.862.486-8.597-3.778c-3.986-4.553-3.493-10.19-3.493-10.19v-7.17l-1.712.049-.759-.065c-.484.063-1.028.397-1.577 1.098-.57.728-.573 2.483-.573 2.483v12.21c0 3.026-2.224 5.63-4.96 5.63s-4.608-2.443-4.608-5.468l-.045-.163v-12.21s-.483-5.916 3.504-10.469c3.734-4.264 8.54-3.96 8.54-3.96l.653-.092 1.504-.084.033-6.244.045-.163c0-3.025 2.2-5.306 4.938-5.306 2.736 0 4.742 2.442 4.742 5.469v6.154l-.01.387 1.977.024c2.738-.007 5.098 2.446 5.103 5.473.007 3.026-2.198 5.1-4.936 5.107l-.145.05-1.998-.064zm-101.82-24.588v31.365s-.097 1.714.47 2.441c.834 1.065 2.713.794 2.713.794h5.548s4.749.271 4.749 5.308c0 5.036-4.588 5.387-4.588 5.387l-6.527.037s-4.862.488-8.595-3.777c-3.986-4.553-3.493-10.19-3.493-10.19v-31.365l.045-.16c0-3.027 2.2-5.307 4.936-5.307 2.738 0 4.742 2.44 4.742 5.467m16.722.652c-2.738 0-4.957 2.453-4.957 5.48 0 3.025 2.219 5.48 4.957 5.48 2.736 0 4.955-2.455 4.955-5.48 0-3.027-2.22-5.48-4.955-5.48"/><path d="m55.93 157.835c-3.585 3.385-7.735 3.121-7.735 3.121l-.652-.092s-4.807.304-8.542-3.96c-3.984-4.552-3.503-10.468-3.503-10.468v-12.212l.045-.16c0-3.027 1.87-5.47 4.607-5.47 2.738 0 4.962 2.606 4.962 5.63v12.212s.004 1.755.572 2.48c.549.702 1.094 1.036 1.577 1.099l.759-.063c.503 0 1.124-.284 1.795-1.14.57-.726.44-2.284.44-2.284v-31.501c0-3.027 2.008-5.513 4.745-5.513 2.736 0 4.862 2.446 4.862 5.473l.044 29.153.028.935.03.324c.174 2.453 2.19 4.892 5.05 4.892 2.688 0 5.125-2.41 5.005-5.635-.098-2.647-1.793-5.522-5.237-5.522-1.219 0-2.474.7-3.3 1.551l-.67.872c-.898.99-1.768 1.41-3.136 1.41-2.7 0-5.086-2.102-5.086-5.237 0-1.512.862-3.47 2.147-4.76 2.66-2.942 6.627-4.494 10.687-4.503 4.416-.013 8.882 2.796 11.6 7.095l.072.175.093-.166c2.645-4.226 7.062-6.996 12.062-6.996 4.94 0 9.31 2.702 11.965 6.842l.168.295c1.27 2.277 1.708 3.68 2.103 6.636l-5.52 4.939.173.1c1.53.772 2.828 2.531 2.828 4.743 0 1.488-.507 2.742-1.38 3.728-2.66 2.988-6.245 5.135-10.337 5.135-5.06 0-9.522-2.836-12.155-7.148l-.105.048c-2.729 4.287-7.224 6.94-11.86 6.969-3.493.023-6.528-1.105-9.05-3.357l.057.072z"/></g><g fill="#fff000"><path d="m188.718 136.574s-.175-1.872-1.693-3.615c-.655-.752-1.577-1.679-3.311-2.866 0 0 .077-11.458-.075-15.795-.07-1.948 1.124-2.389 1.124-2.389.439-.29.512-.484 1.469-.484.958 0 2.498.872 2.496 3.05l-.001.204s.001-.203-.002 2.164zm-24.525 7.482c0-7.615 5.771-13.5 12.372-13.428 2.977.033 5.927 1.553 7.854 3.425l1.197 1.324c.444.491.7 1.033.787 1.872.173 1.67-1.168 3.228-3.007 2.744-.946-.249-1.597-1.088-2.015-1.551l-.234-.257c-1.46-1.518-3.532-2.022-4.526-2.036-4.438-.066-7.49 3.195-7.55 7.812-.058 4.538 2.991 8.176 7.518 8.138 3.708-.034 6.826-3.471 6.943-7.604 0 0 .117-1.04.058-1.469 0 0 1.855.57 3.593-.902 1.313-1.114 1.444-2.808 1.444-2.808-.038 2.887 0 7.988 0 7.988s.014 1.871 1.26 3.253c1.49 1.647 3.658 1.314 3.658 1.314h-.02c.957 0 2.743.743 2.781 2.705.042 2.324-1.775 2.983-2.733 2.985 0 0-2.474.283-4.254-.556-1.657-.78-2.745-2.177-2.745-2.177-.29-.351-.505-.703-.729-1.058l-.38-.797-.442.54c-2.362 2.621-4.99 4.01-8.61 4.06-6.888.098-12.222-5.903-12.22-13.517m-8.443-10.627c-1.373-1.55-2.08-1.81-2.08-1.81.44-.292.513-.486 1.471-.484.956 0 2.495.87 2.495 3.051l-.002.203s.002-.203-.002 2.164c0 0-.38-1.426-1.883-3.124m-37.795 3.931v10.355s-.062 3.231 2.218 6.594c2.452 3.615 7.099 3.893 7.099 3.893l6.132-.04c4.1.021 4.01-5.677.003-5.668h-5.957s-1.93.245-3.393-1.317c-1.271-1.357-1.08-3.591-1.08-3.591v-10.227l.09-.388s2.703.042 4.135.039c.958-.004 2.847-.492 2.841-2.913-.003-2.132-1.946-2.803-2.904-2.8-.425 0-3.173.002-4.072-.007l-.09-.518v-8.563c0-1.679-1.466-2.817-2.424-2.817s-2.598.752-2.598 2.946v8.434l-.028.389-4.142.042s-4.072-.534-7.403 3.437c-3.056 3.645-2.773 7.457-2.773 7.457s-.03 6.93-.03 13.173c0 1.06.439 3.149 2.628 3.149 1.929 0 2.539-2.146 2.539-3.205 0-1.177-.042-12.05-.042-12.05s-.046-3.415 1.475-4.826c1.913-1.777 3.314-1.357 3.314-1.357l4.434-.01.028.388m-96.797-22.219v32.285s-.19 2.235 1.079 3.591c1.463 1.562 3.395 1.315 3.395 1.315h5.957c4.007-.007 4.095 5.69-.003 5.67l-6.132.039s-4.648-.276-7.1-3.892c-2.28-3.36-2.22-6.595-2.22-6.595v-32.285c0-2.194 1.64-2.944 2.599-2.944s2.425 1.136 2.425 2.816m19.039 3.294c-1.46 0-2.644 1.308-2.644 2.922s1.184 2.922 2.644 2.922c1.458 0 2.641-1.308 2.641-2.922s-1.183-2.922-2.641-2.922m14.277 14.986c1.373-1.549 3.154-2.857 3.154-2.857-.028-6.182 0-12.76 0-15.286 0-2.324-1.582-3.147-2.54-3.147s-2.497.87-2.497 3.05l.002.202s-.023 12.267-.002 21.163c0 0 .381-1.427 1.883-3.125"/><path d="m57.685 144.883c.117 4.131 3.33 7.78 7.038 7.812 4.526.038 7.577-3.598 7.52-8.136-.06-4.617-3.11-7.878-7.548-7.813-.993.014-3.067.515-4.527 2.035l-.234.257c-.418.463-1.07 1.3-2.015 1.549-1.839.484-3.182-1.074-3.007-2.743.088-.84.343-1.38.789-1.873l1.196-1.323c1.928-1.873 4.876-3.39 7.855-3.422 6.599-.072 12.37 5.815 12.37 13.43 0 7.616-5.337 13.613-12.223 13.515-3.62-.052-6.249-1.44-8.61-4.063l-.443-.542-.38.799c-.222.355-.438.706-.729 1.057-2.935 3.536-6.483 2.955-6.483 2.955h-.306s-4.074.532-7.403-3.439c-3.056-3.645-2.774-7.457-2.774-7.457s-.028-6.929-.028-13.173c0-1.06.437-3.147 2.627-3.147 1.927 0 2.54 2.146 2.54 3.205 0 1.177-.043 12.049-.043 12.049s-.047 3.416 1.474 4.827c1.913 1.775 3.315 1.355 3.315 1.355h.408s1.898-.08 3.388-1.726c1.248-1.381 1.138-3.439 1.138-3.439s.039-5.104 0-7.99c0 0 .131 1.696 1.446 2.81 1.736 1.472 3.591.902 3.591.902-.059.428.058 1.468.058 1.468"/><path d="m93.762 147.819a4.897 4.897 0 0 0 -.81.704l-.066.117c-.897.899-2.206 1.714-3.635 1.714-2.781 0-5.039-2.494-5.039-5.57 0-3.078 2.258-5.571 5.04-5.571 1.646 0 3.106.872 4.026 2.222l.068.184c.271.442.484.93.631 1.452l1.758-1.692c-1.184-3.39-4.18-4.586-6.484-4.586-3.99 0-7.226 3.577-7.226 7.99s3.191 8.05 7.183 8.05c2.031 0 3.913-.986 5.226-2.481l.154-.142c.475-.501 1.141-.799 1.848-.743 1.248.096 2.189 1.04 2.276 2.784.039.774-.357 1.421-.804 1.944-2.201 2.476-5.31 4.062-8.7 4.062-6.706 0-12.098-6.06-12.098-13.474 0-7.413 5.436-13.423 12.141-13.423 4.081 0 8.001 2.384 10.148 6 .448.923 1.33 2.76 1.382 4.07l-6.711 6.002-.308.386m39.337-3.158c.001-7.617 5.773-13.502 12.371-13.429 2.98.033 5.93 1.551 7.856 3.424l1.196 1.325c.446.491.701 1.033.789 1.872.173 1.668-1.168 3.228-3.008 2.744-.944-.249-1.596-1.088-2.016-1.551l-.232-.257c-1.46-1.518-3.534-2.021-4.527-2.035-4.437-.067-7.49 3.192-7.55 7.81-.057 4.539 2.992 8.176 7.519 8.137 3.708-.031 6.824-3.47 6.943-7.602 0 0 .117-1.042.057-1.469 0 0 1.855.568 3.592-.904 1.315-1.112 1.446-2.808 1.446-2.808-.039 2.887 0 7.99 0 7.99s.014 1.871 1.262 3.251c1.488 1.647 3.656 1.317 3.656 1.317h-.023c.958-.002 2.745.743 2.784 2.704.043 2.324-1.775 2.981-2.733 2.985 0 0-2.472.283-4.254-.556-1.658-.782-2.745-2.177-2.745-2.177-.29-.351-.505-.703-.73-1.058l-.379-.799-.442.542c-2.362 2.621-4.99 4.01-8.61 4.06-6.888.096-12.222-5.902-12.222-13.517"/></g><g stroke-width="7.728"><path d="m176.056 91.414c.197.022.921 0 1.14-.022a6.7 6.7 0 0 0 3.401-1.492 8.92 8.92 0 0 0 .922-.9c.834-1.009 1.316-2.237 1.338-3.312 0-.198-.044-.242-.044-.242l-.087-.044-.22.132c-.548.373-1.25.57-2.018.57a3.53 3.53 0 0 1 -1.273-.219c-1.229-.395-2.062-1.294-2.61-2.808-.505-1.404-.593-2.962-.198-4.147.197-.57.614-1.25.943-1.514.658-.548 1.93-.9 3.489-1.01.417-.021 1.382 0 1.777.045 1.36.131 2.304.417 2.962.921.987.746 1.492 1.755 1.667 3.313.044.417.044 1.755 0 2.348-.087.965-.153 1.558-.241 2.04-.285 1.426-.987 3.116-1.887 4.542-.066.11-.132.241-.132.241l.154.154s-.57.614 13.318-13.296c1.207-1.207 2.216-2.238 2.216-2.238.044-.066.044-.088-1.185-1.316a6090.129 6090.129 0 0 0 -14.086-14.086c-.087 0-.153.153-.153.153s.066.154.153.351c.856 1.624 1.536 3.62 1.712 4.937.175 1.47.22 2.962.11 3.905-.154 1.317-.637 2.282-1.449 2.984-.307.242-.57.395-.987.549-.46.175-1.097.329-1.733.417-.878.11-2.129.131-3.028.022-1.36-.154-2.348-.527-2.83-1.032-.242-.263-.417-.548-.593-.921-.702-1.426-.57-3.62.33-5.375.548-1.054 1.272-1.712 2.281-2.041.439-.154.79-.197 1.273-.197.79 0 1.492.197 2.062.592l.176.088.087-.044s.044-.044.044-.242c-.022-1.03-.482-2.237-1.272-3.225a10.484 10.484 0 0 0 -.988-.987c-1.009-.812-2.128-1.317-3.4-1.47-.308-.044-1.097-.044-1.383-.022-.855.11-1.58.33-2.413.768a7.212 7.212 0 0 0 -1.558 1.053c-.395.307-.965.9-1.316 1.338-2.04 2.545-3.313 6.605-3.62 11.585-.088 1.207-.11 3.181-.023 4.388.308 4.805 1.514 8.776 3.445 11.343.746.988 1.624 1.8 2.59 2.37 1.008.636 2.04.965 3.137 1.053z" fill="#000059"/><path d="m163.79 89.703c.44.439.527.46.527.46l.11-.043c.066-.088.088-.044-.263-.593-2.063-3.269-3.598-7.657-4.125-11.848a27.053 27.053 0 0 1 -.088-5.814c.373-4.103 1.58-8.008 3.445-11.233.285-.461.702-1.12.987-1.492.066-.11.11-.198.11-.198 0-.088-.066-.132-.154-.132 0 0-.131.044-1.93 1.843-1.01 1.032-4.498 4.52-7.745 7.767-3.62 3.62-5.902 5.968-5.902 5.968v.088s1.053 1.097 3.115 3.16c.439.438 1.12 1.14 1.536 1.557.395.417 1.777 1.821 3.072 3.116 6.033 6.121 6.889 6.977 7.306 7.394z" fill="#d50000"/></g><g fill="#000059" stroke-width="1.258"><path d="m11.782 71.467c0 1.2.179 2.426.562 3.652.383 1.225.919 2.221 1.634 3.013 1.507 1.609 3.575 2.426 6.205 2.426a9.74 9.74 0 0 0 3.37-.588c1.048-.383 1.916-1.02 2.631-1.915.715-.868 1.073-1.915 1.073-3.14 0-.818-.205-1.482-.588-1.992-.408-.486-1.021-.74-1.813-.74-.74 0-1.251.229-1.558.714-.23.332-.331.868-.331 1.558 0 .46-.026.817-.103 1.098s-.255.536-.536.791c-.408.383-1.072.588-1.966.588-1.251 0-2.196-.434-2.784-1.303-.587-.868-.893-2.272-.893-4.213 0-2.043.28-3.498.868-4.367.562-.868 1.455-1.302 2.681-1.302.996 0 1.737.255 2.17.792.23.28.358.51.41.715.05.23.076.536.05.97-.05 1.353.588 2.017 1.941 2.017.587 0 1.073-.153 1.507-.485.434-.306.638-.74.638-1.277 0-.23-.025-.587-.102-1.047a6.394 6.394 0 0 1 -.102-1.021c0-.28.025-.715.102-1.302.077-.562.102-.996.102-1.277 0-.485-.153-.868-.46-1.175-.306-.306-.689-.46-1.174-.46-.51 0-.92.154-1.226.46-.306.332-.434.715-.357 1.2l-.051.051c-1.099-1.2-2.554-1.813-4.367-1.813-1.2 0-2.35.256-3.422.792s-1.915 1.277-2.553 2.247c-1.047 1.583-1.558 3.703-1.558 6.333zm21.696-1.864c0-.383.28-.587.842-.587.46 0 .869.127 1.226.357.332.255.51.613.51 1.073 0 .612-.28 1.072-.816 1.353s-1.2.485-1.967.587c-.791.128-1.557.281-2.323.46a3.758 3.758 0 0 0 -1.992 1.251c-.536.639-.817 1.507-.817 2.63 0 1.226.434 2.171 1.328 2.835s1.966.996 3.217.996c1.762 0 3.218-.536 4.367-1.634.204.561.587.97 1.123 1.225.537.281 1.124.409 1.788.409.69 0 1.302-.153 1.838-.485.537-.332.792-.818.792-1.481 0-.383-.102-.741-.332-1.022s-.562-.408-.945-.408c-.076 0-.179 0-.306.025s-.23.026-.307.026c-.28 0-.434-.409-.434-1.2v-4.801c0-1.047-.102-1.89-.332-2.503-.23-.587-.664-1.072-1.302-1.43-.894-.51-2.273-.766-4.137-.766s-3.243.28-4.162.868c-.945.588-1.405 1.328-1.405 2.196 0 .639.23 1.15.69 1.558.46.434 1.021.638 1.66.638.587 0 1.123-.153 1.557-.46.434-.28.639-.714.639-1.25zm2.579 5.337c0 1.609-.74 2.4-2.247 2.4-.97 0-1.456-.408-1.456-1.2 0-.383.256-.69.766-.868.485-.179 1.073-.307 1.711-.434.639-.102 1.047-.256 1.226-.46zm12.911-6.946c0-.434-.051-.74-.179-.894-.127-.127-.332-.204-.613-.204-.204 0-.485.051-.842.128-.383.076-.664.128-.843.128-.153 0-.409-.052-.792-.128-.383-.077-.69-.128-.97-.128-.409 0-.715.153-.945.485s-.332.766-.332 1.277c0 .97.383 1.456 1.124 1.456.128 0 .28-.026.46-.102.178-.051.306-.077.383-.077.178 0 .28.102.357.332s.102.715.102 1.455v3.678c0 .485-.025.868-.051 1.123-.025.281-.077.46-.128.536-.076.077-.153.128-.28.128a.785.785 0 0 1 -.205-.051c-.076-.026-.153-.051-.179-.051l-.46-.077c-.74 0-1.123.485-1.123 1.456 0 .51.102.919.332 1.251s.536.51.945.51c.306 0 .792-.05 1.43-.127s1.098-.128 1.43-.128.868.051 1.609.128c.74.077 1.353.128 1.838.128.409 0 .715-.18.945-.511.23-.332.332-.74.332-1.251 0-.97-.383-1.456-1.123-1.456-.154 0-.307.026-.46.077a1.052 1.052 0 0 1 -.383.102c-.179 0-.281-.128-.358-.358-.076-.23-.102-.715-.102-1.43s.026-1.327.077-1.838c.025-.51.128-1.124.306-1.813.18-.69.485-1.226.92-1.609.434-.357.97-.51 1.634-.46-.204.409-.307.74-.307.996 0 .485.18.894.537 1.2.332.307.766.46 1.251.46.664 0 1.2-.255 1.609-.74.383-.486.587-1.073.587-1.762 0-.894-.332-1.66-.996-2.273s-1.455-.92-2.375-.92c-1.098 0-1.991.282-2.706.843-.741.588-1.2 1.38-1.405 2.426h-.051zm13.915 0c0-.434-.051-.74-.179-.894-.127-.127-.332-.204-.613-.204-.204 0-.485.051-.842.128-.383.076-.664.128-.843.128-.153 0-.409-.052-.792-.128-.383-.077-.689-.128-.97-.128-.408 0-.715.153-.945.485s-.332.766-.332 1.277c0 .97.383 1.456 1.124 1.456.128 0 .28-.026.46-.102.178-.051.306-.077.383-.077.178 0 .28.102.357.332s.102.715.102 1.455v3.678c0 .485-.025.868-.05 1.123-.026.281-.078.46-.129.536-.076.077-.153.128-.28.128a.785.785 0 0 1 -.205-.051c-.076-.026-.153-.051-.179-.051l-.46-.077c-.74 0-1.123.485-1.123 1.456 0 .51.102.919.332 1.251s.536.51.945.51c.306 0 .792-.05 1.43-.127s1.098-.128 1.43-.128.868.051 1.609.128c.74.077 1.353.128 1.838.128.409 0 .715-.18.945-.511.23-.332.332-.74.332-1.251 0-.97-.383-1.456-1.123-1.456-.154 0-.307.026-.46.077a1.052 1.052 0 0 1 -.383.102c-.179 0-.281-.128-.358-.358-.076-.23-.102-.715-.102-1.43s.026-1.327.077-1.838c.025-.51.128-1.124.306-1.813.18-.69.486-1.226.92-1.609.434-.357.97-.51 1.634-.46-.204.409-.306.74-.306.996 0 .485.178.894.536 1.2.332.307.766.46 1.251.46.664 0 1.2-.255 1.609-.74.383-.486.587-1.073.587-1.762 0-.894-.332-1.66-.996-2.273s-1.455-.92-2.375-.92c-1.098 0-1.991.282-2.706.843-.741.588-1.2 1.38-1.405 2.426h-.05v-1.915zm19.15 6.256c.74 0 1.2-.102 1.404-.331.18-.23.281-.639.281-1.277 0-1.915-.536-3.397-1.608-4.495s-2.58-1.634-4.546-1.634c-2.043 0-3.677.664-4.877 1.992-1.2 1.353-1.813 3.039-1.813 5.107 0 2.094.613 3.78 1.838 5.03 1.226 1.277 2.886 1.916 4.954 1.916 1.635 0 3.014-.358 4.137-1.073 1.124-.715 1.685-1.557 1.685-2.553 0-.485-.153-.894-.485-1.175s-.766-.434-1.277-.434c-.434 0-.74.051-.97.179-.23.127-.562.408-.97.842-.358.383-.69.664-.97.792s-.665.204-1.099.204c-.74 0-1.379-.255-1.864-.74-.51-.485-.766-1.073-.766-1.813 0-.23.051-.358.128-.434.076-.077.28-.103.613-.103zm-5.746-2.834c-.408 0-.69-.026-.842-.077-.154-.025-.23-.127-.23-.28 0-.358.255-.716.74-1.099a2.541 2.541 0 0 1 1.635-.561c.587 0 1.072.153 1.404.485s.51.715.51 1.098c0 .153-.025.255-.101.332-.077.076-.256.102-.537.102zm10.483 3.984c0 .689-.026 1.149-.077 1.404-.077.255-.204.383-.383.383-.051 0-.179-.025-.383-.102a3.812 3.812 0 0 0 -.46-.077c-.74 0-1.123.485-1.123 1.456 0 .51.127.92.357 1.251.23.332.587.51 1.047.51.23 0 .664-.05 1.302-.127.639-.076 1.124-.128 1.481-.128.332 0 .869.051 1.558.128.69.077 1.226.128 1.609.128.51 0 .894-.153 1.149-.485.23-.332.357-.74.357-1.277 0-.97-.383-1.456-1.123-1.456-.026 0-.179.026-.434.077a1.042 1.042 0 0 1 -.409.102c-.179 0-.306-.102-.357-.332-.077-.23-.102-.715-.102-1.455v-4.673c0-.384.025-.639.102-.792.076-.128.204-.204.434-.204.894 0 1.455-.103 1.736-.307.281-.179.409-.587.409-1.174 0-.511-.128-.869-.358-1.073s-.715-.306-1.455-.306c-.434 0-.664-.026-.74-.103-.077-.076-.128-.306-.128-.715 0-.97.434-1.455 1.276-1.455.18 0 .358.025.511.102-.153.255-.23.485-.23.69 0 .434.179.791.536 1.072.358.28.767.434 1.2.434.562 0 1.022-.179 1.38-.562.357-.383.536-.842.536-1.43 0-.97-.51-1.736-1.532-2.272-.69-.358-1.584-.537-2.63-.537-1.38 0-2.554.332-3.499.97-.97.665-1.481 1.66-1.532 2.963-.026.383-.077.638-.153.715-.102.077-.383.128-.868.128-.511 0-.869.127-1.099.357s-.331.613-.331 1.15c0 .535.127.893.383 1.072.23.178.638.28 1.174.28.409 0 .664.052.74.128.077.102.128.383.128.869v4.673z"/><path d="m100.668 66.513c-2.17 0-3.856.613-5.03 1.864-1.175 1.251-1.762 2.962-1.762 5.158 0 2.222.587 3.933 1.762 5.159 1.174 1.251 2.86 1.864 5.056 1.864 2.17 0 3.804-.639 4.928-1.94s1.685-3.04 1.685-5.236c0-2.068-.587-3.754-1.762-5.005-1.174-1.251-2.808-1.864-4.877-1.864zm-.077 3.218c1.66 0 2.503 1.276 2.503 3.804 0 1.047-.179 1.941-.562 2.707-.357.74-1.047 1.098-2.068 1.098-.639 0-1.175-.306-1.66-.893-.485-.588-.715-1.558-.715-2.912 0-1.302.255-2.272.74-2.885s1.073-.92 1.762-.92zm13.319-1.686c0-.408-.026-.715-.102-.893-.077-.18-.256-.256-.562-.256-.205 0-.485.051-.843.128-.383.076-.69.128-.97.128s-.69-.052-1.175-.128c-.485-.077-.868-.128-1.15-.128-1.097 0-1.633.587-1.633 1.762 0 .97.383 1.456 1.123 1.456.102 0 .256-.026.46-.102l.383-.077c.102 0 .179.025.255.102.051.077.102.255.153.536.026.281.052.664.052 1.15v4.724c0 1.302.383 2.298 1.123 3.013.74.74 1.788 1.098 3.09 1.098.894 0 1.736-.204 2.58-.588.816-.383 1.455-.919 1.914-1.608h.051v1.021c0 .23.077.409.23.587.153.18.383.256.69.256.153 0 .408-.051.791-.128.358-.076.639-.128.817-.128.18 0 .486.051.894.128.383.077.69.128.92.128.51 0 .893-.153 1.149-.485.23-.332.357-.74.357-1.277 0-.97-.383-1.456-1.123-1.456-.128 0-.256.026-.435.077a1.15 1.15 0 0 1 -.408.102c-.307 0-.46-.587-.46-1.787v-7.661c0-.307-.05-.536-.153-.664-.128-.128-.332-.179-.664-.179-.204 0-.485.051-.868.128-.383.076-.715.128-.945.128-.28 0-.638-.052-1.124-.128-.485-.077-.842-.128-1.123-.128-1.047 0-1.558.587-1.558 1.762 0 .97.383 1.456 1.124 1.456.102 0 .255-.026.46-.102l.382-.077c.18 0 .281.128.358.357.077.256.102.74.102 1.43v1.762c0 1.15-.204 2.043-.587 2.63-.434.69-1.047 1.022-1.839 1.022-.613 0-1.098-.255-1.43-.792-.204-.332-.306-.996-.306-1.94zm17.002-.051c0-.434-.051-.74-.179-.894-.127-.127-.332-.204-.612-.204-.205 0-.486.051-.843.128-.383.076-.664.128-.843.128-.153 0-.408-.052-.791-.128-.383-.077-.69-.128-.97-.128-.41 0-.716.153-.946.485s-.332.766-.332 1.277c0 .97.383 1.456 1.124 1.456.128 0 .28-.026.46-.102.178-.051.306-.077.383-.077.178 0 .28.102.357.332s.102.715.102 1.455v3.678c0 .485-.025.868-.05 1.123-.026.281-.077.46-.129.536-.076.077-.153.128-.28.128a.785.785 0 0 1 -.205-.051c-.076-.026-.153-.051-.178-.051l-.46-.077c-.74 0-1.124.485-1.124 1.456 0 .51.102.919.332 1.251s.537.51.945.51c.307 0 .792-.05 1.43-.127.639-.077 1.098-.128 1.43-.128s.868.051 1.609.128c.74.077 1.353.128 1.838.128.409 0 .715-.18.945-.511.23-.332.332-.74.332-1.251 0-.97-.383-1.456-1.123-1.456-.154 0-.307.026-.46.077a1.052 1.052 0 0 1 -.383.102c-.179 0-.28-.128-.357-.358s-.103-.715-.103-1.43.026-1.327.077-1.838c.026-.51.128-1.124.306-1.813.18-.69.486-1.226.92-1.609.434-.357.97-.51 1.634-.46-.204.409-.306.74-.306.996 0 .485.178.894.536 1.2.332.307.766.46 1.251.46.664 0 1.2-.255 1.609-.74.383-.486.587-1.073.587-1.762 0-.894-.332-1.66-.996-2.273s-1.455-.92-2.375-.92c-1.098 0-1.991.282-2.706.843-.74.588-1.2 1.38-1.405 2.426h-.05v-1.915z"/></g><path d="m103.96 96.836v-5.488h4.548v5.488h5.488v4.548h-5.488v5.518h-4.548v-5.518h-5.488v-4.548zm0 80.118v-5.488h4.548v5.488h5.488v4.549h-5.488v5.518h-4.548v-5.518h-5.488v-4.549z"/><path d="m67.873 199.028h6.815v18.667h8.67v6.593h-15.485zm-22.025 0h-6.519l-3.333 19.484-3.039-19.335h-7.851l-2.962 20.298-3.705-20.447h-6.889l6.204 25.26h8.149l3.203-16.296 3.112 16.296h7.778zm129.873 0h20.89v6.888h-6.962v18.567h-6.965v-18.567h-6.963zm-75.091 0h10.372l3.628 19.778 3.41-19.705h10.444v25.187h-6.518v-17.555l-4.148 17.555h-6.594l-4-18.075v18.075h-6.594zm-43.772 13.927-2.668-9.04-2.74 9.04zm-6.963 6.073-1.093 5.26h-6.964l7.463-25.187h10.075l7.481 25.187h-6.963l-1.333-5.26zm94.335-6.073-2.667-9.04-2.741 9.04zm-6.964 6.073-1.092 5.26h-6.963l7.463-25.187h10.074l7.481 25.187h-6.962l-1.333-5.26zm24.378-13.705v4.52h4.519s1.926-.37 1.926-2.666c0-1.854-2-1.854-2-1.854zm7.333-6.222s6 .223 6 6.743c0 6.517-6.147 7.925-6.147 7.925l7.128 10.52h-8l-6.165-9.778v9.777h-6.816v-25.187zm-80.553 9.096h-6.66l5.374 3.924-2.08 6.372 5.423-3.97 5.345 3.91-2.046-6.315 5.34-3.921h-6.612l-2.036-6.295-2.059 6.308m111.002-7.671c.205.005.347-.045.347-.275 0-.245-.262-.245-.44-.245h-.444v.52zm.649 1.048h-.418l-.408-.772h-.36v.772h-.36v-1.83h.888c.155 0 .36.005.498.085.164.106.213.284.213.475 0 .337-.173.475-.497.498zm.533-.924c0-.763-.613-1.377-1.377-1.377-.77 0-1.382.614-1.382 1.377 0 .77.613 1.381 1.382 1.381.764 0 1.377-.612 1.377-1.38m-3.08 0c0-.933.761-1.697 1.703-1.697.933 0 1.698.764 1.698 1.696 0 .937-.765 1.702-1.698 1.702a1.703 1.703 0 0 1 -1.702-1.702" fill="#000059"/></svg>