<svg clip-rule="evenodd" fill-rule="evenodd" height="469" image-rendering="optimizeQuality" shape-rendering="geometricPrecision" text-rendering="geometricPrecision" viewBox="-.5 -.5 6896 1294" width="2500" xmlns="http://www.w3.org/2000/svg"><path d="m5932.5-.5h42c86.53 9.705 148.03 54.039 184.5 133 14.65 33.271 23.98 67.937 28 104-34.02-26.45-72.52-37.95-115.5-34.5-42.72 7.102-76.55 28.269-101.5 63.5-21.78 32.993-33.78 69.327-36 109a338.481 338.481 0 0 0 6 85c10.53 48.189 39.03 80.356 85.5 96.5a295.901 295.901 0 0 0 71 14c195.92 19.75 288.75-68.75 278.5-265.5-6.5-82.324-29.66-159.658-69.5-232 .33-.333.67-.667 1-1 196.35 191.355 392.69 382.688 589 574v2c-196.31 191.312-392.65 382.65-589 574l-1-1c39.84-72.34 63-149.68 69.5-232 10.32-196.675-82.51-285.175-278.5-265.5-33.68 2.085-65.68 10.419-96 25-32.89 19.262-53.05 47.762-60.5 85.5-10.96 51.436-8.3 102.102 8 152 15.9 43.57 44.74 75.4 86.5 95.5 37.42 15.22 74.75 14.88 112-1 14.56-6.19 28.06-14.03 40.5-23.5-5.35 51.71-22.01 99.37-50 143-39.37 56.45-93.53 87.78-162.5 94h-42c-49.45-7.22-93.45-26.72-132-58.5-47.49-40.48-85.65-88.31-114.5-143.5-42.11-82.33-69.78-169.33-83-261-21.4-144.728-17.4-288.728 12-432 17.55-83.007 48.22-160.673 92-233 32.33-51.997 73.83-95.164 124.5-129.5 31.1-19.564 64.77-31.73 101-36.5z" fill="#0054d4" opacity=".998"/><path d="m5534.5 36.5c.74-.131 1.41.036 2 .5-62.91 87.667-110.08 183.5-141.5 287.5-72.99 244.544-63.66 485.877 28 724 29.68 74.42 67.18 143.76 112.5 208-209-203-417.66-406.331-626-610 208.35-203.355 416.69-406.688 625-610z" fill="#fe0000" opacity=".991"/><g fill="#0054d4"><path d="m-.5 571.5v-61c2.828-40.961 9.995-81.294 21.5-121 28.38-95.38 90.88-154.88 187.5-178.5 39.605-8.243 79.272-8.576 119-1 40.276 9.208 74.11 29.042 101.5 59.5.87-.608 1.37-1.441 1.5-2.5-2.1-31.915 12.567-51.249 44-58 23.831-4.507 43.998 1.993 60.5 19.5 10.913 16.004 14.913 33.671 12 53a1092.625 1092.625 0 0 0 -6.5 77l.5 18a1778.521 1778.521 0 0 1 6 48c3.024 33.618-11.143 56.451-42.5 68.5-25.13 8.711-50.13 8.377-75-1-17.634-9.071-27.467-23.571-29.5-43.5-.472-5.836-.972-11.669-1.5-17.5 6.325-42.709-10.342-72.043-50-88-95.651-21.097-150.818 16.737-165.5 113.5-8.958 58.451-8.292 116.784 2 175 18.371 84.636 70.538 119.803 156.5 105.5 35.375-7.371 55.542-28.871 60.5-64.5.189-16.69.855-33.357 2-50 7.534-36.795 30.201-54.795 68-54 49.805 1.8 78.139 27.466 85 77 7.089 77.311-21.411 137.478-85.5 180.5-52.289 31.074-108.955 46.241-170 45.5-166.919-2.77-265.42-86.104-295.5-250a856.746 856.746 0 0 1 -6.5-50z" opacity=".997"/><path d="m2846.5 204.5c31.88-1.966 63.21 1.201 94 9.5 32.93 9.278 57.1 29.112 72.5 59.5 11.66 30.364 7.66 58.364-12 84-19.73 18.725-42.89 24.891-69.5 18.5-27.1-7.254-42.1-24.754-45-52.5.07-8.884 2.74-16.884 8-24-15.78-6.054-31.12-4.887-46 3.5-8.67 7.165-13.83 16.331-15.5 27.5-2.27 13.424-1.94 26.757 1 40 2.59 3.547 6.09 5.381 10.5 5.5 14.69.223 29.36.89 44 2 28.97 3.319 42.3 19.653 40 49a102.158 102.158 0 0 1 -4.5 30.5c-5.67 10.65-14.5 17.15-26.5 19.5a547.566 547.566 0 0 1 -55 5c-7.61 5.049-11.11 12.215-10.5 21.5-.67 69-.67 138 0 207 .13 9.106 1.13 18.106 3 27 2.77 10.137 9.27 13.637 19.5 10.5 15.92-7.591 31.59-7.258 47 1 9.57 8.31 15.07 18.81 16.5 31.5 3.09 19.976.09 38.976-9 57-8.22 12.362-19.72 19.529-34.5 21.5-9.67.667-19.33.667-29 0a1827.275 1827.275 0 0 1 -67-7c-19-2-38-2-57 0a3670.142 3670.142 0 0 1 -60 7c-37.37 3.722-58.2-13.111-62.5-50.5-2.52-17.554.15-34.221 8-50 7.79-10.897 18.46-16.23 32-16a93.879 93.879 0 0 1 25.5 5.5c10.86 2.154 17.03-2.346 18.5-13.5.93-5.299 1.6-10.633 2-16 .67-74 .67-148 0-222-.64-10.307-6.14-15.474-16.5-15.5-57.14 6.529-79.64-18.305-67.5-74.5 6.22-18.883 19.38-28.717 39.5-29.5 11.04-.181 22.04-.847 33-2 8.2-1.87 12.37-7.037 12.5-15.5-.45-68.662 31.05-115.495 94.5-140.5 21.53-7.604 43.53-12.437 66-14.5z" opacity=".995"/><path d="m792.5 363.5a618.7 618.7 0 0 1 104 6.5c26.923 3.862 51.923 12.862 75 27 22.045 15.395 36.21 36.228 42.5 62.5a265.556 265.556 0 0 1 6 42c.33 68.667.67 137.333 1 206-.01 10.447.99 20.78 3 31 .92 4.688 3.42 8.188 7.5 10.5 11.99-.19 23.99-.19 36 0 20.98 5.413 33.15 18.913 36.5 40.5 4.03 29.775-6.81 52.275-32.5 67.5-33.83 15.837-68.83 18.837-105 9-29.444-7.459-50.278-24.959-62.5-52.5-39.127 35.504-85.293 54.67-138.5 57.5-42.069 3.653-81.735-4.347-119-24-48.879-30.937-70.046-75.437-63.5-133.5 3.512-53.482 29.679-90.982 78.5-112.5a286.195 286.195 0 0 1 48-15 5558.46 5558.46 0 0 1 84-16c21.384-3.342 40.717-11.342 58-24 16.043-17.209 20.21-37.043 12.5-59.5-8.68-16.274-22.18-26.107-40.5-29.5-14.024-3.573-27.691-2.573-41 3-3.866 3.252-6.033 7.419-6.5 12.5 4.81 46.188-15.69 73.022-61.5 80.5-33.443 5.69-61.943-3.476-85.5-27.5-24.301-33.677-24.635-67.677-1-102 12.496-14.5 27.329-26 44.5-34.5 21.405-9.69 43.739-16.357 67-20a630.724 630.724 0 0 1 53-5.5zm74 287c2.101 18.074.934 36.074-3.5 54-7.596 23.93-23.43 39.43-47.5 46.5-20.871 5.785-41.205 4.452-61-4-15.031-9.72-21.197-23.554-18.5-41.5 2.233-7.23 6.399-13.063 12.5-17.5a110.64 110.64 0 0 1 29-12c23.115-4.49 46.115-9.49 69-15 7.455-2.225 14.122-5.725 20-10.5z" opacity=".997"/><path d="m2337.5 363.5c44.91-2.294 87.91 5.54 129 23.5 55.83 29.423 90 75.256 102.5 137.5 5.92 30.869 6.92 61.869 3 93-3.98 12.645-12.48 20.478-25.5 23.5-4.29.912-8.63 1.579-13 2l-246 1c-5.73.21-11.4.876-17 2-3.67 1.668-5.83 4.501-6.5 8.5-1.71 45.603 18.46 77.103 60.5 94.5 27.56 8.978 54.23 6.978 80-6l12-9a1157.594 1157.594 0 0 1 41-40c15.72-10.594 33.05-14.594 52-12 31.68 2.057 50.51 18.557 56.5 49.5 1.77 27.02-6.23 50.687-24 71-27.17 28.516-60.01 47.683-98.5 57.5-59.55 15.948-118.88 15.281-178-2-80.73-29.412-130.23-86.245-148.5-170.5-13.18-65.221-7.18-128.555 18-190 41.22-84.001 108.72-128.667 202.5-134zm10 105c24.28-1.301 44.78 6.699 61.5 24 9.65 11.618 13.65 24.951 12 40-2.25 4.869-6.08 7.369-11.5 7.5-41.33.667-82.67.667-124 0-16.76-1.019-21.6-9.185-14.5-24.5 12.72-20.967 30.89-35.133 54.5-42.5a184.325 184.325 0 0 1 22-4.5z" opacity=".996"/></g><path d="m3167.5 363.5c51.17-2.933 99.51 7.234 145 30.5 52.08 31.246 85.91 76.412 101.5 135.5 14.86 62.66 13.52 124.994-4 187-30.27 92.092-93.77 143.259-190.5 153.5-41.94 4.005-83.27.671-124-10-74.33-23.001-122.5-71.834-144.5-146.5-17.21-66.186-16.54-132.186 2-198 26.19-77.848 79.35-126.015 159.5-144.5 18.32-3.69 36.66-6.19 55-7.5zm8 117c39.72-1.738 67.22 15.595 82.5 52 18.53 57.204 17.86 114.204-2 171-13.52 34.95-39.19 51.95-77 51-28.48-.505-50.15-12.839-65-37-12.26-21.697-19.26-45.031-21-70-4.12-36.832-.45-72.832 11-108 12.38-33.902 36.21-53.568 71.5-59zm-1714-112c45.66-4.288 83.83 10.378 114.5 44 26.44 34.823 32.1 72.823 17 114-18.8 39.178-49.63 54.345-92.5 45.5-34.97-12.42-48.8-36.92-41.5-73.5a89.097 89.097 0 0 1 8.5-19.5c-39-1.342-66.5 15.825-82.5 51.5-10.25 24.672-16.58 50.339-19 77a661.824 661.824 0 0 0 -1 121 48.55 48.55 0 0 0 5 16c4.09 3.805 8.92 4.972 14.5 3.5 42.87-13.665 64.87 2.169 66 47.5.07 16.062-3.77 31.062-11.5 45-6.58 10.038-15.75 16.205-27.5 18.5-10.67.667-21.33.667-32 0a2676.342 2676.342 0 0 0 -99.5-8.5c-33.37 2.588-66.7 5.588-100 9-23.39.279-38.73-10.721-46-33-5.51-18.913-5.84-37.913-1-57 7.62-19.925 22.12-28.759 43.5-26.5 6.75 1.353 13.41 3.02 20 5 6.39 1.942 11.22.109 14.5-5.5a90.019 90.019 0 0 0 5-25 9950.5 9950.5 0 0 0 0-200 70.192 70.192 0 0 0 -5-24c-2.54-3.688-6.04-5.354-10.5-5a315.438 315.438 0 0 0 -24 5.5c-25.67 2.411-40.83-9.089-45.5-34.5-3.87-21.713-.87-42.379 9-62 11.48-16.816 27.31-23.316 47.5-19.5a899.83 899.83 0 0 0 52.5 8.5c5.21-.11 10.37-.61 15.5-1.5a570.901 570.901 0 0 1 36-7c8.49-1.066 16.83-.399 25 2 6.69 3.862 10.52 9.696 11.5 17.5 1.27 29.639 1.93 59.306 2 89 16.12-70.297 59.95-109.63 131.5-118z" fill="#0055d4" opacity=".996"/><g fill="#0054d4"><path d="m1956.5 368.5c45.66-4.288 83.83 10.378 114.5 44 23.89 30.792 30.89 65.126 21 103-16.02 46.266-48.19 65.099-96.5 56.5-34.98-12.46-48.82-36.96-41.5-73.5a89.097 89.097 0 0 1 8.5-19.5c-39-1.342-66.5 15.825-82.5 51.5-10.25 24.671-16.58 50.338-19 77a665.41 665.41 0 0 0 -1 121 48.55 48.55 0 0 0 5 16c4.09 3.805 8.92 4.972 14.5 3.5 43.12-13.586 65.12 2.414 66 48-.01 15.884-3.85 30.717-11.5 44.5-6.58 10.038-15.75 16.205-27.5 18.5-10.67.667-21.33.667-32 0a2676.342 2676.342 0 0 0 -99.5-8.5c-33.37 2.588-66.7 5.588-100 9-23.39.279-38.73-10.721-46-33-6.33-20.816-5.99-41.483 1-62 7.12-14.402 18.79-21.736 35-22a256.996 256.996 0 0 1 31 6c5.61.064 9.28-2.603 11-8a118.64 118.64 0 0 0 4-23 3909.136 3909.136 0 0 0 1-166c-.2-14.693-.86-29.359-2-44-.38-6.819-2.88-12.652-7.5-17.5a16.088 16.088 0 0 0 -7-1.5 175.465 175.465 0 0 0 -23 5.5c-26.05 2.724-41.55-8.776-46.5-34.5-3.87-21.713-.87-42.379 9-62 11.48-16.816 27.31-23.316 47.5-19.5a899.83 899.83 0 0 0 52.5 8.5c5.21-.11 10.37-.61 15.5-1.5a570.901 570.901 0 0 1 36-7c8.49-1.066 16.83-.399 25 2 5.31 2.992 8.81 7.492 10.5 13.5a74.522 74.522 0 0 1 2 11c.33 27.333.67 54.667 1 82 16.12-70.297 59.95-109.63 131.5-118z" opacity=".996"/><path d="m4390.5 368.5c49.25-4.436 89.08 12.564 119.5 51 27.11 42.434 27.11 84.768 0 127-27.1 29.213-58.93 35.713-95.5 19.5-25.09-16.376-33.92-39.209-26.5-68.5a209.485 209.485 0 0 1 7.5-18c-30.22-2.636-54.06 8.364-71.5 33-11.72 18.823-19.72 39.156-24 61a530.623 530.623 0 0 0 -8.5 105.5c-.3 17.231.53 34.398 2.5 51.5.55 7.003 3.38 12.836 8.5 17.5 3.67.667 7.33.667 11 0 43.25-13.524 64.92 2.476 65 48 1.42 21.409-5.24 39.742-20 55-5.28 4.207-11.28 6.873-18 8-10.67.667-21.33.667-32 0a3036.361 3036.361 0 0 0 -100-8.5c-33.2 2.629-66.37 5.629-99.5 9-23.04.477-38.37-10.19-46-32-6.58-22.264-5.92-44.264 2-66 7.48-12.662 18.65-18.996 33.5-19a205.97 205.97 0 0 1 31 6c5.97-.119 9.8-3.119 11.5-9a120.132 120.132 0 0 0 4-27c.67-63.333.67-126.667 0-190a125.366 125.366 0 0 0 -3-23c-2.48-9.825-8.64-13.325-18.5-10.5-11.93 5.351-24.26 6.684-37 4-9.56-2.898-16.73-8.731-21.5-17.5-6.13-15.424-8.13-31.424-6-48 1.34-17.85 8.84-32.35 22.5-43.5 10.92-6.071 22.59-8.071 35-6 17.27 3.289 34.61 6.122 52 8.5 5.37-.095 10.71-.595 16-1.5a437.192 437.192 0 0 1 35-7c8.81-1.029 17.48-.363 26 2 6.77 4.687 10.6 11.187 11.5 19.5a2174.96 2174.96 0 0 1 2 87c15.68-70.856 59.52-110.19 131.5-118z" opacity=".995"/><path d="m3467.5 377.5c7.67-.166 15.34 0 23 .5a894.276 894.276 0 0 1 48 7 195.09 195.09 0 0 0 36 1 548.358 548.358 0 0 1 51-8.5c15.78-1.048 24.28 6.285 25.5 22 .33 89.667.67 179.333 1 269-.16 17.87 3.51 34.87 11 51 20.68 26.336 46.85 33.836 78.5 22.5 24.11-10.775 40.61-28.608 49.5-53.5a153.99 153.99 0 0 0 9-44c.67-41.667.67-83.333 0-125a83.142 83.142 0 0 0 -5-25c-3.64-5.677-8.8-7.51-15.5-5.5-43.26 13.861-65.26-1.972-66-47.5-.04-46.3 22.96-67.467 69-63.5a821.484 821.484 0 0 1 46 7 176.907 176.907 0 0 0 34 1 904.284 904.284 0 0 0 37-7c10.34-1.931 20.68-1.931 31 0 9.59 2.93 14.76 9.43 15.5 19.5.33 102.333.67 204.667 1 307a133.066 133.066 0 0 0 5 35c3.47 7.595 9.31 10.095 17.5 7.5 15.92-7.591 31.59-7.258 47 1 9.57 8.31 15.07 18.81 16.5 31.5 2.22 15.958.88 31.625-4 47-7.21 17.873-20.38 28.373-39.5 31.5-7 .667-14 .667-21 0a645.898 645.898 0 0 0 -54.5-8.5c-5.21.11-10.37.61-15.5 1.5a620.752 620.752 0 0 1 -34 7c-14.98 2.969-27.48-1.197-37.5-12.5l-3-6a1391.087 1391.087 0 0 1 -2.5-48c-31.28 41.164-72.62 66.331-124 75.5-40.25 7.675-79.25 3.675-117-12-39.87-20.566-63.71-53.066-71.5-97.5-1.8-11.26-2.8-22.594-3-34-.33-67.667-.67-135.333-1-203-.47-8.146-1.8-16.146-4-24-2.01-5.53-5.85-8.53-11.5-9a156.222 156.222 0 0 0 -24 5.5c-25.67 2.411-40.83-9.089-45.5-34.5-3.4-18.95-1.4-37.283 6-55 9.52-15.691 23.35-24.691 41.5-27z" opacity=".996"/></g></svg>