<svg clip-rule="evenodd" fill-rule="evenodd" height="469" image-rendering="optimizeQuality" shape-rendering="geometricPrecision" text-rendering="geometricPrecision" viewBox="-.5 -.5 4904 920" width="2500" xmlns="http://www.w3.org/2000/svg"><path d="m4215.5-.5h36c62.31 8.135 105.81 41.135 130.5 99a315.738 315.738 0 0 1 18.5 68.5c-1 .667-2 .667-3 0-38.17-28.418-78.17-31.418-120-9-28.4 19.587-46.23 46.42-53.5 80.5-7.47 36.218-5.47 71.885 6 107 9.98 22.648 26.48 38.481 49.5 47.5 23.61 8.324 47.94 12.657 73 13 28.79 1.965 57.13-.702 85-8 49.93-16.6 80.09-50.767 90.5-102.5 9.72-53.702 6.72-106.702-9-159a432.351 432.351 0 0 0 -35.5-85c.33-.333.67-.667 1-1 139.69 136.021 279.35 272.021 419 408v2c-139.65 135.979-279.31 271.979-419 408-.33-.333-.67-.667-1-1 36.48-64.909 52.98-134.576 49.5-209-8.55-99.543-62.88-148.209-163-146-28.02-.443-55.52 3.057-82.5 10.5-36.93 11.935-58.43 37.101-64.5 75.5-7.61 39.281-3.61 77.281 12 114 27.03 52.097 69.2 71.597 126.5 58.5 13.17-4.251 25.17-10.584 36-19 1-.667 2-.667 3 0-5.2 41.968-20.37 79.801-45.5 113.5-27.51 31.34-62.01 49.34-103.5 54h-35c-34.44-5.426-65.11-19.26-92-41.5-40.51-35.158-71.68-77.325-93.5-126.5-33.29-76.835-51.62-157.169-55-241-5.85-91.936 3.48-182.269 28-271 16.67-58.013 43.34-110.68 80-158 23.1-28.446 50.94-50.946 83.5-67.5 15.48-6.996 31.48-11.83 48-14.5z" fill="#000041" opacity=".995"/><path d="m3935.5 25.5c-74.96 110.658-118.46 233.324-130.5 368-12.49 158.569 19.84 307.235 97 446a18763.57 18763.57 0 0 0 34 54 90802.42 90802.42 0 0 1 -444.5-434 136708.65 136708.65 0 0 1 444-434z" fill="#fe0000" opacity=".988"/><g fill="#000041"><path d="m-.5 410.5v-52c2.44-32.362 8.94-64.029 19.5-95 26.962-69.26 77.462-108.427 151.5-117.5 41.887-5.494 80.221 3.506 115 27l19.5 17.5c.156-27.823 14.156-42.156 42-43 24.342.679 38.342 13.012 42 37a1563.612 1563.612 0 0 1 -4.5 69.5 741.05 741.05 0 0 0 5 54c-.616 20.278-10.283 34.278-29 42-18.341 5.999-36.674 5.999-55 0-13.108-6.796-20.274-17.629-21.5-32.5a446.776 446.776 0 0 0 -2-39c-7.954-21.6-23.454-34.1-46.5-37.5-51.698-8.549-85.198 11.951-100.5 61.5-12.556 53.343-12.556 106.676 0 160 12.424 42.42 40.757 63.42 85 63 17.857 1.164 34.024-3.336 48.5-13.5 7.816-6.459 12.982-14.625 15.5-24.5a381.336 381.336 0 0 0 3-45c5.381-26.138 21.548-39.138 48.5-39 32.659.83 52.492 17.163 59.5 49 7.948 58.924-12.886 104.424-62.5 136.5-42.862 24.04-88.862 34.04-138 30-102.49-8.163-164.99-62.33-187.5-162.5a516.338 516.338 0 0 1 -7.5-46z" opacity=".991"/><path d="m2032.5 144.5c22.2-.351 43.87 2.816 65 9.5 27.34 9.996 43.84 29.163 49.5 57.5 2.09 29.211-10.75 48.044-38.5 56.5-22.55 3.939-40.05-3.561-52.5-22.5-5.08-10.965-4.58-21.631 1.5-32a3.627 3.627 0 0 0 -1-1.5c-10.41-2.703-20.41-1.703-30 3-6.48 4.439-10.31 10.605-11.5 18.5-1.96 9.673-1.96 19.339 0 29 1.17 1.167 2.33 2.333 3.5 3.5a282.78 282.78 0 0 0 31 2c9.97.194 18.8 3.361 26.5 9.5 3.68 5.042 5.68 10.708 6 17 1.75 12.209.08 23.876-5 35-5.8 6.163-12.96 9.663-21.5 10.5-11.69.885-23.36 1.885-35 3-4.47 3.78-6.64 8.613-6.5 14.5-.67 49.667-.67 99.333 0 149-.09 7.617 1.24 14.95 4 22a11.475 11.475 0 0 0 4.5 3.5 1473.3 1473.3 0 0 1 24.5-4.5c16.79 1.126 26.13 10.126 28 27 4.07 45.417-16.43 63.917-61.5 55.5-19.1-2.567-38.27-4.4-57.5-5.5a1644.242 1644.242 0 0 0 -72.5 7c-21.64-2.141-33.47-14.141-35.5-36-2-13.022 0-25.355 6-37 5.71-7.272 13.21-10.939 22.5-11 7.55.72 14.88 2.386 22 5 4.27-1.1 7.1-3.766 8.5-8a78.076 78.076 0 0 0 2-13c.67-53 .67-106 0-159-.19-4.171-2.02-7.338-5.5-9.5-11.68-.942-23.35-1.942-35-3-12.61-3.285-19.45-11.452-20.5-24.5-4.58-36.755 11.59-52.922 48.5-48.5 3.79-.373 7.29-1.539 10.5-3.5 1.85-3.069 2.85-6.402 3-10 .52-49.56 24.02-82.727 70.5-99.5 17.1-5.237 34.44-8.404 52-9.5z" opacity=".989"/><path d="m553.5 258.5c36.163-2.103 71.83 1.064 107 9.5 41.35 12.366 62.85 40.199 64.5 83.5.927 57.692 1.927 115.359 3 173 .606 3.048 2.106 5.548 4.5 7.5 41.259-5.077 58.092 12.756 50.5 53.5-7.533 16.194-20.033 26.361-37.5 30.5-28.902 7.442-56.235 3.775-82-11a101.553 101.553 0 0 1 -12.5-11.5 6891.129 6891.129 0 0 0 -9-14c-26.925 23.655-58.425 36.821-94.5 39.5-31.976 3.451-61.976-2.549-90-18-29.255-18.828-43.921-45.828-44-81-.863-48.673 21.47-81.006 67-97a266.503 266.503 0 0 1 25-7 6265.247 6265.247 0 0 0 63-12c16.312-2.571 30.145-9.738 41.5-21.5 6.076-9.475 8.076-19.808 6-31-4.05-11.718-11.883-19.884-23.5-24.5-10.492-3.656-21.158-4.322-32-2-5.051 1.717-7.885 5.217-8.5 10.5 3.818 29.822-8.682 48.655-37.5 56.5-22.28 5.511-42.614 1.511-61-12-18.759-18.111-23.926-39.611-15.5-64.5 7.39-16.056 18.89-28.223 34.5-36.5 25.79-12.031 52.79-18.864 81-20.5zm62 204c3.352 18.226.518 35.559-8.5 52-7.046 10.04-16.546 16.54-28.5 19.5-15.698 4.328-30.698 2.661-45-5-9-8-12.167-17.833-9.5-29.5 3.105-6.98 8.271-11.814 15.5-14.5l12-4a1113.476 1113.476 0 0 0 50-11c5.431-1.292 10.098-3.792 14-7.5z" opacity=".991"/></g><path d="m1654.5 258.5c32.05-2.445 63.05 2.055 93 13.5 45.68 21.041 72.51 56.541 80.5 106.5a236.516 236.516 0 0 1 2 56c-2.66 14.601-11.49 22.101-26.5 22.5l-181 1c-9.51-.153-13.85 4.513-13 14 4.51 40.175 27.01 61.675 67.5 64.5 14.79.071 27.96-4.429 39.5-13.5a654.986 654.986 0 0 1 31-30c9.15-6.331 19.32-9.164 30.5-8.5 28.59-.238 44.42 13.762 47.5 42-2.99 26.146-15.32 46.646-37 61.5-34.24 21.771-71.74 32.271-112.5 31.5-49.96 1.355-92.96-14.979-129-49-32.21-37.104-47.71-80.438-46.5-130-.87-47.564 13.3-89.897 42.5-127 29.96-32.899 67.13-51.232 111.5-55zm10 75c19.6-2.191 36.1 3.809 49.5 18 6.23 8.36 8.56 17.694 7 28-3.47 3.223-7.64 4.723-12.5 4.5-29.36.904-58.69.571-88-1-4.68-.68-7.35-3.347-8-8 2.98-10.934 8.98-19.934 18-27 10.37-7.36 21.71-12.193 34-14.5z" fill="#000042" opacity=".991"/><g fill="#000041"><path d="m2244.5 258.5c37.8-3.09 73.8 3.41 108 19.5 45.21 26.178 71.71 65.345 79.5 117.5 6.29 41.794 2.96 82.794-10 123-21.25 56.399-61.75 89.233-121.5 98.5-41.2 6.286-81.2 1.952-120-13-42.25-19.928-69.75-52.428-82.5-97.5-11.61-46.097-11.28-92.097 1-138 19.58-59.238 60.08-94.738 121.5-106.5a699.988 699.988 0 0 1 24-3.5zm14 83c28.31-.768 47.81 11.899 58.5 38 8.04 25.068 10.7 50.734 8 77-1.64 20.568-7.31 39.901-17 58-7.25 10.375-17.08 16.875-29.5 19.5-28.39 7.045-50.23-1.788-65.5-26.5-10.45-21.597-15.29-44.431-14.5-68.5-.4-20.545 3.1-40.378 10.5-59.5 9.78-21.63 26.28-34.296 49.5-38z" opacity=".991"/><path d="m1039.5 261.5c37.84-2.994 67.34 11.006 88.5 42 11.59 21.792 13.59 44.458 6 68-13.58 30.542-36.75 42.042-69.5 34.5-24.44-10.38-33.27-28.547-26.5-54.5a68.084 68.084 0 0 1 4.5-10c-21.2-1.984-38.03 5.683-50.5 23-12.578 22.302-19.578 46.302-21 72a593.481 593.481 0 0 0 0 83c.349 5.542 2.849 9.709 7.5 12.5a87.642 87.642 0 0 0 18-4c16.22-2.313 27.05 4.187 32.5 19.5 4.34 16.965 2.67 33.298-5 49-6.87 10.269-16.54 15.269-29 15a4565.701 4565.701 0 0 1 -85-7 3743.754 3743.754 0 0 0 -72.5 7c-12.854-.172-22.354-5.839-28.5-17-8.952-19.222-8.619-38.222 1-57 7.078-7.916 15.912-11.083 26.5-9.5a134.819 134.819 0 0 1 17.5 4.5c5.613-1.957 8.613-5.957 9-12a195.6 195.6 0 0 0 2-22 3538.73 3538.73 0 0 0 0-119 237.236 237.236 0 0 0 -2-23c-1.4-8.542-6.233-11.375-14.5-8.5-29.9 8.796-45.233-2.538-46-34-.306-15.425 4.694-28.759 15-40 3.295-2.434 6.962-4.101 11-5a100.2 100.2 0 0 1 20 0 381.848 381.848 0 0 0 33 5.5 206.874 206.874 0 0 0 32-5.5 72.173 72.173 0 0 1 23 1c5.575 3.98 8.408 9.48 8.5 16.5l1 58c11.631-49.804 42.798-77.47 93.5-83zm352 0c37.87-2.975 67.37 11.025 88.5 42 11.59 21.792 13.59 44.458 6 68-13.58 30.542-36.75 42.042-69.5 34.5-22.88-9.264-32.05-26.097-27.5-50.5a71.577 71.577 0 0 1 5.5-14c-21.2-1.984-38.03 5.683-50.5 23-12.58 22.301-19.58 46.301-21 72a589.535 589.535 0 0 0 0 83c.35 5.542 2.85 9.709 7.5 12.5a87.787 87.787 0 0 0 18-4c18.33-2.331 29.5 5.503 33.5 23.5 3 15.694 1 30.694-6 45-6.87 10.269-16.54 15.269-29 15a4563.585 4563.585 0 0 1 -85-7 3741.47 3741.47 0 0 0 -72.5 7c-12.85-.172-22.35-5.839-28.5-17-8.85-19.227-8.52-38.227 1-57 7.08-7.916 15.91-11.083 26.5-9.5a134.57 134.57 0 0 1 17.5 4.5c5.16-1.831 8.16-5.497 9-11a228.172 228.172 0 0 0 2-22c.67-40.333.67-80.667 0-121-.25-7.376-.92-14.709-2-22-1.4-8.542-6.23-11.375-14.5-8.5-29.9 8.795-45.23-2.538-46-34 .05-11.582 2.88-22.415 8.5-32.5 4.44-6.101 10.27-10.267 17.5-12.5a100.2 100.2 0 0 1 20 0 381.72 381.72 0 0 0 33 5.5c10.8-.994 21.47-2.827 32-5.5a72.172 72.172 0 0 1 23 1c5.57 3.98 8.41 9.48 8.5 16.5.33 19.333.67 38.667 1 58 11.64-49.808 42.8-77.475 93.5-83z" opacity=".989"/><path d="m3122.5 261.5c40.77-3.036 71.27 12.964 91.5 48 11.57 27.128 9.57 53.128-6 78-15.02 18.226-34.19 24.726-57.5 19.5-25.24-8.635-35.41-26.135-30.5-52.5a79.778 79.778 0 0 1 5.5-13.5c-19.89-1.927-36.05 4.906-48.5 20.5-8.9 12.342-14.9 26.009-18 41-7.43 39.424-9.1 79.091-5 119 .6 4.923 3.1 8.423 7.5 10.5 6.02-.888 12.02-2.222 18-4 16.54-2.113 27.37 4.72 32.5 20.5 3.89 17.019 1.89 33.353-6 49-6.73 9.697-16.06 14.364-28 14a4115.83 4115.83 0 0 1 -85-7c-24.2 1.963-48.37 4.296-72.5 7-17.26-1.086-28.1-10.086-32.5-27-4.3-15.868-2.97-31.202 4-46 5.71-7.272 13.21-10.939 22.5-11 7.55.72 14.88 2.386 22 5 4.7-1.201 7.53-4.201 8.5-9a74.846 74.846 0 0 0 2-12c.67-48.667.67-97.333 0-146a53.236 53.236 0 0 0 -3-14c-3.26-3.828-7.43-4.995-12.5-3.5-30.25 8.687-45.59-2.813-46-34.5-.59-15.4 4.41-28.567 15-39.5a35.119 35.119 0 0 1 10-5c7-.667 14-.667 21 0a259.568 259.568 0 0 0 33 5.5c10.8-.994 21.47-2.827 32-5.5a72.172 72.172 0 0 1 23 1c4.07 2.748 6.57 6.581 7.5 11.5 1.22 20.64 1.89 41.306 2 62 11.99-49.151 43.15-76.485 93.5-82z" opacity=".988"/><path d="m2462.5 268.5c8.34-.166 16.67 0 25 .5a355.721 355.721 0 0 0 44.5 5.5 618.641 618.641 0 0 0 45.5-6c10.31-1.435 16.48 2.898 18.5 13 .33 64 .67 128 1 192-.29 13.326 2.38 25.992 8 38 15.7 19.467 35.2 24.3 58.5 14.5 15.42-8.429 26.26-20.929 32.5-37.5a119.89 119.89 0 0 0 6-30c.67-29.667.67-59.333 0-89-.02-7.107-1.69-13.773-5-20-3.59-1.956-7.43-2.456-11.5-1.5-30.29 8.828-45.29-2.672-45-34.5 1.22-35.64 19.55-50.474 55-44.5a303.415 303.415 0 0 0 42 5.5 198.836 198.836 0 0 0 36-5.5c7-.667 14-.667 21 0 6.72 2.052 10.55 6.552 11.5 13.5.33 73.667.67 147.333 1 221a75.533 75.533 0 0 0 4 24c1.23 2.226 3.06 3.726 5.5 4.5a96.613 96.613 0 0 0 19-4c19.16-1.518 29.99 7.315 32.5 26.5 2.78 16.766-.55 32.099-10 46-7.87 7.265-17.21 10.932-28 11a1440.224 1440.224 0 0 1 -47-7c-13.87 2.14-27.7 4.473-41.5 7-12.81-.315-20.64-6.649-23.5-19-.33-9.667-.67-19.333-1-29-14.55 20.2-33.38 35.034-56.5 44.5-35.99 14.092-72.32 15.092-109 3-31.86-13.842-50.7-38.009-56.5-72.5a228.172 228.172 0 0 1 -2-22c-.33-49.667-.67-99.333-1-149a75.04 75.04 0 0 0 -3-15c-1.4-3.738-4.07-5.404-8-5a249.79 249.79 0 0 1 -21.5 4c-15.69-.441-24.86-8.441-27.5-24-2.73-13.754-1.4-27.087 4-40 6.18-10.163 15.02-16.496 26.5-19z" opacity=".99"/></g><path d="m2299.5 734.5a86.39 86.39 0 0 1 21 4c1 9.31 1.33 18.643 1 28-14.06-3.446-27.06-.946-39 7.5-6.93 6.692-11.1 14.859-12.5 24.5-4.08 20.853-.41 40.186 11 58 11.17 11.868 24.67 15.535 40.5 11 .33 10.022 0 20.022-1 30-21.08 6.351-40.08 2.518-57-11.5-16.47-14.444-25.97-32.611-28.5-54.5-3.74-28.716 3.26-54.382 21-77 12.01-12.257 26.51-18.924 43.5-20z" opacity=".959"/><path d="m43.5 735.5h33v64h31v-64h34v163h-32v-67h-33v67h-33z" opacity=".967"/><path d="m332.5 735.5h32v163h-32z" opacity=".955"/><path d="m556.5 735.5c20.379-.44 40.712.06 61 1.5 12.712 3.711 21.212 11.878 25.5 24.5 2.439 10.531 3.106 21.198 2 32-1.62 17.278-10.453 29.112-26.5 35.5a91.902 91.902 0 0 1 -29 4.5v65h-33zm33 28c20.492 1.278 27.992 11.944 22.5 32-5.399 7.755-12.899 11.422-22.5 11z" opacity=".975"/><path d="m832.5 735.5h67v31h-32v33h27v33h-27v35h32v31h-67z" opacity=".977"/><path d="m1087.5 735.5c17.34-.167 34.67 0 52 .5 25.79 5.12 39.46 20.787 41 47 .36 17.624-6.98 30.958-22 40a4.942 4.942 0 0 0 -1 2.5 4777.547 4777.547 0 0 0 28 72c-11.9 1.32-23.73 1.32-35.5 0l-27-72c-.5 24.331-.67 48.664-.5 73h-35zm34 28c21.95-.822 30.11 9.511 24.5 31-5.34 9.409-13.5 13.409-24.5 12z" opacity=".965"/><path d="m1378.5 735.5h44c4.72 32.006 9.56 64.006 14.5 96 4.5-31.967 8.66-63.967 12.5-96h44a15113.97 15113.97 0 0 0 19 162l-17.5 1c-6.24-.024-12.24-.69-18-2-2.62-35.671-5.28-71.337-8-107a9200.022 9200.022 0 0 0 -17.5 109h-27a4515.23 4515.23 0 0 0 -19.5-107c-2.19 35.671-4.35 71.337-6.5 107h-35c5.42-54.291 10.42-108.624 15-163z" opacity=".969"/><path d="m1698.5 735.5h67v31h-32v33h28v33h-28v35h32v31h-67z" opacity=".973"/><path d="m1954.5 735.5c17.34-.167 34.67 0 52 .5 25.89 5.294 39.56 21.127 41 47.5-.63 18.124-8.63 31.958-24 41.5 9.67 24.333 19.33 48.667 29 73-11.91.821-23.74.654-35.5-.5l-27-71c-.5 23.998-.67 47.998-.5 72h-35zm33 28c23.63-.782 31.8 10.218 24.5 33-6.14 8.086-14.3 11.42-24.5 10zm546-28c12.09-.633 23.92.034 35.5 2 12.84 53.344 25.67 106.677 38.5 160a153.663 153.663 0 0 1 -35 0 449.872 449.872 0 0 1 -5-26c-10.34-.166-20.67 0-31 .5-2.41 8.455-4.74 16.955-7 25.5a273.104 273.104 0 0 1 -33 1 11780.559 11780.559 0 0 1 37-163zm15 46c.72.418 1.22 1.084 1.5 2a4205.69 4205.69 0 0 0 12.5 63.5c-7.69.831-15.35.665-23-.5 3.65-21.568 6.65-43.234 9-65z" opacity=".969"/><path d="m2790.5 735.5c63.08-10.893 96.08 15.441 99 79a189.505 189.505 0 0 1 -7.5 48c-7.93 19.934-22.43 31.767-43.5 35.5-16 .5-32 .667-48 .5zm33 30c16.39 1.548 25.89 10.548 28.5 27 4.2 15.569 4.53 31.235 1 47-1.33 9.689-5.17 18.189-11.5 25.5-5.41 3.687-11.41 5.52-18 5.5z" opacity=".971"/><path d="m3118.5 735.5c13.36-1.699 25.36 1.467 36 9.5 18.01 16.003 27.18 36.17 27.5 60.5 3.05 24.922-.95 48.588-12 71-13.71 21.911-33.21 29.744-58.5 23.5-20.93-9.613-33.77-25.779-38.5-48.5-6.99-32.472-2.99-63.472 12-93 7.8-12.65 18.97-20.316 33.5-23zm4 30c6.38-1.024 11.88.643 16.5 5 5.94 10.166 9.28 21.166 10 33 1.54 17.576.21 34.91-4 52-1.96 5.09-4.79 9.59-8.5 13.5-4.97 3.621-10.3 4.288-16 2-7.91-8.989-12.74-19.489-14.5-31.5-2.25-17.776-1.58-35.443 2-53 1.43-9.594 6.27-16.594 14.5-21z" opacity=".963"/></svg>