<svg height="2500" viewBox="124 268 830.5 547.5" width="2500" xmlns="http://www.w3.org/2000/svg"><path d="m471.9 270.1c-3.1 1.1-3 1-4.9 33.9-.6 10.2-2 33.6-3.1 52s-2.4 45-3 59c-2.9 76.3-19.4 141.3-59.1 233l-5.4 12.5-8 .3c-11.9.5-35.8-1.5-45.1-3.8-15.7-3.8-28.3-12-39.7-25.8-7.5-9.2-11-9.9-6.7-1.4 9.9 19.5 31.4 33.3 62.1 39.9 11.9 2.5 47.5 2.5 64 0 41.3-6.4 74.6-17.6 126.8-42.7l16.2-7.9v-6.5c0-10-.3-10-28.6 4.3-27.9 14-39.3 18.9-61.2 26.5-21.9 7.5-57 16.1-58.8 14.4-.3-.3.9-3.4 2.6-6.8 6.7-13.3 16.2-39.3 22-60.5 2.1-7.8 8.8-39.1 10.6-49.2 1.7-9.9 2.7-13.3 3.8-12.2 1.4 1.3 2.9 21.4 3.5 46.6.6 26.5.7 28.3 2.7 31 2.4 3.3 10.1 5.7 15.2 4.8 1.7-.3 3.2-.7 3.2-.9 0-1.2 5.1-28.2 9.6-51.1 9-45.5 16.7-75 24.5-94.7 3.1-7.7 8.6-17.4 9.4-16.6.3.2-.2 4.2-1 8.9-3.3 19.2-4.8 36.9-4.8 55.9 0 16.7.4 20.6 2.2 27.5 3.9 14.8 9.6 19.9 22.1 20 8.6 0 12.5-1.7 20.3-8.5 19.1-16.9 39-69.6 51.7-137 3.6-19.3 3.9-20.2 5-19.5.5.3.7 3.8.5 7.8-.3 4-.7 28.3-1 54-.6 52.1-.3 50.1-7.6 55.9-12.4 10-24 34-30.1 62.1-1.9 8.8-2.2 13.4-2.2 33.2-.1 20 .2 24.3 2.1 32.9 1.2 5.4 3.3 12.2 4.8 15.1 5.8 11.9 15.9 19.5 25.9 19.5 4.2 0 5.3-.4 8.1-3.4 8.6-9.2 13.3-34.6 15.5-85.1.6-12.7 1.5-28.4 2-35s.9-19.2.9-28c.1-8.8.6-17.7 1.2-19.9.7-2.6 3.6-6.6 9.2-12.5 13.3-14 13.2-13.8 11.7-15.6-2.5-3-7.8-1.9-13.6 3.1-3 2.6-5.7 4.4-6.1 4-.4-.3.3-22.1 1.5-48.4 2.6-55.8 2.7-64.3.7-77.7-1.3-8.6-1.9-10.3-4.1-12.3-2.4-2.1-3.3-2.3-7.8-1.7-6.7.9-8 1.7-11.4 6.8-4.6 6.6-13 34.7-19.6 65.7-16.2 75.4-18.7 84.8-27.1 102.4-2.4 5-6.1 11.8-8.3 15.1-6.4 9.9-15.4 16.7-18.4 13.7-4-4-3.5-35.9 1.2-67.2 2.9-19.4 3.5-31 2-41.5-1.1-7.5-1.7-9.4-4.1-11.7-2.2-2.3-3.6-2.8-7.6-2.8-10.4 0-15.9 3.4-25 15.4-9 11.9-18.5 35.3-24.8 61.3-1.5 6-2.9 11.5-3.2 12.3-4.1 10.6-2.4-110.6 2.7-196.5 1.3-21.4 1.3-40.2-.1-42.7-2.1-3.9-10.2-5.8-16-3.7zm143 290.4c1.7 44-.9 90.8-5.6 99.8-1.8 3.6-3.3 2.5-7.3-5.4-10.4-20.5-11.7-60.5-3-94 3.1-12 12.2-31.1 14-29.2.5.4 1.4 13.4 1.9 28.8z"/><path d="m679 291.9c0 .4 3.4 1.4 7.6 2.1 12.6 2 27 5.8 33.8 8.9 18.9 8.6 31.6 23.4 36.7 42.8 4 15.2 2.5 38.4-3.8 57-13.2 39.6-49.1 90.6-92.9 131.9l-13.4 12.6v5.9c0 5.4.2 5.9 2.5 6.5 3.1.8 5.4-.7 16-9.9 34.7-30.2 60.3-58.6 80.9-89.7 43-64.8 46.1-121.2 8.2-150.2-13.2-10.1-28.9-15.6-50.7-17.7-13.8-1.3-24.9-1.4-24.9-.2z"/><path d="m654.8 314.7c-2.4.4-2.8.9-2.8 3.8 0 4.8 2 5.5 14.8 5.5 17.5 0 34.1 3.5 47.6 10.2 11.1 5.4 17.7 11.4 25.1 22.5 2.3 3.7 3.3 4.3 6.1 4.3 1.9 0 3.4-.2 3.4-.5 0-1.9-6.7-14.8-10-19.1-7.4-9.8-22.9-19-38.7-23-11.7-3-36.9-5-45.5-3.7zm-64.3 11.8c-26.9 7.8-46.8 15.8-77.5 31.3l-15.5 7.8v6c0 5.4.2 5.9 2.1 5.7 1.1-.1 9-3.9 17.4-8.4 27.3-14.6 55.6-26.6 81.8-34.9 13.7-4.3 14.1-4.6 12.2-9.4-1.3-3.5-2.5-3.3-20.5 1.9zm-145.2 73.2c-4.8 2.7-24.1 18.3-38.8 31.4-43.8 39.1-76.3 83.4-88.5 120.7-4.9 15.1-6.4 24.2-6.4 37.7.1 9.1.6 12.4 2.7 19.1 6.6 20.1 20.9 33.2 45.4 41.4 11.6 3.8 16.3 3.9 6.5.1-19.3-7.6-32-21.3-37.8-40.6-2.5-8.1-2.4-26 0-37.5 10.1-47.1 47.9-98.6 112.1-152.3l10-8.3v-6.4c0-3.5-.5-6.5-1-6.7-.6-.2-2.5.5-4.2 1.4zm182.2 341.2c-13.9 3.7-20.9 15.7-15.7 27.3 2.7 6.2 7.5 9.5 19.4 13.5 5.6 1.8 11 4.1 12 5 4.5 4.1 0 10.4-7.5 10.5-5.6.1-9.6-2.3-10.4-6.2-.6-3.3-1.1-3.4-10.2-2.3l-5.3.6.5 4.5c.7 6.1 5 12 11.2 15.1 4.2 2.2 6.3 2.6 13.5 2.6s9.3-.4 14-2.7c8.8-4.3 13-12 11.6-21.1s-6.6-13.9-19.9-18.3c-12.2-4-13.7-4.9-13.7-8.4 0-3.7 3.8-6.4 8.7-6.3 3.9.1 6.8 2.3 7.7 5.9.6 2.2 1.1 2.4 6.4 2.4 6.8 0 10.2-.8 10.2-2.4 0-6.3-5.6-14.3-12.4-17.8-4.5-2.3-15-3.3-20.1-1.9zm294 0c-13.9 3.7-20.9 15.7-15.7 27.3 2.7 6.2 7.5 9.5 19.4 13.5 5.6 1.8 11 4.1 12 5 4.5 4.1-.1 10.6-7.6 10.6-5.5 0-9.5-2.4-10.3-6.3-.6-3.3-1.1-3.4-10.2-2.3l-5.3.6.5 4.5c.3 2.6 1.6 6.1 3.3 8.5 9.3 13.2 35.1 12.6 44.4-1.1 2.1-2.9 2.5-4.7 2.5-10.1-.1-11.4-5.2-17-19.7-21.6-11.7-3.7-13.8-5-13.8-8.5 0-3.7 3.8-6.4 8.7-6.3 3.9.1 6.8 2.3 7.7 5.9.6 2.2 1.1 2.4 6.4 2.4 6.8 0 10.2-.8 10.2-2.4 0-6.3-5.6-14.3-12.4-17.8-4.5-2.3-15-3.3-20.1-1.9zm-797.5 35.1v35h16v-28h27v28h16v-70h-16v26h-27v-26h-16zm97.8-9.6c-.3 23.3-.5 25.6-2.2 27.5-2.9 3.2-8.8 2.9-11.5-.5-1.2-1.5-2.1-3.3-2.1-4.2 0-1.2-.9-1.3-4.6-.8-2.6.3-6.3.6-8.2.6h-3.5l.6 4.1c.8 6.4 5.4 12.9 11.2 15.8 4 2.1 6.3 2.6 12.5 2.6 10.7-.1 16.9-3.6 21.6-12.5 1.7-3.1 1.9-6.4 2.2-30.8l.3-27.2h-16zm54.2 9.6v35h16v-23h8.5l6.3 11.5 6.3 11.5h17.8l-6-10.3c-10.1-17-9.7-15.3-4.9-19.4 8.7-7.5 11.1-19.4 5.7-28.6-5.6-9.6-11.8-11.7-33.9-11.7h-15.8zm34.7-16.8c3.1 2.9 3 7.2-.2 10.3-2.2 2.2-3.2 2.5-10.5 2.5h-8v-15h8.2c7 0 8.5.3 10.5 2.2zm29.3 16.8v35h51v-16h-35v-12h31v-16h-31v-10h34v-16h-50zm68.3-.7c-6.8 18.8-12.3 34.6-12.3 35s3.7.7 8.2.5l8.2-.3 2-6.3 2-6.3 12.5.3 12.6.3 2.1 6 2.1 6 8.2.3c4.4.2 8.1-.1 8.1-.5s-5.6-16.1-12.3-34.8l-12.2-34-8.5-.3-8.5-.2zm24.9-2.3 3.6 11h-15.6l3.6-11c2-6.1 3.9-11 4.2-11s2.2 4.9 4.2 11zm35.8 3v35h48.1l-.3-7.8-.3-7.7-15.7-.3-15.8-.3v-53.9h-16zm81 0v35h51v-16h-35v-12h31v-16h-31v-10h34v-16h-50zm114-27v8h20v54h16v-54h20v-16h-56zm65.5 25.6c-6.6 18.5-12.1 34.2-12.3 35-.3 1.2 1.1 1.4 7.9 1.2l8.3-.3 2-6.3 2-6.3 12.5.3 12.6.3 2.1 6 2.1 6 8.3.3c6.5.2 8.1 0 7.8-1.1-.2-.7-5.7-16.5-12.3-35l-12-33.7h-17zm24.7-1.6 3.6 11h-15.6l3.6-11c2-6.1 3.9-11 4.2-11s2.2 4.9 4.2 11zm25.8-24v8h20v54h16v-54h20v-16h-56zm65 27v35h51v-16h-35v-12h31v-16h-31v-10h34v-16h-50z"/></svg>