<svg height="709" viewBox=".01895948 0 491.89173867 139.54551275" width="2500" xmlns="http://www.w3.org/2000/svg"><path d="m69.77 0a69.77 69.77 0 1 0 69.8 69.77 69.85 69.85 0 0 0 -69.8-69.77zm7.19 47.2a38 38 0 0 0 -6.9 9 38 38 0 0 0 -7.12-9.23l7.06-7zm-2.31 25.48a28.77 28.77 0 0 1 23.8-26.51v28.1a28.59 28.59 0 0 1 -23.76 28.09v-28.09c0-.53-.01-1.06-.04-1.59zm-9.25 0v29.7a28.6 28.6 0 0 1 -23.83-28.11v-28.11a28.62 28.62 0 0 1 23.83 26.5zm9 57.34v-18.29a37.85 37.85 0 0 0 33.3-37.46v-32.7a5 5 0 0 0 -5.07-5 37.14 37.14 0 0 0 -18.23 5l-10.76-11.06a5 5 0 0 0 -7.11 0l-11.1 10.9a37.2 37.2 0 0 0 -18-4.86h-.06a5 5 0 0 0 -5 5v32.72a37.86 37.86 0 0 0 32.8 37.39v18.34a60.43 60.43 0 1 1 9.24 0zm130.77-66.15v-25.3a.68.68 0 0 0 -.7-.7h-27.7a.68.68 0 0 0 -.7.7v25.3a.68.68 0 0 1 -.7.7h-11.1a.68.68 0 0 1 -.7-.7v-59a.68.68 0 0 1 .7-.7h1.8a9.92 9.92 0 0 1 10 9.8v12.8a.68.68 0 0 0 .7.7h27.7a.68.68 0 0 0 .7-.7v-22a.68.68 0 0 1 .7-.7h1.8a9.92 9.92 0 0 1 10 9.8v49.9a.68.68 0 0 1 -.7.7h-11.1a.67.67 0 0 1 -.7-.6zm46.8 2.3c-14.4 0-25-10.2-25-23.3s10.6-23.3 25-23.3 24.9 10.3 24.9 23.3-10.6 23.3-24.9 23.3zm0-38.2c-8 0-13.3 6-13.3 14.8s5.4 14.8 13.3 14.8 13.2-5.9 13.2-14.8c0-8.7-5.2-14.8-13.2-14.8zm95.1 36.5a.43.43 0 0 1 -.4-.4v-24c0-7.8-2.2-10.9-7.6-10.9a11 11 0 0 0 -10.9 11.1v23.8a.43.43 0 0 1 -.4.4h-11a.43.43 0 0 1 -.4-.4v-24c0-7.8-2.1-10.9-7.6-10.9a11 11 0 0 0 -10.9 11.1v23.8a.43.43 0 0 1 -.4.4h-11a.43.43 0 0 1 -.4-.4v-42.6a.43.43 0 0 1 .4-.4h5.5a5.09 5.09 0 0 1 5.2 4.8l.1 1.9a.43.43 0 0 0 .8.2 18 18 0 0 1 14.9-8.1c7.9 0 12 3.5 13.9 8.9a.47.47 0 0 0 .8.1c4-5.7 9.5-9 15.9-9 11.8 0 15.2 8.1 15.2 18.8v25.4a.43.43 0 0 1 -.4.4zm61.8-21.4h-28.9c-.2 0-.5.2-.5.4-.2 7.3 4.4 15.4 19.5 13.4a15.52 15.52 0 0 0 7.4-3 1.61 1.61 0 0 1 2.6 1.3v5.1c0 .1-.1.3-.2.3-4.2 3.1-10.6 5-17.9 5-13.7 0-23.3-9.8-23.3-23.2a22.14 22.14 0 0 1 22.4-22.6c11.3 0 19.8 6.9 19.8 17.2a33.23 33.23 0 0 1 -.6 5.7c.1.3-.1.4-.3.4zm-18.4-15.8c-4.9 0-9.1 2.7-10.3 9a.46.46 0 0 0 .4.5h18.1a.66.66 0 0 0 .5-.4c.8-5-2.6-9.1-8.7-9.1zm-227 108.8v-59.5a.43.43 0 0 1 .4-.4h3.6a8.39 8.39 0 0 1 8.5 8.3v51.7a.43.43 0 0 1 -.4.4h-11.7a.66.66 0 0 1 -.4-.5zm57.5.4a.47.47 0 0 1 -.5-.5v-23.5c0-8.4-3-11.3-8.4-11.3-5.7 0-11.8 5-11.8 11.1v23.7a.47.47 0 0 1 -.5.5h-10.9a.47.47 0 0 1 -.5-.5v-42.4a.47.47 0 0 1 .5-.5h5.4a5.09 5.09 0 0 1 5.2 4.8l.1 1.6a.48.48 0 0 0 .9.2 19.27 19.27 0 0 1 15.6-7.9c11.8 0 16.3 8.1 16.3 18.8v25.4a.47.47 0 0 1 -.5.5zm37.7 1.4a35 35 0 0 1 -17.5-4.8c-.2-.1-.2-.3-.2-.5l1.7-7.2a.45.45 0 0 1 .6-.3 30 30 0 0 0 15.1 4.5c4.7 0 8-1.4 8-5 0-3.1-3.4-4.2-9.5-5.6-10.9-2.3-14.8-7.9-14.8-14.1 0-6.8 5.5-13.3 17.5-13.3a33.41 33.41 0 0 1 14.8 3.8.37.37 0 0 1 .2.5l-1.7 6.8a.45.45 0 0 1 -.6.3 25.54 25.54 0 0 0 -12.4-3.3c-4.8 0-7.2 1.6-7.2 4.2 0 2.9 3.1 4.2 7.8 5.3 11.7 2.4 16.5 7.8 16.5 13.6.1 9.4-6.9 15.1-18.3 15.1zm44.1-36.6v34.6a.58.58 0 0 1 -.6.6h-10.6a.58.58 0 0 1 -.6-.6v-34.6a.58.58 0 0 0 -.6-.6h-8.1a.58.58 0 0 1 -.6-.6v-6.4a.58.58 0 0 1 .6-.6h8.1a.58.58 0 0 0 .6-.6v-10.6a.65.65 0 0 1 .6-.6h2.9a8.35 8.35 0 0 1 8.4 8.2v3.1a.58.58 0 0 0 .6.6h8.1a.58.58 0 0 1 .6.6v6.4a.58.58 0 0 1 -.6.6h-8.1a.54.54 0 0 0 -.7.5zm55.2 13.8h-28.4a.68.68 0 0 0 -.7.7c0 6.5 3.6 13.5 15.1 13.5a25.52 25.52 0 0 0 13.3-4.2.7.7 0 0 1 1.1.6v6.6a.86.86 0 0 1 -.3.6c-4.2 3.1-10.6 4.9-17.8 4.9-13.7 0-23.3-9.8-23.3-23.2a22.14 22.14 0 0 1 22.4-22.6c11.3 0 19.8 6.9 19.8 17.2a25.05 25.05 0 0 1 -.6 5.5c0 .2-.3.4-.6.4zm-18.2-15.8c-4.8 0-9 2.6-10.2 8.7a.74.74 0 0 0 .7.9h17.5c.4 0 .7-.2.7-.6.7-5-2.8-9-8.7-9zm64.7 36.9-.3-5.7a.35.35 0 0 0 -.6-.2 20.61 20.61 0 0 1 -16 7.4c-12 0-20.9-9.9-20.9-22.9s8.9-22.9 20.9-22.9a20.29 20.29 0 0 1 16 7.4.33.33 0 0 0 .6-.2l.3-5.7c0-.2.2-.3.4-.3h2.5a7.83 7.83 0 0 1 7.9 7.8v35.4c0 .2-.2.3-.4.3h-10.1c-.1-.1-.3-.2-.3-.4zm-13.3-35.7c-7 0-12.7 5.3-12.7 14.3s5.7 14.3 12.7 14.3 12.7-5.3 12.7-14.3-5.7-14.3-12.7-14.3zm71.1 35.2-.3-5.3a.35.35 0 0 0 -.6-.2 20.59 20.59 0 0 1 -16.1 7.5c-12 0-20.9-9.9-20.9-22.9s8.9-22.9 20.9-22.9a20.13 20.13 0 0 1 15.6 6.9c.1.1.2 0 .2-.1v-21.7a.82.82 0 0 1 .9-.8h2.7a8.35 8.35 0 0 1 8.4 8.2v51.3a.9.9 0 0 1 -.9.9h-9.1a1 1 0 0 1 -.8-.9zm-13.2-35.2c-7 0-12.7 5.3-12.7 14.3s5.7 14.3 12.7 14.3 12.7-5.3 12.7-14.3-5.7-14.3-12.7-14.3zm31.22 32.15a5.59 5.59 0 1 1 5.58 5.57 5.57 5.57 0 0 1 -5.58-5.57zm10.45 0a4.86 4.86 0 1 0 -4.87 4.85 4.87 4.87 0 0 0 4.87-4.85zm-7.24-3.45h2.68a2 2 0 0 1 2.24 2.05 1.9 1.9 0 0 1 -1.35 1.93l2 2.82h-1.5l-1.85-2.7h-.85v2.7h-1.35zm2.46 3.11a1.06 1.06 0 1 0 0-2.12h-1.11v2.12z" fill="#681d49"/></svg>