<svg height="376" viewBox="0 0 6584.037 990" width="2500" xmlns="http://www.w3.org/2000/svg"><path d="m2987.981 235.616h8.163v520.834h-8.163z"/><path d="m2213.745 505.789v-33.935l34.198-3.903c11.895-1.416 16.984-12.258 18.376-14.774l85.526-139.058c6.969-10.912.205-20.601-8.79-21.612l-45.013-5.191v-34.416h194.747c10.862 0 17.827 7.554 22.386 14.003l113.717 173.816c8.957 13.988 15.829 24.858 27.231 26.355l35.801 3.981v34.735h-218.88v-34.25l27.797-3.417c13.334-1.513 24.238-7.578 13.334-23.821l-10.525-15.905h-155.31l-11.911 19.33c-7.43 11.825 0 18.883 11.387 20.396l27.829 3.417v34.25h-161.9m162.431-122.103h98.234l-49.585-77.976zm-307.527-130.788h-250.405v34.416l31.485 3.153c11.613 1.726 16.365 10.217 16.365 21.684v136.119c0 9.406-3.955 18.338-14.319 19.851l-33.651 4.323v33.194l250.525.15c115.323 0 164.879-56.04 164.879-130.077.001-66.515-49.555-122.813-164.879-122.813m-38.641 204.339h-64.539v-155.977h64.539c61.553 0 87.467 14.314 87.467 77.869 0 64.08-25.913 78.108-87.467 78.108m-1571.483 48.561h202.616v-33.735l-34.689-3.935c-7.919-1.048-15.881-6.015-15.881-22.897v-40.712h155.946v38.697c0 11.496-1.936 22.367-15.448 23.864l-35.261 3.982v34.736h202.615v-34.736l-35.74-3.982c-6.926-.993-14.909-6.53-14.909-20.832v-131.595c0-13.391 4.883-22.458 15.377-23.359l35.272-3.978v-34.417h-202.615v33.949l35.261 4.445c11.935 1.501 15.448 10.917 15.448 23.359v39.269h-155.946v-39.802c0-14.932 5.957-21.926 16.354-22.827l34.216-3.978v-34.417h-202.158v34.417l33.839 3.978c13.44 1.501 16.898 11.431 16.401 24.283v128.204c0 14.306-3.96 22.836-16.879 24.349l-33.818 3.935v33.735m469.864-127.7c0-79.374 64.061-135.054 207.052-135.054 142.1 0 206.222 55.68 206.222 135.054 0 81.45-64.122 136.589-206.222 136.589-142.992 0-207.052-55.138-207.052-136.589m206.557-86.325c-57.554 0-90.303 21.4-90.303 86.891 0 66.56 32.748 87.943 90.303 87.943 57.596 0 90.421-21.382 90.421-87.943 0-65.491-32.824-86.891-90.421-86.891m217.919 214.015h161.901v-33.733l-34.786-3.934c-9.883-1.048-15.905-9.39-15.905-20.888v-128.646l134.623 177.312c4.509 5.877 12.899 9.889 20.9 9.889h127.029v-191.67c0-9.035 2.334-21.295 15.377-22.826l35.292-3.978v-34.416h-161.878v33.948l35.346 4.445c12.389 1.501 15.364 11.914 15.364 23.773v125.22l-133.652-176.305c-4.931-6.445-11.375-11.081-20.809-11.081h-178.801v34.416l33.77 3.978c11.891 1.773 16.37 7.796 16.37 24.282v128.198c0 15.163-4.138 22.412-16.891 24.348l-33.249 3.934v33.734" fill="#c00"/><path d="m468.126 624.796h53.98v110.606h19.536v-110.606h53.318v-14.706h-126.834zm209.946 12.497c-17.169 0-31.267 6.85-39.757 19.323v-46.526h-18.897v125.373h18.897v-44.614c0-29.903 19.111-40.569 36.98-40.569 18.893 0 28.899 10.994 28.899 31.743v53.44h18.819v-54.324c0-28.262-15.965-43.846-44.941-43.846zm474.279 9.823c-10.036-9.057-24.843-13.664-44.022-13.664-18.27 0-33.318 4.943-43.476 14.335-9.835 9.035-15.059 22.085-15.059 37.692 0 16.578 5.083 29.511 15.059 38.471 10.056 9.037 24.673 13.604 43.476 13.604 37.93 0 58.818-18.501 58.818-52.075 0-16.561-4.983-29.45-14.796-38.363zm-5.085 38.363c0 11.091-3.438 20.574-9.927 27.4-6.866 7.237-16.915 11.058-29.009 11.058-12.023 0-21.97-3.821-28.797-11.058-6.433-6.822-9.792-16.308-9.792-27.4 0-24.064 14.407-38.443 38.59-38.443 24.751 0 38.935 14.011 38.935 38.443zm575.087-38.363c-10.001-9.057-24.833-13.664-44.021-13.664-18.287 0-33.361 4.943-43.586 14.335-9.954 9.072-15.202 22.109-15.202 37.692 0 33.573 20.87 52.075 58.788 52.075 18.837 0 33.503-4.566 43.623-13.604 10.047-8.96 15.135-21.917 15.135-38.471-.001-16.561-4.937-29.467-14.737-38.363zm-72.942 10.629c6.764-7 16.771-10.709 28.92-10.709 24.817 0 39.071 14.011 39.071 38.443 0 11.011-3.484 20.48-10.08 27.345-6.95 7.271-16.979 11.113-28.991 11.113-23.643 0-38.912-15.091-38.912-38.458 0-11.419 3.45-21.01 9.992-27.734zm459.657-23.073c-18.898 1.485-28.927 13.415-35.302 25.016v-24.152h-16.903v99.988h19.172v-52.604c.485-9.699 4.135-17.603 10.879-23.522 6.731-5.939 15.333-8.967 25.572-8.967l9.287-.179v-15.562l-.247-.017c-2.945-.283-10.367-.165-12.458-.001zm-1126.773-24.677-57.006.168v125.279h19.461v-48.159h40.191c16.891 0 30.019-3.814 38.963-11.273 8.206-6.913 12.556-16.842 12.556-28.752 0-9.921-3.071-18.004-9.095-24.04-8.794-8.81-23.979-13.223-45.07-13.223zm33.391 37.418c0 17.725-10.022 25.64-32.431 25.64h-38.505v-48.757h37.183c23.013 0 33.753 7.355 33.753 23.117zm995.416-21.053c-12.178-10.835-30.97-16.291-55.865-16.291h-55.882v125.497h56.62c23.168 0 41.287-5.53 53.848-16.213 12.589-10.943 18.973-26.543 18.973-46.624 0-20.405-5.949-36.016-17.694-46.369zm-91.961-1.898h31.564c22.739 0 37.473 3.949 46.315 12.251 7.898 7.453 11.435 18.642 11.435 36.141 0 32.589-17.957 48.398-54.897 48.398h-34.417zm443.392 89.762v-41.466c0-10.359-.283-18.948-10.39-27.597-8.654-7.399-23.347-11.558-38.15-11.558-15.067 0-40.953 4.34-45.806 25.04h20.625c3.062-6.658 12.623-11.642 25.181-11.642 17.849 0 30.134 7.915 30.134 23.252v3.349h-10.146c-1.76 0-3.743-.023-5.794-.023-17.462 0-43.842.691-56.511 13.646-4.751 4.847-7.169 11.054-7.169 18.46 0 18.662 16.065 31.791 39.944 31.791 18.686 0 30.158-3.127 40.373-16.808 0 0 .111 8.57.978 14.852h18.113s-1.382-10.967-1.382-21.296zm-18.407-23.154c0 22.03-11.408 33.135-34.949 33.135-15.977 0-24.742-6.835-24.742-18.52 0-4.053 1.352-7.503 4.06-10.215 7.716-7.813 24.527-8.69 37.057-8.69 1.974 0 3.849.024 5.589.044 1.342.013 2.603.024 3.709.024h9.277v4.222zm171.219-57.436c-20.828 0-31.335 13.199-36.347 24.055-5.645-14.508-18.456-24.055-33.614-24.055-15.817 0-27.705 7.618-34.89 20.925 0 0-.097-9.201-.812-19.04h-17.779c.562 7.459.637 16.55.637 24.412v75.598h18.81v-48.078c0-27.405 15.063-39.855 29.965-39.855 15.553 0 22.823 11.782 22.823 37.051v50.883h18.771v-48.078c0-14.584 3.847-25.437 11.415-32.416 7.368-6.833 15.661-7.439 18.007-7.439 9.048 0 15.004 3.028 18.69 9.465 3.42 5.916 4.967 14.909 4.967 28.493v49.975h18.823v-57.368c0-15.007-3.796-26.448-11.256-33.914-6.682-6.681-16.189-10.614-28.21-10.614zm135.925 47.468-31.355-6.465c-14.852-2.988-21.415-6.988-21.415-13.719 0-9.122 11.756-13.87 28.867-13.87 14.051 0 24.107 3.756 27.301 11.563h20.467c-1.43-8.723-6.357-15.078-14.953-19.31-9.792-4.815-23.655-5.833-32.265-5.833-13.247 0-24.5 2.458-32.626 7.108-9.341 5.335-15.587 13.183-15.587 23.309 0 13.243 9.719 21.185 27.301 24.998l29.679 6.339c10.221 2.145 20.749 5.062 20.749 13.705 0 10.383-10.878 15.414-30.61 15.414-16.318 0-26.196-4.69-29.479-14.474h-20.615c3.942 22.834 27.844 27.714 47.836 27.714 35.55 0 52.842-10.216 52.842-31.224-.001-14.094-7.574-21.407-26.137-25.255zm-843.315-72.955c-10.252 0-19.201 1.076-26.705 7.244-3.187 2.616-6.346 6.738-8.258 12.537-1.764 5.336-2.222 10.91-2.395 20.379h-20.49v13.577h20.49l-.031 73.64h19.175v-73.64h34.556v-13.577h-34.556c0-13.931.648-18.389 4.736-22.29 2.737-2.614 6.835-4.391 15.974-4.391 5.499 0 11.408.596 14.965 1.68v-13.776c-4.9-.817-10.615-1.383-17.461-1.383zm-489.394 71.714c-3.734 12.083-7.788 25.578-12.737 42.473h-.091a3808.817 3808.817 0 0 0 -12.732-41.55l-13.239-40.57-.063-.166h-29.085l-13.3 40.736a1055.052 1055.052 0 0 0 -12.735 41.55h-.1c-4.95-16.928-8.992-30.424-12.718-42.473l-12.326-39.64-.056-.172h-20.814l30.904 95.299.055.163h29.117l13.749-41.297c1.098-3.517 2.203-7.028 3.303-10.521 3.13-9.922 6.364-20.193 9.412-30.441h.104c3.183 10.703 6.569 21.42 9.847 31.794.958 3.048 1.923 6.11 2.886 9.179l13.684 41.124.055.163h29.105l30.874-95.145.096-.317h-20.824zm230.611-45.189c-18.894 1.485-28.93 13.415-35.303 25.016v-24.152h-16.896v99.988h19.165v-52.604c.488-9.699 4.136-17.603 10.883-23.522 6.726-5.939 15.33-8.967 25.569-8.967l9.286-.179v-15.562l-.246-.017c-2.943-.283-10.368-.165-12.458-.001zm-91.715 12.64c-8.798-8.772-21.611-13.847-38.003-13.847-34.334 0-54.032 20.041-54.032 53.899 0 15.007 4.848 27.497 14.044 36.134 9.319 8.784 23.325 14.055 39.849 14.055 12.54 0 23.841-3.156 32.266-7.97 8.061-4.596 14.753-11.054 17.368-19.711h-20.87c-5.086 9.314-16.254 14.312-29.864 14.312-13.875 0-24.305-6.306-29.925-17.562-2.253-4.515-3.922-10.157-4.35-15.853h86.756v-5.797c-.001-16.236-4.446-28.919-13.239-37.66zm-73.084 30.074c.108-1.768.62-3.791 1.072-5.555 4.088-16.061 15.785-24.954 33.583-24.954 22.92 0 31.534 16.008 31.912 30.509zm844.994-30.074c-8.798-8.769-21.609-13.847-38.002-13.847-34.336 0-54.036 20.041-54.036 53.899 0 15.007 4.849 27.497 14.049 36.134 9.321 8.784 23.323 14.055 39.846 14.055 12.545 0 23.841-3.156 32.272-7.97 8.057-4.596 14.747-11.054 17.364-19.711h-20.871c-5.086 9.314-16.251 14.312-29.865 14.312-13.872 0-24.303-6.306-29.921-17.562-2.256-4.515-3.922-10.157-4.351-15.853h86.755c.206-3.373.091-7.014-.392-12.515-.815-9.343-3.489-21.625-12.848-30.942zm-73.08 30.074c.104-1.768.617-3.791 1.069-5.555 4.088-16.061 15.788-24.954 33.584-24.954 22.922 0 31.537 16.008 31.908 30.509zm-1318.894-30.074c-8.797-8.772-21.609-13.847-38.002-13.847-34.335 0-54.034 20.041-54.034 53.899 0 15.007 4.849 27.497 14.046 36.134 9.318 8.784 23.324 14.055 39.845 14.055 12.544 0 23.845-3.156 32.271-7.97 8.058-4.596 14.752-11.054 17.367-19.711h-20.872c-5.085 9.314-16.248 14.312-29.861 14.312-13.876 0-24.305-6.306-29.923-17.562-2.257-4.515-3.923-10.157-4.355-15.853h86.756v-5.797c0-16.236-4.445-28.919-13.238-37.66zm-73.083 30.074c.108-1.768.62-3.791 1.069-5.555 4.092-16.061 15.79-24.954 33.586-24.954 22.922 0 31.537 16.008 31.912 30.509zm3354.612 7.731-80.045-39.282v78.564zm-819.986-2.666c0-32.996 19.941-53.362 48.201-53.362 21.228 0 39.882 11.185 44.752 36.141h-15.484c-4.311-16.213-16.067-22.37-29.268-22.37-19.516 0-32.28 14.622-32.28 39.59 0 24.957 12.764 39.59 32.28 39.59 13.917 0 27.543-8.173 29.984-26.256h15.35c-2.866 26.827-23.244 40.028-45.335 40.028-28.114.001-48.2-20.365-48.2-53.361zm197.345 38.582c.292 4.457 1.287 9.181 3.449 12.484h-15.788c-2.149-3.158-2.866-7.748-3.012-13.055l-.425-10.906c-.571-13.772-6.024-18.071-17.354-18.071h-29.705v42.031h-15.351v-102.144h44.618c21.52 0 35.146 10.481 35.146 28.272 0 12.764-6.594 21.228-17.208 24.665 10.468 3.012 14.197 10.189 14.634 20.803zm-33.276-42.31c11.185 0 19.079-5.89 19.079-17.646 0-11.343-7.894-16.504-20.232-16.504h-28.406v34.15zm135.652-33.579h-57.528v28.843h52.075v13.48h-52.075v32.28h57.103v13.772h-72.453v-102.147h72.878zm98.649 88.374-10.043-26.535h-45.906l-9.897 26.535h-15.921l39.882-102.146h17.646l40.453 102.146zm-51.067-39.882h36.008l-2.15-5.599c-4.165-10.468-10.76-27.677-15.933-41.886-5.161 14.209-11.756 31.417-15.775 41.886zm150.443-62.264v13.772h-33.858v88.374h-15.642v-88.374h-33.846v-13.772zm92.625 13.772h-57.528v28.843h52.075v13.48h-52.075v32.28h57.103v13.772h-72.453v-102.147h72.878zm449.729-13.772v13.772h-33.858v88.374h-15.642v-88.374h-33.846v-13.772zm100.215 89.661c.292 4.457 1.287 9.181 3.449 12.484h-15.788c-2.149-3.158-2.866-7.748-3.012-13.055l-.425-10.906c-.571-13.772-6.024-18.071-17.354-18.071h-29.705v42.031h-15.351v-102.144h44.618c21.52 0 35.146 10.481 35.146 28.272 0 12.764-6.594 21.228-17.208 24.665 10.468 3.012 14.197 10.189 14.634 20.803zm-33.275-42.31c11.185 0 19.079-5.89 19.079-17.646 0-11.343-7.894-16.504-20.232-16.504h-28.405v34.15zm134.801 54.795-10.043-26.535h-45.905l-9.898 26.535h-15.921l39.882-102.146h17.646l40.453 102.146zm-51.067-39.882h36.008l-2.149-5.599c-4.166-10.468-10.76-27.677-15.933-41.886-5.162 14.209-11.756 31.417-15.776 41.886zm156.176-62.264h14.768v102.146h-17.646l-31.405-49.488c-6.752-10.614-14.5-22.953-19.941-32.85.571 19.224.571 36.858.571 51.358v30.98h-14.925v-102.146h17.646l31.563 49.5c6.461 10.177 14.342 23.098 19.941 32.996-.571-19.37-.571-37.016-.571-51.504v-30.992zm40.975 68.433h15.35c.28 17.646 12.339 22.953 27.543 22.953 15.351 0 23.815-5.878 23.815-17.075 0-9.035-6.036-13.189-23.098-16.917l-8.756-1.87c-18.508-3.728-31.842-11.622-31.842-30.13 0-16.638 13.48-27.677 36.154-27.677 29.401 0 40.161 14.488 40.586 32.267h-15.205c-.85-12.047-6.74-19.224-25.248-19.224-13.771 0-20.657 5.599-20.657 14.355 0 9.035 4.736 13.334 22.236 17.208l8.902 1.87c23.815 5.016 32.851 14.197 32.851 29.693 0 18.933-14.78 30.555-39.736 30.555-25.686 0-42.749-11.331-42.895-36.008zm101.951-17.354c0-32.996 19.941-53.362 48.201-53.362 21.228 0 39.882 11.185 44.751 36.141h-15.484c-4.311-16.213-16.067-22.37-29.268-22.37-19.516 0-32.28 14.622-32.28 39.59 0 24.957 12.764 39.59 32.28 39.59 13.917 0 27.543-8.173 29.984-26.256h15.351c-2.866 26.827-23.244 40.028-45.334 40.028-28.114.001-48.201-20.365-48.201-53.361zm192.464-37.307h-57.528v28.843h52.075v13.48h-52.075v32.28h57.103v13.772h-72.453v-102.147h72.878zm95.357-13.772h14.768v102.146h-17.634l-31.417-49.488c-6.752-10.614-14.488-22.953-19.941-32.85.571 19.224.571 36.858.571 51.358v30.98h-14.925v-102.146h17.646l31.563 49.5c6.461 10.177 14.342 23.098 19.941 32.996-.571-19.37-.571-37.016-.571-51.504v-30.992zm131.207 51.079c0 31.551-18.653 51.067-50.642 51.067h-36.445v-102.146h36.445c31.989 0 50.642 19.516 50.642 51.079zm-50.787 37.587c22.515 0 34.72-13.772 34.72-37.587s-12.205-37.587-34.72-37.587h-20.949v75.173h20.949zm81.859-5.176h19.09v19.731c0 14.347-5.838 20.506-16.725 21.294l-2.365.16v-9.779l2.058-.16c4.568-.481 6.465-4.101 6.465-10.58v-2.204h-8.523zm191.392 18.656-10.043-26.535h-45.905l-9.897 26.535h-15.921l39.882-102.146h17.646l40.453 102.146zm-51.067-39.882h36.008l-2.149-5.599c-4.166-10.468-10.76-27.677-15.933-41.886-5.162 14.209-11.756 31.417-15.775 41.886zm81.72 1.724v-63.988h15.351v63.843c0 18.362 9.618 26.681 25.964 26.681 16.358 0 25.964-8.319 25.964-26.681v-63.843h15.351v63.988c0 25.965-15.496 40.307-41.315 40.307-25.674 0-41.315-14.342-41.315-40.307zm157.025-15.496h44.473v53.654h-11.756l-2.732-13.626c-7.311 10.189-18.642 15.921-33.275 15.921-29.268 0-48.492-21.52-48.492-53.362 0-31.854 19.079-53.362 49.354-53.362 25.236 0 42.457 14.342 45.76 35.996h-15.788c-2.866-13.905-14.634-22.37-29.839-22.37-20.512 0-33.567 15.35-33.567 39.736s13.201 39.736 33.858 39.736c17.208 0 31.563-11.914 32.134-29.268h-30.13zm158.605-48.492h21.374v102.146h-14.768v-31.988c0-14.488 0-32.425.571-51.795-2.586 7.894-5.161 14.78-8.61 23.681l-23.099 60.102h-12.91l-23.377-60.102c-3.303-8.756-5.89-15.496-8.465-23.244.571 19.224.571 37.016.571 51.358v31.988h-14.78v-102.146h21.241l20.937 54.37c3.595 9.618 7.603 20.524 10.481 28.843 2.866-8.61 7.019-20.512 10.614-30.276zm126.325 13.772h-57.527v28.843h52.075v13.48h-52.075v32.28h57.103v13.772h-72.453v-102.147h72.878v13.772zm92.625-13.772h14.768v102.146h-17.646l-31.405-49.488c-6.752-10.614-14.5-22.953-19.941-32.85.571 19.224.571 36.858.571 51.358v30.98h-14.925v-102.146h17.646l31.563 49.5c6.461 10.177 14.343 23.098 19.941 32.996-.571-19.37-.571-37.016-.571-51.504v-30.992zm120.459 0v13.772h-33.858v88.374h-15.642v-88.374h-33.846v-13.772zm-2666.259-377.101h54.529v229.756h-54.529v-93.264h-92.302v93.264h-54.529v-229.756h54.529v88.101h92.302zm78.981 146.502c0-52.921 34.205-87.127 87.455-87.127 52.921 0 87.114 34.205 87.114 87.127s-34.193 87.127-87.114 87.127c-53.25-.001-87.455-34.206-87.455-87.127zm123.596 0c0-31.624-13.882-46.784-36.141-46.784-22.601 0-36.47 15.16-36.47 46.784s13.87 46.784 36.47 46.784c22.259 0 36.141-15.161 36.141-46.784zm279.39-83.255h53.895l-54.212 166.508h-52.921l-18.387-62.602c-4.53-14.844-8.719-30.004-12.591-44.86-3.556 14.856-7.745 30.016-11.933 44.86l-18.4 62.602h-52.921l-54.541-166.508h54.212l15.489 53.567a1782.898 1782.898 0 0 1 15.489 56.148c4.53-18.716 9.364-37.432 14.527-56.465l15.16-53.25h46.468l15.173 53.25c5.163 19.033 10.01 37.749 14.515 56.465a1856.236 1856.236 0 0 1 15.489-56.148zm354.352 0h53.883l-54.212 166.508h-52.921l-18.399-62.602c-4.505-14.844-8.707-30.004-12.579-44.86-3.543 14.856-7.745 30.016-11.946 44.86l-18.387 62.602h-52.921l-54.529-166.508h54.212l15.489 53.567a1853.304 1853.304 0 0 1 15.489 56.148c4.506-18.716 9.352-37.432 14.515-56.465l15.172-53.25h46.468l15.16 53.25c5.163 19.033 9.998 37.749 14.527 56.465a1782.898 1782.898 0 0 1 15.489-56.148zm59.277 83.255c0-52.605 33.876-87.127 85.836-87.127s85.836 35.813 85.836 91.973v9.997h-123.268c3.543 24.196 18.399 35.179 38.078 35.179 16.463 0 27.751-6.783 33.56-18.728h47.758c-9.035 34.851-41.304 55.832-81.318 55.832-51.631 0-86.482-34.205-86.482-87.126zm122.623-17.097c-3.556-20.652-16.78-32.927-37.432-32.927-18.387 0-32.585 10.01-36.458 32.927zm402.962-7.745v108.095h-50.34v-99.389c0-18.071-7.099-28.068-24.841-28.068-15.172 0-28.726 9.997-28.726 35.484v91.973h-50.34v-99.389c0-18.071-7.099-28.068-24.853-28.068-15.161 0-29.03 9.997-29.03 35.484v91.973h-50.34v-166.508h49.049v23.562c10.643-15.818 25.486-27.435 47.43-27.435 24.195 0 42.595 10.655 51.63 30.016 11.288-16.78 29.042-30.016 51.959-30.016 35.814.001 58.402 22.273 58.402 62.286zm23.465 24.842c0-52.921 34.206-87.127 87.443-87.127 52.921 0 87.139 34.205 87.139 87.127s-34.217 87.127-87.139 87.127c-53.238-.001-87.443-34.206-87.443-87.127zm123.584 0c0-31.624-13.87-46.784-36.141-46.784-22.576 0-36.458 15.16-36.458 46.784s13.882 46.784 36.458 46.784c22.272 0 36.141-15.161 36.141-46.784zm181.633-83.255h51.631l-59.375 166.508h-60.008l-59.375-166.508h54.212l8.707 25.17c9.036 31.952 18.716 65.829 27.751 98.415 9.036-32.586 18.716-66.462 27.751-98.415zm54.809 83.255c0-52.605 33.888-87.127 85.835-87.127s85.836 35.813 85.836 91.973v9.997h-123.268c3.556 24.196 18.387 35.179 38.078 35.179 16.451 0 27.751-6.783 33.56-18.728h47.758c-9.035 34.851-41.304 55.832-81.318 55.832-51.631 0-86.481-34.205-86.481-87.126zm122.622-17.097c-3.543-20.652-16.78-32.927-37.432-32.927-18.399 0-32.598 10.01-36.47 32.927zm245.817-66.158h51.947l-60.349 172.962c-14.515 41.95-33.56 57.122-82.926 57.122-9.681 0-14.515-.329-19.678-.658v-38.723h16.122c18.729 0 25.182-10.643 25.182-23.234 0-9.352-3.872-21.285-7.745-32.269l-47.758-135.201h54.212l7.416 23.562c9.681 32.586 19.362 66.791 28.397 104.868 9.035-38.406 18.399-72.283 27.751-104.552zm55.442 83.255c0-52.921 34.206-87.127 87.443-87.127 52.921 0 87.139 34.205 87.139 87.127s-34.217 87.127-87.139 87.127c-53.237-.001-87.443-34.206-87.443-87.127zm123.585 0c0-31.624-13.869-46.784-36.141-46.784-22.576 0-36.458 15.16-36.458 46.784s13.882 46.784 36.458 46.784c22.271 0 36.141-15.161 36.141-46.784zm184.53-83.255h50.34v166.508h-49.049v-23.563c-10.971 15.489-27.751 27.435-52.276 27.435-32.915 0-57.755-20.007-57.755-61.311v-109.069h50.34v99.06c0 18.399 8.061 28.397 26.777 28.397 15.489 0 31.624-9.997 31.624-34.522v-92.935zm80.941 166.509v-55.503h56.793v55.503z"/><path d="m0 0h6584.037v990h-6584.037z" fill="none"/></svg>