<svg height="594" viewBox=".611 .61 219.504 51.248" width="2500" xmlns="http://www.w3.org/2000/svg"><g stroke-miterlimit="10"><path d="m55.268 12.163.073 21.814 2.13-.007-.02-5.893c-.007-2.219.158-4.916 3.082-4.926 2.45-.008 2.603 1.779 2.61 3.794l.023 7.005 2.128-.007-.025-7.37c-.01-2.917-.815-5.4-4.25-5.388-1.536.005-2.673.672-3.558 1.87l-.028-.055-.036-10.844zm19.73 22.085c-3.62.012-6.551-2.849-6.564-6.504-.012-3.64 2.864-6.593 6.52-6.606 3.654-.012 6.542 2.921 6.554 6.562a6.49 6.49 0 0 1 -6.51 6.548m-.038-11.146c-2.62.01-4.415 2.098-4.406 4.605.008 2.542 1.817 4.6 4.437 4.591 2.618-.009 4.41-2.079 4.402-4.62-.009-2.507-1.814-4.585-4.433-4.576m15.17 11.095c-3.626.012-6.551-2.849-6.564-6.504-.012-3.64 2.871-6.593 6.52-6.606 3.646-.012 6.524 2.922 6.536 6.562a6.478 6.478 0 0 1 -6.492 6.548m-.038-11.146c-2.633.01-4.423 2.099-4.415 4.606.009 2.541 1.813 4.599 4.446 4.59 2.61-.009 4.402-2.079 4.393-4.62-.008-2.507-1.814-4.584-4.424-4.576m11.71.115h.041c1.037-1.381 2.558-2.128 4.28-2.134 3.642-.012 5.961 3.127 5.973 6.563.012 3.55-2.22 6.536-5.956 6.548-1.696.006-3.255-.72-4.267-2.062h-.042l.03 8.717-2.125.007-.066-19.412 2.124-.008zm3.94-.169c-2.465.009-4.05 2.15-4.041 4.472.008 2.438 1.446 4.734 4.088 4.725 2.726-.009 4.154-2.202 4.145-4.716-.008-2.486-1.579-4.49-4.19-4.48m16.351.283c-.554-1.286-1.865-2.296-3.308-2.292-2.002.007-3.692 1.45-3.685 3.532.013 3.918 5.613 2.947 5.622 5.722.004 1.133-.86 1.904-1.999 1.908-1.399.005-2.011-.82-2.553-1.97l-1.872.796c.668 1.946 2.318 3.131 4.402 3.124 2.302-.008 4.199-1.696 4.191-4.049-.007-2.099-1.43-2.96-2.891-3.561-1.462-.606-2.893-1.022-2.896-2.164-.003-.789.79-1.37 1.538-1.372.76-.002 1.405.593 1.695 1.254z" fill="#e86bb0"/><path d="m131.408 26.08c-1.217.835-2.651 1.815-2.646 3.437.005 1.51 1.326 2.878 2.825 2.873 1.607-.006 3.003-1.258 4.141-2.262l-3.57-4.552zm5.389 5.377c-1.41 1.278-3.099 2.538-5.098 2.545-2.427.008-4.66-1.81-4.668-4.351-.01-2.667 1.917-3.936 3.894-5.258l.183-.13c-.706-.988-1.579-2.063-1.583-3.374-.007-2.014 1.484-3.39 3.47-3.397 1.813-.007 3.4 1.263 3.407 3.113.006 1.908-1.433 2.96-2.802 3.99l3.371 4.282 1.789-2.094 1.292 1.057-2.028 2.372 2.732 3.476-2.24.007zm-4.07-8.26c.905-.692 1.973-1.311 1.97-2.585-.004-.972-.8-1.622-1.744-1.619a1.73 1.73 0 0 0 -1.741 1.76c.003.807.534 1.4.984 2.033l.376.522z" fill="#149fde"/><path d="m141.034 21.253 2.473-.008 4.419 8.906 3.984-8.934 2.406-.008-9.11 19.443-2.4.008 3.986-8.162zm20.959 12.702c3.632-.012 6.53-2.893 6.518-6.548-.012-3.64-2.908-6.574-6.562-6.562-3.649.013-6.511 2.965-6.499 6.606a6.483 6.483 0 0 0 6.543 6.504m-.038-11.146c2.618-.008 4.438 2.069 4.446 4.576.009 2.541-1.797 4.611-4.415 4.62-2.61.009-4.41-2.049-4.418-4.59-.008-2.507 1.776-4.597 4.387-4.606m7.634-1.652 2.464-.008 4.423 8.906 3.984-8.934 2.41-.008-9.119 19.443-2.391.008 3.982-8.162zm20.961 12.703a6.493 6.493 0 0 0 6.519-6.548c-.013-3.64-2.911-6.574-6.564-6.562-3.653.013-6.51 2.965-6.497 6.606a6.48 6.48 0 0 0 6.542 6.504m-.037-11.146c2.61-.009 4.43 2.069 4.439 4.576.008 2.541-1.797 4.611-4.408 4.62-2.607.009-4.417-2.049-4.425-4.59-.009-2.508 1.787-4.597 4.394-4.606m8.887-3.444-1.006.004.01 3.04-.385.001-.01-3.041-.994.003v-.322l2.384-.008zm3.49 3.029-.337.001-.01-3.076h-.025l-.923 3.08h-.282l-.953-3.073h-.014l.01 3.076-.355.002-.012-3.366.586-.002.878 2.722.835-2.727.591-.002z" fill="#90d307"/><path d="m220.068 25.865c.047 13.972-11.237 25.33-25.204 25.377l-168.829.568c-13.97.048-25.33-11.234-25.377-25.206-.047-13.97 11.238-25.33 25.207-25.377l168.829-.568c13.966-.049 25.326 11.237 25.374 25.206" fill="#fff"/><path d="m220.068 25.865c.047 13.972-11.237 25.33-25.204 25.377l-168.829.568c-13.97.048-25.33-11.234-25.377-25.206-.047-13.97 11.238-25.33 25.207-25.377l168.829-.568c13.966-.049 25.326 11.237 25.374 25.206" fill="none" stroke="#dfe33f" stroke-width="1.317"/><path d="m55.268 12.163.073 21.814 2.13-.007-.02-5.893c-.007-2.219.158-4.916 3.082-4.926 2.45-.008 2.603 1.779 2.61 3.794l.023 7.005 2.128-.007-.025-7.37c-.01-2.917-.815-5.4-4.25-5.388-1.536.005-2.673.672-3.558 1.87l-.028-.055-.036-10.844zm19.73 22.085c-3.62.012-6.551-2.849-6.564-6.504-.012-3.64 2.864-6.593 6.52-6.606 3.654-.012 6.542 2.921 6.554 6.562a6.49 6.49 0 0 1 -6.51 6.548m-.038-11.146c-2.62.01-4.415 2.098-4.406 4.605.008 2.542 1.817 4.6 4.437 4.591 2.618-.009 4.41-2.079 4.402-4.62-.009-2.507-1.814-4.585-4.433-4.576m15.17 11.095c-3.626.012-6.551-2.849-6.564-6.504-.012-3.64 2.871-6.593 6.52-6.606 3.646-.012 6.524 2.922 6.536 6.562a6.478 6.478 0 0 1 -6.492 6.548m-.038-11.146c-2.633.01-4.423 2.099-4.415 4.606.009 2.541 1.813 4.599 4.446 4.59 2.61-.009 4.402-2.079 4.393-4.62-.008-2.507-1.814-4.584-4.424-4.576m11.71.115h.041c1.037-1.381 2.558-2.128 4.28-2.134 3.642-.012 5.961 3.127 5.973 6.563.012 3.55-2.22 6.536-5.956 6.548-1.696.006-3.255-.72-4.267-2.062h-.042l.03 8.717-2.125.007-.066-19.412 2.124-.008zm3.94-.169c-2.465.009-4.05 2.15-4.041 4.472.008 2.438 1.446 4.734 4.088 4.725 2.726-.009 4.154-2.202 4.145-4.716-.008-2.486-1.579-4.49-4.19-4.48m16.351.283c-.554-1.286-1.865-2.296-3.308-2.292-2.002.007-3.692 1.45-3.685 3.532.013 3.918 5.613 2.947 5.622 5.722.004 1.133-.86 1.904-1.999 1.908-1.399.005-2.011-.82-2.553-1.97l-1.872.796c.668 1.946 2.318 3.131 4.402 3.124 2.302-.008 4.199-1.696 4.191-4.049-.007-2.099-1.43-2.96-2.891-3.561-1.462-.606-2.893-1.022-2.896-2.164-.003-.789.79-1.37 1.538-1.372.76-.002 1.405.593 1.695 1.254z" fill="#e86bb0"/><path d="m131.408 26.08c-1.217.835-2.651 1.815-2.646 3.437.005 1.51 1.326 2.878 2.825 2.873 1.607-.006 3.003-1.258 4.141-2.262l-3.57-4.552zm5.389 5.377c-1.41 1.278-3.099 2.538-5.098 2.545-2.427.008-4.66-1.81-4.668-4.351-.01-2.667 1.917-3.936 3.894-5.258l.183-.13c-.706-.988-1.579-2.063-1.583-3.374-.007-2.014 1.484-3.39 3.47-3.397 1.813-.007 3.4 1.263 3.407 3.113.006 1.908-1.433 2.96-2.802 3.99l3.371 4.282 1.789-2.094 1.292 1.057-2.028 2.372 2.732 3.476-2.24.007zm-4.07-8.26c.905-.692 1.973-1.311 1.97-2.585-.004-.972-.8-1.622-1.744-1.619a1.73 1.73 0 0 0 -1.741 1.76c.003.807.534 1.4.984 2.033l.376.522z" fill="#149fde"/><path d="m141.034 21.253 2.473-.008 4.419 8.906 3.984-8.934 2.406-.008-9.11 19.443-2.4.008 3.986-8.162zm20.959 12.702c3.632-.012 6.53-2.893 6.518-6.548-.012-3.64-2.908-6.574-6.562-6.562-3.649.013-6.511 2.965-6.499 6.606a6.483 6.483 0 0 0 6.543 6.504m-.038-11.146c2.618-.008 4.438 2.069 4.446 4.576.009 2.541-1.797 4.611-4.415 4.62-2.61.009-4.41-2.049-4.418-4.59-.008-2.507 1.776-4.597 4.387-4.606m7.634-1.652 2.464-.008 4.423 8.906 3.984-8.934 2.41-.008-9.119 19.443-2.391.008 3.982-8.162zm20.961 12.703a6.493 6.493 0 0 0 6.519-6.548c-.013-3.64-2.911-6.574-6.564-6.562-3.653.013-6.51 2.965-6.497 6.606a6.48 6.48 0 0 0 6.542 6.504m-.037-11.146c2.61-.009 4.43 2.069 4.439 4.576.008 2.541-1.797 4.611-4.408 4.62-2.607.009-4.417-2.049-4.425-4.59-.009-2.508 1.787-4.597 4.394-4.606m8.887-3.444-1.006.004.01 3.04-.385.001-.01-3.041-.994.003v-.322l2.384-.008zm3.49 3.029-.337.001-.01-3.076h-.025l-.923 3.08h-.282l-.953-3.073h-.014l.01 3.076-.355.002-.012-3.366.586-.002.878 2.722.835-2.727.591-.002z" fill="#90d307"/><path d="m49.13 34.098c.001.243-1.75.45-3.913.457-2.16.008-3.914-.188-3.914-.43-.001-.247 1.75-.451 3.91-.459 2.163-.007 3.915.186 3.916.432m-12.59.016c.002.244-2.184.452-4.886.46-2.696.01-4.883-.183-4.884-.427 0-.246 2.185-.452 4.882-.461 2.701-.01 4.888.182 4.889.428" fill="#030505"/><g fill="#e86bb0"><path d="m29.972 28.805c-.183-.203-3.62.414-3.927 1.145-.216.515.318 1.105.662 1.129.778.053 3.269-1.136 3.628-1.276.36-.138-.253-.868-.364-1m2.982.085c.18-.217 3.638.48 3.955 1.237.22.54-.292 1.084-.642 1.112-.784.062-3.31-1.163-3.675-1.307-.362-.14.248-.908.362-1.043"/><path d="m32.602 30.407c.143-.08 1.387-.747 1.437-.37.052.382.212 3.104-.011 3.848-.099.33-1 .586-1.522.13-.331-.288-.194-3.52.037-3.653zm-3.323-.05c.142-.085 1.386-.751 1.436-.371s.209 3.1-.01 3.847c-.098.327-1.003.583-1.525.13-.326-.289-.193-3.521.039-3.652"/><path d="m33.012 27.385c.759.582.72.956.874 2.286.142 1.255.238 3.298.076 3.311-.735.06-4.634.377-4.875-.097-.026-.05-.16-.692-.057-2.792-.029-1.31.135-2.209.751-2.697.819-.647 2.4-.647 3.23-.01"/><path d="m29.617 32.66c-1.09-.79-1.506-.089-1.838.186-.312.257-1.11.687-2.008.53-1.207-.21-1.748-1.794-1.166-2.068.828-.383.669.503 1.21.946.23.3 1.038.503 1.9-.097.862-.605 1.297-.393 1.57-.033zm7.867-20.041c.501 1.54 1.68 8.143 1.207 11.76-.477 3.614-3.742 4.965-6.896 5.11-4.134-.302-6.502-1.726-7.514-4.269-.795-1.996-1.428-8.063-.954-11.057.183-1.999.697-2.519 1.25-2.5 1.742.061 4.607 7.546 4.772 7.514l3.554-.07c1.613-4.902 3.611-9.464 4.58-6.488"/></g><path d="m30.143 21.899c.006 1.611-1.31 2.917-2.941 2.922-1.628.006-2.953-1.291-2.959-2.902-.005-1.604 1.31-2.912 2.939-2.917 1.63-.006 2.956 1.293 2.961 2.897" fill="#fff"/><path d="m34.197 26.21c.003 1.063-1.294 1.928-2.894 1.934-1.599.005-2.9-.852-2.904-1.916-.003-1.062 1.292-1.93 2.891-1.936 1.6-.005 2.903.854 2.907 1.917m-4.006-3.725c.002.662-.518 1.208-1.163 1.21-.648.003-1.174-.54-1.176-1.204a1.186 1.186 0 0 1 1.168-1.205 1.185 1.185 0 0 1 1.17 1.199" fill="#231f20"/><path d="m38.153 22.022a2.921 2.921 0 0 1 -2.916 2.93 2.92 2.92 0 0 1 -.02-5.841 2.924 2.924 0 0 1 2.936 2.911" fill="#fff"/><path d="m38.106 22.726c.002.677-.53 1.231-1.186 1.233-.667.003-1.2-.548-1.203-1.225-.002-.68.528-1.232 1.194-1.234.656-.002 1.191.546 1.193 1.226m-6.81 6.483c-2.064.007-3.28-1.367-3.286-1.37.007.002 0 0 .022.016l.103-.176c.021.018.016.011.019.014l.002.004v.003h.003v.002l.014.013.039.04c.033.037.09.085.155.147.192.168.399.318.617.451a4.388 4.388 0 0 0 2.31.65c.988-.003 2.173-.329 3.539-1.317l.12.166c-1.389 1.006-2.625 1.354-3.655 1.357z" fill="#231f20"/><g fill="#90d307"><path d="m43.664 29.74c.114.084.741.565.492.75-.25.184-1.93 1.655-2.538 1.76-.276.049-.81-.331-.752-.8.08-.664 2.614-1.846 2.798-1.71m2.464.039c-.097.1-.638.684-.355.823.28.142 2.208 1.304 2.833 1.304.28 0 .725-.406.586-.86-.2-.638-2.905-1.43-3.064-1.267"/><path d="m45.991 31.161c.114-.067 1.11-.612 1.145-.302.043.312.168 2.54-.007 3.15-.08.27-.799.48-1.217.106-.262-.235-.154-2.882.03-2.994m-2.605-.001c.114-.067 1.106-.614 1.148-.301.042.308.166 2.537-.01 3.146-.079.27-.8.48-1.213.11-.269-.237-.157-2.886.026-2.992"/><path d="m46.32 28.685c.605.477.574.785.694 1.873.116 1.03.195 2.7.062 2.71-.59.05-3.699.314-3.89-.077-.023-.041-.129-.569-.043-2.286-.028-1.073.102-1.81.594-2.213.654-.524 1.915-.524 2.583-.009"/><path d="m42.467 30.044c-2.086-.966-2.763-3.833-2.643-5.539.13-1.774-.917-10.133-.356-11.68.588-1.611 3.248-1.909 3.676.14.545 2.591.093 9.908.093 9.908.266.656 2.05.606 2.94.23 1.18-.495-.553-8.213.11-10.345.46-1.467 2.482-1.41 3.082-.55 1.323 1.905.432 4.512.474 12.99.037 6.699-5.287 4.98-7.052 5.02"/></g><path d="m46.95 28.13c.03.75-.905 1.397-2.09 1.453s-2.167-.507-2.2-1.257c-.034-.75.904-1.397 2.092-1.451 1.182-.054 2.168.506 2.199 1.256" fill="#231f20"/><path d="m44.446 25.108c0 1.166-.957 2.109-2.146 2.113-1.185.004-2.149-.938-2.15-2.104s.96-2.113 2.146-2.117c1.184-.003 2.15.942 2.15 2.108m5.139-.026c0 1.167-.96 2.11-2.146 2.114-1.183.004-2.15-.937-2.149-2.104 0-1.166.96-2.111 2.145-2.115 1.186-.004 2.15.94 2.15 2.105" fill="#fff"/><path d="m42.724 29.707.176-.1c.112.22.973.736 1.998.724.686-.002 1.448-.218 2.158-.868l.14.15a3.378 3.378 0 0 1 -2.297.921c-1.099-.005-1.969-.493-2.175-.827m-.93-4.939a.83.83 0 0 1 -.92.725.828.828 0 0 1 -.7-.942.83.83 0 0 1 .922-.725.826.826 0 0 1 .699.942m5.128.091a.824.824 0 0 1 -.92.724.828.828 0 0 1 -.698-.942.83.83 0 0 1 .92-.723.825.825 0 0 1 .698.941" fill="#231f20"/></g></svg>