<svg viewBox="94 217.5 406.8 406.79999999999995" xmlns="http://www.w3.org/2000/svg" width="2500" height="1513"><linearGradient id="a" gradientUnits="userSpaceOnUse" x1="320.06" x2="330.863" y1="358.398" y2="333.117"><stop offset="0" stop-color="#fff"/><stop offset=".646" stop-color="#d2d1d2"/><stop offset="1" stop-color="#b8b8b9"/></linearGradient><switch><g clip-rule="evenodd" fill-rule="evenodd"><path d="M94 217.5h406.8v406.8H94z" fill="#009ea9"/><path d="M165.7 481.1c-22.4-60.7 47.6-109.7 82.8-127.8 32.5-16.8 63.6-23 94.9-24.5l90.6 36.1c5.4 8.1 7.6 16.8 8 25.1 2.6 54.1-57.8 102.2-119.9 123.5-63.1 21.7-140.7 10.3-156.4-32.4z" fill="#6f6f6e" opacity=".3"/><path d="M157.2 472.3c-22.7-61.6 48.4-111.3 84.1-129.8 33-17 64.5-23.3 96.4-24.8l91.9 36.7c5.5 8.2 7.7 17 8.1 25.4 2.6 54.9-58.7 103.7-121.7 125.4-64.1 22-142.8 10.5-158.8-32.9z" fill="url(#a)"/><path d="M211.2 427.5c2.6-1.8 5.5-2.5 8-2.2 5.4.7 6.7 5.1 8.1 8.8 5 13.1 6.3 30.8 23.4 40.2-2.5 1.1-5.4 1.8-8.7 1.1-10.8-2.3-15.5-11.7-18.9-21.5-5.6 1.8-10.4 4.9-15 7.7 3.9 10.6 8.8 20.1 18.9 25.7-3.2 1.2-6.9 1.3-10.8 0-8.7-2.8-14.1-10.8-17.7-20.8-2.7 1-5.5 1.6-8.6 1.5-4.5-.1-8.4-2.7-11.4-6.7 5.8.7 11.6-1 17.4-3.4-2-7.6-8.6-24.1-13.7-29.5 4.4-1.4 8.2-1.5 11 .2 2.1 1.3 3.4 3.4 4.4 5.3 3.3 6.3 5.6 13.2 7.9 19.9 5.4-2.3 10.9-4.3 16.2-4.5-1.1-3.4-2-6.8-3.1-9.8-1.7-4.3-4-9.3-7.4-12zm147.9-53.8c-5.4 4.6-13.2 4.8-17.3 11.7-1.7 2.9-2.3 6.3-1.5 10 2.2 10 6 18.5 9.6 27.5 1.6 4.1 5.9 6.8 10.6 6.8 7.7 0 12.6-4.7 16.1-9.4 4.7-6.3 7.4-13.5 9.2-21.1 15.6 8.1 25.4 8.7 31.3 2.8-10.1-2.5-20.5-6.5-29.5-11.7 2-11.9 3-24.3 6.8-35.4-6 1-8.8 5.3-10.9 12.7-1.5 5.2-2.6 11.4-3.5 17.7-6-4.4-11-9.3-14.5-14.7-2.9 7.9 1.8 17.1 13 24.4-2.1 12.9-4.9 24.5-12.2 27.3-2.1.8-5.3.6-6.7-1.9-1.8-3.2-3.4-7.1-5-11.1 4-3.9 10.6-5.9 9.4-13.8-3.5 3.4-8.3 4.4-11.7 7.9l-.1-.3c-2.1-5.4-3.7-10.2-3.4-13 .8-6.8 13.5-7.1 10.3-16.4zm-51.3 34c-1.8-2.8-2.4-5.7-.4-8.3 4.4-5.5 19.7-7.6 28.5-14 1.7 6.5-3.4 9.8-9.9 12.6 3.7 8.4 6.4 17 9.8 25.4 2.2 5.3 4.4 10.8 7 15.6-13.4 5.7-15.8-14.7-19.5-22.4-2.7-5.5-3.5-9.3-5.7-15.2-3.8 1.8-7.5 3.7-9.8 6.3zm-32.5 5.5c2.3 1.7 3.9 6.4 5.9 11.9 2.6 7 5.3 15.5 7.9 21.8 2.6 6.4 7.3 9 13.7 7.7-4.5-6.4-6.7-14.6-9.5-21.9 3.5 2.3 6.9 4.6 10.4 7 5.5 3.8 11.2 6.1 17.2 6.8 4.3.5 7.9-.5 10.4-3-9.7-2.1-18.8-8.4-27.4-13.7 4.5-4.6 5.7-11.7 2.3-18-2.4-4.4-6.6-8.1-14.5-7-5.4.7-11.2 3.2-16.4 8.4zm10.2.3c1.8-1.8 4.8-3.2 7.2-2.6 5.6 1.5 7.7 6.3 7.7 10.5 0 3.8-4.2 7.1-7.7 9.3-2.3-5.7-4.1-11.5-7.2-17.2zm-36 6.7c-4.4 2.2-7.7 5.9-9.4 12.1-1.1 4.2-1.3 8.8.1 13.6 1.9 6.9 4.6 13.1 9.9 18.1 6.1 5.6 12.4 5.9 19.6 3.1 5.7-2.2 9.9-7.8 10.5-13 .8-6.3-.4-12.6-2.7-18.8-1.4-3.7-2.9-7.3-5.8-10.7-5-6-12.2-9.3-22.2-4.4zm1.2 7.1c-3.6 4.4-1.7 14.1 1.3 21.2 2.7 6.2 6.1 12 10.7 13.8 1.4.5 3.8.1 4.9-.6 3.4-2 4.2-4.9 3.6-9.4-.9-6.2-3-13-5.9-18.7-2-4-4.9-8.4-8.9-8.9-2-.4-4.3.9-5.7 2.6z" fill="#e10013"/><g fill="#6fb62a"><path d="M248.5 489.3c-1.5-.3-1.2-2.3.7-2.3 23.2 0 45.1-4.1 67.3-12.2 27.4-10.1 50.6-25 68.7-46.5 1.7-2 3-.4 1.9 1.2-16.9 25.1-39.7 42.8-68.5 53.5-22 8.2-45.5 10.6-70.1 6.3zM268.8 398.9c-10.9-13.8-26.3-14.4-44.2-5.2 11.9 14.8 26.6 17.7 42.9 8.9l-25.1-6.1zM287.7 392.3l-8.8-31.3 13.3 29.6c4.8-8.9 6.8-18.7 1.9-29.3-3.5-7.6-12.4-14.8-22-19.5-4.8 9.9-6.8 19.1-5.6 26.1 1.7 9.9 9.8 18.9 21.2 24.4zM318.1 378.1l11.5-20.6-8.2 21.5c15.3-7.6 20.1-19.7 15.1-36.1-13.3 6-24.8 18-18.4 35.2z"/></g><path d="M249.8 372.7c1.8 10.5 9.8 13 17.9 12-1.2-8.6-6.4-13.2-17.9-12zM305.1 371.5c6.7-5.8 9.3-14 1.6-22.4-4.9 4.1-11 12.8-1.6 22.4z" fill="#e10013"/><path d="M337.7 317.7l79.7 31.8c-21.3 2.1-45.8-.6-65.8-12.7-8.8-5.3-12.7-11.8-13.9-19.1z" fill="#fff"/></g></switch></svg>