<svg clip-rule="evenodd" fill-rule="evenodd" height="816" image-rendering="optimizeQuality" shape-rendering="geometricPrecision" text-rendering="geometricPrecision" viewBox="6869.41 8937.15 21645.24 3654.65" width="350mm" xmlns="http://www.w3.org/2000/svg" xmlns:xlink="http://www.w3.org/1999/xlink"><linearGradient id="a" gradientUnits="userSpaceOnUse" x1="24243" x2="25846.46" y1="10255.68" y2="10255.68"><stop offset="0" stop-color="#3271b6"/><stop offset=".812" stop-color="#419cd0"/><stop offset="1" stop-color="#51c8eb"/></linearGradient><linearGradient id="b" gradientUnits="userSpaceOnUse" x1="7579.85" x2="10227.3" y1="10831.49" y2="10831.49"><stop offset="0" stop-color="#3578bb"/><stop offset="1" stop-color="#3f98cf"/></linearGradient><linearGradient id="c" gradientUnits="userSpaceOnUse" x1="25991.7" x2="27571.44" xlink:href="#a" y1="10296.55" y2="10296.55"/><linearGradient id="d" gradientUnits="userSpaceOnUse" x1="21408.76" x2="23943.14" xlink:href="#a" y1="10262.21" y2="10262.21"/><linearGradient id="e" gradientUnits="userSpaceOnUse" x1="18859.83" x2="21183.77" xlink:href="#a" y1="10230.74" y2="10230.74"/><g fill="#96989a"><path d="m14720.58 11986.24h-208.89v-73.37h508.43v73.37h-210.02v594.06h-89.52zm7718.06-2960.89c-708.91 0-1267.46 544.97-1268.01 1237.49-.59 678.39 560.24 1229.02 1260.09 1238.62 690.28 9.05 1274.81-556.84 1276.51-1236.93 1.7-686.3-563.63-1238.62-1268.59-1239.18zm-8970 2515.69v-1095.04h-1584.02v1095.04h-261.77v-2473.86h261.77v1145.34h1584.02v-1145.34h261.74v2473.86zm4528.82-1318.34c-109.11-81.97-238.58-122.67-369.73-158.28-135.12-36.75-273.61-67.84-393.45-141.33-153.21-93.29-208.06-226.13-163.38-388.95 54.83-199.01 224.43-322.82 438.69-320.53 208.04 2.82 391.76 137.35 431.9 347.09 29.39 154.89 143.6 83.11 216.52 83.67 93.84.56 49.18-83.67 42.4-126.62-50.33-309.81-335.24-520.1-695.37-519.54-356.14 0-648.98 219.34-696.46 520.09-55.4 356.72 100.62 587.94 477.7 704.95 64.44 19.8 130.03 36.76 195.02 57.68 115.9 36.74 234.06 68.41 334.68 139.63 168.47 118.72 236.86 293.4 183.74 477.7-63.9 221.61-279.28 368.03-521.8 355.02-254.39-14.13-443.77-163.94-473.73-403.08-20.92-166.76-141.9-82.53-214.27-87.05-105.73-6.79-53.7 77.44-46.36 121.54 58.23 348.26 327.34 561.93 734.92 587.93 319.99 20.36 634.86-172.42 750.75-459.6 114.78-283.78 22.06-599.81-231.77-790.32zm-2752.01-1224.49c-754.13 0-1345.46 550.62-1342.06 1250.49 3.38 667.08 602.06 1217.14 1334.16 1225.63 733.21 7.9 1347.17-555.15 1347.73-1236.94.56-690.26-593.04-1239.18-1339.83-1239.18zm-2.26 2256.22c-576.62.56-1081.46-468.66-1084.29-1007.99-2.82-558.53 496.92-1033.41 1085.99-1032.29 591.34.58 1075.25 460.19 1075.81 1020.98.58 558.55-485.61 1018.16-1077.51 1019.3zm11486.73-2134.65c-271.34-26-542.69-2.26-813.48-14.69-101.2-5.1-108.57 37.87-108.57 119.28 0 78.56 13.59 113.05 104.03 109.67 232.36-8.49 465.27-11.31 697.6-5.08 213.7 5.64 400.26 77.44 495.8 287.16 150.95 332.44-79.71 679.53-461.87 693.1-236.29 9.05-473.73 11.87-710.06 4.52-106.26-3.38-129.44 32.79-124.92 130.03 7.93 154.9 2.27 310.37 2.27 465.25 0 167.9 7.36 336.38-2.85 504.27-6.18 111.95 62.19 88.19 122.12 87.63 58.23-1.14 128.33 28.27 124.95-85.37-7.91-253.83 1.12-508.21-4.53-762.04-2.25-87.63 17.54-119.86 111.38-116.46 189.38 7.35 378.19 4.53 567.58-15.27 403.64-41.84 664.25-314.3 664.25-701.57.56-386.68-260.61-662.56-663.7-700.43zm-1729.23-19.82c-310.35-62.75-626.94-20.91-940.7-31.08-78.01-2.83-63.32 52.56-63.32 97.8-.56 366.32 3.39 733.21-2.84 1099.56-1.68 101.18 41.86 109.66 122.12 106.83 77.47-2.26 137.38 6.78 133.44-109.11-9.07-292.83-3.97-586.23-1.7-879.64.55-34.47-30.55-97.22 45.77-94.98 227.83 7.35 458.49-28.26 682.92 31.11 278.71 74.04 437.56 329.57 388.38 612.23-45.8 260.06-279.84 430.22-604.89 438.13-91.59 2.82-182.61.58-295.69.58 249.32 333.54 478.84 639.94 708.94 946.35 118.14 158.28 200.11 183.72 400.81 122.1a977491.343 977491.343 0 0 0 -654.64-870.6c418.33-52.01 688-327.88 703.27-700.99 15.25-386.13-222.75-688-621.87-768.29zm-4427.05 1855.96c-323.37 362.94-814.06 428.52-1217.72 172.98-357.28-226.68-540.99-557.38-485.61-983.64 53.71-413.83 293.97-708.36 686.88-844.05 378.2-131.15 733.23-40.69 1005.7 249.31 116.46 123.82 226.69 144.74 379.9 123.24-204.07-466.39-818.03-736.61-1374.85-615.05-576.65 126.04-965.59 638.23-955.41 1259.53 9.62 557.97 453.39 1061.12 1027.75 1164 527.46 93.84 1131.23-202.39 1305.92-643.34-145.87-28.26-259.5-9.61-372.56 117.02zm1793.77 322.24c-557.97-40.7-996.12-542.72-949.74-1087.7 47.48-559.64 542.69-990.43 1089.93-948.59 545.54 41.83 991.58 541.01 950.91 1063.93-45.24 584.55-526.91 1013.63-1091.1 972.36zm653.78 1092.45-71.51 209.69h-91.78l233.68-667.43h106.97l234.23 667.43h-94.61l-73.75-209.69zm225.22-67.34-67.01-192.19c-15.77-43.8-25.9-83.23-36.02-122.1h-1.71c-10.15 39.97-21.95 80.47-34.9 121l-67 193.29zm-858.09 277.04h-88.96v-667.44h88.96zm-591.8-29.57c-39.4 14.24-117.68 36.69-210.56 36.69-104.18 0-189.21-25.73-256.78-88.15-59.1-55.3-95.71-144.56-95.71-248.59 1.13-199.29 141.34-344.95 371.62-344.95 79.4 0 141.88 16.98 171.16 30.67l-21.39 70.64c-36.59-15.87-82.2-28.47-151.47-28.47-167.22 0-276.45 100.75-276.45 268.27 0 169.19 105.29 269.4 265.18 269.4 58 0 97.99-7.66 118.26-18.07v-198.74h-139.63v-69.54h225.77zm-1004.49-310.99c0 229.97-143.58 352.05-318.68 352.05-181.89 0-309.12-136.88-309.12-338.91 0-211.9 135.7-350.98 318.69-350.98 188.07 0 309.11 139.62 309.11 337.84zm-532.65 10.94c0 142.91 79.4 270.49 218.47 270.49 140.76 0 220.15-125.94 220.15-277.59 0-132.52-71.51-271.04-219.03-271.04-146.4 0-219.59 131.42-219.59 278.14zm-862.61-337.82h88.96v595.72h292.79v71.72h-381.75zm-482.53 326.88c0 229.97-143.58 352.05-318.68 352.05-181.33 0-308.58-136.88-308.58-338.91 0-211.9 135.13-350.98 318.7-350.98 187.49 0 308.56 139.62 308.56 337.84zm-532.65 10.94c0 142.91 79.39 270.49 219.03 270.49 140.76 0 220.15-125.94 220.15-277.59 0-132.52-71.51-271.04-219.03-271.04-146.41 0-220.15 131.42-220.15 278.14zm-1091.22 329.62v-667.43h96.85l219.59 337.81c51.24 78.32 90.65 148.93 123.31 216.83l2.24-.54c-7.88-89.25-10.12-170.84-10.12-274.87v-279.23h83.33v667.43h-89.52l-217.91-338.37c-48.41-74.46-94.02-150.58-128.37-222.84l-3.38.54c5.62 84.31 7.33 164.81 7.33 275.4v285.27zm-478.6-21.35c-32.66 15.87-97.41 31.75-181.31 31.75-193.11 0-338.95-118.8-338.95-338.38 0-208.59 145.84-350.41 358.67-350.41 85.02 0 139.08 18.05 162.71 30.11l-21.39 70.1c-33.79-15.89-81.64-27.93-138.5-27.93-161.05 0-268.03 100.19-268.03 275.39 0 163.71 96.85 268.3 264.09 268.3 54.03 0 108.65-10.4 144.7-27.37zm-992.67-291.29h-266.88v240.92h297.28v71.72h-385.68v-667.43h370.47v72.27h-282.07v211.34h266.88z" fill-rule="nonzero"/><path d="m28077.44 9086.94c241.45 0 437.21 195.76 437.21 437.21 0 241.46-195.76 437.22-437.21 437.22-241.46 0-437.22-195.76-437.22-437.22 0-241.45 195.76-437.21 437.22-437.21zm-156.45 407.34v-168.64h160.97c37.63 0 65.15 7.77 82.55 23.29 17.49 15.53 26.14 35.38 26.14 59.46 0 16.51-4.52 31.74-13.57 45.69-8.84 14.15-22.01 24.28-39.3 30.57-17.4 6.38-41.28 9.63-72.14 9.63zm0 58.37h78.02c17.4 0 29.88.79 37.45 2.36 10.41 2.55 20.73 7.07 30.76 13.46 10.02 6.59 21.42 17.79 34.19 34.1 12.68 16.22 28.99 39.61 48.55 70.27l67.32 106.03h84.22l-88.15-138.76c-17.4-27.12-35.97-49.82-55.72-67.8-9.24-8.26-22.7-16.81-40.69-25.36 48.94-6.78 84.91-22.41 108.3-47.17 23.39-24.86 35.08-55.33 35.08-91.49 0-28.01-6.98-53.56-21.13-76.75-14.05-23.1-32.92-39.21-56.5-48.35-23.59-9.14-58.08-13.76-103.58-13.76h-225.74v509.44h67.62zm-20341.15 2980.1 551.42-2748.51h614.72l-150.15 789.52h700.89l276.78-1455.4 5.97-31.43h-700.87l-1308.32.02-700.87 3493.46h700.87zm927.36-1439.16h700.87l-150.15 789.51h614.73l560.99-2796.16h700.86l-700.86 3493.45v.02h-2009.2z"/></g><path d="m8131.26 9784.24-551.42 2748.51-9.56 47.67 654.16-.01 6.81-35.8 275.95-1451.02h700.87l-150.15 789.51h614.73l554.65-2764.61 6.34-31.55-654.17-.01-5.97 31.43-276.78 1455.4h-700.89l150.15-789.52z" fill="url(#b)"/><path d="m21408.2 10266.03c-.56 678.39 560.23 1229.01 1260.1 1238.64 690.25 9.03 1274.83-556.87 1276.51-1236.92 1.68-686.33-563.63-1238.64-1268.58-1239.2-708.92 0-1267.47 544.96-1268.03 1237.48zm1196.79 1015.33c-557.97-40.71-996.1-542.71-949.72-1087.69 47.45-559.67 542.69-990.45 1089.93-948.62 545.54 41.84 991.58 541.04 950.86 1063.96-43.21 558.5-484.88 975.07-1016.23 975.09-24.77 0-49.7-.89-74.84-2.74z" fill="url(#d)"/><path d="m19805.51 9061.9c-576.64 126.06-965.56 638.26-955.42 1259.54 9.63 557.97 453.42 1061.1 1027.76 1163.99 527.47 93.86 1131.21-202.38 1305.92-643.34-145.86-28.24-259.5-9.58-372.55 117.04-323.37 362.93-814.07 428.5-1217.72 172.99-357.29-226.71-541-557.41-485.59-983.69 53.68-413.8 293.96-708.33 686.86-844.03 378.19-131.12 733.21-40.69 1005.7 249.33 116.46 123.81 226.71 144.73 379.9 123.24-171.08-390.98-630.27-644.1-1102.32-644.12-91.04 0-182.51 9.4-272.54 29.05z" fill="url(#e)"/><path d="m24610.91 9070.76c-104.53 2.35-209.09 4.69-313.32 1.31-78.03-2.82-63.34 52.58-63.34 97.8-.54 366.33 3.41 733.22-2.82 1099.56-1.7 101.21 41.83 109.68 122.12 106.83 77.42-2.24 137.36 6.79 133.41-109.09-9.05-292.84-3.96-586.23-1.7-879.66.56-34.49-30.55-97.24 45.8-94.96 70.93 2.31 142.15.42 213.39-1.45 157.48-4.17 314.97-8.34 469.53 32.54 278.71 74.06 437.52 329.6 388.36 612.23-45.78 260.06-279.83 430.24-604.91 438.15-91.58 2.82-182.59.56-295.65.56 249.32 333.54 478.84 639.94 708.92 946.34 118.13 158.31 200.13 183.75 400.82 122.14-214.83-286.09-429.09-571-654.66-870.61 418.34-52.01 688-327.9 703.26-701.01 15.27-386.11-222.73-688-621.84-768.29-141.2-28.51-283.7-35.42-426.6-35.42-66.85 0-133.8 1.52-200.77 3.03z" fill="url(#a)"/><path d="m26080.62 9107.86h-1.14c-86.64 0-93.18 42.61-93.18 119.7 0 78.59 13.56 113.07 104.01 109.69 232.36-8.5 465.25-11.33 697.63-5.1 213.68 5.64 400.21 77.44 495.78 287.18 150.94 332.42-79.73 679.53-461.87 693.08-236.33 9.05-473.76 11.87-710.04 4.52-106.31-3.4-129.47 32.79-124.94 130.04 7.88 154.9 2.26 310.35 2.26 465.26 0 167.9 7.32 336.37-2.83 504.27-6.22 111.93 62.18 88.19 122.09 87.63 10.22-.19 20.85.56 31.37 1.28 49.25 3.49 96.37 6.98 93.6-86.65-7.93-253.83 1.1-508.23-4.55-762.06-2.27-87.61 17.51-119.84 111.37-116.46 189.38 7.35 378.2 4.53 567.6-15.27 403.64-41.84 664.24-314.3 664.24-701.55.58-386.69-260.6-662.58-663.68-700.45-157.11-15.02-314.2-13.42-471.19-11.81-114.17 1.19-228.31 2.37-342.31-2.88-4.96-.25-9.7-.39-14.22-.42z" fill="url(#c)"/></svg>