<svg clip-rule="evenodd" fill-rule="evenodd" height="816" image-rendering="optimizeQuality" shape-rendering="geometricPrecision" text-rendering="geometricPrecision" viewBox="6971.08 6904.95 20485.05 9323.08" width="350mm" xmlns="http://www.w3.org/2000/svg"><path d="m8468.17 8765.86-1471.58 7334.96-25.51 127.21 1745.75-.03 18.16-95.52 736.43-3872.36h1870.42l-400.7 2106.98h1640.53l1480.21-7377.93 16.9-84.21-1745.77-.01-15.95 83.86-738.64 3884.03h-1870.46l400.71-2106.98zm11862 5458.71 1171.32-5838.39h1305.79l-318.95 1677.08h1488.82l587.94-3091.56 12.69-66.75h-1488.8l-2779.13.02-1488.79 7420.83h1488.79zm1969.88-3057.08h1488.8l-318.95 1677.09h1305.8l1191.66-5939.62h1488.77l-1488.77 7420.79v.06h-3881.65v-.01h-386.29z" fill="#2075bb"/></svg>