<svg clip-rule="evenodd" fill-rule="evenodd" height="418" image-rendering="optimizeQuality" shape-rendering="geometricPrecision" text-rendering="geometricPrecision" viewBox="0 -61.69999999999982 21726.32 3694.42" width="2500" xmlns="http://www.w3.org/2000/svg"><path d="M7936.59 3020.55h-211.16v-74.17h513.96v74.17h-212.31v600.52h-90.49zM718.16 3573.01L1275.58 794.6h621.41l-151.78 798.11h708.52l279.79-1471.23 6.03-31.77h-708.5l-1322.55.02L0 3621.2h708.5l9.66-48.18zm937.45-1454.82h708.5l-151.78 798.1h621.42L3400.84 89.71h708.49l-708.49 3531.46v.02H1369.78l285.84-1503zM15738.62 27.45c-716.62 0-1281.25 550.9-1281.81 1250.95-.6 685.77 566.34 1242.39 1273.8 1252.1 697.79 9.15 1288.68-562.9 1290.4-1250.39 1.72-693.77-569.76-1252.1-1282.39-1252.66zM6671.03 2570.51V1463.56H5069.78v1106.95h-264.62V69.73h264.62v1157.8h1601.25V69.73h264.59v2500.78zm4578.09-1332.68c-110.3-82.86-241.18-124-373.75-160-136.59-37.15-276.59-68.58-397.73-142.87-154.88-94.3-210.32-228.59-165.16-393.18 55.43-201.18 226.87-326.33 443.46-324.02 210.3 2.85 396.02 138.84 436.6 350.87 29.71 156.58 145.16 84.01 218.88 84.58 94.86.57 49.72-84.58 42.86-128C11403.4 212.03 11115.39-.55 10751.34.02c-360.01 0-656.04 221.73-704.04 525.75-56 360.6 101.71 594.34 482.9 712.62 65.14 20.02 131.44 37.16 197.14 58.31 117.16 37.14 236.61 69.15 338.32 141.15 170.3 120.01 239.44 296.59 185.74 482.9-64.6 224.02-282.32 372.03-527.48 358.88-257.16-14.28-448.6-165.72-478.88-407.47-21.15-168.57-143.44-83.43-216.6-88-106.88-6.86-54.28 78.28-46.86 122.86 58.86 352.05 330.9 568.04 742.92 594.33 323.47 20.58 641.77-174.3 758.92-464.6 116.03-286.87 22.3-606.34-234.29-798.92zM8467.17.02c-762.33 0-1360.1 556.61-1356.66 1264.1 3.42 674.34 608.61 1230.38 1348.68 1238.96 741.19 7.99 1361.83-561.19 1362.39-1250.4C9822.15 554.91 9222.09.02 8467.17.02zm-2.28 2280.77c-582.89.57-1093.23-473.76-1096.09-1018.96-2.85-564.61 502.33-1044.65 1097.81-1043.52 597.77.59 1086.95 465.2 1087.51 1032.09.59 564.63-490.89 1029.24-1089.23 1030.39zm11611.7-2157.87c-274.29-26.28-548.59-2.28-822.33-14.85-102.3-5.16-109.75 38.28-109.75 120.58 0 79.41 13.74 114.28 105.16 110.86 234.89-8.58 470.33-11.43 705.19-5.14 216.03 5.7 404.61 78.28 501.19 290.28 152.59 336.06-80.58 686.92-466.9 700.64-238.86 9.15-478.88 12-717.79 4.57-107.42-3.42-130.85 33.15-126.28 131.44 8.02 156.59 2.29 313.75 2.29 470.31 0 169.73 7.44 340.04-2.88 509.76-6.25 113.17 62.87 89.15 123.45 88.58 58.86-1.15 129.73 28.58 126.31-86.3-8-256.59 1.13-513.74-4.58-770.33-2.27-88.58 17.73-121.16 112.59-117.73 191.44 7.43 382.3 4.58 573.76-15.44 408.03-42.3 671.48-317.72 671.48-709.2.57-390.89-263.45-669.77-670.92-708.05zm-1748.04-20.04c-313.73-63.43-633.76-21.14-950.93-31.42-78.86-2.86-64.01 53.13-64.01 98.86-.57 370.31 3.43 741.19-2.87 1111.52-1.7 102.28 42.32 110.85 123.45 107.99 78.31-2.28 138.87 6.85 134.89-110.3-9.17-296.02-4.01-592.61-1.72-889.21.56-34.85-30.88-98.28 46.27-96.01 230.31 7.43 463.48-28.57 690.35 31.45 281.74 74.85 442.32 333.16 392.61 618.89-46.3 262.89-282.88 434.9-611.47 442.9-92.59 2.85-184.6.59-298.91.59 252.03 337.17 484.05 646.9 716.65 956.65 119.43 160 202.29 185.72 405.17 123.43-217.18-289.16-433.76-577.19-661.76-880.07 422.88-52.58 695.49-331.45 710.92-708.62 15.42-390.33-225.17-695.49-628.64-776.65zm-4475.22 1876.15c-326.89 366.89-822.92 433.18-1230.97 174.86-361.17-229.15-546.88-563.44-490.89-994.34 54.29-418.33 297.17-716.07 694.35-853.23 382.31-132.58 741.21-41.13 1016.64 252.02 117.73 125.17 229.16 146.31 384.03 124.58-206.29-471.46-826.93-744.62-1389.81-621.74-582.92 127.41-976.1 645.17-965.8 1273.23 9.72 564.04 458.32 1072.66 1038.93 1176.66 533.2 94.86 1143.54-204.59 1320.13-650.34-147.46-28.57-262.32-9.71-376.61 118.29zm1813.29 325.75c-564.04-41.14-1006.96-548.62-960.07-1099.53 48-565.73 548.59-1001.21 1101.79-958.91 551.48 42.29 1002.37 546.9 961.26 1075.51-45.73 590.91-532.64 1024.66-1102.97 982.94zm660.89 1104.34l-72.29 211.97h-92.78l236.22-674.69h108.13l236.78 674.69h-95.64l-74.55-211.97h-245.88zm227.67-68.07l-67.74-194.28c-15.94-44.28-26.18-84.14-36.41-123.43h-1.73c-10.26 40.4-22.19 81.35-35.28 122.32l-67.73 195.39zm-867.43 280.05h-89.93v-674.7h89.93zm-598.24-29.89c-39.83 14.39-118.96 37.09-212.85 37.09-105.31 0-191.27-26.01-259.57-89.11-59.74-55.9-96.75-146.13-96.75-251.29 1.14-201.46 142.88-348.7 375.66-348.7 80.26 0 143.42 17.16 173.02 31l-21.62 71.41c-36.99-16.04-83.09-28.78-153.12-28.78-169.04 0-279.46 101.85-279.46 271.19 0 171.03 106.44 272.33 268.07 272.33 58.63 0 99.06-7.74 119.55-18.27v-200.9h-141.15v-70.3h228.23v324.33zm-1015.42-314.37c0 232.47-145.14 355.88-322.15 355.88-183.87 0-312.48-138.37-312.48-342.6 0-214.21 137.18-354.8 322.16-354.8 190.12 0 312.47 141.14 312.47 341.52zm-538.45 11.06c0 144.46 80.26 273.43 220.85 273.43 142.29 0 222.55-127.31 222.55-280.61 0-133.96-72.29-273.99-221.41-273.99-147.99 0-221.98 132.85-221.98 281.17zm-872-341.5h89.93v602.2h295.98v72.5h-385.9v-674.7zm-487.78 330.44c0 232.47-145.14 355.88-322.15 355.88-183.3 0-311.94-138.37-311.94-342.6 0-214.21 136.6-354.8 322.17-354.8 189.53 0 311.92 141.14 311.92 341.52zm-538.45 11.06c0 144.46 80.25 273.43 221.41 273.43 142.29 0 222.55-127.31 222.55-280.61 0-133.96-72.29-273.99-221.41-273.99-148 0-222.55 132.85-222.55 281.17zm-1103.09 333.21v-674.69h97.9l221.98 341.49c51.8 79.17 91.64 150.55 124.65 219.19l2.26-.55c-7.97-90.22-10.23-172.7-10.23-277.86v-282.27h84.24v674.69h-90.49l-220.28-342.05c-48.94-75.27-95.04-152.22-129.77-225.26l-3.42.55c5.68 85.23 7.41 166.6 7.41 278.4v288.37h-84.26zm-483.81-21.58c-33.02 16.04-98.47 32.1-183.28 32.1-195.21 0-342.64-120.09-342.64-342.06 0-210.86 147.43-354.22 362.57-354.22 85.95 0 140.59 18.25 164.48 30.44l-21.62 70.86c-34.16-16.06-82.53-28.23-140.01-28.23-162.8 0-270.95 101.28-270.95 278.39 0 165.49 97.9 271.22 266.96 271.22 54.62 0 109.83-10.51 146.27-27.67l18.21 69.18zm-1003.47-294.46h-269.78v243.54h300.51v72.5h-389.88v-674.69h374.5v73.06h-285.14v213.64h269.78v71.95zM21326.17 99.83c220.99 0 400.15 179.18 400.15 400.16 0 220.99-179.16 400.15-400.15 400.15-221 0-400.16-179.16-400.16-400.15 0-220.98 179.16-400.16 400.16-400.16zm-143.19 372.82V318.31h147.33c34.44 0 59.63 7.1 75.54 21.31 16.01 14.21 23.93 32.39 23.93 54.42 0 15.11-4.13 29.05-12.4 41.82-8.1 12.95-20.16 22.21-35.99 27.98-15.91 5.83-37.77 8.81-66.02 8.81h-132.38zm0 53.41h71.42c15.91 0 27.33.73 34.26 2.16 9.53 2.35 18.98 6.48 28.15 12.32 9.18 6.02 19.61 16.29 31.31 31.22 11.6 14.84 26.54 36.23 44.42 64.3l61.62 97.05h77.08l-80.68-127.01c-15.93-24.82-32.91-45.6-51.01-62.06-8.44-7.56-20.76-15.38-37.22-23.21 44.78-6.21 77.7-20.5 99.11-43.17 21.41-22.74 32.11-50.63 32.11-83.73 0-25.63-6.39-49.02-19.34-70.25-12.85-21.14-30.12-35.89-51.71-44.25-21.58-8.36-53.16-12.6-94.81-12.6h-206.58V733.1h61.88V526.04z" fill="#2075bb" fill-rule="nonzero"/></svg>