<svg clip-rule="evenodd" fill-rule="evenodd" height="816" image-rendering="optimizeQuality" shape-rendering="geometricPrecision" text-rendering="geometricPrecision" viewBox="4061.62 1273.88 28483.03 17237.74" width="350mm" xmlns="http://www.w3.org/2000/svg"><path d="m9327.77 17482.17h-355.11v-124.74h864.34v124.74h-357.04v1009.9h-152.19zm13120.76-5033.54c-1205.16 0-2154.69 926.46-2155.64 2103.75-.99 1153.27 952.42 2089.33 2142.17 2105.66 1173.48 15.38 2167.18-946.64 2170.07-2102.8 2.9-1166.71-958.17-2105.66-2156.6-2106.61zm-15249.06 4276.69v-1861.58h-2692.85v1861.58h-445v-4205.57h445v1947.08h2692.85v-1947.08h444.96v4205.57zm7699.02-2241.19c-185.49-139.35-405.59-208.53-628.55-269.07-229.69-62.47-465.14-115.32-668.86-240.27-260.46-158.58-353.7-384.42-277.75-661.21 93.21-338.32 381.53-548.79 745.78-544.9 353.66 4.79 666 233.5 734.23 590.05 49.96 263.31 244.12 141.29 368.09 142.24 159.53.95 83.61-142.24 72.07-215.26-85.55-526.67-569.91-884.17-1182.12-883.22-605.44 0-1103.28 372.89-1183.99 884.17-94.19 606.42 171.06 999.49 812.09 1198.42 109.54 33.66 221.05 62.48 331.54 98.04 197.03 62.47 397.9 116.31 568.96 237.38 286.39 201.83 402.66 498.79 312.35 812.1-108.62 376.73-474.77 625.65-887.06 603.53-432.47-24.03-754.41-278.7-805.35-685.24-35.56-283.49-241.23-140.3-364.25-147.99-179.74-11.53-91.3 131.66-78.81 206.62 98.99 592.04 556.47 955.29 1249.36 999.49 543.99 34.61 1079.26-293.12 1276.28-781.33 195.13-482.42 37.5-1019.67-394.01-1343.55zm-4678.43-2081.63c-1282.03 0-2287.3 936.06-2281.52 2125.84 5.75 1134.04 1023.52 2069.15 2268.08 2083.57 1246.47 13.44 2290.2-943.75 2291.15-2102.8.96-1173.44-1008.16-2106.61-2277.71-2106.61zm-3.84 3835.58c-980.27.95-1838.5-796.72-1843.3-1713.59-4.8-949.5 844.76-1756.8 1846.19-1754.89 1005.28.99 1827.92 782.32 1828.87 1735.67.99 949.53-825.53 1730.87-1831.76 1732.81zm19527.51-3628.91c-461.29-44.2-922.58-3.84-1382.92-24.98-172.05-8.67-184.58 64.39-184.58 202.78 0 133.56 23.11 192.19 176.85 186.44 395.01-14.43 790.96-19.22 1185.93-8.64 363.29 9.6 680.44 131.66 842.86 488.17 256.61 565.15-135.5 1155.21-785.18 1178.28-401.7 15.38-805.35 20.18-1207.1 7.69-180.65-5.75-220.06 55.74-212.37 221.05 13.48 263.32 3.85 527.62 3.85 790.93 0 285.43 12.52 571.85-4.84 857.25-10.51 190.32 105.73 149.93 207.61 148.98 98.99-1.94 218.16 48.05 212.41-145.13-13.44-431.52 1.91-863.96-7.69-1295.47-3.84-148.98 29.81-203.77 189.34-197.98 321.94 12.49 642.93 7.69 964.88-25.97 686.19-71.12 1129.24-534.31 1129.24-1192.67.95-657.36-443.05-1126.35-1128.29-1190.73zm-2939.7-33.69c-527.61-106.68-1065.81-35.56-1599.21-52.85-132.61-4.8-107.63 89.36-107.63 166.26-.96 622.76 5.75 1246.47-4.84 1869.27-2.85 172.01 71.16 186.41 207.61 181.61 131.69-3.85 233.54 11.53 226.84-185.49-15.42-497.81-6.74-996.6-2.89-1495.39.95-58.6-51.93-165.28 77.82-161.47 387.31 12.49 779.43-48.05 1160.96 52.88 473.81 125.87 743.86 560.28 660.25 1040.8-77.85 442.1-475.72 731.38-1028.31 744.82-155.71 4.8-310.44.99-502.67.99 423.83 567.02 814.03 1087.9 1205.19 1608.81 200.84 269.06 340.19 312.31 681.39 207.57-365.23-486.3-729.47-970.67-1112.9-1480.04 711.16-88.41 1169.6-557.39 1195.56-1191.68 25.93-656.42-378.67-1169.6-1057.17-1306.09zm-7526.02 3155.14c-549.73 617-1383.91 728.48-2070.13 294.07-607.38-385.37-919.69-947.56-825.54-1672.2 91.3-703.51 499.75-1204.21 1167.7-1434.89 642.94-222.96 1246.5-69.18 1709.7 423.83 197.98 210.5 385.37 246.06 645.83 209.51-346.92-792.87-1390.65-1252.25-2337.26-1045.6-980.3 214.28-1641.51 1085.01-1624.19 2141.22 16.34 948.55 770.75 1803.9 1747.17 1978.81 896.69 159.52 1923.1-344.07 2220.07-1093.69-247.97-48.04-441.15-16.33-633.35 198.94zm3049.42 547.8c-948.55-69.18-1693.41-922.62-1614.56-1849.09 80.71-951.4 922.58-1683.73 1852.89-1612.61 927.42 71.12 1685.68 919.72 1616.54 1808.69-76.91 993.74-895.74 1723.18-1854.87 1653.01zm1111.43 1857.17-121.57 356.48h-156.03l397.26-1134.64h181.86l398.18 1134.64h-160.83l-125.38-356.48zm382.87-114.48-113.91-326.71c-26.81-74.47-44.03-141.5-61.24-207.57h-2.9c-17.25 67.94-37.32 136.8-59.33 205.7l-113.91 328.58zm-1458.76 470.97h-151.23v-1134.64h151.23zm-1006.05-50.26c-66.99 24.2-200.06 62.37-357.96 62.37-177.1 0-321.66-43.74-436.53-149.86-100.47-94.01-162.7-245.74-162.7-422.59 1.91-338.81 240.28-586.42 631.76-586.42 134.97 0 241.19 28.86 290.97 52.14l-36.37 120.08c-62.2-26.98-139.74-48.4-257.5-48.4-284.27 0-469.97 171.28-469.97 456.07 0 287.62 179 457.98 450.82 457.98 98.6 0 166.58-13.02 201.04-30.73v-337.85h-237.38v-118.22h383.82zm-1707.65-528.69c0 390.95-244.08 598.49-541.76 598.49-309.21 0-525.49-232.69-525.49-576.15 0-360.23 230.68-596.66 541.76-596.66 319.72 0 525.49 237.35 525.49 574.32zm-905.51 18.6c0 242.95 134.98 459.84 371.41 459.84 239.29 0 374.26-214.1 374.26-471.91 0-225.28-121.57-460.76-372.36-460.76-248.88 0-373.31 223.41-373.31 472.83zm-1466.43-574.29h151.23v1012.72h497.74v121.92h-648.97zm-820.31 555.69c0 390.95-244.09 598.49-541.76 598.49-308.26 0-524.59-232.69-524.59-576.15 0-360.23 229.73-596.66 541.8-596.66 318.74 0 524.55 237.35 524.55 574.32zm-905.51 18.6c0 242.95 134.97 459.84 372.35 459.84 239.29 0 374.26-214.1 374.26-471.91 0-225.28-121.56-460.76-372.35-460.76-248.89 0-374.26 223.41-374.26 472.83zm-1855.07 560.36v-1134.64h164.64l373.31 574.28c87.1 133.14 154.1 253.19 209.62 368.62l3.81-.92c-13.4-151.73-17.21-290.44-17.21-467.29v-474.69h141.67v1134.64h-152.19l-370.45-575.24c-82.3-126.58-159.84-255.98-218.23-378.82l-5.75.92c9.56 143.33 12.46 280.18 12.46 468.17v484.97zm-813.63-36.3c-55.52 26.99-165.59 53.97-308.22 53.97-328.29 0-576.23-201.96-576.23-575.24 0-354.61 247.94-595.7 609.74-595.7 144.54 0 236.44 30.69 276.62 51.19l-36.37 119.17c-57.44-27.02-138.79-47.48-235.45-47.48-273.79 0-455.65 170.32-455.65 468.17 0 278.3 164.65 456.1 448.95 456.1 91.86 0 184.71-17.67 245.99-46.53zm-1687.54-495.2h-453.71v409.58h505.39v121.92h-655.67v-1134.64h629.81v122.87h-479.53v359.27h453.71zm2448.3-7346 1494.75-7450.49h1666.34l-407.02 2140.16h1899.92l750.28-3945.2 16.2-85.18h-1899.89l-3546.5.03-1899.88 9469.86h1899.88zm2513.81-3901.2h1899.88l-407.01 2140.17h1666.36l1520.69-7579.67h1899.85l-1899.84 9469.82v.07h-4953.46v-.01h-492.95zm15701.07 5839.94c378.96 0 686.2 307.24 686.2 686.21 0 378.96-307.24 686.2-686.2 686.2-378.97 0-686.21-307.24-686.21-686.2 0-378.97 307.24-686.21 686.21-686.21zm-245.55 639.32v-264.68h252.64c59.08 0 102.26 12.18 129.56 36.55 27.45 24.37 41.03 55.53 41.03 93.33 0 25.9-7.1 49.81-21.29 71.71-13.88 22.22-34.55 38.1-61.69 47.97-27.3 10.02-64.78 15.12-113.21 15.12zm0 91.62h122.46c27.3 0 46.89 1.23 58.77 3.7 16.35 4.01 32.55 11.1 48.27 21.13 15.73 10.32 33.62 27.91 53.68 53.52 19.89 25.44 45.5 62.15 76.2 110.27l105.65 166.43h132.18l-138.36-217.78c-27.3-42.58-56.45-78.21-87.45-106.43-14.49-12.95-35.63-26.38-63.85-39.79 76.8-10.64 133.25-35.17 169.97-74.04 36.71-39.02 55.06-86.84 55.06-143.59 0-43.96-10.95-84.06-33.16-120.47-22.06-36.24-51.67-61.53-88.69-75.88-37.02-14.34-91.16-21.59-162.56-21.59h-354.29v799.57h106.12z" fill="#2075bb" fill-rule="nonzero"/></svg>