<svg clip-rule="evenodd" fill-rule="evenodd" height="816" image-rendering="optimizeQuality" shape-rendering="geometricPrecision" text-rendering="geometricPrecision" viewBox="-6.16 -66.51 35012.32 21685.37" width="350mm" xmlns="http://www.w3.org/2000/svg" xmlns:xlink="http://www.w3.org/1999/xlink"><linearGradient id="a" gradientUnits="userSpaceOnUse" x1="15771.68" x2="19722.4" y1="15400.07" y2="15400.07"><stop offset="0" stop-color="#3271b6"/><stop offset=".812" stop-color="#419cd0"/><stop offset="1" stop-color="#51c8eb"/></linearGradient><linearGradient id="d" gradientUnits="userSpaceOnUse" x1="27895.91" x2="30581.5" xlink:href="#a" y1="15511.94" y2="15511.94"/><linearGradient id="e" gradientUnits="userSpaceOnUse" x1="13050.74" x2="20227.31" y1="6905.15" y2="6905.15"><stop offset="0" stop-color="#3578bb"/><stop offset="1" stop-color="#3f98cf"/></linearGradient><linearGradient id="b" gradientUnits="userSpaceOnUse" x1="20104.89" x2="24413.36" xlink:href="#a" y1="15453.56" y2="15453.56"/><linearGradient id="c" gradientUnits="userSpaceOnUse" x1="24923.13" x2="27649.03" xlink:href="#a" y1="15442.46" y2="15442.46"/><path d="M-6.16-66.51h35012.32v21685.37H-6.16z" fill="#373435" stroke="#373435" stroke-miterlimit="22.926" stroke-width="20"/><g fill="#fefefe"><path d="M8734.94 18384.42h-355.11v-124.74h864.34v124.74h-357.04v1009.9h-152.19zm13120.76-5033.54c-1205.16 0-2154.69 926.46-2155.64 2103.75-.99 1153.27 952.42 2089.33 2142.17 2105.66 1173.48 15.38 2167.18-946.64 2170.07-2102.8 2.9-1166.71-958.17-2105.66-2156.6-2106.61zM6606.64 17627.57v-1861.58H3913.79v1861.58h-445V13422h445v1947.08h2692.85V13422h444.96v4205.57zm7699.02-2241.19c-185.49-139.35-405.59-208.53-628.55-269.07-229.69-62.47-465.14-115.32-668.86-240.27-260.46-158.58-353.7-384.42-277.75-661.21 93.21-338.32 381.53-548.79 745.78-544.9 353.66 4.79 666 233.5 734.23 590.05 49.96 263.31 244.12 141.29 368.09 142.24 159.53.95 83.61-142.24 72.07-215.26-85.55-526.67-569.91-884.17-1182.12-883.22-605.44 0-1103.28 372.89-1183.99 884.17-94.19 606.42 171.06 999.49 812.09 1198.42 109.54 33.66 221.05 62.48 331.54 98.04 197.03 62.47 397.9 116.31 568.96 237.38 286.39 201.83 402.66 498.79 312.35 812.1-108.62 376.73-474.77 625.65-887.06 603.53-432.47-24.03-754.41-278.7-805.35-685.24-35.56-283.49-241.23-140.3-364.25-147.99-179.74-11.53-91.3 131.66-78.81 206.62 98.99 592.04 556.47 955.29 1249.36 999.49 543.99 34.61 1079.26-293.12 1276.28-781.33 195.13-482.42 37.5-1019.67-394.01-1343.55zm-4678.43-2081.63c-1282.03 0-2287.3 936.06-2281.52 2125.84 5.75 1134.04 1023.52 2069.15 2268.08 2083.57 1246.47 13.44 2290.2-943.75 2291.15-2102.8.96-1173.44-1008.16-2106.61-2277.71-2106.61zm-3.84 3835.58c-980.27.95-1838.5-796.72-1843.3-1713.59-4.8-949.5 844.76-1756.8 1846.19-1754.89 1005.28.99 1827.92 782.32 1828.87 1735.67.99 949.53-825.53 1730.87-1831.76 1732.81zm19527.51-3628.91c-461.29-44.2-922.58-3.84-1382.92-24.98-172.05-8.67-184.58 64.39-184.58 202.78 0 133.56 23.11 192.19 176.85 186.44 395.01-14.43 790.96-19.22 1185.93-8.64 363.29 9.6 680.44 131.66 842.86 488.17 256.61 565.15-135.5 1155.21-785.18 1178.28-401.7 15.38-805.35 20.18-1207.1 7.69-180.65-5.75-220.06 55.74-212.37 221.05 13.48 263.32 3.85 527.62 3.85 790.93 0 285.43 12.52 571.85-4.84 857.25-10.51 190.32 105.73 149.93 207.61 148.98 98.99-1.94 218.16 48.05 212.41-145.13-13.44-431.52 1.91-863.96-7.69-1295.47-3.84-148.98 29.81-203.77 189.34-197.98 321.94 12.49 642.93 7.69 964.88-25.97 686.19-71.12 1129.24-534.31 1129.24-1192.67.95-657.36-443.05-1126.35-1128.29-1190.73zm-2939.7-33.69c-527.61-106.68-1065.81-35.56-1599.21-52.85-132.61-4.8-107.63 89.36-107.63 166.26-.96 622.76 5.75 1246.47-4.84 1869.27-2.85 172.01 71.16 186.41 207.61 181.61 131.69-3.85 233.54 11.53 226.84-185.49-15.42-497.81-6.74-996.6-2.89-1495.39.95-58.6-51.93-165.28 77.82-161.47 387.31 12.49 779.43-48.05 1160.96 52.88 473.81 125.87 743.86 560.28 660.25 1040.8-77.85 442.1-475.72 731.38-1028.31 744.82-155.71 4.8-310.44.99-502.67.99 423.83 567.02 814.03 1087.9 1205.19 1608.81 200.84 269.06 340.19 312.31 681.39 207.57-365.23-486.3-729.47-970.67-1112.9-1480.04 711.16-88.41 1169.6-557.39 1195.56-1191.68 25.93-656.42-378.67-1169.6-1057.17-1306.09zm-7526.02 3155.14c-549.73 617-1383.91 728.48-2070.13 294.07-607.38-385.37-919.69-947.56-825.54-1672.2 91.3-703.51 499.75-1204.21 1167.7-1434.89 642.94-222.96 1246.5-69.18 1709.7 423.83 197.98 210.5 385.37 246.06 645.83 209.51-346.92-792.87-1390.65-1252.25-2337.26-1045.6-980.3 214.28-1641.51 1085.01-1624.19 2141.22 16.34 948.55 770.75 1803.9 1747.17 1978.81 896.69 159.52 1923.1-344.07 2220.07-1093.69-247.97-48.04-441.15-16.33-633.35 198.94zm3049.42 547.8c-948.55-69.18-1693.41-922.62-1614.56-1849.09 80.71-951.4 922.58-1683.73 1852.89-1612.61 927.42 71.12 1685.68 919.72 1616.54 1808.69-76.91 993.74-895.74 1723.18-1854.87 1653.01zm1111.43 1857.17l-121.57 356.48h-156.03l397.26-1134.64h181.86l398.18 1134.64h-160.83l-125.38-356.48zm382.87-114.48l-113.91-326.71c-26.81-74.47-44.03-141.5-61.24-207.57h-2.9c-17.25 67.94-37.32 136.8-59.33 205.7l-113.91 328.58zm-1458.76 470.97h-151.23v-1134.64h151.23zm-1006.05-50.26c-66.99 24.2-200.06 62.37-357.96 62.37-177.1 0-321.66-43.74-436.53-149.86-100.47-94.01-162.7-245.74-162.7-422.59 1.91-338.81 240.28-586.42 631.76-586.42 134.97 0 241.19 28.86 290.97 52.14l-36.37 120.08c-62.2-26.98-139.74-48.4-257.5-48.4-284.27 0-469.97 171.28-469.97 456.07 0 287.62 179 457.98 450.82 457.98 98.6 0 166.58-13.02 201.04-30.73v-337.85h-237.38v-118.22h383.82zm-1707.65-528.69c0 390.95-244.08 598.49-541.76 598.49-309.21 0-525.49-232.69-525.49-576.15 0-360.23 230.68-596.66 541.76-596.66 319.72 0 525.49 237.35 525.49 574.32zm-905.51 18.6c0 242.95 134.98 459.84 371.41 459.84 239.29 0 374.26-214.1 374.26-471.91 0-225.28-121.57-460.76-372.36-460.76-248.88 0-373.31 223.41-373.31 472.83zm-1466.43-574.29h151.23v1012.72h497.74v121.92h-648.97zm-820.31 555.69c0 390.95-244.09 598.49-541.76 598.49-308.26 0-524.59-232.69-524.59-576.15 0-360.23 229.73-596.66 541.8-596.66 318.74 0 524.55 237.35 524.55 574.32zm-905.51 18.6c0 242.95 134.97 459.84 372.35 459.84 239.29 0 374.26-214.1 374.26-471.91 0-225.28-121.56-460.76-372.35-460.76-248.89 0-374.26 223.41-374.26 472.83zm-1855.07 560.36V18259.7h164.64l373.31 574.28c87.1 133.14 154.1 253.19 209.62 368.62l3.81-.92c-13.4-151.73-17.21-290.44-17.21-467.29v-474.69h141.67v1134.64h-152.19l-370.45-575.24c-82.3-126.58-159.84-255.98-218.23-378.82l-5.75.92c9.56 143.33 12.46 280.18 12.46 468.17v484.97zm-813.63-36.3c-55.52 26.99-165.59 53.97-308.22 53.97-328.29 0-576.23-201.96-576.23-575.24 0-354.61 247.94-595.7 609.74-595.7 144.54 0 236.44 30.69 276.62 51.19l-36.37 119.17c-57.44-27.02-138.79-47.48-235.45-47.48-273.79 0-455.65 170.32-455.65 468.17 0 278.3 164.65 456.1 448.95 456.1 91.86 0 184.71-17.67 245.99-46.53zm-1687.54-495.2h-453.71v409.58h505.39v121.92h-655.67V18259.7h629.81v122.87h-479.53v359.27h453.71z" fill-rule="nonzero"/><path d="M31451.03 13437.2c414.19 0 750 335.81 750 750s-335.81 750-750 750-750-335.81-750-750 335.81-750 750-750zm-268.37 698.75v-289.28h276.12c64.57 0 111.77 13.32 141.61 39.96 30.01 26.63 44.84 60.68 44.84 101.99 0 28.32-7.75 54.45-23.26 78.38-15.17 24.28-37.76 41.64-67.43 52.43-29.84 10.96-70.81 16.52-123.74 16.52zm0 100.14h133.85c29.83 0 51.24 1.35 64.22 4.04 17.87 4.39 35.57 12.14 52.77 23.1 17.19 11.29 36.75 30.51 58.66 58.49 21.75 27.82 49.73 67.94 83.28 120.54l115.48 181.89h144.47l-151.22-238.03c-29.84-46.53-61.7-85.47-95.58-116.32-15.85-14.16-38.94-28.82-69.79-43.49 83.95-11.63 145.65-38.44 185.77-80.92 40.12-42.65 60.18-94.91 60.18-156.94 0-48.05-11.97-91.88-36.24-131.66-24.11-39.62-56.48-67.26-96.93-82.94-40.46-15.68-99.63-23.6-177.68-23.6h-387.23v873.9h115.99zM13050.74 11516.84l1494.75-7450.49h1666.34l-407.02 2140.16h1899.92l750.28-3945.2 16.2-85.18h-1899.89l-3546.5.03-1899.88 9469.86h1899.88zm2513.81-3901.2h1899.88l-407.01 2140.17h1666.36l1520.69-7579.67h1899.85l-1899.84 9469.82v.07h-4953.46v-.01h-492.95z"/></g><path d="M20103.94 15460.05c-.96 1153.26 952.39 2089.32 2142.17 2105.69 1173.44 15.35 2167.22-946.68 2170.08-2102.76 2.85-1166.78-958.18-2105.7-2156.6-2106.65-1205.16 0-2154.7 926.43-2155.65 2103.72zm2034.54 1726.07c-948.55-69.22-1693.37-922.62-1614.53-1849.09 80.68-951.44 922.59-1683.77 1852.9-1612.65 927.42 71.12 1685.68 919.76 1616.46 1808.73-73.45 949.46-824.3 1657.63-1727.59 1657.67-42.12 0-84.49-1.52-127.24-4.66z" fill="url(#b)"/><path d="M17379.36 13413.02c-980.3 214.31-1641.47 1085.04-1624.22 2141.22 16.37 948.55 770.82 1803.89 1747.2 1978.8 896.69 159.56 1923.06-344.06 2220.07-1093.68-247.97-48.01-441.15-16.3-633.34 198.97-549.74 616.97-1383.92 728.45-2070.14 294.07-607.38-385.41-919.69-947.59-825.5-1672.27 91.26-703.47 499.74-1204.17 1167.66-1434.85 642.94-222.92 1246.47-69.18 1709.7 423.86 197.98 210.47 385.41 246.03 645.83 209.51-290.83-664.67-1071.45-1094.98-1873.95-1095.02-154.77 0-310.27 15.98-463.31 49.39z" fill="url(#a)"/><path d="M25548.57 13428.08c-177.7 3.99-355.46 7.98-532.66 2.23-132.65-4.8-107.67 89.39-107.67 166.26-.92 622.76 5.79 1246.47-4.8 1869.26-2.89 172.05 71.12 186.45 207.61 181.61 131.62-3.81 233.51 11.54 226.8-185.45-15.38-497.84-6.73-996.6-2.89-1495.43.95-58.63-51.93-165.31 77.86-161.43 120.58 3.92 241.65.71 362.76-2.47 267.72-7.09 535.45-14.18 798.2 55.32 473.81 125.91 743.79 560.32 660.22 1040.8-77.82 442.1-475.72 731.41-1028.35 744.85-155.68 4.8-310.41.96-502.6.96 423.83 567.02 814.03 1087.89 1205.16 1608.77 200.83 269.13 340.22 312.38 681.39 207.64-365.2-486.34-729.44-970.7-1112.91-1480.04 711.17-88.41 1169.6-557.42 1195.53-1191.72 25.96-656.38-378.64-1169.6-1057.13-1306.09-240.03-48.47-482.29-60.22-725.21-60.22-113.66 0-227.47 2.58-341.31 5.15z" fill="url(#c)"/><path d="M28047.08 13491.16H28045.14c-147.28 0-158.4 72.43-158.4 203.48 0 133.6 23.04 192.23 176.82 186.48 395-14.46 790.92-19.26 1185.96-8.68 363.26 9.6 680.37 131.66 842.83 488.21 256.61 565.12-135.54 1155.21-785.18 1178.24-401.75 15.39-805.39 20.18-1207.07 7.69-180.72-5.78-220.09 55.74-212.4 221.06 13.4 263.34 3.84 527.61 3.84 790.96 0 285.43 12.45 571.82-4.8 857.25-10.58 190.29 105.7 149.93 207.54 148.98 17.39-.32 35.46.95 53.34 2.18 83.72 5.93 163.83 11.86 159.11-147.32-13.48-431.51 1.87-863.98-7.73-1295.5-3.85-148.94 29.77-203.73 189.34-197.98 321.94 12.49 642.93 7.69 964.91-25.97 686.19-71.12 1129.21-534.31 1129.21-1192.63.99-657.37-443.02-1126.39-1128.25-1190.77-267.09-25.54-534.15-22.82-801.02-20.07-194.1 2.01-388.13 4.02-581.94-4.9-8.43-.42-16.49-.67-24.17-.71z" fill="url(#d)"/><path d="M14545.49 4066.35l-1494.75 7450.49-25.92 129.21 1773.25-.03 18.45-97.03 748.03-3933.35h1899.88l-407.01 2140.17h1666.36l1503.53-7494.14 17.16-85.53-1773.26-.01-16.2 85.18-750.28 3945.2h-1899.92l407.02-2140.16z" fill="url(#e)"/></svg>