<svg viewBox="0 0 368.11 60.14" xmlns="http://www.w3.org/2000/svg" xmlns:xlink="http://www.w3.org/1999/xlink" width="2500" height="408"><linearGradient id="a" gradientUnits="userSpaceOnUse" x1="63.96" x2="96.7" y1="26.46" y2="21.75"><stop offset="0" stop-color="#1f32b3"/><stop offset="1" stop-color="#c735f7"/></linearGradient><linearGradient id="c" gradientTransform="rotate(-45 -186.855 -31.662)" x1="-58.13" x2="-24.97" xlink:href="#a" y1="186.86" y2="201.88"/><linearGradient id="d" x1="102.93" x2="85.64" xlink:href="#a" y1="31.96" y2="50.93"/><linearGradient id="e" x1="108.35" x2="83.47" xlink:href="#a" y1="30.34" y2="61.47"/><linearGradient id="f" x1="107.1" x2="89.81" xlink:href="#a" y1="35.76" y2="54.74"/><linearGradient id="g" x1="109.78" x2="84.87" xlink:href="#a" y1="31.48" y2="62.64"/><linearGradient id="h" x1="106.11" x2="88.82" xlink:href="#a" y1="34.85" y2="53.83"/><linearGradient id="i" x1="108.85" x2="83.95" xlink:href="#a" y1="30.75" y2="61.9"/><linearGradient id="l" gradientTransform="matrix(-1 -.09 -.09 1 -767.44 -32.99)" x1="-879.69" x2="-842.07" xlink:href="#a" y1="5.96" y2="5.96"/><linearGradient id="m" gradientTransform="matrix(-1 -.09 -.09 1 -767.44 -32.99)" x1="-877.84" x2="-842.07" xlink:href="#a" y1="9.22" y2="9.22"/><linearGradient id="n" gradientTransform="matrix(-1 -.09 -.09 1 -767.44 -32.99)" x1="-873.51" x2="-842.07" xlink:href="#a" y1="11.67" y2="11.67"/><linearGradient id="b" gradientUnits="userSpaceOnUse" x1="70.88" x2="106.84" y1="47.83" y2="47.83"><stop offset="0" stop-color="#00afff"/><stop offset="1" stop-color="#00f3f0" stop-opacity="0"/></linearGradient><linearGradient id="o" x1="70.88" x2="102" xlink:href="#b" y1="50.35" y2="50.35"/><linearGradient id="p" x1="60.94" x2="102.55" xlink:href="#a" y1="54.3" y2="54.3"/><linearGradient id="q" x1="55.38" x2="102.55" xlink:href="#a" y1="49.75" y2="49.75"/><linearGradient id="r" x1="52.56" x2="102.56" xlink:href="#a" y1="43.14" y2="43.14"/><g fill="#020c6a"><path d="M37.35 34.11H11.91v25.27H0V0h11.91v24.42h25.44V0h11.91v59.38H37.35zM133 60.14c-11.83 0-20.08-6.89-20.59-15.65h12c.42 3.58 3.74 6.3 8.5 6.3s7.23-2.13 7.23-4.85c0-8.42-26.62-3.06-26.62-20.33 0-7.83 7-14.12 18.63-14.12 11.4 0 18.29 6.21 19 15.56h-11.4c-.34-3.66-3.23-6.12-7.91-6.12-4.43 0-6.72 1.78-6.72 4.51 0 8.59 26.11 3.23 26.45 20.5-.06 8.06-7.12 14.2-18.57 14.2zM161.47 22h-5.62v-9.75h5.62V.6h12v11.65H184V22h-10.54v22.8c0 3.15 1.28 4.51 5 4.51H184v10h-7.48c-9 0-15.06-3.83-15.06-14.63zM249.43 12.25l11.91 36.16 11.91-36.16h12.68l-17.44 47.13H254l-17.33-47.13zM211.49 11.49c-14 0-23.65 9.44-23.65 24.32s9.95 24.33 23.65 24.33c11.65 0 19.48-6.89 22-15.56h-12.81c-1.53 3.14-4.34 5.7-9.45 5.7-5.95 0-10.71-3.92-11.31-10.89h34.45a27.32 27.32 0 0 0 .34-4.6c0-14.03-9.61-23.3-23.22-23.3zM200 31.39c.94-6.46 5.45-10.12 11.15-10.12 6.12 0 11.06 3.91 11.23 10.12zM334.76 34.79c0-14-9.61-23.3-23.22-23.3-14 0-23.65 9.44-23.65 24.32s9.95 24.33 23.65 24.33c11.65 0 19.48-6.89 22-15.56h-12.82c-1.53 3.14-4.34 5.7-9.44 5.7-5.95 0-10.72-3.92-11.31-10.89h34.45a27.32 27.32 0 0 0 .34-4.6zm-34.71-3.4c.94-6.46 5.45-10.12 11.15-10.12 6.12 0 11.06 3.91 11.22 10.12zM353.65 59.38h-11.91V12.25h11.91v7.32a16.35 16.35 0 0 1 14.46-8v12.5H365c-7.06 0-11.31 2.73-11.31 11.83z"/></g><path d="M96 20.8a20.94 20.94 0 0 0-35.72 14.8h6.36a14.58 14.58 0 0 1 24.89-10.3l-2.62 2.62 12.09.88a20.83 20.83 0 0 0-5-8z" fill="url(#a)"/><path d="M101 22.23l-.47-5.74-2.33 2.35a23.94 23.94 0 0 0-40.87 16.93h5.58a18.37 18.37 0 0 1 31.35-13 18.5 18.5 0 0 1 3.91 5.8l3.39.25z" fill="url(#c)"/><path d="M103.38 24.48l.46 5.72h.02z" fill="none"/><path d="M96.42 50a22 22 0 0 0 2-2.44l.29-.43.28-.44c.37-.59.7-1.19 1-1.81.15-.3.29-.61.43-.92.13-.31.26-.62.38-.94s.27-.73.38-1.11c.08-.22.14-.45.2-.68l.08-.26.12-.47c0-.16.07-.31.1-.47s0-.21.07-.31v-.21l.12-.73c0-.24.07-.48.1-.72s0-.49.07-.73v-.79-.74-1.07-.35V33.49c0-.19 0-.38-.07-.57s0-.23 0-.34c-.09-.61-.21-1.21-.35-1.81v-.11l-6.85-.58c.06.14.11.28.16.41a1.34 1.34 0 0 1 .07.18c0 .06 0 .13.07.2s0 .1 0 .16 0 .16.08.24a1.54 1.54 0 0 1 0 .17c.07.22.12.43.18.64l.09.41c0 .07 0 .14.05.21s.07.36.1.54v.2a1.36 1.36 0 0 1 0 .2V34s0 .38.05.57a.86.86 0 0 1 0 .16v.09a1.34 1.34 0 0 0 0 .2v.2a14.48 14.48 0 0 1-4.26 10.7 13.4 13.4 0 0 1-1.4 1.23l-.14.11-.3.22-.15.11-.15.1-.45.3c-.41.25-.83.49-1.26.7l-.48.22A19.05 19.05 0 0 0 96.42 50z" fill="url(#d)"/><path d="M101.78 31.66c.06.3.11.6.16.91V36.34a1.21 1.21 0 0 0 0 .19v.79c0 .24 0 .49-.07.73s-.06.48-.1.72l-.12.73v.21c0 .1-.05.21-.07.31s-.07.31-.1.47l-.12.47-.08.26c-.06.23-.12.46-.2.68-.11.38-.24.75-.38 1.11s-.25.63-.38.94c-.14.31-.28.62-.43.92-.31.62-.64 1.22-1 1.81l-.28.44-.29.43a22 22 0 0 1-2 2.44 30.93 30.93 0 0 0 4.81-.91 24.13 24.13 0 0 0 2.32-22.59l.34 4.35-2.33-.2v.11c.2.31.27.61.32.91z" fill="url(#e)"/><path d="M100.81 43c.14-.36.27-.73.38-1.11-.11.39-.19.76-.38 1.11z" fill="url(#f)"/><path d="M100.81 43c.14-.36.27-.73.38-1.11-.11.39-.19.76-.38 1.11z" fill="url(#g)"/><path d="M101.76 39.71v-.21l.12-.73-.12.73v.21c0 .1-.05.21-.07.31s-.07.31-.1.47c0-.16.07-.31.1-.47s.04-.21.07-.31z" fill="url(#h)"/><path d="M101.76 39.71v-.21l.12-.73-.12.73v.21c0 .1-.05.21-.07.31s-.07.31-.1.47c0-.16.07-.31.1-.47s.04-.21.07-.31z" fill="url(#i)"/><g><g><path d="M70.87 46.74a21 21 0 0 0 36-.62 20.72 20.72 0 0 0 2.42-6.57 14.62 14.62 0 0 0-9.48-1.17c-10.91 1.91-13.49 14.53-28.94 8.36z" fill="url(#l)"/><path d="M70.88 46.75a21 21 0 0 0 36-.63 9.73 9.73 0 0 0-7.26-1.48c-4.44.73-9.91 5.59-15.38 6.06a20 20 0 0 1-13.3-3.93z" fill="url(#m)"/><path d="M70.88 46.75a20.95 20.95 0 0 0 31.12 5.1c-.62-.72-2.45-2.24-6.65-1.24-5.43 1.29-7.65 3.59-13.1 2.54a19.2 19.2 0 0 1-11.35-6.38z" fill="url(#n)"/><path d="M70.88 46.75a18.83 18.83 0 0 0 17.65 3.53c4.17-1.33 8.11-4.44 11.73-4.84a9.38 9.38 0 0 1 5.89 1.79q.36-.54.69-1.11a9.73 9.73 0 0 0-7.26-1.48c-4.44.73-9.91 5.59-15.38 6.06a20 20 0 0 1-13.3-3.93z" fill="url(#b)"/><path d="M70.88 46.75a19.59 19.59 0 0 0 12.49 7c4.13.57 6.75-.84 8.54-1.37s4.31-1.45 6.12-1.28a4.2 4.2 0 0 1 3 1.4l.92-.71c-.62-.72-2.45-2.24-6.65-1.24-5.43 1.29-7.65 3.59-13.1 2.54a19.2 19.2 0 0 1-11.3-6.32z" fill="url(#o)"/></g><path d="M102.55 48.72a26.08 26.08 0 0 1-17.34 7.89c-5.55.28-8.85-1.88-11.16-2.8s-5.54-2.4-8-2.38A5.58 5.58 0 0 0 61.9 53c-.07-.06 0 0 0 0l.14.12c.44.38.89.75 1.36 1.11l.17.13.65.47h.06l.7.48.2.13.63.39.12.07c.24.15.48.29.73.42a.94.94 0 0 0 .22.12c.2.12.4.22.61.33l.17.09.75.37.22.1.63.28.19.08.79.31.22.09.64.23.22.08.81.26.2.06.68.19.23.06.84.2h.18l.72.15h.23l.87.15h.14l.78.1h.23c.3 0 .6.06.91.09h5.82l.46-.06.5-.08.32-.05.49-.1.32-.06.64-.15h.16l.7-.18h.09l.75-.22a27.85 27.85 0 0 0 14.16-10.04z" fill="url(#p)"/><path d="M78.79 51.38c-5.38-2.23-10.25-6.8-15-7.74-3.14-.62-6.56.82-8 1.69.08.16.35.64.58 1a24.666 24.666 0 0 0 1.61 2.37c.38.49.77 1 1.17 1.44l.07.08c.4.46.81.9 1.24 1.33l.09.09.15.15c.9-.88 3.51-2.68 8.94-.88C76.18 53.18 79 56.13 85 56c.55 0 1.12 0 1.73-.11a25.52 25.52 0 0 0 15.72-7.12c-.87.7-11.09 7.84-23.66 2.61z" fill="url(#q)"/><path d="M102.56 48.71c-21.15 6.4-23.13-10.59-37.31-14.36-5.74-1.53-10-.66-12.69.47a27.57 27.57 0 0 0 2.45 9 13 13 0 0 1 9.78-1.13c5.8 1.48 12.49 8.54 19.68 9.78 9.8 1.69 18.09-3.72 18.09-3.72z" fill="url(#r)"/></g></svg>