<svg height="1000" width="2500" xmlns="http://www.w3.org/2000/svg" viewBox="0 0 126.92000000000002 51.425"><linearGradient id="b" x1="13.659%" x2="76.286%" y1="34.763%" y2="68.731%"><stop offset="0" stop-color="#54c2f0"/><stop offset=".025" stop-color="#49b9eb"/><stop offset=".124" stop-color="#219ada"/><stop offset=".202" stop-color="#0987cf"/><stop offset=".25" stop-color="#0080cb"/><stop offset=".4" stop-color="#0068b6"/><stop offset=".64" stop-color="#005bab"/><stop offset="1" stop-color="#004da0"/></linearGradient><mask id="a" fill="#fff"><path d="M.584.044H16.84V23H.584z" fill="none"/></mask><g fill="none" fill-rule="evenodd"><g fill="#d3a53a"><path d="M55.773 10.305a.236.236 0 0 1-.047.133.37.37 0 0 1-.162.097 2.183 2.183 0 0 1-.298.06c-.126.013-.28.02-.473.02s-.35-.007-.48-.02a1.993 1.993 0 0 1-.299-.06.323.323 0 0 1-.157-.097.218.218 0 0 1-.049-.133v-3.91h-3.616v3.91a.219.219 0 0 1-.044.133c-.027.04-.08.07-.157.097-.073.024-.176.04-.297.06-.127.013-.285.02-.478.02-.188 0-.348-.007-.476-.02a2.126 2.126 0 0 1-.3-.06c-.076-.026-.132-.056-.163-.097a.223.223 0 0 1-.048-.133v-9.13c0-.051.018-.096.048-.136a.36.36 0 0 1 .163-.095c.073-.024.174-.044.3-.06.128-.013.288-.021.476-.021.193 0 .351.008.478.022.121.015.224.035.297.059.076.025.13.058.157.095a.22.22 0 0 1 .044.136v3.549h3.616v-3.55c0-.05.018-.095.05-.135a.346.346 0 0 1 .156-.095c.073-.024.17-.044.3-.06.13-.013.287-.021.48-.021s.346.008.472.022c.124.015.224.035.298.059a.399.399 0 0 1 .162.095c.028.04.047.085.047.136zm11.105-4.677c0 .801-.099 1.52-.295 2.15a4.342 4.342 0 0 1-.893 1.607c-.39.44-.88.776-1.458 1.01-.582.234-1.25.35-2.015.35-.752 0-1.407-.1-1.966-.299a3.41 3.41 0 0 1-1.4-.899c-.375-.402-.654-.918-.839-1.54-.19-.618-.283-1.356-.283-2.212 0-.779.1-1.482.298-2.105.2-.627.497-1.159.89-1.598a3.86 3.86 0 0 1 1.461-1.005c.581-.237 1.255-.352 2.02-.352.73 0 1.376.096 1.937.291a3.45 3.45 0 0 1 1.405.895c.378.405.661.914.854 1.526.19.615.284 1.341.284 2.181m-2.06.104c0-.51-.04-.97-.12-1.388a3.004 3.004 0 0 0-.405-1.066 1.996 1.996 0 0 0-.765-.688c-.322-.162-.719-.243-1.195-.243-.486 0-.889.09-1.213.274a2.212 2.212 0 0 0-.784.73 3 3 0 0 0-.419 1.062 6.063 6.063 0 0 0-.123 1.286c0 .531.035 1.002.117 1.425.08.421.213.781.404 1.078.188.3.441.53.761.684.32.156.72.236 1.203.236.482 0 .886-.093 1.21-.27.326-.179.585-.422.784-.729.198-.312.341-.67.423-1.079a6.8 6.8 0 0 0 .121-1.312m10.375-4.017c0 .142-.005.265-.02.366a.852.852 0 0 1-.06.246.296.296 0 0 1-.09.14.193.193 0 0 1-.121.046H72.48v7.791a.2.2 0 0 1-.05.134.364.364 0 0 1-.16.096 1.99 1.99 0 0 1-.302.061c-.127.013-.285.02-.473.02-.191 0-.35-.007-.476-.02-.126-.02-.228-.036-.301-.06-.076-.027-.132-.057-.161-.097a.217.217 0 0 1-.05-.134v-7.79h-2.42a.174.174 0 0 1-.124-.048c-.042-.029-.068-.074-.092-.139a.936.936 0 0 1-.056-.246 3.704 3.704 0 0 1 0-.75c.013-.106.03-.183.056-.252.024-.058.05-.106.092-.133a.195.195 0 0 1 .124-.04H74.9c.04 0 .083.014.12.04a.301.301 0 0 1 .092.133.965.965 0 0 1 .059.252c.015.107.02.232.02.384m10.606 2.128c0 .542-.084 1.02-.253 1.44a2.749 2.749 0 0 1-.739 1.057 3.236 3.236 0 0 1-1.19.653c-.47.147-1.027.226-1.662.226h-.81v3.086a.198.198 0 0 1-.047.133.358.358 0 0 1-.162.097c-.075.024-.173.04-.299.06a5.08 5.08 0 0 1-.479.02c-.19 0-.348-.007-.475-.02-.125-.02-.229-.036-.3-.06a.318.318 0 0 1-.159-.097.223.223 0 0 1-.042-.133V1.61c0-.238.06-.412.181-.531a.679.679 0 0 1 .482-.173h2.282a6.26 6.26 0 0 1 1.397.14c.288.057.582.162.876.316a2.447 2.447 0 0 1 1.235 1.416c.11.315.164.67.164 1.065m-2.054.139c0-.338-.057-.615-.179-.835a1.212 1.212 0 0 0-.442-.483 1.451 1.451 0 0 0-.548-.202 4.54 4.54 0 0 0-.592-.04h-.84V5.7h.886c.313 0 .576-.043.786-.126.211-.087.385-.203.52-.354.136-.151.235-.333.308-.547.067-.211.101-.441.101-.691M93.206 9.8c0 .147-.006.268-.02.361a.86.86 0 0 1-.055.237.287.287 0 0 1-.093.133.217.217 0 0 1-.123.04H88.06a.614.614 0 0 1-.416-.146c-.112-.093-.166-.254-.166-.477V1.526c0-.219.054-.377.166-.478a.638.638 0 0 1 .416-.143h4.824a.2.2 0 0 1 .119.04.285.285 0 0 1 .09.13c.025.062.043.14.058.24a3.627 3.627 0 0 1 0 .723 1.092 1.092 0 0 1-.058.234.304.304 0 0 1-.09.13.169.169 0 0 1-.12.042h-3.45v2.361h2.92c.047 0 .085.013.123.04.038.03.07.07.095.13a.793.793 0 0 1 .054.231c.017.094.018.214.018.353 0 .144-.001.264-.018.356a.755.755 0 0 1-.054.228.27.27 0 0 1-.095.125.208.208 0 0 1-.122.041h-2.92v2.72h3.48a.22.22 0 0 1 .123.043.305.305 0 0 1 .093.13.95.95 0 0 1 .056.237c.013.097.019.22.019.361m8.962-5.957c0 .542-.087 1.02-.256 1.44a2.814 2.814 0 0 1-.739 1.057c-.322.288-.72.503-1.192.653-.47.147-1.024.226-1.662.226h-.804v3.086a.211.211 0 0 1-.048.133.343.343 0 0 1-.161.097c-.077.024-.178.04-.298.06-.126.013-.288.02-.481.02-.187 0-.345-.007-.473-.02-.124-.02-.229-.036-.302-.06-.077-.026-.129-.056-.156-.097a.214.214 0 0 1-.045-.133V1.61c0-.238.06-.412.183-.531a.676.676 0 0 1 .481-.173h2.278a6.162 6.162 0 0 1 1.395.14c.29.057.583.162.878.316s.549.35.759.587c.209.238.369.513.477.829.108.315.166.67.166 1.065m-2.057.139c0-.338-.057-.615-.177-.835a1.234 1.234 0 0 0-.442-.483 1.478 1.478 0 0 0-.547-.202 4.638 4.638 0 0 0-.593-.04h-.837V5.7h.88c.315 0 .577-.043.788-.126.213-.087.385-.203.519-.354.133-.151.235-.333.304-.547a2.1 2.1 0 0 0 .105-.691m10.199-.14c0 .543-.086 1.022-.256 1.44-.17.418-.415.772-.74 1.058a3.249 3.249 0 0 1-1.19.653c-.47.147-1.023.226-1.662.226h-.807v3.086a.196.196 0 0 1-.05.133.335.335 0 0 1-.16.097c-.072.024-.173.04-.298.06-.127.013-.283.02-.477.02-.192 0-.347-.007-.476-.02-.126-.02-.226-.036-.3-.06-.077-.026-.127-.056-.157-.097a.214.214 0 0 1-.045-.133V1.61c0-.238.058-.412.182-.531a.68.68 0 0 1 .482-.173h2.278a6.23 6.23 0 0 1 1.398.14c.288.057.58.162.877.316.295.154.549.35.758.587.208.238.367.513.479.829.106.315.164.67.164 1.065m-2.056.139c0-.338-.06-.615-.18-.835a1.23 1.23 0 0 0-.44-.483 1.47 1.47 0 0 0-.548-.202 4.59 4.59 0 0 0-.593-.04h-.838V5.7h.88c.313 0 .579-.043.79-.126.212-.087.385-.203.518-.354.135-.151.236-.333.308-.547.066-.211.103-.441.103-.691m9.382 5.818c0 .147-.005.268-.017.361a.813.813 0 0 1-.06.237.297.297 0 0 1-.088.133.232.232 0 0 1-.126.04h-4.852a.608.608 0 0 1-.415-.146c-.115-.093-.168-.254-.168-.477V1.526c0-.219.053-.377.168-.478a.631.631 0 0 1 .415-.143h4.823c.042 0 .085.015.119.04a.285.285 0 0 1 .09.13c.023.062.043.14.055.24.013.095.02.22.02.37 0 .14-.007.256-.02.353a1.05 1.05 0 0 1-.055.234.304.304 0 0 1-.09.13.177.177 0 0 1-.12.042h-3.45v2.361h2.919c.049 0 .085.013.125.04.04.03.067.07.093.13.028.057.04.133.057.231.01.094.017.214.017.353 0 .144-.006.264-.017.356-.017.097-.03.172-.057.228-.026.06-.053.1-.093.125a.215.215 0 0 1-.125.041h-2.92v2.72h3.48c.047 0 .087.018.127.043a.316.316 0 0 1 .088.13.898.898 0 0 1 .06.237c.012.097.017.22.017.361m9.285.518c0 .053-.01.099-.027.137-.022.036-.07.067-.144.093s-.184.044-.33.052a8.709 8.709 0 0 1-1.088 0 .927.927 0 0 1-.294-.058c-.074-.026-.127-.06-.156-.103a.49.49 0 0 1-.07-.15l-.87-2.162a8.677 8.677 0 0 0-.307-.646 2.11 2.11 0 0 0-.33-.477 1.225 1.225 0 0 0-.422-.288 1.547 1.547 0 0 0-.554-.098h-.612v3.687a.208.208 0 0 1-.05.133.344.344 0 0 1-.157.097c-.08.024-.178.04-.303.06-.125.013-.281.02-.475.02a5.1 5.1 0 0 1-.475-.02c-.127-.02-.23-.036-.303-.06a.322.322 0 0 1-.158-.097.241.241 0 0 1-.045-.133v-8.78c0-.217.055-.376.169-.477a.645.645 0 0 1 .414-.142h2.499a9.156 9.156 0 0 1 1.08.052c.388.056.737.148 1.049.285.313.132.577.31.788.529.22.212.387.47.5.764.114.299.17.639.17 1.022 0 .322-.04.618-.126.886a2.231 2.231 0 0 1-.357.71 2.392 2.392 0 0 1-.591.546c-.234.154-.5.279-.798.374a2.131 2.131 0 0 1 .764.62c.112.139.219.3.319.483.1.184.198.387.293.615l.81 1.905c.077.188.126.33.15.414a.769.769 0 0 1 .037.207m-2.53-6.562c0-.315-.075-.585-.217-.803-.144-.218-.381-.374-.71-.464a2.913 2.913 0 0 0-.34-.058 4.546 4.546 0 0 0-.525-.021h-.882v2.74h1.003c.278 0 .52-.036.73-.102.208-.068.382-.161.523-.283.138-.122.242-.268.313-.44.07-.167.105-.358.105-.57"/><path d="M10.82.044v.585c.69 0 1.405.004 1.9.004 1.761 0 1.907.275 1.298 2.403-.28.977-1.435 4.65-2.674 8.345-.808-2.151-3.303-8.609-3.598-9.355C7.216.678 7.212.629 8.034.629h.654V.044H.584v.585c.312 0 .585.004.822.004 1.45 0 1.462.046 2.464 2.645.787 2.034 4.691 11.618 5.6 14.01-1.632 4.443-2.438 5.099-3.554 5.099-.784 0-1.218-.642-.89-1.001.316-.344.682-.811.561-1.44-.135-.693-.823-1.258-1.616-1.053-.857.221-1.208 1.068-.99 2.018C3.212 21.913 4.256 23 5.898 23c1.668 0 2.611-1.035 4.081-5.123 1.158-3.221 4.47-13.427 4.862-14.574.826-2.388.694-2.674 1.998-2.674V.044z" mask="url(#a)" transform="translate(113 18.312)"/><path d="M70.291 34.75c-1.47.471-3.065-.134-3.23-2.24-.136-1.712-.203-3.278 1.334-3.959 1.32-.584 2.806-.374 3.658-.071v4.285c0 .198.012.544.04.874-.406.476-1.149.902-1.802 1.111zm7.687-.967c-.937.978-1.506 1.172-2.027.614-.292-.313-.316-.794-.316-2.874v-9.792c0-3.385-4.515-4.193-6.816-3.949-2.3.244-4.198 1.257-4.71 3.205-.258.989.106 2.169 1.142 2.248.996.075 2.113-.847 1.375-1.927-.511-.746-.548-1.267-.171-1.797.448-.628 1.74-1.229 3.29-1.059 1.788.196 2.308 1.375 2.308 3.035v6.411c-1.472-.469-4.57-.681-6.834.46-2.326 1.172-2.475 3.756-1.79 5.396.863 2.059 3.188 2.633 5.693 2.011 1.517-.376 2.608-1.116 3.154-1.587.263.757.793 1.446 1.796 1.641 1.503.291 2.808-.262 4.117-1.647a.927.927 0 0 0 .084-.098zm33.244-.766c-.866 1.142-1.947 1.815-2.701 1.859-.898.053-1.494-.358-1.494-2.035v-13.9h2.566v-.585h-2.566l-.004-4.243c0-.475-.781-.58-.951-.025-.561 1.828-2.073 4.268-4.854 4.268h-.48v.586h2.348V31.3c0 3.174 1.33 4.428 3.845 4.428 2.34 0 3.56-.916 4.696-2.374zm-14.937 2.157c-.758 0-.696-.3-.696-3.358V20.204c0-1.335-.318-1.848-1.58-1.848h-4.555v.585c2.309-.002 2.27-.101 2.27 1.784v8.469c-.002.155-.001.324 0 .502v.604c-.007.61-.045 1.266-.216 1.817-.012.04-.021.08-.034.118-.644 1.86-2.031 2.792-3.157 2.792-1.344 0-1.868-.552-1.868-2.61V20.055c0-1.214-.291-1.698-1.8-1.698h-4.375v.585c2.448 0 2.267-.037 2.267 1.888v9.595c0 3.753 2.016 5.305 5.204 5.305 1.909 0 3.177-1.022 3.979-2.664v.536c0 1.722.275 2.128 1.797 2.128h4.059v-.555zM49.92 21.93c0-2.137.683-3.475 2.545-3.475 2.045 0 2.546 1.608 2.546 3.475v.72c0 1.235-.05 1.248-1.445 1.248h-2.665c-.814 0-.981-.061-.981-1.24zm8.083 10.695c-1.481 1.774-3.208 2.428-5.092 2.428-1.77 0-2.991-.805-2.991-4.041v-5.436c0-.93.21-.978 1.229-.978h5.627c1.728 0 2.089-.125 2.089-1.654 0-3.674-3.383-5.148-6.4-5.148-4.083 0-6.947 2.36-6.947 7.283v3.188c0 5.026 2.559 7.616 7.264 7.616 2.364 0 4.427-1.135 5.627-2.921zM27.979 0H13.222C5.919 0 0 5.919 0 13.22v14.759C0 35.28 5.919 41.2 13.222 41.2h14.757c7.302 0 13.22-5.92 13.22-13.221V13.22C41.199 5.919 35.281 0 27.979 0"/></g><path d="M11.723 33.504c-1.258-.025-2.016-.923-1.794-1.524.182-.497.845-.67 1.974-.052.59.317.891.604 1.36 1.034-.51.366-.968.555-1.54.542m19.523-7.547c-.283-2.791-1.923-5.114-4.995-6.583 1.786-.852 3.248-2.517 3.546-4.943.058-.457.064-.756.067-1.18.03-3.482-2.442-8.154-9.36-8.283-1.814-.033-4.86.508-7.21 1.753-1.313.694-2.11 1.282-3.228 2.25.872.229 1.958.445 1.958.445s.136 1.373.31 2.427c.903-1.445 1.852-2.662 2.932-3.634 1.222-1.101 3.353-2.153 5.112-2.153 3.644 0 6.035 2.293 6.035 7.528 0 0-.027.79-.05 1.078-.223 2.545-1.17 3.509-1.65 3.884-.152-.066-.423-.198-.579-.261h-.002a11.679 11.679 0 0 0-.864-.295c-1.975-.594-3.06.056-3.128.935-.088 1.16 1.17 1.445 2.598 1.436.816-.007 1.517-.121 2.226-.376.83.68 1.94 2.687 2.088 5.773a19.045 19.045 0 0 1-.107 3.042c-.51 4.887-2.47 7.062-6.39 6.684-1.342-.13-2.904-.89-4.312-2.316 1.825-1.79 1.388-5.25 1.091-8.435-.297-3.197-.237-7.327 1.676-12.113-1.25.636-2.159 1.203-2.159 1.203s-.7-1.21-1.169-1.971c-1.4 4.138-1.76 8.533-1.032 14.398.293 2.36.63 4.11-.17 5.379-.654-.536-1.323-1.051-2.049-1.281-.934-.298-2.405-.232-2.998 1.11-.705 1.603 1 3.496 3.795 3.32.888-.055 1.372-.322 1.774-.525 1.27 1.052 3.1 1.797 5.022 1.94 5.501.41 9.943-1.703 11.042-6.888.234-1.111.275-2.41.18-3.348" fill="#fff"/><g fill-rule="nonzero"><path d="M71.94 51.233c-.609 0-1.154-.195-1.154-.62 0-.147.252-1.241 1.124-2.295a5.8 5.8 0 0 1 1.762-1.436c.785-.413 1.78-.705 3.025-.705.371 0 .678.026 1.074.078.117.016.192.133.183.284-.013.194-.166.386-.48.386-1.252 0-2.2.285-2.895.89-.347.301-.63.683-.856 1.149-.226.466-.395 1.015-.512 1.653-.083.457-.915.616-1.271.616z" fill="#fff"/><path d="M73.68 46.88c.783-.411 1.777-.701 3.02-.7.37 0 .676.024 1.071.076.117.016.192.135.18.285a.39.39 0 0 1-.084.217c-.078.097-.209.165-.397.166-1.251 0-2.199.286-2.893.89-.347.302-.63.683-.856 1.149-.226.465-.394 1.015-.511 1.652a.43.43 0 0 1-.065.16c-.22.335-.892.457-1.205.457-.608 0-1.153-.195-1.153-.618 0-.147.252-1.243 1.127-2.298a5.798 5.798 0 0 1 1.766-1.436z" fill="#fefefe"/><path d="M73.687 46.879c.783-.41 1.775-.699 3.015-.698.369 0 .676.024 1.07.077.116.016.19.135.177.285a.388.388 0 0 1-.086.215c-.078.096-.21.164-.397.164-1.25.001-2.197.288-2.89.891-.347.302-.63.684-.856 1.149-.226.465-.395 1.015-.512 1.652a.435.435 0 0 1-.064.16c-.218.335-.888.457-1.203.458-.607 0-1.153-.195-1.153-.618 0-.147.253-1.244 1.129-2.3a5.793 5.793 0 0 1 1.77-1.435z" fill="#fdfdfd"/><path d="M73.695 46.877c.782-.408 1.771-.695 3.009-.694.368 0 .675.024 1.068.077.115.015.189.136.175.285a.385.385 0 0 1-.088.213c-.079.095-.21.162-.397.162-1.25.003-2.195.29-2.888.893-.347.302-.63.683-.855 1.148-.227.465-.395 1.014-.512 1.65a.44.44 0 0 1-.065.16c-.216.337-.884.46-1.2.46-.607 0-1.153-.194-1.153-.617 0-.146.254-1.245 1.131-2.3a5.789 5.789 0 0 1 1.775-1.437z" fill="#fcfcfd"/><path d="M73.702 46.876c.781-.407 1.77-.693 3.004-.692.368 0 .674.025 1.066.077.115.016.188.137.173.286a.382.382 0 0 1-.09.211c-.08.094-.21.16-.397.16-1.248.004-2.194.291-2.886.895-.346.302-.63.683-.855 1.147-.226.465-.395 1.014-.512 1.65a.444.444 0 0 1-.064.16c-.215.336-.88.46-1.199.46-.606.002-1.152-.194-1.152-.616 0-.145.255-1.246 1.134-2.303a5.784 5.784 0 0 1 1.778-1.435z" fill="#fbfbfc"/><path d="M73.71 46.874c.78-.405 1.766-.69 2.999-.688.366 0 .673.025 1.064.077.114.015.186.137.17.286a.378.378 0 0 1-.091.21.51.51 0 0 1-.398.158c-1.247.004-2.192.292-2.883.895-.347.302-.63.683-.855 1.147-.227.465-.395 1.014-.513 1.649a.45.45 0 0 1-.063.16c-.213.337-.877.462-1.197.462-.606.001-1.152-.194-1.152-.616 0-.145.255-1.247 1.136-2.304a5.78 5.78 0 0 1 1.782-1.436z" fill="#fafbfb"/><path d="M73.717 46.872c.78-.404 1.764-.686 2.994-.684.365 0 .672.025 1.062.077.113.015.185.138.168.285a.376.376 0 0 1-.093.209.516.516 0 0 1-.398.157c-1.246.004-2.19.293-2.881.896a3.561 3.561 0 0 0-.854 1.146c-.227.465-.396 1.013-.513 1.648a.455.455 0 0 1-.063.16c-.212.338-.873.463-1.195.464-.606.001-1.152-.195-1.152-.616 0-.144.256-1.248 1.139-2.306a5.776 5.776 0 0 1 1.786-1.436z" fill="#f9fafa"/><path d="M73.724 46.87c.779-.402 1.762-.683 2.99-.68.364 0 .67.025 1.06.077.112.015.183.138.164.285a.372.372 0 0 1-.093.207.523.523 0 0 1-.4.155c-1.244.005-2.187.295-2.878.898a3.564 3.564 0 0 0-.854 1.145c-.227.465-.396 1.013-.513 1.647a.46.46 0 0 1-.063.16c-.21.338-.869.464-1.193.465-.604.002-1.151-.194-1.151-.615 0-.144.257-1.249 1.141-2.307a5.773 5.773 0 0 1 1.79-1.436z" fill="#f8f9f9"/><path d="M73.731 46.869c.778-.4 1.76-.68 2.985-.678.363.001.67.025 1.058.077.112.015.182.14.162.286a.37.37 0 0 1-.095.205.53.53 0 0 1-.4.154c-1.243.005-2.185.296-2.875.898a3.566 3.566 0 0 0-.854 1.145c-.227.465-.396 1.013-.513 1.647a.465.465 0 0 1-.063.16c-.208.338-.865.465-1.191.466-.604.002-1.151-.194-1.151-.615 0-.143.258-1.25 1.144-2.309a5.769 5.769 0 0 1 1.793-1.436z" fill="#f7f8f9"/><path d="M73.739 46.867c.777-.399 1.757-.677 2.979-.674.363 0 .669.025 1.056.077.112.015.18.14.16.286a.367.367 0 0 1-.097.203.536.536 0 0 1-.4.152c-1.242.007-2.184.297-2.873.9a3.57 3.57 0 0 0-.854 1.144c-.227.465-.396 1.012-.513 1.646a.47.47 0 0 1-.062.16c-.207.339-.861.466-1.19.468-.603.001-1.15-.195-1.15-.615 0-.142.258-1.25 1.146-2.31.415-.495 1-1.03 1.798-1.437z" fill="#f6f7f8"/><path d="M73.746 46.866c.777-.398 1.755-.674 2.974-.671.362 0 .668.025 1.055.077.11.014.179.14.157.286a.364.364 0 0 1-.099.201.543.543 0 0 1-.4.15c-1.241.008-2.182.3-2.87.901a3.572 3.572 0 0 0-.854 1.144c-.227.465-.396 1.012-.514 1.645a.476.476 0 0 1-.061.16c-.205.34-.858.468-1.188.47-.603 0-1.15-.195-1.15-.615 0-.142.259-1.251 1.149-2.312a5.761 5.761 0 0 1 1.801-1.436z" fill="#f5f6f7"/><path d="M73.754 46.864c.775-.396 1.752-.671 2.968-.667.361 0 .667.025 1.053.076.11.015.178.142.155.287a.361.361 0 0 1-.1.2.55.55 0 0 1-.4.148c-1.241.008-2.18.3-2.87.902a3.574 3.574 0 0 0-.852 1.143c-.227.465-.397 1.012-.514 1.644a.482.482 0 0 1-.062.16c-.203.34-.853.469-1.185.47-.603.003-1.15-.194-1.15-.613 0-.141.26-1.252 1.151-2.314a5.756 5.756 0 0 1 1.806-1.436z" fill="#f4f5f6"/><path d="M73.761 46.863c.775-.395 1.75-.669 2.964-.665.36.001.666.026 1.05.077.11.015.177.142.152.287a.358.358 0 0 1-.1.197.558.558 0 0 1-.402.147c-1.24.009-2.178.302-2.866.904a3.577 3.577 0 0 0-.853 1.142c-.227.465-.396 1.012-.514 1.643a.488.488 0 0 1-.06.16c-.203.34-.85.47-1.184.472-.602.002-1.15-.194-1.15-.613 0-.14.26-1.253 1.154-2.316a5.753 5.753 0 0 1 1.809-1.435z" fill="#f3f4f5"/><path d="M73.768 46.86c.774-.392 1.748-.664 2.959-.66.359.001.665.025 1.049.077.109.014.175.142.15.286a.356.356 0 0 1-.104.196.565.565 0 0 1-.4.146c-1.239.01-2.177.303-2.865.904a3.58 3.58 0 0 0-.852 1.142c-.227.465-.397 1.011-.514 1.642a.494.494 0 0 1-.061.16c-.2.342-.846.472-1.182.474-.601.002-1.15-.194-1.15-.613 0-.14.262-1.254 1.157-2.317a5.75 5.75 0 0 1 1.813-1.436z" fill="#f2f4f5"/><path d="M73.776 46.86c.773-.392 1.745-.663 2.953-.658.358.001.664.025 1.047.076.108.015.174.144.147.287a.353.353 0 0 1-.104.195.573.573 0 0 1-.402.143c-1.237.01-2.175.305-2.862.906a3.582 3.582 0 0 0-.851 1.141c-.228.465-.397 1.01-.515 1.642a.5.5 0 0 1-.06.16c-.199.341-.843.472-1.18.474-.601.003-1.15-.194-1.15-.612 0-.14.263-1.255 1.16-2.319a5.747 5.747 0 0 1 1.817-1.436z" fill="#f1f3f4"/><path d="M73.783 46.858c.773-.388 1.743-.66 2.949-.655.357.002.663.026 1.045.077.107.014.172.144.144.287a.35.35 0 0 1-.106.193.581.581 0 0 1-.402.142c-1.236.01-2.173.305-2.86.907a3.585 3.585 0 0 0-.85 1.14c-.228.465-.398 1.01-.516 1.64a.507.507 0 0 1-.06.161c-.196.342-.838.473-1.178.476-.6.003-1.15-.194-1.15-.612 0-.139.265-1.256 1.163-2.32a5.775 5.775 0 0 1 1.821-1.436z" fill="#f0f2f3"/><path d="M73.79 46.856c.773-.386 1.74-.656 2.944-.65.356 0 .662.025 1.043.076.107.014.171.144.142.287a.348.348 0 0 1-.108.19.59.59 0 0 1-.402.141c-1.235.012-2.17.307-2.857.908a3.587 3.587 0 0 0-.851 1.14c-.228.464-.397 1.01-.515 1.64a.513.513 0 0 1-.06.16c-.195.343-.834.475-1.176.477-.6.003-1.15-.193-1.15-.611 0-.138.265-1.257 1.166-2.322a5.772 5.772 0 0 1 1.825-1.436z" fill="#eff1f2"/><path d="M73.798 46.854c.772-.384 1.738-.652 2.938-.647.356.002.661.026 1.042.076.105.015.17.146.138.288a.346.346 0 0 1-.108.189.599.599 0 0 1-.403.138c-1.234.013-2.17.309-2.855.91a3.59 3.59 0 0 0-.85 1.139c-.228.464-.398 1.01-.516 1.639a.52.52 0 0 1-.06.16c-.193.343-.83.476-1.173.479-.6.003-1.15-.194-1.15-.611 0-.138.266-1.258 1.168-2.324a5.77 5.77 0 0 1 1.829-1.436z" fill="#eef0f1"/><path d="M73.805 46.853c.771-.383 1.736-.65 2.934-.644.354.001.66.026 1.039.076.105.014.168.146.136.288a.344.344 0 0 1-.11.187.608.608 0 0 1-.403.137c-1.233.013-2.167.31-2.852.91-.345.302-.626.681-.85 1.14-.229.463-.398 1.009-.517 1.637a.527.527 0 0 1-.058.16c-.192.344-.827.478-1.173.48-.598.004-1.149-.193-1.149-.61 0-.137.267-1.259 1.17-2.325a5.768 5.768 0 0 1 1.833-1.436z" fill="#edeff1"/><path d="M73.813 46.851c.77-.381 1.733-.647 2.928-.64.353.001.659.025 1.037.076.105.014.168.146.134.288a.342.342 0 0 1-.112.185.617.617 0 0 1-.403.135c-1.232.014-2.166.312-2.85.912-.344.302-.625.68-.85 1.138-.228.464-.398 1.01-.516 1.637a.535.535 0 0 1-.059.161c-.19.344-.823.478-1.17.481-.598.003-1.149-.194-1.149-.61 0-.136.268-1.26 1.173-2.327a5.766 5.766 0 0 1 1.837-1.436z" fill="#eceef0"/><path d="M73.82 46.85c.77-.38 1.73-.644 2.923-.638a7.73 7.73 0 0 1 1.036.076c.104.014.166.148.13.288a.34.34 0 0 1-.112.184.627.627 0 0 1-.404.134c-1.231.014-2.164.312-2.848.913-.344.302-.625.68-.85 1.137-.228.464-.398 1.009-.516 1.637a.541.541 0 0 1-.058.16c-.188.344-.82.48-1.168.483-.598.003-1.149-.194-1.149-.61 0-.136.268-1.26 1.175-2.329a5.764 5.764 0 0 1 1.841-1.435z" fill="#ebedef"/><path d="M73.827 46.848c.769-.378 1.729-.64 2.918-.634.352.002.657.026 1.034.076.103.014.165.148.129.288a.338.338 0 0 1-.115.182.638.638 0 0 1-.404.132c-1.23.016-2.162.314-2.845.914a3.6 3.6 0 0 0-.85 1.137c-.228.464-.398 1.009-.516 1.636a.55.55 0 0 1-.058.16c-.187.345-.816.48-1.167.484-.597.004-1.148-.193-1.148-.61 0-.134.27-1.26 1.178-2.33a5.76 5.76 0 0 1 1.844-1.435z" fill="#eaedee"/><path d="M73.835 46.846c.768-.376 1.726-.637 2.913-.63.35.002.656.026 1.032.076.102.014.163.148.125.288a.336.336 0 0 1-.116.18.65.65 0 0 1-.404.13c-1.229.017-2.16.316-2.843.916-.344.302-.625.68-.85 1.136-.228.464-.398 1.008-.516 1.635a.558.558 0 0 1-.057.16c-.186.346-.812.482-1.165.486-.596.004-1.148-.194-1.148-.61 0-.134.27-1.262 1.18-2.33a5.759 5.759 0 0 1 1.849-1.437z" fill="#e9eced"/><path d="M73.842 46.845c.767-.375 1.723-.635 2.908-.628.35.003.655.027 1.03.077.102.013.162.149.123.288a.334.334 0 0 1-.118.179.66.66 0 0 1-.404.128c-1.228.017-2.158.317-2.84.917-.344.302-.625.68-.85 1.135-.228.464-.398 1.008-.517 1.634a.565.565 0 0 1-.057.16c-.183.347-.808.484-1.162.487-.596.004-1.148-.193-1.148-.608 0-.134.27-1.263 1.183-2.333a5.758 5.758 0 0 1 1.852-1.436z" fill="#e8ebec"/><path d="M73.85 46.843c.766-.373 1.72-.632 2.902-.624.35.002.654.026 1.028.076.101.014.161.15.12.289a.333.333 0 0 1-.118.177.671.671 0 0 1-.405.127c-1.227.017-2.156.318-2.838.917-.344.302-.625.68-.849 1.135-.229.464-.399 1.008-.517 1.633a.574.574 0 0 1-.057.161c-.182.346-.804.484-1.16.488-.596.004-1.148-.194-1.148-.608 0-.134.271-1.264 1.185-2.335a5.754 5.754 0 0 1 1.857-1.436z" fill="#e7eaec"/><path d="M73.857 46.841c.765-.371 1.718-.628 2.898-.62.348.002.653.026 1.026.076.1.013.16.15.118.289a.33.33 0 0 1-.12.175.683.683 0 0 1-.406.125c-1.226.018-2.155.32-2.836.919-.343.302-.624.68-.848 1.134-.229.464-.4 1.007-.518 1.632a.583.583 0 0 1-.056.161c-.18.347-.8.485-1.16.49-.594.004-1.146-.194-1.146-.608 0-.133.272-1.265 1.188-2.337a5.752 5.752 0 0 1 1.86-1.436z" fill="#e6e9eb"/><path d="M73.864 46.84c.765-.37 1.716-.626 2.893-.617.347.002.652.026 1.024.076.1.013.158.15.116.289a.33.33 0 0 1-.123.173.696.696 0 0 1-.405.123c-1.225.02-2.153.321-2.834.92-.343.303-.623.68-.848 1.134-.228.464-.399 1.007-.517 1.632a.592.592 0 0 1-.056.16c-.179.348-.797.487-1.158.49-.594.006-1.146-.192-1.146-.606 0-.132.273-1.266 1.19-2.338a5.749 5.749 0 0 1 1.864-1.436z" fill="#e5e8ea"/><path d="M73.872 46.838c.764-.368 1.713-.622 2.887-.614.346.003.651.027 1.023.076.099.014.156.152.112.29a.327.327 0 0 1-.123.171.708.708 0 0 1-.406.122c-1.224.02-2.151.322-2.832.921-.342.302-.623.68-.847 1.133-.229.464-.4 1.007-.518 1.63a.602.602 0 0 1-.056.162c-.177.347-.792.487-1.155.491-.593.005-1.147-.193-1.147-.606 0-.132.275-1.267 1.194-2.34a5.746 5.746 0 0 1 1.868-1.436z" fill="#e4e7e9"/><path d="M73.879 46.837c.763-.367 1.711-.62 2.882-.61a7.8 7.8 0 0 1 1.021.075c.098.013.156.152.11.29a.326.326 0 0 1-.125.17.722.722 0 0 1-.406.12c-1.223.02-2.15.323-2.83.922a3.62 3.62 0 0 0-.846 1.132c-.23.464-.4 1.007-.519 1.63a.61.61 0 0 1-.055.161c-.175.348-.789.488-1.153.493-.593.005-1.147-.193-1.147-.606 0-.131.275-1.268 1.196-2.342a5.744 5.744 0 0 1 1.872-1.435z" fill="#e3e6e8"/><path d="M73.886 46.835c.763-.365 1.71-.616 2.878-.607.344.003.649.026 1.018.076.098.013.155.153.108.29a.324.324 0 0 1-.127.167.736.736 0 0 1-.406.119c-1.222.02-2.147.325-2.827.923a3.623 3.623 0 0 0-.847 1.132c-.229.464-.4 1.006-.518 1.629a.622.622 0 0 1-.055.161c-.174.349-.785.49-1.152.494-.592.006-1.146-.192-1.146-.605 0-.13.276-1.269 1.199-2.343a5.741 5.741 0 0 1 1.875-1.436z" fill="#e2e5e8"/><path d="M73.894 46.833c.761-.363 1.706-.613 2.872-.603.344.002.648.026 1.017.075.097.013.153.154.105.29a.323.323 0 0 1-.128.166.75.75 0 0 1-.407.117c-1.22.022-2.146.326-2.825.925a3.625 3.625 0 0 0-.846 1.131c-.23.464-.4 1.006-.519 1.628a.632.632 0 0 1-.054.161c-.172.35-.782.491-1.15.496-.592.005-1.146-.193-1.146-.605 0-.13.277-1.27 1.201-2.345a5.74 5.74 0 0 1 1.88-1.436z" fill="#e1e5e7"/><path d="M73.901 46.832c.761-.362 1.704-.61 2.867-.6.343.002.647.026 1.015.075.097.013.152.154.103.29a.322.322 0 0 1-.13.165.765.765 0 0 1-.407.115c-1.22.022-2.144.327-2.822.926a3.628 3.628 0 0 0-.846 1.13c-.23.464-.4 1.006-.52 1.627a.641.641 0 0 1-.054.162c-.17.35-.777.492-1.147.497-.592.005-1.146-.193-1.146-.605 0-.13.278-1.27 1.204-2.346a5.735 5.735 0 0 1 1.883-1.436z" fill="#e0e4e6"/><path d="M73.909 46.83c.76-.36 1.701-.607 2.862-.597a7.84 7.84 0 0 1 1.013.076c.095.013.15.155.1.29a.32.32 0 0 1-.132.163.78.78 0 0 1-.407.113c-1.219.023-2.142.33-2.82.927a3.63 3.63 0 0 0-.846 1.13c-.23.463-.4 1.005-.519 1.627a.654.654 0 0 1-.054.161c-.169.35-.774.493-1.146.498-.59.006-1.145-.193-1.145-.604 0-.129.278-1.272 1.206-2.348a5.733 5.733 0 0 1 1.888-1.436z" fill="#dfe3e5"/><path d="M73.916 46.828c.76-.358 1.699-.604 2.857-.593.34.003.645.027 1.011.075.095.013.15.156.097.29a.319.319 0 0 1-.132.162.797.797 0 0 1-.408.111c-1.218.024-2.14.33-2.818.929a3.634 3.634 0 0 0-.845 1.13c-.23.462-.4 1.004-.52 1.625a.664.664 0 0 1-.053.161c-.167.35-.77.494-1.144.5-.59.006-1.145-.193-1.145-.604 0-.128.279-1.273 1.209-2.35a5.73 5.73 0 0 1 1.89-1.436z" fill="#dee2e4"/><path d="M73.923 46.827c.759-.357 1.697-.601 2.852-.59.34.003.644.027 1.01.075.094.013.148.156.094.29a.318.318 0 0 1-.134.16.814.814 0 0 1-.408.11c-1.217.025-2.138.332-2.815.93a3.637 3.637 0 0 0-.845 1.128c-.23.463-.401 1.005-.52 1.625a.677.677 0 0 1-.053.161c-.166.351-.767.496-1.142.501-.59.006-1.145-.192-1.145-.603 0-.128.28-1.274 1.211-2.351a5.728 5.728 0 0 1 1.895-1.436z" fill="#dde1e4"/><path d="M73.93 46.825c.758-.355 1.695-.598 2.848-.587a7.87 7.87 0 0 1 1.007.076c.093.012.147.157.092.29a.317.317 0 0 1-.136.158.831.831 0 0 1-.408.108c-1.216.026-2.137.334-2.813.931a3.64 3.64 0 0 0-.845 1.128c-.23.463-.4 1.004-.52 1.624a.69.69 0 0 1-.053.162c-.163.351-.762.496-1.14.502-.589.006-1.144-.193-1.144-.603 0-.127.28-1.274 1.213-2.353a5.725 5.725 0 0 1 1.9-1.436z" fill="#dce0e3"/><path d="M73.938 46.824c.757-.354 1.692-.596 2.842-.584.338.003.642.027 1.005.076.093.012.146.157.09.29a.316.316 0 0 1-.137.156.85.85 0 0 1-.41.107c-1.214.026-2.134.334-2.81.932-.341.302-.62.677-.844 1.127-.23.463-.401 1.004-.52 1.623a.702.702 0 0 1-.053.162c-.162.352-.758.498-1.138.503-.589.007-1.145-.192-1.145-.602 0-.126.282-1.275 1.217-2.355a5.722 5.722 0 0 1 1.903-1.435z" fill="#dbdfe2"/><path d="M73.945 46.822c.756-.352 1.69-.592 2.837-.58a7.89 7.89 0 0 1 1.004.075c.092.013.144.158.086.291a.315.315 0 0 1-.138.154.87.87 0 0 1-.41.105c-1.213.027-2.132.336-2.807.933-.342.302-.621.678-.844 1.127-.23.463-.402 1.004-.521 1.622a.716.716 0 0 1-.052.162c-.16.352-.755.499-1.137.505-.588.006-1.144-.192-1.144-.602 0-.126.283-1.276 1.22-2.356a5.72 5.72 0 0 1 1.906-1.436z" fill="#dadee1"/><path d="M73.953 46.82c.755-.35 1.687-.589 2.831-.576.337.003.64.027 1.002.075.092.012.143.159.084.291a.314.314 0 0 1-.14.152.89.89 0 0 1-.41.104c-1.212.027-2.13.337-2.805.934-.341.302-.62.677-.844 1.126-.23.463-.401 1.003-.52 1.622a.73.73 0 0 1-.052.161c-.16.353-.751.5-1.135.506-.587.007-1.144-.192-1.144-.601 0-.125.284-1.277 1.222-2.358a5.715 5.715 0 0 1 1.91-1.436z" fill="#d9dee0"/><path d="M73.96 46.819c.755-.35 1.685-.586 2.827-.574.335.004.639.028 1 .076.09.012.142.159.081.29a.313.313 0 0 1-.142.152.91.91 0 0 1-.41.101c-1.21.028-2.128.339-2.803.936-.34.302-.62.677-.843 1.125-.23.463-.402 1.003-.521 1.62a.743.743 0 0 1-.052.163c-.157.353-.747.5-1.132.507-.587.007-1.144-.192-1.144-.601 0-.125.284-1.278 1.224-2.36a5.713 5.713 0 0 1 1.915-1.435z" fill="#d8dde0"/><path d="M73.968 46.817c.753-.347 1.682-.583 2.821-.57.334.004.638.027.998.075.09.012.14.16.079.292a.312.312 0 0 1-.143.149.933.933 0 0 1-.41.1c-1.21.029-2.128.34-2.802.936-.34.302-.62.677-.842 1.125-.231.463-.402 1.003-.522 1.62a.76.76 0 0 1-.05.162c-.156.354-.744.502-1.132.508-.586.008-1.143-.192-1.143-.6 0-.124.285-1.28 1.227-2.361a5.71 5.71 0 0 1 1.919-1.436z" fill="#d7dcdf"/><path d="M73.975 46.815c.753-.345 1.68-.58 2.816-.566.334.003.638.027.996.075.09.012.14.16.077.292a.312.312 0 0 1-.145.147.956.956 0 0 1-.41.098c-1.21.03-2.126.341-2.8.938-.34.302-.619.677-.842 1.124-.23.463-.402 1.002-.521 1.619a.775.775 0 0 1-.051.162c-.154.354-.74.503-1.129.51-.586.007-1.143-.192-1.143-.6 0-.123.286-1.28 1.23-2.363a5.708 5.708 0 0 1 1.922-1.436z" fill="#d6dbde"/><path d="M73.982 46.814c.752-.344 1.678-.577 2.812-.564.332.004.636.028.994.076.089.012.138.16.073.291a.311.311 0 0 1-.146.146.98.98 0 0 1-.41.096c-1.209.03-2.124.343-2.797.94a3.66 3.66 0 0 0-.842 1.123c-.231.463-.402 1.002-.522 1.618a.793.793 0 0 1-.05.162c-.153.355-.736.505-1.127.512-.586.007-1.143-.192-1.143-.6 0-.123.287-1.28 1.232-2.364a5.704 5.704 0 0 1 1.926-1.436z" fill="#d5dadd"/><path d="M73.99 46.812c.75-.342 1.674-.574 2.806-.56.332.004.635.028.992.075.088.012.138.162.071.292a.31.31 0 0 1-.147.144c-.11.052-.246.091-.411.095-1.208.031-2.122.344-2.795.94-.34.302-.619.677-.842 1.123-.23.463-.402 1.002-.522 1.617a.809.809 0 0 1-.05.162c-.15.356-.731.506-1.125.513-.584.008-1.142-.192-1.142-.6 0-.121.287-1.28 1.234-2.365a5.701 5.701 0 0 1 1.93-1.436z" fill="#d4d9dc"/><path d="M73.997 46.81c.75-.34 1.672-.57 2.801-.556.33.004.634.028.99.075.088.012.137.163.069.292a.31.31 0 0 1-.149.142c-.11.05-.247.09-.411.093-1.207.032-2.12.346-2.792.942-.34.302-.619.676-.842 1.122-.231.463-.403 1.002-.522 1.617a.827.827 0 0 1-.05.162c-.149.355-.728.507-1.123.514-.584.008-1.142-.192-1.142-.6 0-.12.288-1.282 1.237-2.367a5.699 5.699 0 0 1 1.934-1.435z" fill="#d3d8dc"/><path d="M74.004 46.809c.75-.34 1.67-.568 2.797-.553.33.004.633.028.988.075.087.011.135.163.066.292a.31.31 0 0 1-.15.14c-.112.05-.248.088-.412.092-1.206.032-2.119.347-2.79.942-.34.302-.618.676-.841 1.123-.231.462-.403 1-.523 1.615a.846.846 0 0 1-.05.162c-.146.356-.723.508-1.12.515-.584.008-1.143-.192-1.143-.598 0-.121.29-1.284 1.24-2.37a5.694 5.694 0 0 1 1.938-1.435z" fill="#d2d7db"/><path d="M74.012 46.807c.749-.338 1.667-.564 2.79-.55.33.005.633.028.987.075.086.012.134.164.064.293a.31.31 0 0 1-.152.138 1.092 1.092 0 0 1-.412.09c-1.205.033-2.117.348-2.788.944-.34.302-.618.676-.84 1.121-.232.463-.404 1-.523 1.615a.867.867 0 0 1-.05.162c-.145.357-.72.51-1.119.517-.583.008-1.142-.192-1.142-.598 0-.12.29-1.285 1.243-2.371a5.692 5.692 0 0 1 1.942-1.436z" fill="#d2d7da"/><path d="M74.02 46.806c.747-.337 1.664-.562 2.785-.547.328.004.631.028.985.075.085.012.133.165.06.293a.31.31 0 0 1-.153.136c-.113.048-.25.084-.412.088-1.204.035-2.115.35-2.785.946-.34.302-.618.675-.84 1.12-.232.462-.404 1-.524 1.614a.887.887 0 0 1-.049.162c-.144.357-.716.51-1.117.518-.583.009-1.142-.191-1.142-.597 0-.12.291-1.285 1.245-2.373a5.689 5.689 0 0 1 1.946-1.435z" fill="#d1d6d9"/><path d="M74.027 46.804c.747-.335 1.662-.559 2.78-.543.327.004.63.028.983.075.085.011.132.165.058.293a.31.31 0 0 1-.155.135c-.113.046-.25.082-.412.086-1.203.035-2.113.351-2.783.946-.34.302-.618.676-.84 1.12-.232.462-.404 1-.524 1.613a.91.91 0 0 1-.048.163c-.142.357-.713.511-1.115.519-.582.008-1.142-.192-1.142-.597 0-.12.292-1.286 1.248-2.374a5.685 5.685 0 0 1 1.95-1.436z" fill="#d0d5d8"/><path d="M74.034 46.802c.746-.333 1.66-.555 2.776-.54.326.005.629.029.98.076.085.01.131.165.056.293a.31.31 0 0 1-.156.133c-.115.045-.251.08-.414.084-1.2.036-2.11.353-2.78.948a3.68 3.68 0 0 0-.84 1.12c-.231.461-.403 1-.523 1.611a.93.93 0 0 1-.048.163c-.14.358-.71.513-1.114.52-.581.01-1.141-.191-1.141-.596 0-.119.293-1.287 1.25-2.376a5.682 5.682 0 0 1 1.954-1.436z" fill="#cfd4d8"/><path d="M74.041 46.8c.746-.33 1.658-.552 2.771-.536.325.005.628.029.979.075.083.011.13.167.053.293a.31.31 0 0 1-.158.132 1.23 1.23 0 0 1-.414.083c-1.2.036-2.109.354-2.777.948-.34.302-.617.676-.84 1.12a6.28 6.28 0 0 0-.524 1.61.957.957 0 0 1-.047.163c-.14.359-.706.514-1.112.522-.581.009-1.141-.191-1.141-.596 0-.118.293-1.288 1.253-2.377A5.678 5.678 0 0 1 74.04 46.8z" fill="#ced3d7"/><path d="M74.049 46.8c.745-.33 1.655-.55 2.765-.534.325.005.628.028.977.075.083.01.129.167.05.293a.31.31 0 0 1-.159.13 1.27 1.27 0 0 1-.414.081c-1.199.037-2.107.355-2.775.95-.34.302-.617.675-.84 1.119a6.278 6.278 0 0 0-.523 1.61.982.982 0 0 1-.048.162c-.137.36-.701.515-1.11.523-.58.01-1.14-.19-1.14-.595 0-.117.294-1.29 1.255-2.379a5.675 5.675 0 0 1 1.962-1.436z" fill="#cdd2d6"/><path d="M74.056 46.798c.744-.329 1.653-.547 2.76-.53.324.005.627.028.976.075.082.01.127.167.047.293a.31.31 0 0 1-.16.128 1.313 1.313 0 0 1-.415.08c-1.198.037-2.105.356-2.773.95a3.69 3.69 0 0 0-.839 1.119 6.275 6.275 0 0 0-.524 1.609c-.011.056-.027.11-.047.163-.136.359-.697.516-1.108.524-.58.01-1.14-.191-1.14-.595 0-.117.295-1.29 1.258-2.38a5.672 5.672 0 0 1 1.965-1.436z" fill="#ccd1d5"/><path d="M74.063 46.796c.744-.327 1.651-.543 2.756-.526.322.004.625.028.973.074.082.011.126.169.045.294a.31.31 0 0 1-.162.126 1.358 1.358 0 0 1-.415.078c-1.197.039-2.103.358-2.77.952a3.693 3.693 0 0 0-.839 1.118 6.272 6.272 0 0 0-.525 1.608c-.01.056-.026.11-.046.163-.134.36-.694.517-1.106.525-.58.01-1.14-.19-1.14-.594 0-.116.296-1.291 1.26-2.382a5.668 5.668 0 0 1 1.97-1.436z" fill="#cbd0d4"/><path d="M74.07 46.794c.743-.325 1.649-.54 2.751-.523.322.005.624.029.971.075.081.01.126.17.043.294a.31.31 0 0 1-.164.124c-.118.04-.255.072-.415.076-1.196.04-2.101.36-2.768.954a3.696 3.696 0 0 0-.838 1.117 6.27 6.27 0 0 0-.525 1.607c-.011.056-.027.11-.046.163-.133.36-.69.518-1.105.527-.578.01-1.14-.191-1.14-.594 0-.116.297-1.292 1.263-2.384a5.666 5.666 0 0 1 1.974-1.436z" fill="#cacfd4"/><path d="M74.078 46.793c.742-.324 1.646-.538 2.746-.52.32.005.623.029.969.075.08.01.124.17.04.294a.31.31 0 0 1-.166.122c-.118.04-.256.07-.415.075-1.195.04-2.1.36-2.766.955a3.7 3.7 0 0 0-.838 1.116 6.265 6.265 0 0 0-.525 1.606 1.1 1.1 0 0 1-.046.163c-.13.361-.686.52-1.102.529-.578.01-1.14-.191-1.14-.594 0-.115.298-1.293 1.266-2.386a5.662 5.662 0 0 1 1.977-1.435z" fill="#c9cfd3"/><path d="M74.086 46.791c.74-.322 1.643-.534 2.74-.516.32.005.622.029.967.074.08.01.123.171.038.295a.31.31 0 0 1-.167.12c-.12.038-.257.068-.416.073-1.194.041-2.098.362-2.764.956a3.702 3.702 0 0 0-.837 1.116 6.262 6.262 0 0 0-.525 1.606c-.011.055-.027.11-.046.163-.13.36-.682.52-1.1.53-.578.01-1.14-.192-1.14-.594 0-.115.299-1.294 1.268-2.387a5.658 5.658 0 0 1 1.982-1.436z" fill="#c8ced2"/><path d="M74.093 46.79c.74-.321 1.64-.532 2.735-.513.319.005.621.028.966.074.078.01.122.171.034.294a.311.311 0 0 1-.168.12c-.12.037-.258.066-.416.07-1.193.042-2.096.364-2.761.958a3.705 3.705 0 0 0-.837 1.115 6.26 6.26 0 0 0-.526 1.605 1.17 1.17 0 0 1-.045.163c-.128.362-.679.522-1.099.53-.577.011-1.139-.19-1.139-.592 0-.114.3-1.295 1.27-2.389a5.654 5.654 0 0 1 1.986-1.436z" fill="#c7cdd1"/><path d="M74.1 46.788c.74-.32 1.639-.528 2.73-.51.318.006.62.03.964.075.078.01.121.172.032.294a.312.312 0 0 1-.17.118c-.12.036-.259.064-.416.07-1.192.041-2.094.364-2.759.957a3.709 3.709 0 0 0-.837 1.115 6.256 6.256 0 0 0-.526 1.604 1.21 1.21 0 0 1-.044.163c-.126.362-.675.523-1.097.532-.576.01-1.139-.19-1.139-.592 0-.113.3-1.296 1.273-2.39a5.651 5.651 0 0 1 1.99-1.436z" fill="#c6ccd0"/><path d="M74.108 46.786c.738-.318 1.636-.525 2.725-.506.317.005.619.029.961.074.078.01.12.173.03.295a.313.313 0 0 1-.171.116c-.122.035-.26.063-.417.068-1.19.043-2.092.366-2.757.96a3.712 3.712 0 0 0-.836 1.113 6.254 6.254 0 0 0-.526 1.603c-.011.056-.026.11-.045.163-.124.363-.67.524-1.094.534-.576.01-1.14-.19-1.14-.592 0-.113.302-1.296 1.277-2.392a5.647 5.647 0 0 1 1.993-1.436z" fill="#c5cbd0"/><path d="M74.115 46.785c.738-.317 1.634-.523 2.72-.503.316.005.618.029.96.074.077.01.119.174.027.295a.314.314 0 0 1-.173.114 1.78 1.78 0 0 1-.417.066c-1.19.044-2.09.368-2.754.96a3.715 3.715 0 0 0-.837 1.114 6.25 6.25 0 0 0-.526 1.602c-.01.056-.026.11-.044.163-.123.364-.667.526-1.093.535-.575.011-1.138-.19-1.138-.591 0-.112.302-1.297 1.278-2.394a5.644 5.644 0 0 1 1.997-1.435z" fill="#c4cacf"/><path d="M74.122 46.783c.737-.315 1.632-.52 2.715-.5.315.006.618.03.958.075.076.01.118.174.025.295a.314.314 0 0 1-.175.112 1.86 1.86 0 0 1-.417.064c-1.189.045-2.089.37-2.752.962a3.719 3.719 0 0 0-.836 1.113c-.233.46-.406.995-.526 1.601-.012.056-.026.11-.044.164-.121.363-.664.526-1.091.536-.575.01-1.138-.19-1.138-.591 0-.112.302-1.298 1.28-2.395a5.64 5.64 0 0 1 2.001-1.436z" fill="#c3c9ce"/><path d="M74.13 46.781c.736-.313 1.629-.516 2.71-.496.314.006.616.03.956.075.075.01.116.175.021.295a.315.315 0 0 1-.175.11 1.949 1.949 0 0 1-.418.063c-1.188.045-2.087.37-2.75.963a3.722 3.722 0 0 0-.835 1.112c-.233.46-.406.995-.527 1.6-.011.056-.026.11-.043.164-.12.364-.66.528-1.09.537-.574.012-1.137-.19-1.137-.59 0-.111.303-1.3 1.283-2.397a5.636 5.636 0 0 1 2.005-1.436z" fill="#c2c8cd"/><path d="M74.137 46.78c.735-.312 1.626-.513 2.705-.493.313.006.615.03.954.074.075.01.116.176.02.296a.317.317 0 0 1-.178.108c-.125.03-.263.056-.418.061-1.187.046-2.085.372-2.747.965a3.725 3.725 0 0 0-.836 1.11 6.24 6.24 0 0 0-.527 1.6c-.01.056-.025.11-.043.164-.117.365-.655.529-1.087.539-.573.011-1.138-.19-1.138-.59 0-.11.305-1.3 1.287-2.399a5.633 5.633 0 0 1 2.008-1.435z" fill="#c1c8cc"/><path d="M74.145 46.778c.734-.31 1.623-.51 2.7-.49.312.007.614.03.952.075.074.01.114.176.016.295a.317.317 0 0 1-.179.108c-.125.029-.264.053-.418.059-1.186.046-2.083.373-2.745.965a3.729 3.729 0 0 0-.835 1.11c-.233.461-.406.995-.527 1.6-.011.055-.026.11-.043.163-.116.365-.652.53-1.085.54-.573.012-1.138-.19-1.138-.59 0-.109.306-1.3 1.29-2.4a5.63 5.63 0 0 1 2.012-1.435z" fill="#c0c7cc"/><path d="M74.152 46.776c.733-.308 1.621-.506 2.694-.486.312.006.614.03.95.075.074.01.115.177.015.295a.318.318 0 0 1-.18.106 2.248 2.248 0 0 1-.419.057c-1.185.048-2.082.375-2.743.967a3.731 3.731 0 0 0-.834 1.11c-.234.46-.407.994-.528 1.598-.011.056-.025.11-.042.164-.115.365-.648.53-1.084.541-.572.012-1.137-.19-1.137-.59 0-.108.306-1.301 1.292-2.4a5.627 5.627 0 0 1 2.016-1.437z" fill="#bfc6cb"/><path d="M74.16 46.775c.732-.307 1.618-.504 2.689-.483.31.006.612.03.948.074.073.01.113.178.012.296a.319.319 0 0 1-.182.104c-.127.027-.266.05-.419.056-1.184.048-2.08.376-2.74.967a3.735 3.735 0 0 0-.835 1.11c-.233.46-.406.994-.527 1.597-.012.056-.026.11-.042.164-.113.366-.645.532-1.082.543-.572.012-1.137-.19-1.137-.59 0-.108.307-1.302 1.294-2.402a5.621 5.621 0 0 1 2.02-1.436z" fill="#bec5ca"/><path d="M74.167 46.773c.731-.305 1.616-.5 2.684-.48.31.007.611.03.947.075.072.01.111.179.008.296a.32.32 0 0 1-.183.102 2.514 2.514 0 0 1-.419.054c-1.183.049-2.078.377-2.738.97a3.738 3.738 0 0 0-.834 1.108c-.234.46-.407.993-.528 1.596-.011.056-.025.11-.042.164-.11.367-.64.533-1.08.544-.57.012-1.136-.19-1.136-.588 0-.108.308-1.304 1.297-2.405a5.618 5.618 0 0 1 2.024-1.436z" fill="#bdc4c9"/><path d="M74.174 46.772c.731-.304 1.614-.498 2.68-.476.308.006.61.03.944.074.071.01.11.18.006.296a.322.322 0 0 1-.185.1 2.673 2.673 0 0 1-.419.052c-1.182.05-2.076.38-2.736.97a3.74 3.74 0 0 0-.833 1.109c-.234.46-.407.993-.529 1.596a1.82 1.82 0 0 1-.04.163c-.11.367-.638.535-1.079.546-.57.012-1.136-.19-1.136-.588 0-.107.309-1.305 1.299-2.407a5.614 5.614 0 0 1 2.028-1.435z" fill="#bcc3c8"/><path d="M74.181 46.77c.73-.303 1.612-.495 2.675-.473.308.007.609.03.943.074.07.01.11.18.003.297a.323.323 0 0 1-.186.098 2.85 2.85 0 0 1-.42.05c-1.18.051-2.074.381-2.734.972a3.745 3.745 0 0 0-.833 1.108c-.234.46-.407.993-.528 1.595-.011.055-.025.11-.041.163-.108.368-.633.536-1.076.547-.57.013-1.136-.19-1.136-.587 0-.107.31-1.306 1.301-2.408a5.61 5.61 0 0 1 2.032-1.436z" fill="#bbc2c8"/><path d="M74.189 46.768c.73-.3 1.61-.491 2.669-.469.307.007.608.03.94.074.07.01.11.181.002.297a.325.325 0 0 1-.188.096c-.13.024-.27.043-.42.05-1.18.05-2.073.38-2.731.972a3.748 3.748 0 0 0-.833 1.107 6.22 6.22 0 0 0-.529 1.594c-.011.055-.025.11-.04.164-.107.368-.63.537-1.074.548-.57.012-1.136-.19-1.136-.587 0-.106.31-1.307 1.304-2.41a5.607 5.607 0 0 1 2.036-1.436z" fill="#bac1c7"/><path d="M74.196 46.767c.729-.3 1.607-.489 2.664-.466.306.006.608.03.94.074.069.009.107.182-.002.297a.326.326 0 0 1-.19.094c-.13.023-.27.042-.42.048-1.179.051-2.07.383-2.729.974a3.752 3.752 0 0 0-.832 1.106 6.22 6.22 0 0 0-.53 1.593c-.01.055-.024.11-.04.164-.104.368-.625.538-1.072.55-.569.012-1.135-.19-1.135-.587 0-.106.31-1.308 1.306-2.412a5.603 5.603 0 0 1 2.04-1.435z" fill="#b9c0c6"/><path d="M74.204 46.765c.727-.298 1.604-.486 2.659-.462a8.4 8.4 0 0 1 .937.073c.068.01.106.183-.005.297a.328.328 0 0 1-.19.093c-.132.022-.272.04-.421.046-1.178.053-2.069.384-2.727.975a3.755 3.755 0 0 0-.832 1.106c-.234.46-.408.992-.53 1.592a2.27 2.27 0 0 1-.039.164c-.103.37-.621.54-1.07.55-.569.014-1.136-.189-1.136-.585 0-.105.313-1.308 1.31-2.413a5.6 5.6 0 0 1 2.044-1.436z" fill="#b8c0c5"/><path d="M74.211 46.763c.727-.296 1.602-.482 2.654-.459.304.007.605.03.935.074.068.01.106.184-.007.297a.33.33 0 0 1-.192.092c-.132.02-.272.037-.421.044-1.177.053-2.067.385-2.724.976-.336.302-.611.671-.832 1.105-.235.46-.408.992-.53 1.591-.01.056-.024.11-.04.164-.1.37-.617.54-1.068.552-.568.014-1.135-.19-1.135-.585 0-.104.313-1.31 1.312-2.415a5.595 5.595 0 0 1 2.048-1.436z" fill="#b7bfc4"/><path d="M74.218 46.762c.726-.295 1.6-.48 2.65-.456.302.007.604.03.933.074.067.009.104.184-.01.297a.332.332 0 0 1-.194.09c-.133.019-.273.036-.421.042-1.176.054-2.065.387-2.722.977-.336.302-.61.672-.831 1.105-.235.46-.409.991-.53 1.59-.011.056-.025.11-.04.165-.1.37-.613.541-1.066.553-.567.013-1.135-.19-1.135-.585 0-.104.314-1.31 1.315-2.416a5.592 5.592 0 0 1 2.051-1.436z" fill="#b6bec3"/><path d="M74.226 46.76c.725-.293 1.597-.476 2.644-.452.302.007.603.03.931.073.067.01.104.186-.012.298a.334.334 0 0 1-.195.088 4.676 4.676 0 0 1-.422.04c-1.175.055-2.064.389-2.72.98-.335.301-.61.67-.83 1.103-.235.46-.41.991-.53 1.59-.012.055-.025.11-.04.164-.098.37-.61.543-1.064.554-.567.014-1.135-.19-1.135-.584 0-.103.315-1.311 1.317-2.418a5.587 5.587 0 0 1 2.056-1.436z" fill="#b5bdc3"/><path d="M74.233 46.759c.724-.292 1.595-.474 2.639-.45.301.008.602.03.93.074.065.009.102.186-.015.298a.336.336 0 0 1-.197.086 5.206 5.206 0 0 1-.422.039c-1.174.055-2.062.39-2.717.98-.336.302-.61.67-.831 1.103-.235.46-.409.99-.53 1.589-.012.055-.025.11-.039.164-.096.37-.606.544-1.063.556-.566.014-1.134-.19-1.134-.584 0-.103.315-1.312 1.32-2.42a5.584 5.584 0 0 1 2.06-1.435z" fill="#b4bcc2"/><path d="M74.24 46.757c.724-.29 1.593-.47 2.634-.446.3.007.601.03.928.074.065.009.101.187-.018.298a.338.338 0 0 1-.198.084c-.135.016-.275.03-.422.037-1.173.056-2.06.391-2.715.981-.335.302-.61.671-.83 1.103a6.2 6.2 0 0 0-.531 1.588c-.011.055-.024.11-.038.164-.095.372-.603.545-1.061.557-.566.014-1.134-.189-1.134-.583 0-.102.316-1.313 1.322-2.421a5.58 5.58 0 0 1 2.064-1.436z" fill="#b3bbc1"/><path d="M74.248 46.755c.722-.289 1.59-.467 2.628-.442.3.007.6.03.926.074.065.008.1.187-.02.298a.34.34 0 0 1-.2.082 6.74 6.74 0 0 1-.422.036c-1.172.057-2.058.392-2.713.982-.335.302-.61.67-.83 1.102-.235.46-.409.99-.53 1.587l-.038.164c-.093.372-.599.547-1.06.559-.565.014-1.133-.19-1.133-.583 0-.102.317-1.314 1.325-2.423a5.576 5.576 0 0 1 2.067-1.436z" fill="#b2bac0"/><path d="M74.255 46.754c.721-.29 1.588-.465 2.624-.44.298.008.6.031.924.074.063.009.1.189-.023.298a.342.342 0 0 1-.201.081 7.906 7.906 0 0 1-.423.034c-1.17.058-2.056.394-2.71.984-.335.302-.61.67-.83 1.101-.235.46-.41.99-.531 1.586-.012.055-.024.11-.038.165-.091.372-.594.547-1.057.56-.564.014-1.133-.19-1.133-.583 0-.1.318-1.315 1.327-2.425.5-.549 1.175-1.08 2.071-1.435z" fill="#b1b9bf"/><path d="M74.263 46.752c.72-.287 1.585-.461 2.618-.435.298.007.598.03.922.073.063.008.099.19-.025.298a.345.345 0 0 1-.203.08 9.514 9.514 0 0 1-.423.032c-1.17.058-2.055.395-2.708.984-.335.302-.61.67-.83 1.101-.235.46-.409.99-.53 1.586a4.58 4.58 0 0 1-.038.164c-.09.373-.59.548-1.055.561-.564.015-1.133-.189-1.133-.582 0-.1.318-1.316 1.33-2.426a5.544 5.544 0 0 1 2.075-1.436z" fill="#b0b9bf"/><path d="M74.27 46.75c.72-.285 1.583-.458 2.613-.432.297.008.598.031.92.074.063.008.098.19-.027.298a.347.347 0 0 1-.204.078c-.139.011-.28.023-.424.03-1.169.06-2.053.397-2.706.986-.335.302-.609.67-.829 1.1a6.19 6.19 0 0 0-.532 1.585c-.01.055-.023.11-.036.164-.088.373-.587.55-1.053.563-.564.014-1.134-.19-1.134-.582 0-.1.32-1.317 1.333-2.428a5.541 5.541 0 0 1 2.079-1.436z" fill="#afb8be"/><path d="M74.277 46.749c.72-.284 1.58-.455 2.609-.429.295.008.596.03.918.073.062.009.096.192-.03.299a.35.35 0 0 1-.206.076c-.14.01-.28.021-.424.029-1.168.06-2.051.397-2.703.986a3.79 3.79 0 0 0-.83 1.1c-.235.46-.41.989-.531 1.584-.011.055-.024.11-.036.164-.087.374-.584.551-1.052.564-.563.015-1.133-.189-1.133-.581 0-.1.321-1.318 1.336-2.43a5.539 5.539 0 0 1 2.082-1.435z" fill="#aeb7bd"/><path d="M74.285 46.747c.718-.282 1.577-.452 2.603-.425.295.007.595.03.916.073.061.008.096.192-.033.299a.352.352 0 0 1-.207.074c-.14.01-.28.02-.424.027-1.167.06-2.05.4-2.701.988-.335.302-.608.67-.829 1.1-.235.458-.41.988-.532 1.582l-.036.165c-.085.374-.58.552-1.05.565-.562.015-1.132-.19-1.132-.581 0-.099.322-1.318 1.338-2.431a5.537 5.537 0 0 1 2.087-1.436z" fill="#adb6bc"/><path d="M74.292 46.746c.717-.281 1.575-.45 2.598-.422.294.007.595.03.915.073.06.008.094.193-.036.299a.355.355 0 0 1-.209.072c-.14.008-.281.018-.424.025-1.166.062-2.047.401-2.699.99-.334.302-.608.67-.828 1.098-.236.46-.41.988-.532 1.582l-.036.165c-.083.375-.576.553-1.047.566-.562.016-1.133-.189-1.133-.58 0-.098.322-1.32 1.34-2.433a5.534 5.534 0 0 1 2.091-1.435z" fill="#acb5bb"/><path d="M74.3 46.744c.716-.28 1.572-.446 2.592-.419.294.008.594.031.913.073.06.008.094.195-.038.3a.357.357 0 0 1-.21.07c-.142.007-.283.016-.425.024-1.165.062-2.046.402-2.697.99a3.8 3.8 0 0 0-.827 1.098c-.236.459-.41.988-.533 1.581l-.035.165c-.082.375-.572.554-1.046.568-.561.015-1.132-.189-1.132-.58 0-.097.323-1.32 1.343-2.434a5.533 5.533 0 0 1 2.095-1.436z" fill="#abb4bb"/><path d="M74.307 46.742c.715-.278 1.57-.443 2.588-.415.292.008.592.031.91.073.06.008.093.195-.04.3a.36.36 0 0 1-.212.068c-.142.006-.284.015-.425.022-1.164.063-2.044.404-2.694.992-.334.302-.608.67-.828 1.097-.236.459-.41.988-.533 1.58-.01.055-.022.11-.034.165-.08.376-.569.556-1.044.57-.561.015-1.132-.19-1.132-.58 0-.097.324-1.321 1.345-2.436a5.53 5.53 0 0 1 2.099-1.436z" fill="#aab3ba"/><path d="M74.314 46.74c.715-.276 1.568-.44 2.583-.411.291.008.591.03.909.073.058.008.092.196-.043.3a.363.363 0 0 1-.214.066l-.425.02c-1.163.064-2.042.406-2.692.994a3.807 3.807 0 0 0-.827 1.096c-.236.459-.41.987-.533 1.58l-.035.165c-.078.376-.564.556-1.042.57-.56.016-1.131-.189-1.131-.58 0-.095.325-1.321 1.348-2.437a5.528 5.528 0 0 1 2.102-1.435z" fill="#a9b2b9"/><path d="M74.322 46.74c.714-.276 1.565-.438 2.577-.41.29.009.59.032.907.073.058.008.091.197-.046.3a.366.366 0 0 1-.214.065c-.144.005-.286.011-.426.02-1.162.063-2.04.405-2.69.993a3.81 3.81 0 0 0-.826 1.096 6.17 6.17 0 0 0-.534 1.579l-.034.165c-.077.376-.56.558-1.04.571-.56.016-1.131-.188-1.131-.578 0-.096.325-1.323 1.35-2.44a5.526 5.526 0 0 1 2.107-1.435z" fill="#a8b2b8"/><path d="M74.329 46.737c.713-.273 1.563-.433 2.573-.405.29.008.59.032.905.073.057.008.09.198-.049.3a.369.369 0 0 1-.216.063c-.144.004-.286.01-.426.018-1.16.064-2.038.407-2.687.995a3.815 3.815 0 0 0-.827 1.095 6.168 6.168 0 0 0-.533 1.578l-.034.165c-.075.377-.557.559-1.038.573-.56.016-1.131-.188-1.131-.578 0-.095.326-1.324 1.353-2.44a5.523 5.523 0 0 1 2.11-1.437z" fill="#a7b1b7"/><path d="M74.336 46.736c.713-.272 1.561-.431 2.568-.402.289.008.588.031.903.073.056.007.089.199-.051.3a.372.372 0 0 1-.218.062c-.145.002-.287.007-.426.015-1.16.066-2.037.409-2.685.996a3.818 3.818 0 0 0-.826 1.095 6.166 6.166 0 0 0-.534 1.577l-.033.165c-.074.378-.553.56-1.037.575-.558.016-1.13-.189-1.13-.578 0-.094.327-1.325 1.355-2.442a5.521 5.521 0 0 1 2.114-1.436z" fill="#a6b0b7"/><path d="M74.344 46.734c.711-.27 1.558-.428 2.562-.398.288.008.588.032.901.073.056.007.088.2-.053.3a.374.374 0 0 1-.22.06 8.595 8.595 0 0 0-.426.013c-1.159.067-2.035.41-2.683.998a3.822 3.822 0 0 0-.825 1.094 6.162 6.162 0 0 0-.535 1.576l-.033.165c-.071.378-.549.562-1.034.576-.558.017-1.13-.188-1.13-.577 0-.094.328-1.326 1.358-2.444a5.52 5.52 0 0 1 2.118-1.436z" fill="#a5afb6"/><path d="M77.808 46.41c-1.406-.182-2.543-.023-3.457.323a5.517 5.517 0 0 0-2.122 1.435c-1.032 1.12-1.36 2.353-1.36 2.446 0 .728 2.012.811 2.162 0 .229-1.216.668-2.177 1.393-2.834.724-.658 1.735-1.011 3.107-1.011.383 0 .351-.349.277-.359z" fill="#a4aeb5"/><path d="M47.7 0c-1.65 0-3.91 1.003-3.914 4.151v3.482c0 .802 2.238.802 2.238 0v-3.6c0-1.477.932-2.59 2.235-2.622 1.03-.024 1.863.503 1.863 2 0 .377.744.377.744 0C50.866.88 49.465 0 47.7 0z" fill="url(#b)" transform="translate(27 43)"/><path d="M80.1 51.06h-.817c-.074 0-.1-.05-.134-.099l-.965-1.3h-.094c-.174 0-.442-.015-.596-.02v1.32c0 .054-.054.098-.127.098h-.67c-.074 0-.134-.044-.134-.098V47.61c0-.098.08-.132.214-.147.348-.039.824-.063 1.313-.063 1.032 0 1.93.268 1.93 1.101v.044c0 .517-.356.839-.905.994l1.052 1.423c.034.05.007.098-.067.098zm-1.005-2.56c0-.365-.335-.521-1.005-.521-.14 0-.475.01-.596.02v1.096c.107.005.482.015.596.015.69 0 1.005-.137 1.005-.566zm4.597 2.53c-.215.024-.476.068-1.273.068-.871 0-1.548-.17-1.548-.999v-1.7c0-.83.677-1 1.548-1 .797 0 1.058.044 1.273.068.1.01.134.034.134.103v.312c0 .053-.06.097-.134.097h-1.367c-.388 0-.53.098-.53.42v.526h1.817c.073 0 .133.043.133.097v.35c0 .054-.06.098-.133.098h-1.816v.629c0 .321.14.42.53.42h1.366c.074 0 .134.043.134.096v.312c0 .069-.034.093-.134.103zm3.792-.01c-.1.02-.542.078-1.058.078-.804 0-1.896-.288-1.896-1.491v-.717c0-1.223 1.092-1.49 1.896-1.49.516 0 .958.058 1.058.077.087.02.148.044.148.112v.327c0 .063-.04.107-.148.102-.234-.015-.69-.039-1.045-.039-.563 0-.971.22-.971.911v.717c0 .677.408.911.971.911.355 0 .811-.024 1.045-.04.108-.004.148.04.148.103v.327c0 .068-.06.093-.148.112zm4.423.04h-.817c-.074 0-.1-.05-.134-.099l-.965-1.3h-.094c-.174 0-.442-.015-.596-.02v1.32c0 .054-.054.098-.128.098h-.67c-.073 0-.134-.044-.134-.098V47.61c0-.098.08-.132.215-.147.348-.039.824-.063 1.313-.063 1.032 0 1.93.268 1.93 1.101v.044c0 .517-.356.839-.905.994l1.052 1.423c.033.05.007.098-.067.098zm-1.005-2.56c0-.365-.335-.521-1.005-.521-.14 0-.476.01-.596.02v1.096c.107.005.482.015.596.015.69 0 1.005-.137 1.005-.566zm4.964 2.515c-.234.025-1.079.083-1.487.083-1.079 0-1.83-.331-1.83-1.37V47.53c0-.053.061-.092.134-.092h.664c.074 0 .134.04.134.092v2.199c0 .555.174.808.898.808.268 0 .676-.019.924-.038V47.53c0-.053.054-.092.128-.092h.663c.073 0 .134.04.134.092v3.188c0 .205-.12.273-.362.297zm2.098.044H97.3c-.074 0-.135-.044-.135-.098v-3.43c0-.054.061-.093.135-.093h.663c.074 0 .134.04.134.092v3.431c0 .054-.06.098-.134.098zm4.179-3.056h-1.173v2.958c0 .054-.06.098-.134.098h-.663c-.074 0-.134-.044-.134-.098v-2.958h-1.172c-.074 0-.135-.034-.135-.087v-.386c0-.053.06-.092.135-.092h3.276c.073 0 .134.04.134.092v.386c0 .053-.06.087-.134.087z" fill="#4d6470"/><g fill="gray"><path d="M27.093 47.647h1.684c.308 0 .56.099.757.295.197.196.295.47.295.82 0 .351-.092.618-.274.8-.182.183-.442.273-.778.273h-1.2v1.41h-.484v-3.598zm.484.4v1.389h1.094c.197 0 .35-.056.463-.169a.683.683 0 0 0 .19-.505c0-.238-.057-.413-.169-.526a.656.656 0 0 0-.484-.19z"/><path d="M27.67 51.338H27v-3.784h1.777c.331 0 .608.108.823.322.213.213.322.511.322.886s-.101.667-.3.866c-.2.2-.484.3-.845.3H27.67v1.41zm-.484-.186h.298v-1.41h1.293c.314 0 .547-.08.713-.246.163-.163.246-.41.246-.734 0-.323-.09-.577-.268-.754-.18-.18-.406-.268-.691-.268h-1.591v3.412zm1.485-1.624h-1.187v-1.574h1.187a.75.75 0 0 1 .55.216c.13.13.196.33.196.592a.774.774 0 0 1-.217.57c-.129.13-.307.196-.529.196zm-1-.186h1c.173 0 .303-.046.398-.14a.591.591 0 0 0 .162-.44c0-.211-.048-.366-.141-.46a.563.563 0 0 0-.419-.162h-1zm3.39-1.716h1.768c.28 0 .512.092.695.274.182.182.273.435.273.757 0 .323-.091.576-.273.758a.735.735 0 0 1-.421.19l.82 1.62h-.526l-.757-1.558h-1.094v1.557h-.484v-3.598zm.485.4v1.241h1.241c.14 0 .26-.048.358-.147.098-.098.147-.252.147-.463 0-.196-.056-.35-.168-.463a.547.547 0 0 0-.4-.168h-1.178z"/><path d="M34.075 51.317h-.736l-.757-1.557h-.943v1.557h-.67v-3.783h1.86c.305 0 .56.1.76.3.2.2.301.476.301.823s-.101.624-.3.823a.752.752 0 0 1-.349.19zm-.62-.186h.317l-.81-1.6.127-.02a.645.645 0 0 0 .37-.162c.164-.166.245-.392.245-.692 0-.3-.08-.525-.246-.692a.847.847 0 0 0-.629-.245h-1.674v3.411h.298v-1.557h1.245l.758 1.557zm-.668-1.77h-1.334v-1.428h1.271c.18 0 .336.066.466.196s.195.307.195.528c0 .235-.058.413-.174.53a.581.581 0 0 1-.424.173zm-1.148-.187h1.148c.116 0 .212-.039.292-.12.08-.079.12-.213.12-.397 0-.172-.046-.302-.141-.396a.452.452 0 0 0-.334-.142H31.64v1.055zm3.707-1.127a1.461 1.461 0 0 1 1.073-.442c.42 0 .779.147 1.073.442.337.337.505.8.505 1.389s-.168 1.052-.505 1.388a1.46 1.46 0 0 1-1.073.442 1.46 1.46 0 0 1-1.073-.442c-.337-.336-.505-.799-.505-1.388 0-.59.168-1.052.505-1.39zm.358.274c-.239.238-.358.61-.358 1.115s.119.877.358 1.115c.21.21.448.316.715.316.266 0 .505-.106.716-.316.238-.238.357-.61.357-1.115s-.119-.877-.357-1.115c-.21-.21-.45-.316-.716-.316-.267 0-.505.105-.715.316z"/><path d="M36.419 51.36c-.444 0-.827-.158-1.139-.47-.353-.352-.532-.842-.532-1.455 0-.612.179-1.1.532-1.454.31-.31.694-.469 1.139-.469.445 0 .828.158 1.139.468.353.354.532.843.532 1.455 0 .613-.179 1.103-.532 1.456a1.56 1.56 0 0 1-1.14.469zm-1.007-3.247c-.317.317-.478.762-.478 1.322 0 .562.16 1.007.478 1.324.275.275.614.415 1.007.415.393 0 .732-.14 1.007-.415.318-.317.478-.762.478-1.324 0-.56-.16-1.005-.478-1.323a1.36 1.36 0 0 0-1.007-.414c-.4 0-.729.136-1.007.415zm1.007 2.847c-.29 0-.553-.116-.781-.343-.256-.255-.385-.653-.385-1.182 0-.528.13-.926.385-1.18.228-.227.49-.343.78-.343.292 0 .554.116.782.342.256.256.385.653.385 1.181s-.13.926-.385 1.182a1.08 1.08 0 0 1-.781.343zm-.65-2.573c-.219.218-.33.57-.33 1.048 0 .478.111.83.33 1.05.195.194.407.289.65.289.243 0 .456-.095.65-.289.22-.22.33-.572.33-1.05 0-.476-.11-.83-.33-1.048-.195-.194-.407-.289-.65-.289-.243 0-.455.095-.65.289zm3.461-.74h1.263c.42 0 .779.147 1.073.442.308.309.463.772.463 1.389 0 .589-.161 1.045-.484 1.368-.267.266-.617.4-1.052.4H39.23zm.484.4v2.799h.758a.883.883 0 0 0 .652-.253c.267-.266.4-.638.4-1.115 0-.505-.126-.884-.379-1.136a.928.928 0 0 0-.673-.295z"/><path d="M40.493 51.338h-1.356v-3.784h1.356c.444 0 .827.158 1.139.47.325.325.49.814.49 1.454 0 .612-.172 1.095-.511 1.434-.284.283-.66.426-1.118.426zm-1.17-.186h1.17c.413 0 .736-.122.986-.372.303-.303.457-.74.457-1.302 0-.59-.146-1.034-.436-1.322a1.358 1.358 0 0 0-1.007-.416h-1.17zm1.149-.213h-.85v-2.985h.85c.276 0 .524.108.74.322.268.27.405.674.405 1.202 0 .5-.144.898-.427 1.181a.98.98 0 0 1-.718.28zm-.665-.186h.665a.787.787 0 0 0 .586-.226c.248-.247.373-.6.373-1.049 0-.477-.118-.837-.351-1.071a.836.836 0 0 0-.608-.267h-.665zm3.476-3.106h.484v2.525c0 .197.063.358.19.484.154.155.378.232.673.232.294 0 .519-.077.673-.232a.656.656 0 0 0 .19-.484v-2.525h.483v2.546c0 .31-.098.562-.294.758-.225.224-.576.336-1.052.336-.477 0-.828-.112-1.052-.336-.197-.196-.295-.449-.295-.758z"/><path d="M44.63 51.38c-.501 0-.877-.121-1.118-.363a1.12 1.12 0 0 1-.322-.824v-2.64h.67v2.62a.56.56 0 0 0 .162.417c.135.136.34.205.608.205.271 0 .47-.067.607-.204a.562.562 0 0 0 .163-.419v-2.618h.67v2.64c0 .331-.109.609-.322.823-.242.242-.618.364-1.118.364zm-1.254-3.64v2.453c0 .286.087.512.267.693.205.205.537.309.987.309.449 0 .78-.104.986-.31.18-.18.267-.406.267-.692V47.74h-.297v2.432a.75.75 0 0 1-.217.55c-.172.172-.42.259-.74.259-.319 0-.567-.087-.738-.26a.747.747 0 0 1-.217-.549V47.74zm4.339.265c.266-.266.61-.4 1.03-.4.422 0 .75.12.99.358.252.252.385.575.4.968h-.506c-.028-.295-.119-.52-.273-.674a.833.833 0 0 0-.61-.252.927.927 0 0 0-.674.294c-.252.253-.378.639-.378 1.158 0 .519.126.905.378 1.157a.915.915 0 0 0 .673.274c.281 0 .498-.077.653-.232.196-.196.294-.477.294-.841h.505c-.014.477-.154.848-.42 1.115-.239.239-.583.357-1.032.357-.42 0-.764-.133-1.03-.4-.351-.35-.527-.827-.527-1.43 0-.617.176-1.101.527-1.452z"/><path d="M48.745 51.38c-.444 0-.812-.143-1.096-.426-.368-.368-.554-.872-.554-1.498 0-.64.186-1.15.554-1.516.283-.284.652-.428 1.096-.428.444 0 .8.13 1.056.385.268.268.412.615.426 1.03l.004.097h-.686l-.008-.084c-.026-.271-.11-.478-.247-.617a.737.737 0 0 0-.545-.225.83.83 0 0 0-.607.268c-.233.233-.352.6-.352 1.09 0 .492.119.86.352 1.092a.818.818 0 0 0 .607.247c.258 0 .45-.067.587-.205.177-.177.268-.438.268-.775v-.093h.694l-.003.096c-.015.499-.166.896-.449 1.177-.255.256-.624.386-1.097.386zm0-3.681c-.399 0-.714.122-.965.372-.33.331-.499.797-.499 1.385 0 .575.168 1.034.5 1.367.247.247.572.372.964.372.421 0 .746-.112.966-.331.23-.23.36-.55.389-.956h-.317c-.016.344-.123.617-.32.814-.171.172-.413.259-.718.259-.29 0-.539-.101-.739-.3-.269-.27-.406-.682-.406-1.225 0-.541.137-.952.406-1.222.214-.214.463-.322.74-.322.262 0 .49.094.676.28.153.154.251.371.29.646h.324a1.255 1.255 0 0 0-.367-.809c-.223-.222-.525-.33-.924-.33zm2.622-.052h2.315v.4h-1.83v1.115h1.704v.4H51.85v1.284h1.936v.4h-2.42v-3.599z"/><path d="M53.88 51.338h-2.605v-3.784h2.5v.586h-1.83v.929h1.704v.586h-1.704v1.098h1.935zm-2.42-.186h2.234v-.213H51.76v-1.47h1.704v-.214h-1.704v-1.301h1.83v-.214h-2.128zm3.497-3.505h1.263c.42 0 .778.147 1.073.442.308.309.463.772.463 1.389 0 .589-.162 1.045-.484 1.368-.267.266-.618.4-1.052.4h-1.263zm.484.4v2.799h.758a.883.883 0 0 0 .652-.253c.266-.266.4-.638.4-1.115 0-.505-.126-.884-.379-1.136a.927.927 0 0 0-.673-.295z"/><path d="M56.22 51.338h-1.356v-3.784h1.356c.444 0 .827.158 1.139.47.325.325.49.814.49 1.454 0 .612-.172 1.094-.511 1.433-.284.284-.66.427-1.118.427zm-1.17-.186h1.17c.413 0 .735-.122.986-.372.303-.303.457-.742.457-1.302 0-.588-.147-1.034-.436-1.322a1.358 1.358 0 0 0-1.007-.416h-1.17zm1.149-.213h-.85v-2.985h.85c.276 0 .524.108.739.322.27.27.406.675.406 1.202 0 .5-.144.898-.427 1.181a.98.98 0 0 1-.718.28zm-.665-.186h.665a.787.787 0 0 0 .586-.226c.248-.247.373-.6.373-1.049 0-.477-.119-.837-.352-1.071a.834.834 0 0 0-.607-.267h-.665zm5.635-3.106h1.683c.28 0 .512.092.695.274.168.168.252.393.252.673a.772.772 0 0 1-.547.758c.168.056.302.133.4.231a.856.856 0 0 1 .252.631c0 .309-.105.569-.315.779-.169.168-.421.253-.758.253H61.17zm.484.4v1.115h1.136c.14 0 .26-.049.358-.147a.596.596 0 0 0 .168-.442.547.547 0 0 0-.168-.4.429.429 0 0 0-.316-.126zm0 1.515v1.284h1.073c.21 0 .372-.056.484-.169a.63.63 0 0 0 .19-.463c0-.196-.057-.35-.169-.463a.684.684 0 0 0-.505-.19z"/><path d="M62.831 51.338h-1.755v-3.784h1.776c.305 0 .56.1.76.3.186.187.28.435.28.74a.865.865 0 0 1-.41.753.953.953 0 0 1 .516.867c0 .333-.116.617-.344.845-.185.186-.462.28-.823.28zm-1.57-.186h1.57c.31 0 .542-.075.692-.225a.96.96 0 0 0 .288-.713.764.764 0 0 0-.225-.566.927.927 0 0 0-.363-.208l-.265-.088.265-.088a.709.709 0 0 0 .279-.167.677.677 0 0 0 .204-.502c0-.258-.074-.457-.225-.608a.843.843 0 0 0-.629-.247h-1.59v3.412zm1.465-.213H61.56v-1.47h1.166c.235 0 .427.072.57.216.13.131.196.31.196.53a.722.722 0 0 1-.216.528c-.13.13-.315.196-.55.196zm-.98-.186h.98c.186 0 .323-.047.418-.142a.536.536 0 0 0 .162-.397c0-.171-.046-.301-.141-.397a.588.588 0 0 0-.439-.162h-.98zm1.043-1.498h-1.23v-1.301h1.272c.15 0 .279.051.381.153a.64.64 0 0 1 .196.466.688.688 0 0 1-.195.508.578.578 0 0 1-.424.174zm-1.043-.186h1.043c.116 0 .212-.04.292-.12a.503.503 0 0 0 .141-.376c0-.13-.046-.24-.14-.335a.34.34 0 0 0-.25-.098h-1.086v.929zm3.076-1.422h.505l1.031 1.642 1.031-1.642h.505l-1.283 2v1.599h-.485v-1.6z"/><path d="M66.703 51.338h-.67v-1.664l-1.383-2.12h.729l.026.044.953 1.515.98-1.56h.726l-1.36 2.12v1.665zm-.484-.186h.298v-1.534l1.207-1.878h-.283l-1.083 1.724-1.083-1.724h-.281l1.225 1.878z"/></g></g></g></svg>