<svg height="2500" viewBox="2.977 2.974 169.794 169.8" width="2500" xmlns="http://www.w3.org/2000/svg"><path d="m87.874 172.774c46.887 0 84.897-38.012 84.897-84.9s-38.01-84.9-84.897-84.9-84.897 38.012-84.897 84.9 38.01 84.9 84.897 84.9" fill="#d7b54c"/><path d="m87.874 168.588c44.577 0 80.715-36.137 80.715-80.714 0-44.578-36.138-80.716-80.715-80.716-44.578 0-80.715 36.138-80.715 80.716 0 44.577 36.137 80.714 80.715 80.714" fill="#fff"/><path d="m87.874 165.063c42.629 0 77.187-34.56 77.187-77.188 0-42.63-34.558-77.188-77.187-77.188s-77.187 34.558-77.187 77.188c0 42.629 34.558 77.188 77.187 77.188" fill="#15479e"/><path d="m35.563 72.936-.506 3.941-7.499-.961-1.012 7.883 7.5.962-.507 3.956-18.413-2.363.506-3.954 7.371.945 1.011-7.884-7.37-.945.506-3.942zm-17.4-7.443 1.835-3.83 14.495 1.661-10.37-10.268 1.834-3.83 13.763 14.245-1.835 3.831zm19.886-17.861-1.157-10.822 3.094-3.45 1.126 10.258 13.04 1.738-3.092 3.447-9.543-1.26.376 3.536 3.948 3.543-2.661 2.967-13.813-12.39 2.66-2.967zm32.382-29.94 3.214-1.092 5.756 16.944-3.627 1.232-3.838-11.295-3.09 8.786-7.776-5.042 3.821 11.249-3.64 1.236-5.756-16.945 3.274-1.111 8.31 5.413zm16.414 11.17c1.053 1.19 2.38 1.827 3.978 1.912 1.6.086 2.986-.407 4.16-1.476 1.173-1.07 1.803-2.43 1.891-4.08.088-1.648-.394-3.07-1.447-4.263-1.052-1.193-2.378-1.833-3.978-1.919-1.598-.085-2.985.41-4.158 1.484-1.175 1.074-1.804 2.436-1.893 4.085-.088 1.65.394 3.068 1.447 4.257m-2.248-10.902c1.971-1.72 4.316-2.507 7.037-2.362 2.72.145 4.968 1.18 6.744 3.098 1.777 1.92 2.596 4.162 2.46 6.73-.139 2.565-1.192 4.71-3.163 6.434-1.97 1.723-4.315 2.512-7.036 2.366-2.72-.145-4.969-1.178-6.745-3.102s-2.595-4.169-2.457-6.736c.137-2.567 1.19-4.71 3.16-6.428m31.517 8.23c-.252-.6-.7-1.034-1.346-1.302l-3.656-1.513-1.81 4.371 3.656 1.513c.645.267 1.266.284 1.864.05a2.186 2.186 0 0 0 1.268-1.252c.267-.645.275-1.268.024-1.868m-7.23-7.48 7.322 3.033c1.637.678 2.775 1.764 3.413 3.258.638 1.493.64 3.001.01 4.524a5.916 5.916 0 0 1 -1.08 1.727c-.446.491-.882.855-1.31 1.091a7.298 7.298 0 0 1 -1.235.556c-.398.133-.72.202-.965.208l-.366.037.947 7.73-3.783-1.568-.785-7.107-3.068-1.27-2.396 5.79-3.552-1.472zm33.199 21.361-12.08 13.224-2.452-2.242 1.163-14.348-7.674 8.4-2.84-2.594 12.08-13.222 2.461 2.249-1.172 14.357 7.683-8.41zm6.037 17.824-6.241.645 1.929 3.907zm-9.783.974-4.465.49-1.814-3.673 19.175-1.612 1.808 3.662-12.94 14.242-1.812-3.673 3.104-3.245zm16.976 24.692c.409-.504.578-1.105.508-1.801l-.399-3.938-4.709.477.401 3.938c.07.696.349 1.25.84 1.666a2.186 2.186 0 0 0 1.703.523c.695-.07 1.248-.358 1.656-.864m3.161-9.916.801 7.889c.179 1.763-.238 3.281-1.252 4.55-1.013 1.27-2.34 1.988-3.98 2.154a5.867 5.867 0 0 1 -2.034-.131c-.643-.162-1.171-.374-1.583-.637a7.456 7.456 0 0 1 -1.075-.825c-.305-.288-.518-.538-.641-.751l-.207-.307-6.358 4.498-.413-4.073 5.889-4.061-.335-3.305-6.237.632-.387-3.826zm-105.574 69.199c-.31-.663-.77-1.351-1.377-2.063a30.067 30.067 0 0 1 -1.742-2.241c-.551-.783-.87-1.68-.952-2.69-.083-1.01.21-2.021.886-3.032.833-1.25 2.044-1.982 3.636-2.198 1.59-.214 3.186.21 4.786 1.279a9.075 9.075 0 0 1 1.685 1.44c.49.54.858 1.035 1.103 1.484s.44.87.588 1.264c.147.394.23.706.253.939l.05.344-3.381.779a6.23 6.23 0 0 0 -.113-.613c-.057-.25-.25-.662-.583-1.236s-.761-1.036-1.285-1.386c-.633-.422-1.248-.598-1.847-.531s-1.052.33-1.36.789c-.343.518-.36 1.106-.047 1.765.31.66.767 1.345 1.367 2.055.599.71 1.178 1.46 1.737 2.248s.88 1.685.963 2.696c.084 1.01-.212 2.02-.887 3.033-.952 1.429-2.25 2.25-3.89 2.462-1.64.214-3.372-.288-5.195-1.504a9.864 9.864 0 0 1 -1.908-1.653c-.554-.624-.967-1.202-1.24-1.736a12.11 12.11 0 0 1 -.65-1.508c-.162-.472-.26-.841-.287-1.11l-.07-.433 3.316-.654c.023.182.065.426.127.73.06.306.304.823.73 1.553a5.377 5.377 0 0 0 1.672 1.785c.798.53 1.545.759 2.242.685.698-.074 1.238-.397 1.62-.971.347-.518.365-1.108.054-1.771m17.499-.62-1.363 5.119 3.58.954c.766.204 1.472.129 2.117-.226a2.497 2.497 0 0 0 1.253-1.611 2.516 2.516 0 0 0 -.284-2.025c-.381-.634-.955-1.053-1.723-1.258zm4.629-2.48c1.845.49 3.22 1.477 4.127 2.957.904 1.478 1.13 3.07.676 4.778-.455 1.705-1.441 2.975-2.96 3.808-1.518.833-3.202 1.003-5.054.509l-3.705-.986-1.571 5.894-3.855-1.027 4.782-17.948zm10.765 20.241-.896-18.552 3.985-.192.724 14.981 8.603-.416.172 3.571zm15.068-20.329 3.827-1.12 5.22 17.817-3.826 1.122zm21.734-10.688 1.93 3.022-4.463 2.849 8.056 12.627-3.35 2.138-8.058-12.627-4.473 2.855-1.93-3.023zm-34.722 7.736c26.967 0 48.83-21.861 48.83-48.83 0-26.968-21.863-48.83-48.83-48.83s-48.829 21.862-48.829 48.83c0 26.969 21.862 48.83 48.829 48.83" fill="#fff"/><g fill-rule="evenodd"><path d="m124.777 80.04v-.017c-.919.038-2.027.018-3.354 0-12.492-.2-19.149-.378-27.53-2.32-9.245-2.15-15.95-3.553-25.517-3.544h-23.506c.266-.851.57-1.704.89-2.538 6.527-16.895 22.92-28.877 42.12-28.877 16.875 0 31.603 9.273 39.341 23.006a44.924 44.924 0 0 1 5.115 14.29z" fill="#d7b54c"/><path d="m133.007 87.666h-29.19c-9.565-.01-16.271 1.392-25.514 3.542-8.382 1.94-15.04 2.129-27.532 2.328-6.792.106-7.852.029-8.012-4.933 0-.236-.01-.474-.01-.728-.011-.455-.011-.947-.011-1.48 0-2.706.048-4.412.54-5.462.786-1.724 2.738-1.744 7.493-1.66 12.493.192 19.15.372 27.532 2.313 9.243 2.14 15.949 3.552 25.515 3.543h29.104c.058.843.085 1.683.085 2.537m-13.279 32.172c-6.298 6.277-14.442 10.71-23.543 12.396h-.01a54.438 54.438 0 0 1 -2.283-.484c-9.243-2.139-15.95-3.549-25.516-3.53h-.739a45.83 45.83 0 0 1 -4.421-2.548h5.16c9.566.008 16.272-1.393 25.516-3.543 7.984-1.848 14.415-2.11 25.837-2.29m6.194-7.682a43.493 43.493 0 0 1 -1.762 2.549h-20.343c-9.566-.01-16.272 1.39-25.515 3.53-6.962 1.612-12.738 2.019-21.651 2.22a45.271 45.271 0 0 1 -9.972-14.137c1.052-.062 2.387-.045 4.09-.016 12.494.2 19.15.37 27.533 2.31 9.243 2.15 15.949 3.556 25.515 3.544zm4.045-12.248c0 7.133-.352 7.256-8.031 7.133-12.492-.2-19.153-.38-27.533-2.313-9.245-2.148-15.95-3.55-25.515-3.543h-24.142a37.357 37.357 0 0 1 -.701-2.547h24.843c9.566.01 16.27-1.388 25.515-3.541 8.38-1.931 15.04-2.121 27.533-2.32 7.679-.133 8.03 0 8.03 7.13" fill="#15479e"/></g></svg>