<svg height="-834" viewBox="85.894 263.365 670.104 68.55994069" width="2500" xmlns="http://www.w3.org/2000/svg"><g fill="#1d1d1b"><path d="m181.731 306.704-14.821-11.311-1.311 1.276 11.816 14.255c-6.584 4.097-12.958 4.4-19.047.501-11.955-7.656-7.251-19.559-8.479-31.398 11.351 1.294 22.616-3.506 30.959 6.402 4.974 5.907 5.268 12.52.884 20.275zm-70.175-16.964h30.877v-8.152h-38.658z"/><path d="m167.55 331.909a34.209 34.209 0 0 1 -33.25-26.024l-.161-.646h-7.416l-6.56-6.775 22.699.018v.98c.94 12.855 11.785 22.923 24.689 22.923 13.649 0 24.754-11.105 24.754-24.754 0-13.365-10.646-24.288-23.903-24.739l-72.018-.032-10.49-9.493h81.658l.088-.002.827.035c18.396.49 33.362 15.846 33.362 34.23 0 18.901-15.376 34.277-34.277 34.277zm55.501-49.783h11.715l-3.729 17.393 31.056-.128 3.653-17.265h11.709l-9.832 44.254h-11.709l3.778-16.004-31.056.128-3.702 15.876h-11.709zm490.098 27.682-19.851-27.681h14.499l13.451 20.367 18.465-20.367h16.285l-29.793 28.922-3.954 15.332h-13.419l4.318-16.573zm-248.753-14.559c-.277-3.571-1.844-6.749-4.892-9.086-3.881-2.975-9.976-4.097-19.048-4.037h-113.11l-18.465 20.367-13.451-20.367h-14.499l19.851 27.682-4.317 16.573h13.419l3.955-15.332 19.615-19.041h10.136l32.295-.063c4.571-.031 6.608 1.233 6.766 3.273.218 2.803-2.515 4.545-7.863 4.581l-35.216.068-6.559 26.515h38.349c16.825-.112 24.199-5.742 23.601-13.455-.355-4.588-3.992-7.498-8.911-8.867 7.482-1.582 11.727-5.821 11.287-11.494-.005-.061-.018-.119-.024-.179l44.97-.042c3.182-.021 5.469.477 6.785 1.487.999.824 1.534 1.775 1.628 2.985.296 3.826-3.94 6.217-10.683 6.261l-34.117.057h-3.132l-5.803 23.246h11.712l3.372-13.54 23.681-.045 8.257 13.585h14.89l-9.538-15.214c10.893-2.56 15.635-8.46 15.057-15.919zm-92.642 21.467-23.671.076 2.071-8.239 22.667-.07c4.42-.03 6.761 1.165 6.938 3.459.218 2.808-2.809 4.739-8.005 4.774zm173.02-16.983c-.42-5.419-2.618-9.74-6.909-13.029-4.371-3.346-14.548-4.648-25.091-4.577h-38.258l-11.118 44.255h13.343l8.603-34.264h20.606l6.045-.029c5.272-.036 15.487.96 17.641 2.669 1.813 1.39 2.976 3.356 3.189 6.101.272 3.504-1.249 6.957-3.932 9.337-3.339 2.956-8.879 4.587-15.16 4.63l-13.466.032 3.736-14.885h-13.409l-6.457 26.408h21.863c12.563-.084 25.124-3.599 31.218-8.994 5.444-4.819 8.076-10.959 7.557-17.654zm61.364 16.22-9.65 10.428h-19.542c-15.038.1-26.251-7.559-27.175-19.475-1.023-13.193 10.945-24.64 31.798-24.779h30.248l-10.209 9.868h-21.103c-8.99.06-17.368 6.138-16.765 13.913.44 5.673 5.288 10.087 11.57 10.045zm23.524-33.827h-11.196l-11.118 44.255h11.202l8.844-35.226 25.986-.091-8.473 35.317h11.718l8.392-35.417 17.982-.109 6.053-8.729z"/></g></svg>