<svg height="2416" viewBox="36.09 46.15 407.79 405.39" width="2500" xmlns="http://www.w3.org/2000/svg"><path d="m188.78 358.72a3.81 3.81 0 0 0 -5.23 1.31l-9.7 16.16c-1.08 1.81-.5 4.15 1.3 5.23.85.51 1.71 1.02 2.58 1.52 1.82 1.05 4.16.43 5.21-1.39l9.43-16.32c1.05-1.82.43-4.16-1.39-5.21-.74-.43-1.47-.86-2.2-1.3zm-8.81-283.29c-.87.48-1.73.98-2.59 1.47a3.81 3.81 0 0 0 -1.38 5.21l9.46 16.3a3.819 3.819 0 0 0 5.22 1.38c.73-.42 1.46-.84 2.2-1.25a3.812 3.812 0 0 0 1.47-5.19l-9.18-16.45a3.826 3.826 0 0 0 -5.2-1.47zm-65.64 63.65c-.51.85-1.02 1.71-1.51 2.58a3.81 3.81 0 0 0 1.4 5.21l16.33 9.41a3.81 3.81 0 0 0 5.21-1.4c.42-.73.85-1.46 1.29-2.19 1.08-1.81.5-4.15-1.31-5.24l-16.16-9.69c-1.82-1.08-4.17-.49-5.25 1.32zm1.43 90.74c0-.79.01-1.58.02-2.36a3.812 3.812 0 0 0 -3.76-3.87l-18.84-.29a3.812 3.812 0 0 0 -3.87 3.76c-.01.92-.02 1.84-.02 2.77v.2c0 2.11 1.71 3.81 3.81 3.81h18.84c2.11 0 3.81-1.71 3.81-3.81v-.21zm281.46-73.2a3.812 3.812 0 0 0 5.19 1.47l16.45-9.19a3.812 3.812 0 0 0 1.47-5.19c-.49-.87-.98-1.73-1.48-2.59a3.81 3.81 0 0 0 -5.21-1.38l-16.29 9.48a3.81 3.81 0 0 0 -1.38 5.21c.42.72.84 1.45 1.25 2.19zm-262.55 146.23a3.812 3.812 0 0 0 -5.19-1.47l-16.46 9.18a3.812 3.812 0 0 0 -1.47 5.19c.48.86.97 1.72 1.47 2.58 1.06 1.82 3.39 2.45 5.21 1.39l16.31-9.45a3.821 3.821 0 0 0 1.39-5.21c-.43-.74-.85-1.47-1.26-2.21zm261.47 2.07c-.42.73-.85 1.45-1.28 2.17-1.09 1.8-.5 4.15 1.3 5.23l16.14 9.72a3.8 3.8 0 0 0 5.23-1.3c.52-.86 1.03-1.72 1.53-2.59a3.81 3.81 0 0 0 -1.39-5.21l-16.32-9.43a3.816 3.816 0 0 0 -5.21 1.41zm23.9-79.31c-2.11 0-3.81 1.71-3.81 3.81v.39c0 .85-.01 1.7-.02 2.55a3.81 3.81 0 0 0 3.75 3.87l18.84.3a3.81 3.81 0 0 0 3.87-3.75c.02-.99.02-1.98.02-2.97v-.39c0-2.11-1.71-3.81-3.81-3.81zm-65.98-149.02a3.82 3.82 0 0 0 -5.21 1.4l-9.4 16.33a3.82 3.82 0 0 0 1.4 5.21c.73.42 1.46.85 2.18 1.28a3.81 3.81 0 0 0 5.23-1.31l9.69-16.16a3.81 3.81 0 0 0 -1.31-5.23c-.85-.52-1.71-1.02-2.58-1.52zm-88.07-23.48h-.3c-2.11 0-3.81 1.71-3.81 3.81v18.84c0 2.11 1.71 3.81 3.81 3.81h.3c.76 0 1.51.01 2.26.02 2.11.03 3.84-1.65 3.87-3.76l.3-18.83a3.812 3.812 0 0 0 -3.76-3.87c-.89-.01-1.78-.02-2.67-.02zm75.16 306.82c-.72.42-1.45.83-2.18 1.23a3.822 3.822 0 0 0 -1.49 5.19l9.14 16.48a3.81 3.81 0 0 0 5.19 1.48c.87-.49 1.74-.98 2.61-1.48 1.82-1.06 2.45-3.39 1.39-5.21l-9.45-16.3a3.801 3.801 0 0 0 -5.21-1.39zm-75.16 20.12c-.82 0-1.64-.01-2.45-.02a3.81 3.81 0 0 0 -3.87 3.75l-.31 18.84a3.818 3.818 0 0 0 3.75 3.88c.96.02 1.92.02 2.88.02h.1c2.11 0 3.83-1.72 3.81-3.83l-.1-18.85c0-2.09-1.71-3.79-3.81-3.79z"/><path d="m377.78 415.41c-25.24 13.61-53.08 22.11-81.38 25-28.31 2.88-57.05.16-84.07-7.95-27.04-8.07-52.28-21.56-73.99-39.25-21.7-17.71-39.8-39.57-52.93-64.02-13.16-24.43-21.36-51.38-24.14-78.78-2.77-27.4-.11-55.21 7.75-81.34 7.12-23.76 18.56-46.07 33.45-65.71l27.34 19.53-1.47-38.37-1.47-38.37-36.76 11.06-36.77 11.06 26.53 18.95c-15.88 22.85-27.69 48.48-34.54 75.29-7.6 29.57-9.24 60.5-4.97 90.47s14.45 58.98 29.77 84.85c15.28 25.89 35.73 48.56 59.56 66.45 23.85 17.88 51.14 31.02 79.83 38.33 28.67 7.35 58.67 8.93 87.74 4.77s57.19-14.05 82.25-28.91c25.09-14.83 47.04-34.65 64.37-57.77-18.27 22.4-40.85 41.13-66.1 54.71z"/><path d="m264.65 270.97h-108.41c2.8-10.71 8.04-20.77 15.71-30.21 7.67-9.43 21.11-20.57 40.32-33.4 11.73-7.87 19.37-13.84 22.93-17.92 3.55-4.08 5.59-7.96 6.13-11.62.58-3.96-.39-7.35-2.91-10.16s-6-4.21-10.43-4.21c-4.61 0-8.6 1.45-11.94 4.35-3.35 2.9-6.06 8.01-8.14 15.35l-35.77-2.93c2.91-10.17 6.67-18.11 11.28-23.82 4.62-5.71 10.59-10.09 17.93-13.13 7.33-3.04 17.1-4.57 29.28-4.57 12.72 0 22.4 1.45 29.04 4.35 6.65 2.9 11.56 7.35 14.73 13.36s4.22 12.73 3.13 20.18c-1.15 7.92-4.58 15.5-10.27 22.71-5.69 7.22-15.3 15.14-28.79 23.78-8.01 5.03-13.39 8.55-16.13 10.56-2.75 2.01-6.02 4.64-9.8 7.9h56.43z"/><path d="m327.33 237.1h-65.83l4.33-29.72 77.23-78.26h31.5l-11.65 79.94h16.33l-4.08 28.04h-16.33l-4.85 33.87h-31.5zm4.08-28.04 5.97-40.93-40.75 40.93zm-102.74 74.2h10.15l-3.08 11.5h11.09l3.08-11.5h10.19l-8.8 32.85h-10.19l3.56-13.29h-11.09l-3.56 13.29h-10.15zm32.49 16.44c1.44-5.36 4.05-9.54 7.84-12.52 3.79-2.99 8.35-4.48 13.68-4.48 5.47 0 9.28 1.47 11.46 4.4 2.17 2.93 2.55 7.04 1.13 12.33-1.03 3.84-2.52 6.99-4.47 9.44a20.272 20.272 0 0 1 -7.14 5.73c-2.81 1.37-6.03 2.05-9.68 2.05-3.7 0-6.61-.59-8.72-1.77s-3.58-3.05-4.4-5.6c-.83-2.54-.73-5.74.3-9.58zm10.14.05c-.89 3.32-.91 5.7-.07 7.15s2.32 2.17 4.45 2.17c2.18 0 4.06-.71 5.63-2.13 1.58-1.42 2.86-3.97 3.84-7.64.83-3.09.81-5.35-.05-6.78-.87-1.43-2.36-2.14-4.5-2.14-2.05 0-3.88.73-5.51 2.17-1.63 1.45-2.89 3.85-3.79 7.2zm55.14-16.49h10.13l-5.24 19.57c-.52 1.94-1.31 3.77-2.38 5.5-1.07 1.72-2.42 3.23-4.06 4.52s-3.24 2.2-4.79 2.72c-2.17.73-4.63 1.1-7.4 1.1-1.6 0-3.31-.11-5.14-.34-1.83-.22-3.29-.67-4.38-1.33-1.09-.67-2-1.61-2.72-2.83-.73-1.22-1.11-2.49-1.15-3.78-.07-2.09.12-3.94.55-5.55l5.24-19.57h10.13l-5.37 20.04c-.48 1.79-.36 3.19.36 4.2s1.97 1.51 3.73 1.51c1.75 0 3.25-.5 4.51-1.49s2.13-2.4 2.62-4.22zm8.19 32.84 8.8-32.85h16.92c3.14 0 5.46.27 6.98.81 1.51.54 2.58 1.53 3.21 2.99.62 1.46.66 3.23.1 5.32-.49 1.82-1.3 3.39-2.43 4.72a13.468 13.468 0 0 1 -4.07 3.21c-1.01.52-2.31.95-3.91 1.3 1.1.4 1.87.81 2.32 1.21.3.27.69.85 1.16 1.73s.77 1.56.88 2.04l2.36 9.52h-11.47l-2.73-10.04c-.34-1.3-.73-2.14-1.16-2.53-.6-.51-1.36-.76-2.28-.76h-.9l-3.57 13.33zm15.43-19.54h4.28c.46 0 1.4-.15 2.81-.45.71-.13 1.35-.48 1.92-1.03s.96-1.19 1.15-1.9c.29-1.06.17-1.87-.35-2.44s-1.7-.85-3.56-.85h-4.46z"/></svg>