<svg viewBox="-0.22825678643433633 -5.090000000000003 2500.0082567864347 647.2252115781312" xmlns="http://www.w3.org/2000/svg" width="2500" height="652"><path d="M1941.65 177.64c-2.83 6.94-9.4 12.31-19.6 16.18-10.2 3.88-26.01 5.75-47.35 5.75a93.406 93.406 0 0 1 9.73 17.59c5.55 12.93 9.4 26.52 11.46 40.44.87 5.67 1.34 11.39 1.4 17.11a133.77 133.77 0 0 1-10.8 53.34 137.349 137.349 0 0 1-29.44 43.35 141.758 141.758 0 0 1-43.24 29.5 132.106 132.106 0 0 1-53.07 10.83c-21.27.08-42.26-4.86-61.25-14.44l-2.45 1.44a228.966 228.966 0 0 0-25.23 16.18 23.2 23.2 0 0 0-10.6 19.04c-.04 2.62.59 5.21 1.8 7.54 4.17 4.68 9.4 8.3 15.24 10.56 7.22 3.01 14.73 5.25 22.42 6.67 8.92 1.67 17.91 2.87 26.95 3.61 9.61.72 19.21 1.08 28.82 1.08 16.51 0 33.25.71 50.24 2.14 15.92 1.27 31.64 4.41 46.84 9.36a83.12 83.12 0 0 1 41.93 28.87 77.269 77.269 0 0 1 14.41 46.95c.16 13.18-2.83 26.2-8.72 37.99a80.216 80.216 0 0 1-25.22 28.89 122.374 122.374 0 0 1-40.53 18.06 216.63 216.63 0 0 1-54.51 6.22c-15.96.03-31.91-1.11-47.71-3.4a430.29 430.29 0 0 1-45.4-9.17c-14.43-3.75-28.72-8-42.84-12.75a950.385 950.385 0 0 1-39.45-14.22l4.32-11.9a32.567 32.567 0 0 1 12.9-16.18 37.54 37.54 0 0 1 22.23-7.22c5.45 0 10.88.74 16.15 2.17 5.09 1.36 10.13 3.01 15.05 4.92 11.94 5.19 24.29 9.35 36.94 12.43 9.1 2.25 19.45 4.28 31.03 6.1 12.3 1.84 24.72 2.74 37.15 2.7 7.21 0 15.51-.36 24.89-1.07 9.2-.66 18.28-2.53 26.99-5.57 8.13-2.8 15.52-7.4 21.62-13.46a32.904 32.904 0 0 0 8.97-24.46v-1.4c-.03-2.24-.21-4.47-.53-6.68-.43-2.95-1.4-5.8-2.85-8.41-1.87-3.23-4.31-6.1-7.21-8.45a39.842 39.842 0 0 0-13.43-7 183.266 183.266 0 0 0-44.33-8.27c-14.59-.85-29.19-1.28-43.81-1.3a277.84 277.84 0 0 1-45.54-3.61c-14.38-2.3-28.41-6.44-41.73-12.31a97.535 97.535 0 0 1-31.2-21.67 52.882 52.882 0 0 1-14.16-32.18v-2.89c.08-2.99.57-5.96 1.44-8.82a37.52 37.52 0 0 1 6.8-12.27c4.8-5.85 10.28-11.1 16.32-15.64 9.5-7.19 19.51-13.68 29.94-19.42a116.631 116.631 0 0 1-27.78-30.92c-6.05-9.9-10.99-20.43-14.73-31.41-2.9-8.58-4.88-17.44-5.92-26.43-.68-7.49-1-12.54-1-15.21v-1.76c-.14-18.3 3.55-36.43 10.81-53.23 6.95-16.2 16.86-30.95 29.22-43.51a136.896 136.896 0 0 1 43.23-29.52 133.04 133.04 0 0 1 53.26-10.83c15.44.08 30.75 2.95 45.18 8.49a175.893 175.893 0 0 1 43.78 24.26c7.19-4.58 14.83-8.4 22.81-11.4a84.044 84.044 0 0 1 30.16-5.09c6.87.14 13.71.96 20.43 2.45 7.75 1.6 15.43 3.61 22.95 5.92l-4.18 15.39zm-271.84 97.08a92.599 92.599 0 0 0 6.99 36.11 86.66 86.66 0 0 0 47.78 47.78 96.188 96.188 0 0 0 72.07 0 86.596 86.596 0 0 0 47.74-47.96 97.03 97.03 0 0 0 0-72.21 86.81 86.81 0 0 0-47.71-47.67 96.136 96.136 0 0 0-72.05 0 86.49 86.49 0 0 0-47.79 47.92 92.59 92.59 0 0 0-6.98 36.11m392.87-94.95c-12.16 0-23.83 4.84-32.43 13.46-17.95 17.96-17.95 47.06 0 65.02a45.779 45.779 0 0 0 32.43 13.46c4-.04 7.98-.61 11.82-1.74a57.05 57.05 0 0 0 10.81-4.41c1.14-.61 2.35-1.11 3.6-1.47 1.16-.4 2.38-.6 3.61-.61 1.85-.03 3.68.47 5.25 1.44 1.55.94 2.99 2.06 4.29 3.33l1.23 1.23a58.567 58.567 0 0 1-28.33 15.03c-4.01.94-8.13 1.4-12.24 1.4-10.69.01-21.2-2.85-30.41-8.27-21-12.16-32.64-35.74-29.5-59.81 3.12-24.13 20.44-44.01 43.91-50.4 5.2-1.5 10.59-2.22 16-2.18 4.04-.03 8.07.4 12.03 1.27a59.764 59.764 0 0 1 28.71 15.2l-1.22 1.23a20.95 20.95 0 0 1-4.61 3.61c-1.74.89-3.67 1.34-5.63 1.3-1.22.03-2.44-.17-3.6-.57-1.08-.38-2.11-.87-3.1-1.44a45.74 45.74 0 0 0-10.81-4.52c-3.87-.95-7.83-1.47-11.82-1.55zm47.62 45.97c0-10.69 2.86-21.19 8.26-30.41 2.62-4.46 5.79-8.6 9.44-12.27a60.873 60.873 0 0 1 26.63-15.41c22.16-6.18 45.89.91 61.02 18.23a60.064 60.064 0 0 1 10.13 63.02 59.855 59.855 0 0 1-36.35 33.69 59.675 59.675 0 0 1-49.23-5.35 60.247 60.247 0 0 1-12.29-9.38c-3.6-3.71-6.74-7.84-9.33-12.31a61.451 61.451 0 0 1-8.29-29.8zm14.2 0c.09 25.18 20.58 45.51 45.75 45.41a45.65 45.65 0 0 0 27.01-8.99c20.25-15.12 24.4-43.8 9.28-64.04a45.784 45.784 0 0 0-23.03-16.3c-24.08-7.4-49.6 6.12-57 30.2a45.792 45.792 0 0 0-2.01 13.71zm219.86 58.43c-.55-.58-1-1.26-1.32-1.99-.41-.87-.71-1.79-.91-2.74-.23-1.31-.33-2.64-.32-3.97v-4.63a65.484 65.484 0 0 1-11.1 8.34 58.31 58.31 0 0 1-9.84 4.59c-2.86.98-5.82 1.62-8.82 1.91-2.63.27-5.28.4-7.93.4-7.88.08-15.68-1.52-22.89-4.69a56.61 56.61 0 0 1-18.26-12.93 59.463 59.463 0 0 1-12.11-19.14 64.788 64.788 0 0 1 0-46.95c2.77-7.1 6.89-13.6 12.11-19.14a56.079 56.079 0 0 1 41.15-17.62c2.65 0 5.29.13 7.93.4 3.01.28 5.98.94 8.82 1.95a55.18 55.18 0 0 1 9.84 4.55c4.01 2.31 7.78 5.01 11.28 8.05v-55.86h14.2v159.48h-11.83zm-40.32-104.3a39.884 39.884 0 0 0-17.58 3.88c-5.2 2.48-9.86 5.95-13.73 10.21a46.347 46.347 0 0 0-8.9 14.73c-2.13 5.48-3.19 11.34-3.17 17.23a48.538 48.538 0 0 0 3.17 17.51 46.06 46.06 0 0 0 8.9 14.77c3.88 4.22 8.54 7.65 13.73 10.07a40.348 40.348 0 0 0 17.58 3.61c6.97 0 13.86-1.52 20.19-4.44a58.57 58.57 0 0 0 17.77-11.99v-58.86c-5.1-5.2-11.13-9.42-17.77-12.43a48.782 48.782 0 0 0-20.19-4.28zm137.36-14.33a59.2 59.2 0 0 1 49.73 27.08 63.69 63.69 0 0 1 8.03 18.05c.33 1.28.52 2.59.53 3.9.04 1.86-.32 3.7-1.04 5.41-.68 1.63-1.63 3.14-2.81 4.45a12.52 12.52 0 0 1-4.21 3.03c-1.64.76-3.42 1.14-5.23 1.11h-90.77c.71 17.72 11.8 33.35 28.29 39.86a46.492 46.492 0 0 0 17.43 3.3c2.13-.03 4.24-.24 6.31-.66 4.66-.96 9.17-2.5 13.45-4.59 2.09-.98 4.1-2.1 6.04-3.36 1.11-.68 2.33-1.17 3.61-1.44 1.18-.28 2.39-.43 3.6-.44 1.07 0 2.14.13 3.18.4.9.26 1.77.62 2.59 1.08.87.51 1.68 1.08 2.45 1.74l2.59 2.14a69.454 69.454 0 0 1-19.85 13.78c-3.74 1.74-7.63 3.1-11.64 4.08a49.848 49.848 0 0 1-12.29 1.52c-5.39.02-10.77-.71-15.96-2.17a62.312 62.312 0 0 1-14.41-6.07c-4.48-2.6-8.6-5.77-12.26-9.42a60.793 60.793 0 0 1-15.56-26.7 60.03 60.03 0 0 1-2.17-15.99 58.249 58.249 0 0 1 4.84-23.45 61.001 61.001 0 0 1 32.14-31.95c7.38-3.18 15.34-4.8 23.38-4.73zm0 14.23c-11.18-.07-22 3.94-30.44 11.27a45 45 0 0 0-14.92 28.21c.49-1.16 1.15-2.25 1.94-3.21a4.822 4.822 0 0 1 3.97-1.78h83.37a44.471 44.471 0 0 0-16.43-25.6c-3.9-2.96-8.28-5.23-12.94-6.72s-9.52-2.22-14.41-2.17h-.15zm-414.47 151.48v159.48h-14.2V331.33zm33.3 59.62c1.01-1.29 2.12-2.5 3.32-3.61 1.12-1.14 2.34-2.21 3.6-3.21 1.2-1.07 2.49-2.03 3.86-2.89 4.48-2.66 9.24-4.83 14.2-6.46a54.093 54.093 0 0 1 17.18-2.46c5.41-.13 10.81.68 15.93 2.46 4.3 1.56 8.3 3.9 11.78 6.9a36.94 36.94 0 0 1 8.14 10.21c2.18 4.01 3.9 8.25 5.12 12.65 1.27 4.56 2.15 9.22 2.66 13.93.52 4.68.79 9.38.8 14.09v58.32h-12c-.58-.87-1.08-1.79-1.51-2.74-.62-1.56-.9-3.24-.83-4.92v-5.37a57.1 57.1 0 0 1-10.27 6.86c-3.46 1.86-7.08 3.4-10.81 4.63a55.474 55.474 0 0 1-10.41 2.45c-3.16.48-6.35.72-9.54.72h-1.66a46.23 46.23 0 0 1-14.41-2.59c-4.37-1.52-8.44-3.8-12-6.75-3.45-2.86-6.27-6.4-8.29-10.4a30.151 30.151 0 0 1-3.02-13.62 33.824 33.824 0 0 1 3.21-14.91c2.26-4.57 5.64-8.49 9.84-11.38a49.4 49.4 0 0 1 16.46-7.22c7.7-1.77 15.6-2.6 23.5-2.46 2.66 0 5.47 0 8.46.36s5.8.47 8.4.79 4.83.57 6.78.87l3.6.57c-.34-6.69-1.55-13.3-3.6-19.68a35.58 35.58 0 0 0-6.84-12.06 20.91 20.91 0 0 0-9.22-6.07 37.51 37.51 0 0 0-22.2 0c-3.5 1.2-6.84 2.85-9.95 4.91l-3.6 2.27a9.523 9.523 0 0 1-5.12 1.2 14.4 14.4 0 0 1-8.86-3.37l-2.66-2.03zm29.54 87.29c3.29-.05 6.57-.38 9.8-1 7.58-1.5 14.95-3.88 21.98-7.08 3.7-1.64 7.3-3.48 10.81-5.48v-25.53l-3.61-.44c-2.2-.28-4.41-.47-6.63-.57l-8.4-.43c-2.98 0-5.87-.23-8.61-.23-5.21-.03-10.43.32-15.6 1.06-4.24.58-8.37 1.79-12.24 3.61a20.58 20.58 0 0 0-8.11 6.68 17.684 17.684 0 0 0-2.95 10.4c.01 2.5.6 4.97 1.72 7.22 1.19 2.35 2.86 4.41 4.91 6.07 2.14 1.78 4.59 3.17 7.21 4.08 3.02 1 6.19 1.52 9.37 1.52l.36.13zm86.48 12.57V331.43h14.2v57.09c3.24-3.38 6.87-6.36 10.8-8.88 3.13-2 6.46-3.64 9.95-4.92 2.9-1.07 5.94-1.78 9.01-2.09 2.67-.24 5.35-.36 8.03-.36a55.526 55.526 0 0 1 41.15 17.62 60.26 60.26 0 0 1 12.07 19.14 64.583 64.583 0 0 1 0 46.95 59.688 59.688 0 0 1-12.07 19.1 57.18 57.18 0 0 1-18.26 12.93 55.501 55.501 0 0 1-22.89 4.73c-2.51 0-5.19 0-7.99-.4-3.04-.33-6.04-.98-8.94-1.95a51.502 51.502 0 0 1-9.95-4.65 64.626 64.626 0 0 1-10.8-8.49v7c.08 1.43-.11 2.86-.55 4.22-.32.87-.71 1.66-1.11 2.49l-12.65-.16zm51.96-12.3c6.07.07 12.08-1.24 17.58-3.84 5.19-2.48 9.85-5.94 13.73-10.19 3.86-4.3 6.9-9.3 8.93-14.73 2.1-5.51 3.17-11.34 3.14-17.23.02-6-1.04-11.96-3.14-17.58-2-5.44-5.04-10.45-8.93-14.74a43.302 43.302 0 0 0-13.73-10.11 41.076 41.076 0 0 0-17.58-3.61c-3.42 0-6.82.4-10.13 1.19-3.42.8-6.76 1.91-9.97 3.33a60.333 60.333 0 0 0-17.66 12.2v58.75c5.03 5.17 11.03 9.3 17.66 12.14 3.22 1.39 6.55 2.49 9.97 3.28 3.33.78 6.74 1.16 10.16 1.16l-.03-.03zm67.52-4.2l5.61-2.81c1.42-.73 3.01-1.1 4.61-1.07 1.3 0 2.59.16 3.86.44 1.75.53 3.41 1.38 4.89 2.46 4.55 3.18 9.98 4.87 15.53 4.84 3.09 0 6.15-.43 9.12-1.3 2.97-.8 5.79-2.13 8.33-3.88 2.5-1.71 4.6-3.96 6.15-6.56 1.67-2.86 2.57-6.11 2.59-9.42-.11-2.16-.53-4.29-1.26-6.32-.78-2.05-2-3.9-3.6-5.41a31.902 31.902 0 0 0-7.21-4.91 89.415 89.415 0 0 0-11.32-4.81l-2.45-.8c-3.85-1.34-7.67-2.73-11.46-4.25-3.67-1.47-7.1-3.47-10.2-5.92a27.714 27.714 0 0 1-7.21-9.06 30.023 30.023 0 0 1-2.85-13.8c-.05-4.2.96-8.35 2.95-12.06 1.92-3.49 4.55-6.55 7.71-8.96 3.18-2.43 6.76-4.29 10.59-5.49 3.77-1.23 7.69-1.95 11.64-2.14h1c3.7.11 7.35.83 10.81 2.14a44.46 44.46 0 0 1 8.72 4.44c2.39 1.56 4.63 3.34 6.67 5.31 1.87 1.82 3.6 3.37 4.61 4.63l-2.09 1.78c-1.2 1.03-2.49 1.92-3.86 2.7a7.47 7.47 0 0 1-7.21.51c-.94-.39-1.86-.83-2.74-1.34-.94-.51-1.87-1.08-2.81-1.66a31.5 31.5 0 0 0-2.99-1.7c-1.74-.95-3.61-1.62-5.55-1.99-4.37-.88-8.9-.43-13.01 1.3a19.1 19.1 0 0 0-5.84 3.84c-1.4 1.3-2.52 2.87-3.28 4.63-.6 1.26-.95 2.64-1 4.04-.11 2.73.55 5.41 1.91 7.77 1.32 2.14 3.07 3.96 5.15 5.39 2.25 1.52 4.67 2.81 7.21 3.78 2.7 1.02 5.44 2.03 8.25 3.01l1.12.32c4.24 1.4 8.38 3.03 12.43 4.91 3.89 1.84 7.53 4.18 10.8 6.98 3.14 2.7 5.72 5.99 7.61 9.68 2.02 4.14 3.02 8.7 2.91 13.31.02 4.72-1.05 9.38-3.13 13.62a35.8 35.8 0 0 1-8.61 11.3 41.192 41.192 0 0 1-12.86 7.74 44.333 44.333 0 0 1-15.83 2.85c-6.78.02-13.47-1.61-19.49-4.73a40.06 40.06 0 0 1-14.99-13.29zm-921.43-141.99c-1.55.4-3.11.72-4.69.94 1.67.21 3.32.53 4.95.98l4.53 1.23c1.3.36 2.63.8 3.89 1.26l96.36 48.79 35.34 18.05 46.63 23.59c4.26 2.17 8.15 5.01 11.52 8.42 3.49 3.52 6.52 7.47 9.01 11.76 2.53 4.26 4.5 8.82 5.91 13.58 1.5 4.67 2.25 9.54 2.23 14.44v6.55l-82.23-41.51-11.71-5.92-29.1-14.73-6.71-3.4-94.98-47.92c-5.64-2.74-11.11-5.82-16.39-9.21a34.055 34.055 0 0 1-8.54-8.05 17.323 17.323 0 0 1-3.28-8.42c-.34-3.79-.5-7.6-.47-11.4v-1.31c-.04-3.81.11-7.62.47-11.4.36-2.67 1.5-5.2 3.28-7.22 2.43-2.61 5.33-4.75 8.54-6.28 3.85-2.01 9.33-4.52 16.39-7.66l95.09-48.22 6.67-3.4 29.12-14.66 11.67-5.88 82.19-41.6v6.58c-.01 4.89-.78 9.76-2.23 14.44a67.258 67.258 0 0 1-5.91 14.09 58.223 58.223 0 0 1-9.01 12.31c-3.32 3.5-7.22 6.39-11.52 8.56l-46.23 23.15-35.32 17.66-96.7 48.65a35.838 35.838 0 0 1-8.76 3.1M276.91 475.61v46.01H0v-16.51a60.706 60.706 0 0 1 13.98-39.72l199.08-275.87H15.07v-46.04h262.16v15.81a58.263 58.263 0 0 1-10.59 35.79L61.26 480.38c1.14-.83 2.34-1.55 3.61-2.17 1.19-.47 2.85-1.02 4.89-1.63 2.46-.63 5-.94 7.54-.9l199.61-.08z" fill="#fff"/><path d="M1447.61 441.63c-43.2 40.21-106.15 50.92-160.21 27.27a148.433 148.433 0 0 1-64.78-54.85c-32.31-49.48-32.31-113.38 0-162.86a148.48 148.48 0 0 1 64.78-54.83c54.07-23.66 117.02-12.95 160.21 27.27l35.67-18.07 6.56-3.28c-2.15-2.5-4.4-4.91-6.75-7.22a192.839 192.839 0 0 0-39.23-30.41 198.21 198.21 0 0 0-46.29-19.65 192.307 192.307 0 0 0-126.79 8.27 194.16 194.16 0 0 0-103.24 99.91 194.878 194.878 0 0 0-6.46 143.7 194.3 194.3 0 0 0 93.84 108.81 193.603 193.603 0 0 0 142.78 14.4 198.355 198.355 0 0 0 46.31-19.65 191.627 191.627 0 0 0 39.23-30.36c2.46-2.31 4.59-4.69 6.74-7.22l-6.59-3.33-35.77-17.91zM355.1 37.05a37.134 37.134 0 0 1 16.38-30.73c16.92-11.41 39.88-6.94 51.29 9.97 2.7 4 4.59 8.5 5.56 13.23a37.149 37.149 0 0 1-9.71 33.46c-14.44 14.61-37.99 14.74-52.59.31-3.4-3.36-6.13-7.35-8.02-11.75a36.267 36.267 0 0 1-2.91-14.45zm59.48 483.96h-45.86V143.49h45.86zm153.89-377.52c1.34 2.71 2.41 5.53 3.25 8.45a61.012 61.012 0 0 1 1.43 16v32.75c8.54-10.47 18.29-19.9 29.05-28.07a175.191 175.191 0 0 1 66.97-31.35c11.27-2.58 22.79-3.9 34.36-3.96 19.11-.32 38.05 3.67 55.41 11.66a116.663 116.663 0 0 1 41.72 33.45 157.205 157.205 0 0 1 26.52 52.66c6.48 22.42 9.62 45.69 9.33 69.04V520.8h-45.69V304.11c0-38.5-7.47-68.28-22.4-89.3-14.95-21.01-37.96-31.49-69.04-31.41a167.83 167.83 0 0 0-48.79 6.82 137.28 137.28 0 0 0-39.44 18.71 98.903 98.903 0 0 0-27 27.51 67.758 67.758 0 0 0-11.23 32.9v251.6h-45.69V143.49h41.25zm394.9 377.45V185.88h-67.81V159.3c0-11.03 14.6-16.54 43.78-16.54h24.04V96.75c-.15-12.79 1.96-25.51 6.23-37.56a86.104 86.104 0 0 1 18.02-29.5 81.782 81.782 0 0 1 28.34-19.42 94.918 94.918 0 0 1 37.07-7c6.14.07 12.24.68 18.27 1.84 6.82 1.22 13.53 2.91 20.11 5.05 6.71 2.22 13.27 4.89 19.64 7.98 5.91 2.78 11.6 5.99 17.04 9.6l-7.53 10.83c-3.12 4.5-7.36 8.11-12.3 10.48a45.358 45.358 0 0 1-16.82 2.46 97.618 97.618 0 0 1-24.9-4.48l-3.96-.72c-1.42-.25-2.85-.43-4.29-.53-1.62 0-3.42-.19-5.37-.19a37.146 37.146 0 0 0-18.81 4.69c-5.35 3.1-10 7.29-13.65 12.29a57.407 57.407 0 0 0-8.44 16.64 59.29 59.29 0 0 0-2.89 17.73v46.59h105.11v42.4h-104.98v335.02h-45.9z" fill="#28a8e0"/></svg>