<svg height="2500" viewBox="0 0 192.756 192.756" width="2500" xmlns="http://www.w3.org/2000/svg"><g clip-rule="evenodd" fill-rule="evenodd"><path d="m0 0h192.756v192.756h-192.756z" fill="#fff"/><path d="m36.429 96.506c0 33.734 27.318 61.053 61.235 61.053 33.736 0 61.053-27.318 61.053-61.053 0-33.918-27.316-61.236-61.053-61.236-33.917 0-61.235 27.318-61.235 61.236z" fill="#fff"/><g><path d="m57.33 69.188 5.501-1.1c19.067-4.033 30.434-2.016 33.184 2.567 3.667 4.034 7.149 11.733 1.649 22.001l28.42-36.669c.549-1.467.916-2.567.732-3.117-.367-4.033-4.033-5.316-10.818-3.849l-56.835 15.767c-2.567.55-6.05 2.75-5.684 3.667v.183c.367.734 2.018.917 3.851.55zm76.453 52.253c-1.834.365-3.666.732-5.5 1.1-19.068 3.85-30.436 2.018-33.186-2.566-3.667-4.033-7.15-11.734-1.65-22.002l-28.234 36.484c-.733 1.65-1.1 2.566-.917 3.301.55 3.85 4.034 5.133 10.817 3.85l56.835-15.766c2.75-.551 6.051-2.75 5.684-3.668v-.184c-.366-.732-1.831-.916-3.849-.549z" fill="#fff"/><path d="m134.516 27.204c.551.367.918.367 1.65 1.1 5.867 4.583 11.734 12.101-2.934 6.051-.367-.184-1.648-.551-2.199-.917-.367-.184-4.4-2.566-11.918-4.95-7.334-2.567-18.518-4.583-31.535-2.75-13.017 1.649-27.684 7.7-39.417 19.067-11.917 11-20.168 27.317-21.818 44.552-1.833 17.05 3.117 34.651 12.467 47.851 9.167 13.385 22.185 22.002 34.285 26.402 24.75 8.617 42.536 1.467 42.168 2.016-.184-.184 11.184-2.016 23.834-10.633 12.834-8.25 24.936-24.568 29.15-40.152 3.668-13.018 3.117-22.183 2.934-27.318-.365-5.317-.365-6.6.367-5.317 1.1 2.567 4.766 17.418.184 34.836.732-2.018-3.852 19.982-20.168 35.385-7.699 7.883-17.416 13.75-25.301 16.867-7.699 3.115-13.383 4.033-13.383 4.217 0 0-4.584 1.1-12.652 1.467-8.066.182-19.983-.551-32.817-5.867s-26.768-15.4-36.118-30.252c-9.533-14.666-14.3-33.734-11.917-52.252 2.199-18.7 11.734-36.118 24.751-48.035 13.017-12.1 28.967-18.333 43.083-20.166 14.119-1.834 26.218.549 34.287 3.116 8.067 2.748 12.466 5.498 13.017 5.682z" fill="#244d6b"/></g></g></svg>