<svg clip-rule="evenodd" fill-rule="evenodd" height="2428" image-rendering="optimizeQuality" shape-rendering="geometricPrecision" text-rendering="geometricPrecision" viewBox=".679 .008 14.446 15.14488834" width="2500" xmlns="http://www.w3.org/2000/svg"><rect fill="#2c265c" height="8.403" rx=".573" width="7.641" x="8.031" y="5.618"/><path d="m11.174 10.208h-.502l.028 1.663c.005.302-.066.526-.198.669a.67.67 0 0 1 -.517.215c-.227 0-.405-.075-.53-.225s-.186-.369-.188-.659l-.027-4.874c-.002-.312.07-.54.208-.68s.362-.21.67-.21h2.33c.321 0 .596.014.825.042.229.027.435.084.617.169a1.777 1.777 0 0 1 .977 1.02c.089.23.133.478.133.74 0 .534-.148.96-.446 1.28s-.75.545-1.354.678c.254.137.498.34.73.608a6.628 6.628 0 0 1 1.044 1.668c.1.244.151.41.151.5a.52.52 0 0 1 -.088.283.64.64 0 0 1 -.244.22.768.768 0 0 1 -.358.08.688.688 0 0 1 -.405-.115 1.118 1.118 0 0 1 -.281-.29c-.08-.117-.186-.29-.321-.52l-.575-.967a5.364 5.364 0 0 0 -.552-.81 1.37 1.37 0 0 0 -.495-.381 1.67 1.67 0 0 0 -.631-.104zm.82-3.011h-1.322v1.97h1.283c.344 0 .634-.03.869-.09.234-.06.413-.163.537-.309.123-.145.186-.343.186-.598a.93.93 0 0 0 -.15-.526.897.897 0 0 0 -.415-.34c-.166-.072-.496-.107-.988-.107z" fill="#fbe14d" fill-rule="nonzero"/><rect fill="#2c265c" height="8.403" rx=".447" width="7.641" x=".007" y="5.618"/><rect fill="#2c265c" height=".968" rx="1.8" width="15.698" y="14.277"/><g fill-rule="nonzero"><path d="m13.34 14.896a.236.236 0 0 1 -.146.222.412.412 0 0 1 -.172.032.386.386 0 0 1 -.196-.044.262.262 0 0 1 -.089-.087.195.195 0 0 1 -.034-.105.07.07 0 0 1 .02-.05.07.07 0 0 1 .053-.021c.017 0 .032.005.044.016a.132.132 0 0 1 .03.049c.01.026.021.047.033.064a.136.136 0 0 0 .05.042c.022.011.05.017.085.017a.191.191 0 0 0 .117-.034.101.101 0 0 0 .046-.084.089.089 0 0 0 -.025-.064.156.156 0 0 0 -.063-.038 1.083 1.083 0 0 0 -.103-.028.766.766 0 0 1 -.145-.048.234.234 0 0 1 -.092-.074.191.191 0 0 1 -.034-.116.2.2 0 0 1 .036-.118.23.23 0 0 1 .104-.079.427.427 0 0 1 .161-.027.4.4 0 0 1 .128.018.269.269 0 0 1 .09.049c.023.02.04.041.052.064.01.022.016.043.016.065 0 .019-.007.036-.02.052a.066.066 0 0 1 -.052.023c-.018 0-.032-.004-.042-.014a.181.181 0 0 1 -.032-.045.21.21 0 0 0 -.052-.071c-.02-.017-.054-.026-.099-.026a.17.17 0 0 0 -.101.028c-.026.018-.039.04-.039.066 0 .016.004.03.013.042a.11.11 0 0 0 .037.03.25.25 0 0 0 .046.02l.078.02c.045.011.086.023.122.036a.367.367 0 0 1 .094.046.19.19 0 0 1 .06.07.222.222 0 0 1 .022.102zm.247.254a.085.085 0 0 1 -.059-.021.078.078 0 0 1 -.024-.062.08.08 0 0 1 .023-.057c.016-.016.035-.024.058-.024s.043.007.06.023a.078.078 0 0 1 .023.058.078.078 0 0 1 -.024.061.083.083 0 0 1 -.057.022zm.483-.73v.583h.33c.026 0 .046.007.06.02a.062.062 0 0 1 .021.047c0 .02-.007.036-.02.048-.014.013-.035.019-.061.019h-.393c-.035 0-.06-.008-.076-.024-.016-.015-.023-.04-.023-.076v-.618c0-.032.007-.057.022-.074a.075.075 0 0 1 .058-.024c.024 0 .044.008.06.024.014.016.022.041.022.074zm.668.73a.085.085 0 0 1 -.058-.021.078.078 0 0 1 -.025-.062.08.08 0 0 1 .024-.057c.016-.016.035-.024.058-.024s.043.007.059.023a.078.078 0 0 1 .024.058.078.078 0 0 1 -.024.061.083.083 0 0 1 -.058.022z" fill="#fbe14d"/><path d="m6.203 3.385h-.002c-.27-.507-.406-1.01-.406-1.508 0-.494.15-.886.449-1.18.299-.296.697-.444 1.195-.444.45 0 .81.124 1.074.373.27.248.403.553.403.914 0 .379-.143.722-.428 1.033-.285.306-.683.558-1.192.755.402.706.865 1.403 1.388 2.094l-.002.002c.135-.154.319-.44.553-.86.237-.422.355-.755.355-1a.388.388 0 0 0 -.104-.271c-.068-.079-.186-.131-.355-.159v-.264h2.068v.265c-.316 0-.556.117-.716.352a8.864 8.864 0 0 0 -.495.818c-.273.49-.598.982-.98 1.477v-.002c.36.382.67.63.927.746.26.117.488.174.687.174a.99.99 0 0 0 .479-.127c.162-.085.315-.218.46-.4l.175.125c-.199.444-.436.765-.71.959-.274.19-.573.286-.899.286-.285 0-.556-.056-.815-.17-.257-.111-.605-.374-1.042-.791-.444.378-.847.635-1.211.767a3.301 3.301 0 0 1 -1.11.194c-.612 0-1.084-.147-1.418-.44-.333-.296-.5-.7-.5-1.215s.174-.968.52-1.359c.351-.396.902-.776 1.652-1.144zm.148.454h.002c-.403.218-.706.477-.909.777-.199.295-.299.59-.299.883 0 .425.141.765.423 1.017.281.252.588.378.919.378.206 0 .438-.05.695-.153.257-.102.5-.274.727-.517a11.059 11.059 0 0 1 -1.558-2.384zm.796-.94c.378-.18.66-.394.847-.644.184-.251.278-.51.278-.77a.951.951 0 0 0 -.212-.637.654.654 0 0 0 -.52-.254.71.71 0 0 0 -.548.254c-.148.171-.222.426-.222.763 0 .402.125.831.377 1.287z" fill="#201e1c"/><path d="m6.476 3.14h-.002c-.271-.507-.407-1.01-.407-1.508 0-.494.15-.886.45-1.179.299-.296.696-.445 1.195-.445.45 0 .81.124 1.074.373.269.248.403.553.403.914 0 .379-.143.722-.428 1.033-.285.307-.683.558-1.192.755.401.706.864 1.404 1.387 2.094l-.001.002c.135-.153.318-.44.552-.86.238-.422.356-.755.356-1a.388.388 0 0 0 -.104-.271c-.069-.079-.187-.13-.356-.159v-.265h2.069v.265c-.317 0-.556.117-.717.353a8.862 8.862 0 0 0 -.494.817c-.273.49-.599.982-.98 1.477v-.001c.36.382.67.631.927.746.259.117.488.175.687.175a.99.99 0 0 0 .478-.128c.162-.085.316-.218.46-.4l.176.125c-.199.444-.437.765-.711.959-.273.19-.572.286-.898.286-.285 0-.556-.056-.815-.17-.257-.11-.606-.374-1.042-.791-.444.378-.847.635-1.212.767a3.3 3.3 0 0 1 -1.109.194c-.612 0-1.084-.147-1.419-.44-.332-.296-.5-.7-.5-1.215s.175-.968.522-1.359c.35-.396.9-.776 1.65-1.144zm.148.454h.001c-.403.218-.706.478-.908.778-.199.294-.3.589-.3.882 0 .426.142.766.423 1.017.282.253.588.378.92.378a2.021 2.021 0 0 0 1.422-.67 11.062 11.062 0 0 1 -1.558-2.385zm.795-.94c.379-.18.66-.394.847-.644.185-.25.278-.509.278-.77a.951.951 0 0 0 -.21-.635.655.655 0 0 0 -.522-.255.71.71 0 0 0 -.548.255c-.147.17-.221.425-.221.762 0 .403.125.832.376 1.287z" fill="#fff"/></g><path d="m6.476 3.14h-.002c-.271-.507-.407-1.01-.407-1.508 0-.494.15-.886.45-1.179.299-.296.696-.445 1.195-.445.45 0 .81.124 1.074.373.269.248.403.553.403.914 0 .379-.143.722-.428 1.033-.285.307-.683.558-1.192.755.401.706.864 1.404 1.387 2.094l-.001.002c.135-.153.318-.44.552-.86.238-.422.356-.755.356-1a.388.388 0 0 0 -.104-.271c-.069-.079-.187-.13-.356-.159v-.265h2.069v.265c-.317 0-.556.117-.717.353a8.862 8.862 0 0 0 -.494.817c-.273.49-.599.982-.98 1.477v-.001c.36.382.67.631.927.746.259.117.488.175.687.175a.99.99 0 0 0 .478-.128c.162-.085.316-.218.46-.4l.176.125c-.199.444-.437.765-.711.959-.273.19-.572.286-.898.286-.285 0-.556-.056-.815-.17-.257-.11-.606-.374-1.042-.791-.444.378-.847.635-1.212.767a3.3 3.3 0 0 1 -1.109.194c-.612 0-1.084-.147-1.419-.44-.332-.296-.5-.7-.5-1.215s.175-.968.522-1.359c.35-.396.9-.776 1.65-1.144zm.148.454h.001c-.403.218-.706.478-.908.778-.199.294-.3.589-.3.882 0 .426.142.766.423 1.017.282.253.588.378.92.378a2.021 2.021 0 0 0 1.422-.67 11.062 11.062 0 0 1 -1.558-2.385zm.795-.94c.379-.18.66-.394.847-.644.185-.25.278-.509.278-.77a.951.951 0 0 0 -.21-.635.655.655 0 0 0 -.522-.255.71.71 0 0 0 -.548.255c-.147.17-.221.425-.221.762 0 .403.125.832.376 1.287z" fill="none" stroke="#1f1a17" stroke-width=".017"/><path d="m5.442 11.787-.068-.226h-2.876l-.337.92c-.133.358-.245.6-.34.725-.092.125-.245.189-.457.189a.669.669 0 0 1 -.478-.2.618.618 0 0 1 -.207-.456c0-.097.016-.198.048-.302.033-.105.085-.25.16-.435l1.81-4.653c.05-.134.113-.294.185-.48.073-.19.148-.344.23-.468a.957.957 0 0 1 .325-.3.977.977 0 0 1 .494-.115c.2 0 .366.038.5.115a.978.978 0 0 1 .323.295c.081.12.151.25.208.389.057.138.123.325.214.554l1.578 3.95c.141.354.217.608.217.768 0 .165-.069.317-.205.456a.67.67 0 0 1 -.494.208.589.589 0 0 1 -.492-.227 1.554 1.554 0 0 1 -.177-.323 15.42 15.42 0 0 1 -.161-.384zm-2.568-1.315h2.114l-1.067-2.956z" fill="#fbe14d" fill-rule="nonzero"/></svg>