<svg height="1923" viewBox="0 .01 297.33 228.68" width="2500" xmlns="http://www.w3.org/2000/svg" xmlns:xlink="http://www.w3.org/1999/xlink"><linearGradient id="a" gradientUnits="userSpaceOnUse" x1="65.04" x2="147.02" y1="-53.74" y2="31.66"><stop offset="0" stop-color="#621127"/><stop offset="1" stop-color="#96145b"/></linearGradient><linearGradient id="b" x1="65.36" x2="147.34" xlink:href="#a" y1="27.78" y2="113.18"/><linearGradient id="c" gradientTransform="matrix(0 1 -1 0 3472.16 -6871.12)" x1="6861.46" x2="6943.45" xlink:href="#a" y1="3195.82" y2="3281.22"/><linearGradient id="d" gradientTransform="matrix(0 1 -1 0 3472.16 -6871.12)" x1="6861.78" x2="6943.76" xlink:href="#a" y1="3277.33" y2="3362.73"/><linearGradient id="e" x1="4.74" x2="4.74" xlink:href="#a" y1="206.53" y2="228.81"/><linearGradient id="f" x1="30.5" x2="30.5" xlink:href="#a" y1="206.53" y2="228.81"/><linearGradient id="g" x1="56.61" x2="56.61" xlink:href="#a" y1="206.53" y2="228.81"/><linearGradient id="h" x1="83.76" x2="83.76" xlink:href="#a" y1="206.53" y2="228.81"/><linearGradient id="i" x1="111.76" x2="111.76" xlink:href="#a" y1="206.53" y2="228.81"/><linearGradient id="j" x1="139.91" x2="139.91" xlink:href="#a" y1="206.53" y2="228.81"/><linearGradient id="k" x1="166.63" x2="166.63" xlink:href="#a" y1="206.53" y2="228.81"/><linearGradient id="l" x1="192.38" x2="192.38" xlink:href="#a" y1="206.53" y2="228.81"/><linearGradient id="m" x1="219.67" x2="219.67" xlink:href="#a" y1="206.53" y2="228.81"/><linearGradient id="n" x1="243.69" x2="243.69" xlink:href="#a" y1="206.53" y2="228.81"/><linearGradient id="o" x1="267.13" x2="267.13" xlink:href="#a" y1="206.53" y2="228.81"/><linearGradient id="p" x1="292.58" x2="292.58" xlink:href="#a" y1="206.53" y2="228.81"/><g fill-rule="evenodd"><path d="m120.58 46.27c6.97 6.97 18.48 6.97 25.45 0l2.81-2.81 2.45 2.45c7 7 18.46 6.99 25.45 0 6.97-6.97 6.96-18.49 0-25.45l-7.16-7.16-8.05-8.04c-3.5-3.5-8.12-5.25-12.72-5.25s-9.23 1.75-12.73 5.25c-.29.29-.56.58-.82.88l-4.56 4.56-.04.04-3.93 3.94-3.37 3.37-1.16 1.16-.18.18-1.44 1.43c-6.99 7-6.99 18.46 0 25.45zm50.34-24.89 2.45 2.45c5.12 5.12 5.12 13.6 0 18.71-5.15 5.15-13.56 5.15-18.71 0l-2.45-2.45zm-46.97 2.81 2.78-2.78c5.13 5.13 13.45 13.34 18.55 18.44l3.37-3.37-9.2-9.15a13.19 13.19 0 0 1 -3.87-9.35h.01c0-3.06 1.05-6.13 3.15-8.59l.41-.41c2.57-2.57 5.96-3.86 9.35-3.86s6.79 1.29 9.36 3.86 3.86 5.96 3.86 9.36-1.25 6.68-3.74 9.23l-15.33 15.33c-5.12 5.12-13.59 5.12-18.71 0-5.15-5.15-5.15-13.57 0-18.71z" fill="url(#a)"/><path d="m176.72 101.63c-6.97-6.97-18.49-6.97-25.45 0l-2.81 2.81-2.45-2.45c-7-7-18.45-6.99-25.45 0-6.97 6.97-6.97 18.49 0 25.46l1.63 1.62.82.83 4.65 4.65 8.1 8.1c3.5 3.5 8.12 5.25 12.73 5.25s9.23-1.75 12.73-5.25c.29-.29.56-.58.83-.89l7.77-7.77 4.13-4.13.5-.5.07-.07 2.21-2.21c7-7 7-18.45 0-25.45zm-50.34 24.89-2.45-2.45c-5.12-5.12-5.12-13.6 0-18.71 5.15-5.15 13.56-5.15 18.71 0l2.45 2.45c-6.24 6.24-12.47 12.48-18.71 18.71zm46.97-2.81-2.78 2.78-18.86-18.06c-1.12 1.14-2.27 2.27-3.4 3.4l9.54 8.74c2.57 2.58 3.87 5.97 3.87 9.35 0 3.07-1.05 6.13-3.15 8.59l-.41.41c-2.57 2.57-5.96 3.86-9.35 3.86s-6.78-1.29-9.35-3.86-3.85-5.96-3.85-9.35 1.29-6.79 3.85-9.36l15.21-15.21c5.12-5.12 13.59-5.12 18.71 0 5.15 5.15 5.15 13.56 0 18.71z" fill="url(#b)"/><path d="m176.33 45.88c-6.97 6.97-6.97 18.48 0 25.45l2.81 2.81-2.45 2.45c-7 7-6.99 18.46 0 25.46 6.97 6.97 18.48 6.97 25.45 0l7.16-7.16 8.04-8.04c3.5-3.5 5.25-8.12 5.25-12.72s-1.75-9.23-5.25-12.73c-.28-.29-.58-.56-.88-.83l-4.56-4.56-.04-.04-3.93-3.93-3.37-3.37-1.16-1.16-.18-.18-1.43-1.44c-7-7-18.46-7-25.45 0zm24.89 50.34-2.45 2.45c-5.12 5.12-13.6 5.12-18.71 0-5.15-5.15-5.15-13.57 0-18.71l2.45-2.45zm-2.81-46.97 2.78 2.78c-5.13 5.13-13.34 13.45-18.44 18.55l3.37 3.37 9.15-9.2a13.19 13.19 0 0 1 9.35-3.87c3.06.01 6.13 1.06 8.59 3.16l.41.41c2.57 2.57 3.86 5.96 3.86 9.35s-1.29 6.79-3.86 9.36-5.96 3.86-9.36 3.86-6.68-1.25-9.23-3.74l-15.33-15.33c-5.12-5.12-5.12-13.59 0-18.71 5.15-5.15 13.56-5.15 18.71 0z" fill="url(#c)"/><path d="m120.97 102.02c6.97-6.97 6.97-18.49 0-25.45l-2.81-2.81 2.45-2.45c7-7 6.99-18.45 0-25.45-6.97-6.97-18.49-6.97-25.46 0l-1.62 1.63-.82.83-4.65 4.65-8.1 8.1c-3.5 3.5-5.25 8.12-5.25 12.73s1.75 9.23 5.25 12.73c.29.29.58.56.89.83l7.77 7.77 4.13 4.13.5.5.07.07 2.21 2.21c7 7 18.45 7 25.45 0zm-24.89-50.34 2.45-2.45c5.12-5.12 13.6-5.12 18.71 0 5.14 5.15 5.14 13.56 0 18.71l-2.45 2.45c-6.24-6.24-12.48-12.47-18.71-18.71zm2.81 46.97-2.78-2.78 18.06-18.86c-1.14-1.12-2.27-2.27-3.4-3.4l-8.74 9.54a13.232 13.232 0 0 1 -9.35 3.87c-3.07 0-6.13-1.06-8.59-3.16l-.41-.41c-2.57-2.57-3.86-5.96-3.86-9.35s1.29-6.78 3.86-9.35 5.96-3.86 9.35-3.86 6.79 1.29 9.36 3.85l15.21 15.21c5.12 5.12 5.12 13.59 0 18.71-5.15 5.15-13.56 5.15-18.71 0z" fill="url(#d)"/></g><path d="m6.01 219.39v9.17h-2.56v-9.17h-3.45v-2.17h9.48v2.17z" fill="url(#e)"/><path d="m28.65 219.34v2.46h5.48v2.12h-5.48v2.51h6.26v2.12h-8.82v-11.35h8.64v2.12h-6.08z" fill="url(#f)"/><path d="m61.86 219.02-1.49 1.82c-.78-.89-1.9-1.47-2.95-1.47-1.94 0-3.45 1.51-3.45 3.48s1.51 3.5 3.45 3.5c1.02 0 2.14-.52 2.95-1.33l1.51 1.64c-1.2 1.23-2.93 2.03-4.59 2.03-3.39 0-5.95-2.51-5.95-5.8s2.61-5.74 6.05-5.74c1.64 0 3.35.73 4.47 1.88z" fill="url(#g)"/><path d="m86.33 228.56v-4.47h-5.14v4.47h-2.56v-11.35h2.56v4.73h5.14v-4.73h2.56v11.35z" fill="url(#h)"/><path d="m114.56 228.56-5.49-7.28v7.28h-2.45v-11.35h2.33l5.51 7.29v-7.29h2.43v11.35z" fill="url(#i)"/><path d="m146 222.89c0 3.27-2.63 5.79-6.09 5.79s-6.09-2.5-6.09-5.79 2.63-5.75 6.09-5.75 6.09 2.46 6.09 5.75zm-9.56 0c0 1.99 1.6 3.55 3.5 3.55s3.44-1.56 3.44-3.55-1.54-3.52-3.44-3.52-3.5 1.52-3.5 3.52z" fill="url(#j)"/><path d="m170.34 226.33v2.24h-7.42v-11.35h2.56v9.11z" fill="url(#k)"/><path d="m198.48 222.89c0 3.27-2.63 5.79-6.09 5.79s-6.09-2.5-6.09-5.79 2.63-5.75 6.09-5.75 6.09 2.46 6.09 5.75zm-9.56 0c0 1.99 1.6 3.55 3.5 3.55s3.44-1.56 3.44-3.55-1.54-3.52-3.44-3.52-3.5 1.52-3.5 3.52z" fill="url(#l)"/><path d="m224.94 222.84v4.36c-1.2.88-3.03 1.48-4.6 1.48-3.44 0-6.05-2.5-6.05-5.79s2.66-5.75 6.19-5.75c1.69 0 3.4.65 4.55 1.65l-1.44 1.83c-.84-.78-2.01-1.26-3.11-1.26-2.01 0-3.57 1.54-3.57 3.53s1.57 3.55 3.58 3.55c.68 0 1.49-.24 2.22-.62v-2.98h2.22z" fill="url(#m)"/><path d="m242.41 228.56v-11.35h2.56v11.35z" fill="url(#n)"/><path d="m265.28 219.34v2.46h5.48v2.12h-5.48v2.51h6.26v2.12h-8.82v-11.35h8.64v2.12h-6.08z" fill="url(#o)"/><path d="m297.24 218.34-.99 2.12c-1.2-.71-2.63-1.17-3.53-1.17-.86 0-1.44.31-1.44.92 0 2.09 6.05.92 6.03 5.01 0 2.22-1.93 3.42-4.44 3.42-1.86 0-3.73-.71-5.01-1.8l1.02-2.09c1.17 1.04 2.82 1.7 4.02 1.7 1.05 0 1.69-.39 1.69-1.09 0-2.14-6.05-.89-6.05-4.91 0-2.06 1.77-3.35 4.39-3.35 1.59 0 3.18.49 4.31 1.23z" fill="url(#p)"/><g fill="#6d6e71"><path d="m25.14 188.91c0 1.56-.27 3-.81 4.29a9.528 9.528 0 0 1 -2.29 3.33c-.99.92-2.16 1.64-3.52 2.15s-2.86.76-4.49.76h-1.49c-1.74 0-3.34-.24-4.8-.71s-2.71-1.12-3.75-1.93c-1.04-.82-1.84-1.8-2.4-2.95s-.84-2.4-.84-3.75.25-2.53.76-3.65 1.33-2.09 2.48-2.92 2.66-1.48 4.53-1.95c1.88-.47 4.16-.71 6.87-.71h2.56v-.37c0-2.08-.51-3.5-1.53-4.27-1.02-.76-2.62-1.15-4.79-1.15-1.32 0-2.49.11-3.53.33s-1.94.51-2.71.85c-.76.35-1.41.72-1.93 1.12s-.92.76-1.19 1.08h-.27v-2.35c0-.8.19-1.63.57-2.48s1-1.64 1.85-2.35 1.96-1.28 3.33-1.72 3.01-.65 4.93-.65c1.65 0 3.23.21 4.72.63s2.81 1.13 3.96 2.15c1.15 1.01 2.06 2.37 2.75 4.07.68 1.7 1.03 3.82 1.03 6.36v6.77zm-7.15-2.77h-2.61c-1.39 0-2.54.08-3.47.24-.92.16-1.66.4-2.21.71s-.93.7-1.15 1.17c-.21.47-.32 1-.32 1.59 0 1.17.43 2.08 1.31 2.71.87.63 2.12.95 3.76.95 3.13 0 4.69-1.51 4.69-4.53v-2.83zm36.03 2.77c0 1.56-.27 3-.81 4.29a9.528 9.528 0 0 1 -2.29 3.33c-.99.92-2.16 1.64-3.52 2.15s-2.86.76-4.49.76h-1.49c-1.74 0-3.34-.24-4.8-.71s-2.71-1.12-3.75-1.93c-1.04-.82-1.84-1.8-2.4-2.95s-.84-2.4-.84-3.75.25-2.53.76-3.65 1.33-2.09 2.48-2.92 2.66-1.48 4.53-1.95c1.88-.47 4.16-.71 6.87-.71h2.56v-.37c0-2.08-.51-3.5-1.53-4.27-1.02-.76-2.62-1.15-4.79-1.15-1.32 0-2.49.11-3.53.33s-1.94.51-2.71.85c-.76.35-1.41.72-1.93 1.12s-.92.76-1.19 1.08h-.27v-2.35c0-.8.19-1.63.57-2.48s1-1.64 1.85-2.35 1.96-1.28 3.33-1.72 3.01-.65 4.93-.65c1.65 0 3.23.21 4.72.63s2.81 1.13 3.96 2.15c1.15 1.01 2.06 2.37 2.75 4.07.68 1.7 1.03 3.82 1.03 6.36v6.77zm-7.15-2.77h-2.61c-1.39 0-2.54.08-3.47.24-.92.16-1.66.4-2.21.71s-.93.7-1.15 1.17c-.21.47-.32 1-.32 1.59 0 1.17.44 2.08 1.31 2.71s2.12.95 3.76.95c3.13 0 4.69-1.51 4.69-4.53v-2.83zm36.94 12.82c-1.64 0-2.94-.45-3.91-1.36s-1.45-2.05-1.45-3.44v-11.68c0-2.52-.52-4.35-1.55-5.48s-2.5-1.69-4.4-1.69c-1.6 0-2.89.57-3.87 1.72s-1.47 2.78-1.47 4.89v17.04h-2.19c-1.56 0-2.81-.45-3.75-1.36-.93-.91-1.4-2.05-1.4-3.44v-12.72c0-1.56.27-3.1.8-4.61s1.33-2.86 2.4-4.05 2.44-2.15 4.12-2.87 3.67-1.08 5.96-1.08c1.74 0 3.38.28 4.91.84s2.87 1.4 4.01 2.51c1.15 1.11 2.06 2.48 2.73 4.09.68 1.62 1.01 3.47 1.01 5.55v17.15h-1.97zm11.68-39.33c1.8 0 3.08.46 3.87 1.37.78.92 1.17 2.08 1.17 3.51v17.57c1.42-1.85 2.85-3.68 4.29-5.51 1.44-1.82 3.01-3.55 4.72-5.19.87-.84 1.77-1.36 2.69-1.59.92-.22 1.97-.33 3.15-.33h4.21v.27c-.52.44-1.29 1.21-2.33 2.31-1.04 1.09-2.14 2.29-3.31 3.6s-2.32 2.64-3.47 3.99-2.1 2.52-2.87 3.49c1.17 1.46 2.35 2.92 3.53 4.37a64.67 64.67 0 0 0 3.72 4.21c.66.64 1.24 1.18 1.76 1.63.52.44.99.8 1.43 1.07.43.27.85.48 1.25.65s.81.32 1.24.47c-.39 1.17-.93 2.07-1.63 2.68-.69.61-1.8.92-3.33.92-.84 0-1.69-.18-2.56-.55-.87-.36-1.62-.86-2.24-1.48-1.9-1.96-3.68-3.99-5.33-6.11s-3.3-4.27-4.93-6.45v14.37l-2.35.05c-3.36.04-5.04-1.7-5.04-5.2v-34.14h2.35zm52.43 39.33c-1.53 0-2.74-.42-3.63-1.25-.89-.84-1.33-2.05-1.33-3.65v-12.03c0-1.19-.16-2.22-.47-3.08s-.73-1.56-1.27-2.08c-.53-.52-1.15-.92-1.85-1.17a6.41 6.41 0 0 0 -2.25-.39c-.59 0-1.19.12-1.81.36s-1.2.63-1.72 1.17-.95 1.25-1.28 2.13-.49 1.97-.49 3.27v16.72h-2.4c-1.76 0-3.04-.44-3.84-1.31s-1.2-2.07-1.2-3.6v-34.43h2.29c1.76 0 3.07.44 3.92 1.32s1.28 2.01 1.28 3.4v8.4c.25-.44.6-.89 1.05-1.35.45-.45.96-.87 1.51-1.25s1.16-.7 1.81-.95c.66-.25 1.33-.37 2.03-.37 3.82 0 6.79 1.1 8.89 3.29 2.11 2.2 3.16 5.39 3.16 9.59v17.25h-2.4zm18.35-35.89c0 1.17-.43 2.19-1.28 3.04s-1.87 1.28-3.04 1.28-2.16-.43-3-1.28-1.27-1.87-1.27-3.04.42-2.15 1.27-2.99c.84-.84 1.84-1.25 3-1.25s2.19.42 3.04 1.25c.85.84 1.28 1.83 1.28 2.99zm5.25 31.74c0 1.6-.34 2.74-1.01 3.41-.68.68-1.8 1.01-3.36 1.01-2.84 0-5.02-.78-6.53-2.35-1.51-1.56-2.27-3.84-2.27-6.83v-19.92h2.08c1.64 0 2.92.44 3.84 1.33s1.39 2.26 1.39 4.11v13.79c0 1.49.34 2.51 1.01 3.05.68.54 1.83.81 3.47.81h1.39v1.57z"/><path d="m184.32 198.75c0 1.53-.24 2.9-.73 4.12s-1.18 2.24-2.08 3.08-1.96 1.47-3.17 1.91c-1.22.44-2.54.65-3.96.65s-2.61-.32-3.47-.97c-.85-.65-1.28-1.44-1.28-2.36v-2.67c.25 0 .57 0 .97-.03.4-.02.8-.04 1.21-.08.43-.04.88-.07 1.36-.11 1.01-.07 1.9-.44 2.67-1.12.76-.68 1.15-1.72 1.15-3.15v-27.9h2.08c1.64 0 2.92.43 3.85 1.28s1.4 2.12 1.4 3.79v23.55zm.69-35.79c0 1.17-.41 2.19-1.23 3.04s-1.8 1.28-2.96 1.28-2.19-.43-3.04-1.28-1.28-1.87-1.28-3.04.43-2.15 1.28-2.99 1.87-1.25 3.04-1.25 2.14.42 2.96 1.25c.82.84 1.23 1.83 1.23 2.99zm30.91 36c-1.53 0-2.74-.42-3.63-1.25-.89-.84-1.33-2.05-1.33-3.65v-12.03c0-1.19-.16-2.22-.47-3.08s-.73-1.56-1.27-2.08c-.53-.52-1.15-.92-1.85-1.17a6.41 6.41 0 0 0 -2.25-.39c-.59 0-1.19.12-1.81.36s-1.2.63-1.72 1.17-.95 1.25-1.28 2.13-.49 1.97-.49 3.27v16.72h-2.4c-1.76 0-3.04-.44-3.84-1.31s-1.2-2.07-1.2-3.6v-34.43h2.29c1.76 0 3.07.44 3.92 1.32s1.28 2.01 1.28 3.4v8.4c.25-.44.6-.89 1.05-1.35.45-.45.96-.87 1.51-1.25s1.16-.7 1.81-.95c.66-.25 1.33-.37 2.03-.37 3.82 0 6.79 1.1 8.89 3.29 2.11 2.2 3.16 5.39 3.16 9.59v17.25h-2.4zm26.38-6.35c-1.39 3.25-2.63 5.91-3.72 7.96s-2.16 3.66-3.19 4.83c-1.03 1.16-2.08 1.97-3.16 2.43-1.08.45-2.27.68-3.59.68-1.39 0-2.59-.41-3.61-1.23s-1.53-1.92-1.53-3.31v-1.41l4.16-.27c.66-.04 1.22-.15 1.69-.33.47-.19.9-.48 1.28-.88s.75-.93 1.09-1.6c.35-.67.72-1.53 1.13-2.6-1-1.46-2.05-3.38-3.16-5.76s-2.16-4.89-3.16-7.53-1.87-5.22-2.61-7.73c-.75-2.52-1.25-4.64-1.52-6.39h3.89c1.01 0 1.93.31 2.75.93s1.32 1.46 1.52 2.51c.5 2.84 1.27 5.73 2.31 8.67 1.04 2.93 2.24 5.71 3.59 8.32a80.41 80.41 0 0 0 1.8-4.67c.61-1.72 1.19-3.51 1.72-5.35s.99-3.66 1.37-5.47c.38-1.8.66-3.45.84-4.95h3.17c1.16 0 2.02.28 2.59.83s.85 1.42.85 2.61c0 .52-.13 1.29-.39 2.33s-.59 2.2-.99 3.47-.85 2.62-1.36 4.04-1 2.78-1.48 4.07-.93 2.45-1.35 3.49-.73 1.81-.95 2.31zm33.92-3.7c0 1.56-.27 3-.81 4.29a9.528 9.528 0 0 1 -2.29 3.33c-.99.92-2.16 1.64-3.52 2.15s-2.86.76-4.49.76h-1.49c-1.74 0-3.34-.24-4.8-.71s-2.71-1.12-3.75-1.93c-1.04-.82-1.84-1.8-2.4-2.95s-.84-2.4-.84-3.75.25-2.53.76-3.65 1.33-2.09 2.48-2.92 2.66-1.48 4.53-1.95c1.88-.47 4.16-.71 6.87-.71h2.56v-.37c0-2.08-.51-3.5-1.53-4.27-1.02-.76-2.62-1.15-4.79-1.15-1.32 0-2.49.11-3.53.33s-1.94.51-2.71.85c-.76.35-1.41.72-1.93 1.12s-.92.76-1.19 1.08h-.27v-2.35c0-.8.19-1.63.57-2.48s1-1.64 1.85-2.35 1.96-1.28 3.33-1.72 3.01-.65 4.93-.65c1.65 0 3.23.21 4.72.63s2.81 1.13 3.96 2.15c1.15 1.01 2.06 2.37 2.75 4.07.68 1.7 1.03 3.82 1.03 6.36v6.77zm-7.15-2.77h-2.61c-1.39 0-2.54.08-3.47.24-.92.16-1.66.4-2.21.71s-.93.7-1.15 1.17c-.21.47-.32 1-.32 1.59 0 1.17.44 2.08 1.31 2.71s2.12.95 3.76.95c3.13 0 4.69-1.51 4.69-4.53v-2.83zm27.5 8.66c0 1.6-.41 2.74-1.23 3.41-.82.68-2.04 1.01-3.68 1.01-3.06 0-5.38-.78-6.97-2.35-1.59-1.56-2.39-3.84-2.39-6.83v-30.43h2.08c1.87 0 3.21.48 4.03 1.43s1.23 2.12 1.23 3.51v24.8c0 1.49.39 2.51 1.17 3.05s2.04.81 3.79.81h1.97v1.57z"/></g></svg>