<svg height="2500" viewBox="0 3.551 128 120.898" width="2500" xmlns="http://www.w3.org/2000/svg"><path d="m80.139 103.801h-32.424v-48.098h-17.488v-32.421h67.4v32.421h-17.488zm-28.424-4h24.424v-48.098h17.488v-24.421h-59.4v24.421h17.488zm-51.715-76.522h5.362v4h-5.362zm9.901 0h5.363v4h-5.363zm9.898 0h5.364v4h-5.364zm83.039 0h5.363v4h-5.363zm9.898 0h5.363v4h-5.363zm9.901 0h5.363v4h-5.363zm-46.498-19.728h4v5.363h-4zm0 9.901h4v5.364h-4zm-28.424-9.901h4v5.363h-4zm0 9.901h4v5.364h-4zm28.424 95.734h4v5.365h-4zm0 9.9h4v5.363h-4zm-28.424-9.9h4v5.365h-4zm0 9.9h4v5.363h-4zm-47.715-67.383h5.362v4h-5.362zm9.901 0h5.363v4h-5.363zm9.898 0h5.364v4h-5.364zm83.039 0h5.363v4h-5.363zm9.898 0h5.363v4h-5.363zm9.901 0h5.363v4h-5.363z" fill="#282d33"/></svg>