<svg viewBox="0 0 251.25624289731547 48.35113298962781" xmlns="http://www.w3.org/2000/svg" width="2500" height="481"><path d="M0 47.2L12.4 0h15.5l12.5 47.2h-9.2l-2.6-10.4H11.7L9.2 47.2zm13.8-18.6h12.7l-5.7-23h-1.2zM66.4 48.2a12.7 12.7 0 0 1-7-1.6 10.4 10.4 0 0 1-3.5-3.4h-1.2v4h-8.4V0h8.5v17.6H56a10.7 10.7 0 0 1 2-2.3 10.2 10.2 0 0 1 3.3-1.8 18.5 18.5 0 0 1 5.1-.7 15 15 0 0 1 7.5 2 14.7 14.7 0 0 1 5.5 5.8 19.5 19.5 0 0 1 2.1 9.4v1a19.5 19.5 0 0 1-2.1 9.4 14.7 14.7 0 0 1-5.5 5.8 15 15 0 0 1-7.5 2zm-2.6-7.4a9.3 9.3 0 0 0 6.6-2.6c1.7-1.7 2.6-4.1 2.6-7.4v-.6c0-3.3-.9-5.7-2.6-7.4a9.6 9.6 0 0 0-13.1 0c-1.8 1.7-2.6 4.1-2.6 7.4v.6c0 3.3.8 5.7 2.6 7.4a8.9 8.9 0 0 0 6.5 2.6zM103.2 48.2a18.7 18.7 0 0 1-10.7-2.9 10.9 10.9 0 0 1-5-8.1l7.8-2a7.4 7.4 0 0 0 1.6 3.7 6 6 0 0 0 2.7 2 13.6 13.6 0 0 0 3.6.5 7.3 7.3 0 0 0 4.4-1 3 3 0 0 0 1.4-2.6 2.7 2.7 0 0 0-1.3-2.4 12.6 12.6 0 0 0-4.3-1.4l-1.9-.3a34.6 34.6 0 0 1-6.4-1.9 11.7 11.7 0 0 1-4.7-3.3 8.1 8.1 0 0 1-1.7-5.4 8.9 8.9 0 0 1 3.6-7.6q3.6-2.7 9.6-2.7a16.9 16.9 0 0 1 9.3 2.5 11.8 11.8 0 0 1 4.9 6.6l-7.9 2.4a6 6 0 0 0-2.2-3.7 7.6 7.6 0 0 0-4.1-1 7.3 7.3 0 0 0-3.7.8 2.7 2.7 0 0 0-1.3 2.3 2.5 2.5 0 0 0 1.3 2.4 10.7 10.7 0 0 0 3.7 1.2l1.9.4a39.7 39.7 0 0 1 6.8 1.7 11.6 11.6 0 0 1 4.9 3.2 8.2 8.2 0 0 1 1.8 5.6 9.6 9.6 0 0 1-3.8 8.1c-2.6 1.9-6 2.9-10.3 2.9zM136.8 47.2a7 7 0 0 1-5.3-2 7.4 7.4 0 0 1-2.1-5.5V20.8h-8.3v-7h8.3V3.4h8.5v10.4h9.2v7h-9.2v17.4a1.8 1.8 0 0 0 1.9 2h6.5v7zM167.6 47.8a12.9 12.9 0 0 1-6.9-1.8 12.3 12.3 0 0 1-4.6-5 16.7 16.7 0 0 1-1.6-7.3V13.8h8.5v19.3c0 2.5.6 4.4 1.9 5.6a6.9 6.9 0 0 0 5.3 1.9 7.4 7.4 0 0 0 6.1-2.6q2.1-2.6 2.1-7.2v-17h8.5v33.4h-8.4v-4.3h-1.2a9 9 0 0 1-3 3.3 12 12 0 0 1-6.7 1.6zM209.9 48.2a14.8 14.8 0 0 1-13.1-7.8 19.5 19.5 0 0 1-2.1-9.4v-1a19.5 19.5 0 0 1 2.1-9.4 14.8 14.8 0 0 1 13.1-7.8 18.5 18.5 0 0 1 5.1.7 12.9 12.9 0 0 1 3.3 1.8 10.7 10.7 0 0 1 2 2.3h1.2V0h8.5v47.2h-8.4v-4h-1.2a11.8 11.8 0 0 1-3.6 3.4c-1.6 1.1-3.9 1.6-6.9 1.6zm2.5-7.4a9.3 9.3 0 0 0 6.6-2.6c1.7-1.7 2.6-4.1 2.6-7.4v-.6c0-3.3-.9-5.7-2.6-7.4a9.6 9.6 0 0 0-13.1 0c-1.8 1.7-2.7 4.1-2.7 7.4v.6c0 3.3.9 5.7 2.7 7.4a8.9 8.9 0 0 0 6.5 2.6z"/><path d="M244.8 48.2a6.3 6.3 0 0 1-4.6-1.8 6.3 6.3 0 0 1-1.9-4.6 6.5 6.5 0 0 1 1.9-4.7 6.7 6.7 0 0 1 4.6-1.7 6.2 6.2 0 0 1 6.4 6.4 6.3 6.3 0 0 1-1.9 4.6 6.1 6.1 0 0 1-4.5 1.8z" fill="#86f460"/></svg>