<svg viewBox="-0.07132837844027407 1.3322676295501878e-15 349.64443389403914 385.62" xmlns="http://www.w3.org/2000/svg" width="2267" height="2500"><g fill="#0b3e73"><path d="M278.73 266.07c1.12.27 2.15-.22 3.2-.42 5.27-1 10.48-2.32 15.79-3.14a57.69 57.69 0 0 1 13-.84 10.49 10.49 0 0 1-1.61 3.41 29.86 29.86 0 0 1-4.74 5.3 58.54 58.54 0 0 1-11.16 8.18 28.91 28.91 0 0 1-8.32 3.24 12.33 12.33 0 0 1-3.54.23 7.93 7.93 0 0 1-5.11-2.47c-1.34-1.4-2.64-2.84-4-4.23-.51-.54-1.09-1-1.69-1.55-2.46 3.49-6 5.68-9.06 8.34a20.24 20.24 0 0 0-2.52 2.47c.39.36.8.23 1.17.23 4.1 0 8.18-.39 12.26-.64s8.35-.45 12.53-.38a31.6 31.6 0 0 1 4.85.56 1.68 1.68 0 0 1 1.11.51 2 2 0 0 1-.69 1.58 21.23 21.23 0 0 1-8.18 6.7c-.08 0-.13.11-.25.22a5.88 5.88 0 0 0 2.24 1 20.69 20.69 0 0 1 2.72 1c9.5 3.74 18.76 8 27.9 12.54 6.4 3.16 12.58 6.73 18.89 10.06a2.08 2.08 0 0 1 .27.37c-12.45 3.24-24.83 6.46-36.95 11.09 2.35 6 4.71 12 6.73 18.07s3.95 12.19 5.83 18.41a3 3 0 0 1-1.65-.63c-4.93-2.61-9.79-5.36-14.78-7.87a293 293 0 0 0-69.22-24.91 238.17 238.17 0 0 0-30.65-4.65 241.28 241.28 0 0 0-35-.42 221.9 221.9 0 0 0-24.77 2.93 226.07 226.07 0 0 0-46.45 13.33 203.45 203.45 0 0 0-27.53 13.61 141 141 0 0 0-12.9 8.66c-.17.13-.36.24-.53.35-.46-.27-.24-.66-.23-1a88.3 88.3 0 0 1 2.84-17.69c1.37-5.55 2.93-11.05 4.8-16.46a3.11 3.11 0 0 0 .35-1.57A193.45 193.45 0 0 0 34.37 325a100.21 100.21 0 0 0-19.89-1.92C31 310.47 48.92 301 68 293a21.72 21.72 0 0 1-9.61-8.55 8 8 0 0 1 3.39-.93 53.72 53.72 0 0 1 9.49-.14c5.67.27 11.34.61 17 .91h2c.27-.44-.07-.55-.23-.72a52.45 52.45 0 0 0-5-4.31 32.92 32.92 0 0 1-6.04-5.87 2.6 2.6 0 0 0-1.3.92c-1.25 1.3-2.52 2.59-3.69 4-2.49 2.92-5.63 3.71-9.28 3a26.21 26.21 0 0 1-8.33-3.19A53.62 53.62 0 0 1 41 265.31a10.46 10.46 0 0 1-2.06-4c.41-.39.91-.27 1.37-.29a54.21 54.21 0 0 1 11.16.92c6.34 1 12.63 2.35 18.88 3.79a2.71 2.71 0 0 0 .5 0 5 5 0 0 0-1.11-1.58c-2.09-2.43-4.22-4.84-6.3-7.28-1-1.13-1.85-2.33-2.79-3.53a4.77 4.77 0 0 0-1.37 1 31.49 31.49 0 0 1-6.79 4.75 8.22 8.22 0 0 1-6.52.3 31.9 31.9 0 0 1-8.97-5.24 57.32 57.32 0 0 1-9.81-9.94 24.94 24.94 0 0 1-3.47-5.89 6.51 6.51 0 0 1-.64-2.53 17.07 17.07 0 0 1 3.8.31 32.49 32.49 0 0 1 8.22 2.34A146.22 146.22 0 0 0 52.55 244a1 1 0 0 0 1-.07c-2.29-4.44-5.11-8.58-7.68-12.78-.51-.12-.76.17-1 .34-2.06 1.18-4.16 2.28-6.28 3.36a8.5 8.5 0 0 1-8.54-.33 21.36 21.36 0 0 1-3.9-2.7 58.86 58.86 0 0 1-12.87-16.43 19.12 19.12 0 0 1-1.61-4.18c-.23-.84-.55-1.84.16-2.5s1.64-.31 2.49 0a40.29 40.29 0 0 1 5.48 2.58c5.62 2.91 11.25 5.81 17.05 8.35.85.37 1.65.83 2.48 1.24.3.15.57.42 1.11.22a75.42 75.42 0 0 0-6-13.89c-.46-.14-.75.1-1.07.22-1.19.47-2.38.92-3.56 1.41-4.76 2-9.13 1.18-13.14-1.87a27.81 27.81 0 0 1-7.27-8.62 43.46 43.46 0 0 1-5.62-15.68 21.62 21.62 0 0 1-.17-2.94 9 9 0 0 1 4.5 1.52c3.68 2.41 7.38 4.78 10.82 7.54a86 86 0 0 0 8.56 5.7 15.76 15.76 0 0 0 3.19 1.84c.09-.88-2.14-10.54-3.4-14.81a3.87 3.87 0 0 0-1.5.16 32.87 32.87 0 0 1-8.4.68 14.93 14.93 0 0 1-12.8-8 31.38 31.38 0 0 1-3.25-10.26 77.19 77.19 0 0 1-.91-13.15c0-.22 0-.43.07-.72a5.8 5.8 0 0 1 2.35.79 26.14 26.14 0 0 1 5.42 4c3 2.74 5.92 5.65 8.74 8.61 2.38 2.48 4.89 4.82 7.4 7.16a.58.58 0 0 0 .62.18c-.33-2.61-.78-5.22-1-7.85s-.27-5.26-.45-7.91a5.38 5.38 0 0 0-2.12-.21 41.46 41.46 0 0 1-9.78-1.41 16.08 16.08 0 0 1-6.33-3.42A13.82 13.82 0 0 1 1 142.85a30.81 30.81 0 0 1-.94-9 84 84 0 0 1 1.24-11.43 9.33 9.33 0 0 1 .44-1.65c.23-.65.58-.79 1.24-.6a3.18 3.18 0 0 1 1.42.92c.64.67 1.25 1.36 1.88 2l1 1.08c.33-.09.28-.29.29-.45a108.16 108.16 0 0 1 3.9-24.32 306.44 306.44 0 0 1 10-31.68 47.3 47.3 0 0 1 2.26-4.91A11.58 11.58 0 0 1 25 61c.37-.46.81-.91 1.44-.67s.53.87.57 1.38a7.39 7.39 0 0 1-.35 2.29 67.85 67.85 0 0 1-2.33 6.59c-5.07 13.14-9.57 26.46-12.42 40.29a75.74 75.74 0 0 0-1.62 13.35 4.51 4.51 0 0 1 0 .52c-.4 2.82 1.06 4.88 2.81 6.81.05 0 .17 0 .27.06a2.12 2.12 0 0 0 .2-1.26c.3-10.75 2.35-21.24 4.9-31.64a198.9 198.9 0 0 1 7.05-22.38c.44-1.2 1-2.34 1.53-3.51a3.47 3.47 0 0 1 1.05-1.33c.4-.32.84-.57 1.32-.26a1.21 1.21 0 0 1 .52 1.39c-.11.42-.23.84-.37 1.26C27.71 79.47 25.89 85 24 90.55a166.64 166.64 0 0 0-6.13 25.09 120.56 120.56 0 0 0-2 16.5v.53a6.52 6.52 0 0 0 2 5.61 34.76 34.76 0 0 1 3.89 4.82c.25.34.4.8.89.91.85-2.09.63-3.33-.89-4.86l-.28-.28c-3.69-3-4.63-7.05-4.27-11.5a40.55 40.55 0 0 1 9.17-22.64 15.45 15.45 0 0 1 1.71-2 3.55 3.55 0 0 0 .78-1.79 168.48 168.48 0 0 1 10.57-28.11A201.64 201.64 0 0 1 54.35 47a114.06 114.06 0 0 1 6.77-9.43c.61-.73 1.12-1.59 2.15-1.87.87-.24 1.28.05 1.14.93a5.56 5.56 0 0 1-.7 1.84A68.16 68.16 0 0 1 60 44.28 252.77 252.77 0 0 0 42.8 72.7a154.46 154.46 0 0 0-10.44 26 15.89 15.89 0 0 0-.24 8.7 58 58 0 0 1 .79 22.8 21.54 21.54 0 0 1-.77 3.34 8.44 8.44 0 0 1-3.92 5 5.21 5.21 0 0 0-2.29 5.63c.37 0 .53-.3.69-.53A25.24 25.24 0 0 1 31 139a7.9 7.9 0 0 0 2.73-5.49 214.2 214.2 0 0 1 3.42-21.23 145 145 0 0 1 9-28.39c.49-1.09 1.06-2.12 1.65-3.15a2.53 2.53 0 0 1 1.31-1.25c.74-.26 1.16 0 1.26.82a6.21 6.21 0 0 1-.62 3.2Q47.2 89.44 45 95.45a150.79 150.79 0 0 0-7.9 31c-.2 1.48-.4 3-.57 4.45-.1.86-.55 1.7-.07 2.74 1.71-1.17 3.64-2 4-4.54.58-4.18 1.27-8.35 2.19-12.47a155.86 155.86 0 0 1 9.22-29.56c1.67-3.78 3.39-7.54 5.32-11.2a3.52 3.52 0 0 1 1.14-1.25c.83-.57 1.56-.27 1.73.72a2.13 2.13 0 0 1-.13 1.17 14.62 14.62 0 0 1-.71 1.56A102.46 102.46 0 0 0 50.6 98.3a204 204 0 0 0-6.23 23.58 31.52 31.52 0 0 0-.72 5.72 2.47 2.47 0 0 0 3-1.41 21.21 21.21 0 0 0 1.38-4.4c1-4.28 1.82-8.61 2.94-12.86a151.17 151.17 0 0 1 8.75-23.47 126.06 126.06 0 0 1 6-12c.44-.75.92-1.49 1.41-2.23a2.48 2.48 0 0 1 1.31-1.05c.85-.27 1.36.06 1.49 1a3.53 3.53 0 0 1-.38 1.78 20.58 20.58 0 0 1-1.82 3.36 109.91 109.91 0 0 0-10.42 22.3 172.58 172.58 0 0 0-7.42 30.06 87.92 87.92 0 0 1-2.88 13.71 22.26 22.26 0 0 1-2.58 5.47 14.57 14.57 0 0 1-8.05 5.85 32.46 32.46 0 0 1-8.67 1.29c-.43 0-.86 0-1.46.07a58.9 58.9 0 0 0 1.54 15.17l3.88-5.12a93.47 93.47 0 0 1 9.4-11 34.84 34.84 0 0 1 3.8-3.27 9.68 9.68 0 0 1 3.91-1.66 1.84 1.84 0 0 1 .18 1.12c-.05 4.26 0 8.53-.45 12.79a26.81 26.81 0 0 1-.74 4.55 17.65 17.65 0 0 1-2.59 6.07 15.7 15.7 0 0 1-7.72 5.51 48.51 48.51 0 0 1-6.39 1.59 1.84 1.84 0 0 0-1.11.42 83.83 83.83 0 0 0 3.49 14.8c.66-.32.76-.92 1-1.41A107.1 107.1 0 0 1 43 179.71c1.13-1.63 2.26-3.26 3.54-4.78a10.88 10.88 0 0 1 4.58-3.05 20.5 20.5 0 0 1 1 4.61 56.81 56.81 0 0 1 .06 15.79 26.54 26.54 0 0 1-1.1 4.72 10.57 10.57 0 0 1-5.08 6 24.27 24.27 0 0 1-7.86 2.56l-.63.14s-.06.06-.09.08c.29 2.4 4.09 11.39 6 14.1.45-.27.38-.78.49-1.17a103.5 103.5 0 0 1 7.7-19.05 11.22 11.22 0 0 1 4.19-4.81 7.89 7.89 0 0 1 .81-.44 2.35 2.35 0 0 1 .51-.16 12.79 12.79 0 0 1 1.33 3.87c.81 3.6 1.66 7.2 2.34 10.82a22.14 22.14 0 0 1-.65 11.72 10.84 10.84 0 0 1-5.78 6.37c-1.39.65-2.8 1.26-4.24 1.81a4.28 4.28 0 0 0-1.52.73c.46 1.89 5.86 10.93 8 13.4a17.47 17.47 0 0 0 .56-3.49A84.41 84.41 0 0 1 61.38 222a16 16 0 0 1 3.47-5.86 2.78 2.78 0 0 1 1.33-.92 3.85 3.85 0 0 1 1 1.64q1.41 3.14 2.82 6.37A36.87 36.87 0 0 1 73.31 239a13.6 13.6 0 0 1-.55 3.64 8.57 8.57 0 0 1-3 4.54 28.63 28.63 0 0 1-5.44 3.46 2 2 0 0 0-1 .78C64 254 70.47 261.59 73 263.48c.42-.35.2-.81.19-1.21a118.35 118.35 0 0 1 .15-13.45 31.65 31.65 0 0 1 1.89-9.54 10.33 10.33 0 0 1 3.07-4.46 1 1 0 0 1 .75.6 84.49 84.49 0 0 1 8.23 14.86 24 24 0 0 1 2 9.08 9.47 9.47 0 0 1-2.89 7 48.33 48.33 0 0 1-4.83 4.09 2.52 2.52 0 0 0-.77.68c1.23 2.08 9.28 9.26 11.8 10.5a57.4 57.4 0 0 1-1.72-15.73 55.56 55.56 0 0 1 .77-9.46c.23-1.26.69-2.45 1-3.78a5.83 5.83 0 0 1 2.25 1.34 32.83 32.83 0 0 1 5 5.58 83.11 83.11 0 0 1 5.27 8.22 19.81 19.81 0 0 1 2.85 8c.11 1.35 0 2.72 0 4.13a4.49 4.49 0 0 0 2.13-.43c-.33-3.83-1.23-7.68.37-11.39.49-.13.71.21 1 .38a49.89 49.89 0 0 1 7.28 5.67 10.33 10.33 0 0 1 2.32 3 6.47 6.47 0 0 0 2.26-.27 267.47 267.47 0 0 1 31.19-3.89 284 284 0 0 1 37.47.08 301.84 301.84 0 0 1 34.28 4.35c1.4.79 2.05 0 2.88-1.08a26.77 26.77 0 0 1 5.91-5.35 20.23 20.23 0 0 1 3.73-2.41c1.66 3.75.81 7.57.4 11.44a3.17 3.17 0 0 0 2 .62 1.85 1.85 0 0 0 .13-1.21 18.28 18.28 0 0 1 2.64-10.52 68.25 68.25 0 0 1 8.69-12.56 11.89 11.89 0 0 1 4.05-3.19 6.75 6.75 0 0 1 .94 2.72 59.56 59.56 0 0 1 .91 14.72 47.66 47.66 0 0 1-1.48 11 1 1 0 0 0 .05.38c-.07-.09-.13-.09-.16 0s0 .1 0 .1.14-.05.1-.15c.3.12.5-.09.7-.24a75.4 75.4 0 0 0 10.94-9.75c-.17-.49-.59-.69-.92-.95a83.668 83.668 0 0 1-4.31-3.68 9.85 9.85 0 0 1-3.19-9.19 28.94 28.94 0 0 1 2-7.62 86.64 86.64 0 0 1 7.89-14.15 2.63 2.63 0 0 0 .66-1.21 10.74 10.74 0 0 1 3.61 5.2 32.74 32.74 0 0 1 1.6 8.26c.37 4.4.3 8.8.25 13.2v2.11c2-.76 8.54-8.73 9.85-12-.14-.45-.58-.49-.93-.66a28.49 28.49 0 0 1-5.53-3.56c-2.58-2.07-3.46-4.92-3.61-8a33.86 33.86 0 0 1 2.39-13.42c1.28-3.42 2.88-6.71 4.38-10 .08-.19.17-.41.42-.47a6 6 0 0 1 2.76 2.66 28.82 28.82 0 0 1 3.17 7.5 78.69 78.69 0 0 1 3.31 16.92 3.46 3.46 0 0 0 .11.52c1.39-.76 7.34-10.32 8.23-13.21a3 3 0 0 0-1.37-.65 44.63 44.63 0 0 1-5.28-2.38 10 10 0 0 1-4.91-6 22.35 22.35 0 0 1-.68-11.47c.77-3.93 1.68-7.83 2.57-11.73a9.45 9.45 0 0 1 1.14-3.1 6.19 6.19 0 0 1 3.47 2.34 22.17 22.17 0 0 1 3.46 5.58c1.88 4.27 3.68 8.56 5.27 12.95a37.81 37.81 0 0 1 1.37 4.83 66.26 66.26 0 0 0 6.29-14.1 19.25 19.25 0 0 0-3.39-.78 18.92 18.92 0 0 1-5.61-2.23 11.4 11.4 0 0 1-5.19-7 34.62 34.62 0 0 1-1.22-7.94 52.51 52.51 0 0 1 1.32-15.6 2.3 2.3 0 0 1 .21-.42 10.43 10.43 0 0 1 5 3.46 112.61 112.61 0 0 1 11.46 18.62 8 8 0 0 0 1.16 2 86.33 86.33 0 0 0 3.59-15.06c-1.25-.26-2.36-.47-3.47-.72a24 24 0 0 1-7.53-2.72 15 15 0 0 1-6.81-9.8 34.37 34.37 0 0 1-1-6.92c-.13-3.51-.15-7-.2-10.56a1.86 1.86 0 0 1 .18-1.1 7.32 7.32 0 0 1 2.66.88 21.41 21.41 0 0 1 4.86 3.82A109.7 109.7 0 0 1 320 168.59a10.73 10.73 0 0 0 1.69 2.06 66.69 66.69 0 0 0 1.58-14.89 4.43 4.43 0 0 0-1.91-.3 41.68 41.68 0 0 1-6.67-.85 15.41 15.41 0 0 1-11.19-9.17 41.88 41.88 0 0 1-2.85-10.12c-1-5.46-1.7-11-2.89-16.38A150.36 150.36 0 0 0 286 84.17c-1.43-2.88-3.12-5.62-4.76-8.38a11 11 0 0 1-1.54-3.62c-.09-.52-.23-1.09.34-1.42a1.48 1.48 0 0 1 1.62.17 4.24 4.24 0 0 1 1.25 1.51 84.92 84.92 0 0 1 4.66 8.73c2.68 5.74 5.29 11.51 7.51 17.44a138.11 138.11 0 0 1 5.83 21.23 48.06 48.06 0 0 0 1.62 6.24 3.38 3.38 0 0 0 3.05 2.26c.44-.36.23-.76.19-1.13a101.6 101.6 0 0 0-3-14.86 187.52 187.52 0 0 0-6.64-21.13 89.93 89.93 0 0 0-5.9-12.52 4.65 4.65 0 0 1-.77-2.75c.08-1 .77-1.38 1.62-.83a3.08 3.08 0 0 1 .67.63 7.25 7.25 0 0 1 1.07 1.66c2.74 5.85 5.57 11.67 7.79 17.75a182.2 182.2 0 0 1 6.39 22.72 106.71 106.71 0 0 1 1.89 11 5.27 5.27 0 0 0 3.05 4.57c.34.17.6.53 1.14.54a7.32 7.32 0 0 0-.07-2 153.77 153.77 0 0 0-7.52-33.14c-1.57-4.58-3.37-9.07-5.22-13.54a12.6 12.6 0 0 1-1.09-3.65c-.06-.59-.23-1.28.48-1.63.48-.25 1.14.06 1.68.74a14.72 14.72 0 0 1 1.9 3.31 139.56 139.56 0 0 1 7.72 22.7 214.53 214.53 0 0 1 4.51 24.78c.17 1.26.35 2.53.53 3.79a5.44 5.44 0 0 0 1.6 3.26 51 51 0 0 1 5.4 5.6c.15.2.33.43.65.36a5.63 5.63 0 0 0-1.68-4.93 20.77 20.77 0 0 0-1.67-1.3 7.84 7.84 0 0 1-3-4.36 34.31 34.31 0 0 1-1.2-6.88 62 62 0 0 1 .69-16.83 28.75 28.75 0 0 1 .73-3.08 11.26 11.26 0 0 0 0-6.38 144.6 144.6 0 0 0-10.84-27.58 244.71 244.71 0 0 0-17.59-29c-1-1.41-1.93-2.84-2.82-4.31A7.23 7.23 0 0 1 285 36.5a1.81 1.81 0 0 1 2.2.3 14.49 14.49 0 0 1 1.24 1.36 131.28 131.28 0 0 1 8.21 11.65 195.74 195.74 0 0 1 15.28 27.54 176.74 176.74 0 0 1 8.4 22.89 12.32 12.32 0 0 0 2.53 4.68 41.41 41.41 0 0 1 9.46 22.53 15.47 15.47 0 0 1-1.21 8.13 10.76 10.76 0 0 1-2.08 2.87 7.41 7.41 0 0 1-1.12 1.12c-1.86 1.32-1.54 3.12-1.25 5 .54.08.68-.31.87-.57 1.56-2.18 3.27-4.25 5-6.27a4.38 4.38 0 0 0 1.1-3.14 106.26 106.26 0 0 0-1.67-16.4c-1-5.71-2-11.44-3.47-17.06-1.38-5.23-3.14-10.35-4.85-15.48-1.26-3.8-2.54-7.59-3.81-11.38a3 3 0 0 1-.17-1.68c.19-.91.72-1.18 1.5-.69a3.8 3.8 0 0 1 1.35 1.59 38.9 38.9 0 0 1 1.94 4.62 209.39 209.39 0 0 1 8.42 29.13 134.91 134.91 0 0 1 3 22.73c0 .79.1 1.57.16 2.68a29.13 29.13 0 0 0 2.89-4 4.6 4.6 0 0 0 .31-1.94 72.43 72.43 0 0 0-1.7-15.32 231 231 0 0 0-8.74-30.41q-2.34-6.65-5-13.2a18.79 18.79 0 0 1-1.33-4.95c-.08-.74-.22-1.64.63-2s1.23.51 1.62 1.05a28.05 28.05 0 0 1 3 6c2.7 6.74 4.86 13.67 7 20.61a201.46 201.46 0 0 1 5.16 19.77 89.58 89.58 0 0 1 2 15.56c0 .29-.08.62.29.94.76-.82 1.51-1.64 2.28-2.46a6.56 6.56 0 0 1 1.59-1.38c.88-.48 1.37-.3 1.75.64a12.56 12.56 0 0 1 .62 3c.41 3 .83 6.1 1 9.18a34 34 0 0 1-.7 9.06c-1.38 6-5.14 9.75-11 11.42a41.31 41.31 0 0 1-9.52 1.33 9.88 9.88 0 0 0-2.23.17 101.41 101.41 0 0 1-1.33 15.61c.7.08 1-.36 1.32-.65 2.72-2.44 5.24-5.09 7.79-7.7a103.15 103.15 0 0 1 10-9.4 12.15 12.15 0 0 1 5.33-2.73c.18 0 .18.19.18.31a84.65 84.65 0 0 1-1.51 16.27 27.26 27.26 0 0 1-2.89 7.75c-2.87 5-7.26 7.5-12.94 7.83a35.28 35.28 0 0 1-8.14-.7l-1.46-.26c-1.3 4.94-2.39 9.88-3.58 14.75.37.31.59.1.8 0 4.19-2.73 8.52-5.27 12.47-8.38a91.62 91.62 0 0 1 9.47-6.49 9.71 9.71 0 0 1 4.53-1.54 16.82 16.82 0 0 1-.43 4.45 44.14 44.14 0 0 1-8.33 18.47 21.2 21.2 0 0 1-6.18 5.48 12.24 12.24 0 0 1-11.16.8l-4.61-1.86A77.47 77.47 0 0 0 309 221.9c1.37-.63 2.47-1.14 3.58-1.63 6.33-2.85 12.5-6.06 18.67-9.25a28.31 28.31 0 0 1 4.6-2c1.66-.52 2.47.18 2.22 1.91a10 10 0 0 1-.88 3 53.32 53.32 0 0 1-14.95 19.19 18.89 18.89 0 0 1-4.88 2.84 6.57 6.57 0 0 1-4.76.06 25.51 25.51 0 0 1-3.83-1.76l-5-2.7a201.09 201.09 0 0 0-7.86 12.91c.58.35 1 0 1.46-.09a157.37 157.37 0 0 0 19-6.25 28.63 28.63 0 0 1 8.74-1.87 7.08 7.08 0 0 1 .92 0 2 2 0 0 1 .4.13 12.41 12.41 0 0 1-1.57 4.31 42.92 42.92 0 0 1-7.57 9.61 45.38 45.38 0 0 1-11.2 8.51 27.33 27.33 0 0 1-2.78 1.19 7.9 7.9 0 0 1-6.63-.51 31.78 31.78 0 0 1-6.62-4.78c-.35-.31-.62-.75-1.15-.91-3 4.13-6.56 7.79-9.85 11.69-.14.16-.36.27-.3.54l-.14.11h.1c.02 0 .1-.02.01-.08zm14 61.91c.16-.14.27-.32.42-.35a43.75 43.75 0 0 0 5.15-1.58c3.09-1 6.21-1.81 9.31-2.72 5.78-1.69 11.69-2.91 17.52-4.42a8.77 8.77 0 0 0 1.14-.33.93.93 0 0 0 .34-1.59 3.38 3.38 0 0 0-.75-.53 135.67 135.67 0 0 0-14.62-7.8c-7.64-3.39-15.26-6.8-23.07-9.78a347.8 347.8 0 0 0-61.92-17.58 319.73 319.73 0 0 0-32.17-4.3 295.89 295.89 0 0 0-38.25-.67 286.36 286.36 0 0 0-33.95 3.77 255.7 255.7 0 0 0-36.68 9.23 282.61 282.61 0 0 0-34.28 14c-7.88 3.83-15.41 8.31-23 12.58a39.42 39.42 0 0 0-3.86 2.53c-.94.68-.89 1.43 0 2.15a6.14 6.14 0 0 0 2.18.9 79.56 79.56 0 0 0 9 1.89c7.24 1.26 14.52 2.28 21.73 3.68.34.07.72 0 .92.43a3.47 3.47 0 0 1-.1.37 234.67 234.67 0 0 0-6.64 22.64 40.42 40.42 0 0 0-1.25 6.74 2.12 2.12 0 0 0 3.21 2.16c1.59-.91 3.19-1.81 4.75-2.76 6.29-3.84 12.81-7.27 19.44-10.48a207.27 207.27 0 0 1 22.7-9.38 219.88 219.88 0 0 1 39.49-9.8 229.2 229.2 0 0 1 63.42-.5 214.51 214.51 0 0 1 34.85 7.19c7.67 2.31 15.12 5.25 22.63 8 6.79 2.51 13.56 5.1 20.22 7.95 7 3 13.91 6.39 20.78 9.77a9.93 9.93 0 0 0 1.57.68 1 1 0 0 0 1.36-1.28 9.74 9.74 0 0 0-.31-1c-1.14-3.37-2.24-6.76-3.44-10.11-2.4-6.68-4.94-13.24-7.8-19.68z"/><path d="M174.23 267.72a99.6 99.6 0 1 1 99.49-99.55c.06 54.63-44.57 99.64-99.49 99.55zm93.2-98a93.32 93.32 0 1 0-94.64 91.71 93.28 93.28 0 0 0 94.64-91.68zM189.23 46.64a66 66 0 0 1-5.61-3.9c-2.81-2-5.61-4.09-8.43-6.12-1.08-.78-1.08-.74-2.15 0l-13.68 9.91c-.14.1-.29.18-.59.37l5.89-18L149.55 18c.2-.46.5-.33.74-.33 5.76 0 11.53 0 17.29.08.73 0 .88-.41 1-.93.87-2.77 1.75-5.53 2.63-8.3.76-2.38 1.53-4.77 2.3-7.15A3.54 3.54 0 0 1 174.3 0l5.7 17.72h18.7l.09.21-15.16 11q1.37 4.17 2.72 8.36c1 3.09 2.08 6.16 2.94 9.29zM92.27 50.1l-10.89-1.05v-.23l9.38-5.57c-.76-3.56-1.54-7.15-2.36-11 3 2.43 5.65 4.94 8.39 7.43l9.45-5.52.24.21-4.37 10 8.37 7.41c-3.88-.15-7.47-.66-11.18-.94L94.73 61.2c-.86-3.88-1.66-7.47-2.46-11.1zM267.06 48.22l-11.21 1.14a100.39 100.39 0 0 1-2.58 10.7L249 50c-3.54.22-7.18.78-10.88.9 0-.52.42-.64.65-.85l6.64-5.83c.78-.67.79-.65.36-1.65-1.32-3-2.64-6-4-9.08.43-.16.7.11 1 .27 2.53 1.49 5.08 3 7.59 4.51.88.54 1.28.55 2.13-.27 2.24-2.17 4.62-4.2 6.95-6.27.05-.05.16-.05.31-.09a41 41 0 0 1-.88 4.49c-.37 1.72-.79 3.43-1.16 5.15-.25 1.15-.22 1.2.79 1.78l8.24 4.71c.03.08.07.16.32.45z"/><path d="M189.33 46.53c.12.08.13.18 0 .29l-.12-.18zM322.57 317.25l-9 2.19q-11.08 2.74-21.91 6.33l-.62.22c-1 .4-1.15.53-.81 1.55s.75 2.07 1.2 3.07c3.63 8.16 6.63 16.57 9.48 25 .09.27.31.54.13 1a2.73 2.73 0 0 1-1.27-.47c-3.41-1.65-6.78-3.36-10.21-4.95q-12.39-5.74-25.21-10.44c-6.81-2.5-13.57-5.14-20.45-7.44a191.32 191.32 0 0 0-31.73-7.77c-6.92-1.07-13.86-1.95-20.83-2.49a243.09 243.09 0 0 0-29.81-.5 215.14 215.14 0 0 0-25.19 2.67 220.18 220.18 0 0 0-42 11.19 237.54 237.54 0 0 0-35.65 17.07c-1.67 1-3.29 2-4.94 3a2.75 2.75 0 0 1-1.48.59 5.66 5.66 0 0 1 .26-2.47 216.85 216.85 0 0 1 7.4-26 15.54 15.54 0 0 0 .47-1.51c.31-1.2.19-1.45-1-1.76s-2.74-.67-4.12-.91c-5.77-1-11.54-1.93-17.31-2.91-3.21-.54-6.42-1.08-9.59-1.78a3.8 3.8 0 0 1-1.26-.41c-.05-.48.39-.53.66-.68a324.75 324.75 0 0 1 35-18.31c8.08-3.49 16.24-6.73 24.62-9.4a260.5 260.5 0 0 1 32.06-8.16 277.27 277.27 0 0 1 29.85-3.77 292.94 292.94 0 0 1 36.41-.31 331.7 331.7 0 0 1 83.1 15.77 359.52 359.52 0 0 1 37 14.26 170.1 170.1 0 0 1 16.18 8c.19.08.43.11.57.53zm-38.27.07c.18.9-.47 1.53-.79 2.23-2 4.54-3.48 9.3-5.07 14a1.61 1.61 0 0 0-.09 1.39l4.1 1.28c2.75-8.12 5.45-16.12 8.17-24.18-1.93-.63-3.71-1.32-5.56-1.8-1.83 2.35-3.58 4.67-5.42 6.91s-3.41 4.63-5.32 6.83c0-5.93-.2-11.79-.41-17.61l-5.34-1.7c-2.73 8.07-5.44 16.09-8.17 24.19l4.27 1.46c2.05-6 4.4-11.77 5.52-18 .19 5.89.35 11.74.59 17.54l2.47.86a2.27 2.27 0 0 0 .93-.82c3.12-4 6.47-7.77 9.37-11.92a1.8 1.8 0 0 1 .75-.66zm-78.82-25.58c-3.49 8.2-7.55 16-11.11 24.27a7.39 7.39 0 0 0-.68-1.87c-2.44-4-4.53-8.15-6.87-12.18a3.25 3.25 0 0 1-.58-1.43c2.34-3.29 5.2-6.29 7.75-9.68a32.58 32.58 0 0 0-3.88-.19c-1.09-.08-2.13-.15-2.53 1.21-.06.19-.28.33-.42.5-2.24 2.77-4.47 5.55-6.72 8.32-.17.21-.22.6-.7.53-.12-3.58.15-7.16.16-10.83-1.78 0-3.42-.15-5.11-.05-.21 8.61-.41 17.07-.62 25.53h5a2.69 2.69 0 0 0 .18-1.37c0-1.63.08-3.26.13-4.89a1.91 1.91 0 0 1 .37-1.35c.75-.86 1.43-1.78 2.18-2.63s1-.8 1.51.17c1.4 2.7 2.77 5.43 4.25 8.08 1.27 2.27.91 2.44 4 2.47a33.34 33.34 0 0 1 4.58 0c.56.09 1.13.16 1.7.22 1.34.14 1.34.13 1.88-1.18.66-1.62 1.33-3.24 2-4.94l8.28 1c.33 2.38.64 4.62.94 6.83l5 .55a.71.71 0 0 0 .12-.73c-.23-1.11-.53-2.21-.69-3.32-.4-2.76-1-5.49-1.5-8.23-.58-3.07-1.12-6.16-1.68-9.23-.25-1.38-.52-2.75-.75-4.12-.07-.43-.19-.79-.67-.85zM83.33 304.22c2.36 8.28 4.67 16.42 7 24.56a6.5 6.5 0 0 0 .67-.09c3.18-.88 6.37-1.7 9.5-2.75a11.22 11.22 0 0 0 4.19-2.44 6.88 6.88 0 0 0 1.44-8.33 5.6 5.6 0 0 0-4.14-3.12 5 5 0 0 1-1.48-.42 5.64 5.64 0 0 0 1.73-3.19 5.75 5.75 0 0 0-5.53-7.19 11.85 11.85 0 0 0-2 .12c-3.84.5-7.47 1.9-11.38 2.85zm25.09-6.76c.21 1.12.37 2 .54 2.93.77 4.2 1.44 8.41 2.35 12.58a13.26 13.26 0 0 0 2.69 5.8 7.28 7.28 0 0 0 4.82 2.71 12.86 12.86 0 0 0 7.21-1.11 7.79 7.79 0 0 0 4.59-6.33 19.72 19.72 0 0 0-.15-6c-.56-3.34-1.15-6.67-1.79-10a19.82 19.82 0 0 0-.85-4l-4.45.82a1.36 1.36 0 0 0 0 .93c.8 4.59 1.61 9.18 2.39 13.77a9.81 9.81 0 0 1-.11 4.57c-.61 2-2.13 2.79-4.06 3a3.93 3.93 0 0 1-4.26-2.2 11 11 0 0 1-1-2.71c-.78-3.26-1.24-6.57-1.83-9.85-.34-1.89-.64-3.79-1-5.76zm135.83 20c2.81.59 5.4 1.6 8.12 2.25v.87c0 1.67 0 3.35-.07 5 0 .7.19 1 1 1.24a27 27 0 0 1 3.27.93.81.81 0 0 0 .93-.11l-.93-26.53c-1.55-.59-3.1-.9-4.61-1.33-1.22-.35-1.51-.26-2.14.81-2.92 4.91-6.29 9.52-9.4 14.31-1.45 2.24-3 4.44-4.33 6.88.19.14.35.34.54.39 1.47.31 2.95.59 4.41.88zM64.66 310.8c.59 9 1.18 17.89 1.77 26.85l4.74-1.79c0-2.35-.58-4.59-.54-6.92l7.55-2.94a1.84 1.84 0 0 1 .72.73c.95 1.33 1.91 2.64 2.82 4a.91.91 0 0 0 1.32.38c1.09-.46 2.22-.83 3.32-1.25.27-.11.64-.1.73-.64-5.55-6.8-11.09-13.71-16.87-20.52-1.86.62-3.57 1.52-5.56 2.1zm160.7 5.2c0-.57 0-.93.09-1.27.43-2.36.88-4.71 1.31-7.07.6-3.26 1.23-6.51 1.74-9.78.15-1 .65-1.92.2-3-1.57-.12-3-.73-4.71-.67-.86 4.17-1.52 8.32-2.26 12.46s-1.54 8.31-2.16 12.58l15 2.72a25.75 25.75 0 0 0 1-4.22zm-86.77 2.32l15.31-1.94a22.91 22.91 0 0 0-.57-4.18c-3.47.31-6.78 1-10.2 1.21-.92-7.14-1.82-14.13-2.74-21.24-1.74.49-3.36.47-5 .84 1.06 8.48 2.11 16.8 3.2 25.34zM262.4 168.2a87.59 87.59 0 0 1-14.78 48.9 86.11 86.11 0 0 1-21 22 93.08 93.08 0 0 1-10.4 6.53 86.3 86.3 0 0 1-8.93 4.32 88.35 88.35 0 0 1-38.71 6.28c-3.12-.18-6.23-.56-9.31-1a69.56 69.56 0 0 1-7.43-1.57 87.28 87.28 0 0 1-20.48-8.2 89 89 0 0 1-34.87-35.32 87.37 87.37 0 0 1-9.73-29.48 85 85 0 0 1-.41-21.85 87.65 87.65 0 0 1 7.43-27.25A89.82 89.82 0 0 1 111 106.45a94.42 94.42 0 0 1 8.66-7.83 92.16 92.16 0 0 1 8.73-6 90.08 90.08 0 0 1 9.64-5 59.28 59.28 0 0 1 7.19-2.83c2.52-.81 5-1.6 7.6-2.25A85.26 85.26 0 0 1 170.49 80a81.07 81.07 0 0 1 13.58.48c2.83.37 5.64.87 8.44 1.47a78.71 78.71 0 0 1 10.05 2.68A100.4 100.4 0 0 1 213 89a97 97 0 0 1 11.43 6.73c2.05 1.39 3.93 3 5.89 4.53a104.22 104.22 0 0 1 9.24 8.71 37.66 37.66 0 0 1 3.21 3.78 88.46 88.46 0 0 1 5.53 7.65 79.74 79.74 0 0 1 5.54 9.94 97.61 97.61 0 0 1 4.08 10.38c.72 2.22 1.31 4.47 1.86 6.74a78.43 78.43 0 0 1 2.62 20.74zm-95.08 16.28h-.24a67.83 67.83 0 0 0-9.78-6.68 40.36 40.36 0 0 0-13.77-4.64 38.53 38.53 0 0 0-14.66.88c-.41.1-.82.36-1.26 0a17.58 17.58 0 0 1 .37-2.62q1.41-9 2.84-18c.85-5.43 1.69-10.87 2.59-16.29a2.64 2.64 0 0 0-.66-2.41c-1-1.11-1.93-2.28-2.9-3.42-.27-.31-.39-.77-1-.94q-3.43 25.53-6.83 50.82a1.35 1.35 0 0 0 1.17 0 63.34 63.34 0 0 1 11.64-2.33 43.17 43.17 0 0 1 15.73 1 38.43 38.43 0 0 1 19.86 12.45c.2.23.36.63.86.46v-.91a83.38 83.38 0 0 0-2.28-16.62 51.27 51.27 0 0 0-3.79-10.66 11 11 0 0 0-2.69-3.55 2.77 2.77 0 0 0-1.64-.78 15.19 15.19 0 0 0-4.07.26c.76 1.67 1.49 3.25 2.21 4.84q3.95 8.78 7.89 17.56a2.33 2.33 0 0 1 .43 1.6zm73.27 16.43l-2.12-.89-1.94-.78A89.85 89.85 0 0 0 210 192.8a58.78 58.78 0 0 0-25 3.44 54.82 54.82 0 0 0-9.65 4.85 1.59 1.59 0 0 1-1.92 0c-1-.63-2.07-1.16-3.13-1.7-13.26-6.76-27.15-8.81-41.74-5.48a77 77 0 0 0-19 7.27 2.21 2.21 0 0 1-1.26.47l9.41-53.16a15.57 15.57 0 0 0-2.86 1.2.88.88 0 0 0-.45.87 11.31 11.31 0 0 1-.39 2.65c-.27 1.77-.58 3.53-.91 5.29-.21 1.17-.46 2.34-.71 3.5s-.45 2.26-.58 3.37a89.28 89.28 0 0 1-1.78 9.77c-.12.52 0 1-.15 1.53a18.62 18.62 0 0 0-.71 3.49c-.26 1.38-.45 2.78-.69 4.17-.38 2.18-.77 4.36-1.2 6.53-.27 1.32-.46 2.67-.69 4-.2 1.16-.47 2.33-.61 3.51a36.94 36.94 0 0 1-.82 4.7 7.87 7.87 0 0 0-.21 2.43 133.21 133.21 0 0 1 61.32-2.27 17 17 0 0 0 2.1 3.77 5.46 5.46 0 0 0 4.84 2.25c1.4 0 2.75-.48 4.15-.28a.75.75 0 0 0 .26 0 7.58 7.58 0 0 0 4.81-4.29 3.33 3.33 0 0 1 2.46-2.05 28.84 28.84 0 0 1 3-.69c2.07-.31 4.14-.63 6.21-1 1.25-.22 2.54-.23 3.8-.44s2.39 0 3.59-.22a26.93 26.93 0 0 1 3.82-.21 117.46 117.46 0 0 1 13 .43 1.91 1.91 0 0 1 .76.16 1.48 1.48 0 0 0 1 .16 8.41 8.41 0 0 1 3.2.32c1.5.25 3 .44 4.54.68s3.25.66 4.9.9a53 53 0 0 1 5.52 1.26c1.71.43 3.44.75 5.06 1.31.42-.29.34-.62.28-1-1.14-6.8-2.25-13.6-3.38-20.4q-1.35-8.13-2.71-16.27c-.56-3.29-1.13-6.58-1.68-9.87-.44-2.64-.87-5.27-1.29-7.91 0-.36 0-.75-.42-.9a8.53 8.53 0 0 0-2.07-.88c2.8 17.66 5.67 35.14 8.57 52.85zm-58.25-85.72a4.51 4.51 0 0 1-2.23-.25 4.7 4.7 0 0 1-3.74-5.63 8.93 8.93 0 0 1 1.39-3.8 2 2 0 0 1 2.78-.82 6.57 6.57 0 0 1 1.81 1.51c.19.21.3.58.75.41a25.8 25.8 0 0 0-.18-3.93 13.69 13.69 0 0 0-1.73-5.77 7.66 7.66 0 0 0-6.77-4.33c-3.59-.11-6.23 1.63-8.3 4.35-3 3.92-3.88 8.49-4.09 13.28 0 .68.37.91.89 1.12l3 1.27a22.86 22.86 0 0 1-2 4.13c-1.47 2.41-3.75 2.14-5.36 1.17a10.86 10.86 0 0 1-2.54-2.29 29.71 29.71 0 0 1-3.58-5.37c-.68-1.27-1.32-2.57-2-3.93-1.18.06-2.37.1-3.55.2-2 .17-4 .43-6 .58a42.46 42.46 0 0 1-13.95-1.67 7.08 7.08 0 0 0-.77-.17c-.26 0-.53-.07-.79-.1a34.88 34.88 0 0 0 4.66 3.76 35.38 35.38 0 0 0 8.34 3.59 13 13 0 0 0 7.38.1c.24.13.29.41.4.64a25.11 25.11 0 0 0 6.14 8c3.32 2.84 7.11 3 11 1.81a16.17 16.17 0 0 0 6.65-4.27l3.17-3.12c.76.92 1.47 1.75 2.14 2.61a11.51 11.51 0 0 0 5.1 3.83c1.28.46 2.58.88 3.89 1.24a9.87 9.87 0 0 0 9.19-1.89 21.47 21.47 0 0 0 4-4.19 23.6 23.6 0 0 0 2.71-4.69 11.4 11.4 0 0 0 6.59.12 30.26 30.26 0 0 0 13.49-7.08c.11-.1.12-.21 0-.38a9.08 9.08 0 0 0-2.15.46 39.3 39.3 0 0 1-15 1.21c-2.05-.26-4.13-.33-6.17-.6a1.52 1.52 0 0 0-1.93 1.07c-.17.46-.43.87-.64 1.31a46 46 0 0 1-3.49 6.2 10.08 10.08 0 0 1-2.75 2.81 3 3 0 0 1-3.58 0 7.73 7.73 0 0 1-2.18-2.5zM215.92 128a12.44 12.44 0 0 0 .08 2.47q.6 5.77 1.21 11.55l2 18.9c.31 3 .64 5.95.94 8.92 0 .46.22 1-.13 1.38a2.66 2.66 0 0 1-1.31.08 45 45 0 0 0-11.28.91 53.29 53.29 0 0 0-21.27 10.7 106.17 106.17 0 0 0-10.93 10.7c-.17.19-.5.36-.39.84.91-.52 1.8-1 2.67-1.54a147.11 147.11 0 0 1 14.09-7.48 66.81 66.81 0 0 1 16.67-5.31c6.83-1.11 13.5-.76 19.87 2.26.22.11.45.3.8 0l-6.67-52.47zm-40.74 64.16q1.23-2.09 2.48-4.15A46 46 0 0 1 194 171.67a43.78 43.78 0 0 1 21.42-5.67 2.9 2.9 0 0 0 1.58-.22c-.43-3.63-.95-7.32-1.45-11s-1-7.42-1.5-11.11-.88-7.34-1.55-11.07a3.48 3.48 0 0 0-1.15 1.15c-1.15 1.39-2.22 2.85-3.46 4.15a2.1 2.1 0 0 0-.62 2c.76 5.71 1.49 11.43 2.23 17.14.14 1 .25 2.08.38 3.16a30 30 0 0 1-4 .82 36.17 36.17 0 0 0-10.22 3.4A49.49 49.49 0 0 0 180 177.69c-.2.25-.32.59-.88.71 2.44-6.43 4.84-12.72 7.31-19.22a22.76 22.76 0 0 0-4.16.94 4.73 4.73 0 0 0-2.21 1.81 13.91 13.91 0 0 0-1.35 2.56 34 34 0 0 0-1.59 5.3c-1.71 7.34-1.95 14.81-1.94 22.39zm62.54 3.63c-.07-.55-.11-1-.18-1.49l-2.76-17.19-3.84-24.24-1.5-9.5c-.06-.39 0-.86-.41-1.07a13.41 13.41 0 0 0-3.05-1.61c2.08 15.55 4.14 31 6.2 46.32a1.17 1.17 0 0 1-1-.1 73.44 73.44 0 0 0-10.21-2.6 55.24 55.24 0 0 0-17.87-.23c-10.25 1.61-19.2 6.1-27.36 12.35a1.12 1.12 0 0 0-.57.84 7.86 7.86 0 0 0 .12 2.12 1.2 1.2 0 0 0 .82-.33 66.88 66.88 0 0 1 6.58-3.63 59.28 59.28 0 0 1 31-5.6 77 77 0 0 1 22.57 5.64 2.27 2.27 0 0 0 1.46.34zm-125.82.46c.5.07.82-.3 1.19-.5a53.68 53.68 0 0 1 24.9-6.51 71.68 71.68 0 0 1 23.86 3.84 58.56 58.56 0 0 1 8.23 3.18 6.61 6.61 0 0 0 1.73.56.66.66 0 0 0-.31-.46 44.73 44.73 0 0 0-16.59-9.13 60.39 60.39 0 0 0-21-2.33 104.2 104.2 0 0 0-14.51 1.9 3.69 3.69 0 0 1-1.62.16c2.17-15.43 4.32-30.78 6.49-46.27a14.56 14.56 0 0 0-3.78 2.09 1 1 0 0 0-.37.8c-.12 1.42-.47 2.81-.68 4.23-.7 4.69-1.51 9.37-2.27 14.06q-2.64 16.55-5.27 33.09a1.91 1.91 0 0 0 0 1.31zM174.53 163a3.21 3.21 0 0 0 1.54-.67c1.23-.84 2.49-1.66 3.67-2.58 6.32-4.89 12.3-10.19 18.15-15.64 3-2.81 6.05-5.64 8.89-8.65a91.52 91.52 0 0 0 8.1-9.39 25.52 25.52 0 0 0 3.83-7.19 6.35 6.35 0 0 0 .07-4.15 1.75 1.75 0 0 0-2.18-1.24 9.22 9.22 0 0 0-1.15.29c-2.1.58-4.09 1.58-6.33 1.57-.18.7-.33 1.34-.51 2a55 55 0 0 1-5.63 13A68 68 0 0 1 189 148c-2.35 2.06-4.61 4.21-6.88 6.36a95.39 95.39 0 0 0-7 7.33c-.3.36-.73.66-.59 1.31zM135 115.3c-1.87.2-3.49-.53-5.13-1.1a20.32 20.32 0 0 0-2.28-.64 1.71 1.71 0 0 0-2.21 1.14 5.3 5.3 0 0 0-.11 3.62 20.92 20.92 0 0 0 1.8 4.38 36 36 0 0 0 5.1 7.1c1.88 2.09 3.66 4.27 5.65 6.24 6.73 6.7 13.69 13.16 21 19.26a117.47 117.47 0 0 0 9.84 7.53 1.31 1.31 0 0 0 1.17.15 15.75 15.75 0 0 0-2.52-3.25c-4-4.21-8.24-8.19-12.55-12.07-8-7.17-13.54-16-17.74-25.75a35.14 35.14 0 0 1-2.02-6.61zm29.85 131a3.49 3.49 0 0 0 1.63-.9c2.27-1.66 4.52-3.35 6.79-5 .88-.65 1-.63 1.85 0l7.32 5.4c.22.16.37.5.86.32l-3.41-10.59 9.07-6.53a1.5 1.5 0 0 0-1-.15h-9.37c-.55 0-1.05 0-1.21-.72-.73-3.22-2.16-6.23-2.9-9.45-.09-.38-.32-.35-.61-.31l-3.33 10.49h-11.22l-.08.21 9.08 6.56c-1.16 3.51-2.32 7-3.51 10.66zm-9.29-120.44a6.92 6.92 0 0 0 1.62 2.55c2.38 3.22 4.8 6.4 7.13 9.65 1.85 2.57 3.58 5.22 5.39 7.82a3 3 0 0 1 .44 3 19.76 19.76 0 0 0-.94 4.78 1.55 1.55 0 0 0 .47 1.66l2.5-4.74a23.85 23.85 0 0 0 2 4.11c.16.26.32.55.73.34a5.56 5.56 0 0 0 0-1.95 32.53 32.53 0 0 0-1.09-4.71 2.11 2.11 0 0 1 .27-2c.62-.95 1.29-1.87 1.9-2.82 3.41-5.38 7.52-10.26 11.17-15.46.47-.66 1-1.27 1.67-2.14a6.26 6.26 0 0 0-2.59 1.23 79.51 79.51 0 0 1-7.09 5 9.43 9.43 0 0 0-3.61 3.93c-1 2.05-2.1 4.05-3 6.16-.1.25-.07.64-.53.69a3.13 3.13 0 0 1-.61-1.12q-1.28-2.89-2.75-5.7a9.86 9.86 0 0 0-3.39-3.78c-2.05-1.34-4-2.77-6.07-4.16-1.18-.69-2.31-1.44-3.66-2.35zm27.42 23.86a1.74 1.74 0 0 0 .45-1 17.36 17.36 0 0 1 2.28-6.55 100 100 0 0 1 6.52-9.9c2.16-3 4.45-6 6.67-9 .75-1 1.45-2.08 2.35-3.37a5.87 5.87 0 0 0-1.77.9c-2.35 1.71-4.64 3.49-7.12 5a12 12 0 0 0-4.64 5.07c-2.42 5-5 9.87-5.82 15.46a3.77 3.77 0 0 0 1.04 3.38zm-21.8-.11c.43-.08.49-.48.62-.78a6.67 6.67 0 0 0 .13-4.39 62.66 62.66 0 0 0-6.54-15.35 7.54 7.54 0 0 0-2.06-2.19c-1.08-.85-2.32-1.44-3.42-2.24-1.82-1.32-3.63-2.63-5.46-3.93a1.9 1.9 0 0 0-1.28-.55c0 .46.3.67.5.94 4.36 6 8.91 11.78 13 18 1.93 3 3.63 6 4.13 9.6a1.17 1.17 0 0 0 .34.88z"/><path d="M209.66 307.35a50.93 50.93 0 0 1-6-.85l4.2-10.37h.23c.52 3.66 1.03 7.31 1.57 11.22zM284.3 317.32l.11-.17a.31.31 0 0 1 0 .15c0 .08-.1.07-.17 0zM94.15 323.76l-2-7.16c2.15-.66 4.13-1.5 6.32-1.47a3 3 0 0 1 3.23 2.18 3.49 3.49 0 0 1-1.13 4 5.54 5.54 0 0 1-1.46.87c-.58.21-1.14.45-1.73.63-.99.33-2 .6-3.23.95zM91.1 312.85c-.74-2-1.12-4.06-1.75-6.15a19.3 19.3 0 0 1 5.26-1.26c1.64 0 2.49.55 2.91 1.93a2.9 2.9 0 0 1-1.19 3.63 13.91 13.91 0 0 1-5.23 1.85zM246.59 313.79c2-3.29 3.89-6.43 5.78-9.57h.22c-.08 3.71-.16 7.43-.24 11.24a58 58 0 0 1-5.76-1.67zM70 324.84l-1.19-11c2.48 2.8 4.6 5.87 7 8.91-1.99.64-3.75 1.5-5.81 2.09zM167.3 184.5c.08-.07.14-.06.17.05s0 .06 0 .1l-.11-.17zM129.26 354.33v1.85h-4.78v2.94h3.66v1.82h-3.66v4.84h-2.3v-11.45zM133.24 365.14a5.62 5.62 0 0 1-2.13-2.09 6.17 6.17 0 0 1 0-6 5.62 5.62 0 0 1 2.13-2.09 6.14 6.14 0 0 1 5.92 0 5.6 5.6 0 0 1 2.12 2.09 6.24 6.24 0 0 1 0 6 5.55 5.55 0 0 1-2.13 2.09 6.12 6.12 0 0 1-5.91 0zm4.78-1.76a3.26 3.26 0 0 0 1.23-1.34 4.45 4.45 0 0 0 .44-2 4.38 4.38 0 0 0-.44-2 3.27 3.27 0 0 0-1.23-1.32 3.52 3.52 0 0 0-1.82-.46 3.55 3.55 0 0 0-1.83.46 3.16 3.16 0 0 0-1.24 1.32 4.26 4.26 0 0 0-.45 2 4.33 4.33 0 0 0 .45 2 3.16 3.16 0 0 0 1.24 1.34 3.55 3.55 0 0 0 1.83.46 3.52 3.52 0 0 0 1.8-.46zM146 354.33v7.09a2.46 2.46 0 0 0 .6 1.78 2.72 2.72 0 0 0 3.43 0 2.42 2.42 0 0 0 .61-1.78v-7.09H153v7.07a4.58 4.58 0 0 1-.64 2.47 4 4 0 0 1-1.69 1.52 5.33 5.33 0 0 1-2.35.51 5.17 5.17 0 0 1-2.32-.51 3.85 3.85 0 0 1-1.65-1.52 4.66 4.66 0 0 1-.61-2.47v-7.07zM165 365.78h-2.3l-5.2-7.86v7.86h-2.3v-11.47h2.3l5.2 7.88v-7.88h2.3zM174.44 355a5 5 0 0 1 2.12 2 6 6 0 0 1 .75 3 5.87 5.87 0 0 1-.75 3 5.06 5.06 0 0 1-2.12 2 6.82 6.82 0 0 1-3.17.7h-4v-11.37h4a6.82 6.82 0 0 1 3.17.67zm-.46 7.81a3.76 3.76 0 0 0 1-2.77 3.88 3.88 0 0 0-1-2.8 3.74 3.74 0 0 0-2.79-1h-1.63v7.57h1.63a3.77 3.77 0 0 0 2.81-.97zM186.05 363.6h-4.56l-.75 2.18h-2.42l4.12-11.47h2.68l4.12 11.47h-2.43zm-.62-1.84l-1.66-4.76-1.65 4.79zM198.58 354.33v1.85h-3.06v9.6h-2.29v-9.6h-3.06v-1.85zM202.55 354.33v11.45h-2.3v-11.45zM207.18 365.14a5.65 5.65 0 0 1-2.14-2.09 6.17 6.17 0 0 1 0-6 5.65 5.65 0 0 1 2.14-2.09 6.12 6.12 0 0 1 5.91 0 5.6 5.6 0 0 1 2.12 2.09 6.24 6.24 0 0 1 0 6 5.55 5.55 0 0 1-2.13 2.09 6.11 6.11 0 0 1-5.9 0zm4.77-1.76a3.14 3.14 0 0 0 1.23-1.34 4.33 4.33 0 0 0 .45-2 4.26 4.26 0 0 0-.45-2 3.14 3.14 0 0 0-1.23-1.32 3.49 3.49 0 0 0-1.82-.46 3.55 3.55 0 0 0-1.83.46 3.23 3.23 0 0 0-1.24 1.32 4.38 4.38 0 0 0-.44 2 4.45 4.45 0 0 0 .44 2 3.22 3.22 0 0 0 1.24 1.34 3.55 3.55 0 0 0 1.83.46 3.49 3.49 0 0 0 1.87-.46zM227.49 365.78h-2.3l-5.2-7.86v7.86h-2.3v-11.47H220l5.2 7.88v-7.88h2.3zM158.22 383c1.05-.87 1.89-1.61 2.51-2.19a10 10 0 0 0 1.56-1.83 3.39 3.39 0 0 0 .62-1.87 2 2 0 0 0-.39-1.31 1.48 1.48 0 0 0-1.21-.48 1.53 1.53 0 0 0-1.27.55 2.44 2.44 0 0 0-.46 1.5h-2.23a3.75 3.75 0 0 1 4-4 3.91 3.91 0 0 1 2.87 1 3.5 3.5 0 0 1 1 2.62 4.7 4.7 0 0 1-.69 2.44 9.53 9.53 0 0 1-1.57 2c-.59.57-1.36 1.27-2.32 2.08h4.84v1.9h-8.1v-1.71zM167.94 375a4.42 4.42 0 0 1 6.82 0 8.26 8.26 0 0 1 1 4.45 8.42 8.42 0 0 1-1 4.48 4.4 4.4 0 0 1-6.82 0 8.42 8.42 0 0 1-1-4.48 8.26 8.26 0 0 1 1-4.45zm5.42 2.4a2.73 2.73 0 0 0-.62-1.35 2.09 2.09 0 0 0-2.78 0 2.73 2.73 0 0 0-.62 1.35 11.68 11.68 0 0 0-.16 2.05 12.29 12.29 0 0 0 .15 2.09 2.72 2.72 0 0 0 .62 1.36 1.84 1.84 0 0 0 1.4.52 1.8 1.8 0 0 0 1.39-.52 2.65 2.65 0 0 0 .63-1.36 12.29 12.29 0 0 0 .15-2.09 11.68 11.68 0 0 0-.16-2.05zM177.24 375.74v-2.12h4v12h-2.37v-9.84zM184.49 375a4.41 4.41 0 0 1 6.81 0 8.26 8.26 0 0 1 1 4.45 8.42 8.42 0 0 1-1 4.48 4.39 4.39 0 0 1-6.81 0 8.32 8.32 0 0 1-1-4.48 8.16 8.16 0 0 1 1-4.45zm5.41 2.4a2.73 2.73 0 0 0-.62-1.35 2.07 2.07 0 0 0-2.77 0 2.74 2.74 0 0 0-.63 1.35 11.79 11.79 0 0 0-.15 2.05 13.55 13.55 0 0 0 .14 2.09 2.65 2.65 0 0 0 .63 1.36 1.8 1.8 0 0 0 1.39.52 1.83 1.83 0 0 0 1.4-.52 2.72 2.72 0 0 0 .62-1.36 12.29 12.29 0 0 0 .15-2.09 10.78 10.78 0 0 0-.16-2.05zM110.08 378.81h41.49v1.32h-41.49zM198.1 378.81h41.49v1.32H198.1z"/></g></svg>