<svg clip-rule="evenodd" fill-rule="evenodd" height="458" image-rendering="optimizeQuality" shape-rendering="geometricPrecision" text-rendering="geometricPrecision" viewBox="-0.065 -0.0016594842861294978 32.49699999999999 5.966659484286129" width="2500" xmlns="http://www.w3.org/2000/svg"><path d="M7.191 3.097l1.661 2.419H3.135c.588-.255 1.219-.57 1.86-.939l.028-.015a17.606 17.606 0 0 0 2.168-1.465zM5.445.554l.836 1.217c-.547.489-1.313 1.036-2.204 1.551-.996.575-1.95.995-2.687 1.209L4.11.569C4.48.03 5.081.023 5.445.554z" fill="#1a1a1a"/><path d="M6.761.377c.992-.301 1.711-.324 1.9.003.354.613-1.287 2.223-3.666 3.596C2.617 5.349.402 5.965.048 5.352c-.113-.195-.023-.491.228-.848-.039.124-.037.23.01.312.293.507 2.198-.045 4.254-1.232C6.597 2.396 8.027 1.023 7.735.516 7.622.32 7.269.282 6.761.377z" fill="#004dff"/><g fill-rule="nonzero"><path d="M10.684 3.459a.703.703 0 0 1-.465-.157c-.126-.105-.188-.256-.188-.453 0-.149.076-.287.228-.412.153-.126.393-.22.72-.284l.172-.031.2-.035V1.71c0-.216-.027-.367-.079-.455a.266.266 0 0 0-.245-.131.23.23 0 0 0-.181.074c-.045.049-.073.134-.086.255l-.01.052c-.006.137-.039.237-.1.301a.298.298 0 0 1-.224.095.292.292 0 0 1-.205-.076.268.268 0 0 1-.081-.205c0-.13.046-.24.136-.329.091-.089.211-.156.36-.2s.311-.067.486-.067c.283 0 .501.069.655.208.154.138.231.362.231.674v1.053c0 .143.067.214.2.214h.105l.043.038a.69.69 0 0 1-.198.176.6.6 0 0 1-.302.062c-.14 0-.25-.032-.331-.097s-.135-.152-.16-.26a1.989 1.989 0 0 1-.293.26.657.657 0 0 1-.388.107zm.29-.291a.372.372 0 0 0 .179-.045c.055-.03.121-.077.198-.141v-.8l-.096.019a.732.732 0 0 0-.459.212.502.502 0 0 0-.132.365c0 .13.031.227.091.293.06.065.133.097.219.097zm2.664.291c-.216 0-.412-.047-.589-.141a1.037 1.037 0 0 1-.419-.409 1.31 1.31 0 0 1-.155-.66c0-.258.057-.478.169-.66a1.12 1.12 0 0 1 .453-.419c.189-.097.396-.146.622-.146.184 0 .34.03.467.091.127.06.224.139.291.236a.53.53 0 0 1 .1.302.265.265 0 0 1-.081.207.296.296 0 0 1-.21.074.28.28 0 0 1-.224-.1.455.455 0 0 1-.1-.262.993.993 0 0 1 .005-.178.636.636 0 0 0 0-.151c-.013-.054-.033-.089-.06-.107a.208.208 0 0 0-.112-.026.502.502 0 0 0-.45.253c-.107.168-.16.436-.16.805 0 .321.06.566.179.736s.303.255.55.255c.15 0 .27-.027.362-.081a.963.963 0 0 0 .267-.243l.048.038a.909.909 0 0 1-.367.433 1.094 1.094 0 0 1-.586.153zm1.839 0a.702.702 0 0 1-.464-.157c-.126-.105-.189-.256-.189-.453 0-.149.077-.287.229-.412.153-.126.393-.22.72-.284l.171-.031.2-.035V1.71c0-.216-.026-.367-.078-.455a.267.267 0 0 0-.246-.131.234.234 0 0 0-.181.074c-.044.049-.073.134-.085.255l-.01.052c-.006.137-.04.237-.1.301a.298.298 0 0 1-.224.095.29.29 0 0 1-.205-.076.268.268 0 0 1-.081-.205c0-.13.045-.24.136-.329a.836.836 0 0 1 .36-.2 1.71 1.71 0 0 1 .486-.067c.282 0 .501.069.655.208.154.138.231.362.231.674v1.053c0 .143.067.214.2.214h.105l.043.038a.69.69 0 0 1-.198.176.6.6 0 0 1-.302.062c-.14 0-.251-.032-.332-.097s-.134-.152-.159-.26a2.04 2.04 0 0 1-.293.26.658.658 0 0 1-.389.107zm.291-.291a.372.372 0 0 0 .179-.045c.055-.03.121-.077.197-.141v-.8l-.095.019c-.032.006-.068.013-.109.019a.735.735 0 0 0-.351.193.505.505 0 0 0-.131.365c0 .13.03.227.091.293.06.065.133.097.219.097zm2.492.291c-.187 0-.356-.042-.505-.126-.149-.085-.268-.215-.355-.391s-.131-.403-.131-.679c0-.28.049-.511.148-.693a.988.988 0 0 1 .391-.41c.161-.09.338-.136.528-.136.112 0 .218.011.32.034a.957.957 0 0 1 .271.1v-.62a.27.27 0 0 0-.031-.147c-.02-.032-.064-.054-.131-.067l-.09-.019V.257l.867-.209.052.042-.019.668v2.329c0 .064.012.115.034.155s.063.068.124.083l.043.015v.047l-.815.053-.043-.172a1.182 1.182 0 0 1-.658.191zm.277-.176c.133 0 .255-.04.366-.12V1.272a.657.657 0 0 0-.362-.114c-.152 0-.282.088-.39.264s-.162.453-.162.831.05.644.152.799c.102.154.234.231.396.231zm2.644-2.259c.207 0 .383.042.529.127a.86.86 0 0 1 .336.343c.078.144.117.308.117.493 0 .035-.002.07-.005.107a.406.406 0 0 1-.019.098h-1.42c.003.343.064.589.183.74.12.151.297.227.532.227a.84.84 0 0 0 .386-.077.942.942 0 0 0 .276-.223l.048.042a1.1 1.1 0 0 1-.393.41c-.164.099-.36.148-.589.148-.225 0-.426-.049-.6-.145a1.023 1.023 0 0 1-.41-.417 1.331 1.331 0 0 1-.148-.648c0-.261.057-.482.172-.665a1.187 1.187 0 0 1 1.005-.56zm-.014.096c-.092 0-.171.027-.236.083s-.116.154-.152.295a2.615 2.615 0 0 0-.06.598h.815c.032-.346.019-.595-.038-.748a.324.324 0 0 0-.329-.228zm3.588 2.267V3.34l.072-.019c.063-.019.107-.048.131-.086a.282.282 0 0 0 .035-.148V1.596a.275.275 0 0 0-.035-.155c-.024-.033-.068-.056-.131-.069l-.072-.019v-.048l.82-.276.047.048.043.409v.039a.99.99 0 0 1 .412-.429.538.538 0 0 1 .26-.072c.121 0 .213.034.277.1a.355.355 0 0 1 .095.253c0 .108-.031.191-.093.25s-.136.088-.222.088c-.133 0-.251-.067-.352-.2l-.01-.01c-.032-.044-.068-.069-.109-.073-.042-.005-.08.015-.115.059a.346.346 0 0 0-.078.103 1.154 1.154 0 0 0-.06.135v1.33c0 .127.056.206.167.238l.152.043v.047zm2.697.072a.702.702 0 0 1-.464-.157c-.126-.105-.189-.256-.189-.453 0-.149.077-.287.229-.412.153-.126.392-.22.72-.284l.171-.031.2-.035V1.71c0-.216-.026-.367-.078-.455a.268.268 0 0 0-.246-.131.234.234 0 0 0-.181.074c-.044.049-.073.134-.086.255l-.009.052c-.006.137-.04.237-.1.301a.3.3 0 0 1-.224.095.29.29 0 0 1-.205-.076.268.268 0 0 1-.081-.205c0-.13.045-.24.136-.329a.836.836 0 0 1 .36-.2 1.71 1.71 0 0 1 .486-.067c.282 0 .501.069.655.208.154.138.231.362.231.674v1.053c0 .143.067.214.2.214h.105l.043.038a.704.704 0 0 1-.198.176.6.6 0 0 1-.303.062c-.139 0-.25-.032-.331-.097s-.134-.152-.159-.26a2.04 2.04 0 0 1-.293.26.658.658 0 0 1-.389.107zm.291-.291a.374.374 0 0 0 .179-.045c.055-.03.121-.077.197-.141v-.8l-.095.019c-.032.006-.068.013-.11.019a.736.736 0 0 0-.35.193.505.505 0 0 0-.131.365c0 .13.03.227.091.293.06.065.133.097.219.097zm1.491.219V3.34l.062-.015c.061-.015.108-.043.143-.083s.053-.091.053-.155c0-.117 0-.234.002-.35s.002-.233.002-.35V1.191h-.266v-.052l.104-.019c.064-.007.11-.029.139-.067a.393.393 0 0 0 .062-.157c.031-.124.078-.233.14-.327a1.7 1.7 0 0 1 .212-.259c.121-.115.249-.195.384-.241S30.538 0 30.669 0a.76.76 0 0 1 .348.079.27.27 0 0 1 .157.259.274.274 0 0 1-.076.203.298.298 0 0 1-.215.074.382.382 0 0 1-.21-.062.642.642 0 0 1-.185-.22l-.067-.081c-.035-.044-.07-.065-.105-.064-.035.002-.06.028-.076.079a3.26 3.26 0 0 0-.05.39c-.011.15-.017.296-.017.439h.534v.095h-.534v1.887c0 .12.064.198.191.233l.119.029v.047zm2.531.072c-.204 0-.362-.051-.474-.153-.113-.101-.17-.263-.17-.486V1.191h-.328v-.048l.114-.019a.921.921 0 0 0 .255-.095 1.04 1.04 0 0 0 .212-.167l.391-.433h.047l-.014.667h.534v.095h-.539v1.715c0 .111.025.196.074.253s.112.085.188.085a.311.311 0 0 0 .177-.05.768.768 0 0 0 .152-.135l.048.047a.713.713 0 0 1-.262.258.811.811 0 0 1-.405.095zm-8.182 0c-.216 0-.412-.047-.589-.141a1.037 1.037 0 0 1-.419-.409 1.31 1.31 0 0 1-.155-.66c0-.258.057-.478.169-.66a1.12 1.12 0 0 1 .453-.419c.189-.097.396-.146.622-.146.184 0 .34.03.467.091.127.06.224.139.291.236a.53.53 0 0 1 .1.302.265.265 0 0 1-.081.207.296.296 0 0 1-.21.074.28.28 0 0 1-.224-.1.448.448 0 0 1-.1-.262.993.993 0 0 1 .005-.178.636.636 0 0 0 0-.151c-.013-.054-.033-.089-.06-.107a.208.208 0 0 0-.112-.026.502.502 0 0 0-.45.253c-.107.168-.16.436-.16.805 0 .321.06.566.179.736s.302.255.55.255c.15 0 .27-.027.362-.081a.977.977 0 0 0 .267-.243l.048.038a.914.914 0 0 1-.367.433 1.094 1.094 0 0 1-.586.153z" fill="#1a1a1a"/><path d="M10.697 5.225c0-.047-.017-.083-.05-.108s-.092-.052-.179-.08a1.187 1.187 0 0 1-.204-.082c-.137-.074-.205-.173-.205-.299 0-.065.018-.123.055-.174a.356.356 0 0 1 .158-.12.606.606 0 0 1 .461.004.347.347 0 0 1 .213.326h-.248a.166.166 0 0 0-.052-.129.219.219 0 0 0-.147-.045.228.228 0 0 0-.142.038.124.124 0 0 0-.05.102c0 .039.02.072.059.098a.7.7 0 0 0 .174.074c.142.043.244.096.309.159s.097.141.097.235a.29.29 0 0 1-.119.245.517.517 0 0 1-.318.089c-.093 0-.177-.017-.253-.051s-.134-.08-.175-.139a.366.366 0 0 1-.059-.206h.249c0 .133.079.199.238.199.059 0 .105-.012.138-.036s.05-.057.05-.1zm.625-.579l.008.1a.313.313 0 0 1 .257-.117c.115 0 .195.046.237.137a.31.31 0 0 1 .27-.137c.097 0 .169.029.216.085.048.057.071.142.071.255v.572h-.24v-.572c0-.051-.01-.088-.029-.111-.02-.024-.055-.035-.105-.035a.149.149 0 0 0-.149.102v.616h-.239V4.97c0-.052-.01-.09-.03-.113-.021-.023-.055-.034-.105-.034a.155.155 0 0 0-.147.084v.634h-.239v-.895zm1.762.895a.27.27 0 0 1-.024-.08.29.29 0 0 1-.226.097.32.32 0 0 1-.218-.076.246.246 0 0 1-.087-.193c0-.095.035-.167.106-.218a.514.514 0 0 1 .305-.077h.11v-.051a.149.149 0 0 0-.032-.099c-.021-.024-.055-.037-.101-.037a.14.14 0 0 0-.094.029.096.096 0 0 0-.035.078h-.239c0-.052.016-.1.048-.143a.308.308 0 0 1 .136-.104.494.494 0 0 1 .197-.038.39.39 0 0 1 .262.083.293.293 0 0 1 .098.234v.388c0 .085.012.149.035.193v.014zm-.198-.166a.206.206 0 0 0 .098-.024.16.16 0 0 0 .066-.063v-.154h-.09c-.119 0-.183.042-.191.124l-.001.014c0 .03.011.055.032.074s.049.029.086.029zm1.091-.505a.57.57 0 0 0-.086-.007c-.091 0-.15.031-.178.092v.586h-.239v-.895h.226l.006.106c.048-.082.115-.123.2-.123.026 0 .051.004.074.011zm.442-.444v.22h.153v.177h-.153v.446c0 .033.007.056.02.071.012.014.037.021.072.021.027 0 .05-.002.071-.005v.18a.472.472 0 0 1-.145.022c-.168 0-.254-.085-.257-.254v-.481h-.13v-.177h.13v-.22zm.972.691v.424h-.248V4.336h.47c.091 0 .17.017.239.05.068.033.121.08.158.141s.056.131.056.209a.348.348 0 0 1-.121.279.507.507 0 0 1-.336.102zm0-.201h.222c.066 0 .116-.016.15-.047.035-.03.052-.074.052-.132a.198.198 0 0 0-.052-.143.197.197 0 0 0-.144-.056h-.228zm1.231.642a.44.44 0 0 1-.32-.121.427.427 0 0 1-.124-.322v-.023c0-.09.017-.17.052-.241s.084-.126.148-.164.136-.058.218-.058c.122 0 .219.039.289.116.07.078.105.187.105.329v.098h-.57a.227.227 0 0 0 .07.14.213.213 0 0 0 .148.053.26.26 0 0 0 .216-.1l.118.132a.364.364 0 0 1-.146.118.469.469 0 0 1-.204.043zm-.027-.735a.152.152 0 0 0-.116.048.25.25 0 0 0-.056.138h.332V4.99a.177.177 0 0 0-.043-.124c-.027-.029-.066-.043-.117-.043zm.493.262a.52.52 0 0 1 .052-.237.379.379 0 0 1 .147-.162.431.431 0 0 1 .224-.057c.121 0 .219.037.296.111a.45.45 0 0 1 .128.301l.001.062a.466.466 0 0 1-.115.33c-.076.083-.179.125-.308.125s-.232-.042-.309-.124a.477.477 0 0 1-.116-.338zm.239.017c0 .085.016.15.048.195s.078.068.138.068a.158.158 0 0 0 .135-.067c.033-.044.049-.115.049-.213a.33.33 0 0 0-.049-.194c-.032-.046-.078-.068-.137-.068s-.104.022-.136.068c-.032.045-.048.116-.048.211zm1.563 0a.533.533 0 0 1-.094.331.3.3 0 0 1-.253.125.28.28 0 0 1-.22-.094v.421h-.239V4.646h.222l.008.088a.281.281 0 0 1 .227-.105c.11 0 .196.041.257.123s.092.194.092.337zm-.239-.018a.356.356 0 0 0-.044-.193.144.144 0 0 0-.129-.068c-.075 0-.126.028-.155.086v.367c.029.059.082.089.157.089.114 0 .171-.094.171-.281zm.64.457h-.24V4.27h.24zm.609.017a.444.444 0 0 1-.321-.121.43.43 0 0 1-.123-.322v-.023c0-.09.017-.17.052-.241s.084-.126.148-.164a.415.415 0 0 1 .218-.058c.122 0 .219.039.289.116.07.078.105.187.105.329v.098h-.57c.008.058.031.105.07.14s.088.053.148.053a.26.26 0 0 0 .216-.1l.117.132a.36.36 0 0 1-.145.118.469.469 0 0 1-.204.043zm-.027-.735a.15.15 0 0 0-.116.048.25.25 0 0 0-.056.138h.332V4.99a.177.177 0 0 0-.043-.124c-.027-.029-.066-.043-.117-.043zm.593 1.02l-.125-.066.03-.053a.454.454 0 0 0 .057-.201v-.185h.202l-.001.165a.482.482 0 0 1-.163.34zm1.414-.618c0-.047-.016-.083-.05-.108a.648.648 0 0 0-.178-.08 1.202 1.202 0 0 1-.205-.082c-.137-.074-.205-.173-.205-.299 0-.065.018-.123.055-.174s.089-.091.158-.12a.61.61 0 0 1 .461.004.347.347 0 0 1 .213.326h-.248a.163.163 0 0 0-.052-.129.219.219 0 0 0-.147-.045c-.06 0-.107.012-.141.038s-.051.06-.051.102c0 .039.02.072.059.098.04.026.098.051.175.074a.752.752 0 0 1 .308.159.313.313 0 0 1 .097.235c0 .104-.039.186-.118.245s-.185.089-.319.089c-.093 0-.177-.017-.253-.051s-.134-.08-.174-.139-.06-.128-.06-.206h.249c0 .133.079.199.238.199a.231.231 0 0 0 .138-.036.114.114 0 0 0 .05-.1zm.625-.579l.008.1a.313.313 0 0 1 .257-.117c.116 0 .195.046.238.137a.307.307 0 0 1 .269-.137c.097 0 .169.029.216.085.048.057.072.142.072.255v.572h-.24v-.572c0-.051-.01-.088-.03-.111-.02-.024-.055-.035-.105-.035a.149.149 0 0 0-.149.102l.001.616h-.239V4.97c0-.052-.011-.09-.031-.113s-.055-.034-.104-.034a.157.157 0 0 0-.148.084v.634h-.239v-.895zm1.762.895a.27.27 0 0 1-.024-.08.288.288 0 0 1-.226.097.32.32 0 0 1-.218-.076.246.246 0 0 1-.087-.193c0-.095.036-.167.106-.218s.172-.077.305-.077h.11v-.051a.149.149 0 0 0-.032-.099c-.021-.024-.055-.037-.101-.037-.04 0-.071.01-.094.029s-.035.045-.035.078h-.239c0-.052.016-.1.048-.143.032-.045.078-.079.136-.104s.124-.038.197-.038c.11 0 .198.028.263.083a.292.292 0 0 1 .097.234v.388a.424.424 0 0 0 .036.193v.014zm-.198-.166a.206.206 0 0 0 .098-.024.15.15 0 0 0 .066-.063v-.154h-.089c-.12 0-.184.042-.192.124v.014c0 .03.01.055.031.074s.05.029.086.029zm1.091-.505a.57.57 0 0 0-.086-.007c-.091 0-.15.031-.178.092v.586h-.239v-.895h.226l.006.106c.048-.082.115-.123.2-.123.026 0 .051.004.074.011zm.443-.444v.22h.153v.177h-.153v.446c0 .033.006.056.019.071.012.014.037.021.073.021a.49.49 0 0 0 .07-.005v.18a.472.472 0 0 1-.145.022c-.168 0-.253-.085-.256-.254v-.481h-.131v-.177h.131v-.22zm1.669.714a.424.424 0 0 1-.143.306.503.503 0 0 1-.342.112.452.452 0 0 1-.364-.156c-.089-.104-.133-.247-.133-.429V4.9c0-.116.02-.218.061-.307a.46.46 0 0 1 .44-.274c.139 0 .251.038.336.112s.134.179.147.314h-.248c-.006-.078-.028-.135-.065-.17s-.094-.052-.17-.052c-.083 0-.145.029-.186.089a.497.497 0 0 0-.063.276v.091c0 .13.019.225.059.285.039.06.101.091.186.091.077 0 .134-.018.172-.053s.059-.089.065-.162zm.11-.055c0-.088.017-.168.051-.237a.387.387 0 0 1 .148-.162.431.431 0 0 1 .224-.057c.121 0 .219.037.296.111a.444.444 0 0 1 .127.301l.002.062c0 .137-.038.247-.115.33s-.179.125-.309.125a.404.404 0 0 1-.309-.124.476.476 0 0 1-.115-.338zm.239.017c0 .085.016.15.048.195s.078.068.137.068a.16.16 0 0 0 .136-.067c.033-.044.049-.115.049-.213a.33.33 0 0 0-.049-.194c-.032-.046-.078-.068-.137-.068s-.104.022-.136.068c-.032.045-.048.116-.048.211zm.977-.456l.008.104a.308.308 0 0 1 .257-.121c.095 0 .165.028.212.084.046.056.07.139.071.25v.578h-.239v-.574c0-.05-.011-.087-.033-.11s-.059-.034-.111-.034a.163.163 0 0 0-.151.086v.632h-.239v-.895zm1.015-.22v.22h.153v.177h-.153v.446c0 .033.007.056.02.071.012.014.037.021.072.021.027 0 .05-.002.071-.005v.18a.472.472 0 0 1-.145.022c-.168 0-.254-.085-.257-.254v-.481h-.13v-.177h.13v-.22zm.699 1.132a.444.444 0 0 1-.321-.121.43.43 0 0 1-.124-.322v-.023c0-.09.018-.17.053-.241a.375.375 0 0 1 .148-.164.415.415 0 0 1 .218-.058c.122 0 .218.039.289.116.07.078.105.187.105.329v.098h-.57c.008.058.031.105.07.14s.088.053.148.053a.26.26 0 0 0 .216-.1l.117.132a.357.357 0 0 1-.146.118.468.468 0 0 1-.203.043zm-.027-.735a.15.15 0 0 0-.116.048.25.25 0 0 0-.056.138h.332V4.99c-.001-.053-.015-.095-.043-.124s-.066-.043-.117-.043zm.75-.177l.008.104a.31.31 0 0 1 .257-.121c.095 0 .166.028.212.084.047.056.07.139.071.25v.578h-.239v-.574c0-.05-.011-.087-.033-.11s-.059-.034-.11-.034a.162.162 0 0 0-.151.086v.632h-.24v-.895zm1.016-.22v.22h.153v.177h-.153v.446c0 .033.006.056.019.071.013.014.037.021.073.021.026 0 .05-.002.07-.005v.18a.472.472 0 0 1-.145.022c-.167 0-.253-.085-.256-.254v-.481h-.131v-.177h.131v-.22z" fill="#4d4d4d"/></g></svg>