<svg height="778" viewBox=".174 .211 264.239 81.855" width="2500" xmlns="http://www.w3.org/2000/svg"><g fill="#1e1852" stroke-width=".727"><path d="m105.333 82.023h-11.485c-4.84 0-7.305-1.098-9.064-3.475-1.89-2.551-1.89-6.425-1.89-10.082v-68.226h14.792v70.43c0 5.59.574 9.551 7.662 11.136v.218zm-30.239 0h-18.484l-13.6-29.977c-7.437 4.092-11.667 13.556-19.19 19.808-3.831 3.212-8.316 6.033-13.913 7.966-2.508.88-6.825 1.977-8.454 2.16-.705.086-1.14.043-1.235-.219-.044-.218.087-.349.835-.705.836-.393 4.224-1.846 6.339-3.344 2.639-1.89 4.18-3.918 4.31-5.502-.705-2.595-5.938-8.41-.617-19.016 1.89-3.83 3.561-6.556 4.71-9.333 1.366-3.17 2.333-7.618 2.638-10.962q.044-.218.175-.087c2.595 2.682 12.633 13.12 11.18 23.551 3.343-1.323 9.107-5.284 11.797-7.348 2.82-2.247 4.666-4.536 7.661-4.58 2.639-.044 2.908 1.28 5.016 1.541.53.087 1.323-.044 1.715-.218.175-.087.131-.262-.13-.349-2.908-.705-3.613-3.082-7.35-3.082-3.343 0-6.033 3.126-7.966 4.449l-9.508-20.07c-3.961-8.41-2.77-14.48 5.99-26.495l38.074 81.826zm58.457 0h-11.485c-4.841 0-7.305-1.098-9.064-3.475-1.89-2.551-1.89-6.425-1.89-10.082v-68.226h14.792v70.43c0 5.59.574 9.551 7.662 11.136v.218zm17.692-62.149h-5.458l-.75 1.759h-2.907l5.852-13.513h1.097l5.852 13.513h-2.908l-.792-1.76zm-2.682-6.782-1.759 4.536h3.518zm21.131-4.311c1.01.618 1.846 1.41 2.42 2.465l-2.071 1.453c-.967-1.497-2.203-2.246-3.83-2.246-1.237 0-2.247.393-3.083 1.236-.836.836-1.236 1.89-1.236 3.213s.393 2.377 1.236 3.169c.836.836 1.846 1.236 3.082 1.236 1.628 0 2.864-.749 3.83-2.246l2.072 1.453c-.574 1.054-1.366 1.847-2.42 2.465-1.054.617-2.203.88-3.475.88-2.028 0-3.7-.662-5.015-1.978-1.367-1.323-2.028-2.995-2.028-5.016s.705-3.612 2.071-4.971c1.367-1.323 3.039-1.978 5.016-1.978 1.28 0 2.42.306 3.43.88zm18.172 0c1.01.618 1.846 1.41 2.42 2.465l-2.07 1.453c-.968-1.497-2.203-2.246-3.832-2.246-1.235 0-2.246.393-3.082 1.236-.836.836-1.235 1.89-1.235 3.213s.392 2.377 1.235 3.169c.836.836 1.847 1.236 3.082 1.236 1.629 0 2.864-.749 3.831-2.246l2.072 1.453c-.575 1.054-1.367 1.847-2.42 2.465-1.055.617-2.203.88-3.475.88-2.028 0-3.7-.662-5.016-1.978-1.366-1.323-2.028-2.995-2.028-5.016s.705-3.612 2.072-4.971c1.366-1.323 3.038-1.978 5.015-1.978 1.28 0 2.42.306 3.431.88zm19.721 1.142c1.366 1.323 2.071 2.994 2.071 4.972 0 1.977-.705 3.612-2.071 5.015-1.367 1.323-3.039 1.977-5.016 1.977s-3.656-.661-4.972-1.977c-1.366-1.323-2.071-2.995-2.071-5.015 0-2.021.705-3.613 2.071-4.972 1.367-1.323 3.039-1.978 4.972-1.978 1.934-.043 3.613.618 5.016 1.978zm-8.054 1.759c-.836.836-1.236 1.89-1.236 3.213 0 1.322.393 2.376 1.236 3.212.792.836 1.846 1.236 3.082 1.236 1.235 0 2.246-.392 3.038-1.236.836-.836 1.236-1.89 1.236-3.212 0-1.323-.393-2.377-1.236-3.213-.836-.836-1.846-1.236-3.038-1.236-1.28 0-2.29.392-3.082 1.236zm24.692 9.951-3.43-4.754h-2.029v4.754h-2.726v-13.513h4.972c1.41 0 2.552.392 3.431 1.185.88.792 1.367 1.846 1.367 3.169 0 .88-.175 1.628-.618 2.246a4.52 4.52 0 0 1 -1.715 1.541l3.787 5.328h-3.039zm-5.459-7.175h2.246c.618 0 1.098-.174 1.498-.53.349-.35.53-.836.53-1.41s-.174-1.01-.574-1.41c-.349-.35-.836-.531-1.497-.531h-2.246l.043 3.874z"/><path d="m144.861 48.659h5.808v2.507h-8.54v-13.513h2.725v11.007zm14.175 2.507h-2.726v-13.513h2.726zm18.354-13.513-5.808 13.513h-1.098l-5.851-13.513h3.082l3.3 8.185 3.3-8.185h3.082zm14.53 2.465h-6.251v2.725h4.58v2.377h-4.58v3.431h6.47v2.508h-9.203v-13.513h8.977v2.464z"/><path d="m144.861 79.028h5.808v2.508h-8.54v-13.513h2.725v11.005zm14.175 2.508h-2.726v-13.513h2.726zm20.026-13.556v13.512h-2.726v-7.218l-3.344 4.267h-.88l-3.343-4.267v7.218h-2.726v-13.512h1.054l5.459 7.087 5.459-7.087h1.054zm9.733 13.556h-2.726v-13.513h2.726zm16.769-11.042h-4.267v11.006h-2.726v-11.006h-4.267v-2.464h11.267v2.464zm8.316 8.534h5.807v2.508h-8.54v-13.513h2.725v11.005zm20.425-8.534h-6.251v2.726h4.58v2.377h-4.58v3.431h6.47v2.508h-9.203v-13.513h8.977v2.464zm13.026-2.028a5.405 5.405 0 0 1 1.76 1.847l-1.847 1.453c-.705-1.01-1.541-1.584-2.508-1.584-.443 0-.836.087-1.185.349-.305.218-.443.53-.443.966 0 .35.13.618.349.836.218.218.618.444 1.235.705l1.498.662c1.097.487 1.933 1.054 2.508 1.672.53.618.836 1.366.836 2.246 0 1.236-.444 2.202-1.323 2.951-.88.749-1.978 1.098-3.344 1.098-1.098 0-2.159-.262-3.039-.793-.879-.53-1.628-1.279-2.115-2.159l1.89-1.453c.923 1.323 1.977 1.977 3.257 1.977.574 0 1.054-.131 1.366-.393.313-.261.487-.618.487-1.097a1.24 1.24 0 0 0 -.218-.749 1.869 1.869 0 0 0 -.53-.487c-.219-.087-.488-.262-.967-.487l-1.454-.662c-1.054-.487-1.846-1.01-2.377-1.628-.574-.618-.836-1.366-.836-2.246 0-1.141.443-2.071 1.236-2.77.836-.704 1.89-1.053 3.169-1.053.967.087 1.89.305 2.595.792zm14.879 0a5.405 5.405 0 0 1 1.76 1.847l-1.847 1.453c-.705-1.01-1.54-1.584-2.508-1.584-.443 0-.835.087-1.184.349-.306.218-.444.53-.444.966 0 .35.131.618.35.836.217.218.617.444 1.235.705l1.497.662c1.098.487 1.934 1.054 2.508 1.672.53.618.836 1.366.836 2.246 0 1.236-.443 2.202-1.323 2.951s-1.977 1.098-3.344 1.098a6 6 0 0 1 -3.038-.793c-.88-.53-1.628-1.279-2.115-2.159l1.89-1.453c.923 1.323 1.977 1.977 3.256 1.977.574 0 1.054-.131 1.367-.393.312-.261.487-.618.487-1.097a1.24 1.24 0 0 0 -.219-.749 1.869 1.869 0 0 0 -.53-.487c-.175-.087-.487-.262-.967-.487l-1.454-.662c-1.054-.487-1.846-1.01-2.377-1.628-.574-.618-.836-1.366-.836-2.246 0-1.141.444-2.071 1.236-2.77.836-.704 1.89-1.053 3.17-1.053.966.087 1.846.305 2.594.792z"/></g></svg>