<svg clip-rule="evenodd" fill-rule="evenodd" height="1415" stroke-linejoin="round" stroke-miterlimit="2" viewBox="0 0 278.431 157.592" width="2500" xmlns="http://www.w3.org/2000/svg"><path d="m158 7.994v141.604a7.997 7.997 0 0 1 -7.994 7.994h-142.012a7.997 7.997 0 0 1 -7.994-7.994v-141.604a7.998 7.998 0 0 1 7.994-7.994h142.012a7.998 7.998 0 0 1 7.994 7.994z" fill="#00de91"/><path d="m22.97 118.515 11.48-78.701h6.863l11.803 78.736-6.069.063-2.044-13.05-14.021-.004-1.929 13zm14.84-56.655-5.15 36.753 10.714-.404zm21.287 45.72.899-57.07c0-2.676.145-9.967 11.593-9.936 13.525.035 12.455 8.964 12.483 12.995l.028 18.994-6.03.059.028-20.193c.056-4.031-1.986-5.94-6.323-5.908-3.724.028-6.732 1.955-6.732 5.877l.056 54.109s.014 6.022 6.446 6.073c6.489.05 6.56-5.987 6.56-5.987l-.029-20.008 6.024.027.028 20.8c-.056 5.117-1.983 11.064-12.413 11.115-8.571.04-12.674-5.7-12.618-10.947zm33.969 10.955.006-78.09 4.97.11.04 78.046zm16.976.031-.069-78.098 14.09-.035c5.553 0 10.083 8.365 10.083 12.674l-.14 51.351c1.053 13.172-11.037 14.038-11.037 14.038zm19-14.198.035-49.921c0-2.08-4.004-7.89-6.05-7.89l-7.032-.071.07 65.118 7.038-.07c3.983.176 5.939-4.937 5.939-7.166zm49.971.664c5.311 0 9.47 1.285 12.477 3.855 3.004 2.528 4.509 6.087 4.509 10.675s-1.505 8.17-4.51 10.74c-3.006 2.524-7.165 3.79-12.476 3.79h-13.4v21.16h-1.235v-50.22zm.125 27.858c5.023 0 8.872-1.157 11.548-3.472 2.719-2.32 4.077-5.604 4.077-9.856 0-4.255-1.358-7.536-4.077-9.855-2.676-2.315-6.525-3.473-11.548-3.473h-13.524v26.656zm54.816 22.236-12.53-22.326c-1.465.288-3.18.434-5.147.434h-13.617v21.936h-1.256v-50.205h14.873c5.399 0 9.622 1.25 12.678 3.75 3.053 2.459 4.582 5.92 4.582 10.384 0 3.44-.941 6.33-2.824 8.665-1.885 2.292-4.54 3.87-7.972 4.73l12.781 22.632zm-17.55-23.062c5.103 0 9.015-1.126 11.734-3.378 2.763-2.255 4.143-5.451 4.143-9.587 0-4.14-1.38-7.331-4.143-9.587-2.719-2.252-6.63-3.378-11.734-3.378h-13.744v25.93zm43.661 24.284c-3.541 0-7.752-1.124-10.629-3.378-2.877-2.258-5.14-5.344-6.788-9.263-1.65-3.971-1.475-8.404-1.475-13.304 0-4.904-.176-9.31 1.475-13.234 1.648-3.97 3.911-7.079 6.788-9.337 2.877-2.254 7.088-3.378 10.629-3.378 3.543 0 7.052 1.08 9.93 3.334 2.876 2.258 5.14 5.366 6.788 9.338 1.648 3.918 1.176 8.373 1.176 13.277 0 4.9.472 9.29-1.176 13.26-1.648 3.92-3.912 7.006-6.789 9.264a16.1 16.1 0 0 1 -9.93 3.421zm0-1.394c3.333 0 6.65-1.099 9.35-3.204 2.737-2.158 4.878-5.096 6.421-8.823 1.579-3.775 1.07-7.92 1.07-12.524 0-4.607.509-8.818-1.07-12.54-1.543-3.776-3.684-6.718-6.42-8.823-2.701-2.158-6.018-3.191-9.351-3.191-3.33 0-7.367 1.076-10.103 3.234-2.701 2.11-4.842 5.048-6.421 8.823-1.544 3.722-1.315 7.89-1.315 12.497 0 4.603-.229 8.797 1.315 12.567 1.579 3.727 3.72 6.665 6.42 8.823 2.737 2.106 6.773 3.16 10.104 3.16z" fill-rule="nonzero"/></svg>