<svg viewBox="1 1 269 258" xmlns="http://www.w3.org/2000/svg" width="2500" height="2397"><path d="M132 259H1V1h269v258H132m110.256-50.282c20.676-29.368 10.606-68.094-21.535-82.963-8.352-3.864-17.17-4.81-26.242-4.93-17.306-.23-37.55-12.137-41.157-32.783-1.085-6.21-2.062-12.514-2.231-18.798-.594-22.039-18.563-39.816-40.57-39.726-22.074.091-40.053 17.871-40.358 39.911-.278 20.095 13.59 36.354 34.288 40.536 15.106 3.053 28.725 8.457 36.102 23.58 5.471 11.219 5.161 22.834 3.176 34.665-1.407 8.384-.655 16.63 2.085 24.611 6.89 20.07 20.81 32.861 41.54 36.903 21.966 4.282 40.3-3.02 54.902-21.006m-159.36-72.953c-.74-1.3-1.416-2.64-2.227-3.892-9.323-14.42-28.608-19.49-44.024-11.596-15.43 7.902-22.5 26.563-16.119 42.545 7.162 17.935 26.945 26.336 44.872 19.055 17.492-7.105 25.254-26.965 17.498-46.112z" fill="#f24a09"/><path d="M242.058 209.015c-14.404 17.688-32.738 24.991-54.704 20.709-20.73-4.042-34.65-16.834-41.54-36.903-2.74-7.98-3.492-16.227-2.085-24.61 1.985-11.832 2.295-23.447-3.176-34.665-7.377-15.124-20.996-20.528-36.102-23.58-20.698-4.183-34.566-20.442-34.288-40.537.305-22.04 18.284-39.82 40.358-39.91 22.007-.091 39.976 17.686 40.57 39.725.169 6.284 1.146 12.587 2.231 18.798 3.607 20.646 23.85 32.554 41.157 32.783 9.072.12 17.89 1.066 26.242 4.93 32.141 14.869 42.211 53.595 21.337 83.26z" fill="#fffefe"/><path d="M83.016 136.128c7.636 18.784-.126 38.644-17.618 45.749-17.927 7.28-37.71-1.12-44.872-19.055-6.382-15.982.689-34.643 16.12-42.545 15.415-7.895 34.7-2.824 44.023 11.596.81 1.253 1.488 2.592 2.347 4.255z" fill="#fffefd"/></svg>