<svg xmlns="http://www.w3.org/2000/svg" width="2500" height="2424" viewBox="-33.92300000000003 249.494 517.846 502.01200000000006"><g stroke-width="none" stroke-linecap="none" stroke-linejoin="none" stroke-miterlimit="10" font-family="none" font-weight="none" font-size="none" text-anchor="none" style="mix-blend-mode:normal"><path d="M236.356 258.333c66.462 51.735 123.027 116.83 164.476 188.623 41.45 71.792 69.541 153.327 81.114 236.752l1.977 14.254-13.333 5.414c-78.034 31.69-162.691 48.13-245.59 48.13s-167.556-16.44-245.59-48.13l-13.333-5.414 1.977-14.254c11.573-83.425 39.665-164.96 81.114-236.752 41.45-71.793 98.014-136.888 164.476-188.623L225 249.494zM81.277 465.494C41.576 534.26 18.671 599.921 6.884 674.4 77.28 701.415 145.597 714.43 225 714.43c79.403 0 147.72-12.996 218.114-40.028-11.801-74.47-34.69-140.143-74.391-208.908C329.02 396.73 283.608 344.062 225 296.614c-58.593 47.457-104.023 100.116-143.724 168.88z"/><path d="M225 679.259c-20.463-20.463-44.543-35.103-70.183-43.921a185.667 185.667 0 0 0 5.077 26.476c-32.399 8.68-65.095 8.158-95.313.034a184.844 184.844 0 0 0 28.287-36.515 184.844 184.844 0 0 0-45.767 6.24c8.074-30.232 23.97-58.81 47.686-82.527a185.665 185.665 0 0 0 20.39 17.634c5.184-26.613 4.546-54.787-2.944-82.74 27.952-7.49 52.671-21.024 73.128-38.82a185.669 185.669 0 0 0-25.467-8.841c8.68-32.399 25.482-60.453 47.627-82.56A184.844 184.844 0 0 0 225 396.472a184.843 184.843 0 0 0 17.48-42.755c22.144 22.108 38.945 50.162 47.626 82.56a185.666 185.666 0 0 0-25.467 8.842c20.456 17.796 45.176 31.33 73.128 38.82-7.49 27.953-8.128 56.127-2.945 82.74a185.666 185.666 0 0 0 20.39-17.634c23.718 23.718 39.613 52.295 47.687 82.527-14.98-4-30.365-6.08-45.767-6.24a184.844 184.844 0 0 0 28.287 36.515c-30.218 8.124-62.914 8.647-95.313-.034a185.666 185.666 0 0 0 5.077-26.476c-25.64 8.818-49.72 23.458-70.183 43.92zm-69.746-89.945c44.597 18.224 94.895 18.224 139.492 0C288.23 541.58 263.081 498.021 225 468.51c-38.08 29.51-63.23 73.07-69.746 120.804z"/></g></svg>