<svg height="2500" viewBox="6 6 36 36" width="2500" xmlns="http://www.w3.org/2000/svg"><path d="M6 10a4 4 0 0 1 4-4h28a4 4 0 0 1 4 4v28a4 4 0 0 1-4 4H10a4 4 0 0 1-4-4z" fill="#64dd17"/><g fill="#0c1902"><path d="M17.059 19.174h-1.045v9.443h.859c.957 0 1.631-.252 2.021-.757s.596-1.375.615-2.612v-2.471c0-1.328-.186-2.254-.557-2.778s-1.001-.799-1.893-.825z"/><path d="M9 9v30h30V9zm13.381 16.004c0 1.868-.493 3.335-1.479 4.399S18.556 31 16.824 31h-3.682V16.781h3.76c1.66 0 2.983.527 3.97 1.582s1.489 2.5 1.509 4.336zM33.406 31h-2.295l-1.494-6.113L28.123 31h-2.305L23.63 20.434h2.656l.938 5.938 1.406-5.938h1.963L32 26.361l.947-5.928h2.646z"/></g></svg>