<svg height="2500" viewBox="0 -1 250 252" width="2500" xmlns="http://www.w3.org/2000/svg"><path d="m0-1h250v252h-250z" fill="#6e6e6d"/><g fill="#d9d924"><path d="m221.92 42.828c2.377 1.323 4.738 2.651 7.729 4.32-12.032 5.352-23.628 10.537-35.239 15.67-17.741 7.84-35.558 15.511-53.188 23.601-2.939 1.344-5.683 4.024-7.497 6.77-6.109 9.263-11.637 18.917-17.715 28.214-1.21 1.853-3.672 3.556-5.825 4.008-7.724 1.626-15.571 2.692-24.321 4.112 3.641-11.756 3.874-23.602 12.532-33.082 8.457-9.267 15.612-19.719 23.751-30.18a50008.37 50008.37 0 0 1 -25.171-9.158c.024-.346.042-.702.067-1.055 10.343-1.423 20.661-3.144 31.04-4.225 27.25-2.834 54.541-5.385 81.805-8.083 1.07-.107 2.088-.6 3.132-.914 2.961.002 5.934.002 8.9.002zm-107.504 69.834c.267.139.551.268.818.409 4.925-8.018 9.627-16.19 14.911-23.967 1.929-2.851 4.901-5.528 7.997-6.979 14.536-6.762 29.278-13.065 44.854-19.932-1.584-.149-2.169-.385-2.621-.222-16.153 5.811-32.307 11.622-48.42 17.573-1.385.515-2.896 1.779-3.532 3.086-4.772 9.959-9.366 20.015-14.007 30.032z"/><path d="m76.43 61.512c-5.942 2.867-11.877 5.751-17.839 8.611-5.986 2.877-11.988 5.735-19.402 9.28 5.034 2.04 8.965 3.636 13.416 5.433-11.762 14.526-17.982 31.032-16.556 49.883 4.675-8.031 9.376-16.118 14.094-24.194.216.246.44.496.666.742-.525 9.388-1.551 18.785-1.46 28.152.143 13.782 4.66 26.458 11.22 38.493 1.888 3.449 3.665 4.468 7.807 2.944 22.014-8.094 43.186-9.89 64.798-6.264-10.14 2.664-20.853 5.481-32.441 8.521 11.672 0 22.157-.515 32.56.134 12.898.808 25.754 2.411 38.586 4.056 3.532.452 5.869.052 8.057-2.941 3.673-5.03 7.765-9.756 12.081-15.105-16.479-4.018-32.244-7.753-47.913-11.815-2.144-.559-4.624-2.361-5.661-4.291-5.043-9.248-9.768-18.682-14.243-28.212-.826-1.766-.733-4.733.219-6.42 4.458-7.897 9.115-15.704 14.258-23.168 1.796-2.608 5.188-4.122 7.842-6.144.374.363.74.728 1.118 1.09-5.343 8.736-10.378 17.677-16.132 26.13-2.803 4.128-2.688 7.297-.374 11.41 3.807 6.761 6.88 13.941 10.76 20.653 1.188 2.053 3.791 3.939 6.105 4.549a1178.546 1178.546 0 0 0 42.559 10.307c2.003.447 5.069-.414 6.579-1.815 4.758-4.383 9.156-9.191 13.393-14.101 2.143-2.48 4.131-2.917 7.193-1.929 11.488 3.699 9.567 4.082 12.432 15.6 4.71 18.968-6.045 31.227-15.279 44.585-.726 1.059-3.262 1.76-4.591 1.385-36.791-10.424-74.273-10.706-111.917-7.473-15.295 1.324-30.506 3.695-45.724 5.64-6.62.841-7.355-.283-7.046-7.028.117-2.413-1.779-5.527-3.673-7.376-23.718-23.096-30.256-62.434-14.978-91.857 1.687-3.253 3.756-6.309 5.625-9.426-4.165-3.506-8.347-7.013-13.423-11.287 18.373-10.379 37.733-13.73 57.284-16.752zm134.778 107.038c1.141-5.701 2.151-10.835 2.889-14.524a9087.967 9087.967 0 0 1 -14.295 11.721c4.309 1.046 7.423 1.818 11.406 2.803zm13.207 9.893c-4.617 6.771-9.108 13.374-13.6 19.961.301.456.601.919.9 1.373 1.211-.608 2.795-.901 3.573-1.861 8.242-10.11 11.211-16.258 9.127-19.473zm-3.732.631c-.166-.376-.344-.759-.51-1.151-1.145.366-2.763.376-3.34 1.159-2.862 3.82-5.524 7.79-8.078 11.834-.505.806-.205 2.112-.271 3.197 1.029-.45 2.454-.625 3.014-1.428 3.184-4.457 6.146-9.057 9.185-13.611z"/><path d="m87.859 61.006c-2.003 7.125-4.006 14.26-6.194 22.073 7.538-3.373 13.977-6.253 20.438-9.141-19.168 27.131-28.72 57.131-32.633 89.332-3.784-22.348-3.173-44.568 2.805-67.514-5.445 2.508-9.943 4.567-14.327 6.579 1.084-8.811 19.485-34.341 29.911-41.329z"/><path d="m74.353 148.072h2.987l2.271 14.017h-2.204l-.4-2.78v.042h-2.504l-.41 2.746h-2.036zm2.402 9.366-.976-6.938h-.042l-.969 6.938zm3.925-9.366h3.365c1.092 0 1.918.283 2.47.878.544.592.818 1.45.818 2.578v7.092c0 1.131-.273 1.999-.818 2.58-.552.593-1.368.886-2.47.886h-3.365zm3.332 12.014c.359 0 .633-.102.826-.317.192-.217.283-.567.283-1.053v-7.278c0-.484-.091-.827-.283-1.044-.193-.209-.466-.318-.826-.318h-1.129v10.019zm4.182-12.014h2.229l1.435 10.877h.042l1.437-10.877h2.037l-2.129 14.017h-2.931zm8.054 3.107h2.44l1.092 7.801h.034l1.084-7.801h2.448v10.91h-1.629v-8.26h-.015l-1.253 8.26h-1.427l-1.252-8.26h-.025v8.26h-1.496v-10.91zm8.927 10.351c-.444-.476-.668-1.157-.668-2.032v-5.737c0-.868.216-1.544.668-2.023.44-.479 1.092-.719 1.937-.719.834 0 1.484.239 1.929.719.44.476.667 1.155.667 2.023v5.737c0 .875-.226 1.544-.667 2.032-.444.472-1.094.71-1.929.71-.845 0-1.497-.238-1.937-.71zm2.821-1.913v-5.96c0-.722-.293-1.081-.885-1.081-.602 0-.895.359-.895 1.081v5.96c0 .719.292 1.078.895 1.078.592 0 .885-.359.885-1.078zm4.139-6.882h-1.785v-1.557h5.3v1.557h-1.794v9.351h-1.712zm4.819 8.795c-.452-.476-.668-1.157-.668-2.032v-5.737c0-.868.216-1.544.668-2.023.442-.479 1.094-.719 1.937-.719.842 0 1.486.239 1.929.719.442.476.668 1.155.668 2.023v5.737c0 .875-.226 1.544-.668 2.032-.452.472-1.087.71-1.929.71-.843 0-1.487-.238-1.937-.71zm2.821-1.913v-5.96c0-.722-.293-1.081-.885-1.081-.602 0-.895.359-.895 1.081v5.96c0 .719.292 1.078.895 1.078.592 0 .885-.359.885-1.078z"/></g></svg>