<svg height="1157" width="2500" xmlns="http://www.w3.org/2000/svg" viewBox="0 0.427 216 99.527"><g fill="none" fill-rule="evenodd"><g fill="#004894"><path d="M77.218 55.292h-4.863v.307c.524.06.774.475.774 1.089v13.491h4.15c3.974 0 6.78-2.241 6.78-7.627 0-5.081-2.245-7.26-6.841-7.26m.617 12.463l-1.626-.058V57.652h1.407c2.128 0 3.08 2.058 3.08 5.022 0 3.15-.843 5.081-2.861 5.081" fill-rule="nonzero"/><path d="M196.913 64.903c0 1.718-.683 2.783-2.33 2.783-1.703 0-2.324-1.065-2.324-2.783v-9.611h-3.924v.3c.44-.008.795.402.795 1.097v8.393c0 3.136 1.539 5.097 5.397 5.097 3.635 0 5.512-2.314 5.512-5.097v-9.79h-3.126zM145.986 69.09c-1.858-3.863-2.734-5.024-3.736-5.564 1.95-.185 3.512-1.818 3.512-4.059 0-2.843-1.952-4.175-4.904-4.175h-5.725v.298c.394.017.769.382.769 1.027V70.18h2.898V57.593h1.337c1.5 0 2.499.85 2.499 2.361 0 1.815-1.164 3.022-3.338 3.085l-.164.302c.948 1.032 1.78 1.874 4.008 6.838h3.695v-.362c-.488-.054-.64-.29-.851-.728M214.854 68.987l-4.104-6.981 4.15-6.714h-3.792l-2.192 3.991-2.132-3.991h-4.233v.304c.448.02.739.24.977.666l3.668 5.987-5.029 7.93h3.967l2.84-5.206 2.789 5.206H216v-.423c-.614-.039-.867-.326-1.146-.769"/><path d="M127.215 55.292c-4.51 0-6.979 3.177-6.979 7.473 0 4.355 2.285 7.414 6.863 7.414 4.572 0 6.97-3.178 6.97-7.532 0-4.822-2.584-7.355-6.854-7.355m-.059 12.651c-2.647 0-3.31-2.47-3.31-5.178 0-2.763.782-5.234 3.31-5.234 2.584 0 3.19 2.589 3.19 5.234 0 3.474-.968 5.178-3.19 5.178" fill-rule="nonzero"/><path d="M95.54 67.637h-5.225v-3.933h4.196l.66-2.422h-4.856v-3.51h5.526l.424-2.48H86.187v.304c.434 0 .847.371.847 1.082v13.501h9.114l.68-3.039-.21-.114c-.322.457-.652.61-1.078.61"/><path d="M114.67 62.128c1.927-.42 2.86-1.693 2.86-3.382 0-2.786-2.39-3.454-4.722-3.454h-6.404v.304c.42.034.812.298.812 1.111v13.472h5.536c3.088 0 5.356-1.51 5.356-4.537 0-1.938-1.399-3.266-3.437-3.514m-2.448 5.509h-1.86v-9.98h1.803c1.05 0 2.097.422 2.097 1.693 0 1.328-.994 1.814-2.154 1.814h-1.228l.643 2.482h.755c1.23 0 2.333.419 2.333 1.813 0 1.511-1.048 2.178-2.389 2.178M153.828 55.292h-4.862v.307c.522.06.77.475.77 1.089v13.491h4.153c3.973 0 6.781-2.241 6.781-7.627 0-5.081-2.248-7.26-6.842-7.26m.617 12.463l-1.628-.058V57.652h1.408c2.127 0 3.08 2.058 3.08 5.022 0 3.15-.843 5.081-2.86 5.081" fill-rule="nonzero"/><path d="M172.15 67.637h-5.226v-3.933h4.198l.66-2.422h-4.858v-3.51h5.527l.422-2.48h-10.075v.304c.433 0 .845.371.845 1.082v13.501h9.116l.68-3.039-.21-.114c-.324.457-.653.61-1.079.61"/><path d="M182.656 55.292h-4.234v.305c.297.118.465.51.214 1.348l-4.268 12.297c-.154.4-.437.691-.93.691v.246h3.962l1.771-5.565.354 2.234h3.653l1.063 3.331h4.094v-.246c-.57-.136-.878-.53-1.215-1.377zm-3.373 8.895c.593-1.752 1.541-5.201 1.541-5.201s.94 3.449 1.53 5.2zM148.373 51.038c4.517 0 6.977-3.178 6.977-7.532h-.061c0-4.828-2.586-7.355-6.856-7.355-4.448 0-6.916 3.177-6.916 7.473 0 4.355 2.225 7.414 6.856 7.414m0-12.652c2.642 0 3.25 2.59 3.25 5.238 0 3.47-.967 5.177-3.25 5.177-2.642 0-3.305-2.472-3.305-5.177 0-2.766.78-5.238 3.305-5.238M80.507 36.15h-4.235v.307c.297.118.466.513.215 1.348L72.22 50.1c-.154.398-.44.693-.928.693v.244h3.96l1.771-5.567.354 2.237h3.655l1.063 3.33h4.093v-.244c-.568-.136-.878-.533-1.215-1.38zm-3.37 8.895c.592-1.751 1.538-5.199 1.538-5.199s.94 3.448 1.532 5.2z" fill-rule="nonzero"/><path d="M128.524 37.518v13.52h3.956v-.304c-.552-.035-.73-.427-.73-.916V38.57h1.489c1.617 0 2.691.668 2.691 2.182 0 2.115-1.917 2.54-3.65 2.36l.599 2.476c3.287.123 6.51-1.27 6.51-5.018 0-3.452-2.743-4.42-5.792-4.42h-5.912v.304c.487 0 .839.428.839 1.063M173.052 51.038h4.018v-.35c-.422-.017-.733-.246-.733-.78V38.994h3.807l.743-2.724-.25-.118c-.196.362-.405.433-1.054.433h-10.4v2.41h3.869zM96.603 48.498h-5.225v-3.936h4.196l.66-2.42h-4.856v-3.51h5.526l.424-2.481H87.25v.304c.435 0 .846.37.846 1.08v13.503h9.113l.682-3.042-.212-.11c-.321.457-.651.612-1.077.612M110.66 51.038v-.363c-.494.002-.678-.184-.956-.726-1.822-3.875-2.7-5.023-3.7-5.569 1.993-.18 3.477-1.813 3.477-4.055 0-2.844-1.93-4.174-4.854-4.174h-5.671v.304c.445.025.764.411.764 1.042v13.541h2.87V38.387h1.323c1.492 0 2.484.85 2.484 2.423 0 1.815-1.16 3.026-3.307 3.086l-.17.304c.993 1.026 1.76 1.874 3.969 6.838z"/><path d="M126.62 43.506c0-4.828-2.585-7.355-6.854-7.355-4.454 0-6.978 3.177-6.978 7.473 0 4.355 2.29 7.414 6.91 7.414 4.514 0 6.923-3.178 6.923-7.532m-6.923 5.295c-2.64 0-3.303-2.472-3.303-5.177 0-2.766.78-5.238 3.303-5.238 2.594 0 3.256 2.59 3.256 5.238 0 3.47-1.025 5.177-3.256 5.177" fill-rule="nonzero"/><path d="M168.118 51.038v-.363c-.525-.01-.678-.184-.955-.726-1.823-3.875-2.7-5.023-3.7-5.569 1.992-.18 3.478-1.813 3.478-4.055 0-2.844-1.934-4.174-4.856-4.174h-5.671v.304c.445.025.763.411.763 1.042v13.541h2.87V38.387h1.324c1.49 0 2.486.85 2.486 2.423 0 1.815-1.165 3.026-3.31 3.086l-.169.304c.993 1.026 1.76 1.874 3.97 6.838z"/></g><path d="M42.362 60.17c13.042 9.422 17.24 17.406 17.224 17.453.016-.302-4.702-12.518-15.597-21.09C33.715 48.45 14.896 43.428 0 43.599c13.902 1.41 32.862 9.708 42.362 16.57" fill="#7fc074"/><path d="M42.362 60.17c13.042 9.422 17.24 17.406 17.224 17.453.016-.302-4.702-12.518-15.597-21.09C33.715 48.45 14.896 43.428 0 43.599c13.902 1.41 32.862 9.708 42.362 16.57" fill="#db3622"/><path d="M11.002 79.198C36.347 35.455 83.219 12.319 115.508.427 75.58 8.355 20.377 43.863 11.002 79.197" fill="#fbc351"/><path d="M50.492 38.56c-8.208 15.035-15.905 39.878-17.894 61.394-3.18-19.344.597-45.994 17.894-61.393" fill="#89ba17"/><path d="M45.754 18.073c9.147 5.326 11.823 19.891 6.64 30.565 9.443 2.826 16.08 15.837 11.664 28.985 8.776-10.913 5.999-24.91-6.51-32.03 4.798-11.487.426-25.692-11.794-27.52" fill="#006ab2"/></g></svg>