<svg height="500mm" viewBox="0 0 1000 500" width="1000mm" xmlns="http://www.w3.org/2000/svg"><g fill-rule="evenodd"><path d="M0 0v500h1000V0z" fill="#1b1918"/><path d="M530.308 124.458c-13.76 52.07-38.49 77.43-79.678 108.276.36-5.216.358-5.217 17.175-83.905-10.432.18-20.863.36-31.205.63 5.306 9.443 3.777 14.75 3.147 25.542C425 260.883 425 260.882 423.74 262.77l-1.53-1.53c-4.585-21.673-9.171-43.346-13.668-64.929-.629-.81-1.258-1.62-1.798-2.429-.9.72-1.798 1.53-2.607 2.339-35.072 0-70.146.09-105.128.18-.63-.719-1.168-1.35-1.708-1.979-.63.63-1.171 1.26-1.71 1.98-27.519.09-55.036.27-82.554.45.99 1.888 2.068 3.777 3.147 5.665.9 7.105.898 7.105 2.427 78.688-1.17-1.258-41.186-154.858-42.445-156.117-59.892 128.598-59.893 128.6-99.911 211.065-2.518 1.259-2.52 1.258-4.318 4.405 8.363.09 16.726.18 25.18.269 13.219-31.385 26.44-62.681 39.749-93.976h53.687c9.622 54.586 9.624 54.588 15.02 94.965l32.375-.54c-.09-2.158-.091-2.157-4.318-7.642l-1.888-129.228c20.863-3.417 35.881-1.62 54.317 8.093v3.777c-13.76 26.62-27.43 53.328-41.099 80.037 7.554 1.529 7.556 1.53 9.894 1.17 6.745-14.658 13.577-29.318 20.412-43.977 7.104-.18 14.3-.36 21.495-.45 3.687 14.93 7.462 29.946 11.24 44.965 5.665-.36 11.331-.63 17.086-.9-.989-1.618-1.888-3.148-2.788-4.676-2.517-7.465-2.518-7.464-18.435-82.194 9.352-4.317 17.537-2.518 27.789-2.158.81 29.946 1.62 59.891 2.52 89.928h28.775c6.925-14.479 13.85-28.956 20.865-43.434 7.374-.18 14.748-.36 22.122-.45 4.137 14.029 8.362 28.056 12.589 42.085-.54 16.367-4.947 28.33-8.364 43.527l11.601.269c2.968-7.644 2.968-7.643 23.381-87.68 1.26.45 2.52.9 3.868 1.35 35.162 28.776 35.162 28.774 86.871 73.739 28.777 21.673 55.578 41.099 91.819 48.113v-3.777c-8.543-3.597-17.086-7.105-25.629-10.612-26.709-14.119-47.214-33.364-68.706-54.317.45-33.633.717-67.177 2.966-100.72 12.32 0 15.559.539 24.551 9.531 9.263 17.537 4.947 37.68-16.815 39.928v2.52c20.324-.99 21.941-3.058 34.261-19.335.9 4.586 2.159 42.086 4.227 67.536.63-.09 1.35-.088 2.07-.088 21.403-28.148 42.806-56.297 64.299-84.354h2.516c-.45 25.81-.898 51.62-1.258 77.43 4.676-.18 9.442-.36 14.208-.54-4.406-10.522-4.315-19.965-4.855-31.296 2.159.9 2.158.899 13.129 13.759 4.316 3.417 8.633 6.924 12.95 10.43 20.414 9.713 62.681 13.491 60.883-19.063-16.547 13.31-26.619 17.355-47.752 12.499-22.212-11.691-30.756-31.564-25.45-55.036 11.78-23.651 44.695-34.173 65.559-15.647 3.507-.63 3.865-1.799 6.113-4.587h25.092c.899 1.709 1.527 23.563 6.294 89.48h13.759c-1.17-3.057-2.338-6.116-3.507-9.084.72-26.979 1.439-53.957 2.248-80.845 18.346 2.158 32.286 2.696 48.023 13.128 1.619 27.428 3.328 54.947 5.036 82.466h1.977c20.593-26.17 41.28-52.338 61.963-78.417l3.506-2.16c-.27 24.73-.448 49.462-.628 74.282 4.137 0 8.273 0 12.41.09-.63-1.888-1.259-3.777-1.798-5.665V211.24c3.687-4.856 7.374-8.904 8.723-14.929-6.565-.09-13.041-.178-19.516-.178-18.705 28.148-37.41 56.294-56.025 84.442h-1.889c.45-22.842.99-45.683 1.53-68.435 2.248-7.105 2.247-7.105 7.103-14.84-12.05-.719-12.053-.72-161.334-.18-20.234 7.824-29.765 18.708-37.768 39.122h-1.889l.269-24.102c3.147-4.946 6.384-9.893 9.622-14.84-2.068-.719-2.07-.719-20.864.45a27990.96 27990.96 0 0 0-56.475 85.344c-.18-25-1.89-50.72 1.258-75.54 2.248-4.587 5.127-6.925 5.666-11.87-7.104.18-14.209.357-21.223.627.36 5.396.809 10.792 1.258 16.188h-2.516c-7.015-23.382-42.536-15.377-60.612-15.017.81 2.248 1.618 4.586 2.517 6.924.99 29.317 2.068 58.632 3.147 88.039-1.113-.405-2.738-1.484-4.731-3.083-1.993-1.598-4.353-3.717-6.935-6.2a240.917 240.917 0 0 1-8.266-8.39 325.422 325.422 0 0 1-8.596-9.514c-.081-.093-.16-.18-.24-.274a294.4 294.4 0 0 1-8.08-9.715l-.191-.24c-2.547-3.216-4.886-6.336-6.878-9.212l-.055-.075-.018-.026c-2.017-2.917-3.674-5.581-4.829-7.84-.574-1.121-1.023-2.143-1.33-3.045-.005-.007-.008-.018-.011-.026a.021.021 0 0 0-.003-.008c-.306-.906-.468-1.69-.468-2.334 7.644-5.62 15.131-11.421 22.505-17.368 7.375-5.947 14.637-12.04 21.831-18.245 7.285-8.992 14.567-17.896 21.852-26.799 6.205-10.881 20.865-33.093 19.696-45.323l-25.27-.271zm-354.772 23.113c13.4 80.216 13.398 80.217 13.668 87.501l-51.08.54c11.511-29.047 23.023-58.095 34.624-87.142.899-.36 1.798-.63 2.788-.9zm173.472 59.802c15.468.18 26.62 3.059 41.458 7.465.45 1.349.9 2.788 1.44 4.227-12.141 23.832-26.079 57.825-43.975 77.789-3.147-30.036-1.71-59.444 1.077-89.48zm-59.172 18.258c1.889 7.014 3.776 14.116 5.664 21.22-5.485.18-10.88.361-16.276.631 4.407-11.24 4.407-11.24 10.612-21.851zm106.836 1.886h2.43c1.618 6.385 3.327 12.86 5.035 19.335h-16.278c2.878-6.475 5.846-12.95 8.813-19.335z" fill="#ffcb00"/></g></svg>