<svg viewBox="0 0 1804 1936.89" xmlns="http://www.w3.org/2000/svg" width="2328" height="2500"><path d="M902 0L0 499.01v950.33l902 487.55 902-487.55V499.01zm777.55 573.46v800.64L902 1794.37 124.49 1374.1V573.46L902 143.29l777.55 430.16z"/><path d="M903.95 1684.96l238.77-124.36a11.17 11.17 0 0 0 6.01-9.91l.02-689.97c0-5.73-4.33-10.52-10.02-11.11l-169.24-17.44c-6.59-.68-12.32 4.49-12.31 11.11l.05 223.51c0 6.53 5.58 11.67 12.09 11.13l29.52-2.43c6.52-.54 12.11 4.62 12.09 11.16l-.86 297.06a11.17 11.17 0 0 1-7.65 10.57l-100.12 33.26c-2.27.76-4.73.76-7.01.01l-101.33-33.3a11.156 11.156 0 0 1-7.68-10.62l.45-857.26c0-4.74 3-8.96 7.47-10.53l100.89-35.43c2.41-.84 5.03-.84 7.43 0L1003 516c4.45 1.57 7.42 5.77 7.44 10.49l.5 142.6c.02 5.19 3.62 9.69 8.68 10.85l115.49 26.42c6.99 1.6 13.66-3.71 13.66-10.89V386.14c0-4.17-2.32-7.98-6.01-9.91l-238.8-124.3a11.175 11.175 0 0 0-10.31 0L654.84 376.24a11.17 11.17 0 0 0-6.01 9.91v1164.52c0 4.16 2.32 7.98 6.01 9.91l238.81 124.38c3.23 1.68 7.09 1.68 10.32 0zM1223.96 437.14v1062.79c0 8.38 8.89 13.78 16.32 9.91l104.27-54.21c3.7-1.92 6.02-5.75 6.02-9.91l-.14-446.89c0-6.09 4.88-11.06 10.97-11.17l6.96-.13c5.27-.1 9.89 3.5 11.08 8.64l21.04 90.39c1.32 5.65 6.74 9.36 12.48 8.52l28.94-4.2c4.65-.68 8.38-4.19 9.33-8.79l18.21-88.11c1.06-5.11 5.5-8.8 10.71-8.91 6.26-.13 11.4 4.92 11.39 11.18l-.3 364.86c0 8.39 8.89 13.79 16.33 9.92l75.8-39.45c3.7-1.92 6.01-5.74 6.01-9.91l-.06-705.8c0-4.16-2.32-7.98-6.01-9.91l-80.36-41.84c-6.24-3.25-13.89 0-15.87 6.75l-48.68 165.36c-3.19 10.83-18.6 10.63-21.51-.28l-65.71-246.8a11.18 11.18 0 0 0-5.63-7.03l-105.3-54.87c-7.44-3.87-16.33 1.52-16.33 9.91zM205.29 617.15v703.64c0 4.16 2.32 7.98 6.01 9.91l98.52 51.31c7.44 3.87 16.33-1.52 16.33-9.91v-323.83c0-6.53 5.59-11.67 12.1-11.13l98.52 8.21c5.79.48 10.24 5.32 10.24 11.13v389.25c0 4.16 2.32 7.98 6.01 9.91l104.25 54.3c7.44 3.88 16.34-1.53 16.33-9.92l-1.22-1062.35c0-8.38-8.9-13.76-16.33-9.89L211.3 607.25a11.17 11.17 0 0 0-6.01 9.91zm231.7 256.18l-98.52 10.26c-6.59.69-12.33-4.48-12.33-11.11V740.87c0-4.98 3.29-9.36 8.08-10.73l98.52-28.39c7.14-2.06 14.26 3.3 14.26 10.73v149.73c0 5.72-4.32 10.52-10.01 11.11z"/></svg>