<svg height="80pt" viewBox="21.21 3.67 321.52 71.94" width="380pt" xmlns="http://www.w3.org/2000/svg"><path d="m45.58 10.93c2.09-3.54 6.18-5.09 9.48-7.26 3.49 1.93 7.83 3.29 9.91 6.94l.26.62c-3.16-1.96-6.34-3.87-9.51-5.82-3.51 1.93-7.02 3.87-10.4 6.04z" opacity=".82"/><path d="m30.11 23.09c8.23-5.42 16.16-11.62 25.05-15.87 7.74 2.59 13.86 8.65 21.06 12.47 5.42 2.44 4.98 8.81 5.61 13.77 1.9-6.72-.36-13.52-6.92-16.51l.52.2c7.4 1.21 9.05 8.37 7.96 14.79 2.09.13 4.19.27 6.29.39-1.29 2.52-2.57 5.04-3.84 7.57 1.32 2.54 2.64 5.09 3.99 7.62-1.99.09-3.97.19-5.95.3-.36 4.49 1.04 10.62-4.1 12.87-8.37 4.64-15.73 11.39-24.61 14.92-9.66-5.15-18.71-11.57-27.77-17.76-.06-3.47-.19-6.93-.4-10.39-1.69-.15-3.38-.3-5.07-.46 3.19-4.69 2.98-10.22-.72-14.54 1.9-.03 3.81-.03 5.71-.24.42-.13 1.25-.4 1.67-.54l.84-.31c.39-2.74.55-5.51.68-8.28m16.71 11.73c-2.58 4.3-8.13 4.25-12.19 6.41 2.2.31 4.4.57 6.59.85-2.11 4.89-7.04 9.89-4.37 15.51 3.06-4.97 5.24-10.42 8.3-15.4 1.86.02 3.72.04 5.58.05.34 3.85-.5 8.2 1.49 11.66 3.55 2.94 7.06-1.7 9.72-3.74.86 1.65 1.7 3.3 2.55 4.95 5.56.25 9.39-3.86 10.98-8.82-2.61 2.9-5.26 6.54-9.66 6.17.76-4.84 3.02-9.21 4.4-13.86-6.27 3.29-8.09 11.52-15.1 13.96-1.14-10.2 2.79-19.86 5.94-29.32-1.05-.38-2.09-.75-3.13-1.14-4.24 3.74-7.86 8.1-11.1 12.72m22.45-2.8.12 3.23c2.92.2 5.09-1.2 5.91-4.04-2.02.24-4.03.52-6.03.81m-37.4 27.12c7.14 4.49 14.08 9.31 21.26 13.72 3.45 2.29 6.73-1.56 9.61-3.13 5.95-4.52 12.92-7.58 18.57-12.48 1.94-3.13.57-7.18.26-10.63-.42 3.38-.66 6.78-.86 10.18-7.39 4.98-14.99 9.65-22.38 14.65-3.42 2.85-7.05-1.07-10.01-2.73-5.76-4.36-12.52-7.36-17.89-12.21-.87-3.2-.72-6.56-1.05-9.83-.24 4.14-2.01 9.96 2.49 12.46zm176.49-40.04c-.1-5.15 3.42-10.42 8.76-11.11 7.34-.95 14.79-.31 22.17-.21.01 2.73 0 5.46 0 8.18-7.26.84-15.38-1.68-22.09 1.42-1.12 13.47-.11 27.07-.41 40.59-2.84-.01-5.68-.03-8.52-.05.17-12.94-.1-25.89.09-38.82zm73.95-11.16c2.87-.09 5.74-.16 8.61-.2.31 12.71-.33 25.45.21 38.14-.42 3.9 4.27 3.03 6.78 3.86.15 2.81.23 5.63.29 8.45-6.58.63-14.93-2.28-15.47-9.91-.91-13.41-.03-26.9-.42-40.34zm-239.82 5.25c-1.17-1.63 1.85-3.85 3.09-2.26l-.26.52c-.92.61-1.87 1.19-2.83 1.74z"/><path d="m64.97 10.61c1.1-1.47 3.58.54 2.69 2-.84-.42-1.65-.88-2.43-1.38zm48.96 4.34c3.45-3.31 8.47-3.75 13.02-3.71 8.39.07 16.77.06 25.16.02.02 2.83.02 5.65 0 8.48-9.97.26-20-.61-29.94.29-4.75.32-5.54 8.61-.9 9.73 8.95 1.83 18.41-1.12 27.19 1.82 9.4 3.52 10.73 17.99 2.8 23.72-3.75 2.9-8.75 2.74-13.24 2.77-9.34-.15-18.68.04-28.02-.13.05-2.88.1-5.76.16-8.63 11.23-.13 22.51.62 33.71-.23 4.99-.17 5.65-8.8.73-9.74-8.71-1.99-17.87.83-26.53-1.47-9.18-3.08-11.34-16.77-4.14-22.92zm139.96-3.72c2.72 0 5.45 0 8.17-.01.15 3.83.24 7.67.28 11.5 4.89-.05 9.79-.01 14.68.11.01 2.78.01 5.56 0 8.33-4.91.13-9.83.17-14.75.12-.05 8.91.2 17.81-.11 26.72-2.79 0-5.57-.01-8.35-.01-.33-8.88-.09-17.77-.1-26.65-3.66-.04-7.32-.11-10.98-.2-.01-2.76-.01-5.52 0-8.28 3.63-.09 7.27-.16 10.91-.19.01-3.82.09-7.63.25-11.44zm-186.23 1.38c1.71-1.45 5.52.72 4.78 2.93-1.62-.94-3.21-1.92-4.78-2.93zm4.78 2.93 2.65.8-.18.61c-1.07-.05-1.89-.52-2.47-1.41zm96.19 8.21c6.93-1.82 14.28-1.12 21.38-.86 5.49.15 10.46 4.61 10.74 10.19.31 6.4 1.25 13.34-1.36 19.38-5.17 7.69-15.59 5.25-23.45 5.6-6.58.64-14.05-3.79-13.98-10.99-.19-7.91-2.25-19.29 6.67-23.32m1.98 9.75c-.69 4.92-.67 10 .16 14.91 4.82 1.89 10.22.87 15.28 1.07 2.14-.26 5.84.44 6.07-2.64.8-4.95.21-9.99-.01-14.97-6.25-.67-12.58-1.04-18.85-.41-1.22 0-2.59.66-2.65 2.04zm49.61-10.56c6.34-.38 12.71-.37 19.06-.07.01 2.76.01 5.5 0 8.26-6.35.3-12.71.31-19.06-.07zm83.08-.03c2.87-.08 5.73-.12 8.6-.15.48 8.54-.84 17.2.63 25.65 5.5 2.63 12.22.47 18.19 1.45 0 2.66.01 5.31.04 7.97-5.89.12-11.82.64-17.68-.09-5.13-.6-9.26-5.14-9.49-10.28-.63-8.16-.04-16.37-.29-24.55z"/><path d="m334.07 22.73c2.87.05 5.74.12 8.61.22-.19 12.67.05 25.35-.08 38.02.05 4.97-2.79 10.36-7.87 11.65-6.4 1.38-13.01.65-19.48.39.01-2.69.01-5.38 0-8.07 5.44-.38 10.91.09 16.33-.45 2.74-.19 2.25-3.47 2.48-5.41.06-12.11-.17-24.23.01-36.35z"/><path d="m27.43 21.52c4.87-3.03 9.32-7.03 15.06-8.33-4.06 2.96-8.66 5.31-12.13 8.98-1.56 2.88-1.19 6.36-1.77 9.51-.42.14-1.25.41-1.67.54.15-3.57.31-7.13.51-10.7z" opacity=".78"/><path d="m46.9 39.81c2.13-4.85 5.13-9.28 8.91-13-1.16 4.44-2.58 8.8-3.97 13.17-1.65-.05-3.3-.11-4.94-.17z" fill="#010101"/></svg>