<svg height="511" viewBox="0 -.00872232 265.506 54.30472232" width="2500" xmlns="http://www.w3.org/2000/svg"><path d="m63.865.035h-10.879v8.937h-33.934v-8.937h-10.876v8.937h-8.176v45.235h71.5v-45.235h-7.635z" fill="#e30016"/><path d="m3.758 13.77h66.804v37.844h-66.804z" fill="#e30016"/><path d="m75.58 9.139h189.926v45.157h-189.926z" fill="#009ee0"/><path d="m18.125 38.627.903 5.408h3.95l-4.076-23.673h-4.884l-4.542 23.673h3.952l.932-5.408zm-3.36-3.582.777-4.918c.218-1.37.53-3.828.748-5.408h.093c.186 1.58.467 3.933.685 5.373l.683 4.953zm10.518 8.92c.933.147 2.238.251 3.795.251 3.517 0 5.631-.848 6.875-2.394.996-1.159 1.556-2.669 1.556-4.635 0-2.6-1.305-4.882-3.732-5.655v-.14c2.084-1.019 3.047-3.057 3.047-5.164 0-1.65-.466-3.23-1.586-4.284-1.461-1.405-3.36-1.686-5.321-1.686-1.774 0-3.392.14-4.634.456zm4.075-20.125c.25-.106.622-.14 1.057-.14 1.68 0 2.395 1.334 2.395 3.055 0 1.932-1.118 3.337-2.582 3.337h-.87zm0 9.66h.87c1.618.034 3.049 1.262 3.049 3.616 0 2.424-1.368 3.547-3.018 3.547-.372 0-.652 0-.9-.07zm13.222 10.534h4.075v-19.421h3.734v-4.25h-11.512v4.25h3.703zm15.837-23.953c-4.637 0-6.907 5.585-6.907 12.047 0 6.498 1.867 12.193 6.626 12.193 3.983 0 6.783-3.623 6.783-12.544 0-5.41-1.43-11.696-6.502-11.696zm-.156 4.004c1.836 0 2.394 3.759 2.394 7.902 0 4.812-.652 8.325-2.364 8.325-1.648 0-2.55-2.74-2.55-8.114 0-5.092.902-8.113 2.52-8.113zm31.433 14.542.903 5.408h3.95l-4.077-23.673h-4.884l-4.542 23.673h3.952l.932-5.408zm-3.36-3.582.777-4.918c.218-1.37.53-3.828.748-5.408h.093c.186 1.58.467 3.933.685 5.373l.683 4.953zm10.518-14.683v23.673h3.982v-10.045h.31c1.68 0 2.24 1.791 2.739 4.566.341 1.862.653 3.793 1.15 5.48h4.076c-.622-2.178-.963-4.427-1.43-6.709-.592-2.88-1.307-5.093-3.455-6.006l4.824-10.959h-4.481l-3.422 10.292h-.311v-10.292zm14.125 0v23.673h3.982v-10.045h.311c1.68 0 2.24 1.791 2.738 4.566.343 1.862.654 3.793 1.152 5.48h4.076c-.622-2.178-.965-4.427-1.431-6.709-.592-2.88-1.308-5.093-3.454-6.006l4.823-10.959h-4.482l-3.422 10.292h-.31v-10.292zm11.973 0 4.89 16.473c.155.492.188.913.031 1.37-.31 1.194-1.182 2.423-2.24 2.423-.497 0-.809-.07-.995-.105l-.157 3.764c.406.14.935.21 1.65.21 1.742 0 3.268-1.27 4.263-3.096 1.058-2.038 1.867-5.268 2.582-8.254l3.111-12.785h-4.137l-1.4 8.992c-.186 1.334-.312 2.774-.499 3.864h-.093a73.244 73.244 0 0 0 -.684-3.793l-1.93-9.063zm27.665 23.673h3.641l-1.275-23.673h-4.295l-1.65 8.571c-.558 2.986-1.024 5.654-1.337 8.288h-.062c-.373-2.668-.9-5.302-1.494-8.288l-1.679-8.57h-4.294l-1.525 23.672h3.516l.343-8.219c.123-2.353.249-5.337.31-7.902h.094c.311 2.565.871 5.514 1.276 7.411l1.743 8.324h2.892l1.805-8.464c.405-1.826.963-4.743 1.34-7.27h.091c-.062 2.564.094 5.584.188 7.832zm4.476-23.673 4.889 16.473c.155.492.187.913.032 1.37-.311 1.194-1.182 2.423-2.24 2.423-.498 0-.81-.07-.995-.105l-.157 3.764c.406.14.934.21 1.65.21 1.742 0 3.268-1.27 4.263-3.096 1.056-2.038 1.865-5.268 2.58-8.254l3.113-12.785h-4.137l-1.402 8.992c-.186 1.334-.31 2.774-.497 3.864h-.094a73.49 73.49 0 0 0 -.685-3.793l-1.928-9.063zm15.282 0v10.678c0 4.601-.281 7.235-1.493 8.675-.375.386-.903.667-1.406.808l.876 3.904c1.026 0 2.023-.461 2.8-1.165 2.644-2.317 2.957-7.2 2.957-12.643v-6.252h3.11v19.668h4.076v-23.673zm17.236 23.673c.28-.667.436-1.369.592-2.072.342-1.756.496-5.197 1.399-6.497.404-.563.964-.879 1.68-.879h.436v9.448h4.076v-23.32c-1.276-.316-2.894-.457-4.449-.457-2.116 0-3.982.527-5.32 1.756-1.12 1.053-1.93 2.74-1.93 5.162 0 2.986 1.401 4.918 3.61 5.69v.07c-.56.177-1.12.563-1.493 1.019-1.556 1.861-1.556 5.164-2.116 7.552-.25.913-.529 1.826-.81 2.528zm4.107-13.03c-.219.035-.31.035-.56.035-1.773 0-2.955-1.44-2.955-3.687 0-1.792.809-3.513 2.706-3.513.343 0 .59.071.81.106v7.06zm9.956 13.03h4.076v-19.422h3.733v-4.25h-11.511v4.25h3.702zm15.836-23.953c-4.635 0-6.906 5.585-6.906 12.046 0 6.499 1.866 12.194 6.627 12.194 3.982 0 6.782-3.623 6.782-12.544 0-5.41-1.431-11.696-6.503-11.696zm-.154 4.004c1.836 0 2.394 3.759 2.394 7.902 0 4.812-.652 8.325-2.364 8.325-1.648 0-2.55-2.74-2.55-8.114 0-5.092.902-8.113 2.52-8.113zm9.241 19.95h4.076v-8.816h.809c1.68 0 3.794-.703 5.102-2.248 1.088-1.334 1.773-3.126 1.773-5.69 0-2.002-.56-3.969-1.805-5.197-1.368-1.44-3.267-1.827-5.694-1.827-1.554 0-3.11.175-4.261.456v23.321zm4.076-19.88a2.75 2.75 0 0 1 .994-.176c1.9 0 2.645 1.616 2.645 3.688 0 2.213-.933 3.864-2.987 3.864-.25 0-.467 0-.653-.07zm10.141-3.794v23.604c.935.146 2.24.25 3.548.25 2.955 0 5.225-.848 6.656-2.534 1.09-1.3 1.744-3.09 1.744-5.48 0-4.32-2.645-7.129-6.378-7.129-.468 0-1.026.035-1.526.14v-8.85zm4.076 12.505c.25-.071.592-.106.871-.106 1.681 0 2.77 1.615 2.77 3.899 0 2.107-1.182 3.863-2.894 3.863-.219 0-.466 0-.747-.07zm9.396-12.505v23.673h4.108v-23.673z" fill="#fff"/><path d="m80.03.156-.088 1.094c-.254-.103-.57-.155-.94-.155a1.77 1.77 0 0 0 -.949.254c-.273.169-.483.4-.63.694-.146.293-.218.613-.218.96 0 .374.074.701.221.982.147.283.35.501.609.654.258.153.55.23.868.23a2.73 2.73 0 0 0 1.162-.236l.056 1.11a4.84 4.84 0 0 1 -1.487.223c-.692 0-1.265-.152-1.718-.455a2.672 2.672 0 0 1 -.989-1.155 3.496 3.496 0 0 1 -.31-1.43c0-.492.112-.961.338-1.406.223-.446.572-.81 1.045-1.095.47-.283 1.053-.425 1.746-.425.446 0 .874.052 1.283.156zm14.671 3.284h-3.944c.025.427.191.77.494 1.033.302.263.712.395 1.226.395a4.45 4.45 0 0 0 1.809-.4v1.14a5.674 5.674 0 0 1 -2 .358c-.406 0-.794-.057-1.16-.166a2.926 2.926 0 0 1 -.998-.522 2.499 2.499 0 0 1 -.703-.934c-.172-.384-.257-.84-.257-1.362 0-.561.12-1.07.357-1.524.238-.456.576-.812 1.012-1.07s.933-.388 1.493-.388c.474 0 .91.1 1.313.3.402.201.73.533.982.997.25.463.376 1.06.376 1.796zm-3.944-1.041h2.377c0-.429-.113-.76-.342-.996a1.141 1.141 0 0 0 -.853-.353c-.234 0-.441.064-.62.19-.18.129-.317.297-.414.505-.096.209-.145.427-.148.654zm12.828-2.312h5.14v1.12h-1.809v4.669h-1.52v-4.669h-1.811zm14.303 0h1.52v2.057h1.173c.637 0 1.136.096 1.499.292.363.194.61.43.74.71.131.277.197.566.197.863 0 .515-.19.954-.569 1.32-.377.364-.962.547-1.756.547h-2.804zm1.52 3.064v1.717h.949c.357 0 .624-.085.804-.257a.809.809 0 0 0 .005-1.202c-.177-.172-.447-.258-.809-.258zm25.197 2.725h-1.442l-1.14-3.397-.29-.939h-.055l.033 1.04v3.296h-1.52v-5.789h2.123l1.196 3.31.326 1.029h.096l.327-1.03 1.193-3.309h2.126v5.789h-1.52v-3.296l.033-1.04h-.058l-.288.94zm13.163-4.302v-1.194a5.746 5.746 0 0 1 2.125-.38c.746 0 1.31.123 1.687.368.378.248.617.53.719.847.103.316.153.652.153 1.009v3.652h-1.486v-.85h-.022c-.188.37-.457.62-.804.747-.346.13-.683.193-1.006.193-.485 0-.882-.087-1.19-.26-.31-.173-.532-.392-.668-.66a1.862 1.862 0 0 1 -.201-.844c0-.552.217-1.008.65-1.37s1.173-.543 2.224-.543h.436c.096.008.232.011.412.011h.133l-.01-.245c-.017-.335-.146-.581-.387-.746s-.543-.247-.91-.247c-.309 0-.609.037-.9.11-.294.074-.61.208-.955.402zm3.162 1.677h-.256c-.619 0-1.117.057-1.49.17-.377.116-.565.37-.565.768 0 .212.073.39.218.532.145.144.382.214.71.214.257 0 .49-.05.696-.152.208-.1.376-.269.501-.498.124-.23.186-.527.186-.888zm11.353-3.164h4.034v1.174h-2.514v4.615h-1.52zm13.611 1.487v-1.194a5.746 5.746 0 0 1 2.124-.38c.747 0 1.31.123 1.687.369.379.247.618.528.72.846.103.316.152.652.152 1.009v3.652h-1.486v-.85h-.022c-.188.37-.457.62-.803.747-.346.13-.684.193-1.007.193-.484 0-.881-.087-1.19-.26-.31-.173-.531-.392-.667-.66a1.862 1.862 0 0 1 -.202-.844c0-.552.217-1.008.651-1.37.433-.362 1.173-.543 2.224-.543h.436c.096.008.232.011.411.011h.134l-.011-.245c-.017-.334-.145-.581-.386-.746s-.543-.247-.91-.247c-.31 0-.61.037-.901.11-.293.074-.61.208-.954.402zm3.162 1.677h-.257c-.618 0-1.116.057-1.49.17-.376.116-.564.37-.564.768 0 .212.073.39.218.532.145.144.382.215.709.215.258 0 .49-.051.697-.153.208-.1.376-.269.501-.498.124-.23.186-.527.186-.888zm12.235.133v-1.063h.785c.564 0 .847-.198.847-.59a.557.557 0 0 0 -.231-.45c-.154-.125-.406-.186-.754-.186-.235 0-.5.03-.8.09s-.59.156-.864.289l-.022-1.105c.357-.129.68-.224.976-.281.297-.058.619-.088.97-.088.846 0 1.434.153 1.768.46.333.308.5.66.5 1.06 0 .39-.101.685-.303.886a1.54 1.54 0 0 1 -.69.409v.022c.31.049.603.172.875.376.272.201.407.523.407.963 0 .315-.094.61-.286.88-.19.275-.483.494-.878.66-.395.165-.878.25-1.45.25-.75 0-1.477-.158-2.18-.47l.137-1.097c.346.163.696.281 1.046.356.353.076.665.113.94.113a1.4 1.4 0 0 0 .768-.2.646.646 0 0 0 .317-.58.617.617 0 0 0 -.254-.507c-.167-.131-.444-.197-.83-.197zm13.016-3.297h1.52v3.04l-.043 1.04h.021l2.495-4.08h1.696v5.789h-1.519v-2.996l.043-1.083h-.032l-2.559 4.078h-1.62v-5.788zm15.52 0h1.52v2.191h2.436v-2.19h1.519v5.788h-1.52v-2.48h-2.436v2.48h-1.52zm14.975 2.895c0-.897.267-1.619.798-2.164.53-.546 1.262-.818 2.197-.818.469 0 .888.07 1.259.21.37.142.681.346.94.608.254.262.447.577.583.946.134.37.202.774.202 1.218 0 .59-.118 1.112-.354 1.562-.237.451-.581.8-1.03 1.049-.45.247-.984.373-1.6.373-.622 0-1.159-.126-1.609-.376a2.53 2.53 0 0 1 -1.032-1.05c-.236-.449-.354-.968-.354-1.558zm1.588 0c0 .395.06.733.183 1.019s.291.502.507.648c.215.147.452.22.717.22.403 0 .736-.166 1-.498s.397-.795.397-1.39c0-.597-.133-1.06-.397-1.39s-.598-.496-1-.496c-.265 0-.502.074-.717.222a1.45 1.45 0 0 0 -.507.646c-.123.283-.183.623-.183 1.019zm13.888-2.895h2.839c.496 0 .953.093 1.366.28.416.186.623.566.623 1.138 0 .363-.103.654-.31.874-.207.219-.461.36-.763.426v.032c.255.02.482.087.681.199.2.114.357.273.474.48s.174.455.174.74c0 .318-.082.6-.245.843-.164.246-.409.436-.733.572s-.717.205-1.178.205h-2.928zm1.52 1.008v1.25h.937c.575 0 .862-.208.862-.626 0-.416-.287-.624-.862-.624zm0 2.255v1.518h.973c.277 0 .513-.048.71-.143.196-.095.295-.3.295-.615 0-.507-.34-.76-1.016-.76z" fill="#1b1918"/></svg>