<svg viewBox="0 0 480.18 60.28" xmlns="http://www.w3.org/2000/svg" width="2500" height="314"><path d="M220.88.82h-22.84l-52.45 38.16-13.2-12.11 35.5-26h-22.85l-41.78 30.4V.87H88.18v58.57h15.07V48.21l18-13.14 25.78 24.37h20.86l-12-11 18.33-13.38L200 59.43h20.85l-35.5-32.57z" fill="#ffb81c"/><path d="M219.45 30.06c0-19.43 11-30.06 36.84-30.06s36.8 10.81 36.8 30.06-11.13 30.22-36.84 30.22-36.8-10.7-36.8-30.22zm58.6 0c0-11.86-6-17.43-21.76-17.43s-21.76 5.45-21.76 17.43 6.1 17.58 21.76 17.58 21.8-5.6 21.8-17.58z" fill="#00111a"/><path d="M396.29 13.48h-15.07V.82h15.07z" fill="#ffb81c"/><g fill="#00111a"><path d="M396.29 59.44h-15.07V20.96h15.07zM442.68 24.14c-17.09-1-20.6-1.85-20.6-6.37s3.51-5.78 18.32-5.78c13.38 0 20 1.17 21.68 5.52h15.34C475.93 4.89 462.84.01 442.07.01c-21.93 0-35.08 4.1-35.08 16.94 0 13.16 10.16 17.17 35.67 18.34 19 .91 22.36 1.69 22.36 6.62s-4.77 6.35-20.61 6.35c-16.12 0-22.2-2-23.71-6.39h-15.23c1.45 14.68 15.5 18.36 38.21 18.36 21.68 0 36.5-3.18 36.5-18.83-.09-14.77-14.41-16.03-37.5-17.26zM338.59 46.79c11.38 0 19.09-2.42 19.09-16.65s-7.71-16.67-19.09-16.67h-21.77v25.88h-15.07V.82h42.53c15.16 0 28.47 9.38 28.47 29.32s-13.31 29.3-28.47 29.3h-42.53V46.79zM19.53 59.46H0L52.89.82H77.7v58.64H62.62V12.04z"/></g></svg>