<svg height="1042pt" viewBox="16.9 389 1007.1 266" width="1042pt" xmlns="http://www.w3.org/2000/svg"><path d="m495 495.5v106.5h45.2l-.5-32.8c-.2-18-.8-33.7-1.2-35-.7-2.2-.6-2.2 6.8-2.2h7.6l21.2 35 21.3 35h24.8c13.6 0 24.8-.2 24.8-.5 0-1.6-50.3-75.8-53.8-79.3l-4.3-4.3 2.8-2.2c1.5-1.2 3.7-3.1 5-4.2 1.8-1.7 42.3-55.4 44.7-59.3.6-.9-4.5-1.2-24.2-1.2h-25l-18.7 26.5-18.6 26.5h-7.6c-7.4 0-7.5 0-6.7-2.3.4-1.2.9-27.1 1.1-57.5l.4-55.2h-45.1zm313.2-99.5c-8.7 2.1-15.1 9.9-15.2 18.5 0 5.3 4 13.7 7.9 16.5 2.9 2 11.6 5 14.9 5 .6 0 1.2-.9 1.2-2.1 0-1.8-.4-2-4.4-1.4-7.7 1.2-14.7-3.9-17.6-12.9-4.9-15 13.4-28.4 27.6-20.1 9 5.3 11.2 18.2 4.5 26.5-3.7 4.6-2.5 5.5 1.3 1 5.5-6.5 5.7-16.7.7-23.7-4.4-6.1-13.3-9.2-20.9-7.3zm7.8 38c0 .5-.4 1-1 1-.5 0-1-.5-1-1 0-.6.5-1 1-1 .6 0 1 .4 1 1z"/><path d="m804.9 401.3c-1.8 1.2-3.9 3.3-4.5 4.6-.8 1.6-1.3 1.9-1.7.9-.4-.9-.6-.7-.6.4-.1 2.5 2.2 2.2 3.4-.4 1.8-3.8 6.2-6.3 11.5-6.3 11.4 0 18.1 12.1 12.1 21.9-4.2 6.8-10.5 8.8-17.5 5.7-4.6-2-8.6-6.8-8.6-10.4 0-.9-.5-1.7-1.1-1.7-1.2 0-.4 3.3 2 7.4 2.8 5.1 6.6 7.1 13.1 7.1 7.1 0 10.5-2.1 13.8-8.5 2.7-5.4 2.8-9.9.2-14.9-3.7-7.4-15.3-10.4-22.1-5.8z"/><path d="m807.3 404.5c-3.8 1.6-6.3 6-6.3 11 0 8.2 10.7 14.1 17.9 9.9 3.4-2 6.1-6.8 6.1-10.9 0-3.1-4-10.5-5.7-10.5-1.8 0-1.6 2.7.2 3.4.9.3 2.2 2 2.9 3.8 2.2 5.2-.7 11.8-6.3 13.9-5.2 2-14.1-4.1-14.1-9.7 0-5 4.5-10.3 8.7-10.4 1.2 0 2.5-.5 2.8-1 .9-1.4-2.4-1.2-6.2.5z"/><path d="m808.3 408.5c-4.7 3.3-3.2 12.7 2.2 14.1 5.5 1.4 9.5-1.5 11.1-8 .5-2.1.4-2.8-.6-2.4-.7.2-1.4 1.6-1.4 3.1-.2 3.6-2.8 6-6.7 6-4 0-6.1-2.6-5.7-7.3.2-2.6 1-3.8 3.1-5 2.5-1.4 3-1.3 5.7.2 1.7.9 3 1.3 3 .8 0-2.8-7.3-3.9-10.7-1.5zm-577.3 3.5c-1.1 1.1-2 2.6-2 3.3 0 2.4 3.1 5.7 5.5 5.7 5.2 0 7.4-6.5 3.3-9.4-3-2.1-4.4-2-6.8.4zm447 19v21h-6.9c-3.7 0-9.6.3-13 .6l-6.1.7v27.7h26v41.2c0 22.7.5 44.6 1 48.7 1.8 13.5 8.1 23.2 18.7 28.8 7.2 3.8 14.1 5.3 24.6 5.3 14.4 0 40.4-4 41.3-6.4.2-.6-.6-7.4-1.9-15.1l-2.2-14-13-.5c-14.1-.6-17.4-1.6-20.9-6.3-2-2.8-2.1-4.1-2.4-42.3l-.3-39.4h42.1v-30h-42v-41h-45z"/><path d="m809.7 411.8c-1 1-1.7 2.7-1.7 3.8 0 1.6.2 1.5 1.3-.6 1.6-3.1 4.6-3.8 6.4-1.4 1.1 1.5 1 2-.3 3.5-.9 1-2.2 1.5-3 1.2s-1.4 0-1.4.6c0 1.6 3.6 1.3 5.4-.5 2.1-2.1 2-4.7-.2-6.7-2.4-2.2-4.5-2.1-6.5.1zm-611.5 10.8c-4.1 2.8-1.9 9.4 3.2 9.4 3 0 4.6-1.8 4.6-5.1 0-2.4-3-5.9-5-5.9-.3 0-1.6.7-2.8 1.6zm-39.1 15c-2.4 3.1-2.6 4.3-1 7.8 3.1 6.7 13.9 4.1 13.9-3.3 0-3.4-3.9-7.1-7.5-7.1-2.4 0-3.9.7-5.4 2.6zm73.5 10c-3.4 3.4-1.1 8.4 3.9 8.4 3.5 0 5.5-2 5.5-5.4 0-2.2-2.8-4.6-5.5-4.6-1.3 0-3.1.7-3.9 1.6zm150.4.4c-24.8 1.5-58.6 5.4-60.3 7-.8.7 2.6 27.7 3.7 28.7.3.3 12.4 0 26.8-.7 33.8-1.6 48.1-1.2 52.7 1.5 6 3.5 7.6 6.6 8 16.1l.3 8.4h-30c-34 0-41.5.9-51.3 6.1-7.4 4-13.1 10.3-16 17.8-2 4.9-2.3 7.5-2.3 21.6-.1 12.3.3 17.3 1.6 21.5 5.4 17.4 21 27.7 43.4 28.8 13 .6 22.5-1.4 34.3-7.3 8.5-4.3 24.1-16.4 24.1-18.7 0-.7.3-.8.8-.3.5.6 1.7 5.5 2.7 11s2 10.6 2.3 11.3c.3 1 4.5 1.2 18.1 1l17.6-.3v-56c0-50.1-.2-56.7-1.8-62.9-7.1-28-27.4-37.4-74.7-34.6zm31 98.2v12.3l-4.3 2.6c-11.5 7.2-22.7 10.9-33.1 10.9-13.3 0-17.6-4.6-17.6-18.8 0-9.1 1.5-13.7 5.2-16.2 1.8-1.2 7.1-1.6 23.8-2 11.8-.3 22.5-.7 23.8-.8 2.2-.2 2.2-.1 2.2 12zm377-19.7v75.5h44v-151h-44zm66.3-74.3c.2.7 11.5 32.6 25.1 70.8 13.5 38.2 25.4 70.6 26.4 71.9 1 1.4 3.1 3.4 4.6 4.5 2.6 2 4.1 2.1 26.9 2.1 22.5 0 24.4-.1 27.7-2 1.9-1.2 4.2-3.5 5.3-5.2 1.9-3.3 50.7-139.9 50.7-142.1 0-1-5.1-1.2-23.7-1l-23.6.3-11.9 41c-9.7 33.6-21.8 77.5-21.8 79.1 0 .2-.9.4-1.9.4-2.3 0-2.1.5-6-16-2.2-9.4-18.8-67.1-29.7-103.3-.5-1.6-2.5-1.7-24.6-1.7-18.8 0-23.9.3-23.5 1.2zm-733.6 1.6c-2.3 2.5-2.1 6.8.3 9.2 2.7 2.7 5.6 2.5 8.6-.6 2-1.9 2.4-3.1 1.9-5.2-1.2-5.1-7.5-7.1-10.8-3.4zm69.2 1.5c-7 4.7-7.6 14.4-1.2 20.4 3 2.9 4.1 3.3 8.7 3.3 5.9 0 9.6-2.1 12.1-7 6.2-11.9-8.3-24.3-19.6-16.7zm-104.5 14.3c-4.3 4.2-1.5 10.4 4.6 10.4 5.5 0 8-7 4-11-2.7-2.7-5.6-2.5-8.6.6zm68.9.4c-13.4 8.2-3 29.3 11.6 23.4 9.8-3.9 11.5-15.3 3.5-22.3-4.2-3.7-10.1-4.2-15.1-1.1zm-104.1 14.6c-2.4 1.7-3 6.2-1 8.2 1.7 1.7 6.4 1.5 8.2-.4 4.5-4.5-2-11.5-7.2-7.8zm180.3-.4c-2.8 1.6-3.5 2.8-3.5 6.4 0 3.8 2.7 6.4 6.7 6.4 6.9 0 9.1-10 2.8-12.8-3.1-1.4-3.5-1.4-6 0zm-109.3.5c-1.2.2-3.7 1.9-5.6 3.6-6.5 6.2-5.4 16.3 2.3 21.4 11.5 7.7 26.4-6.6 19.1-18.4-3.3-5.4-9.4-8-15.8-6.6zm68.7 9c-8 4.9-7.9 17.9.1 22.7 6 3.5 15.6 1.2 18.5-4.4 1.8-3.5 1.9-10.6.1-13.8-3.1-5.7-12.9-8.1-18.7-4.5zm-174.9 9.8c-1 1.2-1.1 2.1-.4 3.3 1.5 2.2 2.7 2.4 4.9.8 1.6-1.2 1.8-1.8.9-3.3-1.5-2.4-3.8-2.7-5.4-.8zm138.3 1.4c-10.4 4.8-13.1 18.6-5.3 27.5 4 4.5 7.9 5.9 14.4 5.4 9.7-.8 15.6-7.4 15.6-17.3 0-5.3-1.6-8.8-5.7-12.8-5.2-4.9-12.1-5.9-19-2.8zm-70.8 1.6c-5.6 5.5-1.8 15.5 5.9 15.5 4.8 0 6.5-.8 8.1-4.1 2.3-4.3 1.8-7.7-1.4-11-3.8-3.8-9.1-4-12.6-.4zm145.5 17.5c-1.2 1.2-2 3.3-2 5.3 0 7.7 10.7 10.1 13.9 3 1.6-3.4 1.4-4.7-1-7.7-2.6-3.3-7.9-3.6-10.9-.6zm-177.8.6c-2.4 1.7-3 6.2-1 8.2 3.7 3.7 11.3-1.2 8.8-5.7-.9-1.7-3.9-4.1-5.2-4.1-.2 0-1.4.7-2.6 1.6zm68.7 2.8c-5.8 3.3-6.1 11.5-.7 16.1 6.7 5.7 15.8.8 15.8-8.5 0-6.6-8.9-11-15.1-7.6zm72.4 6.5c-5 2.3-7.3 6.3-7.3 12.6 0 12.5 17.9 17.3 24.3 6.5 2.1-3.5 2.2-11.3.1-14.5-3.7-5.7-10.7-7.6-17.1-4.6zm-37.8 14.5c-6 2.6-8.8 11.4-5.6 17.4 4.2 7.9 17.5 8 21.6.2 5.7-11.1-4.7-22.5-16-17.6zm75.9 13.8c-7.9 3.8-2.4 16 5.9 12.9 5.6-2.1 6-9.9.7-12.6-3.3-1.7-3.7-1.7-6.6-.3zm-38.3 17.4c-1.2 1.5-2.1 3.7-2.1 4.9s.9 3.4 2.1 4.9c1.6 2 2.9 2.6 5.9 2.6s4.3-.6 5.9-2.6c1.2-1.5 2.1-3.7 2.1-4.9s-.9-3.4-2.1-4.9c-1.6-2-2.9-2.6-5.9-2.6s-4.3.6-5.9 2.6zm37.5 25c-2.2 2.1-2 5 .4 7.4s3.8 2.5 6.8.4c2.4-1.7 3-6.2 1-8.2-1.7-1.7-6.4-1.5-8.2.4zm-36.7 17.5c-1.7 3.3.3 6.9 3.9 6.9 3.3 0 5.2-1.6 5.2-4.5s-1.9-4.5-5.2-4.5c-1.8 0-3.1.7-3.9 2.1zm37.1 24.4c-1 1.2-1 2.1-.2 4 2.1 4.5 7.7 2.3 7-2.7-.4-2.8-4.8-3.7-6.8-1.3z"/></svg>