<svg height="2193" width="2500" xmlns="http://www.w3.org/2000/svg" viewBox="-0.19 -0.2099999999999982 247.9426797018048 217.48699999999997"><g stroke-miterlimit="10"><g fill="none" stroke-width="2"><path d="M188.546 99.207c.02.12.093.227.197.287.103.06.226.07.333.023l22.65-9.62a1.52 1.52 0 0 1 1.79.43c5.994 7.5 10.66 15.636 14 24.41 1.88 4.94 3.794 11.33 5.74 19.17a168.163 168.163 0 0 1 3.68 19.79.626.626 0 0 1-.4.67c-28.52 10.24-57.88 18.27-88.08 24.09a1.185 1.185 0 0 1-1.3-.67l-6.39-13.84c-.266-.574-.553-.58-.86-.02l-2.69 4.92a2.212 2.212 0 0 1-1.73 1.13 641.937 641.937 0 0 1-52.16 2.98c-.378.006-.71-.227-.81-.57l-4.28-14.07c-.246-.82-.56-.85-.94-.09l-4.28 8.54c-.256.506-.76.851-1.34.92a589.49 589.49 0 0 1-47.78 3.86.93.93 0 0 1-.95-.77c-.82-4.8-1.453-9.22-1.9-13.26a10476.375 10476.375 0 0 1-5.19-48.06c-.56-5.287-1.31-11.91-2.25-19.87a1719.752 1719.752 0 0 1-4.76-45.33 1.617 1.617 0 0 1 .21-.93l8.27-14.49a2.38 2.38 0 0 1 1.48-1.13l62.68-16.05a.62.62 0 0 1 .72.34l15.6 33.06a.4.4 0 0 0 .66.09l15.25-16.99c.393-.439.941-.72 1.54-.79 19.554-2.4 38.9-4.09 58.04-5.07a.59.59 0 0 1 .62.45c5.854 25.3 10.73 50.786 14.63 76.46M109.296 193.077a.535.535 0 0 0 .17.7c3.5 2.293 4.867 5.123 4.1 8.49-.646 2.813-2.276 4.79-4.89 5.93-2.306 1.006-5.083 1.3-8.33.88a1.525 1.525 0 0 1-1.28-1.13c-1.806-6.954-2.893-13.764-3.26-20.43-.12-2.187.6-3.567 2.16-4.14 5.32-1.96 9.164-.727 11.53 3.7.974 1.82.907 3.82-.2 6" stroke="gray"/><path d="M29.806 199.337c-.04-.312-.286-.544-.57-.54l-5.74.1c-.285.006-.52.245-.54.55-.34 3.926-.703 6.386-1.09 7.38-.493 1.273-1.156 1.463-1.99.57-.206-.22-.33-.536-.35-.89-.44-7.674.674-14.65 3.34-20.93.767-1.8 2.064-2.7 3.89-2.7 1.427 0 2.577.67 3.45 2.01 1 1.54 1.7 3.416 2.1 5.63 1.247 6.893 1.97 12.623 2.17 17.19a.916.916 0 0 1-.38.8c-1.006.693-1.87.656-2.59-.11-.4-.427-.66-1.117-.78-2.07-.306-2.334-.613-4.664-.92-6.99" stroke="#e98686"/><path d="M198.986 197.237a.78.78 0 0 0-.2.83 70.332 70.332 0 0 0 3.37 8.1c.507 1.02.784 1.836.83 2.45.127 1.706-.843 2.136-2.91 1.29a1.194 1.194 0 0 1-.67-.65l-3.88-9.83c-.124-.311-.37-.53-.65-.58-1.486-.287-3.186-.157-5.1.39-.27.079-.465.346-.49.67l-.45 7.05a.787.787 0 0 1-.56.69c-1.106.373-1.696-.15-1.77-1.57-.346-7.187-.34-14.187.02-21a1.93 1.93 0 0 1 1.55-1.79c3.567-.707 6.647-.267 9.24 1.32 2.167 1.32 3.53 3.116 4.09 5.39.654 2.64-.153 5.053-2.42 7.24M143.366 183.447c.33-.013.648.114.87.35.68.726.837 1.513.47 2.36-.273.633-.813 1.063-1.62 1.29-1.353.386-2.883.47-4.59.25a.706.706 0 0 0-.562.174.684.684 0 0 0-.228.536c.24 6.68.447 13.053.62 19.12.067 2.226-.69 3.04-2.27 2.44-1.113-.427-1.68-1.217-1.7-2.37l-.3-19.5a.58.58 0 0 0-.57-.58c-1.813 0-3.41-.474-4.79-1.42-.726-.494-.943-1.047-.65-1.66.123-.275.418-.458.76-.47z" stroke="gray"/><path d="M157.106 204.697c.003.135.058.264.154.357s.224.145.356.143c2.474-.014 4.94.076 7.4.27 1 .08 1.767.323 2.3.73 1.114.833.997 1.76-.35 2.78a1.5 1.5 0 0 1-.91.29h-9.96c-1.82 0-2.753-.884-2.8-2.65l-.49-20.99c-.017-.886.455-1.727 1.24-2.21.447-.274.857-.097 1.23.53.18.3.297.693.35 1.18.774 6.5 1.267 13.023 1.48 19.57" stroke="#a3b9b3"/><path d="M52.866 201.317a.456.456 0 0 0-.328.157.435.435 0 0 0-.102.343c.287 2.166.59 4.326.91 6.48.2 1.3-.236 1.836-1.31 1.61-.29-.061-.53-.295-.63-.61a227.713 227.713 0 0 1-5.62-21.88c-.293-1.434.244-2.414 1.61-2.94 2.647-1.027 5.394-.964 8.24.19 3.254 1.326 5.184 3.49 5.79 6.49.514 2.56.007 4.83-1.52 6.81-1.606 2.093-3.953 3.21-7.04 3.35M46.106 205.107c1.747.153 2.214.96 1.4 2.42-.15.27-.432.456-.76.5a24.017 24.017 0 0 1-9.27-.45 1.92 1.92 0 0 1-1.45-1.74c-.386-6.46-.343-13.064.13-19.81.08-1.187.624-1.577 1.63-1.17.278.11.477.386.52.72.654 4.846.877 10.493.67 16.94-.04 1.24.554 1.93 1.78 2.07 1.4.16 3.184.333 5.35.52M67.546 197.217a.586.586 0 0 0 .57.51h5.37c.267-.002.49-.228.51-.52l.8-11.37a.875.875 0 0 1 .52-.74c.734-.32 1.33-.24 1.79.24.294.306.454.803.48 1.49.38 9.673.454 16.486.22 20.44-.126 2.2-1.116 2.916-2.97 2.15-.32-.134-.533-.416-.54-.72l-.19-6.7c-.01-.406-.312-.73-.68-.73h-4.89a.52.52 0 0 0-.5.67c.627 2.1.734 4.193.32 6.28a.852.852 0 0 1-.58.65c-1.373.393-2.173-.144-2.4-1.61a185.854 185.854 0 0 1-2.05-21.49c-.012-.335.133-.639.38-.8.694-.454 1.267-.404 1.72.15.227.28.394.743.5 1.39.58 3.56 1.12 7.13 1.62 10.71M86.746 185.227c.987.246 1.907.946 2.76 2.1 1.44 1.933 2.54 4.246 3.3 6.94 1.374 4.893 2.177 9.373 2.41 13.44.02.333-.08.649-.28.88-.92 1.06-1.713 1.06-2.38 0-.246-.394-.443-1.01-.59-1.85a42.702 42.702 0 0 0-1.56-6.19.795.795 0 0 0-.66-.54 15.895 15.895 0 0 0-5.64.21.605.605 0 0 0-.48.6c.027 2.453.08 4.906.16 7.36.014.44-.043.823-.17 1.15-.473 1.18-.993 1.076-1.56-.31-1.24-3.034-1.733-6.87-1.48-11.51.147-2.634.31-4.46.49-5.48.347-1.967 1.03-3.7 2.05-5.2.98-1.427 2.19-1.96 3.63-1.6M207.826 199.527c1.067 2.02 2.954 3.063 5.66 3.13 1.64.046 3.517-.314 5.63-1.08 1.534-.554 2.24-.14 2.12 1.24-.06.633-.35 1.18-.87 1.64-1.686 1.5-3.956 2.186-6.81 2.06-3.786-.174-6.6-1.61-8.44-4.31-1.626-2.394-2.253-5.077-1.88-8.05.354-2.827 1.42-4.974 3.2-6.44 2.16-1.787 4.887-2.04 8.18-.76 2 .773 3.17 2.29 3.51 4.55.48 3.226-.743 5.336-3.67 6.33-1.746.593-3.726.806-5.94.64-.866-.067-1.096.283-.69 1.05M182.596 201.604c-1.373 2.066-3.556 3.47-6.07 3.906s-5.151-.135-7.334-1.585c-4.545-3.02-5.913-8.955-3.055-13.256 1.372-2.065 3.555-3.47 6.07-3.905s5.151.135 7.334 1.585c4.544 3.02 5.912 8.954 3.055 13.255M119.926 201.587c.274.726.747 1.343 1.42 1.85.574.433 1.267.663 2.08.69a7.928 7.928 0 0 0 4.26-1.04c.967-.554 1.58-.867 1.84-.94 1.167-.307 1.704.163 1.61 1.41-.04.573-.286 1.1-.74 1.58-2.113 2.253-4.546 3.206-7.3 2.86-2.52-.314-4.426-1.607-5.72-3.88-1.386-2.44-1.91-5.39-1.57-8.85.36-3.62 1.89-6.054 4.59-7.3 3.594-1.66 6.377-1.124 8.35 1.61.994 1.38 1.267 2.96.82 4.74-.366 1.486-1.13 2.78-2.29 3.88-1.78 1.7-4.04 2.556-6.78 2.57a.61.61 0 0 0-.57.82" stroke="gray"/><path d="M224.736 201.657a.34.34 0 0 1 .22.36c-.313 2.773-.813 3.116-1.5 1.03-.453-1.387-.026-1.85 1.28-1.39" stroke="#afcdc6"/><path d="M227.556 201.597c.52-.027 1.067 0 1.64.08.9.12 1.464.796 1.69 2.03.16.846-.113 1.026-.82.54-.673-.46-1.533-.53-2.58-.21a.53.53 0 0 1-.396-.04.49.49 0 0 1-.244-.3c-.386-1.354-.15-2.054.71-2.1" stroke="#a3b9b3"/><path d="M32.486 158.317c-3.486-36.1-7.703-72.667-12.65-109.7-.083-.61.074-1.24.44-1.76l4.99-7.09" stroke="#2c0f0e"/><path d="M34.586 159.407c-1.42.726-2.12.363-2.1-1.09" stroke="#7c3635"/><path d="M70.056 148.307a33.379 33.379 0 0 1-4.49 7.26c-.206.25-.5.411-.82.45l-30.16 3.39" stroke="#2c0f0e"/><path d="M70.796 146.217c.554.866.307 1.563-.74 2.09" stroke="#7c3635"/><path d="M70.796 146.217c-.26-4.68-.526-7.56-.8-8.64-.753-2.92-1.226-5.414-1.42-7.48-.246-2.654-.456-4.48-.63-5.48a45.303 45.303 0 0 1-.56-5.53.645.645 0 0 1 .47-.64c1-.28 1.997-.574 2.99-.88a17.883 17.883 0 0 1 3.51-.73c3.494-.36 6.977-.787 10.45-1.28" stroke="#7f0000"/><path d="M134.556 152.807l-3.75 6.71a1.465 1.465 0 0 1-1.23.75c-11.133.34-22.253.8-33.36 1.38-.566.033-1.28-.054-2.14-.26a6.727 6.727 0 0 0-2.2-.15 1.015 1.015 0 0 1-1.06-.69 824.974 824.974 0 0 0-15.02-41.51.47.47 0 0 1 .018-.384.404.404 0 0 1 .292-.216l7.44-1.16c.414-.063.737-.197.87-.36.3-.38.43-.834.39-1.36" stroke="#2c0f0e"/><path d="M134.056 150.977c.734.46.9 1.07.5 1.83" stroke="#7c3635"/><path d="M133.096 148.017a4.35 4.35 0 0 1 .96 2.96" stroke="#7f0000"/><path d="M25.266 39.767c.367-.714.797-1.13 1.29-1.25a688.483 688.483 0 0 1 51.01-10.67.66.66 0 0 1 .7.37l54.83 119.8" stroke="#650a0a"/><path d="M27.016 41.017c-.146-1.174.564-1.61 2.13-1.31.72.133 1.427.08 2.12-.16 5.08-1.747 9.894-2.957 14.44-3.63 1.387-.207 3.124-.597 5.21-1.17 1.74-.474 3.51-.777 5.31-.91 1.68-.12 3.187-.404 4.52-.85 2.274-.76 3.794-1.084 4.56-.97 2.44.36 4.784-.11 7.03-1.41 2.26-1.307 3.984-.797 5.17 1.53 4.787 9.393 9.57 19.56 14.35 30.5a957.308 957.308 0 0 0 15.12 32.89c.034.066.82 1.933 2.36 5.6.887 2.1 2.01 4.076 3.37 5.93.16.224.225.54.18.88a2.241 2.241 0 0 0 .36 1.57c.48.726.747 1.153.8 1.28a176.07 176.07 0 0 0 4.42 9.52 131.667 131.667 0 0 1 4.27 9.54 140.512 140.512 0 0 0 8.18 16.91c.054.093.247.486.58 1.18.54 1.12 1.074 1.146 1.6.08" stroke="#e40a0a"/><path d="M25.516 40.767c.667-1.4 1.167-1.317 1.5.25" stroke="#e03f3e"/><path d="M25.516 40.767a1.234 1.234 0 0 1-.25-1" stroke="#911818"/><path d="M25.516 40.767c2.154 16.646 6 48.98 11.54 97 .707 6.113 1.114 10.03 1.22 11.75.026.326-.047.656-.21.95-1.466 2.66-3.326 5.276-5.58 7.85" stroke="#a84443"/><path d="M134.056 150.977c-10.533-.167-21.413.39-32.64 1.67a1.04 1.04 0 0 1-1.05-.57 239.83 239.83 0 0 1-13.71-34.74 10.157 10.157 0 0 1-.1-.66c-.06-.454-.38-.59-.96-.41" stroke="#fb3635"/><path d="M84.806 115.557c.514-.06.777.176.79.71" stroke="#ab0f0e"/><path d="M70.796 146.217l-29.45 2.84c-.26.025-.52-.054-.72-.22s-.327-.402-.35-.66a1347.986 1347.986 0 0 0-4.87-41.51 1019.884 1019.884 0 0 1-2.43-19.84 1354.769 1354.769 0 0 0-5.96-45.81" stroke="#fb3635"/><path d="M34.586 159.407l5.46-7.71c.166-.23.462-.383.81-.42l29.2-2.97M134.556 152.807a234.364 234.364 0 0 0-31.57 1.57c-.866.1-1.66.4-2.38.9-2.626 1.833-4.923 3.693-6.89 5.58-.126.126-.253.193-.38.2a.54.54 0 0 1-.28-.05c-.056-.026-.09-.084-.091-.158s.028-.156.081-.222l5.29-6.69c.366-.47.413-1.134.12-1.7-5.766-11.187-10.2-22.72-13.3-34.6-.08-.3-.083-.547-.01-.74.094-.24.244-.45.45-.63" stroke="#a84443"/><path d="M185.776 154.317l-31.85 9.34a.74.74 0 0 1-.88-.4l-47.54-104.55a1.317 1.317 0 0 1 .21-1.38l12.96-15.46" stroke="#243934"/><path d="M118.676 41.867l45.13-6.34a.65.65 0 0 1 .73.52 2299.477 2299.477 0 0 1 14.95 77.01 1.39 1.39 0 0 1-.68 1.46c-4.42 2.573-8.21 5.716-11.37 9.43-.257.307-.368.645-.29.88.114.346.487.32 1.12-.08a195.878 195.878 0 0 1 26.12-13.88c2.734-1.2 5.79-2.067 9.17-2.6 2.5-.394 4.564.293 6.19 2.06 1.287 1.406 2.584 3.743 3.89 7.01 3.207 7.986 5.744 16.4 7.61 25.24a.845.845 0 0 1-.54.98 406.517 406.517 0 0 1-34.93 10.76" stroke="#2f4e46"/><path d="M179.896 134.317c3.167 6.266 5.127 12.933 5.88 20" stroke="#53877a"/><path d="M179.896 134.317c-.18-2.554-1.14-4.62-2.88-6.2-1.186-1.08-2.506-1.497-3.96-1.25-1.326.22-2.723.79-4.19 1.71a306.562 306.562 0 0 0-13.66 9.15c-.096.068-.22.086-.333.049s-.205-.126-.247-.24a7156.54 7156.54 0 0 0-26.12-69.25c-2.92-7.62-4.653-12.71-5.2-15.27-.46-2.153-1.363-3.736-2.71-4.75" stroke="#6dae9f"/><path d="M118.676 41.867c1.427 2.246 2.067 4.38 1.92 6.4" stroke="#53877a"/><path d="M179.896 134.317l-3.91-5c-.746-.954-1.74-1.184-2.98-.69a28.852 28.852 0 0 0-5.47 2.88c-4.673 3.126-9.19 6.3-13.55 9.52a.846.846 0 0 1-.736.132.824.824 0 0 1-.544-.502 2914.464 2914.464 0 0 1-23.96-65.58c-3.986-11.327-6.703-20.264-8.15-26.81" stroke="#629a8c"/><path d="M85.506 96.227c-10.786.813-21.726 2.223-32.82 4.23-.135.023-.275-.008-.386-.087s-.184-.2-.204-.333l-5.87-41.63a1.52 1.52 0 0 1 1.25-1.7l22.04-3.89a.775.775 0 0 1 .84.45l18.36 41.75a.48.48 0 0 1-.31.65c-1.073.306-2.04.493-2.9.56" stroke="#880101"/><path d="M202.176 129.457a.675.675 0 0 0 .41.68c1.787.76 2.867 2.17 3.24 4.23.234 1.293-.08 1.443-.94.45-.9-1.034-2.19-1.737-3.87-2.11a.81.81 0 0 0-.82.28c-1.166 1.426-2.526 2.54-4.08 3.34-1.553.793-1.886.573-1-.66.127-.18.31-.394.55-.64 3.214-3.334 4.844-7.337 4.89-12.01.004-.351.208-.637.47-.66.407-.034.677.266.81.9.44 2.04.554 4.106.34 6.2" stroke="#2f4e46"/><path d="M69.846 58.017a716.137 716.137 0 0 1 14.71 34.96c.05.121.043.259-.018.37s-.17.181-.292.19l-2.44.19" stroke="#856868"/><path d="M81.806 93.727l-4.88.55c-.293.029-.574-.161-.68-.46-4.26-12.38-8.22-24.584-11.88-36.61-.273-.907.13-1.26 1.21-1.06.319.065.648.03.94-.1 1.947-.867 3.057-.21 3.33 1.97" stroke="#898080"/><path d="M81.806 93.727l-12.83-33.74c-.09-.241.01-.538.25-.74.367-.307.574-.717.62-1.23" stroke="#fce7e7"/><path d="M63.326 96.197a.51.51 0 0 1-.57-.41l-6.8-37.11c-.049-.28.156-.55.46-.61l5.45-1.15c.352-.073.696.108.8.42l11.69 36.58c.056.168.036.352-.055.502s-.242.252-.415.278zM49.046 59.947a.555.555 0 0 1 .44-.6l4.27-.92c.128-.026.26.002.367.077s.181.192.203.323l6.58 37.39a.5.5 0 0 1-.4.58l-5.75 1.02a.525.525 0 0 1-.6-.43 688.148 688.148 0 0 1-5.11-37.44" stroke="#898080"/><path d="M104.406 186.637c1.24.706 1.864 1.646 1.87 2.82 0 .94-.47 1.783-1.41 2.53a10.977 10.977 0 0 1-4.07 2.03c-.143.039-.295.021-.418-.047s-.203-.183-.222-.313l-.81-6.33c-.036-.29.139-.592.44-.76 1.494-.854 3.034-.83 4.62.07M108.116 197.457c1.354.54 2.044 1.556 2.07 3.05.027 1.14-.376 2.163-1.21 3.07-1.66 1.82-3.87 2.403-6.63 1.75-.324-.078-.566-.315-.61-.6l-.98-6.91c-.048-.364.21-.713.6-.81 2.3-.587 4.554-.437 6.76.45" stroke="gray"/><path d="M26.096 187.257c.454-.92.907-.92 1.36 0 1.034 2.14 1.55 4.54 1.55 7.2-.003.305-.226.554-.51.57l-4.12.2a.424.424 0 0 1-.343-.146.489.489 0 0 1-.117-.374c.247-2.547.974-5.03 2.18-7.45" stroke="#e98686"/><path d="M195.586 188.247c2.3 1.626 2.627 3.486.98 5.58-.24.303-.538.487-.81.5l-5.98.38a.42.42 0 0 1-.356-.168.615.615 0 0 1-.124-.432l.51-6.58c.025-.292.248-.52.52-.53 2.18-.107 3.934.31 5.26 1.25M56.116 188.957c1.52 1.14 2.247 2.483 2.18 4.03-.06 1.4-.71 2.576-1.95 3.53-1.22.94-2.67 1.386-4.35 1.34a.63.63 0 0 1-.61-.51l-1.99-9.34a.52.52 0 0 1 .4-.61c2.22-.46 4.327.06 6.32 1.56M85.856 188.757a.43.43 0 0 1 .74-.01c1.247 1.966 2.117 4.14 2.61 6.52.028.137.003.28-.069.392s-.185.184-.31.198l-4.45.56a.46.46 0 0 1-.52-.46c-.007-2.507.66-4.907 2-7.2M212.436 190.047c.987.273 1.684.693 2.09 1.26.494.693.464 1.416-.09 2.17-.36.486-.906.826-1.64 1.02-1.706.453-3.433.48-5.18.08a.58.58 0 0 1-.45-.63c.38-3.467 2.137-4.767 5.27-3.9M180.024 198.285c-.536 1.41-1.673 2.526-3.162 3.102s-3.207.565-4.776-.031c-3.268-1.242-5.013-4.63-3.897-7.567.536-1.41 1.673-2.527 3.162-3.103s3.207-.565 4.776.032c3.268 1.241 5.013 4.629 3.897 7.567M125.737 191.168c.527.57.703 1.423.488 2.368s-.801 1.908-1.632 2.674c-1.729 1.596-4.02 1.925-5.117.736-.527-.571-.703-1.423-.488-2.37s.801-1.906 1.631-2.673c1.73-1.595 4.02-1.924 5.118-.735" stroke="gray"/></g><path d="M193.016 75.517c-.06 2.7.48 5.526 1.62 8.48 9.78-4.667 17.607-7.89 23.48-9.67 1.754-.527 3.174.09 4.26 1.85.507.813.77 1.236.79 1.27 9.9 14.353 16.98 29.906 21.24 46.66 1.627 6.4 2.62 12.78 2.98 19.14a133.3 133.3 0 0 1-.32 19.44c-.074.801-.582 1.485-1.31 1.76l-21.58 8.27c-.245.095-.396.291-.34.44.054.133.214.19.48.17 1.26-.107 4.027.103 8.3.63 1.654.2 2.83.823 3.53 1.87.247.366.644 1.513 1.19 3.44.987 3.46 2.227 8.876 3.72 16.25 1.087 5.36 1.304 10.006.65 13.94-.021.12-.22.4-.51.72-.246.28-.46.823-.64 1.63a.865.865 0 0 1-.82.67c-6.06.146-11.88.343-17.46.59-7.233.326-13.05.533-17.45.62-48.673.966-97.343 1.986-146.01 3.06-20.106.44-34.776.53-44.01.27-1.206-.034-2.236-.567-3.09-1.6-.546-.654-1-1.657-1.36-3.01a58.785 58.785 0 0 1-1.92-16.64c0-.107-.023-1.77-.07-4.99-.046-2.84.514-5.584 1.68-8.23 1.18-2.68 3.094-4.574 5.74-5.68 1.027-.434 1.037-.884.03-1.35a5.966 5.966 0 0 1-2.28-1.8c-.446-.574-.783-1.44-1.01-2.6a225.762 225.762 0 0 1-4.22-39.85c-.033-2.14-.5-7.644-1.4-16.51-.473-4.714-1.183-10.19-2.13-16.43a956.942 956.942 0 0 1-3.03-21.8C.373 65.667-.19 54.413.056 42.767c.134-6.227 1.997-11.39 5.59-15.49 2.287-2.62 6.624-5.384 13.01-8.29 19.06-8.667 38.94-14.72 59.64-18.16 5.047-.834 8.564-1.037 10.55-.61 4.114.893 6.85 3.66 8.21 8.3 2.074 7.08 3.92 12.43 5.54 16.05.12.255.411.377.67.28 10.44-3.84 22.12-7.7 35.04-11.58 12.24-3.674 24.47-5.804 36.69-6.39 3.64-.174 5.677-.227 6.11-.16a7.46 7.46 0 0 1 4.03 1.91c.894.813 1.537 2.06 1.93 3.74a126.898 126.898 0 0 1 3.31 26.53c.14 7.206.32 12.113.54 14.72.634 7.306 1.334 14.606 2.1 21.9zm-4.47 23.69c-3.9-25.674-8.776-51.16-14.63-76.46a.59.59 0 0 0-.62-.45c-19.14.98-38.486 2.67-58.04 5.07-.599.07-1.147.351-1.54.79l-15.25 16.99a.4.4 0 0 1-.66-.09l-15.6-33.06a.62.62 0 0 0-.72-.34l-62.68 16.05a2.38 2.38 0 0 0-1.48 1.13l-8.27 14.49a1.617 1.617 0 0 0-.21.93 1719.752 1719.752 0 0 0 4.76 45.33c.94 7.96 1.69 14.583 2.25 19.87 1.694 16.026 3.424 32.046 5.19 48.06.447 4.04 1.08 8.46 1.9 13.26a.93.93 0 0 0 .95.77 589.49 589.49 0 0 0 47.78-3.86 1.721 1.721 0 0 0 1.34-.92l4.28-8.54c.38-.76.694-.73.94.09l4.28 14.07c.1.343.432.576.81.57a641.937 641.937 0 0 0 52.16-2.98 2.212 2.212 0 0 0 1.73-1.13l2.69-4.92c.307-.56.594-.554.86.02l6.39 13.84c.23.497.767.774 1.3.67 30.2-5.82 59.56-13.85 88.08-24.09a.626.626 0 0 0 .4-.67 168.163 168.163 0 0 0-3.68-19.79c-1.946-7.84-3.86-14.23-5.74-19.17-3.34-8.774-8.006-16.91-14-24.41a1.52 1.52 0 0 0-1.79-.43l-22.65 9.62c-.107.046-.23.038-.333-.023s-.176-.166-.197-.287zm-79.25 93.87c1.107-2.18 1.174-4.18.2-6-2.366-4.427-6.21-5.66-11.53-3.7-1.56.573-2.28 1.953-2.16 4.14.367 6.666 1.454 13.476 3.26 20.43a1.525 1.525 0 0 0 1.28 1.13c3.247.42 6.024.126 8.33-.88 2.614-1.14 4.244-3.117 4.89-5.93.767-3.367-.6-6.197-4.1-8.49a.535.535 0 0 1-.17-.7zm-79.49 6.26c.307 2.326.614 4.656.92 6.99.12.953.38 1.643.78 2.07.72.766 1.584.803 2.59.11a.916.916 0 0 0 .38-.8c-.2-4.567-.923-10.297-2.17-17.19-.4-2.214-1.1-4.09-2.1-5.63-.873-1.34-2.023-2.01-3.45-2.01-1.826 0-3.123.9-3.89 2.7-2.666 6.28-3.78 13.256-3.34 20.93.02.354.144.67.35.89.834.893 1.497.703 1.99-.57.387-.994.75-3.454 1.09-7.38.02-.305.255-.544.54-.55l5.74-.1c.284-.004.53.228.57.54zm169.18-2.1c2.267-2.187 3.074-4.6 2.42-7.24-.56-2.274-1.923-4.07-4.09-5.39-2.593-1.587-5.673-2.027-9.24-1.32a1.93 1.93 0 0 0-1.55 1.79c-.36 6.813-.366 13.813-.02 21 .074 1.42.664 1.943 1.77 1.57a.787.787 0 0 0 .56-.69l.45-7.05c.025-.324.22-.591.49-.67 1.914-.547 3.614-.677 5.1-.39.28.05.526.269.65.58l3.88 9.83c.115.287.357.522.67.65 2.067.846 3.037.416 2.91-1.29-.046-.614-.323-1.43-.83-2.45a70.332 70.332 0 0 1-3.37-8.1.78.78 0 0 1 .2-.83zm-55.62-13.79l-14.56.52c-.342.012-.637.195-.76.47-.293.613-.076 1.166.65 1.66 1.38.946 2.977 1.42 4.79 1.42a.58.58 0 0 1 .57.58l.3 19.5c.02 1.153.587 1.943 1.7 2.37 1.58.6 2.337-.214 2.27-2.44-.173-6.067-.38-12.44-.62-19.12a.684.684 0 0 1 .228-.536.706.706 0 0 1 .562-.174c1.707.22 3.237.136 4.59-.25.807-.227 1.347-.657 1.62-1.29.367-.847.21-1.634-.47-2.36a1.136 1.136 0 0 0-.87-.35zm13.74 21.25a228.591 228.591 0 0 0-1.48-19.57c-.053-.487-.17-.88-.35-1.18-.373-.627-.783-.804-1.23-.53-.785.483-1.257 1.324-1.24 2.21l.49 20.99c.047 1.766.98 2.65 2.8 2.65h9.96a1.5 1.5 0 0 0 .91-.29c1.347-1.02 1.464-1.947.35-2.78-.533-.407-1.3-.65-2.3-.73a88.333 88.333 0 0 0-7.4-.27.495.495 0 0 1-.356-.143.515.515 0 0 1-.154-.357zm-104.24-3.38c3.087-.14 5.434-1.257 7.04-3.35 1.527-1.98 2.034-4.25 1.52-6.81-.606-3-2.536-5.164-5.79-6.49-2.846-1.154-5.593-1.217-8.24-.19-1.366.526-1.903 1.506-1.61 2.94a227.713 227.713 0 0 0 5.62 21.88c.1.315.34.549.63.61 1.074.226 1.51-.31 1.31-1.61-.32-2.154-.623-4.314-.91-6.48-.017-.123.02-.248.102-.343s.201-.152.328-.157zm-6.76 3.79c-2.166-.187-3.95-.36-5.35-.52-1.226-.14-1.82-.83-1.78-2.07.207-6.447-.016-12.094-.67-16.94-.043-.334-.242-.61-.52-.72-1.006-.407-1.55-.017-1.63 1.17-.473 6.746-.516 13.35-.13 19.81a1.92 1.92 0 0 0 1.45 1.74c3.074.753 6.164.903 9.27.45.328-.044.61-.23.76-.5.814-1.46.347-2.267-1.4-2.42zm21.44-7.89c-.5-3.58-1.04-7.15-1.62-10.71-.106-.647-.273-1.11-.5-1.39-.453-.554-1.026-.604-1.72-.15-.247.161-.392.465-.38.8.267 7.2.95 14.363 2.05 21.49.227 1.466 1.027 2.003 2.4 1.61a.852.852 0 0 0 .58-.65c.414-2.087.307-4.18-.32-6.28a.52.52 0 0 1 .5-.67h4.89c.368 0 .67.324.68.73l.19 6.7c.007.304.22.586.54.72 1.854.766 2.844.05 2.97-2.15.234-3.954.16-10.767-.22-20.44-.026-.687-.186-1.184-.48-1.49-.46-.48-1.056-.56-1.79-.24a.875.875 0 0 0-.52.74l-.8 11.37c-.02.292-.243.518-.51.52h-5.37a.586.586 0 0 1-.57-.51zm19.2-11.99c-1.44-.36-2.65.173-3.63 1.6-1.02 1.5-1.703 3.233-2.05 5.2-.18 1.02-.343 2.846-.49 5.48-.253 4.64.24 8.476 1.48 11.51.567 1.386 1.087 1.49 1.56.31.127-.327.184-.71.17-1.15-.08-2.454-.133-4.907-.16-7.36a.605.605 0 0 1 .48-.6 15.895 15.895 0 0 1 5.64-.21.795.795 0 0 1 .66.54 42.702 42.702 0 0 1 1.56 6.19c.147.84.344 1.456.59 1.85.667 1.06 1.46 1.06 2.38 0 .2-.231.3-.547.28-.88-.233-4.067-1.036-8.547-2.41-13.44-.76-2.694-1.86-5.007-3.3-6.94-.853-1.154-1.773-1.854-2.76-2.1zm121.08 14.3c-.406-.767-.176-1.117.69-1.05 2.214.166 4.194-.047 5.94-.64 2.927-.994 4.15-3.104 3.67-6.33-.34-2.26-1.51-3.777-3.51-4.55-3.293-1.28-6.02-1.027-8.18.76-1.78 1.466-2.846 3.613-3.2 6.44-.373 2.973.254 5.656 1.88 8.05 1.84 2.7 4.654 4.136 8.44 4.31 2.854.126 5.124-.56 6.81-2.06.52-.46.81-1.007.87-1.64.12-1.38-.586-1.794-2.12-1.24-2.113.766-3.99 1.126-5.63 1.08-2.706-.067-4.593-1.11-5.66-3.13zm-25.23 2.077c2.857-4.3 1.49-10.235-3.055-13.255-2.183-1.45-4.821-2.02-7.335-1.585-2.514.435-4.697 1.84-6.069 3.905-2.858 4.301-1.49 10.236 3.055 13.256 2.183 1.45 4.821 2.02 7.335 1.585 2.513-.435 4.696-1.84 6.069-3.906zm-62.67-.017a.61.61 0 0 1 .57-.82c2.74-.014 5-.87 6.78-2.57 1.16-1.1 1.924-2.394 2.29-3.88.447-1.78.174-3.36-.82-4.74-1.973-2.734-4.756-3.27-8.35-1.61-2.7 1.246-4.23 3.68-4.59 7.3-.34 3.46.184 6.41 1.57 8.85 1.294 2.273 3.2 3.566 5.72 3.88 2.754.346 5.187-.607 7.3-2.86.454-.48.7-1.007.74-1.58.094-1.247-.443-1.717-1.61-1.41-.26.073-.873.386-1.84.94a7.928 7.928 0 0 1-4.26 1.04c-.813-.027-1.506-.257-2.08-.69-.673-.507-1.146-1.124-1.42-1.85zm104.81.07c-1.306-.46-1.733.003-1.28 1.39.687 2.086 1.187 1.743 1.5-1.03a.34.34 0 0 0-.22-.36zm2.82-.06c-.86.046-1.096.746-.71 2.1a.49.49 0 0 0 .244.3.53.53 0 0 0 .396.04c1.047-.32 1.907-.25 2.58.21.707.486.98.306.82-.54-.226-1.234-.79-1.91-1.69-2.03-.573-.08-1.12-.107-1.64-.08z" fill="#fff"/><path d="M189.076 99.517l22.65-9.62a1.52 1.52 0 0 1 1.79.43c5.994 7.5 10.66 15.636 14 24.41 1.88 4.94 3.794 11.33 5.74 19.17a168.163 168.163 0 0 1 3.68 19.79.626.626 0 0 1-.4.67c-28.52 10.24-57.88 18.27-88.08 24.09a1.185 1.185 0 0 1-1.3-.67l-6.39-13.84c-.266-.574-.553-.58-.86-.02l-2.69 4.92a2.212 2.212 0 0 1-1.73 1.13 641.937 641.937 0 0 1-52.16 2.98c-.378.006-.71-.227-.81-.57l-4.28-14.07c-.246-.82-.56-.85-.94-.09l-4.28 8.54c-.256.506-.76.851-1.34.92a589.49 589.49 0 0 1-47.78 3.86.93.93 0 0 1-.95-.77c-.82-4.8-1.453-9.22-1.9-13.26a10476.375 10476.375 0 0 1-5.19-48.06c-.56-5.287-1.31-11.91-2.25-19.87a1719.752 1719.752 0 0 1-4.76-45.33 1.617 1.617 0 0 1 .21-.93l8.27-14.49a2.38 2.38 0 0 1 1.48-1.13l62.68-16.05a.62.62 0 0 1 .72.34l15.6 33.06a.4.4 0 0 0 .66.09l15.25-16.99c.393-.439.941-.72 1.54-.79 19.554-2.4 38.9-4.09 58.04-5.07a.59.59 0 0 1 .62.45c5.854 25.3 10.73 50.786 14.63 76.46.02.12.093.227.197.287.103.06.226.07.333.023zm-163.81-59.75l-4.99 7.09a2.483 2.483 0 0 0-.44 1.76c4.947 37.033 9.164 73.6 12.65 109.7-.02 1.453.68 1.816 2.1 1.09l30.16-3.39c.32-.039.614-.2.82-.45a33.379 33.379 0 0 0 4.49-7.26c1.047-.527 1.294-1.224.74-2.09-.26-4.68-.526-7.56-.8-8.64-.753-2.92-1.226-5.414-1.42-7.48-.246-2.654-.456-4.48-.63-5.48a45.303 45.303 0 0 1-.56-5.53.645.645 0 0 1 .47-.64c1-.28 1.997-.574 2.99-.88a17.883 17.883 0 0 1 3.51-.73c3.494-.36 6.977-.787 10.45-1.28.04.526-.09.98-.39 1.36-.133.163-.456.297-.87.36l-7.44 1.16a.404.404 0 0 0-.292.216.47.47 0 0 0-.018.384 824.974 824.974 0 0 1 15.02 41.51c.152.45.592.736 1.06.69a6.727 6.727 0 0 1 2.2.15c.86.206 1.574.293 2.14.26 11.107-.58 22.227-1.04 33.36-1.38a1.465 1.465 0 0 0 1.23-.75l3.75-6.71c.4-.76.234-1.37-.5-1.83a4.35 4.35 0 0 0-.96-2.96l-54.83-119.8a.66.66 0 0 0-.7-.37 688.483 688.483 0 0 0-51.01 10.67c-.493.12-.923.536-1.29 1.25zm93.41 2.1l-12.96 15.46c-.33.396-.411.932-.21 1.38l47.54 104.55a.74.74 0 0 0 .88.4l31.85-9.34a406.517 406.517 0 0 0 34.93-10.76c.4-.141.632-.561.54-.98-1.866-8.84-4.403-17.254-7.61-25.24-1.306-3.267-2.603-5.604-3.89-7.01-1.626-1.767-3.69-2.454-6.19-2.06-3.38.533-6.436 1.4-9.17 2.6a195.878 195.878 0 0 0-26.12 13.88c-.633.4-1.006.426-1.12.08-.078-.235.033-.573.29-.88 3.16-3.714 6.95-6.857 11.37-9.43a1.39 1.39 0 0 0 .68-1.46 2299.477 2299.477 0 0 0-14.95-77.01.65.65 0 0 0-.73-.52z"/><path d="M133.096 148.017c-.526 1.066-1.06 1.04-1.6-.08a36.916 36.916 0 0 0-.58-1.18 140.512 140.512 0 0 1-8.18-16.91 131.667 131.667 0 0 0-4.27-9.54 176.07 176.07 0 0 1-4.42-9.52c-.053-.127-.32-.554-.8-1.28a2.241 2.241 0 0 1-.36-1.57c.045-.34-.02-.656-.18-.88a29.173 29.173 0 0 1-3.37-5.93 979.63 979.63 0 0 0-2.36-5.6 957.308 957.308 0 0 1-15.12-32.89c-4.78-10.94-9.563-21.107-14.35-30.5-1.186-2.327-2.91-2.837-5.17-1.53-2.246 1.3-4.59 1.77-7.03 1.41-.766-.114-2.286.21-4.56.97-1.333.446-2.84.73-4.52.85-1.8.133-3.57.436-5.31.91-2.086.573-3.823.963-5.21 1.17-4.546.673-9.36 1.883-14.44 3.63-.693.24-1.4.293-2.12.16-1.566-.3-2.276.136-2.13 1.31-.333-1.567-.833-1.65-1.5-.25a1.234 1.234 0 0 1-.25-1c.367-.714.797-1.13 1.29-1.25a688.483 688.483 0 0 1 51.01-10.67.66.66 0 0 1 .7.37z" fill="#c91313"/><path d="M133.096 148.017a4.35 4.35 0 0 1 .96 2.96c-10.533-.167-21.413.39-32.64 1.67a1.04 1.04 0 0 1-1.05-.57 239.83 239.83 0 0 1-13.71-34.74 10.157 10.157 0 0 1-.1-.66c-.06-.454-.38-.59-.96-.41-.013-.534-.276-.77-.79-.71-3.473.493-6.956.92-10.45 1.28-1.166.12-2.336.363-3.51.73-.993.306-1.99.6-2.99.88a.645.645 0 0 0-.47.64c.074 1.853.26 3.696.56 5.53.174 1 .384 2.826.63 5.48.194 2.066.667 4.56 1.42 7.48.274 1.08.54 3.96.8 8.64l-29.45 2.84c-.26.025-.52-.054-.72-.219s-.327-.403-.35-.661a1347.986 1347.986 0 0 0-4.87-41.51 1019.884 1019.884 0 0 1-2.43-19.84 1354.769 1354.769 0 0 0-5.96-45.81c-.146-1.174.564-1.61 2.13-1.31.72.133 1.427.08 2.12-.16 5.08-1.747 9.894-2.957 14.44-3.63 1.387-.207 3.124-.597 5.21-1.17 1.74-.474 3.51-.777 5.31-.91 1.68-.12 3.187-.404 4.52-.85 2.274-.76 3.794-1.084 4.56-.97 2.44.36 4.784-.11 7.03-1.41 2.26-1.307 3.984-.797 5.17 1.53 4.787 9.393 9.57 19.56 14.35 30.5a957.308 957.308 0 0 0 15.12 32.89c.034.066.82 1.933 2.36 5.6.887 2.1 2.01 4.076 3.37 5.93.16.224.225.54.18.88a2.241 2.241 0 0 0 .36 1.57c.48.726.747 1.153.8 1.28a176.07 176.07 0 0 0 4.42 9.52 131.667 131.667 0 0 1 4.27 9.54 140.512 140.512 0 0 0 8.18 16.91c.054.093.247.486.58 1.18.54 1.12 1.074 1.146 1.6.08zm-47.59-51.79c.86-.067 1.827-.254 2.9-.56a.48.48 0 0 0 .31-.65l-18.36-41.75a.775.775 0 0 0-.84-.45l-22.04 3.89a1.52 1.52 0 0 0-1.25 1.7l5.87 41.63c.02.133.093.253.204.333s.25.11.386.087c11.094-2.007 22.034-3.417 32.82-4.23z" fill="#fe0000"/><path d="M185.776 154.317c-.753-7.067-2.713-13.734-5.88-20-.18-2.554-1.14-4.62-2.88-6.2-1.186-1.08-2.506-1.497-3.96-1.25-1.326.22-2.723.79-4.19 1.71a306.562 306.562 0 0 0-13.66 9.15c-.096.068-.22.086-.333.049s-.205-.126-.247-.24a7156.54 7156.54 0 0 0-26.12-69.25c-2.92-7.62-4.653-12.71-5.2-15.27-.46-2.153-1.363-3.736-2.71-4.75.147-2.02-.493-4.153-1.92-6.4l45.13-6.34a.65.65 0 0 1 .73.52 2299.477 2299.477 0 0 1 14.95 77.01 1.39 1.39 0 0 1-.68 1.46c-4.42 2.574-8.21 5.717-11.37 9.43-.257.308-.368.646-.29.88.114.347.487.32 1.12-.08a195.878 195.878 0 0 1 26.12-13.88c2.734-1.2 5.79-2.066 9.17-2.6 2.5-.393 4.564.294 6.19 2.06 1.287 1.407 2.584 3.744 3.89 7.01 3.207 7.987 5.744 16.4 7.61 25.24a.845.845 0 0 1-.54.98 406.517 406.517 0 0 1-34.93 10.76zm16.4-24.86c.214-2.094.1-4.16-.34-6.2-.133-.634-.403-.934-.81-.9-.262.023-.466.309-.47.66-.046 4.673-1.676 8.676-4.89 12.01-.24.246-.423.46-.55.64-.886 1.233-.553 1.453 1 .66 1.554-.8 2.914-1.914 4.08-3.34a.81.81 0 0 1 .82-.28c1.68.373 2.97 1.076 3.87 2.11.86.993 1.174.843.94-.45-.373-2.06-1.453-3.47-3.24-4.23a.675.675 0 0 1-.41-.68z" fill="#5e9b8c"/><path d="M25.266 39.767c-.06.38.024.713.25 1 2.154 16.646 6 48.98 11.54 97 .707 6.113 1.114 10.03 1.22 11.75.026.326-.047.656-.21.95-1.466 2.66-3.326 5.276-5.58 7.85-3.486-36.1-7.703-72.667-12.65-109.7-.083-.61.074-1.24.44-1.76z" fill="#581d1c"/><path d="M27.016 41.017a1354.769 1354.769 0 0 1 5.96 45.81c.747 6.633 1.557 13.246 2.43 19.84a1347.986 1347.986 0 0 1 4.87 41.51.965.965 0 0 0 .35.66c.2.166.46.245.72.22l29.45-2.84c.554.866.307 1.563-.74 2.09l-29.2 2.97c-.348.037-.644.19-.81.42l-5.46 7.71c-1.42.726-2.12.363-2.1-1.09 2.254-2.574 4.114-5.19 5.58-7.85.163-.294.236-.624.21-.95-.106-1.72-.513-5.637-1.22-11.75-5.54-48.02-9.386-80.354-11.54-97 .667-1.4 1.167-1.317 1.5.25z" fill="#f76b69"/><path d="M118.676 41.867c1.427 2.246 2.067 4.38 1.92 6.4 1.447 6.546 4.164 15.483 8.15 26.81 7.654 21.76 15.64 43.62 23.96 65.58.092.243.293.43.544.502s.524.024.736-.132c4.36-3.22 8.877-6.394 13.55-9.52a28.852 28.852 0 0 1 5.47-2.88c1.24-.494 2.234-.264 2.98.69l3.91 5c3.167 6.266 5.127 12.933 5.88 20l-31.85 9.34a.74.74 0 0 1-.88-.4l-47.54-104.55a1.317 1.317 0 0 1 .21-1.38z" fill="#477267"/><path d="M120.596 48.267c1.347 1.013 2.25 2.596 2.71 4.75.547 2.56 2.28 7.65 5.2 15.27a7156.54 7156.54 0 0 1 26.12 69.25.396.396 0 0 0 .247.239c.114.037.237.019.333-.05a306.562 306.562 0 0 1 13.66-9.15c1.467-.92 2.864-1.49 4.19-1.71 1.454-.246 2.774.17 3.96 1.25 1.74 1.58 2.7 3.647 2.88 6.2l-3.91-5c-.746-.953-1.74-1.183-2.98-.69a28.852 28.852 0 0 0-5.47 2.88c-4.673 3.127-9.19 6.3-13.55 9.52a.846.846 0 0 1-.736.133.824.824 0 0 1-.544-.502 2914.464 2914.464 0 0 1-23.96-65.58c-3.986-11.327-6.703-20.264-8.15-26.81z" fill="#7cc1b1"/><path d="M85.506 96.227c-10.786.813-21.726 2.223-32.82 4.23-.135.023-.275-.008-.386-.087s-.184-.2-.204-.333l-5.87-41.63a1.52 1.52 0 0 1 1.25-1.7l22.04-3.89a.775.775 0 0 1 .84.45l18.36 41.75a.48.48 0 0 1-.31.65c-1.073.306-2.04.493-2.9.56zm-3.7-2.5l2.44-.19a.363.363 0 0 0 .292-.19.43.43 0 0 0 .018-.37 716.137 716.137 0 0 0-14.71-34.96c-.273-2.18-1.383-2.837-3.33-1.97a1.55 1.55 0 0 1-.94.1c-1.08-.2-1.483.153-1.21 1.06 3.66 12.026 7.62 24.23 11.88 36.61.106.299.387.489.68.46zm-18.48 2.47l10.56-1.5c.173-.026.324-.127.415-.278s.11-.334.055-.502l-11.69-36.58c-.104-.312-.448-.493-.8-.42l-5.45 1.15c-.304.06-.509.33-.46.61l6.8 37.11a.51.51 0 0 0 .57.41zm-14.28-36.25a688.148 688.148 0 0 0 5.11 37.44c.052.285.32.477.6.43l5.75-1.02a.5.5 0 0 0 .4-.58l-6.58-37.39a.496.496 0 0 0-.203-.323.475.475 0 0 0-.367-.077l-4.27.92a.555.555 0 0 0-.44.6z" fill="#120101"/><path d="M69.846 58.017c-.046.513-.253.923-.62 1.23-.24.202-.34.499-.25.74l12.83 33.74-4.88.55c-.293.029-.574-.161-.68-.46-4.26-12.38-8.22-24.584-11.88-36.61-.273-.907.13-1.26 1.21-1.06.319.065.648.03.94-.1 1.947-.867 3.057-.21 3.33 1.97zM63.326 96.197a.51.51 0 0 1-.57-.41l-6.8-37.11c-.049-.28.156-.55.46-.61l5.45-1.15c.352-.073.696.108.8.42l11.69 36.58c.056.168.036.352-.055.502s-.242.252-.415.278z" fill="#fff"/><path d="M69.846 58.017a716.137 716.137 0 0 1 14.71 34.96c.05.121.043.259-.018.37s-.17.181-.292.19l-2.44.19-12.83-33.74c-.09-.241.01-.538.25-.74.367-.307.574-.717.62-1.23z" fill="#f8cfcf"/><path d="M49.486 59.347l4.27-.92c.128-.026.26.002.367.077s.181.192.203.323l6.58 37.39a.5.5 0 0 1-.4.58l-5.75 1.02a.525.525 0 0 1-.6-.43 688.148 688.148 0 0 1-5.11-37.44.555.555 0 0 1 .44-.6z" fill="#fff"/><path d="M84.806 115.557c.514-.06.777.176.79.71-.206.18-.356.39-.45.63-.073.193-.07.44.01.74 3.1 11.88 7.534 23.413 13.3 34.6.293.566.246 1.23-.12 1.7l-5.29 6.69c-.053.066-.083.148-.081.222s.035.132.091.158a.54.54 0 0 0 .28.05c.127-.007.254-.074.38-.2 1.967-1.887 4.264-3.747 6.89-5.58.72-.5 1.514-.8 2.38-.9a234.364 234.364 0 0 1 31.57-1.57l-3.75 6.71a1.465 1.465 0 0 1-1.23.75c-11.133.34-22.253.8-33.36 1.38-.566.033-1.28-.054-2.14-.26a6.727 6.727 0 0 0-2.2-.15 1.015 1.015 0 0 1-1.06-.69 824.974 824.974 0 0 0-15.02-41.51.47.47 0 0 1 .018-.384.404.404 0 0 1 .292-.216l7.44-1.16c.414-.063.737-.197.87-.36.3-.38.43-.834.39-1.36z" fill="#581d1c"/><path d="M85.596 116.267c.58-.18.9-.044.96.41.054.393.087.613.1.66 3.7 12.02 8.27 23.6 13.71 34.74.191.39.611.617 1.05.57 11.227-1.28 22.107-1.837 32.64-1.67.734.46.9 1.07.5 1.83a234.364 234.364 0 0 0-31.57 1.57c-.866.1-1.66.4-2.38.9-2.626 1.833-4.923 3.693-6.89 5.58-.126.126-.253.193-.38.2a.54.54 0 0 1-.28-.05c-.056-.026-.09-.084-.091-.158s.028-.156.081-.222l5.29-6.69c.366-.47.413-1.134.12-1.7-5.766-11.187-10.2-22.72-13.3-34.6-.08-.3-.083-.547-.01-.74.094-.24.244-.45.45-.63z" fill="#f76b69"/><path d="M202.586 130.137c1.787.76 2.867 2.17 3.24 4.23.234 1.293-.08 1.443-.94.45-.9-1.034-2.19-1.737-3.87-2.11a.81.81 0 0 0-.82.28c-1.166 1.426-2.526 2.54-4.08 3.34-1.553.793-1.886.573-1-.66.127-.18.31-.394.55-.64 3.214-3.334 4.844-7.337 4.89-12.01.004-.351.208-.637.47-.66.407-.034.677.266.81.9.44 2.04.554 4.106.34 6.2a.675.675 0 0 0 .41.68z"/><path d="M70.056 148.307a33.379 33.379 0 0 1-4.49 7.26c-.206.25-.5.411-.82.45l-30.16 3.39 5.46-7.71c.166-.23.462-.383.81-.42z" fill="#581d1c"/><path d="M109.466 193.777c3.5 2.293 4.867 5.123 4.1 8.49-.646 2.813-2.276 4.79-4.89 5.93-2.306 1.006-5.083 1.3-8.33.88a1.525 1.525 0 0 1-1.28-1.13c-1.806-6.954-2.893-13.764-3.26-20.43-.12-2.187.6-3.567 2.16-4.14 5.32-1.96 9.164-.727 11.53 3.7.974 1.82.907 3.82-.2 6a.535.535 0 0 0 .17.7zm-5.06-7.14c-1.586-.9-3.126-.924-4.62-.07-.301.168-.476.47-.44.76l.81 6.33c.02.13.1.244.222.313s.275.086.418.047a10.977 10.977 0 0 0 4.07-2.03c.94-.747 1.41-1.59 1.41-2.53-.006-1.174-.63-2.114-1.87-2.82zm3.71 10.82c-2.206-.887-4.46-1.037-6.76-.45-.39.097-.648.446-.6.81l.98 6.91c.044.285.286.522.61.6 2.76.653 4.97.07 6.63-1.75.834-.907 1.237-1.93 1.21-3.07-.026-1.494-.716-2.51-2.07-3.05z"/><path d="M29.236 198.797l-5.74.1c-.285.006-.52.245-.54.55-.34 3.926-.703 6.386-1.09 7.38-.493 1.273-1.156 1.463-1.99.57-.206-.22-.33-.536-.35-.89-.44-7.674.674-14.65 3.34-20.93.767-1.8 2.064-2.7 3.89-2.7 1.427 0 2.577.67 3.45 2.01 1 1.54 1.7 3.416 2.1 5.63 1.247 6.893 1.97 12.623 2.17 17.19a.916.916 0 0 1-.38.8c-1.006.693-1.87.656-2.59-.11-.4-.427-.66-1.117-.78-2.07-.306-2.334-.613-4.664-.92-6.99-.04-.312-.286-.544-.57-.54zm-3.14-11.54c-1.206 2.42-1.933 4.903-2.18 7.45a.489.489 0 0 0 .117.374c.089.1.214.153.343.146l4.12-.2c.284-.016.507-.265.51-.57 0-2.66-.516-5.06-1.55-7.2-.453-.92-.906-.92-1.36 0z" fill="#d30c0c"/><path d="M198.786 198.067a70.332 70.332 0 0 0 3.37 8.1c.507 1.02.784 1.836.83 2.45.127 1.706-.843 2.136-2.91 1.29a1.194 1.194 0 0 1-.67-.65l-3.88-9.83c-.124-.311-.37-.53-.65-.58-1.486-.287-3.186-.157-5.1.39-.27.079-.465.346-.49.67l-.45 7.05a.787.787 0 0 1-.56.69c-1.106.373-1.696-.15-1.77-1.57-.346-7.187-.34-14.187.02-21a1.93 1.93 0 0 1 1.55-1.79c3.567-.707 6.647-.267 9.24 1.32 2.167 1.32 3.53 3.116 4.09 5.39.654 2.64-.153 5.053-2.42 7.24a.78.78 0 0 0-.2.83zm-3.2-9.82c-1.326-.94-3.08-1.357-5.26-1.25-.272.01-.495.238-.52.53l-.51 6.58a.615.615 0 0 0 .124.432.42.42 0 0 0 .356.168l5.98-.38c.272-.013.57-.197.81-.5 1.647-2.094 1.32-3.954-.98-5.58zM144.236 183.797c.68.726.837 1.513.47 2.36-.273.633-.813 1.063-1.62 1.29-1.353.386-2.883.47-4.59.25a.706.706 0 0 0-.562.174.684.684 0 0 0-.228.536c.24 6.68.447 13.053.62 19.12.067 2.226-.69 3.04-2.27 2.44-1.113-.427-1.68-1.217-1.7-2.37l-.3-19.5a.58.58 0 0 0-.57-.58c-1.813 0-3.41-.474-4.79-1.42-.726-.494-.943-1.047-.65-1.66.123-.275.418-.458.76-.47l14.56-.52c.33-.013.648.114.87.35z"/><path d="M157.616 205.197c2.474-.014 4.94.076 7.4.27 1 .08 1.767.323 2.3.73 1.114.833.997 1.76-.35 2.78a1.5 1.5 0 0 1-.91.29h-9.96c-1.82 0-2.753-.884-2.8-2.65l-.49-20.99c-.017-.886.455-1.727 1.24-2.21.447-.274.857-.097 1.23.53.18.3.297.693.35 1.18.774 6.5 1.267 13.023 1.48 19.57.003.135.058.264.154.357s.224.145.356.143z" fill="#477267"/><path d="M52.436 201.817c.287 2.166.59 4.326.91 6.48.2 1.3-.236 1.836-1.31 1.61-.29-.061-.53-.295-.63-.61a227.713 227.713 0 0 1-5.62-21.88c-.293-1.434.244-2.414 1.61-2.94 2.647-1.027 5.394-.964 8.24.19 3.254 1.326 5.184 3.49 5.79 6.49.514 2.56.007 4.83-1.52 6.81-1.606 2.093-3.953 3.21-7.04 3.35a.456.456 0 0 0-.328.157.435.435 0 0 0-.102.343zm3.68-12.86c-1.993-1.5-4.1-2.02-6.32-1.56a.52.52 0 0 0-.4.61l1.99 9.34a.63.63 0 0 0 .61.51c1.68.046 3.13-.4 4.35-1.34 1.24-.954 1.89-2.13 1.95-3.53.067-1.547-.66-2.89-2.18-4.03zM46.106 205.107c1.747.153 2.214.96 1.4 2.42-.15.27-.432.456-.76.5a24.017 24.017 0 0 1-9.27-.45 1.92 1.92 0 0 1-1.45-1.74c-.386-6.46-.343-13.064.13-19.81.08-1.187.624-1.577 1.63-1.17.278.11.477.386.52.72.654 4.846.877 10.493.67 16.94-.04 1.24.554 1.93 1.78 2.07 1.4.16 3.184.333 5.35.52zM68.116 197.727h5.37c.267-.002.49-.228.51-.52l.8-11.37a.875.875 0 0 1 .52-.74c.734-.32 1.33-.24 1.79.24.294.306.454.803.48 1.49.38 9.673.454 16.486.22 20.44-.126 2.2-1.116 2.916-2.97 2.15-.32-.134-.533-.416-.54-.72l-.19-6.7c-.01-.406-.312-.73-.68-.73h-4.89a.52.52 0 0 0-.5.67c.627 2.1.734 4.193.32 6.28a.852.852 0 0 1-.58.65c-1.373.393-2.173-.144-2.4-1.61a185.854 185.854 0 0 1-2.05-21.49c-.012-.335.133-.639.38-.8.694-.454 1.267-.404 1.72.15.227.28.394.743.5 1.39.58 3.56 1.12 7.13 1.62 10.71a.586.586 0 0 0 .57.51zM89.506 187.327c1.44 1.933 2.54 4.246 3.3 6.94 1.374 4.893 2.177 9.373 2.41 13.44.02.333-.08.649-.28.88-.92 1.06-1.713 1.06-2.38 0-.246-.394-.443-1.01-.59-1.85a42.702 42.702 0 0 0-1.56-6.19.795.795 0 0 0-.66-.54 15.895 15.895 0 0 0-5.64.21.605.605 0 0 0-.48.6c.027 2.453.08 4.906.16 7.36.014.44-.043.823-.17 1.15-.473 1.18-.993 1.076-1.56-.31-1.24-3.034-1.733-6.87-1.48-11.51.147-2.634.31-4.46.49-5.48.347-1.967 1.03-3.7 2.05-5.2.98-1.427 2.19-1.96 3.63-1.6.987.246 1.907.946 2.76 2.1zm-3.65 1.43c-1.34 2.293-2.006 4.693-2 7.2a.46.46 0 0 0 .52.46l4.45-.56a.426.426 0 0 0 .311-.198.53.53 0 0 0 .07-.392c-.494-2.38-1.364-4.554-2.61-6.52a.43.43 0 0 0-.74.01z"/><path d="M104.406 186.637c1.24.706 1.864 1.646 1.87 2.82 0 .94-.47 1.783-1.41 2.53a10.977 10.977 0 0 1-4.07 2.03c-.143.039-.295.021-.418-.047s-.203-.183-.222-.313l-.81-6.33c-.036-.29.139-.592.44-.76 1.494-.854 3.034-.83 4.62.07z" fill="#fff"/><path d="M207.826 199.527c1.067 2.02 2.954 3.063 5.66 3.13 1.64.046 3.517-.314 5.63-1.08 1.534-.554 2.24-.14 2.12 1.24-.06.633-.35 1.18-.87 1.64-1.686 1.5-3.956 2.186-6.81 2.06-3.786-.174-6.6-1.61-8.44-4.31-1.626-2.394-2.253-5.077-1.88-8.05.354-2.827 1.42-4.974 3.2-6.44 2.16-1.787 4.887-2.04 8.18-.76 2 .773 3.17 2.29 3.51 4.55.48 3.226-.743 5.336-3.67 6.33-1.746.593-3.726.806-5.94.64-.866-.067-1.096.283-.69 1.05zm4.61-9.48c-3.133-.867-4.89.433-5.27 3.9a.58.58 0 0 0 .45.63c1.747.4 3.474.373 5.18-.08.734-.194 1.28-.534 1.64-1.02.554-.754.584-1.477.09-2.17-.406-.567-1.103-.987-2.09-1.26z"/><path d="M26.096 187.257c.454-.92.907-.92 1.36 0 1.034 2.14 1.55 4.54 1.55 7.2-.003.305-.226.554-.51.57l-4.12.2a.424.424 0 0 1-.343-.146.489.489 0 0 1-.117-.374c.247-2.547.974-5.03 2.18-7.45z" fill="#fff"/><path d="M182.596 201.604c-1.373 2.066-3.556 3.47-6.07 3.906s-5.151-.135-7.334-1.585c-4.545-3.02-5.913-8.955-3.055-13.256 1.372-2.065 3.555-3.47 6.07-3.905s5.151.135 7.334 1.585c4.544 3.02 5.912 8.954 3.055 13.255zm-2.572-3.32c1.116-2.937-.629-6.325-3.897-7.566-1.57-.597-3.287-.608-4.776-.032-1.489.576-2.626 1.692-3.162 3.103-1.116 2.938.629 6.325 3.897 7.567 1.57.596 3.287.607 4.776.031 1.489-.576 2.626-1.692 3.162-3.102z"/><path d="M195.586 188.247c2.3 1.626 2.627 3.486.98 5.58-.24.303-.538.487-.81.5l-5.98.38a.42.42 0 0 1-.356-.168.615.615 0 0 1-.124-.432l.51-6.58c.025-.292.248-.52.52-.53 2.18-.107 3.934.31 5.26 1.25z" fill="#fff"/><path d="M119.926 201.587c.274.726.747 1.343 1.42 1.85.574.433 1.267.663 2.08.69a7.928 7.928 0 0 0 4.26-1.04c.967-.554 1.58-.867 1.84-.94 1.167-.307 1.704.163 1.61 1.41-.04.573-.286 1.1-.74 1.58-2.113 2.253-4.546 3.206-7.3 2.86-2.52-.314-4.426-1.607-5.72-3.88-1.386-2.44-1.91-5.39-1.57-8.85.36-3.62 1.89-6.054 4.59-7.3 3.594-1.66 6.377-1.124 8.35 1.61.994 1.38 1.267 2.96.82 4.74-.366 1.486-1.13 2.78-2.29 3.88-1.78 1.7-4.04 2.556-6.78 2.57a.61.61 0 0 0-.57.82zm5.811-10.42c-1.097-1.188-3.389-.86-5.118.736-.83.767-1.417 1.728-1.631 2.674-.215.946-.04 1.798.488 2.369 1.097 1.189 3.388.86 5.117-.736.83-.766 1.418-1.728 1.632-2.674.215-.945.039-1.797-.488-2.368z"/><path d="M56.116 188.957c1.52 1.14 2.247 2.483 2.18 4.03-.06 1.4-.71 2.576-1.95 3.53-1.22.94-2.67 1.386-4.35 1.34a.63.63 0 0 1-.61-.51l-1.99-9.34a.52.52 0 0 1 .4-.61c2.22-.46 4.327.06 6.32 1.56zM85.856 188.757a.43.43 0 0 1 .74-.01c1.247 1.966 2.117 4.14 2.61 6.52.028.137.003.28-.069.392s-.185.184-.31.198l-4.45.56a.46.46 0 0 1-.52-.46c-.007-2.507.66-4.907 2-7.2zM214.526 191.307c.494.693.464 1.416-.09 2.17-.36.486-.906.826-1.64 1.02-1.706.453-3.433.48-5.18.08a.58.58 0 0 1-.45-.63c.38-3.467 2.137-4.767 5.27-3.9.987.273 1.684.693 2.09 1.26zM168.189 193.789c1.116-2.938 4.67-4.313 7.938-3.071s5.013 4.629 3.897 7.567-4.67 4.312-7.938 3.07-5.013-4.628-3.897-7.566zM119.476 196.946c-1.098-1.19-.586-3.447 1.143-5.043s4.02-1.924 5.118-.735c1.097 1.189.585 3.446-1.144 5.042s-4.02 1.925-5.117.736zM108.116 197.457c1.354.54 2.044 1.556 2.07 3.05.027 1.14-.376 2.163-1.21 3.07-1.66 1.82-3.87 2.403-6.63 1.75-.324-.078-.566-.315-.61-.6l-.98-6.91c-.048-.364.21-.713.6-.81 2.3-.587 4.554-.437 6.76.45z" fill="#fff"/><path d="M224.736 201.657a.34.34 0 0 1 .22.36c-.313 2.773-.813 3.116-1.5 1.03-.453-1.387-.026-1.85 1.28-1.39z" fill="#5e9b8c"/><path d="M229.196 201.677c.9.12 1.464.796 1.69 2.03.16.846-.113 1.026-.82.54-.673-.46-1.533-.53-2.58-.21a.53.53 0 0 1-.396-.04.49.49 0 0 1-.244-.3c-.386-1.354-.15-2.054.71-2.1.52-.027 1.067 0 1.64.08z" fill="#477267"/></g></svg>