<svg height="647" width="2500" xmlns="http://www.w3.org/2000/svg" viewBox="0 0 1535.2379999999998 497.46"><g fill-rule="evenodd"><path d="M229.472 0c127.32 0 229.472 65.285 229.472 145.75 0 81.982-102.152 147.27-229.472 147.27C102.154 293.02 0 227.731 0 145.75 0 65.285 102.154 0 229.472 0z" fill="#fefefe"/><path d="M322.742 118.42l19.244-100.204-85.865 100.205zM315.34 159.413h-94.748l-81.426 95.648h158.408z" fill="#db0603"/><path d="M.002 145.75C.002 65.285 102.156 0 229.474 0c13.323 0 25.168 0 38.49 1.517L38.495 227.732h122.879l-22.207 27.332h158.41l4.44-27.332h118.436l-5.92-168.522c28.127 24.293 44.414 54.657 44.414 86.54 0 81.982-102.153 147.27-229.472 147.27C102.156 293.02.002 227.731.002 145.75z" fill="#191597"/><g fill="#db0603" fill-rule="nonzero"><path d="M1011.632 176.935h83.566l12.256-26.65h-83.576l7.21-15.118h83.559l17.291-36.752H966.246l-61.235 130.39h165.699l18.01-37.456h-83.558zM864.535 98.415h-83.537l-61.235 130.39h171.443l17.266-37.456h-87.144zM624.55 176.935H585.642l23.077-25.916 23.062-25.934zm-15.832-78.521h-22.324l-134.698 130.39h87.885l18.694-20.879h61.254l-2.888 20.88h88.594L698.74 98.414z"/></g><path d="M1007.286 497.46h527.952V69.73z" fill="none"/></g></svg>