<svg viewBox="-2 0.077 1001.984 258.808" xmlns="http://www.w3.org/2000/svg" width="2500" height="644"><linearGradient id="a" gradientTransform="matrix(1.6506 0 0 -1.6506 -92.795 448.976)" gradientUnits="userSpaceOnUse" x1="155.673" x2="172.809" y1="194.594" y2="225.794"><stop offset="0" stop-color="#db0603"/><stop offset="1" stop-color="#db0603" stop-opacity="0"/></linearGradient><linearGradient id="b" gradientTransform="matrix(1.6506 0 0 -1.6506 -92.795 448.976)" gradientUnits="userSpaceOnUse" x1="141.175" x2="163.565" y1="199.302" y2="248.949"><stop offset="0" stop-color="#00559a"/><stop offset="1" stop-color="#00559a" stop-opacity="0"/></linearGradient><g clip-rule="evenodd" fill-rule="evenodd"><path d="M202.764.077c112.403 0 202.688 57.605 202.688 128.744 0 72.46-90.285 130.064-202.688 130.064C90.196 258.885.075 201.115.075 128.82.075 57.68 90.195.077 202.764.077z" fill="#fefefe"/><path d="M135 148.3h35.7L181 94.7z" fill="url(#a)" transform="matrix(1.65056 0 0 1.65056 3.376 -140.22)"/><path d="M262.844 225.378l15.68-84.508h-83.683l-71.964 84.508z" fill="#db0603"/><path d="M-2 163c0-43.1 54.7-78 122.8-78 7.1 0 13.5 0 20.6.8l-122.8 121h65.8l-11.9 14.6h84.8l2.4-14.6H223l-3.2-90.2c15.1 13 23.8 29.3 23.8 46.3 0 43.9-54.7 78.8-122.8 78.8C52.6 241.8-2 206.8-2 163z" fill="url(#b)" transform="matrix(1.65056 0 0 1.65056 3.376 -140.22)"/></g><path d="M887.91 169.094l5.778-12.709h73.78l10.894-23.603h-73.78l6.272-13.37h73.78l15.35-32.515H853.579l-54.138 115.209h146.405l16.01-33.012zM725.66 169.094l38.129-82.197h-73.78L635.87 202.106h151.52l15.186-33.012zM551.692 156.385h-34.497l20.467-22.943 20.302-22.942zm-13.865-69.488h-19.641L399.18 202.106h77.577l16.505-18.487h54.139l-2.476 18.487h78.236l-5.777-115.21z" fill="#db0603"/></svg>