<svg height="2500" viewBox="0 0 192.756 192.756" width="2500" xmlns="http://www.w3.org/2000/svg"><g clip-rule="evenodd" fill-rule="evenodd"><path d="M0 0h192.756v192.756H0z" fill="#fff"/><path d="M128.453 65.016l48.061 62.724h7.738l-48.061-62.724z"/><path d="M167.146 65.22l-10.183 13.033-9.979-13.033z" fill="#cd5241"/><path d="M184.049 65.22l-47.451 62.317h-7.534l47.247-62.317zm-91.642 7.331h27.9V65.22h-27.9zm0 26.066h27.9v-7.534h-27.9z" fill="#4d9599"/><path d="M86.094 127.74v-6.924h-2.851V65.22h-7.739v62.52z"/><path d="M92 127.74v-6.924h-5.703v6.924z" fill="#0c0e0f"/><path d="M97.701 127.74v-6.924H92v6.924z" fill="#485050"/><path d="M103.404 127.74v-6.924h-5.703v6.924z" fill="#5f7172"/><path d="M109.105 127.74v-6.924h-5.701v6.924z" fill="#638484"/><path d="M114.809 127.74v-6.924h-5.704v6.924z" fill="#549091"/><path d="M114.809 120.816v6.924h5.498v-6.924z" fill="#4d9599"/><path d="M21.13 102.691h32.787v5.498H21.13z"/><path d="M40.273 65.22l-24.438 62.52H8.504l24.438-62.52z"/><path d="M42.92 65.22l24.031 62.52h-7.535L35.589 65.22z"/></g></svg>