<svg clip-rule="evenodd" fill-rule="evenodd" height="2426" image-rendering="optimizeQuality" shape-rendering="geometricPrecision" text-rendering="geometricPrecision" viewBox="0 0 4687.94 4549.15" width="2500" xmlns="http://www.w3.org/2000/svg"><path d="M1804.25 4165.1V2759.53l-16.65-26.65-16.65-9.99-19.99-3.33-1365.61-.01-23.31 9.99-23.31 26.65h-3.33v599.54l13.32 13.32 13.32 16.65 9.99 6.66 16.65 3.33 712.78 3.33 26.65 13.32 16.65 23.31 3.33 9.99v36.64l-13.32 26.65-23.31 16.65-13.32 3.33-716.11 3.33-19.99 9.99-23.31 26.65-3.32.01v602.87l16.65 16.65 23.31 19.99v3.33h1388.92l13.32-13.32 19.99-16.65 6.66-16.65zM368.7 291.44l-23.31 19.99-10 9.99v599.54l9.99 9.99 6.66 16.65 16.65 6.66 26.65 6.66 1512.16 3.33 19.99 9.99 19.99 23.31 6.66 19.99-3.33 29.98-13.32 26.65-19.99 13.32-9.99 3.33-413.01 3.33-1105.81.01-23.31 9.99-16.65 13.32-13.32 13.32v1415.57l29.98 29.98 13.32 6.66 2318.2 3.33 43.3 6.66 16.65 13.32 13.32 26.65 3.33 696.13 3.33 26.65 19.99 26.65 13.32 9.99 16.65 3.33 709.45 3.33 23.31 9.99 19.99 23.31 6.66 16.65v29.98l-13.32 26.65-19.99 16.65-19.99 6.66-712.78 3.33-19.99 9.99-19.99 23.31-6.66 19.99v542.91l3.33 39.97 13.32 19.99 23.31 19.99v3.34h1452.21V2756.21l-16.65-16.65-19.99-16.65-16.65-3.33-706.12-3.33-29.98-9.99-19.99-23.31-6.66-36.64-3.33-696.13-9.99-19.99-19.99-16.65-6.66-3.33-66.61-3.33-1911.85-.02-373.04-3.33-19.99-9.99-16.65-19.99-6.66-16.65v-36.64l16.65-26.65 19.99-16.65 19.99-3.33L3403 1770.3l23.31-9.99 19.99-29.98 3.33-1382.26-6.66-33.31-16.65-16.65-13.32-16.66h-599.53l-16.65 16.65-16.65 19.99-3.33 6.66-3.33 186.52v516.27l-6.66 29.98-19.99 23.31-19.99 9.99h-46.64l-26.65-13.32-16.65-19.99-3.33-9.99-3.33-86.6V334.74l-9.99-26.65-26.65-23.31-.01-3.33H372.02l-3.33 9.99zm3220.82 33.31v2208.28l9.99 26.65 23.31 19.99 16.65 3.33 556.24-.01 29.98-3.33 19.99-13.32 16.65-26.65h3.33V321.42l-16.65-16.65-19.99-16.65v-6.67h-602.87l-16.65 16.65-19.99 26.65zm-959.25 3833.68V2769.51l-9.99-26.65-19.99-16.65-29.98-6.66-566.23.01-26.65 13.32-13.32 16.65-6.66 13.32v1402.24l9.99 19.99 26.65 23.31.01 3.33h596.2l33.31-33.31 6.66-19.99z" fill="#373435"/><path d="M0 0h4687.94v4549.15H0z" fill="none"/></svg>