<svg viewBox="0 0 194.1 34.8" xmlns="http://www.w3.org/2000/svg" width="2500" height="448"><g fill="#f08c37"><path d="M17.4 0C7.8 0 0 7.8 0 17.4s7.8 17.4 17.4 17.4S34.8 27 34.8 17.4 26.9 0 17.4 0zm0 33.6c-8.9 0-16.2-7.3-16.2-16.2S8.4 1.2 17.4 1.2s16.2 7.3 16.2 16.2-7.3 16.2-16.2 16.2z"/><path d="M18.5 11.9c-.2-.2-.3-.3-.6-.5-.2-.1-.4-.1-.7-.2-.4.1-.7.1-.8.3-.2.1-.3.3-.3.5 0 .3.1.8.4 1.5l3.2 7.4 1.3-3.2-2-4.8c-.2-.5-.4-.9-.5-1zM23.2 12.1c0-.2-.1-.4-.3-.5-.2-.2-.5-.3-.9-.3-.5.1-.8.1-1 .3-.2.1-.3.3-.3.5 0 .3.1.8.4 1.5l.8 1.9.7-1.8c.5-.8.6-1.3.6-1.6z"/><path d="M17.4 1.7c-8.6 0-15.6 7-15.6 15.6S8.7 33 17.4 33 33 26 33 17.4 26 1.7 17.4 1.7zm.3 22.1h-5.2v-.3c.6-.1 1-.2 1.1-.3s.3-.3.3-.5c0-.3-.1-.8-.4-1.5l-3.2-7.4-3 7.3c-.3.7-.4 1.2-.4 1.5 0 .2.1.4.3.5.2.2.5.3.9.3h.2v.3h-4v-.3c.4-.1.8-.2 1-.4.3-.3.6-.8.9-1.4l4.4-10.8h.4l4.7 10.9c.2.6.4.9.5 1 .2.2.3.3.6.5.2.1.5.2.9.2zm12.7-12.6c-.4.1-.8.2-1 .4-.3.3-.6.8-.9 1.4l-4.4 10.8h-.3l-2.2-5.1-2.1 5.1h-.3l-4.7-10.9c-.2-.6-.4-.9-.5-1-.2-.2-.3-.3-.6-.5-.2-.1-.5-.2-.9-.2v-.3H25.7v.3c-.4.1-.8.2-1 .4-.3.3-.6.8-.9 1.4l-1.4 3.4 1.9 4.5 3-7.3c.3-.7.4-1.2.4-1.5 0-.2-.1-.4-.3-.5-.2-.2-.5-.3-.9-.3h-.2V11h3.9v.2zM92.7 23.4l-.2.4c-.7 1.7-1.4 3-2.1 3.8s-1.4 1.3-2.2 1.6-2.3.5-4.5.5h-2.1c-2.5 0-3-.1-3.1-.2-.2-.1-.4-.2-.5-.4s-.3-.7-.3-2.2V8.7c0-2.2.2-2.8.3-3 .2-.3.5-.6 1-.9.4-.2 1.2-.4 3-.4h.6v-2H68.3v1.9H70c.9 0 1.6.2 2 .7.1.2.5.8.5 3v18.7c0 2.1-.2 2.7-.4 2.8-.4.6-1.1.9-2 .9-.7-.1-1.2-.2-1.6-.4s-.8-.5-1.1-.9c-.1-.1-.4-.5-1.1-2.2L55.6 2.5H54L44 27c-.5 1.3-1.1 2.3-1.8 2.9-.4.4-1.1.7-2 .8l-.5.1v1.8h9.9v-1.8l-.5-.1c-.2 0-.3 0-.4-.1-1-.2-1.5-.4-1.7-.6-.3-.3-.4-.5-.4-.7 0-.4.2-1.2.9-3.1L53.7 11l6.6 15.3c.8 1.7.9 2.6.9 3 0 .3-.1.6-.4.8-.1.1-.6.4-2.2.5h-.5v1.9h33.5l2.8-8.9z"/><path d="M116.5 23.8c-.7 1.7-1.4 3-2.1 3.8s-1.4 1.3-2.2 1.6-2.3.5-4.5.5h-2.1c-2.5 0-3-.1-3.1-.2-.2-.1-.4-.2-.5-.4s-.3-.7-.3-2.2V8.7c0-2.2.2-2.8.3-3 .2-.3.5-.6 1-.9.4-.2 1.2-.4 3-.4h.6v-2H92.3v1.9H94c.9 0 1.6.2 2 .7.1.2.5.8.5 3v18.7c0 2.1-.2 2.7-.4 2.8-.4.6-1.1.9-2.1.9h-1.7v1.9h23.4l2.8-8.9-1.8-.4zM183 2.5v1.9h1.6c.9 0 1.6.2 2 .7.1.1.4.7.4 2.9v14.7L170.6 2.5h-28v1.8l.5.1c.2 0 .3 0 .4.1 1 .2 1.5.4 1.7.6.3.3.4.5.4.7 0 .4-.2 1.2-.9 3.1L138.5 24l-3.7-8.5 3-7.4c.5-1.3 1.1-2.3 1.8-2.9.4-.4 1.1-.7 2-.8l.5-.1V2.5H111v1.9h.5c.8.1 1.4.2 1.8.4s.8.5 1.1.9c.1.1.4.6 1.1 2.2l10.7 24.7h1.5l4.3-10.4 4.5 10.4h1.5l10-24.4c.5-1.3 1.1-2.3 1.8-2.9.4-.4 1-.6 1.8-.8.6 0 1.1.1 1.6.4.3.2.5.4.6.6s.2.9.2 2.7V27c0 2.2-.3 2.8-.4 3-.4.6-1.1.8-2.2.8h-1.6v2h13.5v.1h11V31H173c-.9 0-1.6-.2-2-.7-.2-.3-.4-1.7-.4-3.8V10.7l17.8 22.2h1.6V8c0-2 .2-2.6.4-2.7.4-.6 1.1-.8 2.1-.8h1.6v-2zm-54.9 21.6l-6.6-15.3c-.8-1.7-.9-2.6-.9-3 0-.3.1-.6.4-.8.1-.1.5-.3 1.6-.5.5.1.9.2 1.2.3.4.2.8.5 1.1.9.1.1.4.6 1.1 2.2l4.6 10.5zm5-12.3l-1.3-3c-.8-1.7-.9-2.6-.9-3 0-.3.1-.6.4-.8.1-.1.5-.3 1.7-.5 1 .2 1.5.4 1.7.6.3.3.4.5.4.7 0 .4-.2 1.2-.9 3.1zm34.5 14.7c0 2-.2 3.4-.4 3.7-.4.6-1.1.8-2.1.8h-1.4v-.1h-1.6c-.6 0-1.1-.1-1.7-.4-.3-.2-.6-.4-.6-.6-.1-.2-.2-.9-.2-2.7V8.3c0-2.2.3-2.8.4-3 .4-.6 1.1-.8 2.1-.8h1.2c.5 0 .8.1.9.1.8.2 1.3.5 1.7.8s.9.8 1.6 1.6v19.5z"/></g><path d="M17.4 1.2c-9 0-16.2 7.3-16.2 16.2s7.3 16.2 16.2 16.2 16.2-7.3 16.2-16.2S26.4 1.2 17.4 1.2zm0 31.8C8.7 33 1.8 25.9 1.8 17.3s7-15.6 15.6-15.6S33 8.8 33 17.4 26.1 33 17.4 33z" fill="#fff"/><path d="M30.2 11.2V11h-3.9v.3h.2c.4 0 .7.1.9.3.2.1.3.3.3.5 0 .3-.1.8-.4 1.5l-3 7.3-1.9-4.5 1.4-3.4c.3-.6.6-1.1.9-1.4.2-.2.6-.3 1-.4v-.3H12.5v.3c.4 0 .7.1.9.2.3.2.4.3.6.5.1.1.3.4.5 1l4.7 10.9h.3l2.1-5.1 2.2 5.1h.3L28.5 13c.3-.6.6-1.1.9-1.4.2-.2.6-.3 1-.4zm-10.5 9.7l-3.2-7.4c-.3-.7-.4-1.2-.4-1.5 0-.2.1-.4.3-.5.1-.2.4-.2.8-.3.3.1.5.1.7.2.3.2.4.3.6.5.1.1.3.5.5 1l2 4.8zm1.4-7.3c-.3-.7-.4-1.2-.4-1.5 0-.2.1-.4.3-.5.2-.2.5-.2 1-.3.4 0 .7.1.9.3.2.1.3.3.3.5 0 .3-.1.8-.6 1.6l-.7 1.8zM17.7 23.8h-5.2v-.3c.6-.1 1-.2 1.1-.3s.3-.3.3-.5c0-.3-.1-.8-.4-1.5l-3.2-7.4-3 7.3c-.3.7-.4 1.2-.4 1.5 0 .2.1.4.3.5.2.2.5.3.9.3h.2v.3h-4v-.3c.4-.1.8-.2 1-.4.3-.3.6-.8.9-1.4l4.4-10.8h.4l4.7 10.9c.2.6.4.9.5 1 .2.2.3.3.6.5.2.1.5.2.9.2z" fill="#fff"/></svg>