<svg height="-337" viewBox="39.6 219.9 516.1 155.6" width="2500" xmlns="http://www.w3.org/2000/svg"><path d="m506.7 219.9c-2.8 0-5.3 1.1-7.1 2.9s-2.9 4.3-2.9 7.1v89.6h-25.3c1.3-3.4 2-7.2 2-11.1 0-18.4-15.9-33-34.7-31-14.3 1.6-25.8 13-27.5 27.2-.6 5.3 0 10.3 1.8 14.9h-17.2c1.7-4.5 2.4-9.6 1.8-14.9-1.7-14.3-13.3-25.7-27.6-27.2-18.7-2-34.6 12.7-34.6 31s.7 7.7 2 11.1h-15.8v-89.7c0-5.5-4.4-9.9-9.9-9.9s-5.2 1.1-7 2.9-2.9 4.3-2.9 7v125.3h-17.7v-54.7c0-10.6-8.6-19.1-19.1-19.1h-127.7c-5 0-9-4.1-8.9-9.2.1-4.9 4.4-8.6 9.3-8.6h136.3c5.5 0 10-4.5 10-10s-1.1-5.3-2.9-7.1-4.3-2.9-7.1-2.9h-136c-16.2 0-29.9 13.3-29.6 29.5.3 15.8 13.2 28.4 29 28.4h126.8v18.2h-164.2c1.3-3.4 2-7.2 2-11.1 0-17.2-14-31.2-31.2-31.2s-31.2 14-31.2 31.2 14 31.2 31.2 31.2h193.5v15.9c0 11 8.9 19.9 19.9 19.9h17.7c11 0 19.9-8.9 19.9-19.9v-15.9h175.8c10.6 0 19.2-8.6 19.2-19.2v-90.5c0-5.5-4.5-10-10.1-10zm-435.9 100.4c-6.6 0-11.9-5.3-11.9-11.9s5.3-11.9 11.9-11.9 11.9 5.3 11.9 11.9-5.3 11.9-11.9 11.9zm300.3-.8c-1.3.5-2.8.8-4.4.8s-3-.3-4.4-.8c-4.4-1.7-7.6-6-7.6-11.1s5.3-11.9 11.9-11.9 11.9 5.3 11.9 11.9-3.1 9.4-7.6 11.1zm75.4 0c-1.3.5-2.8.8-4.4.8s-3-.3-4.4-.8c-4.4-1.7-7.6-6-7.6-11.1s5.3-11.9 11.9-11.9 11.9 5.3 11.9 11.9-3.1 9.4-7.6 11.1zm-401.5-66c0-5.6 4.6-10.2 10.2-10.2s10.2 4.6 10.2 10.2-4.6 10.2-10.2 10.2-10.2-4.6-10.2-10.2zm31.1 0c0-5.6 4.6-10.2 10.2-10.2s10.2 4.6 10.2 10.2-4.6 10.2-10.2 10.2-10.2-4.6-10.2-10.2zm479.6-23.6v99.6c0 5.5-4.5 10-10 10s-10-4.5-10-10v-99.6c0-5.5 4.5-10 10-10s10 4.5 10 10z" fill="#9d1d20"/></svg>