<svg height="2500" viewBox="87.52 13.84 1824.96 1973.38" width="2217" xmlns="http://www.w3.org/2000/svg"><path d="m1227.17 1457.36-172.94 492.66c-8.84 25.16-31.82 37.19-54.17 36.06h-.06c-22.35 1.14-45.33-10.89-54.17-36.06l-172.94-492.66 227.03-472.06.12.22.1-.22z"/><path d="m1826.53 1553.37-351.44-64.26c-101.34-210.46-202.65-420.89-303.96-631.33-35.75-74.25-71.57-148.42-107-222.81-13.08-27.45-31.58-51.46-64.13-51.39-32.55-.07-51.05 23.94-64.13 51.39-35.43 74.39-71.25 148.56-107 222.81-101.31 210.44-202.63 420.87-303.96 631.33l-351.44 64.26c-51.28 9.37-85.95-50.56-51.85-89.72l353.17-405.4c17.88-20.44 17.99-50.82.25-71.34l-350.78-407.45c-33.89-39.39 1.15-99.11 52.43-89.41l530.98 100.37c26.72 5.02 53.35-10.06 62.45-35.51l180.79-504.73c8.29-23.19 28.4-35.28 49.09-36.34 20.69 1.06 40.8 13.16 49.09 36.34l180.79 504.72c9.1 25.46 35.73 40.53 62.45 35.51l530.98-100.37c51.28-9.7 86.32 50.02 52.43 89.41l-350.77 407.45c-17.74 20.51-17.62 50.89.25 71.34l353.17 405.4c34.09 39.17-.58 99.1-51.86 89.73z"/></svg>