<svg height="942" viewBox="-1.61 -1.35 183.75 68.49" width="2500" xmlns="http://www.w3.org/2000/svg"><path d="m64.57 44.53v-3.79h-1.23c-.35 0-.63-.28-.63-.63v-9.46h-3.79v9.46c0 2.44 1.99 4.43 4.43 4.43h1.23zm21.51 0v-3.79h-.63c-.35 0-.63-.28-.63-.63v-3.01h-3.79v3.01c0 2.44 1.99 4.43 4.43 4.43h.63zm5.83 0h.63v-3.79h-.63c-.35 0-.63-.28-.63-.63v-3.01h-3.79v3.01c0 2.44 1.99 4.43 4.43 4.43zm-17.76-2.87c0 5.23-4.26 9.49-9.49 9.49h-2.28v3.79h2.28c7.32 0 13.28-5.96 13.28-13.28v-11.02h-3.79z" fill="#221714"/><path d="m96.21 41.66c0 5.23-4.26 9.49-9.49 9.49h-2.01v3.79h2.01c7.32 0 13.28-5.96 13.28-13.28v-4.56h-3.79zm-62.12-7.54h17.46v.92c0 3.14-2.55 5.69-5.69 5.69h-1.93v-3.59h-3.79v7.96c0 3.33-2.71 6.04-6.04 6.04v3.79c5.42 0 9.84-4.41 9.84-9.84v-.57h1.93c5.23 0 9.49-4.26 9.49-9.49v-4.72h-21.25v3.79zm92.28-.82h-2.93v-2.66h-3.79v2.66h-10.69v-2.66h-3.79v2.66h-2.93v3.79h2.93v3.01c0 2.44 1.99 4.43 4.43 4.43h1.23v-3.79h-1.23c-.35 0-.63-.28-.63-.63v-3.01h10.69v4.56c0 5.23-4.26 9.49-9.49 9.49h-2.28v3.79h2.28c7.32 0 13.28-5.96 13.28-13.28v-4.56h2.93v-3.79zm11.19 7.45v1.85h-2.62v1.38h2.32v11.64h-7.45v-11.64h2.32v-1.38h-2.69v-1.85zm-3.62 4.85h-.75v1.53c0 1.75-.53 2.4-.88 2.85l-.83-1.17v1.95h4.17v-1h-.9c-.75 0-.8-.45-.8-.87v-3.3zm-1.75 0h-.72v3.15c.55-.45.72-1.18.72-1.85zm3.45 6.82h-4.17v1.42h4.17zm-1.7-9.82h-.75v1.38h.75zm1.7 3h-.8v2.2c0 .33.03.38.32.38h.48zm9.17 2.67h-4.67v4.94c0 .27.05.42.45.42h2.1c.5 0 .65 0 .65-2.4l2 .5c-.02.68-.1 2.33-.35 2.95s-.8.93-1.43.93h-4.02c-.4 0-1.38 0-1.38-1.22v-8.05h4.65v-3.6h-4.74v-1.98h6.74v7.52zm17.78-1.47c-1.03-.47-1.65-.8-2.54-1.33v1.35h-8.66v-1.38c-.93.55-1.55.88-2.67 1.37l-1.1-2.1c2.57-.85 5.27-2.43 6.99-4.47h2.13c1.03 1.17 2.72 2.85 6.99 4.47l-1.15 2.1zm-.6 1.44v7.42h-12.66v-7.42zm-2.15 1.9h-8.39v3.64h8.39zm-.65-5.22c-2.12-1.42-3-2.4-3.54-2.99-.5.58-1.33 1.57-3.45 2.99zm16.18 3.4c0 .78 0 1.88-.2 3.24.25.45.57.92 1.13 1.35v-5.59h-2.7v-1.87h7.24v1.87h-2.67v1.9h3.22v1.9h-3.22v2.45c.25.03.42.03.63.03h3.34l-.4 2.03h-3c-2.59 0-3.49-1.32-4.02-2.15-.45 1.33-.83 1.93-1.38 2.62l-1.33-1.22c-1.22.25-4.4.7-5.69.77l-.23-1.98c.7-.02.87-.03 2.68-.22v-4.32h-2.5v-1.82h2.5v-1.22h-1.43v-.93c-.45.4-.55.48-.87.73l-.65-2.08c1.27-.87 2.42-2.23 2.95-3.57h2.1c.5 1.02 1.02 1.65 2 2.33l-.83 1.77v1.75h-1.48v1.22h2.05v1.82h-2.05v4.1c1.15-.15 1.28-.17 1.83-.28v1.03c.9-1.3 1.13-3.24 1.1-5.77l1.88.1zm-7.61 1.52c.13.52.38 1.62.45 2.8l-1.53.32c0-.45-.02-1.28-.37-2.84zm4.12-5.54c-1.23-1.02-1.7-1.85-1.97-2.33-.35.63-.68 1.17-1.72 2.33zm.9 5.67c-.03.28-.25 1.75-.55 2.52l-1.27-.3c.12-.43.27-1 .42-2.49zm3.39-8.28v-1.43h2.1v1.43h3.25v3.37h-1.97v-1.53h-4.7v1.53h-1.92v-3.37zm-42.06-9.22c0 1.33-1.08 2.4-2.4 2.4s-2.4-1.08-2.4-2.4 1.08-2.4 2.4-2.4 2.4 1.07 2.4 2.4zm-4.43 0c0 1.12.91 2.02 2.02 2.02s2.03-.9 2.03-2.02-.92-2.02-2.03-2.02-2.02.89-2.02 2.02zm1.77.25v1.1h-.56v-2.67h.86c.59 0 .94.26.94.79 0 .32-.16.65-.58.75l.81 1.13h-.62l-.73-1.1zm0-1.07v.59h.24c.14 0 .45 0 .45-.3s-.27-.29-.45-.29z" fill="#221714"/><path d="m5.36 67.14s-5.42-20.67.72-32.87c5.61-11.16 8-11.83 12.37.09 5.6 15.29-13.09 32.78-13.09 32.78z" fill="#e51c77"/><path d="m7.17 27.36s-8.78-4.24-6.91-8.85 3.45-3.18 5.04-4.11 4.19-6.04 7.64-4.92 4.98.19 3.28 5.54c-1.7 5.36-4.76 12.21-8.49 12.33" fill="#5f2054"/><path d="m6.47 10.96s-5.77-3.91-2.19-7.82c3.28-3.58 4.67-4.49 7.22-.67 3.27 4.9-5.03 8.49-5.03 8.49z" fill="#68b2cc"/></svg>