<svg clip-rule="evenodd" fill-rule="evenodd" height="210mm" image-rendering="optimizeQuality" shape-rendering="geometricPrecision" text-rendering="geometricPrecision" viewBox="1236.17 7678.94 27226.59 5656.38" width="297mm" xmlns="http://www.w3.org/2000/svg"><g fill="#0b4c8b"><path d="m18711.44 13253.27 11.17-5373.88h1703.72v2166.63l899.38-2166.63h1880.55l-1135.65 2438.98 1242.36 2934.9h-1904.43l-982.21-2650.86v2650.86zm-3359.19-2089.9 425.3-1756.06 295.72 1159.02h1679.84l-958.31-2686.94h-2010.63l-1850.06 5373.88h1885.63l235.77-895.31h1475.08l228.64 895.31h1952.21l-745.42-2089.9h-1740.31z"/><path d="m7014 13252.25v1.02h1661.56l319.1-2705.74 993.37 2656.95 1005.57-2656.95 367.37 2705.74h1573.14l-638.71-5373.88h-1526.39l-733.73 2135.63-721.53-2135.63h-1525.88z"/><path d="m27635.04 8507.93c-530.26-530.67-1250.17-828.99-2000.47-828.99-1561.71 0-2828.19 1266.49-2828.19 2828.2 0 1561.69 1266.48 2828.18 2828.19 2828.18s2828.19-1266.15 2828.19-2827.84v-1.39c0-749.27-298.05-1468.54-827.59-1998.06zm-1196.12 2803.81c-212.69 212.58-501.63 332.31-802.5 332.31h-1.38c-1.6.01-3.4.01-5.05.01-624.57 0-1131.08-506.5-1131.08-1131.08v-4.55-4.61c0-624.57 506.51-1131.08 1131.08-1131.08h5.1c1.29.01 2.53.01 3.78.01 299.77 0 587.62 118.8 800.02 330.22 209.25 215.81 327.82 504.04 331.26 804.49-3.59 300.38-122.3 588.42-331.3 804.3z" fill-rule="nonzero"/><path d="m3653.81 11163.37 427.84-1755.04 296.23 1159.02h1677.81l-957.8-2687.96h-2012.16l-1849.56 5373.88h1885.63l235.77-897.85h1473.55l228.66 895.3h1952.19l-745.41-2087.35z"/></g></svg>