<svg height="2500" viewBox="-144 -144 1728 1728" width="2500" xmlns="http://www.w3.org/2000/svg"><path d="m-144-144h1728v1728h-1728z" fill="#fff"/><path d="m-144-144h1728v1728h-1728z" fill="#faf9f8"/><path d="m596.666 754.819-22.875-64.36-22.875 64.36zm67.547 69.14h-42.828l-13.031-36.437h-68.875l-13.032 36.438h-42.812l73.406-180.844h33.766zm261.653.001h-43.875l-21.281-124.72-35.36 124.72h-39.093l-35.375-124.72-21.282 124.72h-43.875l35.11-180.844h47.328l37.766 126.86 37.5-126.86h47.343zm36.137 0v-180.844h39.89v144.672h64.892v36.172zm251.035-72.594h-62.234v72.594h-39.89v-180.844h104.78v36.172h-64.89v35.906h62.234zm0 0" fill-opacity=".941"/><path d="m584.912 743.065-22.875-64.36-22.875 64.36zm67.547 69.14h-42.828l-13.031-36.436h-68.875l-13.031 36.438h-42.814l73.406-180.844h33.766zm261.653.001h-43.875l-21.281-124.719-35.36 124.719h-39.093l-35.375-124.719-21.281 124.719h-43.875l35.109-180.844h47.328l37.766 126.86 37.5-126.86h47.344zm36.138 0v-180.844h39.89v144.672h64.89v36.172zm251.034-72.594h-62.234v72.594h-39.89v-180.844h104.78v36.172h-64.89v35.906h62.234zm0 0" fill="#ed3a35"/><path d="m269.066 739.453h99.54v86.973h-99.54zm0 0" fill="#ed3a35"/><path d="m262.238 826.125c.016.008.035.012.047.02a.97.97 0 0 0 1.2-.422l109.468-188.047c.14-.242.176-.54.09-.805a.965.965 0 0 0 -.54-.586l-31.784-13.164a.969.969 0 0 0 -.746.008 1.026 1.026 0 0 0 -.524.555l-77.676 201.214a.965.965 0 0 0 .465 1.227zm0 0"/><path d="m187.574 822.547a.963.963 0 0 0 1.246-.398l109.465-188.051c.145-.243.176-.535.094-.805a.964.964 0 0 0 -.543-.582l-31.781-13.168a.951.951 0 0 0 -.746.012 1.006 1.006 0 0 0 -.524.55l-77.675 201.215a.964.964 0 0 0 .465 1.227zm0 0"/><path d="m448.84 823.059a.963.963 0 0 1 -1.238-.422l-106.137-189.95a1.008 1.008 0 0 1 -.078-.808.963.963 0 0 1 .55-.574l32.012-12.602a.942.942 0 0 1 .742.024c.235.105.422.312.516.558l74.117 202.555a.968.968 0 0 1 -.484 1.219zm0 0"/><path d="m373.39 823.852-.05.02a.957.957 0 0 1 -1.188-.438l-106.254-189.887a1 1 0 0 1 -.078-.805.963.963 0 0 1 .551-.574l32.004-12.625a.942.942 0 0 1 .742.023c.235.11.422.313.516.563l74.242 202.508a.958.958 0 0 1 -.484 1.215zm0 0"/><path d="m379.793 608.16v19.82h-122.11v-19.82zm0 0" fill="#faf9f8"/></svg>