<svg height="2500" viewBox="149.7 30.8 700.9 938.4" width="1518" xmlns="http://www.w3.org/2000/svg"><ellipse cx="533.9" cy="929.8" fill="#484c4d" rx="295.8" ry="39.4"/><path d="m812 403.1c25.4-28.3 38.6-63.6 35.9-98.1-3.3-40.9-28.7-80.2-71.7-110.9-5.4-3.8-10.9-7.4-16.5-10.8-5.1-21.3-16-40.4-25.5-54-14.9-21.3-33.9-39.9-52-51.3-33-20.6-69.6-31-101.2-39.2-17.7-4.6-32.5-3.5-45.6-2.7-8.9.6-16.6 1.1-24.8-.1-36.1-5.2-73.4 3.1-108 24.2-30.6 18.6-57.4 46.6-75.5 78.8-24.6 43.7-35.3 92.7-40.8 139.8-7.7 1-16.5 1-25.6 1.1-26.7.2-60 .4-83.6 26.5-20.4 22.5-21.5 52.4-22.2 72.2-2.6 73.8-5.2 150.2-3.3 225.8 1.1 44 6.8 88.9 39.9 119.5 25.6 23.7 58.9 29.8 89 29.8 3.1 0 6.2-.1 9.3-.2 2 19.7 4.2 39.4 6.7 59.1 3.2 25.2 7.1 49.6 20.6 71.8 19.7 32.5 57.4 52.4 96.1 52.4 6.7 0 13.4-.6 20.1-1.8 45.8-8.4 83.5-44.6 93.9-90 4.9-21.7 3.3-43.2 1.9-62.2-.6-8.1-1.2-16.1-1.3-23.6 9.7-.1 21.2-.2 33.6-.4-8 44.4 6.6 91.7 40 120.6 20.3 17.5 47.3 27.1 75.3 27.1 3.8 0 7.6-.2 11.4-.5 30.5-2.8 57.1-16.6 74.8-38.7 19.5-24.4 25.9-53.9 30.7-82 21.8-126.1 28.2-254.7 18.9-382.2z"/><path d="m760.3 495.2c-.2-17.4-.8-34.8-1.6-52.2-20.1 10.1-43.5 18.1-71.4 24.4-26.4 5.9-50.5 8.9-72.8 8.9-20.7 0-39.8-2.6-57.6-7.7-55.8-16.2-102.2-60.3-121.1-115.1-14.7-42.6-12.6-91.2 5.9-133.1 20.1-45.6 69.8-58.9 99.6-66.8 46-12.3 94.2-12.7 139.3-2.2-8.9-10.7-18.9-20-28.1-25.8-26.2-16.4-57.9-25.3-85.5-32.4-8.9-2.3-17.3-1.7-27.9-1s-22.5 1.5-36.6-.5c-53.6-7.8-103.2 33.5-126.6 75-1.2 2.2-2.4 4.3-3.5 6.6-25.9 49.7-31.6 108.7-35.1 165-9.7 155.5-4.8 312.8 14.7 467.4 2.5 19.6 5.1 36.9 12.9 49.8 11 18.1 36 28.7 58.2 24.6 23.3-4.3 44.1-24.2 49.4-47.4 3.1-13.5 1.9-29.1.6-45.6-1.4-18.9-3-40.3 1.8-61.9 2.8-12.4 13.6-21.4 26.3-21.9h2c22.6.1 134.9-1.3 189.3-5.8 0 0-27.8 52.9-73.1 59.7-9.6 28-2.3 62 18.4 79.9 11.4 9.8 28.2 14.8 44.9 13.2 15-1.4 28.2-7.9 36.1-17.9 11.2-14.1 15.5-34.8 19.3-56.6 16.2-92.6 23.5-186.7 22.2-280.6zm-482-99.2c.8-20.2 1.8-40.3 3-60.4-7 .4-13.8.4-20.4.5-22 .2-35.9.8-42.5 8.1-6.7 7.3-7.3 24.9-7.7 36.5-.2 6.2-.4 12.4-.7 18.6-2.3 67.2-4.4 136.2-2.6 203.8.8 31.7 4.1 63.3 21.9 79.8 13.3 12.3 33.4 15.4 55.2 14.8-7.9-100.3-10-201.2-6.2-301.7z" fill="#3f5aa8"/><path d="m791.6 322c-2.6 19.5-14.5 39.7-32.9 54.7-19.7 16.2-46.3 27.6-83.8 36-42 9.5-74.6 10.1-102.5 2-38.6-11.2-70.7-41.7-83.8-79.6-10.2-29.4-8.6-63.1 4.2-92.2 1.3-3 3-6 5.7-9.2 7.1-8 21.5-16.6 57-26.1 19.7-5.3 39.8-7.8 59.8-7.8 46.2 0 91.5 13.7 128.2 39.9 39.5 28.1 47.3 55.7 48.4 69.7.4 4.1.3 8.4-.3 12.6z" fill="#a3d3e3"/><path d="m284.6 697.7c-21.8.6-41.9-2.5-55.2-14.8-17.9-16.5-21.1-48.1-21.9-79.8-1.8-67.6.3-136.6 2.6-203.8 20.2-8.4 44.8-7.1 68.2-3.2-3.8 100.4-1.7 201.3 6.3 301.6zm475.7-202.5c-15.7 57.9-56.6 109.2-111.7 133-72.2 31.3-164.3 11.1-214.2-49.6-32-38.9-45.6-89.6-54.4-139.2-15.4-87.7-18-177.7-7.7-266.1-25.8 49.7-31.5 108.7-35 165-9.7 155.5-4.8 312.8 14.7 467.4 2.5 19.6 5.1 36.9 12.9 49.8 11 18.1 36 28.7 58.2 24.6 23.3-4.3 44.1-24.2 49.4-47.4 3.1-13.5 1.9-29.1.6-45.6-1.4-18.9-3-40.3 1.8-61.9 2.8-12.4 13.6-21.4 26.3-21.9h2c22.6.1 134.9-1.3 189.3-5.8 0 0-27.8 52.9-73.1 59.7-9.6 28-2.3 62 18.4 79.9 11.4 9.8 28.2 14.8 44.9 13.2 15-1.4 28.2-7.9 36.1-17.9 11.2-14.1 15.5-34.8 19.3-56.6 16.2-92.6 23.5-186.7 22.2-280.6z" fill="#666766" opacity=".5"/><path d="m791.6 322c-2.6 19.5-14.5 39.7-32.9 54.7-19.7 16.2-46.3 27.6-83.8 36-42 9.5-74.6 10.1-102.5 2-38.6-11.2-70.7-41.7-83.8-79.6-10.2-29.4-8.6-63.1 4.2-92.2 1.3-3 3-6 5.7-9.2 7.4 11.1 13 40.2 18.1 48.8 10.8 17.9 26.2 33.3 44.1 44.2 37.8 23 84.3 28 128.2 22.4 35.3-4.5 69.3-15.2 102.7-27.1z" fill="#5b7882" opacity=".45"/><path d="m614.3 273.7c-7.1-2.6-13.4-8.9-13.7-16.5-.3-11 11.3-18.3 21.7-21.8 29.4-9.9 62.4-8.8 91.1 3 8.2 3.4 17 9 17.8 17.8.9 9.8-9.3 17.6-19.2 18.6-9.8 1-19.5-2.4-29.2-4-22.5-3.7-45.3 11.3-68.5 2.9z" fill="#fff"/></svg>