<svg clip-rule="evenodd" fill-rule="evenodd" height="833" image-rendering="optimizeQuality" shape-rendering="geometricPrecision" text-rendering="geometricPrecision" viewBox="0 0 6493 2165" width="2500" xmlns="http://www.w3.org/2000/svg"><path d="M3294 1519L95 1475l3199-44 3199 44zM108 2153v-467h73v183h102v-183h73v467h-73v-212H181v212zm539-233c0 77 4 125 11 145 8 20 22 30 43 30 20 0 34-10 41-29 8-20 12-68 12-146s-4-127-12-146c-7-20-21-30-42-30-20 0-34 10-42 30-7 19-11 68-11 146zm-76 0c0-50 2-89 6-119s10-52 19-67c11-21 25-36 41-45 16-10 37-14 63-14s47 4 63 14c16 9 30 24 42 45 8 15 15 38 18 67 4 30 6 69 6 119 0 49-2 88-6 118s-10 52-18 67c-12 22-26 37-42 46s-37 14-63 14-47-5-63-14-30-24-41-46c-9-15-15-37-19-66-4-30-6-70-6-119zm474 233v-467h111l55 303 54-303h112v467h-71l1-414-74 414h-45l-74-414 1 414zm554 0v-467h205v78h-131v108h121v74h-121v128h134v79zm627-187h63l-32-196zm-106 187l89-467h99l91 467h-80l-20-117h-85l-19 117zm544-263h31c23 0 40-5 49-15 9-11 14-29 14-55s-4-44-13-54c-8-10-25-15-49-15h-32zm-71 263v-467h128c40 0 68 10 85 31s26 54 26 101c0 46-9 81-28 103-18 23-46 34-84 34h-54v198zm515-263h31c23 0 39-5 48-15 10-11 14-29 14-55s-4-44-13-54c-8-10-24-15-48-15h-32zm-72 263v-467h129c39 0 67 10 84 31 18 21 26 54 26 101 0 46-9 81-27 103-19 23-47 34-84 34h-54v198zm444 0v-467h74v388h133v79zm413 0v-467h74v467zm374-187h63l-32-196zm-106 187l89-467h99l91 467h-80l-20-117h-85l-19 117zm473 0v-467h76l104 327-2-327h69v467h-75l-104-327 2 327zm628-166h72c0 2 0 5 1 9v9c0 54-10 94-29 120-19 27-49 40-89 40-19 0-35-3-49-9-13-6-25-15-35-27-13-16-23-38-28-67-6-28-9-77-9-148 0-48 2-86 5-115 4-28 9-49 16-63 10-22 24-37 39-47 16-9 36-14 61-14 40 0 70 12 88 37s28 64 28 119h-72v-11c0-26-4-44-11-57-7-12-17-19-31-19-18 0-30 9-37 26-6 17-9 65-9 143 0 84 3 135 9 153 6 19 18 28 36 28 17 0 28-7 35-22 6-14 9-40 9-79zm287 166v-467h204v78h-130v108h121v74h-121v128h133v79zm410-164h74v30c0 29 3 49 9 59 6 11 17 16 32 16s27-5 35-14c9-10 13-23 13-41 0-14-3-26-9-37-6-9-18-22-37-38l-38-32c-32-26-53-49-62-66s-13-39-13-66c0-39 9-70 29-92s47-33 82-33c37 0 65 12 85 35 19 24 29 58 29 102v17h-71v-12c0-26-3-44-10-55s-19-16-35-16c-12 0-21 4-28 12s-10 20-10 34c0 20 15 42 46 66l41 33c29 22 49 44 59 64s16 46 16 77c0 42-11 75-31 98-21 23-50 35-89 35-40 0-69-13-89-37-19-24-29-61-29-111 0-5 0-14 1-26zm280-1028c24 0 48 6 72 18 23 13 41 31 54 54s19 48 19 73-6 49-19 72-31 41-54 54-47 19-72 19-49-6-72-19-41-31-54-54-19-47-19-72 6-50 19-73 31-41 55-54c23-12 47-18 71-18zm0 24c-20 0-40 5-60 15-19 11-34 26-45 45-11 20-16 40-16 61s5 41 16 60c10 19 25 34 45 45 19 11 39 16 60 16s41-5 60-16c20-11 35-26 45-45 11-19 16-39 16-60s-5-41-16-61c-11-19-26-34-45-45-20-10-40-15-60-15zm-64 201v-156h54c18 0 32 1 40 4s15 8 20 15c4 8 7 15 7 23 0 12-4 22-12 30-9 9-19 13-33 14 6 3 10 5 13 9 7 6 14 16 24 31l19 30h-31l-14-24c-11-20-20-32-27-37-4-3-11-5-20-5h-15v66zm25-88h31c15 0 25-2 30-6 5-5 8-10 8-17 0-5-1-9-4-13-2-3-6-6-10-8-5-2-13-3-26-3h-29zm-1364 131h-201l622-556-570-510h201l469 420L6010 0h201l-753 673 622 556h-201l-522-467zm-1013 0V163h668v174h-495v249h470v174h-470v295h519v174h-692zM2988 163h369c181 0 329 148 329 329 0 180-148 328-329 328h-196v409h-173V163zm173 174v310h196c86 0 155-70 155-155 0-86-69-155-155-155zm-367-174v1066h-174V504l-173 725h-177l-172-725v725h-174V163h265l170 711 170-711zm-1110 0v1066h-173V858H885l-570 495H80l570-495H0l127-173h722l600-522zm-173 522V314l-427 371z" fill="#272424"/></svg>