<svg height="521" viewBox="1 .999 764.608 160.014" width="2500" xmlns="http://www.w3.org/2000/svg"><path d="m1 159v-158c154.688 0 309.375 0 464.53.469.47 13.073.47 25.678.47 39.131 1.478-1.181 2.294-1.832 3.076-2.501-.033-.018-.032.057.225-.05.46-.409.665-.71 1.205-1.075 7.446-5.757 14.554-11.451 21.615-17.108-8.213-6.04-15.766-11.594-23.535-17.404-.672-.659-1.129-1.06-1.585-1.463h298c0 6.413 0 12.737-.469 19.531-12.709.47-24.95.438-37.189.51-1.51.01-3.018.58-4.84 1.018-17.418 22.87-34.521 45.612-51.59 68.307 9.223 12.307 18.095 24.221 27.049 36.073 8.238 10.904 16.565 21.742 24.928 32.841.075.233.111.72.111.72-20.02 0-40.042 0-60.354-.44-.284-24.372-.25-48.305-.277-72.238-.024-21.768-.113-43.537-.068-65.628-11.052-.429-22.209-.541-33.366-.6-.264-.001-.531.6-.86 1.383-.067 46.15-.071 91.837-.075 137.523-6.688 0-13.375 0-20.355-.44-.352-8.8-.413-17.162-.38-25.85-4.193-.455-8.48-.655-12.768-.7-15.095-.16-30.19-.267-45.618-.655-4.405-2.018-9.207-2.927-12.416-5.688-9.84-8.466-11.498-19.826-7.026-31.26 3.418-8.74 11.067-13.918 20.995-15.518 14.273-.116 28.165-.319 42.058-.48 4.906-.056 9.814-.009 14.47-.009 0-9.08 0-17.603-.449-26.265-20.454-.083-40.46-.028-60.825-.023-2.555.54-4.74 1.18-6.951 1.713-19.08 4.6-36.809 25.497-38.011 45.991-1.293 22.025 6.74 38.864 24.71 50.677 6.32 4.156 14.328 5.746 21.566 8.507-17.688 0-35.375 0-53.533-.469-.47-34.176-.455-67.883-.512-101.59-.002-1.6-.629-3.2-1.428-4.864-8.481-.022-16.499.022-24.943.169-.48 35.655-.532 71.205-.585 106.755-2.37 0-4.741 0-7.611-.297-1.11-.804-1.722-1.31-2.409-2.06-.361-.414-.647-.584-1.038-1.076-8.091-9.351-16.077-18.381-24.088-27.44 21.133-16.467 23.888-30.522 19.718-46.653-4.194-16.224-16.568-25.263-33.043-29.412-27.533-.065-54.6-.079-81.668-.018-1.344.002-2.687.645-4.12 1.45-.102 34.502-.116 68.545-.107 102.589 0 .972.239 1.945.366 2.917-2.7 0-5.4 0-8.469-.335-.448-1.772-.527-3.21-.574-5.062-.363-3.196-.662-5.993-1.17-8.753-4.575-24.84-8.934-49.725-13.9-74.488-2.3-11.458-2.913-18.335-20.058-17.478-12.832.642-13.45-2.738-19.884 15.782-5.8 16.696-11.43 33.45-17.22 50.422-2.342-6.428-4.623-12.404-6.702-18.45-4.442-12.92-8.743-25.887-13.179-38.81-1.627-4.741-7.1-9.984-9.94-9.78-4.408.315-8.812.833-13.225.91-7.316.126-9.26 1.352-11.84 8.422-.726 1.993-1.458 4.02-1.854 6.094-4.024 21.09-8.03 42.182-11.927 63.295-1.486 8.052-2.676 16.158-4.184 24.538-.414 1.43-.644 2.561-.874 3.693-3.693 0-7.386 0-11.415-.328-.741-1.114-1.146-1.901-1.564-3.062-4.552-10.529-9.126-20.668-13.617-30.843-4.423-10.019-8.758-20.076-13.137-30.115-5.424-12.433-10.66-24.953-16.349-37.263-3.615-7.824-7.374-15.685-12.085-22.861-3.088-4.705-7.522-8.906-12.196-12.1-6.569-4.488-27.094-4.022-33.305 4.769-4.9 6.935-10.522 13.62-14.015 21.245-13.441 29.348-26.188 59.014-39.114 88.596-2.876 6.58-5.425 13.303-8.328 20.134-.427.391-.651.61-.875.828z" fill="#fefefe"/><path d="m178.058 156.008c1.324-8.081 2.514-16.187 4-24.239 3.897-21.113 7.903-42.206 11.927-63.295.396-2.075 1.128-4.1 1.855-6.094 2.578-7.07 4.523-8.296 11.84-8.423 4.412-.076 8.816-.594 13.224-.91 2.84-.203 8.313 5.04 9.94 9.782 4.436 12.922 8.737 25.89 13.18 38.81 2.078 6.045 4.36 12.021 6.701 18.449 5.79-16.973 11.42-33.726 17.22-50.422 6.434-18.52 7.052-15.14 19.884-15.782 17.145-.857 17.759 6.02 20.057 17.478 4.967 24.763 9.326 49.648 13.9 74.488.509 2.76.808 5.557.89 9.007-1.684 1.493-3.024 2.955-4.435 3.027-5.456.279-10.94-.011-16.401.206-1.303.051-2.561 1.243-3.84 1.91 0 0-.5 0-.75-.42-3.626-18.65-7.002-36.881-10.384-55.14-5.324 13.264-10.715 26.217-15.711 39.32-3.165 8.3-8.287 14.15-17.155 16.24-2.37 0-4.741 0-7.717-.24-1.141-.42-1.677-.6-2.582-.757-3.77-2.963-8.338-5.327-10.339-9.065-4.7-8.78-8.335-18.152-12.086-27.412-2.418-5.97-4.277-12.165-6.59-18.843-3.694 18.625-7.235 36.477-11.238 54.324-7.044-.006-13.63.128-20.202-.1-1.75-.061-3.46-1.236-5.188-1.9zm239.936-102.878c16.01 4.08 28.384 13.12 32.578 29.344 4.17 16.13 1.415 30.186-19.718 46.653 8.01 9.059 15.997 18.089 23.808 27.76-6.296.799-12.42.875-18.536 1.149-3.062.137-6.107.635-9.396.967-.236-.002-.707-.003-1.005-.003-.495.018-.693.035-1.198-.077-7.73-8.69-15.154-17.25-22.806-26.165-9.694-.522-19.16-.688-28.66-1.313-.013-8.423.01-16.386.494-24.38 12.371-.04 24.281-.013 36.19-.097 1.729-.012 3.453-.549 5.532-.959 6.834-2.845 10.334-8.231 9.727-14.54-.544-5.651-4.76-10.09-11.143-12.021-1.121-.74-2.148-1.401-3.178-1.405a5273.683 5273.683 0 0 0 -48.326.008c-1.173.006-2.341.804-3.56 1.368-.16.304-.318.4-.871.692-.543 2.06-.897 3.852-.9 5.644-.038 21.97.01 43.941-.069 65.911-.01 2.78-.623 5.556-.957 8.334-7.021 0-14.042 0-21.701-.382-.859-1.675-1.27-2.967-1.27-4.259-.005-33.76.033-67.519.524-101.308 26.722-.036 52.985-.026 79.248-.086 1.732-.004 3.462-.545 5.193-.836zm129.406 106.87c-7.638-2.761-15.646-4.351-21.967-8.507-17.969-11.813-26.002-28.652-24.71-50.677 1.203-20.494 18.932-41.39 38.012-45.991 2.21-.534 4.396-1.173 7.248-1.423 2.304.426 3.953.585 5.603.59 18.108.052 36.216.08 54.352.575.027 7.906.027 15.352.027 23.426h-5.927c-14.99 0-29.981-.056-44.97.082-1.677.015-3.344 1.136-5.016 1.743-9.548 1.67-17.197 6.85-20.615 15.589-4.472 11.434-2.814 22.794 7.026 31.26 3.209 2.76 8.01 3.67 12.551 6.013 2.212.834 3.955 1.286 5.7 1.294 17.062.078 34.125.082 51.221.569.022 8.11.01 15.756-.463 23.423-17.504.025-34.545.024-51.586.047-1.27.001-2.54.178-3.81.273.146.21.265.45.448.618.104.096.314.077.476.357v.739z" fill="#461064"/><path d="m401.95 133.113c7.423 8.56 14.846 17.12 22.645 26.042.376.362.405.845.405.845-22.02 0-44.042 0-66.36-.442-.32-26.866-.341-53.29-.363-79.714.202-.025.36-.121 1.003-.425 4.181-.104 7.832-.083 11.483-.045 14.397.15 28.794.305 43.19.458 6.291 1.546 10.507 5.986 11.05 11.636.608 6.31-2.892 11.696-10.186 14.487-13.551.057-26.29.023-39.029.095-1.324.007-2.645.648-4.047 1.456-.027 8.457.026 16.452-.037 24.774 10.005.494 20.125.664 30.245.833z" fill="#fbf9fb"/><path d="m765 24c0 44.02 0 88.042-.323 132.525-.752.41-1.18.358-1.598-.07-3.578-5.421-7.096-10.516-10.766-15.5-5.379-7.306-10.853-14.543-16.31-21.792-5.592-7.428-11.381-14.716-16.732-22.313-1.955-2.775-6.477-4.967-2.702-9.901 15.968-20.874 31.7-41.93 47.745-62.943.228-.025.686-.006.686-.006z" fill="#fefefe"/><path d="m122 160c-25.688 0-51.375 0-77.425-.32-.4-.765-.437-1.21-.145-1.79 3.79-7.932 7.282-15.714 10.704-23.527 2.543-5.805 4.98-11.656 7.493-17.474 4.165-9.645 8.27-19.318 12.563-28.906 2.505-5.594 5.325-11.046 8.073-16.705l15.954 36.343c-5.479.321-10.517.525-15.531.986-1.032.095-2.49.922-2.88 1.799-4.048 9.1-7.918 18.28-12.194 27.617-.68 1.474-1.004 2.768-1.385 4.29 15.974 0 31.48 0 47.158.278 2.435 5.334 4.7 10.39 7.004 15.705.23.741.42 1.223.611 1.704z" fill="#fbfafb"/><path d="m254.469 160c8.399-2.09 13.52-7.94 16.686-16.24 4.996-13.103 10.387-26.056 15.71-39.32 3.383 18.259 6.76 36.49 10.135 55.14-14.02.42-28.042.42-42.531.42z" fill="#fdfdfe"/><path d="m203.91 158.011 10.776-54.328c2.313 6.678 4.172 12.874 6.59 18.843 3.75 9.26 7.386 18.632 12.086 27.412 2 3.738 6.569 6.102 10.488 9.332.395.405.273.567.15.73-13.02 0-26.042 0-39.542-.259-.526-.424-.573-.59-.548-.995.049-.405.025-.57 0-.735z" fill="#fdfcfd"/><path d="m662.196 22.017c.06 21.768.15 43.537.173 65.305.026 23.933-.007 47.866-.192 72.238-.177.44-.677.44-.932.2s-.296-.718-.292-.992c-.005-.458-.013-.64.002-1.288-.001-45.437-.024-90.409.274-135.403.537-.035.752-.047.967-.06z" fill="#18003e"/><path d="m628.25 160c-.246-45.686-.242-91.372.07-137.512.306-.453.794-.422.752.04-.02 45.448.003 90.436.003 135.693-.019.45-.015.63-.043 1.052-.03.24-.032.727-.032.727z" fill="#00002a"/><path d="m333.093 54.08c-.03 33.76-.069 67.52-.065 101.28 0 1.291.412 2.583.802 4.258-.274.382-.719.382-1.497.382-.46-.972-.699-1.945-.7-2.917-.008-34.044.006-68.087.423-102.584.617-.442.827-.43 1.037-.418z" fill="#18003e"/><path d="m491.99 53.142c.336 1.6.963 3.198.965 4.798.057 33.708.043 67.415.044 101.591.001.469-.499.469-.758.227-.26-.241-.338-.718-.324-.99-.004-.453-.02-.634.005-1.279.033-34.772.024-69.08.03-103.627.016-.24.038-.72.038-.72zm-25.74 106.858c-.197-35.55-.145-71.1.345-106.514.437.136.468.615.444 1.075.011 34.77.046 69.081.056 103.663-.016.453-.007.634-.037 1.054-.04.239-.058.722-.058.722z" fill="#000016"/><path d="m357.926 80.111c.373 26.157.394 52.581.245 79.447-.615.442-1.06.442-1.838.442 0-2.778.614-5.555.624-8.334.08-21.97.03-43.94.069-65.91.003-1.793.357-3.585.9-5.645z" fill="#18003e"/><path d="m298.469 160c.81-.667 2.068-1.859 3.371-1.91 5.462-.217 10.945.073 16.401-.206 1.411-.072 2.75-1.534 4.403-2.611.36 1.183.44 2.62.438 4.392-8.103.335-16.124.335-24.613.335z" fill="#310253"/><path d="m551.469 160c-.469 0-.469-.493 0-.743 18.472-.238 36.476-.226 54.5.025.02.239.031.718.031.718z" fill="#460e62"/><path d="m122.25 160c-.44-.481-.63-.963-.415-1.717 12.402-.277 24.397-.236 36.391-.33 1.939-.015 3.873-.631 5.809-.97.404.788.809 1.575 1.09 2.69-.125.327-.625.327-1.168.03-13.455-.413-26.367-.54-39.279-.601-.558-.003-1.119.585-1.678.898z" fill="#300452"/><path d="m765 23.625c0 .375-.458.356-.783-.025-1.96-.787-3.592-1.53-5.232-1.546-12.056-.122-24.113-.1-36.17-.122 1.509-.31 3.016-.881 4.527-.89 12.24-.073 24.48-.041 37.19-.042.468.75.468 1.5.468 2.625z" fill="#010017"/><path d="m466.75 1c.706.402 1.163.804 1.42 1.679-.456.884-.938 1.294-.942 1.709-.097 10.462-.189 20.925-.11 31.387.007.786 1.297 1.562 1.99 2.342l-3.11 2.484.002-39.132c0-.469.5-.469.75-.469z" fill="#e50202"/><path d="m1 159.5c.224-.718.448-.937 1.109-1.327.437-.172.905-.167 1.195.133 11.708.431 23.126.524 34.541.737 1.724.032 3.437.624 5.155.957-14 0-28 0-42-.5z" fill="#470e63"/><path d="m765 158c.608 3.013-1.677 1.963-2.949 1.968-12.37.053-24.742.032-37.57-.22-.43-.419-.404-.585-.162-.75.216.002.648.008 1.119.006 11.574-.003 22.679.043 33.782-.05 1.93-.016 3.853-.62 5.78-.954z" fill="#460e62"/><path d="m43.25 160c-1.968-.333-3.681-.925-5.405-.957-11.415-.213-22.833-.306-34.074-.74 13.562-.293 26.946-.285 40.33-.277.037.444.075.889.006 1.654-.107.32-.607.32-.857.32z" fill="#2f0051"/><path d="m123.469 160c.09-.313.651-.901 1.21-.898 12.911.062 25.823.188 39.028.6-13.061.298-26.415.298-40.238.298z" fill="#461062"/><path d="m765 157.75c-1.927.583-3.85 1.188-5.78 1.204-11.103.093-22.208.047-33.485-.25 10.633-.431 21.439-.52 32.242-.752 1.705-.037 3.396-.731 5.093-1.122.428.053.855.105 1.607.164.323.006.323.506.323.756z" fill="#2e0050"/><path d="m426.023 159s.471.001 1.18.001c8.41 0 16.114.063 23.815-.053 1.684-.025 3.359-.69 5.038-1.06.61.505 1.222 1.011 1.889 1.815-10.3.297-20.653.297-31.473.047-.46-.417-.454-.584-.449-.75zm203.446 1c-.469 0-.468-.486.025-.739 10.814-.241 21.134-.23 31.455-.219 0 0 .04.478.046.718-10.35.24-20.703.24-31.526.24z" fill="#460e62"/><path d="m203.448 158.007c.487.17.51.334.004.744-4.984.247-9.442.121-13.888.29-3.862.147-7.71.626-11.564.959h-.75c-.02-1.132.21-2.263.624-3.693 1.912.364 3.622 1.539 5.372 1.6 6.573.228 13.158.094 20.202.1z" fill="#310452"/><path d="m606.25 160c-.25 0-.26-.48-.277-.993-.024-.696-.032-.878-.04-1.06.012-7.648.024-15.295.32-23.422.496-.483.707-.486.919-.488.06 8.361.12 16.722.005 25.523-.177.44-.677.44-.927.44z" fill="#18003e"/><path d="m178.469 160c3.385-.333 7.233-.812 11.095-.959 4.446-.169 8.904-.043 13.816-.05.505.16.552.326.61.75-8.344.259-16.698.259-25.521.259zm289 0c-.469 0-.45-.483.048-.736 8.46-.244 16.423-.234 24.386-.224 0 0 .078.477.088.718-8.012.242-16.033.242-24.522.242zm-223.136 0c-.21-.163-.088-.325-.114-.755.387-.086.923.095 1.62.516-.283.239-.728.239-1.506.239z" fill="#460e62"/><path d="m724.104 158.997a9.876 9.876 0 0 0 -.092.75c-.012.253-.512.253-.762.253s-.286-.487-.04-.743c.463-.258.679-.26.894-.26zm-298.379.003c.293.166.287.333.279.75-.004.25-.504.25-.754.25s-.279-.483-.347-.715c.13-.25.327-.267.822-.285z" fill="#2e0050"/><path d="m44.43 157.89c-13.713.128-27.097.12-40.949.114-.467.002-.935-.003-1.169-.004 2.466-6.659 5.015-13.381 7.89-19.962 12.928-29.582 25.675-59.248 39.116-88.596 3.493-7.625 9.115-14.31 14.015-21.245 6.21-8.79 26.736-9.257 33.305-4.769 4.674 3.194 9.108 7.395 12.196 12.1 4.711 7.176 8.47 15.037 12.085 22.86 5.69 12.311 10.925 24.831 16.349 37.264 4.379 10.039 8.714 20.096 13.137 30.115 4.491 10.175 9.065 20.314 13.617 30.843-1.922.712-3.856 1.328-5.795 1.343-11.994.094-23.99.053-36.43.07-2.71-5.043-4.976-10.098-7.689-15.785-2.222-.833-3.996-1.2-5.77-1.207a4122.67 4122.67 0 0 0 -35.159-.006c-2.316.01-4.429.034-4.21-3.18 3.92-9.159 7.79-18.339 11.838-27.44.39-.876 1.848-1.703 2.88-1.798 5.014-.461 10.052-.665 15.53-.986l-15.953-36.343c-2.748 5.66-5.568 11.111-8.073 16.705-4.293 9.588-8.398 19.26-12.563 28.906-2.513 5.818-4.95 11.67-7.493 17.474-3.422 7.813-6.913 15.595-10.704 23.527zm679.89 1.109c-.431-.001-.647 0-1.184.025-8.61-10.843-16.937-21.68-25.175-32.585-8.954-11.852-17.826-23.766-27.048-36.073 17.067-22.696 34.171-45.437 51.587-68.307 12.37-.104 24.428-.127 36.484-.005 1.64.017 3.272.76 5.004 1.57-15.72 21.396-31.452 42.451-47.42 63.325-3.775 4.934.747 7.126 2.702 9.901 5.35 7.597 11.14 14.885 16.732 22.313 5.457 7.249 10.931 14.486 16.31 21.792 3.67 4.984 7.188 10.079 10.766 15.5-1.706.766-3.397 1.46-5.102 1.497-10.803.233-21.61.32-32.713.755-.297.299-.729.293-.945.292z" fill="#451063"/><path d="m469.075 38.1c-.66-.763-1.95-1.54-1.956-2.325-.08-10.462.012-20.925.11-31.387.003-.415.485-.825 1.158-1.453 7.967 5.338 15.52 10.892 23.733 16.932-7.06 5.657-14.169 11.351-21.87 17.22-.797.472-1.002.771-1.207 1.07 0 0-.001-.075.032-.057z" fill="#ed1d25"/><path d="m550.432 79.889c1.292-.678 2.959-1.799 4.636-1.814 14.989-.138 29.98-.081 44.97-.082h5.927c0-8.074 0-15.52.182-23.52.445-.717.655-.932.812-1.2v26.127c-4.655 0-9.563-.047-14.47.01-13.892.16-27.784.363-42.057.479z" fill="#1c0241"/><path d="m333.553 54.051c-.67.018-.88.006-1.407-.012 1.028-.35 2.371-.993 3.715-.995 27.067-.06 54.135-.047 81.668.018-1.266.358-2.996.899-4.728.903-26.263.06-52.526.05-79.248.086z" fill="#01012a"/><path d="m606.511 53.135c.291.406.081.62-.392.877-18.317.06-36.425.032-54.533-.02-1.65-.005-3.3-.164-5.246-.54 19.71-.345 39.717-.4 60.171-.317z" fill="#02012a"/><path d="m607.266 133.71c-.306.33-.517.332-1.046.353-17.38-.007-34.444-.011-51.506-.089-1.745-.008-3.488-.46-5.368-1.032 14.96-.199 30.056-.092 45.15.068 4.29.045 8.576.245 12.77.7z" fill="#03022c"/><path d="m629.114 22.066s-.488-.031-.732-.042c.022-.33.29-.931.553-.93 11.157.059 22.314.171 33.366.6-.32.336-.535.348-1.53.349-11.073 0-21.365.011-31.657.023z" fill="#030218"/><path d="m455.98 157.643c-1.603.615-3.278 1.28-4.962 1.305-7.7.116-15.404.052-23.58.055 2.58-.332 5.626-.83 8.688-.967 6.116-.274 12.24-.35 18.64-.828.567-.15.853.02 1.214.435z" fill="#2e0050"/><path d="m467.063 54.101s-.03-.48-.042-.72c8.007-.282 16.025-.326 24.506-.304.463.065.441.545-.036.747-8.46.227-16.444.252-24.428.277z" fill="#00002a"/><path d="m469.3 38.05c-.052-.192.153-.49.613-.901.052.19-.152.492-.613.901z" fill="#e50202"/><path d="m413.86 79.448c-14.303.23-28.7.076-43.097-.074-3.65-.038-7.302-.06-11.436-.089.689-.43 1.857-1.228 3.03-1.234 16.108-.082 32.217-.074 48.326-.008 1.03.004 2.057.665 3.178 1.405z" fill="#1c0141"/><path d="m371.821 107.044c1.322-.346 2.643-.987 3.967-.994 12.739-.072 25.478-.038 38.677.02-1.267.35-2.991.886-4.72.898-11.909.084-23.819.057-36.508.074-.992.006-1.204.004-1.416.002z" fill="#030219"/><path d="m401.721 132.758c-9.892.186-20.012.016-29.698-.482.648-.343.86-.358 1.073-.373 9.465.167 18.93.333 28.625.855z" fill="#040219"/><path d="m373.06 131.445c-.177.473-.39.488-.921.506-.372-7.993-.425-15.988-.398-24.445.292-.46.504-.458 1.034-.433.295 7.986.273 15.95.286 24.372z" fill="#18003e"/><path d="m605.472 157.966c.47.163.477.345.481.803-18.008.262-36.012.25-54.484.241-.631-.029-.841-.01-.945-.106-.183-.169-.302-.408-.447-.618 1.27-.095 2.54-.272 3.809-.273 17.041-.023 34.082-.022 51.586-.047z" fill="#2f0051"/><path d="m68.612 138.023c.137 3.036 2.25 3.012 4.566 3.002 11.72-.047 23.44-.046 35.158.006 1.775.008 3.549.374 5.6.928-15.228.353-30.735.353-46.71.353.382-1.52.706-2.815 1.386-4.289z" fill="#17003c"/><path d="m629.072 22.527c10.334-.473 20.626-.485 31.376-.462.483 45.006.506 89.978.046 135.435-10.788.474-21.092.463-31.396.452-.023-44.988-.045-89.976-.026-135.425z" fill="#461064"/><path d="m629.075 158.221c10.327-.258 20.63-.247 31.396-.256.47.162.477.345.482.803-10.325.263-20.645.252-31.428.252-.465-.168-.469-.349-.45-.799z" fill="#2f0051"/><path d="m467.04 54.56c8.007-.484 15.99-.509 24.436-.496.47 34.345.479 68.653-.01 103.442-8.448.47-16.397.459-24.346.447-.035-34.31-.07-68.622-.08-103.392z" fill="#461064"/><path d="m467.095 158.224c7.974-.26 15.923-.248 24.329-.254.473.164.49.345.493.798-7.977.262-15.94.252-24.361.257-.468-.167-.477-.348-.46-.8z" fill="#2f0051"/></svg>