<svg height="1353" viewBox="0 0 170 92" width="2500" xmlns="http://www.w3.org/2000/svg"><path d="m0 0h170v92h-170z" fill="none"/><path d="m49.384 21.446h10.928l7.08 24.934c.308.77.923.616 1.077 0l4.62-24.934h4.771l-5.695 32.168h-11.084l-6.926-24.626c-.154-.616-.923-.77-1.077 0l-4.31 24.626h-5.079zm-20.009 0h10.62l2.155 32.168h-8l-.154-3.54a1.379 1.379 0 0 0 -1.385-1.385h-12.316l2.617-4.617h8.465c.923 0 2 .154 2-1.232l-.923-14.468c0-.923-.77-1.385-1.385-.462l-14.93 25.549h-5.387zm60.95 0h10.777l2.463 32.168h-8l-.154-3.54a1.257 1.257 0 0 0 -1.231-1.385h-11.397l2.617-4.617h7.388c.923 0 2 .154 2-1.232l-1.231-14.468c0-.923-.769-1.385-1.385-.462l-13.082 25.549h-5.388z" fill="#00146e" fill-rule="evenodd"/><path d="m136.191 53.614 21.086-36.939h-29.859l-21.086 36.939z" fill="#00aff0" fill-rule="evenodd"/><g fill="#00146e"><path d="m130.342 53.614 21.09-36.939h-24.01l-21.09 36.939z" fill-rule="evenodd"/><path d="m12.928 65.567v11.39h-2v-11.39zm2.309 5.694v-2.463h1.847l.154 1.231a2.916 2.916 0 0 1 2.617-1.385c1.385 0 2.924.924 2.924 3.54v4.925h-2v-4.617c0-1.231-.462-2-1.539-2a2.043 2.043 0 0 0 -1.693 1.231c0 .154-.154.462-.154.616v4.771h-2v-5.849zm9.389 3.848a4.449 4.449 0 0 0 2.155.616c.924 0 1.385-.462 1.385-.924 0-.616-.308-.77-1.385-1.231-1.539-.616-2.309-1.385-2.309-2.463a2.823 2.823 0 0 1 3.078-2.617 4.076 4.076 0 0 1 2.155.462l-.462 1.385a4.463 4.463 0 0 0 -1.693-.462c-.77 0-1.077.308-1.077.924 0 .462.462.77 1.385 1.077 1.539.462 2.155 1.231 2.155 2.463 0 1.539-1.231 2.617-3.386 2.617a5.8 5.8 0 0 1 -2.463-.616zm6.926-3.694v-2.77h1.847l.154 1.231a3.108 3.108 0 0 1 2.77-1.385c1.847 0 3.386 1.693 3.386 4.156 0 2.924-1.847 4.464-3.694 4.464a2.779 2.779 0 0 1 -2.309-1.077v4.31h-2.154zm2 2.155v.616a1.848 1.848 0 0 0 1.847 1.385c1.385 0 2.155-1.077 2.155-2.77 0-1.385-.77-2.617-2-2.617a1.828 1.828 0 0 0 -1.847 1.539v1.847zm9.852-7.08a1.1 1.1 0 0 1 -1.231 1.077 1.052 1.052 0 0 1 -1.077-1.077 1.1 1.1 0 0 1 1.231-1.077c.615-.155 1.077.461 1.077 1.077zm-2.155 10.466v-8.157h2v8.157zm4.155-5.541v-2.617h1.847l.154 1.539a2.6 2.6 0 0 1 2.309-1.693h.462v2h-.616a1.828 1.828 0 0 0 -1.847 1.539v4.925h-2.309zm12.005 3.54a7.524 7.524 0 0 0 .154 2h-1.847l-.154-.924a3.1 3.1 0 0 1 -2.463 1.077 2.468 2.468 0 0 1 -2.617-2.463c0-2 1.847-3.078 4.925-3.078v-.154c0-.616-.154-1.385-1.693-1.385a4.45 4.45 0 0 0 -2.155.616l-.462-1.385a6.686 6.686 0 0 1 2.924-.77c2.617 0 3.386 1.693 3.386 3.54zm-2-2c-1.539 0-2.924.308-2.924 1.539a1.133 1.133 0 0 0 1.231 1.231 2.22 2.22 0 0 0 1.693-1.077zm6.31-6.311v2.155h2v1.539h-2v3.694c0 1.077.308 1.539 1.077 1.539a1.153 1.153 0 0 0 .77-.154v1.539a4.289 4.289 0 0 1 -1.539.154 3.3 3.3 0 0 1 -1.847-.616 3.2 3.2 0 0 1 -.616-2.309v-3.848h-1.231v-1.539h1.231v-1.539zm5.541-.154a1.1 1.1 0 0 1 -1.231 1.077 1.052 1.052 0 0 1 -1.077-1.077 1.1 1.1 0 0 1 1.231-1.077c.615-.155 1.077.461 1.077 1.077zm-2.155 10.466v-8.157h2v8.157zm11.851-4.155a4.157 4.157 0 1 1 -8.311.154 4.038 4.038 0 0 1 4.31-4.31c2.462-.154 4.001 1.697 4.001 4.156zm-6.157 0c0 1.539.77 2.77 2 2.77s2-1.077 2-2.77c0-1.231-.616-2.77-2-2.77s-1.999 1.538-1.999 2.77zm7.697-1.54v-2.463h1.847l.154 1.231a2.916 2.916 0 0 1 2.617-1.385c1.385 0 2.924.924 2.924 3.54v4.925h-2.155v-4.617c0-1.231-.462-2-1.539-2a2.043 2.043 0 0 0 -1.693 1.231c0 .154-.154.462-.154.616v4.771h-2zm20.623 1.54a4.157 4.157 0 1 1 -8.311.154 4.038 4.038 0 0 1 4.31-4.31c2.462-.154 4.001 1.697 4.001 4.156zm-6.156 0c0 1.539.77 2.77 2 2.77s2-1.077 2-2.77c0-1.231-.616-2.77-2-2.77s-2 1.538-2 2.77zm8.003 4.155v-6.618h-1.077v-1.539h1.077v-.308a4.017 4.017 0 0 1 .923-2.77 2.881 2.881 0 0 1 2.155-.77c.616 0 .923.154 1.385.154l-.154 1.539a1.666 1.666 0 0 0 -.923-.154c-1.077 0-1.385.923-1.385 1.847v.462h1.847v1.539h-1.847v6.618zm10.621-11.389h2v7.388c0 3.078-1.539 4.156-3.694 4.156a5.531 5.531 0 0 1 -1.693-.308l.308-1.693a3 3 0 0 0 1.231.154c1.231 0 1.847-.616 1.847-2.463zm6.464 8.157-.924 3.232h-2.154l3.694-11.39h2.617l3.694 11.39h-2.305l-1.077-3.232zm3.232-1.539-.923-2.77c-.154-.616-.462-1.539-.616-2.155a15.8 15.8 0 0 1 -.616 2.155l-.924 2.77zm5.079-6.464a16.333 16.333 0 0 1 3.232-.308 5.23 5.23 0 0 1 3.386.923 3.348 3.348 0 0 1 1.077 2.463 3.62 3.62 0 0 1 -.923 2.617 5.194 5.194 0 0 1 -3.54 1.231 2.282 2.282 0 0 1 -1.077-.154v4.31h-2v-11.082zm2 5.233a2.282 2.282 0 0 0 1.077.154c1.539 0 2.463-.77 2.463-2.155 0-1.231-.923-1.847-2.309-1.847a2.646 2.646 0 0 0 -1.231.154zm8.312 2.77-.923 3.232h-2.155l3.694-11.39h2.617l3.694 11.39h-2.305l-1.077-3.232zm3.232-1.539-.923-2.77c-.154-.616-.462-1.539-.616-2.155a15.811 15.811 0 0 1 -.616 2.155l-.924 2.77zm4.926 4.772v-11.39h2.309l2.924 4.925c.77 1.231 1.385 2.617 2 3.848a46.316 46.316 0 0 1 -.154-4.771v-4h1.847v11.39h-2.155l-2.924-5.079a23 23 0 0 1 -2-3.848 46.318 46.318 0 0 1 .154 4.771v4h-2z"/></g></svg>