<svg height="1853" viewBox="-43.3 -49.8 874.5 630.3" width="2500" xmlns="http://www.w3.org/2000/svg"><g fill="#ebf2f8"><path d="m495.5 553.9s72.5-3.9 64.2-64.7c-8.2-60.8-142.4-44.1-139 13.9 3 54.7 74.8 50.8 74.8 50.8z"/><path d="m713.5 316.1s-43.7 80.3-98.7 102.5c-66.3 26.8-108.2-21.6-224.4 45.3s-246.3 116.6-340 5.1-70.6-291.8 27.3-355.9 176.9 4.8 263.2-31.9 103.9-119.4 222.5-125.2 267.8 164 150.1 360.1z"/></g><path d="m264.9 429.3h-234.9v-310.9h234.9zm-233.9-1h232.9v-309h-232.9z" fill="#01a1e5"/><path d="m40.5 128.8v290h213.9v-290z" fill="#01a1e5"/><path d="m101.1 71.2h92.8v101.8h-92.8z" fill="#163787"/><path d="m134.8 148.9c-4-1.1-7.1-2.6-9.5-4.5l4.2-9.3c2.3 1.7 5 3 8.2 4.1 3.2 1 6.3 1.5 9.5 1.5 3.5 0 6.1-.5 7.8-1.6 1.7-1 2.5-2.4 2.5-4.2 0-1.3-.5-2.3-1.5-3.2-1-.8-2.3-1.5-3.8-2-1.6-.5-3.7-1.1-6.3-1.7-4.1-1-7.4-1.9-10-2.9s-4.8-2.5-6.7-4.7c-1.9-2.1-2.8-5-2.8-8.6 0-3.1.8-5.9 2.5-8.5 1.7-2.5 4.2-4.5 7.6-6s7.5-2.2 12.4-2.2c3.4 0 6.8.4 10 1.2 3.3.8 6.1 2 8.6 3.5l-3.8 9.4c-5-2.8-9.9-4.2-14.9-4.2-3.5 0-6 .6-7.7 1.7s-2.5 2.6-2.5 4.4 1 3.2 2.9 4.1 4.8 1.8 8.8 2.6c4.1 1 7.4 1.9 10 2.9s4.8 2.5 6.7 4.6 2.8 4.9 2.8 8.5c0 3.1-.9 5.9-2.6 8.4s-4.3 4.5-7.7 6-7.6 2.2-12.5 2.2c-4.1.2-8.2-.4-12.2-1.5z" fill="#fff"/><path d="m123.6 248.6c-.9 0-3.4.9-7.3 8.2-4.8 9.4-11.9 37.7-11.9 37.7l21 8 2.7-5.9 4.6-45.5s-8.7-2.5-9.1-2.5z" fill="#fdfeff"/><path d="m128 346c.7-6.9 1.2-14.8.1-18.6-9.6-34-4.6-78.8-4.6-78.8 6.9-2.3 21.9-4.1 27.9-4.1 6.6 0 15.3.7 21.9 1.6 13.5 2.5 13.9 2.5 13.9 2.5s-.2 32.7-3 42c-1.9 6.6 1.2 37.9 3.2 55.4.3 2.8.6 5.3.8 7.2h-61.2c.4-2.1.7-4.6 1-7.2z" fill="#fdfeff"/><path d="m137.5 189.8c1.8-.7 3.4-1.4 5.3-2.1 1.8-.9 4.3-2.1 5.9-2.3 3.2-.5 8.9-.2 12.1 3.2 3.9 4.3 10.7.7 9.4 23.5-1.6 25.6-15.5 22.8-15.8 22.4-.2-.5-12.3-16.4-12.3-16.4s-4.1 9.4-4.1 9.1c-.2-.3-21.7-30-.5-37.4z" fill="#283471"/><path d="m148 236.2-1.1 9.1s-2.7 13.2.7 15.8c3.4 2.5 14.6-16.2 14.6-16.2l-1.1-23.3z" fill="#feb18d"/><path d="m161.5 229.4c-3 8-9.6 12.8-14.6 14.6l.9-7.8 13-14.4z" fill="#f47458"/><path d="m148.7 196.7c-7.3-1.1-13.9 4.8-13.7 12.3 0 3.2.2 7.3.9 11.6 1.6 10.5 8.7 19.9 13.2 19 4.6-.9 16.4-10.1 14.4-24.9-1.1-9.1-7-16.9-14.8-18z" fill="#feb18d"/><path d="m160.4 216.6c.5 2.3 2.3 3.9 4.1 3.7s3-2.5 2.7-4.8c-.5-2.3-2.3-3.9-4.1-3.7s-3 2.5-2.7 4.8z" fill="#feb18d"/><path d="m163.1 211.8s-5.7 1.4-7.8-2.3-9.6-11.6-19-8.5c-9.6 3.4 8.5-8 9.1-8h9.8s7.1 5.9 7.3 6.6 2.3 7.8 2.3 7.8z" fill="#283471"/><path d="m73.6 294.7h59.2c1.6 0 3 .9 3.7 2.5l18.3 45.5h32.4c.9 0 1.6.7 1.6 1.6s-.7 1.6-1.6 1.6h-92.6c-2.5 0-4.8-1.6-5.9-3.9l-18.3-41.8c-1.4-2.5.4-5.5 3.2-5.5z" fill="#b0cbec"/><path d="m105.3 321.2c.5 2.1 2.1 3.4 3.9 3 1.8-.5 2.7-2.3 2.5-4.3-.5-2.1-2.1-3.4-3.9-3-1.6.2-2.7 2.2-2.5 4.3z" fill="#fff"/><path d="m148 278.4c-.4-.8 0-1.9.9-2.1.6-.1 1.2.2 1.7.6 1.1.7 2.2 1.5 3.3 2.2.6.4 1.2.8 1.7 1.4.3.3.5.7.7 1.1.1.2.2.5 0 .8-.1.2-.3.2-.4.3-.8.3-1.8.2-2.6-.1s-1.6-.8-2.4-1.2c-1.2-.8-2.2-1.7-2.9-3z" fill="#f47458"/><path d="m136.5 261.2c.8 2.9 1.9 5.8 3 8.6.6 1.4 8.9 20.4 9.5 21.8l.9 2.1c.3.8 1 1.4 1.9 1.7 1 .3 2.1-.1 2.5-.9s.4-1.7 0-2.4l-1-2.1c-.6-1.4-9.1-20.3-9.7-21.7-1.4-2.7-2.2-5.7-3.9-8.3-.4-.6-1.8-.5-2.5-.2-.6.3-.8.9-.7 1.4z" fill="#283471"/><path d="m112 247c2.9 8.3 10.8 13.9 19.6 13.8 2.2 0 4.4-.4 6.5-1.1 10.7-3.7 16.4-15.4 12.7-26.1s-15.4-16.4-26.1-12.7c-10.7 3.6-16.4 15.3-12.7 26.1z" fill="#fff" opacity=".3"/><path d="m116 227 35 17c.1-.3.1-.6.2-.9.3-1.9.4-3.9.2-5.9l-30.2-14.7c-2 1.3-3.8 2.7-5.2 4.5zm-4.5 12 32.9 16c2.3-2 4.2-4.5 5.4-7.3l-35.9-17.5c-1.5 2.7-2.3 5.7-2.4 8.8z" fill="#fff" opacity=".4"/><path d="m123.9 217.9c-12 4.2-18.4 17.3-14.2 29.3s17.2 18.3 29.2 14.2 18.4-17.2 14.3-29.2-17.2-18.4-29.3-14.3zm14.1 40.8c-10.5 3.6-21.9-2-25.5-12.4s2-21.8 12.4-25.4c10.5-3.6 21.9 1.9 25.5 12.4 3.6 10.4-1.9 21.8-12.4 25.4z" fill="#283471"/><g fill="#feb18d"><path d="m188.2 329.8c-4-3-5.7-4.1-16.7-17.3-1.8-2.5-6-8.8-7.6-10.5-1.2-1.5-.7-2.5-2-3.8l-5.5-2.1c-.9-.4-2.2-1.6-3-2.5-1-1.3-1.4-3.9-3.5-4.5-.4-.1-.9-.2-1.3-.3h-.1c-.8-.2-1.7-.2-2.6-.2h-1.3c-.1-.2-.3-.4-.4-.6-.1-.1-.2-.2-.2-.4-.1-.2 0-.5.1-.7s-.3-.4-.5-.5c-.3-.1-.5-.2-.4-.4.5-.1-.5-.3 0-.4 0 0-.2-.1-.2-.2.7-.1-.3-.2.2-.3h.5c.4 0 .9 0 1.4-.1h1-5.2v-.5c0-.1 0-.3-.1-.4.2-.9.7-2 1.6-2.2h.5c.2 0 .5 0 .7-.1 1.7-.1 3.5-.3 4.8-.5l-3.4-.3s-2.2.1-4.2 0c-1.9-.1-3.8-.4-3.6-1 .3-1.5 5.6-1.7 7.2-2 1.3-.2 12.6 2.5 13 2.8 1.1.5 2.6 1.9 4.1 3.3s6.5 5.3 8 6.7c3.5 2.9 2.3 2.5 11.6 10.6-3.4-17.8 1-49.8 7-47.5 13.6 5.2 12.9 85.1.1 75.9z"/><path d="m149.1 281.5c-1.7.5-3.6-.1-5.3.5-.1 0-.2.1-.2.1-.1.1-.1.2-.1.3-.2.7 0 1.5 0 2.2v.6c0 .4 0 .8-.1 1.2 0 .4-.1.7-.1 1.1-.1.3-.1.6-.2.9-.2.5-.5 1-.9 1.2-.7.3-1.6-.1-1.8-.8-.2-.5 0-1.1.1-1.7.2-.7.2-1.4.2-2.2v-.5c0-.1 0-.3-.1-.4-.1-.7-.2-1.4-.1-2 0-.4.2-.7.3-1.1.2-.4.6-.7 1-.9.3-.1.5-.1.8-.1.6 0 1.2-.1 1.9-.1.9-.1 1.6.1 2.5.4.4.1.9.2 1.3.5z"/><path d="m148.5 288.7v1.1c0 .6 0 1.3-.3 1.8-.2.3-.6.6-1 .7s-.8-.1-1.1-.4c-.2-.3-.2-.6-.3-.9-.1-.4-.1-.8-.2-1.1-.2-.6-.4-1.3-.7-1.8-.1-.2-.2-.4-.4-.5-.1-.1-.2-.2-.2-.4-.1-.2 0-.4.1-.6.1-.4.2-.9.5-1.2s.6-.5 1.2-.2c.9.4 1.2 1.7 1.8 2.4l.3.3c.1.1.1.3.2.4.1 0 .1.2.1.4z"/><path d="m145.8 289.4c-.2.5-.5 1.1-1 1.3-.6.3-1.4-.1-1.6-.8-.1-.3 0-.6-.1-.8-.1-.7-.5-1.3-.9-1.9-.5-.8-.9-1.7-.9-2.6v-.4c0-.8.5-2.2 1.5-2.4h.1c.6 0 1.7.7 2.2 1s.8.9 1 1.4c0 .1.1.3.1.4s-1.5.1-1.5.1c.2.9 1.3 4.1 1.1 4.7z"/></g><path d="m199 304.5c1.1-22.8.9-50.7-11.4-55.5-4.8-1.8-9.9 2.7-8.5 49.3 6.5.5 12.8 7.6 19.9 6.2z" fill="#fdfeff"/><path d="m63.8 346h170.2v7.2h-170.2z" fill="#283471"/><path d="m285.4 266.8-18.8-7.9 2.7 6.4h-57.5v3h57.5l-2.7 6.4z" fill="#1a2e35"/><path d="m110.3 385.3c-1-.3-1.7-.6-2.3-1.1l1-2.3c.6.4 1.2.7 2 1 .8.2 1.5.4 2.3.4.9 0 1.5-.1 1.9-.4s.6-.6.6-1c0-.3-.1-.6-.4-.8-.2-.2-.6-.4-.9-.5-.4-.1-.9-.3-1.5-.4-1-.2-1.8-.5-2.4-.7s-1.2-.6-1.6-1.1c-.5-.5-.7-1.2-.7-2.1 0-.8.2-1.4.6-2.1s1-1.1 1.9-1.5c.8-.4 1.8-.5 3-.5.8 0 1.6.1 2.4.3s1.5.5 2.1.9l-.9 2.3c-1.2-.7-2.4-1-3.6-1-.8 0-1.5.1-1.9.4s-.6.6-.6 1.1.2.8.7 1 1.2.4 2.1.6c1 .2 1.8.5 2.4.7s1.2.6 1.6 1.1.7 1.2.7 2.1c0 .7-.2 1.4-.6 2s-1 1.1-1.9 1.5c-.8.4-1.8.5-3 .5-1.1 0-2.1-.2-3-.4zm20.7-2.3v2.4h-10.1v-13h9.9v2.4h-6.9v2.8h6.1v2.3h-6.1v3h7.1zm11-.3h-6.1l-1.2 2.8h-3.1l5.8-13h3l5.8 13h-3.2zm-1-2.3-2.1-5-2.1 5zm15 5.1-2.5-3.6h-2.7v3.6h-3v-13h5.6c1.2 0 2.2.2 3 .6.9.4 1.5.9 2 1.6s.7 1.5.7 2.5-.2 1.8-.7 2.5-1.1 1.2-2 1.6l2.9 4.2zm-.8-10c-.5-.4-1.2-.6-2.1-.6h-2.5v4.5h2.5c.9 0 1.6-.2 2.1-.6s.7-1 .7-1.7-.2-1.2-.7-1.6zm8.8 9.3c-1.1-.6-1.9-1.4-2.5-2.4s-.9-2.2-.9-3.5.3-2.5.9-3.5 1.5-1.8 2.5-2.4c1.1-.6 2.3-.9 3.6-.9 1.1 0 2.2.2 3.1.6s1.7 1 2.3 1.7l-1.9 1.8c-.9-1-2-1.5-3.3-1.5-.8 0-1.5.2-2.2.5-.6.4-1.1.8-1.5 1.5-.4.6-.5 1.4-.5 2.2s.2 1.5.5 2.2c.4.6.8 1.1 1.5 1.5.6.4 1.4.5 2.2.5 1.3 0 2.4-.5 3.3-1.5l1.9 1.8c-.6.8-1.4 1.3-2.3 1.7s-1.9.6-3.1.6c-1.3 0-2.5-.3-3.6-.9zm23-12.4v13h-3v-5.3h-6v5.3h-3v-13h3v5.1h5.9v-5.1z" fill="#fff"/><path d="m517.5 429.3h-235v-310.9h234.9v310.9zm-234-1h232.9v-309h-232.9z" fill="#01a1e5"/><path d="m293 128.8v290h214v-290z" fill="#01a1e5"/><path d="m353.6 71.2h92.8v101.8h-92.8z" fill="#163787"/><path d="m420.5 139.7v10h-41.5v-53.6h40.5v10h-28.2v11.6h24.9v9.7h-24.9v12.4h29.2z" fill="#fff"/><circle cx="403.2" cy="272.7" fill="#fdfeff" r="70.7"/><path d="m373.5 383v2.4h-10.1v-13h9.9v2.4h-6.9v2.8h6.1v2.3h-6.1v3h7.1zm14.4-10.6v13h-2.5l-6.5-7.9v7.9h-3v-13h2.5l6.5 7.9v-7.9zm11.9 6.3h2.8v5.3c-.7.5-1.5.9-2.5 1.2-.9.3-1.9.4-2.8.4-1.4 0-2.6-.3-3.7-.9s-1.9-1.4-2.5-2.4-.9-2.2-.9-3.5.3-2.5.9-3.5 1.5-1.8 2.6-2.4 2.3-.9 3.7-.9c1.1 0 2.2.2 3.1.6s1.7.9 2.3 1.7l-1.9 1.8c-.9-1-2.1-1.5-3.4-1.5-.8 0-1.6.2-2.2.5s-1.1.8-1.5 1.5c-.4.6-.5 1.4-.5 2.2s.2 1.5.5 2.2c.4.6.9 1.1 1.5 1.5s1.4.5 2.2.5c.9 0 1.7-.2 2.3-.6zm5.5-6.3h3v13h-3zm18.1 0v13h-2.5l-6.5-7.9v7.9h-3v-13h2.5l6.5 7.9v-7.9zm13.2 10.6v2.4h-10.1v-13h9.9v2.4h-6.9v2.8h6.1v2.3h-6.1v3h7.1z" fill="#fff"/><path d="m459.8 272.7c0 16.6-7.1 31.5-18.5 41.8-10.1 9.2-23.4 14.8-38.1 14.8-20.5 0-38.4-10.8-48.3-27.1-.7-1.1-1.4-2.3-2-3.5-4-7.8-6.3-16.6-6.3-26 0-9.7 2.4-18.8 6.7-26.7 1.5-2.8 3.2-5.4 5.1-7.8 10.3-13.4 26.6-22 44.8-22 14.7 0 28.2 5.6 38.2 14.9l-15.7 15.1c-6.1-5.2-14-8.3-22.5-8.3-12.4 0-23.3 6.5-29.5 16.3-1 1.6-1.9 3.3-2.6 5-1.8 4.2-2.7 8.7-2.7 13.5 0 4.4.8 8.5 2.3 12.4.6 1.5 1.2 2.9 2 4.3 5.9 10.8 17.4 18.2 30.6 18.2 7.9 0 15.2-2.6 21.1-7.1 6-4.5 10.4-11 12.5-18.4h-32.6v-20.5h54.5c.1.3.1.7.2 1.1.4 3.2.8 6.5.8 10z" fill="#4285f4"/><path d="m441.4 230.9-15.7 15.1c-6.1-5.2-14-8.3-22.5-8.3-12.4 0-23.3 6.5-29.5 16.3-1 1.6-1.9 3.3-2.6 5-4.9-3.6-12.9-9.6-17.8-13.2 1.5-2.8 3.2-5.4 5.1-7.8 10.3-13.4 26.6-22 44.8-22 14.7.1 28.1 5.7 38.2 14.9z" fill="#eb4335"/><path d="m441.3 314.5c-10.1 9.2-23.4 14.8-38.1 14.8-20.5 0-38.4-10.8-48.3-27.1-.7-1.1-1.4-2.3-2-3.5l17.7-13.6c.6 1.5 1.2 2.9 2 4.3 5.9 10.8 17.4 18.2 30.6 18.2 7.9 0 15.2-2.6 21.1-7.1z" fill="#34a853"/><path d="m370.6 285.1c.6 1.5 1.2 2.9 2 4.3l-16.5 13.3-1.2-.5c-.7-1.1-1.4-2.3-2-3.5-4-7.8-6.3-16.6-6.3-26 0-9.7 2.4-18.8 6.7-26.7 1.5-2.8 3.2-5.4 5.1-7.8l15.3 16c-1 1.6-1.9 3.3-2.6 5-1.8 4.2-2.7 8.7-2.7 13.5-.1 4.3.7 8.5 2.2 12.4z" fill="#fbbc05"/><path d="m543 266.8-18.7-7.9 2.7 6.4h-57.5v3h57.5l-2.7 6.4z" fill="#1a2e35"/><path d="m770 429.3h-234.9v-310.9h234.9zm-233.9-1h232.9v-309h-232.9z" fill="#01a1e5"/><path d="m545.6 128.8v290h213.9v-290z" fill="#01a1e5"/><path d="m606.1 71.2h92.8v101.8h-92.8z" fill="#163787"/><path d="m639.5 147c-4.5-2.4-8-5.7-10.5-9.9s-3.8-8.9-3.8-14.2 1.3-10 3.8-14.2 6-7.5 10.5-9.9 9.5-3.6 15.1-3.6 10.6 1.2 15 3.6 7.9 5.7 10.5 9.9 3.8 9 3.8 14.2c0 5.3-1.3 10-3.8 14.2-2.6 4.2-6.1 7.5-10.5 9.9s-9.4 3.6-15 3.6c-5.7 0-10.7-1.2-15.1-3.6zm23.6-9.1c2.6-1.5 4.6-3.5 6-6.1 1.5-2.6 2.2-5.6 2.2-8.9s-.7-6.3-2.2-8.9-3.5-4.6-6-6.1c-2.6-1.5-5.4-2.2-8.6-2.2s-6 .7-8.6 2.2-4.6 3.5-6 6.1-2.2 5.6-2.2 8.9.7 6.3 2.2 8.9 3.5 4.6 6 6.1 5.4 2.2 8.6 2.2c3.2-.1 6-.8 8.6-2.2zm76.1 83.1v104.4c0 2-1.4 3.6-3.2 3.6h-167c-1.8 0-3.2-1.6-3.2-3.6v-104.4c0-2 1.4-3.6 3.2-3.6h167c1.8 0 3.2 1.6 3.2 3.6z" fill="#fff"/><path d="m739.2 235.2v14.6h-173.4v-14.6c0-1.8 1.4-3.3 3.2-3.3h167c1.8 0 3.2 1.5 3.2 3.3z" fill="#3e5fa5" opacity=".2"/><path d="m739.2 220.5v14.2h-173.4v-14.2c0-1.8 1.4-3.2 3.2-3.2h167c1.8.1 3.2 1.5 3.2 3.2z" fill="#163787"/><path d="m589.5 225.8c0-1.5 1.2-2.7 2.7-2.7h137.4c1.5 0 2.7 1.2 2.7 2.7s-1.2 2.7-2.7 2.7h-137.4c-1.5.1-2.7-1.1-2.7-2.7z" fill="#e5f1f6"/><circle cx="572.9" cy="225.7" fill="#e5f1f6" r="1.8"/><circle cx="578" cy="225.7" fill="#e5f1f6" r="1.8"/><circle cx="583.1" cy="225.7" fill="#e5f1f6" r="1.8"/><path d="m588.7 242.2c0 1.3-.6 2.6-1.5 3.4-.8.7-1.9 1.2-3.1 1.2-1.7 0-3.1-.9-3.9-2.2-.1-.1-.1-.2-.2-.3-.3-.6-.5-1.3-.5-2.1s.2-1.5.5-2.2c.1-.2.3-.4.4-.6.8-1.1 2.2-1.8 3.6-1.8 1.2 0 2.3.5 3.1 1.2l-1.3 1.2c-.5-.4-1.1-.7-1.8-.7-1 0-1.9.5-2.4 1.3-.1.1-.2.3-.2.4-.1.3-.2.7-.2 1.1s.1.7.2 1c0 .1.1.2.2.3.5.9 1.4 1.5 2.5 1.5.6 0 1.2-.2 1.7-.6s.8-.9 1-1.5h-2.6v-1.7h4.4v.1c0 .4.1.7.1 1z" fill="#4285f4"/><path d="m587.2 238.8-1.3 1.2c-.5-.4-1.1-.7-1.8-.7-1 0-1.9.5-2.4 1.3-.1.1-.2.3-.2.4-.4-.3-1-.8-1.4-1.1.1-.2.3-.4.4-.6.8-1.1 2.2-1.8 3.6-1.8 1.2.1 2.2.5 3.1 1.3z" fill="#eb4335"/><path d="m587.2 245.6c-.8.7-1.9 1.2-3.1 1.2-1.7 0-3.1-.9-3.9-2.2-.1-.1-.1-.2-.2-.3l1.4-1.1c0 .1.1.2.2.3.5.9 1.4 1.5 2.5 1.5.6 0 1.2-.2 1.7-.6z" fill="#34a853"/><path d="m581.4 243.2c0 .1.1.2.2.3l-1.3 1.1h-.1c-.1-.1-.1-.2-.2-.3-.3-.6-.5-1.3-.5-2.1s.2-1.5.5-2.2c.1-.2.3-.4.4-.6l1.2 1.3c-.1.1-.2.3-.2.4-.1.3-.2.7-.2 1.1 0 .3.1.7.2 1z" fill="#fbbc05"/><path d="m580.2 255.7h32.7c.4 0 .7.4.7.9v24.4c0 .5-.3.9-.7.9h-32.7c-.4 0-.7-.4-.7-.9v-24.4c0-.5.3-.9.7-.9z" fill="#ef5b73"/><circle cx="593" cy="266.9" fill="#eda127" r="7.5"/><circle cx="599.3" cy="270.8" fill="#eda127" r="7.5"/><path d="m618.9 256.6h85.7c1.1 0 1.9.9 1.9 1.9 0 1.1-.9 1.9-1.9 1.9h-85.7c-1.1 0-1.9-.9-1.9-1.9s.9-1.9 1.9-1.9zm61.4 8.2h26c.2 0 .3.3.3.7s-.1.7-.3.7h-26c-.2 0-.3-.3-.3-.7s.1-.7.3-.7zm-30.5 0h26c.2 0 .3.3.3.7s-.1.7-.3.7h-26c-.2 0-.3-.3-.3-.7s.1-.7.3-.7z" fill="#3e5fa5"/><path d="m618 271.4h87.6c.5 0 1 .4 1 .8 0 .5-.4.8-1 .8h-87.6c-.5 0-1-.4-1-.8s.5-.8 1-.8zm-.2 4.5h70.3c.4 0 .8.4.8.8 0 .5-.3.8-.8.8h-70.3c-.4 0-.8-.4-.8-.8s.4-.8.8-.8zm-.1 4.3h62.7c.4 0 .7.4.7.8 0 .5-.3.8-.7.8h-62.7c-.4 0-.7-.4-.7-.8s.3-.8.7-.8z" fill="#3e5fa5" opacity=".3"/><path d="m619.5 263 .8 1.6 1.7.3-1.2 1.2.3 1.8-1.6-.9-1.6.9.3-1.8-1.3-1.2 1.8-.3zm6.1 0 .8 1.6 1.8.3-1.3 1.2.3 1.8-1.6-.9-1.6.9.3-1.8-1.2-1.2 1.7-.3zm6.1 0 .8 1.6 1.8.3-1.3 1.2.3 1.8-1.6-.9-1.5.9.3-1.8-1.3-1.2 1.8-.3zm6.2 0 .8 1.6 1.7.3-1.2 1.2.3 1.8-1.6-.9-1.6.9.3-1.8-1.3-1.2 1.8-.3zm6.1 0 .8 1.6 1.8.3-1.3 1.2.3 1.8-1.6-.9-1.6.9.3-1.8-1.2-1.2 1.7-.3zm-63.8 29.7h32.7c.4 0 .7.4.7.9v24.4c0 .5-.3.9-.7.9h-32.7c-.4 0-.7-.4-.7-.9v-24.4c0-.5.3-.9.7-.9z" fill="#eda127"/><circle cx="593" cy="303.9" fill="#07a0e4" r="7.5"/><circle cx="599.3" cy="307.8" fill="#07a0e4" r="7.5"/><path d="m618.9 293.6h85.7c1.1 0 1.9.9 1.9 1.9 0 1.1-.9 1.9-1.9 1.9h-85.7c-1.1 0-1.9-.9-1.9-1.9 0-1.1.9-1.9 1.9-1.9zm61.4 8.2h26c.2 0 .3.3.3.7s-.1.7-.3.7h-26c-.2 0-.3-.3-.3-.7s.1-.7.3-.7zm-30.5 0h26c.2 0 .3.3.3.7s-.1.7-.3.7h-26c-.2 0-.3-.3-.3-.7s.1-.7.3-.7z" fill="#3e5fa5"/><path d="m618 308.4h87.6c.5 0 1 .4 1 .8 0 .5-.4.8-1 .8h-87.6c-.5 0-1-.4-1-.8s.5-.8 1-.8zm-.2 4.4h70.3c.4 0 .8.4.8.8 0 .5-.3.8-.8.8h-70.3c-.4 0-.8-.4-.8-.8s.4-.8.8-.8zm-.1 4.4h62.7c.4 0 .7.4.7.8 0 .5-.3.8-.7.8h-62.7c-.4 0-.7-.4-.7-.8s.3-.8.7-.8z" fill="#3e5fa5" opacity=".3"/><path d="m619.5 300 .8 1.6 1.7.2-1.2 1.3.3 1.7-1.6-.8-1.6.8.3-1.7-1.3-1.3 1.8-.2zm6.1 0 .8 1.6 1.8.2-1.3 1.3.3 1.7-1.6-.8-1.6.8.3-1.7-1.2-1.3 1.7-.2zm6.1 0 .8 1.6 1.8.2-1.3 1.3.3 1.7-1.6-.8-1.5.8.3-1.7-1.3-1.3 1.8-.2zm6.2 0 .8 1.6 1.7.2-1.2 1.3.3 1.7-1.6-.8-1.6.8.3-1.7-1.3-1.3 1.8-.2zm6.1 0 .8 1.6 1.8.2-1.3 1.3.3 1.7-1.6-.8-1.6.8.3-1.7-1.2-1.3 1.7-.2z" fill="#eda127"/><path d="m593.8 240h102.9v4.5h-102.9z" fill="#fff"/><path d="m634.6 305c2.8 3.1 6 6 9.1 8.8 1.6 1.4 23.9 19.9 25.6 21.2l2.5 2c.9.8 2.2 1.2 3.4.9 1.4-.2 2.5-1.4 2.5-2.8 0-1.2-.5-2.3-1.5-3l-2.5-2c-1.7-1.3-24.2-19.7-25.9-20.9-3.5-2.5-6.4-5.7-10.1-7.8-.8-.5-2.6.5-3.2 1.4-.5.7-.5 1.6.1 2.2z" fill="#283471"/><path d="m595 302.7c8.9 8.6 22.2 10.6 33.2 4.9 2.8-1.4 5.3-3.3 7.4-5.5 11.1-11.4 10.8-29.6-.6-40.7s-29.6-10.8-40.7.6c-11 11.4-10.7 29.6.7 40.7z" fill="#fff" opacity=".2"/><path d="m587.3 275.2 54.4-.8-.3-1.2c-.8-2.6-2-5.1-3.5-7.4l-47 .7c-1.6 2.6-2.9 5.6-3.6 8.7zm2 17.8 51.2-.8c1.7-3.9 2.4-8.2 2.2-12.5l-55.9.8c-.2 4.3.7 8.6 2.5 12.5z" fill="#fff" opacity=".2"/><path d="m591.5 258.9c-12.4 12.8-12.1 33.2.7 45.6s33.1 12.1 45.5-.7c12.4-12.7 12.2-33.1-.6-45.6-12.7-12.4-33.1-12.1-45.6.7 0-.1 0 0 0 0zm43.3 42c-10.8 11.1-28.6 11.4-39.7.5-11.1-10.8-11.3-28.5-.5-39.6s28.6-11.4 39.7-.6c11.1 10.9 11.3 28.6.5 39.7z" fill="#283471"/><path d="m584.7 384.8c-1.1-.6-1.9-1.4-2.6-2.4-.6-1-.9-2.2-.9-3.5s.3-2.4.9-3.5c.6-1 1.5-1.8 2.6-2.4s2.3-.9 3.7-.9 2.6.3 3.7.9 1.9 1.4 2.6 2.4c.6 1 .9 2.2.9 3.5s-.3 2.4-.9 3.5c-.6 1-1.5 1.8-2.6 2.4s-2.3.9-3.7.9-2.6-.3-3.7-.9zm5.7-2.2c.6-.4 1.1-.8 1.5-1.5.4-.6.5-1.4.5-2.2s-.2-1.5-.5-2.2c-.4-.6-.8-1.1-1.5-1.5-.6-.4-1.3-.5-2.1-.5s-1.5.2-2.1.5c-.6.4-1.1.8-1.5 1.5-.4.6-.5 1.4-.5 2.2s.2 1.5.5 2.2c.4.6.8 1.1 1.5 1.5.6.4 1.3.5 2.1.5s1.5-.2 2.1-.5zm16-9.6c.9.4 1.5.9 2 1.6s.7 1.5.7 2.5-.2 1.8-.7 2.5-1.1 1.3-2 1.6c-.9.4-1.9.6-3 .6h-2.6v3.6h-3v-13h5.6c1.2 0 2.2.2 3 .6zm-1.1 5.8c.5-.4.7-.9.7-1.7 0-.7-.2-1.3-.7-1.7s-1.2-.6-2.1-.6h-2.5v4.5h2.5c.9.1 1.6-.1 2.1-.5zm8.3-3.9h-4.2v-2.5h11.4v2.5h-4.2v10.6h-3zm8.8-2.5h3v13h-3zm18 13.1v-7.8l-3.8 6.4h-1.4l-3.8-6.3v7.7h-2.8v-13h2.5l4.9 8.1 4.8-8.1h2.5v13zm5.9-13.1h3v13h-3zm16.7 10.6v2.5h-11.4v-2l7.2-8.6h-7v-2.5h11v2l-7.1 8.6zm10.5-.3h-6.1l-1.2 2.8h-3.1l5.8-13h3l5.8 13h-3.2zm-.9-2.3-2.1-5-2.1 5zm8.6-5.5h-4.2v-2.5h11.4v2.5h-4.2v10.6h-3zm8.9-2.5h3v13h-3zm8.7 12.4c-1.1-.6-1.9-1.4-2.6-2.4-.6-1-.9-2.2-.9-3.5s.3-2.4.9-3.5c.6-1 1.5-1.8 2.6-2.4s2.3-.9 3.7-.9 2.6.3 3.7.9 1.9 1.4 2.6 2.4c.6 1 .9 2.2.9 3.5s-.3 2.4-.9 3.5c-.6 1-1.5 1.8-2.6 2.4s-2.3.9-3.7.9-2.6-.3-3.7-.9zm5.8-2.2c.6-.4 1.1-.8 1.5-1.5.4-.6.5-1.4.5-2.2s-.2-1.5-.5-2.2c-.4-.6-.8-1.1-1.5-1.5-.6-.4-1.3-.5-2.1-.5s-1.5.2-2.1.5c-.6.4-1.1.8-1.5 1.5-.4.6-.5 1.4-.5 2.2s.2 1.5.5 2.2c.4.6.8 1.1 1.5 1.5.6.4 1.3.5 2.1.5s1.5-.2 2.1-.5zm19.3-10.2v13h-2.5l-6.5-7.9v7.9h-3v-13h2.5l6.5 7.9v-7.9z" fill="#fff"/></svg>