<svg height="494" viewBox="0 0 202.282 40" width="2500" xmlns="http://www.w3.org/2000/svg"><g fill="#aadb1e"><path d="m10.577 13.771c2.862 0 5.227.953 6.969 2.654v-2.032h7.341v21.28h-7.259v-2.407h-.083c-1.576 1.743-4.066 3.028-6.969 3.028-6.222.001-10.576-5.019-10.576-11.24 0-6.222 4.354-11.283 10.577-11.283zm2.199 16.261c2.862 0 4.936-2.074 4.936-4.978 0-2.945-2.199-5.02-4.936-5.02-2.78 0-4.978 2.074-4.978 5.02 0 2.904 1.991 4.978 4.978 4.978zm15.05-15.638h7.342v2.239h.083c1.658-1.659 3.775-2.861 6.098-2.861 3.899 0 9.332 1.949 9.332 7.881v14.021h-7.342v-12.03c0-2.116-1.451-4.148-3.816-4.148-2.198 0-4.355 2.033-4.355 4.148v12.03h-7.342zm60.4 21.28-11.407-21.28h8.461l5.186 11.49 5.102-11.49h5.06l5.104 11.49 5.186-11.49h8.461l-11.406 21.28h-4.979l-4.894-10.993-4.895 10.993zm64.351-9.624c0 3.277 2.736 4.397 4.603 4.397 2.365 0 3.403-.458 5.187-2.365l5.309 2.654c-2.404 4.024-6.306 5.559-11.032 5.559-6.432 0-11.699-5.061-11.699-11.241 0-6.223 5.268-11.283 11.699-11.283 6.469 0 11.407 3.815 11.407 11.283 0 .29 0 .747-.043.996zm8.294-4.066c-.332-2.24-1.866-3.443-4.021-3.443-2.534 0-3.941 1.493-4.067 3.443zm16.226 4.066c0 3.277 2.736 4.397 4.603 4.397 2.364 0 3.4-.458 5.184-2.365l5.312 2.654c-2.406 4.024-6.306 5.559-11.033 5.559-6.43 0-11.698-5.061-11.698-11.241 0-6.223 5.269-11.283 11.698-11.283 6.471 0 11.406 3.815 11.406 11.283 0 .29 0 .747-.041.996zm8.295-4.066c-.332-2.24-1.867-3.443-4.022-3.443-2.533 0-3.94 1.493-4.065 3.443zm9.547-21.984h7.343v35.674h-7.343z"/><path d="m56.661 40h8.467l13.349-25.606h-8.461l-5.061 10.909-5.932-10.909h-8.461l10.079 17.961zm76.909-26.229c-2.321 0-4.439 1.202-6.098 2.861h-.081v-12.188h-7.344v31.229h7.344v-12.03c0-2.116 2.155-4.148 4.355-4.148 2.362 0 3.815 2.033 3.815 4.148v12.03h7.341v-14.021c.001-5.932-5.433-7.881-9.332-7.881z"/></g></svg>