<svg height="2500" viewBox="0 0 2000 2000" width="2500" xmlns="http://www.w3.org/2000/svg"><path d="m0 0h2000v2000h-2000z" fill="#5794c7"/><path d="m361 270h97l3 3 10 23 13 33 13 32 12 30 30 74 14 35 13 32 17 42 12 30 21 52 26 64 11 28-1 4h-115l-5-8-20-54-11-31v-3h-184l-3 10-19 52-12 32-2 2h-116l-1-4 8-19 17-42 12-30 22-54 32-80 14-34 34-85 14-34 28-70 11-26 2-3zm495 174h35l22 4 18 6 16 8 11 7 11 9 10 9 11 13 7 10 9 16 6 14 6 20 3 16 1 9v35l-4 24-5 17-6 15-7 13-8 12-11 13-5 6h-2v2h-2v2l-11 9-15 10-19 9-17 5-25 4h-26l-23-4-19-6-19-9-13-9-8-7-1 24v153l-1 1h-103l-1-1v-430l1-20 18-1h66l18 1v32l11-9 9-8 16-10 16-7 13-4zm-393 629 22 1 28 4 29 7 26 9 16 7 19 11 8 6-1 6-10 21-10 19-10 20-10 19-2 3-4-1-16-9-19-8-22-8-23-5-18-1-16 2-14 5-9 6-3 1v2h-2l-2 4-5 11-1 4v12l4 10 9 10 15 10 22 12 28 13 25 11 22 11 18 11 12 9 11 9 10 9 13 14 9 14 7 14 5 16 2 13v26l-3 21-6 23-8 18-10 16-12 14-10 9-18 12-16 8-18 7-21 6-24 4-20 2h-34l-32-4-28-6-30-10-29-14-18-10-18-12-7-6 1-6 14-24 27-45 11-18 5 2 16 11 18 11 27 14 20 8 18 5 6 1h26l18-4 12-5 9-6 7-8 4-9 2-11-1-12-6-12-5-6-12-9-19-11-34-17-28-13-24-13-14-10-11-9-17-17-10-14-8-14-7-19-3-14-1-7v-21l3-20 5-18 7-16 9-15 9-11 4-5 8-7 9-8 16-11 16-9 14-6 20-6 19-3zm1103-629h36l22 4 18 6 16 8 11 7 9 7 4 3v-26l1-1h98l5 2v297l-1 1h-101l-1-1-1-31-13 12-16 11-15 8-19 6-16 3-8 1h-25l-23-4-24-8-19-10-12-9-12-11-7-8-10-13-8-13-7-14-7-21-4-19-2-19v-19l2-20 4-19 7-20 8-16 9-14 8-10 11-12 13-11 15-10 17-8 20-6zm-182 812h39l25 4 21 6 16 7 16 9 12 9 13 12 11 13 9 15 7 16 5 16 4 23 2 25v17l-5 1h-213l2 15 4 12 6 10 8 8 15 9 14 5 12 2h11l19-3 14-5 10-6 10-8 11-10 6 1 23 11 46 23 1 3-6 9-10 13-11 12-11 9-15 10-15 8-19 7-21 5-21 3-11 1h-29l-25-4-20-6-17-7-16-9-13-10-12-11-12-12-14-19-9-17-7-20-4-18-2-18v-18l3-22 6-21 8-18 9-15 8-10 11-12 11-11 17-13 19-11 15-6 21-6zm-352 0h38l21 3 20 5 16 6 19 10 14 10 15 14 10 12 12 21 7 19 5 22 2 16 1 17v16l-1 1-9 1h-208l2 15 4 12 6 10 9 9 16 9 12 4 12 2h11l19-3 14-5 13-8 15-13 3-3 6 1 23 11 46 23 1 3-9 13-8 10-10 11-11 9-15 10-15 8-19 7-21 5-21 3-11 1h-29l-25-4-26-8-17-8-14-9-10-8-10-9-14-14-13-18-9-17-7-20-5-25-1-12v-15l2-18 5-21 6-16 9-17 10-14 12-13 12-12 17-13 19-11 17-7 19-5zm215-812h32l22 4 20 6 18 8 16 10 13 12 9 12 8 15 6 20 2 22v198l-1 1h-103l-1-8v-169l-2-10-4-10-7-11-10-10-12-6-7-2-14-1-14 3-10 4-11 8-4 2-2 4-7 8-6 11-2 8-1 39v139l-1 1h-103v-298l1-1 8-1h69l25 1 1 3v26l8-6 8-7 15-10 16-8 15-5zm-552 709h102l1 1v110h50l12 1 1 1v76l-1 1-26 1h-36l1 105 3 14 6 12 4 2 5 2h9l14-5 3-2 5 1 9 28 14 45 1 9-17 8-21 6-16 3-8 1h-26l-17-3-14-4-16-8-8-6-8-7-9-13-8-16-6-21-3-18-1-26v-107h-42l-1-1v-77l1-1 42-1v-110zm949-92h55l16 1 1 1v500l-1 1-101 1-2-1-1-18v-483l1-1z" fill="#fefefe"/><path d="m1607 532h15l15 3 17 8 11 9 8 10 8 16 3 11 1 16-2 14-4 13-6 11-11 12-7 6-16 8-10 3-8 1h-9l-15-2-12-4-14-8-12-12-8-14-4-11-2-11v-17l3-14 5-12 6-9 9-10 11-8 11-5 10-3zm-773 0h16l16 3 14 6 9 7 6 5 9 13 5 11 3 12v24l-4 16-7 13-11 13-13 9-11 5-10 3-16 1-15-2-13-5-14-9-10-10-7-11-5-11-3-14v-18l4-17 7-14 9-11 11-9 13-6 10-3zm-425-112 2 2 9 25 17 44 18 47 7 18v3l-7 1h-61l-39-1 3-9 9-24 16-42 12-31 11-28zm636 903h16l17 4 11 6 11 11 8 16 3 11-5 1h-85l-24-1 1-9 5-13 4-6 6-7 11-7 10-4zm352 0h16l17 4 11 6 11 11 8 16 3 11-5 1h-85l-24-1 1-9 5-13 4-6 6-7 11-7 10-4z" fill="#5794c7"/></svg>