<svg fill="none" height="882" width="2500" xmlns="http://www.w3.org/2000/svg" viewBox="0 0 430.6050000000001 151.104"><g clip-rule="evenodd" fill-rule="evenodd"><g fill="#000"><path d="M202.076 18.156l-8.378 33.215c-.182.821-.669 1.232-1.465 1.232h-23.745c-.795 0-1.104-.41-.937-1.232l6.809-26.963-6.48-7.463h9.461l.155-.025h23.748c.796 0 1.069.41.832 1.236zM219.09 4.788C216.974 1.75 213.82.22 209.597.22h-33.843c-4.225 0-7.86 1.53-10.943 4.568-3.083 3.033-5.164 6.753-6.262 11.177l-9.459 37.597c-1.152 4.424-.653 8.145 1.499 11.203 2.131 3.033 5.319 4.537 9.548 4.537h33.839c4.207 0 7.848-1.504 10.891-4.537 3.046-3.058 5.148-6.78 6.317-11.203l9.443-37.597c1.098-4.424.598-8.144-1.537-11.177z"/><path d="M205.013 18.156l-8.378 33.215c-.182.821-.669 1.232-1.464 1.232h-23.749c-.796 0-1.1-.41-.938-1.232l9.791-34.426.158-.025h23.749c.795 0 1.064.41.831 1.236zm17.03-13.368C219.912 1.75 216.758.22 212.534.22h-33.843c-4.229 0-7.863 1.53-10.946 4.568-3.079 3.033-5.162 6.753-6.263 11.177l-9.458 37.597c-1.153 4.424-.65 8.145 1.502 11.203 2.13 3.033 5.319 4.537 9.544 4.537h33.843c4.208 0 7.844-1.504 10.892-4.537 3.046-3.058 5.163-6.78 6.317-11.203l9.439-37.597c1.101-4.424.597-8.144-1.518-11.177"/><path d="M203.841 18.156l-8.394 33.215c-.162.821-.654 1.232-1.448 1.232h-23.766c-.794 0-1.099-.41-.917-1.232l9.771-34.426.159-.025h23.764c.795 0 1.069.41.831 1.236zm17.014-13.368C218.74 1.75 215.57.22 211.362.22h-33.843c-4.224 0-7.88 1.53-10.942 4.568-3.083 3.033-5.182 6.753-6.262 11.177l-9.46 37.597c-1.153 4.424-.669 8.145 1.482 11.203 2.151 3.033 5.337 4.537 9.548 4.537h33.84c4.228 0 7.864-1.504 10.911-4.537 3.043-3.058 5.145-6.78 6.313-11.203l9.444-37.597c1.096-4.424.577-8.144-1.538-11.177zM131.947 18.156l-3.6 14.211c-.234.82-.72 1.257-1.449 1.257h-23.021l2.466-9.741-6.066-6.938h7.816v-.025h23.02c.494 0 .784.255.863.753zM150.86 9.92c-.451-2.874-1.672-5.225-3.697-7.005-2.008-1.801-4.568-2.695-7.698-2.695H94.342L76.884 69.302h17.981l4.947-19.758h28.98c4.208 0 7.859-1.524 10.942-4.603 3.066-3.085 5.164-6.78 6.262-11.137l4.5-17.839c.549-2.053.661-4.06.364-6.045z"/><path d="M134.292 18.156l-3.598 14.211c-.234.82-.724 1.257-1.448 1.257h-23.02l2.446-9.741 1.769-6.938-.001-.025h23.022c.492 0 .779.255.858.753zm18.915-8.236c-.449-2.874-1.672-5.225-3.68-7.005-2.024-1.801-4.604-2.695-7.714-2.695H96.69L79.232 69.302h17.981l4.944-19.758h28.978c4.208 0 7.864-1.524 10.947-4.603 3.062-3.085 5.164-6.78 6.262-11.137l4.496-17.839c.553-2.053.665-4.06.367-6.045"/><path d="M133.118 18.156l-3.602 14.211c-.234.82-.72 1.257-1.464 1.257h-23.021l2.466-9.741 1.766-6.938-.001-.025h23.022c.496 0 .762.255.842.753zm18.911-8.236c-.45-2.874-1.673-5.225-3.696-7.005-2.009-1.801-4.588-2.695-7.699-2.695H95.512L78.058 69.302h17.96l4.945-19.758h28.982c4.224 0 7.88-1.524 10.942-4.603 3.082-3.085 5.165-6.78 6.283-11.137l4.496-17.839c.552-2.053.661-4.06.363-6.045M303.553 0l-4.231 16.7h22.189l-13.227 52.382h17.965l11.363-44.942-6.464-7.415h8.345l-.001-.026h22.189L365.913 0z"/><path d="M306.487 0l-4.231 16.7h22.19l-13.228 52.382h17.965l11.359-44.942 1.885-7.415v-.026h22.189L368.848 0z"/><path d="M305.297 0l-4.215 16.7h22.19l-13.224 52.382h17.961l11.362-44.942 1.866-7.415.016-.026h22.19L367.678 0zM288.279 4.788C286.164 1.75 282.994.22 278.787.22h-32.022c-4.208 0-7.863 1.53-10.943 4.568-3.086 3.032-5.165 6.753-6.266 11.177l-2.661 10.746c-1.152 4.404-.649 8.14 1.503 11.178 2.131 3.033 5.32 4.562 9.545 4.562h26.043c.795 0 1.068.411.834 1.232l-1.948 7.688c-.167.821-.654 1.232-1.45 1.232h-21.926c-.796 0-1.1-.41-.919-1.232l1.053-3.947h-17.981l-1.532 6.138c-1.168 4.424-.669 8.145 1.483 11.203 2.151 3.033 5.336 4.537 9.548 4.537h32.459c4.228 0 7.776-1.504 10.68-4.537 2.888-3.058 4.918-6.78 6.071-11.203l2.661-10.747c1.169-4.403.669-8.118-1.482-11.177-2.152-3.033-5.325-4.541-9.549-4.541h-26.043c-.796 0-1.105-.432-.922-1.253l.599-2.396-5.653-6.503h8.38l.163-.025h21.923c.795 0 1.064.41.83 1.236l-.961 3.947h17.981l1.531-6.138c1.098-4.424.579-8.145-1.537-11.177"/><path d="M290.631 4.788C288.515 1.75 285.346.22 281.134.22h-32.002c-4.224 0-7.879 1.53-10.962 4.568-3.063 3.032-5.161 6.753-6.262 11.177l-2.661 10.746c-1.153 4.404-.653 8.14 1.498 11.178 2.135 3.033 5.32 4.562 9.548 4.562h26.044c.796 0 1.068.411.834 1.232l-1.953 7.688c-.181.821-.649 1.232-1.444 1.232h-21.927c-.796 0-1.1-.41-.922-1.232l1.057-3.947h-17.986l-1.531 6.138c-1.168 4.424-.67 8.145 1.482 11.203 2.151 3.033 5.34 4.537 9.548 4.537h32.463c4.224 0 7.772-1.504 10.681-4.537 2.887-3.058 4.917-6.78 6.082-11.203l2.665-10.747c1.149-4.403.653-8.118-1.498-11.177-2.154-3.033-5.324-4.541-9.548-4.541h-26.048c-.796 0-1.1-.432-.918-1.253l.599-2.396 2.727-6.503.158-.025h21.928c.796 0 1.064.41.83 1.236l-.964 3.947h17.981l1.531-6.138c1.102-4.424.582-8.145-1.533-11.177"/><path d="M289.457 4.788C287.342 1.75 284.173.22 279.949.22h-32.006c-4.208 0-7.859 1.53-10.942 4.568-3.083 3.032-5.165 6.753-6.262 11.177l-2.666 10.746c-1.148 4.404-.648 8.14 1.483 11.178 2.15 3.033 5.34 4.562 9.549 4.562h26.062c.777 0 1.064.411.831 1.232l-1.949 7.688c-.182.821-.669 1.232-1.448 1.232h-21.923c-.8 0-1.104-.41-.922-1.232l1.037-3.947h-17.966l-1.548 6.138c-1.152 4.424-.653 8.145 1.498 11.203 2.152 3.033 5.321 4.537 9.549 4.537h32.462c4.225 0 7.773-1.504 10.677-4.537 2.888-3.058 4.918-6.78 6.071-11.203l2.661-10.747c1.169-4.403.669-8.118-1.482-11.177-2.152-3.033-5.34-4.541-9.549-4.541h-26.043c-.796 0-1.104-.432-.922-1.253l.599-2.396 2.73-6.503.159-.025h21.923c.78 0 1.069.41.831 1.236l-.964 3.947h17.985l1.531-6.138c1.097-4.424.577-8.145-1.538-11.177M79.357 4.782C77.237 1.75 74.07.22 69.85.22h-21.04c-6.968 0-15.736 3.469-21.105 15.74L0 69.302h20.276l23.766-46.86-4.787-5.502h8.17l.33-.02h12.643c1.528 0 2.08.795 1.651 2.397l-4.834 19.275H38.688l8.964 14.03h6.03l-4.225 16.68h17.975L80.886 15.96c1.098-4.425.586-8.145-1.53-11.178"/><path d="M82.287 4.782C80.17 1.75 77 .22 72.785.22H51.748C44.773.22 36.01 3.69 30.64 15.96L2.934 69.302h20.277l23.765-46.86-4.787-5.502h8.166l.334-.02h12.643c1.528 0 2.08.795 1.652 2.397l-4.832 19.275h-18.53l8.96 14.03h6.034l-4.224 16.68h17.974L83.82 15.96c1.097-4.425.585-8.145-1.534-11.178"/><path d="M80.53 4.782C78.412 1.75 75.246.22 71.026.22h-21.04C43.018.22 34.25 3.69 28.88 15.96L1.174 69.302h20.28l23.761-46.86-4.786-5.502h8.17l.33-.02h12.647c1.528 0 2.076.795 1.652 2.397l-4.836 19.275h-18.53l8.964 14.03h6.03l-4.224 16.68h17.973L82.06 15.96c1.097-4.425.585-8.145-1.53-11.178M425.631 4.562C423.511 1.53 420.346 0 416.125 0h-21.039c-6.97 0-15.736 3.469-21.106 15.74l-27.706 53.342h20.276l23.765-46.86-4.785-5.503h8.168l.33-.02h12.644c1.527 0 2.081.795 1.652 2.397l-4.836 19.276h-18.526l8.964 14.03h6.029l-4.224 16.68h17.974l13.454-53.342c1.098-4.424.587-8.145-1.528-11.178z"/><path d="M427.974 4.562C425.859 1.53 422.689 0 418.473 0h-21.04c-6.972 0-15.736 3.469-21.106 15.74l-27.705 53.342h20.276l23.765-46.86-4.787-5.503h8.166l.334-.02h12.643c1.529 0 2.082.795 1.653 2.397l-4.832 19.276h-18.53l8.96 14.03h6.033l-4.224 16.68h17.974l13.456-53.342c1.096-4.424.584-8.145-1.535-11.178"/><path d="M426.804 4.562C424.685 1.53 421.519 0 417.299 0H396.26c-6.969 0-15.737 3.469-21.106 15.74l-27.706 53.342h20.281l23.76-46.86-4.786-5.503h8.169l.33-.02h12.648c1.528 0 2.076.795 1.651 2.397l-4.835 19.276h-18.529l8.962 14.03h6.03l-4.224 16.68h17.974l13.456-53.342c1.096-4.424.584-8.145-1.531-11.178z"/></g><path d="M169.444 151.104h20.495l9.429-37.255 15.29 37.255h19.572L251.704 82h-20.51l-9.395 37.141L207.397 82h-20.496z" fill="#f60"/><path d="M188.076 82h17.981l15.93 41.064L232.383 82h17.966l-17.458 69.104h-17.063l-16.834-41.088-10.394 41.088h-17.983zM164.354 82h-23.57c-6.967 0-15.736 3.468-21.105 15.742l-27.706 53.362h22.806l23.765-46.883-4.786-5.498h8.165l.333-.024h10.114c1.528 0 2.082.8 1.653 2.396l-4.836 19.301h-18.525l8.962 14.007h6.03l-4.223 16.701h20.503l13.455-53.362c1.097-4.403.585-8.146-1.534-11.18-2.116-3.034-5.285-4.562-9.501-4.562z" fill="#f60"/><path d="M173.089 86.563C170.97 83.528 167.804 82 163.585 82h-21.04c-6.969 0-15.737 3.467-21.107 15.742l-27.705 53.362h20.28l23.762-46.883-4.787-5.498h8.169l.33-.024h12.647c1.529 0 2.078.8 1.653 2.396l-4.836 19.301h-18.53l8.963 14.007h6.03l-4.223 16.701h17.974l13.455-53.363c1.096-4.403.585-8.145-1.531-11.178M107.482 82H56.648c-3.905 0-7.475 1.459-10.663 4.38-3.192 2.897-5.36 6.684-6.546 11.362l-11.107 44.145c-.648 2.555-.348 4.723.901 6.524 1.264 1.78 3.117 2.693 5.554 2.693h44.434c7.585 0 12.718-5.249 15.388-15.743l6.776-26.965H65.016l-1.47 5.771c-1.03 4.037 1.614 8.145 5.222 8.145h8.735L74.77 133.15c-.18.844-.724 1.253-1.642 1.253H51.452c-.497 0-.697-.25-.581-.774l9.891-34.906.159-.024h42.33z" fill="#f60"/><path d="M106.132 82H57.827c-3.922 0-7.47 1.459-10.664 4.38-3.188 2.897-5.376 6.684-6.54 11.362l-11.128 44.145c-.633 2.555-.333 4.723.917 6.524 1.244 1.78 3.1 2.693 5.558 2.693h41.9c7.59 0 12.702-5.249 15.387-15.743l6.761-26.965H66.194l-1.485 5.771c-1.015 4.037 1.61 8.145 5.238 8.145h8.734L75.95 133.15c-.182.844-.725 1.253-1.643 1.253H50.084c-.476 0-.675-.25-.576-.774l9.887-34.906.159-.024H101.9zM324.069 82h-20.492l-6.581 25.917H273.02L279.602 82h-20.511l-17.458 69.104h20.511l5.031-20.031 1.63-6.457h23.975l-6.661 26.488h20.491z" fill="#f60"/><path d="M304.752 82l-6.582 25.917h-26.506L278.246 82h-17.982l-17.457 69.104h17.965l5.047-20.031 1.615-6.457h26.52l-6.677 26.488h17.981L322.717 82zM383.268 82h-23.57c-6.968 0-15.735 3.468-21.105 15.742l-27.705 53.362h22.804l23.766-46.883-4.787-5.498h8.166l.333-.024h10.115c1.528 0 2.08.8 1.652 2.396l-4.835 19.301h-18.527l8.964 14.007h6.029l-4.223 16.701h20.503l13.455-53.362c1.097-4.403.585-8.146-1.534-11.18-2.115-3.034-5.286-4.562-9.501-4.562z" fill="#f60"/><path d="M391.418 86.563c-2.119-3.035-5.285-4.563-9.504-4.563h-21.041c-6.968 0-15.736 3.467-21.106 15.742l-27.705 53.362h20.28l23.76-46.883-4.786-5.498h8.17l.329-.024h12.648c1.528 0 2.078.8 1.653 2.396l-4.836 19.301h-18.53l8.964 14.007h6.03l-4.224 16.701h17.973l13.455-53.363c1.097-4.403.585-8.145-1.53-11.178" fill="#f60"/></g></svg>