<svg height="2500" viewBox=".9 208 1077.6 664" width="2500" xmlns="http://www.w3.org/2000/svg"><path d="m488.3 209.2c-.8 1-115.1 267.9-118 275.3-.3.9 9.7-8.8 22.2-21.4l22.8-22.9 31.2-72.7c17.2-40 31.5-72.3 31.8-71.8s6.9 16 14.7 34.4 14.4 33.7 14.8 34.1 6.6-3.2 13.7-8c7.2-4.8 16.9-11.2 21.6-14.2l8.6-5.5-19.9-47.5c-10.9-26.1-23-55-26.9-64.3l-7.1-16.7h-4.3c-2.3 0-4.7.6-5.2 1.2zm207.7 75.2c-41.4 15.8-77.6 32.9-115.5 54.4-97.8 55.6-191.1 136.7-253.8 220.5-12.5 16.7-14.1 17.9-30.6 21.9l-9.1 2.2v10.6h118v-10.6l-9.8-1.2c-14.6-1.7-22.5-4.4-27.7-9.7-2.8-2.7-4.8-5.9-5.5-8.5-1.5-5.5.4-9.3 11.1-22.5 32.4-39.9 73.8-78.3 144-133.3l6.6-5.1 10.1 24.2c5.5 13.3 11.4 27.8 13.1 32.2 1.6 4.4 8.9 22.2 16.1 39.5 19.3 46.1 22.4 56.8 19.5 66.6-3 10.2-12.2 15.4-30.3 17l-7.3.7.3 5.1.3 5.1h148l.3-5.3.3-5.2h-3.1c-1.7 0-6.3-.7-10.3-1.6-19.1-4.3-29.6-14.2-42.6-40.1-5-10.1-71.1-167.1-71.1-169 0-1.1 26.9-19.8 52.6-36.6 23.6-15.5 50.2-31.8 73.4-45.2 11.3-6.5 20.7-11.9 20.9-12.1 1.3-1.2-3.1.3-17.9 6zm341.9 351.6c-11.1 1.8-20.9 9.1-26.2 19.5-2.8 5.4-3.1 6.9-3.2 15 0 7.9.4 9.8 2.9 15.2 3.3 7.3 10.3 14.4 17.4 17.6 7 3.2 22.7 3.2 29.4-.2 7.5-3.7 13.4-9.5 17-16.9 3-5.9 3.3-7.6 3.3-15.2s-.3-9.3-3.3-15.2c-7-14.3-22-22.2-37.3-19.8zm17.4 9.3c9.3 3.9 16.7 15.3 16.7 25.7 0 10.3-6.6 20.6-16.2 25.4-6.7 3.4-17 3.6-23.8.5-5.5-2.5-11.4-8-14.3-13.4-3.1-5.8-3.1-19.2.1-25.2 7.4-13.9 22.7-19.3 37.5-13z"/><path d="m1030 670.4v17.6h3c2.8 0 2.9-.1 3.2-5.8.3-5.5.4-5.7 3.3-6 2.6-.3 3.7.5 8.5 5.8 5.1 5.7 5.8 6.1 9.2 5.8l3.8-.3-5-5.5c-5.2-5.9-5.8-7-3.6-7 .8 0 2.6-1.4 4-3.1 3.8-4.4 3.6-10.7-.3-15.1l-2.9-3.3-11.6-.3-11.6-.4zm21.7-8.8c1.5 2.4 1.5 2.9.2 5.3s-2.1 2.6-8.7 2.9l-7.2.3v-11.1h7c6.4 0 7.1.2 8.7 2.6zm-1000.2 72.1c-14.7 34.5-28.5 66.2-30.7 70.4-4.7 9.3-8.3 12.8-14.5 14.4-3.7.9-4.9 1.7-5.1 3.4-.3 2.1-.3 2.1 23.2 2.1 22.8 0 23.6-.1 23.6-2 0-1.4-.9-2.1-3.7-2.5-10.9-1.9-13.9-4.6-13-11.7.3-2.3 3.4-10.8 6.8-19l6.3-14.8h58.3l5.8 13.7c3.1 7.6 6.2 16.1 6.8 19 1.5 7.2-.6 10.2-8.6 12.2-4.4 1-5.7 1.8-5.7 3.2 0 1.8 1.3 1.9 29.5 1.9 28.8 0 29.5 0 29.5-2 0-1.5-.9-2.1-4-2.6-6.2-1-12.1-5.4-15.9-11.7-1.8-3.1-15.6-35-30.6-70.9-21.7-52-27.7-65.4-29.2-65.6-1.7-.3-5.7 8.4-28.8 62.5zm35.3 1.5c6.7 16.1 12.2 29.6 12.2 30 0 .5-11.2.8-25 .8-19.3 0-25-.3-25-1.3 0-1.6 24.3-58.7 25-58.7.3 0 6.1 13.2 12.8 29.2zm379.8-63.4c-.2.4-12.5 28.9-27.1 63.2-34.4 80.4-34 79.8-43.5 83-4 1.4-5.6 2.4-5.8 3.9-.3 2.1-.1 2.1 23.2 2.1 22.8 0 23.6-.1 23.6-2 0-1.4-.9-2.1-3.7-2.5-2.1-.4-5-.9-6.5-1.1-1.5-.3-3.9-1.9-5.3-3.6-3.4-4-2.9-6.4 5-25.3l6.3-15h58.6l4.3 10c6.6 15 9.5 24.2 8.8 27.7-.8 3.5-4.9 6.3-10.6 7.2-3 .5-3.9 1.1-3.9 2.6 0 2 .7 2 29 2 27.9 0 29-.1 29-1.9 0-1.4-1-2.1-3.2-2.6-8.5-1.9-13.8-6.5-18.7-16.4-1.5-3.1-14.7-34.1-29.2-68.9-20.2-48.5-26.8-63.2-28.1-63.2-.9 0-1.9.4-2.2.8zm8.9 63.7c6.5 15.4 12 28.6 12.2 29.2.4 1-5 1.3-25.1 1.3-14.1 0-25.6-.3-25.6-.6 0-2 25.4-59.4 26-58.7.4.4 6.1 13.4 12.5 28.8zm505.1-36.9c-4.9 10.5-12.5 19.7-20.4 24.8-3.9 2.5-6.2 4.7-6.2 5.8 0 1.6.9 1.8 8 1.8h7.9l.3 39.8.3 39.8 2.5 4.9c4.4 8.5 15.2 11.9 24.8 8 6.3-2.7 16.2-13.9 16.2-18.5 0-2.1-3.2-.9-6 2.4-5.8 6.6-13 7.1-17.4 1.3-2-2.8-2.1-4-2.4-40.3l-.3-37.4h23.1v-8h-23v-16.5c0-15.1-.2-16.5-1.7-16.5-1.3.1-3 2.7-5.7 8.6zm-802.2 27.7c-8.2 3.4-15.1 6.5-15.2 6.9-.6 2.4.1 2.8 3.8 2.2 6-1 8.9.2 10.6 4.1 1.9 4.7 2.1 118.6.1 122.5-1.6 3.2-7.2 6-11.9 6-3.1 0-3.8.4-3.8 2 0 1.9.7 2 26 2s26-.1 26-2c0-1.6-.7-2-3.5-2-4.8 0-10.1-2.3-11.7-5.2-.9-1.6-1.4-8.2-1.6-23.5l-.4-21.3 5.1 3.4c12.4 8.3 32 6.8 45-3.4 4.9-3.9 12.6-14.5 15.4-21.2 5.6-13.4 6.2-36.1 1.4-49.2-3.2-8.8-9-17.1-14.5-21-16.5-11.8-35.5-7.3-47.9 11.1l-3.8 5.8-.3-11.8c-.2-10.3-.5-11.7-2-11.7-.9.1-8.5 2.9-16.8 6.3zm53.5 13c8 5.3 13.5 16.7 15.3 32 2.6 21.1-4.2 40.6-16.3 46.7-8 4.1-20.7 2-27.3-4.6-5.7-5.7-6-7.5-6.4-36.5l-.4-26.5 6.4-6c7.4-6.9 11-8.4 19-8 4.2.1 6.7.9 9.7 2.9zm59.1-12.9c-17 6.8-19.9 9.3-10 8.8 6.7-.4 8.8.9 10 6.3 1.5 6.2 1.2 115.2-.3 119.5s-6.3 7-12.4 7c-3.6 0-4.3.3-4.3 2 0 1.9.7 2 26.5 2s26.5-.1 26.5-2c0-1.6-.7-2-3.5-2-2 0-5.1-.7-7.1-1.5-5.7-2.4-6.4-5.4-6.4-28.6v-20.2l2.3 2.1c9.1 8.5 29.4 9.3 42.6 1.5 22.8-13.3 32.2-52.1 19.2-78.8-4.5-9.1-10.3-15.5-17.6-19.3-4.3-2.3-6.3-2.7-13.5-2.7-6.9 0-9.3.4-12.8 2.3-5.9 3.1-11.2 8.2-15.8 14.8l-3.9 5.7-.3-11.7c-.2-10.2-.5-11.6-2-11.6-.9.1-8.7 2.9-17.2 6.4zm51.7 11.7c10.8 5.2 17.4 21 17.5 41.6.1 15.1-3.3 26.5-10 33.7-9.7 10.4-29.1 8.3-36.7-3.9l-3-4.8-.3-27-.4-27 5.4-5.4c2.9-3.1 7.1-6.4 9.3-7.4 5.4-2.5 12.8-2.4 18.2.2zm238.7-16.3c-6.9 2.4-12.4 7-16 13.4-2.6 4.7-2.9 6.2-2.9 13.8 0 14.6 4.2 19.3 28.3 32 18.7 9.8 23.2 14.5 23.2 24.3 0 9-6.8 14.7-17.5 14.7-13.9 0-25.6-10.5-29.6-26.4-.8-3.4-1.6-4.6-2.8-4.4-1.4.3-1.6 2.6-1.9 18.1-.2 16.6-.1 17.7 1.6 17.7 1 0 2.3-.5 2.9-1.1 1.3-1.3 6-.9 18.3 1.6 15.9 3.1 28.6-.1 37.4-9.5 5.8-6.2 7.7-10.9 7.7-19.2.1-14.2-6.1-21.1-29.3-32.9-21-10.6-25.8-15-25.8-23.4 0-8.6 6.8-13.9 17.8-13.8 11.9.1 20 6.8 24.3 20.3 1.7 5.2 2.7 7 4.1 7 1.7 0 1.8-1.3 1.8-17 0-15.6-.1-17-1.8-17-.9 0-2.3.9-3 2s-2.3 2-3.5 2c-1.3 0-5.9-.9-10.2-2-9.6-2.4-16.4-2.5-23.1-.2zm73.1 4.5c-9.9 4.1-15 6.7-15 7.7 0 1.2 1.1 1.4 5.2 1.2 4.5-.3 5.6 0 7.7 2.1 3.5 3.5 3.8 9.5 3.4 69.7-.3 47.4-.5 52.8-2 55.6-1.9 3.6-6.1 5.4-11.9 5.4-3.2 0-3.9.3-3.9 2 0 1.9.7 2 26.5 2 25.2 0 26.5-.1 26.5-1.9 0-1.5-1-1.9-5.7-2.4-4.2-.4-6.3-1.2-8.2-3.2l-2.6-2.5-.3-21.5c-.2-11.8 0-21.5.3-21.5.4 0 2.1 1.1 3.9 2.5 6.1 4.6 18.9 6.6 28.4 4.5 16.1-3.8 29.8-18.7 34.9-38.2 2-7.8 2.2-26.2.4-33.8-6-24.5-25.2-38.6-44.6-32.5-6.6 2.1-14.7 8.9-20.1 16.9l-3.3 5-.3-11.5c-.3-10.6-.4-11.4-2.3-11.6-1.1-.1-8.7 2.6-17 6zm51.1 11.6c2.2 1 5.6 3.7 7.6 6.1 8 9.3 11.2 21.2 10.5 39-.5 13-2.2 19.4-6.8 26.4-4.7 7.1-9.7 10-17.9 10.4-8.3.5-12.4-.8-17.7-5.3-7.3-6.2-7.7-8.9-7.4-44.9l.1-20 5.1-4.9c8.8-8.4 17.8-10.8 26.5-6.8zm87.2-16c-8.2 2.7-13.9 6.3-19.3 12.3-8.7 9.7-12.3 19.7-13.2 36.3-1 20.2 3.7 33.5 15.5 44.7 9 8.5 16.1 11.3 28.2 11.3 11.6-.1 18.3-2.8 25.9-10.4 6.7-6.7 10.2-12.5 13.2-21.5 2-6.1 2.1-6.9.6-8.3-1.4-1.4-1.8-1-4.6 4.4-4 8.1-7 11.3-13.3 14.8-4.6 2.6-6.3 3-13.3 3-9.8 0-16.7-2.8-23.5-9.7-7.8-7.7-11.8-17.4-13.5-32.1l-.6-5.7h70.1v-3c0-14.3-8.7-28.3-21.5-34.6-5.1-2.4-7.3-2.9-15.5-3.1-7.2-.2-10.9.2-15.2 1.6zm19.4 9.6c5.2 3.7 8.7 10.3 9.5 17.9l.6 5.6-23.4-.2-23.4-.3.3-2.5c1.2-9.4 7.4-18.8 14.6-22.2 6.4-2.9 16.2-2.1 21.8 1.7zm84.5-10.4c-7.7 1.8-15.2 6.2-21.8 12.8-11 11-15.2 22-15.2 40.1.1 23.4 9.1 40.4 26.1 48.7 7 3.5 8.3 3.8 16.2 3.8s9.2-.3 16.2-3.8c11.6-5.7 18.8-14.6 23.9-29.6 2.3-6.5 2.3-7.7.5-8.4-1-.4-2.3 1.1-4 4.7-10.3 21.1-33.8 26.8-48.3 11.7-7.8-8-13.3-23.1-13.3-36.6 0-19.3 8.4-33.7 21.3-36.5 6.4-1.5 11.5-.8 15.1 2.1 3.5 2.7 4.5 4.9 5.6 11.6 1.1 6.4 3.7 9.9 8.7 11.2 4.2 1.2 9.8-.3 11.8-3.2 6-8.5-5-23.7-20.4-28.1-5.9-1.7-16.3-1.9-22.4-.5z"/></svg>