<svg height="2500" width="2500" xmlns="http://www.w3.org/2000/svg" viewBox="0 0 1080 1080"><path d="M0 0h1080v1080H0V0z" fill="#fefefe"/><path d="M552.813 228a105 105 0 0 1 6.187 4l2.566 1.754C568.405 239.11 572.147 246.4 576 254l1.258 2.481a2008.67 2008.67 0 0 1 6.96 13.953c2.475 4.981 5.043 9.907 7.657 14.816 4.59 8.631 8.95 17.37 13.302 26.123a928.354 928.354 0 0 0 11.225 21.787c2.954 5.571 5.796 11.192 8.598 16.84a707.67 707.67 0 0 0 9.5 18.5c5.01 9.411 9.748 18.956 14.5 28.5 5.047 10.138 10.11 20.256 15.445 30.246 4.063 7.637 7.887 15.393 11.738 23.139a904.236 904.236 0 0 0 11.079 21.494c3.35 6.323 6.554 12.713 9.738 19.121 3.542 7.13 7.134 14.223 10.875 21.25 4.498 8.452 8.774 17.01 13.036 25.583a1006.612 1006.612 0 0 0 12.542 24.429c2.938 5.537 5.761 11.123 8.547 16.738a730.623 730.623 0 0 0 9.625 18.75c4.614 8.673 8.999 17.455 13.375 26.25 4.633 9.31 9.305 18.587 14.203 27.762 4.245 7.996 8.25 16.112 12.281 24.216 4.238 8.517 8.55 16.987 13.02 25.385 3.365 6.337 6.567 12.75 9.756 19.177a683.29 683.29 0 0 0 8.49 16.46c4.852 9.129 9.461 18.375 14.053 27.636 3.099 6.233 6.265 12.413 9.586 18.53 6.99 12.904 11.447 25.255 7.423 40.084C849.354 836.107 841.99 844.617 830 851c-9.547 4.451-21.999 4.711-31.938 1.375-14.337-6.16-22.036-16.266-28.812-30-.6-1.193-1.203-2.384-1.807-3.575a1961.868 1961.868 0 0 1-3.665-7.276c-2.658-5.268-5.406-10.489-8.153-15.711a1018.582 1018.582 0 0 1-10.478-20.538c-3.131-6.302-6.391-12.537-9.647-18.775-4.549-8.72-9.034-17.466-13.4-26.28-6.308-12.734-12.638-25.448-19.31-37.997-3.848-7.264-7.517-14.615-11.153-21.987-3.037-6.13-6.186-12.191-9.387-18.236-5.686-10.749-11.098-21.627-16.5-32.52-4.987-10.048-10.058-20.038-15.307-29.95A675.47 675.47 0 0 1 641.5 572a842.93 842.93 0 0 0-10.563-20.625c-5.499-10.364-10.723-20.86-15.926-31.374-4.96-10.02-10.078-19.955-15.236-29.876A7199.94 7199.94 0 0 1 585.25 462c-4.565-8.875-9.143-17.742-13.813-26.562-3.904-7.378-7.67-14.817-11.375-22.297-2.434-4.906-4.891-9.801-7.342-14.7a3544.86 3544.86 0 0 1-5.923-11.882c-3.777-7.61-7.648-15.142-11.797-22.559-2.243 2.82-3.89 5.6-5.418 8.86l-1.365 2.886-1.405 3.004c-3.062 6.517-6.169 13.007-9.4 19.442l-2.14 4.274-1.127 2.25c-1.93 3.85-3.856 7.704-5.782 11.557l-2.468 4.936c-.63 1.263-.63 1.263-1.275 2.55l-27.763 55.528-2.411 4.822a15852.51 15852.51 0 0 1-5.714 11.42l-1.094 2.184-2.007 4.005c-2.83 5.654-5.567 11.35-8.302 17.05-14.23 29.62-29.12 58.925-43.868 88.288A1012.05 1012.05 0 0 0 403 628.5c-9.137 19.184-18.773 38.126-28.3 57.118-3.574 7.124-7.138 14.253-10.7 21.382l-2.531 5.063-1.016 2.03L356 723l1.898-.835 29.45-12.958 3.083-1.357 6.18-2.718c5.26-2.314 10.521-4.631 15.78-6.952 10.52-4.642 21.054-9.247 31.633-13.755 8.123-3.47 16.204-7.035 24.277-10.62a439.67 439.67 0 0 1 16.481-6.91c2.957-1.194 5.837-2.529 8.718-3.895a224.95 224.95 0 0 1 13.684-5.86c4.475-1.812 8.879-3.79 13.284-5.767 9.68-4.298 20.738-5.047 31.067-2.502 13.672 5.38 22.648 14.873 28.465 28.129 2.935 8.805 2.554 22.024-1.25 30.438A85.378 85.378 0 0 1 576 712l-1.875 3.25L572 718l-1.242 1.633c-14.003 16.18-44.097 23.373-63.19 31.646a3488.53 3488.53 0 0 0-21.193 9.283 2405.297 2405.297 0 0 1-25.545 11.088c-19.077 8.108-19.077 8.108-37.955 16.663-5.184 2.43-10.465 4.463-15.824 6.472-3.618 1.44-7.013 3.176-10.465 4.969-2.932 1.413-5.91 2.55-8.961 3.683-4.36 1.63-8.489 3.43-12.625 5.563-3.84 1.98-7.65 3.69-11.703 5.184-8.806 3.339-17.414 7.12-26.047 10.879l-4.941 2.142c-8.89 3.857-17.763 7.745-26.598 11.725-38.783 17.429-38.783 17.429-56.469 11.117-12.1-5.65-20.742-15.277-25.48-27.652-4.961-15.596.91-29.577 8.035-43.477l1.674-3.327c1.75-3.473 3.514-6.938 5.279-10.403 1.168-2.31 2.334-4.621 3.5-6.932 2.245-4.447 4.494-8.892 6.748-13.335a2077.096 2077.096 0 0 0 17.957-36.259c7.92-16.39 16.012-32.692 24.184-48.958l.919-1.829 1.937-3.854c4.59-9.132 9.097-18.299 13.505-27.521a1541.706 1541.706 0 0 1 13.218-26.944c2.641-5.266 5.273-10.537 7.907-15.806l3.64-7.281 1.862-3.723 3.746-7.492.933-1.866a311999.313 311999.313 0 0 1 6.344-12.688c2.446-4.894 4.893-9.788 7.348-14.679 3.414-6.803 6.787-13.62 10.002-20.521a634.506 634.506 0 0 1 7.94-16.395 189130950.92 189130950.92 0 0 0 7.151-14.28l5.733-11.448c3.827-7.641 7.652-15.283 11.476-22.925 2.89-5.775 5.781-11.55 8.674-17.324 2.825-5.639 5.648-11.28 8.47-16.92 1.064-2.127 2.129-4.254 3.195-6.38 5.125-10.226 10.207-20.46 15.038-30.83 3.14-6.723 6.459-13.352 9.803-19.976 1.74-3.45 3.468-6.906 5.198-10.362l2.164-4.32c2.793-5.572 5.583-11.145 8.373-16.719 2.103-4.2 4.207-8.401 6.313-12.601 2.066-4.122 4.13-8.245 6.194-12.369l2.324-4.638a1086.52 1086.52 0 0 0 13.61-28.084C500.936 234.017 500.936 234.017 520 226c9.956-3.319 23.425-2.529 32.813 2z" fill="#019bdb"/><path d="M510 231l2 1c-1.375 1.5-1.375 1.5-3 3h-2l-.773 1.797c-1.345 2.415-2.72 3.715-4.852 5.453l-1.914 1.578L498 245c1.4-4.527 3.562-6.752 7.125-9.813l2.758-2.394L510 231z" fill="#1f9fdc"/></svg>