<svg clip-rule="evenodd" fill-rule="evenodd" height="1231" image-rendering="optimizeQuality" shape-rendering="geometricPrecision" text-rendering="geometricPrecision" viewBox="-4.622 -.82 605.122 298.033" width="2500" xmlns="http://www.w3.org/2000/svg"><path d="m171.5.5h9c.439 29.295-11.895 51.128-37 65.5-7.719 3.005-15.719 4.171-24 3.5-1.259-24.647 8.075-44.147 28-58.5 7.749-4.382 15.749-7.882 24-10.5z" fill="#402d21" opacity=".952"/><path d="m439.5 21.5c.356 1.37 1.19 2.37 2.5 3 23.171-9.274 46.338-9.274 69.5 0a348.01 348.01 0 0 1 11.5-22c4.514-2.84 6.514-1.507 6 4a159.579 159.579 0 0 0 -11.5 21c23.496 13.794 37.163 34.294 41 61.5a14.436 14.436 0 0 1 -1 5c-54.666.5-109.332.667-164 .5 1.739-29.718 15.406-52.051 41-67a345.094 345.094 0 0 0 -11.5-22c.636-5.654 2.969-6.32 7-2a234.61 234.61 0 0 1 9.5 18zm-3 30c4.636-.688 7.636 1.145 9 5.5-1.984 5.747-5.484 6.913-10.5 3.5-1.942-3.36-1.442-6.36 1.5-9zm74 0c8.328.57 9.995 4.07 5 10.5-6.666.996-9.166-1.837-7.5-8.5.995-.566 1.828-1.233 2.5-2z" fill="#402d21" opacity=".955"/><path d="m439.5 21.5a2.429 2.429 0 0 1 .5-2c.692.937.525 1.603-.5 2z" opacity=".004"/><path d="m179.5 295.5h-9a236.084 236.084 0 0 1 -26-8.5c-13.42-3.514-26.753-3.181-40 1a159.003 159.003 0 0 1 -21 7.5h-11c-11.574-4.385-21.407-11.385-29.5-21-20.911-26.166-34.578-55.833-41-89-6.622-32.656-.289-62.322 19-89 16.554-18.965 37.387-27.131 62.5-24.5a530.615 530.615 0 0 1 39 12.5 186.87 186.87 0 0 0 30-10.5c30.632-8.615 56.799-1.449 78.5 21.5l2.5 5c-28.535 20.438-37.368 47.438-26.5 81 3.896 9.894 10.062 18.06 18.5 24.5a128.692 128.692 0 0 0 16 11 372.365 372.365 0 0 1 -11.5 28.5l-22 32c-7.903 8.776-17.403 14.776-28.5 18z" fill="#402d21" opacity=".99"/><g fill="#402d22"><path d="m383.5 204.5c-14.244 8.066-24.744 4.733-31.5-10a1805.597 1805.597 0 0 1 0-85c5.738-14.23 15.571-18.063 29.5-11.5 3.616 2.742 6.116 6.242 7.5 10.5.667 29 .667 58 0 87a31.045 31.045 0 0 1 -5.5 9z" opacity=".96"/><path d="m600.5 109.5v86c-4.505 10.259-12.838 14.426-25 12.5-6.318-2.443-10.485-6.943-12.5-13.5a1805.597 1805.597 0 0 1 0-85c5.738-14.23 15.571-18.063 29.5-11.5 3.827 3.195 6.493 7.029 8 11.5z" opacity=".965"/><path d="m393.5 98.5c54.905-.33 109.738.003 164.5 1a3719.39 3719.39 0 0 1 0 122c-2.013 6.681-6.18 11.514-12.5 14.5a76.4 76.4 0 0 1 -20 1.5 361.554 361.554 0 0 1 -1.5 45c-4.743 10.709-12.91 14.542-24.5 11.5-6.506-2.154-10.339-6.654-11.5-13.5a924.222 924.222 0 0 1 -.5-43h-23c.167 14.67 0 29.337-.5 44-4.263 11.546-12.429 15.713-24.5 12.5-6.579-1.581-10.412-5.747-11.5-12.5-.5-14.663-.667-29.33-.5-44a162.597 162.597 0 0 1 -18-.5c-8.686-2.687-13.853-8.521-15.5-17.5-.5-40.332-.667-80.665-.5-121z" opacity=".986"/></g><path d="m383.5 204.5c1.333.667 1.333.667 0 0z" opacity=".004"/></svg>