<svg height="966" viewBox="-1.1 3.6 2614.7 1007.3" width="2500" xmlns="http://www.w3.org/2000/svg"><path d="m643.6 6.1c-2.4 1.9-2.6 2.6-2.6 10.2-.1 4.5-.7 9.9-1.4 12-.8 2.1-5.2 10.2-9.9 18-13.5 22.4-275.9 414.9-278.7 416.9-3.2 2.2-43.3 8.2-144 21.3-53.9 7-113.2 15.3-132 18.5-6.3 1.1-22.5 3.5-36 5.5-13.5 1.9-26.2 4-28.2 4.7-11.9 3.7-10.7 15.1 3.3 33.8 12.2 16.1 26.8 24 44.7 24 7 0 165.7-20.4 216-27.8 14.4-2.1 26.2-3.7 26.2-3.5 0 .6-12.6 20.9-38.5 61.8-15.3 24.2-28.7 46.2-29.7 48.9-2.5 6.5-2.5 14.3 0 19.2 2.4 4.7 21.5 28.7 32 40.3 13.3 14.6 18.2 16.9 23.9 10.8 1.7-1.7 9.7-14.2 17.8-27.7 19.1-31.6 103.9-169.6 105-170.8.4-.5 119-23.9 119.4-23.6.5.4.3 1.5-16.9 83.9-12.6 60.7-37.2 180.3-58.2 283.5-9.1 44.8-10.1 50.6-10.2 61-.1 11.2 0 11.7 3.3 18.4 5.2 10.6 15.5 25.4 30.8 44.1 13.2 16.2 14.1 17 19.7 19.2 3.3 1.2 6 2.2 6.1 2 5.7-10.5 6.4-13.4 12.9-52.7 9-54.1 43-226.3 63.5-321.5 17.3-79.9 32.5-149.1 33-149.7.6-.6 88-21.8 90.1-21.8 1.5 0-30.4 65.7-51.4 106-17.6 33.5-23.5 46.9-24.2 55.2-.7 7.6 1.5 18.3 5.1 24.4 3.3 5.6 12.1 14.3 25.1 24.8 12.1 9.7 15.9 11.4 20.1 9.4 5.6-2.7 5.3-2.2 59.5-114.3 21.5-44.6 54.5-108 61.2-117.7 1.7-2.5 3.7-4 6.3-4.7 5-1.4 33-5.3 61.3-8.5 38.6-4.4 67.9-11.4 85.1-20.2 18.2-9.4 32-26.6 37-46.2 3.3-13 2-23.6-4.3-35.5-6.3-11.8-19.6-23.3-37.8-32.6-16.1-8.3-29.8-12.8-59.2-19.6-22.4-5.2-29.3-9.1-55.4-31.1-7.6-6.5-15.9-13-18.3-14.6-5.7-3.6-11.8-3.8-14.8-.6-3.5 3.8-4.2 6.1-6.8 21.4-1.4 8.2-3.2 16.9-3.9 19.4-2.2 7.3-10.7 28-27.9 68.4-17.8 41.8-18.9 43.6-27.4 45.5-60.1 13.5-102.9 22.8-103.2 22.5-.2-.2.3-2.9 1.2-6.1s9.1-39.3 18.1-80.3c20.1-90.7 30.8-138 43.1-190.5 11-46.7 12-52.2 11.1-63-1.8-24.4-12.5-39.5-44.7-63.2-13.2-9.7-13.1-9.7-16.3-7.2zm-45.5 235.9c-6 24.5-17.3 70.8-25.1 103s-15.6 64.1-17.4 71l-3.1 12.5-52.5 11.7c-28.9 6.5-53 11.7-53.6 11.5-1.3-.2 8.8-16.4 92.9-148.7 67-105.4 69.1-108.6 69.5-106.7.1.6-4.7 21.2-10.7 45.7zm284.4 96.6c28.5 1.9 44.3 3.7 48.1 5.5 5.4 2.6 4.1 9.1-3.1 15.8-8.8 8.1-28.8 15.5-51.5 19-4.8.8-44.6 5.1-46.7 5.1-.7 0 13-37.7 14.6-40.3 2.6-4.2 7-6.7 11.6-6.7 2.2 0 14.3.7 27 1.6z"/><path d="m1289.7 240.1c-2.4 1.4-5 6.8-11.2 23.3-5.6 15.1-38.3 97.5-39.3 99-.3.5-1.5-1.8-2.6-5-8.8-24.1-41.8-43.8-102.4-61l-20.3-5.8-5.1-5.8c-6.7-7.7-14.1-13.3-26.9-20.4-5.7-3.1-14-7.8-18.4-10.4-9.8-5.8-11.9-6.5-15.4-5-3.8 1.5-5.7 5.3-8.2 15.6-4.1 17.7-7.3 27.3-17.4 52.4-29.7 74.1-67.6 150.6-126.6 255.7-16.7 29.8-27.8 51.2-32.4 62.8-4 10-4 19.3.1 27 3.1 5.9 25.7 30.3 35.7 38.7 6.4 5.3 11.1 6.3 15.5 3.2 5.4-3.7 19-29.7 45.2-86.4 6.7-14.6 17.5-37.3 24-50.5 12.5-25.3 43.8-82.4 48.4-88.1 3.8-4.7 7-6.2 24-10.5 18.6-4.8 60.8-18 82.6-25.7 40.7-14.6 64.6-26 78.5-37.5 2.7-2.3 4.6-3.7 4.3-3.2-.3.6-11 20.8-23.8 45s-36.3 68.5-52.3 98.5-30.5 57.9-32.4 62.1c-9.4 21.7-8.4 34 3.9 47.4 9.8 10.7 31.5 26.4 37.7 27.2 7.6 1 4.6 6.1 64.1-109.2 52.7-102.1 56-108.5 56.9-108.5 1 0 .4-1.2 45.6 95.6 22.1 47.4 41.9 88.7 44 91.8 4.9 7.4 12.7 14.4 17.1 15.2 9.5 1.8 11.6-.7 42.5-50.1 38.7-62.1 71.4-106.4 104-141.1 18.3-19.5 39.9-39.9 39.9-37.7 0 1-1.3 7-3 13.3-7.6 29.1-25.2 99.1-28.5 113.5s-3.7 17.1-3.3 26.5c.7 16.4 3.8 21.9 20.7 37.3 15.5 14.1 31.8 24 48.9 29.7 32.5 10.8 56.1 2.5 93.3-32.8 44.4-42.2 80.5-97.8 119.4-184.2 16-35.4 19.8-50.1 17.5-67.1-.6-4.4-1.3-8.6-1.6-9.4-.4-1 .8-.9 5.5.6 14 4.3 26.3 3.4 44-3.2 5.8-2.1 10.7-3.7 10.9-3.4.3.3-.7 3.7-2.2 7.7s-9.4 25.7-17.6 48.3c-8.2 22.5-27.8 76.5-43.5 120-18.5 50.7-29.1 81.4-29.7 85.6-1.3 8.4.8 17.3 5.7 24.5 6.3 9.1 43.3 41.8 54 47.6 5.6 3.1 6.7 3.3 15.5 3.3 8.9 0 10-.2 17.3-3.7 21.4-10.2 28.2-17.1 106.6-108.8 20.5-23.9 37.7-43.6 38.1-43.8.5-.2 6.8 6.4 14 14.7 18.3 21 26.4 26 40.3 24.9 6.6-.6 11.7-2.7 20.1-8.4 2.7-1.9 5.1-3.3 5.2-3.1.4.3-1.4 6.5-11.9 41.7-5.1 17.3-5.5 27.4-1.6 36 3 6.4 20.2 27.3 32.9 39.9 9.9 9.8 18.7 15.1 28.4 17.1 7.2 1.5 24.3.7 46.6-2.1 27-3.4 129.6-24.4 178.2-36.5 55.1-13.7 188.7-51.8 198.4-56.5 13.6-6.7 20.2-15.5 23.5-31.2 2.2-10.6 2.5-26.9.6-30.7-.7-1.5-2.9-3.1-5.3-3.9-3.7-1.3-4.7-1.2-14.4 1.6-105.8 30.9-177.1 49-271.5 69.3-65.5 14-79 16.4-114.1 20.1-25.5 2.6-29.1 2.3-32-3.3-2.2-4.3-1.3-8.9 5.3-28.2 4.6-13.4 25-67.4 29.8-79.1 1.2-2.8 3.6-4.5 15.7-11.1 35.9-19.5 95.5-57.9 129.3-83.2 12.8-9.6 31.8-28.6 37.9-37.9 7.9-12 10-18.2 10-29.3.1-8.9-.1-10-3.3-16.5-6.6-13.5-20-23.7-52.1-39.8-25.8-12.9-41.4-18-55.5-18-16.4-.1-25.1 4.7-45 24.7-15.9 15.9-26 29-37.8 48.6-14 23.5-33.6 65.7-48.8 105.4-2.9 7.7-4 9.4-7.9 12.3-5.4 4-46.8 24.8-47.7 24-1.1-1.1 5.8-28.9 11.3-45.8 7-21.2 15.8-39.2 31.3-63.9 15.8-25.2 25.3-43.9 25.9-51.3.8-10.4-2.9-16.3-15.5-24.9-8.3-5.5-38.5-23.9-44.4-26.9-8.6-4.3-11.4-1.9-17 14.9-2.3 7-5.4 15.5-7 19-1.5 3.4-14.2 23.4-28.2 44.5-39.2 58.9-65.8 96.8-91 129.5-16.6 21.5-67.9 85.2-70.8 87.9-3.6 3.2-7.1 3.4-8.2.3-1.2-3.3-3.2 1.8 50.3-125 23.8-56.4 44.1-105.1 45.1-108.3 2.2-6.9 2.4-14.5.5-19s-7.7-10.8-24-26c-24.1-22.6-28.1-25.7-32.4-25.7-5.1 0-7.1 1.6-12.8 10.5-3.9 6-6.2 8.4-10.9 11.4-25.8 16.3-54.5 22.5-80 17.2-13.2-2.7-26.8-8.4-59.9-25.1-16.3-8.3-30.8-15-32.1-15-3.3 0-5.7 2.7-4.9 5.4 1.3 4.1 7.2 12.3 20.1 27.7 14.2 17 16.9 21.6 18.6 31.4 1 5.7.8 7.7-1.2 16.7-7.1 31.7-21.8 69.3-44.7 114.8-21.5 42.7-39.6 69.2-64.4 94-18.8 18.9-36.6 32-43.5 32-4.4 0-5-2.2-3.7-13.3 4.2-37.9 20.6-93.1 41.1-138.7 14.9-33.1 45.6-85.6 53.5-91.4 6.4-4.8 13.8-5.7 25.6-3.1 8.5 1.9 8.7 1.8 11-.5 3.1-3.1 2.5-6.5-2.2-11.7-6.9-7.4-35.5-34.2-48.4-45.2-14.1-12-21.2-16.1-28-16.1-9.3 0-14.7 4.3-36.4 29.5-15.7 18.2-24.8 27.2-40.5 39.8-79.7 64.2-127.7 111-178.2 173.7-9.1 11.3-16.8 20.6-17.2 20.8-.4.1-10.7-22.8-23-51-12.4-28.2-22.6-51.6-22.7-51.9-.2-.3 11.7-6.1 26.4-12.9 61.9-28.5 83.2-41.4 103.6-63.1 12.8-13.6 18.3-23.2 17.1-29.6-1.4-7.5-17.1-20.1-38.7-30.9-20.2-10.1-34.5-15-68.6-23.5-27.6-6.8-32.9-9.2-59.7-26.4-25.9-16.6-31.2-19.1-35.8-16.4zm111.7 88.9c6.6.6 12.9 1.6 14 2.2 6.3 3.2 9.2 9.7 6.3 14.1-2.2 3.5-19.5 14.7-32.6 21.2-6.3 3.1-18 8.3-26 11.5-15.3 6.1-48.9 17.3-55.4 18.5l-3.7.7 1.8-4.3c5.9-13.7 21.8-49.2 24.2-53.9 2.7-5.4 5.5-8.5 9.5-10.9 2.3-1.4 42.4-.8 61.9.9zm928.2 2.4c17.9 8.3 17.5 29.8-.9 47.3-9.3 8.8-91.1 64.3-94.8 64.3-2.3 0 12.9-28.1 25.9-47.9 12.6-19.2 24.6-34.4 38.5-48.7 11.6-11.9 13.9-13.8 18.7-15.5 6.9-2.3 6.5-2.3 12.6.5zm-1157.9 13.2c7 5.2 9 12.2 5.3 19.3-2.3 4.7-6.1 7.9-14.6 12.7-9 5-50.2 22.5-65.9 28-13.2 4.6-33.6 10.6-34.1 10.1-.3-.3 22-48.7 28.2-61.2 4.6-9.4 4.4-9.3 30.4-10.4 12.4-.5 28.2-.8 35.2-.7 11.1.1 13 .3 15.5 2.2z"/></svg>