<svg xmlns="http://www.w3.org/2000/svg" width="2500" height="1250" style="border:dashed 2px #aaa" viewBox="50.834 98.428 93.57566666666665 21.901999999999987"><path fill="#" d="M50.834 108.9q0-.93.253-1.79t.759-1.539 1.264-1.08 1.757-.403q.615 0 1.36.184t1.402.547 1.094.923.437 1.285q0 .342-.116.52t-.472.178l-.15-.028q.396 1.067.683 2.188t.561 2.242q.11.219.164.39t.055.335q0 .218-.123.362t-.322.212-.41.095-.376.028q-.588 0-.882-.205t-.423-.56-.158-.8-.109-.896q-.164.533-.43 1.039t-.63.91-.854.642-1.107.239q-.903 0-1.518-.52t-.991-1.278-.547-1.62-.171-1.6zm1.941-.191q0 .506.069 1.066t.225 1.108.404 1.032.615.855q.67-.725.991-1.764t.574-2.003.575-1.654.99-.69q.425 0 .712.15-.137-.342-.451-.663t-.705-.588-.806-.438-.786-.17q-.11 0-.253.033t-.226.007q-.56.164-.923.568t-.588.95-.32 1.12-.097 1.081zm9.908-4.758q0-.642.253-.95t.923-.308q.396 0 .745.164t.349.698q.054.779.054 1.633t.15 1.62q.342-.56.773-1.12t.95-.999 1.135-.704 1.34-.266q.984 0 1.668.41t1.128 1.066.642 1.484.199 1.66q0 1.286-.39 2.1t-1.032 1.278-1.456.629-1.634.164q-.725 0-1.354-.28t-.875-1.06q0-.219.322-.274t.458-.054q.45 0 .67.246.164.191.362.39t.417.198q.424 0 .889-.24t.854-.628.656-.923.267-1.094q0-.478-.082-1.19t-.28-1.367-.547-1.134-.882-.479q-.807 0-1.456.738t-1.08 1.778-.67 2.16-.24 1.873.096 1.9.198 2.386.199 2.386.095 1.9q0 .192-.157.308t-.376.184-.444.082-.335.014q-.37 0-.773-.082t-.553-.506q-.192-.67-.356-1.907t-.294-2.734-.225-3.145-.164-3.179-.103-2.802-.034-2.024zm13.107 0q0-.642.253-.95t.923-.308q.396 0 .745.164t.348.698q.055.779.055 1.633t.15 1.62q.342-.56.773-1.12t.95-.999 1.135-.704 1.34-.266q.984 0 1.668.41t1.128 1.066.642 1.484.198 1.66q0 1.286-.39 2.1t-1.031 1.278-1.457.629-1.633.164q-.725 0-1.354-.28t-.875-1.06q0-.219.321-.274t.458-.054q.452 0 .67.246.164.191.363.39t.417.198q.424 0 .888-.24t.855-.628.656-.923.267-1.094q0-.478-.082-1.19t-.28-1.367-.547-1.134-.882-.479q-.807 0-1.456.738t-1.08 1.778-.67 2.16-.24 1.873.096 1.9.198 2.386.199 2.386.095 1.9q0 .192-.157.308t-.376.184-.444.082-.335.014q-.37 0-.773-.082t-.553-.506q-.192-.67-.356-1.907t-.294-2.734-.225-3.145-.164-3.179-.103-2.802-.034-2.024zm13.107 1.422q0-.56.328-.964t.8-.656 1.032-.376 1.039-.123q.369 0 .984.11t1.203.327 1.019.575.43.834q0 .218-.164.39t-.341.17q-.37 0-.67-.24t-.622-.505-.704-.506-.862-.24-.868.309-.39.813q0 .834.588 1.634t1.292 1.681 1.292 1.853.588 2.146q0 .506-.212.855t-.56.567-.786.335-.848.117q-.451 0-1.053-.212t-1.135-.56-.895-.814-.362-.971q0-.246.348-.315t.513-.068q.082 0 .253.055t.335.123.294.15.102.178q.137.164.417.485t.56.52.493.143.212-.615q0-1.066-.574-1.962t-1.251-1.75-1.251-1.695-.574-1.798zm9.634 3.2q0-1.259.294-2.469t.499-2.413q.054-.314.43-.39t.636-.074q.451 0 .725.136.11.055.205.123t.096.178q0 1.176-.28 2.297t-.281 2.379q0 .424.062.8t.116.745l.082.396q0 .11.013.192t.041.191q0 .246-.348.335t-.609.089q-.396 0-.731-.157t-.526-.54l-.192-.397q-.164-.314-.164-.704t-.068-.718zm.875-8.231v-.26q0-.643.321-1.148t.964-.506q.082 0 .157.013t.157.014q.164.027.431.13t.267.321v.028q-.055.109-.069.225t-.068.198l.027-.027-.266.684q-.102.26-.226.417t-.308.225-.526.069q-.055 0-.191-.014t-.294-.055-.267-.11-.11-.204zm5.095 9.119q0-.957.212-2.256t.718-2.46 1.333-1.976 2.085-.814q1.175 0 1.763.677t.588 1.825q0 .752-.28 1.647t-.8 1.696-1.23 1.333-1.586.533l-.356-.027q0 .369.11.99t.32 1.238.548 1.08.813.465q.697 0 1.34-.56t1.217-1.245 1.066-1.244.903-.56q.218 0 .45.068t.26.383q0 .191-.102.314t-.185.274q-.423.724-.922 1.38t-1.128 1.19-1.374.84-1.648.309q-1.176 0-1.955-.417t-1.258-1.122-.69-1.626-.212-1.935zm2.447-1.04l.383.343q.273.246.547.109t.492-.499.403-.895.328-1.094.212-1.094.069-.889v-.465l-.041-.492-.144-.39-.321-.198q-.068-.013-.123-.013-.465 0-.793.588-.356.656-.574 1.592t-.315 1.921-.123 1.477zm8.978-3.349q0-.56.198-.943t.841-.383q.246 0 .615.075t.424.376q.137.807.15 1.75t.096 1.778q.315-.616.807-1.327t1.121-1.312 1.367-.998 1.504-.397q.055 0 .205.041t.28.117.158.17-.15.178q-.055.164-.233.199t-.315.034q-.082 0-.26-.069-1.011.534-1.722 1.45t-1.162 2.03-.656 2.351-.205 2.413q0 .588-.267.711t-.855.123q-.314 0-.663-.068t-.485-.437q-.246-.78-.403-1.791t-.24-2.085-.116-2.113-.034-1.873zm9.716 0q0-.56.198-.943t.841-.383q.246 0 .616.075t.423.376q.137.807.15 1.75t.096 1.778q.315-.616.807-1.327t1.121-1.312 1.367-.998 1.504-.397q.055 0 .205.041t.28.117.158.17-.15.178q-.055.164-.233.199t-.314.034q-.082 0-.26-.069-1.012.534-1.723 1.45t-1.162 2.03-.656 2.351-.205 2.413q0 .588-.267.711t-.854.123q-.315 0-.663-.068t-.486-.437q-.246-.78-.403-1.791t-.24-2.085-.116-2.113-.034-1.873zm9.716 3.828q0-.93.253-1.79t.76-1.539 1.264-1.08 1.757-.403q.615 0 1.36.184t1.401.547 1.094.923.438 1.285q0 .342-.117.52t-.471.178l-.15-.028q.396 1.067.683 2.188t.56 2.242q.11.219.165.39t.054.335q0 .218-.123.362t-.321.212-.41.095-.376.028q-.588 0-.882-.205t-.424-.56-.157-.8-.11-.896q-.164.533-.43 1.039t-.63.91-.854.642-1.107.239q-.902 0-1.518-.52t-.99-1.278-.548-1.62-.17-1.6zm1.942-.191q0 .506.068 1.066t.226 1.108.403 1.032.615.855q.67-.725.992-1.764t.574-2.003.574-1.654.991-.69q.424 0 .711.15-.137-.342-.451-.663t-.704-.588-.807-.438-.786-.17q-.11 0-.253.033t-.225.007q-.561.164-.923.568t-.588.95-.321 1.12-.096 1.081z"/></svg>