<svg clip-rule="evenodd" fill-rule="evenodd" height="1458" image-rendering="optimizeQuality" shape-rendering="geometricPrecision" text-rendering="geometricPrecision" viewBox=".01 -1.49 2057.3 1199.53" width="2500" xmlns="http://www.w3.org/2000/svg"><path d="m828.44 115.67c125.64 90.53 255.77 218.56 275.5 379.92 12.79 104.57-24.99 205.06-84.4 289.69-74.05 105.48-200.3 167.43-324.99 188.49-68.11 11.51-138.34 11.55-206.41-.34-69.75-12.18-137.04-36.98-197.12-74.59-80.61-50.45-141.52-119-194.55-197.08-52.79-77.73-85.39-168.59-88.66-262.82-3-86.13 14.95-168.85 60.32-242.71 70.5-114.78 218.85-192.59 352.31-195.92 72.1-1.8 144.38 3.99 214.21 22.73 70.21 18.84 134.86 50.16 193.8 92.63z" fill="#201e1e"/><path d="m816.91 131.67c120.72 86.98 248.48 211.12 267.46 366.31 12.22 99.91-24.25 195.18-80.97 275.96-70.96 101.06-192.75 160.21-312.14 180.38-65.89 11.13-133.88 11.18-199.73-.32-67.25-11.75-132.11-35.62-190.05-71.88-78.35-49.04-137.17-115.57-188.7-191.45-50.7-74.65-82.12-161.92-85.27-252.43-2.86-82.38 14-161.03 57.41-231.7 66.99-109.07 209.23-183.37 336-186.52 70.24-1.75 140.57 3.8 208.6 22.06 68.01 18.25 130.29 48.44 187.38 89.58z" fill="#fff"/><path d="m805.27 147.83c-55.26-39.82-115.11-68.85-180.91-86.5-66.22-17.77-134.57-23.09-202.94-21.39-3.35.08-6.71.22-10.09.41-1.44 4.5-2.93 9.25-4.46 14.24-14.05 45.67-14.09 55.17-14.98 64.95-.89 9.77-1.71 22.26-9.62 21.02s-8.23-12.85-8.23-12.85-1.3-9.52 3.24-34.39c2.57-14.09 10-35.53 15.96-51.47-62.63 6.83-127.68 30.8-183.16 67.16-4.09 28.83-8.23 70.34-4.14 101.62 6.95 53.08 25.69 126.32 63 204.41s134.64 201.28 134.64 201.28-29.5-21.2-71.06-75.74-65.84-94.25-98.58-163.71c-32.75-69.46-45.57-142.39-47.53-169.79-1.12-15.66.42-53.38 1.95-82.83-34.9 26.22-64.89 57.58-86.46 92.72-12.25 19.95-22.26 40.52-30.21 61.63.27 4.17.71 8.27 1.35 12.28 8.49 52.86 45.61 137.56 85.18 214.53s81.34 134.49 136.27 198.11c0 0-30.11-20.33-73.24-73.64s-65.86-93.12-100.62-161.59c-29.82-58.75-53.3-118.04-61.11-150.97-9.85 38.66-13.54 78.88-12.1 120.23 3.02 86.76 33.25 170.39 81.84 241.93 50.02 73.65 106.72 138.14 182.79 185.75 55.77 34.91 118.17 57.83 182.91 69.14 49.94 8.72 83.39 42.19 133.94 37.5 85.51-7.95 45.38-34.89 59.05-37.2 114.02-19.26 231.33-75.59 299.15-172.19 53.99-76.9 190.86-155.75 179.22-250.97-2.78-22.74-109.78-55.94-117.14-77.31-28.23-81.94-87.07-153.64-153.07-213.42-50.55-19.28-124.63-43.93-209.25-60.66-157.92-31.22-276.47-7.69-276.47-7.69s-10.01 2.86-13.28-3.47-1.16-11.3 15.31-15.52 110.18-15.23 202.63-2.61c86.61 11.83 169.64 32.52 242.69 57.06-17.44-14.18-35.06-27.55-52.45-40.09z" fill="#201e1e"/><path d="m278.69 811.17s4.97 2.49 16.42-10.45c11.44-12.94 18.66-17.16 34.33-20.89s54.1-25.25 61.57-30.22c7.46-4.97 10.45-5.97 18.41-11.57s13.18-10.94 24.13-7.84c10.94 3.11 15.43 1.92 29.6 2.86 14.18.94 39.47 3.75 67.82 5.62 33.95 2.24 46.04-48.8 44.78-83.04l-4.04-109.52s-4.48-24-5.16-44.45c-.68-20.46-1.23-47.05-6.82-58.78s-6.55-16.91-6.68-35.32c-.14-18.41-12.14-64.78-16.64-75.15s-8.18-49.37-8.18-49.37-.94-6.36 5.92-8.22 20.96-3.28 36.88-2.8c15.93.48 30.65 1.21 47.9-1.21 17.25-2.41 30.41-2.89 42.47-2.17 12.07.72 25.22 2.65 42.11 2.29s31.85-4.34 45.85-4.71c14-.36 24.64 6.54 31.89 8.54 7.24 2 18.21 2.21 20.84.48 2.62-1.73 3.17-4.62 1.31-7.52s-2.76-4-2.76-4 12.56 1.73 15.11 3.04 9.31 8.14 14.42 6 3.59-6.56 1.73-7.66-6.9-4.9-6.9-4.9 10.92-1.22 12.76-3.1 1.66-5.93-.59-8.33-8.93-1.97-8.93-1.97 1.15-4.62-1.33-4.9c-2.48-.29-8.88-.8-15.46-.11s-16.79 1.38-29.36-.17c-12.57-1.56-50.13-5.82-65.52-8.88-15.39-3.05-28.88-6.74-48.85-5.98s-47.2 5.85-70.35 5.34-39.05-2.54-62.04-9.66-35.13.72-49.68 7.92c-14.56 7.19-21.25 11.88-30.62 12.05s-12.34 1.59-10.44-2.38 11.78-13.82 11.69-22.14-2.86-8.75-6.58-12.48c-3.73-3.72-7.11-7.45-10.57-15.68-3.47-8.23-1.21-9.27-7.8-12.13s-8.15-1.47-15.86-7.88-7.02-8.84-14.73-9.44c-7.71-.61-9.18.09-11.18-4.94-1.99-5.02 1.3-4.07-4.16-7.28s-9.62-5.29-9.62-5.29-2.51-1.82-4.51.87c-1.99 2.69-5.5 5.94-10.54 9s-9.75 7.81-13.94 18.41c-4.18 10.59-7.96 22.66-8.75 36.11s-3.78 26.98 6.24 32.96 22.15 7.73 32.08 12.74 17.22 11.86 18.02 14.15c.79 2.29 2.35 7.46-4.12 10.5-6.47 3.03-10.41 6.26-20.72 6.06s-31.33 3.33-38.31 2.73c-6.97-.61-29.41-4.85-43.16-9.2s-23.96-5.05-20.01-23.96c3.94-18.9 18.5-49.32 20.92-61.76 2.43-12.43 3.94-17.08 3.44-31.94-.51-14.86 2.63-26.58 5.86-34.06s11.14-28.79 5.14-30.36c-10.65-2.66-20.55 15.04-22.35 21.74-1.81 6.7-2.94 9.92-2.94 9.92s-.41 3.45-4.37 1.47-8.85-2.17-10.7.25c-1.86 2.41.24 7.89.48 12.8.25 4.91 1.96 30.97.42 35.61-1.55 4.64-1.23 7.46-13.15 27.56-11.91 20.11-24.04 57.02-27 65.55-2.96 8.52-3.86 17.68-3.86 17.68s-.81 3.95 3.68 8.97c4.49 5.03 11.33 13.59 31.19 20.41 19.87 6.82 40.19 18.05 47.16 17.89 6.98-.15 40.4 2.78 51.22 11.75 10.81 8.97 35.13 37.53 42.65 42.67s18.46 17.14 22.82 27.43c4.35 10.29 4.93 18.55 7.76 25.76 2.84 7.21 6.29 7.59 4.6 16.65-1.69 9.05-5.66 23.09-4.04 48.54s5.44 46.05 7.21 58.41 3.53 15.3.74 29.87c-2.8 14.57-2.54 48.77-2.54 48.77s.26 6.4-5.97.94c-6.22-5.46-18.59-12.91-34.46-18.47s-38.04-9.34-42.27-18.31-3.04-11.2-1.63-21.21 2.15-18.46-4-22.84-14.46-4.67-25.06-1.56c-10.6 3.12-16.02 7.41-24.54 10.08-8.53 2.67-19.87.67-26.99 4.15-7.12 3.49-12.02 11.72-12.91 21.07-.89 9.34-.22 20.02 8.75 24.4s21.8-.15 28.18 2.82 12.24 5.04 21.58 8.82 19.51 9.05 34.93 24.7c15.43 15.65 35.52 28.7 35.52 28.7s2.6 1.26-.96 3.26-21.88 11.27-21.88 11.27-4.45 3.71-12.68-2.67-12.46-14.09-19.21-17.21-15.72-7.79-21.95 1.78-12.8 38.02-19.31 51.92c-6.5 13.9-13.87 30.85-16.55 38.56s-5.04 18.3-1.24 26.03c3.79 7.73 8.97 10.18 8.97 10.18z" fill="#fff"/><path d="m1116.67 545.75c-2.24-7.67-3.74-15.66-4.43-23.87-30.65 12.89-61.61 27.23-90.86 42.45-12.23 6.37-26.14 5.22-37.16-3.08-11.02-8.29-15.98-21.34-13.25-34.85l45.04-223.12c3.28-16.25 17.03-27.72 33.6-28.03 50.14-.96 100.37-1.38 150.51-1.3 37.49.06 75.09.36 112.56 1.7 22.51.81 56.48 1.41 77.98 7.38 30.81 8.56 59.21 19.6 84.04 35.51 4.29-7.61 10.96-14.49 18.38-19.12 5.84-3.69 11.69-5.36 18.6-5.36h207.19c10.19 0 18.96 3.87 25.83 11.4s9.92 16.62 8.98 26.77l-4.15 45.02 41.18-66.64c6.48-10.49 17.01-16.44 29.33-16.58l183.2-2.13c.44-.01.82 0 1.22.01 20.78.47 41.79 10.46 47.66 32.21 5.19 19.22 2.24 31.94-9.37 48.27-6.09 9.09-11.88 18.78-17.69 28.06-13.56 21.66-27.08 43.35-40.6 65.04-39.24 62.98-78.41 126.01-117.58 189.03-56.06 90.23-112.12 180.47-168.11 270.74-.59.96-1.14 1.75-1.82 2.65-5.98 7.92-15.18 20.3-23 25.71-1.07.74-2.14 1.5-3.22 2.22-6 4-12.18 5.87-19.39 5.87h-168.81c-31.21.78-48.08-28.23-48.08-56.7 0-17.28 1.09-35.2 1.8-52.49 1.23-30.27 2.56-60.53 3.9-90.79 1.31-29.45 2.62-58.9 3.97-88.35-23.39 18.16-48.94 33.77-76.6 46.92-52.69 25.05-120.14 42.96-179.5 47.72l-35.6 165.63c-3.5 16.29-17.52 27.61-34.18 27.61h-191.72c-10.06 0-18.81-3.8-25.51-11.05-8.42 7.4-20.14 11.66-35.48 12.71-11.82.82-24.38.67-36.24.77-18.97.17-37.95.22-56.92.25-25.74.04-51.49.02-77.23-.04-1.91-.01-3.55-.14-5.44-.44-24.8-3.97-44.65-24.83-42.73-50.97.97-13.21 1.87-26.45 2.73-39.69l-38.46 72.18c-6.31 11.84-17.9 18.69-31.32 18.52l-133.03-1.78c-8.67-.12-16.56-3.22-22.62-8.56-12.94 11.71-31.54 15.9-48.53 10.35-28.99-9.47-36.08-40.96-22.95-65.35.2-.36.37-.67.58-1.03l349.43-599.59c6.47-11.1 17.53-17.42 30.37-17.36l194.68.94c10.03.05 18.64 3.83 25.46 11.18s9.95 16.22 9.25 26.22l-18.47 264.08c-.84 12.06-7.14 22.03-17.66 27.99-7.07 4-14.14 8.01-21.22 12.03 5.89.59 11.61 2.77 16.8 6.48 10.22 7.31 15.47 18.54 14.52 31.07l-3.3 43.58 15.4-81.09c2.37-12.48 10.51-22.03 22.46-26.35 36.39-13.15 73-26.05 109.66-38.41 11.97-4.04 23.94-8.08 35.91-12.13z" fill="#201e1e"/><path d="m447.38 926.76s52.94-41.85 89.33-67.25 108.09-71.8 114.12-75.64 9.59-5.48 9.59-5.48l-80 150.14-133.03-1.78zm244.17-166.05s33.35-17.38 90.04-46.66c56.68-29.28 120.1-56.53 120.1-56.53l-19 251.15c-.78 10.29-.56 18.06-19.53 19.37s-167.9.9-167.9.9-14.23-2.37-13.38-13.89 9.69-154.33 9.69-154.33zm810.27-415.62s1.03-5.15 3.3-9.27 6.59-6.8 6.59-6.8h207.19l-17.82 193.19 119.4-193.23 183.2-2.13s13.08.26 14.73 6.37 3.11 8.81-4.27 19.12-345.03 554.48-345.03 554.48-12.29 16.16-15 18.04l-2.72 1.88h-169.38s-12.55.58-12.55-21.74c0-22.33 11.37-267.53 11.37-267.53s58.41-43.81 72.63-111.44c14.22-67.64 2.31-104.91-9.61-129.89-11.91-24.98-42.03-51.06-42.03-51.06zm-518.83 284.08s62.1-22.37 108.94-38.15c46.84-15.79 72.1-24.47 72.1-24.47s140.55-42.43 117.42-103.57c-23.14-61.14-276.21 70.35-276.21 70.35l45.04-223.12s287.43-5.6 331.04 6.51 98.36 32.46 129.37 90.61c31.01 58.14 8.72 128.4-14.54 161.35s-65.87 83.09-143.61 120.05-158.66 43.97-173.95 44.92c-15.29.96-19.12.96-19.12.96l-41.2 191.7h-191.72l56.44-297.13zm-599.41 285.56 349.43-599.59 194.68.94-18.47 264.08s-163.43 92.3-263.54 156.87-243.27 188.5-243.27 188.5-6.14 7.9-15.81 4.74-3.02-15.54-3.02-15.54z" fill="#1897d4"/><path d="m1234.14 424.12c48.25 0 87.37 39.12 87.37 87.37s-39.12 87.37-87.37 87.37-87.37-39.12-87.37-87.37 39.12-87.37 87.37-87.37z" fill="#201e1e"/><path d="m1234.14 432.49c43.63 0 79 35.37 79 79s-35.37 79-79 79-79-35.37-79-79 35.37-79 79-79z" fill="#fff"/><g fill="#201e1e"><path d="m1271.42 570.06c1.96-.42 10.35-7.32 12.25-9.15 4.78-4.63 7.9-8.68 11.3-14 .91-1.42.78-3.88.9-5.86 1.05-17.31-2.15-35.1-10.06-51.13-1.41-2.86-5.04-10.21-7.22-12.45-3.45 1.04-16.36 9.34-19.26 12.28 15.98 26.34 17.84 50.13 12.09 80.31zm-28.54-5.91c1.01-3.99.1-19.04-.96-22.82-26.75.13-57.23-9.68-75.61-29.8-.6 1.9.82 10.35 1.23 12.73 1.09 6.26 3.91 13.75 7.09 19.54.64 1.17 4.5 3.52 5.77 4.32 17.67 11.16 36.05 16.1 56.75 16.35zm-57.31-74.4c2.87 2.47 15.77 9.4 19.67 10.37.55-.62 1.77-3.09 2.35-4.07 9.66-16.45 26.95-31.48 44.04-39.49 3.12-1.46 5.91-2.64 9.01-3.84 1.53-.6 2.94-1.05 4.48-1.58 1.07-.36 3.59-.96 4.46-1.43-9.28-6-21.51-8.13-32.44-8.71-1.64-.09-11.64 5.62-13.61 6.87-16.83 10.73-26.38 22.21-36.44 39.03-.41.8-1.01 2.19-1.52 2.86zm26.12 12.7c7.32 1.88 13.34 3.63 20.99 4.34 2.17.2 1.05.68 4-3.19 12.81-16.76 29.08-29.07 48.92-36.3.85-.31 3.05-.85 3.58-1.34-3.5-4.02-5.63-6.24-9.64-9.53-1.97-1.61-2.03-1.92-3.38-1.54-6.12 1.76-7.88 1.95-14.33 4.43-15.77 6.07-31.43 17.13-42.09 30.86-1.73 2.23-7.71 10.29-8.06 12.26zm35.67 76.38.76.08c2.65-.19 11.83-3.15 14.45-4.28 1.09-.47.8-.41 1.45-2.61 1.33-4.49 2.73-11.27 3.33-15.98 2.51-19.96-2-44.9-13.13-61.96-4.39 4.23-10.78 11.03-14.26 16.18-.73 1.08.04 1.56 1.12 4.2 7.73 18.92 8.75 31.51 8.46 51.14-.18 2.25-1.43 12.02-2.17 13.23zm-80.76-76.4c14.95 16.27 33.33 26.54 54.98 30.72 4.56.88 14.6 2.16 18.99 1.53l-1.3-5.43c-1.31-4.57-3.01-9.33-4.93-13.72-.73-1.66-.02-2.05-4.16-2.36-23.01-3.08-42.22-11.16-59.62-26.8-1.75 2.05-3.23 12.36-3.96 16.05zm73.76 77.36c.73-1.86 1.55-6.72 1.77-8.81-19.77-.31-29.6-.88-49.07-8.77l-7.06-3.14c3.64 4.04 8.97 7.98 13.24 10.64 9.4 5.85 19.6 8.88 30.56 10.07 2.47.08 8.36.56 10.58.01zm-67.02-100.03c.99 1.26 5.7 5.69 6.89 6.01 1.01-1.58 1.96-3.77 3.02-5.56 7.51-12.7 17.37-24.04 29.28-32.8 1.99-1.47 4.3-2.81 6.15-4.25-3.01.31-10.74 3.46-13.68 4.96-12.01 6.12-21.73 14.56-28.72 26.2-.79 1.31-2.56 4.22-2.93 5.45zm129.31 49.27c7.72-16.46-.26-42.49-9.07-57.16-.86-.12-7.64 2.23-8.79 2.83 8.47 11.82 15.83 32.89 17.18 47.48z"/><path d="m84.06 1163.5v-23.16c-7.85 4.64-16.14 6.38-25.61 6.38-19.99 0-26.22-13.02-26.22-30.9 0-19.64 7.89-32.6 29.04-32.6 9.24 0 15.59 2.01 22.8 6.34v-25.66c-7.21-2.68-16.09-4.5-26.62-4.5-16.99 0-30.58 3.59-41.23 14.36-10.65 10.78-16.21 24.42-16.21 41.75 0 16.27 4.72 29.29 14.22 39.07 9.47 9.77 22.48 14.65 39.01 14.65 12.68 0 22.97-1.91 30.83-5.72zm115.22 3.84h-31.23l-5.75-18.72h-36.08l-5.16 18.72h-31.97l34.99-106.27h40.1l35.09 106.27zm-42.23-40.76-12.75-43.38-12.93 43.38zm150.94 40.76h-36.28l-19.54-34.06-18.91 34.06h-33.98l33.72-53.93-31.22-51.03h35.68l17.04 30.35 14.87-29.98h35.34l-31.08 50.71 34.35 53.88zm39.22-104.29c0 35.26-.06 68.82.07 104.19h-30.17c-.5-36.08-.26-68.1-.26-104.19zm118.71 104.29h-31.88l-5.88-18.65h-34.15l-6.73 18.65h-31.47l35.49-104.79h39.02zm-42.22-40.69-12.45-41.98-12.16 41.98zm48.57 39.73v-24.19c4.52 3.82 39.3 8.71 45.79 3.04 3.61-3.15 3.59-6.12 3.42-8.61-.38-5.67-7.16-9.25-13.58-9.47-9.54-.33-24.09-2.35-33.35-13.77-6.31-7.77-6.37-25.21-1.53-33.93 6.76-12.16 15.96-14.67 28.81-17.77 6.34-1.53 39.91-2.31 45.05-.33v26.18c-10.2-3.88-37.4-5.76-43.32-.57-2.47 2.17-4.32 5.8-1.97 8.92 7.14 9.46 26.25 6.13 36.2 12.02 12.78 7.57 14.67 15.82 14.67 29.51 0 15.9-12.48 27.75-27.15 30.88-9.64 2.05-44.85 1.33-53.06-1.92zm127.59.97v-105.45h36.31c38.3 0 57.44 14.7 57.44 49.93 0 16.87-3.01 32.76-13.45 42.84-10.45 10.08-26.59 12.68-43.99 12.68zm28.34-82.25.3 61.33h6.1c20.87 0 30.33-11.34 29.11-34.32-1.01-19.11-9.14-27.01-29.56-27.01h-5.94zm128.89 84.14c-15.45 0-28.03-5.05-37.76-15.14-9.73-10.11-14.58-23.26-14.58-39.48 0-17.12 4.93-30.97 14.81-41.54s22.95-15.89 39.24-15.89c15.4 0 27.85 5.08 37.35 15.19 9.5 10.13 14.25 23.49 14.25 40.05 0 17.02-4.93 30.77-14.78 41.18-9.83 10.42-22.69 15.63-38.53 15.63zm1.05-91.03c-8.52 0-15.3 3.2-20.3 9.64-5 6.42-7.52 14.91-7.52 25.48 0 10.73 2.52 19.21 7.52 25.48 5.01 6.24 11.58 9.36 19.69 9.36 8.39 0 15.02-3.04 19.94-9.1 4.9-6.09 7.37-14.49 7.37-25.27 0-11.24-2.39-19.98-7.14-26.23-4.78-6.24-11.3-9.36-19.56-9.36zm280.88 42.24c0 32.51-15.09 48.79-45.25 48.79-32.05 0-48.77-9.76-48.77-47.66v-58.69h29.78v58.97c0 31.83 33.74 35.86 33.74.9v-59.87h30.51v57.55zm92.61 46.91h-75.37v-104.46h32.1v82.92h43.27zm100.33-111.01-38.77 141.69h-25.31l38.52-141.49 25.57-.2zm137.9 111.01h-33.03l-8.38-19.25c-5.63-12.94-6.99-12.16-12.96-12.16h-6.55v31.41h-29.72v-104.87h43.92c61.82 0 48.18 57.27 30.02 66.06-1.3.63-1.23.82-1.05 1.34 5.27 9.83 13.62 31 17.74 37.47zm-60.91-81.73v30.07h10.52c21.47 0 25.1-30.07.44-30.07zm-456.19 80.75v-24.19c4.52 3.82 39.3 8.71 45.79 3.04 3.61-3.15 3.59-6.12 3.42-8.61-.38-5.67-7.16-9.25-13.58-9.47-9.54-.33-24.09-2.35-33.35-13.77-6.31-7.77-6.37-25.21-1.53-33.93 6.76-12.16 15.96-14.67 28.81-17.77 6.34-1.53 39.91-2.31 45.05-.33v26.18c-10.2-3.88-37.4-5.76-43.32-.57-2.47 2.17-4.32 5.8-1.97 8.92 7.14 9.46 26.25 6.13 36.2 12.02 12.78 7.57 14.67 15.82 14.67 29.51 0 15.9-12.48 27.75-27.15 30.88-9.64 2.05-44.85 1.33-53.06-1.92zm528.87 0v-24.19c4.52 3.82 39.3 8.71 45.79 3.04 3.61-3.15 3.59-6.12 3.42-8.61-.38-5.67-7.16-9.25-13.58-9.47-9.54-.33-24.09-2.35-33.35-13.77-6.31-7.77-6.37-25.21-1.53-33.93 6.76-12.16 15.96-14.67 28.81-17.77 6.34-1.53 39.91-2.31 45.05-.33v26.18c-10.2-3.88-37.4-5.76-43.32-.57-2.47 2.17-4.32 5.8-1.97 8.92 7.14 9.46 26.25 6.13 36.2 12.02 12.78 7.57 14.67 15.82 14.67 29.51 0 15.9-12.48 27.75-27.15 30.88-9.64 2.05-44.85 1.33-53.06-1.92z" fill-rule="nonzero"/></g><path d="m1538.36 1083.82h474.29v18.32h-474.29zm0 35.5h474.29v6.16h-474.29z" fill="#dc6b4b"/></svg>