<svg height="1406" viewBox="0 0 2048 1152" width="2500" xmlns="http://www.w3.org/2000/svg"><path d="m0 0h2048v1152h-2048z" fill="#fcfdfc"/><path d="m440 184h6l12 36 22 59 13 35 18 46 10 24 7 13 5 5 8 3 6 1 1 4 14-6 4-5 3-10 2-19v-148l-3-16-5-6-10-3-5-1v-7l38-1 42-3h19l16 3 16 6 14 9 9 9 8 14 3 10v18l-4 13-6 10-9 10-11 8-16 8 2 5 10 16 10 14 10 15 9 12 8 10 11 13 10 10 15 11 12 5 13 4v5l-3 1h-17l-15-4-17-8-14-10-10-9-8-7-7-8-13-16-26-36-11-16-1-3-28-1-11-1 1 58 1 19 3 17 4 5 18 6 1 5-1 1h-10l-10-1h-36l-18 1-2-2-6-1h-46l-17 1-1-1v-5l9-3 6-3 2-3v-7l-5-16-9-26-6-16-21-1h-44l-17 2-15 38-6 18 1 6 1 3 4 2 13 4 8 2v6h-11l-12-1h-44v-5l14-7 7-8 10-19 12-27 14-34 17-41 16-38 12-31 6-18z" fill="#f18830"/><path d="m1513 520h15l16 3 17 7 12 8 12 11 9 10 7 11 6 12 5 14 3 14 2 17v18l-2 15-4 13-7 14-6 9-5 5-10 9-13 7-13 4-12 2h-9l-13-2-15-4-13-7-14-10-14-14v-2h-2l-12-20-8-18-4-17-1-9v-25l3-14 3-10 7-13 4-6 9-10 5-5 8-6 15-7z" fill="#fdfefd"/><path d="m1286 510h31l13 3 13 5 11 6v2l5 2 4 5 5 5 7 14 2 10v14l-4 13-7 11-8 9-9 7-16 8h-2l6 9v3h2l4 7 8 11 9 14 8 11 6 8v2h2l2 5h2l11 14 11 10 6 4v2l6 2 6 4 11 4 7 2 1 4-4 2h-13l-17-4-14-7-13-9-13-11-13-13-11-14-13-17-14-20-12-17-5-2-24-1-9-2v49l1 24 1 11 3 9 5 5 16 6 1 2-1 3h-9l-13-1h-34l-16 1-2-2v-3l16-7 3-4 3-10 2-24v-134l-2-16-3-9-5-2-12-3-1-5 1-1 27-1 32-2z" fill="#adcf47"/><path d="m1537 184h7l13 40 39 104 12 30 11 27 6 11 4 5 10 4 6 2v6h-51l-18 1-1-1v-5l8-3 7-3 2-4-2-12-8-24-10-27-3-1-20-1h-42l-17 2-15 37-6 17v6l3 5 8 4 15 4 1 1v5h-11l-12-1h-44v-5l14-7 6-7 12-23 12-27 8-20 15-36 13-31 15-36 10-28zm-649-1 2 1 12 36 15 41 15 40 18 47 14 34 9 17 6 4 11 3 1 1v6h-51l-18 1v-7l13-4 3-4-1-11-7-21-9-25-2-5v-3l-21-1h-47l-15 2-17 43-4 12 1 7 5 5 12 4 9 2v6h-11l-13-1h-43v-5l14-7 6-7 9-16 14-31 13-32 15-36 16-38 11-27 10-29zm-319 328h20l17 3 18 6 19 10 14 11 10 10 8 10 10 17 3 7v3l-8 2-6 2-48 1h-78l-20-2-42-2-13-4-3-3 1-5 9-16 11-13 13-12 15-10 17-8 13-4 10-2z" fill="#f18830"/><path d="m1517 508h28l18 4 13 5 13 7 17 12v2l4 2 4 5 5 5 8 11 8 16 6 20 2 17v17l-3 18-6 18-9 16-5 8h-2l-2 4-5 5-6 7-4 3h-2v2l-7 5-22 11-17 5-16 2h-26l-21-5-16-7-11-7-13-11-10-11v-2h-2l-9-15-9-19-5-23-1-8v-11l2-16 4-15 8-17 7-11 6-8 5-5 7-6 5-5 5-2v-2l17-10 15-6 17-4zm-4 12-19 4-16 8-11 8-7 8-5 6-8 16-3 8-3 12-1 8v25l3 16 4 12 8 17 7 11 3 5h2l2 4 14 14 12 8 16 8 17 4 8 1h9l13-2 12-4 13-7 12-11 7-9 6-10 5-12 3-16 1-9v-17l-2-16-3-14-6-16-8-15-9-12-12-12-13-9-10-5-10-4-16-3zm-608-12 4 4 6 19 6 18 6 17 5 12 5 15 4 10 5 14 5 12 6 17 5 13 5 12 6 16 6 13 7 14 5 6 11 4 4 2-1 5h-49l-17 1-1-2 2-5 10-3 4-3v-10l-6-19-7-20-6-15-8-1h-63l-9 1-6 16-8 21-5 12-1 8 2 5 7 5 17 5v5h-10l-19-1h-35v-5l13-7 8-9 9-19 7-15 4-8 6-16 5-11 6-16 6-13 6-16 4-8 5-13 15-36 8-23 2-6zm209 1h27l25 5 13 4v-2l8-5 3 1 3 29 2 16-1 6h-3l-7-12v-2h-2l-2-5-4-2-5-5-9-7-10-5-16-4-14-1h-12l-16 3-16 6-11 6-7 6h-2l-1 3-6 5-8 10-11 22-4 15-2 13v18l3 18 5 15 8 15 10 14 1 3 4 2 4 5 15 11 14 7 17 5 12 1h17l16-3 12-5 10-6 2-5 1-8v-37l-1-12-3-9h-2v-2l-4-1-15-2h-15l-1-5 2-3 54-1 23-1v7l-9 4-3 10v58l2 11 2 4 3 1-2 4-16 4-18 3-22 3-11 1-13 1h-11l-17-1-16-3-16-5-14-6-15-10-12-11-11-14-10-19-6-19-2-16v-18l3-17 6-18 9-16 6-8h2l2-4 9-9h2v-2l15-10 13-7 21-7 14-3z" fill="#adcf47"/><path d="m521 637h96l23 1h18l36 2 61 2 16 8v1h-13v2l11 1 12 3h-2l-1 3-14-3v2l5 1 11 4v2h-27l-2 1-17 1-10 1h-8l-7-2 2-2-1-1-6 1-5-1-20-1-23 2-17-1-6-2v-2l-11 3-9 1-10 1h-12v2l15 1 7 2-2 2h-21l-59 1-4 1h-7l-6-3-1-2-2 1-6-3v-4l10-1-4-1-42 1-3 2-14 1-7 2 7-1h14l-1 3-14 2 6 1-1 2-19 2-26 3-31 6-14-2-12-2-3-1v2l3 1-3 3-8-4-10-6 1-2 5-2-2-1 8-6 8-1 14-5 5-2 10-1 8-2 16-1 20-4 7-3 15-4 15-2h16l13 3 9 1 1-2h10l-9-1-2-2 5-1z" fill="#adcf49"/><path d="m1033 188h21l2 6-10 2-13 4-6 5-3 10-2 21-1 45 1 58 2 19 3 11 6 12 5 6 11 7 18 6 15 3h21l18-3 14-4 17-9 7-6 6-10 4-13 4-27 2-30v-72l-2-16-3-9-5-5-7-2-11-1-2-6 7-2h57l5 1v7l-16 3-5 5-1 6-1 19-2 65-3 42-4 24-5 16-4 8-9 10-9 7-15 7-21 6-27 3h-16l-22-3-16-5-14-7-10-9-7-7-8-16-3-11-1-7v-102l-1-24-3-21-2-5-8-2-11-2v-7z" fill="#f18830"/><path d="m1339 183h26l17 3 28 8h13l-1 9-7 34-2 3-4-4-3-17-4-6-14-9-19-7-16-3h-18l-18 4-12 5-12 7-10 9-9 12-8 16-5 14-4 21v32l4 20 5 14 8 15 7 9 6 7 13 10 14 8 16 6 13 3h19l17-4 11-6 10-9 6-7 12-19 3-1 3 2-1 8-7 26-3 8-21 6-20 4-8 1h-34l-20-4-19-7-16-9-14-11-9-9-10-14-8-15-5-15-3-16-1-12v-13l3-20 5-17 8-15 9-12 15-15 10-7 14-8 19-7 22-5z" fill="#f08830"/><path d="m626 193h8l15 3 12 6 12 11 7 11 4 10 2 9v14l-3 12-5 9-8 8-12 6-17 4-19 1-21-2-3-1v-64l2-24 3-7 5-3 9-2zm658 325h23l13 4 13 9v2l4 2v2h2l7 11 4 13 1 7v14l-3 9-4 8-7 8-12 6-13 4-10 1h-25l-12-2v-58l1-19 2-13 6-5z" fill="#fdfefd"/><path d="m1496 830 15 1 11 4 9 6 6 8 4 10 1 5v10l-4 12-6 8-9 6-9 3-6 1h-47l3-2 5-5v-53l-1-9-2-2-5-1v-1z" fill="#f18830"/><path d="m1530 232 3 3 13 30 15 39 6 17-5 1-39 1-25-2-2-1 3-9 22-57zm-653 0 2 3 9 20 12 30 11 29 2 7-5 1-38 1-27-2-1-2 19-49 13-32zm-444 0 2 3 8 17 12 30 14 37v2l-6 1-38 1-24-2-3-2 19-48 10-26zm461 323 4 4 5 11 6 14 5 14 5 12 5 14 5 12 2 6-2 1h-54l-13-1-1-2 8-20 4-12 4-9 4-12 5-11 6-16zm593 280h13l11 4 7 6 5 9 2 9v12l-3 10-5 8-5 4-11 3-10-1-4-2-1-2-1-10v-48z" fill="#fdfefd"/><path d="m1617 831h10l5 11 15 39 7 16 5 4 4 3h-34l4-3h2l-1-8-5-13v-3h-23l-6 18 1 5 5 4h-21l5-4 5-8 9-25zm-215 0h52l1 15-2-1-3-6v-2l-4-1h-19v29h16l5-5 2-3v20l-7-6h-16v22l1 3 8 3h7l7-2 4-5 2-5h1v15l-1 2h-54l4-2h2l1-4 1-15v-40l-2-9-6-2z" fill="#f18830"/><path d="m1364 1000 5 1-2 5-1 1 300 1-1 2h-716l-1-2 414-1 1-6z" fill="#d2a73a"/><path d="m1375 830 22 1-5 4-5 8-11 29-10 28-3 4-6-12-10-26-11-27-5-6-3-2h30l-4 3 2 10 12 30v2h2l1-6 9-25 1-3v-7l-6-3zm172 0 34 1-4 2-3 3-1 8v52l3 5 5 2v1h-34l4-2 4-3v-63l-3-3-5-2z" fill="#f18830"/><path d="m1246 980h8l2 7v8h2l2-4 8-11h7l1 2-4 4-3 12v7h-11l3-3 3-12-9 11-2 3h-2l-2-12-1-1-4 9 1 5h-17l-2-11h-4l-2 9h2v2h-12l4-5 5-15v-4h16l2 2v5l-5 5 4 10 5-3 6-13 1-4-3-1z" fill="#e79233"/><path d="m1627 980h7l7 2 3 5-1 8-6 7-7 3h-17l1-2h2l6-22zm-292 0 11 1 5 4v8l-4 7-6 4-3 1h-17l4-9 4-12v-3z" fill="#eb8d31"/><path d="m1396 980 3 1 1 6v8h2l2-4 7-10 8-1 1 2-3 2-4 14v5l1 2h-12l3-3 3-10v-3l-11 15h-2l-2-13-3 4-2 7 1 3h-8v-2l4-1 2-6 5-13-3-1v-1z" fill="#ea8f32"/><path d="m1517 980 8 1 3 5-2 4-4 3 4 10v2h-8l-2-11h-4l-2 9h2v2h-12l4-4 5-16v-4z" fill="#eb8e32"/><path d="m1106 980 9 1 2 2v5l-5 5 4 10v2h-8l-2-11h-4l-2 9h2v2h-12l4-5 5-15v-4z" fill="#e98f32"/><path d="m1219 981h16l2 2v5l-5 5 4 10v2h-8l-2-11h-4l-2 9h2v2h-12l4-5 5-15z" fill="#eb8e32"/><path d="m1189 980h11v2l-4 4-3 9v5h6l3-3 4-11-1-5 11-1 1 2-4 4-5 14v5h-8l1-3-5 3h-7l-3-3 1-9 2-6-1-6z" fill="#e69233"/><path d="m1592 980h7l6 9 3 5v2h2l2-9 1-5-2-1h7l-3 5-6 17-2 2-10-15v-2h-2l-2 9-1 8h-6l5-10 2-7-1-5z" fill="#e79133"/><path d="m1542 980 3 1 8 14 4-12-1-2h6l-4 9-5 14-2 1-10-15v-2h-2l-1 7-2 8 1 2h-7l1-2h2l3-11 2-8-2-3z" fill="#ea8e32"/><path d="m971 980h7l3 3 7 12 4-12-1-2h6l-2 1-3 11-5 12-4-5-7-10v-2h-2l-2 9-1 8h-6l1-2h2l3-11 2-8z" fill="#e79133"/><path d="m1300 980 8 1 8 14 4-10 1-3-2-1h6l-5 12-4 11-3-1-9-14-2 3-4 11h2v2h-6v-2h2l3-10 2-9-2-3z" fill="#ea8e32"/><path d="m1616 849 2 1 8 20v2h-18l2-9 5-13z" fill="#fdfefd"/><path d="m1084 980 10 2-1 5h-2l-2-3h-8l-5 5-2 4v8l1 1h6l2-4v-4h8l-4 9-4 2h-10l-5-4-1-7 4-8 8-5z" fill="#e79133"/><path d="m1008 981h10l5 1-2 5-3-3h-9l-3 1-4 10v7h9l1-8h8l-4 9-5 2h-9l-5-3-1-2v-8l4-6 5-4z" fill="#e69233"/><path d="m1057 980 3 1 1 11v11h2v2h-10l2-10-7 1-3 5-1 4h-6l6-7 12-17z" fill="#e98f32"/><path d="m1575 980 3 1 1 7v15h2v2h-10l1-2v-7h-6l-3 5-1 4h-5l6-8 9-13z" fill="#ea9944"/><path d="m1156 980 3 1 2 22 1 2h-10l1-2v-7h-6l-3 5-1 4h-6l6-7 12-17z" fill="#ea8f32"/><path d="m1659 980h2l1 2 2 23h-9v-2h2l-1-7h-6l-4 7v2h-6l18-24z" fill="#e89132"/><path d="m1628 983h7l3 4-1 8-4 6-4 2h-7l2-9z" fill="#fdfefd"/><path d="m1280 980h13l3 1-1 3-9-1-2 9h6v-2l2 1-3 4-7-1-2 9 8-1 2-2-1 4-1 1h-16l6-16z" fill="#e39634"/><path d="m1336 983h7l2 2v9l-4 6-5 3h-6l1-8z" fill="#fdfefd"/><path d="m1435 980 2 2 1 19 1 4h-10l1-2h2l-1-7h-6l-4 5v4h-6l1-2h2l2-4 11-16z" fill="#e79133"/><path d="m1489 981h17l-2 4v-2h-8l-3 9 8-1v3h-9l-2 9 7-1 3-2-1 5h-17v-2h2l3-11 2-6z" fill="#e98f32"/><path d="m1470 981h16l-1 3h-8l-3 8 8-1v3h-9l-2 9h2v2h-12v-2l3-1 6-17z" fill="#e79133"/><path d="m1268 980h7l1 2-4 4-3 12v7h-11l3-3 3-12-5 6-1-3z" fill="#e69233"/><path d="m1418 980 2 2-3 2-4 14v5l1 2h-12l3-3 3-10v-3l-5 7-1-3 9-12z" fill="#e89032"/><path d="m1180 980 6 1-2 5-2-2h-6l1 5 5 5-1 7-6 4h-6l-4-1 1-5h2l1 3 7-1-1-4-5-5 1-7 5-4z" fill="#e59333"/><path d="m1357 980h11l-1 3-3 3-5 16 1 3h-11v-2l4-4 5-17-2-1z" fill="#e89032"/><path d="m1517 980 3 1-1 2h-3l-2 10-4 10h2v2h-12l4-4 5-16v-4zm-559 0h10l1 2-4 4-6 17h2v2h-11v-2l4-4 5-17-2-1z" fill="#e98f32"/><path d="m1215 980 2 2-4 4-5 14v5h-8l-1-5 3-3 4-11-1-5z" fill="#ea8f33"/><path d="m1219 981h9v2h-2l-2 9v2h-2l-2 9h2v2h-12l4-5 5-15z" fill="#e98f32"/><path d="m1109 981h6l2 2v5l-5 5 4 10v2h-8l-2-11h-2v-2l6-2 1-7h-2z" fill="#eb8d31"/><path d="m1627 980h7l7 2 3 5-1 8-6 7-9 3 1-3 4-2 4-8-1-7-7-2z" fill="#e39634"/><path d="m1340 981h6l5 4v8l-4 7-6 4-5 1v-3l5-3 3-5v-9l-1-1-7-1z" fill="#e89032"/><path d="m1052 986h3v7l-7 1 2-5zm-5 8 1 2-3 5-1 4h-6l6-7z" fill="#e3bd73"/><path d="m1653 987h3v6l-1 1h-5l-2 5-2 4v2h-6l6-8z" fill="#e1ba6c"/><path d="m1151 987h3v6l-7 1 2-5zm-5 7 1 2-3 5-1 4h-6l6-7z" fill="#e8bd79"/><path d="m1430 987h1v6l-8 5-2 5v2h-6l1-2h2l2-4 3-5 5-4z" fill="#e2c179"/><path d="m1391 988h3l-1 3-3 4-2 7 1 3h-8v-2l4-1 2-6z" fill="#dc9d37"/><path d="m1226 983h5l-1 7-4 2h-3zm-120 0h5l-1 7-6 2-1-2z" fill="#fdfefd"/><path d="m1246 989h2l-3 9-1 4 1 3h-9l6-7z" fill="#dc9d36"/><path d="m1516 983h5l-1 7-6 2 1-7zm-999-338 5 2 1 2h-12l-7-1-1-2z" fill="#fdfefd"/><path d="m1364 1000 5 1-2 5-1 3h-4v-6z" fill="#e79233"/><path d="m1538 988 1 4-3 11 1 2h-7l1-2h2l3-11z" fill="#dd9c36"/><path d="m1301 987 3 1-6 15h2v2h-6v-2h2l3-10z" fill="#d8a138"/><path d="m1593 988h2l-2 9-1 8h-6l5-10z" fill="#de9b36"/><path d="m1319 981h6l-5 12-2 3-1-2 4-12z" fill="#db9e37"/><path d="m1611 981h7l-3 5-3 9-2-2 3-11z" fill="#d8a238"/><path d="m1556 981h6l-4 9-2 3-1-3 2-7z" fill="#de9b36"/><path d="m991 981h6l-2 1-3 11-2-1 2-9z" fill="#dd9c36"/></svg>