<svg height="688" viewBox="-.01 0 439.01 120.78" width="2500" xmlns="http://www.w3.org/2000/svg"><path d="m395.31 120.78c-8.37 0-15.82-1.9-22.36-5.7-6.55-3.8-11.69-8.99-15.43-15.59-3.74-6.59-5.61-14.11-5.61-22.55s1.87-16.12 5.61-22.71 8.88-11.76 15.43-15.51c6.54-3.74 14-5.62 22.36-5.62s15.99 1.87 22.58 5.62 11.76 8.92 15.5 15.51c3.74 6.6 5.61 14.17 5.61 22.71s-1.87 16.09-5.61 22.63-8.91 11.71-15.5 15.51-14.12 5.7-22.58 5.7zm0-20.26c3.93 0 7.4-.92 10.41-2.77 3-1.85 5.41-4.56 7.23-8.15s2.73-7.81 2.73-12.66-.91-9.18-2.73-12.66-4.23-6.15-7.23-7.99c-3-1.85-6.42-2.77-10.26-2.77s-7.28.92-10.33 2.77-5.49 4.51-7.31 7.99-2.73 7.7-2.73 12.66.91 9.08 2.73 12.66c1.82 3.59 4.26 6.31 7.31 8.15 3.05 1.85 6.44 2.77 10.19 2.77zm-97.16 20.26c-8.37 0-15.82-1.9-22.36-5.7-6.55-3.8-11.69-8.99-15.43-15.59-3.74-6.59-5.61-14.11-5.61-22.55s1.87-16.12 5.61-22.71 8.88-11.76 15.43-15.51c6.54-3.74 14-5.62 22.36-5.62s15.99 1.87 22.58 5.62 11.76 8.92 15.5 15.51c3.74 6.6 5.61 14.17 5.61 22.71s-1.87 16.09-5.61 22.63-8.91 11.71-15.5 15.51-14.12 5.7-22.58 5.7zm0-20.26c3.93 0 7.4-.92 10.41-2.77 3-1.85 5.41-4.56 7.23-8.15s2.73-7.81 2.73-12.66-.91-9.18-2.73-12.66-4.23-6.15-7.23-7.99c-3-1.85-6.42-2.77-10.26-2.77s-7.28.92-10.33 2.77-5.49 4.51-7.31 7.99-2.73 7.7-2.73 12.66.91 9.08 2.73 12.66c1.82 3.59 4.26 6.31 7.31 8.15 3.05 1.85 6.44 2.77 10.19 2.77zm-147.67 20.26v-120.78h24.29v50.95l-1.56 25.88.47 26.04v17.91zm51.06 0c-7.42 0-13.9-1.56-19.44-4.67s-9.76-7.94-12.66-14.48-4.36-14.77-4.36-24.69 1.53-18.25 4.6-24.69c3.06-6.43 7.34-11.24 12.82-14.4 5.48-3.17 11.83-4.75 19.03-4.75 8.28 0 15.67 1.82 22.18 5.46s11.67 8.73 15.49 15.27 5.73 14.24 5.73 23.11-1.91 16.57-5.73 23.11-8.98 11.63-15.49 15.27-13.9 5.46-22.18 5.46zm-4.15-21.04c4.17 0 7.88-.93 11.14-2.81 3.26-1.87 5.88-4.62 7.86-8.26 1.98-3.63 2.97-7.91 2.97-12.83s-.99-9.3-2.97-12.83-4.6-6.23-7.86-8.1-6.98-2.81-11.14-2.81-7.91.94-11.22 2.81-5.96 4.57-7.94 8.1-2.97 7.8-2.97 12.83.99 9.2 2.97 12.83c1.98 3.64 4.62 6.39 7.94 8.26 3.31 1.87 7.06 2.81 11.22 2.81zm-106.8 20.9v-86.26h22.22v24.53l-3.13-7.22c2.39-6.09 6.21-10.72 11.48-13.87s11.68-4.73 19.24-4.73v23.25c-.89-.21-1.77-.37-2.61-.48-.85-.11-1.67-.16-2.46-.16-6.56 0-11.78 1.98-15.66 5.93-3.88 3.96-5.82 10.05-5.82 18.28v40.73h-23.27zm-20.84-78.12c-7.14-6.19-17.16-9.28-30.07-9.28-6.72 0-13.33.88-19.84 2.64-1.92.52-10.87 3.94-11.42 4.15l3.95 13.4c.75 2.55 3.4 4 5.91 3.22 1.8-.55 3.4-1.02 4.79-1.41.68-.19 1.3-.36 1.87-.51v-3.79h2.96v5.93h2.96v-3.42l.72-.09c1.59-.18 3.18-.27 4.79-.27 2.21 0 4.23.17 6.06.51v-2.65h2.96v5.93h2.96v-1.26c1.02.56 1.93 1.21 2.74 1.96 1.96 1.83 3.02 4.01 3.44 4.97.03.08.1.22.16.39 1.17 2.94 1.09 5.66 1.07 6.68v27.68c0 2.73-2.22 4.95-4.95 4.95h-28.35c-2.73 0-4.95-2.22-4.95-4.95v-25.26c-.72.23-1.42.48-2.09.74-5.35 2.1-9.27 5.07-11.73 8.9-2.47 3.83-3.7 8.21-3.7 13.15s1.28 9.19 3.86 13.07c2.57 3.88 6.22 6.95 10.94 9.21s10.34 3.39 16.85 3.39c7.45 0 13.54-1.44 18.26-4.33 3.23-1.97 5.77-4.5 7.62-7.57 0 .48 0 .95.01 1.4 0 2.65 0 6.29-.08 10.63h22.99v-49.12c0-13.12-3.57-22.77-10.71-28.96z"/><path d="m23.54 87.59h8.89v8.89h-8.89zm17.49 0h8.89v8.89h-8.89zm0-15.42h8.89v8.89h-8.89z"/></svg>