<svg height="-75" viewBox=".5 20.89 89 18.22" width="2500" xmlns="http://www.w3.org/2000/svg"><path d="m24.65 22.43h.25v15.14h-.25z" fill="#5a5d5e"/><path d="m12.63 20.89c1.12.56 2.12 1.3 2.95 2.19l-1.3.83.36.46a7.58 7.58 0 0 1 1.54 6.18c.16-3.29-1.7-6.38-4.69-7.78z" fill="#a7aaac"/><path d="m16.9 22.85c.73.95 1.28 2.02 1.63 3.13l-1.55.22.15.57c.62 2.45-.04 4.98-1.6 6.81a8.145 8.145 0 0 0 -.48-9.53l1.85-1.19z" fill="#828385"/><path d="m19.82 26.32c.29 1.26.33 2.54.15 3.78l-1.73-.51-.11.58a7.607 7.607 0 0 1 -4.48 5.61 8.166 8.166 0 0 0 3.99-9.14l2.18-.31z" fill="#5a5d5e"/><path d="m8.63 20.89c-1.12.56-2.12 1.3-2.95 2.19l1.3.83-.36.46a7.616 7.616 0 0 0 -1.54 6.18 8.161 8.161 0 0 1 4.69-7.78z" fill="#a7aaac"/><path d="m4.35 22.85c-.73.95-1.28 2.02-1.63 3.13l1.55.22-.15.57c-.62 2.45.04 4.98 1.6 6.81-1.91-2.95-1.71-6.81.48-9.53l-1.85-1.19z" fill="#828385"/><path d="m1.44 26.32c-.29 1.26-.33 2.54-.15 3.78l1.73-.51.11.58c.47 2.56 2.2 4.63 4.48 5.61a8.166 8.166 0 0 1 -3.99-9.14l-2.18-.31z" fill="#5a5d5e"/><path d="m.5 30.88c.98 4.7 5.14 8.23 10.13 8.23s9.16-3.54 10.13-8.23l-2.11-.63a8.16 8.16 0 0 1 -16.04 0l-2.11.63z" fill="#f48220"/><g fill="#5b5d5e"><path d="m33.89 27.79-1.28 3.29h2.58zm-.89-3.07h1.93l4.6 10.57h-2.63l-.91-2.24h-4.11l-.88 2.24h-2.57zm9.62 4.37h1.37c.85 0 1.96-.03 1.96-1.18 0-1.06-.96-1.22-1.81-1.22h-1.52zm-2.33-4.37h4.09c2.17 0 3.99.75 3.99 3.21 0 1.48-.79 2.63-2.29 2.9l2.69 4.47h-2.79l-2.21-4.23h-1.15v4.23h-2.33v-10.57zm9.76 0h2.33v4.39l4.11-4.39h3.05l-4.71 4.91 5.11 5.66h-3.25l-4.31-5.02v5.02h-2.33z"/><path d="m64.83 27.79-1.28 3.29h2.58zm-.9-3.07h1.93l4.6 10.57h-2.63l-.91-2.24h-4.11l-.88 2.24h-2.57zm9.62 8.42h1.21c2.17 0 3.79-.82 3.79-3.23 0-2.08-1.66-3.05-3.63-3.05h-1.37v6.27zm-2.33-8.42h3.5c3.41 0 6.26 1.45 6.26 5.32 0 3.42-2.79 5.26-5.94 5.26h-3.81v-10.57zm10.83 0h7.18v2.15h-4.85v1.97h4.58v2.15h-4.58v2.15h5.12v2.15h-7.45z"/></g></svg>