<svg height="2500" viewBox="227.15 289.633 625.003 495.222" width="2500" xmlns="http://www.w3.org/2000/svg"><path d="m0 0h1080v1080h-1080z" fill="#fff" visibility="hidden"/><g fill="#2281c5"><path d="m515.51 294.703c-5.72 2.47-10.66 8.84-11.7 15.08-.65 4.16-.26 6.63 2.21 11.44 7.41 15.08 27.17 15.08 34.58 0 2.47-4.81 2.86-7.28 2.21-11.44-2.08-12.61-15.73-20.15-27.3-15.08z"/><path d="m455.151 332.524v8.84l8.84 2.08c11.7 2.99 27.95 11.18 36.27 18.46l6.76 5.98-6.89 10.27c-11.44 17.03-17.68 37.7-17.68 58.63 0 9.88 2.6 26.13 5.33 33.28l1.17 3.38 7.15-6.37c5.98-5.46 6.89-6.89 6.5-10.27-.39-2.21-.91-8.84-1.43-14.95-3.51-44.85 30.55-85.67 76.57-91.65l6.11-.78v-18.33l-7.41.78c-17.16 2.08-37.18 9.62-50.7 19.37l-5.46 3.9-5.59-5.07c-12.48-11.57-27.43-19.5-44.46-23.92-15.6-3.9-15.08-4.16-15.08 6.37z"/><path d="m621.472 328.39c-5.72 3.51-7.41 5.07-6.63 6.76 4.03 9.36 5.98 20.02 5.85 32.63 0 7.54-.52 15.6-1.04 18.07l-1.17 4.55-16.77.13c-24.96.26-43.68 5.98-62.14 19.37-8.84 6.37-21.32 18.46-20.15 19.63.39.39 4.68 1.82 9.49 3.25l8.84 2.47 6.63-5.85c8.19-7.15 23.4-15.21 34.58-18.2 12.87-3.51 33.15-3.25 45.5.65 17.94 5.59 33.41 15.6 43.16 28.21l5.46 6.89 5.98-3.38c10.27-5.85 10.27-5.85 3.77-14.17-8.19-10.66-22.1-21.71-35.36-28.21-9.62-4.55-11.31-5.85-10.66-8.06 2.6-10.14 3.51-26.13 2.08-37.05-1.43-10.79-6.5-28.99-8.84-31.33-.52-.52-4.42 1.04-8.58 3.64z"/><path d="m666.882 359.352c-12.48 6.63-14.04 22.49-3.25 32.63 2.99 2.86 4.68 3.25 12.35 3.25s9.36-.39 12.35-3.25c5.59-5.2 7.54-10.01 6.89-16.9-1.43-14.43-15.86-22.49-28.34-15.73zm-237.12 14.311c-5.72 13.52-7.41 22.36-7.41 41.73l-.13 18.72-9.1 3.51c-5.07 1.95-13 5.85-17.55 8.71-8.45 5.07-26.78 22.23-29.64 27.43-1.43 2.73-.91 3.12 6.5 6.89l7.93 4.03 6.5-7.15c7.54-8.45 22.62-18.98 32.89-22.75 4.03-1.56 7.67-2.73 8.19-2.6.52 0 2.86 4.03 5.2 8.97 13.65 28.6 40.95 48.88 75.79 56.42l3.51.78-2.34-9.23c-1.3-5.07-2.73-9.49-3.12-9.88s-4.42-2.08-9.1-3.64c-28.6-10.01-49.92-34.84-56.16-65.65-2.86-14.43-1.95-28.6 2.99-43.29l3.77-11.05-7.28-3.64c-3.9-2.08-7.54-3.9-7.93-4.16-.39-.13-1.95 2.47-3.51 5.85z"/><path d="m379.537 395.523c-1.43.52-4.29 2.86-6.37 5.07-3.12 3.25-3.9 5.46-4.42 11.44-.39 6.24 0 8.32 2.6 12.09 10.53 15.73 34.19 9.75 35.75-8.97 1.04-11.7-7.54-21.06-18.98-20.8-3.25 0-7.15.52-8.58 1.17zm194.282 38.427c0 .52 1.04 4.94 2.34 9.88l2.34 8.97 6.76 2.34c20.67 7.02 39.91 23.53 49.27 42.38 7.41 14.82 10.01 27.04 9.23 44.46-.52 11.05-1.43 15.86-4.55 24.18l-3.9 10.53 7.8 4.16c8.84 4.81 8.45 5.07 12.74-6.11 5.07-13.65 6.63-23.27 6.11-40.17l-.39-15.86 3.9-1.17c16.38-4.68 35.49-16.64 47.32-29.64 4.42-4.68 7.8-9.23 7.54-9.88-.13-.65-3.64-2.99-7.8-5.33l-7.41-4.03-5.33 6.24c-6.89 7.93-19.76 17.16-30.81 21.84-11.18 4.81-12.61 4.68-14.43-.52-2.73-7.8-11.96-21.71-20.02-30.42-10.01-10.66-22.88-19.89-35.36-24.96-9.88-4.16-25.35-8.32-25.35-6.89z"/><path d="m590.187 487.931c-6.37 6.11-7.02 7.28-6.37 10.66 1.69 7.54 1.17 29.25-.78 38.09-2.6 10.92-9.75 25.22-17.42 34.32-15.6 18.33-33.8 28.08-58.89 31.46l-6.24.78v9.1c0 10.4-1.04 10.01 16.25 7.02 13.78-2.47 27.3-7.67 39-15.08l8.58-5.33 6.11 5.72c14.69 13.65 33.67 23.14 53.3 26.39l5.46.91v-9.23c0-8.97-.13-9.23-3.51-10.01-15.08-3.25-30.29-10.66-40.43-19.5-3.64-3.25-6.76-6.5-6.76-7.15s2.08-3.9 4.81-7.28c6.76-8.97 15.34-27.95 18.07-40.04 2.99-13.39 2.99-32.11 0-45.5-1.3-5.72-2.73-10.79-3.12-11.31-.52-.52-4.16 2.21-8.06 5.98z"/><path d="m402.04 514.51c-3.77 2.21-6.89 4.81-6.89 5.59 0 .91 4.16 5.98 9.23 11.44 10.27 11.05 24.7 21.19 36.14 25.48l7.67 2.86-1.43 5.33c-.78 2.99-1.3 12.48-1.3 21.06.13 16.12 2.34 28.21 7.8 40.69l2.34 5.46 7.8-4.81 7.93-4.94-2.99-8.06c-4.16-11.7-5.85-26.39-4.29-38.09.65-5.33 1.3-10.14 1.3-10.79 0-.52 6.37-.91 14.04-.91 7.8 0 17.55-.65 21.84-1.43 19.37-3.51 40.95-15.34 55.9-30.68l8.58-8.84-10.4-2.47-10.4-2.47-7.15 6.37c-14.56 13.26-35.88 21.32-56.68 21.32-23.92 0-43.68-8.45-60.97-25.61-5.98-5.98-10.92-10.79-11.05-10.79-.13.13-3.38 1.95-7.02 4.29zm287.92 11.115c-6.11 2.99-10.01 10.01-10.01 17.68 0 20.02 28.08 26.52 36.79 8.45 3.38-6.89 3.38-10.4.26-17.29-4.42-9.88-16.9-13.78-27.04-8.84z"/><path d="m402.897 564.693c-7.41 3.9-10.66 9.88-10.14 18.33.39 4.55 1.43 8.58 2.99 10.66 11.44 15.21 35.75 7.28 35.75-11.57 0-14.56-15.86-24.31-28.6-17.42zm150.653 61.854c-18.07 9.49-11.31 36.53 9.1 36.53s27.17-27.3 9.1-36.66c-7.28-3.64-11.18-3.64-18.2.13zm-124.555 86.028-6.37 6.63 13.26 13.39 13.26 13.26-13 13-13 13 6.5 6.5 6.5 6.5 12.87-12.87 12.87-12.87 12.35 12.87 12.48 12.87 6.5-6.5 6.63-6.37-12.61-12.87-12.74-12.87 14.17-13.52 14.17-13.65-6.37-6.5-6.24-6.37-13.91 13.78-13.91 13.91-13.52-13.91-13.39-14.04zm120.08-4.664c-22.88 6.5-34.32 29.64-25.87 52.26 5.72 15.21 20.02 24.18 38.74 24.18 8.19 0 10.92-.65 17.81-4.03 7.28-3.64 16.12-11.31 16.12-14.3 0-.52-2.99-2.86-6.76-4.94l-6.76-4.03-4.94 4.42c-8.45 7.67-19.76 8.84-28.6 2.73-6.89-4.68-9.36-9.1-9.88-18.07-.39-6.89 0-8.71 2.6-12.61 8.71-12.87 24.57-14.95 36.01-4.55l4.81 4.42 7.41-4.29 7.41-4.16-4.55-5.33c-9.23-10.79-28.6-15.99-43.55-11.7zm173.405 0c-8.32 3.12-14.17 7.54-16.77 12.74-5.07 9.75-2.34 20.02 6.76 25.61 2.34 1.43 10.4 4.42 17.81 6.63 15.34 4.42 19.5 7.28 17.03 11.7-3.51 6.76-16.64 6.63-23.4 0-2.08-2.21-3.9-4.81-3.9-5.85 0-1.43-2.08-1.82-9.23-1.82h-9.23l.78 4.16c1.56 7.93 7.41 15.6 14.95 19.5 5.85 3.12 8.45 3.64 16.9 3.64 11.96 0 18.33-1.56 23.53-6.11 5.46-4.55 7.8-9.49 7.8-16.64 0-12.22-6.11-17.42-27.3-23.53-15.08-4.16-16.9-5.07-16.9-8.32 0-3.77 6.11-7.15 12.74-7.15 4.81 0 6.24.65 9.49 4.16 3.51 4.03 4.29 4.29 12.22 4.29 4.94 0 8.45-.52 8.45-1.3 0-2.73-4.16-11.05-6.89-14.04-7.15-7.8-24.44-11.57-34.84-7.67zm87.423-.513c-12.09 2.99-21.45 13-21.45 23.14s9.23 17.55 27.82 22.49c5.85 1.43 11.83 3.38 13.39 4.16 8.06 4.03 3.25 12.09-7.15 12.09-7.15 0-12.48-2.86-15.6-8.58-2.08-3.51-2.6-3.77-11.05-3.77h-8.97l.91 4.16c1.43 6.63 4.03 10.79 9.75 15.6 6.5 5.59 13.26 7.67 24.96 7.67 11.57 0 21.58-4.42 25.87-11.31 3.51-5.72 3.77-15.08.65-21.06-2.86-5.59-8.19-8.71-21.58-12.74-19.11-5.72-23.14-8.45-19.5-12.87 4.94-5.85 19.5-5.07 22.36 1.43 1.3 2.86 2.21 3.12 10.4 3.12 9.75 0 10.27-.52 7.02-8.19-2.47-5.98-11.44-13.39-18.33-15.08-6.37-1.56-13.52-1.69-19.5-.26zm-566.893 37.072c-8.71 20.41-15.86 37.31-15.86 37.7s4.16.78 9.1.78h9.23l2.47-5.85 2.47-5.85h36.66l2.6 5.85 2.6 5.85h8.97c5.07 0 9.1-.39 9.1-1.04 0-.52-7.02-17.42-15.73-37.7l-15.73-36.66h-20.15zm37.44 11.44c0 .52-5.2 1.04-11.7 1.04-6.37 0-11.7-.26-11.7-.78 0-.78 10.27-25.22 11.31-27.04.65-1.04 12.09 24.44 12.09 26.78zm56.045-10.665v37.7h18.2v-18.2h6.89l6.76.13 5.2 8.71 5.2 8.71 11.44.39 11.44.39-7.15-10.27c-4.03-5.72-7.28-10.92-7.28-11.7 0-.65 1.43-2.21 3.25-3.38 8.71-5.72 11.96-24.31 6.24-35.36-3.51-6.76-9.36-11.7-15.73-13.52-2.6-.65-13.78-1.3-24.57-1.3h-19.89zm41.73-17.03c2.6 2.6 3.77 5.07 3.77 7.93s-1.17 5.33-3.77 7.93c-3.51 3.51-4.55 3.77-13.65 3.77h-9.88v-23.4h9.88c9.1 0 10.14.26 13.65 3.77zm242.265 17.035v37.7h58.5v-15.6h-40.3v-14.3h33.8v-15.6h-33.8v-13h40.3v-16.9h-58.5z"/></g></svg>