<svg viewBox="0 0 507 260" xmlns="http://www.w3.org/2000/svg" width="2500" height="1282"><path d="M152.14 181.27c.57-18.81 35.17-45.16 54.54-42.05-2.83 9.79-5.59 19.59-8.58 29.32-.31 1-1.89 1.95-3.07 2.29-11.88 3.36-23.79 6.66-35.73 9.8-2.27.6-4.74.45-7.16.64z"/><path d="M243.39 16.62c57.96.68 102.96 6.09 146.34 21.21 28.58 9.96 55.36 23.23 76.85 45.24 9.98 10.23 17.69 21.96 20.59 36.19 3.67 17.96-.72 34.29-11.18 49.08-11.76 16.62-27.62 28.45-45.33 38.05-31.29 16.94-64.97 26.38-99.88 32.15-21.04 3.48-42.18 5.17-63.5 5.67-48.73 1.14-96.51-4.25-142.88-19.73-23.61-7.88-46.17-18.02-66.08-33.3-9.8-7.53-18.2-16.37-24.84-26.84-14.24-22.46-13.7-47.82 1.62-69.71 13.65-19.52 32.71-32.4 53.51-43.06 28.87-14.79 59.7-23.71 91.63-28.28 24.96-3.57 50.17-5.34 63.16-6.67zm-31.72 195.55c-.1-1.94-.1-3.89-.32-5.82-1.19-10.55-1.64-21.13 1.79-31.33 6.32-18.78 13.16-37.38 19.47-56.16 5.53-16.44 12.02-32.71 9.46-50.75-3.35-23.54-21.98-40.37-48.94-35.16-10.74 2.08-20.02 7.54-28.2 14.64-5.06 4.39-11.12 8.88-11.73 15.92-1.12 12.94-1.19 25.98-1.28 38.98-.03 4.69 4.47 8.39 8.78 8.27 4.81-.14 6.45-2.1 6.56-8.47.13-7.04-.16-14.1.07-21.13.53-16.58 8.82-27.95 24.05-34.19 19.28-7.9 34.97 2.86 35.12 23.68.14 19.03-7.23 36-14.22 53.07-.42 1.02-2.48 1.79-3.85 1.91-5.76.51-11.64.21-17.32 1.13-21.24 3.46-37.38 15.33-50.18 31.96-3.66 4.75-6.62 10.3-8.69 15.92-2.18 5.93-1.04 11.87 4.62 15.96 8.85 6.4 18.17 10.59 29.41 6.44 4.29-1.59 8.74-2.77 13.12-4.12 5.08-1.57 10.17-3.12 15.81-4.84 0 4.81-.22 8.49.04 12.13.66 9.01 1.96 17.91 6.43 25.99 2.92 5.28 7.1 8.65 13.48 8.83 2.54.07 3.93-.62 4.53-3.27 1.01-4.44 2.15-8.88 3.62-13.2 2.19-6.43.45-12.15-2.28-18-6.17 1.74-7.88 6.5-9.37 11.6zM328.9 98.44c-5.01-11.38-6.24-24.47-5.49-37.85.2-3.5-.25-7.19.73-10.45 1.85-6.14-.95-10.47-4.76-14.3-3.01-3.03-6.9-1.98-10.29-.28-2.96 1.48-4.56 4-4.17 7.51.67 6.04.99 12.13 1.99 18.11 3.04 18.21 6.21 36.4 9.55 54.55 3.03 16.47 7.56 32.72 6.34 49.75-.25 3.49.05 7.05.37 10.55.68 7.23 4.19 10.29 11.54 11.07 3.7.39 5.23-.9 5.03-4.44-.53-9.62-1-19.24-1.71-28.84-.46-6.24-2.24-12.53-1.79-18.67 1.2-16.35 6.96-30.82 19.89-41.83 6.83-5.82 11.34-4.75 14.08 3.81 3.01 9.39 2.37 18.68-.73 27.92-2.28 6.79-4.46 13.61-6.8 20.38-1.18 3.4.08 5.65 3 7.22 1.61.87 3.26 1.69 4.98 2.33 5.77 2.14 7.25 1.71 8.93-4.33 2.92-10.55 6.16-21.13 7.58-31.92.99-7.51.45-15.77-1.68-23.03-5.57-18.98-24.54-25.18-40.43-13.4-6.13 4.54-10.94 10.86-16.14 16.15zm-95.04 53.69c-1.49 19.09 10.3 30.71 24.53 35.64 7.37 2.55 14.72 1.76 21.96-2.35 19.92-11.31 18.02-42.34 2.21-54.53-5.45-4.2-11.25-7.94-16.77-12.05-8.42-6.28-9.77-11.67-5.52-20.98 4.41-9.67 12.97-12.78 22.14-7.51 3.64 2.09 6.89 5.09 9.81 8.16 2.66 2.79 4.68 6.14 1.96 10.32-.42.65.28 2.95.97 3.22 2.8 1.12 5.75 2 8.72 2.49 4.73.78 8.05-2.38 6.91-7-.9-3.62-2.51-7.26-4.62-10.34-5.84-8.5-13.92-14.55-23.01-19.27-5.03-2.61-10.25-3.59-15.98-2.5-12.23 2.33-20.16 9.58-23.66 21.15-3.39 11.18.77 20.36 9.78 27.4 3.97 3.1 8.17 5.93 12.32 8.81 7.29 5.08 12.67 11.26 14.07 20.52 1.59 10.54-6.88 21.21-17.56 21.47-6.89.17-12.54-4.38-12.56-11.17-.03-8.51.95-17.02 1.22-25.54.07-2.25-.23-5.8-1.54-6.48-1.8-.93-4.88-.09-7.1.78-1.71.67-3.12 2.41-4.37 3.92-3.99 4.82-4.41 10.57-3.89 15.85zm169.28 8.51c-1.17-4.01-1.62-7.11-2.95-9.76-2.32-4.59-7.78-5.48-13.23-2.6-4.34 2.29-4.96 4.4-1.94 9.84 1.52 2.73 3.59 5.45 6.08 7.26 1.99 1.44 5.6 2.73 7.38 1.85 2.22-1.1 3.3-4.49 4.66-6.58z"/><ellipse cx="253.5" cy="130" fill="none" rx="248.5" ry="125" stroke="#000" stroke-miterlimit="10" stroke-width="10"/></svg>