<svg height="577" viewBox="5.1 19.1 189.8 61.7" width="2500" xmlns="http://www.w3.org/2000/svg"><path d="m23.5 62.8-17 4.6c-.7.2-1.4-.3-1.4-1.1v-12.4c0-.7.5-1.3 1.2-1.5l17-4.6c.7-.2 1.4.3 1.4 1.1v12.3c0 .7-.5 1.4-1.2 1.6" fill="#6fc8c0"/><g fill="#004691"><path d="m61 60.5v-8h-15c-.9 0-1.7-.2-2.5-.5s-1.4-.8-2-1.4-1-1.2-1.4-2c-.3-.8-.5-1.6-.5-2.5v-7.4c0-.9.2-1.7.5-2.5s.8-1.5 1.4-2c.6-.6 1.2-1 2-1.4.8-.3 1.6-.5 2.5-.5h19c.6 0 1.1.5 1.1 1.1v4.2c0 .6-.5 1.1-1.1 1.1h-19v7.4h15c.9 0 1.7.2 2.5.5s1.4.8 2 1.4 1 1.2 1.4 2c.3.8.5 1.6.5 2.5v8c0 .9-.2 1.7-.5 2.5s-.8 1.5-1.4 2c-.6.6-1.3 1-2 1.4-.8.3-1.6.5-2.5.5h-20.3c-.6 0-1.1-.5-1.1-1.1v-4.2c0-.6.5-1.1 1.1-1.1zm35.1-21.7h-17.7v21.7h17.7zm6.4 21.7c0 .9-.2 1.7-.5 2.5s-.8 1.5-1.4 2c-.6.6-1.2 1-2 1.4-.8.3-1.6.5-2.5.5h-17.7v12.8c0 .6-.5 1.1-1.1 1.1h-4.2c-.6 0-1.1-.5-1.1-1.1v-46.2c0-.6.5-1.1 1.1-1.1h4.2c.6 0 1.1.5 1.1 1.1v4.7c.1-.8.3-1.6.6-2.3.4-.7.8-1.3 1.4-1.8s1.2-.9 2-1.2c.7-.3 1.5-.5 2.4-.5h11.4c.9 0 1.7.2 2.5.5s1.4.8 2 1.4 1 1.2 1.4 2c.3.8.5 1.6.5 2.5v21.7zm11.2-13.9h16.4v-7.7h-16.4zm21 6.3h-21v7.6h21.7c.6 0 1.1.5 1.1 1.1v4.2c0 .6-.5 1.1-1.1 1.1h-21.7c-.9 0-1.7-.2-2.5-.5s-1.4-.8-2-1.4-1-1.2-1.4-2c-.3-.8-.5-1.6-.5-2.5v-21.7c0-.9.2-1.7.5-2.5s.8-1.5 1.4-2c.6-.6 1.2-1 2-1.4.8-.3 1.6-.5 2.5-.5h16.4c.9 0 1.7.2 2.5.5s1.4.8 2 1.4 1 1.2 1.4 2c.3.8.5 1.6.5 2.5v12.3c0 1-.8 1.8-1.8 1.8m29.1 13.6-16-14.4v13.6c0 .6-.5 1.1-1.1 1.1h-4.2c-.6 0-1.1-.5-1.1-1.1v-45.5c0-.6.5-1.1 1.1-1.1h4.2c.6 0 1.1.5 1.1 1.1v25.8l14.7-13.2c.3-.2.6-.4 1-.4h7c.5 0 .7.6.4.9l-17.5 15.7 18.7 17c.4.3.1.9-.4.9h-7c-.3 0-.7-.1-.9-.4"/><path d="m177.2 32.4v-8.4c0-.6.5-1.1 1.1-1.1h4.2c.6 0 1.1.5 1.1 1.1v8.4h10.2c.6 0 1.1.5 1.1 1.1v4.2c0 .6-.5 1.1-1.1 1.1h-10.2v21.7h10.2c.6 0 1.1.5 1.1 1.1v4.2c0 .6-.5 1.1-1.1 1.1h-10.2c-.9 0-1.7-.2-2.5-.5s-1.5-.8-2-1.4c-.6-.6-1-1.2-1.4-2-.3-.8-.5-1.6-.5-2.5v-21.7h-5.7c-.5 0-.7-.6-.4-.9zm-142.8 3.9c-.3-.8-.8-1.5-1.4-2-.6-.6-1.2-1-2-1.4-.8-.3-1.6-.5-2.5-.5h-19.6c-.6 0-1.1.5-1.1 1.1v4.2c0 .6.5 1.1 1.1 1.1h19.7v27c0 .6.5 1.1 1.1 1.1h4.2c.6 0 1.1-.5 1.1-1.1v-27c-.1-.9-.2-1.7-.6-2.5"/></g></svg>