<svg xmlns="http://www.w3.org/2000/svg" fill="currentColor" class="logo d-none d-md-block logo-bg" width="2500" height="514" viewBox="-0.400000000000047 -9.800000000000004 2000.5000000000002 421.5"><path d="M1013.9 397.6c0 4.6 0 4.7-5.5 4.7h-86.1c-4.6 0-4.6 0-4.6-4V251.9c0-4.4 0-4.4-5.1-4.4h-55.2c-4.6 0-4.6 0-4.6 4v147.2c.3 2.7-1.1 3.6-4.3 3.6-29.4-.1-58.7-.1-88.1 0-3.2 0-4.6-.9-4.2-3.7V14.2c0-4.7 0-4.7 5.4-4.7h86.5c4.7 0 4.7 0 4.7 4.2v146.4c0 4.2.3 4.1 5.3 4.1h55.2c4.4 0 4.4 0 4.4-3.8V14c0-4.6 0-4.6 5.2-4.6h86.5c4.5 0 4.6 0 4.6 4v384.2M1708.3 11.6c0-1.4.8-2.1 2.5-2.1H1902c5.4 0 5.4 0 5.4 4.7v73.9c0 4.3 0 4.3-4.9 4.3h-93.1c-4.5 0-4.5 0-4.5 4v63.9c0 4 0 4 4.8 4h55.9c4.6 0 4.6 0 4.6 4v75.3c0 3.8-.1 3.9-4.4 3.9-18.8 0-37.7.1-56.5-.1-3.3 0-4.4.8-4.4 3.7.1 21.4.1 42.8.1 64.2 0 3.7 0 3.8 4.5 3.8h92.8c5.2 0 5.2 0 5.2 4.4v74.8c0 4.1 0 4.1-4.8 4.1h-189.2c-5 0-5.1-.1-5.1-4.6-.1-64.1-.2-321.5-.1-386.2M1521.9 96.7c0-4.3 0-4.3-4.8-4.3h-56.5c-4.5 0-4.5 0-4.5-3.7 0-25.2 0-50.4-.1-75.6 0-2.7.9-3.6 4.1-3.6 73.4.1 146.7.1 220.1 0 3.4 0 4.3 1 4.3 3.8-.1 25.1-.1 50.2-.1 75.3 0 4.2-.4 3.8-4.5 3.8h-56.5c-4.9 0-4.9 0-4.9 4.3v299.5c0 7.1-.1 6-7 6h-83.8c-5.7 0-5.8 0-5.8-4.9V96.7M1297.9 12.6c-.2-2.1.8-3.1 3.5-3 4.8.1 62.8 0 87.1 0 6 0 6 0 6 5.1v298.7c0 6.2-.8 5.7 6.6 5.7h91.1c5.1 0 5.2.1 5.2 4.5v74.2c0 4.5 0 4.6-5.4 4.6h-188.5c-5.5 0-5.5 0-5.5-4.8-.1-64 0-320.6-.1-385M1182.5 402.2c-5 0-5 0-5.8-4-1.7-8.9-3.4-17.9-4.8-26.9-.4-2.7-1.6-3.7-4.9-3.6-17 .1-33.9.1-50.9 0-3 0-4.2.8-4.7 3.5-1.5 9.3-3.4 18.6-5 28-.4 2.2-1.3 3.1-4 3.1-20.3-.1-40.6-.1-60.9 0-2.9 0-3.6-.9-3.1-3.3 7.9-42.5 55.1-298.4 70.7-383.9 1.2-6.6 1-5.4 7.5-5.5 26.9-.1 53.9 0 80.8-.1 3.1 0 4.4.6 4.9 3.5 15.3 84 62.7 340.7 70.8 385.1.7 4 .5 4.2-4.3 4.2-14.2-.1-71.9-.1-86.3-.1m-36.8-233.5c-8.1 49.6-16.1 98.4-24.2 147.9-.3 1.7 0 2.5 2.2 2.5h36.9c2 0 2.8-.8 2.6-2.5-5.8-49.5-11.5-98.3-17.5-147.9M144.2 402.2c-5 0-5 0-5.8-4-1.7-8.9-3.4-17.9-4.8-26.9-.4-2.7-1.6-3.7-4.9-3.6-17 .1-33.9.1-50.9 0-3 0-4.2.8-4.7 3.5-1.5 9.3-3.4 18.6-5 28-.4 2.2-1.3 3.1-4 3.1-20.3-.1-40.6-.1-60.9 0-2.9 0-3.6-.9-3.1-3.3C8 356.5 55.2 100.6 70.8 15c1.2-6.6 1-5.4 7.5-5.5 26.9-.1 53.9 0 80.8-.1 3.1 0 4.4.6 4.9 3.5C179.4 97 226.9 353.7 235 398c.7 4 .5 4.2-4.3 4.2h-86.5m-36.8-233.5c-8.1 49.6-16.1 98.4-24.2 147.9-.3 1.7 0 2.5 2.2 2.5h36.9c2 0 2.8-.8 2.6-2.5-5.8-49.5-11.4-98.3-17.5-147.9M380.9 125.4c-1.1.1-1.6-.4-1.6-1.8 0-8.4-.1-16.7 0-25.1.4-11.2-10-19-20.5-19.1-11.6-.7-24.7 7.6-22.7 20.4 1 8.7 4.4 16.9 9.2 24.2 8.2 13 18.7 24.3 29.3 35.4 34.3 36 77.7 69.6 94.5 118 10.8 31.5 4.8 65.4-17.8 90.3-25.7 28.8-63.8 44-102.2 43.1-17.9-.3-35.5-4.5-52.1-11.2-29-11.6-55-38-54.7-70.8v-41.4c0-1.3.4-1.5 1.5-1.5h79.3c1.7 0 2.3.3 2.3 2 0 7.2.1 14 0 21.2-.1 8.2 3.7 14.1 10.4 18.3 9.5 5.9 22.4 6 31.7-.4 4.6-3.1 7.9-7.3 9.2-12.8 2.5-13-4.9-24.8-12.7-34.4-20.8-28.2-48-50.8-71.9-76.4-41.3-42.9-76.8-102-33.9-156.8 22.1-27.7 57.1-43.9 92.3-45.5C374 .3 397.8 4.6 418.8 15c26.8 13.4 45.4 38.2 44.4 68.9V124c0 .6-.3 1.4-1.6 1.4h-80.7M1967.2 65.1c-18.2 0-32.6-14.1-32.6-32 1.2-42.6 64.3-42.9 65.5 0-.1 18-14.4 32-32.9 32m-25.7-32c0 14.5 11.3 25.9 25.9 25.9 14.4.1 26.2-11.7 26.2-26 0-14.2-11.6-25.7-25.9-25.7-14.9 0-26.2 11.1-26.2 25.8" fill="#002E5D"/><path d="M1953.3 18.5c0-1.3.1-2.5 1.8-2.5 8.5.5 24.4-3 25.7 8.8.4 4.5-1.9 8.9-6.1 10.4-2.5.9-1.9 1.7-.7 3.1 2.8 3.5 5.5 7.1 8.2 10.6.3.5 1 1.5-1 1.9-3.1.5-5.4-.4-7.2-3.2-2.2-3.3-4.8-6.2-7.3-9.3-1.4-1.7-3.8-2.4-5.8-1.8-1 .3-1.1 1.1-1.1 2v10.3c0 2.4-.7 2-3.3 2-2.8 0-3.1-.2-3.1-2.3-.1-4.7-.1-25.1-.1-30m12.1 2.8s-2.6.1-3.8.1c-1.2 0-1.9.5-1.9 1.7v6.4c0 1 .5 1.5 1.6 1.5 3 0 6 .2 9-.4 2.8-.6 4-2 3.9-4.6-.2-4.8-5.1-4.6-8.8-4.7M498.6 14.3c0-4.7 0-4.7 5.4-4.7 41.3 0 82.7.4 124-.1 64.3-1 107.8 41.9 107.7 100.7.1 10.5.2 20.1 0 31.2.2 49.4-40.3 91.6-95.4 95.4-13.5 1.2-27 .5-40.5.5-5 0-5 0-5 4.2v156.1c0 4.7 0 4.7-5.4 4.7h-85.8c-5 0-5 0-5-4.2V14.3m96.2 145.9c0 4.2 0 4.2 5 4.2h11c16.9 0 30.7-9.5 33.5-23.9 2.1-10.7 1.8-21.8.3-32.5-1.9-14.4-15.4-25.4-34.7-25.4h-11c-3.3 0-4.2.9-4.1 3.6.1 12.3 0 61.7 0 74" fill="#002E5D"/></svg>