<svg height="1806" viewBox="0 0 496.604 358.755" width="2500" xmlns="http://www.w3.org/2000/svg"><path d="m61.998 167.078 85.138.001v-.001zm372.651.003h5.956v-.003h-5.956z" fill="#ed1b34"/><path d="m94.665 82.492a191.993 191.993 0 0 0 -22.179 42.293 189.934 189.934 0 0 0 -10.488 42.293h378.608a190.512 190.512 0 0 0 -10.471-42.293 192.196 192.196 0 0 0 -22.128-42.293 193.554 193.554 0 0 0 -39.962-42.292c-32.243-25.159-72.694-40.2-116.607-40.2-43.914 0-84.42 15.041-116.725 40.2a193.873 193.873 0 0 0 -40.048 42.292" fill="#eb1f37"/><path d="m159.365 124.785h-86.879a189.975 189.975 0 0 0 -10.488 42.293h85.139a144.38 144.38 0 0 1 12.228-42.293" fill="#f99d1c"/><path d="m189.016 82.493h-94.351a192.056 192.056 0 0 0 -22.179 42.293h86.879a146.745 146.745 0 0 1 29.651-42.293" fill="#f37021"/><path d="m430.135 124.785a192.235 192.235 0 0 0 -22.127-42.293 193.582 193.582 0 0 0 -39.963-42.292c-32.243-25.159-72.693-40.2-116.607-40.2s-84.42 15.041-116.725 40.2a193.873 193.873 0 0 0 -40.048 42.292h94.351c26.224-26.086 62.265-42.292 101.981-42.292 39.715 0 75.693 16.206 101.864 42.292a146.75 146.75 0 0 1 29.583 42.293 144.763 144.763 0 0 1 12.204 42.293h5.957a190.51 190.51 0 0 0 -10.47-42.293" fill="#ed1b34"/><path d="m392.86 82.493h-203.845a146.778 146.778 0 0 0 -29.651 42.293h263.079a146.685 146.685 0 0 0 -29.583-42.293" fill="#f99d1c"/><path d="m147.136 167.078h287.513a144.775 144.775 0 0 0 -12.206-42.293h-263.079a144.38 144.38 0 0 0 -12.228 42.293" fill="#fd0"/><path d="m290.996 40.2c-39.716 0-75.755 16.207-101.98 42.293h203.844c-26.169-26.086-62.148-42.293-101.864-42.293" fill="#f37021"/><path d="m155.771 216.221c0-7.587 8.142-10.92 19.06-10.92 8.889 0 20.365 2.592 28.507 5.736l5.723-22.688c-.572-.195-5.775-1.944-6.384-2.13-9.246-2.819-22.503-4.612-31.362-4.612-23.692 0-47.385 10.55-47.385 39.057 0 44.793 57.938 29.246 57.938 48.31 0 7.774-7.96 9.997-17.031 9.997-11.106 0-26.468-4.074-37.021-9.997l-6.572 23.94c-.293-.111 3.848 2.014 6.928 3.314 12.072 5.103 27.317 6.99 39.998 6.99 23.504 0 45.351-10.924 45.351-38.688 0-44.605-57.75-30.355-57.75-48.309m98.812 0c0-7.587 8.143-10.92 19.06-10.92 8.89 0 20.365 2.592 28.508 5.736l5.723-22.688c-.572-.195-5.775-1.944-6.384-2.13-9.246-2.819-22.503-4.612-31.362-4.612-23.692 0-47.385 10.55-47.385 39.057 0 44.793 57.938 29.246 57.938 48.31 0 7.774-7.96 9.997-17.031 9.997-11.105 0-26.467-4.074-37.021-9.997l-6.572 23.94c-.293-.111 3.849 2.014 6.928 3.314 12.072 5.103 27.317 6.99 39.999 6.99 23.505 0 45.351-10.924 45.351-38.688-.002-44.605-57.752-30.355-57.752-48.309m197.574-39.91v1.276h44.447v-8.682zm-116.832 7.518v22.768h11.288l-30.725 94.399h31.653l4.811-16.422h42.189l5.382 16.422h33.87l-42.2-117.167zm24.616 74.038 8.142-28.318c2.041-7.035 3.894-13.489 3.894-13.489s2.403 7.01 4.625 13.674l9.066 28.134 1.313 3.941h-28.151zm80.582-74.037v22.767h11.476v71.632h-11.476v22.767h56.081v-22.767h-12.21v-71.632h12.21v-22.767zm-361.87 100.744 5.382 16.422h33.869l-42.199-117.167h-56.269v22.768h11.288l-30.724 94.399h31.653l4.811-16.422zm-34.601-26.707 8.142-28.318c2.04-7.035 3.894-13.489 3.894-13.489s2.403 7.01 4.625 13.674l9.066 28.134 1.313 3.941h-28.151zm41.512 68.717-14.151 31.853h4.596l3.321-7.736h16.79l3.367 7.736h4.732l-14.105-31.853zm-4.504 20.159 6.644-15.471 6.734 15.471zm29.11-16.152h10.239v27.845h4.367v-27.845h10.284v-4.006h-24.89zm44.991-4.007-14.151 31.853h4.596l3.321-7.736h16.79l3.367 7.736h4.732l-14.105-31.853zm-4.505 20.159 6.644-15.471 6.734 15.471zm53.937 6.894a12.456 12.456 0 0 1 -4.913 1.021c-2.247 0-4.308-.545-6.189-1.639a12.063 12.063 0 0 1 -4.458-4.456c-1.093-1.883-1.638-3.928-1.638-6.143 0-2.245.545-4.3 1.638-6.166a12.15 12.15 0 0 1 4.458-4.438c1.881-1.093 3.942-1.638 6.189-1.638 1.698 0 3.35.356 4.959 1.07a13.133 13.133 0 0 1 4.231 2.979l2.594-3.139c-1.517-1.517-3.315-2.691-5.392-3.526a17.156 17.156 0 0 0 -6.438-1.25c-3.064 0-5.869.711-8.417 2.138-2.548 1.426-4.558 3.376-6.029 5.846-1.472 2.473-2.207 5.197-2.207 8.169 0 3.002.727 5.749 2.184 8.235a15.958 15.958 0 0 0 5.96 5.892c2.517 1.442 5.294 2.163 8.326 2.163 2.184 0 4.338-.447 6.462-1.344a17.781 17.781 0 0 0 5.596-3.706l-2.639-2.868a14.224 14.224 0 0 1 -4.277 2.8m31.806-27.053-14.152 31.853h4.596l3.321-7.736h16.79l3.367 7.736h4.731l-14.104-31.853zm-4.506 20.159 6.644-15.471 6.734 15.471zm57.65-18.087c-2.503-1.38-5.3-2.071-8.395-2.071h-12.968v31.852h12.831c3.124 0 5.946-.688 8.463-2.072 2.52-1.38 4.498-3.282 5.94-5.709 1.439-2.427 2.161-5.143 2.161-8.144 0-3.005-.714-5.719-2.139-8.146-1.427-2.428-3.391-4.33-5.893-5.71m2.003 19.996a11.358 11.358 0 0 1 -4.277 4.276c-1.806 1.034-3.815 1.551-6.028 1.551h-8.691v-23.935h8.508c2.245 0 4.285.522 6.12 1.57a11.602 11.602 0 0 1 4.347 4.299c1.06 1.821 1.592 3.866 1.592 6.144-.002 2.245-.526 4.278-1.571 6.095m20.973-22.068h4.368v31.852h-4.368zm38.298 15.608c-1.334-.607-3.078-1.243-5.231-1.912-1.73-.545-3.08-1.024-4.051-1.432-.97-.411-1.789-.973-2.456-1.685-.668-.711-1.002-1.631-1.002-2.753 0-1.243.553-2.222 1.661-2.933 1.106-.714 2.585-1.07 4.436-1.07 1.335 0 2.798.235 4.393.705a18.203 18.203 0 0 1 4.617 2.117l1.82-3.915c-1.427-.94-3.057-1.69-4.892-2.251a19.083 19.083 0 0 0 -5.619-.842c-2.245 0-4.217.349-5.915 1.044-1.7.697-3.021 1.699-3.959 3.005-.94 1.305-1.41 2.806-1.41 4.505 0 1.941.462 3.504 1.387 4.685a8.937 8.937 0 0 0 3.391 2.686c1.334.606 3.063 1.229 5.187 1.866 1.729.516 3.102.985 4.119 1.409 1.014.428 1.856 1.002 2.525 1.729.666.727 1 1.654 1 2.776 0 1.426-.613 2.555-1.843 3.39s-2.904 1.253-5.028 1.253c-1.789 0-3.634-.405-5.528-1.207a16.39 16.39 0 0 1 -5.119-3.436l-1.956 3.777c1.607 1.518 3.52 2.729 5.732 3.638 2.216.91 4.489 1.367 6.827 1.367 2.303 0 4.344-.372 6.118-1.115 1.775-.744 3.155-1.798 4.141-3.161.987-1.367 1.479-2.959 1.479-4.78 0-1.97-.471-3.556-1.411-4.753s-2.079-2.1-3.413-2.707m16.727-11.601h10.237v27.845h4.368v-27.845h10.284v-4.006h-24.889zm44.991-4.007-14.152 31.853h4.597l3.32-7.736h16.79l3.367 7.736h4.732l-14.105-31.853zm-4.506 20.159 6.644-15.471 6.734 15.471z" fill="#ed1b34"/></svg>