<svg height="280" width="2500" xmlns="http://www.w3.org/2000/svg" viewBox="-0.6019634646025089 0 272.3599634646025 30.45906879637169"><g><path d="M22.311 19.349l3.441 3.427c.072-.068.186-.172.3-.282l6.694-6.689c.36-.36.725-.713 1.071-1.086.089-.1 2.975-3.036 4.3-4.377l-3.414-3.393zM40.211 7.421c-.852-.862-1.7-1.723-2.572-2.571a.58.58 0 0 0-.866-.011c-.527.5-1.031 1.025-1.531 1.526l3.423 3.4c.511-.485 1.088-.993 1.614-1.547a.553.553 0 0 0-.068-.8M21.227 24.359c1-.268 1.993-.547 2.989-.823l.957-.263-3.378-3.384c-.373 1.356-.758 2.725-1.123 4.1-.092.346.124.485.555.37" fill="#faad1d"/><g fill="#0d2042"><path d="M26.543 13.564c.355-.45.79-.836 1.249-1.313-.169-.016-.244-.03-.319-.03h-7.94a.953.953 0 0 0-1.067.788.938.938 0 0 0 1.015 1.128c1.816.006 3.633-.024 5.448.016a1.751 1.751 0 0 0 1.617-.589M18.459 16.778a.881.881 0 0 0 .849.99c.924.035 1.85.02 2.777.011a.551.551 0 0 0 .34-.146c.579-.556 1.15-1.123 1.723-1.687l-.061-.117c-1.5 0-3-.006-4.505 0-.7 0-1.1.349-1.123.947M31.292 8.608a1.109 1.109 0 0 0-1.2-.975H19.643a1.109 1.109 0 0 0-1.2.975 1.109 1.109 0 0 0 1.2.975h10.445a1.109 1.109 0 0 0 1.2-.975"/><path d="M35.06 15.32l-.141-.091c-.562.6-1.135 1.182-1.678 1.8a.831.831 0 0 0-.1.5v10.895H16.145V2.025c5.214 0 13.661.007 16.984.007v4.734l.133.067c.572-.588 1.15-1.17 1.712-1.768a.582.582 0 0 0 .083-.362c.007-.83.01-2.732 0-3.561a.952.952 0 0 0-1.086-1.07c-3.87 0-14.519-.007-19.085 0V.068c-.043 0-.084.006-.128.007h-.57v.038A15.149 15.149 0 0 0 .632 10.87l-.232.892c0 .014-.006.029-.009.042v.011a15.144 15.144 0 0 0 13.8 18.498v.055h19.717c.82 0 1.153-.34 1.153-1.158V18.954zM14.188 4.177l-.465.252.467.108v1.025h-.072l.071-.668-1.055-.246-.431.325v1.01l-.782.246-.316.65-.342.062v-.843l-.728-.1-.37-.246-.149-.536 1.318-.773.641-.194.061.431.361-.017.026-.22.377-.05.009-.078-.166-.062-.036-.228.467-.043.28-.29.009-.017h.01l.078-.088.738-.093v.685m-4.049 2.3a.172.172 0 0 1-.172.151.16.16 0 0 1-.168-.151c.024-.082.048-.109.077-.109s.06.027.1.055a.252.252 0 0 0 .146.056h.019M14.188.79v1.849l-.782.086-.545.282.035.694-.562-.088-.088-.377.545-.493-.984-.052-.28.088-.127.324.369.071-.079.36-.623.043-.1.246-.9.019a2.555 2.555 0 0 0-.061-.51l.711-.017.536-.527-.29-.149-.395.386-.65-.035-.4-.545h-.829l-.87.65h.8l.071.237-.2.194.878.026.14.316-1-.035-.043-.247-.624-.132-.341-.185h-.533A14.369 14.369 0 0 1 14.188.79M5.772 12.458l.387-.72.9-.458H8.8v.533l.624.29-.053-.9.457-.457.9-.6.071-.422.9-.939.967-.536-.088-.071.659-.615.238.062.1.14.256-.272.061-.035-.257-.045-.282-.088v-.269l.15-.114.325-.009.14.069.132.256.089-.01v8.914l-.713-.014-.536-.844-.483-.228-.026.256-.87.052-.316-.448-.913-.185-.747.87-1.177-.2-.088-1.326-.86-.149.351-.65-.106-.383-1.125.756-.711-.078-.254-.562zM.738 16.693l-.026-.342v-.009c-.036-.37-.045-.747-.045-1.134v-.255l.009-.211.01-.211v-.118c.009-.1.009-.185.017-.272l.009-.071a14.363 14.363 0 0 1 1.133-4.59v.79l.615.3v1.169l.588 1 .475.069.061-.342-.562-.87-.114-.842h.334l.14.87.818 1.189-.211.387.519.79 1.292.323v-.211l.51.079-.045.369.4.071.624.176.887 1 1.124.088.114.922-.773.536-.035.826-.114.5 1.115 1.4.088.483s.4.105.457.105.9.659.9.659v2.521l.308.088-.211 1.169.519.685-.1 1.16.685 1.195.87.763.878.01.088-.282-.65-.545.045-.263.113-.334.027-.334-.439-.019-.22-.272.36-.351.053-.264-.4-.114.022-.247.579-.088.609-.292v4.126A14.466 14.466 0 0 1 .738 16.693M47.957 18.526l-1.709 3.72h-4.409L52.114 0l10.275 22.246h-4.411l-1.707-3.72zm6.737-3.441l-2.58-5.646-2.581 5.647zM73.526 20.719a5.887 5.887 0 0 1-3.418 2.082 6.965 6.965 0 0 1-1.467.158 8.819 8.819 0 0 1-2.1-.237 10.517 10.517 0 0 1-1.721-.57 9.675 9.675 0 0 1-1.272-.66c-.344-.218-.6-.392-.769-.521l1.938-2.787a11.878 11.878 0 0 0 1.855 1.036 4.24 4.24 0 0 0 1.671.345 4.514 4.514 0 0 0 .964-.109 1.808 1.808 0 0 0 .86-.436 1.267 1.267 0 0 0 .357-.981 1.368 1.368 0 0 0-.334-.945 2.393 2.393 0 0 0-.808-.593 3.952 3.952 0 0 0-.963-.3 14.167 14.167 0 0 1-1.95-.52 4.76 4.76 0 0 1-1.709-1.042 4.642 4.642 0 0 1-1.334-3.127 5.237 5.237 0 0 1 1.334-3.635 5.865 5.865 0 0 1 4.515-1.686 6.174 6.174 0 0 1 2.278.454 7.11 7.11 0 0 1 2.073 1.256l-2.06 2.714a7.23 7.23 0 0 0-.909-.635 3.583 3.583 0 0 0-.914-.364 1.981 1.981 0 0 0-1.011.006 1.763 1.763 0 0 0-.788.436 1.012 1.012 0 0 0-.351.763.952.952 0 0 0 .315.722 2.819 2.819 0 0 0 .847.52q.534.225 1.187.455.776.266 1.593.624a6.8 6.8 0 0 1 1.521.914 4.3 4.3 0 0 1 1.145 1.412 4.615 4.615 0 0 1 .442 2.138 5.084 5.084 0 0 1-1.017 3.114M86.239 20.719a5.887 5.887 0 0 1-3.418 2.082 6.965 6.965 0 0 1-1.467.158 8.819 8.819 0 0 1-2.1-.237 10.517 10.517 0 0 1-1.721-.57 9.676 9.676 0 0 1-1.272-.66c-.344-.218-.6-.392-.769-.521l1.938-2.787a11.879 11.879 0 0 0 1.855 1.036 4.24 4.24 0 0 0 1.671.345 4.514 4.514 0 0 0 .964-.109 1.809 1.809 0 0 0 .86-.436 1.267 1.267 0 0 0 .357-.981 1.368 1.368 0 0 0-.334-.945 2.394 2.394 0 0 0-.811-.593 3.952 3.952 0 0 0-.963-.3 14.167 14.167 0 0 1-1.95-.52 4.76 4.76 0 0 1-1.709-1.042 4.642 4.642 0 0 1-1.334-3.127 5.237 5.237 0 0 1 1.334-3.635 5.865 5.865 0 0 1 4.518-1.686 6.174 6.174 0 0 1 2.278.454 7.109 7.109 0 0 1 2.073 1.256l-2.06 2.712a7.23 7.23 0 0 0-.909-.635 3.582 3.582 0 0 0-.914-.364 1.981 1.981 0 0 0-1.011.006 1.763 1.763 0 0 0-.788.436 1.012 1.012 0 0 0-.351.763.952.952 0 0 0 .315.722 2.819 2.819 0 0 0 .847.52q.534.225 1.187.455.776.266 1.593.624a6.8 6.8 0 0 1 1.521.914 4.3 4.3 0 0 1 1.145 1.412 4.615 4.615 0 0 1 .442 2.138 5.084 5.084 0 0 1-1.017 3.114M93.231 3.211a2.193 2.193 0 0 1-.666 1.611 2.28 2.28 0 0 1-3.224 0 2.2 2.2 0 0 1-.666-1.611 2.2 2.2 0 0 1 .666-1.612 2.283 2.283 0 0 1 3.224 0 2.2 2.2 0 0 1 .666 1.612m-.278 19.035h-4V6.748h4zM107.047 6.748h3.779v15.57a7.968 7.968 0 0 1-1.072 4.088 8.214 8.214 0 0 1-2.877 2.938 7.569 7.569 0 0 1-4.011 1.1 7.647 7.647 0 0 1-3.943-1.078 8.148 8.148 0 0 1-2.94-2.96l3.247-2.06a4.186 4.186 0 0 0 1.539 1.545 4.214 4.214 0 0 0 4.2.006 4.226 4.226 0 0 0 1.514-1.5 3.959 3.959 0 0 0 .565-2.078v-1.26a3.952 3.952 0 0 1-1.74 1.423 5.981 5.981 0 0 1-2.393.467 7.755 7.755 0 0 1-4.113-1.133 8.481 8.481 0 0 1-2.963-3.035 8.239 8.239 0 0 1-1.1-4.2 8.239 8.239 0 0 1 1.1-4.2 8.424 8.424 0 0 1 2.963-3.029 7.783 7.783 0 0 1 4.112-1.136 7.563 7.563 0 0 1 1.969.217 5.287 5.287 0 0 1 1.273.5 3.984 3.984 0 0 1 .891.733zm-4.108 12.324a3.829 3.829 0 0 0 2.108-.605 4.509 4.509 0 0 0 1.515-1.624 4.779 4.779 0 0 0 0-4.525 4.489 4.489 0 0 0-1.515-1.63 3.983 3.983 0 0 0-4.222 0 4.426 4.426 0 0 0-1.515 1.63 4.825 4.825 0 0 0 0 4.525 4.446 4.446 0 0 0 1.515 1.624 3.859 3.859 0 0 0 2.114.605M121.697 6.204a5.756 5.756 0 0 1 4.466 1.885 7.726 7.726 0 0 1 1.714 5.385v8.773h-4v-8.919a3.284 3.284 0 0 0-6.567 0v8.919h-3.986V6.749h3.987v.9a6.014 6.014 0 0 1 4.386-1.445M148.126 6.204a5.253 5.253 0 0 1 2.532.588 5.328 5.328 0 0 1 1.824 1.612 7.492 7.492 0 0 1 1.108 2.364 10.51 10.51 0 0 1 .376 2.854l-.012 8.627h-3.926v-8.921a3.3 3.3 0 0 0-.891-2.32 2.6 2.6 0 0 0-4.035 0 3.3 3.3 0 0 0-.89 2.32v8.919h-4.072v-9.076a3.424 3.424 0 0 0-.944-2.23 2.59 2.59 0 0 0-3.974.067 3.312 3.312 0 0 0-.885 2.32v8.919h-3.963V6.749h3.841v.9a4.694 4.694 0 0 1 .914-.721 5.315 5.315 0 0 1 1.242-.5 6.889 6.889 0 0 1 1.867-.224 5.213 5.213 0 0 1 2.715.685 5.423 5.423 0 0 1 1.877 1.872 4.44 4.44 0 0 1 .455-.576 5.74 5.74 0 0 1 1-.861 6.463 6.463 0 0 1 1.593-.787 6.783 6.783 0 0 1 2.248-.333M159.226 15.933a3.611 3.611 0 0 0 1.418 2.192 6.18 6.18 0 0 0 3.792.922 8.284 8.284 0 0 0 4.314-1.1v4.1q-2.071 1.137-6.229.811a7.9 7.9 0 0 1-5.179-2.751 8.167 8.167 0 0 1-2.091-5.55 8.247 8.247 0 0 1 2.314-5.882 7.4 7.4 0 0 1 5.574-2.441 6.152 6.152 0 0 1 4.26 1.3 6.574 6.574 0 0 1 1.951 3.066 11.884 11.884 0 0 1 .521 3.278 15.717 15.717 0 0 1-.078 2.06zm6.883-3.32a2.807 2.807 0 0 0-.824-2.139 3.433 3.433 0 0 0-2.448-.782 3.8 3.8 0 0 0-2.653 1.139 3.665 3.665 0 0 0-1.067 1.782zM180.119 6.204a5.756 5.756 0 0 1 4.466 1.885 7.726 7.726 0 0 1 1.714 5.385v8.773h-4v-8.919a3.284 3.284 0 0 0-6.567 0v8.919h-3.987V6.749h3.987v.9a6.014 6.014 0 0 1 4.387-1.445M193.133 2.629v4.144h2.581v3.222h-2.581v7.756a1.543 1.543 0 0 0 .128.66 1.094 1.094 0 0 0 .944.672 2.562 2.562 0 0 0 .7-.025 5.478 5.478 0 0 0 .805-.218v3.877a10.084 10.084 0 0 1-1.7.237 6.792 6.792 0 0 1-1.576-.134 4.3 4.3 0 0 1-1.581-.66 3.646 3.646 0 0 1-1.223-1.465 5.882 5.882 0 0 1-.479-2.582V9.995h-1.672V6.773h1.685V3.11zM199.06 18.563a2.044 2.044 0 0 1 1.515.643 2.237 2.237 0 0 1 0 3.113 2.12 2.12 0 0 1-3.041 0 2.237 2.237 0 0 1 0-3.113 2.051 2.051 0 0 1 1.526-.643M210.318 13.789l-4.22 8.978-6.673-16.018h4.47l2.776 6.956 3.647-7.378 3.647 7.38 2.776-6.956h4.47l-6.677 16.016zM246.939 6.204a5.821 5.821 0 0 1 .86.061v3.78a7.671 7.671 0 0 0-1.356-.067 5.518 5.518 0 0 0-1.261.226 3.658 3.658 0 0 0-1.267.672 3.492 3.492 0 0 0-.981 1.328 5.43 5.43 0 0 0-.381 2.2v7.84h-3.987V6.749h3.987v1.914a4.942 4.942 0 0 1 4.386-2.459M249.558.362h3.987v21.883h-3.987zM267.832 22.32v-.994a6.6 6.6 0 0 1-4.774 1.623 7.113 7.113 0 0 1-5.543-2.441 8.544 8.544 0 0 1-2.187-5.907 8.526 8.526 0 0 1 2.187-5.895 7.115 7.115 0 0 1 5.543-2.442 6.6 6.6 0 0 1 4.774 1.624V.363h3.926V22.32zm.109-7.67a4.627 4.627 0 0 0-1.254-3.266 4.091 4.091 0 0 0-6.076 0 4.616 4.616 0 0 0-1.261 3.266 4.578 4.578 0 0 0 1.261 3.247 4.1 4.1 0 0 0 6.076 0 4.589 4.589 0 0 0 1.254-3.247"/></g><path d="M228.702 22.82h-.327l-.922-.084-.33-.062-.721-.158-.334-.113-.582-.21a.489.489 0 0 0-.275-.128l-.655-.342-.2-.119-.592-.4a.362.362 0 0 0-.191-.149c-.176-.151-.354-.3-.53-.455l-.2-.191c-.136-.15-.274-.3-.411-.448l-.182-.212-.387-.52a.347.347 0 0 0-.13-.2l-.345-.588a.972.972 0 0 0-.182-.359l-.228-.563c-.048-.136-.1-.273-.144-.408l-.176-.581-.086-.453-.11-.668-.011-.33-.007-.974.015-.344.16-1.016.17-.63q.339-.823.679-1.643l.727-1.052a12.873 12.873 0 0 1 1.371-1.37 8.56 8.56 0 0 1 2.934-1.465 8.225 8.225 0 0 1 6.621.981c.083.051.17.1.256.146q.259.194.52.386c.056.05.112.1.169.146l.491.447a.477.477 0 0 0 .195.2c.15.177.3.354.453.531a.366.366 0 0 0 .149.191l.4.591a9.156 9.156 0 0 1 1.061 2.771 8.379 8.379 0 0 1-.408 4.586c-.027.071-.045.145-.067.218a9.65 9.65 0 0 1-1.575 2.395 9.116 9.116 0 0 1-2.838 2.014 1.757 1.757 0 0 0-.524.2l-1.319.335a.68.68 0 0 0-.4.057l-.988.042m-.921-7.36c-.974-.105-1.032-.048-.831.82 0 .02.024.035.036.052a.38.38 0 0 0 .053.269 2.241 2.241 0 0 0 .2.725.386.386 0 0 0 .087.257 6.9 6.9 0 0 0 .716 1.649 6.95 6.95 0 0 0 .673 1.161 11.53 11.53 0 0 0 1.5-3.206 6.918 6.918 0 0 0 .342-1.526c.024-.171-.026-.237-.206-.225-.283.019-.567.017-.851.025a.762.762 0 0 0-.4 0 3.852 3.852 0 0 0-.918 0 .766.766 0 0 0-.4 0m-4.1 3.181a2.021 2.021 0 0 0 .473.522 6.292 6.292 0 0 0 2.7 1.617 15.51 15.51 0 0 1-1.369-2.969l-.164-.624-.079-.341-.159-.783a17.857 17.857 0 0 0-.024-.326c.03-.221-.05-.308-.289-.3-.744.015-1.489.017-2.233 0-.244 0-.277.084-.234.283a5.7 5.7 0 0 0 .708 1.942.522.522 0 0 0 .148.257 1.973 1.973 0 0 0 .351.525.424.424 0 0 0 .166.2m8.518-6.265a.338.338 0 0 0 .053.267c.026.251.063.5.074.749.009.207.087.279.3.275q1.117-.017 2.236 0c.2 0 .28-.041.237-.254a6.033 6.033 0 0 0-1.047-2.509.294.294 0 0 0-.135-.191 1.848 1.848 0 0 0-.411-.509 6.276 6.276 0 0 0-2.915-1.869c.283.568.562 1.072.789 1.6s.417 1.1.623 1.651l.194.79m-5.082 1.266a.757.757 0 0 0 .4 0c.922.007 1.844.007 2.764.027.238 0 .306-.068.27-.294a9.027 9.027 0 0 0-.639-2.328c-.014-.041-.027-.081-.042-.12a3.623 3.623 0 0 0-.357-.774 9.237 9.237 0 0 0-.794-1.419 10.742 10.742 0 0 0-1.721 3.907l-.145.768c-.043.226.042.305.263.233m-.771-4.428c.108-.187.221-.372.323-.562.038-.072.141-.154.072-.231s-.181 0-.264.031a6.431 6.431 0 0 0-3.271 2.662 5.033 5.033 0 0 0-.754 1.79 1.275 1.275 0 0 0-.118.462c-.073.213-.035.323.228.3.3-.022.593 0 .89-.007a9.28 9.28 0 0 0 1.438-.04c.136.066.179 0 .17-.127a12.434 12.434 0 0 1 .991-3.629l.3-.65m7.116 6.245c-.3-.007-.608-.012-.912-.026-.144-.006-.187.067-.2.194-.041.344-.087.687-.132 1.031a14.227 14.227 0 0 1-1.362 3.629l-.273.467a3.309 3.309 0 0 0 .726-.264 6.263 6.263 0 0 0 3.6-4.029 3.439 3.439 0 0 0 .21-.819c.021-.122.019-.211-.15-.206-.5.012-1 .016-1.5.024" fill="#faad1d"/></g></svg>