<svg height="313" viewBox="-.19464065 -.00350216 280.26120811 35.00250216" width="2500" xmlns="http://www.w3.org/2000/svg"><path d="m8.146 32.409-7.565-12.985a4.251 4.251 0 0 1 0-4.293l7.565-12.984a4.333 4.333 0 0 1 3.748-2.147h15.13a4.333 4.333 0 0 1 3.751 2.147l7.553 12.985a4.266 4.266 0 0 1 0 4.293l-7.553 12.984a4.333 4.333 0 0 1 -3.751 2.147h-15.13a4.333 4.333 0 0 1 -3.747-2.146z" fill="#ff8b00"/><path d="m9.126 31.095-6.917-11.859a3.883 3.883 0 0 1 0-3.916l6.917-11.857a3.962 3.962 0 0 1 3.429-1.96h13.819a3.962 3.962 0 0 1 3.437 1.96l6.914 11.859a3.883 3.883 0 0 1 0 3.916l-6.914 11.857a3.962 3.962 0 0 1 -3.425 1.958h-13.838a3.962 3.962 0 0 1 -3.422-1.958z" fill="#2c2c2c"/><path d="m21.686 27.466h-4.45l9.293-20.04h4.453z" fill="#ff8b00"/><path d="m26.584 7.426h4.453v20.037h-4.453zm-4.877 20.04h-4.453l-9.372-20.04h4.453z" fill="#ffa233"/><path d="m7.882 7.426h4.453v20.037h-4.453z" fill="#ff8b00"/><path d="m59.532 12.244c-.1-2.084-.216-4.6-.192-6.78h-.073a86.844 86.844 0 0 1 -1.916 6.181l-2.345 7h-2.278l-2.154-6.9a79.267 79.267 0 0 1 -1.63-6.278h-.049a350.62 350.62 0 0 1 -.286 6.875l-.362 6.494h-2.738l1.065-16.15h3.878l2.108 6.491a81.087 81.087 0 0 1 1.487 5.606h.07a79.25 79.25 0 0 1 1.606-5.631l2.227-6.467h3.833l.934 16.146h-2.875zm9.843 6.588v-6.731l-5.1-9.415h3.346l1.941 4.143c.551 1.2.958 2.108 1.387 3.209h.049c.408-1.028.864-2.035 1.414-3.209l1.941-4.143h3.331l-5.357 9.342v6.8zm18.303-4.578-1.39 4.563h-3.042l5.171-16.146h3.76l5.247 16.146h-3.157l-1.463-4.563zm4.624-2.227-1.271-3.976c-.3-.983-.575-2.084-.812-3.021h-.049c-.24.937-.481 2.062-.767 3.021l-1.247 3.976zm7.307 3.593a8.155 8.155 0 0 0 3.9 1.031c1.892 0 2.948-.885 2.948-2.205 0-1.217-.815-1.938-2.875-2.683-2.659-.958-4.359-2.37-4.359-4.694 0-2.634 2.2-4.648 5.7-4.648a8.517 8.517 0 0 1 3.881.815l-.721 2.37a6.847 6.847 0 0 0 -3.209-.767c-1.868 0-2.683 1.007-2.683 1.941 0 1.247.934 1.825 3.091 2.662 2.8 1.052 4.167 2.467 4.167 4.791 0 2.586-1.965 4.837-6.132 4.837a9.6 9.6 0 0 1 -4.359-1zm12.432 0a8.155 8.155 0 0 0 3.9 1.031c1.892 0 2.948-.885 2.948-2.205 0-1.217-.815-1.938-2.875-2.683-2.659-.958-4.359-2.37-4.359-4.694 0-2.634 2.2-4.636 5.7-4.636a8.517 8.517 0 0 1 3.894.8l-.721 2.37a6.847 6.847 0 0 0 -3.234-.767c-1.868 0-2.683 1.007-2.683 1.941 0 1.247.934 1.825 3.091 2.662 2.8 1.052 4.167 2.467 4.167 4.791 0 2.586-1.962 4.837-6.132 4.837a9.6 9.6 0 0 1 -4.359-1zm15.45-12.934v16.146h-2.948v-16.146zm16.313 15.401a15.988 15.988 0 0 1 -5.2.913 8.693 8.693 0 0 1 -6.322-2.161 7.993 7.993 0 0 1 -2.251-5.941c0-5.1 3.65-8.383 8.983-8.383a10.661 10.661 0 0 1 4.286.767l-.645 2.37a8.709 8.709 0 0 0 -3.665-.694c-3.44 0-5.874 2.035-5.874 5.8 0 3.65 2.251 5.843 5.6 5.843a5.655 5.655 0 0 0 2.23-.335v-4.027h-2.844v-2.319h5.7zm3.018.745v-16.146h3.346l4.17 6.923a44.512 44.512 0 0 1 2.753 5.412h.055c-.192-2.154-.265-4.24-.265-6.707v-5.628h2.738v16.146h-3.042l-4.222-7.091a56.308 56.308 0 0 1 -2.9-5.582l-.07.021c.119 2.087.143 4.216.143 6.878v5.78zm29.822-6.588c-.094-2.084-.216-4.6-.192-6.78h-.07a88.42 88.42 0 0 1 -1.916 6.181l-2.348 7h-2.275l-2.157-6.9c-.608-2.062-1.2-4.259-1.63-6.278h-.046a350.962 350.962 0 0 1 -.289 6.875l-.362 6.494h-2.738l1.065-16.15h3.881l2.108 6.491a81.026 81.026 0 0 1 1.484 5.606h.07a79.25 79.25 0 0 1 1.606-5.631l2.23-6.467h3.83l.937 16.146h-2.875zm15.213-.575h-6.084v4.757h6.8v2.43h-9.747v-16.17h9.39v2.434h-6.443v4.167h6.084zm3.313 7.163v-16.146h3.346l4.167 6.923a44.116 44.116 0 0 1 2.756 5.412h.049c-.192-2.154-.265-4.24-.265-6.707v-5.628h2.738v16.146h-3.057l-4.207-7.091a56.335 56.335 0 0 1 -2.9-5.582l-.073.021c.122 2.087.146 4.216.146 6.878v5.78zm19.276-13.676h-4.6v-2.47h12.192v2.47h-4.641v13.685h-2.948zm17.393-2.47v6.47h6.832v-6.47h2.948v16.146h-2.95v-7.115h-6.83v7.115h-2.95v-16.146zm22.177 8.983h-6.084v4.757h6.8v2.43h-9.746v-16.17h9.39v2.434h-6.443v4.167h6.083zm3.308-8.983h2.942v13.688h6.634v2.47h-9.582zm11.809.216a25.521 25.521 0 0 1 4.517-.338 7.3 7.3 0 0 1 4.767 1.32 4.563 4.563 0 0 1 1.582 3.568 4.859 4.859 0 0 1 -1.39 3.65 7.12 7.12 0 0 1 -5.1 1.725 8.177 8.177 0 0 1 -1.439-.1v6.084h-2.923zm2.923 7.52a5.864 5.864 0 0 0 1.439.122c2.2 0 3.544-1.08 3.544-2.972 0-1.795-1.244-2.738-3.282-2.738a8.08 8.08 0 0 0 -1.7.143zm-225.872 22.242-1.825-7.188h.979l.855 3.65c.213.894.4 1.792.532 2.485h.021c.119-.715.341-1.57.587-2.5l.958-3.626h.97l.876 3.65c.2.855.4 1.707.5 2.464h.04c.149-.788.353-1.588.575-2.485l.946-3.641h.949l-2.035 7.188h-.983l-.913-3.742a22.449 22.449 0 0 1 -.468-2.348h-.021a22.286 22.286 0 0 1 -.554 2.348l-1.025 3.742zm12.137-2.622a2.52 2.52 0 0 1 -2.57 2.738 2.454 2.454 0 0 1 -2.473-2.656 2.518 2.518 0 0 1 2.56-2.738 2.443 2.443 0 0 1 2.483 2.656zm-4.094.052c0 1.132.651 1.983 1.567 1.983s1.579-.843 1.579-2c0-.873-.438-1.983-1.548-1.983s-1.6 1.025-1.6 2.02zm5.275-.98c0-.608 0-1.132-.04-1.612h.818l.033 1.013h.043a1.545 1.545 0 0 1 1.43-1.129 1.028 1.028 0 0 1 .268.03v.885a1.451 1.451 0 0 0 -.322-.03 1.315 1.315 0 0 0 -1.256 1.217 2.64 2.64 0 0 0 -.043.438v2.738h-.931zm3.534-4.021h.94v7.571h-.94zm6.975 0v6.233a12.815 12.815 0 0 0 .043 1.332h-.843l-.043-.894h-.021a1.91 1.91 0 0 1 -1.758 1.013 2.353 2.353 0 0 1 -2.208-2.625c0-1.716 1.056-2.771 2.315-2.771a1.728 1.728 0 0 1 1.557.788h.021v-3.076zm-.937 4.511a1.748 1.748 0 0 0 -.043-.4 1.381 1.381 0 0 0 -1.357-1.086c-.97 0-1.545.852-1.545 1.992 0 1.046.511 1.91 1.521 1.91a1.414 1.414 0 0 0 1.378-1.119 1.7 1.7 0 0 0 .043-.4zm3.742-4.175a12.169 12.169 0 0 1 -1 2.528l-.608.076a15.018 15.018 0 0 0 .63-2.507zm.127 6.276a2.491 2.491 0 0 0 1.238.371c.681 0 1-.341 1-.767s-.268-.694-.961-.949c-.928-.332-1.366-.843-1.366-1.46a1.6 1.6 0 0 1 1.783-1.521 2.57 2.57 0 0 1 1.268.3l-.234.681a2.011 2.011 0 0 0 -1.056-.3c-.554 0-.864.3-.864.7s.3.608.983.876c.894.341 1.354.788 1.354 1.557 0 .913-.706 1.545-1.932 1.545a2.948 2.948 0 0 1 -1.451-.35zm6.635.959v-7.188h1.013l2.3 3.65a19.915 19.915 0 0 1 1.29 2.336h.021c-.085-.961-.106-1.825-.106-2.954v-3.032h.876v7.188h-.94l-2.281-3.65a22.594 22.594 0 0 1 -1.345-2.4h-.03c.052.913.073 1.77.073 2.963v3.072zm11.668-2.622a2.521 2.521 0 0 1 -2.57 2.738 2.454 2.454 0 0 1 -2.473-2.656 2.516 2.516 0 0 1 2.558-2.738 2.443 2.443 0 0 1 2.485 2.656zm-4.094.067c0 1.132.651 1.983 1.567 1.983s1.57-.843 1.57-2c0-.873-.438-1.983-1.548-1.983s-1.589 1.005-1.589 1.999zm4.798 2.001a.633.633 0 0 1 .642-.672.673.673 0 1 1 0 1.345.63.63 0 0 1 -.642-.672zm6.433-5.503h-.021l-1.217.648-.179-.712 1.521-.812h.8v6.932h-.913zm7.187 3.806-.745 2.251h-.958l2.434-7.188h1.116l2.452 7.188h-.992l-.76-2.251zm2.357-.727-.706-2.068a17.188 17.188 0 0 1 -.374-1.311h-.018c-.109.426-.225.864-.365 1.3l-.7 2.078zm2.784 2.019a2.473 2.473 0 0 0 1.238.371c.681 0 1-.341 1-.767s-.265-.694-.958-.949c-.931-.332-1.366-.843-1.366-1.46a1.6 1.6 0 0 1 1.78-1.521 2.592 2.592 0 0 1 1.272.3l-.237.681a2 2 0 0 0 -1.056-.3c-.554 0-.864.3-.864.7s.3.608.983.876c.894.341 1.354.788 1.354 1.557 0 .913-.7 1.545-1.929 1.545a2.948 2.948 0 0 1 -1.451-.35zm4.223 0a2.482 2.482 0 0 0 1.238.371c.681 0 1-.341 1-.767s-.268-.694-.961-.949c-.928-.332-1.351-.843-1.351-1.469a1.6 1.6 0 0 1 1.787-1.519 2.58 2.58 0 0 1 1.268.3l-.234.681a2.011 2.011 0 0 0 -1.056-.3c-.557 0-.864.3-.864.7s.3.608.979.876c.9.341 1.357.788 1.357 1.557 0 .913-.706 1.545-1.932 1.545a2.948 2.948 0 0 1 -1.451-.35zm5.405-5.654a.554.554 0 0 1 -.608.578.56.56 0 0 1 -.566-.578.575.575 0 0 1 .587-.587.557.557 0 0 1 .587.587zm-1.043 6.613v-5.171h.937v5.171zm6.932-5.162c-.021.374-.043.791-.043 1.421v3.011a2.967 2.967 0 0 1 -.736 2.357 2.738 2.738 0 0 1 -1.877.608 3.346 3.346 0 0 1 -1.716-.426l.234-.715a2.908 2.908 0 0 0 1.521.4c.958 0 1.664-.5 1.664-1.8v-.578h-.021a1.843 1.843 0 0 1 -1.643.864 2.307 2.307 0 0 1 -2.2-2.516 2.476 2.476 0 0 1 2.327-2.738 1.716 1.716 0 0 1 1.6.888h.021l.043-.779zm-.97 2.038a1.329 1.329 0 0 0 -.052-.426 1.351 1.351 0 0 0 -1.311-.992c-.9 0-1.536.754-1.536 1.95 0 1.013.511 1.856 1.521 1.856a1.375 1.375 0 0 0 1.3-.958 1.685 1.685 0 0 0 .073-.5zm2.422-.648c0-.535 0-.973-.043-1.4h.833l.052.855h.03a1.9 1.9 0 0 1 1.706-.97c.715 0 1.825.426 1.825 2.2v3.091h-.94v-2.979c0-.833-.3-1.521-1.192-1.521a1.329 1.329 0 0 0 -1.259.958 1.356 1.356 0 0 0 -.064.438v3.1h-.94zm5.919 0c0-.535 0-.973-.043-1.4h.821l.043.833h.033a1.77 1.77 0 0 1 1.621-.949 1.521 1.521 0 0 1 1.46 1.034h.021a2.129 2.129 0 0 1 .575-.672 1.767 1.767 0 0 1 1.144-.362c.681 0 1.694.447 1.694 2.239v3.045h-.913v-2.92c0-.992-.365-1.588-1.122-1.588a1.217 1.217 0 0 0 -1.107.855 1.544 1.544 0 0 0 -.076.468v3.185h-.913v-3.09c0-.821-.365-1.418-1.08-1.418a1.284 1.284 0 0 0 -1.162.94 1.316 1.316 0 0 0 -.073.456v3.112h-.916zm9.413 1.363a1.655 1.655 0 0 0 1.77 1.792 3.389 3.389 0 0 0 1.43-.268l.161.672a4.2 4.2 0 0 1 -1.719.3 2.4 2.4 0 0 1 -2.537-2.6 2.5 2.5 0 0 1 2.439-2.78 2.184 2.184 0 0 1 2.129 2.434 3.257 3.257 0 0 1 -.034.438zm2.753-.672c0-.608-.246-1.521-1.3-1.521a1.554 1.554 0 0 0 -1.439 1.521zm2.07-.691c0-.535 0-.973-.043-1.4h.833l.052.855h.021a1.9 1.9 0 0 1 1.706-.97c.715 0 1.825.426 1.825 2.2v3.091h-.94v-2.979c0-.833-.3-1.521-1.2-1.521a1.329 1.329 0 0 0 -1.256.958 1.356 1.356 0 0 0 -.064.438v3.1h-.94zm7.012-2.872v1.481h1.341v.715h-1.341v2.784c0 .642.179 1 .7 1a2.164 2.164 0 0 0 .544-.064l.043.7a2.272 2.272 0 0 1 -.833.128 1.3 1.3 0 0 1 -1.013-.392 1.928 1.928 0 0 1 -.362-1.345v-2.811h-.8v-.715h.8v-1.241zm5.618-.544v3.008h3.477v-3.008h.94v7.188h-.94v-3.37h-3.477v3.37h-.913v-7.188zm6.518 4.779a1.653 1.653 0 0 0 1.77 1.792 3.4 3.4 0 0 0 1.43-.268l.158.672a4.182 4.182 0 0 1 -1.716.3 2.4 2.4 0 0 1 -2.54-2.6 2.5 2.5 0 0 1 2.435-2.78 2.184 2.184 0 0 1 2.129 2.434 4 4 0 0 1 -.03.438zm2.738-.672c0-.608-.243-1.521-1.3-1.521a1.556 1.556 0 0 0 -1.442 1.521zm2.081-4.49h.94v7.571h-.94zm2.519 4.103c0-.66-.021-1.2-.043-1.685h.843l.043.885h.021a2.026 2.026 0 0 1 1.825-1 2.339 2.339 0 0 1 2.187 2.622c0 1.856-1.132 2.774-2.348 2.774a1.807 1.807 0 0 1 -1.588-.812h-.021v2.808h-.912zm.912 1.378a2.129 2.129 0 0 0 .043.383 1.448 1.448 0 0 0 1.408 1.1c.992 0 1.567-.812 1.567-2 0-1.034-.544-1.919-1.521-1.919a1.5 1.5 0 0 0 -1.417 1.162 1.6 1.6 0 0 0 -.064.383zm12.472 1.855a4.6 4.6 0 0 1 -1.9.341 3.363 3.363 0 0 1 -3.553-3.65 3.577 3.577 0 0 1 3.757-3.778 3.811 3.811 0 0 1 1.706.322l-.225.754a3.383 3.383 0 0 0 -1.451-.3 2.674 2.674 0 0 0 -2.8 2.966 2.612 2.612 0 0 0 2.762 2.89 3.7 3.7 0 0 0 1.521-.3zm5.685-2.387a2.521 2.521 0 0 1 -2.57 2.738 2.454 2.454 0 0 1 -2.473-2.656 2.516 2.516 0 0 1 2.558-2.738 2.443 2.443 0 0 1 2.485 2.656zm-4.094.052c0 1.132.651 1.983 1.567 1.983s1.57-.843 1.57-2c0-.873-.438-1.983-1.548-1.983s-1.588 1.025-1.588 2.02zm5.263-1.202c0-.535 0-.973-.043-1.4h.821l.043.833h.034a1.77 1.77 0 0 1 1.621-.949 1.521 1.521 0 0 1 1.46 1.034h.021a2.129 2.129 0 0 1 .575-.672 1.767 1.767 0 0 1 1.144-.362c.681 0 1.694.447 1.694 2.239v3.045h-.913v-2.92c0-.992-.365-1.588-1.122-1.588a1.217 1.217 0 0 0 -1.107.855 1.54 1.54 0 0 0 -.076.468v3.185h-.913v-3.09c0-.821-.365-1.418-1.077-1.418a1.284 1.284 0 0 0 -1.165.94 1.317 1.317 0 0 0 -.073.456v3.112h-.913zm8.909.304c0-.66-.021-1.2-.043-1.685h.843l.043.885h.024a2.026 2.026 0 0 1 1.825-1 2.337 2.337 0 0 1 2.184 2.622c0 1.856-1.129 2.774-2.345 2.774a1.8 1.8 0 0 1 -1.588-.812h-.026v2.808h-.931zm.931 1.378a2.134 2.134 0 0 0 .043.383 1.445 1.445 0 0 0 1.405 1.1c.995 0 1.57-.812 1.57-2 0-1.034-.545-1.919-1.521-1.919a1.5 1.5 0 0 0 -1.421 1.162 1.6 1.6 0 0 0 -.061.383zm7.997 2.09-.073-.651h-.034a1.919 1.919 0 0 1 -1.579.77 1.472 1.472 0 0 1 -1.579-1.484c0-1.247 1.11-1.929 3.106-1.919v-.106a1.064 1.064 0 0 0 -1.174-1.192 2.573 2.573 0 0 0 -1.344.383l-.213-.608a3.209 3.209 0 0 1 1.7-.456c1.576 0 1.962 1.077 1.962 2.111v1.932a7.242 7.242 0 0 0 .085 1.235zm-.137-2.634c-1.025-.021-2.187.161-2.187 1.162a.83.83 0 0 0 .885.913 1.281 1.281 0 0 0 1.247-.864.954.954 0 0 0 .055-.3zm2.418-1.138c0-.535 0-.973-.04-1.4h.831l.055.855h.027a1.892 1.892 0 0 1 1.706-.97c.712 0 1.825.426 1.825 2.2v3.091h-.943v-2.979c0-.833-.3-1.521-1.2-1.521a1.335 1.335 0 0 0 -1.259.958 1.356 1.356 0 0 0 -.064.438v3.1h-.94zm6.123-1.391 1.132 3.042c.116.341.246.745.332 1.056h.021c.094-.3.2-.7.328-1.077l1.025-3.042h.992l-1.408 3.681a7.861 7.861 0 0 1 -1.77 3.23 2.527 2.527 0 0 1 -1.153.608l-.234-.788a2.518 2.518 0 0 0 .821-.459 2.859 2.859 0 0 0 .791-1.046.659.659 0 0 0 .073-.222.824.824 0 0 0 -.064-.246l-1.908-4.737zm6.817 4.204a2.47 2.47 0 0 0 1.235.371c.684 0 1-.341 1-.767s-.268-.694-.961-.949c-.912-.332-1.363-.843-1.363-1.46a1.593 1.593 0 0 1 1.779-1.521 2.571 2.571 0 0 1 1.269.3l-.234.681a2 2 0 0 0 -1.056-.3c-.554 0-.864.3-.864.7s.3.608.983.876c.894.341 1.354.788 1.354 1.557 0 .913-.7 1.545-1.932 1.545a2.962 2.962 0 0 1 -1.451-.35zm5.396-5.655a.581.581 0 1 1 -1.162 0 .572.572 0 0 1 .584-.587.56.56 0 0 1 .578.587zm-1.037 6.613v-5.171h.94v5.171zm2.489-3.771c0-.535 0-.973-.043-1.4h.83l.055.855h.015a1.892 1.892 0 0 1 1.706-.97c.715 0 1.825.426 1.825 2.2v3.091h-.937v-2.979c0-.833-.3-1.521-1.2-1.521a1.335 1.335 0 0 0 -1.259.958 1.356 1.356 0 0 0 -.064.438v3.1h-.937zm9.597 3.58a3.446 3.446 0 0 1 -1.481.3 2.452 2.452 0 0 1 -2.57-2.634 2.627 2.627 0 0 1 2.774-2.738 3.128 3.128 0 0 1 1.3.268l-.213.724a2.172 2.172 0 0 0 -1.086-.243 1.946 1.946 0 0 0 -.034 3.881 2.7 2.7 0 0 0 1.153-.256zm1.553-2.217a1.655 1.655 0 0 0 1.77 1.792 3.4 3.4 0 0 0 1.43-.268l.161.672a4.2 4.2 0 0 1 -1.719.3 2.4 2.4 0 0 1 -2.537-2.6 2.5 2.5 0 0 1 2.439-2.78 2.184 2.184 0 0 1 2.129 2.434 3.247 3.247 0 0 1 -.033.438zm2.738-.672c0-.608-.246-1.521-1.3-1.521a1.554 1.554 0 0 0 -1.439 1.521zm4.05 3.081v-.578l.736-.715c1.77-1.685 2.57-2.583 2.583-3.626a1.237 1.237 0 0 0 -1.378-1.354 2.379 2.379 0 0 0 -1.472.584l-.3-.66a3.042 3.042 0 0 1 1.962-.7 1.955 1.955 0 0 1 2.129 2.014c0 1.281-.913 2.315-2.388 3.723l-.557.511v.023h3.115v.779zm10.077-3.541c0 2.357-.873 3.65-2.409 3.65-1.354 0-2.272-1.268-2.294-3.562s1-3.6 2.412-3.6c1.461.005 2.291 1.304 2.291 3.512zm-3.763.106c0 1.8.554 2.826 1.408 2.826.958 0 1.418-1.119 1.418-2.89 0-1.706-.438-2.826-1.409-2.826-.821.001-1.417 1.005-1.417 2.891zm9.236-.106c0 2.357-.873 3.65-2.409 3.65-1.357 0-2.272-1.268-2.294-3.562s1-3.6 2.409-3.6c1.464.005 2.294 1.304 2.294 3.512zm-3.766.106c0 1.8.557 2.826 1.408 2.826.961 0 1.42-1.119 1.42-2.89 0-1.706-.438-2.826-1.408-2.826-.821.001-1.42 1.005-1.42 2.891zm9.127-3.498v.608l-3.014 6.324h-.97l3.008-6.132v-.021h-3.4v-.779z" fill="#2c2c2c"/></svg>