<svg height="639" viewBox="0 -12.05706067 1282.68 315.56906067" width="2500" xmlns="http://www.w3.org/2000/svg"><path d="m1025.2 228.342h17.464v3.258h-6.864v18.312h-3.776v-18.312h-6.824zm19.9 0h5.319l5.954 16.883h.058l5.8-16.883h5.262v21.574h-3.6v-16.652h-.063l-5.98 16.652h-3.116l-5.98-16.652h-.062v16.652h-3.6zm-774.752 0h30.638c12.858 0 23.239 4.721 23.239 18.923 0 9.867-5.967 17.165-15.737 18.816v.2c10.908 1.227 13.577 8.118 14.3 15.728s-.518 15.843 2.468 19.753h-5.043c-2.772-5.048-1.13-13.474-1.955-20.57-.924-7.1-4.414-12.858-17.272-12.858h-26.122v33.428h-4.516zm30.638 36.088c10.689 0 18.718-5.035 18.718-16.862 0-11.1-8.846-15.321-18.718-15.321h-26.122v32.183zm79.897 33.427v3.91h-49.874v-73.425h49.361v3.905h-44.84v29.407h42.17v3.914h-42.17v32.289zm51.517-48.539c-.513-12.55-9.975-18.821-23.551-18.821-8.328 0-20.155 3.5-20.155 15.63 0 11.831 12.546 13.781 24.988 16.352 12.55 2.575 25.1 5.762 25.1 20.36 0 15.224-14.6 20.673-25.814 20.673-17.174 0-31.161-7.091-30.955-26.019h4.525c-.924 16.049 11.93 22.114 26.43 22.114 8.846 0 21.284-4.012 21.284-16.768 0-12.442-12.546-14.6-25.086-17.173-12.448-2.566-24.989-5.552-24.989-19.539 0-14.085 13.055-19.535 24.676-19.535 15.326 0 27.354 6.579 28.077 22.726zm69.922.928c-1.955-12.34-12.751-19.749-24.993-19.749-19.227 0-30.434 15.737-30.434 34.557s11.207 34.553 30.434 34.553c14.3 0 25.4-12.751 26.224-26.43h4.53c-1.647 17.477-14.6 30.335-30.754 30.335-22 0-34.959-16.968-34.959-38.458s12.956-38.462 34.959-38.462c26.019 0 29.415 22.619 29.518 23.654zm15.625-21.904v44.009c0 8.846 1.852 27.256 23.033 27.256 18 0 24.065-10.6 24.065-27.256v-44.009h4.53v44.009c0 17.487-6.587 31.161-28.6 31.161-26.117 0-27.559-21.391-27.559-31.161v-44.009zm110.339 69.515v3.91h-49.874v-73.425h49.356v3.905h-44.835v29.407h42.167v3.914h-42.167v32.289zm28.063-69.515h6.485l28.688 68.377h.206l28.38-68.377h6.48v73.425h-4.525v-67.878h-.205l-27.975 67.878h-4.525l-28.273-67.878h-.206v67.878h-4.53zm79.076 0h4.521v73.425h-4.521zm61.29 20.976c-.521-12.55-9.974-18.821-23.551-18.821-8.327 0-20.155 3.5-20.155 15.63 0 11.831 12.546 13.781 24.989 16.352 12.55 2.575 25.086 5.762 25.086 20.36 0 15.224-14.6 20.673-25.809 20.673-17.174 0-31.156-7.091-30.951-26.019h4.525c-.923 16.049 11.93 22.114 26.426 22.114 8.846 0 21.288-4.012 21.288-16.768 0-12.442-12.545-14.6-25.086-17.173-12.448-2.566-24.993-5.552-24.993-19.539 0-14.085 13.059-19.535 24.68-19.535 15.322 0 27.354 6.579 28.073 22.726zm60.662 0c-.509-12.55-9.971-18.821-23.547-18.821-8.328 0-20.155 3.5-20.155 15.63 0 11.831 12.546 13.781 24.989 16.352 12.545 2.575 25.1 5.762 25.1 20.36 0 15.224-14.607 20.673-25.814 20.673-17.174 0-31.165-7.091-30.951-26.019h4.521c-.924 16.049 11.934 22.114 26.43 22.114 8.841 0 21.284-4.012 21.284-16.768 0-12.442-12.546-14.6-25.086-17.173-12.448-2.566-24.994-5.552-24.994-19.539 0-14.085 13.06-19.535 24.681-19.535 15.322 0 27.354 6.579 28.077 22.726zm12.751-20.976h4.526v73.425h-4.526zm45.041 75.17c-22.007 0-34.964-16.968-34.964-38.458s12.957-38.462 34.964-38.462c21.9 0 34.86 16.969 34.86 38.462s-12.96 38.458-34.86 38.458zm0-3.9c19.128 0 30.335-15.737 30.335-34.553s-11.204-34.559-30.335-34.559c-19.231 0-30.442 15.737-30.442 34.557s11.211 34.55 30.442 34.55zm40.408-71.27h5.659l46.375 67.355h.205v-67.355h4.526v73.425h-5.342l-46.7-67.878h-.2v67.878h-4.521zm-665.302-225.57v47.276h125.397v-47.276zm-62.518 182.207h-47.964v-46.134h46.5c6.115 0 13.407-1.232 13.407-7.11 0-6.159-9.443-12.875-20.365-20.642-18.164-12.929-40.769-29-40.769-55.948 0-33.026 20.213-52.739 54.056-52.739h46.75v47.5h-45.282c-4.856 0-7.32 1.62-7.32 4.834 0 4.253 9.243 9.314 19.026 16.12 18.8 13.081 44.541 30.982 44.541 58.332 0 23.952-6.485 55.787-62.58 55.787zm300.365-71.864c17.437-10.3 27.175-28.853 27.175-51.351 0-40.114-23.805-59.108-62.321-59.108h-66.3l.036.116h-.036v182.434h47.8v-31.495h-.076v-101.203h.076v-2.6h12.786c9.68 0 16.326 5.141 16.326 15.746 0 10.555-6.588 15.857-16.107 15.857h-2.181v53.136l20.4 50.557h58.256zm-383.654-110.709c-39.672 0-76.613 19.8-104.015 55.743-26.087 34.222-40.453 79.388-40.453 127.169h48.848a180.954 180.954 0 0 1 2.236-28.4h58v-45.57h-43.763c12.791-26.028 32.125-45.456 54.721-53.7v53.7h-.058v45.567h.058v28.4h48.852v-182.909zm184.104 58.541h49.245v124.371h-49.245z"/><path d="m715.9 24.877a6.635 6.635 0 0 1 -9.44.022 78.644 78.644 0 0 0 -35.11 28.76c6.717 2.165 11.372 4.789 15.861 9.118a43.442 43.442 0 0 1 10.44 15.147 53.432 53.432 0 0 1 3.316 18.067 60.376 60.376 0 0 1 -3.321 18c-2.04 6.074-6.882 11.376-9.336 13.487s-7.57 5.017-16.045 7.574-19.892 3.053-26.818 2.812-20.611-1.478-24.694-3.343-9.051-6.065-10.742-9.145-1.942-6.681-2.063-9.149a262.948 262.948 0 0 1 1.6-27.5c1.4-13.5 2.58-19.236 3.941-23.422s7.471-10.141 12.26-12.831c3.825-2.148 7.6-2.71 14.612-3.147 7.217-.447 14.219-.071 24.68 2.544.79.2 1.545.393 2.281.589a82.607 82.607 0 0 1 37.279-31.138 7 7 0 0 1 -.089-1.4 6.613 6.613 0 0 1 1.072-3.347 93.3 93.3 0 1 0 10.318 8.3zm189.267 62.094c14.259-7.761 22.123-21.066 22.123-38.194 0-31.777-21.11-46.452-55.756-46.452h-92.3l19.177 45.434h60.675c11.193 0 17.795 3.561 17.795 13.929 0 10.22-6.789 15.013-17.572 15.013h-23.417v-11.969h-46.473v121.05h78.656c47.223 0 68.382-22.3 68.382-55.948 0-23.212-12.257-37.561-31.29-42.863zm-38.212 53.145h-31.063v-31.616h30.8c10.118 0 18.428 3.557 18.428 14.871-.001 11.595-8.043 16.745-18.165 16.745zm263.84-137.791v47.509h50.177v135.948h51.535v-135.948h50.173v-47.509zm-95.544-2.289a93.172 93.172 0 1 0 92.964 93.175 93.073 93.073 0 0 0 -92.964-93.175zm0 133.841a40.669 40.669 0 1 1 40.667-40.666 40.663 40.663 0 0 1 -40.667 40.666z"/></svg>