<svg fill="none" height="732" viewBox="0 0 204.885 60" width="2500" xmlns="http://www.w3.org/2000/svg"><path d="m46.25 7.486a52.553 52.553 0 0 0 -4.263-.162c-1.441 0-2.865.054-4.264.162l4.264-7.486zm-12.26.653c-1.35.371-2.708.802-4.059 1.293a56.534 56.534 0 0 0 -3.95 1.6l1.423-8.48zm-11.296 4.779a53.724 53.724 0 0 0 -3.371 2.593 51.45 51.45 0 0 0 -3.16 2.845l-1.58-8.456zm-8.968 8.33a51.018 51.018 0 0 0 -2.273 3.582 52.19 52.19 0 0 0 -1.985 3.749l-4.402-7.409zm-5.56 10.87a55.227 55.227 0 0 0 -.905 4.138 51.527 51.527 0 0 0 -.579 4.198l-6.682-5.467zm-1.478 12.103c.133 1.384.326 2.785.58 4.199.246 1.407.548 2.796.904 4.138l-8.172-2.869z" fill="#996129"/><path d="m35.407 33.753c-.74 0-1.473-.2-2.197-.601-.725-.417-1.303-1.218-1.735-2.405l-.578-1.504h-6.475l-1.85 4.394h-1.04l6.474-15.263h.694l5.088 12.373c.385.894.748 1.51 1.087 1.85.339.323.824.516 1.457.578v.462a3.452 3.452 0 0 1 -.926.116zm-10.638-5.435h5.666l-2.775-6.706zm16.228 5.551c-1.773 0-2.967-.309-3.584-.925a1.674 1.674 0 0 1 -.486-.88c-.061-.338-.092-.855-.092-1.549h.462c.14.771.47 1.372.995 1.804.54.416 1.287.624 2.243.624.848 0 1.48-.146 1.896-.439.432-.293.648-.686.648-1.18 0-.446-.17-.832-.509-1.156-.324-.323-.848-.632-1.573-.925l-1.387-.578c-.925-.37-1.619-.801-2.081-1.295s-.694-1.102-.694-1.827c0-.94.354-1.672 1.064-2.197.709-.54 1.626-.809 2.752-.809 1.695 0 2.852.308 3.468.925.262.262.424.555.486.879s.092.84.092 1.55h-.462c-.123-.772-.447-1.365-.971-1.781-.524-.432-1.241-.648-2.15-.648-.726 0-1.296.154-1.712.463-.401.292-.602.678-.602 1.156 0 .802.617 1.457 1.85 1.966l1.388.578c1.048.431 1.812.894 2.29 1.387.477.478.716 1.095.716 1.85 0 .94-.377 1.68-1.133 2.22-.755.524-1.726.787-2.914.787zm9.905 0c-.863 0-1.542-.247-2.035-.74-.494-.494-.74-1.25-.74-2.267v-7.169h-1.619v-.925h1.619v-2.08l1.156-1.388h.925v3.468h2.775v.925h-2.775v7.17c0 1.387.54 2.08 1.619 2.08.37 0 .678-.038.925-.115.262-.077.532-.193.81-.347l.23.463a5.855 5.855 0 0 1 -1.179.67c-.432.17-1.002.255-1.711.255zm4.784-8.326c0-.786-.108-1.364-.323-1.734-.216-.385-.648-.578-1.295-.578h-.232v-.463h1.85c.586 0 1.026.085 1.318.255.309.154.525.416.648.786h.116a3.436 3.436 0 0 1 1.11-.902c.478-.247 1.033-.37 1.665-.37.616 0 1.079.116 1.387.347.262.2.532.547.81 1.04l-.925.694c-.17-.23-.417-.4-.74-.508a3.104 3.104 0 0 0 -1.11-.185c-.463 0-.887.108-1.272.323-.386.2-.694.478-.925.833v8.556h-2.082zm13.267 8.326c-1.049 0-1.958-.247-2.73-.74a4.868 4.868 0 0 1 -1.757-2.059c-.4-.863-.6-1.819-.6-2.867s.2-2.004.6-2.868c.401-.863.987-1.541 1.758-2.035.77-.508 1.68-.763 2.729-.763 1.048 0 1.958.255 2.728.763a4.716 4.716 0 0 1 1.758 2.035c.4.864.601 1.82.601 2.868s-.2 2.004-.601 2.867c-.4.864-.987 1.55-1.758 2.059-.77.493-1.68.74-2.728.74zm0-.925c.57 0 1.071-.209 1.503-.625.447-.416.786-.987 1.017-1.711.247-.725.37-1.526.37-2.405s-.123-1.68-.37-2.405c-.23-.725-.57-1.295-1.017-1.711-.432-.417-.933-.625-1.503-.625s-1.08.208-1.527.624c-.431.417-.77.987-1.017 1.712-.231.724-.347 1.526-.347 2.405s.116 1.68.347 2.405c.246.725.586 1.295 1.017 1.711.447.416.956.624 1.527.624zm-41.044 26.349a9.78 9.78 0 0 1 -2.725-.378c-.875-.236-1.59-.58-2.144-1.035-.555-.47-.833-1.009-.833-1.614v-2.952h.706c.253 1.716.782 2.952 1.59 3.709.807.756 1.934 1.135 3.38 1.135.976 0 1.75-.21 2.321-.63.572-.421.858-1.027.858-1.817 0-.673-.21-1.245-.63-1.716-.421-.47-1.077-.984-1.968-1.539l-3.104-1.866c-1.127-.655-1.935-1.337-2.422-2.043-.471-.706-.707-1.53-.707-2.472 0-1.329.505-2.38 1.514-3.154 1.026-.773 2.405-1.16 4.137-1.16.942 0 1.85.126 2.725.378.874.236 1.59.589 2.144 1.06.555.454.833.984.833 1.59v2.95h-.707c-.286-1.715-.815-2.95-1.589-3.708-.774-.757-1.816-1.135-3.128-1.135-.908 0-1.632.219-2.17.656-.521.437-.782 1.034-.782 1.791 0 .656.202 1.203.606 1.64.42.42 1.093.9 2.018 1.438l3.103 1.842c1.177.69 2.018 1.362 2.523 2.018.521.639.782 1.413.782 2.32 0 1.464-.555 2.616-1.665 3.457-1.094.824-2.65 1.236-4.667 1.236zm9.651-13.8c0-.857-.118-1.488-.354-1.892-.235-.42-.706-.63-1.413-.63h-.252v-.757h3.027c.606 0 1.068.1 1.388.303.32.201.546.538.681 1.009.135.454.202 1.11.202 1.967v4.163h6.811v-7.442h3.28v13.37c0 .858.118 1.497.353 1.918.236.403.707.605 1.413.605h.252v.757h-3.027c-.606 0-1.068-.092-1.388-.277-.32-.202-.546-.53-.68-.984-.135-.471-.203-1.144-.203-2.018v-4.795h-6.81v8.073h-3.28zm22.798 6.711-4.465-6.71a10.729 10.729 0 0 0 -1.665-1.893c-.589-.538-1.152-.832-1.69-.883v-.504h2.75c.857 0 1.63.269 2.32.807a7.43 7.43 0 0 1 1.792 1.969l3.43 5.172 4.895-7.947h1.64l-5.727 9.309v7.341h-3.28zm22.897 6.761c-1.06 0-2.018-.219-2.876-.656-.858-.454-1.556-1.329-2.094-2.624l-.58-1.412h-6.71l-2.07 4.591h-1.311l7.442-16.65h1.135l5.651 13.471c.64 1.565 1.514 2.405 2.624 2.523v.631c-.303.084-.707.126-1.211.126zm-11.731-5.828h5.701l-2.775-6.584zm33.59 6.863c-1.817 0-3.129-.421-3.936-1.262-.79-.858-1.185-2.245-1.185-4.162v-8.931l-5.525 13.22h-.833l-6.761-13.725v13.724h-1.261v-16.65h3.077l6.106 12.386 5.171-12.387h3.305v12.361c0 1.581.135 2.742.404 3.482s.748 1.177 1.438 1.312zm7.396-.707c-.942 0-1.85-.126-2.724-.378-.875-.236-1.59-.58-2.145-1.035-.555-.47-.832-1.009-.832-1.614v-2.952h.706c.252 1.716.782 2.952 1.589 3.709.808.756 1.935 1.135 3.381 1.135.975 0 1.749-.21 2.321-.63s.858-1.027.858-1.817c0-.673-.211-1.245-.631-1.716-.421-.47-1.076-.984-1.968-1.539l-3.103-1.867c-1.127-.655-1.934-1.337-2.422-2.043-.471-.706-.706-1.53-.706-2.472 0-1.329.504-2.38 1.514-3.154 1.026-.773 2.405-1.16 4.137-1.16.942 0 1.85.126 2.725.378.874.236 1.589.589 2.144 1.06.555.454.832.984.832 1.59v2.95h-.706c-.286-1.715-.816-2.95-1.589-3.708-.774-.757-1.817-1.135-3.129-1.135-.908 0-1.631.219-2.169.656-.522.437-.782 1.034-.782 1.791 0 .656.202 1.203.605 1.64.421.42 1.093.9 2.018 1.438l3.103 1.842c1.178.69 2.019 1.362 2.523 2.018.522.639.782 1.413.782 2.32 0 1.464-.555 2.616-1.665 3.457-1.093.824-2.649 1.236-4.667 1.236zm16.387-.176c-4.541 0-6.812-2.506-6.812-7.518v-6.105c0-.858-.117-1.489-.353-1.893-.235-.42-.706-.63-1.413-.63v-.757h2.775c.606 0 1.068.1 1.388.303.319.201.547.538.681 1.009.135.454.202 1.11.202 1.968l.025 6.861c.017 1.783.362 3.17 1.034 4.163.69.976 1.682 1.463 2.977 1.463 1.716 0 2.96-.504 3.734-1.513.791-1.026 1.186-2.65 1.186-4.87v-9.384h1.261v9.385c0 2.472-.521 4.347-1.564 5.625-1.043 1.262-2.75 1.893-5.121 1.893zm12.118-12.741v12.488h-1.262v-13.623c0-.706-.176-1.261-.53-1.665-.336-.404-.916-.605-1.74-.605h-.126v-.757h1.765c.942 0 1.708.126 2.296.378.606.236 1.11.614 1.514 1.136l8.678 10.09v-11.603h1.262v16.725h-1.161zm16.13-.883c0-.857-.118-1.488-.353-1.892-.236-.42-.707-.63-1.413-.63h-.252v-.757h6.861c3.398 0 5.979.723 7.745 2.17 1.783 1.429 2.675 3.447 2.675 6.054 0 1.665-.379 3.137-1.136 4.415-.74 1.261-1.85 2.245-3.33 2.952-1.463.706-3.229 1.06-5.298 1.06h-5.499zm5.424 12.362c1.177 0 2.22-.294 3.128-.883.925-.589 1.64-1.438 2.144-2.548.522-1.11.782-2.405.782-3.885 0-1.463-.26-2.741-.782-3.835-.504-1.11-1.219-1.967-2.144-2.573-.925-.605-1.985-.908-3.179-.908h-.202c-.555 0-1 .034-1.337.1l-.555.077v14.278l.555.101c.354.05.799.076 1.337.076zm25.982 1.11c-1.059 0-2.018-.219-2.876-.656-.858-.454-1.556-1.329-2.094-2.624l-.58-1.412h-6.711l-2.068 4.591h-1.312l7.442-16.65h1.135l5.651 13.471c.639 1.565 1.514 2.405 2.624 2.523v.631c-.303.084-.706.126-1.211.126zm-11.731-5.828h5.702l-2.775-6.584zm26.35 5.98c-.925 0-1.766-.27-2.523-.808-.757-.555-1.547-1.505-2.372-2.85l-2.522-4.214h-1.009v7.62h-3.305v-13.372c0-.858-.118-1.489-.353-1.893-.236-.42-.707-.63-1.413-.63h-.253v-.757h6.963c1.749 0 3.322.32 4.718.959s2.094 1.866 2.094 3.683c0 2.102-1.362 3.498-4.087 4.188l2.649 4.414c.992 1.666 2.035 2.59 3.128 2.776v.63c-.134.068-.378.126-.731.177-.354.05-.682.076-.984.076zm-6.913-8.88c.942 0 1.741-.278 2.397-.833.673-.572 1.009-1.463 1.009-2.674 0-1.194-.328-2.077-.984-2.65s-1.421-.857-2.296-.857c-.487 0-.866.034-1.135.1l-.504.077v6.836z" fill="#940a0a"/><path d="m84.466 40.262-1.095-1.133c1.068-2.387 2.368-5.696 2.77-8.31.184 2-.043 5.09-1.675 9.443zm-3.393-1.595c1.784-2.565 3.763-5.82 4.54-8.552-.143 1.489-.696 3.494-1.642 5.956a66.944 66.944 0 0 1 -2.268 5.163zm-3.288 3.38.004-3.478c3.328-2.104 6.066-6.704 7.355-9.136-.997 4.327-5.721 10.547-7.359 12.614zm110.473-12.615-1.314-.008c1.338-2.265 1.183-4.38-.458-6.29l1.42.004c.24.185.847.902 1.137 2.03.268.97.326 2.49-.785 4.264zm-2.271-.019-16.099-.098c1.317-2.217 1.197-4.29-.344-6.178l15.831-.011c1.96 1.914 2.156 3.978.612 6.287zm-6.342-4.08c-.695-.525-1.723-.426-2.284.226s-.458 1.616.236 2.14c.695.524 1.723.426 2.284-.227s.459-1.615-.236-2.14zm-11.191-2.189-1.901.005c1.395 1.88 1.523 3.943.38 6.155l2.001.019c1.509-2.288 1.359-4.303-.48-6.179zm-2.953.007-4.673-.003c1.471 1.87 1.54 3.923.228 6.112l4.938.032c1.312-2.253 1.151-4.276-.493-6.141zm-5.744.002h-1.931c1.336 1.869 1.421 3.902.275 6.096l1.99.01c1.514-2.25 1.405-4.254-.334-6.106zm-19.934.015h-1.931c1.301 1.828 1.438 3.818.36 5.95l2.009.008c1.428-2.186 1.277-4.138-.438-5.958zm-52.948 5.632 2.55.01c-.743-2.037-.805-3.91-.175-5.612l-2.404-.002c-.847 1.866-.828 3.709.029 5.604zm-1.062-5.604h-3.321c-.303.9-.906 3.24-.104 5.559l3.45.027c-.745-1.865-.758-3.735-.025-5.586zm70.98-.045-15.88.009c1.447 1.836 1.557 3.84.324 5.973l15.925.102c1.314-2.234 1.186-4.234-.369-6.084zm-19.469 5.96-46.885-.298c-.84-2.106-.896-3.944-.175-5.612l46.595-.035c1.531 1.817 1.69 3.759.465 5.946zm-41.255-4.31c-.695-.524-1.723-.426-2.284.227s-.459 1.616.236 2.14 1.723.425 2.284-.227a1.461 1.461 0 0 0 -.236-2.14zm8.058.111c-.695-.524-1.723-.425-2.284.227s-.458 1.616.236 2.14c.695.524 1.723.426 2.284-.227s.458-1.616-.236-2.14zm7.823.151c-.695-.524-1.723-.425-2.284.227s-.459 1.616.236 2.14c.694.524 1.723.426 2.284-.227s.458-1.615-.236-2.14zm7.276.178c-.695-.524-1.723-.426-2.284.227s-.459 1.616.236 2.14 1.723.425 2.284-.227.458-1.616-.236-2.14zm7.155.14c-.695-.525-1.723-.427-2.284.226s-.459 1.616.236 2.14c.694.524 1.723.426 2.284-.227s.458-1.616-.236-2.14zm-30.84.032c-.337-.254-.832-.208-1.105.108s-.223.78.113 1.035a.822.822 0 0 0 1.104-.109.705.705 0 0 0 -.113-1.034zm8.066.101a.822.822 0 0 0 -1.104.108.704.704 0 0 0 .113 1.035.822.822 0 0 0 1.104-.108.72.72 0 0 0 -.113-1.035zm7.822.151a.822.822 0 0 0 -1.104.109.705.705 0 0 0 .113 1.034.822.822 0 0 0 1.104-.108c.273-.316.216-.77-.113-1.035zm7.268.188a.822.822 0 0 0 -1.104.108.705.705 0 0 0 .113 1.035.822.822 0 0 0 1.104-.109.704.704 0 0 0 -.113-1.034zm7.145.131a.822.822 0 0 0 -1.104.109.704.704 0 0 0 .112 1.034.822.822 0 0 0 1.104-.108c.283-.309.235-.773-.112-1.035zm53.275-.04a.822.822 0 0 0 -1.104.108.704.704 0 0 0 .113 1.034.822.822 0 0 0 1.104-.108.705.705 0 0 0 -.113-1.035z" fill="#996129"/><path d="m57.814 4.205 1.413 3.843 3.843 1.412-3.843 1.413-1.413 3.843-1.412-3.843-3.842-1.413 3.843-1.412zm8.41-2.103.847 2.306 2.306.848-2.306.847-.847 2.306-.848-2.306-2.306-.847 2.306-.848z" fill="#940a0a"/></svg>