<svg fill="none" height="856" viewBox="0 0 145.497 50.00734988" width="2500" xmlns="http://www.w3.org/2000/svg"><path d="m0 49.702v-7.656h1.714c.49 0 .848.03 1.08.09s.43.155.598.292c.209.173.376.4.49.687.113.28.173.597.173.937 0 .406-.084.747-.251 1.022a1.322 1.322 0 0 1 -.729.573c.394.071.705.274.932.609.227.334.34.758.34 1.272 0 .31-.047.603-.143.884a2.07 2.07 0 0 1 -.406.71c-.185.215-.418.365-.693.448s-.74.132-1.385.132zm1.08-4.425h.425c.525 0 .896-.084 1.117-.245s.328-.436.328-.818c0-.418-.102-.711-.299-.884-.203-.167-.579-.257-1.14-.257h-.43zm0 3.385h.383c.388 0 .675-.017.866-.053s.34-.096.454-.185c.137-.102.239-.24.316-.406.072-.174.114-.359.114-.568 0-.245-.042-.454-.132-.639a1.025 1.025 0 0 0 -.388-.424 1.343 1.343 0 0 0 -.358-.131 2.566 2.566 0 0 0 -.538-.042h-.716zm7.119-6.616h1.093v4.652c0 .693.143 1.206.424 1.558.28.347.704.52 1.272.52.561 0 .979-.173 1.266-.52.28-.346.424-.865.424-1.558v-4.652h1.104v4.765c0 1.033-.233 1.81-.698 2.323-.466.514-1.165.77-2.096.77s-1.63-.256-2.09-.77c-.46-.513-.693-1.29-.693-2.329v-4.76zm9.465 6.121.878-.46c.083.34.239.603.46.782.22.18.507.269.854.269.328 0 .59-.102.782-.31.19-.204.293-.484.293-.825 0-.448-.329-.854-.992-1.206a2.01 2.01 0 0 0 -.215-.113c-.746-.412-1.248-.783-1.499-1.117s-.376-.74-.376-1.224c0-.621.191-1.129.561-1.517.377-.388.866-.58 1.475-.58.502 0 .92.108 1.26.33.34.214.574.53.7.937l-.86.501c-.138-.239-.287-.418-.449-.531a.957.957 0 0 0 -.561-.167c-.299 0-.531.09-.705.262-.173.173-.262.406-.262.705 0 .46.382.89 1.152 1.284.06.03.108.054.138.072.668.346 1.134.692 1.379 1.02.25.335.376.747.376 1.249 0 .728-.203 1.302-.609 1.732-.406.424-.955.639-1.642.639-.58 0-1.051-.15-1.421-.448-.359-.293-.603-.723-.717-1.284zm9.483-6.121h-1.105v7.656h1.105zm4.341 7.655v-7.96l4.312 4.682c.119.131.238.275.358.424.12.15.25.316.382.508v-5.31h1.021v7.955l-4.4-4.765a5.963 5.963 0 0 1 -.65-.854v5.326h-1.023zm10.385.001v-7.656h3.792v1.05h-2.688v1.924h2.688v1.093h-2.688v2.472h2.688v1.117zm7.422-1.535.884-.46c.084.34.239.603.46.782.22.18.508.269.854.269.328 0 .585-.102.782-.31.191-.204.293-.484.293-.825 0-.448-.329-.854-.991-1.206a2.001 2.001 0 0 0 -.215-.113c-.747-.412-1.249-.783-1.5-1.117s-.376-.74-.376-1.224c0-.621.192-1.129.562-1.517.376-.388.866-.58 1.475-.58.501 0 .92.108 1.26.33.334.214.573.53.699.937l-.866.501c-.138-.239-.287-.418-.448-.531a.957.957 0 0 0 -.562-.167c-.298 0-.531.09-.704.262-.173.173-.263.406-.263.705 0 .46.382.89 1.152 1.284.06.03.108.054.138.072.669.346 1.134.692 1.38 1.02.25.335.376.747.376 1.249 0 .728-.204 1.302-.61 1.732-.406.424-.955.639-1.642.639-.579 0-1.05-.15-1.421-.448-.364-.293-.603-.723-.717-1.284zm7.966 0 .884-.46c.084.34.239.603.46.782.22.18.508.269.854.269.328 0 .585-.102.782-.31.191-.204.293-.484.293-.825 0-.448-.329-.854-.991-1.206a1.992 1.992 0 0 0 -.215-.113c-.753-.412-1.249-.783-1.5-1.117s-.376-.74-.376-1.224c0-.621.192-1.129.568-1.517s.866-.58 1.475-.58c.501 0 .92.108 1.26.33.334.214.573.53.698.937l-.865.501c-.138-.239-.287-.418-.448-.531a.945.945 0 0 0 -.562-.167c-.298 0-.531.09-.704.262-.174.173-.263.406-.263.705 0 .46.382.89 1.153 1.284.06.03.107.054.137.072.669.346 1.128.692 1.385 1.02.251.335.376.747.376 1.249 0 .728-.203 1.302-.609 1.732-.406.424-.955.639-1.642.639-.58 0-1.05-.15-1.421-.448-.37-.293-.61-.723-.729-1.284zm13.592 0 .884-.46c.083.34.238.603.46.782.22.18.507.269.853.269.329 0 .591-.102.782-.31.192-.204.287-.484.287-.825 0-.448-.328-.854-.991-1.206a4.708 4.708 0 0 0 -.215-.113c-.747-.412-1.248-.783-1.493-1.117-.25-.334-.376-.74-.376-1.224 0-.621.185-1.129.561-1.517s.866-.58 1.475-.58c.502 0 .92.108 1.26.33.34.214.573.53.699.937l-.866.501c-.138-.239-.287-.418-.448-.531a.957.957 0 0 0 -.561-.167c-.299 0-.532.09-.71.262-.174.173-.264.406-.264.705 0 .46.382.89 1.153 1.284.06.03.101.054.137.072.675.346 1.135.692 1.38 1.02.25.335.376.747.376 1.249 0 .728-.203 1.302-.61 1.732-.405.424-.955.639-1.642.639-.579 0-1.05-.15-1.42-.448-.353-.293-.598-.723-.711-1.284zm15.323-2.281c0 .543-.09 1.056-.275 1.546-.18.484-.442.92-.788 1.296-.353.382-.74.669-1.183.872a3.308 3.308 0 0 1 -2.777 0 3.618 3.618 0 0 1 -1.176-.872 3.956 3.956 0 0 1 -.788-1.296 4.41 4.41 0 0 1 -.269-1.547c0-.549.09-1.062.269-1.546.18-.484.442-.92.788-1.302.347-.382.74-.669 1.177-.866a3.376 3.376 0 0 1 1.397-.298c.49 0 .95.101 1.391.298.436.197.83.49 1.177.866.346.388.609.824.788 1.308.18.49.269 1.003.269 1.54zm-1.153 0c0-.389-.06-.753-.185-1.105s-.304-.663-.543-.932c-.227-.269-.496-.478-.795-.62s-.62-.216-.955-.216-.65.072-.955.215a2.439 2.439 0 0 0 -.807.621 2.92 2.92 0 0 0 -.537.926 3.237 3.237 0 0 0 -.185 1.11c0 .389.06.753.185 1.1.125.346.304.65.537.925.233.269.502.478.8.62a2.21 2.21 0 0 0 1.9 0c.298-.142.567-.351.806-.62a3.06 3.06 0 0 0 .735-2.024zm5.172 3.816v-7.656h1.104v6.539h2.473v1.117zm7.028-7.656h1.093v4.652c0 .693.137 1.206.424 1.558.28.347.705.52 1.266.52s.979-.173 1.266-.52c.287-.346.424-.865.424-1.558v-4.652h1.105v4.765c0 1.033-.233 1.81-.693 2.323-.466.514-1.164.77-2.096.77s-1.63-.256-2.09-.77c-.46-.513-.693-1.29-.693-2.329v-4.76zm12.045 1.057v6.597h-1.099v-6.598h-1.809v-1.057h4.705v1.057zm6.521-1.057h-1.105v7.656h1.105zm11.304 3.84c0 .543-.09 1.056-.269 1.546-.179.484-.442.92-.788 1.296a3.742 3.742 0 0 1 -1.182.872 3.277 3.277 0 0 1 -1.386.304 3.31 3.31 0 0 1 -1.397-.304 3.613 3.613 0 0 1 -1.176-.872c-.347-.382-.61-.812-.789-1.296s-.268-.997-.268-1.547c0-.549.089-1.062.268-1.546s.442-.92.789-1.302c.346-.382.74-.669 1.176-.866a3.377 3.377 0 0 1 1.397-.298c.49 0 .95.101 1.392.298.436.197.83.49 1.176.866.346.388.609.824.788 1.308.179.49.269 1.003.269 1.54zm-1.152 0c0-.389-.06-.753-.186-1.105a2.784 2.784 0 0 0 -.543-.932 2.403 2.403 0 0 0 -.794-.62 2.214 2.214 0 0 0 -.956-.216 2.21 2.21 0 0 0 -.955.215 2.435 2.435 0 0 0 -.806.621 2.93 2.93 0 0 0 -.538.926 3.247 3.247 0 0 0 -.185 1.11c0 .389.06.753.185 1.1.126.346.305.65.538.925.233.269.501.478.806.62.298.144.615.216.955.216.329 0 .645-.072.944-.215.298-.143.567-.352.806-.621a2.99 2.99 0 0 0 .543-.926c.126-.346.186-.71.186-1.099zm5.171 3.815v-7.96l4.311 4.682c.12.131.239.275.359.424.119.15.245.316.382.508v-5.31h1.021v7.955l-4.401-4.765a5.556 5.556 0 0 1 -.34-.406 8.486 8.486 0 0 1 -.317-.448v5.326h-1.015zm9.996-1.534.878-.46c.084.34.239.603.46.782.221.18.508.269.854.269.328 0 .591-.102.782-.31.191-.204.293-.484.293-.825 0-.448-.329-.854-.991-1.206a3.048 3.048 0 0 0 -.215-.113c-.747-.412-1.249-.783-1.493-1.117-.251-.334-.377-.74-.377-1.224 0-.621.192-1.129.562-1.517.376-.388.866-.58 1.475-.58.501 0 .919.108 1.26.33.34.214.573.53.698.937l-.859.501c-.138-.239-.287-.418-.448-.531a.948.948 0 0 0 -.562-.167c-.298 0-.531.09-.71.262-.173.173-.263.406-.263.705 0 .46.382.89 1.152 1.284.06.03.108.054.138.072.675.346 1.134.692 1.379 1.02.251.335.376.747.376 1.249 0 .728-.203 1.302-.609 1.732-.406.424-.949.639-1.642.639-.579 0-1.051-.15-1.421-.448-.358-.293-.597-.723-.717-1.284z" fill="#0087a0"/><path d="m35.406 26.25 3.642-1.904c.347 1.415.98 2.49 1.9 3.23s2.095 1.111 3.528 1.111c1.356 0 2.43-.424 3.231-1.272.8-.848 1.2-1.988 1.2-3.415 0-1.857-1.367-3.518-4.102-4.975a18.68 18.68 0 0 0 -.884-.477c-3.093-1.702-5.153-3.237-6.186-4.616-1.028-1.374-1.541-3.058-1.541-5.046 0-2.58.776-4.67 2.329-6.27 1.552-1.602 3.589-2.402 6.109-2.402 2.072 0 3.804.448 5.195 1.35 1.391.901 2.359 2.197 2.896 3.88l-3.565 2.08c-.561-.998-1.182-1.72-1.851-2.187-.669-.46-1.44-.692-2.311-.692-1.224 0-2.204.358-2.926 1.08-.723.723-1.081 1.685-1.081 2.897 0 1.905 1.583 3.672 4.753 5.315l.574.304c2.77 1.44 4.675 2.849 5.714 4.228 1.033 1.38 1.553 3.093 1.553 5.153 0 2.998-.836 5.38-2.508 7.148-1.672 1.762-3.935 2.646-6.79 2.646-2.388 0-4.347-.621-5.876-1.857-1.534-1.23-2.532-3.004-3.003-5.31zm32.228-20.947v27.284h-4.562v-27.284h-7.459v-4.371h19.444v4.37zm10.796-4.371h4.51v19.216c0 2.855.585 4.998 1.755 6.432 1.17 1.433 2.92 2.15 5.243 2.15 2.311 0 4.055-.717 5.225-2.15 1.17-1.434 1.756-3.577 1.756-6.432v-19.216h4.562v19.694c0 4.281-.955 7.482-2.872 9.608s-4.807 3.189-8.665 3.189-6.742-1.057-8.647-3.177-2.854-5.327-2.854-9.62v-19.694zm38.404 4.371v27.284h-4.568v-27.284h-7.459v-4.371h19.444v4.37zm10.904 27.284v-31.655h15.669v4.37h-11.101v7.931h11.101v4.52h-11.101v10.23h11.101v4.604zm-107.202-7.542h-15.496l-4.287 8.348h23.91z" fill="#6d6e71"/><path d="m14.756 24.495 7.638-15.669-4.485-8.826-12.594 24.507z" fill="#0b89a1"/><path d="m22.728 9.489-4.616 9.286 7.1 14.618h9.662z" fill="#bcbdc0"/></svg>