<svg viewBox="0 0 2016.7 471.90000000000003" xmlns="http://www.w3.org/2000/svg" width="2500" height="585"><g fill="#00928c"><path d="M1460.7 307c0-10.4 3.6-13.9 14.1-14.1 20.8-.2 32.6 0 62.4 0s54.8 6.2 76.2 26.3c14.1 13.3 21.5 30 23.4 48.9 2.8 27.7-3.7 52.7-23.9 72.8-15.5 15.4-45.7 28.1-82.1 28.1h-59c-7.1-.1-11.1-4.2-11.1-11.2V306.9zm47.1 122.2s21.7 0 30.3-.2c27.8-.7 50.1-19 50.1-46.7 0-25.9-14.2-49.8-50.1-49.8-12.4-1.2-30.3 0-30.3 0v96.8zM1373.9 292.9c8.9 0 11.4 1.7 14.5 10 8.3 21.8 46.9 121.3 57.9 149.3 3.9 9.9-.4 16.8-11 16.9-8.2.1-16.3 0-24.5-.2-6.1-.1-10.4-2.7-12.3-9-1.4-4.6-4.5-13-5.7-17.7h-75.5c-1.5 5-4.6 13.8-6.2 18.7-1.8 5.3-5.5 7.7-11 7.7-8.3 0-16.7 0-25-.1-10.1-.2-14.3-6.6-10.7-16.2 17.9-46.9 56.6-148.4 58.3-152.3 1.9-4.4 5.3-6.7 10.2-6.7 7.3 0 34.6-.5 41-.5zm6.1 110.8c-8.7-24-17.1-47.2-25.5-70.5-8.2 23.3-16.4 46.6-24.7 70.5h50.3zM1009.9 293.2c8.9 0 11.4 1.7 14.5 10 8.3 21.8 46.9 121.3 57.9 149.3 3.9 9.9-.4 16.8-11 16.9-8.2.1-16.3 0-24.5-.2-6.1-.1-10.4-2.7-12.3-9-1.4-4.6-4.5-13-5.7-17.7h-75.5c-1.5 5-4.6 13.8-6.2 18.7-1.8 5.3-5.5 7.7-11 7.7-8.3 0-16.7 0-25-.1-10.1-.2-14.3-6.6-10.7-16.2 17.9-46.9 56.6-148.4 58.3-152.3 1.9-4.4 5.3-6.7 10.2-6.7 7.3 0 34.6-.5 41-.5zM1016 404c-8.7-24-17.1-47.2-25.5-70.5-8.2 23.3-16.4 46.6-24.7 70.5h50.3zM693.8 292.9c8.9 0 11.4 1.7 14.5 10 8.3 21.8 46.9 121.3 57.9 149.3 3.9 9.9-.4 16.8-11 16.9-8.2.1-16.3 0-24.5-.2-6.1-.1-10.4-2.7-12.3-9-1.4-4.6-4.5-13-5.7-17.7h-75.5c-1.5 5-4.6 13.8-6.2 18.7-1.8 5.3-5.5 7.7-11 7.7-8.3 0-16.7 0-25-.1-10.1-.2-14.3-6.6-10.7-16.2 17.9-46.9 56.6-148.4 58.3-152.3 1.9-4.4 5.3-6.7 10.2-6.7 7.3 0 34.6-.5 41-.5zm6.1 110.8c-8.7-24-17.1-47.2-25.5-70.5-8.2 23.3-16.4 46.6-24.7 70.5H700zM809.6 331.8c-13.1 0-25.2.2-37.4 0-8.7-.2-11.8-3.7-12-12.5-.1-5.4 0-10.8.1-16.1.2-7.5 3.6-10.7 11.4-10.6 16.6.2 96.6.2 120.2 0 10.2 0 14.4 3.5 14.4 14.2s0 9.4-.1 14.1c-.4 7.9-4.6 11.1-12.5 11.2h-38.2c0 39.5.1 84.8 0 124.3 0 8.4-3.9 12.4-12.2 12.4-7 0-14-.1-21-.4-9.2-.4-12.6-4-12.7-13.2 0-36.8-.1-118.1-.1-123.3zM1751.7 292.9c8.9 0 11.4 1.7 14.5 10 8.3 21.8 46.9 121.3 57.9 149.3 3.9 9.9-.4 16.8-11 16.9-8.2.1-16.3 0-24.5-.2-6.1-.1-10.4-2.7-12.3-9-1.4-4.6-4.5-13-5.7-17.7h-75.5c-1.5 5-4.6 13.8-6.2 18.7-1.8 5.3-5.5 7.7-11 7.7-8.3 0-16.7 0-25-.1-10.1-.2-14.3-6.6-10.7-16.2 17.9-46.9 56.6-148.4 58.3-152.3 1.9-4.4 5.3-6.7 10.2-6.7 7.3 0 34.6-.5 41-.5zm6.1 110.8c-8.7-24-17.1-47.2-25.5-70.5-8.2 23.3-16.4 46.6-24.7 70.5h50.3z"/><rect height="27.3" rx="9.1" width="67.1" x="1699.7" y="247.3"/><path d="M1228.6 407.2c-4.5-2.3-10.1-1-12.9 3.1-8.9 12.8-23.2 21.1-39.5 21.1-26.9 0-48.7-22.8-48.7-50.9s21.8-50.9 48.7-50.9 30.6 8.3 39.5 21.1 8.4 5.4 12.9 3.1l21.1-10.7c5.5-2.8 7.2-9.8 3.6-14.8-17-23.6-45.2-39.1-77.2-39.1-51.9 0-94 40.9-94 91.3s42.1 91.3 94 91.3 60.2-15.5 77.2-39.1 1.8-12-3.6-14.8zM1922.7 289.3c-51.9 0-94 40.9-94 91.3s42.1 91.3 94 91.3 94-40.9 94-91.3-42.1-91.3-94-91.3zm0 142.1c-26.9 0-48.7-22.8-48.7-50.9s21.8-50.9 48.7-50.9 48.7 22.8 48.7 50.9-21.8 50.9-48.7 50.9zM407.4 0h-93.9L0 468.7l128.7.5L364.9 117v148.1h105.5V42.8c0-23.6-19.2-42.8-42.8-42.8z"/></g><path d="M548.6 330.8c5.3-13.9 10.2-26.7 14.5-37.8H281.3l-25.4 37.8zM522.3 399.7c4.9-12.8 9.7-25.5 14.4-37.8H235.1l-25.4 37.8zM496 468.7c4.6-12.1 9.5-24.9 14.4-37.8H188.8l-25.4 37.8h332.5z" fill="#fe6601"/><path d="M163.1 469.1l.3-.4h-.3z"/></svg>