<svg viewBox="-396 -111 958.9999999999999 268.5" xmlns="http://www.w3.org/2000/svg" width="2500" height="700"><path d="M-194.1 77.6V95c-1.2 17.9-13.3 20.2-30.7 21.4v41.1h117.4v-41.1c-17.4-1.2-29.5-3.5-30.7-21.4V77.6z" fill="#f86302"/><path d="M-393.1 5.3h286.9c1.7 0 2.9 1.7 2.9 3.5 0 1.7-1.2 3.5-2.9 3.5h-286.9c-1.7 0-2.9-1.7-2.9-3.5 0-2.4 1.2-3.5 2.9-3.5M-393.1 22h286.9c1.7 0 2.9 1.7 2.9 3.5 0 1.7-1.2 3.5-2.9 3.5h-286.9c-1.7 0-2.9-1.7-2.9-3.5 0-1.7 1.2-3.5 2.9-3.5M-393.1 38.8h286.9c1.7 0 2.9 1.7 2.9 3.5 0 1.7-1.2 3.5-2.9 3.5h-286.9c-1.7 0-2.9-1.7-2.9-3.5 0-1.7 1.2-3.5 2.9-3.5M-393.1 56.2h286.9c1.7 0 2.9 1.7 2.9 3.5 0 1.7-1.2 3.5-2.9 3.5h-286.9c-1.7 0-2.9-1.7-2.9-3.5 0-2.4 1.2-3.5 2.9-3.5M-393.1 72.9h286.9c1.7 0 2.9 1.7 2.9 3.5 0 1.7-1.2 3.5-2.9 3.5h-286.9c-1.7 0-2.9-1.7-2.9-3.5 0-2.3 1.2-3.5 2.9-3.5" fill="#009e61"/><path d="M-391.4 116.3v41.1h118.6v-41.1c-8.7 0-13.9-.6-17.4-4-4-2.9-3.5-6.9.6-13.3l96-141.1V4.7h56.1V-111h-68.3L-343.9 90.3c-13.9 21.4-19.1 26.6-47.5 26" fill="#f86302"/><g fill="#009e61"><path d="M524.3 13.9c-5.2 0-9.3 2.3-12.7 6.9-3.5 4.6-6.4 11.6-9.3 21.4s-3.5 17.4-2.3 22 4 6.9 9.3 6.9c5.2 0 9.3-2.3 12.7-6.9s6.4-11.6 9.3-21.4 3.5-17.4 2.3-22c-1.2-4.5-4.1-6.9-9.3-6.9m-51.5 28.4c3.5-12.1 9.8-22 19.7-28.9 9.8-7 21.4-10.4 34.7-10.4s23.1 3.5 28.9 10.4 6.9 16.8 3.5 28.9c-3.5 12.1-9.8 22-19.7 28.9-9.8 6.9-21.4 10.4-34.7 10.4s-23.1-3.5-28.9-10.4c-5.2-6.9-6.4-16.8-3.5-28.9z"/><path d="M436.4 45.2l-.6-22.6-12.7 22.6zm-12.2 34.7l2.9-10.4h3.5c2.9 0 4.6 0 5.2-.6s1.2-1.2 1.2-1.7c0-.6 0-1.2.6-1.7v-1.7l-.6-8.1h-20.2l-4 6.9c-.6 1.2-1.2 1.7-1.7 2.3-.6.6-.6 1.2-.6 1.7s0 1.2 1.2 1.7c.6.6 2.3.6 3.5.6h3.5l-2.9 10.4H382l2.9-10.4h2.9c1.7 0 3.5-.6 5.2-1.7 1.7-1.2 3.5-2.9 5.2-5.8l34.7-56.7h27.2l2.3 56.7c0 3.5.6 5.8 1.7 6.9.6.6 2.3 1.2 4.6 1.2h4l-2.9 10.4zM361.8 4.7c15 0 25.5 2.9 30.7 9.3 5.8 6.4 6.9 15.6 3.5 28.3-3.5 12.7-9.8 22-18.5 28.3-8.7 6.4-20.8 9.3-35.9 9.3H301l2.9-10.4h4c2.3 0 4-.6 5.2-1.2s1.7-2.3 2.3-5.2v-.6l11-41.1c.6-2.9 1.2-4.6.6-5.2s-2.3-1.2-4.6-1.2H319l2.9-10.4h39.9zm-22.6 64.2h5.8c5.2 0 9.8-2.3 13.3-6.4 3.5-4 6.4-11 9.3-20.2 2.3-9.8 3.5-16.2 1.7-20.2-1.2-4-4.6-6.4-9.8-6.4h-5.8zM264 45.2l-.6-22.6-12.7 22.6zm-12.7 34.7l2.9-10.4h3.5c2.9 0 4.6 0 5.2-.6s1.2-1.2 1.2-1.7c0-.6 0-1.2.6-1.7v-1.7l-.6-8.1h-20.2l-4 6.9c-.6 1.2-1.2 1.7-1.7 2.3-.6.6-.6 1.2-.6 1.7s0 1.2 1.2 1.7c.6.6 2.3.6 3.5.6h3.5l-2.9 10.4H209l2.9-10.4h2.9c1.7 0 3.5-.6 5.2-1.7 1.7-1.2 3.5-2.9 5.2-5.8L260 4.7h27.2l2.3 56.7c0 3.5.6 5.8 1.7 6.9.6.6 2.3 1.2 4.6 1.2h4L297 79.9zM219.5 51.5c-2.9 9.8-8.1 17.9-15.6 23.1s-16.8 8.1-27.8 8.1c-12.7 0-22-3.5-27.2-10.4s-5.8-16.8-2.3-29.5c3.5-12.1 9.3-21.4 18.5-28.9s19.7-11 31.8-11c4 0 7.5.6 11 1.2s6.4 2.3 8.7 4l2.9-4h12.1l-8.1 30.7h-13.3c.6-6.9 0-12.7-1.7-15.6-1.7-3.5-5.2-4.6-9.8-4.6-5.2 0-9.8 2.3-13.3 6.9s-6.9 11.6-9.3 21.4c-2.9 10.4-3.5 17.4-2.3 22s4.6 6.9 10.4 6.9c5.2 0 9.8-1.7 13.9-5.2 4-3.5 7.5-8.7 9.3-14.5h12.1zM107.2 45.2L106.1 22 93.4 44.6h13.9v.6zM95.1 79.9L98 69.5h3.5c2.9 0 4.6 0 5.2-.6s1.2-1.2 1.2-1.7c0-.6 0-1.2.6-1.7v-1.7l-.6-8.1H87.6L83 63.2c-.6 1.2-1.2 1.7-1.7 2.3-.6.6-.6 1.2-.6 1.7 0 .6 0 1.2 1.2 1.7.6.6 2.3.6 3.5.6h3.5L86 79.9H52.3l2.9-10.4h2.9c1.7 0 3.5-.6 5.2-1.7 1.7-1.2 3.5-2.9 5.2-5.8l34.7-56.7h27.2l2.3 56.7c0 3.5.6 5.8 1.7 6.9.6.6 2.3 1.2 4.6 1.2h4l-2.9 10.4h-45zM22.2 16.8c-4 0-7.5 1.2-10.4 4s-5.2 7-6.4 12.2v.6h-11L2 5.3h78.7l-7.5 28.3h-11V33c1.2-5.2 1.2-9.3 0-12.1-1.2-2.9-4-4-8.7-4H50L37.8 63.1c-.6 2.9-.6 4.6 0 5.2s2.3 1.2 4.6 1.2h6.4l-2.9 10.4H-3.2l2.9-10.4h5.8c2.3 0 4-.6 5.2-1.2s1.7-2.3 2.9-5.8l12.1-46.3h-3.5zM-40.8 45.2l-.6-22.6-12.7 22.6zM-53 79.9l2.9-10.4h3.5c2.9 0 4.6 0 5.2-.6s1.2-1.2 1.2-1.7c0-.6 0-1.2.6-1.7v-1.7l-.6-8.1h-20.2l-4 6.9c-.6 1.2-1.2 1.7-1.7 2.3-.6.6-.6 1.2-.6 1.7s0 1.2 1.2 1.7c.6.6 2.3.6 3.5.6h3.5l-2.9 11h-33.5l2.9-10.4h2.9c1.7 0 3.5-.6 5.2-1.7 1.7-1.2 3.5-2.9 5.2-5.8L-44 5.3h27.2l2.3 56.7c0 3.5.6 5.8 1.7 6.9.6.6 2.3 1.2 4.6 1.2h4l-2.9 10.4H-53zM461.3-2.3h-27.8l4-6.9h27.8z"/></g></svg>