<svg height="562" viewBox=".36 .89 1373.351 309.16" width="2500" xmlns="http://www.w3.org/2000/svg"><g transform="matrix(1.33333 0 0 -1.33333 0 413.333)"><g fill="#352e76"><path d="m84.63 308.84c9.43 1.21 18.95.16 28.39-.39 54.85-4.46 110.1-13.08 161.3-34.05 17.77-7.45 35.42-16.22 49.67-29.42 6.83-6.47 13.15-14.34 14.69-23.88 1.19-7.34-1.71-14.76-6.42-20.32-7.15-8.83-17.64-13.96-28.01-18-24.55-9.07-50.6-13.65-76.64-15.64 6.11 9.71 14.93 17.33 23.76 24.5 4 3.4 8.7 5.85 12.74 9.2 2.47 1.99 4.8 4.15 7.33 6.06 8.45 4.37 15.92 10.37 23.18 16.46 3.2 2.99 6.99 6.13 7.82 10.66.27 4.64-3.81 7.82-7.18 10.28-10.9 7.28-23.32 11.83-35.5 16.45-34.33 12.28-69.62 21.59-104.89 30.69-23.35 6.03-47.02 10.84-70.24 17.4m288.79-23.29c4.35 1.44 9.59 1.29 13.21-1.82 4.83-4.02 5.88-11.03 4.58-16.89-2.36-10.15-11.3-19.78-22.27-19.65-5.41-.16-10.41 3.7-11.87 8.86-3.66 12.07 4.22 26.14 16.35 29.5m726.99-29.06c-5.26-1.14-10.37-4.33-12.63-9.37-3.27-7.11-.56-16.14 5.67-20.72 7.22-5.49 19.04-3.49 23.8 4.32 4.43 7.37 2.47 17.89-4.27 23.22-3.5 2.79-8.28 3.55-12.57 2.55m-1.93 2.95c6.4 1.34 13.55-.02 18.55-4.4 6.88-6.08 8.23-17.12 3.98-25.08-5.37-9.73-19.12-12.86-28.59-7.44-10.97 6.09-13.03 23.46-3.79 31.94 2.73 2.53 6.21 4.2 9.85 4.98"/><path d="m1098.14 247.57c-.02-2.17-.02-4.34-.01-6.51 2.82.05 5.71-.26 8.49.41 2.38.74 2.66 4.57.36 5.58-2.84.94-5.91.39-8.84.52m-2.61 2.15c4.43-.28 9.19.82 13.41-.87 4.26-2.71 2.1-9.43-2.74-9.91 2.87-2.43 4.69-5.76 6.67-8.91-1.17.06-2.32.13-3.46.19-1.53 2.51-2.94 5.12-4.91 7.31-1.57 1.85-4.26 1.08-6.35 1.37-.03-2.95-.03-5.9-.02-8.85l-2.61.08c.03 6.53 0 13.06.01 19.59m-848.92-104.18c17.27 6.41 35.02 11.97 53.35 14.29 9.79 1.05 20.19 1.49 29.44-2.47 5.96-2.47 10.63-7.83 11.95-14.179 1.95-9.101-.44-18.421-3.46-27-6.55-17.821-16.79-33.971-27.63-49.441-2.82-3.86-5.13-8.1-8.35-11.66-1.64-1.38-3.02-3.05-3.95-4.98-1.79-3.68-4.78-6.52-7.37-9.62-7.86-9.169-15.75-18.32-23.59-27.5-2.17-2.56-4.49-4.98-7.01-7.21 3.44 13.541 7.59 26.89 10.82 40.47.65 2.67 1.33 5.329 2.23 7.92 3.84 10.12 5.93 20.771 8.34 31.279 2.54 12.091 5.9 24.111 6.49 36.511.26 4.29-.39 8.569-1.74 12.63-12.02-.23-23.23-5.17-34.23-9.53-40.31-17.21-78.31-39.2-117.14-59.41-1.61.12-3.22.24-4.84.35-6.27.9-12.14 3.55-17.62 6.65 12.64 8.4 25.29 16.81 38.35 24.549 30.96 18.021 62.33 35.721 95.96 48.351m382.65-32.13c3.65 0 7.31 0 10.97-.02-.01-3.38-.01-6.76.02-10.14-3.67-.02-7.34-.02-11-.01-.01 3.39-.01 6.78.01 10.17m107.83-32.51c-3.48-2.33-6.07-6.59-5.03-10.88.73-3.61 4.33-6.1 7.94-6 4-.26 7.47 2.03 10.569 4.28-3.47 4.3-6.85 8.69-10.41 12.92-.83 1.6-2.13.33-3.07-.32m1.392 21.11c.67-3.17 3.259-5.38 5.199-7.81 2.12 1.81 4.86 3.31 5.97 6.01 1.11 3.09-1.67 6.35-4.78 6.42-2.88.49-6.58-1.31-6.39-4.62m-10.68 1c.37 5.38 4.979 9.67 10.08 10.77 5.939 1.29 12.97 1.02 17.689-3.28 3.832-3.37 5.14-9.27 2.97-13.92-1.84-4.06-5.8-6.46-9.3-8.93 2.64-3.56 5.26-7.14 7.96-10.67a115.24 115.24 0 0 1 2.42 6.57c3.3-.75 6.6-1.48 9.9-2.23-1.14-4.16-2.56-8.28-4.89-11.95 2.78-2.39 5.772-4.51 8.89-6.45-2.17-2.86-4.39-5.68-6.61-8.49-3.34 1.82-6.47 3.98-9.29 6.53-7.23-6.42-18.03-7.58-26.88-4.19-7.04 2.75-11.588 10.74-9.89 18.2 1.18 6.82 7.04 11.34 12.75 14.47-3.11 3.84-6.198 8.38-5.8 13.57m253.401 10.42c3.63-.03 7.28-.02 10.93-.03.01-3.4 0-6.79-.03-10.18-3.66.02-7.3.02-10.94.01-.03 3.4-.03 6.8.04 10.2m-563.02-9.72c-.01-12.67 0-25.33 0-38 5.69.21 11.6-.69 17.13 1.03 6.09 2.25 6.99 9.691 7.27 15.29.09 6.6.33 14.72-5.39 19.23-5.62 3.62-12.71 2.051-19.01 2.45m-11.63 9.689c8.8-.088 17.61.221 26.41-.179 5.74-.2 11.47-2.62 15.12-7.151 5.61-6.599 6.78-15.699 6.44-24.069-.21-7.2-2.43-14.67-7.56-19.92-4.17-4.181-10.21-5.849-15.98-6-8.14-.19-16.29-.03-24.43-.08zm396.5.001c3.84 0 7.69 0 11.55.05.15-7.55.03-15.1.07-22.65 7.54-.01 15.07-.01 22.609 0 .05 7.55-.11 15.11.1 22.67 3.84-.08 7.682-.07 11.53-.07 0-19.13-.008-38.26 0-57.39-3.88-.01-7.758-.02-11.64.01.03 8.36.01 16.71.01 25.07-7.54.01-15.07.01-22.61 0 0-8.35-.018-16.71.02-25.07-3.89-.03-7.77-.02-11.64-.02zm151.89-7.52c3.65 2.16 7.3 4.33 10.96 6.48.02-4.92 0-9.83.01-14.75 2.51 0 5.02 0 7.54-.01.01-2.92 0-5.84-.07-8.75-2.5.02-4.99.03-7.47.03.17-7.66-.35-15.34.28-22.98 1.2-3.02 4.92-1.3 7.27-.95.26-2.81.56-5.61.89-8.41-4.96-1.68-10.89-2.63-15.6.24-3.15 1.87-3.61 5.9-3.74 9.21-.2 7.63-.03 15.26-.09 22.89h-5.04c-.01 2.91-.01 5.82 0 8.73 1.65-.01 3.32-.02 4.99-.041.04 2.77.06 5.54.07 8.31m-475.66-17.219c-3.34-1.51-5.43-4.96-5.9-8.51-.65-4.62-.31-10.03 3.22-13.5 3.55-3.69 10.12-3.6 13.54.22 3.82 4.19 3.86 10.63 2.38 15.8-1.58 5.38-8.13 8.53-13.24 5.99m-2.96 8.86c7.14 2.05 15.51.98 21.18-4.07 9.43-8.01 9.63-24.25.68-32.7-8.98-8.94-26.13-7.36-33.05 3.33-4.73 8.05-4.54 19.03 1.11 26.59 2.47 3.33 6.13 5.67 10.08 6.85m36.22.07c3.37.02 6.74.02 10.12.02-.01-1.85-.04-3.68-.05-5.53 3.8 4.29 9.45 7.29 15.31 6.25 4.03-.33 7.28-3.05 9.46-6.28 2.65 2.769 5.74 5.46 9.66 6.12 4.87.92 10.64-.12 13.83-4.23 2.5-3.02 2.71-7.14 2.77-10.89.04-9-.031-18.01.03-27.02-3.67-.04-7.34-.03-11-.03-.05 8.66.07 17.319-.05 25.97-.17 2.68-.2 6.15-2.99 7.5-4.52 2.17-9.92-1.55-10.44-6.31-1.12-8.97-.35-18.08-.52-27.11-3.68-.06-7.35-.06-11.02-.05-.04 8.67.07 17.34-.05 26-.15 2.67-.15 6.2-2.94 7.55-4.61 2.01-10.25-1.5-10.64-6.47-.98-8.96-.31-18.011-.44-27.011-3.68-.088-7.35-.08-11.03-.07-.01 13.87.01 27.732-.01 41.59m82.8-25.079c-3.13-1.37-3.38-5.92-.9-8.05 3.1-2.99 8.29-1.72 11.07 1.09 2.67 2.7 1.86 6.84 2.15 10.26-4.091-1.15-8.39-1.61-12.32-3.3m-4.99 24.03c5.179 2.38 11.14 2.19 16.679 1.55 4.44-.53 9.4-2.96 10.61-7.62 2.4-11.35-1.84-23.56 2.99-34.48-3.61.02-7.21.01-10.8 0-.46 1.41-.928 2.82-1.36 4.23-5.408-4.73-13.38-7.01-20.11-3.77-6.31 2.82-8.48 11.44-4.85 17.16 2.12 3.58 6.28 5.06 10.11 5.98 4.7 1.08 9.46 1.89 14.07 3.34-.32 2.19-.05 5.19-2.458 6.29-2.521 1.03-5.42 1.09-8.041.48-2.4-.54-3.42-2.98-4.57-4.87-3.27.57-6.53 1.15-9.79 1.72 1.28 4.04 3.51 8.13 7.52 9.99m38.9 1.07c3.67.01 7.35.02 11.02-.08-.09-13.84-.01-27.68-.04-41.53-3.669 0-7.33 0-11 .02.04 13.86 0 27.72.02 41.59m22.12 0c3.39 0 6.78 0 10.18-.01-.01-1.97-.04-3.93-.04-5.91 5.06 6.46 14.64 8.9 21.91 4.79 4.22-2.15 5.84-7.09 5.87-11.55.2-9.64.02-19.29.08-28.93-3.67 0-7.34-.01-11 .02 0 7.99.06 15.97-.02 23.95-.19 3.03.01 6.74-2.68 8.78-3.27 2.43-8.23 1.36-10.83-1.56-2.06-2.21-2.2-5.41-2.4-8.26-.21-7.64-.04-15.28-.09-22.93-3.67 0-7.34-.01-11 .03.04 13.86 0 27.72.02 41.58m224.02-9.13c-5.52-2.87-6.46-9.97-5.45-15.52.6-4.54 4.31-8.75 9.05-8.99 4.83-.57 9.31 3.2 10.32 7.82 1.05 4.77.96 10.38-2.26 14.34-2.71 3.4-7.85 4.37-11.66 2.35m-2.9 8.94c7.31 2.22 16 1.12 21.76-4.19 9.28-8.15 9.28-24.39.2-32.69-9.12-8.78-26.31-7.02-33.01 3.85-4.47 7.96-4.3 18.63 1.16 26.09 2.4 3.34 5.99 5.7 9.89 6.94m39.47-2.42c5.97 4.36 14.08 3.931 21 2.66 5.22-.95 8.851-5.31 10.58-10.091-3.4-.769-6.83-1.388-10.25-2-1.28 2.471-3.28 4.862-6.32 4.87-2.93.181-6.47.391-8.781-1.729-1.349-1.399-.259-3.63 1.471-4.05 7.01-2.849 15.19-2.82 21.48-7.41 5.44-4.37 4.5-13.439-.6-17.71-5.681-5.07-14.04-5.12-21.15-3.979-6.43 1.019-11.79 5.878-13.6 12.099 3.649.59 7.31 1.14 10.97 1.69 1.019-2.22 2.09-4.8 4.599-5.68 3.321-1.12 7.241-1.16 10.42.46 2.29.98 2.83 5.01.221 5.92-6.66 2.381-14.17 2.73-20.2 6.71-6 4.19-5.62 14.02.16 18.24m69.2 2.61c3.63-.01 7.26-.01 10.91.02.14-13.88.02-27.75.06-41.63-3.67 0-7.33 0-10.99.01.02 13.87 0 27.74.02 41.6m32.25-5.87c5.27 6.6 15.3 9 22.59 4.33 3.79-2.3 5.12-6.95 5.19-11.14.2-9.64.02-19.29.08-28.93-3.67 0-7.33 0-10.99.01-.02 7.99.06 15.99-.03 23.98-.18 3 0 6.65-2.62 8.72-4.67 3.49-12.32-.03-12.85-5.82-1.08-8.91-.29-17.93-.53-26.89-3.67 0-7.34 0-11 .02.06 13.87-.05 27.75.06 41.62 3.38-.04 6.76-.04 10.15-.04-.03-1.95-.04-3.9-.05-5.86m53.89-2.17c-3.86-1.4-5.73-5.59-5.96-9.44-.29-4.35-.18-9.39 2.99-12.77 2.94-3.23 8.4-3.2 11.57-.3 2.85 2.42 3.74 6.35 3.76 9.94.03 3.47-.41 7.24-2.7 10.01-2.26 2.8-6.33 3.8-9.66 2.56m-15.1-.76c2.98 6.63 10.53 10.75 17.72 9.49 4.22-.48 7.62-3.3 10.33-6.39-.04 1.91-.02 3.8-.02 5.7 3.42 0 6.84 0 10.27-.02-.08-13.51.1-27.03-.09-40.55-.1-5.71-1.59-12.45-7.12-15.3-6.99-3.46-15.35-3.09-22.76-1.34-5.81 1.37-9.7 7.06-9.35 12.95 4.15-.46 8.3-.96 12.45-1.49.76-1.97 2-4.06 4.42-4.1 3.67-.37 8.86-.46 10.74 3.42 1.18 3.59.58 7.45.77 11.16-3.3-3.48-7.52-6.6-12.56-6.32-7.67-.34-14.14 5.85-16 12.97-1.73 6.47-1.5 13.64 1.2 19.82m-991.43-52.88c5.41.68 10.83-.2 15.9-2.11-19.86-11.11-39.76-22.13-59.79-32.93 3.8 4.29 8.39 7.74 12.77 11.39a729.317 729.317 0 0 0 31.12 23.65"/></g><path d="m476.75 260.52c16.68.56 33.38.46 50.06-.01 22.93-42.63 45.629-85.39 68.36-128.12-14.231-.64-28.49-.63-42.71-.09-8.15 12.95-14.73 26.8-21.77 40.36-6.84 13.44-13.58 26.94-20.67 40.26-3.09 5.55-5.88 11.33-9.82 16.35-7.92-14.8-15.79-29.64-23.67-44.47 12.44-.12 24.87-.23 37.31-.33.04-10.3.03-20.61.05-30.92-17.58 0-35.17-.09-52.75 0-4.18-7.03-8.04-14.239-12.14-21.31-14.16 0-28.32-.07-42.48-.08 11.21 22.6 23.62 44.58 35.62 66.76 11.42 20.6 22.56 41.36 34.61 61.6m103.48.11c48.96.01 97.92.03 146.89.06.05-10.37-.01-20.74.06-31.12-17.97-.22-35.94-.28-53.9-.45-.01-32.32-.03-64.65-.04-96.98-13.05-.02-26.1-.02-39.15-.05-.04 32.34-.05 64.67-.09 97-17.86.06-35.73.08-53.59.14-.05 10.46-.12 20.93-.18 31.4m201.81-.21c16.729.07 33.46.22 50.2.23 22.869-42.73 45.93-85.37 68.821-128.09-14.391-.15-28.782-.32-43.171-.48-8.42 17.59-17.701 34.74-26.74 52.01-8.11 14.99-15.81 30.22-24.57 44.84-8.061-14.7-16.12-29.4-24.15-44.11 12.49-.1 24.98-.27 37.48-.3.14-10.32.109-20.64.18-30.951-17.51-.04-35.01-.06-52.51-.08-4.13-7.008-8.36-13.96-12.4-21.02-14.19-.26-28.38-.26-42.571-.4 23.141 42.78 46.291 85.56 69.431 128.35m133.55.161c13.05.03 26.11.02 39.16.05.02-15.8.029-31.59.05-47.38 6.85-.02 15.13-1.97 20.63 3.29 11.57 11.82 24.29 22.44 36.22 33.89 4.25 4.36 8.66 9.99 15.28 10.25 15.49.01 30.99-.08 46.48-.2-1.91-3-4.69-5.25-7.21-7.69-9.28-8.75-18.84-17.19-28.1-25.96-10.77-10.01-22.59-18.97-32.26-30.11 18.95-14.95 37.58-30.31 56.08-45.83 7.15-6.14 14.52-12.04 21.22-18.68-16.04-.1-32.09-.1-48.13-.11-8.35.081-14.02 7.1-19.95 11.98a16330.26 16330.26 0 0 1 -40.25 33.74c-5.3 5-13.04 2.68-19.531 2.84-1.24-16.14-.39-32.33-.58-48.5-13.01.01-26.03-.03-39.04.021-.9 42.8-.42 85.6-.07 128.4m-654.509-55.081c3.43.6 6.85 1.4 10.36 1.4-2.53-1.91-4.86-4.07-7.33-6.06-.52-.37-1.55-1.11-2.06-1.48-9.73-.25-18.83-4.34-27.98-7.24-23.74-7.8-47.1-16.83-69.67-27.57-17.96-8.66-35.68-18.21-51.31-30.71-8.21-6.779-16.22-14.54-20.36-24.55-2.76-6.59-2.72-14.45.86-20.721 4.12-7.339 11.18-12.489 18.71-15.929 5.48-3.1 11.35-5.75 17.62-6.65 4.49-.921 8.59-3.13 13.11-3.98 15.18-3.16 30.63-4.75 46.05-6.21 27.92-2.47 55.97-1.54 83.96-1.64-.9-2.591-1.58-5.25-2.23-7.92-.21-.73-.63-2.179-.84-2.9-16.16-.59-32-4.191-48.06-5.8-32.19-3.359-64.52-5.99-96.9-5.78-16.11.74-32.28.91-48.34 2.059-5.07 1.911-10.49 2.791-15.9 2.112-6.42 2.459-13.33 3.099-19.85 5.25-10.88 3.319-21.72 7.829-30.36 15.419-5.83 5.1-10.2 12.43-9.98 20.38.17 9.03 5.08 17.07 10.4 24.03 12.36 15.94 29.35 27.41 46.62 37.41 13.58 7.7 27.37 15.09 41.7 21.31 26.74 11.7 54.63 20.58 82.77 28.22 26.07 6.98 52.45 12.78 79.01 17.55m46.56-149.36c17.53 1.03 35.04 2.37 52.57 3.36-6.56-2.16-13.43-3.13-20.17-4.52-14.29-2.56-28.58-5.32-43.03-6.79l.95 1.91c.93 1.93 2.31 3.6 3.95 4.98 1.77.91 3.79.91 5.73 1.06" fill="#de2e24"/><g fill="#9e9e9e"><path d="m1164.39 85.82h-17.99v-5.428h5.03v-19.819h-5.03v-5.439h17.99v5.44h-5.043v19.818h5.044zm29.539.606c-2.333 0-4.493-.375-6.463-1.112-1.971-.74-3.622-1.795-4.954-3.16-1.387-1.41-2.442-3.104-3.171-5.086-.726-1.983-1.09-4.185-1.09-6.617 0-2.61.386-4.911 1.145-6.904.76-1.993 1.839-3.655 3.226-4.988 1.388-1.331 3.038-2.344 4.966-3.017 1.936-.671 4.04-1.001 6.319-1.001 1.532 0 2.742.067 3.622.22.88.154 1.816.374 2.82.66.769.222 1.508.484 2.2.783.705.309 1.443.627 2.203.97v7.332h-.815a32.971 32.971 0 0 0 -1.42-1.17 17.802 17.802 0 0 0 -1.883-1.264 10.854 10.854 0 0 0 -2.598-1.167 9.763 9.763 0 0 0 -5.901.055c-1.035.319-1.961.86-2.808 1.609-.814.747-1.497 1.76-2.047 3.048-.54 1.288-.816 2.897-.816 4.812 0 1.839.254 3.4.76 4.69.495 1.287 1.157 2.324 1.96 3.106.859.813 1.783 1.387 2.786 1.739a9.497 9.497 0 0 0 3.17.527 8.728 8.728 0 0 0 2.819-.451 13.546 13.546 0 0 0 2.456-1.112 18.13 18.13 0 0 0 1.98-1.332 37.214 37.214 0 0 0 1.456-1.167h.9v7.442a39.24 39.24 0 0 1 -1.96.892c-.747.33-1.584.618-2.498.88-.881.233-1.838.42-2.874.563-1.045.143-2.201.22-3.49.22m34.461-19.466 3.766 10.978 3.765-10.978zm8.412 18.86h-9.104l-11.33-30.685h7.98l2.139 6.186h11.35l2.125-6.186h8.169zm52.881 0h-7.267v-17.573l-11.197 17.573h-9.468v-30.686h7.267v21.064l13.024-21.064h7.64zm44.954 0h-7.267v-17.573l-11.197 17.573h-9.468v-30.686h7.266v21.064l13.025-21.064h7.64zm-85.042 169.64a73.326 73.326 0 0 1 -14.323-1.44c-8.017-1.784-15.095-5.627-22.186-9.536-23.373-11.45-38.27-35.485-36.211-61.502l11.385 3.304c-1.39 18.342 3.577 34.637 15.027 47.937 6.958-36.939 21.988-70.508 44.36-101.105 2.043-.13 4.02-.262 5.98-.262 1.982 0 3.947.135 5.945.537-7.884 7.938-14.171 16.483-20.535 25.026 9.735 4.437 19.599 9.006 28.406 15.227-1.19 2.974-2.048 6.222-3.568 8.875-9.27-7.024-18.871-13.112-29.131-17.682-4.768 7.146-8.875 14.5-12.85 21.922v.725c10.922 4.437 21.448 9.932 31.248 17.143-1.72 3.182-3.568 6.497-5.494 9.336-9.204-7.145-18.673-13.773-28.604-19.07h-.992c-6.022 12.784-10.79 26.16-14.303 40.056 3.25 3.644 6.958 7.156 10.727 9.997l10.998 3.115c27.668-31.048 45.68-66.28 55.545-104.407 2.588 2.576 4.898 5.363 5.493 8.797-1.915 5.373-3.304 10.866-5.76 15.965-1.254 3.776-3.71 7.277-4.501 10.988 7.224 5.295 14.169 11.053 20.986 17.417-.133 4.768-1.324 9.127-3.568 13.102h-.528a207.748 207.748 0 0 0 -21.922-21.25c-4.106 6.684-7.883 13.51-12.375 20.06 7.674 5.825 15.094 12.85 21.909 20.259-2.444 3.182-5.626 6.562-9.27 7.817-5.823-6.496-12.375-13.31-19.068-18.805-8.071 10.26-16.813 20.457-26.48 29.793 3.937.892 8.42 1.338 12.896 1.338 4.478 0 8.949-.446 12.857-1.338 22.779-4.107 44.954-26.48 48.597-49.325 4.834-25.553-4.305-49.06-25.222-64.617-7.414-2.688-15.317-4.052-23.191-4.052-16.955 0-33.767 6.323-45.204 19.346 7.939 1.32 15.49 3.71 23.11 6.153-1.133 1.916-2.523 3.71-3.38 5.759-21.041-8.453-43.975-13.315-68.156-13.315-2.908 0-5.837.07-8.782.213 8.235-1.058 16.643-1.52 25.102-1.52 5.352 0 10.724.186 16.087.519 5.625-7.014 12.77-12.641 20.058-16.681 8.314-4.625 18.643-6.932 29.04-6.932 12.372 0 24.843 3.265 34.126 9.772 10.458 4.438 20.522 12.254 27.603 22.185 13.376 17.089 15.424 45.285 5.493 64.618l-4.294 7.355c-12.523 18.522-31.904 28.183-53.08 28.183"/><path d="m1211.634 191.318c-18.41-8.6-38.271-13.83-59.587-15.491a285.79 285.79 0 0 1 25.29.727c1.387-8.402 4.239-16.285 8.809-23.362 4.766.922 9.534 1.716 14.026 3.103-4.03 5.362-6.882 11.33-8.995 17.616-.33 1.519-1.464 3.314-.528 4.767 8.202 1.519 16.216 3.38 23.827 6.22zm36.184-86.074c-43.379 0-86.802-4.256-126.302-12.64 39.612 4.307 81 6.338 122.432 6.338 43.892 0 87.835-2.279 129.763-6.538-39.327 8.602-82.588 12.841-125.893 12.84"/></g></g></svg>