<svg height="1152" viewBox="0 0 4838 864" width="4838pt" xmlns="http://www.w3.org/2000/svg"><path d="M0 432v432h4838V0H0zm591.2 1C640 608.2 679.9 752.1 680 752.7c0 1-19.2 1.3-92.8 1.3h-92.8l-17.8-64.8c-9.8-35.6-18.5-66.8-19.3-69.5l-1.4-4.7H263.1l-2 6.8c-1.1 3.7-9.9 34.1-19.6 67.7-9.7 33.5-17.8 61.8-18.1 62.7-.5 1.7-3.1 1.8-37 1.8-20 0-36.4-.2-36.4-.5 0-.9 188.2-637.9 188.7-638.8.2-.4 37.2-.6 82.1-.5l81.6.3zm319.1-78.8c.3 174 .7 242.8 1.5 249.3 3.6 27.6 9 43.2 19.7 56.7 11.4 14.3 34.2 26.2 60.2 31.5 12.5 2.6 51.6 2.5 65.2 0 27.9-5.3 52.1-17.3 66.8-33.1 16.2-17.5 22.8-37.2 25.3-75.1.6-10.2 1-98.1 1-242.7V114h63v213.2c0 212.9-.5 248.2-3.5 271.8-5.6 43.5-18.1 73.5-40.2 97-42.3 45-128 71.5-219.3 67.9-29-1.1-53.9-4.8-79.7-11.9-18.8-5.2-30.6-9.7-49-18.5-27.7-13.3-49-29.7-62.6-48-11-15-21.5-40-26.6-63.8-1.2-5.3-3.1-16.6-4.3-25l-2.2-15.2-.3-233.8-.4-233.7h185zm731.2-238c63.2 7.7 105.4 25.8 140.1 60.3 21.7 21.6 35.3 46.4 41.6 75.8 2.8 13.6 3.1 36.3.5 48.7-6.9 32.9-23.8 63.2-48.3 87.1-21 20.4-40.6 30.8-75.2 39.9-6.8 1.8-12.1 3.4-12 3.5.2.2 6.2 2.6 13.3 5.5 62 25.1 87.3 53.1 98.5 109 3.2 16.1 5 31.2 8 69 7.1 87 12.4 109.7 31.3 133.1l4.8 5.9h-201.9l-3.5-8.3c-11.9-27.8-14.6-50.1-16.2-132.2-1.7-88.1-5.4-117.5-17.1-137.1-13.2-22-34.3-29.4-84.1-29.4H1500v307h-187V113.9l157.8.4c135.4.3 159.5.6 170.7 1.9zm571.4 4.5c3.5 11.9 176.1 632.1 176.1 632.7 0 .3-41.8.6-93 .6-51.1 0-93-.2-93-.5 0-.4-36.1-131.5-37.6-136.8-.5-1.6-5.8-1.7-97.1-1.5l-96.6.3-20 69.2-20.1 69.3h-36.3c-20 0-36.3-.3-36.3-.8 0-.4 42.4-144.4 94.2-319.9l94.3-319.3h163.4zm623-3c.6 2.1 29 110.7 63.1 241.3 34.2 130.6 62.3 237.7 62.5 237.9.5.4-6.4 24.2 71-246.9l67.2-235.5 35.1-.3 35.1-.2-1.4 4.7C3143.8 203.4 2984 753 2984 753.4c0 .3-37.5.6-83.3.6h-83.2l-84.3-317.7c-46.4-174.8-84.6-318.8-84.9-320.1l-.5-2.2h187.1zM4115 319c34 3 64.8 13.6 90.7 31.2 13.1 8.8 32.8 28 40 38.8 23.6 35.4 36 80.2 37.9 137 1.4 40.4-3.8 80.1-14.7 113.4-12.2 37.1-29.7 63.1-55.5 82.4-33.2 24.9-73.1 37.2-120.6 37.2-21.2 0-35.7-1.6-52.4-6-22.1-5.7-39.9-13.6-58.7-26.2-11.7-7.8-33.3-29.2-40.6-40.3-6.3-9.6-14.9-26.8-19.1-38.5-7.3-19.7-13.4-49.6-16-77.5-1.7-18.4-1.4-58.5.5-75 8.4-73.3 37.4-124 86.4-151.8 35.8-20.2 77.5-28.6 122.1-24.7zm-568 2.4c32.4 6.1 56.1 17.3 75.2 35.5 20.4 19.3 27.5 34.3 29.8 62.8 1.5 19.2 1.4 25.1-.7 25.7-4.6 1.3-54.5 9.8-55 9.3-.3-.3.2-5.5 1.1-11.6 2-13.8 2-22.1 0-31.9-5.8-28.4-29.2-48.1-66.9-56.4-3.8-.8-12.4-1.2-23.5-1.2-14.5.1-18.9.5-25.5 2.3-28.9 7.7-44.6 26.7-43.3 52.1.7 12.9 3.4 18.8 12.7 28 12 11.7 27.9 19.9 68.6 35 37.3 13.9 59.5 24 81.9 37.5 14 8.4 31.6 21.7 38.8 29.2 21.2 22.3 33.2 61.8 29.9 98.2-4.9 53.4-33.1 91.4-82.6 111.2-37.2 14.8-93.3 17-138 5.4-42.8-11.2-73.9-35.9-86.9-68.8-6.4-16.1-7-20.2-7.1-45.9 0-13 .3-23.9.7-24.3.9-1 57.8-13.8 58.4-13.2.3.3-.7 7.6-2.2 16.3-3.5 20-3.9 41.2-1 51.4 3.3 12.1 9.1 21.6 19.1 31.5s16.4 14.2 28.8 19.1c11.6 4.6 21.2 6.4 36.7 7.1 15.4.6 25.3-.8 37.8-5.7 33-12.8 47.6-44.5 33.7-73.6-4.2-8.7-10.2-15.5-20.3-23.2-12.7-9.5-27.2-16.3-64.5-30.2-48.9-18.2-84.3-41.6-101.2-67-21.2-31.9-27.6-81.8-15.4-119.2 10-30.7 30.7-54.6 60.4-69.7 16.8-8.5 35.7-14.2 56-17 11-1.5 54.4-.6 64.5 1.3zM3300.5 539v213.5l-61.7.3-61.8.2V325l61.8.2 61.7.3zm548.5 0v214l-61.7-.2-61.8-.3-.3-212.5c-.1-116.9 0-213.1.3-213.8.3-.9 13.7-1.2 62-1.2h61.5zm568.7-210.2c1.6 2.1 45.1 67.7 96.8 145.9l94 142 .5-145.6.5-145.6h41v427h-93.9l-88.1-134.2c-48.4-73.8-88.3-134.5-88.7-134.9-.5-.4-.8 60.1-.8 134.5V753l-21.2-.2-21.3-.3-.3-212.5c-.1-116.9 0-213.1.3-213.8.3-.9 9.2-1.2 39.5-1.2h39z"/><path d="M322 408.2l-40.5 140.3 77.9.3c42.9.1 78.1 0 78.4-.3.6-.5-74.1-280.5-74.8-280.5-.3 0-18.8 63.1-41 140.2zM1500.7 172.7c-.4.3-.7 50.1-.7 110.5V393h25.8c14.1 0 29.1-.5 33.2-1 18.6-2.4 37.6-9.2 49.1-17.7 23.2-17.2 35.1-47.6 35.1-89.8 0-27.2-3.5-46.7-11.2-63.3-13.8-29.3-37.9-44.3-77.4-48.1-12-1.2-52.9-1.5-53.9-.4zM2030.9 407.8l-40.6 140.7 78 .3c42.9.1 78.2 0 78.4-.2.4-.4-73.1-276.6-74.5-279.8-.4-1.2-15 47.7-41.3 139zM4080 354.3c-7.6 2.2-12.3 4.9-17.7 10.3-21.1 20.9-28.4 77.4-26.3 201.4.9 48.2 1.8 64.5 5.1 88.2 5.5 41.1 16.1 61.2 35.9 68.3 6.9 2.5 21.2 3 29.3 1.1 9.1-2.1 13.6-4.6 19.5-10.6 14.5-14.7 21.6-42.8 25.3-100 1.6-23.2 1.5-118.2 0-145.5-4-70.2-13.6-99.7-35.8-110.7-6.2-3-7.4-3.2-18.7-3.5-7.8-.2-13.7.2-16.6 1z"/></svg>