<svg height="714" viewBox="73.68 21.99924858 178.354 30.47975142" width="2500" xmlns="http://www.w3.org/2000/svg"><path d="m73.68 41.198c0-2.219.446-4.16 1.344-5.828.895-1.676 2.125-2.973 3.688-3.89 1.57-.926 3.32-1.391 5.25-1.391 1.894 0 3.539.414 4.937 1.234 1.406.813 2.453 1.84 3.14 3.078v-3.969h3.641v21.688h-3.64v-4.031c-.719 1.261-1.79 2.308-3.203 3.14-1.407.836-3.043 1.25-4.907 1.25-1.93 0-3.671-.472-5.234-1.422-1.555-.957-2.777-2.289-3.672-4-.898-1.718-1.344-3.671-1.344-5.859zm18.36.047c0-1.633-.336-3.055-1-4.266-.656-1.218-1.547-2.148-2.672-2.797-1.117-.644-2.344-.968-3.688-.968-1.343 0-2.574.32-3.687.953-1.105.625-1.992 1.547-2.656 2.765-.657 1.211-.985 2.633-.985 4.266 0 1.668.328 3.117.985 4.344.664 1.219 1.55 2.152 2.656 2.797 1.113.648 2.344.968 3.687.968 1.344 0 2.57-.32 3.688-.968 1.125-.645 2.016-1.578 2.672-2.797.664-1.227 1-2.66 1-4.297zm28.956-10.813v21.688h-3.61v-3.203c-.687 1.105-1.648 1.969-2.874 2.594-1.22.613-2.57.921-4.047.921-1.688 0-3.203-.347-4.547-1.046-1.344-.696-2.406-1.743-3.188-3.141-.78-1.395-1.171-3.098-1.171-5.11v-12.702h3.562v12.235c0 2.137.54 3.777 1.625 4.922 1.082 1.148 2.563 1.718 4.438 1.718 1.914 0 3.425-.593 4.53-1.78 1.114-1.188 1.673-2.911 1.673-5.173v-11.923zm9.673 3.532c.633-1.239 1.535-2.203 2.703-2.89 1.176-.688 2.613-1.032 4.313-1.032v3.719h-.954c-4.042 0-6.062 2.187-6.062 6.562v11.797h-3.594v-21.688h3.594zm9.816 7.234c0-2.219.445-4.16 1.343-5.828.895-1.676 2.125-2.973 3.688-3.89 1.57-.926 3.32-1.391 5.25-1.391 1.894 0 3.539.414 4.937 1.234 1.407.813 2.453 1.84 3.14 3.078v-3.969h3.642v21.688h-3.641v-4.031c-.719 1.261-1.79 2.308-3.203 3.14-1.406.836-3.043 1.25-4.906 1.25-1.93 0-3.672-.472-5.235-1.422-1.555-.957-2.777-2.289-3.672-4-.898-1.718-1.343-3.671-1.343-5.859zm18.359.047c0-1.633-.336-3.055-1-4.266-.656-1.218-1.547-2.148-2.672-2.797-1.117-.644-2.344-.968-3.687-.968-1.344 0-2.575.32-3.688.953-1.105.625-1.992 1.547-2.656 2.765-.656 1.211-.985 2.633-.985 4.266 0 1.668.329 3.117.985 4.344.664 1.219 1.55 2.152 2.656 2.797 1.113.648 2.344.968 3.688.968 1.343 0 2.57-.32 3.687-.968 1.125-.645 2.016-1.578 2.672-2.797.664-1.227 1-2.66 1-4.297zm14.112-7.844v12.781c0 1.055.223 1.797.672 2.235.446.437 1.223.656 2.328.656h2.657v3.047h-3.25c-2 0-3.5-.457-4.5-1.375-1-.926-1.5-2.445-1.5-4.563v-12.78h-2.813v-2.97h2.813v-5.452h3.593v5.453h5.657v2.97zm11.866-6.484c-.687 0-1.273-.235-1.75-.703-.469-.477-.703-1.063-.703-1.75 0-.688.234-1.266.703-1.735a2.388 2.388 0 0 1 1.75-.718c.656 0 1.211.242 1.672.718.469.47.703 1.047.703 1.735 0 .687-.234 1.273-.703 1.75a2.255 2.255 0 0 1 -1.672.703zm1.735 3.515v21.688h-3.594v-21.688zm4.792 10.813c0-2.25.445-4.207 1.344-5.875.894-1.676 2.14-2.973 3.734-3.89 1.594-.926 3.422-1.391 5.484-1.391 2.665 0 4.86.648 6.579 1.937 1.726 1.293 2.875 3.086 3.437 5.375h-3.89c-.368-1.32-1.086-2.363-2.157-3.125-1.062-.758-2.386-1.14-3.969-1.14-2.062 0-3.73.71-5 2.125-1.261 1.406-1.89 3.402-1.89 5.984 0 2.605.629 4.621 1.89 6.047 1.27 1.43 2.938 2.14 5 2.14 1.583 0 2.899-.367 3.954-1.109 1.05-.738 1.773-1.797 2.171-3.172h3.891c-.586 2.219-1.746 3.996-3.484 5.328-1.742 1.336-3.918 2-6.532 2-2.062 0-3.89-.457-5.484-1.375-1.594-.925-2.84-2.234-3.734-3.922-.899-1.695-1.344-3.675-1.344-5.937zm42.051 5.969h-10.36l-1.656 4.906h-7.078l10.047-27.766h7.828l10.047 27.766h-7.156zm-1.735-5.22-3.437-10.17-3.406 10.17zm20.369-17.64v27.766h-6.765v-27.766zm0 0"/></svg>