<svg height="317" viewBox="0 0 56.7 7.2" width="2500" xmlns="http://www.w3.org/2000/svg"><path d="m6.5 0h1.3v7.2h-.6v-6.4h-.6c-.3 0-.6.1-.8.4l-4.9 6h-.9l5.3-6.6c.3-.4.7-.6 1.2-.6m2.5 5.2v-5.2h.6v5.2c0 .3 0 .6.3.8s.4.3.7.3h4.6c.3 0 .5-.1.7-.3s.3-.5.3-.8v-5.2h.6v5.2c0 .6-.2 1-.5 1.4s-.7.6-1.1.6h-4.6c-.4 0-.8-.2-1.1-.6s-.5-.9-.5-1.4m8.5-4.4v-.8h7.8v.8h-3.5v6.4h-.7v-6.4zm13.2-.8c.7 0 1.3.3 1.8.9s.8 1.4.8 2.3v.8c0 .9-.2 1.6-.8 2.2-.5.6-1.1.9-1.8.9h-2.7c-.7 0-1.3-.3-1.8-.9s-.8-1.4-.8-2.2v-.8c0-.9.2-1.6.8-2.2.5-.7 1.1-1 1.8-1zm1.9 4v-.8c0-.7-.2-1.2-.6-1.7s-.8-.7-1.4-.7h-2.7c-.5 0-1 .2-1.4.7s-.6 1-.6 1.7v.8c0 .7.2 1.2.6 1.7s.8.7 1.4.7h2.7c.5 0 1-.2 1.4-.7s.6-1 .6-1.7m.8-3.2v-.8h7.8v.8h-3.6v6.4h-.6v-6.4zm13.2-.8h1.3v7.2h-.6v-6.4h-.6c-.3 0-.6.1-.8.4l-4.8 6h-.9l5.3-6.6c.2-.4.6-.6 1.1-.6m6.2 4v-.8h3.9v2c0 .6-.2 1-.5 1.4s-.7.6-1.1.6h-3.3c-.4 0-.8 0-1.1-.3s-.7-.4-.9-.8c-.3-.3-.5-.7-.6-1.2-.2-.4-.2-.9-.2-1.4s.1-1.2.4-1.8.6-1 1-1.3c.4-.2.9-.4 1.4-.4h4.9v.8h-4.9c-.6 0-1.2.3-1.6.8s-.7 1.2-.7 2 .2 1.4.7 2c.4.5 1 .8 1.6.8h3.3c.3 0 .5-.1.7-.3s.3-.5.3-.8v-1.2h-3.2z" fill="#1b2333"/></svg>