<svg height="297mm" viewBox="46.731 117.5004328 122.271 55.5105672" width="210mm" xmlns="http://www.w3.org/2000/svg"><path d="m46.732 172.837c0-.094 1.976-3.723 4.39-8.064l4.389-7.892 2.386-.002c2.15-.002 2.376.024 2.288.265-.054.147-1.1 2.072-2.323 4.278a457.283 457.283 0 0 0 -2.41 4.376c-.175.346-.156.367.33.367.499 0 .512-.018.465-.611-.043-.53.188-1.033 1.737-3.789.982-1.748 1.84-3.178 1.905-3.178s.166.294.225.652c.058.359.254 2.009.435 3.667.182 1.658.396 3.381.477 3.83.082.447.257 1.877.39 3.177.132 1.3.275 2.528.317 2.73.076.366.076.366-2.248.366h-2.325l-.1-.774a12.26 12.26 0 0 0 -.176-1.06c-.066-.253-.307-.284-2.167-.284h-2.093l-.633 1.059-.633 1.06h-2.313c-1.519 0-2.314-.06-2.314-.173zm13.929-3.535c-.042-.157-.121-.799-.177-1.426a203.75 203.75 0 0 0 -.484-4.311c-.211-1.744-.402-3.19-.424-3.213s-.654 1.053-1.404 2.392c-1.364 2.434-1.364 2.434-1.257 3.335l.107.9h-1.416c-.873 0-1.416-.064-1.416-.168 0-.093.444-.955.986-1.915s1.602-2.846 2.355-4.19c.753-1.345 1.471-2.61 1.596-2.811.226-.367.226-.367-1.55-.367s-1.776 0-2.139.693c-.2.38-1.251 2.305-2.338 4.277-1.086 1.972-2.376 4.374-2.865 5.337l-.889 1.752h5.695c5.35 0 5.69-.017 5.62-.285zm3.084 3.436a5.035 5.035 0 0 1 -.836-.604c-.204-.191-.5-.64-.657-.999-.172-.391-.285-1.01-.282-1.548.003-.521.541-3.351 1.286-6.763l1.28-5.866 2.207-.046c1.9-.038 2.207-.01 2.207.206 0 .137-.284 1.514-.63 3.06s-.87 3.938-1.165 5.318-.536 2.571-.536 2.648 1.183.14 2.629.14h2.628l.174-.856c.096-.47.563-2.652 1.038-4.848.476-2.196.95-4.36 1.053-4.808l.188-.814 9.303-.043c5.116-.024 9.361.019 9.433.094.072.076.025.608-.105 1.184-.129.575-.236 1.118-.237 1.206s.164-.095.366-.407c.203-.312.675-.793 1.05-1.068.373-.276.924-.606 1.223-.734.423-.18 1.44-.232 4.583-.232 2.222 0 4.227.055 4.455.122s.633.315.9.55.612.694.767 1.019c.155.324.321.86.37 1.19s-.011 1.1-.133 1.711-.222 1.203-.222 1.315c0 .159 1.064.204 4.806.204 4.445 0 4.811-.022 4.88-.286.04-.156.116-.486.168-.733.095-.448.095-.448-4.646-.448-2.678 0-4.742-.063-4.742-.145 0-.08.21-1.115.466-2.3.257-1.184.466-2.182.466-2.217s2.312-.064 5.136-.064c3.378 0 5.381.065 5.851.189.466.123.92.404 1.303.805.323.34.671.908.772 1.263l.185.646.49-.673a7.53 7.53 0 0 1 1.151-1.202 5.353 5.353 0 0 1 1.46-.78c.616-.19 1.62-.248 4.383-.247 2.146 0 3.833.074 4.205.182.364.106.887.46 1.264.855.377.396.714.944.815 1.326.095.358.179.87.186 1.14.007.269.18-.245.382-1.14s.409-1.795.457-1.997c.085-.358.138-.367 2.234-.367 1.18 0 2.18.036 2.222.08s-.7 3.655-1.649 8.025l-1.724 7.947-2.21.045c-1.872.038-2.21.008-2.21-.198 0-.133.14-.871.311-1.64s.308-1.45.304-1.514c-.004-.063-.137.141-.297.455-.16.313-.543.877-.851 1.252-.313.38-.982.902-1.514 1.181-.954.5-.954.5-5.051.5-3.085 0-4.221-.054-4.598-.22-.275-.12-.752-.513-1.061-.872a3.522 3.522 0 0 1 -.747-1.461c-.157-.69-.14-1.037.121-2.346.169-.846.357-1.758.417-2.027.11-.489.11-.489-.57.187-.373.372-.994.848-1.379 1.06-.659.361-.901.388-4.258.464l-3.56.082-.5 2.316c-.275 1.274-.541 2.429-.591 2.567-.077.208-.454.25-2.272.25-1.642 0-2.18-.05-2.178-.204.001-.112.106-.68.233-1.263l.318-1.466c.063-.294-.038-.202-.362.326-.247.403-.737 1.004-1.088 1.335s-.87.734-1.152.896c-.462.265-.966.295-4.954.295-4.439 0-4.439 0-5.1-.459-.457-.318-.776-.718-1.036-1.304-.206-.464-.375-1.111-.376-1.437-.001-.325.348-2.208.775-4.183s.777-3.636.777-3.69-1.064-.078-2.364-.054l-2.364.045-1.205 5.541a1739.8 1739.8 0 0 0 -1.21 5.581c-.002.023-.971.041-2.153.041s-2.188-.04-2.235-.09c-.047-.049-.026-.36.047-.692l1.147-5.247c.558-2.554 1.014-4.775 1.015-4.934 0-.267-.19-.286-2.434-.244l-2.434.044-.822 3.782c-.453 2.08-.96 4.06-1.126 4.4s-.556.925-.864 1.3c-.313.38-.982.902-1.514 1.181-.954.5-.954.5-5.086.494-3.458-.005-4.207-.049-4.597-.265zm11.552-3.436c.078-.157.427-1.495.774-2.974a468.79 468.79 0 0 0 1.204-5.296c.315-1.434.606-2.81.647-3.056.074-.448.074-.448-1.575-.448-1.426 0-1.649.036-1.649.268 0 .147-.326 1.779-.724 3.626a282.589 282.589 0 0 0 -1.127 5.476l-.402 2.119-3.379.043c-1.858.025-3.379 0-3.379-.054s.146-.696.323-1.426.737-3.2 1.243-5.486c.505-2.287.92-4.25.92-4.362 0-.15-.421-.204-1.593-.203h-1.592l-.684 3.3a887.97 887.97 0 0 0 -1.122 5.499c-.241 1.21-.44 2.438-.443 2.73l-.004.529h6.21c5.755 0 6.219-.02 6.352-.285zm10.329-3.422c.471-2.04.903-3.946.959-4.237.101-.53.101-.53 2.569-.53h2.467l.156-.611c.085-.336.262-1.088.392-1.67.13-.583.237-1.115.239-1.184.001-.068-2.949-.104-6.556-.081l-6.557.042-.25 1.304c-.138.717-.3 1.505-.36 1.752-.108.448-.108.448 2.303.448 2.34 0 2.41.01 2.41.34 0 .186-.135.901-.3 1.588-.166.688-.486 2.276-.71 3.531s-.447 2.447-.493 2.648c-.082.36-.06.367 1.395.367h1.479zm18.344 2.851c.125-.47.372-1.425.549-2.123.177-.697.531-2.254.787-3.461s.465-2.533.465-2.948c0-.478-.127-.99-.348-1.403-.204-.381-.587-.778-.926-.959-.523-.28-.951-.309-4.507-.305-3.484.003-4 .037-4.56.304-.348.166-.887.536-1.199.823s-.712.768-.89 1.07c-.177.301-.496 1.268-.71 2.147-.212.88-.629 2.863-.925 4.407-.296 1.545-.539 2.92-.539 3.056 0 .218.763.248 6.288.248h6.288zm-9.696 0c0-.201.173-1.026.384-1.833.21-.807.562-2.347.782-3.422.22-1.076.436-2.084.482-2.24.075-.26.372-.286 3.335-.286 2.795 0 3.252.035 3.252.246 0 .135-.168.997-.373 1.915s-.521 2.475-.702 3.461c-.18.986-.363 1.958-.406 2.16-.079.366-.082.366-3.416.366-3.338 0-3.338 0-3.338-.367zm6.2-1.059c.085-.336.402-1.765.706-3.174.303-1.41.552-2.639.552-2.73 0-.106-.924-.166-2.554-.166-1.405 0-2.591.061-2.635.136-.045.076-.325 1.267-.623 2.649-.299 1.38-.609 2.823-.69 3.204l-.146.692h5.238zm32.486 1.507c0-.044-.035-.081-.077-.081s-.078.037-.078.081.035.082.078.082a.08.08 0 0 0 .077-.082zm.156-.651c0-.045-.035-.082-.078-.082s-.078.037-.078.082.035.081.078.081.078-.037.078-.081zm-3.866-3.463c.39-1.77.68-3.274.646-3.34-.034-.068-1.206-.123-2.605-.123-2.288 0-2.552.029-2.625.285-.045.157-.364 1.581-.71 3.165s-.628 2.959-.628 3.055c0 .12.845.176 2.608.176h2.608zm-20.371 2.159c.162-.205.787-.244 3.831-.244 3.336 0 3.69-.028 4.25-.327.336-.18.862-.559 1.169-.841s.72-.85.916-1.262.515-1.505.706-2.43c.236-1.148.313-1.91.243-2.403-.06-.417-.276-.936-.514-1.233-.226-.281-.639-.611-.918-.734-.393-.172-1.644-.222-5.561-.222-2.78 0-5.056.055-5.057.122 0 .067-.141.812-.31 1.655a62.6 62.6 0 0 0 -.309 1.588c0 .032 2.132.057 4.739.057 3.689 0 4.738.045 4.735.204-.002.112-.129.717-.282 1.344l-.278 1.14-4.84.044-4.84.043-.152.609a36.84 36.84 0 0 0 -.375 1.871l-.223 1.263h1.438c1.089 0 1.485-.059 1.632-.244zm14.107-1.018a190.8 190.8 0 0 0 .755-3.219l.441-1.955 3.302-.044c1.816-.025 3.301-.02 3.301.009s-.239 1.149-.53 2.488c-.292 1.34-.58 2.783-.64 3.21l-.108.773h1.494c.821 0 1.493-.022 1.493-.049s.313-1.365.696-2.974c.382-1.609.736-3.328.786-3.821.076-.74.03-1.022-.268-1.62-.197-.398-.557-.875-.798-1.06-.418-.319-.644-.335-4.739-.335-3.85 0-4.353.03-4.813.294-.282.162-.796.59-1.142.953s-.755.964-.91 1.336-.568 2.043-.917 3.714-.635 3.156-.635 3.3c0 .222.223.262 1.46.262h1.458zm14.304.162c.166-.605.492-1.943.724-2.974s.623-2.73.87-3.779c.245-1.048.446-1.946.446-1.996s-.726-.091-1.614-.091c-1.547 0-1.618.015-1.703.369-.048.202-.47 2.2-.936 4.44a899.93 899.93 0 0 0 -.951 4.602c-.103.53-.103.53 1.379.53h1.482zm-3.864.693c0-.045-.035-.081-.077-.081s-.078.036-.078.081.035.082.078.082.077-.037.077-.082zm.26-1.494c-.058-.06-.104-.01-.104.109 0 .12.046.168.103.109a.16.16 0 0 0 0-.218zm.517-2.091c0-.045-.035-.082-.077-.082s-.078.037-.078.082.035.081.078.081.077-.036.077-.081zm.156-.652a.08.08 0 0 0 -.078-.081c-.043 0-.078.036-.078.081s.035.082.078.082a.08.08 0 0 0 .078-.082zm.103-.842c-.057-.06-.103-.01-.103.109 0 .12.046.168.103.108a.16.16 0 0 0 0-.217zm.156-.815c-.057-.06-.104-.01-.104.109 0 .12.047.168.104.109a.16.16 0 0 0 0-.218zm2.34 11.72c-.032-.067.719-3.679 1.67-8.026l1.73-7.903 2.408-.045 2.409-.045 1.52 3.874c.837 2.131 1.572 3.931 1.634 4 .061.07.336-.994.61-2.363.273-1.368.653-3.148.843-3.955l.346-1.466 2.202-.045c2-.041 2.208-.019 2.274.244.067.271.073.271.09.004.016-.267.468-.285 7.164-.285 3.931 0 7.144.055 7.141.122s-.234 1.149-.512 2.404l-.505 2.281-2.398.045c-1.319.025-2.447.099-2.507.163-.06.065-.535 2.098-1.055 4.518s-1.057 4.895-1.193 5.5l-.247 1.1h-2.158c-1.624 0-2.159-.05-2.159-.204 0-.112.241-1.377.535-2.811s.784-3.691 1.088-5.016c.304-1.324.552-2.59.552-2.81 0-.403 0-.403-2.458-.403h-2.458l-1.126 5.204c-.882 4.077-1.09 5.275-.96 5.53.092.179.166.367.166.418s-1.185.092-2.634.092h-2.634l-.311-.74c-.172-.406-.89-2.2-1.594-3.985-.705-1.785-1.298-3.23-1.317-3.209-.02.02-.393 1.686-.828 3.7-.436 2.015-.83 3.792-.875 3.949-.073.253-.32.285-2.237.285-1.186 0-2.183-.055-2.216-.122zm5.066-6.274c.127-.47.382-1.478.566-2.238s.355-1.404.379-1.429.31.634.634 1.464c.325.83.756 1.859.958 2.284l.368.774h3.264c3.264 0 3.264 0 3.429-.448.09-.246.36-1.254.6-2.24s.688-2.938.996-4.338c.309-1.4.561-2.629.561-2.73 0-.125-.517-.184-1.61-.184h-1.612l-.187 1.018c-.102.56-.493 2.449-.868 4.197-.374 1.747-.728 3.458-.785 3.8-.057.343-.16.563-.228.49-.068-.074-.404-.905-.748-1.846a266.093 266.093 0 0 0 -1.774-4.644l-1.15-2.934-1.954-.045c-1.762-.041-1.963-.017-2.037.244-.045.16-.505 2.297-1.022 4.75-.517 2.452-.94 4.56-.94 4.684 0 .177.32.226 1.465.226h1.465zm19.344-.326c.183-.65.512-2.025.732-3.055s.449-1.927.51-1.992c.06-.065 1.19-.138 2.51-.163l2.402-.045.348-1.549c.191-.851.35-1.64.353-1.751.004-.16-1.4-.204-6.517-.204-6.522 0-6.522 0-6.603.367-.045.201-.19.88-.321 1.507s-.277 1.269-.321 1.426c-.075.263.107.285 2.338.285 2.241 0 2.418.022 2.418.299 0 .164-.245 1.466-.545 2.892l-.607 2.88c-.055.256.09.284 1.455.284h1.516zm-7.638-5.204c-.05-.13-.086-.092-.094.098-.007.172.03.268.082.214.051-.054.057-.195.012-.312zm.153-.567c-.057-.06-.104-.011-.104.108 0 .12.047.169.104.109a.16.16 0 0 0 0-.217zm.158-.9c-.05-.13-.087-.092-.094.098-.007.172.03.268.082.214.051-.054.057-.194.012-.312zm.153-.73c-.057-.06-.104-.01-.104.109 0 .12.047.168.104.108a.16.16 0 0 0 0-.217zm.158-.574c-.05-.13-.087-.091-.094.099-.007.172.03.268.081.214.052-.054.057-.195.013-.313zm.152-.73c-.057-.06-.103-.01-.103.109 0 .12.046.168.103.109a.16.16 0 0 0 0-.218zm-73.591-6.398c-.3-.063-.7-.203-.893-.313-.192-.109-.488-.483-.657-.832-.17-.349-.415-1.273-.545-2.053-.139-.835-.235-2.399-.235-3.801 0-1.356.135-3.572.313-5.141.171-1.517.335-2.783.363-2.812.028-.03.134 1.102.236 2.514s.292 3.228.422 4.034.347 1.87.481 2.363.402 1.226.596 1.63c.194.403.525.928.736 1.165.21.238.593.547.85.686.256.139 1.087.335 1.846.436.76.101 3.164.184 5.343.185 2.814 0 4.424-.073 5.558-.254.877-.14 1.749-.341 1.936-.446.334-.188.33-.2-.261-.735-.33-.3-2.075-1.326-3.878-2.28s-3.743-2.018-4.312-2.363c-.57-.346-1.42-.997-1.89-1.447-.469-.45-.926-1.038-1.015-1.305-.15-.451-.135-.486.208-.486.203 0 1.475.252 2.827.56s3.612.709 5.022.89c1.41.182 3.577.408 4.816.503s4.21.218 6.603.273c2.598.06 5.914.022 8.234-.093 2.137-.107 4.549-.264 5.36-.35a90.506 90.506 0 0 1 3.03-.258c1.22-.079 1.677-.046 2.125.151.467.206.555.317.484.603-.048.194-.305.588-.571.876-.267.289-.694.681-.95.871-.256.191-.426.389-.377.44s.665-.199 1.368-.556c.704-.357 1.608-.88 2.009-1.162s.817-.628.926-.77c.108-.142.268-.532.354-.869.142-.552.234-.635.957-.86.44-.137 1.033-.25 1.316-.25.361 0 .516.076.516.252 0 .138-.33.62-.731 1.071-.402.45-1.294 1.21-1.981 1.686-.688.476-2.944 1.756-5.015 2.845-2.07 1.089-3.834 2.115-3.918 2.28-.116.228-.08.368.149.586.239.227.764.318 2.52.44 1.22.084 4.14.123 6.49.086 3.346-.052 4.434-.122 5.017-.324.41-.141.974-.44 1.253-.663s.734-.851 1.01-1.396c.291-.573.659-1.712.873-2.707.208-.966.446-2.838.543-4.28.095-1.41.213-2.894.262-3.298.072-.588.113-.666.212-.394.067.187.202 1.023.299 1.857.096.835.174 3.192.173 5.238 0 2.047-.077 4.218-.167 4.825s-.32 1.432-.509 1.834c-.209.445-.556.86-.887 1.06-.482.29-.876.334-3.483.382-1.616.03-3.154.01-3.418-.042-.314-.062-.57-.263-.744-.583l-.264-.488h-39.654l-.513.57c-.512.57-.512.57-3.368.552-1.571-.01-3.101-.07-3.4-.133zm9.4-16.17c-.513-.082-1.667-.3-2.564-.487s-2.08-.526-2.63-.756c-.58-.243-1.247-.68-1.592-1.042-.507-.53-.594-.727-.594-1.331 0-.529.118-.88.464-1.382.256-.37.633-.717.838-.771.21-.056.566.009.817.148.244.135 1.26.893 2.256 1.684.996.79 2.692 2.011 3.768 2.713 1.075.702 1.955 1.307 1.955 1.344 0 .038-.402.06-.893.05a16.26 16.26 0 0 1 -1.825-.17zm33.714-.64c.683-.473 2.012-1.397 2.952-2.055s2.194-1.595 2.787-2.083c.594-.488 1.284-.935 1.534-.992.325-.075.571-.015.863.212.225.174.507.607.626.962.138.408.178.868.11 1.252-.06.333-.32.858-.577 1.165-.28.335-.822.7-1.352.912-.486.195-1.863.564-3.059.821-1.196.258-2.84.512-3.651.566l-1.476.098zm-6.15-4.916 1.928-1.344-.919-.136c-.505-.075-4.554-.128-8.997-.118-4.444.01-9.33.071-10.857.136l-2.778.118 1.639 1.222c.901.672 1.617 1.244 1.591 1.271s-1.936-.683-4.245-1.578-4.608-1.706-5.11-1.802c-.5-.095-2.307-.355-4.014-.578-1.708-.223-3.454-.489-3.881-.591-.428-.103-.9-.253-1.05-.334-.15-.082-.271-.332-.271-.565 0-.251.18-.594.451-.86.249-.244.756-.539 1.127-.656.371-.118 1.106-.251 1.632-.296.527-.046 1.136-.036 1.354.022.293.077.444.273.581.751.102.357.297.752.433.879.137.127.51.305.829.396.58.166.58.166 2.212-1.633.897-.99 2.07-2.169 2.604-2.621.535-.452 1.532-1.098 2.216-1.435s1.767-.766 2.408-.952c.641-.187 2.12-.486 3.287-.665 1.167-.18 3.491-.397 5.166-.485a59.547 59.547 0 0 1 6.081 0c1.67.087 3.785.272 4.7.41.915.14 2.222.397 2.906.574s1.802.603 2.486.948c.683.346 1.68.975 2.215 1.4.535.424 1.72 1.608 2.631 2.63 1.21 1.356 1.758 1.86 2.026 1.86.202 0 .564-.107.804-.238.24-.13.522-.453.626-.717.105-.264.357-.645.561-.846.338-.333.478-.358 1.58-.277.665.048 1.506.214 1.87.367.363.154.835.497 1.049.763.213.266.387.628.387.805 0 .211-.18.4-.522.55-.287.127-1.319.343-2.292.482s-2.922.4-4.332.58c-2.22.285-2.897.447-5.05 1.21a98.977 98.977 0 0 0 -4.627 1.789c-1.178.5-2.192.908-2.253.908s.757-.605 1.817-1.344zm5.684-3.114c.683-.127 1.54-.314 1.903-.418.363-.103.66-.277.66-.386 0-.11-.28-.648-.62-1.196-.342-.548-1.101-1.471-1.687-2.05-.585-.58-1.442-1.277-1.903-1.549a13.223 13.223 0 0 0 -1.849-.86c-.585-.21-1.566-.398-2.334-.447l-1.324-.083-1.589 3.418c-.874 1.88-1.59 3.499-1.59 3.598 0 .107.427.208 1.05.248.576.038 2.621.043 4.544.011 2.058-.033 4.007-.151 4.739-.287zm-10.265-3.359a39.9 39.9 0 0 0 .626-2.366c.132-.594.24-1.15.24-1.233 0-.084-.35-.153-.778-.153h-.777v2.617c0 1.647.056 2.58.151 2.52.083-.055.325-.677.538-1.385z"/></svg>