<svg height="600" viewBox="34 24.4 782 381.6" width="850pt" xmlns="http://www.w3.org/2000/svg"><path d="m205.6 41.4-9 17.2 16.7 32.3c9.2 17.7 16.7 32.4 16.7 32.7 0 .2-2.7.4-5.9.4h-5.9l-8.1 15.5c-4.5 8.5-8.1 15.7-8.1 16s10.1.5 22.5.5h22.5l6.2 12.5 6.3 12.5h36.5l-2.6-5.3c-10-19.6-77.7-150.3-78.2-150.9-.4-.4-4.7 7.1-9.6 16.6zm397.5-13.4c-25.5 5.4-46.1 21.7-56.9 45-3.2 6.7-7.2 20-7.2 23.4 0 .4 7.4.6 16.3.6h16.4l1.3-4.3c3.6-12.3 13.2-23.6 24.4-28.8 25.9-12.1 55 .1 64.6 27.3l1.8 5.3 16.3.3 16.2.3-.6-4.6c-1-7.3-5.5-19.4-9.9-27-6.1-10.4-20.2-24-30.3-29.2-13-6.7-20.1-8.5-35-8.9-7.1-.2-15 .1-17.4.6zm-302.1 50.9c0 55 .4 59.4 6.6 71.9 7.5 15.4 26 29.3 43.2 32.5l3.2.6v-32.7l-5.6-2.8c-6.7-3.4-10.9-8.1-13.1-14.9-1.5-4.3-1.7-11.6-2.1-54.3l-.3-49.2h-31.9zm90.8 1.3c-.3 50.1-.3 50.3-2.6 55.3-3 6.5-7.3 10.9-13.3 13.5l-4.9 2.1v15.9c0 8.7.4 16.1.9 16.4 1.5 1 14.2-3.4 21.1-7.2 9.2-5 20.8-16.9 24.8-25.3 6.4-13.5 6.6-15.1 6.7-70.4v-50l-16.2-.3-16.2-.2zm42.2-34.2v16h101v-32h-101z"/><path d="m167.6 115.7c-10.4 20.3-22.3 43.2-26.4 51l-7.4 14.3h36.7l17.1-33.8 17.2-33.7-8.6-17.3c-4.8-9.4-8.9-17.2-9.2-17.2s-9 16.5-19.4 36.7zm301.1-35c-.4.3-.7 23.1-.7 50.5v49.8h33v-101h-15.8c-8.7 0-16.2.3-16.5.7zm70.9 38c5.5 30.7 28.3 55.6 58.5 63.9 8.9 2.5 30.9 2.5 39.8 0 22.7-6.2 40-20.7 50.9-42.3 3.3-6.4 7.2-19.1 7.2-23.1v-2.2l-16.1.2-16.1.3-2.2 6c-10.3 28.4-44.1 39.8-69.6 23.5-8.5-5.4-16.3-15.9-19-25.5l-1.3-4.5h-32.8zm-282 147.7-9 17.2 16.7 32.3c9.2 17.7 16.7 32.4 16.7 32.7 0 .2-2.7.4-5.9.4h-5.9l-8.1 15.5c-4.5 8.5-8.1 15.7-8.1 16s10.1.5 22.5.5h22.5l6.2 12.5 6.3 12.5h36.5l-2.6-5.3c-10-19.6-77.7-150.3-78.2-150.9-.4-.4-4.7 7.1-9.6 16.6zm436.2-13.3c-1.4 2.4-5.5 10.3-9.2 17.6l-6.7 13.2 16.6 31.9c9.1 17.5 16.5 32.2 16.5 32.5 0 .4-2.7.7-6 .7h-6l-8 16-8 16 22.6.2 22.6.3 6.5 12.3 6.5 12.2h17.9c9.8 0 17.9-.2 17.9-.4s-16.4-32-36.4-70.7-38.1-73.9-40.3-78.3l-4-7.9zm-659.8 17.6.1 20.8 36.9 29.8 37 29.8 20.7-16.7 20.8-16.6.3 44.1.2 44.1h32v-77.5c0-42.6-.3-77.5-.6-77.5-.5 0-47.2 37.5-65.5 52.6l-7.6 6.3-13.9-11.2c-7.6-6.2-24.4-19.7-37.1-30l-23.3-18.8zm301 .3v16l50.8-.2 50.7-.3v-31l-50.7-.3-50.8-.2zm112 59.5v75.5h33l-.2-75.3-.3-75.2-16.2-.3-16.3-.2zm51-59.5v16h59v-32h-59zm286 59.5v75.5h32v-151h-32z"/><path d="m219.6 340.7c-10.4 20.3-22.3 43.2-26.4 51l-7.4 14.3h36.7l17.1-33.8 17.2-33.7-8.6-17.3c-4.8-9.4-8.9-17.2-9.2-17.2s-9 16.5-19.4 36.7zm421.8 14.3-26.1 51h36.2l17.4-33.8 17.4-33.7-8.9-17.2c-4.9-9.5-9.1-17.3-9.4-17.3s-12.2 23-26.6 51zm-271.4.5v50.5h32v-101h-32zm-336 4.9v45.6h33v-64.9l-12.2-9.7c-6.8-5.4-14.2-11.3-16.5-13.2l-4.3-3.4zm464-29.4v16h59v-32h-59zm0 59v16h59v-32h-59z"/></svg>