<svg height="234" width="2500" xmlns="http://www.w3.org/2000/svg" viewBox="0.003 0 219.444 20.501"><path d="M32.226 0H10.811L.003 20.5h12.1l7.335-13.912h4.8L31.573 20.5h12.1L32.865 0zM106.583 0H85.164L74.357 20.5h12.1l7.335-13.912h4.8l7.335 13.912h12.1L107.219 0zM178.054 0h-21.419l-10.808 20.5h12.1l7.335-13.912h4.8l7.335 13.912h12.1L178.689 0zM68.851 0l-7.335 13.912h-4.8L49.381 0h-12.1l10.807 20.5h22.068L80.964 0zM113.407.031v6.587h12.426v13.881h12.1V6.618h12.426V.031zM192.26 0v20.5h12.1V6.619h15.087V.029zM212.008 17.082h1.25v3.416h.481v-3.416h1.25v-.442h-2.981zM217.473 19.843l-1.367-3.2h-.606v3.858h.468v-3.046l1.279 3.042h.426l1.279-3.042v3.042h.468v-3.858h-.6z"/></svg>