<svg height="386" viewBox="-.007 -.01 1162.167 179.24" width="2500" xmlns="http://www.w3.org/2000/svg"><path d="m672.52 43.78c9.55-13.51 21.67-24.01 36.33-31.51s30.98-11.25 48.94-11.25c15.32 0 28.38 2.51 39.18 7.54 10.79 5.03 18.87 12.15 24.22 21.38s7.79 20.11 7.29 32.62h-57.84c-1.48-3.46-4.04-6.14-7.66-8.03-3.63-1.89-8.24-2.84-13.84-2.84-10.55 0-19.32 3.46-26.32 10.38-7.01 6.92-11.49 16.23-13.47 27.93-.83 4.94-1.24 8.98-1.24 12.11 0 19.12 11.12 28.67 33.37 28.67 12.69 0 23.81-5.11 33.37-15.32h-43.75l6.67-38.8h89.23l-9.64 54.87c-9.89 13.02-22.33 24.18-37.32 33.49-15 9.31-32.71 13.96-53.14 13.96-15.82 0-29.33-2.88-40.54-8.65s-19.73-13.88-25.58-24.35c-5.85-10.46-8.78-22.7-8.78-36.7 0-6.59.58-13.01 1.73-19.28 2.97-17.3 9.23-32.71 18.78-46.22zm324.78-41.03-7.66 43.5h-46.47l-23.23 131.49h-54.87l23.23-131.49h-45.97l7.66-43.5zm129.27 8.78c11.53 5.85 20.35 14.01 26.45 24.47 6.09 10.47 9.14 22.53 9.14 36.21 0 5.44-.49 11.29-1.48 17.55-2.97 16.64-9.35 31.64-19.15 44.98-9.81 13.35-22.25 23.85-37.32 31.51-15.08 7.66-31.76 11.49-50.05 11.49h-72.91l30.88-174.99h72.91c16.15 0 29.99 2.93 41.53 8.78zm-37.45 107.14c8.48-6.76 13.8-16.39 15.94-28.92.49-3.29.74-6.34.74-9.15 0-9.72-3.01-17.13-9.02-22.24-6.02-5.11-14.38-7.66-25.09-7.66h-13.1l-13.84 78.1h13.1c12.36 0 22.78-3.37 31.27-10.13z" fill="#232323"/><path d="m315.71 154.8h-50.6l-11.58 22.94h-49.96l82.34-151.8h54.89l28.52 151.8h-50.17l-3.43-22.94zm-5.15-35.8-6.22-42.24-21.23 42.24z" fill="#e03b3b"/><path d="m479.09 119 33.45 58.75h-53.17l-15.44-27.23-20.15 27.23h-52.32l51.89-63.68-32.59-57.25h53.17l15.44 27.44 20.37-27.44h52.32l-52.96 62.18z" fill="#dd813c"/><path d="m592.29 56.82-21.44 120.93h-47.6l21.44-120.93zm-39.34-15.01c-4.22-3.57-6.33-8.22-6.33-13.94 0-5 1.36-9.65 4.07-13.94s6.54-7.68 11.47-10.19c4.93-2.5 10.4-3.75 16.4-3.75 7.29 0 13.04 1.82 17.26 5.47 4.21 3.65 6.33 8.4 6.33 14.26 0 5-1.36 9.58-4.07 13.72-2.72 4.15-6.51 7.47-11.36 9.97-4.86 2.5-10.29 3.75-16.3 3.75-7.43 0-13.26-1.79-17.47-5.36z" fill="#848484"/><path d="m619.42 174.53c-8.22-3.14-14.65-7.54-19.3-13.19s-6.97-12.12-6.97-19.4c0-2.71.14-4.72.43-6h45.67c-.14 3.57.89 6.22 3.11 7.93 2.21 1.72 5.25 2.57 9.11 2.57 2.43 0 4.54-.57 6.33-1.71s2.68-2.5 2.68-4.07c0-2.28-1.43-4.11-4.29-5.47s-7.58-2.9-14.15-4.61c-8.29-2.29-15.19-4.64-20.69-7.08-5.5-2.43-10.29-6.04-14.36-10.83s-6.11-11.04-6.11-18.76c0-7.15 2.18-13.69 6.54-19.62s10.51-10.58 18.44-13.94 17.12-5.04 27.55-5.04c11.43 0 21.26 1.93 29.48 5.79s14.4 9.08 18.55 15.65c4.14 6.58 6.07 13.87 5.79 21.87h-42.24c0-3.29-1-5.82-3-7.61s-4.93-2.68-8.79-2.68c-2.43 0-4.47.5-6.11 1.5s-2.47 2.36-2.47 4.07c0 2.14 1.43 3.9 4.29 5.25 2.86 1.36 7.72 3.11 14.58 5.25 8.43 2.43 15.4 4.82 20.9 7.18s10.33 5.86 14.47 10.51 6.22 10.54 6.22 17.69c0 12.44-5.33 22.12-15.97 29.05-10.65 6.93-24.48 10.4-41.49 10.4-10.58 0-19.98-1.57-28.2-4.72z" fill="#3c7edd"/><path d="m138.916 38.47 35.716-35.716 35.715 35.716-35.715 35.716z" fill="#232323"/><path d="m-.007 107.93 35.716-35.716 35.716 35.716-35.716 35.716z" fill="#e03b3b"/><path d="m34.728 142.66 35.716-35.716 35.716 35.716-35.716 35.716z" fill="#dd813c"/><path d="m104.186 73.206 35.716-35.716 35.715 35.716-35.715 35.716z" fill="#848484"/><path d="m69.458 107.925 35.716-35.716 35.716 35.716-35.716 35.716z" fill="#3c7edd"/></svg>