<svg clip-rule="evenodd" fill-rule="evenodd" height="20mm" image-rendering="optimizeQuality" shape-rendering="geometricPrecision" text-rendering="geometricPrecision" viewBox="0 0 4000 2000" width="40mm" xmlns="http://www.w3.org/2000/svg"><path d="M0 0h4000v2000H0z" fill="none"/><path d="M2251.92 281.99c-2.12-1.56-2.12-4.71 0-9.41l49.15-100.15c3.15-6.3 6.24-9.42 9.93-9.42 4.97 0 26.95 13.31 65.9 40.02 38.71 26.39 58.31 42.09 58.31 46.54 0 17.51-17.23 53.86-51.52 108.82-3.94 7.28-8.36 9.12-13.06 5.47-38.2-29.05-77.67-56.52-118.71-81.87zm214.75 887.04c-53.7 46.93-121.71 95.7-204.24 146.46-8.22 27.28-21.97 66.92-41.42 118.98-33.74 90.79-50.49 162.39-50.49 214.98 0 40.28 9.45 72.43 28.29 96.48 19.88 26.16 47.83 39.26 83.43 39.26 54.08 0 121.31-41.89 201.59-125.81 67.98-78.98 130.34-162.66 202.95-236.68 175.83-179.16 343.14-260.51 532-369.76-60.18-32.65-111.64-77.92-154.07-135.67-52.56-71.92-78.96-150.62-78.96-235.9 0-85.8 30.07-155.9 89.68-209.97 69.59-63.31 152.54-94.93 248.98-94.93 60.97 0 123.14 12.54 187.01 37.37 50.71 19.6 91.46 41.59 122.66 65.9 25.6 20.38 38.15 32.66 38.15 36.89-.52 2.09-1.86 3.13-4.44 3.13-5.26 0-16.46-2.64-33.71-7.84-137.07-38.6-313.5-23.83-448.26 16.21-82.62 24.54-127.64 49.43-134.94 75.01 9.92 67.01 47.82 136.03 114.27 206.87 79.26 83.16 166.31 125.04 261.27 125.04 103.81 0 370.48-124.85 478.83-169.47 16.46-6.54 26.38-8.35 29.79-5.23 4.21 3.41 2.42 12.8-5.19 28.26l-50.75 104.07c-4.95 10.72-13.88 18.82-26.65 23.82-91.04 36.87-248.95 106.12-474.43 207.62-194.34 87.95-467.04 223.58-612.25 372.12-42.85 43.86-99.13 109.04-168.69 195.28-60.66 75.59-105.88 126.38-135.48 151.77-46 40.99-91.55 61.4-136.45 61.4-50.49 0-94.67-22.79-132.36-68.26-40.03-47.6-59.92-105.39-59.92-173.92 0-85.3 31.65-194.04 95-326.15-59.7 35.46-278.27 159.88-319.01 159.88-131.23 41-399.94 94-578.44 125.75-4.42 0-7.13-.77-7.59-2.39 0-3.6 27.18-17.73 81.88-42.8 273.67-124.84 552.87-222.9 813.51-376.59-21.19-46.92-74.4-71.46-155.26-81.67-338.59-42.74-684.13 105.23-1019.86 93.56l-157.54 358.34-55.38-48.88c2.62-6.54 60.51-144.34 130.41-314.83-231.28-21.99-317.67-67.17-500.27-219.15-18.05 1.49-36.39 2.21-54.95 2.21-106.11 0-189.65-23.13-250.87-69.22-61.21-46.23-91.77-109.12-91.77-188.78 0-77.6 32.58-144.17 97.73-199.48 65.29-55.47 142.5-83.15 231.63-83.15 71.24 0 128.95 17.03 173.05 50.85 44.19 33.76 66.31 76.97 66.31 129.8 0 64.1-23.81 116.11-71.48 156.26-47.48 40.33-109.36 60.44-185.3 60.44-17.92 0-31.96-1.04-42.15-3.02 26.44 24.17 79.94 73.11 151.66 124.35 49.61-6.44 97.67-18.9 144.18-37.42 71.28-28.46 138.04-70.43 200.12-125.94-52.42-42.39-91.56-86.58-117.41-132.7-25.78-45.86-38.66-94.19-38.66-145.16 0-56.78 17.79-102.84 53.66-138.24 35.79-35.45 81.3-53.07 136.58-53.07 49.56 0 96.44 14.97 140.88 44.66 44.44 29.89 82.12 72.48 113.48 127.99 106.21-117.13 199.19-205.43 278.67-265.01 79.27-59.6 164.23-108.91 254.54-147.63-87.8 105.91-169.35 223.22-244.52 351.83-74.9 128.58-147.86 277.06-218.48 445.39 58.33-3.28 108.73-25.2 151.15-65.94 1.26-1.18 2.42-2.31 3.56-3.37.01-.23.05-.47.13-.77.21-.79.6-1.36 1.02-2.2l13.1-16.8c4.7-5.7 11.88-14.33 21.51-25.8 30.47-36.04 53.03-65.11 67.72-87.03-1.39-4.92-2.81-8.99-3.84-12.5-1.03-3.24-1.46-6.14-1.46-8.61 0-11.68 3.71-20.86 10.85-28.04 7.17-7 17-10.46 29.29-10.46 10.45 0 18.67 2.51 24.35 7.61 5.81 4.89 8.61 11.43 8.61 19.43 0 5.93-1.43 13.12-4.68 21.1-3.28 7.99-4.72 12.88-4.72 14.93 0 6.18 3.47 11.04 10.42 14.75 7 3.92 16.62 5.78 29.14 5.78 42.33 0 77.98-12.33 106.85-36.66 28.7-24.44 45.06-36.73 49.13-36.73 4.72 0 8.84 1.27 12.14 3.91 3.03 2.74 4.67 5.75 4.67 9.22 0 13.75-14.54 28.07-43.83 43.44-5.93 3.02-10.64 5.51-13.67 7.17-37.73 26.82-74.15 54.07-109.6 81.67-35.41 27.46-69.86 55.7-102.96 84.63 3.66-2.05 8.57-4.73 15.1-7.81 41.61-19.72 70.43-29.5 87.03-29.5 13.94 0 25.37 4.27 34.45 12.94 8.97 8.54 13.5 19.44 13.5 32.56 0 12.47-4.29 27.83-12.91 46.26-8.6 18.23-12.86 29.07-12.86 32.35 0 3.47.77 6.77 2.45 9.65 1.38 2.61 3.48 4.08 5.9 4.08 6.8 0 19.48-7.59 38.11-22.53 18.6-14.94 44.23-38.51 77.2-70.85 13.12-12.7 26.63-27.46 40.75-44.08 8.72-10.36 15.35-17.5 19.86-21.44 6.66-9.29 17.77-22.92 33.36-40.78 27.27-31.3 65.77-72.46 115.28-123.7l88.31-5.92-121.87 191.46c-26.01 41.18-42.58 68.63-49.57 82.75-6.91 13.87-10.42 24.97-10.42 32.94 0 5.96 2.01 11.3 6.31 16.21 4.11 4.68 9.05 7.17 14.78 7.17 15.12 0 33.79-8.19 55.68-24.38 22.15-16.16 51.42-43.81 88.26-82.93 6.74-7.57 15.56-17.44 26.42-29.47 10.99-12.39 19.1-20.58 24.4-24.41l6.55-8.38c4.67-5.7 11.85-14.33 21.52-25.8 30.49-36.04 52.99-65.11 67.75-87.03-1.44-4.92-2.86-8.99-3.9-12.5-1.01-3.24-1.41-6.14-1.41-8.61 0-11.68 3.66-20.86 10.81-28.04 7.14-7 17.01-10.46 29.26-10.46 10.49 0 18.69 2.51 24.38 7.61 5.76 4.89 8.63 11.43 8.63 19.43 0 5.93-1.44 13.12-4.69 21.1-3.29 7.99-4.72 12.88-4.72 14.93 0 6.18 3.51 11.04 10.42 14.75 7 3.92 16.59 5.78 29.12 5.78 42.35 0 77.99-12.33 106.9-36.66 28.67-24.44 45.03-36.73 49.1-36.73 4.76 0 8.83 1.27 12.13 3.91 3.05 2.74 4.67 5.75 4.67 9.22 0 13.75-14.51 28.07-43.82 43.44-5.93 3.02-10.65 5.51-13.65 7.17-37.74 26.82-74.18 54.07-109.62 81.67-35.43 27.46-69.85 55.7-102.96 84.63 3.65-2.05 8.56-4.73 15.16-7.81 41.57-19.72 70.36-29.5 86.97-29.5 13.97 0 25.43 4.27 34.42 12.94 9 8.54 13.51 19.44 13.51 32.56 0 12.47-4.26 27.83-12.89 46.26-8.6 18.23-12.89 29.07-12.89 32.35 0 3.47.81 6.77 2.44 9.65 1.39 2.61 3.52 4.08 5.93 4.08 6.79 0 19.51-7.59 38.12-22.53s44.21-38.51 77.19-70.85c13.06-12.7 26.63-27.46 40.76-44.08 13.92-16.55 22.49-24.94 25.78-24.94 2.51.38 4.13 1.03 5.34 2.05 1.24 1.01 1.84 2.22 1.84 3.88 0 4.1-4.3 11.27-13.13 21.9-8.82 10.64-24.13 26.61-45.65 48.33-38.88 39.53-68.61 66.76-89.5 81.76-20.7 14.92-38.12 22.47-52.21 22.47-15.17 0-27.23-6.11-36.21-18.2-9.04-12.3-13.56-28.85-13.56-49.95 0-9.26 1.67-19.49 4.76-30.96 3.25-11.43 4.88-18.83 4.88-22.51 0-.99-.86-2.21-2-3.32-1.5-1.01-3.52-1.39-6.39-1.39-13.31 0-31.58 4.93-55.29 14.74-23.57 9.64-44.43 21.51-62.93 35.44-12.81 10.04-26.98 24.72-42.35 44.43-15.38 19.45-27.84 29.26-37.48 29.26-4.7 0-8.54-1.19-11.67-3.91-3.11-2.42-4.48-5.9-4.48-10.39 0-10.03 4.48-19.48 13.52-28.49 8.97-8.96 23.72-19.21 44.02-30.9 42.78-36.7 84.13-71.3 124.29-103.63 39.9-32.35 79.05-62.85 116.93-91.13-19.68 5.1-35.43 8.83-47.3 11.06-12.12 2.26-22.92 3.29-32.52 3.29-14.34 0-27.05-1.85-37.71-5.76-10.85-3.68-20.91-10.03-30.13-18.78-26.79 33.1-51.99 63.86-75.53 92.28-1.62 2.07-2.68 3.29-3.11 3.74l-19.08 21.47c-1.44 2.12-2.81 3.7-4.17 4.83-.54.68-1.1 1.4-1.76 2.12-6.79 8.39-22.03 25.02-46.08 49.78-41.33 42.18-72.43 70.46-93.53 84.93-21.31 14.61-40.12 21.95-56.54 21.95-19.83 0-36.01-6.95-48.3-21.09-12.07-13.91-18.28-32.71-18.28-56.32 0-31.12 28.52-89.48 85.23-175.06 6.35-10.02 11.25-17.62 14.54-22.97-22.56 22.56-45.84 47.33-70.03 74.78-11.7 13.28-21.11 23.33-28.17 30.17-1.68 4.25-5.71 10.15-12.17 17.93-8.83 10.64-24.14 26.61-45.7 48.33-38.89 39.53-68.59 66.76-89.47 81.76-20.68 14.92-38.1 22.47-52.22 22.47-15.12 0-27.2-6.11-36.19-18.2-9.07-12.3-13.57-28.85-13.57-49.95 0-9.26 1.7-19.49 4.72-30.96 3.33-11.43 4.89-18.83 4.89-22.51 0-.99-.82-2.21-2.03-3.32-1.44-1.01-3.46-1.39-6.34-1.39-13.34 0-31.56 4.93-55.3 14.74-23.57 9.64-44.39 21.51-62.89 35.44-12.91 10.04-27.05 24.72-42.34 44.43-15.42 19.45-27.89 29.26-37.51 29.26-4.7 0-8.6-1.19-11.65-3.91-3.13-2.42-4.51-5.9-4.51-10.39 0-10.03 4.51-19.48 13.53-28.49 8.93-8.96 23.75-19.21 44.01-30.9 42.75-36.7 84.14-71.3 124.3-103.63 39.91-32.35 79.05-62.85 116.95-91.13-19.69 5.1-35.47 8.83-47.31 11.06-12.12 2.26-22.93 3.29-32.59 3.29-14.31 0-26.99-1.85-37.64-5.76-10.87-3.68-20.91-10.03-30.17-18.78-26.79 33.1-52 63.86-75.55 92.28-1.61 2.07-2.67 3.29-3.05 3.74l-14.88 16.76c-3.81 15.66-22 33.07-54.72 52.21-37.04 21.91-79.86 34.6-128.61 38.7l-102.4 226.04c318.55-11.64 681.33-143.7 992.88-112.07 78.05 7.58 196.67 48.22 201.2 141.91 72.66-45.91 237.88-159.43 268.9-235.86 0-85.81-24.05-176.84-72.75-272.81-9.14-18.3-13.86-32.66-13.86-42.84 0-7.65 9.94-43.7 30.12-108.01 3.4-12.28 7.56-18.32 12.01-18.32 5.2 0 11.5 8.4 19.34 25.1 13.63 30.33 23.85 48.61 30.67 55.18 49.25 53.09 113.94 17.91 149.73-29.5 11.74-15.73 32.18-51.5 61.44-107.24 19.86-38.18 35.88-57.49 48.14-57.49 13.3 0 25.12 11.99 35.25 36.08 10.22 24.01 15.44 50.7 15.44 79.75 0 18.83-3.12 44.41-9.13 76.61-7.84 42.37-17.02 63.52-27.69 63.52-6.53 0-9.95-17.49-9.95-52.8 0-27.19-2.89-44.68-8.36-52.86-14.91 2.39-31.4 23.58-49.96 62.77-25.34 55.7-45.51 92.89-59.6 111.98-22.69 30.47-67.11 59.23-105.6 43.83 0 111.96-3.69 188.07-11.5 228.37-15.17 81.86-50.81 146.97-106.49 195.31zM441.76 971.85c-79.9-68.36-137.91-130.73-127.8-143.85.2-.22 1.13.27 2.64 1.45 1.78-1.04 4.44-1.6 7.69-1.6.81 0 2.66.17 5.95.59 13.9 1.23 27.18 1.83 39.44 1.83 70.53 0 127.86-17.15 172.03-51.79 44.27-34.61 66.37-78.46 66.37-131.29 0-44.42-17.19-79.63-51.77-105.86-34.6-26.2-81.53-39.3-140.7-39.3-87.65 0-162.8 25.57-225.7 77.03-62.85 51.36-94.2 112.12-94.2 182.2 0 63.92 27.89 115.27 83.38 153.78 55.69 38.74 130.22 57.99 223.82 57.99 13.05 0 25.96-.39 38.85-1.18zm63.05 10.42c161.13 110.47 289.36 156.49 483.34 157.37 43.03-105.02 77.64-189.59 80.5-196.75 7.78-19.45 12.89-32.13 15.37-37.65-42.41-4.53-83.15-13.94-122.03-28.3-39.16-14.31-78.27-34.6-117.4-60.57-67.99 58.95-137.99 102.39-210.35 130.84-41.78 16.49-84.95 28.18-129.43 35.06zm634.27-193.98c52.02-110.77 113.68-218.31 184.94-322.1 71.06-104 154.79-208.68 251.21-313.91-65.07 27.19-135.12 71.88-209.67 133.91-74.5 61.81-154.36 141.67-239.62 239.2 7.6 24.34 13.36 49.92 17.05 76.77 3.88 26.82 5.74 54.46 5.74 82.95 0 15.16-.83 31.3-2.46 48.32-1.63 16.96-3.89 35.26-7.19 54.86zm-47.87 99.55c13.89-34.83 24.14-68.41 30.94-100.94 6.48-32.4 9.77-65.57 9.77-99.56 0-27.82-1.64-54.24-4.69-78.83-3.28-24.57-8.22-47.69-15.18-69.2-16 16.76-39.54 42.16-70.61 76.15-78.05 84.81-138.46 147.02-181.24 186.56 32.33 24.38 67.59 43.65 105.62 57.97 37.91 14.11 79.68 23.29 125.39 27.85zm-246.62-95.4c51.62-46.7 122.09-119.47 211.16-217.73 21.28-23.75 37.26-41.34 47.94-52.81-25.24-49.59-55.33-87.08-90.52-112.24C977.94 384.49 938.62 372 895.02 372c-49.22 0-91 18.83-125.36 56.66-34.38 37.72-51.59 83.99-51.59 138.9 0 44.06 10.03 83.97 30.27 119.99 20.31 35.83 52.28 70.88 96.25 104.89zm1171.54-343.28c0-13.11 5.39-25.55 16.04-37.44 10.44-11.7 21.93-17.66 34.35-17.66 10.04 0 18.07 3.33 23.98 9.88 5.94 6.74 9 15.12 9 25.57 0 13.51-4.89 26.21-14.91 38.06-10.08 11.73-21.32 17.68-33.6 17.68-10.02 0-18.24-3.53-25-10.26-6.55-6.76-9.86-15.37-9.86-25.83zm821.69 567.94c-2.08-1.55-2.08-4.72 0-9.41l49.19-100.18c3.16-6.22 6.29-9.38 9.94-9.38 11.54 0 124.2 77.89 124.2 86.54 0 17.54-17.23 53.86-51.46 108.79-3.98 7.38-8.44 9.15-13.09 5.51-38.17-29.07-77.72-56.46-118.78-81.87zm-141.32-3.08l-80.29-39c-6.24-3.11-9.15-6.22-9.15-9.88 0-5.25 13.05-27.17 39.71-65.93 26.48-38.97 42.11-58.26 46.84-58.26 17.3 0 53.66 17.2 108.84 51.46 6.51 3.92 8.36 8.38 5.13 12.85-25.04 33.72-51.17 71.9-78.91 114.29 32.14 14.31 59.6 28.21 82.14 42.06 7.09 4.22 8.87 8.38 5.21 13.08-29.06 38.2-56.22 77.96-81.85 118.78-1.62 2.07-4.75 2.07-9.2 0l-100.42-49.19c-6.23-2.84-9.11-6.3-9.11-9.93 0-12.52 66.65-105.87 81.06-120.33z"/></svg>