<svg fill="none" height="359" width="2500" xmlns="http://www.w3.org/2000/svg" viewBox="-0.014879491035411418 -0.0014294443786601607 952.3388794910354 137.00242944437866"><path d="M89.835 17.07L80.065.166a.334.334 0 0 0-.579 0l-9.77 16.904a.347.347 0 0 0-.004.335l9.77 17.335a.335.335 0 0 0 .582 0l9.77-17.335a.336.336 0 0 0 0-.335zM76.679 36.99l-9.774-17.34a.335.335 0 0 0-.582 0L.044 136.497a.338.338 0 0 0 .293.504h132.557c.258 0 .42-.278.289-.504l-9.77-17.012a.334.334 0 0 0-.293-.17l-92.755.444a.338.338 0 0 1-.293-.504l46.607-81.93a.329.329 0 0 0 0-.33z" fill="#0095ce"/><g fill="#f05542"><path clip-rule="evenodd" d="M93.594 18.666l64.62 117.289a.337.337 0 0 1-.293.5H138.82a.335.335 0 0 1-.293-.17l-11.639-20.812a.338.338 0 0 0-.293-.174H38.523a.334.334 0 0 1-.289-.503l54.778-96.134a.333.333 0 0 1 .582.004zm-.221 35.25l24.762 43.98a.335.335 0 0 1-.293.5H68.1a.335.335 0 0 1-.293-.5l24.984-43.98a.335.335 0 0 1 .582 0z" fill-rule="evenodd"/><path d="M551.669 123H534l39.702-109h19.231l39.702 109h-17.669l-31.19-89.201h-.862zm2.963-42.685h57.317v13.838h-57.317zM684.283 123h-35.716V14h36.847c10.81 0 20.093 2.182 27.851 6.546 7.757 4.33 13.7 10.556 17.83 18.681 4.166 8.09 6.249 17.795 6.249 29.113 0 11.354-2.101 21.112-6.302 29.273-4.166 8.161-10.2 14.441-18.101 18.841-7.901 4.364-17.453 6.546-28.658 6.546zm-19.07-14.37h18.154c8.404 0 15.389-1.561 20.955-4.684 5.567-3.158 9.733-7.717 12.498-13.678 2.765-5.996 4.148-13.306 4.148-21.928 0-8.55-1.383-15.807-4.148-21.768-2.729-5.96-6.806-10.485-12.228-13.572-5.423-3.086-12.157-4.63-20.202-4.63h-19.177zM793.759 123h-35.715V14h36.847c10.809 0 20.093 2.182 27.85 6.546 7.757 4.33 13.701 10.556 17.831 18.681 4.166 8.09 6.249 17.795 6.249 29.113 0 11.354-2.101 21.112-6.303 29.273-4.166 8.161-10.199 14.441-18.1 18.841-7.901 4.364-17.454 6.546-28.659 6.546zm-19.07-14.37h18.154c8.404 0 15.389-1.561 20.956-4.684 5.566-3.158 9.732-7.717 12.498-13.678 2.765-5.996 4.147-13.306 4.147-21.928 0-8.55-1.382-15.807-4.147-21.768-2.73-5.96-6.806-10.485-12.229-13.572s-12.156-4.63-20.201-4.63h-19.178zM871.358 123h-17.669l39.702-109h19.232l39.701 109h-17.669l-31.19-89.201h-.862zm2.963-42.685h57.318v13.838h-57.318z"/></g><path d="M198.721 15.45V121.55H183V15.451zM308.157 49.953h-15.873c-.611-3.453-1.747-6.493-3.409-9.117-1.662-2.625-3.697-4.853-6.105-6.683-2.408-1.83-5.105-3.212-8.09-4.145-2.951-.932-6.088-1.399-9.412-1.399-6.003 0-11.379 1.537-16.128 4.611-4.715 3.074-8.446 7.581-11.193 13.521-2.713 5.94-4.07 13.194-4.07 21.759 0 8.634 1.357 15.922 4.07 21.862 2.747 5.94 6.495 10.43 11.244 13.47 4.748 3.039 10.091 4.559 16.026 4.559 3.29 0 6.411-.449 9.362-1.347 2.984-.933 5.681-2.297 8.089-4.093s4.443-3.989 6.105-6.58c1.696-2.624 2.866-5.629 3.511-9.014l15.873.052c-.848 5.215-2.493 10.016-4.935 14.402a39.562 39.562 0 0 1-9.31 11.294c-3.765 3.143-8.073 5.578-12.923 7.305S270.848 123 265.115 123c-9.022 0-17.06-2.176-24.115-6.528-7.055-4.386-12.618-10.654-16.688-18.805-4.036-8.151-6.054-17.873-6.054-29.167 0-11.328 2.035-21.05 6.105-29.167 4.07-8.15 9.633-14.402 16.688-18.754C248.106 16.193 256.127 14 265.115 14c5.529 0 10.685.812 15.467 2.435 4.816 1.589 9.141 3.937 12.974 7.045 3.832 3.074 7.004 6.839 9.514 11.294 2.51 4.421 4.206 9.48 5.087 15.18zM417.479 68.5c0 11.328-2.035 21.068-6.105 29.219-4.07 8.116-9.65 14.367-16.738 18.753-7.055 4.352-15.077 6.528-24.065 6.528-9.022 0-17.078-2.176-24.167-6.528-7.055-4.386-12.617-10.654-16.688-18.805-4.07-8.151-6.105-17.873-6.105-29.167 0-11.328 2.035-21.05 6.105-29.167 4.071-8.15 9.633-14.402 16.688-18.754C353.493 16.193 361.549 14 370.571 14c8.988 0 17.01 2.193 24.065 6.58 7.088 4.351 12.668 10.602 16.738 18.753 4.07 8.117 6.105 17.839 6.105 29.167zm-15.568 0c0-8.634-1.374-15.905-4.121-21.81-2.714-5.94-6.445-10.43-11.193-13.47-4.715-3.074-10.057-4.61-16.026-4.61-6.004 0-11.363 1.536-16.077 4.61-4.715 3.04-8.446 7.53-11.193 13.47-2.714 5.906-4.071 13.176-4.071 21.81s1.357 15.922 4.071 21.862c2.747 5.906 6.478 10.396 11.193 13.47 4.714 3.039 10.073 4.559 16.077 4.559 5.969 0 11.311-1.52 16.026-4.559 4.748-3.074 8.479-7.564 11.193-13.47 2.747-5.94 4.121-13.228 4.121-21.862zM521.179 15.45V121.55H506.73l-52.963-77.812h-.966v77.812H437.08V15.451h14.55l53.014 77.916h.967V15.45z" fill="#0095ce"/></svg>