<svg height="386" viewBox="0 0 1889.416 291.349" width="2500" xmlns="http://www.w3.org/2000/svg"><path d="m151.466 115.487 4.652-2.086 91.472-41.015v-45.557l-123.795 57.822v-26.831l-123.795-57.82v45.556l108.38 48.597v31.515l-108.38 48.597v46.019l123.795-58.285v26.83l123.795 58.284v-46.02l-91.645-41.092-4.328-1.941c-7.405-4.228-12.4-12.193-12.4-21.33 0-9.075 4.928-16.994 12.25-21.243zm182.343-48.696c0-11.048 10.102-20.505 22.074-20.505 12.617 0 22.709 9.468 22.709 20.505 0 11.349-10.092 20.183-22.709 20.183-11.983 0-22.074-8.834-22.074-20.183zm41.634 34.68v134.681h-38.474v-134.681zm23.239 67.814c0-36.272 22.397-71.274 61.816-71.285 17.346 0 35.949 9.156 45.416 24.288v-72.22h37.84v186.719h-37.84v-20.507c-4.417 5.986-10.09 11.349-16.399 15.766-8.834 5.363-18.926 8.2-29.017 8.2-39.42 0-61.816-34.691-61.816-70.962zm36.27 0c0 21.45 12.93 39.108 35.637 39.108 9.146 0 17.98-3.149 23.655-10.092 7.565-7.254 11.67-17.98 11.67-29.016 0-11.349-4.105-22.074-11.67-29.329-5.364-6.308-13.874-10.091-22.708-10.091-23.02 0-36.583 17.346-36.583 39.42zm132.29 0c0-44.471 30.596-71.274 74.421-71.297 22.075 0 41.634 7.255 54.874 19.56 15.766 15.766 19.56 37.217 16.4 58.346h-105.965c2.526 21.139 17.346 32.81 38.163 34.068 14.508 0 27.76-4.417 37.217-15.454l25.545 18.302c-7.254 8.2-15.454 14.509-24.6 18.926-11.66 5.985-24.91 8.51-39.731 8.51-43.837 0-76.324-25.545-76.324-70.961zm107.555-15.766c-.635-19.56-15.777-29.963-34.38-29.963-17.98.312-33.433 10.726-34.068 29.963zm117.914-55.831c20.496 0 42.57 4.74 60.894 14.175l-15.766 24.288c-10.08-5.674-32.477-12.617-44.148-12.617-4.417 0-8.2.323-11.037 1.58-3.472.323-5.997 1.892-7.254 4.105-1.269 1.892-2.214 4.417-1.58 6.62.311 2.526 1.568 4.74 4.406 6.632 7.888 4.094 17.98 7.565 26.491 10.091 5.363 1.58 10.726 2.837 16.4 5.04 13.24 4.417 27.749 11.349 34.056 24.911 4.73 9.146 5.04 19.56.312 29.34-9.468 20.494-35.948 28.06-57.088 28.06-24.276 0-49.822-6.931-69.382-21.763l16.4-24.288c8.511 5.363 18.603 9.78 28.07 13.563 7.878 2.525 16.713 4.428 24.912 4.74 6.309 0 11.349-.623 14.82-2.838 4.417-1.89 6.62-4.728 7.254-7.877 1.258-3.472.312-7.254-2.525-9.78-2.214-2.526-5.363-4.729-9.78-6.308-4.094-1.58-8.511-2.838-13.875-4.418-5.05-1.257-10.09-2.514-15.142-4.406-5.04-1.257-9.78-2.836-14.508-4.417-12.295-5.997-23.966-12.617-27.749-27.125-2.837-9.78-.634-18.925 5.04-26.491 11.983-15.143 32.177-20.817 50.78-20.817zm83.42-30.897c0-11.048 10.103-20.505 22.075-20.505 12.617 0 22.708 9.468 22.708 20.505 0 11.349-10.091 20.183-22.708 20.183-11.983 0-22.075-8.834-22.075-20.183zm41.634 34.68v134.681h-38.474v-134.681zm21.882 67.502c0-36.271 23.03-71.285 62.128-71.285 17.345 0 35.647 9.157 45.104 24.288v-20.505h38.475v118.604c0 46.674-26.18 71.274-72.542 71.274-21.129 0-41-4.729-58.657-13.251l11.037-24.911c12.617 5.362 29.963 10.402 45.105 10.402 22.074 0 36.582-9.146 36.582-33.11v-14.51c-10.725 15.132-26.49 23.966-45.104 23.966-39.42 0-62.128-34.69-62.128-70.962zm36.582 0c0 21.44 12.617 39.108 35.325 39.108 22.398 0 35.325-17.98 35.325-39.108 0-20.183-12.927-39.42-34.379-39.42-23.02 0-36.271 17.346-36.271 39.42zm138.221-67.513h38.473v29.34c13.251-17.991 35.96-33.123 58.98-33.123 19.548 0 39.42 12.929 39.42 41.634v96.83h-38.164v-82.31c0-11.672-4.417-21.451-17.345-21.451-7.254 0-15.777 3.782-23.654 8.834-7.566 5.674-14.508 12.616-19.237 18.29v76.648h-38.473zm220.855-3.772c20.495 0 42.57 4.74 60.894 14.175l-15.766 24.288c-10.08-5.674-32.477-12.617-44.148-12.617-4.417 0-8.2.323-11.037 1.58-3.472.323-5.997 1.892-7.254 4.105-1.269 1.892-2.214 4.417-1.58 6.62.311 2.526 1.568 4.74 4.406 6.632 7.888 4.094 17.98 7.565 26.491 10.091 5.362 1.58 10.726 2.837 16.4 5.04 13.24 4.417 27.748 11.349 34.056 24.911 4.73 9.146 5.04 19.56.312 29.34-9.468 20.494-35.949 28.06-57.088 28.06-24.277 0-49.823-6.931-69.382-21.763l16.4-24.288c8.51 5.363 18.603 9.78 28.07 13.563 7.878 2.525 16.712 4.428 24.912 4.74 6.308 0 11.348-.623 14.82-2.838 4.417-1.89 6.62-4.728 7.254-7.877 1.258-3.472.311-7.254-2.526-9.78-2.213-2.526-5.362-4.729-9.779-6.308-4.095-1.58-8.512-2.838-13.875-4.418-5.05-1.257-10.09-2.514-15.142-4.406-5.04-1.257-9.78-2.836-14.508-4.417-12.295-5.997-23.966-12.617-27.75-27.125-2.836-9.78-.633-18.925 5.04-26.491 11.984-15.143 32.178-20.817 50.78-20.817zm184.393 71.597c0-35.949 22.72-71.274 61.817-71.274 17.657 0 36.26 9.146 45.405 23.966v-20.507h38.162v135.316h-38.162v-20.506c-10.714 15.132-26.802 23.966-45.405 23.966-39.108 0-61.817-35.014-61.817-70.962zm36.593 0c0 21.45 12.607 39.108 35.315 39.108 22.397 0 35.325-17.98 35.325-39.108 0-20.183-12.605-39.42-34.368-39.42-23.02 0-36.272 17.346-36.272 39.42zm176.412-67.815v29.34c10.725-23.976 31.22-33.122 56.765-33.122v39.108c-3.46-.322-6.62-.634-9.77-.634-29.961 0-46.995 16.723-46.995 46.997v52.993h-38.474v-134.681zm74.713-40.053h38.786v40.054h42.58v29.963h-42.58v54.562c0 13.563 3.783 24.288 18.925 24.288 6.631 0 13.563-1.257 19.872-3.783l4.417 28.706c-8.512 3.148-24.278 5.04-35.003 5.04-32.8 0-46.996-17.346-46.996-49.2v-129.63z" fill="#3b66b0"/></svg>