<svg height="934" viewBox="0 0 478.424 178.709" width="2500" xmlns="http://www.w3.org/2000/svg"><g clip-rule="evenodd" fill-rule="evenodd"><path d="m216.958 167.049c0 .923-.288 1.638-.856 2.155-.575.516-1.255.773-2.044.773s-1.446-.25-1.977-.753c-.613-.53-.922-1.261-.922-2.176v-9.805c0-1.838-.65-3.395-1.941-4.679-1.292-1.291-2.854-1.933-4.7-1.933-1.845 0-3.409.642-4.699 1.926-1.292 1.283-1.941 2.84-1.941 4.67v9.828c0 .915-.288 1.63-.856 2.147a2.957 2.957 0 0 1 -2.043.773c-.791 0-1.446-.25-1.978-.753-.613-.53-.922-1.253-.922-2.168v-9.828c0-3.423 1.217-6.353 3.652-8.787 2.434-2.435 5.364-3.652 8.787-3.652s6.354 1.218 8.788 3.659c2.435 2.435 3.652 5.371 3.652 8.802zm42.203-9.695c0 .798-.288 1.483-.864 2.066-.574.575-1.247.863-2.013.863h-11.423c-.915 0-1.63-.296-2.147-.886a3.004 3.004 0 0 1 -.773-2.037c0-.766.25-1.415.753-1.946.53-.649 1.253-.975 2.168-.975h7.836c-.561-1.137-1.395-2.059-2.485-2.774a6.473 6.473 0 0 0 -3.602-1.076c-1.866 0-3.453.663-4.773 1.984-1.321 1.32-1.977 2.913-1.977 4.787 0 1.875.656 3.469 1.977 4.789 1.313 1.32 2.907 1.984 4.767 1.984h7.06c.915 0 1.66.311 2.222.931.472.56.709 1.225.709 1.992 0 .797-.237 1.46-.709 1.992-.562.619-1.299.929-2.214.929h-7.039c-3.482 0-6.447-1.232-8.897-3.688-2.449-2.457-3.674-5.431-3.674-8.929 0-3.467 1.225-6.426 3.674-8.883 2.45-2.456 5.415-3.688 8.897-3.688 3.453 0 6.405 1.225 8.854 3.682 2.449 2.456 3.673 5.415 3.673 8.883zm30.604-7.119h-3.852c-.886 0-1.571-.295-2.059-.886-.486-.59-.729-1.283-.729-2.081 0-.826.243-1.526.729-2.103.487-.576 1.173-.862 2.059-.862h3.852c.885 0 1.578.286 2.08.862.503.576.753 1.276.753 2.103 0 .798-.25 1.491-.753 2.081-.502.591-1.196.886-2.08.886zm.036 19.655h-1.688c-3.402 0-6.286-1.255-8.655-3.763-2.368-2.509-3.549-5.534-3.549-9.075v-19.611c0-.944.281-1.683.841-2.214.561-.53 1.225-.796 1.992-.796s1.432.266 1.992.796c.562.531.841 1.27.841 2.214v19.611c0 1.918.636 3.549 1.912 4.892 1.275 1.343 2.817 2.014 4.626 2.014h1.688c.887 0 1.594.311 2.132.93.443.531.665 1.211.665 2.037 0 .796-.222 1.476-.665 2.036-.531.62-1.245.929-2.132.929zm64.123-12.374c0 3.431-1.246 6.368-3.74 8.802-2.493 2.443-5.512 3.66-9.053 3.66-4.014 0-7.305-1.505-9.872-4.516-2.538 3.011-5.814 4.516-9.828 4.516-3.541 0-6.56-1.217-9.053-3.645-2.494-2.428-3.741-5.371-3.741-8.839v-9.82c0-.915.296-1.623.886-2.132a3.112 3.112 0 0 1 2.08-.753c.827 0 1.534.251 2.125.753.59.509.886 1.217.886 2.14v9.828c0 1.836.664 3.4 1.992 4.691 1.328 1.292 2.937 1.933 4.825 1.933s3.505-.641 4.849-1.933c1.342-1.291 2.013-2.855 2.013-4.691v-9.828c0-.923.296-1.631.887-2.14.59-.502 1.297-.753 2.124-.753.797 0 1.49.251 2.08.753.591.509.887 1.217.887 2.14v9.828c0 1.836.671 3.4 2.013 4.691 1.344 1.292 2.96 1.933 4.849 1.933s3.497-.641 4.825-1.933c1.328-1.283 1.992-2.849 1.992-4.678v-9.806c0-.915.295-1.638.885-2.154s1.299-.774 2.126-.774c.796 0 1.489.259 2.08.774.59.517.885 1.231.885 2.154v9.799zm42.07-.155c0 3.498-1.225 6.472-3.674 8.929-2.45 2.456-5.417 3.688-8.899 3.688s-6.447-1.232-8.897-3.688c-2.449-2.457-3.674-5.431-3.674-8.929 0-3.467 1.225-6.426 3.674-8.883 2.45-2.456 5.415-3.688 8.897-3.688s6.449 1.232 8.899 3.688c2.45 2.457 3.674 5.416 3.674 8.883zm-5.799 0c0-1.874-.664-3.467-1.985-4.787-1.32-1.321-2.914-1.984-4.789-1.984-1.873 0-3.467.663-4.787 1.984-1.321 1.32-1.984 2.913-1.984 4.787 0 1.875.663 3.469 1.984 4.789 1.32 1.32 2.914 1.984 4.787 1.984 1.875 0 3.469-.664 4.789-1.984 1.321-1.32 1.985-2.914 1.985-4.789zm46.365-6.286c.295.502.442 1.005.442 1.506 0 .798-.303 1.476-.908 2.036-.604.562-1.306.842-2.102.842-1.063 0-1.874-.487-2.436-1.461-1.328-2.243-3.276-3.364-5.844-3.364-1.889 0-3.489.655-4.804 1.977-1.313 1.313-1.97 2.915-1.97 4.811v9.629c0 .915-.286 1.638-.863 2.155a2.92 2.92 0 0 1 -2.014.773c-.796 0-1.483-.258-2.059-.773-.575-.518-.863-1.232-.863-2.155v-9.621c0-3.49 1.225-6.47 3.675-8.935 2.449-2.472 5.416-3.704 8.897-3.704 2.273 0 4.368.567 6.286 1.704s3.441 2.662 4.563 4.58zm41.138 15.923c0 .923-.287 1.646-.863 2.177a2.853 2.853 0 0 1 -2.014.804c-.797 0-1.461-.25-1.992-.76-.62-.567-.93-1.32-.93-2.243 0-1.889-.642-3.505-1.926-4.848-1.283-1.35-2.841-2.021-4.67-2.021h-6.641v6.891c0 .923-.288 1.646-.863 2.184a2.876 2.876 0 0 1 -2.014.797c-.768 0-1.447-.266-2.037-.797-.591-.53-.886-1.254-.886-2.169v-29.526c0-.945.311-1.698.931-2.259.56-.472 1.225-.708 1.992-.708s1.431.236 1.991.708c.59.561.886 1.313.886 2.259v16.688h6.641c1.801 0 3.35-.687 4.648-2.059 1.298-1.371 1.947-3.003 1.947-4.892 0-.944.288-1.676.863-2.191s1.262-.773 2.059-.773c.767 0 1.438.258 2.014.781.576.516.863 1.247.863 2.198 0 4.065-1.475 7.386-4.426 9.968 2.953 2.553 4.427 5.814 4.427 9.791z" fill="#6d6e71"/><path d="m210.018 18.708c0 3.325-.925 5.889-2.802 7.693-1.851 1.805-4.036 2.708-6.529 2.708-2.494 0-4.679-.903-6.531-2.708-1.875-1.804-2.802-4.368-2.802-7.693 0-3.133.926-5.579 2.802-7.336 1.852-1.758 4.037-2.636 6.531-2.636 2.493 0 4.678.878 6.529 2.636 1.876 1.757 2.802 4.203 2.802 7.336zm0 94.884c0 3.134-.925 5.579-2.802 7.336-1.851 1.758-4.036 2.637-6.529 2.637-2.494 0-4.679-.879-6.531-2.637-1.875-1.757-2.802-4.202-2.802-7.336v-63.113c0-3.04.95-5.508 2.873-7.408 1.829-1.614 3.966-2.422 6.459-2.422s4.654.808 6.458 2.422c1.923 1.899 2.872 4.368 2.872 7.408v63.113zm73.797-37.897h-28.921c-3.039 0-5.365-.949-6.979-2.85-1.615-1.899-2.423-4.13-2.423-6.695s.808-4.796 2.423-6.695c1.614-1.9 3.94-2.849 6.979-2.849h28.921c2.944 0 5.248.949 6.909 2.849 1.663 1.899 2.493 4.13 2.493 6.695s-.83 4.796-2.493 6.695c-1.661 1.901-3.964 2.85-6.909 2.85zm11.255 47.584h-33.195c-11.207 0-20.775-4.036-28.707-12.134-7.93-8.072-11.896-17.832-11.896-29.229v-31.389c0-11.397 3.966-21.156 11.896-29.23 7.932-8.097 17.5-12.134 28.707-12.134h33.195c2.944 0 5.224.95 6.838 2.85 1.614 1.899 2.423 4.132 2.423 6.695 0 2.565-.809 4.796-2.423 6.697-1.614 1.899-3.918 2.85-6.861 2.85h-33.266c-5.984 0-11.137 2.161-15.411 6.505-4.298 4.322-6.435 9.57-6.435 15.768v31.389c0 6.198 2.137 11.445 6.435 15.767 4.274 4.346 9.427 6.505 15.411 6.505h33.266c2.943 0 5.247.95 6.861 2.85s2.423 4.132 2.423 6.696c0 2.563-.809 4.797-2.423 6.696-1.614 1.9-3.893 2.848-6.838 2.848z" fill="#8dc63f"/><path d="m381.405 82.059c0 11.397-3.941 21.132-11.825 29.158-7.884 8.049-17.381 12.062-28.493 12.062-11.207 0-20.752-4.013-28.636-12.062-7.884-8.026-11.825-17.761-11.825-29.182s3.941-21.18 11.825-29.253c7.884-8.096 17.429-12.133 28.636-12.133h5.414c2.943 0 5.318.998 7.123 2.992 1.52 1.805 2.279 3.989 2.279 6.554 0 2.66-.76 4.843-2.279 6.554-1.828 1.995-4.203 2.991-7.147 2.991h-5.438c-6.007 0-11.136 2.161-15.386 6.506-4.25 4.322-6.364 9.594-6.364 15.791 0 6.103 2.114 11.326 6.364 15.648 4.227 4.346 9.354 6.505 15.361 6.505 6.009 0 11.137-2.159 15.363-6.481 4.25-4.346 6.363-9.546 6.363-15.623v-63.354c0-3.063.926-5.413 2.779-7.075 1.851-1.663 4.06-2.494 6.625-2.494 2.469 0 4.63.831 6.48 2.494 1.854 1.662 2.779 4.012 2.779 7.051v63.351zm29.347-63.351c0 3.325-.925 5.889-2.802 7.693-1.852 1.805-4.036 2.708-6.529 2.708s-4.678-.903-6.53-2.708c-1.876-1.804-2.802-4.368-2.802-7.693 0-3.133.926-5.579 2.802-7.336 1.853-1.758 4.037-2.636 6.53-2.636s4.678.878 6.529 2.636c1.877 1.757 2.802 4.203 2.802 7.336zm0 94.884c0 3.134-.925 5.579-2.802 7.336-1.852 1.758-4.036 2.637-6.529 2.637s-4.678-.879-6.53-2.637c-1.876-1.757-2.802-4.202-2.802-7.336v-63.113c0-3.04.95-5.508 2.873-7.408 1.829-1.614 3.966-2.422 6.459-2.422s4.654.808 6.459 2.422c1.923 1.899 2.872 4.368 2.872 7.408zm58.555-53.853h-12.396c-2.85 0-5.057-.95-6.625-2.849-1.566-1.899-2.35-4.131-2.35-6.696 0-2.659.783-4.916 2.35-6.767 1.568-1.853 3.775-2.779 6.625-2.779h12.396c2.849 0 5.081.926 6.695 2.779 1.614 1.851 2.422 4.108 2.422 6.767 0 2.564-.808 4.797-2.422 6.696s-3.847 2.849-6.695 2.849zm.118 63.256h-5.438c-10.945 0-20.229-4.037-27.851-12.109-7.622-8.074-11.422-17.809-11.422-29.206v-63.114c0-3.04.902-5.413 2.707-7.123 1.805-1.709 3.942-2.563 6.411-2.563 2.47 0 4.606.854 6.411 2.563 1.805 1.71 2.707 4.083 2.707 7.123v63.113c0 6.173 2.041 11.421 6.149 15.742 4.107 4.321 9.07 6.482 14.887 6.482h5.438c2.85 0 5.128.997 6.861 2.991 1.425 1.711 2.138 3.895 2.138 6.554 0 2.564-.713 4.75-2.138 6.555-1.708 1.994-4.011 2.992-6.86 2.992zm-380.07 55.714c49.215 0 89.355-40.14 89.355-89.354 0-49.215-40.14-89.355-89.355-89.355s-89.355 40.14-89.355 89.355 40.14 89.354 89.355 89.354z" fill="#8dc63f"/><path d="m177.243 105.546c-5.176 28.288-23.673 51.918-48.75 64.156l-65.514-25.127 1.355.518 1.369.484 1.386.452 1.398.418 1.413.384 1.428.35 1.439.315 1.451.28 1.465.243 1.475.208 1.487.172 1.498.134 1.508.096 1.517.06 1.526.019h31.687l-87.167-43.837-1.077-.551-1.031-.621 89.408 45.009h2.57l-50.447-25.882-1.6-.823-1.556-.898-1.508-.969-1.457-1.04-1.406-1.106-1.35-1.17-1.292-1.233-.765-.788-.742-.811-.719-.832-.695-.853-.291-.379-23.132-12.34 2.084.646 2.236.226 2.236-.226 2.084-.646 1.885-1.023 1.644-1.355 1.355-1.644 1.023-1.886.647-2.084.225-2.236-.157-1.561-20.28-12.781 1.031-.622 1.076-.55 1.119-.475 1.158-.396 1.193-.313 1.226-.229 1.256-.138 1.28-.048 1.896.104 1.836.305 1.766.493 1.683.673 1.588.841 1.485.997 2.784 1.912.188-.554.392-1.046.42-1.03.451-1.017.479-1 .508-.984.538-.967.564-.949.591-.931.618-.913.644-.893.669-.873.695-.854.719-.832.742-.81.765-.788 1.292-1.233 1.35-1.17 1.406-1.106 1.457-1.04 1.508-.969 1.556-.898 1.6-.823 1.644-.747 1.685-.669 1.723-.586 1.758-.503 1.792-.417 1.823-.328 1.852-.238 1.879-.144 1.901-.049h35.37l2.237-.225 2.084-.647 1.885-1.023 1.644-1.355 1.355-1.644 1.023-1.885.647-2.084.225-2.237-.225-2.236-.647-2.084-1.023-1.885z" fill="#4c7520"/><path d="m120.064 126.507c6.131 0 11.101 4.97 11.101 11.101 0 6.13-4.97 11.1-11.101 11.1h-35.37c-16.329 0-31.172-6.674-41.924-17.426-7.499-7.498-13.013-16.987-15.664-27.583a17.035 17.035 0 0 0 9.338 2.771c5.128 0 9.731-2.257 12.867-5.831a37.346 37.346 0 0 0 9.155 14.946c6.738 6.738 16.025 10.922 26.228 10.922zm-92.958-51.493c2.651-10.595 8.166-20.084 15.664-27.583 10.752-10.751 25.593-17.425 41.924-17.425h35.37c6.131 0 11.101 4.97 11.101 11.1 0 6.131-4.97 11.101-11.101 11.101h-35.37c-10.204 0-19.489 4.183-26.228 10.922a37.36 37.36 0 0 0 -9.155 14.946c-3.138-3.574-7.737-5.832-12.867-5.832a17.032 17.032 0 0 0 -9.338 2.771zm48.708 25.443c-6.13 0-11.1-4.97-11.1-11.101 0-6.13 4.97-11.1 11.1-11.1h35.37c6.13 0 11.1 4.97 11.1 11.1 0 6.131-4.97 11.101-11.1 11.101zm-39.369-.001c6.114 0 11.1-4.986 11.1-11.101 0-6.114-4.986-11.1-11.1-11.1s-11.101 4.986-11.101 11.1 4.987 11.101 11.101 11.101z" fill="#fff"/></g></svg>