<svg fill="none" height="2500" viewBox="0 .664 3830.31 3830.316" width="2500" xmlns="http://www.w3.org/2000/svg"><path clip-rule="evenodd" d="m1749.11 166.696c0-91.697 74.34-166.032 166.04-166.032 91.69 0 166.03 74.335 166.03 166.032v551.825c0 6.374-.36 12.665-1.06 18.849-2.24 38.975-18.44 73.54-48.59 103.697-32.58 32.577-70.31 48.865-113.17 48.865-44.58 0-83.16-16.288-115.74-48.865-2.16-2.165-4.25-4.35-6.27-6.558-29.23-29.927-47.24-70.854-47.24-115.988zm166.68 2562.224c-145.75 0-279.49-36.43-401.24-109.3-121.74-72.87-219.05-170.61-291.92-293.22-72.88-122.59-109.31-256.76-109.31-402.51s36.43-279.93 109.31-402.53c72.87-122.6 170.18-220.33 291.92-293.21 121.75-72.87 255.49-109.31 401.24-109.31 147.47 0 281.65 36.44 402.53 109.31 120.88 72.88 218.18 170.61 291.93 293.21 73.73 122.6 110.59 256.78 110.59 402.53s-36.86 279.92-110.59 402.51c-73.75 122.61-171.05 220.35-291.93 293.22s-255.06 109.3-402.53 109.3zm1188.3-1993.309c30.85 32.578 46.26 71.587 46.26 117.028 0 45.438-15.41 83.591-46.26 114.455l-228.94 228.906c-30.87 30.87-69.02 46.73-114.46 47.59-45.42.86-83.57-15.01-114.44-47.59-30.86-30.86-46.73-68.15-47.59-111.88-.86-43.72 15-82.73 47.59-117.026l226.35-231.483c30.84-30.864 68.99-46.298 114.45-46.298 45.42 0 84.44 15.434 117.04 46.298zm-156.49 1200.179c2.79 37.97 18.92 71.73 48.45 101.27 32.57 32.57 71.16 48.86 115.75 48.86h316.35c13.02 0 25.5-1.36 37.43-4.07h198.7c91.71 0 166.03-74.33 166.03-166.03s-74.32-166.03-166.03-166.03h-551.82c-91.69 0-166.04 74.33-166.04 166.03 0 6.76.4 13.42 1.18 19.97zm156.49 1173.82c-32.6 30.85-71.62 46.26-117.04 46.26-45.46 0-83.61-15.41-114.45-46.26l-226.35-228.94c-32.59-30.86-48.88-68.58-48.88-113.16 0-44.59 16.29-83.16 48.88-115.73 30.87-30.87 69.02-46.3 114.44-46.3 45.44 0 82.74 15.43 111.91 46.3l231.49 228.89c30.85 29.15 46.69 66.44 47.56 111.9.86 45.42-15.01 84.44-47.56 117.04zm-2374.006-2.58c-30.864-30.88-46.295-68.6-46.295-113.17 0-44.59 15.431-82.31 46.295-113.19l228.91-228.89c29.151-30.87 66.876-46.3 113.166-46.3 46.3 0 84.88 15.43 115.75 46.3 32.57 34.29 48.44 73.73 47.58 118.31s-16.72 82.3-47.58 113.17l-226.343 226.35c-32.577 30.85-71.158 46.26-115.74 46.26-44.581 0-83.162-16.27-115.743-48.84zm-360.23-1025.18c12.288 2.71 25.198 4.07 38.728 4.07h313.788c44.582 0 83.16-16.29 115.74-48.86 32.581-32.59 48.871-70.31 48.871-113.17 0-18.96-3.188-36.99-9.559-54.11-19.959-69.3-83.841-119.99-159.566-119.99h-551.825c-91.696 0-166.031 74.33-166.031 166.03s74.335 166.03 166.031 166.03zm362.803-1346.239c32.581-29.148 71.159-43.725 115.741-43.725 44.584 0 82.305 14.577 113.169 43.725l226.343 231.483c30.86 30.864 46.29 69.016 46.29 114.456s-15.43 83.59-46.29 114.45c-30.87 30.87-69.02 46.73-114.46 47.59s-83.589-15.01-114.456-47.59l-228.91-228.906c-30.864-30.864-45.866-69.017-45.007-114.455.857-45.441 16.716-84.45 47.58-117.028zm1016.453 2377.509c0-91.69 74.34-166.04 166.04-166.04 91.69 0 166.03 74.35 166.03 166.04v551.82c0 91.72-74.34 166.04-166.03 166.04-91.7 0-166.04-74.32-166.04-166.04z" fill="#000" fill-rule="evenodd"/></svg>