<svg height="2500" width="2500" xmlns="http://www.w3.org/2000/svg" viewBox="0 0 816 816"><path d="M0 816h816V0H0z" fill="#fc4a1a"/><g fill="#fff"><path d="M654.265 388.576h22.172V311.58h-22.172zM158.886 495.069l34.947-7.407-90.547-226.917-26.36 12.824z"/><g transform="matrix(1.33333 0 0 -1.33333 0 816)"><path d="M426.67 172.577c-1.57 15.851 11.642 29.062 27.492 27.492 11.73-1.16 21.217-10.648 22.378-22.378 1.57-15.85-11.64-29.062-27.492-27.492-11.729 1.162-21.216 10.65-22.378 22.378m-26.228 2.557c0-28.256 22.907-51.163 51.163-51.163 28.257 0 51.163 22.907 51.163 51.163 0 28.257-22.906 51.163-51.163 51.163-28.256 0-51.163-22.906-51.163-51.163M242.38 175.135c0 13.84 11.221 25.062 25.062 25.062s25.062-11.221 25.062-25.062-11.22-25.062-25.062-25.062-25.062 11.22-25.062 25.062m-26.1 0c0-28.257 22.905-51.163 51.162-51.163s51.163 22.906 51.163 51.163-22.906 51.163-51.163 51.163-51.163-22.906-51.163-51.163M114.96 175.135c0 13.84 11.222 25.062 25.063 25.062s25.062-11.221 25.062-25.062-11.221-25.062-25.062-25.062-25.062 11.22-25.062 25.062m-26.101 0c0-28.257 22.906-51.163 51.163-51.163s51.163 22.906 51.163 51.163-22.907 51.163-51.164 51.163-51.163-22.906-51.163-51.163"/><path d="M527.877 253.94v-69.69h-17.35c-4.387 30.144-29.096 53.23-58.921 53.23-29.107 0-53.341-21.988-58.57-51.065-.224-1.247-1.232-2.165-2.436-2.165h-62.151c-1.204 0-2.212.918-2.436 2.165-5.23 29.077-29.463 51.065-58.57 51.065-29.61 0-54.177-22.754-58.824-52.579-.058-.375-.362-.65-.723-.65h-8.326c-.361 0-.665.275-.723.65-4.647 29.825-29.214 52.58-58.824 52.58-29.345 0-53.737-22.35-58.694-51.78-.141-.836-.817-1.45-1.622-1.45H58.979c-4.076 0-7.381 3.482-7.381 7.778v54.13c0 4.297 3.305 7.78 7.38 7.78zM260.001 315.761c14.23 20.989 25.28 46.608 32.845 76.146 8.331 32.525 10.575 62.264 11.108 79.584 21.035-8.196 43.608-19.376 62.803-33.619a39.484 39.484 0 0 0 15.615-26.52c4.38-33.064 7.798-108.884-44.925-144.571a39.43 39.43 0 0 0-16.713-6.411c-15.133-2.088-48.8-4.774-86.767 4.822-5.164 1.305-11.352 3.497-18.295 6.374 17.07 11.102 31.92 25.889 44.33 44.195"/><path d="M31.32 404.592c2.498 19.58 8.104 47.16 20.678 70.611 7.066 13.178 21.065 21.138 36.01 20.687 44.58-1.346 145.656-4.912 169.77-10.173 9.53-2.079 21.289-5.326 34.039-9.752-.31-15.836-2.133-47.325-10.874-81.314-14.52-56.463-41.01-95.74-78.841-117.057-47.877 22.48-118.652 66.727-152.85 88.633a39.602 39.602 0 0 0-17.933 38.365M444.1 374.8c0 1.41 1.297 2.551 2.897 2.551H519.7c.98 0 1.835-.58 2.085-1.414l14.314-47.792c.361-1.204-.67-2.382-2.084-2.382h-87.017c-1.6 0-2.897 1.142-2.897 2.551zm-30.072 14.87V251.128c0-.188.201-.32.405-.269a87.253 87.253 0 0 0 21.364 2.647c40.407 0 73.567-27.255 77.105-62.023l-2.375-7.233c.884-10.595 1.112-10.342.933-15.209-.003-.085-.003-.085 0 0 .057-1.412 1.21-2.705 2.78-2.29l61.216 16.164c5.071 1.34 8.544 5.448 8.544 10.11v103.684c0 9.46-5.69 17.743-14.22 22.353-4.94 2.67-8.886 6.547-10.955 11.313l-28.134 64.814c-2.598 5.986-9.122 9.94-16.4 9.94h-82.706c-9.697 0-17.557-6.92-17.557-15.459"/><path d="M329.98 255.747a39.43 39.43 0 0 1 16.713 6.41 92.114 92.114 0 0 1 12.583 10.27h128.1v-31.728H281.872v13.687c21.137-1.551 38.422.025 48.107 1.36"/><path d="M393.299 356.943h.214c7.128 0 12.906-5.778 12.906-12.906v-77.013h-53.242c28.238 22.955 37.879 58.54 40.122 89.919"/></g></g></svg>