<svg height="903" viewBox="17.521 115.216 978.044 462.005" width="2500" xmlns="http://www.w3.org/2000/svg"><path d="m694.133 508.144c7.532-5.37 10.05-12.807 12.157-21.208 7.052-28.119 21.762-52.455 39.32-75.187 14.622-18.932 31.57-35.588 49.53-51.353 10.965-9.626 24.006-13.233 37.726-15.657 8.438-1.491 16.865-1.583 25.28.39 17.937 4.203 27.562 18.772 24.685 36.99-2.992 18.955-12.407 34.729-24.43 49.028-23.304 27.716-51.638 48.464-86.179 60.145-4.13 1.396-6.515 3.682-6.787 8.043-.823 13.198 6.102 26.006 21.938 26.565 16.146.57 30.384-5.395 44.024-12.931 35.125-19.406 63.559-46.507 88.381-77.702 5.29-6.647 9.358-14.215 15.393-20.276 4.77-4.791 8.745-5.416 13.264-2.251 4.272 2.991 5.673 8.404 3.038 13.8-7.645 15.658-17.583 29.785-29.12 42.821-29.49 33.323-63.44 60.855-104.032 79.61-20.275 9.368-41.335 16.062-64.05 15.299-19.463-.654-35.832-7.248-45.783-25.236-1.946-3.518-3.713-2.734-6.156-.526-13.357 12.07-29.2 18.959-46.786 22.137-3.476.628-6.98.705-10.46.38-6.539-.608-11.688-3.427-14.828-9.53-3.37-6.55-6.108-13.297-7.752-20.498-.424-1.854-.448-4-2.111-5.378-2.675.11-3.256 2.193-4.187 3.898-9.78 17.892-24.687 28.608-44.941 31.196-11.533 1.473-26.208-2.902-31.268-18.448-1.699-5.222-2.73-5.486-7.163-2.062-10.617 8.199-21.962 15.078-34.72 19.453-3.798 1.302-7.687 2.261-11.681 2.551-17.127 1.244-28.226-9.423-30.803-28.951-2.421-18.35.474-36.195 4.55-53.933 1.973-8.587 4.56-17.033 6.836-25.551.416-1.555.681-3.15 1.039-4.836-5.083-.362-6.808 2.328-7.858 6.317-6.842 26.022-18.829 49.465-36.236 69.97-14.875 17.523-31.842 32.36-54.855 38.244-26.764 6.843-48.99-7.157-55.463-34.106-4.909-20.442-2.736-40.43 2.997-60.142 10.172-34.975 28.61-64.743 57.306-87.675 8.658-6.92 18.23-12.397 28.865-15.607 29.288-8.84 52.098 4.347 59.446 34.247.989 4.021 1.458 8.178 2.011 12.293.265 1.964.435 3.893 1.917 6.408 8.52-8.324 18.978-13.903 23.733-25.363 3.763-9.07 8.282-17.825 12.41-26.745 1.033-2.236 2.418-3.872 4.986-2.576 14.778 7.457 30.156 4.849 45.511 2.897.612-.078 1.252.07 1.69.101 1.558 1.888.111 2.97-.63 4.174-17.563 28.585-30.451 59.203-39.405 91.476-3.65 13.154-6.783 26.47-6.388 40.291.334 11.711 4.36 14.408 15.221 9.699 9.006-3.906 15.044-10.642 17.559-20.388 10.652-41.295 25.901-80.808 45.914-118.491 2.14-4.031 5-6.008 9.411-6.073 3.498-.052 7-.275 10.491-.173 10.68.313 21.304-.128 31.873-1.773 1.422-.22 2.909-.03 4.25-.03 1.148 2.634-.406 4.184-1.364 5.832-24.566 42.285-42.478 87.392-56.814 134.01-.778 2.528-1.172 5.187-1.595 7.81-.718 4.444 1.387 6.312 5.633 4.856 3.163-1.084 5.942-2.976 8.679-4.898 7.59-5.332 13.29-12.57 19.477-19.306 2.257-2.457 2.52-5.831 2.74-8.928 2.562-36.093 12.732-70.313 25.721-103.787 15.007-38.675 34.538-75.014 57.599-109.475 1.188-1.776 2.24-3.643 3.456-5.635-17.078 1.542-33.263-1.363-49.23-6.113-23.703-7.052-46.754-15.67-67.983-28.564-10.407-6.32-19.052-15.057-29.457-21.476-46.225-28.516-95.824-47.916-149.707-55.66-20.67-2.972-41.471-3.515-62.204-.17-8.808 1.42-16.83 5.28-24.882 8.85-19.858 8.802-38.82 19.017-55.268 33.595-38.86 34.441-66.112 77.252-89.286 122.997-18.721 36.956-33.893 75.309-43.462 115.711-4.732 19.98-8.039 40.172-6.59 60.84.338 4.812.982 9.57 2.73 14.159 9.103 23.878 28.778 32.655 52.672 23.29 19.783-7.756 34.56-21.697 46.713-38.646 15.98-22.285 25.788-46.952 27.048-74.542.458-10.015-.947-19.993-5.03-29.314-7.828-17.866-22.517-25.688-42.065-22.594-6.633 1.05-13.3.61-19.95.41-2.492-.076-4.941-.95-7.017-2.412-3.762-2.651-6.438-6.167-5.462-10.953.888-4.358 5.036-4.812 8.592-5.67 40.321-9.732 73.13-30.53 96.174-65.557 4.256-6.468 6.71-13.786 7.84-21.437 1.616-10.935-4.16-20.928-14.672-25.948-7.249-3.462-14.938-4.493-22.871-4.194-2.187.082-4.518.343-5.836-1.872-1.398-2.349-.295-4.596 1.058-6.517 2.107-2.99 4.29-5.957 6.727-8.678 9.593-10.71 20.046-20.463 32.295-28.136 1.4-.877 2.74-2.043 4.533-1.88 14.557 1.318 28.867 3.62 40.826 12.945 18.06 14.086 24.294 33.346 21.014 55.1-5.835 38.697-29.36 64.142-63.755 80.68-2.248 1.08-6.16.908-6.17 4.09-.008 3 3.77 3.303 6 4.551 20.462 11.46 30.11 29.553 31.566 52.316 1.836 28.716-7.457 54.578-22.177 78.566-26.754 43.6-63.59 75.442-112.034 92.888-19.7 7.095-40.151 10.176-60.868 5.126-8.498-2.072-16.666-5.763-24.722-9.311-9.957-4.386-19.995-8.194-30.857-9.655-3.263-.438-6.496-1.498-9.595-2.666-7.107-2.677-8.92-5.756-8.365-13.2 3.733-50.143 13.119-99.207 28.143-147.186 15.675-50.057 37.284-97.292 67.094-140.613 1.188-1.727 2.853-3.279 2.905-5.698-2.349-1.119-4.289.29-6.213.975-14.5 5.16-27.05 13.63-38.612 23.558-27.977 24.023-50.277 52.28-63.859 86.908-3.25 8.286-5.022 16.888-5.553 25.768-.275 4.612-1.56 8.898-5.097 12.114-3.343 3.039-6.204 2.84-8.885-.742-2.929-3.913-5.02-8.162-4.808-13.331.881-21.372 5.778-41.876 13.98-61.51 17.477-41.844 44.3-76.553 80.966-103.36 18.893-13.814 39.549-24.053 62.917-27.9 4.91-.808 9.911-1.136 14.885-1.44 3.376-.207 6.596.613 9.55 3.088 9.892-8.922 19.993-17.556 30.768-25.366 31.258-22.657 65.567-38.022 103.976-43.6 26.073-3.788 51.65-1.127 77.256 4.675 45.646 10.342 89.338 26.475 132.804 43.341 18.465 7.165 36.49 15.396 55.918 19.946 38.931 9.117 78.15 16.515 117.951 20.537 7.1.717 14.314.285 21.472.486 1.775.05 3.918-.083 4.737 2.013.82 2.097-.958 3.374-2.094 4.729-9.489 11.32-19.36 22.362-25.397 36.22 3.022-3.814 6.067-7.612 9.063-11.447 25.676-32.865 54.023-62.982 88.99-86.249 9.17-6.1 18.807-11.367 28.992-15.633 8.78-3.677 16.666-2.202 23.72 3.862 8.93 7.677 13.264 17.934 14.711 29.259 1.452 11.364.731 22.627-5.052 33.034-1.656 2.98-3.845 4.772-7.228 5.522-5.73 1.27-11.533 1.69-17.347 1.906-5.29.197-6.614-1.62-4.865-6.741 2.533-7.418 4.901-14.856 5.82-22.676.156-1.319.39-2.651.338-3.967-.315-7.917-3.848-10.241-11.052-6.857-11.545 5.424-20.561 14.228-28.934 23.486-41.932 46.366-75.268 98.305-99.913 155.78-3.483 8.123-6.195 16.524-7.9 25.218-.436 2.225-1.262 4.528.448 6.7 2.737.32 4.342-1.613 6.006-3.08 31.811-28.058 61.08-58.56 87.699-91.588 3.096-3.842 5.926-7.933 7.605-12.23-7.395 0-14.671-.044-21.946.013-5.839.045-11.642-.351-17.446-.944-6.042-.618-7.261-3.095-3.572-8.151 5.988-8.209 12.019-16.395 18.3-24.379 5.37-6.825 10.52-13.786 14.757-21.357 1.624-2.903 3.652-3.822 6.85-3.74 36.862.954 72.71-4.89 107.416-17.145 21.79-7.695 42.498-17.518 58.995-34.527 3.762-3.878 8.628-6.242 14.52-4.743 6.759 1.72 9.168 7.678 5.047 13.339-7.678 10.547-16.574 20.029-26.296 28.697-36.265 32.336-78.171 54.016-125.187 65.99-2.072.527-4.085 1.29-6.452 2.047 5.516 2.079 6.5 4.246 3.92 9.64-5.01 10.47-12.446 19.316-19.882 28.066-34.284 40.344-72.127 77.125-112.429 111.4-5.958 5.068-12.294 9.692-18.475 14.496-1.322 1.028-2.66 1.985-3.295 3.645-7.572 19.784-14.908 39.63-15.39 61.191-.093 4.162-.128 8.348 1.402 12.335 2.12 5.53 5.829 7.244 11.438 5.431 5.054-1.633 9.005-4.982 13.335-8.41m-332.252-9.727c-1.026 3.918-1.17 7.913-.569 11.876.747 4.93 4.138 7.018 8.985 5.88 4.457-1.046 8.357-3.266 12.059-5.82 18.371-12.672 32.166-29.671 44.943-47.636 1.996-2.806 1.417-4.425-1.764-5.576-6.825-2.47-12.581-6.746-18.157-11.238-4.23-3.408-8.28-7.038-12.53-10.672-4.23 3.418-6.578 7.855-9.213 12.022-9.972 15.777-19.22 31.907-23.754 51.164m446.273-98.79c-12.577 15.919-23.339 32.837-30.105 52.489 4.845 1.531 7.977-.411 10.913-1.987 25.583-13.723 46.433-32.588 61.776-57.373 3.145-5.08 3.652-10.636 3.107-16.35-.577-6.05-4.187-8.486-10.065-6.766-4.182 1.224-7.928 3.45-11.423 6.033-9.026 6.67-16.66 14.765-24.203 23.954m-376.847 33.256c10.375-7.792 12.553-25.326 4.395-35.388-4.485-5.532-10.488-5.904-15.542-.963-7.888 7.71-8.837 24.847-1.71 33.242 3.223 3.798 7.051 6.201 12.857 3.11z"/></svg>