<svg height="-782" viewBox="21.3 274.4 600 93.3" width="2500" xmlns="http://www.w3.org/2000/svg"><path d="m21.3 274.4h24.5v92h-24.5zm190.5 92h-53.5v-92h53.5v19.9h-29.2v14.5h27v20h-27v17.3h29.2zm26.7-34.9-20.4-33.5h26.2l10.2 19.2 10.4-19.2h26.3l-21 33.5 21.9 34.9h-26.3l-11.3-20.8-11.2 20.8h-26.4zm93.9 17.5c3.1 0 6.8-.8 11.2-2.4v17.2c-3.1 1.4-6.1 2.3-8.9 2.9s-6.1.9-9.9.9c-7.8 0-13.4-1.9-16.8-5.8s-5.1-9.8-5.1-17.9v-28.2h-8.1v-17.7h8.4v-17.5l23-4v21.5h14.7v17.7h-14.7v26.6c-.1 4.5 2 6.7 6.2 6.7m245.5-16.9c0 5.9.8 10.4 2.3 13.4 1.5 3.1 4.1 4.6 7.7 4.6s6.1-1.5 7.6-4.6 2.2-7.6 2.2-13.4-.7-10.2-2.2-13.2-4.1-4.5-7.7-4.5-6.1 1.5-7.6 4.4c-1.6 3-2.3 7.4-2.3 13.3m43.4 0c0 11.2-2.9 19.9-8.8 26.2s-14.1 9.4-24.7 9.4c-10.2 0-18.3-3.2-24.3-9.6s-9-15-9-25.9c0-11.1 2.9-19.8 8.8-26s14.2-9.3 24.8-9.3c6.6 0 12.4 1.4 17.4 4.3s8.9 6.9 11.7 12.3c2.7 5.2 4.1 11.4 4.1 18.6m-248.8-8.4c.3-3.7 1.4-6.5 3.2-8.2 1.8-1.8 4.1-2.6 6.8-2.6 3 0 5.3 1 7.1 3 1.7 2 2.7 4.6 2.7 7.9zm32.6-18.8c-5.5-5.4-13.3-8.1-23.4-8.1-10.6 0-18.8 3.1-24.5 9.3s-8.6 15-8.6 26.6c0 11.2 3.1 19.8 9.3 25.9s14.8 9.1 26 9.1c5.4 0 10-.4 13.8-1.1 3.9-.7 7.6-2 11.2-3.9v-.7l-3.5-14.8c-2.7 1.1-5.2 1.9-7.6 2.5-3.4.8-7.1 1.2-11.2 1.2-4.5 0-8-1.1-10.6-3.3s-4-5.2-4.1-9h41.4v-10.5c.1-10.1-2.7-17.9-8.2-23.2m141.9 31.2c-1.1-2.6-2.8-4.8-5.1-6.7s-5.8-3.8-10.5-5.8c-6.3-2.5-10.1-4.2-11.4-5s-2-1.8-2-3c0-1.9 1.9-2.8 5.7-2.8 2.2 0 5 .5 8.4 1.5s6.7 2.2 9.8 3.6l3.9-16.2c-3.3-1.4-6.6-2.5-9.7-3.3-3.9-1-8-1.5-12.4-1.5-8.8 0-15.6 1.8-20.4 5.3s-7.2 8.5-7.2 14.8c0 5 1.2 9.2 3.7 12.5 2.4 3.3 6.7 6.2 12.9 8.8 6.7 2.7 10.8 4.6 12.2 5.5s2.1 2 2.1 3.2c0 2.3-2.5 3.5-7.5 3.5-3.3 0-7.2-.5-11.4-1.6-2.7-.7-5.2-1.4-7.7-2.3l-4.1 17.2c3.8 1.4 7.6 2.4 11.2 3 3.7.5 8 .8 13 .8 9.1 0 16.2-1.9 21.1-5.6s7.3-9.3 7.3-16.6c-.3-3.7-.9-6.8-1.9-9.3m-66.4-32.7c-4.1-4.4-9.9-6.6-17.3-6.6-4.5 0-8.5.8-12 2.4-2.7 1.3-5 3-6.8 5.3l-1-6.5h-22.1v68.4h23.1v-29.9c0-7.7.9-13.2 2.6-16.4s4.6-4.8 8.5-4.8c2.8 0 4.9 1.2 6.2 3.5s1.9 5.7 1.9 10.3v37.3h23.1v-44.5c0-7.9-2.1-14.1-6.2-18.5m-365 0c-4.1-4.4-9.9-6.6-17.3-6.6-4.5 0-8.5.8-12 2.4-2.7 1.3-5 3-6.8 5.3l-1-6.5h-22.1v68.4h23.1v-29.9c0-7.7.9-13.2 2.6-16.4s4.6-4.8 8.5-4.8c2.8 0 4.9 1.2 6.2 3.5s1.9 5.7 1.9 10.3v37.3h23.1v-44.5c0-7.9-2.1-14.1-6.2-18.5" fill="#010101"/></svg>