<svg height="2500" width="2500" xmlns="http://www.w3.org/2000/svg" viewBox="0 0 500 500"><path d="M0 0h500v500H0V0z" fill="#fefefe"/><path d="M105 204h16v69h-16l-1-2-2 1.5c-3.75 1.875-6.943 2.588-11 1.5-3.288-2.403-5.605-5.342-6.555-9.329-.22-2.68-.25-5.298-.207-7.987l-.01-2.954c0-2.052.016-4.103.045-6.155.04-3.132.02-6.26-.005-9.393.007-2 .018-4 .033-5.998l-.021-2.823c.095-4.391.315-7.446 3.105-10.956C90 216 90 216 92.535 215.344l2.528.156 2.535.094C100 216 100 216 104 218l1-14z" fill="#273342"/><path d="M369.313 203.625c4.706 2.408 8.668 5.117 10.882 10.023.999 4.16 1.023 7.973.93 12.227L381 234h-17l-1-19h-5l1 47h4l1-17h17c.372 16.372.372 16.372-4.125 23.25-4.788 4.58-9.181 6.942-15.875 7.25-6.328-.282-10.918-2.418-15.375-6.875-3.732-6.028-3.944-11.668-3.96-18.555-.008-.949-.014-1.898-.021-2.876-.01-2.002-.015-4.004-.015-6.006-.004-3.046-.04-6.091-.078-9.137-.006-1.952-.01-3.904-.012-5.856l-.043-2.734c.042-5.966 1.116-10.483 4.504-15.461 6.592-6.27 14.718-5.997 23.313-4.375z" fill="#e76526"/><path d="M71.586 215.602c3.366.555 5.14 1.904 7.414 4.398 1.242 2.484 1.12 4.131 1.114 6.909v3.093l-.016 3.35-.005 3.421c-.005 3.618-.018 7.235-.03 10.852-.006 2.448-.01 4.896-.014 7.344-.011 6.01-.028 12.02-.049 18.031H64l-1-47-3-1-1 48H44v-56h15l1 3 1.375-2c3.48-2.652 5.928-2.563 10.21-2.398z" fill="#283443"/><path d="M126 217h16v47l4-1 1-46h15v56h-15l-1-3-2 2c-3.376 2.25-5.119 2.603-9.07 2.387-3.156-.633-4.785-2.052-6.93-4.387-1.651-3.445-2.247-6.17-2.227-9.974v-2.91l.032-3.104.008-3.207c.011-3.373.037-6.745.062-10.117.01-2.29.02-4.58.027-6.87.022-5.606.057-11.212.098-16.818z" fill="#273242"/><path d="M307.5 217.125c3.873 2.905 7.043 5.376 7.937 10.267.141 2.91.125 5.781.051 8.694l-.021 3.203c-.028 3.363-.09 6.724-.154 10.086-.026 2.285-.048 4.57-.069 6.855-.055 5.591-.141 11.18-.244 16.77h-15v-4h-2l-.875 1.938C296 273 296 273 294 274c-7.111.7-7.111.7-10.938-2.313-3.345-4.36-3.274-8.277-3.312-13.562l-.063-2.145c-.033-4.56.294-7.505 3.313-10.98 2.452-1.678 5.025-3.002 7.688-4.313l2.126-1.087c1.723-.88 3.454-1.741 5.186-2.6v-11h-3l-1 12h-14c-.44-13.208-.44-13.208 3-18 6.204-5.804 16.862-5.33 24.5-2.875z" fill="#2a3544"/><path d="M413.184 217.215c3.306 2.096 4.792 3.402 6.816 6.785.553 3.74.465 7.434.39 11.207-.005 1.08-.01 2.161-.017 3.274a1245.37 1245.37 0 0 1-.123 10.332c-.02 2.337-.038 4.675-.055 7.013-.044 5.725-.113 11.45-.195 17.174h-15l-1-2-1.5 1.5c-3.464 2.079-6.616 2.32-10.5 1.5-3.019-1.753-5.415-3.83-7-7a184.51 184.51 0 0 1-.312-8.875l-.088-2.473c-.064-6.027-.064-6.027 2.213-9.093 5.119-3.648 10.426-6.14 16.187-8.559 1.74-1.74 1.372-4.194 1.563-6.562l.253-3.067L405 226h-5v12h-14c-.408-13.456-.408-13.456 3-18 6.697-5.507 16.19-5.835 24.184-2.785z" fill="#e66526"/><path d="M193.125 217.313c3.865 2.268 5.454 3.423 6.875 7.687.131 3.338.043 6.657 0 10h-14l-1-9h-3c-.238 2.851-.405 5.202 0 8 2.182 2.473 4.564 3.755 7.418 5.36 9.553 5.474 9.553 5.474 11.582 10.64.685 6.055 1.206 12.579-1.563 18.188-3.746 4.322-6.792 5.488-12.277 6.16-6.053.297-10.656-.134-15.601-3.805-3.945-3.905-4.705-8.155-4.746-13.48L167 253h14l1 10 4 1c.568-3.154.747-5.866 0-9-1.992-1.951-4.052-3.154-6.473-4.531-2.576-1.497-4.714-3.145-6.964-5.094l-1.934-1.664c-3.852-4.046-3.95-7.642-4.004-13.149l-.086-3.933c.534-4.2 1.4-5.751 4.461-8.629 6.253-3.438 15.556-3.354 22.125-.688z" fill="#2a3543"/><path d="M21 204h17v69H21v-69z" fill="#2f3a49"/><path d="M457 209h16v9h4v9h-4v37h4v9c-2.062.054-4.125.093-6.188.125l-3.48.07c-3.364-.197-5.422-.516-8.332-2.195-3.603-4.48-3.395-8.542-3.293-14.02l.013-2.601c.017-2.731.054-5.461.092-8.191.016-1.857.03-3.713.042-5.569.033-4.54.084-9.08.146-13.619h-3v-9h4v-9z" fill="#e66b2f"/><path d="M206 209h16v9h4v9h-4v36l5 1v9c-2.417.081-4.832.14-7.25.188l-2.066.076c-3.197.046-5.35-.078-8.168-1.65C208 270 208 270 208 268h-2v-41h-3v-9h3v-9z" fill="#2c3746"/><path d="M320 204h16v69h-16v-69z" fill="#293443"/><path d="M426 216h16l1 4 1.188-1.438C446 217 446 217 451 216v20l-8 2-1 35h-16v-57z" fill="#e5682c"/><path d="M255 216v19l-7 2c-2.724 3.209-2.345 7.355-2.414 11.39l-.059 2.136c-.06 2.241-.106 4.482-.152 6.724a4014.29 4014.29 0 0 1-.117 4.57c-.098 3.727-.177 7.453-.258 11.18h-15v-56h15l1 4 2.25-2.5C251 216 251 216 255 216z" fill="#263140"/><path d="M258 217h16v56h-16v-56z" fill="#253140"/><path d="M101 225l5 1v37l-5 1c-1.55-3.1-1.142-6.379-1.133-9.781l-.003-2.331c0-1.628.001-3.255.006-4.883.005-2.495 0-4.99-.007-7.485 0-1.58.002-3.16.004-4.739l-.006-2.27c.024-5.281.024-5.281 1.139-7.511z" fill="#babdbf"/><path d="M258 204h16v9h-16v-9z" fill="#333d4a"/><path d="M102 227h2v36h-3c-.025-4.966-.043-9.932-.055-14.899-.005-1.69-.012-3.381-.02-5.072-.013-2.425-.018-4.85-.023-7.275l-.015-2.304c0-1.817.051-3.634.113-5.45z" fill="#fdfefe"/><path d="M385 226h1v12h14v-12h5c.288 3.71.453 7.3 0 11-2.5 2.688-2.5 2.688-5 4l-2-1c-2.204-.23-4.414-.41-6.625-.563L385 239v-13z" fill="#f0dccf"/><path d="M364 245h17c.143 12.857.143 12.857-1 18h-1v-16h-13v11h-2v-13z" fill="#e7845b"/><path d="M295 225c2.063.438 2.063.438 4 1 .135 1.769.232 3.54.313 5.313l.175 2.988C299 237 299 237 296.938 238.875c-3.701 1.417-6.322 1.216-10.25.813l-3.801-.364L280 239v-1h14l-.063-5.938c-.02-2.02-.01-4.042.063-6.062z" fill="#c3c9ce"/><path d="M405 247v16l-4 1c-1.87-1.87-1.217-4.874-1.25-7.375l-.078-3.523C400 250 400 250 401.39 248.086 403 247 403 247 405 247z" fill="#f7e9e1"/><path d="M297 247h2v17l-5-1c-.568-12.02-.568-12.02 3-16z" fill="#e2e4e7"/><path d="M181 251c5 3 5 3 6 4 .237 6.525.237 6.525-1 9l-5-1v-12z" fill="#e5e7e9"/><path d="M296 227h2v11h-3a757.916 757.916 0 0 1-.063-4.938l-.035-2.777C295 228 295 228 296 227z" fill="#fdfefe"/><path d="M353 204v2c-4.47 4-4.47 4-7 4v3h-2c1.328-4.347 3.914-9 9-9z" fill="#e38151"/></svg>