<svg viewBox="0.44 0 1058.56 183" xmlns="http://www.w3.org/2000/svg" width="2500" height="432"><g fill="#ebaf3f"><path d="M285.99 95.29c-1.8-1.88-3.88-3.57-6.22-5.02-16.34-10.14-36.67-9.08-54.56-14.63-5.25-1.63-11.24-5.01-11.17-10.5.04-2.78 1.78-5.34 4.05-6.96s5-2.43 7.72-3.03c20.21-4.45 44.32 2.02 59.25 16.57h2.46V41.41c-13.25-9.7-29.58-14.55-48.97-14.55-23.13 0-54.23 11-51.64 39.54.56 6.13 2.95 12.13 7 16.76 12.61 14.41 37.83 15.94 55.29 19.75 5.16 1.13 11.05 2.83 13.13 7.68 1.18 2.75.75 6.08-.92 8.56-1.51 2.24-3.88 3.77-6.37 4.84-10.75 4.62-25.29 2.79-36.31-.25-5.45-1.5-10.71-3.68-15.59-6.54-2.63-1.54-11.09-10.43-13.36-10.43h-2.46v34.43c0 4.73 24.16 10.14 28.19 10.86 12.25 2.17 25.09 3.56 37.49 2.01 13.97-1.74 28.02-8.04 35.93-19.69 8.63-12.69 7.01-28.73-2.94-39.09zM423.89 44.79c-16.99-20.8-49.86-24.36-70.15-6.1-9.7 8.73-13.79 20.31-15.8 32.84h-1.64l3.89-42.21H307.2V183h31.55v-47.13l-4.3-29.71h2.25c1.3 17.92 7.39 36.03 24.89 43.94 21.06 9.51 47.62 4.67 62.3-13.4 9.76-12.02 14.65-27.39 14.65-46.11 0-18.58-4.89-33.85-14.65-45.8zm-28.96 66.48c-7.28 6.33-18.03 8.95-29.03 7.64-8.22-.98-16.64-4.03-21.79-10.51-4.64-5.84-6.02-13.73-5.45-21.16 2.04-26.83 37.92-34 56.65-18.66 5.94 4.87 8.83 11.87 8.83 21.39-.01 9.27-3.57 16.4-9.21 21.3zM484.23 152.26V38.91c-4.58 3.25-10.06 4.93-16.39 4.93-6.45 0-12-1.67-16.6-4.93v113.36h32.99zM131.18 26.86c-15.17 0-26.91 5.67-35.24 17.01-8.34 11.34-13.46 29.78-15.38 55.32h-2.05l6.56-69.87h-33.6v122.94h32.58c0-16.09-.01-31.99.86-48.09.54-9.96 2.18-20.16 7.34-28.7 7.2-11.88 22.98-19.21 35.84-11.53 11.44 6.83 12.71 23.17 12.71 35.04v53.28h32.78V82.18c0-18.99-3.89-32.95-11.68-41.9-7.77-8.95-18.02-13.42-30.72-13.42zM487.32 18.07c0 4.54-1.48 8.4-4.39 11.68-.37.37-.69.74-1.06 1.11-3.65 3.49-8.29 5.23-14.05 5.23-5.86 0-10.62-1.74-14.21-5.23-.37-.37-.74-.74-1.06-1.11-2.91-3.27-4.38-7.13-4.38-11.68 0-5.07 1.8-9.35 5.44-12.84C457.2 1.74 461.96 0 467.82 0c5.76 0 10.41 1.74 14.05 5.23 3.65 3.49 5.45 7.76 5.45 12.84zM948.05 145.81c7.85 5.94 17.73 8.91 29.61 8.91 15.98 0 28.45-5.22 37.4-15.67s13.69-25.44 14.24-44.98h2.05l-4.51 55.12v3.07H1059V83.41c0-16.26-5.36-29.74-16.08-40.47-10.73-10.72-25.79-16.08-45.18-16.08-19.81 0-36.75 4.58-50.82 13.73v32.17h2.46c12.84-10.52 27.66-15.78 44.46-15.78 8.06 0 15.3 1.74 21.72 5.22s10.11 9.32 11.06 17.52v1.85c-9.83-1.09-19.81-1.64-29.92-1.64-17.9 0-32.45 3.21-43.65 9.63s-16.8 16.26-16.8 29.51c.01 11.88 3.94 20.79 11.8 26.74zm57.08-47.87c6.94-.24 13.54-.45 13.53-.41-2.26 16.91-13.32 29.42-31.19 29.12-16.66-.28-23.36-18.45-6.42-25.87 7.42-3.24 16.14-2.56 24.08-2.84zM544.79 43.35c-8.13 11-13.01 29.61-14.65 55.84h-2.05l6.56-69.87h-33.6v122.95h32.58c0-16.14-.4-32.19 1.16-48.31.94-9.71 3.18-19.55 8.63-27.64 7.73-11.47 20.79-16.77 33.85-11.55h1.56c.03-.07.05-.14.08-.21v-37.7c-14.63 0-26 5.5-34.12 16.49zM.44 8.83h33.2v143.44H.44zM581.81 90.99v.75c.01 16.57 6.71 33.16 18.68 44.62 9.63 9.22 22.29 14.93 35.39 17.37 14.08 2.62 28.99 1.54 42.14-4.12 28.28-12.17 44.7-46.81 36.2-76.4-20.2-70.35-131.72-55.26-132.41 17.78zm43.15-21.08c15.62-13.27 45.4-10.79 55.21 8.44 5.85 11.47 2.79 26.95-7.36 34.88-5.59 4.36-12.73 6.35-19.79 6.93-9.58.78-19.76-1.06-27.25-7.1-8.31-6.7-12.27-18.37-9.74-28.74 1.45-5.96 4.66-10.77 8.93-14.41zM886.26 26.86c-28.41 0-44.19 22.47-47.33 67.41h-1.84c.68-6.42 1.02-12.84 1.02-19.26 0-14.75-3.14-26.46-9.43-35.14-6.29-8.67-15.51-13.01-27.66-13.01-13.39 0-23.43 5.19-30.12 15.57-6.7 10.38-11.34 27.66-13.94 51.84h-2.05l6.97-64.95h-33.61v122.94h32.58c0-21.51-1.14-42.93 2.67-64.24 1.22-6.83 2.92-13.82 7.12-19.34 8.12-10.66 27.96-11.05 34.26 1.81 3.14 6.42 4.71 15.1 4.71 26.02v55.73h32.58c0-18.95-.39-38.04 1.09-56.93.71-9.1 2.87-18.45 8.6-25.56s15.71-11.36 24.29-8.26c8.33 3 13.21 11.86 14.83 20.56.76 4.1 2.16 70.18 1.39 70.18h32.79V82.39c.02-37.02-12.96-55.53-38.92-55.53z"/></g></svg>