<svg viewBox="5 70.92000000000006 292.12 58.14999999999996" xmlns="http://www.w3.org/2000/svg" width="2500" height="-111"><path d="M23.12 120.08v-17.21H5.73v-7.85H52v7.85H34.61v17.21z" fill="#878787" fill-rule="evenodd"/><path d="M51.3 95.71v6.47H33.91v17.2H23.8v-17.2H6.42v-6.47zm1.38-1.38H5.04v9.24h17.39v17.2H35.3v-17.2h17.39v-9.24z" fill="#fff"/><path d="M73.67 120.3v-8.38l-20.7-16.9h16.26l10.78 8.5 10.77-8.5h16.27l-20.7 16.9v8.38z" fill="#878787" fill-rule="evenodd"/><path d="M105.1 95.71l-19.45 15.88v8.02h-11.3v-8.02L54.9 95.71h14.08l11.01 8.7L91 95.71h14.08m3.88-1.38H90.51l-.38.3-10.15 8.02-10.15-8.02-.38-.3H51l3.01 2.46 18.94 15.46V121h14.07v-8.75l18.94-15.46 3.01-2.46z" fill="#fff"/><path d="M108.23 120.3V95.02h36.7c4.38 0 7.94 3.56 7.94 7.94v.65c0 4.38-3.56 7.94-7.94 7.94h-24.82v8.75zm33.08-16.66c.12 0 .22-.1.22-.22s-.1-.22-.22-.22H120.1v.43h21.21z" fill="#878787" fill-rule="evenodd"/><path d="M144.93 95.71c4 0 7.25 3.25 7.25 7.25v.65c0 4-3.25 7.25-7.25 7.25h-25.51v8.75h-10.49v-23.9zm-25.51 8.62h21.9c.5 0 .91-.41.91-.91s-.41-.91-.91-.91h-21.9zm25.51-10.01h-37.39v26.67h13.26v-8.75h24.13c4.76 0 8.63-3.87 8.63-8.63v-.65c0-4.76-3.87-8.63-8.63-8.63z" fill="#fff"/><path d="M153.85 120.3V95.02h42.11v8.19h-27.88v.43h25.73v7.91h-25.73v.36h27.88v8.39z" fill="#878787" fill-rule="evenodd"/><path d="M195.27 95.71v6.81h-27.88v1.82h25.73v6.52h-25.73v1.74h27.88v7.01h-40.72v-23.9zm1.38-1.38h-43.49V121h43.49v-9.77h-2.15v-7.32h2.15z" fill="#fff"/><path d="M273.99 128.38c-.91 0-1.75-.05-2.47-.16-1.61-.24-2.57-1.64-3.42-2.88-.31-.45-.6-.88-.9-1.2-1.12-1.23-2.08-2.29-3.66-3.57-1.56-1.27-3.78-2.78-6.23-4.27-.43-.26-.85-.52-1.28-.78-2-1.24-4.07-2.51-7.17-3.9-2.53-1.13-5.51-2.12-8.66-3.18-1.4-.47-2.84-.95-4.32-1.47l-9.29 19.76-.38.05c-2.62.32-5.25.49-8.04.53h-.5c-2.52 0-4.92-.22-6.52-.37l-.24-.02c-1.67-.15-2.27-.38-2.57-.99-.23-.44-.28-2.27-.08-2.71l9.72-17.39c-.81-.54-1.59-1.3-1.75-2.89-.1-.83.02-1.92.13-2.98l.08-.83c.11-1.17.22-2.28.9-3.04.63-.71 1.71-1.06 3.28-1.08h.33c.34 0 .68.02 1.01.04.28.02.54.04.8.04.85 0 1.41-.2 1.93-1.24.43-.72.93-1.65 1.41-2.55 0 0 .81-1.51 1.02-1.88-1.13.11-1.89.18-2.27.19h-.18c-1.35 0-3.7-.44-3.8-.46l-.23-.04-.44-.5-1.25-1.64c-.35-.23-1.04-.85-1.57-2.42-.4-1.17-.84-1.49-1.03-1.63-.13-.09-.4-.29-.4-.67 0-.07.01-.16.03-.27 0-.02 0-.04.01-.07-.09-.17-.14-.35-.19-.52-.03-.1-.06-.21-.1-.32-.12-.32-.48-1.2-.48-1.2l-.99-2.61c-.44-.57-.56-1.49-.02-2.09.46-.51.97-.56 4.33-.9l1.8-.18c3.74-.38 9.38-.94 14.82-1.35 6.65-.5 12.71-.74 17.25-.89 2.74-.09 5.95-.19 8.96-.19 2.39 0 4.44.06 6.28.18 4.38.28 8.21.96 11.07 1.96 2.93 1.02 4.67 2.35 5.65 4.3.95 1.91 1.21 4.56.67 6.91-.48 2.08-1.6 3.93-3.52 5.81-1.85 1.81-4.2 3.45-6.45 4.48-2.09.96-4.19 1.46-7.09 2.16l-1.2.29c-2.54.61-5.68 1.41-9 2.25l-1.67.42c5.36 1.89 10.54 4.01 15.11 6.2 5.28 2.53 9.78 5.16 13.06 7.08 3.33 1.95 5.63 3.3 7.2 4.35 1.5 1 2.41 1.76 3.25 2.72l1.31 1.25-.59.5c-.09.08-2.31 1.91-4.31 2.68-1.52.58-3.53.75-4.73.85-.37.03-.66.05-.81.08-.46.09-1.19.54-1.49.74l-.1.06c-.49.3-5.73 1.5-10.02 1.5zM243.5 91.82c.73 0 1.45-.05 2.65-.18.47-.06.96-.12 1.45-.19 3.45-.43 7.02-.88 10.54-2.75 3.66-1.98 4.39-3.15 4.53-3.57.08-.23.09-.39.03-.49-.18-.29-.96-.55-2.32-.77-.62-.1-1.42-.15-2.37-.15-1.94 0-4.17.21-5.96.37-2.29.21-5.46.6-7.56 1 .38.71.54 1.31.49 1.82-.06.63-.73 2.28-2 4.9h.54z" fill="#e31f21" fill-rule="evenodd"/><g fill="#fff"><path d="M261.36 72.31c2.19 0 4.28.05 6.23.18 4.48.29 8.2.99 10.89 1.92 2.69.94 4.34 2.12 5.26 3.95.92 1.84 1.1 4.34.62 6.45-.48 2.1-1.63 3.81-3.33 5.47-1.7 1.67-3.95 3.29-6.25 4.35s-4.64 1.55-8.16 2.4-8.22 2.06-12.92 3.25c6.07 2.05 12.02 4.43 17.23 6.93 5.2 2.49 9.65 5.09 13.01 7.05s5.62 3.29 7.16 4.33c1.55 1.03 2.38 1.77 3.12 2.6l.79.76s-2.2 1.83-4.11 2.56-4.76.77-5.41.9-1.51.69-1.83.9c-.27.17-5.36 1.4-9.65 1.4-.83 0-1.64-.05-2.37-.16-1.84-.27-2.78-2.62-3.9-3.86s-2.11-2.33-3.74-3.65c-1.62-1.32-3.88-2.86-6.3-4.32-2.42-1.47-4.71-3.02-8.52-4.72-3.82-1.7-8.52-3.07-13.63-4.88l-9.4 19.98c-2.58.31-5.17.48-7.97.52h-.5c-2.62 0-5.16-.25-6.69-.4-1.63-.15-1.89-.35-2.02-.61s-.18-1.86-.07-2.12l10.01-17.91c-.89-.54-1.83-1.08-1.98-2.72-.11-.9.07-2.21.19-3.41s.18-2.28.75-2.92 1.67-.84 2.77-.85h.32c.64 0 1.24.08 1.8.08 1 0 1.86-.25 2.55-1.62.53-.87 1.17-2.11 1.8-3.27.43-.79.85-1.55 1.26-2.3-1.41.15-2.93.3-3.54.32h-.16c-1.31 0-3.67-.45-3.67-.45l-.28-.33-1.3-1.71s-.77-.33-1.38-2.12-1.38-1.95-1.38-2.08.12-.45 0-.61-.16-.49-.28-.81c-.12-.33-.49-1.22-.49-1.22l-1.03-2.7c-.31-.33-.41-.94-.11-1.27.29-.33.98-.38 4.51-.73 3.54-.35 9.92-1.01 15.97-1.47s11.76-.71 17.22-.89c3.09-.1 6.09-.19 8.93-.19m-17.86 20.21c.77 0 1.53-.05 2.72-.19 4-.54 8.1-.82 12.24-3.02 2.12-1.14 4.41-2.65 4.86-3.95.44-1.31-.55-1.8-2.83-2.16-.72-.11-1.57-.16-2.48-.16-2 0-4.29.21-6.09.38-2.63.25-6.16.7-8.14 1.11l-.12.51c.34.56.68 1.26.63 1.81-.07.83-1.65 4.08-2.37 5.54v.06c.61.04 1.1.06 1.59.06m17.86-21.59c-3.02 0-6.23.09-8.98.19-4.55.15-10.62.39-17.28.89-5.46.41-11.11.98-14.85 1.35l-1.15.12-.64.06c-3.59.36-4.14.41-4.77 1.13-.69.78-.7 2.01-.07 2.89l.95 2.5s.37.9.49 1.21c.03.09.06.18.08.26.04.13.08.28.14.43-.01.07-.02.16-.02.25 0 .73.51 1.1.68 1.23.12.09.45.33.78 1.3.54 1.6 1.26 2.36 1.74 2.7l1.15 1.52.03.04.03.04.28.33.31.36.47.09c.1.02 2.51.47 3.93.47h.2c.23 0 .57-.03 1.02-.07l-.4.75c-.47.89-.96 1.8-1.36 2.45l-.03.05-.03.05c-.41.82-.73.86-1.31.86-.24 0-.49-.02-.75-.03-.32-.02-.68-.04-1.05-.04h-.39c-1.73.02-2.96.45-3.73 1.31-.83.93-.96 2.2-1.07 3.44l-.03.27-.06.56c-.12 1.09-.24 2.23-.13 3.14.14 1.5.82 2.39 1.53 2.99l-9.39 16.8-.03.05-.02.05c-.29.63-.23 2.68.09 3.31.53 1.04 1.68 1.23 3.13 1.36l.25.02c1.6.15 4.02.38 6.57.38h.51c2.81-.04 5.47-.21 8.12-.53l.76-.09.33-.69 8.86-18.85c1.28.44 2.53.86 3.74 1.27 3.14 1.05 6.1 2.04 8.6 3.16 3.06 1.36 5.1 2.63 7.08 3.85.43.27.86.53 1.29.79 2.42 1.47 4.61 2.96 6.15 4.21s2.49 2.29 3.59 3.5c.26.29.54.7.84 1.13.88 1.29 1.98 2.89 3.89 3.17.76.11 1.62.17 2.57.17 4.1 0 9.67-1.16 10.39-1.61l.11-.07c.61-.38 1.03-.6 1.25-.64.1-.02.45-.05.74-.07 1.24-.1 3.31-.28 4.91-.89 2.1-.81 4.41-2.71 4.5-2.79l1.19-.99-1.12-1.07-.75-.72c-.87-.97-1.84-1.79-3.35-2.79-1.59-1.06-3.89-2.42-7.23-4.37-3.3-1.93-7.81-4.57-13.11-7.1-3.98-1.91-8.42-3.76-13.04-5.46 3.13-.79 6.07-1.54 8.47-2.12l1.2-.29c2.94-.7 5.06-1.21 7.21-2.2 2.31-1.07 4.73-2.75 6.64-4.62 2.02-1.98 3.2-3.94 3.71-6.15.57-2.5.29-5.32-.73-7.37-1.06-2.12-2.92-3.56-6.04-4.64-2.92-1.02-6.82-1.71-11.26-2-1.85-.12-3.92-.18-6.32-.18zm-15.9 14.7c1.97-.33 4.6-.65 6.57-.83h.06c1.78-.17 3.99-.38 5.9-.38.91 0 1.67.05 2.26.14 1.02.16 1.49.31 1.72.41-.13.27-.82 1.31-4.18 3.12-3.4 1.81-6.74 2.23-10.29 2.67-.49.06-.98.12-1.47.19-.84.09-1.44.14-1.97.16 1.51-3.2 1.57-3.87 1.59-4.14.04-.42-.03-.86-.19-1.35zM5 78.62h7.91v10.1H5z"/><path d="M43.16 79.06a2.8 2.8 0 0 0-1.53-.44H16.4v10.1h7.91v-7.13H37.3v7.13h6.92v-8c0-.56-.38-1.2-1.06-1.66zM45.42 78.62v2.98h10.44v7.13h7.91V81.6h9.77v-2.98zM164.47 79.08c-.18-.12-.4-.21-.66-.29s-.56-.14-.87-.16H137.8v10.1h6.92v-4.51h13.65v4.51h6.92l-.03-3.34c-.02-.51-.26-1.06-.9-1.5-.17-.11-.41-.23-.66-.34.26-.09.51-.21.71-.34.78-.52.85-1.03.88-1.52-.02-.88.15-1.91-.82-2.61zm-6.1 3.21h-13.65v-1.47h13.65zM195.81 80.56c-.28-.45-.6-.8-.97-1.08s-.79-.48-1.29-.63c-.5-.14-1.07-.22-1.64-.22H174.2c-1.47-.02-3.06-.03-4.19.85-.37.28-.69.64-.97 1.08-.28.45-.54.99-.71 1.56s-.26 1.15-.26 1.74v4.87h6.92v-4.39h14.89v4.39h6.92v-4.87c0-1.13-.38-2.36-.97-3.3zm-5.95 2.25h-14.88c0-.61.26-1.19.61-1.52.36-.34.93-.46 1.52-.46h10.74c.67 0 1.33.11 1.66.43.34.33.35.92.35 1.52zM75.37 81.6v5.02c0 1.17 1.37 2.11 2.54 2.11h25.58v-2.98H83.28v-1.11h20.21v-2.05H83.28v-.99h20.21v-2.98H75.37zM107.31 79.57c-.33.39-.48.78-.48 1.15v5.43c0 1.41 1.16 2.57 2.57 2.57h23.86c1.17 0 2.11-.94 2.11-2.11v-1.73c0-1.41-1.16-2.57-2.57-2.57h-15.94v2.13h10.84v1.26h-12.9c-.58 0-1.06-.47-1.06-1.06V81.7c0-.58.47-1.06 1.06-1.06h20.57V78.6h-25.95c-.75.02-1.49.25-2.1.95z" fill-rule="evenodd"/></g></svg>