<svg height="2500" viewBox="-3.35 -10.13 795.203 1013.154" width="1977" xmlns="http://www.w3.org/2000/svg"><path d="m584.838 2.773c81.786-12.903 148.483 20.467 148.483 74.293s-66.697 108.25-148.483 121.155c-81.78 12.904-148.477-20.467-148.477-74.293s66.696-108.25 148.477-121.155zm-234.402 365.047c83.99-82.862 223.096-154.48 312.712-157.484 65.24-1.872 60.74 30.002 51.744 52.876-16.501 37.496-45.366 74.986-62.993 111.356-74.617 136.487-104.239 240.35-83.243 325.089-92.608 5.997-213.347 34.494-308.21 58.492 106.488-116.611 181.48-214.1 174.356-339.706-4.666-43.107-34.98-46.617-84.366-50.623m-167.249 476.961c1.64-4.632 7.103-10.426 11.761-11.162 5.664-1.084 16.115 6.274 17.006 12.491.442 4.423-4.732 7.826-7.802 8.66-4.61 1.246-4.863 3.905-7.306 5.722-8.843 3.51-15.013-10.848-13.66-15.711zm517.89-1.358c27.26-32.137 47.527-52.82 56.58-64.762 5.485-8.168 34.196-9.995 33.024-5.928-3.3 11.627-15.943 13.945-23.09 21.228-10.873 12.107-22.321 23.766-33.194 35.89-6.055 7.7-11.517 13.494-17.474 19.613 9.576-4.12 17.371-7.519 28.353-10.72 11.47-3.516 29.24 6.006 25.348 14.538-1.19 3.808-1.383 4.608-2.856 8.178-1.036 5.354 10.793.224 15.01 5.587 2.782 1.556.836 5.692-.968 8.764-3.402 5.327-11.931 6.703-16.944 6.42-8.461-.464-15.983-2.084-18.19-13.682 1.644-4.631 3.254-9.51 4.864-14.415.393-1.338-1.348-3.01-2.629-2.618-6.088 2.191-12.455 4.127-18.543 6.325-14.663 5.665-20.944 19.159-30.611 22.229-8.404 7.939-16.877 15.082-25.337 22.505-13.81 14.252-21.372 27.88-33.679 41.46-9.701 10.683-15.345 22.543-20.341 35.656-3.016 6.606-23.972-3.374-18.048-9.764 12.193-9.36 16.403-19.756 26.002-31.494 7.517-11.509 13.758-25.276 23.522-35.446 11.443-9.035 25.986-26.505 24.137-29.21-.86-.704-1.986-1.376-2.834-2.076-10.589 1.845-19.932 5.67-29.138 10.79-26.606 15.01-49.49 22.554-76.147 26.528-4.95.493-9.867 1.256-14.805 1.751-10.089 1.523-17.167 14.856-21.326 15.272-6.06 2.436-12.302 8.317-17.223 14.324-4.21 5.139-17.423-6.143-12.091-10.617 11.783-8.263 24.973-13 35.556-25.36-19.061-27.771-11.232-30.923 8.978-54.743 4.933-5.74 27.664-20.105 37.633-25.571 14.037-6.65 34.538 3.905 30.817 16.623-3.3 11.62-15.995 23.926-21.326 31.034-5.667 6.34-12.404 12.53-18.077 18.872.825.447 2.97.76 4.057 1.172 15.266-2.318 31.107-9.408 45.627-14.016 5.457-3.176 10.14-6.268 16.17-8.973 17.298-5.672 33.793-14.153 51.915-19.39 3.647-.364 5.645-3.97 7.255-6.232zm-418.665 63.68c3.25-4.27 6.797-8.302 11.11-12.418 4.342-3.838-3.93-13-10.487-10.242-26.814 12.93-53.525 24.269-80.34 37.196-27.034 13.469-50.439 28.947-75.531 43.276-.883-.96-1.743-1.66-2.366-2.653 17.141-20.362 33.413-38.803 50.85-58.935 4.653-3.363-2.083-15.55-10.358-11.573-33.96 12.33-51.833 17.534-95.939 44.01-21.568 12.928-34.128 18.647-65.65 26.526-1.346 2.24-1.437 6.717-2.526 8.922-4.525 7.283 5.223 12.875 8.923 10.401 43.7-22.752 85.253-51.075 131.345-68.296 3.406-2.707 4.94 2.132 3.299 4.14-18.88 23.952-37.509 47.88-56.401 71.576-1.413 4.343 7.17 13.991 12.554 10.035 52.324-38.858 115.666-75.398 159.276-91.05 2.058-.484 2.81 1.814 2.187 3.448-9.935 13.609-18.103 23.88-27.805 37.197-4.31 6.742 5.13 11.838 11.084 10.978 1.823-.182 3.739-1.956 4.839-4.156l10.504-15.774c4.114-6.181 8.117-13.416 12.198-19.868 13.662 5.207 32.408-1.665 42.507 2.058-3.647 5.614-6.481 11.418-6.457 16.927.017 5.526 10.769 18.364 16.07 16.259 30.256-12.754 44.37-34.39 70.33-50.649 19.05-11.869 55.48-44.154 83.981-66.447 2.885-2.652 8.296-1.087 3.989 3.018-32.045 49.967-52.984 61.255-95.2 140.867-1.123 1.947 2.73 11.549 6.17 14.351 3.373 2.287 6.474 1.716 9.024.945 5.614-1.62 1.297-8.015 2.36-10.487 36.884-69.887 85.157-130.933 128.644-197.796 32.484-6.137 65.514-12.07 98.395-16.93 7.238-1.255 4.473-10.437-3.561-9.37-96.654 10.724-194.293 29.943-288.336 53.525-3.338.855.645 3.874.753 7.546.365 3.64-1.042 7.985 2.334 7.645 28.976.78 49.108 2.45 77.483 7.749 2.162.575 5.092-4.184 3.05-6.342-8.876-7.25-56-8.326-46.738-10.295 42.965-9.03 85.64-18.287 128.61-27.311-11.102 12.4-26.97 21.877-32.883 36.384-27.174 19.79-54.224 40.885-81.38 60.94-21.797 15.842-43.612 28.793-65.8 43.358-1.699 1.48-2.087-2.422-1.167-3.823 11.317-15.585 26.97-29.758 31.84-49.417.925-3.775-5.736-9.94-9.997-7.93-5.016 2.33-8.608 16.351-12.53 21.737-2.03 3.358-4.575 6.767-7.39 10.197-8.56 3.75-18.855 3.196-29.868 3.514-5.501.02-10.571-.778-14.999-2.963zm268.856-14.545c4.005.651 18.594-11.055 29.08-21.824 8.456-10.026 23.278-22.026 21.44-32.614-.865-3.33-6.259-4.623-10.805-2.863-16.284 5.315-23.926 12.9-38.566 26.716-10.515 10.5-16.91 25.34-1.15 30.585z" fill="#2056ae" fill-rule="evenodd"/></svg>