<svg height="2500" viewBox="-86.092 -177.79913112 206.802 357.83613112" width="1683" xmlns="http://www.w3.org/2000/svg"><path d="m1.07 7.42c-38.49 0-69.71-31.208-69.71-69.68 0-16.623 5.852-31.867 15.578-43.843 1.755-2.124 3.005-3.616 5.13-5.646l-5.13-3.425v-59.036c0-1.96 1.62-3.562 3.586-3.562h100.918c1.966 0 3.586 1.601 3.586 3.562v67.843c9.843 12.015 15.756 27.372 15.756 44.106 0 31.527-20.959 58.178-49.716 66.771l-.252-.844-20.816-3.666.926 5.657c.049 0 .097.003.145.003v.88zm63.054-175.21a4.948 4.948 0 0 1 -2.509-.672 4.964 4.964 0 0 1 -1.837-1.828 4.897 4.897 0 0 1 -.674-2.505c0-.899.224-1.734.671-2.506a4.905 4.905 0 0 1 1.834-1.825 4.96 4.96 0 0 1 2.515-.668c.9 0 1.738.225 2.513.67a4.956 4.956 0 0 1 1.83 1.826 4.9 4.9 0 0 1 .672 2.503c0 .893-.225 1.726-.674 2.5a4.99 4.99 0 0 1 -1.836 1.83 4.923 4.923 0 0 1 -2.505.674zm0-.831c1.147 0 2.13-.408 2.946-1.225.817-.816 1.225-1.799 1.225-2.949s-.406-2.133-1.22-2.947c-.815-.814-1.8-1.222-2.95-1.222-1.156 0-2.14.406-2.954 1.22-.815.81-1.221 1.793-1.221 2.95 0 1.15.407 2.132 1.224 2.948.817.817 1.8 1.225 2.95 1.225zm-2.003-1.48v-5.382h.87v2.288h.515c.333 0 .599-.088.799-.268.199-.178.469-.57.81-1.177l.471-.843h1.062l-.65 1.048c-.275.438-.502.752-.681.944a1.64 1.64 0 0 1 -.574.416c.45.036.82.195 1.109.48.286.282.432.629.432 1.041 0 .273-.083.533-.246.776a1.342 1.342 0 0 1 -.654.52c-.273.104-.74.157-1.399.157zm.87-.73h.994c.51 0 .866-.06 1.067-.18.2-.12.301-.328.301-.624 0-.284-.104-.49-.312-.62-.208-.131-.536-.195-.988-.195h-1.063z" transform="matrix(.85882 0 0 -.85882 61.432 28.867)"/><path d="m.925 5.656c-37.47-.079-67.805-30.444-67.805-67.916 0-37.52 30.413-67.92 67.951-67.92 37.54 0 67.951 30.4 67.951 67.92 0 31.388-21.289 57.778-50.223 65.57l-7.313-1.287c31.029-4.985 54.735-31.863 54.735-64.283 0-35.965-29.169-65.121-65.15-65.121-35.98 0-65.15 29.156-65.15 65.12 0 35.763 28.844 64.781 64.544 65.107zm.145-13.94c-29.822 0-53.998-24.166-53.998-53.976s24.176-53.977 53.998-53.977c29.824 0 54 24.167 54 53.977s-24.176 53.976-54 53.976zm-38.72-6.079a2.352 2.352 0 0 1 -.914-.234c-.356-.167-.82-.502-1.39-1.003-.592-.52-1.004-1.001-1.236-1.443-.298-.566-.417-1.12-.355-1.657.06-.54.29-1.035.687-1.487.379-.43.82-.717 1.323-.861a2.617 2.617 0 0 1 1.557.042c.533.173 1.108.53 1.721 1.068.5.437.889.863 1.17 1.275.283.41.547.953.794 1.624l-1.557 1.773-2.47-2.168.756-.862 1.068.936.346-.392a4.043 4.043 0 0 0 -.368-.706 2.77 2.77 0 0 0 -.455-.513c-.377-.33-.755-.491-1.135-.482-.38.007-.768.236-1.164.687-.372.422-.538.824-.503 1.203.036.379.228.722.577 1.028.235.207.466.335.69.384.225.05.438.024.637-.075l1.35 1.573a2.141 2.141 0 0 1 -1.129.29zm-6.505-5.286-1.295-1.522 2.319-1.975-4 .005-1.287-1.51 4.188-3.57 1.298 1.521-2.307 1.965 3.977-.003 1.296 1.52zm-5.614-6.97-1.2-1.76 4.552-3.096 1.198 1.76zm100.965-3.59a1.653 1.653 0 0 1 -.812-.238c-.47-.269-.736-.642-.798-1.12-.063-.48.096-1.052.479-1.72l1.76-3.066 4.775 2.74-1.065 1.855-1.771-1.018-.58 1.011c-.426.742-.88 1.216-1.358 1.422-.21.09-.42.136-.63.134zm-102.777-.607a1.364 1.364 0 0 1 -.577-.143c-.4-.188-.759-.575-1.074-1.16l-1.89-3.507 4.845-2.61 1.743 3.236c.074.137.204.428.39.872.138.335.212.602.223.8.02.315-.03.6-.153.855-.12.254-.31.448-.56.583-.307.165-.618.202-.932.107s-.631-.338-.948-.728c.075.329.083.606.025.829a1.09 1.09 0 0 1 -.556.731c-.17.092-.35.137-.536.136zm103.275-1.33a.597.597 0 0 0 .262-.064c.182-.087.376-.31.58-.667l.26-.452-1.07-.614-.303.527c-.197.345-.28.61-.246.796a.555.555 0 0 0 .274.407.488.488 0 0 0 .243.067zm-103.716-.704c.071-.001.14-.02.211-.058a.457.457 0 0 0 .257-.36c.02-.159-.05-.387-.208-.68l-.443-.818-.923.496.45.83c.153.286.302.465.444.537.07.036.142.053.212.053zm1.99-.77a.488.488 0 0 0 .48-.453c.02-.182-.056-.434-.231-.758l-.517-.96-.98.528.515.955c.177.329.344.538.501.623a.513.513 0 0 0 .232.065zm107.584-2.043-5.017-2.26.876-1.941 5.017 2.26zm-113.696-2.095-.939-2.622 2.79-2.146-3.515.117-.945-2.635 5.183-1.854.585 1.634-3.95 1.413 4.404-.145.528 1.478-3.493 2.686 3.95-1.414.585 1.635zm115.497-1.907-5.229-1.712.666-2.034 1.826.598.722-2.2-1.827-.598.664-2.021 5.23 1.712-.664 2.023-2.117-.693-.72 2.199 2.117.694zm-118.615-7.718-.475-2.074 5.364-1.228.476 2.074zm119.635-.718a1.336 1.336 0 0 1 -1.012-.442c-.206-.224-.354-.55-.443-.974-.089-.425-.127-1.11-.115-2.051.006-.381-.018-.628-.07-.739-.053-.115-.122-.18-.209-.196-.116-.022-.228.022-.334.13-.106.109-.18.283-.225.526-.055.296-.043.538.038.726.08.189.237.332.47.429l-.455 1.946c-.545-.19-.905-.534-1.079-1.035-.174-.5-.18-1.184-.022-2.047.13-.705.303-1.245.52-1.623.216-.379.467-.643.753-.8.285-.155.567-.207.844-.156.426.079.737.34.936.784.202.44.302 1.135.3 2.083-.005.578.034.953.116 1.128.083.175.194.275.333.3.148.028.293-.03.436-.172.142-.14.241-.361.296-.66.074-.401.022-.73-.154-.986-.11-.157-.29-.282-.539-.372l.468-1.967a1.96 1.96 0 0 1 1.207 1c.272.508.3 1.338.087 2.49-.12.654-.296 1.184-.527 1.587-.23.403-.515.698-.852.884a1.565 1.565 0 0 1 -.768.207zm-116.404-3.675-.432-3.29-4.113.537-.279-2.11 5.458-.715.708 5.4zm119.262-4.042-5.496-.274.098-1.995 3.044.151-2.915-2.738.098-1.98 5.499.272-.101 1.995-3.025-.149 2.897 2.723zm-120.566-2.755-.458-1.865c.35-.096.614-.249.795-.457.18-.209.27-.516.268-.923-.002-.419-.116-.744-.342-.974-.228-.23-.65-.344-1.266-.341-.492.002-.855.102-1.087.297-.309.258-.462.627-.46 1.11.001.212.036.406.107.578.072.17.173.316.302.435.078.072.203.138.373.203l-.325 1.88c-.583-.238-1.014-.604-1.296-1.099-.281-.495-.424-1.175-.428-2.042-.005-1.107.236-1.965.724-2.572.488-.608 1.188-.913 2.099-.917.683-.004 1.245.166 1.684.508.441.342.749.749.925 1.222s.266 1.083.27 1.83c.002.617-.068 1.126-.209 1.526-.14.399-.35.733-.628 1.003-.28.27-.629.47-1.048.598zm117.765-5.603c-.736-.001-1.344-.253-1.822-.753-.547-.572-.872-1.43-.976-2.57-.1-1.111.07-2 .513-2.67.443-.668 1.113-1.044 2.01-1.125.643-.058 1.191.05 1.646.325.455.276.804.658 1.048 1.146.243.489.398 1.12.468 1.892.07.76.013 1.405-.168 1.935-.182.53-.466.949-.851 1.256-.387.306-.9.49-1.544.55-.11.01-.219.014-.324.014zm-.073-2.123c.06-.001.124-.005.189-.011.614-.056 1.028-.219 1.242-.49.215-.27.303-.633.26-1.087-.04-.44-.192-.778-.458-1.012-.266-.235-.675-.328-1.23-.277-.563.051-.955.216-1.174.497-.219.279-.31.634-.27 1.059.04.445.192.785.455 1.024.23.207.56.308.986.297zm-115.483-3.571-1.221-.233.687-3.614-1.074-.203-.62 3.259-1.104-.211.62-3.26-.859-.162-.668 3.516-1.148-.217 1.066-5.609 5.407 1.028zm112.196-2.591-.418-2.088 5.397-1.076.417 2.087zm.401-3.857a1.392 1.392 0 0 1 -.808-.271c-.392-.282-.7-.791-.923-1.528l-1.03-3.383 5.266-1.6.623 2.048-1.954.592.338 1.113c.248.82.285 1.474.107 1.966-.178.49-.533.816-1.063.977-.194.059-.38.088-.557.085zm-111.191-.562-1.185-.386 1.143-3.496-1.039-.34-1.03 3.155-1.069-.348 1.03-3.156-.83-.27-1.111 3.404-1.112-.362 1.773-5.427 5.232 1.706zm111.008-1.487a.543.543 0 0 0 .184-.025c.171-.051.288-.174.349-.366.062-.193.032-.485-.087-.88l-.153-.497-1.18.359.176.58c.115.38.253.623.41.725.099.064.199.1.3.104zm-3.024-4.522-1.182-2.521 2.575-2.4-3.49.449-1.189-2.536 4.985-2.335.737 1.572-3.8 1.78 4.37-.561.666 1.42-3.224 3.005 3.799-1.778.738 1.571zm-105.917-.347-.983-1.619a2 2 0 0 1 -.18-.416 2.122 2.122 0 0 1 -.116-.432 2.561 2.561 0 0 1 .056-.585c-.188.261-.36.455-.519.58a1.768 1.768 0 0 1 -.779.373c-.27.05-.545.01-.822-.125a1.303 1.303 0 0 1 -.666-.674 1.614 1.614 0 0 1 -.088-.974c.07-.352.247-.823.532-1.415l1.535-3.196 4.961 2.382-.927 1.929-2.008-.965-.08.168a1.06 1.06 0 0 0 -.112.524c.01.13.082.307.214.53l1.022 1.75zm-2.121-4.046a.487.487 0 0 0 .18-.025.584.584 0 0 0 .303-.236 3.89 3.89 0 0 0 .312-.473l.387-.806-1.015-.486-.403.84c-.167.347-.239.606-.214.773.024.168.118.29.28.367a.451.451 0 0 0 .17.046zm6.812-4.913-3.474-2.27-1.189 1.819-1.134-.742 3.545-5.417 1.134.742-1.191 1.817 3.475 2.271zm96.136-.511-1.288-1.941 3.163-5.189 1.2 1.81-.572.777 1.336 2.016.946-.214 1.23 1.853zm.532-1.78 2.065-.468-.83-1.252zm-3.781-2.96-1.415-1.608 1.441-1.27-1.53-1.735-1.442 1.271-1.41-1.597 4.13-3.638 1.41 1.596-1.672 1.472 1.53 1.736 1.672-1.47 1.415 1.604zm-5.429-6.717c-.14-.003-.28-.02-.419-.047-.558-.113-1.166-.452-1.822-1.018-.84-.723-1.328-1.467-1.466-2.234-.14-.767.09-1.495.684-2.185.446-.517.942-.828 1.49-.936.546-.107 1.057-.073 1.53.105.472.178.991.511 1.557.999.467.402.806.788 1.015 1.157.208.367.325.746.346 1.134.021.387-.058.78-.237 1.18l-1.71-.878c.158-.326.218-.627.179-.9-.038-.274-.212-.54-.52-.807-.318-.274-.638-.4-.96-.38-.324.02-.686.263-1.088.73-.322.373-.486.71-.49 1.013-.009.403.17.761.536 1.076.162.138.33.238.506.298.176.058.35.077.525.058.107-.012.239-.06.4-.146l1.204 1.48c-.42.21-.84.311-1.26.301zm-91.796-9.825v-60.222c0-1.001.802-1.8 1.825-1.8h100.917c1.022 0 1.825.799 1.825 1.8v65.838a69.711 69.711 0 0 0 -3.368-3.367v-57.837c0-1.41-1.113-2.553-2.488-2.553h-92.854c-1.375 0-2.49 1.142-2.49 2.553v57.837m57.662-23.7-6.28-29.575h6.706l.92 5.317h2.52c-.044.411-.185.877-.243 1.439-.076.726-.242 2.055-.242 2.055s-.26.263-.462 1.055c-.128.499-.085.493-.553 1.03-.467.535-.693.351-.693.351l.222.214-.461.39s-.097.092.74.405c.378.141.7-.074.728.626.028.696-.57.684-1.51 1.468-.968.805-2.327.991-2.327.991s.41.31.391.655c-.029.556-1.108 1.226-1.142 1.29-.096.176.427.296 1.405.238.286-.018.214.417.214.417s.26.062.878-.482c.484-.425 1.268-.209 1.298-.063.222 1.078-.497 1.493-.8 2.242-.3.749-.657 1.353-.657 1.353s.322.13.597.484c.277.354-.235 1.186-.235 1.186s.2-.156.272-.16c.071-.003.182.163.182.163s.176-.354.65-.691c.481-.341.71-.413 1.01-.22.58.377-.466 1.7-.204 2.125.102.168.108.449.108.449s.306-.603.736-.477.296 1.05.43 1.546c.118.435.173.209.204.32l.118.423s.107-.002.289-.503c.101-.273.09-.076.267-.428.119-.239.286-.642.446-.915.223-.378.542-.404.542-.404l-.023-.244.122-.153s-.138-.116-.214-.7c-.06-.44-.157-.647-.091-.792.05-.112.91.093.91.093l.019-.271.235-.182s.014-.567-.34-.866c-.565-.474-.597-.313-.78-1.185-.181-.872-.422-1.545-.36-1.621.06-.076.676.346 1.057.622.38.275.95.602.95.602s-.078-.547.004-.526c.824.217 1.377.166 1.377.166s-.728-1.605-.742-1.799c-.01-.146.405-.9.405-.9s-1.076-.316-1.456-.591c-.381-.275-.523-.545-.983-.834-.454-.284-.642-.674-.68-1.508-.02-.44.67-.988.67-.988s-.022-.144-.707-.479c-.285-.139-.095-.228-.426-.641-.198-.246-.189-.468-.621-.63-.392-.15-.476-1.661-.476-1.661s.126-1.418.214-2.066c.074-.547.148-1.02.258-1.418h1.853l.879-5.317h6.722l-5.404 29.575zm-12.384-.568c-5.112 0-8.178-3.531-8.178-7.616 0-4.566 4.252-6.88 6.63-8.28 2.799-1.638 4.944-3.52 4.944-6.74 0-3.315-1.755-5.475-4.792-5.475-4.339 0-6.13 4.554-6.772 6.791l-1.096-.24c.402-2.503.72-5.238 1.095-6.529.716-.289 1.576-.646 2.551-.925.858-.261 2.184-.471 3.482-.475 5.056.004 8.706 3.43 8.706 8.262 0 5.158-4.2 7.329-6.838 8.852-2.794 1.638-4.812 3.235-4.812 6.199 0 2.504 1.404 4.799 4.216 4.799 3.46 0 4.5-2.99 5.257-5.496l1.1.222c-.322 2.408-.573 4.086-.747 5.769-1.094.299-2.515.882-4.746.882zm-19.383-.53v-.979c3.14-.321 3.466-.77 3.466-4.228v-18.052c0-3.458-.326-3.908-3.466-4.191v-.979h10.24v.979c-3.178.283-3.465.733-3.465 4.19v18.053c0 3.458.287 3.907 3.465 4.228v.978zm46.913-26.626a.94.94 0 0 1 -.955-.936c0-.544.44-.94.955-.94.511 0 .948.396.948.94a.936.936 0 0 1 -.948.936zm0-.156a.758.758 0 0 0 .76-.78c0-.452-.336-.785-.76-.785-.43 0-.766.333-.766.785 0 .444.336.78.766.78zm-.363-.24v-1.083h.164v.469h.19l.285-.469h.183l-.308.476c.16.02.282.104.282.299 0 .213-.127.307-.384.307zm.164-.14h.223c.115 0 .236-.025.236-.16 0-.165-.124-.175-.262-.175h-.197z" fill="#fff" transform="matrix(.85882 0 0 -.85882 61.434 28.876)"/><path d="m-20.15 140.68c-1.87-.047-9.414-.803-10.522-9.85 0 0-.943-4.436-1.414-5.734-.216-.261-.394-.758.535-1.322-.618-1.154-.455-2.083-.374-2.442l-.006-.029.132-.971c-.189-2.714 2.477-6.069 3.202-6.813.596-.61.909-.936 1.078-1.112-.254-1.688-1.07-5.251-5.004-6.357-5.033-1.417-7.09-7.862-7.658-12.003-.575-4.141-1.138-8.806-1.624-15.416-.3-4.085-.035-6.762.215-8.33l.012-.128s.065-.363.098-.58c.022-.114.038-.243.057-.333.031-.155.052-.224.098-.404l.04-.164c-.004.013-.004.04-.007.054.14-.519.341-1.08.647-1.575l-.03.032c.036-1.318.915-1.981 2.236-2.236l.045-.046-1.035-1.763c-.241-.239-.512-.54-.774-.82-.403-.43-.807-.904-1.227-1.423-.202-.244-.377-.449-.567-.699-.07-.093-.135-.185-.204-.28a9.974 9.974 0 0 1 -.54-.826c-1.643-2.493-2.914-5.567-2.467-8.886.003-.07.016-.132.025-.199.218-1.405.74-2.844 1.684-4.293l-.038.009c2.314-7.223 1.538-8.855 1.538-8.855-5.02-10.024-1.821-26.486-1.821-26.486-2.156-.262-4.554-2.997-4.554-2.997-4.877-1.785-7.185-3.792-10.65-5.855-3.464-2.062-3.316-3.742-3.316-3.742-1.392-.787-2.03-1.76-2.332-2.602-2.399-.889-4.73-1.963-4.73-1.963l-4.2-3.523c2.18 1.949 4.2 3.523 4.2 3.523s-8.096-1.713-12.392-7.917c-4.298-6.205.866-12.298 4.649-14.007 3.78-1.712 7.255 8.44 10.654 8.77 3.402.326 8.502 6.596 8.502 6.596 1.8-1.349 4.268-.099 6.92 1.21 2.653 1.315 4.44 2.436 10.744 3.335s5.471 6.09 5.471 6.09c4.674 1.603 5.393 6.048 5.448 6.433.31.694.531 1.241.714 1.74a33.148 33.148 0 0 1 -.063-.22c3.69 5.891 6.285 17.614 6.285 17.614l.42.979-.014-.062s4.15 2.626 7.814 1.502c3.666-1.124 3.614-.53 5.169-.384 1.552.148 3.782 1.145 5.175-2.016 0 0-.263-1.305.542-3.477-.427-5.09 2.73-8.249 2.73-8.249-3.076-3.848-.442-5.674.143-6.878.583-1.203.491-4.3.491-4.3s-.177-.153.026-1.487v-.002c-.015-.034-.046-.066-.058-.101-.501-1.469-2.92-8.04-.248-15.03 0 0 .051-1.675 1.081-2.151.067-.036.15-.067.232-.098l.011-.005h.002c.295-.112.664-.202 1.173-.244 4.888-.406 8.65 1.591 9.873 4.381 1.22 2.788 9.492 6.415 9.095 10.616-.196 2.124-.965 3.893-2.134 4.519-.105.115-.579.592-2.305 1.161-.03.03-.057.048-.087.077h.002s-4.157 4.084-3.756 7.693c.007.065.01.155.017.221-.001-.06.011-.166.006-.203 1.949 9.56.612 10.9.89 16.485.28 5.607-3.994 14.409-4.079 15.794-.08 1.34-.25 2.893-2.018 4.027a96.985 96.985 0 0 1 -4.831 4.324.545.545 0 0 1 .546.454.545.545 0 0 1 -.492.593c-.448.042-.918.051-1.402.031-.19.153-.376.303-.568.454h.003a.545.545 0 0 1 .57.519.545.545 0 0 1 -.518.571c-.368.018-.717-.002-1.069-.013.782.497 2.121 1.657 1.48 3.73-.044.146-.038.1-.078.228-.04.217-.187.854-.61 1.742-.052.114-.113.273-.136.295-.248.463-.547.925-.956 1.329-1.433 1.413-.173 1.91-.173 1.91h-.03l.008.006s.603 6.376-1.024 9.145c0 0 .083 2.829.927 5.177.576 1.604-.11 3.012-.608 3.778 11.859-.9 25.313 4.283 25.995 4.741.75.501 2.753-.235 2.753-.235 4.216-2.081 6.773-1.968 6.773-1.968 1.656-1.443 3.41-1.681 3.41-1.681l.055.011c.968-.303.753.895 1.598.657.939-.261 3.111-.06 3.111-.06 1.391.11.289 1.256 1.222 1.935.94.675.29 1.796-.232 3.19-.194.524-.569 1.116-.983 1.68.209-.136.553-.31.998-.268-.019-.006-.073-.034-.073-.034 2.882-.279-.205 2.458-.205 2.458-1.69 2.128-4.102 2.33-6.156 3.267-2.05.94-5.77-.428-5.77-.428-23.5-3.787-17.366-2.626-24.852-1.9-1.71.165-3.205.19-4.51.138 1.377 4.137 4.338 13.006 5.509 16.513.693.454 1.295.811 1.626.923 1.773.606 3.38 4.612 3.15 6.387a1.778 1.778 0 0 1 -.412.943c.206.173.361.444.356.674 0 0 2.74 1.318 1.19 3.59 0 0 2.371 2.373-.388 3.328-.036.023-.049.027-.115.053-.011.003-.016.008-.027.012l.006-.01c-.16.062-.387.125-.769.131a4.993 4.993 0 0 1 -.289-.009v.001h.008l-.006.001.053.485a.545.545 0 0 1 .002.006l1.29 9.2a.545.545 0 0 1 -.465.616.545.545 0 0 1 -.615-.466l-1.29-9.196a.545.545 0 0 1 0-.006l-.072-.386a6.355 6.355 0 0 1 -1.253.047l.034 9.97a.545.545 0 0 1 -.544.546.545.545 0 0 1 -.546-.544l-.034-10.084a.545.545 0 0 1 .01-.047c-1.286-.3-2.776-1.053-4.189-2.73 0 0-4.155-5.137-3.627-8.48-5.598-4.747-9.311-4.652-11.127-4.1 2.536 4.419 2.068 10.725 1.881 12.443.481.11.786.226.95.32.573.332.698.587.686.757h.028s-.395.621-.521 2.867c-.13 2.251 1.929 14.296-12.117 15.494 0 0-.152.008-.42.001zm23.822-35.58c-1.134-4.886-2.641-11.158-3.5-13.795-3.052-.325-4.517-1.03-4.694-1.118a6.17 6.17 0 0 0 -.098-.018c1.794 1.488.998 3.558 2.297 7.682.702 2.216 3.378 5.013 5.995 7.25zm-14.877-18.407-.071-.085.001.008v.001z" transform="matrix(.85882 0 0 -.85882 71.644 120.82)"/><path d="m-23.017 137.387c-6.871-.102-7.57-10.444-7.643-12.61 2.457-1.192 8.867-3.637 18.592-2.627-.69.502-1.245 1.16-1.678 1.933-.401-.144-.87-.278-1.194-.263-.68.032-.837 1.068-.356 1.743.23.319.586.268.857.16-.458 1.937 1.292 10.335-7.39 11.585-.416.06-.811.085-1.188.08zm-1.602-4.304c.478.024.663-.63.714-1.239.07-.902-.748-.541-1.965-.722-1.218-.181.323 1.356.323 1.356.392.42.695.594.928.605zm13.956-.196c-.04-.002-.073-.023-.095-.069 0 0-.431-.608-.009-1.164.418-.554.975-.744 1.113-.375.121.323-.685 1.623-1.009 1.608zm.91-3.357c-.318-.005-.717-.107-.582-.605.21-.801.863-2.118.863-2.118s.546-1.614 1.027-.116c.478 1.499.246 2.609-.138 2.713-.382.1-.817.098-.817.098s-.163.03-.353.028zm-15.576-.135c.181 0 .42-.006.72-.024.802-.047.232-1.285-.628-2.854-.86-1.574-1.202.29-1.202.29l-.233 1.37c-.234 1.372.896 1.205.896 1.205s.145.014.447.013zm8.596-3.674c.221.002.37-.01.41-.047.209-.188.492-.85.252-1.683 0 0-.05-.193-.434-.264-.382-.072-5.08.076-5.065.633.014.557.172.782.933.926.62.118 2.943.426 3.904.435zm28.755-1.747a4.993 4.993 0 0 1 -.289-.01l-.003-.03-.098.025c-6.183-.396-6.962-3.173-6.962-3.173-1.387-1.138-2.506-5.79-2.794-7.07 1.742.931 4.78 2.17 7.047.928 0 0 1.338-.66 1.035.966-.149.79.315 1.143.858 1.1-.043.334.238.4.568.692.43.384-.856 1.557-.814 1.967.043.411 1.019.041 2.026.435 1.006.397-1.661 1.478-1.661 1.478-.424 1.486 1.584.148 2.465.526.879.372-.595 2.019-.61 2.035-.16.061-.387.124-.768.13zm.79-.134c.049-.015.071-.038.118-.054-.037.023-.05.027-.119.054zm-43.066-1.268c-.784.122-1.78-.615-1.63-1.54 0 0-.024.223-.041.3l-.006-.029.132-.971c.002.025-.005.052-.003.077 0 0 .321-1.973 1.42-3.165 0 0 .638-3.29 2.038-2.426 0 0 .85-.888 1.118-1.734.64-1.396 3.313-9 8.56-9.186 2.216-.081 3.716.684 4.726 1.668.263 1.541-.244 3.438-.615 3.988-.424.63-1.657 1.972-2.962 1.46-1.304-.514-3.044 1.08-3.044 1.08 1.012.132 1.387 1.316 1.553 1.653.169.337 1.097.088 1.608-.794.51-.886.842.004 1.518.307.672.296.725-1.306.725-1.306 2.834-1.924 3.416-.11 3.416-.11.907 1.62 1.549 4.068 1.96 6.06-.338-.978-.832-1.862-1.553-2.217-1.969-.974-4.42 1.018-4.689 1.923-.262.904-.857 1.008-1.456.848-.593-.158-1.522-1.902-2.404-2.376-.879-.472-4.436-.856-5.827 1.711-.581 1.071-.587 2.038-.4 2.804-.503-.825-1.277-2.38-.816-3.565l-.986-.55s-1.388 2.565-1.454 4.795c-.023.838-.417 1.221-.888 1.295zm39.566-.036c.46-.012.346-.542-.424-1.404-1.294-1.451-1.155-1.401-.27-1.257.882.148 1.777-1.575.803-1.902-.976-.33-2.42-.433-2.042-1.548 0 0-1.49.27-2.513-.152 0 0 .68 4.192 2.717 5.505.83.533 1.413.767 1.729.758zm-28.795-12.019c.598.004 1.668-.986 2.662-.906 1.098.092 1.353-.456 1.353-.456-.888-.3-1.52-.515-1.514-1.147.002-.632-.495-2.492-1.722-1.78-1.228.71.113 2.573.113 2.573-1.099-.09-3.974 1.33-3.675 1.287.294-.04 2.062.138 2.613.394a.405.405 0 0 0 .17.035zm-7.873-6.328c-1.773.026-3.736-.33-5.885-1.243 0 0-4.655-2.323-5.59-7.582-.935-5.266-1.41-14.078-2.058-17.264-.643-3.16-.828-7.706-.404-9.348.14-.52.34-1.083.648-1.58.079-.106 1.443-1.852 3.421-.163 1.892 1.605 3.04 5.148 6.238 7.757-1.21-.834-3.669-2.212-6.566-2.106 0 0 2.982 4.075 1.8 7.35-1.186 3.275 2.52 5 5.667 6.247 0 0-3.63-3.862.079-2.568s3.925.862 6.168 1.372c2.245.51 9.558 2.015 13.386 4.97 0 0-7.746-5.656-4.789-5.227 2.94.42 3.95 1.79 3.961 1.806l.005.006v.001l.07.076-.072-.085c-.01-.022-1.434-3.37 2.614-3.862 4.062-.497 5.332.977 5.332.977s3.988-2.723 6.703 2.775c0 0 10.962-2.016 17.601-.232 0 0 2.976 1.12 5.917.528 0 0 2.607-2.793 5.645-2.3 0 0 .84-1.25 2.419-1.117-.015.25.16.635 1.103 1.031 0 0-1.72.45-2.902.9-1.183.448-2.37 1.3-1.354 1.87 1.02.566 1.877.545 3.008-.414 1.13-.96 2.792-.443 3.873-1.913 0 0 1.243-1.815 1.61.01 0 0 .021.724-1.59 1.255-1.612.525-3.412 1.483-4.032 1.853-.62.371-1.696 1.17-2.743 1.22 0 0 .85 1.453 2.628.175 1.777-1.28 2.578-.202 3.706-1.162 1.133-.958 2.884-2.29 3.176-1.835.293.458.635 1.696-1.623 2.54-2.255.846-4.593 1.264-5.38 3.057 0 0 .247.128.62.136.371.008.869-.103 1.367-.584.998-.958 2.367-1.166 2.337-.548-.03.615.806-.533 1.665-.822.538-.183 1.359-1.02 2.041-1.95.208-.136.552-.31.998-.268.221.076 1.491.606-1.193 2.422-2.915 1.97-4.016 1.902-5.207 2.564-1.194.67-2.325.697-3.302.412-.975-.278-18.916-3.457-22.771-3.08-3.846.376-10.978 1.162-15.642-.109 0 0-3.944 3.608-10.926 6.68 0 0-4.096 7.263-11.777 7.372zm-5.816-9.15c.613.004.803-.46.803-.46-.828.167-1.261-1.295-1.604-1.893-.343-.597-3.05-.841-3.844-.501-.788.343-.464.71.169.826.634.12 2.189 1.03 3.549 1.75.383.202.687.276.927.277zm1.097-.841s3.181-1.525 6.888-.91c3.71.616 7.304 1.097 8.653.817 0 0-.491-1.578-2.165-1.763-1.672-.181-2.288-.165-3.538-.46-1.246-.292-2.398-.975-3.454-.882-1.063.09-2.615-.727-1.381-1.144 1.233-.415 3.288-1.267 6.929-.221 0 0-5.31-4.401-9.578-1.849 0 0-8.368-4.533-6.59-.33 0 0 .5.82-.55 1.618 0 0 5.335 2.936 4.786 5.124zm16.66-.838s1.231-.033 2.934-1.927c0 0-2.465-3.53-3.41-2.632-.949.9-1.547 1.431-1.547 1.431s1.971 2.34 2.023 3.128zm10.893-3.173a6.17 6.17 0 0 0 -.099-.018c-.011-.01-.018-.02-.03-.03 0 0 .119.043.129.048zm3.212-1.562c-.848-.95 3.703-1.904 3.703-1.904-2.444-5.263-5.916-1.65-5.916-1.65-.021-1.587-3.624-1.637-3.624-1.637-5.283.097-.638 4.578-.638 4.578.773-1.372 2.998-.868 3.791-.192.793.674 2.684.805 2.684.805zm-.608-8.657-.15-.428c.648-1.455 1.118-4.075-1.429-7.299 2.565-.4 1.466-6.419.776-8.319-.824-2.285 2.08-2.108 2.179-2.102l.008.006s.603 6.376-1.024 9.145c0 0 .084 2.829.928 5.177.575 1.604-.109 3.012-.607 3.778-.226.017-.456.02-.68.042zm-39.674-9.656.013-.14s.069-.372.106-.61c-.037.189-.078.494-.119.75zm.17-1.05c.03-.153.049-.217.094-.393-.02.074-.042.154-.094.393zm17.181-.036a2.628 2.628 0 0 1 -.105-1.034c.87-4.645-.753-4.668-.753-4.668s-3.989.975-7.209-1.029c-3.223-2.01-5.371-.33-5.371-.33l1.047 2.673a8.292 8.292 0 0 0 -1.807.129l.045-.046-1.036-1.763c-.24-.239-.511-.54-.773-.82.456.493.778.815.778.815-1.12-4.782 3.502-3.96 4.846-4.005 1.342-.044 5.733 4.069 12.827 1.36 1.9-.723 2.892-1.763 2.892-1.763-.035-.583.052-.592.586-1.17.253-.275.536-.27.764-.19.018.252.083.506.204.75.464.939 1.532 1.356 2.385.936.852-.421 1.17-1.523.709-2.463-.462-.936-1.533-1.352-2.385-.933-.143.07-.263.165-.375.27-1.273-1.44-1.793-3.012-1.793-3.012l-.87-.234c.602.837.452 1.459.452 1.459-.642-.546-4.957-3.012-9.235-3.38-4.275-.37-5.265-1.12-5.265-1.12-.464 2.828-1.847 1.53-1.847 1.53-.337-2.689-1.627-3.291-3.41-3.896-1.792-.608 1.92 3.39 2.365 3.792.444.4-1.156 2.43-2.683-.663-1.527-3.09-2.969-3-5.315-1.468-.363.237-.543.609-.606 1.053.22-1.399.74-2.831 1.68-4.274.109-.032 4.092-1.165 8.175.62 4.14 1.812 13.554 5.275 16.645 5.372 0 0-.305-3.905 2.464-4.866 0 0-.72-1.3-1.031-2.885.004-.62-.019-1.319-.073-2.104.065-.426.194-.838.4-1.226 1.048 2.944 2.173 6.126 3.338 9.425-.388.293-1.264 1.053-1.52 2.124-.333 1.379-2.193-.339-2.193-.339.44.692 1.12 2.488 1.12 2.488.372-.282.94-.159.94-.159 3.772 1.89 2.006 4.889 2.006 4.889.037.894 1.17 1.96 1.17 1.96-.732-.046-1.064 1.537-1.795 1.289-.733-.248-1.21-1.836-1.21-1.836-.491.65-2 1.29-3.71 1.322-1.705.03-1.955.558-1.27 1.943.557 1.131.866 3.122.962 3.82-2.05.86-3.928 1.514-5.16 1.657zm-17.77-9.029c-.06-.08-.117-.16-.177-.243.06.081.115.161.177.243zm-.735-1.096c-1.639-2.49-2.907-5.56-2.462-8.872-.108 2.28 2.606 6.291 3.06 6.945-.16.048-.39.121-.728.238-.548.19-.346.874.13 1.69zm42.21-.41c-.815-.207-.36-1.344-.36-1.344-.871-2.066-1.118-4.03-1.192-4.975.65.13 1.34.19 2.05.214.782.497 2.121 1.657 1.48 3.73-.044.143-.037.098-.077.223.006-.035.064-.237.064-.237-.169.69-1.154 2.593-1.966 2.39zm1.154-.11c.054-.1.087-.192.135-.291-.052.113-.112.269-.135.291zm-9.3-5.298c-.958-.917-2.03-.635-2.705-.291a4411.385 4411.385 0 0 0 -4.734-13.363c.131-.113.276-.22.432-.32a32.525 32.525 0 0 0 2.378 2.348 25.337 25.337 0 0 0 2.211 4.128c1.066 1.593 2.445 3.183 4.168 4.43l-.148-.054zm9.656-1.773c-5.387.262-8.914-2.962-11.168-6.332-.2-.3-.251-.533-.43-.83.473.66.92 1.347 1.498 1.912 3.035 2.97 7.235 4.653 10.669 4.796-.19.153-.377.303-.569.454zm1.916-1.532a.545.545 0 0 0 -.047-.038c-3.18.296-7.993-1.317-11.207-4.462-.231-.226-.452-.461-.667-.702 6.202 3.588 11.034 2.605 11.034 2.605-10.501-3.255-8.463-8.137-8.463-8.137 1.851 4.215 6.607 4.606 6.607 4.606-7.888-4.43-6.443-10.274-6.443-10.274 1.13 2.976 4.553 4.367 4.553 4.367-4.671-3.736-4.945-7.704-3.612-8.707 1.332-.995 1.876 3.44 1.876 3.44 1.221-3.594-.43-9.77-.43-9.77s-.262-1.305.543-3.477c.146 1.745.71 3.715 1.973 5.866 0 0 8.027.618 11.527-4.768.638-.983.99-1.743 1.151-2.368.58.837.962 1.839.484 2.748-1.083 2.068.054 4.76.054 4.76s-7.21 3.354-12.22 1.241c0 0 6.21 2.875 12.592 1.062 0 0-3.34 6.818-9.873 7.551 0 0-2.456 2.553.019 4.97 2.479 2.415 2.534 6.406-.088 8.464 0 0 3.39-2.051 5.316-3.194.056-.034.097-.072.15-.106a96.975 96.975 0 0 1 -4.829 4.323zm-24.74-3.59c-3.073-.742-16.46-4.343-18.584-11.256-2.396-7.814-1.607-9.66-1.308-11.025 0 0 1.913 7.808 7.449 12.617 0 0-6.676-11.053-7.616-17.887l-.467-4.888s5.879-3.859 5.906-9.224c0 0-1.388 5.064-6.082 6.893 0 0 3.287-3.76 3.085-8.367 0 0-1.307 4.22-4.034 5.946 0 0-2.341-.166-1.121-2.272 1.216-2.11 2.42-4.107 2.073-6.104 0 0-3.125 4.738-5.466 4.95-2.345.218-5.732-2.073-6.627-3.127-.899-1.056-1.117-3.026-.2-4.983 0 0-2.368 4.743-3.321-.62 0 0-2.041.82-1.352-1.218l-5.383-2.485s-.147.834.224 1.868a76.295 76.295 0 0 1 -4.73-1.963l-4.2-3.523c-4.024-3.596-8.64-8.537-2.427-7.7 0 0-2.304-8.112 4.402-1.712 6.708 6.404.707 7.053 4.598 8.062 0 0 1.292 1.06 2.17-1.224 0 0 2.217 1.37.034 5.378l4.69 2.005s4.168-4.062 5.63.15c0 0 3.41-1.833 3.83.578 0 0 5.454-1.764 4.126 3.36 0 0 3.978-3.811 3.647.206 0 0 1.737-.248 2.1.751.36 1.003.615 2.314 2.98 2.066 2.366-.25 6.996-.689 8.445 2.248l-.03-.135c.31.694.532 1.241.714 1.74.2.637 3.587 11.64 1.675 18.314 0 0 2.402 1.975 4.853 7.771 0 0-.904-3.392-1.976-5.039-1.07-1.645-.225-4.375 1.67-3.652l.42.979c.01.047.175.756.411 1.879a.545.545 0 0 0 -.152.002.545.545 0 0 0 -.288.716c.193.456.616 1.578 1.166 3.067.51 2.989.906 6.304.465 7.685-.887 2.779.153 3.65-.342 5.458-.224.812-.092 1.395-.033 1.993-4.885-8.294-10.579-13.639-10.579-13.639 5.562 5.778 8.624 12.942 9.555 15.36zm.195-4.758c-.038-1.423-2.137-6.41-3.164-8.732-1.029-2.324-.332-1.28-1.227-5.419-.897-4.132-2.921-.542-2.921-.542 4.41 6.371 7.312 14.693 7.312 14.693zm32.09-26.674c-.57-1.014-1.093-2.327-.615-4.879 0 0 1.584-.777 2.907-2.873 0 0-2.586 2.193-3.633 1.4 0 0-2.144-1.953-.933-2.419 1.201-.465 4.372-.614 8.499-4.548h.001s-4.157 4.084-3.756 7.693c.008.065.011.155.018.221.012.553-.217 2.068-2.489 5.405zm-5.161-11.886a1.77 1.77 0 0 1 -.518-.002c-.501-.071-1.12-.347-1.878-.953 0 0-2.53-1.462-2.866-2.1-.002-.003-.012-.01-.012-.014v-.002s-.177-.152.026-1.486c.616 1.419 3.702 2.52 3.702 2.52.198-3.379 3.204.436 2.23-3.039-.97-3.481-.603-4.406.746-4.698 1.347-.293.756 4.554.756 4.554.543-1.165 1.891-.709 1.891-.709-.973-2.878 2.359 1.152 2.359 1.152.369-2.125 2.96.999 2.96.999-.238-.4-.15-.785-.019-1.06 1.749 2.299 3.265 2.773 4.402 2.165-.105.115-.58.592-2.306 1.161 0 0-2.369 1.035-5.82-1.976-3.449-3.007-4.213 2.078-4.213 2.078s-.344 1.242-1.44 1.41zm3.934-13.242c-1.405-1.035-2.868-1.656-2.868-1.656-5.406-2.48-6.62-4.791-6.62-4.791s.05-1.676 1.08-2.152c-1.988 1.08 2.384 4.109 2.384 4.109s2.221 1.372 4.623 3.114c.528.383.979.845 1.402 1.376z" fill="#fffefe" transform="matrix(.85882 0 0 -.85882 71.644 120.82)"/><path d="m1.07 7.42c-38.49 0-69.71-31.208-69.71-69.68 0-16.623 5.852-31.867 15.578-43.843 1.755-2.124 3.005-3.616 5.13-5.646l-5.13-3.425v-59.036c0-1.96 1.62-3.562 3.586-3.562h100.918c1.966 0 3.586 1.601 3.586 3.562v67.843c9.843 12.015 15.756 27.372 15.756 44.106 0 31.527-20.959 58.178-49.716 66.771l-.252-.844-20.816-3.666.926 5.657c.049 0 .097.003.145.003v.88zm63.054-175.21a4.948 4.948 0 0 1 -2.509-.672 4.964 4.964 0 0 1 -1.837-1.828 4.897 4.897 0 0 1 -.674-2.505c0-.899.224-1.734.671-2.506a4.905 4.905 0 0 1 1.834-1.825 4.96 4.96 0 0 1 2.515-.668c.9 0 1.738.225 2.513.67a4.956 4.956 0 0 1 1.83 1.826 4.9 4.9 0 0 1 .672 2.503c0 .893-.225 1.726-.674 2.5a4.99 4.99 0 0 1 -1.836 1.83 4.923 4.923 0 0 1 -2.505.674zm0-.831c1.147 0 2.13-.408 2.946-1.225.817-.816 1.225-1.799 1.225-2.949s-.406-2.133-1.22-2.947c-.815-.814-1.8-1.222-2.95-1.222-1.156 0-2.14.406-2.954 1.22-.815.81-1.221 1.793-1.221 2.95 0 1.15.407 2.132 1.224 2.948.817.817 1.8 1.225 2.95 1.225zm-2.003-1.48v-5.382h.87v2.288h.515c.333 0 .599-.088.799-.268.199-.178.469-.57.81-1.177l.471-.843h1.062l-.65 1.048c-.275.438-.502.752-.681.944a1.64 1.64 0 0 1 -.574.416c.45.036.82.195 1.109.48.286.282.432.629.432 1.041 0 .273-.083.533-.246.776a1.342 1.342 0 0 1 -.654.52c-.273.104-.74.157-1.399.157zm.87-.73h.994c.51 0 .866-.06 1.067-.18.2-.12.301-.328.301-.624 0-.284-.104-.49-.312-.62-.208-.131-.536-.195-.988-.195h-1.063z" transform="matrix(.85882 0 0 -.85882 61.432 28.867)"/><g stroke-width=".411"><path d="m62.228 24.019c-32.181.067-58.234 26.146-58.234 58.327 0 32.224 26.12 58.33 58.358 58.33 32.24 0 58.358-26.106 58.358-58.33 0-26.957-18.283-49.621-43.133-56.313l-6.28 1.105c26.649 4.282 47.008 27.365 47.008 55.208 0 30.888-25.05 55.928-55.953 55.928-30.9 0-55.951-25.04-55.951-55.928 0-30.713 24.772-55.634 55.432-55.915zm44.952 97.928a59.87 59.87 0 0 1 -2.892 2.892v49.672c0 1.211-.957 2.192-2.138 2.192h-79.744c-1.181 0-2.139-.98-2.139-2.192v-49.672l-2.892 1.931v51.721c0 .86.688 1.546 1.567 1.546h86.67c.878 0 1.568-.686 1.568-1.546z" fill="#fff"/><path d="m62.353 35.99c-25.612 0-46.375 20.755-46.375 46.356s20.763 46.356 46.375 46.356c25.613 0 46.376-20.754 46.376-46.356s-20.763-46.356-46.376-46.356z" fill="#bee2b9"/><path d="m-37.65-14.363a2.352 2.352 0 0 1 -.914-.234c-.356-.167-.82-.502-1.39-1.003-.592-.52-1.004-1.001-1.236-1.443-.298-.566-.417-1.12-.355-1.657.06-.54.29-1.035.687-1.487.379-.43.82-.717 1.323-.861a2.617 2.617 0 0 1 1.557.042c.533.173 1.108.53 1.721 1.068.5.437.889.863 1.17 1.275.283.41.547.953.794 1.624l-1.557 1.773-2.47-2.168.756-.862 1.068.936.346-.392a4.043 4.043 0 0 0 -.368-.706 2.77 2.77 0 0 0 -.455-.513c-.377-.33-.755-.491-1.135-.482-.38.007-.768.236-1.164.687-.372.422-.538.824-.503 1.203.036.379.228.722.577 1.028.235.207.466.335.69.384.225.05.438.024.637-.075l1.35 1.573a2.141 2.141 0 0 1 -1.129.29zm-6.505-5.286-1.295-1.522 2.319-1.975-4 .005-1.287-1.51 4.188-3.57 1.298 1.521-2.307 1.965 3.977-.003 1.296 1.52zm-5.614-6.97-1.2-1.76 4.552-3.096 1.198 1.76zm100.965-3.59a1.653 1.653 0 0 1 -.812-.238c-.47-.269-.736-.642-.798-1.12-.063-.48.096-1.052.479-1.72l1.76-3.066 4.775 2.74-1.065 1.855-1.771-1.018-.58 1.011c-.426.742-.88 1.216-1.358 1.422-.21.09-.42.136-.63.134zm-102.777-.607a1.364 1.364 0 0 1 -.577-.143c-.4-.188-.759-.575-1.074-1.16l-1.89-3.507 4.845-2.61 1.743 3.236c.074.137.204.428.39.872.138.335.212.602.223.8.02.315-.03.6-.153.855-.12.254-.31.448-.56.583-.307.165-.618.202-.932.107s-.631-.338-.948-.728c.075.329.083.606.025.829a1.09 1.09 0 0 1 -.556.731c-.17.092-.35.137-.536.136zm103.275-1.33a.597.597 0 0 0 .262-.064c.182-.087.376-.31.58-.667l.26-.452-1.07-.614-.303.527c-.197.345-.28.61-.246.796a.555.555 0 0 0 .274.407.488.488 0 0 0 .243.067zm-103.716-.704c.071-.001.14-.02.211-.058a.457.457 0 0 0 .257-.36c.02-.159-.05-.387-.208-.68l-.443-.818-.923.496.45.83c.153.286.302.465.444.537.07.036.142.053.212.053zm1.99-.77a.488.488 0 0 0 .48-.453c.02-.182-.056-.434-.231-.758l-.517-.96-.98.528.515.955c.177.329.344.538.501.623a.513.513 0 0 0 .232.065zm107.584-2.043-5.017-2.26.876-1.941 5.017 2.26zm-113.696-2.095-.939-2.622 2.79-2.146-3.515.117-.945-2.635 5.183-1.854.585 1.634-3.95 1.413 4.404-.145.528 1.478-3.493 2.686 3.95-1.414.585 1.635zm115.497-1.907-5.229-1.712.666-2.034 1.826.598.722-2.2-1.827-.598.664-2.021 5.23 1.712-.664 2.023-2.117-.693-.72 2.199 2.117.694zm-118.615-7.718-.475-2.074 5.364-1.228.476 2.074zm119.635-.718a1.336 1.336 0 0 1 -1.012-.442c-.206-.224-.354-.55-.443-.974-.089-.425-.127-1.11-.115-2.051.006-.381-.018-.628-.07-.739-.053-.115-.122-.18-.209-.196-.116-.022-.228.022-.334.13-.106.109-.18.283-.225.526-.055.296-.043.538.038.726.08.189.237.332.47.429l-.455 1.946c-.545-.19-.905-.534-1.079-1.035-.174-.5-.18-1.184-.022-2.047.13-.705.303-1.245.52-1.623.216-.379.467-.643.753-.8.285-.155.567-.207.844-.156.426.079.737.34.936.784.202.44.302 1.135.3 2.083-.005.578.034.953.116 1.128.083.175.194.275.333.3.148.028.293-.03.436-.172.142-.14.241-.361.296-.66.074-.401.022-.73-.154-.986-.11-.157-.29-.282-.539-.372l.468-1.967a1.96 1.96 0 0 1 1.207 1c.272.508.3 1.338.087 2.49-.12.654-.296 1.184-.527 1.587-.23.403-.515.698-.852.884a1.565 1.565 0 0 1 -.768.207zm-116.404-3.675-.432-3.29-4.113.537-.279-2.11 5.458-.715.708 5.4zm119.262-4.042-5.496-.274.098-1.995 3.044.151-2.915-2.738.098-1.98 5.499.272-.101 1.995-3.025-.149 2.897 2.723zm-120.566-2.755-.458-1.865c.35-.096.614-.249.795-.457.18-.209.27-.516.268-.923-.002-.419-.116-.744-.342-.974-.228-.23-.65-.344-1.266-.341-.492.002-.855.102-1.087.297-.309.258-.462.627-.46 1.11.001.212.036.406.107.578.072.17.173.316.302.435.078.072.203.138.373.203l-.325 1.88c-.583-.238-1.014-.604-1.296-1.099-.281-.495-.424-1.175-.428-2.042-.005-1.107.236-1.965.724-2.572.488-.608 1.188-.913 2.099-.917.683-.004 1.245.166 1.684.508.441.342.749.749.925 1.222s.266 1.083.27 1.83c.002.617-.068 1.126-.209 1.526-.14.399-.35.733-.628 1.003-.28.27-.629.47-1.048.598zm117.765-5.603c-.736-.001-1.344-.253-1.822-.753-.547-.572-.872-1.43-.976-2.57-.1-1.111.07-2 .513-2.67.443-.668 1.113-1.044 2.01-1.125.643-.058 1.191.05 1.646.325.455.276.804.658 1.048 1.146.243.489.398 1.12.468 1.892.07.76.013 1.405-.168 1.935-.182.53-.466.949-.851 1.256-.387.306-.9.49-1.544.55-.11.01-.219.014-.324.014zm-.073-2.123c.06-.001.124-.005.189-.011.614-.056 1.028-.219 1.242-.49.215-.27.303-.633.26-1.087-.04-.44-.192-.778-.458-1.012-.266-.235-.675-.328-1.23-.277-.563.051-.955.216-1.174.497-.219.279-.31.634-.27 1.059.04.445.192.785.455 1.024.23.207.56.308.986.297zm-115.483-3.571-1.221-.233.687-3.614-1.074-.203-.62 3.259-1.104-.211.62-3.26-.859-.162-.668 3.516-1.148-.217 1.066-5.609 5.407 1.028zm112.196-2.591-.418-2.088 5.397-1.076.417 2.087zm.401-3.857a1.392 1.392 0 0 1 -.808-.271c-.392-.282-.7-.791-.923-1.528l-1.03-3.383 5.266-1.6.623 2.048-1.954.592.338 1.113c.248.82.285 1.474.107 1.966-.178.49-.533.816-1.063.977-.194.059-.38.088-.557.085zm-111.191-.562-1.185-.386 1.143-3.496-1.039-.34-1.03 3.155-1.069-.348 1.03-3.156-.83-.27-1.111 3.404-1.112-.362 1.773-5.427 5.232 1.706zm111.008-1.487a.543.543 0 0 0 .184-.025c.171-.051.288-.174.349-.366.062-.193.032-.485-.087-.88l-.153-.497-1.18.359.176.58c.115.38.253.623.41.725.099.064.199.1.3.104zm-3.024-4.522-1.182-2.521 2.575-2.4-3.49.449-1.189-2.536 4.985-2.335.737 1.572-3.8 1.78 4.37-.561.666 1.42-3.224 3.005 3.799-1.778.738 1.571zm-105.917-.347-.983-1.619a2 2 0 0 1 -.18-.416 2.122 2.122 0 0 1 -.116-.432 2.561 2.561 0 0 1 .056-.585c-.188.261-.36.455-.519.58a1.768 1.768 0 0 1 -.779.373c-.27.05-.545.01-.822-.125a1.303 1.303 0 0 1 -.666-.674 1.614 1.614 0 0 1 -.088-.974c.07-.352.247-.823.532-1.415l1.535-3.196 4.961 2.382-.927 1.929-2.008-.965-.08.168a1.06 1.06 0 0 0 -.112.524c.01.13.082.307.214.53l1.022 1.75zm-2.121-4.046a.487.487 0 0 0 .18-.025.584.584 0 0 0 .303-.236 3.89 3.89 0 0 0 .312-.473l.387-.806-1.015-.486-.403.84c-.167.347-.239.606-.214.773.024.168.118.29.28.367a.451.451 0 0 0 .17.046zm6.812-4.913-3.474-2.27-1.189 1.819-1.134-.742 3.545-5.417 1.134.742-1.191 1.817 3.475 2.271zm96.136-.511-1.288-1.941 3.163-5.189 1.2 1.81-.572.777 1.336 2.016.946-.214 1.23 1.853zm.532-1.78 2.065-.468-.83-1.252zm-3.781-2.96-1.415-1.608 1.441-1.27-1.53-1.735-1.442 1.271-1.41-1.597 4.13-3.638 1.41 1.596-1.672 1.472 1.53 1.736 1.672-1.47 1.415 1.604zm-5.429-6.717c-.14-.003-.28-.02-.419-.047-.558-.113-1.166-.452-1.822-1.018-.84-.723-1.328-1.467-1.466-2.234-.14-.767.09-1.495.684-2.185.446-.517.942-.828 1.49-.936.546-.107 1.057-.073 1.53.105.472.178.991.511 1.557.999.467.402.806.788 1.015 1.157.208.367.325.746.346 1.134.021.387-.058.78-.237 1.18l-1.71-.878c.158-.326.218-.627.179-.9-.038-.274-.212-.54-.52-.807-.318-.274-.638-.4-.96-.38-.324.02-.686.263-1.088.73-.322.373-.486.71-.49 1.013-.009.403.17.761.536 1.076.162.138.33.238.506.298.176.058.35.077.525.058.107-.012.239-.06.4-.146l1.204 1.48c-.42.21-.84.311-1.26.301zm-30.766-31.275-6.28-29.575h6.706l.92 5.317h2.52c-.044.411-.185.877-.243 1.439-.076.726-.242 2.055-.242 2.055s-.26.263-.462 1.055c-.128.499-.085.493-.553 1.03-.467.535-.693.351-.693.351l.222.214-.461.39s-.097.092.74.405c.378.141.7-.074.728.626.028.696-.57.684-1.51 1.468-.968.805-2.327.991-2.327.991s.41.31.391.655c-.029.556-1.108 1.226-1.142 1.29-.096.176.427.296 1.405.238.286-.018.214.417.214.417s.26.062.878-.482c.484-.425 1.268-.209 1.298-.063.222 1.078-.497 1.493-.8 2.242-.3.749-.657 1.353-.657 1.353s.322.13.597.484c.277.354-.235 1.186-.235 1.186s.2-.156.272-.16c.071-.003.182.163.182.163s.176-.354.65-.691c.481-.341.71-.413 1.01-.22.58.377-.466 1.7-.204 2.125.102.168.108.449.108.449s.306-.603.736-.477.296 1.05.43 1.546c.118.435.173.209.204.32l.118.423s.107-.002.289-.503c.101-.273.09-.076.267-.428.119-.239.286-.642.446-.915.223-.378.542-.404.542-.404l-.023-.244.122-.153s-.138-.116-.214-.7c-.06-.44-.157-.647-.091-.792.05-.112.91.093.91.093l.019-.271.235-.182s.014-.567-.34-.866c-.565-.474-.597-.313-.78-1.185-.181-.872-.422-1.545-.36-1.621.06-.076.676.346 1.057.622.38.275.95.602.95.602s-.078-.547.004-.526c.824.217 1.377.166 1.377.166s-.728-1.605-.742-1.799c-.01-.146.405-.9.405-.9s-1.076-.316-1.456-.591c-.381-.275-.523-.545-.983-.834-.454-.284-.642-.674-.68-1.508-.02-.44.67-.988.67-.988s-.022-.144-.707-.479c-.285-.139-.095-.228-.426-.641-.198-.246-.189-.468-.621-.63-.392-.15-.476-1.661-.476-1.661s.126-1.418.214-2.066c.074-.547.148-1.02.258-1.418h1.853l.879-5.317h6.722l-5.404 29.575zm-12.384-.568c-5.112 0-8.178-3.531-8.178-7.616 0-4.566 4.252-6.88 6.63-8.28 2.799-1.638 4.944-3.52 4.944-6.74 0-3.315-1.755-5.475-4.792-5.475-4.339 0-6.13 4.554-6.772 6.791l-1.096-.24c.402-2.503.72-5.238 1.095-6.529.716-.289 1.576-.646 2.551-.925.858-.261 2.184-.471 3.482-.475 5.056.004 8.706 3.43 8.706 8.262 0 5.158-4.2 7.329-6.838 8.852-2.794 1.638-4.812 3.235-4.812 6.199 0 2.504 1.404 4.799 4.216 4.799 3.46 0 4.5-2.99 5.257-5.496l1.1.222c-.322 2.408-.573 4.086-.747 5.769-1.094.299-2.515.882-4.746.882zm-19.383-.53v-.979c3.14-.321 3.466-.77 3.466-4.228v-18.052c0-3.458-.326-3.908-3.466-4.191v-.979h10.24v.979c-3.178.283-3.465.733-3.465 4.19v18.053c0 3.458.287 3.907 3.465 4.228v.978zm46.913-26.626a.94.94 0 0 1 -.955-.936c0-.544.44-.94.955-.94.511 0 .948.396.948.94a.936.936 0 0 1 -.948.936zm0-.156a.758.758 0 0 0 .76-.78c0-.452-.336-.785-.76-.785-.43 0-.766.333-.766.785 0 .444.336.78.766.78zm-.363-.24v-1.083h.164v.469h.19l.285-.469h.183l-.308.476c.16.02.282.104.282.299 0 .213-.127.308-.384.308zm.164-.14h.223c.115 0 .236-.025.236-.16 0-.165-.124-.175-.263-.175h-.196z" fill="#faf318" transform="matrix(.85882 0 0 -.85882 61.434 28.876)"/></g><path d="m-20.15 140.68c-1.87-.047-9.414-.803-10.522-9.85 0 0-.943-4.436-1.414-5.734-.216-.261-.394-.758.535-1.322-.618-1.154-.455-2.083-.374-2.442l-.006-.029.132-.971c-.189-2.714 2.477-6.069 3.202-6.813.596-.61.909-.936 1.078-1.112-.254-1.688-1.07-5.251-5.004-6.357-5.033-1.417-7.09-7.862-7.658-12.003-.575-4.141-1.138-8.806-1.624-15.416-.3-4.085-.035-6.762.215-8.33l.012-.128s.065-.363.098-.58c.022-.114.038-.243.057-.333.031-.155.052-.224.098-.404l.04-.164c-.004.013-.004.04-.007.054.14-.519.341-1.08.647-1.575l-.03.032c.036-1.318.915-1.981 2.236-2.236l.045-.046-1.035-1.763c-.241-.239-.512-.54-.774-.82-.403-.43-.807-.904-1.227-1.423-.202-.244-.377-.449-.567-.699-.07-.093-.135-.185-.204-.28a9.974 9.974 0 0 1 -.54-.826c-1.643-2.493-2.914-5.567-2.467-8.886.003-.07.016-.132.025-.199.218-1.405.74-2.844 1.684-4.293l-.038.009c2.314-7.223 1.538-8.855 1.538-8.855-5.02-10.024-1.821-26.486-1.821-26.486-2.156-.262-4.554-2.997-4.554-2.997-4.877-1.785-7.185-3.792-10.65-5.855-3.464-2.062-3.316-3.742-3.316-3.742-1.392-.787-2.03-1.76-2.332-2.602-1.03-.755-4.699-1.952-4.73-1.963l-4.2-3.523c2.18 1.949 4.2 3.523 4.2 3.523s-8.096-1.713-12.392-7.917c-4.298-6.205.866-12.298 4.649-14.007 3.78-1.712 7.255 8.44 10.654 8.77 3.402.326 8.502 6.596 8.502 6.596 1.8-1.349 4.268-.099 6.92 1.21 2.653 1.315 4.44 2.436 10.744 3.335s5.471 6.09 5.471 6.09c4.674 1.603 5.393 6.048 5.448 6.433.31.694.531 1.241.714 1.74a33.148 33.148 0 0 1 -.063-.22c3.69 5.891 6.285 17.614 6.285 17.614l.42.979-.014-.062s4.15 2.626 7.814 1.502c3.666-1.124 3.614-.53 5.169-.384 1.552.148 3.782 1.145 5.175-2.016 0 0-.263-1.305.542-3.477-.427-5.09 2.73-8.249 2.73-8.249-3.076-3.848-.442-5.674.143-6.878.583-1.203.491-4.3.491-4.3s-.177-.153.026-1.487v-.002c-.015-.034-.046-.066-.058-.101-.501-1.469-2.92-8.04-.248-15.03 0 0 .051-1.675 1.081-2.151.067-.036.15-.067.232-.098l.011-.005h.002c.295-.112.664-.202 1.173-.244 4.888-.406 8.65 1.591 9.873 4.381 1.22 2.788 9.492 6.415 9.095 10.616-.196 2.124-.965 3.893-2.134 4.519-.105.115-.579.592-2.305 1.161-.03.03-.057.048-.087.077h.002s-4.157 4.084-3.756 7.693c.007.065.01.155.017.221-.001-.06.011-.166.006-.203 1.949 9.56.612 10.9.89 16.485.28 5.607-3.994 14.409-4.079 15.794-.08 1.34-.25 2.893-2.018 4.027a96.985 96.985 0 0 1 -4.831 4.324.546.546 0 0 1 .546.454.546.546 0 0 1 -.492.593c-.448.042-.918.051-1.402.031-.19.153-.376.303-.568.454h.003a.545.545 0 1 1 .052 1.09c-.368.018-.717-.002-1.069-.013.782.497 2.121 1.657 1.48 3.73-.044.146-.038.1-.078.228-.04.217-.187.854-.61 1.742-.052.114-.113.273-.136.295-.248.463-.547.925-.956 1.329-1.433 1.413-.173 1.91-.173 1.91h-.03l.008.006s.32 6.376-1.308 9.145c0 0 .367 2.829 1.211 5.177l-.608 3.778c11.859-.9 25.313 4.283 25.995 4.741.75.501 2.753-.235 2.753-.235 4.216-2.081 6.773-1.968 6.773-1.968 1.656-1.443 3.41-1.681 3.41-1.681l.055.011c.968-.303.753.895 1.598.657.939-.261 3.111-.06 3.111-.06 1.391.11.289 1.256 1.222 1.935.94.675.29 1.796-.232 3.19-.194.524-.569 1.116-.983 1.68.209-.136.553-.31.998-.268-.019-.006-.073-.034-.073-.034 2.882-.279-.205 2.458-.205 2.458-1.69 2.128-4.102 2.33-6.156 3.267-2.05.94-5.77-.428-5.77-.428-23.5-3.787-17.366-2.626-24.852-1.9-1.71.165-3.205.19-4.51.138 1.377 4.137 4.338 13.006 5.509 16.513.693.454 1.295.811 1.626.923 1.773.606 3.38 4.612 3.15 6.387a1.778 1.778 0 0 1 -.412.943c.206.173.361.444.356.674 0 0 2.74 1.318 1.19 3.59 0 0 2.371 2.373-.388 3.328-.036.023-.049.027-.115.053-.011.003-.016.008-.027.012l.006-.01c-.16.062-.387.125-.769.131a4.993 4.993 0 0 1 -.289-.009v.001h.008l-.006.001.053.485.002.006 1.29 9.2a.545.545 0 1 1 -1.08.15l-1.29-9.196v-.006l-.072-.386a6.355 6.355 0 0 1 -1.253.047l.034 9.97a.546.546 0 1 1 -1.09.002l-.034-10.084a.549.549 0 0 1 .01-.047c-1.286-.3-2.776-1.053-4.189-2.73 0 0-4.155-5.137-3.627-8.48-5.598-4.747-9.311-4.652-11.127-4.1 2.536 4.419 2.068 10.725 1.881 12.443.481.11.786.226.95.32.573.332.698.587.686.757h.028s-.395.621-.521 2.867c-.13 2.251 1.929 14.296-12.117 15.494 0 0-.152.008-.42.001zm23.822-35.58c-1.134-4.886-2.641-11.158-3.5-13.795-3.052-.325-4.517-1.03-4.694-1.118a6.17 6.17 0 0 0 -.098-.018c1.794 1.488.998 3.558 2.297 7.682.702 2.216 3.378 5.013 5.995 7.25zm-14.877-18.407-.071-.085.001.008v.001z" transform="matrix(.85882 0 0 -.85882 71.644 120.82)"/><path d="m-27.357 104.19c-1.773.025-3.736-.33-5.884-1.244 0 0-4.656-2.323-5.59-7.582-.936-5.266-1.411-14.077-2.058-17.263-.643-3.16-.829-7.706-.404-9.349.14-.52.34-1.083.647-1.58.08-.105 1.443-1.851 3.422-.163 1.892 1.605 3.04 5.149 6.237 7.758-1.21-.834-3.668-2.212-6.565-2.106 0 0 2.982 4.074 1.799 7.35-1.185 3.274 2.52 5 5.667 6.246 0 0-3.629-3.862.08-2.568 3.708 1.294 3.925.863 6.168 1.373 2.245.509 9.557 2.015 13.385 4.969 0 0-7.745-5.656-4.788-5.227 2.94.42 3.949 1.79 3.96 1.806l.005.006v.002l.07.076-.03-.037c2.274 2.802 6.006 3.422 6.558 3.501-.067.06-3.979 3.614-10.902 6.66 0 0-4.095 7.262-11.777 7.372zm-5.815-9.151c.613.004.802-.46.802-.46-.828.168-1.26-1.295-1.604-1.893-.343-.597-3.05-.84-3.843-.5-.788.342-.465.709.168.826.634.12 2.19 1.03 3.55 1.75.383.202.687.275.927.277zm1.097-.84s3.18-1.525 6.888-.91c3.709.616 7.303 1.097 8.652.817 0 0-.49-1.579-2.165-1.764-1.672-.18-2.287-.165-3.537-.46-1.246-.292-2.398-.975-3.454-.882-1.063.09-2.616-.727-1.382-1.144 1.233-.415 3.288-1.267 6.929-.22 0 0-5.31-4.401-9.577-1.85 0 0-8.368-4.532-6.59-.329 0 0 .5.82-.55 1.617 0 0 5.335 2.936 4.786 5.124zm16.66-.839s1.23-.032 2.934-1.926c0 0-2.466-3.531-3.41-2.632-.95.899-1.547 1.43-1.547 1.43s1.97 2.341 2.023 3.128zm14.368-23.576c-.139.438-.307.84-.51 1.186l-.001.002s.083 2.828.927 5.176c.13.364.18.714.198 1.052.005.101.001.2-.002.298a3.97 3.97 0 0 1 -.082.725c-.014.066-.024.136-.04.2a5.33 5.33 0 0 1 -.673 1.49l-.007.013c-.227.017-.456.021-.681.043l-.151-.428c.649-1.456 1.119-4.075-1.429-7.3 2.565-.4 1.467-6.418.777-8.318-.824-2.286 2.107-2.112 2.209-2.102 0 0 .44 4.887-.535 7.963zm-40.54.5.01-.11s.066-.372.102-.606c-.035.182-.074.468-.113.715zm17.346-1.057a2.628 2.628 0 0 1 -.106-1.034c.87-4.645-.753-4.669-.753-4.669s-3.988.976-7.208-1.028c-3.223-2.01-5.372-.331-5.372-.331l1.048 2.673a8.292 8.292 0 0 0 -1.808.13l.046-.046-1.036-1.764-.012-.022.016.018c-1.12-4.782 3.502-3.961 4.846-4.005 1.343-.044 5.734 4.068 12.828 1.36 1.899-.724 2.891-1.763 2.891-1.763v-.001h.03s.387 2.084 3.729 1.747c.008 0 .007.012.013.013-.508.643-1.994 1.27-3.684 1.301-1.706.031-1.955.559-1.271 1.944.558 1.13.866 3.121.962 3.82-2.049.86-3.927 1.514-5.16 1.657zm29.515-66.157a1.77 1.77 0 0 1 -.517-.001c-.502-.071-1.12-.347-1.878-.954 0 0-2.469-1.429-2.843-2.075l-.036-.04s-.046-.037-.065-.242-.012-.576.09-1.244c.615 1.42 3.701 2.52 3.701 2.52.198-3.378 3.205.437 2.23-3.038-.97-3.481-.602-4.406.747-4.698 1.347-.293.756 4.554.756 4.554.543-1.165 1.89-.709 1.89-.709-.972-2.878 2.359 1.151 2.359 1.151.369-2.125 2.96 1 2.96 1-.238-.401-.15-.785-.019-1.061 1.751 2.3 3.266 2.773 4.403 2.165a3.187 3.187 0 0 1 -.457.345c-.163.1-.358.21-.618.332l-.042.022c-.317.146-.706.302-1.188.462l-.025.008c-.069.03-2.395.983-5.795-1.983-3.45-3.007-4.213 2.076-4.213 2.076s-.345 1.242-1.44 1.41zm-69.948-7.866c-.17-.063-.302-.123-.47-.187a72.37 72.37 0 0 1 -3.728-1.54c-.13-.06-.53-.236-.53-.236l-4.201-3.521-.008-.008c-4.022-3.595-8.629-8.53-2.42-7.693 0 0-2.304-8.11 4.402-1.71 6.708 6.403.707 7.051 4.598 8.06 0 0 1.292 1.06 2.171-1.223 0 0 2.193 1.362.054 5.332l-.006.003c-.007.017-.007.026-.014.042-.273.618-.07.813-.07.813l.002.003-.004-.001s-.146.832.224 1.866zm73.884-5.376a15.995 15.995 0 0 0 -2.869-1.655c-5.408-2.48-6.621-4.793-6.621-4.793v-.001c0-.002.02-.41.149-.867.003-.013.003-.023.007-.036.142-.476.41-1.009.921-1.246-1.98 1.082 2.387 4.107 2.387 4.107s2.22 1.373 4.623 3.115c.527.383.978.845 1.402 1.375z" fill="#e6e3e4" transform="matrix(.85882 0 0 -.85882 71.645 120.821)"/><path d="m37.785 66.577-.039.04c-.199.2-.416.439-.63.666.387-.417.653-.682.66-.69zm22.182.71a.384.384 0 0 0 -.22.012c-.63.213-1.04 1.576-1.04 1.576-.002-.004-.01-.007-.014-.011-.005.002-.01.006-.017.005a6.181 6.181 0 0 0 -.508-.031 4.815 4.815 0 0 0 -.453.012 4.028 4.028 0 0 0 -.75.131 2.81 2.81 0 0 0 -.564.235 2.234 2.234 0 0 0 -.402.295 1.963 1.963 0 0 0 -.27.308 1.82 1.82 0 0 0 -.236.474.724.724 0 0 0 -.02.077h-.027c-.03.499.045.508.503 1.004.218.236.461.231.657.163.014-.216.07-.434.175-.644.398-.806 1.315-1.164 2.048-.804.731.362 1.005 1.308.609 2.115-.397.804-1.317 1.161-2.048.801a1.316 1.316 0 0 1 -.323-.231c-1.093 1.237-1.54 2.587-1.54 2.587l-.747.2c.517-.718.39-1.252.39-1.252-.552.469-4.259 2.586-7.933 2.902-3.671.318-4.521.963-4.521.963-.399-2.43-1.587-1.315-1.587-1.315-.29 2.31-1.397 2.827-2.928 3.346-1.54.522 1.65-2.91 2.031-3.257.382-.343-.993-2.086-2.304.57-1.312 2.653-2.55 2.576-4.565 1.26-.312-.203-.466-.522-.52-.904.189 1.201.636 2.432 1.443 3.671.093.027 3.514 1 7.02-.533 3.556-1.556 11.641-4.53 14.296-4.614 0 0-.007.608.104 1.328l3.049-1.524c-.025-.07-.063-.131-.081-.205-.286-1.184-1.883.29-1.883.29.378-.594.962-2.135.962-2.135.32.242.808.135.808.135 3.238-1.622 1.722-4.198 1.722-4.198.032-.767 1.005-1.683 1.005-1.683-.55.035-.838-1.003-1.322-1.12zm-24.403 1.835-.152.209.152-.21zm-.631.94c-1.408 2.14-2.497 4.776-2.115 7.62-.093-1.957 2.238-5.402 2.628-5.963a16.54 16.54 0 0 1 -.625-.206c-.47-.163-.297-.75.112-1.45zm36.25.353c-.699.178-.31 1.155-.31 1.155-.746 1.774-.958 3.46-1.022 4.272.558-.112 1.15-.163 1.76-.183 1.232-.784 1.75-1.929 1.205-3.396.013.063-.797-2.058-1.633-1.848zm.992.095c.046.086.075.165.116.25-.045-.097-.097-.23-.116-.25zm-7.988 4.55c-.822.788-1.743.545-2.322.25-.104.297-.193.544-.297.838l3.15-.056z" fill="#817e81"/><path d="m-2.722-2.216c-.958-.917-2.03-.635-2.704-.292a4411.494 4411.494 0 0 0 -4.734-13.362c.13-.113.275-.22.432-.32a32.525 32.525 0 0 0 2.377 2.347 25.337 25.337 0 0 0 2.212 4.128c1.066 1.593 2.445 3.185 4.168 4.431l-.148-.054zm-6.902-.563c-.38.057-.858-.235-1.22-.495l-.452-.376-1.422-.134c-.002-.027-.295-3.9 2.464-4.857 0 0-.721-1.301-1.031-2.886.004-.62-.019-1.318-.074-2.103.066-.426.194-.838.4-1.226 1.049 2.944 2.173 6.126 3.339 9.424-.388.294-1.264 1.054-1.52 2.125-.084.344-.263.495-.484.528zm16.56-1.211c-5.388.262-8.914-2.963-11.168-6.333-.2-.3-.252-.532-.43-.83.472.661.92 1.348 1.498 1.913 3.034 2.97 7.234 4.653 10.668 4.796-.19.153-.376.303-.568.454zm1.916-1.532a.545.545 0 0 0 -.047-.038c-3.18.296-7.995-1.318-11.208-4.462-.23-.227-.452-.461-.666-.702 6.201 3.588 11.033 2.604 11.033 2.604-10.5-3.254-8.462-8.137-8.462-8.137 1.85 4.215 6.606 4.607 6.606 4.607-7.888-4.43-6.442-10.274-6.442-10.274 1.13 2.976 4.552 4.367 4.552 4.367-4.67-3.736-4.945-7.705-3.612-8.708 1.332-.995 1.877 3.441 1.877 3.441 1.22-3.595-.43-9.77-.43-9.77v-.002s-.026-.349-.024-.742c0-.094.003-.185.01-.298.043-.59.175-1.4.55-2.418l.006-.015c.147 1.745.711 3.714 1.974 5.864 0 0 8.026.618 11.526-4.768.638-.983.99-1.743 1.152-2.369.579.838.961 1.84.483 2.748-1.083 2.068.054 4.761.054 4.761s-7.21 3.354-12.22 1.24c0 0 6.21 2.876 12.592 1.063 0 0-3.34 6.818-9.873 7.551 0 0-2.456 2.553.02 4.969 2.478 2.416 2.534 6.407-.088 8.465 0 0 3.39-2.052 5.315-3.195.057-.033.098-.07.151-.105l-.249.233c-.304.291-.705.668-1.544 1.432-.811.738-1.818 1.636-3.036 2.658zm-24.74-3.59c-3.074-.742-16.46-4.343-18.584-11.257-2.396-7.813-1.608-9.66-1.309-11.024 0 0 1.913 7.808 7.45 12.617 0 0-6.677-11.053-7.617-17.887l-.467-4.889s5.88-3.858 5.906-9.224c0 0-1.388 5.065-6.082 6.894 0 0 3.287-3.76 3.085-8.367 0 0-1.307 4.22-4.034 5.945 0 0-2.34-.166-1.12-2.272 1.216-2.109 2.42-4.107 2.072-6.104 0 0-3.124 4.739-5.465 4.952-2.345.217-5.732-2.074-6.627-3.128-.899-1.056-1.118-3.026-.2-4.983 0 0-2.368 4.743-3.321-.62 0 0-2.042.82-1.353-1.219l-5.378-2.483-.003-.002s-.203-.195.07-.813l4.689 2.005s4.169-4.063 5.63.15c0 0 3.41-1.833 3.83.578 0 0 5.454-1.765 4.126 3.36 0 0 3.979-3.812 3.648.205 0 0 1.737-.247 2.099.752.361 1.003.616 2.313 2.98 2.065 2.367-.25 6.997-.688 8.446 2.249l-.03-.135c.31.694.532 1.241.714 1.74.199.637 3.587 11.639 1.674 18.314 0 0 2.402 1.975 4.853 7.77 0 0-.904-3.391-1.976-5.038-1.069-1.645-.225-4.375 1.671-3.652l.42.978c.01.048.175.757.411 1.88a.545.545 0 0 0 -.152.001.545.545 0 0 0 -.289.717c.194.455.617 1.578 1.166 3.067.51 2.988.906 6.304.466 7.685-.887 2.779.152 3.65-.343 5.458-.223.811-.091 1.395-.032 1.993-4.885-8.294-10.58-13.639-10.58-13.639 5.562 5.778 8.625 12.942 9.556 15.36zm-42.977-53.864c.007-.017.007-.026.015-.043l.006-.003c-.01.017-.012.03-.021.046zm43.172 49.106c-.038-1.423-2.137-6.41-3.164-8.732-1.03-2.324-.333-1.28-1.228-5.419-.897-4.132-2.92-.542-2.92-.542 4.41 6.371 7.312 14.693 7.312 14.693zm32.089-26.674c-.569-1.014-1.092-2.328-.614-4.88 0 0 1.583-.776 2.906-2.872 0 0-2.586 2.193-3.633 1.4 0 0-2.144-1.953-.933-2.42 1.202-.464 4.373-.613 8.5-4.548s-.259.255-.642.695-.891 1.062-1.386 1.799c-.247.367-.491.764-.715 1.179v.001c-.224.416-.428.85-.595 1.295-.164.439-.29.886-.366 1.336l-.006.041c-.072.45-.094.903-.045 1.348.007.064.01.155.017.22.012.553-.217 2.069-2.488 5.406z" fill="#254465" transform="matrix(.85882 0 0 -.85882 66.525 73.157)"/><path d="m16.482 33.775a5.09 5.09 0 0 1 -.288-.008l-.003-.03-.098.025c-6.184-.396-6.963-3.173-6.963-3.173-1.387-1.138-2.505-5.79-2.793-7.07 1.742.931 4.78 2.17 7.047.928 0 0 1.337-.66 1.034.966-.148.79.316 1.143.859 1.099-.043.335.238.4.568.693.429.384-.856 1.557-.814 1.967.043.411 1.018.041 2.025.435 1.006.397-1.66 1.478-1.66 1.478-.425 1.486 1.584.148 2.465.526.878.372-.595 2.019-.61 2.035-.156.06-.385.119-.75.127zm-42.275-1.4c-.784.122-1.78-.615-1.63-1.54 0 0-.024.213-.042.294l-.004-.025.13-.958c0 .022-.004.045-.002.066 0 0 .321-1.973 1.419-3.165 0 0 .639-3.29 2.039-2.426 0 0 .85-.888 1.118-1.735.639-1.395 3.313-9 8.56-9.186 2.216-.08 3.716.685 4.726 1.669.262 1.541-.244 3.438-.615 3.987-.424.631-1.657 1.973-2.962 1.46-1.304-.513-3.044 1.08-3.044 1.08 1.012.132 1.386 1.317 1.552 1.654.17.337 1.098.088 1.609-.794.51-.886.841.004 1.517.306.672.296.726-1.305.726-1.305 2.834-1.924 3.416-.11 3.416-.11.907 1.62 1.548 4.068 1.96 6.059-.339-.977-.833-1.862-1.553-2.216-1.97-.974-4.42 1.018-4.69 1.923-.261.904-.856 1.008-1.455.848-.593-.158-1.522-1.902-2.404-2.376-.879-.472-4.436-.856-5.827 1.711-.581 1.071-.587 2.038-.4 2.804-.504-.825-1.278-2.381-.816-3.566l-.986-.55s-1.388 2.565-1.454 4.795c-.023.839-.418 1.222-.888 1.295zm39.565-.036c.461-.012.346-.543-.423-1.405-1.294-1.45-1.156-1.4-.27-1.256.881.147 1.777-1.575.803-1.902-.976-.33-2.42-.433-2.042-1.548 0 0-1.49.27-2.514-.153 0 0 .68 4.192 2.718 5.505.829.534 1.413.768 1.728.76zm-28.794-12.019c.598.004 1.667-.986 2.661-.907 1.098.092 1.354-.455 1.354-.455-.888-.3-1.52-.515-1.515-1.147.002-.632-.494-2.492-1.72-1.78-1.229.709.112 2.572.112 2.572-1.1-.09-3.974 1.33-3.675 1.288.294-.041 2.062.138 2.613.394a.405.405 0 0 0 .17.035zm54.811-17.039a4.12 4.12 0 0 1 -1.568-.152c-.975-.279-18.916-3.459-22.771-3.08-3.846.375-10.978 1.161-15.642-.111l-.025.021c-.565-.08-4.26-.7-6.533-3.47l-.066-.08c-.01-.021-1.434-3.369 2.613-3.862 4.062-.497 5.332.977 5.332.977s3.988-2.723 6.703 2.776c0 0 10.963-2.017 17.602-.233 0 0 2.975 1.12 5.916.529 0 0 2.608-2.793 5.646-2.301 0 0 .84-1.25 2.418-1.117-.015.25.161.636 1.103 1.032 0 0-1.718.45-2.901.9-1.183.447-2.371 1.3-1.354 1.87 1.019.566 1.876.544 3.007-.415 1.131-.96 2.792-.443 3.873-1.913 0 0 1.243-1.815 1.61.01 0 0 .022.725-1.59 1.256-1.611.525-3.412 1.483-4.032 1.853-.619.37-1.695 1.17-2.742 1.22 0 0 .85 1.452 2.628.174 1.777-1.279 2.578-.201 3.706-1.161 1.133-.958 2.884-2.29 3.176-1.836.293.458.635 1.696-1.623 2.54-2.255.846-4.594 1.264-5.38 3.057 0 0 .247.129.619.137s.87-.103 1.368-.585c.998-.957 2.368-1.165 2.338-.547-.03.615.806-.532 1.665-.821.537-.183 1.358-1.02 2.04-1.95.209-.137.553-.31.998-.268.222.075 1.492.605-1.192 2.421-2.915 1.97-4.017 1.903-5.208 2.565a4.418 4.418 0 0 1 -1.733.564zm-39.855-3.293-.094-.016v-.002c-.011-.009-.018-.02-.03-.029l.125.047zm3.217-1.56c-.848-.951 3.703-1.904 3.703-1.904-2.444-5.264-5.917-1.65-5.917-1.65-.02-1.588-3.624-1.637-3.624-1.637-5.283.097-.637 4.577-.637 4.577.773-1.372 2.998-.868 3.791-.192.793.674 2.684.806 2.684.806z" fill="#d4bb6a" transform="matrix(.85882 0 0 -.85882 67.813 43.357)"/><path d="m7.97 12.944c-6.872-.102-7.57-10.444-7.644-12.61 2.458-1.192 8.868-3.637 18.594-2.627-.69.501-1.245 1.16-1.679 1.933l-.013-.004a6.025 6.025 0 0 0 -.6-.183l-.033-.008c-.199-.046-.39-.076-.546-.069h-.002a.579.579 0 0 0 -.407.19h-.001l-.005.005a.879.879 0 0 0 -.2.463 1.427 1.427 0 0 0 .021.55c.043.182.118.362.23.522.003.004.003.01.006.014.005.006.011.008.016.014a.584.584 0 0 0 .159.142c.01.007.02.017.032.022.058.03.12.046.183.055l.04.004c.014 0 .028.004.042.004a.996.996 0 0 0 .356-.076c.009-.003.02-.002.03-.006-.458 1.938 1.291 10.336-7.39 11.586-.416.06-.812.084-1.189.079zm-1.603-4.304.007-.001.027.001a.435.435 0 0 0 .259-.094l.02-.011a.789.789 0 0 0 .198-.271c.001-.003.004-.004.005-.006v-.003c.112-.237.172-.55.197-.854.047-.596-.3-.64-.887-.655-.305-.01-.612-.006-1.042-.066l-.035-.003a.745.745 0 0 0 -.337.008c-.073.024-.112.07-.126.128v.006c-.023.119.052.29.166.468l.001.001v.002c.003.005.006.005.009.01.233.358.61.735.61.735.183.197.345.332.492.43.013.008.029.022.042.03.146.09.273.135.385.142l.01.003zm13.956-.196c-.04-.002-.073-.023-.096-.069 0 0-.43-.609-.008-1.165.418-.554.975-.744 1.113-.375.121.324-.685 1.623-1.01 1.609zm.91-3.358c-.319-.005-.717-.106-.582-.605.21-.8.863-2.118.863-2.118s.546-1.613 1.026-.115c.478 1.499.247 2.608-.137 2.712-.382.101-.818.099-.818.099s-.162.03-.353.027zm-15.576-.134.074-.003c.137-.002.3-.007.495-.016.057-.003.088-.001.15-.005.004 0 .006-.002.01-.003a.458.458 0 0 0 .22-.066l.009-.004.003-.003a.318.318 0 0 0 .117-.165c0-.002.002-.002.003-.003v-.002c.138-.441-.343-1.432-.988-2.609a2.223 2.223 0 0 0 -.3-.44c-.183-.198-.334-.225-.458-.16h-.002c-.002 0-.004.003-.006.004a.498.498 0 0 0 -.152.144l-.006.007c-.003.004-.004.01-.007.015-.09.13-.158.3-.202.443-.001.003-.003.006-.003.01-.035.112-.043.16-.052.2a3.085 3.085 0 0 1 -.016.066v.001l-.233 1.371c-.029.172-.037.32-.029.446.009.126.034.232.07.32.073.175.19.281.315.346l.024.009a.92.92 0 0 0 .33.085c.108.007.187-.002.187-.002l.09.003c.039.004.062.007.194.01h.163zm8.595-3.674c.217.002.363-.013.406-.047h.005v-.002l.005-.005a.805.805 0 0 0 .15-.211l.006-.008c.001-.002.001-.006.003-.008.05-.099.094-.22.127-.36l.003-.007v-.004a2.03 2.03 0 0 0 .048-.49v-.003a2.294 2.294 0 0 0 -.09-.586v-.002s-.013-.047-.074-.104a.7.7 0 0 0 -.36-.158c-.191-.036-1.46-.017-2.68.08h-.008a14.69 14.69 0 0 0 -1.64.207l-.005.002h-.002c-.003 0-.004.002-.007.003a2.733 2.733 0 0 0 -.517.148l-.007.003h-.002c-.002 0 0 .002-.003.002-.123.057-.194.118-.193.187v.001h-.002c0 .01.003.016.003.026a1.5 1.5 0 0 0 .037.292c.005.02.009.041.015.06a.592.592 0 0 0 .148.25c.06.06.142.111.243.156l.063.026c.106.04.232.075.385.105.016.004.023.008.04.01.016.004.077.01.096.014.337.06.99.155 1.71.242.008 0 .01.002.019.003h.006c.776.093 1.593.172 2.072.177z" fill="#fef116" transform="matrix(.85882 0 0 -.85882 45.032 13.946)"/></svg>