<svg viewBox="6 23.38 2167 1211.62" xmlns="http://www.w3.org/2000/svg" width="2500" height="1375"><path d="M384 587h-98L6 1225h104l225-520 119 275H268l-37.65 89 259.65 2 70 155h104zM1169 971l144 253-106 2-139-247H870v246h-98l-.53-638h305.4C1147 584 1293 612 1294 782c.64 108.99-67 162-125 189zm27.57-188.16C1196 682 1101.6 677 1060 677H871l-2 210 185.25.26c41.61-.01 142.91-.26 142.32-104.42zM1730 1141c41.05.22 78.04-10.3 114-28 33.53-16.5 57-38 84-69l62 63c-20.87 21.86-96.85 126.43-258 127-282 1-336-239-336-319 0-96.9 30.15-181.17 94.46-246.71C1554.77 602.77 1635.84 577 1732 577c112 0 207 62 253.16 123.98L1922 764c-25-37-94.99-93.62-196-95-73-1-230.47 48.97-228 248 .64 51.63 42 223 232 224zM54 28.91h73.97v74.1H54zM125.76 412.69V147.25H56.21v265.44zm462.59 2.21v-64.89c-10.26 0-18.95-.52-25.26-1.57-7.37-1.05-12.89-3.67-16.58-7.34-3.68-3.67-6.05-8.91-7.37-15.72-1.05-6.55-1.58-15.19-1.58-25.67v-92.74h50.78v-59.72h-50.78V43.29h-69.55v256.75c0 21.77 1.83 40.12 5.49 54.81 3.66 14.42 9.94 26.23 18.57 35.14s20.14 15.21 34.01 19.14c14.13 3.93 31.92 5.77 53.11 5.77zM988 412.69V23.38h-69.55v389.31zM400.34 173.77c-19.35-20.96-46.55-31.44-81.07-31.44-16.74 0-31.91 3.41-45.77 10.22-13.6 6.81-25.37 16.24-34.52 28.29l-3.92 4.98v-38.57h-68.45v264.33h69.55V271.23v9.69-4.72c.49-24.89 6.5-43.23 18.01-55.01 12.29-12.57 27.2-18.86 44.19-18.86 20.14 0 35.56 6.29 45.76 18.34 9.94 12.05 15.17 29.08 15.69 50.82v141.19h69.55V262.32c.27-37.73-9.67-67.59-29.02-88.55zm481.67 105.65c0-19.12-3.4-36.94-9.94-53.7-6.8-16.5-16.21-31.17-27.98-43.75-12.03-12.57-26.41-22.27-43.15-29.34s-35.3-10.48-55.44-10.48c-19.09 0-37.13 3.67-53.87 10.74-16.74 7.34-31.38 17.03-43.67 29.34s-22.23 26.98-29.29 43.75c-7.32 16.77-10.72 34.84-10.72 53.97 0 19.12 3.4 37.2 10.2 53.97s16.47 31.44 28.5 43.75 26.94 22.27 44.19 29.34c17.26 7.34 36.35 11 56.75 11 59.1 0 95.71-26.98 117.68-52.13l-50.21-38.25c-10.46 12.57-35.56 29.6-66.95 29.6-19.61 0-35.83-4.45-48.12-13.62-12.29-8.91-20.66-21.48-25.1-36.94l-.78-2.36h207.9zm-207.6-24.62c0-19.39 22.23-53.18 70.08-53.44 47.86 0 70.35 33.79 70.35 53.18zM1044.12 414c-7.46 0-13.68-2.42-18.65-7.27-4.98-4.84-7.46-10.88-7.46-18.11s2.51-13.3 7.52-18.23 11.21-7.39 18.59-7.39c7.46 0 13.68 2.42 18.65 7.27s7.46 10.92 7.46 18.23c0 7.23-2.51 13.29-7.52 18.17-5.01 4.89-11.21 7.33-18.59 7.33zm-21.67-25.5c0 6 2.09 11.07 6.26 15.21 4.17 4.15 9.31 6.22 15.41 6.22 6.18 0 11.35-2.03 15.53-6.1 4.17-4.07 6.26-9.14 6.26-15.21 0-6.08-2.09-11.17-6.26-15.28s-9.35-6.16-15.53-6.16-11.33 2.03-15.47 6.1c-4.13 4.07-6.2 9.14-6.2 15.22zM1039 391v12h-5v-29h13c2.65 0 8.48 1 8.19 9.45-.19 5.55-4.33 6.86-6.26 7.27L1056 403h-6l-6-12.04zm11-9c0-3-1.95-3.51-3.24-3.51h-7.1v8.04h6.86c1.29 0 3.48-.53 3.48-4.53zM2054 594h-22v-9h55v9h-22v62h-11zM2163 585h10v71h-11v-52l-25 34-26-33v51h-10v-71h10l26 37z"/></svg>