<svg height="388" viewBox="3.8 3.7 785.7 125" width="2500" xmlns="http://www.w3.org/2000/svg"><path d="m232.8 6.1h-204.4c-13.6 0-24.6 11-24.6 24.6v63.1c0 13.6 11 24.6 24.6 24.6h132.3l5.6 9.1c.5.8 1.3 1.2 2.2 1.2h49c2 0 3.3-2.2 2.2-3.9l-3.9-6.4h17c13.6 0 24.6-11 24.6-24.6v-63.1c0-13.6-11-24.6-24.6-24.6zm-43.2 69.9c-.5-.8-1.3-1.2-2.2-1.2h-49.1c-2 0-3.3 2.2-2.2 3.9l5.9 9.5h-74.3c-7.3 0-13.3-5.9-13.3-13.2v-27.8c0-7.3 5.9-13.3 13.3-13.3h125.6c7.3 0 13.3 5.9 13.3 13.3v27.8c0 6.1-4.1 11.2-9.8 12.8l-7.3-11.8zm577.8-72.2h-214.1c-9.9 0-17.9 8-17.9 17.9v88.8c0 3.1 2.5 5.5 5.6 5.5h40.2c2.7 0 4.9-2.2 4.9-4.9v-21.8c0-.8.6-1.4 1.4-1.4h136.6l14 22.7c0 .1.1.2.2.3 2.1 3.2 5.7 5.1 9.5 5.1h38.8c1.8 0 2.9-2 2-3.5l-5.9-9.5-9.8-15.9c9.2-2.5 16-10.9 16-20.9v-40.9c0-11.9-9.7-21.6-21.6-21.6zm-181.3 51.5v-17.6c0-4.2 3.4-7.6 7.6-7.6h137c4.2 0 7.6 3.4 7.6 7.6v17.6c0 4.2-3.4 7.6-7.6 7.6h-137c-4.2 0-7.6-3.4-7.6-7.6zm-71.9-49.2h-32.7c-.5 0-.9 0-1.4.1-4.4-.1-7.7 4.8-7.7 4.8l-11.8 13.7s-27.2 33.7-30.3 33.7h-67.8c-3.2 0-30.3-33.7-30.3-33.7l-11.8-13.7s-3.3-4.9-7.7-4.9h-34.1c-5 0-9 4-9 9v94.3c0 5 4 9 9 9h32.7c3.6 0 6.7-2.1 8.1-5.1.6-1.2.9-2.5.9-3.9v-46.2c0-.5.6-.7.9-.3l23.9 24.9s3.1 2.5 17.4 2.5h67.8c14.3 0 17.4-2.5 17.4-2.5l23.9-24.9c.3-.3.9-.1.9.3v46.2c0 1.4.3 2.7.9 3.9 1.4 3 4.5 5.1 8.1 5.1h32.7c5 0 9-4 9-9v-94.3c0-5-4-9-9-9z" fill="#525050"/></svg>