<svg height="-276" viewBox="50.5 82 277.2 57" width="2500" xmlns="http://www.w3.org/2000/svg"><path d="m50.5 128.6v-36.6h8.9v36.6zm11.6-29.8v-6.8h28.9v6.8h-10v29.8h-9v-29.8zm53.7-6.9v6.8h-13.2v7.9h11.7v6.8h-11.7v8.5h13.2v6.8h-22.2v-36.8zm46.4.1v36.6h-8.9v-20.6l-8.5 20.6h-6.6l-8.5-20.6v20.6h-8.9v-36.6h10.2l10.5 25.2 10.5-25.2z"/><path d="m268.3 139h-92.6c-3.7 0-6.7-3-6.7-6.7v-43.6c0-3.7 3-6.7 6.7-6.7h92.6c3.7 0 6.7 3 6.7 6.7v43.6c0 3.7-3 6.7-6.7 6.7z" fill="#dc191b"/><path d="m190.3 92.3c5.8 0 10.6 1.7 14.4 5.1s5.6 7.8 5.6 13.2-1.9 9.8-5.6 13.2c-3.8 3.4-8.5 5.1-14.4 5.1h-12.9v-36.6zm-4 29.8h4c3.4 0 6.1-1 8-3.1s2.9-4.9 2.9-8.4-1-6.3-2.9-8.4-4.6-3.1-8-3.1h-4zm25.1 6.3v-6.6c.9-.8 2.3-2 4-3.4 1.7-1.5 3-2.6 4-3.4.9-.8 2-1.8 3.3-3.1 1.3-1.2 2.2-2.3 2.8-3.2 1.6-2.3 2.4-4.2 2.4-5.9 0-3-1.3-4.4-3.9-4.4-1.3 0-2.2.4-3 1.3-.7.9-1.1 2.2-1.1 3.8h-8.6c0-4.2 1.2-7.3 3.6-9.5 2.4-2.1 5.6-3.2 9.5-3.2s7 1.1 9.2 3.4 3.3 4.9 3.3 8.1c0 2.4-.5 4.5-1.6 6.3-.6 1-1.2 1.9-1.6 2.7-.5.7-1.2 1.6-2.2 2.7s-1.8 1.9-2.3 2.3c-.5.5-1.4 1.3-2.7 2.5s-2.1 1.9-2.5 2.3h13.5v7.2h-26.1zm37.9-13.7v14.2h-8.9v-36.6h14.4c4.2 0 7.5 1.1 9.9 3.3s3.5 4.8 3.5 7.9c0 2.1-.6 4.2-1.9 6.2s-3.4 3.4-6.3 4.3l9 14.9h-10.4l-8.2-14.2zm0-15.6v8.8h5.5c1.4 0 2.4-.4 3.2-1.2s1.2-1.8 1.2-3.2-.4-2.4-1.2-3.2-1.9-1.3-3.2-1.3h-5.5z" fill="#fff"/><path d="m281 128c-.3.3-.7.4-1.1.4s-.8-.1-1.1-.4-.4-.6-.4-1.1.1-.8.4-1.1.6-.4 1.1-.4.8.1 1.1.4.4.7.4 1.1c0 .5-.1.9-.4 1.1zm2.8-1c-1.1-1.1-1.6-2.6-1.6-4.5s.6-3.4 1.7-4.5 2.5-1.7 4.3-1.7c1.5 0 2.7.3 3.6 1 1 .7 1.6 1.7 1.9 3h-2.7c-.5-1.3-1.4-1.9-2.9-1.9-1 0-1.8.4-2.4 1.1s-.9 1.7-.9 3 .3 2.3.9 3 1.4 1.1 2.4 1.1c1.4 0 2.4-.6 2.9-1.9h2.7c-.4 1.2-1 2.2-2 2.9s-2.2 1.1-3.6 1.1c-1.7 0-3.2-.6-4.3-1.7zm16.5 1.7c-1.8 0-3.2-.6-4.4-1.7-1.1-1.1-1.7-2.7-1.7-4.5s.6-3.4 1.8-4.5 2.6-1.7 4.4-1.7 3.2.6 4.4 1.7 1.8 2.6 1.8 4.5-.6 3.4-1.8 4.5-2.7 1.7-4.5 1.7zm2.6-3.2c.7-.7 1.1-1.7 1.1-3s-.4-2.3-1.1-3-1.6-1.1-2.6-1.1-1.9.4-2.5 1.1c-.7.7-1 1.7-1 3s.3 2.3 1 3 1.5 1.1 2.5 1.1 1.9-.4 2.6-1.1zm7.6-9.1v1.9c.8-1.4 2.1-2.1 3.9-2.1.9 0 1.8.2 2.5.7.7.4 1.3 1.1 1.7 1.9.4-.8 1-1.4 1.8-1.9s1.6-.7 2.6-.7c1.4 0 2.5.4 3.4 1.3s1.3 2.2 1.3 3.8v7.1h-2.5v-6.8c0-1.1-.3-1.9-.8-2.5s-1.3-.9-2.2-.9-1.7.3-2.2.9-.8 1.4-.8 2.5v6.8h-2.5v-6.8c0-1.1-.3-1.9-.8-2.5s-1.3-.9-2.2-.9-1.7.3-2.2.9-.8 1.4-.8 2.5v6.8h-2.7v-12.1h2.5z"/></svg>