<svg height="868" viewBox="18.247 63.016 3953.753 1201.507" width="2500" xmlns="http://www.w3.org/2000/svg"><path d="m3251.82 386.873 3.137-.005c3.454-.004 6.908 0 10.363.003 2.504-.002 5.01-.003 7.514-.006 6.145-.004 12.29-.003 18.435 0 5.097.002 10.195.002 15.292 0h2.23l4.503-.001a66537.747 66537.747 0 0 1 50.482.007l2.508.001c8.343.004 16.686.005 25.03.006 83.298.014 166.596.116 286.126.512 7.357.027 14.713.053 22.07.077 16.732.057 33.465.117 50.197.186 5.028.02 10.056.04 15.084.056 43.223.15 43.223.15 62.005.67l3.507.084c37.86 1.27 73.786 13.626 100.681 40.521 39.897 42.826 38.473 113.421 39.641 168.078l.063 2.908c.489 23.608.34 47.2-.09 70.807l-.128 7.279c-.11 6.35-.225 12.702-.339 19.053-.134 7.505-.266 15.01-.398 22.515-.11 6.228-.22 12.456-.333 18.684-.221 12.259-.432 24.517-.615 36.777-.07 4.61-.143 9.218-.215 13.828-.038 2.493-.075 4.986-.11 7.479-.675 48.818-7.885 93.257-38.46 132.608l-1.484 1.996c-21.335 27.17-64.592 34.145-96.261 38.619-9.068 1.074-18.019 1.545-27.15 1.59l-3.868.03c-3.58.028-7.159.049-10.739.068l-7.086.044c-11.82.078-23.64.141-35.46.2l-8.828.046c-95.244.502-190.49.548-285.735.584-14.9.006-29.802.016-44.702.029-19.501.016-39.002.026-58.503.024-9.585-.001-19.171.001-28.757.012-8.064.009-16.128.011-24.192.004-4.08-.003-8.16-.003-12.24.006-22.474.045-44.895-.305-67.058-4.44l-3.517-.647c-27.951-5.388-54.712-15.075-75.42-35.165l-2.04-1.816c-33.266-30.682-38.127-85.197-39.864-127.344-.297-8.813-.244-17.634-.241-26.45l-.01-6.888c-.01-6.178-.012-12.357-.012-18.535-.001-3.88-.003-7.759-.006-11.638-.009-12.89-.013-25.78-.012-38.67v-2.095-2.097c0-11.183-.01-22.367-.023-33.55-.015-11.564-.022-23.127-.02-34.69 0-6.46-.003-12.919-.014-19.378-.215-139.117-.215-139.117 43.18-184.162 29.022-27.939 72.68-37.907 111.881-37.814zm177.895 126.225c-9.987 11.079-10.867 25.883-10.855 40.166l-.01 3.415c-.008 3.774-.01 7.548-.011 11.321-.004 2.708-.01 5.415-.015 8.122-.014 7.354-.02 14.707-.024 22.061-.003 4.597-.007 9.194-.012 13.79-.012 12.742-.022 25.484-.026 38.225v4.944l-.002 4.964v2.487a27374.09 27374.09 0 0 1 -.046 39.866c-.023 13.662-.036 27.324-.037 40.986 0 7.663-.007 15.326-.025 22.99-.015 6.527-.02 13.054-.012 19.582.004 3.325.001 6.65-.011 9.975-.638 26.324-.638 26.324 11.187 49.035 7.218 6.897 15.649 9.567 25.473 9.582l2.802.051c3.178.05 6.356.071 9.534.09 2.328.026 4.655.053 6.983.081 7.272.076 14.543.113 21.815.144 5.153.022 10.307.052 15.46.082 13.747.08 27.494.136 41.24.171 5.123.014 10.245.033 15.367.057 6.141.027 12.283.039 18.424.04 2.296.002 4.591.01 6.887.023 3.186.017 6.371.015 9.558.008l2.787.028c10.287-.065 20.036-2.405 27.854-9.384 9.298-10.62 10.15-23.849 10.147-37.326l.011-3.436c.011-3.797.015-7.594.019-11.39l.02-8.172c.02-8.17.03-16.341.039-24.512l.015-11.564a50572.889 50572.889 0 0 0 .046-50.955c.008-13.37.033-26.742.066-40.113.033-13.75.05-27.5.054-41.251.002-7.711.01-15.422.036-23.134.022-6.57.03-13.14.02-19.709-.004-3.346 0-6.691.017-10.037.067-13.711-.067-26.314-4.49-39.401l-.91-2.785c-2.219-6.322-6.549-10.587-12.09-14.215-7.696-3.418-15.524-5.096-23.933-5.172l-3.528-.038-3.83-.027a5109.179 5109.179 0 0 0 -15.098-.132l-6.92-.056c-8.077-.067-16.155-.13-24.232-.188-7.477-.053-14.955-.118-22.432-.189-6.454-.06-12.908-.112-19.362-.158a3699.69 3699.69 0 0 1 -11.515-.097c-35.502-2.356-35.502-2.356-66.435 11.155zm-1346.715-255.098v129h257c0 110 0 110-1 116-16.048.793-32.047 1.142-48.113 1.114h-6.898c-6.157 0-12.314-.006-18.472-.013-6.466-.006-12.932-.006-19.398-.008-10.826-.002-21.652-.009-32.478-.018-11.137-.009-22.274-.016-33.411-.02h-2.09l-10.382-.005c-28.586-.01-57.172-.028-85.758-.05a136502.261 136502.261 0 0 0 .69 136.115l.015 2.89c.084 15.442.158 30.883.227 46.324.072 15.849.155 31.697.248 47.545.057 9.777.105 19.553.142 29.33.027 6.707.064 13.414.11 20.122.026 3.867.047 7.735.056 11.603.009 4.2.041 8.4.075 12.6l-.003 3.676c.13 11.357 2.273 21.72 9.44 30.795 10.394 10.097 29.445 10.087 43.027 10.316l3.251.064c3.553.066 7.106.125 10.66.183l3.739.062c106.607 3.663 106.607 3.663 209.933-18.461l3.535-1.285 3.136-1.17c2.854-.744 3.976-.525 6.719.291-2.588 17.272-5.178 34.544-7.771 51.816-1.204 8.02-2.407 16.039-3.609 24.059a49182.82 49182.82 0 0 1 -3.145 20.967c-.556 3.701-1.112 7.403-1.665 11.104-.618 4.13-1.24 8.26-1.86 12.39l-.556 3.726-.514 3.408-.445 2.96c-.378 2.233-.872 4.38-1.435 6.57-8.805.885-17.52 1.152-26.365 1.158l-4.246.015c-3.857.014-7.715.021-11.572.028-4.175.008-8.35.021-12.524.034-8.174.025-16.348.044-24.523.062-9.56.021-19.12.048-28.681.074-17.105.048-34.21.091-51.314.132-16.503.039-33.006.08-49.509.125l-3.066.008-12.214.033c-85.66.231-85.66.231-123.328.305-7.79.015-15.58.033-23.369.055-4.036.01-8.073.018-12.109.024-1.725.004-3.45.008-5.176.014-55.349.19-117.32-9.044-161.004-46.067l-1.79-1.5c-8.566-7.266-14.958-14.44-20.21-24.5l-1.006-1.887c-10.444-19.668-16.488-39.37-20.244-61.3l-.495-2.742c-3.311-20.686-2.403-42.204-2.371-63.082.004-3.627.003-7.253.002-10.88 0-6.252.003-12.504.008-18.755.008-9.039.011-18.077.012-27.116.002-14.672.01-29.344.019-44.016.009-14.234.016-28.469.02-42.703v-2.696l.007-20.876c.01-33.982.03-67.965.048-101.947h-136v-116h135v-121c3.715-1.857 4.989-2.262 8.903-2.355l3.007-.086 3.296-.065 3.508-.092c3.215-.082 6.43-.156 9.644-.226 3.469-.078 6.937-.166 10.405-.253 6.802-.17 13.604-.329 20.407-.485 7.947-.182 15.893-.375 23.84-.568 14.211-.345 28.423-.68 42.636-1.012 13.73-.32 27.459-.645 41.188-.977l2.55-.062 2.547-.062 5.079-.123 2.53-.06c13.147-.319 26.295-.631 39.442-.943l14.195-.34c7.533-.18 15.066-.36 22.6-.533 3.432-.08 6.865-.16 10.297-.243l3.837-.093 3.3-.08c16.617-.356 33.15-.342 49.789-.342zm-970-84h387c-1.52 5.32-2.307 7.693-5 12-18.328 41.226-22.397 84.254-22.146 128.891.02 4.184.029 8.368.038 12.552.016 6.486.036 12.972.06 19.457.049 13.753.069 27.505.08 41.258a1171301.596 1171301.596 0 0 0 .017 17.46c.013 13.663.032 27.326.052 40.989l.006 3.885a413698.965 413698.965 0 0 0 .21 130.124l.004 2.193c.04 23.61.074 47.221.104 70.831a123254.229 123254.229 0 0 0 .133 83.777l.004 2.06c.02 10.865.033 21.73.043 32.594.011 10.9.03 21.799.054 32.698.013 5.885.024 11.77.025 17.655-.165 32.35-.165 32.35 2.316 64.576l.303 2.508c3.342 27.103 12.537 53.449 22.991 78.566.706 1.926.706 1.926.706 3.926-5.673.96-11.181 1.169-16.929 1.205l-2.977.03c-3.276.032-6.552.057-9.828.081l-7.016.064c-6.338.056-12.676.105-19.014.153-3.336.025-6.673.05-10.01.077-88.593.698-177.173.394-320.226-.61 1.415-3.612 3-7.084 4.715-10.565 7.165-14.696 11.496-29.573 15.035-45.497l.451-2.008c3.473-15.577 5.108-30.857 5.046-46.818a3539.23 3539.23 0 0 0 0-16.98c-.007-4.498-.002-8.995.002-13.492.005-8.84-.001-17.68-.01-26.52-.01-10.444-.01-20.888-.009-31.332.002-21.235-.01-42.47-.027-63.704-.013-16.166-.021-32.332-.027-48.498-.036-101.488-.08-202.976-.598-307.592l-.045-9.369c-.059-12.374-.125-24.749-.202-37.123l-.04-7.31c-.074-13.703-.165-27.4-.737-41.094l-.11-2.675c-1.203-25.192-7.942-47.926-17.95-70.903l-.848-1.954c-.768-1.761-1.544-3.518-2.32-5.275-1.326-3.291-1.326-3.291-3.326-10.291zm1444 213h357c1.159 55.614 1.159 55.614 1.338 83.047.036 5.48.078 10.961.12 16.442.06 7.963.117 15.926.173 23.889.081 11.587.167 23.174.254 34.761.141 18.915.28 37.83.417 56.745l.025 3.406a3060518.734 3060518.734 0 0 1 .395 54.47c.138 18.837.277 37.672.417 56.508a87224.662 87224.662 0 0 1 .316 43.532l.021 2.967c.107 14.987.231 29.974.37 44.96.094 10.366.171 20.73.212 31.096.027 6.463.07 12.926.124 19.388.03 3.687.054 7.374.055 11.06.008 15.665.678 29.834 5.763 44.729l1.015 3.14c.779 2.362 1.637 4.67 2.548 6.985l.991 2.556c2.902 7.291 6.153 14.414 9.509 21.507l1.46 3.111c2.906 6.002 6.163 11.388 10.154 16.733 1.323 1.968 1.323 1.968 1.323 3.968h-393a82.965 82.965 0 0 1 5.668-13.207l2.209-4.22c1.144-2.176 2.291-4.35 3.442-6.521 18.905-35.764 23.863-69.82 23.757-109.866l-.01-6.746c-.042-25.224-.234-50.447-.437-75.67l-.094-12.052-.016-2.062-.032-4.157c-.1-12.832-.201-25.664-.304-38.496a101042.821 101042.821 0 0 1 -.4-51.583c-.123-15.937-.25-31.873-.391-47.81l-.018-2.02c-.052-5.934-.105-11.868-.159-17.801-.134-14.986-.244-29.971-.303-44.957-.027-6.578-.07-13.156-.118-19.734-.03-4.154-.051-8.307-.05-12.461 0-22.65-1.87-44.491-9.494-66.012l-1.022-2.96c-5.134-14.477-11.856-27.704-20.26-40.54-1.968-3.125-1.968-3.125-2.968-6.125z" fill="#ff4401"/><path d="m770 208c8.517 4.083 15.374 11.19 21.895 17.895 1.922 1.922 3.898 3.673 5.98 5.417 7.516 6.452 13.945 14.249 20.406 21.731 1.208 1.376 2.44 2.73 3.688 4.07 7.275 7.842 13.651 16.315 20.031 24.887l1.659 2.222c46.381 62.367 74.624 135.082 85.341 211.778l.543 3.835c5.059 37.623 4.631 77.582-.543 115.165l-.287 2.106c-6.433 46.772-19.69 91.717-38.713 134.894l-1.107 2.53c-22.316 50.503-55.9 95.669-94.8 134.562-1.598 1.6-3.187 3.208-4.777 4.816-6.45 6.485-13.15 12.393-20.316 18.092a273.076 273.076 0 0 0 -3.285 2.828c-17.66 15.4-37.468 28.435-57.715 40.172l-1.976 1.154c-64.956 37.746-140.042 57.044-215.024 57.096l-3.071.003c-17.159-.011-33.922-.822-50.929-3.253l-3.138-.438c-43.722-6.305-85.778-25.359-113.862-60.562-23.094-31.082-30.49-67.27-24.875-105.5 5.646-33.513 19.852-65.467 32.558-96.782a7386.99 7386.99 0 0 0 7.45-18.46 9695.445 9695.445 0 0 1 63.865-154.681c8.387-19.837 16.704-39.703 25.002-59.577l1.203-2.88a24852.04 24852.04 0 0 0 15.087-36.202c2-4.808 4-9.616 6.008-14.421 13.524-32.38 26.5-64.97 39.39-97.604 3.415-8.64 6.856-17.27 10.312-25.893 12.195 4.492 24.233 9.303 36.25 14.25a23575.983 23575.983 0 0 1 14.593 5.99c7.244 2.977 14.493 5.943 21.743 8.905l3.079 1.257c3.963 1.62 7.927 3.239 11.891 4.857a19995.07 19995.07 0 0 1 10.633 4.343c5.583 2.284 5.583 2.284 7.811 3.398-2.079 6.486-4.44 12.82-6.97 19.142l-1.175 2.953a9191.449 9191.449 0 0 1 -3.851 9.651l-2.736 6.866c-2.411 6.053-4.826 12.105-7.241 18.156-2.38 5.961-4.755 11.924-7.13 17.886a46707.95 46707.95 0 0 1 -26.332 65.921c-7.263 18.142-14.5 36.293-21.628 54.487l-2.749 7.008a13303.44 13303.44 0 0 0 -26.07 67.033l-3.285 8.505c-13.458 34.841-26.542 69.823-39.519 104.846-1.171 3.16-2.344 6.321-3.518 9.482-6.036 16.282-11.748 32.63-16.983 49.189l-.709 2.232c-8.236 26.075-10.256 51.339 2.709 76.455 12.666 21.788 33.574 36.753 57.665 43.4 23.203 6.1 45.398 4.572 68.522-1.212l3.077-.763c25.64-6.488 50.137-15.73 73.923-27.237l5.129-2.426c19.395-9.302 37.609-20.766 54.871-33.574l1.77-1.311c16.39-12.21 31.455-25.854 45.953-40.236 1.421-1.41 2.847-2.816 4.273-4.222 6.107-6.1 11.627-12.486 17.004-19.231.863-1.027 1.732-2.05 2.61-3.066 11.733-13.684 21.895-28.632 31.39-43.934l1.236-1.992c27.629-44.929 46.026-94.942 54.577-146.946l.59-3.582c2.97-19.154 3.977-38.24 3.91-57.605l-.005-3.236c-.042-16.748-.74-33.067-3.308-49.639l-.422-2.917c-4.908-33.594-14.73-66.543-29.578-97.083l-1.006-2.1c-13.744-28.615-30.919-55.112-51.994-78.9l-2.422-2.758c-6.038-6.732-12.384-13.149-18.765-19.555l-2.557-2.57c-6.444-6.428-13.08-12.51-20.256-18.117 1.491-3.442 3.48-5.736 6.063-8.438 5.28-5.78 9.718-11.99 13.937-18.562l2.063-3.203c7.692-12.682 12.346-26.757 16.937-40.797z"/><path d="m2596 173h316v156c-66.887.64-66.887.64-87.082.777l-2.279.016c-46.712.319-93.426.289-140.139.27l-3.22-.002c-27.427-.01-54.854-.032-82.28-.061-1.495-52.313-1-104.666-1-157z" fill="#ff4401"/><path d="m509 102c-.749 4.207-2.068 7.237-4.125 11-8.875 17.05-12.906 35.521-14.95 54.488l-.272 2.495c-.22 2.006-.436 4.011-.653 6.017l-3.04-.032c-97.988-.926-190.66 20.017-289.96 92.032l-1.642 1.346c-12.295 10.13-23.798 21.003-35.108 32.216l-2.652 2.613c-5.22 5.213-10.017 10.61-14.628 16.367a172.139 172.139 0 0 1 -4.798 5.743c-7.677 8.805-14.498 18.136-21.172 27.715l-1.52 2.175c-42.99 61.948-67.599 133.245-76.48 207.825l-.402 3.348c-3.972 34.977-2.905 71.672 2.035 106.48.357 3.09.433 6.065.367 9.172-2.97-2.471-3.698-4.661-4.613-8.371l-.835-3.372-.865-3.694-.915-3.878c-3.72-16.089-6.47-32.339-8.772-48.685l-.548-3.866c-5.205-39.048-5.186-81.15.548-120.134l.301-2.074c6.235-42.636 17.905-83.657 35.699-122.926l1.142-2.567c17.26-38.701 41.753-73.871 69.858-105.433l1.455-1.635c6.381-7.126 13.046-13.962 19.795-20.74l2.257-2.27c4.67-4.657 9.49-9.06 14.493-13.355a1458.87 1458.87 0 0 0 3.14-2.781c61.235-53.829 137.43-87.799 336.86-115.219z"/><path d="m699.484 96.684c19.448 16.891 32.106 39.724 35.516 65.316 1.044 15.576 1.037 31.123-4 46l-.633 1.908c-5.47 16.112-14.29 29.213-26.367 41.092l-2.531 2.527c-20.704 19.663-47.89 27.21-75.762 26.723-28.3-.938-53.42-14.56-72.633-34.773-18.164-19.984-26.764-47.25-26.053-74 1.39-28.21 13.989-53.371 34.17-72.97 38.892-34.726 98.495-35.491 138.293-1.823z" fill="#ff4401"/><path d="m1358 1112c37 0 37 0 46.219 8.5 2.029 2.919 2.029 2.919 3.28 5.522l1.488 2.956 1.513 3.022a513.454 513.454 0 0 0 3.475 6.05c2.335 4.032 4.6 8.092 6.816 12.19 2.876 5.256 6.016 10.258 9.385 15.21l1.47 2.162c.94 1.375 1.881 2.75 2.825 4.123a966.269 966.269 0 0 1 3.838 5.622l1.051 1.55c5.627 8.674 9.05 16.338 13.64 26.093v-93h35v146c-36 0-36 0-43.73-6.305a98.636 98.636 0 0 1 -4.458-8.57 287.773 287.773 0 0 0 -2.534-4.538 262.757 262.757 0 0 1 -4.95-9.205c-3.32-6.382-7.36-12.247-11.39-18.195-1.367-2.09-2.729-4.184-4.086-6.28a1130.58 1130.58 0 0 0 -7.579-11.5l-1.777-2.681a610.204 610.204 0 0 0 -3.213-4.798c-4.287-6.493-6.908-12.615-10.283-19.928v92h-36zm1577-1c37 0 37 0 46.219 8.5 2.029 2.919 2.029 2.919 3.28 5.522l1.488 2.956 1.513 3.022a513.454 513.454 0 0 0 3.475 6.05c2.335 4.032 4.6 8.092 6.816 12.19 2.876 5.256 6.016 10.258 9.385 15.21l1.47 2.162c.94 1.375 1.881 2.75 2.825 4.123a966.269 966.269 0 0 1 3.838 5.622l1.051 1.55c5.627 8.674 9.05 16.338 13.64 26.093v-93h35v146c-36 0-36 0-43.73-6.305a98.636 98.636 0 0 1 -4.457-8.57 287.773 287.773 0 0 0 -2.535-4.538 262.757 262.757 0 0 1 -4.95-9.205c-3.32-6.382-7.36-12.247-11.39-18.195-1.367-2.09-2.729-4.184-4.086-6.28a1130.58 1130.58 0 0 0 -7.579-11.5l-1.777-2.681a610.204 610.204 0 0 0 -3.213-4.798c-4.287-6.493-6.908-12.615-10.283-19.928v92h-36zm-157 0c37 0 37 0 46.219 8.5 2.029 2.919 2.029 2.919 3.28 5.522l1.488 2.956 1.513 3.022a513.454 513.454 0 0 0 3.475 6.05c2.335 4.032 4.6 8.092 6.816 12.19 2.876 5.256 6.016 10.258 9.385 15.21l1.47 2.162c.94 1.375 1.881 2.75 2.825 4.123a966.269 966.269 0 0 1 3.838 5.622l1.051 1.55c5.627 8.674 9.05 16.338 13.64 26.093v-93h35v146c-36 0-36 0-43.73-6.305a98.636 98.636 0 0 1 -4.457-8.57 287.773 287.773 0 0 0 -2.535-4.538 262.757 262.757 0 0 1 -4.95-9.205c-3.32-6.382-7.36-12.247-11.39-18.195-1.367-2.09-2.729-4.184-4.086-6.28a1130.58 1130.58 0 0 0 -7.579-11.5l-1.777-2.681a610.204 610.204 0 0 0 -3.213-4.798c-4.287-6.493-6.908-12.615-10.283-19.928v92h-36zm1064-1c37 0 37 0 46.219 8.5 2.029 2.919 2.029 2.919 3.28 5.522l1.488 2.956 1.513 3.022a513.454 513.454 0 0 0 3.475 6.05c2.335 4.032 4.6 8.092 6.816 12.19 2.876 5.256 6.016 10.258 9.385 15.21l1.47 2.162c.94 1.375 1.881 2.75 2.825 4.123a966.269 966.269 0 0 1 3.838 5.622l1.051 1.55c5.627 8.674 9.05 16.338 13.64 26.093v-93h35v146c-36 0-36 0-43.73-6.305a98.636 98.636 0 0 1 -4.457-8.57 287.773 287.773 0 0 0 -2.535-4.538 262.757 262.757 0 0 1 -4.95-9.205c-3.32-6.382-7.36-12.247-11.39-18.195-1.367-2.09-2.729-4.184-4.086-6.28a1130.58 1130.58 0 0 0 -7.579-11.5l-1.777-2.681a610.204 610.204 0 0 0 -3.213-4.798c-4.287-6.493-6.908-12.615-10.283-19.928v92h-36zm-1630.786 14.691 1.723 1.684 1.613 1.566c4.093 4.205 6.804 8.843 9.45 14.059-3.499 1.919-7 3.835-10.5 5.75l-2.977 1.633a1628.6 1628.6 0 0 1 -8.523 4.617l-2.363 1.318c-5.113 2.756-5.113 2.756-7.76 2.383-2.52-.941-3.4-2.31-5.002-4.451-4.724-5.695-11.94-9.786-19.406-10.488-9.364-.234-17.262 1.402-24.782 7.238-8.192 7.84-11.535 19.147-12.023 30.2-.249 15.044.48 29.197 11.336 40.8 7.597 6.454 15.062 8.44 24.934 8.254 7.373-.61 13.152-2.927 19.066-7.254l3-1c1.12-1.834 1.12-1.834 2-4l1.035-2 1.027-2 1.036-2c1.096-2.272 1.096-2.272 1.902-6l-35-1v-32h72c0 27.827-1.585 50.494-20.238 71.523-13.99 13.78-32.335 17.97-51.405 17.833-10.717-.284-20.831-2.27-30.357-7.356l-2.348-1.168c-16.55-8.944-27.213-25.177-32.652-42.832-6.437-22.452-4.202-46.544 6.668-67.164 8.766-15.597 22.18-27.309 39.434-32.828a125.78 125.78 0 0 1 8.898-2.008l2.121-.434c20.674-3.264 42.886 2.722 58.093 17.125zm-525.901.622c15.423 14.662 25.127 33.452 25.89 55 .403 23.964-5.894 44.714-22.39 62.437-15.616 14.748-33.528 19.88-54.594 19.59-18.487-.675-33.708-10.245-46.219-23.34-15.66-18.429-20.466-40.38-19-64 1.799-16.621 8.707-31.687 20-44l1.895-2.137c24.587-26.29 67.942-27.64 94.418-3.55zm-70.067 29.792c-8.763 12.41-10.898 26.219-8.785 41.153 2.582 11.633 7.801 20.74 17.539 27.742 6.522 3.815 14.24 4.715 21.68 3.598 9.594-2.526 16.423-7.588 21.816-15.871 7.276-13.192 8.71-28.495 4.54-42.95-3.587-9.622-10.01-18.373-19.224-23.215-13.657-6.02-28.164-1.743-37.566 9.543zm-303.933-29.792c15.423 14.662 25.127 33.452 25.89 55 .403 23.964-5.894 44.714-22.39 62.437-15.616 14.748-33.528 19.88-54.594 19.59-18.487-.675-33.708-10.245-46.219-23.34-15.66-18.429-20.466-40.38-19-64 1.799-16.621 8.707-31.687 20-44l1.895-2.137c24.587-26.29 67.942-27.64 94.418-3.55zm-70.067 29.792c-8.763 12.41-10.898 26.219-8.785 41.153 2.582 11.633 7.801 20.74 17.539 27.742 6.522 3.815 14.24 4.715 21.68 3.598 9.594-2.526 16.423-7.588 21.816-15.871 7.276-13.192 8.71-28.495 4.54-42.95-3.587-9.622-10.01-18.373-19.224-23.215-13.657-6.02-28.164-1.743-37.566 9.543zm-498.933-29.792c15.423 14.662 25.127 33.452 25.89 55 .403 23.964-5.894 44.714-22.39 62.437-15.616 14.748-33.528 19.88-54.594 19.59-18.487-.675-33.708-10.245-46.219-23.34-15.66-18.429-20.466-40.38-19-64 1.799-16.621 8.707-31.687 20-44l1.895-2.137c24.587-26.29 67.942-27.64 94.418-3.55zm-70.067 29.792c-8.763 12.41-10.898 26.219-8.785 41.153 2.582 11.633 7.801 20.74 17.539 27.742 6.522 3.815 14.24 4.715 21.68 3.598 9.594-2.526 16.423-7.588 21.816-15.871 7.276-13.192 8.71-28.495 4.54-42.95-3.587-9.622-10.01-18.373-19.223-23.215-13.658-6.02-28.165-1.743-37.567 9.543zm2532.067-30.792c15.423 14.662 25.127 33.452 25.89 55 .403 23.964-5.894 44.714-22.39 62.437-15.616 14.748-33.528 19.88-54.594 19.59-18.487-.675-33.708-10.245-46.219-23.34-15.66-18.429-20.466-40.38-19-64 1.799-16.621 8.707-31.687 20-44l1.895-2.137c24.587-26.29 67.942-27.64 94.418-3.55zm-70.067 29.792c-8.763 12.41-10.898 26.219-8.785 41.153 2.582 11.633 7.801 20.74 17.539 27.742 6.522 3.815 14.24 4.715 21.68 3.598 9.594-2.526 16.423-7.588 21.816-15.871 7.276-13.192 8.71-28.495 4.54-42.95-3.587-9.622-10.01-18.373-19.224-23.215-13.657-6.02-28.164-1.743-37.566 9.543zm661.067-30.792c15.423 14.662 25.127 33.452 25.89 55 .403 23.964-5.894 44.714-22.39 62.437-15.616 14.748-33.528 19.88-54.594 19.59-18.487-.675-33.708-10.245-46.219-23.34-15.66-18.429-20.466-40.38-19-64 1.799-16.621 8.707-31.687 20-44l1.895-2.137c24.587-26.29 67.942-27.64 94.418-3.55zm-70.067 29.792c-8.763 12.41-10.898 26.219-8.785 41.153 2.582 11.633 7.801 20.74 17.539 27.742 6.522 3.815 14.24 4.715 21.68 3.598 9.594-2.526 16.423-7.588 21.816-15.871 7.276-13.192 8.71-28.495 4.54-42.95-3.587-9.622-10.01-18.373-19.224-23.215-13.657-6.02-28.164-1.743-37.566 9.543zm-1835.246-42.105c81.195 0 81.195 0 101.188 18.563 16.051 16.892 19.36 38.505 19.085 60.976-.573 19.349-7.303 37.16-21.582 50.64-27.527 23.344-64.936 15.821-98.691 15.821zm37 33v80c13.541 0 25.026-.443 35.813-9.313 9.33-11.463 11.251-24.193 9.914-38.64-1.312-9.652-4.494-17.9-11.79-24.582-9.954-7.526-21.898-7.465-33.937-7.465zm-1039-32h36l.184 16.43.123 10.418c.065 5.49.13 10.98.19 16.469.049 4.435.101 8.87.156 13.305.02 1.677.039 3.353.056 5.03.091 8.728.279 17.443.72 26.161l.105 2.234c.318 5.68 1.412 10.672 3.466 15.953l.875 3c1.574 2.798 3.087 3.102 6.125 4l2.688 1.125c7.249 1.915 14.726 1.697 21.312-2.125 5.85-4.94 7.02-11.622 8-19 .56-7.188.49-14.409.512-21.613a4169.907 4169.907 0 0 0 .158-22.39c.03-5.525.076-11.05.121-16.573.086-10.808.152-21.616.209-32.424h37c.045 12.223.082 24.446.104 36.67.01 5.677.024 11.355.047 17.032.022 5.492.034 10.984.039 16.476.003 2.082.01 4.164.021 6.246.225 44.696.225 44.696-15.863 61.28-11.85 11.04-27.618 12.859-43.16 12.734l-3.99-.023c-15.185-.257-28.122-2.577-39.948-12.79l-2.25-2.625-1.453-1.633c-13.168-15.895-11.839-37.206-11.742-56.61l.008-6.665c.008-5.803.027-11.606.05-17.41.02-5.94.03-11.879.04-17.819.02-11.62.056-23.242.097-34.863zm-611 1c75.129 0 75.129 0 86.992 10.816 9.426 10.013 12.367 21.666 12.32 35.059l.05 2.816c.007 11.318-3.356 21.597-10.99 30.13-4.693 4.332-10.86 8.179-17.372 8.179 9.622 16.137 9.622 16.137 19.418 32.168l1.088 1.76c1.733 2.8 3.47 5.596 5.213 8.39l1.918 3.092 1.678 2.692c2.06 3.542 3.853 7.233 5.685 10.898h-42c-7.065-12.852-14.009-25.745-20.721-38.785l-1.564-3.031-1.371-2.67c-1.364-2.552-2.856-5.033-4.344-7.514l-1 52h-35zm35 31v38c12.98.243 12.98.243 24-5.313 4.076-5.476 4.73-11.043 4-17.687-1.178-4.877-2.813-9.025-7-12-7.11-3.495-12.765-3-21-3zm2140-33h47a111768.927 111768.927 0 0 1 18.907 60.151l.78 2.485c1.755 5.59 3.512 11.178 5.27 16.767 2.09 6.65 4.18 13.302 6.265 19.954 1.084 3.46 2.17 6.918 3.258 10.375 1.212 3.851 2.42 7.704 3.625 11.557l1.068 3.382 1 3.203.855 2.724c1.457 5.098 2.686 10.258 3.972 15.402h-37l-3-10.75-.95-3.37c-.243-.883-.486-1.767-.738-2.677l-.761-2.73c-.551-2.473-.551-2.473-.551-6.473l-50 1-6 23-1 2h-37c1.942-7.767 3.946-15.343 6.379-22.945l.983-3.105c.699-2.208 1.4-4.415 2.102-6.622 1.904-5.984 3.796-11.973 5.688-17.96l1.197-3.783c5.236-16.567 10.363-33.167 15.497-49.765l1.089-3.517c.655-2.115 1.309-4.23 1.962-6.347 3.304-10.673 6.715-21.308 10.103-31.956zm23 27-.5 2.047a1557.861 1557.861 0 0 1 -12.654 48.373l-.575 2.073c-.516 1.862-1.036 3.722-1.556 5.581-.834 2.91-.834 2.91-.715 5.926h34c-5.49-20.827-5.49-20.827-11.313-41.562-2.159-7.432-4.085-14.863-5.687-22.438zm937-28h47a111768.927 111768.927 0 0 1 18.907 60.151l.78 2.485c1.755 5.59 3.512 11.178 5.27 16.767 2.09 6.65 4.18 13.302 6.265 19.954 1.084 3.46 2.17 6.918 3.258 10.375 1.212 3.851 2.42 7.704 3.625 11.557l1.068 3.382 1 3.203.855 2.724c1.457 5.098 2.686 10.258 3.972 15.402h-37l-3-10.75-.95-3.37c-.243-.883-.486-1.767-.738-2.677l-.761-2.73c-.551-2.473-.551-2.473-.551-6.473l-50 1-6 23-1 2h-37c1.942-7.767 3.946-15.343 6.379-22.945l.983-3.105c.699-2.208 1.4-4.415 2.102-6.622 1.904-5.984 3.796-11.973 5.688-17.96l1.197-3.783c5.236-16.567 10.363-33.167 15.497-49.765l1.089-3.517c.655-2.115 1.309-4.23 1.962-6.347 3.304-10.673 6.715-21.308 10.103-31.956zm23 27-.5 2.047a1557.861 1557.861 0 0 1 -12.654 48.373l-.575 2.073c-.516 1.862-1.036 3.722-1.556 5.581-.834 2.91-.834 2.91-.715 5.926h34c-5.49-20.827-5.49-20.827-11.313-41.562-2.159-7.432-4.085-14.863-5.687-22.438zm-3040-24h82v33h-46v24h44v32h-44v24h46v33h-82zm88-1h39c2.344 5.86 4.577 11.485 6.518 17.447l.667 2.04c.714 2.186 1.423 4.375 2.131 6.564l1.509 4.639c1.048 3.227 2.094 6.456 3.139 9.685a5134.58 5134.58 0 0 0 4 12.304c1.04 3.19 2.074 6.38 3.107 9.572.49 1.511.981 3.021 1.475 4.531 2.939 9.004 5.512 17.937 7.454 27.218h1l.7-2.935c4.061-16.416 9.469-32.422 14.725-48.484 2.017-6.167 4.024-12.338 6.032-18.508a130648.439 130648.439 0 0 0 3.376-10.337l1.125-3.44c1.079-3.413 2.059-6.855 3.042-10.296h40c-1.854 6.179-3.7 12.141-6.02 18.125l-.881 2.303c-.633 1.653-1.269 3.307-1.905 4.96-1.404 3.644-2.8 7.293-4.196 10.94l-2.294 5.987c-4.518 11.794-8.99 23.606-13.464 35.417a20181.4 20181.4 0 0 1 -23.072 60.674l-1.21 3.166c-.958 2.428-.958 2.428-1.958 4.428h-29c-5.032-12.483-9.942-24.997-14.67-37.599a9999.198 9999.198 0 0 0 -5.467-14.526l-1.17-3.107c-5.716-15.147-11.51-30.265-17.297-45.384-2.472-6.46-4.937-12.92-7.396-19.384l-1.309-3.437a5397.966 5397.966 0 0 1 -3.816-10.075l-1.184-3.112-1.074-2.851-.95-2.51c-.667-2.015-.667-2.015-.667-4.015zm2751-1h39c2.344 5.86 4.577 11.485 6.518 17.447l.667 2.04c.714 2.186 1.423 4.375 2.131 6.564l1.509 4.639c1.048 3.227 2.094 6.456 3.139 9.685a5134.58 5134.58 0 0 0 4 12.304c1.04 3.19 2.074 6.38 3.107 9.572.49 1.511.981 3.021 1.475 4.531 2.939 9.004 5.512 17.937 7.454 27.218h1l.7-2.935c4.061-16.416 9.469-32.422 14.725-48.484 2.017-6.167 4.024-12.338 6.032-18.508a130648.439 130648.439 0 0 0 3.376-10.337l1.125-3.44c1.079-3.413 2.059-6.855 3.042-10.296h40c-1.854 6.179-3.7 12.141-6.02 18.125l-.881 2.303c-.633 1.653-1.269 3.307-1.905 4.96-1.404 3.644-2.8 7.293-4.196 10.94l-2.294 5.987c-4.518 11.794-8.99 23.606-13.464 35.417a20181.4 20181.4 0 0 1 -23.072 60.674l-1.21 3.166c-.958 2.428-.958 2.428-1.958 4.428h-29c-5.032-12.483-9.942-24.997-14.67-37.599a9999.198 9999.198 0 0 0 -5.467-14.526l-1.17-3.107c-5.716-15.147-11.51-30.265-17.297-45.384-2.472-6.46-4.937-12.92-7.396-19.384l-1.309-3.437a5397.966 5397.966 0 0 1 -3.816-10.075l-1.184-3.112-1.074-2.851-.95-2.51c-.667-2.015-.667-2.015-.667-4.015zm-1502 1h82v33h-46v24h44v32h-44v57h-36zm-710 0h96v35h-30v111h-37v-111h-29zm1288-1h96v35h-30v111h-37v-111h-29zm1195-1h96v35h-30v111h-37v-111h-29zm-2716 2h37v111h45v35h-82zm1766-1h37v111h45v35h-82zm-1420 1h38v146h-38zm1578-1h38v146h-38zm-459 0h38v146h-38zm-222 0h38v146h-38zm1587-1h38v146h-38z"/></svg>