<svg height="703" viewBox="-.56 -.12 142.58 40.14" width="2500" xmlns="http://www.w3.org/2000/svg"><path d="m16.94 30.85c0 .46-.52.83-1.17.83s-1.17-.37-1.17-.83.52-.83 1.17-.83 1.17.37 1.17.83" fill="#221815"/><g fill="#231815"><path d="m12.81 30.78c-.45-.07-.73-.65-.63-1.29s.55-1.09 1-1.02.73.65.63 1.29-.55 1.09-1 1.02m7.04.15c-.46 0-.83-.52-.83-1.17s.37-1.17.83-1.17.83.52.83 1.17-.37 1.17-.83 1.17"/><path d="m17.56 40c-1.57 0-6.36 0-7.99-4.29-1.35-3.52.4-8.05 1.63-10.06-.79-1.45-1.32-3.04-1.56-4.67-.1-.94-.13-1.89-.1-2.84v-.59-.41c.09-.64-.01-1.28-.29-1.86a1.13 1.13 0 0 0 -.78-.47c-.07 0-.14.01-.22.15-.04.25-.02.51.05.75l.02.11c.3 1.25.25 2.56-.14 3.78a3.839 3.839 0 0 1 -2.57 2.42c-1.69.46-3.49-.15-4.56-1.54-1.61-2.18-1.07-5-.34-6.97a8.575 8.575 0 0 1 4.84-4.93c3.39-1.24 6.36-.48 8.37 2.13 1.89 2.46 1.74 6.35 1.48 8.45-.16 1.67-.04 3.36.36 4.99a.81.81 0 0 1 -1.56.43c-.46-1.83-.59-3.73-.4-5.61.18-1.49.44-5.19-1.16-7.27-1.58-2.06-3.78-2.59-6.54-1.59a6.999 6.999 0 0 0 -3.88 3.98c-.6 1.6-1.06 3.84.13 5.44.69.87 1.83 1.24 2.89.94.67-.22 1.19-.74 1.42-1.4a5.5 5.5 0 0 0 .07-2.93l-.02-.1c-.19-.63-.14-1.3.15-1.89.32-.56.92-.92 1.57-.93.87.01 1.68.45 2.16 1.18.49.85.69 1.83.57 2.8v.99c-.03.87 0 1.75.08 2.61.22 1.57.76 3.08 1.58 4.44.19.28.19.65-.01.92a13.34 13.34 0 0 0 -1.72 3.9 8.61 8.61 0 0 0 -.02 5.1c1.11 2.91 4.24 3.25 6.49 3.25 1.79 0 4.95-.46 5.97-3.53 1.24-3.76-1.33-9.02-1.35-9.08a.855.855 0 0 1 -.08-.47c.01-.11 1.55-10.9 2.17-15.51.6-4.48-.17-7.75-1.93-8.14-.54-.13-1.12-.01-1.57.32-1.07.76-1.85 2.57-2.13 4.97-.45 3.82 1.52 17.13 1.55 17.27.07.44-.24.85-.68.92s-.85-.24-.92-.68c-.08-.56-2.03-13.66-1.55-17.7.34-2.89 1.34-5.06 2.8-6.1.82-.59 1.86-.8 2.85-.57 2.75.61 3.93 4.32 3.18 9.93-.57 4.23-1.91 13.65-2.14 15.28.53 1.14 2.64 6.12 1.33 10.07-1.34 4.03-5.27 4.63-7.5 4.63"/><path d="m14.56 25.32a.804.804 0 0 1 -.2-1.58c1-.25 2.02-.35 3.05-.32h.03c.06 0 1.48.06 2.5.22.44.05.76.45.71.89s-.45.76-.89.71c-.02 0-.04 0-.07-.01-.88-.14-2.15-.19-2.3-.2-.88-.03-1.77.06-2.63.27-.07.02-.14.03-.2.03m20.03-12.96h3.46c.24 0 .43.19.43.43v18.06c0 .24-.19.43-.43.43h-3.46c-.24 0-.43-.19-.43-.43v-18.07c0-.24.19-.43.43-.43zm12.46 18.91c-.15 0-.28-.11-.29-.26v-14.64a.166.166 0 0 0 -.13-.18h-5.1c-.15 0-.28-.11-.29-.26v-3.3c0-.15.11-.28.26-.29h14.8c.15 0 .28.11.29.26v3.3c0 .15-.11.28-.26.29h-5.09a.166.166 0 0 0 -.18.13v14.64c0 .15-.11.28-.26.29h-3.77zm12.01.02a.27.27 0 0 1 -.29-.25v-13.09c0-.15.11-.28.26-.28h3.55c.15-.01.28.1.29.25v1.18h.03c.84-1.2 2.24-1.86 3.7-1.75.9-.01 1.78.27 2.5.82.13.07.18.24.1.37 0 0-.01.02-.02.03l-1.64 2.87c-.12.14-.24.14-.41.06-.61-.41-1.32-.63-2.06-.62-1.53.06-2.2 1.12-2.2 2.95v7.18c0 .15-.11.28-.26.28h-3.56zm30.19 0c-.17 0-.31-.12-.35-.28l-5.05-13.06c-.06-.17.03-.28.24-.28h3.7c.18-.02.35.1.38.28l2.76 8.08h.06l2.64-8.08c.04-.18.2-.3.38-.28h3.64c.21 0 .29.11.24.28l-5.05 13.06c-.04.16-.19.28-.35.28h-3.23zm11.28 0a.27.27 0 0 1 -.29-.25v-13.09c0-.15.11-.28.26-.28h3.55c.15-.01.28.1.29.25v13.09c0 .15-.11.28-.26.28h-.03zm33.3 0c-.17 0-.31-.12-.35-.28l-2.44-7.91h-.06l-2.5 7.91c-.04.16-.18.28-.35.28h-2.91c-.17 0-.31-.12-.35-.28l-4.55-13.06c-.06-.17.03-.28.21-.28h3.62c.19-.03.37.09.41.28l2.35 8.11h.06l2.44-8.11c.05-.18.22-.3.41-.28h2.47c.18-.02.35.1.38.28l2.5 8.11h.06l2.51-8.56c.03-.18.2-.3.38-.28h3.61c.21 0 .29.11.24.28l-4.82 13.51c-.04.16-.18.28-.35.28h-2.94zm-18.46-4.25c-.08 0-.15.04-.19.11-.46.77-1.3 1.24-2.19 1.23-1.05.09-2.03-.56-2.35-1.57-.11-.32-.16-.66-.16-.99 0-.09.08-.17.18-.17h8.59c.1 0 .19-.07.2-.17.15-1.44.04-2.9-.34-4.31-.82-2.39-3-3.83-6.14-3.83s-5.29 1.41-6.11 3.86c-.34 1.05-.5 2.16-.47 3.27-.02 1.1.15 2.2.5 3.24.78 2.32 2.83 3.71 5.78 3.86.17.02.33.03.5.03s.33 0 .5-.03c3.65-.19 5.04-2.31 5.57-4.29.02-.1-.04-.21-.15-.23h-3.73zm-4.74-5.18a2.654 2.654 0 0 1 3.53-1.23c.54.26.97.69 1.23 1.23.1.33.15.67.15 1.01 0 .11-.06.17-.18.17h-4.7c-.12 0-.18-.06-.18-.17 0-.34.04-.69.15-1.01m-31.83 5.18c-.08 0-.15.04-.19.11-.46.77-1.3 1.24-2.19 1.23-1.05.09-2.03-.56-2.35-1.57-.11-.32-.16-.66-.16-.99 0-.09.08-.17.18-.17h8.59c.1 0 .19-.07.2-.17.15-1.44.04-2.9-.34-4.31-.82-2.39-3-3.83-6.14-3.83s-5.29 1.41-6.11 3.86c-.34 1.05-.5 2.16-.47 3.27-.02 1.1.15 2.2.5 3.24.78 2.32 2.83 3.71 5.78 3.86.17.02.33.03.5.03s.33 0 .5-.03c3.65-.19 5.04-2.31 5.57-4.29.02-.1-.04-.21-.15-.23h-3.73zm-4.74-5.18a2.654 2.654 0 0 1 3.53-1.23c.54.26.97.69 1.23 1.23.1.33.15.67.15 1.01 0 .11-.06.17-.18.17h-4.7c-.12 0-.18-.06-.18-.17 0-.34.04-.69.15-1.01"/></g><path d="m104.49 14.29c0 1.22-.98 2.2-2.2 2.2s-2.2-.98-2.2-2.2.98-2.2 2.2-2.2 2.2.98 2.2 2.2" fill="#221815"/></svg>