<svg height="2500" viewBox="0 0 216.145 223.881" width="2414" xmlns="http://www.w3.org/2000/svg"><path d="M0 0h216.145v223.881H0z" fill="#ff0" fill-rule="evenodd"/><path d="M44.741 155.93c-2.335 0-4.98.292-7.98.95-13.117 2.88-22.828 15.409-21.117 26.429 1.825 11.762 13.286 16.52 22.072 15.06 19.34-3.213 22.876-17.255 22.876-17.255l-13.643 3.256s-1.362 3.1-8.624 4.049c-9.803 1.281-11.37-3.844-11.37-3.844l35.198-9.19s1.604-19.451-17.412-19.455zm-1.543 8.888c7.117.175 8.804 5.656 8.804 5.656l-25.934 6.343s.746-8.084 11.29-11.14c2.266-.657 4.198-.9 5.84-.859zM112.554 142.479l-10.077 2.456-.087 4.725s-6.302-6.217-17.501-2.986c-10.74 3.099-22.08 13.565-20.7 25.857.945 8.421 5.166 16.354 20.077 15.594 10.017-.51 17.603-10.15 17.603-10.15l-.085 4.603 9.96-1.668zm-20.585 11.76a11.102 14.989 57.2 0 1 9.836 9.058 11.102 14.989 57.2 0 1-13.962 15.227 11.102 14.989 57.2 0 1-13.96-8.613 11.102 14.989 57.2 0 1 13.96-15.227 11.102 14.989 57.2 0 1 4.126-.445zM113.517 168.124s-.316 12.228 19.857 9.677c10.57-1.336 24.464-8.885 24.702-19.26.263-11.458-28.132-4.605-28.132-9.543 0-1.67 3.72-3.878 7.15-4.258 6.391-.709 7.54 1.603 7.54 1.603l12.653-2.407s-.42-11.92-21.565-8.222c-7.903 1.383-20.639 8.593-19.478 16.678 1.932 13.455 27.229 3.237 27.691 10.512.153 2.403-6.046 5.4-9.697 5.677-5.34.405-7.528-3.236-7.528-3.236z"/><path d="M163.034 182.251l11.122-1.46 26.28-56.728-11.99 2.49-11.688 24.993-9.511-20.702-12.158 2.305 16.133 31.77zM49.333 206.71s31.809-7.656 52.83-10.488c12.922-1.741 25.773-4.04 38.736-5.445 3.29-.356 10.554-.87 10.082-4.522-.54-4.185-8.313-2.687-12.488-2.074-6.662.977-27.449 5.202-41.083 8.227-30.5 6.768-48.077 14.301-48.077 14.301z"/><g fill="red"><path d="M42.376 153.79c-2.335 0-4.98.292-7.979.95-13.118 2.88-22.828 15.409-21.118 26.429 1.825 11.761 13.286 16.52 22.072 15.06 19.34-3.214 22.876-17.256 22.876-17.256l-13.643 3.257s-1.362 3.099-8.624 4.048c-9.803 1.282-11.369-3.843-11.369-3.843l35.197-9.19s1.604-19.452-17.412-19.455zm-1.543 8.888c7.117.175 8.804 5.655 8.804 5.655l-25.934 6.344s.746-8.084 11.29-11.14c2.266-.657 4.198-.9 5.84-.86zM110.189 140.339l-10.077 2.456-.086 4.725s-6.303-6.217-17.502-2.986c-10.74 3.099-22.08 13.565-20.7 25.857.945 8.421 5.167 16.354 20.077 15.594 10.017-.51 17.603-10.15 17.603-10.15l-.085 4.603 9.961-1.669zm-20.584 11.76a11.102 14.989 57.2 0 1 9.835 9.058 11.102 14.989 57.2 0 1-13.962 15.227 11.102 14.989 57.2 0 1-13.96-8.613 11.102 14.989 57.2 0 1 13.96-15.227 11.102 14.989 57.2 0 1 4.127-.445zM111.152 165.984s-.316 12.228 19.857 9.677c10.57-1.337 24.464-8.885 24.702-19.261.263-11.457-28.132-4.604-28.132-9.542 0-1.67 3.72-3.879 7.15-4.259 6.391-.708 7.54 1.603 7.54 1.603l12.654-2.406s-.42-11.921-21.566-8.222c-7.903 1.383-20.639 8.593-19.478 16.678 1.932 13.455 27.229 3.236 27.691 10.511.153 2.403-6.046 5.4-9.697 5.677-5.34.406-7.528-3.236-7.528-3.236z"/><path d="M160.669 180.111l11.122-1.46 26.28-56.728-11.99 2.489-11.688 24.994-9.511-20.702-12.158 2.305 16.133 31.77zM46.968 204.569s31.809-7.655 52.83-10.487c12.922-1.742 25.773-4.041 38.736-5.445 3.29-.356 10.554-.87 10.082-4.522-.54-4.185-8.313-2.687-12.488-2.075-6.662.978-27.449 5.202-41.083 8.228-30.5 6.767-48.077 14.3-48.077 14.3z"/></g><g><path d="M44.741 48.696c-2.335 0-4.98.292-7.98.95-13.117 2.88-22.828 15.41-21.117 26.43 1.825 11.761 13.286 16.52 22.072 15.06 19.34-3.214 22.876-17.256 22.876-17.256l-13.643 3.256s-1.362 3.1-8.624 4.05c-9.803 1.28-11.369-3.845-11.369-3.845l35.197-9.19S63.757 48.7 44.741 48.696zm-1.543 8.888c7.117.176 8.804 5.656 8.804 5.656l-25.934 6.344s.746-8.084 11.29-11.14c2.266-.658 4.198-.9 5.84-.86zM112.554 35.245l-10.077 2.457-.087 4.725s-6.302-6.218-17.501-2.986c-10.74 3.098-22.08 13.565-20.7 25.857.945 8.42 5.166 16.353 20.077 15.593 10.017-.51 17.603-10.15 17.603-10.15l-.085 4.604 9.96-1.67zm-20.585 11.76a11.102 14.989 57.2 0 1 9.836 9.058A11.102 14.989 57.2 0 1 87.843 71.29a11.102 14.989 57.2 0 1-13.96-8.612 11.102 14.989 57.2 0 1 13.96-15.227 11.102 14.989 57.2 0 1 4.126-.446zM113.517 60.89s-.316 12.229 19.857 9.678c10.57-1.337 24.464-8.885 24.702-19.261.263-11.457-28.132-4.604-28.132-9.543 0-1.67 3.72-3.878 7.15-4.258 6.391-.708 7.54 1.603 7.54 1.603l12.653-2.406s-.42-11.921-21.565-8.222c-7.903 1.382-20.639 8.592-19.478 16.678 1.932 13.455 27.229 3.236 27.691 10.511.153 2.403-6.046 5.4-9.697 5.677-5.34.405-7.528-3.236-7.528-3.236z"/><path d="M163.034 75.018l11.122-1.461 26.28-56.728-11.99 2.49-11.688 24.994-9.511-20.703-12.158 2.305 16.133 31.77z"/><path d="M49.917 99.389c.707-.707 17.365-6.281 23.42-7.837a9465.092 9465.092 0 0 1 19.246-4.911c6.583-1.673 12.92-3.336 14.082-3.696s3.274-.796 4.693-.97c1.42-.173 7.364-1.237 13.21-2.364 11.48-2.214 18.985-3.102 22.7-2.687 2.755.308 3.52.801 3.52 2.271 0 2.588-4.536 3.805-19.128 5.132-9.296.846-18.101 2.132-25.97 3.794-3.016.637-7.991 1.478-11.056 1.87-6.36.811-11.059 1.69-17.776 3.327-6.377 1.554-26.632 6.277-26.917 6.277-.126 0-.137-.093-.024-.206z" fill-rule="evenodd"/></g><g fill="red"><path d="M42.376 46.556c-2.335 0-4.98.292-7.979.95C21.28 50.386 11.57 62.915 13.28 73.935c1.825 11.762 13.286 16.521 22.072 15.06 19.34-3.213 22.876-17.255 22.876-17.255l-13.643 3.256s-1.362 3.1-8.624 4.049C26.157 80.327 24.59 75.2 24.59 75.2l35.198-9.19s1.603-19.451-17.413-19.455zm-1.543 8.888c7.117.175 8.804 5.656 8.804 5.656l-25.934 6.343s.746-8.084 11.29-11.14c2.267-.657 4.198-.9 5.84-.859zM110.189 33.105l-10.077 2.457-.086 4.724s-6.303-6.217-17.502-2.985c-10.74 3.098-22.08 13.564-20.7 25.856.945 8.422 5.167 16.354 20.077 15.594 10.017-.51 17.603-10.15 17.603-10.15l-.085 4.603 9.961-1.668zm-20.584 11.76a11.102 14.989 57.2 0 1 9.835 9.058A11.102 14.989 57.2 0 1 85.478 69.15a11.102 14.989 57.2 0 1-13.96-8.613 11.102 14.989 57.2 0 1 13.96-15.227 11.102 14.989 57.2 0 1 4.127-.445zM111.152 58.75s-.316 12.228 19.857 9.677c10.57-1.336 24.464-8.885 24.702-19.26.263-11.458-28.132-4.604-28.132-9.543 0-1.67 3.72-3.878 7.15-4.258 6.391-.709 7.54 1.603 7.54 1.603l12.654-2.407s-.42-11.92-21.565-8.222c-7.904 1.383-20.64 8.593-19.479 16.678 1.932 13.456 27.229 3.237 27.691 10.512.153 2.403-6.046 5.4-9.697 5.677-5.34.405-7.528-3.236-7.528-3.236z"/><path d="M160.669 72.877l11.122-1.46 26.28-56.728-11.99 2.49-11.688 24.994-9.511-20.703-12.158 2.305 16.133 31.77z"/><path d="M47.552 97.249c.707-.707 17.365-6.282 23.42-7.838a9465.092 9465.092 0 0 1 19.246-4.91c6.583-1.673 12.92-3.336 14.082-3.696s3.274-.796 4.694-.97c1.42-.173 7.363-1.237 13.208-2.364 11.482-2.214 18.986-3.103 22.7-2.687 2.757.308 3.52.8 3.52 2.27 0 2.588-4.535 3.805-19.127 5.133-9.296.846-18.101 2.132-25.97 3.794-3.016.636-7.99 1.477-11.056 1.869-6.36.812-11.058 1.692-17.776 3.328-6.377 1.553-26.631 6.276-26.917 6.276-.126 0-.137-.092-.024-.205z" fill-rule="evenodd"/></g></svg>