<svg clip-rule="evenodd" fill-rule="evenodd" height="320" image-rendering="optimizeQuality" shape-rendering="geometricPrecision" text-rendering="geometricPrecision" viewBox="0 0 2743 351" width="2500" xmlns="http://www.w3.org/2000/svg"><path d="M343 0H76C34 0 0 35 0 78v77c0-34 41-62 75-62h204c1-35 29-66 64-93zm1677 87h44V0h68v87h73v62h-73v108c0 21 18 38 39 38h34v56h-66c-41 0-75-34-75-75V149h-44zm419 0h-159v62h134c23 0 42 19 42 42h-115c-44 0-80 36-80 80s36 80 80 80h188V177c0-50-41-90-90-90zm17 160v48h-94c-13 0-24-10-24-24 0-13 11-24 24-24zm210-154v20c16-16 39-26 64-26h13v63h-77v201h-71V93zm-1324-6h39c72 0 132 59 132 132s-60 132-132 132h-39c-72 0-132-59-132-132s60-132 132-132zm16 61h8c38 0 70 32 70 71s-32 70-70 70h-8c-39 0-71-31-71-70s32-71 71-71zm-333-61h122v61h-97c-38 0-70 32-70 71s32 70 70 70h97v62h-122c-68 0-123-55-123-122v-20c0-67 55-122 123-122zm649-87h256v62h-215c-21 0-39 17-39 39 0 21 18 39 39 39h139c56 0 101 42 101 102s-45 109-101 109h-256v-66h215c21 0 39-19 39-43 0-23-18-40-39-40h-139c-55 0-101-46-101-101 0-56 46-101 101-101zM678 0h162v62H710c-49 0-90 36-98 83h228v62H612c8 46 49 82 98 82h130v62H678c-90 0-163-73-163-162v-26C515 73 588 0 678 0zM386 259H76c-42 0-76 35-76 78v14h320c45-26 70-58 66-92zM286 129H76c-42 0-76 35-76 78v77c0-34 41-62 75-62h297c-25-36-66-51-86-93z" fill="#215da4"/></svg>