<svg height="273" viewBox="-.4 14.5 251 42" width="2500" xmlns="http://www.w3.org/2000/svg"><g fill="#0d4ba0"><path d="m71.7 23.8h9.7v23.7h-9.8zm4.9-9.3c2.2 0 4.7 1.6 4.7 4.5s-2.8 4.6-4.7 4.6-4.7-1.5-4.7-4.6c-.1-3.1 2.5-4.5 4.7-4.5zm-22.3 42v-21.5s.9-2.4 2.9-2.4 3.4 1.4 3.4 2.8c0 1.5-.8 3.2-3.5 3.2-.9 0-1.5-.4-1.5-.4v9.5c7.3.9 14.8-3.7 14.8-12.4s-8.6-11.9-13.3-11.9-12.7 3.3-12.7 11.9.1 21.1.1 21.1zm-10.8-11-4.5-7.9s-1.1 1.1-2.9 1.1c-1.9 0-3.1-1.5-3.1-3.1s1.4-3 3.1-3 2.8 1 2.8 1l4.8-7.8s-2.4-2.4-7.6-2.4-12.9 4.3-12.9 12.2 7.3 12.2 12.9 12.2c5.5.2 7.4-2.3 7.4-2.3z"/><path d="m10.7 38s-2-2.1-.1-4c1.9-2 3.9-.4 3.9-.4zm7.1.6c-.9.4-2.1.3-2.1.3l8.1-9.6s-3.7-5.8-10.7-5.8c-6.9.1-13 5.6-13 12.2s4.8 12.4 13.1 12.4 9.6-2.5 9.6-2.5l-2.9-8.3c0-.1-1.1.9-2.1 1.3zm50.8-20.6h-69v1.3h69zm181.8 0h-165.6v1.3h165.8v-1.3zm-208.8 33.5h-42v1.3h42zm208.8 0h-192.8v1.3h192.9v-1.3zm-158.2-15v-9.2h4.6v9.7c0 1 .2 1.8.7 2.3s1.3.8 2.3.8 1.8-.2 2.3-.8c.5-.5.7-1.3.7-2.3v-9.7h4.6v9.2c0 2.3-.7 4-2 5.2s-3.2 1.9-5.6 1.9-4.3-.6-5.6-1.9c-1.2-1.2-2-2.9-2-5.2zm18.8 7v-16.2h4.6l7.2 9.7v-9.7h4.6v16.2h-4.5l-7.3-9.6v9.6zm20.2 0v-16.2h4.6v16.2zm7.4-16.2h4.9l4 11.4 4-11.4h4.9l-6.8 16.2h-4.2zm20.5 16.2v-16.2h12.4v3.4h-7.8v3h6.8v3.4h-6.8v3h7.8v3.4zm16.1 0v-16.2h7c2.2 0 3.9.5 5.2 1.4s2 2.2 2 3.9c0 1.3-.3 2.3-1 3.2-.6.8-1.5 1.4-2.6 1.7l4.3 6h-5.1l-3.3-5.4h-1.9v5.4zm4.6-8.5h2.7c.6 0 1.2-.2 1.6-.6.5-.4.7-.9.7-1.5s-.2-1.1-.7-1.5-1-.6-1.6-.6h-2.7zm12.6-2.8c0-1.7.6-2.9 1.9-3.7s2.8-1.3 4.7-1.3c1.7 0 3.3.4 4.8 1.1v3.7c-1.4-.8-2.8-1.2-4.1-1.2-.7 0-1.3.1-1.9.3-.5.2-.8.6-.8 1 0 .3.2.6.6.8s.9.4 1.5.5 1.3.3 2 .5 1.4.5 2 .9c.6.3 1.1.9 1.5 1.6s.6 1.6.6 2.6c0 1.4-.6 2.5-1.9 3.4-1.2.9-2.8 1.3-4.5 1.3-2.4 0-4.5-.5-6.2-1.5v-3.9c1.6 1.2 3.5 1.9 5.5 1.9.7 0 1.3-.1 1.8-.4.5-.2.7-.6.7-1 0-.3-.2-.5-.5-.8-.3-.2-.7-.4-1.2-.5l-1.6-.4c-.6-.1-1.2-.3-1.7-.5-.6-.2-1.1-.5-1.6-.8s-.9-.8-1.2-1.4c-.2-.6-.4-1.4-.4-2.2zm15.7 11.3v-16.2h4.6v16.2zm7-12.5v-3.6h14.9v3.6h-5.2v12.6h-4.6v-12.6zm16.3-3.7h5.6l3.8 6.1 3.8-6.1h5.6l-7.1 9.3v6.9h-4.6v-6.8z"/></g></svg>