<svg height="-959" viewBox="-402.7 601 605.7 214.2" width="2500" xmlns="http://www.w3.org/2000/svg" xmlns:xlink="http://www.w3.org/1999/xlink"><linearGradient id="a"><stop offset="0"/><stop offset=".004" stop-color="#090909"/><stop offset=".024" stop-color="#373737"/><stop offset=".046" stop-color="#626262"/><stop offset=".07" stop-color="#888"/><stop offset=".096" stop-color="#a8a8a8"/><stop offset=".125" stop-color="#c4c4c4"/><stop offset=".158" stop-color="#dadada"/><stop offset=".196" stop-color="#ebebeb"/><stop offset=".243" stop-color="#f6f6f6"/><stop offset=".309" stop-color="#fdfdfd"/><stop offset=".493" stop-color="#fff"/><stop offset=".682" stop-color="#fdfdfd"/><stop offset=".75" stop-color="#f6f6f6"/><stop offset=".798" stop-color="#ebebeb"/><stop offset=".838" stop-color="#dadada"/><stop offset=".871" stop-color="#c4c4c4"/><stop offset=".901" stop-color="#a8a8a8"/><stop offset=".928" stop-color="#888"/><stop offset=".953" stop-color="#626262"/><stop offset=".976" stop-color="#373737"/><stop offset=".996" stop-color="#090909"/><stop offset="1"/></linearGradient><linearGradient id="b" gradientUnits="userSpaceOnUse" x1="-402.709" x2="203.002" xlink:href="#a" y1="813.406" y2="813.406"/><linearGradient id="c" gradientUnits="userSpaceOnUse" x1="-402.709" x2="203.002" xlink:href="#a" y1="723.11" y2="723.11"/><linearGradient id="d"><stop offset="0" stop-color="#fffffe"/><stop offset=".012" stop-color="#f0f7e5"/><stop offset=".034" stop-color="#d7ebbc"/><stop offset=".058" stop-color="#c0e096"/><stop offset=".085" stop-color="#acd676"/><stop offset=".115" stop-color="#9bce5b"/><stop offset=".149" stop-color="#8ec845"/><stop offset=".188" stop-color="#84c334"/><stop offset=".236" stop-color="#7dbf28"/><stop offset=".304" stop-color="#78bd21"/><stop offset=".493" stop-color="#77bc1f"/><stop offset=".687" stop-color="#78bd21"/><stop offset=".757" stop-color="#7dbf28"/><stop offset=".807" stop-color="#84c334"/><stop offset=".847" stop-color="#8ec845"/><stop offset=".882" stop-color="#9bce5b"/><stop offset=".912" stop-color="#acd676"/><stop offset=".94" stop-color="#c0e096"/><stop offset=".965" stop-color="#d7ebbc"/><stop offset=".988" stop-color="#f0f7e5"/><stop offset="1" stop-color="#fffffe"/></linearGradient><linearGradient id="e" gradientUnits="userSpaceOnUse" x1="-402.748" x2="203.006" xlink:href="#d" y1="723.106" y2="723.106"/><linearGradient id="f" gradientUnits="userSpaceOnUse" x1="-402.748" x2="203.006" xlink:href="#d" y1="813.402" y2="813.402"/><path d="m-402.7 811.6h605.7v3.6h-605.7z" fill="url(#b)"/><path d="m-402.7 721.3h605.7v3.6h-605.7z" fill="url(#c)"/><path d="m-203.5 687.5c-2.7 7.4-11.3 11.8-19.2 11.8h-111.6c-7.9 0-12.1-4.4-9.4-11.8s11.3-11.8 19.2-11.8h111.5c7.9 0 12.1 4.4 9.5 11.8m-21-37.3c2.7-7.4-1.5-11.8-9.4-11.8h-77.1c-7.9 0-16.5 4.4-19.2 11.8s1.5 11.8 9.4 11.8h77c8 0 16.6-4.4 19.3-11.8m44.2-37.4c2.7-7.4-1.5-11.8-9.4-11.8h-108.5c-7.9 0-16.5 4.4-19.2 11.8s1.5 11.8 9.4 11.8h108.5c7.9 0 16.5-4.4 19.2-11.8" fill="#77bc1f"/><path d="m-397 721.3h600v3.6h-600z" fill="url(#e)"/><path d="m-397 811.6h600v3.6h-600z" fill="url(#f)"/><path d="m-7.9 699c-11.7 0-37.9-2.8-21.9-40.5l6.7-15.8c10.8-25.5 26.3-41.4 55.5-41.4h64c25.2 0 34 15.2 23.3 40.4l-6.7 15.8c-10.8 25.4-20.3 41.6-60.8 41.6zm66.7-23.7c12.4-.1 22.1-4.4 26-13.7l10-23.6c3.9-9.3-2.1-13.5-14.5-13.4h-48.8c-12.6.1-22.3 4.4-26.3 13.7l-10 23.5c-4 9.3 2.1 13.5 14.7 13.4zm-100.3-74.3h-81.8c-1.2 0-2.5.1-3.9.3-26.7 1.4-41.2 17-51.6 41.3l-6.7 15.8c-16.1 37.7 10.2 40.5 21.9 40.5h60.1c40.6 0 50-16.2 60.8-41.6l2.6-6c.2-.4.4-.8.5-1.2 2.7-7.4-1.5-11.8-9.4-11.8h-60.4c-7.9 0-16.5 4.4-19.2 11.8s1.5 11.8 9.4 11.8h48c-4 9-13.6 13.3-25.8 13.3h-48.9c-12.6.1-18.7-4.1-14.7-13.4l10-23.5c3.9-9.3 13.6-13.6 26.3-13.7h73c7.9 0 16.5-4.4 19.2-11.8s-1.5-11.8-9.4-11.8m-304.1 139.9h13.4c7.5 0 9.1 3.7 9.1 9.8v13.8c0 6.5-2 9.8-9.4 9.8h-3.5v21.4h-9.6zm9.6 24.4h1.6c1.2 0 1.6-.5 1.6-1.7v-11.7c0-1.3-.6-1.9-1.8-1.9h-1.5v15.3zm18.7 20.5v-35.1c0-6 2.6-10.6 11.3-10.6s11.3 4.6 11.3 10.6v35.1c0 6-2.6 10.6-11.3 10.6s-11.3-4.5-11.3-10.6m12.9 0v-35.1c0-1.1-.5-1.9-1.6-1.9s-1.6.8-1.6 1.9v35.1c0 1.2.5 2 1.6 2 1.1-.1 1.6-.8 1.6-2m34.1-29 2.9 38.8h11.3l6-54.7h-9.7l-2.1 37.7-3.4-37.7h-9.8l-3.4 37.7-2.1-37.7h-9.7l6.1 54.7h11.2zm34.9 15.6h7.3v-8.9h-7.3v-13.5h8.4v-9.1h-18v54.7h18.1v-9.1h-8.4zm24 1.2h-.2v22h-9.2v-54.7h13c7.5 0 9.1 3.7 9.1 9.8v13.8c0 4.7-1.1 7.1-3.7 8.4l6.4 22.8h-10.1zm-.2-8.3h1.6c1.2 0 1.6-.5 1.6-1.7v-11.7c0-1.3-.6-1.9-1.8-1.9h-1.5zm33.1-24.4h12.3c7.7 0 9.5 3 9.5 8.6v12c0 3.1-1 5-3.1 6.3 2.3 1.4 3.4 3.4 3.4 6.6v11.8c0 5.6-1.7 9.5-9.2 9.5h-12.9zm9.1 22.6h1.6c1.2 0 1.6-.5 1.6-1.9v-10.2c0-1-.5-1.5-1.5-1.5h-1.8v13.6zm0 23.1h1.9c.9 0 1.4-.5 1.4-1.6v-10.8c0-1.3-.5-1.8-1.7-1.8h-1.6zm27.9-14.2h7.3v-8.9h-7.3v-13.5h8.4v-9.1h-18.1v54.7h18.1v-9.1h-8.4zm29.1 23.2v-19.3l7-35.4h-10l-1.9 21.2-1.9-21.2h-10l7.1 35.4v19.3zm10.5-9.8v-35.1c0-6 2.6-10.6 11.3-10.6s11.3 4.6 11.3 10.6v35.1c0 6-2.6 10.6-11.3 10.6s-11.3-4.5-11.3-10.6m12.9 0v-35.1c0-1.1-.5-1.9-1.6-1.9s-1.6.8-1.6 1.9v35.1c0 1.2.5 2 1.6 2 1.1-.1 1.6-.8 1.6-2m30.8 9.8h8.8v-54.7h-8.7v16.5c0 3.3.2 11.5.4 14.3l-6.6-30.8h-8.8v54.7h8.7v-16.4c0-3.3-.2-11.6-.3-14.3zm15.4-54.7h12.6c8 0 9.9 3.4 9.9 9.8v35.2c0 6.6-2 9.8-9.7 9.8h-12.8zm9.6 45.7h1.6c1.2 0 1.6-.5 1.6-1.7v-33c0-1.3-.6-1.9-1.8-1.9h-1.5zm33-45.7h12.3c7.7 0 9.5 3 9.5 8.6v12c0 3.1-1 5-3.1 6.3 2.3 1.4 3.4 3.4 3.4 6.6v11.8c0 5.6-1.7 9.5-9.2 9.5h-12.7v-54.8zm9.2 22.6h1.6c1.2 0 1.6-.5 1.6-1.9v-10.2c0-1-.5-1.5-1.5-1.5h-1.8zm0 23.1h1.9c.9 0 1.4-.5 1.4-1.6v-10.8c0-1.3-.5-1.8-1.7-1.8h-1.6zm28.3-14.2h7.3v-8.9h-7.3v-13.5h8.4v-9.1h-18.1v54.7h18.1v-9.1h-8.4zm13.5 23.2h16.5v-9.1h-6.9v-45.6h-9.6zm21.5 0h9.6v-54.7h-9.6zm25.1-23.2h7.3v-8.9h-7.3v-13.5h8.4v-9.1h-18.1v54.7h18.1v-9.1h-8.4zm24 23.2v-23.2h6.5v-8.9h-6.5v-13.5h7.7v-9.1h-17.3v54.7zm18.8-190.1h-2.2v6.1h-1.4v-6.1h-2.2v-1.1h5.9zm5.6 4 2-5.2h2v7.3h-1.3v-5.7l-2.2 5.7h-1l-2.2-5.7v5.7h-1.3v-7.3h2zm-5.6 133h-2.2v6.1h-1.4v-6.1h-2.2v-1.1h5.9zm5.6 4 2-5.2h2v7.3h-1.3v-5.7l-2.2 5.7h-1l-2.2-5.7v5.7h-1.3v-7.3h2z" fill="#3c3c3b"/></svg>