<svg height="2464" viewBox=".52 4.36 798.96 791.28" width="2500" xmlns="http://www.w3.org/2000/svg"><path d="m244.14 299.85c12.54 0 24.09 3.99 33.31 10.69l-87.64 51.44c-.61-3.07-.92-6.27-.92-9.53 0-29.07 24.77-52.61 55.25-52.61z" fill="#00aef0"/><path d="m799.48 4.36-436.85 256.22c-26.55-16.9-64.1-27.96-114.25-27.96-100.06 0-176.2 49.84-176.2 124.95 0 21.63 7.37 42.41 22.19 60.35l-93.85 55.06v-202.81z" fill="#00aef0"/><path d="m125.96 444.77c5.72 3.5 11.92 6.76 18.56 9.77v2.09c-54.64 21.14-89.3 58.02-89.3 111.3 0 38.04 23.48 77.5 72.95 101.28l-127.65 126.43v-268.88zm118.18 56.61c15.06 0 28.82 5.22 39.46 13.89l-84.2 83.46c-10.02-10.33-16.16-24.15-16.16-39.33 0-32.02 27.29-58.02 60.91-58.02zm51.63-167.66a50.307 50.307 0 0 1 3.63 18.74c0 29.07-24.77 52.61-55.25 52.61-14.2 0-27.1-5.1-36.88-13.52zm45.72 110.62c15.43-6.82 28.21-15.24 38.6-24.65l-30.05 29.81c-2.83-1.11-5.65-2.15-8.54-3.13v-2.03zm45.73-31.65c17.95-19.48 26.61-42.65 26.61-66.07s-9.65-49.35-30.79-69.94l416.44-272.32-412.27 408.33z" fill="#37ca78"/><g fill="#00aef0"><path d="m244.14 617.41c-3.93 0-7.81-.37-11.49-1.04l69.33-74.86c1.97 5.65 3.01 11.62 3.01 17.88 0 32.02-27.23 58.02-60.84 58.02z"/><path d="m799.48 4.36-384.12 791.28h-348.77l103.56-111.79c20.59 4.98 44.07 7.74 70.55 7.74 116.16 0 192.3-53.96 192.3-134.59 0-43.33-24.58-74.92-57.46-94.89z"/><path d="m189.81 361.99-95.45 55.93c8.17 9.9 18.74 18.99 31.59 26.86l81.31-53.22c-8.91-7.56-15.24-17.88-17.45-29.56zm172.82-101.41-85.18 49.97c8.24 5.84 14.63 13.89 18.31 23.17l87.27-57.03c-5.9-5.84-12.72-11.25-20.4-16.1zm-12.6 188.92-66.44 65.76c8.48 6.82 14.93 15.92 18.38 26.24l73.57-79.41c-8.11-4.92-16.66-9.16-25.51-12.6zm-221.87 219.72c12.35 5.96 26.3 10.94 41.98 14.63l62.5-67.48c-13.03-2.4-24.58-8.67-33.25-17.64z"/></g></svg>