<svg height="2500" viewBox="83.82 89 334.94 328.168" width="2500" xmlns="http://www.w3.org/2000/svg"><g fill="#fff"><path d="m250.001 311.17c-61.254 0-111.086-49.833-111.086-111.084 0-61.254 49.832-111.086 111.085-111.086 61.252 0 111.084 49.834 111.084 111.086 0 61.25-49.834 111.085-111.084 111.085z" opacity=".5"/><path d="m250.001 297.484c-53.708 0-97.4-43.694-97.4-97.398 0-53.707 43.692-97.4 97.4-97.4 53.706 0 97.398 43.695 97.398 97.4 0 53.704-43.694 97.398-97.398 97.398z" opacity=".5"/><path d="m250 280.17c-44.16 0-80.085-35.926-80.085-80.084 0-44.16 35.925-80.086 80.085-80.086 44.159 0 80.084 35.927 80.084 80.086 0 44.158-35.927 80.085-80.084 80.085z" opacity=".5"/></g><path d="m223.802 170.396c-3.701 0-6.742 2.895-7.052 6.521a5.884 5.884 0 0 0 -3.162-.935h-3.59c-3.255 0-5.935 2.676-5.935 5.932v5.894h-7.282a1.9 1.9 0 0 0 -1.893 1.908v14.758a1.9 1.9 0 0 0 1.893 1.907h7.282v5.891c0 3.255 2.68 5.935 5.935 5.935h3.59c1.159 0 2.242-.35 3.162-.935.31 3.624 3.352 6.503 7.052 6.503h4.644c3.904 0 7.112-3.193 7.112-7.097v-12.82h28.884v12.82c0 3.904 3.193 7.097 7.097 7.097h4.644c3.702 0 6.744-2.88 7.052-6.507.92.587 2 .94 3.163.94h3.593c3.255 0 5.946-2.68 5.946-5.936v-5.89h7.267a1.9 1.9 0 0 0 1.908-1.908v-14.758a1.9 1.9 0 0 0 -1.908-1.908h-7.267v-5.894c0-3.256-2.691-5.932-5.946-5.932h-3.593a5.858 5.858 0 0 0 -3.163.935c-.31-3.626-3.35-6.521-7.052-6.521h-4.644c-3.904 0-7.097 3.211-7.097 7.115v12.806h-28.884v-12.807c0-3.904-3.208-7.115-7.112-7.115zm0 3.804h4.644c1.864 0 3.31 1.447 3.31 3.311v39.167c0 1.864-1.446 3.296-3.31 3.296h-4.644c-1.864 0-3.31-1.432-3.31-3.296v-39.168c0-1.864 1.446-3.31 3.31-3.31zm47.737 0h4.644c1.864 0 3.31 1.447 3.31 3.311v39.167c0 1.864-1.446 3.296-3.31 3.296h-4.644c-1.864 0-3.296-1.432-3.296-3.296v-39.168c0-1.864 1.432-3.31 3.296-3.31zm-61.539 5.583h3.589c1.215 0 2.145.915 2.145 2.13v30.36c0 1.214-.93 2.133-2.145 2.133h-3.59c-1.215 0-2.134-.919-2.134-2.134v-30.358c0-1.216.919-2.131 2.134-2.131zm76.399 0h3.593c1.215 0 2.145.915 2.145 2.13v30.36c0 1.214-.93 2.133-2.145 2.133h-3.593c-1.216 0-2.135-.919-2.135-2.134v-30.358c0-1.216.92-2.131 2.135-2.131zm-87.71 11.826h5.375v10.972h-5.374zm97.249 0h5.374v10.972h-5.374zm-60.38 2.513h28.885v5.93h-28.884z" fill="#737373"/><g fill="#fff"><path d="m119.04 341.346c0-1.04-.78-1.82-1.81-1.82h-31.6c-1.04 0-1.81.78-1.81 1.82v32.63c0 1.04.77 1.81 1.81 1.81h31.6c1.03 0 1.81-.77 1.81-1.81v-5.18c0-1.04-.78-1.81-1.81-1.81h-22.02v-5.18h16.32c1.04 0 1.81-.78 1.81-1.82v-5.18c0-1.03-.77-1.81-1.81-1.81h-16.32v-4.66h22.02c1.03 0 1.81-.78 1.81-1.81zm38.33 27.45c0-1.04-.77-1.81-1.81-1.81h-19.43v-25.64c0-1.04-.77-1.82-1.81-1.82h-7.77c-1.03 0-1.81.78-1.81 1.82v32.63c0 1.04.78 1.81 1.81 1.81h29.01c1.04 0 1.81-.77 1.81-1.81zm39.89-27.45c0-1.04-.78-1.82-1.81-1.82h-31.6c-1.04 0-1.82.78-1.82 1.82v32.63c0 1.04.78 1.81 1.82 1.81h31.6c1.03 0 1.81-.77 1.81-1.81v-5.18c0-1.04-.78-1.81-1.81-1.81h-22.02v-5.18h16.32c1.03 0 1.81-.78 1.81-1.82v-5.18c0-1.03-.78-1.81-1.81-1.81h-16.32v-4.66h22.02c1.03 0 1.81-.78 1.81-1.81zm44.81 15.54c0-1.04-.78-1.82-1.82-1.82h-15.38c-1.04 0-1.82.78-1.82 1.82v4.66c0 1.03.78 1.81 1.82 1.81h5.8c-1.04 2.59-3.11 4.92-8.03 4.92-5.7 0-9.32-3.62-9.32-10.62 0-6.99 3.62-10.62 9.32-10.62 4.09 0 5.7 1.56 6.99 3.37.78 1.04 1.82 2.07 3.11 2.07h6.48c1.24 0 2.07-.77 2.07-2.07 0-5.44-6.48-11.91-18.65-11.91-13.73 0-21.24 7.51-21.24 19.16 0 11.66 7.51 19.17 21.24 19.17 12.17 0 19.43-7.25 19.43-15.54zm34.34 17.09c.41 1.04 1.29 1.81 2.33 1.81h8.81c1.03 0 1.76-.77 1.29-1.81l-14.5-32.69c-.47-1.03-1.3-1.76-2.33-1.76h-10.62c-1.04 0-1.87.78-2.33 1.82l-14.51 32.63c-.46 1.04.26 1.81 1.3 1.81h8.29c1.03 0 1.91-.77 2.33-1.81l1.81-4.66h16.32zm-10.1-23.57h.52l4.14 10.36h-9.06zm52.99 9.84-12.95-18.9c-.52-.78-1.55-1.82-2.85-1.82h-8.81c-1.03 0-1.81.78-1.81 1.82v32.63c0 1.04.78 1.81 1.81 1.81h7.77c1.04 0 1.82-.77 1.82-1.81v-18.91h.52l12.95 18.91c.51.78 1.55 1.81 2.84 1.81h8.81c1.04 0 1.81-.77 1.81-1.81v-32.63c0-1.04-.77-1.82-1.81-1.82h-7.77c-1.04 0-1.81.78-1.81 1.82v18.9zm39.37-21.75c-13.73 0-21.24 7.51-21.24 19.16 0 11.66 7.51 19.17 21.24 19.17 12.43 0 19.16-6.74 19.16-12.95 0-1.3-.77-2.07-2.07-2.07h-6.47c-1.56 0-2.39.77-3.11 2.07-1.3 2.33-3.37 4.4-7.51 4.4-5.7 0-9.33-3.62-9.33-10.62 0-6.99 3.63-10.62 9.33-10.62 3.88 0 5.7 1.82 6.99 3.89.78 1.29 1.55 2.07 3.11 2.07h6.47c1.3 0 2.08-.78 2.08-2.07 0-5.96-6.48-12.43-18.65-12.43zm60.09 2.85c0-1.04-.78-1.82-1.82-1.82h-31.6c-1.03 0-1.81.78-1.81 1.82v32.63c0 1.04.78 1.81 1.81 1.81h31.6c1.04 0 1.82-.77 1.82-1.81v-5.18c0-1.04-.78-1.81-1.82-1.81h-22.01v-5.18h16.31c1.04 0 1.82-.78 1.82-1.82v-5.18c0-1.03-.78-1.81-1.82-1.81h-16.31v-4.66h22.01c1.04 0 1.82-.78 1.82-1.81z"/><path d="m202.439 400.518v16.27h2.87l-.29-2.15v-6.47h5.44l.57-2.13h-6.01v-6.04h6.88v-2.13h-9.84zm15.87-4.17v20.44h-2.69v-20.44zm-2.89-3.27q0-.63.38-1.07.39-.43 1.15-.43.76 0 1.15.43.39.44.39 1.07 0 .63-.39 1.05-.39.43-1.15.43-.76 0-1.15-.43-.38-.42-.38-1.05zm7.34 6.98h6.04v16.73h2.88l-.29-2.15v-14.58h6.21v-2.19h-14.84zm33.58-2.19h-2.73l.38 2.65v11.18l-1.27-1.87-10.55-11.96h-1.75l.37 2.65v16.27h2.65l-.29-2.15v-11.79l1.23 1.87 10.79 12.07h1.35l-.18-2.15zm6.13 18.92h9.2l.57-2.13h-7.18v-6.49h5.43l.57-2.13h-6v-6.04h6.87v-2.13h-9.84l.38 2.65zm12.71-1.75s1.75 2.13 5.14 2.13c3.51 0 5.72-2.33 5.72-5.58 0-5.64-8.1-5.29-8.1-9.43 0-1.67 1.4-2.59 2.76-2.59 2.18 0 4.02 1.27 4.08 1.41l.75-2.1c-.87-.55-2.48-1.35-4.75-1.35-3.25 0-5.55 2.44-5.55 5.4 0 5.09 8.25 5.24 8.25 9.03 0 2.01-1.43 3.14-3.07 3.14-2.85 0-4.95-2.53-4.95-2.53s-.26 2.44-.28 2.47zm13.8 0s1.75 2.13 5.14 2.13c3.51 0 5.72-2.33 5.72-5.58 0-5.64-8.1-5.29-8.1-9.43 0-1.67 1.4-2.59 2.76-2.59 2.18 0 4.02 1.27 4.08 1.41l.75-2.1c-.87-.55-2.48-1.35-4.75-1.35-3.25 0-5.55 2.44-5.55 5.4 0 5.09 8.25 5.24 8.25 9.03 0 2.01-1.43 3.14-3.07 3.14-2.85 0-4.95-2.53-4.95-2.53s-.26 2.44-.28 2.47z"/></g></svg>