<svg height="1406" viewBox="20.424 367.515 1879.15 308.03" width="2500" xmlns="http://www.w3.org/2000/svg"><path d="m317.165 646.93h882.915v-250.493h-882.915z" fill="#b71119"/><path d="m285.228 497.86c-3.433-2.04-6.582-3.907-9.726-5.784-26.808-16.008-53.617-32.014-80.421-48.029-12.91-7.714-25.838-15.396-38.682-23.224-2.133-1.3-3.701-1.273-5.853-.034-19.726 11.354-39.523 22.581-59.296 33.851-8.233 4.693-16.458 9.402-24.686 14.107-.363.208-.712.442-1.34.834.614.48 1.066.91 1.585 1.224 11.366 6.882 22.754 13.726 34.107 20.63 14.086 8.564 28.143 17.18 42.217 25.766 3.197 1.95 6.436 3.827 9.597 5.835.559.355 1.048 1.144 1.182 1.814.227 1.131.183 2.327.186 3.496.039 14.721.07 29.443.09 44.164 0 1.087-.1 2.174-.18 3.79l-88.858-54.28c-.08.976-.185 1.66-.181 2.342.08 13.857.217 27.714.22 41.57 0 2.194.536 3.528 2.492 4.715 10.837 6.58 21.549 13.372 32.344 20.024a16831.405 16831.405 0 0 0 53.143 32.602c1.132.691 1.558 1.473 1.553 2.794-.072 15.891-.098 31.781-.147 47.671-.002.525-.116 1.05-.205 1.807-.664-.31-1.153-.488-1.593-.75-16.64-9.95-33.272-19.914-49.911-29.864a113709.53 113709.53 0 0 0 -57.24-34.2 4864.52 4864.52 0 0 0 -23.674-14.068c-1.051-.619-1.512-1.315-1.512-2.616.027-49.216.02-98.433-.014-147.649-.001-1.272.39-1.998 1.467-2.629 23.39-13.71 46.763-27.458 70.14-41.194 19.212-11.288 38.442-22.543 57.616-33.898 1.96-1.162 3.4-1.144 5.359.054 32.882 20.11 65.81 40.14 98.73 60.183 10.01 6.095 20.02 12.19 30.047 18.256 1 .606 1.607 1.203 1.602 2.561-.052 15.461-.032 30.923-.037 46.384 0 .425-.057.85-.122 1.744"/><path d="m177.59 660.75c0-4.08.008-7.763 0-11.444-.043-15.766-.063-31.532-.143-47.298-.078-15.636-.22-31.272-.332-46.908-.103-14.283-.219-28.566-.28-42.849-.006-1.466-.47-2.326-1.74-3.072-13.128-7.695-26.219-15.455-39.316-23.203a8666.776 8666.776 0 0 1 -22.9-13.59c-.583-.348-1.074-.86-1.799-1.45.73-.512 1.19-.883 1.692-1.18 10.546-6.247 21.1-12.483 31.645-18.729 1.922-1.138 3.932-2.16 5.704-3.51 1.885-1.434 3.382-1.219 5.337-.03 13.576 8.248 27.225 16.37 40.85 24.536 29.11 17.452 58.215 34.913 87.344 52.332 1.235.738 1.742 1.525 1.737 3.032-.057 15.336-.035 30.672-.035 46.01v2.334l-64.577-38.409v4.294c.023 30.426.034 60.851.104 91.277.003 1.526-.555 2.323-1.762 3.054-13.07 7.914-26.115 15.877-39.178 23.807-.619.376-1.34.574-2.35.995" fill="#b71119"/><path d="m348.348 428.261h94.24v37.592h-49.953v35.791h35.533v35.018h-35.533v45.832h51.755v36.306h-96.042zm109.69 0h44.287v154.233h50.468v36.306h-94.755zm107.112 0h94.24v37.592h-49.954v35.791h35.533v35.018h-35.533v45.832h51.755v36.306h-96.041zm109.688 0h43.258v80.078c3.347-11.845 9.527-28.838 15.45-43l15.706-37.078h42.742l-36.305 75.7 40.167 114.839h-44.802l-25.234-75.443-7.724 18.281v57.162h-43.258zm152.949 37.593h-32.187v-37.592h108.66v37.592h-32.186v152.946h-44.287zm139.813 56.132c10.557 0 16.737-5.665 16.737-29.354 0-22.658-6.18-26.778-16.994-26.778h-8.497v56.132zm63.342 96.814h-43.514l-21.372-61.796h-7.21v61.796h-43v-190.54h52.528c34.503 0 58.964 17.768 58.964 63.6 0 17.766-4.635 39.395-22.401 51.755zm91.923-95.27c0-40.94-4.635-58.449-19.312-58.449-14.934 0-19.57 17.51-19.57 58.45s4.636 59.478 19.57 59.478c14.677 0 19.312-18.538 19.312-59.479m-83.683 0c0-70.55 26.52-97.587 64.37-97.587 37.594 0 64.115 27.036 64.115 97.587s-26.521 97.33-64.114 97.33c-37.85 0-64.371-26.779-64.371-97.33" fill="#fff"/><path d="m1294.349 465.854h-32.185v-37.592h108.659v37.592h-32.187v152.946h-44.287zm139.815 56.132c10.557 0 16.737-5.665 16.737-29.354 0-22.658-6.18-26.778-16.995-26.778h-8.496v56.132zm63.34 96.814h-43.513l-21.372-61.796h-7.21v61.796h-43v-190.54h52.528c34.502 0 58.964 17.768 58.964 63.6 0 17.766-4.635 39.395-22.401 51.755zm13.906-190.539h94.24v37.592h-49.954v35.791h35.533v35.018h-35.533v45.832h51.755v36.306h-96.042zm109.688 0h45.575l24.204 65.916c5.149 15.192 9.012 26.264 12.1 37.851h1.032v-103.767h34.245v190.539h-37.593l-31.413-78.275c-5.408-14.42-10.814-30.641-12.875-37.851h-1.03v116.126h-34.245zm187.964 153.719c21.371 0 26.007-12.617 26.007-58.964 0-45.833-4.636-57.162-26.265-57.162h-6.179v116.126zm-50.725-153.72h45.318c44.287 0 76.215 14.163 76.215 94.756 0 81.365-32.7 95.784-76.215 95.784h-45.318zm141.237-31.824h-664.652v9.861h664.652zm0 240.633h-664.652v9.861h664.652z"/></svg>