<svg fill="none" height="1413" viewBox=".209 -89.106 728.399 576.1" width="2500" xmlns="http://www.w3.org/2000/svg"><path d="m205.5 147.033c142-43.6 245.167-24.834 279-10-57.6-18-147.333-10.5-185-4.5l-19.5 10.5 7-8c-24 3.2-43.333 9.333-50 12 41.683 0 97.341 11.339 125.488 18.332 2.782.561 4.978 1.118 6.512 1.668a433.239 433.239 0 0 0 -6.512-1.668c-35.655-7.192-167.471-15.086-233.488-18.332z" fill="#cd9b3c"/><path d="m.209 260v-1.536l7.68-3.84v-52.608l-7.68-3.84v-1.536h46.944v16.512h-1.536l-5.952-11.232h-23.136v22.752h16.32l4.8-7.968h1.536v21.024h-1.536l-4.8-7.776h-16.32v24.768h25.824l5.952-12.192h1.536v17.472zm62.625 0v-1.536l7.68-3.84v-52.608l-7.68-3.84v-1.536h24.96v1.536l-8.64 3.84v52.704h23.328l6.528-16.032h1.536v21.312zm60.198 0v-1.536l7.68-3.84v-52.608l-7.68-3.84v-1.536h24v1.536l-7.68 3.84v52.608l7.68 3.84v1.536zm49.119 0v-1.536l9.6-3.84v-52.704h-15.648l-6.528 14.112h-1.536v-19.392h56.064v19.392h-1.536l-6.528-14.112h-15.648v52.704l9.6 3.84v1.536zm52.495 0v-1.536l7.68-3.84v-52.608l-7.68-3.84v-1.536h46.944v16.512h-1.536l-5.952-11.232h-23.136v22.752h16.32l4.8-7.968h1.536v21.024h-1.536l-4.8-7.776h-16.32v24.768h25.824l5.952-12.192h1.536v17.472z" fill="#000"/><path d="m330.087 260.96c-6.528 0-12.16-1.344-16.896-4.032s-8.384-6.336-10.944-10.944c-2.56-4.672-3.839-9.984-3.839-15.936 0-4.544.863-8.864 2.591-12.96 1.792-4.16 4.192-7.84 7.2-11.04a35.205 35.205 0 0 1 10.56-7.584c4.032-1.856 8.288-2.784 12.768-2.784 3.2 0 5.921.224 8.161.672 2.24.384 4.223.928 5.951 1.632a48.512 48.512 0 0 1 5.377 2.304l.479 16.8h-1.728l-5.856-11.712c-2.432-1.728-4.576-2.976-6.432-3.744-1.792-.768-3.84-1.152-6.144-1.152-4.608 0-8.736 1.152-12.384 3.456-3.584 2.304-6.431 5.472-8.543 9.504-2.048 3.968-3.073 8.544-3.073 13.728 0 6.08.992 11.296 2.976 15.648 2.048 4.288 4.768 7.584 8.16 9.888 3.456 2.24 7.265 3.36 11.425 3.36 3.52 0 6.463-.48 8.831-1.44 2.432-1.024 4.576-2.144 6.432-3.36l5.76-10.272h1.632l-1.056 15.264a46.004 46.004 0 0 1 -5.759 2.496c-1.92.704-4.129 1.248-6.625 1.632s-5.504.576-9.024.576zm37.497-.96v-1.536l7.68-3.84v-52.608l-7.68-3.84v-1.536h24.768c6.72 0 12 1.408 15.84 4.224 3.904 2.752 5.856 6.56 5.856 11.424 0 3.584-1.216 6.816-3.648 9.696-2.432 2.816-5.664 4.96-9.696 6.432l18.24 26.592 6.336 3.456v1.536h-13.824l-18.624-29.088h-8.928v23.616l7.2 3.936v1.536zm22.56-58.08h-6.24v23.712h6.816c4.032 0 7.36-1.12 9.984-3.36 2.688-2.304 4.032-5.216 4.032-8.736 0-3.584-1.312-6.4-3.936-8.448-2.624-2.112-6.176-3.168-10.656-3.168zm53.65 58.08v-1.536l8.64-3.84v-24.192l-21.312-29.088-5.856-3.168v-1.536h23.232v1.536l-7.008 3.36v.384l17.184 23.328 15.456-23.232v-.384l-7.008-3.456v-1.536h20.352v1.536l-6.144 3.168-20.256 28.992v24.288l8.64 3.84v1.536zm71.425.96c-3.968 0-7.328-.352-10.08-1.056-2.752-.768-5.6-1.888-8.544-3.36l-.96-15.744h1.536l4.704 10.176c2.304 1.92 4.544 3.328 6.72 4.224 2.176.832 4.384 1.248 6.624 1.248 3.776 0 6.72-.992 8.832-2.976 2.176-1.984 3.264-4.672 3.264-8.064 0-2.816-.64-5.024-1.92-6.624-1.216-1.6-3.008-3.008-5.376-4.224-2.304-1.28-5.056-2.72-8.256-4.32-3.008-1.536-5.568-3.04-7.68-4.512s-3.712-3.168-4.8-5.088c-1.088-1.984-1.632-4.448-1.632-7.392 0-2.176.512-4.288 1.536-6.336 1.088-2.112 2.528-4 4.32-5.664 1.856-1.728 3.904-3.072 6.144-4.032 2.304-1.024 4.672-1.536 7.104-1.536 2.944 0 5.664.352 8.16 1.056s5.056 1.696 7.68 2.976l.96 15.36h-1.536l-4.416-10.08c-2.24-1.664-4.192-2.848-5.856-3.552-1.664-.768-3.584-1.152-5.76-1.152-2.816 0-5.152.96-7.008 2.88-1.792 1.92-2.688 4.288-2.688 7.104 0 3.264.992 5.824 2.976 7.68 1.984 1.792 5.088 3.712 9.312 5.76 3.904 1.92 7.104 3.712 9.6 5.376 2.496 1.6 4.352 3.456 5.568 5.568s1.824 4.8 1.824 8.064c0 3.008-.64 5.664-1.92 7.968a18.436 18.436 0 0 1 -4.992 5.664 21.117 21.117 0 0 1 -6.624 3.456c-2.368.768-4.64 1.152-6.816 1.152zm44.088-.96v-1.536l9.6-3.84v-52.704h-15.648l-6.528 14.112h-1.536v-19.392h56.064v19.392h-1.536l-6.528-14.112h-15.648v52.704l9.6 3.84v1.536zm46.517 0v-1.536l6.144-3.168 24.576-59.136h4.32l24.192 58.848 6.432 3.456v1.536h-23.808v-1.536l8.448-3.264-7.2-17.76h-23.328l-7.104 17.76 8.064 3.264v1.536zm21.984-27.84h19.008l-9.504-23.616zm53.088 27.84v-1.536l7.68-3.84v-52.608l-7.68-3.84v-1.536h24.96v1.536l-8.64 3.84v52.704h23.328l6.528-16.032h1.536v21.312zm-33.396-116.606c-16.4-189.2-269.5-132-388.5-82 331.5-150.5 444.5 13 423.5 94z" fill="#cd9b3c"/><path d="m585 152.894c58-6.8 114.167 21.5 135 36.5-57-30.5-186-24-203.5-26.5-14-2-28.833-7.5-34.5-10 17.6 1.6 56 .667 73 0-117.6-78.8-373.333-34.166-486.5-2l134 14.5-101-3-55 56 41-58.5-22-.5-1.5 31-6-33-15-16c.404 0 1.406.04 2 0 17.044-1.142 110.6-18.303 156.5-27 178-42 329.833 8.167 383.5 38.5z" fill="#000"/><path d="m125.5 285.894h35.5l-27.5 35h-29.5c-.8-19.2 14-31.333 21.5-35zm53 0h-7.5l-30 35h9zm8 0-27.5 35h9l27-35zm26.5 0h-9.5l-28 35h8.5zm342 0h-335l-29.5 35h317.5z" fill="#cd9b3c"/><path d="m599 285.894h-37c-67.5 74.5-333.5 183-454.5 57.5 118.8 143.6 418 28 491.5-57.5z" fill="#cd9b3c"/><path d="m265.112 313.714c-2.176 0-4.053-.448-5.632-1.344-1.578-.896-2.794-2.112-3.648-3.648-.853-1.557-1.28-3.328-1.28-5.312 0-1.514.288-2.954.864-4.32a12.646 12.646 0 0 1 2.4-3.68 11.76 11.76 0 0 1 3.52-2.528 10.07 10.07 0 0 1 4.256-.928c1.067 0 1.974.075 2.72.224.747.128 1.408.31 1.984.544.598.214 1.195.47 1.793.768l.16 5.6h-.577l-1.952-3.904c-.81-.576-1.525-.992-2.144-1.248-.597-.256-1.279-.384-2.047-.384-1.536 0-2.913.384-4.129 1.152-1.194.768-2.144 1.824-2.848 3.168-.682 1.323-1.023 2.848-1.023 4.576 0 2.027.33 3.766.991 5.216.683 1.43 1.59 2.528 2.72 3.296a6.857 6.857 0 0 0 3.808 1.12c1.174 0 2.155-.16 2.944-.48a13.327 13.327 0 0 0 2.145-1.12l1.919-3.424h.544l-.351 5.088c-.619.32-1.259.598-1.921.832-.64.235-1.376.416-2.208.544s-1.834.192-3.008.192zm10.85-.32v-.512l2.048-1.056 8.192-19.712h1.44l8.064 19.616 2.144 1.152v.512h-7.936v-.512l2.816-1.088-2.4-5.92h-7.776l-2.368 5.92 2.688 1.088v.512zm7.328-9.28h6.336l-3.168-7.872zm17.696 9.28v-.512l2.56-1.28v-17.536l-2.56-1.28v-.512h8.256c2.24 0 4 .47 5.28 1.408 1.302.918 1.952 2.187 1.952 3.808 0 1.195-.405 2.272-1.216 3.232-.81.939-1.888 1.654-3.232 2.144l6.08 8.864 2.112 1.152v.512h-4.608l-6.208-9.696h-2.976v7.872l2.4 1.312v.512zm7.52-19.36h-2.08v7.904h2.272c1.344 0 2.454-.373 3.328-1.12.896-.768 1.344-1.738 1.344-2.912 0-1.194-.437-2.133-1.312-2.816-.874-.704-2.058-1.056-3.552-1.056zm32.356 19.68c-2.176 0-4.053-.448-5.632-1.344-1.578-.896-2.794-2.112-3.648-3.648-.853-1.557-1.28-3.328-1.28-5.312 0-1.514.289-2.954.865-4.32a12.623 12.623 0 0 1 2.399-3.68 11.76 11.76 0 0 1 3.52-2.528 10.07 10.07 0 0 1 4.256-.928c1.067 0 1.974.075 2.72.224.747.128 1.408.31 1.984.544.598.214 1.195.47 1.793.768l.16 5.6h-.577l-1.952-3.904c-.81-.576-1.525-.992-2.144-1.248-.597-.256-1.279-.384-2.047-.384-1.536 0-2.913.384-4.129 1.152-1.194.768-2.144 1.824-2.848 3.168-.682 1.323-1.023 2.848-1.023 4.576 0 2.027.33 3.766.991 5.216.683 1.43 1.59 2.528 2.72 3.296a6.857 6.857 0 0 0 3.808 1.12c1.174 0 2.155-.16 2.944-.48a13.327 13.327 0 0 0 2.145-1.12l1.919-3.424h.544l-.351 5.088c-.619.32-1.259.598-1.921.832-.64.235-1.376.416-2.208.544s-1.834.192-3.008.192zm10.85-.32v-.512l2.048-1.056 8.192-19.712h1.44l8.064 19.616 2.144 1.152v.512h-7.936v-.512l2.816-1.088-2.4-5.92h-7.776l-2.368 5.92 2.688 1.088v.512zm7.328-9.28h6.336l-3.168-7.872zm17.696 9.28v-.512l2.56-1.28v-17.536l-2.56-1.28v-.512h8.256c2.24 0 4 .47 5.28 1.408 1.302.918 1.952 2.187 1.952 3.808 0 1.195-.405 2.272-1.216 3.232-.81.939-1.888 1.654-3.232 2.144l6.08 8.864 2.112 1.152v.512h-4.608l-6.208-9.696h-2.976v7.872l2.4 1.312v.512zm7.52-19.36h-2.08v7.904h2.272c1.344 0 2.454-.373 3.328-1.12.896-.768 1.344-1.738 1.344-2.912 0-1.194-.437-2.133-1.312-2.816-.874-.704-2.058-1.056-3.552-1.056zm13.636 19.36v-.512l2.56-1.28v-17.536l-2.56-1.28v-.512h15.648v5.504h-.511l-1.985-3.744h-7.712v7.584h5.44l1.6-2.656h.512v7.008h-.512l-1.6-2.592h-5.44v8.256h8.608l1.984-4.064h.512v5.824z" fill="#fff"/></svg>