<svg height="2500" viewBox="25 28.1 226.9 229.6" width="2500" xmlns="http://www.w3.org/2000/svg"><path d="m130.9 38.6-5.6 10.4 5.3 20.5c2.9 11.2 5.4 21 5.6 21.7.5 1.3 10.8-39 10.8-41.9 0-1-2.4-6.2-5.3-11.5l-5.2-9.7zm-19.2 21-6.8 3.5.7 5.7c1.2 10.5 3.2 23.3 3.7 23.8.2.2 4.4.9 9.3 1.4 4.9.6 10.3 1.2 12.1 1.4l3.2.5-5.9-16.7c-8.1-23.1-8.1-23.2-8.8-23.2-.4.1-3.8 1.7-7.5 3.6zm40.4-1.4c-.5 1.3-3.6 10.3-7 20.1l-6.1 17.8 3.3-.5c1.7-.3 7.2-1 12.2-1.6 4.9-.6 9.1-1.3 9.2-1.4.3-.2 2.2-13.3 3.8-25.3l.6-4.2-7-3.6c-3.9-1.9-7.3-3.5-7.6-3.5s-.9 1-1.4 2.2zm-34.3 45.2c-4.2.6-8 1.4-8.3 1.8-.6.5-4.4 24.3-4.5 27.5 0 .7 3.3 3 7.2 5.2 5.8 3.2 7.4 3.7 8 2.6.5-.8 3.7-9.7 7.2-19.9l6.3-18.6-4.1.1c-2.3.1-7.6.6-11.8 1.3zm28.1 17.5c3.7 10.5 6.9 19.3 7.3 19.6.9 1 14.8-6.6 14.8-8.1 0-1.4-4-27.8-4.3-28-.5-.5-16.3-2.4-20.1-2.4h-4.3zm-14.9 5.3-5.4 21.6 1.7 3.8c1 2.2 3.5 7 5.7 10.8l3.8 7 5.3-10.7 5.3-10.7-4.3-17.5c-2.4-9.7-4.9-19.5-5.6-21.7l-1.2-4.2zm-70.4 60.7c-1.1 1.2-2.5 2.1-3.2 2.1-2.1 0-2.8 2.2-1 3.2 1.4.8 1.6 4.1 1.6 29.8 0 18.2-.4 29.1-1 29.5-2.5 1.5-.5 2.5 5.3 2.5h6.2l-2.5-2-2.5-1.9-.5-32.6c-.5-32.3-.5-32.7-2.4-30.6zm90.6.9c-3.6.6-8.6 6.3-11 12.6-7.4 19.4-3.7 48.3 6.8 53.8 4.5 2.3 8.3 1.3 15.1-3.9l4.9-3.7v-8.1c0-5.1.5-9 1.5-10.9.8-1.5 1.5-3 1.5-3.2s-3.1-.4-7-.4c-6.7 0-9.1 1.2-5.1 2.5 2.4.7 4.1 5.4 4.1 11.5 0 6.8-1.6 10.5-5.5 12.5-3.1 1.7-3.5 1.7-5.8.2-9.7-6.3-11.3-48.2-2.2-57.3 5.9-5.9 12.8-.8 16.4 12l1.9 7.1.1-10.2c.1-8.8-.1-10.2-1.4-9.6-.9.3-2.4-.2-3.3-1-2.6-2.3-8.3-4.4-11-3.9zm-126.2 2.2c0 .5.4 1 .9 1s1.7.7 2.5 1.6c2.3 2.2 2.4 55 .1 58-2.7 3.5-1.8 3.9 9.1 3.9 10.2 0 10.7-.1 12.6-2.5 1-1.4 2.1-4.9 2.4-8l.5-5.5-2.2 4.3c-2.2 4.4-4 5.8-9 7.2-5.3 1.5-6-.4-5.7-15.3l.3-13.2 2.8-.3c3.4-.4 6.7 2.2 6.7 5.2 0 1.2.5 2.8 1.1 3.6.8 1.1.9-.2.5-4.9-.3-3.5-.6-8.7-.7-11.5-.1-4.8-.1-4.9-1.1-2.1-1.6 4.5-2.7 5.5-6.4 5.5h-3.4v-11.5c0-10.7.1-11.5 2.1-12.6 1.7-.8 3.1-.8 6 0 3.3 1 4 1.7 5.2 5.9l1.5 4.7.1-5c.2-9.8.6-9.5-13.5-9.5-7.6 0-12.4.4-12.4 1zm73.7 25.8c-3.5 2.3-3.6 2.6-2.2 4.2 1.3 1.5 1.6 4.2 1.3 16.1-.2 7.9-.7 15.2-1.2 16.2-.7 1.5-.2 1.7 4.8 1.7 3.1 0 5.6-.2 5.6-.5s-.9-1.4-2-2.5c-1.8-1.8-2-3.3-2-13.4 0-6.3.3-12.1.6-13 .8-2.1 4-2 5.3.1.9 1.6 1.2 1.6 2.1.3 2.2-3.4.5-11-2.6-11-.8 0-2.2 1.6-3.2 3.7l-1.7 3.6-.5-4-.5-4zm100.1 0c-4.1 2.7-4.6 3.7-2.3 4.6 1.2.4 1.5 3.1 1.5 15.5 0 8.9-.4 15.2-1 15.6-2.3 1.4-.7 2.2 4.5 2.3 6 0 6.5-.5 3.5-3.1-1.8-1.5-2-2.9-2-13.6 0-6.6.4-13.1 1-14.6 1.4-3.7 3.9-4.3 6.2-1.6 1.5 2 1.8 4.2 1.8 16.2 0 8.1-.4 14-1 14.4-2.4 1.5-.6 2.5 4.5 2.5 3 0 5.5-.2 5.5-.5s-.9-1.4-2-2.5c-1.8-1.8-2-3.3-2-14.4 0-14.2.9-17.9 4.2-17.4 3.8.5 4.8 4.2 4.8 18.5 0 7.7-.4 13.4-1 13.8-2.2 1.4-.7 2.1 4.6 2.2l5.6.2-2-2.2c-1.8-2-2.1-3.8-2.4-16.7-.4-15.5-1.6-20.2-5.7-21.3-2.4-.6-6.7 2.4-7.6 5.4-.6 1.8-.8 1.7-2.9-1.3-3.1-4.7-6.9-5-9.3-.6l-1.8 3.3-.5-3.6-.5-3.6zm-122.4-.3c-3.8 2.6-6.8 11.2-6.8 19.5-.1 12.2 4 20.3 10.4 20.3 6.7 0 11-8.4 11-21.5 0-14.9-7-23.7-14.6-18.3zm7.4 5.7c3.3 6.7 4.2 22.7 1.5 27.8-3.9 7.5-8.6 2.6-10.5-10.9-.9-6.2-.9-9.4 0-13.7 2-9.8 5.2-10.9 9-3.2zm34.5-5c-2.5 2.8-3.9 8.3-2.3 9.3 1.9 1.1 4-1.6 4-5.1 0-2.7.4-3.4 1.9-3.4 2.4 0 3.2 1.2 4.2 6.4 1.1 6 .3 8.1-4.2 10.2-5.1 2.2-6.9 5.7-6.9 13 0 9.1 3.2 11.1 9.1 5.7l2.6-2.3 1.1 2.5c1.4 3 3.3 3.2 5.5.7 2.2-2.4 2.1-2.9-.2-3.5-1.8-.4-2-1.7-2.3-16.2-.3-15.1-.4-15.8-2.7-17.6-3.1-2.6-7.3-2.4-9.8.3zm7.7 25.3c0 6.1-.3 7.6-1.7 8.3-3.2 1.7-4.3.3-4.3-5.2 0-5.2 2.6-10.6 5.1-10.6.5 0 .9 3.4.9 7.5zm53.5-25.9c-3.7 3.7-4.9 7.9-5.3 18-.4 8.6-.1 10.8 1.6 14.7 3.8 8.6 9.2 9.4 14 2.2 2.9-4.6 2.8-6.5-.3-3.1-3 3.3-4.8 3.3-7.4 0-2.1-2.7-4.6-12.6-3.7-15 .4-1 2.3-1.4 7.1-1.4h6.5v-3c0-3.5-2.3-9.6-4.7-12.2-2-2.2-5.6-2.3-7.8-.2zm6.2 3.4c.7 1.4 1.2 4.1 1.1 6-.3 3.4-.4 3.5-4.3 3.5h-4l.2-4.2c.3-7.9 4.2-10.8 7-5.3zm54.4-2.4c-4.9 6.2-3.9 14.5 2.5 21.4 4.2 4.5 4.5 5.1 4.2 9.7-.2 4-.7 4.9-2.4 5.1-2.8.4-4.1-1.4-5.8-7.9l-1.5-5.4v6.8c-.1 6.7-.1 6.8 3 8.1 1.8.7 4.1 1.1 5.2.8 4.2-1.1 6.6-14.1 3.8-20.9-.7-1.8-2.8-4.4-4.6-5.8-3.7-2.8-5.2-7.3-3.5-10.4 1.8-3.5 4.6-2.6 6.6 2.1l1.8 4.3.4-3.2c.7-7.1-5.4-10.1-9.7-4.7z"/></svg>