<svg height="1913pt" viewBox="2 1.6 4737.2 1910" width="4741pt" xmlns="http://www.w3.org/2000/svg"><path d="m1992.5 3.7c-43.3 9.2-73 50.9-67.6 95.1 2.6 21.1 10.8 38.2 25 52.2 17.2 17 37.1 25 61.6 25 24.3 0 45.5-8.4 62.7-24.8 19.1-18.3 27.6-39.4 26.6-66.1-.4-10.7-1-14-3.7-22.1-4.9-14.5-10.2-23.1-21.1-34.1-13.6-13.8-27.8-21.5-46.2-25.3-9.6-2-27.9-2-37.3.1zm-1983.7 47c-3.8.2-6.8.7-6.8 1.1 0 .7 3.3 5 15 19.2 30.3 36.9 49.8 84.8 56.5 139 2.1 17.3 2.3 28.8 5.1 347.5 1.3 155.6 2.9 288.6 3.4 295.5 3 37.2 9.6 62.8 21.2 82.4 5.2 8.9 13.3 17.5 19.6 20.9 11.2 6.1-4.1 5.7 237.7 5.7 221.6 0 245-.3 263.9-3.6 38.9-6.7 72.9-30.2 89.2-61.7 6.2-11.9 8.9-20.4 11.3-35 2.7-15.9 5.4-60.9 3.7-61.9-1.6-1.1-1.8-1-9.3 7.6-12 13.9-28.1 25.7-46 33.6-16.8 7.4-52.7 16.6-74.8 19.1-16.6 1.9-263.6 1.9-272 .1-20.6-4.7-35.9-20.6-41-42.7-5-21.2-4.8-16.7-5.2-196.7l-.4-168.6 6.8-.8c3.7-.5 48.2-.9 98.8-.9 90.7 0 92.2 0 105.3 2.2 23.8 4 36.2 7.2 62.9 16.2 30 10.1 28.3 10.6 18.8-4.9-13.2-21.2-33-44.2-50.5-58.3-30.1-24.3-66.6-39.2-108.6-44.2-15.1-1.8-62.6-3.4-104-3.5h-29.1l-.6-62.8c-.3-34.5-1.1-67.7-1.6-73.7-2.4-24.7-6.5-44.7-12.7-61.1-2.9-7.8-3.3-9.8-2.2-10.6 1.8-1.3 225.3-.2 250.3 1.2 53.2 2.9 96.5 11.8 138 28.2 13.1 5.2 35.7 16.2 47.1 23.1 5 3 10.3 5.7 11.7 6.1 2.5.6 2.6.5 2.1-2.6-2.2-12.3-11.5-35.4-19.8-49.5-24.2-41-62.6-70.4-115.5-88.5-27.6-9.4-59.3-15-91.4-16.3-15.4-.6-466.9-1.3-476.9-.8zm3520.1 25.5c-.9.7-6.5 8.2-12.5 16.7-21.9 30.9-42.9 55.5-71 83.1-42.1 41.3-77 66.2-143.4 102.3-10.7 5.8-27.2 14.8-36.6 19.9-19.9 10.8-24 13.7-23.1 16.1.6 1.6 5.2 1.7 57.7 1.7h57v259.7c0 165.5.4 264.7 1 273.3 1.8 23.3 6.5 45.2 14.7 66.9 9.8 26.4 18.2 36.4 35.3 42.1 6.5 2.2 6.8 2.2 98.7 2.4l92.2.3-9.7-10.1c-32.1-33.4-50.1-71.7-56.3-119.6-.9-7.3-1.1-68.8-.9-261 .1-138.3.4-251.7.7-252 .2-.3 15.2-.5 33.1-.5 26.2 0 35.1.4 44.7 1.8 25.1 3.8 49.4 10.7 70.3 20.1 5.6 2.5 10.4 4.6 10.7 4.6s.4-24.4.3-54.3l-.3-54.2-80.2-.3-80.3-.2-.2-80c-.3-73.5-.4-80-1.9-78.8zm956.2 154.9c-37.2 3.3-73.3 14.7-102.1 32.3-24.1 14.8-48.9 37.6-61.8 56.9-17.8 26.7-24.6 49.8-24.6 83.7-.1 65.8 27.8 126.5 77.4 168.5 17.2 14.5 38.5 29.2 86.5 59.5 61.9 39.1 81.7 53.3 93.4 67.1s19.6 28.6 23.8 44.8c3.6 13.9 3.6 32.4-.1 46.5-4.8 18.5-14.3 34.7-29.4 49.9-30.1 30.6-71.5 45.8-114 41.9-22.3-2-37.9-6-53.3-13.7-26.3-13-46.6-33.5-69.4-70-4.8-7.7-8.9-14.2-9.1-14.4s-.4 28.3-.4 63.5v63.9l17.8 9.2c41.5 21.4 86.9 35.1 130.8 39.4 15.5 1.5 55.6.6 68.9-1.5 42.6-6.9 83.6-22.9 118.2-46 43.2-28.9 74.1-68.4 90.1-115.1 1.7-5 4.9-15.9 7.1-24.3l4.1-15.3v-27.2c0-29.3.2-27.5-7-56.7-9.4-38.4-32.6-78-63.1-107.5-21.7-21.1-41.5-34.8-115.4-80.4-49.7-30.7-53.9-33.4-61-38.7-8.8-6.6-20.5-18.4-25.9-26.1-2.3-3.3-5.8-9.6-7.8-13.9-13.1-27.9-9.6-54.7 9.7-73.9 8.3-8.2 15.3-12.6 27.7-17.2 24.7-9.3 51.6-10.7 81.3-4.2 44.1 9.7 79.8 36.8 109.4 83.1 2.4 3.7 4.7 6.5 5.2 6.2s.9-25.2.9-57.2v-56.7l-12.2-8.2c-39.3-26-92.6-44.1-142.3-48.3-13.9-1.1-39.8-1.1-53.4.1zm-3335.1.9c-65.7 8-113.9 44.7-146.3 111-4.5 9.3-8.4 16.9-8.7 16.9-.3.1-4.2-11.3-8.7-25.2-9.3-28.4-16.7-44.6-26.1-57.3-17.1-23-40.2-36.2-70.5-40.3-4.8-.7-30.9-1.1-67.7-1.1h-59.8l7.5 7.2c25.9 25 41.1 55.3 48.6 96.2l2.1 12.1.7 247.5c.3 136.1.9 248.8 1.2 250.5.3 1.6 1.1 7.9 1.7 14 4.3 41.5 18.6 75.9 37 88.6 3 2.1 8.4 4.8 12 6 6.5 2.2 6.7 2.2 98.7 2.4l92.1.2-9.2-10.1c-12.3-13.6-19.2-22.3-26.5-33.6-17-26.2-27-55.5-30.1-87.6-.6-7.1-1-78.9-1-202.7 0-211-.3-199.8 6.1-213.6 5.9-12.8 20-28.8 33.4-37.8 13.2-8.9 31.1-16.3 47-19.4 10.4-2.1 33.1-1.8 43 .5 9.3 2.1 20.7 6.6 28.5 11.2 23.1 13.6 42.9 41.3 49.6 69.4 1.7 7 1.8 20.2 2.4 214 .6 182.7.8 207.8 2.2 217.5 3.6 24.5 9 43 17.6 60.3 8.1 16.6 20.4 27.3 34.8 30.5 4.7 1 23.8 1.2 90.9 1 46.8-.1 88.6-.2 92.9-.2l8-.1-12-12.3c-6.6-6.7-14.6-15.4-17.6-19.2-23.3-29.3-37.1-64.8-40.7-104.5-1.5-15.5-1.5-382-.1-390.7 4.1-24.9 22.3-50.5 46.1-64.6 33-19.5 84.1-17.9 115.9 3.6 19.1 12.9 34.5 35.2 40.4 58.7 4.4 17.5 4.6 24 4.6 167.1 0 138.7 1.2 247.4 3.1 267.9 1.9 21.8 6.8 40.7 15.4 58.9 8.9 18.7 18.9 29 32.3 33.2 6.6 2 8.4 2 92.7 2 109.9 0 100.5.1 100.5-1.3 0-.7-3.5-4.9-7.9-9.3-36.5-37.2-54.6-74.1-59.1-120.4-.6-6.5-1-85.1-1-215.6s-.4-209.1-1-215.6c-5.7-58.9-35-105.9-83.6-134.5-47.7-28-124.8-39.1-178.4-25.6-29.9 7.6-55.8 23.3-75.2 45.6-10 11.6-18.8 25-35.3 54.1-8.1 14.3-14.9 26.1-15 26.3-.2.2-3.9-7-8.2-16-32.4-66.4-83.8-103-160.5-114.4-12.4-1.8-48.3-2.6-58.8-1.4zm2826.5 1.1c-55.1 5.5-99.3 22-138.8 51.8-35.9 27.1-68.3 67.5-92.2 115.1-31.3 62.4-48 143.7-46.2 224.4 1 44.9 6.6 78.2 19.7 117.6 38.2 115 115.6 187.4 226.5 212 29 6.4 50.7 8.4 85 7.7 27.7-.6 42.4-2 70.7-6.8 52.9-9 85.2-20.6 111.2-40.1l6.6-5v-62.1c0-34.1-.4-61.7-.8-61.2-.5.6-3.7 5-7.2 10-31.3 44.6-67.1 70.8-110 80.1-6.9 1.5-12.7 1.9-30.5 1.9-20.1-.1-23.1-.3-34.8-2.8-43.6-9.3-70.6-26.5-96.4-61.4-19.8-26.7-33.1-62.1-35.8-95l-.7-8.1 12.9-13c23-23.1 38.8-33.3 92.8-59.8 52.8-25.9 74-38 100.5-57.3 60-43.7 101-100.4 113.2-156.6 2.1-9.6 1.7-43.9-.5-54.5-11.2-52.6-44.4-89.8-103.7-116.3-19.6-8.7-43.9-15.6-68.2-19.3-12.2-1.9-59.5-2.7-73.3-1.3zm40.5 58.5c18 4.5 33.8 17.1 41.8 33.4 7.8 15.8 8.6 20.6 8.7 52 0 30.7-1 39.9-6.9 63.4-10.2 40.2-31 76.2-61.5 106.6-11.3 11.2-23.6 21.5-42.1 35.2-17.1 12.6-66.1 47-66.5 46.6-1.3-1.3-2.8-35.8-2.8-63.8 0-59.4 5.3-107.2 18.5-166.5 5.3-23.9 8.7-34.4 16.3-50 17.2-35.5 34.4-51.9 61-58.1 7.5-1.7 24.4-1.1 33.5 1.2zm-1086.5-57c-57.3 4.6-103.9 18.8-146.7 44.7l-11.8 7.1v120.9l2.8-3.9c1.6-2.1 6.5-9.4 11-16.1 27.2-40.7 58-63.3 96.7-71.2 30.6-6.2 68.7-1.6 95.5 11.5 17.2 8.5 29.9 23.9 35 42.8 4.4 16 4.2 39.7-.5 55.9-8.4 29.1-27.3 49.3-70.2 75.1-18.2 10.9-22.8 13.2-52.3 25.9-55.6 23.8-91.4 42.4-122.4 63.4-19.2 13-31 22.7-45.6 37.3-42.7 42.7-64 94.3-64 155.1 0 52.5 13.6 91.5 42.4 121.6 33.7 35.3 80.6 54.4 139.5 56.9 43 1.8 80.7-7.5 110.5-27.3 13.6-9 31.7-27.2 41.4-41.6 4-5.9 7.7-10.7 8.1-10.7.5 0 3.9 7.3 7.6 16.2 9.9 23.8 19.1 42 23.7 47.3 5.3 6.1 11.1 9.9 18.9 12.6 6.4 2.2 6.6 2.2 93.9 2.5 48.1.1 90.2 0 93.5-.4l6-.7-11.5-11.5c-6.3-6.4-14-14.7-17.1-18.5-24.5-30.3-38.4-65.6-41.9-106.5-.7-8.5-.9-50.1-.5-129.5.3-64.4.2-159.8-.3-212l-.9-95-2.7-9.9c-12.3-47-41.6-82-92.3-110.4-26.5-14.9-58.7-25.5-90.3-29.8-10.4-1.4-45.9-2.6-55.5-1.8zm67.1 603c-.7 2.8-13.3 15.4-20.8 20.7-13.2 9.4-29.5 15.9-47 18.7-11.4 1.9-37 .8-47.3-1.9-19.8-5.3-33.1-12.5-45-24.5-16.1-16.3-22.6-32.9-24.7-63.3-3.1-43.2 6.6-84.5 28.3-120 7.6-12.5 18.3-25.7 30.9-38.4 19-19.1 28.3-26.1 93.5-70.3l32-21.7.3 149.3c.1 82.1 0 150.2-.2 151.4zm-1130-600.7c-2.8.6-2.7.7 5.2 7.3 22.4 18.8 38.8 46.2 46.6 77.9 6.4 26.3 5.9 7.7 6.6 280.4.7 247.6.8 252.7 4.1 275.5 2.8 19 10.3 41.8 18.2 55.5 7.6 13.2 16.6 20.8 29 24.7 5.9 1.9 9.7 1.9 93.2 2 47.9 0 90.1-.1 93.9-.1l6.9-.1-13.4-13.8c-34.9-35.7-49.4-64.9-56.1-113.2-.8-6.2-1.3-71.3-1.8-238.5-.6-205.7-.8-231.3-2.3-242.2-4.2-31.1-12.7-56.6-25-74.8-8.9-13.2-24-26.2-37.3-32.1-8.5-3.7-20.8-7.1-30.9-8.3-9.6-1.2-131.6-1.4-136.9-.2zm341.4 1.2c11.2 9.1 17 14.4 22.1 20.2 20.5 23.6 31.5 51 37 92.2.9 6.7 1.4 70.5 1.9 249 .7 260.3.4 246.9 6.1 283 2.7 17.1 6.4 27.9 15.5 45.5 10.9 20.8 14.6 25.3 25.2 29.6l5.7 2.4h93.6c90.8 0 93.8-.1 96-1.9 1.3-1.1 2.2-2.1 1.9-2.3-.3-.1-2.7-1.4-5.4-2.8-5.2-2.6-18.8-16.8-28.4-29.7-17.6-23.5-29.7-52.8-34.4-83.3-1-6.8-1.3-47.3-1.3-198v-189.5l2.7-9.9c5.2-18.7 13.6-32.6 27.9-46.1 19.6-18.4 47.7-31.3 77.8-35.6 13.4-1.9 41.2-.6 54.1 2.4 28.4 6.8 50.1 18.1 71 37.2l9.5 8.7.6-2.9c.4-1.5.7-27.2.8-56.9.1-61.4.1-61.1-8-73.3-8.4-12.7-28.6-26.1-47.1-31.5-29.3-8.4-59.4-8.4-84.8 0-19.1 6.3-34.2 15.8-50.4 31.4-22.1 21.3-36.2 44.5-50.3 82.2-3.2 8.7-6 15.8-6.3 15.8s-1.1-4.3-1.8-9.7c-1.6-12.8-10.5-52.2-14.7-64.8-8.9-27.4-22.9-44.7-44-54.5-17.5-8.2-26.4-8.9-111.5-8.9h-63.5zm-1027.4 950.6c-.3 2.1-22.9 163.8-50.1 359.3s-49.7 357.2-50.1 359.3l-.6 3.7 97.8-.2 97.8-.3 5.8-42c3.1-23.1 5.9-43.5 6.2-45.2l.5-3.3h-49.5c-47.2 0-49.4-.1-49.4-1.8 0-1 19.8-143.5 44-316.7 24.2-173.1 43.8-315.1 43.4-315.4-.3-.3-21.9-.7-47.9-.9l-47.3-.3zm844.7-2.5c-1.3.6-2.3 1.6-2.3 2.2 0 .7-22.5 162.7-50 360.1s-50 359.7-50 360.8c0 1.8 2.1 1.9 91.3 1.4 59.9-.3 93.4-.9 97.7-1.6 24.7-4.2 42.4-12.7 57.3-27.7 11-11 18.8-24 26.2-43.9 7.5-20.1 10.4-35.5 21.9-117 10.9-77.1 13.7-100.2 13.7-113.5-.1-25.3-8.1-41.1-30.1-59.2l-4.5-3.7 6-5.3c11.1-9.6 26.1-25.3 30.5-31.8 12-17.8 15.8-34.8 27.5-123.5 2.5-19.3 6.1-46.5 8-60.5 6.3-47.3 7.4-68.2 4.2-83-5.3-24-22.4-40.3-51.2-48.5-12.8-3.7-24.1-4.3-95.5-4.9-34.4-.4-70.6-.8-80.5-1.1-12.4-.3-18.7-.1-20.2.7zm130.1 92.8c11.4 1 13.9 2.3 17.4 9 2 4 2.2 5.9 2.2 18.2 0 8.8-.9 20.7-2.5 33-5.3 41.4-16.5 117.1-18.5 125-5.6 22.8-12.5 30.9-28.9 34.4-8.9 1.8-49.1 2-49.2.1 0-.6 6.9-50.9 15.3-111.6l15.3-110.4 19.5.7c10.7.4 24 1.1 29.4 1.6zm-35.8 312.4c6.4 2 11.8 7.2 13.4 13.2 2.6 9-.7 41.7-13.5 133.9-8 57.8-9.3 63.6-16.6 71.9-2.2 2.5-6.1 5.4-9.1 6.7-5.1 2.3-6.2 2.4-34.1 2.7l-28.9.3.6-2.8c.3-1.5 7.3-52.1 15.6-112.3s15.3-110.7 15.6-112.2c.7-3.5 2.5-3.7 30.4-3.3 15.9.3 22.8.8 26.6 1.9zm1651.5-405.5-2.5.7-50.3 360.4c-27.6 198.3-50.3 361.3-50.3 362.2 0 1.7 2.9 1.8 48 1.8 26.4 0 48-.3 48-.8 0-2.2 41.9-303.3 42.3-303.9.3-.5 3.6-.7 7.4-.5l6.9.3 23.1 152.1c12.8 83.6 23.4 152.2 23.6 152.4s23.8.3 52.3.2l52-.3-29.3-152c-16.1-83.6-29.2-153.2-29.3-154.6 0-1.5.6-2.9 1.3-3.2.6-.3 5.2-2.1 10-4.1 12.8-5.1 22-10.8 31.3-19.8 9.6-9.3 16.4-18.9 21.5-30.8 3.3-7.7 9-24.9 11.8-35.7 3.2-11.8 24.8-165.1 29.3-206.8 2-18.5 1.7-53.4-.5-61.5-5.4-20.2-17.5-35-35.9-43.9-10.8-5.3-19.8-7.9-36.3-10.7-8.8-1.5-20-1.8-91-2-44.5-.1-82.1.1-83.4.5zm136 94c5.8 1.8 10.2 5.3 12.7 10.1 3.9 7.9 3.2 18.2-6.4 88-10.3 75.1-15.4 108.9-17.5 115.2-4.2 12.8-11.8 19.4-25.4 21.9-6.6 1.2-49.9 1.8-51 .7-.4-.4 6.6-53.8 15.6-118.7 15.4-111.2 16.4-118 18.4-118.5 3.9-.9 50 .2 53.6 1.3zm-3060.6-92.7c-.4 1.6-100.6 720.8-100.5 722.5 0 1.7 96 1.9 96 .3 0-.6 9.9-72.7 22-160.2 12.1-87.6 22-159.5 22-160 0-.4 23.1-.8 51.3-.8h51.3l5.8-42.3c3.2-23.2 6-43.2 6.3-44.5l.5-2.2h-51.1c-49.4 0-51.1-.1-51.1-1.9 0-2.2 29.7-215.5 30.5-218.9l.5-2.2h118.7l6.4-45.5 6.5-45.5h-107.3c-85 0-107.4.3-107.8 1.2zm594 5.4c-.5 4.5 1.8 41.8 7.4 121.2 4.5 63.1 10.1 144.4 12.6 180.7s5.2 74.5 6.1 85c2.7 30.2 2.4 54.6-.9 82-4 33-10.4 80.1-20.2 149.5-8.7 61.3-12.5 90.8-12.5 96.7v3.3h94.9l.6-3.3c.3-1.7 5-36.7 10.6-77.7 19.2-142.9 25.2-183.4 30-202.3 3.1-12.2 35.7-106.2 110.7-318.7 36.1-102.4 42.2-120 42.2-122.2 0-.4-22.6-.7-50.2-.6l-50.1.3-40.8 147.3c-22.4 81-41 147.6-41.3 147.9-.3.4-.6-66-.6-147.5v-148.2h-97.8zm985.6 1.1c-.6 4.3-23.1 166.2-50.1 359.8-26.9 193.6-49.2 353.2-49.5 354.7l-.4 2.8h220.5l6.1-44.8c3.3-24.6 5.8-45 5.6-45.5-.2-.4-28.1-.7-61.9-.7s-61.4-.3-61.4-.7c0-1.4 31-225.9 31.5-228l.5-2.3 53.7-.2 53.8-.3 5.7-42c3.1-23.1 5.7-43.2 5.8-44.8v-2.7h-106.9l.5-2.8c.7-4 30.4-216.9 30.4-218.1 0-.8 19.6-1.2 62.2-1.3l62.2-.3 6.2-43c3.5-23.7 6.5-44 6.7-45.3l.4-2.2h-220.5zm309.4-6.5c-.4 1.5-12.5 86.7-12.5 88.5 0 1 8.7 1.3 40.1 1.3h40.1l-.7 4.7c-.4 2.7-20.1 145.3-43.9 317l-43.2 312.3h96.1l44-317 43.9-317h81.6l.5-2.3c.5-2.3 12.5-86.7 12.5-88 0-.4-58.1-.7-129-.7-102.4 0-129.1.3-129.5 1.2zm326 1c-.8 3.7-12.5 85.7-12.5 87.8 0 2 .9 2 40 2h40.1l-.7 4.7c-.3 2.7-20 145-43.8 316.3l-43.1 311.5 47.9.3c26.4.1 48 .1 48.1 0 .1-.2 19.9-142.3 43.9-315.8s43.9-316.1 44.1-316.8c.3-.9 9.4-1.2 40.9-1.2h40.6l.5-2.3c.5-2.3 12.5-86.7 12.5-88 0-.4-58-.7-129-.7h-129zm362.1 1c-.3 1.8-22.8 163.5-50.1 359.3s-49.8 357.5-50.2 359.3l-.5 3.2 110.3-.2 110.3-.3 5.7-42.5c3.2-23.4 5.8-43.7 5.9-45.3v-2.7h-61.5c-59.4 0-61.5-.1-61.5-1.9 0-2.1 30.8-224.5 31.5-227.9l.5-2.2h107l.5-2.3c.7-3.1 11.5-81.9 11.5-84 0-1.6-3.7-1.7-53.5-1.7-29.4 0-53.5-.2-53.5-.4 0-3.3 31.2-222.2 31.8-222.8.4-.4 28.4-.9 62.2-1l61.4-.3 6.3-43.5c3.4-23.9 6.2-44.1 6.3-44.8 0-.9-22.6-1.2-109.9-1.2h-109.9z"/></svg>