<svg viewBox="0 -14 13015.41 1699.76" xmlns="http://www.w3.org/2000/svg" width="2500" height="329"><g fill="#f11111"><path d="M1139.1 5.42l431.17 334.3 427.91-332v851c-42.62-33-83.45-61.59-120.11-94.77-11-10-14.34-32.62-14.48-49.52-1.13-132.76-.63-265.53-.63-413.33l-292.58 226.53-291.76-226.37v126.33c0 92.53-1.63 185.1.8 277.56.94 35.84-9.34 60-39.59 79.72-33.06 21.6-63.15 47.74-100.73 76.68zM2572.89 143.59V4.52c36.18 0 69.46-.37 102.73.07 119.62 1.59 239.87-3.62 358.67 7.07 139.65 12.57 211.47 111.92 205.24 262.63C3234 407 3145.39 499 3012.43 504.8c-80.78 3.54-161.83 1.07-242.77 1.28-18 .05-36.07 0-59 0v355.44h-137.42V365.18h54c118 0 236.07.45 354.1-.22 75.15-.43 117.6-39.82 118.6-107.74 1-67.34-41.4-111.65-114.69-112.94-116.31-2.06-232.68-.64-349-.68zM10780.7 518.18l187.88 346.13c-52.4 0-95.93 2.93-138.63-1.73-13.41-1.46-28-21.42-36.23-36.14-50.95-91-101.58-182.22-149.35-274.89-15.44-29.95-33.91-40.24-67-39.23-77.52 2.36-155.21-.74-232.74 1.43-33.72.94-45.37-11-43.33-43.45 1.87-29.73.4-59.66.4-96.22h222.07c59 0 118.1.85 177.11-.27 73.45-1.41 112.42-41.19 113.14-113.17.75-74.41-38.8-116.08-114.66-116.7-129.74-1.06-259.49-.3-393.47-.3V7.62c13.7-1 28.08-2.92 42.47-2.95q159.41-.39 318.81-.13c160.41.06 251.91 60.4 280.35 184.8 33.08 144.76-22.4 257.08-166.82 328.84zM11997.8 114l-109.91 85.8c-59-52.86-126.32-65-199.43-49-56.22 12.29-86.43 46.78-87 96-.62 52.43 25.06 83 84.46 96.5 37.75 8.6 76.36 13.34 114.28 21.29 126.9 26.6 201.4 106.51 206.51 220.46 5.79 129.31-63.79 230.06-189.66 263.86-130.48 35-250.21 16.68-353.5-92.16l110.74-86.49c54.18 46.22 115.87 65.78 186.35 49.63 54.92-12.58 92.49-52.65 96.35-102.9 4.11-53.63-22.24-92.1-82.38-111.62-39.9-12.95-81.71-20.05-122.65-29.85-125.74-30.07-200.26-114.14-200.37-226-.1-112.16 73.59-201.47 196.31-231.39C11779.38-14 11897.8 8 11997.8 114zM3949.09 320.21c-72.79 154-140.12 296.71-207.65 439.31C3691 866 3690.9 866 3571.11 864.66c-14.54-.17-29.06-2-49.52-3.56C3664.72 575.55 3805.21 295.26 3950 6.45c144.4 288.06 284.68 567.93 430.06 858-57.62 0-105.93 2.65-153.59-1.76-12.81-1.18-27.53-22-34.76-36.92-71.71-148.46-142.08-297.59-212.91-446.46-7.86-16.51-16.41-32.7-29.71-59.1zM7179 861.41c0-116.22-1.8-227.22.92-338.1 1-41.55-11.42-73.23-36.5-105.37-94.26-120.76-186.26-243.26-279-365.21-9.85-12.94-18.87-26.51-34-47.93 56.38 0 104.89-3 152.66 1.66 16.25 1.58 33.39 20.11 45.41 34.75 75.68 92.12 150 185.33 229.74 284.28 55.55-73.69 115.11-138.69 158-213.23C7468.57 21.48 7538.61-13 7639 4.36c11.28 1.95 23 1.25 42.31 2.13-12.19 17.49-20.5 30.85-30.22 43.11-101.42 128-204 255.11-303.7 384.44-15.88 20.6-26.23 50.77-26.87 76.82-2.85 115.69-1.24 231.49-1.24 350.55zM5707.69 373.25h506.86V9.22h138.09v852.43h-136.35V514.89h-508.6zM12728.61 141.79v720.49h-135.43V5.9h422.23v135.89zM4878.07 861.55h-137.31V6.66h421.95v135.85c-76.29 0-153.35 2.83-230.07-1-46.19-2.34-56 14-55.54 57.18 2.19 201.77 1 403.57 1 605.36zM8622.5 861.29h-138V377.15h518.78v134.59H8622.5zM9601.17 8h136v279.57c0 139.42-1.36 278.86.92 418.23.58 36.06-10.1 59.66-39.57 79.27-31.77 21.14-61.12 45.9-97.3 73.48zM569.81 8.94v131.14H1V8.94zM.85 728.34h567.79v133H.85zM9050.93 141.79H8486V8.59h564.92zM5911.33 1433.22c-28.91 56.74-56.85 114-87.49 169.81-6.88 12.54-23.35 27.69-35.19 27.5s-27.81-15.65-34.77-28.34c-31.1-56.74-59.63-114.88-98.86-170.66v233l-56.13 3.46V1320.2c42.55-12.34 74.29-10.14 95.23 39.7 25.28 60.17 59 116.81 95.74 187.87 23.73-46.4 42.94-83.91 62.09-121.45 10.7-21 23.65-41.2 31.45-63.22 16.9-47.69 48.83-58.56 96.75-42.56v344.73l-54.87 2.78v-232.78zM0 500.83v-132.6h502.9v132.6zM6735.61 1432.63v-135h59.9v376.47l-79.75-26.42c-62.33 36.15-126.45 32.81-169.65-17-43.72-50.45-44.29-141.85-1.19-192 43.46-50.52 105.63-54.2 190.69-6.05zm-.78 100.43c-1-50.2-34.7-83.64-82.55-81.84-44.94 1.69-75.41 35.61-75.42 84 0 50.6 32.68 85.11 80.09 84.52 47.12-.62 78.85-35.93 77.88-86.68zM7197.14 1421.32c36.87-8.43 71.82-21.37 107.43-23.56 78.74-4.85 115.42 31.72 116.41 109.74.65 51.66.12 103.33.12 159.48-19.72 0-41.64 6-47.56-1.09-21.47-25.9-38.84-7.94-58.74-1.12-60.09 20.58-121.39-3.1-135.29-51.35-13.43-46.57 9.77-88 60.23-98 37.4-7.42 76.29-7.36 114.44-10.62-2.42-53.19-36.27-70.52-101-49.14-27 8.91-48.68 17.43-56.04-34.34zm159.48 131c-31.74 0-60.41-2.66-88.14 1.26-11.61 1.65-29.75 17.29-29.72 26.52 0 13.34 10.69 32.29 22.44 38.94 42.43 23.96 93.35-10.23 95.42-66.77zM6195.72 1554.34c24.86 66.09 67.12 81.86 127.36 55.34 28.8-12.67 28.8-12.67 51.31 18.41-54.26 50.21-138 57.67-193.87 17.26-51.37-37.17-67.61-117.09-36.15-177.87 29.93-57.82 101.41-84.22 170.24-62.88 58.26 18.07 85.72 69.67 76.62 149.74zm142.91-41.74c-7.43-46.58-32.26-67.49-72.42-66.6-39.28.87-65.23 21-71.64 66.6zM6969.94 1664.47v-262.65l58.19-2.6v265.25zM6998.44 1371.67c-16.21-25-32.79-39.28-31.47-51.66 1.39-13.12 19.81-24.43 30.79-36.53 12.21 12.56 31.22 23.65 34.37 38.17 2.29 10.57-16.35 25.66-33.69 50.02z"/></g></svg>