<svg height="-1548" viewBox="199.623 343.73 624.754 80.54" width="2500" xmlns="http://www.w3.org/2000/svg" xmlns:xlink="http://www.w3.org/1999/xlink"><linearGradient id="a" gradientUnits="userSpaceOnUse" x1="346.1" x2="714.645" y1="196.71" y2="565.255"><stop offset="0" stop-color="#4a4b4e"/><stop offset="1" stop-color="#f10808"/></linearGradient><path d="m254.273 343.73v41.76l6.979-5.428v-21.654l13.902 10.856 13.957-10.856v21.655l6.924 5.427v-41.76l-20.88 16.284zm135.016.112-20.77 41.594h8.42l12.35-26.143 12.406 26.143h8.418zm37.652 0v41.594h6.979v-34.672h13.848v-6.922zm376.612 0v41.594h6.978v-34.672h13.846v-6.922zm-603.93.054v6.924h27.748v-6.924zm123.365 0v6.924h20.381c.96.037 1.81.258 2.549.664.628.333 1.2.85 1.717 1.551.554.665.83 1.643.83 2.936 0 1.329-.259 2.345-.776 3.047s-1.089 1.218-1.716 1.55c-.591.333-1.163.536-1.717.61-.554.037-.85.054-.887.054h-20.38v24.204h6.923v-17.226h13.955c2.142-.11 4.063-.628 5.762-1.55.701-.37 1.402-.85 2.103-1.44s1.312-1.311 1.829-2.16c.553-.887.997-1.903 1.33-3.047.332-1.145.498-2.493.498-4.043 0-1.514-.166-2.844-.498-3.989-.333-1.144-.777-2.14-1.33-2.99-.517-.849-1.127-1.551-1.829-2.105a11.863 11.863 0 0 0 -2.103-1.44c-1.699-.886-3.62-1.383-5.762-1.494v-.057zm204.164 0 16.95 22.32v19.22h6.921v-19.22l17.723-22.32h-9.248l-11.52 15.397-12.351-15.397zm79.37 0v6.924h27.693v-6.924zm53.57 0v41.54l6.867-5.373v-36.167zm33.773 0v6.924h19.994c.85.037 1.607.258 2.272.664.59.333 1.125.867 1.605 1.606s.721 1.772.721 3.101c0 1.367-.24 2.42-.72 3.159s-1.015 1.273-1.606 1.605c-.665.406-1.422.627-2.272.664h-19.994v6.87h15.397l9.195 16.947h7.697l-9.248-16.948c.185 0 .72-.167 1.606-.5.923-.332 1.884-.94 2.88-1.826 1.034-.923 1.956-2.18 2.768-3.767.812-1.625 1.219-3.693 1.219-6.204 0-1.55-.166-2.898-.498-4.043-.332-1.181-.776-2.195-1.33-3.044a8.718 8.718 0 0 0 -1.826-2.16 14.79 14.79 0 0 0 -2.106-1.497c-1.698-.923-3.618-1.44-5.76-1.55zm69.992 0c-2.436 0-4.504.279-6.203.833-1.661.553-3.046 1.254-4.154 2.103-1.108.812-1.976 1.718-2.604 2.715-.59.997-1.032 1.938-1.328 2.824-.258.85-.426 1.587-.5 2.215-.037.59-.054.924-.054.998 0 1.588.24 2.97.72 4.152.48 1.145 1.07 2.143 1.772 2.993a11.593 11.593 0 0 0 2.437 2.048c.923.517 1.792.941 2.604 1.274.85.332 1.605.573 2.27.72.701.148 1.2.239 1.496.276a48.67 48.67 0 0 1 3.101.72c.997.222 1.865.554 2.604.997a4.68 4.68 0 0 1 1.826 1.662c.443.664.666 1.533.666 2.603 0 1.477-.592 2.77-1.774 3.877-1.181 1.071-2.825 1.606-4.93 1.606-1.144 0-2.14-.129-2.99-.387-.812-.295-1.495-.61-2.048-.941-.517-.333-.924-.646-1.22-.942-.258-.295-.386-.463-.386-.5l-5.65 4.377a15.827 15.827 0 0 0 5.15 3.932 15.354 15.354 0 0 0 6.426 1.385c2.437 0 4.485-.296 6.146-.887 1.699-.59 3.104-1.329 4.211-2.215 1.108-.923 1.956-1.902 2.547-2.936.59-1.033 1.035-2.012 1.33-2.935.296-.923.461-1.699.498-2.326.074-.665.11-1.034.11-1.108 0-1.809-.259-3.36-.776-4.652s-1.162-2.381-1.937-3.268c-.776-.923-1.644-1.643-2.604-2.16a16.726 16.726 0 0 0 -2.824-1.219c-.886-.332-1.699-.553-2.437-.664a55.382 55.382 0 0 0 -1.495-.222 80.34 80.34 0 0 0 -3.046-.553c-.924-.185-1.717-.443-2.381-.775a3.86 3.86 0 0 1 -1.496-1.385c-.37-.628-.555-1.476-.555-2.547 0-1.514.592-2.678 1.773-3.49 1.182-.85 2.825-1.274 4.93-1.274.997.037 1.938.148 2.824.332.739.185 1.477.48 2.215.887.739.37 1.31.904 1.717 1.606l5.65-4.375c-1.44-1.662-3.176-2.972-5.207-3.932s-4.171-1.442-6.424-1.442zm-265.953.057v17.666h-24.591v6.87h24.591v16.947h6.922v-41.483zm-298.28 17.225v6.922h24.646v-6.922zm406.897.386v23.872h6.924v-16.893h18.498v-6.979zm-406.898 16.948v6.924h27.748v-6.924zm335.951 26.779c-.525 0-.96.18-1.304.541s-.518.821-.518 1.379c0 .541.173.992.518 1.353.344.361.78.541 1.304.541s.958-.18 1.303-.54c.345-.362.518-.813.518-1.354 0-.558-.173-1.018-.518-1.379s-.778-.541-1.303-.541zm-12.748.566v7.262a5.014 5.014 0 0 0 -1.87-1.7c-.756-.393-1.633-.589-2.634-.589-1.214 0-2.298.278-3.25.836-.935.558-1.666 1.346-2.191 2.363-.509 1.001-.762 2.158-.762 3.471 0 1.33.262 2.511.787 3.545.525 1.017 1.256 1.812 2.192 2.387.951.558 2.051.838 3.298.838.985 0 1.846-.19 2.584-.567a4.824 4.824 0 0 0 1.846-1.7v2.118h3.2v-18.264zm-54.763 1.034v17.23h3.003v-12.357l5.391 10.586h2.117l5.365-10.586v12.357h3.03v-17.23h-3.769l-5.66 11.101-5.71-11.101zm82.433 3.94c-1.132 0-2.125.13-2.978.392-.837.246-1.771.656-2.805 1.23l1.156 2.217c1.362-.82 2.667-1.232 3.914-1.232.968 0 1.706.213 2.215.64s.764 1.026.764 1.797v.346h-3.84c-1.592.016-2.824.376-3.693 1.082-.87.689-1.305 1.65-1.305 2.88 0 .772.189 1.469.566 2.092s.91 1.116 1.6 1.477c.705.345 1.518.518 2.437.518.936 0 1.765-.148 2.487-.444s1.312-.73 1.771-1.305v1.6h3.152l-.025-8.615c-.016-1.477-.501-2.625-1.453-3.445-.935-.821-2.256-1.23-3.963-1.23zm-50.096.023c-1.296 0-2.453.286-3.47.86a6.012 6.012 0 0 0 -2.387 2.364c-.558 1.018-.838 2.183-.838 3.496s.28 2.477.838 3.494a5.892 5.892 0 0 0 2.361 2.34c1.034.558 2.225.836 3.57.836 1.15 0 2.192-.196 3.128-.59a6.64 6.64 0 0 0 2.412-1.674l-1.725-1.796c-.46.475-1 .844-1.623 1.107a5.061 5.061 0 0 1 -1.92.37c-.968 0-1.79-.263-2.463-.788-.656-.541-1.091-1.281-1.304-2.217h9.722c.017-.213.026-.532.026-.959 0-2.166-.533-3.849-1.6-5.047-1.05-1.198-2.626-1.796-4.727-1.796zm33.598.1v13.167h3.2v-13.168zm-33.572 2.386c1 0 1.805.287 2.412.861.607.575.926 1.346.959 2.315h-6.893c.148-.985.535-1.757 1.158-2.315.64-.574 1.428-.861 2.364-.861zm18.658.223c1.1 0 1.994.375 2.684 1.13.705.739 1.058 1.7 1.058 2.881s-.353 2.15-1.058 2.905c-.69.738-1.585 1.107-2.684 1.107-1.1 0-1.992-.369-2.682-1.107-.689-.755-1.042-1.723-1.058-2.905.016-1.181.37-2.142 1.058-2.88.69-.756 1.582-1.131 2.682-1.131zm30.354 4.798h3.324v1.182c-.082.64-.451 1.182-1.108 1.625-.656.427-1.444.64-2.363.64-.722 0-1.296-.165-1.723-.494-.41-.328-.617-.77-.617-1.328 0-.574.198-.984.592-1.23.41-.263 1.041-.395 1.894-.395z" fill="url(#a)"/></svg>