<svg height="1673" width="2500" xmlns="http://www.w3.org/2000/svg" viewBox="-0.777 -0.3619999999999999 2103.8120000000004 1406.0290000000002"><path d="M666.034-.318c2.69.006 5.382.008 8.073.01 25.353.03 50.594.326 75.823 3.083 2.071.225 4.143.437 6.216.647C824.559 10.425 890.58 29.019 952 60l2.793 1.403c34.487 17.422 66.767 39.624 96.513 64.207 2.331 1.913 4.7 3.776 7.069 5.64 4.235 3.375 8.256 6.951 12.258 10.598A383.232 383.232 0 0 0 1077 147.5c14.69 12.828 28.82 26.23 42.625 40l2.8 2.786c4.523 4.533 8.922 9.109 13.067 13.991 1.597 1.824 3.277 3.526 5.008 5.223 2.992 2.946 5.753 6.03 8.492 9.21 1.952 2.226 3.95 4.402 5.963 6.571a302.623 302.623 0 0 1 13.865 16.07c2.158 2.622 4.393 5.14 6.68 7.649 4.224 4.646 8.199 9.457 12.147 14.338a873.787 873.787 0 0 0 4.646 5.646c5.58 6.74 11.132 13.495 16.52 20.391 11.263 14.402 22.458 28.604 37.187 39.625l2.98 2.27c19.283 14.06 41.419 21.718 65.402 18.4A117.895 117.895 0 0 0 1343 341l1.833-.811c23.914-10.744 43.671-28.534 61.955-46.991 3.918-3.942 7.982-7.6 12.212-11.198 1.112-.974 2.222-1.95 3.332-2.926 73.516-64.559 163.492-103.309 290.01-105.751 72.569 4.715 143.26 29.041 201.898 72.378 1.877 1.386 3.764 2.758 5.65 4.131 9.457 6.934 18.385 14.338 27.11 22.168l1.61 1.435c7.316 6.54 14.313 13.391 21.265 20.315l2.415 2.4A261.983 261.983 0 0 1 1986 311l2.562 2.922C2049.14 384.207 2084.278 471.735 2097 563l.505 3.475c5.53 39.718 5.159 83.863-.505 123.525l-.52 3.88c-7.306 54.326-23.068 107.363-48.417 156.063-1.176 2.276-2.324 4.564-3.473 6.854-10.409 20.542-22.746 39.815-36.59 58.203l-1.354 1.813c-8.279 11.07-17.184 21.588-26.486 31.808a409.74 409.74 0 0 0-4.226 4.727c-8.983 10.174-18.548 19.906-28.934 28.652l-2.996 2.625c-53.738 47.01-120.16 79.524-190.692 91.125-1.21.2-2.42.398-3.667.603-18.865 2.934-37.564 4.027-56.645 3.96l-3.242-.006c-26.45-.076-51.855-2.78-77.758-8.307l-2.991-.635c-54.826-11.962-106.028-38.097-150.322-72.178C1438.93 984.26 1413.39 970.267 1388 972c-11.992 2.06-20.966 9.33-28 19-12.932 20.33-17.874 42.588-22 66-7.07 39.529-17.063 77.875-33.858 114.506a606.43 606.43 0 0 0-3.091 6.885c-7.98 17.759-17.878 34.68-29.051 50.609l-2.383 3.46c-8.761 12.61-18.467 24.478-28.953 35.688a345.281 345.281 0 0 0-5.266 5.766c-10.493 11.731-22.008 22.378-34.398 32.086l-2.863 2.277c-74.976 58.78-177.944 96.555-273.793 96.926l-3.581.017c-2.495.01-4.989.016-7.483.02-3.715.01-7.429.04-11.143.072-80.073.355-157.477-27.146-221.137-75.312l-3.496-2.605c-9.748-7.324-18.97-15.276-28.004-23.458-44.953-40.181-95.583-50.772-153.37-60.109-17.92-2.9-35.75-5.994-53.474-9.937-.72-.16-1.44-.32-2.182-.483C376.01 1219.052 310.82 1191.48 257 1153l-2.34-1.657c-10.117-7.167-20-14.572-29.66-22.343l-1.913-1.53c-20.254-16.218-39.222-33.529-57.587-51.845l-1.717-1.71c-6.147-6.124-12.17-12.29-17.783-18.915a1348.283 1348.283 0 0 0-3.14-3.57c-6.755-7.705-13.28-15.536-19.51-23.672a648.202 648.202 0 0 0-3.998-5.137C97.809 994.84 79.735 964.378 64 933l-1.41-2.806C50.806 906.55 41.224 882.09 33 857l-1.018-3.084c-21.2-64.778-32.02-134.41-32.185-202.557l-.009-2.454c-.015-4.302-.024-8.605-.028-12.907-.005-3.463-.018-6.926-.041-10.388C-.777 549.097 11.739 472.53 85 309l1.86-3.07c8.152-13.417 16.734-26.362 26.14-38.93a3082.98 3082.98 0 0 0 2.422-3.281c11.403-15.366 23.462-30.096 36.348-44.242a249.755 249.755 0 0 0 3.703-4.189c4.27-4.954 8.737-9.644 13.367-14.26l2.2-2.203c1.523-1.525 3.049-3.048 4.575-4.57 2.316-2.311 4.627-4.628 6.938-6.944 1.49-1.491 2.982-2.981 4.474-4.471l2.062-2.068c4.477-4.456 9.117-8.661 13.911-12.772 1.118-.973 2.235-1.947 3.352-2.922a526.118 526.118 0 0 1 22.792-18.625c1.879-1.471 3.73-2.972 5.579-4.48C255.97 124.803 279.524 109.919 303 96l2.495-1.489C343.88 71.758 384.849 53.524 427 39l2.007-.692C451.057 30.728 473.32 24.4 496 19l2.044-.489C526.056 11.828 554.399 7.081 583 3.75l3.888-.458C591.255 2.811 595.624 2.39 600 2l2.933-.264c21.038-1.832 41.996-2.098 63.1-2.054z" fill="#005195"/><path d="M666.034-.318c2.69.006 5.382.008 8.073.01 25.353.03 50.594.326 75.823 3.083 2.071.225 4.143.437 6.216.647C824.559 10.425 890.58 29.019 952 60l2.793 1.403c34.487 17.422 66.767 39.624 96.513 64.207 2.331 1.913 4.7 3.776 7.069 5.64 4.235 3.375 8.256 6.951 12.258 10.598A383.232 383.232 0 0 0 1077 147.5c14.69 12.828 28.82 26.23 42.625 40l2.8 2.786c4.523 4.533 8.922 9.109 13.067 13.991 1.597 1.824 3.277 3.526 5.008 5.223 2.992 2.946 5.753 6.03 8.492 9.21 1.952 2.226 3.95 4.402 5.963 6.571a302.623 302.623 0 0 1 13.865 16.07c2.158 2.622 4.393 5.14 6.68 7.649 4.224 4.646 8.199 9.457 12.147 14.338a873.787 873.787 0 0 0 4.646 5.646c5.58 6.74 11.132 13.495 16.52 20.391 11.263 14.402 22.458 28.604 37.187 39.625l2.98 2.27c19.283 14.06 41.419 21.718 65.402 18.4A117.895 117.895 0 0 0 1343 341l1.833-.811c23.914-10.744 43.671-28.534 61.955-46.991 3.918-3.942 7.982-7.6 12.212-11.198 1.112-.974 2.222-1.95 3.332-2.926 73.516-64.559 163.492-103.309 290.01-105.751 72.569 4.715 143.26 29.041 201.898 72.378 1.877 1.386 3.764 2.758 5.65 4.131 9.457 6.934 18.385 14.338 27.11 22.168l1.61 1.435c7.316 6.54 14.313 13.391 21.265 20.315l2.415 2.4A261.983 261.983 0 0 1 1986 311l2.562 2.922C2049.14 384.207 2084.278 471.735 2097 563l.505 3.475c5.53 39.718 5.159 83.863-.505 123.525l-.52 3.88c-7.306 54.326-23.068 107.363-48.417 156.063-1.176 2.276-2.324 4.564-3.473 6.854-10.409 20.542-22.746 39.815-36.59 58.203l-1.354 1.813c-8.279 11.07-17.184 21.588-26.486 31.808a409.74 409.74 0 0 0-4.226 4.727c-8.983 10.174-18.548 19.906-28.934 28.652l-2.996 2.625c-53.738 47.01-120.16 79.524-190.692 91.125-1.21.2-2.42.398-3.667.603-18.865 2.934-37.564 4.027-56.645 3.96l-3.242-.006c-26.45-.076-51.855-2.78-77.758-8.307l-2.991-.635c-54.826-11.962-106.028-38.097-150.322-72.178C1438.93 984.26 1413.39 970.267 1388 972c-11.992 2.06-20.966 9.33-28 19-12.932 20.33-17.874 42.588-22 66-7.07 39.529-17.063 77.875-33.858 114.506a606.43 606.43 0 0 0-3.091 6.885c-7.98 17.759-17.878 34.68-29.051 50.609l-2.383 3.46c-8.761 12.61-18.467 24.478-28.953 35.688a345.281 345.281 0 0 0-5.266 5.766c-10.493 11.731-22.008 22.378-34.398 32.086l-2.863 2.277c-74.976 58.78-177.944 96.555-273.793 96.926l-3.581.017c-2.495.01-4.989.016-7.483.02-3.715.01-7.429.04-11.143.072-80.073.355-157.477-27.146-221.137-75.312l-3.496-2.605c-9.748-7.324-18.97-15.276-28.004-23.458-44.953-40.181-95.583-50.772-153.37-60.109-17.92-2.9-35.75-5.994-53.474-9.937-.72-.16-1.44-.32-2.182-.483C376.01 1219.052 310.82 1191.48 257 1153l-2.34-1.657c-10.117-7.167-20-14.572-29.66-22.343l-1.913-1.53c-20.254-16.218-39.222-33.529-57.587-51.845l-1.717-1.71c-6.147-6.124-12.17-12.29-17.783-18.915a1348.283 1348.283 0 0 0-3.14-3.57c-6.755-7.705-13.28-15.536-19.51-23.672a648.202 648.202 0 0 0-3.998-5.137C97.809 994.84 79.735 964.378 64 933l-1.41-2.806C50.806 906.55 41.224 882.09 33 857l-1.018-3.084c-21.2-64.778-32.02-134.41-32.185-202.557l-.009-2.454c-.015-4.302-.024-8.605-.028-12.907-.005-3.463-.018-6.926-.041-10.388C-.777 549.097 11.739 472.53 85 309l1.86-3.07c8.152-13.417 16.734-26.362 26.14-38.93a3082.98 3082.98 0 0 0 2.422-3.281c11.403-15.366 23.462-30.096 36.348-44.242a249.755 249.755 0 0 0 3.703-4.189c4.27-4.954 8.737-9.644 13.367-14.26l2.2-2.203c1.523-1.525 3.049-3.048 4.575-4.57 2.316-2.311 4.627-4.628 6.938-6.944 1.49-1.491 2.982-2.981 4.474-4.471l2.062-2.068c4.477-4.456 9.117-8.661 13.911-12.772 1.118-.973 2.235-1.947 3.352-2.922a526.118 526.118 0 0 1 22.792-18.625c1.879-1.471 3.73-2.972 5.579-4.48C255.97 124.803 279.524 109.919 303 96l2.495-1.489C343.88 71.758 384.849 53.524 427 39l2.007-.692C451.057 30.728 473.32 24.4 496 19l2.044-.489C526.056 11.828 554.399 7.081 583 3.75l3.888-.458C591.255 2.811 595.624 2.39 600 2l2.933-.264c21.038-1.832 41.996-2.098 63.1-2.054zM576.5 93.437l-3.109.694A497.88 497.88 0 0 0 533 105l-3.092.952c-23.72 7.367-46.5 17.405-68.908 28.048l-2.546 1.196C425.568 150.726 394.21 171.105 366 194l-2.809 2.258c-16.528 13.385-32.123 27.61-47.191 42.617l-2.391 2.377A265.161 265.161 0 0 0 300 256a1911.393 1911.393 0 0 1-3.14 3.57c-7.246 8.264-14.211 16.68-20.86 25.43l-1.596 2.091c-45.9 60.392-77.85 130.451-94.529 204.346l-.696 3.06c-4.02 18.275-6.949 36.775-8.929 55.378l-.326 3.055c-1.982 19.23-2.387 38.386-2.362 57.695v2.042c0 25.712.909 51.509 4.313 77.02l.256 1.985a362.37 362.37 0 0 0 5.369 30.96c.726 3.44 1.36 6.895 2 10.351 8.394 45.34 24.093 89.975 43.452 131.748 1 2.166 1.985 4.337 2.966 6.511 21.33 46.814 51.333 90.335 85.887 128.317 1.178 1.31 2.35 2.626 3.483 3.974 5.825 6.866 12.246 13.152 18.618 19.503 2.027 2.022 4.048 4.048 6.069 6.075 6.17 6.173 12.32 12.292 19.025 17.889 1.01.876 2.02 1.754 3.027 2.633 8.03 6.877 16.336 13.328 24.77 19.701 3.64 2.752 7.265 5.52 10.89 8.291l2.146 1.638a1048.03 1048.03 0 0 1 13.23 10.3c42.91 33.855 89.361 63.267 138.084 87.987a828.802 828.802 0 0 1 7.017 3.61c40.808 21.069 84.802 38.475 129.467 49.265 2.143.52 4.28 1.06 6.416 1.61 3.216.824 6.436 1.625 9.662 2.407 1.663.405 3.324.815 4.984 1.23 18.305 4.545 36.653 7.68 55.307 10.328l2.538.375c4.808.704 9.62 1.218 14.462 1.625l3.13.269c67.317 5.515 137.84 1.524 202.208-20.372a831.002 831.002 0 0 1 9.361-3.073c68.88-22.435 130.845-53.75 186.301-100.824l1.849-1.554c5.667-4.848 10.938-10.08 16.197-15.361 1.514-1.52 3.033-3.034 4.554-4.548 5.343-5.34 10.516-10.77 15.4-16.537l2.668-3.063c18.196-21.214 33.832-44.48 47.332-68.937l1.157-2.06c4.977-8.883 9.239-17.97 13.28-27.315 7.647-17.638 16.375-33.97 27.563-49.625l1.346-1.885c21.73-29.967 52.257-51.265 89.091-57.388 20.726-2.996 42.796-.46 62.563 6.273l2.456.833c16.046 5.49 31.032 12.203 45.981 20.167 26.635 14.117 54.908 23.59 84.563 29l2.842.535c69.521 12.517 146.6-6.058 204.431-45.898 23.127-16.229 45.96-34.656 63.57-56.926 2.213-2.781 4.523-5.458 6.844-8.149 11.731-14.098 21.507-29.509 30.313-45.562l1.362-2.438C1944.177 707.441 1957.229 626.493 1944 552l-.551-3.264c-9.66-56.448-33.946-108.09-69.449-152.736l-1.48-1.882c-7.053-8.899-15.09-16.887-23.083-24.93l-1.61-1.627c-6.936-6.989-14.059-13.485-21.827-19.561l-2.053-1.627c-36.757-28.864-81.651-50.541-128.008-58.056a190.92 190.92 0 0 1-5.08-.919c-2.947-.551-5.887-.996-8.859-1.398l-2.01-.273c-25.039-3.254-50.955-2.642-75.99.273l-2.682.309c-71.353 8.52-142.771 40.773-192.693 93.191-4.814 4.884-10.346 8.974-15.797 13.112a477.146 477.146 0 0 0-3.48 2.666c-20.542 15.842-44.03 26.374-69.348 31.722l-3.18.684c-36.985 6.823-74.58-5.774-104.93-26.63-17.14-12.183-34.795-25.903-48.304-42.156-1.874-2.243-3.854-4.374-5.836-6.523-9.636-10.712-17.946-22.357-26.19-34.15-8.298-11.842-16.87-23.34-26.107-34.468-2.09-2.526-4.143-5.082-6.203-7.632-3.59-4.386-7.328-8.614-11.145-12.805a336.257 336.257 0 0 1-5.418-6.133c-8.482-9.688-17.345-18.944-26.437-28.062l-2.688-2.702A280.486 280.486 0 0 0 1038 212a1251.41 1251.41 0 0 1-4.813-4.375c-5.251-4.727-10.657-9.228-16.187-13.625l-1.97-1.567C949.136 140.183 871.994 103.685 789 89l-3.583-.648C716.43 76.105 644.753 78.164 576.5 93.437z" fill="#0884ce"/><path d="M666.034-.318c2.69.006 5.382.008 8.073.01 25.353.03 50.594.326 75.823 3.083 2.071.225 4.143.437 6.216.647C824.559 10.425 890.58 29.019 952 60l2.793 1.403c34.487 17.422 66.767 39.624 96.513 64.207 2.331 1.913 4.7 3.776 7.069 5.64 4.235 3.375 8.256 6.951 12.258 10.598A383.232 383.232 0 0 0 1077 147.5c14.69 12.828 28.82 26.23 42.625 40l2.8 2.786c4.523 4.533 8.922 9.109 13.067 13.991 1.597 1.824 3.277 3.526 5.008 5.223 2.992 2.946 5.753 6.03 8.492 9.21 1.952 2.226 3.95 4.402 5.963 6.571a302.623 302.623 0 0 1 13.865 16.07c2.158 2.622 4.393 5.14 6.68 7.649 4.224 4.646 8.199 9.457 12.147 14.338a873.787 873.787 0 0 0 4.646 5.646c5.58 6.74 11.132 13.495 16.52 20.391 11.263 14.402 22.458 28.604 37.187 39.625l2.98 2.27c19.283 14.06 41.419 21.718 65.402 18.4A117.895 117.895 0 0 0 1343 341l1.833-.811c23.914-10.744 43.671-28.534 61.955-46.991 3.918-3.942 7.982-7.6 12.212-11.198 1.112-.974 2.222-1.95 3.332-2.926 73.516-64.559 163.492-103.309 290.01-105.751 72.569 4.715 143.26 29.041 201.898 72.378 1.877 1.386 3.764 2.758 5.65 4.131 9.457 6.934 18.385 14.338 27.11 22.168l1.61 1.435c7.316 6.54 14.313 13.391 21.265 20.315l2.415 2.4A261.983 261.983 0 0 1 1986 311l2.562 2.922C2049.14 384.207 2084.278 471.735 2097 563l.505 3.475c5.53 39.718 5.159 83.863-.505 123.525l-.52 3.88c-7.306 54.326-23.068 107.363-48.417 156.063-1.176 2.276-2.324 4.564-3.473 6.854-10.409 20.542-22.746 39.815-36.59 58.203l-1.354 1.813c-8.279 11.07-17.184 21.588-26.486 31.808a409.74 409.74 0 0 0-4.226 4.727c-8.983 10.174-18.548 19.906-28.934 28.652l-2.996 2.625c-53.738 47.01-120.16 79.524-190.692 91.125-1.21.2-2.42.398-3.667.603-18.865 2.934-37.564 4.027-56.645 3.96l-3.242-.006c-26.45-.076-51.855-2.78-77.758-8.307l-2.991-.635c-54.826-11.962-106.028-38.097-150.322-72.178C1438.93 984.26 1413.39 970.267 1388 972c-11.992 2.06-20.966 9.33-28 19-12.932 20.33-17.874 42.588-22 66-7.07 39.529-17.063 77.875-33.858 114.506a606.43 606.43 0 0 0-3.091 6.885c-7.98 17.759-17.878 34.68-29.051 50.609l-2.383 3.46c-8.761 12.61-18.467 24.478-28.953 35.688a345.281 345.281 0 0 0-5.266 5.766c-10.493 11.731-22.008 22.378-34.398 32.086l-2.863 2.277c-74.976 58.78-177.944 96.555-273.793 96.926l-3.581.017c-2.495.01-4.989.016-7.483.02-3.715.01-7.429.04-11.143.072-80.073.355-157.477-27.146-221.137-75.312l-3.496-2.605c-9.748-7.324-18.97-15.276-28.004-23.458-44.953-40.181-95.583-50.772-153.37-60.109-17.92-2.9-35.75-5.994-53.474-9.937-.72-.16-1.44-.32-2.182-.483C376.01 1219.052 310.82 1191.48 257 1153l-2.34-1.657c-10.117-7.167-20-14.572-29.66-22.343l-1.913-1.53c-20.254-16.218-39.222-33.529-57.587-51.845l-1.717-1.71c-6.147-6.124-12.17-12.29-17.783-18.915a1348.283 1348.283 0 0 0-3.14-3.57c-6.755-7.705-13.28-15.536-19.51-23.672a648.202 648.202 0 0 0-3.998-5.137C97.809 994.84 79.735 964.378 64 933l-1.41-2.806C50.806 906.55 41.224 882.09 33 857l-1.018-3.084c-21.2-64.778-32.02-134.41-32.185-202.557l-.009-2.454c-.015-4.302-.024-8.605-.028-12.907-.005-3.463-.018-6.926-.041-10.388C-.777 549.097 11.739 472.53 85 309l1.86-3.07c8.152-13.417 16.734-26.362 26.14-38.93a3082.98 3082.98 0 0 0 2.422-3.281c11.403-15.366 23.462-30.096 36.348-44.242a249.755 249.755 0 0 0 3.703-4.189c4.27-4.954 8.737-9.644 13.367-14.26l2.2-2.203c1.523-1.525 3.049-3.048 4.575-4.57 2.316-2.311 4.627-4.628 6.938-6.944 1.49-1.491 2.982-2.981 4.474-4.471l2.062-2.068c4.477-4.456 9.117-8.661 13.911-12.772 1.118-.973 2.235-1.947 3.352-2.922a526.118 526.118 0 0 1 22.792-18.625c1.879-1.471 3.73-2.972 5.579-4.48C255.97 124.803 279.524 109.919 303 96l2.495-1.489C343.88 71.758 384.849 53.524 427 39l2.007-.692C451.057 30.728 473.32 24.4 496 19l2.044-.489C526.056 11.828 554.399 7.081 583 3.75l3.888-.458C591.255 2.811 595.624 2.39 600 2l2.933-.264c21.038-1.832 41.996-2.098 63.1-2.054zm-49.835 34.213l-3.681.234c-7.436.525-14.783 1.371-22.162 2.406-3.075.426-6.15.8-9.235 1.14C494.414 47.308 409.19 74.396 272 156l-2.021 1.475C259.721 164.994 249.789 172.883 240 181l-1.77 1.465c-7.373 6.122-14.508 12.455-21.53 18.978-2.122 1.943-4.277 3.85-6.427 5.764-5.324 4.786-10.41 9.782-15.46 14.855l-2.577 2.565A277.425 277.425 0 0 0 178 240a1251.412 1251.412 0 0 1-4.375 4.812c-4.73 5.25-9.195 10.684-13.625 16.188a6409.24 6409.24 0 0 1-2.777 3.398C139.736 285.882 123.713 308.925 110 333l-1.144 2.001c-3.016 5.298-5.952 10.638-8.856 15.999l-1.418 2.609C73.788 399.44 56.408 448.807 45.69 499.745a819.322 819.322 0 0 1-2 9.11c-16.774 76.758-16.916 165.271-1.593 242.403a465.886 465.886 0 0 1 1.96 10.922C48.573 788.65 54.59 814.49 63 840l1.333 4.083C70.909 864.184 78.169 883.76 87 903l1.582 3.452c9.49 20.536 20.303 40.085 32.23 59.298l1.813 2.92c4.186 6.656 8.695 13.014 13.375 19.33 1.177 1.614 2.353 3.228 3.527 4.844 6.274 8.581 12.584 17.055 19.473 25.156l1.365 1.618c6.529 7.736 13.194 15.318 20.095 22.725 1.71 1.84 3.408 3.69 5.106 5.54 7.296 7.908 14.781 15.433 22.785 22.62a385.614 385.614 0 0 1 5.184 4.81c6.939 6.53 14.017 12.735 21.465 18.687 1.227 1.005 2.452 2.012 3.676 3.02 25.284 20.789 51.756 39.038 80.602 54.515 2.455 1.321 4.9 2.658 7.343 4 56.498 30.755 117.95 46.474 181.066 56.402 60.608 9.545 60.608 9.545 81.313 17.063l2.888 1.042c23.217 8.516 43.7 19.647 63.112 34.958l1.722 1.349c5.761 4.536 11.222 9.37 16.653 14.292C705.75 1309.739 743.511 1333.915 784 1350l2.032.827c11.71 4.759 23.729 8.065 35.968 11.173l2.992.782c50.997 13.24 105.042 12.312 156.617 2.84 3.056-.56 6.115-1.097 9.176-1.626 12.633-2.229 24.898-5.435 37.215-8.996l4.848-1.367c59.955-17.178 117.316-45.25 163.23-87.934 2.71-2.504 5.465-4.948 8.234-7.387a100.503 100.503 0 0 0 9.868-10.183c2.076-2.428 4.26-4.737 6.445-7.067 37.935-41.774 62.304-95.525 75.825-149.866.521-2.082 1.06-4.159 1.605-6.235 3.392-13.033 6.273-26.202 7.934-39.574 4.231-33.632 17.34-71.578 44.886-93.325 12.75-8.988 26.502-13.66 42.062-13.562l3.294.02c32.888.731 64.012 19.387 89.525 38.82 7.831 5.93 15.979 11.356 24.244 16.66l1.852 1.19c39.041 24.816 85.143 42.773 131.148 48.81l2.998.406c35.93 4.683 74.342 5.087 109.837-2.928 2.55-.563 5.109-1.068 7.669-1.58 27.584-5.72 54.32-15.301 79.496-27.898l2.886-1.42c27.255-13.473 52.445-30.313 75.114-50.58l2.73-2.43c1.64-1.47 3.276-2.945 4.907-4.425 1.62-1.47 3.247-2.93 4.883-4.383 7.675-6.827 14.996-13.881 21.683-21.688 1.972-2.276 4.008-4.483 6.047-6.699C2013.158 862.68 2047.144 786.14 2060 710l.665-3.91c8.123-48.292 9.177-97.55 2.335-146.09l-.324-2.298c-1.72-11.99-4.047-23.783-6.801-35.577l-.59-2.54c-8.481-36.32-21.53-70.332-38.285-103.585l-1.289-2.58c-15.254-30.412-35.58-58.87-58.488-83.979a340.667 340.667 0 0 1-4.227-4.726c-9.703-11.03-20.009-21.705-31.574-30.79-2.3-1.828-4.451-3.745-6.61-5.738-17.321-15.509-37.548-27.95-57.812-39.187l-2.447-1.37c-14.678-8.17-29.9-14.574-45.553-20.63l-2.34-.933c-20.286-8.083-42.258-12.665-63.785-16.005l-3.89-.603c-15.88-2.328-31.591-2.7-47.61-2.709l-3.156-.002c-24.693.025-48.28 2.53-72.458 7.669-2.331.492-4.664.956-7.003 1.407-57.667 12.088-111.513 43.495-155.774 81.63-2.825 2.41-5.704 4.732-8.609 7.046-4.94 4.012-9.38 8.406-13.824 12.945-2.716 2.72-5.555 5.208-8.48 7.696-2.519 2.261-4.84 4.678-7.196 7.109-19.074 19.436-43.58 34.08-68.875 43.75l-3.34 1.277c-12.331 4.387-24.593 6.237-37.64 6.114-2.02-.016-4.039 0-6.06.02-38.392.064-69.192-22.147-95.648-47.911-4.806-4.876-9.057-10.143-13.312-15.5-.949-1.182-1.898-2.363-2.848-3.543-3.999-4.976-7.995-9.954-11.906-15a432.86 432.86 0 0 0-16.546-20.056 347.075 347.075 0 0 1-9.325-11.089c-4.079-5.038-8.415-9.792-12.82-14.542a286.233 286.233 0 0 1-6.055-6.77c-3.73-4.297-7.576-8.484-11.433-12.666-1.898-2.06-3.787-4.127-5.67-6.2-7.751-8.515-15.81-16.7-23.962-24.83a3485.72 3485.72 0 0 1-6.587-6.593l-4.27-4.266-1.948-1.954a222.271 222.271 0 0 0-11.83-10.93c-2.773-2.405-5.435-4.925-8.113-7.436a271.132 271.132 0 0 0-14.964-12.93c-2.82-2.273-5.583-4.605-8.348-6.945-45.79-38.178-97.502-68.33-153.348-89.122a779.524 779.524 0 0 1-5.586-2.104c-21.657-8.257-44.465-13.736-67.129-18.462l-3.41-.71c-7.03-1.411-14.067-2.47-21.18-3.376a665.706 665.706 0 0 1-10.492-1.44c-33.628-4.728-67.083-6.317-101.016-6.346a5191.33 5191.33 0 0 1-7.074-.013c-16.006-.028-31.964.193-47.94 1.218z" fill="#fefefe"/><path d="M864.203 487.566c7.236 5.818 12.035 13.526 17.206 21.121 2.612 3.797 5.32 7.522 8.028 11.25a38331.701 38331.701 0 0 1 4.922 6.797c2.717 3.752 5.429 7.51 8.141 11.266l3.25 4.5 34.125 47.25 3.252 4.502c2.699 3.736 5.396 7.473 8.088 11.213a2367.732 2367.732 0 0 0 16.972 23.285 1319.739 1319.739 0 0 1 14.266 19.676 1966.99 1966.99 0 0 0 8.86 12.324l1.66 2.297 3.354 4.639a350268.802 350268.802 0 0 0 11.423 15.814l8.126 11.252 3.238 4.483a44416.052 44416.052 0 0 1 13.334 18.472 866.936 866.936 0 0 0 7.146 9.797l2.218 2.996 1.895 2.531C1045 735 1045 735 1045 737c8.102-7.816 14.488-17.195 20.976-26.356 3.536-4.986 7.144-9.915 10.774-14.832l1.794-2.43L1084 686c6.876-9.303 13.74-18.612 20.5-28 6.181-8.584 12.448-17.102 18.734-25.609 2.926-3.96 5.846-7.926 8.766-11.891 3.509-4.764 7.019-9.527 10.535-14.285 5.695-7.71 11.364-15.437 16.965-23.215 7.34-10.193 14.805-20.294 22.27-30.396 6.285-8.505 12.55-17.022 18.73-25.604a2350.569 2350.569 0 0 1 13.875-19.063l1.693-2.306A1120.89 1120.89 0 0 1 1221 499l1.768-2.391c9.146-12.132 22.106-20.367 37.232-22.609 4.358-.272 8.697-.28 13.063-.25l3.431-.023c6.209.014 11.572.436 17.506 2.273l2.617.754c10.055 3.601 16.936 10.556 22.227 19.691 3.286 7.262 3.445 13.76 3.423 21.643l.014 3.684c.01 3.363.012 6.725.01 10.088 0 3.631.01 7.262.02 10.894.016 7.11.022 14.22.023 21.33.001 5.78.005 11.56.012 17.341.017 16.399.026 32.797.025 49.196v5.357c-.001 14.336.018 28.672.046 43.007.029 14.73.042 29.458.04 44.187 0 8.265.006 16.53.027 24.796.018 7.038.023 14.075.009 21.112-.006 3.588-.007 7.176.01 10.764.02 3.896.007 7.791-.009 11.687l.032 3.411c-.075 8.52-1.797 17.186-7.796 23.683-11.22 8.916-24.267 9.749-37.98 9.746-2.18.004-4.36.04-6.541.078-11.188.091-21.077-1.387-29.486-9.383-5.962-7.15-7.869-14.64-7.881-23.722l-.015-2.35c-.016-2.599-.024-5.198-.032-7.798l-.03-5.588c-.027-5.06-.048-10.119-.068-15.178-.022-5.287-.05-10.573-.076-15.86-.05-10.011-.095-20.023-.138-30.035-.05-11.398-.105-22.796-.16-34.193-.114-23.448-.22-46.895-.323-70.342-1.6 2.235-3.198 4.47-4.796 6.705l-1.363 1.904c-3.385 4.735-6.7 9.51-9.966 14.328-4.915 7.219-9.88 14.4-14.875 21.563a2486.89 2486.89 0 0 0-14.5 21c-5.47 8.02-11.008 15.99-16.559 23.953A2221.877 2221.877 0 0 0 1157.5 721.5c-5.47 8.02-11.008 15.99-16.559 23.953A2228.597 2228.597 0 0 0 1128.5 763.5a3129.814 3129.814 0 0 1-20.705 29.92 743.458 743.458 0 0 0-4.717 6.87c-6.648 9.713-13.37 16.592-23.89 22.022l-1.901.988c-10.442 5.072-21.044 6.26-32.537 6.2l-3.865-.017c-18.025-.341-33.237-6.09-46.033-19.16-5.548-6.202-9.857-13.439-14.34-20.42-3.173-4.94-6.387-9.855-9.594-14.774l-1.994-3.067c-6.686-10.27-13.545-20.42-20.424-30.562-10.386-15.334-20.632-30.754-30.796-46.236-10.936-16.65-22.034-33.186-33.226-49.665l-1.884-2.787-1.436-2.123a1187.601 1187.601 0 0 1-12.07-18.302l-1.789-2.757L863 613l-.007 2.94c-.06 23.62-.135 47.24-.229 70.86-.045 11.423-.084 22.846-.11 34.269-.023 9.958-.057 19.916-.103 29.874-.024 5.27-.042 10.542-.049 15.812-.006 4.966-.026 9.932-.056 14.898a941.197 941.197 0 0 0-.011 5.454c.008 12.556.012 23.399-9.115 32.913-9.377 8.004-19.373 8.19-31.137 8.22-2.214.01-4.428.04-6.642.072-12.81.096-24.723-1.109-34.479-10.097-7.7-8.07-8.508-16.68-8.45-27.492l-.016-3.673c-.012-3.343-.01-6.685-.003-10.028.005-3.614-.008-7.227-.018-10.84-.017-7.072-.018-14.144-.013-21.215.004-5.75.003-11.501-.002-17.252l-.003-2.483-.004-4.996c-.014-15.605-.009-31.21.003-46.814.01-14.26-.003-28.52-.027-42.78-.024-14.658-.034-29.317-.027-43.976a9645.7 9645.7 0 0 0-.017-24.67c-.014-7-.015-14.001.002-21.002.009-3.568.011-7.136-.004-10.704-.017-3.878-.002-7.755.016-11.632l-.03-3.378c.109-11.614 3.167-21.949 11.531-30.28 22.319-18.86 58.048-13.185 80.203 2.566z" fill="#fefefe"/><path d="M436.674 472.596c2.777-.004 5.554-.013 8.332-.02 6.69-.018 13.38-.019 20.07-.014 5.437.004 10.875.003 16.313-.002l2.362-.003 4.752-.004c14.772-.014 29.543-.009 44.314.003 13.498.01 26.995-.003 40.493-.027 13.908-.024 27.816-.034 41.724-.027 7.79.003 15.579 0 23.368-.017 6.617-.014 13.234-.015 19.85.002 3.372.009 6.743.009 10.114-.004 3.66-.013 7.317-.002 10.976.016l3.206-.03c9.742.097 16.648 3.114 23.733 9.75 7.88 8.166 9.214 17.151 9.14 28.04-.28 8.907-2.455 16.725-8.726 23.311-8.194 6.91-18.36 7.73-28.636 7.682l-3.275.009c-3.611.007-7.222 0-10.834-.006l-7.783.011c-5.586.009-11.173.01-16.759.008-8.108-.003-16.217.009-24.325.025-13.198.026-26.397.046-39.595.06l-2.392.002c-11.158.011-22.316.016-33.473.02h-4.743c-13.125.004-26.25.023-39.376.055-8.066.019-16.132.025-24.199.014-5.554-.006-11.109.002-16.663.021-3.186.01-6.37.013-9.556.002-43.827-.73-43.827-.73-82.158 17.346-4.237 5.026-3.783 10.366-3.733 16.677l-.041 3.602c-.037 3.78-.034 7.56-.029 11.34-.018 2.57-.039 5.139-.063 7.708-.051 6.285-.07 12.57-.062 18.854l2.071-.002a205093.71 205093.71 0 0 1 136.18-.108l2.936-.001c15.684-.01 31.367-.025 47.051-.043 16.097-.019 32.194-.03 48.291-.034 9.93-.003 19.86-.012 29.79-.028 6.813-.01 13.625-.014 20.438-.011 3.928.001 7.856 0 11.785-.011 3.602-.01 7.204-.01 10.806-.004 1.909.001 3.817-.007 5.726-.016 12.624.043 22.929 1.379 32.742 9.82 6.178 6.442 8.392 14.563 8.684 23.313-.341 10.37-2.89 20.692-10.5 28.125-9.36 7.837-21.037 8.443-32.737 8.36a1890.22 1890.22 0 0 1-15.185-.013c-4.005-.012-8.01-.007-12.014-.005-6.929.001-13.857-.008-20.786-.025a14563.53 14563.53 0 0 0-30.053-.036c-16.255-.006-32.51-.026-48.764-.055-15.785-.027-31.57-.048-47.356-.061l-2.95-.003-14.658-.011c-40.5-.031-80.998-.084-121.497-.151.067 6.85.157 13.7.262 20.55.034 2.33.062 4.658.084 6.987.034 3.354.086 6.707.142 10.06l.02 3.14c.132 6.579.763 11.72 4.894 17.083 19.505 16.577 51.246 14.478 75.246 14.467l7.969.02c5.687.016 11.375.025 17.063.029 8.234.005 16.468.024 24.702.046a40476.388 40476.388 0 0 0 42.554.09 325889.18 325889.18 0 0 0 38.882.064c13.342.022 26.683.052 40.025.088 8.212.022 16.424.036 24.636.042 5.623.004 11.246.015 16.87.032 3.24.01 6.48.015 9.719.013 3.519-.001 7.037.01 10.556.024l3.072-.01c11.295.074 21.674 1.65 30.116 9.65 7.589 8.09 7.72 17.406 7.532 27.957-.419 8.563-3.603 17.015-9.614 23.242-8.747 7.208-17.766 8.727-28.752 8.693l-3.338.014c-3.688.013-7.375.011-11.063.01-2.647.006-5.294.012-7.941.02-6.448.016-12.896.022-19.344.023-5.256.001-10.513.005-15.769.012-14.954.017-29.908.026-44.862.025H567.774c-13.007-.001-26.014.018-39.022.046-13.405.029-26.811.042-40.217.04-7.505 0-15.01.005-22.516.027C359.91 828.776 359.91 828.776 314 802l-1.82-1.045c-17.725-10.33-33.143-24.916-39.11-45.1-1.939-7.49-3.192-14.583-3.217-22.34l-.011-2.221c-.011-2.446-.015-4.891-.019-7.336l-.02-5.275c-.02-5.767-.031-11.533-.041-17.3l-.013-5.974c-.019-9.362-.033-18.724-.041-28.086-.01-10.775-.036-21.55-.077-32.324-.03-8.347-.045-16.695-.048-25.043a3234.17 3234.17 0 0 0-.036-14.927c-.024-4.69-.028-9.38-.018-14.07 0-1.71-.005-3.419-.02-5.128-.183-24.015 7.372-44.023 24.05-61.515 37.463-35.682 93.869-41.813 143.115-41.72z" fill="#fdfefe"/><path d="M1689.237 472.973c14.501-.12 29.002-.21 43.503-.26 4.32-.015 8.641-.04 12.962-.072 5.092-.038 10.184-.057 15.276-.06 1.873-.004 3.746-.016 5.618-.034 12-.114 22.568.033 31.873 8.68 2.8 3.243 4.734 6.902 6.531 10.773l1.113 2.14c2.808 9.053 2.635 23.347-1.648 31.852-4.314 5.913-9.778 10.112-16.465 13.008-3.53.506-3.53.506-7.496.678l-2.226.1c-9.774.394-19.558.375-29.339.38l-6.497.015c-4.633.011-9.266.02-13.9.026-7.361.011-14.723.031-22.084.053-20.924.062-41.848.116-62.772.15-11.58.018-23.16.047-34.74.087-6.103.021-12.205.037-18.307.04-63.323-3.427-63.323-3.427-119.639 18.471-5.804 5.954-9.276 10.072-9.437 18.625.147 7.915 1.76 13.683 7.421 19.367 14.277 11.796 30.766 13.474 48.567 14.164l2.792.12c31.01 1.301 62.08 1.125 93.113 1.232 8.977.03 17.954.066 26.93.116 3.5.02 7 .035 10.5.04 22.56.044 44.929.977 67.239 4.523l2.018.32c33.489 5.383 69.973 18.226 92.17 45.243 2.617 3.807 4.747 7.906 6.875 12l1.01 1.913c4.83 9.697 6.261 19.662 6.165 30.392l.002 3.345a1123.77 1123.77 0 0 1-.029 6.953c-.023 3.506-.02 7.012-.014 10.518-.033 28.446-.033 28.446-5.01 41.879l-.782 2.163c-2.303 6.058-5.42 11.072-9.53 16.087l-2.187 3.062c-27.576 31.365-83.132 34.095-121.465 36.75-10.521.592-21.068.483-31.601.479-2.744.004-5.489.012-8.233.02-6.614.016-13.228.022-19.842.023-5.377.001-10.754.005-16.132.012a36844.503 36844.503 0 0 1-48.375.025h-2.488c-13.344-.001-26.689.018-40.033.046-13.752.029-27.504.042-41.256.04-7.701 0-15.402.005-23.104.027-6.544.018-13.087.023-19.631.009a1533.06 1533.06 0 0 0-10 .01c-3.62.016-7.24.007-10.862-.009l-3.155.032c-9.885-.093-18.685-2.612-25.98-9.518-2.742-3.324-4.207-6.99-5.656-11.008l-1-2c-.27-3.494-.232-6.997-.25-10.5l-.062-2.898c-.05-9.05 1.496-17.57 7.3-24.778 6.11-5.54 14.413-8.941 22.64-8.957l2.82-.013 3.088.001 3.29-.01c3.65-.011 7.302-.015 10.953-.019l7.84-.02c5.64-.015 11.28-.026 16.92-.036 8.186-.014 16.372-.035 24.558-.058 13.323-.038 26.645-.073 39.968-.105l2.417-.006c11.267-.026 22.533-.05 33.8-.073l2.394-.005 2.39-.005c13.243-.027 26.486-.061 39.73-.101 8.142-.025 16.285-.043 24.428-.054 5.61-.007 11.219-.022 16.828-.042 3.218-.01 6.436-.018 9.654-.019 13.348-.004 26.622-.317 39.943-1.212l3.62-.24c13.726-1.008 26.033-3.15 37.731-10.85l2.813-1.75c6.69-6.882 9.484-14.04 9.504-23.436-.108-5.587-1.023-9.346-4.317-13.814l-1.25-1.82c-9.153-12.013-25.201-15.477-39.293-17.825l-3.844-.646c-12.62-2.024-25.168-2.875-37.925-3.397-2.483-.114-4.965-.23-7.447-.345-28.082-1.255-56.19-1.86-84.293-2.484-12.27-.273-24.54-.554-36.807-.914-1.378-.04-2.755-.079-4.132-.116-6.416-.176-12.664-.432-19.009-1.453a355.17 355.17 0 0 0-7.48-.465l-4.28-.236c-2.206-.119-4.413-.236-6.62-.349-12.462-.644-24.394-1.966-36.37-5.638l-2.584-.787C1432.333 665.4 1417.209 658.003 1404 647c-.677-.531-1.354-1.062-2.05-1.61-11.87-9.68-20.329-24.43-22.597-39.582-.716-7.725-.647-15.473-.614-23.225.011-3.01 0-6.02-.012-9.03-.02-24.402 4.452-45.588 22.199-63.67 13.373-12.928 30.632-21.05 48.074-26.883l2.114-.776c8.042-2.744 16.289-3.23 24.699-3.849l2.419-.189c14.585-1.133 29.163-1.664 43.787-1.935l2.137-.04 2.14-.04c5.711-.119 11.41-.376 17.114-.663 9.841-.493 19.676-.805 29.528-1.008l2.819-.06c35.696-.736 71.399-1.128 107.1-1.415l6.38-.052z" fill="#fefefe"/></svg>