<svg fill="none" height="265" viewBox="-.00026528 .297 169.99926528 17.419" width="2500" xmlns="http://www.w3.org/2000/svg"><path d="m21.604 5.555h-17.397c-.632 0-1.145.512-1.145 1.144v6.02c0 .632.513 1.144 1.145 1.144h17.397c.632 0 1.144-.512 1.144-1.144v-6.02c0-.632-.512-1.144-1.144-1.144z" fill="#fff"/><path d="m7.28 2.52a7.279 7.279 0 0 0 -7.28 7.28 7.28 7.28 0 1 0 7.28-7.28z" fill="#0d3482"/><path d="m26.037 9.8a7.28 7.28 0 1 1 -14.561 0 7.28 7.28 0 0 1 14.561 0z" fill="#12b0e5"/><path d="m7.333 5.953c-2.319 0-3.896 1.663-3.896 3.848s1.491 3.833 3.896 3.833c1.729 0 2.983-.732 3.57-2.452h-1.843c-.134.451-.813.942-1.654.942-1.166 0-1.816-.577-1.874-1.843h5.506c.149-2.242-1.107-4.328-3.705-4.328zm-1.758 3.059c.03-.562.424-1.51 1.702-1.51.935 0 1.423.451 1.623 1.51zm13.962-2.633c-.8 0-1.628.35-2.11 1.082h-.039v-.906h-1.802v6.51h1.979v-3.41c0-1.265.402-1.781 1.385-1.781.802 0 1.131.438 1.131 1.516v3.676h1.979v-4.003c0-1.613-.508-2.682-2.523-2.682z" fill="#fff"/><path d="m34.214 1.875-.677 3.166h6.033l-2.033 9.496h-6.805l-.677 3.165h17.405l.677-3.165h-6.824l2.032-9.496h6.014l.677-3.166zm26.112 0h-7.117l-.678 3.166h7.12zm6.134 3.18-12.586 12.661h5.065l12.585-12.661zm24.759 6.318h15.823l.677-3.166h-15.823zm19.312 6.343h5.063l12.584-12.661h-5.065zm6.396-11.892h-7.119l-.675 3.164h7.117zm1.008-4.73h-7.119l-.675 3.166h7.117zm8.247-.797h-2.051l-.678 3.166h2.052zm.956 0-.677 3.166h2.052l.677-3.166zm-33.558 0h-2.05l-.678 3.166h2.051zm3.009 0h-2.052l-.678 3.166h2.052zm-16.585 0h-3.957l-4.742 9.496h3.957l1.58-3.164h4.946l-5.532 11.078h3.955l5.532-11.077h4.432l.678-3.166h-12.43zm59.156 7.211-.215 1.013-2.413-2.48-3.456 2.48.23-1.013 3.446-2.492 2.411 2.492zm-6.527 3.089.159-.749h5.869l-.159.749h-3.181l-1.236 1.662h2.421l-.421-1.316h.895l.662 2.084h-4.996l1.804-2.43h-1.815zm1.763-2.506h3.412l-.155.731h-3.411zm7.503 3.162-.357-1.125-.615 2.893h-.749l.573-2.69-.564.759h-.404l-.228-.73h.385l2.299-3.083h-1.826l.157-.74h.989l.293-1.375h.748l-.292 1.375h1.269l-1.68 2.247.555 1.73-.551.74zm1.912.998h1.422l-.164.768h-3.641l.163-.768h1.433l.753-3.544h-1.231l.164-.77h1.23l.592-2.777h.787l-.592 2.777h1.22l-.164.77h-1.219zm12.299-5.751-.155.73h-2.363l.155-.73zm-1.546 6.542h-2.056l.636-2.998h2.057zm1.619-7.706-.152.72h-2.018l.153-.72zm-.535 2.336-.153.72h-1.94l.153-.72zm-2.34 1.882.153-.72h1.94l-.153.72zm.058 2.796h.634l.345-1.616h-.635zm5.755-3.478-.159.75h-1.413l-.727 3.42h-.759l.727-3.42h-1.422l.159-.75h1.422l.581-2.727h-1.288l.159-.751h3.325l-.159.75h-1.278l-.581 2.728zm-2.189-2.181.275.873-.591.798-.538-1.671h.856zm1.067.865.645-.865h.845l-1.236 1.662zm4.082-.662-.592.798-.634-1.99h.856zm.305 2.228-.288 1.355h1.344l-.159.75h-1.344l-.385 1.807h-.751l.385-1.807h-1.344l.159-.75h1.344l.288-1.355h-1.105l.159-.749h1.105l.656-3.084h.751l-.656 3.084h1.106l-.16.749zm.503-2.228.878-1.192h.856l-1.48 1.99zm2.37-.626-1.163 5.467h-.731l1.163-5.467zm.985-1.106h.749l-1.671 7.86h-1.344l-.228-.732h.98l1.517-7.13zm-16.045 6.615-.325-.626a2.746 2.746 0 0 0 1.08-1.374c.396-1.11.004-2.162-.877-2.345-.37-.077-.77.009-1.162.248-.49.3-.892.81-1.103 1.398-.127.357-.174.72-.138 1.056l1.904-2.25.567.415-2.821 3.334-.228-.489c-.295-.63-.306-1.404-.026-2.178a3.77 3.77 0 0 1 1.535-1.92c.588-.36 1.224-.493 1.788-.375 1.26.264 1.847 1.708 1.307 3.217a3.78 3.78 0 0 1 -1.499 1.889zm-17.398-10.691-.153.673h37.198l.153-.673zm-3.459 15.937-.154.674h37.197l.153-.674z" fill="#3e392d"/></svg>