<svg viewBox="0 0 640 426" xmlns="http://www.w3.org/2000/svg" width="2500" height="1664"><g fill="none" stroke-width="2"><path d="M640 21.81L0 21.78M640 39.31q-230.92-.13-461.85-.03c-8.67 0-16.79-4.88-24.5-6.53q-28.11-6.05-54.36 5.85-1.45.65-3.02.65L0 39.17M640 48.81l-452.19-.04q-.57 0-.17.32 8.91 7.17 15.61 16.42a1.84 1.84-17.9 0 0 1.49.76l435.26.04M640 106.81l-421.44-.04a.56.48 0 0 0-.56.48v16.5a.52.48 90 0 0 .48.52l421.52.04M640 133.81l-422.26-.04a1.11.97 6.8 0 0-1.04.71q-2.33 8.37-5.9 16.29a.43.35 10 0 0 .43.5l428.77.04M640 190.81l-466.02-.04q-1.52 0-2.93.59c-6.66 2.77-13.96 5.51-20.93 6.81q-27.51 5.14-52.47-6.9-1.13-.54-2.39-.54L0 190.69M0 151.19l57.69.03a.35.32 76.4 0 0 .27-.49q-3.62-7.89-5.29-16.42a.7.69 84.4 0 0-.68-.57L0 133.69M0 124.12l50.43.11a.55.49.5 0 0 .55-.48l.34-16.5a.61.43.4 0 0-.61-.44L0 106.94M0 66.19l65.38.03a1.33.79 9.6 0 0 .99-.38q6.86-9.6 16.29-16.67.52-.39-.23-.39L0 48.69" stroke="gray"/><g stroke="#fe8080"><path d="M94.971 183.49a79.06 78.8 120.2 0 0 107.874-28.692A79.06 78.8 120.2 0 0 174.509 46.83 79.06 78.8 120.2 0 0 66.635 75.522 79.06 78.8 120.2 0 0 94.971 183.49"/><path d="M94.915 165.142a64.06 63.84 128.2 0 0 89.784-10.863 64.06 63.84 128.2 0 0-10.554-89.821 64.06 63.84 128.2 0 0-89.784 10.863 64.06 63.84 128.2 0 0 10.554 89.821"/><path d="M195.65 114.83a61.12 61.12 0 0 0-61.12-61.12 61.12 61.12 0 0 0-61.12 61.12 61.12 61.12 0 0 0 61.12 61.12 61.12 61.12 0 0 0 61.12-61.12"/><path d="M133.1 69.05c2.08-11.46-12.86-14.5-15.46-4.69-.91 3.45 1.19 7.64 2.49 11.15a.83.82 55 0 0 1.4.26q4.32-5.19 11.06-6.08a.81.53-84.8 0 0 .51-.64M151.33 62.37c-2.86-4.64-9.76-5.38-13.26-.8q-1.98 2.61-1.82 7.46a.67.47-88.5 0 0 .41.62q7.27 1.01 11.62 6.8.56.75.91-.2c1.49-4.08 4.57-9.95 2.14-13.88M112 67.15c-8.58-4.89-16.51 5.09-10.13 11.97q7.52 8.11 14.92 16.1 2.81 3.04 1.7-.95-1.33-4.78-1.09-9.68c.15-2.93 1.82-4.13.48-7.32q-1.56-3.74-3.35-7.42-.85-1.74-2.53-2.7M169.08 69.85c-3.23-5.01-9.31-5.45-13.42-.91q-1.57 1.73-4.99 10.33a1.53 1.33 49.6 0 0-.01.95q2.24 6.84.08 13.8-1.34 4.29 1.82 1.08 6.66-6.76 13.45-14.06c3.17-3.4 5.78-6.99 3.07-11.19"/><path d="M146.15 80.02c-5.3-7.92-15.73-8.63-22.14-1.19-6.05 7.03.71 14.84-2.62 22.45-1.5 3.41-3.65 6.65-3.95 10.23-2.33 27.33 38.87 24.3 33.73-2.21-.58-3.03-4.68-7.78-4.53-12.11.19-5.37 2.88-12.13-.49-17.17M117.45 98.62c-5.1-5.87-12.03-11.68-17.81-17.01-9.41-8.69-19.9 7.77-9.47 12.49l23.62 10.69a1.34 1.05 24.6 0 0 1.65-.4l2.32-4.92a.99.47 44.5 0 0-.31-.85M177.63 94.96c12.9-5.64 2.23-22.11-8.53-12.59q-8.8 7.8-17.38 16.23a1.79 1.46 56.8 0 0-.2 1.89l2.02 4.24a.84.78 65.5 0 0 1.05.44q11.51-5.17 23.04-10.21M113.87 106.75q-10.97-4.27-21.35-8.2-3.88-1.46-5.69-1.56c-10.32-.59-12.35 15.21.44 15.69q14.83.55 25.21.59a.67.59-84.2 0 0 .59-.55l1.06-5.49a.43.42-73.6 0 0-.26-.48M184.43 112.65c10.77-1.64 6.42-18.72-4.19-15.16q-4.98 1.68-25.02 9.3a.66.56 76.4 0 0-.35.69l.79 5.5a.55.5 86.6 0 0 .49.48q21.56.21 28.28-.81M89.32 115.65c-18.23.5-10.77 19.43-1.29 15.91q12.93-4.81 25.86-9.77a.66.6-16.6 0 0 .42-.7l-1.2-5.51a.81.51-3.5 0 0-.75-.41q-11.52.16-23.04.48"/><path d="M187.43 117.8a4.27 2.81 59.9 0 0-2.42-1.21l-28.76-1.4a.63.54-81.3 0 0-.57.49l-1.18 5.08a1.28 1.27-73.2 0 0 .79 1.49q13.12 4.91 25.45 9.8c2.51.99 6.35-.6 8.04-2.86q4.34-5.81-1.35-11.39M88.65 148.15q5.62 3.09 10.12-.89 4.03-3.58 19.62-18.43a.66.6-40.7 0 0 .1-.82l-3.25-4.48a.86.53-27.3 0 0-.91-.07q-10.61 4.8-21.27 9.52c-5.75 2.55-9.79 6.13-6.78 12.63q.76 1.66 2.37 2.54M177.24 134.6q-11.41-5.9-23.29-10.95a.7.65 28.5 0 0-.82.21l-3.1 4.41a.64.62 39.8 0 0 .09.81q9.64 9.25 19.29 18.53c8.61 8.28 21.1-6.15 7.83-13.01M125.02 133l-4.4-2.84a.68.64 40.9 0 0-.78.03c-6.46 5.41-12.48 12.92-18.32 19.11q-.67.7.23.7h15.5a.98.72 8.8 0 0 .83-.43l7.17-15.86a.59.56 28.2 0 0-.23-.71M166.29 149.31a.57.57-34.1 0 1-.42.96l-15.11-.05a.57.57-14.3 0 1-.52-.34l-7.03-15.94a.57.57-29.3 0 1 .2-.71l4.57-3.09a.57.57-53.4 0 1 .74.09zM126.83 134.46a.66.66 55.1 0 1 .73-.41l5.27.92a.66.66-83.1 0 1 .54.68l-.6 13.67a.66.66.7 0 1-.65.63l-10.42.19a.66.66-72.7 0 1-.62-.9zM146.86 149.15a.7.7 83 0 1-.66.94l-10.16-.13a.7.7-1.3 0 1-.69-.69l-.19-13.52a.7.7-3.7 0 1 .59-.7l5.06-.83a.7.7-15.6 0 1 .77.45zM144.07 86.87a9.47 9.47 0 0 0-9.47-9.47 9.47 9.47 0 0 0-9.47 9.47 9.47 9.47 0 0 0 9.47 9.47 9.47 9.47 0 0 0 9.47-9.47M147.75 113.71a13.39 13.39 0 0 0-13.39-13.39 13.39 13.39 0 0 0-13.39 13.39 13.39 13.39 0 0 0 13.39 13.39 13.39 13.39 0 0 0 13.39-13.39"/><path d="M139.13 86.84a4.54 4.54 0 0 0-4.54-4.54 4.54 4.54 0 0 0-4.54 4.54 4.54 4.54 0 0 0 4.54 4.54 4.54 4.54 0 0 0 4.54-4.54M142.7 113.71a8.36 8.36 0 0 0-8.36-8.36 8.36 8.36 0 0 0-8.36 8.36 8.36 8.36 0 0 0 8.36 8.36 8.36 8.36 0 0 0 8.36-8.36"/></g><path d="M640 208.31l-640-.06M640 217.81l-640-.12M640 235.31l-640-.12M640 274.81l-640-.12M640 292.31l-640-.12M640 301.81l-640-.12M640 319.31l-640-.12M640 358.81l-640-.12M640 376.31l-640-.06M640 385.81l-640-.12M640 403.31l-640-.12" stroke="gray"/></g><path d="M0 0h640v21.81L0 21.78z" fill="#fff"/><path d="M640 21.81v17.5q-230.92-.13-461.85-.03c-8.67 0-16.79-4.88-24.5-6.53q-28.11-6.05-54.36 5.85-1.45.65-3.02.65L0 39.17V21.78z"/><path d="M640 39.31v9.5l-452.19-.04q-.57 0-.17.32 8.91 7.17 15.61 16.42a1.84 1.84-17.9 0 0 1.49.76l435.26.04v40.5l-421.44-.04a.56.48 0 0 0-.56.48v16.5a.52.48 90 0 0 .48.52l421.52.04v9.5l-422.26-.04a1.11.97 6.8 0 0-1.04.71q-2.33 8.37-5.9 16.29a.43.35 10 0 0 .43.5l428.77.04v39.5l-466.02-.04q-1.52 0-2.93.59c-6.66 2.77-13.96 5.51-20.93 6.81q-27.51 5.14-52.47-6.9-1.13-.54-2.39-.54L0 190.69v-39.5l57.69.03a.35.32 76.4 0 0 .27-.49q-3.62-7.89-5.29-16.42a.7.69 84.4 0 0-.68-.57L0 133.69v-9.57l50.43.11a.55.49.5 0 0 .55-.48l.34-16.5a.61.43.4 0 0-.61-.44L0 106.94V66.19l65.38.03a1.33.79 9.6 0 0 .99-.38q6.86-9.6 16.29-16.67.52-.39-.23-.39L0 48.69v-9.52l96.27.08q1.57 0 3.02-.65 26.25-11.9 54.36-5.85c7.71 1.65 15.83 6.53 24.5 6.53q230.93-.1 461.85.03zM94.971 183.49a79.06 78.8 120.2 0 0 107.874-28.692A79.06 78.8 120.2 0 0 174.509 46.83 79.06 78.8 120.2 0 0 66.635 75.522 79.06 78.8 120.2 0 0 94.971 183.49z" fill="#fff"/><path d="M94.971 183.49A79.06 78.8 120.2 0 1 66.635 75.522 79.06 78.8 120.2 0 1 174.51 46.83a79.06 78.8 120.2 0 1 28.336 107.968A79.06 78.8 120.2 0 1 94.97 183.49zm-.056-18.348a64.06 63.84 128.2 0 0 89.784-10.863 64.06 63.84 128.2 0 0-10.554-89.821 64.06 63.84 128.2 0 0-89.784 10.863 64.06 63.84 128.2 0 0 10.554 89.821z" fill="#fd0100"/><path d="M0 48.69l82.43.09q.75 0 .23.39-9.43 7.07-16.29 16.67a1.33.79 9.6 0 1-.99.38L0 66.19zM640 48.81v17.5l-435.26-.04a1.84 1.84-17.9 0 1-1.49-.76q-6.7-9.25-15.61-16.42-.4-.32.17-.32z"/><path d="M94.915 165.142A64.06 63.84 128.2 0 1 84.36 75.321a64.06 63.84 128.2 0 1 89.784-10.863 64.06 63.84 128.2 0 1 10.554 89.821 64.06 63.84 128.2 0 1-89.784 10.863zM195.65 114.83a61.12 61.12 0 0 0-61.12-61.12 61.12 61.12 0 0 0-61.12 61.12 61.12 61.12 0 0 0 61.12 61.12 61.12 61.12 0 0 0 61.12-61.12z" fill="#fff"/><path d="M195.65 114.83a61.12 61.12 0 0 1-61.12 61.12 61.12 61.12 0 0 1-61.12-61.12 61.12 61.12 0 0 1 61.12-61.12 61.12 61.12 0 0 1 61.12 61.12zM133.1 69.05c2.08-11.46-12.86-14.5-15.46-4.69-.91 3.45 1.19 7.64 2.49 11.15a.83.82 55 0 0 1.4.26q4.32-5.19 11.06-6.08a.81.53-84.8 0 0 .51-.64zm18.23-6.68c-2.86-4.64-9.76-5.38-13.26-.8q-1.98 2.61-1.82 7.46a.67.47-88.5 0 0 .41.62q7.27 1.01 11.62 6.8.56.75.91-.2c1.49-4.08 4.57-9.95 2.14-13.88zM112 67.15c-8.58-4.89-16.51 5.09-10.13 11.97q7.52 8.11 14.92 16.1 2.81 3.04 1.7-.95-1.33-4.78-1.09-9.68c.15-2.93 1.82-4.13.48-7.32q-1.56-3.74-3.35-7.42-.85-1.74-2.53-2.7zm57.08 2.7c-3.23-5.01-9.31-5.45-13.42-.91q-1.57 1.73-4.99 10.33a1.53 1.33 49.6 0 0-.01.95q2.24 6.84.08 13.8-1.34 4.29 1.82 1.08 6.66-6.76 13.45-14.06c3.17-3.4 5.78-6.99 3.07-11.19zm-22.93 10.17c-5.3-7.92-15.73-8.63-22.14-1.19-6.05 7.03.71 14.84-2.62 22.45-1.5 3.41-3.65 6.65-3.95 10.23-2.33 27.33 38.87 24.3 33.73-2.21-.58-3.03-4.68-7.78-4.53-12.11.19-5.37 2.88-12.13-.49-17.17zm-28.7 18.6c-5.1-5.87-12.03-11.68-17.81-17.01-9.41-8.69-19.9 7.77-9.47 12.49l23.62 10.69a1.34 1.05 24.6 0 0 1.65-.4l2.32-4.92a.99.47 44.5 0 0-.31-.85zm60.18-3.66c12.9-5.64 2.23-22.11-8.53-12.59q-8.8 7.8-17.38 16.23a1.79 1.46 56.8 0 0-.2 1.89l2.02 4.24a.84.78 65.5 0 0 1.05.44q11.51-5.17 23.04-10.21zm-63.76 11.79q-10.97-4.27-21.35-8.2-3.88-1.46-5.69-1.56c-10.32-.59-12.35 15.21.44 15.69q14.83.55 25.21.59a.67.59-84.2 0 0 .59-.55l1.06-5.49a.43.42-73.6 0 0-.26-.48zm70.56 5.9c10.77-1.64 6.42-18.72-4.19-15.16q-4.98 1.68-25.02 9.3a.66.56 76.4 0 0-.35.69l.79 5.5a.55.5 86.6 0 0 .49.48q21.56.21 28.28-.81zm-95.11 3c-18.23.5-10.77 19.43-1.29 15.91q12.93-4.81 25.86-9.77a.66.6-16.6 0 0 .42-.7l-1.2-5.51a.81.51-3.5 0 0-.75-.41q-11.52.16-23.04.48zm98.11 2.15a4.27 2.81 59.9 0 0-2.42-1.21l-28.76-1.4a.63.54-81.3 0 0-.57.49l-1.18 5.08a1.28 1.27-73.2 0 0 .79 1.49q13.12 4.91 25.45 9.8c2.51.99 6.35-.6 8.04-2.86q4.34-5.81-1.35-11.39zm-98.78 30.35q5.62 3.09 10.12-.89 4.03-3.58 19.62-18.43a.66.6-40.7 0 0 .1-.82l-3.25-4.48a.86.53-27.3 0 0-.91-.07q-10.61 4.8-21.27 9.52c-5.75 2.55-9.79 6.13-6.78 12.63q.76 1.66 2.37 2.54zm88.59-13.55q-11.41-5.9-23.29-10.95a.7.65 28.5 0 0-.82.21l-3.1 4.41a.64.62 39.8 0 0 .09.81q9.64 9.25 19.29 18.53c8.61 8.28 21.1-6.15 7.83-13.01zm-52.22-1.6l-4.4-2.84a.68.64 40.9 0 0-.78.03c-6.46 5.41-12.48 12.92-18.32 19.11q-.67.7.23.7h15.5a.98.72 8.8 0 0 .83-.43l7.17-15.86a.59.56 28.2 0 0-.23-.71zm41.27 16.31a.57.57-34.1 0 1-.42.96l-15.11-.05a.57.57-14.3 0 1-.52-.34l-7.03-15.94a.57.57-29.3 0 1 .2-.71l4.57-3.09a.57.57-53.4 0 1 .74.09zm-39.46-14.85a.66.66 55.1 0 1 .73-.41l5.27.92a.66.66-83.1 0 1 .54.68l-.6 13.67a.66.66.7 0 1-.65.63l-10.42.19a.66.66-72.7 0 1-.62-.9zm20.03 14.69a.7.7 83 0 1-.66.94l-10.16-.13a.7.7-1.3 0 1-.69-.69l-.19-13.52a.7.7-3.7 0 1 .59-.7l5.06-.83a.7.7-15.6 0 1 .77.45z" fill="#fd0100"/><path d="M117.64 64.36c2.6-9.81 17.54-6.77 15.46 4.69a.81.53-84.8 0 1-.51.64q-6.74.89-11.06 6.08a.83.82 55 0 1-1.4-.26c-1.3-3.51-3.4-7.7-2.49-11.15zM151.33 62.37c2.43 3.93-.65 9.8-2.14 13.88q-.35.95-.91.2-4.35-5.79-11.62-6.8a.67.47-88.5 0 1-.41-.62q-.16-4.85 1.82-7.46c3.5-4.58 10.4-3.84 13.26.8zM112 67.15q1.68.96 2.53 2.7 1.79 3.68 3.35 7.42c1.34 3.19-.33 4.39-.48 7.32q-.24 4.9 1.09 9.68 1.11 3.99-1.7.95-7.4-7.99-14.92-16.1c-6.38-6.88 1.55-16.86 10.13-11.97zM169.08 69.85c2.71 4.2.1 7.79-3.07 11.19q-6.79 7.3-13.45 14.06-3.16 3.21-1.82-1.08 2.16-6.96-.08-13.8a1.53 1.33 49.6 0 1 .01-.95q3.42-8.6 4.99-10.33c4.11-4.54 10.19-4.1 13.42.91z" fill="#fff"/><path d="M146.15 80.02c3.37 5.04.68 11.8.49 17.17-.15 4.33 3.95 9.08 4.53 12.11 5.14 26.51-36.06 29.54-33.73 2.21.3-3.58 2.45-6.82 3.95-10.23 3.33-7.61-3.43-15.42 2.62-22.45 6.41-7.44 16.84-6.73 22.14 1.19zm-2.08 6.85a9.47 9.47 0 0 0-9.47-9.47 9.47 9.47 0 0 0-9.47 9.47 9.47 9.47 0 0 0 9.47 9.47 9.47 9.47 0 0 0 9.47-9.47zm3.68 26.84a13.39 13.39 0 0 0-13.39-13.39 13.39 13.39 0 0 0-13.39 13.39 13.39 13.39 0 0 0 13.39 13.39 13.39 13.39 0 0 0 13.39-13.39z" fill="#fff"/><path d="M144.07 86.87a9.47 9.47 0 0 1-9.47 9.47 9.47 9.47 0 0 1-9.47-9.47 9.47 9.47 0 0 1 9.47-9.47 9.47 9.47 0 0 1 9.47 9.47zm-4.94-.03a4.54 4.54 0 0 0-4.54-4.54 4.54 4.54 0 0 0-4.54 4.54 4.54 4.54 0 0 0 4.54 4.54 4.54 4.54 0 0 0 4.54-4.54z" fill="#fd0100"/><path d="M99.64 81.61c5.78 5.33 12.71 11.14 17.81 17.01a.99.47 44.5 0 1 .31.85l-2.32 4.92a1.34 1.05 24.6 0 1-1.65.4L90.17 94.1c-10.43-4.72.06-21.18 9.47-12.49zM169.1 82.37c10.76-9.52 21.43 6.95 8.53 12.59q-11.53 5.04-23.04 10.21a.84.78 65.5 0 1-1.05-.44l-2.02-4.24a1.79 1.46 56.8 0 1 .2-1.89q8.58-8.43 17.38-16.23z" fill="#fff"/><circle cx="134.59" cy="86.84" fill="#fff" r="4.54"/><path d="M113.87 106.75a.43.42-73.6 0 1 .26.48l-1.06 5.49a.67.59-84.2 0 1-.59.55q-10.38-.04-25.21-.59c-12.79-.48-10.76-16.28-.44-15.69q1.81.1 5.69 1.56 10.38 3.93 21.35 8.2zM180.24 97.49c10.61-3.56 14.96 13.52 4.19 15.16q-6.72 1.02-28.28.81a.55.5 86.6 0 1-.49-.48l-.79-5.5a.66.56 76.4 0 1 .35-.69q20.04-7.62 25.02-9.3z" fill="#fff"/><path d="M147.75 113.71a13.39 13.39 0 0 1-13.39 13.39 13.39 13.39 0 0 1-13.39-13.39 13.39 13.39 0 0 1 13.39-13.39 13.39 13.39 0 0 1 13.39 13.39zm-5.05 0a8.36 8.36 0 0 0-8.36-8.36 8.36 8.36 0 0 0-8.36 8.36 8.36 8.36 0 0 0 8.36 8.36 8.36 8.36 0 0 0 8.36-8.36z" fill="#fd0100"/><circle cx="134.34" cy="113.71" fill="#fff" r="8.36"/><path d="M0 124.12v-17.18l50.71-.13a.61.43.4 0 1 .61.44l-.34 16.5a.55.49.5 0 1-.55.48zM640 106.81v17.5l-421.52-.04a.52.48 90 0 1-.48-.52v-16.5a.56.48 0 0 1 .56-.48z"/><g fill="#fff"><path d="M88.03 131.56c-9.48 3.52-16.94-15.41 1.29-15.91q11.52-.32 23.04-.48a.81.51-3.5 0 1 .75.41l1.2 5.51a.66.6-16.6 0 1-.42.7q-12.93 4.96-25.86 9.77zM187.43 117.8q5.69 5.58 1.35 11.39c-1.69 2.26-5.53 3.85-8.04 2.86q-12.33-4.89-25.45-9.8a1.28 1.27-73.2 0 1-.79-1.49l1.18-5.08a.63.54-81.3 0 1 .57-.49l28.76 1.4a4.27 2.81 59.9 0 1 2.42 1.21zM88.65 148.15q-1.61-.88-2.37-2.54c-3.01-6.5 1.03-10.08 6.78-12.63q10.66-4.72 21.27-9.52a.86.53-27.3 0 1 .91.07l3.25 4.48a.66.6-40.7 0 1-.1.82q-15.59 14.85-19.62 18.43-4.5 3.98-10.12.89zM177.24 134.6c13.27 6.86.78 21.29-7.83 13.01q-9.65-9.28-19.29-18.53a.64.62 39.8 0 1-.09-.81l3.1-4.41a.7.65 28.5 0 1 .82-.21q11.88 5.05 23.29 10.95zM125.02 133a.59.56 28.2 0 1 .23.71l-7.17 15.86a.98.72 8.8 0 1-.83.43h-15.5q-.9 0-.23-.7c5.84-6.19 11.86-13.7 18.32-19.11a.68.64 40.9 0 1 .78-.03zM150.24 149.88l-7.03-15.94a.57.57 59.5 0 1 .2-.71l4.57-3.09a.57.57-38 0 1 .74.09l17.57 19.08a.57.57-34.1 0 1-.42.96l-15.11-.05a.57.57-14.3 0 1-.52-.34z"/></g><path d="M0 133.69l51.99.05a.7.69 84.4 0 1 .68.57q1.67 8.53 5.29 16.42a.35.32 76.4 0 1-.27.49L0 151.19zM640 133.81v17.5l-428.77-.04a.43.35 10 0 1-.43-.5q3.57-7.92 5.9-16.29a1.11.97 6.8 0 1 1.04-.71z"/><path d="M133.37 135.65l-.6 13.67a.66.66.5 0 1-.65.63l-10.42.19a.66.66-72.7 0 1-.62-.9l5.75-14.78a.66.66 55.1 0 1 .73-.41l5.27.92a.66.66-83.1 0 1 .54.68zM135.35 149.27l-.19-13.52a.7.7-3.4 0 1 .59-.7l5.06-.83a.7.7-15.6 0 1 .77.45l5.28 14.48a.7.7 83 0 1-.66.94l-10.16-.13a.7.7-1.3 0 1-.69-.69z" fill="#fff"/><path d="M0 190.69l95.26.04q1.26 0 2.39.54 24.96 12.04 52.47 6.9c6.97-1.3 14.27-4.04 20.93-6.81q1.41-.59 2.93-.59l466.02.04v17.5l-640-.06z"/><path d="M0 208.25l640 .06v9.5l-640-.12z" fill="#fff"/><path d="M0 217.69l640 .12v17.5l-640-.12z"/><path d="M0 235.19l640 .12v39.5l-640-.12z" fill="#fff"/><path d="M0 274.69l640 .12v17.5l-640-.12z"/><path d="M0 292.19l640 .12v9.5l-640-.12z" fill="#fff"/><path d="M0 301.69l640 .12v17.5l-640-.12z"/><path d="M0 319.19l640 .12v39.5l-640-.12z" fill="#fff"/><path d="M0 358.69l640 .12v17.5l-640-.06z"/><path d="M0 376.25l640 .06v9.5l-640-.12z" fill="#fff"/><path d="M0 385.69l640 .12v17.5l-640-.12z"/><path d="M0 403.19l640 .12V426H0z" fill="#fff"/></svg>