<svg height="3641.973" viewBox="-66.785 0 1133.5800000000002 963.605" width="1000mm" xmlns="http://www.w3.org/2000/svg"><path d="M499.98 11.376c-90.16 0-180.327 60.448-248.728 181.286L69.967 512.846C-66.785 754.473 45.14 952.227 318.695 952.227h362.644c273.555 0 385.456-197.754 248.653-439.38L748.708 192.661C680.332 71.824 590.139 11.376 499.98 11.376z" fill="#006ab7"/><g fill="#fff"><path d="M499.98 0c-98.528 0-190.345 66.377-258.618 186.936L60.078 507.27C-8.806 628.997-18.842 744.09 31.97 831.247c49.745 85.33 151.595 132.358 286.724 132.358h362.644c135.128 0 236.927-47.029 286.724-132.358 50.762-87.157 40.754-202.25-28.181-323.977L758.67 186.936C690.344 66.377 598.457 0 499.98 0zm0 22.829c89.899 0 174.776 62.262 238.838 175.409l181.21 320.185c64.821 114.467 74.88 221.503 28.33 301.3C902.879 897.795 807.99 940.85 681.34 940.85H318.695c-126.65 0-221.56-43.056-267.094-121.128-46.548-79.797-36.44-186.833 28.33-301.3l181.21-320.185c64.062-113.147 148.89-175.41 238.839-175.41z"/><path d="M501.839 94.36c-106.599 0-193.256 86.732-193.256 193.331 0 106.549 86.731 193.256 193.33 193.256 26.092 0 51.392-5.12 75.25-15.169 7.367-3.15 10.826-11.75 7.732-19.11-3.15-7.411-11.69-10.826-19.108-7.733-20.255 8.576-41.69 12.94-63.874 12.94-90.558 0-164.257-73.625-164.257-164.184 0-90.61 73.7-164.257 164.257-164.257 89.29 0 159.891 70.893 164.257 164.852 1.295 27.666-6.194 76.774-31.529 91.088-15.38 8.677-37.15 3.859-64.765-14.574-6.648-4.46-15.684-2.675-20.15 4.016-4.418 6.648-2.677 15.682 4.014 20.15 37.411 24.973 69.442 30.282 95.178 15.765 39.748-22.487 47.774-84.636 46.252-117.784C690.19 178.927 605.29 94.36 501.839 94.36z"/><path d="M502.508 164.852c-63.402 0-114.883 53.388-114.883 118.973 0 65.584 51.481 118.899 114.883 118.899 42.639 0 81.572-24.145 101.573-63.131 3.698-7.109.861-15.851-6.247-19.557-7.151-3.655-15.975-.904-19.63 6.247-15.025 29.237-44.022 47.44-75.696 47.44-45.077 0-81.764-36.74-85.215-82.983 23.604-.05 185.375-.15 185.375-.15 4.015 0 7.899-1.615 10.633-4.608 2.532-2.634 3.942-6.235 3.942-9.89 0-.288-.025-.754-.076-1.042-4.316-61.829-54.71-110.198-114.66-110.198zm0 29.073c39.645 0 73.587 28.682 83.132 67.666H419.6c9.54-38.833 42.907-67.666 82.908-67.666zM182.918 701.344c-42.894 0-77.78 34.936-77.78 77.78 0 42.892 34.886 77.851 77.78 77.851 32.233 0 61.476-20.314 72.795-50.414 2.634-6.907-.857-14.714-7.807-17.252-6.907-2.633-14.663.901-17.251 7.808-7.468 19.746-26.621 33.015-47.737 33.015-28.122 0-51.01-22.888-51.01-51.008 0-28.123 22.888-51.01 51.01-51.01 20.558 0 38.973 12.275 46.993 31.155 2.893 6.806 10.724 10.03 17.474 7.138 6.85-2.85 10.12-10.74 7.213-17.548-12.23-28.884-40.36-47.515-71.68-47.515z"/><path d="M179.943 761.945c-9.075.462-16.285 7.978-16.285 17.179 0 9.495 7.68 17.25 17.177 17.25 9.548 0 17.252-7.754 17.252-17.25s-7.712-17.179-17.252-17.179c-.296 0-.6-.014-.892 0zM674.424 701.344c-42.894 0-77.78 34.936-77.78 77.78h-.073c0 42.892 34.959 77.851 77.853 77.851 32.183 0 61.425-20.314 72.795-50.414 2.59-6.907-.857-14.714-7.807-17.252-6.907-2.633-14.663.901-17.252 7.808-7.468 19.746-26.62 33.015-47.736 33.015-28.122 0-51.01-22.888-51.01-51.008 0-28.123 22.888-51.01 51.01-51.01 20.507 0 38.951 12.275 46.92 31.155 2.892 6.806 10.82 10.03 17.622 7.138 6.806-2.85 9.956-10.74 7.064-17.548-12.188-28.884-40.287-47.515-71.606-47.515z"/><path d="M671.45 761.945c-9.086.462-16.285 7.978-16.285 17.179 0 9.495 7.68 17.25 17.176 17.25 9.496 0 17.176-7.754 17.176-17.25s-7.679-17.179-17.176-17.179c-.296 0-.598-.014-.892 0zM311.928 705.36c-7.41 0-13.384 6.048-13.384 13.458V842.7a13.36 13.36 0 0 0 13.384 13.384c7.353 0 13.384-5.974 13.384-13.384v-123.88c0-7.411-6.031-13.458-13.384-13.458z"/><path d="M361.972 708.705c-19.784.29-52.565 12.545-61.94 58.893-1.44 7.209 3.306 14.292 10.558 15.763 7.252 1.468 14.236-3.232 15.764-10.484 7.713-38.426 35.198-37.655 38.294-37.401h1.784c27.564-1.295 31.988 29.752 32.495 34.575v71.904c0 7.367 5.973 13.385 13.384 13.385 7.367 0 13.385-6.018 13.385-13.385v-73.318l-.074-.594c-1.928-21.27-16.914-60.937-59.858-59.262-1.193-.081-2.474-.094-3.792-.075zM814.959 705.36c-7.41 0-13.458 6.048-13.458 13.458V842.7c0 7.41 6.047 13.384 13.458 13.384 7.367 0 13.31-5.974 13.31-13.384v-123.88c0-7.411-5.943-13.458-13.31-13.458z"/><path d="M874 704.69c-20.305.053-61.24 13.333-71.086 62.981-1.439 7.151 3.2 14.124 10.409 15.541 7.151 1.468 14.168-3.2 15.542-10.41 7.67-38.528 39.358-41.311 44.688-41.566 23.248 1.67 37.25 14.342 37.403 14.5 5.324 4.979 13.638 4.701 18.663-.594 4.978-5.28 4.87-13.516-.296-18.591-.863-.72-20.854-19.677-54.356-21.86h-.818zM507.34 677.774c-7.352 0-13.457 5.972-13.457 13.383v118.6c-.432 15.99 9.025 49.246 47.81 57.925 7.21 1.67 14.358-2.828 15.989-10.037 1.626-7.21-2.921-14.357-10.188-15.987-26.244-5.885-26.819-29.14-26.768-31.677V691.157a13.36 13.36 0 0 0-13.386-13.383z"/><path d="M469.566 723.726c-7.41 0-13.383 5.943-13.383 13.31 0 7.41 5.973 13.459 13.383 13.459h76.442c7.41 0 13.31-6.048 13.31-13.459 0-7.367-5.9-13.31-13.31-13.31z"/></g></svg>