<svg fill-rule="evenodd" height="440.999" viewBox="0 7.645 991.157 316.246" width="1000pt" xmlns="http://www.w3.org/2000/svg"><path d="m762.535 7.645-.983 313.008 224.697-20.61 4.908-262.962z" fill="#fff"/><path d="m0 264.025v9.059h8.817v24.481h10.133v-24.481h8.858v-9.06h-6.567zm72.423.299v33.241h25.175v-8.01h-15.04v-4.792h12.1v-8.012h-12.1v-4.341h14.37v-8.086h-3.283zm70.477-.299v33.54h23.553v-8.01h-13.763v-25.53zm68.146.299v33.241h25.174v-8.01h-15.04v-4.792h12.1v-8.012h-12.1v-4.341h14.373v-8.086h-3.286zm67.856-.299 3.203 9.854 7.6 23.686h9.791l3-9.876 7.153-23.664h-9.809l-5.23 21.494-4.905-21.494zm75.089 0v33.54h10.134v-33.54zm67.893-1.124c-1.797 0-3.396.242-4.795.724s-2.594 1.145-3.589 1.988-1.777 1.82-2.35 2.925a10.528 10.528 0 0 0 -1.104 3.49 14.083 14.083 0 0 0 -.142 1.924c0 1.989.435 3.656 1.307 5.003a9.907 9.907 0 0 0 3.416 3.241c.743.441 1.518.82 2.33 1.141.81.326 1.774.66 2.89 1.005 1.115.348 2.062.634 2.845.862.271.074 1.07.301 2.392.675 1.273.424 1.906 1.148 1.906 2.17 0 .664-.293 1.255-.88 1.775-.587.517-1.364.779-2.322.779-2.731 0-4.365-1.206-4.904-3.618h-9.506c0 2.652.647 4.859 1.946 6.62 1.296 1.758 3.013 3.045 5.147 3.86s4.466 1.224 6.993 1.224c2.283 0 4.454-.462 6.507-1.38 2.053-.92 3.723-2.265 5.007-4.028 1.284-1.766 1.926-3.811 1.926-6.135l-.022-.517c0-1.48-.27-2.794-.808-3.942-.542-1.148-1.314-2.146-2.313-3.009-1.92-1.658-4.703-2.887-8.351-3.687-3.96-.86-5.939-2-5.939-3.419 0-.21.026-.4.08-.565.245-.831 1.067-1.245 2.473-1.245 1.055 0 2.027.285 2.918.855.894.566 1.38 1.306 1.462 2.214h9.485c-.445-4.02-1.873-6.847-4.286-8.479-2.412-1.634-5.35-2.45-8.81-2.45zm59.317 1.124v33.54h10.137v-33.54zm71.067-1.124c-1.255 0-2.449.15-3.577.444s-2.226.711-3.295 1.253a15.35 15.35 0 0 0 -5.077 4.169 18.375 18.375 0 0 0 -3.08 5.78 21.067 21.067 0 0 0 -1.026 6.53c0 2.247.354 4.427 1.058 6.545a17.444 17.444 0 0 0 3.119 5.673c1.38 1.665 3.1 2.98 5.17 3.944 2.067.965 4.412 1.45 7.033 1.45s4.945-.486 6.971-1.459 3.714-2.288 5.06-3.943a17.106 17.106 0 0 0 3.007-5.586c.664-2.067.996-4.227.996-6.486v-.407c0-1.114-.1-2.229-.297-3.336a23.806 23.806 0 0 0 -.838-3.313 18.06 18.06 0 0 0 -3.162-5.728c-1.392-1.696-3.113-3.043-5.161-4.037-2.046-.994-4.347-1.493-6.9-1.493zm.325 8.759c.918 0 1.806.313 2.666.939.858.627 1.557 1.596 2.096 2.909.542 1.313.81 2.95.81 4.911 0 3.134-.481 5.568-1.447 7.295-.965 1.725-2.342 2.59-4.125 2.59-1.799 0-3.222-.828-4.279-2.478-1.051-1.653-1.579-3.991-1.579-7.024 0-2.008.26-3.699.78-5.079s1.218-2.402 2.097-3.066a4.817 4.817 0 0 1 2.981-.997zm60.7-7.635v33.54h9.466v-12.432l-.326-5.47 10.462 17.902h9.525v-33.54h-9.85v11.975l.325 5.517-10.462-17.493z" fill="#00a3d7"/><path d="m3.195 45.804v195.782h43.615v-152.165h.489l24.26 152.165h29.157l26.462-152.165h.492v152.165h43.616v-195.782h-70.08l-14.456 97.034h-.491l-14.212-97.034zm189.41 0v142.366c0 34.793 22.296 56.603 58.07 56.603 35.776 0 58.073-21.81 58.073-56.603v-142.366h-45.085v142.856c0 10.536 0 19.848-12.987 19.848s-12.988-9.312-12.988-19.848v-142.856z" fill="#00a3d7"/><path d="m387.158 42.621c-36.02 0-57.581 16.417-57.581 54.885 0 29.896 17.397 41.902 36.263 55.624 21.073 15.436 35.776 24.5 35.776 41.656 0 8.574-5.39 15.19-15.682 15.19-12.743 0-15.192-9.31-15.192-20.337v-14.457h-43.616v13.477c0 29.893 15.682 56.113 58.318 56.113 43.125 0 61.257-26.708 61.257-54.153 0-25.481-7.35-32.834-30.63-53.662-23.768-21.317-44.35-33.08-44.35-44.84 0-8.577 4.9-14.703 15.437-14.703 12.252 0 14.214 10.78 14.214 20.584v11.515h42.145v-17.64c0-30.139-17.153-49.252-56.359-49.252zm204.112 0c-33.57 0-58.073 18.377-58.073 56.6v88.948c0 34.793 22.297 56.603 58.073 56.603 35.775 0 58.072-21.81 58.072-56.603v-24.747h-45.082v28.669c0 5.143 0 17.884-12.99 17.884-12.985 0-12.985-12.74-12.985-17.884v-96.788c0-6.617 0-17.889 12.985-17.889 12.99 0 12.99 11.272 12.99 17.889v22.051h45.082v-18.133c0-38.223-24.504-56.6-58.072-56.6zm-79.634 3.186-45.088 58.293v137.487h45.088z" fill="#2c2c2b"/><path d="m868.83 41.402c-9.385.026-18.735 1.859-27.528 5.767-27.272 12.128-44.84 40.218-52.566 68.647-8.466 31.133-8.038 64.764 1.008 95.707 8.16 27.903 25.057 54.962 51.132 68.646 21.425 11.245 47.226 10.384 68.814-.582 4.928-2.503 7.425-9.316 5.525-15.216-1.909-5.935-7.431-8.82-12.395-6.389-17.618 8.644-37.271 8.935-54.283-.325-20.627-11.228-34.388-32.648-40.904-55.098-7.25-24.98-7.642-52.03-.853-77.195 6.2-22.991 20.494-44.985 42.084-55.157 17.917-8.442 39.008-6.013 57.113 5.474 19.726 12.515 33.77 32.77 40.933 55.053 7.348 22.872 7.904 47.728.851 70.703-4.219 13.753-8.853 18.933-16.469 19.625-4.33.396-8.909-1.503-11.997-5.595.196-.314.359-.671.555-.98 1.8-2.786 3.64-5.726 5.16-8.9 2.646-5.501 1.03-12.592-3.55-15.858-4.597-3.274-10.456-1.502-13.084 3.997-9.506 19.882-28.212 28.5-44.52 19.536-12.73-7.002-22.71-27.864-23.282-41.04-.002-.084.003-.286-.03-.41.014 0 .018-.003.03-.003v.413c24.597.752 49.19 1.516 73.789 2.254 7.52.213 11.28.326 18.801.54.067-.353.132-.785.132-1.255.592-7.316.194-14.618-.954-21.7-3.818-23.53-16.436-44.734-34.028-55.544-13.471-8.277-28.352-9.7-41.818-3.464-14.447 6.684-26.04 21.925-31.698 41.67-5.592 19.523-4.8 41.126.855 59.395 5.673 18.325 16.37 33.559 30.577 41.203 16.001 8.61 33.878 4.373 47.737-3.993.29-.177.592-.371.892-.573 7.333 10.038 18.674 13.349 29.127 11.967 15.193-2.008 27.51-16.312 31.8-33.393 7.525-29.968 7.125-55.811-.987-85.664-7.257-26.686-26.722-52.646-51.163-68.575-13.426-8.753-29.165-13.73-44.806-13.688zm5.172 71.726c5.616-.328 11.32 1.151 16.655 4.361 10.733 6.46 18.705 19.082 22.026 33.712 0 0-17.06-.773-34.489-1.566-14.611-.663-21.916-.997-36.53-1.66.364-1.23.752-2.59 1.214-4.016 4.289-13.193 11.591-23.73 21.21-28.271 3.206-1.514 6.545-2.363 9.914-2.56z" fill="#2c2c2b"/><g stroke="#2c2c2b"><path d="m766.408 15.636-72.611 30.408 1.097 260.107 71.89 17.74z" fill="#2c2c2b" stroke-width="4.482373"/><path d="m764.628 9.627-70.831 36.417 1.097 260.107 72.177 15.154 222.659-17.365.875-268.926z" fill="none" stroke-width="18.739244"/></g></svg>