<svg height="2500" width="2500" xmlns="http://www.w3.org/2000/svg" viewBox="0 0 297.639 297.638"><circle cx="148.819" cy="148.818" r="141.732"/><g fill="#fff"><path d="M134.646 0h28.346v297.638h-28.346z"/><path d="M0 134.646h297.639v28.346H0z"/><circle cx="148.819" cy="148.818" r="113.386"/></g><circle cx="148.819" cy="148.818" fill="#1a1a1a" r="99.213"/><path d="M223.611 103.079c-3.052-1.505-8.426-2.26-16.125-2.26H95.705l-3.485 17.25h104.03c3.194 0 5.292.104 6.291.305 2.297.611 3.445 2.037 3.445 4.275 0 1.223-.256 3.105-.767 5.648l-1.346 6.902c-1.013 4.586-2.428 7.479-4.247 8.674-1.314.897-4.348 1.346-9.098 1.346h-26.387l3.755-16.95h-20.243l-10.902 51.3H99.634l4.527-22.201h26.18l3.612-17.25h-25.95l2.299-11.85H90.068l-14.615 68.55h77.876l7.301-34.35h33.712c9.633 0 16.28-1.299 19.941-3.9 3.66-2.6 6.396-8.1 8.203-16.5l4.5-20.775c.799-3.813 1.199-6.874 1.199-9.183.001-4.516-1.525-7.527-4.574-9.031z" fill="#fff"/></svg>