<svg height="800pt" viewBox="0 0 800 800" width="800pt" xmlns="http://www.w3.org/2000/svg"><path d="M0 400v400h800V0H0zm147-75.5c8 .8 16 1.8 17.8 2.1l3.3.5-.3 9.7-.3 9.7-14.2-.4-14.3-.4V385h21v19.9l-5.7.6c-3.2.3-7.8.9-10.3 1.3l-4.5.7-.3 19.8c-.1 10.8-.1 19.7.1 19.7.3 0 5.9-1.1 12.7-2.5s12.9-2.5 13.6-2.5c1.1 0 1.4 2.2 1.4 9.9v9.9l-8.7 2.1c-8.9 2.2-29.7 8-32 8.8-1 .4-1.3-15-1.3-75.2v-75.7l3.8.6c2 .3 10.2 1.3 18.2 2.1zm529 73.1v75.6l-3.1-.7c-1.7-.4-5.4-1.4-8.2-2.4l-5.2-1.6-3.2-15c-8.2-37.2-16.7-73.5-17.2-73.5-.3 0-.5 18.7-.3 41.5.2 29.1-.1 41.5-.8 41.5-.6 0-3.9-.7-7.4-1.6l-6.3-1.6-.6-20.1c-.4-11.1-.7-40.8-.7-66 0-35.7.3-45.9 1.3-46.2.6-.2 4.5-.6 8.6-.7l7.4-.3 2.3 10c1.3 5.5 5.6 25.5 9.6 44.5 3.9 19 7.5 34.9 7.8 35.3.4.4.6-20.3.6-46l-.1-46.8 4.5-.6c2.5-.3 6-.7 7.8-.7l3.2-.2zm-481.6-68.2c12.1 1.3 14.4 1.8 18.5 4.3 5.8 3.6 10.6 10.7 12.1 18 .8 3.4 1.1 11.2.8 19.7-.4 16-1.7 20.2-8.4 27.5-5 5.6-10.1 8-17.9 8.8l-6.5.6V456l-2.7.6c-1.6.3-4.4 1-6.3 1.5s-4.1.9-4.7.9c-1 0-1.3-13.8-1.3-65.5s.3-65.5 1.3-65.5c.6 0 7.4.7 15.1 1.4zm418.6 9.1v9.5l-2.7.1c-1.6.1-7.9.4-14.2.8l-11.3.6.1 16c.1 8.7.4 16.2.7 16.5s4.8.7 10 .8l9.4.4v19l-10-.7-10-.7v16.6c0 10.5.4 16.6 1 16.6 1.4 0 20.9 2.9 24.3 3.6l2.7.6v19.1l-3.2-.6c-30.6-5.3-39.3-6.9-39.5-7-.1-.1-.5-26.7-.9-59l-.7-58.7 3.4-.1c1.9 0 9.5-.6 16.9-1.3 7.4-.8 15.9-1.4 18.8-1.5l5.2-.1zM251.5 334c2 0 2 .6 1.7 55.7-.2 30.7-.7 56.1-1 56.5-.4.3-3.7.9-7.4 1.3l-6.8.7v-46.9c0-25.9.3-51.8.7-57.8l.6-10.7 5.1.6c2.8.3 6 .6 7.1.6zm307.3 7.7l-.3 8.8-13.7.3-13.8.3V380.8l10 .7 10 .7v17l-10-.7-10-.7v30l5.3.6c2.8.3 8.1.8 11.7 1.1 11.8 1.1 11 .3 11 10 0 4.7-.2 8.5-.4 8.5-2.2 0-42-5.1-42.4-5.4-.2-.3-.5-24.5-.5-53.8l-.2-53.3 17.5-1.1c9.6-.6 19.4-1.1 21.8-1.2l4.3-.2zm-258.3-4.3c5.5 2.5 11 8.1 13.1 13.2.8 2 1.4 7 1.4 12.4v9h-15v-7.4c0-6.6-.3-7.8-2.6-10.5-1.9-2.3-3.4-3.1-5.9-3.1-9.3 0-9.5.6-9.5 39 0 18.7.4 32.9 1 33.9 3 5.7 12.8 4.2 15.5-2.3.9-2.1 1.5-6.7 1.5-11.1V403h15.2l-.4 10.7c-.4 12.1-1.6 15.8-7.4 21.7-5.4 5.6-10.8 7.9-18.5 8-8.9.1-15.1-3.5-19.2-11.4l-2.8-5.4.3-37.1c.3-35.7.4-37.1 2.5-41 6.5-12.1 19-16.6 30.8-11.1zm59.6.7c5.5 1.7 10.8 6.5 13.5 12.3s3 9.1 1 9.9c-.8.3-4.1.9-7.4 1.3l-5.9.6-.7-3.4c-1.4-7.6-9.7-10.8-14.3-5.4-1.7 2.1-2.3 3.9-2.3 7.7 0 6.5 2.8 12 9.3 17.8 16.4 14.7 22.2 22.7 23.3 32.7 1.5 12.2-5.8 23.7-17 26.9-16.9 4.9-30.5-4-33.1-21.6l-.7-4.6 3.9-.6c2.1-.4 5.4-.7 7.4-.7 3.5 0 3.7.2 4.3 4.1.5 2.8 1.8 5.3 4 7.5 4.5 4.5 7.7 4.5 12.2 0 2.7-2.7 3.4-4.2 3.4-7.4 0-2.3-.5-5.3-1.1-6.9-.6-1.5-6.8-8.4-13.8-15.3-15.9-15.6-17.6-18.7-17.6-31.5 0-9.7 1.7-14.6 6.7-19.2 5.3-5 16.1-6.8 24.9-4.2zm65 2c4.8 2.4 10.7 9.3 12 14.1.5 2.1.9 7.1.7 11.1l-.3 7.2h-15l-.5-7.6c-.6-8.5-2.2-11.3-7-12.4-3.2-.7-8.4 1.5-9.4 4-.3.9-.6 15.2-.6 31.8.1 22.2.4 30.6 1.3 31.8 3.4 4.4 9.1 4.7 13.5.7 1.9-1.9 2.2-3.1 2.2-10.5V402h16v9.5c0 5.9-.5 10.8-1.4 12.9-3.9 9.3-13.7 15.2-24.1 14.4-9.5-.8-16.5-5.2-20.8-13.3-2.1-3.8-2.2-5.5-2.5-33.8-.4-32.4.2-37.7 4.5-44 3-4.3 9.8-8.7 15.2-9.8 4.9-.9 11.8 0 16.2 2.2zm57.9-2c6 1.3 10.2 4.6 13.3 10.3 2 3.7 2.2 5.5 2.2 20.1 0 16.9-.6 19.6-5.7 25.1-1.9 2.2-1.9 2.3 3.6 23.7 3.1 11.8 5.6 22.2 5.6 23.1 0 1.4-1.1 1.5-7.7.9-4.3-.3-8-.7-8.2-.9s-2.4-9-5-19.6l-4.6-19.3-5.3-.3-5.2-.3V439h-15V338.1l9.3-.4c5-.1 11.1-.4 13.4-.5s6.5.3 9.3.9z"/><path d="M193 368.9c0 11 .3 20.2.8 20.4.4.2 3.4.1 6.6-.3 4.7-.5 6.4-1.2 8.2-3.4 2.3-2.6 2.4-3.4 2.4-16.7v-14.1l-2.9-2.9c-2.6-2.6-3.6-2.9-9-2.9H193zM466 369.4V386h6.1c5.4 0 6.4-.3 9-2.9 2.9-2.9 2.9-3.1 2.9-13.9 0-14.3-.8-15.5-10.9-16l-7.1-.4z"/></svg>