<svg viewBox="0 -0.8 725.8 538.1" xmlns="http://www.w3.org/2000/svg" width="2500" height="1856"><path d="M550.1 175.5c-.4.7 0 1.2.6 1.5.5.3.7.6.4 1.2-.2.3.1.6.4.7.4.2.8.5 1.2.7.4.3 1 .5.9 1-.1.7-.8.6-1.4.7-.9.1-1.7.4-2.4 1-.3.3-.7.6-.4 1 .7.9-.1 1-.7 1.3 0 0-.1.1-.1.2.4.5 1 .3 1.5.4.2.1.5.1.5.4 0 .4-.3.4-.6.5-.6.2-.6.6-.3 1.1.4.6 1 .8 1.5 1.1.4.2 1 .4.8 1s-.1 1.5-1.1 1.7c-.4.1-.8.3-1.1.4s-.6.3-.7.6c1.4.6 1.4.6 1.4 1.7s-.3 2-1.3 2.7c.6.8 1.4.6 2 .8.8.2 1.6 1.1 1.7 1.8 0 .6-1 1.5-1.6 1.4-.2 0-.4-.2-.7-.2-.1 0-.3 0-.6.1.3.8 1.1 1.1 1.5 1.8.3.6.7 1.1-.3 1.5-.6.2-.1.9-.5 1.2s-1.2-.1-1.2.8c0 .6.6.7.9.9s.3.6.2.9c-.3.8-.2 1.3.7 1.7.4.2.1.6-.1.8-.4.3-.8.5-1.3.4-.8-.2-1.4.2-2.1.4-.3.1-.6.4-.5.7s.5.3.8.4c.4.2.8-.1 1.1-.1 1.5-.3 2.9-1.2 4.5-1.2.3 0 .6-.2.8-.5.6-1.5 1.5-3 .9-4.8-.2-.6-.2-1.5 0-2.1.2-.9.8-1.7-.2-2.6-.2-.2-.1-.6 0-.9.6-1 .5-2.1.4-3.2s.3-1.3 1.5-1.2c1 0 1.5.4 1.5 1.4 0 .4.3.7.7.9.1.1.3.1.4.2.7.5.1 1.5.8 1.9.6.3 1.1.6 1.6 1 .2.2.3.6.3.9.2 1.2-.3 2.2-.9 3.1-.3.4-.7.6-.8 1.1.1.6.7.7 1 1 .2.3.4.6.2.9-.6.8-.2 1.5-.1 2.2.2.9-.8 1.6-.5 2.5.2.8.6 1.4.6 2.3 0 .6 0 1.1-.4 1.6-.5.6.3 1.2 0 1.8-.4.7.1 1 .4 1.5.3.4.5.9.3 1.3-.4.9-.2 1.7-.1 2.6.2 1 .2 2-.1 3.1-.3.9 0 2-.4 2.8-.4.9-.4 1.5-.1 2.4.4 1 .2 2.2.3 3.3 0 .4-.3.7-.6.9-.8.5.1 1.5-.6 2.1 0 0 0 .1.1.2.8 1.5.8 1.5.4 3.3-.3 1-.1 1.9.4 2.9.2.4.4.5.9.6 1.1.3 1.1.3 1.8 1.6-.3.3-.7.2-1.1.3-.4 0-.8.2-1 .6-.3.7-.5 1.3-1 1.9-.1.1-.1.3 0 .4 1.1 1.3-.3 1.5-.8 2.2-.2.2.4.6.7.8.4.3.5.6.4 1-.7 1.8-.4 3.8-.8 5.6-.1.6 0 1.1.2 1.6.3.8.6 1.6.4 2.5-.1.6.3 1 .9 1.2.3.1.3.4.2.6-.1.3-.4.5-.8.3-.6-.4-1.1-.8-1.7-1.3-1.4 1.1-1.6 1.8-1.1 2.9.3.6.8 1 1.4 1.2s1-.6 1.6-.4c.2.6-.7 1-.3 1.7.3.5.2 1.1-.1 1.6-.4.6-.4 1.2-.4 1.8 0 1-.2 1.1-1.2 1.3h-.7c-.1.5.5.7.5 1 .1.9 1.8.9 1.1 2.3-.4.8.2 1.7-.2 2.7-.6 1.6-.6 3.4-.9 5.1v.2c.3 2.3.3 2.7-.3 4.4-.1.5-.4 1 0 1.4.7.8-.2 1.3-.2 1.9 0 .1-.3.2-.4.2s-.3-.2-.3-.2c.3-.7-.4-1.2-.4-1.8.1-1-.5-1.4-1.2-1.8-.4.2-.3.5-.1.8.4.6.4 1.2.4 1.8 0 1.2 0 1.2-1.3 1.7-.5.2-.6.6-.3.9.6.6 1 1.7 2.3 1.3.3-.1.5.3.7.6.5 1.2.1 2.2-.7 3.1-.2.3-.6.2-.8-.1-1-.9-2.3-1-3.4-1.6-.1-.1-.5.1-.6.2-.2.2-.2.4-.1.6.4.6.8 1.4 1.5 1.5 1.3.1 1.1 1.1 1.4 1.9.2-.1.4-.2.5-.2.1-.1.3-.2.4-.1.2.1.4.3.2.5-.2.3-.5.5-.3.8 1.1 1.8-.2 3.4-.6 5-.3 1.6-1.5 3-1.2 4.7 0 .1 0 .4-.1.4-1.1.8-.8 2.2-1.4 3.2-1.1 1.6-1.5 3.3-2.2 5-.6 1.5-1.4 2.9-2.4 4-.8.9-1.3 2-1.8 3.1-.2.5-.3.9-.2 1.4.2 1.5.3 3 1 4.4.3.5.2.9-.1 1.3-.4.7-.8 1.4-1.3 2-.3.4-.3 1.2-1 1.2-.6 0-1.5 0-1.8-.4-1-1.1-2.4-.6-3.5-1.3-.4-.3-.8-.1-1 .3 0 .1-.1.1-.1.2-.4 1-1.5.8-2.2 1.3s-.2 1.6-1 2.1c-.5.3-1 .9-1.6 1-1.3.3-2.2 1-3.2 1.8-.6.5-1.3.6-2 .5-.5-.1-.9-.3-1.4-.1-1.3.5-2.5.2-3.7-.1-.9-.2-1.9-.1-2.5-1.1 0-.1-.1-.1-.2-.1-1.9-.2-2.4-1.8-3.1-3.1-.5-.8-1.2-.9-1.6 0-.6 1.2-1.5 2.2-2.5 3.1-1.2 1-1.7 2.3-1.3 3.9.2.9.4 1.9-.2 2.7-.3.4-.2.7.1 1.1.5.7.7 1.6 1.5 2.1.4.2.6.7.9 1.1.6.8.6 1.6-.1 2.4-.7.7-1.5 1.4-2.1 2.3-.5.8-1.4.7-2.2.5-1.1-.3-2.1-.2-3 .4-.3.2-.7.4-.7.6-.2 1.1-1 1.1-1.8 1.2-.7.1-1.4.3-2.1.3-1.7 0-3.3.2-5 .4-.9.1-1.9 0-2.9 0-.7 0-1.5 0-2.1.1-.9.2-1.7.4-2.4-.4-.3-.4-.9-.4-1.3-.4-1.6.1-3.1.2-4.4 1.5-.3.3-.9.3-1.3.4-3 .7-6 1-9 1.1-1.7.1-3.3.4-5 .8-1.3.3-2.5.5-3.8.5-2.2 0-4.4.3-6.6.8-1.5.3-3 .2-4.5.7-.2.1-.5 0-.7 0-1.6-.1-2.3 0-3.9.7-1.1.5-2.3.6-3.5.7-2.2.1-4.4.9-6.6.8-.6 0-1.1.3-1.5.8-.3.4-.6.8-1 1.1-.6.5-1.3.9-2.2.7-.6-.1-1.3-.2-1.9-.3-1.3-.3-2.5 0-3.5.9-.6.5-1.1.9-1.7 0-.4-.5-1.2-.4-1.8-.3-1.1.2-2.1.1-3.1 0-.3 0-.7-.2-.9 0-.9.7-2.3.4-3.1 1-1.6 1-3.4.8-5.1 1.1-.7.1-1.4 0-2 .5-.2.2-.6.2-.9.1-1.3-.5-2.7-.1-3.9-.9-.3-.2-.7 0-.7.4.1 1.6-1.2 2.1-2.3 2.7-.7.4-1.5.6-2.3.6-1.3 0-2.3.3-3.5.8-.5.2-1 .5-1.6.5-1.2.1-1.6 1.2-2.5 1.6-.1 0-.1.3-.1.4.1.2.3.4.5.5.3.1.6 0 .9-.1.4-.1.8-.2 1.1-.3.3 0 .6.1.8.4.1.2-.3.8-.7.8-1.1 0-2.2.1-3.3.3-.9.1-1.7.2-2.4.8s-1.8.6-2.7.7c-2.4.3-4.8.5-7 1.4-.6.3-1.2.2-1.6-.3-.5-.6-.7-.2-1.1.2-.1.2-.4.2-.6.3-.4.1-.8-.2-.7-.7 0-.2.2-.4.2-.7.1-.3 0-.7-.4-.7s-.8.2-.9.6c0 .4.1.8.2 1.2.2.6-.1 1.1-.5 1.5-.6.5-1.3.7-2 .7s-1.2-.3-1.5-.9c.4-.9 1.5-.7 1.8-1.6-.8-.1-1.6-.2-2.3-.4-1.4-.5-2.4.1-3.4 1.1-.1.1-.1.3-.1.4s.2.2.3.3c.6 0 1.3-.4 1.9 0 .2.2.5.4.6.7s-.2.6-.5.7c-.4.2-.8.4-1.1.4-1.2-.1-2.3.5-3.5.6-.4 0-.8.2-1.1.3-1.2.4-2.2 1.4-3.6.9-.8.8-1.8.4-2.7.5-.7.1-1.4.2-2 .6-1.1.6-2.3 1-3.4 1-1.7 0-3.2.3-4.6 1-1.5.7-2.9.7-4.3 0 0-.2 0-.5.3-.5 1.7.1 2.9-.9 4.2-1.8.8-.6 1.1-1.2.8-2.2-.7.3-1.6.2-1.9.9-.3.8-.9.8-1.5.9s-1.2.3-1.9.4c-.5.1-.9.3-1.3.6-.4.4-.4.9.1 1.2.4.2.8.4 1.3.6.2.2.3.4.1.6-.3.4-.5.7 0 1.2.6.6.5.9-.1 1.2-.4.2-.9.5-1.3.1-.5-.5-1.2-.4-1.7-.7-.8-.5-1.4-.5-2.1.1-.4.4-.9.3-1.4.2-.9-.4-2.1.1-2.9-.9-.1-.1-.5-.1-.6 0-.8.9-2 1-3 1.3-.9.2-1.6.6-2.1 1.5-.3.7-1 .9-1.7 1.2-1.5.6-3.1.5-4.7.5-.2 0-.4-.1-.6-.3s-.1-.7-.5-.7c-.6-.1-1.1.2-1.5.6-.9.6-.9.6-1.6-.1s-1.3-.9-1.9-.4c-.7.6-1.3 1.1-2.2 1.2-.2 0-.3.3-.5.5s-.3.5-.5.5c-2-.1-3.6 1.2-5.6 1.1-.8 0-1.5-.2-2.1-.9-.9-1-1-1-2.2-.3-.5.3-.8.4-1.2-.2s-.8-.5-1.4-.4c-2 .5-4 .9-6 1.2-.5.1-1.1 0-1.2-.5-.1-1-.6-1.2-1.4-1.1h-.2c-1.1-.8-2.5-.9-3.7-1.4-.1 0-.1-.1-.2-.2 1-.6 2.2-.4 3.3-.4.8 0 1.6-.1 2.3-.4.1 0 .2-.3.2-.4s-.1-.3-.3-.3c-1.1-.3-2.2-.1-3.3-.6-.3-.1-.8.1-1.1.3-1.6 1.2-3.3 1.1-5 .6-.2-.1-.5-.1-.7-.2-.2 0-.5 0-.5.3 0 .1.2.3.3.3.4.1.8.2 1.1.3s.3.6.1.8c-.6.4-1.2.8-2 .8-.3 0-.7 0-.8.3-.4 1.3-1.2 1-2.1.7-.8-.3-.9-.4-1.1-1.4-.1-.7.3-1 .9-1.2s1.1-.7 1.5-1.1c.1-.6-.4-.3-.6-.4-.3-.1-.7-.2-.8-.4-.7-1.1-1.6-.7-2.6-.6-.3 0-.6.2-.8.4-.2.3 0 .6.2.8.2.3.3.5 0 .8l-1.5 1.5c-.5.6-1.2.8-1.9.9-1.1.2-1.3 0-1.1-1.3.1-.4-.1-.7-.3-.8-1.1 0-2.4-.6-3.4.6-.4.5-.9.5-1.5.5-2.1-.1-4.1-.2-6.1-.5-.6-.1-1.2-.3-1.6-.9-.7-1-1.6-1.4-2.9-1.2s-2.5-.2-3.8-.5c-.5-.1-1-.4-1.6-.4-.3 0-.7 0-.9-.3-1.2-1.7-3-1.6-4.7-1.6-.4 0-.8.1-1.2 0-.6 0-1.1-.2-1.2-.9 0-.8-.6-.8-1.2-.8-.2 0-.3 0-.5.1-1.5.7-3 .4-4.4-.3-.7-.4-1.4-.3-2.1-.1-.5.1-.9 0-1-.6-.1-.5-.5-.6-.9-.5-.7 0-1.4 0-2.1.1-1 .2-1.7 0-2.4-.8-.3-.3-.6-.5-.9-.8-1-.9-2.1-1.4-3.5-1.3-1.4 0-2.9-.2-4.3.1-1 .2-1.8-.1-2.2-1.3-.3-.8-.8-1.5-1-2.4-1-.5-1.5-1.7-2.6-2-1.5-.4-2.3-1.4-2.8-2.7s-1.5-2.4-1.5-4c0-.6-.6-.9-1-1.3-.6-.4-.8-.9-1-1.5-.7-2.7-1-5.3.2-8 .3-.6.4-1.2.6-1.8.5-1.3.4-2.4-.6-3.6-.7-.8-1-1.8-1.5-2.7-.1-.2-.2-.5-.1-.7.6-.9-.2-1.9 0-2.8.2-.8-.1-1.4-.6-2s-.6-1.2-.6-2c.1-1 .1-1.9.1-2.9 0-.4 0-.8.3-1.1.7-.7.5-1.7.7-2.5.2-.5 0-.9-.4-1.3-.8-.9-1.7-1.8-2.8-2.2-1.8-.7-2.9-2.1-4.4-3.2-.7-.5-1.3-1.2-2.1-1.5-.5-.2-1-.6-1.4-.9-1.2-1.1-2.3-2.2-2.2-4 0-.9-.3-1.7-.4-2.6-.1-1.3-.4-2.5-1.2-3.6-.4-.5-.8-1.1-.7-1.7 0-1.2.1-2.4-.8-3.3.1-1.1-.6-1.4-1.3-2s-1.2-1.7-1.3-2.8c-.2-1.9-1-3.5-2.4-4.8-1.1-1-1.5-2.2-1.4-3.7.1-1.7 0-3.5.8-5.2.4-1 .4-2.2 0-3.3-.7-1.7-.8-3.4-.8-5.2 0-1.4.1-2.9.5-4.2.6-2.1.5-4.3.7-6.4 0-.7 0-1.4.2-2.1 0-.1.1-.2 0-.2-.2-2.8.5-5.5.3-8.3 0-.4-.1-.8 0-1.2.7-2.8.6-5.7 1-8.5.2-1.5.6-3 .6-4.5.1-1.5.3-3 .7-4.4.3-1.1.3-2.3.3-3.5.1-3.4.9-6.8 1.3-10.1.2-1.5.6-3 .5-4.5v-.2c1-2.2.4-4.7.8-7 .3-1.8.4-3.6.6-5.5.2-2.9.4-5.9.6-8.8.2-2.3.5-4.6.4-6.9.8-3.2.4-6.5 1-9.7.3-1.5.2-3.2.7-4.7 0-.1.1-.3 0-.5-.3-2 .4-3.9.7-5.9 0-.2.2-.5.2-.7-.2-3.9.9-7.7 1.2-11.6 0-.1.1-.2 0-.2-.4-1.9.4-3.6.7-5.4.1-.7.3-1.4.3-2.1.1-2.8.7-5.5 1.2-8.3.2-1.3.2-2.5.5-3.8.4-2.3.8-4.7.8-7.1 0-1.9.4-3.8.8-5.6.1-.6.2-1.1.5-1.6.5-.9.8-1.7.6-2.7-.1-.3 0-.7.1-.9.8-1.5.3-3.3 1-4.9.2-.4 0-.9.1-1.4 0-.6-.1-1.2.1-1.7 1-1.8.9-3.8 1.6-5.7.5-1.5.8-3.1 1.2-4.6.3-1.2 1.1-2.2 1.3-3.5.6-3.1 1.9-6.1 2.9-9.1 1.3-4.2 2.7-8.3 4.5-12.3.6-1.2 1-2.5 2.1-3.4.2-.1.4-.4.4-.6-.3-1.6 1.2-2.1 1.8-3.2s1.3-2.2 2.1-3.2c.6-.8 1.1-1.6 1.5-2.4 1.1-2.7 3-4.8 5.3-6.7 1.5-1.2 2.6-2.7 3.7-4.3.3-.5.6-1 1-1.3.8-.8 1.4-1.8 1.6-2.9.4-1.9 2-2.8 3-4.2.2-.3.6-.2.9-.2.3.1.6 0 .9-.3.1-.1.1-.3.1-.4s-.3-.3-.3-.2c-1.2.9-2.6.7-3.9.5-1.2-.2-2.4.5-3.5-.2-1.1.3-2.2.5-3.3.3-.7-.1-.9.6-1.2 1-.5.5-.9.7-1.7.3-1.5-.7-3.1-.6-4.5.2-1.5.8-3 1-4.6.9-.2 0-.5-.1-.6-.2-.2-.4.2-.5.4-.7l1.8-1.2c.5-.4 1.1-.7 1.8-.6s1.4-.2 2.1-.4c.5-.2 1.1-.4 1.6-.2 1.4.7 2-.3 2.6-1.3-.9-.8-2-.7-2.9-1.4-.2-.2-.5 0-.6.1-.7.6-1.4.6-2.2.2-.4-.2-.9-.1-1.4-.1-.2 0-.5.1-.5.4.3 1.1-.4 1.4-1.3 1.6l-1.2.3c-1.1.2-1.6.9-1.7 2 0 .3-.1.6-.1.9 0 .5-.3.7-.7.8-1.3.2-2.7 0-4 .4-.3.1-.7-.2-.6-.6.1-.6.2-1.3.4-1.9.1-.3.5-.7.7-.5 1 .5 1.4-.3 1.9-.8.4-.4.9-.3 1.4-.4.3 0 .4-.3.4-.5s-.2-.4-.4-.6c-.4-.2-.8-.1-1.2-.1-2.4.3-4.8.5-7.1.8-.5.1-1.1.3-1.6.4-.9.2-1.8.3-2.8.1-1.3-.2-2.7-.3-4 .1-2.2.6-4.4.6-6.6.8-.8.1-1.5.1-2.7.2 1.5-1.1 2.8-1.9 4.3-2 1.9 0 3.7-.7 5.6-.9 1.3-.2 2.6-.7 3.9-1.2-.6-.9-1.6-.1-2-.7-.6-.8-.9-.6-1.3.1-.5.9-1.4 1.2-2.3.8s-1.6-.2-2.5.1-1.8.6-2.8.5c-1.3-.1-2.5.6-3.8.7-2.4.2-4.9.3-7.3.7-1.5-.7-2.7.5-4 .8-.9.2-1.7.4-2.5.1-1-.4-2-.3-3 .1-1.9.7-3.7 1.3-5.8 1.2-1 0-2 .5-3 .9-.7.3-1.3.6-2 .2-.4-.2-.8 0-1.1.1-1.5.6-3 1.2-4.6 1h-.2c-2.6 1.3-5.7.7-8.3 2.1-.3.1-.6.1-.9.2-.3 0-.5-.2-.5-.4-.1-.3 0-.6 0-1 0-.5.2-.9.8-1 .3 0 .7.1.9-.1 1.5-.9 3.2-.9 4.8-.9.6 0 1.1-.3 1.6-.5.5-.3 1-.5 1.5-.7s.9 0 1.1.6c0 .1.2.2.3.4.8-.9 2.2.3 3-.9.5-.9 1.8-.8 2.6-.9 2-.4 3.9-1.3 6-1.4 1.2 0 2.3-.5 3.5-.3.3.1.7 0 .9-.2 1.6-1.1 3.5-1 5.2-1.7.3-.1.6-.2.9-.1 2.6.3 5-.7 7.5-1.1 2.4-.3 4.8-1.2 7.3-1.4.9-.1 1.9-.2 2.8-.7.5-.3 1.3-.5 1.9-.4 1.3.2 2.5-.1 3.7-.3 1.3-.1 2.4-.7 3.6-1.2.6-.3.4-.6.2-1.1 0-.1.1-.3.3-.3.1 0 .3 0 .4.1 1.1 1.4 1.4 1.5 2.7.3 1.9-1.7 4.3-2.4 6.7-2.9.8-.2 1.7.6 2.7.5.1 0 .3.4.3.6.2.9 0 1.7-.7 2.4-.4.5-.2 1.1.3 1.4s1 .3 1.4-.3c.3-.4.5-.8.9-1.1.3-.2.9-.2.8-.8-.1-.3-.4-.5-.6-.7s0-.4.2-.5c.1 0 .3 0 .4.1.3.2.1.6.2.9.1.2.3.4.5.4.3 0 .6-.1.6-.5 0-.1-.1-.3 0-.4s.3-.2.4-.2.4.2.3.2c-.2 1.3.6 1.6 1.6 1.8.3.1.6-.2.5-.5l-.3-.6c-.3-.4-.2-.7.2-1 .5-.4.9-.9 1.6-.8.6 0 .8-.5.9-1 .2-.6-.1-1-.7-.9-.5.1-.9.2-1.4.3-.4-.3-.2-.7-.2-1.1 0-.5-.3-.9-.8-1-.8-.1-1.6-.3-2.4.1-1 .5-2.2.6-3.3.7-1 .1-1.9.1-2.8.5-.5.2-1 .4-1.4.1-1-.7-1.8-.1-2.7.3-.3.1-.6.4-.9.3-2.7-.4-5 1.3-7.7 1.4-1.7.1-3.3.8-5 .4-.4-.1-1 .1-1.4.3-2.2 1-4.5 1.5-6.9 1.5-.3 0-.7.1-.9.2-.9.5-1.9.7-3 .5-.5-.1-.9.2-1.3.4-1.4.7-2.9.7-4.3-.1-.9-.5-1.3-.5-1.8.4-.4.7-.7.7-1.3.7-1-.1-1.9 0-2.9.7-1.4.9-3.1.9-4.6.5-1.2-.3-2.1-.1-3.1.7-.8.6-1.8 1-2.9 1.1-.6 0-1.3.1-1.8-.3-.6-.5-1.2-.3-1.8-.3-.3 0-.6 0-.8.4-.4 1.1-1.3 1.3-2.3 1.4-2.5.3-4.9.8-7.2 1.5-.5.2-1.1.3-1.6.3-1.2 0-2.4.1-3.5.6-.4.2-.9.4-1.1.2-1.7-.8-3.1.3-4.5.9-.9.4-1.6.6-2.5 0-.8-.5-1.3.2-1.9.6-.3.2-.6.1-.8-.2-.1-.2-.1-.5 0-.6.2-.4.6-.8 1-1.3-2.1-.1-3.9-.1-5.6.6-.3.1-.5.3-.8.6-.1.2-.3.4-.3.6 0 .3.3.4.5.4.8.1 1.6 0 2.4-.1.5-.1.9 0 1.4.5-.6.6-1.5.4-2.1.8-.7.5-1.4.6-2.2.6-.9 0-1.9.4-2.8.6-1.4.4-2.8.8-4.1 1.2-.2 0-.3.1-.5.1-1.3.5-2.8-.2-4.2.6-1.2.7-2.7.9-4.1 1.2s-2.8.5-4.2.8c-.4.1-.8.2-1.1.4-.8.4-1.6.6-2.5.5-.7-.1-1.5-.1-2.1.2-.9.5-1.7-.3-2.5 0s-1.6.8-2.4 1.1c-.1.1-.3.1-.5.1-3.6 0-6.9 1.1-10.3 1.9-1.7.4-3.4.8-5.5.5 2.2-1 3.9-2.5 6.3-2.5 1.6 0 3.1-.8 4.6-1 .8-.1 1.6-.3 2.4-.3.7 0 1.4-.1 2.1-.4.9-.4 1.8-.8 2.7-.2.2.1.5.1.7 0 .9-.6 1.9-.8 3-.7.2 0 .5 0 .7-.2 1.2-1 2.8-1.2 4.2-1.6 1.3-.4 1.4-.7 1-2.3 1.7-.9 3.5-1.7 5.5-.5.3-2.5 2.2-2.7 4-3.2.4-.1 1-.1 1.4 0 1.2.1 2.4-.2 3.5-.7 1.5-.7 3-1.5 4.8-1.3.3 0 .7-.2 1.1-.4 2.2-.9 4.4-1.3 6.7-1.4 1.3-.1 2.5-.3 3.8-.4.2 0 .3 0 .5-.1 2.8-1.7 6.1-1.9 9-3 .4-.2 1-.3 1.4-.2 2.4.3 4.5-.8 6.8-1.1 1.7-.2 3.4-.8 5.1-.9.9-.1 1.6-.9 2.6-1 .4 0 .8-.4 1.1-.3 2.2.1 4-1 5.9-1.7.7-.3 1.4-.6 2.1-.6 2.8-.2 5.5-1 8.3-1.5.3 0 .6-.2.9-.2 1.9.1 3.6-.3 5.3-1 2.2-.8 4.5-1.1 6.8-1.5.4-.1.8-.1 1.1-.5.1-.2.3-.4.2-.6 0-.2-.3-.4-.5-.4-.8-.2-1.6 0-2.4.3-1.9.6-3.9 1-5.9.9-.4 0-.8 0-1.2.2-2.2.9-4.5 1.2-6.7 1.6l-1.2.3c-2.6.8-5.3 1.3-7.9 1.7-2.8.4-5.6 1.1-8.4 1.9-.9.3-1.9.2-2.8.4-5.1 1.1-10.1 2.4-15.1 3.5-2.5.6-5.1.9-7.5 1.7-2 .7-4.3.7-6.2 1.7-.3.1-.6.2-.9.2-1.6-.1-3 .4-4.5.8-3 .7-5.9 1.3-8.9 1.9-1.2.2-2.3.5-3.5-.1-.6-.3-1.4-.2-1.7.7-.1.4-.5.6-.9.6H106c-.2 0-.5-.2-.4-.5 0-.1.2-.3.3-.4l1.8-.6c.3-.1.7-.1.9-.3 1.2-1.3 2.8-1.8 4.3-2.6 1.6-1 3.6-1.4 5.4-1.9 2.8-.8 5.6-1.4 8.3-2.3.4-.2.9-.3 1.4-.4 2-.5 4-1.1 5.9-1.9.8-.3 1.7-.6 2.5-.8s1.6-.2 2.2-.8c.1-.1.3-.2.4-.2 3.4-.2 6.3-2.1 9.6-2.6 2.7-.4 5.2-1.6 7.9-1.8 1.5-.1 2.9-.8 4.3-1.3 1.1-.4 2.3-.7 3.5-.9 1.7-.4 3.4-.8 5.1-1.3 1.9-.5 3.8-1.2 5.7-1.6 2.8-.6 5.7-1 8.4-1.9 4.3-1.4 8.9-1.9 13.1-3.6.6-.3 1.4-.3 2.1-.5.8-.2 1.5-.4 2.3-.6 2.8-.9 5.7-1.6 8.6-2 1.3-.2 2.5-.4 3.6-1 .4-.2.9-.4 1.3-.4 3.8-.4 7.5-1.6 11.3-2.2 2.1-.3 4.2-1 6.2-1.7 1.4-.5 2.8-.3 4.2-.7 2.3-.6 4.7-.9 7-1.4 1.9-.3 3.7-.9 5.6-1.3 5.5-1.2 11-2.1 16.4-3.2 1.7-.3 3.5-.6 5.1-1.2 1.3-.4 2.7-.6 4-.6 2-.1 3.9-.6 5.9-1.1 1.1-.3 2.2-.4 3.3-.5 2.9-.3 5.9-.6 8.7-1.3 1.4-.3 2.9-.1 4.2-.9.2-.1.6 0 .9 0 .5.1.9.1 1.4 0 3.4-.8 7-.8 10.4-1.7.4-.1.8-.3 1.2-.2 1.6.3 3.1-.3 4.6-.4 1.6-.1 3.2-.1 4.8-.3 2.3-.3 4.6-.6 6.9-.6 3.9.1 7.7-.5 11.6-1.2 1.5-.3 3-.2 4.5-.2 2.9 0 5.7-.4 8.5-.9.3-.1.6-.2.9-.1 3 .1 6-.5 9-.3.5 0 .9-.1 1.4-.2.3-.1.6-.3.9-.2 2.5.6 4.9-.4 7.3-.5.5 0 .9-.1 1.4 0 2 .6 4.1.6 6.1.1C380-.1 381 0 382 0c4.5-.1 8.9-.2 13.4.3.3 0 .7.1 1 0 1.1-.2 2.2-.2 3.3-.3 1.3-.1 2.6-.6 4-.1 1.5-.5 3 .1 4.5-.4.3-.1.6-.2.9-.1 3.6.4 7.2-.2 10.8.2.7.1 1.4.1 2.1.2 1.5.1 3.1.4 4.5.1 1.5-.3 3-.2 4.4.2 1.1.3 2.2.2 3.3.3 3.3.2 6.7.3 10 .7 1.7.2 3.3.3 5 .3.5 0 1-.1 1.4.1 1 .6 2 .4 3 .4 1.7 0 3.3.2 5 .4.9.2 1.9.3 2.8.4 1.2.1 2.3.5 3.4 1.1 1.4.8 2.9 1.4 4.1 2.4 1.9 1.7 3.9 3.3 5.8 5 .7.7 1.4.8 2.4.4 1.8-.8 3.7-1.4 5.8-1.2 1 .1 2-.7 3-.2.8-.7 1.9-.8 2.9-1 .1 0 .2-.1.2-.1 1.4-1.4 3.2-1 4.9-1 .3 0 .7 0 .9.2 1.6 1.5 3.8.9 5.7 1.7.9.4 2.1.2 3.1 0 .4-.1.9-.2 1.1.1.8.9 1.8 1.1 2.9 1.4.5.1.9.7 1.2 1.1.5.8 1.1 1.4 1.8 1.9.6.4 1 1 1.3 1.7.7 1.6 1.6 3.1 3.3 3.9.5.2.9.7 1.2 1.1 1 1.4 2.1 2.6 3.6 3.4 1.1.6 1.7 1.7 1.8 2.9 0 1.3.4 2.5.8 3.7s.8 2.4.6 3.7c-.1.6.1 1.3.4 1.8.9 1.9.8 3.7-.5 5.4-.5.7-.8 1.4-.9 2.2-.2 1.3-1 2.3-1.9 3.3-.8.9-1.8 1.6-2.7 2.4s-2.3 1.1-3.6 1.2c-.8.1-1.6.2-2.3.6-.6.3-1.2.7-2 .8-.4 0-.7.2-1 .5-.6.7-1.4 1.2-1.7 2s.4 1.6.7 2.4c.8 2.2 1.3 4.4 2 6.6.1.2.2.5.1.7-.4 1.8 1 2.9 1.8 4.2.1.2.4.3.6.3.4 0 .5-.4.5-.7-.1-1.3.1-2.3 1.3-3.1.7-.4.6-1.3.6-2 .1-1.8 1-3.3 1.8-4.8.1-.2.3-.3.5-.5.2-.1.5-.1.6.1s.3.4.3.6c.2 1 .9 2.5 1.6 3.2.1.1.3.3.3.4 0 1.3.9 2.1 1.7 3 .7.8 1 1.8 1.9 2.6.4.4.7 1.2.6 1.7-.1 1.2 1 2.2.5 3.4 0 .1 0 .2.1.2.3.5.6.9.9 1.4.4.6-.7 1-.3 1.5.6.7.3 1.5.4 2.3.3 1.1.4 2.3 1.3 3.3.8.9 1.2 2.1 1.1 3.5-.2 2 .8 3.8 1.2 5.8 0 .2.2.5.4.5 1.5.7 2.5 1.9 3.6 3.1.2.2.5.4.8.5.3.2.7.4 1.1.3.1-.1.2-.2.2-.4 0-1.9 0-1.9 1.7-1.8.3 0 .6.1.9.1.9.2 1.2.5 1.3 1.4.1.6.1 1.3.1 1.9 0 1 .2 1.9 1.2 2.4.2.1.4.3.4.5.2 1.6 1.2 3 .9 4.7-.1.5 0 1 .2 1.4.3.6.3 1-.3 1.5-.2.1-.3.4 0 .6 1.1.7 1 2.3 2.1 3.1.4.3.6.9 1 1.3.3.3.8.5 1.2.7-.8.9-1.7-.4-2.4.4.2.9 1.3.9 1.6 1.6.1.1.3.3.2.4-.6 1.1.4 1.2 1 1.6.3.2.7.4.9.7.2.2.3.6.1.9-.1.2-.4.3-.6.4-.5.1-.9-.2-1.5.1.7.8 1.3 1.8 2.1 2.4.9.7 1.1 1.5.8 2.5-.1.3 0 .6-.1 1s-.5.6-.9.4c-.3-.2-.4-.5-.9-.4-.2 1-.1 1.9.9 2.5.7.4.8 1 .5 1.6-.2.4 0 .5.4.5.8 0 1.2.4 1.1 1.2-.1.9.2 1.9-.3 2.8-.2.3-.1.6.2.9.7.5.4 1.5 1.1 2.1.2.1 0 .4-.2.5-1.2.4-.4 1.7-1 2.4.3.5.9.7 1.4 1.1-.7.8-1.1 1.7-1 2.8 0 .8 0 1.6.7 2.2.4.3.6.8.7 1.2.2.6.3 1.1-.4 1.4-.3.1-.5.4-.7.6-.5.4-.4.8 0 1.2.5.4.5.6 0 1.1-.8.6-.5 1.5-.2 2.2.2.5.8.3 1.3.4.4.1.5.4.2.7-.4.3-.6.5-.2 1.1.4.5.3 1.3.5 2-.3 0-.6.1-.9.1-1.5.4-1.7 1-.7 1.9.7.7.9 1.4.7 2.4-.2.7.2 1 .9 1 .4 0 .3.3.2.5-.2.3-.9.6 0 1 .4.2 1 .3 1 .8 0 .6-.6.9-1.1 1.1-.4.1-.8.1-1.2.2-.6.1-.7.6-.3 1.1s.9.9 1.3 1.4c.4.4.1.9-.5 1-1.3.2-1.3.2-1.4 1.3v.2c.1 1.3-.4 2-1.9 1.9 1.1 1.3 2 1.8 2.8 2.1zm10.4 94.9c.7-.4.7-1 .3-1.6-.1-.2-.5-.2-.6 0-.2.3-.3.7-.4 1.1-.3.1-.6.4-.5.7.1.4.5.3.8.1.1-.1.3-.3.4-.3zm-28.1-72.7c-.2.3-.5.4-.8.3-.4-.1-.7-.4-.9-.7-.3-.6-.4-1.3-.6-2-.8.2-.2 1-.7 1.4-.3.2-.9.5-.6 1.1.3.5.8.4 1.3.5.3 0 .6.2.9.3.9.1.9.1 1.4-.9.4-.4.7 0 1 .1s.6.3.7-.1c0-.1-.2-.4-.3-.5-.2-.2-.5-.4-.8-.4-.5.1-.2.7-.6.9zM200.9 36.5c.1.2.3.3.4.5.1.3.2.6.7.5 1.6-.4 3.2-.9 4.6-1.8 1.3-.9 2.9-1.3 4.4-1.8 1.9.4 3.5-1 5.4-.6.5.1.8-.4 1.2-.8.4-.3.7 0 1.4.1-2.1-.5-3.8 0-5.5-.1-.2 0-.5.1-.7.2-1.5.8-3.1 1.1-4.8 1.3-1 .1-2 .4-3 .5-1.6.2-3.1.6-4.6.9-.6.1-1 .8-.7 1.2s.7.1 1.1 0c0-.1 0-.1.1-.1zm251.6 294c-.1-.2-.3-.3-.4-.5 0-.1.1-.1.1-.2.7-.9.7-.9-.1-1.2-.5-.2-.8-.4-1.3-.7-.3-.1-.6-.4-.9-.1-.7.8-1.6.6-2.4.4-.7-.2-1.3-.1-1.9.2-.5.2-.6.8-.2 1.2.5.6 1.2.8 1.8 1.1s1.1.5 1.4 1.1c.4.9 1.3 1.2 2.2 1.2 1.3 0 2.8.3 3.4-1.4.2-.5.6-.7 1.2-.6s1.1.2 1.7 0c-.7-1.2-1.8-1.5-3-.9-.5.1-1.1.2-1.6.4zm-127-42.1c.2-.1.4-.4.6-.3 1.9.4 3.6-.8 5.4-.6.3 0 .7-.1.9-.3 1-1 2.2-1.1 3.5-1.2.7-.1 1.4-.3 1.2-1.4 0-.1 0-.4.1-.4 1.2-.7 2.3-1.9 3.9-.9.3.2.6.4.9.1.8-.7 2-.4 2.9-.9.6-.4.8.1.9.8.1 1.2-1 1.5-1.5 2.3.5.4.8-.2 1.1-.2h1.4c.6-.1.7-.5.3-1-.3-.4-.7-.7-.7-1.2 0-.6.4-1.1.9-1.4.4-.2.9-.5 1.3-.2.3.2.2.6.2.9 0 .9.9 1.3 1.4 2.1.3-1.1.2-1.8-.1-2.6-.2-.6.1-.9.7-1 .2 0 .3-.1.5-.1 1.2-.3 2.6.3 3.5-1 .1-.1.3-.1.5 0 1 .2 2.1 0 3.1-.2.6-.1 1.1 0 1.6.2.2.1.4.3.5.4.1.3-.2.4-.4.5-.6.2-1.3.1-1.7.8-.1.1-.2.3-.2.4 0 .3.3.4.5.3 2.3-.4 4.6-.7 6.9-.6 1.4.1 2.5-.4 3.7-.9.8-.3 1.2-.9 1.3-1.8.2-1.1.2-1.2 1.2-1.3 2.3-.2 4.6-.6 6.8-1.1.2 0 .4.1.7.1.1.7-.7 1.4-.2 1.8.6.4 1.5.4 2.2.1.1-.1.3-.1.4-.2.4-.3.9-.3 1.4-.3.4 0 1.1.1 1.2-.4.1-.7-.6-.5-1-.6s-.5-.4-.6-.7c1.9-.7 3.8-1 5.7.4.5-.8.8-1.7 1.9-1.2.5.2.9-.2 1.4-.3 1.1-.4 2.2-1 3.4-1 1.4 0 2.7-.3 4-.6s2.5 0 3.8 0 2.4-.9 3.7-.9 2.8-.5 4-.1c1.6.5 2.6-.7 3.9-.7h.5c2-.1 4 0 5.9-.3 1.5-.2 3.1 0 4.3-1.2.2-.2.6-.3.9-.1.9.5 1.7.1 2.5-.4.7-.4 1.4-.6 2.3-.2.6.3 1.2.1 1.9 0 1.6-.3 3.1-.7 4.6-1.1.8-.2 1.5-.1 2.2.4.8.5 1.9.9 2.9.3 1.6-1.1 3.3-1.4 5.2-.8.8.2 1.7.2 2.5.6.7.3 1.4.1 2-.4.5-.4.9-.7 1.5-.6 2.4.1 4.7-.7 7.1-.7.7 0 1.5-.2 1.9-.9.9-1.4 1.7-2.9 1.3-4.7-.3-1.1-.1-2 .1-3 .3-1.8.7-3.5.5-5.4-.2-1.5.8-3 .6-4.6 0-.2.4-.5.6-.7s.5-.4.2-.8c-.4-.6-.2-1.1.2-1.5.6-.6.4-.9-.2-1.2-.3-.1-.6-.4-.4-.8.1-.3.4-.4.7-.6.5-.3.9 0 1.4.2.4.2.6-.2.6-.5 0-.7-.3-1-1-.7-.5.2-.8.1-.9-.4-.1-.6.1-1.1.7-1 1.3.2 2.6-.7 3.9-.1.1.1.6-.1.6-.2.3-.9 1.1-1.8.4-2.9-.6-.9-.5-1.1.4-1.7.8-.6.9-1.2.6-2.1-.1-.3-.1-.7-.3-.9-.5-.8-.6-1.4.1-2.1.4-.4.3-.8.1-1.3-.3-.6-.5-1.1-1.2-1.4-.5-.2-.5-.8-.4-1.2.1-.5.6-.4.9-.5.7-.1.9-.6.6-1.1 0-.1-.1-.2-.1-.2l-.9-.6c.4.2.8.4 1-.1.3-.8.6-1.8-.1-2.5-.6-.7-.6-1.2 0-1.9.8-.9.2-1.8.1-2.7-.1-.6-.9-.6-1.4-.8-.2-.1-.5-.3-.5-.5 0-.4.4-.4.7-.4.6.1.9-.2 1-.7.1-.4.3-.7.5-1.1.4-1 .4-1-.6-1.7-.9-.5-1.3-1.4-2-2 .5-.7.9-1.3 1.2-1.8s.8-.4 1.3-.6c.2-.1.3-.3.4-.5.4-2 1-4 .6-6.1-.1-.4 0-.8 0-1.2.2-1.3.2-2.7.4-4 .1-.9-.3-2-.2-3.1.2-1.4-.1-2.6-.5-3.9-.5-1.4-.9-2.9.3-4.2.4-.4.4-.8.1-1.3-.1-.2-.3-.5-.3-.6.4-1.6 0-3.2.3-4.8.2-1 .2-1.8-.6-2.6-.4-.4-.1-.9.4-1.2.2-.1.4-.3.6-.4-.2-.2-.3-.5-.5-.6-1.2-.4-1.3-1.3-1.1-2.3.1-.2.1-.5.2-.7.4-.9.5-1.9-.1-2.8-.3-.5-.2-.9.3-1.2.9-.6.8-1.4.4-2.1-.5-1-.6-1.9.2-2.8.4-.4.1-.9 0-1.4-.1-.7-.3-1.5.3-2 .5-.4.5-.7.2-1.2-.3-.4-.5-1-.9-1.4-.3-.2 0-.4.1-.6.3-.4.6-.8 1.1-.8.3 0 .5-.3.4-.4-.2-.6.1-1.5-.7-1.9-.3-.2-.6-.3-.8-.5-.9-.8-1-1.5 0-2.3.4-.4.6-.7.6-1.2s.2-.9.3-1.4c-.8-.5-1.2-1.6-2.4-1.8-.4-.1-.7-.6-.6-1.2.2-.6.2-1.1-.6-1.3-.6-.1-.7-.7-.6-1.1.3-.8 0-1.4-.6-1.9-.1-.1-.1-.3.1-.4.1 0 .2-.1.2 0 .3.1.6.3.9.4.4.1.7 0 .7-.4 0-.6.2-1.3-.2-1.9-.3-.4-.7-.2-1.1-.3s-.5-.6-.2-.7c1.3-.6 1.4-1.5.9-2.7-.1-.3 0-.6.1-.9.2-.6.1-1.1-.3-1.6-.4-.4-.4-.7.1-1.2.6-.6.5-.9-.1-1.4-.8-.6-1.6-1-2.3-1.6.1-.2.1-.4.2-.5.6-1 .6-1.8-.5-2.4-.7-.4-.8-1.1-.6-1.9s.4-1.7.6-2.6c.1-.4-.4-.7-.1-1.1.4-.5.9-.2 1.3-.3.1 0 .3-.2.3-.3s-.1-.3-.2-.4-.3-.2-.4-.2c-.8 0-1.3-.2-1.1-1.1.1-.9-1-.8-1.1-1.4-.2-.9 1.1-.8 1.1-1.7 0-.3.1-.6 0-1-.1-1.5-.5-2.9-1.5-4.2-.7-.9-.6-1.2.3-1.9.9-.8 1-.8.4-1.7-.5-.8-.5-1.5-.4-2.5.1-.9-.3-1.8-.5-2.7 0-.1.1-.1.1-.2.3-.4.2-.7 0-1.1-.3-.4-.2-.9-.1-1.4.1-1.6-.2-3.3.5-4.9.1-.1 0-.3-.1-.5-.5-1.5-.7-3.1-1.9-4.3-.7-.7-.6-.9.2-1.7.5-.5.6-.9.2-1.4-.3-.4-1-.7-1-1.3.2-1.2-.5-2.3-.5-3.5 0-.8 0-1.4.7-1.8.3-.2.4-.4.5-.8.3-1.5.6-3-.4-4.4-.3-.5-.3-1.2-.8-1.7-.3-.3-.2-.7 0-1.1.5-1.2 1.1-2.5-.6-3.4-.4-.2-.5-.8-.6-1.3-.1-.9-.3-1.7-.8-2.5-.4-.7-.3-1.2.3-1.7.2-.2.4-.5.2-.9-.2-.1-.6-.2-.7-.4-.9-1.1-2.1-1.5-3.4-1.5-.6 0-1-.4-1.5-.7-1.1-.7-2.4-.6-3.7-.9-1.3.7-2.3 0-3.4-.6-1-.6-2.1-1-3.2-.5-1.2.5-2.2.3-3.2-.3-.5-.3-1-.7-1.6-.4-1.1.5-2 0-2.9-.6-1.1-.9-2.4-1.2-3.8-1.2-1.7 0-3.5.1-5.2.1-.6 0-1.1 0-1.7-.2-1.5-.5-3.2-.2-4.7-.8-.6-.2-1.3-.2-1.9.1s-1.2.1-1.8.1c-2-.3-3.9-.5-5.9-.6-2.1-.1-4.1 0-6.1-.8-1.2-.5-2.5-.6-3.7-.2-.5.2-1.1.5-1.6.4-2.1-.3-4.3.3-6.4-.4-.3-.1-.7-.1-.9 0-1 .6-2 .5-3 .2-1.1-.2-2 .5-3 .2-2.3-.6-4.6.3-6.9-.4-2.6.3-5.2-.3-7.7.2-.6.1-1.1-.1-1.6-.4-.7-.5-1.4-.7-2.2-.7-2.8 0-5.6.1-8.3-.2-1.7.5-3.5 0-5.2.2-1.6.2-3.3.5-5 .1-.8-.2-1.5-.2-2.3.2-1 .5-1.9.4-3 .3-1.7-.2-3.6-.5-5.2-.1-1.4.3-2.5.2-3.7-.3-.9-.4-1.7-.3-2.5.2-1.4.7-3 .5-4.4.9-1.3-.5-2.5-.3-3.7 0-.9.2-1.9.5-2.8.4-1.4-.1-2.8-.5-4.2-.1-1.6-.6-3.3.1-4.9.1-.6 0-1.1.1-1.7-.1-1.4-.6-2.7-.3-4 .2-.5.2-1 .5-1.6.3-1.4-.4-2.8-.1-4.2.2-.8.2-1.8.6-2.6.4-1.8-.3-3.5 0-5.2 0-.7 0-1.4-.1-2.1-.3-.8-.2-1.1.9-1.9.8-.3 0-.6.1-.9.1-.8-.2-1.6-.1-2.2.5-.4.3-.8.4-1.4.2-3-.9-6-.3-9-.1-2.7.2-5.4 1.3-8.2 1.2-.5 0-1.1.3-1.6.5-.4.2-.6.5-.6.9-.3 3.5-.7 6.9-.9 10.4-.1 1.8-.1 3.6.3 5.5.3 1.5.2 3 0 4.5-.1.6-.3 1.1-.1 1.7.7 3.2-.8 6.3 0 9.5 0 .1 0 .2-.1.2-.9 1.8-.3 4-1.3 5.8-.1 2.6-.8 5.2-1.5 7.7-.3 1-.2 2-.5 3-.4 1.6-.9 3.2-1.1 4.9-.3 1.9-1.4 3.8-.9 5.9 0 .1-.1.3-.2.4-.6.4-.5 1-.6 1.5-.3 1.5-.6 3-1 4.4-.2.6-.3 1.2-.2 1.9 0 .8-.1 1.6-.3 2.4-.4 2-.8 4.1-1.1 6.1-.3 3.1-1.1 6.1-1 9.3 0 .3-.2.6-.3.9-.2.4-.3.7-.4 1.1-.2 2.2-.4 4.4-.7 6.6-.3 3-.6 6-1 9-.2 1.4-.3 2.8-.5 4.2-.2 2.8-.7 5.5-1.1 8.2-.1 1-.4 1.9-.7 2.8s.2 1.8.1 2.8c-.4 3.9-1 7.9-1.4 11.8-.1 1.2-.1 2.4-.4 3.6-.7 2.6-.7 5.3-1 8-.2 2-.6 4.1-.7 6.1-.1 1 0 2.1-.2 3.1-1 4.8-1.2 9.6-1.9 14.4-.2 1.4 0 2.9-.4 4.3-.3 1-.6 2-.6 3 .1 1.2-.2 2.4-.4 3.5l-.9 5.7c-.4 2.8-.7 5.5-1.2 8.3-.8 4.5-2 8.9-2.6 13.4-.2 1.4-.8 2.6-1 3.9-.3 2.4-.7 4.9-1.6 7.2-1 2.7-1.3 5.6-1.9 8.3-.4 1.7-.1 3.6-.6 5.4-.1.5-.1 1.2.4 1.5 1 .7 1.9 1.5 3.1 1.7s2.1.6 3 1.3c.6.4 1.3.7 2 .8 4.6 1.2 9.2 2.5 14 2.8.9 0 1.8.3 2.8.1.9-.1 1.9.2 2.8.3 1.2.2 2.4.5 3.6.3s2.4-.1 3.6.1c.6.1 1.3.1 1.9.2 1.4.2 2.8-.2 4.3-.1 1.4.1 2.9.1 4.3-.2.3-.1.6-.1.9 0 .5.3 1.1.2 1.6 0s1.1-.4 1.6-.3c2.3.2 4.6-.4 6.9-.6 1.1-.1 1.9-.2 2.3 1 .1.2.4.3.6.3s.2-.3.3-.5c.3-1.1.7-1.4 1.6-1.4.3 0 .6.1.8.5.2.3 0 .6-.2.9-.4.4-1.1.5-1.3 1.1 1.2.3 2.3.5 3.4.1.5-.2.5-.4 0-.9-.9-1-.8-1.6.4-2 1.4-.5 2.7-1.3 4.3-.9.1 0 .3-.1.4-.2 1.5-.5 2.8-.6 3.8.9.4.5 1 .8 1.7.6 1.2-.4 2.4-.8 3.7 0 .1.1.5 0 .7-.1 1.2-.9 2.6-.8 3.9-1 1.6-.3 3.1-1.3 4.9-1 .2 0 .5-.1.5-.4.1-.9.8-1.2.7-1.9zM450 348.5c-.5-.3-.7-.4-.8-.6-.5-.7-1.1-.9-1.9-.7-.4.1-.8 0-1.2 0-1.1.2-2.1.2-3.3-.1-1.1-.3-2.6-.4-3.3 1.1-.3.5-.8.7-1.4.9-1.1.3-1.9 1-2.5 2 .7.1 1.2.2 1.8.3.4.1.5-.2.8-.3.7-.5.9-.5 1 .2.2 1 .8 1.2 1.7 1.2.8 0 1.5-.3 2.3-.7.7-.3 1.5-.7 2.3-.5 2.8.7 5.4-.2 8-1.1.9-.3 1.7-.6 2.5-.2.5.2.9 0 1.3-.4.3-.3.5-.6.8-.8.5-.4 1.1.3 1.6-.1.4-.4.7-.7 1.3-.7.8-.1 1.6 0 2.3.3.7.4 1 .1 1.3-.4.3-.4.6-.4 1-.1.3.2.6.9.8.7.8-.8 1.6-.5 2.4-.2.1 0 .3-.1.4-.2.4-1 1-.7 1.8-.4.9.3 1.9.4 2.6-.5.5-.6 1.4-.7 2-.5.7.2 1.4.1 2 .5-.1.6-.5.8-1 1-.5.1-.9.1-1.4.2-.4.1-.6.3-.5.7 0 .4.4.5.7.5.6 0 1.3.1 1.9 0 .5 0 1-.3 1.2-.7.3-.7.8-1.3.6-2.2-.2-.5.3-.8.6-.5.5.5 1.1.6 1.6.8.7.3.9.2 1.3-.4.4-.9.5-1 1.3-.5 1.1.6 2.2.4 3.2.2.6-.1.7-.9.4-1.4-.8-1.1-1.9-1.3-3.2-1-.4.1-.8.6-1.1.3-.9-.8-1.8-.4-2.7-.3-.5 0-.8-.1-1.1-.7-.4-.8-.8-.9-1.5-.5-.9.5-1.8 1.1-2.7 1.6-.4.2-.9.4-1.4.1-1.1-.7-2.3-.7-3.5-.5-.4.1-.9.1-1.1-.2-.8-1.1-1.8-.9-2.8-.7-.7.2-1.3.1-1.9 0-.6 0-1.2.1-1.3.8-.3 1.3-1.2 1.4-2.2 1.2-.7-.1-1.4-.3-2.1-.1-1 .2-2 .4-3-.3-.5-.3-1.2-.3-1.8-.3-.8 0-1.5.4-2.2.8-.5.3-.7.8-.8 1.4.1.7-.9 1-1.1 2zm58.4-272.1c.3-1.3-.1-2.7-.6-4-.3-.7-.4-1.5-.5-2.3-.3-2.6-.5-5.2-.8-7.8-.1-1.1-.5-2-1.7-2.4-.9-.3-1.5-.8-2.1-1.5-.2-.2-.4-.4-.7-.6-.1-.1-.3-.1-.5 0-.1.1-.2.3-.2.4.1.4.3.7.4 1.1s-.3.7-.7.6c-.2 0-.3-.2-.4-.2-.8-.2-1.5.1-2.1.7.1 1.1 1.4.1 1.7 1 0 .1.6 0 .9 0 .6.1 1 .4 1.2 1 .1.5 0 1 .1 1.4s.3.8.7.8c.6 0 .8.3 1 .8 1 2.8 1.3 5.7 1.5 8.6 0 .3-.2.7-.4.8-1.2.6-1.2 1.7-1.4 2.8-.1.8-.1 1.4.6 1.9.6.5.9 1.1 1.2 1.8.1.4.1.8-.3 1.1-1.2.8-1.1 1.9-.7 2.9.4.9.3 1.7.4 2.6.1.8-.5 1.7-.1 2.6.1.2-.1.5-.2.6-.3.3-1 .5-.7 1.1.2.4.7.6 1.1.8.5.2 1.1.3 1.6.5 1.6.6 2 1.5 1.3 3.1-.1.3-.4.7-.2.9.9.6.8 1.7 1.3 2.4.2.3.5.4.8.3.2-.1.4-.3.5-.5.3-1.3.3-2.6 0-3.8-.3-.9-.4-1.7-.1-2.5s.2-1.5-.2-2.3c-.5-1.1-.8-2.3-.3-3.5.3-.8.4-1.3-.2-1.9-.4-.4-.3-1.2.3-1.4.8-.2.5-.4.1-.7s-.6-.7-.5-1.2c0-.6.1-1.4-.2-1.9-.9-1.3-.6-2.7-.9-4.1zm-6.9 71.9c-.3-.7-.9-1-1.5-1.4-.3-.2-.5-.5-.4-.8.5-1 .5-2.2 1.2-3.1 1-1.1 1-2.4.2-3.7-.6-1-.4-2.3.3-3.1.2-.2.7-.2.6-.6 0-.3-.3-.6-.4-.8-.4-.6-1-.7-1.6-.9-.9-.2-1-.6-.3-1.2.4-.3.5-.5 0-.8-1-.6-.9-.6-.2-1.4.1-.1.3-.2.4-.3.5-.6.5-1.9-.1-2.4-.3-.3-.8-.2-.9-.7-.1-.6.5-.7.8-1s.5-.6.7-1c.3-.5.1-1-.3-1.3-.5-.3-1.2-.6-1.7-.5s-.3.8-.5 1.2c-.1.2-.3.4-.4.6-.2.3-.4.6-.1.9.6.7.5 1.4.2 2.2-.3.6 0 1.2.2 1.8.4 1.1.4 1.1-.6 1.9-.3.2-.6.4-.4.7.3.9.9 1.7 1.2 2.5.3.7-.3 1.8.1 2.7 0 .1.1.1.1.2.4.5.2.9-.2 1.3-.2.3-.5.6-.8.9-.4.5-.4 1-.3 1.6.1.5.4.9.5 1.3.5 1.1 1.1 2.2.4 3.4-.7 1.1-.6 2.4-.9 3.6-.2.6-.1 1.3.2 1.9.4.8 1.1 1.4 1.6 1.2.7-.3.8-1 .7-1.6-.1-1 .3-1.9.5-2.8.1-.7.6-.6 1.1-.5.3.1.4 0 .6 0zm46.9 122.2c.9.7 1.4 1.2 2.1 1.6.8.5 1 1.2.9 2 0 .5-.1.6-.9.3-.3-.1-.5-.1-.6.1s-.2.5-.1.6c.2.3.5.4.7.6.9.7 1.3 1.6 1.5 2.8.4 2.2-.4 4.2-1 6.2-.1.3-.3.7-.5.8-1 .5-1.1 1.8-2.2 2.1-.4.1-.3.7-.2 1 .2.4.5.7.8.8.7.2.8.7.5 1.3-.2.5 0 .9.5 1.1.6.2 1.2.2 1.8.4.1-.3.1-.5.1-.8s-.1-.6 0-1c0-.4.2-.8.7-.7.3 0 .6.2.9-.1s.4-.8.2-1.1c-.3-.8-.3-1.3.5-1.8.7-.5.9-1.2.4-2.1-.5-.8-.8-1.7-1.2-2.6-.4-.8-.5-1.6-.6-2.5-.1-1.4.6-2.6.8-3.9.2-1.1.6-2.2-.2-3.2-.2-.2-.1-.6-.1-.9-.2-1.2.4-2.3.9-3.3-.2-.1-.4-.2-.5-.3-.9-.7-2-.8-2.9-1.3-.4-.2-.8-.1-1 .4-.1.4.2.6.5.6.7.1 1.4.2 1.8 1-.3.6-1.2.4-1.6.8-.3.5-1 .8-2 1.1zm-53.7-51.6c0 .1 0 .2.1.2 1.3.6 2.6 1.2 2.1 3.1 0 .1.2.2.3.3.1 0 .4-.1.4-.1.1-.4.3-.8.3-1.1-.1-1.2.1-2.4.8-3.4.5-.7.5-1.5.3-2.3-.1-.5-.4-.9 0-1.4.4-.6.2-1.2.4-1.8.3-1.1-.2-2.2-.1-3.3.3-1.9.3-3.9.3-5.9 0-.7.3-1.5 0-2.1-.5-1-.1-1.8.2-2.7.1-.5.6-1 .3-1.6-.4-.9-.6-1.8-.5-2.8 0-.1-.2-.3-.3-.3s-.4.1-.4.1c-.3 1.1-1.2 1.4-2.2 1.6-.2.1-.4.2-.4.6.2.1.4.2.6.2.7 0 1 .3 1 1v.7c.3 2.1.2 2.2-1.8 2.8h-.2c-.6.1-.8.4-.8 1 0 .4-.5.7 0 1.2 1.4-.7 2.2.7 3.4 1.1-1.4.9-1.4.9-2.7.7-.5-.1-.8 0-1 .4s0 .6.4.7c.5.2.8.7 1.1 1.2.2.3.5.6.9.7.3.1.7-.2.9.2.3.5-.2.7-.5.9-.5.3-.4.7-.3 1.2.2 1.3.4 2.6-.9 3.7-.5.4-.5 1.4-.7 2.2-.1.4.4.6.7.9.6.7.4 1.3-.5 1.6-.6.2-1 .1-1.2.5zm9.9-28.6c-.3.3-.7.6-1.1.9-.7.7-.6.9 0 1.8.5.6 1 1.2 1.2 2.1.1.4-.1.6-.4.7s-.6 0-.9.1c-.2 0-.6.2-.6.3v2.1c0 .4.4.7.8.8s.7.4.7.8c0 .8.5 1.3 1 1.8.8.8.6 1.8-.3 2.4-.5.3-1.5.1-1.6.8-.2 1 1.2.6 1.4 1.3.2.6.8.6 1.4.7.5.1.8.7 1.2 1 .3.2 1.1-.1 1.2-.5.1-.3.1-.6.2-.9.1-1.2-.1-2.4-.1-3.6-.1-1.1-.1-1.9-1.4-2.3-.9-.2-1.5-.9-1.1-2-.5-1.2 0-2.4.1-3.5.1-1 0-2-.2-3-.4-1.7-.4-1.8 1.5-1.9.2 0 .4-.1.6-.1.2-.5-.1-.8-.3-1.2-1-1.9-1-1.9-3.2-1.5-1.3.2-1.5.7-.9 2 .2.4.7.4.8.9zM388.3 363c1.5.9 2.4 1.7 3.5 2.2 1.2.6 2.3 1.5 3.7 1.6.4.1.7.3.9.7.5.8 1.2.7 1.8.2.5-.4 1.3-.3 1.5-1.1-.2-.2-.3-.4-.5-.5-.5-.4-.5-.9-.2-1.5s.6-1.1 1.4-1c.5 0 .9-.1 1.1-.7.5-1.5.5-1.5 1.6-1.3s2.1.3 3-.5c.8-.7 1.7-1.4 2.2-2.5 0-.1 0-.3-.1-.4s-.3-.2-.4-.2c-.4 0-.8.2-1 .5-.3.4-.5.8-1.1.9-1.1.1-2.3.5-3.3.3-1.7-.5-2.6.8-3.9 1.2-.9 1.5-2.4 1.8-3.8 2.5-1.1.5-1.2.3-1.3-.6 0-.1-.4-.4-.5-.4-1.3.7-2.7.3-4.6.6zm157.3-187.4h-.4c-1 0-1.1 0-1.2-1.2-.1-.7-.6-.8-1-.7-2.1.6-4-.7-6.1-.4-.2 0-.6-.2-.8-.4-.9-1.1-2.3-1-3.4-1.5-.7-.3-1.7-.2-2.5.2-.5.3-.5.9-.1 1.1.5.3 1.1.3 1.3.9.3.8.9 1.1 1.7 1 .7 0 1.4.1 2.1.4.4.2.7.4 1.1.2.7-.3 1.2-.1 1.7.4.4.5.9.8 1.4 1.2 1 .8 1.7.6 2.4-.6.4-.7.8-.8 1.2-.3.9 1.1 2 1.8 3.3 2.2.8.2.9-.5 1.3-.8s.2-.6 0-1c-.5-.7-1.1-1.1-2-.7zM526 241c0 .9 0 1 .9 1.2.6.1 1 .4 1.4.8.8.9 1.1.8 1.8-.1.6-.7.5-1.2 0-1.9-.4-.6-.2-1.4.2-1.4.6 0 .7.5.9.9.1.2.2.5.1.7-.2.4-.2.7.4.8.2 0 .5.1.7.2.5.1.8 0 .9-.5s-.2-1 .2-1.4c.4-.3.9-.1 1.4-.2s.9-.3 1.4-.4c.3-.1.8 0 .7-.4-.1-.8.9-1.2.4-2-.4-.5-.7-1-.9-1.7 0-.1-.3-.2-.4-.2-.2.1-.5.2-.5.4-.1.4-.1.8-.2 1.2-.2 1-1.4 1.9-2.5 1.7-.3-.1-.6-.2-.7-.5s-.1-.6-.2-.9c-.1-.2-.2-.5-.5-.2-1 .9-1.8.2-2.4-.5-.4-.5-.8-1-1.3-1.4-.4-.3-.9-.4-1.3 0s-.5 1-.1 1.5l1.2 1.2c.6.6 1.1 1.4 1.3 2.3.1.5 0 1-.6 1.1-.5.1-.8.1-.9-.7 0-.8-.6-1.5-1.3-1.9-.5-.3-1.3-.1-1.4.4-.2.5.2.7.6.8.7.1.8.5.7 1.1zm-82 114.7c-1.9-.2-3.6 0-5.3.8-.9.4-1 .6-.6 1.4.2.4.5.9 1 .9.8 0 1.4.4 2 .8.4.3.8.3 1.3.3.8-.1 1.8-.4 2.5.3 1 .9 1.9.6 2.8 0 1.3-.9 2.6-1.3 3.8 0 0 0 .1 0 .2.1.2.1.3 0 .4-.1s.2-.3.2-.4c0-.2-.1-.4-.3-.6-.8-1.1-1.6-2.1-3.1-2.1-1.4-1.3-3.2-1.6-4.9-1.4zm-23.2-30.4c-.5 0-.9.1-1.3.1-.5.1-.8.4-1.1.9-.1.2-.1.5.2.5 1.1-.1 2 1.3 3.3.5.4-.2 1 .4 1 1.1 0 .3 0 .7.1.9.4.6 2.3.8 2.9.4.4-.3.7-.6 1-1 .4-.6.8-.5 1.4-.3 1.3.5 1.7.1 1.6-1.4-.1-.5 0-.8.5-1.1.8-.6 1.7-1.2 2-2.3.1-.4.4-.8 0-1.1-.6-.4-.8.1-1.1.5-.1.2-.2.4-.4.6-.5.4-1 1.1-1.8.7-.3-.1-.6 0-.9.3-.4.4-.8.4-1.3.2s-1.1-.4-1.6-.5c-.4-.1-.9-.1-1 .3-.4 1.2-1.2 1.2-2.1.8-.6 0-1.1-.1-1.4-.1zm69.3 4.4c-1.7-.3-3-.4-4.3-.2-.4.1-.6-.1-.7-.5-.1-.3-.2-.6.2-.8.5-.3 1.1-.6 1.6-1 1.2-.7 2.3-1.3 3.5-2 .4-.2.3-1.1-.2-1.2-1.1-.3-2.1-.6-3.2.1 1 1.3 1 1.7-.2 2.4-.6.4-1.3.7-2 .2-.3-.2-.6-.2-.9-.1-1.2.5-2.8 0-3.4 1.7 0 .1-.3.2-.4.2-1.3-.1-1.5 1.4-2.6 1.7-.2 0-.3.4-.4.6s-.1.5.1.6c.6.2 1.2.4 1.9.1.2-.1.3-.3.4-.5.5-1.2.5-1.2 1.4-.5.3.2.5.4.8.6s.6.1.8-.1c.3-.3.5-.6.8-.8.2-.2.5-.2.6 0 .7 1.1 1.6 1 2.6.4.3-.2.8 0 1.2-.1.8-.1 1.5-.1 2.4-.8zm60.4-82.5c.4 0 .6-.2.8-.4.8-.4.9-.3 1.2.4.2.4.4.7.1 1.1-.4.7.2.8.6 1 .5.2 1 0 1.1-.6.1-.5.3-.9.6-1.3.7-.9.8-1.9-.1-2.8-.4-.4-.1-.7-.1-1.1-.3-1.8-.7-2.1-2.4-1.7-.2 0-.4.2-.7.3-.9.2-1 .3-1.1 1.3 0 .3-.2.7-.4.8-.8.5-.6.9 0 1.4.5.5-.1 1.2.4 1.6zM534.9 261c0 .3.1.5.1.6.1 1.4.1 1.4-1.4 1.6h-.2c-.4.1-.7.3-.7.8s.4.7.8.7c.5 0 .9-.2 1.4-.2.8 0 1.1-.5 1.2-1.2 0-.2.1-.5.2-.7.3-1.7 0-2.3-1.6-2.9-.5-.2-1-.4-1.6-.3-.2.1-.5.2-.5-.2 0-1.4-1.1-1.7-2.1-2.2 0 .6.2 1.3-.8.9-.2-.1-.5-.2-.6 0-.4.6-.9 1.1-1.3 1.7-.3.5.2.9.4 1.3s.6.3 1 .2c1.8-.1 3.7-.4 5.7-.1zm-41.5-23.5c-.4-.2-.8-.5-1.2-.7-.6-.3-1.1 0-1.2.6-.1.3 0 .6.1.9s.2.7-.2.8c-.2.1-.5 0-.6-.2-.7-.7-1.4-1.5-2.6-1.5-.1.7-.2 1.3-.2 1.9 0 .4.2.8.7.8.4.1.8.1 1.2 0 1.3-.3 1.3 1 1.9 1.5s.2 1-.2 1.4c-.5.6-.3 1.2.1 1.8.2.3.5.3.8.1 1.4-1.4 1.2-3.4 1.5-5.1-.8-.8-.3-1.5-.1-2.3zm61.7-6.4c.1-.7-.4-1.2-1.1-1.2-.2 0-.3 0-.5.1-.9.5-1.7.2-2.4-.4-.2-.1-.4-.3-.6-.3s-.5.1-.5.4c.1.3.4.6.4.8-.1 1.2.5 1.7 1.5 2 .8.3 1.7.7 2.1 1.5.1.3.4.7.1.9-1 .4-.8 1.7-1.8 2-.9.2-1.2 1.2-1.8 1.8-.3.4 0 .8.3 1 .2.2.4.2.7 0 1.1-.8 2-1.9 2.6-3.1.4-.8.7-1.9.8-2.8 0-.7 0-1.7.2-2.7zm-66.7 87.7l-1.8-1.5c-.3-.3-.7-.3-1.1-.1-.5.3-1.1.4-1.5-.2-.5-.6-1-.7-1.7-.4-.2.1-.5.1-.7.1-1.8 0-1.8 0-1.1 1.6.1.3.2.6.4.9.5.9 1.4 1.2 2.3 1.6.7.3 1.2-.1 1.7-.5.4-.3.8-.4 1.3-.4.9-.1 1.7-.2 2.2-1.1zm-94.7 12c.4-.1.9-.3 1.1-.8.8-1.5 1.9-2.5 3.6-2.9.5-.1.7-.6.8-1.1 0-.2-.2-.5-.3-.5-.3-.1-.6 0-.9 0-1.3.2-2.5 1-3.8 1.3-1.5.4-2.6 1.8-4.2 2-.2 0-.4.5-.2.8.1.2.3.4.5.3 1-.5 1.8 0 2.7.5.1.2.4.2.7.4zm43.5 14c-.2-.1-.5-.2-.8 0-.1 0-.1.1-.2.2-.1.2-.1.4 0 .4.9.2 1.7 1.1 2.7.7.9-.4 1.9-.3 2.8-.5 1-.1 1.2-.2 1.5-1.2.2-.8-.2-1.4-1.1-1.3-.6.1-1.2.3-1.9.4-.4.1-.5-.2-.6-.6-.2-.8.3-.9.9-1.1s.8-.8.6-1.1c-.4-.4-.7 0-1.1.1-.3.1-.6.3-.6.6-.1.9-.6.7-1.2.4-.1-.1-.3-.2-.4-.2-.5-.1-.9.1-1 .7s.3.6.7.6c.3 0 .6 0 .9.1s.6.3.5.7c-.1.3-.3.6-.5.7-.4.7-.8.6-1.2.4zm33.9-14.6l-1.8-.3c-.4-.1-.8 0-1.1.3-.9.9-1.8 1.1-3 .8-.6-.2-1.4 0-2.1 0-1 0-2 .3-3 .6-.3.1-.5.4-.5.7s.2.5.4.5c1.4-.6 2.8.1 4.2-.5.9-.4 1.6-.2 2.5.2.7.4 1.5.5 2.2.7.3.1.8-.1.9-.2.3-1 1.4-1.6 1.3-2.8zm66.6-152.3c-.8.9-1.6 1.3-2.5 1.8-.6.4-.9.2-1.3-.4-.3-.5-1.3-.5-1.6 0s.2.6.5.8.3.5.3.8c.1.9 1 1.5 1.8 1.2.4-.1.7-.4 1-.6.6-.3 1.2-.4 1.7.2.3.4.7.3 1 0 .4-.4.7-.4 1.3-.3.7.2 1.1-.4 1.5-.9.2-.2 0-.5-.2-.6-.4-.2-.9-.2-1.4-.2-1.4.2-1.5.1-2.1-1.8zm-29.5 2.4c1.2-.6 2.9-.5 2.8-2.4 0-.6.5-1.2.7-1.7.2-.4.2-.8.1-1.2-.1-.2-.3-.5-.5-.4-1.1.6-2.4-.2-3.5.5-.2.1-.5.3-.5.4.1.9-.7 1.6-.4 2.5.3.7.7 1.2.8 2 0 .1.4.2.5.3zm-96.4 156.9c-1.4-1.2-2.8-1.4-4.3-.6-.5.3-1 .4-1.6.4-.7 0-1.2.4-1.6.9-.4.4-.3 1.1.1 1.8.3.5.7.2 1 0 .2-.1.5-.2.7-.2.9.1 1.7.1 2.4-.7.2-.2.6-.1.9 0 1.6.6 1.6.6 2.2-1.1 0-.1.1-.3.2-.5zm31.9-2.1c-.9.2-1.3.1-1.6-.2-1.2-1.2-2.4-1-3.6-.2-.4.3-.7.7-1.3.5-1.3-.4-2.3.6-3.4.8-.6.1-.4.8-.5 1.2-.1.5.2.7.6.9.9.4 1.3.3 1.8-.5.3-.4.5-.8.7-1.2.7-.8 1.3-.9 2.1 0 .5.5.9.8 1.6.3 1-.5 2.1-.9 3.6-1.6zM528 126.9c1.3.1 1.8 0 2-.3.3-.7 0-1.4-.3-2-.3-.5-.7-.6-1.2-.3-.4.3-1 .9-1.5.5-.8-.5-1.4-.1-2 0-.5 0-1-.1-1.3.4-.4.5-.9.9-.8 1.6 0 .3-.1.6-.2.9-.2.5.2.9.7.7.4-.1.8-.2 1-.5.4-.5.5-1.2 1-1.5.7-.5 1.2.5 1.9.6.3 0 .5-.1.7-.1zm14.4 118.2c-.6.1-1.2.2-1.8.4-.4.1-1 .2-1.2.7-.3.6.3.8.6 1.2.2.2.4.5.4.8 0 .8.6 1.2 1.2 1.6 1 .7 1.3.6 1.8-.5.2-.5.4-.8.9-1 .6-.2.6-.7.3-1.1-.4-.6-1-1-1.2-1.7-.3-.4-.6-.5-1-.4zM357.2 378.3c.6-.6 1.3-.5 1.9-.8.1-.1.2-.3.2-.4s-.2-.3-.3-.3c-.7-.2-1.4 0-2.1.2-1 .3-1.9.3-2.7-.4-.2-.2-.5-.1-.6.2 0 .1.1.3.1.4.7.9 1.5 1.6 1.6 2.8 0 .8 1 1.2 1.9 1.2.7-.1 1.6-.8 1.7-1.5.1-.9-.8-.8-1.3-1.1-.2-.1-.3-.2-.4-.3zm28-2.1c-1.4-.5-2.4.1-3.3-.4-1.3-.7-2.8-.5-3.9.1-1 .5-1.8.5-2.7.4-.2 0-.5 0-.7.1-.1 0-.3.2-.3.3s0 .3.1.4c.9.9 1.4.8 2.2-.2.3-.3.5-.6.9-.4.6.2 1.2.3 1.9.5 1.9.5 3.6.3 5.8-.8zm106.1-255.3c-.5-.2-1.1.3-1.7.2-1.1-.1-1.3.9-1.6 1.5s.3 1 .7 1.4c.3.3.6.6.9.8.6.5 1.4.4 2.2-.3.7-.5.8-.5.3-1.7-.2-.4 0-.7.1-1.1.1-.6-.1-.8-.9-.8zm36.5 29.4c.7 1.2 1.6 1.7 2.9 1.6.4 0 .9.2 1.4.3s1.3.6 1.5 0c.3-.7-.6-.7-1.1-.9-.4-.1-.6-.4-1-.6-1.2-.7-2.5-1.3-3.9-.4-.2.1-.5.1-.6 0-.5-.4-1-.6-1.4 0s.4.8.4 1.2c0 .2.1.4.2.7.5-.7 1.1-1.2 1.6-1.9zm-226 182.8c1 .3 1.6-.3 2.1-1.1.2-.2 0-.5-.2-.6-.5-.1-1.1-.1-1.6-.3-1.5-.5-2.8 0-3.9 1-.6.5-.5 1.2.2 1.4.9.2 1.8.8 2.6-.3.1-.2.4-.3.8-.1zm235.3-104v-.2c-.2-1.4-1.4-2.3-2.1-3.4-.1-.1-.5-.1-.6 0-.7.5-1.4 1.2-2.4 1.2-.3 0-.5.6-.4 1 .1.5.5.4.9.4.5 0 1-.1 1.4-.1 1.1-.1 1.9.1 2 1.4 0 .3.3.3.6.3s.5-.2.6-.6zM428.5 335.9c-.8-.3-1.6-.2-2.3-.2-1.2.1-2.2.8-2.9 1.8-.2.3.1.9.5.9.9 0 1.9 0 2.8-.1 1.7-.2 1.9-.4 1.9-2.4zM302.4 18.5c-.8.1-1.8 0-2.6.5-.2.1-.4.3-.3.5s.4.4.5.4c2 .1 4-.3 5.9-.7.2-.1.5-.1.7-.2.1-.1.3-.2.3-.3s-.1-.3-.2-.4c-.7-.3-1.4-.5-2.1-.1-.6.4-1.3.5-2.2.3zm89.1 295.2c-.3.1-.5.1-.6.1-1.4.2-2.2 1.5-3.5 1.8 0 0 0 .3.1.4s.2.2.4.3c.3.1.7-.1.8-.3.5-.7 1-.9 1.8-.5.2.1.5.2.7.1.9-.6 1.8-.4 2.7-.1.1 0 .3-.1.4-.2 0-.1 0-.3-.1-.4-.8-.8-2.1-.3-2.7-1.2zm86.3-82.5c-.1 0-.4.1-.4.1-.6 1.6-1 3.3-.6 5.1 0 .1.1.3.2.4s.3.2.4.2.3-.2.4-.3c.8-1.8.9-3.6.2-5.5zm-168.6-213c.5.6 1.3.4 1.8.8 1.4.9 2.6.2 3.8-.3.1 0 .1-.2.2-.4l-.1-.2c-1.9-.8-3.7-1-5.7.1zm200.1 206.2c.4-1.1-.7-1.9-1-2.9 0-.1-.3-.1-.4-.1s-.2.1-.2.1c-.1.3-.2.6-.2.9-.1.6.3 1.1.5 1.6.5 1.4.5 1.4-.7 2.2-.1 0-.1.1-.2.1-.3.2-.5.4-.3.7.2.2.4.2.6.1 1.6-.5 2-1 1.9-2.7zm-21.8 22.1c-.1.5-.2.7-.2 1 0 .4.2.6.5.7.3 0 .7.1.9-.1.3-.2.2-.6 0-.8-.7-.6-.5-1.2-.3-1.9.2-.5.2-1.1.3-1.6.1-.3.2-.6-.2-.7-.2 0-.5.1-.6.2-.5.5-.9 1.1-.6 1.9.1.5.2 1 .2 1.3zM202.8 49.2c-.3-.1-.7.4-1.2.6-.4.2-1 .1-1.2.7s.4.7.7 1.1c.1.1.3.3.3.4-.2 1.3.5 1 1.3.8.7-.2.8-.3.2-.9-.4-.5-.4-.8 0-1.2.2-.2.4-.5.5-.7.1-.4-.1-.6-.6-.8zm32.8-12.8c-.8-.1-1.3-.3-1.7 0-.2.1-.3.4-.3.6s.2.4.4.5.5.2.7.1c.9-.6 1.8-.3 2.6.1.3.1.6.2.9.2.2 0 .5-.1.6-.2.2-.2.1-.4-.1-.6-.4-.4-.9-.9-1.6-.7-.6 0-1.3.1-1.5 0zm311 226.6c-.8.2-1.8.4-2.7.7-.2.1-.4.3-.5.5-.2.4-.1.8.1 1.1.3.4.7.4 1 .1.5-.4 1.1-.6 1.7-.6.7 0 .9-.5 1-1.1.1-.4 0-.6-.6-.7zM250.7 28.4l.9-1.2c.2-.3.8-.5.5-.9-.2-.4-.7-.3-1.1-.3-.8 0-1.6.3-2.3.6-.2.1-.4.3-.4.5 0 .4.3.4.7.4.7-.1.9.5 1.7.9zM531.6 270c.8.9 1.3 1.5 1.9 2.1.2.2.5.4.8.2.4-.2.7-.5.6-.9-.1-.5-.4-1-.6-1.5-.2-.4-.5-.6-.9-.4-.5.2-1 .3-1.8.5zm-164.1 46.3v-.3c-1.4.2-2.9.4-4.3.7-.2 0-.4.3-.3.5 0 .1.1.3.2.4.7.3 1.5.5 2.2 0 .7-.4 1.5-.9 2.2-1.3zm179.2-179.9c-.1-.1-.1-.3-.2-.4-1.1-.8-1.8-.7-2.8 0-.3.2-.5.4-.4.7.1.2.3.4.5.5.9.4 2.2.1 2.8-.6.1-.1.1-.2.1-.2zm-19 3.4c-.2.8-.3 1.5-.4 2.2-.1.6.5 1.3 1.1 1.2.5 0 1.4-1.3 1.3-1.8 0-.1-.2-.3-.3-.3-.9.1-1.1-.8-1.7-1.3zm-94.1 207c.1 0 .4 0 .6-.1.4-.2 1-.4 1-.9s-.5-.8-1-.9c-.3-.1-.6-.1-.9-.1-.7.1-1.4.6-1.5 1.1-.1.4.6.9 1.5.9zm83.6-76.3c-.1-.8 0-1.7.1-2.5.1-.5.1-1.1.1-1.7 0-.2-.2-.5-.4-.5-.4-.2-.6.2-.7.5-.3 1.5-.3 2.9.9 4.2zm7.9-130.8c-.3.1-.6.1-.9.2-.7.2-1 .6-.6 1.2.3.5.3 1 .6 1.5.1.2.4.2.6.1.5-.2.5-.5.1-1.1-.2-.3-.5-.5-.3-.8.2-.4.5-.3.8-.2s.5 0 .5-.3c0-.2-.2-.4-.4-.6zm-79.5 130.1c0 .1 0 .1 0 0-.2.1-.5.1-.7.1h-.2c-.6.1-.9.5-.6 1s.3 1.4 1.1 1.4c.6 0 .9-.6 1.1-1.1.2-.3.3-.6.4-.9.1-.2-.1-.5-.3-.5-.3-.1-.6 0-.8 0zM550 215.1c-.1.1-.4.2-.3.3.2.9-.1 1.9.3 2.8.1.2.3.4.6.4.4 0 .7-.3.7-.6 0-.7-.3-1.3 0-2.1.1-.4-.8-.9-1.3-.8zm-5.3-56.4c1 .1 1.6.3 2.2.3.8 0 1.1-.6.6-1.3-.8-1.3-.8-1.3-1.8-.2-.2.3-.5.6-1 1.2zm7.5 63.3c-.4 0-.6.2-.7.5-.1.2 0 .6 0 .6.9.2 1.5.9 2.1 1.4 0 0 .3-.1.4-.2.5-1-.5-2.3-1.8-2.3zM345.4 337.7c0 .1 0 .1 0 0 .4.1.8.1 1.1.1.1 0 .3-.2.3-.3s-.1-.3-.1-.4c-.6-.2-1.4-.2-1.7-.6-.5-.7-.8-.7-1.3-.3-.3.2-.5.4-.4.8s.4.7.8.8c.3 0 .8-.1 1.3-.1zm196.4-117.2c-.1-.8 0-1.3-.3-1.8-.2-.4 0-.7.4-.9.2-.1.4-.3.2-.5-.1-.1-.4-.2-.6-.2-.5.1-.9.3-1 .9-.3.9 0 1.7 1.3 2.5zM452.1 356c-.2 1.2.5 1.9 1.2 2.7.3.3.6.1.8-.1.3-.4.6-.9 0-1.2-.7-.4-.8-.9-.6-1.6.1-.4-.2-.6-.5-.6s-.6.1-.8.4c-.1.1-.1.3-.1.4zm90.1-91.6c-1.1.1-1.9-.3-2.8-.7-.6-.4-1 .2-1.4.5-.2.2-.2.4-.1.6.3.4.7.4 1.1.4h1.9c.5 0 .9-.2 1.3-.8zM324.7 372.9c-.4-.6-1-.5-1.5-.7-.9-.4-1.2-.1-1.3.9-.1.7.2 1 .7.8.7-.4 1.4-.7 2.1-1zM473 111c-.7-.4-1.5-.3-2.2-.1-.5.1-.7.7-.5 1.1.5.7 1.1.9 1.6.2.3-.5 1.1-.4 1.1-1.2zm71.6 133.3c1.1.1 2-.3 2.8.3.2.1.4.1.6 0s0-.6-.3-.8c-1-.4-1.9-.6-3.1.5zm2.5 42.7c-.1-.1-.1-.3-.2-.4-.3-.4-.8-.5-1.2-.2s-.8.8-.6 1.4.8.3 1.2.1l.6-.3c.1-.1.2-.3.2-.6zm-173.9 72.6c-.4 0-.8.2-1 .6-.2.3-.4.7-.1 1.1s.7.4 1 .1c.2-.1.4-.3.6-.4.3-.2.5-.4.4-.8s-.5-.6-.9-.6zm174.2-78.3c.2 0 .4 0 .6-.1s.5-.2.5-.4c.1-.2-.1-.5-.2-.6-.6-.7-1.4-.7-2.3 0-.2.2-.2.4 0 .6.4.3.9.4 1.4.5zM316.2 389.9c.1-.1.3-.1.4-.3.2-.2.1-.5-.1-.6-.2-.2-.5-.4-.8-.5-.5-.2-.9-.8-1.5-.4-.4.2 0 .8.9 1.3.4.3.7.6 1.1.5zM291.8 29.2c-.4 0-.7 0-.9.3s.3.5.9.4c.7-.1 1.4-.2 2.1-.4.2 0 .5-.2.4-.5-.1-.2-.3-.3-.6-.3-.6.2-1.1 1-1.9.5zm242.8 96.6c.2.1.3.2.4.2 1.1 0 1.4 0 1.3-1.1 0-.2.1-.5 0-.7 0-.1-.2-.3-.3-.3s-.4 0-.4.1c0 .8-.8 1.1-1 1.8zM340 338.9c.8 0 1.4-.4 2-.8.2-.1.2-.3.1-.4s-.3-.3-.4-.2c-.8.2-1.6.5-2.4.8 0 0 0 .3.1.4.2.1.4.1.6.2zm104.4.9c-.2-.4-.4-.7-.8-.7-.5 0-1.3.5-1.3.9 0 .1 0 .2.1.2.3.4.7.6 1.2.6.4 0 .9-.6.8-1zm-308-286c-.7.2-1.7-.2-2.3.7v.2c.9.4 1.8.1 2.7-.2.1 0 .1-.1.2-.2s.1-.3.1-.4c0 0-.1-.1-.2-.1zm264.7 312.8c.1 0 .4-.1.6-.1.5-.2.6-.7.9-1.1.1-.2.1-.5 0-.6-.2-.2-.5-.4-.9-.2-.6.3-.9.9-1 1.5-.1.2.1.4.4.5zm91.6-15.5c-.3.4-.6.8-.9 1.3-.1.1.1.5.2.6.2.2.5.4.9.2.2-.1.4-.3.3-.5-.3-.5 0-1.1-.5-1.6zm32-125.3c-2-.5-2-.5-2 1.3.8-.3 1.5-.7 2-1.3zm10.9 30.4c0-.6-.8-1.3-1.3-1.1-.2.1-.4.3-.5.5s0 .5.2.6c.3.3.7.5 1.1.4.2-.1.3-.3.5-.4zM417.7 372.5c-.1-.6-.6-.6-1.1-.8-.3-.1-.6.1-.7.4s-.1.6.3.8c.4.3.9.3 1.3 0 .1-.1.1-.3.2-.4zm-178-319.1c.7.2 1.3.2 1.9 0 .3-.1.4-.3.3-.5 0-.3-.3-.4-.5-.4-.5.2-1.2.1-1.7.9zm-2.4-6.2c.3 0 .5-.1.5-.4.1-.4-.3-.8-.7-.8s-.9.4-.8.7c.2.5.7.5 1 .5zm1.8 337.8c.1-.1.4-.2.7-.3.1 0 .1-.1.1-.2-.1-.1-.2-.3-.3-.3-.3-.1-.6-.1-.9 0-.2 0-.5.3-.5.4.1.3.4.4.9.4zm118.8-50.8c-.1-.1-.2-.3-.3-.3-.4-.2-.8 0-1 .3-.1.1-.1.3-.1.4s.2.2.4.2c.3 0 .6-.1.9-.2 0 0 0-.2.1-.4zm-146-285.3c0-.3-.2-.4-.5-.4s-.7 0-.7.4c0 .3.2.5.4.5.3 0 .7-.1.8-.5zm29.7-21l.6-.3c.2-.2.5-.5.1-.8-.3-.2-.5.1-.8.3-.1.1-.2.3-.2.4.1.1.2.2.3.4zm62.2 266c-.1-.3-.4-.5-.8-.3-.2.1-.5.2-.5.4-.1.5.3.5.6.5.3-.1.6-.1.7-.6zM532.2 229c-.2.1-.4.2-.4.3 0 .2.1.5.3.6.1.1.4.2.6.1s.2-.4 0-.6c-.1-.1-.3-.2-.5-.4zM293 48.2c.1.1.1.3.2.4.3.1.8-.3.8-.7 0-.1-.1-.3-.3-.3-.3-.2-.6.2-.7.6zm216.6 75.3c.1-.1.3-.1.4-.2.2-.3-.2-.8-.6-.8-.1 0-.3.1-.4.2-.1.4.2.6.6.8zm30.2 98.6c0-.1-.1-.3-.2-.4s-.3-.3-.5-.3c0 0-.3.2-.2.3.1.2.2.4.4.5.1 0 .3.2.5-.1zM420.5 371.5c-.7-.1-1.2-.1-1.6-.1-.1 0-.3.1-.5.2.7.3 1.3.3 2.1-.1zM559.3 237c-.2.1-.4.2-.3.5.2.3.4.5.8.4.1 0 .3-.2.3-.3-.1-.3-.3-.6-.8-.6zm-11.6-52.9c-.4 0-.6.1-.6.5s.2.5.6.5c.3 0 .6-.1.6-.5s-.4-.4-.6-.5z" fill="#006064"/><path d="M561.4 189.3c.6.5.8 1.2 1.1 1.8.1.2 0 .5.1.7.4.9-1.4 1.1-.7 2 .5.7.4 1.3.4 2 0 .5-.4.7-.8.4-.3-.2-.7-.4-1-.7-.8-.8-1.7-1.4-3-1.3-.7.1-1-.4-1.3-.9-.7-1.4-.8-2.9-.6-4.4 0-.2.1-.5.2-.7.3-1.2.4-2.2-.8-3-.4-.3-.7-.7-.1-1.2.8-.7.7-1.7.7-2.7.1-1 0-1.9.3-2.8.4-1.3.3-2.7 0-4-.3-1.2-.2-2.3.3-3.4.4-.2.5.2.7.4 1.1 1.1 1.1 1.2 2.6.2.6-.3.9-.2 1.2.2.2.3.3.7.6 1 .8.9.9 1.8.3 2.9-.4.7-.4 1.5-.1 2.3.2.5-.2.9-.7 1.1s-.8 0-.9-.4 0-.8 0-1.2-.3-.5-.7-.5-.6.3-.6.6c0 .8.2 1.6.3 2.4.1.6.3.9.9.8.8-.1.9.8 1.4 1.1.6.3.9.9.5 1.6-.2.5 0 .9.3 1.3.5.6.6 1.1.1 1.7-.4.5.1.9.2 1.3.2.5 0 .7-.5.8-.2-.5-.5-.7-1-.9h-.4c-.1.1-.1.3-.1.4.5.4.8.7 1.1 1.1zm-2.3 3.8c1.7-.9 1-2.4 1.1-3.7 0-.3-.5-.4-.8-.3-.4.1-.6.4-.8.8-.7 1.1-.1 2.1.5 3.2zm-416.9-123c-.2.3-.3.4-.5.5-.7.2-.7 1.1-1.3 1.3-.6.3-1.2-.2-1.8-.3-.3 0-.7 0-.8.3-.5 1-1.5 1.2-2.5 1.1-.8-.1-1.6 0-2.4.1s-1.6.2-2.3-.2c-.2-.1-.6-.2-.6-.2-.6 1.2-1.6.6-2.5.7-.3 0-.6.4-1 .6-1 .7-2.1 1.2-3.3.6-.6-.3-1.2-.1-1.8.1-1.8.8-3.7.9-5.6 1.1-1.6.2-3.3.9-5 .4-.2-.1-.5 0-.7.1-1.7 1-3.4.7-5 0-.4-.2-.8-.1-1.1.1-.5.2-1 .5-1.5.7-.4.1-.8.4-1.1.4-1.8-.5-3.4.6-5.1.7s-3.3.3-5 .5c-.8.1-1.6.1-2.4-.1-.2-.6.2-.8.6-.8 1.1-.2 2.2-.5 3.3-.3.5.1 1.1.1 1.7 0 2.5-.8 5.1-1.3 7.7-1.6.3 0 .7-.2.9-.1 1.6.6 2.9-.2 4.4-.6 1.7-.4 3.4-.7 5.2-.8 1-.1 2-.3 3.1-.5 2.8-.4 5.5-.7 8.3-1.3 1.7-.4 3.5-.5 5.2-.2.4.1.8.2 1.1-.1 1.2-.8 2.4-1.2 3.8-1.2 1.2 0 2.4-.9 3.7-.2.4.2.7-.2 1.1-.4.8-.4 1.8-1 3.2-.4zm54.9-7.8c-.6-.3-1.1-.2-1.5.3-.2.3-.6.2-.9.1-.6-.3-1.3-.3-1.8.2-.7.7-1.3.7-2.1.3-.4-.2-.9-.1-1.1.3-.2.7-.6.8-1.2.8-.5 0-1 .1-1.4.3-.9.3-1.7.5-2.5-.1-.6-.4-1.2-.2-1.8.1-1.9.7-3.8 1.1-5.9 1-.2 0-.5-.1-.7 0-1.5 1.1-3.2.8-4.8.9-1.7.1-3.3.5-5 .6-1 0-2.1.1-3 .5-.5.2-.9.1-1.4-.1-.4-.2-.6-.6-.2-.9 1.2-1 2.4-1.7 4.1-1 1.1.4 2.4.4 3.5.1s2.3-.7 3.3-1.2c.8-.4 1.5-1.1 2.6-.4.2.2.8.1 1.1-.1 1.5-1 3.1-.8 4.7-.5 1.3.2 2.5.2 3.5-.8.4-.4.9-.4 1.3-.3l1.2.3c.9.1 1.4-1.3 2.4-.7.9.5 1.7 0 2.5-.1 1.5-.3 2.9-.8 4.5-.4.2.1.6.1.7 0 .9-.7 2-.4 2.9-.8s1.9-.5 2.6-1.1c.9-.8 1.9-.6 3-.7.6 0 1.2.7 1.1 1.3 0 .2-.2.5-.4.5-1.3.3-2.6.7-4 .9-1.6.2-3.2.1-4.7.9-.2-.1-.5-.2-.6-.2zm-68.3 2.6c-1-.2-1.7.1-2.5.4-1 .4-2.1.7-3.2.8-1.6.3-3.3.4-4.9.8-.2.1-.5-.1-.6-.2-.2-.4.2-.5.4-.6 1-.4 2-.9 3.2-.3.4.2.8-.1 1-.5.4-.8 1-1 1.9-1.2 1.9-.3 3.8-.6 5.7-.6.7 0 1.3-.2 1.8-.5 1.5-.7 3.1-.6 4.7-.6.1 0 .3.2.3.3s0 .4-.1.4c-.9.4-1.7 1-2.9 1.1-1.7.1-3.3.5-4.8.7zm429.8 102.7c0 1-.5 1.5-1.4 1.5-.4 0-.8-.2-.9-.6-.4-1.4-.7-2.7-1.1-4.1 0-.2.2-.4.3-.6.2-.2.5 0 .5.2.1.7 1.1.7 1.1 1.4 0 .8.7.8 1.1 1.1.4.2.4.6.4 1.1zM146.5 69.4c.3-.7.9-.9 1.4-.9l7.8-.9c.2 0 .5 0 .5.3s-.1.5-.4.5c-1.4.2-2.7.8-4.2.5-.5-.1-1.1-.2-1.4.1-1.2.8-2.4.3-3.7.4zm268.1 308.8c-.7.4-1.2.4-1.8.3-.4-.1-.9-.2-1.1.1-.9 1-2.2.8-3.3 1.1-.3.1-.9.2-.9-.4 0-.4.5-.7.9-.7 1 0 1.9-.3 2.8-.7 1.1-.3 2.2-.4 3.4.3zm148.7-87.9c-.3-1.4-.3-2.9-1-4.2-.2-.4 0-.8.3-1 .4-.3.7-.7 1.3-.8.5 2-.4 4-.6 6zM192.6 47.6c1.5-.6 2.8-.6 4.2-.5.2 0 .3.3.5.5-.2.2-.3.4-.5.4-.7 0-1.4.2-2.1.4-.6.2-1.4 0-2.1-.8zm357.6 128c.4-.3.3-.7.3-1 .1-.7.5-.9 1.1-.8.4.1.7.3 1 .6.2.3.5.7.3 1.1s-.6.4-1 .5c-.7.1-1.1-.7-1.7-.4zM96.2 57.4c.1-.2.1-.4.2-.5 1.1-.7 2.5-.7 3.8-1.1.1 0 .3.1.4.2s0 .4 0 .4c-1.5.3-2.8 1.3-4.4 1zm305.6 323.7c.3-1.1 1.1-1.3 1.9-1.7.4-.2.9 0 .9.4s-.1.8-.5.9c-.7.3-1.6-.1-2.3.4zM104.1 54.5c.1.1.3.1.4.2.2.2.1.5 0 .6-.8.9-1.8 1.2-2.3.7-.1 0-.1-.1-.1-.2 0-.6.9-1.2 2-1.3zm448.2 104.7c.6 0 1.1.6.9 1.1-.1.4-.3.7-.5 1-.1.2-.4.3-.6.1-.5-.5-.5-1.4-.1-2 0-.2.2-.2.3-.2zM97.8 61c.8-.5 1.9-.7 2.9-.8.1 0 .3.1.4.2.1.3 0 .5-.3.5-1.1.3-2.1.5-3 .1zm62.7 6.3c-.2.4-.5.6-.9.7s-.9.4-1.3 0c-.3-.3.1-.9.7-1.3.5-.3.9-.3 1.2.1.2.2.2.4.3.5zm395.2 87.8c1 .8 1.1 1.5.8 2.3 0 .1-.2.2-.3.4-.1-.1-.4-.3-.4-.5 0-.6 0-1.2-.1-2.2zm8.2 103.1c-.4 0-1-.8-.9-1.2s.7-.8 1.1-.7.7.6.6 1.1c-.1.4-.4.7-.8.8zm-12-52.5h.1c.5.1 1.2 0 1.5.5.4.7-.3 1.1-.6 1.7-.2.4-.8.4-1-.2-.2-.4-.4-.6-.7-.9-.3-.2-.4-.5-.2-.8.1-.3.4-.4.9-.3zm.6-53.4v.5c0 .2-.1.3-.3.2-.1-.1-.3-.1-.4-.2-.2-.2 0-1.3.3-1.4.1 0 .3.1.3.2.1.3.1.5.1.7zM113.2 67c.1-.4.4-.4.7-.4.3.1.6.2.5.6 0 .2-.3.4-.5.4-.3.2-.7-.3-.7-.6zm238 327.2c-.1.4-.3.6-.8.7-.2 0-.4-.1-.4-.4 0-.5.4-.6.7-.7s.5.1.5.4zm-59.6 5.7c.1 1-.9 1.7-1.8 1.3-.3-.1-.3-.5-.2-.6.5-.4 1-.7 1.5-1 .2-.1.3.2.5.3zM199.4 47.5c-.1-.1-.4-.3-.4-.5-.1-.3.2-.4.4-.4s.5.1.5.4-.2.4-.5.5zm357.4 113c-.2.1-.4.2-.5.2-.4-.1-.3-.4-.2-.7 0-.2.1-.3.3-.2.3.1.5.3.4.7zm-194.4 119c1.4-.5 2.8-.9 4.2-1.3.6-.2 1.2-.2 1.9 0 .2.1.4.3.3.6-.4 1.1-1.1 1.7-2.3 1.6-1.3-.1-2.6-.3-4-.4 0-.2 0-.3-.1-.5zM472.3 153c-.1.2-.1.4-.3.5s-.5.1-.6 0c-.6-.4-.9-1.1-1.3-1.6-.3-.4-.2-1.2.1-1.3.5-.1.6.4.9.6.6.5 1.1 1 1.2 1.8zM325.6 288.3c-.2-.2-.3-.3-.6-.3-.5.1-1.2.6-1.4-.2-.2-.6.5-.9.8-1.3.3-.3.8-.1.9.3.2.5-.4 1.2.3 1.5zm143.3-135.5c0 .1-.1.1-.1.2-.2.3-.5.2-.8.1-.3-.2-.7-.4-.6-.9 0-.1.1-.2.1-.2.4-.2 1.3.3 1.4.8zm-87.5 123.4c.2 0 .5.1.5.3.1.4-.2.5-.5.6-.4.1-.7-.2-.7-.4 0-.3.4-.5.7-.5zm124.1-87.8c-.1.5-.4.6-.7.5-.4-.1-.6-.4-.5-.7s.5-.4.8-.3c.2.2.4.3.4.5zm35.8-12.3c-.4 0-1-.3-1-.7 0-.3.2-.6.5-.7.4-.1 1 .3 1 .7.1.3-.1.6-.5.7zM426.3 326c-.2.2-.4.2-.6.2-.2-.1-.3-.2-.2-.4s.3-.3.6-.2c.1.1.1.2.2.4zm26.2 4.5c-.2.2-.5.4-.7 0 0-.1.2-.3.3-.5.1.1.3.3.4.5zm-251.6-294c.7-1.1 2-1.1 3-1.7.3-.2.6.1.8.4s0 .6-.2.8c-.3.2-.7.4-1.1.5-.7.2-1.4.4-2.1.5-.1-.2-.2-.4-.4-.5z" fill="#026165"/><path d="M1.3 535.2c-.9-.9-1.3-2.1-1.3-3.6v-59.9c0-1.5.4-2.7 1.3-3.6s2.1-1.3 3.7-1.3h36.4c1.5 0 2.7.4 3.5 1.1s1.2 1.8 1.2 3.1-.4 2.3-1.2 3-2 1-3.5 1H10v22h29.5c1.5 0 2.7.4 3.5 1.1s1.2 1.7 1.2 3.1c0 1.3-.4 2.3-1.2 3.1-.8.7-2 1.1-3.5 1.1H10v23.1h31.5c3.2 0 4.8 1.4 4.8 4.1 0 1.3-.4 2.3-1.2 3.1-.8.7-2 1.1-3.5 1.1H5c-1.5-.3-2.8-.7-3.7-1.6zm103.5.5c-.9-.9-1.4-2.2-1.4-3.8v-60.2c0-1.5.4-2.7 1.3-3.6s2.1-1.3 3.7-1.3h23.9c7.4 0 13.1 1.8 17.2 5.4s6.1 8.8 6.1 15.4-2 11.7-6.1 15.4-9.8 5.5-17.2 5.5h-18.7v23.3c0 1.6-.4 2.8-1.3 3.8-.9.9-2.2 1.4-3.8 1.4-1.5 0-2.7-.4-3.7-1.3zm26.5-35.3c9.8 0 14.7-4.3 14.7-12.8 0-8.4-4.9-12.7-14.7-12.7h-17.6v25.4h17.6zm83.6 35.3c-.9-.9-1.4-2.2-1.4-3.8v-60.5c0-1.5.5-2.8 1.4-3.7.9-1 2.1-1.4 3.7-1.4s2.8.5 3.8 1.4c.9.9 1.4 2.2 1.4 3.8V532c0 1.6-.4 2.8-1.3 3.8-.9.9-2.2 1.4-3.8 1.4-1.6-.2-2.8-.6-3.8-1.5zm124.8-3.4c0 1.3-.5 2.4-1.5 3.3s-2.1 1.4-3.4 1.4c-1.4 0-2.6-.6-3.6-1.8l-21.5-27-21.6 27c-1 1.2-2.1 1.8-3.5 1.8-1.3 0-2.4-.5-3.4-1.4s-1.5-2.1-1.5-3.3c0-1.1.4-2.1 1.2-3.1l22.8-28.2-21.7-26.9c-.8-.9-1.2-1.9-1.2-3.1 0-1.3.5-2.4 1.4-3.3 1-1 2.1-1.4 3.3-1.4 1.4 0 2.6.6 3.6 1.8l20.5 25.8 20.5-25.8c.9-1.2 2.1-1.8 3.6-1.8 1.3 0 2.4.5 3.4 1.4 1 1 1.5 2.1 1.5 3.3 0 1.1-.4 2.1-1.3 3.1L315.7 501l22.7 28.2c.8.9 1.3 2 1.3 3.1zm57.4 2.9c-.9-.9-1.3-2.1-1.3-3.6v-59.9c0-1.5.4-2.7 1.3-3.6s2.1-1.3 3.7-1.3h36.4c1.5 0 2.7.4 3.5 1.1s1.2 1.8 1.2 3.1-.4 2.3-1.2 3-2 1-3.5 1h-31.5v22h29.5c1.5 0 2.7.4 3.5 1.1s1.2 1.7 1.2 3.1c0 1.3-.4 2.3-1.2 3.1-.8.7-2 1.1-3.5 1.1h-29.5v23.1h31.5c3.2 0 4.8 1.4 4.8 4.1 0 1.3-.4 2.3-1.2 3.1-.8.7-2 1.1-3.5 1.1h-36.4c-1.6-.3-2.9-.7-3.8-1.6zm103.5.1c-.9-.9-1.3-2-1.3-3.5v-60.4c0-1.5.5-2.8 1.4-3.7.9-1 2.1-1.4 3.7-1.4s2.8.5 3.8 1.4c.9.9 1.4 2.2 1.4 3.8V528h30.1c1.5 0 2.7.4 3.5 1.1s1.2 1.8 1.2 3.2-.4 2.4-1.2 3.2c-.8.7-2 1.1-3.5 1.1h-35.3c-1.7-.1-2.9-.5-3.8-1.3zm99.7.4c-.9-.9-1.4-2.2-1.4-3.8v-60.5c0-1.5.5-2.8 1.4-3.7.9-1 2.1-1.4 3.7-1.4s2.8.5 3.8 1.4c.9.9 1.4 2.2 1.4 3.8V532c0 1.6-.4 2.8-1.3 3.8-.9.9-2.2 1.4-3.8 1.4-1.6-.2-2.8-.6-3.8-1.5zm83.6-2.7c-5-2.9-8.7-7-11.4-12.4-2.6-5.4-4-11.7-4-19.1 0-7.3 1.3-13.6 4-19 2.6-5.4 6.4-9.5 11.4-12.4s10.8-4.3 17.4-4.3c4.4 0 8.5.7 12.4 2 3.9 1.4 7.3 3.3 10.2 5.9 1.3 1 1.9 2.3 1.9 4 0 1.2-.3 2.2-1 3s-1.5 1.2-2.4 1.2c-1.1 0-2.2-.4-3.3-1.3-3.2-2.4-6.1-4-8.7-5s-5.6-1.4-8.9-1.4c-7.3 0-12.8 2.3-16.7 7s-5.8 11.4-5.8 20.2 1.9 15.6 5.8 20.3 9.5 7 16.7 7c3.2 0 6.1-.5 8.7-1.5s5.6-2.6 8.9-4.9c1.3-.9 2.4-1.3 3.3-1.3s1.7.4 2.4 1.2 1 1.8 1 3c0 1.7-.6 3-1.9 4-2.9 2.6-6.3 4.5-10.2 5.9s-8 2-12.4 2c-6.7.2-12.5-1.2-17.4-4.1z" fill="#151515"/></svg>