<svg clip-rule="evenodd" fill-rule="evenodd" height="68.986" image-rendering="optimizeQuality" shape-rendering="geometricPrecision" text-rendering="geometricPrecision" viewBox="0 -.01 748.12 303.45" width="45mm" xmlns="http://www.w3.org/2000/svg"><g fill-rule="nonzero"><path d="m223.86 77.33h-10.15v-56.75h16.6c5.86 0 10.36 1.53 13.47 4.63s4.65 7.13 4.65 12.09c0 5.29-1.7 9.4-5.06 12.33-3.39 2.93-7.89 4.41-13.52 4.41h-5.99zm-.08-33.46h5.78c5.58 0 8.35-2.19 8.35-6.58 0-4.36-2.67-6.55-7.99-6.55h-6.14zm60.64 34.23c-7.92 0-14.57-2.79-19.94-8.41s-8.07-12.5-8.07-20.69 2.72-15.07 8.17-20.69c5.42-5.62 12.05-8.41 19.84-8.41 7.87 0 14.5 2.79 19.92 8.36 5.4 5.59 8.09 12.5 8.09 20.74 0 8.14-2.7 15.02-8.09 20.63-5.42 5.64-12.05 8.47-19.92 8.47zm0-47.65c-4.83 0-8.97 1.84-12.41 5.51s-5.17 8.03-5.17 13.04c0 5.18 1.72 9.56 5.17 13.15 3.44 3.62 7.58 5.43 12.41 5.43 4.91 0 9.05-1.84 12.47-5.51s5.12-8.03 5.12-13.07c0-4.96-1.7-9.29-5.06-12.99-3.39-3.7-7.56-5.56-12.52-5.56zm71.26 36.75v10.14h-30.71v-56.75h10.15v46.61zm23.85 10.13h-10.05v-56.75h10.05zm38.77 0h-10.15v-46.5h-13.88v-10.25h37.81v10.25h-13.78zm58.45 0h-30.2v-56.75h29.74v10.17h-19.59v12.93h18.94v10.17h-18.94v13.35h20.05v10.14zm-19.94-62.84 10.33-14.5h10.69l-10.25 14.5zm62 63.33c-8.22 0-15.09-2.74-20.59-8.22s-8.25-12.41-8.25-20.8c0-8.36 2.8-15.32 8.41-20.83 5.58-5.51 12.31-8.28 20.15-8.28 4.29 0 8.74.9 13.34 2.71v11.81c-5.27-2.52-9.9-3.84-13.88-3.97-4.96 0-9.12 1.78-12.49 5.32-3.39 3.53-5.09 7.95-5.09 13.24 0 5.56 1.67 10.03 4.99 13.4 3.31 3.37 7.58 5.07 12.77 5.07 3.93 0 8.74-1.45 14.42-4.36v11.7c-4.83 2.14-9.43 3.21-13.78 3.21zm72.45-.49h-7.79l-28.3-37.4v37.4h-10.15v-56.75h7.89l28.19 37.4v-37.4h10.16zm26.19 0h-10.05v-56.75h10.05zm42.08.49c-8.22 0-15.09-2.74-20.59-8.22s-8.25-12.41-8.25-20.8c0-8.36 2.8-15.32 8.41-20.83 5.58-5.51 12.31-8.28 20.15-8.28 4.29 0 8.74.9 13.34 2.71v11.81c-5.27-2.52-9.9-3.84-13.88-3.97-4.96 0-9.12 1.78-12.49 5.32-3.39 3.53-5.09 7.95-5.09 13.24 0 5.56 1.67 10.03 4.99 13.4 3.31 3.37 7.58 5.07 12.77 5.07 3.93 0 8.74-1.45 14.42-4.36v11.7c-4.83 2.14-9.43 3.21-13.78 3.21zm52.04.28c-7.92 0-14.57-2.79-19.94-8.41s-8.07-12.5-8.07-20.69 2.72-15.07 8.17-20.69c5.42-5.62 12.05-8.41 19.84-8.41 7.87 0 14.5 2.79 19.92 8.36 5.4 5.59 8.1 12.5 8.1 20.74 0 8.14-2.7 15.02-8.1 20.63-5.42 5.64-12.05 8.47-19.92 8.47zm0-47.65c-4.83 0-8.97 1.84-12.41 5.51s-5.17 8.03-5.17 13.04c0 5.18 1.72 9.56 5.17 13.15 3.44 3.62 7.58 5.43 12.41 5.43 4.91 0 9.05-1.84 12.47-5.51s5.12-8.03 5.12-13.07c0-4.96-1.7-9.29-5.06-12.99-3.39-3.7-7.56-5.56-12.52-5.56zm-480.86 128.78h-16.68v-56.86h16.14c8.94 0 15.93 2.63 20.95 7.87 5.01 5.26 7.53 12.14 7.53 20.66 0 8.36-2.55 15.18-7.61 20.44-5.09 5.26-11.88 7.89-20.33 7.89zm-6.53-10.17h5.53c5.63 0 10.1-1.64 13.47-4.93s5.04-7.7 5.04-13.26c0-5.54-1.65-9.97-4.93-13.32-3.32-3.34-7.76-5.01-13.39-5.01h-5.71v36.53zm77.9 10.06h-30.2v-56.76h29.74v10.17h-19.58v12.94h18.94v10.16h-18.94v13.35h20.04zm58.61.68c-2.55 0-5.09-.52-7.63-1.56-2.54-1.01-4.32-1.92-5.34-2.66-1.03-.74-1.88-1.42-2.55-2.08v-11.97c6.48 5.15 11.44 7.73 14.88 7.73 1.93 0 3.55-.6 4.86-1.84 1.29-1.23 1.93-2.77 1.93-4.66 0-1.86-.59-3.34-1.8-4.44-1.21-1.07-3.62-2.3-7.25-3.67-4.78-1.73-8.17-3.95-10.2-6.66s-3.03-6-3.03-9.87c0-4.58 1.59-8.47 4.81-11.7 3.21-3.21 7.12-4.82 11.77-4.82 2.05 0 4.21.36 6.45 1.07s3.86 1.34 4.86 1.89 1.8 1.04 2.39 1.48v12.96c-4.6-4.58-9.05-6.88-13.34-6.88-1.83 0-3.37.6-4.63 1.78-1.26 1.21-1.9 2.55-1.9 4.03 0 1.62.51 2.9 1.54 3.86s3.14 2.05 6.35 3.29c5.27 2.05 8.97 4.36 11.13 6.91 2.13 2.55 3.21 6.22 3.21 10.99 0 4.52-1.62 8.44-4.86 11.78-3.24 3.37-7.12 5.04-11.64 5.04zm73.35-.68h-10.79l-5.99-15.37h-17.04l-5.35 15.37h-10.97l21.95-56.75h6.25l21.95 56.75zm-25.11-38.28-4.63 12.77h8.89l-4.27-12.77zm81.32 38.28h-7.79l-28.3-37.41v37.41h-10.15v-56.76h7.89l28.2 37.41v-37.41h10.15zm36.35 0h-10.15v-46.51h-13.88v-10.25h37.81v10.25h-13.78zm63.75 0h-10.79l-5.99-15.37h-17.04l-5.35 15.37h-10.97l21.95-56.75h6.24zm-25.11-38.28-4.63 12.77h8.89l-4.27-12.77zm75.88 38.28h-11.87l-.36-.96c-5.45-12.3-8.89-19.26-10.36-20.88-1.16-1.29-2.78-1.95-4.88-1.95h-3.8v23.79h-10.15v-56.75h15.04c6.04 0 10.72 1.51 14.03 4.55 3.29 3.04 4.93 7.01 4.93 11.97 0 5.23-2.18 9.51-6.53 12.88 1.8 2.25 6.09 10.58 12.88 25.02l1.08 2.33zm-31.28-33.92h4.45c5.99 0 8.97-2.14 8.97-6.39 0-4.14-2.88-6.19-8.61-6.19h-4.81zm72.46 33.92h-30.2v-56.75h29.74v10.17h-19.59v12.93h18.94v10.17h-18.94v13.34h20.05zm-19.94-62.84 10.33-14.5h10.69l-10.26 14.5h-10.77zm85.76 62.84h-10.16v-37.9l-14.52 19.15-14.6-19.24v37.99h-10.15v-56.76h8.43l16.32 21.19 16.25-21.19h8.43z" fill="#33bde6"/><path d="m234.78 222.34h-20.91v-39.29h20.58v7.04h-13.55v8.95h13.11v7.04h-13.11v9.24h13.88zm20.27.47c-1.76 0-3.52-.36-5.29-1.08-1.76-.7-2.99-1.33-3.7-1.84s-1.3-.99-1.76-1.44v-8.29c4.48 3.57 7.92 5.35 10.3 5.35 1.33 0 2.46-.42 3.36-1.27.89-.85 1.33-1.92 1.33-3.23 0-1.29-.41-2.32-1.25-3.07-.84-.74-2.51-1.59-5.02-2.54-3.31-1.2-5.66-2.73-7.06-4.61-1.41-1.88-2.1-4.15-2.1-6.83 0-3.17 1.1-5.86 3.33-8.1 2.22-2.22 4.93-3.34 8.15-3.34 1.42 0 2.92.25 4.47.74s2.67.93 3.36 1.31 1.25.72 1.65 1.03v8.97c-3.19-3.17-6.26-4.76-9.23-4.76-1.27 0-2.33.42-3.2 1.23-.87.83-1.32 1.76-1.32 2.79 0 1.12.36 2.01 1.07 2.67s2.17 1.42 4.4 2.28c3.65 1.42 6.21 3.02 7.7 4.78 1.48 1.76 2.22 4.31 2.22 7.61 0 3.13-1.12 5.84-3.36 8.16-2.24 2.33-4.93 3.49-8.06 3.49zm39.73-.13c-5.69 0-10.45-1.9-14.25-5.69-3.81-3.8-5.71-8.6-5.71-14.4 0-5.79 1.94-10.6 5.82-14.42 3.86-3.81 8.52-5.73 13.95-5.73 2.97 0 6.05.63 9.24 1.88v8.18c-3.65-1.75-6.85-2.65-9.61-2.75-3.43 0-6.32 1.23-8.65 3.68-2.35 2.45-3.52 5.5-3.52 9.16 0 3.85 1.16 6.94 3.45 9.28 2.29 2.33 5.25 3.51 8.84 3.51 2.72 0 6.05-1 9.98-3.02v8.1c-3.34 1.48-6.53 2.22-9.54 2.22zm35.97.19c-5.48 0-10.09-1.94-13.81-5.82-3.72-3.89-5.59-8.65-5.59-14.32s1.89-10.43 5.66-14.32c3.75-3.89 8.34-5.82 13.74-5.82 5.44 0 10.04 1.94 13.79 5.79 3.74 3.87 5.6 8.65 5.6 14.36 0 5.63-1.87 10.4-5.6 14.29-3.75 3.91-8.35 5.86-13.79 5.86zm0-32.99c-3.34 0-6.21 1.27-8.59 3.81s-3.58 5.56-3.58 9.03c0 3.59 1.19 6.62 3.58 9.11 2.38 2.5 5.25 3.76 8.59 3.76 3.4 0 6.26-1.27 8.63-3.81s3.54-5.56 3.54-9.05c0-3.43-1.18-6.43-3.5-8.99-2.35-2.56-5.23-3.85-8.67-3.85zm49.33 25.44v7.02h-21.26v-39.29h7.03v32.27zm40.61 7.02h-7.47l-4.15-10.64h-11.8l-3.7 10.64h-7.6l15.2-39.29h4.32zm-17.38-26.5-3.2 8.84h6.16l-2.95-8.84zm54.05 26.97c-1.76 0-3.52-.36-5.28-1.08-1.76-.7-2.99-1.33-3.7-1.84s-1.3-.99-1.76-1.44v-8.29c4.49 3.57 7.92 5.35 10.3 5.35 1.33 0 2.46-.42 3.36-1.27.89-.85 1.33-1.92 1.33-3.23 0-1.29-.41-2.32-1.25-3.07-.84-.74-2.51-1.59-5.02-2.54-3.31-1.2-5.66-2.73-7.06-4.61-1.41-1.88-2.1-4.15-2.1-6.83 0-3.17 1.1-5.86 3.33-8.1 2.22-2.22 4.93-3.34 8.15-3.34 1.42 0 2.92.25 4.47.74s2.67.93 3.36 1.31 1.25.72 1.65 1.03v8.97c-3.19-3.17-6.26-4.76-9.24-4.76-1.26 0-2.33.42-3.2 1.23-.87.83-1.32 1.76-1.32 2.79 0 1.12.36 2.01 1.07 2.67s2.17 1.42 4.39 2.28c3.65 1.42 6.21 3.02 7.71 4.78 1.48 1.76 2.22 4.31 2.22 7.61 0 3.13-1.12 5.84-3.36 8.16-2.24 2.33-4.93 3.49-8.06 3.49zm35.03.06c-4.02 0-7.53-1.67-10.52-5.03-3.01-3.34-4.5-7.53-4.5-12.58v-22.22h7.05v22.03c0 3.43.8 6.03 2.42 7.82 1.6 1.8 3.47 2.69 5.61 2.69 2.22 0 4.07-.99 5.59-2.98 1.51-1.99 2.26-4.59 2.26-7.8v-21.76h7.03v21.95c0 5.37-1.5 9.68-4.49 12.96s-6.48 4.91-10.44 4.91zm32.12-.53h-7.03v-39.29h11.5c4.06 0 7.17 1.06 9.32 3.21 2.15 2.14 3.22 4.93 3.22 8.37 0 3.66-1.17 6.51-3.5 8.54-2.35 2.03-5.46 3.06-9.36 3.06h-4.15v16.12zm-.05-23.16h4c3.86 0 5.78-1.52 5.78-4.55 0-3.02-1.85-4.53-5.53-4.53h-4.25v9.09zm45.75 23.16h-20.91v-39.29h20.59v7.04h-13.56v8.95h13.11v7.04h-13.11v9.24h13.88zm38.46 0h-8.22l-.25-.66c-3.77-8.52-6.16-13.34-7.17-14.46-.8-.89-1.92-1.35-3.38-1.35h-2.63v16.47h-7.03v-39.29h10.41c4.18 0 7.42 1.04 9.72 3.15 2.28 2.11 3.42 4.86 3.42 8.29 0 3.62-1.51 6.58-4.52 8.92 1.25 1.55 4.22 7.32 8.91 17.32l.75 1.61zm-21.65-23.49h3.08c4.15 0 6.21-1.48 6.21-4.42 0-2.86-1.99-4.29-5.96-4.29h-3.33zm36.61 23.49h-6.96v-39.29h6.96zm28.82.53c-5.48 0-10.09-1.94-13.81-5.82-3.72-3.89-5.59-8.65-5.59-14.32s1.89-10.43 5.66-14.32c3.76-3.89 8.35-5.82 13.74-5.82 5.44 0 10.04 1.94 13.79 5.79 3.74 3.87 5.6 8.65 5.6 14.36 0 5.63-1.87 10.4-5.6 14.29-3.75 3.91-8.35 5.86-13.79 5.86zm0-32.99c-3.34 0-6.21 1.27-8.6 3.81-2.38 2.54-3.58 5.56-3.58 9.03 0 3.59 1.19 6.62 3.58 9.11 2.39 2.5 5.25 3.76 8.6 3.76 3.4 0 6.26-1.27 8.63-3.81s3.54-5.56 3.54-9.05c0-3.43-1.18-6.43-3.51-8.99-2.35-2.56-5.23-3.85-8.66-3.85zm56.25 32.46h-8.22l-.25-.66c-3.77-8.52-6.16-13.34-7.17-14.46-.8-.89-1.92-1.35-3.38-1.35h-2.63v16.47h-7.03v-39.29h10.41c4.18 0 7.42 1.04 9.72 3.15 2.28 2.11 3.42 4.86 3.42 8.29 0 3.62-1.51 6.58-4.52 8.92 1.25 1.55 4.22 7.32 8.91 17.32l.75 1.61zm-21.65-23.49h3.08c4.15 0 6.21-1.48 6.21-4.42 0-2.86-1.99-4.29-5.96-4.29h-3.33zm-461.39 86.74h-11.55v-39.37h11.17c6.19 0 11.03 1.82 14.5 5.44 3.47 3.64 5.21 8.41 5.21 14.31 0 5.79-1.76 10.51-5.27 14.15-3.52 3.64-8.22 5.46-14.07 5.46zm-4.52-7.04h3.83c3.9 0 6.99-1.14 9.32-3.41 2.33-2.28 3.49-5.33 3.49-9.18 0-3.83-1.14-6.91-3.41-9.22-2.3-2.31-5.37-3.47-9.27-3.47h-3.95v25.29zm53.94 6.97h-20.91v-39.29h20.59v7.04h-13.56v8.95h13.11v7.04h-13.11v9.24h13.88zm50.95 0h-20.91v-39.29h20.59v7.04h-13.56v8.95h13.11v7.04h-13.11v9.24h13.88zm23.14.08h-11.55v-39.37h11.18c6.19 0 11.03 1.82 14.5 5.44 3.47 3.64 5.21 8.41 5.21 14.31 0 5.79-1.76 10.51-5.27 14.15-3.52 3.64-8.22 5.46-14.08 5.46zm-4.52-7.04h3.83c3.9 0 6.99-1.14 9.32-3.41 2.33-2.28 3.49-5.33 3.49-9.18 0-3.83-1.14-6.91-3.42-9.22-2.29-2.31-5.37-3.47-9.27-3.47h-3.95v25.29zm48.06 7.49c-4.02 0-7.53-1.67-10.52-5.03-3.01-3.34-4.5-7.53-4.5-12.58v-22.22h7.05v22.03c0 3.43.8 6.03 2.42 7.82 1.6 1.8 3.47 2.69 5.6 2.69 2.22 0 4.08-.99 5.59-2.98s2.26-4.59 2.26-7.8v-21.76h7.03v21.95c0 5.37-1.49 9.68-4.48 12.96s-6.48 4.91-10.45 4.91zm43.53-.19c-5.69 0-10.45-1.9-14.25-5.69-3.81-3.79-5.71-8.59-5.71-14.4 0-5.79 1.94-10.6 5.82-14.42 3.86-3.81 8.52-5.73 13.95-5.73 2.97 0 6.05.63 9.24 1.88v8.18c-3.65-1.75-6.85-2.65-9.61-2.75-3.43 0-6.32 1.23-8.65 3.68-2.35 2.45-3.52 5.5-3.52 9.16 0 3.85 1.16 6.94 3.45 9.28 2.29 2.33 5.25 3.51 8.84 3.51 2.72 0 6.05-1 9.98-3.02v8.1c-3.35 1.48-6.53 2.22-9.54 2.22zm50.68-.34h-7.47l-4.15-10.64h-11.8l-3.7 10.64h-7.6l15.2-39.29h4.32zm-17.38-26.5-3.2 8.84h6.16l-2.95-8.84zm43.69 26.9h-.75v1.88c.16-.06.41-.08.75-.08 2.38 0 4.25.74 5.59 2.22 1.33 1.46 2.01 3.3 2.01 5.48 0 2.41-.69 4.36-2.1 5.82-1.4 1.46-3.17 2.2-5.25 2.2-2.22 0-4.25-.65-6.08-1.94v-5.22c2.17 1.92 4.16 2.88 5.96 2.88 1.01 0 1.83-.34 2.49-1 .64-.66.96-1.56.96-2.67 0-1.16-.37-2.05-1.12-2.67-.76-.63-1.73-.95-2.9-.95-1.12 0-2.56.34-4.32 1.01v-7.44c-4.52-1.03-8.19-3.34-10.98-6.92-2.81-3.59-4.22-7.84-4.22-12.75 0-5.71 1.92-10.47 5.78-14.32 3.84-3.83 8.52-5.75 14.06-5.75 3.4 0 6.44.63 9.17 1.88v8.1c-3.56-1.8-6.76-2.69-9.61-2.69-3.47 0-6.37 1.23-8.68 3.68-2.33 2.47-3.49 5.5-3.49 9.11 0 3.85 1.14 6.94 3.42 9.31s5.23 3.55 8.88 3.55c3.18 0 6.51-1.01 9.98-3.02v8.1c-3.4 1.46-6.57 2.2-9.54 2.2zm50.53-.4h-7.47l-4.15-10.64h-11.8l-3.7 10.64h-7.6l15.2-39.29h4.32zm-17.38-26.5-3.2 8.84h6.16l-2.95-8.84zm10.93-24.3c.03 6.03-1.87 9.05-5.71 9.05-1.33 0-3.01-.61-5.02-1.84s-3.36-1.84-4.02-1.84c-.71 0-1.14 1.12-1.26 3.34h-4.84c0-5.94 1.99-8.9 5.96-8.9 1.17 0 2.9.59 5.16 1.77 2.26 1.19 3.58 1.78 3.95 1.78.55 0 .87-1.12 1-3.36h4.79zm29.29 51.33c-5.48 0-10.09-1.94-13.81-5.82-3.72-3.89-5.59-8.65-5.59-14.32s1.89-10.43 5.66-14.32c3.76-3.89 8.35-5.82 13.74-5.82 5.44 0 10.04 1.94 13.79 5.79 3.74 3.87 5.6 8.65 5.6 14.36 0 5.63-1.87 10.4-5.6 14.29-3.75 3.91-8.35 5.86-13.79 5.86zm0-32.99c-3.34 0-6.21 1.27-8.6 3.81-2.38 2.54-3.58 5.56-3.58 9.03 0 3.59 1.19 6.62 3.58 9.11 2.39 2.51 5.25 3.76 8.6 3.76 3.4 0 6.26-1.27 8.63-3.81s3.54-5.56 3.54-9.05c0-3.43-1.18-6.43-3.51-8.99-2.35-2.56-5.23-3.85-8.66-3.85z" fill="#1d1d1e"/><path d="m0 45h157.48v-38.52h-23.54v13.78h-110.4v-13.78h-23.54zm157.48 97.65h-157.48v38.52h23.53v-13.78h110.41v13.78h23.54zm-53.86-18.78c16.84 0 30.49-14.01 30.49-31.29s-13.65-31.29-30.49-31.29-30.49 14.01-30.49 31.29 13.65 31.29 30.49 31.29z" fill="#33bde6"/></g></svg>