<svg height="863" width="2500" xmlns="http://www.w3.org/2000/svg" viewBox="-0.867 0 2001.4809999999995 693.7860000000001"><g fill="#013296"><path d="M811.178 369.773h6.744c6.078-.002 12.155.01 18.233.024 6.36.013 12.722.014 19.083.016 10.668.006 21.336.018 32.004.036 10.983.019 21.967.033 32.95.041l2.055.002 10.207.007c28.182.021 56.364.056 84.546.101 2.432 4.864-1.395 13.952-3 19-8.195 19.672-23.738 32.822-42.887 41.148-14.79 5.963-29.827 8.154-45.719 8.123l-4.272.016c-3.041.011-6.082.017-9.124.018-4.817.002-9.635.02-14.453.04-11.959.05-23.918.08-35.878.102-9.312.017-18.623.04-27.935.083-4.781.022-9.562.03-14.343.028-2.98.001-5.962.015-8.943.033a804.62 804.62 0 0 1-6.07-.006c-9.07.072-18.336.88-25.774 6.626-6.184 6.907-9.01 15.906-8.875 25.004.854 8.704 4.609 16.145 11.273 21.785 7.401 4.227 14.634 4.572 22.983 4.514l3.823.022c2.726.015 5.451.018 8.178.011 4.328-.01 8.655.007 12.983.028 6.861.03 13.722.042 20.582.045 12.249.007 24.497.036 36.746.085 4.284.017 8.568.022 12.853.02 33.371-.01 60.975 3.891 86.852 26.275l2.074 1.766c15.624 14.422 27.089 37.785 28.05 58.982.764 30.153-5.27 54.506-26.124 77.252-15.692 15.879-38.035 28.655-60.87 29.246-1.726.008-3.452.006-5.178-.005l-2.91.005c-3.188.003-6.377-.008-9.566-.019h-6.891c-6.216.002-12.432-.01-18.648-.024-6.504-.013-13.008-.014-19.511-.016-10.91-.006-21.82-.018-32.729-.036-11.232-.019-22.465-.033-33.698-.041l-2.101-.002-10.436-.007c-28.82-.021-57.641-.056-86.462-.101.145-1.592.294-3.184.445-4.776l.25-2.687C703.495 667.541 713.597 653.425 725 644c24.06-17.469 50.652-22.176 79.872-22.126l4.035-.006c2.871-.004 5.742-.006 8.613-.006 4.549-.001 9.098-.014 13.646-.03l2.338-.007 4.728-.016c10.571-.035 21.142-.062 31.713-.06 7.159.002 14.317-.014 21.476-.05 3.777-.019 7.554-.028 11.331-.016 3.552.012 7.102 0 10.653-.03 1.909-.01 3.818.006 5.726.021 8.364-.1 15.709-1.431 21.774-7.617 1.588-1.937 2.858-3.881 4.095-6.057l1.027-1.8c3.263-7.022 3.088-15.728 1.246-23.114-2.904-7.815-6.751-12.795-14.406-16.324-3.59-1.465-6.363-1.891-10.214-1.907l-3.363-.02-3.693-.009-5.91-.03c-2.121-.01-4.242-.019-6.362-.026-4.432-.015-8.864-.04-13.295-.065-12.604-.07-25.208-.13-37.812-.182-6.96-.028-13.919-.064-20.878-.106-4.39-.027-8.781-.045-13.172-.056-3.404-.012-6.808-.036-10.212-.058l-3.62-.002c-29.72-.252-55.87-10.183-76.964-31.441-18.068-19.068-25.965-44.158-25.583-70.067.878-26.865 13.202-49.56 32.238-68.125C746.534 383.443 761.698 375.963 778 372l1.958-.51c10.259-2.285 20.773-1.754 31.22-1.717zM387 435c23.436-.094 46.872-.164 70.309-.207 10.883-.02 21.766-.049 32.65-.095 9.492-.04 18.985-.065 28.477-.074 5.02-.006 10.04-.018 15.06-.047 4.74-.027 9.478-.035 14.216-.03 1.726 0 3.453-.008 5.18-.024 25.109-.214 46.324 7.45 64.631 24.88 17.32 18.235 22.978 39.68 22.818 64.055v5.474c.002 4.914-.016 9.829-.037 14.743-.019 5.15-.02 10.3-.024 15.45-.01 9.736-.034 19.472-.064 29.207-.034 11.09-.05 22.182-.065 33.272-.031 22.799-.084 45.597-.151 68.396-24.218.117-48.437.205-72.656.26-11.246.025-22.493.06-33.74.117-9.808.05-19.617.082-29.426.093-5.188.007-10.376.022-15.564.059-4.896.034-9.791.044-14.688.037-1.784 0-3.569.01-5.353.03-23.088.238-42.275-7.105-59.127-23.138-14.47-14.587-22.179-34.745-22.633-55.083.283-22.646 7.403-43.502 23.421-59.695 6.543-6.34 12.945-11.04 21.141-14.993l2.034-.987c9.654-4.415 19.396-6.15 29.956-6.1l3.227-.022c3.477-.02 6.954-.02 10.431-.02 2.435-.011 4.87-.025 7.305-.04 6.379-.035 12.758-.056 19.138-.071 10.23-.025 20.461-.064 30.692-.122 3.566-.016 7.132-.02 10.699-.023l6.555-.03 2.994.007c6.45-.048 11.391-.321 16.407-4.779 3.509-4.01 3.539-6.76 3.457-11.957-.41-3.86-1.573-5.778-4.27-8.543-6.434-3.036-11.873-3.414-18.92-3.337l-3.23-.002c-2.307 0-4.612.007-6.918.02-3.664.018-7.328.016-10.992.007-10.415-.022-20.83-.011-31.245.027-6.384.022-12.766.015-19.15-.01-2.416-.004-4.833.004-7.25.023-26.364.207-45.92-6.976-65.147-25.513C396.421 464.679 388.834 450.669 387 435zm69.125 165.625c-2.634 4.183-3.425 7.458-3.125 12.375 1.825 5.373 4.948 8.474 10 11 1.482.104 2.969.146 4.454.158l2.839.03 3.124.017 3.281.03c3.593.032 7.186.057 10.779.081l7.457.063c5.882.05 11.765.095 17.648.138 7.353.055 14.706.116 22.059.176 13.12.108 26.24.209 39.359.307v-30c-13.96-.068-27.921-.123-41.882-.155-6.482-.016-12.965-.037-19.447-.071-6.257-.033-12.514-.05-18.771-.059a1602.13 1602.13 0 0 1-7.159-.032c-3.344-.022-6.688-.025-10.032-.024l-2.984-.032c-7.223.032-12.1.977-17.6 5.998zM607.218 63.86l3.43-.018 3.8-.003 3.977-.015c3.617-.013 7.234-.02 10.851-.024 2.267-.003 4.535-.007 6.802-.012 7.115-.013 14.23-.023 21.344-.027 8.17-.004 16.341-.022 24.512-.05 6.334-.023 12.67-.033 19.004-.034 3.772-.001 7.544-.007 11.315-.025 40.747-.184 75.8 6.503 106.005 35.575 25.682 25.975 36.148 58.917 36.045 94.863-.25 15.998-2.863 30.881-8.303 45.91l-1.082 3.094C836.25 265.882 818.431 286.03 798 299l-3.07 1.96c-22.115 13.393-45.695 17.222-71.215 17.138l-5.006-.005a7817.7 7817.7 0 0 1-13.094-.024c-4.465-.01-8.93-.015-13.394-.02-8.74-.01-17.48-.028-26.221-.049l.025 2.338c.033 3.536.053 7.071.073 10.607l.04 3.677c.082 19.55-6.37 34.631-19.138 49.378l-1.828 2.266c-9.603 11.54-24.218 22.763-39.547 24.734H602c-1.743-1.743-1.125-4.138-1.126-6.508l-.008-3.646.007-4.057-.005-4.27c-.004-3.929-.002-7.858.001-11.788.003-4.23 0-8.46-.004-12.691-.004-8.295-.003-16.59 0-24.884a40730.542 40730.542 0 0 0 0-28.947c-.003-18.251 0-36.502.006-54.753.004-15.679.003-31.357-.001-47.036a117813.335 117813.335 0 0 1-.004-60.361v-2.889c.002-6.734 0-13.468-.002-20.202-.003-8.201-.002-16.402.003-24.603.003-4.188.004-8.376 0-12.565-.003-3.828-.001-7.656.004-11.483.001-1.391 0-2.782-.002-4.173-.003-1.879.001-3.757.005-5.636v-3.173c.234-4.354 2.52-3.464 6.344-3.475zM666 128v123l35.063.25 10.976.11c3.313.014 3.313.014 6.626.022 1.45.006 2.899.02 4.348.04 19.108.258 35.324-4.264 49.6-17.781 12.867-14.235 17.224-30.58 16.51-49.59-.945-15.755-8.168-31.044-19.846-41.61-11.535-9.43-25.691-14.581-40.497-14.555h-2.106c-2.223 0-4.447.008-6.67.016l-4.149.003c-5.097.006-10.195.02-15.292.032L666 128zM1618.696 61.815c3.664-.002 7.328-.02 10.991-.04 27.217-.066 52.156 2.168 73.313 21.225l1.852 1.605c14.44 13.353 23.62 33.578 24.386 53.11.241 11.41-.633 21.445-4.238 32.285l-1.063 3.195c-7.097 18.878-22.442 34.828-40.5 43.52-16.608 7.223-32.583 7.708-50.433 7.578a4864.978 4864.978 0 0 1-24.78-.087c-6.115-.03-12.229-.044-18.343-.06-11.96-.032-23.92-.083-35.881-.146l2.5 2.875c2.5 2.875 2.5 2.875 2.5 5.125l1.719.793c2.466 1.305 4.551 2.844 6.781 4.52 14.744 10.422 31.111 11.786 48.625 11.863l6.332.072c3.26.035 6.519.064 9.779.078 17.185.085 34.502.805 50.264 8.424l2.236 1.04c6.314 3.031 11.883 6.72 17.264 11.21l2.383 1.895C1716.887 282.3 1725.25 296.985 1728 313v4c-13.502.023-27.004.041-40.506.052-6.272.005-12.545.012-18.817.023-6.076.011-12.151.017-18.227.02-2.295.002-4.59.005-6.885.01-12.173.029-24.326-.088-36.491-.53l-3.172-.109c-10.087-.407-19.98-1.625-29.902-3.466l-2.112-.385c-30.678-5.88-57.343-23.948-74.888-49.615-11.223-16.997-18.703-36.712-21-57l-.332-2.781c-3.5-33.219 5.881-67.742 26.332-94.219 3.46-4.204 7.2-8.105 11-12 .715-.789 1.43-1.578 2.168-2.39 19.394-20.813 49.495-31.246 77.297-32.522 8.74-.303 17.488-.274 26.231-.273zM1566 139l-2.336 1.809c-4.182 3.452-7.039 6.667-9.804 11.348l-1.626 2.744L1551 157c13.195.07 26.39.123 39.587.155 6.127.016 12.254.037 18.381.071 5.914.033 11.827.05 17.74.059 2.256.005 4.512.016 6.768.032 3.16.022 6.32.025 9.48.024l2.824.032c5.165-.024 8.761-.47 13.22-3.373 4.178-4.63 5.366-7.494 5.277-13.613-.468-4.032-1.81-6.14-4.277-9.387-4.26-2.589-7.471-3.382-12.426-3.42l-3.805-.048c-1.36-.001-2.721-.002-4.082 0l-4.245-.024c-2.966-.013-5.931-.015-8.897-.009-3.76.006-7.52-.025-11.281-.065a862.777 862.777 0 0 0-8.778-.025 351.07 351.07 0 0 1-4.151-.03c-13.65-.158-25.502 3.04-36.335 11.621zM367 374v316c-177.58 0-177.58 0-209-28l-2.543-2.145C144.879 650.753 136.832 640.123 130 628l-1.84-3.195c-15.79-29.23-17.702-67.844-8.906-99.543 9.873-32.743 31.74-58.458 61.437-75.035 6.519-3.474 13.286-5.983 20.309-8.227l2.93-.957c20.365-5.856 42.95-4.445 63.961-4.644 4.084-.04 8.168-.091 12.252-.141 7.952-.096 15.904-.18 23.857-.258l.613-2.509.81-3.284.802-3.26C311.07 408.524 327.435 392.032 343 382c7.71-4.405 14.982-8 24-8zM194.777 523.383C182.107 538.492 178.546 555.72 180 575c2.348 16.213 10.31 30.497 23.438 40.375 14.66 9.93 28.877 12.108 46.242 11.918 1.375-.004 2.751-.008 4.127-.01 5.023-.015 10.045-.057 15.068-.095L303 627V504l-34.688-.188-10.873-.082c-3.272-.01-3.272-.01-6.544-.016-1.435-.005-2.87-.015-4.305-.03-20.173-.206-37.656 4.522-51.813 19.699zM1761.129 435.566l4.71-.015c3.258-.01 6.516-.007 9.774.003 4.123.011 8.246-.009 12.37-.038 3.232-.019 6.463-.018 9.696-.012 1.518 0 3.036-.006 4.554-.019 24.079-.172 45.7 7.274 63.08 24.327 15.728 16.08 23.27 36.714 23.036 59.083-.547 18.496-6.634 34.807-18.349 49.105l-1.605 2.098c-12.123 15.056-30.543 23.97-49.395 26.902-8.224.732-16.5.606-24.75.61-2.354.014-4.707.031-7.061.05-6.142.043-12.283.063-18.425.078-6.289.02-12.577.062-18.866.102-12.299.075-24.598.125-36.898.16a875.196 875.196 0 0 0 4.172 4.762l2.347 2.678c14.063 14.507 35.365 17.343 54.582 17.669 1.918.024 3.836.046 5.754.067l3.007.036c4.145.049 8.29.096 12.434.114 30.028.154 53.644 7.66 75.411 29.377 8.17 8.882 14.57 20.918 15.838 32.976l.262 2.453L1887 690c-16.275.07-32.55.123-48.824.155-7.56.016-15.119.037-22.678.071-6.601.03-13.202.05-19.804.056-3.484.004-6.967.013-10.451.035-37.855.232-77.297-3.688-107.243-29.317l-2.453-2.05c-10.26-8.86-17.931-19.163-24.547-30.95l-1.028-1.815c-17.026-30.563-20.14-66.416-11.021-99.967 2.918-10.022 6.988-19.11 12.049-28.218l1.492-2.754c16.06-28.263 42.458-47.514 73.508-56.246 11.642-2.707 23.22-3.465 35.129-3.434zm-46.692 87.246c-2.055 2.358-2.745 4.157-3.437 7.188 13.343.07 26.686.123 40.03.155 6.195.016 12.39.037 18.586.071 5.979.033 11.957.05 17.935.059 2.282.005 4.563.016 6.845.032 3.194.022 6.387.025 9.581.024l2.864.032c4.877-.023 8.215-.168 12.159-3.373 3.407-4.138 4.144-8.754 4-14-1.537-5.209-3.403-8.085-8-11-3.288-1.084-6.372-1.133-9.82-1.145l-3.55-.02-3.83-.003-3.953-.01c-2.763-.006-5.526-.008-8.29-.007-3.518 0-7.037-.014-10.556-.031-3.38-.014-6.758-.013-10.138-.014l-3.798-.022c-19.676.05-33.53 7.605-46.628 22.064zM415.82 62.546a2433.47 2433.47 0 0 1 20.058.049c5.112.025 10.224.027 15.335.032 9.654.012 19.308.045 28.962.085 11.001.045 22.002.067 33.004.087 22.607.041 45.214.112 67.821.201a1152.93 1152.93 0 0 1-.44 4.788l-.249 2.693c-2.015 16.318-13.483 31.07-25.873 41.081-18.013 14.02-36.061 17.033-58.336 16.954-3.637-.012-7.274 0-10.911.016-6.403.027-12.807.033-19.21.031-10.271-.002-20.543.012-30.814.056-3.574.01-7.148.001-10.722-.009l-6.585.021-2.987-.023c-7.027.051-13.176.695-18.373 5.892-2.105 4.911-2.415 9.237-1.5 14.5 1.975 3.942 4.95 6.34 9 8 2.16.296 2.16.296 4.467.252l2.696.016 2.935-.013 3.111.011c2.232.007 4.464.01 6.695.008 3.547 0 7.093.012 10.639.03 10.084.046 20.168.07 30.252.077 6.17.005 12.341.03 18.512.065 2.339.01 4.678.012 7.017.007 16.276-.035 32.532.332 47.176 8.36l1.986 1.038c5.292 2.844 9.973 6.217 14.514 10.149l2.438 1.844C570.157 190.388 578.88 209.426 581 227c1.87 22.815-3.546 44.07-18 62-13.798 16.012-32.767 26.442-54.061 28.167-5.41.26-10.821.21-16.235.174h-5.386c-4.83.002-9.659-.016-14.489-.037-5.063-.019-10.127-.02-15.19-.024-9.57-.01-19.138-.034-28.707-.064-10.902-.034-21.804-.05-32.706-.065-22.409-.031-44.817-.084-67.226-.151-.176-16.977 7.74-30.396 19.313-42.313 19.63-19.63 41.654-23.914 68.433-23.963l3.367.002c3.514 0 7.029-.012 10.543-.03 9.982-.045 19.963-.07 29.945-.077 6.13-.005 12.26-.03 18.391-.065 2.329-.01 4.657-.012 6.986-.007 3.247.007 6.493-.01 9.74-.033l2.9.025c5.618-.07 8.967-.714 13.382-4.539 2.922-4.384 3.56-7.778 3-13-1.844-5.225-4.138-7.423-9-10-3.31-.566-6.563-.544-9.914-.514l-2.979-.022c-3.244-.019-6.488-.01-9.732-.003-2.267-.01-4.534-.022-6.802-.036-5.972-.032-11.944-.043-17.916-.047-9.53-.008-19.058-.044-28.588-.092-3.31-.012-6.622-.012-9.933-.01-26.843-.051-50.333-4.473-70.136-24.276-17.457-19.016-21.893-40.854-21.17-65.889.887-16.205 9.333-32.285 20.17-44.111l1.707-1.914c17.484-18.59 40.692-23.757 65.114-23.54zM1834.366 63.66c1.815 0 3.63 0 5.445-.002 4.887 0 9.775.017 14.662.038 5.122.019 10.245.02 15.367.024 9.682.01 19.364.034 29.047.064 11.03.034 22.06.05 33.09.065 22.675.031 45.349.084 68.023.151.018 1.435.03 2.87.042 4.305l.023 2.422c-.422 14.791-11.178 27.372-21.065 37.273l-1.996 2.031c-13.767 13.027-32.25 19.12-50.855 19.11l-3.28.011c-2.343.008-4.687.013-7.031.017-3.712.007-7.423.023-11.135.041-10.551.052-21.102.1-31.653.116-6.458.01-12.917.04-19.375.081-2.459.013-4.918.018-7.376.015-3.44-.002-6.879.02-10.318.048l-3.069-.02c-6.177.082-9.855.939-14.912 4.55-3.63 3.865-3.562 8.257-3.418 13.336.672 4.282 2.156 5.837 5.418 8.664 4.824 2.692 9.86 2.278 15.228 2.255l3.116.011c2.232.007 4.465.01 6.697.008 3.546 0 7.092.012 10.638.03 10.082.046 20.164.07 30.246.077 6.172.005 12.344.03 18.516.065 2.34.01 4.68.012 7.019.007 16.143-.035 31.426.496 45.977 8.36l2 1.038c5.318 2.838 10.006 6.203 14.563 10.149l2.434 1.836c12.792 10.786 22.228 29.445 23.964 45.952.173 4.017.216 8.005.164 12.025l-.01 2.129c-.08 10.75-.992 20.18-5.552 30.058l-1.129 2.742c-8.525 19.07-24.785 32.639-43.75 40.447-12.302 4.7-24.739 5.382-37.758 5.265a2379.857 2379.857 0 0 1-19.838-.049c-5.055-.025-10.11-.027-15.166-.032a9797.82 9797.82 0 0 1-28.643-.085c-10.88-.045-21.76-.067-32.641-.087-22.359-.041-44.717-.112-67.075-.201-2.346-4.691 1.43-13.156 3-18 7.396-19.829 22.618-32.632 41-42 10.963-4.96 22.324-6.306 34.257-6.255l3.193-.011c2.264-.007 4.527-.01 6.791-.008 3.586 0 7.172-.012 10.758-.03 10.188-.045 20.375-.07 30.562-.077 6.252-.005 12.503-.03 18.754-.065 2.375-.01 4.75-.012 7.125-.007 3.317.007 6.633-.01 9.95-.033l2.955.025c6.07-.074 9.704-.951 14.655-4.539 2.987-4.336 3.558-7.792 3-13-1.754-4.708-3.73-7.357-8-10-3.262-.584-6.478-.543-9.785-.514l-2.973-.022c-3.245-.019-6.49-.01-9.734-.003-2.266-.01-4.533-.022-6.799-.036a3782.75 3782.75 0 0 0-17.925-.047c-9.527-.008-19.054-.044-28.58-.092-3.31-.012-6.62-.012-9.929-.01-27.183-.052-51.111-4.174-71.275-24.276-15.083-16.27-22.416-36.93-22-59 1.28-22.715 11.04-41.808 27.203-57.578 17.158-14.858 37.238-18.907 59.163-18.763zM1082.188 89.438c20.996 19.13 35.75 40.735 42.812 68.562l.535 2.05c7.976 31.953 1.263 67.228-15.476 95.26-5.413 8.64-12.086 16.289-19.059 23.69l-1.664 1.824c-21.729 22.96-54.496 35.153-85.727 36.172-21.838.262-42.05-4.452-61.609-13.996l-3.016-1.465c-28.79-14.847-49.934-41.562-60.734-71.723-10.692-34.685-8.223-70.453 8.625-102.75C892.775 116.249 900.58 106.938 909 98l1.816-2.012c43.76-46.594 123.824-47.306 171.372-6.55zM954.62 148.03C942.928 162.232 938.826 177.845 940 196c2.15 15.864 10.1 29.627 22.21 40.012 14.896 10.618 31.941 14.94 50.106 11.902 11.253-2.792 21.284-7.862 29.684-15.914l2.137-2.016c11.452-11.779 16.399-27.462 16.213-43.627-.56-16.867-7.157-30.699-19.35-42.357-25.423-22.831-62.923-20.719-86.379 4.031zM1247.57 469.64c24.667 23.953 38.87 55.763 39.781 90.202.236 26.432-6.881 53.475-22.351 75.158l-2.207 3.105c-13.654 18.698-30.692 32.459-51.793 41.895l-1.858.855A131.925 131.925 0 0 1 1196 686l-1.909.642c-22.662 7.144-52.822 6.181-75.091-1.642l-2.095-.713c-17.985-6.256-33.16-16.24-46.905-29.287l-2.824-2.664c-16.687-16.163-27.104-37.089-33.176-59.336l-.98-3.563c-4.553-19.833-3.605-41.925 1.98-61.437l.633-2.214c6.214-20.856 17.5-38.037 32.367-53.786l1.957-2.117c47.46-49.684 129.26-45.042 177.613-.242zm-131.394 49.95c-13.644 15.114-18.129 30.253-17.32 50.179.951 14.776 8.838 27.055 19.144 37.231l1.637 1.703c10.423 9.977 25.355 14.096 39.426 14.672 17.036-.65 33.463-7.828 45.214-20.246 11.683-14.438 15.7-29.843 14.723-48.129-2.11-15.773-9.965-29.55-22.187-39.75-24.848-17.883-58.232-17.614-80.637 4.34z"/></g><path d="M95.63 122.76l2.774-.006c3.036-.003 6.073.008 9.11.019h6.566c5.92-.002 11.841.01 17.762.024 6.195.013 12.39.014 18.586.016 11.722.006 23.445.023 35.167.043 13.35.023 26.699.033 40.048.043 27.453.021 54.905.056 82.357.101-.143 1.756-.291 3.51-.44 5.266l-.249 2.962c-1.739 15.5-11.627 29.049-23.311 38.772-12.088 9.354-25.856 15.252-40.625 18.875l-2.49.616c-11.622 2.634-23.601 2.656-35.465 2.667l-5.878.023c-2.075.008-4.15.013-6.224.018-4.346.011-8.693.031-13.04.053-12.349.062-24.698.116-37.047.15-6.845.018-13.69.047-20.535.087-3.611.021-7.221.037-10.832.04-4.02.002-8.04.027-12.06.054l-3.587-.009C87.63 192.661 80.37 193.663 74 200c-1.825 2.893-1.825 2.893-3.25 6.063l-1.516 3.16c-3.54 7.967-3.286 15.959-.234 24.09 3.244 6.981 7.415 11.012 14.347 14.25 5.716 2.089 11.435 1.853 17.453 1.822l5.832.025c2.078.006 4.156.004 6.234 0 4.358-.006 8.715.01 13.074.03 9.27.037 18.54.05 27.81.06 9.97.011 19.941.027 29.912.07 3.612.016 7.225.025 10.837.02 31.199-.047 59.784 2.25 84.501 23.41l2.422 1.984C293.71 285.442 305.602 300.634 308 317c-28.096.07-56.191.123-84.287.155-13.046.016-26.093.037-39.14.071-11.379.03-22.757.05-34.136.056-6.019.004-12.037.013-18.055.035-5.68.02-11.358.027-17.037.022-2.071.001-4.142.007-6.212.019-28.604.152-56.945-4.753-78.215-25.51-1.981-2.019-1.981-2.019-4.918-3.848v-2h-2C7.837 268.184-.17 246.819-.295 222.92a373.204 373.204 0 0 0-.062-4.537C-.867 192.45 9.12 170.733 27 152l1.598-1.824C40.513 137.102 58.973 128.656 76 125l2.124-.488c5.915-1.29 11.463-1.795 17.507-1.753z" fill="#3ce481"/><path d="M1388 0l1 64 22.496-.035 14.068-.014c7.452-.006 14.903-.013 22.354-.026 6.004-.011 12.008-.017 18.012-.02 2.297-.002 4.593-.005 6.89-.01 3.203-.008 6.407-.009 9.611-.009l2.908-.01 2.63.004 2.3-.003C1492 64 1492 64 1493 65c.736 11.944-4.555 22.985-12 32l-1.84 2.328c-11.565 13.907-28.84 22.348-46.16 26.672l-2.096.537c-4.058.647-8.04.586-12.142.56-.881 0-1.762-.002-2.67-.004-2.801-.005-5.603-.018-8.404-.03-1.905-.006-3.81-.01-5.713-.014-4.659-.011-9.317-.028-13.975-.049.061 13.518.139 27.035.236 40.553.044 6.277.084 12.554.11 18.832.027 6.062.067 12.125.117 18.187.017 2.308.028 4.617.035 6.925.01 3.243.037 6.486.07 9.73l-.005 2.865c.104 7.424 1.09 14.637 5.5 20.783 7.286 5.271 15.282 6.753 24.062 7.625 19.93 2.336 36.312 6.762 50.875 21.5l2.078 2.012c9 9.3 20.922 27.733 20.922 40.988-9.738.047-19.476.082-29.215.104-4.524.01-9.05.024-13.574.047-74.938.37-74.938.37-100.211-22.151-.76-.665-1.519-1.33-2.3-2.016-14.524-13.544-24.09-33.648-24.831-53.508l-.01-3.791-.008-2.13a2299.7 2299.7 0 0 1-.012-7.008l-.015-5.049c-.013-4.56-.02-9.12-.024-13.68-.003-2.855-.007-5.71-.012-8.564-.013-8.948-.023-17.896-.027-26.844-.004-10.298-.022-20.597-.05-30.895-.023-7.98-.033-15.96-.034-23.94-.001-4.757-.007-9.513-.025-14.27-.016-4.48-.018-8.961-.01-13.442.001-1.634-.003-3.268-.013-4.902-.143-24.926 7.43-46.381 24.836-64.531C1357.265 10.058 1372.692 0 1388 0zM1546 373v65h105c0 16.36-6.752 28.59-17.957 40.11-15.154 14.835-36.228 23.12-57.258 22.988l-2.593-.005c-2.71-.005-5.42-.018-8.13-.03-1.847-.006-3.694-.01-5.54-.014-4.508-.011-9.015-.028-13.522-.049.061 13.387.139 26.774.236 40.162.044 6.216.084 12.433.11 18.65.027 6.004.067 12.008.117 18.012.017 2.286.028 4.572.035 6.858.01 3.212.037 6.424.07 9.636l-.005 2.838c.109 7.693 1.454 14.6 5.5 21.219 7.411 6.623 16.91 7.416 26.437 8.5 16.546 2.152 30.54 5.093 43.5 16.125l3.125 2.25c11.055 10.575 20.2 26.232 24.875 40.75v4c-12.258.07-24.515.123-36.773.155-5.694.016-11.387.037-17.08.071-5.505.033-11.01.05-16.514.059-2.09.005-4.179.016-6.268.032-26.807.201-49.651-5.136-69.51-24.372-15.118-15.245-23.928-35.673-24.002-57.157l-.011-2.096c-.011-2.3-.015-4.599-.019-6.898l-.02-4.97c-.02-5.427-.031-10.854-.041-16.281l-.013-5.63c-.019-8.823-.033-17.647-.041-26.47-.01-10.144-.036-20.288-.077-30.43-.03-7.867-.045-15.733-.048-23.6-.002-4.685-.011-9.37-.036-14.055-.024-4.419-.028-8.837-.018-13.255 0-1.607-.005-3.214-.02-4.82-.125-15.448 2.027-30.547 9.491-44.283l1.488-2.91c10.57-19.55 28.293-32.503 49.324-39.028 2.19-.612 3.92-1.062 6.188-1.062zM1282.25 63.875c1.92.01 3.841.02 5.762.027 4.663.022 9.325.057 13.988.098.023 8.458.04 16.915.052 25.373.005 3.927.012 7.854.023 11.78.011 3.787.017 7.574.02 11.36.002 1.448.005 2.896.01 4.344.008 2.02.008 4.042.009 6.063l.006 3.492C1302 129 1302 129 1301 130c-2.876.111-5.732.162-8.61.176l-5.417.072c-2.844.035-5.687.064-8.53.078-18.263.104-34.643 2.687-48.603 15.705-13.667 14.625-16.954 31.78-17.045 51.086l-.03 3.935c-.027 3.538-.048 7.077-.068 10.616-.022 3.706-.05 7.412-.076 11.118-.05 7.009-.095 14.017-.138 21.026-.05 7.983-.105 15.966-.16 23.95-.114 16.412-.22 32.825-.323 49.238-8.327.023-16.655.04-24.982.052-3.866.005-7.733.012-11.599.023-3.728.011-7.456.017-11.184.02-1.426.002-2.851.005-4.277.01-1.99.008-3.98.008-5.97.009l-3.438.006C1148 317 1148 317 1147 316a86.5 86.5 0 0 1-.14-5.028l-.018-3.303-.003-3.658-.015-3.83c-.013-3.482-.02-6.965-.024-10.447a9325.55 9325.55 0 0 0-.012-6.551c-.013-6.853-.023-13.707-.027-20.56-.004-7.867-.022-15.735-.05-23.602a5450.93 5450.93 0 0 1-.034-18.304c-.001-3.632-.007-7.264-.025-10.896-.188-40.099-.188-40.099 6.41-58.446l.9-2.582c5.34-14.71 12.873-27.915 23.038-39.793l1.284-1.533C1196.423 85.931 1221.575 71.863 1249 66l2.372-.544c10.218-2.058 20.507-1.676 30.878-1.581zM1443.125 437.938L1461 438v66c-19.25.313-19.25.313-25.247.388-17.896.316-34.39 3.708-47.753 16.612-13.498 14.69-16.113 30.788-16.205 50.139l-.03 3.905c-.027 3.508-.048 7.016-.068 10.523-.022 3.676-.05 7.351-.076 11.027-.05 6.948-.095 13.896-.138 20.845-.06 9.397-.125 18.795-.191 28.192-.103 14.79-.197 29.58-.292 44.369h-65c-.12-33.089-.12-33.089-.146-47.06-.018-9.61-.039-19.22-.08-28.828-.03-7.002-.05-14.003-.056-21.005-.004-3.699-.013-7.398-.035-11.097-.11-19.198-.073-38.169 6.38-56.51l.899-2.61c5.306-14.765 12.858-27.973 23.038-39.89l2.465-2.922c5.637-6.447 11.674-11.961 18.535-17.078l1.61-1.214c25.22-18.748 53.826-24 84.515-23.848zM201.979 1.88l2.345-.003c2.576-.001 5.152.004 7.728.01l5.56-.001c5.02 0 10.04.006 15.06.013 5.25.006 10.501.006 15.752.008 9.937.003 19.875.01 29.812.021 11.316.011 22.631.017 33.947.022 23.272.01 46.545.028 69.817.05-.148 1.444-.3 2.887-.452 4.33l-.255 2.436c-2.026 15.442-14.777 29.212-26.418 38.421-19.746 14.991-42.15 20.144-66.473 20.04h-5.591c-5.03.002-10.06-.01-15.09-.024-5.269-.013-10.536-.014-15.804-.016-9.962-.006-19.924-.023-29.887-.043a31231.38 31231.38 0 0 0-34.04-.043c-23.33-.021-46.66-.056-69.99-.101.143-1.435.291-2.87.44-4.305l.249-2.422c2.118-15.481 14.274-29.244 26.047-38.662C161.128 9.19 181.346 1.795 201.979 1.88z" fill="#013296"/></svg>