<svg height="863" width="2500" xmlns="http://www.w3.org/2000/svg" viewBox="-0.6570000000000004 -0.371 1722.905 594.9679999999997"><g fill="#023397"><path d="M682.232 321.88l2.5-.003c2.762-.001 5.525.004 8.287.01l5.943-.001c5.377 0 10.755.006 16.133.013 5.62.006 11.24.006 16.86.008 10.642.003 21.285.01 31.927.021 12.116.011 24.232.017 36.348.022 24.923.01 49.847.028 74.77.05-1.906 16.796-11.113 31.178-24 42-21.44 15.418-43.226 15.294-68.567 15.306-3.432.004-6.865.022-10.297.04-10.169.048-20.337.08-30.505.101-7.936.017-15.87.04-23.806.083-3.404.018-6.808.03-10.213.029-3.79 0-7.58.018-11.37.04l-3.367-.014c-9.055.084-16.585 1.406-23.371 7.735-4.843 5.409-6.931 11.171-6.77 18.407.957 8.19 4.728 13.399 10.852 18.68 6.124 4.043 12.239 3.887 19.322 3.88l3.299.02c2.36.014 4.72.023 7.081.029 3.748.008 7.495.028 11.242.052 7.97.048 15.938.081 23.908.112 9.208.036 18.416.078 27.624.136 3.67.02 7.34.028 11.011.036 29.285.132 52.605 5.223 74.532 25.77 15.118 15.793 23.027 38.135 22.645 59.785-1.536 23.185-10.606 43.877-27.621 60.023-13.978 11.752-31.38 19.94-49.823 19.87l-2.488.003c-2.748.001-5.497-.004-8.245-.01l-5.913.001c-5.351 0-10.702-.006-16.053-.013-5.592-.006-11.184-.006-16.776-.008-10.59-.003-21.178-.01-31.768-.021-12.055-.011-24.11-.017-36.166-.022-24.8-.01-49.598-.028-74.397-.05 1.042-8.835 1.042-8.835 2.566-12.148l.959-2.092 1.038-2.135 1.084-2.252c3.06-6.148 6.59-11.397 11.353-16.373l2.129-2.285c4.827-4.762 10.09-8.277 15.996-11.528l1.931-1.093c16.008-8.35 33.165-7.654 50.723-7.57 3.6.012 7.2-.002 10.801-.014 9.12-.027 18.238-.02 27.358-.01 9.874.011 19.748.016 29.623-.017 4.267-.014 8.535-.008 12.802.013 3.282.011 6.563-.003 9.844-.014l3.538.035c8.317-.062 14.569-1.486 21.068-6.83 6.017-7.392 8.121-14.2 7.187-23.687-2.448-7.916-8.066-12.78-15-17-2.87-.957-4.67-1.129-7.65-1.138l-2.896-.017-3.173-.003-3.347-.015c-2.405-.01-4.81-.02-7.214-.026-3.82-.012-7.638-.031-11.458-.053-10.86-.062-21.722-.116-32.584-.15a5571.14 5571.14 0 0 1-19.929-.1c-2.52-.014-5.04-.023-7.56-.026-28.86-.04-53.59-3.515-75.189-24.472l-1.86-1.637c-13.453-12.25-21.315-31.68-22.257-49.582-1.001-24.91 5.102-45.388 21.305-64.34 14.364-15.236 34.972-25.641 56.044-25.561zM335 376c19.168-.047 38.336-.082 57.504-.104 8.902-.01 17.803-.024 26.705-.047 7.764-.02 15.53-.033 23.294-.037 4.105-.003 8.211-.009 12.317-.023 3.876-.014 7.753-.018 11.63-.015 1.41 0 2.822-.005 4.233-.012 21.951-.115 42.52 3.206 58.977 18.91L532 397l2.121 2.016c4.326 4.418 7.36 9.22 10.192 14.671l.986 1.85c5.596 11.394 6.144 23.888 6.073 36.34a2245.268 2245.268 0 0 1-.002 16.977c-.011 4.33-.007 8.658-.005 12.986 0 7.252-.01 14.504-.029 21.757-.021 8.388-.024 16.775-.018 25.163.005 8.085 0 16.17-.011 24.255a5248.1 5248.1 0 0 0-.004 10.31c.002 4.036-.006 8.071-.022 12.106a938.148 938.148 0 0 0-.002 4.448c.003 2.018-.007 4.035-.018 6.052l-.007 3.426C551 592 551 592 549 594c-2.628.254-2.628.254-6.03.26l-3.9.022-4.303-.007c-1.505.004-3.01.01-4.514.015-4.098.014-8.196.014-12.294.012-3.426-.001-6.852.003-10.278.008-8.095.011-16.19.012-24.286.006-8.326-.006-16.652.006-24.978.027-7.16.018-14.32.024-21.481.02-4.27-.001-8.541.001-12.812.015-4.028.013-8.056.01-12.085-.002-1.468-.002-2.936 0-4.404.009-12.407.065-24.71-1.076-35.822-7.01l-2.02-1.052c-17.032-9.183-28.077-23.554-33.89-41.76-4.54-18.242-2.562-37.25 6.41-53.825 10.563-17.14 25.47-27.523 44.687-32.738 5.4-.943 10.609-1.15 16.069-1.158l2.668-.015c1.901-.01 3.802-.02 5.703-.026 3.01-.012 6.02-.032 9.029-.053 8.553-.062 17.106-.116 25.659-.15 5.24-.02 10.481-.056 15.722-.1 1.994-.014 3.988-.023 5.982-.026 2.787-.005 5.572-.028 8.358-.055l2.49.009c4.676-.068 7.398-.64 11.32-3.426h2c1.902-6.154 1.902-6.154.875-12.375-2.595-3.633-4.655-5.218-8.875-6.625-2.76-.1-5.496-.144-8.257-.142l-2.554-.01c-1.833-.008-3.666-.013-5.5-.017-2.915-.007-5.83-.023-8.747-.041-8.291-.052-16.583-.1-24.875-.116-5.074-.01-10.148-.04-15.222-.081a766.387 766.387 0 0 0-5.763-.015c-22.13.02-41.151-4.305-58.082-19.578l-2.11-1.828c-9.08-8.378-15.813-20.219-18.89-32.172.455-2.174.455-2.174 1-4zm57 144c-1.601 3.203-1.407 5.453-1 9 2.098 3.274 4.49 6.245 8 8 2.985.099 5.947.136 8.932.13l2.804.005c3.068.004 6.137.001 9.205-.002a9700.664 9700.664 0 0 0 19.743-.002c5.726-.006 11.452-.003 17.178.003 4.388.004 8.776.002 13.164 0 2.112 0 4.224 0 6.336.002 2.945.003 5.89-.001 8.836-.007l2.671.007c3.877.37 3.877.37 7.131-1.136.099-1.55.13-3.104.133-4.656l.004-2.848-.012-2.996.012-2.996-.004-2.848-.004-2.63c.095-2.022.095-2.022-1.129-3.026-2.915-.127-5.807-.19-8.723-.209l-2.774-.03c-3.045-.03-6.09-.05-9.136-.07l-3.147-.02c-5.5-.032-11-.057-16.5-.076-4.553-.018-9.105-.053-13.658-.103-5.494-.06-10.986-.09-16.48-.1a632.02 632.02 0 0 1-6.279-.057c-2.935-.039-5.868-.04-8.803-.032l-2.611-.06c-6.29.075-9.75 2.017-13.889 6.757zM523.486 54.86l2.938-.018 3.252-.003 3.405-.015c3.744-.015 7.488-.022 11.232-.027l7.81-.017c4.776-.01 9.553-.016 14.33-.019 6.993-.004 13.986-.022 20.98-.05 6.078-.025 12.157-.033 18.236-.035 2.57-.003 5.14-.01 7.711-.024 30.397-.145 59.172 4.38 82.62 25.348l2.473 2.078C720.595 101.09 732.306 126.218 735 155c1.708 30.235-6.755 56.67-26 80l-1.7 2.2c-8.706 10.812-21.075 18.55-33.3 24.8l-3.29 1.684c-6.661 3.128-13.214 5.121-20.397 6.628l-2.243.484c-16.74 3.176-34.307 2.337-51.257 2.266A7967.057 7967.057 0 0 1 575 273l.04 2.981c.179 23.214-5.709 42.546-21.638 59.84-8.053 7.757-21.434 17.974-33.117 18.242L518 354a351284.01 351284.01 0 0 1-.055-127.264v-2.7c-.005-14.446-.013-28.891-.022-43.337-.01-14.81-.015-29.622-.017-44.433-.001-9.147-.006-18.294-.014-27.44-.005-6.264-.007-12.528-.006-18.791.001-3.62 0-7.239-.005-10.858-.006-3.914-.004-7.829-.001-11.744l-.01-3.504.007-3.152-.001-2.742c.234-3.834 2.264-3.164 5.61-3.175zM575 112v103c2.454 1.227 4.067 1.133 6.81 1.145l3.037.02 3.301.003 3.403.01c2.386.005 4.772.007 7.157.007 3.617.002 7.234.02 10.85.04 2.322.003 4.644.005 6.965.005l3.24.022c17.432-.052 31.164-4.383 43.925-16.502 9.933-10.349 15.46-23.364 15.312-37.75-1.143-15.69-8.048-27.535-19.25-38.25-9.656-8.239-20.722-11.847-33.187-12.375l-2.375-.113c-16.436-.716-32.724.08-49.188.738zM317 322a290474 290474 0 0 1 .055 115.729v2.455c.005 13.136.013 26.272.022 39.408.01 13.469.015 26.937.017 40.406.001 8.318.006 16.635.014 24.953.005 5.696.007 11.392.006 17.088-.001 3.29 0 6.582.005 9.873.005 3.56.004 7.12.001 10.68l.01 3.186-.007 2.867.001 2.493C317 593 317 593 316 594a66.722 66.722 0 0 1-4.403.14l-2.883.018-3.19.003-3.342.015c-3.674.015-7.348.022-11.022.027l-7.668.017c-4.691.01-9.382.016-14.073.019-6.864.004-13.727.022-20.59.05-5.97.025-11.938.033-17.907.035-2.522.003-5.044.01-7.567.024-17.149.083-34.11-.227-50.48-5.973l-2.215-.762c-12.606-4.561-23.807-11.54-33.66-20.613l-1.582-1.453c-19.82-18.42-32.86-42.65-34.639-69.935-1.094-33.264 6.551-60.8 29.221-85.612l1.988-2.238c19.126-20.436 47.777-30.818 75.228-31.887 3.515-.084 7.03-.143 10.546-.191l3.854-.063c3.342-.054 6.684-.105 10.026-.153 3.426-.05 6.852-.106 10.278-.161 6.693-.107 13.387-.209 20.08-.307l1.198-3.296 1.599-4.34.785-2.166c7.256-19.606 22.015-31.68 40.121-40.815 3.77-1.581 7.21-2.383 11.297-2.383zM169 452c-9.198 11.83-13.263 24.909-11.559 39.875C159.77 505.069 164.586 513.569 174 523l1.715 1.75c11.117 10.438 24.38 12.566 38.972 12.445l3.935-.008c3.426-.008 6.851-.027 10.277-.05 3.507-.02 7.013-.03 10.519-.04 6.86-.02 13.721-.055 20.582-.097 1.135-2.27 1.126-3.503 1.127-6.023l.009-2.55-.007-2.802.006-2.947c.004-3.226.001-6.452-.002-9.678a10733.695 10733.695 0 0 0-.002-20.766c-.006-6.02-.003-12.039.003-18.058.004-4.615.002-9.23 0-13.846 0-2.22 0-4.44.002-6.66.003-3.098-.001-6.197-.007-9.295l.007-2.802-.009-2.55-.001-2.22c-.017-1.905-.017-1.905-1.126-3.803a4448.52 4448.52 0 0 0-23.267-.165 1879.28 1879.28 0 0 1-7.902-.061c-3.803-.037-7.606-.054-11.41-.067l-3.523-.047c-17.854-.004-32.76 6.09-44.898 19.34zM1600.287 395.125c8.958 8.816 15.014 18.831 18.713 30.875l.742 2.371c4.679 18.491.632 37.534-8.623 53.782-9.504 15.683-24.88 25.922-42.521 30.34-6.196 1.21-12.18 1.667-18.47 1.712l-2.605.03c-2.819.032-5.638.057-8.457.081l-5.889.063c-5.15.055-10.3.105-15.451.153-5.262.05-10.524.106-15.787.161-10.313.108-20.626.21-30.939.307a849.861 849.861 0 0 0 4.629 5.25c.86.975 1.718 1.95 2.604 2.953 9.155 9.253 21.347 13.056 34.125 13.238h2.943l3.148.04c3.288.04 6.575.063 9.863.081 28.228.207 53.196 1.701 74.688 22.438 8.818 9.633 16.068 20.903 18 34-1.597 1.597-3.266 1.133-5.479 1.14l-2.934.018-3.247.003-3.4.015c-3.74.015-7.478.022-11.217.027l-7.803.017c-4.773.01-9.546.016-14.32.019-6.984.004-13.969.022-20.953.05-6.074.025-12.147.033-18.22.035-2.568.003-5.134.01-7.701.024-17.464.083-34.915.016-51.414-6.473l-2.363-.903c-25.655-10.208-47.398-30.552-58.762-55.722-11.86-27.693-12.929-59.233-1.969-87.378 4.444-10.642 10.526-19.938 17.782-28.872l1.738-2.203c16.005-19.405 41.82-32.252 66.582-35.461 76.611-6.994 76.611-6.994 102.967 17.79zm-127.424 56.64c-2.047 2.18-2.047 2.18-2.863 5.235 11.11.093 22.219.164 33.328.207 5.159.021 10.318.05 15.476.095 4.98.043 9.96.067 14.94.078 1.898.007 3.796.021 5.695.043 2.662.029 5.323.033 7.985.031l2.372.044c5.175-.04 8.102-1.077 12.204-4.498 2.69-4.034 2.793-7.26 2-12-1.645-3.223-3.871-5.377-7.065-7.14-4.238-1.242-8.308-1.185-12.705-1.196l-2.89-.02c-2.021-.01-4.043-.015-6.064-.015-3.04-.004-6.078-.04-9.118-.078-21.22-.124-37.953 3.457-53.295 19.215zM1377.684 54.762l1.992-.013c3.488-.02 6.975-.035 10.462-.044 2.85-.009 5.7-.03 8.55-.062 24.908-.272 47.264.995 66.233 19.085 12.833 12.854 20.188 28.712 20.46 46.887-.038 21.218-5.577 37.413-20.764 52.8-12.003 11.25-25.323 17.288-41.753 18.128l-2.394.126c-8.76.436-17.52.557-26.29.647l-5.17.063c-4.468.055-8.936.105-13.404.153-4.586.051-9.172.106-13.758.161-8.95.107-17.899.209-26.848.307a869.865 869.865 0 0 0 4.168 4.758l2.344 2.676c8.988 9.271 22.075 14.296 34.897 14.664l3.728-.035 4.16-.027 2.174-.019c56.507-.439 56.507-.439 77.571 19.913A285.88 285.88 0 0 1 1468 239l2.082 2.129C1477.643 249.283 1485 260.582 1485 272c-144.601 5.567-144.601 5.567-183.969-29.656-21.196-20.244-32.526-48.055-33.314-77.224-.373-30.955 11.841-58.033 33.283-80.12 20.542-20.61 48.088-30.072 76.684-30.238zm-38.153 72.687c-3.944 3.742-3.944 3.742-5.531 8.551 10.7.07 21.402.123 32.103.155 4.97.016 9.938.037 14.907.071 4.799.033 9.597.05 14.395.059 1.828.005 3.656.016 5.484.032 2.566.022 5.131.025 7.697.024l2.276.032c6.144-.036 10.973-1.265 15.513-5.685 1.905-3.151 2.625-4.993 2.625-8.688-1.698-4.449-3.985-7.415-8-10-2.337-.498-2.337-.498-4.86-.512l-2.856-.108-3.034-.067-3.134-.097c-3.038-.088-6.077-.154-9.116-.216l-2.352-.066c-21.109-.592-40.414.937-56.117 16.515zM1577.958 54.66c1.568 0 3.137 0 4.705-.002 4.22 0 8.44.017 12.66.038 4.425.019 8.849.02 13.273.024 8.361.01 16.723.034 25.084.064 9.526.034 19.052.05 28.578.065 19.581.031 39.161.084 58.742.151-1.04 7.713-1.04 7.713-2.602 10.867l-.975 1.981-1.048 2.027-1.081 2.122C1711.29 79.652 1706.344 86.12 1700 92l-1.559 1.574c-14.371 13.754-33.795 18.581-53.17 18.568l-2.487.01c-1.765.008-3.53.013-5.294.017-2.796.007-5.591.023-8.387.041-7.943.052-15.886.1-23.829.116-4.873.01-9.746.04-14.62.081-1.85.013-3.702.018-5.553.015-2.587-.002-5.173.02-7.76.048l-2.3-.02c-5.134.09-8.09 1.298-12.041 4.55-1.74 3.48-1.585 7.203-1 11 2.843 3.818 5.506 5.615 10 7 2.962.283 5.909.27 8.883.255l2.682.011c1.92.007 3.84.01 5.759.008 3.05 0 6.1.012 9.149.03 8.67.046 17.341.07 26.012.077 5.31.005 10.619.03 15.928.065 2.012.01 4.024.012 6.036.007 22.805-.058 40.764 5.145 57.551 21.547 14.308 16.239 18.248 35.398 17.211 56.436-1.204 14.614-8.764 26.765-18.211 37.564l-1.68 1.934c-10.987 11.802-26.897 18.43-42.846 19.246-4.077.065-8.15.068-12.227.047h-4.674c-4.198.002-8.396-.01-12.593-.024-4.399-.013-8.798-.014-13.197-.016-8.315-.006-16.63-.023-24.946-.043-9.473-.022-18.945-.033-28.418-.043-19.473-.021-38.946-.056-58.419-.101.295-1.417.595-2.833.898-4.248l.505-2.39c.927-3.67 2.448-6.938 4.16-10.3l1.062-2.095c3.276-6.201 7.309-11.114 12.375-15.967l2.266-2.324c21.323-20.794 50.233-19.852 78.097-19.633l4.403.03c6.06.046 12.12.094 18.18.174 3.757.048 7.514.077 11.272.094 1.415.01 2.83.027 4.245.051 10.508.286 10.508.286 19.537-4.392 2.226-2.701 2.226-2.701 3-6-.768-4.95-2.108-7.837-6-11-2.952-1.476-5.955-1.17-9.193-1.19l-2.249-.025c-1.616-.017-3.233-.032-4.85-.045-2.576-.021-5.152-.048-7.727-.077-5.494-.06-10.987-.112-16.481-.163-6.316-.06-12.632-.123-18.948-.192a3579.4 3579.4 0 0 0-7.52-.068c-7.961-.077-15.906-.27-23.858-.687l-2.234-.113c-16.046-.925-29.814-8.03-40.94-19.44l-2.332-2.234c-12.97-13.17-18.217-30.357-18.088-48.533.605-19.372 8.79-35.888 22.654-49.413 4.807-4.145 10.025-7.237 15.641-10.132l1.889-.988c10.997-5.388 22.152-6.133 34.194-6.04zM361.023 54.66c1.54 0 3.078 0 4.618-.002 4.127 0 8.254.017 12.38.038 4.333.019 8.665.02 12.997.024 8.18.01 16.361.034 24.542.064 9.323.034 18.646.05 27.969.065 19.157.031 38.314.084 57.471.151-2.165 16.275-11.832 30.554-24.375 40.973-18.884 13.77-38.41 16.136-61.006 16.226-2.725.012-5.449.032-8.173.053-7.737.062-15.474.116-23.212.15-4.752.02-9.504.056-14.257.1-1.804.014-3.609.023-5.413.026-2.518.005-5.034.028-7.552.055l-2.245-.009c-4.424.072-7.261.684-10.767 3.426-2.481 3.722-2.523 6.69-2 11 1.408 3.728 2.513 4.743 6.05 6.613 4.358 1.77 8.437 1.806 13.091 1.772l2.694.016c1.92.01 3.841.013 5.762.01 3.05-.005 6.098.01 9.147.028 6.481.037 12.962.05 19.443.061 7.499.012 14.996.034 22.494.08 2.987.013 5.973.01 8.96.005 21.595.062 38.81 5.981 54.359 21.415 13.88 16.17 18.477 34.61 17.228 55.535-1.698 18.391-11.831 33.505-25.533 45.363-11.132 8.68-24.164 14.233-38.37 14.222l-1.993.003c-2.196.001-4.392-.004-6.587-.01l-4.731.001c-4.277 0-8.553-.006-12.83-.013-4.47-.006-8.942-.006-13.413-.008-8.464-.003-16.928-.01-25.392-.021-9.637-.011-19.275-.017-28.912-.022-19.822-.01-39.645-.028-59.467-.05.297-1.418.599-2.836.903-4.253l.507-2.392c.906-3.615 2.357-6.848 4.027-10.167l1.043-2.076c3.769-7.12 8.759-12.556 14.52-18.112l1.918-2.012c4.038-3.967 8.658-6.587 13.644-9.175l1.837-.974c12.76-6.285 25.425-7.418 39.394-7.355 2.894.012 5.787 0 8.681-.016 5.096-.027 10.192-.033 15.288-.031 8.175.002 16.35-.012 24.524-.056 2.837-.01 5.673-.001 8.51.009l5.25-.021 2.353.023c5.364-.049 10.885-.657 15.601-3.392 1.944-3.652 2.392-6.975 1.605-11.04-1.56-4.287-3.601-6.049-7.605-7.96-18.704-3.017-39.1-1.038-58.025-.904-3.899.027-7.797.044-11.695.055-1.462.006-2.924.016-4.386.03-23.31.223-42.26-4.576-59.609-20.798-3.65-3.806-6.555-7.882-9.285-12.383l-1.398-2.293c-8.393-15.182-10.077-34.228-6.602-51.082 5.7-18.552 18.215-33.904 35.055-43.336 13.153-6.593 26.497-7.744 40.968-7.63zM1073.317 406.863c20.46 19.933 31.291 46.538 32.017 74.944.388 30.923-9.486 57.75-31.02 80.16-20.587 20.963-48.5 32.105-77.814 32.408-30.985-.32-58.613-12.789-80.254-34.711-21.353-22.492-29.009-51.245-28.488-81.566.904-29.15 14.923-54.654 35.531-74.692 42.82-38.007 108.88-35.37 150.028 3.457zM956 452c-9.59 13.212-12.74 26.857-11 43 2.436 13.334 11.032 25.252 22 33 13.076 7.596 25.218 11.403 40.543 8.277 15.386-4.455 27.329-13.318 35.457-27.277 7.004-13.085 7.025-27.105 3-41-4.838-13.355-14.41-23.565-27-30-22.409-9.77-46.703-4.597-63 14zM929.875 78.5c1.725 1.48 3.435 2.98 5.125 4.5l2.324 2.074c18.036 17.028 30.404 42.538 31.881 67.374.099 3.77.124 7.531.108 11.302l-.007 2.012c-.16 30.638-12.237 56.123-33.808 77.81-22.43 21.377-50.948 29.478-81.26 28.776-14.562-.625-28.07-4.183-41.238-10.348l-2.875-1.332c-24.264-12.238-43.937-35.358-52.66-61.004-9.298-29.2-7.453-60.218 6.488-87.621 3.92-7.302 8.656-13.77 14.047-20.043l1.566-2.004C815.546 45.361 887.08 44.394 929.875 78.5zM841 115l-2.648 1.148c-12.986 6.293-21.996 17.299-27.442 30.493-4.369 13.45-2.47 27.732 3.215 40.422C821.147 200.308 833.008 209.27 847 214c12.816 3.376 27.404 1.528 38.996-4.578 13.688-8.246 22.016-19.92 26.004-35.422 2.74-14.343-.24-27.624-8-40-8.29-10.996-19.231-19.472-33-22-9.977-.89-20.75-1.282-30 3z"/></g><path d="M86.608 109.66c1.972 0 3.944 0 5.916-.002 5.326 0 10.651.017 15.977.038 5.576.019 11.152.02 16.728.024 10.547.01 21.093.034 31.64.064 12.012.034 24.024.05 36.036.065 24.698.031 49.397.084 74.095.151a191670620.869 191670620.869 0 0 1-2.203 7.502c-5.086 15.948-20.855 31.066-35.086 39.123-18.492 9.379-36.694 9.799-56.95 9.633-2.416-.008-4.833-.015-7.25-.02-6.32-.017-12.64-.051-18.96-.09-10.13-.06-20.26-.094-30.39-.126-3.518-.014-7.036-.036-10.554-.058l-6.514-.03-2.921-.025c-16.689-.067-16.689-.067-31.024 7.696-4.556 4.905-6.731 10.18-7.586 16.77C58.376 197.116 60.93 204.33 66 209c6.615 3.942 12.431 6.12 20.17 6.131l3.091.012 3.36-.001 3.564.01c2.555.008 5.11.013 7.664.017 4.054.006 8.108.022 12.162.041a253089.809 253089.809 0 0 0 6.289.029c9.43.042 18.861.075 28.292.087 6.37.008 12.74.031 19.109.07 3.362.019 6.724.03 10.087.026 16.892-.01 32.197.22 47.462 8.266l2.004 1.03c6.24 3.333 11.551 7.488 16.746 12.282l2.133 1.855c8.472 7.791 15.744 19.028 18.867 30.145v3c-45.1.66-90.198 1.313-135.304 1.023-3.2-.02-6.399-.036-9.598-.051-7.322-.036-14.644-.097-21.966-.182-2.501-.026-5.002-.047-7.503-.06-16.548-.103-33.158-.349-48.067-8.48l-1.982-1.037C36.845 260.116 31.808 256.406 27 252l-1.914-1.707c-15-14.107-24.027-34.8-25.063-55.17-.68-25.217 8.442-45.965 25.664-64.248C34.228 122.543 44.75 116.836 56 113l2.034-.752c9.399-3.06 18.808-2.648 28.574-2.589z" fill="#38e67d"/><path d="M1330 322l1 53 88 1c-1.127 9.016-1.127 9.016-2.566 11.93l-.959 1.955-1.037 1.99-1.085 2.11c-9.257 17.48-24.926 30.147-43.693 36.277-9.001 2.498-17.788 2.94-27.086 3.289l-3.375.133c-2.733.108-5.466.213-8.199.316a6534.702 6534.702 0 0 0-.26 34.79c-.025 5.384-.06 10.77-.117 16.154-.055 5.2-.084 10.4-.097 15.6a659.75 659.75 0 0 1-.055 5.943 598.304 598.304 0 0 0-.039 8.343l-.054 2.463c.053 5.94 1.714 10.183 5.622 14.707 5.345 3.886 10.733 4.617 17.188 5 17.205 1.447 31.87 7.46 44.812 19l2.152 1.902c8.997 8.445 14.931 19.477 18.848 31.098a93.237 93.237 0 0 1 0 5c-9.815.047-19.63.082-29.445.104-4.559.01-9.118.024-13.676.047-4.41.022-8.818.034-13.228.039-1.672.003-3.344.01-5.016.021-24.62.154-45.533-4.358-63.705-22.059-16.61-17.174-21.084-38.21-21.075-61.344l-.01-3.926c-.01-3.531-.012-7.063-.012-10.594-.001-2.214-.003-4.428-.006-6.641-.009-7.745-.013-15.49-.012-23.235 0-7.184-.01-14.368-.026-21.552-.013-6.196-.018-12.393-.018-18.59 0-3.687-.002-7.375-.013-11.063-.012-4.123-.007-8.245 0-12.368-.007-1.198-.012-2.396-.018-3.63.082-22.203 5.575-42.4 21.447-58.49C1303.827 331.4 1316.091 322 1330 322zM1194 0c1.229 2.458 1.114 4.038 1.098 6.785l-.01 3.014-.025 3.264-.012 3.34c-.016 4.731-.045 9.462-.072 14.194-.018 3.447-.03 6.894-.042 10.34l-.025 3.264-.01 3.014-.016 2.66c-.025 2.18-.025 2.18 1.114 4.125l87 1c-1.724 12.07-6.844 20.396-14 30l-1.496 2.066c-12.006 15.356-30.62 21.705-49.134 24.478-4.793.583-9.548.567-14.37.518l-2.637-.013c-2.12-.012-4.242-.03-6.363-.049-.023 8.895-.041 17.79-.052 26.684-.005 4.132-.012 8.265-.023 12.397-.094 22.176-.094 22.176.329 44.345l.042 2.454c.263 6.056 2.242 9.836 6.653 13.929 2.342 1.36 4.19 1.83 6.863 2.254l2.946.488c2.24.31 4.485.576 6.734.804 20.823 2.224 38.528 11.548 52.133 27.708 3.046 4.112 5.421 8.518 7.75 13.062l1.05 2.028.973 1.98.865 1.746c1.037 2.985 1.353 5.994 1.737 9.121-15.078 1.024-30.135 1.218-45.244 1.24-2.678.005-5.356.019-8.033.041-26.69.22-49.938-1.686-70.344-20.879-14.621-14.765-21.737-33.094-21.921-53.745l.024-4.005c-.005-1.456-.012-2.912-.02-4.367-.019-3.901-.012-7.802 0-11.703.01-4.114.001-8.228-.005-12.342-.007-6.904.002-13.807.022-20.71.021-7.942.014-15.885-.008-23.827-.018-6.862-.02-13.725-.01-20.587.006-4.08.007-8.16-.006-12.24-.012-3.837-.003-7.674.02-11.512.005-1.395.003-2.79-.006-4.185-.108-18.703 5.397-34.814 17.531-49.179l1.355-1.793C1164.516 10.749 1180.268-.371 1194 0zM1241.063 375.813l3.99-.038 3.795-.005 3.437-.013C1255 376 1255 376 1257 378c.247 2.284.247 2.284.243 5.168l.01 3.266-.023 3.539v3.616c-.004 2.526-.012 5.052-.024 7.578-.018 3.883-.02 7.765-.02 11.647-.005 2.449-.011 4.898-.018 7.346l-.003 3.545-.02 3.256-.011 2.882C1257 432 1257 432 1256 433c-2.15.122-4.304.18-6.457.21l-4.064.087c-2.128.04-4.256.078-6.384.104-16.783.23-32.422 3.274-44.997 15.279-10.17 11.248-14.73 23.326-14.612 38.39l-.022 3.454c-.019 3.724-.01 7.447-.003 11.171-.01 2.602-.022 5.203-.036 7.804-.029 6.12-.042 12.241-.045 18.362a9226.417 9226.417 0 0 1-.094 34.911 2978.67 2978.67 0 0 0-.01 11.47l-.02 6.981.012 3.236-.016 2.94-.001 2.561C1179 592 1179 592 1177 594c-2.284.247-2.284.247-5.168.243l-3.266.01-3.539-.023h-3.616c-2.526-.004-5.052-.012-7.578-.024-3.883-.018-7.765-.02-11.647-.02-2.449-.005-4.898-.011-7.346-.018l-3.545-.003-3.256-.02-2.882-.011C1123 594 1123 594 1122 593a71.497 71.497 0 0 1-.14-4.562l-.018-2.989-.003-3.308-.015-3.465c-.015-3.809-.022-7.617-.027-11.426l-.013-5.937c-.012-5.528-.02-11.056-.023-16.584-.004-7.114-.022-14.229-.05-21.343-.023-5.514-.033-11.029-.034-16.543a2079.77 2079.77 0 0 0-.025-9.853c-.147-31.336 4.952-58.98 26.348-82.99l2.113-2.547c14.402-16.955 34.507-27.796 56.012-32.703l2.169-.495c10.838-2.307 21.725-2.437 32.769-2.443zM1091.215 54.902l2.593.005c2.71.005 5.42.018 8.13.03 1.847.006 3.694.01 5.54.014 4.508.011 9.015.028 13.522.049.023 7.284.04 14.568.052 21.853.005 3.382.012 6.764.023 10.146.013 3.884.018 7.769.023 11.653l.015 3.697v3.397l.007 3.008C1121 111 1121 111 1120 112c-2.513.099-5.002.137-7.516.14l-4.734.06c-2.481.028-4.962.05-7.443.05-17.241.025-30.103 4.042-43.057 16.063-11.687 12.32-14.543 28.526-14.553 44.926l-.026 3.221c-.025 3.475-.037 6.949-.05 10.423-.016 2.426-.033 4.851-.051 7.277-.046 6.355-.08 12.71-.113 19.065a16201.32 16201.32 0 0 1-.188 30.62c-.023 3.569-.039 7.137-.055 10.705l-.04 6.505-.008 3.025-.021 2.736-.012 2.39C1042 271 1042 271 1041 272c-1.683.099-3.37.128-5.055.13l-3.266.009-3.554-.006-3.62.003c-2.533 0-5.065-.001-7.597-.006-3.891-.005-7.782 0-11.674.007-2.453 0-4.906-.002-7.359-.004l-3.554.006-3.266-.01-2.891-.002C987 272 987 272 986 271c-.1-1.484-.13-2.973-.134-4.461l-.013-2.922.002-3.233-.01-3.385c-.01-3.721-.012-7.442-.013-11.163l-.01-7.757c-.006-5.44-.008-10.879-.007-16.318 0-6.254-.01-12.507-.026-18.76a7119 7119 0 0 1-.018-18.111c0-2.556-.005-5.111-.013-7.667-.098-35.681 6.553-65.017 31.719-91.73 19.39-19.152 46.46-30.763 73.738-30.59zM183.076 1.546a1948.257 1948.257 0 0 1 17.966.049c4.579.025 9.158.027 13.737.032 8.645.012 17.289.045 25.933.085 9.853.045 19.706.067 29.559.087C290.514 1.84 310.757 1.91 331 2c-2.201 13.982-11.015 25.403-21 35l-1.984 2.008c-19.865 18.93-46.533 20.177-72.397 20.106h-4.41c-3.94 0-7.878-.006-11.817-.013-4.136-.006-8.272-.006-12.408-.008-7.809-.003-15.618-.01-23.426-.021-8.9-.011-17.8-.017-26.7-.022-18.286-.01-36.572-.028-54.858-.05-1.272-3.867-.451-5.842 1.35-9.482l1.087-2.08 1.108-2.155C113.684 29.83 124.203 19.788 139 11l2.527-1.54c12.723-7.089 27.322-8.056 41.55-7.914z" fill="#023397"/></svg>