<svg height="669" viewBox="2.561 2.57 464.021 122.885" width="2500" xmlns="http://www.w3.org/2000/svg"><g stroke-miterlimit="10" stroke-width="5"><g stroke-linecap="round"><path d="m38.894 10.03.324 12.652-22.384.973v22.708l17.194.324.649 12.003-16.87.325v21.41l25.629 1.298.648 12.003-39.577-1.622-1.946-82.723z" fill="#ff0" stroke="#ff0"/><path d="m82.688 35.333-3.244-4.541-5.514-.65-4.218 2.596-.649 5.19 2.92 6.164 7.786 6.488 7.137 7.462 7.461 8.11 4.217 9.407.973 11.03-2.27 8.11-3.893 4.218-9.732 2.92-8.76.648-10.705-3.893-7.136-9.408-.974-10.056 11.679-.649 1.946 3.244 3.244 7.137 7.462.649 3.244-3.244-.325-6.813-2.595-7.461-6.488-6.488-12.652-8.435-7.137-7.785-2.27-17.843 6.163-10.705 9.732-4.542 10.706-.973 8.434 3.244 7.461 7.786 2.92 9.408v7.461l-12.976-.973z" fill="#f00" stroke="#ff001e"/><path d="m119.67 21.06.974-9.084 45.416.649v11.03l-16.869.649.65 71.693-12.653.324-1.622-74.288z" fill="#00fb6b" stroke="#00fb6b"/><path d="m171.275 104.756 11.678-86.94 7.462-.325-6.488 86.616zm23.681-86.941 11.03.65 19.14 84.344-13.3.974-14.923-62.286zm-5.19 60.988h11.03l2.595 8.435-14.274-.324z" fill="#3285b9" stroke="#3285b9"/><path d="m290.504 5.813-.324 12.002-27.575-1.297-1.622 27.899 21.735 1.946-.324 10.381-20.438-.973-3.568 36.982-16.717-.649 6.163-88.887z" fill="#2ececc" stroke="#2ececc"/><path d="m306.075 102.485 21.735-88.887 7.137.649-15.247 89.211zm36.334-88.887 9.732 1.298 11.354 89.86-14.923-1.622-8.759-89.86m-10.381 63.907h11.03l2.92 10.381-15.896-.973z" fill="#3285b9" stroke="#3285b9"/><path d="m376.397 102.81-13.3-87.265 14.922-3.569 31.792 59.042-7.461-63.908 13.625-1.946 14.922 90.833-27.25 3.244-17.518-47.039 5.515 48.985-14.598 4.542" fill="#ff412c" stroke="#ff412c"/><path d="m459.12 2.893v72.017l-12.003.648v-72.988z" stroke="#000"/></g><path d="m466.582 93.726c0 7.525-6.173 13.625-13.788 13.625s-13.787-6.1-13.787-13.625 6.173-13.625 13.787-13.625 13.788 6.1 13.788 13.625z" stroke="#000"/><path d="m322.119 111.884s-14.245 8.93-31.65 11.055c-20.61 2.516-36.22-3.98-36.22-3.98m-61.672-77.459.945 30.221m141.641-31.511v30.457" fill="none" stroke="#3285b9" stroke-linecap="round"/></g></svg>