<svg height="2500" viewBox="-37.5 -37.5 450 450" width="2500" xmlns="http://www.w3.org/2000/svg" xmlns:xlink="http://www.w3.org/1999/xlink"><radialGradient id="a" cx="187.5" cy="187.5" gradientUnits="userSpaceOnUse" r="265.165"><stop offset="0" stop-color="#0ff"/><stop offset=".008" stop-color="#00feff"/><stop offset=".012" stop-color="#00feff"/><stop offset=".016" stop-color="#00fdff"/><stop offset=".02" stop-color="#00fdff"/><stop offset=".023" stop-color="#00fdff"/><stop offset=".027" stop-color="#00fcff"/><stop offset=".031" stop-color="#00fcff"/><stop offset=".035" stop-color="#00fcff"/><stop offset=".039" stop-color="#00fbff"/><stop offset=".043" stop-color="#00fbff"/><stop offset=".047" stop-color="#00fbff"/><stop offset=".051" stop-color="#00faff"/><stop offset=".055" stop-color="#00faff"/><stop offset=".059" stop-color="#00f9ff"/><stop offset=".063" stop-color="#00f9ff"/><stop offset=".066" stop-color="#00f9ff"/><stop offset=".07" stop-color="#00f8ff"/><stop offset=".074" stop-color="#00f8ff"/><stop offset=".078" stop-color="#00f8ff"/><stop offset=".082" stop-color="#00f7ff"/><stop offset=".086" stop-color="#00f7ff"/><stop offset=".09" stop-color="#00f7ff"/><stop offset=".094" stop-color="#00f6ff"/><stop offset=".098" stop-color="#00f6ff"/><stop offset=".102" stop-color="#00f5ff"/><stop offset=".105" stop-color="#00f5ff"/><stop offset=".109" stop-color="#00f5ff"/><stop offset=".113" stop-color="#00f4ff"/><stop offset=".117" stop-color="#00f4ff"/><stop offset=".121" stop-color="#00f4ff"/><stop offset=".125" stop-color="#00f3ff"/><stop offset=".129" stop-color="#00f3ff"/><stop offset=".133" stop-color="#00f3ff"/><stop offset=".137" stop-color="#00f2ff"/><stop offset=".141" stop-color="#00f2ff"/><stop offset=".145" stop-color="#00f2ff"/><stop offset=".148" stop-color="#00f1ff"/><stop offset=".152" stop-color="#00f1ff"/><stop offset=".156" stop-color="#00f0ff"/><stop offset=".16" stop-color="#00f0ff"/><stop offset=".164" stop-color="#00f0ff"/><stop offset=".168" stop-color="#00efff"/><stop offset=".172" stop-color="#00efff"/><stop offset=".176" stop-color="#00efff"/><stop offset=".18" stop-color="#0ef"/><stop offset=".184" stop-color="#0ef"/><stop offset=".188" stop-color="#0ef"/><stop offset=".191" stop-color="#00edff"/><stop offset=".195" stop-color="#00edff"/><stop offset=".199" stop-color="#00ecff"/><stop offset=".203" stop-color="#00ecff"/><stop offset=".207" stop-color="#00ecff"/><stop offset=".211" stop-color="#00ebff"/><stop offset=".215" stop-color="#00ebff"/><stop offset=".219" stop-color="#00ebff"/><stop offset=".223" stop-color="#00eaff"/><stop offset=".227" stop-color="#00eaff"/><stop offset=".23" stop-color="#00eaff"/><stop offset=".234" stop-color="#00e9ff"/><stop offset=".238" stop-color="#00e9ff"/><stop offset=".242" stop-color="#00e9ff"/><stop offset=".246" stop-color="#00e8ff"/><stop offset=".25" stop-color="#00e8ff"/><stop offset=".254" stop-color="#00e7ff"/><stop offset=".262" stop-color="#00e7ff"/><stop offset=".27" stop-color="#00e6ff"/><stop offset=".277" stop-color="#00e5ff"/><stop offset=".285" stop-color="#00e4ff"/><stop offset=".293" stop-color="#00e4ff"/><stop offset=".301" stop-color="#00e3ff"/><stop offset=".309" stop-color="#00e2ff"/><stop offset=".316" stop-color="#00e2ff"/><stop offset=".324" stop-color="#00e1ff"/><stop offset=".332" stop-color="#00e0ff"/><stop offset=".34" stop-color="#00dfff"/><stop offset=".348" stop-color="#00dfff"/><stop offset=".355" stop-color="#00deff"/><stop offset=".363" stop-color="#0df"/><stop offset=".371" stop-color="#00dcff"/><stop offset=".379" stop-color="#00dcff"/><stop offset=".387" stop-color="#00dbff"/><stop offset=".395" stop-color="#00daff"/><stop offset=".402" stop-color="#00daff"/><stop offset=".41" stop-color="#00d9ff"/><stop offset=".418" stop-color="#00d8ff"/><stop offset=".426" stop-color="#00d7ff"/><stop offset=".434" stop-color="#00d7ff"/><stop offset=".441" stop-color="#00d6ff"/><stop offset=".449" stop-color="#00d5ff"/><stop offset=".457" stop-color="#00d5ff"/><stop offset=".465" stop-color="#00d4ff"/><stop offset=".473" stop-color="#00d3ff"/><stop offset=".48" stop-color="#00d2ff"/><stop offset=".488" stop-color="#00d2ff"/><stop offset=".496" stop-color="#00d1ff"/><stop offset=".504" stop-color="#00d0ff"/><stop offset=".508" stop-color="#00d0ff"/><stop offset=".512" stop-color="#00d0ff"/><stop offset=".516" stop-color="#00cfff"/><stop offset=".52" stop-color="#00cfff"/><stop offset=".523" stop-color="#00cfff"/><stop offset=".527" stop-color="#00ceff"/><stop offset=".531" stop-color="#00ceff"/><stop offset=".535" stop-color="#00ceff"/><stop offset=".539" stop-color="#00cdff"/><stop offset=".543" stop-color="#00cdff"/><stop offset=".547" stop-color="#0cf"/><stop offset=".551" stop-color="#0cf"/><stop offset=".555" stop-color="#0cf"/><stop offset=".559" stop-color="#00cbff"/><stop offset=".563" stop-color="#00cbff"/><stop offset=".566" stop-color="#00cbff"/><stop offset=".57" stop-color="#00caff"/><stop offset=".574" stop-color="#00caff"/><stop offset=".578" stop-color="#00caff"/><stop offset=".582" stop-color="#00c9ff"/><stop offset=".586" stop-color="#00c9ff"/><stop offset=".59" stop-color="#00c9ff"/><stop offset=".594" stop-color="#00c8ff"/><stop offset=".598" stop-color="#00c8ff"/><stop offset=".602" stop-color="#00c7ff"/><stop offset=".605" stop-color="#00c7ff"/><stop offset=".609" stop-color="#00c7ff"/><stop offset=".613" stop-color="#00c6ff"/><stop offset=".617" stop-color="#00c6ff"/><stop offset=".621" stop-color="#00c6ff"/><stop offset=".625" stop-color="#00c5ff"/><stop offset=".629" stop-color="#00c5ff"/><stop offset=".637" stop-color="#00c4ff"/><stop offset=".645" stop-color="#00c3ff"/><stop offset=".652" stop-color="#00c3ff"/><stop offset=".66" stop-color="#00c2ff"/><stop offset=".668" stop-color="#00c1ff"/><stop offset=".676" stop-color="#00c0ff"/><stop offset=".684" stop-color="#00c0ff"/><stop offset=".691" stop-color="#00bfff"/><stop offset=".699" stop-color="#00beff"/><stop offset=".707" stop-color="#00beff"/><stop offset=".715" stop-color="#00bdff"/><stop offset=".723" stop-color="#00bcff"/><stop offset=".73" stop-color="#0bf"/><stop offset=".738" stop-color="#0bf"/><stop offset=".746" stop-color="#00baff"/><stop offset=".754" stop-color="#00b9ff"/><stop offset=".758" stop-color="#00b9ff"/><stop offset=".762" stop-color="#00b9ff"/><stop offset=".766" stop-color="#00b8ff"/><stop offset=".77" stop-color="#00b8ff"/><stop offset=".773" stop-color="#00b8ff"/><stop offset=".777" stop-color="#00b7ff"/><stop offset=".781" stop-color="#00b7ff"/><stop offset=".785" stop-color="#00b7ff"/><stop offset=".789" stop-color="#00b6ff"/><stop offset=".793" stop-color="#00b6ff"/><stop offset=".797" stop-color="#00b5ff"/><stop offset=".801" stop-color="#00b5ff"/><stop offset=".805" stop-color="#00b5ff"/><stop offset=".809" stop-color="#00b4ff"/><stop offset=".813" stop-color="#00b4ff"/><stop offset=".816" stop-color="#00b3ff"/><stop offset=".824" stop-color="#00b3ff"/><stop offset=".832" stop-color="#00b2ff"/><stop offset=".84" stop-color="#00b1ff"/><stop offset=".848" stop-color="#00b1ff"/><stop offset=".855" stop-color="#00b0ff"/><stop offset=".863" stop-color="#00afff"/><stop offset=".871" stop-color="#00aeff"/><stop offset=".879" stop-color="#00aeff"/><stop offset=".883" stop-color="#00aeff"/><stop offset=".887" stop-color="#00adff"/><stop offset=".891" stop-color="#00adff"/><stop offset=".895" stop-color="#00acff"/><stop offset=".898" stop-color="#00acff"/><stop offset=".902" stop-color="#00acff"/><stop offset=".906" stop-color="#00abff"/><stop offset=".91" stop-color="#00abff"/><stop offset=".918" stop-color="#0af"/><stop offset=".926" stop-color="#00a9ff"/><stop offset=".934" stop-color="#00a9ff"/><stop offset=".941" stop-color="#00a8ff"/><stop offset=".945" stop-color="#00a8ff"/><stop offset=".949" stop-color="#00a7ff"/><stop offset=".953" stop-color="#00a7ff"/><stop offset=".957" stop-color="#00a7ff"/><stop offset=".965" stop-color="#00a6ff"/><stop offset=".973" stop-color="#00a5ff"/><stop offset=".977" stop-color="#00a5ff"/><stop offset=".98" stop-color="#00a4ff"/><stop offset=".988" stop-color="#00a4ff"/><stop offset=".992" stop-color="#00a3ff"/><stop offset="1" stop-color="#00a3ff"/></radialGradient><path d="m-37.5-37.5h450v450h-450z" fill="#fff"/><path d="m-37.5-37.5h450v450h-450z" fill="url(#a)"/><path d="m153.676 186.45h75.082v44.698h-75.082zm0 0" fill="#fce001"/><path d="m213.637 194.742c.07-.078.203-.02.18.086-.31 1.48-1.512 6.852-3.79 12.184a40.08 40.08 0 0 1 -.996 2.172c-1.879 3.832-4.347 7.359-7.469 9.05-4.246 2.297-11.406 3.746-18.433 2.282-7.219-1.508-14.29-6.09-17.902-15.993a.478.478 0 0 1 .562-.625c1.387.325 4.375.957 8.277 1.434 11.055 1.344 29.45 1.398 39.57-10.59"/><path d="m168.914 206.977c3.863 7.441 9.98 10.21 14.707 11.199 6.492 1.351 13.113-.051 16.793-2.043 2.262-1.223 4.496-3.988 6.461-8 .324-.656.64-1.348.941-2.055a56.28 56.28 0 0 0 1.668-4.433c-4.097 2.77-9.066 4.69-14.851 5.742-7.774 1.414-15.633.953-20.86.316a88.262 88.262 0 0 1 -4.859-.726zm20.05 16.523a31.1 31.1 0 0 1 -6.327-.645c-4.313-.902-8.13-2.699-11.344-5.347-3.684-3.035-6.484-7.13-8.324-12.168a2.86 2.86 0 0 1 .554-2.883 2.882 2.882 0 0 1 2.813-.887c1.379.32 4.254.93 8.02 1.39 9.89 1.204 27.906 1.536 37.44-9.753a2.513 2.513 0 0 1 3.013-.64 2.48 2.48 0 0 1 1.359 2.745c-.324 1.567-1.57 7.11-3.93 12.633-.336.79-.687 1.559-1.05 2.293-2.438 4.973-5.293 8.371-8.477 10.098-3.043 1.644-8.043 3.164-13.746 3.164"/><path d="m213.895 194.434c-.032.168-1.227 6.398-3.868 12.578-25.015 8.832-35.96-1.68-35.96-1.68 11.148 1.356 29.765 1.398 39.828-10.898" fill="#fff"/><path d="m209.031 209.184c-1.879 3.832-4.347 7.359-7.469 9.05-4.246 2.297-11.406 3.746-18.433 2.282 4.89-3.125 14.71-8.72 25.902-11.332" fill="#e80f23"/><path d="m208.145 192.867c2.535-.054 7.23.278 11.242 2.969.383.258.867-.117.703-.543-1.031-2.652-4.176-7.797-12.184-3.29-.422.235-.242.876.239.864"/></svg>