<svg viewBox="221.65999999999997 22.47999999999999 480.01 557" xmlns="http://www.w3.org/2000/svg" width="1208" height="2500"><linearGradient id="a" gradientUnits="userSpaceOnUse" x1="436.19" x2="610.83" y1="106.9" y2="106.9"><stop offset="0" stop-color="#285290"/><stop offset="1" stop-color="#233a59"/></linearGradient><linearGradient id="b" gradientUnits="userSpaceOnUse" x1="298.04" x2="588.43" y1="251.1" y2="527.2"><stop offset="0" stop-color="#245090"/><stop offset=".23" stop-color="#254777"/><stop offset=".46" stop-color="#22426a"/><stop offset=".69" stop-color="#243e5c"/><stop offset="1" stop-color="#233b55"/></linearGradient><linearGradient id="c" gradientUnits="userSpaceOnUse" x1="302.07" x2="646.53" y1="289.85" y2="531.97"><stop offset="0" stop-color="#213a58"/><stop offset=".53" stop-color="#234b7f"/><stop offset=".9" stop-color="#264f8a"/></linearGradient><linearGradient id="d" gradientUnits="userSpaceOnUse" x1="352.46" x2="407.44" y1="122.63" y2="59.59"><stop offset="0" stop-color="#22426a"/><stop offset=".83" stop-color="#285093"/></linearGradient><path d="M527.2 248.92c-14.78 6.52-31.18 8.96-46.96 13.75 3.58 4.35 6.47 8.16 7.29 9.99 2.58 5.81 57.54 6.46 57.54 6.46s-5.38-12.42-17.88-30.21z" fill="#fff"/><path d="M610.83 123.48c-49.58-29.97-112.37-31.3-166.8-15.27a6.041 6.041 0 1 1-3.58-11.54c57.13-12.78 121.56-7.4 170.38 26.8z" fill="url(#a)"/><path d="M312.86 132.77c-26.47 25.28-41.9 66.07-32.22 102.06 5.71 21.1 21.23 38.83 38.58 51.01 17.46 13.06 35.52 17.69 56.65 17.64 10.36-.07 19.57-.31 28.81-2.78 7.21-1.95 13.47-5.01 19.22-8.93 5.06-3.3 9.15-7.08 14.37-9.98 150.31-73.23 263.4 137.14 119.21 222.08-13.21 7.53-30.35 11.72-44.86 15.49-87.49 23.66-191.93-7.1-246.58-80.9-16.25-22.25-27-48.2-34.2-74.12-7-24.44-10.18-49.76-7.53-74.68 1.77-17.96 5.86-34.37 11.55-50.99 6.93-19.66 16.02-38.75 27.91-55.53 8.21-11.6 18.04-22.73 28.14-32.39 6.67-6.49 13.62-12.47 20.4-18.58.17-.15.43-.14.58.03s.13.42-.03.58z" fill="url(#b)"/><path d="M289.43 272.54c87.69-81.82 197.66-92.22 291.66-13.53 30.09 25.15 54.62 58.23 65.97 96.22 4.23 14.07 6.89 28.95 7.38 43.77 1.25 40.59-15.95 80.6-43.42 109.35-52.76 54.89-136.63 71.13-209.16 55.83-62.22-13.01-118.11-51.11-153.04-103.93a277.564 277.564 0 0 1-15.35-25.99c18.46 23.02 40.62 43.26 66.05 58.11 30.4 18 65.47 27.5 100.44 28.35 33.45.86 67.38-5.46 98.03-18.16 21.66-8.82 41.35-22.16 56.83-39.49 17.01-19.12 30.02-42.7 32.42-68.43 7.71-90.39-43.12-165.15-135.35-178.56-59.11-8.51-118.74 17.29-161.88 57.07a.41.41 0 0 1-.55-.61z" fill="url(#c)"/><path d="M468.56 187.97c-36.2-27.8-22.19-57.11-46.76-94.4-5.12-7.77-31.74-57.18-52.37-64.23-17.67-6.03-45.78-6.86-55.11 14.16-9.11 20.54 11.44 26.79 14.46 27.86 4.88 1.73 14.8 5.21 15.8 11.65-15.66 10.48-28.16 32.61-19.04 58.12-25.36-10.99-31.59-14.41-47.68-18.49-18.28-4.63-35.21 2.53-42.65 12.05v.02a13.364 13.364 0 0 0-2.77 6.74c-4.18 36.64 17.86 37.4 82.33 44.94 0 0 33.33 4.53 60.05 29.24 26.73 24.71 39.37 53.45 43.11 67.24 3.73 13.79 5.54 24.57-2.01 50.87-5.91 20.58-12.24 39.89-5.67 52.53 1.99 3.81 5.14 7.02 9.83 9.46 16.76 8.74 38.13 4.45 47.13-12.4 1.89-3.52 3.23-7.58 3.88-12.18 7.76-54.96 11.7-84.04-9.63-129.94 0 0 11.01 12.02 18.79 21.48 15.78-4.79 32.18-7.24 46.96-13.75-12.21-17.39-31.21-39.9-58.64-60.95z" fill="#fff"/><path d="M467.49 382.22c-.09.37-.18.74-.29 1.1-9 16.85-30.36 21.14-47.13 12.4-4.69-2.44-7.85-5.65-9.83-9.46-6.57-12.64-.25-31.95 5.67-52.53 7.55-26.29 5.74-37.07 2.01-50.87-3.74-13.79-16.38-42.52-43.11-67.24-26.72-24.71-60.05-29.24-60.05-29.24-64.47-7.54-86.52-8.29-82.33-44.94.28-2.46 1.25-4.79 2.77-6.74-10.28 25.64 44.41 37.4 65.95 37.28 25.68-.14 59.88 12.39 85.09 33.51 27.91 23.37 38.64 47.86 41.13 69.86 1.61 14.2 4.85 33.01-1.48 56.86-7.13 26.94-19.61 46.45.65 57.01 12.13 6.32 30.43.15 40.95-7z" fill="#cbc9c7"/><path d="M409.28 84.05c-3.18-4.31-29.32-31.6-62.93-4.02-5.6 4.6-10.17 13.34-12.07 17.82-8.91 20.98 3.17 59.61 31.46 34.77 5.89-5.17 22.62-25.76 36.13-25.5 11.28.22 19.04-7.26 7.4-23.06z" fill="url(#d)"/><path d="M334.85 157.15c8.84 38.15 47.41 32.11 57.97 27.59 10.56-4.53 41.38-18.75 26.08-52.58 0 0-2.37 23.92-25.86 34.7s-47.63 3.23-58.19-9.7z" fill="#cbc9c7"/></svg>