<svg clip-rule="evenodd" fill-rule="evenodd" height="2500" image-rendering="optimizeQuality" shape-rendering="geometricPrecision" text-rendering="geometricPrecision" viewBox="-3.915 -3.91 472.451 290.052" width="2500" xmlns="http://www.w3.org/2000/svg"><path d="m298.956 46.795c-21.08 21.08-18.16 40.97 17.16 116.94 25.41 54.63 26.27 57.42 20.9 67.77-9.41 18.15 14.77 42.97 32.58 33.44 2.91-1.56 6.87-1.43 11.62.36 16.63 6.28 44.63-27.08 30.21-35.99-5.79-3.58-.97-16.74 23.14-63.32 29.02-56.07 33.97-72.42 28.75-95.03-12.45-53.95-67.27-33.1-83.94 31.92l-3.16 12.32-5.38-16.98c-15.93-50.25-49.23-74.07-71.89-51.42zm37.25 7.17c24.35 21.38 44.05 92.57 27.67 100.03-5.74 2.61-14.56 21.31-17.87 37.87-1.99 9.95-4.27 8.47-11.27-7.29-3.44-7.75-13.4-29.54-22.12-48.41-17.87-38.65-20.01-46.12-17.69-61.61 3.75-25.01 24.47-35.35 41.28-20.59zm109.6.14c17.88 19.14 14.73 41.68-13.68 98-28.19 55.88-25.71 53.89-33.73 27.08-5.38-17.98-7.87-22.89-12.75-25.11-14.59-6.65.03-65.43 22.46-90.27 16.13-17.87 27.38-20.76 37.71-9.7zm-64.76 107.22c3.21 2.15 8.33 11.44 8.33 15.12 0 1.58-6.27 2.61-15.87 2.61h-15.87l2.5-6.74c4.02-10.83 13.61-15.87 20.91-10.99zm4.8 28.84c-6.17 4.67-19.53 4.62-23.43-.08-2.66-3.2-1.04-3.67 12.57-3.6 14.27.07 15.21.39 10.86 3.68zm-34.21 22.13c-1.94 8.01-3.61 12.09-3.73 9.08-.24-6.41 5.47-28.98 6.53-25.8.4 1.19-.87 8.71-2.8 16.72zm47.26-5.19c3.02 12 3.58 20.18 1.22 17.82-2.59-2.59-7.96-28.71-5.9-28.71 1.07 0 3.17 4.9 4.68 10.89zm-36.67 8.53c-1.51 7.03-3.31 12.21-4 11.52s.09-6.9 1.74-13.78c3.91-16.3 5.83-14.38 2.26 2.26zm16.17 3.25c1.71 11.46 1.63 11.64-4.94 11.64-5.68 0-6.48-.82-5.35-5.52.73-3.03 2.1-9.8 3.05-15.03 2.06-11.36 4.69-8.12 7.23 8.9zm11.96 5.11c1.09 4.56.79 6.4-.88 5.37-1.4-.87-2.55-4.45-2.55-7.97 0-7.68 1.17-6.79 3.43 2.6zm-28.56 15.43c6.66 4.2 7.64 16.73 1.49 19.09-8.61 3.3-23.07-12.83-19.6-21.87 1.69-4.4 8.35-3.38 18.11 2.78zm43.59.3c-3.41 13.75-18.93 23.35-22.54 13.94-2.7-7.04 3.24-15.08 13.09-17.69 5.16-1.37 9.77-2.6 10.25-2.74s.13 2.78-.79 6.49z" fill="#402006"/><path d="m119.949 275.37c-72.065-10.108-123.864-78.85-113.424-153.166s79.18-126.114 153.505-115.674c74.317 10.44 126.116 79.18 115.676 153.497-10.44 74.316-79.18 126.115-153.506 115.675z" fill="#cba27a" fill-rule="nonzero" stroke="#402006" stroke-miterlimit="22.926" stroke-width="3.275227"/><path d="m125.408 240.775c-53.496-7.505-91.95-58.534-84.201-113.697 7.75-55.172 58.779-93.617 113.95-85.867 55.172 7.75 93.627 58.778 85.868 113.95-7.75 55.172-58.779 93.617-113.95 85.868l-1.677-.254z" fill="#a2bf69" fill-rule="nonzero"/><g fill="#402006"><path d="m69.124 48.55c-20.548 20.55-17.701 39.938 16.727 113.99 24.77 53.252 25.608 55.972 20.373 66.06-9.172 17.693 14.397 41.886 31.758 32.597 2.837-1.52 6.697-1.394 11.327.35 16.21 6.122 43.504-26.396 29.448-35.081-5.644-3.49-.946-16.318 22.556-61.723 28.288-54.655 33.113-70.592 28.024-92.632-12.135-52.589-65.572-32.265-81.822 31.115l-3.08 12.009-5.244-16.552c-15.528-48.982-47.988-72.2-70.076-50.122zm36.31 6.99c23.736 20.84 42.94 90.234 26.972 97.506-5.595 2.544-14.192 20.773-17.419 36.915-1.94 9.699-4.162 8.256-10.985-7.106-3.354-7.555-13.062-28.795-21.562-47.189-17.42-37.675-19.505-44.956-17.244-60.056 3.655-24.378 23.853-34.458 40.239-20.07zm106.835.136c17.43 18.658 14.359 40.629-13.335 95.528-27.478 54.47-25.06 52.53-32.879 26.397-5.244-17.527-7.671-22.313-12.428-24.477-14.222-6.482.03-63.779 21.893-87.992 15.724-17.42 26.69-20.236 36.759-9.456zm-63.126 104.515c3.13 2.096 8.12 11.152 8.12 14.739 0 1.54-6.112 2.544-15.47 2.544h-15.47l2.438-6.57c3.918-10.557 13.266-15.47 20.382-10.713zm4.68 28.113c-6.015 4.552-19.038 4.503-22.84-.078-2.593-3.12-1.013-3.578 12.253-3.51 13.91.069 14.826.38 10.586 3.588zm-33.348 21.571c-1.89 7.808-3.519 11.785-3.636 8.851-.234-6.248 5.332-28.249 6.366-25.149.39 1.16-.848 8.49-2.73 16.298zm46.068-5.059c2.944 11.697 3.49 19.671 1.19 17.37-2.526-2.524-7.76-27.985-5.752-27.985 1.043 0 3.09 4.776 4.562 10.615zm-35.745 8.315c-1.472 6.853-3.226 11.902-3.899 11.23s.088-6.727 1.696-13.433c3.811-15.889 5.683-14.017 2.203 2.203zm15.762 3.168c1.667 11.17 1.589 11.346-4.815 11.346-5.537 0-6.317-.799-5.215-5.38.711-2.954 2.047-9.553 2.973-14.651 2.008-11.074 4.571-7.915 7.047 8.675zm11.658 4.981c1.063 4.445.77 6.239-.857 5.235-1.365-.849-2.486-4.338-2.486-7.77 0-7.486 1.14-6.618 3.343 2.535zm-27.84 15.04c6.493 4.095 7.448 16.309 1.453 18.61-8.392 3.216-22.488-12.507-19.105-21.32 1.647-4.288 8.14-3.294 17.653 2.71zm42.491.293c-3.324 13.403-18.452 22.761-21.971 13.588-2.632-6.862 3.158-14.7 12.76-17.243 5.03-1.336 9.523-2.535 9.99-2.671s.128 2.71-.77 6.326z"/><path d="m98.592 242.267 11.414 3.792-.575 1.715-1.092-.146c-.273-.03-.477 0-.584.078-.117.078-.215.253-.312.526l-3.363 10.128c-.098.283-.127.507-.088.663s.175.293.429.4l.984.468-.546 1.637-11.326-3.762 1.56-4.211 1.803.604-.312 1.443c-.059.263-.04.458.058.585.098.116.283.224.556.311l4.016 1.336 1.355-4.084-4.533-1.511.74-2.233 4.534 1.511 1.56-4.688-4.046-1.345c-.273-.088-.487-.117-.643-.078s-.283.185-.38.438l-.654 1.453-1.871-.624 1.296-4.416zm-20.919 4.416 3.734-7.302c.35-.682.78-1.257 1.286-1.705s1.043-.77 1.59-.946 1.14-.263 1.763-.273c1.15.01 2.3.312 3.46.907 1.697.867 2.77 1.94 3.218 3.236.448 1.287.273 2.72-.527 4.299l-3.733 7.3c-.137.274-.195.478-.176.615s.147.292.37.458l.878.673-.819 1.588-5.673-2.895.819-1.589 1.062.312c.254.098.449.108.576.04s.263-.244.4-.507l3.567-6.98c.575-1.111.672-2.066.302-2.846s-1.004-1.404-1.91-1.862c-.897-.458-1.638-.634-2.203-.517s-1.238.936-2.018 2.457l-3.48 6.813c-.137.273-.195.478-.176.615s.147.292.37.458l.878.672-.819 1.59-5.585-2.857.819-1.589 1.062.312c.254.098.449.107.575.04s.263-.245.4-.508zm-16.025-23.843 1.296-1.628c-.243-.916-.672-1.696-1.286-2.35s-1.248-1.033-1.891-1.16c-.644-.116-1.2.04-1.667.488-.468.439-.722.897-.76 1.355-.04.468.136 1.15.526 2.076l1.14 2.72c.868 2.076.478 3.89-1.16 5.43-.945.896-2.017 1.266-3.236 1.13s-2.378-.8-3.5-1.979-2.163-2.583-3.148-4.21l2.934-2.34 1.511 1.598-1.062 1.482c.302.76.75 1.452 1.355 2.086.994 1.053 1.959 1.14 2.895.253.828-.79.955-1.861.38-3.226l-.829-1.862c-.516-1.16-.809-2.203-.877-3.129-.068-1.12.42-2.183 1.462-3.168s2.252-1.394 3.626-1.209 2.75.995 4.124 2.447c.945.994 1.627 1.96 2.037 2.876.156.312.38.819.682 1.51l-3.002 2.467-1.56-1.648zm-14.32-21.007c1.014.04 2.009.361 3.003.965s1.89 1.472 2.7 2.623c1.394 1.969 1.813 3.85 1.238 5.624s-1.92 3.412-4.036 4.913c-1.861 1.316-3.791 1.94-5.79 1.852-1.004-.03-1.998-.351-2.992-.946-.995-.604-1.891-1.481-2.7-2.622-1.394-1.969-1.813-3.85-1.238-5.624s1.852-3.373 3.85-4.777c1.989-1.413 3.977-2.076 5.975-2.008zm-4.093 4.484c-1.521 1.073-2.467 2.242-2.837 3.5-.38 1.257-.156 2.466.663 3.616s1.608 1.813 2.368 1.97c.546.116 1.316-.04 2.32-.478a14.647 14.647 0 0 0 2.808-1.58c1.51-1.072 2.466-2.242 2.836-3.499.38-1.257.156-2.466-.672-3.636-.829-1.16-1.609-1.813-2.36-1.95-.535-.097-1.305.059-2.32.488s-1.949.945-2.806 1.56zm-14.378-15.391 7.291-3.743c.682-.351 1.365-.566 2.047-.634s1.296-.01 1.842.166 1.082.448 1.59.809c.925.682 1.686 1.598 2.28 2.749.868 1.696 1.111 3.197.721 4.503-.39 1.316-1.364 2.369-2.943 3.178l-7.292 3.743c-.273.136-.438.273-.497.4s-.048.321.03.584l.311 1.063-1.588.819-2.905-5.664 1.589-.818.682.877c.156.224.302.35.448.37s.351-.039.624-.175l6.97-3.578c1.111-.575 1.754-1.286 1.91-2.134s0-1.726-.458-2.632c-.458-.897-.955-1.472-1.491-1.706-.527-.234-1.55.03-3.07.809l-6.814 3.5c-.273.136-.439.272-.497.399s-.05.322.029.585l.312 1.062-1.59.82-2.865-5.586 1.589-.819.682.877c.156.224.302.351.449.37s.35-.038.623-.175zm2.095-27.284-13.832-2.856-.37-2.671 12.545-6.57c.37-.185.605-.36.712-.507.097-.146.156-.39.175-.711l.05-.78 1.773-.244.887 6.482-1.725.234-.351-1.092c-.117-.4-.302-.575-.556-.545-.087.01-.253.078-.497.185l-1.881.965.692 5.03 1.998.37c.234.049.41.059.536.039.303-.039.449-.273.449-.702l.049-1.13 1.725-.234.838 6.13-1.774.245-.263-.722c-.098-.292-.224-.497-.36-.614s-.41-.214-.82-.302zm-5.166-7.018-4.104 2.095-1.101.449 1.13.078 4.563.887-.478-3.5zm-3.07-33.805-1.511.136 1.442.312 7.438 2.135c.439.107.74-.059.897-.497l.36-1.014 1.745.38-1.296 5.907-1.745-.38.03-1.102c0-.282-.04-.458-.128-.545-.078-.088-.263-.176-.555-.273l-10.43-3.207c-.37-.127-.644.048-.81.516l-.36 1.014-1.745-.38 1.121-5.108 12.156-1.491 1.208.01-1.101-.478-10.479-6.141 1.16-5.313 1.745.38-.117 1.16c-.04.38.03.614.195.712.068.049.136.078.205.088s.117.029.165.039l10.79 1.364c.303.04.508.03.635-.01.117-.048.224-.194.331-.448l.458-1.15 1.745.38-1.384 6.326-1.745-.38.107-1.111c.049-.487-.146-.75-.565-.8l-7.73-1.042-1.453-.273 1.297.633 9.494 5.693-.565 2.564-10.996 1.394zm16.99-28.6c.526.867.809 1.881.858 3.031.048 1.16-.176 2.398-.683 3.705-.867 2.251-2.193 3.635-3.996 4.142-1.794.507-3.909.293-6.336-.633-2.125-.82-3.714-2.077-4.757-3.792-.526-.848-.819-1.852-.868-3.012s.176-2.398.683-3.704c.867-2.252 2.193-3.636 3.996-4.143 1.794-.507 3.831-.322 6.112.546 2.281.877 3.938 2.154 4.99 3.85zm-6.005-.926c-1.735-.663-3.226-.81-4.484-.42-1.257.38-2.134 1.239-2.641 2.555s-.614 2.339-.332 3.06c.205.517.77 1.073 1.677 1.667a15.277 15.277 0 0 0 2.866 1.462c1.735.663 3.226.81 4.484.42 1.257-.38 2.134-1.238 2.651-2.574.507-1.335.614-2.35.322-3.041-.215-.497-.78-1.053-1.696-1.657s-1.872-1.092-2.856-1.472zm7.516-6.98 1.94.76a5.426 5.426 0 0 0 1.871-1.92c.439-.78.624-1.5.556-2.144-.078-.653-.39-1.13-.946-1.452-.555-.312-1.062-.43-1.52-.332s-1.063.468-1.823 1.111l-2.271 1.891c-1.736 1.433-3.578 1.6-5.537.488-1.13-.644-1.803-1.56-2.028-2.759s.069-2.505.868-3.918 1.832-2.827 3.11-4.24l3.1 2.115-1.083 1.91-1.725-.585a6.406 6.406 0 0 0 -1.599 1.91c-.711 1.258-.516 2.214.605 2.837.994.566 2.066.37 3.197-.584l1.54-1.346c.955-.828 1.871-1.413 2.739-1.754 1.053-.39 2.203-.234 3.45.468 1.248.711 1.99 1.745 2.223 3.119s-.146 2.924-1.13 4.66c-.673 1.198-1.394 2.124-2.155 2.787a41.96 41.96 0 0 1 -1.247 1.092l-3.237-2.145 1.121-1.969zm15.226-19.397 1.969.76c-.098.497-.341 1.209-.722 2.144-.594 1.453-1.218 2.603-1.88 3.451-2.925 3.753-6.542 3.948-10.86.595-1.93-1.501-3.158-3.227-3.675-5.157-.253-.955-.234-1.969.03-3.031.272-1.063.75-2.038 1.442-2.925s1.345-1.598 1.96-2.125 1.452-1.033 2.505-1.51l2.865 2.69-1.345 1.735-2.173-1.082a10.02 10.02 0 0 0 -2.233 2.135c-.672.857-.994 1.686-.965 2.495.02.497.4 1.18 1.14 2.057s1.482 1.598 2.223 2.174c1.453 1.13 2.827 1.725 4.123 1.774s2.398-.517 3.315-1.697 1.676-2.67 2.27-4.464zm3.684-3.373-5.829-12.867 1.94-1.872 12.691 6.278c.37.185.644.283.829.273s.41-.098.682-.273l.663-.42 1.238 1.287-4.718 4.533-1.208-1.257.672-.936c.254-.322.293-.585.107-.77-.058-.068-.214-.166-.438-.302l-1.891-.956-3.656 3.52.878 1.832c.097.214.195.37.282.458.205.214.488.205.839-.049l.945-.624 1.209 1.258-4.465 4.28-1.238-1.288.43-.633c.175-.254.272-.468.282-.653s-.068-.458-.244-.839zm2.632-8.305-4.104-2.086-1.013-.634.604.955 1.969 4.202 2.554-2.447zm31.466-8.461-1.375-1.365c.702-.867 1.482-1.501 2.34-1.9.867-.4 2.018-.702 3.46-.907s2.398-.42 2.866-.634.946-.614 1.443-1.209l1.18 1.375c-.41 1.033-1.093 1.774-2.067 2.222-.683.312-1.765.556-3.227.722s-2.525.4-3.197.711c-.312.147-.79.468-1.423.975zm5.37-9.095c-.223.985-.73 1.91-1.5 2.769-.78.867-1.804 1.588-3.08 2.173-2.194 1.004-4.114 1.063-5.752.176-1.637-.897-3.002-2.515-4.084-4.884-.955-2.076-1.2-4.084-.75-6.034.214-.974.71-1.9 1.48-2.768.78-.868 1.804-1.589 3.081-2.174 2.193-1.004 4.114-1.062 5.751-.175 1.638.897 2.973 2.446 3.987 4.66s1.306 4.298.877 6.238zm-3.645-4.854c-.78-1.686-1.745-2.837-2.914-3.441s-2.389-.614-3.675-.02c-1.287.585-2.077 1.248-2.379 1.96-.214.516-.205 1.296.04 2.359a15 15 0 0 0 1.032 3.05c.78 1.687 1.745 2.837 2.915 3.442s2.398.604 3.694.01 2.086-1.248 2.36-1.95c.194-.507.185-1.297-.05-2.369s-.575-2.086-1.013-3.05zm17.965-11.522 2.31 7.866c.215.741.293 1.453.234 2.125-.058.683-.234 1.268-.507 1.775s-.643.974-1.101 1.403c-.838.78-1.881 1.355-3.13 1.716-1.822.536-3.343.487-4.561-.137s-2.067-1.793-2.564-3.49l-2.31-7.866c-.088-.292-.185-.477-.292-.565s-.303-.107-.575-.078l-1.102.107-.507-1.715 6.112-1.794.507 1.716-.985.497c-.253.107-.4.224-.448.37-.049.137-.03.351.058.643l2.203 7.526c.351 1.199.936 1.959 1.745 2.27s1.696.332 2.671.05 1.628-.663 1.96-1.14.263-1.531-.225-3.169l-2.154-7.35c-.088-.292-.185-.477-.292-.565s-.303-.107-.576-.078l-1.101.107-.507-1.715 6.024-1.765.507 1.716-.985.497c-.253.107-.4.224-.448.37-.049.137-.03.351.059.644zm19.846 10.606-11.911 1.647-.244-1.794 1.053-.35c.263-.098.429-.205.487-.332.068-.127.078-.331.04-.614l-1.463-10.567c-.039-.302-.117-.506-.214-.633s-.293-.185-.566-.176l-1.092.01-.234-1.706 11.824-1.628.459 4.465-1.882.263-.36-1.433c-.069-.263-.166-.429-.312-.497-.137-.068-.351-.078-.634-.039l-4.191.575.584 4.26 4.738-.653.321 2.33-4.737.653.673 4.893 4.22-.585c.283-.039.488-.107.615-.214.126-.098.175-.283.155-.556l-.058-1.589 1.95-.273.79 4.533zm27.703-12.253-.916 5.497 1.209.205c1.013.166 1.735.127 2.154-.127.575-.35.984-1.228 1.218-2.641.254-1.501-.516-2.408-2.31-2.7l-1.364-.225zm-4.679 10.566 1.745-10.459c.049-.283.04-.487-.02-.614-.067-.127-.223-.244-.477-.341l-1.043-.38.293-1.765 6.121 1.024c1.813.302 3.149.828 3.987 1.589s1.12 1.969.838 3.635c-.273 1.658-1.092 2.925-2.446 3.783s-2.798 1.17-4.328.906l-1.277-.214-.546 3.304c-.049.302-.04.517.029.643.068.137.234.234.497.312l1.443.43-.302 1.783-6.707-1.111.293-1.764 1.101-.02c.283-.02.468-.068.565-.166s.176-.292.225-.575zm24.847 6.765c-.838.566-1.832.907-2.992 1.014s-2.398-.059-3.734-.497c-2.3-.75-3.743-2.008-4.337-3.782-.595-1.765-.488-3.89.321-6.356.712-2.164 1.891-3.811 3.548-4.942.82-.575 1.814-.916 2.964-1.023 1.16-.108 2.398.058 3.733.497 2.3.75 3.743 2.008 4.338 3.782.594 1.764.517 3.811-.244 6.131s-1.96 4.045-3.597 5.176zm.624-6.043c.575-1.765.643-3.266.195-4.504s-1.335-2.076-2.68-2.515-2.37-.497-3.08-.175c-.508.234-1.034.819-1.58 1.764s-.984 1.92-1.316 2.944c-.575 1.764-.643 3.265-.195 4.503s1.345 2.077 2.7 2.515c1.355.449 2.379.497 3.061.166.487-.234 1.014-.829 1.57-1.774s.994-1.92 1.325-2.924zm20.958 4.181-3.685 7.33c-.35.693-.77 1.258-1.277 1.716s-1.033.77-1.579.955-1.13.273-1.764.283c-1.15 0-2.3-.292-3.46-.877-1.697-.858-2.779-1.93-3.237-3.217s-.292-2.72.497-4.299l3.685-7.33c.136-.273.195-.478.165-.614-.019-.136-.146-.292-.37-.448l-.877-.673.8-1.599 5.682 2.856-.8 1.6-1.062-.303c-.253-.098-.448-.107-.575-.04s-.263.245-.4.508l-3.519 6.999c-.565 1.12-.653 2.066-.282 2.856.38.78 1.014 1.403 1.92 1.852.907.458 1.638.624 2.203.497.565-.117 1.238-.946 1.998-2.466l3.441-6.843c.137-.273.195-.478.166-.614-.02-.137-.146-.293-.37-.449l-.878-.672.8-1.599 5.605 2.817-.8 1.599-1.062-.302c-.254-.098-.449-.108-.575-.04s-.264.244-.4.508zm2.183 11.951-.945 1.852c.419.848.994 1.53 1.735 2.047.73.517 1.433.77 2.086.76s1.17-.282 1.53-.799c.37-.526.526-1.023.478-1.482s-.36-1.101-.926-1.93l-1.657-2.446c-1.258-1.862-1.238-3.714.058-5.556.75-1.063 1.725-1.648 2.944-1.745 1.218-.108 2.486.312 3.821 1.247 1.326.936 2.632 2.106 3.919 3.51l-2.408 2.875-1.794-1.267.75-1.657a6.42 6.42 0 0 0 -1.744-1.774c-1.19-.839-2.144-.731-2.885.321-.663.936-.566 2.018.273 3.237l1.18 1.667c.73 1.033 1.227 1.998 1.48 2.895.283 1.091.02 2.222-.808 3.392s-1.93 1.803-3.314 1.9-2.896-.428-4.523-1.579c-1.121-.79-1.98-1.598-2.564-2.417a29.113 29.113 0 0 1 -.965-1.345l2.447-3.012 1.852 1.306zm17.731 18.17c-1.004.156-2.047.039-3.139-.361s-2.144-1.082-3.168-2.047c-1.754-1.657-2.524-3.421-2.31-5.273s1.219-3.724 3.003-5.615c1.569-1.657 3.343-2.642 5.322-2.954.984-.165 2.027-.048 3.119.351s2.145 1.082 3.168 2.047c1.755 1.657 2.525 3.422 2.31 5.274s-1.16 3.665-2.836 5.439-3.5 2.817-5.469 3.139zm3.139-5.196c1.277-1.345 1.979-2.68 2.105-3.987s-.321-2.446-1.354-3.411c-1.024-.975-1.93-1.462-2.71-1.472-.556-.01-1.277.302-2.174.916s-1.716 1.316-2.447 2.096c-1.277 1.345-1.979 2.68-2.105 3.987s.331 2.446 1.364 3.43 1.93 1.463 2.69 1.453c.547 0 1.268-.312 2.175-.936a14.42 14.42 0 0 0 2.446-2.076zm17.088 13.442-6.668 4.777c-.624.448-1.267.76-1.93.926s-1.277.204-1.842.107-1.13-.283-1.696-.575c-1.014-.536-1.901-1.336-2.661-2.388-1.112-1.55-1.57-2.993-1.375-4.348s1.004-2.544 2.437-3.577l6.668-4.777c.243-.175.39-.331.428-.468.05-.136 0-.321-.116-.575l-.468-1.004 1.452-1.043 3.704 5.176-1.452 1.043-.8-.76c-.185-.205-.35-.302-.497-.302s-.34.088-.585.273l-6.375 4.562c-1.013.73-1.54 1.53-1.569 2.398s.254 1.715.838 2.534 1.16 1.316 1.726 1.472c.555.156 1.53-.263 2.914-1.258l6.22-4.464c.243-.175.39-.331.438-.468.039-.136 0-.322-.117-.575l-.468-1.004 1.453-1.043 3.655 5.098-1.453 1.043-.799-.76c-.185-.205-.35-.302-.497-.302s-.341.087-.585.273zm3.129 38.309-3.938-11.366 1.715-.595.546.965c.146.234.283.38.42.42s.34.019.604-.079l10.079-3.499c.282-.097.477-.214.575-.331.097-.127.117-.322.058-.585l-.224-1.072 1.628-.566 3.909 11.278-4.29 1.316-.623-1.793 1.335-.634c.244-.117.39-.253.43-.4s.009-.36-.088-.633l-1.385-4.007-4.064 1.414 1.569 4.513-2.222.77-1.57-4.513-4.669 1.618 1.394 4.026c.097.273.205.458.322.555.126.098.312.117.575.04l1.55-.371.643 1.862-4.29 1.657zm12.262 6.58 1.375-.644-1.462.205-7.72.565c-.449.049-.673.302-.673.78l.01 1.072-1.775.244-.828-5.995 1.774-.244.35 1.053c.098.263.196.42.303.468.107.058.312.078.614.068l10.898-.585c.4-.01.585-.263.585-.77l-.01-1.072 1.774-.244.712 5.186-10.888 5.595-1.131.41 1.199.068 11.96 2.144.741 5.39-1.774.245-.292-1.121c-.098-.37-.234-.566-.43-.605-.077-.02-.155-.029-.223-.02s-.127.02-.166.02l-10.596 2.447c-.292.068-.487.146-.585.234-.097.078-.146.263-.156.536l-.039 1.238-1.774.244-.887-6.414 1.774-.244.283 1.082c.127.468.4.653.809.556l7.613-1.687 1.452-.243-1.442-.147-10.869-2.066-.36-2.603 9.835-5.108zm-5.108 40.082-2.086-.049c-.584.741-.945 1.56-1.091 2.447s-.078 1.618.214 2.203.76.926 1.394 1.033 1.15.03 1.54-.214.839-.81 1.336-1.677l1.481-2.554c1.131-1.94 2.808-2.72 5.03-2.359 1.277.215 2.232.848 2.856 1.901s.8 2.378.536 3.977-.75 3.285-1.462 5.05l-3.636-.927.361-2.164 1.823-.039a6.58 6.58 0 0 0 .848-2.34c.234-1.432-.273-2.25-1.54-2.465-1.131-.185-2.067.36-2.798 1.647l-.984 1.784c-.615 1.111-1.268 1.969-1.97 2.593-.857.73-1.988.975-3.411.74-1.414-.233-2.466-.955-3.149-2.163s-.867-2.798-.536-4.767c.224-1.355.585-2.476 1.063-3.363.156-.312.419-.8.79-1.452l3.772.906-.37 2.232zm1.92 27.332-7.797-2.553c-.731-.244-1.365-.576-1.882-1.014-.526-.439-.916-.907-1.18-1.423s-.438-1.082-.535-1.706c-.166-1.14-.049-2.32.35-3.558.595-1.813 1.492-3.032 2.7-3.685 1.21-.643 2.652-.692 4.329-.146l7.798 2.554c.283.097.497.117.633.078s.264-.185.39-.429l.537-.975 1.696.556-1.98 6.053-1.695-.555.146-1.102c.058-.263.039-.458-.049-.575s-.273-.224-.565-.312l-7.447-2.437c-1.19-.39-2.145-.341-2.866.146-.712.488-1.228 1.219-1.55 2.174-.312.965-.37 1.716-.166 2.261s1.111 1.082 2.74 1.609l7.271 2.378c.283.098.497.117.634.078s.263-.185.39-.429l.536-.974 1.696.555-1.95 5.966-1.696-.556.146-1.101c.059-.263.04-.458-.048-.575s-.273-.225-.566-.312zm-12.398 1.794 9.786 10.196-1.208 2.408-14.056-1.696c-.41-.059-.702-.05-.868.02s-.35.223-.546.487l-.487.614-1.599-.8 2.944-5.848 1.56.78-.332 1.101c-.127.39-.078.643.146.76.078.04.254.088.517.137l2.096.273 2.28-4.533-1.432-1.433c-.166-.166-.302-.283-.42-.331-.272-.137-.526-.03-.77.321l-.682.897-1.56-.78 2.779-5.527 1.598.8-.195.74c-.078.293-.097.537-.048.712s.214.41.506.712zm.282 8.714 4.572.595 1.16.253-.887-.701-3.256-3.315-1.589 3.159zm-19.562 23.094-1.638-1.287a5.233 5.233 0 0 0 -2.34 1.306c-.652.624-1.033 1.258-1.14 1.901-.117.643.049 1.199.497 1.657s.897.712 1.365.75 1.15-.146 2.067-.545l2.72-1.16c2.066-.877 3.879-.507 5.438 1.12.897.937 1.287 2.009 1.15 3.227-.126 1.219-.78 2.389-1.949 3.51s-2.564 2.183-4.191 3.177l-2.36-2.914 1.59-1.521 1.481 1.053a6.553 6.553 0 0 0 2.076-1.365c1.043-1.004 1.121-1.969.234-2.895-.799-.829-1.871-.945-3.226-.35l-1.862.847c-1.15.517-2.193.819-3.129.897-1.12.078-2.183-.41-3.178-1.443s-1.403-2.242-1.228-3.626.975-2.758 2.418-4.143c.994-.955 1.95-1.637 2.865-2.056.312-.156.82-.38 1.501-.692l2.486 2.982-1.637 1.57zm-20.87 14.504c.039-1.013.35-2.017.955-3.012.595-.994 1.462-1.9 2.613-2.72 1.959-1.403 3.83-1.832 5.614-1.267s3.422 1.901 4.942 4.016c1.326 1.853 1.96 3.783 1.891 5.78-.029 1.005-.331 2-.935 2.993-.595.995-1.463 1.901-2.613 2.72-1.959 1.404-3.83 1.833-5.614 1.267s-3.383-1.832-4.796-3.82c-1.423-1.98-2.106-3.968-2.047-5.966zm4.503 4.075c1.082 1.51 2.252 2.446 3.51 2.817s2.466.146 3.606-.682c1.15-.82 1.804-1.619 1.96-2.379.107-.546-.05-1.316-.488-2.31s-.965-1.93-1.589-2.807c-1.082-1.511-2.251-2.447-3.509-2.817s-2.466-.137-3.626.692-1.803 1.618-1.94 2.368c-.097.536.068 1.306.507 2.32.439 1.004.955 1.94 1.58 2.798zm-7.388 11.317-2.564-4.942-1.082.565c-.916.478-1.462.936-1.647 1.394-.254.624-.05 1.58.614 2.846.702 1.355 1.862 1.619 3.47.78l1.228-.633zm-2.603-11.259 4.884 9.407c.136.253.263.41.39.477.126.059.321.059.594-.01l1.063-.321.828 1.589-5.507 2.856c-1.638.848-3.012 1.218-4.143 1.111s-2.076-.906-2.856-2.398-.877-2.992-.312-4.493 1.54-2.613 2.915-3.324l1.15-.595-1.54-2.973c-.137-.273-.273-.439-.41-.497-.136-.068-.331-.049-.585.049l-1.413.526-.838-1.608 6.033-3.13.829 1.59-.868.682c-.214.175-.331.341-.35.477s.029.332.165.595zm-12.097 6.395-.088 14.124-2.544.887-8.9-11.015c-.253-.331-.467-.526-.633-.594s-.41-.078-.731-.04l-.78.108-.585-1.686 6.19-2.145.575 1.647-1.004.566c-.36.195-.507.41-.419.653.03.088.127.234.273.458l1.316 1.657 4.796-1.667-.03-2.027c0-.234-.019-.42-.068-.527-.097-.282-.36-.39-.78-.302l-1.11.176-.576-1.648 5.839-2.027.585 1.686-.653.39c-.263.156-.439.312-.536.468-.088.156-.137.448-.137.858zm-5.868 6.443 2.856 3.616.653.995-.146-1.121-.03-4.64-3.343 1.16z" fill-rule="nonzero" stroke="#402006" stroke-miterlimit="22.926" stroke-width=".058486"/></g></svg>