<svg clip-rule="evenodd" fill-rule="evenodd" height="2500" image-rendering="optimizeQuality" shape-rendering="geometricPrecision" text-rendering="geometricPrecision" viewBox="1.703 1.414 3.422 3.999" width="2500" xmlns="http://www.w3.org/2000/svg"><rect fill="#454b53" height="6.827" rx="1.456" width="6.827"/><path d="m2.514 2.275h-.649l.813-.818v.66zm2.296-.324c-.069-.12-.43-.257-.618-.257h-.482s-.156-.28-.52-.28c-.366 0-.341.162-.341.301v.562l-.166.175h-.764s-.216.142-.216.45.096 1.381.737 1.48c.76.118.89-.235.89-.277 0-.179.004-.45.004-.45s.222.425.558.425.53.193.53.392v.367s-.012.23-.209.23h-.421s-.139-.108-.139-.257.068-.189.147-.189.144.01.144.01v-.314s-.636-.004-.636.483c0 .486.332.611.599.611h.434s.784-.1.784-1.65c0-1.549-.244-1.693-.314-1.812zm-.78 1.388s.039-.255.187-.255.352.341.352.341-.465-.086-.538-.086z" fill="#fff"/></svg>