<svg height="1378" viewBox="-.07 0 704.96465518 388.75" width="2500" xmlns="http://www.w3.org/2000/svg"><g fill-rule="evenodd"><g fill="#e50043"><path d="m693.6 365.21c-4.85 0-8.84 4.27-8.84 9.49s4 9.47 8.84 9.47 8.77-4.22 8.77-9.47-3.92-9.49-8.77-9.49zm11.26 9.49a11.26 11.26 0 1 1 -11.26-11.49 11.36 11.36 0 0 1 11.26 11.49z"/><path d="m694.7 374.18-3.42.07v-3.74h2.5l1 .05.9.22.35.23.3.27.18.45.07.85-.15.53-.2.39-.52.41-.2.1-.23.07zm.6 1.65.7-.1c3.92-.73 3.64-7.57-2-7h-4.82v12.71h2.07v-5.44h2l3.3 5.45h2.37zm-551.74-153.08 63.91 161.7h22.16l64.21-161.7h-28.13l-45.68 118.4-42.73-118.4zm-32.07 64.53h-79.22c3.2-25.94 17.88-40.76 41.36-40.76 21.68-.02 36.21 16.38 37.86 40.76zm-80.25 23 112.17-.1.05-.33c0-57.31-30.69-87.3-69.76-87.3-43.6.04-73.77 34.27-73.7 81.25 0 47.87 23.18 84.95 75.88 84.95 26.77 0 44.85-8.22 63.86-20.64v-29.76c-17.48 13.65-39.56 26.16-58.54 26.16-30.2 0-49.96-19.61-49.96-54.19zm308.48 74.34.03-161.75h-28.2l-.13 161.75zm0-177.17.03-28.11h-28.2l-.13 28.11zm325.91 177.17v-97.09c0-20-5.4-37.25-15.71-49.5s-25.58-19.43-44.61-19.43a57.27 57.27 0 0 0 -42.21 17.79v-13.8h-28.1v162.08h29v-98.67c.07-22.62 15.88-39.36 37.78-39.43 23 .15 35 16.44 35.14 40v98h-.05zm-270.36-38.82a19.32 19.32 0 0 1 -2-6.55v-.17l-.07-.3-.15-2.5c.22-12.27 6.07-23.19 38.86-25.56 15.51-1.13 31.22-2.77 42.13-9.44l1.5-1 .46-.28v20.66a44.86 44.86 0 0 1 -1.23 9.5c-.35 1.3-.8 2.57-1.25 3.79l-.12.43a33.61 33.61 0 0 1 -8.67 12.44l-.75.75-.72.55c-9.27 7.55-22.58 11-36.57 11-14.69-.01-26.75-4.25-31.42-13.32zm112.86 35c-2.1-5.55-4.12-16.54-4.27-24.21v-88.12c0-15.15-5.37-28-16-36.85s-26.37-13.87-46.95-13.87h-.15l-.07-.05c-32.92.05-56.52 14.86-64.39 38.92l-.28 1-.45 1.25h31.63l.53-.7c7.19-10.14 21.15-13.11 32.74-13.11h.1c25.4.17 35.44 9.16 35.47 20.46v.07c-.08 5.53-2.58 9.7-9.84 13.1s-19.36 5.64-37.77 6.52c-39.36 2-63.54 17.41-63.54 50.84v.35c.1 35.23 29.35 50.42 60.95 50.42h.16c21.78 0 38.81-6.79 50.2-18.76l.48-.5.07.65a47.47 47.47 0 0 0 3.57 13.92l.2.4.25.57h28.35z"/></g><path d="m402.96 126.45-15.51-18.06-.75-18.8-26.59-39.04-5.92-18.8-22.18-21.69v-10.06l-22.78 12.87-14.9 24.67-14.8-.74-15.5 19.54-22.88 24.85-8.63 12.12 39.61-4.46 44.05 14.85 15.11 28.52 34.24 22.33 45.23-.33 31.38 8.42-38.46-24.6zm-168.2 11.39-18.27-35.06 5.12-10.82-5.45-15.95 4.34-13.98-1.22-29.14-36.48 26.2-15.63 25.24-17.53 4.69-26.14 20.93-29.25 37.2-23.68 18.14 36.07 1.61 40.39-18.66 25.39 15.01 45.12-.87 14.68 7.32 12.52-5.79-7.8-3.88zm306.42 7.75-9-43.24-21.78-32.35-9-23.5-21.73 12.55-18.56 18.83-31.49 4.51-23.48 11.87 9.23 12.93 38.06 21.54 25.51 24.16 22.48 2.24 36 19.8h49.47s-24.84-20.36-26.24-21.3-19.47-8.04-19.47-8.04z" fill="#54565a"/></g></svg>