<svg height="192" viewBox="0 0 500 144" width="500pt" xmlns="http://www.w3.org/2000/svg"><path d="M0 72v72h500V0H0zm186-42c2.2 2.2 2.6 7 .9 10.1-2.4 4.6-10.5 4.2-12.8-.7-1.6-3.6-1.4-5.8 1-8.8 2.6-3.3 7.9-3.6 10.9-.6zm172.8-.4c3.4 2.4 3.1 9.5-.5 12.4-4.9 3.8-11.7.1-11.7-6.4 0-6.6 6.7-9.9 12.2-6zM26 50.8c1.2.9 9.2 11.2 17.8 22.7 8.6 11.6 16.4 21.1 17.3 21.3 1.1.2 7-6.8 17.8-21.1 8.9-11.8 16.8-22 17.5-22.6 2.8-2.4 7.9-2.4 10.9-.1 5 3.9 4.1 6-12.3 28.2-19.3 25.9-22.2 29.1-28.2 30.6-5.4 1.4-10.8.5-15.9-2.4-1.9-1.2-10.2-11.2-20.6-24.9C12.4 58.7 11 56 14.3 51.8c2.3-3 8.6-3.6 11.7-1zm120.9-.8c4.9 1.4 6.7 3.4 22.8 25 8 10.7 15.3 20.1 16.1 20.7 1.2 1 10.1 1.3 36.8 1.3 30.7 0 35.5-.2 36.8-1.6 1.2-1.1 1.3-2 .6-3.4-.9-1.7-3.1-1.9-34.7-2.2-32.7-.3-33.9-.4-38-2.5-11.2-6-13.2-18.9-4.2-27.5 5.8-5.6 9.4-6 49.7-5.6 32.8.3 35.1.4 37.1 2.2 3.1 2.9 2.8 8.1-.6 10.3-2.4 1.6-6.1 1.8-37.8 2-19.2.1-35.8.4-36.7.7-2.4.6-2.3 4.3.1 5.6 1.3.6 14.2 1 35.1 1 31 0 33.3.1 37 2 6.2 3.2 8.5 7.3 8.5 15.2 0 5.2-.5 7.3-2.1 9.4-2.9 4-6.5 6.4-11 7.4-2.1.5-21.2 1-42.4.9-34.3 0-38.9-.1-42.2-1.7-3-1.3-7.2-6.2-19.5-22.7-8.7-11.5-16.5-21.1-17.4-21.3-1.2-.2-6.8 6.3-17.9 21-9 11.7-17 21.9-17.8 22.5-2.5 2-8.9 1.6-11.2-.7-4-4-2.9-6.3 15-30.5 9.4-12.7 18.2-23.9 19.7-24.9 4.1-3.1 12.4-4.3 18.2-2.6zM370 55.3c4.2 1.4 6 5.3 4.2 9.1-1.9 4.2-6.4 4.7-41.4 4.6-17.8 0-33.3-.1-34.4 0-2.9 0-3.9 2.8-1.8 5.1 1.6 1.8 3.9 1.9 35.2 1.9 31.9 0 33.8.1 37.8 2.1 12.1 5.8 11.9 24.4-.3 30.5-3.6 1.8-6.5 1.9-45.3 1.9-38.1 0-41.8-.1-44.3-1.8-3.3-2.1-3.6-6.8-.7-9.7 1.9-1.9 3.3-2 41.9-2 42.4 0 42.8 0 41.9-4.7-.3-1.7-2.6-1.8-34.9-2.3l-34.6-.5-4.8-3c-5.7-3.5-8.5-8.3-8.5-14.3 0-8.3 6.3-15.6 14.9-17.3 6.5-1.2 71.2-.9 75.1.4zm103.2 2c7.4 4.3 12.4 12.8 13.5 22.7 1.1 11.2-5.2 23.6-14.4 28.1-4.8 2.4-5.1 2.4-37.8 2.4-32.5 0-33.1 0-37.7-2.3-13.7-6.7-19.4-24.6-12.4-38.4 3.7-7.4 8.2-11.6 14.8-13.9 4.8-1.7 8.2-1.9 37.3-1.7l32 .3z"/><path d="M406.6 68.9c-11.5 2.4-12.9 22.1-1.9 26.7 4.5 1.9 55.6 2 59.3.1 1.3-.7 3.5-2.8 4.8-4.7 2-3 2.3-4.4 2-9.8-.3-5.5-.8-6.7-3.6-9.5l-3.2-3.2-26.7-.2c-14.8-.1-28.6.2-30.7.6z"/></svg>