<svg height="1044" viewBox="209.25 138.44 721.09 352.12" width="2500" xmlns="http://www.w3.org/2000/svg"><g fill="#fff"><path d="m276.85 365.01v-36.02h81.34l-34.73-64.35h-46.61v-36.02h27.16l-34.74-64.35h-60.02v167.69l52.5 97.24h129.58v-38.82l-13.69-25.37zm483.58-53.47c11.74-15.89 17.76-33.12 17.76-51.36v-6.59c0-29.64-10.57-45.36-27.23-61.33-9.76-9.24-21.09-16.14-34.01-20.64-14.85-4.45-30.2-6.69-45.94-6.69h-25.31l-71.11 137.65.08 126.3h64.51v-103.14l21.16 27.82v-3h18.38l27.93 36.73 27.9-36.73h9.05l-10.95-16.35c12.34-5.62 19.38-11.4 27.78-22.67zm-83.48-21.03h-14v-.16h-23.94v-61.4h28.16c12.05 0 26.72 3.14 33.59 8.79 6.94 6.25 10.33 13.21 10.33 21.34 0 18.17-16.48 31.43-34.14 31.43z"/><path d="m894.66 205.26-26.47 44.62-50.41-84.95h-73.01l87.21 151.42v35.93c3.48.81 6.82 1.93 9.98 3.35v-10.15h30.7l-.95 19.81 6.98-14.46h16.48l9.22 19.08v-53.55l25.95-44.97zm-28.8 172.14.03-.06-.03-.02z"/><text font-family="'LEMONMILK-Bold'" font-size="97.541" letter-spacing="-2" transform="translate(837.557 428.873)">!</text></g><path d="m818.45 360.73h-1.48v.04h-21.07v68.02h19.59c9.55 0 18.02-1.91 25.23-5.7-.07-.57-.11-1.16-.11-1.75 0-4.03 1.62-7.69 4.25-10.43l-2.76-43.94c-6.32-3.82-14.39-6.24-23.65-6.24zm-2.43 51.47h-1.83l-.16-34.96h4.38c11.9 0 21.14 6.15 21.14 17.48-1.54 11.5-10.04 17.48-23.53 17.48zm72.88-51.39h-3.93l-16.21 33.57-.66 16.54c2.72 2.82 4.41 6.59 4.41 10.69 0 1.02-.11 2.02-.31 2.99l3-6.15h23.45l5.05 10.34h18.06zm-6.34 44.08 4.41-9.21 4.35 9.21zm-175.92-1.07-32.89-43.26h-3.42v68.23h16.64v-25.13l19.67 25.07 19.63-25.06v25.12h16.64v-68.23h-3.42zm39.56 25.05h46.95v-16.55h-29.52v-9.29h22.68v-16.59h-22.68v-9.29h29.52v-16.59h-46.95zm-285.11 61.69-190.09-352.12h372z" fill="#00aeef"/></svg>