<svg height="693" viewBox="0 0 261.134 72.38" width="2500" xmlns="http://www.w3.org/2000/svg"><path d="m0 0h261.134v72.38h-261.134z" fill="#005" fill-rule="evenodd"/><g fill="#fff" stroke-width=".265"><path d="m48.399 43.61h-9.916l-3.954-20.738-4.083 20.739h-10.37l-7.906-32.146h8.782l4.699 26.021 3.79-25.826h9.982l3.856 24.595 4.245-24.79h8.296l-7.421 32.146zm21.031-14.42-3.403-11.503-3.467 11.503zm12.735 14.42h-8.88l-1.684-6.675h-11.051l-1.361 6.676h-8.88l9.495-32.049h12.833l9.527 32.049zm9.948-32.145v23.753h11.018v8.393h-19.702v-32.146z"/><path d="m119.528 36.158-6.805-4.958-6.903 5.055 2.658-8.134-6.838-4.99h8.458l2.625-8.004 2.592 8.004h8.425l-6.805 4.99z" fill="#f00"/><path d="m139.49 11.465 4.633 25.179 4.342-25.082h13.286v32.049h-8.295v-22.327l-5.282 22.327h-8.393l-5.088-23.008v23.008h-8.393v-32.146zm42.417 17.725-3.402-11.503-3.468 11.504zm12.735 14.42h-8.878l-1.686-6.675h-11.05l-1.36 6.676h-8.88l9.495-32.049h12.832l9.527 32.049zm15.198-18.373s2.463-.486 2.463-3.402c0-2.366-2.527-2.366-2.527-2.366h-5.671v5.768zm12.476 18.374h-10.175l-7.841-12.444v12.444h-8.684v-32.049h17.822s7.648.292 7.648 8.588c0 8.295-7.842 10.078-7.842 10.078l9.073 13.383zm26.67-32.146v8.782h-8.88v23.623h-8.846v-23.623h-8.879v-8.782z"/></g><g fill="#fc0" stroke-width=".161"><path d="m81.084 50.903c-1.322-.848-2.486-1.204-3.966-1.204-2.96 0-4.972 1.776-4.972 4.36 0 1.007.336 1.915.967 2.605.592.631 1.539 1.105 3.137 1.539 1.716.474 2.032.69 2.032 1.342 0 .631-.65 1.045-1.677 1.045-.73 0-1.5-.158-2.19-.473-.67-.276-1.026-.553-1.776-1.302v3.433c1.342.887 2.624 1.282 4.203 1.282 2.742 0 4.755-1.815 4.755-4.281 0-1.618-.829-2.861-2.328-3.473-.612-.256-1.224-.434-2.644-.809-.73-.197-1.006-.453-1.006-.947 0-.631.631-1.006 1.716-1.006.67 0 1.361.138 2.032.395.671.256 1.006.493 1.717 1.243zm.837-.868v7.438c0 2.23.198 3.157.849 4.104.829 1.223 2.506 1.953 4.459 1.953 2.584 0 4.459-1.184 5.07-3.196.198-.612.217-.928.217-3.058v-7.241h-3.492v7.24c0 1.204-.02 1.46-.177 1.914-.237.612-.868 1.026-1.638 1.026-.612 0-1.184-.276-1.44-.71-.296-.473-.355-.868-.355-2.23v-7.24zm11.394 0v13.16h3.492v-3.927h1.045c1.993 0 2.605-.079 3.473-.473 1.618-.71 2.584-2.447 2.584-4.597 0-1.677-.611-2.94-1.755-3.571-.77-.454-1.56-.592-3.197-.592zm3.492 3.295h1.223c1.125 0 1.48.04 1.855.237.335.177.552.611.552 1.124 0 .631-.276 1.144-.73 1.381-.395.217-.79.276-1.716.276h-1.184zm7.19-3.295v13.16h8.958v-3.059h-5.643v-1.913h5.584v-3.058h-5.584v-1.835h5.643v-3.295zm9.697 0v13.16h3.492v-5.367c.256.592.612 1.243 1.026 1.934l2.15 3.433h4.242l-3.926-5.663c1.046-.217 1.52-.414 2.013-.809.828-.67 1.321-1.854 1.321-3.117 0-1.282-.453-2.289-1.321-2.88-.71-.514-1.658-.691-3.512-.691zm3.492 3.058h1.361c.829 0 1.184.059 1.42.197.297.198.455.573.455 1.046 0 .986-.592 1.42-1.993 1.42h-1.243z"/><path d="m133.748 51.377c-1.302-1.224-2.446-1.678-4.163-1.678-1.637 0-3.038.513-4.064 1.44-1.144 1.086-1.736 2.822-1.736 5.19 0 4.478 2.15 7.201 5.682 7.201 1.716 0 2.9-.493 4.281-1.776v-3.393h-.158c-.73 1.519-1.795 2.23-3.294 2.23-1.934 0-3.019-1.342-3.019-3.73 0-1.223.296-2.11.908-2.722.552-.553 1.302-.849 2.13-.849 1.42 0 2.703.77 3.275 1.973h.158zm.365-1.342v13.16h8.957v-3.059h-5.643v-1.913h5.584v-3.058h-5.584v-1.835h5.643v-3.295zm20.962 0h-3.315v3.729c0 1.539.118 3.157.454 6.175h-.119c-.453-1.953-1.085-4.044-1.775-5.8l-1.717-4.104h-4.794v13.16h3.315v-4.716c0-1.341-.139-3.531-.296-5.189h.098a35.43 35.43 0 0 0 1.677 4.795l2.348 5.11h4.124zm.265 0v3.413h3.591v9.747h3.492v-9.747h3.551v-3.413zm10.92 0v13.16h8.957v-3.059h-5.643v-1.913h5.584v-3.058h-5.584v-1.835h5.643v-3.295zm9.696 0v13.16h3.492v-5.367c.257.592.612 1.243 1.026 1.934l2.15 3.433h4.243l-3.927-5.663c1.046-.217 1.52-.414 2.013-.809.829-.67 1.322-1.854 1.322-3.117 0-1.282-.454-2.289-1.322-2.88-.71-.514-1.657-.691-3.512-.691zm3.492 3.058h1.362c.828 0 1.183.059 1.42.197.296.198.454.573.454 1.046 0 .986-.592 1.42-1.993 1.42h-1.243z"/></g></svg>