<svg height="962" viewBox="4.833 .883 710.167 273.821" width="2500" xmlns="http://www.w3.org/2000/svg"><path d="m66.354 67.891s-3.446-3.274-4.309-1.206c-.86 2.067.863 2.585.863 2.585 14.992 12.407 13.615 35.843 13.615 35.843-1.724 33.951-18.44 43.601-26.54 43.601-4.818 0-7.553-3.351-8.987-6.069 6.144-4.938 10.679-11.195 12.778-14.439 3.792-5.859 4.309-10.857 4.309-10.857 2.413-18.44-7.754-19.128-7.754-19.128-16.372 0-21.886 15.681-22.232 27.917-.136 4.812.562 10.875 2.496 16.482-4.768 2.149-10.644 2.945-13.353-3.212-3.791-8.617-1.552-22.404 3.103-34.983 4.652-12.581 13.785-21.541 16.027-23.782 2.239-2.24 2.412-3.273 2.412-3.273.689-2.586-1.896-2.24-1.896-2.24-4.825 1.205-12.062 7.754-12.062 7.754-16.028 14.819-18.958 33.431-19.475 43.426-.516 9.997 3.274 23.437 18.095 23.437 3.289 0 6.422-.773 9.352-2.039 3.392 6.336 8.857 11.179 17.187 11.345 17.233.345 35.157-17.922 36.707-47.219 1.551-29.294-20.336-43.943-20.336-43.943zm-24.643 42.91c1.034-4.824 2.586-7.755 4.136-7.928 1.552-.172 2.24 2.067 2.24 2.067 2.959 9.686-3.634 23.463-8.803 30.602-.855-11.725 1.489-20.365 2.427-24.741"/><path d="m106.077 108.732s-.26-1.204-1.379-1.292c-1.119-.086-3.016-.517-3.446.517s-.087 1.293-.087 1.293-8.383 10.087-14.382 22.86c-1.626-.037-3.279-.073-4.918-.113v.776s.785 2.143 2.814 4.206a64.224 64.224 0 0 0 -2.298 6.91s-1.465 5.858.949 8.874c0 0 1.378 1.551 4.997 1.637 0 0 1.379.432 1.809-1.982.186-1.039 1.763-6.007 3.817-11.661 7.693.437 10.486.202 10.486.202s-.774 6.892 1.552 8.788c2.327 1.896 4.222 3.016 4.481 3.102.258.087 1.464.95 1.637-.948.171-1.895 1.551-29.985-6.032-43.169zm-8.855 23.582c1.923-4.623 3.872-8.627 5.323-10.14 0 0 1.12 3.103 1.551 10.254 0 0-2.776-.042-6.874-.114"/><path d="m114.694 129.757s-4.912 19.818 6.031 21.714c10.943 1.895 16.286-10.598 16.373-12.666.086-2.069-.432-4.222-3.103-2.929-2.672 1.29-7.842 3.964-11.03 4.48 0 0-1.204.344-1.121-1.207.087-1.55 1.035-11.977 5.085-23.091 0 0 1.378-3.964-.602-6.377 0 0-1.38-2.327-3.362.171-1.982 2.5-5.342 8.574-7.669 17.45z"/><path d="m157.173 110.455s-5.582-1.49-11.675 7.474c-11.643-2.458-11.429-5.619-11.675-6.44-.259-.861.345-.947-.259-1.637-.603-.689-1.723.517-1.723.517-1.897 2.069-1.12 6.117-1.12 6.117 1.314 4.961 7.307 7.681 10.86 8.884-4.192 10.504-4.431 22.702-4.054 27.824.431 5.859 6.292 10.856 9.135 10.512 2.842-.344 2.068-5.945 2.068-5.945-1.028-14.241.232-23.359 1.83-30.009 13.118 2.173 13.98-6.395 13.98-6.395 1.509-10.427-7.367-10.902-7.367-10.902zm2.757 5.86c-.382 1.91-3.673 2.389-6.534 2.438 1.438-3.037 2.811-3.522 4.467-3.902 2.239-.518 2.067 1.464 2.067 1.464"/><path d="m224.65 85.037s-34.593-19.141-63.789-9.947c0 0-1.797-.053-3.515 2.295-1.718 2.349-3.263 3.952-2.416 5.777.847 1.822 5.317 2.701 9.247 1.616 0 0 1.831-1.145-.392-1.959-2.226-.815-3.421-.999-3.421-.999s-1.188-.335.026-.899c1.217-.564 14.518-4.375 37.706 2.295 23.19 6.67 54.24 26.459 52.772 46.052-1.47 19.593-32.198 19.599-32.198 19.599s-6.326.11-14.749-1.72c-.005-6.497-.002-17.488.312-24.195 11.618.189 22.584 1.637 24.914 5.835 0 0 .949.926-2.175 2.633-2.368 1.297-4.4 1.821-2.332 2.931 0 0 3.016 1.888 4.833 1.34 1.812-.547 6.807-2.201 7.408-7.43.603-5.228-5.69-10.508-14.705-12.268-7.073-1.38-10.857-2.108-17.3-2.004.135-5.84-.476-13.116-1.695-14.885-1.583-2.296-3.292-5.344-4.737-2.087-1.299 2.933-2.452 9.166-2.985 17.599-9.936 1.296-20.981 5.185-24.325 9.187-3.726 4.462-.203 8.214.05 8.619.263.421 7.152 11.029 22.601 18.522.167 2.809.607 5.887 1.672 7.591 2.291 3.665 6.709 1.244 7.326.661.448-.423.839-1.573 1.024-4.37 6.895 1.958 19.415 4.243 33.037.564 20.545-5.547 23.759-18.12 24.575-25.591.818-7.47-4.256-27.227-36.769-44.762zm-51.455 45.27s-2.177-2.461 1.16-3.862c3.043-1.279 9.47-2.951 20.792-3.395-.111 3.465-.434 10.765-1.332 21.118-7.201-2.731-14.704-7.037-20.62-13.861m113.924-44.126c-.054-.004-.106-.003-.163-.007-1.131-4.059-8.648-3.698-8.648-3.698-15.238.831-20.56 11.242-21.315 13.996-.668 2.43-.484 6.055 2.407 8.707-.948 2.277-.301 3.34-.078 3.95.277.758 1.558 3.118 3.06 3.011 1.069-.075 1.892-.773 3.194-3.077 2.984 1.367 6.595 2.024 11.798.44 8.316-2.531 16.413-10.315 16.677-16.751.261-6.437-6.932-6.571-6.932-6.571zm-23.485 8.684c2.172-3.24 5.242-4.63 9.003-4.888-4.83 3.046-8.231 7.217-10.095 9.911-.642-1.077-.564-2.553 1.092-5.023zm24.409.86c-4.473 8.544-13.996 8.64-19.325 7.541 3.559-5.111 11.205-11.338 16.007-11.985 5.492-.739 3.318 4.444 3.318 4.444m-14.477 42.898s.505 12.304-1.255 13.602c-1.763 1.298-5.64.587-6.647-.867s-1.302-6.709-.836-15.014c.466-8.304.919-18.709 2.837-20.303 1.92-1.592 2.999-.061 3.792 1.086.789 1.147 1.654 2.445 1.801 5.072.148 2.629.305 15.225.305 15.225zm34.056-15.2c-7.201.241-20.788.971-22.628 2.341 0 0-1.004 1.019.411 1.361 1.414.34 7.16 1.182 9.927 1.413 2.767.23 12.875.523 16.341 5.047 0 0 2.031 2.232 1.817 7.098-.215 4.864-1.093 6.638-3.088 8.304-1.999 1.665-19.444 8.877-30.259-3.279 0 0-4.926-5.839 2.011-9.985 0 0 5.107-2.924 17.589.962 0 0 3.776 1.534 3.585 2.952-.192 1.418-3.233 2.904-7.424 2.708-4.191-.197-7.273-2.461-7.273-2.461s-3.839-1.984-5.312-.304c-1.473 1.681-1.051 2.592.269 3.68 1.318 1.088 6.409 1.161 6.409 1.161s14.249-.26 16.83-4.008c0 0 1.858-2.043-.792-3.62-2.653-1.576-10.338-2.774-13.253-3.009-2.917-.235-13.516-.392-15.01-3.209 0 0-1.405-1.915.329-7.409 1.734-5.496 14.381-7.451 19.861-7.743 0 0 14.767-.095 17.376 2.979 0 0 .359.536-.125 1.646-.481 1.11-.937 2.632-3.533 2.97zm26.347 8.899s4.276 7.581 4.649 7.667c0 0 .365.348.781.136.42-.215.264-2.58.264-2.58s-.665-8.113-4.379-22.086c0 0-.551-1.664-.054-3.298.497-1.635 2.047-.84 2.047-.84s6.199 3.327 8.971 13.676c2.77 10.348.479 19.574-.797 22.31-1.281 2.736-4.511 5.641-8.278 3.656-3.763-1.982-9.546-14.517-9.546-14.517s-2.184-4.709-2.637-4.648c0 0-.425-.874-.87 4.135-.445 5.007-.432 14.865-2.423 16.379-1.993 1.516-4.299.848-5.368-.979-1.072-1.831-1.473-6.114-.58-13.583.891-7.468 2.77-15.359 5.089-17.765 2.317-2.406 4.061-.593 4.794.065 0 0 2.767 2.779 7.553 10.861zm30.471-5.373-1.522 4.678s5.782-.357 10.04.141c0 0 1.421-.032 1.45 1.617.028 1.651-.174 3.369-.174 3.369s-.103 1.008-1.646 1.263c-1.545.253-12.564.346-12.564.346l-1.973 5.938s-.675 1.366.759 1.035c1.434-.334 13.1-2.186 14.477-1.791 1.599.459 3.292 2.756 2.793 4.503-.717 2.507-12.179 9.052-19.367 8.768 0 0-4.017.296-6.639-4.879-2.622-5.171-.538-8.595.119-10.525.655-1.928 1.292-3.185 1.292-3.185s-1.675-4.283-.288-5.63c0 0 .808-.688 3.096-.808l2.941-5.724s-3.295-.095-5.066-2.319c-1.773-2.227-1.889-3.353-.411-3.91 1.477-.557 14.733-2.757 24.118-2.147 0 0 3.194-.282 5.842 5.341 0 0 1.17 2.246-1.056 2.779-2.226.537-10.043 1.321-15.507 1.125zm48.216-4.743c-3.67-2.729-6.893-.2-6.893-.2-6.447 3.325-14.546 13.257-18.96 19.111-.636-4.22 2.346-9.476 2.346-9.476l.709-1.216c3.546-5.968 4.089-6.59 4.809-8.141.72-1.554 1.118-4.99.378-5.311-.738-.322-1.97.767-1.97.767-10.602 8.909-12.323 19.128-12.323 19.128-1.095 5.301-.213 9.115 1.26 11.797-6.033 12.52-8.303 24.581-8.298 29.255 0 5.06 3.877 8.356 5.951 9.241 2.07.885 2.448-1.69 2.448-1.69 2.102-12.828 5.293-21.4 9.031-29.957 10.571 2.877 19.356-8.238 22.105-12.455 3.101-4.758 3.098-11.227 3.098-11.227.019-.599-.023-6.895-3.691-9.626zm-7.568 20.539c-1.274 1.115-5.353 3.295-9.585 3.616 4.266-7.666 9.365-13.299 12.202-16.281 3.403-3.573 3.753-.19 3.753-.19.564 6.387-4.294 11.043-6.37 12.855m-390.243 72.299c0 2.703 1.08 3.38 3.604 3.38h1.036v.855h-12.75v-.855h.767c2.657 0 3.603-.722 3.603-3.74v-18.967c0-2.793-.765-3.604-3.378-3.604h-.992v-.855c1.082 0 3.83-.181 5.678-.272 1.846-.088 2.747-.135 5.676-.135 8.334 0 12.073 3.425 12.073 8.019 0 3.38-2.298 6.218-5.991 7.299 1.667 1.308 3.018 2.567 5.135 4.686l3.559 3.558c2.658 2.658 5.406 4.325 8.877 4.552v.81c-7.885.359-9.913-1.351-13.921-5.362l-2.974-2.973c-1.983-1.983-3.56-3.289-4.64-4.009-1.128.046-1.848.09-3.064.09-.991 0-1.577-.044-2.298-.09zm0-8.469c1.08.134 1.757.089 2.794.089 5 0 8.289-2.115 8.289-7.523 0-4.19-1.893-7.433-8.83-7.433-.857 0-1.443 0-2.253.091zm77.356 2.568h-.855c-.361-3.199-1.218-3.559-3.064-3.559h-7.613v9.596c0 2.072.765 2.476 2.431 2.476h6.938c3.155 0 4.1-1.215 5.226-5.09h.812l-.721 6.713h-23.922v-.855h1.26c3.605 0 4.237-.992 4.237-3.696v-19.011c0-2.523-.587-3.604-3.606-3.604h-.99v-.855h21.624l.361 6.262h-.811c-.587-3.83-1.712-4.64-3.334-4.64h-9.505v11.081h8.064c1.622 0 2.387-.765 2.613-3.379h.855zm64.21-10.498c-1.486-4.189-5.361-6.937-10.272-6.937-7.525 0-12.209 5.45-12.209 13.019 0 8.156 5.857 14.147 12.705 14.147 3.56 0 7.929-1.218 10.993-6.667h.855c-.585 2.027-1.802 4.819-2.883 6.577-2.883-.405-4.865 1.216-10.182 1.216-9.144 0-15.724-6.037-15.724-14.372 0-8.74 6.759-15.047 16.175-15.047 5.676 0 8.108 1.802 9.506 1.802.495 0 .72-.135.811-.27h.676l.404 6.532zm51.721 21.355c-8.83 0-16.263-5.676-16.263-14.101 0-8.965 6.892-15.318 16.488-15.318 8.515 0 15.812 5.813 15.812 13.921 0 9.101-7.297 15.498-16.037 15.498zm-.947-28.292c-7.928 0-11.081 7.389-11.081 12.794 0 8.425 5.721 14.372 12.974 14.372 7.344 0 10.856-6.489 10.856-12.885 0-8.38-5.315-14.281-12.749-14.281m57.635 23.336c0 2.703 1.082 3.38 3.606 3.38h1.035v.855h-12.751v-.855h.767c2.658 0 3.603-.722 3.603-3.74v-18.967c0-2.793-.764-3.604-3.378-3.604h-.992v-.855c1.082 0 3.831-.181 5.677-.272 1.848-.088 2.749-.135 5.676-.135 8.335 0 12.072 3.425 12.072 8.019 0 3.38-2.293 6.218-5.989 7.299 1.667 1.308 3.018 2.567 5.135 4.686l3.559 3.558c2.659 2.658 5.407 4.325 8.876 4.552v.81c-7.884.359-9.911-1.351-13.92-5.362l-2.975-2.973c-1.982-1.983-3.559-3.289-4.638-4.009-1.129.046-1.848.09-3.065.09-.991 0-1.576-.044-2.298-.09zm0-8.469c1.082.134 1.757.089 2.793.089 5.001 0 8.29-2.115 8.29-7.523 0-4.19-1.892-7.433-8.831-7.433-.854 0-1.442 0-2.252.091zm61.454-10.813c0-2.928-.766-3.649-3.425-3.649h-.901v-.855c1.667-.09 3.875-.181 6.352-.272 2.477-.088 5.226-.135 7.569-.135 11.894 0 17.164 6.037 17.164 13.471 0 6.803-5.27 14.957-16.67 14.957h-14.415v-.855h.767c2.433 0 3.559-.677 3.559-3.289zm3.737 20.184c0 1.846.137 2.478 3.694 2.478 6.039 0 8.56-.857 11.355-3.65 1.667-1.621 3.738-5.091 3.738-9.731 0-3.334-.945-7.028-3.603-9.686-2.071-2.073-5.27-3.649-11.578-3.649-1.848 0-3.065.135-3.606.18zm57.626-3.515c.947 4.01 4.1 6.353 7.612 6.353 3.018 0 6.218-1.758 6.218-5.316 0-6.488-14.462-8.47-14.462-16.354 0-3.738 3.422-6.533 8.019-6.533 3.784 0 4.551 1.127 6.127 1.127.362 0 .541-.09.81-.45h.722l.766 5.721h-.766c-1.263-3.245-4.144-5.317-7.252-5.317-2.974 0-5.048 1.714-5.048 4.236 0 6.398 14.462 8.107 14.462 16.397 0 4.416-3.919 7.705-9.189 7.705-2.477 0-5.633-1.216-6.264-1.216-.404 0-.72.225-.901.495h-.766l-.945-6.848z"/><path d="m5.062 179.744h405.657v-2.12h-405.657zm709.938-38.61c0-77.458-62.793-140.251-140.25-140.251s-140.25 62.793-140.25 140.251c0 52.743 29.148 98.636 72.183 122.584-3.65-5.405-4.559-10.562-5.006-13.81-1.171-8.501 4.077-16.652 16.159-16.652 16.613 0 27.516 6 34.389 10.161 0 0-2.662-3.738-5.696-6.083 0 0-30.146-20.913-30.146-51.103 0 0-.761.581-2.416 2.014-2.189 1.893-2.129 1.137-2.277-.98 0 0-.052-17.644 15.166-37.874 0 0-12.351.485-18.567-12.236 0 0-3.149 6.122-3.637 7.415-.49 1.293-1.219.57-1.431.292-.214-.274-6.049-4.65-9.718-11.604 0 0-1.23-.977.082-5.713 1.31-4.736 1.325-7.501 5.884-14.206 0 0-6.376-.622-5.236-6.845.099-.542.468-1.037.741-1.55a20.78 20.78 0 0 1 -5.015-2.054s-11.188-6.687-8.702-18.098c1.748-8.016 7.196-9 7.196-9s-1.638-11.52 9.25-13.89c0 0-.546-11.504 8.99-10.882 4.787.313 8.632 3.21 10.989 8.267l48.324-38.438s4.744-.448 4.425 4.508l-41.834 38.449s1.842-1.389 5.846-.516c5.659 1.234 6.733 7.182 5.736 9.942-.994 2.746-2.318 3.842-6.399 4.433-4.08.593-6.177 4.78-7.55 9.716-1.888 6.796-5.216 10.345-8.047 12.211 1.115 3.21-2.076 5.663-2.076 5.663 7.766 18.225 35.031 30.335 35.031 30.335-16.985-18.639-7.539-30.14-7.539-30.14-.719-.627-2.686-2.423-3.037-7.431-.354-5.006 2.891-9.781 8.571-10.18 5.682-.399 7.615 3.721 7.88 7.478.262 3.751-1.403 6.192-1.403 6.192 5.679.956 7.02 7.633 7.02 7.633 7.443-28.969 40.855-22.997 43.231-20.844 0 0-3.7-3.127-4.229-10.636-.971-13.765 9.139-19.994 18.575-20.657s23.789 8.099 24.751 21.771c1.09 15.499-10.488 20.088-15.59 20.445-5.101.36-7.77-.42-7.77-.42 6.718 7.462 7.21 17.199 7.21 17.199 1.21-2.021 4.786-7.594 14.896-8.304 9.05-.637 18.465 3.925 19.556 19.427.601 8.568-5.493 24.31-22.243 25.489-13.768.966-17.318-11.68-17.318-11.68-11.874 19.929-38.184 16.035-38.184 16.035s1.135 8.934 26.463 19.012c0 0 13.973 1.524 15.916-9.28 1.943-10.799 9.179-8.307 9.179-8.307s7.333 1.739 7.879 9.511c0 0 .241 5.542-3.979 7.491 0 0 18.499 9.415 22.561 19.685 2.845 7.19.591 9.613.591 9.613s3.92 7.617 1.972 12.607c-1.62 4.148-5.908 4.099-7.765 3.215 0 0-3.659 8.92-14.082.619s-10.433-6.057-13.807-7.163c-3.373-1.109-12.33.14-17.123-11.895l-8.952 3.293s-13.69-2.819-22.149-7.651l5.731-5.988s-9.355 2.765-20.231-18.507c-12.005 35.403 31.677 45.955 31.677 45.955-13.343 8.131-26.591 1.581-26.591 1.581 1.89 6.252 12.636 21.257 12.636 21.257 2.29-.451 15.614-10.68 31.219-10.68 5.5 0 18.403 3.672 19.121 17.929.45 8.928-4.371 17.954-18.295 25.44 56.549-18.083 97.514-71.023 97.514-133.57"/></svg>