<svg height="775" viewBox="-.086 0 500.193 154.906" width="2500" xmlns="http://www.w3.org/2000/svg"><path d="m74.827 154.906 3.802-7.734h9.095l3.853 7.734 3.186-.64-11.458-22.974h-.051l-11.458 22.973 3.031.64zm5.138-10.708 3.237-6.453 3.186 6.453m13.924 10.571v-23.476h.051l14.49 15.788v-14.736l3.185-.504v23.065h-.05l-14.439-15.788v15.284m21.272.275v-22.835l3.186-.55v23.11m5.754.001 4.573-23.11h.051l7.759 17.206 7.707-17.206h.051l4.625 23.11-3.135.366-2.723-14.232h-.05l-6.424 14.14h-.05l-6.578-14.14h-.05l-2.672 14.232m28.515.137 3.803-7.734h9.095l3.853 7.734 3.237-.64-11.51-22.974h-.05l-11.458 22.973 3.031.64zm5.19-10.708 3.186-6.453 3.186 6.453m11.663-9.382 1.028-2.974h13.308v2.974h-5.293v19.587l-3.185.366v-19.953m14.9 19.861v-22.835l3.186-.55v23.11m5.651-11.302c0 6.635 5.293 11.806 11.819 11.806s11.817-5.171 11.817-11.807c0-6.635-5.292-11.806-11.817-11.806s-11.818 5.17-11.818 11.806zm3.187 0c0-4.669 3.905-8.833 8.632-8.833s8.632 4.164 8.632 8.832c0 4.714-3.905 8.878-8.632 8.878s-8.632-4.164-8.632-8.878m26.821 11.67v-23.476h.05l14.49 15.788v-14.736l3.186-.504v23.065h-.051l-14.438-15.788v15.284m33.86-5.125c.873 1.465 2.466 2.7 4.265 2.7 2.363 0 4.11-1.19 4.11-3.981 0-5.217-10.328-2.334-10.328-10.251 0-3.981 2.878-6.452 6.988-6.452 2.467 0 4.83 1.327 6.32 3.294l-2.158 2.197c-1.233-1.281-2.466-2.517-4.367-2.517-2.055 0-3.546 1.327-3.546 3.478 0 4.622 10.328 2.517 10.328 10.297 0 4.027-3.083 6.864-6.988 6.864-3.083 0-4.984-1.465-7.039-3.661m17.778-16.429 1.028-2.974h13.307v2.974h-5.24v19.587l-3.238.366v-19.953m29.545-3.523v14.369c0 6.956-2.21 9.244-7.913 9.244-6.217 0-8.016-2.746-8.016-9.244v-13.82l3.238-.55v16.109c0 2.883 1.644 4.576 4.521 4.576 2.775 0 4.933-1.281 4.933-4.576v-15.56m10.07 22.562h5.652c6.834 0 11.356-5.492 11.356-11.304s-4.522-11.257-11.356-11.257h-5.652zm3.237-19.587h2.415c3.803 0 8.119 3.158 8.119 8.283 0 5.171-4.316 8.329-8.119 8.329h-2.415m20.707 3.249v-22.835l3.237-.55v23.11m5.601-11.302c0 6.635 5.343 11.806 11.817 11.806 6.526 0 11.87-5.171 11.87-11.807 0-6.635-5.344-11.806-11.87-11.806-6.474 0-11.817 5.17-11.817 11.806zm3.237 0c0-4.669 3.853-8.833 8.58-8.833 4.779 0 8.632 4.164 8.632 8.832 0 4.714-3.853 8.878-8.632 8.878-4.727 0-8.58-4.164-8.58-8.878m28.208 6.178c.925 1.465 2.466 2.7 4.316 2.7 2.364 0 4.11-1.19 4.11-3.981 0-5.217-10.327-2.334-10.327-10.251 0-3.981 2.826-6.452 6.936-6.452 2.467 0 4.83 1.327 6.32 3.294l-2.158 2.197c-1.233-1.281-2.466-2.517-4.316-2.517-2.106 0-3.596 1.327-3.596 3.478 0 4.622 10.327 2.517 10.327 10.297 0 4.027-3.083 6.864-6.988 6.864-3.082 0-4.984-1.465-6.987-3.661" fill="#f3632b"/><g fill="#231f20"><path d="m53.298 55.602s-.565.686-.925 1.327c-.308.64-.719 1.601-.976 1.784s-.668 1.007-.77 1.327c-.052.367-.463 1.373-.617 1.877-.154.549-.874 1.098-1.028 1.373-.154.229-.565 1.144-.976 2.974-.36 1.876-1.747 6.315-2.055 7.185-.309.915-.874 3.203-.925 4.073s-.411 1.235-.36 1.922c0 .732-.41 1.281-.565 1.784-.154.55-.154 1.785.051 2.472.206.686-.205.87-.462 1.418-.257.55-.051 1.556.05 1.922.104.367-.513 1.053-.513 1.419.051.366.257 1.144.411 1.556.205.457.205.96.36.594.205-.32.513-.686.668-.96.205-.275.36-.641.36-.641s.256-.595.667-.778c.463-.23.257-.733.514-1.19.257-.412.822-1.419.873-1.785.103-.32.412-.961.771-1.053.36-.091.617-.732.565-1.19 0-.411.103-1.052.411-1.372.36-.367.36-.732.412-1.098.102-.32.154-.504.513-.641.36-.092.514-.778.822-1.648.309-.915.566-1.601.566-1.601s0-.55.257-.733c.256-.182.308-.457.308-.686 0-.275.154-.824.154-.824s.257-.96.565-1.235c.36-.275.617-.824.77-1.877.104-1.052.463-1.693.515-2.013.103-.366.308-1.236.308-1.602s.154-1.144.206-1.601c.102-.412.256-.778.154-1.053-.103-.275.103-.595.103-.595s.41-.457.462-1.006c.103-.504.205-1.648.308-2.517.051-.916 0-1.602-.103-1.968-.102-.32.052-1.053.36-1.144.257-.092.051-.778.051-.778s-.462-.687-.41-1.053c.102-.366-.36-.778-.617-.87l-1.234.504zm8.016-52.124c.308-.092-.411-.366-.463-.412-.05-.091-.103-.274-.154-.366-.051-.137-.205-.137-.205-.183a.793.793 0 0 1 -.103-.366v-.641c0-.183.05-.412.154-.504.154-.091.565-.182.72-.32l.256-.457c.206.05.617 0 .617 0s.154-.229.257-.229c.154.05.41.183.77.183.36-.05.771-.183.925.137s.309.458.565.458c.309 0 .36-.05.566.182.154.183-.051.32.668.641.719.367 2.26 1.373 2.928 1.83.668.458.874.595 1.13.642.258.091.309.229.309.366s.051.229.257.366c.154.138.462.092.462.23 0 .136.257.457.257.457l.411.091v.23s.103.411.206.548c.154.138.36.32.514.367.154.049.462 0 .462.137.051.137.462.915.874 1.281.36.367.924.961 1.54 1.648.617.732.566 1.098.874 1.235.36.138.617.138.72.504.05.412.41 1.19.873 1.647.463.412 1.233 1.465 1.336 1.694.051.274.051.549.257.686.206.092.463.32.463.504 0 .183.308.366.308.366s.514.137.462.32c-.05.23.103 1.144.103 1.144s.514-.366.617-.183c.154.183.05.412.103.595.05.183.256.32.256.32s.411.137.514.457c.051.32.77 1.465 1.233 2.151.463.641 1.285 1.693 1.285 1.693s.308.412.308.595c0 .229.206.457.206.457l.77.961s.206.916.771 1.785c.514.824.976 1.464 1.182 1.648.154.182.514.64.411.915-.154.274-.206.32 0 .64.205.32 1.079 2.014 1.285 2.426.205.366.462.824.565 1.373.05.504-.206.96.154 1.098.308.137.822 1.099.976 1.556.154.458.36 1.236.514 1.556.103.32.257.32.205.732-.05.367.309.824.309.824s.77 2.38.925 3.066c.154.732.77 1.83.873 2.288.051.458-.205.55 0 1.236.257.732.874 1.647.925 2.15.103.55.257 1.236.308 1.465.103.183.257 1.968.411 2.471.154.504.411.915.463 1.373 0 .457.36 2.746.36 3.661.05.915.154 2.06.154 2.06s.256.091.102.503c-.102.412.155 1.83.103 2.425-.051.595-.308 1.144-.308 1.327 0 .23.308 1.19.205 1.74a8.273 8.273 0 0 0 -.154 1.51c0 .366.051 1.876-.051 2.47-.103.595-.257 1.19-.257 1.19s-.205.641-.205 1.282c0 .64.256 1.327 0 1.373-.309.091-.206.274-.206.549s-.051.915 0 1.327c0 .366 0 1.281-.103 1.647-.102.32-.308.32-.308.778 0 .595 0 1.785-.257 2.7-.205.961-.257 1.465-.72 3.478-.513 1.968-.975 3.387-.975 3.707s-.206.961-.36 1.327c-.103.32-.668 1.281-.617 1.602-.36.274-.565.549-.873 1.327s-.514 1.785-.514 2.196a6.94 6.94 0 0 0 -.668 1.877c-.102.594-.05.915-.514 1.693-.513.824-1.747 2.425-2.003 3.295-.309.87-.566 1.144-.72 1.464-.103.367-.565.641-1.13 1.282-.565.686-.822 1.006-.925 1.418-.154.412-.72 1.282-2.055 2.426-1.336 1.19-2.261 1.967-2.775 3.203-.565 1.19-.205 1.007-1.336 1.785-1.182.823-1.747.915-1.9 1.144-.104.183-.104.594-1.594 1.281-1.49.732-1.695.595-2.21.778-.513.23-.718.092-1.232.595-.514.457-1.49 1.556-2.056 1.785-.565.182-.77.137-1.644.182-.873 0-1.593.138-2.877.458-1.285.32-2.158.549-2.62.594-.463.092-.977.32-1.182.23-.206-.05-.309-.32-.617-.275-.257 0-1.336-.092-2.004-.23-.668-.09-1.541-.136-2.312-.32-.822-.182-1.284-.503-1.593-.548-.36-.05-.719-.504-.719-.504s0-.137-.308-.092c-.309 0-1.08-.183-1.388-.183s-.205-.137-.822-.366c-.565-.229-.873-.686-.873-.686s0-.23-.309-.183c-.36 0-.205 0-.41-.183-.206-.229-.566-.457-.72-.595a1.661 1.661 0 0 0 -.77-.229c-.206 0-.617.092-1.388-.503-.72-.55-1.439-1.373-1.798-1.556-.411-.183-.309-.275-.822-.457-.514-.183-.617-.092-1.285-.961-.668-.824-1.284-1.144-1.49-1.465-.205-.32-.822-.503-1.028-.96-.205-.458-.462-1.1-.719-1.557-.205-.457-.462-.64-.616-.823-.103-.183-.412-.595-1.028-.412-.668.137-1.336.137-1.953.457-.668.275-1.336.595-1.644.961-.308.32 0 .366-.77.457-.771.092-1.336.138-2.004.595-.72.504-1.44.961-1.747 1.007-.36 0-.206-.275-.411-.412-.206-.137-.668-.183-.668-.183l-.874.458s-.051.549-.514.594c-.41 0-.77-.049-1.181.092-.36.137-1.13.183-1.234-.05-.05-.182-.462-.548-.873-.594-.411-.092-1.387.05-1.696.504-.308.457-.462.457-.719.274s-.154-.457-.976-.549c-.874-.137-1.233-.32-1.233-.32l.05-.229s-.308-.137-.821-.457c-.566-.32-1.028-.732-1.336-.595-.36.137-.72.275-.925.137-.206-.137-.617-.457-1.13-.549-.566-.137-1.336-.183-1.336-.183s-.566-.503-.309-.778c.257-.274.565-.64.411-.594-.36-.183-1.284-.412-1.284-.412s-.771-.092-.565.23c.205.32.154.914-.412.182-.565-.686-1.284-1.51-1.541-1.648-.308-.137-.514-.366-.72-.64-.205-.275-2.311-2.746-3.39-4.44-1.13-1.691-2.673-3.202-3.135-4.438-.41-1.236-.822-2.426-1.13-3.02-.257-.55-.411-1.465-.72-1.602-.256-.138-.205-.412-.616-1.693-.462-1.328-.976-2.93-.925-3.661.051-.733.051-2.746-.051-3.707-.051-.915-.462-2.471-.36-3.25.103-.823.309-1.555.309-1.555l.205-.183s.051-.55.051-1.968c0-1.464.257-1.876.309-2.517.05-.64.154-1.464.205-1.739.051-.229.308-.503.308-.503.103-1.053.155-2.563.257-2.975.103-.412.309-1.19.36-1.419.051-.182.514-.457.514-.457s.103-.275.154-.595 0-.869 0-1.144c0-.229.154-.778.257-.96.154-.23.257-.367.462-.367.206 0 .514-.092.514-.092.103-.366 0-1.19 0-1.19l-.206-.366s.412-.594.566-.96c.103-.32.308-.595.308-.595s.051-.824.103-1.19c.05-.32.41-1.327.668-1.83.205-.55.257-1.099.257-1.465 0-.412 0-.732.257-.915.256-.23.77-.916.976-1.83.257-.916.616-1.511.822-1.648.616-.778.205-.138.205-.138s1.13-1.693 1.696-2.425c.565-.778 1.028-.961 1.079-1.648 0-.64.206-.64.668-1.327.411-.686 1.439-2.15 1.696-2.608.256-.457.616-1.144 1.181-1.74.566-.64.925-.914.977-1.097.05-.183.154-.641.154-.641s.462-.55 1.593-1.51c1.181-.961 1.695-1.51 1.85-1.968.205-.457.667-.504.976-.87.308-.411 1.9-1.876 3.082-3.066 1.13-1.235 1.336-1.19 1.336-1.19s.103-.182.309-.457c.205-.274 1.541-1.144 2.004-1.373.462-.229.616-.457.616-.457s-.308 0 .463-.504c.77-.457 1.49-.823 2.363-1.19.822-.366 1.644-.686 2.107-.96.462-.275 1.438-.05 2.055-.275.565-.23 1.079-.412 1.233-.64.103-.184.154-.458.822-.458.668-.05.874-.092 1.13-.367.257-.274.514-.549.823-.503.36.049 1.284.549 1.541.594.257.092 1.13.458 1.439.092.308-.32.77-.549 1.027-.549s.771.504.977.504c-.051.411.103.457.205.64.051.23-.154.275-.257.55-.103.274-.514.274-.72.229-.205-.092-.307.137-.564.32-.257.229-.463.229-.771.32-.36.049-.617.137-1.387.274-.822.183-1.799.183-2.364.595s-.976.915-1.336.961c-.41.092-.72.229-.925.686-.154.458-.513.55-.719.641a1.04 1.04 0 0 0 -.514.412c-.103.183-.103.366-.514.137-.41-.274-.873-.229-.822.05 0 .228-.102 1.052-.36 1.235-.256.229-1.13.824-1.49 1.098-.41.275-.821.732-.821.961-.771.732-2.364 2.288-2.62 2.563-.258.275-.669.55-.823.686-.205.138-.462.458-.565.87-.154.412-.72.549-1.233 1.098-.514.55-1.285 1.83-1.439 2.471-.206.687-.514.687-.72 1.099-.154.366-.205.64-1.027 1.739-.822 1.052-1.233 1.098-1.336 1.418-.154.32 0 .504-.257.732-.257.183-.616.275-.668.458-.05.229-.41 1.281-.257 1.464-.308.55-.668 1.74-1.181 2.471-.514.732-.823 1.099-1.234 1.51-.36.412-.565 1.694-.719 2.243-.103.549-.257 1.052-.514 1.419-.257.32-.72.777-.822 1.19a9.068 9.068 0 0 0 -.41 1.647c-.104.686-.052 1.647-.36 2.06-.309.41-.874 1.097-.977 1.463-.154.412-.257.641-.36 1.099-.154.457-.154.732-.308 1.098-.205.412-.462 1.693-.462 2.288 0 .55-.257.732-.308 1.053-.052.32-.206 1.418-.257 1.922-.051.457-.103 1.052-.411 1.098-.36.092-.463.275-.463.275-.051.686 0 .732-.205 2.837-.155 2.15-.051 4.942-.155 5.537-.102.595.206.55.155.915-.051.412-.051 2.517-.36 3.57-.257 1.052-.308 1.556-.36 2.15-.05.595.309 2.06.566 3.799.256 1.693.667 2.288.667 2.608s.052 1.236.309 2.105c.308.824.514 1.602.873 2.517.36.916.925 1.83 1.028 2.197.051.412.36 1.236.565 1.464.206.183.514.275.617.641.05.32.36 1.465.77 1.648.36.229.514.549.514.549s.77.732 1.233 1.006c.463.23 1.08.595 1.233.961 0 0 .72.504.771.824 0 0 .874-.091 1.08.137.205.275.616.32.821.458.206.137.72.229.977.503.256.23.873.275 1.181.275.36 0 1.49.64 1.901.549.36-.092 1.028.05 1.44.092.41.049.718-.092 1.232-.32.514-.23 1.388-.367 2.004-.458.668-.091 1.85-.229 2.62-.778.771-.549 1.542-1.601 1.799-1.464s.72-.23.925-.412c.205-.183.873-.686 1.336-.915.462-.183 1.49-.504 1.233-1.007s-.514-1.098-.565-1.51c-.103-.366-.309-1.968-.463-2.517-.154-.595-.514-1.327-.616-1.647-.051-.32-.411-.961-.411-1.327 0-.32-.155-.687.05-.687.206-.049.463-.366.309-.549s-.36-.504-.411-.732c-.103-.183-.257-1.144-.257-1.876-.051-.733 0-1.648-.257-2.06a1.658 1.658 0 0 1 -.36-1.235c.052-.32.412-.412.309-1.51-.103-1.099-.154-3.433-.103-3.799.051-.412.257-.412.308-.732.051-.366.103-1.602.051-2.471 0-.824-.154-1.648-.05-1.876.153-.275.359-1.19.359-1.19s.462-1.74.616-2.929c.206-1.19.617-2.654.823-3.25.256-.594.616-1.555.616-1.738s.051-.778.257-1.144c.154-.32.873-1.281.976-1.785.103-.549.309-.824.257-1.052-.103-.275-.103-.824.257-1.19.411-.412.72-1.373.822-1.74.103-.411.308-1.143.308-1.143s0-.05.36-.412c.411-.32.822-1.19 1.336-2.014.514-.823 1.387-2.333 2.415-3.432.976-1.098 2.21-2.059 2.62-2.334.36-.274.822-.457.925-.732.154-.274.411-.32.617-.412.205-.091.565-.274.77-.411.206-.138.257.049.566-.138.36-.229.873-.503.976-.686.154-.23.514-.183.77-.183.309 0 1.131.049 1.337.092.205.049.102.549.41.366.309-.137.514-.32.72-.412.205-.049.976-.092 1.901.137.925.275 1.387.458 1.901.367.565-.092.874.229 1.08.549.205.32.77.778.77.778s.72.229.565.824c-.205.594.103 1.327.206 1.555.154.275.719 1.053.462 1.648s-.051 4.347-.103 5.857c0 1.51-.05 3.478-.308 4.897-.205 1.373-.514 2.334-.41 2.517.05.183-.36.183-.258.732.051.504-.154 1.098-.36 1.648-.154.549-.102 1.327-.154 1.739-.05.366-.873 2.7-1.079 3.295-.154.594-1.233 2.883-1.387 3.66-.154.824-.36 1.145-.616 1.556-.257.367-.925 2.06-1.285 2.838-.36.823-.514 1.601-.77 2.334-.31.732-.72 1.327-.977 1.693-.257.32-.36.732-.36.915 0 .229-.102.457-.308.732-.154.275-.873 1.236-.822 1.556.103.32 0 .641-.257.778-.308.137-1.028 1.51-1.182 1.785-.102.229-.36.64-.462.87-.154.182-.411 1.51-.874 1.921-.462.412-1.13.55-1.336 1.099-.256.503-1.233 1.647-1.284 1.922-.051.274-.257.503-.051.915.257.457.77 1.235.873 1.693a4.45 4.45 0 0 0 .72 1.968c.462.778 1.13 1.007 1.13 1.464.051.458.051 1.465.411 1.922.36.458.668 1.099.874 1.144.205.05.719.05.976.367.205.32 1.13 1.601 1.85 2.38.667.777.976.777 1.438 1.19.514.456 1.593 1.372 1.644 1.692.103.32.771.55.771.55s.72.137.925.32c.205.182.257.457.668.411.36 0 1.644.092 2.107.092.462-.049.77.183 1.335.23.514.048 1.799 0 2.364-.093.514-.091 1.644-.229 2.158-.594.514-.32 1.028-.732 1.49-.778.463 0 .976-.23 1.13-.457.206-.275.668-.687 1.542-1.053.925-.366.976-.412 2.569-1.464 1.541-1.053 1.233-1.236 1.747-1.877.514-.686.617-1.235 1.079-1.281.462-.092.822-.183.976-.457.206-.275.411-.595.565-.641.206-.092.411-.412.514-.641.154-.183.617-.457.77-.457.206 0 .412.091.566-.183.103-.23.976-1.968 1.08-2.243.153-.274.41-.412.564-.64.206-.183.668-.32.771-.595.154-.275.051-.55.257-.732.205-.183.72-.367 1.233-1.602.463-1.281.77-1.602 1.644-3.432.874-1.785 1.182-2.151 1.233-2.838.052-.732-.102-.823.36-1.098.463-.274.77-.549.925-1.464.205-.915.257-1.602.411-1.922.206-.32.308-.87.514-1.053.205-.229.565-.64.565-1.007 0-.411-.103-1.601.103-2.196.257-.595.822-.961 1.027-1.465.206-.549.463-1.464.36-2.608-.051-1.098.103-1.053.36-1.693.257-.687.154-1.144.513-2.014.411-.87.411-2.517.206-2.837-.206-.32-.308-.686-.051-.915.257-.183.514-.778.514-.778s-.051.049.257-.504c.308-.503.308-.96.36-1.327.05-.32.102-.915.102-1.51-.051-.595 0-1.373.205-1.556.155-.229.309-.412.566-.686.257-.275 0-.183-.103-.412-.051-.183.154-1.785 0-2.563s-.36-1.739-.308-2.105c.05-.32.205-1.968-.051-3.203-.206-1.236-.514-2.746-.514-3.936.05-1.19.102-3.478-.206-4.302-.257-.778-.41-1.601-.616-1.739-.206-.137-.206-.182-.257-.732 0-.503-.308-2.15-.463-2.47-.102-.321-.154-.458-.308-.504-.205-.092-.36-.275-.308-.504.05-.275-.051-.275-.154-.732-.051-.458-.206-.595-.206-.778 0-.23-.308-1.51-.462-2.105s-.566-.916-.617-1.282c-.103-.411-.462-1.739-.77-2.425-.257-.732-.412-1.098-.463-1.419-.103-.366-.565-2.562-.925-3.157-.308-.595 0-.87-.36-1.373-.36-.504-.41-.595-.873-.87-.463-.32-.874-.96-.77-1.327.102-.32.205-.64-.463-1.464-.617-.87-.77-1.556-.874-1.922-.154-.32-.308-.504-.565-.778-.257-.23-.565-.504-.565-1.007 0-.549-.617-1.693-.976-2.196-.36-.55-.617-.778-.822-.916-.206-.137-.463-.183-.463-.64-.051-.458.154-1.373 0-1.648s-.257-.183-.462-.275c-.206-.049-.617-.049-.617-.274 0-.275-.154-1.144-.411-1.465-.308-.32-.411-.503-.77-.732-.36-.274-.823-1.373-1.285-1.83-.514-.458-.822-.641-.976-.824-.103-.183-.257-.64-.257-.64s-.566-.916-1.13-1.374c-.515-.411-1.08-.915-1.08-.915s-.41-.549-.616-.87c-.206-.32-.36-.049-.514-.503a4.29 4.29 0 0 0 -.874-1.556c-.462-.549-.976-.732-1.336-1.052-.308-.32-.616-.412-.616-.641 0-.275-.463-.55-.463-.55l-.873-.457s-.617-.183-.925-.457c-.36-.23-.565-.457-.77-.686a.911.911 0 0 0 -.669-.367c-.102 0-.462.05-.565-.137-.154-.183-.36-.32-.668-.229-.36.05-.36.183-.514 0-.205-.183-.308-.32-.667-.229-.412.092-.566.183-.617.412-.051.183-.257 1.098-.462.824m48.811 86.81c.514.503 1.336 1.464 1.953 1.418.616 0 1.027.05 1.49.137.462.092 1.079.412 1.695.23.565-.23 2.26-.504 2.672-.687.462-.229 1.85-.686 2.158-.778.36-.092.72-.137.514-1.235-.206-1.145-.463-3.433-.77-4.394-.258-.96-.772-2.517-.772-3.295-.05-.778-.154-1.784-.36-2.288-.153-.503-.205-1.052-.359-1.464-.205-.457-.308-1.053-.514-1.648-.205-.64-.308-1.922-.308-1.922s.051-.823-.308-.64c-.309.229-.411.457-.771.503-.36 0-.514.183-.514.412 0 .275-.154.732-.462 1.19-.36.457-.874 1.327-.925 1.693-.103.366-.257.87-.565 1.236-.36.366-.823 1.601-.977 2.334-.154.686-1.181 2.745-1.387 3.706-.257.961-.822 2.655-1.13 3.387-.155.32-.411 1.647-.36 2.105zm-14.387-2.563s.617.503 1.233 1.098c.617.595.822.504 1.08.778.256.275.616.504 1.181.732.514.275 1.233.23 1.85.23.616 0 .925-.733.925-1.19 0-.412.308-.504.822-.733.565-.183.36-.594.41-.87.104-.274.36-.777.618-1.052.256-.274-.052-1.235.05-1.51.052-.275.566-1.236.823-1.693.257-.458.462-1.922.616-2.746.154-.778.103-1.144.411-1.327.257-.183.463-.87.463-1.236s.05-.87.41-1.052c.36-.183.515-1.099.566-1.602.051-.549.822-1.785.822-2.15 0-.367.308-.779.77-.87.412-.137.412-.366.566-.732.154-.367.411-1.236.411-1.602s.411-.824.72-1.236c.36-.457.616-1.098.77-1.601.154-.55.411-.458.668-.916.257-.457.411-.823.411-1.052 0 0 .257-.183.617-.457.308-.275.05-.367.308-.733.257-.366 1.182-1.784 1.644-2.928.514-1.19.977-.824 1.901-.961.977-.092.874.091 1.234.229.36.182.668.503 1.438.778.822.229.925.411.925.411s.257.412.514.412.36.137.616.595c.309.412.463.412.72.503.257.092.205.687.514 1.465.257.778.41 3.157.462 3.752 0 .641.617 2.7.822 3.478.154.824.668 1.74.822 2.105.206.32.051.687.051.687s.103.686.206 1.052c.051.367.462.961.565 1.236.051.229.36 1.83.617 2.929.205 1.144.41 2.654.719 3.752-.257 0-.308 1.144-.206 1.876.103.687.72 1.877.823 2.243.102.366.565.503.822.412.257-.092.873.049.873.049s.257.274.72.366c.462.05.565.412.565.412s0 .594-.257.686-.514.641-.617.915c-.05.275-.925 1.145-.925 1.145l.206.915-.051.778.05 1.144s.258.686.566 1.007c.257.366-.103.732-.103.732s-.05.96.257 1.464c.257.55.206 1.602.206 1.83 0 .275.308 1.145.462 1.51.206.32.206.962.206.962s-.206.87-.103 1.556c.103.732.154 2.288.257 2.562.103.23.36.778.206 1.053-.155.229-.412 1.144-.309 1.373.103.274.565.778.565.778s-.256.549.206.87c.411.366-.463.457-.72.366-.256-.05-.873-.138-1.387-.183-.565-.092-1.079-.23-1.49-.138-.462.092-.565-.411-.565-.686a.668.668 0 0 0 -.205-.457l-.566.457s-.565-.05-.822-.137c-.257-.092-1.13-.23-1.387-.32-.308-.05-.103-.504-.206-.778-.102-.23.052-.961-.154-1.373-.205-.458-.308-1.053-.462-1.74-.36-.182-.874-2.196-.976-2.882-.103-.687-.206-3.432-.257-4.577 0-1.144-.257-.915-.822-1.372-.514-.412-.36-.687-.72-1.099-.36-.457-.616.458-.976.458s-1.49.049-2.158.049c-.72.049-2.21.274-2.929.366-.668.137-.668-.229-.976-.412-.257-.137-.873.05-1.285.138-.462.091-.308-.595-.308-.595h-.77s-.977.32-1.285.504c-.36.182-.976.366-1.233.457-.257.092-.565 2.06-.72 2.563-.154.549-.308 1.784-.513 2.288-.257.549-.257 1.327-.155 1.784.103.412-.205 1.328-.205 1.694 0 .32-.514.686-.77.96 0 0 .05.642.153.962.103.366-.36.87-.41 1.418 0 0 0 .595-.155.87-.154.274-.462 1.281-.72 2.425-.205 1.144-.667 1.144-.667 1.144l-.668.367s-.822-.32-1.182-.412c-.36-.05-.565-.778-.565-.778l-.206.366s-.565.137-.924-.05a2.458 2.458 0 0 0 -1.13-.32c-.36 0-1.08-.41-1.08-.41s-.102-1.145-.102-1.557c-.052-.457-.052-1.327-.052-1.876-.05-.504.103-1.556.206-1.922.051-.366-.154-.778-.411-1.053-.257-.229.257-.778.565-1.235.36-.458.051-.961.051-.961s-.154-.412-.103-.778c.103-.367.257-.87.309-1.419.102-.549.154-1.693.154-2.013-.051-.367-.051-.824.308-1.007.308-.183.308-.778.308-1.236 0-.412.411-1.51.566-1.922.154-.457.154-.824.154-.824s-.925-.137-1.182-.137c-.257.05-.77-.503-1.079-.915-.257-.412-.873-.87-1.233-1.007-.36-.183-.822-1.144-1.028-1.373-.154-.274-.565-1.235-.822-1.556-.257-.366-.565-1.052-.308-1.327m48.966-22.977.72-.05s-.103-.412.668-.55c.822-.09 1.85-.228 2.106-.136.257.091.977.503 1.234.732.308.274.924.594.924.594l.463.504s.514.366.36.961c-.155.64-.36 1.602-.617 2.06-.257.457-.514 1.052-.514 1.326s-.154.778-.308 1.236c-.154.457-.463 1.602-.463 1.922 0 .366 0 .732-.257 1.007-.205.274-.462 1.052-.462 1.51 0 .412-.308.686-.668 1.739-.308 1.098-.616 1.693-.514 2.06.103.366.36.869.103.869s-.257.274-.411 1.144c-.154.915-.463 2.563-.411 3.02 0 .412-.154 1.053-.411 1.602-.257.503-.309 1.464-.36 1.922-.103.457.103 1.739-.154 1.602-.257-.183-.206 1.144-.463 2.013-.205.87-.41 1.51-.256 2.105.102.641.102.87 0 1.419-.052.503 0 1.51.102 2.013.103.504.668 2.792.874 3.387.205.594.616.503.72 1.052.102.504-.052.87.564 1.19.617.32.72.092 1.182.595s-.154.686.462.503c.566-.183.771-.366 1.13-.366.31-.05 1.285-.229 1.645-.32.36-.092.617-.137.925-.412.36-.274 1.336-.366 1.85-.915.513-.55 2.569-2.105 2.569-2.105s.154.183.41-.183c.258-.366 1.183-1.19 1.696-1.556.514-.366 1.49-.915 1.901-1.602.412-.732 1.182-1.556 1.44-1.83.256-.275.307-.778.307-.778s.206-.092.463-.366c.257-.275.925-.916.925-.916l.668-.549s.565.32.462.595c-.05.274 0 .549-.205 1.052-.257.55-.771 1.007-.771 1.007s-.154.366-.257.641c-.051.23-.411.412-.514.778-.05.366.36.504-.205.961-.617.457-1.028.824-1.028 1.19s-.36.549-.514.824c-.154.229-.565.549-1.181 1.235-.566.732-.771 1.19-1.08 1.373-.359.183-.616.366-.616.64 0 .23.36.413-.051.595-.463.183-.77.275-1.13.641-.36.367-.514.824-.771 1.007s-.411.092-.874.366c-.41.275-1.027.733-1.541 1.19-.514.458-.925.23-1.387.732-.412.55-1.285 1.007-1.953 1.373-.72.412-.873-.049-1.49.138-.617.229-1.028.229-1.285.411-.256.183-.822 0-1.079-.049-.256-.091-.154-.091-.976-.229-.77-.183-1.079-.32-1.695-.229-.566.092-.822.183-1.285-.32-.462-.503-.668-.412-.976-.503-.36-.05-1.439-.32-1.696-.367-.257-.091-.565-.412-.565-.412s-.154-.182-.514-.457c-.36-.229-.565-.915-.77-1.281-.155-.367-.36-1.282-.72-1.465s-.462-.96-.462-1.373c-.051-.457-.051-1.144-.257-1.876-.103-.412-.308-1.19-.308-1.556s-.309-1.739-.257-2.013c.102-.275 0-1.373 0-1.373s-.309-1.144-.257-1.419c.103-.274.103-.594.05-.96 0-.367.412-.916.412-1.145 0-.274-.308-1.418-.411-1.922-.103-.549.41-1.785.41-2.15-.05-.32.206-2.106.155-2.518 0-.457.411-1.601.617-2.562.257-1.007.719-2.243.822-2.746.05-.55.205-1.785.36-2.288.154-.55.513-1.099.667-1.465.154-.32.154-1.144.411-1.235.257-.092.566-.687.977-2.06.41-1.327 1.13-3.066 1.387-3.706.257-.641.976-2.06 1.233-2.746.206-.732.976-1.785.976-1.785"/><path d="m181.854 71.344s1.336.049 1.645-.23c.36-.274.36-.366 1.027-.548.72-.23 1.593-.595 1.593-.595s.257-.366.617-.366c.308 0 .667.229.77 0 .051-.275.154-.824.463-1.19.36-.366 1.027-.961 1.387-1.602.308-.64.308-1.601.206-2.288-.155-.686-.514-1.144-.771-1.281-.257-.183-.874-.275-1.387-.137-.514.091-.874-.092-1.388.182-.565.32-.616.23-.77.595-.206.32-.617.366-.771.686-.206.367-.36.367-.617.916s-.308 1.144-.668 1.51c-.308.366-.41.549-.41.778 0 .274-.309.732-.463 1.19-.154.411-.668 1.235-.668 1.235s-.822 1.602.205 1.144zm-21.888-6.453c.72 0 1.233.32 1.233.595.051.229-.051.229.103.504.205.274.308.457.668.686s.36.32.719.686c.36.32.565.87.873.916.36.091 1.028.503 1.747 1.098.72.594.514.412 1.388.732.925.366 1.182.686 2.363 1.281 1.13.55.257.504.257.504s.617.137.976.137c.36 0 .874-.092 1.234-.137.308 0 1.284.092 1.284.092s.822-1.694 1.08-2.06c.256-.366.359-.457.41-.732.103-.274.514-1.052 1.028-1.785.514-.732 1.182-1.373 1.798-2.059 0 0-.051-.55.411-.64.411-.093.514-.275 1.336-1.19.874-.87.77-1.053 1.387-1.42.617-.366 1.028-.228 1.388-.503.308-.274.668-.457.925-.549.256-.092 1.079-.274 1.747-.32.719 0 1.079-.137 1.695-.229.565-.092 1.028-.366 2.158-.412 1.13-.049.514.23.617.504s.565.229 1.181.412c.617.137 1.08.503 1.336.549.257.091.514.686.822.96.257.275.617.595.874.87.308.23.565.504.668 1.648.154 1.098 0 2.013 0 2.425 0 .457-.411.732-.411 1.098 0 .32-.308.687-.514.961-.154.275-.77.641-1.182 1.373-.41.687-1.182 1.327-1.593 1.693-.462.367-1.747.778-1.747.778s-.41.367-.616.595c-.154.274-.874.049-1.182.32-.36.275-1.284.824-1.9 1.007-.618.229-.977.049-1.337.229-.308.183-1.027.274-1.387.32-.36 0-1.387-.23-1.644-.23-.309 0-.36.184-.463.458-.05.275-.154.687-.205 1.053-.103.366-.411 1.007-.411 2.105.05 1.144-.411 2.471-.514 3.02-.051.55-.103 1.144-.308 1.693-.155.504-.309 1.053-.36 1.83-.051.779-.668 4.577-.874 6.362-.205 1.739-.05 2.883-.05 3.935.05 1.053.153 1.419-.052 1.694-.154.229-.205 1.235-.205 1.647.05.457-.103 1.51.103 2.014.154.549-.257 1.144-.309 1.51-.102.366-.257 1.052-.257 1.601.051.504 0 1.556-.205 1.923-.154.366.205 2.562.462 2.974s.103 1.053-.205 1.419c-.36.366-.257.778.565 2.059.822 1.327-.257.457.154 1.602.36 1.144-.308.96-.565 1.327-.257.366-.874.915-1.13 1.281-.257.32-.617.092-1.028.092-.463.049-.72.049-1.08.137-.307.092-.153-.457-.256-.778-.103-.366-1.08-.686-2.055-1.281-.977-.55-1.388-2.151-1.439-2.838 0-.686 0-1.418-.103-2.013-.102-.595-.77-2.15-.925-3.295-.103-1.144-.257-2.746-.257-2.746s-.719-.412-.102-.778c.616-.366.41-.686.513-.96.051-.275-.719-.687-.719-.687s-.36-.092-.205-.504c.154-.457.05-1.144.05-1.601-.05-.458-.256-2.38 0-2.975.206-.64 0-1.785 0-2.197 0-.457.052-.732.258-1.052.154-.366.462-1.419.513-1.968.103-.503 0-.87-.257-1.052-.308-.138-.205-.23.052-.412.256-.183.308-.732.308-1.327 0-.641.41-1.785.36-2.06 0-.229.256-.411.41-.778.206-.366.103-.64.155-.96.102-.367.205-1.694.205-1.694s.103-.594.154-.96c.103-.367.463-.458.463-.458s.103-.87.205-1.236c.051-.366-.102-.503-.05-.87.102-.366.359-1.235.513-1.692.154-.458.308-1.053.463-1.968.154-.87.308-1.282.462-1.74 0 0-.514 0-.822-.228-.257-.275-.514-.092-1.901-.412-1.439-.275-1.696-.55-2.158-.778-.411-.274-1.542-1.098-2.929-1.602-1.439-.457-1.952-1.235-2.877-1.739-.874-.503-1.336-1.19-1.285-1.464.103-.275-.822-1.053-.976-1.464-.206-.412-.463-.504-.463-.87-.102-.366.72-1.007 1.44-1.007"/><path d="m228.509 80.313c-.103-.32.256-1.007-.72-.96-.976.048-2.62.09-3.802.228-1.182.183-1.079 0-2.364.412-1.335.457-2.62.275-2.466.275.206 0 0-.412-.616-.183-.668.229-.977.32-1.182.503-.206.183-.308.275-.617.138-.257-.092-.462-.092-.616.091-.206.23-.206.55-.668.412-.463-.092-.411-.05-1.13.092-.72.183-.72.229-1.028.366-.309.137-.617.64-1.439.732-.77.092-1.233.275-1.284.504-.052.183.102.64-.257.503-.309-.091-.566.183-.566.183l-.256.275s-.514.137-.72.274c-.205.137-.668.458-.668.458s-.462.274-.257.411c.206.138.309.32.257.504-.102.23-.154.504-.616.366-.463-.137-.514.092-.925.23-.36.137-.822.548-1.13.686-.36.137-.669.274-1.08.183-.36-.138-.822-.183-.925 0-.05.229-.102.457-.41.503-.36 0-.463.183-.617.412-.103.183-.514.457-.668.64-.206.23-.874.595-.925.825-.051.274.103.915.308 1.19.206.274.36.777.36.777s1.233 1.419 3.032 2.563a565.915 565.915 0 0 0 5.24 3.158c1.234.778 2.878 1.83 3.289 1.876.41.092.72.183.925.366.205.23.668.732 1.079.595.36-.137.308-.137.873.137.514.32 2.004.824 2.57.732.616-.091 1.181.367 1.798.87.616.503 1.9 1.235 2.106 1.327.206.049.411.366.411.366s.36.275.566.32c.205.05 2.62.595 3.288.732.668.092 1.284.367 1.695.458.36.137.823.32.668-.458-.154-.778-.154-5.811-.154-7.596 0-1.74.206-2.837-.05-4.21-.258-1.373-.566-3.844-.566-3.844s.462-.916.308-1.694-.154-1.647-.154-2.562c-.051-.915 0-1.968.103-2.517.103-.504 0-1.648 0-1.648zm.154-7.322c-.051-.778.257-2.105.41-2.38.206-.274.104-.869.052-1.418-.103-.595.103-1.19.205-1.419.155-.183.206-.594.052-1.373-.155-.778.05-1.967.256-2.38.155-.411.257-1.006.412-1.6.102-.596.41-1.374.41-1.465 0-.05-.154-.458-.154-.458s-.154-.686-.205-1.281c0-.595.308-1.098.514-1.327.205-.275.36-1.785.616-3.066.309-1.282.617-2.014.668-2.7.051-.732.206-1.419.411-1.922.154-.55.257-1.007.257-1.282 0-.274.308-.457.514-.411.206.049.411-.275.462-.55.052-.228.257-.732.566-1.052.308-.32.616-.686.822-.87.205-.228.616-.823 1.027-1.098.36-.274.771-.091 1.182-.183.36-.049 1.028-.137 1.696-.183.668 0 .257.733.154 1.328.205 0 .308.366.36.778.102.411-.36 1.327-.309 1.876 0 .503-.257 1.098-.308 1.51-.051.366-.206 1.098-.411 1.373-.206.274 0 1.647-.051 2.196-.051.504.154 1.51-.154 1.831-.309.366-.411.457-.206 1.51.154 1.053 0 1.053-.103 1.465-.102.411-.205 1.327-.05 2.059.153.686.153 1.647-.052 1.876-.154.275-.154.412-.154 1.098.051.641.103.916.257 1.282.154.412-.257.686-.308 1.006s-.051 2.106-.051 2.517c0 .367.102.778.05 1.144-.05.412-.308.824-.205 1.923.103 1.144.206 2.654.257 2.974.103.32.36.32.565.183.154-.137.771-.366 1.285-.366.514-.05.925.229 1.541.32.565.137 2.21-.183 2.826-.275.565-.092.36.32.36.32s.308.05.77.137c.463.05 1.645 0 3.649-.137 2.055-.137 1.49.23 2.415.275.924.049 2.569.183 2.569.183s.308.183.668.049c.308-.137.308.229.462.457.103.183.257.32.514.275.257 0 .41-.275.565-.595.206-.32 1.387-.32 1.387-.32s.617.183.925.457c.36.23.874.367 1.13.367.257 0 .463-.367.925-.32.463.049.977.457 1.336.64.36.183 1.388-.137 2.724-.049 1.284.092 1.85.275 2.826.504.976.274.976.274 1.798.229.77 0 .668.137.668.137s.102.32.308.32c.206-.049.411-.049.668.275.257.32.463.183 1.13-.092.617-.275.668.183.668.183l.668.503s.309.05.771.138c.257.049.565.091.925.137 1.028.183 2.62.732 2.929.778.36.05.72.183 1.284.366.514.183.617.55.874.595.257.092.976 0 1.541-.092.617-.092 1.387.275 2.62.687 1.182.457 2.775.915 3.443 1.28.668.413 1.49.962 1.747 1.328.308.412.257 1.922.257 2.242.051.32-.411 1.144-.617 1.328-.154.229-.308.503-.308.823.051.32-.565.641-.873.87-.309.229-1.49.183-1.85.32-.308.137-1.336.64-3.134.824-1.747.182-3.186.049-3.443.091a2.823 2.823 0 0 0 -.668.275c-.257.137-.668-.092-.976-.138-.36-.049-.77-.137-.565-.274s-.309-.366-.617-.504c-.257-.091-2.004-.137-2.004-.137s-1.13.32-1.336.275c-.205-.092-.822-.504-1.336-.641-.513-.137-.565-.778-.565-.961 0-.23-.257-.32-.565-.275-.36.092-.77-.823-.72-1.144.052-.32.514 0 .771-.137.257-.138.514-.32.822-.366.257-.092 1.336-.092 1.336-.092s1.13-.138 1.901-.23c.823-.09.566 0 1.13-.09.617-.093.617-.093.463-.321-.154-.275.514-.229 1.182-.457.617-.183 1.49-.275 2.055-.458.617-.137.668-.412.668-.594 0-.183-.873-.183-1.336-.367-.462-.182-1.13-.594-1.387-.594s-.668-.138-.873 0c-.206.137-.206-.092-.309-.32-.154-.183-.308.091-.616.183-.309.049-.206-.275-.874-.778-.668-.504-1.541-.55-2.569-.595-1.079 0-2.004-.32-2.312-.457-.36-.092-.617-.504-.617-.504h-1.336s-.719-.049-1.181-.366c-.463-.32-2.056-.55-2.518-.595-.462-.049-1.284 0-1.284 0s-.514-.183-.668-.457c-.103-.275-.925-.32-1.234-.366-.36-.05-1.336.049-1.644.182-.308.138-.616.138-1.336-.229-.72-.366-.462-.229-.668-.183-.205.092-1.336-.229-1.695-.32-.411-.137-.771-.229-.925-.32-.206-.049-1.028-.091-1.387.183-.411.275-.617-.092-1.13-.274-.566-.183-1.388-.05-2.107-.092-.72-.05-1.799.137-1.799.137s-.72.275-1.182-.092c-.462-.411-.976-.32-1.233-.366-.308-.049-.72.092-1.027.138-.257.091-.36-.05-.617-.183-.308-.092-3.031.049-3.494.049-.462.049-1.747.137-2.518.091-.77-.049-.719.733-.719.733s.051.686 0 1.052c-.051.412-.154 2.014-.051 2.38.051.412-.051.915.103 1.144.102.183.205.503.205 1.098s.206 2.426.206 2.426.154.96.102 1.19c-.05.182.103 1.372.411 1.967.257.55-.308.87-.205 1.785.05.915.103 1.876.257 2.15.103.275.41 1.374.565 2.335.154 1.006-.103 3.295.154 4.896.257 1.556.154 2.746.565 3.524s-.103 1.83.309 2.563c.41.686.565.366.565.366s.36-.05.668.137c.36.183.205.183.514-.049.36-.183.462-.137 1.079.05.616.182 1.181-.05 1.181-.05s.771 0 1.645.137c.873.183 2.671.458 3.648.55.976.137 1.85.137 2.517 0a4.299 4.299 0 0 1 1.49-.05c.257.05.977.092.977.092s.36.23.616.05c.257-.138.72.136 1.696.228 1.027.092 2.21 0 3.545-.229 1.387-.229 2.004-.32 2.98-.229.976.092 1.182.366 2.775-.137 1.541-.504 1.747-.641 2.26-.824.514-.137 1.799-.05 3.032 0 1.233 0 1.644-.457 1.644-.457s.514-.23.822-.092c.36.137.822-.137 1.336-.412.514-.32 1.13-.457 2.312-.732 1.182-.32 1.645-.457 3.032-1.053 1.336-.549 2.723-1.052 2.98-1.327.257-.274.874-.549 2.158-.96 1.233-.458.925-.642 1.13-.824.206-.23.206-.55 1.182-1.053.925-.503 1.13-.549 1.388-.778.256-.183.667-.457 1.438-.87.77-.411 1.593-1.28 1.593-1.28l-.103-.642s.72-.457 2.055-1.327c1.388-.915.823-1.601 1.285-1.968.976-.777.36-.732.36-.732s.154-.274 1.644-1.51c1.439-1.235.41-1.647.462-1.785.051-.137.257-.549.565-.549.309 0 .463-.549.463-.823-.051-.23.36-.916 1.182-1.877.822-.915.72-1.19.668-2.059-.103-.824.103-.732.36-.915.256-.23.41-.412.565-1.053.102-.686.308-1.739.565-2.47.257-.733.36-1.19.154-1.328-.206-.137.103-1.007.257-1.647.205-.687.05-1.007-.103-1.328-.103-.32-.051-.503.154-.594.154-.05.051-.412-.103-.595s.103-.503.155-.87c.05-.32-.257-.686-.257-.686s-.411-.732-.72-1.327c-.257-.549.309-1.098.309-1.098s.308-.366.41-.732c.155-.412-.256-.458-.462-.504-.205-.092-.205-.32-.05-.549.102-.183.102-.457-.104-.732-.205-.23-.462-.687-.36-.961.104-.275-.513-1.098-.821-1.602-.36-.549-.668-2.15-.668-2.425-.051-.275-.155-.412-.257-.732-.051-.32-.36-.778-.617-.962-.257-.182.463-.823.463-1.144-.051-.32-.463-.64-1.028-.732-.617-.137-.822-.64-1.028-1.19-.205-.503-.513-1.098-.616-1.418-.154-.32-.514-.641-.77-.778-.258-.092-.412-1.007-.617-1.327-.206-.32-.72-1.099-.977-1.236s-.565-.64-.822-1.51c-.308-.824-1.438-1.373-2.929-3.112-1.49-1.739-4.213-4.21-4.418-4.393-.206-.229-.771-.778-1.08-.915-.359-.092-1.078-.595-1.438-1.007-.308-.366-1.13-1.419-2.158-1.785-.976-.366-3.34-2.196-3.956-2.608-.617-.458-1.234-1.053-2.724-1.74-1.541-.64-4.059-2.196-4.521-2.47-.463-.23-1.13-.687-1.799-.733-.667-.049 3.494 1.922 3.186 1.602-.36-.32-.103-.412-.616-.503-.463-.138-1.182-.138-1.388-.504-.205-.366-.462-.229-1.027-.229-.617 0-7.913-3.707-8.53-3.707-.565.05-.925-.229-1.13-.457-.206-.275-.77-.183-2.466-.32-1.747-.183-3.032-1.465-3.032-1.465s-.257-.049-1.027-.229c-.823-.183-.309-.32-1.285-.412-.873-.091-.976-.274-1.233-.137s-1.336-.915-2.055-.96c-.72-.05-1.13-.367-1.388-.413-.308-.049-.36.183-.616.275-.257.092-1.388-.229-1.388-.229s-1.13 0-1.233-.183c-.154-.183-1.027-.457-1.438-.412-.36 0-.72-.32-1.13-.686-.412-.412-2.107-.23-2.107-.23s-.977.093-1.234.05c-.308-.05-1.592-.366-2.158-.504-.513-.229-1.952-.411-2.826-.32-.873.092-1.695-.137-2.106-.137s-1.85-.229-2.158-.274c-.36-.05-.103-.275-.257-.367-.206-.137-2.723.05-3.289.092-.616 0-3.237-.183-3.905-.05-.667.184-1.85-.32-2.363-.365-.565-.05-1.13-.183-1.85 0-.925.182-2.312-.138-4.059-.092h-4.727c-1.593-.05-2.877-.05-4.881.366-2.055.367-2.004.275-3.34.32-1.387.05-2.364.687-2.57.732-.205.092-.41.733-1.232 1.099s-1.953.87-2.21 1.098c-.257.275-.565.64-.77.915-.155.275-.668.595 0 1.236.668.64.154.778-.257.778-.411.049-.771.503-1.182.64-.36.138-1.028.32-1.49.275-.463-.091-.565.32-.976.412-.411.05-.977.137-1.233-.049-.257-.183.102-.457.102-.64 0-.23.103-.413.103-.413s.257-.778.206-1.006c-.103-.183-.566-.183-.823-.183-.256.049-.719 0-1.387-.275-.668-.229-.205-.96-.05-1.418.205-.504.102-1.145 0-1.51-.052-.412.153-.733.513-1.099.41-.32.72-.412 1.284-.96.566-.55 1.799-.642 2.93-1.008 1.13-.366 2.157-.32 2.414-.412.257-.091.72-.229 1.439-.32.72-.091 1.13-.137 3.34-.686 2.209-.504 3.545-.092 4.264-.183.72-.092 1.542-.183 2.98-.049 1.439.183 1.542.412 1.388-.049-.155-.457 3.39-.366 4.213-.23.77.093.565.093 1.079-.048.514-.137.925-.092 1.798.183.874.32 1.696.049 2.158-.05.463-.091 1.593-.049 2.364.138.822.183.873.091 2.723-.05 1.85-.091 4.008.092 4.881.184.874.137 1.696.091 2.055.229.309.091.463.182.771-.05.309-.182.976.23 1.593.367.617.091 1.541.229 2.26.183.72 0 .823.049 1.953.32 1.13.32 1.388.091 2.467.137 1.027.05 1.438-.275 3.545.229 2.158.55 1.593.366 2.929.64 1.336.275 1.541.23 2.671.458 1.13.23 1.44.092 2.724.55 1.233.503 1.438.366 2.363.594.925.229 1.13.092 1.593.137.463.092 1.182.595 1.541.778.309.183 1.028-.049 1.028-.049s.565-.05 1.182.275c.616.32 1.439.549 2.518.823 1.079.32.873.32 1.181.32.36 0 1.49.732 2.415 1.053.925.274.874.183 1.08.549.205.412 2.157.366 2.414.412.257.049.411.137 1.028.183.616.049.462.503.822.549.308.091 1.079.503 1.079.503s.617.275.925.32c.257.05.77.183.77.183s.36-.049 1.44.504c1.078.549 2.054 1.007 2.465 1.098.412.137 1.08.457 1.799.961.72.504.873.412 1.644.87.822.411 1.336.549 1.696.869s.36.32.924.55c.617.228.823.456 1.902.914 1.079.504 1.13.595 1.336.778l.41.367.155.549s.05.229.565.274c.565.05.668-.183.668-.183s.257.183.616.55c.309.411.206.32.823.686.565.412.41.274.719.503.36.275.925.504 1.798 1.282.874.778 1.439.686 1.901.732.463.05.874.366 1.13.824.258.457.36.594.669.778.36.183-.103.823.308 1.235.411.367 1.439 1.144 2.466 2.334 1.028 1.236.668 1.007.668 1.007s.874.229 1.285.594c.41.412.462.504.925.824.462.32.668.824.822 1.053.154.183.462 1.373.565 1.556.154.182.77.411.976.503.154.05.411.05.617.23.205.182.154.731.41 1.326.206.55 1.337 1.648 1.542 2.151.257.55.72.641.925 1.327.206.641-.05.687 1.182 1.785 1.182 1.098.873.64 1.336 1.602.514.96.514 1.556.822 2.334.257.778.462.32.873.778.411.457.155 1.19.257 2.15.103 1.007.051.87.051.87s-.462.412-.41.686c.102.23.359.961.821 1.19.463.275.566 1.007.668 1.602.052.549.155 1.83.36 2.791.154 1.007.411.916.565 1.327.103.367-.154.641.206 1.373.36.687.102 1.236-.051 1.51-.206.275-.154.504.05.961.258.458.206.275.103.778-.102.55-.154 1.282-.256 2.655-.052 1.372-.309 2.608-.309 2.608s-.102 1.053-.36 1.236c-.256.229.103 0 .103.411 0 .367-.668 1.694-.822 2.106-.103.411-.154 1.19-.514 1.418-.41.183-.205.458-.102.732.05.23-.257.595-.514.595s-.463.32-.72.87c-.256.549-.719 1.784-1.027 2.288-.308.457-.72.732-.72.732s-.41 1.007-.513 1.327c-.051.32-.463.824-.668.732-.206-.049-.463.412-.77 1.098-.31.687-.617.916-.823 1.282a1.31 1.31 0 0 1 -.668.594c-.205.092-.462.504-1.028 1.099-.616.595-1.746 1.647-2.26 1.83-.514.23-.566.504-.822.687-.257.229-.925.777-1.028 1.098-.154.32-1.85 1.51-3.648 2.013-1.747.504-2.62 1.419-3.494 2.105-.822.641-1.953.641-2.312.778-.411.138-2.312.733-2.312.733s-.309.594-.72.549c-.36-.05-1.027.137-1.49.366-.462.229-1.233.412-1.49.55-.257.182-.205.274-.565.228-.411-.049-.874-.092-1.644.32s-2.57.687-2.826.687c-.257 0-1.028.411-1.696.823-.616.412-4.162.458-4.521.55-.309.091-.977.048-1.439.228-.462.23-1.644.275-2.877.367-1.234.091-2.364.049-2.57.049-.205.049-.822.229-2.157.366-1.336.092-1.13-.092-1.645-.049-.513.092-.719.05-.873.229-.103.23-.77.183-1.08-.092-.359-.229-1.078.183-1.335.32-.257.138-.72-.137-.976-.229-.257-.137-2.261-.137-4.008-.049-1.798.138-2.466.092-2.62.183-.206.05-.463 0-.668-.274-.206-.23-2.518-.092-3.186-.092-.668.049-1.439-.092-2.518.092-1.027.137-1.027-.05-1.644-.55-.617-.503-.103.412.051.87.103.457.206.64.411.778.206.092.257.778.36 1.007.05.274.154.686-.051 1.19-.154.549-.874 1.418-1.439 1.556-.617.182-.873.549-.873.549s-.874.64-1.285.778c-.411.137-1.182-.138-1.387-.138-.206 0-.309-.091-.874-.274-.514-.138-.77.049-1.593-.05-.77-.136-.513-.457-.719-.731-.205-.23-.462-.412-.976-.87-.463-.457-1.028-.366-1.49-.686-.463-.32-.668-1.373-.463-2.334.155-1.007-.154-1.74-.308-2.334 0 0-1.028-.137-1.387-.092-.309.092-.565-.091-1.696-.503-1.13-.458-1.49-.367-2.055-.412-.617-.05-.822-.092-1.285-.366-.462-.23-1.13-.275-1.49-.23-.41.092-.77-.229-1.181-.686-.36-.457-.514-.32-.977-.549-.462-.229-2.26-.32-2.774-.32-.514.05-.822-.412-1.028-.686-.205-.275-.616-.687-.925-1.099-.36-.366-1.593-.183-2.415-.183-.77.05-.308-.049-.257-.823.051-.824-.102-.23-.77-.595-.668-.366-.925-.183-1.182-.092-.257.092-.514 0-.72-.366-.205-.412-.667-.32-.924-.183s-.668-.229-.668-.503c0-.275-.103-.367-.822-.641-.72-.23-.874-.595-1.85-1.053-1.028-.412-1.387-.87-2.26-1.647-.874-.732-1.183-1.19-2.57-2.288-1.336-1.053-2.055-1.373-2.877-1.602-.771-.275-.72-1.052-1.028-1.236-.257-.182-.051-.594-.257-.96-.205-.412-.514-.733-.925-1.328-.41-.549-.719-.96-.925-1.19-.205-.274.206-.823.257-1.052.051-.275.155-.55 0-.87-.154-.32-.36-.915-.308-1.19.051-.274-.103-.366-.36-.686-.256-.32 0-.549.463-.686.462-.137.36-.366.41-.595.052-.274.36-.229.669-.366.308-.137.257-.87.205-1.053 0-.182-.05-.457.411-.823.412-.32 1.028-.87 1.336-1.144l.052-.458s.976-.778 1.49-1.098c.513-.366 1.13-.412 1.85-.64.719-.23 1.13-.824 2.774-1.74 1.695-.915 1.439-.823 2.774-1.144 1.285-.32.617-.137 1.696-.32 1.028-.137 1.233-.366 2.21-.778.976-.412 2.003-.594 2.62-.824.565-.182.514.275.514.275s.616-.092 1.695-.412c1.13-.274 1.285-.503 2.878-.686 1.592-.137 1.233.137 2.415-.32 1.181-.412 1.695-.32 3.031-.458 1.285-.183 1.85.05 3.802-.137.257-.137.103-1.235.103-2.06m92.177-11.497s.258.09.36.365c.052.275.412.504.72.32.308-.229.462-1.19.462-1.19s.463-.182.668.138c.206.366.103.549.925.96.77.458.925 1.19 1.028 1.831.102.641.05 4.073.205 4.714.154.686.051 1.739 0 2.013-.05.23.051 1.236.103 1.556.103.32.154.641.051 1.236s.051 3.844.154 4.622c.051.778.309 2.929.206 3.158-.103.182-.206 1.19-.206 1.372 0 .23.154 1.053.154 1.053s.36.732.206 1.007c-.103.229-.257.503-.514.503-.257.05-.154.412-.102.595.102.229.154.412.36.457.205.092.513.137.41.458-.154.32-.205.549-.257.915-.05.412-.05 1.876-.05 2.791.05.916.205 2.472.256 3.295v3.066c.051.595.411 1.51.411 1.51s.617.595.617.778.205.733 0 .962c-.154.274-.206.732.05.823.258.05.515.275.463.55-.05.274-.308.091-.36.411-.102.32-.05.87-.205 1.19-.103.32-.36.412-.41.686-.052.275-.31.916-.772 1.007-.462.092-.873.092-.873.092s-.103-.458-.72-.32c-.565.137-2.98-.183-3.236-.504-.257-.32-.206-.778-.463-.96-.308-.184-.873-.687-.822-.962.051-.274.154-.412-.051-.594-.206-.183-.514-.412-.617-.778-.05-.32.051-.824-.36-1.144-.41-.32-.77-1.373-.77-1.556 0-.23-.308-3.844-.411-5.217s-.308-2.014-.514-2.288c-.205-.23-.257-1.053 0-1.099.257-.091.565.367.308-.594-.205-1.007.155-1.19.103-1.877-.103-.64-.257-1.098-.05-1.144.205-.091.462-.091.256-.503-.206-.367 0-.458-.154-.778s-.463-.504-.308-.778c.205-.275.05-.87.308-1.785.205-.915.051-2.425.257-4.393.205-2.014.41-2.883.462-3.158.103-.229.257-2.47.309-3.295.05-.778.308-3.02.513-3.432.155-.366.206-.96.309-1.464.154-.457.41-2.883.513-3.158a16.7 16.7 0 0 1 .566-.87c0-.182.513-.594.513-.594m44.136 8.237c.36-.229 1.028-.411 1.234-.32.205.138.976.183 1.49.138.513 0 .565-.092.976-.092.41 0 .925-.092 1.027-.366.155-.275.206-.595.463-.595s.72-.092.565-.366c-.103-.275.103.274-.051 0-.154-.23-.257-.138-.462-.275-.206-.137-.617-.732-1.336-.824-.72-.091-1.182-.411-1.593-.411s-1.439-.367-2.21-.275c-.822.092-1.541.595-2.158.366-.565-.229-.668-.32-1.181-.274-.514 0-.72 0-1.028.092-.36.049-.668.137-.873.274-.206.137-.257.23-.514.092-.257-.137-3.083.412-3.802.594-.72.138-.771.183-1.234.275-.462.092-.616 0-.976.05-.41 0-.873.09-1.079-.05-.205-.137-.72.092-.72.092s-.05.137-.77.274c-.72.183-.976.183-1.696.32-.719.137-.822-.049-1.13.183-.308.183-1.233.275-1.747.366-.565.092-.36 0-.822.138-.462.183-.411.32-1.079.32s.257 0 0 0-.822.092-.822.092l-.206.732s-.256.137-.565 0c-.257-.092-.308-.32-.565-.275-.257 0-.462.137-1.439.412-.976.275-1.9.641-2.21.915-.307.275-.307.367-.77.55-.462.228-1.13.503-1.284.732-.206.183-.411.32-.771.549-.411.183-.668.457-.925.549-.257.049-1.182.412-1.233.686-.051.275-.206.504-.565.595-.411.092-.257.412-.463.595-.205.229-.462.274-.668.686-.257.412-.565 1.007-.822 1.281-.257.275-.72.961-.514 1.144s.257.504.411.687c.155.229.463.412.36.732s-.103.64.103.778c.205.137 1.233.549 1.336.824.05.274.873.823 1.181.823.36 0 1.696.275 2.21.641.565.412 1.387.504 2.055.595.668.138 1.285.183 1.439.367.205.183.77.503 1.079.412.36-.05.462-.275 1.284-.092.771.183 1.285.503 1.645.412.308-.092.102-.641.77 0 .668.594 1.285.549 1.542.457s.205-.274.873-.092c.617.183.822.32 1.439.367.616.049 1.798.594 3.288.686 1.542.092 2.62.457 3.751.778 1.13.366 2.158.824 2.415.778.308 0 .874.183 1.08.366.205.23.462.137.616.458.154.32.36.778.565.732.154-.092.462-.092.462-.092s.206.366.411.504c.206.137.771.823.874 1.144.05.32.462.915.462.915s.257.595.309.915c.102.32.308.641.102.778-.205.137-.05.275-.05.732 0 .458-.155 1.51-.72 2.06-.565.549-.77.96-1.233 1.373-.411.411-.617.32-1.336.64-.72.275-1.439.687-2.004.961-.617.275-1.387.595-1.593.504-.206-.05-.308-.229-.72-.05-.41.23-.667.275-1.181.321-.514 0-.976-.092-1.285-.05-.36.093-.668.275-.668.275s-.154.275-.462.367c-.308.091-.77.091-.77-.092 0-.229.153-.229-.823-.32-.976-.092-1.901-.275-2.62-.275-.72.05-.874-.091-1.13-.229-.258-.091-.823-.366-1.08-.32-.257 0-.976-.049-.976-.049s-.36-.274-.616-.183c-.257.05-.257 0-.668-.366-.411-.412-.257-.595-.411-.87-.155-.228-.463-.686-.309-.915.206-.183.72-.229.874-.549.102-.32-.514-.823.36-1.052.821-.23 1.644-.183 2.003-.595.411-.412 1.387-.366 1.696-.366.36 0 1.13.091 1.541-.137.36-.183.565-.412.822-.32.257.049 1.182 0 .977.229-.155.182 0 .778 0 .778l.513.366.617.049s.154-.595.308-.778c.103-.23.36-.824.154-.824-.205.05-.36-.32-.36-.32s0-.503-.308-.549c-.36-.049-1.387-.229-1.85-.274-.462-.05.258-.275-.667-.32-.925-.05-1.542.049-2.004 0-.463-.05-.976.049-.976.049s-.206.182-.411.137c-.206-.092-.668-.275-.874-.23-.154 0-.976-.182-1.233 0-.257.23-.36.093-1.182.184-.77.091-1.182.091-1.9.137-.72 0-1.029 0-1.285.229-.257.183-.668.274-1.336.366-.617.092-.925.137-1.08.367-.205.182-.462-.05-.462-.05-.41.138-.925.23-.976.412-.051.183-.206.458-.411.55-.154.048-.565.137-.617.411-.05.275-.308.55-.102.732.205.183.102.367-.206.458s-.565.091-.565.366c0 .229-.051.686-.257.915-.206.183.103.458.103.458-.257.182-.668.457-.668.686 0 .183-.617.595-.155.732.463.092.823.366.977.366.205-.049.565-.049.822.138.257.183 1.079 1.098 1.079 1.098s.05.412.873.457c.771 0 .668.092 1.593.275.925.137 1.85-.138 2.312.183.463.32 1.336.229 1.542.457.154.275.462.595.668.457.154-.137.05-.32.616-.366.617 0 1.182.366 1.182.366s.411.504 2.723.595c2.312.05 4.368.504 5.55.229 1.181-.32 2.209-.457 2.774-.366.514.137 1.079.049 1.079.049s1.901-.595 2.929-.641c.976 0 1.13-.092 1.747-.229.565-.137 1.952-.64 2.21-.87.256-.182.462.138.718-.091.257-.183.463-.458.463-.458l.257-.137s.565.092.77-.092c.206-.229-.205-.183.771-.732.976-.594 2.158-1.327 2.467-1.602.308-.274.77-1.693.976-1.693.205 0 .925-.229.925-.412 0-.182.36-1.052.36-1.052s.719-.412 1.232-2.7c.309-1.327-.308-3.57-1.181-4.439-.874-.824-1.388-1.739-1.85-1.83-.463-.138-.103-.275-.77-.595-.669-.275-1.234-.55-1.645-.504-.36 0-1.028.367-1.182.092-.103-.275-.103-.64-.103-.64l-.05-.504s.153-.092-.771-.092c-.925.049-.925.049-1.336-.23-.411-.228-.206-.228-.72-.274-.565-.091-.616-.137-1.387-.049-.77.092.514-.229-1.182-.274-1.747-.092-1.85-.275-3.134-.504-1.233-.229-1.798-.274-2.26-.229-.412.092-.566-.05-1.183-.183-.565-.183-.41-.229-.976-.137-.616.092-.668.05-1.695-.183-1.08-.229-3.289-.594-3.289-.594s-1.079-.687-1.438-.595c-.412.092-.309.549-.771.229-.514-.32-.154-.412-.874-.457-.719-.05-1.027 0-1.438-.55-.411-.503-.051-.366-.874-.594-.77-.275-.822-.366-1.182-.687-.36-.32-.565-.869-.36-1.144.206-.274-.05-1.235.31-1.327.307-.049.77-.137.77-.137s.257-.32.308-.549c.051-.183.514-.412.72-.412.205 0 .719-.32 1.181-.412.411-.091.565-.229.514-.411-.103-.183.617-.412 1.079-.55.462-.182.976-.229 1.285-.503.36-.275.616-.366.924-.366.309 0 2.467.049 2.158-.32-.256-.412-.41-.183.257-.412.668-.183 1.388-.32 1.747-.183.411.092.771-.55.874-.778.925.049.976.092 1.387.229.36.092.77-.092.617-.32-.103-.183-.257-.32.308-.275.617.05 1.284.183 1.079.367-.206.229.411.137.411.137s.514-.23 1.182-.32c.668-.05 1.9-.687 1.952-.916.051-.182-.257 0 .309-.091.513-.092 1.027-.367 1.284-.183.257.183.36.412.925.366.616 0 1.13-.091 1.13-.091.411-.092 2.158-.55 2.364-.412m18.445-2.009s.514-.915-.514-.778c-1.079.183-.41.366-.719.457-.36.05-.822.137-.873.32-.051.23-.051.55-.411.55-.411 0-.463.366-.514.594-.051.275-.103.595-.308.961-.206.32-.463.457-.463.87.051.366.103.64-.206 1.327-.308.64-.256 1.327-.36 1.51-.05.183-.102.732-.153.915-.051.229-.257.732-.309 1.098-.05.32.36-.049.36.367 0 .411 0 1.556-.205 1.784-.206.183-.617.23-.617.23s-.257.182-.154.457c.05.229.308 1.098.05 1.235-.256.138-.205.412-.205.778 0 .412 0 1.19-.257 1.602-.256.412-.36.87-.41 1.327-.052.457.154.915-.052 1.144-.205.183-.05.32-.05.64 0 .321-.052.779-.258.87-.154.092-.36.275-.36.687 0 .366.103 1.51 0 1.968-.102.457-.308 1.052-.256 1.464 0 .366.257.87-.051 1.51-.309.595-.566 2.288-.257 2.105.308-.229.514-.137.616.092.051.274-.102.824-.102 1.144s-.514.732-.514.732-.051.275 0 .458c.103.182.411.777.257 1.19-.206.411.103 1.418.154 1.784.103.32.36.87.308 1.602 0 .732.309 1.007.257 1.464-.05.457.103 1.19.309 1.373.205.183.205.595.616.915.411.275 1.028.55 1.336.778.36.275.463.32 1.028.23.513-.05.925.137 1.079.228.205.137.41.183.873.137.463-.091.411-.366.668-.366s.77-.137.976-.137c.206-.05.771-.32.72-.64-.103-.321.154-.642.154-1.008 0-.32-.257-1.373-.411-3.066-.206-1.693-.257-2.15-.308-2.608 0-.458-.206-1.19-.309-1.51-.05-.32-.103 0-.257-.458-.154-.457-.154-1.19-.103-1.647.052-.457-.154-1.373 0-1.648.103-.274.36-.457.257-1.51-.05-1.052-.05-2.242.051-3.112.103-.87.155-1.098.206-1.51s.103-1.144.257-1.647c.103-.55.462-1.785.565-2.197s.103-.778.103-1.052.36-.87.36-1.19.154-.55.308-.824c.102-.229.205-1.052.257-1.419.05-.411.308-.96.513-1.28.206-.321.309-1.008.925-.413.566.55 1.233 1.648 1.49 1.922.257.23.822.641.925.961.154.32.36.55.514.961.154.412.77.916.874 1.419.154.504 0 1.007.308 1.052.36.05.462-.091.668.504.257.595.514 1.053.668 1.236.103.183.308.457.308.778.051.32 0 .778.206.96.205.23.308.458.41.642.052.229.36 1.464.771 1.922.411.411.874.686.874 1.006s.205.595.205.595.206.05.36.366c.154.32.411 1.007.411 1.007s.257 1.281.668 1.693c.411.367.36-.366.72.504.359.824.564 1.602.77 1.785.206.182.514.594.514.594s.102.05.308.458c.206.366.565 1.418 1.08 2.15.462.687 1.49 1.373 1.695 1.83.205.458.257.642.77 1.236.463.595.668 1.236 1.13 1.282.463.049.617.183.772.366.102.183.719.23.565.457-.103.183-.154.641.257.595.36-.092.976-.137 1.284-.274.308-.138.565-.183.72-.412.102-.183.308-.504.308-.504s.41-.183.462.05c.051.182.154.366.36.366.205 0 .257.32.257.32s.308-.092.514-.275c.205-.183.513-.595.513-.595s.309-.366.309-.686.05-.64.154-.87c.154-.182.668-.594.668-.594l.308-.457-.257-.412s.051-.366.103-.595c.051-.183 0-.32.154-.503.206-.23.36.183.411-.183.051-.32.309-.595.154-1.282-.154-.732-.05-.869.36-1.418.36-.55.308-.595.514-.732.154-.138.308-.412.205-.687-.05-.229-.05-.32 0-.686.052-.412.514-.824.257-1.602-.205-.778.257-1.052.103-1.51-.154-.457-.103-1.052-.103-1.602-.05-.503.155-1.372.155-1.372s.462-.092.308-.687c-.154-.549-.154-.686-.308-.915-.103-.183-.257-.824-.206-1.007l.051-.229s.411.05.36-.412c0-.457-.411-1.007-.411-1.235 0-.183 0-.05-.154-.687-.155-.686-.052-1.601-.103-1.922-.103-.32-.103.137-.257-.915s-.154-2.425-.154-3.112c0-.64-.051-1.373-.051-1.373s-.052-.229-.257-.366c-.206-.137-.411-.412-.36-.732s-.206-.183-.206-.778c-.05-.595 0-.778-.256-.915-.257-.137-.463-.183-.463-.367 0-.182-.154-.732-.205-1.098-.103-.412-.155-.549-.36-.824-.206-.229-.154-.503-.257-1.235-.103-.687-.154-1.236-.36-1.373-.205-.092-.36-.457-.513-.87-.103-.457-.257-.686-.36-1.052-.051-.412-.36-1.053-.36-1.053s-.308 0-.462-.503c-.154-.55-.103-1.465-.36-1.556-.257-.137-.41-.092-.616-.595s0-.549-.566-.915c-.513-.366-.205-.183-.668-.87-.513-.732-1.079-1.098-1.027-1.51.05-.411-.154-.503-.514-.64-.308-.138-.822-.23-.874-.687 0-.457 0-.87-.205-1.007-.205-.091-.462-.411-.72-.366-.308.092-.462.23-.565-.229-.05-.457-.205-.778-.565-.961-.308-.183-.565-.32-.925-.595-.36-.229-.668-.274-.668-.549 0-.274-.154-.412-.41-.32-.258.092-.617-.049-.926.05-.308.048-1.027.137-1.027.411 0 .275.051.504.36.641.256.137.462.183.513.366.051.23.309.595.566.458.256-.138.308-.138.462.183.103.32.308.594.617.915.256.32.668.778.822.96.102.184.719.87.719 1.099.051.183.514.55.72.87.205.32.924.64.924.96.051.367-.103.687.103.916.205.274.205.87.205.87s.155 1.235.463 1.555c.36.32 1.027.824 1.027.824s.206.595.155.915-.206.687.308 1.373c.462.732.668 1.19.72 1.556 0 .412.153 1.647.308 1.373.102-.275.308 0 .256.594-.05.595-.205 1.465.257 2.243.514.778.514.915.668 1.51.103.55.36.87.257 1.281-.05.412-.05.458.051.916.103.457-.257.594-.05 1.052.205.457.359.732.41 1.648 0 .915-.102 1.83-.05 2.38 0 .503 0 .914.205.96.205.05.41.504.257 1.19-.206.64-.206 1.098-.155 1.373 0 .274.257.412.257.412s.411.049.257.32c-.102.229-.154.64-.36.594-.205-.049-.513 0-.462.32.103.367-.051 1.007-.103 1.42-.05.365-.41 1.189-.308 2.7.103 1.51.154 2.013-.051 2.287a4.69 4.69 0 0 0 -.822 1.74c-.154.869-.206 1.464-.514 1.28-.36-.182-.565-.457-.874-.503-.36-.05-.462-.32-.77-.778-.257-.457.05-.778-.565-1.144-.566-.412-1.13-.32-1.336-1.053-.206-.686-.309-1.464-.514-1.693-.206-.183-.36-.32-.514-.366-.205-.05-.565-.183-.514-.366.103-.23.154-.275-.103-.458-.308-.183-.36-.274-.41-.503-.103-.275-.052-.916-.412-1.373-.308-.458-.513-.412-.719-.778-.206-.412-.206-.504-.411-.64-.206-.138-.051.456-.36-.733-.308-1.144-1.181-1.74-2.569-3.844-1.387-2.151-2.21-3.387-2.672-4.027-.513-.641-.565-.824-.565-1.099 0-.274.257-.457.051-.869-.205-.366-.77-1.098-1.593-2.242-.822-1.144-1.695-1.282-2.106-2.06s-.617-1.144-.976-1.51c-.36-.412-.72-.732-.925-.503-.617-.641-1.336-1.099-1.336-1.282-.051-.183.308-.137-.514-.32-.77-.183-1.798-.686-2.055-.549m40.179 2.237c-.257-.366-.668-.32-.668-.32s-.103-.32-.77-.229c-.669.092-1.542.366-1.388.183.154-.137.154-.275 0-.504s-.308-.366-.308-.594c-.049-.183.103-.824.103-.824s0-.504.514-.961c.462-.457.925-.778 1.285-.915.36-.183.925-.504 1.233-.412.308.049.668-.183 1.13-.32.411-.183 1.439-.412 1.799-.504.41-.091 2.106-.594 2.363-.778.308-.137 1.13-.182 1.13-.182s.669 0 .925-.092c.309-.092 1.13-.32 1.44-.412.256-.092 1.335-.183 1.335-.183l.514.366.411-.32s.36-.229.874-.229c.565-.049.925.05 1.233-.049.257-.091.72-.274.72-.274l.564.091s.103-.549.669-.32c.616.183 1.593.23 1.952 0 .36-.229 1.08-.183 1.08-.183s.153.138.821.138c.668-.05 1.85.182 2.775.137.873-.05 1.49-.137 1.644.092s.822.274.822.274.668 0 1.387-.049c.72 0 1.44.092 1.49.32.104.23.309.366.515.275.257-.05.976 0 1.233.182.205.23.565.504.565.504s.462.137.616.457c.154.275.257.641.103.87s.103.457.103.457l-.154.412s-.36.05-.668.183c-.257.183-1.285.549-1.644.732-.411.138-.77-.137-1.285.092-.514.274-.873.64-1.079.503-.257-.137 0-.32-.77 0-.72.32-1.336.05-1.542.05-.205 0-1.13.049-1.13.049s-.565.229-1.028.274c-.411 0-1.233 0-1.336-.366-.049-.366.154-.595.05-.778-.05-.23-.155-.595-.155-.595s.411-.457 0-.366c-.462.05-.616.137-.976.137-.36.05-.205-.32-.976-.229-.72.092-1.85.275-2.158.137-.309-.137 0-.182-.874 0-.873.183-.462-.182-2.26.55-1.85.686-2.005.549-2.724.869-.72.32-.873.412-1.336.412-.462 0-.565.229-.873.412-.308.137-.308.457-.36.732-.049.32-.257.686-.049.823.257.138.257.458.257.733 0 .32-.41 1.373-.514 1.967-.154.595-.205 1.556-.205 1.923.05.366-.565 2.333-.668 2.516-.05.23-.103.916 0 1.145.049.229-.154.732-.206 1.052-.05.275-.05.824-.05.824s.309-.183.669.049c.36.183.462.183 1.13 0 .669-.138 1.542-.23 2.107-.412.616-.183 1.028-.275 1.644-.183.565.05.874-.137.874-.137s.103-.05.462-.137c.36-.092.925-.183.925-.183s-.257.55.257.457c.514-.091.873-.549.873-.549s0-.366.308-.229c.258.138.669.092.669.092h.36c.205 0 .462 0 .41-.23 0-.228-.048-.503.309-.32.36.23.822.275.822.275s.205-.366.668-.366c.411-.05.668.05.874.092.257.091.77-.092.77-.092s1.028-.229 1.593-.183c.617.05 1.439.412 1.439.412s.72.137 1.028.092c.308 0 .77.229.976.366.257.137.462.504.154.732-.257.23-.976.595-.874.412.155-.229-.359.23-.565.23-.205 0-.616.09-.822.09-.205 0-.565.55-.565.55s0 .274-.308.274c-.257.05-.514-.182-.822.05-.257.229-1.439.777-2.004.869-.617.092-.514.229-1.13.412-.566.183-.72.686-1.028.457-.308-.183-.462-.412-.72-.183-.308.23-.359.595-.668.55-.308-.092-.72-.05-.72-.05s-.924.138-1.335.32c-.462.138-.154.595-.565.595-.462.05-1.644.229-2.004.229s-.822-.05-1.13.092c-.309.183-.977.137-1.234.183-.308.091-.616-.05-1.49.274-.873.32-1.284.137-1.284.137s-.514.138-.411.733c.103.594.206.869-.103 1.327-.257.457-.617 1.052-.617 1.464 0 .366.257.64.103.961-.154.275-.41 1.098-.565 1.693-.103.595-.257.915-.154 1.144.05.23.206.183-.049.504-.308.32-.72 1.144-.616 1.419.049.32.462-.916.359 0-.154.915-.205 1.555-.257 2.013-.05.457.103.457-.05.961-.102.504-.615 1.281-.307 1.556.308.32.462.686.616 1.098.154.458-.103 1.19.36 1.099.411-.092.72.049.976.274.206.23.874.55 1.182.504.308-.092 1.336 0 1.644-.137.257-.138 2.158-.87 3.237-.824 1.028 0 1.336 0 1.388-.275.049-.32.153-.366.565-.457.462-.092.668-.092.873-.275.257-.137.77-.32 1.13-.411.36-.05.926-.458.926-.458s.153-.137.514-.229c.359-.092.924-.049 1.387-.64.514-.595.873-.779 1.182-.87.308-.05.565-.32.822-.32.205 0 .41.229.77-.092.36-.32.72-.778 1.028-.686.308.049.05.594.565.412.514-.138.874.137.874.366s.049.824-.308 1.281c-.36.458-.72.824-1.182 1.556-.411.778-.257 1.007-.976 1.373-.72.412-1.285 1.236-1.593 1.556-.257.274-.925.229-.874 0 .05-.23.36-.23-.668.457-1.028.732-2.26 1.51-3.648 1.83-1.387.367-1.747.367-3.031.779-1.234.412-.566.366-2.826.732-2.313.366-2.826.457-3.649.503-.822 0-1.438-.274-1.438-.274s-.36-.183-.874-.32-1.13-.275-1.079-.504c.103-.229 0-.503-.308-.412-.257.05-.36 0-.873.138-.514.182-1.182.274-1.182.274s.205-.366-.308-.457c-.514-.05-1.08.049-1.13-.23 0-.32-.36-.869-.309-1.189.05-.275.103-.732-.41-1.19-.515-.412-.823-.183-.926-.64-.049-.413-.154-1.099-.308-1.374-.154-.32-.103-.457-.308-.503-.257-.092-.308-.23-.308-.504-.05-.32-.308-1.327.049-2.013.36-.687.206-1.282.257-1.556.049-.32.205-1.51.308-1.968.154-.457.103-1.556.308-2.38.205-.823.154-1.647.308-1.922.154-.32.257-.915.257-1.19 0-.32-.049-.229.206-.686.308-.457.359-.96.049-1.052-.308-.05-.72.411-.925-.092-.154-.55-.257-1.51.049-1.968.257-.457.257-.87.925-1.327.668-.504 1.079-.412 1.079-.87 0-.457.411-1.418.514-2.15.154-.778.205-1.282.308-2.014.154-.778.72-1.83.514-2.105-.154-.275-.41-.366 0-.686.462-.275.925-1.282.976-2.014.05-.732-.257-.96.206-1.419.411-.457.309-1.28.309-1.28s0-.504-.104-.962m70.441.637c-.154.183-.616.183-.976.183-.411.049-.77.457-1.028.778-.308.32-1.13 1.052-1.284 1.51-.205.412-.514.137-1.182.412-.668.274-.565.366-.925.778-.36.366-.308.32-.206.594.05.32-.41.778-.719.87-.308.049-.822.594-1.233 1.281-.411.686-.514.778-.514 1.281 0 .458-.514.412-.822.641-.308.183-.874.824-1.336 1.327-.411.504-.103.458-.514 1.007-.411.595-.308.23-.36.457-.049.275-.154.595-.77.961-.617.412-.617.32-.822.733-.154.366-.36 1.372-.36 1.372s-.103.641-.308.824c-.154.183-.36.275-.411.458-.05.182-.565.457-.925.503-.36.092-.77.732-1.233 1.327-.411.55-.462.916-.565 1.327-.103.367-.411.687-.72 1.053-.308.412-.616.961-.77 1.236-.205.229-.103.549-.514.777-.463.183-.566.687-.566.916 0 .274-.205.778-.719 1.235-.462.458-.616 1.236-.925 1.785-.308.504-.257.55-.36 1.007-.102.412-.461.96-.821 1.373-.36.457-.36.823-.617 1.967-.308 1.145.566.412.874.183.308-.274.462-.411.822-.686.411-.23.308-.183.822-.183.514-.049.822-.366 1.08-.595.204-.274.513-.457 1.027-.686.462-.183.41-.183.616.05.205.274.308.182.514.048.154-.091.205-.32.462-.366.257-.092.463 0 .566-.229.103-.183.257-.229.668-.366.462-.138.462-.23.565-.55.103-.274.308-.411.616-.503.309-.092.463-.686.463-.87 0-.182.257-.228.616-.137.36.05.976-.549.77-.87-.205-.274.515-.32.617-.503.103-.183.411-.686.72-.96.307-.275.462-.138.873-.32.411-.23 1.027-.87 1.644-1.74.565-.915.308-.457.77-1.144.463-.732.309-.594.72-.778.411-.229.462-1.098.514-1.281.05-.183.205-.275.514-.138.308.092.308-.137.308-.457s.103-.503.36-.64c.205-.138.308.048.41-.32.104-.367.155-.55.515-.962.36-.366.668-.503.925-.96.257-.458.36-1.145.36-1.145l.462-.183s.206-.549.616-1.19c.411-.64.463-.96.617-1.144.206-.229.257-.457.257-.732 0-.229.41-.594.514-1.007.103-.366.308-1.052.308-1.052s.206-.366.462-.641c.257-.275.411-.824.36-1.19-.103-.366.257-.64.462-.778.155-.137.309-1.281.309-1.281s.205-.732.049-1.236c-.154-.503-.05-1.098 0-1.601.049-.504-.257-.687-.566-.87 0 0-.257-.32-.205-.503.05-.183-.257 0-.668.32m-27.746-8.283c.462 0 .668-.183 1.387-.504.771-.366.617-.049 1.902-.274 1.233-.23.976.182 2.003.503.977.366.925.23 1.285.366.411.092.411.23.411.23s.257.549.308.777c.103.275.36 1.053-.103 1.648-.514.549-.616.366-1.182.64-.565.275-.41.138-.668.642-.205.549-.616.869-1.079 1.235-.514.412 0 .64-.103 1.144s-.925.504-1.695.961c-.822.458-.155.275-.206.504-.05.274-.36.32-.36.594 0 .23-.205.55-.462.87s-.668.87-1.079 1.602c-.41.777-.873 1.738-1.798 2.928-.874 1.236-.874 1.83-1.901 3.707-1.08 1.83-1.028 2.288-1.542 3.844s-.616 2.38-1.027 3.524c-.36 1.144.103.64.41 1.19.36.549-.616 1.647-.718 1.967-.155.32.205.595-.103 1.236-.309.64.103.504-.155 1.236-.205.778.155 1.464.155 1.464s-.258.366-.05 1.419c.206 1.052.206.457 0 .686-.154.275.05.824 0 1.236-.049.457.463.823.72 1.144.257.274.205.366.462.823.257.504.668 0 .925-.182.257-.23.308-.23.822-.183.462.049.205-.504.514-1.556.257-1.053 1.08-1.602 1.644-2.38.617-.732.514-.503.565-.87.05-.366.309-1.006 1.08-1.83.719-.87.873-1.281 1.181-1.739.308-.457.154-.274.36-.412.154-.091.205-.686.462-1.006.258-.32.566-.641.72-1.19.154-.595.873-1.144 1.079-1.419.154-.274.205-.049.411-.274.257-.183.308-.824.308-.824l.154-.412s.206-.457.206-.64c0-.184.668-.642 1.181-.962.565-.366.565-.091 1.285-1.556.72-1.464.77-1.281 1.233-1.739.514-.457.411-.32 1.182-1.601.77-1.236.925-1.19 1.438-1.51.463-.32.412-.092.669-.092 0 0 .154-1.007.36-1.465.154-.411.668-.366 1.335-1.098.669-.686.36-.549.36-.549s.41-.457 2.055-2.014c1.644-1.556 1.079-.87 1.696-1.51.616-.64.41-.183.565-.503.103-.32.41-.504 1.079-.915.668-.367.668-.183 1.027-.687.36-.549 1.234-1.19 2.107-1.647.822-.458.976-.733 1.593-1.053.616-.32 1.182-.229 1.644-.274.514-.092 1.387-.504 2.415-.733 1.079-.229 1.13-.049 2.312.05 1.233.091 1.233.182 1.49.549.257.366 0 0 .05.503.102.458.307.183.513.824.206.686.36 1.007.566 1.236.205.274.049.64-.103.777-.206.138-.36.916-.36 1.328.05.366 0 1.372-.205 2.059-.257.686-.205.824-.616 1.281-.411.412-.257.824-.463 1.373-.154.55.206.366.104 1.007-.104.594-.36.503-.412.686-.049.183-.206.87-.514 1.327-.308.458-.36.961-.36 1.144s-.616.458-.616.458l-.154.64s-.617.87-.976 1.328c-.36.457 0 .823-.155 1.19-.103.366-.257.366-.462.686-.154.32-.822.915-1.439 1.51-.616.55-.462 1.053-.514 1.327-.049.23-.462.641-.668.778-.257.092-.257.412-.36.732-.102.32-.513.412-.718.824-.257.457-.617 1.098-1.028 1.556-.411.457-.257.503-.308.686-.05.183-.205.367-.462.595-.257.183-.257.183-.566.686-.257.504-.77.55-1.027.732-.257.183-.36.458-.514.87-.206.457-.36.64-1.336 1.464-.977.87-2.518 2.151-3.032 2.609-.565.457-.514.64-.668.824-.205.229-.72.182-.822.549-.103.366-.874.503-1.182.64-.308.138-.668.55-.77.779-.104.274-1.336.869-1.336.869s-.617.32-1.13.549c-.463.183-.72.23-1.028.504-.309.274-.617.229-.823.32-.154.137-.668.412-.668.412s-.36.091-.565-.05c-.205-.091-.308-.049-.77.32-.515.412-.515.595-.977.87-.514.275-.514.092-.873.457-.36.367-1.08.458-1.593.504-.565 0-.308.549-.411 1.19-.103.64-.514.778-.874 1.693-.41.96-1.079 1.785-1.079 1.785s-.103 1.144-.154 1.601c-.05.412-.668 1.282-.77 1.785-.104.504-.72.961-.515 1.51.205.595-.36 1.602-.462 1.83-.103.275-.205.642-.257 1.145-.05.503-.154 1.464-.36 1.968-.257.503-.154 1.51-.36 2.15-.256.595-.308 1.007-.462 1.785-.154.824.05 1.144-.308 1.785-.36.64-.206 1.327-.257 1.922-.049.64-.154 1.235.103 1.418.257.138.154.595-.103 1.42-.206.823-.206 1.006-.154 1.555.103.55.205.732.36 1.053.154.32.257.32.411.549.103.274-.668.64-.925.778-.257.137-.049.594-.308 1.464-.308.87.05 1.19.308 1.19.257-.05.103.412.05.915-.05.504-.104 1.419.102 2.38.257.915-.257 1.098-.308 1.373-.049.274.308.412.514.87.206.41 0 1.326 0 1.51 0 .182-.359.915-.462 1.555-.103.641.205.504.257 1.419 0 .96.05 2.06.05 2.471 0 .366.153.595.153.778s-.359.32-.565.457c-.154.138-.154.458-.154.641s-.565.367-.72.641c-.205.275-.668.595-.873.824-.154.274-.103-.23-.049-.412.05-.183-.822.32-1.233.549-.462.183-.565-.137-1.028-.092-.411 0-.77-.457-1.027-.549-.206-.137-.566-.229-1.13-.549-.566-.274-.566-.64-.566-.64s-.565-.05-.822.091c-.257.137-.565.05-.976-.183-.463-.229-1.028-.594-1.028-.594s-.462.091-.72-.092c-.256-.183-.102-1.236-.153-1.602-.05-.412 0-.64-.155-1.098-.154-.412-.668-.824-1.027-1.053-.411-.274-.411-1.006-.462-1.19-.104-.182-.36-.32-.36-.32s-.822-1.144-1.079-1.51-.257-.32-.462-.732c-.205-.457-.411-.229-.411-.229s-.257-.55.257-.64c.514-.093.514-.55.976-.595.411-.092.462.049.822.049.36-.05.668-.275 1.285-.504.616-.183.565.23.77.412.206.183.309.049.617-.137.308-.183.462-.687.462-.961 0-.23.05-.916.05-.916s.256-.823.256-1.098c0-.229-.103-.457-.154-.96 0-.504-.049-.779-.103-1.008 0-.274.205-.503.462-.595.206-.049.05-.504 0-.778 0-.32.566-.092.463-.686-.154-.55.103-.595.154-.778.049-.23.308-.595 0-1.465-.257-.87.049-1.098.049-1.739 0-.594.462-.503.41-1.006-.102-.504.31-.87.515-1.968.257-1.144-.616-1.236-.668-1.51-.103-.23-.05-.87.308-1.099.36-.274.514-.823.411-1.235-.049-.366-.103-.23-.411-.137-.36.049.103-.412.103-.412s.205-.366.205-.595c0-.274.257-.32.514-.549.206-.183-.049-1.327-.049-1.647s.411-.595.617-.595c.205 0 .205-.504.308-.686.049-.183.154-.87.205-1.19.049-.32-.411-.32-.411-.55 0-.274.36-1.28.462-1.692.103-.458.154-.595.154-.824 0-.275 0-.457.257-.824.308-.366.308-.64.36-1.19.05-.594 1.285-3.478 1.439-4.439.154-.915.154-.594.359-1.601.257-1.007 0-.961-.154-1.465-.154-.503-.308-.549-.514-.366-.154.229-.257-.732-.308-.915-.103-.183-.822-.824-.822-.824s-.669-.183-.977-.137c-.308.092-.308-.05-.359-.23-.103-.182-.36-.228-.36-.228v-.916c-.05-.411-.257-.32-.822-.411-.565-.138-.36-.961-.36-1.144s-.049-.32-.256-.412c-.206-.137-.155-.183-.155-.458 0-.229-.154-.549-.308-.64-.205-.138-.257-.504-.308-.687 0-.183-.205-.778-.462-.823-.257-.05-.462-.778-.462-1.282 0-.503-.104-1.19-.104-1.418 0-.275-.257-.367-.668-1.19-.41-.824.206-2.426.257-2.609.05-.229-.049-.412-.103-.64-.049-.23.154-.55.411-1.19.206-.641.154-1.373.206-1.602.049-.183-.103-.412-.206-.595-.154-.183.05-.96.206-1.144.205-.183.514-.87.668-1.19.103-.32-.154-.366-.205-.549-.103-.183-.257-.366-.103-.823.154-.458.668-.824.873-1.327.257-.504.514-1.145.565-1.465.05-.32.05-.366.257-.64.257-.275.257-1.145.514-1.694.309-.595.463-.778.977-1.556.462-.732.822-1.51 1.13-1.876.308-.412.308-.275.616-.32.309-.092.103-.641.103-.641s-.205-.64-.103-1.007c.103-.366.463-.594.669-.96.154-.367.41-.687 1.181-1.42.822-.686 1.182-1.006 1.49-1.967.36-.961.155-.504.463-.504s.514-.64.514-.824c0-.229.462-.915 1.027-1.28.566-.413.206-.825.514-1.42.309-.549.463-.64 1.08-1.006.359-.092.719-.092 1.233-.138m-122.795-30.853c-.36 1.007-.206.961-.309 1.693-.102.733-.257 1.007-.41 1.327-.206.32-.36.87-.669 1.007-.308.137-.925.595-1.13 1.053-.257.412-.206.549-.72 1.052-.565.504-.873 1.053-.822 1.236 0 .183.155.366-.205.594-.36.275-.77.733-1.13 1.236-.36.504-.412.137-.925.732-.463.55-.206.915-1.13 1.373-.926.457-1.08.87-1.388 1.007s-.72.092-.77.274c-.052.183-.412.687-.977.961-.514.23-1.028.641-1.387 1.007-.36.412-.154.32-1.08.504-.976.137-1.592.137-2.055.229-.513.092-.976.274-1.079.457-.05.183-.102.412-.513.596-.463.182-.668.411-.771.229-.051-.23-.411-.458-.565-.183-.103.229-1.13.274-1.388.366-.257.05-.924 0-1.181.183-.257.229-.771-.137-.771-.32s-.103-.824-.051-1.327c.05-.504-.103-1.785.41-3.112.515-1.327 1.131-2.837 1.08-3.158 0-.32.154-.229.36-.686.256-.458.36-1.282.565-1.968.257-.686.514-1.419.77-1.693.257-.275.463-.687.72-1.51.205-.824.257-.961.565-1.327.308-.412.462-1.007.617-1.602.205-.55.05-.595.462-1.053.462-.457.822-.732.77-1.19 0-.503.104.183.771-.594.411-.275.771-.412 1.13-.275.412.092.772.138 1.028.092.257-.092.257 0 .514-.092.206-.091.514-.503.514-.503s.257-.32.565-.458c.309-.137.617-.64.617-.64s.205-.412-.103-.367c-.308 0-.41-.137-.616-.32a2.566 2.566 0 0 0 -.771-.457.545.545 0 0 1 -.103-.87c.309-.32.771-.503.822-.96 0-.458-.05-.504.566-.642.616-.137 1.079.138 1.13-.274.051-.457-.308-.64.257-.961.616-.32.925-.64 1.182-.778.257-.137.308-.183.925-.092.616.092 1.181.092 1.387.05.154-.092.154-.412.77-.183.668.229 1.593.594 1.799.96.205.367.257.687.565.87.36.137.617.412.72.824.154.457.102.87.36 1.007.256.091.564.274.513.594s.154.412.205 1.098c.103.687.052 1.282.309 1.694s.36.091.41.778c0 .686 0 1.51-.359 2.517zm-22.249-1.327c-.05.275-.41.778-.616 1.327-.257.595-.617 1.19-.668 1.648 0 .457-.257.594-.463.686-.154.137-.41.457-.462.778-.051.32-.205 1.052-.514 1.556-.308.503-.41 1.098-.462 1.418-.051.275-.206.687-.411 1.19-.154.504-.617 1.465-.874 2.06-.205.64-.36 1.144-.616 1.235-.257.05-.411-.549-.411-.549s-.155-.778-.103-1.693c.051-.961-.051-1.556-.051-1.556s0-.504-.103-.732c-.051-.275-.051-.961.103-1.465.154-.503-.051-.778-.206-.87-.205-.048-.154-.869-.102-1.418.05-.549.462-1.007.822-1.464s.616-.32.822-.504c.257-.183 0-1.19-.103-1.556-.051-.366.257-.503.463-.915.256-.366.256-.503.667-.64.463-.138.514-.184.668-.504.206-.32.925-.641 1.285-1.053.36-.366.411-.049.72 0 .308.05.308-.137.41-.32.103-.183.257-.32.566-.274.308.049.36-.367.462-.595.103-.183.77.049 1.079.049.308 0 .668-.87.925-1.007.308-.137.616-.274.77-.091.155.182-.205.549-.205.549s-.72.457-.873.64c-.206.23-.463.778-.463.778s-.411.87-.873 1.236c-.411.32-.771 1.236-.977 1.419-.257.229-.154.411-.205.64zm24.304 3.432c.257-.32 1.079-2.654.873-3.707-.205-1.052.154-1.922-.257-2.974-.41-1.053-.565-1.144-.616-1.602-.103-.412-.411-1.464-1.233-2.654-.771-1.144-.771-1.51-1.388-2.06-.668-.548-1.284-.777-2.312-1.098-.976-.366-1.13-.229-2.106-.503-1.028-.275-1.542-.458-2.004-.32-.514.137-.514.091-1.08.229-.565.137-.667.137-1.335.457-.668.366-.514.641-1.439.55-.925-.092-1.695-.55-2.363.457-.617 1.006-.925 1.327-1.336 1.51-.463.229-.72.366-.822.549-.103.183-.36.457-.463.457-.308 0-.77-.183-1.028-.092-.256.05-.36.32-.36.32s-.153.23-.564.138c-.36-.137-.668-.366-1.08-.366-.359.049-.513.137-1.181.182-.617 0-1.49.092-1.85.138-.36 0-1.028.091-1.233.274-.154.183-.36.32-.72.32-.41 0-.41-.091-.873.05-.514.137-.36.366-.668.457-.308.049-.257.091-.565.137-.308 0-1.182.32-1.182.32s-.102.183-.616.366c-.514.138-1.439.412-1.388.641 0 .275.051.458-.513.595-.566.137-1.388.274-1.593.55-.154.228-.463.503-.874.548-.36.092-.616.092-.668.366-.05.23-2.415 2.563-2.672 3.204-.308.594-.667 1.007-.667 1.235 0 .275-.052.458-.257.641-.155.183-.72 1.282-.72 1.968s.103 1.373.154 2.334c0 1.007-.102 2.197.206 2.746.257.549.206.549.411 1.235.206.687.154 1.419.617 2.06.462.594.77 1.19 1.027 1.235.257.092.565.092.771.32.154.23.36.412.36.687 0 .229.05.594.205.457.206-.137.77.366.617.87-.206.503.05.732.257.549.154-.183.36-.55.565-.275.154.32.36.229.565.183.154-.092.976-.23 1.336.183.411.457.565.823.925.823.36-.049.72-.229.925 0 .205.275.77.778 1.13.962.411.182.154.137.77.594.669.504.566.137.771.915.257.824.514 1.053.514 1.053s.566.412.617.595c.05.182.103.503.41.503.31 0 .412.366.566.778.154.457-.308.275.976 1.236 1.285.96 1.747 1.19 1.645.778-.155-.458-.309-.961-.566-1.19-.257-.23-.308-.732-.616-1.053-.36-.274-.154-.549-.411-.64-.257-.138-.206.049-.36-.275-.205-.275-.051-.87 0-1.098.051-.275.154-.961.411-.961s.822.229 1.028.411c.154.183.514.367.72.275.256-.05.667-.05.873 0 .257.05.41.183.822.092.462-.092.77-.092.668-.32-.051-.275-.411-.367-.206-.504.257-.137.411-.275.565-.32.206-.092 1.182-.412 1.645-.05.41.367.976.642 1.387.458.36-.229.976-.366 1.336-.32.36.05.668.05 1.027.092.309.049.771 0 .771-.275 0-.229.308-.732.617-.96.308-.184.822-.504 1.079-.458.257.049.77.092.925-.092.205-.183.41-.32.719-.32.308 0 .616.183.616-.274-.05-.412.566-.55.771-.961.154-.367.206-.32.668-.55.411-.274 1.182-1.19 1.439-1.51s.616-.457.616-.457.051-.412-.05-.595c-.052-.182-.874-.32-.258-.686.617-.412.411-.504.925-.824.463-.366.257-.137 1.13-.915.925-.778 1.85-1.739 2.364-2.654.514-.87 1.336-1.327 1.285-1.785-.103-.412-.36-.274.257-1.281.565-1.053.719-1.053.719-1.327-.051-.32-.36-.458-.103-.778"/></g></svg>