<svg height="907" width="2500" xmlns="http://www.w3.org/2000/svg" viewBox="0.36 -1.773 2048.298 747.2330000000001"><path d="M278.868-1.773c11.17.719 18.288 10.397 25.304 18.18A977.455 977.455 0 0 1 309 22c3.725 4.294 7.417 8.539 11.5 12.5 3.464 3.417 6.7 6.947 9.86 10.645 1.62 1.832 3.317 3.532 5.077 5.23C338 53 338 53 338 55h2a102.636 102.636 0 0 1 4.312 5.125l2.442 3.047L349 66c2.48 3.071 4.984 5.984 7.812 8.75C359 77 359 77 359 79l3 1a99.352 99.352 0 0 1 4.562 5.312c.786.966 1.57 1.932 2.38 2.926 1.662 2.231 2.945 4.23 4.058 6.762h2c3 3.462 3 3.462 3 6h2a112.706 112.706 0 0 1 4.5 5.75c4.29 5.718 8.757 11.233 13.371 16.691C403 129.606 403 129.606 403 132h2a142.407 142.407 0 0 1 5.125 6.687c1.085 1.475 2.17 2.95 3.258 4.422l1.766 2.4c2.565 3.452 5.186 6.858 7.806 10.266 7.171 9.335 14.116 18.793 20.824 28.465 1.669 2.406 3.352 4.801 5.033 7.197l1.625 2.329c1.059 1.513 2.121 3.023 3.188 4.53 8.5 12.044 16.503 24.393 24.377 36.851 3.16 4.995 6.367 9.946 9.685 14.837 1.81 2.778 3.389 5.662 4.97 8.575 1.542 2.803 3.158 5.558 4.78 8.316 9.123 15.61 17.032 31.782 24.649 48.169.836 1.79 1.687 3.572 2.539 5.354 5.588 11.788 10.101 23.803 13.418 36.418.898 3.236.898 3.236 2.383 6.371 2.164 4.896 3.313 10.064 4.574 15.25l.796 3.257C558.573 434.612 557.447 491.178 540 543l-.719 2.137a575.112 575.112 0 0 1-4.571 12.923 693.861 693.861 0 0 0-1.92 5.335c-3.004 8.171-6.775 15.825-10.75 23.552a277.213 277.213 0 0 0-2.981 6.1c-4.309 8.992-9.28 17.202-14.975 25.383-1.363 1.975-2.66 3.99-3.959 6.007-2.988 4.474-6.178 8.8-9.375 13.125l-1.613 2.207-1.528 2.047-1.376 1.858L485 645h-2l-.805 1.766c-3.773 7.051-10.572 12.769-16.195 18.359l-2.04 2.05C452.115 679 452.115 679 449 679l-1 3a96.856 96.856 0 0 1-5.5 4.25 291.848 291.848 0 0 0-13.66 10.535C427 698 427 698 424 698v2a130.654 130.654 0 0 1-7.438 4.562l-2.315 1.34C396.792 715.92 379.157 724.73 360 731l-2.389.782C345.238 735.78 332.832 738.888 320 741l-2.112.36c-25.409 4.1-53.652 3.144-78.888-1.36l-3.895-.691c-3.398-.68-6.744-1.465-10.105-2.309l-2.213-.54c-10.245-2.504-20.019-5.447-29.787-9.46-1.524-.584-3.048-1.164-4.574-1.742-18.263-6.984-34.869-16.102-51.208-26.807a428.122 428.122 0 0 0-4.772-3.074l-2.5-1.611-2.29-1.46L126 691v-2l-2.137-.707c-3.42-1.545-5.825-3.54-8.676-5.98l-2.957-2.512c-.517-.45-1.035-.898-1.569-1.361-1.14-.989-2.287-1.97-3.44-2.946-5.552-4.756-10.739-9.859-15.894-15.037-1.453-1.458-2.911-2.91-4.37-4.363C82.094 651.236 77.265 646.399 73 641v-2l-3-1c-1.515-1.683-1.515-1.683-3.11-3.867l-1.776-2.417-1.864-2.591-1.919-2.64C56.98 620.46 52.873 614.345 49 608a1194.52 1194.52 0 0 0-2.32-3.621c-10.354-16.172-19.173-32.88-25.496-51.043A172.372 172.372 0 0 0 18 545.062C3.977 510.118.36 473.322 1 436l.038-2.514C1.627 403.432 8.925 374.182 19 346l.83-2.33c2.428-6.775 4.867-13.485 8.256-19.85 1.036-2.063 1.845-4.161 2.664-6.32 6.6-16.837 16.008-33.001 25.25-48.5l1.383-2.332c1.528-2.563 3.072-5.115 4.617-7.668l1.204-2.01c4.99-8.33 9.994-16.512 15.831-24.283 2.308-3.18 4.423-6.454 6.527-9.77 3.06-4.816 6.204-9.546 9.508-14.199a499.702 499.702 0 0 0 4.422-6.383 759.991 759.991 0 0 1 17.293-24.343A159.318 159.318 0 0 0 121 172h2v-3h2c.23-.694.461-1.387.7-2.102 1.57-3.498 3.734-6.302 6.112-9.273a330424330.326 330424330.326 0 0 1 4.01-5.098c1.465-1.9 2.829-3.858 4.178-5.84l2-2.687h2l.73-1.64c7.834-14.56 21.105-27.777 31.844-40.288C178.539 99.776 180.32 97.52 182 95h2l.652-1.586c1.888-3.382 4.373-6.127 6.91-9.039 3.584-3.933 3.584-3.933 6.438-8.375h2l1-3h2l.937-1.875L206 67h2l.656-1.621c1.827-3.234 4.303-5.766 6.844-8.442 2.711-2.875 5.298-5.635 7.5-8.937h2l1-3h2l.75-1.688c2.606-4.82 6.36-8.51 10.25-12.312 3.93-3.847 7.796-7.696 11.375-11.875 3.548-4.135 7.393-7.929 11.293-11.73 2.4-2.315 2.4-2.315 4.11-5.09 3.769-3.909 7.968-3.902 13.09-4.078zM740.419 476.871l2.615-.005c2.918-.005 5.836-.003 8.753 0l6.336-.007c5.844-.007 11.69-.007 17.534-.006 6.343 0 12.686-.006 19.029-.011 11.131-.009 22.262-.013 33.393-.015 11.948-.002 23.895-.006 35.842-.013l2.285-.002 9.21-.005c37.237-.022 74.473-.032 111.71-.041l36.223-.01 2.581-.001 10.336-.003c58.936-.018 117.872-.034 176.808-.041l13.89-.002h2.784a8964421.78 8964421.78 0 0 0 33.514-.005c59.923-.007 119.845-.03 179.767-.062a342464.358 342464.358 0 0 1 213.597-.06h2.594c27.571-.003 55.142-.017 82.714-.037a76786.613 76786.613 0 0 1 97.11-.015c11.911.003 23.822-.007 35.733-.023a14144.3 14144.3 0 0 1 35.141-.003c6.266.007 12.53.008 18.796-.01 5.702-.015 11.403-.012 17.104.006 2.049.003 4.097 0 6.145-.011 21.487-.11 43.207 5.142 60.037 19.511v2l1.746.754c2.576 1.424 4.274 3.07 6.317 5.184l2.035 2.09L2024 508l1.746 1.566C2027 511 2027 511 2027 514h2c14.753 19.404 19.658 44.74 16.675 68.601-3.528 21.602-14.452 43.42-31.675 57.399h-2v2a96.703 96.703 0 0 1-6.312 4.313l-1.936 1.223c-12.702 7.887-27.108 13.63-42.17 13.593l-2.616.005c-2.918.005-5.836.003-8.753 0l-6.336.007c-5.844.007-11.69.007-17.534.006-6.343 0-12.686.006-19.029.011-11.131.009-22.262.013-33.393.015-11.948.002-23.895.006-35.842.013l-2.285.002-9.21.005c-37.237.022-74.473.032-111.71.041a598551.073 598551.073 0 0 0-49.14.014c-58.936.018-117.872.034-176.808.041l-13.89.002h-2.784a8967515.75 8967515.75 0 0 0-33.514.005c-59.923.007-119.845.03-179.767.062-43.05.024-86.1.045-129.151.052h-2.683a516704.966 516704.966 0 0 1-81.763.008h-2.594c-27.571.003-55.142.017-82.714.037a76786.613 76786.613 0 0 1-94.83.016h-2.28c-11.911-.004-23.822.006-35.733.022a14144.3 14144.3 0 0 1-35.141.003c-6.266-.007-12.53-.008-18.796.01-5.702.015-11.403.012-17.104-.006-2.049-.003-4.097 0-6.145.011-15.016.076-27.38-1.821-41.037-8.511l-2.277-.977c-21.377-9.631-36.437-29.183-45.434-50.28-3.512-10.196-4.798-19.675-4.735-30.406.008-2.203-.02-4.404-.052-6.607-.09-18.12 6.037-35.868 16.498-50.73h2l.762-1.71c9.003-16.645 29.54-27.594 46.858-32.781A427.516 427.516 0 0 1 728 478l1.98-.551c3.435-.764 6.936-.587 10.439-.578z" fill="#24417c"/><path d="M517.625 360.688l3.121-.05A124.46 124.46 0 0 1 530 361l3.085.198c3.196.486 5.23.987 7.915 2.802 2.31 4.472 3.111 9.075 4 14 .527 2.244 1.06 4.486 1.598 6.727C557.983 437.17 557.247 491.773 540 543l-.719 2.137a575.112 575.112 0 0 1-4.571 12.923 693.861 693.861 0 0 0-1.92 5.335c-3.004 8.171-6.775 15.825-10.75 23.552a277.213 277.213 0 0 0-2.981 6.1c-4.309 8.992-9.28 17.202-14.975 25.383-1.363 1.975-2.66 3.99-3.959 6.008-2.988 4.473-6.178 8.8-9.375 13.125l-1.613 2.206-1.528 2.047-1.376 1.858L485 645h-2l-.805 1.766c-3.773 7.051-10.572 12.769-16.195 18.359l-2.04 2.05C452.115 679 452.115 679 449 679l-1 3a96.856 96.856 0 0 1-5.5 4.25 291.848 291.848 0 0 0-13.66 10.535C427 698 427 698 424 698v2a130.654 130.654 0 0 1-7.438 4.563l-2.315 1.338C396.792 715.92 379.157 724.73 360 731l-2.389.782C345.238 735.78 332.832 738.888 320 741l-2.112.36c-25.409 4.1-53.652 3.144-78.888-1.36l-3.895-.691c-3.398-.68-6.744-1.465-10.105-2.309l-2.213-.54c-10.245-2.504-20.019-5.447-29.787-9.46-1.524-.584-3.048-1.164-4.574-1.742-18.263-6.984-34.869-16.102-51.208-26.807a428.122 428.122 0 0 0-4.772-3.074l-2.5-1.611-2.29-1.46L126 691v-2l-2.137-.707c-3.42-1.545-5.825-3.54-8.675-5.98l-2.958-2.512c-.517-.45-1.035-.898-1.569-1.361-1.14-.989-2.287-1.97-3.44-2.946-5.552-4.756-10.739-9.859-15.894-15.037-1.453-1.458-2.911-2.91-4.37-4.363C82.094 651.236 77.265 646.399 73 641v-2l-3-1c-1.515-1.683-1.515-1.683-3.11-3.867l-1.776-2.417-1.864-2.591-1.919-2.64C56.98 620.46 52.873 614.345 49 608a1194.52 1194.52 0 0 0-2.32-3.621c-10.354-16.172-19.173-32.88-25.496-51.043A172.372 172.372 0 0 0 18 545.062C12.522 531.444 6 514.828 6 500h2a145.17 145.17 0 0 1 4.625 6.875C23.177 523.039 36.235 540.439 54 549v2c3.588 1.866 7.278 3.425 11 5v2h3v2l9 2v2l2.203.332c6.449 1.017 12.7 2.359 19.016 4.004 3.59.857 7.109 1.31 10.781 1.664v2c4.292-.14 8.583-.288 12.875-.438l3.648-.119c10.383-.366 19.703-.831 29.477-4.443 7.274-2.566 14.385-4.72 22-6v-2c.797-.315 1.593-.63 2.414-.953 6.76-2.616 6.76-2.616 12.961-6.297 2.932-1.954 5.148-2.419 8.625-2.75v-2l2.875-.25L207 546a89.261 89.261 0 0 0 2-4c2.875-1.625 2.875-1.625 6-3l2.188-1.188C219 537 219 537 222 537l1-3a94.42 94.42 0 0 1 6.75-4l3.734-2.063 1.819-.988c1.517-.848 2.993-1.77 4.463-2.699C242 523 242 523 245 523v-2l2.16-1.172 2.903-1.578 3.035-1.648c2.33-1.286 4.619-2.612 6.902-3.977 3-1.625 3-1.625 6-1.625v-2l6-1v-2l6-1v-2c7.586-3.008 15.139-5.803 23-8l3.938-1.125L308 493l3-1c14.088-1.46 27.346-.32 39.398 7.57 5.498 4.802 8.132 11.69 8.842 18.85.408 6.937.418 13.883.447 20.83.03 3.135.064 6.27.103 9.406.022 1.94.038 3.88.047 5.82.039 4.931.16 9.685 1.163 14.524 1.845 1.32 1.845 1.32 4 2a158.472 158.472 0 0 1 2.813 3.125c4.611 4.074 9.665 3.53 15.542 3.242 12.906-1.3 20.46-9.4 28.645-18.867l1.5-1.844C415 555 415 555 417.07 553.47c2.92-2.223 4.251-5.285 5.93-8.469l1.445-2.586C427.617 536.724 430.468 531 433 525l1.75-4.063L436 518h2l.332-1.652c1.178-5.603 2.755-10.953 4.668-16.348h2l.36-2.02c.776-3.615 1.824-7.13 2.89-10.668a879.238 879.238 0 0 0 5.313-18.562 486.926 486.926 0 0 1 5.542-18.758c.883-2.952 1.623-5.925 2.357-8.917 1.057-4.077 2.391-8.068 3.683-12.075 1.474-4.631 2.695-9.28 3.855-14 .645-2.007 1.304-4.01 2-6h2l.148-1.758c.448-4.681 1.15-8.817 2.852-13.242h2l.125-2.375c2.838-11.758 12.77-22.407 22.875-28.625 5.524-2.58 10.626-2.33 16.625-2.313z" fill="#79bbf0"/><path d="M293 7l3.35 2.858 1.884 1.607c5.795 5.036 10.965 10.684 15.954 16.504 2.737 3.068 5.686 5.914 8.613 8.8 2.65 2.688 5.108 5.507 7.558 8.376 1.621 1.832 3.318 3.532 5.079 5.23C338 53 338 53 338 55h2a102.636 102.636 0 0 1 4.313 5.125l2.44 3.047L349 66c2.48 3.071 4.984 5.984 7.813 8.75C359 77 359 77 359 79l3 1a99.352 99.352 0 0 1 4.563 5.313l2.378 2.925c1.663 2.231 2.946 4.23 4.059 6.762h2c3 3.462 3 3.462 3 6h2a124.933 124.933 0 0 1 4.813 6.125c.859 1.15 1.72 2.298 2.582 3.445l1.287 1.716c2.029 2.638 4.168 5.174 6.318 7.714a170.31 170.31 0 0 1-3.875 7.375c-7.374 15.218-9.221 34.42-4.176 50.727L388 181l.667 1.925c3.174 9.226 3.174 9.226 7.524 17.93C398 204 398 204 398 206h2l1.375 2.875c1.427 3.128 1.427 3.128 3.625 5.125l1.313 3.313c1.55 3.756 3.733 5.867 6.687 8.687a179.486 179.486 0 0 1 3.688 4.5l1.761 2.219c1.605 2.36 2.546 4.619 3.551 7.281 1.885 3.078 3.696 5.696 6.25 8.25L430 250v2h2a432.546 432.546 0 0 1 5 9l1.715 3.152C444.509 275.221 449.658 287.34 450 300l.188 3.125c.564 15.793-3.67 28.034-14.375 39.563-8.484 8.196-17.066 11.475-28.688 11.562-1.023.03-1.023.03-2.066.063-8.686.066-15.377-3.973-21.747-9.75-4.247-4.708-6.242-9.68-8.312-15.563l-.728-1.997c-2.084-5.917-3.318-11.832-4.397-18.003-.332-1.876-.668-3.75-1.008-5.625l-.434-2.477C368.177 299 368.177 299 367 298c-.276-1.6-.52-3.205-.75-4.813-2.255-12.767-7.727-23.276-18.223-30.96-4.936-2.987-9.197-3.541-14.902-3.477l-2.066-.023c-12.609.048-21.6 6.016-30.352 14.464-3.258 3.38-5.601 6.64-7.707 10.809l-1.035 1.707c-6.278 10.957-7.617 24.951-8.965 37.293h-2l.14 2.613c.302 10.18-1.244 19.36-3.623 29.24a389.955 389.955 0 0 0-1.31 5.67c-2.33 10.015-5.582 18.14-11.719 26.446-1.52 1.956-1.52 1.956-2.488 4.031h-2l-1 3h-2v2c-11.384 9.573-24.588 12.019-39 11-3.536-.615-6.675-1.668-10-3l-2.887-1.031C190.376 397.383 179.148 387.344 171 374l-2.125-3.25c-5.954-10.613-7.056-22.445-7.063-34.313l-.037-3.384c-.018-10.421 1.415-20.325 4.412-30.303l.639-2.148c3.284-10.63 8.042-20.75 13.174-30.602h2v-3a353.654 353.654 0 0 1 4-4c1.808-2.477 3.462-5.05 5.125-7.625.876-1.348 1.753-2.694 2.633-4.04l1.16-1.794C196 248 196 248 198 246l1.125-3.188c1.665-4.137 4.444-6.287 7.938-8.94 2.436-2.354 3.455-4.83 4.937-7.872 1.586-2.372 3.312-4.623 5.063-6.875l1.353-1.797c1.143-1.483 2.359-2.911 3.584-4.328h2l.727-1.645c1.596-2.952 3.565-5.41 5.648-8.042 5.686-7.267 10.981-14.792 16.252-22.363a392.64 392.64 0 0 1 4.166-5.77c2.304-3.001 2.304-3.001 3.207-6.18h2l.328-2.246c.711-2.915 1.641-4.434 3.422-6.816 3.68-5.313 5.948-10.925 8.25-16.938l1.281-3.34c.81-2.117 1.615-4.237 2.41-6.36a190.484 190.484 0 0 1 3.243-7.663C282.07 109.68 285.77 94.357 288 77h2l-.035-2.3c-.01-.995-.018-1.989-.027-3.013l-.036-2.988C290 66 290 66 291 63c1.604-11.452 1.336-23.213 1.563-34.75l.13-6.195c.106-5.018.208-10.037.307-15.055z" fill="#86cde8"/><g fill="#24417c"><path d="M564.494 151.725l3.2-.015c3.487-.014 6.975-.013 10.462-.01l7.274-.014c5.081-.007 10.162-.007 15.242-.002 6.514.006 13.027-.01 19.54-.034 5.007-.015 10.014-.016 15.02-.013 2.402 0 4.804-.005 7.206-.015 3.356-.013 6.712-.006 10.068.006l3.01-.023c4.986.038 8.422.142 12.484 3.395-.573 2.867-.861 3.861-3 6-2.215.273-2.215.273-4.937.375-6.189.44-11.355 2.31-17.063 4.625l-3 1c-3.765 5.98-4.914 12.424-3.535 19.328 2.838 11.217 7.238 22.074 12.133 32.535 3.741 8.37 6.969 16.974 10.335 25.5 8.316 21.045 17.127 41.893 26.097 62.667 2.16 5.02 4.224 10.07 6.22 15.158a144.447 144.447 0 0 0 6.32 13.855c2.471 5.11 4.59 10.375 6.752 15.622l1.006 2.433.903 2.203c.646 1.694.646 1.694 1.769 2.699 4.795-12.607 9.17-25.332 13.359-38.15 1.908-5.805 3.876-11.554 6.102-17.245 2.95-7.55 5.498-15.222 8.039-22.917l1.542-4.65a7366.288 7366.288 0 0 0 12.083-36.85l.853-2.62c.803-2.466 1.604-4.933 2.405-7.4l.715-2.196c4.196-12.964 2.987-19.368-2.098-31.972l-1.23-3.125c-2.48-6.161-5.32-11.938-8.633-17.695C740 172 740 172 740 170h-2l-1.8-1.863c-5.31-5.158-13.176-6.344-20.317-6.856-2.559-.382-4.075-1.473-5.883-3.281l1-5c2.939-.844 5.552-1.127 8.606-1.134l2.787-.013 3.035.002 3.214-.01c3.507-.01 7.015-.012 10.522-.013l7.3-.01c5.1-.006 10.198-.008 15.298-.007 6.548 0 13.097-.014 19.645-.031 5.024-.011 10.048-.013 15.071-.013 2.416 0 4.831-.005 7.246-.013a2155.6 2155.6 0 0 1 10.107 0c1.005-.007 2.011-.012 3.047-.018l2.77.013 2.415-.002C824 152 824 152 826 154c.125 2.625.125 2.625 0 5-5.69 2.71-11.496 4.282-17.598 5.84-5.828 1.987-9.507 4.647-12.64 9.988-5.768 16.445 4.473 39.228 10.324 54.64 1.01 2.796 1.835 5.616 2.664 8.47 2.507 8.267 5.815 16.191 9.078 24.182 2.142 5.263 4.25 10.54 6.36 15.818l1.3 3.248c3.33 8.332 6.585 16.688 9.742 25.087l1.27 3.352c.36.962.722 1.923 1.094 2.914 1.555 3.827 3.263 7.566 4.984 11.321 2.376 5.245 4.654 10.532 6.926 15.823.822 1.91 1.648 3.817 2.475 5.725l1.572 3.658 1.427 3.311C856 355 856 355 856 357h2l.238-2.293c1.076-5.234 3.026-10.044 4.95-15.02.83-2.18 1.66-4.361 2.488-6.542l1.221-3.213a453.567 453.567 0 0 0 3.978-11.057c2.508-7.209 5.136-14.372 7.775-21.534 4.249-11.529 8.404-23.085 12.4-34.704 1.565-4.542 3.158-9.073 4.759-13.602a3352334.816 3352334.816 0 0 0 4.02-11.38c1.703-4.815 3.393-9.634 5.068-14.459.572-1.64 1.148-3.277 1.728-4.914 3.442-9.724 6.387-18.958 7.375-29.282l.215-2.205c.33-6.709-1.356-13.28-5.34-18.67-6.523-4.822-12.4-6.558-20.492-6.754C886 161 886 161 884.168 159.637 883 158 883 158 883.188 155.375 884 153 884 153 886 152a217.28 217.28 0 0 1 8.273-.161l2.593-.015c2.836-.015 5.672-.022 8.509-.027l5.896-.017c4.123-.01 8.245-.017 12.368-.02 5.293-.006 10.586-.03 15.879-.058 4.06-.019 8.119-.024 12.178-.026 1.952-.003 3.904-.01 5.856-.024 2.725-.017 5.45-.015 8.175-.008l2.462-.028c2.243.017 2.243.017 5.811.384 2 3 2 3 1.688 5.625C975 160 975 160 974 161c-1.829.3-3.663.564-5.5.813-5.717.916-10.412 2.46-15.5 5.187l-3 1.563c-26.505 21.534-37.359 72.922-48.032 103.874a1617.19 1617.19 0 0 1-7.468 21.126l-1.147 3.183a2105.147 2105.147 0 0 1-5.35 14.668c-4.381 11.888-8.48 23.853-12.415 35.895a396.561 396.561 0 0 1-7.416 20.638c-1.75 4.558-3.298 9.178-4.86 13.803-9.36 27.346-9.36 27.346-15.312 39.25h-8c-2.862-6.163-5.264-12.378-7.437-18.812-2.207-6.413-4.51-12.725-7.192-18.958-1.816-4.279-3.528-8.598-5.246-12.917-2.778-6.974-5.6-13.926-8.473-20.86-2.665-6.448-5.25-12.927-7.812-19.416-1.563-3.937-3.179-7.832-4.922-11.693-1.673-3.723-3.095-7.48-4.418-11.344-1.608-4.575-3.315-9.008-5.34-13.41-4.21-9.4-7.968-19.013-11.633-28.637-2.209-5.754-4.497-11.477-6.777-17.203l-1.36-3.434-1.28-3.207-1.158-2.907c-.763-2.136-.763-2.136-1.952-3.202l-.706 2.35c-2.521 8.304-5.255 16.516-8.106 24.713l-1.34 3.87c-2.392 6.903-4.802 13.8-7.223 20.692a4117.454 4117.454 0 0 0-9.5 27.438l-.789 2.298a2754.639 2754.639 0 0 0-9.961 29.577c-3.456 10.454-7.116 20.827-10.845 31.187-3.323 9.246-6.48 18.536-9.53 27.875-.711 2.174-1.423 4.348-2.14 6.52-.629 1.91-1.254 3.822-1.88 5.734C702 420 702 420 701 421c-5.736.273-5.736.273-8 0-2.184-2.184-2.787-3.687-3.872-6.547-1.926-4.963-4.012-9.832-6.175-14.695l-2.312-5.235a7746.178 7746.178 0 0 0-3.567-8.046c-4.978-11.221-9.747-22.495-14.261-33.91-2.413-6.101-4.942-12.15-7.5-18.192l-1.354-3.23a261.38 261.38 0 0 0-7.912-17.019c-1.204-2.446-2.142-4.91-2.984-7.501-1.352-3.903-2.95-7.51-4.852-11.176-3.192-6.303-5.95-12.735-8.648-19.261-3.977-9.511-8.124-18.885-12.563-28.188a1180.33 1180.33 0 0 1-7.027-15.562c-4.413-9.915-8.898-19.767-13.912-29.395a466.65 466.65 0 0 1-2.188-4.27C586.002 183.29 576.055 168.175 559 162a148.092 148.092 0 0 0-7.18-1.57C550 160 550 160 549 159a99.984 99.984 0 0 1 0-5c4.982-2.655 10.001-2.288 15.494-2.275zM1900.388 144.702c2.456-.01 4.91-.024 7.366-.043 27.286-.191 57.52 1.742 78.996 20.779L1989 168l1.566 1.523c4.262 4.367 7.035 9.13 9.746 14.54l1.023 2.038c6.473 13.385 7.138 30.931 3.102 45.274-5.895 15.452-17.115 28.924-31.964 36.082-10.531 4.68-21.416 8.324-32.473 11.543l2.965 1.54c7.274 3.806 14.359 7.654 21.035 12.46l2.32 1.633c4.204 3.032 4.204 3.032 5.68 4.367v2h2c11.035 12.344 14.59 28.749 17.957 44.453 5.778 29.317 5.778 29.317 23.36 52.188 9.037 5.684 16.94 7.73 27.488 8.832C2046 407 2046 407 2048 409c.25 2.5.25 2.5 0 5-2.41 2.41-2.961 2.252-6.252 2.259l-2.68.019-2.92-.012-3.026.008c-3.25.004-6.498-.008-9.747-.024l-3.32-.01c-24.741-.082-24.741-.082-36.555-.99l-2.698-.187c-7.017-.671-12.623-2.732-17.49-7.938-8.455-13.353-10.093-30.641-12.81-45.904-4.529-31.787-4.529-31.787-18.717-59.979C1930 299 1930 299 1930 297l-1.875-.937L1924 294v-2l-2.375-.75c-1.963-.677-3.922-1.378-5.828-2.203-10.692-4.622-21.315-5.364-32.86-5.234l-3.314.001c-6.928.038-13.73.514-20.623 1.186-.047 9.53-.082 19.058-.104 28.588-.01 4.427-.024 8.854-.047 13.282-.237 23.505-.237 23.505.971 46.966l.211 2.468c.944 8.913 3.008 18.077 9.781 24.384 6.9 4.139 12.993 4.927 20.868 5.484l2.336.203 2.102.148c2.394.607 3.374 1.549 4.882 3.477-.125 2.063-.125 2.063-1 4-5.685 3.79-12.233 3.144-18.842 3.13l-2.953.005c-3.213.004-6.426.001-9.639-.002l-6.717.003c-4.69.001-9.38-.001-14.069-.006-6.003-.005-12.006-.002-18.01.004-4.623.004-9.246.002-13.87 0-2.212 0-4.425 0-6.638.002-3.097.003-6.194-.001-9.291-.007l-2.757.007c-12.573-.042-12.573-.042-17.214-3.136-.375-2.5-.375-2.5 0-5 5.63-3.754 11.934-3.25 18.527-3.523 3.719-.51 6.2-1.695 9.473-3.477h2v-2a537.318 537.318 0 0 1 3-3c9.526-14.642 8.174-34.714 8.053-51.507l-.019-4.53c-.018-4.064-.042-8.129-.069-12.194-.021-3.418-.04-6.836-.059-10.254-.044-8.085-.094-16.17-.148-24.255-.055-8.274-.099-16.549-.138-24.823-.034-7.157-.075-14.313-.122-21.47-.028-4.25-.053-8.5-.07-12.751 1.565-36.26 1.565-36.26-8.116-70.216-7.14-6.175-16.62-7.328-25.593-9.168C1782 155 1782 155 1781 154c-.25-2.437-.25-2.437 0-5 3.56-2.374 6.165-2.343 10.283-2.41l2.255-.06c2.486-.064 4.972-.114 7.458-.163l5.284-.126c4.737-.113 9.474-.212 14.211-.306 2.94-.06 5.88-.122 8.821-.185 23.69-.506 47.382-.957 71.076-1.048zM1860 159c-4.582 57.142-4.582 57.142-1 114 28.643.963 60.764-.162 83.844-18.973 2.32-2.18 4.19-4.526 6.156-7.027l1.992-1.844c2.717-2.918 4.365-6.103 6.133-9.656l1.068-2.146c6.235-13.07 6.545-28.649 1.772-42.319-2.669-6.118-6.054-11.638-9.965-17.035l-1.555-2.254L1947 170h-2l-1-3c-6.46-5.866-14.83-8.446-23-11l-1.69-.549c-3.455-.675-6.908-.634-10.415-.654l-2.417-.017c-1.694-.01-3.388-.016-5.081-.02-2.53-.01-5.06-.04-7.59-.072-17.345-.32-17.345-.32-33.807 4.312zM1517.262 147.867l2.646-.004 2.78.012 2.626-.012c5.018.008 9.97.222 14.971.628 10.166.733 20.349.71 30.536.77 3.706.02 7.411.048 11.117.076 6.605.05 13.211.094 19.817.137 11.66.076 23.32.158 34.98.245l3.86.028c28.805.218 57.604.706 86.405 1.253.636 2.669 1.27 5.338 1.902 8.008l.539 2.257c1.782 7.532 3.245 15.108 4.559 22.735l.403 2.322c3.534 20.612 3.534 20.612 3.597 30.678-1 1-1 1-3.355 1.3-2.645-.3-2.645-.3-4.446-1.945l-1.511-2.167-1.551-2.145C1726 210 1726 210 1726 207h-2c-1.473-1.863-1.473-1.863-3.062-4.312l-1.598-2.426C1718 198 1718 198 1717 195h-2c-1.48-1.504-1.48-1.504-3.187-3.562-6.456-7.608-6.456-7.608-14.25-13.75L1695 176v-2l-2.187-.844c-3.543-1.456-6.906-3.191-10.313-4.937-14.048-6.849-30.624-6.712-45.95-6.61-2.85.016-5.699 0-8.548-.02-13.205-.012-25.974 1.296-39.002 3.411-1.63 10.572-2.407 20.993-2.625 31.688l-.057 2.358c-.566 23.645-.41 47.304-.318 70.954 4.48.05 8.96.086 13.44.11 1.519.01 3.037.023 4.556.04 16.064.181 31.68-.507 44.004-12.15 5.726-6.692 8.723-14.94 12-23 2.82-6.82 2.82-6.82 4-8 2.938-.25 2.938-.25 6 0 2.487 3.731 2.085 5.226 1.688 9.625l-.301 3.54c-.252 2.5-.553 4.998-.91 7.487-.746 6.739-.57 13.513-.522 20.283.018 2.505.028 5.01.036 7.515.025 7.116.06 14.232.105 21.347.027 4.368.044 8.735.055 13.103.006 1.661.016 3.322.03 4.983.02 2.314.026 4.628.03 6.943l.023 3.989C1670 329 1670 329 1668 332c-2.5.313-2.5.313-5 0-2.157-2.157-2.452-3.053-3.184-5.922l-.623-2.36-.63-2.468c-1.388-5.428-2.826-10.311-5.563-15.25l-1.14-2.125c-5.51-9.313-12.253-13.418-22.692-16.343-4.061-.996-8.158-1.67-12.293-2.282l-2.36-.35c-9.45-1.235-19-1.483-28.515-1.9-.023 9.45-.041 18.901-.052 28.352-.005 4.39-.012 8.78-.023 13.171-.011 4.254-.017 8.507-.02 12.76-.002 1.607-.005 3.213-.01 4.818-.03 8.701.09 17.383.486 26.076l.092 2.343c.36 6.943 2.142 12.95 4.527 19.48l.438 2.285L1592 394l3 1v2l1.734.848a80.722 80.722 0 0 1 4.282 2.336c12.273 6.887 26.486 7.35 40.234 7.191l2.166-.013c23.273-.164 45.149-3.807 65.584-15.362l2.48-1.395c15.428-9.474 24.083-24.565 32.208-40.156C1745 348 1745 348 1746 347c2.5-.125 2.5-.125 5 0 1.644 1.644 1.29 3.406 1.375 5.688-.058 8.107-2.116 15.722-4.012 23.566-1.297 5.368-2.387 10.76-3.425 16.184-4.032 20.75-4.032 20.75-6.938 26.562-14.745.024-29.49.041-44.234.052-6.848.005-13.697.012-20.546.023-6.626.012-13.253.017-19.88.02-2.51.002-5.02.005-7.531.01-12.638.027-25.231-.072-37.854-.72-9.001-.46-18-.645-27.012-.8-2.951-.051-5.903-.108-8.855-.166-8.371-.163-16.743-.323-25.115-.469a5225.1 5225.1 0 0 1-15.502-.295 1615.73 1615.73 0 0 0-5.868-.104c-2.715-.043-5.43-.098-8.145-.156l-2.43-.03c-3.799-.094-6.804-.228-10.028-2.365-.125-2.375-.125-2.375 0-5 3.714-3.714 8.734-3.117 13.75-3.312 7.929-.556 14.031-1.995 19.625-7.875 3.036-3.934 4.404-8.044 5.625-12.813l.586-1.977c4.045-15.182 2.638-32.587 2.8-48.18l.08-7c.083-7.448.153-14.895.222-22.343l.036-3.818c.442-44.63.442-44.63-.536-89.244l-.125-3.34c-.515-13.16-1.366-26.178-4.063-39.098h-2l-1.875-2.187c-5.928-6.155-15.78-8.215-23.848-10.04-2.518-.855-3.69-1.65-5.277-3.773.188-2.625.188-2.625 1-5 2.322-1.161 3.677-1.129 6.262-1.133zM1210 148c5.707-.025 11.414-.043 17.12-.055 1.935-.005 3.87-.012 5.804-.02 2.808-.013 5.616-.018 8.424-.023l2.549-.015c4.994 0 9.924.23 14.903.612 8.318.59 16.616.642 24.95.63l4.855.006c4.347.004 8.694.003 13.041 0 4.575-.003 9.15 0 13.724 0 7.675.003 15.35 0 23.025-.005 8.846-.005 17.692-.003 26.539.002 7.629.005 15.258.005 22.888.003 4.541-.002 9.083-.002 13.625.001 4.27.003 8.538.001 12.807-.005 1.558 0 3.116 0 4.673.002 7.894.01 15.714-.13 23.576-.908 3.778-.34 7.535-.35 11.325-.323l2.303.005c2.373.005 4.746.018 7.119.03A4752.548 4752.548 0 0 1 1480 148c1.642 11.248 2.698 22.482 3.563 33.813.188 2.43.378 4.86.57 7.29.12 1.55.24 3.101.355 4.652.366 4.799.877 9.551 1.637 14.306-.177 2.74-1.271 3.97-3.125 5.939-2.75.75-2.75.75-6 0-6.392-5.305-12.387-14.16-15-22h-2c-3-3.462-3-3.462-3-6l-3-1v-2l-3-1v-2l-1.738-.82c-2.299-1.2-4.33-2.565-6.45-4.055-16.5-10.974-35.64-10.69-54.812-11.312-2.24-.082-4.48-.165-6.719-.249-5.426-.2-10.853-.388-16.281-.564-1.128 16.188-1.18 32.373-1.2 48.593-.003 2.29-.007 4.579-.012 6.868-.013 7.25-.023 14.5-.027 21.751a7379.38 7379.38 0 0 1-.042 22.184c-.192 46.428-.192 46.428 1.547 92.815l.164 2.977c.789 21.374.789 21.374 10.855 39.37 7.85 6.599 17.208 7.89 27.152 8.567 1.958.145 3.915.293 5.872.445l2.587.18C1414 407 1414 407 1416 408c.125 2.875.125 2.875 0 6-3.571 3.571-8.644 3.125-13.478 3.127l-3.22.009-3.486-.007-3.707.006c-3.343.003-6.686.003-10.029 0-3.503-.003-7.005 0-10.508 0-5.88.003-11.759 0-17.638-.005-6.795-.005-13.59-.003-20.385.002-5.84.005-11.679.005-17.519.003-3.485-.002-6.97-.002-10.456.001-3.883.004-7.766-.001-11.649-.007l-3.498.007-3.203-.009-2.78-.001c-2.29-.118-4.251-.481-6.444-1.126-.625-3.375-.625-3.375-1-7 3.726-3.726 8.115-3.132 13.187-3.313 6.375-.32 11.23-1.637 16.813-4.687a296.06 296.06 0 0 1 5-2v-2l2.187-1.875c7.94-7.532 8.962-19.66 9.257-29.885.04-1.622.08-3.243.118-4.865l.064-2.558c2.085-85.87 2.085-85.87-1.965-171.59-.682-8.1-.755-16.103-.661-24.227-29.811-1.087-29.811-1.087-59 4l-2.106.633c-13.913 4.408-26.36 13.266-34.707 25.305L1223 195h-2v3h-2l-.84 2.605c-1.126 3.296-2.382 6.493-3.723 9.708l-1.316 3.175C1212 216 1212 216 1211 217c-3.5.125-3.5.125-7 0-1.716-1.716-1.172-3.901-1.188-6.25.184-21.058 3.983-41.994 7.188-62.75zM1073 144h12c3.614 6.325 6.596 12.34 8.953 19.219 1.081 2.871 2.377 5.5 3.797 8.219 6.157 11.987 10.682 24.79 15.113 37.496 1.044 2.816 2.218 5.482 3.512 8.191 2.76 5.873 4.803 11.95 6.907 18.08a379.04 379.04 0 0 0 5.968 16.17c3.181 8.06 6.204 16.177 9.188 24.313l.718 1.958a1512.58 1512.58 0 0 1 10.062 28.42c2.782 8.043 5.846 15.959 8.975 23.872a641.522 641.522 0 0 1 3.745 9.874l1.468 3.926 2.52 6.744c9.937 31.8 9.937 31.8 32.074 54.518 5.67 2.06 11.057 3.331 17.09 3.594 2.466.524 3.378 1.435 4.91 3.406.313 2.562.313 2.562 0 5l-2 2c-2.212-.024-2.212-.024-5.156-.375-9.346-.869-18.669-.704-28.047-.639-3.367.022-6.733.036-10.1.048-9.56.033-19.12.075-28.681.137-5.87.038-11.74.061-17.61.075-2.234.008-4.468.021-6.702.04-3.107.027-6.213.035-9.32.039l-2.807.037-2.552-.008-2.222.012C1103 418 1103 418 1101 415c.54-4.54.54-4.54 2-6 2.14-.327 4.288-.611 6.438-.875 8.578-1.187 16.737-2.495 23.562-8.125 3.5-5.484 2.654-12.666 1.449-18.809-.754-2.764-1.604-5.473-2.511-8.191l-.96-3.006c-2.569-7.973-5.327-15.88-8.138-23.771-2.147-6.05-4.184-12.134-6.215-18.223l-1.049-3.133-.974-2.93-.865-2.597c-.662-2.102-1.213-4.2-1.737-6.34l-2.056.038c-8.627.159-17.254.312-25.881.462l-2.074.036c-20.998.363-41.988.624-62.989.464l-.553 1.89a306 306 0 0 1-5.384 16.548l-.795 2.245c-1.08 3.041-2.173 6.071-3.334 9.083-9.941 25.072-9.941 25.072-7.75 51.02 2.604 3.726 5.686 6.293 9.816 8.214l1.855.988c5.648 2.829 10.96 3.725 17.227 4.325 3.508.826 4.876 1.724 6.918 4.687-.403 2.64-.403 2.64-1 5-12.091-.084-24.182-.18-36.273-.288-5.614-.05-11.228-.096-16.842-.134-5.414-.037-10.828-.083-16.242-.136-2.07-.019-4.139-.034-6.208-.045-2.89-.017-5.78-.046-8.67-.078l-2.614-.007c-5.923-.084-5.923-.084-8.151-2.312-.125-3.125-.125-3.125 0-6 3.406-1.921 6.425-3.154 10.25-3.813 4.847-.953 8.475-3.178 12.586-5.847C966 398 966 398 969 397l1-3h2l.734-1.512a223.23 223.23 0 0 1 3.22-6.07c5.056-9.28 9.314-18.53 13.046-28.418a992.388 992.388 0 0 1 1.938-4.75c2.273-5.665 4.328-11.411 6.418-17.146 1.668-4.546 3.415-9.03 5.332-13.479 2.149-5.033 3.74-10.136 5.296-15.379.971-3.102 2.074-6.097 3.266-9.121 2.4-6.09 4.555-12.25 6.688-18.438 2.746-7.958 5.577-15.87 8.57-23.738a614.923 614.923 0 0 0 3.172-8.554c3.105-8.545 6.332-17.008 9.833-25.398a443.534 443.534 0 0 0 5.05-12.622c7.66-20.07 7.66-20.07 12.296-29.004 1.193-2.479 2.115-4.96 3.016-7.559 3.479-9.955 8.339-19.431 13.125-28.812zm-7 48c-9.232 14.235-16.07 32.22-21.125 48.355-.909 2.747-1.982 5.363-3.125 8.02-3.993 9.383-7.325 19.024-10.75 28.625l-1.044 2.92a2931.9 2931.9 0 0 0-2.956 8.33l-.917 2.58c-1.522 3.988-1.522 3.988-2.083 8.17h83c-1.868-6.85-3.676-13.184-6.313-19.688-.622-1.564-1.243-3.13-1.863-4.695l-.932-2.345c-1.345-3.427-2.617-6.88-3.892-10.335-2.348-6.328-4.877-12.569-7.467-18.802-2.629-6.335-5.102-12.721-7.533-19.135l-1.945-5.086c-6.852-17.917-6.852-17.917-10.055-26.914h-1z"/></g><path d="M888.313 523.563l3.076.022c12.516.275 22.682 3.757 31.802 12.52 9.574 10.244 12.298 20.463 12.059 34.332-.943 13.444-6.379 24.421-16.25 33.563-11.424 8.157-25.271 10.219-39 9-11.632-2.34-21.09-8.378-28-18-7.705-12.321-10.61-25.726-7.547-40.13 3.401-11.464 11.225-20.109 21.016-26.616 7.571-3.75 14.432-4.78 22.843-4.692z" fill="#f8f9fb"/><path d="M1516 525a9486.71 9486.71 0 0 1 19.586-.055c2.218-.005 4.436-.012 6.654-.02 3.2-.013 6.4-.018 9.6-.023l2.974-.015c13.622-.001 25.311 2.036 36.147 11.02 9.496 9.75 12.317 20.59 12.358 33.837-.196 11.075-4.409 20.7-11.694 28.944L1589 601l-2.813 2.5c-13.842 9.265-30.309 8.112-46.187 7.813-2.336-.026-4.672-.048-7.008-.069-5.664-.054-11.328-.138-16.992-.244v-4l2.152-.402 2.785-.535 2.778-.528c2.238-.312 2.238-.312 3.285-1.535.11-2.228.15-4.46.161-6.691l.015-2.119c.015-2.322.022-4.645.027-6.967l.017-4.824c.01-3.376.017-6.751.02-10.126.006-4.333.03-8.665.058-12.998.019-3.322.024-6.645.026-9.967.003-1.598.01-3.195.024-4.793.017-2.232.015-4.463.008-6.694l.011-3.854L1527 532c-2.9-1.934-3.897-2.301-7.188-2.625L1516 529v-4z" fill="#f9fafb"/><path d="M1707 525c7.222-.051 14.445-.086 21.667-.11 2.454-.01 4.908-.023 7.362-.04 3.54-.025 7.08-.037 10.62-.045l3.29-.032c10.68-.001 19.826.948 28.061 8.227 3.895 4.16 5.316 7.939 5.563 13.625-.327 6.387-2.85 9.926-7.438 14.188-3.23 2.26-5.238 2.91-9.125 3.187v2l1.688.445c7.15 2.102 12.743 5.183 17.312 11.18 1.776 5.994 2.384 12.106-.102 17.977-6.034 9.648-14.075 12.849-24.898 15.398-4.378.471-8.683.472-13.082.39-1.18-.005-2.36-.01-3.576-.017-3.719-.022-7.436-.072-11.154-.123-2.543-.02-5.085-.038-7.627-.055-6.188-.043-12.374-.11-18.561-.195v-4l5.957-.586c2.343-.34 2.343-.34 5.043-2.414.44-3.114.44-3.114.34-6.836l.002-2.13a759.196 759.196 0 0 0-.049-6.98 2490.707 2490.707 0 0 0-.087-17.568c-.03-4.33-.044-8.66-.06-12.99-.032-8.499-.083-16.997-.146-25.496-3.636-1.979-6.884-2.525-11-3v-4z" fill="#f9f9fb"/><path d="M1386 525c7.186-.051 14.372-.086 21.558-.11 2.44-.01 4.88-.023 7.32-.04 3.525-.025 7.05-.037 10.575-.045l3.26-.032c12.674-.001 22.537 1.211 32.162 9.79 4.005 4.593 4.489 8.304 4.5 14.312l.074 2.105c.034 5.985-1.918 9.413-6.012 13.63-6.793 5.39-6.793 5.39-11.437 5.39 6.353 9.44 12.756 18.852 19.438 28.063l1.426 2.035c2.948 4 5.077 5.822 10.136 6.902v4c-23.547 2.512-23.547 2.512-30.327-1.313-3.772-3.502-6.124-7.832-8.443-12.38-2.075-3.892-4.682-7.403-7.23-10.994-.877-1.295-1.752-2.59-2.625-3.887-3.955-6.365-3.955-6.365-10.375-9.426.093 4.379.2 8.757.317 13.135.039 1.49.074 2.98.105 4.47.045 2.14.103 4.279.164 6.418l.095 3.904c.004 3.178.004 3.178 2.319 5.073 2.655.565 5.291.738 8 1v4h-45v-4l11-2c.093-9.336.164-18.671.207-28.007.021-4.335.05-8.67.095-13.005.043-4.182.067-8.364.078-12.546.007-1.597.021-3.194.043-4.79.029-2.235.033-4.468.031-6.702l.027-3.856c-.189-3.145-.189-3.145-2.275-4.985-3.005-1.51-5.882-1.79-9.206-2.109v-4z" fill="#f9fafb"/><path d="M1115 525h72v26h-4l-.664-2.23c-2.41-7.42-4.378-11.149-11.383-14.852-4.377-1.36-8.706-1.388-13.265-1.543L1148 532v32c8.142-1.629 8.142-1.629 13-7 1.277-3.95 2.201-7.928 3-12 1.938-.563 1.938-.563 4-1 1 1 1 1 1.12 2.829l-.006 2.415v2.73l-.016 2.967-.005 3.023c-.005 3.2-.018 6.399-.03 9.598-.006 2.164-.01 4.327-.014 6.49-.011 5.317-.028 10.632-.049 15.948h-5l-.297-1.977c-.967-5.652-2.035-9.577-5.703-14.023-3.445-2.296-5.938-2.54-10-3 .093 4.236.2 8.472.317 12.708.039 1.44.074 2.882.105 4.324.045 2.07.103 4.14.164 6.21l.095 3.777c.016 3.096.016 3.096 2.319 4.981 8.557 1.447 19.484 1.356 26.984-3.246 5.381-4.682 9.365-10.784 11.016-17.754h4c-.552 6.721-1.24 13.425-2 20.125l-.251 2.299c-.633 5.46-.633 5.46-1.749 6.576-2.3.094-4.604.117-6.906.114h-2.188c-2.397 0-4.794-.009-7.191-.016a7937.011 7937.011 0 0 1-18.087-.029c-4.458-.01-8.915-.015-13.372-.02-8.752-.01-17.504-.028-26.256-.049v-4l1.934-.402 2.504-.536 2.496-.527c2.043-.343 2.043-.343 3.066-1.535.11-2.228.15-4.46.161-6.691l.015-2.119c.015-2.322.022-4.645.027-6.967l.017-4.824c.01-3.376.017-6.751.02-10.126.006-4.333.03-8.665.058-12.998.019-3.322.024-6.645.026-9.967.003-1.598.01-3.195.024-4.793.017-2.232.015-4.463.008-6.694l.011-3.854L1125 532c-3.445-2.296-5.938-2.54-10-3v-4z" fill="#f5f6f8"/><path d="M1298 525h72v26h-4l-.48-2.012c-1.823-6.897-3.847-10.676-10.04-14.574-4.652-1.89-8.881-1.976-13.855-2.101L1332 532v32c6.65-1.01 6.65-1.01 12.086-4.64 1.159-2.991 1.85-5.978 2.539-9.11.26-1.17.52-2.34.79-3.547L1348 544h4v46h-4l-.48-2.45c-1.7-8.496-1.7-8.496-7.52-14.55a61.296 61.296 0 0 0-4.176-1.117L1332 571c.118 4.397.242 8.793.372 13.19.044 1.496.085 2.993.125 4.49.058 2.147.122 4.294.187 6.441l.11 3.92c-.127 2.845-.127 2.845 1.206 3.959 2.886.128 5.738.185 8.625.188l2.41.037c8.046.02 14.027-1.427 20.031-6.94 3.583-4.234 5.741-9.227 7.934-14.285h3c-.117 2.396-.243 4.792-.375 7.188-.03.654-.062 1.308-.094 1.982-.384 6.764-1.484 13.022-2.531 19.83h-75v-4l1.898-.367 2.477-.508 2.46-.492c2.352-.5 2.352-.5 4.165-2.633.333-3.076.333-3.076.319-6.745l.03-2.099c.031-2.294.048-4.588.065-6.883.019-1.589.038-3.178.059-4.766.051-4.186.09-8.372.128-12.557.04-4.27.091-8.54.141-12.81.097-8.38.181-16.76.258-25.14-4.108-2.144-7.397-2.54-12-3v-4z" fill="#f7f8fa"/><path d="M1202 525c30.175-2.426 30.175-2.426 36.223 2.695 2.438 2.856 4.159 6.054 5.788 9.424 1.572 2.989 3.762 5.36 5.989 7.881 5.494 6.543 10.756 13.257 16 20l1.89 2.428L1273 574c.05-5.339.086-10.677.11-16.016.01-1.815.024-3.631.04-5.447.025-2.611.036-5.222.045-7.834l.032-2.456c.04-5.446.04-5.446-2.227-10.247-3.1-2.104-6.333-2.5-10-3v-4h30v4l-1.934.586-2.504.789-2.496.773c-2.244.66-2.244.66-3.066 2.852a182.127 182.127 0 0 0-.205 7.479l-.03 2.336c-.032 2.554-.057 5.108-.081 7.662l-.063 5.305c-.056 4.659-.105 9.318-.153 13.977-.05 4.752-.106 9.504-.161 14.257-.108 9.328-.21 18.656-.307 27.984-4.556-.73-5.982-1.625-8.75-5.375l-2.098-2.766L1267 602a631.52 631.52 0 0 0-4.188-5.125c-3.699-4.511-7.384-9.034-11.062-13.563l-1.662-2.046-6.795-8.369-3.383-4.165c-1.096-1.35-2.192-2.7-3.287-4.052a791.391 791.391 0 0 0-7.44-9.059l-2.495-2.996-2.176-2.586C1223 548 1223 548 1223 546h-2c.061 7.25.138 14.5.236 21.749.044 3.366.084 6.732.11 10.099.034 3.87.086 7.74.142 11.609l.02 3.665.06 3.397.033 2.994c.462 2.882 1.088 3.765 3.399 5.487 2.264.784 2.264.784 4.688 1.188l2.449.48L1234 607v4h-32v-4l3.313-.375c3.76-.38 3.76-.38 6.687-2.625 1.105-3.316 1.154-5.842 1.193-9.336l.049-3.964c.011-1.43.022-2.86.031-4.29l.017-2.183c.026-3.81.046-7.621.06-11.432.013-3.153.041-6.306.082-9.46.05-3.81.074-7.618.081-11.428.007-1.451.022-2.902.046-4.353.032-2.03.029-4.06.024-6.089l.025-3.499c-.361-3.147-.361-3.147-2.937-5.292-2.827-1.772-5.465-2.78-8.671-3.674v-4z" fill="#f5f6f8"/><path d="M1839 523c1.884.29 1.884.29 4 1a72.495 72.495 0 0 1 3.75 7.875l1.03 2.42A990.173 990.173 0 0 1 1851 542c.717 1.702 1.436 3.404 2.156 5.105 1.337 3.161 2.664 6.325 3.985 9.493 1.885 4.498 3.864 8.952 5.859 13.402l1.969 4.426 1 2.248c1.088 2.454 2.169 4.912 3.25 7.369l2.281 5.144 1.145 2.616c3.485 8.617 3.485 8.617 10.105 14.572l2.25.625v4h-42v-4l9-2c-.45-5.288-1.85-9.306-4.16-14.082C1847 589 1847 589 1847 587h-29c-3.345 8.246-3.345 8.246-4 17 3.265 1.884 6.281 2.493 10 3v4h-30v-4l3.125-.875c9.635-4.25 13.774-20.504 17.75-29.625.675-1.537 1.35-3.073 2.027-4.61a6043.85 6043.85 0 0 0 4.05-9.224c2.09-4.77 4.197-9.532 6.31-14.291l.96-2.169c3.462-7.788 6.966-15.582 10.778-23.206zM1613 525h45v4l-1.898.148-2.477.227c-.812.07-1.624.14-2.46.21-2.368.244-2.368.244-4.165 2.415-.321 2.613-.321 2.613-.29 5.7l-.04 3.622-.006 3.936-.02 4.037c-.012 2.826-.016 5.652-.015 8.478 0 3.605-.027 7.209-.061 10.813a992.478 992.478 0 0 0-.025 8.35c-.004 1.97-.025 3.939-.047 5.909.036 7.174.49 12.118 4.504 18.155 5.397 3.598 13.095 2.777 19.336 1.535 4.476-1.652 6.49-4.43 8.664-8.535 2.65-5.928 2.306-11.923 2.3-18.293l.014-3.585c.005-2.494.006-4.987.002-7.481-.003-3.825.02-7.65.045-11.475.003-2.424.003-4.848.002-7.271l.028-3.476-.019-3.217.002-2.832c-.443-2.809-1.139-3.67-3.374-5.37-2.033-.778-2.033-.778-4.188-1.187L1670 529v-4h31v4l-3.25.188c-3.71.513-3.71.513-5.957 2.575-2.824 5.098-2.296 10.113-2.227 15.842l-.029 7.608c.009 3.985.025 7.97.048 11.954.014 3.855-.001 7.709-.019 11.563l.05 3.575c-.05 8.38-1.617 15.148-7.265 21.57-8.103 7.899-19.479 9.501-30.278 9.58-8.333-.168-14.617-2.72-21.03-8.096-7.55-7.862-7.464-17.847-7.336-28.144l.013-3.93c.011-3.418.04-6.835.074-10.253.03-3.5.044-7 .06-10.499.032-6.844.083-13.689.146-20.533-3.636-1.979-6.884-2.525-11-3v-4zM945 525h73v26h-5l-.262-2.012c-.927-5.825-1.766-9.342-6.738-12.988-9.337-4.668-17.146-4.322-28-5v34c6.593-.942 10.13-1.724 15-6 2.388-4.237 3.414-8.192 4-13h4v44h-4l-.367-2.047-.508-2.703-.492-2.672c-1.078-4.393-1.986-6.125-5.758-8.765-3.73-2.24-7.62-2.375-11.875-2.813.069 4.503.157 9.005.262 13.507.034 1.532.062 3.063.084 4.595.034 2.202.086 4.403.142 6.605l.02 2.074c.088 2.875.173 4.782 1.896 7.143 1.976 1.332 3.418 1.57 5.783 1.764L990 607v4h-45v-4l1.934-.402 2.503-.535 2.497-.528c2.043-.343 2.043-.343 3.066-1.535.11-2.228.15-4.46.161-6.691l.015-2.119c.015-2.322.022-4.645.027-6.967l.017-4.824c.01-3.376.017-6.751.02-10.126.006-4.333.03-8.665.058-12.998.019-3.322.024-6.645.026-9.967.003-1.598.01-3.195.024-4.793.017-2.232.015-4.463.008-6.694l.011-3.854L955 532c-3.445-2.296-5.938-2.54-10-3v-4z" fill="#f7f8fa"/><path d="M799.813 522.563l2.135-.01c5.305.121 8.873 1.193 13.157 4.256 2.264 1.423 4.27 1.796 6.895 2.191l1-6h4c.729 10.024 1.141 19.944 1 30h-5l-.375-1.871c-2.096-8.605-6.391-14.493-13.938-19.192-5.51-1.4-11.34-2.38-16.726-.058-2.985 2.143-3.923 3.95-4.711 7.496 1.007 4.865 3.08 7.336 6.75 10.625 3.635 2.288 7.442 4.145 11.313 6 22.185 10.755 22.185 10.755 26.687 22 1 8.715 1.132 16.576-4.172 23.95-6.473 7.261-13.613 10.477-23.262 11.366-6.727.225-11.634-.298-17.601-3.41-3.115-1.436-5.624-1.44-8.965-.906-1.982 1.861-1.982 1.861-3 4l-4-1v-32l4-1 .7 1.871c4.07 10.574 7.748 18.853 18.3 24.129 9.493 1.118 9.493 1.118 18.39-1.352 2.567-2.827 3.496-5.015 4.173-8.773-.775-3.96-2.242-6.833-5.446-9.36l-2.242-1.265-2.66-1.523a357.755 357.755 0 0 0-7.336-3.829C775.972 567.224 775.972 567.224 772 555c-1.208-8.881.149-15.993 5.313-23.25 6.535-6.688 13.245-9.153 22.5-9.188z" fill="#f6f7f9"/><path d="M896 530c3.438 1.5 3.438 1.5 6 4l1.578 1.484c9.525 10.45 8.166 28.893 7.586 42.09-.707 10.45-4.375 19.52-11.726 27.051-6.432 2.572-13.444 2.572-19.875 0-10.31-10.561-10.95-22.887-10.989-37.04a318.268 318.268 0 0 0-.111-6.048c-.06-11.145 2.13-20.002 9.537-28.537 5.519-4.197 11.349-3.73 18-3z" fill="#26437d"/><path d="M1028 525h78v24l-4 1-.883-2.45c-3.185-8.846-3.185-8.846-10.117-14.55a108.667 108.667 0 0 0-6.719-.613l-3.56-.232L1078 532c.084 9.206.18 18.411.288 27.616.05 4.275.096 8.549.134 12.823.037 4.124.083 8.248.136 12.371.019 1.575.034 3.15.045 4.724.017 2.203.046 4.405.078 6.608l.04 3.802c.05 3.229.05 3.229 2.279 6.056 2.195.58 2.195.58 4.625.688l2.477.199L1090 607v4h-46v-4l1.898-.367 2.477-.508 2.46-.492c2.352-.5 2.352-.5 4.165-2.633.333-3.076.333-3.076.319-6.745l.03-2.099c.031-2.294.048-4.588.065-6.883.019-1.589.038-3.178.059-4.766.051-4.186.09-8.372.128-12.557.04-4.27.091-8.54.141-12.81.097-8.38.181-16.76.258-25.14-2.093.126-4.185.262-6.277.402l-3.531.227c-4.136.48-6.241 1.42-9.192 4.371-2.619 4.064-4.396 8.17-5 13h-4v-25z" fill="#f7f8fa"/><path d="M1892 525h46v4l-2.152.402-2.785.535-2.778.528c-2.238.312-2.238.312-3.285 1.535-.105 2.228-.139 4.46-.145 6.691l-.01 2.119c-.01 2.322-.012 4.645-.013 6.967l-.01 4.824c-.006 3.376-.008 6.751-.007 10.126 0 4.333-.014 8.665-.031 12.998-.011 3.322-.013 6.645-.013 9.967a1173.48 1173.48 0 0 1-.013 4.793c-.01 2.232-.007 4.463 0 6.694l-.005 3.854c-.065 3.086-.065 3.086 2.247 4.967 2.203.46 2.203.46 4.625.625l2.477.227L1938 607v4h-46v-4l1.898-.367 2.477-.508 2.46-.492c2.352-.5 2.352-.5 4.165-2.633.322-3.015.322-3.015.29-6.605l.02-2.055c.02-2.248.024-4.495.026-6.742l.02-4.678c.012-3.271.016-6.542.015-9.813 0-4.195.027-8.39.061-12.584.022-3.221.026-6.442.025-9.664.003-1.546.012-3.093.027-4.64.02-2.161.014-4.322.002-6.484l.008-3.73c-.214-3.066-.214-3.066-2.29-4.883-3.003-1.529-5.875-1.802-9.204-2.122v-4z" fill="#f8f9fa"/><path d="M1550 532c1.763-.032 3.526-.055 5.29-.074l2.974-.042c4.93.209 7.713 2.24 11.361 5.366 9.601 11.117 10.006 23.586 9.137 37.59-.792 9.271-2.429 18.93-9.383 25.75-3.945 2.764-7.724 3.563-12.441 3.597l-2.66.043C1552 604 1552 604 1550 602c-.24-2.898-.24-2.898-.227-6.653v-2.07c0-2.262.016-4.523.032-6.785l.008-4.7c.008-4.126.028-8.252.05-12.379.02-4.209.03-8.418.04-12.628.02-8.262.055-16.523.097-24.785z" fill="#27447e"/><path d="M6 500h2a145.17 145.17 0 0 1 4.625 6.875c6.132 9.394 12.945 17.77 20.563 26l1.801 1.95c2.55 2.716 4.978 5.15 7.937 7.433L45 544v3l5 2-2 1 1.026 2.263c1.52 3.367 3.028 6.74 4.536 10.112l1.616 3.563 1.513 3.398 1.413 3.142L59 575l-1 2-3-2v-2l-2.25-.75c-2.968-1.349-4.505-2.93-6.75-5.25l-3-1v-2l-1.688-.75C31.546 557.971 25.23 547.85 19 539l-1.395-1.965C15 533.27 15 533.27 15 531h-2c-3.026-10.291-5.736-20.322-7-31z" fill="#b7daf3"/><path d="M1419 531c15.566 0 15.566 0 20.637 4.43 4.177 4.812 4.653 8.893 4.582 15-.407 4.784-2.05 8.175-5.157 11.883-6.78 5.547-9.773 3.687-20.062 3.687v-35z" fill="#2e4982"/><path d="M1740 569c1.763.136 3.526.28 5.29.426l2.974.24c5.083.621 8.242 2.56 11.549 6.334 3.687 5.057 3.99 9.914 3.187 16-2.023 4.928-5.27 9.478-10 12-8.251 1.152-8.251 1.152-11.626-1.071-2.064-2.898-1.744-5.8-1.667-9.222l.013-2.14c.017-2.252.054-4.503.093-6.754.015-1.528.028-3.056.04-4.584.034-3.744.085-7.486.147-11.229z" fill="#2e4981"/><path d="M1741 532c11.444 0 11.444 0 16 4 4.14 4.348 3.54 8.914 3.422 14.633-.6 4.786-1.728 6.344-5.422 9.367-4 2-4 2-14 2v-30z" fill="#28457e"/><path d="M267 2c0 3 0 3-1.207 4.43l-1.606 1.445c-1.993 1.878-3.226 3.196-4.562 5.625-1.654 2.545-2.936 3.58-5.375 5.313-6.575 4.708-11.14 10.97-15.902 17.421-1.625 2.129-3.313 4.022-5.348 5.766h-2l-.785 1.785c-1.3 2.369-2.683 3.818-4.653 5.653-2.078 2.006-3.551 3.544-5 6.062-2.049 3.28-4.729 5.34-7.722 7.754-1.9 1.804-2.828 3.35-3.84 5.746h-2l-.688 1.625c-1.768 3.2-3.849 5.665-6.312 8.375h-2l-.293 1.82c-.857 2.642-1.83 3.395-4.02 5.055-3.33 2.693-5.373 5.5-7.687 9.125l-5 5-1 2c-1.128 2.257-2.624 3.706-4.43 5.441-2.013 1.999-3.917 4.08-5.82 6.184-.686.755-1.372 1.51-2.078 2.29-1.86 2.074-1.86 2.074-2.672 5.085a237.072 237.072 0 0 1-5 5c-5.307 6.103-10.145 12.443-14.59 19.2L144 147h-2l-.313 1.813c-.785 2.5-1.656 3.562-3.687 5.187h-2l-1 4h-2l-.773 2.2c-1.295 2.955-2.832 5.106-4.852 7.613l-1.914 2.394L124 172l-1-3h2l.7-2.102c1.57-3.498 3.734-6.302 6.112-9.273.904-1.146 1.806-2.293 2.708-3.441l1.303-1.657c1.464-1.9 2.828-3.858 4.177-5.84l2-2.687h2l.73-1.64c7.834-14.56 21.105-27.777 31.844-40.288C178.539 99.776 180.32 97.52 182 95h2l.652-1.586c1.888-3.382 4.373-6.127 6.91-9.039 3.584-3.933 3.584-3.933 6.438-8.375h2l1-3h2l.938-1.875L206 67h2l.656-1.621c1.827-3.234 4.303-5.766 6.844-8.442 2.711-2.875 5.298-5.635 7.5-8.937h2l1-3h2l.75-1.688c2.606-4.82 6.36-8.51 10.25-12.312 3.93-3.847 7.796-7.696 11.375-11.875C254.649 14.152 259.33 9.597 264 5c1.001-.999 2.002-1.998 3-3z" fill="#265696"/><path d="M1832 555c2.836 1.418 3.135 3.169 4.383 6.059.445 1.025.89 2.05 1.347 3.107.46 1.08.92 2.16 1.395 3.271l1.418 3.26C1844 578.725 1844 578.725 1844 581h-23c2.006-6.018 4.059-11.737 6.625-17.5l.945-2.164c2.294-5.2 2.294-5.2 3.43-6.336z" fill="#365086"/><path d="M395 121c5.802 5.645 5.802 5.645 8 9v2h2a142.407 142.407 0 0 1 5.125 6.688c1.085 1.474 2.17 2.948 3.258 4.421l1.766 2.4c2.565 3.452 5.186 6.858 7.806 10.266 7.171 9.335 14.116 18.793 20.824 28.465 1.669 2.406 3.352 4.801 5.034 7.197l1.625 2.329c1.058 1.513 2.12 3.023 3.187 4.53 8.5 12.044 16.503 24.393 24.377 36.851l1.701 2.689 1.647 2.612c2.127 3.29 4.383 6.485 6.672 9.664L489 252l-1 3-1.207-1.828-1.605-2.422-1.583-2.39c-1.56-2.363-1.56-2.363-3.304-4.47C479 242 479 242 479 239h-2c-.315-.592-.63-1.183-.953-1.793-1.943-3.588-3.795-6.894-6.36-10.082C468 225 468 225 468 222h-2l-2-6h-2c-4-6.75-4-6.75-4-9h-2v-3h-2c-1.152-1.642-2.221-3.341-3.25-5.063-2.192-3.57-4.375-6.83-7.187-9.937-2.563-3-2.563-3-2.563-6h-2c-1.152-1.642-2.221-3.341-3.25-5.063-2.528-4.103-5.107-7.781-8.39-11.304C426 165 426 165 424.616 162.683c-1.873-3.108-4.009-5.885-6.242-8.745a3756.041 3756.041 0 0 1-4.038-5.2c-2.08-2.703-4.113-5.44-6.15-8.175-5.58-7.736-5.58-7.736-12.187-14.563-2.124-.226-2.124-.226-3.625 1.5L391 129c0-3.908 1.506-5.116 4-8z" fill="#265695"/><path d="M532 560c1 2 1 2 .504 4.04-2.894 7.948-6.587 15.367-10.448 22.875a279.835 279.835 0 0 0-3.001 6.14c-4.307 8.99-9.278 17.197-14.971 25.375-1.363 1.975-2.66 3.99-3.959 6.008-2.988 4.473-6.178 8.8-9.375 13.125l-1.613 2.206-1.528 2.047-1.376 1.858L485 645h-2l-.805 1.766c-3.773 7.051-10.572 12.769-16.195 18.359l-2.04 2.05A198.052 198.052 0 0 1 451 679l-2-1c3.466-3.563 6.967-7.022 10.75-10.25 9.015-7.812 16.881-16.386 24.25-25.75.883-1.093 1.767-2.186 2.652-3.277 17.798-22.088 33.278-47.665 43.094-74.328C531 561 531 561 532 560z" fill="#4a97dd"/><path d="M73 639c4.68 3.722 8.734 7.778 12.75 12.188 8.847 9.694 17.96 18.627 28.25 26.812l2.574 2.172C129.956 691.453 144.966 701.074 160 710l-2 1c-2.088-.969-2.088-.969-4.656-2.5l-2.852-1.691L147.5 705l-2.898-1.715C131.027 695.173 131.027 695.173 126 691v-2l-2.137-.707c-3.42-1.545-5.825-3.54-8.675-5.98l-2.958-2.512c-.517-.45-1.035-.898-1.569-1.361-1.14-.989-2.287-1.97-3.44-2.946-5.552-4.756-10.739-9.859-15.894-15.037-1.453-1.458-2.911-2.91-4.37-4.363C82.094 651.236 77.265 646.399 73 641v-2z" fill="#57a0e1"/><path d="M532 560c1 2 1 2 .504 4.04-2.894 7.948-6.587 15.367-10.448 22.875a279.835 279.835 0 0 0-3.001 6.14c-3.385 7.066-7.035 13.783-11.367 20.32l-1.275 1.93c-1.968 2.889-3.47 4.733-6.413 6.695a115.465 115.465 0 0 1 4.285-7.95C514.322 596.93 524.17 579.694 531 561z" fill="#5ca4e2"/><path d="M448 679v3c-2.309 2.016-2.309 2.016-5.438 4.25-1.102.795-2.203 1.59-3.304 2.387l-1.667 1.196c-3.006 2.204-5.872 4.587-8.751 6.952C427 698 427 698 424 698v2c-1.481 1.097-1.481 1.097-3.543 2.277l-2.256 1.307-2.389 1.354-4.605 2.652-2.212 1.253c-1.652.958-3.262 1.988-4.858 3.036L402 713l-3-1 1.566-.911C417.164 701.39 432.726 690.654 448 679z" fill="#408fdb"/><path d="M45 545c3.083 1.199 6.063 2.477 9 4v2c3.588 1.866 7.278 3.425 11 5v2h3v2l9 2v2l3.438.375L84 565l1 2c-6.102-.469-10.499-1.824-15.875-4.688l-2.099-1.086C52.571 553.665 52.571 553.665 47 548l-2-1v-2z" fill="#a5bbd6"/><path d="M121 172l2 1c-1.249 1.813-2.5 3.626-3.75 5.438l-1.192 1.726a982.776 982.776 0 0 1-7.257 10.344l-1.628 2.291c-1.06 1.49-2.121 2.977-3.186 4.462l-1.483 2.087-1.318 1.844c-1.23 1.874-2.223 3.786-3.186 5.808h-2l-.75 2.313C95.89 212.236 94.684 213.3 92 215c4.663-9.729 11.355-18.427 17.658-27.14 2.335-3.236 4.65-6.486 6.967-9.735l2.54-3.555L121 172z" fill="#265696"/><path d="M115 681c4.536 1.51 7.999 4.066 11.75 6.938 10.664 7.996 21.944 15.019 33.25 22.062l-2 1c-2.088-.969-2.088-.969-4.656-2.5l-2.852-1.691L147.5 705l-2.898-1.715C131.027 695.173 131.027 695.173 126 691v-2l-2.125-.688c-3.59-1.639-5.953-3.662-8.875-6.312v-1z" fill="#4b97dd"/><path d="M311 492c14.302-.814 27.448-.74 39.574 7.816 3.328 3.027 3.328 3.027 4.426 5.184-.348 2.21-.348 2.21-1 4l-1.652-1.828c-5.063-5.365-9.407-8.727-16.348-11.172l-2.121-1.059c-4.338-1.418-8.654-1.412-13.192-1.566l-2.822-.117c-2.288-.094-4.576-.18-6.865-.258v-1z" fill="#86aacf"/><path d="M247 181c0 3.388-.602 4.255-2.438 7-1.605 2.415-2.634 4.217-3.562 7l-5 5-1.625 2.75C233 205 233 205 230 206v3c-3 2.188-3 2.188-6 4 1.635-3.704 3.942-6.638 6.438-9.813 5.681-7.279 11.13-14.72 16.562-22.187z" fill="#578cb7"/><path d="M285 0c3.458 1.482 5.757 2.95 8 6 .567 3.412.465 6.784.39 10.234-.005.994-.01 1.987-.017 3.01-.022 3.17-.072 6.337-.123 9.506-.02 2.15-.038 4.3-.055 6.45-.044 5.267-.11 10.533-.195 15.8h-1l-.028-3.792c-.04-4.645-.106-9.288-.18-13.933-.028-2.01-.049-4.02-.063-6.029-.021-2.89-.068-5.778-.12-8.668l-.003-2.721c-.035-5.073-.035-5.073-2.644-9.268L287 5V2h-2V0z" fill="#29538f"/><path d="M85 224l1 2-1.664 2.48c-2.612 3.918-5.16 7.876-7.711 11.833C72.797 246.24 68.949 252.151 65 258l-1-3c1.117-1.988 1.117-1.988 2.875-4.313 3.082-4.203 5.962-8.475 8.75-12.875C78.621 233.107 81.686 228.49 85 224z" fill="#265695"/><path d="M517 592l2 1a146.113 146.113 0 0 1-11.188 20.125l-1.296 1.973c-1.997 2.96-3.512 4.9-6.516 6.902a130.07 130.07 0 0 1 4.46-8.3l1.43-2.464 1.485-2.548a25999.46 25999.46 0 0 0 4.296-7.394c1.79-3.09 3.562-6.19 5.329-9.294z" fill="#549edf"/><path d="M500 367a85.132 85.132 0 0 1-13 13c-.327-3.167-.287-4.591 1.574-7.238l2.113-2.075 2.075-2.113c2.647-1.861 4.071-1.901 7.238-1.574z" fill="#c8d0de"/><path d="M310 264l2 1a1137.8 1137.8 0 0 1-4.188 4.75l-2.355 2.672c-2.353 2.469-4.69 4.587-7.457 6.578h-2c1.45-3.34 3.282-5.523 5.875-8.063l2.055-2.035c1.94-1.783 3.932-3.363 6.07-4.902z" fill="#33629c"/><path d="M333.063 257.813l2.103-.038c4.066-.011 7.178.422 10.834 2.225-3.143 1.01-4.854.798-8 0-2.76-.07-5.492-.094-8.25-.063l-2.258.014c-1.83.012-3.661.03-5.492.049v2l-10 2c1.542-3.085 3.896-3.653 7-5 4.684-1.002 9.29-1.183 14.063-1.188z" fill="#32629c"/><path d="M395 121c5.802 5.645 5.802 5.645 8 9v2h2l2 5a323.627 323.627 0 0 1-3.375-2.75l-1.898-1.547c-1.815-1.79-2.63-3.429-3.727-5.703-1.889-1.076-1.889-1.076-4-1-1.772 1.354-1.772 1.354-3 3 0-3.908 1.506-5.116 4-8z" fill="#265695"/><path d="M50 280c1 3 1 3 .38 4.81l-1.032 1.983-1.104 2.158-1.181 2.236-1.17 2.272A797.202 797.202 0 0 1 43 299h-2v3h-2c.635-2.97 1.603-5.397 3.031-8.074l1.207-2.272 1.262-2.341 1.262-2.377c3.092-5.79 3.092-5.79 4.238-6.936zM489 255c3.36 2.24 4.166 3.782 6 7.313 1.503 2.869 2.973 5.645 4.75 8.355L501 273l-1 3v-2h-2l-1-5h-2a955.742 955.742 0 0 1-2.438-4.75l-1.37-2.672c-1.027-2.22-1.707-4.192-2.192-6.578z" fill="#265594"/><path d="M507 391l2 1-14 14c0-4.903 3.702-7.613 7-11 1.625-1.383 3.274-2.745 5-4z" fill="#c0e7fb"/><path d="M222 213h2c-1.377 2.966-3.044 5.391-5 8l-.938 2.063c-1.295 2.362-2.842 3.457-5.062 4.937l-2-1a1484.58 1484.58 0 0 1 5.375-7l1.54-2.023 1.483-1.915 1.365-1.777L222 213z" fill="#5a90ba"/><path d="M6 500h2a125.024 125.024 0 0 1 4 6l-1 2-2-1 1 5-2 1-2-13z" fill="#a5c2dd"/><path d="M536 353c2.313 2.313 2.496 3.479 3.125 6.625l.508 2.477L540 364c-6.625-.75-6.625-.75-10-3l7 1-1-9z" fill="#335993"/><path d="M434 343c0 3 0 3-2.063 5.625-3.417 2.763-5.611 3.12-9.937 3.375 1.497-2.994 4.029-3.552 6.992-4.902 2.068-1.13 3.433-2.36 5.008-4.098z" fill="#366aa3"/><path d="M501 276c3.287 2.191 4.035 3.53 5.75 7l1.36 2.688L509 288l-1 2c-7-9.511-7-9.511-7-14z" fill="#275696"/><path d="M63 258l1 3c-1.652 2.918-1.652 2.918-3.938 6.188l-1.17 1.693c-.954 1.38-1.922 2.75-2.892 4.119l-1-3c.89-1.648.89-1.648 2.25-3.375A79.513 79.513 0 0 0 63 258z" fill="#265696"/><path d="M234 201v3l-4 2v3c-3 2.188-3 2.188-6 4 1.561-3.832 4.029-6.174 7-9l1.813-1.813z" fill="#68a3c8"/><path d="M205 235l1 4-6 5c0-4.39 2.128-5.77 5-9z" fill="#5f97c0"/><path d="M276 124c1.108 3.325.845 5.622 0 9h-2v3h-2c.543-4.565 1.795-7.973 4-12z" fill="#5c93bc"/><path d="M362 569c1.316.953 2.628 1.913 3.938 2.875l2.214 1.617C370 575 370 575 371 577c-2.813-.188-2.813-.188-6-1-1.852-2.408-3-3.927-3-7z" fill="#588ec6"/><path d="M187 392l11 7c-4 1-4 1-7.188-.688C188 396 188 396 187 392z" fill="#2d5f9c"/><path d="M216 538l2 1a180.625 180.625 0 0 1-3.25 3.063l-1.828 1.722C211 545 211 545 208.766 544.684L207 544l2.25-1.313A73.35 73.35 0 0 0 216 538z" fill="#658fbd"/><path d="M198 400c2.846.66 5.523 1.517 8.25 2.563l2.14.816L210 404v1h-5v-2l-7-1v-2z" fill="#3366a2"/><path d="M322 259v3l-10 2c1.894-3.787 5.97-5 10-5z" fill="#4075ab"/><path d="M395 121l2 2-1 3h-2c-1.625 1.458-1.625 1.458-3 3 0-3.908 1.506-5.116 4-8z" fill="#3368a4"/><path d="M881 531l2 1-8 8c0-3 0-3 2.438-5.625L880 532z" fill="#4d6392"/><path d="M265 385c.688 1.813.688 1.813 1 4-1.313 1.75-1.313 1.75-3 3h-2v2l-2-1 1-2h2l.938-2.438C264 386 264 386 265 385z" fill="#3467a1"/><path d="M405 216c2.375 1.063 2.375 1.063 5 3 1.313 3.688 1.313 3.688 2 7-3.394-3.126-5.606-5.565-7-10z" fill="#4b7cac"/><path d="M285 92h1c-.114 1.626-.242 3.25-.375 4.875l-.21 2.742C285 102 285 102 283 104c-.178-4.548.002-7.88 2-12z" fill="#497cad"/><path d="M262 156c1.125 3.75 1.125 3.75 0 6h-2v3l-3 1c1.335-3.594 2.96-6.755 5-10z" fill="#5f97bf"/><path d="M387 348l8 4c-4 1-4 1-6.25.063L387 351v-3z" fill="#32639e"/><path d="M253 172c0 3.694-1.282 5.778-3 9h-2c1.25-3.46 2.675-6.147 5-9z" fill="#558ab6"/></svg>