<svg clip-rule="evenodd" fill-rule="evenodd" height="661" image-rendering="optimizeQuality" shape-rendering="geometricPrecision" text-rendering="geometricPrecision" viewBox="0 0 3604 953" width="2500" xmlns="http://www.w3.org/2000/svg"><g fill="#215da4"><path d="m1901 285c26 0 50 0 75 1 3 0 7 7 8 11 8 45 15 90 22 136 6 39 13 78 19 116 1 6 4 10 6 15h4c1-7 2-13 2-20 0-57 0-115 1-172 0-39 26-70 64-80 64-17 119 23 119 90 1 54 0 108 0 163 0 6 1 12 1 19 2 0 3 0 5 1 2-6 5-11 5-17 14-82 27-164 40-247 2-12 6-17 19-16 21 1 43 0 67 0-4 19-7 36-10 53-14 82-28 165-42 247-4 21-12 41-26 58-22 25-50 35-83 28s-54-32-56-73c-3-33-2-66-2-100-1-33 0-66 0-100 0-7-1-15-10-15-10 0-10 8-10 16v168c-1 15-2 30-5 44-6 31-23 53-54 60-33 7-61-2-83-28-14-17-22-37-26-58-17-96-33-192-50-288zm1391-1v80h-14c-40 1-79 0-118 1-8 0-16 0-22 3-5 1-11 7-12 12 0 3 6 9 11 11 7 2 14 2 22 2 23 3 46 3 69 9 38 9 57 39 56 81-1 40-21 67-60 75-21 4-43 4-64 6-7 1-15 1-22 3-5 2-11 8-12 12 0 4 7 11 12 12 10 3 21 5 32 5 36 0 72-1 108-2 11-1 15 2 15 14-1 21-1 42-1 64-4 0-8 1-11 1-48 0-96 0-143-1-9 0-17-1-25-2-67-11-100-88-62-144 19-28 48-33 78-35 19-2 38-2 56-3 6-1 12-4 18-6v-6c-11-2-22-5-33-6-24-2-47-2-70-6-37-7-56-28-61-66-1-16-1-33 2-49 7-35 31-58 71-60 59-4 119-4 180-5zm-718 230c-16-36-30-71-46-108-3 7-5 11-6 14-35 80-69 160-103 240-4 10-9 13-20 13-22-1-43 0-65 0-4 0-9-1-15-1 2-6 4-11 6-16 46-104 92-209 138-313 6-12 12-25 21-36 24-29 63-29 87-1 8 11 15 23 21 35 48 107 95 214 143 321 1 2 2 5 3 10-6 0-11 1-16 1h-69c-9 0-13-3-16-11-7-18-16-36-23-54-3-9-8-12-17-12-22 1-44 1-66 0-24 0-38-15-38-40 0-26 14-41 38-41 13-1 27-1 43-1zm763 159v-78h39c31 0 63 1 94 0 28 0 42-13 42-38 0-21-10-35-32-38-19-2-39-2-59-5-49-9-80-43-84-91-6-79 31-127 110-135 48-5 97-2 145-3 3 0 7 1 11 1v80h-125c-6 0-12 0-17 1-20 2-34 18-34 36 0 19 14 33 34 35 21 3 43 3 64 9 52 16 79 52 79 105v2c-1 57-30 97-84 112-9 3-18 5-27 6-10 1-20 1-30 1zm-682-388c22 0 43 0 63 1 30 0 23-5 32 23 25 76 50 152 74 229 1 3 2 6 3 8 4 6 7 11 11 16 4-5 9-10 11-15 18-54 36-107 54-161 10-30 19-60 30-90 1-4 8-10 12-10 22-1 45-1 67 0 2 0 4 1 7 1-1 5-2 10-3 14-31 99-62 197-94 295-5 15-12 30-21 43-30 43-87 46-121 7-10-11-19-25-23-39-34-103-67-206-100-310-1-3-1-6-2-12zm-1403 5c18 10 34 19 49 29 41 29 80 27 121-1 20-14 41-27 62-40 33-19 67-19 101 1 17 10 33 21 50 31l36 21c26 13 52 13 77-1 22-13 45-26 69-40v88c0 2-3 6-5 7-22 14-45 28-68 39-27 14-54 9-79-5-21-11-40-24-60-36-21-13-41-26-67-27-23-1-42 7-61 18-20 13-40 27-61 39-22 13-47 27-73 17-31-13-59-31-88-46-2-1-3-4-3-5z"/><path d="m1252 419c17 11 32 20 47 28 7 4 14 8 22 12 26 15 52 15 79 0 17-9 33-20 50-30 12-8 24-15 36-22 32-18 64-19 95 0 22 12 43 26 65 40 8 4 16 9 24 13 27 13 53 14 79-1 18-10 36-21 54-31 4-2 8-5 14-8 0 24-1 46 1 68 1 17-4 29-20 36-15 7-28 17-42 25-29 17-59 17-88 2-18-10-35-21-53-32-13-8-26-16-40-23-27-15-55-15-83 0-19 10-36 22-55 34l-24 15c-36 22-72 22-108-1l-45-27c-3-2-8-6-8-9-1-29 0-57 0-89z"/><path d="m1817 550v85c0 4-3 8-6 10-18 12-36 22-54 33-31 18-62 18-93 1-19-11-37-23-56-35-2-1-4-2-6-4-45-32-90-33-135 0-20 14-41 26-62 38-30 18-61 18-92 0-18-10-36-21-54-32-3-2-7-6-7-9-1-28 0-57 0-87 5 3 8 4 12 6 17 10 35 20 52 31 30 18 60 17 89-1 16-9 31-19 47-29 13-8 26-16 40-23 28-15 56-15 84 0 20 11 38 23 58 34 16 10 32 19 49 27 18 8 37 8 55-1 22-12 44-25 66-37 3-2 7-4 13-7z"/><path d="m2467 939c-155 9-317 14-483 14-1096 0-1984-213-1984-476s884-476 1976-477c-700 84-1194 269-1194 476 0 253 737 450 1685 463z"/></g><path d="m712 410-155 85 74 147-122-128-122 128 73-147-154-85 176 36 27-177 26 177z" fill="#fefefe"/></svg>