<svg clip-rule="evenodd" fill-rule="evenodd" stroke-linejoin="round" stroke-miterlimit="2" viewBox="19.126000000000005 20.852999999999952 2468.124 877.735" xmlns="http://www.w3.org/2000/svg" width="2500" height="875"><path d="M2487.25 436.088l-350 462.5H95.68l-76.554-33.333V436.123l93.13-.144 86.507 79.276 103.935-78.308 83.023 78.308 103.973-78.289 59.653 78.289 455.042-79.802 34.267 149.929 97.151-564.529 43.366 410.355 1308.07 4.88z" fill="#ea5b0c"/><path d="M473.032 847.452H39.964V452.755h55.012v326.98h123.37v-326.98h67.97v326.98h119.203v-326.98h67.513z" fill="#fff" fill-rule="nonzero"/><path d="M22.091 865.324V434.882h90.757v326.98h87.625v-326.98h103.715v326.98h83.459v-326.98h103.257v430.442zm450.941-17.872V452.755h-67.513v326.98H286.316v-326.98h-67.97v326.98H94.976v-326.98H39.964v394.697z" fill="#ea5b0c"/><path d="M984.357 847.452H549.351V452.755h435.006V673.19H614.08v106.545h370.277zm-56.395-234.973v-96.884H614.08v96.884z" fill="#fff" fill-rule="nonzero"/><path d="M531.479 865.324V434.882h470.75v256.181H631.953v70.799h370.276v103.462zm452.878-17.872v-67.717H614.08V673.19h370.277V452.755H549.351v394.697zm-56.395-234.973H614.08v-96.884h313.882zm-17.873-17.872v-61.139H631.953v61.139z" fill="#ea5b0c"/><path d="M1996.86 847.452h-435.006V452.755h435.006V673.19h-370.277v106.545h370.277zm-56.395-234.973v-96.884h-313.882v96.884z" fill="#fff" fill-rule="nonzero"/><path d="M1543.98 865.324V434.882h470.75v256.181h-370.276v70.799h370.276v103.462zm452.878-17.872v-67.717h-370.277V673.19h370.277V452.755h-435.006v394.697zm-56.395-234.973h-313.882v-96.884h313.882zm-17.873-17.872v-61.139h-278.136v61.139z" fill="#ea5b0c"/><path d="M1495.68 847.452h-443.339V39.964h68.895v412.791h374.444zm-64.729-69.697v-262.5h-309.715v262.5z" fill="#fff" fill-rule="nonzero"/><path d="M1034.47 865.324V22.091h104.64v412.791h374.443v430.442zm461.211-17.872V452.755h-374.444V39.964h-68.895v807.488zm-64.729-69.697h-309.715v-262.5h309.715zm-17.872-17.873V533.127h-273.97v226.755z" fill="#ea5b0c"/><path d="M2405.83 515.255h-274.443v332.197h-64.729V452.755h385.006z" fill="#fff" fill-rule="nonzero"/><path d="M2405.83 533.127h-256.571v332.197h-100.473V434.882h402.878l14.412 28.442-51.189 69.803zm0-17.872l45.834-62.5h-385.006v394.697h64.729V515.255z" fill="#ea5b0c"/></svg>