<svg height="2500" viewBox="0 0 2000 2000" width="2500" xmlns="http://www.w3.org/2000/svg"><path d="m0 0h2000v2000h-2000z" fill="#fefefe"/><path d="m329 927h7l2 3 11 52 9 41 3 12 2-3 19-74 6-23 2-7 9-1h16l3 9 10 38 15 58 2 3 6-25 13-60 5-22h28l-1 11-10 43-11 48-7 31-4 18-2 1h-31l-3-4-11-41-14-52v-2h-2l-17 68-8 30-1 1h-32l-2-2-14-61-19-83-1-6zm958 39h16l9 2 10 5 6 5 7 10 4 9 3 15v23l-4 17-6 12-5 6-10 7-11 4-7 1-17-1-12-6-8-7-1 9v50l-1 1h-29v-160l4-1h25l1 1-1 15 5-3 5-5 8-6zm319-47 3 3-1 62 8-7 7-6 8-4 4-1h16l12 3 9 6 7 10 3 9v86h-28l-1-75-3-8-6-5-3-1h-13l-10 5-6 8-2 4-1 17-1 55h-29v-160zm-1047 47h18l13 3 11 6 7 6 6 10 3 10 1 7v19l-1 3h-76l5 15 7 8 7 3 12 1 13-3 10-9 4-2 11 7 4 2 2 3-1 5-7 8-8 7-11 5-11 2h-15l-12-2-13-5-12-9-7-10-5-13-2-14v-11l3-16 5-12 8-10 13-9 12-4zm327 0h16l16 4 8 4 8 7 7 14 3 15v16l-1 3-2 1-72 1 1 9 4 8 7 6 10 3h10l11-4 11-10 4 1 11 7 4 3-1 6-7 9-10 7-13 5-8 1h-12l-13-2-13-4-8-6-5-5-6-7-5-12-2-8-1-9v-10l2-13 4-12 7-11 9-8 12-6zm515 0h23l13 4 8 6 6 7 4 10 1 59 1 4h11l2 13v7l-1 2-9 2h-11l-9-3-6-5-4-7-7 6-5 5-10 5-4 1h-13l-8-2-9-4-9-9-3-7-1-5v-14l3-8 6-8 9-5 15-5 23-5 7-3 2-2v-9l-5-5-4-1h-14l-12 4-11 8-5 1-9-12-2-3 1-5 10-7 12-6 9-3zm-637 0h18l13 4 6 4 6 8 4 8 1 4 1 16v69l-1 1h-28l-1-1v-56l-1-22-3-6-8-4h-13l-9 4-6 7-4 11-1 66-1 1h-27l-1-9v-103h28l1 17 9-10 11-7zm232 0h20l12 3 14 7 5 5v2h-2l-2 4-9 11-6-1-8-5-7-2h-15l-7 3-2 3v5l5 5 10 4 22 5 16 8 6 8 3 12-1 13-4 9-9 9-10 5-14 3h-11l-15-2-12-4-13-8-3-3-1-6 7-8 7-7 5 1 9 8 9 4 4 1h13l8-5 2-3v-6l-5-4-11-4-23-7-12-7-7-9-2-6v-15l3-8 8-9 14-7zm105 0h21l15 4 11 6 4 4-1 5-12 13-5-1-7-5-7-2h-17l-6 3-2 4 1 5 2 4 12 4 25 6 10 5 5 5 5 8 2 8v9l-3 10-4 6-7 7-13 6-11 2h-13l-14-2-13-5-11-7-4-6 1-4 12-13 4-1 11 9 10 4 12 1 9-2 4-4 1-7-3-5-15-5-15-4-12-5-8-6-5-8-2-6v-13l4-10 7-8 8-5 9-3zm418-25h3l1 26h32v23l-2 1h-30v52l3 9 4 3h12l9-3 3 3 5 17-4 5-14 5h-17l-10-3-10-6-6-8-4-11v-63h-17l-1-1v-22l17-1 1-21 9-2zm-877-21h29l1 4v121l1 10 3 1 11 1 1 1 1 11v9l-4 4h-17l-10-3-9-7-4-7-2-8z" fill="#020202"/><path d="m1281 990h11l8 3 6 5 5 10 2 11v9l-2 12-4 8-4 5-9 4-13 1-10-4-7-8-3-8-1-9v-11l2-11 5-9 8-6zm143 35 4 1v13l-2 9-7 9-7 3h-13l-7-4-3-8 1-9 4-5 11-4 16-4zm-533-37h7l9 3 5 5 3 4 2 11-2 1h-46l-1-3 4-9 7-8 6-3zm-332 1h18l6 3 5 6 3 8v5l-7 1h-41l-1-4 6-11 8-7z" fill="#fefefe"/></svg>