<svg height="2500" viewBox="96 96 3000 3000" width="2500" xmlns="http://www.w3.org/2000/svg"><g fill="#fff"><path d="m1596 96a1500 1500 0 1 0 1500 1500 1500 1500 0 0 0 -1500-1500zm0 2814.6a1320 1320 0 1 1 1320-1320 1320 1320 0 0 1 -1320 1319.4z" xmlns="http://www.w3.org/2000/svg"/><path d="m1596 315a1278 1278 0 1 0 1278 1278 1279.8 1279.8 0 0 0 -1278-1278z" xmlns="http://www.w3.org/2000/svg"/></g><g xmlns="http://www.w3.org/2000/svg"><path d="m1669.033 1254.345c-7.88.79-12.662 9.07-9.436 16.299 12.537 29.65 17.411 65.575 10.582 99.031-6.684-2.415-17.378-6.579-23.623-9.815-14.237-8.814-26.064 14.075-10.637 20.588 12.537 6.491 25.934 11.564 39.974 15.097 6.15 1.555 12.411-2.108 14.069-8.23 11.605-43.407 7.317-87.341-8.921-125.757a11.62 11.62 0 0 0 -12.01-7.203z"/><path d="m1628.2 1076.605c-9.877.913-14.145 12.982-7.036 19.9 40.76 40.578 60.478 101.237 49.5 157.82-2.724-1.002-8.855-3.338-11.499-4.463-3.584-1.52-6.992-3.048-10.465-4.805-13.841-6.983-24.307 13.777-10.466 20.759 3.91 1.968 7.924 3.76 12.01 5.49 8.16 3.46 16.597 6.535 25.391 8.922 6.202 1.66 12.675-1.66 14.33-7.87 19.389-68.952-2.635-142.854-52.326-192.324a11.635 11.635 0 0 0 -9.437-3.435z"/><path d="m1733.581 1079.745-16.374 16.622c18.583 18.21 34.668 42.593 42.908 67.897-27.105 5.341-54.642 3.488-78.327-3.118l-6.184 22.441c32.375 8.785 67.58 9.762 102.264.615 6.13-1.642 9.805-7.914 8.248-14.073-8.943-35.08-27.71-66-52.53-90.378zm101.064 312.375-14.192 18.316c35.38 27.54 79.847 44.11 128.224 44.04 6.342-.056 11.469-5.182 11.524-11.523.79-47.609-15.625-92.555-43.677-128.59l-18.316 14.194c21.192 27.217 35.876 61.41 38.72 102.398-39.369-2.53-75.639-18.091-102.283-38.836z"/><path d="m1674.032 1372.702c38.969 43.342 95.33 70.09 155.885 69.032 6.342-.056 11.468-5.182 11.523-11.523.069-48.39-16.596-92.961-44.163-128.347l-18.192 14.316c20.302 26.065 36.321 62.514 38.718 102.097-43.838-.879-95.673-25.036-126.544-61.098z"/><path d="m1689.189 1248.605-16.002 16.748c37.436 35.635 88.16 57.709 143.995 57.629 6.343.018 11.529-5.06 11.648-11.4.958-54.786-21.032-106.193-57.263-144.36l-16.873 15.88c27.464 28.93 47.515 69.039 50.765 116.254-47.154-2.626-87.964-23.807-116.27-50.75zm-151.143-216.924c77.039-77.039 202.21-77.028 279.252.013 4.533 4.498 4.586 11.815.088 16.376-77.862 79.614-205.914 75.97-279.495-.013-4.462-4.567-4.41-11.878.088-16.376zm25.188 8.433c56.248 49.366 149.863 65.508 229.02-.088-74.34-63.57-172.376-50.374-229.02.088z"/><path d="m1878.795 1167.94c43.341 38.968 70.09 95.329 69.031 155.884-.056 6.342-5.183 11.47-11.523 11.523-48.391.07-92.96-16.596-128.347-44.162l14.317-18.192c26.066 20.301 62.513 36.32 102.095 38.718-.878-43.839-25.034-95.673-61.097-126.543z"/><path d="m1797.338 1044.132c50.383 24.175 89.964 69.494 104.089 125.68 1.563 6.158-2.117 12.424-8.248 14.073-43.404 11.607-87.382 7.379-125.798-8.861l9.098-21.471c31.435 13.783 71.879 17.031 99.155 10.42-14.174-42.542-47.995-79.44-88.36-98.856zm-383.935-69.95a11.622 11.622 0 0 0 1.027 23.16c44.629 0 89.27 17.042 123.355 51.126a11.646 11.646 0 1 0 16.47-16.47c-38.525-38.526-89.285-57.817-139.825-57.816a11.622 11.622 0 0 0 -1.027 0z"/><path d="m1370.512 912.075a11.622 11.622 0 0 0 -6.86 19.902c31.557 31.556 51.126 74.98 51.126 123.182a11.622 11.622 0 1 0 23.161 0c0-54.483-22.08-103.916-57.817-139.652a11.622 11.622 0 0 0 -9.607-3.435zm160.213 304.011-23.331.176c.263 26.016-5.604 54.631-17.67 78.35-22.941-15.39-41.106-36.17-53.179-57.592l-20.243 11.495c16.683 29.1 40.883 54.688 71.879 72.743 5.498 3.171 12.53 1.336 15.783-4.12 18.48-31.128 27.074-66.262 26.761-101.05z"/><path d="m1439.633 1148.319c.088 56.337-27.12 112.494-76.753 146.654-12.216-24.306-17.905-53.498-17.77-78.201h-23.16c-.175 34.001 8.17 68.587 26.248 100.194 3.197 5.516 10.237 7.43 15.782 4.286 62.46-35.047 99.142-102.816 98.983-172.936z"/><path d="m1251.616 1235.987c-18.532 52.72-14.474 112.754 15.268 162.471 3.25 5.455 10.28 7.29 15.782 4.12 38.898-22.485 67.01-56.569 82.687-95.219l-21.616-8.749c-12.482 31.974-38.782 62.87-62.744 77.482-20.06-40.105-22.236-90.11-7.422-132.382zm129.691 272.443-22.987 2.917c5.542 44.492 25.27 87.651 59.527 121.81 4.523 4.445 11.774 4.445 16.297 0 34.253-33.075 54.397-76.495 60.041-121.81l-22.988-2.916c-4.26 34.231-18.054 68.792-45.026 99.786-26.046-29.63-40.693-66.277-44.864-99.786z"/><path d="m1281.466 1381.13c-3.092 58.203 17.847 116.97 61.414 159.04 4.524 4.445 11.775 4.445 16.297 0 34.266-34.168 53.997-77.468 59.527-121.982l-22.987-2.74c-4.076 32.786-18.521 69.886-44.816 99.57-30.385-31.611-49.947-85.354-46.277-132.682z"/><path d="m1379.934 1304.099-23.159.527c1.274 51.668 21.533 103.144 61.072 142.57 4.47 4.497 11.726 4.576 16.297.175 39.415-38.062 60.217-89.962 61.586-142.569l-23.16-.702c-1.036 39.876-15.22 82.416-46.307 118.1-31.486-35.2-45.367-79.034-46.33-118.1zm46.514-260.263c108.95 0 197.452 88.517 197.452 197.47.024 6.386-5.113 11.597-11.493 11.666-111.353 1.238-199.323-91.884-197.624-197.642.07-6.386 5.279-11.519 11.665-11.494zm11.85 23.77c4.867 74.68 59.649 152.29 162.016 161.869-7.616-97.519-86.269-157.508-162.015-161.869z"/><path d="m1426.253 1043.836c-108.95 0-197.453 88.517-197.453 197.47-.024 6.386 5.113 11.597 11.494 11.666 111.351 1.238 199.322-91.884 197.623-197.642-.07-6.386-5.279-11.519-11.664-11.494zm-11.852 23.77c-4.866 74.68-59.648 152.29-162.014 161.869 7.616-97.519 86.269-157.508 162.014-161.869zm156.643 313.524c3.092 58.203-17.846 116.97-61.415 159.04-4.523 4.445-11.775 4.445-16.296 0-34.266-34.168-53.998-77.468-59.528-121.982l22.988-2.74c4.076 32.786 18.522 69.886 44.815 99.57 30.386-31.611 49.949-85.354 46.277-132.682z"/><path d="m1600.992 1235.987c18.53 52.72 14.473 112.754-15.269 162.471-3.25 5.455-10.28 7.29-15.782 4.12-38.899-22.485-67.01-56.569-82.687-95.219l21.616-8.749c12.482 31.974 38.782 62.87 62.744 77.482 20.06-40.105 22.235-90.11 7.423-132.382z"/></g><path d="m802.17 1956.227c45.623 4.253 78.873 25.131 78.873 66.887 0 48.329-39.05 76.94-106.323 76.94h-141.12v-3.094l28.997-20.105v-224.244l-28.997-20.105v-3.093h135.32c60.314 0 96.657 23.97 96.657 63.407 0 35.57-25.13 57.994-63.407 63.407zm-86.218-117.922v115.989h38.276c36.343 0 56.061-20.491 56.061-59.54 0-36.344-22.81-56.449-58.38-56.449zm38.663 252.856c45.622 0 68.82-23.585 68.82-65.727 0-42.916-26.678-62.248-68.047-62.248h-39.436v127.975zm151.172 8.892v-3.093l28.997-20.105v-224.244l-28.997-20.105v-3.093h222.312v72.3h-3.093l-48.33-63.408h-88.536v117.922h54.515l33.25-35.956h3.093v81.192h-3.093l-33.25-36.343h-54.515v126.04h94.337l49.876-69.593h3.093v78.486zm258.268 0v-3.093l28.997-20.105v-224.244l-28.997-20.105v-3.093h222.312v72.3h-3.093l-48.329-63.408h-88.538v117.922h54.515l33.25-35.956h3.093v81.192h-3.093l-33.25-36.343h-54.515v126.04h94.338l49.875-69.593h3.093v78.486zm258.268 0v-3.093l28.998-20.105v-224.244l-28.998-20.105v-3.093h131.068c63.793 0 101.683 24.744 101.683 70.366 0 40.21-32.09 68.434-83.512 73.46l31.704 7.346 57.607 95.884 26.678 20.491v3.093h-72.686l-70.754-123.721h-39.436v100.523l28.997 20.105v3.093zm82.352-132.614h35.57c36.343 0 58.768-23.584 58.768-65.34 0-40.983-25.904-63.794-60.701-63.794h-33.637zm291.905 119.855 16.239-78.872 3.48.773 40.595 80.42c14.306 5.025 26.678 6.959 38.663 6.959 42.916 0 68.434-23.198 68.434-55.288 0-25.905-14.306-39.823-44.85-50.262l-53.354-18.172c-44.462-15.078-63.794-42.142-63.794-75.006 0-48.715 43.69-73.846 97.43-73.846 31.318 0 62.248 6.186 97.045 16.238l-15.852 72.3h-3.093l-37.503-73.46c-13.532-4.639-24.358-6.186-37.503-6.186-35.57 0-60.314 18.559-60.314 45.623 0 21.264 11.212 34.41 41.369 44.849l52.581 18.171c47.556 16.239 72.3 39.436 72.3 76.166 0 56.835-49.875 87.765-109.03 87.765-26.677 0-60.314-5.8-102.843-18.172zm370.004-257.881c64.18 0 104.777 30.157 104.777 81.192 0 54.128-41.37 87.765-105.55 87.765h-49.102v78.485l38.663 20.105v3.093h-121.015v-3.093l28.997-20.105v-224.244l-28.997-20.105v-3.093zm-15.851 160.064c39.049 0 64.18-26.29 64.18-77.326 0-47.168-28.224-73.846-64.567-73.846h-33.637v151.172zm378.896 83.899 23.971 23.584v3.093h-106.71v-3.093l27.838-20.105-29.77-77.712h-104.004l-20.878 53.355 38.276 44.462v3.093h-83.898v-3.093l36.343-45.622 77.712-198.34-25.904-20.492v-3.093h72.3zm-185.195-83.125h97.044l-47.942-125.655zm-1178.264 290.71-21.175-35.817h-4.9v35.817h-16.895v-81.376h29.51c18.416 0 26.188 10.87 26.188 24.33 0 10.924-6.195 18.02-17.234 20.386l24.498 36.662h-19.992zm-26.074-67.357v19.43h9.968c9.01 0 12.671-3.83 12.671-9.687 0-5.801-3.66-9.743-12.671-9.743zm111.199.848h-30.186v18.472h26.75v14.698h-26.75v18.416h30.186v14.924h-47.194v-81.376h47.194v14.868zm39.843 51.585h25.512v14.924h-42.407v-81.376h16.895zm98.417 14.924-5.914-16.783h-34.184l-5.913 16.783h-17.29l29.961-81.376h20.669l29.96 81.376zm-35.145-30.918h24.273l-12.108-34.522zm61.301 30.918 31.707-42.463-30.806-38.915h20.556l20.274 26.694 20.274-26.694h20.556l-30.805 38.915 31.706 42.463h-21.513l-20.219-28.778-20.218 28.778h-21.513zm209.724 0h-18.585l-5.35-6.702c-7.378 4.9-16.163 7.828-25.793 7.828-16.389 0-28.666-8.503-28.666-23.934 0-11.77 7.209-17.515 20.95-26.075l-.676-.845c-5.463-6.927-7.32-11.658-7.32-16.22 0-5.406 2.365-9.517 6.307-12.333 3.83-2.816 9.236-4.28 15.431-4.28 13.685 0 22.19 6.927 22.19 16.895 0 7.096-4.394 12.84-15.657 19.598l14.699 18.19c4.167-6.363 6.42-13.74 6.42-20.104h14.643c0 11.545-4.393 22.808-11.77 31.65zm-48.319-70.286c-1.239 1.07-1.858 2.703-1.858 4.561 0 2.704 1.295 4.956 4.28 8.786l1.295 1.633c5.913-3.548 8.73-7.152 8.73-10.644 0-3.773-3.21-6.082-7.322-6.082-2.196 0-3.886.619-5.125 1.745zm-.732 58.122c6.308 0 11.939-2.028 16.613-5.238l-17.12-21.513c-8.223 5.012-13.854 8.504-13.854 15.712 0 7.265 5.801 11.039 14.36 11.039zm153.353-54.345h-30.186v18.472h26.75v14.698h-26.75v18.416h30.186v14.924h-47.194v-81.376h47.194v14.868zm78.533-14.867h16.839v81.376h-19.542l-36.043-58.176v58.176h-16.839v-81.376h19.317l36.268 57.836zm55.838 82.503c-6.308 0-13.967-1.69-21.514-5.632l7.152-13.91c3.999 2.815 7.885 4.336 12.334 4.336 6.645 0 10.025-3.999 10.025-13.516v-53.783h16.895v56.936c0 16.67-10.137 25.568-24.892 25.568zm86.25 0c-23.935 0-41.619-16.332-41.619-41.844 0-25.568 17.684-41.788 41.619-41.788 23.878 0 41.561 16.22 41.561 41.788 0 25.511-17.683 41.844-41.561 41.844zm0-15.487c14.022 0 24.78-9.856 24.78-26.357 0-16.445-10.757-26.244-24.78-26.244s-24.78 9.8-24.78 26.244c0 16.5 10.756 26.357 24.78 26.357zm123.7-67.016-26.752 42.407v38.97h-16.951v-38.577l-26.92-42.8h18.697l16.614 27.707 16.67-27.708h18.64z"/></svg>