<svg height="2500" viewBox="121.918 70.489 250 284.51766667" width="2150" xmlns="http://www.w3.org/2000/svg"><path d="m121.918 70.489h250v237h-250zm18 9c3.422 2.566 6.824 4.657 10.559 6.688l1.897 1.041c1.993 1.093 3.987 2.182 5.982 3.271 1.991 1.089 3.981 2.18 5.971 3.271 1.234.677 2.47 1.352 3.706 2.027 2.575 1.409 5.085 2.833 7.54 4.445 2.608 1.398 3.688 1.524 6.564 1.066l2.363-.36c3.987-.74 7.954-1.536 11.918-2.386 35.076-7.195 73.353-7.585 108.099 1.667 6.959 1.829 11.2 1.815 17.507-1.8a1271.2 1271.2 0 0 1 1.711-.966 621.526 621.526 0 0 0 5.371-3.089c1.179-.673 2.36-1.345 3.541-2.016 2.312-1.314 4.622-2.634 6.929-3.958 4.745-2.699 9.537-5.31 14.342-7.901v-1zm-8 8v193c36.839-4.093 65.652-17.119 89.582-45.902 6.202-7.855 11.827-16.196 16.418-25.098l1.011-1.821c3.345-6.578 3.515-12.368 3.38-19.652l-.017-3.526c-.022-3.688-.073-7.375-.124-11.063-.02-2.513-.038-5.025-.054-7.538-.044-6.133-.111-12.267-.196-18.4l-2.075-1.117c-11.092-5.97-22.161-11.97-33.112-18.195a2183.505 2183.505 0 0 0 -26.063-14.563l-3.657-2.014-1.833-1.009-1.838-1.012-1.841-1.014a6492.162 6492.162 0 0 1 -18.8-10.4c-1.738-.965-3.477-1.928-5.215-2.892l-3.191-1.772-2.789-1.548a147.118 147.118 0 0 1 -5.297-3.152c-2.138-1.478-2.138-1.478-4.289-1.312zm222.848 2.754-3.25 1.816-3.535 1.993-3.664 2.05a7076.223 7076.223 0 0 0 -7.621 4.27c-5.749 3.224-11.514 6.419-17.278 9.617l-6.742 3.746c-4.525 2.514-9.051 5.027-13.578 7.539a8970.574 8970.574 0 0 0 -37.489 20.913l-2.976 1.669-2.621 1.472c-1.35.749-2.714 1.471-4.094 2.161a1435.87 1435.87 0 0 0 -.439 21.765c-.04 2.462-.094 4.923-.164 7.384-.424 15.326-.035 26.913 8.603 39.851 1.169 1.957 2.336 3.916 3.5 5.875 3.511 5.314 7.389 10.265 11.5 15.125l2.051 2.461c15.091 17.491 34.955 30.259 57.262 36.352l2.112.59c8.495 2.15 16.687 2.609 25.575 3.597v-193c-2.905 0-4.623 1.333-7.152 2.754zm-161.848 18.246c2.569 2.927 5.494 4.524 8.899 6.371l1.767.967c1.9 1.038 3.804 2.069 5.709 3.1 2.635 1.43 5.267 2.864 7.899 4.3l1.99 1.086a369.772 369.772 0 0 1 12.15 6.969l2.886 1.715a353.754 353.754 0 0 1 5.264 3.213l2.374 1.412 2.027 1.246c3.609 1.101 6.24-.977 9.441-2.593l2.524-1.368 2.878-1.557 3.067-1.673 3.175-1.728c7.61-4.155 15.199-8.347 22.763-12.585l2.962-1.648 2.745-1.547 2.409-1.352c1.985-1.273 3.485-2.595 5.071-4.328-35.975-8.038-72.025-8.038-108 0zm53 106a133.397 133.397 0 0 0 -4.375 7.125c-.777 1.337-1.556 2.673-2.336 4.008l-1.147 1.966c-1.622 2.7-3.367 5.299-5.142 7.901a391.616 391.616 0 0 0 6.188 4.625l1.752 1.352c1.924 1.451 1.924 1.451 5.06 3.023 4.01-.773 7.027-3.259 10.313-5.625l2.676-1.914 2.011-1.461-1.32-2.055c-3.611-5.643-7.11-11.317-10.418-17.144l-1.262-1.801zm-20 29a92.191 92.191 0 0 0 -3.75 4.25c-9.849 11.124-21.154 19.78-34.25 26.75l-1.831.98c-16.883 8.859-35.265 12.606-54.169 14.02v9h230v-9l-3.34-.297c-34.085-3.259-66.648-16.61-89.035-43.562l-1.625-2.141c-5.4 1.77-9.426 5.156-13.828 8.631-4.425 3.323-4.425 3.323-7.597 3.518-3.932-1.754-7.286-4.192-10.762-6.711a858.274 858.274 0 0 0 -4.293-3.067l-1.903-1.377c-1.584-1.169-1.584-1.169-3.617-.994z"/><path d="m342.043 151.614c9.507 8.916 14.799 19.133 15.225 32.128.165 14.468-4.002 25.304-13.975 35.997-9.811 9.357-22.436 13.741-35.875 14.125-12.891-.369-26.334-4.672-35.914-13.621-11.197-12.383-14.262-24.363-13.718-40.622.696-11.248 7.325-21.362 15.324-28.956 20.816-16.126 48.712-16.157 68.933.949zm-62.793 7.531c-7.555 7.594-11.294 15.969-11.707 26.594.205 11.119 4.415 19.431 11.93 27.399 6.329 5.965 13.974 8.939 22.445 10.351v-74c-9.04 0-15.844 3.897-22.668 9.656zm33.668-9.656v74c11.388-2.53 20.731-6.744 27.762-16.426 5.889-9.396 7.503-18.208 5.844-29.183-2.551-10.334-9.308-18.357-18.149-24.02-5.234-2.921-9.335-4.371-15.457-4.371zm-91.586 1.965c8.444 7.809 14.298 18.637 14.922 30.27.269 13.432-2.251 22.838-10.336 33.765l-1.75 2.625c-8.897 9.391-21.439 14.713-34.258 15.578-15.089.227-28.589-3.785-39.804-14.203-10.273-10.852-13.727-22.903-13.461-37.633.554-12.667 7.022-22.486 15.898-31.117 20.096-17.203 48.774-15.576 68.789.715zm-67.851 12.723c-3.475 5.462-3.475 5.462-6.563 17.312h79c-3.316-13.263-8.214-21.346-20.074-28.488-18.128-9.367-39.281-4.294-52.363 11.176zm-6.563 26.312c2.961 11.844 7.254 20.633 17.875 27.313 10.324 5.68 20.449 7.626 32.219 4.996 10.485-3.52 19.723-9.82 25.191-19.61 2.062-4.397 2.893-7.763 3.715-12.699zm-23.718 141.861h3.94l4.01 16.93h.06l4.47-16.93h3.96l4.33 16.93h.08l4.11-16.93h3.94l-6.1 22.13h-3.95l-4.42-16.92h-.06l-4.53 16.92h-4.01zm31.42 0h3.88v22.13h-3.88zm8.62 0h3.87v18.79h11.25v3.34h-15.12zm21.65 18.97h3.82q4.18 0 5.96-2.27 1.41-1.85 1.41-5.65 0-3.8-1.41-5.61-1.72-2.27-5.96-2.27h-3.82zm-3.87-18.97h9.17q4.94 0 7.43 3.24 2.33 2.95 2.33 7.83 0 4.87-2.33 7.82-2.55 3.24-7.43 3.24h-9.17zm31.01 2.83-.31-.36q-.31-.36-1.33-.36-1.01 0-1.68.66-.66.67-.68 1.86 0 1.2 1.35 2.77.36.44.66.84 1.24-.87 1.71-1.38.9-.98.9-2.13 0-1.17-.62-1.9zm-6.48 13.23q0 1.8 1.01 2.76 1.02.95 2.56.95 2.33 0 3.6-1.69.34-.44.58-.78l-4.35-5.4q-.51.3-1.09.61-2.33 1.24-2.31 3.55zm-.68-11.29q0-2.31 1.57-3.86 1.56-1.47 3.85-1.44 3.64 0 5.05 2.99.47.99.47 2.31 0 3.44-4 5.62l3.44 4.14q.52-1.51.68-2.96h3.1q-.33 3.18-1.74 5.42l4.26 5.14h-4.35l-2.01-2.48q-2.39 2.92-6.21 2.92-3.07 0-5.04-1.77-1.95-1.77-1.92-4.81 0-3.83 5.07-6.41-1.15-1.45-1.68-2.51-.54-1.06-.54-2.3zm16.47-4.77h17.92v3.35h-7.04v18.78h-3.87v-18.78h-7.01zm19.99 0h3.53v8.21h.06q.65-1.09 1.94-1.82 1.28-.73 2.87-.71 2.64 0 4.15 1.36 1.51 1.36 1.53 4.09v11h-3.54v-10.08q-.06-1.89-.8-2.74-.75-.85-2.41-.85-1.67 0-2.73 1.22-1.04 1.21-1.07 2.99v9.46h-3.53zm24.76 5.68q1.89 0 3.39.79 3.03 1.59 3.94 5.08.45 1.7.23 3.48h-11.78q0 2.02 1.12 3.39 1.12 1.38 3.19 1.35 2.97 0 3.91-2.66h3.34q-.54 2.59-2.6 4.04-1.95 1.42-4.65 1.42-3.68 0-5.76-2.31-2.11-2.32-2.09-5.97.01-3.63 2.15-6.11 2.13-2.5 5.61-2.5zm4.03 7.02q-.2-2.78-2.41-3.89-.72-.36-1.63-.36-.93 0-1.68.33-1.52.65-2.17 2.26-.33.77-.36 1.66zm6.65-12.7h5.45l6.1 17.33h.08l5.95-17.33h5.38v22.13h-3.69v-17.07h-.06l-6.13 17.07h-3.19l-6.15-17.07h-.06v17.07h-3.68zm37.02-.53q4.83 0 7.72 3.36 2.89 3.36 2.89 8.25 0 4.91-2.88 8.24-2.87 3.31-7.72 3.33-4.84.01-7.73-3.32-2.88-3.33-2.88-8.23 0-4.91 2.82-8.19 1.36-1.57 3.33-2.51 1.97-.94 4.45-.93zm-5.06 17.55.84 1.24q.83 1.24 4.22 1.24 3.39 0 5.06-2.5 1.68-2.5 1.68-5.93 0-3.44-1.68-5.94-1.68-2.49-5.05-2.49t-5.07 2.51q-1.69 2.51-1.68 5.95.02 3.43 1.68 5.92zm28.6-17.55q4.83 0 7.72 3.36 2.89 3.36 2.89 8.25 0 4.91-2.87 8.24-2.88 3.31-7.72 3.33-4.85.01-7.74-3.32-2.87-3.33-2.87-8.23 0-4.91 2.81-8.19 1.36-1.57 3.33-2.51 1.97-.94 4.45-.93zm-5.05 17.55.83 1.24q.83 1.24 4.22 1.24 3.39 0 5.06-2.5 1.68-2.5 1.68-5.93 0-3.44-1.68-5.94-1.68-2.49-5.04-2.49-3.38 0-5.07 2.51-1.7 2.51-1.68 5.95.01 3.43 1.68 5.92zm19.01-17.02h4.1l10.1 16.31h.06v-16.31h3.69v22.13h-4.08l-10.08-16.27h-.09v16.27h-3.7z"/></svg>