<svg height="-401" viewBox="11.98 362.37 973.14 208.36" width="2500" xmlns="http://www.w3.org/2000/svg"><path d="m273.57 414.46-30.07-52.09-30.08 52.09h31.51z" fill="#464646"/><path d="m244.93 414.46h-31.51l30.08 52.09 30.07-52.09z" fill="#676767"/><path d="m273.57 414.46h-28.64z" fill="#d42027"/><path d="m183.35 466.55h60.15l-30.08-52.09z" fill="#737373"/><path d="m72.13 518.64 30.07 52.09 30.07-52.09h-31.5z" fill="#7b7b7b"/><path d="m93.12 414.46h60.15l-30.07-52.09z" fill="#464646"/><path d="m93.13 414.47 30.07 52.08 30.07-52.09z" fill="#565756"/><path d="m153.27 414.46-30.07 52.09h60.15z" fill="#5d5d5d"/><path d="m123.2 466.55 30.07 52.09 30.08-52.09z" fill="#676767"/><path d="m153.27 518.64 30.08 52.09 30.07-52.09h-30.07z" fill="#7b7b7b"/><path d="m183.35 466.55-30.08 52.09h60.15z" fill="#737373"/><path d="m183.35 518.64h30.07z" fill="#ee252e"/><path d="m11.98 414.46h60.15l-30.08-52.09z" fill="#464646"/><path d="m11.98 414.46 30.07 52.09 30.08-52.09z" fill="#555"/><path d="m42.06 362.37 30.07 52.09 30.07-52.09z" fill="#676767"/><path d="m72.13 414.46-30.08 52.09h60.15z" fill="#5d5d5d"/><path d="m42.05 466.55 30.08 52.09 30.07-52.09z" fill="#676767"/><path d="m102.2 466.55-30.07 52.09h60.15z" fill="#737373"/><path d="m100.77 518.64h31.5z" fill="#ee252e"/><path d="m377.09 510.8h-9.87l-7.67-19.39-6.52-19.48-6.43 19.66-7.49 19.22h-9.87l-22.65-61.7h13.05l14.54 44.51 14.98-44.51h7.58l15.42 44.51 14.1-44.51h13.05zm39.32-55.71c0 8.37-12.69 8.37-12.69 0-.01-8.37 12.69-8.37 12.69 0zm-11.73 12.08v43.63h10.75v-43.63zm48.84 11.72c-3.08-2.91-6.61-3.88-10.75-3.88-5.11 0-7.93 1.59-7.93 4.32 0 2.82 2.56 4.41 8.11 4.76 8.2.53 18.6 2.38 18.6 13.93 0 7.67-6.26 14.28-18.69 14.28-6.88 0-13.75-1.15-20.1-7.76l5.29-7.67c3.09 3.44 10.14 5.99 14.99 6.08 4.05.09 7.85-2.03 7.85-5.2 0-3-2.47-4.23-8.64-4.58-8.2-.62-17.98-3.61-17.98-13.49 0-10.05 10.4-13.57 18.33-13.57 6.79 0 11.9 1.32 16.92 5.73zm24.07 14.02c.71 5.38 5.38 9.26 12.96 9.26 3.97 0 9.17-1.5 11.64-4.06l6.88 6.79c-4.58 4.76-12.08 7.05-18.69 7.05-14.98 0-23.89-9.26-23.89-23.18 0-13.22 8.99-22.74 23.09-22.74 14.54 0 23.62 8.99 21.95 26.89h-33.94zm23.62-8.9c-.71-5.64-5.11-8.46-11.28-8.46-5.82 0-10.58 2.82-12.16 8.46zm55.89 21.24c-5.02 4.94-10.31 6.88-16.75 6.88-12.61 0-23.09-7.58-23.09-23.01s10.49-23.01 23.09-23.01c6.17 0 10.93 1.76 15.69 6.44l-6.79 7.14c-2.56-2.29-5.73-3.44-8.73-3.44-7.23 0-12.52 5.29-12.52 12.87 0 8.28 5.64 12.69 12.34 12.69 3.44 0 6.88-.97 9.52-3.62zm48.83-16.13c0 12.52-8.55 22.65-22.65 22.65s-22.57-10.14-22.57-22.65c0-12.43 8.64-22.65 22.48-22.65 13.84-.01 22.74 10.22 22.74 22.65zm-34.46 0c0 6.61 3.97 12.78 11.81 12.78s11.81-6.17 11.81-12.78c0-6.52-4.58-12.87-11.81-12.87-7.76 0-11.81 6.35-11.81 12.87zm70.78 21.68v-23.27c0-5.73-3-10.93-8.9-10.93-5.82 0-9.26 5.2-9.26 10.93v23.27h-10.75v-43.55h9.96l.79 5.29c2.29-4.41 7.32-5.99 11.46-5.99 5.2 0 10.4 2.11 12.87 8.11 3.88-6.17 8.9-7.93 14.54-7.93 12.34 0 18.42 7.58 18.42 20.62v23.45h-10.75v-23.45c0-5.73-2.38-10.58-8.2-10.58s-9.43 5.02-9.43 10.75v23.27h-10.75z" fill="#414042"/><path d="m716.27 494.13-5.64 17.08h-7.25l18.45-54.29h8.46l18.53 54.29h-7.49l-5.8-17.08zm17.8-5.48-5.32-15.63c-1.21-3.54-2.01-6.77-2.82-9.91h-.16c-.81 3.22-1.69 6.52-2.74 9.83l-5.32 15.71zm49.29 21.1c-1.85.97-5.96 2.26-11.2 2.26-11.76 0-19.41-7.97-19.41-19.9 0-12 8.22-20.7 20.94-20.7 4.19 0 7.89 1.05 9.83 2.01l-1.61 5.48c-1.69-.97-4.35-1.85-8.22-1.85-8.94 0-13.77 6.6-13.77 14.74 0 9.02 5.8 14.58 13.53 14.58 4.03 0 6.69-1.05 8.7-1.93zm43.1-18.36c0 14.42-9.99 20.7-19.41 20.7-10.55 0-18.69-7.73-18.69-20.06 0-13.05 8.54-20.7 19.33-20.7 11.19 0 18.77 8.14 18.77 20.06zm-30.94.4c0 8.54 4.91 14.98 11.84 14.98 6.77 0 11.84-6.36 11.84-15.14 0-6.6-3.3-14.98-11.68-14.98-8.37 0-12 7.73-12 15.14zm72.49 8.78c0 4.03.08 7.57.32 10.63h-6.28l-.4-6.36h-.16c-1.85 3.14-5.96 7.25-12.89 7.25-6.12 0-13.45-3.38-13.45-17.08v-22.8h7.09v21.59c0 7.41 2.25 12.41 8.7 12.41 4.75 0 8.05-3.3 9.34-6.44.4-1.05.64-2.34.64-3.63v-23.92h7.09zm10.79 3.38c2.09 1.37 5.8 2.82 9.34 2.82 5.16 0 7.57-2.58 7.57-5.8 0-3.38-2.01-5.24-7.25-7.17-7.01-2.5-10.31-6.36-10.31-11.04 0-6.28 5.07-11.44 13.45-11.44 3.95 0 7.41 1.13 9.58 2.42l-1.77 5.16c-1.53-.97-4.35-2.26-7.97-2.26-4.19 0-6.53 2.42-6.53 5.32 0 3.22 2.34 4.67 7.41 6.61 6.77 2.58 10.23 5.96 10.23 11.76 0 6.85-5.32 11.68-14.58 11.68-4.27 0-8.22-1.05-10.96-2.66zm41.4-42.93v11.2h10.15v5.4h-10.15v21.02c0 4.83 1.37 7.57 5.32 7.57 1.85 0 3.22-.24 4.11-.48l.32 5.32c-1.37.56-3.54.97-6.28.97-3.3 0-5.96-1.05-7.65-2.98-2.01-2.09-2.74-5.56-2.74-10.15v-21.27h-6.04v-5.4h6.04v-9.34zm26.02.24c.08 2.42-1.69 4.35-4.51 4.35-2.5 0-4.27-1.93-4.27-4.35 0-2.5 1.85-4.43 4.43-4.43 2.66 0 4.35 1.94 4.35 4.43zm-7.9 49.94v-38.99h7.09v38.99zm46.64-1.45c-1.85.97-5.96 2.26-11.2 2.26-11.76 0-19.41-7.97-19.41-19.9 0-12 8.22-20.7 20.94-20.7 4.19 0 7.89 1.05 9.83 2.01l-1.61 5.48c-1.69-.97-4.35-1.85-8.22-1.85-8.94 0-13.77 6.6-13.77 14.74 0 9.02 5.8 14.58 13.53 14.58 4.03 0 6.69-1.05 8.7-1.93z" fill="#58595b"/></svg>