<svg fill="none" height="1337" viewBox="25 44 353.991 139.795" width="2500" xmlns="http://www.w3.org/2000/svg"><g fill="#000"><path clip-rule="evenodd" d="m157.099 152.266c-9.119 0-15.35 7.262-15.35 15.762 0 8.491 6.231 15.767 15.35 15.767 3.466 0 7.385-1.807 9.246-4.829v4.052h6.997v-45.041h-6.997v19.111c-1.861-3.025-5.78-4.822-9.246-4.822zm.384 6.238c5.398 0 8.862 4.378 8.862 9.524s-3.464 9.524-8.862 9.524c-5.265 0-8.735-4.378-8.735-9.524s3.47-9.524 8.735-9.524zm102.741 24.514h7.006v-15.503c0-5.149 2.306-9.076 7.193-9.076 5.01 0 6.48 3.927 6.48 9.076v15.503h7.005v-17.822c0-4.122-.453-6.631-1.927-8.878-1.67-2.508-4.691-4.052-8.992-4.052-4.433 0-7.897 1.735-9.759 4.959v-19.248h-7.006zm-218.912 0h-4.69l-11.622-29.982h7.512l6.486 18.98 6.744-18.98h6.87l6.744 18.98 6.484-18.98h7.513l-11.623 29.982h-4.687l-7.834-22.387zm47.87-30.756c-9.5 0-15.733 7.262-15.733 15.762 0 8.492 6.233 15.767 15.733 15.767 9.634 0 15.865-7.275 15.865-15.767 0-8.5-6.231-15.762-15.865-15.762zm-8.732 15.762c0-5.146 3.467-9.524 8.732-9.524 5.398 0 8.865 4.378 8.865 9.524s-3.467 9.524-8.865 9.524c-5.265 0-8.732-4.378-8.732-9.524zm28.875 14.994h6.996v-15.503c0-5.149 2.315-9.076 7.192-9.076 5.011 0 6.491 3.927 6.491 9.076v15.503h6.996v-17.822c0-4.122-.45-6.631-1.925-8.878-1.67-2.508-4.684-4.052-8.994-4.052-4.427 0-7.895 1.735-9.76 4.959v-4.189h-6.996zm68.422-14.99c0 8.172 4.879 15.767 14.963 15.767 7.64 0 12.457-4.641 13.421-9.782h-7.065c-.896 2.12-2.375 3.918-6.356 3.918-5.651 0-7.773-3.471-7.836-7.781h21.194c.319-1.925.319-3.341.319-4.373 0-7.659-6.097-13.511-13.868-13.511-9.439 0-14.772 6.754-14.772 15.762zm7.19-3.084c0-4.446 3.276-6.826 7.39-6.826 4.235 0 7.257 2.636 7.257 6.826zm25.727 18.074h6.995v-12.929c0-7.467 3.279-10.877 9.254-10.877 1.086 0 1.666.063 2.757.316v-6.431c-.773-.32-1.671-.447-2.757-.447-3.987 0-7.904 2.44-9.254 5.212v-4.826h-6.995zm37.825-20.582h6.806c0-5.86-5.075-10.17-11.429-10.17-6.102 0-11.24 3.019-11.24 8.685 0 5.211 2.956 6.759 7.132 8.362 6.29 2.446 9.311 2.644 9.311 5.471 0 2.57-2.123 3.476-4.884 3.476-3.339 0-5.779-1.416-5.779-5.343h-6.809c0 7.077 5.782 10.878 12.204 10.878 6.548 0 11.942-2.898 11.942-9.143 0-5.463-3.976-6.942-8.153-8.552-5.457-2.122-8.219-2.448-8.219-5.026 0-2.122 1.928-3.276 4.298-3.276 3.406 0 4.82 1.802 4.82 4.638zm59.14-10.17c-9.115 0-15.348 7.262-15.348 15.762 0 8.491 6.233 15.767 15.348 15.767 3.471 0 7.385-1.807 9.251-4.829v4.052h7.002v-29.982h-7.002v4.052c-1.866-3.025-5.78-4.822-9.251-4.822zm.391 6.238c5.395 0 8.86 4.378 8.86 9.524s-3.465 9.524-8.86 9.524c-5.265 0-8.733-4.378-8.733-9.524s3.468-9.524 8.733-9.524zm22.178 24.514h7.004v-12.929c0-7.467 3.271-10.877 9.243-10.877 1.093 0 1.667.063 2.761.316v-6.431c-.771-.32-1.668-.447-2.761-.447-3.981 0-7.898 2.44-9.243 5.212v-4.826h-7.004zm34.733-24.9c4.234 0 7.256 2.636 7.256 6.826h-14.642c0-4.446 3.272-6.826 7.386-6.826zm13.739 12.032c.321-1.925.321-3.341.321-4.373 0-7.659-6.098-13.511-13.872-13.511-9.441 0-14.768 6.754-14.768 15.762 0 8.172 4.879 15.767 14.962 15.767 7.648 0 12.457-4.641 13.423-9.782h-7.065c-.897 2.12-2.375 3.918-6.358 3.918-5.649 0-7.768-3.471-7.832-7.781z" fill-rule="evenodd"/><path d="m241.478 91.379c2.163-2.181 2.137-5.676-.028-7.846l-39.446-39.533-16.567 16.6a5.526 5.526 0 0 1 -6.806.806l-.11.11 46.376 46.48zm-45.803.016-16.568 16.605-43.375-43.47 20.481-20.526 39.462 39.55a5.552 5.552 0 0 1 0 7.84zm72.592-26.865-20.472 20.518-23.491-23.527.11-.11a5.526 5.526 0 0 0 6.806-.808l16.567-16.6z"/></g></svg>