<svg height="2181" viewBox="3.3 7.6 321.9 285.6" width="2500" xmlns="http://www.w3.org/2000/svg"><path d="m324.6 146.6c-6-9.9-31.1-50.9-38.2-58.7l-.2-.2c-.9-.9-21.7-21.1-67.8-36.2-44.2-14.5-54.1-18.7-62-24.9-2.6-3.3-12.6-13.6-37.4-18.7-1.5-.3-3.1-.3-4.6.2-1.7.6-3.5 1.9-4 4.7-.9 5.6 4.8 6.8 4.8 6.8h-.2c.2 0 4.7 1.6 6.3 10.3-.6 2.3-1.2 5.2-1.6 8-8.9.9-26.9 3.4-46.3 10.6-36.3 13.4-60 36.9-68.4 67.9v.5c-1.7 5.9 5.6 10.1 9.9 5.8l.4-.4s1.7-1.6 4.5-3.7c-4.5 7.9-7.8 18-7.2 30 1.6 29.9 19.9 49.1 43.7 71 22.9 21.2 66.5 41.5 95.1 44.5 5.7.6 9-6.2 5-10.3-.1-.1-6.4-6.7-12.7-16.1 10.9 8.3 25.6 16.1 44.5 19.2 5.3.9 9.1-5.1 6-9.5-.3-.4-5.5-8.3-2.2-18 5.3 3.6 13.4 12.6 12 33.7-.2 3.2 2 6 5.2 6.5.3 0 3.5.5 8.3.5 9.8 0 28.2-2 41.1-15.5 10.1-10.5 14.9-25.8 14.1-45.4 0 0 0-2.9-3-4.9-3.1-2-6.4 0-6.4 0-3.4 2.2-14.8 8.4-21.7 8.4-1.2 0-1.8-.2-2.2-.3-4.1-1.8-1.9-12.2-.6-18.5.2-1 .7-2 1.5-2.8 3.6-3.8 9.4-10.9 21.9-10.9s6.9.5 10.6 1.6c.2 2.2 0 7.8-2.4 16.4 0 0-.4 2.8 1.2 4.8 1.3 1.6 3 2 5.1 1.9.2 0 .7 0 1.6-.1 7-1 34-7.8 46.5-54.5.4-1.2.2-2.6-.5-3.7z" fill="#e12726"/><path d="m320.9 149.8c.2-.6 0-1.3-.3-1.9-4.2-6.9-30.3-49.4-37.4-57.1-.8-.8-20.9-20.4-66.1-35.2-46-15.1-55.1-19.1-63.8-26-1.4-1.9-10.4-12.8-36.4-17.8 0 0-2.1-.3-2.4 1.8 0 0-.1 1.8 1.5 2 .3 0 7.6 1.8 9.6 14.4-.4 1.7-1.9 7.8-1.9 11.9-6.2.4-26.8 2.4-48.9 10.6-35 13-57.7 35.5-65.8 65.1l-.2.9c-.4 1.6 1.5 2.7 2.6 1.5l.6-.6c0-.1 8.7-8.7 22.2-12.6-7.2 6.9-18.6 21.2-17.5 41.7 1.5 28.3 19.3 46.8 42.3 68.1 22 20.3 65.3 40.5 92.7 43.4h.7c1.4.2 2.2-1.5 1.3-2.5l-.5-.5c-.2-.2-18.7-19.7-24.9-40.1 8.6 10.8 28.4 30.7 60.5 36 1.6.3 2.7-1.5 1.8-2.8-.4-.5-8.5-12.5-.7-26.4 4.6 1.8 20.4 10.3 18.4 39.9s.6 1.8 1.5 1.9c.1 0 3.1.5 7.7.5 9.1 0 26.2-1.8 38-14.2 9.3-9.7 13.6-23.9 12.9-42.2 0-1.4-1.6-2.2-2.8-1.4-.1 0-14.4 9-24 9-1.5 0-2.8-.2-3.9-.7-7.3-3.2-5-14.2-3.3-22.8.2-.9 1.1-3.1 1.1-3.1 1.2-2 9.2-14.7 26.6-14.7s9.3.9 14.2 2.6c.6 1.3 2.2 6.5-1.7 20.4s.4 1.8 1.4 1.8h.5c1.2 0 30.6-2 44.1-50.8z" fill="#b5c5cd"/><path d="m10.9 118s11.8-12.1 30.1-14.5c0 0-23.8 16.5-22.3 44.8s20.1 46.9 41.7 66.8 64.2 40.1 91.6 42.9c0 0-24.4-25.4-27.1-49.4 0 0 20.1 34.9 64.3 42.2 0 0-9.8-14 0-29.6 0 0 23.4 5.8 21 42.2 0 0 59 9 56.5-54 0 0-20 12.6-29.6 8.5s-5.3-19.5-3.7-28.1c0 0 13.5-23.9 44.2-13 0 0 3.8 4.2-1 21.9 0 0 28.9-.8 42.1-49.9 0 0-29.4-48.7-36.9-56.9 0 0-20.1-20-65.3-34.8s-55.4-19.1-64.5-26.4c0 0-8-12-35.4-17.3 0 0 8.8 2 11 16.5 0 0-2.7 10-1.8 13.5 0 0-95.6 3.5-114.9 74.5z" fill="#112c4d"/><path d="m245.4 161.7c20.3-8.5 45.1 3.7 45.1 3.7s2.2 9.8 1 15.3c0 0 14.8-9.3 11.8-19 0 0-9-.2-12.1-3-1.5-1.3-1.7-4.2-1.6-7-.2-.8-.1-1.3-.1-1.3l-1.8-11.1 5.2 8.5 17.8-.8s-16.6-24.1-22.4-32.9-13.1-18.1-13.1-18.1c-12-10.5-36.9-23.6-56.7-30.2s-27.6-5.4-49.5-14-27.1-18.6-27.1-18.6 0 12.3 6.1 22.5c1 1.4 14.8 21.3 47.3 14.2 0 0-1.3-4.2-12-6.7 0 0 44.2-1.2 86.3 34.3l-20-10.3c-.7-.4-1.4-.7-2.2-1-44.7-18.4-37.5-6-37.5-6s-14.3 8.1-36.7 7.6c-18.1-.4-33.1-8-39.1-18.9-5-5.6-6.3-10.5-6.3-10.5-75.8.2-99.3 40.1-99.3 40.1 34.6-18.8 70.5-20.4 70.5-20.4-16.5 6-33.6 14.2-46.2 24.8-7.7 8.7-13.5 19.8-13.7 33.8-.5 42.2 64.3 79.5 64.3 79.5s-10.1-21.9 7.1-61.7c0 0 17.1 54.7 58.2 68.7 0 0 6.8-14.8-9.3-17 0 0 4.8-5.9 9.7-6 2.1-1.2 4.9-2.5 8.2-3.5 1.6-1.2 2.9-2.6 3.1-4.1.5-4.2-9.6-6.7-24.4 1.2 0 0 8.6-8.1 17-8.5 0 0 6.4-3.6 16.9-2.2 1.9-1 3.8-2.5 3.7-5.1-.2-5-2.5-10.5-13.6-22.6 0 0 5 1.8 14.9 13.5-2.1-3.1-4.7-6.7-7.9-10.8 0 0 14 8.6 23.4 27.1 0 0-5.3 18.5 9 35.2 0 0-2.9-2.7-7.6-6.1 4.6 4.7 13.1 15.1 16.2 30.6 0 0 27-3 30.7-25.4-5.1 2.3-16.1 6.6-24.4 5.1-11.1-2-10.5-17-10.5-17 .3-2.6.6-5 1-7.3 1.1-9.9 5.2-31.9 20.7-38.4z" fill="#fff"/><path d="m258.7 217.6c0 .6-.2 1.2-.2 1.7.4-.2.8-.4 1.1-.5-.5-1.1-.9-1.2-.9-1.2z" fill="none"/><g fill="#b5c5cd"><path d="m223.9 145.7c-3.1 1.5-4.8 2.7-4.8 2.7 33.4-11 62 6 62 6s-16.9-17.5-57.2-8.7zm23.5-28.4h-3.8c2.7-.2 14.1 5.2 14.1 8.4s-.6 2.7-1.2 3.2c4.2 1.1 8.4 3 11.9 6.2 0 0-5.5-11.5-21-17.8zm17.8 22.5s-3.9-9.1-32.8-10.1c-3.7.8-5.6 1.8-5.6 1.8 16.1-2.3 25.3 2.3 25.3 5.5s-.2 1.1-.5 1.5c4.5-.2 9.1.1 13.6 1.3zm-37.5 104.9c-3.1-15.4-11.6-25.9-16.2-30.6-10.7-7.8-30.8-19.2-47.8-10.2 0 0 1.8-1.8 5.2-3.8-4.8 0-9.7 6-9.7 6 16.1 2.2 9.3 17 9.3 17-41.1-14-58.2-68.7-58.2-68.7-17.3 39.7-7.1 61.7-7.1 61.7s-64.8-37.2-64.3-79.5c.2-14 6-25.1 13.7-33.8-11.9 10-19.9 22.3-20 37.1-.2 57.9 88.6 93.1 88.6 93.1-15.5-24.6-7-59.7-7-59.7 23.6 50.4 61.9 64.3 61.9 64.3-1.2-16.1 8.1-26.9 8.1-26.9 34.4 5.5 39.1 42.6 39.1 42.6 28.5.4 35.7-18.7 37.5-29-.3-2.9-.8-4.6-1.2-5.5-.3.2-.7.3-1.1.5-3.6 22.4-30.7 25.4-30.7 25.4z"/><path d="m194.6 168.7c-9.9-11.6-14.9-13.5-14.9-13.5 11.1 12.1 13.5 17.6 13.6 22.6 0 2.5-1.8 4.1-3.7 5.1 4 .5 8.5 1.7 13.5 4.1 0 0 .7-4.5-8.6-18.3zm5.3 27.5s-6.2-10.5-27.2-11c-8.3.3-17 8.5-17 8.5 14.8-7.8 24.9-5.3 24.4-1.2-.2 1.5-1.5 2.9-3.1 4.1 5.8-1.7 13.4-2.5 22.8-.5z"/></g><path d="m269 121.7c4.2 3.9 8.6 8.8 12.9 14.9l-8.6-29.4s-27.3-15.3-49-21.3l19.6 23.4s10.5 1.8 25.2 12.4z" fill="none"/><path d="m280.8 143.6c-14.6-24.6-33.4-26.3-33.4-26.3h-3.8c2.7-.2 14.1 5.2 14.1 8.4s-.6 2.7-1.2 3.2c-12.1-3.1-24.9.7-24.9.7h.8c-3.7.8-5.6 1.8-5.6 1.8 16.1-2.3 25.3 2.3 25.3 5.5s-.2 1.1-.5 1.5c-15.3.7-28.6 7.4-28.6 7.4.3 0 .6-.1.9-.2-3.1 1.5-4.8 2.7-4.8 2.7 33.4-11 62 6 62 6-2.8-3.5-.3-10.8-.3-10.8z" fill="none"/><path d="m289.5 151.7c-.1 2.8.1 5.7 1.6 7 3.2 2.8 12.1 3 12.1 3 3 9.6-11.8 19-11.8 19 1.2-5.5-1-15.3-1-15.3s-24.8-12.1-45.1-3.7c-15.5 6.5-19.7 28.5-20.7 38.4 6-31.9 27.8-38.4 38.7-38.4s22.3 6 22.3 6c3.8 20.1-2.8 24.9-2.8 24.9s8.6-5.7 17.8-15.5c9.1-9.8 5.7-18.5 5.7-18.5-13.5.5-16.2-4.6-16.7-7zm-116.6-63.9c22.4.5 36.7-7.6 36.7-7.6s-7.1-12.5 37.5 6c-27-13-36.9-12.8-36.9-12.8-7 .2-6.2 4.3-6.2 4.3-47.1 7.3-56.5-22.1-56.5-22.1-6-10.3-6.1-22.5-6.1-22.5-15 37.6 37.1 51 37.1 51-25.1.7-38.2-7.9-44.9-15.3 6 10.9 21 18.5 39.1 18.9z" fill="#b5c5cd"/><path d="m261.3 217.9s-.7.3-1.8.9c.4.9.9 2.6 1.2 5.5.7-3.8.6-6.4.6-6.4z" fill="#fff"/><path d="m204.1 77.6s-.8-4.2 6.2-4.3c0 0 9.9-.2 36.9 12.8.7.3 1.4.7 2.2 1l20 10.3c-42.1-35.4-86.3-34.3-86.3-34.3 10.6 2.5 12 6.7 12 6.7-32.5 7.1-46.4-12.8-47.3-14.2 2.1 3.7 5 7.1 8.9 9.6-3.9-2.5-6.8-5.9-8.9-9.6s9.5 29.4 56.5 22.1zm6 107.4c-9.5-18.5-23.4-27.1-23.4-27.1 3.2 4.1 5.8 7.7 7.9 10.8 9.2 13.8 8.6 18.3 8.6 18.3-5-2.4-9.5-3.6-13.5-4.1-10.5-1.3-16.9 2.2-16.9 2.2 21 .5 27.2 11 27.2 11-9.4-2-17-1.2-22.8.5-3.4 1-6.1 2.3-8.2 3.5-3.4 2-5.2 3.8-5.2 3.8 17-9 37.1 2.4 47.8 10.2 4.7 3.4 7.6 6.1 7.6 6.1-14.3-16.8-9-35.2-9-35.2zm70.7-41.4c-14.6-24.6-33.4-26.3-33.4-26.3 15.5 6.3 21 17.8 21 17.8-3.5-3.2-7.6-5.1-11.9-6.2-12.1-3.1-24.9.7-24.9.7h.8c28.9 1 32.8 10.1 32.8 10.1-4.5-1.2-9.2-1.5-13.6-1.3-15.3.7-28.6 7.4-28.6 7.4.3 0 .6-.1.9-.2 40.4-8.8 57.2 8.7 57.2 8.7-2.8-3.5-.3-10.8-.3-10.8z" fill="#112c4d"/><path d="m269 121.7c-12.7-11.7-23.7-14.2-23.7-14.2l-14.5-16.5c33.6 13.5 40.6 18.3 40.6 18.3l10.5 27.3-8.6-29.4s-27.3-15.3-49-21.3l19.6 23.4s10.5 1.8 25.2 12.4z" fill="#b5c5cd"/><path d="m230.9 91.1 14.5 16.5s11 2.5 23.7 14.2c1.9 1.3 12.9 14.9 12.9 14.9l-10.5-27.3s-7-4.8-40.6-18.3z" fill="#112c4d"/><path d="m213.4 175.4c14.6-23.9 40.2-25.1 40.2-25.1s-31.6 0-40.2 25.1zm-17.3-54c.4.5.8 1.1 1.2 1.6 4.3-3.2 18.5-13.4 29.8-15.3l9.5 7.8-5.8-9.5c-.2-.2-.4-.3-.6-.5 0 0-15.6 2.3-34 15.8zm-33.4-10.1c-21.6-14.2-31.3-21.5-35.3-26.8-1.9-1.2-3.4-2.3-4.2-3.2 0 0 8 14 22.8 22.9 12.2 7.4 21.3 15.1 24.9 19.1l3.3-3c-3.7-3.4-7.5-6.5-11.4-9.1zm21.9 19.9c-10.9 10.6-21.8 25.5-30.4 46.4 16-31.7 27.7-41 27.7-41 18.5 17.3 28.3 36.2 28.9 37.5-.6-1.1-5-11.5-12.6-25-1.1-1.6-2.2-3.2-3.4-4.9-3.1-4.3-6.5-8.8-10.2-13.1z" fill="#b5c5cd"/><path d="m215.1 156.4c-5.2-13.3-11.6-24.4-17.9-33.4-.4-.6-.8-1.1-1.2-1.6 18.4-13.6 34-15.8 34-15.8.2.1.4.3.6.5 3.2 2.5 7.7 9.5 7.7 9.5-2-10.8-12.1-23.4-12.1-23.4-15 3.9-28 10.5-39 18.1-8.1-9.4-14.2-14.1-14.2-14.1-30.9 2.2-48.1-16.6-48.1-16.6.3 1.6 1 3.2 2.4 5 4 5.3 13.7 12.7 35.3 26.8 4 2.6 7.8 5.7 11.4 9.1-1.1 1-2.3 2-3.3 3-18.1 16.7-27.4 33.1-27.4 33.1-15.5-18.6-23.1-53-23.1-53-29.6 18.6-40.3 51-40.3 51-6.9-6.9-12.9-15.9-12.9-26.9 0-26.6 37.1-44.9 37.1-44.9s-52.4 17.6-52.2 51.5 46.4 65 46.4 65c-6.5-35.2 14-63.3 14-63.3 12.1 42 35.6 59.1 35.6 59.1 1.9-6.2 4-12 6.2-17.4 8.6-20.9 19.6-35.8 30.4-46.4 3.7 4.3 7.1 8.7 10.2 13.1 1.2 1.6 2.3 3.3 3.4 4.9 9.6 14.2 15.3 26.2 15.3 26.2 8.6-25.1 40.2-25.1 40.2-25.1-15.6-4.2-38.6 6.2-38.6 6.2z" fill="#112c4d"/></svg>