<svg height="1036" width="2500" xmlns="http://www.w3.org/2000/svg" viewBox="0 0 567 235"><path d="M0 0h567v235H0V0z" fill="#fefefe"/><path d="M184 23h78c6.6 19.24 6.6 19.24 9.684 28.32 2.654 7.817 5.33 15.625 8.022 23.429 1.679 4.878 3.341 9.76 5 14.645.819 2.397 1.643 4.791 2.474 7.183 1.174 3.386 2.326 6.778 3.472 10.173l1.075 3.045c3.436 10.333 1.433 17.671-2.106 27.709l-1.005 2.92c-1.05 3.05-2.114 6.094-3.179 9.138l-2.154 6.237A4324.2 4324.2 0 0 1 278 171c-1.894-2.84-2.819-5.067-3.897-8.276l-1.122-3.314-1.215-3.637c-.43-1.276-.86-2.552-1.292-3.828-.926-2.747-1.85-5.495-2.772-8.244-1.46-4.352-2.927-8.7-4.395-13.049a14451.99 14451.99 0 0 1-13.19-39.26c-2.001-5.983-4.007-11.966-6.017-17.947-1.43-4.257-2.852-8.517-4.268-12.778-.886-2.663-1.78-5.322-2.676-7.981-.605-1.803-1.201-3.61-1.797-5.416C231.487 35.063 231.487 35.063 223 26c-5.273-.841-9.738 1.093-14.125 3.875C201.763 35.239 197.663 43.028 194 51c-1-3-1-3-.563-5.063 1.108-5.785 1.49-10.977-1.062-16.375-2.586-2.79-4.873-4.13-8.375-5.562v-1z" fill="#395f9d"/><path d="M92 23h49v12c.737 3.16 1.5 5.945 2.586 8.962l.833 2.454c.59 1.735 1.19 3.466 1.797 5.195.962 2.74 1.9 5.488 2.835 8.238a3401.762 3401.762 0 0 0 6.012 17.463c2.34 6.764 4.667 13.532 6.97 20.308.925 2.7 1.868 5.394 2.811 8.088l1.7 4.977.804 2.247c2.146 6.406 1.355 11.541-.838 17.902l-.91 2.668-.979 2.807-1.005 2.93a3350.887 3350.887 0 0 1-3.179 9.198l-2.154 6.264A6561.507 6561.507 0 0 1 153 170h-2l-.817-2.458c-15.488-46.691-15.488-46.691-31.246-93.292l-.795-2.326c-1.212-3.543-2.43-7.084-3.658-10.621a848.92 848.92 0 0 1-3.23-9.528l-1.813-5.353-.815-2.486C106.354 37.286 103.416 29.609 97 26a88.182 88.182 0 0 0-5-2v-1zM290 23h49v12c.732 3.199 1.495 6.04 2.57 9.102l.828 2.498c.893 2.68 1.81 5.352 2.727 8.025A2865.138 2865.138 0 0 0 353 78l2.053 6.025 1.02 2.995a5698.04 5698.04 0 0 1 3.92 11.577c.932 2.74 1.878 5.475 2.826 8.21.57 1.676 1.14 3.352 1.708 5.029l.81 2.292c2 5.97 1.155 9.664-.796 15.463l-.89 2.658-.96 2.83-.99 2.93c-.69 2.038-1.382 4.075-2.075 6.112a2660.504 2660.504 0 0 0-3.167 9.395c-.672 1.979-1.344 3.958-2.018 5.937l-.953 2.853-.9 2.62-.785 2.317C351 169 351 169 349 170c-7.49-21.918-14.976-43.838-22.276-65.82C324.156 96.45 321.58 88.725 319 81l-.933-2.793a4926.05 4926.05 0 0 0-5.715-16.999c-.6-1.778-1.199-3.557-1.794-5.338C305.891 38.82 305.891 38.82 295 26c-2.68-1.24-2.68-1.24-5-2v-1z" fill="#3a609e"/><path d="M23 24h42a17440.69 17440.69 0 0 1 12.569 37.291 7212.567 7212.567 0 0 0 5.835 17.316 4957.972 4957.972 0 0 1 5.621 16.71c.714 2.126 1.432 4.252 2.154 6.376 1.01 2.972 2.005 5.949 2.997 8.927l.918 2.666c2.423 7.368 2.423 7.368.906 11.714l-.676 2.258-.783 2.317-.89 2.649-.96 2.819-.99 2.924c-.69 2.033-1.382 4.067-2.075 6.1a3036.44 3036.44 0 0 0-3.167 9.36c-.672 1.977-1.344 3.953-2.018 5.928l-.953 2.838-.9 2.62-.785 2.31C81 169 81 169 79 171l-.84-2.525C74.442 157.315 70.722 146.157 67 135l-.96-2.877a22953.243 22953.243 0 0 0-12.282-36.717 9836.841 9836.841 0 0 1-5.368-16.04 7215.908 7215.908 0 0 0-5.313-15.862c-.666-1.983-1.329-3.968-1.989-5.953C36.244 39.679 36.244 39.679 25 26l-2-2z" fill="#395f9d"/><path d="M484 23v1l-1.871.445C471.319 27.308 463.6 32.96 457 42a46.723 46.723 0 0 0-4 9c-.34 1.049-.682 2.097-1.033 3.177-1.639 6.67-1.254 13.593-1.233 20.417l-.005 4.549c-.003 3.167 0 6.334.01 9.501.012 4.041.005 8.083-.007 12.124-.007 3.128-.005 6.256 0 9.384.002 1.49 0 2.979-.005 4.468-.039 15.884 2.933 30.472 14.273 42.38 5.567 5.283 11.743 7.732 19 10v1c-18.88-.38-36.097-9.093-49.379-22.215-15.419-16.384-20.36-35.31-19.744-57.117.856-18.565 8.802-34.915 22.185-47.73C449.695 30.155 467.127 22.087 484 23z" fill="#3a609e"/><path d="M245 200h7l2 11 1.938-4.938c1.937-4.937 1.937-4.937 3.062-6.062 2.333-.04 4.667-.042 7 0l2 10 4-10h7c-.935 2.522-1.873 5.042-2.813 7.563l-.79 2.134A259.432 259.432 0 0 1 270 223h-9l-1-9-4 9h-8c-1.775-7.636-2.534-15.181-3-23zM75 200h7l2 11 4-11h8l2 10 4-10h7c-.935 2.522-1.873 5.042-2.813 7.563l-.79 2.134A259.432 259.432 0 0 1 100 223h-9l-1-10-4 10h-8c-.505-3.083-1.003-6.166-1.5-9.25l-.434-2.645-.41-2.558-.38-2.349C75 204 75 204 75 200z" fill="#3e63a0"/><path d="M466 200c2.228-.109 4.458-.186 6.688-.25l3.761-.14c4.12.453 5.659 1.493 8.551 4.39 1.536 3.072 1.227 5.602 1 9-1.6 4.158-3.147 6.712-7 9-3.285 1.095-5.737 1.1-9.188 1.063l-3.292-.028L464 223c-.317-7.774.881-15.33 2-23z" fill="#4266a2"/><path d="M203 200a381.95 381.95 0 0 1 6.188-.188l3.48-.105c3.911.344 6.538 1.499 9.332 4.293.575 5.875.596 11.086-3 16-5.484 4.33-12.372 3.266-19 3 .663-7.724 1.765-15.348 3-23z" fill="#4064a1"/><path d="M310 200c2.061-.109 4.124-.186 6.188-.25l3.48-.14c3.972.465 5.52 1.614 8.332 4.39 1.536 3.072 1.227 5.602 1 9-1.278 3.621-2.664 5.664-5.375 8.375-5.453 2.445-10.738 1.94-16.625 1.625.466-7.819 1.225-15.364 3-23z" fill="#3f64a0"/><path d="M133 200c2.625 1.313 2.625 1.313 4 4 .644 4.924.651 9.355-1.188 14-3.445 3.802-6.275 5.186-11.375 5.438-3.302-.105-4.207-.265-6.937-2.313-2.73-3.867-2.817-6.373-2.5-11.125 3.34-8.965 8.872-11.432 18-10z" fill="#3e63a0"/><path d="M156.375 199.813l2.078-.038c3.74-.01 5.357.098 8.547 2.225.459 3.518.411 5.349-1.5 8.375L164 212l1 1c.233 1.682.413 3.371.563 5.063l.253 2.785L166 223c-2.333.042-4.667.04-7 0-1.968-1.968-1.662-5.348-2-8l-4-1v9h-7c.142-2.354.289-4.708.438-7.063.08-1.31.162-2.621.246-3.972.969-12.144.969-12.144 9.691-12.153zM410 200a787.82 787.82 0 0 1 7.313-.125c.69-.017 1.38-.034 2.091-.05 3.767-.037 5.38.031 8.596 2.175.459 3.518.411 5.349-1.5 8.375L425 212l1 1c.233 1.682.413 3.371.563 5.063l.253 2.785L427 223c-2.333.042-4.667.04-7 0-1.968-1.968-1.662-5.348-2-8l-3-1-1 9h-7c.307-3.271.621-6.542.938-9.813l.263-2.814.264-2.705.238-2.491C409 203 409 203 410 200z" fill="#3d629f"/><path d="M184 23h78v1l-3.637.044c-4.48.058-8.96.136-13.44.218-1.934.034-3.868.062-5.802.084-2.791.034-5.58.087-8.371.142l-2.593.02c-9.148.22-17.27 3.36-24.157 9.492-4.025 5.232-7.247 11.008-10 17-1-3-1-3-.562-5.063 1.107-5.785 1.489-10.977-1.063-16.374-2.586-2.79-4.873-4.13-8.375-5.563v-1z" fill="#5373aa"/><path d="M443.816 199.902c1.582.007 3.165.019 4.746.036l2.444.013c1.998.012 3.996.03 5.994.049l-1 5h-10v3h9l-1 6h-9v2l9 1v6h-17c0-5.475.153-10.115.937-15.437l.528-3.684c.8-4.306.745-3.859 5.351-3.977z" fill="#4568a3"/><path d="M340 200h17l-1 5h-10v3h9c.043 1.666.04 3.334 0 5-1 1-1 1-3.066 1.098l-2.497-.036-2.503-.027L345 214v3h9v6h-17c.502-7.868 1.278-15.31 3-23z" fill="#4467a2"/><path d="M395 200c2.625 1.688 2.625 1.688 4 4 .25 2.75.25 2.75 0 5h-6l-1-3h-5c-1.176 3.674-1.074 7.17-1 11 2.473-.344 2.473-.344 5-1l1-2h6c-.27 3.245-.826 4.792-2.938 7.313-4.222 2.326-8.338 2.732-13.062 1.687-2.869-2.1-3.858-3.3-4.566-6.805.011-9.31.011-9.31 2.941-12.882 4.568-4.024 8.7-4.001 14.625-3.313z" fill="#3d629f"/><path d="M382 23h38c-2.234 2.234-3.735 2.72-6.688 3.75C403.664 30.562 398.947 37.034 394 46a120.858 120.858 0 0 0-2 5h-1l.5-3.438C392.835 37.29 392.835 37.29 389 28c-2.266-1.617-4.484-2.766-7-4v-1z" fill="#4a6ca6"/><path d="M534 131h1v35c-5-2-5-2-7.027-2.816-3.983-1.556-7.7-2.65-11.973-3.184 2.119-2.119 4.235-4.217 6.438-6.25 6.25-6.708 8.962-14.036 11.562-22.75z" fill="#3e63a0"/><path d="M535 26v34c-2.32-2.32-2.67-3.828-3.625-6.938C528.359 44.478 523.278 37.456 516 32l2.668-.297 3.52-.453 3.48-.422c3.137-.78 6.66-4.828 9.332-4.828z" fill="#3d629f"/><g fill="#4165a1"><path d="M517 200h18v5h-6l-2 18h-7l1-17h-5l1-6zM287 200h13l-1 5h-3l-1 13h2v5h-13l1-5h3l-.063-3.688c-.005-3.232.275-6.161 1.063-9.312h-2v-5zM496 200h12v5h-3l-2 13h2v5h-12v-5h3l1-12-2-1 1-5z"/></g><path d="M178 200h7c-.141 2.271-.288 4.542-.438 6.813-.08 1.264-.162 2.529-.246 3.832C184 214 184 214 183 217h8v6h-16c.31-2.709.623-5.417.938-8.125l.263-2.305c.49-4.213 1.058-8.391 1.799-12.57z" fill="#4367a2"/><path d="M125 205c2.625.375 2.625.375 5 1 .37 7.385.37 7.385-1.5 10.5L127 218l-4-1a364.73 364.73 0 0 1-.125-4.875l-.07-2.742C123 207 123 207 125 205z" fill="#f6f8fa"/><path d="M210 205c1.675.286 3.344.618 5 1 .289 4.905.262 8.155-3 12h-4c.14-1.98.287-3.959.438-5.938.08-1.102.162-2.204.246-3.34C209 206 209 206 210 205z" fill="#eceff5"/><path d="M316 205l5 1c1.6 4.002.293 7.046-1 11h-5c-.143-8.571-.143-8.571 1-12z" fill="#f1f4f8"/><path d="M473 205l5 1c.054 1.458.093 2.916.125 4.375l.07 2.46C478 215 478 215 476 217h-4c-.082-4.161.018-7.947 1-12z" fill="#f7f9fb"/><path d="M155 205l5 1-1 3h-5z" fill="#d9e0ec"/><path d="M416 205h5l-1 4h-4v-4z" fill="#e4e9f2"/></svg>