<svg height="2500" width="2500" xmlns="http://www.w3.org/2000/svg" viewBox="0 0 40 40"><g fill="none" fill-rule="evenodd"><path d="M6 20.963l5.753 10.116c.146.256.324.486.527.687l6.143-10.803z" fill="#f04d44"/><path d="M27.794 31.08l5.753-10.117H21.124l6.144 10.803" fill="#fc7061"/><path d="M13.562 32.458c.276.078.564.118.858.118h10.707c.294 0 .582-.04.858-.118l-6.212-10.685z" fill="#fb8c7d"/><path d="M6 19.613l5.753-10.116c.146-.256.324-.486.527-.687l6.143 10.803z" fill="#df0500"/><path d="M27.794 9.497l5.753 10.116H21.124L27.268 8.81" fill="#fc7061"/><path d="M13.562 8.118A3.17 3.17 0 0 1 14.42 8h10.707c.294 0 .582.04.858.118l-6.212 10.685z" fill="#f73232"/><path d="M0 0h40v40H0z"/></g></svg>