<svg height="2500" viewBox="-.7 -.7 511.9 512" width="2500" xmlns="http://www.w3.org/2000/svg"><path d="m235 510.4c-33.8-3.9-57.4-10-83.2-21.5-29.5-13.1-54.9-31-78.3-55-32.8-33.7-53.9-71.4-64.9-116.2-4.9-19.6-6.6-32.2-7.3-53.3-2-60.7 16.3-117.3 53.5-165.4 9.1-11.7 28.7-31.6 40.7-41.3 29.8-24 62.1-40.1 98.8-49.1 19.6-4.9 32.2-6.6 53.3-7.3 60.7-2 117.3 16.3 165.4 53.5 11.6 9 31.6 28.7 41.1 40.5 29.2 36.2 47.4 77.5 54.5 124.2 2.6 17 2.6 56 0 73-6.9 45.5-24.7 86.5-52.6 122-8.9 11.3-27.7 30.3-39.3 39.6-35.9 29-77.8 47.4-123.7 54.4-10 1.6-49.9 2.8-58 1.9zm-60-123.4v-13h-18v-3.4c0-2.7 1.6-5.3 8.1-13.5 10.9-13.7 11.2-13.7 24.3-.1 8.3 8.7 9.6 10.5 9.6 13.5 0 3.3-.1 3.4-4.7 3.7l-4.8.3v25l37.8.3 37.7.2v-26h-13.7l-17.9-19.1c-16.9-17.9-17.9-19.2-17.9-22.9 0-3.5 1.5-5.9 13.9-22l13.8-18h17.9l-.3-12.7-.3-12.8-29.7-.3-29.8-.2v26h12v3.1c0 2.2-1.7 5.3-6 11-5.4 7-6.4 7.9-9.3 7.8-2.8 0-4.1-1.1-9.4-7.7-4.9-5.9-6.3-8.4-6.3-10.9 0-3 .3-3.3 3-3.3h3v-26l-37.2.2-37.3.3v25l7.8.5 7.8.5 15.4 16.5c14.1 15.1 15.4 16.8 15.5 20.2 0 3.4-1.5 5.4-18.2 24.2l-18.3 20.5h-7.2l-7.3.1v26h66zm228-14.5v-27.6l-9.6.3-9.5.3-4.7 14.3-4.6 14.2h-31.6v-3.2c0-2.7 5.1-10.1 29.1-42.1l29-38.9-.3-11.6-.3-11.7h-115l-.3 26.3-.2 26.2h19.8l3.3-13.5 3.3-13.5h32.6v3.1c0 2.5-5.6 10.4-29.5 41.7l-29.5 38.7v24.5h118zm-207-146.6c8.5-3.8 13.9-11 20.1-26.7l3.8-9.7h72.4l1.8 5.3c5.6 16.5 13.3 27.4 22.1 31.2 4.7 2 5.8 2.2 9.8 1.1 10.5-2.8 16-9.5 18.7-22.7 1.4-6.8 1.4-9.9.4-23.9-1.6-21.1-3.7-36.5-6.1-44.5-3.6-12.1-12.7-20.8-24.1-23.2-4.8-1-6.3-.9-11 .6-3 1-7.5 3.3-10.2 5.2l-4.7 3.4h-66l-4.7-3.4c-2.7-1.9-7.2-4.2-10.2-5.2-4.7-1.5-6.2-1.6-11-.6-11.2 2.4-20.2 10.9-24.1 22.7-4.1 12.6-8 55.7-6.1 67.1 2.2 13 7.5 20.4 16.7 23.8 5.3 2 7.2 1.9 12.4-.5z"/><path d="m181.6 223c-4.2-1.3-7.3-4.6-9-9.8-2.9-8.4-1.9-43.4 2-69.5 2.9-19.5 10.6-27.7 26.2-27.7 8.6 0 13.8 1.8 19.1 6.6l4.9 4.4h62.4l4.9-4.4c6.9-6.2 17.9-8.4 28.4-5.5 5.8 1.6 12.6 9 14.8 15.9 3.8 12.2 7.3 55.3 5.7 70.3-1.5 14.7-5.2 19.5-15.8 20.4-7.6.7-10.3 0-14.7-3.8-4.7-4.2-8.7-11.4-13-24.1l-3.7-10.8h-75.6l-2.8 8.3c-5.4 16.4-11.1 25.9-17.5 29.3-3 1.5-11.7 1.7-16.3.4zm126.1-55.6c.3-.8-.2-2.3-1.1-3.2-1.5-1.5-1.7-1.5-3.2 0-2.1 2.1-1.1 4.8 1.6 4.8 1.1 0 2.3-.7 2.7-1.6zm-97.3-.7c1.6-1.1 1.5-1.4-1.2-4l-2.8-2.7-2.9 3c-2.5 2.6-2.7 3.2-1.5 4 2.1 1.4 6.3 1.2 8.4-.3zm-14.9-17.7c-3-2.9-3.7-3.2-4.5-2-1.3 2-1.3 6.2 0 9.6l1.1 2.7 3.5-3.4 3.4-3.3zm26.5 3.6c0-1.2-.3-3.1-.6-4.4-.7-2.3-.7-2.3-4 .9l-3.4 3.3 2.7 2.8c2.6 2.7 2.9 2.8 4 1.2.7-1 1.3-2.7 1.3-3.8zm71.9 2.5c.8-1.4.6-2.2-.8-3.5-1.6-1.5-1.9-1.5-3.6.4-1.4 1.6-1.5 2.2-.5 3.5 1.7 2 3.7 1.9 4.9-.4zm26.1.4c1.7-2 .5-4.5-2-4.5-1.1 0-2.3.7-2.6 1.5-.6 1.5 1.1 4.5 2.6 4.5.4 0 1.3-.7 2-1.5zm-108.7-18.2c-2-1.5-8.1-1.7-10.3-.3-1.2.8-.9 1.5 2 4.5l3.4 3.5 3.3-3.2c3.1-3 3.2-3.4 1.6-4.5zm96.4 5.1c.3-.8-.2-2.3-1.1-3.2-1.5-1.5-1.7-1.5-3.2 0-2.1 2.1-1.1 4.8 1.6 4.8 1.1 0 2.3-.7 2.7-1.6z"/><g fill="#fff"><path d="m106 387v-16l7.3-.1h7.2l17.9-20.1c9.8-11 17.9-20.6 18-21.3 0-.7-6.8-8.7-15.3-17.8l-15.4-16.6-7.6-.3-7.6-.3v-31l40.3-.3 40.2-.2v31.9l-3 .3-3.1.3 6.5 7.8 6.5 7.8 6.1-8.1 6.1-8h-12.1v-32l32.8.2 32.7.3.3 15.8.3 15.7h-17.9l-13.8 18c-7.7 10-13.9 18.5-13.9 19s8.1 9.5 17.9 19.9l17.9 19.1h13.7v32l-40.7-.2-40.8-.3v-31l5-.5 5-.5-10.1-10.4-10-10.4-8.3 10.4-8.3 10.4 9.1.3 9.1.3v31.9h-72zm176 .8v-15.3l13.8-18c7.6-9.9 20.8-27.3 29.5-38.7l15.8-20.8h-26.7l-3.3 13.5-3.3 13.5h-25.8l.2-29.2.3-29.3h121l.3 14.7.3 14.6-28.2 37.9c-15.5 20.8-28.6 38.4-29.2 39.1-.7.9 1.8 1.2 12 1.2h12.9l4.6-14.2 4.7-14.3 12.5-.3 12.6-.3v61.1h-124zm-101.4-158.4c-9.5-3.5-14.7-11.1-16.8-24.7-.9-6.2-.9-11.7.1-26 2.3-34.3 4.9-47.2 11.1-56.2 10.2-14.8 30.8-17.9 46.3-6.9l4.7 3.4h60l4.7-3.4c15.4-11 36.1-7.9 46.3 6.8 1.7 2.5 3.8 6.5 4.6 8.8 2.3 6.3 5.1 27 6.5 47.6 1.5 20.8.6 30.2-3.7 39-7.6 15.5-29.1 17.7-40.8 4.1-4-4.7-9.5-15.3-12.5-24.1l-1.8-5.3h-66.4l-3.8 9.7c-4.2 10.5-8.4 17.8-12.8 22-6.5 6.2-17.1 8.4-25.7 5.2zm14.3-9.8c6.4-3.4 12.1-12.9 17.5-29.3l2.8-8.3h81.6l3.7 10.8c7.2 21.1 14.3 29.2 24.1 27.7 10.1-1.5 13.6-9 13.5-28.6-.1-22.9-3.6-51.6-7.2-59.4-6.8-14.5-23.7-17.8-35.8-6.9l-4.9 4.4h-68.4l-4.9-4.4c-9.1-8.1-21.1-8.7-29.5-1.4-5.3 4.6-8.2 11.3-9.8 22.5-3.9 25.9-4.8 55.4-2 63.5 1.7 5.2 4.8 8.5 9 9.8 4.4 1.3 7.2 1.2 10.3-.4z"/><path d="m300 171c-2.7-2.7-2.6-7.1.3-9.8 3-2.8 6.8-2.8 9.5.1 4.4 4.6 1.4 11.7-4.8 11.7-1.7 0-3.9-.9-5-2zm-102.5-1.7c-1.6-.8-3.2-1.7-3.4-2-.7-.5 11.2-12.3 12.4-12.3 1.4 0 11.5 10.2 11.5 11.6 0 1.9-7 4.4-12.3 4.4-2.9-.1-6.5-.8-8.2-1.7zm-7.8-6.6c-4.1-6.2-4.2-15.3-.2-21.3l1.7-2.6 6.4 6.3c3.5 3.5 6.4 6.8 6.4 7.4 0 1.1-11.1 12.5-12.2 12.5-.3 0-1.3-1.1-2.1-2.3zm24.5-4c-2.9-2.9-5.2-5.7-5.2-6.3 0-.5 2.7-3.6 6-6.9 4.5-4.4 6.3-5.6 7.1-4.8 2 2 3.8 10.8 2.9 14.4-1.1 4.8-3.1 8.9-4.4 8.9-.7 0-3.5-2.4-6.4-5.3zm73 .6c-5.2-4.4-2.4-12.3 4.2-12.3 6.4 0 9.2 7.4 4.6 12-2.5 2.5-6.1 2.6-8.8.3zm26.3-.8c-4.6-4.5-1.9-11.5 4.5-11.5 6.5 0 9.4 7.9 4.4 11.9-3.5 2.7-5.9 2.6-8.9-.4zm-113.8-14.3c-3.1-3.2-5.7-6.3-5.7-7 0-1.5 4.5-3.8 9.1-4.7 4.3-.8 10.8.8 14.1 3.5l2.3 1.9-6 6c-3.3 3.4-6.4 6.1-7 6.1s-3.6-2.6-6.8-5.8zm100.3 1.8c-2.7-2.7-2.5-6.6.5-9.5 3-3 5.4-3.1 8.9-.4 5 4 2.1 11.9-4.4 11.9-1.7 0-3.9-.9-5-2z"/></g></svg>