<svg height="2500" viewBox="-.233 15.184 256.432 225.535" width="2500" xmlns="http://www.w3.org/2000/svg"><g stroke-width="2.569"><path d="m13.3 231.914c-6.636-4.835-12.4-9.026-12.807-9.315-.726-.515-.717-1.038.482-27.864.673-15.036 1.356-27.456 1.52-27.6.162-.144 6.426-1.103 13.919-2.132 7.493-1.03 13.816-2.06 14.052-2.292.278-.274.727-7.53 1.278-20.662.467-11.132.844-20.697.836-21.257-.011-.883-1.702-2.242-12.836-10.314l-12.822-9.298-.022-2.096c-.035-3.282 2.718-63.635 2.911-63.828.126-.125 133.83-19.033 141.163-19.962.858-.11 3.378 1.56 13.602 9.013 6.902 5.03 12.711 9.259 12.91 9.395.221.151-.06 9.756-.719 24.625-.594 13.408-.966 24.492-.826 24.631.14.14 12.422-1.453 27.294-3.539s27.263-3.663 27.537-3.504c.752.436 24.561 17.735 25.082 18.223.345.323.104 8.256-1 33.017-.798 17.926-1.577 32.718-1.73 32.87s-31.835 4.716-70.405 10.139c-38.569 5.423-70.166 9.9-70.216 9.95s-.568 11.035-1.152 24.412c-.585 13.377-1.078 24.35-1.098 24.386-.061.114-83.532 11.807-84.223 11.8-.365-.005-6.094-3.964-12.73-8.798zm29.927-22.915c19.029-2.665 34.66-4.907 34.736-4.983.196-.197 1.993-40.521 1.815-40.737-.121-.148-71.064 9.668-71.19 9.85-.058.085-1.734 39.215-1.721 40.193.008.634.21.787.887.672.481-.082 16.444-2.33 35.473-4.995zm-30.723-6.601c-.995-.995-1.065-1.352-.956-4.88.074-2.393.356-2.714 2.396-2.722l1.423-.006-.215 2.367-.214 2.366 1.127-.128 1.127-.129.346-4.39c.19-2.415.263-4.472.163-4.573-.101-.1-1.011-.338-2.024-.527-2.225-.415-3.578-1.594-3.919-3.412-.778-4.147 3.799-7.855 7.689-6.23 2.27.95 2.36 1.401 2.044 10.348-.173 4.928-.47 8.454-.772 9.178-.27.646-1.137 1.742-1.925 2.434-1.208 1.06-1.741 1.259-3.384 1.259-1.552 0-2.146-.195-2.906-.955zm5.501-16.754c.351-1.398-.06-2.142-1.182-2.142-.718 0-1.043.258-1.222.972-.35 1.398.06 2.142 1.183 2.142.718 0 1.042-.258 1.221-.972zm6.406 15.062c-.872-.872-1.186-1.548-1.186-2.555 0-1.604.095-1.686 2.141-1.864 1.367-.118 1.572-.028 1.681.741.176 1.236 1.541 1.153 2.027-.123.208-.549.38-2.65.38-4.67 0-3.631-.012-3.673-.948-3.673-.614 0-1.036.282-1.2.8-.263.827-1.618 1.536-2.938 1.536-.691 0-.75-.282-.708-3.406.025-1.873.157-4.542.292-5.93l.247-2.525 3.308-.463c1.82-.255 3.965-.566 4.768-.691l1.46-.228v1.909c0 2.192-.005 2.195-3.63 2.583l-2.598.278v1.33c0 1.196.077 1.29.753.929 1.354-.725 3.107-.47 4.186.608l1.012 1.012-.272 5.492c-.22 4.45-.421 5.755-1.056 6.87-1.096 1.928-2.488 2.837-4.664 3.046-1.682.162-1.989.06-3.055-1.006zm10.88-2.413c0-2.125-.246-1.953 3.017-2.108.572-.028.659.248.542 1.719-.157 1.978-.494 2.32-2.293 2.33-1.26.005-1.265-.004-1.265-1.941zm7.366-.227c-.846-.9-.935-1.31-.864-3.955.087-3.233.319-3.587 2.354-3.597l1.265-.006v2.362c0 2.346.006 2.36 1.07 2.238 1.07-.124 1.07-.124 1.364-4.21.162-2.248.215-4.297.118-4.552-.097-.256-.842-.586-1.656-.734-2.388-.432-3.515-1.194-4.016-2.712-1.389-4.207 2.821-8.484 7.092-7.205 2.565.77 2.782 1.677 2.469 10.311-.148 4.082-.434 8.06-.635 8.84-.22.858-.978 1.97-1.919 2.821-1.375 1.242-1.793 1.404-3.626 1.404-1.724 0-2.23-.168-3.016-1.005zm5.588-16.777c.28-1.468-.044-2.068-1.116-2.068-.66 0-.994.277-1.168.972-.348 1.384.057 2.141 1.144 2.141.711 0 .99-.254 1.14-1.045zm8.655-.867c.137-3.55.309-6.653.382-6.894s.98-.554 2.014-.696a66.169 66.169 0 0 0 2.977-.475c1.044-.206 1.092-.153.973 1.073-.111 1.152-.291 1.328-1.681 1.65-1.924.445-2.128.743-2.135 3.111l-.006 1.89 1.557-.149c1.529-.145 1.557-.125 1.557 1.123 0 1.175-.114 1.288-1.513 1.512-1.466.235-1.52.299-1.759 2.102-.226 1.707-.345 1.875-1.43 2.035l-1.185.173zm7.063-.715c.28-7.006.484-7.882 1.842-7.882.83 0 1.06.335 1.81 2.628.471 1.445.968 2.75 1.103 2.901.136.152.823-1.187 1.527-2.974 1.17-2.97 1.383-3.265 2.472-3.425l1.192-.175-.28 6.653c-.154 3.66-.359 6.784-.454 6.945-.096.16-.69.292-1.321.292h-1.148l.222-2.822c.177-2.24.129-2.674-.232-2.103-.25.395-.548 1.752-.663 3.016-.117 1.296-.397 2.3-.64 2.303-.238.004-.827.111-1.309.24-.833.224-.877.124-.903-2.048-.043-3.616-.691-4.39-.724-.866-.028 3.109-.225 3.448-1.998 3.448-.707 0-.73-.28-.496-6.13zm66.495-31.575 90.69-12.74.118-1.926c.169-2.777 2.292-49.79 2.252-49.856-.018-.03-5.989.785-13.268 1.81s-48.527 6.815-91.663 12.868-78.506 11.066-78.598 11.139c-.16.127-2.304 45.668-2.343 49.778-.019 1.937.002 1.973 1.051 1.822.589-.085 41.881-5.888 91.761-12.895zm-82.899 1.84c.092-.718.458-8.575.815-17.459s.717-16.23.8-16.325c.082-.095 3.605-.663 7.827-1.263 6.446-.916 8.009-1.023 9.744-.671 4.52.917 6.205 4.137 5.78 11.05-.131 2.146-.51 4.812-.842 5.927-1.347 4.53-4.807 7.186-10.595 8.132l-4.68.764-1.266.206v3.236c0 1.78-.108 4.03-.241 4.999l-.242 1.762-1.996.247c-1.098.136-2.733.35-3.633.475l-1.637.227zm12.52-18.076c2.776-.35 4.262-1.335 4.768-3.158.611-2.2.508-4.871-.228-5.922-.613-.876-.787-.906-3.795-.668-5.177.411-4.903.183-4.908 4.085-.002 1.849-.116 4.042-.254 4.875l-.25 1.514 1.325-.235c.728-.13 2.232-.35 3.342-.49zm20.304 13.065c-1.775-.937-2.936-2.778-3.462-5.489-.38-1.95-.049-14.576.636-24.326l.222-3.16 3.5-.478c1.924-.263 3.55-.418 3.612-.343.062.074-.142 5.702-.453 12.506-.528 11.555-.522 12.437.096 13.38.622.95.808 1 3.071.818 3.009-.242 4.695-1.085 5.229-2.615.225-.646.602-5.95.837-11.786s.514-11.33.62-12.208l.194-1.598 3.337-.467c1.836-.256 3.437-.367 3.559-.246.419.42-.746 24.1-1.308 26.589-1.291 5.717-4.046 8.418-9.836 9.646-3.785.802-8.1.705-9.854-.223zm24.366-4.177c.117-1.23.495-9.069.84-17.418.346-8.349.663-15.22.706-15.268.043-.05 1.688-.327 3.655-.618l3.577-.53v1.007c0 .554-.268 6.681-.594 13.616s-.516 12.685-.422 12.779c.16.16 5.208-.466 7.146-.886.86-.186.876-.122.876 3.493 0 2.025-.158 3.78-.352 3.9-.424.262-13.333 2.163-14.689 2.163-.93 0-.95-.063-.743-2.238zm23.958-2.09c-1.442-.571-3.438-2.65-3.854-4.012-.578-1.895-.874-4.724-.606-5.792.273-1.09.724-1.254 4.5-1.641l2.571-.264.216 1.612c.342 2.545.825 2.883 3.728 2.612 3.158-.295 5.193-1.269 5.696-2.726.62-1.797-.876-2.778-5.118-3.354-4.715-.64-6.303-1.076-8.04-2.207-2.893-1.883-3.748-6.154-2.22-11.097 1.299-4.207 4.567-6.692 10.434-7.936 5.345-1.133 8.6-.607 10.712 1.73 1.423 1.575 2.22 4.107 2.22 7.049 0 1.827-.444 2.127-3.697 2.499-1.284.146-2.642.355-3.016.464-.57.165-.682-.062-.682-1.386 0-1.094-.255-1.838-.826-2.41-.722-.72-1.104-.793-3.017-.568-2.387.28-4.645 1.233-5.237 2.21-.578.955-.004 2.503 1.118 3.014.555.253 2.743.72 4.864 1.039 4.746.713 6.644 1.446 8.132 3.141 1.88 2.141 2.336 4.64 1.535 8.417-1.14 5.376-4.218 8.087-10.762 9.474-2.996.635-7.222.7-8.651.133zm23.903-9.197c.145-3.8.437-8.31.648-10.023.865-7.008 3.25-12.317 7.537-16.772l2.748-2.856 2.563-.247 2.564-.248 2.336 2.163c2.57 2.379 4.402 5.462 5.237 8.813.546 2.19.654 17.754.147 21.269-.224 1.551-.295 1.62-1.869 1.834l-3.518.48-1.882.258.13-4.915c.125-4.7.096-4.915-.648-4.907-1.385.013-8.057 1.108-8.314 1.365-.137.136-.337 2.38-.444 4.985l-.194 4.736-2.53.445c-1.392.244-3.035.463-3.653.486l-1.122.042zm12.684-12.359c2.034-.313 3.852-.573 4.04-.576.424-.009.025-2.722-.749-5.09-.69-2.113-2.567-4.512-3.216-4.11-2.019 1.247-5.8 10.374-4.29 10.353.285-.004 2.182-.263 4.215-.577zm15.727 11.58c.132-2.087.511-9.925.842-17.418s.723-13.734.872-13.87c.148-.135 3.806-.728 8.129-1.316 6.68-.91 8.13-1.002 9.67-.615 2.462.62 3.575 1.424 4.576 3.308.723 1.36.84 2.174.797 5.532-.06 4.609-.822 6.82-2.936 8.506l-1.337 1.067 1.066 1.065c.586.586 1.242 1.75 1.458 2.586.477 1.844 1.324 11.09 1.042 11.372-.36.36-7.005 1.216-7.249.933-.13-.15-.436-2.603-.678-5.448-.58-6.794-.623-6.867-3.811-6.54-1.376.14-3.022.36-3.657.487l-1.157.231-.05 3.552c-.029 1.953-.16 4.864-.293 6.47l-.24 2.917-3.114.459c-1.713.252-3.352.472-3.643.488-.426.023-.482-.703-.287-3.766zm12.653-17.641c2.063-.323 3.137-.703 3.764-1.33 1.09-1.09 1.62-4.117.972-5.541l-.456-1-3.94.24c-2.167.131-4.065.376-4.217.544-.152.167-.396 2.018-.543 4.112l-.266 3.809.9-.19c.496-.106 2.2-.395 3.786-.644zm-162.08-20.41c56.539-7.884 111.114-15.623 111.246-15.775.135-.157 1.457-29.076 2.062-45.136.118-3.104.282-5.862.365-6.13.09-.286-.195-.487-.69-.487-.865 0-128.472 17.884-128.598 18.023-.038.042-.522 10.586-1.075 23.43-.553 12.845-1.1 24.557-1.214 26.026l-.209 2.672 1.272-.225c.7-.124 8.278-1.203 16.84-2.397zm-7.987-10.38c-.04-2.74 1.33-30.549 1.515-30.746.405-.433 11.208-1.88 14.036-1.88 3.052 0 4.711.856 6.037 3.115.661 1.126.787 1.95.729 4.779-.087 4.191-.525 5.6-2.27 7.291-1.342 1.302-1.347 1.317-.602 2.113.413.44.927 1.266 1.142 1.835.49 1.293 1.354 10.44 1.018 10.781-.299.304-6.15 1.19-6.397.968-.096-.086-.372-2.348-.614-5.027-.553-6.118-.618-6.2-4.45-5.67-1.55.215-2.874.448-2.944.517-.07.07-.271 2.653-.448 5.741-.367 6.397.017 5.853-4.525 6.42-1.719.215-2.221.161-2.227-.237zm11.458-18.64c1.302-.229 2.695-.657 3.095-.953.928-.685 1.525-3.735 1.001-5.114-.39-1.026-.39-1.026-3.654-.775-4.704.362-4.497.177-4.497 3.99 0 3.744-.205 3.6 4.055 2.852zm14.32 8.906c.555-13.505 1.98-18.028 7.556-23.976 1.716-1.83 2.116-2.058 4.156-2.361 2.104-.313 2.355-.264 3.712.718 1.993 1.445 3.525 3.335 4.576 5.646 1.538 3.382 1.828 6.26 1.533 15.18-.149 4.495-.345 8.247-.435 8.337s-1.588.37-3.328.623l-3.164.459.195-4.418c.225-5.102.77-4.657-4.762-3.891l-3.309.458-.24 4.47c-.133 2.46-.264 4.493-.292 4.518-.028.026-.971.164-2.095.306s-2.569.351-3.211.465l-1.168.206zm11.985-10.825c1.391-.212 2.661-.386 2.822-.387 1.03-.01-.512-5.422-2.027-7.118-1.104-1.236-1.118-1.24-1.936-.499-1.13 1.022-3.069 5.116-3.376 7.127-.253 1.653-.252 1.655.867 1.458.616-.109 2.258-.37 3.65-.581zm13.253 13.338c.3-10.799 1.488-30.583 1.85-30.807.945-.583 13.567-2.084 15.205-1.808 2.06.348 3.656 1.676 4.57 3.803.612 1.42.699 2.567.611 8.078-.162 10.187-.964 13.844-3.643 16.613-1.863 1.925-4.266 2.726-10.846 3.614-3.308.447-6.409.899-6.89 1.004-.655.143-.871.017-.857-.497zm14.304-9.19c.906-.907.969-1.284 1.293-7.698.187-3.71.24-7.056.12-7.437-.41-1.293-1.532-1.54-4.813-1.06l-3.068.448-.22 2.588c-.121 1.423-.331 5.413-.467 8.866l-.246 6.277 3.224-.516c2.468-.395 3.447-.74 4.177-1.469zm11.366 4.601c0-1.56 1.115-26.836 1.27-28.794.091-1.15.136-1.173 3.206-1.604 1.713-.241 3.18-.38 3.26-.31s-.14 6.397-.49 14.06c-.349 7.662-.633 14.664-.632 15.56.003 1.866-.035 1.888-3.987 2.285l-2.627.264zm15.468-1.522c-2.525-.9-3.46-2.139-4.192-5.556-.58-2.704.144-15.622 1.027-18.331.844-2.588 3.274-5.391 5.502-6.346 2.116-.907 8.018-1.724 9.902-1.37 1.834.344 3.248 1.488 4.313 3.49.803 1.512.853 2.051.758 8.197-.119 7.646-.561 11.314-1.667 13.814-1.613 3.649-4.07 5.267-9.279 6.113-4.042.656-4.497.655-6.364-.01zm9.207-7.968c1.1-1.033 1.243-1.933 1.596-10.048.213-4.898.184-5.183-.613-5.98-.72-.72-1.106-.8-2.799-.575-2.901.384-4.082 1.13-4.512 2.847-.6 2.391-.917 13.22-.416 14.157.39.727.713.796 3.105.661 2.134-.12 2.863-.333 3.639-1.062z"/><path d="m43.227 209c19.029-2.666 34.66-4.908 34.736-4.984.196-.197 1.993-40.521 1.815-40.737-.121-.148-71.064 9.668-71.19 9.85-.058.085-1.734 39.215-1.721 40.193.008.634.21.787.887.672.481-.082 16.444-2.33 35.473-4.995zm-30.723-6.602c-.995-.995-1.065-1.352-.956-4.88.074-2.393.356-2.714 2.396-2.722l1.423-.006-.215 2.367-.214 2.366 1.127-.128 1.127-.129.346-4.39c.19-2.415.263-4.472.163-4.573-.101-.1-1.011-.338-2.024-.527-2.225-.415-3.578-1.594-3.919-3.412-.778-4.147 3.799-7.855 7.689-6.23 2.27.95 2.36 1.401 2.044 10.348-.173 4.928-.47 8.454-.772 9.178-.27.646-1.137 1.742-1.925 2.434-1.208 1.06-1.741 1.259-3.384 1.259-1.552 0-2.146-.195-2.906-.955zm5.501-16.754c.351-1.398-.06-2.142-1.182-2.142-.718 0-1.043.258-1.222.972-.35 1.398.06 2.142 1.183 2.142.718 0 1.042-.258 1.221-.972zm6.406 15.062c-.872-.872-1.186-1.548-1.186-2.555 0-1.604.095-1.686 2.141-1.864 1.367-.118 1.572-.028 1.681.741.176 1.236 1.541 1.153 2.027-.123.208-.549.38-2.65.38-4.67 0-3.631-.012-3.673-.948-3.673-.614 0-1.036.282-1.2.8-.263.827-1.618 1.536-2.938 1.536-.691 0-.75-.282-.708-3.406.025-1.873.157-4.542.292-5.93l.247-2.525 3.308-.463c1.82-.255 3.965-.566 4.768-.691l1.46-.228v1.909c0 2.192-.005 2.195-3.63 2.583l-2.598.278v1.33c0 1.196.077 1.29.753.929 1.354-.725 3.107-.47 4.186.608l1.012 1.012-.272 5.492c-.22 4.45-.421 5.755-1.056 6.87-1.096 1.928-2.488 2.837-4.664 3.046-1.682.162-1.989.06-3.055-1.006zm10.88-2.413c0-2.125-.246-1.953 3.017-2.108.572-.028.659.248.542 1.719-.157 1.978-.494 2.32-2.293 2.33-1.26.005-1.265-.004-1.265-1.941zm7.366-.227c-.846-.9-.935-1.31-.864-3.955.087-3.233.319-3.587 2.354-3.597l1.265-.006v2.362c0 2.346.006 2.36 1.07 2.238 1.07-.124 1.07-.124 1.364-4.21.162-2.248.215-4.297.118-4.552-.097-.256-.842-.586-1.656-.734-2.388-.432-3.515-1.194-4.016-2.712-1.389-4.207 2.821-8.484 7.092-7.205 2.565.77 2.782 1.677 2.469 10.311-.148 4.082-.434 8.06-.635 8.84-.22.858-.978 1.97-1.919 2.821-1.375 1.242-1.793 1.404-3.626 1.404-1.724 0-2.23-.168-3.016-1.005zm5.588-16.777c.28-1.468-.044-2.068-1.116-2.068-.66 0-.994.277-1.168.972-.348 1.384.057 2.141 1.144 2.141.711 0 .99-.254 1.14-1.045zm8.655-.867c.137-3.55.309-6.653.382-6.894s.98-.554 2.014-.696a66.169 66.169 0 0 0 2.977-.475c1.044-.206 1.092-.153.973 1.073-.111 1.152-.291 1.328-1.681 1.65-1.924.445-2.128.743-2.135 3.111l-.006 1.89 1.557-.149c1.529-.145 1.557-.125 1.557 1.123 0 1.175-.114 1.288-1.513 1.512-1.466.235-1.52.299-1.759 2.102-.226 1.707-.345 1.875-1.43 2.035l-1.185.173zm7.063-.715c.28-7.006.484-7.882 1.842-7.882.83 0 1.06.335 1.81 2.628.471 1.445.968 2.75 1.103 2.901.136.152.823-1.187 1.527-2.974 1.17-2.97 1.383-3.265 2.472-3.425l1.192-.175-.28 6.653c-.154 3.66-.359 6.784-.454 6.945-.096.16-.69.292-1.321.292h-1.148l.222-2.822c.177-2.24.129-2.674-.232-2.103-.25.395-.548 1.752-.663 3.016-.117 1.296-.397 2.3-.64 2.303-.238.004-.827.111-1.309.24-.833.224-.877.124-.903-2.048-.043-3.616-.691-4.39-.724-.866-.028 3.109-.225 3.448-1.998 3.448-.707 0-.73-.28-.496-6.13zm66.495-31.575 90.69-12.74.118-1.926c.169-2.777 2.292-49.79 2.252-49.856-.018-.03-5.989.785-13.268 1.81s-48.527 6.815-91.663 12.868-78.506 11.066-78.598 11.139c-.16.127-2.304 45.668-2.343 49.778-.019 1.937.002 1.973 1.051 1.822.589-.085 41.881-5.888 91.761-12.895zm-82.899 1.84c.092-.718.458-8.575.815-17.459s.717-16.23.8-16.325c.082-.095 3.605-.663 7.827-1.263 6.446-.916 8.009-1.023 9.744-.671 4.52.917 6.205 4.137 5.78 11.05-.131 2.146-.51 4.812-.842 5.927-1.347 4.53-4.807 7.186-10.595 8.132l-4.68.764-1.266.206v3.236c0 1.78-.108 4.03-.241 4.999l-.242 1.762-1.996.247c-1.098.136-2.733.35-3.633.475l-1.637.227zm12.52-18.076c2.776-.35 4.262-1.335 4.768-3.158.611-2.2.508-4.871-.228-5.922-.613-.876-.787-.906-3.795-.668-5.177.411-4.903.183-4.908 4.085-.002 1.849-.116 4.042-.254 4.875l-.25 1.514 1.325-.235c.728-.13 2.232-.35 3.342-.49zm20.304 13.065c-1.775-.937-2.936-2.778-3.462-5.489-.38-1.95-.049-14.576.636-24.326l.222-3.16 3.5-.478c1.924-.263 3.55-.418 3.612-.343.062.074-.142 5.702-.453 12.506-.528 11.555-.522 12.437.096 13.38.622.95.808 1 3.071.818 3.009-.242 4.695-1.085 5.229-2.615.225-.646.602-5.95.837-11.786s.514-11.33.62-12.208l.194-1.598 3.337-.467c1.836-.256 3.437-.367 3.559-.246.419.42-.746 24.1-1.308 26.589-1.291 5.717-4.046 8.418-9.836 9.646-3.785.802-8.1.705-9.854-.223zm24.366-4.177c.117-1.23.495-9.069.84-17.418.346-8.349.663-15.22.706-15.268.043-.05 1.688-.327 3.655-.618l3.577-.53v1.007c0 .554-.268 6.681-.594 13.616s-.516 12.685-.422 12.779c.16.16 5.208-.466 7.146-.886.86-.186.876-.122.876 3.493 0 2.025-.158 3.78-.352 3.9-.424.262-13.333 2.163-14.689 2.163-.93 0-.95-.063-.743-2.238zm23.958-2.09c-1.442-.571-3.438-2.65-3.854-4.012-.578-1.895-.874-4.724-.606-5.792.273-1.09.724-1.254 4.5-1.641l2.571-.264.216 1.612c.342 2.545.825 2.883 3.728 2.612 3.158-.295 5.193-1.269 5.696-2.726.62-1.797-.876-2.778-5.118-3.354-4.715-.64-6.303-1.076-8.04-2.207-2.893-1.883-3.748-6.154-2.22-11.097 1.299-4.207 4.567-6.692 10.434-7.936 5.345-1.133 8.6-.607 10.712 1.73 1.423 1.575 2.22 4.107 2.22 7.049 0 1.827-.444 2.127-3.697 2.499-1.284.146-2.642.355-3.016.464-.57.165-.682-.062-.682-1.386 0-1.094-.255-1.838-.826-2.41-.722-.72-1.104-.793-3.017-.568-2.387.28-4.645 1.233-5.237 2.21-.578.955-.004 2.503 1.118 3.014.555.253 2.743.72 4.864 1.039 4.746.713 6.644 1.446 8.132 3.141 1.88 2.141 2.336 4.64 1.535 8.417-1.14 5.376-4.218 8.087-10.762 9.474-2.996.635-7.222.7-8.651.133zm23.903-9.197c.145-3.8.437-8.31.648-10.023.865-7.008 3.25-12.317 7.537-16.772l2.748-2.856 2.563-.247 2.564-.248 2.336 2.163c2.57 2.379 4.402 5.462 5.237 8.813.546 2.19.654 17.754.147 21.269-.224 1.551-.295 1.62-1.869 1.834l-3.518.48-1.882.258.13-4.915c.125-4.7.096-4.915-.648-4.907-1.385.013-8.057 1.108-8.314 1.365-.137.136-.337 2.38-.444 4.985l-.194 4.736-2.53.445c-1.392.244-3.035.463-3.653.486l-1.122.042zm12.684-12.359c2.034-.313 3.852-.573 4.04-.576.424-.009.025-2.722-.749-5.09-.69-2.113-2.567-4.512-3.216-4.11-2.019 1.247-5.8 10.374-4.29 10.353.285-.004 2.182-.263 4.215-.577zm15.727 11.58c.132-2.087.511-9.925.842-17.418s.723-13.734.872-13.87c.148-.135 3.806-.728 8.129-1.316 6.68-.91 8.13-1.002 9.67-.615 2.462.62 3.575 1.424 4.576 3.308.723 1.36.84 2.174.797 5.532-.06 4.609-.822 6.82-2.936 8.506l-1.337 1.067 1.066 1.065c.586.586 1.242 1.75 1.458 2.586.477 1.844 1.324 11.09 1.042 11.372-.36.36-7.005 1.216-7.249.933-.13-.15-.436-2.603-.678-5.448-.58-6.794-.623-6.867-3.811-6.54-1.376.14-3.022.36-3.657.487l-1.157.231-.05 3.552c-.029 1.953-.16 4.864-.293 6.47l-.24 2.917-3.114.459c-1.713.252-3.352.472-3.643.488-.426.023-.482-.703-.287-3.766zm12.653-17.641c2.063-.323 3.137-.703 3.764-1.33 1.09-1.09 1.62-4.117.972-5.541l-.456-1-3.94.24c-2.167.131-4.065.376-4.217.544-.152.167-.396 2.018-.543 4.112l-.266 3.809.9-.19c.496-.106 2.2-.395 3.786-.644zm-162.08-20.41c56.539-7.884 111.114-15.623 111.246-15.775.135-.157 1.457-29.076 2.062-45.136.118-3.104.282-5.862.365-6.13.09-.286-.195-.487-.69-.487-.865 0-128.472 17.884-128.598 18.023-.038.042-.522 10.586-1.075 23.43-.553 12.845-1.1 24.557-1.214 26.026l-.209 2.672 1.272-.225c.7-.124 8.278-1.203 16.84-2.397zm-7.987-10.38c-.04-2.74 1.33-30.549 1.515-30.746.405-.433 11.208-1.88 14.036-1.88 3.052 0 4.711.856 6.037 3.115.661 1.126.787 1.95.729 4.779-.087 4.191-.525 5.6-2.27 7.291-1.342 1.302-1.347 1.317-.602 2.113.413.44.927 1.266 1.142 1.835.49 1.293 1.354 10.44 1.018 10.781-.299.304-6.15 1.19-6.397.968-.096-.086-.372-2.348-.614-5.027-.553-6.118-.618-6.2-4.45-5.67-1.55.215-2.874.448-2.944.517-.07.07-.271 2.653-.448 5.741-.367 6.397.017 5.853-4.525 6.42-1.719.215-2.221.161-2.227-.237zm11.458-18.64c1.302-.229 2.695-.657 3.095-.953.928-.685 1.525-3.735 1.001-5.114-.39-1.026-.39-1.026-3.654-.775-4.704.362-4.497.177-4.497 3.99 0 3.744-.205 3.6 4.055 2.852zm14.32 8.906c.555-13.505 1.98-18.028 7.556-23.976 1.716-1.83 2.116-2.058 4.156-2.361 2.104-.313 2.355-.264 3.712.718 1.993 1.445 3.525 3.335 4.576 5.646 1.538 3.382 1.828 6.26 1.533 15.18-.149 4.495-.345 8.247-.435 8.337s-1.588.37-3.328.623l-3.164.459.195-4.418c.225-5.102.77-4.657-4.762-3.891l-3.309.458-.24 4.47c-.133 2.46-.264 4.493-.292 4.518-.028.026-.971.164-2.095.306s-2.569.351-3.211.465l-1.168.206zm11.985-10.825c1.391-.212 2.661-.386 2.822-.387 1.03-.01-.512-5.422-2.027-7.118-1.104-1.236-1.118-1.24-1.936-.499-1.13 1.022-3.069 5.116-3.376 7.127-.253 1.653-.252 1.655.867 1.458.616-.109 2.258-.37 3.65-.581zm13.253 13.338c.3-10.799 1.488-30.583 1.85-30.807.945-.583 13.567-2.084 15.205-1.808 2.06.348 3.656 1.676 4.57 3.803.612 1.42.699 2.567.611 8.078-.162 10.187-.964 13.844-3.643 16.613-1.863 1.925-4.266 2.726-10.846 3.614-3.308.447-6.409.899-6.89 1.004-.655.143-.871.017-.857-.497zm14.304-9.19c.906-.907.969-1.284 1.293-7.698.187-3.71.24-7.056.12-7.437-.41-1.293-1.532-1.54-4.813-1.06l-3.068.448-.22 2.588c-.121 1.423-.331 5.413-.467 8.866l-.246 6.277 3.224-.516c2.468-.395 3.447-.74 4.177-1.469zm11.366 4.601c0-1.56 1.115-26.836 1.27-28.794.091-1.15.136-1.173 3.206-1.604 1.713-.241 3.18-.38 3.26-.31s-.14 6.397-.49 14.06c-.349 7.662-.633 14.664-.632 15.56.003 1.866-.035 1.888-3.987 2.285l-2.627.264zm15.468-1.522c-2.525-.9-3.46-2.139-4.192-5.556-.58-2.704.144-15.622 1.027-18.331.844-2.588 3.274-5.391 5.502-6.346 2.116-.907 8.018-1.724 9.902-1.37 1.834.344 3.248 1.488 4.313 3.49.803 1.512.853 2.051.758 8.197-.119 7.646-.561 11.314-1.667 13.814-1.613 3.649-4.07 5.267-9.279 6.113-4.042.656-4.497.655-6.364-.01zm9.207-7.968c1.1-1.033 1.243-1.933 1.596-10.048.213-4.898.184-5.183-.613-5.98-.72-.72-1.106-.8-2.799-.575-2.901.384-4.082 1.13-4.512 2.847-.6 2.391-.917 13.22-.416 14.157.39.727.713.796 3.105.661 2.134-.12 2.863-.333 3.639-1.062z" fill="#fff"/></g></svg>