<svg height="654" viewBox="165.2 170.7 511.4 261.2" width="2500" xmlns="http://www.w3.org/2000/svg" xmlns:xlink="http://www.w3.org/1999/xlink"><linearGradient id="a" gradientTransform="matrix(1 0 0 -1 0 598)" gradientUnits="userSpaceOnUse" x1="420.343" x2="421.946" y1="222.556" y2="442.116"><stop offset="0" stop-color="#4b74a6"/><stop offset="1" stop-color="#4b74a6" stop-opacity="0"/></linearGradient><linearGradient id="b" gradientTransform="matrix(1 0 0 -1 0 598)" gradientUnits="userSpaceOnUse" x1="420.365" x2="420.365" y1="166.637" y2="256.009"><stop offset="0" stop-color="#4b74a6"/><stop offset=".081" stop-color="#4b74a6" stop-opacity=".919"/><stop offset="1" stop-color="#4b74a6" stop-opacity="0"/></linearGradient><path d="m361.4 204.5c3.9 0 6.1-.4 8.5-1.6h.1l16.4-8.9c4.6-2.4 5.3-6.2 5.3-8.2 0-5.2-4-8.9-9.5-8.9-3.9 0-6.1.4-8.5 1.6h-.1l-16.4 8.9c-4.6 2.4-5.3 6.2-5.3 8.3 0 5 4 8.8 9.5 8.8z" fill="#fff"/><path d="m671 268.1c2.4-2.7 3.8-6.2 3.8-9.9 0-2.8-.8-5.6-2.3-8l-.2-.3-35.5-50.6c-3.6-5-9.1-7.6-15.7-7.6-6.8 0-12.5 2.8-16.1 8l-28 42.5c-1.3-.4-2.7-.5-4.2-.5h-39.3c-.7 0-1.3 0-1.9-.1v-17.6c.5 0 1.2-.1 1.9-.1h39.2c7.4 0 14.8-5 14.8-16 0-11.1-7.4-16-14.8-16h-39.5c-9.6 0-17.1 1.6-22.9 4.8-.9-1-1.9-1.9-3.1-2.6-3.6-2.2-7.5-2.5-10.2-2.5-2.4 0-5.8.2-9.1 1.9-3.3-1.7-6.8-1.9-9.2-1.9-12.5 0-17 8.3-17 15.5v16.1l-30.3-25.8c-4.1-3.4-8.2-5.7-15.1-5.7-3.7 0-6.5.8-8.7 1.9-3.2-1.6-6.6-1.9-9-1.9-.6 0-1.3 0-2.1.1.8-1.9 1.2-3.9 1.2-6 0-8.6-6.8-15.1-15.7-15.1-4.1 0-7.5.4-11.5 2.4l-16.4 8.9c-4.8 2.5-7.8 6.8-8.5 11.7-3.3-1.7-6.7-2-9-2-2.6 0-6.6.3-10.2 2.5-4.3 2.7-6.8 7.4-6.8 12.9v15.5l-16.3-23.2c-3.6-5-9.1-7.6-15.7-7.6-6.8 0-12.5 2.8-16.1 8l-27.9 42.2c-.9-.1-1.8-.2-2.7-.2h-41.3v-34.8c0-5.5-2.5-10.2-6.9-13-3.6-2.2-7.6-2.5-10.2-2.5-12.5 0-17 8.3-17 15.5v40c0 6.3 2 11.8 5.7 16.2-2.7 2.9-3.9 6.8-3.9 10.3v41.3h-2.1v25.8h45.4l-7.3 6.4c-3.1 2.6-4.7 6.2-4.7 10.3 0 6.6 4.7 13.8 15.1 13.8h20.9c.7 0 1.4-.1 2.2-.2 1 .2 2 .3 3.1.3 4.6 0 8.7-2.2 11.1-5.9h4.7l.3.4c2.5 3.5 6.5 5.5 10.9 5.5 1 0 2-.1 3-.3 1 .2 2 .3 3.1.3 3.3 0 6.2-.9 8.5-2.6 2.5 1.7 5.4 2.6 8.5 2.6s5.9-.9 8.3-2.6c2.3 1.6 5.2 2.6 8.5 2.6 2.1 0 4.1-.4 5.9-1.1 2.4.7 5 1 8 1h9c2.9 0 5.6-.3 8-1 1.8.8 3.8 1.1 5.8 1.1 4 0 7.5-1.4 10-3.8l5.1 2.2c2.1 1.1 4.7 1.6 7.5 1.6 1.2 0 2.4-.1 3.5-.4 1.1.3 2.3.4 3.4.4 4.6 0 8.7-2.2 11.1-5.9h4.7l.3.4c2.5 3.5 6.5 5.5 10.9 5.5 3.9 0 7.3-1.5 9.9-3.9.3.2.5.4.8.5 3.5 2.2 7.7 3.2 13 3.2h15.2c.8 0 1.6-.1 2.4-.2 1.1.2 2.1.3 3.3.3 5.8 0 9.9-2.8 12-6.5 2.3 4 6.6 6.5 12 6.5 1.2 0 2.4-.1 3.5-.4 1.1.2 2.3.4 3.5.4s2.4-.1 3.5-.4c1.1.3 2.3.4 3.5.4 5.4 0 9.3-2.4 11.5-5.7l2.3 2c2.3 1.9 5.2 3.7 9.9 3.7 2.4 0 4.4-.5 6-1.1 2.3.7 5 1 8 1h15.2c.8 0 1.6-.1 2.4-.2 1.1.2 2.2.3 3.3.3 5.8 0 9.9-2.8 12-6.5 2.3 4 6.7 6.5 12 6.5 1.2 0 2.4-.1 3.5-.4 1.1.2 2.3.4 3.5.4s2.4-.1 3.5-.4c1.1.3 2.3.4 3.5.4 6.6 0 10.9-3.6 12.7-8h4.2c.8 0 1.5 0 2.3-.1 1.3 1.9 2.9 3.5 4.9 4.8 3.5 2.2 7.7 3.2 13 3.2h14.9c7.3 0 12.9-5.7 12.9-13.3 0-1.6-.2-3.1-.7-4.5.5-1.5.8-3.1.8-4.8 0-3.1-.8-5.7-2.2-7.8h31v-20.3c2.3-3.6 3.6-7.9 3.6-12.7v-24.3c0-5.9-1.9-11.2-5.6-15.2zm-436.7 33.3h-19.3v-11.7h19.3zm66 0h-19.3v-11.7h19.3zm.4-42.5h-20c-3.2 0-6.2.2-8.9.6l.6-.9h32.4l.3.4c-1.5 0-2.9-.1-4.4-.1zm68.8 56h-7.2v-41.1h7.2zm12.2-73.3h-27.8v-32.8c2.2 1.1 4.8 1.8 7.5 1.8 4.1 0 7.5-.4 11.2-2.2l.2-.1 9.3-5.1c-.3 1.2-.4 2.5-.4 3.8zm73.3 40.8v-.6c0-7.6-4.2-14.3-11.5-18.3-2.8-1.6-6.2-2.8-9.9-3.5v-17.5l30.6 25.8zm54-8.6v11.4l-8-11.4c2-.3 4.1-1 6.2-2.2.8-.5 1.6-1.1 2.2-1.7-.2 1.2-.4 2.5-.4 3.9zm53.6 27.6h-21.1v-11.7h21.1zm42.8-38.8c-.5-.4-1-.8-1.5-1.1l1.8-2.8h32.4l.2.3h-13.7c-7.9-.1-14.2 1.1-19.2 3.6zm38.8 38.8h-19.3v-11.7h19.3z" fill="url(#a)"/><path d="m670.4 307.7v-24.3c0-6.2-2.7-11.1-7.7-14.3-.9-.5-1.8-1-2.8-1.5 4.6-1 8.7-4.6 8.7-9.5 0-1.6-.5-3.3-1.4-4.8l-.1-.1-35.2-50.2c-2.5-3.4-6.1-5.1-10.7-5.1-6.1 0-9.3 2.8-10.9 5.2l-31.2 47.3c-2-2.2-4.7-2.5-6.2-2.5h-39.3c-5.3 0-7.4-1-8.1-1.4v-27.4c.7-.4 2.8-1.4 8.1-1.4h39.2c2.6 0 8.6-1 8.6-9.8s-6-9.8-8.6-9.8h-39.5c-9.1 0-15.9 1.5-20.8 4.5-1.8 1.1-3.3 2.4-4.5 3.9-.2-4.2-2.5-6.3-3.9-7.2-2.2-1.4-4.9-1.6-6.9-1.6s-4.6.2-6.9 1.6c-.6.4-1.5 1.1-2.2 2.1-.8-1-1.6-1.7-2.3-2.1-2.2-1.4-4.9-1.6-6.9-1.6-9.7 0-10.8 6.5-10.8 9.3v29.5l-40.5-34.5c-3.3-2.8-6-4.3-11.1-4.3-4.6 0-7.3 1.5-8.7 3.4-.7-.9-1.5-1.5-2-1.9-2.2-1.4-4.9-1.6-6.9-1.6s-4.7.2-6.9 1.6c-1.5.9-4 3.1-4 7.7v39.5c-.6.4-2.8 1.4-8 1.4h-24.2c-5.2 0-7.4-1-8-1.4v-39.4c0-4.5-2.5-6.8-4-7.7-2.2-1.4-4.9-1.6-6.9-1.6s-4.6.2-6.9 1.6c-1.5.9-3.9 3.1-3.9 7.7v35.1l-27.5-39.2c-2.5-3.4-6.1-5.1-10.7-5.1-6.1 0-9.3 2.8-10.9 5.2l-30.6 46.4c-1.2-.9-2.8-1.5-5.2-1.5h-39.5c-5.2 0-7.4-1-8-1.4v-39.5c0-4.5-2.5-6.8-3.9-7.7-2.2-1.4-4.9-1.6-6.9-1.6-9.7 0-10.8 6.5-10.8 9.3v40c0 6.9 2.9 12.4 8.5 15.9 1.1.7 2.4 1.4 3.8 1.9h-.5c-9 0-10 6.1-10 8.7v44c0 .9.1 2.2.6 3.5h-2.7v13.4h55.6l-19.7 17.3c-1.7 1.5-2.5 3.3-2.5 5.6 0 1.3.4 7.6 8.9 7.6h20.9c.8 0 1.6-.1 2.3-.4.9.3 1.9.5 2.9.5 2.4 0 4.7-1.2 5.9-3.1l1.8-2.8h11.3l2.1 3c1.3 1.9 3.4 2.9 5.8 2.9 1.1 0 2.1-.2 3-.5.9.3 1.9.5 3.1.5 5 0 7.3-3.1 7.5-6.4l2.7 3.2c1.7 2.1 4 3.2 6.8 3.2 2.7 0 4.8-1 6.6-3.1l2.7-3.3c.3 4.4 3.9 6.4 7.5 6.4 2.3 0 4-.7 5.3-1.8 2.3 1.1 5.1 1.6 8.6 1.6h9c3.7 0 6.5-.6 8.5-1.6 1.4 1.2 3.3 1.8 5.3 1.8 4.5 0 6.8-2.5 7.4-5.5l10.4 4.5c1.3.6 2.9 1 4.8 1 1.4 0 2.6-.3 3.6-.7 1 .5 2.1.7 3.4.7 2.5 0 4.7-1.2 5.9-3.1l1.8-2.8h11.3l2.1 3c1.3 1.9 3.4 2.9 5.8 2.9 4.3 0 7.7-3.2 7.7-7.1 0-1.3-.4-2.5-1-3.6l-.1-.1-13.6-19.4c-.1-.1-.2-.2-.3-.4h20.3c-2.6 2-4 4.9-4 8.3v10.9c0 3.8 1.7 7 4.9 8.9 2.4 1.5 5.6 2.3 9.8 2.3h15.2c.9 0 1.7-.1 2.5-.5 1 .4 2.1.6 3.2.6 5.2 0 7.5-3.5 7.5-6.9v-2.6h9v2.6c0 4.8 3.8 6.9 7.5 6.9 1.4 0 2.5-.2 3.5-.7 1.1.5 2.3.7 3.5.7s2.4-.2 3.5-.7c1.1.5 2.3.7 3.5.7 5.2 0 7.5-3.5 7.5-6.9v-4l10.2 8.6c1.6 1.3 3 2.3 5.9 2.3 2.4 0 4.2-.7 5.4-1.7 2.3 1.1 5.1 1.6 8.5 1.6h15.2c.8 0 1.7-.1 2.5-.5 1 .4 2.1.6 3.2.6 5.2 0 7.5-3.5 7.5-6.9v-2.6h9v2.6c0 4.8 3.8 6.9 7.5 6.9 1.4 0 2.5-.2 3.5-.7 1.1.5 2.3.7 3.5.7s2.4-.2 3.5-.7c1.1.5 2.3.7 3.5.7 5.2 0 7.5-3.5 7.5-6.9v-1h9.4c2.3 0 4.3-.3 6-.7.6 2.6 2.2 4.9 4.6 6.4s5.6 2.3 9.8 2.3h14.9c4.6 0 6.7-3.7 6.7-7.1 0-2-.5-3.5-1.4-4.6.9-1.1 1.5-2.7 1.5-4.7 0-4.9-3.3-7.1-6.7-7.1h-4.1c.2-.8.3-1.6.3-2.6 0-1.8-.4-3.2-1.1-4.2h40.4v-13.7h-2.8c5.1-3.9 6.2-9.4 6.2-13.3zm-477.2 13.3c.2-.4.3-.9.4-1.3.5.5 1 .9 1.5 1.3zm3.2-51.9c-1.1.7-2 1.4-2.8 2.2-.4-1.6-1.1-3.4-3-4.6 2.7.5 5.6.8 8.9.9-1 .4-2.1.9-3.1 1.5zm91.5-46 6.6 9.7h-12.9zm-73 84.5c-3.4 0-5.3-.5-6.1-.9v-22.4c.8-.4 2.7-.8 6.1-.8h19.5c3.4 0 5.3.5 6.1.8v22.4c-.8.4-2.7.9-6.1.9zm31.3 27.4-10.4 15.8c-.3 0-.6-.1-1-.1h-3.9l7.8-6.7c.9-.8 2.9-2.5 2.9-5.6 0-1.3-.4-2.7-1.2-3.9h6.2c-.2.2-.3.3-.4.5zm7.9-14c1.5-1.1 2.7-2.4 3.6-3.6 1 1.4 2.1 2.6 3.5 3.6zm11.5 18.2v3.6l-5.6-8c-.1-.1-.2-.2-.3-.4h7.5c-1 1.4-1.6 3-1.6 4.8zm34.5-4.5-10.1 12.1-10.1-12.2-.1-.1h20.5c-.1.1-.2.1-.2.2zm6.4-28c-.8.4-2.7.9-6.1.9h-19.5c-3.4 0-5.3-.5-6.1-.9v-22.4c.8-.4 2.7-.8 6.1-.8h19.5c3.4 0 5.3.5 6.1.8zm22.9 43.9h-8.2v-4.8h8.2zm6.7-77.1v34.7c-1.5-.9-3.6-1.5-6.4-1.5-1.1 0-2.1.1-3.1.3v-23.6c0-6.2-2.6-11.1-7.7-14.3-4.3-2.7-10.3-4-18.2-4h-20c-7.9 0-13.9 1.3-18.2 4-2 1.2-3.6 2.8-4.8 4.5-1.2-1.8-2.8-3.3-4.8-4.5s-4.3-2.2-7-2.8c.3-.2.5-.3.7-.5 2 1.4 4.5 2.2 7 2.2 3.4 0 6.4-1.5 8.1-4.1l7.3-11.4h39l8 11.6c1.8 2.5 4.6 3.9 8 3.9 3.9 0 8.1-2 10.1-5.3.2.1.3.2.5.3 1.9 1.2 4 2.1 6.4 2.8-4.4 1.8-4.9 5.8-4.9 7.7zm19.4 47.5c.5-1.3.6-2.6.6-3.5v-44c0-1.5-.3-4-2.2-6h24.2c-1.5 1.5-2.4 3.6-2.4 6.2v43.8c0 .9.1 2.2.6 3.5zm23.7 14-4.4 6.6c-.1-2.5-1.3-5.1-3.9-7.1h8.6c0 .2-.2.3-.3.5zm101.7-46.3 4.1 6h-8zm-79.9-25.7c2-1.2 3.6-2.7 4.9-4.4 0 3.2 1.2 5.3 2.5 6.5h-11.8c1.6-.6 3-1.3 4.4-2.1zm-5.8 58c.5-1.3.6-2.6.6-3.5v-6.8l23.9 10.3zm27.1-32.2h-26.5v-5.3h26.5c3.5 0 5.5.3 6.5.6v4.2c-1 .2-2.9.5-6.5.5zm14.8 61.8h-12.9v-4.8h12.9zm6.4-39.5c-.8-.7-1.8-1.3-2.9-1.8l-8-3.2c3-.6 5.7-1.6 8-2.8 5.3-3 8.3-7.5 8.3-12.9v-8.7c0-5.4-2.9-9.9-8.3-12.9-4-2.2-9.4-3.5-15.6-3.7 1.3-1.2 2.5-3.3 2.5-6.5v-29.5l41.2 34.7c1.8 1.5 3.2 2.5 4.7 3.1-1.2.8-2 1.8-2.6 2.7zm17.6 27.3v2.9h-9v-2.9c0-1.6-.4-2.9-1.1-3.9h11.2c-.7 1.1-1.1 2.5-1.1 3.9zm37.8 0v4l-9.2-7.9h10.3c-.7 1.1-1.1 2.5-1.1 3.9zm-38.9-17.4 5.1-8h32.4l5.5 8zm55.2-47.2v31l-24.7-35.2c-1.2-1.6-2.6-2.8-4.4-3.6.6-.4 1.2-1 1.8-1.8.7 1 1.6 1.7 2.2 2.1 2.2 1.4 4.9 1.6 6.9 1.6s4.7-.2 6.9-1.6c1.4-.9 3.8-3 3.9-7.2 1.2 1.5 2.7 2.8 4.5 3.9 2.1 1.3 4.5 2.3 7.3 3.1-2.7 1.3-4.4 4-4.4 7.7zm18.4 76.8h-12.9v-4.8h12.9zm24-12.2v2.9h-9v-2.9c0-1.6-.4-2.9-1.1-3.9h11.2c-.8 1.1-1.1 2.5-1.1 3.9zm11.2-31.7c-.8.4-2.8.9-6.2.9h-27.3v-24.1h27.3c3.4 0 5.3.5 6.2.9zm13.6 14.3c.5-.4 1-.8 1.5-1.3.1.4.2.9.4 1.3zm1.5-49.7c-.8-.8-1.8-1.5-2.8-2.2-1.4-.9-3-1.6-4.8-2.2 1.2-.5 2.1-1.2 2.7-1.9 1.8 1.5 4.2 2.5 6.5 2.8-.8 1.2-1.3 2.4-1.6 3.5zm37.4-48.2 6.6 9.7h-12.9zm-18.1 97.9c.2-.4.3-.9.4-1.3.5.5 1 .9 1.5 1.3zm47.2-14.3c-.8.4-2.7.9-6.1.9h-19.5c-3.4 0-5.3-.5-6.1-.9v-22.4c.8-.4 2.7-.8 6.1-.8h19.5c3.4 0 5.3.5 6.1.8zm-5.8-41.6h-20c-7.9 0-13.9 1.3-18.2 4-1 .7-2 1.4-2.8 2.2-.6-2.8-2.7-6.3-9.3-6.5.3-.3.5-.7.8-1l7.3-11.4h39l8 11.6c.3.5.8 1 1.2 1.4-2-.2-3.9-.3-6-.3z" fill="#fff"/><path d="m201.3 262.1c-15.9 0-23.9-5-23.9-15v-40c0-3.1 1.9-3.8 5.3-3.8 3.6 0 5.4.7 5.4 3.8v40c0 3.5 4 6.3 13.5 6.3h39.5c2.6 0 3.1 1.5 3.1 4.3 0 2.9-.5 4.4-3.1 4.4zm92.8-55.9 35.2 50.2c.4.6.6 1.3.6 1.9 0 2.4-3.1 4.3-5.9 4.3-1.5 0-2.7-.5-3.5-1.6l-9.5-13.9h-45l-9 13.9c-.7 1.1-2.1 1.6-3.5 1.6-2.7 0-5.8-1.9-5.8-4.4 0-.6.2-1.2.6-1.8l33.1-50.2c1.2-1.8 3.1-2.8 6.4-2.8 3.1-.1 5 1 6.3 2.8zm-22.5 32.1h33.3l-17.1-25.1zm83.7 23.8c-15.9 0-23.9-5-23.9-15v-40c0-3.1 1.9-3.8 5.3-3.8 3.5 0 5.4.7 5.4 3.8v40c0 3.5 4 6.3 13.5 6.3h24.2c9.4 0 13.5-2.8 13.5-6.3v-40c0-3.1 1.9-3.8 5.4-3.8s5.3.7 5.3 3.8v40c0 10-8 15-23.9 15zm12.1-64.2c-1.5.7-2.7 1-6 1-2.2 0-4-1.1-4-3.4 0-1.5.7-2.6 2.4-3.5l16.4-8.9c1.5-.7 2.7-1 6-1 2.2 0 4 1.1 4 3.5 0 1.4-.7 2.5-2.4 3.4zm104.8 61.7-50.2-42.2v41.2c0 3.1-1.9 3.8-5.4 3.8s-5.3-.7-5.3-3.8v-51.6c0-3 1.8-3.8 5.1-3.8 3.5 0 5.1.9 7.6 3l49.5 42.1v-41.3c0-3.1 1.9-3.8 5.3-3.8 3.5 0 5.4.7 5.4 3.8v51.5c0 3.1-1.9 3.8-5.6 3.8-2.9.1-3.6-.3-6.4-2.7zm30.3-1c0 3.1-1.9 3.8-5.4 3.8s-5.3-.7-5.3-3.8v-51.6c0-3.1 1.9-3.8 5.3-3.8 3.5 0 5.4.7 5.4 3.8zm30.7 3.5c-15.9 0-23.9-5-23.9-15v-28.5c0-10.1 8-15 23.9-15h39.5c2.6 0 3.2 1.5 3.2 4.4s-.6 4.4-3.2 4.4h-39.2c-9.4 0-13.5 2.7-13.5 6.3v28.5c0 3.5 4.1 6.3 13.5 6.3h39.3c2.6 0 3.1 1.5 3.1 4.4 0 2.8-.5 4.4-3.1 4.4zm94.2-55.9 35.2 50.2c.4.6.6 1.3.6 1.9 0 2.4-3.2 4.3-5.9 4.3-1.5 0-2.7-.5-3.5-1.6l-9.5-13.9h-44.9l-9 13.9c-.7 1.1-2.1 1.6-3.5 1.6-2.7 0-5.8-1.9-5.8-4.4 0-.6.2-1.2.6-1.8l33.1-50.2c1.2-1.8 3.2-2.8 6.4-2.8 3.1-.1 4.9 1 6.2 2.8zm-22.5 32.1h33.3l-17.1-25.1zm-416.5 79.2c0 2.6-1.6 3.2-4.6 3.2s-4.5-.6-4.5-3.2v-44c0-2.6 1.6-3.2 4.5-3.2 3 0 4.6.6 4.6 3.2zm26.2 3c-13.6 0-20.4-4.3-20.4-12.8v-24.3c0-8.6 6.8-12.8 20.4-12.8h20c13.6 0 20.4 4.2 20.4 12.8v24.3c0 8.5-6.8 12.8-20.4 12.8zm31.3-12.8v-24.3c0-3-3.5-5.4-11.6-5.4h-19.5c-8.1 0-11.6 2.3-11.6 5.4v24.3c0 3 3.5 5.4 11.6 5.4h19.5c8.1 0 11.6-2.4 11.6-5.4zm34.8 12.8c-13.6 0-20.4-4.3-20.4-12.8v-24.3c0-8.6 6.8-12.8 20.4-12.8h20c13.6 0 20.4 4.2 20.4 12.8v24.3c0 8.5-6.8 12.8-20.4 12.8zm31.3-12.8v-24.3c0-3-3.5-5.4-11.6-5.4h-19.5c-8.1 0-11.6 2.3-11.6 5.4v24.3c0 3 3.5 5.4 11.6 5.4h19.5c8.1 0 11.6-2.4 11.6-5.4zm17.6 4.5c3.9 0 5.4 1.3 5.4 4.3s-1.6 4.3-5.4 4.3c-3.9 0-5.4-1.3-5.4-4.3s1.6-4.3 5.4-4.3zm21.1 5.3c0 2.6-1.6 3.2-4.6 3.2s-4.5-.6-4.5-3.2v-44c0-2.6 1.6-3.2 4.5-3.2 3 0 4.6.6 4.6 3.2z"/><path d="m384.4 270.6h38.7c12.5 0 20.2 4.4 20.2 11.1v8.7c0 6.8-7.8 11.1-20.2 11.1h-2.8c-8.1 0-11.4-.1-15-.3v.1c3 1.1 6.1 2.1 16.6 6.3l16.6 6.7c1.6.6 2.2 1.6 2.2 3.1 0 2.5-1.6 3.2-4.7 3.2-1.3 0-4-.1-5.4-1l-40.3-17.4v15.1c0 2.6-1.6 3.2-4.6 3.2s-4.5-.6-4.5-3.2v-43.8c0-1.9 1-2.9 3.2-2.9zm6 7.4v16.2h32c9.4 0 12-1.9 12-4.4v-7.4c0-2.5-2.6-4.4-12-4.4zm95.7-5.2 30 42.8c.3.5.5 1.1.5 1.6 0 2.1-2.7 3.6-5 3.6-1.2 0-2.3-.4-3-1.4l-8.1-11.8h-38.3l-7.6 11.8c-.6 1-1.8 1.4-3 1.4-2.3 0-5-1.6-5-3.7 0-.5.2-1 .5-1.5l28.2-42.8c1-1.5 2.7-2.4 5.4-2.4 2.8 0 4.3.9 5.4 2.4zm-19.2 27.4h28.4l-14.6-21.4zm116.4 7.5c0 8.5-6.8 12.8-20.4 12.8h-39c-2.1 0-3.2-1.1-3.2-3.2v-43.5c0-2.1 1-3.2 3.2-3.2h39c13.6 0 20.4 4.2 20.4 12.8zm-53.4 5.4h32.8c8.1 0 11.6-2.4 11.6-5.4v-24.3c0-3-3.6-5.4-11.6-5.4h-32.8zm68.4 4.4c0 2.6-1.6 3.2-4.6 3.2s-4.5-.6-4.5-3.2v-44c0-2.6 1.6-3.2 4.5-3.2 3 0 4.6.6 4.6 3.2zm26.2 3c-13.6 0-20.4-4.3-20.4-12.8v-24.3c0-8.6 6.8-12.8 20.4-12.8h20c13.6 0 20.4 4.2 20.4 12.8v24.3c0 8.5-6.8 12.8-20.4 12.8zm31.4-12.8v-24.3c0-3-3.5-5.4-11.6-5.4h-19.5c-8.1 0-11.6 2.3-11.6 5.4v24.3c0 3 3.5 5.4 11.6 5.4h19.5c8 0 11.6-2.4 11.6-5.4z" fill="#c23334"/><path d="m214 359.5c-2.2 0-3.4-.5-3.4-2.1 0-.7.2-1.1.6-1.5l20.8-18.2c.5-.4 1.2-.6 2.1-.6s1.9.1 1.9 1.3c0 .6-.3.9-1 1.5l-18.9 16.3h18.6c1 0 1.2.6 1.2 1.7s-.2 1.7-1.2 1.7zm41.5-21.4 13.5 19.2c.1.2.2.5.2.7 0 .9-1.2 1.6-2.2 1.6-.6 0-1-.2-1.4-.6l-3.6-5.3h-17.2l-3.4 5.3c-.3.4-.8.6-1.3.6-1 0-2.2-.7-2.2-1.7 0-.2.1-.5.2-.7l12.7-19.2c.5-.7 1.2-1.1 2.4-1.1 1.1.1 1.9.5 2.3 1.2zm-8.6 12.3h12.8l-6.6-9.6zm57.4-12.2c.6-.8 1.5-1.1 2.4-1.1 1.5 0 2.3.7 2.3 2.1v18.9c0 1.2-.7 1.5-2.1 1.5s-2.1-.3-2.1-1.5v-14.6l-12.3 14.9c-.7.8-1.4 1.2-2.4 1.2-1.2 0-2-.4-2.6-1.2l-12.4-14.9v14.6c0 1.2-.7 1.5-2.1 1.5-1.3 0-2-.3-2-1.5v-18.9c0-1.4.8-2.1 2.3-2.1 1 0 1.8.4 2.4 1.1l14.2 17.1zm16.5 21.3c-6.1 0-9.1-1.9-9.1-5.7v-10.9c0-3.9 3.1-5.7 9.1-5.7h9c6.1 0 9.1 1.9 9.1 5.7v10.9c0 3.8-3.1 5.7-9.1 5.7zm14-5.8v-10.9c0-1.4-1.6-2.4-5.2-2.4h-8.7c-3.6 0-5.2 1-5.2 2.4v10.9c0 1.3 1.6 2.4 5.2 2.4h8.7c3.6 0 5.2-1.1 5.2-2.4zm8.2-16.6h17.4c5.6 0 9.1 2 9.1 5v3.9c0 3-3.5 5-9.1 5h-1.2c-3.6 0-5.1 0-6.7-.1v.1c1.3.5 2.8 1 7.4 2.8l7.4 3c.7.3 1 .7 1 1.4 0 1.1-.7 1.5-2.1 1.5-.6 0-1.8-.1-2.4-.4l-18.1-7.8v6.8c0 1.2-.7 1.5-2.1 1.5-1.3 0-2-.3-2-1.5v-19.6c-.1-1.2.4-1.6 1.4-1.6zm2.6 3.3v7.3h14.4c4.2 0 5.4-.9 5.4-2v-3.3c0-1.1-1.2-2-5.4-2zm43-2.3 13.5 19.2c.1.2.2.5.2.7 0 .9-1.2 1.6-2.2 1.6-.6 0-1-.2-1.4-.6l-3.6-5.3h-17.2l-3.4 5.3c-.3.4-.8.6-1.3.6-1 0-2.2-.7-2.2-1.7 0-.2.1-.5.2-.7l12.7-19.2c.5-.7 1.2-1.1 2.4-1.1 1.1.1 1.8.5 2.3 1.2zm-8.6 12.3h12.8l-6.5-9.6zm43.7 9.1c-6.1 0-9.1-1.9-9.1-5.7v-10.9c0-3.9 3.1-5.7 9.1-5.7h15.1c1 0 1.2.6 1.2 1.7s-.2 1.7-1.2 1.7h-15c-3.6 0-5.2 1-5.2 2.4v10.9c0 1.3 1.6 2.4 5.2 2.4h15c1 0 1.2.6 1.2 1.7s-.2 1.7-1.2 1.7zm23-12.7h19.9v-8.4c0-1.2.7-1.5 2.1-1.5 1.3 0 2 .3 2 1.5v19.7c0 1.2-.7 1.5-2 1.5-1.4 0-2.1-.3-2.1-1.5v-8h-19.9v8c0 1.2-.7 1.5-2.1 1.5-1.3 0-2-.3-2-1.5v-19.7c0-1.2.7-1.5 2-1.5 1.4 0 2.1.3 2.1 1.5zm31 11.3c0 1.2-.7 1.5-2.1 1.5-1.3 0-2-.3-2-1.5v-19.7c0-1.2.7-1.5 2-1.5 1.4 0 2.1.3 2.1 1.5zm26.2.4-19.2-16.2v15.8c0 1.2-.7 1.5-2.1 1.5-1.3 0-2-.3-2-1.5v-19.7c0-1.1.7-1.5 2-1.5 1.4 0 2 .3 2.9 1.1l18.9 16.1v-15.8c0-1.2.7-1.5 2-1.5 1.4 0 2.1.3 2.1 1.5v19.7c0 1.2-.7 1.5-2.1 1.5-1.2.1-1.4-.1-2.5-1zm16.3 1c-6.1 0-9.1-1.9-9.1-5.7v-10.9c0-3.9 3.1-5.7 9.1-5.7h15.1c1 0 1.2.6 1.2 1.7s-.2 1.7-1.2 1.7h-15c-3.6 0-5.2 1-5.2 2.4v10.9c0 1.3 1.6 2.4 5.2 2.4h15c1 0 1.2.6 1.2 1.7s-.2 1.7-1.2 1.7zm23-12.7h19.8v-8.4c0-1.2.7-1.5 2.1-1.5 1.3 0 2 .3 2 1.5v19.7c0 1.2-.7 1.5-2 1.5-1.4 0-2.1-.3-2.1-1.5v-8h-19.9v8c0 1.2-.7 1.5-2.1 1.5-1.3 0-2-.3-2-1.5v-19.7c0-1.2.7-1.5 2-1.5 1.4 0 2.1.3 2.1 1.5v8.4zm31 11.3c0 1.2-.7 1.5-2.1 1.5-1.3 0-2-.3-2-1.5v-19.7c0-1.2.7-1.5 2-1.5 1.4 0 2.1.3 2.1 1.5zm4.3-21h17.5c5.6 0 9.1 2 9.1 5v4.5c0 3-3.5 5-9.1 5h-14.9v6.6c0 1.2-.7 1.5-2.1 1.5-1.3 0-2-.3-2-1.5v-19.6c.1-1.1.5-1.5 1.5-1.5zm2.7 3.3v7.8h14.5c4.2 0 5.4-.9 5.4-2v-3.9c0-1.1-1.2-2-5.4-2zm30 9.7v3.6c0 1.3 1.6 2.4 5.2 2.4h14.8c1 0 1.2.6 1.2 1.7s-.2 1.7-1.2 1.7h-14.9c-6.1 0-9.1-1.9-9.1-5.7v-10.9c0-3.9 3.1-5.7 9.1-5.7h4.6c1 0 1.2.6 1.2 1.7s-.2 1.7-1.2 1.7h-4.5c-3.6 0-5.2 1-5.2 2.4v4h20c1 0 1.2.6 1.2 1.7s-.2 1.7-1.2 1.7zm-434.1-23.6h484.2v2.5h-484.2z"/><path d="m647.7 431.9c-2.7 0-5.1-.7-7-2-1.9 1.3-4.3 2-7 2s-5.1-.7-7-2c-1.9 1.3-4.3 2-7 2-1.9 0-3.7-.4-5.2-1-2.1.6-4.5.9-7.2.9h-6.3c-2.6 0-4.9-.3-7-.9-1.3.6-2.8.9-4.4.9h-14.6c-2.7 0-5-.3-7.1-.9-1.6.7-3.4 1-5.3 1-1.2 0-2.3-.1-3.4-.4-1.1.3-2.2.4-3.3.4-2.7 0-5.1-.7-7-2-1.9 1.3-4.3 2-7 2s-5.1-.7-7-2c-1.9 1.3-4.3 2-7 2-2.4 0-4.6-.6-6.4-1.7-1.8 1.1-4 1.7-6.4 1.7-1.1 0-2.2-.1-3.2-.4-1 .2-2.1.4-3.2.4-1.9 0-3.8-.4-5.4-1.1-2.2.7-4.8 1-7.6 1h-8.5c-3.8 0-7-.6-9.8-1.8-2.7 1.2-6 1.8-9.7 1.8h-8.5c-2.9 0-5.4-.3-7.6-1-1.6.7-3.5 1.1-5.4 1.1s-3.7-.4-5.3-1.1c-2.2.7-4.6 1-7.3 1h-7.9c-2.3 0-4.4-.2-6.2-.7-1.2.4-2.5.7-3.9.7h-14.6c-2.8 0-5.2-.3-7.3-1-1.6.7-3.4 1.1-5.2 1.1-1.1 0-2.2-.1-3.2-.4-1 .2-2.1.4-3.1.4-4.4 0-7.6-1.8-9.5-4.5-2.1 2.8-5.5 4.5-9.6 4.5-1.9 0-3.7-.4-5.3-1.1-2.1.6-4.5.9-7.3.9h-7c-3.7 0-6.8-.6-9.5-1.7-2.6 1.1-5.8 1.7-9.4 1.7h-7.9c-2.7 0-5.1-.3-7.2-.9-1.6.7-3.4 1-5.2 1-1.2 0-2.3-.1-3.4-.4-1.1.3-2.3.4-3.5.4-2.4 0-4.3-.5-5.8-1.2-1.7.8-3.6 1.2-5.6 1.2-3 0-5.7-.9-7.8-2.6-2.1 1.7-4.8 2.6-7.8 2.6-4 0-7.5-1.6-9.7-4.4-2.2 2.8-5.8 4.4-9.7 4.4-3 0-5.7-.9-7.8-2.6-2.1 1.7-4.8 2.6-7.8 2.6-4 0-7.5-1.6-9.7-4.4-2.2 2.8-5.8 4.4-9.7 4.4-3 0-5.7-.9-7.8-2.6-2.1 1.7-4.8 2.6-7.8 2.6-5 0-9.1-2.5-11.1-6.7l-6.6-13.9c-.8-1.6-1.2-3.3-1.2-5 0-5.3 4.2-11 12-11 2.9 0 5.5.9 7.5 2.5 2.1-1.6 4.6-2.5 7.5-2.5 1.9 0 4.8.4 7.4 2.4 2-1.6 4.6-2.4 7.5-2.4.9 0 1.8.1 2.6.2.8-.2 1.7-.2 2.6-.2 2.9 0 5.5.9 7.5 2.5 2.1-1.6 4.6-2.5 7.5-2.5 1.9 0 4.8.4 7.4 2.4 2-1.6 4.6-2.4 7.5-2.4.9 0 1.8.1 2.6.2.8-.2 1.7-.2 2.6-.2 2.9 0 5.5.9 7.5 2.5 2-1.6 4.6-2.5 7.5-2.5 1.9 0 4.8.4 7.4 2.4 2-1.6 4.6-2.4 7.5-2.4.5 0 .9 0 1.4.1 1.9-2.7 5.1-4.7 9.7-4.7 5.2 0 9.2 2.7 11 6.8 1.8-1.3 4-2.1 6.5-2.1h2.9c2.7 0 5.1.3 7.3.9 1.6-.7 3.4-1 5.2-1 4.6 0 7.9 2 9.8 4.9 2-3 5.6-4.9 9.9-4.9 1.9 0 3.7.4 5.3 1.1 2.1-.6 4.5-.9 7.3-.9h6.4c.9 0 1.8 0 2.6.1 2.2-3 5.8-4.9 10.1-4.9s7.9 1.8 10.1 4.9c.8-.1 1.6-.1 2.5-.1h14.5c3 0 5.7 1.1 7.6 3 2-1.9 4.6-3 7.6-3h2.9c.9 0 1.8 0 2.7.1 2.1-3 5.7-4.9 9.9-4.9 1.9 0 3.8.4 5.4 1.1 2.2-.7 4.7-1 7.6-1h8.5c3.8 0 7 .6 9.7 1.8 2.7-1.2 5.9-1.8 9.7-1.8h8.5c2.9 0 5.4.3 7.6 1 1.6-.7 3.5-1.1 5.4-1.1s3.7.4 5.3 1.1c2-.6 4.3-1 6.8-1h2.1c3.8 0 7 1.8 9 4.7h4.6c2 0 3.8.2 5.5.6 1.7-.4 3.5-.6 5.5-.6h2.9c4.9 0 9 1.3 12.1 3.6.4-.3.9-.6 1.4-.9 3-1.8 6.7-2.7 11.4-2.7h14.5c1.6 0 3.1.3 4.4.9 2.1-.6 4.4-.9 7-.9h6.3c3.7 0 6.7.5 9.3 1.7 2.5-1.1 5.4-1.7 8.7-1.7h2.9c2 0 3.8.2 5.5.6 1.7-.4 3.5-.6 5.5-.6h2.9c7 0 11 2.5 13.2 4.6 2.8 2.7 4.3 6.4 4.3 10.4v10.1c-.8 5.7-4.8 11.4-12.6 11.4z" fill="url(#b)"/><path d="m642.1 400.2h-2.9c-2 0-3.9.3-5.5.8-1.6-.5-3.4-.8-5.5-.8h-2.9c-3.9 0-6.7.9-8.7 2.3-.2-.1-.3-.2-.5-.3-2.2-1.4-5.1-2-8.9-2h-6.2c-3 0-5.5.4-7.5 1.3-1-.8-2.3-1.3-3.9-1.3h-14.6c-3.8 0-6.6.7-8.9 2-1.9 1.1-3.2 2.7-3.9 4.6-1.3-3.6-5-6.6-12-6.6h-2.9c-2 0-3.9.3-5.5.8-1.6-.5-3.4-.8-5.5-.8h-2.9c-1.7 0-3.3.2-4.6.5-.5-2.7-2.5-5.2-6.1-5.2h-2.1c-3 0-5.4.5-7.2 1.5-1.3-1.1-3.1-1.6-4.9-1.6-2.2 0-3.8.6-4.9 1.6-2.1-1-4.8-1.5-8.1-1.5h-8.5c-3.9 0-6.9.7-9.2 2.1-.2.1-.4.2-.5.4-.2-.1-.4-.2-.5-.4-2.3-1.4-5.3-2.1-9.2-2.1h-8.5c-3.3 0-6 .5-8.1 1.5-1.3-1.1-3.1-1.6-5-1.6-4.3 0-6.5 2.6-7 5.4-1.6-.4-3.5-.7-5.6-.7h-2.9c-3.5 0-5.4 2.2-6 4.8-1.1 0-2.2.1-3.2.3-.5-2.7-2.5-5.1-6.1-5.1h-14.6c-2 0-3.8.2-5.3.6-.6-2.9-2.9-5.4-7.3-5.4s-6.7 2.5-7.3 5.4c-1.6-.4-3.4-.6-5.4-.6h-6.4c-3.2 0-5.7.5-7.8 1.4-1.1-1-2.7-1.6-4.8-1.6-3.5 0-7 2-7 6.5v7.1h-5.7v-7.1c0-3.2-2.2-6.5-7-6.5-1.7 0-3.4.5-4.8 1.5-2-.9-4.6-1.4-7.7-1.4h-2.9c-3.5 0-5.4 2.2-6 4.8-1.6 0-3.1.2-4.4.6v-3.4c0-4.5-3.5-6.5-7-6.5-4.4 0-6.6 2.8-6.9 5.7-1.1-.6-2.5-1-4.1-1-4.2 0-5.8 2.5-6.3 3.7l-1.1 2.4-1.1-2.2c-.5-1-2-3.9-6.4-3.9-2.9 0-5.1 1.3-6.4 3.9l-1.2 2.3-1.1-2.4c-.5-1.1-2.1-3.8-6.3-3.8-1 0-1.8.1-2.6.4-.8-.2-1.6-.4-2.6-.4-4.2 0-5.8 2.5-6.3 3.7l-1.1 2.4-1.1-2.2c-.5-1-2-3.9-6.4-3.9-2.9 0-5.1 1.3-6.4 3.9l-1.2 2.3-1.1-2.4c-.5-1.1-2.1-3.8-6.3-3.8-1 0-1.8.1-2.6.4-.8-.2-1.6-.4-2.6-.4-4.2 0-5.8 2.5-6.3 3.7l-1.1 2.4-1.1-2.2c-.5-1-2-3.9-6.4-3.9-2.9 0-5.1 1.3-6.4 3.9l-1.2 2.3-1.1-2.4c-.5-1.1-2.1-3.8-6.3-3.8-4.7 0-7.2 3.1-7.2 6.2 0 1 .2 2 .7 2.9l6.6 13.9c1.2 2.5 3.7 4 6.8 4 3 0 5.4-1.4 6.7-3.8l1.1-2.2 1.1 2.2c1.2 2.4 3.7 3.8 6.7 3.8 3.1 0 5.6-1.5 6.8-3.9l2.9-6 2.9 6c1.2 2.5 3.7 4 6.8 4 3 0 5.4-1.4 6.7-3.8l1.1-2.2 1.1 2.2c1.2 2.4 3.7 3.8 6.7 3.8 3.1 0 5.6-1.5 6.8-3.9l3-6 2.9 6c1.2 2.5 3.7 4 6.8 4 3 0 5.4-1.4 6.7-3.8l1.1-2.2 1.1 2.2c1.2 2.4 3.7 3.8 6.7 3.8 2.3 0 4.3-.8 5.7-2.3 1.2 1.4 3.1 2.3 5.8 2.3 1.4 0 2.5-.2 3.5-.7.9.4 2 .7 3.4.7 1.7 0 3.4-.5 4.7-1.5 2 .9 4.6 1.4 7.7 1.4h7.9c4.4 0 7.4-1 9.4-2.4.2.1.4.3.6.4 2.2 1.3 5.1 2 8.9 2h7c3.2 0 5.7-.5 7.8-1.4 1.1 1 2.7 1.6 4.8 1.6 3.5 0 7-2 7-6.5v-7.1h5.1v7.1c0 3.2 2.2 6.5 7 6.5 1.1 0 2.1-.2 3.1-.6.9.4 2 .6 3.2.6 1.7 0 3.5-.5 4.8-1.6 2.1 1 4.6 1.5 7.8 1.5h14.6c1.4 0 2.5-.4 3.5-1 1.9.7 4 1 6.7 1h7.9c3.4 0 5.9-.6 7.8-1.5 1.3 1.1 3.1 1.6 4.9 1.6s3.6-.5 5-1.7c2.1 1 4.8 1.5 8.1 1.5h8.5c4.6 0 7.7-1 9.7-2.5.2.1.4.2.5.4 2.3 1.4 5.3 2.1 9.2 2.1h8.5c3.5 0 6.1-.6 8.1-1.5 1.3 1.1 3.1 1.7 5 1.7 1.1 0 2.2-.2 3.2-.6.9.4 2 .6 3.2.6 2.6 0 5.3-1.2 6.4-3.7 1 2.1 3 3.7 6.4 3.7 4.6 0 6.8-2.9 7-6 .2 3.1 2.4 6 7 6s6.8-2.9 7-6c.3 4.1 3.7 6 7 6 1.3 0 2.4-.2 3.3-.7 1 .4 2.1.7 3.4.7 2.1 0 3.7-.6 4.8-1.5 2 .9 4.5 1.3 7.5 1.3h14.6c1.6 0 2.9-.5 3.9-1.3 2 .9 4.5 1.3 7.5 1.3h6.3c3.3 0 5.8-.6 7.7-1.4 1.1.9 2.7 1.5 4.8 1.5 4.6 0 6.8-2.9 7-6 .2 3.1 2.4 6 7 6s6.8-2.9 7-6c.3 4.1 3.7 6 7 6 4.8 0 7-3.3 7-6.5v-10.1c.2-5.3-3.1-10.6-12.4-10.6zm-240.6 13.3h10.9v.2h-10.9zm65.9 0h-7.7v-4.5h7.7zm27.9 0h-7.7v-4.5h7.7zm80.3 0h12v.2h-12zm31.1.2h-5.1v-.2h5.1z" fill="#fff"/><path d="m202.3 420.9c-.4.7-1.1 1-2.1 1s-1.8-.3-2.2-1l-6.7-14c-.1-.2-.2-.4-.2-.5 0-.6.8-1 2-1 .8 0 1.4.2 1.6.7l5.4 12.2 6.1-11.8c.5-.9.9-1.1 1.9-1.1 1.2 0 1.4.4 1.8 1.1l5.9 11.8 5.6-12.2c.2-.5.8-.7 1.6-.7 1.2 0 2 .4 2 1 0 .2-.1.4-.2.5l-6.9 14c-.4.7-1.1 1-2.1 1s-1.8-.3-2.1-1l-5.6-11.4zm35 0c-.4.7-1.1 1-2.1 1s-1.8-.3-2.2-1l-6.7-14c-.1-.2-.2-.4-.2-.5 0-.6.8-1 2-1 .8 0 1.4.2 1.6.7l5.4 12.2 6.1-11.8c.5-.9.9-1.1 1.9-1.1 1.2 0 1.4.4 1.8 1.1l5.9 11.8 5.6-12.2c.2-.5.8-.7 1.6-.7 1.2 0 2 .4 2 1 0 .2-.1.4-.2.5l-6.9 14c-.4.7-1.1 1-2.1 1s-1.8-.3-2.1-1l-5.6-11.4zm35.1 0c-.4.7-1 1-2.1 1-1 0-1.8-.3-2.2-1l-6.7-14c-.1-.2-.2-.4-.2-.5 0-.6.8-1 2-1 .8 0 1.4.2 1.6.7l5.4 12.2 6.1-11.8c.5-.9.9-1.1 1.9-1.1 1.2 0 1.4.4 1.8 1.1l5.9 11.8 5.6-12.2c.2-.5.8-.7 1.6-.7 1.2 0 2 .4 2 1 0 .2-.1.4-.2.5l-6.9 14c-.4.7-1.1 1-2.1 1s-1.8-.3-2.1-1l-5.6-11.4zm24.9-2.6c1.6 0 2.3.5 2.3 1.8s-.7 1.8-2.3 1.8-2.3-.5-2.3-1.8.7-1.8 2.3-1.8zm8.8 2.2c0 1.1-.6 1.4-1.9 1.4-1.2 0-1.8-.3-1.8-1.4v-18.6c0-1.1.6-1.4 1.8-1.4s1.9.3 1.9 1.4zm10.5 1.3c-5.5 0-8.2-1.7-8.2-5.1v-1.5c0-3.4 2.8-5.1 8.2-5.1h12.5c0-1.1-1.4-1.8-4.7-1.8h-2.7c-.9 0-1.1-.5-1.1-1.5s.2-1.5 1.1-1.5h2.9c5.5 0 8.2 1.7 8.2 5.1v6.3c0 3.4-2.8 5.1-8.2 5.1zm12.5-5.1v-3.7h-12.3c-3.3 0-4.7.9-4.7 2.1v1.7c0 1.2 1.4 2.1 4.7 2.1h7.7c3.2 0 4.6-1 4.6-2.2zm29.4-10.1v10.1c0 3.4-2.8 5.1-8.2 5.1h-7c-5.5 0-8.2-1.7-8.2-5.1v-10.1c0-1.1.6-1.4 1.9-1.4 1.2 0 1.8.3 1.8 1.4v10.1c0 1.2 1.4 2.1 4.7 2.1h6.7c3.3 0 4.7-.9 4.7-2.1v-10.1c0-1.1.6-1.4 1.9-1.4 1.1 0 1.7.3 1.7 1.4zm2.5 13.9v-10.1c0-3.4 2.8-5.1 8.2-5.1h6.4c5.5 0 8.2 1.7 8.2 5.1v10.1c0 1.1-.6 1.4-1.9 1.4-1.2 0-1.8-.3-1.8-1.4v-10.1c0-1.2-1.4-2.1-4.7-2.1h-6.1c-3.3 0-4.7.9-4.7 2.1v10.1c0 1.1-.6 1.4-1.9 1.4-1 0-1.7-.2-1.7-1.4zm27.3-19.9c1.6 0 2.3.5 2.3 1.8s-.7 1.8-2.3 1.8-2.3-.5-2.3-1.8.7-1.8 2.3-1.8zm1.9 19.9c0 1.1-.6 1.4-1.9 1.4-1.2 0-1.8-.3-1.8-1.4v-13.7c0-1.1.6-1.4 1.8-1.4s1.9.3 1.9 1.4zm10.7 1.3c-5.5 0-8.2-1.7-8.2-5.1v-6.3c0-3.4 2.8-5.1 8.2-5.1h14.5c.9 0 1.1.5 1.1 1.5s-.2 1.5-1.1 1.5h-14.4c-3.3 0-4.7.9-4.7 2.1v6.3c0 1.2 1.4 2.1 4.7 2.1h14.5c.9 0 1 .5 1 1.5s-.2 1.5-1 1.5zm24.8 0c-5.5 0-8.2-1.7-8.2-5.1v-1.5c0-3.4 2.8-5.1 8.2-5.1h12.5c0-1.1-1.4-1.8-4.7-1.8h-2.7c-.9 0-1.1-.5-1.1-1.5s.2-1.5 1.1-1.5h2.9c5.5 0 8.2 1.7 8.2 5.1v6.3c0 3.4-2.8 5.1-8.2 5.1zm12.4-5.1v-3.7h-12.3c-3.3 0-4.7.9-4.7 2.1v1.7c0 1.2 1.4 2.1 4.7 2.1h7.7c3.2 0 4.6-1 4.6-2.2z"/><path d="m448.2 420.5c0 1.1-.7 1.4-2 1.4-1.2 0-1.9-.3-1.9-1.4v-18.6c0-1.1.7-1.4 1.9-1.4 1.3 0 2 .3 2 1.4zm11.1 1.3c-5.7 0-8.6-1.8-8.6-5.4v-10.3c0-3.6 2.9-5.4 8.6-5.4h8.5c5.7 0 8.6 1.8 8.6 5.4v10.3c0 3.6-2.9 5.4-8.6 5.4zm13.2-5.4v-10.3c0-1.3-1.5-2.3-4.9-2.3h-8.2c-3.4 0-4.9 1-4.9 2.3v10.3c0 1.2 1.5 2.3 4.9 2.3h8.2c3.4 0 4.9-1.1 4.9-2.3zm14.7 5.4c-5.7 0-8.6-1.8-8.6-5.4v-10.3c0-3.6 2.9-5.4 8.6-5.4h8.5c5.7 0 8.6 1.8 8.6 5.4v10.3c0 3.6-2.9 5.4-8.6 5.4zm13.2-5.4v-10.3c0-1.3-1.5-2.3-4.9-2.3h-8.2c-3.4 0-4.9 1-4.9 2.3v10.3c0 1.2 1.5 2.3 4.9 2.3h8.2c3.4 0 4.9-1.1 4.9-2.3zm10.2 4.1c0 1.1-.7 1.4-2 1.4-1.2 0-1.9-.3-1.9-1.4v-18.6c0-1.1.7-1.4 1.9-1.4 1.3 0 2 .3 2 1.4z" fill="#c23334"/><path d="m522.9 400.7c.9 0 1 .5 1 1.5s-.2 1.5-1 1.5h-2.1c-2.6 0-3.6.6-3.8 1.7h5.9c.9 0 1 .5 1 1.5s-.2 1.5-1 1.5h-5.9v12.3c0 1.1-.6 1.4-1.9 1.4-1.2 0-1.8-.3-1.8-1.4v-14.8c0-3.4 2.7-5 7.5-5zm31.1 19.8v-10.1c0-1.2-1.2-2.1-4.4-2.1h-1.6c-3.2 0-4.2.9-4.2 2.1v10.1c0 1.1-.6 1.4-1.9 1.4s-1.8-.3-1.8-1.4v-10.1c0-1.2-1-2.1-4.2-2.1h-1.6c-3.3 0-4.4.9-4.4 2.1v10.1c0 1.1-.6 1.4-1.9 1.4-1.2 0-1.8-.3-1.8-1.4v-10.1c0-3.4 2.8-5.1 7.5-5.1h2.9c2.4 0 4.3.5 5.4 1.5 1.2-1 3-1.5 5.5-1.5h2.9c4.7 0 7.5 1.7 7.5 5.1v10.1c0 1.1-.6 1.4-1.8 1.4-1.5 0-2.1-.2-2.1-1.4zm8.6-2.2c1.6 0 2.3.5 2.3 1.8s-.7 1.8-2.3 1.8-2.3-.5-2.3-1.8.7-1.8 2.3-1.8zm12.4 3.5c-5.5 0-8.2-1.7-8.2-5.1v-6.3c0-3.4 2.8-5.1 8.2-5.1h14.5c.9 0 1.1.5 1.1 1.5s-.2 1.5-1.1 1.5h-14.4c-3.3 0-4.7.9-4.7 2.1v6.3c0 1.2 1.4 2.1 4.7 2.1h14.5c.9 0 1 .5 1 1.5s-.2 1.5-1 1.5zm26-16.4h6.3c5.5 0 8.2 1.7 8.2 5.1v6.3c0 3.4-2.8 5.1-8.2 5.1h-6.3c-5.5 0-8.2-1.7-8.2-5.1v-6.3c-.1-3.5 2.7-5.1 8.2-5.1zm10.8 5c0-1.2-1.4-2.1-4.7-2.1h-6.1c-3.3 0-4.7.9-4.7 2.1v6.3c0 1.2 1.4 2.1 4.7 2.1h6.1c3.3 0 4.7-1 4.7-2.1zm34 10.1v-10.1c0-1.2-1.2-2.1-4.4-2.1h-1.6c-3.2 0-4.2.9-4.2 2.1v10.1c0 1.1-.6 1.4-1.9 1.4s-1.8-.3-1.8-1.4v-10.1c0-1.2-1-2.1-4.2-2.1h-1.7c-3.3 0-4.4.9-4.4 2.1v10.1c0 1.1-.6 1.4-1.9 1.4-1.2 0-1.8-.3-1.8-1.4v-10.1c0-3.4 2.8-5.1 7.5-5.1h2.9c2.4 0 4.3.5 5.4 1.5 1.2-1 3-1.5 5.5-1.5h2.9c4.7 0 7.5 1.7 7.5 5.1v10.1c0 1.1-.6 1.4-1.8 1.4-1.3 0-2-.2-2-1.4z"/></svg>