<svg clip-rule="evenodd" fill-rule="evenodd" height="1429" image-rendering="optimizeQuality" shape-rendering="geometricPrecision" text-rendering="geometricPrecision" viewBox="1354.6 1784.84 6180.8 1496.37" width="2500" xmlns="http://www.w3.org/2000/svg"><path d="m2025.1 2767.97c-49.81 0-96.36-22.22-124.87-44.83-52.33-41.52-61.38-83.63-61.38-141.43 0-72.4 83.27-148.69 125.45-205.66 31.97-43.17 44.77-90.99 56.66-142.01 34.22 0 30.41.47 34.4 31.83 2.18 17.2 6.98 35.75 14 52.22 25.16 59.03 53.48 79.34 82.3 116.37 31.93 41.04 63.83 66.23 63.83 143.12 0 57.12-27.29 104.02-56.78 133.59-32.68 32.77-84.84 56.8-133.61 56.8zm-670.5-521.51c0 145.62 59.25 486.48 136.52 604.34 19.77 30.16 44.01 53.28 76.18 72.82 111.84 67.88 378.45 1.01 500.89-29.78 99.06-24.92 230.61-70.63 315.26-131.75 17.15-12.39 25.25-21.76 40.74-33.76 9.78-7.58 11.61-8.12 19.98-17.27 101.52-110.93 142.61-248.34 72.19-388.82-59.69-119.05-192.44-195.8-338.12-195.8-57.66 0-123.64 39.75-150.43-15.13-20.3-41.56.62-149.07-148.65-256.97-81.82-59.14-185.26-69.5-280.45-38.41-64.39 21.04-122.14 74.11-159.51 130.22-49.57 74.44-84.6 208.66-84.6 300.31z" fill="#f26e22"/><path d="m4376.66 2917.32c0 22.66 10.92 29.8 27.57 29.8h69.22c40.77 0 76.09-19.24 76.09-66.12 0-30.72-14.36-47.49-36.18-53.69v-.63c19.53-8.38 29-26.38 29-45.31 0-49.36-41.07-57.74-75.52-57.74h-62.61c-16.65 0-27.57 7.14-27.57 29.8zm47.1-69.53h33.88c22.98 0 44.81 3.42 44.81 30.42 0 25.76-20.68 29.8-39.06 29.8h-39.63zm0-86.91h37.33c17.52 0 34.18 5.9 34.18 27.32 0 17.69-10.63 27.31-32.74 27.31h-38.77zm160.24 164.82c0 15.21 9.19 25.46 23.55 25.46s23.56-10.25 23.56-25.46v-65.49h46.51c25.85 0 32.46 15.83 32.46 54.94 0 9 2.01 36.01 27.85 36.01 10.91 0 22.12-8.08 22.12-19.87 0-10.55-6.32-20.18-6.32-45.94 0-22.66-4.31-41.59-28.43-45.32v-.62c22.4-5.59 35.61-29.49 35.61-53.7 0-28.87-14.93-62.08-70.93-62.08h-78.4c-16.66 0-27.58 7.14-27.58 29.8zm47.11-162.96h48.52c20.68 0 34.18 6.21 34.18 30.11 0 25.14-17.8 30.11-35.61 30.11h-47.09zm151.05 146.51c-1.72 4.97-4.6 13.97-4.6 19.56 0 13.65 8.91 22.35 21.83 22.35 11.2 0 17.81-4.04 20.96-13.97l12.35-37.25h75.82l12.06 37.25c3.45 9.93 10.91 13.97 21.25 13.97 12.06 0 22.11-9.94 22.11-22.35 0-5.59-2.87-14.59-4.59-19.56l-56.86-171.03c-5.17-15.83-14.65-18.62-25.28-18.62h-11.19c-11.49 0-18.96 4.03-22.98 15.52zm116.02-44.7h-55.14l27.85-89.7h.58zm159.1-56.49c-14.93-3.72-32.17-8.69-32.17-24.21s12.07-26.38 33.89-26.38c43.94 0 39.92 33.21 61.74 33.21 11.49 0 21.54-7.45 21.54-20.18 0-29.8-43.36-52.14-80.12-52.14-39.91 0-82.42 18.62-82.42 68.28 0 23.9 7.76 49.36 50.55 61.15l53.12 14.59c16.09 4.35 20.1 14.28 20.1 23.28 0 14.9-13.49 29.49-37.9 29.49-47.68 0-41.07-40.35-66.62-40.35-11.49 0-19.82 8.69-19.82 21.1 0 24.22 26.7 56.5 86.44 56.5 56.86 0 85-30.11 85-70.46 0-26.08-10.91-53.7-53.99-64.26zm127.79 117.64c0 15.21 9.19 25.46 23.54 25.46 14.36 0 23.56-10.25 23.56-25.46v-180.65c0-15.21-9.2-25.45-23.56-25.45-14.35 0-23.54 10.24-23.54 25.45zm90.75-8.38c0 22.66 10.92 29.8 27.57 29.8h98.22c13.49 0 24.4-7.45 24.4-21.42s-10.91-21.42-24.4-21.42h-78.69v-159.23c0-15.21-9.2-25.45-23.55-25.45-14.36 0-23.55 10.24-23.55 25.45z" fill="#83a3b3" fill-rule="nonzero"/><path d="m2685.63 2912.12c0 21.84 9.98 40.88 45.54 40.88 35.57 0 45.55-19.04 45.55-40.88v-95.21c0-67.76 19.96-90.72 56.77-90.72h16.21c22.46 0 44.92-10.64 44.92-40.88 0-22.97-21.21-39.77-49.91-39.77-44.29 0-64.87 35.29-75.48 69.45h-1.25v-31.36c0-24.65-18.09-38.09-41.18-38.09-23.08 0-41.17 13.44-41.17 38.09z" fill="none" stroke="#ff0" stroke-miterlimit="22.926" stroke-width="7.62"/><g fill-rule="nonzero"><path d="m2685.63 2912.12c0 21.84 9.98 40.88 45.54 40.88 35.57 0 45.55-19.04 45.55-40.88v-95.21c0-67.76 19.96-90.72 56.77-90.72h16.21c22.46 0 44.92-10.64 44.92-40.88 0-22.97-21.21-39.77-49.91-39.77-44.29 0-64.87 35.29-75.48 69.45h-1.25v-31.36c0-24.65-18.09-38.09-41.18-38.09-23.08 0-41.17 13.44-41.17 38.09z" fill="#f26e22"/><path d="m3019.03 2940.38v7.7l-3.46-.06-3.37-.14-3.31-.24-3.24-.35-3.18-.47-3.09-.57-3.01-.7-2.95-.81-2.85-.95-2.77-1.08-2.69-1.22-2.59-1.35-2.5-1.51-2.41-1.66-2.29-1.81-2.19-1.97-2.07-2.13-1.96-2.28-1.84-2.45-1.7-2.61-1.58-2.76-1.45-2.94-1.31-3.1-1.18-3.24-1.05-3.43-.89-3.59-.78-3.75-.63-3.93-.48-4.09-.37-4.28-.2-4.46-.08-4.65h7.16l.06 4.39.2 4.18.33 3.98.46 3.79.57 3.59.7 3.41.81 3.21.93 3.03 1.02 2.86 1.15 2.68 1.25 2.52 1.34 2.36 1.44 2.21 1.54 2.05 1.64 1.92 1.73 1.77 1.85 1.65 1.93 1.53 2.03 1.4 2.14 1.29 2.23 1.17 2.33 1.06 2.45.94 2.53.85 2.63.73 2.73.62 2.83.53 2.92.43 3 .33 3.09.22 3.19.14zm150.35 7.7h-150.35v-7.7h150.35zm161.74-147.48h7.16l-.23 9.57-.67 9.23-1.12 8.89-1.54 8.56-1.95 8.22-2.37 7.88-2.75 7.56-3.13 7.23-3.51 6.88-3.85 6.56-4.2 6.24-4.52 5.9-4.84 5.59-5.14 5.25-5.43 4.94-5.69 4.63-5.96 4.31-6.21 4.01-6.43 3.69-6.66 3.4-6.87 3.11-7.06 2.81-7.24 2.52-7.42 2.25-7.58 1.96-7.73 1.69-7.86 1.42-7.98 1.15-8.1.89-8.2.64-8.29.37-8.37.13v-7.7l8.17-.11 8.09-.37 7.98-.62 7.88-.87 7.76-1.11 7.62-1.38 7.49-1.63 7.32-1.9 7.14-2.17 6.98-2.42 6.78-2.71 6.57-2.97 6.36-3.24 6.13-3.53 5.89-3.79 5.64-4.09 5.39-4.37 5.11-4.66 4.84-4.95 4.54-5.23 4.24-5.54 3.94-5.84 3.61-6.16 3.29-6.46 2.93-6.77 2.59-7.12 2.23-7.44 1.85-7.76 1.46-8.12 1.06-8.47.65-8.81zm-78.6-116.65h7.16l-2.67-3.72 4.52 1.37 4.41 1.51 4.3 1.64 4.23 1.79 4.11 1.95 4 2.08 3.9 2.25 3.77 2.39 3.67 2.53 3.55 2.7 3.42 2.86 3.29 3.01 3.17 3.17 3.03 3.33 2.89 3.49 2.74 3.65 2.6 3.81 2.45 3.98 2.31 4.13 2.15 4.3 1.99 4.47 1.83 4.61 1.67 4.79 1.5 4.96 1.33 5.11 1.17 5.28.98 5.45.82 5.62.64 5.78.46 5.95.27 6.12.1 6.29h-7.16l-.08-6.05-.27-5.86-.44-5.69-.6-5.5-.78-5.34-.94-5.15-1.09-4.98-1.25-4.81-1.42-4.64-1.55-4.47-1.71-4.31-1.85-4.15-1.99-3.98-2.13-3.83-2.27-3.68-2.4-3.51-2.54-3.37-2.67-3.23-2.79-3.07-2.93-2.93-3.05-2.79-3.16-2.64-3.29-2.5-3.41-2.37-3.53-2.23-3.64-2.09-3.76-1.96-3.87-1.83-3.97-1.69-4.08-1.56-4.19-1.43-4.28-1.29zm2.67 3.72c-1.91-.54-3.05-2.65-2.55-4.7s2.46-3.28 4.37-2.74zm4.49-5.07v1.35h-7.16v-1.35l2.25-3.57zm-7.16 0c0-2.12 1.61-3.85 3.58-3.85s3.58 1.73 3.58 3.85zm63-98.45h7.16l-.07 3.98-.18 3.96-.31 3.95-.45 3.93-.56 3.9-.69 3.87-.82 3.84-.94 3.8-1.07 3.76-1.2 3.73-1.33 3.67-1.45 3.62-1.58 3.57-1.72 3.51-1.84 3.45-1.96 3.38-2.11 3.32-2.23 3.24-2.35 3.15-2.49 3.09-2.62 3-2.74 2.9-2.87 2.82-3.01 2.72-3.13 2.62-3.26 2.52-3.4 2.41-3.51 2.29-3.65 2.18-3.78 2.08-3.91 1.94-4.02 1.82-2.66-7.14 3.8-1.72 3.67-1.82 3.54-1.94 3.41-2.04 3.29-2.15 3.16-2.25 3.04-2.34 2.91-2.44 2.79-2.52 2.67-2.62 2.54-2.7 2.44-2.78 2.29-2.85 2.19-2.93 2.07-3 1.93-3.06 1.82-3.14 1.72-3.19 1.58-3.25 1.46-3.31 1.35-3.36 1.23-3.41 1.12-3.45.99-3.5.88-3.54.76-3.56.65-3.61.52-3.64.41-3.65.29-3.69.18-3.7zm-160.49-121.57v-7.7l7.11.07 7.18.17 7.24.31 7.26.45 7.28.62 7.27.8 7.26.97 7.21 1.19 7.15 1.39 7.08 1.62 6.97 1.88 6.86 2.12 6.73 2.4 6.57 2.68 6.4 2.98 6.21 3.3 5.99 3.64 5.77 3.97 5.51 4.33 5.24 4.72 4.93 5.09 4.62 5.5 4.27 5.91 3.9 6.33 3.52 6.75 3.11 7.2 2.68 7.65 2.23 8.1 1.77 8.56 1.28 9.03.78 9.53.27 10.01h-7.16l-.25-9.57-.74-9.05-1.22-8.55-1.65-8.04-2.09-7.58-2.5-7.11-2.87-6.68-3.26-6.25-3.6-5.85-3.95-5.45-4.28-5.08-4.57-4.73-4.86-4.38-5.15-4.05-5.41-3.73-5.65-3.42-5.87-3.12-6.08-2.84-6.29-2.56-6.45-2.3-6.6-2.04-6.73-1.8-6.84-1.58-6.95-1.35-7.01-1.15-7.08-.95-7.11-.78-7.12-.6-7.14-.45-7.1-.31-7.06-.17zm-136-7.7h136v7.7h-136zm-56.31 68.58h-7.16l.08-4.65.2-4.46.37-4.28.48-4.09.63-3.93.78-3.75.89-3.59 1.05-3.43 1.18-3.24 1.31-3.1 1.45-2.94 1.58-2.76 1.7-2.61 1.84-2.45 1.96-2.28 2.07-2.13 2.19-1.97 2.29-1.81 2.41-1.66 2.5-1.51 2.59-1.35 2.69-1.22 2.77-1.08 2.85-.95 2.95-.81 3.01-.7 3.09-.57 3.18-.47 3.24-.35 3.31-.24 3.37-.14 3.46-.06v7.7l-3.26.04-3.19.14-3.09.22-3 .33-2.92.43-2.83.53-2.73.62-2.63.73-2.53.85-2.45.94-2.33 1.06-2.23 1.17-2.14 1.29-2.03 1.4-1.93 1.53-1.85 1.65-1.73 1.77-1.64 1.92-1.54 2.05-1.44 2.21-1.34 2.36-1.25 2.52-1.15 2.68-1.02 2.86-.93 3.03-.81 3.21-.7 3.41-.57 3.59-.46 3.79-.33 3.98-.2 4.18zm-7.16 356.04v-356.04h7.16v356.04zm179.5-147.2h-73.61v-7.7h73.61zm100.91 62.23h-7.16l-.13-5.14-.38-4.82-.64-4.52-.86-4.24-1.1-3.96-1.3-3.7-1.52-3.44-1.71-3.21-1.9-2.98-2.09-2.77-2.27-2.58-2.45-2.39-2.63-2.2-2.8-2.03-2.98-1.87-3.14-1.71-3.29-1.56-3.43-1.41-3.58-1.26-3.73-1.13-3.83-1-3.96-.87-4.06-.75-4.17-.65-4.25-.55-4.33-.44-4.42-.35-4.47-.28-4.51-.2-4.58-.13-4.61-.08-4.63-.01v-7.7l4.71.03 4.69.08 4.66.13 4.63.2 4.59.28 4.54.37 4.49.46 4.43.57 4.35.67 4.26.79 4.2.93 4.09 1.06 3.99 1.21 3.88 1.38 3.77 1.53 3.63 1.72 3.5 1.91 3.36 2.11 3.2 2.33 3.03 2.54 2.85 2.77 2.65 3 2.45 3.25 2.22 3.5 1.99 3.73 1.76 4 1.5 4.24 1.24 4.5.98 4.76.7 5.02.42 5.3zm-88.43 68.59v-7.7l3.71-.02 3.72-.08 3.72-.15 3.73-.23 3.72-.29 3.68-.38 3.65-.47 3.61-.57 3.56-.68 3.49-.77 3.42-.9 3.35-1.02 3.25-1.14 3.15-1.27 3.04-1.41 2.93-1.55 2.81-1.7 2.67-1.85 2.53-2.01 2.39-2.17 2.25-2.34 2.07-2.51 1.93-2.72 1.76-2.9 1.59-3.11 1.4-3.34 1.22-3.57 1.02-3.83.82-4.07.6-4.33.36-4.61.12-4.9h7.16l-.14 5.32-.4 5.07-.66 4.83-.92 4.57-1.16 4.33-1.4 4.09-1.62 3.86-1.85 3.63-2.06 3.4-2.25 3.16-2.43 2.95-2.61 2.72-2.75 2.51-2.91 2.31-3.05 2.09-3.15 1.92-3.27 1.73-3.36 1.57-3.47 1.39-3.53 1.24-3.61 1.1-3.66.96-3.73.83-3.76.72-3.81.59-3.83.49-3.84.4-3.86.31-3.85.23-3.86.15-3.82.08zm-86.09-7.7h86.09v7.7h-86.09l-3.58-3.85zm0 7.7c-1.97 0-3.58-1.73-3.58-3.85s1.61-3.85 3.58-3.85zm3.58-134.67v130.82h-7.16v-130.82l3.58-3.85zm-7.16 0c0-2.12 1.61-3.85 3.58-3.85s3.58 1.73 3.58 3.85zm84.68-184.96h-81.1v-7.7h81.1zm77.82 55.49h-7.16l-.09-4.05-.3-3.85-.48-3.66-.66-3.46-.83-3.27-.99-3.09-1.14-2.91-1.31-2.75-1.44-2.59-1.59-2.44-1.72-2.29-1.86-2.15-1.99-2.02-2.12-1.89-2.25-1.76-2.36-1.65-2.47-1.52-2.59-1.41-2.69-1.28-2.79-1.18-2.89-1.07-2.98-.96-3.06-.84-3.12-.75-3.2-.65-3.26-.55-3.32-.46-3.36-.37-3.4-.27-3.44-.2-3.47-.12-3.49-.03v-7.7l3.63.05 3.63.12 3.6.2 3.58.29 3.54.39 3.5.48 3.48.59 3.42.69 3.36.81 3.3.92 3.24 1.04 3.17 1.17 3.09 1.3 2.99 1.44 2.91 1.57 2.81 1.74 2.7 1.87 2.59 2.04 2.46 2.19 2.33 2.36 2.18 2.53 2.04 2.71 1.87 2.88 1.7 3.05 1.53 3.23 1.34 3.41 1.15 3.57.95 3.75.74 3.94.54 4.1.34 4.29zm-74.69 63.19v-7.7l4.34-.05 4.18-.18 4.03-.3 3.89-.41 3.72-.53 3.59-.64 3.42-.76 3.28-.87 3.14-.96 2.97-1.08 2.82-1.19 2.69-1.29 2.53-1.39 2.39-1.49 2.25-1.59 2.11-1.68 1.96-1.79 1.84-1.89 1.71-1.98 1.56-2.08 1.45-2.18 1.33-2.29 1.19-2.38 1.07-2.51.95-2.61.82-2.71.7-2.83.57-2.94.46-3.05.32-3.17.19-3.28.06-3.39h7.16l-.08 3.71-.21 3.62-.36 3.53-.5 3.43-.65 3.32-.8 3.23-.94 3.13-1.11 3.03-1.25 2.91-1.41 2.82-1.55 2.69-1.71 2.58-1.86 2.46-2.01 2.34-2.16 2.21-2.3 2.09-2.45 1.96-2.59 1.83-2.73 1.71-2.87 1.57-3.01 1.45-3.14 1.31-3.29 1.2-3.42 1.06-3.54.93-3.7.82-3.83.68-3.96.57-4.11.43-4.25.32-4.38.18zm-84.23-7.7h84.23v7.7h-84.23l-3.58-3.85zm0 7.7c-1.97 0-3.58-1.73-3.58-3.85s1.61-3.85 3.58-3.85zm3.58-122.53v118.68h-7.16v-118.68l3.58-3.85zm-7.16 0c0-2.12 1.61-3.85 3.58-3.85s3.58 1.73 3.58 3.85z" fill="#ff0"/><path d="m2959.14 2879.5c0 49.22 23.7 64.73 59.89 64.73h150.35c88.59 0 165.32-41.81 165.32-143.63 0-66.75-31.19-103.17-78.6-116.65v-1.35c42.42-18.21 63-57.32 63-98.45 0-107.22-89.2-125.42-164.07-125.42h-136c-36.19 0-59.89 15.51-59.89 64.73zm102.31-151.05h73.61c49.92 0 97.33 7.42 97.33 66.08 0 55.97-44.91 64.74-84.85 64.74h-86.09zm0-188.81h81.1c38.06 0 74.24 12.82 74.24 59.34 0 38.44-23.08 59.34-71.11 59.34h-84.23z" fill="#f26e22"/><path d="m3482.82 2940.38v7.7l-3.46-.06-3.37-.14-3.31-.24-3.24-.35-3.18-.47-3.09-.57-3.01-.7-2.95-.81-2.85-.95-2.77-1.08-2.69-1.22-2.59-1.35-2.5-1.51-2.41-1.66-2.29-1.81-2.19-1.97-2.07-2.13-1.96-2.28-1.84-2.45-1.7-2.61-1.58-2.76-1.45-2.94-1.31-3.1-1.18-3.24-1.05-3.43-.89-3.59-.78-3.75-.63-3.93-.48-4.09-.37-4.28-.2-4.46-.08-4.65h7.16l.06 4.39.2 4.18.33 3.98.46 3.79.57 3.59.7 3.41.81 3.21.93 3.03 1.02 2.86 1.15 2.68 1.25 2.52 1.34 2.36 1.44 2.21 1.54 2.05 1.64 1.92 1.73 1.77 1.85 1.65 1.93 1.53 2.03 1.4 2.14 1.29 2.23 1.17 2.33 1.06 2.45.94 2.53.85 2.63.73 2.73.62 2.83.53 2.92.43 3 .33 3.09.22 3.19.14zm213.36 7.7h-213.36v-7.7h213.36zm49.45-50.38h7.16l-.08 3-.21 2.93-.37 2.87-.51 2.76-.64 2.68-.78 2.6-.91 2.52-1.04 2.42-1.16 2.34-1.29 2.24-1.4 2.13-1.51 2.05-1.61 1.94-1.71 1.84-1.81 1.74-1.91 1.65-1.98 1.54-2.08 1.44-2.16 1.34-2.22 1.23-2.3 1.15-2.36 1.03-2.43.94-2.48.84-2.54.74-2.61.64-2.64.54-2.69.45-2.75.35-2.77.24-2.81.14-2.85.06v-7.7l2.61-.04 2.59-.14 2.53-.22 2.49-.31 2.43-.41 2.4-.48 2.33-.58 2.28-.66 2.2-.74 2.15-.84 2.08-.91 2-.99 1.94-1.09 1.86-1.14 1.76-1.24 1.7-1.3 1.61-1.39 1.51-1.46 1.43-1.54 1.35-1.62 1.25-1.69 1.16-1.77 1.05-1.84.96-1.92.86-2 .75-2.08.64-2.16.54-2.26.43-2.34.31-2.41.19-2.51zm-49.45-42.67v-7.7l2.85.06 2.81.14 2.77.24 2.75.35 2.69.45 2.64.54 2.61.64 2.54.74 2.48.84 2.43.94 2.36 1.03 2.3 1.15 2.22 1.23 2.16 1.34 2.08 1.44 1.98 1.54 1.91 1.65 1.81 1.74 1.71 1.84 1.61 1.94 1.51 2.04 1.41 2.15 1.28 2.23 1.16 2.32 1.04 2.43.91 2.52.78 2.6.64 2.68.51 2.76.37 2.87.21 2.93.08 3h-7.16l-.06-2.6-.19-2.51-.31-2.41-.43-2.34-.54-2.26-.64-2.16-.75-2.08-.86-1.99-.96-1.92-1.06-1.85-1.15-1.77-1.25-1.68-1.35-1.62-1.43-1.54-1.51-1.46-1.61-1.39-1.7-1.3-1.76-1.24-1.86-1.14-1.94-1.09-2-.99-2.08-.91-2.15-.84-2.2-.74-2.28-.66-2.33-.58-2.4-.48-2.43-.41-2.49-.31-2.53-.22-2.59-.14zm-170.94-7.7h170.94v7.7h-170.94l-3.58-3.85zm0 7.7c-1.97 0-3.58-1.73-3.58-3.85s1.61-3.85 3.58-3.85zm3.58-349.78v345.93h-7.16v-345.93zm-54.74-51.44v-7.7l3.04.07 2.99.21 2.9.34 2.85.46 2.78.61 2.7.72 2.63.86 2.57.99 2.46 1.11 2.39 1.22 2.32 1.35 2.22 1.47 2.14 1.59 2.04 1.69 1.94 1.8 1.86 1.91 1.75 2.02 1.65 2.12 1.55 2.22 1.44 2.31 1.34 2.41 1.22 2.49 1.12 2.58 1 2.65.89 2.75.77 2.82.66 2.89.54 2.96.43 3.03.3 3.1.18 3.16.07 3.23h-7.16l-.05-2.91-.16-2.84-.28-2.76-.37-2.69-.48-2.62-.58-2.55-.67-2.46-.79-2.39-.86-2.31-.96-2.22-1.06-2.15-1.14-2.05-1.24-1.99-1.31-1.88-1.41-1.8-1.49-1.72-1.56-1.61-1.66-1.54-1.74-1.45-1.82-1.35-1.9-1.25-1.98-1.15-2.07-1.06-2.14-.97-2.21-.85-2.29-.74-2.38-.64-2.44-.53-2.53-.42-2.6-.3-2.67-.19zm-47.57 51.44h-7.16l.07-3.23.18-3.16.3-3.1.43-3.03.54-2.96.66-2.9.78-2.81.88-2.74 1-2.66 1.12-2.58 1.22-2.49 1.34-2.41 1.44-2.31 1.55-2.22 1.65-2.12 1.75-2.02 1.86-1.91 1.95-1.8 2.04-1.69 2.13-1.59 2.23-1.47 2.31-1.35 2.39-1.22 2.46-1.11 2.57-.99 2.63-.86 2.7-.72 2.77-.61 2.85-.46 2.91-.34 2.98-.21 3.04-.07v7.7l-2.74.05-2.66.19-2.61.3-2.51.42-2.45.53-2.38.64-2.29.74-2.21.85-2.14.97-2.07 1.06-1.97 1.15-1.91 1.25-1.81 1.35-1.74 1.45-1.67 1.54-1.56 1.61-1.49 1.72-1.41 1.8-1.31 1.88-1.24 1.99-1.14 2.05-1.06 2.15-.96 2.22-.86 2.3-.78 2.4-.68 2.47-.58 2.54-.48 2.62-.37 2.69-.28 2.76-.16 2.84zm-7.16 374.25v-374.25h7.16v374.25z" fill="#ff0"/><path d="m3422.93 2879.5c0 49.22 23.7 64.73 59.89 64.73h213.36c29.32 0 53.03-16.18 53.03-46.53 0-30.34-23.71-46.52-53.03-46.52h-170.94v-345.93c0-33.04-19.96-55.29-51.16-55.29-31.18 0-51.15 22.25-51.15 55.29z" fill="#f26e22"/><path d="m3868.61 2949.15v7.7l-3.04-.07-2.98-.21-2.91-.34-2.85-.46-2.77-.61-2.71-.72-2.62-.87-2.56-.97-2.47-1.12-2.39-1.22-2.31-1.35-2.23-1.48-2.13-1.57-2.04-1.7-1.96-1.8-1.85-1.92-1.75-2.02-1.65-2.12-1.54-2.21-1.45-2.31-1.34-2.42-1.22-2.48-1.12-2.59-1-2.66-.88-2.74-.78-2.81-.66-2.9-.54-2.96-.43-3.03-.3-3.1-.18-3.16-.07-3.23h7.16l.05 2.91.16 2.84.28 2.76.37 2.69.48 2.62.58 2.54.68 2.47.78 2.4.86 2.3.96 2.23 1.06 2.14 1.14 2.06 1.23 1.97 1.32 1.89 1.41 1.8 1.49 1.72 1.57 1.62 1.66 1.54 1.74 1.44 1.81 1.35 1.91 1.26 1.97 1.15 2.07 1.06 2.13.96 2.22.85 2.3.75 2.37.64 2.45.53 2.51.42 2.61.3 2.66.19zm47.58-51.45h7.16l-.07 3.23-.18 3.16-.3 3.1-.43 3.03-.54 2.96-.66 2.89-.77 2.82-.89 2.75-1 2.65-1.12 2.59-1.22 2.48-1.34 2.42-1.45 2.31-1.54 2.21-1.65 2.12-1.75 2.02-1.85 1.91-1.95 1.81-2.05 1.7-2.13 1.57-2.22 1.48-2.32 1.35-2.39 1.22-2.47 1.12-2.56.97-2.62.87-2.71.72-2.78.61-2.85.46-2.9.34-2.99.21-3.04.07v-7.7l2.74-.05 2.67-.19 2.6-.3 2.53-.42 2.44-.53 2.37-.64 2.3-.75 2.22-.85 2.13-.96 2.07-1.06 1.98-1.15 1.9-1.26 1.83-1.35 1.73-1.44 1.65-1.53 1.57-1.63 1.49-1.72 1.41-1.8 1.32-1.89 1.23-1.97 1.14-2.06 1.06-2.14.96-2.23.86-2.31.79-2.39.67-2.46.58-2.55.48-2.62.37-2.69.28-2.76.16-2.84zm7.16-161.83v161.83h-7.16v-161.83l3.58-3.85zm-7.16 0c0-2.12 1.61-3.85 3.58-3.85s3.58 1.73 3.58 3.85zm189.49 3.85h-185.91v-7.7h185.91l3.58 3.85zm0-7.7c1.97 0 3.58 1.73 3.58 3.85s-1.61 3.85-3.58 3.85zm-3.58 165.68v-161.83h7.16v161.83zm54.74 51.45v7.7l-3.04-.07-2.98-.21-2.91-.34-2.84-.46-2.79-.61-2.7-.72-2.63-.87-2.55-.97-2.48-1.12-2.39-1.22-2.31-1.35-2.22-1.48-2.13-1.57-2.05-1.7-1.95-1.8-1.86-1.92-1.75-2.02-1.65-2.12-1.54-2.21-1.45-2.31-1.34-2.42-1.22-2.48-1.12-2.59-1-2.66-.88-2.74-.78-2.81-.66-2.9-.54-2.96-.43-3.03-.3-3.1-.18-3.16-.07-3.23h7.16l.05 2.91.16 2.84.28 2.76.37 2.69.48 2.62.58 2.54.68 2.47.78 2.4.86 2.3.96 2.23 1.06 2.14 1.14 2.06 1.23 1.97 1.32 1.89 1.41 1.8 1.49 1.72 1.58 1.62 1.65 1.54 1.73 1.44 1.83 1.35 1.9 1.26 1.97 1.15 2.07 1.06 2.14.96 2.21.85 2.31.75 2.36.64 2.45.53 2.52.42 2.61.3 2.66.19zm47.58-51.45h7.16l-.07 3.23-.18 3.16-.3 3.1-.43 3.03-.54 2.96-.66 2.9-.78 2.81-.88 2.74-1 2.66-1.12 2.59-1.22 2.48-1.34 2.42-1.45 2.31-1.54 2.21-1.65 2.12-1.75 2.02-1.86 1.92-1.95 1.8-2.05 1.7-2.13 1.57-2.22 1.48-2.31 1.35-2.39 1.22-2.48 1.12-2.55.97-2.63.87-2.7.72-2.79.61-2.84.46-2.91.34-2.98.21-3.04.07v-7.7l2.74-.05 2.66-.19 2.61-.3 2.52-.42 2.45-.53 2.36-.64 2.31-.75 2.21-.85 2.14-.96 2.07-1.06 1.97-1.15 1.9-1.26 1.83-1.35 1.73-1.44 1.65-1.54 1.58-1.62 1.49-1.72 1.41-1.8 1.32-1.89 1.23-1.97 1.14-2.06 1.06-2.14.96-2.23.86-2.3.78-2.4.68-2.47.58-2.54.48-2.62.37-2.69.28-2.76.16-2.84zm7.16-392.45v392.45h-7.16v-392.45zm-54.74-51.44v-7.7l3.04.07 2.98.21 2.91.34 2.84.46 2.79.61 2.69.72 2.64.86 2.56.99 2.47 1.11 2.39 1.22 2.31 1.35 2.22 1.47 2.14 1.59 2.04 1.69 1.94 1.8 1.86 1.91 1.76 2.02 1.65 2.12 1.55 2.22 1.44 2.31 1.34 2.41 1.22 2.49 1.12 2.58 1 2.66.88 2.74.78 2.81.66 2.9.54 2.96.43 3.03.3 3.1.18 3.16.07 3.23h-7.16l-.05-2.91-.16-2.84-.28-2.76-.37-2.69-.48-2.62-.58-2.54-.68-2.47-.78-2.4-.86-2.3-.96-2.22-1.06-2.15-1.14-2.05-1.24-1.99-1.31-1.88-1.41-1.8-1.48-1.72-1.58-1.61-1.66-1.54-1.74-1.45-1.82-1.35-1.9-1.25-1.97-1.15-2.07-1.06-2.15-.97-2.2-.85-2.3-.74-2.37-.64-2.45-.53-2.52-.42-2.61-.3-2.66-.19zm-47.58 51.44h-7.16l.07-3.23.18-3.16.3-3.1.43-3.03.54-2.96.66-2.9.78-2.81.88-2.74 1-2.66 1.12-2.58 1.22-2.49 1.34-2.41 1.44-2.31 1.55-2.22 1.65-2.12 1.76-2.02 1.86-1.91 1.94-1.8 2.04-1.69 2.14-1.59 2.22-1.47 2.31-1.35 2.39-1.22 2.47-1.11 2.56-.99 2.64-.86 2.69-.72 2.79-.61 2.84-.46 2.91-.34 2.98-.21 3.04-.07v7.7l-2.74.05-2.66.19-2.61.3-2.52.42-2.45.53-2.37.64-2.3.74-2.2.85-2.15.97-2.07 1.06-1.97 1.15-1.9 1.25-1.82 1.35-1.74 1.45-1.66 1.54-1.58 1.61-1.48 1.72-1.41 1.8-1.31 1.88-1.24 1.99-1.14 2.05-1.06 2.15-.96 2.22-.86 2.3-.78 2.4-.68 2.47-.58 2.54-.48 2.62-.37 2.69-.28 2.76-.16 2.84zm-7.16 137.56v-137.56h7.16v137.56l-3.58 3.85zm7.16 0c0 2.12-1.61 3.85-3.58 3.85s-3.58-1.73-3.58-3.85zm-189.49-3.85h185.91v7.7h-185.91l-3.58-3.85zm0 7.7c-1.97 0-3.58-1.73-3.58-3.85s1.61-3.85 3.58-3.85zm3.58-141.41v137.56h-7.16v-137.56zm-54.74-51.44v-7.7l3.04.07 2.99.21 2.9.34 2.85.46 2.78.61 2.7.72 2.63.86 2.57.99 2.46 1.11 2.39 1.22 2.32 1.35 2.22 1.47 2.14 1.59 2.04 1.69 1.94 1.8 1.86 1.91 1.75 2.02 1.65 2.12 1.55 2.22 1.44 2.31 1.34 2.41 1.22 2.49 1.12 2.58 1 2.65.89 2.75.77 2.82.66 2.89.54 2.96.43 3.03.3 3.1.18 3.16.07 3.23h-7.16l-.05-2.91-.16-2.84-.28-2.76-.37-2.69-.48-2.62-.58-2.55-.67-2.46-.79-2.39-.86-2.31-.96-2.22-1.06-2.15-1.14-2.05-1.24-1.99-1.31-1.88-1.41-1.8-1.49-1.72-1.56-1.61-1.66-1.54-1.74-1.45-1.82-1.35-1.9-1.25-1.98-1.15-2.07-1.06-2.14-.97-2.21-.85-2.29-.74-2.38-.64-2.44-.53-2.53-.42-2.6-.3-2.67-.19zm-47.57 51.44h-7.16l.07-3.23.18-3.16.3-3.1.43-3.03.54-2.96.66-2.9.78-2.81.88-2.74 1-2.66 1.12-2.58 1.22-2.49 1.34-2.41 1.44-2.31 1.55-2.22 1.65-2.12 1.75-2.02 1.86-1.91 1.95-1.8 2.04-1.69 2.13-1.59 2.23-1.47 2.31-1.35 2.39-1.22 2.46-1.11 2.57-.99 2.63-.86 2.7-.72 2.77-.61 2.85-.46 2.91-.34 2.98-.21 3.04-.07v7.7l-2.74.05-2.66.19-2.61.3-2.51.42-2.45.53-2.38.64-2.29.74-2.21.85-2.14.97-2.07 1.06-1.97 1.15-1.91 1.25-1.81 1.35-1.74 1.45-1.67 1.54-1.56 1.61-1.49 1.72-1.41 1.8-1.31 1.88-1.24 1.99-1.14 2.05-1.06 2.15-.96 2.22-.86 2.3-.78 2.4-.68 2.47-.58 2.54-.48 2.62-.37 2.69-.28 2.76-.16 2.84zm-7.16 392.45v-392.45h7.16v392.45z" fill="#ff0"/><path d="m3817.46 2897.7c0 33.04 19.97 55.3 51.15 55.3 31.2 0 51.16-22.26 51.16-55.3v-161.83h185.91v161.83c0 33.04 19.97 55.3 51.16 55.3s51.16-22.26 51.16-55.3v-392.45c0-33.04-19.97-55.29-51.16-55.29s-51.16 22.25-51.16 55.29v137.56h-185.91v-137.56c0-33.04-19.96-55.29-51.16-55.29-31.18 0-51.15 22.25-51.15 55.29z" fill="#f26e22"/></g><path d="m2678.24 3277.76v-205.81h84.04c16.9 0 29.75 1.86 38.53 5.55s15.8 10.21 21.05 19.55 7.86 19.69 7.86 31c0 14.61-4.37 26.92-13.06 36.93-8.7 10.02-22.11 16.34-40.3 19.07 6.66 3.45 11.69 6.9 15.14 10.25 7.32 7.29 14.26 16.44 20.74 27.41l32.79 56.05h-31.33l-25.07-42.83c-7.29-12.41-13.33-21.85-18.06-28.41-4.76-6.56-9-11.11-12.75-13.75-3.71-2.59-7.55-4.41-11.43-5.46-2.83-.62-7.46-.96-13.95-.96h-29.04v91.41zm25.16-114.98h53.84c11.48 0 20.4-1.29 26.84-3.88 6.45-2.54 11.35-6.66 14.66-12.36 3.35-5.65 5.03-11.79 5.03-18.45 0-9.72-3.23-17.77-9.71-24.05-6.49-6.27-16.73-9.39-30.72-9.39h-59.94zm256.4 66.69 24.1 3.45c-3.76 15.18-10.77 27.02-21.01 35.4-10.24 8.39-23.3 12.6-39.24 12.6-20.04 0-35.93-6.71-47.67-20.12-11.74-13.37-17.61-32.19-17.61-56.39 0-25.01 5.92-44.46 17.79-58.25 11.87-13.85 27.28-20.75 46.21-20.75 18.31 0 33.29 6.76 44.89 20.31 11.61 13.56 17.43 32.63 17.43 57.21 0 1.48-.04 3.73-.12 6.7h-102.36c.87 16.34 5.11 28.89 12.8 37.56 7.63 8.68 17.21 13.04 28.64 13.04 8.52 0 15.8-2.45 21.81-7.33 6.04-4.89 10.81-12.7 14.34-23.43zm-76.27-40.53h76.54c-1.02-12.55-3.98-21.94-8.79-28.22-7.37-9.73-16.99-14.61-28.77-14.61-10.69 0-19.65 3.88-26.93 11.64-7.24 7.76-11.25 18.16-12.05 31.19zm218.53 88.82v-18.92c-8.7 14.7-21.49 22.08-38.4 22.08-10.94 0-21.01-3.26-30.14-9.82-9.19-6.51-16.29-15.67-21.37-27.35-5.03-11.74-7.55-25.2-7.55-40.44 0-14.85 2.3-28.31 6.84-40.43 4.59-12.08 11.43-21.37 20.57-27.79 9.1-6.47 19.33-9.68 30.59-9.68 8.29 0 15.66 1.92 22.11 5.7 6.44 3.79 11.7 8.77 15.76 14.85v-74.01h23.31v205.81zm-73.62-74.4c0 19.07 3.7 33.29 11.16 42.73 7.42 9.44 16.2 14.14 26.31 14.14 10.2 0 18.85-4.51 26-13.51 7.1-9.01 10.68-22.76 10.68-41.25 0-20.32-3.63-35.26-10.9-44.8-7.24-9.53-16.2-14.27-26.84-14.27-10.38 0-19.03 4.55-26 13.7-6.93 9.15-10.41 23.57-10.41 43.26zm225.94 26.11 24.1 3.45c-3.76 15.18-10.77 27.02-21.01 35.4-10.24 8.39-23.3 12.6-39.24 12.6-20.04 0-35.93-6.71-47.67-20.12-11.74-13.37-17.61-32.19-17.61-56.39 0-25.01 5.92-44.46 17.78-58.25 11.88-13.85 27.28-20.75 46.22-20.75 18.31 0 33.28 6.76 44.89 20.31 11.61 13.56 17.43 32.63 17.43 57.21 0 1.48-.04 3.73-.12 6.7h-102.36c.87 16.34 5.11 28.89 12.79 37.56 7.64 8.68 17.21 13.04 28.65 13.04 8.52 0 15.8-2.45 21.81-7.33 6.04-4.89 10.81-12.7 14.34-23.43zm-76.27-40.53h76.54c-1.02-12.55-3.98-21.94-8.79-28.22-7.37-9.73-16.99-14.61-28.77-14.61-10.69 0-19.65 3.88-26.93 11.64-7.24 7.76-11.25 18.16-12.05 31.19zm295.02 8.05v-24.15h80.24v76.27c-12.31 10.64-25.03 18.69-38.14 24.05-13.1 5.37-26.57 8.05-40.33 8.05-18.63 0-35.54-4.31-50.77-12.98-15.18-8.63-26.7-21.18-34.43-37.52-7.76-16.38-11.65-34.68-11.65-54.85 0-20.03 3.84-38.71 11.57-56.1 7.72-17.34 18.8-30.23 33.28-38.62 14.47-8.43 31.16-12.64 50.05-12.64 13.68 0 26.08 2.39 37.17 7.23 11.07 4.84 19.77 11.55 26.03 20.12 6.31 8.63 11.09 19.88 14.35 33.73l-22.64 6.71c-2.87-10.45-6.4-18.69-10.59-24.72-4.24-5.99-10.25-10.78-18.1-14.38-7.81-3.59-16.51-5.41-26.09-5.41-11.43 0-21.32 1.92-29.7 5.7-8.35 3.79-15.06 8.77-20.22 15-5.12 6.18-9.09 12.98-11.92 20.36-4.81 12.79-7.24 26.59-7.24 41.49 0 18.39 2.92 33.77 8.7 46.18 5.83 12.36 14.31 21.56 25.38 27.55 11.12 5.99 22.9 9 35.4 9 10.86 0 21.45-2.3 31.78-6.85 10.33-4.6 18.14-9.44 23.48-14.66v-38.56zm113.83 80.77v-205.81h23.3v205.81zm50.63-74.59c0-27.55 7.06-47.96 21.23-61.23 11.78-11.02 26.22-16.53 43.21-16.53 18.85 0 34.3 6.71 46.3 20.12 11.96 13.37 17.97 31.91 17.97 55.53 0 19.16-2.66 34.21-7.95 45.18-5.3 10.97-13.02 19.5-23.18 25.58-10.1 6.08-21.18 9.1-33.14 9.1-19.25 0-34.78-6.66-46.66-20.02-11.87-13.37-17.78-32.63-17.78-57.73zm23.83.04c0 19.07 3.84 33.35 11.52 42.79 7.72 9.48 17.39 14.23 29.09 14.23 11.56 0 21.19-4.75 28.91-14.28 7.68-9.53 11.52-24.05 11.52-43.55 0-18.4-3.89-32.34-11.61-41.78-7.73-9.48-17.34-14.22-28.82-14.22-11.7 0-21.37 4.69-29.09 14.13-7.68 9.44-11.52 23.67-11.52 42.68zm153.65 74.55h-21.72v-205.81h23.31v73.44c9.84-13.32 22.37-19.98 37.65-19.98 8.43 0 16.46 1.82 24.01 5.51 7.54 3.69 13.73 8.91 18.63 15.57 4.85 6.71 8.69 14.76 11.42 24.19 2.78 9.39 4.16 19.5 4.16 30.24 0 25.48-5.83 45.22-17.44 59.11-11.65 13.95-25.6 20.89-41.89 20.89-16.19 0-28.91-7.33-38.13-21.94zm-.27-75.7c0 17.83 2.25 30.71 6.71 38.67 7.33 12.98 17.21 19.5 29.7 19.5 10.2 0 18.98-4.8 26.35-14.38 7.42-9.58 11.13-23.86 11.13-42.83 0-19.45-3.54-33.77-10.64-43.02-7.1-9.24-15.72-13.89-25.78-13.89-10.19 0-18.98 4.79-26.35 14.37-7.41 9.58-11.12 23.43-11.12 41.58zm215.88 57.02c-8.65 8-16.99 13.6-24.98 16.91-7.99 3.3-16.55 4.93-25.73 4.93-15.09 0-26.7-3.97-34.83-11.98-8.12-7.95-12.18-18.15-12.18-30.56 0-7.28 1.54-13.94 4.59-19.98 3.09-6.03 7.1-10.83 12.05-14.47 4.98-3.64 10.55-6.42 16.77-8.28 4.6-1.3 11.52-2.54 20.75-3.79 18.8-2.4 32.7-5.32 41.57-8.67.1-3.45.14-5.65.14-6.56 0-10.26-2.21-17.49-6.62-21.71-5.96-5.7-14.83-8.52-26.57-8.52-10.99 0-19.12 2.1-24.32 6.27-5.26 4.17-9.1 11.55-11.61 22.18l-22.78-3.45c2.08-10.58 5.47-19.16 10.24-25.68 4.77-6.51 11.65-11.49 20.66-15.04 8.96-3.5 19.42-5.27 31.24-5.27 11.75 0 21.32 1.49 28.7 4.5 7.33 3.02 12.75 6.76 16.2 11.31 3.44 4.55 5.87 10.3 7.28 17.25.75 4.31 1.15 12.07 1.15 23.23v33.54c0 23.43.49 38.23 1.46 44.51.93 6.27 2.86 12.26 5.69 18.01h-24.37c-2.34-5.32-3.83-11.55-4.5-18.68zm-1.85-56.06c-8.47 3.74-21.19 6.9-38.14 9.49-9.62 1.48-16.42 3.16-20.39 5.03s-7.02 4.6-9.18 8.14c-2.16 3.6-3.26 7.57-3.26 11.98 0 6.66 2.34 12.27 7.05 16.72 4.73 4.46 11.61 6.71 20.66 6.71 8.96 0 16.95-2.11 23.97-6.37 6.98-4.22 12.13-10.02 15.41-17.35 2.51-5.7 3.74-14.08 3.74-25.15zm58.84 74.74v-205.81h23.3v205.81z" fill="none" stroke="#83a3b3" stroke-miterlimit="22.926" stroke-width="7.62"/><path d="m2678.24 3277.76v-205.81h84.04c16.9 0 29.75 1.86 38.53 5.55s15.8 10.21 21.05 19.55 7.86 19.69 7.86 31c0 14.61-4.37 26.92-13.06 36.93-8.7 10.02-22.11 16.34-40.3 19.07 6.66 3.45 11.69 6.9 15.14 10.25 7.32 7.29 14.26 16.44 20.74 27.41l32.79 56.05h-31.33l-25.07-42.83c-7.29-12.41-13.33-21.85-18.06-28.41-4.76-6.56-9-11.11-12.75-13.75-3.71-2.59-7.55-4.41-11.43-5.46-2.83-.62-7.46-.96-13.95-.96h-29.04v91.41zm25.16-114.98h53.84c11.48 0 20.4-1.29 26.84-3.88 6.45-2.54 11.35-6.66 14.66-12.36 3.35-5.65 5.03-11.79 5.03-18.45 0-9.72-3.23-17.77-9.71-24.05-6.49-6.27-16.73-9.39-30.72-9.39h-59.94zm256.4 66.69 24.1 3.45c-3.76 15.18-10.77 27.02-21.01 35.4-10.24 8.39-23.3 12.6-39.24 12.6-20.04 0-35.93-6.71-47.67-20.12-11.74-13.37-17.61-32.19-17.61-56.39 0-25.01 5.92-44.46 17.79-58.25 11.87-13.85 27.28-20.75 46.21-20.75 18.31 0 33.29 6.76 44.89 20.31 11.61 13.56 17.43 32.63 17.43 57.21 0 1.48-.04 3.73-.12 6.7h-102.36c.87 16.34 5.11 28.89 12.8 37.56 7.63 8.68 17.21 13.04 28.64 13.04 8.52 0 15.8-2.45 21.81-7.33 6.04-4.89 10.81-12.7 14.34-23.43zm-76.27-40.53h76.54c-1.02-12.55-3.98-21.94-8.79-28.22-7.37-9.73-16.99-14.61-28.77-14.61-10.69 0-19.65 3.88-26.93 11.64-7.24 7.76-11.25 18.16-12.05 31.19zm218.53 88.82v-18.92c-8.7 14.7-21.49 22.08-38.4 22.08-10.94 0-21.01-3.26-30.14-9.82-9.19-6.51-16.29-15.67-21.37-27.35-5.03-11.74-7.55-25.2-7.55-40.44 0-14.85 2.3-28.31 6.84-40.43 4.59-12.08 11.43-21.37 20.57-27.79 9.1-6.47 19.33-9.68 30.59-9.68 8.29 0 15.66 1.92 22.11 5.7 6.44 3.79 11.7 8.77 15.76 14.85v-74.01h23.31v205.81zm-73.62-74.4c0 19.07 3.7 33.29 11.16 42.73 7.42 9.44 16.2 14.14 26.31 14.14 10.2 0 18.85-4.51 26-13.51 7.1-9.01 10.68-22.76 10.68-41.25 0-20.32-3.63-35.26-10.9-44.8-7.24-9.53-16.2-14.27-26.84-14.27-10.38 0-19.03 4.55-26 13.7-6.93 9.15-10.41 23.57-10.41 43.26zm225.94 26.11 24.1 3.45c-3.76 15.18-10.77 27.02-21.01 35.4-10.24 8.39-23.3 12.6-39.24 12.6-20.04 0-35.93-6.71-47.67-20.12-11.74-13.37-17.61-32.19-17.61-56.39 0-25.01 5.92-44.46 17.78-58.25 11.88-13.85 27.28-20.75 46.22-20.75 18.31 0 33.28 6.76 44.89 20.31 11.61 13.56 17.43 32.63 17.43 57.21 0 1.48-.04 3.73-.12 6.7h-102.36c.87 16.34 5.11 28.89 12.79 37.56 7.64 8.68 17.21 13.04 28.65 13.04 8.52 0 15.8-2.45 21.81-7.33 6.04-4.89 10.81-12.7 14.34-23.43zm-76.27-40.53h76.54c-1.02-12.55-3.98-21.94-8.79-28.22-7.37-9.73-16.99-14.61-28.77-14.61-10.69 0-19.65 3.88-26.93 11.64-7.24 7.76-11.25 18.16-12.05 31.19zm295.02 8.05v-24.15h80.24v76.27c-12.31 10.64-25.03 18.69-38.14 24.05-13.1 5.37-26.57 8.05-40.33 8.05-18.63 0-35.54-4.31-50.77-12.98-15.18-8.63-26.7-21.18-34.43-37.52-7.76-16.38-11.65-34.68-11.65-54.85 0-20.03 3.84-38.71 11.57-56.1 7.72-17.34 18.8-30.23 33.28-38.62 14.47-8.43 31.16-12.64 50.05-12.64 13.68 0 26.08 2.39 37.17 7.23 11.07 4.84 19.77 11.55 26.03 20.12 6.31 8.63 11.09 19.88 14.35 33.73l-22.64 6.71c-2.87-10.45-6.4-18.69-10.59-24.72-4.24-5.99-10.25-10.78-18.1-14.38-7.81-3.59-16.51-5.41-26.09-5.41-11.43 0-21.32 1.92-29.7 5.7-8.35 3.79-15.06 8.77-20.22 15-5.12 6.18-9.09 12.98-11.92 20.36-4.81 12.79-7.24 26.59-7.24 41.49 0 18.39 2.92 33.77 8.7 46.18 5.83 12.36 14.31 21.56 25.38 27.55 11.12 5.99 22.9 9 35.4 9 10.86 0 21.45-2.3 31.78-6.85 10.33-4.6 18.14-9.44 23.48-14.66v-38.56zm113.83 80.77v-205.81h23.3v205.81zm50.63-74.59c0-27.55 7.06-47.96 21.23-61.23 11.78-11.02 26.22-16.53 43.21-16.53 18.85 0 34.3 6.71 46.3 20.12 11.96 13.37 17.97 31.91 17.97 55.53 0 19.16-2.66 34.21-7.95 45.18-5.3 10.97-13.02 19.5-23.18 25.58-10.1 6.08-21.18 9.1-33.14 9.1-19.25 0-34.78-6.66-46.66-20.02-11.87-13.37-17.78-32.63-17.78-57.73zm23.83.04c0 19.07 3.84 33.35 11.52 42.79 7.72 9.48 17.39 14.23 29.09 14.23 11.56 0 21.19-4.75 28.91-14.28 7.68-9.53 11.52-24.05 11.52-43.55 0-18.4-3.89-32.34-11.61-41.78-7.73-9.48-17.34-14.22-28.82-14.22-11.7 0-21.37 4.69-29.09 14.13-7.68 9.44-11.52 23.67-11.52 42.68zm153.65 74.55h-21.72v-205.81h23.31v73.44c9.84-13.32 22.37-19.98 37.65-19.98 8.43 0 16.46 1.82 24.01 5.51 7.54 3.69 13.73 8.91 18.63 15.57 4.85 6.71 8.69 14.76 11.42 24.19 2.78 9.39 4.16 19.5 4.16 30.24 0 25.48-5.83 45.22-17.44 59.11-11.65 13.95-25.6 20.89-41.89 20.89-16.19 0-28.91-7.33-38.13-21.94zm-.27-75.7c0 17.83 2.25 30.71 6.71 38.67 7.33 12.98 17.21 19.5 29.7 19.5 10.2 0 18.98-4.8 26.35-14.38 7.42-9.58 11.13-23.86 11.13-42.83 0-19.45-3.54-33.77-10.64-43.02-7.1-9.24-15.72-13.89-25.78-13.89-10.19 0-18.98 4.79-26.35 14.37-7.41 9.58-11.12 23.43-11.12 41.58zm215.88 57.02c-8.65 8-16.99 13.6-24.98 16.91-7.99 3.3-16.55 4.93-25.73 4.93-15.09 0-26.7-3.97-34.83-11.98-8.12-7.95-12.18-18.15-12.18-30.56 0-7.28 1.54-13.94 4.59-19.98 3.09-6.03 7.1-10.83 12.05-14.47 4.98-3.64 10.55-6.42 16.77-8.28 4.6-1.3 11.52-2.54 20.75-3.79 18.8-2.4 32.7-5.32 41.57-8.67.1-3.45.14-5.65.14-6.56 0-10.26-2.21-17.49-6.62-21.71-5.96-5.7-14.83-8.52-26.57-8.52-10.99 0-19.12 2.1-24.32 6.27-5.26 4.17-9.1 11.55-11.61 22.18l-22.78-3.45c2.08-10.58 5.47-19.16 10.24-25.68 4.77-6.51 11.65-11.49 20.66-15.04 8.96-3.5 19.42-5.27 31.24-5.27 11.75 0 21.32 1.49 28.7 4.5 7.33 3.02 12.75 6.76 16.2 11.31 3.44 4.55 5.87 10.3 7.28 17.25.75 4.31 1.15 12.07 1.15 23.23v33.54c0 23.43.49 38.23 1.46 44.51.93 6.27 2.86 12.26 5.69 18.01h-24.37c-2.34-5.32-3.83-11.55-4.5-18.68zm-1.85-56.06c-8.47 3.74-21.19 6.9-38.14 9.49-9.62 1.48-16.42 3.16-20.39 5.03s-7.02 4.6-9.18 8.14c-2.16 3.6-3.26 7.57-3.26 11.98 0 6.66 2.34 12.27 7.05 16.72 4.73 4.46 11.61 6.71 20.66 6.71 8.96 0 16.95-2.11 23.97-6.37 6.98-4.22 12.13-10.02 15.41-17.35 2.51-5.7 3.74-14.08 3.74-25.15zm58.84 74.74v-205.81h23.3v205.81zm221.66 0v-18.92c-8.7 14.7-21.5 22.08-38.4 22.08-10.95 0-21.02-3.26-30.15-9.82-9.19-6.51-16.29-15.67-21.37-27.35-5.03-11.74-7.54-25.2-7.54-40.44 0-14.85 2.29-28.31 6.84-40.43 4.58-12.08 11.43-21.37 20.57-27.79 9.09-6.47 19.33-9.68 30.59-9.68 8.29 0 15.66 1.92 22.11 5.7 6.44 3.79 11.7 8.77 15.75 14.85v-74.01h23.31v205.81zm-73.63-74.4c0 19.07 3.71 33.29 11.17 42.73 7.42 9.44 16.2 14.14 26.3 14.14 10.2 0 18.85-4.51 26-13.51 7.11-9.01 10.68-22.76 10.68-41.25 0-20.32-3.62-35.26-10.9-44.8-7.24-9.53-16.2-14.27-26.84-14.27-10.37 0-19.02 4.55-26 13.7-6.92 9.15-10.41 23.57-10.41 43.26zm225.95 26.11 24.1 3.45c-3.76 15.18-10.77 27.02-21.02 35.4-10.23 8.39-23.3 12.6-39.24 12.6-20.04 0-35.93-6.71-47.67-20.12-11.73-13.37-17.6-32.19-17.6-56.39 0-25.01 5.91-44.46 17.78-58.25 11.88-13.85 27.28-20.75 46.21-20.75 18.32 0 33.29 6.76 44.9 20.31 11.61 13.56 17.43 32.63 17.43 57.21 0 1.48-.05 3.73-.13 6.7h-102.36c.88 16.34 5.12 28.89 12.8 37.56 7.64 8.68 17.21 13.04 28.64 13.04 8.53 0 15.8-2.45 21.81-7.33 6.04-4.89 10.82-12.7 14.35-23.43zm-76.28-40.53h76.54c-1.02-12.55-3.98-21.94-8.79-28.22-7.37-9.73-16.99-14.61-28.77-14.61-10.69 0-19.64 3.88-26.93 11.64-7.23 7.76-11.25 18.16-12.05 31.19zm205.24 88.82v-205.81h71.15c14.49 0 26.09 2.06 34.87 6.22 8.75 4.17 15.58 10.59 20.53 19.26 4.99 8.63 7.45 17.68 7.45 27.17 0 8.76-2.2 17.05-6.56 24.81-4.38 7.76-11 14.04-19.87 18.83 11.47 3.64 20.3 9.87 26.43 18.69 6.19 8.76 9.27 19.16 9.27 31.14 0 9.67-1.89 18.63-5.64 26.92s-8.39 14.66-13.91 19.16c-5.52 4.46-12.44 7.86-20.74 10.16-8.34 2.3-18.54 3.45-30.63 3.45zm25.16-119.29h41.01c11.12 0 19.11-.82 23.92-2.4 6.4-2.06 11.21-5.51 14.43-10.3 3.23-4.79 4.86-10.78 4.86-18.01 0-6.85-1.5-12.89-4.54-18.06-3.01-5.22-7.34-8.82-12.94-10.73-5.61-1.92-15.23-2.88-28.83-2.88h-37.91zm0 95.14h47.23c8.12 0 13.82-.33 17.12-1 5.74-1.1 10.6-2.97 14.49-5.61 3.88-2.63 7.05-6.46 9.57-11.5 2.52-5.03 3.75-10.82 3.75-17.39 0-7.71-1.81-14.37-5.47-20.07-3.61-5.7-8.65-9.68-15.09-11.98-6.41-2.3-15.68-3.45-27.73-3.45h-43.87zm239.41 5.47c-8.65 8-17 13.6-24.98 16.91-7.99 3.3-16.55 4.93-25.74 4.93-15.09 0-26.69-3.97-34.82-11.98-8.12-7.95-12.18-18.15-12.18-30.56 0-7.28 1.54-13.94 4.59-19.98 3.08-6.03 7.1-10.83 12.05-14.47 4.98-3.64 10.55-6.42 16.77-8.28 4.59-1.3 11.52-2.54 20.74-3.79 18.81-2.4 32.71-5.32 41.58-8.67.09-3.45.14-5.65.14-6.56 0-10.26-2.21-17.49-6.62-21.71-5.96-5.7-14.84-8.52-26.57-8.52-11 0-19.12 2.1-24.33 6.27-5.25 4.17-9.09 11.55-11.6 22.18l-22.78-3.45c2.07-10.58 5.47-19.16 10.24-25.68 4.77-6.51 11.65-11.49 20.66-15.04 8.96-3.5 19.42-5.27 31.24-5.27 11.75 0 21.32 1.49 28.7 4.5 7.33 3.02 12.75 6.76 16.2 11.31 3.43 4.55 5.87 10.3 7.28 17.25.75 4.31 1.15 12.07 1.15 23.23v33.54c0 23.43.49 38.23 1.45 44.51.93 6.27 2.87 12.26 5.7 18.01h-24.37c-2.34-5.32-3.83-11.55-4.5-18.68zm-1.85-56.06c-8.48 3.74-21.19 6.9-38.14 9.49-9.62 1.48-16.42 3.16-20.39 5.03s-7.02 4.6-9.19 8.14c-2.15 3.6-3.26 7.57-3.26 11.98 0 6.66 2.34 12.27 7.06 16.72 4.73 4.46 11.61 6.71 20.66 6.71 8.96 0 16.95-2.11 23.97-6.37 6.97-4.22 12.13-10.02 15.4-17.35 2.52-5.7 3.75-14.08 3.75-25.15zm59.36 74.74v-149.19h20.92v21.18c10.06-16.24 24.63-24.34 43.66-24.34 8.3 0 15.89 1.63 22.82 4.84 6.92 3.21 12.13 7.47 15.58 12.7 3.44 5.22 5.86 11.45 7.24 18.63.84 4.7 1.28 12.89 1.28 24.58v91.6h-23.31v-90.64c0-10.3-.89-18.02-2.69-23.09-1.81-5.08-5.03-9.15-9.62-12.22-4.6-3.02-10.02-4.55-16.21-4.55-9.88 0-18.39 3.4-25.59 10.25-7.2 6.8-10.77 19.79-10.77 38.85v81.4zm237.07-54.62 22.78 3.45c-2.52 17.01-8.88 30.28-19.16 39.91-10.29 9.63-22.96 14.42-37.92 14.42-18.76 0-33.85-6.66-45.23-19.98-11.44-13.31-17.13-32.38-17.13-57.2 0-16.1 2.47-30.13 7.37-42.21 4.9-12.02 12.35-21.08 22.42-27.06 10.02-6.04 20.92-9.06 32.75-9.06 14.88 0 27.1 4.07 36.55 12.27 9.48 8.19 15.57 19.83 18.23 34.87l-22.51 3.74c-2.16-10.01-5.96-17.53-11.48-22.61-5.47-5.03-12.1-7.57-19.86-7.57-11.74 0-21.28 4.55-28.65 13.65-7.33 9.15-10.99 23.52-10.99 43.26 0 20.03 3.53 34.54 10.6 43.6 7.1 9.05 16.32 13.61 27.67 13.61 9.18 0 16.82-3.02 22.91-9.11 6.13-6.03 10.01-15.38 11.65-27.98zm33.91-19.97c0-27.55 7.05-47.96 21.22-61.23 11.79-11.02 26.22-16.53 43.21-16.53 18.85 0 34.3 6.71 46.31 20.12 11.96 13.37 17.96 31.91 17.96 55.53 0 19.16-2.65 34.21-7.95 45.18s-13.02 19.5-23.17 25.58c-10.11 6.08-21.18 9.1-33.15 9.1-19.24 0-34.78-6.66-46.65-20.02-11.87-13.37-17.78-32.63-17.78-57.73zm23.83.04c0 19.07 3.83 33.35 11.52 42.79 7.72 9.48 17.39 14.23 29.08 14.23 11.57 0 21.19-4.75 28.91-14.28 7.69-9.53 11.53-24.05 11.53-43.55 0-18.4-3.89-32.34-11.61-41.78-7.73-9.48-17.35-14.22-28.83-14.22-11.69 0-21.36 4.69-29.08 14.13-7.69 9.44-11.52 23.67-11.52 42.68zm122.92 30 23.04-4.03c1.28 10.01 4.9 17.68 10.82 23.04 5.91 5.32 14.21 8.01 24.8 8.01 10.73 0 18.68-2.35 23.88-7.09 5.16-4.7 7.77-10.26 7.77-16.63 0-5.7-2.34-10.2-6.98-13.46-3.26-2.25-11.21-5.08-23.83-8.58-17.04-4.64-28.82-8.67-35.44-12.07-6.58-3.45-11.57-8.14-14.97-14.18-3.39-5.99-5.12-12.65-5.12-19.93 0-6.66 1.42-12.79 4.19-18.45 2.83-5.65 6.63-10.34 11.44-14.08 3.62-2.87 8.57-5.32 14.78-7.33 6.27-2.01 12.94-3.02 20.09-3.02 10.77 0 20.21 1.68 28.34 5.08 8.16 3.35 14.17 7.95 18.05 13.7 3.84 5.8 6.53 13.51 7.99 23.19l-22.78 3.45c-1.01-7.76-4.02-13.85-8.95-18.21-4.95-4.36-11.93-6.51-20.97-6.51-10.64 0-18.27 1.91-22.82 5.75-4.55 3.83-6.84 8.33-6.84 13.46 0 3.26.92 6.23 2.82 8.86 1.9 2.69 4.85 4.94 8.92 6.71 2.34.96 9.14 3.11 20.52 6.47 16.42 4.74 27.9 8.67 34.43 11.69 6.53 3.01 11.65 7.47 15.36 13.22 3.75 5.8 5.6 12.98 5.6 21.61 0 8.38-2.25 16.28-6.8 23.71-4.54 7.43-11.07 13.18-19.59 17.25-8.56 4.07-18.23 6.08-29 6.08-17.83 0-31.47-4.02-40.83-12.02-9.35-8.05-15.31-19.93-17.92-35.69zm303.99 44.55v-18.92c-8.7 14.7-21.5 22.08-38.4 22.08-10.95 0-21.02-3.26-30.15-9.82-9.18-6.51-16.29-15.67-21.36-27.35-5.03-11.74-7.55-25.2-7.55-40.44 0-14.85 2.3-28.31 6.84-40.43 4.59-12.08 11.43-21.37 20.57-27.79 9.09-6.47 19.33-9.68 30.59-9.68 8.29 0 15.66 1.92 22.11 5.7 6.44 3.79 11.7 8.77 15.75 14.85v-74.01h23.31v205.81zm-73.62-74.4c0 19.07 3.7 33.29 11.16 42.73 7.42 9.44 16.2 14.14 26.31 14.14 10.19 0 18.85-4.51 25.99-13.51 7.11-9.01 10.68-22.76 10.68-41.25 0-20.32-3.62-35.26-10.9-44.8-7.24-9.53-16.19-14.27-26.83-14.27-10.38 0-19.03 4.55-26 13.7-6.93 9.15-10.41 23.57-10.41 43.26zm225.94 26.11 24.1 3.45c-3.76 15.18-10.77 27.02-21.02 35.4-10.23 8.39-23.3 12.6-39.23 12.6-20.04 0-35.94-6.71-47.67-20.12-11.74-13.37-17.61-32.19-17.61-56.39 0-25.01 5.92-44.46 17.78-58.25 11.88-13.85 27.28-20.75 46.21-20.75 18.32 0 33.29 6.76 44.9 20.31 11.61 13.56 17.43 32.63 17.43 57.21 0 1.48-.04 3.73-.13 6.7h-102.36c.88 16.34 5.12 28.89 12.8 37.56 7.64 8.68 17.21 13.04 28.65 13.04 8.52 0 15.8-2.45 21.8-7.33 6.05-4.89 10.82-12.7 14.35-23.43zm-76.28-40.53h76.54c-1.02-12.55-3.98-21.94-8.78-28.22-7.38-9.73-16.99-14.61-28.78-14.61-10.68 0-19.64 3.88-26.93 11.64-7.23 7.76-11.25 18.16-12.05 31.19zm205.24 88.82v-205.81h25.16v181.66h93.22v24.15zm239.19-48.29 24.1 3.45c-3.75 15.18-10.77 27.02-21.01 35.4-10.24 8.39-23.3 12.6-39.24 12.6-20.04 0-35.93-6.71-47.67-20.12-11.74-13.37-17.6-32.19-17.6-56.39 0-25.01 5.91-44.46 17.78-58.25 11.87-13.85 27.28-20.75 46.21-20.75 18.32 0 33.29 6.76 44.9 20.31 11.6 13.56 17.43 32.63 17.43 57.21 0 1.48-.05 3.73-.13 6.7h-102.36c.88 16.34 5.11 28.89 12.8 37.56 7.63 8.68 17.21 13.04 28.64 13.04 8.52 0 15.8-2.45 21.81-7.33 6.04-4.89 10.81-12.7 14.34-23.43zm-76.27-40.53h76.54c-1.02-12.55-3.98-21.94-8.79-28.22-7.37-9.73-16.99-14.61-28.77-14.61-10.69 0-19.64 3.88-26.93 11.64-7.23 7.76-11.25 18.16-12.05 31.19zm129.81-88.25v-28.74h23.31v28.74zm0 177.07v-149.19h23.31v149.19zm109.41-22.56 3.18 22.32c-6.53 1.49-12.4 2.25-17.52 2.25-8.43 0-14.96-1.44-19.63-4.36-4.65-2.92-7.91-6.7-9.81-11.45-1.89-4.74-2.82-14.71-2.82-29.89v-85.95h-17.21v-19.55h17.21v-36.89l23.3-15.18v52.07h23.3v19.55h-23.3v87.38c0 7.24.4 11.89 1.24 13.95.79 2.06 2.12 3.69 3.97 4.93 1.85 1.2 4.51 1.82 7.95 1.82 2.55 0 5.95-.33 10.14-1zm116.75-25.73 24.1 3.45c-3.75 15.18-10.77 27.02-21.01 35.4-10.24 8.39-23.3 12.6-39.24 12.6-20.04 0-35.93-6.71-47.67-20.12-11.74-13.37-17.6-32.19-17.6-56.39 0-25.01 5.91-44.46 17.78-58.25 11.87-13.85 27.28-20.75 46.21-20.75 18.32 0 33.29 6.76 44.9 20.31 11.6 13.56 17.43 32.63 17.43 57.21 0 1.48-.05 3.73-.13 6.7h-102.36c.88 16.34 5.11 28.89 12.8 37.56 7.63 8.68 17.21 13.04 28.64 13.04 8.52 0 15.8-2.45 21.81-7.33 6.04-4.89 10.81-12.7 14.34-23.43zm-76.27-40.53h76.54c-1.02-12.55-3.98-21.94-8.79-28.22-7.37-9.73-16.99-14.61-28.77-14.61-10.69 0-19.64 3.88-26.93 11.64-7.23 7.76-11.25 18.16-12.05 31.19zm207.36 88.82v-205.81h25.16v84.79h97.99v-84.79h25.16v205.81h-25.16v-96.87h-97.99v96.87zm277.06 0v-22.18c-10.69 16.91-25.16 25.34-43.47 25.34-8.08 0-15.63-1.67-22.65-5.03-7.02-3.4-12.23-7.62-15.63-12.69-3.4-5.13-5.77-11.36-7.15-18.74-.93-4.98-1.4-12.84-1.4-23.57v-92.32h23.3v82.55c0 13.17.48 22.09 1.41 26.64 1.46 6.66 4.55 11.83 9.31 15.61 4.73 3.79 10.55 5.71 17.52 5.71 6.98 0 13.51-1.92 19.61-5.8 6.09-3.88 10.41-9.2 12.97-15.86 2.52-6.66 3.8-16.38 3.8-29.08v-79.77h23.3v149.19zm57.51 0v-149.19h20.92v21.08c4.29-7.28 10.03-13.17 17.18-17.58 7.15-4.45 15.26-6.66 24.4-6.66 10.15 0 18.49 2.3 24.99 6.85 6.48 4.6 11.07 10.97 13.73 19.21 10.94-17.39 25.11-26.06 42.59-26.06 13.68 0 24.23 4.07 31.55 12.27 7.37 8.19 11.09 20.79 11.09 37.8v102.28h-23.31v-93.9c0-10.06-.8-17.34-2.3-21.8-1.5-4.45-4.24-8-8.25-10.73-3.97-2.73-8.65-4.07-14-4.07-9.71 0-17.74 3.5-24.14 10.44-6.4 7-9.58 18.16-9.58 33.49v86.57h-23.3v-96.82c0-11.21-1.9-19.65-5.69-25.25-3.8-5.61-10.02-8.43-18.63-8.43-6.53 0-12.58 1.87-18.14 5.6-5.56 3.74-9.58 9.2-12.1 16.44-2.47 7.18-3.7 17.58-3.7 31.14v77.32zm310.39-18.68c-8.65 8-17 13.6-24.99 16.91-7.98 3.3-16.54 4.93-25.73 4.93-15.09 0-26.7-3.97-34.82-11.98-8.12-7.95-12.18-18.15-12.18-30.56 0-7.28 1.53-13.94 4.58-19.98 3.09-6.03 7.11-10.83 12.05-14.47 4.99-3.64 10.55-6.42 16.77-8.28 4.6-1.3 11.53-2.54 20.75-3.79 18.8-2.4 32.71-5.32 41.58-8.67.09-3.45.14-5.65.14-6.56 0-10.26-2.21-17.49-6.63-21.71-5.96-5.7-14.83-8.52-26.57-8.52-10.99 0-19.11 2.1-24.32 6.27-5.25 4.17-9.09 11.55-11.61 22.18l-22.77-3.45c2.07-10.58 5.47-19.16 10.23-25.68 4.77-6.51 11.66-11.49 20.67-15.04 8.95-3.5 19.42-5.27 31.24-5.27 11.75 0 21.32 1.49 28.7 4.5 7.32 3.02 12.75 6.76 16.19 11.31s5.87 10.3 7.28 17.25c.76 4.31 1.15 12.07 1.15 23.23v33.54c0 23.43.49 38.23 1.46 44.51.93 6.27 2.87 12.26 5.69 18.01h-24.36c-2.34-5.32-3.84-11.55-4.5-18.68zm-1.85-56.06c-8.48 3.74-21.19 6.9-38.14 9.49-9.62 1.48-16.42 3.16-20.39 5.03s-7.02 4.6-9.19 8.14c-2.15 3.6-3.26 7.57-3.26 11.98 0 6.66 2.34 12.27 7.06 16.72 4.72 4.46 11.61 6.71 20.65 6.71 8.97 0 16.95-2.11 23.98-6.37 6.97-4.22 12.13-10.02 15.4-17.35 2.51-5.7 3.75-14.08 3.75-25.15zm59.36 74.74v-149.19h20.92v21.18c10.06-16.24 24.63-24.34 43.65-24.34 8.3 0 15.89 1.63 22.82 4.84s12.14 7.47 15.58 12.7c3.45 5.22 5.87 11.45 7.24 18.63.84 4.7 1.28 12.89 1.28 24.58v91.6h-23.3v-90.64c0-10.3-.89-18.02-2.7-23.09-1.8-5.08-5.03-9.15-9.61-12.22-4.6-3.02-10.03-4.55-16.21-4.55-9.89 0-18.4 3.4-25.59 10.25-7.2 6.8-10.77 19.79-10.77 38.85v81.4zm138.55-74.59c0-27.55 7.06-47.96 21.23-61.23 11.78-11.02 26.22-16.53 43.21-16.53 18.85 0 34.3 6.71 46.3 20.12 11.96 13.37 17.97 31.91 17.97 55.53 0 19.16-2.65 34.21-7.95 45.18s-13.02 19.5-23.17 25.58c-10.11 6.08-21.18 9.1-33.15 9.1-19.25 0-34.78-6.66-46.66-20.02-11.86-13.37-17.78-32.63-17.78-57.73zm23.84.04c0 19.07 3.83 33.35 11.51 42.79 7.72 9.48 17.4 14.23 29.09 14.23 11.56 0 21.19-4.75 28.91-14.28 7.68-9.53 11.53-24.05 11.53-43.55 0-18.4-3.89-32.34-11.61-41.78-7.73-9.48-17.35-14.22-28.83-14.22-11.69 0-21.37 4.69-29.09 14.13-7.68 9.44-11.51 23.67-11.51 42.68z" fill="#83a3b3" fill-rule="nonzero"/></svg>