<svg height="637" width="2500" xmlns="http://www.w3.org/2000/svg" viewBox="5 -0.9909999999999997 577.013 149.002"><path d="M355 28h3l1.599 3.245c4.972 10.087 9.96 20.166 14.961 30.239 2.572 5.178 5.137 10.36 7.691 15.547a3608.15 3608.15 0 0 0 7.43 14.997c.948 1.907 1.89 3.816 2.827 5.728 1.313 2.676 2.643 5.343 3.977 8.009l1.164 2.404c2.156 4.255 3.77 6.89 8.351 8.831 2.56.431 2.56.431 5.125.313l2.57-.012c2.579-.164 2.579-.164 5.305-2.301.44-2.87.44-2.87.34-6.286l.002-1.951a637.237 637.237 0 0 0-.049-6.396 2090.826 2090.826 0 0 0-.087-16.1c-.03-3.967-.044-7.936-.06-11.904-.032-7.788-.084-15.575-.146-23.363l-12-2V37h52v10l-4.875.938c-3.678.69-3.678.69-7.125 2.062l-1 65c13.728.24 13.728.24 27-2 2.971-4.754 3.931-9.573 5-15h10c-.448 7.54-1.07 15.011-2.04 22.5l-.28 2.203A3332.75 3332.75 0 0 1 485 128c-10.604.173-21.208.34-31.812.5l-2.372.036c-25.94.392-51.873.608-77.816.464v-13a184.039 184.039 0 0 0-3.5-7.688L366 101l-28-1-2 6a212.116 212.116 0 0 1-3.125 6.375l-1.633 3.21L330 118l10 1v10h-95v-10l13-3c2.096-17.512 2.096-17.512-3.634-33.402a134.574 134.574 0 0 0-6.595-6.782c-3.257-3.34-5.937-7.135-8.708-10.879-8.588-12.099-8.588-12.099-22-17.624L214 47V37h45v10l-4 1 1.098 1.434a29331.765 29331.765 0 0 1 6.754 8.82c3.745 4.894 7.46 9.809 11.148 14.746 3.891-3.683 7.005-7.547 10.063-11.938l1.275-1.802A455.285 455.285 0 0 0 293 48l-2-1V37h37v10l-7.227 1.172c-6.677 1.994-10.455 6.449-14.523 11.766l-1.561 1.996c-1.572 2.015-3.131 4.04-4.689 6.066l-2.79 3.594A1230.83 1230.83 0 0 0 290 81l-1.602 1.706c-5.269 5.971-5.216 11.38-4.96 19.106l.005 3.428c-.217 5.636-.217 5.636 1.96 10.56 4.431 3.33 11.318 2.618 16.597 2.2 3.77-.655 6.877-1.573 9.309-4.662a211.37 211.37 0 0 0 7.823-14.39l1.15-2.305c1.238-2.482 2.47-4.967 3.702-7.452l2.595-5.204c2.265-4.544 4.526-9.09 6.785-13.636 3.629-7.301 7.264-14.6 10.9-21.897 1.27-2.55 2.538-5.102 3.805-7.654l2.317-4.653 1.07-2.161c2.43-4.872 2.43-4.872 3.544-5.986zm-4 44a1505.412 1505.412 0 0 0-3 5.875l-1.688 3.305C344.86 83.784 344.86 83.784 345 86h14c-1.27-3.813-2.33-6.906-4.125-10.375l-1.07-2.086L353 72h-2z" fill="#5e3c96"/><path d="M5 29c7.677-.068 15.354-.123 23.031-.155 3.567-.016 7.133-.037 10.7-.071 43.895-.412 43.895-.412 55.359 10.152 6.24 6.775 7.444 12.347 7.281 21.504C100.4 69.775 94.56 76.633 88 83l-3 2c1.324 2.927 2.766 5.025 5.018 7.309l1.855 1.893 2.014 2.02 2.103 2.124c1.476 1.486 2.955 2.97 4.436 4.45a1236.53 1236.53 0 0 1 6.623 6.702C121.605 124.171 138.497 139.85 160 142v5c-5.192.125-10.383.215-15.576.275-1.761.025-3.523.059-5.283.102-26.239.634-42.905-13.213-61.4-30.698-4.172-4.024-8.247-8.15-12.31-12.285l-1.962-1.988-1.737-1.771C57.56 96.698 54.802 95.558 49 95c.08 3.772.194 7.542.313 11.313l.068 3.248.107 3.115.08 2.872c.503 2.853 1.122 3.754 3.432 5.452 2.955.795 2.955.795 6.188 1.188l3.292.48L65 123v11H5v-11l2.52-.402 3.293-.535 3.269-.528c2.967-.474 2.967-.474 5.918-1.535.07-9.597.123-19.193.155-28.79.016-4.456.037-8.912.071-13.367.033-4.3.05-8.598.059-12.897.005-1.641.016-3.283.032-4.924.022-2.297.025-4.592.024-6.888l.02-3.964c-.088-3.131-.088-3.131-1.757-5.053-2.94-2.048-5.19-2.362-8.729-2.68L5 41V29zm43 15v36c10.516.528 10.516.528 19-3 4.707-4.707 6.09-9.541 6.313-16.063-.1-4.137-.552-6.7-3.313-9.937-6.882-6.338-12.313-6.193-22-7z" fill="#5e3b96"/><path d="M557.063 29.375l2.452.382c8.471 1.422 8.471 1.422 11.485 3.243.929 3.387 1.12 6.584 1.098 10.082l-.01 2.822-.025 2.908-.014 2.967c-.012 2.407-.03 4.814-.049 7.221h-10l-1.625-4.25c-2.013-4.483-3.842-6.57-8.375-8.75-7.825-2.698-16.701-3.425-24.625-.688-3.564 1.433-3.564 1.433-5.375 4.688-.14 2.473-.14 2.473 1 5 4.866 4.716 10.362 7.356 16.438 10.25C574.15 82.251 574.15 82.251 580 97c2.013 6.038 1.84 12.733-.438 18.688-4.615 9.02-13.27 14.088-22.562 17.312-19.37 5.525-44.265 7.484-63-1-4.725-4.725-3.047-14.874-3.066-21.277.005-3.575.03-7.149.066-10.723h12l.813 5.188c1.022 5.884 1.022 5.884 4.187 10.812 5.038 3.409 9.986 4.738 16 5l2.188.121c6.82.201 13.75-.182 19.312-4.496 2.477-2.365 2.477-2.365 3.563-4.625-.097-3.076-1.213-4.554-3.063-7-4.204-3.833-8.314-6.395-13.438-8.813-1.42-.694-2.839-1.389-4.257-2.085l-2.17-1.058c-14.688-7.18-28.598-14.46-35.51-30.169-1.566-7.206-.5-12.683 3.375-18.875 8.81-10.364 23.654-14.609 36.785-15.871 8.98-.523 17.406-.14 26.278 1.246z" fill="#5d3b96"/><path d="M210.688 48.129C220.323 55.926 227.591 65.33 229 78c1.003 12.517-3.176 21.97-10.188 32.187-13.719 13.72-31.145 20.003-50.312 20.188-19.176-.166-35.176-6.103-49.375-19.09-8.476-9.028-11.481-19.903-11.332-31.945.691-11.151 6.217-20.782 14.144-28.528 24.562-20.44 63.147-21.763 88.75-2.683zM144 60c-7.42 9.466-9.13 18.023-8 30 2.336 9.662 7.804 17.135 16.254 22.406 7.615 3.927 15.324 4.751 23.746 3.594 8.666-2.78 16.105-7.678 20.496-15.75 4.54-9.67 6.377-18.515 2.879-28.938-3.944-9.68-10.47-16.845-20.063-21.187-13.227-4.34-26.16-.142-35.312 9.875z" fill="#5e3c97"/><path d="M216 39h41v6h-6c2.755 5 6.289 9.344 9.813 13.813C265.274 64.493 269.692 70.2 274 76c4.543-4.212 8-8.948 11.563-14a3862.75 3862.75 0 0 1 3.378-4.75l1.595-2.242c1.215-1.667 2.501-3.283 3.804-4.883 1.842-2.114 1.842-2.114 2.66-5.125h-4v-6h33v6l-1.688.227c-11.354 1.956-16.451 8.85-22.912 17.861-2.818 3.849-5.776 7.591-8.712 11.35l-1.815 2.33c-4.757 6.105-4.757 6.105-7.034 8.607-3.302 4.712-2.453 10.051-2.402 15.625l-.072 3.563c-.045 6.775-.045 6.775 2.9 12.699 2.594 1.649 4.023 2.397 7.048 2.55L295 120v7h-48v-7l2.082-.297 2.73-.453 2.708-.422c3.117-1.04 3.809-2.027 5.48-4.828.703-4.223.601-8.475.625-12.75l.137-3.5c.045-5.725-.044-9.703-3.942-14.102A487.925 487.925 0 0 0 253 80a101.757 101.757 0 0 1-2.922-3.79l-1.401-1.893-1.427-1.942a5688.532 5688.532 0 0 0-3.129-4.18 683.157 683.157 0 0 1-6.023-8.203C233.312 53.496 229.225 47.962 221 46l-3.063-.75L216 45v-6z" fill="#5d3b96"/><path d="M355 28h3l1.599 3.245c4.972 10.087 9.96 20.166 14.961 30.239 2.572 5.178 5.137 10.36 7.691 15.547a3608.15 3608.15 0 0 0 7.43 14.997c.948 1.907 1.89 3.816 2.827 5.728 1.313 2.676 2.643 5.343 3.977 8.009l1.164 2.404c2.156 4.255 3.77 6.89 8.351 8.831 2.56.431 2.56.431 5.125.313l2.57-.012c2.579-.164 2.579-.164 5.305-2.301.44-2.87.44-2.87.34-6.286l.002-1.951a637.237 637.237 0 0 0-.049-6.396 2090.826 2090.826 0 0 0-.087-16.1c-.03-3.967-.044-7.936-.06-11.904-.032-7.788-.084-15.575-.146-23.363l-12-2V37h52v10l-4.875.938c-3.678.69-3.678.69-7.125 2.062l-1 65c13.728.24 13.728.24 27-2 2.971-4.754 3.931-9.573 5-15h10c-.448 7.54-1.07 15.011-2.04 22.5l-.28 2.203A3332.75 3332.75 0 0 1 485 128c-10.604.173-21.208.34-31.812.5l-2.372.036c-25.94.392-51.873.608-77.816.464v-13a184.039 184.039 0 0 0-3.5-7.688L366 101l-28-1-2 6a212.116 212.116 0 0 1-3.125 6.375l-1.633 3.21L330 118l10 1v10h-95v-10l13-3c2.096-17.512 2.096-17.512-3.634-33.402a134.574 134.574 0 0 0-6.595-6.782c-3.257-3.34-5.937-7.135-8.708-10.879-8.588-12.099-8.588-12.099-22-17.624L214 47V37h45v10l-4 1 1.098 1.434a29331.765 29331.765 0 0 1 6.754 8.82c3.745 4.894 7.46 9.809 11.148 14.746 3.891-3.683 7.005-7.547 10.063-11.938l1.275-1.802A455.285 455.285 0 0 0 293 48l-2-1V37h37v10l-7.227 1.172c-6.677 1.994-10.455 6.449-14.523 11.766l-1.561 1.996c-1.572 2.015-3.131 4.04-4.689 6.066l-2.79 3.594A1230.83 1230.83 0 0 0 290 81l-1.602 1.706c-5.269 5.971-5.216 11.38-4.96 19.106l.005 3.428c-.217 5.636-.217 5.636 1.96 10.56 4.431 3.33 11.318 2.618 16.597 2.2 3.77-.655 6.877-1.573 9.309-4.662a211.37 211.37 0 0 0 7.823-14.39l1.15-2.305c1.238-2.482 2.47-4.967 3.702-7.452l2.595-5.204c2.265-4.544 4.526-9.09 6.785-13.636 3.629-7.301 7.264-14.6 10.9-21.897 1.27-2.55 2.538-5.102 3.805-7.654l2.317-4.653 1.07-2.161c2.43-4.872 2.43-4.872 3.544-5.986zm1 2c-5.877 10.878-11.46 21.885-16.891 32.99a3913.167 3913.167 0 0 1-3.2 6.52l-1.085 2.205-2.19 4.452a2237.346 2237.346 0 0 0-5.556 11.377c-1.81 3.733-3.639 7.455-5.481 11.172a448.482 448.482 0 0 0-2.051 4.219C313.06 116.44 313.06 116.44 306 119c-2.737.685-5.164.801-8 1v7h40v-7h-11l2.188-4.305 2.812-5.57 1.445-2.84 1.368-2.715 1.269-2.507c1.054-1.991 1.054-1.991.918-4.063l30 1 10 21h-3v7h109c2.112-13.458 2.112-13.458 3-27h-7l-.55 2.52-.762 3.292-.739 3.27c-.994 3.058-1.399 4.063-3.949 5.918-3.003.432-3.003.432-6.637.512l-3.935.107-4.115.068c-1.384.034-2.767.068-4.15.104-3.388.083-6.775.152-10.163.209.038-8.554.097-17.107.184-25.66.04-3.972.072-7.944.087-11.915.015-3.833.05-7.664.097-11.496.015-1.463.023-2.926.024-4.389.002-2.048.03-4.093.062-6.14l.027-3.534C445 50 445 50 446.887 48.146c2.304-1.25 4.292-1.842 6.863-2.334l2.422-.48L458 45v-6h-50v6l1.828.332 2.422.48 2.39.458c2.789.863 4.267 1.68 6.36 3.73.501 2.808.501 2.808.502 6.26l.028 3.913c-.01 1.411-.022 2.822-.034 4.233 0 1.446.002 2.892.005 4.338 0 3.03-.012 6.059-.034 9.089a1100.43 1100.43 0 0 0-.013 11.651c.007 2.986-.001 5.97-.014 8.956a729.77 729.77 0 0 0 0 4.297c.002 2.001-.016 4.002-.036 6.003l-.016 3.452C421 115 421 115 419.662 116.829c-4.077 2.872-8.886 2.759-13.662 2.171-7.178-3.59-9.601-10.056-13.012-16.911l-1.184-2.367c-1.284-2.57-2.566-5.14-3.847-7.71l-2.678-5.36c-2.344-4.692-4.686-9.386-7.027-14.08-2.392-4.794-4.786-9.586-7.18-14.379C366.38 48.797 361.69 39.4 357 30h-1zm-140 9v6l1.977.516 2.648.734 2.602.703c5.682 2.145 9.303 5.26 12.773 10.172l2.297 3.172 1.275 1.764c2.818 3.828 5.755 7.565 8.678 11.314l1.79 2.305 1.726 2.218 1.656 2.164c1.692 2.165 1.692 2.165 4.46 4.66 3.347 5.18 2.843 10.31 2.743 16.34l.059 3.55c-.049 8.476-.049 8.476-2.954 12.646-2.592 1.654-4.016 2.4-7.043 2.555L247 120v7h48v-7l-2.082-.297-2.73-.453-2.708-.422c-3.115-1.04-3.803-2.035-5.48-4.828-1.534-8.46-2.749-22.01 1.664-29.703 2.278-2.689 4.71-4.951 7.336-7.297a195.57 195.57 0 0 0 4.938-6.375c.835-1.09 1.673-2.18 2.511-3.27a530.419 530.419 0 0 0 5.196-6.93l1.322-1.77a945.66 945.66 0 0 0 3.611-4.878c3.765-4.317 7.633-6.997 13.297-8.027.781-.15 1.562-.3 2.367-.453L326 45v-6h-33v6h4c-2.9 5.336-6.186 10.12-9.875 14.938l-1.527 2.013a2273.925 2273.925 0 0 1-3.042 4.002C280.02 69.289 277.51 72.645 275 76c-3.634-3.492-6.79-7.15-9.813-11.188-.868-1.147-1.738-2.294-2.609-3.44l-1.303-1.716c-2.518-3.27-5.151-6.45-7.779-9.633C252 48 252 48 251 45h6v-6h-41z" fill="#a5adb6"/><path d="M5 29c7.677-.068 15.354-.123 23.031-.155 3.567-.016 7.133-.037 10.7-.071 43.895-.412 43.895-.412 55.359 10.152 6.24 6.775 7.444 12.347 7.281 21.504C100.4 69.775 94.56 76.633 88 83l-3 2c1.324 2.927 2.766 5.025 5.018 7.309l1.855 1.893 2.014 2.02 2.103 2.124c1.476 1.486 2.955 2.97 4.436 4.45a1236.53 1236.53 0 0 1 6.623 6.702C121.605 124.171 138.497 139.85 160 142v5c-5.192.125-10.383.215-15.576.275-1.761.025-3.523.059-5.283.102-26.239.634-42.905-13.213-61.4-30.698-4.172-4.024-8.247-8.15-12.31-12.285l-1.962-1.988-1.737-1.771C57.56 96.698 54.802 95.558 49 95c.08 3.772.194 7.542.313 11.313l.068 3.248.107 3.115.08 2.872c.503 2.853 1.122 3.754 3.432 5.452 2.955.795 2.955.795 6.188 1.188l3.292.48L65 123v11H5v-11l2.52-.402 3.293-.535 3.269-.528c2.967-.474 2.967-.474 5.918-1.535.07-9.597.123-19.193.155-28.79.016-4.456.037-8.912.071-13.367.033-4.3.05-8.598.059-12.897.005-1.641.016-3.283.032-4.924.022-2.297.025-4.592.024-6.888l.02-3.964c-.088-3.131-.088-3.131-1.757-5.053-2.94-2.048-5.19-2.362-8.729-2.68L5 41V29zm2 2v8l2.012.297 2.675.453 2.637.422C17.723 41.224 19.487 42.469 22 45c.635 3.219.635 3.219.647 7.076l.027 2.135c.021 2.325.007 4.648-.01 6.973.003 1.619.008 3.238.015 4.857.007 3.392-.004 6.783-.027 10.175a968.1 968.1 0 0 0 .018 13.027c.018 3.343.012 6.686 0 10.03-.004 1.6 0 3.2.011 4.801.013 2.241-.006 4.48-.034 6.72l-.012 3.86c-.801 4.222-2.327 5.692-5.635 8.346-2.676.926-2.676.926-5.313 1.313l-2.675.425L7 125v8h56v-8l-2.012-.262-2.675-.425-2.637-.387c-3.89-1.346-5.31-2.494-7.676-5.926-.753-4.268-.79-8.487-.813-12.813l-.076-3.544C47.053 98.76 47.016 95.882 47 93c5.585-.092 9.781.2 13.977 4.133 1.239 1.31 2.455 2.64 3.648 3.992 1.294 1.38 2.59 2.76 3.887 4.137l1.833 1.986c2.477 2.623 5.18 4.921 7.936 7.24 1.84 1.618 3.479 3.352 5.156 5.137 10.623 10.685 28.174 25.969 44.025 26.489a611.9 611.9 0 0 0 4.268-.016l2.274-.005c2.395-.005 4.79-.018 7.184-.03A4986.55 4986.55 0 0 0 158 146l-.001-2-2.098-.375c-25.696-5.417-43.877-26.405-61.652-44.313l-3.594-3.607A7109.024 7109.024 0 0 1 82 87c1.125-3.374 1.984-4.02 4.688-6.188 6.465-5.49 11.7-11.613 12.718-20.265.178-7.21.135-12.883-4.574-18.75-8.389-8.228-19.828-10.934-31.296-10.91h-3.821l-4.082.015-4.212.005c-3.68.003-7.358.013-11.037.024-3.761.01-7.522.015-11.282.02-7.368.01-14.735.028-22.102.049z" fill="#a2a8b5"/><path d="M557.063 29.375l2.452.382c8.471 1.422 8.471 1.422 11.485 3.243.929 3.387 1.12 6.584 1.098 10.082l-.01 2.822-.025 2.908-.014 2.967c-.012 2.407-.03 4.814-.049 7.221h-10l-1.625-4.25c-2.013-4.483-3.842-6.57-8.375-8.75-7.825-2.698-16.701-3.425-24.625-.688-3.564 1.433-3.564 1.433-5.375 4.688-.14 2.473-.14 2.473 1 5 4.866 4.716 10.362 7.356 16.438 10.25C574.15 82.251 574.15 82.251 580 97c2.013 6.038 1.84 12.733-.438 18.688-4.615 9.02-13.27 14.088-22.562 17.312-19.37 5.525-44.265 7.484-63-1-4.725-4.725-3.047-14.874-3.066-21.277.005-3.575.03-7.149.066-10.723h12l.813 5.188c1.022 5.884 1.022 5.884 4.187 10.812 5.038 3.409 9.986 4.738 16 5l2.188.121c6.82.201 13.75-.182 19.312-4.496 2.477-2.365 2.477-2.365 3.563-4.625-.097-3.076-1.213-4.554-3.063-7-4.204-3.833-8.314-6.395-13.438-8.813-1.42-.694-2.839-1.389-4.257-2.085l-2.17-1.058c-14.688-7.18-28.598-14.46-35.51-30.169-1.566-7.206-.5-12.683 3.375-18.875 8.81-10.364 23.654-14.609 36.785-15.871 8.98-.523 17.406-.14 26.278 1.246zm-61.5 15.656c-3.445 4.34-4.156 9.127-3.993 14.547 1.638 9.23 9.265 16.06 16.43 21.422 7.602 4.978 15.633 8.785 23.875 12.563 14.802 6.792 14.802 6.792 18.125 13.437.512 4.438.326 6.476-2.063 10.313-5.966 5.459-13.166 5.052-20.875 5.062l-2.88.074c-7.473.031-12.87-1.494-18.494-6.511-2.514-4.376-3.557-9.047-4.688-13.938h-8c-.145 4.25-.234 8.499-.312 12.75l-.127 3.656-.05 3.516c-.025 1.068-.052 2.136-.079 3.237.332 3.04.332 3.04 2.916 5.155 12.91 8.205 36.725 6.396 50.996 3.374L549 133l3.281-.813c10.12-2.785 18.806-7.21 24.719-16.187 2.904-6.008 3.09-12.801 1.418-19.242C573.086 84.634 561.092 78.796 550 73c-1.328-.71-2.655-1.42-3.98-2.133-4.737-2.541-9.475-5.078-14.262-7.523-9.342-4.857-9.342-4.857-11.758-9.344-.563-2.5-.563-2.5 0-5 5.024-5.817 5.024-5.817 9.088-6.193 21.476-.674 21.476-.674 28.264 3.627 2.758 2.62 3.63 4.904 4.648 8.566l1 3h7V34l-6-1.438-3.375-.808c-21.481-4.468-49.186-3.88-65.063 13.277z" fill="#a2a8b4"/><path d="M508 46l-.105 2.195c-.26 7.865-.26 7.865 3.105 14.805 5.962 6.256 12.886 9.73 20.625 13.375C559.319 89.852 559.319 89.852 566 100c1.206 3.62 1.323 6.192 1 10-3.019 5.702-7.123 9.388-13 12l.48-1.637c1.265-5.753 1.787-12.813-.98-18.175-6.525-8.862-15.756-13.125-25.438-17.688-26.464-12.506-26.464-12.506-31.187-25.625.174-4.003 1.595-5.812 4.125-8.875 4.421-4 4.421-4 7-4z" fill="#a5adb6"/><g fill="#a8b1b7"><path d="M436.426.722l2.668.012 2.734-.005c1.91-.002 3.82.002 5.73.01 2.93.011 5.86 0 8.79-.012 1.853 0 3.705.003 5.558.007l2.668-.012C470.77.77 470.77.77 473 3v4c-3.215 1.607-6.436 1.057-10 1V6h-25v13h25v-4h-14v-5h24v12c-3.762 3.762-8.37 3.16-13.434 3.168l-2.166.01c-1.509.005-3.018.007-4.526.007-2.3.002-4.6.02-6.9.04-1.469.003-2.938.005-4.408.005l-2.07.022c-4.12-.02-8.416-.172-11.496-3.252-.25-3.138-.185-6.29-.187-9.437l-.038-2.682-.005-2.565-.013-2.36c.62-4.99 4.584-4.202 8.67-4.234zM111 1c5.518-.046 11.035-.086 16.553-.11 1.878-.01 3.756-.024 5.634-.04 2.695-.025 5.39-.036 8.086-.045l2.554-.032c2.06 0 4.118.104 6.173.227 2 2 2 2 2.195 4.602l-.07 3.023-.055 3.04L152 14l-8 3 12 6v2c-9.956 1.19-15.559-.748-23.613-6.152C128.344 16.642 125.55 16.313 121 16v9h-10V1zm10 5v5h21l1-5h-22zM278 1c4.857-.07 9.712-.129 14.57-.165 1.649-.015 3.299-.035 4.948-.061C299.9.737 302.28.72 304.66.707c.73-.015 1.46-.03 2.21-.047 6.098-.002 10.493 1.514 15.567 5.027 1.864 2.758 2.19 4.968 2.016 8.282-.831 3.727-2.67 5.433-5.453 8.031-7.886 4.476-18.782 3.12-27.5 3.063l-3.938-.014c-3.187-.012-6.375-.03-9.562-.049V1zm10 5v13c3.23.081 6.457.14 9.688.188l2.763.076c5.021.054 8.471.033 12.549-3.264l1-1c-.093-3.486-.093-3.486-1-7-2.956-2.057-5.446-2.238-8.984-2.195l-2.832.02-2.934.05-2.98.027c-2.424.024-4.847.06-7.27.098zM366 1c10.125 0 10.125 0 15.785 3.063l1.778.941c1.843.982 3.67 1.988 5.5 2.996 1.258.676 2.518 1.35 3.779 2.023 3.066 1.637 6.11 3.307 9.158 4.977V1h9v24c-6.24 0-8.92-.48-14.027-3.281l-1.92-1.01a663.295 663.295 0 0 1-5.99-3.209 2388.93 2388.93 0 0 0-4.096-2.168c-3.332-1.76-6.648-3.546-9.967-5.332v15h-9V1z"/></g><path d="M210.688 48.129C220.323 55.926 227.591 65.33 229 78c1.003 12.517-3.176 21.97-10.188 32.187-13.719 13.72-31.145 20.003-50.312 20.188-19.176-.166-35.176-6.103-49.375-19.09-8.476-9.028-11.481-19.903-11.332-31.945.691-11.151 6.217-20.782 14.144-28.528 24.562-20.44 63.147-21.763 88.75-2.683zM118 58c-7.565 10.314-9.191 20.486-8 33 2.42 11.19 11.02 20.363 20 27 16.636 10.232 36.616 13.185 55.688 8.812A109.81 109.81 0 0 0 191 125l2.992-1.031c14.683-5.53 23.962-14.264 30.809-28.102 3.57-8.536 3.506-18.466.199-27.055-7.141-15.075-19.166-23.394-34.355-29.05C165.405 30.96 135.858 38.358 118 58z" fill="#a2a7b4"/><path d="M169 1h39v4h-30v5h17v5h-17v4h30v6h-39V1zM243.89-.39C251.514 3.017 256.788 10.69 262 17l1.556 1.792C267 22.774 267 22.774 267 25c-1.582.109-3.166.186-4.75.25l-2.672.14C257 25 257 25 255.185 23.01c-2.737-2.516-4.053-2.523-7.72-2.54l-3.201-.016-3.327.047-3.337-.047-3.198.016-2.922.013c-3.18.664-3.735 1.88-5.48 4.518-2.48.39-2.48.39-5.188.25l-2.73-.11L216 25c1.974-4.528 5.175-7.674 8.512-11.25 2.517-2.708 2.517-2.708 4.695-5.625 4.153-5.268 7.604-9.116 14.684-8.516zM240 7c-1.357 1.559-1.357 1.559-2.625 3.5L235 14h12l-2.375-3.5-1.336-1.969L242 7h-2z" fill="#a8b1b7"/><path d="M26 41h8l.031 3.01c.098 9.358.2 18.717.308 28.075.056 4.811.109 9.622.158 14.434.048 4.642.1 9.285.156 13.927.02 1.772.04 3.544.056 5.315.024 2.48.054 4.96.086 7.441l.017 2.223c.05 3.425.35 6.222 1.188 9.575H26l1-4c.094-2.501.137-4.974.13-7.475l.005-2.263c.004-2.464.001-4.927-.002-7.39a6284.785 6284.785 0 0 0-.002-15.906c-.006-4.603-.003-9.206.003-13.808.004-3.537.002-7.074 0-10.611 0-1.697 0-3.395.002-5.092.003-2.37-.001-4.74-.007-7.11l.007-2.13C27.122 46.193 26.964 43.893 26 41z" fill="#a7b0b6"/><path d="M214 37h45v10l-4 1a189775141.923 189775141.923 0 0 1 7.852 10.254c3.745 4.894 7.46 9.809 11.148 14.746 3.85-3.651 6.964-7.468 10-11.813l1.316-1.861A221.048 221.048 0 0 0 294 46h-2v-8h34v1h-33v6h4c-.62 3.382-1.864 5.49-3.914 8.23l-1.809 2.436-1.902 2.522-1.832 2.462C283.434 66.157 279.237 71.592 275 77c-3.81-3.658-7.095-7.505-10.313-11.688-.96-1.24-1.92-2.48-2.882-3.718l-1.427-1.84c-2.602-3.312-5.309-6.54-8.015-9.766C251 48 251 48 251 45h6v-6h-41v6l3.5.188c8.013 1.11 12.276 5.216 17.125 11.5a828.136 828.136 0 0 1 3.881 5.29c2.864 3.875 5.843 7.66 8.806 11.46l1.778 2.293c.565.727 1.13 1.454 1.71 2.203l1.637 2.145c1.678 2.152 1.678 2.152 4.461 4.62 3.354 5.268 2.63 10.581 2.414 16.676l-.068 3.676c-.059 2.984-.14 5.966-.244 8.949h-3l.19-2.057c1.643-15.378 1.643-15.378-3.824-29.205a150.121 150.121 0 0 0-6.595-6.89c-3.232-3.372-5.929-7.164-8.709-10.91-8.587-12.1-8.587-12.1-22-17.626L214 47V37z" fill="#999bb1"/><path d="M425 47h9l-1 73h-8l.492-2.101c.552-3.151.635-6.079.637-9.278l.01-3.843-.006-4.126.003-4.254c.001-2.967 0-5.933-.006-8.9-.005-3.798-.002-7.596.004-11.395.004-2.926.002-5.852 0-8.779 0-1.4 0-2.8.002-4.201.003-1.958-.002-3.916-.007-5.873l-.002-3.373c-.04-3.098-.04-3.098-1.127-6.877z" fill="#a7b0b6"/><path d="M234 47c2.71-.313 2.71-.313 6 0 2.352 2.063 2.352 2.063 4.625 5l1.267 1.607A327.02 327.02 0 0 1 250 59l1.48 1.961a801.409 801.409 0 0 1 5.97 7.99l1.398 1.897 1.45 2.007c1.72 2.253 1.72 2.253 4.04 4.468 7.972 8.296 7.929 15.471 7.725 26.365.003 1.587.01 3.175.021 4.763A521.02 521.02 0 0 1 272 120h-8l.206-2.867c2.194-20.173 2.194-20.173-4.248-38.436a112.111 112.111 0 0 0-7.136-6.947c-3.216-3.089-5.72-6.707-8.322-10.313a3348.45 3348.45 0 0 0-2.844-3.816A741.587 741.587 0 0 1 234 47z" fill="#a5acb5"/><path d="M182.688 49.672c10.89 6.255 16.204 13.092 19.585 25.121 2.262 9.983-.067 18.619-5.023 27.457-5.22 8.182-11.934 12.478-21.137 15.336-8.723 1.71-17.447.999-25.113-3.586-8.829-6.205-13.615-13.846-17-24-1.071-12.351.65-22.103 8.75-31.938 3.905-4.075 8.118-6.768 13.25-9.062l2.352-1.105c7.789-2.631 16.963-1.667 24.335 1.777zM144 60c-7.42 9.466-9.13 18.023-8 30 2.336 9.662 7.804 17.135 16.254 22.406 7.615 3.927 15.324 4.751 23.746 3.594 8.666-2.78 16.105-7.678 20.496-15.75 4.54-9.67 6.377-18.515 2.879-28.938-3.944-9.68-10.47-16.845-20.063-21.187-13.227-4.34-26.16-.142-35.312 9.875z" fill="#a1a6b4"/><path d="M357 57c2.408 3.019 4.172 6.095 5.895 9.547l1.688 3.367 1.8 3.621c.62 1.243 1.242 2.486 1.863 3.728 1.299 2.599 2.594 5.199 3.888 7.8 1.658 3.333 3.322 6.664 4.987 9.993 1.282 2.564 2.561 5.128 3.84 7.693l1.84 3.685c.856 1.715 1.71 3.432 2.563 5.148l1.473 2.958C388 117 388 117 389 120h-7l-1.079-2.25a9071.424 9071.424 0 0 0-4.164-8.66c-.629-1.309-1.257-2.617-1.884-3.926-3.482-7.262-7.009-14.49-10.732-21.633l-1.824-3.528a538.045 538.045 0 0 0-3.492-6.612c-4.275-8.27-4.275-8.27-3.735-12.555C356 58 356 58 357 57z" fill="#a6aeb6"/><path d="M195 53c6.72 3.06 12.602 8.456 16 15 3.84 10.653 4.33 20.395 0 31-3.682 6.06-8.489 10.614-14 15l-2-1 2.188-2.313C205.815 100.388 207.131 87.886 206 75c-1.553-7.09-4.895-13.08-9-19l-2-3z" fill="#a4abb5"/><path d="M132 54l2 1-1.355 1.582c-7.87 9.58-11.715 18.114-11.06 30.617.951 8.722 4.784 14.81 9.927 21.77C133 111 133 111 134 113c-7.68-2.596-13.157-8.881-17-15.875-3.276-7.313-3.929-15.184-1.852-22.938C118.35 65.966 124.716 58.858 132 54z" fill="#a5acb5"/><path d="M339 1h10v24h-10V1z" fill="#a8b1b7"/><path d="M64 89c3.665.291 5.44 2.074 7.955 4.614l2.316 2.317 2.475 2.522 2.57 2.583c2.714 2.731 5.418 5.472 8.122 8.214 1.817 1.833 3.636 3.665 5.455 5.496 3.345 3.37 6.686 6.744 10.023 10.122 3.017 3.055 6.043 6.101 9.084 9.132-19.38-6.811-36.075-28.94-50-43z" fill="#a3aab5"/><path d="M73 43c5.557 1.455 10.053 3.834 13.148 8.867 1.838 4.602 1.587 9.768.13 14.457C84.322 70.606 82.433 73.03 78 75l.48-2.54C80.23 60.81 79.495 52.744 73 43z" fill="#a4acb5"/><path d="M407 37h52v10l-4.688.813c-3.98.784-6.992 1.753-10.312 4.187 1.37-3.161 1.99-3.993 5-6 2.262-.414 2.262-.414 4.688-.625l2.449-.227L458 45v-6h-50v6l1.793.078c5.22.375 8.459.932 12.207 4.922v2l-3-1v-2l-12-2V37z" fill="#9898b0"/><path d="M47 43c16.418 0 16.418 0 23.438 5.375 3.673 3.763 4.644 6.6 4.937 11.75-.171 6.814-2.137 13.582-6.938 18.5C61.005 82.817 57.657 81 47 81V43zm1 1v36c10.516.528 10.516.528 19-3 4.707-4.707 6.09-9.541 6.313-16.063-.1-4.137-.552-6.7-3.313-9.937-6.882-6.338-12.313-6.193-22-7z" fill="#a3aab5"/><path d="M351 68c3 1 3 1 4.075 2.535l.968 1.957 1.064 2.137 1.08 2.246 1.116 2.223C362 84.592 362 84.592 362 88h-20c2.25-6.75 2.25-6.75 3.727-9.648l.937-1.856.961-1.871.984-1.941A1361.59 1361.59 0 0 1 351 68zm0 4a1505.412 1505.412 0 0 0-3 5.875l-1.688 3.305C344.86 83.784 344.86 83.784 345 86h14c-1.27-3.813-2.33-6.906-4.125-10.375l-1.07-2.086L353 72h-2z" fill="#9b9db2"/><path d="M479 98h9c-.598 10.07-1.663 20.006-3 30l-3-1 4-27h-7v-2z" fill="#9da0b2"/><path d="M48 93c9 0 9 0 11.307 1.285l1.634 1.778 1.827 1.914L64.563 100l1.9 2.023A263.208 263.208 0 0 1 71 107l-1 2-2.047-2.082-2.703-2.73-2.672-2.708C57.545 96.638 56.532 96.076 49 95v22h-1V93z" fill="#a7afb6"/><path d="M253 82c3 0 3 0 5.668 2.164 3.883 4.953 2.855 11.247 2.644 17.211l-.068 3.676c-.059 2.984-.14 5.966-.244 8.949h-3l.08-2.184c.104-3.292.168-6.585.232-9.879l.127-3.435c.106-7.244-.474-11.114-5.439-16.502z" fill="#9695b0"/><path d="M232 54c3.103 1.34 4.79 2.65 6.77 5.379l1.495 2.031 1.548 2.153a6577.64 6577.64 0 0 0 3.19 4.347l1.552 2.126C249.29 73.753 252.142 77.378 255 81h-3c-2.164-2.203-2.164-2.203-4.625-5.25l-1.314-1.62c-1.368-1.7-2.717-3.412-4.061-5.13l-1.328-1.698C233.247 57.741 233.247 57.741 232 54z" fill="#a2a8b5"/><path d="M20 119l2 1c-5.2 4.357-8.227 5.128-15 5v8H5v-10l2.52-.367 3.293-.508 3.269-.492c3.091-.484 3.091-.484 5.918-2.633z" fill="#9fa3b3"/><path d="M258 115l2 1c-2.214 2.214-3.93 3.866-7.113 4.266-1.964-.014-3.927-.133-5.887-.266v7h-2v-8l2.336-.621 3.039-.817 3.023-.808c2.556-.656 2.556-.656 4.602-1.754z" fill="#a0a5b4"/><path d="M369 103c2.278 2.88 4.04 5.783 5.688 9.063l1.324 2.597C377 117 377 117 377 120h-2l-7-16z" fill="#9fa4b3"/><path d="M408 45c5.78.252 9.83.561 14 5v2l-3-1v-2l-11-3v-1z" fill="#9d9fb2"/><path d="M324 46h-3v2l-9 4v-3a205.189 205.189 0 0 1 3.75-2.063l2.11-1.16c2.501-.908 3.673-.66 6.14.223z" fill="#9c9eb2"/><path d="M492 128c3.112 1.498 6.053 3.2 9 5l-3 1c-3.188-1.813-3.188-1.813-6-4v-2z" fill="#a2a8b4"/></svg>