<svg height="-81" viewBox=".38 106.26 599.37 86.88" width="2500" xmlns="http://www.w3.org/2000/svg"><path d="m243.62 127.71c.28.18.58.34.89.45 4.47 1.51 8.87 3.38 13.47 4.44 14.45 3.3 29.16 4.15 48.37 4.15 11.94-.07 28.23-.89 44.11-5.2 4.04-1.09 8.05-2.79 11.67-4.9.96-.56 1.7-1.17 2.25-1.81h-124.46c.92 1.2 2.36 2.01 3.69 2.87z" fill="#99a6cf"/><path d="m362.19 117.22c-1.97-1.35-4.19-2.41-6.45-3.23-11.62-4.2-23.79-5.59-35.99-6.43-18.5-1.29-36.97-.75-55.3 2.4-7.22 1.24-14.41 2.71-20.91 6.34-2.24 1.25-4.63 2.67-4.6 5.72.01 1.17.39 2.08.98 2.83h124.46c2.07-2.41 1.28-5.26-2.19-7.62z" fill="#f1f2f8"/><path d="m583 161.16c-3.05-2.61-6.59-4.86-10.27-6.42-10.07-4.3-20.78-6.05-31.64-6.53-10.4-.44-20.83-.55-31.26-.55-140.21-.04-280.41-.02-420.62-.02-7.67 0-15.35-.17-23.03.09-12.67.43-25.26 1.62-37.33 5.95-5 1.8-9.78 3.91-13.41 7.94-1.74 1.94-2.56 3.81-2.44 5.7.09 1.64.88 3.29 2.39 5 3.59 4.08 8.01 6.96 13.17 8.76 9.51 3.32 19.36 4.95 29.37 5.37 10.33.44 20.67.58 31.02.58 70.14.05 140.28.03 210.44.03h31.27c65.31-.01 130.62.02 195.93-.07 13.25-.01 26.47-.77 39.35-4.44 6.63-1.89 12.71-4.62 17.39-9.82 1.67-1.84 2.6-3.65 2.73-5.4.2-2.14-.8-4.2-3.08-6.15zm-555.08 13.51c-4.09.02-7.74-3.38-8.03-7.37-.04-.18-.04-.38-.04-.58.04-4.15 3.68-7.73 7.9-7.76 4.41-.02 8.09 3.55 8.06 7.85 0 .16-.01.32-.02.48-.28 3.97-3.85 7.34-7.88 7.37m543 0c-4.11.01-7.74-3.37-8.04-7.37-.02-.17-.04-.34-.04-.51-.04-4.19 3.73-7.83 8.05-7.82 4.36.01 8.01 3.65 7.93 7.93 0 .13-.01.27-.02.4-.28 4-3.82 7.34-7.88 7.37"/><path d="m193.33 182.06h45.89v-7.24h-36.23c-1.61 0-2.42-.81-2.42-2.42v-2.64h-12.08v5.06c0 4.83 1.61 7.24 4.83 7.24zm53.14-12.3h12.08v12.3h-12.08zm14.49.22v7.25h24.15v4.83h12.08v-12.3h-12.08v.22zm-185.98-.22h12.08v12.3h-12.08zm231.98 12.3h38.64v-7.24h-28.98c-1.61 0-2.42-.81-2.42-2.42v-2.64h-12.08v5.06c0 4.83 1.61 7.24 4.83 7.24zm-217.49-12.08v7.25h19.32l7.25 4.83h12.08l-7.25-4.83c3.22 0 4.83-2.42 4.83-7.25v-.23h-13.24c-.34.15-.76.23-1.25.23zm50.72 12.08h41.06v-7.24h-31.4c-1.61 0-2.42-.81-2.42-2.42h31.4v-2.64h-43.48v5.06c0 4.83 1.61 7.24 4.83 7.24zm304.56-7.25h-21.74v7.24h31.4c3.22 0 4.83-2.41 4.83-7.24v-5.06h-12.08v2.64c0 1.61-.81 2.42-2.42 2.42zm-94.2-5.05h12.08v12.3h-12.08zm220.38 4.92c3.19-.02 6.06-2.1 7.28-4.93h-14.7c1.25 2.84 4.19 4.94 7.42 4.93zm-89.81 7.38 14.18-9.56 14.18 9.56h14.49l-18.23-12.3h-20.88l-18.23 12.3zm-67.77 0h7.25v-12.3h-12.08v5.06c0 4.83 1.61 7.24 4.83 7.24zm-24.15-9.66c0 1.61-.81 2.42-2.41 2.42h-21.74v7.24h31.4c3.22 0 4.83-2.41 4.83-7.24v-5.06h-36.23v2.64zm-361.28 2.28c3.17-.02 6.05-2.11 7.27-4.93h-14.69c1.25 2.84 4.19 4.95 7.41 4.93z" fill="none"/><path d="m4.81 175.02c4.12 3.38 8.79 6.47 13.71 8.47 14.91 6.02 30.71 8.31 46.66 8.6 32.61.64 65.22.95 97.82.99 53.21.06 106.43-.2 159.63-.33 69.65-.17 139.29-.31 208.93-.58 13.2-.05 26.27-1.61 39.04-5.07 8.38-2.28 16.58-5.01 23.38-10.81 2.5-2.13 4.15-4.33 4.95-6.54h-13.56c-.46.98-1.15 1.97-2.05 2.97-4.68 5.2-10.76 7.93-17.39 9.82-12.88 3.66-26.1 4.42-39.35 4.44-65.31.1-130.62.06-195.93.07h-31.27c-70.15 0-140.3.02-210.44-.03-10.34 0-20.68-.13-31.02-.58-10.01-.42-19.86-2.05-29.37-5.37-5.16-1.8-9.58-4.68-13.17-8.76-.76-.87-1.34-1.72-1.74-2.56h-12.67c.63 1.88 1.9 3.68 3.84 5.27z" fill="none"/><g fill="#f1f2f8"><path d="m447.17 162.74h12.08v7.02h-12.08zm-38.65 0h12.08v7.02h-12.08zm-7.24 0h-12.08c0 1.61-.81 2.41-2.41 2.41h-21.74v4.6h36.23v-7.02zm177.53 4.58c.01-.13.02-.27.02-.4.09-4.28-3.57-7.92-7.93-7.93-4.33-.01-8.09 3.63-8.05 7.82 0 .17.01.34.04.51.06.85.28 1.67.62 2.44h14.7c.33-.77.54-1.59.6-2.44zm-76.26.28 7.21-4.86h-28.92l7.21 4.86-3.19 2.16h20.88zm-200.42-4.86h12.08v7.02h-12.08zm-181.26-9.67h-41.06c-3.22 0-4.83 2.42-4.83 7.25h50.72c0-4.83-1.61-7.25-4.83-7.25zm4.83 9.67h-12.08v4.83c0 1.12-.39 1.85-1.16 2.19h13.24zm53.14 2.41h-28.98c-1.61 0-2.42-.81-2.42-2.41h-12.08v7.02h43.48v-4.6zm-103.86-2.41h12.08v7.02h-12.08zm210.13 0h12.08v7.02h-12.08zm-96.61 0h12.08v7.02h-12.08zm57.97 0h12.08v7.02h-12.08zm45.89-9.67h-41.06c-3.22 0-4.83 2.42-4.83 7.25h50.72c0-4.83-1.61-7.25-4.83-7.25z"/><path d="m13.01 167.32c-.12-1.89.7-3.76 2.44-5.7 3.63-4.03 8.41-6.14 13.41-7.94 12.07-4.34 24.66-5.53 37.33-5.95 7.67-.26 15.35-.09 23.03-.09 140.21 0 280.41-.01 420.62.02 10.43 0 20.86.11 31.26.55 10.86.48 21.57 2.23 31.64 6.53 3.68 1.56 7.22 3.81 10.27 6.42 2.28 1.95 3.27 4.01 3.08 6.15-.06.8-.29 1.62-.68 2.44h13.56c.29-.81.47-1.62.53-2.44.25-3.37-1.49-6.74-5.27-9.95-5.91-5.03-12.96-7.81-20.31-9.84-14.88-4.13-30.13-5.41-45.5-5.54-27.84-.24-55.72.69-83.5-1.99-13.46-1.29-26.79-3.24-39.79-6.97-7.82-2.24-15.45-5.1-23.55-7.81-.06.01-.38.14-.62.34-7.76 6.68-16.81 10.61-26.66 13.01-16.24 3.94-32.72 5.05-49.36 5.01-15.84-.03-31.68.2-47.36-2.61-8.93-1.61-17.93-3.17-26.06-7.44-4.69-2.46-9.09-5.48-13.93-8.43-.07.01-.29.06-.49.15-8.92 3.96-18.15 6.98-27.65 9.26-22.43 5.37-45.28 6.84-68.21 7.32-20.83.43-41.69.25-62.53.71-11.25.26-22.4 1.97-33.25 5.16-7.62 2.24-15.01 5.13-20.87 10.81-2.81 2.73-4.19 5.81-4.06 8.8.04.82.19 1.64.46 2.44h12.69c-.39-.82-.6-1.63-.65-2.44z"/><path d="m498.89 160.32h14.46l10.76-7.25h-14.49zm-363.53-7.25h45.89v7.25h-45.89zm331.13 0 10.77 7.25h14.45l-10.73-7.25zm-12.08 0h-41.06c-3.22 0-4.83 2.42-4.83 7.25h50.72c0-4.83-1.61-7.25-4.83-7.25zm-265.91 7.25h50.72v-7.25h-45.89c-3.22 0-4.83 2.42-4.83 7.25zm-152.7 7c.01-.16.02-.32.02-.48.02-4.3-3.65-7.88-8.06-7.85-4.23.03-7.87 3.6-7.9 7.76 0 .2 0 .39.04.58.06.85.27 1.67.61 2.44h14.69c.33-.77.55-1.59.61-2.44zm360.65-14.25h-45.89v7.25h50.72c0-4.83-1.61-7.25-4.83-7.25zm-94.32 0h12.08v7.25h-12.08zm48.42 9.67h12.08v7.02h-12.08z"/></g><path d="m268.43 118.58h7.42v-2.7h-8.1c-1.8 0-2.7.9-2.7 2.7v7.42c0 1.8.9 2.7 2.7 2.7h4.72v-6.07h-4.05v2.7h1.35v.67h-1.35c-.45 0-.67-.22-.67-.67v-6.07c0-.45.22-.67.67-.67zm14 10.12h6.86l-4.72-12.37c-.08-.3-.22-.45-.45-.45s-.38.15-.45.45l-5.85 15.74h2.7l1.91-4.84v1.46zm1.69-5.85 1.24 3.15h-2.47l1.24-3.15z"/><path d="m284.11 112.5c-1.5 0-2.62.75-3.37 2.25l-4.89 13.44v-8.94h-7.42v2.7h4.72v7.42h-5.4c-2.25 0-3.37-1.12-3.37-3.37v-7.42c0-2.25 1.12-3.37 3.37-3.37h8.1v-2.7h-8.1c-4.05 0-6.07 2.02-6.07 6.07v7.42c0 4.05 2.02 6.07 6.07 6.07h9.38l6.07-16.42c.22-.3.52-.45.9-.45.45 0 .75.15.9.45l5.4 13.72h-7.98v2.7h11.58l-6.52-17.32c-.53-1.5-1.65-2.25-3.37-2.25zm23.6 3.83-4.5 9.67-4.5-9.67c-.15-.3-.45-.45-.9-.45v16.19h2.7v-6.07l2.7 6.07 2.7-6.07v6.07h2.7v-16.19c-.45 0-.75.15-.9.45z"/><path d="m304.56 114.53-1.35 2.7-1.35-2.7c-.75-1.35-1.87-2.02-3.37-2.02h-4.05v19.57h2.7v-16.87h.67c.9 0 1.57.45 2.02 1.35l3.37 7.42 3.37-7.42c.45-.9 1.12-1.35 2.02-1.35h.67v16.87h2.7v-19.57h-4.05c-1.5 0-2.62.67-3.37 2.02zm11.22 4.05v3.37h8.77v-2.7h-6.07c0-.45.22-.67.67-.67h7.42v-2.7h-8.1c-1.8 0-2.7.9-2.7 2.7z"/><path d="m312.41 118.58v7.42c0 4.05 2.02 6.07 6.07 6.07h8.1v-2.7h-8.1c-2.25 0-3.37-1.12-3.37-3.37v-7.42c0-2.25 1.12-3.37 3.37-3.37h8.1v-2.7h-8.1c-4.05 0-6.07 2.02-6.07 6.07z"/><path d="m318.48 125.32h6.07v-2.7h-8.77v3.37c0 1.8.9 2.7 2.7 2.7h8.1v-2.7h-7.42c-.45 0-.67-.22-.67-.67zm12.81-8.54c-.59.6-.89 1.31-.89 2.14s.3 1.56.89 2.15 1.42.89 2.49.89h1.35c1.24 0 2.23.36 2.96 1.09s1.09 1.6 1.09 2.62-.36 1.87-1.09 2.61c-.73.73-1.71 1.1-2.96 1.1h-8.1v2.7h8.77c1.54 0 2.94-.63 4.19-1.89s1.88-2.77 1.88-4.52-.63-3.28-1.88-4.53-2.65-1.88-4.19-1.88h-2.02c-.45 0-.67-.11-.67-.34s.22-.34.67-.34h8.1v-2.7h-8.1c-1.06 0-1.89.3-2.49.9z"/><path d="m333.1 112.5c-1.54 0-2.94.63-4.19 1.89s-1.88 2.77-1.88 4.52.63 3.28 1.88 4.53 2.65 1.88 4.19 1.88h2.02c.45 0 .67.11.67.34s-.22.34-.67.34h-8.1v2.7h8.1c1.06 0 1.89-.3 2.49-.9.59-.6.89-1.31.89-2.14s-.3-1.56-.89-2.15-1.42-.89-2.49-.89h-1.35c-1.24 0-2.23-.36-2.96-1.09s-1.09-1.6-1.09-2.62.36-1.87 1.09-2.61c.73-.73 1.71-1.1 2.96-1.1h8.1v-2.7z"/><path d="m350.55 162.74h12.08v7.02h-12.08zm-48.42 0h12.08v7.02h-12.08zm87.07 0c0 1.61-.81 2.41-2.41 2.41h-21.74v4.6h36.23v-7.02h-12.08zm-104.09 0h12.08v7.02h-12.08zm162.06 0h12.08v7.02h-12.08zm-38.65 0h12.08v7.02h-12.08zm-258.67 2.41c-1.61 0-2.42-.81-2.42-2.41h-12.08v7.02h43.48v-4.6h-28.98zm-74.87-2.41h12.08v7.02h-12.08zm-39.15 4.1c.02-4.3-3.65-7.88-8.06-7.85-4.23.03-7.87 3.6-7.9 7.76 0 .2 0 .39.04.58.06.85.27 1.67.61 2.44h14.69c.33-.77.55-1.59.61-2.44.01-.16.02-.32.02-.48zm77.79-4.1v4.83c0 1.12-.39 1.85-1.16 2.19h13.24v-7.02zm132.85 0h12.08v7.02h-12.08zm-57.97 0h12.08v7.02h-12.08zm321.26 0h-28.92l7.21 4.86-3.19 2.16h20.88l-3.19-2.16zm-217.4-9.67h-41.06c-3.22 0-4.83 2.42-4.83 7.25h50.72c0-4.83-1.61-7.25-4.83-7.25zm-53.14 0h-45.89c-3.22 0-4.83 2.42-4.83 7.25h50.72zm-103.86 0h45.89v7.25h-45.89zm-14.49 0h-41.06c-3.22 0-4.83 2.42-4.83 7.25h50.72c0-4.83-1.61-7.25-4.83-7.25zm370.84 7.25-10.73-7.25h-14.49l10.77 7.25zm32.4-7.25h-14.49l-10.73 7.25h14.46zm54.72 13.84c.09-4.28-3.57-7.92-7.93-7.93-4.33-.01-8.09 3.63-8.05 7.82 0 .17.01.34.04.51.06.85.28 1.67.62 2.44h14.7a7.534 7.534 0 0 0 .62-2.84zm-124.42-13.84h-41.06c-3.22 0-4.83 2.42-4.83 7.25h50.72c0-4.83-1.61-7.25-4.83-7.25zm-152.28 0h12.08v7.25h-12.08zm94.32 0h-45.89v7.25h50.72c0-4.83-1.61-7.25-4.83-7.25z" fill="none"/><path d="m365.05 172.4h24.15c0 1.61-.81 2.42-2.41 2.42h-21.74v7.24h31.4c3.22 0 4.83-2.41 4.83-7.24v-5.06h-36.23zm-79.94-2.42h-24.15v7.25h24.15v4.83h12.08v-12.3h-12.08zm17.02 4.83c0 4.83 1.61 7.24 4.83 7.24h38.64v-7.24h-28.98c-1.61 0-2.42-.81-2.42-2.42v-2.64h-12.08v5.06zm48.42-5.05h12.08v12.3h-12.08zm57.97 5.05c0 4.83 1.61 7.24 4.83 7.24h7.25v-12.3h-12.08zm162.41-.13c3.19-.02 6.06-2.1 7.28-4.93h-14.7c1.25 2.84 4.19 4.94 7.42 4.93zm-123.76-2.28c0 1.61-.81 2.42-2.42 2.42h-21.74v7.24h31.4c3.22 0 4.83-2.41 4.83-7.24v-5.06h-12.08v2.64zm19.46 9.66h14.49l14.18-9.56 14.18 9.56h14.49l-18.23-12.3h-20.88zm-438.71-7.38c3.17-.02 6.05-2.11 7.27-4.93h-14.69c1.25 2.84 4.19 4.95 7.41 4.93zm47.06-4.92h12.08v12.3h-12.08zm171.49 0h12.08v12.3h-12.08zm-135.26.22h-21.74v7.25h19.32l7.25 4.83h12.08l-7.25-4.83c3.22 0 4.83-2.42 4.83-7.25v-.23h-13.24c-.34.15-.76.23-1.25.23zm24.15 4.83c0 4.83 1.61 7.24 4.83 7.24h41.06v-7.24h-31.4c-1.61 0-2.42-.81-2.42-2.42h31.4v-2.64h-43.48v5.06zm53.14 0c0 4.83 1.61 7.24 4.83 7.24h45.89v-7.24h-36.23c-1.61 0-2.42-.81-2.42-2.42v-2.64h-12.08v5.06z" fill="#99a6cf"/><path d="m362.19 117.22c-1.97-1.35-4.19-2.41-6.45-3.24-11.62-4.2-23.79-5.59-35.99-6.43-18.5-1.29-36.97-.75-55.3 2.4-7.22 1.24-14.41 2.71-20.91 6.34-2.24 1.25-4.63 2.67-4.6 5.72.04 3.03 2.5 4.3 4.67 5.7.28.18.58.34.89.45 4.47 1.51 8.87 3.38 13.47 4.44 14.45 3.3 29.16 4.15 48.37 4.15 11.94-.07 28.23-.89 44.11-5.2 4.04-1.09 8.05-2.79 11.67-4.9 4.57-2.67 4.46-6.45.06-9.44z" fill="none"/><path d="m15.4 172.32c3.59 4.08 8.01 6.96 13.17 8.76 9.51 3.32 19.36 4.95 29.37 5.37 10.33.44 20.67.58 31.02.58 70.14.05 140.28.03 210.44.03h31.27c65.31-.01 130.62.02 195.93-.07 13.25-.01 26.47-.77 39.35-4.44 6.63-1.89 12.71-4.62 17.39-9.82.9-1 1.59-1.99 2.05-2.97h13.56c.29-.81.47-1.62.53-2.44.25-3.37-1.49-6.74-5.27-9.95-5.91-5.03-12.96-7.81-20.31-9.84-14.88-4.13-30.13-5.41-45.5-5.54-27.84-.24-55.72.69-83.5-1.99-13.46-1.29-26.79-3.24-39.79-6.97-7.82-2.24-15.45-5.1-23.55-7.81-.06.01-.38.14-.62.34-7.76 6.68-16.81 10.61-26.66 13.01-16.24 3.94-32.72 5.05-49.36 5.01-15.84-.03-31.68.2-47.36-2.61-8.93-1.61-17.93-3.17-26.06-7.44-4.69-2.46-9.09-5.48-13.93-8.43-.07.01-.29.06-.49.15-8.92 3.96-18.15 6.98-27.65 9.26-22.43 5.37-45.28 6.84-68.21 7.32-20.83.43-41.69.25-62.53.71-11.25.26-22.4 1.97-33.25 5.16-7.62 2.24-15.01 5.13-20.87 10.81-2.81 2.73-4.19 5.81-4.06 8.8.04.82.19 1.64.46 2.44h12.69c.4.84.98 1.69 1.74 2.56z" fill="none"/><path d="m4.81 175.02c4.12 3.38 8.79 6.47 13.71 8.47 14.91 6.02 30.71 8.31 46.66 8.6 32.61.64 65.22.95 97.82.99 53.21.06 106.43-.2 159.63-.33 69.65-.17 139.29-.31 208.93-.58 13.2-.05 26.27-1.61 39.04-5.07 8.38-2.28 16.58-5.01 23.38-10.81 2.5-2.13 4.15-4.33 4.95-6.54h-13.56c-.46.98-1.15 1.97-2.05 2.97-4.68 5.2-10.76 7.93-17.39 9.82-12.88 3.66-26.1 4.42-39.35 4.44-65.31.1-130.62.06-195.93.07h-31.27c-70.15 0-140.3.02-210.44-.03-10.34 0-20.68-.13-31.02-.58-10.01-.42-19.86-2.05-29.37-5.37-5.16-1.8-9.58-4.68-13.17-8.76-.76-.87-1.34-1.72-1.74-2.56h-12.67c.63 1.88 1.9 3.68 3.84 5.27z" fill="#99a6cf"/></svg>