<svg height="607" viewBox="16.512 42.171 625.924 96.202" width="2500" xmlns="http://www.w3.org/2000/svg"><path d="m182.22 63.111v14.5h-3.094c-3.093 0-5.656.5-7.687 1.5-2.024.993-3.547 2.532-4.578 4.625s-1.547 4.852-1.547 8.266v21.266h-16.344v-49.282h16.25v16.235h-1.844c.446-4.645 1.57-8.192 3.375-10.64 1.813-2.446 3.926-4.134 6.344-5.063 2.414-.938 4.719-1.407 6.906-1.407zm50.259 33.922 7.922 9.766c-2.45 2.512-5.688 4.476-9.719 5.89-4.023 1.415-8.355 2.125-13 2.125-5.992 0-11.21-1.093-15.656-3.28-4.438-2.196-7.902-5.259-10.39-9.188-2.481-3.926-3.72-8.469-3.72-13.625 0-5.219 1.192-9.805 3.579-13.766 2.382-3.969 5.625-7.047 9.718-9.234s8.649-3.282 13.672-3.282c4.957 0 9.367 1.079 13.235 3.235 3.875 2.156 6.906 5.152 9.093 8.984 2.188 3.836 3.282 8.297 3.282 13.39v.579h-15.845v-1.75c0-2.508-.39-4.664-1.172-6.469-.773-1.8-1.883-3.203-3.328-4.203-1.45-1-3.234-1.5-5.36-1.5-2.062 0-3.886.531-5.468 1.594-1.574 1.062-2.813 2.594-3.719 4.594-.898 2-1.344 4.48-1.344 7.437 0 3.156.61 5.781 1.828 7.875 1.227 2.094 2.938 3.656 5.125 4.688s4.696 1.546 7.532 1.546c5.218 0 9.797-1.8 13.734-5.406zm8.016-3.672h-42.813v-9.468h41.172l1.64 4.25zm47.063 1.453 9.765 9.75c-2.773 3.293-6.011 5.825-9.718 7.594-3.7 1.77-7.997 2.656-12.891 2.656-5.156 0-9.797-1.125-13.922-3.375-4.125-2.257-7.383-5.351-9.766-9.28-2.386-3.938-3.578-8.446-3.578-13.532 0-5.094 1.207-9.602 3.625-13.531 2.414-3.926 5.719-7.016 9.907-9.266 4.187-2.258 8.89-3.39 14.109-3.39 4.707 0 8.91.87 12.61 2.609 3.706 1.742 6.913 4.25 9.624 7.531l-9.765 9.766c-1.22-1.875-2.797-3.438-4.735-4.688-1.93-1.258-4.117-1.89-6.562-1.89-2.262 0-4.293.57-6.094 1.703-1.805 1.125-3.234 2.656-4.297 4.593-1.062 1.93-1.594 4.118-1.594 6.563 0 2.45.532 4.64 1.594 6.578 1.063 1.93 2.492 3.453 4.297 4.578 1.8 1.125 3.832 1.688 6.094 1.688 2.508 0 4.71-.625 6.61-1.875a15.726 15.726 0 0 0 4.687-4.782zm44.071 20c-5.543 0-10.422-1.109-14.64-3.328-4.22-2.226-7.509-5.32-9.86-9.28-2.356-3.97-3.531-8.493-3.531-13.579 0-5.156 1.175-9.695 3.53-13.625 2.352-3.938 5.641-7.016 9.86-9.234s9.098-3.329 14.64-3.329c5.54 0 10.423 1.11 14.641 3.329s7.504 5.296 9.86 9.234c2.351 3.93 3.531 8.437 3.531 13.531 0 5.149-1.18 9.703-3.531 13.672-2.356 3.961-5.64 7.055-9.86 9.281-4.218 2.22-9.101 3.328-14.64 3.328zm0-13.343c2.258 0 4.223-.547 5.89-1.64 1.676-1.095 2.985-2.602 3.922-4.532.938-1.938 1.407-4.16 1.407-6.672 0-2.508-.47-4.727-1.407-6.656-.937-1.938-2.246-3.453-3.922-4.547-1.667-1.102-3.632-1.656-5.89-1.656-2.188 0-4.137.554-5.844 1.656-1.71 1.094-3.031 2.61-3.969 4.547-.93 1.93-1.39 4.148-1.39 6.656 0 2.512.46 4.734 1.39 6.672.938 1.93 2.258 3.437 3.97 4.531 1.706 1.094 3.655 1.64 5.843 1.64zm69.489 11.797h-15.75l-20.875-49.282h16.72l13.624 37.297h-2.906l13.734-37.297h16.328zm70.262-16.235 7.921 9.766c-2.449 2.512-5.687 4.476-9.719 5.89-4.023 1.415-8.355 2.125-13 2.125-5.992 0-11.21-1.093-15.656-3.28-4.437-2.196-7.902-5.259-10.39-9.188-2.48-3.926-3.72-8.469-3.72-13.625 0-5.219 1.192-9.805 3.579-13.766 2.383-3.969 5.625-7.047 9.719-9.234s8.648-3.282 13.672-3.282c4.957 0 9.367 1.079 13.234 3.235 3.875 2.156 6.906 5.152 9.094 8.984 2.187 3.836 3.28 8.297 3.28 13.39v.579h-15.843v-1.75c0-2.508-.39-4.664-1.172-6.469-.773-1.8-1.882-3.203-3.328-4.203-1.449-1-3.234-1.5-5.36-1.5-2.062 0-3.886.531-5.468 1.594-1.574 1.062-2.812 2.594-3.719 4.594-.898 2-1.343 4.48-1.343 7.437 0 3.156.609 5.781 1.828 7.875 1.226 2.094 2.937 3.656 5.125 4.688s4.695 1.546 7.53 1.546c5.22 0 9.798-1.8 13.735-5.406zm8.015-3.672h-42.813v-9.468h41.172l1.64 4.25zm41.75-30.25v14.5h-3.093c-3.094 0-5.657.5-7.688 1.5-2.023.993-3.547 2.532-4.578 4.625s-1.547 4.852-1.547 8.266v21.266h-16.344v-49.282h16.25v16.235h-1.843c.445-4.645 1.57-8.192 3.375-10.64 1.812-2.446 3.926-4.134 6.343-5.063 2.415-.938 4.72-1.407 6.907-1.407zm50.259 33.922 7.922 9.766c-2.449 2.512-5.687 4.476-9.719 5.89-4.023 1.415-8.355 2.125-13 2.125-5.992 0-11.21-1.093-15.656-3.28-4.437-2.196-7.902-5.259-10.39-9.188-2.48-3.926-3.72-8.469-3.72-13.625 0-5.219 1.192-9.805 3.579-13.766 2.383-3.969 5.625-7.047 9.719-9.234s8.648-3.282 13.672-3.282c4.957 0 9.367 1.079 13.234 3.235 3.875 2.156 6.906 5.152 9.094 8.984 2.187 3.836 3.281 8.297 3.281 13.39v.579h-15.844v-1.75c0-2.508-.39-4.664-1.172-6.469-.773-1.8-1.882-3.203-3.328-4.203-1.449-1-3.234-1.5-5.36-1.5-2.062 0-3.886.531-5.468 1.594-1.574 1.062-2.812 2.594-3.719 4.594-.898 2-1.343 4.48-1.343 7.437 0 3.156.609 5.781 1.828 7.875 1.226 2.094 2.937 3.656 5.125 4.688s4.695 1.546 7.531 1.546c5.219 0 9.797-1.8 13.734-5.406zm8.016-3.672h-42.813v-9.468h41.172l1.641 4.25zm34.985 21.453c-5.543 0-10.422-1.109-14.64-3.328-4.22-2.226-7.509-5.32-9.86-9.28-2.356-3.97-3.531-8.493-3.531-13.579 0-5.156 1.175-9.695 3.53-13.625 2.352-3.938 5.642-7.016 9.86-9.234s9.098-3.329 14.64-3.329c5.54 0 10.423 1.11 14.642 3.329s7.503 5.296 9.859 9.234c2.351 3.93 3.531 8.437 3.531 13.531 0 5.149-1.18 9.703-3.531 13.672-2.356 3.961-5.64 7.055-9.86 9.281-4.218 2.22-9.101 3.328-14.64 3.328zm0-13.343c2.258 0 4.223-.547 5.89-1.64 1.676-1.095 2.985-2.602 3.922-4.532.938-1.938 1.407-4.16 1.407-6.672 0-2.508-.47-4.727-1.407-6.656-.937-1.938-2.246-3.453-3.921-4.547-1.668-1.102-3.633-1.656-5.891-1.656-2.188 0-4.137.554-5.844 1.656-1.71 1.094-3.031 2.61-3.969 4.547-.93 1.93-1.39 4.148-1.39 6.656 0 2.512.46 4.734 1.39 6.672.938 1.93 2.258 3.437 3.97 4.531 1.706 1.094 3.655 1.64 5.843 1.64zm0 0" fill="#1a1c1f"/><path d="m87.824 77.827c0 10.555-3.898 19.367-11.687 26.438l-.14 7.375c0 4.199 1.788 7.48 5.374 9.843l-16.906 16.89c-7.48-6.554-11.477-14.85-11.985-24.89h-.312v-23.672c3.383 0 6.227-1.175 8.531-3.53 2.301-2.352 3.453-5.173 3.453-8.454s-1.152-6.097-3.452-8.453c-2.304-2.352-5.148-3.531-8.531-3.531-3.074 0-5.742 1.027-8 3.078-2.25 2.043-3.527 4.601-3.828 7.672v42.578h-23.829v-42.719c.406-9.633 4.066-17.754 10.984-24.36 6.914-6.613 15.14-9.921 24.672-9.921 9.832 0 18.234 3.484 25.203 10.453s10.453 15.371 10.453 25.203zm0 0" fill="#015de7"/></svg>