<svg height="1313" width="2500" xmlns="http://www.w3.org/2000/svg" viewBox="0 0 1201.003 630.002"><g fill-rule="evenodd"><path d="M536 126c-31.225 5.624-56.528 18.328-78.93 39.628-23.574 22.415-38.156 48.405-45.339 80.807-2.168 9.781-2.231 11.719-2.231 68.565s.063 58.784 2.231 68.565c7.183 32.402 21.765 58.392 45.339 80.807 22.712 21.595 48.142 34.243 79.779 39.678C547.105 505.812 553.19 506 600 506s52.895-.188 63.151-1.95c31.637-5.435 57.067-18.083 79.779-39.678 23.574-22.415 38.156-48.405 45.339-80.807 2.168-9.781 2.231-11.719 2.231-68.565s-.063-58.784-2.231-68.565c-7.183-32.402-21.765-58.392-45.339-80.807-20.81-19.787-44.338-32.201-73.43-38.747-9.638-2.168-12.046-2.259-66.5-2.511-51.748-.24-57.383-.103-67 1.63m10 22.064c-18.728 2.517-38.416 9.854-54.219 20.207-12.382 8.111-30.399 26.128-38.51 38.51-10.992 16.778-17.956 36.157-20.356 56.64-.674 5.749-.915 27.418-.658 59.079.384 47.241.529 50.549 2.635 59.943 3.961 17.675 11.697 34.785 22.408 49.557 6.182 8.526 24.343 25.926 33.204 31.811 14.88 9.884 30.333 16.255 48.314 19.919 7.672 1.564 14.964 1.77 62.682 1.77 47.777 0 55.004-.205 62.71-1.775 26.825-5.466 48.215-17.022 67.854-36.661 19.187-19.187 30.197-39.131 36.194-65.564 1.864-8.215 2.08-13.229 2.481-57.5.474-52.394-.121-63.58-4.215-79.271-4.552-17.444-11.458-31.298-23.044-46.229-19.331-24.911-45.778-41.819-76.037-48.612-9.512-2.135-12.221-2.242-62.443-2.465-28.875-.128-55.425.16-59 .641m25 93.496c-21.563 4.648-39.248 22.332-44.443 44.44-2.174 9.253-2.174 52.758.001 61.985 5.244 22.248 22.873 40.033 44.155 44.542 9.478 2.008 52.096 2.008 61.574 0 10.499-2.225 19.192-7.011 27.288-15.024 7.693-7.615 11.993-14.408 15.511-24.503 2.073-5.948 2.3-8.69 2.677-32.307.346-21.679.141-27.038-1.287-33.5-5.194-23.521-22.307-40.873-45.064-45.694-9.385-1.988-51.101-1.946-60.412.061m9 38.747c-4.908 1.547-13.279 10.215-14.784 15.309-.743 2.514-1.207 10.494-1.194 20.5.019 14.314.279 16.952 2.059 20.884 2.511 5.548 6.183 9.516 11.419 12.342 3.697 1.995 5.437 2.158 23 2.158h19l4.792-2.817c5.532-3.251 10.243-9.243 11.793-14.997.641-2.384.94-10.727.738-20.596-.374-18.173-1.254-21.383-7.481-27.281-6.17-5.843-10.183-6.773-28.842-6.685-9.364.044-18.572.576-20.5 1.183" fill="#fefefe"/><path d="M543.635 149.073c-17.715 2.669-37.615 10.499-53.228 20.944-10.158 6.796-28.594 25.232-35.39 35.39-7.225 10.799-14.434 26.251-17.368 37.223-4.485 16.776-4.843 23.224-4.406 79.37.443 56.856.497 57.487 6.465 75 12.492 36.659 44.504 68.734 80.865 81.025 19.071 6.446 19.432 6.475 80.927 6.475 61.817 0 62.597-.064 81.5-6.731 36.528-12.882 67.065-43.411 79.792-79.769 6.648-18.996 6.708-19.719 6.708-81.5 0-61.795-.061-62.54-6.717-81.5-12.872-36.67-44.228-67.835-80.783-80.292-17.725-6.04-17.753-6.042-77.5-6.29-30.25-.125-57.639.169-60.865.655m23.933 92.459c-21.125 5.797-37.946 24.698-42.19 47.409-2.234 11.95-1.511 53.935 1.069 62.059 6.424 20.236 20.981 35.239 40.053 41.282 6.537 2.071 8.854 2.218 35 2.218 24.339 0 28.784-.24 34-1.839 19.867-6.088 35.404-22.193 41.156-42.661 1.555-5.531 1.829-10.378 1.836-32.5.009-29.29-.425-32.228-6.709-45.427-6.963-14.627-21.157-26.428-36.791-30.588-7.53-2.004-60.084-1.967-67.424.047" fill="#d30000"/><path d="M468.5 102.597c-37.083 5.049-65.31 27.985-76.889 62.477C386.159 181.316 386 185.566 386 315s.159 133.684 5.611 149.926c11.753 35.011 39.926 57.517 78.325 62.569 17.021 2.24 243.107 2.24 260.128 0 38.512-5.067 66.934-27.856 78.346-62.817 5.441-16.666 5.59-20.668 5.59-149.835 0-129.263-.16-133.53-5.611-149.769-9.488-28.264-30.369-49.068-58.652-58.435-16.653-5.516-20.321-5.65-151.195-5.521-95.184.093-122.113.4-130.042 1.479m72.361 21.924c-33.986 4.638-62.225 18.838-87.413 43.959-26.02 25.95-39.773 54.294-44.395 91.494-1.383 11.131-1.383 98.921 0 110.052 4.622 37.2 18.375 65.544 44.395 91.494 25.576 25.508 53.426 39.373 88.353 43.987 16.176 2.137 100.222 2.137 116.398 0 34.927-4.614 62.777-18.479 88.353-43.987 26.02-25.95 39.773-54.294 44.395-91.494 1.383-11.131 1.383-98.921 0-110.052-4.622-37.2-18.375-65.544-44.395-91.494-25.576-25.508-53.426-39.373-88.353-43.987-15.069-1.991-102.696-1.97-117.338.028M578.5 281.9c-2.2 1.021-5.44 3.373-7.199 5.228-5.67 5.975-6.303 8.861-6.279 28.59.019 15.109.299 18.392 1.864 21.838 2.215 4.877 9.185 11.089 14.069 12.539 2.111.628 10.891.922 21.713.729l18.167-.324 4.305-3.028c2.367-1.665 5.667-4.965 7.332-7.332l3.028-4.305.324-18.167c.193-10.822-.101-19.602-.729-21.713-1.45-4.884-7.662-11.854-12.539-14.069-3.459-1.571-6.704-1.842-22.056-1.842-15.431 0-18.571.265-22 1.856" fill="#131313"/><path d="M0 315.001v315.001l600.25-.251 600.25-.251.252-314.75.251-314.75H0zm.494.499c0 173.25.115 244.274.256 157.831s.141-228.193 0-315S.494 142.25.494 315.5M468.5 102.597c-37.083 5.049-65.31 27.985-76.889 62.477C386.159 181.316 386 185.566 386 315s.159 133.684 5.611 149.926c11.753 35.011 39.926 57.517 78.325 62.569 17.021 2.24 243.107 2.24 260.128 0 38.512-5.067 66.934-27.856 78.346-62.817 5.441-16.666 5.59-20.668 5.59-149.835 0-129.263-.16-133.53-5.611-149.769-9.488-28.264-30.369-49.068-58.652-58.435-16.653-5.516-20.321-5.65-151.195-5.521-95.184.093-122.113.4-130.042 1.479m106.25 21.152c13.888.157 36.613.157 50.5 0 13.888-.157 2.525-.285-25.25-.285s-39.137.128-25.25.285m2.07 24c13.925.157 36.425.157 50 0 13.574-.157 2.18-.285-25.32-.285s-38.606.128-24.68.285m-73.07 13.315c-3.163 1.632-5.75 3.192-5.75 3.466 0 .447 11.9-5.218 12.917-6.149 1.309-1.198-2.172.105-7.167 2.683m-50.772 7.686l-8.478 8.75 8.75-8.478c4.813-4.663 8.75-8.6 8.75-8.75 0-.728-1.148.351-9.022 8.478M746 168.5c4.651 4.675 8.681 8.5 8.956 8.5s-3.305-3.825-7.956-8.5-8.681-8.5-8.956-8.5 3.305 3.825 7.956 8.5m-275.521 17.75l-8.979 9.25 9.25-8.979c8.591-8.34 9.705-9.521 8.979-9.521-.149 0-4.311 4.162-9.25 9.25M731.5 186c4.374 4.4 8.178 8 8.453 8s-3.079-3.6-7.453-8-8.178-8-8.453-8 3.079 3.6 7.453 8m-285.551 33.101c-1.694 3.356-2.915 6.266-2.713 6.468.201.202 1.802-2.544 3.556-6.101s2.975-6.468 2.713-6.468-1.862 2.746-3.556 6.101m215.516 38.825c2.561 2.984 5.797 7.372 7.191 9.75 3.226 5.506 4.243 5.695 1.164.217-1.27-2.258-4.717-6.646-7.66-9.75l-5.352-5.643zM408.464 315c0 27.775.128 39.138.285 25.25.157-13.887.157-36.612 0-50.5-.157-13.887-.285-2.525-.285 25.25m383 0c0 27.775.128 39.138.285 25.25.157-13.887.157-36.612 0-50.5-.157-13.887-.285-2.525-.285 25.25m-359 1.5c0 27.5.128 38.606.285 24.68.157-13.925.157-36.425 0-50-.157-13.574-.285-2.18-.285 25.32m337.998 0c.001 26.4.13 37.056.287 23.681.158-13.376.158-34.976 0-48-.158-13.025-.287-2.081-.287 24.319m-179.263-36.756c4.785.183 12.885.184 18 .002 5.116-.182 1.201-.332-8.699-.333s-14.085.148-9.301.331M524.43 317c0 12.925.143 18.212.317 11.75s.174-17.038 0-23.5-.317-1.175-.317 11.75m153.998 0c0 12.375.143 17.438.319 11.25.175-6.187.175-16.312 0-22.5-.176-6.187-.319-1.125-.319 11.25m-114.015-1.5c.001 9.9.151 13.815.333 8.699.182-5.115.181-13.215-.002-18-.183-4.784-.332-.599-.331 9.301m71.996 0c-.001 9.35.149 13.31.334 8.799.185-4.51.186-12.16.002-17-.183-4.839-.335-1.149-.336 8.201m-44.11 36.245c4.84.184 12.49.183 17-.002 4.511-.185.551-.335-8.799-.334s-13.04.153-8.201.336M536.056 370.5c2.248 3.373 9.277 10.549 12.444 12.705 1.65 1.123.891.175-1.687-2.105-2.578-2.281-6.353-6.049-8.389-8.374-2.036-2.324-3.101-3.326-2.368-2.226m54.139 24.246c5.882.176 15.782.177 22 .001s1.405-.32-10.695-.321-17.187.143-11.305.32M470.5 447c4.374 4.4 8.178 8 8.453 8s-3.079-3.6-7.453-8-8.178-8-8.453-8 3.079 3.6 7.453 8m260.977.25l-7.977 8.25 8.25-7.977c7.662-7.408 8.706-8.523 7.977-8.523-.151 0-3.863 3.712-8.25 8.25M453 461.5c4.651 4.675 8.681 8.5 8.956 8.5s-3.305-3.825-7.956-8.5-8.681-8.5-8.956-8.5 3.305 3.825 7.956 8.5m292.978.25l-8.478 8.75 8.75-8.478c4.813-4.663 8.75-8.6 8.75-8.75 0-.728-1.148.351-9.022 8.478M576.75 485.749c13.337.158 35.163.158 48.5 0 13.337-.157 2.425-.286-24.25-.286s-37.587.129-24.25.286m-2 21c13.888.157 36.613.157 50.5 0 13.888-.157 2.525-.285-25.25-.285s-39.137.128-25.25.285" fill="#fbfbfb"/></g></svg>