<svg height="8534pt" viewBox="1442 656 5744 6771.4" width="8534pt" xmlns="http://www.w3.org/2000/svg"><path d="m4291 658.7c-30.9 1.8-64.6 8.5-96.1 19.2-17.8 6-1132.6 425-1911.4 718.3-93.5 35.2-177.1 66.4-185.7 69.3-25 8.4-33.1 13.3-37.8 22.6-3.1 5.9-3.1 15.1 0 21.3 4.3 9 18.4 19.2 38.3 27.8 17.5 7.6 170.1 48.2 807.2 214.8 141.1 36.9 286.1 75 340.4 89.5 29.4 7.8 34.4 9.8 42.9 17 6.8 5.9 7.2 7.3 8.4 29.3 1 19.3.7 96.7-.4 97.8-1 .9-17.7-2.6-40.8-8.6-100.7-26.4-191.7-40.9-297-47.2-27.7-1.7-121.6-1.7-148.5 0-98.7 6.1-185.5 18.7-249.6 36.2-150.9 41.3-272 124.2-366.9 251.5-50.7 67.9-93.9 149.2-127.8 240.5-44.8 120.7-71 256-80.2 414-6.9 119.4-7.8 247.7-2.5 351 6.1 118 18.6 221.5 39.5 326 14.4 72.4 28.9 128 59.4 229 88.5 293.2 187.1 536.5 304.9 752.5 90.9 166.8 196.8 321.3 313 456.8 81.5 95.1 181.8 197.7 269.7 275.9 74.3 66 147.3 123.2 225.2 176.2 24.9 16.8 25 16.9 42.1 17.4 8.8.3 13.7.1 13.7-.6 0-3.2-4.3-21.1-6-24.9-1.4-3.3-9-11.6-27.2-30.2-168.9-171.4-317.6-384.7-442.8-635.1-168-335.9-288.2-714.4-355.5-1120.2-37.4-225-49.6-439.7-33.9-594.8 18.7-185.7 83-352 190.7-494 113.1-148.9 253.4-239.7 422.7-273.4 121.5-24.2 265.8-25.8 409.5-4.5 90.8 13.4 141.7 25.3 360.5 83.9 328.8 88.2 423.9 107.1 587 117.2 27.5 1.7 130.6 1.7 159 0 105.9-6.3 175.3-16.1 294-41.6 123.7-26.6 208.1-41.7 276.5-49.6 61.1-7 140.3-7.9 213-2.4 68.6 5.1 165.3 18.2 256 34.5 227.1 41 399.7 149.3 514.8 323.2 46.2 69.7 80.7 143.8 116.7 250.4 45.3 134.1 69.7 257.9 76 386.2 1.3 26.4 1.3 87.1 0 113.2-2.8 54.8-11.8 149.7-20.6 216.9-23.8 182.1-63.1 329.6-122.8 461.2-23.2 51.1-50 100.2-102.4 187.2-131.1 217.9-250 369.3-386.8 492.6-136.5 123.1-279.4 196.5-432.7 222.5-42.8 7.2-77.2 9.1-136.2 7.5-20.9-.5-40.7-1.2-44-1.5s-34.1-1-68.5-1.5c-61.3-.9-72.3-1.4-104.5-4.5-68.3-6.7-133.4-22.2-191.8-45.6-19.2-7.7-51.9-23.6-75.2-36.5-29.2-16.2-36.5-18.9-52-18.7-18.3.2-39.4 5.4-51.3 12.5-11.6 7-16.4 15.2-18.3 31.6-2.5 21.9 4.9 43.7 21.4 63.1 14.3 16.7 27 24.7 103.7 65.6 84.4 44.9 102.3 56.7 134.6 89 26 25.9 32.3 34.8 33.2 46.6.4 5.6.1 7.5-2 12.1-3.1 6.7-7.4 11.7-13.6 15.7-9.8 6.3-78.4 37.7-106.2 48.6-147.7 58.1-285.5 65.7-415.5 23-46.2-15.1-84.3-33.1-134-63-55.5-33.4-102.2-59.2-189-104.5-20.3-10.6-55.3-28.9-77.7-40.6-59.4-31.2-81-40.3-116.5-49.3-25.2-6.4-35.1-7.5-65.3-7.6-22.2 0-29.6.4-38.5 1.8-20 3.4-32.8 9.8-46.1 23.1-12.3 12.3-14.1 20.3-7.5 34.1 6.8 14.2 26.8 37.3 36.7 42.1 3 1.4 12.5 4.5 21.1 6.9 22.2 6 82.8 25.3 101.6 32.4 23.1 8.7 49.3 20.5 81.7 36.7 80.7 40.5 145.1 81.2 278 175.9 54.1 38.6 75.5 53 102.8 69.4 73.3 44 135.6 68.4 211.7 83 80.1 15.4 152.3 23.7 235 27.2 31.1 1.3 112 .7 140-1.1 137.8-8.6 261.2-31.6 392.5-73.1 278.8-88.2 528.7-255.5 775-518.9 205-219.3 377.6-483.4 514.7-788 105.5-234.3 168.1-438.1 197.3-642.5 7.8-55.1 11.3-92.3 20-212.3 5.6-77 5.9-89.8 3-109.4-2.6-18.4-6-50.3-12.5-118.3-9.1-94.6-13.9-135.3-21.5-182-27.3-167.6-87.7-309.5-182.4-429-65.4-82.5-151-157-245.7-213.8-112.1-67.3-239.3-109.9-384-128.7-93.8-12.1-175-13.8-351.4-7.5-38.2 1.4-189.1 7.5-224.7 9.1l-14.8.6v-350.1l4.8-1.4c2.6-.7 152.1-40 332.3-87.3 232.4-60.9 326.9-86.1 325-86.6-2.6-.6-65.1-2.1-158.1-3.8-26.7-.5-147.2-1.5-267.8-2.1-235.7-1.4-236.5-1.4-253.5 3.6-15.1 4.3-22.6 8.9-36.7 22-10.7 10-15.5 13.4-25.3 18-9.2 4.4-17 6.4-27.7 7.3-30.1 2.5-57.3-7.4-79.7-29.1-22.9-22.1-33.7-48.6-32-78.6.7-13.4 3.5-24.1 9.3-36 10.8-22.6 28.6-40.1 52.6-51.6 13.9-6.7 26.5-9.7 41.3-9.8 22.3 0 35.8 5.3 52.7 21 15.1 14 25.2 20.4 40.1 25.2 16.7 5.5 13.8 5.4 128.6 5.8 104.3.4 106.6.3 113-1.6 10.6-3.3 16.4-9.2 21-21.6 5.4-14.6 15-23 29.2-25.4 3.3-.6 200.6-1.2 496.9-1.5 337.4-.3 494.6-.8 501.5-1.6 21.6-2.3 41.1-7.8 51.5-14.7 4.9-3.2 33-30.8 33-32.5 0-.7-38.7-29.7-47-35.2l-5.6-3.6-792.4-.8c-648.6-.7-793.7-.6-798.9.4-10.5 2.2-17.6 7.6-22.4 17.1-.9 1.7-4.4 12.3-7.7 23.5-3.4 11.1-11.5 37.2-18 57.8-15.4 48.5-19.9 63.8-26.6 90-3.1 11.8-6.9 24.2-8.4 27.6-5.8 12-15.6 19.8-28.4 22.4-4.6.9-83.6 1.3-341 1.4-310.9.2-335.6.3-342.1 1.9-11.9 2.9-19.5 5.7-33.5 12.3-19.4 9.2-29.2 11.5-50.6 12.1-20.3.6-32.2-.9-48.5-6.3-17.2-5.7-31.6-15.4-38.9-25.9-21.5-31.3-24-76.9-6-111.9 14.3-27.8 40.6-48.2 69.9-54.1 12.5-2.6 32.5-1.7 44.6 1.9 23.3 7 38.2 17.6 64 45.8 6.6 7.2 13.7 11.7 23.5 15l6.5 2.2 285 .5c156.8.3 287.6.3 290.8-.1 7-.9 14.5-4.6 18.2-9 4.4-5.2 6.9-11.6 14.5-37.3 3.9-13.2 13.8-45.8 22-72.5s18.1-59.5 21.9-72.9c3.9-13.4 8.2-26.7 9.5-29.6 3.2-7.2 7.8-12 14.4-15.2l5.7-2.8 213.5-.2c117.4 0 216.4-.4 220-.6 16.3-1.3 25-7.9 33.5-25.2 6.3-13 11.8-18.9 21.3-22.7l5.7-2.3 371.3-.5 371.2-.5-10.7-4.8c-56.5-25.5-127-54-232.3-94.1l-42.5-16.1-581.3-.3c-511.1-.2-582.1 0-587.8 1.3-9.8 2.3-17.9 6.4-29.1 14.9-18 13.7-33.2 21.1-50.8 24.7-15.5 3.2-34.6 2.2-49-2.6-27.9-9.3-53.5-34.3-64.1-62.4-10.6-28.2-7.7-58.5 8.2-85.3 6.7-11.3 23.8-28.6 35.4-35.6 9.3-5.7 20.3-10.3 30.8-12.9 8.2-2 29.1-2.2 37.7-.4 21.7 4.5 40.2 14.6 59 32.2 10.7 10 13 11.7 22.1 16.2 15 7.6-8.5 6.9 257.9 7.6 131.5.3 241.9.3 245.5-.1 9.7-1 17.6-4.3 22.9-9.7 2.5-2.5 5.1-5.7 5.8-7.1.6-1.4 2.9-6.3 5.1-11 5.7-12.4 13.8-19.2 25.7-21.5 2.2-.4 46.3-.7 98-.6l94 .1-10.1-5.5c-7.8-4.2-71.7-28.6-278-106.1-274-102.9-630.8-236.5-653.7-244.8-47.4-17.2-95.1-24.6-140.7-21.9zm-335.2 336.8c23.5 6 44.3 24.7 53.2 47.6 7.6 19.7 6.6 38.7-3.1 58.8-4.4 9.1-6.3 11.6-14.2 19.6-15.8 15.8-30.3 22.5-50.7 23.3-17.1.6-29.6-2.8-43.4-11.8-14.7-9.6-26-24.1-32-40.8-2.8-8-3-9.7-3.1-22.2 0-11.4.4-14.7 2.3-21 8.9-28.5 32.8-49.8 61.4-55 6.9-1.2 22.3-.5 29.6 1.5zm-456.5 205.8c8.8 4.4 13.7 9.4 18.1 18.6 3 6.3 3.1 7.2 3.1 19.2 0 12.5 0 12.5-3.8 20.1-6.1 12.5-15.8 19.3-31.9 22.6-7.3 1.6-8.3 1.5-14.6-.1-14.1-3.7-25.8-12.1-30.6-22-7.6-15.8-4.7-37.9 6.6-50.3 9-9.8 16.5-12.5 33.4-12.1 11.8.3 12.4.4 19.7 4zm707.2 56.1c12.1 4.1 20.8 9.7 31 20 10.7 10.7 17.2 22.1 20.5 35.7 6.2 26-2.7 53.7-23.4 72.5-29.5 27-71.7 27-101.2 0-23.7-21.5-31.6-54.1-20.1-82.6 4.2-10.4 8.9-17.2 18.2-26.6 7.9-7.9 10.5-9.8 19.5-14.3 13.6-6.7 20.3-8.2 35.5-7.7 9.8.3 13.5.8 20 3zm-997 64.6c14 5.3 25.1 15.3 31.5 28.4 10.6 21.6 5.8 45.7-12.5 62.4-6.7 6.1-12.2 9.4-20.5 12.2-8.8 3-21.9 3-31.1.1-22.2-7-38.9-29.4-38.9-52.2 0-23.3 18.7-46.5 42.2-52.5 7.8-2 21.8-1.2 29.3 1.6zm562 .4c16.5 5.3 31.4 16.6 40.9 30.9 8.6 13.1 11.9 22.3 13.2 36.7 2.9 33-20.5 66.5-54.1 77.7-7 2.3-9.7 2.7-21 2.7-14.9.1-21.5-1.3-32.8-7-22.3-11.1-38.1-31.6-42.7-55.1-2.1-10.4-.9-26.2 2.7-36.5 6.8-19.4 21.2-35.7 39.6-44.8 13.1-6.4 21-8.1 35.2-7.6 8.3.3 13 1 19 3zm-669.6 119.5c12.1 3.8 21.4 11.9 27.3 23.9 4.4 8.8 5.1 21.5 1.9 32-7.9 26.2-37.9 38.6-62.9 26.1-10.4-5.1-19.6-16.8-22.6-28.4-6-22.8 6.8-45.7 29.9-53.7 6.8-2.4 18.7-2.3 26.4.1zm274.6 10.2c13.3 4.4 22.8 13.8 26.6 26.2 1.8 5.7 2.1 8.7 1.7 17.5-.4 9.4-.8 11.5-3.6 17.4-6 12.5-16.6 19.6-32.6 21.8-23.2 3.3-42.3-8.8-47.6-30.2-.7-2.6-1-9.1-.8-15 .3-9.3.6-11 3.5-17 3.9-7.7 9.8-13.5 18.2-17.8 12.8-6.4 21.5-7.2 34.6-2.9zm1505.2 426.4c23.9 5.5 46.5 26.2 54.8 50.2 8.7 24.9 2.5 53.9-15.7 73.9-27.3 29.8-70.4 34-101.8 9.9-36.2-27.9-40.6-78.1-9.7-111.1 19.5-20.9 45.4-29.1 72.4-22.9z"/><path d="m3530.2 5320c-18.5 2.6-33 11.7-39.6 24.8-6.2 12.3-8 29.3-3.9 38.3 3.7 8.3 10.7 13.7 23.1 18 8.8 3 59.3 14.1 115.2 25.3 63.8 12.7 102.9 21.8 322.5 74.6 111.8 26.9 111.5 26.8 111.5 26.5 0-.4-54-32.1-80.5-47.2-99.1-56.7-183.5-97.3-261-125.8-40.4-14.9-91.2-30.3-108.7-33-12-1.9-68.3-2.9-78.6-1.5zm33.8 167.4c-4.1 1.3-13.8 4.8-21.5 7.9l-14 5.6-.3 7.8-.3 7.8 16.9 11.3c19.9 13.3 25.9 16 38.5 17.2 30.2 2.9 362.7 17.4 364.2 15.8.3-.3.8-2.7 1.1-5.4l.6-4.9-24.8-6.2c-32-8.1-23-6.3-108.6-21.2-132.4-23.1-226.5-38.1-237.8-38-3.8 0-9.6 1-14 2.3zm-2122 769v414.6h70v-346h241.6l100 172.7 100.1 172.8 37.2.3 37.3.2-.4-4.7c-.4-4.2-12.6-25.5-103.5-180.3-83.6-142.4-102.8-175.6-101.4-176.2.9-.3 7-2.5 13.6-4.8 34.1-11.9 69.2-34.1 92.6-58.7 44.4-46.6 65.9-104.4 63.6-171.3-2.3-65.9-22.7-117.8-61.7-157-36.8-37-86.2-60.5-148.8-70.6-29.6-4.8-28.8-4.7-188.9-5.1l-151.3-.4zm299-354.4c56.8 5.2 99.8 22.5 131.2 52.8 12 11.6 19.3 20.8 27.2 34.1 24.6 41.6 30.5 107.7 14.1 157.7-4.6 14-11 27-19.6 40.1-10 15-31.2 36.2-46.3 46.2-23.6 15.6-46.8 24.6-78.6 30.3-12.4 2.2-13.2 2.2-134.7 2.6l-122.3.3v-365.1h108.8c67.2 0 113.1.4 120.2 1zm443 354.5v414.5h515v-59h-445v-339h387v-59h-387v-313h442v-59h-512zm663 .1v414.5l128.8-.4c138.3-.4 137.5-.3 169.7-5.8 59.1-10 115-34.8 159.6-71 61.7-50 105.6-128.8 120.4-216 5.8-34.9 6-38 6-121.4 0-83.6-.1-85.7-6.1-121-14.4-84.1-56.1-161.6-113.8-211.2-50-43-111.4-69.9-180.1-78.7-24.1-3.1-44.8-3.6-164.2-3.6h-120.3zm261-354.6c56.7 5.1 106.5 24.4 146.5 56.7 11.7 9.4 33.4 31.3 42.5 42.8 34.6 43.8 54.8 95.2 63.6 162.5 2.2 16.2 3.2 138.7 1.4 162.5-5.6 74.8-27.8 136.4-66.8 185.5-9.7 12.1-30 32.5-42.2 42.2-41.2 32.8-90.5 51.6-149 56.8-6.7.6-48.3 1-99.2 1h-87.8v-711h89.8c53.4 0 94.3.4 101.2 1zm1010.9-57.3c-1.2 3.1-304.2 803.7-309.4 817.5l-3.3 8.8h73.3l42.6-116.3 42.5-116.2 188.5-.2 188.4-.3 42.9 116.5 42.9 116.5h72.7l-2.6-6.8c-1.3-3.7-71.9-190.1-156.7-414.2l-154.2-407.5-33.3-.3-33.2-.2zm116.9 307.8c45.1 122.6 82.4 223.8 82.7 224.7.7 1.7-7.6 1.8-165.4 1.8-91.4 0-166.1-.3-166.1-.7 0-2.1 165.6-450.1 166.1-449.5.4.4 37.6 101 82.7 223.7zm386.2 104v414.5h70v-338h110.8c60.9 0 118.6-.5 128.2-1 33.1-1.9 64.7-7 89.9-14.4 79.8-23.7 133-76.3 152.6-151.1 7-26.4 10.2-57.1 9.1-86.5-.7-21.9-1.9-32.6-5.7-51.3-3.8-19.2-9.4-35.8-17.9-53.5-11.7-24.1-23.8-40.9-42.6-59.2-46-44.7-105.9-68.2-185.9-73-10-.6-76.6-1-162.7-1h-145.8zm316.8-354c50.8 5.3 90.7 22.1 120.7 50.7 27.4 26.2 44.1 58.7 51.1 99.8 2.1 12.9 3 47.6 1.5 62.1-3.5 32.9-13.8 62-30.4 85.6-8.1 11.5-24.8 28.1-36.7 36.5-23.9 16.9-56.7 28.8-95.5 34.5-10.8 1.6-23.9 1.8-134.7 2.1l-122.8.3v-373.1h116c97.3 0 118.4.2 130.8 1.5zm400.2 354v414.5h70v-338h110.8c60.9 0 118.6-.5 128.2-1 33.1-1.9 64.7-7 89.9-14.4 79.8-23.7 133-76.3 152.6-151.1 7-26.4 10.2-57.1 9.1-86.5-.7-21.9-1.9-32.6-5.7-51.3-3.8-19.2-9.4-35.8-17.9-53.5-11.7-24.1-23.8-40.9-42.6-59.2-46-44.7-105.9-68.2-185.9-73-10-.6-76.6-1-162.7-1h-145.8zm316.8-354c50.8 5.3 90.7 22.1 120.7 50.7 27.4 26.2 44.1 58.7 51.1 99.8 2.1 12.9 3 47.6 1.5 62.1-3.5 32.9-13.8 62-30.4 85.6-8.1 11.5-24.8 28.1-36.7 36.5-23.9 16.9-56.7 28.8-95.5 34.5-10.8 1.6-23.9 1.8-134.7 2.1l-122.8.3v-373.1h116c97.3 0 118.4.2 130.8 1.5zm401.2 354v414.5h479v-59h-409v-770h-70zm614 0v414.5h515v-59h-445v-339h387v-59h-387v-313h442v-59h-512zm225 585.1c-35 3-55.4 7.2-78.7 16.3-68.7 26.8-115.2 81.8-135.8 160.5-8.5 32.6-10.6 51.7-11.2 104.6-.8 69.2 2.6 98.6 16.3 140 12.5 37.7 31.4 69 56.9 94.6 46.6 46.7 112.4 69.8 191.5 67 58.2-2.1 106-12.8 147.5-33.1 22.6-11 36.5-20.5 52.3-35.9l9.2-9v-227.6h-228v86h109l-.2 49.2-.3 49.2-5.9 4.8c-11.4 9.1-29.2 16.2-50.6 20-16.6 2.9-47.7 3.6-62.8 1.4-62.8-9.3-99.4-52-110.6-129.6-5-34-4.7-103.8.5-139.4 12-82.7 53.7-125.6 121.9-125.6 48 0 80.5 17.1 97.7 51.5 5.2 10.3 10.5 27 12.7 39.7l.7 3.8h115.9v-2.9c0-5-4.9-30-8-41.2-10.9-38.7-31.4-72-58.1-94.4-32.8-27.5-73.7-43.3-125.9-48.5-11.2-1.1-48.5-2.1-56-1.4zm-5422 291.4v284h374v-94h-254v-474h-120zm706 0v284h390v-94h-270v-153h230v-91h-230v-135h269v-95h-389zm782.5-.9c-59.4 155.7-108.2 283.5-108.3 284-.2.5 26.4.8 63.4.7l63.7-.3 2.2-6c1.2-3.3 10.2-29.5 20-58.3l17.8-52.2h105.3c58 0 105.4.2 105.4.4 0 .1 9 26.3 20 58.1 11 31.9 20 58 20 58.2s28.6.3 63.5.3 63.5-.3 63.5-.7-48.9-128.2-108.7-284l-108.7-283.3h-111.1zm200.3-33.6c19.5 56.6 35.7 103.8 35.9 104.7.5 1.7-3.4 1.8-72.2 1.8h-72.6l.7-2.3c1-3.4 70.3-207 71-208.7.6-1.3.7-1.3 1.2 0 .3.8 16.5 47.8 36 104.5zm554.2 34.5v284h120v-208h95.7l54.4 103.7 54.5 103.8 64.2.3 64.2.2v-3.1c0-2.2-18-36.3-61.9-117.2-34.1-62.8-62.3-115-62.6-115.9-.5-1.3.7-2.3 5.9-4.7 18.1-8.2 40-23.3 53.5-37 29.2-29.6 43.1-67.7 43.1-118.3 0-32.5-4.8-54.6-17-79.3-20.9-42.3-64.8-72.9-121.5-84.9-33.6-7-47-7.6-179.7-7.6h-112.8zm248.2-186.2c21.6 5.2 36.1 13.8 46.4 27.5 9.6 12.8 14.4 25.7 16.5 44.4 1.4 12.4.1 28.2-3.2 39-8.4 27.4-29.4 45.9-60.7 53.5-8.2 2-11.8 2.2-67.9 2.5l-59.3.4v-170.2l59.8.4c56.7.3 60.1.5 68.4 2.5zm536.8 186.2v284h120l.2-186.5.3-186.5 116.5 186.5 116.5 186.5h119.5v-568h-119l-.2 187-.3 187.1-116.8-187.1-116.8-187h-119.9zm848 0v284h119v-568h-119zm493 0v284h120l.2-186.5.3-186.5 116.5 186.5 116.5 186.5h119.5v-568h-119l-.2 187-.3 187.1-116.8-187.1-116.8-187h-119.9z"/></svg>