<svg height="500pt" viewBox="17 114.4 464 235.9" width="500pt" xmlns="http://www.w3.org/2000/svg"><path d="m178.3 118.2c-1.9 2.2-3.3 10.3-2.7 15 .5 4.2.4 4.4-3.7 6.8-5.6 3.4-12.9 11.5-18.6 20.9-3.7 5.9-7.3 9.8-15.7 17.1-14.8 12.9-15 13.2-13.7 20.6 1.9 10.2 10.2 17.6 24 21.3 6.9 1.9 10.1 2 36.1 1.8 23.4-.1 29.2.1 32.5 1.3 3.3 1.3 4 2 3.9 4-.2 2.9-3 17.4-7.8 40.5l-3.4 16 2.3 2.4 2.4 2.4.6-2.4c.3-1.3 3-14.3 6-28.8 2.9-14.5 5.6-26.6 5.9-26.9.8-.7.1-1.9 10.1 16.3 4.9 8.8 11.9 21.3 15.6 27.8l6.7 11.8 1.1-3.1c1-3 .5-4.1-7-17.8-23.1-42-24.5-43.9-34.8-47.4-6.3-2.2-8-2.3-37.1-2.3-26.8 0-31-.2-35-1.8-6.8-2.7-12.8-6.5-14.7-9.3-1.6-2.5-1.6-2.6 1.6-5.1 3-2.4 3.2-2.9 2.9-7.6l-.3-5.1 9-7.7c7.1-6.2 9.3-7.6 10.6-6.8 5.9 3.1 10.5-4 6.3-9.9-1.7-2.4-1.5-2.9 3.6-8.8 2.7-3.1 11.3-10.4 12.3-10.4.4 0 1.3 1.6 2.1 3.5 1.6 3.8 2.7 4.3 4.6 2 1-1.3.9-2.9-.9-8.8-2.3-7.7-2.8-15.2-1.1-16.2 1.7-1.1 8.3 2.9 10.8 6.5 1.2 1.9 2.8 5.3 3.3 7.7 1.9 7.4 5.9 8.4 5.9 1.5 0-2 .4-3.2.8-2.5.4.6 3 2.1 5.9 3.2 2.8 1.1 9.1 4.1 13.8 6.7l8.7 4.7 14.1-.5c23.8-.9 35.7 1.6 46.6 9.9l3.4 2.6 19.6-2.8c63.3-8.9 100.6-.9 125 27 10.3 11.8 14.2 20.4 18.2 40 1.9 9.4 2.2 14.6 2.4 35.5.1 19.5.5 25.2 1.7 27.9l1.5 3.3.6-3.8c1.4-9 1.9-34.7.8-46.4-1.1-13.3-3.9-28.5-6.6-36-2.2-6.4-8.6-16.7-14.7-24-25.2-30.2-66.3-39.1-133.1-28.8l-13.7 2.1-5.5-3.6c-10.9-7.3-23.8-9.7-47.2-8.9l-12.3.4-11.8-6.1c-6.6-3.3-13.7-6.3-15.8-6.7-3.2-.5-4.4-1.4-6.6-4.9-4.6-7.5-16.4-13.1-19.5-9.3z"/><path d="m296.2 230.7c-.6 1.2.2 12.9 2.4 32.8 1.8 17 3.3 31.2 3.3 31.4.1.3 1.2-1 2.6-2.9 2.2-2.9 2.4-4 1.8-8.7l-.6-5.4 8.4.2c4.6.1 12.6-.2 17.6-.6 7.5-.6 10.3-.4 14.5 1 5.3 1.7 15.7 1.5 25.1-.5 2.9-.6 4.2-.4 6 1 1.9 1.6 2.5 1.7 4.9.4 2.7-1.4 2.8-1.6 1.4-4.3-2.7-5.2-3.7-5.4-12.3-3.5-5.9 1.4-12 1.9-25.3 1.9-18.7 0-37.8-1.2-39.9-2.5-.9-.5-1.9-7-3.1-19.9-1.6-17.7-2.6-22.1-5.1-22.1-.5 0-1.2.8-1.7 1.7zm-31.4 53.5c-.9 2.4-7.2 17.9-14.1 34.5l-12.5 30.3h7.5l3.4-9 3.3-9h29.1l3.5 9 3.5 9h7.4l-8.5-20.8c-4.7-11.4-11.1-26.9-14.2-34.5-3.1-7.5-5.8-13.7-6.2-13.7-.3 0-1.3 1.9-2.2 4.2zm8.5 26c3.1 7.8 5.5 14.3 5.3 14.5s-5.5.2-11.9.1l-11.5-.3 5.7-14.2c3.1-7.9 5.9-14.3 6.2-14.3s3.1 6.4 6.2 14.2zm166.2 1c-7 17.2-13.5 32.8-14.2 34.6l-1.4 3.3 3.8-.3c3.7-.3 3.8-.4 7.2-9.1l3.5-8.8 14.5.3 14.5.3 3.5 8.7c3.4 8.6 3.5 8.8 6.8 8.8 1.8 0 3.3-.3 3.3-.8 0-1.3-27.5-68.2-28.1-68.2-.3 0-6.3 14.1-13.4 31.2zm19.6-.9 5.6 14.2-11.5.3c-6.3.1-11.6.1-11.8-.1-.2-.1 2.3-6.9 5.4-14.9s5.9-14.4 6.2-14.1c.3.2 3 6.8 6.1 14.6z"/><path d="m328.7 283.1c-17.4 2.7-30 20.9-26.8 38.6 1.5 7.7 4.5 13.5 9.6 18.7 6.9 6.8 12.4 9 22.5 9 9.3-.1 12.6-1.2 19.8-6.4 3.8-2.7 10.2-11 10.2-13.2 0-.4-1.4-.8-3.2-.8-2.4 0-3.9.9-6.5 4-1.9 2.2-5.6 5.2-8.1 6.8-4 2.3-5.8 2.7-12.2 2.7s-8.2-.4-12.3-2.8c-8.2-4.8-13.7-14.5-13.7-24.1 0-9.2 7.1-19.8 16-23.9 9.7-4.5 23.3-1.1 30 7.4 2.6 3.2 3.8 3.9 6.6 3.9 1.9 0 3.4-.4 3.4-.8 0-.5-1.3-2.7-2.9-4.9-8-11.1-19.7-16.2-32.4-14.2zm60.3-.2c-7.1 1.5-12.8 5.9-14.9 11.4-2.7 7.1-.1 14.9 6.1 18.7 3.3 2 5.3 2.7 19.5 7 9.5 2.9 13.5 6.3 13.5 11.3 0 4.3-2 7.9-5.9 10.4-2.1 1.4-4.8 1.8-11.3 1.8-9.6 0-12.9-1.4-15.8-6.6-1.4-2.4-2.4-2.9-5.5-2.9h-3.7l1.5 3.7c3.4 8.1 9.3 11.4 21.1 12.1 10.2.5 16.7-1.4 21.8-6.5 3.9-4 5.1-8 4.3-14.9-.9-7.9-5.3-11.1-23.1-16.5-12.8-3.9-16.6-6.7-16.6-12.4 0-5.1 1.5-7.4 6.3-9.6 7.9-3.6 18.6-1.7 22.2 3.9 1.6 2.4 2.7 3.1 5.3 3.2 3.9 0 4.1-1.4.9-6.1-4-6.2-16.4-10-25.7-8zm-372 33v33.1h6v-26h4c3.9 0 4.1.1 13.7 13l9.8 13h4.3c5.1 0 5.6 1-6.1-13.8-4.9-6.2-8.8-11.4-8.6-11.6.2-.1 2.5-1 5.1-2 4.8-1.8 10.2-6.9 11.9-11.3.5-1.3.9-4.8.9-7.6 0-7-3.1-12.3-9.4-16.1-4.7-2.9-5.4-3.1-18.2-3.4l-13.4-.4zm29.1-23.6c6.8 4.6 7.3 15.7.9 21.1-3.3 2.7-10.1 4-18.5 3.4l-5-.3-.3-13.3-.3-13.2h9.9c8.6 0 10.3.3 13.3 2.3zm22.9 23.7v33h39v-6h-32v-24h31v-6h-31v-23h32v-7h-39zm54 0v33h6v-30h32v-6h-32v-23l16.3-.2 16.2-.3v-6l-19.2-.3-19.3-.2zm48-.1v33.1h6v-26h4.3l4.2.1 9.5 12.9 9.5 12.9 4.3.1c2.3 0 4.2-.2 4.2-.5s-4.3-6-9.5-12.7l-9.6-12.2 4.7-1.7c11-4.2 16.1-13.9 12.9-24.5-1.6-5.3-4.8-9.1-10.5-12-2.7-1.4-6.5-1.9-16.7-2.2l-13.3-.4zm29.4-23.8c5.6 4.4 7.2 11.8 3.6 17.6-3.4 5.6-6.1 6.7-16.9 6.7l-9.6.1-.3-13.3-.3-13.2h10.4c9.1 0 10.8.3 13.1 2.1zm22.6 23.9v33h7v-66h-7z"/></svg>