<svg height="-2217" viewBox="192.25 267.62 408.3 76.05" width="2500" xmlns="http://www.w3.org/2000/svg"><g fill="#2f2627"><path d="m323.07 296.2v-.85c0-12.81-9.65-19.64-22.55-19.64h-27.5v60.64h14.26v-20.5h9.14l12.64 20.5h15.8l-14.26-22.12c7.6-2.75 12.47-8.81 12.47-18.03zm-14.87 0c0 5.55-3.76 7.94-9.22 7.94h-11.7v-16.74h11.7c5.47 0 9.22 2.39 9.22 7.94z"/><path d="m347.49 291.07c-14.18 0-23.32 9.14-23.32 22.72v.85c0 13.84 8.88 22.8 23.32 22.8 11.79 0 19.73-5.98 21.86-15.29h-13.41c-.94 2.82-3.67 5.21-8.54 5.21-5.89 0-9.05-3.25-9.65-9.99h31.86c.94-15.54-6.75-26.3-22.12-26.3zm-9.57 18.36c.94-5.72 3.93-8.28 9.4-8.28s8.2 3.25 8.54 8.28zm36.73-36.29h13.67v63.2h-13.67zm19.98 19.04h13.67v44.16h-13.67zm-.25-19.04h14.18v13.75h-14.18zm40.82 17.93c-12.04 0-20.07 5.47-20.58 14.86h12.98c.34-3.33 2.9-5.12 7.35-5.12 4.44 0 6.58 1.96 6.58 5.21v2.82l-15.37 2.05c-8.46 1.02-13.32 5.55-13.32 13.15 0 7.77 5.98 13.41 14.52 13.41 6.66 0 11.62-2.9 14.26-7.69l.43 6.58h12.81v-30.24c-.01-9.22-7.53-15.03-19.66-15.03zm6.32 29.21c0 4.53-4.27 7.52-9.4 7.52-3.93 0-6.06-1.71-6.06-4.61 0-2.65 1.62-4.27 5.04-4.7l10.42-1.37zm46.63-29.21c-7.43 0-11.79 3.93-13.92 7.86l-.34-6.75h-13.07v44.16h13.67v-24.26c0-6.49 3.33-10.08 8.28-10.08 5.21 0 7.09 3.5 7.09 9.48v24.85h13.67v-28.36c0-9.81-4.19-16.9-15.38-16.9zm42.28 10.42c5.12 0 7.26 3.16 7.86 7.86h13.41c-1.28-11.44-9.22-18.28-21.1-18.28-13.92 0-22.55 9.05-22.55 22.72v.85c0 13.75 8.63 22.8 22.55 22.8 11.87 0 19.82-6.83 21.1-18.19h-13.41c-.6 4.61-2.73 7.77-7.86 7.77-5.89 0-8.54-4.36-8.54-12.38v-.85c0-7.86 2.65-12.3 8.54-12.3zm47.06-10.42c-14.18 0-23.32 9.14-23.32 22.72v.85c0 13.84 8.88 22.8 23.32 22.8 11.79 0 19.73-5.98 21.86-15.29h-13.41c-.94 2.82-3.67 5.21-8.54 5.21-5.89 0-9.05-3.25-9.65-9.99h31.86c.94-15.54-6.75-26.3-22.12-26.3zm-9.57 18.36c.94-5.72 3.93-8.28 9.4-8.28s8.2 3.25 8.54 8.28z"/></g><g fill="#ff4e1b"><path d="m240.76 267.62h-28.3c-11.16 0-20.21 9.05-20.21 20.21v43.46l28.3 12.38v-55.84c0-11.16 9.05-20.21 20.21-20.21z"/><circle cx="240.76" cy="287.83" r="16.17"/></g></svg>