<svg height="2500" viewBox="140.643 112.202 419.006 476.678" width="2500" xmlns="http://www.w3.org/2000/svg"><g stroke-width=".789"><path d="m140.721 272.2c.71 25.088 1.736 49.308 5.207 73.45 3.472 24.141 8.284 47.967 15.306 71.399 13.57 45.127 36.607 84.496 70.689 117.158 20.197 19.329 42.84 34.87 69.506 44.023 23.352 8.047 47.178 10.65 71.635 6.627a157.684 157.684 0 0 0 59.329-22.958c43.47-27.85 74.634-66.43 94.91-113.608 19.013-44.102 26.587-90.886 30.452-138.38 1.5-18.54 1.657-37.16 1.5-55.857-.08-6.864.394-13.728-.474-20.591-1.42-11.913-9.23-20.829-20.591-23.669-4.497-1.104-9.073-.946-13.649-1.42-15.937-1.499-31.479-4.497-46.232-10.887-16.804-7.258-31.715-17.041-42.918-31.873-8.757-11.756-14.438-24.93-18.777-38.737-.394-1.657-1.578-2.998-3.235-3.393a203.26 203.26 0 0 0 -52.7-9.862c-25.168-1.42-49.783 1.5-73.846 9.389-3.392 1.104-5.838 2.446-6.153 6.311a11.504 11.504 0 0 1 -.947 3.077c-6.39 20.907-17.278 38.737-35.266 51.834-18.382 13.412-38.421 22.169-61.458 23.352-5.838.316-11.756.158-17.594 1.263-14.99 2.84-24.536 13.964-24.694 29.27-.078 11.597 0 23.194 0 34.082z" fill="#fefefe"/><path d="m140.721 272.2c0-10.888-.078-22.485 0-34.083.158-15.226 9.704-26.43 24.773-29.27 5.838-1.104 11.676-.946 17.594-1.262 23.037-1.183 43.076-9.94 61.458-23.352 17.988-13.097 28.875-30.927 35.187-51.834.394-.947.71-1.972.868-3.077.315-3.865 2.76-5.207 6.153-6.311 23.984-7.89 48.678-10.809 73.845-9.389 17.91.947 35.66 4.182 52.78 9.783 1.657.474 2.84 1.736 3.235 3.393 4.34 13.806 10.02 27.06 18.777 38.737 11.124 14.832 26.114 24.694 42.918 31.873 14.753 6.39 30.295 9.388 46.232 10.887 4.576.395 9.152.316 13.649 1.42 11.36 2.84 19.171 11.756 20.591 23.669.79 6.863.395 13.727.473 20.591.158 18.619 0 37.238-1.499 55.857-3.865 47.494-11.44 94.278-30.453 138.38-20.275 47.179-51.36 85.758-94.91 113.608a157.684 157.684 0 0 1 -59.328 22.958c-24.457 4.102-48.283 1.42-71.635-6.627-26.667-9.152-49.31-24.615-69.506-44.023-34.082-32.662-57.04-71.952-70.69-117.079-7.02-23.432-11.833-47.258-15.305-71.4-3.47-24.14-4.497-48.44-5.207-73.45zm4.497-1.815c.632 31.084 2.13 57.435 6.154 83.549 3.945 25.956 9.625 51.36 18.225 76.211 17.988 52.15 49.15 94.594 94.673 125.836 35.265 24.221 74.476 32.031 116.605 22.959 28.796-6.154 53.727-20.197 75.58-39.605 32.268-28.402 56.725-64.536 71.005-105.087 15.385-42.997 22.17-87.572 24.93-132.937 1.184-19.802 1.026-39.683.79-59.486-.158-16.962-9.862-27.692-26.745-29.033-9.783-.789-19.487-1.735-29.112-3.866-25.01-5.601-46.232-17.672-63.037-37-10.256-11.835-16.41-25.957-20.67-40.868-.394-1.657-1.657-2.998-3.235-3.392a196.661 196.661 0 0 0 -52.543-10.099c-23.984-1.262-47.337 1.736-70.058 9.783a4.91 4.91 0 0 0 -3.63 3.945c-7.179 27.14-22.405 47.967-46.547 62.72-11.518 7.101-23.352 12.781-36.606 15.7-9.547 2.13-19.25 2.446-28.955 3.156-15.542 1.105-25.088 10.099-26.508 25.562-1.105 12.15-.316 24.457-.316 31.952z" fill="#060d1d"/><path d="m145.218 270.385c0-7.495-.789-19.802.395-32.031 1.499-15.463 10.966-24.457 26.587-25.562 9.704-.71 19.408-1.025 28.954-3.155 13.176-2.92 25.01-8.679 36.607-15.7 24.142-14.754 39.447-35.582 46.548-62.721a4.91 4.91 0 0 1 3.629-3.945c22.563-7.968 45.916-10.966 69.9-9.704 17.83.947 35.502 4.34 52.464 10.02a4.322 4.322 0 0 1 3.235 3.392c4.34 14.911 10.414 29.033 20.67 40.867 16.805 19.33 38.027 31.4 63.037 37.002 9.546 2.13 19.329 3.076 29.112 3.865 16.804 1.42 26.587 12.071 26.745 29.033.158 19.803.394 39.684-.79 59.487-2.76 45.364-9.467 89.939-24.93 132.936-14.28 40.552-38.737 76.685-71.004 105.087-21.933 19.408-46.785 33.451-75.58 39.605-42.13 9.073-81.262 1.341-116.606-22.958-45.443-31.242-76.685-73.687-94.673-125.836-8.52-24.852-14.201-50.256-18.146-76.133-4.023-26.193-5.522-52.465-6.154-83.55zm4.497-.789c.553 30.848 2.052 57.277 5.996 83.47 3.866 25.325 9.389 50.255 17.751 74.555 17.042 49.624 46.548 90.176 89.072 120.944 29.9 21.617 63.588 30.848 100.432 27.298 23.51-2.288 46.074-10.256 65.719-23.274 40.71-26.508 69.427-63.115 88.203-107.533 17.041-40.393 24.379-83.075 28.402-126.388 1.578-17.357 2.051-34.713 1.973-52.149-.08-9.388.552-18.777-.474-28.165-1.42-12.386-8.363-19.96-20.591-22.17-7.89-1.42-15.858-1.577-23.826-2.84-24.063-3.786-44.97-14.2-63.194-30.058-14.911-13.018-24.063-29.822-29.586-48.678-.394-1.814-1.735-3.234-3.55-3.787a187.525 187.525 0 0 0 -45.127-9.388c-24.142-1.972-48.441 1.341-71.242 9.704a3.152 3.152 0 0 0 -2.287 2.446c-3.55 12.86-8.521 25.088-16.884 35.502-17.751 22.011-40.71 35.976-68.164 42.603-9.704 2.367-19.645 2.998-29.586 3.944-11.124 1.105-18.855 7.417-21.774 17.515-.868 3.077-1.263 6.233-1.342 9.467 0 10.493-.078 20.907.08 26.982z" fill="#f8f8f8"/><path d="m149.715 269.596c-.157-6.075-.079-16.489.08-26.982 0-3.156.473-6.39 1.34-9.467 2.92-10.098 10.651-16.489 21.775-17.515 9.94-.946 19.882-1.577 29.585-3.944 27.456-6.627 50.414-20.592 68.165-42.603 8.363-10.414 13.333-22.722 16.883-35.502a3.152 3.152 0 0 1 2.288-2.446 166.774 166.774 0 0 1 71.163-9.704 187.525 187.525 0 0 1 45.127 9.388 4.864 4.864 0 0 1 3.55 3.708c5.602 18.777 14.675 35.582 29.586 48.678 18.224 15.858 39.131 26.272 63.194 30.059 7.89 1.262 15.936 1.34 23.826 2.84 12.228 2.209 19.171 9.783 20.591 22.17 1.026 9.387.395 18.776.473 28.164.08 17.436-.394 34.793-1.972 52.15-4.023 43.391-11.36 86.073-28.402 126.388-18.777 44.496-47.494 81.024-88.203 107.532a144.854 144.854 0 0 1 -65.72 23.274c-36.843 3.55-70.451-5.68-100.431-27.297-42.524-30.77-72.03-71.32-89.072-120.945-8.362-24.3-13.885-49.23-17.75-74.555-4.024-26.114-5.523-52.465-6.076-83.391zm367.331 6.864c0-6.785.079-13.57 0-20.355s-.394-13.57-.473-20.355c-.158-8.362-3.077-12.307-11.282-14.2-7.18-1.736-14.517-2.92-21.696-4.813-24.22-6.39-45.759-17.436-63.273-35.739a222.766 222.766 0 0 1 -20.986-26.193c-.473-.947-1.341-1.657-2.367-1.893-11.913-3.156-24.062-5.286-36.37-6.233-17.12-1.262-34.003.631-50.886 3.866-6.943 1.341-12.545 3.55-16.884 10.098-9.073 13.807-20.591 25.878-34.082 35.503-14.595 10.493-31.084 16.567-48.362 21.064-7.18 1.894-14.517 2.998-21.617 5.286-5.286 1.736-7.968 5.286-8.205 10.888-.316 8.836-.868 17.593-1.105 26.43-.71 22.957-.552 45.915 1.342 68.795 1.577 17.909 4.339 35.66 8.205 53.174 7.1 33.057 17.199 65.01 32.82 95.068 10.966 21.143 24.062 40.788 40.709 57.83 21.301 21.853 47.652 33.53 77.868 35.58 36.055 2.525 67.455-8.915 92.938-34.792 16.173-16.489 28.954-35.739 39.999-56.015 20.433-37.396 32.189-77.632 38.579-119.603 4.418-27.613 5.601-55.463 5.128-83.391z" fill="#060d1d"/><path d="m517.046 276.46c.473 27.928-.789 55.857-4.97 83.549-6.39 41.971-18.146 82.207-38.58 119.603-11.045 20.276-23.746 39.526-39.999 56.015-25.482 25.877-56.803 37.317-92.937 34.792-30.216-2.13-56.567-13.727-77.868-35.581-16.568-17.041-29.743-36.765-40.71-57.83-15.62-30.058-25.798-62.01-32.82-95.067-3.865-17.514-6.627-35.265-8.205-53.174-1.893-22.88-2.05-45.838-1.34-68.796.236-8.836.788-17.593 1.104-26.43.236-5.601 2.919-9.151 8.205-10.887 7.1-2.288 14.437-3.392 21.617-5.286 17.199-4.576 33.687-10.572 48.362-21.065a135.107 135.107 0 0 0 34.082-35.502c4.34-6.548 9.94-8.678 16.883-10.098 16.805-3.314 33.688-5.128 50.887-3.866 12.307.947 24.457 3.077 36.37 6.232 1.026.316 1.894 1.026 2.367 1.894 6.312 9.23 13.254 17.988 20.907 26.114 17.435 18.382 39.052 29.348 63.273 35.739 7.18 1.893 14.516 3.156 21.696 4.812 8.126 1.894 11.124 5.839 11.282 14.201.079 6.785.394 13.57.473 20.355s-.079 13.49-.079 20.276zm-168.833 294.196c-11.755 0-38.343-1.973-66.666-19.566s-49.308-54.437-60.59-76.212c-11.282-21.774-5.05-8.994-21.38-50.729-16.332-41.734-20.355-112.66-20.355-124.731 0-12.07.868-61.932 1.735-67.218.868-5.286 1.894-8.047 7.338-9.467 6.548-1.815 10.177-2.367 10.177-2.367s34.161-6.233 56.804-21.932c21.853-15.07 38.342-39.526 41.577-44.418.394-.552.947-.947 1.578-1.104 5.128-1.263 28.086-6.47 49.782-6.47m164.887 127.651c.237-11.282-.71-24.3-1.025-37.396-.158-7.258-3.314-10.808-10.335-12.623-.868-.237-1.736-.394-2.604-.552-20.986-3.471-41.025-10.966-59.17-22.012-16.174-9.782-30.375-21.774-40.157-38.263-.553-.79-1.42-1.42-2.367-1.5-12.466-3.47-25.167-5.837-38.027-7.02-20.434-1.815-41.104.394-60.67 6.547-1.025.316-1.893.947-2.445 1.815-20.04 29.112-47.652 47.494-81.182 57.435-7.1 2.13-14.438 3.235-21.696 4.97-4.813 1.105-7.574 4.024-8.284 8.994-1.026 7.495-1.026 14.99-1.263 22.485-1.183 42.208 1.263 84.022 9.704 125.363 4.182 20.354 9.073 40.551 17.2 59.801 10.808 25.72 23.352 50.414 40.55 72.504 9.705 12.465 20.198 24.063 33.373 32.82 16.252 10.808 35.108 17.12 54.516 18.224 35.739 2.288 66.508-8.915 91.517-34.792 16.331-16.962 29.033-36.686 40.236-57.277 19.881-36.449 30.769-75.738 36.686-116.605a560.897 560.897 0 0 0 5.443-82.918z" fill="#f8f8f8"/><path d="m513.101 274.093a559.837 559.837 0 0 1 -5.443 82.839c-5.838 40.867-16.805 80.156-36.686 116.605-11.203 20.67-23.905 40.315-40.236 57.277-25.01 25.956-55.7 37.16-91.517 34.793a109.332 109.332 0 0 1 -54.516-18.225c-13.175-8.757-23.747-20.434-33.372-32.82-17.199-22.09-29.822-46.784-40.552-72.504-8.047-19.25-13.017-39.447-17.199-59.801-8.441-41.262-10.887-83.076-9.704-125.126.237-7.495.237-14.99 1.263-22.485.71-4.97 3.471-7.89 8.284-8.994 7.179-1.736 14.516-2.84 21.696-4.97 33.53-9.941 61.221-28.323 81.182-57.435.552-.868 1.42-1.578 2.445-1.815a156.52 156.52 0 0 1 60.67-6.548c12.86 1.183 25.561 3.471 37.948 6.943.947.157 1.814.71 2.367 1.499 9.783 16.489 23.983 28.48 40.157 38.263 18.145 11.045 38.184 18.54 59.17 22.012.868.158 1.736.315 2.604.552 7.021 1.815 10.177 5.365 10.335 12.623.473 13.018 1.341 26.035 1.104 37.317zm-67.611 185.164c-.473.158-.946.316-1.341.474-3.392 1.42-6.943 2.445-10.65 1.656-5.839-1.183-9.231-5.207-11.914-10.098-2.445-4.497-3.629-9.388-4.97-14.28-3.55-12.86-6.39-25.956-11.36-38.421-5.76-14.596-13.728-27.613-26.983-36.686-.157-.079-.236-.394-.315-.631 6.311-2.21 12.307-5.444 17.514-9.625 8.679-6.864 14.99-15.621 20.592-25.01.473-.63.394-1.577-.158-2.209-6.312-8.678-14.28-15.384-23.353-20.907-.71-.473-1.183-.63-1.499.553-3.077 10.572-10.335 17.909-18.698 24.457a34.293 34.293 0 0 1 -15.305 6.706c-8.757 1.736-17.593.789-26.35.237-2.604-.158-2.84-1.184-2.84-3.393.078-21.696.078-43.47.078-65.166 0-8.6 0-8.6 8.363-11.124 8.757-2.683 17.672-2.84 26.666-2.052 20.907 1.736 40.946 9.073 58.145 21.144.552.394.947 1.104 1.972.947-.315-1.026-.473-2.052-.789-3.077-8.836-29.901-35.502-51.124-66.665-53.017-14.99-.947-29.428 1.578-42.524 9.625a2.779 2.779 0 0 1 -2.92 0c-3.55-1.578-7.415-2.525-11.36-2.603-8.284-.158-15.069 3.234-21.301 8.757 7.81 2.367 12.465 7.495 14.99 14.674 1.577 4.497 2.445 9.152 2.445 13.885 0 48.52 0 97.04-.079 145.481-.078 1.657.632 3.314 2.052 4.34 6.469 5.522 13.727 10.019 21.617 13.175 2.998 1.34 6.153 2.287 9.31 2.998v-58.224c0-2.998 0-2.998 3.076-2.683 11.36 1.105 20.67 6.154 28.007 14.832 8.048 9.625 12.623 20.986 16.41 32.741 4.497 13.886 7.259 28.245 11.282 42.209 2.051 7.416 5.917 13.885 11.913 18.698 12.229 9.783 25.562 10.335 36.844-2.288 4.023-4.655 7.416-9.783 10.02-15.306.157-.079.552-.552.078-.789h.316v-.236zm-154.554-167.413v-17.672c0-2.604 0-2.604-2.21-1.341-9.23 5.522-17.75 12.307-25.167 20.118-22.958 23.668-32.11 51.99-27.612 84.495a99.477 99.477 0 0 0 29.348 58.46c32.741 32.268 72.267 40.868 116.448 31.637 2.919-.63 2.919-.789 1.814-3.629-.315-.789-.552-1.499-.867-2.288-2.998-8.284-4.813-16.883-6.628-25.562-.315-1.34-.63-1.893-2.209-1.656-2.76.552-5.522.71-8.283 1.025-9.862 1.026-19.724 1.342-29.586 0-17.514-2.366-32.346-10.177-45.206-22.011-18.303-16.805-25.562-37.554-21.933-62.09 2.21-15.226 9.625-27.692 20.355-38.421 1.105-1.026 1.736-2.525 1.657-4.024 0-5.601.079-11.282.079-17.04zm40.867-16.33c0 4.338.079 8.677-.079 12.938 0 1.656.394 1.893 1.893 1.656 9.704-1.814 19.724-1.893 29.507-.473 26.272 4.024 46.784 16.805 60.354 39.92 2.13 3.709 5.365 6.706 9.23 8.442 8.52 3.945 20.118-1.499 22.248-10.65 1.263-5.129.474-10.572-2.13-15.148-2.524-4.576-5.443-8.915-8.836-12.939-23.826-28.402-54.673-41.814-91.438-42.13a49.863 49.863 0 0 0 -19.171 3.314c-1.184.474-1.736 1.105-1.736 2.446.237 4.34.158 8.52.158 12.623zm92.306 171.436c12.86-8.915 22.327-20.513 30.295-33.451 2.13-3.472 2.288-7.89.474-11.519-2.762-5.996-7.338-9.94-14.201-10.414-7.18-.473-12.544 2.762-16.253 8.757-1.34 2.21-2.76 4.419-4.102 6.628-1.657 2.682-5.05 4.654-5.365 7.573-.315 2.92 1.42 6.075 2.288 9.152 1.894 7.89 3.55 15.779 6.864 23.274zm-160.234 24.378c4.655 5.05 9.546 9.23 15.621 11.834 6.47 2.92 13.885 2.998 20.434.316 6.39-2.525 11.597-6.864 16.489-11.677 1.34-1.34 1.577-1.814-.632-2.445-10.02-2.84-19.88-6.154-28.717-11.913-1.183-.79-1.5 0-1.972.71-3.787 5.76-9.389 9.94-15.937 11.834-1.657.473-3.314.868-5.286 1.341z" fill="#060d1d"/><g fill="#fefefe"><path d="m445.41 459.178c.553.316.158.71 0 1.026-2.603 5.523-5.996 10.65-10.02 15.306-11.281 12.544-24.693 12.07-36.843 2.287-5.996-4.812-9.783-11.36-11.913-18.697-3.944-14.044-6.785-28.402-11.282-42.209-3.787-11.755-8.362-23.116-16.41-32.74-7.337-8.68-16.567-13.728-28.007-14.833-3.077-.315-3.077-.315-3.077 2.683v58.223c-3.234-.71-6.39-1.656-9.388-2.998-7.89-3.155-15.148-7.652-21.617-13.175-1.341-1.026-2.13-2.682-2.051-4.34.078-48.519.078-97.039.078-145.48 0-4.733-.867-9.467-2.445-13.885-2.604-7.18-7.18-12.308-14.99-14.674 6.232-5.523 13.017-8.915 21.301-8.758 3.945.08 7.81 1.026 11.361 2.604a2.779 2.779 0 0 0 2.92 0c13.095-8.047 27.533-10.572 42.602-9.625 31.163 1.893 57.75 23.116 66.665 53.095.316 1.026.553 2.052.79 3.077-1.026.158-1.5-.552-1.973-.946-17.12-12.071-37.238-19.408-58.145-21.144-8.994-.789-17.909-.631-26.666 2.051-8.442 2.446-8.442 2.446-8.442 11.045 0 21.696 0 43.471-.079 65.167 0 2.209.316 3.235 2.84 3.392 8.758.553 17.594 1.5 26.351-.236a34.293 34.293 0 0 0 15.306-6.706c8.283-6.549 15.62-13.886 18.697-24.458.316-1.183.79-.946 1.5-.552 9.072 5.523 17.04 12.308 23.352 20.907.552.631.631 1.5.158 2.21-5.602 9.388-11.913 18.145-20.592 25.009a60.32 60.32 0 0 1 -17.514 9.625c.158.236.158.473.316.63 13.254 9.074 21.222 22.091 26.981 36.687 4.892 12.465 7.81 25.561 11.361 38.421 1.341 4.891 2.525 9.783 4.97 14.28 2.683 4.891 6.075 8.915 11.913 10.098 3.787.79 7.259-.236 10.651-1.657.473-.157.868-.315 1.341-.473z"/><path d="m290.936 291.844c0 5.76-.08 11.44.079 17.12.079 1.5-.474 2.998-1.657 4.024-10.73 10.65-18.146 23.195-20.355 38.421-3.629 24.536 3.63 45.285 21.933 62.09 12.86 11.834 27.77 19.644 45.206 22.011 9.862 1.341 19.724 1.026 29.585 0 2.762-.315 5.523-.473 8.284-1.025 1.578-.316 1.894.315 2.21 1.656 1.814 8.6 3.628 17.2 6.626 25.562.316.789.553 1.5.868 2.288 1.105 2.84 1.105 2.998-1.814 3.63-44.181 9.23-83.707.63-116.448-31.637a99.477 99.477 0 0 1 -29.349-58.46c-4.418-32.426 4.655-60.828 27.613-84.496 7.416-7.811 15.937-14.596 25.167-20.118 2.21-1.263 2.21-1.263 2.21 1.34-.158 5.839-.158 11.756-.158 17.594zm40.867-16.331c0-4.181.079-8.363-.079-12.465 0-1.42.473-1.973 1.736-2.446 6.074-2.367 12.623-3.471 19.17-3.313 36.844.315 67.613 13.727 91.44 42.129 3.313 4.024 6.31 8.363 8.835 12.939 2.604 4.575 3.393 10.02 2.13 15.147-2.13 9.152-13.727 14.675-22.248 10.65-3.866-1.814-7.1-4.733-9.23-8.44-13.649-23.117-34.161-35.898-60.433-39.921a88.237 88.237 0 0 0 -29.507.473c-1.499.237-1.972 0-1.893-1.657.158-4.418.079-8.757.079-13.096zm92.306 171.437c-3.235-7.495-4.891-15.384-7.022-23.195-.789-3.077-2.524-6.233-2.288-9.152.237-2.919 3.708-4.891 5.365-7.574 1.341-2.209 2.762-4.418 4.103-6.627 3.787-6.074 9.073-9.23 16.252-8.757 6.864.474 11.44 4.34 14.2 10.414 1.894 3.63 1.658 8.047-.473 11.519-7.81 12.86-17.356 24.457-30.137 33.372z"/><path d="m263.875 471.328c1.972-.552 3.63-.868 5.207-1.341 6.548-1.972 12.229-6.154 15.937-11.913.473-.71.789-1.499 1.972-.71 8.836 5.76 18.698 9.073 28.717 11.913 2.21.631 1.894 1.104.632 2.446-4.813 4.812-10.02 9.072-16.49 11.676-6.547 2.761-13.963 2.603-20.433-.316-5.996-2.524-10.887-6.627-15.542-11.755zm181.615-12.071.315-.236v.236z"/></g></g></svg>