<svg height="2500" viewBox="57.68 143.669 869.047 1000.0000000000001" width="2173" xmlns="http://www.w3.org/2000/svg" xmlns:xlink="http://www.w3.org/1999/xlink"><linearGradient id="b" gradientUnits="userSpaceOnUse" x1="650.429" x2="161.798" y1="220.728" y2="1067.05"><stop offset="0" stop-color="#f9b233"/><stop offset=".401" stop-color="#e94e1b"/></linearGradient><linearGradient id="a"><stop offset=".25" stop-color="#fff"/><stop offset="1" stop-color="#fff" stop-opacity="0"/></linearGradient><linearGradient id="c" gradientUnits="userSpaceOnUse" x1="294.513" x2="298.727" xlink:href="#a" y1="684.657" y2="684.657"/><linearGradient id="d" gradientUnits="userSpaceOnUse" x1="261.691" x2="939.679" y1="413.359" y2="532.919"><stop offset=".101" stop-color="#f9b233"/><stop offset=".821" stop-color="#e94e1b"/></linearGradient><linearGradient id="e" gradientTransform="rotate(-41.505 -24564.95 -4519.985) scale(11.90476)" gradientUnits="userSpaceOnUse" x1="-763.9" x2="-763.519" xlink:href="#a" y1="1336.45" y2="1336.45"/><linearGradient id="f" gradientUnits="userSpaceOnUse" x1="390.072" x2="664.536" y1="422.109" y2="917.252"><stop offset=".212" stop-color="#f9b233"/><stop offset=".739" stop-color="#ed6b19"/></linearGradient><linearGradient id="g" gradientUnits="userSpaceOnUse" x1="492.203" x2="492.203" xlink:href="#a" y1="606.347" y2="610.55"/><path d="M517.198 143.669l-222.61 83.333v916.667l222.61-82.148z" fill="url(#b)" transform="translate(-57.68 -143.669)"/><path d="M298.146 225.816L294.59 227v916.667l3.557-1.188z" fill="url(#c)" transform="translate(-57.68 -143.669)"/><path d="M517.198 143.669l-222.61 83.333 532.134 601.19 100.005-221.424z" fill="url(#d)" transform="translate(-57.68 -143.669)"/><path d="M299.355 225.816L294.59 227l532.133 601.19 1.186-4.766z" fill="url(#e)" transform="translate(-57.68 -143.669)"/><path d="M57.68 606.768l207.147 221.424h561.895l100.005-221.424z" fill="url(#f)" transform="translate(-57.68 -143.669)"/><path d="M57.68 606.768l3.58 3.56h863.095l2.372-3.56z" fill="url(#g)" transform="translate(-57.68 -143.669)"/><g fill="#fff"><path d="M554.757 472.61v201.195h53.572v-74.986h51.2v74.986h53.57V472.61h-53.57v73.823h-51.2V472.61zM323.8 436.895l-52.362 20.252v89.286h-57.152l48.805 52.386h7.138v74.986l52.385-19.043v-54.758h72.615l25.018-53.57zm0 79.776l26.205 29.762H323.8z"/><path d="M407.134 472.61v42.875l26.204 29.762-26.204 57.13v71.428h138.113v-52.386H459.52v-22.6h69.057v-52.386H459.52v-21.438h85.728V472.61z"/></g></svg>