<svg height="191pt" viewBox="12 15.999999999999988 863.4 160" width="886pt" xmlns="http://www.w3.org/2000/svg"><path d="M746.8 17.7c-6.1 7.4-15.9 27.6-19.2 40.1-3.8 14.1-5 26.3-4.3 44.6.6 16.8 2.1 26 6.4 38.6 2.8 8.2 9.4 21.7 14.5 29.5l3.3 5 12.6.3c10.8.2 12.8 0 13.3-1.3.3-1-1.5-5-4.6-10.2-13-21.6-18.8-42.8-18.8-68.3 0-26 6.3-48.3 19.6-69.6 6.2-10.1 6-10.4-9.1-10.4-10.4 0-12.4.3-13.7 1.7zM825.2 17.6c-.7 1.2.5 3.9 4.3 10.3C842.6 49.6 848 69.4 848 96c0 27.2-6.4 49.5-20.5 71.6-5 7.8-4.1 8.4 10.8 8.4h12.2l3.7-5.8c9.6-15 16.6-32.8 19.3-49.5 1.9-12 1.9-37.4 0-49.5-2.8-16.9-9.5-34.2-19.1-49.1l-3.9-6.1h-12.2c-10.2 0-12.4.3-13.1 1.6zM656.5 27.4l-16 8.4-.3 8.1-.3 8.1H627v24h12.8l.4 23.7c.3 21.7.5 24.2 2.4 28.3 4.1 8.7 10.2 12 23.5 12.8 7.2.4 24-1.1 25.9-2.3.6-.4-1.5-20.3-2.2-21-.1-.2-2.4.1-4.9.7-6 1.4-9.7.4-10.9-2.8-.6-1.4-1-10.8-1-21V76h18V52h-18l-.2-16.5-.3-16.4zM55.2 52.1c-3 1.5-5.5 3.9-8 7.7l-3.7 5.5-.3-6.6-.3-6.7H12v87h34v-20.4c0-28.1 2.1-37.2 9.5-41.2 3.1-1.6 4.1-1.7 9.2-.6 3.1.6 5.8 1.1 5.9.9.5-.6 9.4-22 9.4-22.7 0-1.5-11-5-15.8-5-2.8 0-6.5.9-9 2.1zM116.3 51.4c-12.5 2.9-24.2 11.5-29.4 21.8-6.7 13.1-6.5 32 .5 45.2 8.8 16.9 23 23.3 48.6 22.3 20.2-.8 30.7-5.4 39.6-17.1 2.4-3.2 4.3-6 4.1-6.3-.2-.2-7.5-1-16.2-1.8l-15.7-1.6-3.8 3.5c-8.4 7.6-21.5 5.2-26-4.7-1.1-2.3-2-5.2-2-6.5V104h66v-6.3c0-12.6-4.2-26-10.4-32.9-4.6-5.2-11.8-9.8-18.4-11.9-8.8-2.7-28-3.5-36.9-1.5zM139.8 72c3.3 1.5 4.7 2.9 6.2 6.2 1.1 2.4 2 5.3 2 6.5 0 2.3-.1 2.3-16 2.3-17.8 0-17.4.2-14.5-6.7 4-9.5 12.6-12.7 22.3-8.3zM220.5 51.3c-12.9 4.3-21.4 14.5-25.1 30.4-2 8.3-1.4 26.3 1 34 7.3 23.2 34.2 32.5 54.5 18.9l5.1-3.5V172h33V52h-31v11.9l-4.6-4.5c-2.5-2.5-6.6-5.5-9.2-6.6-5.8-2.6-18-3.4-23.7-1.5zm27.6 25c5.4 3.5 7.4 8.7 7.4 18.7 0 13-4.2 19.5-13.3 20.7-5.2.7-10.2-2.2-12.8-7.5-2.5-5-2.6-21.2-.2-25.7 4.4-8.2 12.1-10.7 18.9-6.2zM450.3 51.4c-12.5 2.9-24.2 11.5-29.4 21.8-6.7 13.1-6.5 32 .5 45.2 8.8 16.9 23 23.3 48.6 22.3 20.2-.8 30.7-5.4 39.6-17.1 2.4-3.2 4.3-6 4.1-6.3-.2-.2-7.5-1-16.2-1.8l-15.7-1.6-3.8 3.5c-8.4 7.6-21.5 5.2-26-4.7-1.1-2.3-2-5.2-2-6.5V104h66v-6.3c0-12.6-4.2-26-10.4-32.9-4.6-5.2-11.8-9.8-18.4-11.9-8.8-2.7-28-3.5-36.9-1.5zM473.8 72c3.3 1.5 4.7 2.9 6.2 6.2 1.1 2.4 2 5.3 2 6.5 0 2.3-.1 2.3-16 2.3-17.8 0-17.4.2-14.5-6.7 4-9.5 12.6-12.7 22.3-8.3zM555 51.1c-21 3.7-31.6 20.6-23.2 37 5 9.9 10.3 12.5 35.2 17.4 14.7 2.9 18.5 4.4 19.5 7.5 1.6 4.9-2.6 8.7-10.4 9.7-8 .9-13.3-1.8-17.6-9.1-.9-1.6-2.1-1.6-16.9-.2-8.7.9-16 1.7-16.2 1.8-.6.7 2.7 8.3 5.1 11.8 6.1 8.8 16.5 12.8 35.5 13.7 26.6 1.2 42-4.8 48.6-19.2 5.1-10.9 1.7-23.7-8-30.2-6.2-4.2-12-5.9-28.6-8.4-15.8-2.4-19-3.7-19-7.8 0-8.1 14.8-9.8 21.6-2.5l3.3 3.4 14.7-1.5c8.1-.8 14.9-1.7 15.2-1.9 1-1-5.5-11.1-9.2-14.2-6.9-5.9-13.1-7.6-29.6-8-8-.1-17 .1-20 .7zM309 84.3c0 35.6.4 38.8 6 46.5 1.7 2.4 5.2 5.3 8.2 6.9 4.8 2.5 6.3 2.8 15.3 2.8 12.1-.1 16.8-1.9 25-9.6l5.5-5.2V139h31V52h-33v24.2c0 26.2-.6 30.2-4.8 35-5.8 6.4-16.9 4.1-19.1-3.9-.6-2.2-1.1-14.6-1.1-29.6V52h-33z"/></svg>