<svg height="1042" width="2500" xmlns="http://www.w3.org/2000/svg" viewBox="136.949 150.923 926.1009999999997 198.15499999999997"><linearGradient id="a" gradientTransform="scale(715.43955 -715.43955) rotate(47.793 .854 -.324)" gradientUnits="userSpaceOnUse" x2="1"><stop offset="0" stop-color="#aa25f7"/><stop offset="1" stop-color="#5d3de7"/></linearGradient><path d="M152.705 349.078c-8.701 0-15.756-7.055-15.756-15.756V166.678c0-8.701 7.055-15.755 15.756-15.755H409.81c8.703 0 15.756 7.054 15.756 15.755v166.644c0 8.701-7.053 15.756-15.756 15.756z" fill="url(#a)" transform="matrix(1.33333 0 0 -1.33333 0 666.667)"/><g transform="matrix(1.33333 0 0 -1.33333 0 666.667)"><path d="M238.473 243.025l46.293-67.01h-41.854l-41.643 67.01zm-51.578 80.96h31.496c12.683 0 23.252-2.044 31.708-6.13 8.455-4.09 14.867-9.76 19.236-17.016 4.367-7.26 6.553-15.68 6.553-25.261 0-9.443-2.186-17.793-6.553-25.05-4.369-7.26-10.78-12.93-19.236-17.016-8.456-4.09-19.025-6.13-31.708-6.13h-31.496v27.692h28.96c4.788 0 8.911.74 12.366 2.219 3.451 1.48 6.093 3.664 7.926 6.553 1.83 2.887 2.75 6.375 2.75 10.463 0 4.087-.92 7.575-2.75 10.464-1.833 2.887-4.475 5.107-7.926 6.659-3.455 1.549-7.578 2.325-12.367 2.325h-28.959zm13.317-147.97h-35.724v147.97h35.724zM324.927 205.398h74.62v-29.383h-74.62zm0 62.781h70.392V239.43h-70.392zm0 55.806h74.62v-29.383h-74.62zm10.57-147.97h-34.245v147.97h34.245z" fill="#fff"/><g fill="#7137eb"><path d="M513.42 248.813l59.355-81.91h-24.929l-56.982 81.91zm-41.075 84.284h33.951c10.762 0 20.38-2.017 28.847-6.054 8.466-4.036 15.195-9.775 20.182-17.213 4.985-7.442 7.478-16.304 7.478-26.59 0-10.133-2.493-18.958-7.478-26.474-4.987-7.519-11.716-13.296-20.182-17.33-8.468-4.038-18.085-6.056-28.847-6.056h-33.95v17.807h33.95c7.123 0 13.415 1.265 18.876 3.8 5.461 2.53 9.734 6.171 12.82 10.92 3.087 4.748 4.63 10.524 4.63 17.332 0 6.803-1.543 12.584-4.63 17.332-3.086 4.748-7.359 8.387-12.82 10.921-5.46 2.53-11.753 3.798-18.876 3.798h-33.95zm9.022-166.195h-20.18v166.195h20.18zM614.205 216.524c5.46-9.816 12.939-17.57 22.436-23.267 9.498-5.698 20.26-8.548 32.29-8.548 12.187 0 22.989 2.85 32.408 8.548 9.415 5.698 16.857 13.45 22.318 23.267 5.46 9.812 8.19 20.97 8.19 33.476 0 12.502-2.73 23.66-8.19 33.477-5.461 9.812-12.903 17.568-22.318 23.266-9.42 5.699-20.221 8.548-32.407 8.548-12.031 0-22.793-2.85-32.291-8.548-9.497-5.698-16.975-13.454-22.436-23.266-5.46-9.816-8.191-20.975-8.191-33.477 0-12.505 2.73-23.664 8.19-33.476m-23.266 67.309c4.192 10.365 10.09 19.387 17.687 27.066 7.598 7.675 16.539 13.689 26.83 18.044 10.287 4.352 21.446 6.529 33.477 6.529 12.186 0 23.385-2.177 33.594-6.53 10.21-4.354 19.113-10.368 26.71-18.043 7.598-7.68 13.492-16.701 17.688-27.066 4.192-10.37 6.292-21.647 6.292-33.833 0-12.031-2.1-23.267-6.292-33.714-4.196-10.446-10.09-19.51-17.687-27.184-7.598-7.68-16.501-13.694-26.711-18.045-10.21-4.352-21.408-6.53-33.594-6.53-12.031 0-23.19 2.178-33.477 6.53-10.291 4.35-19.232 10.365-26.83 18.045-7.597 7.674-13.495 16.738-17.687 27.184-4.196 10.447-6.292 21.683-6.292 33.714 0 12.186 2.096 23.464 6.292 33.833M892.107 333.098l-71.939-77.874 75.5-88.321H870.74l-75.025 87.846 71.463 78.349zm-90.22-166.195h-20.18v166.195h20.18zM924.04 216.524c5.46-9.816 12.94-17.57 22.436-23.267s20.26-8.548 32.29-8.548c12.186 0 22.988 2.85 32.407 8.548 9.415 5.698 16.857 13.45 22.318 23.267 5.46 9.812 8.191 20.97 8.191 33.476 0 12.502-2.73 23.66-8.19 33.477-5.462 9.812-12.904 17.568-22.319 23.266-9.419 5.699-20.22 8.548-32.407 8.548-12.03 0-22.793-2.85-32.29-8.548s-16.976-13.454-22.437-23.266c-5.46-9.816-8.19-20.975-8.19-33.477 0-12.505 2.73-23.664 8.19-33.476m-23.267 67.309c4.192 10.365 10.091 19.387 17.688 27.066 7.598 7.675 16.538 13.689 26.83 18.044 10.286 4.352 21.445 6.529 33.476 6.529 12.186 0 23.385-2.177 33.594-6.53 10.21-4.354 19.113-10.368 26.711-18.043 7.597-7.68 13.491-16.701 17.687-27.066 4.192-10.37 6.292-21.647 6.292-33.833 0-12.031-2.1-23.267-6.292-33.714-4.196-10.446-10.09-19.51-17.687-27.184-7.598-7.68-16.5-13.694-26.71-18.045-10.21-4.352-21.409-6.53-33.595-6.53-12.03 0-23.19 2.178-33.477 6.53-10.29 4.35-19.23 10.365-26.829 18.045-7.597 7.674-13.496 16.738-17.688 27.184-4.196 10.447-6.292 21.683-6.292 33.714 0 12.186 2.096 23.464 6.292 33.833"/></g></g></svg>