<svg height="377" viewBox=".01 47.57 593.83 137.07" width="2500" xmlns="http://www.w3.org/2000/svg"><g fill="#231f20"><path d="m46.27 120.9c-.77 1.73-1.07 2.66-1.84 4.39v3.75c.18 1.72.21 3.47.59 5.15.22.97.77 2.18 1.55 2.67 5.35 3.34 10.99 6.26 16.2 9.8 10.73 7.3 23.18 9.88 36.46 9.1 3.83-.23 6.91-3.65 10.51-3.88v12.71l-.36 12.01-.36 2.18-1.64.73-1.46.18h-2.55l-6.92-.55h-2.73l-10.55.55-13.47-.91h-2.91l-10.55.55-2.91.18-10.56.18-2.91-.18-10.56-.55-2.91-.18h-10.56l-3.09.18-4.55.36-3.09.18h-2.73l-1.64-.73-.36-2.18-.36-7.28v-1.82l.73-1.64 5.82-8.19 1.64-2.55 5.46-8.55 1.46-2.55 5.82-8.19 1.46-2.55 5.28-8.73 1.46-2.55 5.64-8.55 1.46-2.55 7.28-10.55 6.19-8.37 7.46-10.74v-2l-2.18-.73-10.19-.73h-2.91l-10.19.18h-2.91l-10.19.55h-6.73l-6-.36-2-.73-.73-2.18v-1.46l-.18-3.09-.18-6.19v-2.91l-.36-11.1.91-1.82 2.37-.18 22.75-.73h2.91l10.01.18h2.91l9.83-.18h2.91l10.01.55 12.92-.73h2.91l12.92.73 9.83-.18 2.37.36.91 2v1.27l-.45 10.43-.18 1.64-.18 2-.19 14.57c-.54.22-1.07.44-1.59.68-5.25 2.39-9.6 1.89-13.57-2.4-3.78-4.08-9.12-5.46-13.61-8.33l-.92.74c.99 3.05 1.97 6.1 3.08 9.51-3.4-1.42-6.31-3.07-9.43-3.83-3.14-.77-6.49-.66-10.53-1 1.17 2.18 2.02 3.67 2.78 5.21 3.53 7.18 7.17 14.31 10.42 21.62.61 1.36.23 3.97-.74 5.1-4.86 5.67-10.5 10.55-17.8 12.75l-9.63.46zm167.48 41.61-.18 2.89-.72 9.74-.18 1.8-.72 1.26-.9.72-18.27 1.24h-2.89l-9.56-.72-2.89.18-9.38.72-2.89.18h-12.45l-9.38-.72h-2.89l-15.51.9-6.13-.36-2.16-.36-1.26-.9-.54-1.26-.36-1.98-.36-4.15-.18-2.89.18-2.71v-2.71l.72-9.56v-2.89l.18-9.56-.18-2.89-.54-9.56-.18-2.89.36-9.74v-15.33l.72-9.56-.18-2.89-.54-9.56-.18-2.89v-4.33l.36-5.41v-2.71l.54-9.38.18-2.53.54-1.44.9-.72 1.44-.18 2.35-.36 11.73.72 11-.18h2.89l10.82.72h2.89l10.82-.72h2.89l24.54.36 3.07-.18 6.13-.54h4.51l2.53.54 1.08.9.36 1.26.36 2.35v4.87l-.36 4.51v3.07l.18 4.51.18 2.71-.18 2.71-.36 2.17-.72 1.26-.9.72-2.17.36h-1.44l-2.89.18-16.96-.36h-2.89l-9.2.36h-2.89l-9.38-.36-8.12-.54h-2.71l-1.44.18-1.8.36-.9.9-.18 1.08-.36 1.98-.36 4.33v2.89l.18 3.07.18 1.98.36 1.26.72.9 1.98.54 5.77.36 5.77-.36h17.14l20.2-1.08 5.59.36 1.98.36 1.08.9.54 1.08.18 1.98.36 3.07.18 3.07v5.95l.36 4.15-.36 5.41-.36 2.16-.72 1.26-1.26.9-1.8.36h-3.61l-8.12-.9-2.89-.18-14.43.9-11.55-.36h-2.89l-7.22-.54-3.07.18-2.16.18-.9.54-.54 1.26-.18 2.71-.54 4.51-.18 2.89v3.97l.18 1.8.54 1.26.72.72 1.98.18 9.92.36h2.89l9.74-.72 12.81.72h2.89l12.81-.72h2.71l2.71.18 1.14.21 1.08.54.72 1.08.18 1.98.54 9.92zm379.77-54.19-.48-3.07-.32-3.07-.96-5.41-.8-4.15-.8-2.53-1.12-2.71-1.28-2.34-1.76-3.61-1.28-2.34-1.12-2.35-1.28-2.34-2.24-3.43-1.44-2.17-1.76-1.98-1.76-1.8-2.72-2.89-2.08-1.8-2.08-1.62-5.28-3.43-2.24-1.08-3.36-1.44-2.4-.9-2.4-.72-2.56-.72-2.72-.54-2.72-.72-2.72-.54-2.72-.36-3.84-.18-4.8-.36-5.12.36-8 1.08-2.4.54-6.08 1.26-2.4.72-2.4.9-2.24.9-3.36 1.62-2.24 1.26-2.24 1.44-2.08 1.44-4.8 3.61-2.08 1.62-2.08 1.8-2.72 2.53-1.92 2.17-.8 1.44-1.6 2.53-2.24 3.97-1.28 2.71-.64 1.62-1.12 2.89-1.12 4.15-.96 2.89-.8 2.71-.8 3.07-.64 3.07-.48 3.07-.32 3.07-.16 3.25-.16 3.07v3.07l.16 3.07.16 2.71.48 3.97.48 2.7.48 2.89.48 2.71.96 3.79 2.4 8.12 1.28 3.61 1.28 2.34 1.6 2.34 1.6 2.17 4.32 4.87 1.76 2.34 1.92 2.34 2.08 1.98 2.08 1.8 2.4 1.62 2.4 1.44 5.12 2.53 2.72 1.26 2.56.9 8.64 3.25 2.4.72 2.24.54 5.28.72 5.44.36h8.64l2.72-.18 2.72-.54 2.72-.72 2.56-.72 2.72-.9 5.12-1.8 2.4-.72 3.2-1.44 2.24-1.08 2.4-1.44 2.08-1.44 2.88-2.16 1.92-1.62 2.08-1.8 1.76-1.8 2.56-3.07 1.6-1.98 1.6-2.34 1.44-2.34 4.32-8.12 1.12-2.53 1.6-3.79.64-2.71.48-2.89.32-2.71.32-4.15.96-5.41.32-2.71.32-4.15.16-2.89-.32-6.13zm-33.29 9.21-.32 4.33-.32 2.71-.8 4.15-.96 2.71-1.6 3.97-1.44 2.53-2.08 2.89-1.6 1.98-2.56 2.89-1.92 1.62-3.52 2.53-2.24 1.08-3.52.9-2.56.36-4 .36-2.72-.18-4-.54-2.4-.54-3.36-1.26-2.4-1.08-2.56-1.44-2.24-1.62-3.2-3.07-1.92-2.16-.96-1.26-1.76-2.53-.8-1.44-1.28-2.53-.64-1.44-.8-2.53-.32-1.26-.64-2.71-.16-1.62-.48-2.89-.16-2.89v-2.71l.16-2.71.16-2.53.32-2.53.48-2.53.48-1.26.8-2.71 1.44-3.79.48-1.08 1.28-2.34 1.76-2.71 1.76-2.17 2.56-2.53 2.24-1.62 3.68-2.17 2.56-1.08 4.16-1.26 2.4-.54 3.52-.18 2.4-.18 5.12.36 2.56.54 2.56.9 2.24 1.08 4.16 2.71 1.76 1.62 2.4 2.89 1.6 1.98 2.24 3.25 1.28 2.34 1.76 3.97.64 2.53.96 5.41.16 2.89.16 3.07zm-99.57-1.79-.17-2.89-.17-4.33-.34-2.89-.51-3.07-.51-2.89-.68-3.97-.68-2.89-.85-2.89-1.01-2.89-.85-2.89-1.01-2.7-1.86-3.97-1.18-2.34-1.52-1.98-1.69-1.8-3.72-3.79-2.03-1.8-2.2-1.98-5.58-4.15-2.37-1.44-2.54-1.44-2.53-1.26-6.09-2.35-2.54-.72-2.7-.54-4.4-.72-2.7-.36-5.41-.36-4.23-.36h-2.7l-2.54.18-7.1.36h-3.04l-1.35-.18-8.11-.54h-2.7l-14.87-.18-2.7.18-2.54.36-2.87.36-1.86.54-.68 1.08-.34 1.98-.51 2.71-.17 2.89v7.04l.51 9.56v2.89l.17 9.56v2.89l-.68 9.56.17 3.07v1.62l.17 3.07.34 4.69v2.89l-.17 3.07-.34 2.71-.17 3.97-.17 2.71.34 9.56v2.89l.17 9.56v2.89l-.17 2.89v2.71l-.17 4.15v2.53l-.34 5.41-.17 1.44.17 2.89.34 1.98.85.9 1.35.72 7.27.72 2.54.18h11.83l2.54.18 2.87-.18 4.23-.18 5.41-.36h2.7l4.4.36 5.41.18h2.7l3.72-.36 2.54-.18 10.31-1.62 2.7-.54 2.7-.72 2.54-.9 3.72-1.44 2.2-1.08 3.38-1.98 2.2-1.44 3.21-2.71 2.2-1.98 3.72-3.97 2.87-2.89 1.69-1.98 2.37-2.89 1.35-2.34 1.86-3.97 1.01-2.71 1.01-3.07 1.01-2.89 1.01-2.71.85-2.89 1.18-4.15.51-2.89.17-4.33.17-3.07-.17-3.07zm-41.26 2-.32 4.33-.32 2.71-.81 4.15-.97 2.71-1.62 3.97-1.45 2.53-2.1 2.89-1.62 1.98-2.59 2.89-1.94 1.62-3.56 2.53-2.26 1.08-3.56.9-2.58.36-4.04.36-2.75-.18-1.04-6.86v-6.21l-.31-5.52.31-7.6v-43.16l1.21-3.89 2.42-.18 5.17.36 2.59.54 2.59.9 2.26 1.08 4.2 2.71 1.78 1.62 2.42 2.89 1.62 1.98 2.26 3.25 1.29 2.34 1.78 3.97.65 2.53.97 5.41.16 2.89.16 3.07v3.07zm-80.95 57.92-1.62-1.98-5.59-6.49-1.8-2.16-6.49-9.02-1.8-2.17-6.49-8.84-1.62-2.16-6.49-9.2-.72-1.44 1.44-.54 2.35-.54 2.34-1.26 2.17-1.26 3.61-1.98 1.98-1.62 2.89-2.89 1.62-1.98 1.62-2.16 1.62-2.34 1.62-2.71 1.26-2.71 1.08-2.71.72-2.89.54-3.07.36-3.07.18-2.89v-2.89l-.36-3.97-.18-2.89-.54-2.89-.9-2.89-1.26-2.71-1.26-2.53-2.16-3.43-1.62-2.34-2.53-3.61-1.8-2.17-1.8-1.8-1.98-1.62-3.43-2.34-2.34-1.44-2.71-1.26-2.89-1.08-2.71-1.08-2.71-.9-3.79-1.08-2.71-.54-3.07-.18h-6.85l-11.91-.72h-2.89l-12.27.72-21.47-.72-8.12-.36-2.71.18-1.44.18-2.16.54-1.08 1.44-.54 2.34-.18 1.08-.18 2.71.36 5.95v2.89l.12 6.25c6.42 2.53 12.46 8.22 12.46 8.22-.49-11.51 2.8-13.62 9.66-11.1s-3.13 12.51-3.13 12.51c9.26 6.08 7.42 9.25 7.42 9.25-2.45-4.68-10.97-6.57-10.97-6.57l-1.93.93c13.11 29.26-12.65 69.47-13.63 70.98l-.54 7.32-.18 2.89-.36 4.69.18 2.7.18 2.53.36 1.8 1.08.72 2.16.36 8.3.54h2.89l8.3-.54 8.66.54h2.89l1.98-.54.9-.9.36-2.16.18-2.89v-2.89l-.18-4.33-.18-2.89-.72-10.1-.18-2.89.36-9.92.54-2.34 1.44-1.08 2.35-.18 5.77.36 2.17.18 1.08.54 1.26 1.44 5.77 7.76 1.62 2.16 5.05 8.3 1.62 2.17 5.77 7.76 1.62 2.16 5.77 8.12 1.44 1.44 1.62.72h2.34l8.12-.36h2.89l9.92.18h12.63l2.34-.72.72-1.62-.9-1.98zm-42.21-76.49-.72 2.89-1.26 2.71-1.8 2.16-2.17 1.26-2.34.9-3.97.72-11.91.72h-2.89l-9.38-.72-2.17-.36-1.26-.54-.36-1.08-.18-1.98.36-9.92-.18-3.07-.36-3.07-.36-2.89-.18-4.15.18-1.98 1.08-1.08 1.26-.54 2.17-.18 9.2-.54h2.89l9.02.18 2.89.36 3.97.9 2.53 1.08 1.98 1.62 1.62 2.16 1.26 2.71.72 2.71.36 3.07.18 3.07-.18 2.89z"/><path d="m239.34 71.99c-3.63-1.9-5.52 4.14-3.8 7.25 0 0 7.42-5.35 3.8-7.25z"/></g></svg>