<svg height="532" width="2500" xmlns="http://www.w3.org/2000/svg" viewBox="4.370678420180237 0.3300000000000072 204.6013773422198 39.5932129330864"><g fill="#fff"><path d="M55.468 27.978h-2.735l-.91-2.912a4.671 4.671 0 0 0-.359-.88 2.716 2.716 0 0 0-.519-.688 2.14 2.14 0 0 0-.726-.448 2.817 2.817 0 0 0-1-.16h-.923v5.088h-2.448V15.194l5.047-.016a4.062 4.062 0 0 1 1.517.28 3.672 3.672 0 0 1 1.214.776 3.562 3.562 0 0 1 .8 1.168 3.662 3.662 0 0 1 .287 1.456 3.438 3.438 0 0 1-.175 1.088 3.671 3.671 0 0 1-.493.976 3.808 3.808 0 0 1-.755.792 3.178 3.178 0 0 1-.962.52 2.439 2.439 0 0 1 .986.648 3.164 3.164 0 0 1 .6 1.016q.111.272.207.544l.2.568.223.64.262.76q.176.528.328.9a4.531 4.531 0 0 0 .334.668zm-3.236-8.944a1.942 1.942 0 0 0-.164-.816 2.031 2.031 0 0 0-.456-.64 2.066 2.066 0 0 0-.68-.424 2.3 2.3 0 0 0-.84-.152h-1.796v3.984h1.792a2.545 2.545 0 0 0 .84-.136 2 2 0 0 0 .68-.392 1.875 1.875 0 0 0 .46-.616 1.888 1.888 0 0 0 .164-.808zm14 4.3q0 .224-.024.464t-.056.5H58.76a3.2 3.2 0 0 0 .36.76 2.533 2.533 0 0 0 .568.624 2.688 2.688 0 0 0 .76.416 2.757 2.757 0 0 0 .936.152 3.794 3.794 0 0 0 1.248-.216 3.058 3.058 0 0 0 1.04-.584l1.456 1.456a6.475 6.475 0 0 1-1.88 1.016 6.309 6.309 0 0 1-1.944.3 4.92 4.92 0 0 1-1.944-.384 4.97 4.97 0 0 1-1.568-1.04 4.855 4.855 0 0 1-1.048-1.544 4.725 4.725 0 0 1-.384-1.9 4.725 4.725 0 0 1 .384-1.9A4.791 4.791 0 0 1 57.8 19.91a5.094 5.094 0 0 1 1.568-1.032 4.822 4.822 0 0 1 1.92-.384 4.975 4.975 0 0 1 1.872.36 5.088 5.088 0 0 1 1.584 1 4.7 4.7 0 0 1 1.088 1.524 4.718 4.718 0 0 1 .4 1.96zm-2.416-.9a2.771 2.771 0 0 0-.968-1.416 2.516 2.516 0 0 0-1.58-.528 2.46 2.46 0 0 0-1.552.536 2.79 2.79 0 0 0-.96 1.416zm10.64 2.944a2.337 2.337 0 0 1-.321 1.224 2.906 2.906 0 0 1-.834.9 3.833 3.833 0 0 1-1.155.544 4.579 4.579 0 0 1-1.267.184 4.78 4.78 0 0 1-1.948-.392 4.053 4.053 0 0 1-1.563-1.252l1.392-1.408a3.116 3.116 0 0 0 .96.824 2.406 2.406 0 0 0 1.168.3 1.843 1.843 0 0 0 .9-.2.646.646 0 0 0 .36-.6.811.811 0 0 0-.512-.7 7.506 7.506 0 0 0-1.44-.552 6.856 6.856 0 0 1-1.056-.408 3.886 3.886 0 0 1-.912-.608 2.886 2.886 0 0 1-.64-.824 2.3 2.3 0 0 1-.24-1.072 2.352 2.352 0 0 1 .32-1.208 2.855 2.855 0 0 1 .818-.9 3.871 3.871 0 0 1 1.143-.552 4.508 4.508 0 0 1 1.3-.192 4.322 4.322 0 0 1 3.464 1.6l-1.377 1.392a3.162 3.162 0 0 0-.912-.784 2.246 2.246 0 0 0-1.12-.288 1.877 1.877 0 0 0-.44.056 1.9 1.9 0 0 0-.432.16.965.965 0 0 0-.328.272.605.605 0 0 0-.128.376q0 .368.488.64a7.238 7.238 0 0 0 1.4.544 6.458 6.458 0 0 1 1.12.448 4.369 4.369 0 0 1 .928.632 2.8 2.8 0 0 1 .632.816 2.244 2.244 0 0 1 .232 1.036zm9.612 2.6h-2.3v-.7a2.418 2.418 0 0 1-.52.392 4.15 4.15 0 0 1-.624.288 4.175 4.175 0 0 1-.672.184 3.551 3.551 0 0 1-.648.064 4.109 4.109 0 0 1-1.352-.228 3.173 3.173 0 0 1-1.144-.688 3.3 3.3 0 0 1-.792-1.2 4.663 4.663 0 0 1-.3-1.744V18.73h2.3v5.5a2.315 2.315 0 0 0 .152.872 1.849 1.849 0 0 0 .4.624 1.567 1.567 0 0 0 .576.368 1.964 1.964 0 0 0 .68.12 2.729 2.729 0 0 0 1.944-.764v-6.72h2.3zm15.62 0h-2.3v-5.52a2.09 2.09 0 0 0-.476-1.48 1.527 1.527 0 0 0-1.16-.5 2.96 2.96 0 0 0-1 .168 2.933 2.933 0 0 0-.92.552 5.085 5.085 0 0 1 .144 1.264v5.516h-2.308v-5.52a2.09 2.09 0 0 0-.468-1.48 1.51 1.51 0 0 0-1.144-.5 2.2 2.2 0 0 0-.928.184 3.264 3.264 0 0 0-.832.584v6.732h-2.3V18.73h2.3v.688a3.445 3.445 0 0 1 1.017-.672 2.948 2.948 0 0 1 1.193-.256 3.3 3.3 0 0 1 1.354.3 3.487 3.487 0 0 1 1.193.88 4.639 4.639 0 0 1 1.458-.912 4.639 4.639 0 0 1 1.618-.272 4.308 4.308 0 0 1 1.37.216 2.894 2.894 0 0 1 1.129.688 3.419 3.419 0 0 1 .769 1.2 4.759 4.759 0 0 1 .288 1.752zm11.3-4.64q0 .224-.024.464t-.056.5h-7.396a3.2 3.2 0 0 0 .36.76 2.533 2.533 0 0 0 .568.624 2.689 2.689 0 0 0 .76.416 2.757 2.757 0 0 0 .936.152 3.794 3.794 0 0 0 1.248-.216 3.058 3.058 0 0 0 1.04-.584l1.456 1.456a6.475 6.475 0 0 1-1.88 1.016 6.309 6.309 0 0 1-1.944.3 4.92 4.92 0 0 1-1.944-.384 4.97 4.97 0 0 1-1.568-1.04 4.855 4.855 0 0 1-1.048-1.544 4.725 4.725 0 0 1-.384-1.9 4.725 4.725 0 0 1 .384-1.9 4.791 4.791 0 0 1 1.056-1.544 5.094 5.094 0 0 1 1.568-1.036 4.822 4.822 0 0 1 1.92-.384 4.975 4.975 0 0 1 1.872.36 5.088 5.088 0 0 1 1.584 1 4.7 4.7 0 0 1 1.088 1.524 4.718 4.718 0 0 1 .4 1.96zm-2.42-.896a2.771 2.771 0 0 0-.968-1.416 2.516 2.516 0 0 0-1.576-.536 2.46 2.46 0 0 0-1.552.536 2.79 2.79 0 0 0-.96 1.416zm20.528-7.264l-4.16 12.8h-2.176l-2.352-7.9-2.368 7.9h-2.172l-4.16-12.8h2.62l2.7 8.272 2.34-8.272h2.048l2.336 8.288 2.736-8.288zm7.68 4.512l-1.232 1.952a4.3 4.3 0 0 0-.744-.648 1.445 1.445 0 0 0-.824-.28 1.34 1.34 0 0 0-.488.1 1.415 1.415 0 0 0-.5.344 1.967 1.967 0 0 0-.392.632 2.57 2.57 0 0 0-.16.968v5.22h-2.3V18.73h2.3v.992a3.313 3.313 0 0 1 .92-.912 2.06 2.06 0 0 1 1.128-.32 2.408 2.408 0 0 1 1.192.328 4.609 4.609 0 0 1 1.1.872zm3.216-2.576h-2.4v-2.4h2.4zm-.032 10.864h-2.336v-9.264h2.336zm7.264-.208a2.678 2.678 0 0 1-.816.336 3.943 3.943 0 0 1-.928.112 4.121 4.121 0 0 1-1.376-.2 1.975 1.975 0 0 1-.9-.616 2.618 2.618 0 0 1-.488-1.056 6.567 6.567 0 0 1-.148-1.504v-4.048h-1.216v-1.04a4.309 4.309 0 0 0 1.816-1.376 5.382 5.382 0 0 0 .952-2.368h.752v2.7h2.336v2.08h-2.34v4.208a1.6 1.6 0 0 0 .088.576.9.9 0 0 0 .232.352.786.786 0 0 0 .328.176 1.548 1.548 0 0 0 .392.048 2.775 2.775 0 0 0 .656-.1 1.642 1.642 0 0 0 .656-.32zm10.912-4.432q0 .224-.024.464t-.056.5h-7.388a3.2 3.2 0 0 0 .36.76 2.533 2.533 0 0 0 .568.624 2.689 2.689 0 0 0 .76.416 2.757 2.757 0 0 0 .936.152 3.794 3.794 0 0 0 1.248-.216 3.058 3.058 0 0 0 1.04-.584l1.456 1.456a6.475 6.475 0 0 1-1.88 1.016 6.309 6.309 0 0 1-1.944.3 4.92 4.92 0 0 1-1.944-.392 4.97 4.97 0 0 1-1.568-1.04 4.855 4.855 0 0 1-1.048-1.544 4.725 4.725 0 0 1-.384-1.9 4.725 4.725 0 0 1 .384-1.9 4.791 4.791 0 0 1 1.056-1.544 5.094 5.094 0 0 1 1.56-1.028 4.822 4.822 0 0 1 1.92-.384 4.975 4.975 0 0 1 1.872.36 5.088 5.088 0 0 1 1.584 1 4.7 4.7 0 0 1 1.092 1.524 4.718 4.718 0 0 1 .4 1.96zm-2.416-.9a2.771 2.771 0 0 0-.968-1.416 2.516 2.516 0 0 0-1.576-.536 2.46 2.46 0 0 0-1.552.536 2.79 2.79 0 0 0-.96 1.416zm10.5-2.752l-1.232 1.952a4.3 4.3 0 0 0-.744-.648 1.445 1.445 0 0 0-.824-.28 1.34 1.34 0 0 0-.488.1 1.415 1.415 0 0 0-.5.344 1.967 1.967 0 0 0-.392.632 2.57 2.57 0 0 0-.16.968v5.224h-2.3V18.73h2.3v.992a3.313 3.313 0 0 1 .92-.912 2.06 2.06 0 0 1 1.128-.32 2.408 2.408 0 0 1 1.192.328 4.609 4.609 0 0 1 1.096.872zm7.6 5.7a2.337 2.337 0 0 1-.321 1.224 2.906 2.906 0 0 1-.834.9 3.833 3.833 0 0 1-1.155.544 4.579 4.579 0 0 1-1.267.184 4.78 4.78 0 0 1-1.949-.392 4.053 4.053 0 0 1-1.563-1.256l1.389-1.412a3.116 3.116 0 0 0 .96.824 2.406 2.406 0 0 0 1.168.3 1.843 1.843 0 0 0 .9-.2.646.646 0 0 0 .36-.6.811.811 0 0 0-.512-.7 7.506 7.506 0 0 0-1.44-.552 6.856 6.856 0 0 1-1.056-.408 3.886 3.886 0 0 1-.912-.608 2.886 2.886 0 0 1-.64-.824 2.3 2.3 0 0 1-.24-1.072 2.352 2.352 0 0 1 .313-1.208 2.855 2.855 0 0 1 .818-.9 3.871 3.871 0 0 1 1.147-.552 4.508 4.508 0 0 1 1.3-.192 4.322 4.322 0 0 1 3.464 1.6l-1.374 1.392a3.162 3.162 0 0 0-.912-.784 2.246 2.246 0 0 0-1.12-.288 1.877 1.877 0 0 0-.44.056 1.9 1.9 0 0 0-.432.16.965.965 0 0 0-.328.272.605.605 0 0 0-.128.376q0 .368.488.64a7.238 7.238 0 0 0 1.4.544 6.457 6.457 0 0 1 1.12.448 4.369 4.369 0 0 1 .928.632 2.8 2.8 0 0 1 .632.816 2.244 2.244 0 0 1 .232 1.036zM179.448 26.818a1.076 1.076 0 0 0-1.1-1.06 1.089 1.089 0 0 0-1.1 1.06 1.106 1.106 0 0 0 1.1 1.08 1.093 1.093 0 0 0 1.1-1.08zm17.74-4.38a.385.385 0 0 0-.38-.4c-.16 0-.26.12-.34.26-.04.08-1.54 2.8-2.52 2.8-.54 0-.72-.44-.72-1.08a15.5 15.5 0 0 1 1.2-4.4c0-.96-.46-1.66-1.48-1.66-.5 0-3.18 4.2-4.04 6.48.22-2.16 1.66-4.62 1.66-4.88v-.1a1.368 1.368 0 0 0-1.44-1.5c-.54 0-3.6 4.58-4.6 6.44.26-.58 1.88-4.56 1.88-4.56a2.476 2.476 0 0 0 .06-.54c0-.56-.22-1.34-1.56-1.34 0 .48-1.94 4.78-2.24 5.56a7.177 7.177 0 0 0-.48 2.34 1.864 1.864 0 0 0 2.06 2.12c.04-1.02 2.3-6.1 4.66-8.86-.36.8-2.36 4.38-2.36 6.74a1.887 1.887 0 0 0 2.14 2.12c.02-1.58 2.8-7.48 4.04-8.72a17.035 17.035 0 0 0-1.98 6.44c0 1.32.5 2.28 1.94 2.28 1.96 0 4.46-5.32 4.48-5.36a1.551 1.551 0 0 0 .02-.18zm11.4-.52c-.16 0-.26.08-.36.26-.08.14-2.62 5.64-5.06 7.1 0 0 3.4-8.74 3.8-9.78a1.174 1.174 0 0 0 .1-.5c0-.9-1.16-1.18-1.82-1.18a43.483 43.483 0 0 1-1.52 4.22c-.78 1.42-2.34 4.16-3.14 4.16-.4 0-.56-.32-.56-.82 0-1.72 1.84-5.56 1.92-5.86a2.242 2.242 0 0 0 .06-.48c0-.94-.78-1.08-1.44-1.08 0 .3-2.66 5.04-2.66 7.9 0 1.24.5 2.12 1.94 2.12.64 0 1.46-.74 2.22-1.72-.44 1.16-.9 2.34-1.34 3.5-5.16 0-7.28 2.64-7.28 4.74a2.435 2.435 0 0 0 2.52 2.56c4.6 0 6.64-6.24 6.64-6.24a5.518 5.518 0 0 0 1.44-.9c2.56-2.12 4.82-7.3 4.88-7.44a.583.583 0 0 0 .04-.16.385.385 0 0 0-.38-.4zm-11.84 13.14c-.78 0-1.14-.38-1.14-.92 0-1.2 1.84-3.16 4.72-3.16 0 0-1.64 4.08-3.58 4.08zM8.657 30.88c1.036.094 2.022.184 3.008.27q.905.08 1.81.149a.548.548 0 0 1 .346.149 11.363 11.363 0 0 0 4.163 2.424 11.529 11.529 0 0 0 6.196.307 11.326 11.326 0 0 0 4.574-2.138 11.3 11.3 0 0 0 3.115-3.71 11.653 11.653 0 0 0 1.384-5.933 11.36 11.36 0 0 0-1.622-5.503 8.857 8.857 0 0 0-1.737-2.245 1.358 1.358 0 0 1-.475-1.488c.24-1.267.42-2.546.625-3.82.047-.294.114-.585.143-.88.025-.248.12-.261.304-.146a17.729 17.729 0 0 1 2.03 1.457 16.9 16.9 0 0 1 3.324 3.75 16.95 16.95 0 0 1 2.181 4.858 16.7 16.7 0 0 1 .443 6.754 17.261 17.261 0 0 1-1.434 4.86 17.021 17.021 0 0 1-3.13 4.605 16.934 16.934 0 0 1-3.583 2.838 17.234 17.234 0 0 1-3.975 1.717 16.642 16.642 0 0 1-5.797.638 16.6 16.6 0 0 1-5.593-1.33 16.59 16.59 0 0 1-4.89-3.175 16.909 16.909 0 0 1-4.535-6.982 16.949 16.949 0 0 1-.655-8.482 16.586 16.586 0 0 1 1.7-4.934 16.665 16.665 0 0 1 4.498-5.405A17.394 17.394 0 0 1 15.37 7.03a17.05 17.05 0 0 1 5.644-1.206 18.081 18.081 0 0 1 2.586.103c.215.022.274.077.159.281q-1.045 1.872-2.08 3.75c-.178.322-.359.642-.52.971a.515.515 0 0 1-.48.32 11.307 11.307 0 0 0-6.3 2.483 11.361 11.361 0 0 0-3.624 4.993 11.844 11.844 0 0 0-.743 4.873 10.869 10.869 0 0 0 .748 3.359.764.764 0 0 1-.08.793c-.63.928-1.23 1.876-1.841 2.817-.056.087-.101.174-.183.314z"/></g><path d="M28.994 1.425c1.005.346 2.009.698 3.017 1.032a.336.336 0 0 1 .264.303c.058.352.241.73.164 1.045s-.486.49-.752.722q-1.494 1.283-3.003 2.561a.645.645 0 0 0-.201.445q-.33 2.042-.655 4.085l-.964 6.053c-.319 1.998-.644 3.995-.95 5.995a.742.742 0 0 1-.467.637c-1.658.79-3.302 1.604-4.956 2.413-.178.087-.267.11-.374-.112q-1.202-2.51-2.442-5.003a.665.665 0 0 1 .018-.708q1.209-2.136 2.393-4.286c.974-1.763 1.94-3.531 2.911-5.296q1.313-2.384 2.636-4.764a.76.76 0 0 0 .088-.564c-.314-1.5-.61-3.005-.926-4.504a.422.422 0 0 1 .174-.506 2.865 2.865 0 0 0 .498-.423c.196-.22.378-.217.648-.116.95.353 1.913.669 2.871.999z" fill="#f9ca00"/></svg>