<svg xmlns="http://www.w3.org/2000/svg" width="2250" height="2500" viewBox="-8.132 235.95599999999996 507.264 563.627"><g fill="none" stroke-linecap="none" stroke-linejoin="none" stroke-miterlimit="10" font-family="none" font-weight="none" font-size="none" text-anchor="none" style="mix-blend-mode:normal"><path d="M498.509 311.62c.414 8.823.623 17.7.623 26.63 0 186.226-91.037 350.128-228.934 445.325a503.905 503.905 0 0 1-24.698 16.008 503.866 503.866 0 0 1-24.698-16.008C82.905 688.378-8.132 524.476-8.132 338.25c0-8.93.21-17.807.623-26.63a444.4 444.4 0 0 0 25.433-.726c73.145-4.091 141.962-25.308 202.878-59.901a476.376 476.376 0 0 0 24.698-15.037 476.367 476.367 0 0 0 24.698 15.037c60.916 34.593 129.733 55.81 202.878 59.901 8.422.471 16.902.716 25.433.727z" fill="#fff" stroke-opacity="0" stroke="#000" stroke-linecap="round" stroke-linejoin="round"/><path d="M488.15 320.061c.397 8.46.597 16.976.597 25.54 0 178.6-87.309 335.792-219.56 427.092a483.282 483.282 0 0 1-23.687 15.352 483.227 483.227 0 0 1-23.687-15.352C89.562 681.393 2.253 524.202 2.253 345.6c0-8.564.2-17.078.597-25.539 8.384 0 16.118-.234 24.391-.697 70.151-3.924 136.15-24.272 194.572-57.448a456.871 456.871 0 0 0 23.687-14.421 456.87 456.87 0 0 0 23.687 14.42c58.422 33.177 124.42 53.525 194.572 57.45 8.077.451 16.209.685 24.39.696z" fill="#000" stroke-opacity="0" stroke="#000" stroke-linecap="round" stroke-linejoin="round"/><path d="M464.423 345.6c0 174.284-87.515 327.107-218.923 412.672C114.092 672.707 26.577 519.884 26.577 345.6c79.484-4.109 153.953-28.873 218.923-68.332 64.97 39.459 139.439 64.223 218.923 68.332z" fill="#000" stroke-opacity="0" stroke="#000" stroke-linecap="round" stroke-linejoin="round"/><path d="M335.138 319.304c40.948 14.521 84.314 23.49 129.285 25.823 0 131.182-49.23 250.248-129.285 337.808zM155.862 682.935C75.807 595.375 26.577 476.31 26.577 345.127c44.971-2.333 88.337-11.302 129.285-25.823zm71.71-395.967v459.971a467.314 467.314 0 0 1-35.855-28.718v-413.31a484.014 484.014 0 0 0 35.855-17.943zm35.856 0a484.014 484.014 0 0 0 35.855 17.943v413.31a467.316 467.316 0 0 1-35.855 28.718z" fill="#bf0628" stroke-opacity="0" stroke="#000" stroke-linecap="round" stroke-linejoin="round"/><path d="M35.333 440.083h420.334a500.218 500.218 0 0 1-21.18 77.687H56.513a500.215 500.215 0 0 1-21.18-77.687z" fill="#000" stroke="#000" stroke-linecap="round" stroke-linejoin="round"/><path d="M35.333 440.083c-5.744-30.56-8.756-62.152-8.756-94.483 79.484-4.109 153.953-28.873 218.923-68.332 64.97 39.459 139.439 64.223 218.923 68.332 0 32.33-3.012 63.922-8.756 94.483z" fill="#fff" stroke="#000" stroke-linecap="round" stroke-linejoin="round"/><path d="M191.717 496.695v7.522h-15.802l-14.077-22.979h-11.869v15.457h8.35v7.522h-25.325v-7.522h8.419v-35.4h-8.419v-7.52h32.018c3.496 0 6.464.402 8.902 1.207 2.438.805 4.405 1.84 5.9 3.105s2.576 2.691 3.243 4.278c.667 1.587 1 3.14 1 4.658 0 3.404-1.138 6.245-3.415 8.522s-5.578 3.899-9.902 4.865l10.005 16.285z" fill="#f2f2f2" stroke="#fff" stroke-linecap="butt" stroke-linejoin="miter"/><path d="M149.59 461.089v12.42h13.87s.299-.01.897-.034a18.326 18.326 0 0 0 2.173-.241 34.133 34.133 0 0 0 2.795-.587 10.341 10.341 0 0 0 2.795-1.139 7.626 7.626 0 0 0 2.139-1.863c.575-.736.862-1.656.862-2.76 0-.184-.023-.471-.069-.862-.046-.391-.207-.817-.483-1.277-.276-.46-.724-.932-1.345-1.415s-1.484-.908-2.588-1.276a16.429 16.429 0 0 0-4.071-.828c-1.334-.092-2.231-.138-2.691-.138h-.345z" fill="#000" stroke="#fff" stroke-linecap="butt" stroke-linejoin="miter"/><path d="M218.105 453.636h54.79v14.905h-7.798v-7.314H235.77v13.387h21.323v7.521H235.77v14.56h8.971v7.522h-26.636v-7.522h8.764v-35.468h-8.764zM356.626 467.48h-7.867v-7.27H316.81v35.594h31.95v-7.41h7.866v14.958h-57.343v-7.548h8.626v-35.595h-8.626v-7.617h57.343z" fill="#f2f2f2" stroke="#fff" stroke-linecap="butt" stroke-linejoin="miter"/><path d="M155.216 396.43l22.559 18.256-10.392-27.096 24.334-15.813-28.981 1.51-7.52-28.03-7.52 28.03-28.98-1.51 24.333 15.813-10.392 27.096zM245.5 390.83l29.478 23.856-13.579-35.408 31.798-20.663-37.87 1.973-9.827-36.627-9.826 36.627-37.87-1.973 31.797 20.663-13.58 35.408zM335.784 396.43l22.559 18.256-10.392-27.096 24.334-15.813-28.981 1.51-7.52-28.03-7.52 28.03-28.981-1.51 24.334 15.813-10.392 27.096z" fill="#000" stroke-opacity="0" stroke="#000" stroke-linecap="round" stroke-linejoin="round"/></g></svg>