<svg height="2500" viewBox="158 181 488 416" width="2500" xmlns="http://www.w3.org/2000/svg"><path d="m415 181 32 1 9 3 10 6 7 7 8 7 44 44 7 10 4 11v86l-4 11-6 9-60 60-10 6-14 3h-83l-12-3-10-6-8-8-6-5-7-8-23-23-6-5-14-16-5-10-2-12v-72l2-11 6-12 12-13 49-49 11-7 9-3zm-56 19-7 3-11 9-50 50-4 6-2 6v80l4 8 59 59 9 5 5 1h73l13-2 7-4 58-58 4-8 1-6v-75l-4-9-59-59-8-5-4-1z" fill="#092957"/><path d="m337 237h129l8 4 8 9 3 9v5h-49l2 11v17l-3 12-6 10-9 8-10 4 8 15 16 29 10 18v2h-34l-15-28-13-25-4-6h-35l-1 60-11-3-9-6-6-8-4-9v-100l4-11 8-10 10-6zm6 27-1 5v33l1 1h46l9-2 7-6 2-5v-13l-4-8-3-2h-6l-7 8-1 4v9l3 8h-31l-3-1v-21l1-9-1-1z" fill="#072755"/><path d="m441 301h17l14 3 10 7 5 6 4 10 1 5v23l-5 16-9 10-7 4-13 4h-7l-6-10-8-14v-3l14-2 5-3 3-7v-11l-3-6-4-3-4-1-18-1-7-1 12-12 4-8z" fill="#ff1815"/><path d="m158 480h24l17 1 8 4 4 6v20l-3 4-5 2 8 8 1 6v14l-1 1h-17l-1-1-1-17-16-1v18l-1 1h-16l-1-1zm18 15v16l2 1h12l3-2v-14l-2-1z" fill="#0a2957"/><path d="m470 479h21l10 4 7 7 2 4v6h-18l-4-4h-18l-1 5v25l3 4 4 1h8l7-2 1-5-9-2-1-1v-9l1-2h27v17l-3 10-4 6-7 3-6 1h-22l-7-2-5-4-4-8-2-9v-23l4-11 4-5z" fill="#0b2a58"/><path d="m524 480h16l1 1v24h23v-24l4-1h13l1 1v65h-17l-1-1-1-24-22-1v26h-17l-1-1v-64z" fill="#092857"/><path d="m226 480h49l1 1v14h-32v12l26-1 5 1v12h-31v12h32l1 2v12l-1 1h-50z" fill="#0a2957"/><path d="m286 480h18l3 8 7 29 3 11 2 1 1-10 9-32 2-6 5-1h13l-1 8-15 53-3 5h-26l-3-8-13-47z" fill="#092957"/><path d="m594 480h51l1 1v13l-2 1h-15v50l-1 1h-16l-1-1v-50h-17l-1-5z" fill="#0b2a58"/><path d="m361 480 17 1 1 2v47l29 1v15h-47l-1-1v-53z" fill="#0d2c5a"/><path d="m408 237h58l8 4 8 9 3 9v5h-49l-5-9-6-7-10-6-7-4z" fill="#ff1815"/><path d="m419 480h17l1 65-1 1h-17l-1-1v-48z" fill="#0e2d5a"/><path d="m358 264h26l8 2 1 3-5 6-1 4v9l2 5v3l-8 1h-23l-4-2v-21l2-9z" fill="#ff1815"/><path d="m415 562h17l5 3 2 2v9l-4 6 1 6 4 6v2l-4 1-5-5-4-7-5-1-1 12-3 1-3-1-1-13zm7 4-2 4 1 7 1 1h9l2-4-1-6-4-2z" fill="#fe1815"/><path d="m397 561 3 1 1 5v14l-2 10-5 5-3 1h-9l-4-2-4-8v-23l2-2 5 1v21l2 6 1 1h6l3-4 1-24z" fill="#fe1e1b"/><path d="m305 562h21l1 2-1 3h-15v9h11l2 1-1 4h-12v10h15l1 4-1 1-13 1-8-1-1-4v-24z" fill="#ff1815"/><path d="m278 561 12 2 1 5-14-1-1 5 4 3 8 3 5 6-1 7-5 5-3 1h-8l-5-2-3-3v-4l4 1 5 2h7l1-6-12-6-4-5v-6l3-5z" fill="#fe1916"/><path d="m346 562h13l4 4-1 3-5-1h-8l-4 4-1 3v7l3 7 3 2h6l5-3h2l-1 6-5 3h-10l-8-7-2-6v-10l4-8z" fill="#ff1815"/><path d="m493 561 3 2-1 4-9 1v27l-1 1h-5l-1-5v-24h-8l-1-4 1-1z" fill="#fb1b18"/><path d="m503 561 5 1 6 12v2l3-3 6-11 5-1-1 5-7 15-2 15-4 1-2-3-2-13-7-17zm-49 0 4 1v34l-4 1-2-1v-34z" fill="#ff1815"/></svg>