<svg height="464pt" viewBox="0 -3.099999999999909 4098.2 470.2999999999999" width="4096pt" xmlns="http://www.w3.org/2000/svg"><path d="M0 232v232h72V258h35.9c39.3 0 44.9.5 58.3 5.7 9.3 3.7 17.7 9.2 24.8 16.3 3.9 4 22.4 31.4 63.5 94.4 31.8 48.8 58.4 89 59 89.2.5.2 19.3.3 41.7.2l40.6-.3-68.3-104c-54.3-82.8-67.9-104.1-66.6-104.6.9-.4 6.1-2.1 11.6-3.8 12.7-4 27.4-11.1 39.5-19.1 11.4-7.5 30.5-26.2 37.2-36.5 24-36.6 27.4-78 9.4-116.1-6.5-13.7-13.8-23.7-26-36C308.1 18.9 278.5 5.2 241.5 1c-5.5-.6-54.1-1-125.2-1H0zM242.2 66.5c34.1 7.2 57.8 35.9 55.4 66.9-2.3 28.5-24.5 51.6-55.8 58-6.7 1.4-18.7 1.6-88.8 1.6H72V65h81.8c66.6 0 82.9.3 88.4 1.5zM507 232v232h73V0h-73zM905.3 1.2c-.7 1-212.5 457.7-214.1 462-.2.4 17.4.7 39.2.6l39.6-.3 23.5-51 23.4-51h214.3l23.2 51 23.1 51 39.7.3 39.7.2-3.4-7.2c-1.9-4-50.2-108.3-107.4-231.8L942.2.5l-18-.3c-13.6-.2-18.2.1-18.9 1zm57.6 210.1c21.1 46.1 38.1 84 37.9 84.2s-35.1.5-77.6.7c-68.3.3-77.2.1-76.7-1.2 3.1-8.2 77.1-168.7 77.6-168.2.3.4 17.8 38.4 38.8 84.5zM1417.4 1c-61 4.8-113.2 29.5-154.7 73-39.7 41.7-60.9 91.6-63.4 149-3.4 79.8 36.3 156.1 104.7 201.3 28.4 18.7 63.1 31.8 99 37.3 14.3 2.2 49.9 2.5 64 .6 42.4-6 77.9-20.5 112.1-45.8 15-11.2 34-27.5 33.8-29.2-.1-.8-49.5-43.5-51-44-.5-.2-4.2 2.6-8.2 6.3-25.6 23.8-56.7 40.3-88.7 47.2-6.8 1.4-12.8 1.8-30 1.8-20-.1-22.3-.3-33.5-2.9-20.9-4.9-38.3-12.2-55-23-43.5-28.3-72.2-77.5-75.3-128.7-2.4-39.3 6.9-74.4 27.6-105.5 24.8-37 63.3-62.2 108.7-71.1 13.8-2.7 45.6-2.4 58.8.5 20.9 4.6 42.7 13.7 61.2 25.6 7.5 4.8 21.1 15.3 31.5 24.4l4.5 4 24.4-22.3c13.5-12.2 24.6-22.6 24.8-23.1.7-2.1-27.3-25-45.3-37-42.2-28.2-97.9-42.5-150-38.4zM1725 232v232h72V252h236v212h73V0h-73v188h-236V0h-72zM2227.3 161.7c.3 160.2.3 161.9 2.4 170.8 5 21.7 11.5 36.1 23.3 51.7 29.4 39.1 71.7 65.3 121.2 75.3 38.3 7.7 76.6 5.3 113.8-7.1 66.5-22.1 111.8-71.6 118.9-129.9.8-6.2 1.1-58 1.1-165.8V0h-72l-.2 158.2-.3 158.3-2.2 7.6c-7.5 26.3-28.8 48.9-57.9 61.4-44.8 19.3-102.8 13.6-139.5-13.7-17-12.7-28.3-28.2-34.1-47l-2.3-7.3-.3-158.8L2299 0h-72.1zM2729 232v232h350v-65h-278l.2-73.3.3-73.2 128.8-.3 128.7-.2v-64h-258V65h278V0h-350zM3200.3 174.7c.3 159.5.5 175.5 2 182.3 11.2 49.4 49 87.6 100.9 101.5 20 5.4 23 5.5 139.4 5.5H3550v-65h-108.2c-120.5 0-115.6.2-130.3-6.9-15.2-7.3-26-17.5-32.4-30.6-6.5-13.1-6.1-.9-6.1-189.7V0h-73.1zM3844 .7C3785.1 4 3730.5 28.4 3689 70c-79 79-91.2 195.6-29.9 287 38.3 57.1 97.6 94.5 165.8 104.7 16.4 2.4 50.3 2.4 66.6-.1 52.7-8 99.8-32.3 137-70.7 44.9-46.4 69.7-108.3 67.2-167.4-2.6-58.4-28.4-113.6-73.1-156.2C3974.3 21.2 3909.2-3 3844 .7zm36.9 65.8c46.8 6.9 87.9 32.7 114.3 72 25 37.2 34.2 84.5 24.7 128-14.6 67.5-68.1 119.2-135.3 130.7-16.1 2.7-44.8 2.2-60-1.1-59.7-12.9-106.3-54.9-124.9-112.6-13.4-41.5-10-88.1 9.1-126.1 26-51.6 73.6-84.8 131.7-91.7 8.3-1 30.9-.5 40.4.8z"/></svg>