<svg height="300" viewBox=".04 .04 2000 240.4" width="2500" xmlns="http://www.w3.org/2000/svg"><path d="m138.84 131.44c29.8-9.3 49.8-33.9 49.8-61.4 0-35.8-32.6-64.9-72.6-64.9h-116v230h38.7v-90.8h28.1c24 0 31.5.8 44 18.2l47.4 72.7h44.7l-67.2-102.6zm-100.2-22.2v-69.1h78.2c18.7 0 33.1 18.6 33.1 34.5 0 19.8-17.9 34.5-33.9 34.5 0 .1-77.4.1-77.4.1zm415.7-104-106.2 229.9h41.4l23.1-50.3 103.8-.2 22.8 50.4h41.4l-106.3-229.9zm-26.2 144.6 35.4-77.5h1.8l35.3 77.4zm214.9-29.9c0-45.9 37.2-83.2 82.9-83.2 21.7 0 44.1 10.2 62.9 28.6l1.3 1.3 28.6-26-1.5-1.4c-15.2-14.1-29.3-23.8-43-29.5-15.9-6.4-32.6-9.7-48.2-9.7-17 0-32.9 3.1-48.7 9.4-15 6.3-28.5 15.4-39 26.4-22.8 22.3-35.3 52.2-35.3 84.2s12.5 61.9 35.2 84.1c10.6 11 23.8 19.9 39.3 26.6 15.9 6.5 31.8 9.7 48.6 9.7 16.5 0 33.2-3.4 48.4-9.7 14.3-6.4 28.7-16.4 42.9-29.9l1.5-1.5-29.9-25.6-1.3 1.3c-18.1 18.2-40.7 28.6-62 28.6-45.6-.1-82.7-37.6-82.7-83.7zm268.2 19.5h110.3l-.1 95.7h39.5v-230h-39.5l.1 99.2h-110.3l-.1-99.2h-39.4v230h39.4zm250.6 21.7v-156h-39.4v156c0 10.9 6.7 79.1 94.8 79.1s94.4-68.3 94.4-79.1v-156h-39.6v156c0 24.1-23.7 43.7-55 43.7-31.3.1-55.2-19.5-55.2-43.7zm249.8-121h114.7v-35h-153.3v230h153.4v-35h-114.7v-60.7h104.9v-35h-104.9v-64.3zm551.9-4.1c-23.6-23.2-54.4-36-86.7-36-33.9 0-65.3 13.2-88.6 37.2-21.9 22.5-34.5 52.7-34.5 82.8 0 65.3 56.4 120.3 123.1 120.3 33.4 0 64.7-13.4 88.3-37.8 22.1-22.9 34.8-53 34.8-82.5.1-30.7-13.2-61.3-36.4-84zm-86.6 167.6c-45.8 0-83-37.5-83-83.7 0-45.9 37.2-83.3 83-83.3 45.5 0 82.6 37.4 82.6 83.3 0 46.2-37.1 83.7-82.6 83.7zm-1621-198.5h39.5v230h-39.5zm1370.8 165.1v-165.1h-39.5v165c0 35.8 32.2 64.8 71.8 64.8h81.9v-35h-81.9c-18.2.2-32.3-13.2-32.3-29.7z" fill="#27211f"/></svg>