<svg height="720" viewBox="0 0 792 228" width="2500" xmlns="http://www.w3.org/2000/svg"><g stroke="#000"><path d="m0 0h791.5l.5.5v227.5h-791.5l-.5-.5zm56 48v1h64zm69 0-2 3 3-2zm36 0v1h31zm33 0-2 2 1 1 2-1zm6 0v1h56zm60 0-2 2v1h-59l1 1h59l1-2zm40 0q-2 3 1 2zm5 0v1h88zm130 0v1h3zm91 0-1 2 2-1zm-477 1 1 2q3 1 2-1h-1zm104 0v2l2-1zm244 0-1 2 7 2 2-1zm8 0v2l3 1-1-1q1-3-2-2zm4 0v1h23zm104 0v2l2-1zm7 0 2 2h1zm-81 1 1 2q1-3-1-2zm-384 1-1 2 2 1zm2 0v1h63zm104 0v1h31zm33 0-2 2h2zm67 0-2 3-1 1h-57q-2-2-3 1l1 1 1 115 1-1h56q2 1 0 3l1 1q4-2 1-3l2-1 5-1-1 2 1 1 3-2-2-1 7-2h2v-2l3-1v2h2l-1-2 3-1 3 1v-2h-2l6-5h2l-1-1 11-14q2-1 1 2v2l-2 5h2v17l-1 1 1 2 2-1h87l2 1h4v-28l-2-1v-1h-1v1h-53l-2-3 1-3-1-1v-8h2l-2-1 2-1 3-1h42l2 2 2-5-1-2v-18h2l-2-1 1-2-1-1h-2l-1-2-1 2h-41l-1-1-4 1v-10l2-1 2-3-3 2-1-2 3-1 2 1h49l5-1-1-1v-25l1-1-1-2-3 1q-3-1-1-2v-2l-2 4h-87l-1-1q-3 1-1 3v15h-3l1 2 2-1-1 2 1 3v2q1 3-1 4v-5h-4v-1q-4-2-1-3l-3-2q1-3-1-2l-4-5-10-6v-4l-2 3-1-1q-2 1-3-2l-1 1-8-1q-2-3-4-1l1-2zm36 0 1 2q1-3-1-2zm8 0v1h87zm127 0q-1 3 3 2 1-3-3-2zm4 0-1 3 3 1v-3zm-40 1v2l2-1zm123 0v1h2zm-218 1v2l2-1zm101 0-1 116-1 2v2l3 1-1-1 1-2v2l3-2 1 2 2-2h18l1 3 2-3v2h1q-1-3 2-2h2l2 3q-1 3 2 2v-2l-4-5q-2 2-3 0l2-3-2-1 2-1 5 7 2-1 5 3 2-1q2 3 8 2h2l2-1 5 1 6-3-1 2 1 1 5-2-4-1 8-5h2q-1-3 2-2l-1-1 7-9 1-6h2v-2l2 1-1 2 1 3-1 2 1 5-2 1h2v9l-1 1 2 2 1-1h31q1 2 2 0l-1-3 1-40 1 40v-42h-2l1-6 1-3 2 1q2-1 0-2-1-3 2-2l-1-1 4-2q4-1 6 1h2q-1 3 2 2l2 4-2-2-3 4 3-2 2 2h-3l2 3v-1l2 1-1 3v44l1 2 2-1h31v-43h3l-3-2 2-7 3-5q2 1 1-2l5-1 6 1 4 5v4l1 3v46l-1 2v1l4-2h15l1 1 3-1-1 2q-1 2 2 1l3-4 4 3v-2h32v2l-2 1h5l-1-3 3 1 2-1 1-2-3-1 1-2 5 1v-2l-4-1 3-2-1-1 4-8h2l-1-2 2-1 1 4h-2q-1 2 2 1l1 3 2-1v3l1 3-1 4 2-1 3 2-2 1h2v4q-4-2-3 2v1q2 1 1-2l3 1v-3l3-1h32l2 1q1-3 3 1l1-1-1-1v-1l-7-9v-2l1-2-2 1-4-6q1-3-2-2l-4-6 2-1h2v-6l-2 4-1-2q-3 1-1 3l-2-1 1-2h-1l-2-2-2-2 1-4h-3q1-4-2-3-1-3 2-2l1 1-1-2 4-7h2v-1l-1-1 3-3q-1-3 2-2v-2l4-2q2 1 1-1l1-2q-3 1-2-1 2-4 4-2l-1-2 3-5 4-3 1-3q-1-3-2-1l-3-1h-32l-3 3q1 2-2 1l1 3-1-1-1 2v2l-2 4-1-1-1 2v2l-1 2q-4 1-2-3h-2l1-6-2 1-5-7v-3l-2-1h-32l-1 1-3-1-4 2h2l2 4h-2q-1 2 2 1v3l2-1q2-1 1 4l2-1 6 10q-1 2 2 1v3h2l-1 2 1 2 2-1v3q-2 1 1 2l1-2v4l1 2 2-1q2-1 1 3l2 2q-3-1-2 3l-1 1-3-1 1 2-1 2q1 3-1 2l-2 4-1-3-4 10q-2 4-3 1l-2 3h2l-8 12-3 2 7-10-1-3v-2l1-2-1-2v-34l1-1-2-5v-3q3 1 2-1h2v-1l-4-4-1 2-3-6-5-4v-1q2 1 1-1h-1l1-2q1-5-2-5-7 1-6-1l-2-1-2 2 2 1h-5q1 4-3 2-3-1-1-2l-2-1v2l-6-1v2l-2-1-2 1-4-1-4 2 3 1h-3q-4-1-2 3l-2 1-2-1-4 2 1 2 3-2-2 3-3 2v-1l-1-6h2l-3-1-1 3 1 2 1 1q-3 1-2-1l-9-7q-4 1-3-2l-2 1-7-1h-2q-8 2-6-3l-8 1v1l3-1q3-1 4 2l-1-1-5 1h-2l-3 3-2-2q-3-1-2 2 3 1-1 3l-2-1q-3 1-1 3l-3 2q-2-7 3-5v-4l-1 3-4-2q-2-2-3 1l-1-1h-25q1 2-1 1v1l1 1v11q2 7-2 6v-2l-1 3q-3 1-2-1v-2l-1-4-3-1h2v-3l-2 1-4-5 1-2-2 1-7-5-8-3h-10v-2l-3 1-1-1-3 3-1-1q-2 3-6 2l-4 5v-2q-3-1-2 3l-2 1v-28l2-2-2-1 1-4-1-3-2 1h-28zm124 0v3l-2-2-1 1-2-1-3 2-1-1h-1q1 3-2 2l-1 4 1 3 1 2q3-1 1 3h2v-2l2 1q3-1 2 2l3 1-2 1-7-3-3 4 1 2 8 3h2v-1h2l4-6v-2l3-2-2 4q-1 3 2 2v-2l1 3-2 1 4 2 3-1q4-2 1-3l2-5 1 5q-3 1 2 3 5-1 3 3h2l-1-3h2l-1-2v-2l2-3 1 2v-4h-2l3-4v13q1 2 3 0l2 1 1-1h11v2q-2 1 1 2l4-3h2q-1-3 2-2l1-2-1-2q-1-3 2-2l-1-1 1-2q3 2 1 8v2l-2 3h2l1-2 3-1q2 1 1-2h2l-2-3 1-2v2l2-1 2 4-1 2 5 1 3-1q1-4-2-3l-1-2 2-1-2-1v-1l3 1v-3l-1-6 1-2h-2v-2h-50v2q1 2-1 1v6l-2-7q-1-3-6-2l-1 6q-3 1-2-1l1-3q-1-3-6-2v2l-1 2 1 2 1 1q-3-1-2 2l2 1-2 1-2-3-4-1q-4 1-3-1h-2l4-2v2l3 1 4-5q-1-3-2-1zm-471 1-1 115-1 1q2 4 4 1h32l1 1 1-2v-34l1-1-1-2q-1-3 3-2l1 2 10-2v2l3-2v2l4-1v2l2-1 2 4 2-1 3 5-1 2 1 1v25l-1 1 4 3h2l-1-1v-1l2 1 1-1h24v2h-26l1 2 1-1h24l2 2-1-3q1-3 3-1 2 1 1-1v-26l1-1-1-3 1-3q2-1 1 3v27l-1 1 1 2h35l5 3h57l-56-1-2-1v-1l-1-1v-114q-1-3-2-1h-34l-1-1q-3 1-1 3v8l-1 1 1 2h-2q-1 2 2 1v6l-1 2 1 3q-1 3-3 0l1-2-8-13-9-6-2-2-1 1-4-2h-6l-1-2h-1l-3 1h-66zm385 0-3 6 2 1 3-1 2 1h-1l1 3v11l-1 1 3 1 2-1 1 2v-13l2-2q2 1 1-1h-3l4-2q-2 5-1 15h2l-1-1v-9q3-2 1-3l2-3-1 2 1 1v13q-1 2 4 1 1 2 2 0l-1-2 1-3q-1-3 2-2l3 7v1l3-1h2l2 3v-3l5 3 4-2v-1q-4 1-3-1l4-3 2 4h-1l1 2q1-3 5-2l1 2 1-2 2 3v-2l3-1 2 1q2-1 0-2l1-4-1-4q3-1 2 2v2h2l5 6 4-1-1-5 2-4-2-1 1-3-1-2 1-3-1-2q-6-1-9 2h4l-1 2 1 2v2q-4-2-2-4-3 1-2-2l-3-2h-5l-1 4 1 2v1l-1-1-2-1q0 5 3 7l-2 1 2 4v2l-2-2-2-4 1-3h-1v-1l-3-4 2-1-1-1-2-3h-5l-1 2h-2l1 2-2 4v2l-3 1h2l-1 5-1-2-1 3q2 1 0 2l-4-5 3-2 1-3-1-2 1-2-1-2-3-3h-13l-1 2h-1v-2h-15zm-143 1 1 17v-15l1-1zm-150 1-1 2h3zm5 0v5l-1-2-1 2-2-1-3 1q1 2 7 1l-1 2 2 1v-8zm339 0-2 2h2zm1 0-1 3 1 1 2-3zm109 0v10l-1 1 1 1v8l2 2 1-2 2 1h4l2-1h2l1 2v-1l2-4-2-3-2 1-3-2-1 2-3-1 1-3-1-2v-9zm18 0-2 2 1 7q-3-1-2 2h2l-1 2q2 1 1 6-2 1 1 2l3-1 5 1 6-3 1-3h2l-2-1 2-3-2-7q-4-6-15-4zm18 0 1 2q1-3-1-2zm-354 1-1 3h1zm153 0-1 3h1zm40 1-1 4h1zm-189 1-1 2 2-1zm-3 1q-2 3 1 2zm207 0-1 3h1zm145 0q-2 3 1 4h1zm-480 4-3 2h3zm133 0q-1 3 2 2 1-3-2-2zm154 0-1 8h1zm169 1-2 3q3 1 2-2h3zm25 2-1 3h1zm-481 1q-2 3 1 2zm138 1q-1 3 2 2 1-3-2-2zm322 0 1 2q1-3-1-2zm23 0-3 3 2 4h2l-2-3 1-2zm-2 5-2 3 2-1zm-96 1v2l2-1zm-28 1v2l2-1zm27 0-1 2 2 1zm12 0 1 2q1-3-1-2zm37 0-2 2h3zm-102 1 1 2 2-1zm24 0 1 2h1zm6 0-2 2h2zm18 0q-2 3 1 2zm96 0v2l2-1 3 2v-2zm-173 1-1 3h2l1-2zm99 0q-1 3 2 2 1-3-2-2zm21 0-3 2h4q1-3-1-2zm-129 1q-2 3 1 2zm40 0v3q3-1 0-3zm10 0-2 1v1h25l-3-1h-2l-2-1-3 1h-8zm35 0-1 2h3zm60 0-2 2h3zm8 0-1 2h7l-1-1h-2zm29 0-2 2h2zm6 0v2h35l-32-1zm-196 1-1 3 2-1 3 1 2-1zm23 0-3 1v1q6 1 5-1zm97 0v1h2zm36 0 1 3 2-1zm80 0-2 2-3-1q-1 3 4 2l-2 3h2q4-2 1-3l3-1zm13 0v1h2zm5 0v1h33zm-223 1v2l2-1 4 1v-2zm21 0-3 1-1 3 3 1v-2h2zm31 0-1 1q-4-1-3 2l5-2zm3 0-2 3h3zm28 0 2 2 3-1zm9 0-4 2 8 1v-1q-1-3-4-2zm5 0 1 4h2l-1-2zm4 0q0 4 2 1zm19 0-2 2h2zm141 0q-1 3 2 2 1-3-2-2zm-238 1 1 2q1-3-1-2zm137 0q-1 3 3 2 1-3-3-2zm59 0v2l2-1zm-160 1v2l2-1zm158 0 1 2q1-3-1-2zm7 0-3 1-2 3 5-2zm34 0v1h2zm-333 1-2 3 3-2zm75 0v1h4zm263 0-3 2h3zm-390 1v1h47zm49 0-2 2h2zm5 0q-2 3 1 2zm290 0-1 7 2-1zm-198 1-2 2v8h1v-7l2-1zm82 0q0 4 2 1zm14 0q-3 2 0 3h1zm-108 2q-1 3 2 2 1-3-2-2zm4 0 2 3q1-4-2-3zm93 0q0 4 2 1zm-89 1v2q1 3-2 2l1 2 2-1q2-6-1-5zm190 1q-1 3 2 2 1-3-2-2zm56 1v2l-1 2 1 1 2-3zm-3 2v1h2zm6 0-1 3h1zm-52 3v2l3-1zm0 2-1 4h1zm44 2-1 3h1zm-236 1-1 3h1zm232 1 1 2h1zm-80 1-3 2h2l2 3h1zm4 6-2 2h2zm79 0-2 2h2zm-182 4-1 3h1zm47 0-2 3 2-1zm127 0-2 2 1 2-1 2 1 1 2-3zm-183 1-1 3h1zm53 3-2 3h3l1 6v-6l1-2-1-1zm59 0v2q2-2 4 1h1q-1-4-5-3zm-113 1-2 2h2zm180 0-1 2 2-1zm-114 1v4h1q1-5-1-4zm-70 4v2l2-1v4h1q2-7-3-5zm5 2-1 3h1zm13 0-2 2h2zm56 0-1 44h1zm107 0-2 4q-1 2 2 1zm-168 1v2l2-1zm48 0-2 2h2zm65 1-1 2 2 1zm-561 6v1h8zm-3 2v1h2zm304 1-2 1v2q-1 2 2 1v-2zm-3 2-2 2h2zm-275 1-1 2-1-1-1 3v1q2 1 1-2h2zm225 1v1h48zm54 0q-2 3 1 2zm246 4-1 2 2 1zm80 0 1 2q1-3-1-2zm-4 1 3 6 2 1q1-5-3-5 1-3-2-2zm-418 2-2 2h2zm-3 3v2l2-1zm-1 2-1 16h1zm195 0-3 5q-3-1-2 2h3l2-2zm149 0v3q3-1 0-3zm83 0v2l2 1q1-4-2-3zm-432 4q0 4 2 1zm392 0-1 2-1 2 3-1zm-4 1-3 4 2 2 1-4zm-388 1q-2 3 1 2zm197 2-1 13h1zm-4 1-3 6 3 1-1-1 1-3q2-2 0-3zm248 1q-2 3 1 2zm-255 5 1 2q1-3-1-2zm53 1 1 4q-1 2 2 1v-5zm13 0-1 3h1zm145 0-1 3 2 1zm-597 1q-2 3 1 2zm384 0q-1 3 2 2 1-3-2-2zm70 1-2 4 1 2 2-3zm-455 1-2 2h2zm208 0-1 2h4zm250 0-1 3h1zm-428 1q-2 3 1 2zm33 0-1 2h3zm39 0-1 1-33 1h34zm75 0-2 3 2-1zm128 0q-2 3 1 2zm46 0 1 2q1-3-1-2zm-386 1v1h31l1 1v-2zm36 0 1 2h1zm211 0v1h89zm101 0-1 2-3 1h4zm3 0-1 3h17l-16-1zm223 0-2 3h2q3-1 0-3zm2 0 1 2q1-3-1-2zm46 0-2 2h2zm17 0-1 2v1h33l-32-1zm36 0v3h1q1-4-1-3zm4 0-1 3h1zm-685 1q-2 3 1 2zm5 0-1 2h33l-31-1zm213 0v2l2-1zm29 0q-1 3 2 2 1-3-2-2zm3 0v2l2-1zm93 0-1 1-90 1h91zm39 0q-2 3 1 2zm27 0v1h3zm15 0v1h3zm14 0 1 2h1zm43 0-2 2h2zm2 0v1h2zm-406 1v1h24zm32 0v1h32zm41 0v1h56zm296 0v1h31zm55 0v1h32zm56 0v1h16zm33 0v1h23zm25 0v1h2zm5 0v1h3z"/><path d="m553.5 57 .5 3.5-2 1zm29 0 .5 2.5-1 2 1 3.5q-3.7 1.3-2-4.5zm-121 3h2l4.5 1.5-.5 2.5-2-1-4 1-.5-2.5zm127 0h2l3.5 1.5-.5 2.5h-4l-1.5-1.5zm2.5 1v1h2zm32.5-1 5.5 2.5 1 4-3 2q2.3 1.3-.5 2.5l-1-2-.5 2q-3 1-2-2l2-.5-2-.5.5-2 1.5.5-2-3v-2zm2.5 2q0 4 2 1zm2 3 1 2q1-3-1-2zm-1 1-2 2h2zm-67.5-5 1 1h15.5v7q4.1-1.3 3 2l-2.5-1-1 1h-15v-1l15.5-.5-15.5-.5-1.5-1.5 1-4zm-76 3 1.5 2.5-2 .5zm2 8 2 3zm-186 8q2.3-.7 1.5 1.5zm-142 2q2.6-.8 1.5 2.5v2q1.3 4.8-2 3.5l1-2.5-1-2 1-2zm465 0 6.5 3.5-2.5 1.5-2-3-.5 2-2-.5 1.5-2.5-5 2-1-2zm-530 1 2 1h2q6.8 1.3 10-1l2 1 3-1 2 2 3.5-.5q-2.7 1.7 1.5 3.5l1.5-.5 1 2-.5 3.5 1.5.5-1 3v2l-4.5 4.5h-2l-2 1h-18.5l-.5-16-1 16-.5-15.5-1-1v-2zm.5 2v2l2-1zm4 0v1h9zm21 13q-2 3 1 2zm-5 2v2l2-1zm124.5-15-1 2zm3 0h8l1 1 3-1 3 2h2l2.5 1.5.5 1.5q1.3-2.2 2.5.5l-1 2 3 .5 2 5.5-1 2.5 2 .5-3 1 3 .5-1 4.5h1l.5-1.5.5 1.5v2l-1 2 1 2-1 5-1 2 .5 1.5q-1.2-2.3-2.5.5l1 2-.5 1.5 1.5.5-2 1v4l-3.5 4.5-1.5-.5q1.1 3.3-1.5 2.5l-1.5-.5q.8 2.3-1.5 1.5-1.2 2.3-2.5-.5l-.5-1.5-2 4-3-1-2 1-2-1-4 1v-1l1.5-.5-3-.5q1.1 2.7-1.5 2l-.5-4.5v-48l1.5-.5zm11.5 1 1 2q1-3-1-2zm7 3-1 2q3 1 1 3h2l1-3q-2 1-3-2zm-2 1q-2 3 1 2zm7 17 1 4 1-3zm3 2q-2 3 1 2zm-1 2-1 3h2zm-2 17-2 3-2-1v2h-2l1 2h-1l-1 2 2-1q2 1 1-1l3-2 2-3zm-14 8q-3 2 0 3h1zm-4 1-1 3h2q1-4-1-3zm56.5-52 2.5 4.5q-2.5 1.5 1 3l-1 3 2 .5-1 2.5 1 2-.5 1.5q2.8-.6 1.5 5.5v2l-1 4 .5 1.5q-3 .9-1.5-3.5v-2l1-3v-2l-2-3v-2l1-2-2-2 1-3-2-2 1-1-2-2z"/><path d="m157.5 91q2.3-.7 1.5 1.5zm-1 2 1 2 1.5-.5-1 2 1 5v5.5q-2.7-1.1-2 1.5h2l-1 2 1 1v8l-1 2 1 3-1 4 1 4-1 3-.5 1.5-.5-1.5v-4l-.5-1.5-1.5.5-1-4 .5-1.5-10-8q-1.2 2.3-2.5-.5l1.5-2.5 3-2 2 1q-1.9-2.7 3.5-5.5l1.5-3.5 1 2 .5-2.5-.5-1.5q2.3.8 1.5-1.5v-2l1-3zm-1.5 13v2l2-1zm-1 4 1 1 1 1q1-3-2-2zm-1 1-2 4 1 2-1 2 2 1zm-10 4v2l2-1zm3 1 1 2q1-3-1-2zm6 5 1 2q1-3-1-2zm3 2 2 2q1-3-2-2zm338.5-16 1.5 2.5-1 5 1 3v2l-.5 1.5-1.5-3.5 1-2-2-3zm-50 3h8l1.5 1.5 2.5 3.5q2.3-.7 1.5 1.5l2 6-1 4h1l.5-2.5.5 2.5v2l-1 6-3 3 2 3-4.5 5.5q-4.6-.6-6 2l-.5-1.5 1-2-1.5.5-4 2-3.5-2.5v-2l-.5-1.5q-1.2 2.3-2.5-.5l-2-7v-2q-1.1-3.3 1.5-2.5v-1q-2.2.8-1.5-1.5l2-10 2.5-2.5 1 2 .5-2.5-.5-1.5zm3.5 1v1q3-1 2 2l1 3q-1 2 2 1h2l2 1q2-4-3-3l-2 1 1-5zm-9 5v4q-1 2 2 1l-1-3q1-3-1-2zm2 9-1 7h1zm-2 1-2 10 2-1zm20 2-1 3h1zm-16 16v1h2zm8 0v1h2zm-144-28q2.7-1.1 2 1.5v4q.8 2.3-1.5 1.5l-.5-2.5zm-.5 10 .5 2.5h-1zm189 0 .5 4.5h-1zm-189 4 .5 2.5-2 2 1 1-.5 1.5-1.5-2.5zm187.5 6q3.7-1.3 2 4.5l-1.5 3.5zm-191.5 4 1 2zm332 27-1 2z"/></g><path d="m126.5 56 4.5 1.5-2.5 1.5zm73 0 .5 113.5h-1zm104 0 .5 27.5h-1zm196 0-2 3zm106 0 .5 15.5-2-1 1-1zm22 0v2l1.5.5-1.5.5q-3-1.5 0-3zm-157 1 2.5 4.5-.5 2.5-3.5-5.5zm80 0 1 2zm46 0 1 2-2.5-.5zm-96 1 1 2zm40 0-1 2zm8 0 1 2zm-28 1 2.5.5-2.5.5zm15 0 .5 1.5-2 1zm-91.5 1 2 .5-1 1v13l.5 1.5-1.5-.5zm16.5 0 .5 4.5h-1zm-320 1 2.5.5q-2.1 3.3-2.5-.5zm139 0-1 2zm204 0 1 2zm19 0 1 2-2.5-.5zm30 0 .5 2.5h-1zm-387 2 5 6-3.5-2.5zm354 0 1 2zm-215 1 1 2zm198 0-1 2zm33 0 1 2zm79 0 1 2zm4 0-.5 1.5-1.5 2.5.5-1.5zm-62 1 1.5 2.5-2-1zm13 0 1 2zm37 1-1 2zm-59 1 1.5.5-2 1 .5 1.5-3.5-1.5q1.8 1.6 3.5-1.5zm-67.5 1 5 .5-4 .5-.5 7zm22.5 0-1 2zm16 0 .5 1.5-2 1zm89 0q3.8-.7 4.5 1.5l-1.5-.5q-4.2-.7-5 2l-2.5-1.5 1.5-.5q1.5 2.5 3-1zm-442 1 1 2zm135 0 1 2zm189 0 2.5 4.5-2-1zm67 0q3 1.5 0 3zm93 0 1 2zm-113 1q-1.6 1.8 1.5 3.5l-1.5 1.5q-5-2.5 0-5zm76 1 1.5 2.5h-1zm-303 1-1 2zm5 2q3 1.5 0 3zm226 0-1 2-1.5-.5zm17 0 1 2zm-241 3 1 2zm-179 3 2.5 3.5q-2.2 1.3.5 2.5l1.5-.5v2l-.5 1.5-3.5-4.5.5-1.5-2 1zm38 0 .5 1.5-2 1zm-50 1 5.5 1.5-20 .5-.5 22-.5-23h14.5zm194 1-1 2zm41 0 57.5.5-57.5.5zm-35 2 1 2zm-5 1 1.5 2.5-2.5.5-1.5-1.5h2zm-39 1v3q-3-1.5 0-3zm43 0 1 2zm-180 2-1 2zm141 2-1 2zm37 0 .5 1.5-2 1zm-180 1 .5 3.5h-1zm188 5-1 2zm-185 3 2.5.5q-2.1 3.3-2.5-.5zm27.5 0 2 .5q-3.1 1.7-1.5 3.5-2.7-1.2-.5-2.5zm116.5 0-.5 1.5-.5 1.5-.5-1.5zm39 3 .5 4.5h-1zm-156 2-1 2zm-4 2 1 2zm-55 2-1 2zm53 0 1 2zm123 0 1.5 8.5-2 .5zm36 4 .5 3.5h-1zm-167 5 1 2zm170 1 .5 2.5h-1zm-162 2-1 2zm240 1 2.5.5q-2.1 3.3-2.5-.5zm-47 2 1 2zm-249 7 18.5.5-18.5.5-1 1zm27 2-1 2zm182 1-1 2zm2 0 1 2zm-37 1 1.5.5-3 2q.8 2.3-1.5 1.5zm44 0 1 2zm-185 4 2.5 1.5-1.5.5zm32 0q2.3-.7 1.5 1.5zm-34 2 1 2q-2.8.7-1-2zm134 0 .5 1.5-2 1zm7 1q3 1.5 0 3zm-3 1 1 2zm44 0 .5 27.5h-1zm-9 4 2 1 1.5-.5-1.5 2.5-2.5-.5zm-3 3q3 1.5 0 3zm3 2-2 3zm-7 7-1 2zm-4 3-1 2zm-6 2 1 2zm-6 3 .5 2-2-.5zm-117 2 2.5.5q-2.1 3.3-2.5-.5z" fill="#f0f2f1" stroke="#f0f2f1"/><path d="m54.5 55 68.5.5-68.5.5zm106 0 35.5.5-35.5.5zm39 0 60.5.5-60.5.5zm104 0 94.5.5-94.5.5zm99 0 30.5.5-30.5.5zm36 1 .5 3.5h-1zm18 0 .5 19.5h-1zm39 0 .5 19.5h-1zm12 0 .5 11.5-2-1 1-1zm4 0 .5 19.5h-1zm69 0 .5 11.5h-1zm21 0 .5 19.5h-1zm-74 1 1.5 2.5-3.5 2.5-1-2 2 1 1.5-2.5zm-79 3 .5 15.5h-1zm19 0 1.5 2.5h-1zm47 0 .5 2.5h-1zm79 0 1 2zm-450 1 1 2zm485 0 1.5 2.5h-1zm-145 1 1 2q-2.8.7-1-2zm111 1-1 2zm-95 1 .5 11.5h-1zm-213 1 8 9zm196 0 .5 2 2.5-1 .5 2q-5.9 1.9-3.5-3zm45 0 1 2zm-56 1-2 3zm9 5 6.5.5-6.5.5zm99 1-1 2zm36 0 .5 3.5h-1zm-101 1 1 2zm14 0-1 2zm-75 10 5.5.5-5.5.5zm-204 1 2.5.5-2.5.5zm276 3 .5 5.5h-1zm-30 1 .5 70.5h-1zm-233 1 1 2zm269 1-1 2zm43 0 2 3zm-94 2 2 3zm48 1-1 2zm-188 5 48.5.5-48.5.5zm-230 6 2.5.5-2.5.5zm41 2-5 6zm154 0 .5 5.5h-1zm378 0 1 2zm-375 1 .5 10.5h-1zm230 3 3.5.5-3.5.5zm-84 1 1 2zm-16 1-1 2zm201 0 .5 41.5h-1zm15 3 1 2zm-349 1 .5 4.5h-1zm-157 5 3 4zm285 3 .5 8.5h-1zm60 2 .5 4.5h-1zm-376 8 1 2zm130 7 3.5.5-3.5.5zm192 4 1 2zm-147 9-3 4zm-7 6-1 2zm210 0 .5 8.5h-1zm-63 2 2 3zm198 7-1 2-1.5-.5zm3 0 1 1 31.5.5-33 .5zm-579 1 35.5.5-35.5.5zm68 0 34.5.5-34.5.5zm38 0 35.5.5-35.5.5zm39 0 57.5.5-57.5.5zm104 0 94.5.5-94.5.5zm98 0 29.5.5-29.5.5zm95 0 31.5.5-31.5.5zm55 0 32.5.5-32.5.5zm56 0 19.5.5-19.5.5zm60 0 2.5.5-2.5.5zm29 0 35.5.5-35.5.5z" fill="#4b7584" stroke="#4b7584"/><path d="m123.5 55 2.5.5-2.5.5zm36 0 .5 115.5h-1zm37 0 .5 115.5h-1zm323 0 4.5.5-4.5.5zm-65 1 .5 3.5h-1zm100 0 .5 19.5h-1zm43 1 1 2zm-38 3 16.5.5-16.5.5zm28 0 .5 4 5 .5-4.5.5q-2.7-1.2-1-5zm35 0 .5 11 3 .5-2.5.5-1.5-1.5zm-23 1 .5 2.5h-1zm-453 2 3 4zm488 0 .5 4.5h-1zm-173 1 5.5.5-5.5.5zm126 5 .5 6.5h-1zm-72 1-2 3zm44 1 20.5.5-20.5.5zm47 0 9.5.5-9.5.5zm-29 3-1 2zm-58 2 4.5.5-4.5.5zm-363 7 .5 9.5h-1zm303 0 2.5.5-2.5.5zm147 0 4.5.5-4.5.5zm-370 1 12.5.5-12.5.5zm297 4-1 2zm198 0-1 2zm-253 2 1 2zm109 0-6 7zm-152 1-1 2zm294 0-1 2zm-152 2 2 3zm61 0 1 2zm89 1-1 2zm-244 1 1 2zm-94 3 .5 26.5h-1zm254 2 1 2zm-338 3 .5 2.5h-1zm-214 1 18.5.5-18.5.5zm353 5 5.5.5-5.5.5zm195 0 .5 2.5h-1zm-106 3-2 3zm13 0 2 3zm168 1-1 2zm-127 1-1 2zm125 2-1 2zm-407 5 .5 2.5h-1zm188 1 .5 3.5h-1zm35 0 .5 47.5h-1zm78 0 .5 47.5h-1zm100 7 1 2zm-616 2 .5 39.5h-1zm403 0 .5 4.5h-1zm164 3-1 2zm-2 3-1 2zm-419 4 10.5.5-10.5.5zm-115 2 .5 26.5h-1zm335 0-2 3zm194 1-1 2zm69 5 1 2zm-78 8-1 2zm-353 1-1 2zm197 0-1 2zm-54 4 .5 7.5h-1zm4 3 1 2zm42 1-1 2zm157 1-1 2zm-377 3 2.5.5-2.5.5zm191 2 2.5.5-2.5.5z" fill="#1f3139" stroke="#1f3139"/><g fill="#010102" stroke="#010102"><path d="m50.5 48h2l2 1 1-1h66l2 1 2-1 1 2q-1.8-2.7-3.5 1.5l1.5 2.5 1.5-.5-1-2h1l.5 1.5 1-2 .5 1.5-3.5 2.5-2.5-.5v-2l1-3.5q-2.7-1.1-2 1.5l-1.5 1.5h-63.5l-1.5 3-2.5-.5 2.5-3.5h65l.5-2h-64.5l-1 1-2.5-1 1 2.5-2.5 1.5v-1l1.5-.5-2.5-.5-1.5.5.5-2.5zm108 0h33l1 1 3.5-.5-3 2 2.5 3.5 2.5-.5-1-2h2q.8-2.2-1.5-1.5v-1l2-1h56l1 2-1-1h-56l1 2h57l.5-1.5 2-1-1 3 2-1 .5-1.5.5 2 2 .5-1.5.5-1.5-.5-1 3.5-3-1.5h2l-.5-1.5h-59.5l1 2.5-1.5 1.5-5-3-2-1h-31l-3.5 2.5-.5 1.5-.5-1.5 4.5-3.5h31.5l-.5-2h-31q-1.8 2.5-2-1zm141 0 1 2q-2.8.7-1-2z"/><path d="m302.5 48h2l88.5.5-89 .5.5 2h87q1.3-2.2 2.5.5l-1 2 .5 1.5h-1.5l-.5-3h-87l-2 4-3-1-1.5 1.5v15l1 1-.5 1.5q2.6.7 1.5-2h2.5v1l-5 3-1.5-1.5 1-3v-16l-1-1 1.5.5q2.3.8 1.5-1.5h1l.5 1.5.5-2 2-.5-2-1 2-.5zm93 0q3 3.9 9.5 3l-1-2.5 1.5.5q2.3-.7 1.5 1.5l.5 1.5-2-1-2.5 1.5 1.5 2.5h-2q-2.2.8-1.5-1.5l.5-1.5-5-1v1l3.5 2.5-1.5 1.5q-1.7-3.1-3.5-1.5l1-2v-2l-.5-1.5-1.5.5zm39 0 3.5.5-3.5.5zm84 0 4.5 2.5-1.5.5zm5 0h2l1.5.5-2.5 1.5zm-370.5 1 2 .5-2 1zm255.5 0 23.5.5-23.5.5zm104.5 0 2 .5-2 1zm-74.5 1q2.3-.7 1.5 1.5l-3 1 1 2-1.5-.5-4.5-1q-1.1-3.3 3-2l.5 2 .5-2zm89 0-1 2z"/><path d="m296.5 51q2.3-.7 1.5 1.5zm222 1 3 1 1.5-.5-4.5 3.5 1-2 1.5-.5-2.5-.5-4 6-.5-2q3 1.3 2-2.5zm-256 1q3 1.5 0 3-3-1.5 0-3zm145 0-1 2zm118 0 2.5.5-1.5 2.5-3.5-1.5h2zm-373 1q2.8 1.2.5 2.5v8l1.5.5 1.5-.5 3 4-4 1.5-.5 2-1.5-2.5h2l-1-2 3 1-1.5-2.5-5 2-.5-2.5-.5-1.5q-1.2 2.3-2.5-.5l3.5.5 1.5-1.5-5.5-.5q-1.2 2.3-2.5-.5l5-3-3-.5.5-2 2 1 3-1 1.5-.5zm-2.5 5-2 2h2zm2 5q-2 3 1 2zm7.5-10-1 2zm273 0 2.5 1.5 1 4h-1l-1-4.5zm80 0 1 2zm-376 2h2l2 1 1.5-.5-.5 1.5 2 1 1.5-.5-3 2 .5-1.5-4-2v2zm136 0 4.5.5-1.5 2.5-1-2-2.5 1zm6 0 .5 2.5-2 1zm3 0 2.5.5-1 3h1l2.5-3.5 1 2q-1.3-2.2-2.5.5l.5 1.5 2-1 .5 2.5-1.5 1.5-2 1v-2q-2.2.8-1.5-1.5h-4l3-1-.5-2.5-1.5.5zm191 0 3.5 2.5q.6 4.6-2 6l4-1 .5-1.5.5 1.5-4 2 3 1-3 .5-1 2.5 1 3-2 1 1-3h-1l-.5 1.5-2.5-3.5 4-3-1-2q3-1.2 2-5.5l-2.5 1q-3-1.5 0-3zm1.5 11-3 2q2 3 3 0zm2.5-11h2l2.5 2.5-2 .5-.5 2zm14 0 1 2 .5-2 2 .5-2 3 2 1 .5-1.5.5 1.5-1 2 1 3-.5 1.5-2-4q-2.7 1.3-.5 2.5l1.5 2.5q2.3-.7 1.5 1.5l-3.5-2.5-1.5-.5v-4q1.1-3.3-1.5-2.5l-1-2 3 2 .5-2-2-.5zm1.5 4-1 3h1zm10.5-4 3 1 1.5-.5v1.5h-4v2l4 2.5-.5 2.5q-3.7-2-2-4l-2.5-1.5 1-2zm26 0 1 2q-2.8.7-1-2zm17 0 2.5.5-1.5 1.5-2.5-.5zm35.5 0 2 .5-1 3 1 2h-1zm53.5 0h2q2.3-.7 1.5 1.5l-1 2h2l-3 1 1.5 2.5 2.5-1.5v4l-1.5 2.5-1.5-.5.5 2.5 1.5-.5 1 2h-2l2 4-2 .5-.5-2-2 3-1.5.5 2 .5-.5 2-3-2-1.5 2.5h2l-.5 1.5q3.8-1 2.5 2-3.8 1.5-3-1.5l-2.5-1.5 1.5 2.5-1 3 1 2.5q-5.3.7-8-2.5l1-2-2.5 1.5-1.5-1.5 2-1-4.5-.5v2l-1.5-3.5 2-1-.5 1.5 3.5-.5-2-1q2-4.5 4-1-.6 2.8 5.5 1.5v-2q1.3 2.3 2.5-.5l-.5-1.5-1.5.5q1.3-2.7 2.5-.5 5 .5 5.5-3.5l-.5-1.5-4.5 3.5 1-3 1.5-2.5q2.6.8 1.5-2.5l-1-2h1l.5 1.5 1.5-2.5-3-2 1-4-2.5 1.5-2.5-2.5q1.8 1.6 3.5-1.5zm-.5 15v2l2-1zm-9 13 2 3 2-1zm-88.5-27 2 3-2.5-.5zm81 0v7l-1.5-1.5v-4zm-180 2 1 2zm75 0 1.5 2.5-2 1 1-2zm-63 1 2.5 1.5.5 1.5 1-3 1.5 2.5-2 2v9q5.5 2.5 1 5l-.5 1.5-.5-1.5.5-1.5-2-1-2.5.5 1 2-.5 2.5q-2.2.8-1.5-1.5v-2l1.5-2.5q1.3 2.3 2.5-.5v-11l-1.5-.5-1.5.5q-.7-2.2 1.5-1.5v-1zm17 0-1 3 2-1-1 2-2.5-1.5zm55 0-.5 1.5-.5 1.5-.5-1.5zm31 0 1.5 2.5-2 1 1-2zm37 0 4.5 2.5-2 1 .5-1.5-2.5.5.5 1.5-2.5-.5zm-155.5 1 2 .5-.5 2.5zm8.5 0q2.3-.7 1.5 1.5zm81 0 2.5 1.5-1.5.5zm5 0 3.5 2q1.1 2.7-1.5 2v1l1.5.5-2.5 1.5.5-3.5-.5-1.5-2.5 1.5q3.1-1.7 1.5-3.5zm32 0 15.5.5-15.5.5zm-122 1h2l2.5 2.5q1.8 7.7-2.5 9.5l1.5-2.5q1.8-6.7-1.5-8.5-1.8 2.5-2-1zm99 0 .5 2.5h-1z"/><path d="m623.5 62h2l2.5.5-3 4 2.5-1.5 2-1-.5 1.5-.5 1.5-1.5-.5 2 3-2 1q2.3-1.3-.5-2.5l-1.5.5 1 2h-1q.8-2.2-1.5-1.5v-1l1.5-.5-2-3zm-466 2 1 2zm131.5 0q2.7-1.1 2 1.5 2.3 1.3-.5 2.5v-2l-2 1 .5-1.5zm5.5 0 1 2zm219 0 1.5 1.5-1.5 3.5-1.5-3 2-.5zm86 0 1.5 2.5-2 3 1 2h-1q.8-2.2-1.5-1.5v-1l1.5-.5-2-1zm11 0 4 1h2l1.5.5-3.5 2.5v-1q2.3.8 1.5-1.5l-1.5.5q-3.3-1.1-2.5 1.5l1 2.5 4.5-2-.5 1.5-.5 1.5h-2l-2-1-3.5 1 .5-2 2.5 1v-2q-2.7 1.1-2-1.5zm-59 1q2.5 1 1.5 5.5l-3 2 .5-2.5 1.5.5-1-3zm30 0q2.3-.7 1.5 1.5zm25 0 1.5 3.5h-1zm-90 1 2.5 3.5-1.5-.5-2 1 .5-1.5zm25 0 1.5 4.5h-1zm-248 2 2.5 1q1.1 2.7-1.5 2l-1.5.5 1-2h-2zm229 0 2.5 1.5-3 .5zm37 0 1 1h15l1.5 1.5-1.5-.5h-15l-1 1zm-58 1 2.5 1.5-1.5.5-2.5-.5zm29 0 2.5.5-1 2 .5 1.5-2.5 1.5 2.5 2.5 3.5-.5-.5 2.5-1.5.5 3 2-1.5-.5q-3.3 1.1-2.5-1.5h-2l1-2-1.5.5-1.5-.5 2-1q-4-2 0-4zm49 0 3.5 5.5-3-1 1 2-1.5-.5q-2.2-.7-1.5 1.5h-1l3-5zm9.5 0 2 .5v2l-1 2 .5 2.5 3-1v1l-1.5.5 2.5 1.5q1.5-3.5 3-1l1.5.5-4 3 1.5 3.5 2.5.5-3.5 1.5-3.5-1.5 3-1-2-1 2-1-3-.5q1.1 2.7-1.5 2l3-5-3-1-1 3v-2l-2.5.5.5 1.5-1.5-1.5 3.5-4.5q-2.6.8-1.5-2.5zm-96.5 1 1 2zm21 0-1 2zm-59 2 1 2zm7 0 1 2zm4 0-.5 3.5.5 1.5 2-1v1l-4.5 2.5 1.5 1.5 2.5-1.5-1 2.5 2 .5-5.5 1.5v-1l3.5-.5-6-1 3-1q-2.3-1.2.5-2.5l1.5-.5-1-2zm16 0-1 2zm3 0 3.5 1.5-.5 3.5 3 1 1-2 1 2 2-3 2 5 4-2v1l-1.5.5 4.5.5 1-2-1.5-.5 1.5-.5q3 6 6 0l2 1 .5-1.5-.5-1.5 2 1v-2l1.5 1.5-3.5 3.5-1.5.5 2.5.5 3.5-2.5.5 1.5 4-2 3 1 1.5-.5-.5-1.5 2.5 1.5-2 1 .5 1.5-2-1q-1.5 2.5-3-1l-3.5 1.5 4 1-25.5.5-2-2-1 1-2.5-1.5-2.5 3.5-1-3-1.5.5 1-2-2.5 1.5-1.5-.5 2-1q-1.2-2.7-2.5-.5l-2.5.5 1.5 2.5-2-2-2.5 1.5q2.3-1.2-.5-2.5-3.3-1.1-2.5 1.5h2l-1.5 1.5-3.5-1.5 2.5-3.5 5 2 1-2 3 1v-2l3 2-1.5-2.5zm4.5 6 1 2q1-3-1-2zm52.5-6 2.5 1-1 2.5q2.3 1.3-.5 2.5l-1.5-.5-.5 1.5-1.5-2.5h2q-.7-2.2 1.5-1.5l-1-2-1.5.5z"/><path d="m503.5 73 2.5.5-.5 2.5-2.5-.5zm49 0-1 3q2.3-.7 1.5 1.5-1.7-1.6-3.5 1.5l-2 1 .5-1.5 1.5-3.5zm-3.5 3v2l2-1zm-246.5-2-1 2zm199 0v3h-2l-1.5-.5zm115 0 3 4q-1.7-3.1-3.5-1.5zm-461 1 2 3 .5-1.5-.5-1.5 1.5 2.5-1 2 1 2.5-2 .5 2 3-2-1-1-4 1-2q-3-1-1.5-3.5zm306 0q3 1.5 0 3-3-1.5 0-3zm-16 1 1.5 2.5-2 1 1-2h-2zm25 0-1 4q-3.5-2 1-4zm38 0-1 2zm47 0 3.5 2q1 3-2 2zm28 0 .5 1.5-3.5 2.5zm19 0 1.5 2.5-2-1zm7 0 2 1 1.5-.5-2.5 1.5zm5 0 .5 2 2 .5-1.5.5zm10 0 3.5 1.5-2.5.5zm-323 1q2.8 1.3.5 2.5l1 5.5-2-.5.5-1.5-1.5-.5 1-2.5-2-.5 3-1zm156 0 3.5 2.5h-2q.8 2.3-1.5 1.5l-2.5-1.5 1.5-.5 1.5.5zm89 0-2 3zm33 0-.5 1.5q.9 3-3.5 1.5l-1-2 2 1z"/><path d="m600.5 77 2 3 3-1 2.5 1.5q-7.4-.9-10.5 2.5l-.5-3 3-1.5zm39 0 .5 1.5-.5 1.5h32l3 2 3-2 2.5 1.5-3 1q2.8 1.7-1.5 3.5l-3.5-1.5 1.5-.5q1.3 2.3 2.5-.5l-4-.5-.5-2h-34l-1.5.5 1-2.5q2.8 1 2.5-2zm-197 1 1 2zm126 0 3.5 1.5-2.5.5zm39 0 2.5 1.5-1.5-.5zm-167 2 6.5 1.5-2.5 1.5-3-1-1.5.5zm101 0 1 1h6.5l-.5 3-2.5-.5.5-1.5-6 1v-1l1.5-.5zm19 0 7 2 2-1 2 3 1-3 2.5.5-5 3.5-1.5-3-.5 1.5.5 1.5-2-2-9-1-2.5 1.5.5-1.5-1.5-.5zm.5 1v1h2zm128.5-1 2.5.5-3.5 1.5zm5 0h33l1.5 1.5-1.5-.5h-33zm41 0-.5 1.5q.7 2.6-2 1.5-1.1-2.7 1.5-2zm-284 1 3 1 1.5-.5q.9 3.4-4.5 1.5l-2 1zm20.5 0h6v2l-4.5-1-1.5.5zm20.5 0 1 2 2.5-1-.5 2h-2q-2.2-.7-1.5 1.5l-.5 2.5-1.5.5v7h-1q-2-8 2-10l-2-1 1-2.5zm31 0 1.5.5-5 2.5q-1.2-3 2.5-2zm3 0 1.5 3-3-.5zm4 0-1 2zm79 0 3.5 1.5-1.5 1.5zm-211 1 1.5 2.5-.5 2.5q-2.2.8-1.5-1.5l-3 1-.5-1.5-.5 2-2.5-1h-47.5l-.5 2-1-2-2 1-.5-2.5 1.5-1.5 2 1 1-1h47l4 2 1-1 2 1 .5-1.5zm-53.5 2v1h47zm258.5-2 3.5.5-2.5 1.5zm87.5 0 2 .5-.5 1.5 3-1 .5 2-5.5 2 1.5-2.5-1-1zm-599.5 1 3 2v-2h2l8.5.5-9 1 9.5.5 3-2v1l-2.5 1.5 2.5 1.5v-2l2 2h4l1.5-1.5-.5-1.5 3.5 1-.5 3h-10l-2-1-1.5.5.5-1.5h-9l-1-1q-4.2 1.8-1.5 3.5l-.5 15.5-1-16-1 16-.5-15.5.5-2.5 1.5.5zm21 0 1 2zm335 0-1 2-1.5-.5zm83.5 0 2 .5-2 1z"/><path d="m688.5 83q2.3-.7 1.5 1.5l-1 5q2.2 1.3-.5 2.5l-.5-6.5zm41 0 2.5.5-2.5.5zm-258 1 4.5.5-5.5 1.5zm68 0-1 2zm25 0q2.3-.7 1.5 1.5zm75 0 .5 2 33 .5-32.5.5zm95 0 1.5 3.5h-1q.8-2.6-2.5-1.5v2q-3-1.5 0-3zm-498 1h2l1.5.5-.5 2.5h-2l-1.5-.5zm13 0v3q-3-1.5 0-3zm4 0 2.5 1.5-1.5.5-1.5-.5-.5 1.5-1-2zm188 0 2.5.5-3.5 2.5-.5-1.5zm54 0 1 1h27l3-1v1l-5 1h-26l-2 1v-1q2.5.7 2-2zm33 0 .5 4q2.7-1.1 2 1.5l-5 4 2-2-1-1 1.5-2.5q-3.3 1.1-2.5-1.5h2zm4.5 0 3 1.5q-1.5 3-3 0zm104.5 0-1 2-1.5-.5zm91 0 1.5.5-2.5 1.5h-32v-1h32zm-256 1 2.5 1.5-1.5-.5zm4 0 4.5 2q-1.1 2.7 1.5 2v-2q3.8-1.2 2.5 2.5l.5 1.5q-1.7-3.7-3.5-.5l.5 1.5h2q3.8 1.3 2.5-2.5l-.5-1.5q3.4-.9 1.5 4.5l-2.5 1.5-5.5-3.5.5-1.5q-2.2.8-1.5-1.5zm96 0 2.5.5-3 2zm14 0 2.5 3.5-1.5-.5-1.5.5.5 1.5-4 2-.5-2 4-2.5q-2.2-1.2.5-2.5zm3.5 0q3-1 2 2-3 1-2-2zm87.5 0 1.5.5-2 1 2 1-2 1 2 .5 1 3.5h-1q.8-2.2-1.5-1.5l-1.5.5 1-2h-2zm-417 2 2 4 1.5-.5q.8 2.3-1.5 1.5l-1.5-.5 1.5 2.5 3.5-.5-1.5 2.5-1-2-3 1-2-1-1.5.5q3.8-1.7.5-3.5-2.2.8-1.5-1.5h2l.5-1.5 1.5.5zm44 0v5l-1.5-1.5zm131.5 0 2 .5-1.5 2.5zm139.5 0 2.5.5-2 2 1.5 2.5-2.5-2.5z"/><path d="m579 88 4 1.5-1.5-.5q-2.2-.7-1.5 1.5l1 4.5-2-.5v-2l-1-2zm114.5 0 .5 1.5q-3.8 1.2-3 5.5l-2.5 1 1.5-2.5 1-3.5q2.8 1 2.5-2zm38 1 .5 2q2.7 1.1 2-1.5h1l-1 2 2 4h-1l-.5-2.5-2 3-.5-2-3-.5 2.5-.5 1.5.5-1.5-2.5-1.5-.5zm-611 1 1.5 3-2-.5zm510 0 2.5.5-.5 1.5 2 1 1-2 2.5 1 1 2.5-2 1q1-3.7-2-2.5l-.5 2zm-473 2 1.5 3.5-.5 1.5-1-2-1 2-.5-1.5zm-36 2v3q-3-1.5 0-3zm183 0 1 2zm424 1-1 2zm-614 1 2 1h2l1.5.5-2 1q3.8 1.8.5 3.5v-2l-2 1-1-1-2.5 1.5-1-2 1.5.5 1.5-.5zm1.5 2 1 2q1-3-1-2zm226.5-2 1 2zm47 0-1 2zm98 0 .5 2.5-1.5-.5-1.5-.5zm153 0 .5 2.5-.5 1.5 2-1 .5 2.5q.5 5.6 4.5 7.5l1.5-.5-1 2.5-2-.5q2.3-1.2-.5-2.5l-2.5-1.5q.8-2.2-1.5-1.5l-3.5-1 .5-6 1.5.5zm1.5 6q-2 3 1 2zm38.5-6h1.5v4l-2-.5.5-1.5-1.5-.5zm3.5 0 3 .5-3 1.5.5 4 2-3q2.8 1.3.5 2.5l-.5 1.5-1.5-.5 1 2-2.5 1.5v-1l1.5-.5-1.5-2.5-1 2-.5-1.5zm-378.5 1 1 2zm86 0v3q-3-1.5 0-3zm102 0 1 2zm232 0q2.7 1.3.5 2.5l-.5 1.5-2.5-.5 3-2zm-569 2 1 2-1.5-.5 2 4-2-1-1-3zm110 0 1 2q-2.8.7-1-2zm39 1 1.5 3.5-.5 1.5-1.5-2.5zm182 0q2.3-.7 1.5 1.5l1.5 2.5 1-3 1.5 5q3-1.2 2 2.5h-1l-.5-1.5-1 5q-2.7-1.2-.5-2.5.8-2.2-1.5-1.5v-1l1.5-.5q-4.5-2.5-4.5-6.5zm240 0 .5 2.5h-1zm-612 2-1 2-1.5-.5zm150 0 2.5.5-3 1 3 2 1 3-2-1q1.1-3.3-1.5-2.5-3-1.5 0-3zm458 0 2.5 1.5-3 2q.8 2.3-1.5 1.5l-2.5 1.5 2-4 .5-1.5 2 1zm-569 1 .5 3 4 1.5-3.5 4.5-2.5-1-.5 9-2-2-4 2-3.5-3.5q-.7-2.2 1.5-1.5v-2q1.3 2.2 2.5-.5l4.5-5.5v2l4 1 1.5-2.5-3 1 1-2h-2zm-4.5 7q-3 1-1 3l-4 3h4l2-4 1 2 1-3-1-1zm1 4-2 4h3zm495.5-9 1 2zm-340 1 1.5 2.5-2-1zm-42.5 1 2 .5-1 3h1l.5-1.5 2 3-2.5-1 1 2.5-2.5 1.5.5-1.5zm377.5 0 1 2zm86 0 .5 1.5-1 2.5-3.5 1v-1l3.5-2.5zm-10 2 1.5 2.5q-2.5 1.5 1 3l-2.5 5.5-.5-1.5 1-2-3-4 3-1zm-559 1-1 2zm148 0 1.5 3.5h-1zm136 0-1 2-1.5-.5zm52 0 .5 4.5-1.5 2.5-1.5-2.5h2zm156 0 .5 1.5-2 1zm-204 1 5.5 1v4q5.6-1.9 4 3l-2.5-1h-2q-2.2.8-1.5-1.5l-1-3q.8-2.6-2.5-1.5z"/><path d="m453.5 111 2.5 3.5-3-2zm148 1 3.5 3.5-1.5 1.5q1.7-2-2-4l-.5 1.5q2.3 1.3-.5 2.5l-.5-2.5zm-163 1q2.6-.8 1.5 2.5l-1 2 .5 3.5q-2.2.8-1.5-1.5l-.5-3.5q2.3.8 1.5-1.5h-2zm95 0 2.5 1.5-.5 2.5-.5-3q-2.7-1.1-2 1.5 2.2 1.3-.5 2.5l-2.5 1.5-.5 1.5-.5-1.5q3.1-1.7 1.5-3.5 2.3.8 1.5-1.5zm11 0 .5 2.5h-1zm44 0 2 1 1.5-.5-1.5 2.5-.5-2zm63 0q2.6-.8 1.5 2.5-2.2 1.3.5 2.5l1-2q2.8 1.3.5 2.5l-.5 1.5h-2l-3-2-1.5.5q-.8-2.6 2.5-1.5l1.5-2.5zm-103 2 1 4-1.5.5 3 2h-2l-.5 1.5-2-4-2 3-.5-1.5zm166 0-.5 1.5q-.7 2.3 1.5 1.5l-1 2-1.5-.5v-2zm-449 1-.5 1.5.5 1.5 3.5-2.5-.5 2.5q-1.5-2.5-3 1l-1.5-1.5zm320.5 0 3.5 2 2-1-.5 1.5 1 2-1 5 1 2.5-2-.5v-7.5h-2.5l.5-1.5-.5-1.5-2 4-.5-2.5zm-150.5 2 .5 2.5-1.5 5.5-.5-4.5zm13 0 1 2zm86 0 1.5 3.5h-1q.8-2.2-1.5-1.5zm68 0-.5 1.5-.5 3.5-1.5-3.5zm3 0 .5 2.5h-1zm106 0-1 2zm-253 1 .5 2.5h-1zm198 0 2.5 3.5-3 2 1-2zm-506 1 2.5 1-1 2.5 2.5 1.5v-2l2.5-.5-2-1 1.5-.5 1.5.5.5-1.5.5 1.5-.5 2.5-1.5-.5q.8 2.3-1.5 1.5l-2.5 1.5-2-3 1-1zm117 0 .5 4.5-1.5 1.5-1.5.5 2 .5-2.5 4-1.5-.5 1 2v2l-2.5 2.5-3-2v4q-2.2.8-1.5-1.5l.5-1.5-2.5 1.5 1 2-2.5.5-2 1-.5-2-3.5-2-.5 3 3 .5-2.5.5-2-1-2 1v-1l2.5-1.5-.5-1.5 2-1 2.5.5 1.5 2.5.5-1.5-.5-1.5 2 3 3.5-4.5-.5-1.5 2 1-.5-1.5 1.5-2.5 2 1 .5-1.5-.5-1.5h2l1.5-.5-1-3 1-2-.5-1.5q1.5 2.5 3-1zm-5.5 12-2 3 3-2zm45.5-12-1 2zm83 0 1.5 3.5h-1zm103 0 1.5 2.5-2-1zm216 1-1 2zm2 1-2.5 3.5.5 1.5 2.5-1.5q1.7 5.8-2 4.5l-2.5-4-1.5-.5q1.3-2.8 2.5-.5zm-405 1 .5 2.5q1.9 5.4-1.5 4.5l.5 3.5-1.5 1.5-.5-4.5 2-2-1-4zm151.5 0 2 .5-1 3 .5 1.5q-2.5-1.2-1.5-5z"/><path d="m531 123q4.9-1.8 3 4.5h-1l-.5-3.5-1.5 1.5v42l-2.5 4.5-.5-1.5 2-3v-39l-1-2zm19.5 0 .5 2.5h-1zm110 1 1.5 2.5-2-1zm-320 1 2 1 1.5-.5-3.5 2.5v-1l1.5-.5zm47 0q2.3-.7 1.5 1.5l-2.5 1.5-2.5-1.5 1.5-.5 2 1zm52 0 .5 6.5h-1z"/><path d="m535.5 125 .5 2.5h-1zm13 0 .5 2-2-.5zm56 0 .5 43.5h-1zm-167 1 .5 8.5-2 1zm106.5 0 2 .5-2 1zm40.5 0 2.5 1.5-1.5.5zm73 0 .5 2.5 1 2v2l-2.5 2.5.5-1.5-1-3v-2zm-502 1 2.5 1.5.5-1.5.5 1.5-2 3 2 4q1.1 3.3-1.5 2.5l.5-1.5-2-3v-2l1-2-3-1zm395 0 .5 42.5h-1zm109 0 1.5 2.5h-1zm-202 1 .5 2.5h-1zm249 0q2.3-.7 1.5 1.5zm-612.5 3 10 .5-9 1 8.5.5 3.5 2.5-1.5.5-2-2h-8l-1-1-2.5.5q-.8 2.6 2.5 1.5v1l-3.5-1.5 1.5-2.5 1.5.5zm11 0 2 .5-.5 1.5q2.3.8 1.5-1.5l2 1-2 1 1.5 2.5-4.5-3.5zm354.5 0 .5 3.5-1 4.5-3-1.5q3.6-1.4 3.5-6.5zm249 0 2.5.5-.5 2.5q-2.2.8-1.5-1.5zm-596 1 1 2h2l3.5 2.5-1 2h2l-1 3.5h-2q1.1 2.7-1.5 2l.5-1.5-1-4.5-2-.5 1.5-.5 3 4 .5-1.5-2.5-4.5-3.5.5.5-1.5-1.5-.5zm126 4 2 1 1.5-.5-2.5 1.5zm65 0 .5 1.5-2 4 .5 1.5-1.5.5 1.5 2.5-2.5-3.5zm37 0 1 2zm53 0 2 1 1.5-.5.5 1.5q1.2-2.2 2.5.5l-.5 4.5-2.5-1q1.1-2.7-1.5-2l.5 1.5-.5 1.5-2-3-1.5.5.5 1.5-1-1h-48l-2-1-1.5.5 2.5-1.5 1 1h48q3.7-2 2-4zm256 0 2 2q1.8-3.7 3.5-.5l-1.5 2.5-1-2q.6 4.6-2 6l-.5-1.5 1-4-3 1q3.1-1.7 1.5-3.5zm69 0q2.8 1.3 1.5 6.5-2.2 1.3.5 2.5 2.3-.7 1.5 1.5 3.7 1.2 3 5.5l2.5-1-.5 1.5q.5 4-2.5 4.5l1.5-2.5-1-1-7.5-10.5-2.5-.5q2.3-1.2-.5-2.5l-1.5-.5.5-2.5 2.5.5-1 2 2-1zm.5 1-2 4 2-1zm-281.5 0 1.5 2.5v2l1 2-1.5.5-1.5-1.5 1-3zm-325 2 1.5 2.5-2 1 1-2zm125.5 0 3 .5-2.5 1.5zm256.5 2 .5 4.5h-2l-.5 2.5q-2.7-1.2-.5-2.5l.5-3.5 1 2zm-374 1-1 2zm321 2 2.5.5-2.5.5zm6 0 .5 1.5-1.5 2.5-2.5-.5 1.5-2.5zm2 0 2.5.5-2.5.5zm194 0 1.5 2.5-2-1z"/><path d="m723.5 144q2.3-.7 1.5 1.5l3 4h-1zm-424 1-1 2zm348 0 1 2zm-197 1 2.5.5-4.5 1.5v-1zm-149 1 1.5 5-2.5-1-1.5.5-.5-1.5-1.5.5 1.5-2.5.5 2 2.5 1 .5-2-2-.5zm345 0 .5 2.5-1.5 1.5-1.5.5.5 1.5-2-3-1.5 1.5 2 2-.5 2.5-2.5-.5 1-3q-2.5-1.5 1-3l.5-1.5 1 2zm-152 1 .5 2.5h-1zm-4 1 1 2zm231 1 1.5 3.5h-1zm-232 1 .5 2.5-3 2zm192 0q2.3-.7 1.5 1.5l3 1 1 4q-.5 3-4.5 2.5l1.5-2.5 1-2-1.5-.5q-3.7 2.3-4 8l-1-2-2 1v-1l1.5-.5-.5-1.5 1.5.5-1-2q2 1.7 4-2l-1.5-2.5 2.5 1.5zm-387 1 1.5 1.5-2 4 1.5 2.5h-2l-3-2v-1l4.5-1.5zm3 0 .5 15.5h-1zm195 0 .5 4.5q-2.2 1.3.5 2.5l1.5.5-1.5.5-4-2-3.5 3.5v2l-1 3 .5 1.5-2.5-1.5 1-2-2-.5-1 2.5.5 1.5-1.5-.5-1 3.5q-3 1-2-2l2-.5-.5-1.5 1.5-.5-1-1 5.5-5.5q1.8 2.8 3.5-1.5-.7-2.2 1.5-1.5zm-7.5 9-2 2 2 1z"/><path d="m494.5 153 .5 4.5h-1zm231.5 4 2 .5-1.5 2.5zm-236.5 3 .5 12.5h-1zm241 0-2 3zm-94 1 1 2zm52 0h1.5v4h1.5v1l-3 1-.5-1.5 1-3zm45 1 2.5.5-3 1.5-1 3.5h2l-.5 2.5-3.5-4.5h2zm-451 1q4.4-1.5 3.5 1.5l1.5 2.5q-1.5-2.5-3 1l-1.5-1.5 1.5-2.5-3 1zm394 0v2q3.3-1.1 2.5 1.5-2 3.5-4-1zm-42 1q3 1.5 0 3l-2 1 1-2 1.5-.5zm-355 1 2 3-3-1-1.5.5zm152.5 0 3 1.5h-3zm5.5 2 4.5 3.5-2.5.5-2.5-1.5zm-385 1q2.8 1.3.5 2.5l2.5 3.5 1-1h32.5l1 2.5-2.5.5h-32l-.5-1.5-3-2 2 3-2.5.5q-2.2.8-1.5-1.5l1-2-1.5.5-1.5-.5 2-.5zm4.5 6v1h31zm34.5-6 3 4-2.5-1q-1.1 2.7 1.5 2l2.5.5-2.5 1.5-2.5-.5.5-1.5-2.5-1.5 3-1zm3 0 1 2zm64 0-1 2zm112 0q2.8 1.3.5 2.5l1 2-2-1 1-2zm205 0-1 2-1.5-.5zm56.5 0h3v5q-2.7 1.1-2-1.5zm12.5 0 .5 2.5h-1zm129 0 2.5.5-1 2.5-2.5 1-.5-2.5zm16 0h4.5v6.5h1l.5-1.5.5 2 32 .5-33.5.5-3.5-2q1.1 2.7-1.5 2l.5-1.5q-.8-3 3-1.5v-4q-3-1.2-2 2.5l-2-1zm-569 1 5 3 1.5-.5-.5 1.5h25l.5-2h3.5l2 1q1.5-2.5 3 1h32l5-3v2l2-1v2l56.5.5-57.5.5-2-1 1 3-4-2h-33l-2-2-1 2 2 1 32.5.5-32.5.5-2-1-1.5.5.5-1.5q-3.3-1.1-2.5 1.5l-2.5.5h-24l-1-1q-1.2 2.3-2.5-.5h2q.8-2.6-2.5-1.5l-2.5 1-1-2.5zm73.5 3v2l2-1zm-66 2v1h24zm138.5-5 2.5 1.5-6.5 5.5 2.5-3.5-1-2h2zm31 0 .5 1.5v2q-.7 2.6 2 1.5v2q-2.7 1.1-2-1.5h-1l-.5 1.5-.5-1.5 1-2v-2zm103 0 2 4 .5-2 2 .5v2q1.3 4.2-3.5 2.5v-1q3.3 1.1 2.5-1.5l-1.5.5-2-1-1.5.5q3.5-1.5 1-3zm32 0h2l4.5 4.5-.5 2.5q-2.6.8-1.5-2.5l-2.5-2.5h-2q-2.2-.7-1.5 1.5l2.5 3.5q-2.2.8-1.5-1.5l-3-1zm199 0q2.3-.7 1.5 1.5l-4 2q.7 2.6-2 1.5 1.3-3-2.5-2v-1l3 1zm-160 1 4.5 1.5-5.5 2.5-.5-1.5zm75 0 1.5 2.5-2.5 3.5-.5-2.5zm58.5 0 3 1.5-3.5 1.5.5-1.5z"/><path d="m257.5 171 2.5 1.5-3.5 3.5h-56v-1h56l.5-1.5zm42 0 4.5.5-.5 1.5h89l1.5 1.5-.5 1.5h-90l-2.5-.5q-.7-2.2 1.5-1.5v-1q-5.1 1.3-3-2zm4.5 3v1h89z"/><path d="m392.5 171 2 1 3.5-.5-.5 2.5-1.5.5.5 1.5q-2.7-1.2-.5-2.5l-.5-1.5h-2zm13.5 0 2 .5v2l.5 1.5h15v1h-16l-.5-2.5zm21 0 2 .5-1.5 2.5zm17.5 0 2.5 1.5-1.5.5-1.5-.5-.5 1.5-1-2zm105 0 .5 2.5h-1zm85 0q2.3-.7 1.5 1.5zm34 0 2 3-4.5-.5 2-.5zm11 0 .5 1.5-1 2.5-3.5 1v-1l3.5-2.5zm50 0 1.5.5-2 1 .5 1.5q-3-1.5 0-3zm3 0 2.5.5-2.5 4.5-1.5-2.5 2-1zm-464 1 .5 2 3 1.5h-3l-.5-1.5-2 1zm195.5 0 3 .5-2.5 1.5zm174.5 0-.5 1.5-1.5 2.5-1.5-.5 2-.5zm-198 1q3 1.5 0 3zm10 0 5.5.5-5.5.5zm7 0 5.5 1.5-3.5.5zm34 0 3.5 2.5-1.5.5zm139 0h2q2.3-.7 1.5 1.5l-3.5 1.5-1.5-.5zm105 0 .5 2.5h-1zm-475 1-1 2zm185 0 2.5 1.5-1.5-.5zm29 0 3.5.5-3.5.5zm14 0 2.5 1.5-1.5.5zm41 0 2.5.5q.8 2.3-1.5 1.5zm4 0 2.5.5-2.5.5zm-37 1 31.5.5-31.5.5zm55 0 32.5.5-32.5.5zm56 0 16.5.5-16.5.5zm33 0 23.5.5-23.5.5zm25 0 2.5.5-2.5.5zm5 0 3.5.5-3.5.5z"/></g><path d="m54 56h71.5l2 2h2l2-1q10.3 1.8 15.5 8.5l2.5 3.5 2.5 1.5q4.4 6.6 4 18v2l-1 2 1 2-1 4.5q-2.7-1.1-2 1.5v2l-2 4.5h-2v2q-2.7-1.1-2 1.5l-8 4.5q-1.1 2.7 1.5 2l11.5 8.5q3.5 4.5 4 12-2.5 1.5 1 3v27l-1 1 .5 1.5h-34.5v-27.5q2.5-1.5-1-3l-4.5-6.5-6-3h-20l-1.5 1.5 1 1v37.5h-35.5l-.5-.5zm52 25-1 1h-15v23h19l1 1 9-3 2-2 2-6-1-7-5-5h-5zm13 0-2 2h2zm41-25h35.5l.5.5v113.5h-35.5l-.5-.5zm40 0h63.5q20.2 3.8 30.5 17.5l8 15 3 13v16l-1 1 1 3v2l-3 14-5.5 9.5-1.5.5 1 2-7.5 8.5-16 9q-1.5-2.5-3 1l-9 2h-60.5zm36 28v58h16l1-1 3 1v-2l3 1 2-3q3 1 2-1l3-2-1-1q4-5 4-14v-2l2-1-2-9v-7l-4-9-8-7-4-1z" fill="#f8faf9" stroke="#f8faf9"/><path d="m304 56h93.5l.5.5v25.5h-57.5l-.5.5v16.5h47.5l1.5 1.5v20l-1 1 1 3-4.5.5h-43l-1-1-.5 11.5-1 1 1 3v2l.5 1.5h57.5v27h-93.5l-.5-.5v-29l3-7 2-21 1-1-2-10v-2q0-7-3-11 2.5-1.5-1-3zm135 0h14.5l.5 4h-6v15.5l-1.5.5-1.5-1.5v-13l.5-1.5h-6.5zm18 0q10.7-1.9 15 3.5v6.5q-2.7-1.1-2 1.5l-1 3 3 5.5q-5.2 2.1-4-2.5l-3-5.5h-5v8h-3v-15.5l1-1zm3 4v5h9v-3l-1-2zm22-4q5.2-2.1 4 2.5l.5 2.5q2.6-.8 1.5 2.5l2 4-.5 1.5q2.6-.8 1.5 2.5l2 4.5q-5.2 2.1-4-2.5l-1-2.5-2.5-1-5.5 1q1.1 2.7-1.5 2l.5 1.5-.5 1.5h-2l-1.5-.5zm2 5-3 5 2 3 4-1zm12-5 4 1.5 6 10.5 3-.5q-2.5-1.5-1-7l.5-4.5q3.3-1.1 2.5 1.5l-1 2 1 1v10q1.3 6.1-1.5 5.5l-2.5-1-7.5-12-1.5 6.5 1 5q-1.5 3-3 0zm23.5 0h5l3.5 2-1.5 3-6-2q-4.5 2-1 4l8.5 3.5-.5 1.5q3-.9 1.5 3.5l-2.5 3.5-6 1-5.5-3.5 2.5-1.5 5 2 2.5-1 1-2.5-8.5-3.5-2.5-2.5q-1-5.5 2.5-6.5zm11.5 0q6-2.2 4 4.5 2.3 1.2 1 6l1.5 1.5 1.5-7.5 2-2-1-2.5 4 1.5 2.5 10.5 2.5-12q3.8-1.5 3 1.5v2l-3 15-1.5 1.5q-3.3 1.1-2.5-1.5l.5-1.5q-3 .9-1.5-3.5l-2.5-7.5-2.5 12.5-1.5 1.5q-4.2 1.3-2.5-3.5zm52 0h10.5l5.5 4.5v2l-4 6 4 7-3.5.5-5-8q-3.7-.7-4.5 1.5l1 3v3.5h-4l1-3.5-1-2.5 2-.5-2-.5zm5 3-1 3v2q-1 2 2 1l3 1 2-1h1v-5h-6zm14-3 3 .5v13q-2.2 1.2.5 2.5h9l.5 2.5-3.5 1.5h-8l-.5-1.5-1-1zm16 0q11-1.8 15 4.5l1 8-3.5 5.5q-4.9 2.9-12.5 2zm5 3-1 11-1 1q1 2 7 1 4-2 2-9l-2-3z" fill="#f8faf9" stroke="#f8faf9"/><path d="m401 56h33v36.5l3.5-2.5 11-6h16q13.5 3.5 20.5 13.5l6 12 2 9v20q-2.8 17.2-13.5 26.5-8.6 8.4-26 8l-9-2-13.5-9v7.5l-.5.5h-29.5zm43 53-5 3-5 8-1 5 1 13 3 6 6 4q7 2 11-1 4-4 6-10v-16l-4-8q-3-5-12-4zm111-53h25v13l-4-1.5v-7.5h-17v12h19.5l-4 5-3 2-.5-3h-16zm-8.5 28h11l11 3 13 10q8.6-14.4 33-13 12.5 2.5 19.5 10.5l5 12v51l-9.5 12.5h-22.5v-49.5l-3-7.5q-3.9-3.3-13.5-2-5 3-6.5 9.5v49.5h-33v-51.5l-4.5-6.5-8-2-4 1-4.5 4.5-2 6v48.5h-32v-83h28.5l.5.5v8l1.5.5 2.5-4 9.5-6z" fill="#01adef" stroke="#01adef"/><path d="m635.5 87h37l1.5 1.5 10.5 19.5 10.5-21 37 .5-27 40 27 42.5h-36.5l-1.5-1.5-10-20.5q-2.7-1.1-2 1.5l-10 20.5h-37.5l-.5-1.5 29-42-23-31z" fill="#01adef" stroke="#01adef"/></svg>