<svg height="616" viewBox="0 0 119.64 29.5" width="2500" xmlns="http://www.w3.org/2000/svg"><g fill="#211749" fill-rule="evenodd"><path d="m87.88 15.85c-1.93 0-3.5-1.38-3.5-3.09s1.57-3.09 3.5-3.09 3.5 1.38 3.5 3.09-1.57 3.09-3.5 3.09m0-12.32c-5.65 0-10.23 4.16-10.23 9.23s4.58 9.12 10.23 9.12 10.24-4.06 10.24-9.12-4.58-9.23-10.24-9.23m19.06 5.96c.76 0 1.38.51 1.38 1.14v10.55h6.73v-10.96c0-3.7-3.63-6.69-8.12-6.69s-8.12 3-8.12 6.69v10.96h6.74v-10.55c0-.63.62-1.14 1.38-1.14m-35.64 6.75h5.65v-4.95h-5.65zm-50.82 4.94h6.35v-14.83h-6.35zm-20.47-21.18v21.88h7.51v-16.1h1.92c1.02 0 1.85.85 1.85 1.91s-.83 1.91-1.85 1.91h-.8v5.32h1.07c1.02 0 1.85.85 1.85 1.91v5.05h7.51v-4.71c0-2.17-1-4.1-2.54-5.33a6.808 6.808 0 0 0 2.27-5.1c0-3.72-3.26-6.74-7.7-6.74h-11.09zm67.68 14.72c0 1.03.83 1.86 1.85 1.86h.36v5.3h-2.27c-3.42 0-6.2-2.81-6.2-6.27v-14.2h6.27v5.61h2.2v5.39h-2.2v2.3zm-31.68 6.98h.99v-5.44h-.99c-1.22 0-2.21-.91-2.21-1.99s.99-2.04 2.21-2.04 2.21.95 2.21 2.04v5.35c0 3.72-2.64 4.49-6.81 3.26v4.9c7.61 1.72 13.07-1.48 13.07-7.38v-6.46c0-4.14-3.79-7.58-8.47-7.58s-8.47 3.74-8.47 7.89c0 4.76 3.79 7.46 8.47 7.46m18.89-15.17c-1.16 0-2.25.34-3.16.92v-6.05h-6.56v20.47h6.56v-8.28c0-.66.54-1.19 1.2-1.19s1.2.53 1.2 1.19v8.28h6.56v-10.28c0-3.2-2.41-5.05-5.81-5.05m-31.23-5.84c-1.75 0-3.18 1.26-3.18 2.82s1.42 2.82 3.18 2.82 3.18-1.26 3.18-2.82-1.42-2.82-3.18-2.82m94.23 20.82c-.78 0-1.41-.63-1.41-1.41s.63-1.41 1.41-1.41 1.41.63 1.41 1.41-.63 1.41-1.41 1.41m0-3.17c-.97 0-1.76.79-1.76 1.76s.79 1.76 1.76 1.76 1.76-.79 1.76-1.76-.79-1.76-1.76-1.76"/><path d="m118.1 20.02h-.75v-.66h.75c.24 0 .46.05.46.32 0 .22-.16.34-.45.34m.47.15c.08-.03.43-.13.43-.54 0-.36-.29-.57-.87-.57h-1.25v2.12h.46v-.87h.68c.42 0 .52.17.52.56v.31h.42v-.56c0-.34-.23-.43-.39-.45"/></g></svg>