<svg height="1369" width="2500" xmlns="http://www.w3.org/2000/svg" viewBox="0 -56.482 1000 603.947"><path d="M729.975 307.745c-217.553 36.873-417.898-71.289-415.03-154.459 2.458-79.073 132.744-74.566 180.27-63.504C390.33 9.07 210.06 20.542 166.631 23.41c-5.326.41-9.423-2.458-9.423-5.736 0-3.277 2.048-6.555 8.604-7.375C644.756-56.482 638.2 223.346 638.2 223.346s-57.768-68.011-126.598-81.941c-35.645-7.375-82.76-3.688-84.81 26.63-4.096 68.011 161.834 138.89 301.953 126.599 11.062-.41 11.062 11.472 1.229 13.11z" fill="#070606" stroke-width="1.717"/><path d="M635.258 547.465c-10.02 0-18.369-.954-27.434-3.579-9.303-2.624-17.175-6.679-24.332-12.404-6.918-5.725-12.643-13.597-16.698-23.14s-6.202-21.469-6.202-35.305v-106.87h46.517v107.347c0 5.248.715 10.02 2.385 14.075s3.817 7.633 6.441 10.257c2.624 2.863 5.725 4.771 9.304 6.203s5.963 1.908 10.019 1.908 6.202-.238 9.78-1.67 6.68-3.578 9.304-6.202c2.624-2.863 4.77-6.202 6.44-10.258s2.386-8.826 2.386-14.074V366.167h46.517v106.87c0 14.075-2.147 25.764-6.202 35.306s-9.78 17.175-16.699 23.139c-6.918 5.725-15.028 10.019-24.332 12.404-8.826 2.625-16.937 3.579-27.194 3.579zM161.498 366.167h46.279v177.72h-46.279zM1000 543.886v-42.461h-56.536l.238-135.258h-46.517v177.72zM368.56 409.822c-1.194-4.771-2.863-9.304-5.249-13.598s-5.01-8.349-8.35-11.927c-3.339-3.817-6.917-6.918-10.972-9.542s-8.588-4.771-13.36-6.203-10.018-2.385-15.505-2.385h-81.822v177.72h46.278v-62.023h36.26c8.11 0 15.505-1.67 22.185-5.01s12.404-7.634 17.175-12.882 8.588-11.45 10.974-18.368c2.624-6.918 3.816-13.836 3.816-20.992.239-5.248-.238-10.02-1.43-14.79zm-46.28 21.708c-.954 2.385-2.146 4.532-3.578 6.44-1.67 1.909-3.578 3.34-5.725 4.533-2.385 1.193-5.01 1.67-7.872 1.67h-25.286v-41.508h25.286c2.863 0 5.487.716 7.634 1.908 2.385 1.193 4.293 2.625 5.725 4.533a17.178 17.178 0 0 1 3.578 6.44c.954 2.386 1.193 6.203 1.193 8.589.238 2.385-.239 5.01-.954 7.395zM544.37 529.335l5.01-3.578-2.863-3.817v-.239l-4.77-6.202-12.644-16.937-7.156-9.78-8.827 6.679c-2.385 1.431-5.01 2.862-7.872 4.055-4.77 1.909-9.78 2.863-15.029 3.101-6.679.239-12.643-.715-18.368-3.1s-10.496-5.487-14.79-9.543-7.634-9.065-10.019-14.79-3.817-11.689-4.055-18.368.715-12.882 2.624-18.607c1.908-5.964 5.01-10.973 8.826-15.506s8.588-8.11 13.836-10.734c5.487-2.625 11.45-4.294 18.13-4.533 5.248-.238 10.257.477 15.267 1.908 4.77 1.432 9.303 3.579 13.359 6.441.238.239.477.239.715.239l3.34 2.147 2.147-3.578c0-.239.238-.239.238-.478l19.323-29.818c0-.239.239-.477.239-.477l2.146-3.579-3.578-2.147c-.477-.477-1.193-.954-1.908-1.43-7.872-4.772-15.983-8.35-24.57-10.736s-17.892-3.34-27.434-2.862c-8.588.238-16.698 1.67-24.332 4.294s-15.029 5.963-21.708 10.257-12.643 9.304-18.13 15.029c-5.486 5.964-10.019 12.405-13.597 19.323-3.817 6.917-6.441 14.551-8.35 22.423s-2.623 16.222-2.385 24.57c.239 8.589 1.67 16.7 4.294 24.333 2.386 7.633 5.964 15.028 10.258 21.47 4.294 6.679 9.303 12.642 15.028 18.13s12.166 10.018 19.084 13.596a81.823 81.823 0 0 0 22.424 8.35c7.872 1.908 16.221 2.624 24.57 2.385 9.542-.477 18.846-2.147 27.434-5.248 6.68-2.385 13.12-5.725 19.084-9.542l4.055-2.863c.477 0 .716 0 .954-.238zM107.109 473.991c4.294-2.385 8.349-5.486 11.927-8.826l1.432-1.431c3.1-3.101 5.725-6.441 7.872-10.02 2.624-4.293 4.77-8.826 6.202-13.835s2.147-10.02 2.147-15.506v-2.385c-.239-7.157-1.67-13.836-4.533-20.039-3.1-7.156-7.395-13.12-12.643-18.368s-11.689-9.542-18.845-12.404c-7.157-3.102-14.79-4.533-23.14-4.533H0v177.72h46.279V402.665h20.276c12.643.239 22.663 10.02 22.663 22.185 0 10.02-5.964 17.653-16.937 21.47-9.542 3.1-16.699 11.211-16.699 21.23 0 1.909.477 3.817.954 5.726 1.193 5.486 3.817 10.973 5.964 14.79l27.433 51.288c.954 1.67.954 1.908 2.147 3.34.954.954 2.386 1.192 3.578 1.192h48.665zM842.557 473.991c4.294-2.385 8.35-5.486 11.928-8.826l1.431-1.431c3.101-3.101 5.725-6.441 7.872-10.02 2.624-4.293 4.771-8.826 6.202-13.835s2.147-10.02 2.147-15.506v-2.385c-.238-7.157-1.67-13.836-4.532-20.039-3.101-7.156-7.395-13.12-12.643-18.368s-11.69-9.542-18.846-12.404c-7.156-3.102-14.79-4.533-23.139-4.533H735.21v177.72h46.279V402.665h20.276c12.643.239 22.662 10.02 22.662 22.185 0 10.02-5.963 17.653-16.937 21.47-9.542 3.1-16.698 11.211-16.698 21.23 0 1.909.477 3.817.954 5.726 1.193 5.486 3.817 10.973 5.964 14.79l27.672 51.288c.954 1.67.954 1.908 2.147 3.34.954.954 2.385 1.192 3.578 1.192h48.664z"/></svg>