<svg height="350" width="2500" xmlns="http://www.w3.org/2000/svg" viewBox="0 -24.74 1001.152 177.43200000000002"><path d="M996.803 136.38c-96.237 16.312-184.862-31.534-183.593-68.326 1.087-34.978 58.72-32.985 79.744-28.091-46.397-35.704-126.14-30.63-145.352-29.36-2.356.18-4.168-1.088-4.168-2.538s.906-2.9 3.806-3.262C959.105-24.74 956.206 99.046 956.206 99.046S930.65 68.96 900.203 62.799c-15.767-3.263-36.61-1.632-37.516 11.78-1.812 30.085 71.589 61.44 133.572 56.002 4.893-.181 4.893 5.075.544 5.8z" fill="#070606"/><path d="M482.634 140.187c-7.612 0-13.956-.725-20.843-2.719-7.068-1.993-13.049-5.074-18.486-9.424-5.256-4.35-9.605-10.33-12.686-17.58s-4.712-16.311-4.712-26.823V2.447h35.34v81.556c0 3.987.544 7.612 1.813 10.693s2.9 5.8 4.894 7.793c1.993 2.175 4.35 3.625 7.068 4.713s4.53 1.45 7.612 1.45 4.712-.182 7.43-1.27 5.075-2.718 7.069-4.711c1.993-2.175 3.624-4.712 4.893-7.794s1.812-6.705 1.812-10.692V2.447h35.342V83.64c0 10.693-1.632 19.573-4.713 26.823s-7.43 13.049-12.686 17.58c-5.256 4.35-11.418 7.612-18.486 9.424-6.706 1.994-12.868 2.719-20.661 2.719zM122.697 2.447h35.16v135.021h-35.16zM681.632 137.468h78.113v-32.26h-42.953l.181-102.761h-35.341zM280.01 35.613c-.905-3.625-2.174-7.068-3.986-10.33s-3.806-6.344-6.344-9.062c-2.537-2.9-5.255-5.256-8.336-7.25s-6.525-3.625-10.15-4.712-7.612-1.812-11.78-1.812H177.25v135.021h35.16V90.347h27.548c6.162 0 11.78-1.27 16.855-3.806s9.424-5.8 13.049-9.787 6.524-8.7 8.337-13.955c1.993-5.256 2.9-10.512 2.9-15.95.18-3.986-.182-7.611-1.088-11.236zm-35.159 16.493c-.725 1.812-1.631 3.443-2.719 4.893-1.268 1.45-2.718 2.537-4.35 3.443-1.812.907-3.805 1.27-5.98 1.27H212.59V30.175h19.21c2.176 0 4.17.544 5.8 1.45 1.813.906 3.263 1.993 4.35 3.443a13.05 13.05 0 0 1 2.719 4.894c.725 1.812.906 4.712.906 6.524.181 1.813-.181 3.806-.725 5.619zM413.582 126.413l3.806-2.719-2.174-2.9v-.18l-3.625-4.713-9.606-12.868-5.437-7.43-6.706 5.074c-1.812 1.087-3.806 2.175-5.98 3.081-3.625 1.45-7.431 2.175-11.418 2.356-5.075.181-9.606-.544-13.956-2.356s-7.974-4.168-11.236-7.25-5.8-6.886-7.612-11.236-2.9-8.88-3.081-13.955.544-9.787 1.993-14.137c1.45-4.53 3.806-8.337 6.706-11.78s6.525-6.162 10.512-8.156c4.168-1.993 8.7-3.262 13.774-3.443 3.987-.182 7.793.362 11.6 1.45 3.624 1.087 7.067 2.718 10.148 4.893.182.181.363.181.544.181l2.537 1.631 1.632-2.718c0-.181.18-.181.18-.363l14.68-22.654c0-.182.182-.363.182-.363l1.631-2.718-2.718-1.631c-.363-.363-.906-.725-1.45-1.088-5.981-3.625-12.143-6.343-18.668-8.156S376.248-.272 368.998.091c-6.524.18-12.686 1.268-18.486 3.262s-11.418 4.53-16.492 7.793-9.606 7.068-13.774 11.418c-4.169 4.53-7.612 9.424-10.331 14.68-2.9 5.256-4.893 11.056-6.343 17.036s-1.994 12.325-1.813 18.668c.182 6.524 1.269 12.686 3.263 18.486a64.433 64.433 0 0 0 7.793 16.311c3.262 5.075 7.068 9.606 11.418 13.774s9.243 7.612 14.499 10.33a62.164 62.164 0 0 0 17.036 6.344c5.98 1.45 12.324 1.994 18.667 1.812 7.25-.362 14.318-1.63 20.843-3.987 5.074-1.812 9.968-4.35 14.499-7.25l3.08-2.174c.363 0 .544 0 .725-.181zM81.375 84.366c3.263-1.813 6.344-4.169 9.062-6.706l1.088-1.087c2.356-2.357 4.35-4.894 5.98-7.612 1.994-3.263 3.625-6.706 4.713-10.512s1.63-7.612 1.63-11.78v-1.813c-.18-5.437-1.268-10.512-3.443-15.224-2.356-5.437-5.618-9.968-9.605-13.955s-8.88-7.25-14.318-9.424c-5.437-2.356-11.237-3.444-17.58-3.444H0v135.022h35.16V30.176h15.405c9.606.181 17.218 7.612 17.218 16.855 0 7.612-4.531 13.411-12.868 16.311-7.25 2.356-12.687 8.518-12.687 16.13 0 1.45.363 2.9.725 4.35.906 4.168 2.9 8.337 4.531 11.237l20.842 38.966c.725 1.268.725 1.45 1.631 2.537.725.725 1.813.906 2.719.906h36.972zM640.129 84.366c3.262-1.813 6.343-4.169 9.061-6.706l1.088-1.087c2.356-2.357 4.35-4.894 5.98-7.612 1.994-3.263 3.625-6.706 4.713-10.512s1.63-7.612 1.63-11.78v-1.813c-.18-5.437-1.268-10.512-3.443-15.224-2.356-5.437-5.618-9.968-9.605-13.955s-8.88-7.25-14.318-9.424c-5.437-2.356-11.237-3.444-17.58-3.444h-59.083v135.022h35.16V30.176h15.405c9.606.181 17.218 7.612 17.218 16.855 0 7.612-4.531 13.411-12.868 16.311-7.25 2.356-12.687 8.518-12.687 16.13 0 1.45.363 2.9.725 4.35.906 4.168 2.9 8.337 4.531 11.237l21.024 38.966c.724 1.268.724 1.45 1.63 2.537.726.725 1.813.906 2.72.906h36.972z"/></svg>