<svg height="711" width="2500" xmlns="http://www.w3.org/2000/svg" viewBox="-0.614 -0.553 2671.047 765.673"><path d="M43.91-.267l4.278-.014c3.91-.012 7.82-.012 11.73-.01 4.22 0 8.44-.01 12.66-.02 8.265-.016 16.53-.022 24.795-.023 6.719-.001 13.438-.005 20.157-.012 19.055-.017 38.11-.026 57.164-.025h6.228c16.663.001 33.327-.018 49.99-.046 17.116-.029 34.23-.042 51.346-.04 9.607 0 19.214-.006 28.82-.027 8.18-.018 16.36-.023 24.538-.009 4.172.006 8.343.007 12.514-.01 3.823-.016 7.645-.014 11.468.004 2.03.004 4.059-.01 6.088-.027C376.828-.442 385.758 2.291 394 10c7.878 8.79 11.156 17.235 11.131 28.93l.007 2.778c.005 3.094.004 6.19.002 9.284l.01 6.697c.008 6.153.01 12.306.01 18.459.002 5.949.008 11.898.014 17.847.016 15.947.022 31.893.027 47.84.002 7.548.006 15.096.01 22.644a213414.289 213414.289 0 0 1 .03 97.091v2.453c.003 26.211.02 52.422.042 78.634a98386.7 98386.7 0 0 1 .04 94.593c.002 12.047.013 24.093.027 36.14.015 12.126.018 24.254.01 36.38-.004 6.563-.003 13.126.011 19.688.013 6.02.012 12.041 0 18.061-.002 2.166 0 4.332.01 6.498.214 56.638-21.56 107.29-60.944 147.795C339.561 706.55 334.365 710.83 329 715c-.544.425-1.087.85-1.647 1.29C300.915 736.826 270.778 749.712 238 756l-3.36.652C183.966 765.12 128.916 752.724 87 723c-9.242-6.688-17.757-14.128-26-22l-2.805-2.645C51.042 691.435 44.87 684.012 39 676l-1.26-1.716C11.183 637.588-.157 594.406-.148 549.554l-.011-4.56c-.01-4.141-.014-8.283-.017-12.424-.004-4.48-.013-8.96-.022-13.44-.02-10.795-.03-21.59-.039-32.385L-.25 471.47a88357.617 88357.617 0 0 1-.046-67.266c-.008-17.67-.033-35.34-.066-53.01-.033-18.165-.05-36.33-.054-54.495-.002-10.19-.01-20.38-.036-30.57-.022-8.672-.03-17.345-.02-26.018.004-4.42.002-8.841-.017-13.262-.018-4.054-.017-8.108-.001-12.162.002-1.46-.002-2.919-.014-4.378-.11-14.224 2.287-25.865 12.353-36.207 7.945-7.488 16.326-10.252 27.076-10.25l2.437-.01c2.698-.011 5.396-.015 8.094-.019l5.8-.02c6.354-.02 12.708-.031 19.061-.041l6.567-.013c10.287-.019 20.573-.033 30.86-.041 11.863-.01 23.726-.036 35.59-.077 9.175-.03 18.35-.045 27.526-.048a3938.82 3938.82 0 0 0 16.431-.036c5.158-.024 10.314-.028 15.472-.018 1.886 0 3.773-.006 5.66-.02 14.35-.098 25.702 1.125 36.578 11.491 9.957 10.49 10.59 22.794 10.518 36.506.005 1.747.012 3.494.02 5.242.019 4.717.012 9.433 0 14.15-.01 4.953-.001 9.906.005 14.86.007 8.314-.002 16.63-.022 24.945a6304.52 6304.52 0 0 0 .008 28.777c.018 8.259.02 16.517.01 24.776-.006 4.922-.007 9.845.006 14.767.012 4.63.004 9.259-.02 13.888-.005 1.692-.003 3.384.006 5.076.066 13.935-1.947 24.957-11.656 35.575-8.473 8.184-19.314 10.698-30.775 10.614l-2.663-.051-2.767-.027A806.311 806.311 0 0 1 205 404l.008 2.356c.067 18.956.116 37.912.147 56.868.016 9.168.037 18.335.071 27.502.03 7.994.05 15.989.056 23.983.004 4.23.013 8.458.035 12.687.02 3.99.027 7.978.022 11.967.001 1.456.007 2.912.019 4.368.107 14.142-1.452 25.916-11.432 36.46-9.026 8.554-18.178 11.221-30.446 11.082-10.7-.84-18.934-5.417-26.226-13.117-9.085-11.056-8.838-23.378-8.787-36.94a2777.804 2777.804 0 0 1-.037-22.129c.005-4.506-.002-9.011-.01-13.517-.017-10.633-.013-21.266.004-31.899.017-10.948 0-21.895-.032-32.843a7561.43 7561.43 0 0 1-.025-28.264c.005-5.617.003-11.234-.018-16.851-.018-5.284-.012-10.567.012-15.851.005-1.932.002-3.863-.01-5.795-.089-14.539 1.524-25.911 12.04-36.868C153.54 326.115 165.448 328 183 328v-88H76a149170.983 149170.983 0 0 0 .262 137.756l.007 2.93c.035 15.62.06 31.238.081 46.858.022 16.046.055 32.092.099 48.139.026 9.888.044 19.776.05 29.665.006 6.796.022 13.591.047 20.387.014 3.911.023 7.823.019 11.734-.076 29.557-.076 29.557 6.56 58.218l.911 2.618C93.604 624.78 111.42 646.763 135 662l3.023 1.96c26.53 16.288 61.979 22.176 92.348 15.067L234 678l2.086-.57c31.117-8.686 58.5-28.975 74.973-56.895 12.556-22.514 17.248-44.117 17.22-69.77a6604.576 6604.576 0 0 0 .038-23.006c.003-6.066.019-12.131.032-18.196.023-10.502.038-21.003.048-31.504.01-11.009.025-22.018.045-33.028l.004-2.077.019-10.443c.046-24.634.082-49.269.113-73.903.03-23.927.065-47.854.105-71.78l.003-2.237a1125955.253 1125955.253 0 0 1 .113-67.524l.003-2.103c.076-46.321.138-92.643.198-138.964l-1.881.002a169201.397 169201.397 0 0 1-126.328.11c-14.243.008-28.486.024-42.73.042-14.616.019-29.233.03-43.85.034-9.017.003-18.035.012-27.053.028-6.185.01-12.371.014-18.557.011-3.567-.001-7.135 0-10.702.011-3.873.012-7.745.008-11.617.003l-3.4.017c-13.096-.05-23.044-2.886-32.769-11.922C2.81 56.262-.55 46.177-.25 35.386.593 27.338 3.18 20.474 8 14l1.828-2.496c2.306-2.658 4.513-4.321 7.484-6.192.904-.58 1.808-1.162 2.739-1.761C27.855-.553 35.242-.288 43.91-.267z" fill="#324f7a"/><g fill="#121212"><path d="M1276.542 231.328a300.816 300.816 0 0 1 9.026 8.307 443.802 443.802 0 0 0 4.17 3.908c36.038 34.473 55.509 85.554 56.614 134.815.389 52.187-19.085 100.427-54.352 138.642l-1.417 1.538c-6.688 7.17-14.007 13.284-21.833 19.143a301.074 301.074 0 0 0-4.875 3.776c-39.184 30.16-91.534 40.765-139.9 35.022-46.139-6.123-92.045-29.244-121.975-65.479l-2.293-2.633c-27.208-31.637-45.522-74.11-45.945-116.152l-.03-2.456C953.174 331.631 972.199 281.795 1013 240c64.762-64.189 172.326-73.533 263.542-8.672zM1119 257l-1.946.488c-32.554 8.409-60.442 29.799-77.877 58.482-16.619 28.654-22.356 63.734-14.177 96.03 6.058 22.654 17.49 41.56 33 59l1.73 1.988c19.576 21.085 51.399 34.814 79.953 36.136 36.662.985 69.788-8.426 97.024-33.929L1239 473l2.262-2.07c6.62-6.263 11.718-13.373 16.738-20.93l1.906-2.828c17.093-27.192 21.984-61.94 15.055-93.059-8.395-34.92-28.513-63.278-58.879-82.691-19.861-12.144-42.683-17.845-65.832-17.734l-3.71.014c-9.498.123-18.343.956-27.54 3.298zM1405 189c15.849-.047 31.698-.082 47.547-.104 7.362-.01 14.724-.024 22.086-.047 6.43-.02 12.861-.033 19.292-.037 3.392-.003 6.784-.01 10.177-.023 21.769-.085 43.935-.025 65.335 4.461l3.239.655c35.62 7.48 67.15 23.841 93.324 49.095l2.387 2.23c29.862 28.612 45.631 71.307 49.613 111.77l.336 3.29c4.302 49.645-6.057 104.046-37.899 143.585A408.47 408.47 0 0 1 1676 509l-2.281 2.613A420.037 420.037 0 0 1 1667 519l-1.852 2.016c-30.532 31.962-79.572 50.82-123.29 52.074a922.51 922.51 0 0 1-10.845.024h-4.142c-3.718 0-7.437-.006-11.155-.013-3.897-.006-7.794-.006-11.691-.008-7.366-.003-14.733-.01-22.099-.021-9.963-.013-19.927-.019-29.89-.024-15.679-.01-31.357-.03-47.036-.048v-68l29.738-.113c6.248-.03 12.496-.062 18.744-.096 9.9-.054 19.798-.106 29.697-.137 7.213-.024 14.425-.057 21.638-.103 3.81-.023 7.621-.042 11.432-.049 28.428.117 28.428.117 56.001-6.19l2.211-.77c27.65-10.026 49.123-30.607 61.851-56.855 4.2-9.003 7.53-17.988 9.688-27.687l.487-2.175c7.526-35.334 1.133-72.612-18.3-103.013-14.733-21.18-34.715-37.108-59.687-44.625l-1.936-.59c-12.449-3.501-25.074-3.916-37.9-4.011a3980.668 3980.668 0 0 0-17.465-.187c-4.311-.04-8.622-.091-12.933-.141-8.422-.096-16.844-.18-25.266-.258l.011 2.591c.089 20.807.155 41.614.196 62.42.02 10.062.049 20.124.095 30.186.04 8.77.065 17.54.074 26.31.006 4.644.018 9.287.047 13.93.027 4.372.035 8.744.03 13.115 0 1.604.008 3.208.024 4.811.02 2.192.015 4.383.004 6.576l.011 3.715c-.595 4.043-1.937 6.188-4.492 9.346-5.691 3.397-10.948 3.454-17.465 3.434l-3.006.015c-2.09.007-4.18.006-6.27-.003-3.183-.008-6.364.02-9.546.052-2.039.002-4.077.001-6.115-.002l-2.858.034c-5.86-.061-11.048-.75-15.74-4.53-3.685-4.627-3.415-8.915-3.36-14.56l-.009-2.934c-.004-3.246.012-6.492.028-9.738v-6.977c-.002-6.318.016-12.636.037-18.953.017-5.933.02-11.865.023-17.797.006-11.75.026-23.499.055-35.248.027-11.413.048-22.825.061-34.238l.003-2.132.011-10.59c.031-29.277.084-58.555.151-87.833zM2648.11 228.336A181.238 181.238 0 0 1 2655 235c-1.51 3.977-3.325 7.715-5.273 11.496l-.97 1.885c-1.042 2.02-2.087 4.039-3.132 6.057l-1.076 2.082a1319.952 1319.952 0 0 1-18.474 34.498A171.964 171.964 0 0 0 2623 297c-4.464-1.406-6.73-3.523-9.875-6.937-20.589-21.35-50.193-34.813-79.918-35.364-2.798-.029-5.596-.026-8.394-.011l-2.208.005c-20.697.087-41.872 2.368-57.632 17.217-7.464 7.937-10.351 16.934-10.188 27.727.622 6.843 3.319 13.49 8.215 18.363 22.539 17.144 53.488 21.414 80.438 27.063 35.84 7.548 72.605 17.82 99.562 43.937l1.848 1.625c14.039 12.792 22.498 33.797 24.152 52.375 1.433 34.26-4.581 64.028-28 90l-2.262 2.512c-28.877 30.404-71.597 41.095-112.175 42.617-50.552.846-98.782-15.73-137.563-48.129l-2.844-2.375c-11.145-9.668-11.145-9.668-14.156-15.625.44-3.652 1.542-6.339 3.379-9.5l1.52-2.647 1.664-2.853c1.177-2.049 2.353-4.098 3.527-6.148l1.906-3.324c3.978-6.975 7.816-14.03 11.68-21.068l2.03-3.695c.898-1.633 1.795-3.266 2.691-4.9A251.074 251.074 0 0 1 2405 450c2.955 1.315 4.862 2.669 6.996 5.09l1.672 1.86 1.77 1.988c24.037 26.278 58.492 46.31 94.562 49.062 27.477 1.085 57.7.76 79.184-19.031 7.928-8.594 11.544-19.672 11.164-31.274-1.138-8.816-5.738-16.765-12.465-22.5-21.447-15.821-47.267-19.944-72.786-24.963-26.373-5.247-53.627-11.655-77.097-25.232l-3.254-1.766c-6.822-3.79-12.798-8.2-18.746-13.234l-1.895-1.488C2397.32 355.06 2388.555 333.849 2386 313c-2.01-30.636 3.82-58.534 23.824-82.54 12.468-14.101 26.087-23.744 43.176-31.46l3.61-1.652c60.927-26.14 142.066-13.022 191.5 30.988zM2062 189c31.302-.08 31.302-.08 44.586-.098 9.113-.011 18.225-.025 27.338-.053 6.641-.02 13.283-.033 19.924-.037 3.505-.003 7.009-.009 10.513-.023 49.152-.2 99.019 3.922 136.327 39.461 23.85 24.751 31.882 56.787 31.663 90.386-.46 23.561-5.677 45.796-17.351 66.364l-1.68 2.977c-13.158 21.847-33.012 38.02-56.32 48.023-2.902.688-2.902.688-5 1 4.716 7.89 10.05 15.233 15.53 22.603a721.362 721.362 0 0 1 11.532 15.96 1481.322 1481.322 0 0 0 12.376 17.375l1.634 2.26L2298 502c6.883 9.497 13.734 19.012 20.48 28.606 3.635 5.16 7.317 10.283 11.02 15.394a2325.28 2325.28 0 0 1 13.313 18.563l1.582 2.22c3.605 5.1 3.605 5.1 3.605 6.217-10.483.395-20.964.697-31.453.88-4.872.09-9.739.209-14.608.402-4.707.186-9.41.287-14.122.33a156.84 156.84 0 0 0-5.362.185c-13.603.675-13.603.675-18.38-3.466-3.59-4.093-6.352-8.6-8.967-13.36-1.386-2.466-2.997-4.716-4.702-6.971l-1.472-2.03-1.434-1.97a1495.984 1495.984 0 0 1-12.5-17.5c-5.714-8.122-11.52-16.175-17.346-24.216-2.783-3.843-5.563-7.688-8.341-11.534l-1.649-2.281a2870.695 2870.695 0 0 1-10.843-15.124c-2.383-3.343-4.78-6.676-7.188-10.001l-1.762-2.434c-1.134-1.566-2.27-3.13-3.406-4.695l-1.582-2.184-1.394-1.92c-1.882-2.668-3.678-5.395-5.489-8.111l-46-1v127h-68V378c70.563-.375 70.563-.375 92.772-.478 6.62-.04 6.62-.04 13.238-.082 2.929-.02 5.857-.033 8.786-.043 3.754-.013 7.507-.035 11.261-.064 2.003-.013 4.006-.017 6.01-.02 19.226-.176 39.34-2.793 53.808-16.688 11.3-12.105 14.302-26.02 14.375-42.187l.063-3.385c.068-14.728-3.927-29.323-14.286-40.248-15.074-13.42-33.55-16.095-52.975-16.124l-4.38-.03c-3.925-.027-7.85-.043-11.774-.056-4.116-.015-8.232-.042-12.348-.068-7.777-.046-15.554-.083-23.33-.116-10.522-.046-21.043-.107-31.564-.167-16.552-.094-33.104-.167-49.656-.244v-69zM1781 189h226v69h-157v90h131v68h-131v88l157 1v68h-226V189zM918 228a15456789460008318 15456789460008318 0 0 1 6 5c-1.447 4.63-3.274 9.003-5.309 13.398l-.978 2.135a3925.372 3925.372 0 0 1-3.15 6.842l-2.165 4.712c-1.444 3.147-2.89 6.293-4.339 9.438a8639.183 8639.183 0 0 0-7.114 15.507c-1.98 4.323-3.962 8.646-5.945 12.968-3 0-3 0-4.647-1.386l-1.802-1.946-2.046-2.155-2.193-2.326c-22.316-22.948-50.903-35.038-82.907-35.592C768.7 254.241 739.519 263.043 714 284l-2.797 2.297C690.473 304.217 677.047 329.528 671 356l-.746 3.145C667.009 375.863 667.82 394.512 672 411l.488 1.96c5.308 20.534 15.564 41.013 31.187 55.586C705 470 705 470 705 472l1.727.746c2.648 1.46 4.474 3.213 6.648 5.317 22.373 20.353 52.836 30.389 82.75 30.25l3.863-.018c34.12-.436 61.105-13.402 85.586-36.82 1.488-1.539 2.796-3.155 4.117-4.838L892 464h3l3.805 8.195 1.198 2.58a8928.35 8928.35 0 0 1 9.095 19.65c.426.925.853 1.848 1.293 2.8 2.36 5.1 4.746 10.185 7.168 15.255l1.451 3.076a409.673 409.673 0 0 0 2.573 5.349c1.093 2.333 1.093 2.333 2.417 6.095-1.488 4.075-4.428 6.423-7.688 9.125l-1.751 1.457c-39.37 32.153-89.38 44.178-139.42 39.168C729.767 571.602 689.98 551.006 657 520l-1.996-1.836c-5.865-5.594-10.76-11.917-15.637-18.366a372.846 372.846 0 0 0-3.836-4.935c-24.549-32.4-36.02-72.82-35.843-113.05l.005-2.607c.045-12.616.436-24.87 3.307-37.206l.52-2.334c11.557-50.847 42.718-95.004 86.515-123.193C759.975 172.439 854.011 173.276 918 228z"/></g></svg>