<svg height="442" width="2500" xmlns="http://www.w3.org/2000/svg" viewBox="0 0 862.921 152.67700000000002"><linearGradient id="a" gradientUnits="userSpaceOnUse" x1="430.336" x2="430.336" y1="12.341" y2="137.342"><stop offset="0" stop-color="#efffff"/><stop offset=".25" stop-color="#efffff"/><stop offset=".4" stop-color="#e0ffff"/><stop offset=".5" stop-color="#bff"/><stop offset=".75" stop-color="#bff"/><stop offset=".9" stop-color="#87ddff"/></linearGradient><path d="M861.537 11.119a6.921 6.921 0 0 0 1.384-4.152 6.958 6.958 0 0 0-6.958-6.958h-45.251c-7.5 0-23 26.332-23 26.332S773.712.009 766.711.009C732.545.01 371.378 0 345.712 0c-10.75 0-17 9.341-17 9.341s-6.125-9.332-17-9.332h-276c-12.5 0-23.667 7.502-25 20.333L0 132.343c0 20.334 16.714 20.334 16.714 20.334h43.333c27.54 0 27.173-22.668 27.665-26.002.513-3.477 2.025-19.582 2.025-19.582l56.391 45.568h153c5.917.016 14.583-9.32 14.583-9.32s7.5 9.336 15 9.336h430c13.563 0 23-24.336 23-24.336s10.625 24.336 22.999 24.336h38.001c.143 0 .275-.013.414-.018.113.004.223.018.336.018 5.661 0 10.25-4.59 10.25-10.25 0-2.299-1.044-4.266-2.043-6.122l-32.957-62.964 42.829-62.214z" fill="#da0000"/><path d="M296.712 50.341h-94c-7.974 0-14.477 6.228-14.953 14.081l-.047.044-6 62.875c0 8.284 7.716 13 16 13h95c7.783 0 14.18-5.929 14.925-13.516l.075-.068 4-61.416c0-8.284-6.716-15-15-15zm-17.249 62.469l-.042.036c-.406 4.142-3.898 6.378-8.146 6.378h-51.402c-4.521 0-8.188-2.666-8.188-7.188l2.82-32.866.026-.023c.26-4.288 3.81-7.687 8.162-7.687h50.857a8.188 8.188 0 0 1 8.188 8.188zM304.712 14.341h-103c-6.075 0-11 4.925-11 11s4.925 11 11 11h103c6.075 0 11-4.925 11-11s-4.925-11-11-11zM839.462 20.841a6.5 6.5 0 0 0-6.5-6.5h-11c-2.132 0-3.019 1.031-4.204 2.617l-34.046 47.133-25.549-45.701c-1.377-2.417-1.971-4.049-4.951-4.049l-27.75-1c-4.419 0-8 2.582-8 7a7.95 7.95 0 0 0 1.085 4.01l27.665 49.99-38.006 53.728a7.953 7.953 0 0 0-1.244 4.272 8 8 0 0 0 8 8h26.75a7.983 7.983 0 0 0 6.561-3.43l35.439-50.57 29.03 50.245a6.495 6.495 0 0 0 5.886 3.755h9c3.59 0 5.5-2.91 5.5-6.5 0-1.148-.3-2.225-.822-3.16l-29.094-53.84 35.044-52.237a6.46 6.46 0 0 0 1.206-3.763zM685.712 14.341h-94c-7.974 0-14.477 6.228-14.953 14.081l-.047.044-6 63.875c0 8.284 6.716 15 15 15h95c7.783 0 14.18-5.929 14.925-13.516l.075-.068 5-64.416c0-8.284-6.716-15-15-15zM668.464 77.81l-.042.036a8.186 8.186 0 0 1-8.146 7.378h-50.402a8.189 8.189 0 0 1-8.188-8.188l2.82-32.867.026-.023c.26-4.287 3.81-7.687 8.162-7.687h49.856a8.188 8.188 0 0 1 8.188 8.188z" opacity=".5"/><path d="M682.212 119.341h-125.75c-8.667 0-7.75-3.125-7.75-6l9.75-86.5c0-6.352-5.148-11.5-11.5-11.5h-30.25c-6.875 0-12.58 4.958-13.764 11.492l-.01.008-11.115 98.665-.111 1.835c0 7.938 7.17 12.418 14.973 12.948l.012.014h.263c.251.013.499.038.753.038.252 0 .498-.025.746-.037l174.754.037c6.352 0 11.5-5.148 11.5-11.5s-6.15-9.5-12.501-9.5zM451.712 125.341c-5.173-1.99-10.226-4.018-15.225-6h-32.275c-6.352 0-10.5 3.148-10.5 9.5s5.148 11.5 11.5 11.5h46.125l22.563-14.75.001-.012c-7.478 2.797-15.987 2.243-22.189-.238z" opacity=".5"/><path d="M473.868 13.375l-.031-.033s-122.925 2-123.125 2c-8.266 0-15 6.475-15.456 14.627l-.044.04-9 96.833c0 8.561 7.939 13.5 16.5 13.5l24.659-.033c7.931-.334 14.307-6.613 14.792-14.504l1.87-21.749v-2l5.887-68.464c0-5.25 3.167-5.25 5.25-5.25h59.458c6.75 0 8.023 1.262 7.75 6.922-.261 5.406-1.667 7-3.667 8.167L402.894 69.08l.001.013c-3.807 1.875-6.433 4.781-6.433 9.312 0 5.445 3.788 9.995 8.87 11.186l44.505 11.752s4.875 1.125 4.875 6c0 5.188-1.458 10-5.5 10 6.202 2.48 20.906-14.219 26.688-20a6.493 6.493 0 0 0-3.58-5.801l-36.608-11.199 39.145-13.327a6.002 6.002 0 0 0 3.909-4.507l3.324-38.737c.075-.466.123-.942.123-1.429-.001-4.751-3.682-8.632-8.345-8.968zM42.337 15.341l-.033.03c-.198-.007-.393-.03-.592-.03-8.266 0-15 6.475-15.456 14.627l-.044.04-10 96.833c0 8.561 7.939 13.5 16.5 13.5l25.659-.033c7.931-.334 14.307-6.613 14.792-14.504 0 0 4.441-66.465 6.206-98.829-.933 19.063-2.101 38.025-2.657 56.366-.003.078 4.208-48.75 4.208-48.75 0-5.25 3.167-5.25 5.25-5.25h61.458c6.75 0 6.023 4.34 5.75 10-.261 5.406-1.667 8-3.667 9.167l-54.44 23.565c-4.316 2.043-7.309 6.425-7.309 11.518 0 4.223 2.061 7.955 5.223 10.275l56.396 42.701c1.801 1.547 4.046 2.759 6.464 2.759a8 8 0 0 0 7.952-7.135l.048-.038.444-9.643c.637.411-.982-19.777-.982-19.777l-43.399-16.851 1.121-1.296 46.627-13.961a6.002 6.002 0 0 0 3.909-4.507l3.346-42.5c.06-.417-132.774-8.277-132.774-8.277z" opacity=".5"/><path d="M317.712 23.341c0 6.075-4.925 11-11 11h-103c-6.075 0-11-4.925-11-11s4.925-11 11-11h103c6.075 0 11 4.925 11 11zm242.75.5c0-6.352-5.148-11.5-11.5-11.5h-30.25c-6.875 0-12.58 4.958-13.764 11.492l-.01.008-11.115 98.665-.111 1.835c0 7.938 7.17 12.418 14.973 12.948l.012.014h.263c.251.013.499.038.753.038.252 0 .498-.025.746-.037l174.754.037c6.352 0 11.5-5.148 11.5-11.5s-6.148-9.5-12.5-9.5h-125.75c-8.667 0-7.75-3.125-7.75-6m-375.501-89c0-4.75-3.681-8.63-8.344-8.967l-.031-.033h-122.5l-.033.03c-.198-.007-.393-.03-.592-.03-8.266 0-15 6.475-15.456 14.627l-.044.04-10 96.833c0 8.561 7.939 13.5 16.5 13.5l25.659-.033c7.931-.334 14.307-6.613 14.792-14.504l7.757-90.213c0-5.25 3.167-5.25 5.25-5.25h61.458c6.75 0 6.023 4.34 5.75 10-.261 5.406-1.667 8-3.667 9.167l-54.44 23.565c-4.316 2.043-7.309 6.425-7.309 11.518 0 4.223 2.061 7.955 5.223 10.275l56.396 42.701c1.801 1.547 4.046 2.759 6.464 2.759a8 8 0 0 0 7.952-7.135l.048-.038 1.042-22.619a6.494 6.494 0 0 0-3.58-5.801L119.712 84.34l48.145-14.715a6.002 6.002 0 0 0 3.909-4.507l3.346-42.5c.059-.417.1-.842.1-1.277zm309 0c0-4.75-3.681-8.63-8.344-8.967l-.031-.033h-122.5l-.033.03c-.198-.007-.393-.03-.592-.03-8.266 0-15 6.475-15.456 14.627l-.044.04-9 96.833c0 8.561 7.939 13.5 16.5 13.5l24.659-.033c7.931-.334 14.307-6.613 14.792-14.504l7.757-90.213c0-5.25 3.167-5.25 5.25-5.25h59.458c6.75 0 8.023 1.262 7.75 6.922-.261 5.406-1.667 7-3.667 8.167l-55.817 25.65.001.013c-3.807 1.875-6.433 4.781-6.433 9.312 0 5.445 3.788 9.995 8.87 11.186l44.505 11.752s4.875 1.125 4.875 6c0 5.188-1.458 10-5.5 10h-45c-6.352 0-10.5 3.148-10.5 9.5s5.148 11.5 11.5 11.5h46.125l22.563-14.75 2-26.25a6.493 6.493 0 0 0-3.58-5.801l-36.608-11.199 39.145-13.327a6.002 6.002 0 0 0 3.909-4.507l3.324-38.737c.074-.468.122-.943.122-1.431zm301.5 63l28.03 49.245a6.495 6.495 0 0 0 5.886 3.755h8a6.5 6.5 0 0 0 5.678-9.66l-28.094-52.84 36.044-52.237a6.462 6.462 0 0 0 1.206-3.763 6.5 6.5 0 0 0-6.5-6.5h-11c-2.132 0-3.019 1.031-4.204 2.617l-34.046 47.133-25.549-45.701c-1.377-2.417-1.971-4.049-4.951-4.049h-28.75c-4.419 0-8 2.582-8 7a7.95 7.95 0 0 0 1.085 4.01l27.665 49.99-37.006 51.728a7.953 7.953 0 0 0-1.244 4.272 8 8 0 0 0 8 8h26.75a7.983 7.983 0 0 0 6.561-3.43zm-472-22l-4 61.416-.075.068c-.745 7.587-7.142 13.516-14.925 13.516h-95c-8.284 0-16-4.716-16-13l6-62.875.047-.044c.477-7.854 6.979-14.081 14.953-14.081h94c8.284 0 15 6.716 15 15zm-29.973 15.306a8.188 8.188 0 0 0-8.188-8.188h-50.857c-4.352 0-7.902 3.399-8.162 7.687l-.026.023-2.82 32.867c0 4.522 3.666 7.188 8.188 7.188h51.402c4.249 0 7.74-2.236 8.146-6.378l.042-.036zm418.973-50.306l-5 64.416-.075.068c-.745 7.587-7.142 13.516-14.925 13.516h-95c-8.284 0-15-6.716-15-15l6-63.875.047-.044c.477-7.854 6.979-14.081 14.953-14.081h94c8.284 0 15 6.716 15 15zm-29.973 15.306a8.188 8.188 0 0 0-8.188-8.188h-49.856c-4.353 0-7.902 3.399-8.162 7.687l-.026.023-2.82 32.867a8.188 8.188 0 0 0 8.188 8.188h50.402a8.186 8.186 0 0 0 8.146-7.378l.042-.037z" fill="url(#a)"/><g fill="#fff"><path d="M690.546 133.621l-176.088-.038c-.248.013-.494.038-.746.038-.254 0-.502-.025-.753-.039h-.263l-.012-.014c-7.803-.529-14.973-5.01-14.973-12.947l.111-1.836L508.937 23.4l.01-1.287c.578-3.193 2.242-4.726 4.589-6.771a14.02 14.02 0 0 0-7.589 10.05l-.01-1.271-11.115 97.665-.111 1.836c0 7.938 7.17 12.418 14.973 12.947l.012.014h.263c.251.014.499.039.753.039.252 0 .498-.025.746-.038l176.088.038" opacity=".75"/><path d="M154.581 134.255L98.185 91.553c-3.162-2.32-5.223-4.844-5.223-9.066 0-8.251 3.1-8.722 4.212-10.61-3.716 2.227-6.212 5.276-6.212 9.924 0 4.223 2.061 7.746 5.223 10.066l59.396 44.701M60.962 133.308l-22.25.033c-8.561 0-15.5-3.939-15.5-12.5l9-96 .044-.04a15.442 15.442 0 0 1 3.571-9.039c-3.205 2.67-5.323 6.601-5.571 11.039l-.044.04-11 96c0 8.561 7.939 13.5 16.5 13.5l24.25-.033c11.75 0 12.479-9.134 13.75-13.553-1.929 2.851-5.651 10.553-12.75 10.553z"/><path d="M407.593 87.383c-3.821-2.184-5.881-5.536-5.881-9.886 0-4.531 2.626-8.438 6.433-10.312l1.936-1.03-4.188 1.924.001.013c-3.807 1.875-6.433 4.781-6.433 9.312.001 5.176 3.428 8.538 8.132 9.979zM454.712 116.427c3.542-.31 6.869-1.92 6.869-8.086 0-5-4.923-7.559-6-7.905 1.256.88 2.512 4.481 2.512 6.995 0 3.832-1.337 7.361-3.381 8.996zM456.337 133.341h-46.125c-6.352 0-10.5-1.666-10.5-6.826 0-4.248.862-8.056 3.991-9.454-4.324 1.005-6.991 4.032-6.991 9.12 0 6.352 5.148 10.16 11.5 10.16h47.125c14.322 0 17.616-7.938 19.542-12.1-2.929 3.217-7.601 9.1-18.542 9.1zM370.462 133.308l-22.75.033c-8.561 0-16.5-4.939-16.5-13.5l9-96.833.044-.04c.124-2.224.729-3.314 1.691-5.19-2.136 2.502-3.496 4.689-3.691 8.19l-.044.04-9 96.833c0 8.561 7.939 13.5 16.5 13.5l22.75-.033c7.013-.296 12.803-5.244 14.386-11.841-2.073 5.048-6.484 8.592-12.386 8.841zM297.712 133.341h-93c-8.284 0-14-4.716-14-13l6-60.875s1.313-5.842 3.021-8.12c-3.411 2.565-7.699 6.545-7.974 11.076l-.047-1.956-6 62.875c0 8.284 7.716 13 16 13h93M687.045 100.341h-95.333c-8.284 0-15-5.716-15-14l6-62.88.047-.044a14.946 14.946 0 0 1 2.974-8.076c-3.411 2.565-5.698 6.545-5.974 11.076l-.047.044-6 62.88c0 8.284 6.716 14 15 14h95.333" opacity=".75"/><g opacity=".75"><path d="M748.245 70.594l1.55-2.253-27.665-49.166a8.012 8.012 0 0 1-1.018-3.009c-.417.874-.65 1.876-.65 2.999a7.95 7.95 0 0 0 1.085 4.01zM721.962 134.341c-4.419 0-8-3.369-8-7.788 0-.542.072-1.064.177-1.575l-.933 1.303a7.95 7.95 0 0 0-1.244 4.272c0 4.419 3.581 5.788 8 5.788h23.375c2.718 0 4.267.071 5.712-2z"/></g></g></svg>