<svg height="831" width="2500" xmlns="http://www.w3.org/2000/svg" viewBox="328 328 3440.0000000000005 705.404"><circle cx="680.702" cy="680.702" fill="#ff4500" r="352.702"/><g fill="#fff"><path d="M801.721 629.313h-115.45V581.24c20.143-4.225 35.32-22.125 35.32-43.52 0-24.514-19.95-44.46-44.47-44.46s-44.466 19.946-44.466 44.465c0 21.39 15.169 39.29 35.317 43.515v48.092l-108.026-.019c-22.687 0-41.13 18.448-41.13 41.135v180.047c0 22.692 18.462 41.135 41.13 41.135h241.77c22.693 0 41.136-18.443 41.136-41.13V670.442c0-22.673-18.443-41.13-41.135-41.13zm-150.786-91.588c0-14.438 11.748-26.187 26.186-26.187s26.187 11.75 26.187 26.187-11.749 26.187-26.187 26.187a26.229 26.229 0 0 1-26.186-26.187zm173.638 312.788a22.875 22.875 0 0 1-22.856 22.856H559.95a22.875 22.875 0 0 1-22.856-22.856V670.448a22.875 22.875 0 0 1 22.86-22.856h241.762a22.875 22.875 0 0 1 22.856 22.856z"/><path d="M649.763 718.357h-7.485a14.663 14.663 0 0 0-14.616 14.62v55.007a14.663 14.663 0 0 0 14.616 14.62h7.485a14.663 14.663 0 0 0 14.621-14.616l-.019-55.01a14.649 14.649 0 0 0-14.602-14.62zm69.627 0h-7.486a14.663 14.663 0 0 0-14.616 14.62v55.007a14.663 14.663 0 0 0 14.616 14.62h7.486a14.663 14.663 0 0 0 14.62-14.616v-55.015a14.677 14.677 0 0 0-14.62-14.62z"/><path d="M765.032 671.985H596.645c-19.394 0-35.171 15.773-35.171 35.171v106.668c0 19.394 15.772 35.172 35.171 35.172h168.368c19.394 0 35.172-15.778 35.172-35.172V707.156c.018-19.394-15.773-35.171-35.153-35.171zM781.906 813.8a16.911 16.911 0 0 1-16.893 16.893H596.655a16.911 16.911 0 0 1-16.893-16.893l.019-106.648a16.911 16.911 0 0 1 16.888-16.888h168.367a16.911 16.911 0 0 1 16.893 16.888zM756.942 574.58l14.348 11.346c30.136-38.119 13.173-79.732 0-96.4l-14.348 11.347c.402.515 3.897 5.03 7.172 12.203 5.326 11.66 10.025 30.342 0 50.303a64.319 64.319 0 0 1-7.172 11.196zm40.184 20.078l14.784 10.76c48.64-66.919.497-134.7 0-135.36l-14.803 10.723c.46.641 3.734 5.307 7.411 12.863 8.765 18.064 19.722 52.758 0 89.246a103.768 103.768 0 0 1-7.392 11.768zm-192.377-93.823l-14.362-11.308c-13.178 16.672-30.14 58.266 0 96.399l14.344-11.346a63.452 63.452 0 0 1-7.172-11.253c-9.847-19.745-5.252-38.376 0-50.068 3.279-7.285 6.792-11.9 7.19-12.428zm-40.184-20.068l-14.803-10.728c-.496.68-48.64 68.455 0 135.36l14.785-10.76a102.957 102.957 0 0 1-7.393-11.768c-19.726-36.507-8.764-71.182 0-89.24 3.678-7.543 6.952-12.209 7.411-12.87z"/></g><path d="M1357.258 607.85l9.87-70.527c-12.755-4.175-24.142-6.3-34.087-6.3-15.032 0-28.165 3.795-39.325 11.538-11.16 7.668-20.042 18.676-26.571 32.948h-2.354l-8.654-38.186h-58.38V826.34h75.158v-186.68c3.036-11.16 9.11-20.346 18.22-27.482 9.034-7.136 20.27-10.704 33.783-10.704 9.641 0 20.421 2.126 32.34 6.377zm87.305 74.019c0 22.7 2.809 43.5 8.35 62.404 5.618 18.903 14.121 34.997 25.433 48.283 11.387 13.285 25.508 23.61 42.513 30.898 16.93 7.288 36.972 11.008 60.126 11.008 43.121 0 76.525-13.21 100.21-39.629 23.763-26.419 35.606-64.074 35.606-112.964 0-22.775-2.81-43.576-8.427-62.48-5.542-18.827-13.969-34.921-25.128-48.207s-25.205-23.61-42.21-30.974c-16.93-7.288-36.972-10.932-60.05-10.932-43.197 0-76.677 13.21-100.59 39.553-23.914 26.419-35.833 64.074-35.833 113.04zm77.435 0c0-31.581 5.238-54.357 15.639-68.25 10.4-13.816 24.825-20.8 43.348-20.8 21.181 0 36.213 8.198 45.02 24.597 8.881 16.398 13.36 37.806 13.36 64.453 0 30.822-4.858 53.37-14.5 67.566-9.641 14.272-24.293 21.409-43.88 21.409-10.4 0-19.358-2.202-26.874-6.605-7.516-4.48-13.59-10.704-18.22-18.828-4.631-8.047-8.123-17.536-10.4-28.317-2.354-10.78-3.493-22.547-3.493-35.225zm304.579-260.091V813.66c10.4 4.934 25.811 9.49 46.233 13.513 20.422 4.1 42.969 6.073 67.642 6.073 44.715 0 79.865-13.437 105.449-40.463 25.66-26.95 38.49-66.428 38.49-118.43 0-48.588-9.186-84.724-27.482-108.41s-44.791-35.53-79.485-35.53c-15.412 0-29.456 2.734-42.21 8.124-12.678 5.39-23.079 12.678-31.202 21.94h-2.278v-138.7zm128.907 172.255c34.314 0 51.395 27.482 51.395 82.598 0 32.416-5.238 55.95-15.866 70.83-10.553 14.804-26.116 22.244-46.537 22.244-8.048 0-15.715-.607-22.775-1.746-7.137-1.139-13.817-3.265-19.967-6.377V635.636c4.631-13.514 11.236-23.838 19.967-30.975 8.654-7.136 19.89-10.628 33.783-10.628zm224.79 87.836c0 22.7 2.809 43.5 8.426 62.404 5.542 18.903 14.045 34.997 25.433 48.283s25.508 23.61 42.437 30.898c17.005 7.288 37.048 11.008 60.126 11.008 43.197 0 76.6-13.21 100.287-39.629s35.529-64.074 35.529-112.964c0-22.775-2.81-43.576-8.351-62.48-5.618-18.827-13.969-34.921-25.129-48.207-11.235-13.285-25.28-23.61-42.21-30.974-16.929-7.288-36.971-10.932-60.126-10.932-43.12 0-76.676 13.21-100.59 39.553-23.838 26.419-35.832 64.074-35.832 113.04zm77.51 0c0-31.581 5.163-54.357 15.564-68.25 10.4-13.816 24.9-20.8 43.348-20.8 21.181 0 36.213 8.198 45.095 24.597s13.285 37.806 13.285 64.453c0 30.822-4.782 53.37-14.424 67.566-9.641 14.272-24.293 21.409-43.956 21.409-10.4 0-19.359-2.202-26.874-6.605-7.516-4.48-13.59-10.704-18.22-18.828-4.631-8.047-8.048-17.536-10.401-28.317-2.277-10.78-3.416-22.547-3.416-35.225zm304.58-144.546V941.96h75.081V823.454c7.744 3.872 15.411 6.605 23.155 8.35s17.537 2.658 29.456 2.658c21.18 0 40.008-3.72 56.406-11.008 16.322-7.288 30.215-17.916 41.602-31.81 11.312-13.892 19.89-30.746 25.66-50.56 5.846-19.814 8.73-42.058 8.73-66.73 0-50.865-9.11-87.76-27.177-110.688-18.145-22.927-45.247-34.39-81.535-34.39-19.587 0-36.288 3.492-49.954 10.4s-25.508 17.69-35.529 32.341h-2.353l-8.655-34.694zm128.83 55.495c18.904 0 32.569 6.985 41.072 20.802 8.502 13.892 12.754 33.555 12.754 58.987 0 35.074-5.466 60.202-16.247 75.386-10.78 15.259-26.95 22.85-48.51 22.85-10.401 0-18.828-1.214-25.13-3.72-6.376-2.505-12.222-5.92-17.688-10.172V636.774c4.631-14.652 11.084-25.66 19.435-32.948 8.275-7.364 19.738-11.008 34.314-11.008zm227.144 89.051c0 22.7 2.809 43.5 8.427 62.404 5.542 18.903 14.044 34.997 25.432 48.283s25.508 23.61 42.437 30.898c17.006 7.288 37.048 11.008 60.127 11.008 43.196 0 76.6-13.21 100.286-39.629s35.529-64.074 35.529-112.964c0-22.775-2.809-43.576-8.35-62.48-5.619-18.827-13.97-34.921-25.13-48.207s-25.28-23.61-42.21-30.974c-16.929-7.288-36.97-10.932-60.125-10.932-43.121 0-76.676 13.21-100.59 39.553-23.838 26.419-35.833 64.074-35.833 113.04zm77.511 0c0-31.581 5.162-54.357 15.563-68.25 10.4-13.816 24.9-20.8 43.349-20.8 21.18 0 36.212 8.198 45.094 24.597s13.286 37.806 13.286 64.453c0 30.822-4.783 53.37-14.425 67.566-9.641 14.272-24.293 21.409-43.955 21.409-10.401 0-19.36-2.202-26.875-6.605-7.516-4.48-13.59-10.704-18.22-18.828-4.631-8.047-8.047-17.536-10.4-28.317-2.278-10.78-3.417-22.547-3.417-35.225zm424.224 64.681c0 10.021-3.416 17.157-10.173 21.409-6.68 4.251-15.639 6.377-26.875 6.377-15.41 0-30.366-2.43-45.018-7.212-14.652-4.859-26.42-9.794-35.302-14.728l-20.801 56.026c11.16 6.909 25.736 12.982 43.652 18.22 17.917 5.163 37.048 7.82 57.47 7.82 37.426 0 65.44-8.427 84.115-25.204 18.676-16.702 28.014-39.78 28.014-69.009 0-17.005-3.265-30.822-9.794-41.678-6.528-10.78-14.652-19.51-24.293-26.268s-20.194-12.222-31.733-16.474c-11.616-4.25-22.168-8.199-31.81-11.843s-17.764-7.591-24.293-11.843-9.793-9.793-9.793-16.777c0-17.31 11.16-25.964 33.48-25.964 13.892 0 27.557 1.898 41.07 5.77 13.437 3.796 24.673 7.516 33.48 10.932l16.777-54.28c-10.02-5.77-23.914-11.009-41.602-15.64-17.765-4.63-37.58-6.908-59.52-6.908-31.96 0-56.481 7.516-73.41 22.547s-25.433 36.744-25.433 65.289c0 17.309 3.264 31.505 9.793 42.513 6.605 10.932 14.652 20.042 24.294 27.103 9.641 7.136 20.27 12.754 31.809 16.777s22.168 8.047 31.81 11.843c9.565 3.872 17.688 8.123 24.217 12.754 6.604 4.631 9.869 10.78 9.869 18.448zm151.985-209.227v63.619h39.857V746.55c0 31.202 6.301 53.673 18.827 67.339 12.527 13.665 32.037 20.573 58.608 20.573 14.273 0 28.393-1.746 42.21-5.238 13.893-3.492 26.04-7.668 36.44-12.678l-13.285-57.85c-6.985 3.113-13.21 5.391-18.828 6.985-5.542 1.519-12.222 2.278-19.89 2.278-11.236 0-18.827-4.327-22.851-12.982s-6.073-23.003-6.073-43.045v-110.99h70.526v-63.619h-70.526v-75.689l-75.158 21.409v54.28z" fill="#ff4500"/></svg>