<svg viewBox="0 -0.23095815491140392 24.000874817762764 26.591916309822807" xmlns="http://www.w3.org/2000/svg" width="2237" height="2500"><linearGradient id="a" gradientTransform="matrix(24 0 0 -26.1 531 1665.03)" gradientUnits="userSpaceOnUse" x1="-21.63" x2="-21.63" y1="63.75" y2="62.78"><stop offset="0" stop-color="#eedfa2"/><stop offset=".59" stop-color="#a9935a"/><stop offset="1" stop-color="#fee3a5"/></linearGradient><path d="M21.4 4.62a5.2 5.2 0 0 1 2.6 4.5V17a5.19 5.19 0 0 1-2.6 4.5l-6.8 3.93a5.19 5.19 0 0 1-5.2 0l-6.8-3.95A5.19 5.19 0 0 1 0 17V9.12a5.2 5.2 0 0 1 2.6-4.5L9.4.7a5.19 5.19 0 0 1 5.2 0zM10.31 2.48L3.69 6.31A3.35 3.35 0 0 0 2 9.23v7.65a3.36 3.36 0 0 0 1.69 2.92l6.62 3.83a3.4 3.4 0 0 0 3.38 0l6.62-3.83A3.36 3.36 0 0 0 22 16.88V9.23a3.35 3.35 0 0 0-1.69-2.92l-6.62-3.83a3.4 3.4 0 0 0-3.38 0zm3.08 2.14l5.22 3A2.78 2.78 0 0 1 20 10v6a2.76 2.76 0 0 1-1.39 2.4l-5.22 3a2.76 2.76 0 0 1-2.78 0l-5.22-3A2.76 2.76 0 0 1 4 16.07V10a2.78 2.78 0 0 1 1.39-2.37l5.22-3a2.76 2.76 0 0 1 2.78 0zM9 16.05h6v-6H9z" fill="url(#a)"/></svg>