<svg height="2500" width="2500" xmlns="http://www.w3.org/2000/svg" xmlns:xlink="http://www.w3.org/1999/xlink" viewBox="-0.53 -95.031 116.45 223.38711997777176"><linearGradient id="a"><stop offset="0" stop-color="#fefefe"/><stop offset="1" stop-color="#fefefe" stop-opacity="0"/></linearGradient><linearGradient id="f" gradientUnits="userSpaceOnUse" x1="36.357" x2="36.357" xlink:href="#a" y1="6" y2="63.893"/><radialGradient id="g" cx="48" cy="90.172" gradientTransform="matrix(1.15731 0 0 .9959 -7.551 .197)" gradientUnits="userSpaceOnUse" r="42" xlink:href="#a"/><linearGradient id="e" gradientUnits="userSpaceOnUse" x1="48" x2="48" y1="90" y2="5.988"><stop offset="0" stop-color="#0c0c0c"/><stop offset="1" stop-color="#373737"/></linearGradient><linearGradient id="b" gradientTransform="matrix(1.00587 0 0 .99417 100 0)" gradientUnits="userSpaceOnUse" x1="45.448" x2="45.448" y1="92.54" y2="7.017"><stop offset="0"/><stop offset="1" stop-opacity=".588"/></linearGradient><linearGradient id="c" gradientTransform="matrix(1.0238 0 0 1.0119 -1.143 -98.071)" gradientUnits="userSpaceOnUse" x1="32.251" x2="32.251" xlink:href="#b" y1="6.132" y2="90.239"/><linearGradient id="d" gradientTransform="translate(0 -97)" gradientUnits="userSpaceOnUse" x1="32.251" x2="32.251" xlink:href="#b" y1="6.132" y2="90.239"/><linearGradient id="h" gradientUnits="userSpaceOnUse" x1="-.023" x2="115.92" y1="62.975" y2="62.975"><stop offset="0" stop-color="#63b9e9"/><stop offset="1" stop-color="#0075bc"/></linearGradient><g fill="url(#c)" transform="scale(1 -1)"><path d="M12-95.031c-5.511 0-10.031 4.52-10.031 10.031v71C1.969-8.489 6.489-3.969 12-3.969h72c5.511 0 10.031-4.52 10.031-10.031v-71c0-5.511-4.52-10.031-10.031-10.031z" opacity=".08"/><path d="M12-94.031c-4.972 0-9.031 4.06-9.031 9.031v71c0 4.972 4.06 9.031 9.031 9.031h72c4.972 0 9.031-4.06 9.031-9.031v-71c0-4.972-4.06-9.031-9.031-9.031z" opacity=".1"/><path d="M12-93c-4.41 0-8 3.59-8 8v71c0 4.41 3.59 8 8 8h72c4.41 0 8-3.59 8-8v-71c0-4.41-3.59-8-8-8z" opacity=".2"/><rect height="85" opacity=".3" rx="7" width="86" x="5" y="-92"/></g><rect fill="url(#d)" height="84" opacity=".45" rx="6" transform="scale(1 -1)" width="84" x="6" y="-91"/><rect fill="url(#e)" height="84" rx="6" width="84" x="6" y="6"/><path d="M12 6c-3.324 0-6 2.676-6 6v72c0 .335.041.65.094.969.048.295.097.597.187.875l.032.094c.098.287.234.547.375.812.144.274.315.536.5.781s.373.474.593.688c.44.428.943.814 1.5 1.094.279.14.574.246.875.343a4.843 4.843 0 0 1-.719-.375c-.007-.004-.023.005-.03 0-.033-.02-.063-.042-.095-.062-.12-.077-.23-.164-.343-.25-.106-.081-.214-.161-.313-.25a5.042 5.042 0 0 1-.5-.531 5.092 5.092 0 0 1-.312-.407c-.025-.038-.039-.086-.063-.125-.065-.103-.13-.204-.187-.312a5.371 5.371 0 0 1-.282-.625c-.007-.022-.023-.04-.03-.063-.033-.092-.037-.187-.063-.281-.03-.107-.07-.203-.094-.313A5.098 5.098 0 0 1 7 85V13c0-2.782 2.218-5 5-5h72c2.782 0 5 2.218 5 5v72c0 .364-.052.721-.125 1.063a4.896 4.896 0 0 1-.156.593c-.008.022-.024.04-.031.063a5.482 5.482 0 0 1-.22.531c-.04.083-.078.17-.124.25-.055.097-.127.188-.188.281a5.092 5.092 0 0 1-.312.406 5.05 5.05 0 0 1-.469.5l-.031.032a4.818 4.818 0 0 1-.438.344c-.102.073-.204.153-.312.218-.008.005-.024-.004-.031 0a4.843 4.843 0 0 1-.72.375c.302-.097.597-.204.876-.344a6.105 6.105 0 0 0 2.094-1.78c.184-.246.355-.508.5-.782a5.69 5.69 0 0 0 .374-.813l.032-.093c.09-.278.139-.58.187-.875.053-.318.094-.634.094-.969V12c0-3.324-2.676-6-6-6z" fill="url(#f)" opacity=".25"/><path d="M12 90c-3.324 0-6-2.676-6-6V12c0-.335.041-.65.094-.969.048-.295.097-.597.187-.875l.032-.094a5.69 5.69 0 0 1 .375-.812c.144-.274.315-.536.5-.781s.373-.474.593-.688c.44-.428.943-.814 1.5-1.093.279-.14.574-.247.875-.344-.256.1-.486.236-.719.375-.007.004-.023-.005-.03 0-.033.019-.063.042-.095.062-.12.077-.23.164-.343.25-.106.081-.214.161-.313.25a5.042 5.042 0 0 0-.5.532c-.107.13-.218.265-.312.406-.025.038-.039.086-.063.125-.065.103-.13.204-.187.312a5.371 5.371 0 0 0-.282.625c-.007.022-.023.04-.03.063-.033.092-.037.187-.063.281-.03.107-.07.203-.094.313A5.098 5.098 0 0 0 7 11v72c0 2.782 2.218 5 5 5h72c2.782 0 5-2.218 5-5V11c0-.364-.052-.721-.125-1.063a4.896 4.896 0 0 0-.156-.593c-.008-.022-.024-.04-.031-.063a5.482 5.482 0 0 0-.22-.531c-.04-.083-.078-.17-.124-.25-.055-.097-.127-.188-.188-.281a5.092 5.092 0 0 0-.312-.406 5.05 5.05 0 0 0-.469-.5l-.031-.032a4.818 4.818 0 0 0-.438-.343c-.102-.074-.204-.154-.312-.22-.008-.004-.024.005-.031 0a4.843 4.843 0 0 0-.72-.374c.302.097.597.204.876.343a6.105 6.105 0 0 1 2.094 1.782c.184.245.355.507.5.781.14.265.276.525.374.813l.032.093c.09.278.139.58.187.875.053.318.094.634.094.969v72c0 3.324-2.676 6-6 6z" fill="url(#g)" opacity=".15"/><path d="M0 61.62c-.53-2.76 8.2-10.34 8.76-11.48s3.71-11.72 8.45-17.06l-.93 4.82s7.35-8.35 10.44-8.68l-1.63 4.27s8.11-6.6 22.35-9.77c7.91-1.76 4.12-.5 14.8-3.71 2.26-.68 4.76 9.64 0 18.21 0 0 3.74-3.19 4.94-10.66a119.85 119.85 0 0 1 23.12 7.08C76.94 5 47.82 2 37.95 1.85a63 63 0 0 1 77.89 55.37c-7.56-1.66-25.59-4.29-50.58.62 0 0 29.51-.91 50.66 9.9-.13 1.69-.32 3.37-.59 5-8.13-1.67-26.55-4.94-43.1-4.25 0 0 21.51 2.4 40.94 13.45-.39 1.24-.82 2.47-1.29 3.67-9.34-3-26-6.3-31.86-5.72A126.14 126.14 0 0 1 109 92.11a63 63 0 0 1-99 16.74c30.7 17.79 56.92.78 56.92.78S59.52 85 52.35 83c0 0-8.5-.84-19.5 6.74 0 0-10 9.62-14-1.14-3.26-8.6-3.24-11.49-3.24-11.49s4.39 4.32 9.59 4.61a29.3 29.3 0 0 1-1.73-7.23s4.7 5.4 6.37 5.69c0 0 15.11-4.87 6.77-12.45s-10-6.33-16.09-1.86c-2.88 2.13-1.7 5.32 1.71 12.53 0 0-4.73-1.63-6.35-5.93 0 0-5.58 3-1.61 10.79 0 0-5.88-3-6.93-7.53 0 0-4.11.89-5.42-4.47s-1.29-6.05.23-6.81 4.08.23 4.65-1a5.06 5.06 0 0 0 .16-1S.47 63.84 0 61.62zm12.89-11.79l5.67-1.34L22 43.58c-8.54 1.42-9.11 6.25-9.11 6.25z" fill="url(#h)" transform="matrix(.61929 0 0 .61929 13.664 8.491)"/></svg>