<svg height="1295" width="2500" xmlns="http://www.w3.org/2000/svg" viewBox="0 0.0010000000000063153 166.0076755808501 85.274"><g><g fill="#005bac"><path d="M18.895 11.194v.939c0 .27-.064.3-.351.319-.4.016-.858.016-1.256 0-.271-.016-.351-.048-.334-.238.016-.829.048-1.958.048-3.169v-3.9c0-.859.016-1.719-.032-2.642 0-.159.064-.223.175-.223.85.041 1.788.041 2.85.041h3.79c1.034 0 2.242 0 2.991-.032.175 0 .222.08.207.319 0 .78-.016 1.64-.016 2.579v3.8c0 1.386.047 2.168.079 3.026 0 .223-.079.27-.3.27-.477.016-.987.016-1.464 0-.191 0-.207-.033-.207-.256v-.841zm6.173-7.181h-6.184v5.493h6.189zM34.079 8.137a12.745 12.745 0 0 0-2.338.191c-.191 0-.318-.1-.367-.334a17.518 17.518 0 0 1-.239-1.927 20.425 20.425 0 0 0 3.436.191h5.124c1.21 0 2.434-.031 3.66-.047.238-.016.289.032.289.223a11.66 11.66 0 0 1 0 1.5c0 .192-.064.256-.289.239-1.193-.016-2.371-.032-3.547-.032zM50.182 4.875a22.43 22.43 0 0 1 5.06 2.168c.175.1.255.207.175.413a9.269 9.269 0 0 1-.684 1.386c-.064.111-.127.174-.206.174a.245.245 0 0 1-.175-.079A17.607 17.607 0 0 0 50.166 6.9v3.515c0 1.035.032 1.974.064 3.121.016.191-.064.238-.289.238a10.444 10.444 0 0 1-1.416 0c-.222 0-.3-.048-.3-.238.048-1.179.064-2.117.064-3.137V2.564a12.167 12.167 0 0 0-.162-2.356 11.758 11.758 0 0 1 1.988.254c.223.048.3.145.3.27a.838.838 0 0 1-.127.366 4.151 4.151 0 0 0-.111 1.5zM62.068 1.196c.175.1.238.192.238.319a.806.806 0 0 1-.111.35 3.267 3.267 0 0 0-.289.876 31.653 31.653 0 0 0-.794 5.795c0 .637 0 1.373.048 2.039.318-.733.65-1.417.987-2.213a4.205 4.205 0 0 0 .557 1 .347.347 0 0 1 .1.223.465.465 0 0 1-.1.254 9.469 9.469 0 0 0-.815 2.42 3.064 3.064 0 0 0-.016.844c.016.111-.047.158-.191.207a6.726 6.726 0 0 1-1.193.27c-.175.048-.24.032-.318-.192a14.833 14.833 0 0 1-.684-4.856 34.613 34.613 0 0 1 .65-6.034 8.019 8.019 0 0 0 .112-1.877 12.407 12.407 0 0 1 1.814.573m5.479 4.252a32.473 32.473 0 0 1-3.279-.018c-.206 0-.271-.048-.289-.207a9.82 9.82 0 0 1-.111-1.445 22.962 22.962 0 0 0 3.627.047c0-.573-.016-1.084-.016-1.672a6.565 6.565 0 0 0-.2-1.562 8.893 8.893 0 0 1 1.925.3c.175.048.289.127.289.27a.685.685 0 0 1-.1.272 1.809 1.809 0 0 0-.127.557c-.032.541-.032.955-.032 1.687a28.987 28.987 0 0 0 2.26-.289c.191-.047.223.016.255.192a6.329 6.329 0 0 1 .1 1.13c0 .145-.064.223-.175.238a17.971 17.971 0 0 1-2.45.335c0 1.783.031 2.9.111 4.264a10.413 10.413 0 0 1 2.641 1.528c.144.1.158.145.079.319a8.468 8.468 0 0 1-.732 1.236.192.192 0 0 1-.144.1.224.224 0 0 1-.144-.079 9.414 9.414 0 0 0-1.718-1.274c-.127 1.337-1.034 2.07-2.911 2.07-1.83 0-2.849-.86-2.849-2.229 0-1.305 1.178-2.245 2.784-2.245a6.666 6.666 0 0 1 1.273.127c-.032-1.229-.047-2.385-.064-3.645m-1.289 4.951c-.748 0-1.193.27-1.193.765s.349.795 1.288.795c.794 0 1.3-.462 1.3-1.035a2.236 2.236 0 0 0-.016-.319 4.448 4.448 0 0 0-1.384-.207M75.689 10.285a.34.34 0 0 1 .238-.127.324.324 0 0 1 .207.1 11.858 11.858 0 0 1 3.166 2.913c.1.127.111.176.111.239 0 .079-.032.145-.16.254l-.97.826c-.111.1-.175.145-.222.145-.079 0-.144-.032-.222-.159a11.9 11.9 0 0 0-3.008-3.045c-.1-.064-.144-.111-.144-.159s.032-.1.111-.192zM87.05 5.588a7.972 7.972 0 0 0 .716-2.356 15.643 15.643 0 0 1 1.973.813.272.272 0 0 1 .191.254.469.469 0 0 1-.16.318 3.08 3.08 0 0 0-.557.971 17.533 17.533 0 0 1-3.4 5.348.6.6 0 0 1-.446.238.535.535 0 0 1-.366-.159 4.423 4.423 0 0 0-1.4-.684 14.092 14.092 0 0 0 3.454-4.744m5.95-2.168a.383.383 0 0 1 .222-.1.326.326 0 0 1 .24.127 20.01 20.01 0 0 1 3.993 5.843.394.394 0 0 1 .064.223.307.307 0 0 1-.158.254 9.674 9.674 0 0 1-1.321.844c-.206.1-.318.064-.382-.145a20.817 20.817 0 0 0-3.93-6.193c.573-.383 1-.684 1.273-.86M104.488 8.137a12.746 12.746 0 0 0-2.338.191c-.191 0-.318-.1-.367-.334a17.519 17.519 0 0 1-.238-1.926 20.425 20.425 0 0 0 3.436.191h5.124c1.209 0 2.434-.031 3.66-.047.238-.016.289.032.289.223a11.663 11.663 0 0 1 0 1.5c0 .192-.064.256-.289.239-1.193-.016-2.371-.032-3.549-.032zM120.593 4.875a22.431 22.431 0 0 1 5.06 2.168c.175.1.255.207.175.413a9.356 9.356 0 0 1-.684 1.386c-.064.111-.127.174-.206.174a.245.245 0 0 1-.175-.079 17.607 17.607 0 0 0-4.186-2.037v3.515c0 1.035.032 1.974.064 3.121.015.191-.064.238-.289.238a10.444 10.444 0 0 1-1.416 0c-.223 0-.3-.048-.3-.238.048-1.179.064-2.117.064-3.137V2.564a12.167 12.167 0 0 0-.16-2.356 11.758 11.758 0 0 1 1.988.254c.223.048.3.145.3.27a.838.838 0 0 1-.127.366 4.15 4.15 0 0 0-.111 1.5zM136.679 2.564c.175-.047.238.032.254.159.048.35.1.812.111 1.146.016.207-.032.254-.238.3a25.436 25.436 0 0 1-2.769.6c-1.083 3.535-1.893 5.97-2.911 8.613-.079.223-.175.207-.351.159-.158-.064-.938-.4-1.272-.589a.256.256 0 0 1-.127-.319 59.856 59.856 0 0 0 2.751-7.545c-.922.1-2.036.176-2.784.176-.238 0-.3-.048-.334-.256a31.916 31.916 0 0 1-.222-1.445 7.3 7.3 0 0 0 1.18.044 21.53 21.53 0 0 0 2.577-.159c.16-.637.289-1.337.4-1.99a10.888 10.888 0 0 0 .091-1.457 9.294 9.294 0 0 1 2 .445.266.266 0 0 1 .179.255.382.382 0 0 1-.08.254 3.053 3.053 0 0 0-.334.637c-.158.573-.269 1.114-.382 1.513.621-.111 1.48-.318 2.26-.541m-.621 7.61c.16 0 .223.064.24.223.127 1.161.907 1.5 2.434 1.5a23.858 23.858 0 0 0 2.67-.223c.127-.016.175.016.191.145a10.02 10.02 0 0 1 .127 1.385c.016.191 0 .238-.255.254a17.644 17.644 0 0 1-2.211.174c-2.036 0-3.118-.289-3.834-1.034a3.11 3.11 0 0 1-.716-2.182 8.114 8.114 0 0 1 1.352-.238m-.175-4.218c0-.223.047-.27.289-.319a16.633 16.633 0 0 1 3.1-.366 11.51 11.51 0 0 1 1.862.159c.222.031.271.047.271.238a11.172 11.172 0 0 1 .016 1.274c0 .27-.08.334-.3.289a10.652 10.652 0 0 0-1.973-.191 17.64 17.64 0 0 0-3.2.366 32.283 32.283 0 0 1-.064-1.445m3.676-4.545c.08-.063.144-.047.24.032a7.315 7.315 0 0 1 1.511 1.7.161.161 0 0 1-.047.254l-.668.493a.166.166 0 0 1-.271-.047 7.908 7.908 0 0 0-1.608-1.845zm1.417-1.037c.1-.064.144-.048.238.032a6.621 6.621 0 0 1 1.511 1.64.184.184 0 0 1-.047.289l-.637.493a.163.163 0 0 1-.271-.047 7.536 7.536 0 0 0-1.586-1.831zM149.041 12.339a2.3 2.3 0 1 1-.679-1.627 2.313 2.313 0 0 1 .679 1.627m-3.627 0a1.321 1.321 0 1 0 1.32-1.321 1.3 1.3 0 0 0-1.32 1.321M52.349 66.35a16.2 16.2 0 1 0-16.425-16.2 16.188 16.188 0 0 0 16.425 16.2m0-25.264a9.075 9.075 0 1 1-8.777 9.064 8.936 8.936 0 0 1 8.778-9.068M149.58 28.173a16.2 16.2 0 1 0 16.424 16.2 16.188 16.188 0 0 0-16.424-16.2m.144 25.264a9.075 9.075 0 1 1 8.778-9.068 8.936 8.936 0 0 1-8.776 9.068"/></g><path d="M79.828 79.168c-13.113 0-24.583-2.944-34.306-8.221H32.915c12.732 8.924 28.32 14.328 46.924 14.328 23.992 0 45.669-8.9 61.185-23.434h-4.442c-13.216 10.876-31.788 17.327-56.754 17.327" fill="#e60012"/><path d="M23.272 50.972c6.68-2.107 9.823-7.18 9.823-12.639 0-7.546-6.043-13.823-17.255-13.756H0v44.638h8.19V31.544h7.494c5.655 0 8.974 2.812 8.974 6.785 0 4.1-3.32 6.846-8.974 6.846h-7C14.2 53.784 21.516 62.56 30.528 69.214h11.987a70.314 70.314 0 0 1-19.243-18.242M80.798 53.277h10.849v12.53h7.873V34.442h-7.873v11.866H80.798V34.444h-7.872v31.365h7.872zM113.178 65.807h7.873v-24.4h9.33v-6.963h-26.554v6.967h9.351z" fill="#005bac"/></g></svg>