<svg height="1487" viewBox="48.72 10.25 501.28 279.49" width="2500" xmlns="http://www.w3.org/2000/svg"><path d="m50 10.25h500v277.98h-500z" fill="#1d1d1b"/><g fill="#fff"><path d="m93.7 27.06h-16.72l-1.39 5.66h15.37l-1.2 4.77h-15.37l-1.74 6.98h17.47l-1.18 4.77h-23.92l6.69-26.94h23.17l-1.18 4.77zm25.55 22.18h-8.02l-3.69-9.2-8.66 9.2h-7.67l13.61-13.78-6.36-13.16h7.87l3.45 8.71 7.91-8.71h7.61l-12.84 12.94zm17.15 0h-6.58l5.51-22.18h-9.52l1.18-4.77h25.61l-1.18 4.77h-9.53zm19.97 0h-6.58l6.69-26.94h6.58zm32.66-26.95h6.15l-6.71 26.94h-6.58l-8.08-19.23h-.09l-4.78 19.23h-6.15l6.69-26.94h6.94l7.87 18.77h.09zm30.61 8.82c-.04-3.1-1.99-4.66-5.83-4.66-3.17 0-5.73 1.37-7.67 4.1s-2.91 5.64-2.91 8.73c0 1.96.52 3.41 1.56 4.36s2.51 1.43 4.39 1.43c4.13 0 6.86-1.69 8.21-5.08h6.58c-2.6 6.64-7.79 9.95-15.58 9.95-3.77 0-6.72-.85-8.84-2.55s-3.18-4.04-3.18-7.04c0-5.19 1.74-9.62 5.21-13.29s7.93-5.5 13.37-5.5c3.54 0 6.32.75 8.34 2.25 2.01 1.5 3.02 3.35 3.02 5.54 0 .67-.03 1.25-.09 1.74h-6.58zm19.65 18.13h-6.58l5.51-22.18h-9.52l1.18-4.77h25.61l-1.18 4.77h-9.53zm42.07-22.18h-16.72l-1.39 5.66h15.37l-1.2 4.77h-15.37l-1.74 6.98h17.47l-1.18 4.77h-23.92l6.69-26.94h23.17l-1.18 4.77zm28.03 12.75c-.86 3.4-2.55 5.94-5.08 7.62s-5.74 2.52-9.62 2.52c-3.59 0-6.34-.6-8.26-1.81s-2.88-2.96-2.88-5.26c0-.87.12-1.79.36-2.77l4.41-17.82h6.73l-4.33 17.49c-.16.65-.24 1.22-.24 1.72 0 1.22.4 2.14 1.21 2.76s2 .93 3.57.93c1.93 0 3.53-.42 4.81-1.27s2.13-2.14 2.56-3.88l4.39-17.74h6.71l-4.35 17.52zm10.46 9.43h-6.47l6.69-26.94h13.82c3.67 0 6.32.5 7.94 1.49 1.62 1 2.43 2.39 2.43 4.17 0 3.76-2.08 6.53-6.24 8.29 1.59.66 2.38 1.71 2.38 3.15 0 .67-.06 1.28-.17 1.83l-1.01 4.84c-.09.4-.13.76-.13 1.08 0 .76.3 1.22.9 1.38l-.17.71h-7.33c-.06-.34-.09-.69-.09-1.04 0-.89.24-2.39.71-4.49.33-1.48.49-2.38.49-2.71 0-.67-.29-1.22-.86-1.65s-1.51-.64-2.83-.64h-7.48l-2.59 10.54zm3.73-15.09h7.07c2.46 0 4.2-.43 5.24-1.28s1.55-1.98 1.55-3.37c0-.83-.33-1.47-1-1.91s-1.7-.66-3.12-.66h-7.95l-1.8 7.22zm42.33-3.98c.1-.27.15-.56.15-.88 0-.92-.49-1.65-1.48-2.21s-2.23-.83-3.73-.83c-1.89 0-3.48.36-4.78 1.08s-1.95 1.63-1.95 2.73c0 .44.16.87.47 1.28.31.42.87.71 1.67.88l7.18 1.58c2.53.55 4.41 1.34 5.65 2.36 1.24 1.03 1.85 2.33 1.85 3.92 0 3.05-1.43 5.46-4.3 7.21s-6.44 2.63-10.73 2.63c-3.37 0-6.12-.63-8.24-1.89s-3.18-2.96-3.18-5.1c0-.64.1-1.31.3-2.02h6.32c-.09.29-.13.59-.13.9 0 1.14.5 2 1.51 2.58 1.01.59 2.42.88 4.23.88 2.36 0 4.2-.34 5.54-1.02s2-1.63 2-2.87c0-.7-.25-1.25-.74-1.66s-1.18-.71-2.05-.91l-6.99-1.48c-2.56-.55-4.34-1.28-5.34-2.19s-1.5-2.12-1.5-3.64c0-2.98 1.38-5.39 4.15-7.21s6.1-2.74 10-2.74c2.92 0 5.43.58 7.54 1.75s3.17 2.75 3.17 4.76c0 .76-.14 1.45-.43 2.09h-6.19zm-.12 53v62.39c-29.45 3.91-52.44 34.31-52.44 71.12 0 2.48.1 4.93.31 7.34a40.884 40.884 0 0 0 -9.68-15.51c8.08-7.76 13.11-18.67 13.11-30.74v-65.43c0-24.48-19.85-44.33-44.33-44.33h-86.91v211.1h68.69v-4.2c3.06 2.62 7.03 4.2 11.36 4.2h49.98v-41.65c7.34 29.35 29.82 50.78 56.34 50.78 24.08 0 44.83-17.67 53.94-42.9v36.42h65.56v-136.63h51.24v-61.95h-177.18zm-61.87 183.97h-38.01c-3.06 0-5.53-2.48-5.53-5.53v-34.52c0-4.32-3.5-7.82-7.82-7.82h-9.98v47.87h-39.21c-3.06 0-5.53-2.48-5.53-5.53v-181.62h74.93c17.87 0 32.35 14.49 32.35 32.35v65.43c0 16.94-13.73 30.67-30.67 30.67h.6c15.94 0 28.87 12.92 28.87 28.87zm68.31 3.9c-25.91 0-46.91-24.34-46.91-54.36s21-54.36 46.91-54.36 46.91 24.34 46.91 54.36-21 54.36-46.91 54.36zm53.94-83.02c-6.43-17.8-18.65-31.85-33.75-38.56v-4.33h33.75v42.9zm104.83-54.87h-51.24v136.63h-41.62v-136.63h-60.38v-38.01h153.23v38.01z"/><rect height="63.5" rx="6.25" width="15.64" x="364.42" y="184.93"/><rect height="63.5" rx="6.25" width="15.64" x="244.74" y="117.27"/></g><path d="m128.9 81.08s-5.55 23.58 1.58 35.07 15.06 21.14 15.06 38.41v28.36s14.86-26.35 14.86-49.13-31.5-52.7-31.5-52.7zm-75.63 98.01c-4.55 30.32 18.04 55.57 18.04 55.57-4.57-29.11 4.33-48.11 27.42-89.97s3.37-79.38 3.37-79.38-.48 33.44-15.4 51.96c-14.91 18.52-29.83 37.77-33.44 61.82zm85 94.09c.31 1.33 1.89 1.89 2.98 1.06 18.85-14.32 19.15-28.21 19.15-28.21 0-12.53 1.3-27.44 1.3-27.44s14.04 12.75 15.34 33.27-7.35 37.88-3.67 37.88h-79.45s-10.1-11.79-10.1-24.54 12.27-31.75 7.22-54.6c0 0 14.19 12.75 14.19 29.59s6.25 22.85 6.25 22.85 13.71-23.09 6.01-49.31 3.61-42.58 3.61-42.58 2.41 32.23 16.12 51.48c7.71 10.81 5.5 26.9 1.38 39.63a19.631 19.631 0 0 0 -.44 10.45l.11.46z" fill="#fe0000"/></svg>