<svg viewBox="0 0 717.2 108.51" xmlns="http://www.w3.org/2000/svg" width="2500" height="378"><g fill-rule="evenodd"><path d="M268.87 0v36.49c1.88-1.54 3.42-3.1 5.24-4.22 10.43-6.41 21.32-7.03 32.24-1.58 8.22 4.1 12.11 11.48 12.69 20.37.47 7.26.17 14.57.16 21.85 0 9.86-.05 19.73-.08 29.59v2.29c-.7.05-1.27.12-1.85.12-8.38 0-16.77-.03-25.15.04-1.49.01-1.81-.48-1.81-1.88.04-12.33.04-24.66-.02-36.99-.01-2.35-.18-4.72-.58-7.03-.81-4.76-3.76-7.63-8.27-8.35-4.11-.66-8.77 1.61-10.89 5.28-1.32 2.3-1.78 4.78-1.78 7.41-.02 13.21-.11 26.41-.09 39.62 0 1.53-.43 1.95-1.93 1.94-8.49-.07-16.99-.08-25.48-.02-1.51.01-1.8-.5-1.79-1.89.05-33.43.06-66.85.08-100.28q0-2.41 2.38-2.41c8.22-.02 16.44-.04 24.66-.08.65 0 1.29-.15 1.93-.24h.33zM671.03 108.51c-3.63-.47-7.29-.81-10.89-1.45-7.23-1.28-13.96-3.75-19.47-8.84-4.76-4.4-7.02-9.93-7.43-16.32-.07-1.08.29-1.44 1.37-1.44 8.55-.03 17.1-.09 25.65-.17 1-.01 1.4.29 1.57 1.35.71 4.44 3.24 7.34 7.65 8.42 2.86.7 5.76.8 8.61-.07 3.51-1.07 5.52-4.39 4.52-7.44-.76-2.3-2.56-3.5-4.84-3.96-4.56-.92-9.14-1.73-13.7-2.65-5.68-1.14-11.37-2.22-16.81-4.39-14.4-5.75-17.66-25.14-5.59-35.61 6.65-5.77 14.57-8.28 23.19-8.93 8.52-.64 17-.19 25.34 1.62 8.79 1.91 15.5 6.54 18.29 15.56.67 2.17.93 4.46 1.41 6.88h-27.89c-.08-.37-.17-.72-.23-1.09-.48-2.59-1.92-4.35-4.4-5.28-3.43-1.29-6.88-1.13-10.31-.07-.61.19-1.22.53-1.72.94-1.41 1.13-2.65 2.45-2.25 4.44.37 1.86 1.9 2.7 3.55 3.01 4.52.85 9.06 1.56 13.6 2.27 6.89 1.09 13.66 2.49 19.96 5.71 16.2 8.29 16.99 30.28 1.37 40.07-6.54 4.1-13.71 5.92-21.23 6.78-2.44.28-4.89.44-7.34.66h-1.97zM31.08 104.83H0V.49h8.31C25.19.47 42.06.4 58.94.45c6.56.02 13.05.71 19 3.8 7.98 4.15 12.79 10.77 14.7 19.5 1.16 5.27 1.16 10.54-.32 15.78-2.14 7.56-7.09 12.81-13.66 16.74-.42.25-.85.5-1.26.77-.07.05-.09.19-.19.42.46.23.92.5 1.4.7 8.46 3.61 12.96 10.18 13.96 19.15.43 3.9.37 7.87.36 11.81-.02 5.3-.57 10.66 2.68 15.63-.75.07-1.21.15-1.67.15-9.7 0-19.4-.05-29.1.01-1.4 0-2.1-.52-2.24-1.75-.46-4.12-.81-8.26-1.26-12.38-.42-3.86-.65-7.77-1.46-11.55-1.4-6.47-6.22-10.62-12.78-11.1-4.85-.35-9.74-.24-14.61-.38-1.35-.04-1.46.69-1.46 1.76.04 11.12.05 22.25.07 33.37v1.96zm0-69.16h-.02c0 3.29.06 6.57-.03 9.85-.04 1.33.43 1.66 1.69 1.65 5.36-.06 10.73.04 16.09-.04 2.01-.03 4.06-.22 6.01-.68 5.15-1.2 8.93-6.25 8.49-11.58-.42-5.14-2.9-9.47-9.44-9.87-7.2-.44-14.43-.46-21.64-.68-.97-.03-1.18.47-1.18 1.33.03 3.34.01 6.68.01 10.02zM452.87 104.81h-28.72c-.03-.67-.08-1.25-.08-1.83 0-11.95.03-23.89-.03-35.83-.01-2.56-.22-5.15-.62-7.68-.74-4.7-4.22-7.63-8.97-7.81-4.22-.16-7.84 2.58-8.81 7.09-.55 2.59-.66 5.31-.67 7.98-.07 12.05-.06 24.11 0 36.16 0 1.54-.33 2.07-1.97 2.05-8.44-.09-16.87-.05-25.31-.05h-1.83V103c-.03-13.7-.05-27.4-.09-41.09 0-.82-.06-1.65-.19-2.45-.79-4.85-2.95-7.23-7.08-7.84-4.19-.62-8.47 1.4-10.12 5.39-1.11 2.67-1.93 5.67-1.98 8.54-.21 12-.08 24-.08 36v3.23h-28.44V31.1c.51-.04.98-.12 1.46-.12 7.94-.03 15.89-.03 23.83-.1 1.33-.01 1.84.3 1.78 1.72-.11 2.49-.03 4.99.15 7.61 5.68-7.88 13.25-11.77 22.88-11.66 9.61.11 17.37 3.55 22.22 12.42 1.37-1.67 2.52-3.19 3.79-4.59 4.15-4.57 9.52-6.68 15.49-7.48 6.64-.88 13.19-.53 19.25 2.56 8.82 4.51 13.3 12.05 13.81 21.79.41 7.87.32 15.77.38 23.66.06 8.77.04 17.53.04 26.3 0 .48-.05.96-.09 1.61zM626.98 104.9H601.01q-2.36 0-2.36-2.29c0-13.37.03-26.74 0-40.11 0-3.16-.71-6.15-3.13-8.36-3.39-3.1-7.48-3.66-11.66-2.18-4.17 1.47-7.04 4.43-7.81 8.96a37.99 37.99 0 0 0-.52 6.21c-.05 12-.03 24-.03 36v1.77h-1.79c-8.55 0-17.1-.03-25.64.04-1.53.01-1.91-.45-1.91-1.95.05-23.95.03-47.89.04-71.84 0-.48.05-.96.08-1.56h28.06v10.13c1.76-1.89 3.16-3.45 4.63-4.95 4.8-4.91 10.71-7.22 17.52-7.48 5.76-.22 11.41.15 16.63 2.88 8.14 4.26 12.58 11.23 13.42 20.15.66 6.96.43 14.01.47 21.02.07 10.74.04 21.48.05 32.22 0 .37-.05.75-.09 1.35zM462.49 55.13c.76-12.81 5.37-20.61 17.71-24.6 10.01-3.24 20.17-3.23 30.37-1.37 3.97.72 7.89 1.82 11.73 3.06 8.72 2.82 13.55 9.12 14.13 18.07.61 9.5.41 19.05.53 28.58.08 6.24.02 12.49.15 18.73.06 2.95 1.28 5.41 4.22 7.16-.7.08-1.09.16-1.48.16-8.82 0-17.64-.04-26.46.03-1.48.01-2.22-.48-2.57-1.84-.4-1.53-.87-3.05-1.3-4.57-.13-.45-.26-.89-.49-1.69-.83.9-1.43 1.57-2.07 2.22-4.57 4.64-10.28 6.73-16.62 7.32-6.52.6-12.91.2-18.97-2.6-12.69-5.87-16.15-22.04-6.98-32.65 3.12-3.62 7.16-5.88 11.67-6.97 7.7-1.86 15.52-3.26 23.27-4.92 2.13-.46 4.28-1 6.31-1.78 3.82-1.47 4.71-5.73 1.81-8.64-.93-.93-2.16-1.75-3.41-2.15-3.59-1.17-7.17-.74-10.54.88-3.23 1.56-4.47 4.35-4.25 8.14-8.96-.19-17.79-.37-26.74-.56zm46.56 16.33c-4.52 3.47-9.73 4.76-14.93 6.07-1.64.41-3.28.88-4.87 1.47-2.63.98-4.34 3.28-4.34 5.62 0 2.52 1.75 5.03 4.49 5.87 4.79 1.48 9.48 1.03 13.68-1.78 4.83-3.23 7.44-10.95 5.97-17.25zM139.22 26.21c8.67-.06 16.9 1.65 24.22 6.5 8.68 5.74 13.87 14.01 16.48 23.93 3.47 13.21.89 25.35-7.78 35.77-8.02 9.64-18.76 14.31-31.3 14.57-9.91.21-19.3-1.62-27.44-7.76-8.43-6.36-13.44-14.9-15.46-25.14-1.72-8.71-.92-17.27 2.96-25.35 5.17-10.77 13.84-17.51 25.19-20.69 4.23-1.19 8.69-1.54 13.05-2.27.02.15.05.29.07.44zm12.92 42.85c.06-6.09-1.02-11.58-2.93-16.14-2.08-4.99-7.62-7.91-12.75-6.47-4.27 1.2-7.17 4.11-8.16 8.42-.87 3.82-1.46 7.74-1.71 11.65-.33 5.02.44 9.95 2.74 14.52 2.07 4.12 5.53 6.03 10.07 6.18 4.29.14 7.1-2.18 9.15-5.6 2.54-4.24 3.48-8.93 3.58-12.56zM232.24 29.3c0 5.46-.02 10.6.01 15.75 0 1.16-.67 1.17-1.5 1.16-3.62-.02-7.23.02-10.85-.06-1.44-.03-1.96.34-1.93 1.92.12 9.31.11 18.63.16 27.94.02 4.87 2.07 7.18 6.94 7.6 2.15.18 4.34.03 6.74.03.02.26.12.88.13 1.51.02 6.08.01 12.16.03 18.25 0 .87.02 1.61-1.13 1.81-9.46 1.67-18.94 2.45-28.34-.07-8.08-2.17-12.95-8.71-12.98-17.12-.05-13.37-.04-26.74.02-40.11 0-1.4-.4-1.82-1.75-1.76-2.41.1-4.82.02-7.23.1-1.11.04-1.57-.27-1.56-1.46.05-4.6.04-9.21 0-13.81-.01-1.23.32-1.76 1.67-1.69 2.3.11 4.6-.05 6.9.04 1.45.06 2-.28 1.97-1.89-.09-6.79.02-13.59-.07-20.38-.02-1.63.51-2.02 2.05-2.01 8.33.06 16.66.06 24.98 0 1.33 0 1.52.57 1.51 1.68-.03 6.68-.02 13.37-.02 20.05 0 2.83-.22 2.5 2.42 2.5 3.29.01 6.58 0 9.86 0h1.96z"/></g></svg>