<svg height="2500" width="2500" xmlns="http://www.w3.org/2000/svg" viewBox="0 0 283.46500000000003 283.467"><path d="M141.732 271.315c-71.45 0-129.581-58.13-129.581-129.582 0-71.453 58.13-129.582 129.581-129.582 71.452 0 129.583 58.129 129.583 129.582 0 71.452-58.131 129.582-129.583 129.582" fill="#fff"/><path d="M141.732 12.15c-71.452 0-129.583 58.131-129.583 129.583S70.28 271.316 141.732 271.316s129.583-58.13 129.583-129.583c0-71.452-58.131-129.582-129.583-129.582m0 3.694c69.525 0 125.888 56.362 125.888 125.888 0 69.526-56.363 125.887-125.888 125.887S15.844 211.259 15.844 141.733c0-69.526 56.363-125.888 125.888-125.888" fill="#fff"/><path d="M189.82 147.021c.187-1.732.279-3.5.279-5.288a45.92 45.92 0 0 0-.447-6.442l71.635-9.628c.726 5.252 1.08 10.614 1.08 16.07 0 4.47-.242 8.882-.726 13.22zm51.655 62.474l-59.755-40.593a47.698 47.698 0 0 0 5.381-10.429l67.818 25.008a119.52 119.52 0 0 1-13.444 26.014M198.18 248.32l-33.816-63.87c3.482-1.825 6.703-4.097 9.627-6.705l48.19 53.779a119.947 119.947 0 0 1-24 16.796m-56.442 14.04v-72.268c4.023 0 7.933-.484 11.657-1.435l17.43 70.146a119.86 119.86 0 0 1-29.087 3.557M98.671 141.733c0-23.742 19.328-43.07 43.069-43.07 23.743 0 43.07 19.328 43.07 43.07 0 23.76-19.327 43.09-43.07 43.09-23.74 0-43.069-19.33-43.069-43.09m13.928 117.07a118.586 118.586 0 0 1-27.335-10.52l33.796-63.852a46.81 46.81 0 0 0 10.969 4.21zm-70.61-49.327l59.754-40.593a49.152 49.152 0 0 0 7.71 8.826L61.28 231.505a120.26 120.26 0 0 1-19.29-22.029M21.84 154.935l71.821-7.914h.019a47.572 47.572 0 0 0 2.681 11.434l-67.798 25.008a119.115 119.115 0 0 1-6.723-28.528m7.746-57.595l67.203 26.61a45.522 45.522 0 0 0-2.96 11.36h-.019l-71.617-9.647a118.282 118.282 0 0 1 7.393-28.323M63.44 50.061l46.887 54.951a48.464 48.464 0 0 0-7.913 8.64L43.628 71.644A121.746 121.746 0 0 1 63.44 50.061m56.775-27v75.396a17.53 17.53 0 0 1-.112.056L87.816 33.88a119.155 119.155 0 0 1 32.4-10.819m1.843-.316a120.323 120.323 0 0 1 19.681-1.62c6.704 0 13.277.54 19.683 1.62v74.856a47.962 47.962 0 0 0-19.683-4.208c-7.02 0-13.666 1.49-19.68 4.208zm73.57 11.116a120.168 120.168 0 0 1 24.394 16.182l-46.906 54.932a48.246 48.246 0 0 0-9.776-6.48zm44.207 37.764a119.82 119.82 0 0 1 14.059 25.696l-67.203 26.611a47.287 47.287 0 0 0-5.643-10.299zM141.74 15.836c-69.53 0-125.895 56.367-125.895 125.897S72.21 267.63 141.74 267.63c69.532 0 125.897-56.365 125.897-125.896S211.272 15.836 141.74 15.836" fill="#19171b"/><path d="M15.845 141.733c0 69.52 56.36 125.894 125.88 125.894h.014v15.84h-.014C63.46 283.467.005 220.014.005 141.733.005 63.453 63.46 0 141.725 0h.014v15.84h-.014c-69.52 0-125.88 56.373-125.88 125.893" fill="#fff"/><path d="M283.459 141.733c0 78.28-63.44 141.72-141.72 141.734v-15.84c69.533-.013 125.88-56.374 125.88-125.894 0-69.52-56.347-125.88-125.88-125.893V0c78.28.013 141.72 63.453 141.72 141.733" fill="#cf142b"/><path d="M141.732.001C63.456.001 0 63.457 0 141.735c0 78.275 63.456 141.732 141.732 141.732 78.277 0 141.733-63.457 141.733-141.732C283.465 63.457 220.01 0 141.732 0zm0 3.024c76.485 0 138.71 62.224 138.71 138.71 0 76.484-62.225 138.709-138.71 138.709-76.484 0-138.709-62.225-138.709-138.71C3.023 65.25 65.248 3.026 141.732 3.026" fill="#19171b"/><path d="M98.643 141.733c0 23.798 19.292 43.09 43.089 43.09 23.799 0 43.09-19.292 43.09-43.09s-19.291-43.089-43.09-43.089c-23.797 0-43.089 19.292-43.089 43.09" fill="#cf142b"/><g fill="#fff"><path d="M128.143 108.836l13.592 13.59 13.604-13.595-13.602 32.902zM155.33 174.632L141.74 161.04l-13.604 13.595 13.602-32.902zM108.834 155.327l13.592-13.592-13.595-13.604 32.901 13.602z"/><path d="M174.63 128.14l-13.591 13.592 13.596 13.603-32.903-13.602zM161.423 22.745v74.856c-.41-.185-.838-.372-1.266-.521a26.117 26.117 0 0 0-2.532-.968 36.627 36.627 0 0 0-4.674-1.379c-.8-.222-1.62-.39-2.458-.521a21.291 21.291 0 0 0-1.881-.316 21.032 21.032 0 0 0-1.917-.241 40.826 40.826 0 0 0-4.023-.243c-.297-.019-.615-.019-.93-.019-.3 0-.615 0-.913.019-1.36.019-2.701.093-4.041.243-.633.054-1.267.129-1.9.222-.67.094-1.321.206-1.973.335-.894.15-1.75.336-2.607.54-.522.13-1.043.261-1.564.41-.969.28-1.937.578-2.867.913-.857.298-1.695.633-2.514.986-.15.056-.28.112-.41.168-.298.112-.596.243-.894.372V22.745c.037 0 .075-.018.112-.018.633-.111 1.266-.204 1.899-.298 2.812-.409 5.642-.745 8.51-.949 1.861-.15 3.724-.243 5.604-.299h.13c.765-.037 1.51-.037 2.273-.056h2.309c.763.019 1.508.019 2.27.038a.364.364 0 0 0 .15.018c1.863.056 3.724.15 5.587.299 3.556.26 7.057.69 10.52 1.265"/><path d="M161.415 22.747V50.64c-1.583-5.121-6.108-9.961-13.314-14.17l-1.229-.709c.093-.353.168-.725.224-1.078 2.141-1.826 2.401-2.626.223-4.582l.708-1.713 2.328-5.605.54-1.303c3.556.26 7.057.69 10.52 1.267M122.05 22.653v27.894c1.583-5.12 6.108-9.962 13.314-14.171l1.23-.707a11.183 11.183 0 0 1-.225-1.08c-2.141-1.825-2.401-2.625-.222-4.581l-.708-1.713-2.328-5.604-.54-1.304c-3.556.261-7.057.689-10.52 1.266M146.723 20.735l-1.322.41-.093.036-.13.038c0-.019-.02-.038-.02-.055-.577-1.192-1.731-2.068-2.309-2.515l-.185-.149v-2.104c2.123.41 3.799 2.16 4.059 4.339M140.801 16.396V18.5l-.185.15c-.596.446-1.75 1.322-2.31 2.531 0 .019-.018.019-.018.038l-.112-.038-.112-.036-1.321-.41c.26-2.179 1.936-3.928 4.058-4.339"/><path d="M148.66 22.057l-2.347 5.604c-1.284-.744-3.929-.8-4.58-.8-.652 0-3.296.056-4.581.8l-2.347-5.604 2.7.856s-.241 2.123 1.491 2.123c1.712 0 1.49-1.172 1.49-1.172-1.137-.913-.671-1.919.093-2.737.372-.392.8-.727 1.154-1.007.354.28.782.615 1.154 1.007.764.818 1.229 1.824.093 2.737 0 0-.223 1.172 1.508 1.172 1.713 0 1.472-2.123 1.472-2.123z"/></g><path d="M130.914 76.076c1.229 6.276 1.117 12.7-.615 18.676.857-.204 1.714-.39 2.608-.539.13-.894.223-1.806.26-2.7.28-5.325-.763-10.502-2.253-15.437zm21.19 15.213c-.893-4.934-.557-10.129.28-15.213-1.973 5.79-2.681 12.067-1.9 18.137a21 21 0 0 1 2.459.522 26.77 26.77 0 0 1-.839-3.446" fill="#1a171b"/><path d="M157.244 70.155c2.513-8.25-.856-13.538-5.456-16.498 11.265.8 11.061 11.916 5.456 16.498zm-6.573-.912c-.634.148-1.676.316-2.794.316-1.396 0-2.941-.262-4.077-1.211-.336-.297-.783-.856-1.136-1.47-.652-1.08-1.099-2.347-.465-2.663a.35.35 0 0 1 .148-.038c.801 0 1.844 2.571 4.581 2.571 0 0-1.061-1.341-.187-1.453h.075c.521 0 1.173.67 2.365.67.69 0 1.546-.224 2.663-.913-.224 1.192-.633 2.552-1.173 4.19zm-8.956-25.418c-1.714-1.472-2.534-2.849-2.962-3.966a4.497 4.497 0 0 0 2.962 1.08c1.134 0 2.16-.391 2.997-1.099-.447 1.117-1.267 2.513-2.997 3.985zM140.41 61.59c-.615 0-1.323-.112-1.788-.149h-.075c-1.247 0-1.19 2.421-4.356 3.576-.019 0-.708 0-1.155-1.007-.391-.874-.149-1.508-.149-1.508 2.607-3.742 3.11-4.916 5.157-4.916h.168c2.179.056 2.738.783 3.39 2.663.39 1.099-.318 1.341-1.192 1.341zm-9.218-5.028s1.397-.39 3.147-1.321l-16.442-37.15-.689-3.593 2.514 3.259 17.69 36.068c1.824-.763 3.035-1.583 3.035-1.583l1.192 2.588s-.373-.074-.987-.074c-.969 0-2.533.168-4.228.95-2.774 1.286-4.021 3.426-4.021 3.426zm-1.36-1.526c-.334.297-.65.614-.949.93-3.016 3.128-4.618 7.766-2.644 14.19-5.605-4.562-5.81-15.604 5.326-16.48.037-.018.093-.018.13-.018-.037.018-.074.055-.112.074-.614.392-1.191.838-1.75 1.304zm-2.346-10.075c.057-.073.112-.148.187-.223l2.29 5.178c-.037.017-.093.036-.13.054-2.812.988-5.326 2.328-6.592 4.526.112-3.706 1.88-6.89 4.245-9.535zm5.55-4.821a45.307 45.307 0 0 1 3.222-2.068c.409 1.098.596 4.413 5.045 7.802-.987.856-2.663 1.49-4.617 2.048-.038.019-.056.038-.094.038l-3.761-7.672c.075-.056.13-.094.205-.148zm1.768-18.082l2.7.856s-.241 2.123 1.491 2.123c1.712 0 1.49-1.172 1.49-1.172-1.137-.913-.671-1.919.093-2.737.372-.392.8-.727 1.154-1.007.354.28.782.615 1.154 1.007.764.818 1.229 1.824.093 2.737 0 0-.223 1.172 1.508 1.172 1.713 0 1.472-2.123 1.472-2.123l2.7-.856-2.347 5.604c-1.284-.744-3.929-.8-4.58-.8-.652 0-3.296.056-4.581.8zm5.996-5.661V18.5l-.185.15c-.596.446-1.75 1.322-2.31 2.531 0 .019-.018.019-.018.038l-.112-.038-.112-.036-1.321-.41c.26-2.179 1.936-3.928 4.058-4.339zm1.863 0c2.123.41 3.799 2.16 4.059 4.339l-1.322.41-.093.036-.13.038c0-.019-.02-.038-.02-.055-.577-1.192-1.731-2.068-2.309-2.515l-.185-.149zm-1.676 13.575c-1.527-.111-2.625.298-3.072.502.019-.818.056-1.34.056-1.34 1.135-.261 2.42-.39 3.743-.39 1.34 0 2.606.148 3.742.409.019.112.038.615.056 1.321-.448-.204-1.546-.613-3.073-.502 0 0-.223 1.489 1.024 1.75.932.186 1.881.615 1.881 2.048v.019c-.316 2.588-1.229 5.307-3.63 5.307-2.403 0-3.315-2.719-3.632-5.307v-.019c0-1.433.95-1.862 1.862-2.048 1.267-.261 1.043-1.75 1.043-1.75zm6.237 28.75V55.5a3.96 3.96 0 0 1 3.222 3.221zm0 1.323h3.222a3.96 3.96 0 0 1-3.222 3.221zm-1.321 0v3.221a3.96 3.96 0 0 1-3.221-3.221zm-3.221-1.323c.112-.633.372-1.21.744-1.713.242-.316.54-.596.857-.819a3.612 3.612 0 0 1 1.62-.689v3.221zm1.805-5.734v-1.323h1.416v-1.433h1.321v1.433h1.416v1.323h-1.416v1.47a4.05 4.05 0 0 0-.669-.056c-.224 0-.448.019-.652.056v-1.47zm2.683-14.916c2.289 1.341 5.213 3.277 7.689 5.736-1.21 1.024-2.997 1.786-4.617 2.122-1.9.391-3.874.298-5.774-.093 3.819 1.77 8.362 2.01 12.179-.075 2.03 2.478 3.483 5.4 3.556 8.734-3.203-5.587-14.635-5.623-18.08-8.622 4.45-3.389 4.636-6.704 5.047-7.802zm15.194 20.893a3.226 3.226 0 0 0-.224-.596l-.093-3.93a13.963 13.963 0 0 0-.633-3.798c-1.583-5.121-6.108-9.961-13.314-14.17l-1.229-.709c.093-.353.168-.725.224-1.078 2.141-1.826 2.401-2.626.223-4.582l.708-1.713 2.328-5.605.54-1.303 1.005-2.384-3.39 1.08c-.577-3.221-3.389-5.697-6.777-5.697-3.37 0-6.201 2.476-6.76 5.697l-3.407-1.08 1.005 2.384.54 1.303 2.346 5.605.708 1.713c-2.16 1.938-1.918 2.738.168 4.526.055.372.13.762.223 1.134l-1.23.708a40.159 40.159 0 0 0-3.09 1.956 2.69 2.69 0 0 0-.242.167l-8.025-16.367-2.682-5.456-7.376-9.632 2.218 11.494 2.663 6.033 8.081 18.248c-.074.075-.148.168-.223.243-2.253 2.364-3.78 4.841-4.6 7.392a14.015 14.015 0 0 0-.67 3.892l-.111 4.097c-.056.13-.094.279-.15.428-.894 2.793-.502 6.015.876 8.752v21.432s.018-.335.056-.912c.186-3.148 1.005-13.427 3.37-16.256l-.075-.168 1.21 1.005c.038.206.057.41.094.615.335 2.197.652 4.283.633 6.164-.037 6.405-.67 11.097-3.929 17.465.82-.353 1.657-.688 2.514-.986 2.756-6.034 3.24-10.782 3.259-16.46 0-1.603-.206-3.315-.447-5.066-.243-1.638-.503-3.296-.69-4.916v-.018c-.427-3.874-.297-8.119 2.18-10.875.204-.204.41-.41.633-.615a6.093 6.093 0 0 0-.485.914c-2.123 4.394.596 9.72 3.389 18.825 1.713 5.641 2.068 10.632 1.173 16.013a32.905 32.905 0 0 1 1.9-.222c.856-5.643.39-10.746-1.304-16.331-.204-.652-.39-1.267-.596-1.881-1.024-3.072-.912-6.983.633-9.087 1.49-.316 3.687-.353 5.307 1.36v25.696c.299-.019.615-.019.913-.019.316 0 .632 0 .931.019v-23.63c1.285 1.08 3.016 1.602 5.157 1.62 1.006 1.733.503 4.73-.222 7.318-.019.112-.056.224-.075.317-1.304 4.935-1.601 9.552-.839 14.618.652.054 1.286.13 1.919.241-.893-5.381-.559-10.39 1.173-16.032 2.96-9.739 5.884-15.157 2.886-19.739 3.092 2.7 3.277 7.319 2.812 11.49v.018c-.186 1.639-.466 3.296-.688 4.935-.243 1.732-.448 3.444-.448 5.047.037 5.697.521 10.445 3.277 16.497.857.28 1.695.596 2.533.968-3.277-6.387-3.929-11.079-3.966-17.484 0-1.881.316-3.967.633-6.164.037-.205.075-.41.093-.615l1.154-.93c2.477 3.146 3.24 14.654 3.352 16.777.018.224.018.335.018.335V67.808c1.416-2.756 1.826-6.015.932-8.844" fill="#1a171b"/><path d="M142.768 36.964c0 .57-.463.485-1.033.485s-1.034.086-1.034-.485a1.033 1.033 0 1 1 2.067 0M144.535 35.52c-.876.204-2.031.185-2.812-.317-.783.502-1.938.521-2.812.317.67-.243 1.898-.857 1.898-1.713.486-.262 1.416-.206 1.826 0 0 .856 1.21 1.47 1.9 1.713" fill="#1a171b"/><path d="M141.64 54.83s-.373-.075-.987-.075c-.969 0-2.533.168-4.228.95-2.774 1.286-4.021 3.426-4.021 3.426l-1.21-2.57s1.396-.39 3.146-1.321l-16.442-37.15-.689-3.611 2.514 3.277 17.69 36.068c1.824-.763 3.035-1.583 3.035-1.583z" fill="#fff"/></svg>