<svg clip-rule="evenodd" fill-rule="evenodd" height="656" image-rendering="optimizeQuality" shape-rendering="geometricPrecision" text-rendering="geometricPrecision" viewBox="0 0 1398 367" width="2500" xmlns="http://www.w3.org/2000/svg"><path d="m891 60c28-36 73-60 122-60 53 0 100 27 128 67v-61h156v196h61v162h-116c-29 0-55-12-74-31v32h-145c-3-4-6-8-8-13-2 5-5 9-8 13h-149v-140c-11 13-25 25-40 34v106h-164v-106c-17-10-32-23-43-38-16 80-81 146-166 146-63 0-115-35-144-86v20c0 6 1 20 4 26l2 2v35h-144c-3-4-5-8-7-12-3 5-6 10-10 14h-146v-360h191c52 0 95 33 111 79 30-49 81-84 143-84 58 0 106 31 136 75v-72h310z" fill="#fefefe"/><path d="m1164 22h110c4 0 7 3 7 7v174c0 8 7 15 15 15h39c4 0 7 3 7 7v116c0 4-3 7-7 7h-93c-47 0-85-38-85-85v-234c0-4 3-7 7-7zm-898 170c11 4 19 15 19 27v82c0 7 2 29 7 35 2 2 2 5 1 8-1 2-4 4-6 4h-120c-3 0-7-3-7-7v-83c0-5-4-9-9-9h-10v94c0 4-3 7-7 7h-111c-4 0-7-3-7-7v-314c0-4 3-7 7-7h168c56 0 102 46 102 101 0 26-10 51-27 69zm179-175c23 0 46 6 67 17 55 29 86 89 86 150s-31 121-86 150c-21 11-44 17-67 17-24 0-47-6-67-17-55-29-87-89-87-150s32-121 87-150c20-11 43-17 67-17zm357 232v93c0 4-3 7-7 7h-118c-4 0-7-3-7-7v-93c-43-21-73-63-73-111v-111c0-4 3-7 7-7h111c3 0 7 3 7 7v99c0 8 6 14 14 14s14-6 14-14v-99c0-4 3-7 7-7h111c4 0 7 3 7 7v111c0 48-30 90-73 111zm226 24h-29v69c0 4-3 7-7 7h-111c-3 0-7-3-7-7v-187c0-76 63-139 139-139 77 0 139 63 139 139v187c0 4-3 7-6 7h-111c-4 0-7-3-7-7zm-887-143v24h4c6 0 12-5 12-12 0-6-6-12-12-12zm304 14h-3c-7 1-12 7-15 12-5 9-7 19-7 28 0 10 2 20 7 28 3 5 8 11 15 12 1 1 2 1 3 1s2 0 3-1c6-1 11-7 14-12 5-8 7-18 7-28 0-9-2-19-7-28-3-5-8-11-14-12zm583 33v-23c0-8-7-15-15-15-7 0-14 7-14 15v23z" fill="#fefefe"/><path d="m1164 29h110v174c0 12 10 22 22 22h39v116h-93c-43 0-78-35-78-78zm-1141 0h168c52 0 95 43 95 94 0 31-15 58-37 75h8c12 0 21 10 21 21v82c1 21 4 35 9 40h-120v-83c0-9-7-16-16-16h-17v101h-111zm111 94h11c10 0 19 9 19 19s-9 19-19 19h-11zm311-99c81 0 146 72 146 160s-65 160-146 160-147-72-147-160 66-160 147-160zm0 113c17 0 31 21 31 47s-14 48-31 48c-18 0-32-22-32-48s14-47 32-47zm423-110v111c0 46-30 87-73 107v97h-118v-97c-43-20-73-61-73-107v-111h111v99c0 12 9 21 21 21s21-9 21-21v-99zm13 315h111v-76h43v76h111v-187c0-73-60-132-133-132-72 0-132 59-132 132zm154-158v-30c0-12-10-22-22-22-11 0-21 10-21 22v30z" fill="#ed3237"/><path d="m891 60c28-36 73-60 122-60 53 0 100 27 128 67v-61h156v196h61v162h-116c-29 0-55-12-74-31v32h-145c-3-4-6-8-8-13-2 5-5 9-8 13h-149v-140c-11 13-25 25-40 34v106h-164v-106c-17-10-32-23-43-38-16 80-81 146-166 146-63 0-115-35-144-86v20c0 6 1 20 4 26l2 2v35h-144c-3-4-5-8-7-12-3 5-6 10-10 14h-146v-360h191c52 0 95 33 111 79 30-49 81-84 143-84 58 0 106 31 136 75v-72h310z" fill="none"/><circle cx="1362" cy="56" fill="#fefefe" r="36"/><path d="m1362 30c4 0 8 1 13 3 4 3 7 6 9 10 3 4 4 9 4 13 0 5-1 9-4 13-2 4-5 7-9 10-4 2-9 3-13 3-5 0-9-1-13-3-4-3-8-6-10-10s-3-8-3-13c0-4 1-9 3-13s6-7 10-10c4-2 8-3 13-3zm0 4c-4 0-8 1-11 3s-6 5-8 8c-2 4-3 7-3 11s1 7 3 11c2 3 4 6 8 8 3 2 7 3 11 3s7-1 11-3c3-2 6-5 8-8 2-4 3-7 3-11s-1-7-3-11c-2-3-5-6-9-8-3-2-7-3-10-3zm-12 36v-28h10c3 0 6 1 7 1 2 1 3 2 4 3s1 3 1 4c0 2-1 4-2 5-2 2-4 3-6 3 1 0 2 1 2 1 1 2 3 3 4 6l4 5h-6l-2-4c-2-3-4-6-5-6-1-1-2-1-4-1h-2v11zm5-15h5c3 0 5-1 6-1 1-1 1-2 1-4 0 0 0-1-1-2l-1-1c-1-1-3-1-5-1h-5z" fill="#272424"/></svg>