<svg height="1127.425" viewBox="0 -0.001 3543.377 1056.982" width="1000mm" xmlns="http://www.w3.org/2000/svg"><g fill-rule="evenodd"><path d="M0 755.084h340.02v284.058H0z" fill="#ed1c24"/><path d="M1955.663-.001l610.453 1056.982L3175.985-.001h-402.463l-207.406 363.663L2359.066 0zM3543.377 1039.142h-345.832V380.965h345.832z"/><path d="M3543.377 287.715h-345.832V.585h345.832z" fill="#ed1c24"/><path d="M978.323 1.058v289.785h306.103v749.896h348.373V290.843h305.421V1.058zM.465 379.84v287.189h365.296l211.624 373.18H972.56L741.504 633.215c48.827-23.987 91.037-59.44 122.988-102.842s53.644-94.752 61.439-150.533zM.465.529l-.01 286.66H925.92c-11.285-80.14-51.256-151.406-109.234-202.837S682.72 1.326 599.402.53z"/></g></svg>