<svg viewBox="0 0.1562502192776698 146.10999999999999 43.03211538515275" xmlns="http://www.w3.org/2000/svg" width="2500" height="734"><g stroke-linejoin="round" stroke-width=".43"><path d="M127.99 25.92a44 44 0 0 1 16.27 13.61.49.49 0 0 0 .79-.57 38.92 38.92 0 0 0-14.81-14.34 10.27 10.27 0 0 1-2.25 1.3z" fill="#26bf2c" stroke="#46874e"/><path d="M123.36 25.83c8 3 15 8.08 21.4 14.61.55.49 1.35 0 1-.64a46.58 46.58 0 0 0-19.1-14.53 6 6 0 0 1-3.3.56zM125.02 24.15c7.2-1.62 13.24-7.25 15.52-11.75 3-5.54 3.12-10.33 2.81-10.8-.55-.93-1.65-.43-1.58.05.96 6.46-5.59 15.74-10.04 17.57-.81.7-5.12 3.6-6.71 4.93z" fill="#0b70b8" stroke="#005d9b"/><path d="M123.16 2.92c3.33-.68 6.42-.73 8.13 1a10 10 0 0 1 2.34 6c.31 4-1.86 8.42-4.39 10.88a15.36 15.36 0 0 1-6.4 3.72 6.06 6.06 0 0 0 3.1-.33 16.31 16.31 0 0 0 6.95-5.27 20 20 0 0 0 1.57-2.69 14.17 14.17 0 0 0 1.15-3.6 13.53 13.53 0 0 0 .12-4.71 10 10 0 0 0-2.3-5.18 7.14 7.14 0 0 0-5.45-2.56 8.76 8.76 0 0 0-4 .89 1.82 1.82 0 0 0-.7.89 2.39 2.39 0 0 0-.12.96z" fill="#26bf2c" stroke="#46874e"/></g><path d="M6.4 23.48a12.75 12.75 0 0 1 2.2.18 6.8 6.8 0 0 1 1.44.36l-.47 2a5.32 5.32 0 0 0-1.18-.31 13.55 13.55 0 0 0-2.35-.16 11.12 11.12 0 0 0-2.46.22 6.76 6.76 0 0 0-1.22.36v16.53H0V24.72a17.43 17.43 0 0 1 2.51-.8 15.64 15.64 0 0 1 3.89-.44z" fill="#26bf2c"/><path d="M28.05 42.01q-1.06.29-2.84.65a22.29 22.29 0 0 1-4.37.36 8.85 8.85 0 0 1-3.53-.62 5.73 5.73 0 0 1-2.29-1.75 7.08 7.08 0 0 1-1.29-2.73 15.2 15.2 0 0 1-.38-3.53V23.85h2.38v9.79a16.71 16.71 0 0 0 .29 3.38 5.5 5.5 0 0 0 .95 2.24 3.69 3.69 0 0 0 1.76 1.24 7.36 7.36 0 0 0 2.53.38 20.24 20.24 0 0 0 2.91-.18 7.81 7.81 0 0 0 1.56-.33V23.85h2.37v18.16zM38.17 40.99a7.42 7.42 0 0 0 3.37-.67 2.35 2.35 0 0 0 1.33-2.27 3.29 3.29 0 0 0-.24-1.31 2.58 2.58 0 0 0-.78-1 6.75 6.75 0 0 0-1.44-.82q-.89-.4-2.2-.95-1.06-.44-2-.89a8.19 8.19 0 0 1-1.68-1.06 4.6 4.6 0 0 1-1.16-1.44 4.36 4.36 0 0 1-.44-2 4.57 4.57 0 0 1 1.73-3.71 7.27 7.27 0 0 1 4.75-1.42 12.91 12.91 0 0 1 3.18.33 10.14 10.14 0 0 1 1.76.58l-.55 2.11a14.3 14.3 0 0 0-1.47-.58 9.7 9.7 0 0 0-3-.36 6.7 6.7 0 0 0-1.51.16 4 4 0 0 0-1.25.51 2.74 2.74 0 0 0-.87.88 2.42 2.42 0 0 0-.33 1.29 2.76 2.76 0 0 0 .29 1.31 2.91 2.91 0 0 0 .86 1 7.17 7.17 0 0 0 1.38.78l1.83.73q1.09.43 2.09.89a7.74 7.74 0 0 1 1.77 1.09 5.07 5.07 0 0 1 1.24 1.53 4.74 4.74 0 0 1 .47 2.22 4.38 4.38 0 0 1-1.91 3.86 9.12 9.12 0 0 1-5.22 1.31 13.12 13.12 0 0 1-3.78-.42 14.56 14.56 0 0 1-1.75-.64l.62-2.11a4 4 0 0 0 .47.24 10 10 0 0 0 1 .36 10.65 10.65 0 0 0 1.47.35 11.91 11.91 0 0 0 1.97.12zM49.89 42.66v-27.8l2.37-.44v10a14.94 14.94 0 0 1 2.37-.67 12.39 12.39 0 0 1 2.4-.24 9.34 9.34 0 0 1 3.64.62A5.63 5.63 0 0 1 63 25.9a6.85 6.85 0 0 1 1.22 2.75 16.75 16.75 0 0 1 .35 3.53v10.48h-2.38v-9.74a17.85 17.85 0 0 0-.27-3.38 5.64 5.64 0 0 0-.91-2.26 3.53 3.53 0 0 0-1.69-1.26 7.9 7.9 0 0 0-2.66-.38 8.78 8.78 0 0 0-1.33.11q-.71.11-1.33.24t-1.11.27a4.88 4.88 0 0 0-.64.22v16.18z" fill="#46874e"/><path d="M75.32 32.42a27.41 27.41 0 0 1 2.6 2.09q1.31 1.19 2.58 2.57t2.4 2.84a32.22 32.22 0 0 1 1.92 2.74h-2.84a23.31 23.31 0 0 0-2-2.81 32.55 32.55 0 0 0-2.37-2.6q-1.24-1.22-2.48-2.22a14 14 0 0 0-2.19-1.51v9.14h-2.35v-27.8l2.37-.44v17.5q.76-.65 1.89-1.77l2.31-2.23q1.17-1.14 2.22-2.2t1.75-1.87h2.89q-.83.87-1.92 1.94l-2.25 2.22-2.31 2.28q-1.14 1.11-2.22 2.13z" fill="#0b70b8"/><path d="M94.32 23.41a8.34 8.34 0 0 1 3.15.53 5.42 5.42 0 0 1 2.09 1.46 5.74 5.74 0 0 1 1.16 2.2 10 10 0 0 1 .36 2.77v11.85a10.56 10.56 0 0 1-1.06.24l-1.6.27q-.91.15-2 .24t-2.27.09a10.87 10.87 0 0 1-2.75-.33 6.07 6.07 0 0 1-2.18-1 4.89 4.89 0 0 1-1.49-1.81 6.28 6.28 0 0 1-.53-2.71 5.49 5.49 0 0 1 .58-2.62 5 5 0 0 1 1.64-1.8 7.33 7.33 0 0 1 2.51-1 14.42 14.42 0 0 1 3.17-.33q.51 0 1.07.05t1.09.15l.91.18a2.81 2.81 0 0 1 .56.08v-1.16a12.48 12.48 0 0 0-.15-1.91 4.18 4.18 0 0 0-.64-1.67 3.54 3.54 0 0 0-1.38-1.2 5.19 5.19 0 0 0-2.35-.45 12.14 12.14 0 0 0-3.09.29q-1 .29-1.49.47l-.33-2.07a8.78 8.78 0 0 1 1.91-.55 16.36 16.36 0 0 1 3.11-.26zm.22 17.51q1.38 0 2.42-.09a16.43 16.43 0 0 0 1.77-.21V34a7.28 7.28 0 0 0-1.27-.38 11.28 11.28 0 0 0-2.4-.2 13.72 13.72 0 0 0-1.82.13 5.28 5.28 0 0 0-1.75.55 3.63 3.63 0 0 0-1.31 1.15 3.3 3.3 0 0 0-.51 1.93 4.13 4.13 0 0 0 .34 1.74 2.87 2.87 0 0 0 1 1.16 4.35 4.35 0 0 0 1.53.64 9.24 9.24 0 0 0 2 .2zM113.53 23.48a12.75 12.75 0 0 1 2.2.18 6.8 6.8 0 0 1 1.44.36l-.47 2a5.32 5.32 0 0 0-1.18-.31 13.55 13.55 0 0 0-2.35-.16 11.12 11.12 0 0 0-2.46.22 6.76 6.76 0 0 0-1.22.36v16.53h-2.36V24.72a17.43 17.43 0 0 1 2.51-.82 15.64 15.64 0 0 1 3.89-.42z" fill="#005d9b"/></svg>