<svg height="990" width="2500" xmlns="http://www.w3.org/2000/svg" viewBox="-0.03392085315085325 -2.220446049250313e-16 100.41392085315084 39.750885100579794"><path d="M6.009 2.876a.691.691 0 0 0-.217.347c-.047.14-.459 2.426-.487 2.67.385.244.431.263.431.4 0 .328-.346.328-.488.328-.187 0-1.03-.075-1.2-.075a9.248 9.248 0 0 0-2.736.356.527.527 0 0 1-.255.094c-.271 0-.9-.712-.9-1.217a.441.441 0 0 1 .076-.282 1.749 1.749 0 0 0 1.172.666c.224 0 3.053-.234 3.222-.272.189-1.012.4-3.026.4-3.13 0-.14-.057-.14-.272-.14a19.568 19.568 0 0 0-3.194.431 2.777 2.777 0 0 1-.365.132c-.375 0-.947-.778-.947-1.143a.892.892 0 0 1 .057-.309c.628.562.758.618 1.246.618a30.794 30.794 0 0 0 3.476-.309 3.11 3.11 0 0 1 .347-.178 2.4 2.4 0 0 1 .816.806c.005.067-.015.085-.182.207zm.73-.777c-.14 0-.178-.047-.595-.431a2.393 2.393 0 0 0-.909-.665 3.133 3.133 0 0 1 .319-.028c.721 0 1.453.319 1.453.805a.291.291 0 0 1-.268.319zm.825-.571c-.15 0-.216-.065-.628-.468a2.625 2.625 0 0 0-.975-.666c.51-.047 1.856.075 1.856.825a.275.275 0 0 1-.253.309zM10.939 6.062c-.206.3-.562.7-.9.7a.4.4 0 0 1-.394-.459c0-.263.066-.309.51-.665a4.113 4.113 0 0 0 1.415-1.584 3.556 3.556 0 0 1-.631 2.008zm5.556-2.558c-.065 0-.425-.075-.5-.085a8.311 8.311 0 0 0-1.471-.085c-.319 0-.664 0-.984.019-.009.765-.009.85-.009 1.087 0 .393.066 2.136.066 2.493 0 .618-.216 1.217-.572 1.217-.291 0-.375-.255-.488-.609a1.313 1.313 0 0 0-.412-.51 24.397 24.397 0 0 1-.543-.478l.028-.075a4.333 4.333 0 0 0 1.115.187c.122 0 .141-.094.141-.2 0-.225.047-1.2.047-1.4 0-.581-.009-1.049-.019-1.658a8.325 8.325 0 0 0-1.976.393.722.722 0 0 1-.291.113 1.46 1.46 0 0 1-.843-1.077 2.952 2.952 0 0 1 .056-.488c.364.665.68.7.908.7.263 0 1.784-.1 2.137-.131-.028-1.33-.028-1.33-.112-1.546a1.1 1.1 0 0 0-.816-.51c.4-.243.525-.271.646-.271.244 0 1.2.3 1.2.665a4.443 4.443 0 0 1-.178.5 5.318 5.318 0 0 0-.075 1.115c.413-.028 1.274-.093 1.677-.17.085-.019.425-.131.5-.131a1.888 1.888 0 0 1 .647.234.494.494 0 0 1 .309.432c0 .119-.047.269-.188.269zm-.255 3.064c-.2 0-.271-.122-.5-.51a6.9 6.9 0 0 0-1.593-1.977c1.031.356 2.493 1.077 2.493 1.977a.467.467 0 0 1-.4.51zM22.552 2.909c-.16 0-.281-.131-.6-.449a4.765 4.765 0 0 0-1.565-1.143 3.733 3.733 0 0 1 .459-.028c.319 0 2.07.131 2.07 1.171a.425.425 0 0 1-.364.449zm.843 3.12c-.347.272-.909.675-1.228.965-.056.047-.272.3-.328.328a.255.255 0 0 1-.132.037c-.34 0-1-.85-1-1.312a2.006 2.006 0 0 1 .065-.44c.3.51.581.637.74.637a12.365 12.365 0 0 0 2.164-1.405 19.89 19.89 0 0 0 2.933-2.782l.037.019a9.294 9.294 0 0 1-3.25 3.954zM31.627 6.38a29.84 29.84 0 0 0-.281-4.057c-.019-.122-.15-.712-.15-.844a.581.581 0 1 1 1.162 0c0 .122-.131.7-.149.844a28.753 28.753 0 0 0-.281 4.057zm.731 1.115a.578.578 0 1 1-.169-.412.581.581 0 0 1 .169.412zM42.019 7.795a11.63 11.63 0 0 1-2 .178 4.946 4.946 0 0 1-2.482-.516 1.416 1.416 0 0 1-.595-1.1c0-.6.393-1.508 1.8-2.379a2.067 2.067 0 0 1-.394-1.162 9.006 9.006 0 0 0-.056-1.573c-.122-.51-.319-.571-.85-.749a1.246 1.246 0 0 1 .646-.206 2.284 2.284 0 0 1 1.152.44.261.261 0 0 1 .1.216.919.919 0 0 1-.076.255 3.3 3.3 0 0 0-.224 1.405 3.229 3.229 0 0 0 .15 1.115 13.224 13.224 0 0 1 1.7-.777c.132-.056.206-.1.206-.206a1.653 1.653 0 0 0-.094-.328c.984.206 1.012.788 1.012.862 0 .347-.225.375-.666.425-1.433.159-4.066 1.3-4.066 2.529a.935.935 0 0 0 .347.693 2.543 2.543 0 0 0 1.471.309 12.531 12.531 0 0 0 2.145-.216 2.022 2.022 0 0 1 .425-.056c.085 0 .685.019.685.488-.008.249-.241.324-.336.353zM48.751 5.087a11.047 11.047 0 0 0-.534 1.32c0 .085.093.488.093.572a.366.366 0 0 1-.355.412c-.255 0-1.705-.468-1.855-3.279-.009-.206-.037-1.1-.065-1.284a3.017 3.017 0 0 0-.385-1.133c.468.029 1.312.34 1.312 1.124a1.218 1.218 0 0 1-.028.216 13.582 13.582 0 0 0-.188 1.518c0 .974.553 1.573.749 1.573.085 0 .17-.121.225-.2.505-.731 1.019-1.462 1.5-2.23l.065.028c-.047.117-.096.248-.534 1.363zm3.953.765c-.159 0-.3-.15-.562-.459a1.947 1.947 0 0 0-.955-.4v-.047c.055-.009.787-.047.815-.056a.233.233 0 0 0 .17-.243 2.906 2.906 0 0 0-.51-1.228 4.383 4.383 0 0 0-1.068-1.059 2.866 2.866 0 0 1 2.521 2.727c0 .434-.2.771-.411.771zM61.768 8.244c-2.052 0-2.549-.17-2.719-1.208-.113-.721-.159-1.031-.712-1.031-.347 0-.552.215-1.32 1.4-.488.759-.628.9-.844.9a.4.4 0 0 1-.383-.459c0-.356.1-.449.655-.928a16.341 16.341 0 0 0 1.789-1.883c.178-.2.844-.956 1.377-1.471a.225.225 0 0 0 .075-.131c0-.056-.057-.075-.1-.075a9.181 9.181 0 0 0-1.705.749c-.263.216-.309.255-.478.255s-.861-.309-.861-.8a1.28 1.28 0 0 1 .112-.449c.217.291.329.431.657.431a8.457 8.457 0 0 0 2.061-.552 4.033 4.033 0 0 1 .534-.2c.113 0 .824.263.824.646 0 .215-.085.271-.319.425a10.82 10.82 0 0 0-2.229 1.911 2.167 2.167 0 0 1 .5-.065c.777 0 .918.59 1 .984.187.824.281.909.843.909a3.548 3.548 0 0 0 1.012-.178 2.607 2.607 0 0 1 .553-.1.553.553 0 0 1 .59.488c-.003.348-.436.432-.912.432zm-1.734-6.221c-.15 0-.765-.17-.9-.17a2.7 2.7 0 0 0-.85.178c-.037.009-.112.037-.159.047l-.047-.065c.215-.14.413-.29.618-.449a.264.264 0 0 0 .1-.187c0-.113-.037-.141-.34-.347-.534-.375-.646-.5-.675-1.03a3.215 3.215 0 0 0 1.405.759c.207.065 1.087.356 1.087.946 0 .15-.087.319-.246.319zM66.652 6.164a3.486 3.486 0 0 0-.131.85c0 .122.085.666.085.778a.34.34 0 0 1-.356.364c-.628 0-.89-1.529-.89-2.566a10.261 10.261 0 0 1 .206-2c.056-.29.244-1.237.244-1.489a.894.894 0 0 0-.4-.815.5.5 0 0 1 .328-.1 1.072 1.072 0 0 1 .993.805 1.148 1.148 0 0 1-.113.431 7.931 7.931 0 0 0-.713 2.942c0 .365.065.935.178.935.057 0 .1-.094.141-.188.122-.271.618-1.471.721-1.714l.037.009a21.3 21.3 0 0 1-.33 1.758zm5.575 1.471a.813.813 0 0 1-.562-.282 2.007 2.007 0 0 0-.748-.516 1.43 1.43 0 0 1-1.556 1.077c-.805 0-1.537-.459-1.537-1.049 0-.28.234-1.012 1.641-1.012a2.719 2.719 0 0 1 .843.1 7 7 0 0 0 0-.8c-.009-.272-.1-1.489-.113-1.733-.2.019-.59.065-.844.065a1.725 1.725 0 0 1-1.508-.74 4.765 4.765 0 0 0 1.189.178 5.785 5.785 0 0 0 1.133-.121c-.009-.2-.028-1.115-.047-1.274-.037-.272-.272-.425-.675-.51a1.127 1.127 0 0 1 .675-.346c.113 0 .849.2.849.58a1.482 1.482 0 0 1-.075.44 4.439 4.439 0 0 0-.132.985 46.341 46.341 0 0 1 1.115-.244c.178 0 .534.094.534.347a.286.286 0 0 1-.206.262 8.648 8.648 0 0 1-1.444.291c0 .425.179 2.352.189 2.764a7.375 7.375 0 0 1 1.1.516c.178.112.524.347.524.665a.365.365 0 0 1-.343.352zm-3.148-1.274c-.255 0-.918.076-.918.469 0 .309.581.449 1.05.449.281 0 1-.056 1.03-.788a4.757 4.757 0 0 0-1.163-.132zm3.261-4.225c-.159 0-.2-.047-.553-.543a3.085 3.085 0 0 0-.609-.647c.6.047 1.453.425 1.453.85 0 .116-.086.34-.291.34zm.815-.5c-.131 0-.149-.028-.468-.449a2.663 2.663 0 0 0-.824-.806c.309.028 1.583.14 1.583.918a.3.3 0 0 1-.291.337z" fill="#1a1211"/><path d="M62.825 12.864a2.221 2.221 0 0 0 .363.17 1.1 1.1 0 0 1 .475 1.217 4.248 4.248 0 0 0 1.759-.189 2.209 2.209 0 0 1 2.346.057 29.039 29.039 0 0 1 3.167 1.306c.515.425-.272.791-.355 1.167-.073.1-.242.034-.375.053l-.085-.053h-1.441l-.065.053a5.566 5.566 0 0 0-2.487.431 2.1 2.1 0 0 0-.72.555l.047.136c.68.1 1.41.185 2.052.34.765.155 1.537.35 2.315.434v.029l.6.042a1.124 1.124 0 0 0 .452.108 3.281 3.281 0 0 1 .669.217l-.035.026a.873.873 0 0 1 .52.486c.055.359-.319.489-.4.76-.461 3.379.325 6.467.442 9.812a1.117 1.117 0 0 1-.565.929c-.841-.035-1.274-.85-1.8-1.391-.255-1.011-.048-2.259-.381-3.289l-.1-.1c-2.549.17-4.831-.806-7.361-.255-.595 0-1.052.085-1.63.123-.409.149-.954.085-1.087.645a4.65 4.65 0 0 1-1.68 2.45 8.2 8.2 0 0 1-1.3.34 4.991 4.991 0 0 1-2.419-.3c-.376-.233-1.074-.181-1.189-.794v-.51a4.492 4.492 0 0 1 1.248.051c1.027-.247 2.182-.456 2.656-1.529a8.357 8.357 0 0 0 .291-5.927c-.138-.121-.291-.194-.34-.38-.071-.413-.009-.967.485-1.09.243-.078.312-.285.624-.228a3.679 3.679 0 0 1 .754-.085c.658-.127 1.359-.3 2.016-.425a20.825 20.825 0 0 1 2.788-.56c.688-.757 1.386-1.4 2.073-2.1-.176-.3-.642-.116-.929-.287a9.008 9.008 0 0 1-1.3-.595 2.773 2.773 0 0 0-1.119.523c-1.312.745-2.276 2.031-3.874 2.239a12.183 12.183 0 0 1-4.232-.743 3.271 3.271 0 0 1-.606-1.7c.034-.034.079-.034.109-.085a12.211 12.211 0 0 0 3.637.642 7.171 7.171 0 0 0 3.984-1.644 5.72 5.72 0 0 0 .961-1.154zm2.541 6.482l-.069 1.476c.15.239.5.1.74.212h2.781c.157.085.2-.165.3 0a.411.411 0 0 0 .313-.392c.024-.347.12-.7-.17-.911-1.2-.285-2.548-.897-3.895-.385zm-4.871-.075c-.551.217-1.434-.235-1.77.379a3.165 3.165 0 0 0 .425 1.72c.635-.11 1.3-.17 1.941-.255a5.68 5.68 0 0 1 1.223-.161c.34-.34.149-.863.156-1.327-.405-.63-1.348-.355-1.976-.355zm-.872 3.455c-.477.115-.176.737-.255 1.1.123.164.031.551.372.481.894 0 1.7-.2 2.626-.251.363-.35.2-1.025.051-1.452a8.71 8.71 0 0 0-2.795.122zm6.5-.077c-.249.07-.579-.045-.776.108a2.707 2.707 0 0 0 .022 1.274 22.172 22.172 0 0 0 3.786.028 1.634 1.634 0 0 0 .1-1.3c-1.053.085-2-.156-3.137-.111zM86.425 13.605a3.229 3.229 0 0 0-.085 1.212c.107.279.425.267.695.3.071.07.255.07.393.114.193.017.365.024.481.2.057.574-.481.85-.727 1.213-.184.121-.51.032-.608.245-.016.355-.127.834.189 1.066h1.3c.1.048.149.225.292.155a14.719 14.719 0 0 0 .9-1.934c.217-1.143-1.626-1.662-.873-2.847.318-.24.636.155.977-.059a6.817 6.817 0 0 1 .935.482c.618.368 1.627.388 1.76 1.337.208.463-.085 1.4.658 1.434 1.1.391 2.19.816 3.238 1.166.425.224 1.019-.006 1.412.295a2.534 2.534 0 0 1-1.454 1.534c-.517.2-.945-.2-1.386-.314a20.52 20.52 0 0 0-3.091-1.274l-.15.03c-1.1.588-1.869 1.417-3.19 1.641-.221-.2-.045-.551-.055-.821-.51.3-.8 1.06-1.467 1.149a31.184 31.184 0 0 0-7.541-.581 4.392 4.392 0 0 0-1.808.923.855.855 0 0 1-.861-.178c-.29-.484.155-.9.34-1.313l.517-.562a18.658 18.658 0 0 0 2.626-.288c.328-.267.161-.85.132-1.25-.1-.272-.392-.242-.619-.242a.553.553 0 0 1-.361.085c-.4.093-.562.576-1.07.367a.517.517 0 0 1-.2-.686c.225-.314.32-.935.843-.958.225 0 .405-.131.661-.085.2-.1.484-.033.66-.155.492-.61.381-1.59 1.224-1.917.53.019.638.674.825 1.065.116.271.093.7.454.77a8.953 8.953 0 0 0 1.674-.107c.408-.709-.326-1.721.534-2.259.557-.269.992.271 1.359.566zm-2.53 2.785a4.167 4.167 0 0 0-1.43.158 3.366 3.366 0 0 0 0 1.168c.189.255.685.076.95.17.28-.09.691.07.9-.147a2.568 2.568 0 0 0-.066-1.346c-.124-.024-.207.037-.3.046zM95.614 20.767a1.7 1.7 0 0 1 .057 1.307 3.086 3.086 0 0 0-1.7 1.65l.024.194c1.773 1.893 3.525 3.933 6.3 4.4h.085v.062c-.926.454-1.805 1.135-2.743 1.544-1.75.1-2.33-1.529-3.157-2.691-.466-.472-.957-1.162-1.471-1.614a5.966 5.966 0 0 0-1.3 1.4c-.78.4-1.576 1.338-2.739.935a5.31 5.31 0 0 1-1.738-.574c-.19.692.135 1.556-.091 2.2a3.128 3.128 0 0 1-.774 1.143c-.759-.038-.688-.963-1.062-1.465a26.342 26.342 0 0 0-.206-2.783l-.3-.251-2.628.039c-.825.821-.77 2.436-2.024 2.8-.4.458-1.171.33-1.72.429v-.028c-1.119.195-1.477-.752-2.008-1.43l.041-.317c1.281.13 2.61-.063 3.241-1.185.774-1.23.412-2.812.319-4.248-.114-.288-.351-.532-.29-.85.158-.328.6-.224.9-.4a9.819 9.819 0 0 1 4.444-.477c.7.155 1.784-.286 2.069.584-.419 1.4-.1 3-.16 4.538.132.386-.1.991.35 1.15a5.557 5.557 0 0 0 4.409-2.628 2.791 2.791 0 0 0-1.009-1.01c-1.014-.7-2.034-1.461-3.063-2.124-.01-.17.229-.146.291-.221a5.517 5.517 0 0 1 .986-.085c0 .118.146.019.192.085 1.3.5 2.32 1.485 3.562 2.055a1.945 1.945 0 0 0 .815-1.12c-.277-.641-.972-.7-1.584-.992-.184-.149-.51-.2-.557-.434.561-.182 1.2-.3 1.807-.432a8.309 8.309 0 0 1 2.432.844zm-11.749.8l-1.751-.017c-.144.029-.211.019-.32.123a1.635 1.635 0 0 0 .02.754c.059.4.539.216.774.23l.051.06c.046.008.057-.037.085-.06h2.026l.255-.108a.842.842 0 0 0 0-.9l-1.053-.031zm1.036 2.474a6.815 6.815 0 0 0-2.761.08 1.081 1.081 0 0 0 .025.662l2.606.025c.322-.009.255-.34.269-.6zM34.393 12.904a10.989 10.989 0 0 1 2.319.51c0 .619-.534.8-.955 1.14a26.382 26.382 0 0 0-5.675.051c-.431.187-1 .577-1.5.226a1.013 1.013 0 0 1 0-.951c.387-.295.706-.756 1.317-.695a6.4 6.4 0 0 1 .776-.1 17.719 17.719 0 0 1 2.665-.186 2.139 2.139 0 0 0 1.053 0zM37.181 15.772c.192.139.093.358-.058.514a5.948 5.948 0 0 1-1.266.751 1.954 1.954 0 0 0 .1 1.387c.207.178.556.094.839.127.211.155.012.39-.038.579a3.239 3.239 0 0 1-1 .712c-1.668.285-3.2-.323-4.853-.024-.33-.072-.539.127-.844.127a4.457 4.457 0 0 0-2.458 1.652c-.4.263-.869-.028-1.182-.158-.4-.295-.326-.962-.26-1.435a3.733 3.733 0 0 1 .572-.985 5.724 5.724 0 0 0 2.012-.357c.224-.211.8.015.8-.492-.021-.379-.266-.64-.29-1.011-.843-.485-1.236.484-2.058.255a.347.347 0 0 1-.153-.275c.124-.488.094-1.223.691-1.3.37.024.546-.459.95-.162.811-.038 1.64-.188 2.464-.241a2.7 2.7 0 0 1 .612-.1 12.864 12.864 0 0 1 1.585-.085 12.407 12.407 0 0 1 3.835.521zm-5.552 1.206a1.132 1.132 0 0 0 .153 1.109l1.9.033a1.728 1.728 0 0 0 0-1.189 4.784 4.784 0 0 0-2.057.046zM45.845 21.932a.755.755 0 0 1-.2.589c-.615.416-1.274-.109-1.914-.144-1.03-.092-2.124-.035-3.148-.162-.308-.185-.765-.416-.79-.872l.1-.085q2.323-.014 4.639-.222c.526.194 1.196.217 1.313.896z" fill="#1b1311"/><path d="M40.657 13.958c.307.213.839.029 1.183.15a.745.745 0 0 1 .34 0c1.415-.073 2.617.22 4.056.262a.585.585 0 0 1 0 .5c-.313.291-.595.906-1.162.771-.488-.076-.979-.15-1.467-.229a3.324 3.324 0 0 0-.595-.1 6.354 6.354 0 0 0-2.431-.076.929.929 0 0 0-.436.928 7.026 7.026 0 0 0 1.351.178c1.063.1 2.2.032 3.216.048.644.141 1.274.293 1.548.912.051.365-.3.569-.336.908-.1.565-.823 1.053-.387 1.658.012.243-.183.36-.345.445-.872.46-1.519-.319-2.413-.123a10.46 10.46 0 0 0-3.075.07.454.454 0 0 0-.156.319 21.4 21.4 0 0 0 0 2.7 2.161 2.161 0 0 0 .886.255 7.749 7.749 0 0 0 1.914.131c.07.148.125-.056.2 0h2.708c.363.119.554.51.962.587a.758.758 0 0 1 .137.692c-.208.522-.857.319-1.326.373a6.364 6.364 0 0 0-.646-.114l-.855-.017c-.046.017-.024.077-.024.131.371.376 1.168.312 1.129 1.1a.91.91 0 0 1-.255.672c-.652.277-1.264-.1-1.964.022a1.978 1.978 0 0 0-.9.652c.309.292.863.24 1.307.348a19.666 19.666 0 0 0 7.144-.587c-.024.555-.543 1-.714 1.5-.758.51-1.07 1.7-2.255 1.567a7.957 7.957 0 0 1-2.369.206 18.692 18.692 0 0 1-3.532-.255 4.277 4.277 0 0 1-3.169-3.318c-.534-2.147-.3-4.718-.573-6.926-.076-.138-.189-.3-.1-.489a2.829 2.829 0 0 1 1.725-.753 3.723 3.723 0 0 1 .641-.1c.269-.111.634.016.9-.1.059.127.11-.057.2 0l2.555-.022a2.346 2.346 0 0 0 .44-1.091c-.393-.561-1.211-.3-1.889-.43a6.679 6.679 0 0 0-3.8.558c-.269-.054-.55-.054-.68-.34-.34-.439.17-.814.157-1.26l.2-1.5c-.138-.261-.454-.425-.51-.725a7.822 7.822 0 0 1 1.934-1.183 2 2 0 0 1 1.519 1.087zm-1.028 10.4a2.165 2.165 0 0 0 0 1.093c.17.715.394 1.59 1.1 1.836.449-.425.816-.8 1.269-1.165.085-.488-.34-.812-.548-1.217a7.04 7.04 0 0 0-1.289-.2v-.037a1.019 1.019 0 0 1-.538-.311zM36.536 21.386c0 .183.1.374 0 .548a1.019 1.019 0 0 0-.283.791c.11 2.679.724 4.9.563 7.646-.105.177-.145.432-.34.539a1.876 1.876 0 0 1-1.644-.539 23.615 23.615 0 0 1-.131-3.143c-.059-.436-.459-.373-.792-.373-.874.188-2.339-.389-2.507.8a2.353 2.353 0 0 1-1.522 1.626 11.09 11.09 0 0 0-2.329.212 8.935 8.935 0 0 1-1.189-.57c-.152-.255.075-.47.059-.726.3-.27.686 0 1.03-.23a2.541 2.541 0 0 0 1.966-1.346 9.159 9.159 0 0 0 .149-4.6.454.454 0 0 1-.106-.541c.255-.986 1.355-.328 1.99-.693 1-.145 2.124-.114 3.125-.225.789.01 1.653.09 1.961.824zm-2.192.714a26.391 26.391 0 0 0-2.695.146l-.136.1a.631.631 0 0 0 .2.725h1.256l.085-.054 1.337-.026c.165-.182.094-.466.077-.717zm-.131 2.5c-.791-.059-1.385.1-2.136.07l-.183.155a.952.952 0 0 0 .069.466.584.584 0 0 0 .389.108 5.165 5.165 0 0 0 2.071-.157.629.629 0 0 0 0-.519z" fill="#1b1311"/><g fill="#ca0011"><path d="M22.383 12.131v10.928a17.683 17.683 0 0 1-8.97 14.826l-.241.146a7.62 7.62 0 0 0-.459.249 1.85 1.85 0 0 0-.23.116 7.694 7.694 0 0 1-.913.4.743.743 0 0 1-.466.081 4.369 4.369 0 0 1-.935-.34A17.435 17.435 0 0 1-.003 22.608V12.131zm-.663.632H.66v9.6a16.916 16.916 0 0 0 8.169 14.684 20.955 20.955 0 0 0 2.379 1.12 16.725 16.725 0 0 0 10.515-15.191z"/><path d="M3.089 14.406a.753.753 0 0 1-.391.759c-.187.195-.436-.043-.647-.05a.721.721 0 0 1-.223-.85 1.344 1.344 0 0 1 .538-.4.781.781 0 0 1 .723.541zM20.516 14.136a.657.657 0 0 1 .108.765.85.85 0 0 1-.617.35.752.752 0 0 1-.6-.442.646.646 0 0 1 .182-.7.614.614 0 0 1 .929.031zM6.935 14.963a.316.316 0 0 1-.476.283.41.41 0 0 1 0-.473c.166-.068.454-.047.476.19zM14.807 15.322a.581.581 0 0 1-.243.246c-.2.035-.271-.118-.318-.246a.34.34 0 0 1 .242-.325.425.425 0 0 1 .319.325zM11.717 16.715c.05.158-.077.247-.2.332-.179.072-.309-.07-.387-.2.03-.155.078-.319.247-.361a.394.394 0 0 1 .341.232z"/><path d="M12.28 17.531c.787-.51 1.674-1.261 2.752-.9.991.215 1.427 1.154 2.593 1.1.138-.1.317-.184.323-.378-.006-.794-.759-.918-1.253-1.253a2.757 2.757 0 0 0-1.274-.155c-.184-.1-.1-.353-.037-.494.124-.127.314-.017.436.048.818.642 2.529.3 2.741 1.741a1.043 1.043 0 0 1-.315.778 1.631 1.631 0 0 1-1.219.213 12.184 12.184 0 0 1-2.105-1.189c-1.754-.332-2.81 2.475-4.526.9-.616-.55-.842-1.515-1.6-1.918a1.258 1.258 0 0 0-.86.319 7.137 7.137 0 0 0-.968 2.025H3.237v-.425a31.145 31.145 0 0 1 2.379-2.105c.475.186.241.874.351 1.287.076.3-.2.85.255.85.218-.065.244-.345.358-.534a2.746 2.746 0 0 1 1.825-2.1c1.91-.137 1.722 3.114 3.875 2.19zm-8.028.285a3.823 3.823 0 0 0 .979.03c.306-.234.136-.629.136-.972a3.255 3.255 0 0 0-1.118.942z"/><path d="M8.79 17.196c.051.287-.217.407-.436.3a.443.443 0 0 1-.03-.469c.154-.054.486-.104.466.169zM14.78 17.846a.255.255 0 0 1-.255.349.287.287 0 0 1-.28-.218c-.047-.13.047-.233.133-.319.186-.027.371.051.402.188zM6.935 20.191a.313.313 0 0 1-.476.28.461.461 0 0 1-.025-.447c.175-.059.479-.078.501.167zM14.78 20.445a.321.321 0 0 1-.193.365.289.289 0 0 1-.34-.226.24.24 0 0 1 .242-.313c.102.028.259.028.291.174zM11.717 22.016a.3.3 0 0 1-.255.28c-.147.05-.2-.067-.283-.148-.028-.161.02-.386.17-.425.168.039.323.079.368.293z"/><path d="M11.493 22.971a3.821 3.821 0 0 0 1.177-.425c.666-.414 1.394-1.019 2.322-.669 1.038.29 1.488 1.125 2.676 1.1.236-.053.161-.37.277-.531a2.591 2.591 0 0 0-2.6-1.292.531.531 0 0 1 .1-.537c.293-.051.369.255.575.283 1 .359 2.322.3 2.534 1.614a.894.894 0 0 1-.609.877c-1.274.4-2.165-.7-3.2-1.118-1.663-.255-2.532 2.385-4.24 1.008-.665-.6-1.044-1.656-1.806-2.024-1.164.024-1.293 1.471-1.7 2.329a3.617 3.617 0 0 1-1.524.065l-2.243-.029v-.399l2.338-2.141c.33-.029.283.332.36.534l.08 1.516c.085.03.15.116.283.091.377-.718.5-1.607 1.127-2.141.387-.22.788-.6 1.327-.5 1.339.252 1.363 2.133 2.746 2.389zm-6.128-.84a2.091 2.091 0 0 0-1.06.95c.191.129.51.047.783.056a.4.4 0 0 0 .312-.345c-.067-.201.122-.478-.034-.661z"/><path d="M8.829 22.511a.334.334 0 0 1-.476.2.347.347 0 0 1-.061-.385.306.306 0 0 1 .537.181zM14.78 23.119c0 .2-.1.295-.291.355a.345.345 0 0 1-.22-.473c.149-.208.468-.051.511.118zM6.935 25.535c-.039.17-.155.189-.276.3-.117-.085-.3-.127-.3-.32-.018-.189.158-.206.249-.3.254-.038.228.178.327.32zM15.032 25.772c.031.255-.2.286-.328.373a.366.366 0 0 1-.216-.4c.027-.295.508-.181.544.027zM11.877 27.251c-.011.109-.011.24-.138.307a.324.324 0 0 1-.425-.244c.025-.118.085-.307.259-.27a.335.335 0 0 1 .304.207z"/><path d="M10.535 27.684a1.557 1.557 0 0 0 .984.56c1.424-.144 1.942-1.614 3.515-1.068h.163c.827.33 1.486 1.217 2.535 1.036a.571.571 0 0 0 .149-.722 2.91 2.91 0 0 0-1.825-1.038h-.7c-.069-.17-.069-.493.132-.559a1.637 1.637 0 0 1 .5.284c.51.055.856.3 1.359.352.5.185 1.213.566 1.213 1.206.076.558-.331.791-.713 1.019-1.24.255-2.086-.83-3.063-1.2-1.348-.188-1.933 1.143-3.113 1.335l-.321.02c-.071-.126-.292-.009-.413-.108-.93-.364-1.245-1.645-2.083-2.2a1.132 1.132 0 0 0-.954.287 8.211 8.211 0 0 0-.935 2.018H3.237v-.462l2.243-2.029c.22-.144.378.123.425.291.03.6.09 1.139.062 1.679.076.1.227.048.364.059a4.04 4.04 0 0 0 .389-1.082c.5-.782 1.084-1.666 2.165-1.477.787.224 1.179 1.142 1.65 1.799zm-5.3-.314c-.283.353-.855.621-.924 1.019h.875c.387-.149.162-.7.181-1.019z"/><path d="M8.931 27.736c0 .17-.18.207-.272.255a.31.31 0 0 1-.3-.255c.02-.178.108-.3.3-.3s.224.143.272.3zM14.78 28.393a.365.365 0 0 1-.216.361c-.2.033-.271-.135-.318-.265-.047-.2.133-.277.242-.355.119.098.225.098.292.259zM11.803 32.731a.727.727 0 0 1-.375.935c-.233-.012-.483.038-.635-.142-.271-.144-.244-.519-.193-.792.125-.15.222-.326.438-.353a.675.675 0 0 1 .765.352z"/></g><path d="M27.357 32.867h2.68a2.151 2.151 0 0 1 1.391.381 1.3 1.3 0 0 1 .464 1.063 1.483 1.483 0 0 1-.118.632 1.371 1.371 0 0 1-.275.4 1.074 1.074 0 0 1-.31.221 1.473 1.473 0 0 1-.224.085v.015a1.073 1.073 0 0 1 .271.075.818.818 0 0 1 .272.19 1.047 1.047 0 0 1 .207.34 1.445 1.445 0 0 1 .085.524 4.477 4.477 0 0 0 .075.856 1.092 1.092 0 0 0 .232.55h-1.054a.838.838 0 0 1-.129-.381q-.02-.208-.02-.4a3.772 3.772 0 0 0-.047-.632 1.079 1.079 0 0 0-.17-.442.731.731 0 0 0-.34-.255 1.585 1.585 0 0 0-.555-.085h-1.444v2.2h-.985zm.983 2.431h1.614a1.057 1.057 0 0 0 .715-.213.8.8 0 0 0 .243-.639.963.963 0 0 0-.077-.416.619.619 0 0 0-.217-.255.833.833 0 0 0-.314-.119 2.22 2.22 0 0 0-.366-.03h-1.595zM35.344 34.34h.982l1.06 2.888h.016l1.03-2.888h.935l-1.58 4.078c-.073.175-.144.34-.216.5a1.772 1.772 0 0 1-.26.425 1.1 1.1 0 0 1-.381.292 1.359 1.359 0 0 1-.582.109 4.326 4.326 0 0 1-.62-.045v-.719c.073.01.144.021.212.034a1.2 1.2 0 0 0 .212.02.763.763 0 0 0 .255-.037.437.437 0 0 0 .17-.109.679.679 0 0 0 .114-.17 1.6 1.6 0 0 0 .085-.223l.1-.3zM46.425 38.208h-.879v-.54h-.015a1.21 1.21 0 0 1-.491.467 1.385 1.385 0 0 1-.664.176 1.538 1.538 0 0 1-1.16-.377 1.607 1.607 0 0 1-.358-1.141v-2.454h.9v2.373a1.011 1.011 0 0 0 .2.717.764.764 0 0 0 .573.211 1.189 1.189 0 0 0 .471-.085.828.828 0 0 0 .307-.221.838.838 0 0 0 .17-.333 1.633 1.633 0 0 0 .051-.418v-2.245h.9zM50.332 32.867h.9v3.037l1.62-1.564h1.1l-1.557 1.422 1.706 2.446h-1.092l-1.242-1.878-.535.494v1.384h-.9zM60.88 37.348a.431.431 0 0 0 .043.224.185.185 0 0 0 .17.068h.1a.61.61 0 0 0 .126-.015v.595a2.819 2.819 0 0 1-.275.067 1.481 1.481 0 0 1-.291.03.9.9 0 0 1-.456-.1.518.518 0 0 1-.235-.366 1.614 1.614 0 0 1-.657.359 2.707 2.707 0 0 1-.751.111 1.912 1.912 0 0 1-.525-.07 1.407 1.407 0 0 1-.444-.209 1 1 0 0 1-.306-.352 1.038 1.038 0 0 1-.114-.5 1.1 1.1 0 0 1 .138-.584.993.993 0 0 1 .362-.352 1.682 1.682 0 0 1 .5-.183q.279-.056.562-.085c.162-.03.316-.051.464-.064a2.325 2.325 0 0 0 .389-.064.61.61 0 0 0 .266-.138.368.368 0 0 0 .1-.28.42.42 0 0 0-.085-.27.547.547 0 0 0-.2-.16.9.9 0 0 0-.271-.076 2.318 2.318 0 0 0-.282-.019 1.176 1.176 0 0 0-.622.149.579.579 0 0 0-.275.464h-.9a1.217 1.217 0 0 1 .189-.621 1.283 1.283 0 0 1 .42-.4 1.785 1.785 0 0 1 .579-.209 3.641 3.641 0 0 1 .659-.06 2.952 2.952 0 0 1 .59.06 1.731 1.731 0 0 1 .522.195 1.087 1.087 0 0 1 .373.347.912.912 0 0 1 .142.52zm-.9-1.078a1.127 1.127 0 0 1-.5.154q-.3.026-.595.078a2.024 2.024 0 0 0-.275.064.893.893 0 0 0-.237.112.52.52 0 0 0-.161.187.615.615 0 0 0-.059.281.351.351 0 0 0 .085.239.637.637 0 0 0 .208.154 1.006 1.006 0 0 0 .268.078 1.8 1.8 0 0 0 .263.023 1.525 1.525 0 0 0 .322-.037 1.094 1.094 0 0 0 .326-.127.85.85 0 0 0 .255-.229.562.562 0 0 0 .1-.34zM64.86 32.867h.9v3.037l1.62-1.564h1.095l-1.556 1.422 1.706 2.446h-1.093L66.29 36.33l-.534.494v1.384h-.9zM75.569 38.208h-.881v-.54h-.014a1.215 1.215 0 0 1-.492.467 1.384 1.384 0 0 1-.664.176 1.54 1.54 0 0 1-1.16-.377A1.606 1.606 0 0 1 72 36.793v-2.454h.9v2.373a1.011 1.011 0 0 0 .2.717.765.765 0 0 0 .573.211 1.189 1.189 0 0 0 .472-.085.834.834 0 0 0 .306-.221.845.845 0 0 0 .17-.333 1.656 1.656 0 0 0 .051-.418v-2.245h.9zM80.15 36.966a.631.631 0 0 0 .3.524 1.213 1.213 0 0 0 .62.15 2.469 2.469 0 0 0 .287-.02 1.3 1.3 0 0 0 .3-.071.576.576 0 0 0 .231-.154.356.356 0 0 0 .085-.266.37.37 0 0 0-.126-.269.9.9 0 0 0-.3-.17 3.024 3.024 0 0 0-.421-.108q-.236-.045-.48-.1a4.659 4.659 0 0 1-.483-.127 1.572 1.572 0 0 1-.417-.2.969.969 0 0 1-.3-.325 1 1 0 0 1-.11-.49.849.849 0 0 1 .161-.528 1.232 1.232 0 0 1 .409-.345 1.857 1.857 0 0 1 .55-.183 3.411 3.411 0 0 1 .578-.053 2.756 2.756 0 0 1 .6.064 1.7 1.7 0 0 1 .518.206 1.211 1.211 0 0 1 .578.92h-.934a.532.532 0 0 0-.3-.411 1.27 1.27 0 0 0-.53-.1 2.072 2.072 0 0 0-.225.015 1.035 1.035 0 0 0-.243.056.51.51 0 0 0-.193.12.281.281 0 0 0-.077.206.317.317 0 0 0 .114.255.875.875 0 0 0 .3.161 3.083 3.083 0 0 0 .421.109q.234.045.488.1a4.73 4.73 0 0 1 .48.127 1.581 1.581 0 0 1 .42.2 1.007 1.007 0 0 1 .3.321.935.935 0 0 1 .114.479 1 1 0 0 1-.165.584 1.285 1.285 0 0 1-.425.389 2.012 2.012 0 0 1-.587.217 3.044 3.044 0 0 1-.636.067 2.907 2.907 0 0 1-.711-.085 1.722 1.722 0 0 1-.566-.255 1.209 1.209 0 0 1-.376-.419 1.278 1.278 0 0 1-.146-.595zM89.955 37.348a.424.424 0 0 0 .042.224.187.187 0 0 0 .17.068h.094a.593.593 0 0 0 .126-.015v.595a2.627 2.627 0 0 1-.275.067c-.054.009-.105.018-.157.023s-.1.007-.134.007a.9.9 0 0 1-.455-.1.516.516 0 0 1-.235-.366 1.623 1.623 0 0 1-.657.359 2.7 2.7 0 0 1-.751.111 1.937 1.937 0 0 1-.527-.07 1.385 1.385 0 0 1-.443-.209 1.019 1.019 0 0 1-.307-.352 1.033 1.033 0 0 1-.115-.5 1.1 1.1 0 0 1 .138-.584 1.006 1.006 0 0 1 .361-.352 1.7 1.7 0 0 1 .5-.183q.279-.056.562-.085c.162-.03.318-.051.464-.064a2.289 2.289 0 0 0 .389-.064.608.608 0 0 0 .268-.138.372.372 0 0 0 .1-.28.425.425 0 0 0-.085-.27.545.545 0 0 0-.2-.16.913.913 0 0 0-.272-.076 2.314 2.314 0 0 0-.283-.019 1.169 1.169 0 0 0-.62.15.578.578 0 0 0-.275.464h-.893a1.254 1.254 0 0 1 .189-.621 1.275 1.275 0 0 1 .425-.4 1.775 1.775 0 0 1 .577-.209 3.66 3.66 0 0 1 .662-.06 2.964 2.964 0 0 1 .59.06 1.736 1.736 0 0 1 .522.195 1.119 1.119 0 0 1 .373.347.926.926 0 0 1 .142.52zm-.9-1.078a1.13 1.13 0 0 1-.5.154q-.3.026-.595.078a2.154 2.154 0 0 0-.275.064.869.869 0 0 0-.235.112.51.51 0 0 0-.161.187.609.609 0 0 0-.059.281.34.34 0 0 0 .085.239.608.608 0 0 0 .207.154.985.985 0 0 0 .268.078 1.783 1.783 0 0 0 .263.023 1.53 1.53 0 0 0 .321-.037 1.088 1.088 0 0 0 .326-.127.84.84 0 0 0 .255-.229.555.555 0 0 0 .1-.34zM93.926 34.34h.85v.569l.014.015a1.477 1.477 0 0 1 1.266-.689 1.564 1.564 0 0 1 1.053.33 1.223 1.223 0 0 1 .385.987v2.656h-.9v-2.432a1.013 1.013 0 0 0-.2-.663.765.765 0 0 0-.59-.206 1.027 1.027 0 0 0-.408.078.889.889 0 0 0-.306.217 1.006 1.006 0 0 0-.2.325 1.123 1.123 0 0 0-.07.4v2.281h-.9z" fill="#1b1311"/></svg>