<svg viewBox="0 0 805.0699999999999 194.88999999999996" xmlns="http://www.w3.org/2000/svg" width="2500" height="605"><path d="M91.29 93.4c0-18.07 13.46-22.16 31.53-26.08 14.83-2.9 22.33-3.58 22.84-8.01v-.85c0-4.77-4.26-9.2-15.17-9.2s-16.02 5.45-16.53 12.61v1.19H93c.68-18.24 15-30.34 37.67-30.34 21.82 0 35.11 9.55 35.11 31.36v50.62H145.5v-10.91c-5.11 8.35-14.32 12.95-26.25 12.95-17.21 0-27.95-9.38-27.95-23.35zm54.37-11.92v-6.82c-4.6 2.73-12.1 4.09-18.75 5.8-8.18 2.04-14.32 4.77-14.32 11.93 0 5.45 4.26 9.2 11.59 9.2 10.06 0 20.97-5.11 21.48-20.11zM180.6 0h19.43v114.71H180.6V0zM216.05 0h19.43v114.71h-19.43V0zM362.44 104.48v10.4h-20.62V0h20.79v44.48c5.45-7.33 14.15-11.76 24.55-11.76 20.11 0 35.63 15.51 35.63 41.25v.17c0 26.08-15.34 42.44-35.79 42.44-10.23 0-18.92-4.43-24.55-12.11zm38.35-29.65v-1.19c0-15.85-7.84-23.69-19.6-23.69-12.11 0-19.6 9.89-19.6 24.38v1.36c0 14.49 7.16 23.69 19.6 23.69 11.42 0 19.6-8.69 19.6-24.55zM466.58 93.57c0-18.07 13.46-22.16 31.53-26.08 14.83-2.9 22.33-3.58 22.84-8.01v-.85c0-4.77-4.26-9.2-15.17-9.2s-16.02 5.45-16.53 12.61v1.19h-20.96c.68-18.24 15-30.34 37.67-30.34 21.82 0 35.11 9.55 35.11 31.36v50.62h-20.28v-10.91c-5.11 8.35-14.32 12.95-26.25 12.95-17.22 0-27.95-9.38-27.95-23.35zm54.37-11.92v-6.82c-4.6 2.73-12.1 4.09-18.75 5.8-8.18 2.04-14.32 4.77-14.32 11.93 0 5.45 4.26 9.2 11.59 9.2 10.06 0 20.97-5.11 21.48-20.11zM555.71 34.43h21.14v13.12c4.26-9.37 12.1-14.83 23.52-14.83 17.56 0 27.95 11.76 27.95 33.92v48.24h-21.14V67.84c0-11.25-4.26-17.05-14.14-17.05-10.06 0-16.19 8.18-16.19 23.18v40.91h-21.14zM638.72 74.49c0-24.2 16.53-41.59 40.57-41.59 19.43 0 31.02 10.23 36.47 25.74l-19.94 6.14c-2.39-8.86-6.82-14.66-16.7-14.66-11.76 0-19.26 10.06-19.26 24.2V75c0 14.15 6.82 24.21 18.58 24.21 11.42 0 15.85-5.8 18.24-15.51l19.94 5.8c-5.62 16.53-17.56 26.93-37.84 26.93-24.88 0-40.05-17.04-40.05-41.93z"/><ellipse cx="74.5" cy="9.6" rx="9.71" ry="9.6"/><path d="M89.02 131.55c0-14.96-12.4-27.08-27.7-27.11s-34.28 0-34.28 0c-2.39 0-4.32-1.94-4.32-4.33s1.94-4.33 4.32-4.33h19.74c9.59-.02 19.18-3.71 26.48-11.06C87.89 70 87.85 46.18 73.18 31.51c-14.68-14.67-38.44-14.63-53.07.08-13.16 13.24-14.45 33.84-3.9 48.52C9.2 84.03 4.47 91.4 4.47 99.85c0 12.56 10.42 22.74 23.28 22.74H63c4.94 0 8.94 4.01 8.94 8.95s-4 8.95-8.94 8.95H27.63C12.36 140.55 0 152.66 0 167.6c0 14.86 12.25 26.93 27.42 27.11s.33 0 .33 0h33.5c15.33 0 27.76-12.14 27.76-27.11 0-6.92-2.66-13.24-7.03-18.03 4.37-4.79 7.03-11.11 7.03-18.03zM46.83 38.9c10.53 0 19.06 8.55 19.06 19.09s-8.54 19.09-19.06 19.09c-10.53 0-19.06-8.55-19.06-19.09S36.31 38.9 46.83 38.9zm16.18 137.65h-37c-4.94 0-8.94-4.01-8.94-8.95s4-8.95 8.94-8.95h37c4.94 0 8.94 4.01 8.94 8.95s-4 8.95-8.94 8.95zM288.74 32.9c-23.06 0-41.76 18.7-41.76 41.76s18.7 41.76 41.76 41.76 41.76-18.7 41.76-41.76-18.7-41.76-41.76-41.76zm.05 66.3c-13.55 0-24.54-10.99-24.54-24.54s10.99-24.54 24.54-24.54 24.54 10.99 24.54 24.54-10.99 24.54-24.54 24.54zM763.31 32.9c-23.06 0-41.76 18.7-41.76 41.76s18.7 41.76 41.76 41.76 41.76-18.7 41.76-41.76-18.7-41.76-41.76-41.76zm.05 66.3c-13.55 0-24.54-10.99-24.54-24.54s10.99-24.54 24.54-24.54 24.54 10.99 24.54 24.54-10.99 24.54-24.54 24.54zM434.88 0h19.43v114.71h-19.43V0z"/></svg>