<svg height="495" viewBox="-3.2 -9.9 1190.2 226.4" width="2500" xmlns="http://www.w3.org/2000/svg"><path d="m1174.2 20.4v7.2l-16 9.9h16v7.1h-22.9v-7.1l16-10h-16v-7.1zm-2.3 62.7v6.9h-3.2v3.8h-2.2v-3.8h-15.2v-6.9h15.2v-3.7h2.2v3.7zm-20.6-34.6h15.2v6.9h-15.2zm18.2 0h4.7v6.9h-4.7zm-1.9 121c0-5.6-3.8-10.1-8.6-10.1-4.7 0-8.6 4.5-8.6 10.1s3.9 10.1 8.6 10.1c4.7-.1 8.6-4.6 8.6-10.1m-8.6 2.7h-3.2c-2.4 0-3.4-1.4-3.4-2.8s1-2.8 3.4-2.8h6.5c2.4 0 3.4 1.4 3.4 2.8s-1 2.8-3.4 2.8zm0-21.8h2.7c2.4 0 3-1.6 3-2.7s-.6-2.7-3-2.7h-2.7-2.7c-2.4 0-3 1.6-3 2.7s.6 2.7 3 2.7zm15.2-.1v6.8h-22.9v-6.9h.9c-1.7-2.6-1.7-5.6-.6-8 .3-.6 2.2-4.7 7.6-4.7 4 0 8.4 3.8 8 8.8-.2 1.6-.8 2.8-1.4 3.9 3.5.1 8.4.1 8.4.1zm-7-78.7c.1 2.6-1.6 7.8-7.7 7.8h-8.3v-6.9h10c1.3 0 2.8-1.3 2.8-3.2s-1.4-3.3-2.8-3.3h-10v-6.9h15.2v6.9h-1.6c1.4 1.4 2.4 3.3 2.4 5.6m0 56.1c.1 2.6-1.6 7.8-7.7 7.8h-8.3v-6.9h10c1.3 0 2.8-1.3 2.8-3.1 0-1.9-1.4-3.3-2.8-3.3h-10v-6.8h15.2v6.8h-1.6c1.4 1.3 2.4 3.2 2.4 5.5m-10.6-21.8h-.9c-2.8 0-3.4-1.8-3.4-2.9 0-1 .6-2.9 3.4-2.9h3.1v13c4.7 0 8.6-4.6 8.6-10.2s-3.8-10.2-8.6-10.2-8.6 4.6-8.6 10.2c0 4.7 2.6 8.6 6.2 9.8v-6.8m4.8-5.7c1.3 0 2.2 0 3 .5.9.5 1.4 1.5 1.4 2.4s-.4 1.9-1.4 2.4c-.8.4-1.7.4-3 .4zm9.6 79.8v.5c0 .5.2.8.6.8s.6-.3.6-.9v-.4zm-.3 3.4c-1.6 0-2.9-1.3-2.9-2.9s1.3-2.9 2.9-2.9 2.8 1.3 2.8 2.9-1.2 2.9-2.8 2.9zm3.5-2.9c0-1.9-1.6-3.5-3.5-3.5-2 0-3.5 1.6-3.5 3.5 0 2 1.6 3.5 3.5 3.5 1.9.1 3.5-1.5 3.5-3.5zm-1.5.1c0 1.1-.4 1.7-1.1 1.7-.5 0-.9-.3-1.1-.9l-1.7.9v-1l1.6-.7v-.6h-1.6v-.9h3.9z"/><path d="m1144.3 174.4v-149.3c0-10.2 8.3-18.4 18.4-18.4s18.4 8.3 18.4 18.4v149.3c0 10.2-8.3 18.5-18.4 18.5-10.2 0-18.4-8.3-18.4-18.5m42.7 0v-149.3c0-13.4-10.9-24.3-24.3-24.3s-24.3 10.8-24.3 24.3v149.3c0 13.5 10.9 24.3 24.3 24.3 13.4.1 24.3-10.8 24.3-24.3zm-971.3-73.8 16.4-36.6 7.2 36.6zm232.1-95.7-44.5 103.5-19.7-103.5h-38.3l-54.5 152.5-25.5-152.5h-47.8l-72.4 164.4 10.8-68.7h-71.9l-5.7 35.4h30.2l-3.5 18.9c-17.2 7.1-46.4 4.4-58.9-18-7.9-14.2-15.3-45.8 18-74.9 27.2-23.7 74.2-28 101.3-15.6 0 0 3.4-19.9 6-38.3-52.1-18-92.6-3-119.7 13.8-37.1 22.7-54.9 57.6-50 105 5.5 54.9 76.6 89.6 136.9 54.6.7-.3 1-.6 1.6-.7l-5.8 12.8h40.5l25.5-56.5h44.8l9.8 56.5h66l33.6-105.5 27.6 105.5h25.8l44.3-116.8 17.5 117.5h38.7l-14.1-189.4zm60.7 189.5h108.1l6.5-40.4h-67.6l5.3-33.7h58.9l6.4-40.5h-59.4l5.1-33.5h67.7l6.4-40.5h-107.3zm535.3-129.3-24.2-61.5h-44.4l45.8 99.5-14.2 89.1h38.9l11.8-78.8 69.9-109.8h-45.4z"/><path d="m952.4 117.5c-10.4 31.2-35.6 49.4-56.1 40.1-20.4-9.1-28.7-42-18.2-73.4 10.5-31.5 35.6-49.3 56-40.2 20.5 9.2 28.8 42.1 18.3 73.5m-15.1-110.9c-43-9.9-87.7 24.3-99.8 76.4-11.9 52.2 13.1 102.5 56 112.5 43 9.8 87.6-24.4 99.8-76.5 11.9-52.2-13.2-102.5-56-112.4zm-176 75.4h-26.8l5.9-35h25.2c27.4 0 21.8 35-4.3 35m-4.7 76.2h-34.2l6-37.6h32.4c30.9 0 30 37.6-4.2 37.6zm22.7-151.1c-20.9-.3-72.6 0-72.6 0h.4l-30 187.3h87.3c36 0 88.5-52.9 40.6-96.1 49-50.9.4-90.6-25.7-91.2z"/></svg>