<svg clip-rule="evenodd" fill-rule="evenodd" height="100mm" image-rendering="optimizeQuality" shape-rendering="geometricPrecision" text-rendering="geometricPrecision" viewBox="0 0 10000 10000" width="100mm" xmlns="http://www.w3.org/2000/svg"><path d="M0 0h10000v10000H0z" fill="none"/><path d="M496.2 6942.88h9000V9503.8h-9000z" fill="#fff2da"/><path d="M2587.39 700.57L5205.54 2029.1 8606.41 503.8 6442.06 2232.94l2926.27-330.29-3085.89 1039.13 3213.76 148.66L5480.44 3413v-597.62h-805.56v679.57l-61.3 6.4L496.2 3044.04l2825.78-272L848.33 1539.21l2886.34 711.25z" fill="#2d7000"/><path d="M3169.95 1192.83l995.09 1344.3-1822.29-449.06 1604.98 799.91-1750.77 168.52 2302.56 255.74v-672.22H5655.8v327.74l2097.68-706.37-1895.82 213.98 1559.75-1246.11-2216.52 994.12zM5655.8 3088.34v134.65l1063.73-85.45z" fill="#35a600"/><path d="M5217.4 5059.54h-279.48V3060.89h279.48zm2553.44-277.16c-41.92-55.3-72.38-140.35-72.38-209.82 0-273.67 215.73-492.35 490.44-492.35h422.69v279.48H8188.9c-113.43 0-210.95 99.59-210.95 212.49 0 114.55 96.8 210.2 210.95 210.2h455.39v279.46H5965.87c-77.89 345.04-291.64 540.47-653.25 540.47v-279.46c310.61 0 408.48-244.47 406.5-506.24l-3.08-408.59h281.78l4.63 374.36zm645.75-1097.83c-86.75-45.27-162.92-111.61-218.72-218.72-54.28 91.53-123.18 168.44-218.71 218.72 93.16 55.17 166.79 127.45 218.71 218.72 44.39-90.03 122.77-159.64 218.72-218.72zM3503.2 5408.98c86.75-45.27 162.91-111.61 218.71-218.72 42.84 72.22 94.77 135.33 161.7 183.44 66.92-48.11 118.85-111.22 161.68-183.44 55.8 107.11 131.97 173.45 218.72 218.72-95.96 59.08-174.34 128.7-218.72 218.72-40.83-71.76-95.07-131.76-161.68-180.97-66.62 49.21-120.87 109.21-161.7 180.97-44.38-90.02-122.76-159.64-218.71-218.72zm-1183.5-347.14c-40.29 238.72-250.63 369.56-481.75 369.56-271.75 0-489.83-182.8-489.83-463.49v-426.15h279.58v426.15c0 121.64 97.23 184 210.25 184 112.72 0 210.28-61.97 210.28-183.62v-675.75h281.87v489.84h201.05v-489.84h279.56v489.84h201.02v-489.84h279.59v489.84h1109.06v-489.84h279.6v617.23c0 84.17-50.97 152.07-139.81 152.07zM3525.35 6170.48c17.81-43.27 38.3-93.25 61.08-149.74 41.45 17.43 170.99 178.38 170.99 221.54 0 150.51-68.39 334.74-221.54 388.7-125.3 0-249.83-51.19-355.57-114.88 99.56 23.12 178.45 15.13 277.06-10.73 76.02-19.72 148.21-83.49 217.14-191.28-31.18-51.01-102.45-103.81-149.16-143.61zm3149.03-319.19c60.31-116.62 98.61-175.01 115.08-175.01 0 44.34 2.42 61.42 40.4 88.07 82.14 56.87 130.58 85.21 145.14 85.21l-118.92 145.33c0 25.85 6.33 94.78 18.58 206.99 0 48.36-20.46 116.78-31.97 165.44-8.62 35.23-29.11 49.59-61.66 43.27h-303.68c-43.11 0-31.2-75.25-32.36-109.34-.77 2.12-20.11 38.69-57.83 109.34h-324.17c-69.14 0-92.99-43.35-111.64-102.63l-58.97 102.63h-882.89c-17.47 0-25.42 66.05-52.08 72.95l-287.79-166c-25.29 15.32-9.93 93.05-90.38 93.05h-326.47c-54.19 153.76-123.89 230.54-208.71 230.54-66.97 0-271.76-26.06-319.19-62.81 170.27-6 308.49-42.93 429.1-169.46-139.01 0-208.71-37.33-208.71-112.2 0-80.79 100.18-310.2 191.29-310.2 91.46 0 135.31 186.75 144.76 259.27h366.86c18.66 0 54.77-80.26 64.52-99.38 38.67-53.43 148.87-117.76 215.42-117.76 25.85 0 40.79 10.15 44.62 30.64 9.7 49.06 47.47 186.5 110.28 186.5h849.77c5.18-10.91 9.77-55.15 13.41-133.08 1.74-5.7 92.22-114.87 104.36-126.19 0 85.85-56.7 259.27 62.22 259.27h331.07c-10.46-138.45-21.91-271.09-51.7-412.44l103.2-161.99c33.71 95.58 58.4 415.22 58.4 532.3 0 31.4 13.98 45.39 42.13 42.13h173.29c15.19-2.14-12.73-172.25-15.13-185.74-10.34-55.33-21.06-110.86-31.97-166.58-14.56-10.92-30.46-24.89-47.68-42.12zm-771.85-75.76c9.39 0 62.72-58.17 79.08-67.98l132.31 72.38c-51.89 67.03-83.48 100.53-94.78 100.53-7.42 0-117.87-57.92-131.16-67.97-21.83 20.67-44.24 42.7-67.4 66.25-30.5-8.93-110.5-49.23-131.93-70.66 37.91-41.55 69.89-74.49 95.93-98.8 16.25 16.24 97.93 66.25 117.95 66.25zM4861.86 6172.2c-37.72 0-63.38 5.75-76.79 17.43 14.21 10.48 94.08 60.66 106.66 55.53 4.16-20.72-.09-72.96-29.87-72.96zm-775.68-42.13c-18.76 0-38.09 17.62-58.39 52.67 0 65.37 138.63 76.39 138.63 53.41-19.15-70.65-45.96-106.08-80.24-106.08z" fill="#204f00"/><path d="M750.2 7196.88h8492V9249.8l254 254V6942.88h-9000z" fill="#f6d4ad"/><path d="M9242.2 9249.8h-8492V7196.88l-254-254V9503.8h9000z" fill="#ffe6bb"/><g fill="#204f00"><path d="M1510.19 7848.89c0 20.08 5.59 49.28 16.67 87.69 12.73 45.14 25.98 67.6 39.75 67.6 24.85 0 49.49-15.84 73.71-47.62 13.77-19.98 34.79-49.59 63.05-88.83 23.51-31.78 46.59-47.62 69.16-47.62 15.64 0 26.3 6.21 32.2 18.53 3.21 13.15 6.52 26.19 10.04 39.13 3.42 12.94 8.6 24.23 15.43 33.96 8.9 11.91 19.16 17.91 30.65 17.91h199.51c-15.53-42.34-33.03-73.82-52.39-94.63 12.53-18.63 28.06-45.24 46.69-79.82 33.34 45.87 52.18 79.62 56.43 101.05 2.79 14.08 4.24 26.81 4.24 38.2 0 18.95-5.9 60.46-17.6 124.34h-237.5c-21.02 0-38.83-9.11-53.43-27.33-8.59-11.08-17.39-28.37-26.3-51.87-7.35-18.33-12.63-27.54-16.15-27.54-26.5 0-52.38 16.57-77.64 49.69l-59.43 94.32c-20.4 31.78-39.45 47.62-57.05 47.62-47.93 0-71.85-69.77-71.85-209.23v-21.53c3.84-5.9 7.77-13.88 11.81-24.02zm6904.73-88.83c0-5.28 8.28-22.78 24.85-52.49 15.63-27.85 26.5-45.76 32.82-53.63 3.42 0 9.63 44.1 18.43 132.52 3.52 34.37 5.17 67.4 5.17 99.18 0 54.97-15.32 101.98-46.07 141.01zM8212 7716.37c32.61-63.05 53.32-94.63 62.22-94.63 0 13.15 1.04 22.26 3.01 27.33 2.79 6.63 9.11 13.46 18.84 20.3 44.41 30.74 70.61 46.07 78.47 46.07l-64.29 78.58c0 13.97 3.42 51.24 10.04 111.91 0 9.94-2.07 24.23-6.31 43.07l-10.97 46.38c-4.66 19.05-15.74 26.82-33.34 23.4h-59.53v.62h-325.08v-.62h-397.67c-7.45 0-15.11-4.14-22.77-12.42l-19.67-27.96-16.47 26.4a339.79 339.79 0 0 1-8.18 11.29v2.69h-160.37c-17.18 0-30.64-5.18-40.38-15.43-7.45-8.38-14.18-21.63-19.98-40.06l-31.88 55.49h-356.36l-13.05-7.25c-2.48-1.03-4.97-1.55-7.66-1.55-1.14 0-3.83.31-7.87.93-5.29 9.11-15.74 22.99-31.58 41.52-12.74-9.73-29.09-19.16-49.08-28.47l-60.04-28.58c-21.02 39.45-44 64.29-68.85 74.65-14.6 6.31-59.43 11.9-134.69 16.98l38.2-27.85c13.15-9.32 20.39-13.98 21.84-13.98 31.79-15.63 51.98-25.78 60.67-30.64 31.37-16.78 48.45-28.79 51.25-36.14-20.81-9.31-31.27-20.29-31.27-33.02 0-13.57 6.11-31.89 18.22-54.87 10.77-21.43 21.44-37.79 32.2-49.18 35.51-38.41 76.1-57.67 121.55-57.67v12.53c-.31 5.8-.52 10.15-.52 13.05 0 48.45 11.49 82.09 34.59 100.94 16.1 12.74 36.62 19.25 61.55 19.46h342.74c2.8-5.9 5.28-29.82 7.25-71.95.41-1.35 9.52-12.74 27.33-34.06 17.81-21.33 27.54-32.72 29.09-34.17v10.98c.42 2.38.62 4.34.62 5.69.21 23.09-2.17 50.94-7.24 83.76-1.87 10.66 1.65 19.98 10.45 27.84 8.66 7.86 18.43 11.79 29.3 11.91H7441.01c10.25 0 15.43-15.01 15.43-44.93v-8.8c3.41-5.9 20.81-24.43 52.18-55.8 3.21 6.1 4.86 13.45 4.86 22.15 0 7.25-1.86 17.5-5.48 30.65l-5.49 23.29c-.83 2.07-1.14 4.35-1.14 7.04 0 15.94 9.21 23.92 27.85 23.92 9.52 0 25.78-7.04 48.87-21.23l67.29-40.27c20.19-12.22 44.52-23.92 72.78-35.2 33.65-13.15 59.44-19.78 77.35-19.78 21.12 0 41 9.74 59.84 29.3 18.74 19.47 28.16 39.76 28.16 60.78 0 4.03-2.9 13.66-8.8 28.88h82.2c.83-14.8 2.69-25.36 5.8-31.58 1.96-3.62 8.9-13.14 20.6-28.47 18.01-21.63 40.17-41.82 66.36-60.35 31.37-22.06 58.08-33.13 80.13-33.13 15.53 0 27.65 9.83 36.34 29.4 6.94 15.63 10.36 32.2 10.36 49.8 0 13.35-1.87 23.29-5.8 30.02l-26.4 44.31h118.95c1.45-.21 2.17-3.73 2.17-10.66 0-20.81-3.41-50.73-10.35-89.76-5.59-29.92-11.39-59.95-17.29-90.07-7.87-5.91-16.46-13.46-25.78-22.78zm-176.2-55.18c2.38 0 9.11-5.59 19.98-16.67 13.15-12.11 20.71-18.84 22.78-20.09l71.54 39.14c-27.85 36.23-44.94 54.35-51.25 54.35-1.87 0-13.15-5.49-33.96-16.25-20.81-10.87-33.13-17.6-37.06-20.5-11.7 11.18-23.71 23.09-36.03 35.82-8.7-2.48-21.12-7.97-37.27-16.67-17.29-8.9-28.68-16.05-34.38-21.53 20.5-22.47 37.79-40.28 51.87-53.42 4.87 4.86 15.53 12.01 31.89 21.53 16.36 9.53 27.02 14.29 31.89 14.29zm33.02 268.14c19.05 0 32.93-5.07 41.83-15.22 0-12.73-3.21-23.91-9.63-33.65-7.35-10.87-17.08-16.35-29.19-16.35-7.46 0-18.95 3.62-34.58 10.87-16.98 7.87-25.47 15.01-25.47 21.22 0 7.97 7.56 15.63 22.78 23.09 13.56 6.62 24.95 10.04 34.26 10.04zm-339.68-47.62c-15.64 0-35.93 5.79-60.98 17.6-6.73 3-25.99 13.14-57.98 30.33h199.62c-18.64-31.99-45.46-47.93-80.66-47.93zm-554.21 211.09c1.87 0 7.87-5.59 18.22-16.66 11.7-12.32 18.54-19.26 20.3-20.71l64.6 40.07c-4.45 6.93-12.01 16.87-22.67 30.02-13.15 16.36-21.12 24.64-24.02 24.64-1.56 0-22.78-12.42-63.67-37.06-10.56 10.35-21.54 22.15-33.03 35.51-8.28-2.59-19.67-8.08-33.96-16.36-16.05-9.32-25.88-16.57-29.81-21.85 15.01-18.63 25.26-30.85 30.64-36.75l15.53-16.67c4.24 4.45 13.98 11.49 29.09 21.23 15.12 9.73 24.75 14.59 28.78 14.59zm-521.08-219.89c-3.42 1.55-7.35 5.07-11.8 10.25 3.41 8.28 12.94 17.39 28.47 27.33 21.01 14.18 36.44 21.74 46.07 22.77-7.66-15.21-11.49-34.99-11.49-59.42 0-4.45.2-7.77.62-9.73-2.8-.42-5.28-.62-7.25-.62-15.63 0-30.44 3.1-44.62 9.42zm-425 56.73h103.43v89.14h-241.12l.62-89.14h103.43zm-332.75 89.14H5427.82c-17.18 0-30.64-5.18-40.38-15.43-7.45-8.38-14.18-21.63-19.98-40.06l-31.88 55.49h-463.73c-17.18 0-30.64-5.18-40.38-15.43-7.45-8.38-14.18-21.63-19.98-40.06l-31.89 55.49H4636.2c-20.08-2.07-33.02-6-38.82-11.8-11.59 30.33-29.09 59.42-52.49 87.27-28.47 33.86-55.91 50.73-82.2 50.73-16.57 0-48.35-10.35-95.25-30.95-48.97-21.43-74.54-38.2-76.72-50.32 1.76 0 12.12 4.14 30.96 12.43 18.74 8.28 36.65 12.42 53.63 12.42 11.7 0 28.88-3.93 51.25-11.8 17.18-6.32 38.51-19.57 63.98-39.76 6.93-4.45 20.08-15.01 39.44-31.58 13.15-11.49 19.78-22.25 19.78-32.19 0-11.5-16.26-34.89-48.87-70.3 11.49-20.4 26.92-45.04 46.07-73.71 25.88 39.03 41 60.98 45.24 65.84 20.19 22.99 42.45 34.58 66.68 34.58h142.56c2.8-5.9 5.28-29.82 7.26-71.95.41-1.35 9.52-12.74 27.33-34.06 17.81-21.33 27.54-32.72 29.09-34.17v10.98c.42 2.38.62 4.34.62 5.69.21 23.09-2.17 50.94-7.24 83.76-1.87 10.66 1.65 19.98 10.45 27.84 8.66 7.86 18.43 11.79 29.3 11.91H5357.42c2.8-5.9 5.28-29.82 7.25-71.95.41-1.35 9.52-12.74 27.33-34.06 17.81-21.33 27.54-32.72 29.09-34.17v10.98c.42 2.38.62 4.34.62 5.69.21 23.09-2.17 50.94-7.24 83.76-1.87 10.66 1.65 19.98 10.45 27.84 8.66 7.86 18.43 11.79 29.3 11.91h167.11v-23.71c0-17.18 7.76-33.54 23.29-49.17 9.73-18.95 30.23-39.04 61.6-60.26 31.37-21.33 57.25-31.89 77.65-31.89 25.89 0 52.5 13.88 79.93 41.73 27.44 27.74 39.86 54.25 37.48 79.3-19.67-17.6-39.03-29.09-58.29-34.58-15.53-4.86-38.41-7.25-68.54-7.25-13.36 0-29.2 1.14-47.63 3.63-26.09 3-39.13 7.45-39.13 13.35 0 3.83 9.32 13.98 27.95 30.65 16.57 14.91 28.47 24.43 35.82 28.47 10.87 6.83 23.09 10.14 36.65 9.73 99.09-2.28 152.62-3.42 160.48-3.42zm-619.95-317.32c15.12-18.53 24.95-30.64 29.4-36.34 15.32-17.81 25.37-27.95 30.03-30.33l83.44 46.07c-6.11 8.49-15.94 20.39-29.4 35.51-17.08 19.05-27.23 28.47-30.65 28.47-1.65 0-15.63-7.04-41.93-21.22zm-489.31 391.34c1.87 0 7.87-5.59 18.22-16.66 11.71-12.32 18.55-19.26 20.31-20.71l64.6 40.07c-4.45 6.93-12.01 16.87-22.67 30.02-13.15 16.36-21.12 24.64-24.02 24.64-1.56 0-22.78-12.42-63.68-37.06-10.56 10.35-21.54 22.15-33.03 35.51-8.28-2.59-19.67-8.08-33.96-16.36-16.05-9.32-25.88-16.57-29.81-21.85 15.01-18.63 25.26-30.85 30.64-36.75l15.53-16.67c4.24 4.45 13.98 11.49 29.09 21.23 15.12 9.73 24.75 14.59 28.78 14.59zm-306.55-406.45c0-3.63 9.32-14.19 27.85-31.69 18.63-17.49 29.81-26.29 33.75-26.29 1.76 0 12.84 9.21 33.13 27.54 20.39 18.22 30.54 28.16 30.54 29.5 0 4.04-9.32 13.46-27.95 28.06-18.54 14.7-30.54 22.05-35.72 22.05-3.52 0-14.6-7.66-33.44-22.77-18.74-15.22-28.16-24.02-28.16-26.4zm-258.41 166.26c9.52-15.21 19.77-29.19 30.95-41.93l30.85-37.27c2.49 0 14.29 8.8 35.51 26.4 17.19 14.71 29.2 25.68 36.14 32.72 16.56 15.43 24.84 36.03 24.84 61.91 0 8.08-.72 15.53-2.07 22.47-6.52 13.66-13.15 27.43-20.08 41.2-8.7 15.95-18.12 28.16-28.16 36.44-5.08 4.97-17.91 11.5-38.41 19.57-20.5 7.97-34.79 11.91-42.86 11.91-25.89 0-44.32-1.45-55.29-4.56-21.02-5.8-31.47-18.22-31.47-37.27 0-19.98 7.04-42.96 21.22-68.85 2.38-4.86 15.32-25.78 38.83-62.74zm46.07-178.07c2.58 0 9.93-5.79 21.84-17.29 11.91-11.59 19.15-18.01 21.53-19.46l71.85 38.82c-4.96 7.35-13.25 17.29-24.84 30.03-14.29 16.25-23.09 24.33-26.4 24.33-1.56 0-12.94-5.39-33.96-16.15-19.77-10.25-32.2-16.98-37.27-19.99-1.04 2.49-13.67 14.19-37.89 35.2-7.98-2.48-20.5-8.17-37.79-17.18-17.29-8.9-28.16-15.84-32.61-20.71 19.36-21.63 36.44-39.44 51.24-53.42 4.87 4.87 15.43 12.01 31.89 21.54 16.36 9.52 27.13 14.28 32.41 14.28zm-21.85 181.7c-3.42 4.45-9.94 13.87-19.67 28.47-10.35 15.74-15.53 24.33-15.53 25.78 0 22.88 14.5 34.27 43.38 34.27 28.37 0 49.59-2.7 63.67-8.18 0-9.11-10.46-24.75-31.47-47.01-21.02-22.25-34.48-33.33-40.38-33.33zm-312.15 73.4h103.43v89.14h-241.13l.62-89.14h103.44zm-393.42-169.58c0-5.28 8.28-22.78 24.85-52.49 15.63-27.85 26.5-45.76 32.82-53.63 3.42 0 9.63 44.1 18.43 132.52 3.52 34.37 5.17 67.4 5.17 99.18 0 54.97-15.32 101.98-46.07 141.01zm-202.92-43.69c32.61-63.05 53.32-94.63 62.22-94.63 0 13.15 1.04 22.26 3.01 27.33 2.79 6.63 9.11 13.46 18.84 20.3 44.41 30.74 70.61 46.07 78.47 46.07l-64.29 78.58c0 13.97 3.42 51.24 10.04 111.91 0 9.94-2.07 24.23-6.31 43.07l-10.97 46.38c-4.66 19.05-15.74 26.82-33.34 23.4h-59.53v.62h-325.08v-.62h-73.09c-1.04-1.04-4.04-31.06-9.11-90.07l-18.22-230.87c11.7-16.98 29.61-40.79 53.73-71.54 2.17 25.67 5.18 59.73 8.8 102.18l12.11 129.21c1.45 18.63 2.9 37.37 4.56 56.11 1.34 9.53 6.42 14.81 15.11 15.84H3082.52c.83-14.8 2.69-25.36 5.8-31.58 1.96-3.62 8.9-13.14 20.6-28.47 18.01-21.63 40.17-41.82 66.36-60.35 31.37-22.06 58.08-33.13 80.13-33.13 15.53 0 27.65 9.83 36.34 29.4 6.94 15.63 10.36 32.2 10.36 49.8 0 13.35-1.87 23.29-5.8 30.02l-26.4 44.31h118.95c1.45-.21 2.17-3.73 2.17-10.66 0-20.81-3.41-50.73-10.35-89.76-5.59-29.92-11.39-59.95-17.29-90.07-7.87-5.91-16.46-13.46-25.78-22.78zm-298.47-48.56c0-4.24 10.35-16.04 31.06-35.4 20.7-19.47 33.13-29.2 37.17-29.2 2.27 0 14.59 10.04 37.16 30.23 22.57 20.09 33.86 31.06 33.86 32.92 0 4.87-10.46 15.33-31.27 31.48-20.81 16.25-34.06 24.33-39.75 24.33-4.04 0-16.47-8.29-37.17-24.95-20.71-16.57-31.06-26.3-31.06-29.41zm155.29 261.52c19.05 0 32.93-5.07 41.83-15.22 0-12.73-3.21-23.91-9.63-33.65-7.35-10.87-17.08-16.35-29.19-16.35-7.46 0-18.95 3.62-34.58 10.87-16.98 7.87-25.47 15.01-25.47 21.22 0 7.97 7.56 15.63 22.78 23.09 13.56 6.62 24.95 10.04 34.26 10.04zm-651.52-225.38c0-3.42 10.56-15.74 31.58-36.96 21.01-21.33 33.44-31.89 37.27-31.89 1.03 0 14.7 7.97 40.99 23.81 26.3 15.84 40.9 23.81 44 23.81-5.9 8.28-15.21 20.6-27.95 36.96-21.02 24.54-33.96 36.75-38.82 36.75-58.08-31.16-87.07-48.65-87.07-52.48zm-106.12 190.18c12.11-24.33 26.61-45.97 43.38-65.22 23.19-25.89 44.62-38.83 64.29-38.83 26.92 0 54.87 7.66 83.96 23.09 18.85 10.66 47.73 26.09 86.76 46.07 19.47 9.32 45.35 19.05 77.65 29.09 24.33 7.46 41.94 11.29 52.81 11.29-11.91 17.39-30.24 42.96-54.88 76.71-56.84-5.48-101.15-8.18-132.83-8.18-16.67 0-41.1 8.39-73.3 25.27-32.3 16.87-56.01 25.36-71.12 25.36l-137.7.62v-.62h-6.01c-20.08-2.07-33.02-6-38.82-11.8-11.59 30.33-29.09 59.42-52.49 87.27-28.47 33.86-55.91 50.73-82.2 50.73-16.57 0-48.35-10.35-95.25-30.95-6.21-2.72-12.05-5.37-17.5-7.93-3.86 5.11-8.53 11-14.07 17.66-12.94 16.56-20.81 24.85-23.61 24.85-1.86 0-23.09-12.43-63.67-37.27-10.77 10.45-21.74 22.36-33.13 35.71-8.28-2.58-19.67-8.07-34.27-16.35-15.73-9.32-25.57-16.57-29.4-21.85 14.8-18.63 24.95-30.85 30.64-36.65l15.43-16.77c4.04 4.45 13.67 11.59 28.89 21.33 15.11 9.63 24.84 14.49 29.09 14.49 1.65 0 7.66-5.59 18.22-16.67 11.7-12.32 18.32-19.15 19.98-20.6l48.24 29.69c11.36 3.26 22.38 4.89 33.03 4.89 11.7 0 28.88-3.93 51.25-11.8 17.18-6.32 38.51-19.57 63.98-39.76 6.93-4.45 20.08-15.01 39.44-31.58 13.15-11.49 19.78-22.25 19.78-32.19 0-11.5-16.26-34.89-48.87-70.3 11.49-20.4 26.92-45.04 46.07-73.71 25.88 39.03 41 60.98 45.24 65.84 20.19 22.99 42.45 34.58 66.68 34.58h138.63c31.78 0 55.18-4.24 70.4-12.73-5.28-5.28-21.12-13.88-47.52-25.78-26.4-12.01-43.18-17.91-50.53-17.91-16.56 0-29.09 1.55-37.58 4.86-9.73 5.39-19.36 10.77-29.09 16.05zm-813.76-224.76c3.21 0 11.08-6.22 23.4-18.54 13.57-13.97 21.64-21.63 24.23-22.98l77.65 44.21c-5.91 7.97-14.91 19.05-27.34 33.44-15.94 18.32-25.46 27.54-28.47 27.54-4.45 0-30.33-13.88-77.64-41.52-12.74 11.7-26.2 25.06-40.38 40.07-9.32-2.9-23.09-9.11-41.52-18.84-19.56-10.36-31.88-18.23-36.75-23.71 13.77-15.95 32.61-35.72 56.42-59.43 5.28 5.07 16.98 12.94 35.1 23.71 18.12 10.66 29.82 16.05 35.3 16.05zM8351.55 8311.07l126.06 88.27c19.68 13.77 24.5 41.14 10.73 60.81l-255.4 364.75c-13.77 19.67-41.14 24.5-60.81 10.72l-158.91-111.27c-19.67-13.77-24.5-41.14-10.72-60.81l255.39-364.75c13.15-18.78 38.7-24.03 58.1-12.47l23.27-33.24c6.84-9.76 20.41-12.15 30.17-5.31 9.76 6.83 12.16 20.4 5.32 30.16zm-63.99 67.66l115.51 80.88c14.76 10.33 18.38 30.86 8.05 45.61l-75.25 107.47c-10.34 14.76-30.86 18.38-45.61 8.05l-115.52-80.89c-14.75-10.33-18.37-30.85-8.04-45.61l75.25-107.47c10.33-14.75 30.86-18.37 45.61-8.04zm29.33-47.87l121.14 84.82c1.82 1.28 2.27 3.81.99 5.63-1.28 1.82-3.81 2.27-5.63 1l-121.14-84.83a4.05 4.05 0 0 1-.99-5.63 4.05 4.05 0 0 1 5.63-.99zm-9.78 13.96l121.14 84.82c1.82 1.28 2.27 3.81.99 5.63-1.27 1.83-3.8 2.27-5.63 1l-121.14-84.83a4.05 4.05 0 0 1-.99-5.63c1.28-1.82 3.81-2.27 5.63-.99zm-60.13 298.86l27.36 19.15c2.92 2.05 3.64 6.11 1.59 9.03l-14.89 21.27c-2.05 2.92-6.11 3.63-9.03 1.59l-27.35-19.16c-2.92-2.04-3.64-6.1-1.59-9.02l14.89-21.27c2.04-2.92 6.1-3.64 9.02-1.59zm-52.64-36.86l27.35 19.15c2.92 2.05 3.64 6.11 1.6 9.03l-14.9 21.26c-2.04 2.92-6.1 3.64-9.02 1.6l-27.36-19.16c-2.92-2.04-3.63-6.1-1.59-9.02l14.89-21.27c2.05-2.92 6.11-3.64 9.03-1.59zm-52.65-36.87l27.36 19.16c2.92 2.04 3.64 6.1 1.59 9.02l-14.89 21.27c-2.04 2.92-6.1 3.64-9.02 1.59l-27.36-19.15c-2.92-2.05-3.64-6.11-1.59-9.03l14.89-21.26c2.04-2.93 6.1-3.64 9.02-1.6zm49.37 153.59l27.36 19.16c2.92 2.04 6.98 1.33 9.02-1.59l14.89-21.27c2.05-2.92 1.33-6.98-1.59-9.03l-27.35-19.15c-2.92-2.05-6.98-1.33-9.03 1.59l-14.89 21.27c-2.05 2.92-1.33 6.98 1.59 9.02zm-52.64-36.86l27.35 19.16c2.92 2.04 6.98 1.33 9.03-1.59l14.89-21.27c2.04-2.92 1.33-6.98-1.59-9.03l-27.36-19.15c-2.92-2.05-6.98-1.33-9.02 1.59l-14.9 21.27c-2.04 2.92-1.32 6.98 1.6 9.02zm-52.65-36.86l27.36 19.16c2.92 2.04 6.98 1.32 9.02-1.6l14.9-21.26c2.04-2.93 1.33-6.98-1.6-9.03l-27.35-19.15c-2.92-2.05-6.98-1.33-9.03 1.59l-14.89 21.27c-2.04 2.92-1.33 6.98 1.59 9.02zm94.02 89.82l27.36 19.16c2.92 2.04 3.63 6.1 1.59 9.02l-14.89 21.27c-2.05 2.92-6.11 3.64-9.03 1.59l-27.36-19.15c-2.92-2.05-3.63-6.11-1.59-9.03l14.9-21.27c2.04-2.92 6.1-3.63 9.02-1.59zm-52.64-36.86l27.35 19.15c2.92 2.05 3.64 6.11 1.59 9.03l-14.89 21.27c-2.04 2.92-6.1 3.63-9.02 1.59l-27.36-19.16c-2.92-2.04-3.64-6.1-1.59-9.02l14.89-21.27c2.05-2.92 6.1-3.64 9.03-1.59zm-52.65-36.86l27.36 19.15c2.92 2.05 3.63 6.11 1.59 9.03l-14.89 21.27c-2.05 2.92-6.11 3.63-9.03 1.59l-27.35-19.16c-2.92-2.04-3.64-6.1-1.6-9.02l14.9-21.27c2.04-2.92 6.1-3.64 9.02-1.59z"/><path d="M1594.63 8448.85c29.35 0 52.29 10.52 68.87 31.54 19.68 24.84 29.56 66.11 29.56 123.68 0 57.51-9.95 98.85-29.78 123.97-16.44 20.74-39.3 31.11-68.65 31.11-29.49 0-53.26-11.36-71.33-34.07-18.06-22.72-27.09-63.29-27.09-121.57 0-57.22 9.95-98.43 29.77-123.54 16.44-20.75 39.3-31.12 68.65-31.12zm0 48.26c-6.91 0-13.12 2.26-18.48 6.78-5.43 4.44-9.67 12.48-12.63 24.13-3.95 15.02-5.93 40.42-5.93 76.05 0 35.7 1.77 60.19 5.29 73.52 3.53 13.34 7.98 22.23 13.34 26.67 5.36 4.45 11.5 6.63 18.41 6.63 6.92 0 13.13-2.25 18.56-6.77 5.36-4.44 9.6-12.49 12.56-24.13 3.95-14.89 5.93-40.22 5.93-75.92 0-35.63-1.77-60.11-5.3-73.44-3.52-13.34-7.97-22.3-13.33-26.74-5.36-4.52-11.5-6.78-18.42-6.78zm200.77 178.72l57.99-6c1.7 13.12 6.56 23.57 14.68 31.26 8.18 7.69 17.57 11.5 28.22 11.5 12.14 0 22.44-4.94 30.83-14.89 8.4-9.95 12.63-24.91 12.63-44.87 0-18.77-4.16-32.81-12.56-42.19-8.32-9.39-19.19-14.05-32.59-14.05-16.72 0-31.75 7.34-45.02 22.02l-46.99-6.78 29.64-157.47h153.67v54.18h-109.58l-9.17 51.58c12.91-6.42 26.18-9.67 39.72-9.67 25.83 0 47.7 9.39 65.62 28.22 17.99 18.77 26.95 43.18 26.95 73.24 0 25.05-7.27 47.34-21.73 67.03-19.75 26.81-47.13 40.21-82.13 40.21-28.01 0-50.87-7.55-68.5-22.57-17.71-15.1-28.23-35.28-31.68-60.75zm395.91-226.98c29.35 0 52.29 10.52 68.87 31.54 19.68 24.84 29.56 66.11 29.56 123.68 0 57.51-9.95 98.85-29.78 123.97-16.44 20.74-39.3 31.11-68.65 31.11-29.49 0-53.26-11.36-71.33-34.07-18.06-22.72-27.09-63.29-27.09-121.57 0-57.22 9.95-98.43 29.77-123.54 16.44-20.75 39.3-31.12 68.65-31.12zm0 48.26c-6.91 0-13.12 2.26-18.48 6.78-5.43 4.44-9.67 12.48-12.63 24.13-3.95 15.02-5.93 40.42-5.93 76.05 0 35.7 1.77 60.19 5.29 73.52 3.53 13.34 7.98 22.23 13.34 26.67 5.36 4.45 11.5 6.63 18.41 6.63 6.92 0 13.13-2.25 18.56-6.77 5.36-4.44 9.6-12.49 12.56-24.13 3.95-14.89 5.93-40.22 5.93-75.92 0-35.63-1.77-60.11-5.3-73.44-3.52-13.34-7.97-22.3-13.33-26.74-5.36-4.52-11.5-6.78-18.42-6.78zm313.8 256.54v-60.96h-123.62v-50.59l131.09-192.82h48.83v192.61h37.67v50.8h-37.67v60.96zm0-111.76v-103.5l-69.29 103.5zm380.88 58v53.76h-203.62c2.19-20.46 8.82-39.79 19.83-58.07 11.01-18.27 32.81-42.54 65.26-72.81 26.18-24.41 42.19-40.99 48.12-49.67 7.97-11.99 12-23.85 12-35.63 0-12.98-3.46-22.93-10.45-29.92-6.91-6.98-16.51-10.44-28.71-10.44-12.14 0-21.73 3.67-28.93 11.01-7.13 7.27-11.22 19.4-12.35 36.4l-57.99-5.78c3.45-32.03 14.25-55.03 32.45-69 18.21-13.9 40.92-20.89 68.23-20.89 29.91 0 53.41 8.12 70.55 24.27 17.08 16.16 25.61 36.27 25.61 60.33 0 13.69-2.46 26.67-7.33 39.09-4.87 12.34-12.63 25.25-23.29 38.8-6.98 9.03-19.75 21.94-38.1 38.81-18.41 16.86-30.05 28.01-34.92 33.58-4.94 5.5-8.89 10.94-11.92 16.16zm104.04-16.65l56.3-6.21c1.34 11.5 4.94 20.03 10.65 25.54 5.72 5.57 13.34 8.32 22.72 8.32 11.93 0 22.02-5.57 30.34-16.65 8.33-11.07 13.62-34.08 15.95-68.86-14.61 16.93-32.81 25.4-54.75 25.4-23.78 0-44.38-9.17-61.67-27.59-17.29-18.41-25.89-42.33-25.89-71.82 0-30.76 9.1-55.53 27.37-74.3 18.28-18.83 41.56-28.22 69.78-28.22 30.69 0 55.95 11.93 75.64 35.7 19.68 23.85 29.56 63.01 29.56 117.62 0 55.45-10.23 95.53-30.69 120.08-20.46 24.63-47.13 36.9-80.01 36.9-23.64 0-42.69-6.35-57.29-19.05-14.54-12.63-23.92-31.61-28.01-56.86zm130.81-127.14c0-18.7-4.31-33.24-12.92-43.54-8.53-10.3-18.48-15.45-29.77-15.45-10.72 0-19.61 4.24-26.67 12.7-7.13 8.47-10.65 22.3-10.65 41.49 0 19.54 3.88 33.86 11.57 43.04 7.69 9.1 17.28 13.68 28.85 13.68 11.15 0 20.54-4.37 28.16-13.19s11.43-21.73 11.43-38.73zm167.53 127.14l56.3-6.21c1.34 11.5 4.94 20.03 10.65 25.54 5.72 5.57 13.34 8.32 22.72 8.32 11.93 0 22.02-5.57 30.34-16.65 8.33-11.07 13.62-34.08 15.95-68.86-14.61 16.93-32.81 25.4-54.75 25.4-23.78 0-44.38-9.17-61.67-27.59-17.29-18.41-25.89-42.33-25.89-71.82 0-30.76 9.1-55.53 27.37-74.3 18.28-18.83 41.56-28.22 69.78-28.22 30.69 0 55.95 11.93 75.64 35.7 19.68 23.85 29.56 63.01 29.56 117.62 0 55.45-10.23 95.53-30.69 120.08-20.46 24.63-47.13 36.9-80.01 36.9-23.64 0-42.69-6.35-57.29-19.05-14.54-12.63-23.92-31.61-28.01-56.86zm130.81-127.14c0-18.7-4.31-33.24-12.92-43.54-8.53-10.3-18.48-15.45-29.77-15.45-10.72 0-19.61 4.24-26.67 12.7-7.13 8.47-10.65 22.3-10.65 41.49 0 19.54 3.88 33.86 11.57 43.04 7.69 9.1 17.28 13.68 28.85 13.68 11.15 0 20.54-4.37 28.16-13.19s11.43-21.73 11.43-38.73zm163.72 117.19l56.3-6.85c1.76 14.4 6.56 25.4 14.39 33.02s17.29 11.43 28.37 11.43c11.92 0 21.94-4.58 30.12-13.68 8.12-9.11 12.21-21.38 12.21-36.9 0-14.61-3.88-26.25-11.71-34.79s-17.36-12.84-28.65-12.84c-7.41 0-16.23 1.48-26.53 4.38l6.42-47.14c15.67.43 27.59-3.03 35.85-10.3 8.25-7.19 12.34-16.86 12.34-28.92 0-10.23-3.03-18.35-9.1-24.49-6.07-6.06-14.11-9.1-24.2-9.1-9.95 0-18.41 3.46-25.4 10.37-7.06 6.92-11.29 17.01-12.84 30.27l-53.34-9.1c3.74-18.49 9.31-33.23 16.86-44.31 7.48-11.01 17.99-19.68 31.4-26.03 13.4-6.28 28.5-9.46 45.15-9.46 28.51 0 51.37 9.1 68.58 27.38 14.19 14.96 21.31 31.89 21.31 50.73 0 26.67-14.53 48.04-43.67 63.92 17.35 3.74 31.18 12.06 41.63 25.05 10.37 12.98 15.59 28.64 15.59 46.99 0 26.6-9.74 49.31-29.14 68.08s-43.53 28.15-72.46 28.15c-27.38 0-50.09-7.9-68.09-23.77-18.06-15.81-28.5-36.48-31.39-62.09zm496.88-148.52l-56.3 6.21c-1.35-11.57-4.94-20.11-10.73-25.61-5.78-5.51-13.26-8.26-22.51-8.26-12.27 0-22.64 5.51-31.11 16.51-8.47 11.01-13.76 33.94-15.95 68.79 14.47-17.07 32.39-25.61 53.91-25.61 24.2 0 45.01 9.24 62.3 27.73 17.28 18.56 25.89 42.4 25.89 71.68 0 31.05-9.1 56.02-27.3 74.79-18.21 18.77-41.56 28.15-70.06 28.15-30.55 0-55.74-11.92-75.43-35.77-19.68-23.85-29.56-62.86-29.56-117.19 0-55.67 10.3-95.81 30.83-120.44 20.53-24.62 47.2-36.9 80.01-36.9 23 0 42.05 6.49 57.15 19.48 15.1 12.91 24.7 31.75 28.86 56.44zm-131.66 126.86c0 18.91 4.38 33.51 13.06 43.81 8.67 10.3 18.55 15.45 29.77 15.45 10.72 0 19.68-4.23 26.88-12.63 7.13-8.46 10.73-22.29 10.73-41.48 0-19.76-3.89-34.22-11.58-43.46-7.76-9.18-17.35-13.76-28.92-13.76-11.22 0-20.61 4.37-28.37 13.19-7.69 8.75-11.57 21.73-11.57 38.88zm231.46 21.66l56.3-6.85c1.76 14.4 6.56 25.4 14.39 33.02s17.29 11.43 28.37 11.43c11.92 0 21.94-4.58 30.12-13.68 8.12-9.11 12.21-21.38 12.21-36.9 0-14.61-3.88-26.25-11.71-34.79s-17.36-12.84-28.65-12.84c-7.41 0-16.23 1.48-26.53 4.38l6.42-47.14c15.67.43 27.59-3.03 35.85-10.3 8.25-7.19 12.34-16.86 12.34-28.92 0-10.23-3.03-18.35-9.1-24.49-6.07-6.06-14.11-9.1-24.2-9.1-9.95 0-18.41 3.46-25.4 10.37-7.06 6.92-11.29 17.01-12.84 30.27l-53.34-9.1c3.74-18.49 9.31-33.23 16.86-44.31 7.48-11.01 17.99-19.68 31.4-26.03 13.4-6.28 28.5-9.46 45.15-9.46 28.51 0 51.37 9.1 68.58 27.38 14.19 14.96 21.31 31.89 21.31 50.73 0 26.67-14.53 48.04-43.67 63.92 17.35 3.74 31.18 12.06 41.63 25.05 10.37 12.98 15.59 28.64 15.59 46.99 0 26.6-9.74 49.31-29.14 68.08s-43.53 28.15-72.46 28.15c-27.38 0-50.09-7.9-68.09-23.77-18.06-15.81-28.5-36.48-31.39-62.09zm349.02-7.69v-43.61h235.37v43.61zm483.01-216.75c29.35 0 52.31 10.59 68.87 31.54 19.6 24.81 29.56 66.11 29.56 123.68 0 57.51-9.98 98.91-29.78 123.97-16.37 20.7-39.3 31.11-68.65 31.11-29.49 0-53.27-11.36-71.33-34.07s-27.09-63.29-27.09-121.57c0-57.22 9.98-98.49 29.77-123.54 16.37-20.71 39.3-31.12 68.65-31.12zm0 48.26c-6.91 0-13.14 2.35-18.48 6.78-5.35 4.43-9.66 12.55-12.63 24.13-3.84 14.99-5.93 40.42-5.93 76.05 0 35.7 1.82 60.24 5.29 73.52 3.48 13.29 8.03 22.28 13.34 26.67 5.31 4.4 11.5 6.63 18.41 6.63 6.92 0 13.17-2.31 18.56-6.77 5.3-4.4 9.58-12.56 12.56-24.13 3.83-14.86 5.93-40.22 5.93-75.92 0-35.63-1.78-60.11-5.3-73.44s-8.04-22.32-13.33-26.74c-5.33-4.44-11.5-6.78-18.42-6.78zm200.77 178.72l57.99-6c1.7 13.12 6.6 23.63 14.68 31.26 8.12 7.65 17.57 11.5 28.22 11.5 12.14 0 22.49-4.99 30.83-14.89 8.35-9.9 12.63-24.91 12.63-44.87 0-18.77-4.23-32.84-12.56-42.19-8.29-9.32-19.19-14.05-32.59-14.05-16.72 0-31.75 7.34-45.02 22.02l-46.99-6.78 29.64-157.47h153.67v54.18H5293.3l-9.17 51.58c12.91-6.42 26.18-9.67 39.72-9.67 25.83 0 47.72 9.47 65.62 28.22 17.91 18.75 26.95 43.18 26.95 73.24 0 25.05-7.3 47.41-21.73 67.03-19.68 26.78-47.13 40.21-82.13 40.21-28.01 0-50.92-7.6-68.5-22.57-17.66-15.05-28.23-35.28-31.68-60.75zm295.8-2.54l56.3-6.85c1.76 14.4 6.56 25.4 14.39 33.02s17.29 11.43 28.37 11.43c11.92 0 22.01-4.61 30.12-13.68 8.09-9.04 12.21-21.38 12.21-36.9 0-14.61-3.88-26.25-11.71-34.79s-17.36-12.84-28.65-12.84c-7.41 0-16.23 1.48-26.53 4.38l6.42-47.14c15.67.43 27.63-3.1 35.85-10.3 8.19-7.16 12.34-16.86 12.34-28.92 0-10.23-3.05-18.42-9.1-24.49-6-6.03-14.11-9.1-24.2-9.1-9.95 0-18.45 3.52-25.4 10.37-7 6.88-11.29 17.01-12.84 30.27l-53.34-9.1c3.74-18.49 9.37-33.27 16.86-44.31 7.44-10.95 18.02-19.76 31.4-26.03 13.33-6.26 28.5-9.46 45.15-9.46 28.51 0 51.39 9.17 68.58 27.38 14.11 14.93 21.31 31.89 21.31 50.73 0 26.67-14.53 48.04-43.67 63.92 17.35 3.74 31.25 12.1 41.63 25.05 10.34 12.92 15.59 28.64 15.59 46.99 0 26.6-9.74 49.31-29.14 68.08s-43.53 28.15-72.46 28.15c-27.38 0-50.12-7.98-68.09-23.77-17.99-15.79-28.5-36.48-31.39-62.09zm398.45-224.44c29.35 0 52.31 10.59 68.87 31.54 19.6 24.81 29.56 66.11 29.56 123.68 0 57.51-9.98 98.91-29.78 123.97-16.37 20.7-39.3 31.11-68.65 31.11-29.49 0-53.27-11.36-71.33-34.07s-27.09-63.29-27.09-121.57c0-57.22 9.98-98.49 29.77-123.54 16.37-20.71 39.3-31.12 68.65-31.12zm0 48.26c-6.91 0-13.14 2.35-18.48 6.78-5.35 4.43-9.66 12.55-12.63 24.13-3.84 14.99-5.93 40.42-5.93 76.05 0 35.7 1.82 60.24 5.29 73.52 3.48 13.29 8.03 22.28 13.34 26.67 5.31 4.4 11.5 6.63 18.41 6.63 6.92 0 13.17-2.31 18.56-6.77 5.3-4.4 9.58-12.56 12.56-24.13 3.83-14.86 5.93-40.22 5.93-75.92 0-35.63-1.78-60.11-5.3-73.44s-8.04-22.32-13.33-26.74c-5.33-4.44-11.5-6.78-18.42-6.78zm250.01 92.64c-14.95-6.35-25.89-15.11-32.66-26.18-6.75-11.05-10.23-23.28-10.23-36.47 0-22.65 7.95-41.4 23.63-56.09 15.69-14.7 38.17-22.16 67.17-22.16 28.79 0 51.13 7.46 66.96 22.16 15.82 14.69 23.85 33.44 23.85 56.09 0 14.04-3.73 26.58-11.01 37.53-7.23 10.89-17.57 19.34-30.83 25.12 16.86 6.77 29.73 16.67 38.45 29.63 8.75 12.98 13.12 28.01 13.12 45.02 0 28.08-8.95 50.91-26.74 68.44-17.74 17.5-41.49 26.31-71.12 26.31-27.51 0-50.42-7.32-68.72-21.8-21.54-17.03-32.38-40.64-32.38-70.48 0-16.44 4.14-31.59 12.2-45.3 8.07-13.71 20.89-24.34 38.31-31.82zm12.14-58.42c0 11.57 3.28 20.73 9.74 27.16 6.5 6.46 15.24 9.74 26.03 9.74 11.01 0 19.81-3.36 26.32-9.88 6.51-6.51 9.88-15.66 9.88-27.23 0-10.94-3.28-19.76-9.74-26.25-6.49-6.53-15.17-9.87-25.82-9.87-11.15 0-20.02 3.36-26.53 9.94-6.51 6.59-9.88 15.46-9.88 26.39zm-5.5 129.96c0 16.16 4.14 28.77 12.27 37.75 8.14 8.98 18.35 13.55 30.55 13.55 12 0 21.93-4.43 29.71-13.06 7.78-8.62 11.71-21.23 11.71-37.6 0-14.32-4-25.87-11.93-34.5-7.92-8.63-18.06-13.06-30.26-13.06-14.18 0-24.77 4.98-31.68 14.82-6.89 9.82-10.37 20.53-10.37 32.1zm438.03 38.6v53.76h-203.62c2.19-20.46 8.87-39.84 19.83-58.07 10.96-18.22 32.86-42.59 65.26-72.81 26.13-24.36 42.3-41 48.12-49.67 7.98-11.9 12-23.85 12-35.63 0-12.98-3.53-22.96-10.45-29.92-6.88-6.91-16.51-10.44-28.71-10.44-12.14 0-21.78 3.72-28.93 11.01-7.08 7.22-11.22 19.4-12.35 36.4l-57.99-5.78c3.45-32.03 14.28-55.11 32.45-69 18.14-13.88 40.92-20.89 68.23-20.89 29.91 0 53.48 8.15 70.55 24.27 17.05 16.09 25.61 36.27 25.61 60.33 0 13.69-2.5 26.72-7.33 39.09-4.81 12.29-12.73 25.26-23.29 38.8-6.98 8.94-19.78 22.01-38.1 38.81-18.34 16.83-30.02 28.05-34.92 33.58s-8.89 10.94-11.92 16.16zm100.23-26.6l56.3-6.85c1.76 14.4 6.56 25.4 14.39 33.02s17.29 11.43 28.37 11.43c11.92 0 22.01-4.61 30.12-13.68 8.09-9.04 12.21-21.38 12.21-36.9 0-14.61-3.88-26.25-11.71-34.79s-17.36-12.84-28.65-12.84c-7.41 0-16.23 1.48-26.53 4.38l6.42-47.14c15.67.43 27.63-3.1 35.85-10.3 8.19-7.16 12.34-16.86 12.34-28.92 0-10.23-3.05-18.42-9.1-24.49-6-6.03-14.11-9.1-24.2-9.1-9.95 0-18.45 3.52-25.4 10.37-7 6.88-11.29 17.01-12.84 30.27l-53.34-9.1c3.74-18.49 9.37-33.27 16.86-44.31 7.44-10.95 18.02-19.76 31.4-26.03 13.33-6.26 28.5-9.46 45.15-9.46 28.51 0 51.39 9.17 68.58 27.38 14.11 14.93 21.31 31.89 21.31 50.73 0 26.67-14.53 48.04-43.67 63.92 17.35 3.74 31.25 12.1 41.63 25.05 10.34 12.92 15.59 28.64 15.59 46.99 0 26.6-9.74 49.31-29.14 68.08s-43.53 28.15-72.46 28.15c-27.38 0-50.12-7.98-68.09-23.77-17.99-15.79-28.5-36.48-31.39-62.09zm300.03-165.17v-53.76h198.96v42.33c-16.43 16.16-33.16 39.34-50.09 69.5a405.213 405.213 0 0 0-38.8 96.3c-8.84 33.96-13.27 64.42-13.13 91.16h-55.88c.99-41.98 9.61-84.87 25.9-128.48 16.28-43.56 38.1-82.69 65.4-117.05zm495.19 16.65l-56.3 6.21c-1.35-11.57-4.95-20.11-10.73-25.61s-13.26-8.26-22.51-8.26c-12.27 0-22.69 5.56-31.11 16.51-8.42 10.96-13.76 33.94-15.95 68.79 14.47-17.07 32.39-25.61 53.91-25.61 24.2 0 45.08 9.28 62.3 27.73 17.25 18.5 25.89 42.4 25.89 71.68 0 31.05-9.15 56.07-27.3 74.79-18.16 18.72-41.56 28.15-70.06 28.15-30.55 0-55.79-11.97-75.43-35.77-19.63-23.8-29.56-62.86-29.56-117.19 0-55.67 10.35-95.86 30.83-120.44 20.48-24.57 47.2-36.9 80.01-36.9 23 0 42.08 6.57 57.15 19.48 15.03 12.89 24.7 31.75 28.86 56.44zm-131.66 126.86c0 18.91 4.43 33.56 13.06 43.81 8.62 10.25 18.55 15.45 29.77 15.45 10.72 0 19.77-4.25 26.88-12.63 7.12-8.38 10.73-22.29 10.73-41.48 0-19.76-3.9-34.3-11.58-43.46-7.67-9.16-17.35-13.76-28.92-13.76-11.22 0-20.66 4.42-28.37 13.19-7.64 8.7-11.57 21.73-11.57 38.88zm235.27 31.61l56.3-6.21c1.34 11.5 5 20.07 10.65 25.54 5.68 5.51 13.34 8.32 22.72 8.32 11.93 0 22.02-5.58 30.34-16.65s13.62-34.08 15.95-68.86c-14.61 16.93-32.81 25.4-54.75 25.4-23.78 0-44.43-9.22-61.67-27.59-17.24-18.36-25.89-42.33-25.89-71.82 0-30.76 9.16-55.57 27.37-74.3 18.24-18.77 41.56-28.22 69.78-28.22 30.69 0 56.03 11.96 75.64 35.7 19.66 23.78 29.56 63.01 29.56 117.62 0 55.45-10.3 95.56-30.69 120.08-20.43 24.56-47.13 36.9-80.01 36.9-23.64 0-42.74-6.4-57.29-19.05-14.49-12.58-23.92-31.61-28.01-56.86zm130.81-127.14c0-18.7-4.39-33.27-12.92-43.54-8.51-10.23-18.48-15.45-29.77-15.45-10.72 0-19.64 4.31-26.67 12.7-7.06 8.44-10.65 22.3-10.65 41.49 0 19.54 3.91 33.93 11.57 43.04 7.62 9.07 17.28 13.68 28.85 13.68 11.15 0 20.54-4.37 28.16-13.19s11.43-21.73 11.43-38.73z" fill-rule="nonzero"/></g></svg>