<svg height="457" viewBox="6 109 4514.9 934" width="2500" xmlns="http://www.w3.org/2000/svg"><path d="m6.1 109h823v165.9h-823z" fill="#f46100"/><path d="m829.3 436.2v85.8c0 26.5-2.5 52.3-7.3 77.4-19.3 102-76.2 190.6-155.7 250.9-69 52.5-155.2 83.6-248.6 83.6s-179.6-31.1-248.6-83.6c-79.6-60.4-136.5-149-155.8-250.9-4.7-25.1-7.3-51-7.3-77.4v-85.8h163v85.8c0 27 4.3 53.1 12.3 77.4 32.5 99.6 126.1 171.6 236.4 171.6s203.9-72 236.3-171.6h-232.7v-163.2z" fill="#f46100"/><path d="m1151.1 685.3c37.3 0 68.2-12.8 92.7-38.6 24.5-25.7 36.7-58.9 36.7-99.9s-12.3-74.2-36.7-99.9c-24.5-25.7-55.4-38.5-92.7-38.5s-67.9 12.8-91.8 38.5-35.8 59-35.8 99.9 12.1 74.3 36.3 99.9c24.1 25.6 54.6 38.6 91.3 38.6m129.4-390.7h131.3l-.9 504.3h-131.2v-67.9c-38.5 52.6-91.2 78.8-157.9 78.8s-121.8-24.6-165.2-73.8c-43.5-49.2-65.2-112.3-65.2-189.3s21.9-140.1 65.7-189.3 98.4-73.8 163.8-73.8 120.5 27.2 159.7 81.6zm488.9-10.7c8.6 0 18.4.6 29.5 1.8v135.1c-13.5-1.2-24.2-1.9-32.2-1.9-46.6 0-84.1 12.1-112.6 36.3-28.5 24.1-42.8 64.2-42.8 120v225.1h-131.5v-505.4h131.5v88.2c31.3-66.1 84-99.2 158.1-99.2m687.8 0c53.9 0 96.5 17.4 127.8 52.4s46.9 83 46.9 144.3v319.8h-131.4v-291.4c0-33-6.9-58-20.7-74.9s-36.1-25.2-66.7-25.2c-34.3 0-60.4 10.9-78.2 32.6s-26.7 52.8-26.7 93.3v265.5h-131.4v-291.3c0-33-6.9-58-20.7-74.9s-36-25.2-66.7-25.2c-34.3 0-60.5 10.9-78.6 32.6s-27.1 52.8-27.1 93.3l1 265.6h-132.4v-505.5h132.4v67.1c36.8-52.1 86.7-78.1 149.9-78.1 73.6 0 124.7 31.9 153.5 95.6 39.1-63.7 95.6-95.6 169.1-95.6m238.2 516.8h131v-505.4h-131z" fill="#080d2d"/><path d="m2678.1 139.2c0 22.8 7.8 40.9 23.4 55.4 16.4 14.4 35.8 21.2 59.2 21.2s44.4-6.8 60-21.2 23.3-32.6 23.3-55.4z" fill="#f46100"/><path d="m3182.1 284c57 0 101.7 17.9 134.3 53.5 32.5 35.6 48.7 84.4 48.7 146.5v317.8h-131.4v-289.4c0-34.4-7.3-60.1-22.1-77.4-14.7-17.2-38.9-25.8-72.6-25.8-76 0-114.1 42.1-114.1 126.2v266.3h-131.5v-506.7h131.6v69c37.9-53.3 90.4-80 157.1-80m494.8 396.1c37.4 0 68.3-12.6 92.9-37.8 24.5-25.2 36.8-57.7 36.8-97.7s-12.4-71.7-37.3-97.2-55.6-38.2-92.4-38.2-67.2 12.7-91.5 38.2c-24.2 25.5-36.3 57.9-36.3 97.2s12.2 71.7 36.3 97.2c24.1 25.4 54.6 38.3 91.5 38.3m129.6-385.1h131.5v500.2c0 75-22.7 135-68.1 180.1-45.4 45.2-106 67.7-182 67.7-65.6 0-122.5-16.6-170.6-49.8s-76.8-81.4-85.9-144.6h136.1c13.5 51.6 52.4 77.4 116.8 77.4 81.5 0 122.3-42.4 122.3-127.1v-72.8c-39.2 52.8-92.2 79.2-159 79.2s-121.2-24.5-165-73.7c-43.9-49.2-65.8-111.4-65.8-187s22.1-137.9 66.2-187 99-73.7 164.6-73.7 120.4 27 159.1 81.1v-70zm543.8 153c-24.9-25.8-56-38.7-93.3-38.7s-68.5 12.9-93.3 38.7-37.3 59.3-37.3 100.4 12.4 74.6 37.3 100.4c24.9 25.7 55.9 38.7 93.3 38.7s68.5-12.9 93.3-38.8c24.9-25.9 37.3-59.2 37.3-100.4 0-41-12.4-74.6-37.3-100.3m-280-88.5c50.9-50.4 113.2-75.6 186.7-75.6s135.9 25.2 187.1 75.6c51.1 50.4 76.8 113.3 76.8 188.8s-25.2 139.3-75.8 189.3c-50.5 50.1-113.3 75.1-188 75.1s-136.5-25.2-187.1-75.5c-50.5-50.3-75.9-113.3-75.9-188.9-.1-75.5 25.3-138.4 76.2-188.8" fill="#080d2d"/></svg>