<svg height="2500" viewBox="-577.817 -571.638 2060.9829999999997 1087.7562482841781" width="2500" xmlns="http://www.w3.org/2000/svg" xmlns:xlink="http://www.w3.org/1999/xlink"><linearGradient id="a"><stop offset="0" stop-color="#34fffa"/><stop offset="1" stop-color="#34fffa" stop-opacity="0"/></linearGradient><linearGradient id="j" gradientUnits="userSpaceOnUse" x1="-606.306" x2="-606.306" y1="80.432" y2="169.178"><stop offset="0" stop-color="#ffff50" stop-opacity="0"/><stop offset="1" stop-color="#fff" stop-opacity=".498"/></linearGradient><linearGradient id="i" gradientUnits="userSpaceOnUse" x1="-606.542" x2="-606.542" y1="80.432" y2="169.178"><stop offset="0" stop-opacity="0"/><stop offset="1" stop-color="#fff" stop-opacity=".498"/></linearGradient><linearGradient id="h" gradientUnits="userSpaceOnUse" x1="-428.563" x2="-428.563" y1="-203.119" y2="-277.733"><stop offset="0" stop-color="#f5860b"/><stop offset="1" stop-color="#f0c209"/></linearGradient><linearGradient id="f" gradientTransform="rotate(-90 -121.57 221.406)" gradientUnits="userSpaceOnUse" x1="-137.522" x2="-2.055" y1="-167.108" y2="-167.108"><stop offset="0" stop-color="#f5860b"/><stop offset="1" stop-color="#fece01"/></linearGradient><linearGradient id="e" gradientUnits="userSpaceOnUse" x1="-317.2" x2="-267.916" y1="218.833" y2="218.833"><stop offset="0" stop-color="#fff"/><stop offset="1" stop-color="#82ffff" stop-opacity="0"/></linearGradient><linearGradient id="d" gradientUnits="userSpaceOnUse" x1="-556.427" x2="-556.427" y1="199.66" y2="229.464"><stop offset="0" stop-opacity=".948"/><stop offset="1" stop-color="#013c3c" stop-opacity=".298"/></linearGradient><linearGradient id="b" gradientUnits="userSpaceOnUse" x1="-231.178" x2="-108.072" y1="-510.085" y2="-510.085"><stop offset="0" stop-color="#1195c0"/><stop offset="1" stop-color="#032936"/></linearGradient><filter id="g" color-interpolation-filters="sRGB" height="1.006" width="1.006" x="-.003" y="-.003"><feGaussianBlur stdDeviation=".555"/></filter><filter id="q" color-interpolation-filters="sRGB" height="1.122" width="1.119" x="-.06" y="-.061"><feGaussianBlur stdDeviation="1.134"/></filter><filter id="c" color-interpolation-filters="sRGB" height="1.2" width="1.202" x="-.101" y="-.1"><feGaussianBlur stdDeviation=".76"/></filter><filter id="n" color-interpolation-filters="sRGB" height="1.511" width="1.511" x="-.256" y="-.256"><feGaussianBlur stdDeviation="4.024"/></filter><filter id="o" color-interpolation-filters="sRGB" height="1.547" width="1.542" x="-.271" y="-.273"><feGaussianBlur stdDeviation="6.714"/></filter><filter id="p" color-interpolation-filters="sRGB" height="1.323" width="1.33" x="-.165" y="-.162"><feGaussianBlur stdDeviation="4.784"/></filter><radialGradient id="m" cx="-452.649" cy="-256.546" gradientUnits="userSpaceOnUse" r="43.065" xlink:href="#a"/><radialGradient id="l" cx="-479.076" cy="-256.546" gradientUnits="userSpaceOnUse" r="43.065" xlink:href="#a"/><radialGradient id="k" cx="121.439" cy="-122.049" gradientTransform="matrix(7.65577 0 0 1.71597 -1395.228 -23.731)" gradientUnits="userSpaceOnUse" r="23.867"><stop offset="0" stop-color="#01ffff"/><stop offset="1" stop-color="#01ffff" stop-opacity="0"/></radialGradient><g transform="translate(577.818 -101.892)"><path d="M-231.179-571.638h123.107v123.107H-231.18z" fill="url(#b)" stroke-linecap="round" stroke-linejoin="round" stroke-width="8.029" transform="rotate(-90)"/><path d="M-537.385 218.056l-19.047-38.16-18.834 38.16z" fill="#64b4ff" stroke="#00d4ff" stroke-width="4" stroke-linecap="round" stroke-linejoin="round" filter="url(#c)"/><path d="M-466.125 103.515v27.103h-83.012v.529h83.54v-27.632zm21.508 4.824v38.87h-13.612v.53h14.141v-39.4zm-110.01 10.056v62.513h-18.19v.53h18.718v-63.043zm88.502 18.152v78.69h-83.012v.53h83.54v-79.22zm21.508 16.866v36.658h-14.14v.53h14.67v-37.188zm-110.01 33.316v45.375h-18.19v.53h18.718v-45.905zm110.197 8.268v37.967h-15.015v.53h15.544v-38.497zm-45.243 26.722v11.245h-58.935v.53h59.464v-11.775zm23.548 0v11.245h-17.132v.53h17.66v-11.775z" fill="#000005" opacity=".333"/><path d="M-549.137 102.985v27.633h83.013v-27.633zm90.38 4.824v39.401h14.142v-39.4zm-114.59 10.057v63.043h18.72v-63.043zm24.21 18.153v79.22h83.013v-79.22zm90.38 16.866v37.187h14.142v-37.187zm-114.59 33.315v45.906h18.72V186.2zm113.375 8.269v38.497h15.544v-38.497zm-89.165 27.252v11.245h59.465V221.72zm65.352 0v11.245h17.661V221.72z" fill-opacity=".55" opacity=".333"/><path d="M-537.385 218.056l-19.047-38.16-18.834 38.16z" fill="url(#d)" stroke="#fff" stroke-width="2.3"/><path d="M-389.247 218.459h121.721v.748h-121.721z" fill="url(#e)" transform="matrix(1 0 0 1.67873 -181.85 -148.533)" visibility="hidden"/><path d="M-577.817 101.892V237.36h135.466V101.892zm31.652 6.323h78.792c10.36 0 18.7 8.338 18.7 18.699v85.423c0 10.36-8.34 18.7-18.7 18.7h-85.423c-10.36 0-18.699-8.34-18.699-18.7v-78.792h1.689a23.592 23.592 0 0 0 23.641-23.642z" fill="#d33f05"/><path d="M-577.817 101.892V237.36h135.466V101.892zm29.252 3.923h81.192a21.053 21.053 0 0 1 21.1 21.099v85.423c0 11.69-9.41 21.1-21.1 21.1h-85.423a21.052 21.052 0 0 1-21.099-21.1v-81.192h4.089a21.196 21.196 0 0 0 21.241-21.242z" fill="#fff481"/><path d="M-577.817 101.892V237.36h135.466V101.892H-549.57zm28.252 2.923h82.192a22.05 22.05 0 0 1 22.099 22.099v85.423a22.05 22.05 0 0 1-22.099 22.1h-85.423a22.05 22.05 0 0 1-22.099-22.1v-82.192h5.088a20.197 20.197 0 0 0 20.242-20.242z" fill="url(#f)"/><path d="M1273.522 92.961a15.963 15.963 0 0 0-11.323 4.705l-195.55 195.55a15.978 15.978 0 0 0 0 22.645l195.55 195.553a15.978 15.978 0 0 0 22.645 0l195.55-195.553a16.091 16.091 0 0 0 2.772-3.718v-15.205a16.104 16.104 0 0 0-2.771-3.721L1284.844 97.666a15.964 15.964 0 0 0-11.322-4.705zm0 13.219c.648 0 1.296.249 1.793.746l195.822 195.818a2.534 2.534 0 0 1 0 3.59l-195.822 195.82a2.531 2.531 0 0 1-3.588 0l-195.819-195.82a2.534 2.534 0 0 1 0-3.59l195.819-195.818a2.531 2.531 0 0 1 1.794-.746z" filter="url(#g)" opacity=".266" transform="translate(-834.772 80.433) scale(.26458)"/><rect fill="url(#h)" height="74.614" ry=".671" transform="rotate(-45)" width="74.614" x="-503.17" y="-277.733"/><path d="M-572.162 218.688h121.681v1.098h-121.681z" fill="none" stroke-linecap="round" stroke-linejoin="round" stroke-width="14.871"/><path d="M-577.817 101.892v55.152a98.685 44.373 0 0 0 67.733 12.134 98.685 44.373 0 0 0 67.733-12.134v-55.152z" fill="url(#i)" opacity=".333"/><path d="M-500.254 104.193l-1.569 1.57 1.593 1.593L-553.876 161l1.57 1.569 53.05-53.051h.005a.81.81 0 0 1 .592-.257.81.81 0 0 1 .59.257h.004l52.291 52.29 1.57-1.568-52.887-52.885.833-.833-1.568-1.57-.833.834z" fill="#fee10b"/><path d="M-499.421 103.428a4.223 4.223 0 0 0-2.996 1.245l-51.74 51.74a4.227 4.227 0 0 0 0 5.99l51.74 51.74a4.227 4.227 0 0 0 5.992 0l51.74-51.74a4.227 4.227 0 0 0 0-5.99l-51.74-51.74a4.223 4.223 0 0 0-2.996-1.245zm0 3.497c.172 0 .343.066.474.198l51.811 51.81a.67.67 0 0 1 0 .95l-51.81 51.81a.67.67 0 0 1-.95 0l-51.81-51.81a.67.67 0 0 1 0-.95l51.81-51.81a.67.67 0 0 1 .475-.198z"/><path d="M-499.185 106.648l-52.76 52.76 6.81 6.811a98.685 44.373 0 0 0 35.286 2.96 98.685 44.373 0 0 0 62.952-10.242z" fill="url(#j)" opacity=".333"/><path d="M-499.185 106.648l-52.76 52.76 6.81 6.811a98.685 44.373 0 0 0 35.286 2.96 98.685 44.373 0 0 0 62.952-10.242z" fill="#ffe600" opacity=".333"/><path d="M-518.271 179.267l37.706-37.706 11.292 11.291-37.707 37.707z" fill="#fee10b"/><path d="M-518.544 177.51l37.706-37.707 11.292 11.292-37.707 37.706z"/><path d="M-489.596-238.56h48.148v10.792h-48.148z" fill="url(#k)" transform="rotate(-45)"/><path d="M-531.313 158.604l11.292-11.292 11.292 11.292-11.292 11.291z" fill="#fee10b"/><path d="M-531.455 157.352l11.292-11.292 11.291 11.292-11.291 11.292z"/><path d="M-484.472-261.942h10.792v10.792h-10.792z" fill="url(#l)" transform="rotate(-45)"/><path d="M-512.563 139.94l11.292-11.292 11.292 11.292-11.292 11.291z" fill="#fee10b"/><path d="M-512.769 138.666l11.292-11.292 11.291 11.292-11.291 11.291z"/><path d="M-458.045-261.942h10.792v10.792h-10.792z" fill="url(#m)" transform="rotate(-45)"/><g stroke-linecap="round" stroke-linejoin="round"><circle cx="-382.237" cy="111.156" fill="#ff0" filter="url(#n)" opacity=".603" r="18.892" stroke-width="8.835" transform="translate(-334.295 50.4) scale(.59657)"/><path d="M477.55 18.133a31.893 31.893 0 0 0-27.609 16.02c22.056 4.252 39.485 21.15 44.52 42.91a31.893 31.893 0 0 0 14.982-27.038 31.893 31.893 0 0 0-31.892-31.892z" fill="#ffffbe" filter="url(#o)" opacity=".474" stroke-width="14.915" transform="translate(-579.357 99.679) scale(.26458)"/><path d="M495.935 442.055c-.305 29.935-23.483 54.18-52.968 56.181a39.032 39.032 0 0 0 30.582 14.825 39.032 39.032 0 0 0 39.033-39.034 39.032 39.032 0 0 0-16.646-31.972z" fill="#fff056" filter="url(#p)" opacity=".343" stroke-width="18.254" transform="translate(-579.357 99.679) scale(.26458)"/></g><g fill="#fff" filter="url(#q)" stroke-width="1.651" transform="translate(-418.236 68.575) scale(.32818)"><path d="M-445.93 123.197c-3.751 0-7.442.334-11.004 1.006-2.26.437-3.814 1.384-4.724 3.04-1.012 1.868-1.364 8.085-1.364 18.593 0 10.893.535 17.332 1.987 19.121 1.041 1.352 2.647 2.153 4.707 2.51 1.049.208 2.773.346 5.015.412 1.785.066 3.01.175 3.454-.268l-.577.266c4.331-.338 7.384-1.54 8.588-3.846.696-1.245.973-3.106.907-5.404 0-.98-.028-1.435-.05-2.008.34.676.672 1.334 1.13 2.442l1.775 4.535c1.16 3.015 3.917 4.424 7.941 4.283 2.647-.066 4.583-.198 5.745-.334l.02-.002h-.017c3.121-.306 4.916-2.042 4.916-5.002 0-.604-.078-1.336-.29-2.191-.9-4.04-2.975-7.845-6.036-11.473 3.5-2.285 5.336-5.863 5.336-10.768 0-9.984-7.469-14.912-21.515-14.912zm6.082 40.834l-.004.014.016-.027c-.003.005-.01.008-.012.013zm-21.187.926c-.004-.005-.012-.007-.016-.012l.02.024c-.002-.002-.002-.01-.004-.012zm27.252-29.5h.006l1.058.066c1.457.097 2.12.794 2.12 2.522 0 1.626-.984 2.541-3.766 2.719-2.822.172-4.014-.823-4.113-2.758-.054-1.232.3-1.862 1.158-2.223l.013-.006.014-.006c.669-.308 1.786-.442 3.51-.314z"/></g><path d="M-562.588 120.64c0-.499 0-.824-.022-.976-.021-.325.022-.498.109-.498.151 0 .433.498.845 1.495l.585 1.495c.325.845 1.083 1.257 2.319 1.214a22.063 22.063 0 0 0 1.863-.109c.889-.086 1.344-.541 1.344-1.343 0-.173-.022-.39-.087-.65-.303-1.365-.997-2.666-2.102-3.9 1.235-.673 1.864-1.821 1.864-3.468 0-3.055-2.254-4.594-6.761-4.594h-1.95c-1.214 0-2.406.108-3.554.325-.672.13-1.106.412-1.344.845-.282.52-.412 2.514-.412 5.96 0 3.575.195 5.612.585 6.089.282.368.737.606 1.366.715.325.065.866.108 1.603.13.585.021.889.021.91 0 1.387-.109 2.254-.477 2.579-1.105.195-.347.282-.889.26-1.626zm3.337-6.762c0 .737-.498 1.127-1.517 1.192-1.062.065-1.625-.346-1.668-1.192-.022-.498.151-.845.563-1.018.282-.13.715-.173 1.3-.13l.347.022c.65.043.975.411.975 1.126z" stroke-width="1.651"/></g></svg>