<svg clip-rule="evenodd" fill-rule="evenodd" height="1124" image-rendering="optimizeQuality" shape-rendering="geometricPrecision" text-rendering="geometricPrecision" viewBox="0 0 6695 3009" width="2500" xmlns="http://www.w3.org/2000/svg"><linearGradient id="c" gradientUnits="userSpaceOnUse" x1="367.559" x2="6246.43" y1="1190.81" y2="1190.81"><stop offset="0" stop-color="#f3a554"/><stop offset=".161" stop-color="#f2a845"/><stop offset=".388" stop-color="#f8e4b1"/><stop offset=".522" stop-color="#fefefe"/><stop offset=".659" stop-color="#f8e3ac"/><stop offset="1" stop-color="#f4a348"/></linearGradient><linearGradient id="a" gradientUnits="userSpaceOnUse" x1="751.65" x2="5902.3" y1="491.362" y2="1750.41"><stop offset="0" stop-color="#f3a554"/><stop offset=".11" stop-color="#fefefe"/><stop offset=".439" stop-color="#f3a554"/><stop offset=".58" stop-color="#fefefe"/><stop offset=".729" stop-color="#f3a554"/><stop offset=".851" stop-color="#fff"/><stop offset=".969" stop-color="#ecb780"/><stop offset="1" stop-color="#f3a554"/></linearGradient><path d="M4208 642c195-332 560-552 972-552 436 0 836 249 1020 645l52 112-674 255-48-89c-70-132-205-219-356-219-232 0-408 198-408 426s176 426 408 426c160 0 301-97 368-241l45-99 656 261-56 112c-26 52-56 102-89 149 7-1 14-1 21-1 134 0 242 108 242 242s-108 243-242 243-243-109-243-243c0-3 1-7 1-10-196 152-440 239-697 239-318 0-608-132-814-345 19 35 30 74 30 116 0 134-109 243-243 243-133 0-242-109-242-243s109-242 242-242c54 0 103 17 143 46-94-117-164-254-202-404v194h-970v610h-694v-8c-40 30-89 47-142 47-134 0-243-109-243-243 0-3 0-6 1-9-189 149-426 238-685 238-614 0-1108-501-1108-1114S747 70 1361 70c395 0 757 209 956 548l66 112-437 189h484V95h1778zm-72 147H3124v180h958c13-62 31-122 54-180zM2430 1873v-392c-34 126-90 243-164 347 7-1 14-1 22-1 53 0 102 17 142 46zm-1233-315V919h475c-77-91-190-145-311-145-225 0-406 185-406 410 0 166 99 311 242 374zm290 15h-252c40 13 82 20 126 20s86-7 126-20z" fill="#272424"/><path d="M4228 572c195-332 560-552 972-552 436 0 836 249 1020 645l52 112-674 255-48-89c-70-132-205-219-356-219-232 0-408 198-408 426s176 426 408 426c160 0 301-97 368-241l45-99 656 261-56 112c-26 53-56 102-89 149 7-1 14-1 21-1 134 0 242 109 242 242 0 134-108 243-242 243s-243-109-243-243c0-3 1-7 1-10-196 152-440 239-697 239-318 0-608-132-814-344 19 34 30 73 30 115 0 134-109 243-243 243-133 0-242-109-242-243 0-133 109-242 242-242 54 0 103 17 143 46-94-117-164-254-203-404v194h-969v610h-694v-8c-40 30-89 47-142 47-134 0-243-109-243-243 0-3 0-6 1-9-189 149-426 238-685 238-614 0-1108-501-1108-1114S767 0 1381 0c395 0 756 209 956 548l66 112-437 189h484V25h1778zm-72 147H3144v180h958c13-62 31-122 54-180zM2450 1803v-392c-34 126-91 243-164 347 7-1 14-1 22-1 53 0 102 17 142 46zm-1233-315V849h475c-77-91-190-145-311-145-225 0-406 185-406 410 0 166 99 311 242 374zm290 15h-252c40 13 82 20 126 20s86-7 126-20z" fill="url(#a)"/><path d="M6139 1872c70 0 127 57 127 127 0 71-57 128-127 128-71 0-128-57-128-128 0-70 57-127 128-127zM1381 115c365 0 684 197 857 491l-441 191c-95-126-246-208-416-208-288 0-521 235-521 525 0 289 233 524 521 524 188 0 353-100 445-250h-494V964h1032c8 49 11 99 11 150 0 551-445 999-994 999-548 0-993-448-993-999 0-552 445-999 993-999zm927 1757c70 0 127 57 127 127 0 71-57 128-127 128-71 0-128-57-128-128 0-70 57-127 128-127zM4113 140H2565v1948h465v-610h969v-464h-969V604h1083zm60 1732c71 0 128 57 128 127 0 71-57 128-128 128-70 0-127-57-127-128 0-70 57-127 127-127zM5200 135c407 0 757 237 916 578l-464 176c-90-167-261-279-458-279-289 0-523 242-523 540 0 299 234 541 523 541 208 0 388-126 472-308l438 175c-163 328-507 555-904 555-556 0-1007-443-1007-989s451-989 1007-989z" fill="#272424"/><g><path d="M6119 1942c70 0 127 57 127 127 0 71-57 128-127 128-71 0-128-57-128-128 0-70 57-127 128-127zM1361 185c365 0 684 197 857 491l-441 191c-95-126-246-208-416-208-288 0-521 235-521 525 0 289 233 524 521 524 188 0 353-100 445-250h-494v-424h1032c8 49 11 99 11 150 0 551-445 999-994 999-548 0-993-448-993-999 0-552 445-999 993-999zm927 1757c70 0 127 57 127 127 0 71-57 128-127 128-71 0-128-57-128-128 0-70 57-127 128-127zM4094 210H2545v1948h465v-610h969v-464h-969V674h1084zm59 1732c71 0 128 57 128 127 0 71-57 128-128 128-70 0-127-57-127-128 0-70 57-127 127-127zM5180 205c407 0 757 237 916 578l-464 176c-90-167-261-279-458-279-289 0-523 242-523 540 0 299 234 541 523 541 208 0 388-126 472-308l438 175c-163 328-507 555-904 555-556 0-1007-443-1007-989s451-989 1007-989z" fill="url(#c)"/></g><path d="M6139 1872c70 0 127 57 127 127 0 71-57 128-127 128-71 0-128-57-128-128 0-70 57-127 128-127zM1381 115c365 0 684 197 857 491l-441 191c-95-126-246-208-416-208-288 0-521 235-521 525 0 289 233 524 521 524 188 0 353-100 445-250h-494V964h1032c8 49 11 99 11 150 0 551-445 999-994 999-548 0-993-448-993-999 0-552 445-999 993-999zm927 1757c70 0 127 57 127 127 0 71-57 128-127 128-71 0-128-57-128-128 0-70 57-127 128-127zM4113 140H2565v1948h465v-610h969v-464h-969V604h1083zm60 1732c71 0 128 57 128 127 0 71-57 128-128 128-70 0-127-57-127-128 0-70 57-127 127-127zM5200 135c407 0 757 237 916 578l-464 176c-90-167-261-279-458-279-289 0-523 242-523 540 0 299 234 541 523 541 208 0 388-126 472-308l438 175c-163 328-507 555-904 555-556 0-1007-443-1007-989s451-989 1007-989z" fill="none"/><path d="M0 2444h6631v565H0z" fill="#272424"/><path d="M64 2388h6631v566H64z" fill="#ed3237"/><path d="M690 2886v-442h293v78H776v118h173v79H776v167zm5211 6c-62 0-115-24-161-71l53-64c16 17 33 31 53 41 20 9 39 14 57 14 21 0 36-4 47-13 11-8 16-20 16-34 0-15-5-27-16-35-11-9-31-18-61-28-15-5-29-10-40-15s-23-11-35-19c-13-8-23-16-31-25s-15-20-20-34c-5-13-8-28-8-44 0-36 14-66 42-90 27-24 61-37 101-37 54 0 103 19 149 56l-51 66c-36-29-68-43-97-43-15 0-28 3-38 11s-15 19-15 33c0 13 5 23 16 30 10 8 30 17 59 28 45 18 75 32 89 42 32 21 48 53 48 94 0 30-8 57-25 78-16 21-36 36-59 45s-47 14-73 14zm-1748-6v-442h86l199 298h1v-298h87v442h-88l-196-292h-2v292zm-1866 0l164-442h85l164 442h-92l-30-88h-170l-30 88zm146-163h120l-59-173h-2z" fill="#fefefe"/></svg>