<svg height="112" viewBox="-2.1 -.5 376.5 84.8" width="374pt" xmlns="http://www.w3.org/2000/svg"><path d="m165.8 1.1c-2.1 1.2-2.4 5.9-.6 7.7 2.1 2.1 7.5 1.5 9.2-1 2-2.9 2-3.4-.4-5.8-2.2-2.2-5.5-2.5-8.2-.9zm-129.8.4c0 .3 4.4 6.7 9.8 14.2l9.7 13.7.3-6.7.3-6.7h15.5c17.4 0 21.3.9 23.8 5.9 2.7 5.1 2.1 9.8-1.8 13.7l-3.4 3.4h-13.6c-7.5 0-13.6.2-13.6.5s6.8 10.2 15.2 22l15.2 21.5h9.4c5.1 0 9.2-.3 9-.8-.1-.4-4.5-6.6-9.5-13.7-5.1-7.2-9.2-13.5-9.1-14 .1-.6 1.7-1.5 3.5-2.1 7.2-2.5 13.5-8.6 15.9-15.2 2-5.7 1.7-15-.7-20.2-2.6-5.8-6.2-9.6-12.4-12.8l-5-2.7-29.2-.3c-16.1-.2-29.3-.1-29.3.3zm143.7 1.2c-.4.3-.7 9.1-.7 19.5v18.8h3.9c2.2 0 4.1-.5 4.3-1.1.3-.8 1.4-.7 3.5.5 6.6 3.4 15.1.9 18.5-5.5 2.4-4.4 2.4-12.4 0-16.8-3.1-5.8-11.9-8.9-17.3-6.1-1.8 1-1.9.7-1.9-4.5v-5.5h-4.8c-2.7 0-5.2.3-5.5.7zm18.7 19.5c.9 1.2 1.6 3.2 1.6 4.3s-.7 3.1-1.6 4.3c-3 4.4-8.4 1.7-8.4-4.3s5.4-8.7 8.4-4.3zm16.6-19.8c-.3.2-.4 9-.2 19.5l.3 19.1h3.4c1.9 0 3.7-.4 4-1 .4-.6 1.8-.4 3.7.6 3.7 1.9 10.5 1.4 14.3-1 3.6-2.4 5.8-7.3 5.8-13.1 0-11.5-8.3-17.8-19.2-14.4-1 .3-1.4-.9-1.5-4.6l-.1-5-5-.3c-2.8-.2-5.3-.1-5.5.2zm18.2 19.3c3.5 3.2 1.3 11.3-3.2 11.3-2.7 0-4-2.2-4-6.5 0-6.2 3.3-8.4 7.2-4.8zm-210.1-15.6c-15.9 8-25.2 25.4-22.2 41.6 1.6 8.9 4.5 14.5 10.9 21.4 6.1 6.7 14.5 11.3 23.3 12.9 3 .6 15.9.9 28.6.8l23-.3-15.4-21.7-15.5-21.8h-28l3.8 5.2c2.1 2.9 4.5 6.3 5.4 7.5 1.3 1.9 2.4 2.2 7.7 2.3h6.3l4.5 6.2c2.5 3.4 4.5 6.6 4.5 7.1 0 1.6-22 .2-26.5-1.7-11.9-5.1-18.1-19-14.3-31.8 1.7-5.8 8.8-13.3 14.6-15.4 2.6-1 4.9-1.9 5.1-2 .5-.4-8.2-13.3-9-13.4-.3 0-3.4 1.4-6.8 3.1zm116.9-1.9c-8.9 2.5-13.6 10.1-12.8 20.7.5 7.3 4 12.4 10.6 15.3 5.3 2.4 13.8 2.1 19-.6l3.2-1.7v-18.9h-8c-7.8 0-8 .1-8 2.4 0 3.9 1.1 5.6 3.5 5.6 3.1 0 4.1 1.8 2.2 3.7-2.1 2.1-7.1.8-9.7-2.4-4.8-6.1-.8-14.3 7-14.3 2.3 0 5 .5 6.1 1 1.6.9 2.1.7 2.9-1.5 2.7-7 2.6-7.2-3.1-8.9-5.9-1.8-7.9-1.9-12.9-.4zm117 8.7c-1.9 1-4.3 2.9-5.3 4.3-2.5 3.3-3.3 10.5-1.7 15.2 3.9 11.8 23.8 12.8 29 1.4 2.5-5.4 2.5-9.2.1-14.5-3.4-7.5-14.3-10.6-22.1-6.4zm11.8 9.4c1.5 1.2 1.6 6.9 0 8.5-2 2-6.5 1.4-8.2-1-2.2-3.1-2-4.5.8-7.3 2.5-2.5 4.4-2.5 7.4-.2zm26-9.9c-1.6.8-2.8 1.1-2.8.5 0-.5-1.8-.9-4-.9h-4v29h10.9l.3-9.1c.2-7.4.6-9.4 2-10.3 3.1-1.9 4.1.6 3.9 10.4l-.2 9.1 5.6-.3c3-.2 5.5-.6 5.5-1.1v-11.8c0-10.9 0-11.1-2.9-14-2.4-2.3-3.8-2.9-7.3-2.9-2.4 0-5.5.7-7 1.4zm26.7-.5c-5 2.1-7.2 7.4-5.2 12.4 1.1 2.6 2.6 3.9 6.1 5.3 7.5 3.1 5.1 5.9-2.5 2.9-1.1-.4-2 .3-2.9 2.4-1.5 3.7-.9 4.8 3.8 6.1 11.2 3.1 20-2.6 17.6-11.3-.7-2.4-2.2-3.9-6.2-6-2.9-1.6-5.2-3.3-5.2-3.9 0-1 4.1-.7 7.1.6 1.1.5 2-.3 3.1-2.8l1.7-3.4-4-1.6c-4.2-1.7-10.1-2-13.4-.7zm-157.5 14.6v14.5h11v-29h-11zm173 37v19.5h11v-39h-11zm-209 1.1v18.5l5.2-.3 5.2-.3-.3-6.3c-.1-3.4.2-6.2.7-6.2.4 0 2.2 2.8 3.8 6.2l2.9 6.3 6.3.3c3.4.2 6.2-.1 6.2-.5s-1.8-3.7-4-7.2l-3.9-6.4 2.9-3.4c2.3-2.6 3-4.3 3-7.6 0-8.7-4.7-11.7-18.5-11.7h-9.5zm16.5-6.6c0 2.1-.5 2.6-3.2 2.8-2.9.3-3.3 0-3.3-2.1 0-3.1.9-3.9 4-3.5 1.9.2 2.5.9 2.5 2.8zm21.8-3.1c-4.4 2.8-6.7 7.5-6.6 13.8 0 6 1.9 9.4 6.6 12.4 2.6 1.6 4.6 1.9 10.3 1.7 8.6-.4 10.7-1.7 9.2-5.9-1.3-3.8-1.8-4-6.1-2.7-2.7.8-4.3.8-6.2 0-4.8-2.2-2.7-3.2 6.5-3.2h9v-3.5c0-4.4-2-9.4-4.9-12-3.3-2.9-13.6-3.3-17.8-.6zm11.1 7.7c2.2 2.2 1.1 3.4-3 3.4-3.8 0-4.7-2.2-1.6-3.9 2.3-1.4 2.8-1.4 4.6.5zm15.6-9.1c0 .3-.1 6.9-.1 14.7v14.3h10.4l-.2-8.5c-.2-7.5 0-8.8 1.8-10.4 1.7-1.5 2.3-1.6 3.6-.6 1.1.9 1.5 3.5 1.5 10.6v9.4h11v-9.5c0-8.6.2-9.5 2.1-10.6 1.2-.6 2.5-.7 3-.2.4.4.9 5.1 1.1 10.3l.3 9.5 5.3.3 5.2.3v-12.1c0-12.1 0-12.2-2.9-15.1-2.5-2.4-3.8-2.9-7.9-2.9-3.3 0-5.7.6-7.2 1.8-2.3 1.8-2.4 1.8-4.2 0-2.1-2.1-9.6-2.5-13.1-.7-1.6.9-2.2.9-2.5 0-.3-1-7.2-1.6-7.2-.6zm55.3 1.5c-8.9 5.4-8.9 20.5 0 26.1 4.7 3 15.5 2.3 19.2-1.1 8-7.5 7.2-19.6-1.7-25-4.4-2.7-13.1-2.7-17.5 0zm13.7 10.2c1.3 2.5 1.3 3.1 0 5.5-3 5.4-10 3.4-10-2.7s7-8.1 10-2.8zm11.2-11c.3.7 2.6 7.5 5.3 15.1l4.8 13.8 6-.3 6.1-.3 4.7-13.5c2.7-7.4 4.8-14.1 4.8-14.8.1-1-1.4-1.2-5.6-1l-5.7.3-2 7.7c-1.1 4.3-2.2 7.8-2.6 7.8-.3 0-1.1-2.6-1.9-5.7-2.4-10.4-2.3-10.3-8.7-10.3-4.1 0-5.5.3-5.2 1.2zm37 .3-3.2 1.4 1.6 3.5c1.7 3.4 1.7 3.4 6.9 2.9 4.8-.5 5.3-.4 6 1.6.9 3 .3 3.4-2.8 2-3.3-1.5-9.2-.4-11.8 2.2-2.8 2.8-2.6 9.3.6 12.4 1.9 2 3.4 2.5 7.7 2.5 2.9 0 6-.4 6.8-1 .9-.5 1.9-.5 2.7.1.6.6 2.7.9 4.5.7l3.3-.3v-10c0-11.4-1.4-15.9-5.6-18-3.5-1.9-12.4-1.9-16.7 0zm11.3 19.5c0 1.8-3.3 2.6-4.7 1.2-.6-.6-.7-1.5-.3-2.2 1-1.6 5-.8 5 1zm34.3-19.5c-1.5.9-3.1 3-3.8 5-1.6 4.8.3 8.4 6 11.3 2.5 1.2 4.6 2.6 4.8 3.1.6 1.7-1.5 2.1-4.8 1-3.5-1.3-4.5-.7-5.5 3.2-.6 2.3-.2 2.8 2.6 3.8 6.9 2.4 16.7.6 18.3-3.4.3-.9.6-3.4.6-5.4 0-4.3-1.7-6.2-7.3-8.6-5.9-2.5-4.7-5.2 1.4-3.1 3.6 1.3 3.6 1.2 4.8-1.9 1.5-4.2 1.5-4.2-2-5.4-4.4-1.5-11.9-1.3-15.1.4z"/></svg>