<svg height="-441" viewBox="14.3 248.5 566.6 151" width="2500" xmlns="http://www.w3.org/2000/svg" xmlns:xlink="http://www.w3.org/1999/xlink"><linearGradient id="a" gradientUnits="userSpaceOnUse" x1="14.341" x2="127.799" y1="304.625" y2="304.625"><stop offset="0" stop-color="#26335f"/><stop offset=".006" stop-color="#26335f"/><stop offset=".046" stop-color="#26335f"/><stop offset=".1" stop-color="#293e6b"/><stop offset=".203" stop-color="#2d5181"/><stop offset=".303" stop-color="#316091"/><stop offset=".399" stop-color="#336a9c"/><stop offset=".484" stop-color="#346da0"/><stop offset=".552" stop-color="#3076a6"/><stop offset=".74" stop-color="#238bb2"/><stop offset=".896" stop-color="#1797b9"/><stop offset="1" stop-color="#119cbb"/><stop offset="1" stop-color="#346da0"/></linearGradient><linearGradient id="b" gradientUnits="userSpaceOnUse" x1="14.341" x2="168.154" y1="324.34" y2="324.34"><stop offset="0" stop-color="#439cd7"/><stop offset=".134" stop-color="#4299d3"/><stop offset=".257" stop-color="#3e90c8"/><stop offset=".376" stop-color="#3980b6"/><stop offset=".493" stop-color="#336c9f"/><stop offset=".608" stop-color="#2e5484"/><stop offset=".72" stop-color="#283b68"/><stop offset=".788" stop-color="#232c57"/><stop offset="1" stop-color="#232c57"/></linearGradient><path d="m127.8 249.2v40h-73.1l.6 70.1-41 .7v-83s0-25.9 22.9-27.2z" fill="url(#a)"/><path d="m14.3 399.5v-40.1l113.5.1-.7-110.1 41.1-.2v122.5s0 25.9-22.9 27.2z" fill="url(#b)"/><path d="m24.6 381v-3.1h5.6v6.8c0 1.7-.6 3.1-1.7 4.1-1.1 1.1-2.5 1.6-4.1 1.6s-3-.5-4-1.5c-1.1-1-1.6-2.4-1.6-4.1v-12.1c0-1.7.6-3.1 1.7-4.2s2.5-1.6 4.1-1.6 3 .5 4 1.5c1.1 1 1.6 2.4 1.6 4.1v2.7h-4v-2.6c0-.6-.2-1.1-.5-1.4s-.7-.5-1.2-.5-.9.2-1.3.5c-.3.3-.5.8-.5 1.4v12.2c0 .6.2 1.1.5 1.5s.7.5 1.3.5c.5 0 1-.2 1.3-.5.3-.4.5-.9.5-1.5v-3.8zm17.4 8.7h-8.5v-22.8h4v18.9h4.5zm3.8-4.8v-12.1c0-1.7.6-3.1 1.7-4.2s2.5-1.6 4.1-1.6 3 .5 4 1.5c1.1 1 1.6 2.4 1.6 4.1v12.1c0 1.7-.6 3.1-1.7 4.1-1.1 1.1-2.5 1.6-4.1 1.6s-3-.5-4-1.5c-1.1-1-1.6-2.3-1.6-4zm3.9-12.2v12.1c0 .6.2 1.1.5 1.4s.7.5 1.3.5c.5 0 .9-.2 1.2-.5s.5-.8.5-1.4v-12.1c0-.6-.2-1.1-.5-1.4s-.7-.5-1.2-.5-.9.2-1.3.5c-.3.3-.5.8-.5 1.4zm11.2 17v-22.8h5.6c1.6 0 3 .5 4 1.4s1.5 2.3 1.5 4v.7c0 2.1-.8 3.7-2.3 4.6 1.8.9 2.6 2.5 2.6 4.8v1.6c0 1.7-.5 3.1-1.5 4.1s-2.4 1.5-4.1 1.5h-5.8zm4-19.5v6.2h1.1c1.3 0 2-.8 2-2.3v-1.6c0-1.5-.7-2.3-2-2.3zm0 9.3v6.9h1.4c1.3 0 2-.8 2-2.3v-2.3c0-1.5-.7-2.3-2-2.3zm17.8-12.6 4.4 22.8h-3.9l-.8-4.4h-3.6l-.7 4.4h-3.9l4.2-22.8zm-2.2 7.1-1.3 8.1h2.6zm18.3 15.7h-8.5v-22.8h4v18.9h4.5zm11.2 0v-22.8h4.1v22.8zm15.6 0-4.6-14.1v14.1h-3.5v-22.8h3.7l4.3 13.3v-13.3h3.5v22.8zm15.9-8.7h-3.8v8.7h-4v-22.8h8.8v3.9h-4.8v6.3h3.8zm3.9 3.9v-12.1c0-1.7.6-3.1 1.7-4.2s2.5-1.6 4.1-1.6 3 .5 4 1.5c1.1 1 1.6 2.4 1.6 4.1v12.1c0 1.7-.6 3.1-1.7 4.1-1.1 1.1-2.5 1.6-4.1 1.6s-3-.5-4-1.5-1.6-2.3-1.6-4zm4-12.2v12.1c0 .6.2 1.1.5 1.4s.7.5 1.3.5c.5 0 .9-.2 1.2-.5s.5-.8.5-1.4v-12.1c0-.6-.2-1.1-.5-1.4s-.7-.5-1.2-.5-.9.2-1.3.5c-.3.3-.5.8-.5 1.4z" fill="#fff"/><path d="m203.9 288.8v-8.8h16.1v19.5c0 4.8-1.6 8.7-4.7 11.7-3.2 3-7.1 4.5-11.7 4.5s-8.5-1.5-11.5-4.4-4.6-6.8-4.6-11.6v-34.5c0-4.9 1.6-8.8 4.7-11.8 3.2-3 7.1-4.5 11.7-4.5s8.5 1.5 11.5 4.4 4.6 6.8 4.6 11.6v7.7h-11.4v-7.6c0-1.7-.4-3.1-1.3-4.1s-2-1.5-3.5-1.5-2.7.5-3.6 1.5-1.3 2.4-1.3 4.1v34.7c0 1.8.5 3.2 1.4 4.2s2.1 1.5 3.6 1.5 2.8-.5 3.7-1.5 1.4-2.4 1.4-4.2v-11h-5.1zm49.5 24.7h-24.1v-65h11.3v53.8h12.8zm10.7-13.8v-34.5c0-4.9 1.6-8.8 4.7-11.8 3.2-3 7.1-4.5 11.7-4.5s8.5 1.5 11.5 4.4 4.6 6.8 4.6 11.6v34.6c0 4.8-1.6 8.7-4.7 11.7-3.2 3-7.1 4.5-11.7 4.5s-8.5-1.5-11.5-4.4-4.6-6.8-4.6-11.6zm11.4-34.7v34.5c0 1.7.4 3.1 1.3 4.1s2.1 1.5 3.6 1.5 2.7-.5 3.5-1.5c.9-1 1.3-2.4 1.3-4.1v-34.5c0-1.7-.4-3.1-1.3-4.1s-2-1.5-3.5-1.5-2.7.5-3.6 1.5-1.3 2.4-1.3 4.1zm31.9 48.5v-65h16c4.7 0 8.5 1.3 11.3 4s4.3 6.5 4.3 11.5v2.1c0 6.1-2.2 10.5-6.6 13.2 5 2.5 7.5 7.1 7.5 13.7v4.6c0 5-1.5 8.8-4.4 11.6s-6.8 4.2-11.6 4.2h-16.5zm11.3-55.5v17.6h3.1c3.8 0 5.8-2.2 5.8-6.5v-4.6c0-4.3-1.9-6.5-5.8-6.5zm0 26.4v19.6h4c3.8 0 5.8-2.2 5.8-6.5v-6.6c0-4.3-1.9-6.5-5.8-6.5zm50.9-35.9 12.4 65h-11.2l-2.3-12.6h-10.4l-1.9 12.6h-11l11.9-65zm-6.4 20.1-3.6 23.1h7.3zm52.2 44.9h-24.1v-65h11.3v53.8h12.8zm32 0v-65h11.6v65zm44.5 0-13.1-40.1v40.1h-9.9v-65h10.7l12.4 37.8v-37.8h9.9v65zm45.2-24.9h-11v24.9h-11.3v-65h25.1v11.2h-13.7v18h11v10.9zm11.3 11.1v-34.5c0-4.9 1.6-8.8 4.7-11.8 3.2-3 7.1-4.5 11.7-4.5s8.5 1.5 11.5 4.4 4.6 6.8 4.6 11.6v34.6c0 4.8-1.6 8.7-4.7 11.7-3.2 3-7.1 4.5-11.7 4.5s-8.5-1.5-11.5-4.4-4.6-6.8-4.6-11.6zm11.4-34.7v34.5c0 1.7.4 3.1 1.3 4.1s2.1 1.5 3.6 1.5 2.7-.5 3.5-1.5c.9-1 1.3-2.4 1.3-4.1v-34.5c0-1.7-.4-3.1-1.3-4.1s-2-1.5-3.5-1.5-2.7.5-3.6 1.5-1.3 2.4-1.3 4.1zm-369.4 85.4v1.2c0 .5.1.8.4 1.1.2.3.6.4 1 .4s.7-.1.9-.4.4-.6.4-1c0-.6-.2-1.2-.5-1.7-.4-.5-1-1.3-2-2.2-1.9-1.7-2.9-3.5-2.9-5.2 0-1.2.4-2.2 1.2-2.9s1.8-1.1 3.1-1.1c1.2 0 2.2.4 3 1.1s1.2 1.6 1.2 2.8v1.1h-3v-1c0-.4-.1-.8-.3-1s-.5-.4-.9-.4-.7.1-.9.3-.3.5-.3.9c0 .5.2 1 .5 1.5s1 1.2 2 2.1 1.8 1.8 2.3 2.7.7 1.8.7 2.8c0 1.2-.4 2.2-1.3 3s-1.9 1.1-3.2 1.1c-1.2 0-2.2-.4-3-1.1s-1.2-1.7-1.2-2.9v-1.4h2.8zm12.7 1.6v-5.2c0-1.1.4-2 1.2-2.8s1.8-1.1 2.9-1.1 2.1.3 2.9 1 1.2 1.6 1.2 2.7v5.2c0 1.1-.4 2-1.2 2.8-.8.7-1.8 1.1-2.9 1.1s-2.1-.3-2.9-1-1.2-1.6-1.2-2.7zm2.9-5.2v5.2c0 .4.1.7.3.9s.5.3.9.3.6-.1.9-.3c.2-.2.3-.5.3-.9v-5.2c0-.4-.1-.7-.3-.9s-.5-.3-.9-.3-.6.1-.9.3c-.2.2-.3.5-.3.9zm12.9 8.7v-16.7h2.9v16.7zm15.8-3.5v-8.8h2.9v12.3h-2.5l-.1-1.2c-.5 1-1.4 1.5-2.6 1.5-.9 0-1.5-.3-2.1-.9-.5-.6-.8-1.4-.8-2.5v-9.2h2.9v8.8c0 .8.4 1.2 1.1 1.2.4 0 .6-.1.9-.3.2-.2.3-.5.3-.9zm9.7-6.5v-2.3h1.4v-3h2.9v3h2.1v2.3h-2.1v6.5c0 .8.4 1.2 1.2 1.2h.9v2.4c-.5.1-1 .2-1.6.2-1 0-1.8-.3-2.4-.8s-.9-1.3-.9-2.3v-7.1h-1.5zm13.9-6.6c.4-.3.8-.5 1.3-.5s.9.2 1.3.5.5.8.5 1.2-.2.9-.5 1.2c-.4.3-.8.5-1.3.5s-.9-.2-1.3-.5-.5-.7-.5-1.2.1-.9.5-1.2zm-.2 16.6v-12.3h2.9v12.3zm10.5-3.5v-5.2c0-1.1.4-2 1.2-2.8.8-.7 1.8-1.1 2.9-1.1s2.1.3 2.9 1 1.2 1.6 1.2 2.7v5.2c0 1.1-.4 2-1.2 2.8-.8.7-1.8 1.1-2.9 1.1s-2.1-.3-2.9-1-1.2-1.6-1.2-2.7zm2.9-5.2v5.2c0 .4.1.7.3.9s.5.3.9.3.6-.1.9-.3c.2-.2.3-.5.3-.9v-5.2c0-.4-.1-.7-.3-.9s-.5-.3-.9-.3-.6.1-.9.3c-.2.2-.3.5-.3.9zm15.7-.1v8.8h-2.9v-12.3h2.5l.1 1.2c.5-1 1.4-1.5 2.6-1.5.9 0 1.5.3 2.1.9.5.6.8 1.4.8 2.5v9.2h-2.9v-8.8c0-.8-.4-1.2-1.1-1.2-.4 0-.6.1-.9.3-.2.2-.3.5-.3.9zm17.4.2v-.4c0-.3-.1-.6-.3-.8s-.5-.3-.8-.3-.6.1-.8.3-.3.4-.3.7.1.7.4.9c.3.3.8.6 1.6 1 2 1 3 2.2 3 3.9 0 1.1-.4 1.9-1.2 2.6s-1.7 1-2.9 1c-1.1 0-2.1-.3-2.9-1s-1.2-1.6-1.2-2.7v-.5h2.8v.5c0 .4.1.7.3.9s.5.3.9.3.6-.1.9-.3c.2-.2.3-.5.3-.9s-.1-.7-.4-1-.9-.6-1.8-1.1c-1.9-.9-2.8-2.2-2.8-3.8 0-1 .4-1.8 1.1-2.4.8-.6 1.7-1 2.8-1s2 .3 2.8 1c.7.7 1.1 1.5 1.1 2.5v.4h-2.6zm21.3-8c.4-.3.8-.5 1.3-.5s.9.2 1.3.5.5.8.5 1.2-.2.9-.5 1.2c-.4.3-.8.5-1.3.5s-.9-.2-1.3-.5-.5-.7-.5-1.2.2-.9.5-1.2zm-.2 16.6v-12.3h2.9v12.3zm13.7-8.8v8.8h-2.9v-12.3h2.5l.1 1.2c.5-1 1.4-1.5 2.6-1.5.9 0 1.5.3 2.1.9.5.6.8 1.4.8 2.5v9.2h-2.9v-8.8c0-.8-.4-1.2-1.1-1.2-.4 0-.6.1-.9.3-.2.2-.3.5-.3.9zm11.9-1.2v-2.3h1.4v-1.5c0-1 .3-1.8.9-2.3s1.4-.8 2.4-.8h.8c.3 0 .5.1.6.1h.2v2.3h-.9c-.8 0-1.2.4-1.2 1.2v.9h2v2.3h-2v10h-2.9v-10h-1.3zm13 6.5v-5.2c0-1.1.4-2 1.2-2.8.8-.7 1.8-1.1 2.9-1.1s2.1.3 2.9 1 1.2 1.6 1.2 2.7v5.2c0 1.1-.4 2-1.2 2.8-.8.7-1.8 1.1-2.9 1.1s-2.1-.3-2.9-1-1.2-1.6-1.2-2.7zm2.9-5.2v5.2c0 .4.1.7.3.9s.5.3.9.3.6-.1.9-.3c.2-.2.3-.5.3-.9v-5.2c0-.4-.1-.7-.3-.9s-.5-.3-.9-.3-.6.1-.9.3c-.2.2-.3.5-.3.9zm18.3-3.8v3.2h-.6c-1.4 0-2.1.7-2.1 2v7.4h-2.9v-12.3h2.5l.2 1.7c.5-1.4 1.5-2 2.9-2zm9.8 3.7v8.8h-2.9v-12.3h2.5l.1 1.2c.5-1 1.3-1.5 2.5-1.5s2 .5 2.5 1.5c.5-1 1.3-1.5 2.5-1.5.9 0 1.5.3 2 .9s.8 1.4.8 2.5v9.2h-2.9v-8.8c0-.8-.3-1.2-1-1.2-.3 0-.6.1-.8.3s-.3.5-.3.9v8.8h-2.9v-8.8c0-.8-.3-1.2-1-1.2-.8 0-1.1.4-1.1 1.2zm17.2 5.5v-.5c0-1.1.3-1.9.9-2.6s1.4-1 2.4-1c.9 0 1.6.3 2.1.9v-2.5c0-.3-.1-.6-.3-.8s-.5-.3-.8-.3-.6.1-.8.3-.3.5-.3.8v.7h-2.7v-.5c0-1.1.4-2 1.1-2.7.8-.7 1.7-1 2.8-1s2 .3 2.8 1c.7.7 1.1 1.5 1.1 2.6v8.9h-2.5l-.1-1.1c-.6.9-1.4 1.4-2.5 1.4-1 0-1.8-.3-2.3-.9-.6-.7-.9-1.6-.9-2.7zm2.9-.7v.7c0 .4.1.7.3 1 .2.2.5.4.9.4s.7-.1.9-.4c.2-.2.3-.6.3-1v-.7c0-.4-.1-.7-.3-1-.2-.2-.5-.4-.9-.4s-.7.1-.9.4-.3.6-.3 1zm12.1-6v-2.3h1.4v-3h2.9v3h2.1v2.3h-2.1v6.5c0 .8.4 1.2 1.2 1.2h.9v2.4c-.5.1-1 .2-1.6.2-1 0-1.8-.3-2.4-.8s-.9-1.3-.9-2.3v-7.1h-1.5zm13.9-6.6c.4-.3.8-.5 1.3-.5s.9.2 1.3.5.5.8.5 1.2-.2.9-.5 1.2c-.4.3-.8.5-1.3.5s-.9-.2-1.3-.5-.5-.7-.5-1.2.1-.9.5-1.2zm-.2 16.6v-12.3h2.9v12.3zm18.7-12.3v16.1h-2.9v-4.5c-.5.6-1.2.9-2.1.9s-1.7-.3-2.3-.9-.9-1.4-.9-2.4v-6c0-1 .3-1.9.9-2.5s1.4-.9 2.3-.9c1.1 0 1.9.4 2.3 1.2l.1-1zm-5.3 3.6v5.2c0 .4.1.7.3.9s.5.3.9.3.6-.1.9-.3c.2-.2.3-.5.3-.9v-5.2c0-.4-.1-.7-.3-.9s-.5-.3-.9-.3-.6.1-.9.3c-.2.2-.3.5-.3.9zm18 5.2v-8.8h2.9v12.3h-2.5l-.1-1.2c-.5 1-1.4 1.5-2.6 1.5-.9 0-1.5-.3-2.1-.9-.5-.6-.8-1.4-.8-2.5v-9.2h2.9v8.8c0 .8.4 1.2 1.1 1.2.4 0 .6-.1.9-.3.2-.2.3-.5.3-.9zm15.7-.1v-.8h2.7v.9c0 1.1-.4 2-1.2 2.7s-1.7 1.1-2.8 1.1-2-.3-2.8-1-1.1-1.6-1.1-2.7v-5.4c0-1.1.4-2 1.2-2.7s1.7-1 2.8-1 2 .3 2.8 1 1.1 1.6 1.1 2.6v3.1h-5.1v2.2c0 .4.1.7.3.9s.5.3.9.3.6-.1.9-.3c.2-.2.3-.5.3-.9zm-2.4-5.4v1.4h2.4v-1.4c0-.4-.1-.7-.3-.9s-.5-.3-.9-.3-.6.1-.9.3c-.2.2-.3.5-.3.9z" fill="#222b54"/></svg>