<svg height="615" width="2500" xmlns="http://www.w3.org/2000/svg" viewBox="48.5 31.866 2124.9549999999995 469.96999999999997"><g fill-rule="evenodd"><path d="M664 142.017c-44.991 5.385-79.862 36.599-91.228 81.66-1.893 7.503-2.225 11.515-2.222 26.823.004 15.474.332 19.333 2.34 27.5 5.062 20.594 15.038 38.641 28.816 52.132 9.472 9.276 15.715 13.586 28.794 19.88 11.733 5.647 19.148 7.655 33.5 9.072 16.678 1.646 33.999-.89 47.315-6.927 6.923-3.14 21.751-12.327 23.716-14.695.668-.804 1.496-1.463 1.841-1.463.346-.001.628 4.386.628 9.75v9.751l13.759.278 13.759.279-.259-53.279-.259-53.278h-62v26l17.25.274 17.25.273v28.785l-6.134 5.551c-6.943 6.283-24.818 15.749-34.13 18.075-24.873 6.212-51.475-.485-70.313-17.703-9.495-8.677-18.339-23.764-22.132-37.755-2.534-9.347-2.488-37.787.075-47 2.316-8.323 9.332-21.885 15.127-29.242 8.44-10.714 23.822-20.453 38.507-24.38 10.051-2.688 34.869-2.436 45.5.462 9.098 2.479 21.958 8.366 30.133 13.792 3.216 2.135 5.829 3.272 6.21 2.703.361-.541 3.755-5.531 7.541-11.089 4.302-6.315 6.658-10.694 6.281-11.675-.704-1.835-11.555-9.006-20.165-13.326-18.018-9.04-47.709-13.837-69.5-11.228m403.147 10.233c-2.806 3.988-8.837 12.425-13.402 18.75-11.483 15.911-60.29 83.951-70.463 98.23l-8.358 11.731.288 9.269.288 9.27 50.75.259 50.75.259V356h14.893c12.658 0 14.984-.237 15.5-1.582.334-.87.607-13.457.607-27.972v-26.39l13.75-.278 13.75-.278.28-12.75.28-12.75H1108v-62.918c0-34.605-.273-63.63-.607-64.5-.521-1.358-3.051-1.582-17.875-1.582h-17.268zm108.527-6.591c-.371.371-.674 47.849-.674 105.508V356h128v-27h-97.027l.263-32.75.264-32.75 37.25-.262 37.25-.262v-26.952l-37.25-.262-37.25-.262-.264-31.74-.264-31.74 46.264-.26 46.264-.26v-26l-61.076-.258c-33.591-.141-61.379.046-61.75.417m490.769.629c-.283.738-.384 41.587-.223 90.777l.291 89.435 2.344 6.942c1.939 5.742 3.42 8.018 8.57 13.168 8.22 8.22 15.292 10.609 30.131 10.179l9.944-.289.278-13.105.278-13.104-6.209-.649c-7.161-.749-10.093-2.358-12.576-6.901-1.645-3.01-1.807-9.439-2.271-90.241l-.5-87-14.771-.277c-11.627-.218-14.881.009-15.286 1.065m-592.566 40.536c-1.443 2.572-11.089 15.926-21.437 29.676-36.088 47.956-42.44 56.485-42.44 56.991 0 .28 14.864.509 33.031.509 25.503 0 33.141-.285 33.511-1.25.264-.687.362-21.354.219-45.926l-.261-44.675zm-209.198 14.209c-14.364 1.718-32.318 9.003-42.901 17.408-13.188 10.473-24.11 28.238-27.35 44.486-2.298 11.523-1.561 30.691 1.56 40.573 6.753 21.376 22.976 39.727 43.379 49.068 14.571 6.67 37.811 8.846 54.133 5.066 32.291-7.477 56.006-32.164 61.566-64.091 1.851-10.63.733-28.315-2.375-37.553-7.621-22.659-22.846-39.137-44.875-48.571-13.783-5.902-28.71-8.112-43.137-6.386m693.711.047c-13.927 1.643-27.962 9.233-36.939 19.979l-3.38 4.045-.285-10.302-.286-10.302h-27l-.255 105.25-.254 105.25H1520v-77.914l4.658 4.98c6.444 6.889 15.291 12.547 23.722 15.172 9.168 2.855 26.066 3.011 34.975.325 22.092-6.662 36.813-21.006 45.738-44.563 5.165-13.634 6.708-38.449 3.388-54.5-2.007-9.708-7.359-22.971-12.231-30.311-13.304-20.044-36.305-30.123-61.86-27.109m249.058-.027c-23.74 2.876-45.55 15.619-58.098 33.947-9.555 13.956-13.419 26.892-13.451 45.039-.025 13.841 2.109 23.146 8.134 35.461 7.779 15.901 21.877 29.533 38.334 37.068 19.796 9.062 49.172 9.148 69.427.202 5.124-2.263 18.27-10.659 22.097-14.113 4.853-4.379 14.098-16.847 16.998-22.923 5.784-12.12 7.564-20.701 7.517-36.234-.037-12.337-.368-15.069-2.786-23-5.795-19.013-18.049-34.515-35.089-44.391-6.314-3.659-19.542-8.811-25.531-9.944-8.454-1.599-19.763-2.056-27.552-1.112m289.883.012c-12.29 1.484-29.192 8.565-38.277 16.035-16.879 13.879-27.009 37.363-27.041 62.692-.038 29.742 13.005 53.827 36.921 68.177 28.227 16.937 65.58 15.349 94.106-4.001 8.946-6.067 8.848-5.342 2.343-17.382-3.146-5.822-6.119-10.586-6.606-10.586-.488 0-3.595 1.839-6.904 4.086-14.583 9.903-29.73 14.027-44.458 12.103-18.11-2.365-29.475-9.569-38.159-24.189-2.332-3.925-4.835-12.345-5.575-18.75l-.491-4.25h54.437c50.903 0 54.482-.114 55.154-1.75.396-.962.674-6.7.619-12.75-.121-13.273-2.674-24.151-8.525-36.32-11.398-23.705-37.895-36.696-67.544-33.115m-100.297 2.536c-7.103 1.908-16.644 7.284-21.786 12.274-4.161 4.038-10.497 13.215-12.86 18.625-1.149 2.631-1.315.941-1.349-13.75L1961 204h-29v152H1961.821l.452-38.75c.508-43.477.972-47.214 7.368-59.387 5.229-9.951 12.062-17.098 20.16-21.089 5.873-2.894 7.78-3.314 16.422-3.618l9.777-.343V203.25l-3.125-.625c-4.769-.954-9.819-.643-15.841.976m-670.485 1.32c-.497.803 22.821 36.82 42.571 65.756l4.898 7.176-24.646 37.238c-13.555 20.481-24.861 38.064-25.125 39.074-.452 1.725.506 1.835 16.014 1.835 13.642 0 16.715-.267 17.774-1.542.704-.848 4.511-6.811 8.459-13.25a2577.375 2577.375 0 0 1 13.593-21.885c3.527-5.598 7.815-12.532 9.528-15.409l3.115-5.231 2.865 4.909c1.575 2.699 7.999 13.008 14.274 22.908s12.943 20.587 14.818 23.75l3.409 5.75h16.952c9.324 0 16.952-.396 16.952-.88s-6.218-10.272-13.817-21.75c-31.597-47.724-35.592-53.938-35.59-55.37.001-.825 10.282-16.995 22.846-35.934 12.564-18.938 23.058-35.251 23.319-36.25.445-1.7-.572-1.816-15.986-1.816-14.432 0-16.65.216-17.984 1.75-1.418 1.632-19.047 30.213-28.082 45.531l-4 6.781-9.201-15.281c-5.06-8.405-12.332-20.456-16.16-26.781l-6.961-11.5-16.618-.274c-9.957-.164-16.859.115-17.217.695m772.145 21.138c-8.182 1.244-16.697 6.12-23.628 13.53-5.529 5.91-8.478 11.462-10.445 19.661l-.659 2.75H2142l-.012-2.75c-.017-3.913-2.329-12.065-4.751-16.75-6.423-12.425-21.804-18.986-38.543-16.441m-1234.38 2.294c-13.605 2.822-26.396 12.07-33.493 24.217-4.416 7.557-5.575 11.035-6.722 20.172-2.896 23.057 8.488 45.387 27.874 54.678 28.071 13.452 60.089.153 70.184-29.154 3.344-9.708 3.344-26.824 0-36.532-8.4-24.385-32.939-38.547-57.843-33.381m942.686.146c-19.14 4.321-34.053 18.898-38.46 37.594-8.872 37.638 19.051 70.903 55.46 66.073 29.975-3.977 49.217-32.954 42.61-64.166-5.924-27.984-32.529-45.614-59.61-39.501m-257.746.906c-12.104 3.939-21.526 13.721-26.477 27.489-2.887 8.029-3.677 31.003-1.379 40.118 3.48 13.803 11.902 26.155 21.235 31.144 19.584 10.469 43.266 3.024 53.598-16.849 4.956-9.53 6.862-18.181 6.843-31.05-.035-23.985-8.726-41.047-24.953-48.986-4.667-2.284-7.077-2.76-15.088-2.983-6.089-.169-11.067.234-13.779 1.117"/><path d="M258 34.112c-33.121 4.411-53.995 10.418-79.5 22.879-30.576 14.94-58.861 37.491-79.655 63.509-19.825 24.805-36.761 59.042-44.322 89.6-5.429 21.942-6.023 27.608-6.021 57.4.003 26.911.115 28.544 2.875 42 10.184 49.647 31.033 88.928 65.007 122.475 13.341 13.174 21.204 19.573 37.116 30.209 32.427 21.674 70.376 34.32 113.5 37.821 6.875.558 13.544 1.252 14.82 1.542 1.276.289 4.876.084 8-.457 3.124-.54 10.405-1.482 16.18-2.093 80.203-8.483 148.813-56.512 185.428-129.804 16.72-33.47 25.956-78.313 23.449-113.85-2.495-35.355-9.763-63.29-23.896-91.843C458.84 98.562 397.809 51.559 327.5 37.595c-20.815-4.135-52.632-5.729-69.5-3.483m12.5 86.228c-6.736 2.229-10.096 4.394-14.39 9.273-9.341 10.612-9.336 26.168.012 36.788 6.206 7.051 12.643 9.99 21.878 9.99 9.241 0 15.672-2.939 21.893-10.006 15.389-17.483 3.511-45.068-20.218-46.957-2.846-.226-6.975.184-9.175.912m1 8.813c-15.573 5.722-18.237 25.901-4.664 35.334 3.79 2.633 5.197 3.013 11.164 3.013 5.973 0 7.361-.375 11.087-3 2.343-1.65 5.342-5.025 6.665-7.5 4.913-9.191 1.099-21.558-8.117-26.319-4.585-2.368-11.95-3.066-16.135-1.528m-55.406 40.959c-9.575 2.885-20.478 13.395-23.464 22.618-1.888 5.831-13.115 68.118-12.406 68.827 1.118 1.118 37.034 7.579 37.743 6.79.419-.466 4.401-19.522 8.849-42.347 10.446-53.603 10.665-54.852 9.773-55.745-1.178-1.179-16.699-1.287-20.495-.143m5.232 7.987c-8.254 1.525-16.011 7.653-19.379 15.312-2.747 6.243-7.671 34.523-6.174 35.449 1.542.953 20.105 4.616 20.576 4.06 1.003-1.184 10.633-54.321 9.951-54.907-.44-.377-2.678-.338-4.974.086M250 179.592c-4.103 1.774-9.583 6.786-11.573 10.584-1.388 2.651-9.847 48.273-18.972 102.324-5.347 31.679-3.428 26.437-22.885 62.5l-11.6 21.5 15.265 7.34c15.861 7.627 16.368 7.903 15.682 8.558-.229.219-7.392 1.83-15.917 3.581-39.586 8.131-63.521 13.02-63.75 13.02-.607.002-.167 4.09.681 6.32l.931 2.448 11.319-2.396c6.225-1.318 26.619-5.522 45.319-9.341 34.005-6.947 92.588-18.947 134-27.45 12.1-2.484 38.65-7.908 59-12.053 20.35-4.144 37.555-7.741 38.233-7.993 1.245-.463.747-6.2-.677-7.796-.374-.419-6.052.351-12.618 1.711-47.004 9.738-70.845 14.477-71.174 14.148-.41-.41.794-11.321 11.71-106.097 3.864-33.55 7.026-62.038 7.026-63.307 0-2.097-.389-2.28-4.25-2l-4.25.307-2.447 21.876-2.446 21.877-6.054-.605c-15.654-1.564-32.097-3.793-32.726-4.436-1.848-1.889-25.705-39.306-27.712-43.463-2.651-5.49-8.086-10.365-13.115-11.764-5.089-1.416-12.973-1.135-17 .607m4.5 7.62c-3.71 1.297-6.318 3.518-7.97 6.786-1.446 2.86-11.035 54.83-10.26 55.605.614.615 28.819 3.641 29.315 3.146.191-.192 2.199-12.372 4.461-27.067l4.114-26.719-2.059-4.253c-3.157-6.522-10.928-9.832-17.601-7.498m24.56 38.038a6729.57 6729.57 0 0 1-3.548 22.75l-1.35 8.5 23.389 23.5 23.389 23.5 2.536 26c1.394 14.3 2.645 27.548 2.779 29.44l.245 3.439-17 3.163c-9.35 1.74-17.279 3.015-17.619 2.833-.341-.183-.919-4.504-1.285-9.603-1.148-15.984-2.65-34.099-3.197-38.534-.519-4.215-.671-4.358-13.475-12.75-7.123-4.669-13.375-8.488-13.895-8.488-.519 0-1.9 3.262-3.067 7.25a7345.217 7345.217 0 0 1-4.637 15.75c-2.327 7.871-7.761 19.076-27.278 56.25-3.971 7.563-6.83 13.75-6.355 13.75s13.002-2.502 27.836-5.56c14.835-3.058 39.955-8.203 55.823-11.434 15.867-3.23 28.977-6.016 29.132-6.19.38-.426 13.556-115.746 13.534-118.452-.019-2.424.12-2.393-22.017-4.895-22.057-2.494-18.753-.484-30.586-18.601-5.701-8.727-10.542-15.868-10.76-15.868-.217 0-1.384 6.412-2.594 14.25m-86.47 13.891c-.938 2.954-2.807 14.975-2.393 15.389 1.004 1.004 20.232 4.439 20.907 3.735.767-.799 2.896-11.361 2.896-14.369 0-1.327-1.589-2.091-6.75-3.247-12.512-2.802-14.195-2.975-14.66-1.508m40.598 25.487c-.616 3.229-3.189 18.022-5.717 32.872-4.504 26.45-4.69 27.172-9.152 35.459C203.3 360.85 198 371.018 198 371.938c0 1.136 13.17 8.082 15.225 8.03.701-.018 7.234-11.525 14.518-25.573 13.642-26.311 13.953-27.11 24.218-62.145 1.168-3.988 2.667-7.224 3.331-7.193.665.031 9.983 5.994 20.708 13.25l19.5 13.193 1.87 23c1.028 12.65 2.004 23.151 2.169 23.336.495.556 15.897-2.047 16.776-2.836.449-.402-.183-11.254-1.403-24.115l-2.218-23.385-22.442-22.624-22.442-22.623-10.155-1.108a1825.798 1825.798 0 0 0-16.751-1.749l-6.596-.641z" fill="#2856b1"/></g></svg>