<svg height="2500" viewBox="0 0 225 225" width="2500" xmlns="http://www.w3.org/2000/svg"><path d="M0 112.5V225h225V0H0zm68.1-23c14.3 5.1 17.2 23.1 5.2 32.2-3 2.3-4.8 2.8-10.7 3.1-6.6.4-7.4.2-11.4-2.8-15-10.8-7.9-32.7 10.9-33.9.9-.1 3.6.6 6 1.4zm24.9 12V115h13v9H84l-.1-13.3c-.1-7.2-.3-15.1-.5-17.4-.3-4.5-.4-4.4 6.9-5.1L93 88zm38.8-10.2c11.5 7.6 10.4 24.7-1.9 30.9-2.5 1.3-5.8 1.8-12.6 1.8h-9.1l-.4-15.8c-.5-22.4-1.4-20.5 10.2-20 8.6.3 10.2.7 13.8 3.1zm33.2 1.8c0 2.9-.7 5-2.4 7l-2.5 2.9 3 2.9c5.1 5.2 3.5 14-3.1 17.3-6.2 3.1-12.6 2.2-17.7-2.5-3.2-2.9-2.9-4.4 1.7-6.7 3.9-2 3.9-2 5 0 1.4 2.6 5.6 2.6 7 0 .8-1.5.6-2.1-.9-3-1.1-.5-2.6-1-3.4-1-.7 0-2-1.1-2.7-2.5-1.1-2.1-1.1-2.9 0-5 .7-1.4 1.7-2.5 2.2-2.5.4 0 .8-.4.8-.9 0-.6-2.4-1.1-5.2-1.3l-5.3-.3-.3-4.3-.3-4.2H165zM31.5 91.9c3.7 1.7 8.3 5.7 7.4 6.4-5.5 4.3-6.9 4.8-9.1 3.3-4.4-2.8-10.1-2.4-13.3.9-3.3 3.2-3.3 8.4-.1 12.2 2 2.3 3.2 2.8 7 2.8 3 0 5.1-.6 6.3-1.8 1.6-1.6 1.5-1.7-2.5-1.7H23v-3.9c0-3.5.3-3.9 3.1-4.5 1.7-.3 6.1-.6 9.7-.6h6.5l-.6 5.6c-.7 6.4-2.2 9.2-7.3 13-5.3 4.1-12.7 4.5-19.6 1-6.1-3-8.3-5.6-9.9-11.9-1.4-5.1-.1-11.6 3.1-15.5 5.4-6.6 15.7-8.9 23.5-5.3zm159.5-.8c0 .5-1.5 2.8-3.2 5.1-3.2 3.9-3.2 4.1-1.3 5.2 1 .6 3.2 2.3 4.7 3.8 5.1 4.8 3.2 16-3.2 19.3-6.5 3.4-15.4 1.1-19-4.8-3.1-5-2.6-9.6 1.8-15.9 9.9-14.5 9.2-13.8 15-13.8 3 0 5.2.4 5.2 1.1zm18.5 0c5 .1 9.5.6 10 1 .6.4.9 2.6.7 4.9l-.4 4.1-6.4-.6c-5.3-.6-6.4-.5-6.4.8 0 .9 1.4 1.7 3.9 2.1 4 .6 8.3 4.5 9.6 8.7 1.1 3.2-.3 8.1-3 11.3-4.6 5.4-16.9 4.7-21.5-1.2-2.7-3.4-2.6-3.9 2-6.2l3.9-2 1.1 2.1c1.6 2.8 7.4 2.3 7.8-.7.4-2.6-1.9-3.4-9.7-3.4h-5.3l.5-3.3c.4-1.7.9-6.1 1.2-9.7.8-7.6 1.2-9.3 2.2-8.7.5.3 4.9.6 9.8.8z"/><path d="M57.3 99c-4.8 2-5.9 10-1.8 14.4 1.8 2 3.4 2.6 6.5 2.6 5.4 0 9-3.6 9-9 0-7.1-6.5-10.9-13.7-8zM117 106.5v8.5h3.9c7.4 0 11.9-6.6 8.7-12.8-1.8-3.5-3.3-4.2-8.7-4.2H117zM177.1 111.9c-2.3 4.2 4.6 7.1 7.2 2.9.8-1.2.7-2.1-.2-3.2-1.8-2.2-5.8-2-7 .3z"/></svg>