<svg clip-rule="evenodd" fill-rule="evenodd" height="2500" stroke-linejoin="round" stroke-miterlimit="2" viewBox="0 0 2311.206 4612.009" width="1253" xmlns="http://www.w3.org/2000/svg"><path d="m0 0h1500v725.907h-1500z" fill="none"/><g fill="#231f20" transform="translate(-811.092 -3886.04)"><path d="m1691.793 4379.8c-19.72 18.767-41.175 33.588-62.596 43.63-10.946 4.792-17.517 7.417-21.467 7.388-1.729 0-3.05-.875-3.05-2.171 0-2.646 3.542-8.309 10.967-17.038 17.963-20.079 39.43-37.554 63.5-50.637 14.442-7.825 28.888-13.95 34.13-13.93 1.758 0 3.05 1.317 3.05 3.055 0 .904-.43 1.762-.884 3.508-3.054 5.237-13.146 16.583-23.65 26.196m-313.554-.5c-19.7 18.758-41.159 33.592-62.613 43.629-10.933 4.775-17.496 7.4-21.442 7.4-1.737 0-3.041-.887-3.041-2.22 0-2.626 3.512-8.3 10.958-17.03 17.954-20.07 39.417-37.513 63.483-50.63 14.446-7.84 28.892-13.924 34.15-13.924 1.742 0 3.05 1.312 3.042 3.075.008.879-.446 1.737-.887 3.496-3.059 5.229-13.13 16.583-23.65 26.204m587.375-36.659c2.18 0 3.483.875 3.483 2.642 0 3.054-3.491 8.292-10.075 14.392-16.225 16.166-34.158 26.612-45.97 26.612-4.813 0-7.863-1.758-12.234-8.341 20.588-17.905 52.538-35.325 64.796-35.305m293.346 42.467c-4.396-.02-20.996 3.033-30.62 5.63-13.572 3.912-27.567 10.016-42.46 18.716 11.413-17.904 18.86-28.82 29.805-42.338l.888-1.337 1.316-1.288c6.567-8.291 11.825-14.416 15.334-18.354 7-7.862 7.887-10.029 7.916-16.162 0-9.18-4.375-16.613-9.616-16.634-2.621 0-5.259 1.738-9.184 5.68-21.025 20.954-38.996 34.92-56.925 43.637 3.063.438 5.684.438 6.996.438 7.438.02 12.25-.863 17.933-3.459l-1.308 1.313c-6.98 9.4-12.8 17.296-17.762 24.212-6.684.671-19.205 3.317-28.2 6.325-14.88 4.334-24.067 8.709-42.459 18.292 10.071-17.475 18.425-28.85 34.63-48.92 21.887-26.655 44.25-51.097 62.212-67.676l28.912-26.654c5.246-5.23 7.871-9.596 7.871-14.833.034-8.321-5.646-16.642-11.329-16.642-3.075-.021-6.117 1.737-11.812 6.958-7.884 7.446-13.146 12.238-15.78 14.425-5.258 5.25-11.379 9.584-17.962 13.071-7.404 3.938-13.988 6.55-26.246 9.583 8.32 1.334 12.688 1.78 17.925 1.78 2.625 0 4.83 0 9.196-.405l-7 6.988c-32.53 30.446-62.692 65.196-86.08 98.52-6.691 1.2-15.116 3.184-21.679 5.372-14.879 4.341-24.062 8.708-42.45 18.291 10.1-17.479 18.434-28.82 34.621-48.891 21.921-26.65 44.259-51.117 62.225-67.709l28.909-26.629c5.25-5.242 7.883-9.604 7.896-14.875 0-8.3-5.646-16.592-11.355-16.612-3.07 0-6.125 1.741-11.82 6.958-7.884 7.417-13.142 12.242-15.767 14.425-5.25 5.242-11.367 9.617-17.946 13.096-7.433 3.925-14.017 6.529-26.254 9.558 8.312 1.333 12.666 1.78 17.925 1.78 2.633 0 4.812.033 9.183-.405l-6.996 6.988c-32.35 30.295-62.379 64.829-85.725 98.025-4.783.712-11.079 2.033-17.208 3.7-22.746 6.062-38.08 12.616-76.158 31.779-14.005 7.417-27.996 13.517-32.376 14.833-2.179.854-4.366.854-6.554.854-4.391-.02-6.996-2.187-6.996-6.57.021-10.063 9.684-26.655 25.005-42.821 8.716 12.262 16.146 17.091 26.65 17.112 13.125.033 33.246-11.32 52.958-29.65 14.458-13.55 21.025-24.896 21.05-35.383.017-12.704-11.325-26.725-21.82-26.725-13.55-.021-45.067 15.241-70.463 34.437-15.192 11.342-28.755 24.863-39.23 38.471-3.183.246-9.583 1.488-17.691 3.421-21.442 4.78-35.867 10.437-59.08 23.496 12.28-21.83 21.484-34.517 39.013-55.471 9.204-11.342 14.88-18.333 17.971-21.383l2.18-.455c2.624.03 5.25-.408 7.874-.408 32.817-2.575 33.263-2.575 39.367-7.383 5.675-4.346 7.892-7.4 7.892-9.584 0-3.075-2.625-5.27-7.425-5.27-1.75 0-3.063.429-7.876.875l-12.245 2.158c-3.059.425-7 .854-12.696 1.708l1.32-1.283c3.5-3.07 6.146-6.125 8.75-8.746l28.93-28.375c3.929-3.508 6.125-6.987 6.125-8.287 0-1.75-1.73-3.084-3.925-3.084-10.05 0-37.621 10.875-53.388 21.342.438 1.758.875 2.62.867 3.07 0 3.05-1.313 4.792-15.77 20.1-2.634 2.597-6.134 6.534-11.393 12.21l-4.37.445-4.388.846c-33.67 6.07-36.304 6.958-36.304 12.208-.013 3.05 2.167 4.808 5.687 4.808.855 0 2.605 0 4.363-.433 1.32 0 5.258-.43 10.487-1.283l10.517-1.313-1.32 1.742c-14.913 17.904-18.86 22.746-25.86 32.33a504.901 504.901 0 0 0 -8.116 11.616c-2.42.383-5.066.883-7.65 1.462-19.696 3.917-33.246 8.709-48.583 17.863 6.154-9.6 10.525-16.167 13.162-20.1l14.455-18.33c2.208-3.5 3.945-7 3.945-9.624.025-2.625-.841-4.367-3.487-6.992 6.158-7.004 8.342-11.8 8.342-17.033.041-11.375-7.38-19.696-18.33-19.717-17.05-.02-57.312 18.717-88.404 40.954-14.77 10.521-27.667 21.413-38.246 32.063-1.304.225-2.566.429-3.787.675-19.692 4.341-34.138 10.416-52.509 23.1 9.217-16.613 16.234-27.1 26.305-39.763l22.787-28.82c3.513-4.813 5.27-8.292 5.27-11.822 0-7.862-6.966-16.612-13.978-16.641-3.5 0-6.55 1.741-15.746 8.3-8.32 6.104-14.892 11.341-31.088 25.32-37.658 30.984-50.8 42.767-71.816 63.292 5.696-9.196 8.32-13.133 13.141-19.67 10.967-14.396 24.546-31.009 34.18-41.934 7.445-8.292 9.195-11.346 9.195-17.475.021-9.175-4.779-15.746-10.891-15.746-2.192 0-3.942.854-8.75 5.234l-17.08 16.575c-10.966 10.037-26.716 20.529-39.408 25.745 3.063 0 5.246.438 6.55.438 5.263.042 9.642-.408 19.692-2.158-5.717 7.104-11.921 15.308-18.125 23.875-3.1.429-6.763 1.07-10.346 1.904-19.683 3.887-33.242 8.675-48.575 17.829 6.146-9.608 10.533-16.142 13.162-20.067l14.459-18.362c2.204-3.48 3.933-6.988 3.962-9.634 0-2.595-.862-4.354-3.508-6.979 6.146-6.987 8.342-11.8 8.342-17.046.02-11.375-7.405-19.687-18.342-19.716-17.038-.021-57.32 18.716-88.388 40.962-42.908 30.571-70.075 64.18-70.116 86.5-.013 15.725 10.446 33.242 20.058 33.263 4.37-.02 10.08-3.5 20.6-11.8 21.87-16.58 45.946-38.383 73.546-65.463l5.696-6.12-3.934 6.55c-21.475 32.329-30.704 49.804-30.712 57.241-.008 5.271 2.604 10.08 7.846 15.321 3.487 3.05 6.112 4.396 9.17 4.396 3.513.02 5.709-1.75 8.763-7.421 22.77-40.308 45.875-60.942 79.671-69.17-10.196 14.666-19.717 29.428-26.267 40.824-4.396 7.434-5.716 11.371-5.716 16.621-.021 9.604 7.404 19.225 13.975 19.254 3.491 0 5.241-1.737 13.57-13.516 17.967-24.488 29.8-38.455 43.826-52.859 15.316-15.279 31.512-28.8 43.783-36.233 4.82-2.604 8.767-4.792 10.517-4.771.845-.02 1.729.846 1.729 1.737 0 1.313-.446 1.75-4.375 6.563-7.48 10.062-18.859 27.504-27.18 41.908-10.533 17.925-15.362 30.613-15.383 39.363-.008 9.62 6.959 17.942 14.846 17.942 3.933 0 6.558-1.742 9.63-6.98 17.05-30.975 39.687-52.52 67.12-64.066-11.062 14.15-17.212 27.304-17.246 37.904-.008 15.754 10.459 33.254 20.092 33.283 4.375 0 10.05-3.487 20.55-11.779 21.912-16.6 46.004-38.408 73.57-65.492l5.718-6.1-3.959 6.55c-21.475 32.33-30.692 49.805-30.692 57.217-.02 5.263 2.596 10.083 7.855 15.333 3.479 3.071 6.104 4.405 9.154 4.375 3.5.03 5.7-1.708 8.783-7.387 22.246-39.408 44.83-60.038 77.4-68.6a684.171 684.171 0 0 0 -13.925 22.346c-10.529 17.454-14.925 27.516-14.933 34.516-.013 3.934 1.304 7.446 4.354 11.371 4.37 5.7 7.42 7.896 11.363 7.896 2.604.02 3.945-.854 6.57-4.367l2.175-2.162c.875-.888 5.271-6.992 12.292-15.742 22.654-30.22 47.525-46.292 82.517-54.042-8.717 13.713-13.834 26.934-13.854 37.542 0 9.175 3.916 17.5 13.495 28.009 7.867 8.32 12.667 10.966 18.813 10.966 5.25 0 9.167-1.741 16.183-7.846 48.005-40.82 76.855-58.775 110.13-67.729-9.513 14.446-17.659 28.484-23.938 41.638-3.517 6.987-4.392 10.466-4.412 14.833 0 3.954 1.75 7.892 6.104 12.725 3.946 4.813 6.987 6.563 9.62 6.583 3.5 0 4.813-.887 12.259-10.945 9.646-12.655 16.225-21.384 20.15-25.771 7.467-8.288 16.23-16.567 24.98-22.246 10.22-7.1 21.774-12.409 34.47-16.154-9.35 14.262-17.375 28.116-23.58 41.1-3.528 6.975-4.395 10.475-4.416 14.87 0 3.926 1.758 7.863 6.104 12.676 3.938 4.82 7.021 6.579 9.625 6.579 3.48 0 4.821-.863 12.267-10.913 9.625-12.666 16.204-21.416 20.163-25.779 7.445-8.292 16.195-16.592 24.941-22.254 12.046-8.342 25.9-14.242 41.288-18.009-11.309 16.442-17.342 27.163-25.146 42.959-3.08 7.008-4.383 10.487-4.4 14.85 0 3.942 1.729 7.887 6.1 12.708 3.942 4.809 7.429 6.571 10.054 6.571 3.496 0 4.82-.854 11.817-10.896 10.07-12.683 16.662-21.433 20.17-25.783 7.888-8.304 16.634-16.604 25.384-22.271 14.446-10.038 31.533-16.55 50.762-20.008 5.259-.425 7.017-2.196 7.017-5.696 0-2.604-1.729-4.367-5.675-4.367m39.163-140.308c-3.967-.021-10.071 4.77-20.588 15.687-9.646 10.484-13.592 16.163-13.592 21.43-.02 6.104 4.784 11.8 10.03 11.8 3.479 0 5.7-1.288 18.812-13.088 4.404-3.48 8.33-6.533 10.963-8.708 5.696-4.355 7.437-6.55 7.437-11.367.021-7.858-6.083-15.754-13.062-15.754m-1032.289 149.6c0-9.604 5.717-18.78 22.788-38l13.154-14.85c4.808-5.238 6.12-7.863 6.15-12.23 0-9.183-6.1-17.495-12.662-17.524-7.863 0-15.321 5.229-46.417 30.995l-31.942 27.059c-11.396 9.154-22.787 19.625-41.2 37.1 9.663-14.85 16.246-24.025 25.88-35.38l23.662-27.079c4.37-4.82 6.133-9.604 6.141-14.85.009-10.066-5.229-17.925-12.212-17.945-3.942 0-5.692 1.3-11.388 9.154-12.279 15.729-31.095 30.987-51.229 41.025 2.613.446 4.804.446 6.125.446 5.25 0 9.184-.425 18.8-2.163l-3.95 5.267c-18.816 23.583-35.929 48.892-50.841 73.354-3.946 7.008-5.255 10.063-5.267 14.446 0 3.937 1.73 8.292 4.78 12.687 3.07 3.946 7.424 6.55 10.05 6.571 3.053 0 6.137-2.625 13.14-12.229 21.488-30.592 37.7-49.35 58.28-67.233 15.312-13.555 25.837-20.525 44.65-30.109-8.32 12.225-9.208 14.396-9.217 17.904-.008 9.175 10.475 17.955 23.592 20.621-.442-2.646-.867-5.696-.867-7.037m-338.746 162.13c-23.191 19.67-56.029 36.65-70.475 36.62-6.979-.02-10.925-3.93-10.904-10.513 0-4.808 2.208-10.912 6.142-16.162 18.854-26.225 46.875-52.4 80.596-76.408 29.779-20.475 57.345-34.88 98.908-51.45-38.146 53.304-68.804 88.237-104.267 117.912m203.146-140.904c-5.241-8.342-10.479-11.392-19.225-11.413-5.25-.02-10.479.867-21.446 4.325 12.738-21.396 21.08-34.05 42.984-64.187 4.808-6.55 6.558-10.05 6.579-13.563 0-7.433-8.304-16.183-15.3-16.204-2.18 0-6.125 1.313-9.604 2.625-14.459 6.53-31.521 14.37-51.209 23.954-87.533 41.396-116.862 54.454-151.854 65.363-9.196 2.592-14.875 3.904-20.133 3.883-8.738 0-13.104-5.267-13.104-14.446.054-19.67 31.587-58.55 77.566-94.337 26.275-20.5 50.354-34.871 88.859-53.642-.884 2.625-1.321 3.938-1.759 4.813l-7.896 18.358c-.437.43-1.3 3.054-2.195 7.442 19.712-21.405 40.304-35.809 62.612-44.963l17.934-6.958c10.945-3.921 17.954-14.404 17.97-25.35.013-6.534-3.05-10.05-9.162-10.05-30.171-.055-109.821 33.9-168.475 71.429-63.925 41.43-106.425 88.154-106.467 117.004-.042 26.267 30.963 53.413 60.708 53.488 18.8.02 30.609-5.2 94.95-42.705 10.071-5.695 19.709-11.354 29.338-16.575 13.57-7.858 17.07-9.579 38.075-20.066 8.292-4.346 20.563-10.009 28.008-13.95l11.392-5.654c-12.267 15.291-20.183 25.32-32.892 42.37l-23.666 33.63c-.43.429-3.055 3.479-6.125 7.875-55.55 16.925-98.884 36.12-149.23 65.329-27.57 16.133-47.283 30.108-63.491 45.387-17.055 15.717-22.784 24.434-22.792 37.117-.008 11.396 5.23 18.833 18.317 28.038 17.041 11.82 35.391 17.962 50.712 17.995 11.371.021 26.246-4.325 39.809-11.737 36.77-19.625 70.929-51.9 108.183-102.58l46.892-66.853 3.95-5.221c19.266-7.413 31.941-10.446 44.187-10.417 1.325 0 3.946 0 7 .446m605.472-249.355c92.775-72.208 123.166-137.675 102.233-204.858 4.15 5.604 13.062 14.062 17.008 27.712 14.771 51.088-29.437 113.342-119.241 177.146m-101.096 43.871c-56.909 23.288-113.609 34.588-163.067 34.588-35.604 0-67.484-5.85-93.025-17.467-25.504-11.629-44.759-29.217-54.292-52.47-4.342-10.65-6.442-21.909-6.442-33.459.071-37.075 21.088-77.013 56.692-113.958 35.675-36.909 86.196-70.863 146.23-95.463 56.916-23.283 113.629-34.563 163.079-34.563 35.625 0 67.483 5.838 93.016 17.475 25.513 11.596 44.78 29.184 54.3 52.471 4.342 10.617 6.43 21.88 6.43 33.425-.059 37.08-21.075 77.025-56.7 113.955-35.667 36.925-86.184 70.879-146.221 95.466m-334.067-63.158c-14.75-56.925 35.746-129.967 130.512-186.442-90.391 63.625-137.858 143.35-123.175 202.9-3.825-5.716-5.954-11.191-7.337-16.458m579.508-164.859c-27.058-89.475-180.225-122.291-342.104-73.341-161.842 48.987-271.117 161.233-244.038 250.7 27.059 89.475 180.217 122.325 342.105 73.333 161.825-48.962 271.125-161.225 244.037-250.692" fill-rule="nonzero"/><path d="m1732.756 4054.167c-17.925 13.654-43.642 26.45-61.605 30.834-3.054.741-5.658 1.087-7.637 1.087-1.763.02-3.046-.275-3.717-.608-.692-.388-.812-.592-.937-.996-.059-.28-.1-.55-.1-.888-.163-2.754 3.437-8.512 11.483-15.687 16.675-15.258 56.267-36.058 79.07-41.571 3.938-.98 6.868-1.487 10.838-1.946-5.158 10.325-13.358 19.196-27.395 29.775m45.187-29.775c3.058.275 6.217 1.292 10.742 3.55l4.929 2.484-1.492-5.309c-.812-2.983-2.704-5.516-5.554-7.162-2.492-1.5-5.65-2.463-9.662-3.146-1.955-5.88-4.663-9.65-8.85-12.596-3.788-2.662-8.305-3.77-16.434-3.75-4.929 0-11.279.367-19.925 1.058-5.837.409-11.758.609-16.379.609-3.58.029-6.467-.154-7.525-.375-.875-.184-1.23-.721-1.23-.842v-.062c-.316-.43 1.943-3.909 8.88-9.013 11.308-8.804 25.958-17.296 39.692-23.154a179.381 179.381 0 0 1 -4.121 3.975l2.392 4.091c9.337-2.87 19.062-7.495 25.47-12.258 3.684-2.562 5.88-6.054 5.821-9.987 0-1.121-.162-2.259-.416-3.359-.813-4.304-4.305-7.487-8.68-7.283-1.362 0-2.787.204-4.312.592-17.233 4.25-46.325 18.92-65.188 32.479-13.733 10.246-20.404 16.904-20.65 24.467 0 .854.105 1.729.325 2.562 1.488 5.542 5.934 12.958 10.438 16.07 2.237 1.588 5.187 2.343 8.492 2.343 2.158 0 4.47-.325 6.891-.996l22.421-5.68c7.73-1.87 15.146-2.908 20.488-2.908 1.625 0 3.05.084 4.208.267 2.32.425 3.662 1.625 4.133 3.092-6.033.162-10.846.883-18.108 2.662-29.317 7.204-66.78 24.242-89.175 40.608-6.53 4.663-10.113 9.767-10.063 16.259 0 1.891.275 3.883.784 5.979 3.441 14.262 13.379 23.542 25.487 23.542h.05c1.983 0 3.996-.246 6.042-.755 15.604-3.816 33.754-11.879 52.429-23.254 22.28-13.629 36.642-27.466 44.17-42.391 1.655-3.684 3.01-8.205 3.48-12.409m-360.946 158.854c-7.038 9.938-19.054 20.05-23.53 20.955a3.51 3.51 0 0 1 -.924.112c-1.017-.112-1.138-.141-1.617-1.516-.104-.388-.154-.884-.154-1.446-.02-1.246.287-2.755.896-4.175 4.916-12.209 13.529-25.455 24.666-38.413 8.292-9.337 16.33-16.746 27.655-25.27-8.805 21.037-16.942 36.033-26.992 49.753m228.454-120.512c-.162-1.133-1.454-2.888-3.416-2.85-.305 0-.613.042-.896.112-.975.234-1.809.925-2.35 1.605-.588.704-1.13 1.541-1.884 2.8-6.733 10.6-12.366 17.77-17.087 22.195.683-2.95 2.075-7.812 3.762-12.408 4.292-11.954 16.93-40.508 23.38-52.817l11.17-21.158c1.85-3.696 2.959-7.446 2.971-10.967-.012-1.137-.125-2.258-.387-3.354-1.871-7.02-6.409-12.879-12.342-13.196a6.87 6.87 0 0 0 -1.617.2c-2.729.684-4.558 2.646-7.079 6.309-1.67 2.237-5.454 7.5-8.687 12.058-6.167 8.646-8.1 11.638-10.034 14.546l-15.562 23.15c-1.983 2.787-3.608 5.433-5.492 8.079-4.75 7.038-6.391 9.733-8.262 12.613-1.504 2.441-3.559 5.575-5.33 8.491-.924 1.446-1.75 2.742-2.483 3.867 1.221-3.954 2.563-8.392 3.967-13.05a2462.18 2462.18 0 0 0 7.204-26.063c3.375-13.895 4.425-17.854 4.475-20.933 0-1.12-.204-2.054-.408-2.887-.73-2.892-2.788-5.575-5.646-7.867-2.43-2.034-5.133-3.142-7.738-3.163a7.12 7.12 0 0 0 -1.733.204c-1.72.388-3.32 1.446-4.596 3.013-1.291 1.546-2.52 3.63-4.254 6.713-1.808 3.52-2.512 4.883-6.387 11.27-3.155 5.675-6.488 11.192-9.805 16.909l-18.941 31.675c-2.675 4.404-4.946 8.137-10.742 17.458-4.17 6.53-7.42 11.638-10.296 16.113l1.404-3.092 14.792-32.588c1.842-4.033 3.642-8.245 5.45-12.458 4.213-9.42 6.004-13.896 7.8-18.837a28.143 28.143 0 0 0 1.425-3.9c.93-2.592 1.438-4.546 1.438-6.559 0-.916-.121-1.854-.338-2.729-1.708-6.246-6.358-11.533-11.9-11.817-.512 0-1.017.059-1.517.2-2.583.634-4.229 2.188-7.2 5.334-8.85 9.854-15.425 16.07-25.675 24.554-3.937 3.02-7.854 6.225-11.783 9.237-.77.613-1.342 1.059-1.892 1.65-.529.567-1.095 1.584-1.058 2.621 0 .367.063.684.125.98.367 1.85 2.442 2.704 3.538 2.57.5 0 .958-.07 1.404-.17.57-.142 1.341-.346 2.604-.846 9.787-4.425 16.5-7.934 29.046-15.534-1.071 3.013-1.946 5.23-3.838 9.95-2.137 5.004-4.15 9.809-6.329 14.63l-13.058 29.704-10.825 24.637-3.58-3.437c-2.362-2.321-5.045-3.746-8.05-3.725-1.045 0-2.083.129-3.15.408-1.15.283-2.27.67-3.591 1.242 2.237-6.942 4.504-12.963 9.175-24.396 1.017-2.484 1.587-4.204 1.608-6.013 0-.558-.062-1.108-.175-1.596-1.25-4.191-5.158-6.858-9.225-7.041-.487 0-1.016.041-1.558.183-1.658.45-3 1.446-4.404 2.383a685.091 685.091 0 0 0 -18.563 14.955c-31.354 25.529-41.829 33.67-54.758 41.441-3.38 1.942-5.375 2.909-7.084 3.317-.445.12-.833.162-1.145.162-1.334-.116-1.905-.408-2.68-2.941-.12-.496-.2-1.13-.2-1.9-.145-7.663 8.238-25.004 21.767-42.013 7.454-9.462 14.608-16.808 25.454-26.125l-.612 3.713c-.175.458-.121.662-.192 1.016-.054.459-.07.946-.07 1.559 0 .408 0 .883.037 1.425l.408 8.541 4.13-7.504c5.716-10.379 12.383-17.946 20.212-23.662l6.541-4.592c3.925-2.62 6.105-7.025 6.105-11.48 0-1.057-.121-2.128-.388-3.166-.487-2.716-2.829-5.291-5.829-5.175-.613 0-1.23.059-1.842.221-13.433 3.458-41.929 25.167-62.354 46.48-19.912 21.312-32.392 42.245-32.554 56.128 0 1.48.142 2.871.467 4.205 2.8 10.67 15.129 17.991 26.958 18.087a26.43 26.43 0 0 0 5.93-.67c4.04-.98 7.566-2.563 12.516-6.45 4.979-3.888 11.646-10.155 22.854-20.976 3.5-3.296 6.817-6.554 10.175-9.583 4.758-4.58 5.88-5.513 13.375-11.9 1.617-1.425 3.712-3.154 5.708-4.838a467.968 467.968 0 0 0 -4.6 10.634l-6.196 15.891c-.325.588-.829 1.646-1.475 3.18-20.608 12.362-36.312 24.529-53.708 41.333-9.667 9.358-16.38 17.133-21.567 25.154-4.2 6.35-6.341 10.654-6.366 15.333 0 1.3.183 2.592.5 3.888 1.25 5.513 5.275 8.83 11.704 11.23 5.604 2.145 11.204 3.195 16.304 3.195 2.646 0 5.163-.308 7.5-.867 5.196-1.291 11.008-4.7 16.054-9.287 13.284-11.963 24.088-28.809 34.238-53.263l12.358-31.833.767-1.83c6.667-4.566 11.087-6.783 15.504-7.862a17.06 17.06 0 0 1 2.542-.446l4.925-.491-2.117 4.825c-1.812 4.333-2.78 7.954-2.78 11.229 0 1.2.134 2.38.397 3.48.491 1.99 1.516 3.824 3.454 6.082 1.92 2.625 4.217 4.505 7.137 4.525.538 0 1.088-.07 1.609-.204 2.879-.741 4.575-2.937 6.62-6.287l1.871-3.1c13.084-21.788 19.859-32.204 38.963-60.192 10.042-14.292 15.004-21.696 19.733-28.28 2.971-3.978 4.959-6.64 7-9.287-1.77 7.205-3.6 13.58-5.491 19.225-.98 2.88-1.842 5.525-2.83 8.371-2.745 8.842-3.6 11.446-4.05 12.954l-.75 3.321c-.366 1.784-.55 3.004-.55 4.246-.02 1.25.209 2.358.521 3.642.738 3.029 2.346 5.816 4.271 7.954 1.963 2.083 4.138 3.783 6.967 3.846.408 0 .833-.021 1.241-.134 2.625-.762 3.742-2.645 5.93-6.125l2.004-2.829 12.125-19.212c7.254-11.454 18.862-27.834 26.712-37.55 2.696-3.404 5.067-6.275 7.446-9l-5.592 11.354c-1.779 3.662-3.275 6.875-6.329 13.629-2.691 5.942-4.729 10.804-6.162 13.904-3.65 8.567-6.938 17.43-8.13 21.475-.845 2.992-1.291 5.475-1.291 7.821 0 1.5.196 2.925.53 4.325.982 3.95 3.478 8.242 6.582 12.067 2.713 3.141 5.696 5.108 9.163 5.087.854 0 1.687-.116 2.533-.316 3.288-.817 6.034-3.163 8.342-6.4 6.696-9.763 13.733-24.1 17.192-35.38.6-1.445.895-2.808.904-4.066 0-.471-.038-.95-.163-1.446" fill-rule="nonzero"/><path d="m1057.58 4491.9h1084.963v8.118h-1084.963zm0 88.726h1084.963v8.096h-1084.963z"/><path d="m1146.918 4564.351 3.029-20.72c.837-5.455 1.954-12.393 3.358-19.626h-.212c-2.767 6.508-5.892 13.43-8.659 18.963l-10.296 20.566h-8.341l-1.788-20.362c-.45-5.517-.825-12.454-1.133-19.167h-.15c-1.404 6.646-2.9 14.242-4.15 19.625l-5.004 20.721h-9.834l12.6-50.254h14.384l1.566 19.179c.284 4.68.813 10.354.896 15.93h.284c1.954-5.576 4.641-11.455 6.783-16.026l9.33-19.083h14.55l-6.797 50.254zm87.516-8.141c8.654 0 14.542-12.226 14.542-21.697 0-6.237-2.246-12.3-10.142-12.3-9.033 0-14.912 12.1-14.912 21.642 0 7.067 3.216 12.354 10.437 12.354zm-1.5 8.953c-13.041 0-20.341-9.245-20.341-20.954 0-9.012 3.354-17.87 9.091-23.62 4.709-4.546 11.192-7.305 18.496-7.305 13.271 0 20.283 8.93 20.283 20.934 0 9.116-3.229 18.066-8.87 23.654-4.625 4.604-11.05 7.291-18.575 7.291zm90.376-41.653h-13.276l1.88-9.413h37.333l-1.775 9.412h-13.43l-7.74 40.842h-10.76zm87.758 32.7c8.641 0 14.537-12.226 14.537-21.697 0-6.237-2.241-12.3-10.133-12.3-9.033 0-14.913 12.1-14.913 21.642 0 7.067 3.192 12.354 10.438 12.354zm-1.496 8.953c-13.054 0-20.346-9.245-20.346-20.954 0-9.012 3.358-17.87 9.096-23.62 4.692-4.546 11.187-7.305 18.47-7.305 13.288 0 20.305 8.93 20.305 20.934 0 9.116-3.213 18.066-8.888 23.654-4.6 4.604-11.029 7.291-18.558 7.291zm88.888-28.708h4.395c5.817 0 10.071-3.5 10.071-8.43 0-4.02-3.358-5.812-7.691-5.812-1.996 0-3.275.163-4.171.388zm-6.563-21.383c3.346-.834 8.413-1.267 13.4-1.267 4.78 0 9.704.68 13.2 2.896 3.28 1.946 5.617 5.067 5.617 9.767 0 7.458-4.93 12.075-11.413 14.17v.225c2.971 1.363 4.313 4.617 4.759 9.184.675 5.646 1.037 12.208 1.933 14.304h-11.017c-.458-1.354-.987-5.667-1.433-11.863-.508-6.104-2.604-7.983-6.838-7.983h-3.295l-3.721 19.846h-10.6zm135.55 37.662c2.971 1.788 7.163 3.184 11.854 3.184 4.096 0 7.9-1.946 7.9-5.809 0-2.912-2.175-4.7-6.787-7.141-5.296-2.85-10.375-6.867-10.375-13.355 0-10.154 8.8-16.329 19.787-16.329 6.025 0 9.604 1.334 11.775 2.442l-3.37 8.95c-1.634-.875-5.15-2.238-9.321-2.163-4.984 0-7.609 2.48-7.609 5.217 0 2.988 3.054 4.792 7.304 7.17 6.125 3.205 9.93 7.326 9.93 13.355 0 11.171-9.259 16.908-20.359 16.908-6.946-.062-12.004-1.87-14.32-3.57zm97.15-15.241c1.2.258 2.313.387 4.171.387 6.408 0 10.65-4.108 10.65-9.154 0-4.792-3.408-6.35-7.58-6.35-2.032 0-3.52.137-4.424.3zm-6.187-22.421c3.208-.834 8.2-1.267 13.041-1.267 4.559 0 9.7.733 13.346 3.342 3.421 2.241 5.454 5.812 5.454 10.675 0 6.266-2.916 11.096-6.795 14.087-4.088 3.204-9.988 4.7-16.092 4.7-1.8 0-3.296-.225-4.396-.296l-3.437 18.038h-10.517zm96.112 41.138c8.646 0 14.525-12.226 14.525-21.697 0-6.237-2.237-12.3-10.129-12.3-9.025 0-14.917 12.1-14.917 21.642 0 7.067 3.196 12.354 10.438 12.354zm-1.504 8.953c-13.042 0-20.367-9.245-20.367-20.954 0-9.012 3.375-17.87 9.113-23.62 4.692-4.546 11.192-7.305 18.475-7.305 13.283 0 20.292 8.93 20.292 20.934 0 9.116-3.2 18.066-8.859 23.654-4.637 4.604-11.046 7.291-18.575 7.291zm90.371-28.708h4.396c5.817 0 10.058-3.5 10.058-8.43 0-4.02-3.346-5.812-7.666-5.812-2.017 0-3.288.163-4.175.388zm-6.55-21.383c3.338-.834 8.42-1.267 13.408-1.267 4.759 0 9.705.68 13.196 2.896 3.284 1.946 5.6 5.067 5.6 9.767 0 7.458-4.92 12.075-11.404 14.17v.225c2.963 1.363 4.325 4.617 4.754 9.184.671 5.646 1.05 12.208 1.942 14.304h-11.038c-.437-1.354-.962-5.667-1.425-11.863-.508-6.104-2.591-7.983-6.833-7.983h-3.287l-3.734 19.846h-10.587zm89.833 8.438h-13.287l1.883-9.413h37.354l-1.791 9.412h-13.409l-7.77 40.842h-10.742zm70.463 29.224c2.983 1.788 7.15 3.184 11.854 3.184 4.1 0 7.904-1.946 7.904-5.809 0-2.912-2.158-4.7-6.787-7.141-5.292-2.85-10.367-6.867-10.367-13.355 0-10.154 8.813-16.329 19.758-16.329 6.042 0 9.621 1.334 11.78 2.442l-3.359 8.95c-1.633-.875-5.146-2.238-9.316-2.163-4.984 0-7.6 2.48-7.6 5.217 0 2.988 3.062 4.792 7.312 7.17 6.113 3.205 9.896 7.326 9.896 13.355 0 11.171-9.22 16.908-20.33 16.908-6.945-.062-12.016-1.87-14.324-3.57z" fill-rule="nonzero"/></g></svg>