<svg height="2337" viewBox="1 1 259.926 243" width="2500" xmlns="http://www.w3.org/2000/svg"><path d="m1 243c0-80.02 0-160.042.226-240.629.49-.779.674-1.047.774-1.371h258.926v243c-85.947 0-171.968 0-258.561-.224-.757-.523-1.02-.707-1.365-.776m201.1-51.044c5.142-3.233 7.32-7.312 5.017-10.196-4.546-5.693-9.41-11.13-13.857-16.339v-27.957h-8.136c0 5.973-.164 11.618.051 17.25.18 4.685-1.619 6.501-6.428 6.481-32.811-.135-65.624-.142-98.435.008-4.831.022-6.41-1.723-6.368-6.432.168-19.152.167-38.308 0-57.461-.04-4.76 1.734-6.534 6.455-6.493 16.987.149 33.977.058 50.966.058h5.458v-5.31c-.773-.186-1.246-.4-1.719-.4-21.153-.025-42.306-.071-63.458-.007-4.959.015-6.502 1.85-6.509 7.291-.028 22.319-.018 44.638.004 66.956.002 1.318.397 2.645.313 3.949-.09 1.386-.115 3.077-.892 4.065-3.5 4.445-7.125 8.81-10.97 12.957-2.24 2.415-2.025 4.637-.68 7.216 2.386 4.578 6.544 5.093 11.067 5.09 44.138-.029 88.276-.012 132.414-.037 1.645-.001 3.289-.298 5.707-.689m4.942-65.59v-19.98h-24.745v24.81c7.525 0 14.656-.086 21.783.041 3.06.054 3.048-1.796 2.962-4.871m-22.653-24.314c.664-.55 1.89-1.089 1.904-1.655.139-6.084.086-12.172.086-18.516h-20.149v20.186c5.941 0 11.558 0 18.16-.015m-14.296-25.882 14.094.972v-14.663h-14.257c0 4.463 0 8.609.163 13.691m-14.04 11.159h-12.678v14.433h14.936c-.482-4.98-.93-9.62-2.257-14.433m7.06 24.25v-5.271h-14.155v14.307h14.156v-9.036m11.9 25.095c.328-1.72.963-3.446.934-5.161-.18-10.99 2.107-9.247-9.807-9.568-3.344-.09-4.285 1.165-4.191 4.34.383 12.95-1.936 10.416 10.691 10.703.496.012.994-.04 2.373-.314m-53.248 4.178h10.505v-13.381h-13.203c0 3.645-.129 7.091.081 10.517.06.98 1.1 1.902 2.619 2.864m29.838-2.9v-10.977h-11.364v11.551c3.8 0 7.241 0 11.364-.574m-17.144-13.952c6.072 1.13 5.321-2.928 5.648-6.844.408-4.881-1.954-5.36-5.868-5.242-3.723.112-6.918-.29-6.364 5.248.39 3.902-.413 7.97 6.584 6.838z" fill="#feffff"/><path d="m1.5 1c.4.324.217.592-.274.903-.226-.236-.226-.57.274-.903zm-.5 242.5c.344-.431.608-.247.896.276-.23.224-.563.224-.896-.276z" fill="#e2e4e9"/><path d="m201.713 192.072c-2.031.275-3.675.572-5.32.573-44.138.025-88.276.008-132.414.037-4.523.003-8.681-.512-11.068-5.09-1.344-2.58-1.56-4.8.68-7.216 3.846-4.147 7.471-8.512 10.97-12.957.778-.988.803-2.68.893-4.065.084-1.304-.311-2.631-.313-3.949-.022-22.318-.032-44.637-.004-66.956.007-5.442 1.55-7.276 6.509-7.291 21.152-.064 42.305-.018 63.458.007.473 0 .946.214 1.719.4v5.31h-5.458c-16.989 0-33.979.09-50.966-.058-4.721-.041-6.496 1.733-6.454 6.493.166 19.153.167 38.309-.001 57.461-.042 4.71 1.537 6.454 6.368 6.432 32.811-.15 65.624-.143 98.435-.008 4.81.02 6.607-1.796 6.428-6.482-.215-5.63-.05-11.276-.05-17.249h8.135v27.957c4.446 5.208 9.311 10.646 13.857 16.339 2.303 2.884.125 6.963-5.404 10.312m-57.304-8.083h8.47c-2.525-5.955-2.525-5.97-7.505-5.974-10.325-.01-20.657.199-30.974-.1-4.287-.124-6.405 1.533-7.488 6.074zm-2.799 5.616c2.747-3.07.488-3.531-1.975-3.564-6.461-.085-12.926-.125-19.383.058-1.113.032-2.194 1.248-3.29 1.917 1.15.657 2.288 1.858 3.451 1.883 6.788.15 13.581.024 21.197-.294z" fill="#409edd"/><path d="m207.042 126.848c.086 2.593.098 4.443-2.962 4.389-7.127-.127-14.258-.04-21.783-.04v-24.81h24.745z" fill="#5db6f9"/><path d="m183.897 102.06c-6.109.007-11.726.007-17.667.007v-20.186h20.15c0 6.344.052 12.432-.087 18.516-.013.566-1.24 1.104-2.396 1.663z" fill="#233dff"/><path d="m170.014 75.702c-.082-4.614-.082-8.76-.082-13.223h14.257v14.663c-4.775-.33-9.435-.65-14.175-1.44z" fill="#1929a0"/><path d="m156.495 87.416c.888 4.726 1.336 9.366 1.818 14.346h-14.936v-14.433c4.195 0 8.437 0 13.118.087z" fill="#61b8f9"/><path d="m163.117 112.058v8.557h-14.157v-14.307h14.156z" fill="#1929a0"/><path d="m174.576 136.8c-.938.148-1.436.2-1.932.188-12.627-.287-10.308 2.246-10.691-10.703-.094-3.175.847-4.43 4.19-4.34 11.915.32 9.628-1.423 9.808 9.568.029 1.715-.606 3.44-1.375 5.287z" fill="#f4f6fc"/><path d="m121.304 140.845c-1.054-.955-2.094-1.876-2.154-2.857-.21-3.426-.081-6.872-.081-10.517h13.205v13.381c-3.38 0-6.943 0-10.97-.007z" fill="#2836a6"/><path d="m151.266 138.24c-3.782.286-7.222.286-11.023.286v-11.551h11.364c0 3.796 0 7.386-.34 11.264z" fill="#3149ff"/><path d="m134 124c-6.533 1.131-5.73-2.936-6.12-6.838-.554-5.538 2.64-5.136 6.364-5.248 3.914-.118 6.276.361 5.868 5.242-.327 3.916.424 7.973-6.111 6.844z" fill="#f4f6fc"/><path d="m143.92 183.989h-37.008c1.083-4.54 3.2-6.198 7.488-6.074 10.317.299 20.649.09 30.974.1 4.98.004 4.98.019 7.505 5.974z" fill="#fefeff"/><path d="m141.198 189.748c-7.204.175-13.997.301-20.785.151-1.163-.025-2.3-1.226-3.45-1.883 1.095-.67 2.176-1.885 3.29-1.917 6.456-.183 12.921-.143 19.382-.058 2.463.033 4.722.494 1.563 3.707z" fill="#fcfdfe"/></svg>