<svg height="-2261" viewBox="719.2 883 1301.9 356.1" width="2500" xmlns="http://www.w3.org/2000/svg"><path d="m1431.5 1154.9h-284.3v-83.8l272.2-188.1h103.4v187.9h51.8v84.1h-51.8v84h-91.3v-84zm0-5.2v-164.4l-123.6 85.6h90.5zm-303.9-189-32.1-77.7h-308.3c-19.1 0-35.2 6.6-48.3 19.7s-19.7 28.8-19.7 47.1v222.5c0 18.3 6.6 34 19.7 47.1s29.2 19.7 48.3 19.7h308.2l32.1-77.7v-6.3h-285.1c-4.8 0-9.1-1.9-12.9-5.7s-5.7-8.5-5.7-14.1v-148.3c0-5.6 1.9-10.3 5.7-14.1s8.1-5.7 12.9-5.7h285.1v-6.3zm893.5 0-33.3-77.7h-394.4v188.5l305.6-.9c4.8 0 9.1 1.9 12.9 5.7s5.7 8.5 5.7 14.1v44.5c0 5.6-1.9 10.3-5.7 14.1s-8.1 5.7-12.9 5.7l-263.7.3h-41.7v6.3l32.4 77.7h326.8c19.1 0 35.2-6.6 48.3-19.7s19.7-28.8 19.7-47.1v-106.5c0-18.3-6.6-34-19.7-47.1s-29.2-19.7-48.3-19.7h-255.1v-32h323.3v-6.3z" fill="#474747"/></svg>