<svg height="500pt" viewBox="77.5 70.7 369.2 370.9" width="500pt" xmlns="http://www.w3.org/2000/svg"><path d="m239 74c-61.7 5.5-116.7 43.2-143.6 98.5-5.5 11.5-12.6 33.1-15 46-2.9 15.4-2.7 50 .3 65 19.6 96.5 111 158.1 207.6 139.9 19.6-3.7 47.3-15.2 64.3-26.7 66.2-44.7 94.1-127.4 68.7-203.6-12.4-37.2-37.9-69.8-72.4-92.3-30.2-19.7-72.9-30.1-109.9-26.8zm35.3 47.6c23.1 4.4 46.9 16.3 63.4 31.7 6 5.7 7 7.7 3.6 7.7-.8 0-5.8-3.5-11-7.9-15.7-13.1-34.8-22.3-55.3-26.7-11.8-2.5-38.1-2.6-49.9-.1-38 8.1-71.3 33.6-87.7 67-2.2 4.5-3.3 5.7-5.1 5.7-1.3 0-2.3-.2-2.3-.5s1.4-3.4 3.1-6.8c12.3-24.5 34.5-46.5 59.6-59.1 23.9-12 54.6-16.1 81.6-11zm12.7 34.1c0 .5-2.2 4.8-4.8 9.8l-4.9 8.9-5.9 1.3c-3.2.7-6.4 1.2-7.1 1.3-1 0 6.6-15.9 8.8-18.4.4-.5 3.4-1.4 6.6-2.1 7.4-1.6 7.3-1.6 7.3-.8zm-24.6 12c-2.6 4.9-5.2 9.3-5.8 9.9-1.2 1.2-12.6 3.7-13.4 3-.3-.4 8.1-16.9 9.4-18.5.3-.4 11-2.8 13.2-3 .7-.1-.8 3.7-3.4 8.6zm-20.9 4c-2.6 4.9-5.2 9.3-5.8 9.9-1.1 1-12.7 3.8-13.3 3.1-.3-.2 8.4-17.7 9.2-18.6.4-.4 11-2.8 13.2-3 .8-.1-.5 3.3-3.3 8.6zm-20.9 4.1c-2.4 4.8-5 9.3-5.8 9.9-1.3 1-12.8 3.6-13.4 3-.6-.5 8.6-17.6 9.9-18.4 1.1-.8 9.7-2.9 12.5-3.2.7-.1-.6 3.5-3.2 8.7zm-16.6-4.4c0 .4-9 17.7-9.6 18.5-.3.3-12.1 3-13.7 3.1-.8 0 7.6-16.4 9.4-18.4.4-.5 3.4-1.4 6.6-2.1 7-1.6 7.3-1.6 7.3-1.1zm174.9 8.5c1 .7 1.2 2.3.6 6.9-.8 7.3-2.3 8.3-7.4 4.8-7.1-4.9-12.1-5.1-12.1-.5 0 1.5 1.9 2.8 7.6 5.4 4.1 1.9 8.4 4.5 9.4 5.7 4.2 5 1.3 14.7-5.4 18.1-4.7 2.5-11.5 3.3-15.6 1.8-2.9-1-3.6-.8-6.2 1.4-5.3 4.5-7.2 2.8-6.1-5.3 1.2-9.2 3.3-10.3 9.5-4.6 3.2 2.9 4.6 3.5 7.6 3.2 3.2-.3 3.7-.6 3.7-2.8 0-2.1-1.1-3-6.2-5.5-9.2-4.5-11.3-6.8-11.3-12.6 0-9.1 7.8-14.7 18.8-13.6 4.5.5 6 .2 8-1.4 2.8-2.1 3.1-2.2 5.1-1zm-48.9 10.4c1.3.7 3.5 2.8 4.8 4.7 2.1 3.1 2.3 4.3 2 11-.7 11.8-5.8 19.8-15.3 24.1s-18.1 3.1-22.2-3c-2.8-4.2-3.2-14.2-.7-21.3 4-11.9 21.5-20.5 31.4-15.5zm-39.4 7c.2.7-.1 4.2-.8 7.7-1.6 8-3.9 9-8.3 3.8-3.7-4.5-5.8-5.1-8.9-2.7-2.8 2.2-4.6 8.9-4.6 17 0 6.6 1.3 8.9 5.1 8.9 2.9 0 4.9-1.5 9.1-6.8 2-2.4 2.6-2.6 4.7-1.3 3.4 2.2-2.1 10.6-9.2 14-8.3 4-17.7 2.1-22.1-4.6-3.5-5.3-4.1-10.7-2.2-18.2 1.9-7.3 3.7-10 9-13.5 5.1-3.3 9.8-4.2 14.8-2.6 3.7 1.1 4.3 1 6.2-.9 2.3-2.3 6.4-2.8 7.2-.8zm-58.6 9.7c0 .6-.6 2.1-1.4 3.3-.9 1.3-1.9 7.3-2.6 14.7-.6 6.9-1.3 13.5-1.6 14.7-.9 4.6 6.3 1.9 9.1-3.4 2.3-4.2 6.1-7.4 8.1-6.6 1 .3 1.4 2.1 1.4 5.8 0 8.5-1 9.1-19 12.5-8.5 1.6-15.8 2.5-16.3 2.1-.4-.4-.1-2.1.7-3.7 1.8-3.7 4-26.1 3.2-32.3l-.6-4.8 8.2-1.5c10.7-2 10.8-2 10.8-.8zm-34.1 7.4c4.6 2.4 5.3 5.5 4 16.9-.6 5.5-.9 12.4-.6 15.3.4 3.7.2 5.4-.7 5.7-2.9 1.1-16.6 3-17.2 2.4-.4-.3.1-1.8 1-3.1.9-1.4 1.6-4 1.6-5.7 0-3.2 0-3.2-4.2-2.5-2.4.4-4.7 1.1-5.1 1.5-1 1-1.2 7-.3 9.7.8 2.4.1 2.7-8.6 3.9-5.6.8-6.4-.7-2.4-4.4 3-2.8 3.7-4.6 7.7-19.4 1.7-6.5 4.1-13.3 5.3-15 4-6 13.2-8.5 19.5-5.3zm-39.2 11.9c-.3 3.4-.9 7-1.2 8-1 2.5-5 2.1-6.9-.8-2.6-3.9-6.1-5.8-8.4-4.6-6 3.2-8 26.1-2.4 27.3 1.9.5 7.2-1 7.2-2 0-.4 1.3-2.2 2.8-4 5-6 8.6-1.3 4 5.3-5.2 7.7-15.8 10.6-24 6.6-6.9-3.4-8.3-6.1-8.3-16.1 0-7.5.3-9.1 2.8-13.2 4.8-8.3 12.9-12 21.3-9.9 4.3 1.1 4.8 1 6.6-.9 1-1.1 3.1-2 4.5-2 2.6 0 2.6 0 2 6.3zm247.9.2c.4.9.3 4 0 6.9-.8 6.4-2.7 7.7-6.6 4.6-4.4-3.6-8.8-5.2-11-4-4.1 2.2-1.4 6 6.3 8.6 7.1 2.4 10.7 6.3 10.7 11.4 0 5.8-2.6 9.6-8.4 12.5-5.4 2.7-9.6 3.1-14.4 1.4-2.8-1-3.5-.8-6.3 1.5-5.6 4.7-7.3 3-5.9-5.9.5-3 1.2-6 1.5-6.5 1.1-1.8 3.6-1 8.2 2.5 6.3 4.8 11.9 4.5 11.1-.6-.2-1.8-1.6-2.8-6.3-4.6-7.9-3.1-11.5-7-11.5-12.4 0-9 7.4-14.5 18.4-13.7 5.1.4 6.6.2 8.5-1.3 2.8-2.3 5-2.4 5.7-.4zm-40.6 7.6c0 .6-.7 1.7-1.5 2.5-.8.9-1.5 2.5-1.5 3.7s-.7 8.6-1.4 16.5c-1.5 15.6-2.6 18.2-7.6 18.2-3.1 0-6.5-3.4-14.5-14.6l-5-6.9-.6 5c-1.1 8.1-1 16 .3 17.3 1.7 1.7.1 2.9-5.2 4.1-5.4 1.2-6.9.2-4.7-3.2s4.5-30.6 2.9-34.1c-1.1-2.4-.9-2.6 2.6-3.5 4-1 6.7-1.4 9.3-1.2 1 0 4.8 4.2 8.5 9.3l6.9 9.2.7-4c1.1-6.2.9-13.9-.4-15.2-2.1-2.1 1.2-3.8 8-4.1 1.7 0 3.2.4 3.2 1zm-50.2 10.8c.2 1.3.1 4.3-.3 6.7-.8 5.9-3.2 6.5-9.2 2.5-5.5-3.6-6.2-3.7-9.5-1.1-4.3 3.3-6.3 16.4-3.5 22 1.8 3.6 6.7 3.5 8.5-.3 1.6-3.4.7-6.7-1.9-6.7-1.8 0-3.7-2.5-2.7-3.6.3-.2 5.1-1.3 10.7-2.3 9.1-1.6 10.3-1.7 10.8-.4.4.9-.3 2.2-1.5 3.2-1.6 1.2-2.3 3.2-2.8 8.3-.4 3.8-1.2 7.5-1.9 8.4-1.5 2.2-6.5 2.1-7.7-.1-.9-1.5-1.2-1.5-3.7.8-8.6 8.3-21.3 4.5-24.1-7.2-1.9-8 .5-18.8 5.3-23.9 5.1-5.5 16.1-8.2 21.6-5.3 1.6.9 2.5.6 4.6-1.5 3.2-3.2 6.9-2.9 7.3.5zm-45.5 5.7c.3.3-.3 2-1.3 3.7-2.3 4.2-4.9 31.9-3.1 34.1 1.6 1.9-.2 3.1-7.3 4.5-6.6 1.2-11.6 1.4-11.6.4 0-.3.6-1.4 1.4-2.2 2.1-2.3 5-31.5 3.5-34.3s-.3-3.6 7.7-5.2c8.2-1.6 9.9-1.8 10.7-1zm-30.2 6.6c.2 2.7-.2 9.4-.7 11-.8 2.6-3.3 2.2-8.3-1.2-4.8-3.2-8.2-3.8-10-1.6-2 2.4-.2 4.2 7.9 7.9 6.5 2.9 8.3 4.2 9.6 7 3.1 6.5-.6 14.1-8.2 17.3-3.8 1.6-13.1 1.8-15.3.5-1-.7-2.4-.2-4.4 1.5-1.6 1.3-3.7 2.4-4.8 2.4-1.6 0-1.9-.7-1.8-4.3.3-10.7 3.1-13.2 9.1-8.2 5.5 4.6 10.9 5.4 12.2 1.8.9-2.3-1.1-4.1-7.8-7.2-8.1-3.7-10.1-6.1-10.1-12 0-9.5 10.3-16.1 20.5-13.1 2.9.8 3.7.7 5.4-1 2.3-2.2 6.5-2.7 6.7-.8zm-42.3 10.2c.2 1.6.1 4.4-.3 6.3-.8 4.5-4.7 4.7-7 .3-1.2-2.4-2.2-3-4.8-3-4.7 0-5.5.9-6.3 6.8-.6 4.8-.5 5.2 1.4 5.2 1.1 0 2.7-1.1 3.6-2.5 2.3-3.5 5.6-3.4 5.6.2 0 9.2-2.8 13.5-6.2 9.4-1.8-2.3-4.7-2.8-5.2-.9-.3.7-.7 3.9-1 7.1l-.5 5.8 3.2-.6c2.9-.6 5.2-2.5 10-8.4 1-1.2 2.6-2.1 3.5-1.9 1.4.3 1.7 1.4 1.6 5.7-.1 3-.8 5.9-1.5 6.7-1.3 1.2-26.7 6.4-31.6 6.4-2.6 0-2.9-1.1-.9-4.3.8-1.3 1.9-8.4 2.6-16.9 1.1-12.1 1.1-15 0-16.3-.8-1-1-1.9-.4-2.5 1.3-1.3 26.1-5.9 30.4-5.7 3.1.2 3.5.6 3.8 3.1zm-49.9 9.3c4.5 3.4 6.3 8 5.7 15-.9 10.9-5.2 17.8-13.4 21.5-4.3 1.9-22.5 5.8-27.4 5.8-3.2 0-3.4-.6-1.4-2.9 2.1-2.3 5.1-31.3 3.5-34.2-.6-1.2-.7-2.5-.2-3 1.4-1.4 21.5-4.8 26.2-4.5 2.4.2 5.5 1.2 7 2.3zm165.3 27.3c1.1 2.1 1.8 5.8 1.8 9.2 0 4.7-.4 5.9-2.2 7.2-2.4 1.7-6.5 2.1-8.5.8-1.8-1.1-4.3-8.9-4.3-13.3 0-5.3 2.9-8.1 7.8-7.7 3.1.2 4 .9 5.4 3.8zm-17.5.1c-.8 3 1.4 14.1 3.2 16.2 1.3 1.6 1.3 1.9.1 2.7-.8.6-2.6 1-3.9 1-1.9 0-2.2-.4-1.8-2.2.7-2.7-1.4-15.8-2.5-15.8-.4 0-.8-.6-.8-1.4 0-1.3 1.2-1.8 5.4-2.5.4 0 .6.8.3 2zm69.2 7.9c-13.7 25.6-38 47.5-65.5 59-10 4.1-24.9 7.7-37.9 9-34.9 3.6-73.9-9.5-99.4-33.4-5-4.8-5.2-5.1-3-5.6 1.9-.5 3.8.5 8.2 4.2 26.4 21.9 55.1 31.8 87.7 30.4 26.4-1.1 49.5-9.2 70.9-24.9 13-9.5 29.5-29.1 36.2-42.9 1.5-3 3-4.8 4.3-5 1.2-.2 2.2 0 2.4.4s-1.6 4.4-3.9 8.8zm-79.8-5.9c1.8 1.8 2 3 1.6 6.7-.4 3.4 0 5.3 1.2 7.2 3.2 4.6 3.3 5 1.2 5-1.3 0-3-1.4-4.3-3.5-3.3-5-5.1-4.6-4.2 1 .5 3.8.4 4.5-1 4.5-.9 0-1.6-.2-1.6-.4s-.7-4-1.5-8.3-1.5-9-1.5-10.5c0-2.7.4-2.9 6.8-3.7.6 0 2.2.9 3.3 2zm-13.5 10.2c1.9 4.9 3.4 9.5 3.4 10.3 0 2.6-2.8 1.4-3.9-1.6-1.5-4.6-4.9-4.1-5.3.7-.2 2.7-.8 3.9-2 4.1-1.6.3-1.8-.7-1.8-10.6 0-6 .3-11.2.7-11.6s1.8-.6 3.1-.4c2 .3 2.9 1.8 5.8 9.1zm-16.9-4.9c-.2.6-1.4 1.1-2.8 1.1-1.9 0-2.4.5-2.4 2.4 0 1.8.8 2.7 3 3.4 1.7.5 3.8 1.6 4.8 2.5 2.1 1.8 2.3 7.5.2 9.2-1.6 1.3-7.7 1.6-9.5.5-2.1-1.3-.4-2.9 3.1-2.9 4.5-.1 4.8-3.4.4-5.5-4.7-2.2-6.5-4.2-6.5-7.3 0-2.3.6-3.2 3.1-4.2 3.5-1.5 7.2-1 6.6.8zm-13.5 4.6c.9 1.9 1.9 5.8 2.3 8.6.6 4.6.4 5.4-1.6 7.3-1.5 1.4-3.6 2.1-6.1 2.1-4.4 0-6.1-2.4-7.3-10.3-1.3-8.3 1.2-11.9 8-11.4 2.4.2 3.4 1 4.7 3.7zm-19.3 0c2.3 1.2 3.4 6.5 2 9.2-.8 1.6-.6 2.7 1.5 5.9 3.1 4.6 3.1 4.9.7 4.9-1.1 0-2.8-1.5-4-3.5-3-5.2-5-4.7-4.3 1.1.8 7-2 5.3-3.5-2.2-2.5-12.6-2.6-15.2-.6-15.7 3.2-.8 6.4-.7 8.2.3z"/><path d="m279 158.3c-4.4.8-4.7 1.1-8.4 8.3-2.2 4.1-3.7 7.7-3.4 7.9.5.5 8.6-.9 9.3-1.7s7.6-15 7.3-15.2c-.2-.1-2.3.2-4.8.7zm-20.4 3.8c-2.2.3-4.6 1.5-5.3 2.5-2.2 2.9-7.5 13.5-7 14 .4.5 8.6-1.1 9.1-1.8 1.6-2.1 7.7-14.1 7.4-14.6-.2-.4-2.1-.5-4.2-.1zm57 35.1c-.8 1.3-2 4.4-2.5 7-1.3 5.6-1.7 20-.7 21.7 1.2 1.9 4.5 1.2 6-1.2 2.1-3.2 3.8-14 3.4-22.2-.3-6.3-.5-7-2.5-7.3-1.4-.2-2.7.5-3.7 2zm-133 27c-1.6 2.3-4.3 12.5-3.5 13.3.3.2 2.1.2 4.1-.1 4-.7 4.8-2.6 4.8-11 0-3.7-.3-4.4-1.9-4.4-1.1 0-2.7 1-3.5 2.2zm-52 58c-.9 4.3-2.7 28-2.2 28.5 1.3 1.3 5.7-1 7.1-3.6 3.4-6.6 4.2-22.4 1.3-25.9-1.8-2.1-5.7-1.5-6.2 1zm174.1 21.4c-1 1-.9 4.5.4 10.4.9 4.3 1.4 5 3.4 5 3.2 0 3.7-2.2 2.2-9.5-1-4.8-1.6-6.1-3.2-6.3-1.2-.2-2.4 0-2.8.4zm-25.4 4.2c-1.9 1.2-.4 6.2 1.9 6.2 1.6 0 1.9-.6 1.6-3.2-.3-3.3-1.5-4.3-3.5-3zm-13.6 6.1c-.6 2.6 0 5.1 1.4 5.1 1.1 0 1.1-2.7 0-5.4-.7-1.9-.8-1.9-1.4.3zm-33.3 2.5c-.7 1.9 1.2 13.6 2.5 14.9.5.5 1.7.4 3-.3 2-1 2.1-1.7 1.5-5.8-1.2-8-1.9-9.7-4.2-10-1.3-.2-2.5.3-2.8 1.2zm-16.4 5.1c0 2.8.4 3.5 1.9 3.5 1 0 2.2-.7 2.5-1.6 1-2.6-.3-5.4-2.5-5.4-1.5 0-1.9.7-1.9 3.5z"/></svg>