<svg height="711" viewBox="0 -9.457 377.365 121.493" width="2500" xmlns="http://www.w3.org/2000/svg"><path d="m89.198.813c-1.158-.823-1.965-1.043-2.631-.56-.693.503-.503 1.822.188 2.331 20.584 15.182 28.688 42.773 17.922 66.009-11.89 25.66-33.6 29.252-40.787 29.407-22.325.484-43.483-12.239-43.112-43.042.2-16.47 16.523-30.408 31.359-29.6 7.901.43 13.21 3.76 16.685 7.041 7.966 7.522 6.285 18.422 4.073 19.456 0 0-.907-20.983-21.593-20.249-11.226.4-21.967 12.071-21.967 24.326 0 15.552 11.796 29.871 30.393 30.83 19.806 1.022 36.886-17.515 38.025-35.549 1.97-31.19-23.351-48.49-45.236-47.933-34.997.89-52.517 29.496-52.517 54.74 0 24.353 14.768 39.77 23.274 46.115 2.414 1.8 3.1 1.132 3.262.53.198-.742-.319-1.267-.715-1.742-3.421-4.096-21.848-14.11-22.245-45.015-.356-27.686 22.387-50.272 47.931-50.272 22.26 0 40.991 15.81 40.991 39.972 0 17.196-14.438 32.983-30.432 32.521-23.51-.678-25.911-22.4-22.272-26.22 0 0 1.747 19.52 19.778 19.782 17.938.261 24.485-15.401 23.724-27.478-.86-13.658-12.553-26.85-30.519-27.462-16.88-.575-35.358 13.315-37.64 35.42-2.248 21.782 13.233 49.126 47.231 47.919 28.623-1.017 50.482-24.841 50.482-53.558 0-32.788-23.652-47.72-23.652-47.72zm134.532 6.683c-.993-1.015-1.747-1.378-2.489-1.021-.771.37-.82 1.703-.23 2.327 17.543 18.613 20.592 47.207 5.85 68.148-16.28 23.126-38.281 22.785-45.381 21.655-22.053-3.509-40.6-19.804-34.736-50.046 3.135-16.17 21.686-26.97 36.138-23.527 7.698 1.834 12.328 6.058 15.161 9.906 6.496 8.824 2.895 19.248.534 19.871 0 0 2.854-20.808-17.632-23.778-11.117-1.612-23.768 7.956-25.955 20.013-2.776 15.303 6.274 31.498 24.401 35.761 19.305 4.54 39.42-10.65 43.76-28.19 7.506-30.338-14.32-51.88-35.954-55.239-34.592-5.37-56.938 19.647-61.444 44.487-4.347 23.961 7.431 41.767 14.668 49.528 2.054 2.203 2.848 1.668 3.115 1.104.328-.694-.087-1.303-.393-1.841-2.632-4.642-18.978-17.785-13.852-48.265 4.592-27.304 31.002-45.468 56.136-40.908 21.902 3.973 37.51 22.873 33.197 46.647-3.07 16.92-20.094 29.876-35.749 26.567-23.011-4.864-21.496-26.665-17.234-29.775 0 0-1.765 19.518 15.93 22.995 17.603 3.46 26.84-10.783 28.248-22.802 1.591-13.592-7.559-28.659-25.127-32.468-16.506-3.58-37.167 6.788-43.358 28.13-6.1 21.032 4.251 50.7 37.919 55.581 28.345 4.11 54.105-15.43 59.231-43.686 5.853-32.26-14.754-51.174-14.754-51.174zm144.942 26.176c-.368-1.371-.848-2.057-1.67-2.11-.853-.054-1.548 1.083-1.341 1.917 6.17 24.821-5.186 51.24-28.298 62.27-25.524 12.18-44.536 1.099-50.171-3.365-17.503-13.866-25.684-37.16-5.751-60.647 10.657-12.558 32.12-12.882 43.03-2.797 5.812 5.37 7.778 11.322 8.361 16.065 1.338 10.874-6.91 18.197-9.273 17.582 0 0 12.685-16.74-3.716-29.368-8.9-6.853-24.617-4.713-32.433 4.725-9.92 11.978-9.968 30.53 3.744 43.13 14.603 13.42 39.581 10.037 51.96-3.126 21.411-22.766 12.943-52.241-4.268-65.77-27.521-21.635-59.26-10.78-75.362 8.665-15.532 18.755-13.991 40.049-11.487 50.36.711 2.928 1.665 2.85 2.174 2.489.626-.444.563-1.178.56-1.797-.02-5.336-7.826-24.803 11.58-48.86 17.384-21.55 49.306-24.44 68.98-8.147 17.144 14.197 21.487 38.32 6.076 56.93-10.968 13.245-32.157 16.195-44.181 5.638-17.675-15.518-5.67-33.778-.43-34.4 0 0-11.104 16.148 2.615 27.85 13.65 11.643 28.682 3.756 35.799-6.031 8.048-11.068 7.456-28.686-5.99-40.616-12.634-11.21-35.725-12.298-51.58 3.272-15.626 15.343-21.143 46.277 5.812 67.031 22.694 17.474 54.724 13.066 73.04-9.051 20.913-25.253 12.22-51.839 12.22-51.839z"/></svg>