<svg height="2213" viewBox="0 0 230.68300000000005 204.243" width="2500" xmlns="http://www.w3.org/2000/svg"><g stroke-miterlimit="3.9" stroke-width=".501"><g fill="#06f" stroke-width=".309"><path d="M40.44 204.243h22.262s15.727-8.374 15.727-21.855c0-28.185-56.37-29.206-56.37-79.245 0-52.9 56.37-51.47 56.37-81.289C78.43 10.824 60.864 0 60.864 0H40.44s22.058 12.663 22.058 29.002C62.498 56.371 0 66.175 0 102.734c0 36.968 62.294 43.708 62.294 76.182 0 13.072-21.854 25.327-21.854 25.327z"/><path d="M66.768 204.243h22.263s15.726-8.374 15.726-21.855c0-28.185-56.37-29.206-56.37-79.245 0-52.9 56.37-51.47 56.37-81.289C104.757 10.824 87.192 0 87.192 0H66.768s22.058 12.663 22.058 29.002c0 27.369-62.498 37.173-62.498 73.732 0 36.968 62.294 43.708 62.294 76.182 0 13.072-21.854 25.327-21.854 25.327z"/><path d="M93.096 204.243h22.263s15.726-8.374 15.726-21.855c0-28.185-56.37-29.206-56.37-79.245 0-52.9 56.37-51.47 56.37-81.289C131.085 10.824 113.52 0 113.52 0H93.096s22.058 12.663 22.058 29.002c0 27.369-62.498 37.173-62.498 73.732 0 36.968 62.294 43.708 62.294 76.182 0 13.072-21.854 25.327-21.854 25.327z"/></g><g stroke-width=".162"><path d="M105.384 85.503l12.42-.857v54.82h29.124v-80.73l-41.544 1.283zM192.138 57.451c-24.412 0-38.545 17.988-38.545 40.9 0 24.198 13.598 42.4 38.545 42.4s38.545-18.202 38.545-42.4c0-22.912-14.133-40.9-38.545-40.9zm0 25.054c8.78 0 10.493 9.958 10.493 16.596 0 6.21-2.248 17.774-10.493 17.774-8.244 0-10.493-11.564-10.493-17.774 0-6.638 1.714-16.596 10.493-16.596z"/></g></g></svg>