<svg height="2500" width="2446" xmlns="http://www.w3.org/2000/svg" viewBox="0 0 1280 1308"><path d="M1026.023 456.257C958.601 313.732 820.741 216.07 661.631 216.07c-225.567 0-408.426 196.283-408.426 438.411 0 200.23 125.05 369.108 295.89 421.559V750.847L428.7 929.877 294.92 783.605l362.831-530.507 362.83 530.507-133.764 146.262-119.44-177.6v325.79c147.158-42.224 261.577-170.458 293.65-331.456H1280C1235.765 1063.942 967.513 1308 643.199 1308 287.97 1308 0 1015.194 0 654S287.97 0 643.199 0C801.5 0 946.4 58.148 1058.416 154.585V0H1280v456.257z" fill="red" fill-rule="evenodd"/></svg>