<svg height="862" viewBox="0 0 592.093 204.243" width="2500" xmlns="http://www.w3.org/2000/svg"><g stroke-miterlimit="3.9" stroke-width=".501"><g fill="navy" stroke-width=".309"><path d="M40.44 204.243h22.262s15.727-8.374 15.727-21.855c0-28.185-56.37-29.206-56.37-79.245 0-52.9 56.37-51.47 56.37-81.289C78.43 10.824 60.864 0 60.864 0H40.44s22.058 12.663 22.058 29.002C62.498 56.371 0 66.175 0 102.734c0 36.968 62.294 43.708 62.294 76.182 0 13.072-21.854 25.327-21.854 25.327z"/><path d="M66.768 204.243h22.263s15.726-8.374 15.726-21.855c0-28.185-56.37-29.206-56.37-79.245 0-52.9 56.37-51.47 56.37-81.289C104.757 10.824 87.192 0 87.192 0H66.768s22.058 12.663 22.058 29.002c0 27.369-62.498 37.173-62.498 73.732 0 36.968 62.294 43.708 62.294 76.182 0 13.072-21.854 25.327-21.854 25.327z"/><path d="M93.096 204.243h22.263s15.726-8.374 15.726-21.855c0-28.185-56.37-29.206-56.37-79.245 0-52.9 56.37-51.47 56.37-81.289C131.085 10.824 113.52 0 113.52 0H93.096s22.058 12.663 22.058 29.002c0 27.369-62.498 37.173-62.498 73.732 0 36.968 62.294 43.708 62.294 76.182 0 13.072-21.854 25.327-21.854 25.327z"/></g><g stroke-width=".184"><path d="M163.125 65.983v11.213q-5.161-4.924-9.61-7.12-7.298-3.618-14.892-3.618-8.662 0-16.315 4.627-8.306 4.984-12.696 13.646-3.678 7.238-3.678 15.484 0 15.069 11.153 24.68 9.67 8.424 21.595 8.424 8.959 0 17.265-4.983 3.025-1.78 7.178-5.636v11.213q-11.51 7.89-24.383 7.89-10.205 0-19.4-4.865-11.688-6.17-17.798-17.679-4.747-9.018-4.747-19.104 0-10.44 5.043-19.815 5.755-10.738 16.197-16.73 9.788-5.636 21.18-5.636 8.78 0 16.552 3.56 3.085 1.483 7.356 4.45zM222.57 117.42h-34.587l-9.789 22.9h-9.848l37.317-84.838 36.367 84.838h-9.908zm-3.559-8.425l-13.526-32.451-13.824 32.451zM251.878 140.32V55.957l63.124 66.09V59.34h9.077v84.66l-63.124-66.091v62.412zM387.975 117.42h-34.588l-9.789 22.9h-9.848l37.316-84.838 36.368 84.838h-9.908zm-3.56-8.425l-13.527-32.451-13.823 32.451zM426.36 59.339v72.557h22.247v8.424h-31.325V59.339z"/></g><g stroke-width=".162"><path d="M466.794 85.503l12.42-.857v54.82h29.124v-80.73l-41.544 1.283zM553.548 57.451c-24.412 0-38.545 17.988-38.545 40.9 0 24.198 13.598 42.4 38.545 42.4s38.545-18.202 38.545-42.4c0-22.912-14.133-40.9-38.545-40.9zm0 25.054c8.78 0 10.493 9.958 10.493 16.596 0 6.21-2.248 17.774-10.493 17.774-8.244 0-10.493-11.564-10.493-17.774 0-6.638 1.714-16.596 10.493-16.596z"/></g></g></svg>