<svg height="862" viewBox="0 0 592.093 204.243" width="2500" xmlns="http://www.w3.org/2000/svg"><g stroke-miterlimit="3.9" stroke-width=".501"><g fill="#000080" stroke-width=".309"><path d="m40.44 204.243h22.262s15.727-8.374 15.727-21.855c0-28.185-56.37-29.206-56.37-79.245 0-52.9 56.37-51.47 56.37-81.289.001-11.03-17.565-21.854-17.565-21.854h-20.424s22.058 12.663 22.058 29.002c0 27.369-62.498 37.173-62.498 73.732 0 36.968 62.294 43.708 62.294 76.182 0 13.072-21.854 25.327-21.854 25.327z"/><path d="m66.768 204.243h22.263s15.726-8.374 15.726-21.855c0-28.185-56.37-29.206-56.37-79.245 0-52.9 56.37-51.47 56.37-81.289 0-11.03-17.565-21.854-17.565-21.854h-20.424s22.058 12.663 22.058 29.002c0 27.369-62.498 37.173-62.498 73.732 0 36.968 62.294 43.708 62.294 76.182 0 13.072-21.854 25.327-21.854 25.327z"/><path d="m93.096 204.243h22.263s15.726-8.374 15.726-21.855c0-28.185-56.37-29.206-56.37-79.245 0-52.9 56.37-51.47 56.37-81.289 0-11.03-17.565-21.854-17.565-21.854h-20.424s22.058 12.663 22.058 29.002c0 27.369-62.498 37.173-62.498 73.732 0 36.968 62.294 43.708 62.294 76.182 0 13.072-21.854 25.327-21.854 25.327z"/></g><path d="m163.125 65.983v11.213q-5.161-4.924-9.61-7.12-7.298-3.618-14.892-3.618-8.662 0-16.315 4.627-8.306 4.984-12.696 13.646-3.678 7.238-3.678 15.484 0 15.069 11.153 24.68 9.67 8.424 21.595 8.424 8.959 0 17.265-4.983 3.025-1.78 7.178-5.636v11.213q-11.51 7.89-24.383 7.89-10.205 0-19.4-4.865-11.688-6.17-17.798-17.679-4.747-9.018-4.747-19.104 0-10.44 5.043-19.815 5.755-10.738 16.197-16.73 9.788-5.636 21.18-5.636 8.78 0 16.552 3.56 3.085 1.483 7.356 4.45zm59.445 51.437h-34.587l-9.789 22.9h-9.848l37.317-84.838 36.367 84.838h-9.908zm-3.559-8.425-13.526-32.451-13.824 32.451zm32.867 31.325v-84.363l63.124 66.09v-62.707h9.077v84.66l-63.124-66.091v62.412zm136.097-22.9h-34.588l-9.789 22.9h-9.848l37.316-84.838 36.368 84.838h-9.908zm-3.56-8.425-13.527-32.451-13.823 32.451zm41.945-49.656v72.557h22.247v8.424h-31.325v-80.981z" stroke-width=".184"/><path d="m466.794 85.503 12.42-.857v54.82h29.124v-80.73l-41.544 1.283zm86.754-28.052c-24.412 0-38.545 17.988-38.545 40.9 0 24.198 13.598 42.4 38.545 42.4s38.545-18.202 38.545-42.4c0-22.912-14.133-40.9-38.545-40.9zm0 25.054c8.78 0 10.493 9.958 10.493 16.596 0 6.21-2.248 17.774-10.493 17.774-8.244 0-10.493-11.564-10.493-17.774 0-6.638 1.714-16.596 10.493-16.596z" stroke-width=".162"/><path d="m144.576 154.552v14.79h4.535v1.717h-6.385v-16.509zm6.748 0 4.692 12.59 4.68-12.59h2.008l-6.712 17.487-6.688-17.487zm21.974 7.921q-.726-.434-1.173-1.028-.859-1.15-.859-2.6 0-1.947 1.403-3.301 1.27-1.235 3.229-1.235 2.152 0 3.483 1.5 1.136 1.282 1.136 3.024 0 1.438-.93 2.636-.496.628-1.137 1.003.773.375 1.306.979 1.088 1.257 1.088 3 0 2.25-1.596 3.651-1.379 1.222-3.362 1.222-1.451 0-2.685-.7-1.245-.7-1.874-1.96-.484-.966-.484-2.153 0-2.782 2.455-4.04zm2.588-6.482q-1.198 0-2.02.835-.847.86-.847 1.994 0 1.222.847 2.07.822.846 2.02.846 1.197 0 2.031-.847.835-.834.835-2.032 0-1.21-.835-2.031-.858-.835-2.031-.835zm-.048 7.317q-1.318 0-2.249.919-.931.931-.931 2.188 0 1.341.931 2.272.931.932 2.262.932 1.318 0 2.25-.932.93-.919.93-2.225 0-1.331-.93-2.225-.956-.932-2.263-.932zm13.629-8.998q1.753 0 3.24 1.354 1.416 1.282 2.093 3.374.544 1.716.544 3.737 0 3.58-1.633 6.023-.774 1.147-1.971 1.862-1.113.666-2.298.666-1.765 0-3.301-1.416-1.33-1.222-2.008-3.253-.592-1.766-.592-3.918 0-2.347.81-4.33.798-1.984 2.273-3.095 1.33-1.004 2.842-1.004zm-.038 1.682q-1.729 0-2.83 1.825-1.257 2.092-1.257 4.946 0 2.879 1.185 4.935 1.113 1.922 2.927 1.922 1.705 0 2.817-1.863 1.258-2.103 1.258-4.934 0-2.83-1.149-4.837-1.149-1.995-2.95-1.995zm19.048.278v14.79h-1.85v-14.79h-3.99v-1.717h9.855v1.717zm6.216-1.718 4.693 12.59 4.68-12.59h2.007l-6.712 17.487-6.687-17.487zm32.133 1.355v2.285q-1.053-1.004-1.96-1.45-1.487-.738-3.035-.738-1.766 0-3.326.943-1.693 1.016-2.588 2.782-.75 1.475-.75 3.156 0 3.072 2.274 5.03 1.971 1.717 4.402 1.717 1.826 0 3.52-1.016.616-.362 1.463-1.15v2.285q-2.346 1.61-4.97 1.61-2.08 0-3.955-.991-2.383-1.257-3.628-3.604-.968-1.838-.968-3.894 0-2.129 1.028-4.04 1.173-2.187 3.301-3.41 1.996-1.147 4.318-1.147 1.79 0 3.374.725.629.303 1.5.906zm12.117 10.485h-7.05l-1.996 4.668h-2.007l7.607-17.294 7.413 17.294h-2.02zm-.726-1.719-2.757-6.615-2.818 6.615zm6.7 6.387v-17.197l12.868 13.472v-12.783h1.85v17.258l-12.867-13.473v12.723zm27.743-4.668h-7.051l-1.995 4.668h-2.008l7.607-17.294 7.413 17.294h-2.02zm-.726-1.719-2.758-6.615-2.817 6.615zm8.55-10.121v14.79h4.535v1.717h-6.385v-16.509zm17.306 1.718h-2.734l.968-1.717h3.616v16.508h-1.85zm14.185-1.96q1.754 0 3.241 1.354 1.415 1.282 2.092 3.374.545 1.716.545 3.737 0 3.58-1.633 6.023-.774 1.147-1.971 1.862-1.113.666-2.298.666-1.766 0-3.302-1.416-1.33-1.222-2.007-3.253-.593-1.766-.593-3.918 0-2.347.81-4.33.798-1.984 2.274-3.095 1.33-1.004 2.842-1.004zm-.037 1.682q-1.73 0-2.83 1.825-1.258 2.092-1.258 4.946 0 2.879 1.186 4.935 1.112 1.922 2.926 1.922 1.705 0 2.818-1.863 1.258-2.103 1.258-4.934 0-2.83-1.15-4.837-1.148-1.995-2.95-1.995zm27.598-.085v2.285q-1.052-1.004-1.96-1.45-1.487-.738-3.035-.738-1.765 0-3.325.943-1.693 1.016-2.588 2.782-.75 1.475-.75 3.156 0 3.072 2.273 5.03 1.972 1.717 4.402 1.717 1.827 0 3.52-1.016.616-.362 1.463-1.15v2.285q-2.346 1.61-4.97 1.61-2.08 0-3.955-.991-2.382-1.257-3.628-3.604-.967-1.838-.967-3.894 0-2.129 1.028-4.04 1.173-2.187 3.301-3.41 1.995-1.147 4.317-1.147 1.79 0 3.375.725.628.303 1.5.906zm10.714-1.633q2.286 0 4.221 1.138 2.032 1.172 3.193 3.144 1.161 1.982 1.161 4.269 0 2.285-1.173 4.281-1.125 1.91-3.047 3.047-2.044 1.21-4.45 1.21-2.178 0-4.197-1.138-2.129-1.221-3.265-3.277-1.053-1.9-1.053-4.232 0-3.52 2.721-6.083 1.355-1.282 3.12-1.888 1.403-.472 2.77-.472zm-.011 1.729q-3.072 0-5.092 2.36-1.644 1.91-1.644 4.365 0 3.047 2.104 5.03 1.088 1.017 2.48 1.513 1.051.363 2.091.363 1.875 0 3.495-.979 1.597-.943 2.455-2.527.835-1.525.835-3.302 0-2.89-2.056-4.922-1.076-1.053-2.48-1.525-1.1-.375-2.188-.375zm15.902 7.667 5.249 7.39h-2.25l-4.982-7.244h-.472v7.244h-1.85v-16.508h2.673q1.741 0 2.733.316 1.596.509 2.382 1.825.666 1.1.666 2.492 0 2.419-1.79 3.664-1.028.713-2.359.822zm-2.455-1.475h1.15q1.68 0 2.563-.665 1.076-.822 1.076-2.347 0-1.622-1.197-2.382-.858-.531-2.491-.531h-1.1zm10.244 8.865v-16.508h3.386q2.576 0 4.245.75 2.442 1.113 3.7 3.471.968 1.79.968 4.027 0 3.955-2.903 6.35-1.487 1.246-3.18 1.631-1.234.278-2.854.278zm1.85-1.716h1.608q2.927 0 4.729-1.513 2.25-1.888 2.25-5.019 0-2.103-1.09-3.76-1.85-2.782-5.889-2.782h-1.608zm21.151-15.07q2.286 0 4.22 1.138 2.032 1.172 3.193 3.144 1.162 1.982 1.162 4.269 0 2.285-1.173 4.281-1.125 1.91-3.048 3.047-2.044 1.21-4.45 1.21-2.177 0-4.197-1.138-2.128-1.221-3.265-3.277-1.052-1.9-1.052-4.232 0-3.52 2.721-6.083 1.355-1.282 3.12-1.888 1.403-.472 2.77-.472zm-.012 1.729q-3.072 0-5.091 2.36-1.645 1.91-1.645 4.365 0 3.047 2.105 5.03 1.088 1.017 2.479 1.513 1.052.363 2.092.363 1.874 0 3.495-.979 1.596-.943 2.455-2.527.834-1.525.834-3.302 0-2.89-2.056-4.922-1.076-1.053-2.479-1.525-1.1-.375-2.188-.375zm11.598 15.057v-16.508h2.987q1.741 0 2.709.413 1.318.544 2.02 1.838.556 1.028.556 2.2 0 1.475-.774 2.444-.254.315-.859.797 1.052.316 1.693.884.641.569 1.028 1.463.387.894.387 1.863 0 2.116-1.669 3.47-.846.679-1.717.895-.93.248-2.237.248zm1.85-9.227h1.39q1.186 0 1.718-.224.822-.363 1.221-1.197.29-.594.29-1.344 0-1.415-.882-2.165-.726-.629-2.298-.629h-1.439zm0 7.51h2.104q1.403 0 2.08-.266.98-.4 1.488-1.257.375-.653.375-1.438 0-1.04-.641-1.838-.653-.81-1.887-1.028-.593-.1-1.657-.1h-1.862zm19.99-2.951h-7.05l-1.995 4.668h-2.008l7.607-17.294 7.413 17.294h-2.02zm-.725-1.719-2.758-6.615-2.817 6.615zm21.961 1.719h-7.05l-1.995 4.668h-2.008l7.607-17.294 7.413 17.294h-2.02zm-.725-1.719-2.758-6.615-2.817 6.615zm11.005-1.003 5.248 7.39h-2.25l-4.982-7.244h-.471v7.244h-1.85v-16.508h2.672q1.742 0 2.733.316 1.597.509 2.383 1.825.665 1.1.665 2.492 0 2.419-1.79 3.664-1.028.713-2.358.822zm-2.455-1.475h1.149q1.68 0 2.563-.665 1.077-.822 1.077-2.347 0-1.622-1.198-2.382-.858-.531-2.49-.531h-1.101zm18.708.581h6.881q0 1.887-.23 2.902-.533 2.466-2.746 4.088-2.164 1.597-4.85 1.597-2.188 0-4.135-1.1-2.189-1.247-3.362-3.46-.98-1.85-.98-3.954 0-2.453 1.294-4.535 1.222-1.96 3.278-3.035 1.898-1.004 4.063-1.004 2.854 0 5.055 1.682.822.628 1.899 1.91l-1.355 1.234q-.846-1.113-1.56-1.681-1.765-1.416-4.039-1.416-1.669 0-3.156.797-1.73.92-2.697 2.6-.92 1.585-.92 3.471 0 2.94 2.13 4.91 2.007 1.85 4.51 1.85 2.2 0 3.967-1.438 1.439-1.184 1.753-2.89.06-.315.097-.81h-4.898zm18.467-6.506h-6.7v4.897h6.518v1.717h-6.518v6.458h6.7v1.716h-8.55v-16.508h8.55zm3.059 14.79v-17.197l12.868 13.472v-12.783h1.85v17.258l-12.867-13.473v12.723zm22.7-14.79v14.79h-1.85v-14.79h-3.991v-1.717h9.856v1.717zm8.03-1.718v16.508h-1.85v-16.508zm3.954 16.508v-17.197l12.868 13.472v-12.783h1.85v17.258l-12.867-13.473v12.723zm27.743-4.668h-7.05l-1.996 4.668h-2.008l7.607-17.294 7.413 17.294h-2.02zm-.726-1.719-2.757-6.615-2.818 6.615z" stroke-width=".037"/></g></svg>