<svg height="672" viewBox="-.00639149 -.00639149 273.86178199 73.64578199" width="2500" xmlns="http://www.w3.org/2000/svg"><g fill-rule="evenodd"><path d="m208.77 0c-1.127 1.649-1.928 3.525-1.928 5.536 0 11.45 26.148 15.552 26.148 30.848 0 15.467-26.063 18.287-26.063 31.874 0 1.9 1.105 3.758 2.545 5.375h2.814c-.652-1.15-1.094-2.464-1.094-3.923 0-11.792 23.585-12.22 23.585-33.155 0-22.132-23.585-21.534-23.585-34.01 0-.861.256-1.719.673-2.545z" fill="#0055d4"/><path d="m219.786 0c-1.128 1.649-1.929 3.525-1.929 5.536 0 11.45 26.149 15.552 26.149 30.848 0 15.467-26.063 18.287-26.063 31.874 0 1.9 1.104 3.758 2.544 5.375h2.815c-.653-1.15-1.095-2.464-1.095-3.923 0-11.792 23.585-12.22 23.585-33.155 0-22.132-23.585-21.534-23.585-34.01 0-.861.257-1.719.673-2.545z" fill="#0055d4"/><path d="m230.8 0c-1.126 1.649-1.927 3.525-1.927 5.536 0 11.45 26.148 15.552 26.148 30.848 0 15.467-26.063 18.287-26.063 31.874 0 1.9 1.104 3.758 2.545 5.375h31.803a10.52 10.52 0 0 0 10.543-10.543v-52.546a10.52 10.52 0 0 0 -10.543-10.544z"/><path d="m201.27 73.633c-.652-1.15-1.094-2.464-1.094-3.923 0-11.792 23.586-12.22 23.586-33.155 0-22.132-23.586-21.534-23.586-34.01 0-.861.257-1.719.673-2.545h-190.305a10.52 10.52 0 0 0 -10.544 10.544v52.546a10.52 10.52 0 0 0 10.544 10.543z" fill="#0055d4"/></g><g fill="#fff"><path d="m34.755 46.94v-4.138h-19.063c-1.854 0-2.682-.6-2.682-1.77v-9.274c0-1.17.828-1.77 2.682-1.77h19.006v-4.137h-18.978c-5.137 0-6.963 1.998-6.963 5.736v9.617c0 3.738 1.826 5.735 6.963 5.735zm7.18 0v-6.735h17.721v6.734h4.138v-13.925c0-4.595-2.682-7.163-8.133-7.163h-9.73c-5.451 0-8.134 2.568-8.134 7.163v13.925zm0-13.926c0-2.026.913-3.025 4.024-3.025h9.674c3.11 0 4.023.999 4.023 3.025v3.338h-17.72zm29.708 13.926v-15.126l18.52 14.953c.429.343.942.485 1.399.485 1.027 0 1.94-.77 1.94-2.111v-19.291h-4.137v15.153l-18.52-14.953a2.252 2.252 0 0 0 -1.399-.485c-1.027 0-1.94.77-1.94 2.111v19.264zm29.706 0v-6.735h17.721v6.734h4.138v-13.925c0-4.595-2.683-7.163-8.133-7.163h-9.731c-5.45 0-8.133 2.568-8.133 7.163v13.925zm0-13.926c0-2.026.913-3.025 4.024-3.025h9.673c3.11 0 4.024.999 4.024 3.025v3.338h-17.721zm44.404 13.926v-4.138h-14.696v-16.952h-4.138v21.088z" stroke-width="2.14"/><path d="m169.004 51.067v-20.884c0-5.28-3.882-7.803-9.666-7.803h-3.998v5.629h4.037c2.329 0 4.037 1.01 4.037 3.067v19.99z" stroke-width="2.911"/><path d="m196.658 50.956c6.471 0 8.772-2.697 8.772-7.742v-12.98c0-5.046-2.3-7.742-8.772-7.742h-15.209c-6.471 0-8.772 2.696-8.772 7.741v12.98c0 5.046 2.3 7.743 8.772 7.743zm-18.624-20.491c0-1.58 1.042-2.389 3.38-2.389h15.28c2.336 0 3.38.81 3.38 2.389v12.518c0 1.579-1.044 2.388-3.38 2.388h-15.28c-2.338 0-3.38-.81-3.38-2.388z" stroke-width="2.791"/></g></svg>