<svg height="1179" viewBox="-.00798894 -.00851973 584.24698894 275.45903946" width="2500" xmlns="http://www.w3.org/2000/svg"><g fill-rule="evenodd"><path d="m348.085 0c-6.977 7.526-13.03 17.098-13.03 27.684 0 41.89 95.66 56.896 95.66 112.853 0 56.583-95.348 66.9-95.348 116.605 0 6.423 3.454 12.714 8.136 18.3h10.739c-1.978-3.872-3.273-8.218-3.273-12.987 0-43.14 86.28-44.704 86.28-121.294 0-80.966-86.28-78.777-86.28-124.419 0-5.843 3.224-11.648 7.436-16.742z" fill="#000080"/><path d="m388.385 0c-6.978 7.526-13.033 17.097-13.033 27.684 0 41.89 95.66 56.896 95.66 112.853 0 56.583-95.345 66.9-95.345 116.605 0 6.423 3.453 12.714 8.135 18.3h10.737c-1.978-3.872-3.273-8.218-3.273-12.987 0-43.14 86.28-44.704 86.28-121.294 0-80.966-86.28-78.777-86.28-124.419 0-5.843 3.224-11.648 7.436-16.742z" fill="#000080"/><path d="m428.682 0c-6.978 7.526-13.03 17.097-13.03 27.684 0 41.89 95.657 56.896 95.657 112.853 0 56.583-95.345 66.9-95.345 116.605 0 6.423 3.453 12.714 8.135 18.3h145.96c7.856 0 14.18-6.324 14.18-14.18v-247.082c0-7.856-6.324-14.18-14.18-14.18z"/><path d="m313.945 275.442c-1.978-3.872-3.273-8.218-3.273-12.987 0-43.14 86.28-44.704 86.28-121.294 0-80.966-86.28-78.777-86.28-124.419 0-5.843 3.221-11.648 7.434-16.742h-303.924a14.15 14.15 0 0 0 -14.182 14.18v247.082a14.15 14.15 0 0 0 14.182 14.18z" fill="#000080"/><g fill="#fff"><path d="m217.046 34.765a98.396 98.396 0 0 0 -98.396 98.395 98.396 98.396 0 0 0 98.396 98.398 98.396 98.396 0 0 0 98.397-98.398 98.396 98.396 0 0 0 -98.397-98.395zm0 32.168a66.228 66.228 0 0 1 66.229 66.227 66.228 66.228 0 0 1 -66.23 66.23 66.228 66.228 0 0 1 -66.226-66.23 66.228 66.228 0 0 1 66.227-66.227z"/><path d="m44.926 194.4h24.498v-113.824h-24.65v-21.957l30.136-16.266h26.464v152.047h23.716v28.36h-80.164z"/></g></g></svg>