<svg height="576" viewBox="-.00186485 -.00186385 271.48472869 62.5009941" width="2500" xmlns="http://www.w3.org/2000/svg"><g fill-rule="evenodd"><path d="m217.9 0c-1.584 1.708-2.957 3.88-2.957 6.281 0 9.505 21.705 12.91 21.705 25.606 0 12.838-21.634 15.179-21.634 26.457 0 1.457.783 2.884 1.846 4.152h2.436c-.449-.879-.742-1.865-.742-2.947 0-9.788 19.576-10.143 19.576-27.52 0-18.371-19.576-17.875-19.576-28.23 0-1.326.731-2.643 1.687-3.799z" fill="#04a"/><path d="m227.043 0c-1.583 1.708-2.957 3.88-2.957 6.281 0 9.505 21.705 12.91 21.705 25.606 0 12.838-21.634 15.179-21.634 26.457 0 1.457.784 2.884 1.846 4.152h2.436c-.448-.879-.742-1.865-.742-2.947 0-9.788 19.576-10.143 19.576-27.52 0-18.371-19.576-17.875-19.576-28.23 0-1.326.731-2.643 1.687-3.799z" fill="#04a"/><path d="m236.186 0c-1.583 1.708-2.956 3.88-2.956 6.281 0 9.505 21.704 12.91 21.704 25.606 0 12.838-21.634 15.179-21.634 26.457 0 1.457.784 2.884 1.846 4.152h33.118a3.21 3.21 0 0 0 3.217-3.217v-56.062a3.21 3.21 0 0 0 -3.217-3.217z"/><path d="m210.153 62.496c-.449-.879-.743-1.865-.743-2.947 0-9.788 19.577-10.143 19.577-27.52 0-18.371-19.577-17.875-19.577-28.23 0-1.326.731-2.643 1.687-3.799h-207.88a3.21 3.21 0 0 0 -3.217 3.217v56.063a3.21 3.21 0 0 0 3.218 3.217z" fill="#04a"/><g fill="#fff"><path d="m188.167 7.888a22.325 22.325 0 0 0 -22.325 22.325 22.325 22.325 0 0 0 22.325 22.326 22.325 22.325 0 0 0 22.326-22.326 22.325 22.325 0 0 0 -22.326-22.325zm0 7.299a15.027 15.027 0 0 1 15.027 15.026 15.027 15.027 0 0 1 -15.027 15.027 15.027 15.027 0 0 1 -15.026-15.027 15.027 15.027 0 0 1 15.026-15.026z"/><path d="m149.115 44.108h5.558v-25.826h-5.593v-4.982l6.838-3.69h6.004v34.498h5.381v6.435h-18.188z"/></g></g><path d="m32.8 40.732v-3.93h-18.105c-1.762 0-2.548-.57-2.548-1.681v-8.81c0-1.111.786-1.68 2.548-1.68h18.053v-3.931h-18.028c-4.879 0-6.614 1.897-6.614 5.448v9.134c0 3.551 1.735 5.449 6.614 5.449zm6.821 0v-6.397h16.833v6.397h3.93v-13.228c0-4.364-2.548-6.804-7.725-6.804h-9.243c-5.177 0-7.725 2.44-7.725 6.804v13.228zm0-13.228c0-1.925.868-2.873 3.822-2.873h9.19c2.954 0 3.821.948 3.821 2.873v3.171h-16.833zm28.219 13.228v-14.366l17.592 14.203c.406.325.894.46 1.328.46.976 0 1.843-.731 1.843-2.005v-18.324h-3.93v14.394l-17.593-14.204a2.14 2.14 0 0 0 -1.328-.46c-.976 0-1.843.731-1.843 2.005v18.297zm28.217 0v-6.397h16.832v6.397h3.93v-13.228c0-4.364-2.547-6.804-7.725-6.804h-9.243c-5.177 0-7.725 2.44-7.725 6.804v13.228zm0-13.228c0-1.925.867-2.873 3.821-2.873h9.19c2.954 0 3.821.948 3.821 2.873v3.171h-16.832zm42.178 13.228v-3.93h-13.96v-16.102h-3.93v20.032z" fill="#fff" stroke-width="2.033"/></svg>