<svg height="1242" viewBox="0 0 560.963 278.671" width="2500" xmlns="http://www.w3.org/2000/svg"><g fill-rule="evenodd"><path d="m314.663 0c-4.266 6.24-7.3 13.34-7.3 20.95 0 43.336 98.964 58.86 98.964 116.749 0 58.536-98.639 69.21-98.639 120.63 0 7.191 4.18 14.223 9.63 20.342h10.651c-2.47-4.349-4.142-9.324-4.142-14.844 0-44.63 89.26-46.247 89.26-125.481 0-83.762-89.26-81.499-89.26-128.716 0-3.258.971-6.503 2.547-9.63z" fill="#0055d4"/><path d="m356.351 0c-4.265 6.24-7.299 13.34-7.299 20.95 0 43.336 98.963 58.86 98.963 116.749 0 58.536-98.638 69.21-98.638 120.63 0 7.191 4.18 14.223 9.63 20.342h10.651c-2.47-4.349-4.142-9.324-4.142-14.844 0-44.63 89.26-46.247 89.26-125.481 0-83.762-89.26-81.499-89.26-128.716 0-3.258.971-6.503 2.546-9.63z" fill="#0055d4"/><path d="m398.04 0c-4.266 6.24-7.297 13.34-7.297 20.95 0 43.336 98.961 58.86 98.961 116.749 0 58.536-98.638 69.21-98.638 120.63 0 7.191 4.18 14.223 9.63 20.342h120.364c22.106 0 39.903-17.795 39.903-39.9v-198.869c-.001-22.105-17.798-39.902-39.903-39.902z"/><path d="m286.28 278.671c-2.47-4.349-4.142-9.324-4.142-14.844 0-44.63 89.26-46.247 89.26-125.481 0-83.762-89.26-81.499-89.26-128.716 0-3.258.972-6.503 2.547-9.63h-244.782c-22.106 0-39.903 17.797-39.903 39.903v198.867c0 22.106 17.797 39.901 39.903 39.901z" fill="#0055d4"/></g><g fill="#fff"><path d="m107.977 215.392v-111.25c0-28.124-20.679-41.565-51.49-41.565h-21.299v29.984h21.506c12.407 0 21.506 5.377 21.506 16.336v106.495z" stroke-width="15.509"/><path d="m255.29 214.799c34.474 0 46.731-14.363 46.731-41.242v-69.146c0-26.878-12.257-41.241-46.731-41.241h-81.015c-34.474 0-46.732 14.363-46.732 41.241v69.146c0 26.88 12.258 41.242 46.732 41.242zm-99.21-109.157c0-8.412 5.555-12.72 18.004-12.72h81.397c12.45 0 18.003 4.308 18.003 12.72v66.684c0 8.413-5.554 12.722-18.003 12.722h-81.397c-12.45 0-18.004-4.31-18.004-12.722z" stroke-width="14.868"/></g></svg>