<svg height="2500" viewBox="0 0 2000 2000" width="2500" xmlns="http://www.w3.org/2000/svg"><path d="m0 0h2000v2000h-2000z" fill="#fefffe"/><path d="m655 889h15l15 4 10 6 6 5 8 12 3 9v16l-4 10-11 12-8 5-14 5h-26l-15-5-9-6-5-5-6-8-3-9v-18l3-9 6-8 9-8 11-5zm981 0 45 1 8 4 5 4 5 10v9l-3 8-7 6-12 6 1 4 13 16 7 8 7 6v2h-37v-3l4-3-2-6-11-13-6-9-4-2h-17v30l4 5v1h-29l1-4 2-4v-69l-4-4v-2zm-247 1h33l-1 4-1 6 11 9 15 14 8 7 7 7 7 4-1-47-4-1-1-3h29v3l-3 3-1 70 4 4v3l-9 1-21-1 1-4 1-1v-5l-14-11-15-14-16-14v-2h-4v45l4 4v2h-28l1-4h2v-73l-4-3zm-868-1h6l1 3-2 3v5l10 9 8 7 13 12 8 7 6 6h2l-1-46-5-5 27-1 2 1-1 4h-2v72l3 4-1 4-29-1 2-4 1-5-11-9-10-9-11-10-8-7-7-7-3-1v45l4 5v2h-27l1-4 1-2 1-24v-43l-2-5-2-2v-3zm236 0 44 1 8 6 7 8 2 5v8l-3 7-9 8-10 4h-45v29l1 3 4 3v2h-30l1-4 2-1 1-3v-62l-1-8-4-3v-2zm262-19 18 1 18 6 16 7 7 2-2 4-10 13-4-2-8-8-11-5-11-3h-15l-8 2-10 5-9 9-4 9-1 4v17l4 10 7 9 9 6 8 3h23l15-5 9-7 5-5 15 15v2l-9-1-15 8-15 6-4 1h-29l-13-4-9-4-9-6-7-7-6-10-3-11v-19l5-14 7-9 7-7 13-7 14-4zm-707 0h9l11 1 21 8 10 5 9 3-6 8-7 9-3-1-4-6-9-6-12-5-6-1h-15l-10 3-11 7-7 9-3 8-1 5v11l3 10 6 9 8 7 11 5 8 1 16-1 14-5 9-6 4-6 4 2 7 8 6 5v2h-12l-17 9-13 5h-32l-17-6-11-7-9-9-6-12-3-13v-8l4-16 5-9 5-6 11-8 8-4 14-4zm105 19h16l17 1-2 4-3 3 1 7 28 50 8 11 5 7v1h-35l2-4 3-2v-5l-4-5-3-1h-39l-5 5-1 5 4 5v2h-31l6-8 13-23 9-17 10-19 2-4v-6l-4-4v-2zm891 1h36l-5 9 2 6 12 21 10 18 12 20 6 7v2h-34l1-4 4-2-1-5-4-5-2-1h-42l-2 5-2 7 4 2 1 3h-30l7-11 13-25 12-22 8-16-2-4-4-3zm-46-1 4 1-1 7v8l-7-1-51-1v19l31-1 4-4 3 1-1 22-5-1-3-2-29-1v24l56-1 6-3-1 15v4l-9-1h-58l-18-1 1-4 2-2v-71l-6-5v-1zm244 1h85l-1 15-7-1-51-1v19l31-1 5-4 2 3-1 20-5-1-4-2-28-1v24l60-1 1-2v17h-71l-15-1v-3l4-3v-71l-5-4zm-685-1h27l11 1-1 3-5 2 1 6 11 14 3 5 3-1 7-11 5-6v-6l-4-5v-1l38-1-3 5-8 8-10 13-14 19-3 5v27l4 5v2h-31l2-4 4-4v-26l-14-19-14-17-7-8-4-5z" fill="#6dcc79"/><path d="m654 903h15l8 3 10 8 4 7 1 4v13l-5 10-5 6-8 5-10 2h-7l-10-3-8-6-5-6-3-6-1-4v-9l4-10 7-8 6-4z" fill="#fefffe"/><path d="m1097 889 26 1-1 3-3 3v63h51l4-1-1 10 1 6-82-1v-3l4-2 1-2v-72l-5-2v-2z" fill="#6dcc79"/><path d="m1632 903h41l4 2 1 2v10l-1 3-5 2h-40l-1-1v-17zm-880 0h37l6 2 1 2v12l-3 3-40 1-2-1-1-16zm-322 15 4 2 8 15 2 5-1 1h-26l2-6zm894 0 3 1 7 12 4 6v4h-26l2-6z" fill="#fefffe"/></svg>