<svg height="1032" viewBox="0 -2.462 394.3 165.3" width="2500" xmlns="http://www.w3.org/2000/svg"><g stroke-miterlimit="10"><path d="m61.5 7.238c5.1 7.1 13 15.2 13.8 13.9.2-.4 1.2-3.2 2.1-6.1 1-2.8 2-5.2 2.3-5.2s4.8-.9 10.1-1.9c5.4-1.1 11.9-2.1 14.6-2.3 4.8-.3 5-.2 9.2 4.9 4.1 5 4.3 5.1 4.6 2.6.4-3.8 4.6-4.6 21.3-4 10.6.3 15.5 1 20.1 2.5 5.8 2 7.1 2.1 21.5 1.2 8.5-.5 20.7-1 27.2-1h11.7v2.6c0 2.5.2 2.6 3.5 2 2-.4 9.7-.4 17.2 0l13.5.7 2.3 5.1c1.2 2.8 2.7 6.2 3.2 7.6l1.1 2.5 1.1-3c2.2-5.9 3.4-7.3 7.2-9 7.7-3.5 20.8-.4 24.8 5.8l1.9 3.1 2.2-3.7c2.5-4.2 5.5-4.9 6.5-1.5.4 1.3 4 5.5 8.1 9.4l7.4 7.1 2.6-8.3c3.8-12 4-12.2 10-9.9 7.3 2.7 28.4 13.3 32.2 16.2 2 1.5 3.2 3.3 3.2 4.8 0 2.4-3.9 8.1-11.3 16.5-4.6 5.3-13.7 18.7-13.7 20.2 0 1.1 10.9.7 21.4-.8l4.9-.7-.7 4.3c-.5 3.3-.4 4.1.7 3.7 6.6-2.5 18.5-5.7 21.4-5.7h3.6l-.6 6.8c-.5 5.8-4.3 25.4-6.5 33.1-.5 1.6-2.6 3.4-6.9 5.5-3.5 1.7-6.3 3.6-6.3 4.2s1 3.3 2.1 5.9c2 4.5 2 5 .6 8.1-1.8 3.8-10.4 9.9-20.9 14.9-6.3 3.1-8.2 3.5-14.9 3.5-10.3 0-20.1-3-24.7-7.6-2.1-2.1-4.4-3.4-6-3.4-1.5 0-5.7-1.5-9.5-3.3-6.3-3-6.7-3.4-6.3-5.9.8-3.9-1.2-4.5-3.9-1.2-2.9 3.5-4.4 2.9-9.5-3.9l-3.5-4.7-2.1 2.7-2.1 2.6-7.4-2.7c-4-1.5-10.2-3-13.6-3.3-5.2-.5-6.3-.9-6.3-2.4 0-2.9-1.9-3.2-2.9-.6-1.4 3.7-2.4 3.9-8.3 1.9-5.2-1.8-5.3-1.9-5-5.5.3-3.2.1-3.7-1.7-3.7-1.5 0-2.3 1-3.1 4-1.2 4.4-1.8 4.7-6 2.5-2.1-1.1-4.5-1.3-8.3-.9-5.2.6-5.6.5-9.4-3-2.2-2-4.3-3.6-4.6-3.6-.4 0-.9 2.2-1.3 5-.4 2.7-1.2 5-1.8 5s-5.1-.7-10.1-1.5c-4.9-.8-14.6-1.9-21.5-2.5-6.8-.6-12.8-1.4-13.2-1.8s-5.3 1.4-10.8 4.1c-8.4 4.2-10 5.3-10 7.3 0 2.3-.1 2.3-3.8 1-2.2-.8-5.7-2.3-8-3.5-6.8-3.5-7.5-3.1-6.7 3.8l.7 5.8-4.8.7c-2.6.3-7.9.6-11.8.6h-7.2l-1.2 3.4c-2.5 6.9-13.5 9.4-26.3 6.1-7.9-2.1-22.6-8.5-28.3-12.4-6.4-4.4-13.5-11.9-17.4-18.4-4.7-7.8-13.2-27.1-13.2-30 0-2.8 1.9-4.7 7.8-7.6 2.4-1.2 4.6-2.9 4.9-3.7s-1.6-5.1-4.1-9.5c-5.9-10.1-7.2-16.4-5.3-24.8 3-13.1 15.6-27.6 34.8-40.4 15.1-10 16.4-10 23.4-.3z"/><g fill="#fff" stroke-width=".5"><path d="m387.037 90.505c-.1 1.6-1.091 8.013-2.391 14.313l-2.296 11.52-7.4.602c-12.8.9-15.024 4.84-8.124 13.64 5.9 7.4 6.497 8.802 4.397 10.602-3.2 2.9-11.134 4.105-19.334 2.905-9.8-1.5-22.03-5.22-22.63-7.02-.6-1.4 1.595-9.209 2.595-9.209.3 0 3.188.653 6.188 1.453 5.9 1.6 10.976 1.88 14.776.78 2.7-.7 2.542-2.424-.158-9.824-4.1-10.8 7.071-23.668 26.271-30.168 8.3-2.8 8.106-2.794 8.106.406z"/><path d="m359.037 88.504c.1 1.4-11.49 25.25-12.19 25.25-.4.1-3.197-1.716-6.097-3.916s-5.543-3.95-5.843-3.95c-.9 0-4.48 7.708-7.98 17.508l-3.15 8.386-6.112-3.508c-7.5-4.1-7.515-4.431-.515-16.631 4.2-7.3 4.906-9.13 3.706-9.93-.8-.5-2-.697-2.6-.397-2.1.7-1.491-2.414 1.409-7.614 2.7-4.6 2.917-4.81 7.817-5.21 10.1-.7 31.555-.688 31.555.012zm-21.31-56.208c3.8 1.4 9.817 4.417 13.617 6.617 6 3.6 6.604 4.21 5.504 5.71-9.2 12.4-23.232 30.362-25.832 32.762-3.1 2.9-3.21 3.002-4.61 1.002-3.7-5.1-11.942-14.514-12.642-14.514-1.2 0-2.733 3.526-2.733 6.126 0 1.3-.66 3.28-1.26 4.18-1.2 1.5-1.908 1.492-8.608.092-4.1-.8-8.407-1.91-9.707-2.41l-2.401-.902 6.195-18.525 6.214-18.63 3.772 3.769c2.1 2.1 6.405 7.193 9.505 11.493 3.2 4.3 6.093 7.736 6.493 7.736 1.2 0 2.578-4.113 4.878-14.413 2.5-11.6 2.801-12.6 3.901-12.6.5 0 4.014 1.107 7.714 2.507zm-52.691-4.993c6.1 3.2 4.89 10.678-2.01 12.578-3.5.9-4.753.799-7.853-.701-4.2-2.1-7.02-6.858-5.52-9.258 2.5-4 10.183-5.32 15.383-2.62zm-3.707 18.594c2.3.6 3.71 1.51 3.41 2.21-.2.7-1.893 5.65-3.693 10.95-1.8 5.4-3.635 9.83-3.935 9.83s-3.529-.802-7.129-1.802l-6.52-1.915.29-5.416c.2-3 .81-7.847 1.41-10.747l1.212-5.412 5.517.694c3.1.3 7.338 1.108 9.438 1.608zm28.709 38.809c5.6 2.1 5.611 2.842-.989 17.142-2.6 5.8-5.121 11.432-5.421 12.532-.8 2.2-1.121 1.907-9.421-8.393-4.4-5.4-5.878-5.39-6.678.51-1 7.7-.867 7.573-8.367 4.073l-6.908-3.213 1.697-5.01c2.4-7 8.122-19.551 8.922-19.551 1 0 7.425 6.892 10.125 10.792 2.8 4.1 3.88 3.295 4.58-3.805.8-8 .946-8.289 4.646-7.489 1.8.4 5.314 1.512 7.814 2.412zm-43.006-9.406c.6.4 1.018 7.142 1.018 16.142l-.018 15.435-3.707.004c-5.3 0-6.341-1.09-6.041-5.59.2-3.5-.075-3.904-2.575-4.804-3.2-1.2-4.328-.203-5.428 4.697-.8 3.7-1.611 3.994-5.511 1.994-1.8-1-3.409-1.909-3.609-1.909-.4-.2 6.514-13.975 9.214-18.375 1.3-2 3.125-4.906 4.125-6.506 1.6-2.7 2.019-2.796 6.619-2.296 2.7.3 5.413.907 5.913 1.207zm-63.616-12.51c7.8 1.8 12.333 8.038 9.833 13.538-1 2.2-1.8 2.507-6.1 2.507-2.7 0-5.3.51-5.6 1.01-1.3 2.2 2.21 5.665 7.11 6.965 2.6.7 5.184 1.653 5.684 2.053.7.6-1.912 8.014-2.912 8.014-1.4 0-7.318-3.69-10.718-6.59-2-1.9-4.224-3.4-4.724-3.4-.6 0-.978 2.002-.978 4.502l-.019 4.798-5.214-.704c-2.9-.4-5.612-1.009-6.012-1.409-.9-.9-2.807-18.664-2.807-26.264l.006-6.008 9.316-.01c5 0 11.035.499 13.135.999zm46.414-39.492c.4.3 7.208 35.873 7.208 37.873 0 1.6-.91 1.808-7.71 1.508l-7.813-.293-.334-5.394-.255-5.111-4.52.007-4.422-.003.028 4.004-.02 4.298-7.819-.607c-4.3-.3-8.613-.912-9.513-1.312-2.1-.8-2.21-.536 4.49-17.736 2.7-7.1 5.124-14.137 5.424-15.737l.604-2.802 12.227.495c6.6.3 12.225.71 12.425.81zm-14.519 44.292c6.5 2.9 10.738 6.936 10.738 10.236 0 7.4-4.44 11.561-12.54 11.561l-5.03-.003-1.298 4.2c-1.4 4.4-2.41 4.894-7.01 3.694-2.6-.8-2.716-.363.484-21.863l1.62-10.82 4.409.596c2.5.3 6.427 1.398 8.627 2.398zm-59.277 2.212.01 5.111-6.072-.634c-5.6-.6-5.958-.493-5.958 1.407 0 4.1 1.035 5.04 4.435 4.44 2.6-.4 3.5-.084 4 1.316.7 1.9-.818 3.435-3.718 3.435-1.3 0-1.744.513-1.544 2.113.3 2 .884 2.307 4.284 2.307 4.5-.1 5.562.879 5.562 4.779l-.004 2.803-8.72.008c-4.9 0-9.43-.404-10.03-.804-1.4-.9-4.618-19.977-4.118-24.677.3-2.9.725-3.216 7.325-4.816 3.9-.9 8.733-1.698 10.833-1.698l3.708-.096zm36.012-40.883.004 10.023-7.2-.708-7.1-.694.59 4.929c.3 2.7.884 6.813 1.284 9.113l.697 4.301-10.326.005-10.322-.008.59-8.51c.6-8.1.487-8.528-1.613-9.028-1.2-.3-3.3-.402-4.7-.302-2.8.3-2.794.474-1.494-11.426l.707-6.71 12.621-.413c7-.1 15.746-.393 19.546-.493l6.707-.194zm-57.529-12.628c7.6 2 10.825 4.32 11.925 8.62 1.8 7.4-3.994 14.44-12.094 14.44-5.2 0-5.328.733-2.128 10.733 1.2 3.7 1.897 7.001 1.597 7.401-.8.8-13.14 2.297-19.04 2.397-4.7 0-4.81-.007-4.91-3.307 0-1.7-.205-3.905-.305-4.705-.2-.8-.612-6.527-1.012-12.527-.4-6.1-.89-13.635-1.29-16.735l-.495-5.706 3.305-.902c5.3-1.6 17.948-1.408 24.448.292zm-10.687 51.507c4 2.4 6.219 7.33 6.219 13.53 0 9.7-5.246 15.56-18.246 20.56-4.3 1.7-8.121 2.997-8.621 2.997s-3.03-6.932-5.63-15.332c-2.6-8.3-5.192-16.545-5.692-18.145-.5-1.7-.597-3.304-.197-3.704 1-1 7.138-1.516 19.338-1.716 8-.2 10.029.11 12.829 1.81zm-32.805-50.803c1.7 2.4 5.22 8.421 7.62 13.421 3.9 7.6 4.703 10.334 5.303 17.234.9 11.1.587 11.724-7.213 13.124-10.5 1.8-10.16 2.02-12.26-6.58-1-4.1-2.041-7.62-2.341-7.82s-2.738-.086-5.438.214l-4.664.511-.018 10.791c0 8.1-.325 10.997-1.225 10.997-.7-.1-4.213-.705-7.813-1.505s-8.01-1.408-9.71-1.508c-2.3 0-3.304-.503-3.304-1.603 0-4 11.714-44.977 13.814-48.077.7-1.1 12.536-3.005 20.436-3.305 3.2-.1 4.013.406 6.813 4.106zm-57.1-7.9c1.2 3.7 5.222 22.927 4.922 23.227-.2.1-3.199 1.502-6.799 3.202-7.6 3.5-12.44 7.363-14.74 11.663-1.5 3-1.516 3.102.784 4.902 1.9 1.5 3.28 1.808 7.38 1.308 2.7-.3 7.485-.885 10.485-1.185l5.588-.553 1.695 9.31c1.3 7.2 1.393 9.506.493 10.106-5.4 3.5-24.645 4.812-35.745 2.412-14-3-20.333-9.328-20.233-20.328.1-12.7 10.65-26.17 31.15-39.77 6.9-4.6 12.916-8.196 13.316-7.996.3.2 1.104 1.902 1.704 3.702zm13.715 75.912c3.8 11.8 4.505 28.953 1.505 36.953-3.4 9.1-9.928 14.225-19.528 15.525-13.6 1.9-28.867-10.349-38.767-31.149-5.5-11.6-5.591-11.226 3.109-16.126 9.7-5.6 13.621-7.018 15.521-5.418.8.6 3.103 5.199 5.103 10.099 4.3 10.4 7.467 13.853 10.767 11.553 2.9-1.9 2.633-6.559-.867-14.359-2.4-5.4-2.574-6.596-1.374-7.796 1.1-1 18.023-6.99 21.123-7.39.4-.1 1.907 3.608 3.407 8.108zm39.887-8.011c.4 1.8 2.722 8.631 5.222 15.131s4.297 12.13 3.897 12.43c-.3.3-4.801-1.097-10.101-3.097-5.2-2-9.925-3.576-10.525-3.576-1.6 0-1.23 3.205 1.47 10.405 1.4 3.7 2.421 6.998 2.221 7.298-.7.6-12.034 2.295-15.934 2.295-3.1 0-3.908-.405-4.308-2.305-.3-1.2-1.414-6.017-2.514-10.717s-2.302-11.838-2.702-15.838l-.595-7.312 5.402 2.198c9.7 3.8 13.127 4.882 14.027 4.282.5-.2.025-2.703-1.075-5.603s-2.025-5.797-2.025-6.497c0-1.2 3.628-1.8 12.228-2.1 4.5-.2 4.712-.094 5.312 3.006z"/></g><path d="m97.65 26.419c2.6 5 2 6.5-2.3 6.6l-3.9.1.7-3.7c.4-2 1-4.2 1.4-4.8 1.2-1.9 2.5-1.4 4.1 1.8zm48.7-5c5.1 0 6.8 6.1 2.3 8.2-3.1 1.4-3.1 1.3-4-4-.6-4-.5-4.2 1.7-4.2zm93 8.5 1.9 2.4c2.7 3.3 2.5 7.1-.3 7.1-1.3 0-3-.4-3.8-1-1.2-.8-1.2-1.4.4-4.7zm-36.2 41c0 2.4-3.1 4.5-6.6 4.5-3.3 0-3.4-.1-3.4-3.8 0-2.1.3-4.2.7-4.5 2.3-2.3 9.3.5 9.3 3.8zm28.4.9c4 .8 5 1.9 4.2 4.9-.6 2.6-5.4 4.6-7.6 3.2-1.1-.7-1.3-4.5-.4-7 .5-1.3 1.4-1.5 3.8-1.1zm-99 6.2c2.2 2.2 2 7-.5 9.5-3 3-5 2-7.2-3.9-1.7-4.6-1.8-5.5-.6-6.3 2.2-1.4 6.6-1 8.3.7zm128.8 6.4c.3 3.3.1 3.5-2.6 3.3-1.6-.1-3.1-.4-3.3-.7-.8-.7.7-4.4 2.4-6.2 2-2 3.2-.8 3.5 3.6z"/></g></svg>