<svg height="2500" viewBox="-.264 98.055 255.939 59.68" width="2500" xmlns="http://www.w3.org/2000/svg"><path d="m42.79 111.992 6.415-6.119s-4.46-3.827-7.075-5.094c-2.304-1.117-4.85-1.756-7.387-2.11-3.244-.455-6.61-.614-9.828 0-3.112.592-6.317 1.551-9.095 3.075a29.831 29.831 0 0 0 -7.122 5.459c-2.78 2.906-5.151 6.465-6.473 10.264-1.62 4.656-2.489 9.951-1.293 14.735 1.315 5.26 4.66 10.222 8.878 13.627 3.498 2.824 8.145 4.2 12.599 4.815 4.81.665 9.825-.04 14.51-1.319 3.122-.852 8.773-4.155 8.773-4.155l-5.342-6.926s-3.999 2.528-6.135 3.364c-1.579.618-3.098.856-4.782 1.055-2.052.243-4.242.122-6.266-.297-1.9-.393-3.803-.841-5.442-1.88-1.855-1.175-3.65-2.58-4.947-4.353-1.29-1.764-1.953-3.927-2.638-6.002-.31-.942-.556-1.916-.66-2.902-.153-1.466-.2-2.939.149-4.37.652-2.675 1.954-5.238 3.611-7.437 1.545-2.05 3.518-3.815 5.673-5.211 2.33-1.51 4.916-2.814 7.651-3.298 2.299-.407 4.717-.128 6.992.396 1.997.46 3.86 1.417 5.672 2.374 1.251.66 3.562 2.309 3.562 2.309zm31.463-4.518h8.64v5.738l-9.94 11.099s-.454-3.314-1.22-4.702c-.927-1.676-2.364-2.927-3.942-4.011a6.394 6.394 0 0 0 -2.425-1.026 12.724 12.724 0 0 0 -5.177.095c-1.524.34-2.876 1.052-4.115 2a13.04 13.04 0 0 0 -3.382 3.867 13.093 13.093 0 0 0 -1.591 4.433c-.2 1.182-.377 2.409-.217 3.597.214 1.592.71 3.153 1.476 4.565.682 1.258 1.461 2.129 2.661 2.908 1.388.9 2.867 1.494 4.513 1.661 1.573.16 3.306-.075 4.806-.575 2.157-.72 6.291-3.824 6.291-3.824l7.307-8.245 6.213-7.18s5-4.957 7.071-6.268c2.278-1.441 5.014-3.178 7.6-3.934 2.108-.616 4.896-1.295 7.091-1.287 1.998.008 4.028.234 5.937.825a13.65 13.65 0 0 1 3.91 1.952c1.357.976 2.604 2.163 3.545 3.544a18.54 18.54 0 0 1 2.693 6.177c.58 2.483.692 5.112.485 7.663-.152 1.873-.6 3.737-1.257 5.497-.658 1.76-1.72 3.529-2.826 5.048-1.347 1.85-2.744 3.564-4.598 4.905-1.94 1.403-4.065 2.254-6.398 2.788-2.85.652-5.455.742-8.24-.144-1.844-.586-3.936-1.577-5.324-2.923-.483-.469-1.25-1.586-1.25-1.586h-1.402l-2.073 17.604h-8.662l2.309-18.238 9.96-12.005s-.11 2.666.33 3.892c.574 1.608 1.576 3.144 2.901 4.221 1.274 1.036 2.916 1.689 4.544 1.902 1.847.242 3.778-.144 5.537-.758 1.235-.43 2.38-1.151 3.375-2.001 1.39-1.187 2.689-2.582 3.496-4.221.8-1.625 1.041-3.494 1.203-5.297.114-1.263.173-2.58-.166-3.802-.436-1.569-1.243-3.081-2.332-4.29-.973-1.081-2.249-1.917-3.592-2.473-1.11-.46-2.343-.665-3.544-.653-1.397.014-2.793.36-4.105.84-1.571.574-4.407 2.402-4.407 2.402s-4.136 4.274-7.863 8.428-6.508 8.163-9.79 11.184c-2.112 1.944-4.429 4.142-6.827 5.401a27.917 27.917 0 0 1 -7.387 2.639c-3 .609-6.19 1.234-9.168.527-3.161-.75-6.262-2.463-8.44-4.872-2.266-2.507-3.48-5.934-4.159-9.243-.486-2.37-.355-4.886.132-7.256.62-3.01 1.8-5.968 3.488-8.538 1.568-2.387 3.608-4.55 5.99-6.125 1.877-1.239 4.028-1.935 6.218-2.446 1.848-.43 3.476-.39 5.367-.24 1.406.11 2.985.324 4.268.91.985.45 2.025 1.046 2.868 1.725.823.663 1.577 1.407 2.332 2.146.401.392 1.166 1.212 1.166 1.212zm46.237.033h35.685l12.29 25.628 12.452-25.56 12.525-.266s-1.879 1.303-2.738 2.143c-1.047 1.024-2.803 3.463-2.803 3.463l-14.936 31.32-8.955.117-13.969-29.08h-8.608v29.04h-8.938v-29.11h-6.629s-1.158-3.02-2.078-4.331c-.901-1.286-3.298-3.364-3.298-3.364zm81.276-9.073h8.721l-1.166 8.675h16.177l7.783 22.428 12.994-22.228h9.4l-28.444 50.405h-9.887l10.12-17.816-8.062-24.877-10.987-.046-3.78 29.33h-9.247l4.419-29.279-7.289-.066s1.892-3.108 3.418-4.749c1.021-1.1 3.442-2.902 3.442-2.902l1.451-.033z" stroke="#000" stroke-linecap="square" stroke-miterlimit="0" stroke-width=".74735"/></svg>