<svg height="2500" width="2500" xmlns="http://www.w3.org/2000/svg" viewBox="0.5 0.5 255 255"><linearGradient id="a" gradientUnits="userSpaceOnUse" x1="129.053" x2="129.053" y1="241.053" y2="17.053"><stop offset=".51" stop-opacity=".909"/><stop offset="1" stop-color="#191919" stop-opacity=".591"/></linearGradient><g stroke-width="1.004"><path d="M62.213 61.218h131.468v99.596h-44.818v17.928h31.87v15.935H75.162v-15.935h31.871v-17.928H62.213zM176.75 77.153H79.145v67.726h97.605z" fill="#fff"/><g stroke-linejoin="round"><path d="M129.053 17.053c-61.856 0-112 50.144-112 112s50.144 112 112 112 112-50.144 112-112-50.144-112-112-112zM63.008 62.008h131.984v99.988h-44.994v17.998h31.996v15.998H76.006v-15.998h31.996v-17.998H63.008zm16.998 15.998v67.992h97.988V78.006z" fill="url(#a)" transform="matrix(.9961 0 0 .9961 -.549 -.549)"/><path d="M128 .5A127.5 127.5 0 0 0 .5 128 127.5 127.5 0 0 0 128 255.5 127.5 127.5 0 0 0 255.5 128 127.5 127.5 0 0 0 128 .5zm0 15.937A111.563 111.563 0 0 1 239.562 128 111.563 111.563 0 0 1 128 239.562 111.563 111.563 0 0 1 16.437 128 111.563 111.563 0 0 1 128 16.437z" fill="#0a0a04" stroke="#0a0a04" stroke-width="1.00007436"/></g></g></svg>