<svg height="676" viewBox="42.86 70.54 550.76 207.85" width="2500" xmlns="http://www.w3.org/2000/svg"><path d="m585.47 169.29c-.37-.41-.64-.72-.8-.87-.21-.15-.48-.31-.85-.41 1.01-.15 1.81-.51 2.34-1.08.59-.62.85-1.34.85-2.16 0-.62-.15-1.18-.43-1.64-.31-.51-.69-.87-1.11-1.13-.48-.21-1.06-.36-1.86-.46h-6.27v11.51h2.45v-4.73h.59c.69 0 1.28.15 1.7.46.43.36 1.01 1.13 1.7 2.42l1.01 1.85h2.98l-1.44-2.31c-.48-.82-.8-1.28-.85-1.44zm-2.07-2.93c-.37.1-1.22.15-2.65.15h-.96v-3.19h.96c1.38 0 2.28.05 2.6.21.37.1.64.26.85.51.16.26.26.51.26.87 0 .31-.1.62-.26.87-.21.26-.48.46-.8.57z"/><path d="m592.13 161.78c-1.01-1.75-2.45-3.08-4.2-4.01s-3.61-1.39-5.53-1.39-3.77.46-5.59 1.39c-1.75.93-3.14 2.26-4.14 4.01-1.01 1.75-1.55 3.55-1.55 5.45s.54 3.7 1.49 5.4c1.01 1.7 2.4 3.03 4.2 4.01 1.76.98 3.61 1.44 5.59 1.44s3.83-.46 5.58-1.44 3.14-2.31 4.15-4.01c1-1.7 1.49-3.5 1.49-5.4s-.48-3.7-1.49-5.45zm-1.91 9.82a8.718 8.718 0 0 1 -3.3 3.19c-1.44.77-2.92 1.18-4.51 1.18s-3.09-.41-4.46-1.18c-1.44-.77-2.56-1.85-3.35-3.19-.8-1.39-1.22-2.88-1.22-4.37s.43-2.98 1.22-4.42c.85-1.39 1.96-2.47 3.35-3.19 1.43-.77 2.92-1.13 4.46-1.13s3.03.36 4.46 1.13c1.44.72 2.55 1.8 3.35 3.19.79 1.44 1.22 2.88 1.22 4.42s-.43 2.98-1.22 4.37zm-347.02 70.9c-18.55 21.82-46.34 34.28-79.88 35.74h-.07c-2.21.1-4.46.15-6.72.15h-113.67v-103.92c0-1.89.05-3.76.13-5.63.07-1.45.18-2.9.3-4.33.1-1.11.23-2.21.35-3.31.14-1.08.3-2.18.45-3.27.35-2.16.75-4.29 1.2-6.41.31-1.39.64-2.75.99-4.11 5.21-19.64 16.08-36.54 31.11-49.48.52-.43 1.04-.88 1.58-1.31 1.62-1.31 3.27-2.6 4.98-3.85.85-.62 1.71-1.22 2.58-1.81.88-.6 1.75-1.19 2.66-1.75.89-.58 1.8-1.13 2.72-1.68 1.83-1.1 3.68-2.15 5.6-3.15 2.06-1.05 4.14-2.06 6.27-3.01h.01c1.93-.85 3.88-1.67 5.87-2.44 2.01-.76 4.05-1.48 6.1-2.15a156.293 156.293 0 0 1 6.28-1.84c1.36-.35 2.73-.7 4.11-1.02 1.39-.31 2.78-.59 4.2-.88 8.44-1.65 17.31-2.5 26.49-2.5s17.78.79 26.03 2.33c1.03.19 2.06.4 3.08.62.76.17 1.51.33 2.28.5 1.13.27 2.24.55 3.36.84 1.11.3 2.23.59 3.33.91 1.95.58 3.86 1.2 5.74 1.85 1.06.36 2.1.76 3.15 1.17.97.38 1.95.76 2.9 1.17 14.35 6.03 26.7 14.84 36.47 26.16l-31.14 27.47c-14.11-15.47-31.8-23.49-52.79-23.49-36.95 0-63.85 23.32-66.9 57.56-.1 1.12-.17 2.22-.22 3.35-.01.56-.04 1.15-.05 1.73-.02.59-.02 1.17-.02 1.77 0 .52 0 1.02.02 1.51.01.59.04 1.15.05 1.74.05 1.11.12 2.23.22 3.33 3.04 34.34 29.95 57.73 66.9 57.73 18.36 0 34.21-6.15 47.33-18.25 3.74 3.33 9.41 5.44 15.78 5.44.69 0 1.37-.01 2.05-.08l18.32 16.19.49.43z"/><path d="m243.2 256.04v22.35h-49.94c7.71-.33 14.91-1.6 21.53-3.75h.03l.02-.01c1.8-.59 3.58-1.23 5.29-1.97a61.17 61.17 0 0 0 12.81-7.13c.85-.63 1.7-1.26 2.52-1.95h.02c2.8-2.28 5.38-4.8 7.72-7.54" fill="#e2121c"/><g font-family="CeraPro-Bold, 'Cera Pro'" font-weight="700"><text fill="#e2121c" font-size="119.91" transform="matrix(1.04 0 0 1 108.78 217.06)"><tspan x="0" y="0">Captels</tspan></text><text font-size="36.91" transform="translate(256.57 278.39)"><tspan letter-spacing="-.01em" x="0" y="0">P</tspan><tspan x="21.48" y="0">esage</tspan><tspan letter-spacing="-.04em" x="123.69" y="0">-</tspan><tspan letter-spacing="-.06em" x="134.84" y="0">W</tspan><tspan letter-spacing="0em" x="170.83" y="0">eighing</tspan></text></g></svg>