<svg height="2500" width="2500" xmlns="http://www.w3.org/2000/svg" viewBox="0.5 0.5 255 255"><path d="M128 .5C57.584.5.5 57.584.5 128S57.584 255.5 128 255.5 255.5 198.416 255.5 128c0-33.465-12.91-63.902-34-86.648-.36.058-.846.116-1.174.173-13.438 2.37-26.784 5.416-39.879 9.254-11.645 3.413-23.079 7.578-34.293 12.215-13.843 5.725-27.57 11.873-40.623 19.225-8.115 4.57-16.384 9.535-23.9 15.035-6.37 4.661-12.253 9.668-17.834 15.25-3.28 3.28-7.2 6.802-8.852 10.973-.502 1.267 2.115 1.259 3.819 1.468 2.307.284 5.573.074 7.892-.074 5.724-.365 11.792-.72 17.436-1.744 7.89-1.43 23.418-5.588 23.418-5.588l6.972 25.356s-25.224 6.186-38.103 7.472c-7.711.77-16.037.922-23.248.125-4.879-.54-9.14-1.755-13.426-4.148-3.73-2.084-6.363-4.024-8.717-7.59-1.335-2.024-2.55-4.508-3.127-6.996-.633-2.73-.589-5.732-.299-8.399.497-4.559 1.86-8.428 3.956-12.507 2.186-4.258 5.128-8.135 8.294-11.723a114.058 114.058 0 0 1 13.542-13.027c10.67-8.673 22.31-16.134 34.074-23.254 10.083-6.103 20.529-11.636 31.203-16.633 10.504-4.918 21.343-9.107 32.232-13.098a353.33 353.33 0 0 1 23.254-7.619c7.104-2.058 14.273-3.89 21.473-5.592C175.992 7.626 152.834.5 128 .5zm1.469 81.719l25.238 5.62s-1.46 5.405-1.752 8.393-.556 7.244.107 9.44c.664 2.196.975 2.635 2.249 3.469 1.273.833 3.312 1.103 5.401 1.228s3.097-.07 7.087-.742c3.99-.672 10.771-2.892 16.01-4.787 4.678-1.693 13.724-5.865 13.724-5.865l-.728-6.454 25.343-4.357s1.05 7.493 1.424 11.258c.268 2.692.49 5.392.588 8.096.117 3.211.06 6.427 0 9.64-.086 4.639.058 9.304-.514 13.908-.811 6.546-2.341 13.004-4.12 19.356-1.645 5.869-3.449 11.743-6.04 17.26-3.802 8.096-8.444 15.854-13.832 22.994a102.398 102.398 0 0 1-14.57 15.601c-6.534 5.673-13.835 10.454-21.27 14.881a118.978 118.978 0 0 1-15.61 7.807c-5.673 2.331-11.553 4.175-17.487 5.723-6.278 1.636-12.655 2.99-19.098 3.748-3.862.453-11.656.468-11.656.468l-.688-25.966s6.985.084 10.45-.293c4.345-.474 8.672-1.433 12.879-2.467 1.328-.327 2.702-.71 4.048-1.084 3.443-.957 6.946-1.738 10.303-2.963 3.508-1.28 6.879-2.916 10.229-4.565a89.816 89.816 0 0 0 6.402-3.457 78.934 78.934 0 0 0 5.594-3.68c2.809-2.019 5.38-3.932 8.168-6.402s5.89-5.472 8.463-8.463c2.572-2.99 4.688-5.873 6.947-9.418s4.648-7.88 6.47-11.865c1.823-3.985 3.358-8.583 4.485-11.965 1.126-3.381 1.85-5.596 2.416-8.261.601-2.83 1-5.212 1.226-7.852.097-1.132.053-3.41.053-3.41s-5.654 2.473-8.572 3.465c-4.424 1.503-8.944 2.739-13.504 3.754-3.315.737-6.66 1.422-10.045 1.691-3.574.284-7.15.506-10.756-.092-2.906-.482-5.763-1.565-8.513-2.707-2.78-1.154-5.691-2.25-8.014-4.164-2.496-2.057-4.36-4.831-6.037-7.597-1.417-2.338-2.487-4.893-3.33-7.493-.361-1.113-.729-3.435-.729-3.435s-.593-3.306-.668-4.979c-.227-5.07.057-10.172.668-15.21.32-2.635 1.56-7.807 1.56-7.807z" stroke="#0a0a04" stroke-linejoin="round" stroke-width="1.004"/><path d="M195.59 19.906a518.45 518.45 0 0 0-10.15 2.508c-3.784.996-7.566 1.996-11.323 3.084a353.33 353.33 0 0 0-23.254 7.62c-10.89 3.99-21.728 8.18-32.232 13.097-10.674 4.997-21.12 10.53-31.203 16.633-11.764 7.12-23.403 14.581-34.074 23.254a114.058 114.058 0 0 0-13.541 13.027c-3.167 3.588-6.11 7.465-8.295 11.723-2.096 4.08-3.46 7.948-3.955 12.507-.29 2.667-.335 5.67.298 8.399.144.621.33 1.244.545 1.857.648 1.843 1.58 3.621 2.582 5.139 2.354 3.566 4.987 5.506 8.717 7.59 3.214 1.795 6.414 2.927 9.871 3.61 1.152.226 2.336.403 3.555.538 7.211.797 15.537.645 23.248-.125 1.843-.184 3.97-.484 6.209-.836 5.584-.878 12.02-2.164 17.672-3.383 7.916-1.707 14.222-3.253 14.222-3.253l-6.972-25.356s-15.528 4.157-23.418 5.588c-5.644 1.023-11.712 1.38-17.436 1.744-2.32.148-5.585.358-7.892.074-1.704-.21-4.32-.2-3.819-1.468 1.652-4.171 5.573-7.693 8.852-10.973 5.581-5.582 11.463-10.589 17.834-15.25 7.516-5.5 15.785-10.465 23.9-15.035 13.053-7.352 26.78-13.5 40.623-19.225 11.214-4.637 22.648-8.802 34.293-12.215 13.095-3.838 26.44-6.884 39.88-9.254 6.45-1.137 19.509-2.375 19.509-2.375l-3.291-26.752s-21.647 3.244-32.35 5.502c-2.881.608-5.739 1.329-8.605 2.006zM129.469 82.22s-1.242 5.172-1.56 7.806c-.612 5.039-.896 10.14-.669 15.211.075 1.673.668 4.979.668 4.979s.368 2.322.729 3.435c.843 2.6 1.913 5.155 3.33 7.493.838 1.383 1.723 2.768 2.71 4.064a24.666 24.666 0 0 0 1.567 1.867 18.433 18.433 0 0 0 1.76 1.666c.58.479 1.197.907 1.84 1.297.642.39 1.312.742 1.994 1.07 1.365.657 2.79 1.22 4.18 1.797 1.375.571 2.776 1.128 4.197 1.602 1.42.474 2.864.864 4.316 1.105 1.804.3 3.597.394 5.389.377 1.79-.016 3.58-.143 5.367-.285 3.385-.269 6.73-.954 10.045-1.691 4.56-1.015 9.08-2.251 13.504-3.754 2.918-.992 8.572-3.465 8.572-3.465s.044 2.278-.053 3.41c-.225 2.64-.625 5.023-1.226 7.852a47.693 47.693 0 0 1-.998 3.861c-.392 1.31-.855 2.71-1.418 4.4-1.127 3.382-2.662 7.98-4.484 11.965-1.823 3.985-4.212 8.321-6.471 11.865s-4.375 6.428-6.947 9.418c-2.573 2.991-5.676 5.993-8.463 8.463s-5.36 4.383-8.168 6.403a78.934 78.934 0 0 1-5.594 3.68 89.816 89.816 0 0 1-6.402 3.456 189.91 189.91 0 0 1-5.055 2.42c-1.7.776-3.42 1.505-5.174 2.145-3.357 1.225-6.86 2.006-10.303 2.963-1.346.374-2.72.757-4.048 1.084-4.207 1.034-8.534 1.993-12.88 2.467-3.464.377-10.449.292-10.449.292l.688 25.967s1.949-.004 4.379-.064c2.431-.06 5.346-.178 7.277-.404 2.417-.284 4.82-.675 7.217-1.11a161.678 161.678 0 0 0 11.88-2.639c5.935-1.547 11.815-3.39 17.487-5.722a118.978 118.978 0 0 0 15.611-7.807c7.435-4.427 14.736-9.208 21.27-14.88a102.06 102.06 0 0 0 7.693-7.42 101.982 101.982 0 0 0 6.877-8.182c2.694-3.57 5.2-7.295 7.51-11.139a132.048 132.048 0 0 0 6.322-11.855c2.591-5.518 4.395-11.391 6.04-17.26 1.78-6.352 3.309-12.81 4.12-19.356.572-4.604.428-9.27.514-13.908.06-3.213.117-6.43 0-9.64-.098-2.704-.32-5.404-.588-8.096-.374-3.765-1.424-11.258-1.424-11.258l-25.343 4.357.728 6.454s-9.046 4.172-13.724 5.865c-5.239 1.895-12.02 4.115-16.01 4.787s-5.003.855-7.093.73-4.122-.383-5.395-1.216c-1.274-.834-1.585-1.273-2.248-3.47-.664-2.195-.4-6.45-.108-9.439.073-.747.219-1.645.397-2.572.533-2.78 1.355-5.82 1.355-5.82z" fill="#f4ff6a" stroke="#f4ff6a" stroke-linecap="square" stroke-miterlimit="0" stroke-width=".5"/></svg>