<svg height="2492" viewBox="24.24 24.84 450.99 450.25" width="2500" xmlns="http://www.w3.org/2000/svg"><path d="m475.23 26.64v446.75c-2.78 1.7-5.87 1-8.81 1q-216.35.06-432.7 0c-2.64 0-5.35.43-7.91-.67-1.57-2.81-.89-5.88-.89-8.83v-430.38c0-2.64-.43-5.35.66-7.91 3.16-1.66 6.57-.88 9.85-.89q215-.06 430 0c3.25-.02 6.67-.87 9.8.93z" fill="#fe0000"/><path d="m291.39 269.92c15.58 9.28 21 19.35 18.22 33-2.82 13.82-13.07 22.7-29.11 24.6-17.64 2.08-35.37.83-53.07.95-5.94 0-9.08-2.95-9.05-9.34q.18-45.56 0-91.1c0-6.18 2.7-9.57 8.89-9.51 16.36.18 32.79-1.31 49.06.83 20 2.61 31.21 18.73 26.13 36-1.81 6.17-6.61 9.8-11.07 14.57zm-191.97 4.14c.62-25.14 12-42.74 33.85-52.07 22.72-9.7 45.11-7.91 65.06 8.16 4.28 3.45 8.77 8.28 3.4 13.37s-9.86 14-19.93 8.41c-3.21-1.77-6.14-4.1-9.46-5.56-12.76-5.64-27.08-2.33-35.44 7.91a30.76 30.76 0 0 0 -1 37.23c7.65 10.35 22.29 14.37 35.14 9.56a43.59 43.59 0 0 0 6.3-3.06c10.49-6 17.27-4.66 24.47 4.89 4.37 5.8 1.39 10.08-3.12 13.68-20.34 16.24-43.06 17.85-66.06 8-22.02-9.43-32.63-27.58-33.21-50.52z" fill="#fefefe"/><path d="m326.27 273.59c0-14.35.25-28.71-.1-43-.22-9.08 3.59-13 12.59-12.17a66.87 66.87 0 0 0 8 0c7.2-.16 10.06 3.28 10 10.46-.23 22 .24 44.05-.26 66.06-.16 7.17 2 9.19 8.92 8.68 8.3-.61 16.69 0 25-.17 7.88-.15 10.41 3.9 10.39 11.26 0 7.17.12 13.8-9.72 13.79h-55.13c-7.35 0-9.83-4.05-9.76-10.87.19-14.63.08-29.36.07-44.04z" fill="#fefdfd"/><path d="m185.24 213.73c-19.15-6.64-41.58.85-49.91-23.52 32.14.51 60.47-17.85 92.71-19.9 18.28-1.16 35.32 1.55 51.35 9.92 20.89 10.91 42.37 19.21 66.24 21.18 13.8 1.14 19.87 8.21 20.22 21-7.8-13-19.72-15.19-32.44-15.43-22.18-.43-41.24-9.89-60.06-20.27-27.43-15.13-65.13-9-86.57 13.82-3.32 3.47-5.89 6.87-1.54 13.2z" fill="#fefcfc"/><path d="m248.58 292.64c-2.41-8.41 1.59-11.25 11.31-10.7 14.25.81 20.35 3.7 20.58 12 .23 8.64-7 11.74-22.14 13-12.11 1.06-9.73-6.24-9.75-14.3z" fill="#fe0303"/><path d="m248.66 251.89c-2-10.06 2.74-12.29 11.46-11.56 10.27.87 14.86 4.26 14.39 12.24s-5.62 10.1-19.13 10.42c-10.58.25-5.38-7.25-6.72-11.1z" fill="#fe0505"/></svg>