<svg height="2500" viewBox="-72.551 -37.5 1371.181 1336.38342102" width="2500" xmlns="http://www.w3.org/2000/svg" xmlns:xlink="http://www.w3.org/1999/xlink"><pattern id="a" height="2500" patternTransform="matrix(7.18522 0 0 -7.18522 -5.319 1324.234)" patternUnits="userSpaceOnUse" width="2500"/><path d="m-37.5-37.5h450v450h-450z" fill="#fff"/><path d="m-37.5-37.5h450v450h-450z" fill="#ffefef"/><path d="m1298.63 659.314c0 10.47-.252 20.938-.757 31.38-.506 10.44-1.292 20.881-2.302 31.294a677.722 677.722 0 0 1 -3.845 31.127 678.03 678.03 0 0 1 -5.361 30.93 669.926 669.926 0 0 1 -6.876 30.622 659.48 659.48 0 0 1 -8.365 30.228 685.578 685.578 0 0 1 -9.851 29.807 636.488 636.488 0 0 1 -11.311 29.275 606.133 606.133 0 0 1 -12.715 28.684 653.852 653.852 0 0 1 -14.09 28.04 669.02 669.02 0 0 1 -15.465 27.309 668.155 668.155 0 0 1 -16.784 26.495c-5.838 8.701-11.844 17.262-18.075 25.654-6.231 8.42-12.687 16.644-19.31 24.755a660.755 660.755 0 0 1 -20.49 23.745 689.714 689.714 0 0 1 -21.64 22.735 689.714 689.714 0 0 1 -22.734 21.64 660.755 660.755 0 0 1 -23.745 20.489c-8.111 6.624-16.335 13.079-24.755 19.31-8.392 6.23-16.953 12.237-25.654 18.075a668.157 668.157 0 0 1 -26.495 16.784 669.022 669.022 0 0 1 -27.31 15.466 653.852 653.852 0 0 1 -28.039 14.09 606.131 606.131 0 0 1 -28.684 12.714 636.489 636.489 0 0 1 -29.275 11.31 685.579 685.579 0 0 1 -29.807 9.852 659.48 659.48 0 0 1 -30.228 8.365 669.926 669.926 0 0 1 -30.622 6.876 678.027 678.027 0 0 1 -30.93 5.36 677.721 677.721 0 0 1 -31.127 3.846c-10.413 1.01-20.854 1.796-31.295 2.302a649.457 649.457 0 0 1 -62.73 0c-10.469-.506-20.882-1.291-31.295-2.302a683.787 683.787 0 0 1 -31.155-3.845 678.027 678.027 0 0 1 -30.93-5.361 668.756 668.756 0 0 1 -30.593-6.876 660.62 660.62 0 0 1 -30.257-8.365 685.58 685.58 0 0 1 -29.807-9.851 649.215 649.215 0 0 1 -29.274-11.311 606.131 606.131 0 0 1 -28.685-12.715 636.816 636.816 0 0 1 -28.011-14.09 669.02 669.02 0 0 1 -27.31-15.465 649.31 649.31 0 0 1 -26.523-16.784 679.917 679.917 0 0 1 -25.654-18.075 656.675 656.675 0 0 1 -24.727-19.31 687.024 687.024 0 0 1 -23.773-20.49 661.902 661.902 0 0 1 -22.706-21.64 635.467 635.467 0 0 1 -21.64-22.734 634.376 634.376 0 0 1 -20.517-23.745 656.882 656.882 0 0 1 -19.282-24.755 628.988 628.988 0 0 1 -18.076-25.654 637.375 637.375 0 0 1 -16.784-26.495 608.484 608.484 0 0 1 -15.465-27.31 623.268 623.268 0 0 1 -14.118-28.039 669.572 669.572 0 0 1 -12.714-28.684 605.368 605.368 0 0 1 -11.283-29.275 616.982 616.982 0 0 1 -9.852-29.807 625.466 625.466 0 0 1 -8.364-30.228 602.611 602.611 0 0 1 -6.877-30.622 608.578 608.578 0 0 1 -5.36-30.93 607.766 607.766 0 0 1 -3.846-31.127 614.868 614.868 0 0 1 -2.301-31.295 615.341 615.341 0 0 1 -.786-31.379c0-10.469.253-20.91.786-31.35a612.507 612.507 0 0 1 2.301-31.296 612.752 612.752 0 0 1 3.846-31.155 608.577 608.577 0 0 1 5.36-30.93 601.562 601.562 0 0 1 6.877-30.593c2.526-10.16 5.333-20.237 8.364-30.257a616.981 616.981 0 0 1 9.852-29.807 616.85 616.85 0 0 1 11.283-29.274 669.572 669.572 0 0 1 12.714-28.685 607.72 607.72 0 0 1 14.119-28.011 608.484 608.484 0 0 1 15.465-27.31 620.238 620.238 0 0 1 16.784-26.523c5.81-8.7 11.845-17.233 18.076-25.654a655.955 655.955 0 0 1 19.282-24.727 658.56 658.56 0 0 1 20.517-23.773 611.753 611.753 0 0 1 21.64-22.706 611.752 611.752 0 0 1 22.706-21.64 658.56 658.56 0 0 1 23.773-20.517 655.955 655.955 0 0 1 24.727-19.282c8.42-6.231 16.953-12.266 25.654-18.076a620.238 620.238 0 0 1 26.524-16.784 608.484 608.484 0 0 1 27.308-15.464 607.721 607.721 0 0 1 28.011-14.118c9.459-4.463 19.03-8.7 28.685-12.714a616.85 616.85 0 0 1 29.274-11.283 616.98 616.98 0 0 1 29.807-9.852c10.02-3.031 20.097-5.838 30.257-8.364a601.562 601.562 0 0 1 30.593-6.876 608.58 608.58 0 0 1 30.93-5.361 612.753 612.753 0 0 1 31.155-3.846 612.507 612.507 0 0 1 31.295-2.301 614.241 614.241 0 0 1 31.351-.786c10.47 0 20.938.253 31.38.786a614.868 614.868 0 0 1 31.294 2.301 607.767 607.767 0 0 1 31.127 3.846 608.58 608.58 0 0 1 30.93 5.36 602.611 602.611 0 0 1 30.622 6.877 625.467 625.467 0 0 1 30.228 8.364 616.98 616.98 0 0 1 29.807 9.852 605.367 605.367 0 0 1 29.275 11.283 669.572 669.572 0 0 1 28.683 12.712 623.268 623.268 0 0 1 28.04 14.118 608.484 608.484 0 0 1 27.309 15.465 637.377 637.377 0 0 1 26.495 16.784 628.988 628.988 0 0 1 25.654 18.076 656.884 656.884 0 0 1 24.755 19.282 634.374 634.374 0 0 1 23.745 20.517 635.466 635.466 0 0 1 22.735 21.64 661.902 661.902 0 0 1 21.64 22.706 687.023 687.023 0 0 1 20.489 23.773 656.677 656.677 0 0 1 19.31 24.727 679.918 679.918 0 0 1 18.075 25.654 649.31 649.31 0 0 1 16.784 26.524 669.021 669.021 0 0 1 15.466 27.309 636.815 636.815 0 0 1 14.09 28.011 606.132 606.132 0 0 1 12.714 28.685 649.214 649.214 0 0 1 11.31 29.274 685.577 685.577 0 0 1 9.852 29.807 660.62 660.62 0 0 1 8.365 30.257 668.756 668.756 0 0 1 6.876 30.593 678.03 678.03 0 0 1 5.36 30.93 683.788 683.788 0 0 1 3.846 31.155c1.01 10.413 1.796 20.826 2.302 31.295.505 10.441.757 20.882.757 31.351zm0 0" fill="none" stroke="url(#a)" stroke-miterlimit="10" stroke-width="40" transform="matrix(.13917 0 0 .13917 95.74 95.74)"/><g fill="#cb913a"><path d="m346.809 170.258c-4.516-1.54-9.364-1.774-14.079-2.29-14.445-1.359-28.957.79-42.996 4.157-17.718 4.195-41.48 12.934-58.523 3.156 5.816-4.508 12.96-10.21 15.531-17.289 1.75-5.02-2.41-8.738-7.105-6.11-3.293 1.891-4.946 5.485-6.332 8.876-1.223-3.551-6.063-8.094-9.446-4.356-3.843 5.766-.355 14.79 4.633 18.852-4.351 2.973-9.144 5.465-14.351 6.484-2.09.43-4.223.582-6.352.524-.71.054-1.555-.301-2.187.093-1.188 1.625 1.48 1.473 2.445 1.493 7.914.261 15.41-3.121 21.781-7.582 18.36 11.23 44.04.91 63.305-3.297 13.722-3.156 27.93-4.82 41.976-3.184 3.473.426 7.008.684 10.375 1.684 1.887.66 3.758 1.347 5.59 2.148.649.203 1.778 1.242 2.34.281.887-1.492-5.32-2.992-6.601-3.64zm-122.891-6.938c-.125-2.187-.176-5.007 1.773-6.441 3.461-1.352 6.024 3.457 6.735 6.234-3.04 7.508 3.3 7.75 1.644.07 1.418-3.636 2.84-7.824 6.364-9.933 2.879-1.625 5.754-.043 5 3.41-1.774 6.945-10.055 13.414-15.579 17.66-3.41-2.62-5.503-6.742-5.937-11zm0 0"/><path d="m158.273 185.195c-7.32-2.496-15.18-2.87-22.82-3.71-23.418-2.204-46.941 1.28-69.7 6.738-28.726 6.804-67.237 20.968-94.866 5.12 9.43-7.308 21.008-16.558 25.18-28.03 2.835-8.137-3.91-14.165-11.524-9.899-5.336 3.063-8.012 8.887-10.262 14.383-1.984-5.758-9.824-13.121-15.312-7.059-6.23 9.344-.578 23.973 7.508 30.555-7.055 4.82-14.825 8.86-23.266 10.516-3.387.695-6.844.941-10.293.847-1.152.086-2.52-.488-3.543.153-1.926 2.632 2.395 2.382 3.96 2.418 12.833.425 24.985-5.063 35.306-12.293 29.765 18.203 71.39 1.48 102.62-5.34 22.247-5.117 45.274-7.817 68.044-5.16 5.629.687 11.363 1.105 16.82 2.726 3.059 1.07 6.09 2.184 9.059 3.48 1.054.333 2.882 2.016 3.796.458 1.434-2.418-8.625-4.852-10.703-5.903zm-199.207-11.245c-.203-3.547-.289-8.117 2.875-10.437 5.61-2.192 9.762 5.605 10.91 10.101-4.925 12.172 5.356 12.563 2.669.117 2.3-5.898 4.605-12.68 10.316-16.105 4.668-2.629 9.328-.066 8.11 5.527-2.88 11.258-16.305 21.75-25.259 28.633-5.527-4.254-8.921-10.933-9.625-17.836zm0 0"/><path d="m160.872 195.594c0-4.812.406-9.546 1.218-14.203.813-4.656 1.836-9.097 3.079-13.328 1.238-4.226 2.539-8.062 3.906-11.5a97.39 97.39 0 0 1 3.5-7.703 60.43 60.43 0 0 1 4.656-7.75c1.75-2.457 3.64-4.492 5.672-6.11a22.195 22.195 0 0 1 4.672-2.812c1.695-.758 3.351-1.14 4.969-1.14 1.218 0 2.382.265 3.5.796 1.113.532 2.097 1.383 2.953 2.547 1.164 1.668 1.812 3.25 1.937 4.75.125 1.492.188 3.2.188 5.125 0 1.668-.258 3.555-.766 5.657a55.203 55.203 0 0 1 -2 6.484 144.511 144.511 0 0 1 -2.578 6.422 102.334 102.334 0 0 1 -2.469 5.344c-.262.617-.496 1.09-.703 1.421-.2.325-.672.563-1.422.72-.668-.458-.992-.864-.969-1.22.032-.351.223-.882.579-1.593.207-.563.41-1.067.609-1.516.207-.457.41-.941.61-1.453a160.363 160.363 0 0 0 4.218-10.734c1.29-3.676 1.938-7.567 1.938-11.672 0-2.57-.532-4.453-1.594-5.641-1.063-1.195-2.383-1.797-3.953-1.797-2.688 0-5.344 1.32-7.97 3.953-2.179 2.18-4.194 4.852-6.046 8.016-1.844 3.156-3.5 6.547-4.969 10.172a116.625 116.625 0 0 0 -3.797 10.812c-1.062 3.594-1.898 6.914-2.5 9.953-.718 3.344-1.336 7.008-1.843 10.985-.5 3.969-.68 7.937-.532 11.906.157 3.977.868 7.664 2.141 11.063.656 2.125 1.727 3.984 3.219 5.578 1.5 1.593 3.46 2.39 5.89 2.39 2.176 0 4.301-.574 6.375-1.718 2.082-1.137 3.88-2.29 5.391-3.454l2.594-2.265c.5-.461.953-.844 1.36-1.156.405-.305.862-.704 1.374-1.204a64.608 64.608 0 0 0 7.516-9.234 127.678 127.678 0 0 0 6.265-10.36 816.203 816.203 0 0 0 5.657-10.624c.457-.864.898-1.457 1.328-1.782.426-.332.816-.5 1.172-.5.351 0 .629.125.828.375.207.25.312.508.312.766l-11.312 20.656a524.93 524.93 0 0 1 -2.094 3.11 75.134 75.134 0 0 1 -2.156 3.03c-1.063 1.415-2.508 3.11-4.328 5.079a66.954 66.954 0 0 1 -6.125 5.813c-2.25 1.906-4.59 3.476-7.016 4.718-2.43 1.239-4.836 1.86-7.219 1.86-2.531 0-4.699-.621-6.5-1.86-1.793-1.242-3.258-2.875-4.39-4.906-1.137-2.023-2.024-4.234-2.657-6.64a47.409 47.409 0 0 1 -1.328-7.172c-.258-2.375-.39-4.528-.39-6.454zm0 0"/></g><path d="m111.43 298.923a5.563 5.563 0 0 1 -1.782-1.734 5.797 5.797 0 0 1 -.875-2.266 7.043 7.043 0 0 1 .016-2.344 5.905 5.905 0 0 1 .828-2.125l2.734-4.375a6.08 6.08 0 0 1 1.563-1.672 6.628 6.628 0 0 1 2.094-1.047 5.828 5.828 0 0 1 2.422-.203c.82.094 1.601.371 2.343.828 1.07.68 1.86 1.547 2.36 2.61.457.95.644 2.023.562 3.219.02.054.008.117-.031.187-.031.055-.094.09-.188.11a.296.296 0 0 1 -.218-.047c-.075-.04-.11-.114-.11-.22.07-1.07-.101-2.054-.515-2.952-.461-.989-1.184-1.797-2.172-2.422-.95-.594-1.95-.848-3-.766a5.72 5.72 0 0 0 -2.75.875c-.813.492-1.438 1.086-1.875 1.781l-2.75 4.407c-.211.336-.383.715-.516 1.14-.137.418-.226.86-.265 1.328a5.805 5.805 0 0 0 .421 2.844c.395.977 1.067 1.766 2.016 2.36.977.613 2.02.91 3.125.89a5.976 5.976 0 0 0 1.453-.219c.477-.136.953-.34 1.422-.609.094-.043.176-.043.25 0a.3.3 0 0 1 .125.188.237.237 0 0 1 -.016.218c-.043.07-.093.102-.156.094-1.023.57-2.07.875-3.14.906-1.2 0-2.325-.328-3.375-.984zm21.756-.823c.257.782.359 1.595.297 2.438a6.79 6.79 0 0 1 -.657 2.47l-2.625 5.405c-.086.188-.215.235-.39.141-.168-.086-.211-.219-.125-.406l1.39-2.89a6.064 6.064 0 0 1 -3.172 1.405 6.28 6.28 0 0 1 -3.578-.593 6.111 6.111 0 0 1 -2-1.532 6.104 6.104 0 0 1 -1.203-2.125 6.05 6.05 0 0 1 -.328-2.422 6.56 6.56 0 0 1 .656-2.468 6.794 6.794 0 0 1 1.516-2.032 6.043 6.043 0 0 1 2.14-1.28 6.081 6.081 0 0 1 2.422-.376 6.315 6.315 0 0 1 2.438.64 6.011 6.011 0 0 1 1.984 1.516c.551.625.961 1.329 1.235 2.11zm-4.297 7.735a5.87 5.87 0 0 0 1.844-1.047 5.645 5.645 0 0 0 1.39-1.687l.031-.063c.032-.062.055-.109.079-.14l.062-.125a5.984 5.984 0 0 0 .61-2.219 5.545 5.545 0 0 0 -.266-2.219 5.202 5.202 0 0 0 -1.094-1.922 5.703 5.703 0 0 0 -1.844-1.406 5.538 5.538 0 0 0 -2.218-.578c-.762-.04-1.5.07-2.22.328a5.924 5.924 0 0 0 -1.89 1.172 5.934 5.934 0 0 0 -1.39 1.844 5.953 5.953 0 0 0 -.594 2.218 5.839 5.839 0 0 0 .25 2.188 5.56 5.56 0 0 0 1.094 1.969 5.875 5.875 0 0 0 1.843 1.406 5.326 5.326 0 0 0 2.157.562 5.922 5.922 0 0 0 2.156-.28zm4.231 4.006a.295.295 0 0 1 -.188-.156.305.305 0 0 1 0-.235l2.063-5.343c.32-.844.789-1.582 1.406-2.22a6.777 6.777 0 0 1 2.11-1.483 6.44 6.44 0 0 1 2.484-.594 6.544 6.544 0 0 1 2.578.437l.03.016c0 .012.009.016.032.016.02.011.05.023.094.03.187.075.242.2.172.376-.063.18-.188.23-.375.156l-.156-.062a5.645 5.645 0 0 0 -2.329-.375 6.39 6.39 0 0 0 -2.296.515 6.372 6.372 0 0 0 -1.938 1.375 5.73 5.73 0 0 0 -1.281 2.016l-2.063 5.344a.297.297 0 0 1 -.156.171c-.062.04-.125.047-.187.016zm13.668 4.952a6.334 6.334 0 0 1 -2.265-1.203 6.192 6.192 0 0 1 -1.563-1.907 6.239 6.239 0 0 1 -.765-2.359 6.205 6.205 0 0 1 .218-2.547 6.319 6.319 0 0 1 1.188-2.234 6.655 6.655 0 0 1 1.937-1.61 6.075 6.075 0 0 1 2.344-.75 6.42 6.42 0 0 1 2.547.235 6.223 6.223 0 0 1 2.234 1.172 6.636 6.636 0 0 1 1.61 1.906c.394.742.64 1.539.734 2.39.094.856.016 1.7-.234 2.532a6.323 6.323 0 0 1 -1.188 2.265 6.099 6.099 0 0 1 -1.89 1.563 6.386 6.386 0 0 1 -2.391.75 6.314 6.314 0 0 1 -2.516-.203zm.157-.563a5.8 5.8 0 0 0 4.5-.5 6.05 6.05 0 0 0 1.718-1.437 5.752 5.752 0 0 0 1.063-2.032c.226-.769.3-1.539.219-2.312a5.819 5.819 0 0 0 -.672-2.156 5.731 5.731 0 0 0 -1.453-1.719 5.783 5.783 0 0 0 -2.063-1.078 5.918 5.918 0 0 0 -2.312-.219 5.774 5.774 0 0 0 -2.157.672 6.147 6.147 0 0 0 -1.734 1.453 5.688 5.688 0 0 0 -1.078 2.047 5.786 5.786 0 0 0 -.203 2.281c.093.774.32 1.492.687 2.156a5.76 5.76 0 0 0 3.484 2.844zm12.528 3.55a4.612 4.612 0 0 1 -1.625-.688 3.87 3.87 0 0 1 -1.11-1.187c-.574-.969-.71-2.145-.406-3.532l2.61-12.093c.05-.207.175-.29.375-.25a.31.31 0 0 1 .203.375l-2.625 12.14c-.25 1.23-.137 2.246.344 3.047.468.844 1.238 1.38 2.312 1.61.195.039.281.148.25.328a.322.322 0 0 1 -.125.187.269.269 0 0 1 -.203.063zm4.982-14.383a.557.557 0 0 1 -.328-.203.506.506 0 0 1 -.078-.375.521.521 0 0 1 .203-.344.483.483 0 0 1 .375-.062c.157.023.27.09.344.203.082.106.11.234.078.39a.436.436 0 0 1 -.203.313.519.519 0 0 1 -.39.078zm-2.671 14.782a.291.291 0 0 1 -.188-.141.329.329 0 0 1 -.047-.234l2.156-11.907c.04-.207.157-.289.344-.25.188.032.258.153.219.36l-2.156 11.906a.262.262 0 0 1 -.125.203.269.269 0 0 1 -.203.063zm3.349.661a.285.285 0 0 1 -.188-.126.296.296 0 0 1 -.047-.219l.735-6.25c.093-.832.32-1.597.687-2.297a5.741 5.741 0 0 1 1.422-1.796 5.442 5.442 0 0 1 2-1.11 5.611 5.611 0 0 1 2.344-.187 5.596 5.596 0 0 1 2.203.718 5.162 5.162 0 0 1 1.64 1.532 5.63 5.63 0 0 1 .891 2.062c.176.774.219 1.574.125 2.406l-.734 6.25a.364.364 0 0 1 -.094.204.247.247 0 0 1 -.203.062.32.32 0 0 1 -.219-.11.3.3 0 0 1 -.047-.218l.735-6.203c.082-.77.039-1.504-.125-2.203a5.444 5.444 0 0 0 -.797-1.875 4.74 4.74 0 0 0 -1.453-1.375 4.753 4.753 0 0 0 -1.985-.672 4.756 4.756 0 0 0 -2.11.187 5.233 5.233 0 0 0 -1.796 1c-.531.43-.969.965-1.312 1.61a5.939 5.939 0 0 0 -.625 2.125l-.735 6.218c-.023.196-.125.286-.312.266zm20.035 1.768a6.707 6.707 0 0 1 -2.469-.532 6.247 6.247 0 0 1 -2.031-1.437 6.24 6.24 0 0 1 -1.375-2.063 6.536 6.536 0 0 1 -.453-2.515 6.183 6.183 0 0 1 .53-2.453 6.538 6.538 0 0 1 1.423-2.079 6.389 6.389 0 0 1 2.078-1.359 6.168 6.168 0 0 1 2.484-.453 6.282 6.282 0 0 1 2.469.531c.79.344 1.477.813 2.063 1.406a6.833 6.833 0 0 1 1.359 2.11c.32.793.476 1.62.469 2.484 0 .074-.028.14-.078.203-.055.063-.118.09-.188.078l-11.984-.171c.02.773.175 1.5.468 2.187.301.68.711 1.277 1.235 1.797.508.531 1.11.95 1.797 1.25a5.77 5.77 0 0 0 2.203.453c.613 0 1.148-.05 1.61-.156.413-.094.882-.29 1.405-.594a.643.643 0 0 0 .125-.031c.04-.008.07-.016.094-.016.04 0 .098.031.172.094.07.055.11.125.11.219 0 .086-.055.164-.157.234a5.808 5.808 0 0 1 -1.515.61c-.5.144-1.118.21-1.844.203zm-5.719-6.766 11.688.172a5.748 5.748 0 0 0 -.5-2.188 6.133 6.133 0 0 0 -1.235-1.843 6.133 6.133 0 0 0 -1.844-1.235c-.699-.3-1.437-.457-2.218-.469a5.712 5.712 0 0 0 -2.22.407c-.698.273-1.32.668-1.858 1.187a5.627 5.627 0 0 0 -1.297 1.781 5.81 5.81 0 0 0 -.516 2.188zm27.695 5.236-5.234.672c-.219.03-.344-.055-.375-.266-.023-.164.078-.266.297-.297l5.281-.687a3.712 3.712 0 0 0 1.469-.5 4.225 4.225 0 0 0 1.172-1.063 3.74 3.74 0 0 0 .719-1.422 4.34 4.34 0 0 0 .093-1.625c-.074-.594-.25-1.113-.53-1.562a3.382 3.382 0 0 0 -1.095-1.125 4.29 4.29 0 0 0 -1.422-.594 4.763 4.763 0 0 0 -1.578-.078l-2.28.297a4.461 4.461 0 0 1 -1.767-.094 4.111 4.111 0 0 1 -1.5-.719 3.782 3.782 0 0 1 -1.14-1.219 4.52 4.52 0 0 1 -.563-1.625 4.437 4.437 0 0 1 .125-1.734 4.093 4.093 0 0 1 .782-1.516 4.264 4.264 0 0 1 1.265-1.125 4.679 4.679 0 0 1 1.672-.562l5.14-.672c.239-.02.368.063.391.25.032.211-.074.324-.312.344l-5.281.703a3.5 3.5 0 0 0 -1.391.484 4.564 4.564 0 0 0 -1.094.953c-.293.399-.5.829-.625 1.297-.125.47-.156.95-.094 1.438.063.512.211.98.454 1.406.25.43.566.79.953 1.078.383.305.816.524 1.297.656.476.137.968.172 1.468.11l2.516-.328a4.874 4.874 0 0 1 3.422.812c.476.367.875.805 1.187 1.313.313.511.508 1.078.594 1.703.082.637.04 1.258-.125 1.86a4.78 4.78 0 0 1 -.812 1.624 4.827 4.827 0 0 1 -1.36 1.219 4.552 4.552 0 0 1 -1.719.594zm4.532-15.976a.456.456 0 0 1 -.375-.063.492.492 0 0 1 -.203-.328c-.031-.156-.008-.28.063-.375a.53.53 0 0 1 .328-.203.497.497 0 0 1 .39.063c.106.062.172.172.204.328a.56.56 0 0 1 -.063.375c-.07.105-.187.172-.344.203zm2.844 14.75a.287.287 0 0 1 -.234-.031.371.371 0 0 1 -.125-.22l-2.297-11.89c-.04-.195.039-.316.234-.36.188-.03.305.056.344.25l2.297 11.892c.02.093.004.18-.047.25a.239.239 0 0 1 -.172.109zm3.647-.601a.3.3 0 0 1 -.235-.03.266.266 0 0 1 -.14-.173l-2.266-8.36a3.71 3.71 0 0 1 -.078-1.468c.062-.5.215-.957.453-1.375.242-.414.555-.781.937-1.094a3.56 3.56 0 0 1 1.329-.671 3.428 3.428 0 0 1 2.156.109 3.877 3.877 0 0 1 1.75 1.219 3.636 3.636 0 0 1 .875-1.922 3.432 3.432 0 0 1 1.844-1.188c.5-.133.992-.164 1.484-.093.488.074.945.226 1.375.453.414.261.773.59 1.078.984.3.387.52.824.656 1.313l2.25 8.343c.02.063.008.137-.03.219a.285.285 0 0 1 -.188.14.259.259 0 0 1 -.235-.015.356.356 0 0 1 -.125-.187l-2.219-8.235a3.281 3.281 0 0 0 -.562-1.14 3.047 3.047 0 0 0 -.906-.829 3.059 3.059 0 0 0 -1.172-.421 2.879 2.879 0 0 0 -1.25.062c-.406.105-.774.29-1.094.547-.312.25-.574.547-.781.89-.2.368-.328.75-.39 1.157a2.99 2.99 0 0 0 .062 1.219l2.265 8.375a.321.321 0 0 1 -.03.234.285.285 0 0 1 -.188.14.258.258 0 0 1 -.22-.03.285.285 0 0 1 -.124-.188l-2.266-8.375a2.964 2.964 0 0 0 -.562-1.078 3.412 3.412 0 0 0 -.938-.797 3.405 3.405 0 0 0 -1.156-.375 2.973 2.973 0 0 0 -1.203.062 3.058 3.058 0 0 0 -1.078.547c-.305.25-.559.547-.766.89a2.906 2.906 0 0 0 -.39 1.126c-.063.398-.063.789 0 1.172.023 0 .038.023.046.062l2.25 8.422a.253.253 0 0 1 -.047.219.286.286 0 0 1 -.171.14zm21.835-6.665a6.23 6.23 0 0 1 -2.5.453 6.272 6.272 0 0 1 -2.422-.531 5.999 5.999 0 0 1 -2.047-1.406 6.431 6.431 0 0 1 -1.39-2.141 6.355 6.355 0 0 1 -.454-2.5c.024-.863.2-1.68.532-2.453a6.01 6.01 0 0 1 1.406-2.031 6.514 6.514 0 0 1 2.14-1.375 6.317 6.317 0 0 1 2.485-.454 6.34 6.34 0 0 1 2.437.516 6.494 6.494 0 0 1 2.047 1.438 6.471 6.471 0 0 1 1.391 2.14c.32.824.469 1.664.437 2.516a6.605 6.605 0 0 1 -.515 2.406 6.33 6.33 0 0 1 -1.422 2.047 6.307 6.307 0 0 1 -2.125 1.375zm-.219-.531c.75-.29 1.406-.711 1.969-1.266.562-.55.984-1.18 1.266-1.89.3-.696.457-1.43.468-2.204a6.034 6.034 0 0 0 -.406-2.25 5.793 5.793 0 0 0 -1.25-1.953 5.958 5.958 0 0 0 -1.844-1.281c-.699-.3-1.437-.457-2.218-.469a5.87 5.87 0 0 0 -2.282.406 5.621 5.621 0 0 0 -1.953 1.266 6.115 6.115 0 0 0 -1.297 1.86c-.289.699-.441 1.433-.453 2.203a5.87 5.87 0 0 0 .406 2.28c.282.731.696 1.372 1.235 1.923a6.01 6.01 0 0 0 1.844 1.28c.718.313 1.46.481 2.234.5a5.741 5.741 0 0 0 2.281-.405zm-1.484-17.282c.062-.03.117-.03.172 0a.258.258 0 0 1 .125.125c.031.063.039.11.031.141.008.313-.008.605-.047.875a2.943 2.943 0 0 1 -.219.75 2.328 2.328 0 0 1 -1.343 1.313c-.356.148-.797.187-1.329.125a4.095 4.095 0 0 1 -.64-.079c-.219-.05-.445-.109-.672-.171-.887-.313-1.602-.36-2.156-.141-.54.21-.938.562-1.188 1.062-.195.418-.297.907-.297 1.47a.219.219 0 0 1 0 .171c-.03.063-.066.105-.109.125a.232.232 0 0 1 -.203 0 .376.376 0 0 1 -.156-.156.424.424 0 0 1 0-.14 3.9 3.9 0 0 1 .062-.845c.055-.27.137-.535.25-.796.305-.645.774-1.094 1.406-1.344a2.484 2.484 0 0 1 1.125-.172c.375.031.805.121 1.297.266.219.074.426.132.625.171.196.043.39.075.578.094.489.055.883.024 1.188-.094.531-.207.906-.554 1.125-1.046.144-.383.219-.86.219-1.422-.024-.145.03-.239.156-.282zm14.979 11.783a6.396 6.396 0 0 1 -2.422.703 6.26 6.26 0 0 1 -2.484-.312 5.833 5.833 0 0 1 -2.157-1.172 6.425 6.425 0 0 1 -1.609-2 6.336 6.336 0 0 1 -.672-2.406 6.825 6.825 0 0 1 .25-2.5c.25-.79.653-1.516 1.203-2.172a6.3 6.3 0 0 1 4.406-2.281 6.389 6.389 0 0 1 2.47.265 6.659 6.659 0 0 1 2.202 1.203c.657.543 1.18 1.2 1.579 1.97a.317.317 0 0 1 .015.218c-.012.086-.047.14-.11.172l-10.655 5.515a5.84 5.84 0 0 0 1.453 1.688c.582.46 1.226.797 1.937 1.016a5.625 5.625 0 0 0 2.172.234 5.88 5.88 0 0 0 2.172-.64c.539-.282.976-.579 1.312-.891.332-.282.66-.676.985-1.188l.094-.094a.318.318 0 0 1 .078-.062.504.504 0 0 1 .187.016.25.25 0 0 1 .203.14c.04.074.032.168-.031.281-.324.5-.668.918-1.031 1.25-.387.368-.903.715-1.547 1.047zm-8.234-3.25 10.39-5.375a5.958 5.958 0 0 0 -1.484-1.687 6.26 6.26 0 0 0 -1.953-1.047 6.252 6.252 0 0 0 -2.235-.219 5.75 5.75 0 0 0 -2.156.625 5.855 5.855 0 0 0 -1.766 1.406 5.6 5.6 0 0 0 -1.078 1.938c-.226.7-.32 1.43-.281 2.187.043.75.23 1.477.563 2.172zm20.917-4.362-5.219 3.344a.273.273 0 0 1 -.203.047c-.062-.02-.12-.07-.172-.156a.244.244 0 0 1 -.046-.188.306.306 0 0 1 .125-.172l5.218-3.344c.301-.187.551-.437.75-.75.207-.32.352-.664.438-1.03.094-.384.11-.766.047-1.141a2.787 2.787 0 0 0 -.422-1.11 2.37 2.37 0 0 0 -.781-.781 2.811 2.811 0 0 0 -1-.39 3.232 3.232 0 0 0 -1.079.03 3.536 3.536 0 0 0 -1.046.391l-2.485 1.594c-.375.242-.77.402-1.187.484a3.126 3.126 0 0 1 -1.25-.03 3.091 3.091 0 0 1 -1.14-.485 3.203 3.203 0 0 1 -.907-.953 3.108 3.108 0 0 1 -.469-1.172 3.284 3.284 0 0 1 .031-1.266c.086-.406.25-.781.5-1.125.243-.351.547-.648.922-.89l4.485-2.891c.164-.102.3-.078.406.078.101.168.07.305-.094.406l-4.516 2.906a2.51 2.51 0 0 0 -.765.766 2.627 2.627 0 0 0 -.375.938 2.774 2.774 0 0 0 0 1.015 2.3 2.3 0 0 0 .36.922c.187.293.421.54.702.734a2.626 2.626 0 0 0 1.953.469 2.714 2.714 0 0 0 1-.39l2.532-1.625c.812-.52 1.664-.68 2.562-.485a3.11 3.11 0 0 1 1.203.516c.375.25.688.57.938.953.25.398.414.82.5 1.266.082.449.07.89-.031 1.328-.094.46-.274.875-.532 1.25-.25.375-.57.687-.953.937zm0 0" fill="#603f0d"/></svg>