<svg height="993" viewBox="0 0 439.032 174.406" width="2500" xmlns="http://www.w3.org/2000/svg"><g stroke-width="12.867"><path d="m0 114.26v-114.26h439.031v114.26z" fill="#afc6e9"/><path d="m0 174.406v-54.198h439.031v54.198z" fill="#005"/><path d="m0 174.406v-54.198h439.032v54.198z" fill="none"/></g><g fill="#fff" fill-rule="evenodd"><path d="m190.95 133.082c1.326 0 2.1.884 2.1 2.1 0 1.104-.221 2.209-.221 3.424 0 .885.22 1.769.22 2.652 0 1.548-1.436 2.321-2.762 2.321-1.768 0-2.652-.884-2.541-2.652 0-.994.11-1.436-.552-2.21-.774-.773-1.879-.994-2.873-.994-4.2 0-4.641 4.088-4.641 7.403 0 3.424.442 7.183 4.75 7.183.995 0 1.99-.113 2.653-.775.773-.772.773-1.434.773-2.431 0-.772 0-1.435.442-2.1.442-.662 1.216-.883 2.1-.883 2.099 0 3.093 1.548 3.093 3.536 0 5.083-4.75 7.402-9.281 7.402-2.984 0-5.967-.884-8.067-3.202-1.988-2.1-2.872-5.747-2.872-8.73 0-2.652.552-5.967 1.99-8.287 1.767-2.542 4.75-3.978 7.844-3.978 2.32 0 4.199.773 5.746 2.43-.11-1.325.773-2.21 2.1-2.21zm14.364 15.912c-.994.993-4.86.552-4.86 2.32 0 1.104.993 1.548 1.877 1.548 1.989 0 2.983-1.216 2.983-3.206zm-3.424-5.636c0 1.547-1.437 2.21-2.874 2.21-1.547 0-2.983-1.215-2.983-2.873 0-3.425 4.641-3.978 7.182-3.978 1.768 0 3.978.111 5.414.995 1.99 1.105 2.21 3.094 2.21 5.083v6.298c0 .44-.11 1.547.553 1.547h.773c1.105 0 1.657.884 1.657 1.878 0 1.878-1.878 2.54-3.425 2.54s-3.204-.55-3.756-2.1c-1.658 1.438-3.647 2.1-5.746 2.1-2.984 0-5.967-1.656-5.967-4.971 0-7.956 10.386-3.869 10.386-8.288 0-1.214-1.215-1.877-2.32-1.877-.552 0-1.104.11-1.104.773zm16.352 2.1c0-.443.11-2.321-.552-2.321-.332 0-.663.221-1.105.221-1.105 0-1.547-.884-1.547-1.879 0-1.215.552-2.32 1.658-2.32.994.11 1.657.332 2.32.332.773 0 1.436-.221 2.21-.331.994 0 1.105.662 1.105 1.436v2.541c.552-2.762 2.54-4.309 5.414-4.309 2.32 0 4.42 1.768 4.42 4.198 0 1.658-1.105 3.315-2.873 3.315-1.327 0-2.321-.884-2.321-2.21 0-.442.111-.884.332-1.325-3.756-.221-3.867 4.862-3.867 7.512 0 .444-.11 2.322.663 2.322.33 0 .662-.222 1.104-.222 1.106 0 1.437.884 1.437 1.878 0 1.328-.552 2.322-1.658 2.322-1.768 0-3.093-.332-4.53-.332-1.215 0-2.54.332-3.756.332-1.106 0-1.658-.994-1.658-2.322 0-.993.442-1.878 1.547-1.878.442 0 .773.222 1.105.222.662 0 .552-1.878.552-2.322zm18.343 0c0-.443.11-2.321-.553-2.321-.442 0-.774.221-1.105.221-1.105 0-1.547-.884-1.547-1.879 0-1.215.553-2.32 1.658-2.32.994.11 1.657.332 2.32.332.774 0 1.437-.221 2.21-.331.994 0 .994.662.994 1.436v2.541c.663-2.762 2.652-4.309 5.525-4.309 2.32 0 4.42 1.768 4.42 4.198 0 1.658-1.105 3.315-2.873 3.315-1.326 0-2.43-.884-2.43-2.21 0-.442.22-.884.441-1.325-3.757-.221-3.867 4.862-3.867 7.512 0 .444-.111 2.322.662 2.322.332 0 .664-.222 1.106-.222 1.105 0 1.436.884 1.436 1.878 0 1.328-.552 2.322-1.657 2.322-1.768 0-3.095-.332-4.53-.332-1.216 0-2.541.332-3.757.332-1.105 0-1.658-.994-1.658-2.322 0-.993.442-1.878 1.547-1.878.331 0 .663.222 1.105.222.663 0 .553-1.878.553-2.322zm24.529-.332c.553 0 1.105.11 1.105-.553 0-.553-.332-1.105-.663-1.436-.552-.442-1.105-.663-1.767-.663-.995 0-1.658.22-2.32.884-.332.331-.885.884-.885 1.326 0 .552 1.105.442 1.437.442zm-3.093 3.646c-.663 0-1.548-.222-1.548.775 0 1.877 1.548 3.315 3.426 3.315 2.873 0 2.651-2.653 5.305-2.653 1.214 0 2.208.772 2.208 2.1 0 1.437-1.104 2.65-2.208 3.424-1.658.994-3.537 1.325-5.415 1.325-5.415 0-8.84-3.646-8.84-9.058 0-5.305 3.315-9.283 8.73-9.283 1.988 0 4.198.442 5.634 1.768 1.657 1.437 2.432 3.757 2.432 5.856 0 1.99-.222 2.43-2.21 2.43zm18.673 1.546c0 .444-.11 2.322.663 2.322.332 0 .664-.222 1.105-.222 1.106 0 1.437.884 1.437 1.878 0 1.328-.553 2.322-1.99 2.322-1.436 0-2.762-.332-4.088-.332s-2.54.332-3.646.332c-1.326 0-1.878-.994-1.878-2.322 0-.993.33-1.878 1.436-1.878.442 0 .773.222 1.105.222.773 0 .663-1.878.663-2.322v-6.076c0-1.216 0-1.326-1.105-1.326-1.326 0-2.1-.331-2.1-1.768s.553-1.989 1.879-1.989c.995 0 1.326.11 1.326-1.105.11-3.646 3.315-5.193 6.63-5.193 1.105 0 2.43.22 3.425.773 1.105.553 1.989 1.658 1.989 2.984 0 1.436-.994 2.541-2.541 2.541-1.105 0-2.21-.773-2.21-1.99 0-.33.11-.551.22-.883-.22-.11-.33-.11-.662-.11-1.216 0-1.658.774-1.658 1.878 0 1.105.11 1.105 1.216 1.105 1.326 0 2.32.11 2.32 1.768 0 1.547-.662 1.989-2.1 1.989-1.326 0-1.436-.11-1.436 1.326z"/><path d="m289.622 142.916c-2.762 0-3.425 2.762-3.425 4.971 0 1.99.663 4.975 3.093 4.975 1.216 0 2.21-.331 2.763-1.438.552-1.106.774-2.43.774-3.537 0-2.209-.553-4.971-3.205-4.971zm8.618 4.752c0 5.525-2.761 9.39-8.618 9.39-5.746 0-8.839-3.534-8.839-9.17 0-5.745 3.093-9.17 8.84-9.17 5.414 0 8.617 3.535 8.617 8.95zm2.431-2.21c0-.443.11-2.321-.662-2.321-.331 0-.663.221-1.105.221-1.105 0-1.437-.884-1.437-1.879 0-1.215.553-2.32 3.095-2.32.662.11 1.325.332 2.098.332.775 0 1.547-.221 2.322-.331 1.105 0 .882.994.882 1.877v7.956c0 .663 0 1.878.442 2.54.332.554 1.107.997 1.88.997.994 0 1.877-.443 2.429-1.327.664-1.103.775-2.21.775-3.425v-2.32c0-.443.11-2.321-.664-2.321-.33 0-.663.221-1.104.221-1.105 0-1.437-.884-1.437-1.879 0-1.215.552-2.32 2.874-2.32.663.11 1.326.332 2.098.332.773 0 1.547-.221 2.32-.331 1.216 0 1.106.773 1.106 1.657v9.501c0 .444-.11 2.322.552 2.322.333 0 .664-.222 1.104-.222 1.107 0 1.548.884 1.548 1.878 0 1.328-.663 2.322-1.988 2.322-.884 0-1.657-.332-2.431-.332-.664 0-1.438.332-2.1.332-1.216 0-1.216-1.106-1.216-1.769v-.663c-1.215 1.878-3.646 2.872-5.854 2.872-1.77 0-3.758-.662-4.753-2.1-.883-1.434-.774-3.424-.774-5.08zm23.646 0c0-.443.111-2.321-.662-2.321-.332 0-.663.221-1.105.221-1.104 0-1.437-.884-1.437-1.879 0-1.215.552-2.32 1.657-2.32.996.11 1.658.332 2.322.332.774 0 1.435-.221 2.209-.331.995 0 .995.662.995 1.436v2.541c.663-2.762 2.65-4.309 5.524-4.309 2.32 0 4.309 1.768 4.309 4.198 0 1.658-.994 3.315-2.872 3.315-1.216 0-2.321-.884-2.321-2.21 0-.442.22-.884.443-1.325-3.757-.221-3.869 4.862-3.869 7.512 0 .444-.11 2.322.664 2.322.331 0 .663-.222 1.105-.222 1.104 0 1.437.884 1.437 1.878 0 1.328-.553 2.322-1.658 2.322-1.88 0-3.205-.332-4.531-.332-1.215 0-2.542.332-3.757.332-1.105 0-1.657-.994-1.657-2.322 0-.993.333-1.878 1.437-1.878.442 0 .773.222 1.105.222.773 0 .662-1.878.662-2.322zm97.9 2.098c0 .331-.333.662-.333.662l-18.231 18.124c-.664.771-1.104.33-.883-.222.441-.885 1.103-1.878 1.767-4.088.993-3.205.993-5.858.552-7.405-.331-1.434-2.1-4.418-5.967-4.418-4.972 0-6.408 4.53-6.298 6.187.112 1.106 0 2.762 1.767 4.309 1.326 1.106 2.542.775 2.874.665.331 0 .995-.444.995.662 0 1.216-1.105 2.763-1.769 3.534-.774.666-3.205 2.544-6.739 2.544-2.1 0-4.64-.884-6.408-2.984-1.328-1.547-2.212-3.315-2.986-5.856-1.546-4.643-1.767-8.067-1.767-11.714 0-3.314.333-6.96 1.767-11.6.664-2.432 1.88-4.643 2.986-6.078 1.657-2.1 4.308-2.984 6.408-2.984 3.534 0 5.965 1.878 6.74 2.652.663.663 1.768 2.21 1.768 3.536 0 .994-.664.552-.995.552-.332-.11-1.548-.441-2.874.663-1.767 1.547-1.655 3.315-1.767 4.31-.11 1.768 1.326 6.188 6.298 6.188 3.867 0 5.636-2.873 5.967-4.42.441-1.547.441-4.2-.552-7.293-.664-2.32-1.326-3.204-1.767-4.199-.22-.442.219-.994.883-.22l18.23 18.12s.334.332.334.773zm-66.96-.22c0 .442.441.773.441.773l19.336 18.564c.554.44.664 0 .554-.332-.112-.221-.223-.33-.772-1.215-5.305-7.624-5.195-17.79-5.195-17.79s-.11-10.166 5.195-17.68c.55-.884.66-.994.772-1.325.11-.332 0-.773-.554-.332l-19.336 18.563s-.441.333-.441.774z"/></g><path d="m34.863 70.458-3.253 4.391q-1.951-1.843-4.012-1.843-.976 0-1.735.705-.759.65-.759 1.572 0 .542.271 1.03.272.434.868.813l1.193.597q.542.216 1.518.596 1.03.38 1.626.65 2.494 1.085 3.958 2.82 1.518 1.68 1.518 4.825 0 4.283-3.036 6.885-2.982 2.549-7.32 2.549-5.692 0-9.379-4.446l3.47-4.5q2.765 3.09 5.639 3.09 1.3 0 2.168-.759.868-.813.868-2.114 0-.65-.271-1.139-.217-.542-.868-.976-.65-.433-1.138-.65-.434-.217-1.518-.65-1.085-.435-1.518-.597-2.494-1.085-3.904-2.603-1.41-1.518-1.41-4.391 0-3.741 2.332-6.18 2.385-2.44 6.126-2.44 5.422 0 8.566 2.765zm32.258-1.898v2.44q2.765-3.307 7.373-3.307 5.422 0 8.783 4.283 3.362 4.229 3.362 9.759 0 5.8-3.362 10.084-3.307 4.229-8.945 4.229-2.115 0-4.066-.868-1.952-.922-3.037-2.494h-.108v16.699h-7.59v-40.825zm.976 18.488q1.789 2.277 4.554 2.277 2.765 0 4.5-2.277 1.79-2.332 1.79-5.205t-1.79-5.15q-1.735-2.278-4.5-2.278-2.765 0-4.554 2.277-1.735 2.278-1.735 5.151 0 2.873 1.735 5.205zm65.02-3.958h-17.512q0 2.928 1.247 5.042 1.302 2.114 4.012 2.114 3.308 0 5.097-3.632l6.994 1.139q-1.356 3.957-4.609 6.126-3.253 2.169-7.482 2.169-6.072 0-9.704-3.85-3.579-3.903-3.579-10.084 0-6.343 3.308-10.355 3.361-4.066 9.596-4.066 6.235 0 9.433 4.066 3.2 4.012 3.2 10.41zm-17.295-4.717h10.139q-.326-2.223-1.681-3.795-1.301-1.572-3.361-1.572-2.169 0-3.47 1.572-1.301 1.518-1.627 3.795zm58.325-9v7.32q-2.602-2.603-5.584-2.603-3.036 0-4.88 2.386-1.843 2.385-1.843 5.53 0 3.253 1.897 5.475 1.952 2.17 5.097 2.17 3.036 0 5.313-2.55v7.32q-2.928 1.627-6.56 1.627-5.801 0-9.65-4.12-3.796-4.121-3.796-9.977 0-6.018 3.904-10.138 3.958-4.12 9.921-4.12 3.47 0 6.181 1.68zm32.622 5.585v20.222h-7.59v-20.222h-2.603v-6.398h2.603v-9h7.59v9h4.663v6.398zm50.815-6.398v26.62h-7.482v-2.44h-.108q-2.548 3.308-7.211 3.308-5.584 0-8.946-4.283-3.307-4.284-3.307-10.03 0-5.639 3.307-9.814 3.362-4.228 8.837-4.228 4.555 0 7.428 3.361v-2.494zm-17.62 18.488q1.789 2.277 4.554 2.277 2.765 0 4.554-2.277 1.79-2.332 1.79-5.205t-1.79-5.15q-1.79-2.278-4.554-2.278-2.765 0-4.554 2.277-1.735 2.278-1.735 5.151 0 2.873 1.735 5.205zm60.52-17.675v7.32q-2.602-2.603-5.584-2.603-3.036 0-4.88 2.386-1.843 2.385-1.843 5.53 0 3.253 1.898 5.475 1.951 2.17 5.096 2.17 3.036 0 5.313-2.55v7.32q-2.928 1.627-6.56 1.627-5.801 0-9.65-4.12-3.796-4.121-3.796-9.977 0-6.018 3.904-10.138 3.958-4.12 9.921-4.12 3.47 0 6.181 1.68zm31.7-20.168v45.975h-7.59v-45.975zm48.313 33.885h-17.512q0 2.928 1.247 5.042 1.301 2.114 4.012 2.114 3.307 0 5.096-3.632l6.994 1.139q-1.355 3.957-4.608 6.126-3.253 2.169-7.482 2.169-6.072 0-9.705-3.85-3.578-3.903-3.578-10.084 0-6.343 3.307-10.355 3.362-4.066 9.597-4.066 6.234 0 9.433 4.066 3.199 4.012 3.199 10.41zm-17.295-4.717h10.138q-.325-2.223-1.68-3.795-1.302-1.572-3.362-1.572-2.168 0-3.47 1.572-1.3 1.518-1.626 3.795zm57.132-7.915-3.253 4.391q-1.952-1.843-4.012-1.843-.976 0-1.735.705-.759.65-.759 1.572 0 .542.271 1.03.271.434.868.813l1.192.597q.542.216 1.518.596 1.03.38 1.627.65 2.494 1.085 3.958 2.82 1.518 1.68 1.518 4.825 0 4.283-3.036 6.885-2.982 2.549-7.32 2.549-5.692 0-9.379-4.446l3.47-4.5q2.765 3.09 5.638 3.09 1.301 0 2.169-.759.867-.813.867-2.114 0-.65-.27-1.139-.218-.542-.868-.976-.65-.433-1.139-.65-.433-.217-1.518-.65-1.084-.435-1.518-.597-2.494-1.085-3.903-2.603-1.41-1.518-1.41-4.391 0-3.741 2.331-6.18 2.386-2.44 6.127-2.44 5.421 0 8.566 2.765z" fill="#005" stroke-width="2.738"/></svg>