<svg xmlns="http://www.w3.org/2000/svg" width="2500" height="414" viewBox="0 -0.0050000000000003375 256.00300000000004 42.385000000000005"><g fill="none" fill-rule="evenodd" stroke-miterlimit="10" font-family="none" font-weight="none" font-size="none" text-anchor="none" style="mix-blend-mode:normal"><path d="M18.18 6.356c1.363 0 2.16.91 2.16 2.16 0 1.135-.228 2.272-.228 3.522 0 .91.227 1.817.227 2.727 0 1.59-1.478 2.385-2.842 2.385-1.817 0-2.726-.91-2.612-2.726 0-1.023.113-1.476-.569-2.272-.795-.796-1.932-1.022-2.955-1.022-4.317 0-4.771 4.205-4.771 7.613 0 3.524.454 7.386 4.886 7.386 1.023 0 2.045-.113 2.727-.798.795-.794.795-1.474.795-2.499 0-.794 0-1.474.455-2.158.455-.682 1.25-.908 2.158-.908 2.16 0 3.183 1.592 3.183 3.634 0 5.228-4.886 7.616-9.545 7.616-3.07 0-6.135-.909-8.295-3.296C.908 25.56 0 21.81 0 18.743c0-2.726.568-6.136 2.045-8.522 1.818-2.614 4.886-4.09 8.067-4.09 2.387 0 4.318.795 5.908 2.5-.112-1.365.795-2.275 2.16-2.275zm11.25 10.568c0 1.59-1.478 2.272-2.954 2.272-1.59 0-3.068-1.25-3.068-2.954 0-3.522 4.773-4.09 7.386-4.09 1.817 0 4.09.113 5.568 1.023 2.044 1.137 2.272 3.181 2.272 5.227v6.478c0 .453-.114 1.59.568 1.59h.796c1.135 0 1.705.909 1.705 1.93 0 1.931-1.933 2.616-3.522 2.616-1.59 0-3.295-.568-3.864-2.16-1.705 1.475-3.75 2.16-5.909 2.16-3.067 0-6.135-1.706-6.135-5.115 0-8.18 10.68-3.975 10.68-8.522 0-1.25-1.25-1.932-2.385-1.932-.568 0-1.135.113-1.135.795v.682zm3.52 5.794c-1.023 1.022-5 .569-5 2.388 0 1.135 1.023 1.59 1.933 1.59 2.044 0 3.067-1.251 3.067-3.297zm13.297-3.635c0-.455.113-2.387-.569-2.387-.34 0-.682.227-1.136.227-1.136 0-1.59-.91-1.59-1.933 0-1.248.568-2.385 1.705-2.385 1.023.114 1.703.341 2.385.341.796 0 1.478-.227 2.274-.341 1.021 0 1.135.682 1.135 1.478v2.613c.568-2.84 2.613-4.432 5.567-4.432 2.387 0 4.545 1.817 4.545 4.318 0 1.705-1.137 3.408-2.954 3.408-1.363 0-2.387-.907-2.387-2.271 0-.455.113-.91.34-1.364-3.86-.228-3.976 5-3.976 7.724 0 .457-.114 2.387.682 2.387.341 0 .682-.227 1.135-.227 1.137 0 1.478.91 1.478 1.934 0 1.363-.569 2.384-1.705 2.384-1.817 0-3.181-.341-4.66-.341-1.25 0-2.612.341-3.862.341-1.137 0-1.705-1.021-1.705-2.384 0-1.025.454-1.934 1.59-1.934.454 0 .795.227 1.136.227.682 0 .568-1.93.568-2.387v-4.996zm18.861 0c0-.455.114-2.387-.567-2.387-.454 0-.795.227-1.137.227-1.136 0-1.59-.91-1.59-1.933 0-1.248.567-2.385 1.704-2.385 1.023.114 1.705.341 2.387.341.796 0 1.478-.227 2.272-.341 1.023 0 1.023.682 1.023 1.478v2.613c.682-2.84 2.727-4.432 5.68-4.432 2.388 0 4.546 1.817 4.546 4.318 0 1.705-1.137 3.408-2.954 3.408-1.364 0-2.5-.907-2.5-2.271 0-.455.228-.91.455-1.364-3.863-.228-3.978 5-3.978 7.724 0 .457-.112 2.387.682 2.387.341 0 .682-.227 1.135-.227 1.137 0 1.478.91 1.478 1.934 0 1.363-.569 2.384-1.705 2.384-1.817 0-3.181-.341-4.66-.341-1.25 0-2.614.341-3.862.341-1.136 0-1.705-1.021-1.705-2.384 0-1.025.454-1.934 1.59-1.934.342 0 .683.227 1.138.227.682 0 .566-1.93.566-2.387v-4.996zm22.044 3.408c-.682 0-1.59-.226-1.59.797 0 1.931 1.59 3.409 3.523 3.409 2.953 0 2.726-2.728 5.453-2.728 1.25 0 2.271.797 2.271 2.16 0 1.477-1.135 2.728-2.271 3.522-1.705 1.021-3.636 1.365-5.569 1.365-5.568 0-9.09-3.75-9.09-9.317 0-5.455 3.408-9.546 8.977-9.546 2.044 0 4.316.455 5.795 1.82 1.704 1.475 2.5 3.862 2.5 6.02 0 2.047-.228 2.5-2.274 2.5h-7.725zm3.181-3.748c.569 0 1.137.114 1.137-.568 0-.569-.34-1.137-.682-1.478-.568-.455-1.135-.682-1.817-.682-1.023 0-1.704.227-2.387.91-.341.34-.908.907-.908 1.362 0 .568 1.137.455 1.478.455h3.18zm16.023 5.338c0 .456-.113 2.387.682 2.387.341 0 .682-.227 1.135-.227 1.137 0 1.478.909 1.478 1.934 0 1.362-.568 2.384-2.044 2.384-1.477 0-2.84-.341-4.205-.341-1.362 0-2.613.34-3.75.34-1.363 0-1.932-1.02-1.932-2.383 0-1.025.341-1.934 1.478-1.934.455 0 .796.227 1.135.227.796 0 .682-1.93.682-2.387v-6.249c0-1.25 0-1.362-1.135-1.362-1.362 0-2.158-.341-2.158-1.819s.568-2.044 1.932-2.044c1.022 0 1.363.113 1.363-1.136.113-3.75 3.408-5.34 6.818-5.34 1.136 0 2.5.227 3.523.795 1.135.568 2.044 1.705 2.044 3.068 0 1.477-1.023 2.613-2.613 2.613-1.136 0-2.273-.796-2.273-2.045 0-.341.114-.568.227-.91-.227-.113-.34-.113-.682-.113-1.25 0-1.703.796-1.703 1.932 0 1.137.113 1.136 1.25 1.136 1.363 0 2.387.113 2.387 1.817 0 1.591-.682 2.046-2.16 2.046-1.364 0-1.477-.114-1.477 1.362v6.249z" fill="#1f2993"/><path d="M128.514 21.356c0 5.68-2.84 9.659-8.863 9.659-5.91 0-9.09-3.638-9.09-9.433 0-5.91 3.18-9.432 9.09-9.432 5.567.002 8.863 3.638 8.863 9.206zm-8.863-4.886c-2.842 0-3.522 2.84-3.522 5.113 0 2.045.682 5.114 3.18 5.114 1.251 0 2.273-.341 2.841-1.478.568-1.136.796-2.499.796-3.636-.002-2.273-.569-5.113-3.295-5.113z" fill="#1f2993"/><path d="M131.013 19.083c0-.455.112-2.387-.683-2.387-.341 0-.682.227-1.135.227-1.137 0-1.478-.91-1.478-1.933 0-1.248.568-2.385 3.181-2.385.682.114 1.366.341 2.16.341.797 0 1.59-.227 2.387-.341 1.135 0 .91 1.023.91 1.932v8.181c0 .682 0 1.931.452 2.613.341.569 1.137 1.025 1.931 1.025 1.025 0 1.934-.456 2.5-1.366.683-1.135.797-2.272.797-3.522v-2.385c0-.455.112-2.387-.682-2.387-.341 0-.682.227-1.137.227-1.137 0-1.478-.91-1.478-1.933 0-1.248.568-2.385 2.956-2.385.682.114 1.362.341 2.16.341.793 0 1.59-.227 2.383-.341 1.25 0 1.137.796 1.137 1.705v9.77c0 .457-.115 2.388.568 2.388.341 0 .682-.227 1.135-.227 1.137 0 1.59.909 1.59 1.934 0 1.362-.682 2.384-2.043 2.384-.91 0-1.706-.341-2.499-.341-.682 0-1.478.34-2.16.34-1.25 0-1.25-1.136-1.25-1.818v-.682c-1.25 1.93-3.75 2.955-6.021 2.955-1.82 0-3.865-.683-4.888-2.16-.91-1.477-.794-3.525-.794-5.227v-4.543zm24.316 0c0-.455.115-2.387-.682-2.387-.34 0-.682.227-1.136.227-1.136 0-1.475-.91-1.475-1.933 0-1.248.568-2.385 1.703-2.385 1.022.114 1.707.341 2.388.341.794 0 1.477-.227 2.271-.341 1.022 0 1.022.682 1.022 1.478v2.613c.682-2.84 2.728-4.432 5.68-4.432 2.387 0 4.435 1.817 4.435 4.318 0 1.705-1.025 3.408-2.956 3.408-1.25 0-2.383-.907-2.383-2.271 0-.455.225-.91.453-1.364-3.862-.228-3.979 5-3.979 7.724 0 .457-.112 2.387.682 2.387.344 0 .684-.227 1.137-.227 1.137 0 1.478.91 1.478 1.934 0 1.363-.569 2.384-1.707 2.384-1.93 0-3.293-.341-4.656-.341-1.25 0-2.616.341-3.865.341-1.135 0-1.703-1.021-1.703-2.384 0-1.025.341-1.934 1.475-1.934.456 0 .797.227 1.136.227.797 0 .682-1.93.682-2.387zm100.674 2.158c0 .342-.34.683-.34.683l-18.747 18.634c-.683.798-1.136.341-.91-.227.454-.91 1.136-1.93 1.817-4.203 1.024-3.296 1.024-6.021.568-7.612-.341-1.478-2.16-4.547-6.134-4.547-5.115 0-6.59 4.659-6.477 6.362.112 1.137 0 2.84 1.818 4.435 1.363 1.135 2.613.794 2.953.682.34 0 1.024-.456 1.024.682 0 1.25-1.136 2.84-1.818 3.634-.798.684-3.297 2.616-6.931 2.616-2.16 0-4.774-.91-6.59-3.069-1.365-1.59-2.275-3.408-3.069-6.021-1.59-4.771-1.819-8.297-1.819-12.046 0-3.407.341-7.158 1.819-11.93.682-2.5 1.93-4.773 3.07-6.251 1.703-2.16 4.43-3.068 6.589-3.068 3.634 0 6.133 1.933 6.93 2.727.683.682 1.82 2.272 1.82 3.636 0 1.023-.684.568-1.025.568-.341-.114-1.59-.455-2.953.682-1.818 1.59-1.706 3.409-1.818 4.432-.112 1.817 1.362 6.362 6.477 6.362 3.976 0 5.794-2.954 6.134-4.545.456-1.59.456-4.318-.568-7.5-.682-2.385-1.363-3.294-1.816-4.316-.227-.454.226-1.023.91-.227l18.745 18.636c0-.003.341.338.341.79z" fill="#1f2993"/><path d="M187.146 21.015c0 .455.453.796.453.796l19.886 19.09c.568.456.682 0 .568-.341-.115-.227-.227-.341-.797-1.25-5.453-7.84-5.34-18.295-5.34-18.295s-.113-10.453 5.34-18.18c.569-.909.682-1.022.797-1.363.113-.341 0-.796-.568-.341L187.6 20.219s-.453.341-.453.796z" fill="#f2333a"/></g></svg>