<svg height="993" viewBox="0 0 439.031 174.406" width="2500" xmlns="http://www.w3.org/2000/svg"><g stroke-width="12.867"><path d="m0 114.26v-114.26h439.031v114.26z" fill="#0cf"/><path d="m0 174.406v-54.198h439.031v54.198z" fill="#005"/><path d="m0 174.406v-54.198h439.031v54.198z" fill="none"/></g><g fill="#fff"><g fill-rule="evenodd"><path d="m190.95 133.082c1.326 0 2.099.884 2.099 2.1 0 1.104-.22 2.209-.22 3.424 0 .885.22 1.769.22 2.652 0 1.548-1.436 2.321-2.762 2.321-1.768 0-2.652-.884-2.541-2.652 0-.994.11-1.436-.553-2.21-.773-.773-1.878-.994-2.873-.994-4.198 0-4.64 4.088-4.64 7.403 0 3.424.442 7.183 4.75 7.183.995 0 1.99-.113 2.653-.775.773-.772.773-1.434.773-2.431 0-.772 0-1.435.442-2.1.442-.662 1.215-.883 2.099-.883 2.1 0 3.094 1.548 3.094 3.536 0 5.083-4.75 7.402-9.282 7.402-2.983 0-5.966-.884-8.066-3.202-1.988-2.1-2.872-5.747-2.872-8.73 0-2.652.552-5.967 1.989-8.287 1.767-2.542 4.751-3.978 7.845-3.978 2.32 0 4.199.773 5.745 2.43-.11-1.325.774-2.21 2.1-2.21zm14.364 15.912c-.994.993-4.861.552-4.861 2.32 0 1.104.994 1.548 1.878 1.548 1.989 0 2.983-1.216 2.983-3.206zm-3.425-5.636c0 1.547-1.436 2.21-2.874 2.21-1.546 0-2.982-1.215-2.982-2.873 0-3.425 4.641-3.978 7.182-3.978 1.768 0 3.978.111 5.414.995 1.99 1.105 2.21 3.094 2.21 5.083v6.298c0 .44-.11 1.547.552 1.547h.774c1.105 0 1.657.884 1.657 1.878 0 1.878-1.878 2.54-3.425 2.54s-3.204-.55-3.757-2.1c-1.658 1.438-3.646 2.1-5.745 2.1-2.984 0-5.967-1.656-5.967-4.971 0-7.956 10.386-3.869 10.386-8.288 0-1.214-1.216-1.877-2.32-1.877-.553 0-1.105.11-1.105.773zm16.353 2.1c0-.443.11-2.321-.552-2.321-.332 0-.663.221-1.105.221-1.105 0-1.547-.884-1.547-1.879 0-1.215.552-2.32 1.657-2.32.995.11 1.657.332 2.32.332.774 0 1.437-.221 2.21-.331.995 0 1.106.662 1.106 1.436v2.541c.552-2.762 2.54-4.309 5.414-4.309 2.32 0 4.42 1.768 4.42 4.198 0 1.658-1.105 3.315-2.873 3.315-1.327 0-2.321-.884-2.321-2.21 0-.442.11-.884.332-1.325-3.757-.221-3.868 4.862-3.868 7.512 0 .444-.11 2.322.663 2.322.332 0 .663-.222 1.105-.222 1.105 0 1.436.884 1.436 1.878 0 1.328-.552 2.322-1.657 2.322-1.768 0-3.093-.332-4.53-.332-1.215 0-2.541.332-3.757.332-1.105 0-1.657-.994-1.657-2.322 0-.993.442-1.878 1.547-1.878.442 0 .773.222 1.105.222.662 0 .552-1.878.552-2.322zm18.343 0c0-.443.11-2.321-.553-2.321-.442 0-.774.221-1.105.221-1.105 0-1.548-.884-1.548-1.879 0-1.215.553-2.32 1.659-2.32.994.11 1.657.332 2.32.332.773 0 1.436-.221 2.21-.331.994 0 .994.662.994 1.436v2.541c.662-2.762 2.652-4.309 5.525-4.309 2.32 0 4.42 1.768 4.42 4.198 0 1.658-1.105 3.315-2.873 3.315-1.326 0-2.43-.884-2.43-2.21 0-.442.22-.884.441-1.325-3.757-.221-3.867 4.862-3.867 7.512 0 .444-.111 2.322.662 2.322.332 0 .664-.222 1.105-.222 1.106 0 1.437.884 1.437 1.878 0 1.328-.552 2.322-1.657 2.322-1.768 0-3.095-.332-4.53-.332-1.216 0-2.541.332-3.757.332-1.105 0-1.659-.994-1.659-2.322 0-.993.443-1.878 1.548-1.878.331 0 .663.222 1.105.222.663 0 .553-1.878.553-2.322zm24.529-.332c.553 0 1.105.11 1.105-.553 0-.553-.332-1.105-.663-1.436-.553-.442-1.105-.663-1.768-.663-.994 0-1.657.22-2.32.884-.33.331-.884.884-.884 1.326 0 .552 1.104.442 1.436.442zm-3.094 3.646c-.663 0-1.547-.222-1.547.775 0 1.877 1.547 3.315 3.426 3.315 2.872 0 2.651-2.653 5.304-2.653 1.215 0 2.21.772 2.21 2.1 0 1.437-1.105 2.65-2.21 3.424-1.658.994-3.536 1.325-5.415 1.325-5.414 0-8.84-3.646-8.84-9.058 0-5.305 3.316-9.283 8.73-9.283 1.989 0 4.199.442 5.635 1.768 1.657 1.437 2.431 3.757 2.431 5.856 0 1.99-.22 2.43-2.21 2.43zm18.674 1.546c0 .444-.111 2.322.663 2.322.332 0 .663-.222 1.105-.222 1.105 0 1.436.884 1.436 1.878 0 1.328-.552 2.322-1.989 2.322-1.436 0-2.762-.332-4.088-.332s-2.541.332-3.647.332c-1.325 0-1.877-.994-1.877-2.322 0-.993.33-1.878 1.435-1.878.442 0 .774.222 1.106.222.773 0 .663-1.878.663-2.322v-6.076c0-1.216 0-1.326-1.105-1.326-1.326 0-2.1-.331-2.1-1.768s.553-1.989 1.878-1.989c.996 0 1.327.11 1.327-1.105.11-3.646 3.314-5.193 6.629-5.193 1.106 0 2.431.22 3.426.773 1.104.553 1.989 1.658 1.989 2.984 0 1.436-.995 2.541-2.541 2.541-1.106 0-2.21-.773-2.21-1.99 0-.33.11-.551.22-.883-.22-.11-.331-.11-.662-.11-1.216 0-1.658.774-1.658 1.878 0 1.105.11 1.105 1.215 1.105 1.327 0 2.321.11 2.321 1.768 0 1.547-.663 1.989-2.1 1.989-1.326 0-1.436-.11-1.436 1.326z"/><path d="m289.622 142.916c-2.762 0-3.425 2.762-3.425 4.971 0 1.99.663 4.975 3.093 4.975 1.216 0 2.21-.331 2.762-1.438.553-1.106.775-2.43.775-3.537 0-2.209-.554-4.971-3.205-4.971zm8.618 4.752c0 5.525-2.761 9.39-8.618 9.39-5.746 0-8.84-3.534-8.84-9.17 0-5.745 3.094-9.17 8.84-9.17 5.415 0 8.618 3.535 8.618 8.95zm2.43-2.21c0-.443.112-2.321-.661-2.321-.331 0-.663.221-1.105.221-1.105 0-1.437-.884-1.437-1.879 0-1.215.552-2.32 3.094-2.32.663.11 1.326.332 2.099.332.775 0 1.546-.221 2.321-.331 1.105 0 .883.994.883 1.877v7.956c0 .663 0 1.878.442 2.54.332.554 1.107.997 1.88.997.994 0 1.877-.443 2.429-1.327.663-1.103.775-2.21.775-3.425v-2.32c0-.443.11-2.321-.664-2.321-.331 0-.663.221-1.104.221-1.105 0-1.437-.884-1.437-1.879 0-1.215.552-2.32 2.874-2.32.663.11 1.325.332 2.098.332s1.547-.221 2.32-.331c1.216 0 1.106.773 1.106 1.657v9.501c0 .444-.111 2.322.551 2.322.334 0 .664-.222 1.105-.222 1.107 0 1.548.884 1.548 1.878 0 1.328-.663 2.322-1.989 2.322-.883 0-1.657-.332-2.43-.332-.664 0-1.438.332-2.1.332-1.216 0-1.216-1.106-1.216-1.769v-.663c-1.215 1.878-3.646 2.872-5.854 2.872-1.77 0-3.759-.662-4.754-2.1-.883-1.434-.773-3.424-.773-5.08zm23.647 0c0-.443.111-2.321-.663-2.321-.332 0-.662.221-1.104.221-1.104 0-1.437-.884-1.437-1.879 0-1.215.552-2.32 1.657-2.32.995.11 1.658.332 2.322.332.774 0 1.435-.221 2.208-.331.996 0 .996.662.996 1.436v2.541c.663-2.762 2.65-4.309 5.524-4.309 2.32 0 4.309 1.768 4.309 4.198 0 1.658-.995 3.315-2.873 3.315-1.215 0-2.32-.884-2.32-2.21 0-.442.22-.884.443-1.325-3.757-.221-3.869 4.862-3.869 7.512 0 .444-.11 2.322.664 2.322.33 0 .663-.222 1.105-.222 1.104 0 1.437.884 1.437 1.878 0 1.328-.553 2.322-1.659 2.322-1.879 0-3.204-.332-4.53-.332-1.215 0-2.542.332-3.757.332-1.105 0-1.657-.994-1.657-2.322 0-.993.333-1.878 1.437-1.878.442 0 .772.222 1.104.222.774 0 .663-1.878.663-2.322zm97.9 2.098c0 .331-.333.662-.333.662l-18.232 18.124c-.663.771-1.103.33-.882-.222.441-.885 1.103-1.878 1.767-4.088.993-3.205.993-5.858.552-7.405-.331-1.434-2.1-4.418-5.967-4.418-4.972 0-6.408 4.53-6.298 6.187.112 1.106 0 2.762 1.767 4.309 1.326 1.106 2.541.775 2.874.665.331 0 .995-.444.995.662 0 1.216-1.105 2.763-1.769 3.534-.774.666-3.205 2.544-6.739 2.544-2.1 0-4.641-.884-6.408-2.984-1.328-1.547-2.212-3.315-2.986-5.856-1.546-4.643-1.767-8.067-1.767-11.714 0-3.314.333-6.96 1.767-11.6.664-2.432 1.88-4.643 2.986-6.078 1.657-2.1 4.308-2.984 6.408-2.984 3.534 0 5.965 1.878 6.739 2.652.664.663 1.769 2.21 1.769 3.536 0 .994-.664.552-.995.552-.333-.11-1.548-.441-2.874.663-1.767 1.547-1.655 3.315-1.767 4.31-.11 1.768 1.326 6.188 6.298 6.188 3.867 0 5.636-2.873 5.967-4.42.44-1.547.44-4.2-.552-7.293-.664-2.32-1.326-3.204-1.767-4.199-.22-.442.219-.994.882-.22l18.232 18.12s.332.332.332.773zm-66.96-.22c0 .442.441.773.441.773l19.336 18.564c.554.44.664 0 .554-.332-.112-.221-.223-.33-.773-1.215-5.304-7.624-5.194-17.79-5.194-17.79s-.11-10.166 5.194-17.68c.55-.884.66-.994.773-1.325.11-.332 0-.773-.554-.332l-19.336 18.563s-.441.333-.441.774z"/></g><path d="m35.682 72.315v22.896h-8.594v-22.896h-2.946v-7.243h2.946v-10.19h8.594v10.19h5.279v7.243zm67.14 9.208h-19.827q0 3.314 1.412 5.708 1.473 2.394 4.542 2.394 3.745 0 5.77-4.113l7.918 1.29q-1.534 4.48-5.217 6.936-3.683 2.455-8.47 2.455-6.875 0-10.988-4.358-4.051-4.42-4.051-11.417 0-7.182 3.744-11.724 3.806-4.604 10.865-4.604t10.68 4.604q3.622 4.542 3.622 11.785zm-19.581-5.34h11.478q-.368-2.517-1.903-4.297-1.473-1.78-3.805-1.78-2.456 0-3.929 1.78-1.473 1.718-1.841 4.296zm7.181-28.483 6.261 3.806-9.268 9.207-4.358-2.7zm58.272-4.541v52.051h-8.594v-52.051zm66.025 38.364h-19.826q0 3.314 1.411 5.708 1.473 2.394 4.543 2.394 3.744 0 5.77-4.113l7.918 1.29q-1.535 4.48-5.218 6.936-3.683 2.455-8.47 2.455-6.875 0-10.988-4.358-4.051-4.42-4.051-11.417 0-7.182 3.744-11.724 3.806-4.604 10.865-4.604t10.68 4.604q3.622 4.542 3.622 11.785zm-19.581-5.34h11.478q-.368-2.517-1.902-4.297-1.474-1.78-3.806-1.78-2.455 0-3.928 1.78-1.474 1.718-1.842 4.296zm7.182-28.483 6.26 3.806-9.268 9.207-4.358-2.7zm70.179 18.293v8.287q-2.946-2.947-6.322-2.947-3.438 0-5.525 2.701-2.087 2.7-2.087 6.26 0 3.684 2.149 6.2 2.21 2.456 5.77 2.456 3.437 0 6.015-2.885v8.286q-3.315 1.842-7.427 1.842-6.568 0-10.926-4.665-4.297-4.665-4.297-11.294 0-6.814 4.42-11.479 4.48-4.665 11.232-4.665 3.929 0 6.998 1.903zm40.956 2.639q4.42-4.542 11.417-4.542 6.998 0 11.417 4.542 4.42 4.481 4.42 11.54 0 7.06-4.42 11.54-4.358 4.48-11.417 4.48-7.058 0-11.478-4.48-4.358-4.48-4.358-11.54 0-7.059 4.42-11.54zm16.574 5.648q-1.965-2.579-5.157-2.579-3.191 0-5.156 2.579-1.964 2.578-1.964 5.892 0 3.253 1.964 5.831 2.026 2.578 5.156 2.578t5.095-2.578q2.026-2.578 2.026-5.83 0-3.315-1.964-5.893zm56.606-9.208v2.701h.122q2.578-3.683 7.366-3.683 5.77 0 8.655 4.727 1.35-2.21 3.744-3.438 2.394-1.289 5.034-1.289 9.575 0 9.575 12.338v18.782h-8.593v-15.836q0-5.156-1.105-6.875-.982-1.534-2.946-1.534-1.35 0-2.272.736-.92.737-1.411 1.658-.43.86-.676 2.455-.184 1.535-.245 2.394v17.003h-8.594v-15.284-.614-2.087q0-.798-.245-2.149-.184-1.35-.614-2.087-.368-.797-1.227-1.411-.86-.614-2.026-.614-1.596 0-2.64.86-.982.859-1.35 2.516-.368 1.657-.491 2.762-.061 1.044-.061 2.885v15.223h-8.594v-30.139z" stroke-width="3.1"/></g></svg>