<svg height="451" viewBox="0 0 1195.513 215.908" width="2500" xmlns="http://www.w3.org/2000/svg"><g stroke-width="4.3"><path d="m1092.949 7.99c8.853 12.955 14.683 26.342 15.33 36.059 1.512 25.91-.647 46.423-34.547 49.878-25.263 2.807-39.514-11.228-39.083-27.422.432-17.706 16.195-42.106 44.265-26.99-7.557-32.605-24.615-39.515-43.833-39.515-32.172 0-57.004 38.003-57.004 107.746s24.832 107.747 57.004 107.747c19.218 0 36.276-6.91 43.833-39.514-28.07 15.114-43.833-9.285-44.265-26.991-.431-16.194 13.82-30.23 39.083-27.422 33.9 3.454 36.06 23.967 34.548 49.878-.648 9.717-6.478 23.104-15.331 36.06l102.564-99.758z" fill="#000031"/><path d="m967.929 210.742c-20.297-26.126-32.82-63.05-33.037-102.996.216-39.73 12.74-76.869 33.037-102.996l-105.587 102.996z" fill="#f00"/></g><g fill="#000031" stroke-width="3.188"><path d="m0 87.47c0-12.836 2.762-29.407 9.91-40.293 8.287-12.672 22.909-19.334 38.018-19.334 11.048 0 20.309 3.412 27.783 11.536l.325-.325c-.813-6.174 3.574-10.56 10.073-10.56 6.173 0 10.398 4.223 10.398 10.397 0 5.524-1.3 10.886-1.3 16.41 0 4.386 1.3 8.773 1.3 13.16 0 7.473-6.986 11.21-13.648 11.21-8.773 0-12.672-4.062-12.347-12.835.162-4.712.162-6.986-2.925-10.723-3.412-4.062-8.773-5.037-13.81-5.037-15.11 0-22.583 9.586-22.583 36.069 0 24.857 7.474 35.093 23.396 35.093 4.386 0 9.26-.65 12.51-3.737 3.899-3.574 4.061-7.149 4.061-12.023 0-3.736 0-6.66 2.113-9.91s6.01-4.55 9.91-4.55c10.56 0 15.272 7.637 15.272 17.385 0 24.533-23.233 35.906-45.004 35.906-14.784 0-29.082-4.225-39.48-15.435-9.748-10.56-13.972-28.27-13.972-42.405zm136.769-8.936c0 7.473-7.15 10.885-13.973 10.885-7.96 0-14.947-5.686-14.947-13.972 0-10.236 10.398-19.497 35.418-19.497 8.124 0 19.172.813 26.32 4.875 8.611 4.874 10.398 12.672 10.398 25.02v30.544c0 6.336.975 7.636 2.762 7.636 1.3 0 2.6-.325 3.9-.325 5.199 0 8.123 4.387 8.123 9.098 0 9.099-9.098 12.51-16.734 12.51-7.474 0-15.76-2.761-18.522-10.398-7.636 7.312-17.546 10.399-27.782 10.399-14.785 0-28.92-7.799-28.92-24.37 0-38.506 50.366-18.522 50.366-39.968 0-6.174-5.686-9.099-11.048-9.099-2.762 0-5.361.488-5.361 3.737zm16.409 27.457c-4.712 5.037-23.558 2.6-23.558 11.21 0 5.687 4.55 7.636 9.26 7.636 9.586 0 14.298-5.686 14.298-15.272zm81.194-28.432h.325c2.6-13.323 12.51-20.796 26.157-20.796 11.373 0 21.446 8.61 21.446 20.308 0 8.286-5.199 15.922-13.972 15.922-6.174 0-11.373-4.061-11.373-10.56 0-2.275.975-4.387 1.95-6.336-18.197-1.3-18.684 23.395-18.684 36.393 0 9.585.975 11.373 2.924 11.373.813 0 1.625-.325 2.437-.65a9.2 9.2 0 0 1 2.925-.488c5.361 0 7.148 4.387 7.148 9.261 0 6.174-2.762 11.21-8.123 11.21-8.773 0-15.272-1.624-21.933-1.624-6.174 0-12.348 1.624-18.197 1.624-5.361 0-8.123-5.036-8.123-11.21 0-4.874 1.787-9.26 7.148-9.26 1.138 0 1.95.324 2.925.487.812.162 1.624.65 2.437.65 1.95 0 2.924-1.625 2.924-11.373v-23.396c0-10.073-.812-11.373-2.924-11.373-1.625 0-3.25 1.138-5.362 1.138-5.361 0-7.148-4.387-7.148-9.261 0-6.174 2.762-11.21 8.123-11.21 4.712 0 7.961 1.624 11.21 1.624 3.575 0 6.987-1.625 10.723-1.625 3.575 0 5.037 1.138 5.037 6.987zm87.264 0h.325c2.6-13.323 12.51-20.796 26.157-20.796 11.373 0 21.446 8.61 21.446 20.308 0 8.286-5.199 15.922-13.972 15.922-6.174 0-11.373-4.061-11.373-10.56 0-2.275.975-4.387 1.95-6.336-18.197-1.3-18.684 23.395-18.684 36.393 0 9.585.974 11.373 2.924 11.373.812 0 1.625-.325 2.437-.65a9.2 9.2 0 0 1 2.924-.488c5.362 0 7.15 4.387 7.15 9.261 0 6.174-2.763 11.21-8.124 11.21-8.774 0-15.272-1.624-21.934-1.624-6.174 0-12.347 1.624-18.196 1.624-5.362 0-8.124-5.036-8.124-11.21 0-4.874 1.787-9.26 7.149-9.26 1.137 0 1.95.324 2.924.487.813.162 1.625.65 2.437.65 1.95 0 2.925-1.625 2.925-11.373v-23.396c0-10.073-.812-11.373-2.925-11.373-1.624 0-3.249 1.138-5.361 1.138-5.362 0-7.149-4.387-7.149-9.261 0-6.174 2.762-11.21 8.124-11.21 4.711 0 7.96 1.624 11.21 1.624 3.574 0 6.986-1.625 10.723-1.625 3.574 0 5.037 1.138 5.037 6.987zm82.064 27.62c-4.224 0-4.711.65-4.711 3.411 0 9.261 7.31 16.247 16.734 16.247 5.686 0 8.61-1.462 13.16-6.336 5.2-5.524 6.986-6.499 12.348-6.499 6.336 0 11.21 3.737 11.21 10.236 0 12.348-15.922 23.07-37.043 23.07-26.645 0-43.217-17.871-43.217-44.191 0-25.67 15.922-45.167 42.567-45.167 25.02 0 39.155 14.948 39.155 38.993 0 7.474-.974 10.236-10.723 10.236zm19.334-18.034c3.737 0 4.062-.975 4.062-2.762 0-4.387-4.062-10.074-12.185-10.074-8.286 0-15.11 6.337-15.11 10.561 0 2.112 2.112 2.275 6.824 2.275zm50.614-4.387c0-6.336-.487-6.336-5.524-6.336-6.336 0-9.91-1.463-9.91-8.611 0-6.662 2.437-9.586 9.098-9.586 6.174 0 6.336-.65 6.499-5.361.65-17.71 15.922-25.02 32.006-25.02 5.362 0 12.023.974 16.735 3.411 5.524 2.925 9.748 8.124 9.748 14.46 0 7.149-4.874 12.672-12.185 12.672-5.362 0-11.048-3.736-11.048-9.585 0-1.787.487-2.762 1.462-4.387-1.137-.487-1.95-.65-3.25-.65-6.01 0-8.123 3.575-8.123 9.261 0 5.199.325 5.199 5.524 5.199 9.748 0 11.535 2.6 11.535 8.773 0 7.474-2.112 9.424-13.647 9.424-2.924 0-3.412 1.95-3.412 6.336v29.732c0 9.748.65 11.373 2.925 11.373.974 0 1.787-.325 2.599-.65.812-.163 1.787-.488 2.762-.488 5.362 0 7.149 4.387 7.149 9.261 0 6.174-2.762 11.21-9.586 11.21-6.986 0-13.485-1.624-20.146-1.624-6.174 0-12.348 1.462-17.71 1.624-6.173 0-8.935-5.036-8.935-11.21 0-4.874 1.787-9.26 7.149-9.26 1.137 0 2.112.324 2.924.487.975.325 1.787.65 2.437.65 2.6 0 2.924-3.412 2.924-11.373z"/><path d="m561.405 55.95c26.645 0 42.242 17.547 42.242 43.705 0 26.97-13.648 45.654-42.08 45.654-28.27 0-43.38-16.897-43.38-44.68 0-27.62 15.11-44.679 43.218-44.679zm-.488 20.472c-7.636 0-15.922 6.01-15.922 24.207 0 18.847 8.449 24.208 15.11 24.208 5.686 0 10.56-1.624 13.16-6.986 2.437-5.036 3.574-11.698 3.574-17.222 0-18.846-7.148-24.207-15.922-24.207zm82.816 29.731c0 3.412 0 9.099 1.95 12.348 1.95 3.087 5.524 5.037 9.098 5.037 4.712 0 9.099-2.437 11.698-6.5 3.412-5.198 3.737-10.722 3.737-16.733v-11.21c0-8.774-.65-11.374-2.925-11.374-.812 0-1.624.325-2.437.488-.974.325-1.787.65-2.924.65-5.362 0-7.149-4.387-7.149-9.261 0-6.174 2.762-11.21 9.91-11.21 5.362 0 8.937 1.624 14.298 1.624 4.387 0 7.474-1.625 11.535-1.625 4.225 0 5.2 1.788 5.2 5.362v48.74c0 9.749 1.137 11.374 2.924 11.374 1.625 0 3.25-1.138 5.361-1.138 5.362 0 7.149 4.387 7.149 9.261 0 6.174-2.762 11.21-9.586 11.21-4.061 0-7.798-1.624-11.535-1.624-3.574 0-7.149 1.624-10.236 1.624-4.061 0-5.848-2.762-5.848-5.361v-6.499h-.325c-6.012 8.936-17.71 13.973-28.595 13.973-16.734 0-26.807-9.749-26.807-26.158v-30.057c0-9.91-1.138-11.373-2.925-11.373-.812 0-1.624.325-2.437.488-.975.325-1.787.65-2.924.65-5.362 0-7.149-4.387-7.149-9.261 0-6.174 2.762-11.21 10.398-11.21 5.2 0 9.423 1.624 14.785 1.624 5.036 0 7.473-1.625 11.535-1.625 4.224 0 4.224 3.087 4.224 7.312zm106.923-28.594h.325c2.6-13.323 12.51-20.796 26.157-20.796 11.373 0 21.446 8.61 21.446 20.308 0 8.286-5.199 15.922-13.972 15.922-6.174 0-11.373-4.061-11.373-10.56 0-2.275.975-4.387 1.95-6.336-18.197-1.3-18.684 23.395-18.684 36.393 0 9.585.975 11.373 2.924 11.373.812 0 1.625-.325 2.437-.65a9.2 9.2 0 0 1 2.925-.488c5.361 0 7.148 4.387 7.148 9.261 0 6.174-2.762 11.21-8.123 11.21-8.773 0-15.272-1.624-21.934-1.624-6.173 0-12.347 1.624-18.196 1.624-5.362 0-8.124-5.036-8.124-11.21 0-4.874 1.788-9.26 7.15-9.26 1.136 0 1.949.324 2.924.487.812.162 1.624.65 2.437.65 1.95 0 2.924-1.625 2.924-11.373v-23.396c0-10.073-.812-11.373-2.924-11.373-1.625 0-3.25 1.138-5.362 1.138-5.361 0-7.149-4.387-7.149-9.261 0-6.174 2.762-11.21 8.124-11.21 4.712 0 7.96 1.624 11.21 1.624 3.575 0 6.986-1.625 10.723-1.625 3.575 0 5.037 1.138 5.037 6.987z"/></g><path d="m191.769 172.561v13.386q-1.71-2.279-4.33-3.475-2.563-1.253-5.467-1.253-5.07 0-8.26 3.418-3.19 3.417-3.19 8.487 0 5.126 3.19 8.43 3.247 3.247 8.43 3.247 2.734 0 5.298-1.197 2.563-1.253 4.329-3.36v13.385q-6.494 1.994-9.854 1.994-9.171 0-16.12-6.323-6.892-6.208-6.892-16.233 0-9.228 6.322-15.721 3.19-3.247 7.519-5.07 4.329-1.88 8.829-1.88 4.955 0 10.196 2.165zm46.701.342q5.412-2.791 11.62-2.791 6.21 0 11.62 2.79 5.412 2.735 8.772 7.861 3.361 5.127 3.361 11.45 0 10.423-6.721 17.087-6.665 6.608-17.031 6.608-10.367 0-17.088-6.608-6.665-6.664-6.665-17.088 0-6.322 3.36-11.449 3.361-5.126 8.773-7.86zm20.165 11.449q-3.589-3.418-8.544-3.418-4.956 0-8.544 3.418-3.589 3.417-3.589 7.917 0 5.469 3.532 9.17 3.531 3.646 8.6 3.646 5.07 0 8.602-3.645 3.531-3.702 3.531-9.17 0-4.5-3.588-7.918zm72.423 12.531 13.5 17.6h-13.899l-10.538-16.518h-.114v16.519h-11.164v-42.948h16.69q6.72 0 10.822 3.303 4.101 3.304 4.101 9.912 0 4.613-2.506 7.974-2.45 3.36-6.892 4.158zm-11.05-16.803v10.708h1.082q7.746 0 7.746-5.354t-7.746-5.354zm57.383 34.404v-42.948h15.835q9 0 15.38 6.265 6.436 6.21 6.436 15.209 0 9-6.436 15.265-6.38 6.209-15.38 6.209zm11.165-33.493v24.037h2.506q5.354 0 8.829-3.018 3.531-3.02 3.531-9 0-5.64-3.36-8.829-3.361-3.19-8.886-3.19zm71.468-8.088q5.41-2.791 11.62-2.791 6.208 0 11.62 2.79 5.41 2.735 8.771 7.861 3.361 5.127 3.361 11.45 0 10.423-6.721 17.087-6.665 6.608-17.031 6.608-10.367 0-17.088-6.608-6.665-6.664-6.665-17.088 0-6.322 3.36-11.449 3.361-5.126 8.773-7.86zm20.164 11.449q-3.589-3.418-8.544-3.418-4.956 0-8.544 3.418-3.589 3.417-3.589 7.917 0 5.469 3.532 9.17 3.531 3.646 8.6 3.646 5.07 0 8.602-3.645 3.531-3.702 3.531-9.17 0-4.5-3.588-7.918zm61.372 12.36v9.228h3.247q.513 0 1.88-.114t1.994-.399q.683-.285 1.537-.74.912-.513 1.254-1.31.398-.855.398-1.994 0-.854-.17-1.538-.171-.683-.627-1.14-.399-.455-.74-.797-.342-.398-1.14-.57-.74-.227-1.139-.341-.399-.17-1.424-.228-.968-.057-1.31-.057h-2.62zm6.038 17.772h-17.202v-42.948h15.95q12.758 0 12.758 11.164 0 6.38-4.727 8.772v.114q8.771 1.139 8.771 10.936 0 3.247-1.31 5.64-1.31 2.392-3.588 3.759-2.222 1.31-4.899 1.936-2.62.627-5.753.627zm-6.038-34.404v8.316h1.254q2.734 0 4.386-.854 1.651-.855 1.651-3.304 0-1.424-.57-2.278-.512-.912-1.594-1.254-1.082-.398-1.994-.512-.911-.114-2.335-.114zm83.589 26.942h-15.38l-2.961 7.462h-11.848l16.518-42.948h12.19l16.176 42.948h-11.904zm-3.02-8.544-4.556-13.67h-.114l-4.614 13.67z" fill="#f00" stroke-width="3.56"/></svg>