<svg height="993" viewBox="0 0 439.032 174.406" width="2500" xmlns="http://www.w3.org/2000/svg"><g stroke-width="12.867"><path d="m0 114.26v-114.26h439.032v114.26z" fill="#8dd35f"/><path d="m0 174.406v-54.198h439.032v54.198z" fill="#005"/><path d="m0 174.406v-54.198h439.031v54.198z" fill="none"/></g><path d="m45.346 69.89v26.62h-7.481v-2.44h-.109q-2.548 3.308-7.21 3.308-5.585 0-8.946-4.283-3.307-4.283-3.307-10.03 0-5.639 3.307-9.813 3.361-4.23 8.837-4.23 4.554 0 7.428 3.362v-2.494zm-17.62 18.488q1.79 2.277 4.554 2.277 2.765 0 4.554-2.277 1.79-2.332 1.79-5.205t-1.79-5.15q-1.789-2.278-4.554-2.278-2.765 0-4.554 2.278-1.735 2.277-1.735 5.15t1.735 5.205zm56.426-16.59-3.253 4.391q-1.952-1.843-4.012-1.843-.976 0-1.735.705-.76.65-.76 1.572 0 .542.272 1.03.271.434.867.813l1.193.597q.542.216 1.518.596 1.03.38 1.627.65 2.494 1.085 3.957 2.82 1.519 1.68 1.519 4.825 0 4.283-3.037 6.885-2.981 2.549-7.319 2.549-5.692 0-9.38-4.446l3.47-4.5q2.766 3.09 5.64 3.09 1.3 0 2.168-.759.867-.813.867-2.114 0-.65-.27-1.139-.218-.542-.868-.976-.65-.433-1.139-.65-.434-.217-1.518-.65-1.084-.434-1.518-.597-2.494-1.084-3.903-2.603-1.41-1.518-1.41-4.391 0-3.74 2.331-6.18 2.386-2.44 6.127-2.44 5.421 0 8.566 2.765zm38.681 0-3.253 4.391q-1.952-1.843-4.012-1.843-.976 0-1.735.705-.76.65-.76 1.572 0 .542.272 1.03.27.434.867.813l1.193.597q.542.216 1.518.596 1.03.38 1.627.65 2.494 1.085 3.957 2.82 1.518 1.68 1.518 4.825 0 4.283-3.036 6.885-2.982 2.549-7.319 2.549-5.693 0-9.38-4.446l3.47-4.5q2.766 3.09 5.639 3.09 1.301 0 2.169-.759.867-.813.867-2.114 0-.65-.271-1.139-.217-.542-.867-.976-.651-.433-1.139-.65-.434-.217-1.518-.65-1.084-.434-1.518-.597-2.494-1.084-3.904-2.603-1.41-1.518-1.41-4.391 0-3.74 2.332-6.18 2.386-2.44 6.127-2.44 5.421 0 8.566 2.765zm21.602-1.898h7.59v14.422q0 6.668 4.338 6.668 4.337 0 4.337-6.668v-14.422h7.59v15.67q0 11.819-11.927 11.819-11.928 0-11.928-11.82zm53.211 0v2.765h.109q2.385-3.632 6.614-3.632 1.464 0 3.144.65l-.921 7.048q-1.356-.976-3.145-.976-1.518 0-2.656.543-1.085.542-1.681 1.355-.596.813-.976 2.06-.325 1.247-.434 2.331-.054 1.085-.054 2.494v11.982h-7.59v-26.62zm53.917 0v26.62h-7.481v-2.44h-.109q-2.548 3.308-7.21 3.308-5.585 0-8.946-4.283-3.307-4.283-3.307-10.03 0-5.639 3.307-9.813 3.361-4.23 8.837-4.23 4.554 0 7.428 3.362v-2.494zm-17.62 18.488q1.79 2.277 4.554 2.277 2.765 0 4.555-2.277 1.789-2.332 1.789-5.205t-1.79-5.15q-1.789-2.278-4.554-2.278-2.765 0-4.554 2.278-1.735 2.277-1.735 5.15t1.735 5.205zm47.101-18.488v2.44h.108q2.169-3.307 6.94-3.307 9.216 0 9.216 11.222v16.265h-7.59v-14.096-2.06q0-.542-.217-1.79-.217-1.3-.596-1.843-.38-.596-1.247-1.084-.813-.542-2.06-.542-1.572 0-2.603.759-.975.759-1.355 2.277-.38 1.464-.488 2.494-.108 1.03-.108 2.71v13.175h-7.59v-26.62zm56.187.813v7.32q-2.602-2.603-5.584-2.603-3.036 0-4.88 2.386-1.843 2.385-1.843 5.53 0 3.253 1.898 5.476 1.952 2.168 5.096 2.168 3.036 0 5.313-2.548v7.32q-2.927 1.626-6.56 1.626-5.801 0-9.65-4.12-3.796-4.121-3.796-9.977 0-6.018 3.904-10.138 3.958-4.12 9.922-4.12 3.47 0 6.18 1.68zm44.846 13.717h-17.511q0 2.928 1.247 5.042 1.3 2.115 4.012 2.115 3.307 0 5.096-3.633l6.994 1.139q-1.356 3.957-4.609 6.126-3.253 2.169-7.481 2.169-6.073 0-9.705-3.85-3.578-3.903-3.578-10.084 0-6.343 3.307-10.355 3.361-4.066 9.596-4.066 6.235 0 9.434 4.066 3.198 4.012 3.198 10.41zm-17.294-4.717h10.138q-.325-2.223-1.68-3.795-1.302-1.572-3.362-1.572-2.169 0-3.47 1.572-1.301 1.518-1.626 3.795zm54.229-7.915-3.253 4.391q-1.952-1.843-4.012-1.843-.976 0-1.735.705-.759.65-.759 1.572 0 .542.272 1.03.27.434.867.813l1.193.597q.542.216 1.518.596 1.03.38 1.626.65 2.494 1.085 3.958 2.82 1.518 1.68 1.518 4.825 0 4.283-3.036 6.885-2.982 2.549-7.32 2.549-5.692 0-9.379-4.446l3.47-4.5q2.765 3.09 5.639 3.09 1.3 0 2.168-.759.868-.813.868-2.114 0-.65-.271-1.139-.217-.542-.868-.976-.65-.433-1.138-.65-.434-.217-1.518-.65-1.085-.434-1.518-.597-2.494-1.084-3.904-2.603-1.41-1.518-1.41-4.391 0-3.74 2.332-6.18 2.385-2.44 6.126-2.44 5.422 0 8.566 2.765z" fill="#005" stroke-width="4.066"/><path d="m0 174.406v-54.198h439.032v54.198z" fill="none" stroke-width="12.867"/><g fill="#fff" fill-rule="evenodd"><path d="m169.055 131.664c1.456 0 2.305.972 2.305 2.307 0 1.213-.242 2.426-.242 3.761 0 .971.242 1.942.242 2.913 0 1.7-1.577 2.549-3.034 2.549-1.94 0-2.912-.972-2.79-2.913 0-1.092.12-1.578-.607-2.427-.85-.85-2.063-1.092-3.155-1.092-4.612 0-5.098 4.49-5.098 8.13 0 3.76.486 7.89 5.219 7.89 1.092 0 2.185-.124 2.912-.852.85-.848.85-1.575.85-2.67 0-.847 0-1.575.485-2.306.486-.727 1.335-.97 2.306-.97 2.306 0 3.398 1.701 3.398 3.884 0 5.583-5.218 8.13-10.194 8.13-3.277 0-6.553-.971-8.86-3.518-2.184-2.306-3.154-6.311-3.154-9.587 0-2.913.607-6.554 2.184-9.103 1.942-2.79 5.22-4.368 8.617-4.368 2.548 0 4.611.85 6.31 2.67-.121-1.456.849-2.428 2.306-2.428zm15.776 17.476c-1.092 1.091-5.34.607-5.34 2.55 0 1.21 1.093 1.699 2.064 1.699 2.184 0 3.276-1.335 3.276-3.521zm-3.761-6.19c0 1.7-1.578 2.428-3.157 2.428-1.699 0-3.275-1.335-3.275-3.156 0-3.762 5.097-4.368 7.888-4.368 1.941 0 4.368.122 5.946 1.092 2.184 1.214 2.427 3.398 2.427 5.583v6.917c0 .484-.122 1.7.607 1.7h.85c1.213 0 1.82.97 1.82 2.061 0 2.063-2.064 2.79-3.762 2.79s-3.52-.604-4.126-2.306c-1.821 1.579-4.005 2.307-6.31 2.307-3.278 0-6.555-1.82-6.555-5.46 0-8.738 11.408-4.25 11.408-9.102 0-1.335-1.335-2.063-2.548-2.063-.607 0-1.213.122-1.213.85zm17.96 2.306c0-.485.12-2.548-.607-2.548-.364 0-.728.243-1.214.243-1.213 0-1.698-.971-1.698-2.063 0-1.336.606-2.549 1.82-2.549 1.092.121 1.82.364 2.548.364.85 0 1.578-.243 2.427-.363 1.092 0 1.214.727 1.214 1.577v2.791c.607-3.034 2.791-4.732 5.947-4.732 2.548 0 4.854 1.941 4.854 4.61 0 1.82-1.214 3.641-3.155 3.641-1.457 0-2.55-.97-2.55-2.427 0-.486.123-.97.365-1.456-4.126-.243-4.247 5.341-4.247 8.251 0 .487-.122 2.55.728 2.55.364 0 .727-.244 1.213-.244 1.214 0 1.578.972 1.578 2.063 0 1.458-.607 2.55-1.82 2.55-1.942 0-3.398-.364-4.976-.364-1.335 0-2.79.364-4.126.364-1.214 0-1.82-1.092-1.82-2.55 0-1.091.485-2.063 1.698-2.063.486 0 .85.244 1.214.244.728 0 .607-2.063.607-2.55zm20.146 0c0-.485.12-2.548-.608-2.548-.485 0-.85.243-1.213.243-1.214 0-1.7-.971-1.7-2.063 0-1.336.607-2.549 1.822-2.549 1.091.121 1.82.364 2.548.364.85 0 1.578-.243 2.427-.363 1.092 0 1.092.727 1.092 1.577v2.791c.727-3.034 2.912-4.732 6.067-4.732 2.549 0 4.855 1.941 4.855 4.61 0 1.82-1.213 3.641-3.155 3.641-1.457 0-2.67-.97-2.67-2.427 0-.486.243-.97.486-1.456-4.127-.243-4.248 5.341-4.248 8.251 0 .487-.122 2.55.727 2.55.365 0 .73-.244 1.214-.244 1.215 0 1.578.972 1.578 2.063 0 1.458-.606 2.55-1.82 2.55-1.942 0-3.399-.364-4.975-.364-1.335 0-2.791.364-4.126.364-1.214 0-1.822-1.092-1.822-2.55 0-1.091.486-2.063 1.7-2.063.363 0 .728.244 1.213.244.729 0 .608-2.063.608-2.55zm26.94-.363c.607 0 1.214.12 1.214-.608 0-.607-.365-1.213-.728-1.577-.607-.486-1.214-.728-1.942-.728-1.092 0-1.82.242-2.548.97-.364.364-.971.971-.971 1.457 0 .606 1.213.486 1.577.486zm-3.398 4.004c-.728 0-1.699-.244-1.699.85 0 2.063 1.7 3.642 3.762 3.642 3.155 0 2.912-2.914 5.826-2.914 1.334 0 2.426.848 2.426 2.306 0 1.579-1.212 2.91-2.426 3.762-1.82 1.09-3.884 1.455-5.947 1.455-5.947 0-9.709-4.005-9.709-9.95 0-5.826 3.641-10.194 9.588-10.194 2.184 0 4.611.485 6.189 1.942 1.82 1.577 2.67 4.125 2.67 6.431 0 2.186-.243 2.67-2.427 2.67zm20.51 1.698c0 .487-.122 2.55.727 2.55.365 0 .73-.244 1.214-.244 1.214 0 1.578.972 1.578 2.063 0 1.458-.606 2.55-2.185 2.55-1.577 0-3.033-.364-4.49-.364-1.456 0-2.79.364-4.005.364-1.456 0-2.062-1.092-2.062-2.55 0-1.091.363-2.063 1.577-2.063.485 0 .849.244 1.214.244.849 0 .728-2.063.728-2.55v-6.674c0-1.335 0-1.456-1.214-1.456-1.456 0-2.305-.363-2.305-1.941s.606-2.185 2.062-2.185c1.093 0 1.457.121 1.457-1.214.12-4.004 3.64-5.703 7.28-5.703 1.215 0 2.671.242 3.764.85 1.213.606 2.184 1.82 2.184 3.276 0 1.577-1.092 2.791-2.791 2.791-1.214 0-2.427-.849-2.427-2.185 0-.364.121-.606.242-.97-.242-.122-.364-.122-.728-.122-1.335 0-1.82.85-1.82 2.063 0 1.214.12 1.214 1.334 1.214 1.458 0 2.55.121 2.55 1.942 0 1.699-.729 2.184-2.307 2.184-1.456 0-1.577-.12-1.577 1.456z"/><path d="m277.427 142.465c-3.034 0-3.763 3.034-3.763 5.46 0 2.187.729 5.464 3.398 5.464 1.335 0 2.427-.364 3.034-1.579.606-1.215.85-2.67.85-3.885 0-2.426-.607-5.46-3.52-5.46zm9.465 5.22c0 6.067-3.033 10.313-9.465 10.313-6.311 0-9.709-3.882-9.709-10.073 0-6.31 3.398-10.071 9.709-10.071 5.947 0 9.465 3.883 9.465 9.831zm2.67-2.429c0-.485.121-2.548-.728-2.548-.363 0-.727.243-1.213.243-1.214 0-1.579-.971-1.579-2.063 0-1.336.607-2.549 3.4-2.549.727.121 1.455.364 2.304.364.851 0 1.699-.243 2.55-.363 1.213 0 .97 1.092.97 2.062v8.738c0 .727 0 2.063.485 2.79.364.608 1.215 1.095 2.064 1.095 1.092 0 2.062-.487 2.668-1.458.729-1.212.85-2.427.85-3.762v-2.549c0-.485.122-2.548-.728-2.548-.364 0-.728.243-1.213.243-1.213 0-1.578-.971-1.578-2.063 0-1.336.606-2.549 3.157-2.549.727.121 1.455.364 2.303.364.85 0 1.7-.243 2.55-.363 1.334 0 1.214.849 1.214 1.82v10.435c0 .487-.122 2.55.605 2.55.367 0 .73-.244 1.213-.244 1.216 0 1.7.972 1.7 2.063 0 1.458-.728 2.55-2.183 2.55-.97 0-1.82-.364-2.67-.364-.73 0-1.58.364-2.307.364-1.334 0-1.334-1.215-1.334-1.943v-.727c-1.335 2.062-4.005 3.154-6.43 3.154-1.944 0-4.128-.728-5.221-2.307-.97-1.575-.85-3.76-.85-5.58zm25.97 0c0-.485.122-2.548-.728-2.548-.364 0-.728.243-1.213.243-1.213 0-1.578-.971-1.578-2.063 0-1.336.607-2.549 1.82-2.549 1.093.121 1.82.364 2.55.364.85 0 1.576-.243 2.426-.363 1.093 0 1.093.727 1.093 1.577v2.791c.728-3.034 2.911-4.732 6.067-4.732 2.548 0 4.732 1.941 4.732 4.61 0 1.82-1.092 3.641-3.154 3.641-1.335 0-2.55-.97-2.55-2.427 0-.486.243-.97.487-1.456-4.126-.243-4.248 5.341-4.248 8.251 0 .487-.12 2.55.729 2.55.363 0 .728-.244 1.213-.244 1.213 0 1.579.972 1.579 2.063 0 1.458-.607 2.55-1.822 2.55-2.064 0-3.52-.364-4.976-.364-1.335 0-2.792.364-4.127.364-1.212 0-1.82-1.092-1.82-2.55 0-1.091.366-2.063 1.58-2.063.484 0 .848.244 1.212.244.85 0 .728-2.063.728-2.55zm107.523 2.306c0 .363-.365.727-.365.727l-20.024 19.905c-.729.847-1.212.363-.97-.244.485-.971 1.212-2.063 1.941-4.49 1.091-3.52 1.091-6.433.607-8.132-.364-1.576-2.307-4.853-6.554-4.853-5.46 0-7.038 4.976-6.917 6.795.123 1.215 0 3.034 1.941 4.733 1.456 1.214 2.791.85 3.156.73.364 0 1.093-.487 1.093.728 0 1.335-1.214 3.034-1.943 3.881-.85.731-3.52 2.794-7.401 2.794-2.306 0-5.097-.971-7.038-3.277-1.458-1.7-2.43-3.642-3.28-6.432-1.698-5.1-1.94-8.86-1.94-12.865 0-3.64.365-7.645 1.94-12.742.73-2.67 2.064-5.098 3.28-6.675 1.82-2.306 4.732-3.276 7.038-3.276 3.881 0 6.551 2.062 7.401 2.912.73.728 1.943 2.427 1.943 3.883 0 1.093-.729.607-1.093.607-.365-.12-1.7-.485-3.156.728-1.94 1.7-1.818 3.64-1.94 4.733-.122 1.942 1.455 6.797 6.916 6.797 4.247 0 6.19-3.156 6.554-4.855.484-1.698.484-4.612-.607-8.01-.729-2.548-1.456-3.519-1.94-4.61-.243-.487.24-1.093.97-.244l20.023 19.903s.365.364.365.849zm-73.542-.242c0 .485.485.85.485.85l21.237 20.387c.608.484.729 0 .608-.364-.124-.243-.245-.363-.849-1.334-5.826-8.374-5.705-19.54-5.705-19.54s-.12-11.165 5.705-19.417c.604-.97.725-1.092.849-1.456.12-.364 0-.849-.608-.364l-21.237 20.388s-.485.365-.485.85z"/></g></svg>