<svg height="846" viewBox="0 0 588.031 199.032" width="2500" xmlns="http://www.w3.org/2000/svg"><text stroke-width=".265" transform="translate(160.109 157.97)" x="-51.26" y="145.821"/><text stroke-width=".265" transform="translate(160.109 157.97)" x="13.372" y="138.392"/><path d="m0 0h588.031v118.709h-588.031z" fill="#00004d" fill-rule="evenodd"/><g fill="#fc0"><path d="m99.52 16.798c-13.778 0-19.136 19.475-19.136 42.693 0 23.217 5.358 42.352 19.135 42.352 8.164 0 15.223-4.762 15.223-8.76 0-.85-.34-1.7-1.02-2.38-3.912-3.828-5.443-7.57-5.443-10.886 0-6.379 5.443-11.141 10.545-11.141 6.974 0 11.141 5.528 11.141 12.671 0 6.72-2.891 12.332-6.038 16.84-.085.17-.17.34-.17.51 0 .34.255.68.51.68.17 0 .426-.085.68-.34l35.04-33.933c1.786-1.531 2.891-3.232 2.891-5.698 0-2.552-1.105-4.253-2.891-5.783l-35.04-33.934c-.254-.255-.51-.34-.68-.34-.34 0-.51.34-.51.68 0 .17.085.34.17.596 3.147 4.422 6.038 10.035 6.038 16.754 0 7.144-4.167 12.672-11.14 12.672-5.103 0-10.546-4.763-10.546-11.141 0-3.317 1.53-7.06 5.443-10.886.68-.68 1.02-1.531 1.02-2.381 0-3.998-7.059-8.845-15.223-8.845zm-26.365 2.636a.919.919 0 0 0 -.595.255l-35.124 33.934c-1.701 1.53-2.807 3.231-2.807 5.783 0 2.466 1.106 4.167 2.807 5.698l35.124 33.933c.17.17.425.34.595.34.34 0 .595-.34.51-.68 0-.255-.085-.425-.255-.68-8.25-10.207-14.203-21.943-14.203-38.527s5.954-28.576 14.203-38.781c.17-.17.255-.425.255-.68.085-.34-.17-.596-.51-.596z" stroke-width=".727"/><path d="m207.95 89.451c0 7.851 2.961 11.97 10.04 11.97h4.247c7.336 0 10.039-4.119 10.039-11.97v-34.62l8.494 23.423c1.416 3.347 1.158 6.307 10.81 6.307 9.525 0 9.653-3.089 10.94-6.307l8.623-24.582-.128 24.582v11.197c0 7.851 2.96 11.97 10.167 11.97h3.99c7.465 0 10.167-4.119 10.167-11.97v-60.231c0-8.108-4.247-12.355-11.84-12.355h-7.336c-5.792 0-8.495 1.287-11.069 6.95l-13.384 33.204-13.513-33.205c-2.317-5.277-4.633-6.95-11.455-6.95h-7.207c-7.465 0-11.583 4.247-11.583 12.355zm120.706 12.485c5.534 0 10.94-3.09 14.028-11.97l2.446-6.306h26.512l2.317 6.049c3.603 9.138 9.266 12.098 14.8 12.098 7.723 0 14.673-5.792 13.772-8.108l-27.929-69.757c-1.287-4.118-4.247-7.078-15.959-7.078s-15.186 2.96-16.473 7.078l-26.77 70.014c-.901 2.317 6.177 7.98 13.256 7.98zm20.72-36.938 8.881-24.067 8.752 24.067zm68.829 27.414c-.9 1.673 7.207 9.395 16.088 9.395 4.89 0 9.91-2.317 13.77-9.395l10.94-17.632 10.94 17.632c3.732 6.82 8.88 9.395 14.029 9.395 9.137 0 17.374-7.722 16.473-9.395l-23.423-32.948 23.423-32.948c.901-1.673-7.207-9.395-16.087-9.395-5.02 0-10.296 2.96-13.771 9.267l-10.94 17.632-10.554-17.504c-3.86-6.95-8.365-9.395-13.9-9.395-9.137 0-17.631 7.722-16.73 9.524l23.166 32.819zm103.571-2.961c0 7.851 3.861 11.97 10.94 11.97h3.603c7.465 0 11.326-4.119 11.326-11.97v-60.618c0-7.98-3.861-11.97-11.326-11.97h-3.603c-7.079 0-10.94 3.99-10.94 11.97z" stroke-width="1.101"/><path d="m0 118.709h588.031v80.323h-588.031z" fill-rule="evenodd"/></g><path d="m42.11 186.177c11.623 0 18.265-6.405 22.06-12.968l-9.646-4.665c-2.214 4.35-6.958 7.67-12.414 7.67-9.567 0-16.525-7.353-16.525-17.316 0-9.962 6.958-17.316 16.525-17.316 5.456 0 10.2 3.4 12.414 7.67l9.646-4.744c-3.716-6.563-10.437-12.888-22.06-12.888-15.814 0-28.07 11.07-28.07 27.278s12.256 27.279 28.07 27.279zm97.917-.949-20.32-52.739h-14.075l-20.4 52.739h12.81l3.32-8.935h22.614l3.242 8.935zm-19.135-18.818h-16.446l8.223-22.693zm67.453 19.767c11.623 0 18.264-6.405 22.06-12.968l-9.647-4.665c-2.214 4.35-6.958 7.67-12.413 7.67-9.568 0-16.526-7.353-16.526-17.316 0-9.962 6.958-17.316 16.526-17.316 5.455 0 10.2 3.4 12.413 7.67l9.647-4.744c-3.717-6.563-10.437-12.888-22.06-12.888-15.814 0-28.07 11.07-28.07 27.278s12.256 27.279 28.07 27.279zm96.795-.949v-52.739h-11.307v20.716h-24.906v-20.715h-11.228v52.739h11.228v-22.14h24.906v22.14zm68.17 0v-9.884h-26.092v-11.939h25.538v-9.883h-25.538v-11.149h26.092v-9.884h-37.32v52.739zm53.188.949c16.05 0 23.8-8.935 23.8-22.06v-31.628h-11.466v31.311c0 7.354-4.19 12.414-12.334 12.414s-12.414-5.06-12.414-12.414v-31.31h-11.386v31.706c0 12.967 7.75 21.98 23.8 21.98zm78.129-.949v-42.855h15.339v-9.884h-42.064v9.884h15.418v42.855zm87.155 0-20.32-52.739h-14.075l-20.4 52.739h12.81l3.32-8.935h22.614l3.242 8.935zm-19.135-18.818h-16.446l8.223-22.693z" fill="#00004d" stroke-width=".676"/></svg>