<svg clip-rule="evenodd" fill-rule="evenodd" height="672" image-rendering="optimizeQuality" shape-rendering="geometricPrecision" text-rendering="geometricPrecision" width="2500" xmlns="http://www.w3.org/2000/svg" viewBox="-0.5000000000009095 -0.5 4405.000000000001 1183.9999999999309"><path d="M636.5-.5h5a28711.866 28711.866 0 0 0-145 508c22.426-.621 44.759-3.121 67-7.5a1406.786 1406.786 0 0 0 72-16.5l1 2a786.055 786.055 0 0 0-4 32 1091.472 1091.472 0 0 1 187-10c22.815-70.176 62.815-128.342 120-174.5 63.32-46.53 132.66-58.53 208-36 29.55 11.853 54.05 30.353 73.5 55.5a8218.443 8218.443 0 0 0 6.5-222c84.98-14.775 169.98-29.442 255-44a4984.008 4984.008 0 0 0-7.5 128 85772.52 85772.52 0 0 0 254-51c-4.31 63.624-8.31 127.291-12 191a3330.803 3330.803 0 0 0-2.5 122 404.608 404.608 0 0 0 51-12c.8-1.578 1.3-3.244 1.5-5 .17-17.24.67-34.407 1.5-51.5 46.83-20.7 95.83-30.367 147-29 63.52 4.343 116.35 30.176 158.5 77.5 33.3 40.234 58.63 85.234 76 135 26.32 77.587 42.65 157.254 49 239a2281.746 2281.746 0 0 1 8.5 183c-59.41 3.91-117.41 15.08-174 33.5a2486.32 2486.32 0 0 0-83 32.5c.12-20.08-.72-40.08-2.5-60-35.32 22.16-73.82 33.49-115.5 34-45.32 1.18-84.65-13.32-118-43.5-77.96 2.91-155.96 4.41-234 4.5-3.43-95.302-6.6-190.636-9.5-286a42.898 42.898 0 0 0-1.5-9c-2.21-.606-4.38-1.273-6.5-2a5558.411 5558.411 0 0 0 12.5 393.5c-85.07-4.46-170.07-9.8-255-16-1.57-52.43-3.07-104.934-4.5-157.5-45.07 22.725-92.91 33.391-143.5 32-82.986 2.24-151.486-27.76-205.5-90-.5 78.999-.667 158-.5 237a18987.162 18987.162 0 0 0-208 67h-4a1171.658 1171.658 0 0 1-4.5-43c-34.644 28.2-74.144 38.7-118.5 31.5-40.11-7.14-72.277-26.97-96.5-59.5-18.131-25.6-31.464-53.6-40-84a737.438 737.438 0 0 1-12.5-52 1790.892 1790.892 0 0 0-247 23 18131.99 18131.99 0 0 0-72.5-619A4276.45 4276.45 0 0 0-.5 22.5v-6a11405.242 11405.242 0 0 0 193.5 19 666.242 666.242 0 0 0 73.5-8 6663.005 6663.005 0 0 0 23.5 331 1665.194 1665.194 0 0 0 10 85 3591.276 3591.276 0 0 0 58.5-410c94.452 2.174 187.118-9.16 278-34zm425 519c4.26 12.185 6.59 24.852 7 38a78.936 78.936 0 0 0-12 3 4.486 4.486 0 0 1-1.5-2c-1.14-13.609 1.03-26.609 6.5-39zm-431 12c1 120.499 1.333 241.166 1 362-2.865.445-5.365-.222-7.5-2-6.712-14.217-10.378-29.217-11-45a1579.928 1579.928 0 0 1 3-160 5076.317 5076.317 0 0 1 14.5-155zm1214 73c12.19-.569 23.85 1.598 35 6.5a441.483 441.483 0 0 0-82.5 31.5c-.74-4.856-1.57-9.689-2.5-14.5 14.54-12.438 31.21-20.271 50-23.5zm-632 101c1.32 4.734 1.32 9.567 0 14.5-35.08 24.033-72.41 28.367-112 13a3061.034 3061.034 0 0 0 112-27.5zm722 54c1.73 6.766 2.89 13.766 3.5 21a1365.84 1365.84 0 0 1 5.5 66c-8.65-2.483-14.15-8.149-16.5-17-4.37-24.105-1.87-47.438 7.5-70z" fill="#0b03cb" opacity=".973"/><path d="M646.5 905.5a17392.653 17392.653 0 0 0 2-373c60.606-8.621 121.606-11.287 183-8 22.446-79.122 67.113-142.289 134-189.5 48.55-30.036 100.88-39.703 157-29 39.58 11.252 71.08 33.752 94.5 67.5a243.662 243.662 0 0 1 19 31c2.96-86.675 5.8-173.341 8.5-260 73.3-13.186 146.63-26.186 220-39a8131.475 8131.475 0 0 0-16 405 1586.9 1586.9 0 0 1 23-1 4481.076 4481.076 0 0 1-5-277 39677.089 39677.089 0 0 1 245-48 6248.113 6248.113 0 0 0-11.5 182c-1.53 43.003-1.7 86.003-.5 129a611.051 611.051 0 0 0 71-15c-.36 24.356.14 48.689 1.5 73a759.142 759.142 0 0 0 12.5-134c51.03-22.506 104.03-29.34 159-20.5 50.02 10.385 91.18 35.218 123.5 74.5 35.46 46.256 61.46 97.589 78 154a1046.961 1046.961 0 0 1 36 185 1964.992 1964.992 0 0 1 9.5 186c-77.66 6.11-152 25.11-223 57a1936.1 1936.1 0 0 1-3.5-66c-30.16 22.33-63.66 37.49-100.5 45.5-34.46 6.06-67.79 2.39-100-11-21.78-10.11-39.61-24.946-53.5-44.5-.5 1.973-.66 3.973-.5 6v7c-1.6-.268-2.93.066-4 1a3653.534 3653.534 0 0 1-210 4c-2.36-97.364-5.36-194.697-9-292a253.238 253.238 0 0 1-39-8 3649.08 3649.08 0 0 0 .5 176 20430.1 20430.1 0 0 0 9.5 220c-74.06-3.59-148.06-7.92-222-13-.49-56.69-1.82-113.353-4-170-56.65 33.813-117.98 47.979-184 42.5-88.782-7.181-154.116-49.681-196-127.5-.283-.789-.783-1.456-1.5-2-.5 93.666-.667 187.33-.5 281a56409.511 56409.511 0 0 0-180.5 58 3419.857 3419.857 0 0 1-6-58c-45.051 52.64-99.884 66.14-164.5 40.5-27.448-14.45-48.614-35.28-63.5-62.5-17.79-34.37-29.79-70.7-36-109a614.812 614.812 0 0 1-8.5-84 32.462 32.462 0 0 0-.5-8 42.47 42.47 0 0 0-1.5 5 3481.056 3481.056 0 0 0-13 74.5 1460.612 1460.612 0 0 0-226 20.5 16983.736 16983.736 0 0 0-65.5-570A4648.597 4648.597 0 0 0 19.5 36a30.499 30.499 0 0 1 11 0 4687.875 4687.875 0 0 0 151 15c13.68.478 27.347.144 41-1a323.695 323.695 0 0 1 29-3.5 5816.058 5816.058 0 0 0 43.5 498c37.47-162.821 63.47-327.487 78-494 60.206-.273 120.04-5.44 179.5-15.5 21.701-4.44 43.368-8.94 65-13.5-33.163 115.314-66.329 230.647-99.5 346a6905.706 6905.706 0 0 0-42.5 158c48-1.738 95.167-8.738 141.5-21a5721.128 5721.128 0 0 0-18 190 1699.436 1699.436 0 0 0-3 144c.976 18.162 4.309 35.829 10 53 4.676 13.085 13.843 18.585 27.5 16.5 4.316-.996 8.649-1.83 13-2.5zm415-387c-5.47 12.391-7.64 25.391-6.5 39 .31.808.81 1.475 1.5 2a78.936 78.936 0 0 1 12-3c-.41-13.148-2.74-25.815-7-38zm-431 12a5076.317 5076.317 0 0 0-14.5 155 1579.928 1579.928 0 0 0-3 160c.622 15.783 4.288 30.783 11 45 2.135 1.778 4.635 2.445 7.5 2 .333-120.834 0-241.501-1-362zm1214 73c-18.79 3.229-35.46 11.062-50 23.5.93 4.811 1.76 9.644 2.5 14.5a441.483 441.483 0 0 1 82.5-31.5c-11.15-4.902-22.81-7.069-35-6.5zm-632 101a3061.034 3061.034 0 0 1-112 27.5c39.59 15.367 76.92 11.033 112-13 1.32-4.933 1.32-9.766 0-14.5zm722 54c-9.37 22.562-11.87 45.895-7.5 70 2.35 8.851 7.85 14.517 16.5 17a1365.84 1365.84 0 0 0-5.5-66c-.61-7.234-1.77-14.234-3.5-21z" fill="#fdfdfd"/><path d="M4404.5 840.5v21a2141.424 2141.424 0 0 1-35 10.5c-1.22 1.525-1.89 3.359-2 5.5 4.56 44.561 6.39 89.228 5.5 134a516.917 516.917 0 0 1-12 81c-70.49 50.58-148.99 70.08-235.5 58.5-72.61-9.54-130.28-43.71-173-102.5-64.27-4.92-128.6-9.25-193-13-2 .17-4 .33-6 .5-59.06 96.39-144.4 133.06-256 110-50.59-12.03-91.76-38.53-123.5-79.5-48 33.94-101.16 46.1-159.5 36.5-54.05-8.79-98.22-34.29-132.5-76.5-32.48-43.053-53.15-91.386-62-145-9.63-61.941-9.97-123.941-1-186 9.5-65.9 34.17-125.233 74-178 61.94-76.428 141.11-103.928 237.5-82.5 34.9 10.616 65.56 28.283 92 53a514.306 514.306 0 0 0-13.5 50.5c47.07-43.804 102.9-63.638 167.5-59.5 64.49 3.657 116.32 30.823 155.5 81.5 4.74-163.665 9.57-327.332 14.5-491a50600.019 50600.019 0 0 1 254-45 7950.308 7950.308 0 0 0-18.5 546c34.17-44.489 78-75.323 131.5-92.5 101.88-26.402 178.72 5.765 230.5 96.5 23.85 46.386 39.85 95.386 48 147 6.29 39.598 10.46 79.264 12.5 119zm-1110-180c12.45-.266 22.78 4.068 31 13-14.32 47.759-21.32 96.593-21 146.5.63 20.856 1.63 41.69 3 62.5-12.01-2.504-21.51-8.837-28.5-19-11.11-16.321-18.11-34.321-21-54-5.85-34.394-5.19-68.727 2-103 3.28-15.923 10.78-29.423 22.5-40.5 3.78-2.529 7.78-4.362 12-5.5zm863 42c.62.111 1.12.444 1.5 1a161.47 161.47 0 0 1 6.5 37c-4.74.685-9.41 1.685-14 3-.86-14.137 1.14-27.804 6-41zm-609 58c7.29-.856 12.79 1.81 16.5 8 6.95 13.462 10.62 27.795 11 43 1.44 18.548.1 36.881-4 55-1.46 7.091-4.63 13.258-9.5 18.5-5.79 4.415-11.29 4.249-16.5-.5-8.21-13.829-12.54-28.829-13-45-2.05-22.076-.05-43.743 6-65 1.97-5.637 5.13-10.304 9.5-14zm786 122c-14.91 14.376-31.91 25.876-51 34.5-24.26 8.417-48.92 9.751-74 4a32.826 32.826 0 0 1-12-5.5 3614.308 3614.308 0 0 0 137-33z" fill="#0b03cb" opacity=".973"/><path d="M2962.5 33.5h4a9199.899 9199.899 0 0 0-18.5 777c2.93 82.694 6.43 165.361 10.5 248-57.68-3.18-115.34-6.51-173-10 .35 14.25.35 28.41 0 42.5-88.91 6.23-173.58 28.39-254 66.5a6.866 6.866 0 0 1-1.5-3c-.81-18.99-1.31-37.99-1.5-57-19.76 10.71-40.43 19.54-62 26.5-44.14 11.94-87.48 9.61-130-7-43.18-20.86-71.68-54.36-85.5-100.5-11.59-42.868-13.59-86.202-6-130 13.99-66.285 49.49-117.452 106.5-153.5 33.42-20.205 69.09-35.205 107-45-19.3-8.588-38.63-8.588-58 0a160.746 160.746 0 0 0-15 8c-25.67 17.667-51.33 35.333-77 53-1.26.982-2.59 1.315-4 1a1268.466 1268.466 0 0 0 34.5-142.5 801.68 801.68 0 0 0 8.5-121.5c47.8-21.094 97.8-30.761 150-29 63.31 5.403 115.81 31.903 157.5 79.5 16.56 19.439 30.89 40.439 43 63 3.15-152.022 7.15-304.022 12-456 .5-21.664.67-43.331.5-65 84.2-14.587 168.2-29.587 252-45zm-449 803c2.8 13.051 4.63 26.384 5.5 40a356.26 356.26 0 0 1 2.5 47c-8.17-3.289-13.33-9.289-15.5-18-4.19-23.75-1.69-46.75 7.5-69z" fill="#0a03cb" opacity=".973"/><path d="M3754.5 1018.5c.33-6.04 0-12.04-1-18-.61.12-.94.46-1 1-52.54 111.44-139.21 153.6-260 126.5-38.55-11.02-71.05-31.52-97.5-61.5a3645.59 3645.59 0 0 0-18-22c-56.16 43.56-118.66 55.73-187.5 36.5-38-12.01-69.5-33.51-94.5-64.5-27.17-35.362-45.51-75.029-55-119-15.51-77.06-15.18-154.06 1-231 12.66-57.311 37.99-107.977 76-152 63.49-67.288 139.32-86.455 227.5-57.5 21.85 9.08 41.52 21.413 59 37a773.493 773.493 0 0 0-17.5 67.5 280.63 280.63 0 0 0-6 36c66.94-95.866 155.77-124.366 266.5-85.5 36.81 18.148 65.98 44.648 87.5 79.5a454.107 454.107 0 0 1 14 25c1.23-66.002 2.57-132.002 4-198 3.73-111.993 6.9-223.993 9.5-336a76213.377 76213.377 0 0 1 221-38 8585.662 8585.662 0 0 0-17.5 578c25.28-41.95 58.12-76.783 98.5-104.5 53.94-33.182 111.28-40.849 172-23 28.99 11.747 53.16 29.914 72.5 54.5 26.15 36.312 44.82 76.312 56 120 15.42 59.022 22.92 119.022 22.5 180a2330.912 2330.912 0 0 1-221 56c12.07 20.54 30.07 32.04 54 34.5 37.1 5.184 70.76-3.149 101-25l31.5-25.5c3.92 39.234 5.58 78.567 5 118a683.066 683.066 0 0 1-10 75c-68.83 47.03-144.66 64.2-227.5 51.5-67.3-11.46-119.97-45.29-158-101.5-69.17-4.47-138.17-9.13-207-14zm-460-358c-4.22 1.138-8.22 2.971-12 5.5-11.72 11.077-19.22 24.577-22.5 40.5-7.19 34.273-7.85 68.606-2 103 2.89 19.679 9.89 37.679 21 54 6.99 10.163 16.49 16.496 28.5 19-1.37-20.81-2.37-41.644-3-62.5-.32-49.907 6.68-98.741 21-146.5-8.22-8.932-18.55-13.266-31-13zm863 42c-4.86 13.196-6.86 26.863-6 41 4.59-1.315 9.26-2.315 14-3a161.47 161.47 0 0 0-6.5-37c-.38-.556-.88-.889-1.5-1zm-609 58c-4.37 3.696-7.53 8.363-9.5 14-6.05 21.257-8.05 42.924-6 65 .46 16.171 4.79 31.171 13 45 5.21 4.749 10.71 4.915 16.5.5 4.87-5.242 8.04-11.409 9.5-18.5 4.1-18.119 5.44-36.452 4-55-.38-15.205-4.05-29.538-11-43-3.71-6.19-9.21-8.856-16.5-8z" fill="#fdfdfd"/><path d="M583.5 49.5c1.699-.16 3.366.006 5 .5a17350.664 17350.664 0 0 0-135 475.5 376.316 376.316 0 0 0-38.5 1 2548.395 2548.395 0 0 0-25 252 3306.867 3306.867 0 0 0-31.5 162 1824.295 1824.295 0 0 0-190 16 20504.092 20504.092 0 0 0-57.5-501A5657.26 5657.26 0 0 0 46.5 61l1-2.5a3129.057 3129.057 0 0 0 136 13.5c16.093.67 32.093-.162 48-2.5a6762.232 6762.232 0 0 0 50 538c6.996.394 13.996.727 21 1a4346.643 4346.643 0 0 0 76.5-416 4188.523 4188.523 0 0 0 13-121A1147.789 1147.789 0 0 0 535.5 59a717.557 717.557 0 0 0 48-9.5z" fill="#ffcc01"/><path d="M2712.5 672.5c.49.973.99 1.973 1.5 3 .5-22.998.67-45.998.5-69 .73-63.673 1.89-127.34 3.5-191 3.65-107.648 6.65-215.315 9-323a9930.127 9930.127 0 0 1 221.5-39 9606.644 9606.644 0 0 0-17.5 727 10719.36 10719.36 0 0 0 10.5 261c-57.34-3.22-114.67-6.55-172-10v45c-77.7 6.01-152.03 25.01-223 57a2847.33 2847.33 0 0 1-3.5-66c-34.9 26.2-74.07 42.03-117.5 47.5-95.59 2.75-151.09-43.09-166.5-137.5-13.78-110.627 28.06-192.127 125.5-244.5 34.51-16.593 70.51-28.593 108-36-12.17-17.427-28.84-27.76-50-31-20.16-2.252-39.16 1.415-57 11a1084.925 1084.925 0 0 0-52 35c-.67.667-1.33.667-2 0 21.34-69.847 32-141.347 32-214.5 53.39-23.424 108.72-29.924 166-19.5 44.28 10.883 81.44 33.383 111.5 67.5 31.55 37.752 55.39 80.085 71.5 127zm-199 164c-9.19 22.25-11.69 45.25-7.5 69 2.17 8.711 7.33 14.711 15.5 18a356.26 356.26 0 0 0-2.5-47c-.87-13.616-2.7-26.949-5.5-40z" fill="#fdfdfd"/><g fill="#ffcc01"><path d="M3955.5 69.5h5a9655.784 9655.784 0 0 0-17.5 596c-21.85 52.609-32.69 107.442-32.5 164.5-.82 50.897 7.01 100.397 23.5 148.5a344.76 344.76 0 0 0 13.5 30 74.27 74.27 0 0 1-21 .5c-50.68-3.15-101.34-6.32-152-9.5a12280.622 12280.622 0 0 1-4.5-455c3.95-147.999 7.78-295.999 11.5-444a20271.344 20271.344 0 0 0 174-31zM2920.5 78.5h5a10322.966 10322.966 0 0 0-15.5 696c2.51 81.695 5.68 163.362 9.5 245-59.66-3.71-119.33-7.37-179-11a11510.254 11510.254 0 0 1-4.5-473c3.77-142.005 7.61-284.005 11.5-426a15520.19 15520.19 0 0 0 173-31zM1439.5 130.5h3a6634.482 6634.482 0 0 0-15 381h-4c-3.19 55.505-6.52 111.005-10 166.5.33 3.167.67 6.333 1 9.5 3.56 1.24 7.06 2.573 10.5 4 .29 59.005.96 118.005 2 177 2.85 67.669 5.68 135.34 8.5 203-59.66-3.5-119.32-6.83-179-10a12096.26 12096.26 0 0 1-4.5-472c3.84-142.337 7.84-284.67 12-427 58.58-10.734 117.08-21.4 175.5-32z"/><path d="M1681.5 210.5h7a3861.357 3861.357 0 0 0-11 241c-.05 22.693.61 45.36 2 68a639.666 639.666 0 0 0 70-12c.43 36.628 2.76 73.128 7 109.5a78.716 78.716 0 0 1-4 17c1.92-.027 3.58-.861 5-2.5a204.37 204.37 0 0 1 4.5 31c-25.8 11.098-52.63 18.431-80.5 22 .17 42.671.34 85.337.5 128-4.8 25.834-5.8 51.834-3 78 2.54 15.703 5.21 31.37 8 47 .46 12.005.96 24.005 1.5 36a3405.768 3405.768 0 0 1-173 3c-2.67-96.334-5.33-192.667-8-289a411.98 411.98 0 0 1-72-15c1.77-46.991 4.43-93.991 8-141a895.495 895.495 0 0 1 50-2 6037.805 6037.805 0 0 1-7-280 16846.068 16846.068 0 0 0 195-39zM1062.5 322.5c58.01-5.072 103.84 15.928 137.5 63 13.67 20.342 25.01 42.009 34 65-1.15 70.333-2.65 140.667-4.5 211a2393.833 2393.833 0 0 1-65 17.5c-41.66 9.333-83.33 18.5-125 27.5 5.25 15.84 13.08 30.174 23.5 43 19.02 18.24 41.85 27.74 68.5 28.5 35.93 2.442 68.76-6.391 98.5-26.5.32 37.836.82 75.669 1.5 113.5-.33 7.167-.67 14.333-1 21.5-56.17 36.709-117.83 51.875-185 45.5-93.173-10.188-156.339-59.021-189.5-146.5-18.803-56.227-25.47-113.894-20-173 6.493-91.46 41.993-169.293 106.5-233.5 33.976-31.487 73.98-50.32 120-56.5zm-1 196c-5.47 12.391-7.64 25.391-6.5 39 .31.808.81 1.475 1.5 2a78.936 78.936 0 0 1 12-3c-.41-13.148-2.74-25.815-7-38z"/><path d="M1884.5 415.5c65.7-3.725 120.2 18.942 163.5 68 27.14 32.915 48.14 69.582 63 110 23.03 62.471 38.37 126.804 46 193a1722.035 1722.035 0 0 1 12.5 193c-63.23 7.315-124.57 22.32-184 45 .09-25.391-.74-50.725-2.5-76-25.5 22.138-53.66 40.305-84.5 54.5-39.09 16.05-78.75 17.72-119 5-37.61-15.611-61.77-43.111-72.5-82.5-28.12-129.276 19.05-218.109 141.5-266.5a488.054 488.054 0 0 1 93-23 4.473 4.473 0 0 0 2-1.5c-17.92-48.65-52.92-71.15-105-67.5-17.95 2.707-34.62 8.873-50 18.5-.33-.833-.67-1.667-1-2.5 10.97-49.228 16.63-99.061 17-149.5 26.11-8.953 52.78-14.953 80-18zm50 343c-9.37 22.562-11.87 45.895-7.5 70 2.35 8.851 7.85 14.517 16.5 17a1365.84 1365.84 0 0 0-5.5-66c-.61-7.234-1.77-14.234-3.5-21zM3254.5 464.5c45.82-3.382 87.16 8.452 124 35.5a3.92 3.92 0 0 1 1 2 1037.79 1037.79 0 0 0-28.5 142.5c-17.96-15.564-38.8-22.398-62.5-20.5-22.99 5.578-40.16 18.744-51.5 39.5-9.72 18.862-15.72 38.862-18 60-5.37 44.656-1.03 88.322 13 131 9.72 27.384 27.55 47.55 53.5 60.5 14.58 4.999 29.58 6.833 45 5.5 6.03 37.081 18.03 72.081 36 105-53.78 43.81-113.78 54.64-180 32.5-39.07-15.74-69.57-41.57-91.5-77.5-23.41-40.573-37.41-84.24-42-131-7.56-63.679-3.9-126.679 11-189 13.21-52.444 37.88-98.444 74-138 31.98-33.072 70.81-52.405 116.5-58z"/></g><path d="M1056.5 477.5c14.77-1.528 26.27 3.805 34.5 16 6.94 13.167 11.28 27.167 13 42a332.54 332.54 0 0 1 2.5 41h-9a44.69 44.69 0 0 1 1 10 552.617 552.617 0 0 1-76 17c-4.68-24.493-5.85-49.16-3.5-74 2.17-18.182 10.01-33.349 23.5-45.5a77.922 77.922 0 0 1 14-6.5zm5 41c-5.47 12.391-7.64 25.391-6.5 39 .31.808.81 1.475 1.5 2a78.936 78.936 0 0 1 12-3c-.41-13.148-2.74-25.815-7-38z" fill="#fefdfd"/><path d="M2460.5 493.5c71.15-4.363 128.98 20.971 173.5 76 28.47 38.267 50.14 80.267 65 126a962.83 962.83 0 0 1 15 51c1.98 93.998 3.81 187.998 5.5 282 9.67.21 19.34.54 29 1v28c-62.78 6.53-123.45 21.53-182 45-1.77-25.32-3.27-50.65-4.5-76a391.057 391.057 0 0 1-67.5 46.5c-31.62 16.77-65.29 23.77-101 21-57.24-7.24-93.41-38.74-108.5-94.5-9.58-39.252-9.91-78.585-1-118 12.63-45.611 38.13-82.111 76.5-109.5 47.06-31.033 98.72-50.033 155-57 2.51-.376 4.84-1.21 7-2.5-15.13-44.103-46.13-66.769-93-68-22.53.286-43.19 6.62-62 19 .5-9.357 2-18.69 4.5-28a685.089 685.089 0 0 0 11.5-124c25.14-8.705 50.81-14.705 77-18zm53 343c-9.19 22.25-11.69 45.25-7.5 69 2.17 8.711 7.33 14.711 15.5 18a356.26 356.26 0 0 0-2.5-47c-.87-13.616-2.7-26.949-5.5-40z" fill="#ffcc01"/><path d="M1042.5 578.5c-1.53-1.302-2.53-2.969-3-5-.28-8.332-.62-16.666-1-25-.79-16.137 3.38-30.803 12.5-44 6.3-7.06 13.13-7.726 20.5-2 3.54 4.448 6.04 9.448 7.5 15a218.016 218.016 0 0 1 6.5 51 401.938 401.938 0 0 1-43 10zm19-60c-5.47 12.391-7.64 25.391-6.5 39 .31.808.81 1.475 1.5 2a78.936 78.936 0 0 1 12-3c-.41-13.148-2.74-25.815-7-38z" fill="#0e05cb" opacity=".985"/><path d="M4157.5 506.5c63.33-5.416 111.83 18.584 145.5 72 22.59 37.54 38.26 77.873 47 121a770.245 770.245 0 0 1 16.5 135 2177.266 2177.266 0 0 1-224 53.5c-2.28.233-4.28 1.066-6 2.5 10.9 39.068 36.23 62.235 76 69.5 44.84 7.398 85.34-2.435 121.5-29.5 4.86 46.311 2.86 92.31-6 138-.47 1.43-1.3 2.6-2.5 3.5-66.4 41.02-138.07 54.02-215 39-68.42-16.44-117.92-56.28-148.5-119.5-22.17-51.321-32.33-104.988-30.5-161-1.11-94.527 28.72-177.527 89.5-249 27.93-31.382 61.77-53.882 101.5-67.5a298.517 298.517 0 0 1 35-7.5zm0 196c-4.86 13.196-6.86 26.863-6 41 4.59-1.315 9.26-2.315 14-3a161.47 161.47 0 0 0-6.5-37c-.38-.556-.88-.889-1.5-1zM3543.5 515.5c75.52-4.661 133.35 24.672 173.5 88 13.33 22.329 23.66 45.996 31 71 1.01 89.346 2.34 178.68 4 268-11.45 43.577-31.78 82.24-61 116-44.8 46.16-99.3 64.66-163.5 55.5-63.6-9.31-111.1-41.81-142.5-97.5-17.04-31.443-28.7-64.776-35-100-7.11-45.068-9.44-90.401-7-136 3.13-65.047 22.79-124.381 59-178 24.3-34.9 56.13-60.4 95.5-76.5 15.11-5.114 30.44-8.614 46-10.5zm5 245c-4.37 3.696-7.53 8.363-9.5 14-6.05 21.257-8.05 42.924-6 65 .46 16.171 4.79 31.171 13 45 5.21 4.749 10.71 4.915 16.5.5 4.87-5.242 8.04-11.409 9.5-18.5 4.1-18.119 5.44-36.452 4-55-.38-15.205-4.05-29.538-11-43-3.71-6.19-9.21-8.856-16.5-8z" fill="#ffcc01"/><path d="M587.5 532.5a9.86 9.86 0 0 1 6 1 2415.326 2415.326 0 0 0-18.5 235 635.594 635.594 0 0 0 4 104c2.451 14.359 7.451 27.693 15 40 10.298 13.4 23.798 18.9 40.5 16.5l34-7.5v-371a955.648 955.648 0 0 1 157-6c-11.384 53.504-14.217 107.504-8.5 162a417.513 417.513 0 0 0 12 63c.5 106.666.667 213.333.5 320-47.728 14.8-95.394 29.8-143 45a2133.328 2133.328 0 0 0-8.5-85c-14.188 22.54-31.021 43.04-50.5 61.5-33.373 26.47-70.373 32.8-111 19-28.918-12.92-50.752-33.42-65.5-61.5-15.89-32.34-26.556-66.34-32-102a961.654 961.654 0 0 1-9-173 2491.232 2491.232 0 0 1 23-245 1730.656 1730.656 0 0 0 102.5-6.5 573.65 573.65 0 0 0 52-9.5z" fill="#ffcc02"/><path d="M648.5 532.5c.665 124.671-.002 249.004-2 373 .665-124.431 1.332-248.764 2-373z" fill="#7a78e3"/><path d="M1039.5 573.5c.47 2.031 1.47 3.698 3 5-.71.904-1.71 1.237-3 1v-6z" fill="#7d78e3"/><path d="M1838.5 587.5c23.42-2.399 44.42 3.434 63 17.5a63.124 63.124 0 0 1 12 14c-45.44 8.642-88.1 24.476-128 47.5a102.066 102.066 0 0 1-4.5-21c-.93-8.702-2.1-17.368-3.5-26 17.69-15.678 38.02-26.345 61-32zm6 16c-18.79 3.229-35.46 11.062-50 23.5.93 4.811 1.76 9.644 2.5 14.5a441.483 441.483 0 0 1 82.5-31.5c-11.15-4.902-22.81-7.069-35-6.5z" fill="#0b03cb" opacity=".981"/><path d="M3289.5 644.5c22.17-1.067 40.5 6.6 55 23a431.977 431.977 0 0 0-21.5 102c-2.88 43.47-1.72 86.803 3.5 130-29.64 2.429-51.81-9.238-66.5-35-13.72-26.975-21.06-55.642-22-86-2.57-32.22 1.43-63.553 12-94 7.4-19.236 20.57-32.57 39.5-40zm5 16c-4.22 1.138-8.22 2.971-12 5.5-11.72 11.077-19.22 24.577-22.5 40.5-7.19 34.273-7.85 68.606-2 103 2.89 19.679 9.89 37.679 21 54 6.99 10.163 16.49 16.496 28.5 19-1.37-20.81-2.37-41.644-3-62.5-.32-49.907 6.68-98.741 21-146.5-8.22-8.932-18.55-13.266-31-13z" fill="#0c04cb" opacity=".975"/><path d="M4152.5 661.5c19.11-1.719 32.27 6.281 39.5 24 7.01 19.707 10.67 40.04 11 61 .67 7 .67 14 0 21a502.366 502.366 0 0 1-84.5 20 466.627 466.627 0 0 1-3.5-69c1.55-16.322 7.22-30.989 17-44 5.98-5.839 12.81-10.172 20.5-13zm5 41c-4.86 13.196-6.86 26.863-6 41 4.59-1.315 9.26-2.315 14-3a161.47 161.47 0 0 0-6.5-37c-.38-.556-.88-.889-1.5-1z" fill="#fefdfd"/><path d="M2714.5 606.5c.17 23.002 0 46.002-.5 69a598.85 598.85 0 0 0-1.5-3c.67-22 1.33-44 2-66z" fill="#716ee1"/><path d="M4155.5 682.5c9.65-.212 15.81 4.454 18.5 14a191.05 191.05 0 0 1 8.5 56 380.772 380.772 0 0 1-46 10 211.295 211.295 0 0 1 1.5-54c2.18-11.312 8.02-19.978 17.5-26zm2 20c-4.86 13.196-6.86 26.863-6 41 4.59-1.315 9.26-2.315 14-3a161.47 161.47 0 0 0-6.5-37c-.38-.556-.88-.889-1.5-1z" fill="#0d04cb" opacity=".985"/><path d="M1227.5 684.5c1.98 13.627 2.65 27.627 2 42-42.21 32.855-88.21 39.355-138 19.5-10.1-6.259-17.44-14.759-22-25.5a2706.768 2706.768 0 0 0 158-36zm-15 20a3061.034 3061.034 0 0 1-112 27.5c39.59 15.367 76.92 11.033 112-13 1.32-4.933 1.32-9.766 0-14.5z" fill="#0d04cb" opacity=".978"/><path d="M1751.5 688.5a4.939 4.939 0 0 1 3 .5c-21.26 17.582-38.43 38.415-51.5 62.5-.5-16.33-.67-32.663-.5-49 16.9-3.083 33.23-7.75 49-14z" fill="#1309cc"/><path d="M1227.5 684.5c.71-.904 1.71-1.237 3-1 .33 14.51 0 28.843-1 43 .65-14.373-.02-28.373-2-42z" fill="#5d5add"/><path d="M1946.5 708.5c6.26-.31 12.42.024 18.5 1 10.56 53.406 15.39 107.24 14.5 161.5-23.36 15.618-46.36 15.284-69-1-16.73-17.521-24.4-38.521-23-63-.52-23.381 4.31-45.548 14.5-66.5 10.07-17.438 24.9-28.104 44.5-32zm-12 50c-9.37 22.562-11.87 45.895-7.5 70 2.35 8.851 7.85 14.517 16.5 17a1365.84 1365.84 0 0 0-5.5-66c-.61-7.234-1.77-14.234-3.5-21zM3542.5 723.5c20.53-2.439 37.36 4.228 50.5 20 12.19 18.09 18.86 38.09 20 60 1.5 22.845.17 45.511-4 68-3.15 17.487-11.32 31.987-24.5 43.5-30.53 18.164-55.37 12.33-74.5-17.5-8.35-18.086-13.02-37.086-14-57-2.39-25.807-.06-51.14 7-76 6.32-20.481 19.48-34.148 39.5-41zm6 37c-4.37 3.696-7.53 8.363-9.5 14-6.05 21.257-8.05 42.924-6 65 .46 16.171 4.79 31.171 13 45 5.21 4.749 10.71 4.915 16.5.5 4.87-5.242 8.04-11.409 9.5-18.5 4.1-18.119 5.44-36.452 4-55-.38-15.205-4.05-29.538-11-43-3.71-6.19-9.21-8.856-16.5-8z" fill="#fefdfd"/><path d="M1943.5 730.5h4a741.471 741.471 0 0 1 11 128c-17.42 7.026-31.25 2.693-41.5-13-6.62-12.673-9.46-26.173-8.5-40.5-.94-22.308 4.56-42.808 16.5-61.5 5.3-5.721 11.47-10.054 18.5-13zm-9 28c-9.37 22.562-11.87 45.895-7.5 70 2.35 8.851 7.85 14.517 16.5 17a1365.84 1365.84 0 0 0-5.5-66c-.61-7.234-1.77-14.234-3.5-21z" fill="#0d04cb" opacity=".982"/><path d="M3544.5 744.5c12.53-1.99 23.03 1.677 31.5 11 9.63 14.499 14.96 30.499 16 48 2.48 25.831.15 51.164-7 76-8.2 21.353-23.03 28.52-44.5 21.5-10.45-8.724-16.95-19.89-19.5-33.5-1.8-7.583-3.13-15.25-4-23a526.62 526.62 0 0 1 0-46c1.02-16.396 6.02-31.396 15-45 3.79-3.638 7.96-6.638 12.5-9zm4 16c-4.37 3.696-7.53 8.363-9.5 14-6.05 21.257-8.05 42.924-6 65 .46 16.171 4.79 31.171 13 45 5.21 4.749 10.71 4.915 16.5.5 4.87-5.242 8.04-11.409 9.5-18.5 4.1-18.119 5.44-36.452 4-55-.38-15.205-4.05-29.538-11-43-3.71-6.19-9.21-8.856-16.5-8z" fill="#0d04cb" opacity=".977"/><path d="M2524.5 786.5c6.37-.33 12.7.004 19 1 10.92 53.12 15.92 106.786 15 161-34.63 20.979-62.46 14.312-83.5-20-6.01-14.211-8.84-29.044-8.5-44.5-.33-23.018 4.5-44.851 14.5-65.5 9.87-17.163 24.37-27.83 43.5-32zm-11 50c-9.19 22.25-11.69 45.25-7.5 69 2.17 8.711 7.33 14.711 15.5 18a356.26 356.26 0 0 0-2.5-47c-.87-13.616-2.7-26.949-5.5-40z" fill="#fefdfd"/><path d="M2522.5 808.5h4a855.353 855.353 0 0 1 12 128c-17.62 6.85-31.78 2.516-42.5-13-7.98-16.798-10.64-34.464-8-53 .88-17.864 6.21-34.197 16-49 5.26-5.783 11.43-10.116 18.5-13zm-9 28c-9.19 22.25-11.69 45.25-7.5 69 2.17 8.711 7.33 14.711 15.5 18a356.26 356.26 0 0 0-2.5-47c-.87-13.616-2.7-26.949-5.5-40z" fill="#0d04cb" opacity=".981"/><path d="M851.5 825.5l-2 279c-.167-93.67 0-187.334.5-281 .717.544 1.217 1.211 1.5 2z" fill="#7270e2"/><path d="M390.5 889.5l-2-3a42.47 42.47 0 0 1 1.5-5c.497 2.646.664 5.313.5 8z" fill="#a6a3ec"/><path d="M1709.5 985.5c.97 2.448 1.31 5.115 1 8h-5 5c.31-2.885-.03-5.552-1-8z" fill="#a4a1ec"/><path d="M3752.5 1001.5c.06-.54.39-.88 1-1 1 5.96 1.33 11.96 1 18-.67-5.67-1.33-11.33-2-17z" fill="#908ce7"/></svg>