<svg clip-rule="evenodd" fill-rule="evenodd" height="1141" image-rendering="optimizeQuality" shape-rendering="geometricPrecision" text-rendering="geometricPrecision" width="2500" xmlns="http://www.w3.org/2000/svg" viewBox="-0.4999999999990905 -0.5 4442.0000000005375 2028"><path d="M636.5-.5h5a28711.866 28711.866 0 0 0-145 508c20.35-.649 40.683-2.816 61-6.5a1098.378 1098.378 0 0 0 78-17.5l1 1.5a970.645 970.645 0 0 0-4 32.5 1074.865 1074.865 0 0 1 187-10c23.478-71.839 64.811-131.006 124-177.5 54.931-38.896 115.6-52.23 182-40 39.02 10.055 70.86 30.888 95.5 62.5 3.04-73.671 5.2-147.338 6.5-221a14554.072 14554.072 0 0 1 255-45 4281.255 4281.255 0 0 0-7.5 128c84.69-16.892 169.35-33.892 254-51-4.31 62.956-8.31 125.956-12 189-1.67 41.317-2.5 82.65-2.5 124 17.23-2.98 34.23-6.98 51-12a20.078 20.078 0 0 0 1.5-6c.33-16.667.67-33.333 1-50 47.22-21.244 96.72-31.077 148.5-29.5 62.59 4.547 114.76 30.047 156.5 76.5 32.05 38.132 56.72 80.799 74 128 26.96 76.814 43.96 155.814 51 237a2317.342 2317.342 0 0 1 9.5 191.5c-46.51 4.53-92.51 12.53-138 24a663.055 663.055 0 0 0-48 15c-23.7 9.52-47.37 19.02-71 28.5-.24-18.34-.74-36.67-1.5-55-.2-1.76-.7-3.42-1.5-5-47.78 29.86-99.45 40.02-155 30.5-29.93-5.96-55.93-19.3-78-40-33.67.65-67.33 1.65-101 3-44.34.43-88.68.76-133 1-3.39-98.113-6.89-196.28-10.5-294.5-2.33-.667-4.67-1.333-7-2-.79 59.682-.13 119.349 2 179 3.02 71.677 6.19 143.34 9.5 215-85-5.37-170-10.71-255-16-.65-52.68-1.81-105.344-3.5-158-44.94 22.523-92.61 33.189-143 32-83.088 2.113-151.755-27.887-206-90-.5 78.999-.667 158-.5 237a25601.193 25601.193 0 0 0-210.5 67 3.92 3.92 0 0 1-2-1l-4-42c-41.769 32.66-88.269 41.49-139.5 26.5-35.088-11.79-62.588-33.29-82.5-64.5-23.258-38.94-38.091-80.94-44.5-126a1750.11 1750.11 0 0 0-248 23 18131.99 18131.99 0 0 0-72.5-619A4276.45 4276.45 0 0 0-.5 22.5v-6a11405.242 11405.242 0 0 0 193.5 19 666.242 666.242 0 0 0 73.5-8 6663.005 6663.005 0 0 0 23.5 331 1505.11 1505.11 0 0 0 10 85 3591.34 3591.34 0 0 0 58.5-410c94.452 2.173 187.119-9.16 278-34zm424 519c1-.03 1.66.47 2 1.5a167.204 167.204 0 0 1 6 36.5 78.936 78.936 0 0 0-12 3 3.595 3.595 0 0 1-1.5-1c-.99-13.746.84-27.08 5.5-40zm-430 12a21726.416 21726.416 0 0 1 .5 361c-2.592 1.482-4.925 1.148-7-1-6.582-13.9-10.248-28.567-11-44a1597.79 1597.79 0 0 1 3-162 5466.808 5466.808 0 0 1 14.5-154zm1213 73c12.55-.742 24.55 1.425 36 6.5a414.866 414.866 0 0 0-82.5 31.5c-1.35-5.395-1.85-10.728-1.5-16 14.33-11.17 30.33-18.503 48-22zm-631 101c1.31 4.515 1.31 9.182 0 14-34.9 24.259-72.23 28.759-112 13.5a3428.344 3428.344 0 0 0 112-27.5zm722 54c4.84 28.939 7.51 57.939 8 87-5.49-1.656-9.66-4.99-12.5-10a46.59 46.59 0 0 1-5-17c-1.88-20.869 1.29-40.869 9.5-60z" fill="#010238" opacity=".975"/><path d="M647.5 904.5a34960.228 34960.228 0 0 1 3-373 1098.561 1098.561 0 0 1 181-8c19-64.859 53.333-120.025 103-165.5 36.018-31.667 78.02-50.333 126-56 68.12-5.85 121.29 19.317 159.5 75.5a541.04 541.04 0 0 1 16 27c3.12-86.648 5.62-173.315 7.5-260a25550.67 25550.67 0 0 1 221-39 7445.733 7445.733 0 0 0-16 405c7.66-.486 15.33-.82 23-1a4314.896 4314.896 0 0 1-5-277 13241.826 13241.826 0 0 1 245-48 9835.15 9835.15 0 0 0-11.5 180 2119.224 2119.224 0 0 0-.5 131 726.743 726.743 0 0 0 71-15c-.35 24.022.15 48.022 1.5 72a669.545 669.545 0 0 0 12-133c45.5-19.778 93-27.612 142.5-23.5 57.09 7.457 103.92 33.29 140.5 77.5 22.71 28.72 41.37 60.054 56 94 24.8 61.206 41.8 124.539 51 190a1666.244 1666.244 0 0 1 16.5 241c-77.68 6-152.02 25-223 57-1.53-19.64-2.53-39.3-3-59 .31-2.424-.03-4.757-1-7-.61.124-.94.457-1 1-28.13 20.4-59.13 34.9-93 43.5-42.66 8.96-83 2.96-121-18-15.41-9.41-28.24-21.576-38.5-36.5-.5 1.973-.66 3.973-.5 6v7c-2.56-.302-4.89.032-7 1a3383.64 3383.64 0 0 1-207 4c-3.1-97.332-6.1-194.665-9-292a252.872 252.872 0 0 1-39-8 3670.364 3670.364 0 0 0 .5 174c2.86 74.352 6.02 148.69 9.5 223-74-4.67-148-9.33-222-14-.89-51.67-1.89-103.336-3-155a57.192 57.192 0 0 0-1-15c-.61.124-.94.457-1 1-60.04 34.775-124.7 48.275-194 40.5-83.93-10.169-145.596-52.336-185-126.5-.283-.789-.783-1.456-1.5-2-.5 93.666-.667 187.33-.5 281a11325.008 11325.008 0 0 0-180.5 58 3439.075 3439.075 0 0 1-6-58c-45.782 53.49-101.282 66.66-166.5 39.5-26.5-14.5-47-35-61.5-61.5-16.098-30.96-27.432-63.63-34-98a696.667 696.667 0 0 1-10.5-93 50.464 50.464 0 0 0-.5-10 42.47 42.47 0 0 0-1.5 5 17561.88 17561.88 0 0 0-13 74.5 1664.406 1664.406 0 0 0-226 19.5 16727.893 16727.893 0 0 0-66.5-576A4574.046 4574.046 0 0 0 19.5 36a600.304 600.304 0 0 1 33 2 6150.732 6150.732 0 0 0 127 13c8.667.667 17.333.667 26 0l46-4.5a5879.346 5879.346 0 0 0 43.5 498 3732.998 3732.998 0 0 0 78-494c82.599-.262 164.099-9.929 244.5-29a157698.152 157698.152 0 0 1-86.5 300 11280.839 11280.839 0 0 0-55.5 202c47.851.117 94.851-6.217 141-19a771.135 771.135 0 0 1-6.5 65 2203.214 2203.214 0 0 0-14 194 1368.566 1368.566 0 0 0 0 74 209.336 209.336 0 0 0 10 54c3.486 10.165 10.486 15.831 21 17a101.394 101.394 0 0 0 20.5-4zm413-386c-4.66 12.92-6.49 26.254-5.5 40 .41.457.91.791 1.5 1a78.936 78.936 0 0 1 12-3 167.204 167.204 0 0 0-6-36.5c-.34-1.03-1-1.53-2-1.5zm-430 12a5466.808 5466.808 0 0 0-14.5 154 1597.79 1597.79 0 0 0-3 162c.752 15.433 4.418 30.1 11 44 2.075 2.148 4.408 2.482 7 1 .833-120.501.666-240.834-.5-361zm1213 73c-17.67 3.497-33.67 10.83-48 22-.35 5.272.15 10.605 1.5 16a414.866 414.866 0 0 1 82.5-31.5c-11.45-5.075-23.45-7.242-36-6.5zm-631 101a3428.344 3428.344 0 0 1-112 27.5c39.77 15.259 77.1 10.759 112-13.5 1.31-4.818 1.31-9.485 0-14zm722 54c-8.21 19.131-11.38 39.131-9.5 60a46.59 46.59 0 0 0 5 17c2.84 5.01 7.01 8.344 12.5 10-.49-29.061-3.16-58.061-8-87z" fill="#fdfdfc"/><path d="M3997.5 24.5h3a7633.212 7633.212 0 0 0-18.5 546c32.53-42.529 74.03-72.696 124.5-90.5 42.08-12.756 84.41-13.756 127-3 34.91 12.032 63.75 32.532 86.5 61.5 24.94 33.541 43.27 70.541 55 111 19.45 69.344 28.95 140.01 28.5 212-11.89 3.573-23.72 7.24-35.5 11 1.61 29.982 3.28 59.982 5 90 1.89 43.87-2.11 87.21-12 130-79.85 55.79-167.68 73.62-263.5 53.5-60.6-14.61-108.93-47.11-145-97.5-1-.33-2-.67-3-1-63.15-4.14-126.32-8.14-189.5-12-2.5.33-5 .67-7.5 1-59.96 97.61-146.29 133.78-259 108.5-48.75-12.78-88.58-38.95-119.5-78.5-53.44 36.72-111.94 47.88-175.5 33.5-49.57-12.01-89.73-38.18-120.5-78.5-32.31-45.228-52.31-95.561-60-151-11.47-80.087-6.47-159.087 15-237 19.5-66.436 56-121.269 109.5-164.5 57.33-39.78 120-51.113 188-34 33.89 10.857 64.06 28.024 90.5 51.5.67 1.667.67 3.333 0 5a487.197 487.197 0 0 0-12 47c42.44-40.197 93.1-60.197 152-60 70.66-.375 127.66 26.959 171 82 4.52-163.703 9.36-327.37 14.5-491 83.81-14.91 167.47-29.91 251-45zm-704 636c12.85-.563 23.51 3.77 32 13-14.46 47.573-21.46 96.24-21 146a1103.5 1103.5 0 0 0 3 63c-7.58-1.288-14.24-4.455-20-9.5-12.5-12.819-21-27.986-25.5-45.5-10.74-41.6-11.07-83.267-1-125 3.55-14.94 11.05-27.44 22.5-37.5 3.32-1.83 6.65-3.33 10-4.5zm864 42c2.01 2.167 3.18 4.834 3.5 8a348.642 348.642 0 0 1 4.5 29 188.8 188.8 0 0 1-13 4c-2.16-14.182-.5-27.849 5-41zm-609 58c7.29-.856 12.79 1.81 16.5 8 7.19 14.112 10.85 29.112 11 45 1.31 18.942-.36 37.609-5 56-1.88 7.627-6.04 13.46-12.5 17.5-3.79.837-7.46.504-11-1-6.74-8.659-10.91-18.492-12.5-29.5-3.33-22.667-3.33-45.333 0-68 1.63-8.549 4.63-16.549 9-24 1.4-1.57 2.9-2.904 4.5-4zm782 122c3.47.21 3.47 1.377 0 3.5-15 13.174-31.67 23.841-50 32-23.37 7.457-47.04 8.457-71 3a32.826 32.826 0 0 1-12-5.5 2152.183 2152.183 0 0 0 133-33z" fill="#010238" opacity=".974"/><path d="M2962.5 33.5h4a8046.424 8046.424 0 0 0-19.5 516c-.67 74.333-.67 148.667 0 223 2.6 95.385 6.44 190.718 11.5 286-57.67-3.33-115.33-6.67-173-10-.28 13.02.06 26.02 1 39-.21 1.49-.88 2.66-2 3.5-64.11 4.56-126.45 17.56-187 39-22.74 9.08-45.41 18.25-68 27.5-.14-19.01-.64-38.01-1.5-57a6.866 6.866 0 0 0-1.5-3c-30.46 18.65-63.46 29.82-99 33.5-36.28 3.12-70.62-3.55-103-20-38.77-23.47-63.93-57.3-75.5-101.5-10.54-44.174-11.21-88.507-2-133 12.59-51.382 39.43-93.549 80.5-126.5 39.27-29.463 82.94-50.13 131-62-16.59-7.407-33.59-8.407-51-3a172.506 172.506 0 0 0-27 14 2279.117 2279.117 0 0 1-75 51.5c-.33-.333-.67-.667-1-1a1446.723 1446.723 0 0 0 33.5-136 723.82 723.82 0 0 0 9-127c48.13-21.892 98.63-31.725 151.5-29.5 50.13 4.075 94.13 22.408 132 55 27.49 25.804 49.99 55.304 67.5 88.5 3.8-174.018 8.3-348.018 13.5-522a85753.933 85753.933 0 0 0 251-45zm-449 803c4.78 28.715 7.61 57.715 8.5 87-8.19-2.526-13.36-8.026-15.5-16.5a40.782 40.782 0 0 1-2.5-11.5c-1.62-20.508 1.55-40.175 9.5-59z" fill="#010237" opacity=".973"/><path d="M3977.5 44.5h5a8994.183 8994.183 0 0 0-17.5 578c26.74-46.07 62.9-82.903 108.5-110.5 55.46-30.382 112.79-34.716 172-13 28.78 14.451 52.28 34.951 70.5 61.5 21.68 33.705 37.68 70.038 48 109 15.31 59.063 22.81 119.063 22.5 180a2258.89 2258.89 0 0 1-221 56c12.43 21.39 31.09 32.89 56 34.5 40.61 4.519 76.61-6.148 108-32a580.622 580.622 0 0 0 22-18.5c7.07 52.287 7.57 104.62 1.5 157a1023.81 1023.81 0 0 0-6 34c-.47 1.43-1.3 2.6-2.5 3.5-63.38 43.14-133.38 60.47-210 52-74.12-8.21-132.12-42.87-174-104-68.68-4.22-137.34-8.55-206-13a182.13 182.13 0 0 1-1.5-18.5c-52.67 111.58-139.5 154.08-260.5 127.5-48.44-14.63-86.94-42.8-115.5-84.5-52.08 41.78-110.91 55.28-176.5 40.5-42.57-11.03-77.74-33.53-105.5-67.5-29.75-39.185-49.08-83.185-58-132-12.42-73.272-11.09-146.272 4-219 14.92-67.164 47.09-124.331 96.5-171.5 63.76-52.493 134.43-64.159 212-35 19.9 8.937 37.9 20.604 54 35-10.76 33.881-18.6 68.381-23.5 103.5 62.39-91.247 146.89-121.414 253.5-90.5 33.42 12.458 61.25 32.625 83.5 60.5a292.467 292.467 0 0 1 31 49c.79-55.337 1.79-110.67 3-166 4.23-122.308 7.56-244.642 10-367 72.27-12.964 144.44-25.964 216.5-39zm-684 616c-3.35 1.17-6.68 2.67-10 4.5-11.45 10.06-18.95 22.56-22.5 37.5-10.07 41.733-9.74 83.4 1 125 4.5 17.514 13 32.681 25.5 45.5 5.76 5.045 12.42 8.212 20 9.5a1103.5 1103.5 0 0 1-3-63c-.46-49.76 6.54-98.427 21-146-8.49-9.23-19.15-13.563-32-13zm864 42c-5.5 13.151-7.16 26.818-5 41a188.8 188.8 0 0 0 13-4 348.642 348.642 0 0 0-4.5-29c-.32-3.166-1.49-5.833-3.5-8zm-609 58c-1.6 1.096-3.1 2.43-4.5 4-4.37 7.451-7.37 15.451-9 24-3.33 22.667-3.33 45.333 0 68 1.59 11.008 5.76 20.841 12.5 29.5 3.54 1.504 7.21 1.837 11 1 6.46-4.04 10.62-9.873 12.5-17.5 4.64-18.391 6.31-37.058 5-56-.15-15.888-3.81-30.888-11-45-3.71-6.19-9.21-8.856-16.5-8z" fill="#fdfdfc"/><path d="M583.5 49.5c1.699-.16 3.366.006 5 .5a15447.012 15447.012 0 0 0-135 475.5c-13.082-.636-25.915.031-38.5 2a2555.439 2555.439 0 0 0-25 251 4906.37 4906.37 0 0 0-32 161 2290.63 2290.63 0 0 0-189.5 17 20504.496 20504.496 0 0 0-57.5-501A5657.173 5657.173 0 0 0 46.5 61l1-2.5a3002.143 3002.143 0 0 0 124 12.5 405.65 405.65 0 0 0 60-1.5 6546.214 6546.214 0 0 0 34.5 413 23992.508 23992.508 0 0 1 15.5 125c7.015.078 14.015.411 21 1a4304.631 4304.631 0 0 0 75.5-410 3360.433 3360.433 0 0 0 14-127A1147.775 1147.775 0 0 0 535.5 59a717.557 717.557 0 0 0 48-9.5z" fill="#ffcc01"/><path d="M2773.5 1031.5c-1.42-.95-3.09-1.28-5-1-.32 6.85.01 13.52 1 20v26c-77.91 5.88-152.41 24.88-223.5 57-.99-22.01-2.16-44.01-3.5-66-31.98 23.72-67.64 39.22-107 46.5-37.44 5.11-72.77-1.22-106-19-36.23-23.96-58.73-57.46-67.5-100.5-21.92-135.641 30.92-228.141 158.5-277.5a551.025 551.025 0 0 1 72-20c-12.14-17.413-28.8-27.747-50-31-21.05-2.789-40.72 1.211-59 12a1010.876 1010.876 0 0 0-50 34c-.83.688-1.5.521-2-.5 21.07-69.986 31.74-141.486 32-214.5 42.86-18.039 87.53-26.039 134-24 57.57 5.201 105.4 29.367 143.5 72.5 31.55 37.752 55.39 80.085 71.5 127-.04 1.256.46 2.256 1.5 3 .5-29.665.67-59.331.5-89 3.95-165.001 7.95-330.001 12-495a38569.116 38569.116 0 0 1 222-38 9301.781 9301.781 0 0 0-17.5 726 13467.92 13467.92 0 0 0 10.5 262c-56.01-3.23-112.01-6.56-168-10zm-260-195c-7.95 18.825-11.12 38.492-9.5 59a40.782 40.782 0 0 0 2.5 11.5c2.14 8.474 7.31 13.974 15.5 16.5-.89-29.285-3.72-58.285-8.5-87z" fill="#fdfcfc"/><path d="M3956.5 69.5c1.48-.262 2.81.071 4 1a7757.968 7757.968 0 0 0-12.5 262 14728.398 14728.398 0 0 0-5 333c-27.31 67.069-37.65 136.736-31 209 2.78 47.114 14.61 91.781 35.5 134-2.83.33-5.67.67-8.5 1-54.83-3.43-109.67-6.76-164.5-10a11501.314 11501.314 0 0 1-4.5-445c3.43-151.345 7.26-302.679 11.5-454 58.47-10.21 116.81-20.544 175-31z" fill="#ffcc01"/><path d="M2920.5 78.5h5c-13 229.815-18.17 459.815-15.5 690a9728.34 9728.34 0 0 0 9.5 251c-59.65-3.87-119.32-7.54-179-11-4.56-139.291-6.4-278.625-5.5-418 3.47-160.354 7.64-320.688 12.5-481a15497.382 15497.382 0 0 0 173-31z" fill="#ffcc02"/><path d="M1439.5 131.5c1.87 2.135 2.54 4.802 2 8a7091.584 7091.584 0 0 0-14 372h-4c-3.19 54.838-6.52 109.672-10 164.5.33 3.833.67 7.667 1 11.5 3.56 1.24 7.06 2.573 10.5 4 .22 56.34.89 112.673 2 169 2.41 70.355 5.25 140.69 8.5 211-59.65-3.54-119.32-6.87-179-10-4.55-151.3-6.05-302.633-4.5-454 3.46-148.349 7.46-296.682 12-445a7419.896 7419.896 0 0 1 175.5-31z" fill="#ffcc01"/><path d="M1439.5 131.5c.71-.904 1.71-1.237 3-1 .31 3.213-.02 6.213-1 9 .54-3.198-.13-5.865-2-8z" fill="#ffeb9e"/><path d="M1681.5 210.5h7a9039.672 9039.672 0 0 0-9.5 157c-2.06 50.682-1.9 101.349.5 152a714.703 714.703 0 0 0 70-12 1033.08 1033.08 0 0 0 7 110.5 75.943 75.943 0 0 1-4 15.5c.33.333.67.667 1 1 1.33-1 2.67-2 4-3 1.59 9.666 3.26 19.332 5 29-1.38 2.205-3.38 3.705-6 4.5-24.18 9.793-49.18 16.293-75 19.5-.17 35.005.17 70.005 1 105a2302.917 2302.917 0 0 0-5 72c-.21 22.395 2.63 44.395 8.5 66 1.05 15.325 1.88 30.659 2.5 46a3467.47 3467.47 0 0 1-173 3c-2.71-96.331-5.38-192.665-8-289a384.093 384.093 0 0 1-72-15c1.8-46.302 4.3-92.635 7.5-139 2.48-1.666 5.31-2.499 8.5-2.5a748.99 748.99 0 0 1 42-1.5 5733.514 5733.514 0 0 1-7-280 16846.068 16846.068 0 0 0 195-39zM1061.5 322.5c58.41-5.368 104.58 15.632 138.5 63 13.67 20.342 25.01 42.009 34 65-1.2 70.332-2.7 140.665-4.5 211a2280.783 2280.783 0 0 1-189 43.5c10.61 43.205 38.28 67.205 83 72 38.76 4.586 74.26-3.914 106.5-25.5.43 35.168.93 70.334 1.5 105.5-.33 9.833-.67 19.667-1 29.5-58.8 37.947-123.14 52.781-193 44.5-89.015-13.022-149.515-61.522-181.5-145.5-18.707-56.904-25.374-115.237-20-175 7.033-91.218 42.866-168.718 107.5-232.5 33.535-30.686 72.87-49.186 118-55.5zm-1 196c-4.66 12.92-6.49 26.254-5.5 40 .41.457.91.791 1.5 1a78.936 78.936 0 0 1 12-3 167.204 167.204 0 0 0-6-36.5c-.34-1.03-1-1.53-2-1.5z" fill="#ffcc01"/><path d="M1886.5 415.5c64.95-3.265 118.78 19.402 161.5 68 30.23 37.764 53.23 79.764 69 126a873.591 873.591 0 0 1 39 170 1692.949 1692.949 0 0 1 13.5 200c-63.37 6.844-124.71 21.84-184 45 .26-25.371-.57-50.704-2.5-76-24.36 21.108-51.19 38.608-80.5 52.5-36.82 16.75-74.82 20.08-114 10-37.49-12.157-63.33-36.657-77.5-73.5-11.11-32.431-15.11-65.765-12-100 5.89-58.969 32.39-106.136 79.5-141.5 42.15-28.615 88.48-47.281 139-56a347.14 347.14 0 0 1 26-3.5c-16.53-49.794-51.19-72.961-104-69.5-18.87 2.456-36.21 8.956-52 19.5-.33-.333-.67-.667-1-1 11.58-49.992 17.58-100.659 18-152 26.69-9.469 54.02-15.469 82-18zm48 343c-8.21 19.131-11.38 39.131-9.5 60a46.59 46.59 0 0 0 5 17c2.84 5.01 7.01 8.344 12.5 10-.49-29.061-3.16-58.061-8-87zM3253.5 464.5c37.35-3.222 72.35 4.278 105 22.5a121.487 121.487 0 0 1 21 15 899.417 899.417 0 0 0-28.5 142.5c-17.7-15.267-38.2-22.1-61.5-20.5-19.03 3.363-34.19 12.863-45.5 28.5-10.83 15.795-18.16 33.129-22 52-7.38 40.389-7.05 80.723 1 121 4.9 23.055 14.23 44.055 28 63 20.74 24.251 47.08 35.251 79 33 6.46 36.37 18.29 70.87 35.5 103.5-37.59 33.08-81.59 47.42-132 43-55.11-5.46-98.61-30.63-130.5-75.5-28.55-42.984-45.22-90.317-50-142-8.07-65.449-4.07-130.115 12-194 15.19-58.923 45.02-108.756 89.5-149.5 28.77-24.05 61.77-38.217 99-42.5z" fill="#ffcc01"/><path d="M1056.5 477.5c19.48-1.006 32.64 7.66 39.5 26a140.614 140.614 0 0 1 8 32 373.15 373.15 0 0 1 2.5 49c-17.6 4.651-35.27 9.151-53 13.5-10.01 1.837-20.01 3.671-30 5.5a36.149 36.149 0 0 1-3.5-14c-.88-12.167-1.71-24.334-2.5-36.5-1.06-21.549 4.11-41.382 15.5-59.5 6.2-7.994 14.03-13.327 23.5-16zm4 41c-4.66 12.92-6.49 26.254-5.5 40 .41.457.91.791 1.5 1a78.936 78.936 0 0 1 12-3 167.204 167.204 0 0 0-6-36.5c-.34-1.03-1-1.53-2-1.5z" fill="#fdfdfc"/><path d="M2461.5 493.5c72.92-4.278 131.42 22.388 175.5 80 24.81 33.942 44.14 70.942 58 111a638.073 638.073 0 0 1 19 63c1.68 93.671 3.51 187.338 5.5 281 9.68.07 19.34.41 29 1v28c-63.07 6.57-124.07 21.57-183 45-.87-25.37-2.04-50.71-3.5-76-25.57 22.54-54.07 40.71-85.5 54.5-42.26 17.56-84.59 17.89-127 1-28.61-14.28-48.44-36.45-59.5-66.5-13.07-39.552-16.07-79.886-9-121 10.99-53.167 38.82-95.001 83.5-125.5 31.98-20.985 66.65-35.985 104-45a481.516 481.516 0 0 1 52-10 4.473 4.473 0 0 0 2-1.5c-18.53-50.283-54.7-72.616-108.5-67-16.87 2.566-32.37 8.566-46.5 18-.33-.833-.67-1.667-1-2.5a784.994 784.994 0 0 0 18-149.5c25.09-9.025 50.76-15.025 77-18zm52 343c-7.95 18.825-11.12 38.492-9.5 59a40.782 40.782 0 0 0 2.5 11.5c2.14 8.474 7.31 13.974 15.5 16.5-.89-29.285-3.72-58.285-8.5-87z" fill="#ffcc01"/><path d="M1042.5 578.5c-1.56-1.656-2.56-3.656-3-6a165.256 165.256 0 0 1 1.5-47c2.21-8.929 6.38-16.762 12.5-23.5 7.86-5.519 14.52-4.352 20 3.5 5.83 11.982 9.33 24.649 10.5 38 .83 8.353.67 16.687-.5 25a320.26 320.26 0 0 1-41 10zm18-60c-4.66 12.92-6.49 26.254-5.5 40 .41.457.91.791 1.5 1a78.936 78.936 0 0 1 12-3 167.204 167.204 0 0 0-6-36.5c-.34-1.03-1-1.53-2-1.5z" fill="#020438" opacity=".985"/><path d="M4158.5 506.5c49.93-5.308 91.77 10.359 125.5 47 20.27 24.527 35.94 51.86 47 82 14.25 39.898 23.91 80.898 29 123 2.92 25.277 5.09 50.61 6.5 76a2892.782 2892.782 0 0 1-178 44.5 790.756 790.756 0 0 1-52 9.5c11.53 43.777 39.86 67.944 85 72.5 41.58 4.4 79.08-5.767 112.5-30.5 4.87 46.312 2.87 92.31-6 138-.37.92-.87 1.75-1.5 2.5-60.87 38.84-127.2 53.18-199 43-77.27-12.63-132.77-54.13-166.5-124.5-17.69-40.461-27.36-82.794-29-127-5.74-75.302 8.26-146.635 42-214 24.65-45.989 58.49-83.822 101.5-113.5 25.75-15.417 53.42-24.917 83-28.5zm-1 196c-5.5 13.151-7.16 26.818-5 41a188.8 188.8 0 0 0 13-4 348.642 348.642 0 0 0-4.5-29c-.32-3.166-1.49-5.833-3.5-8zM3542.5 515.5c72.89-5.134 129.72 22.199 170.5 82 15.16 23.997 26.83 49.664 35 77 .82 89.017 2.16 178.017 4 267-13.01 52.554-39.17 97.05-78.5 133.5-29.5 24.4-63.5 37.73-102 40-98.15 3.03-165.65-40.8-202.5-131.5-17.4-47.083-26.4-95.749-27-146-3.17-59.492 5.5-117.158 26-173 19.26-48.573 49.76-88.406 91.5-119.5 25.43-16.309 53.1-26.142 83-29.5zm6 245c-1.6 1.096-3.1 2.43-4.5 4-4.37 7.451-7.37 15.451-9 24-3.33 22.667-3.33 45.333 0 68 1.59 11.008 5.76 20.841 12.5 29.5 3.54 1.504 7.21 1.837 11 1 6.46-4.04 10.62-9.873 12.5-17.5 4.64-18.391 6.31-37.058 5-56-.15-15.888-3.81-30.888-11-45-3.71-6.19-9.21-8.856-16.5-8z" fill="#ffcc01"/><path d="M591.5 531.5c1.149.291 1.816 1.124 2 2.5A2026.894 2026.894 0 0 0 575 830.5c.034 25.589 4.701 50.255 14 74 7.802 15.478 20.302 23.811 37.5 25a333.329 333.329 0 0 0 42-8v-371a918.887 918.887 0 0 1 157-6c-10.541 46.422-14.041 93.422-10.5 141a457.414 457.414 0 0 0 14 84c.5 106.666.667 213.333.5 320a8830.804 8830.804 0 0 0-142 45 26036.96 26036.96 0 0 0-9.5-85 998.979 998.979 0 0 1-32 43c-39.764 45.09-87.264 55.59-142.5 31.5-28.85-17.86-49.35-42.69-61.5-74.5-13.059-33.57-21.725-68.235-26-104a1144.747 1144.747 0 0 1-3-212 2642.452 2642.452 0 0 1 20.5-187c53.463 1.813 106.13-3.187 158-15z" fill="#ffcc02"/><path d="M650.5 531.5a34960.228 34960.228 0 0 0-3 373v-373z" fill="#7f7f9b"/><path d="M1039.5 572.5c.44 2.344 1.44 4.344 3 6-.71.904-1.71 1.237-3 1v-7z" fill="#767593"/><path d="M1838.5 587.5c23.93-2.409 45.26 3.758 64 18.5 3.67 4.333 7.33 8.667 11 13-33.76 6.612-66.43 16.945-98 31a217.661 217.661 0 0 0-30 16.5 102.066 102.066 0 0 1-4.5-21 460.587 460.587 0 0 1-3-28 365.84 365.84 0 0 1 34.5-21.5c8.49-3.775 17.16-6.609 26-8.5zm5 16c-17.67 3.497-33.67 10.83-48 22-.35 5.272.15 10.605 1.5 16a414.866 414.866 0 0 1 82.5-31.5c-11.45-5.075-23.45-7.242-36-6.5z" fill="#010238" opacity=".981"/><path d="M3289.5 644.5c22.04-.802 40.38 6.865 55 23-20.54 62.394-28.04 126.394-22.5 192 1.2 13.338 2.37 26.671 3.5 40-29.28 2.112-51.11-9.555-65.5-35-13.8-27.317-21.13-56.317-22-87-1.99-26.734.34-53.067 7-79 4.75-18.019 13.91-33.185 27.5-45.5 5.23-3.898 10.9-6.731 17-8.5zm4 16c-3.35 1.17-6.68 2.67-10 4.5-11.45 10.06-18.95 22.56-22.5 37.5-10.07 41.733-9.74 83.4 1 125 4.5 17.514 13 32.681 25.5 45.5 5.76 5.045 12.42 8.212 20 9.5a1103.5 1103.5 0 0 1-3-63c-.46-49.76 6.54-98.427 21-146-8.49-9.23-19.15-13.563-32-13z" fill="#010238" opacity=".977"/><path d="M2714.5 586.5c.17 29.669 0 59.335-.5 89-1.04-.744-1.54-1.744-1.5-3 .67-28.667 1.33-57.333 2-86z" fill="#807f9b"/><path d="M4152.5 661.5c18.16-1.842 30.99 5.491 38.5 22 6.14 15.75 9.8 32.084 11 49 .5 11.995.67 23.995.5 36a675.73 675.73 0 0 1-84 19 406.494 406.494 0 0 1-3.5-70c1.45-15.551 6.78-29.551 16-42 5.86-6.836 13.03-11.503 21.5-14zm5 41c-5.5 13.151-7.16 26.818-5 41a188.8 188.8 0 0 0 13-4 348.642 348.642 0 0 0-4.5-29c-.32-3.166-1.49-5.833-3.5-8z" fill="#fdfdfc"/><path d="M4154.5 682.5c6.52-1.377 11.68.623 15.5 6 5.01 9.033 8.01 18.699 9 29a198.18 198.18 0 0 1 2.5 35 437.8 437.8 0 0 1-45 10c-.24-9.334-.58-18.667-1-28-.81-14.463 2.03-28.13 8.5-41 3.03-4.195 6.53-7.861 10.5-11zm3 20c-5.5 13.151-7.16 26.818-5 41a188.8 188.8 0 0 0 13-4 348.642 348.642 0 0 0-4.5-29c-.32-3.166-1.49-5.833-3.5-8z" fill="#010238" opacity=".983"/><path d="M1227.5 684.5c1.98 13.627 2.65 27.627 2 42-39.97 30.689-83.97 38.189-132 22.5-12.94-6.106-22.27-15.606-28-28.5a2707.49 2707.49 0 0 0 158-36zm-15 20a3428.344 3428.344 0 0 1-112 27.5c39.77 15.259 77.1 10.759 112-13.5 1.31-4.818 1.31-9.485 0-14z" fill="#020338" opacity=".978"/><path d="M1753.5 687.5c.74-.131 1.41.036 2 .5-21.59 17.912-39.09 39.079-52.5 63.5-.5-16.33-.67-32.663-.5-49a264.52 264.52 0 0 0 51-15z" fill="#03073a"/><path d="M1227.5 684.5c.71-.904 1.71-1.237 3-1 .33 14.51 0 28.843-1 43 .65-14.373-.02-28.373-2-42z" fill="#686788"/><path d="M1947.5 708.5h17a811.08 811.08 0 0 1 15 162c-26.57 17.642-51.4 15.642-74.5-6-12.94-17.075-18.77-36.409-17.5-58-.29-23.958 4.88-46.624 15.5-68 10.43-16.612 25.27-26.612 44.5-30zm-13 50c-8.21 19.131-11.38 39.131-9.5 60a46.59 46.59 0 0 0 5 17c2.84 5.01 7.01 8.344 12.5 10-.49-29.061-3.16-58.061-8-87zM3543.5 723.5c20.18-2.224 36.68 4.443 49.5 20 10.9 16.352 17.23 34.352 19 54 2.57 24.485 1.57 48.818-3 73-3.06 17.709-11.23 32.543-24.5 44.5-34.04 18.8-59.87 10.967-77.5-23.5-10.8-30.101-14.47-61.101-11-93 1.25-17.653 5.91-34.32 14-50 7.64-13.153 18.81-21.486 33.5-25zm5 37c-1.6 1.096-3.1 2.43-4.5 4-4.37 7.451-7.37 15.451-9 24-3.33 22.667-3.33 45.333 0 68 1.59 11.008 5.76 20.841 12.5 29.5 3.54 1.504 7.21 1.837 11 1 6.46-4.04 10.62-9.873 12.5-17.5 4.64-18.391 6.31-37.058 5-56-.15-15.888-3.81-30.888-11-45-3.71-6.19-9.21-8.856-16.5-8z" fill="#fdfdfc"/><path d="M1943.5 730.5h4a832.11 832.11 0 0 1 12 128c-21.77 7.033-37.27.033-46.5-21-6.72-26.292-5.72-52.292 3-78 4.98-13.812 14.15-23.479 27.5-29zm-9 28c-8.21 19.131-11.38 39.131-9.5 60a46.59 46.59 0 0 0 5 17c2.84 5.01 7.01 8.344 12.5 10-.49-29.061-3.16-58.061-8-87z" fill="#020338" opacity=".979"/><path d="M3544.5 744.5c14.09-2.032 25.26 2.635 33.5 14 9.35 16.727 14.02 34.727 14 54 1.95 24.345-1.05 48.012-9 71-7.93 16.214-20.76 22.714-38.5 19.5-6.78-3.112-11.95-7.945-15.5-14.5-7.04-14.516-11.04-29.849-12-46-.67-14-.67-28 0-42 .65-16.602 5.32-31.936 14-46 3.8-4.463 8.3-7.797 13.5-10zm4 16c-1.6 1.096-3.1 2.43-4.5 4-4.37 7.451-7.37 15.451-9 24-3.33 22.667-3.33 45.333 0 68 1.59 11.008 5.76 20.841 12.5 29.5 3.54 1.504 7.21 1.837 11 1 6.46-4.04 10.62-9.873 12.5-17.5 4.64-18.391 6.31-37.058 5-56-.15-15.888-3.81-30.888-11-45-3.71-6.19-9.21-8.856-16.5-8z" fill="#010238" opacity=".976"/><path d="M2525.5 786.5c6.46-.597 12.63.07 18.5 2a796.365 796.365 0 0 1 14.5 160c-28.89 18.875-54.72 15.541-77.5-10-10.36-16.254-15.19-34.087-14.5-53.5-.34-24.129 4.82-46.962 15.5-68.5 10.32-16.171 24.82-26.171 43.5-30zm-12 50c-7.95 18.825-11.12 38.492-9.5 59a40.782 40.782 0 0 0 2.5 11.5c2.14 8.474 7.31 13.974 15.5 16.5-.89-29.285-3.72-58.285-8.5-87z" fill="#fefdfc"/><path d="M2521.5 808.5c1.79-.285 3.45.048 5 1a870.717 870.717 0 0 1 12 116 57.782 57.782 0 0 1-1 10.5c-18.27 7.282-32.44 2.449-42.5-14.5-6.02-11.612-8.52-23.945-7.5-37a153.717 153.717 0 0 1 7.5-47c4.9-13.394 13.73-23.061 26.5-29zm-8 28c-7.95 18.825-11.12 38.492-9.5 59a40.782 40.782 0 0 0 2.5 11.5c2.14 8.474 7.31 13.974 15.5 16.5-.89-29.285-3.72-58.285-8.5-87z" fill="#020438" opacity=".981"/><path d="M851.5 825.5l-2 279c-.167-93.67 0-187.334.5-281 .717.544 1.217 1.211 1.5 2z" fill="#676687"/><path d="M390.5 891.5l-2-5a42.47 42.47 0 0 1 1.5-5c.498 3.317.665 6.65.5 10z" fill="#9d9db2"/><path d="M1230.5 911.5c.06-.543.39-.876 1-1a57.192 57.192 0 0 1 1 15c-.67-4.667-1.33-9.333-2-14z" fill="#46446c"/><path d="M1709.5 985.5c.97 2.448 1.31 5.115 1 8h-8c2.11-.968 4.44-1.302 7-1v-7z" fill="#908fa8"/><path d="M1962.5 990.5c.06-.543.39-.876 1-1 .97 2.243 1.31 4.576 1 7-.67-2-1.33-4-2-6z" fill="#57567a"/><path d="M2773.5 1031.5h-4v19c-.99-6.48-1.32-13.15-1-20 1.91-.28 3.58.05 5 1z" fill="#9998af"/><path d="M4441.5 1631.5v5c-119.98 119.65-239.98 239.31-360 359-2.75-1.22-3.92-3.22-3.5-6 46.63-72.41 62.29-151.07 47-236-10.27-34.61-32.77-56.77-67.5-66.5-44.71-10.99-89.04-9.66-133 4-12.37 3.75-22.53 10.58-30.5 20.5-16.89 24.75-23.22 52.08-19 82 3.04 30.15 13.71 57.15 32 81 29.03 28.71 62.86 36.21 101.5 22.5 5.79-2.97 11.46-6.13 17-9.5 2.73 1.66 4.06 4.16 4 7.5-3.9 40.8-21.9 73.8-54 99-22.57 17.45-47.91 28.62-76 33.5h-36c-45.18-8.18-83.01-29.51-113.5-64-30.63-37.58-52.63-79.92-66-127-21.99-78.54-30.65-158.54-26-240 2.21-67.29 14.55-132.62 37-196 15.34-42.21 38.84-79.04 70.5-110.5 27.59-25.29 59.92-41.29 97-48 58.46-4.31 105.63 16.53 141.5 62.5 15.02 20.71 23.52 43.87 25.5 69.5.06 3.34-1.27 5.84-4 7.5-30.65-19.1-62.31-20.93-95-5.5-19.49 11.83-33.65 28.33-42.5 49.5-14.54 33.05-17.54 67.05-9 102 4.93 17.41 14.43 31.57 28.5 42.5 16.91 8.97 34.91 14.3 54 16 34.79 3.84 69.12 1.51 103-7 31.64-9.64 51.81-30.48 60.5-62.5 11.39-65.37 4.39-128.7-21-190-6.71-14.92-13.55-29.76-20.5-44.5.79-1.96 2.13-3.46 4-4.5a88171.113 88171.113 0 0 1 354 354z" fill="#010036" opacity=".995"/><path d="M3598.5 1271.5c4.1 0 5.6 2 4.5 6-44.26 64.06-74.6 134.39-91 211-36.45 181.22-5.95 350.22 91.5 507-.77 1.77-2.1 2.77-4 3-2.11-.93-4.11-2.1-6-3.5-116.17-117.5-232.33-235-348.5-352.5-2.18-2.84-4.35-5.68-6.5-8.5 1.15-1.82 2.32-3.66 3.5-5.5a60003.788 60003.788 0 0 1 356.5-357z" fill="#fe0000" opacity=".986"/><g fill="#010036"><path d="M237.5 1331.5c24.306-1.47 47.973 1.7 71 9.5 17.651 7.31 32.817 18.15 45.5 32.5 2.024-30.99 18.524-43.83 49.5-38.5 19.382 6.08 28.715 19.42 28 40a2474.42 2474.42 0 0 0-5 57 984.117 984.117 0 0 0 5 48c-.603 19.86-10.27 33.2-29 40-51.541 12.46-74.374-7.7-68.5-60.5-2.161-14.84-9.661-26.01-22.5-33.5a81.62 81.62 0 0 0-16-6c-17.138-2.46-34.138-1.8-51 2-17.476 5.81-30.309 16.97-38.5 33.5-9.348 23.41-14.348 47.74-15 73a382.318 382.318 0 0 0 3 71c9.886 63.55 46.386 89.05 109.5 76.5 20.588-6.66 31.421-20.83 32.5-42.5a452.45 452.45 0 0 1 2-30c4.338-24.67 19.004-36.34 44-35 34.935.93 53.601 18.93 56 54 2.069 54.04-20.431 94.2-67.5 120.5-31.29 15.61-64.457 23.11-99.5 22.5-57.48 2.19-106.147-17.15-146-58-24.141-28.29-39.14-60.96-45-98-10.436-58.89-5.77-116.56 14-173 26.779-63.59 74.613-98.59 143.5-105z" opacity=".991"/><path d="M1905.5 1331.5c21.37-1.26 42.37.9 63 6.5 21.2 6.51 36.7 19.68 46.5 39.5 8.38 24.13 2.88 44.3-16.5 60.5-17.55 9.94-34.88 9.61-52-1-14.74-12.22-18.08-27.05-10-44.5-9.6-1.9-18.93-1.07-28 2.5-2.83 1.5-5 3.67-6.5 6.5-5.05 10.81-6.71 22.14-5 34 .46 4.46 2.96 6.96 7.5 7.5 10.36.32 20.69.99 31 2 18.19 2.5 26.19 13 24 31.5.76 10.26-1.91 19.42-8 27.5a47.11 47.11 0 0 1-12 5 225.131 225.131 0 0 1-34 3c-4.24 1.24-6.74 4.08-7.5 8.5a2664.82 2664.82 0 0 0-1 145c.2 5.49 1.2 10.82 3 16 2.6 3.71 6.1 4.88 10.5 3.5 28.18-9.18 42.51 1.15 43 31 .63 15.07-4.71 27.4-16 37a36.232 36.232 0 0 1-11 4c-9.33.67-18.67.67-28 0-18.26-2.53-36.6-4.36-55-5.5-21.19 1.79-42.36 3.79-63.5 6-18.66.36-29.99-8.64-34-27-3.2-13.99-1.53-27.33 5-40 7.08-7.98 15.92-10.82 26.5-8.5a67.19 67.19 0 0 0 16 3c3.8-2.41 5.96-5.91 6.5-10.5 1.61-50.32 1.94-100.65 1-151 .18-7.82-3.65-11.65-11.5-11.5-39.42 2.9-53.26-14.6-41.5-52.5 4.68-9.26 12.18-14.42 22.5-15.5 6.67-.33 13.33-.67 20-1 4.87-.16 8.37-2.32 10.5-6.5-.15-53.52 25.69-87.02 77.5-100.5 9.09-1.84 18.09-3.34 27-4.5z" opacity=".989"/><path d="M577.5 1435.5c29.145-1.05 58.145.45 87 4.5 25.642 4.35 46.142 16.85 61.5 37.5 7.282 13.73 11.282 28.4 12 44l1 149c.093 5.57 1.926 10.4 5.5 14.5 1.637.6 3.303 1.1 5 1.5 26.715-5.96 41.382 4.71 44 32-1.908 22.75-13.908 37.25-36 43.5-30.172 8.17-57.839 3.17-83-15a62.046 62.046 0 0 1-12.5-18.5c-24.453 22.13-53.286 34.3-86.5 36.5-34.177 3.71-65.177-4.29-93-24-24.177-21.86-33.677-49.03-28.5-81.5 3.814-37.46 23.647-61.96 59.5-73.5a547.92 547.92 0 0 1 73-16c14.726-2.79 28.393-8.13 41-16 9.269-8.89 12.769-19.72 10.5-32.5-2.901-11.24-9.735-19.07-20.5-23.5-9.503-3.38-19.17-4.05-29-2-4.396.73-7.23 3.23-8.5 7.5 2.089 36.58-15.245 55.25-52 56-30.316-.66-48.983-15.66-56-45-1.975-21.55 5.525-39.05 22.5-52.5 11.773-8.72 24.773-15.05 39-19 14.629-3.59 29.295-6.09 44-7.5zm60 187c2.591 16.35.091 32.01-7.5 47-11.046 13.37-25.379 20.03-43 20-12 .12-22-4.22-30-13-6.735-10.28-5.902-19.78 2.5-28.5a54.564 54.564 0 0 1 16-8 3060.15 3060.15 0 0 0 48-11c5.118-1.4 9.785-3.56 14-6.5z" opacity=".99"/><path d="M1575.5 1435.5c28.76-2.3 56.76 1.2 84 10.5 43.05 18.53 68.55 51.03 76.5 97.5 2.38 16.59 3.05 33.26 2 50-1.29 14.95-9.45 22.79-24.5 23.5-56 .33-112 .67-168 1-3.11-.05-5.61 1.11-7.5 3.5-3.26 24.98 5.57 44.48 26.5 58.5 25.19 13.83 49.19 12.16 72-5 9.03-9.36 18.36-18.36 28-27 18.09-8.84 36.09-8.51 54 1 8.25 5.65 13.08 13.49 14.5 23.5 1.78 20.34-4.56 37.67-19 52-23.94 20.89-51.78 33.72-83.5 38.5-43.88 7.46-85.22.46-124-21-35.76-24.3-57.92-57.8-66.5-100.5-6.63-37.49-3.63-74.16 9-110 23.62-56.45 65.78-88.45 126.5-96zm15 68c22.65-1.11 38.48 8.56 47.5 29 2.27 5.5 1.77 10.66-1.5 15.5a25.77 25.77 0 0 1-8 2c-27.36.91-54.69.57-82-1-6.98-2.2-8.81-6.7-5.5-13.5 6.94-11.94 16.78-20.77 29.5-26.5 6.62-2.48 13.28-4.32 20-5.5zM2099.5 1435.5c41.56-4.46 79.89 4.37 115 26.5 30.86 22.51 50.02 52.67 57.5 90.5 7.17 39.47 5.17 78.47-6 117-18.77 52.43-55.6 83.59-110.5 93.5-36.09 5.6-71.43 2.6-106-9-37.32-15.32-63.15-41.82-77.5-79.5-11.76-36.93-14.76-74.59-9-113 13.68-76.57 59.18-118.57 136.5-126zm12 76c31.74-1.9 51.57 12.43 59.5 43 8.12 33.3 7.12 66.3-3 99-13.88 31.75-37.38 42.25-70.5 31.5-14.01-7.35-23.84-18.52-29.5-33.5a129.12 129.12 0 0 1-7-31c-1.36-19.48-.36-38.81 3-58 4.68-20.32 15.85-35.82 33.5-46.5 4.68-1.83 9.35-3.33 14-4.5z" opacity=".991"/><path d="M1021.5 1438.5c33.93-4.54 61.43 6.46 82.5 33 16.65 25.81 17.65 52.14 3 79-15.96 20.79-36.46 26.95-61.5 18.5-18.31-9.78-25.47-24.95-21.5-45.5 1.45-4.35 3.28-8.52 5.5-12.5-26.24-1.47-44.069 10.03-53.5 34.5-6.522 17.42-10.522 35.42-12 54-2.455 24.82-2.455 49.49 0 74 .313 4.99 2.479 8.82 6.5 11.5 4.87.25 9.537-.75 14-3 16.38-3.23 27.21 2.93 32.5 18.5 2 10.67 2 21.33 0 32-7.02 21.77-21.85 29.93-44.5 24.5a3743.303 3743.303 0 0 1-63.5-5.5 2926.362 2926.362 0 0 0-63.5 6c-11.691 1.57-20.857-2.43-27.5-12-7.986-15.3-9.653-31.3-5-48 5.908-13.21 16.075-18.37 30.5-15.5 4.891 1.86 9.891 2.86 15 3 4.423-3.34 6.923-7.84 7.5-13.5.667-47 .667-94 0-141 1.123-11.22-3.711-15.72-14.5-13.5-10.506 4.88-20.839 4.55-31-1-7.822-8.63-11.155-18.8-10-30.5-1.069-13.63 2.931-25.46 12-35.5a35.275 35.275 0 0 1 10-5 90.052 90.052 0 0 1 19 0c10.348 1.77 20.681 3.6 31 5.5a232.071 232.071 0 0 0 28-5.5c7.414-.89 14.747-.56 22 1 1.786.78 3.286 1.95 4.5 3.5a51.432 51.432 0 0 1 3 11l1 53c9.193-44 36.026-69 80.5-75z" opacity=".99"/><path d="M1339.5 1438.5c41.75-4.39 71.91 11.95 90.5 49 7.3 21.45 5.63 42.12-5 62-13.86 19.74-32.69 26.9-56.5 21.5-22.86-8.88-31.69-25.38-26.5-49.5 1.6-3.29 3.1-6.62 4.5-10-26.33-1.57-44.16 10.1-53.5 35-9.82 30.88-14.32 62.55-13.5 95-.86 13.63.64 26.97 4.5 40 2.25 3.63 5.42 4.79 9.5 3.5 28.4-9.12 42.74 1.38 43 31.5.46 13.12-3.54 24.62-12 34.5-6.88 5.4-14.71 7.57-23.5 6.5-24.88-1.44-49.71-3.44-74.5-6-21.19 1.86-42.35 3.86-63.5 6-16.08 1.29-26.75-5.71-32-21-5.44-15.8-4.44-31.14 3-46 7.08-7.98 15.92-10.82 26.5-8.5a67.19 67.19 0 0 0 16 3c3.31-2.78 5.47-6.28 6.5-10.5 1.62-46.31 1.95-92.64 1-139-.45-5.03-1.11-10.03-2-15-.47-1.43-1.3-2.6-2.5-3.5-6.64-1.04-12.97-.04-19 3-14.85 2.95-25.02-2.55-30.5-16.5-4.27-15.86-2.93-31.19 4-46 8.83-12.06 20.66-16.22 35.5-12.5 9.99 1.9 19.99 3.73 30 5.5 9.8-1.13 19.46-2.96 29-5.5 7.41-.89 14.75-.56 22 1 4.03 2.76 6.2 6.59 6.5 11.5.33 19 .67 38 1 57 9.4-44.57 36.57-69.91 81.5-76zM2900.5 1438.5c39.25-4.29 68.75 10.37 88.5 44 9.78 23.71 8.44 46.71-4 69-15.24 19.19-34.74 25.36-58.5 18.5-19.24-8.63-27.4-23.47-24.5-44.5 1.56-4.78 3.39-9.45 5.5-14-25.56-1.96-43.06 9.04-52.5 33a189.351 189.351 0 0 0-12 51c-2.7 24.98-3.03 49.98-1 75 .43 5.65 2.6 10.48 6.5 14.5 2 .67 4 .67 6 0 28.42-9.11 42.75 1.39 43 31.5.46 13.12-3.54 24.62-12 34.5-6.88 5.4-14.71 7.57-23.5 6.5-24.87-1.55-49.7-3.55-74.5-6-21.19 1.86-42.35 3.86-63.5 6-16.08 1.29-26.75-5.71-32-21-5.41-15.79-4.41-31.12 3-46 7.08-7.98 15.92-10.82 26.5-8.5a67.19 67.19 0 0 0 16 3c3.81-2.48 5.98-5.98 6.5-10.5 1.63-46.64 1.96-93.31 1-140-.5-4.69-1.17-9.36-2-14-.47-1.43-1.3-2.6-2.5-3.5-6.64-1.04-12.97-.04-19 3-17.01 3.08-27.51-3.75-31.5-20.5-3.05-14.58-1.38-28.58 5-42 8.83-12.06 20.66-16.22 35.5-12.5 9.99 1.9 19.99 3.73 30 5.5 9.8-1.13 19.46-2.96 29-5.5 7.41-.89 14.75-.56 22 1 3.78 2.46 5.95 5.96 6.5 10.5 1.15 18.31 1.81 36.65 2 55 9.92-43.09 36.75-67.42 80.5-73z" opacity=".989"/><path d="M2301.5 1444.5c21.62.44 43.12 2.44 64.5 6 13.85-1.94 27.69-3.94 41.5-6 9.4-1.23 14.9 2.77 16.5 12 .03 64.02.7 128.02 2 192 4.43 21.6 17.6 33.6 39.5 36 23.73-1.91 39.9-13.91 48.5-36 4.07-10.63 6.41-21.63 7-33 .67-24.67.67-49.33 0-74a63.83 63.83 0 0 0-4-22c-2.99-2.76-6.49-3.6-10.5-2.5-27.7 8.67-41.7-1.67-42-31 1.63-33.28 18.96-46.95 52-41 12.46 2.12 24.96 3.95 37.5 5.5 14.13-2.33 28.3-4.33 42.5-6 10.8-1.7 17.3 2.63 19.5 13 .33 67.67.67 135.33 1 203 .06 8.05 1.73 15.71 5 23 2.92 1.89 6.08 2.39 9.5 1.5 10.52-4.94 20.85-4.6 31 1 4.84 4.51 8.01 10.01 9.5 16.5 3.87 16.79.87 32.13-9 46-4.59 4.54-10.09 7.38-16.5 8.5-7 .67-14 .67-21 0a244.584 244.584 0 0 0-30.5-5.5c-9.63 1.12-19.13 2.95-28.5 5.5-7.55 1.13-14.88.46-22-2-4.23-3.64-7.07-8.14-8.5-13.5-.33-9-.67-18-1-27-26.73 34.36-62.07 51.36-106 51-30.88 1.55-56.88-8.79-78-31-10.92-13.41-17.59-28.75-20-46-1.28-51.31-1.95-102.65-2-154 .15-6.2-1.68-11.7-5.5-16.5-1.53-.92-3.2-1.42-5-1.5-29.25 10.55-44.59.38-46-30.5-.21-13.73 4.46-25.4 14-35 4.79-2.87 9.79-5.03 15-6.5z" opacity=".99"/></g><path d="M1081.5 1883.5c10.4.08 20.4 2.08 30 6 1.17 12.32 1.33 24.65.5 37-10.99-11.99-24.16-15.16-39.5-9.5-13.13 7.75-18.63 19.25-16.5 34.5 6.73 22.12 21.23 29.62 43.5 22.5 4.62-2.56 8.78-5.73 12.5-9.5.67 12.33.67 24.67 0 37-32.38 11.53-59.05 3.87-80-23-9.75-18.7-11.08-38.04-4-58 11.23-21.87 29.06-34.2 53.5-37z" opacity=".961"/><path d="M1366.5 1883.5c27.01-3.17 48.85 5.83 65.5 27 8.63 13.8 11.63 28.8 9 45-5.19 26.86-21.03 43.69-47.5 50.5-27.44 5.85-50.28-1.65-68.5-22.5-14.42-22.07-16.08-45.07-5-69 10.93-17.21 26.43-27.55 46.5-31zm4 30c12.99-1.62 23.82 2.38 32.5 12 8.55 12.94 8.55 25.94 0 39-12.55 14.1-27.05 16.6-43.5 7.5-14.08-11.49-17.58-25.66-10.5-42.5 5.36-7.91 12.52-13.25 21.5-16z" opacity=".962"/><path d="M2092.5 1883.5a101.4 101.4 0 0 1 32 6.5c2.71 1.02 5.04 2.52 7 4.5-3.67 8.01-7.84 15.68-12.5 23-8.65-7.18-18.15-8.68-28.5-4.5-5.38 5.32-4.72 9.98 2 14 10.72 3.02 21.05 7.02 31 12 11.23 8.36 15.4 19.52 12.5 33.5-3.13 19.13-14.29 30.29-33.5 33.5-19.57 3.02-37.24-1.31-53-13 4.54-8.25 9.21-16.41 14-24.5 7.4 6.7 16.06 10.7 26 12 7.79-.05 12.79-3.71 15-11-1.38-4.22-4.05-7.39-8-9.5a124.453 124.453 0 0 1-33-13c-4.79-4.07-7.62-9.24-8.5-15.5-2.88-28.26 9.62-44.26 37.5-48z" opacity=".954"/><path d="M2894.5 1883.5c26.68-3.06 48.51 5.6 65.5 26 13.65 23.06 13.98 46.4 1 70-16.17 22.16-38 31.32-65.5 27.5-27.96-4.29-45.46-20.13-52.5-47.5-5.44-40.83 11.73-66.16 51.5-76zm5 30c20.5-1.64 33.33 7.36 38.5 27 .56 19.05-8.27 31.22-26.5 36.5-21.02 1.07-33.52-8.77-37.5-29.5.29-17.46 8.79-28.79 25.5-34z" opacity=".963"/><path d="M110.5 1887.5h67v26h-36v18h34v27h-34v19h36v26h-67v-116z" opacity=".968"/><path d="M264.5 1887.5h31v90h36v26h-67v-116z" opacity=".973"/><path d="M531.5 1887.5c21.045-.44 42.045.06 63 1.5 20.136 7.41 28.636 21.91 25.5 43.5-1.262 16.92-10.095 27.42-26.5 31.5a200.673 200.673 0 0 1-31 1.5v38h-31v-116zm31 25c7.204-.56 14.204.28 21 2.5 3.168 3.17 4.502 7.01 4 11.5.656 4.85-1.011 8.69-5 11.5a55.93 55.93 0 0 1-20 2.5v-28z" opacity=".972"/><path d="M701.5 1887.5c20.712-.44 41.379.06 62 1.5 20.18 7.51 28.014 22.01 23.5 43.5-3.429 12.43-11.263 20.6-23.5 24.5 12 15.33 24 30.67 36 46-13 .67-26 .67-39 0a2834 2834 0 0 1-27.5-42.5 924.19 924.19 0 0 0-.5 43h-31v-116zm31 23c7.521-.17 14.355 1.83 20.5 6 5.341 10.48 2.508 17.64-8.5 21.5-3.986.5-7.986.67-12 .5v-28z" opacity=".967"/><path d="M875.5 1887.5h67v26h-36v18h34v27h-34v19h36v26h-67v-116z" opacity=".968"/><path d="M1199.5 1887.5h31v116h-31v-116z" opacity=".97"/><path d="M1658.5 1887.5c10.58-.32 21.08.01 31.5 1 7.33 19.33 14.67 38.67 22 58 8.53-19.07 16.53-38.41 24-58 10.44-1.32 20.94-1.32 31.5 0 5.96 38.2 11.96 76.37 18 114.5-10.66.5-21.33.67-32 .5a901.981 901.981 0 0 0-8-63 2346.08 2346.08 0 0 0-26.5 62c-4.67 1.33-9.33 1.33-14 0-8.33-21-16.67-42-25-63a777.15 777.15 0 0 0-9.5 64c-10.67.17-21.34 0-32-.5 6.93-38.42 13.6-76.92 20-115.5zM1899.5 1887.5c12.09-.63 23.92.03 35.5 2 14.07 37.71 28.24 75.37 42.5 113a181.883 181.883 0 0 1-33 .5c-2.83-6.33-5.16-12.83-7-19.5-13.67-.17-27.34 0-41 .5-2.67 6.33-5.33 12.67-8 19-11.02.83-22.02.67-33-.5a5990.32 5990.32 0 0 0 44-115zm17 38c4.07 11.05 8.07 22.21 12 33.5-7.66.5-15.33.67-23 .5 3.66-11.32 7.33-22.66 11-34z" opacity=".966"/><path d="M2340.5 1887.5c18.67-.17 37.34 0 56 .5 15.26 3.77 22.93 13.61 23 29.5.34 10.15-3.66 17.99-12 23.5 15.41 3.61 23.08 13.44 23 29.5-1.69 19.53-12.36 30.36-32 32.5-19.33.5-38.66.67-58 .5v-116zm31 23a57.7 57.7 0 0 1 16 3.5c4.28 5.68 3.95 11.01-1 16-4.78 2.03-9.78 2.87-15 2.5v-22zm0 45c7.16-.41 14.16.42 21 2.5 6.3 4.17 7.64 9.67 4 16.5-1.53 1.36-3.2 2.53-5 3.5a76.147 76.147 0 0 1-20 1.5v-24z" opacity=".968"/><path d="M2547.5 1887.5c12.09-.63 23.92.03 35.5 2 14.07 37.71 28.24 75.37 42.5 113a181.883 181.883 0 0 1-33 .5c-2.83-6.33-5.16-12.83-7-19.5-13.67-.17-27.34 0-41 .5-2.67 6.33-5.33 12.67-8 19-11.02.83-22.02.67-33-.5a5990.32 5990.32 0 0 0 44-115zm17 38c4.07 11.05 8.07 22.21 12 33.5-7.66.5-15.33.67-23 .5 3.66-11.32 7.33-22.66 11-34z" opacity=".966"/><path d="M2729.5 1887.5h31c.17 28 0 56-.5 84-2.14 23.14-14.8 34.8-38 35-13.7.43-23.86-5.23-30.5-17 5.25-6.76 11.08-13.09 17.5-19 2.85 5.01 7.01 8.35 12.5 10 3.59-.43 5.76-2.43 6.5-6 1.45-28.96 1.95-57.96 1.5-87z" opacity=".962"/></svg>