<svg height="993" viewBox="0 0 439.032 174.406" width="2500" xmlns="http://www.w3.org/2000/svg"><g stroke-width="12.867"><path d="m0 114.26v-114.26h439.031v114.26z" fill="#f00"/><path d="m0 174.406v-54.198h439.031v54.198z" fill="#005"/><path d="m0 174.406v-54.198h439.032v54.198z" fill="none"/></g><g fill="#fff" fill-rule="evenodd"><path d="m190.95 133.082c1.326 0 2.1.884 2.1 2.1 0 1.104-.221 2.209-.221 3.424 0 .885.22 1.769.22 2.652 0 1.548-1.436 2.321-2.762 2.321-1.768 0-2.652-.884-2.541-2.652 0-.994.11-1.436-.553-2.21-.773-.773-1.878-.994-2.872-.994-4.2 0-4.641 4.088-4.641 7.403 0 3.424.442 7.183 4.75 7.183.995 0 1.99-.113 2.653-.775.773-.772.773-1.434.773-2.431 0-.772 0-1.435.442-2.1.442-.662 1.216-.883 2.1-.883 2.099 0 3.093 1.548 3.093 3.536 0 5.083-4.75 7.402-9.281 7.402-2.984 0-5.967-.884-8.067-3.202-1.988-2.1-2.872-5.747-2.872-8.73 0-2.652.552-5.967 1.989-8.287 1.768-2.542 4.752-3.978 7.845-3.978 2.32 0 4.199.773 5.745 2.43-.11-1.325.774-2.21 2.1-2.21zm14.364 15.912c-.994.993-4.86.552-4.86 2.32 0 1.104.993 1.548 1.877 1.548 1.989 0 2.983-1.216 2.983-3.206zm-3.425-5.636c0 1.547-1.436 2.21-2.873 2.21-1.547 0-2.983-1.215-2.983-2.873 0-3.425 4.641-3.978 7.182-3.978 1.768 0 3.978.111 5.414.995 1.99 1.105 2.21 3.094 2.21 5.083v6.298c0 .44-.11 1.547.552 1.547h.774c1.105 0 1.657.884 1.657 1.878 0 1.878-1.878 2.54-3.425 2.54s-3.204-.55-3.756-2.1c-1.658 1.438-3.647 2.1-5.746 2.1-2.984 0-5.967-1.656-5.967-4.971 0-7.956 10.386-3.869 10.386-8.288 0-1.214-1.215-1.877-2.32-1.877-.552 0-1.105.11-1.105.773zm16.353 2.1c0-.443.11-2.321-.552-2.321-.332 0-.663.221-1.105.221-1.105 0-1.547-.884-1.547-1.879 0-1.215.552-2.32 1.658-2.32.994.11 1.656.332 2.32.332.773 0 1.436-.221 2.21-.331.994 0 1.105.662 1.105 1.436v2.541c.552-2.762 2.54-4.309 5.414-4.309 2.32 0 4.42 1.768 4.42 4.198 0 1.658-1.105 3.315-2.873 3.315-1.327 0-2.321-.884-2.321-2.21 0-.442.111-.884.332-1.325-3.757-.221-3.868 4.862-3.868 7.512 0 .444-.11 2.322.664 2.322.33 0 .662-.222 1.104-.222 1.106 0 1.437.884 1.437 1.878 0 1.328-.553 2.322-1.658 2.322-1.768 0-3.093-.332-4.53-.332-1.215 0-2.54.332-3.756.332-1.106 0-1.658-.994-1.658-2.322 0-.993.442-1.878 1.547-1.878.442 0 .773.222 1.105.222.662 0 .552-1.878.552-2.322zm18.343 0c0-.443.11-2.321-.553-2.321-.442 0-.774.221-1.105.221-1.105 0-1.547-.884-1.547-1.879 0-1.215.553-2.32 1.658-2.32.994.11 1.657.332 2.32.332.773 0 1.437-.221 2.21-.331.994 0 .994.662.994 1.436v2.541c.663-2.762 2.652-4.309 5.525-4.309 2.32 0 4.42 1.768 4.42 4.198 0 1.658-1.105 3.315-2.873 3.315-1.326 0-2.43-.884-2.43-2.21 0-.442.22-.884.441-1.325-3.757-.221-3.867 4.862-3.867 7.512 0 .444-.111 2.322.662 2.322.332 0 .664-.222 1.106-.222 1.105 0 1.436.884 1.436 1.878 0 1.328-.552 2.322-1.657 2.322-1.768 0-3.095-.332-4.53-.332-1.216 0-2.541.332-3.757.332-1.105 0-1.658-.994-1.658-2.322 0-.993.442-1.878 1.547-1.878.331 0 .663.222 1.105.222.663 0 .553-1.878.553-2.322zm24.529-.332c.553 0 1.105.11 1.105-.553 0-.553-.332-1.105-.663-1.436-.552-.442-1.105-.663-1.768-.663-.994 0-1.657.22-2.32.884-.33.331-.884.884-.884 1.326 0 .552 1.105.442 1.436.442zm-3.094 3.646c-.662 0-1.547-.222-1.547.775 0 1.877 1.547 3.315 3.426 3.315 2.873 0 2.651-2.653 5.305-2.653 1.214 0 2.208.772 2.208 2.1 0 1.437-1.104 2.65-2.208 3.424-1.658.994-3.537 1.325-5.416 1.325-5.414 0-8.84-3.646-8.84-9.058 0-5.305 3.316-9.283 8.73-9.283 1.989 0 4.199.442 5.635 1.768 1.657 1.437 2.432 3.757 2.432 5.856 0 1.99-.222 2.43-2.21 2.43zm18.674 1.546c0 .444-.11 2.322.663 2.322.332 0 .664-.222 1.105-.222 1.105 0 1.437.884 1.437 1.878 0 1.328-.553 2.322-1.99 2.322-1.436 0-2.762-.332-4.088-.332s-2.54.332-3.647.332c-1.325 0-1.877-.994-1.877-2.322 0-.993.33-1.878 1.436-1.878.441 0 .773.222 1.105.222.773 0 .663-1.878.663-2.322v-6.076c0-1.216 0-1.326-1.105-1.326-1.326 0-2.1-.331-2.1-1.768s.553-1.989 1.878-1.989c.996 0 1.327.11 1.327-1.105.11-3.646 3.315-5.193 6.63-5.193 1.105 0 2.43.22 3.425.773 1.105.553 1.989 1.658 1.989 2.984 0 1.436-.994 2.541-2.541 2.541-1.105 0-2.21-.773-2.21-1.99 0-.33.11-.551.22-.883-.22-.11-.33-.11-.662-.11-1.216 0-1.658.774-1.658 1.878 0 1.105.11 1.105 1.215 1.105 1.327 0 2.322.11 2.322 1.768 0 1.547-.664 1.989-2.1 1.989-1.327 0-1.437-.11-1.437 1.326z"/><path d="m289.622 142.916c-2.762 0-3.425 2.762-3.425 4.971 0 1.99.663 4.975 3.093 4.975 1.216 0 2.21-.331 2.763-1.438.552-1.106.774-2.43.774-3.537 0-2.209-.553-4.971-3.205-4.971zm8.618 4.752c0 5.525-2.761 9.39-8.618 9.39-5.746 0-8.839-3.534-8.839-9.17 0-5.745 3.093-9.17 8.84-9.17 5.414 0 8.617 3.535 8.617 8.95zm2.431-2.21c0-.443.11-2.321-.662-2.321-.331 0-.663.221-1.105.221-1.105 0-1.437-.884-1.437-1.879 0-1.215.553-2.32 3.095-2.32.662.11 1.325.332 2.098.332.775 0 1.547-.221 2.322-.331 1.105 0 .882.994.882 1.877v7.956c0 .663 0 1.878.442 2.54.332.554 1.107.997 1.88.997.994 0 1.877-.443 2.429-1.327.664-1.103.775-2.21.775-3.425v-2.32c0-.443.11-2.321-.664-2.321-.33 0-.663.221-1.104.221-1.105 0-1.437-.884-1.437-1.879 0-1.215.552-2.32 2.874-2.32.663.11 1.325.332 2.098.332s1.547-.221 2.32-.331c1.216 0 1.106.773 1.106 1.657v9.501c0 .444-.11 2.322.552 2.322.333 0 .664-.222 1.104-.222 1.107 0 1.548.884 1.548 1.878 0 1.328-.663 2.322-1.988 2.322-.884 0-1.657-.332-2.431-.332-.664 0-1.438.332-2.1.332-1.216 0-1.216-1.106-1.216-1.769v-.663c-1.215 1.878-3.646 2.872-5.854 2.872-1.77 0-3.758-.662-4.753-2.1-.883-1.434-.774-3.424-.774-5.08zm23.646 0c0-.443.111-2.321-.663-2.321-.331 0-.662.221-1.104.221-1.104 0-1.437-.884-1.437-1.879 0-1.215.552-2.32 1.657-2.32.996.11 1.658.332 2.322.332.774 0 1.435-.221 2.209-.331.995 0 .995.662.995 1.436v2.541c.663-2.762 2.65-4.309 5.524-4.309 2.32 0 4.309 1.768 4.309 4.198 0 1.658-.994 3.315-2.872 3.315-1.216 0-2.321-.884-2.321-2.21 0-.442.22-.884.443-1.325-3.757-.221-3.869 4.862-3.869 7.512 0 .444-.11 2.322.664 2.322.331 0 .663-.222 1.105-.222 1.104 0 1.437.884 1.437 1.878 0 1.328-.553 2.322-1.658 2.322-1.88 0-3.205-.332-4.531-.332-1.215 0-2.542.332-3.757.332-1.105 0-1.657-.994-1.657-2.322 0-.993.333-1.878 1.437-1.878.442 0 .773.222 1.104.222.774 0 .663-1.878.663-2.322zm97.9 2.098c0 .331-.333.662-.333.662l-18.231 18.124c-.664.771-1.104.33-.883-.222.441-.885 1.103-1.878 1.767-4.088.993-3.205.993-5.858.552-7.405-.331-1.434-2.1-4.418-5.967-4.418-4.972 0-6.408 4.53-6.298 6.187.112 1.106 0 2.762 1.767 4.309 1.326 1.106 2.541.775 2.874.665.331 0 .995-.444.995.662 0 1.216-1.105 2.763-1.769 3.534-.774.666-3.205 2.544-6.739 2.544-2.1 0-4.64-.884-6.408-2.984-1.328-1.547-2.212-3.315-2.986-5.856-1.546-4.643-1.767-8.067-1.767-11.714 0-3.314.333-6.96 1.767-11.6.664-2.432 1.88-4.643 2.986-6.078 1.657-2.1 4.308-2.984 6.408-2.984 3.534 0 5.965 1.878 6.74 2.652.663.663 1.768 2.21 1.768 3.536 0 .994-.664.552-.995.552-.333-.11-1.548-.441-2.874.663-1.767 1.547-1.655 3.315-1.767 4.31-.11 1.768 1.326 6.188 6.298 6.188 3.867 0 5.636-2.873 5.967-4.42.44-1.547.44-4.2-.552-7.293-.664-2.32-1.326-3.204-1.767-4.199-.22-.442.219-.994.883-.22l18.23 18.12s.333.332.333.773zm-66.96-.22c0 .442.441.773.441.773l19.336 18.564c.554.44.664 0 .554-.332-.112-.221-.223-.33-.772-1.215-5.305-7.624-5.195-17.79-5.195-17.79s-.11-10.166 5.195-17.68c.55-.884.66-.994.772-1.325.11-.332 0-.773-.554-.332l-19.336 18.563s-.441.333-.441.774z"/></g><path d="m25.201 73.036 5.537 13.338 4.864-13.338h7.367l-10.882 24.124h-3.467l-10.834-24.124zm72.769 0v23.642h-6.645v-2.166h-.096q-2.263 2.937-6.404 2.937-4.96 0-7.945-3.804-2.937-3.804-2.937-8.908 0-5.008 2.937-8.715 2.985-3.756 7.849-3.756 4.044 0 6.596 2.985v-2.215zm-15.649 16.42q1.59 2.022 4.045 2.022 2.456 0 4.045-2.022 1.589-2.07 1.589-4.623 0-2.552-1.59-4.574-1.588-2.023-4.044-2.023-2.456 0-4.045 2.023-1.54 2.022-1.54 4.574t1.54 4.623zm67.625-15.698v6.5q-2.31-2.31-4.96-2.31-2.696 0-4.333 2.118-1.637 2.119-1.637 4.912 0 2.889 1.685 4.863 1.734 1.926 4.527 1.926 2.696 0 4.718-2.263v6.5q-2.6 1.445-5.826 1.445-5.152 0-8.57-3.66-3.371-3.66-3.371-8.86 0-5.344 3.467-9.004 3.515-3.66 8.811-3.66 3.082 0 5.49 1.493zm57.631-.722v23.642h-6.645v-2.166h-.097q-2.263 2.937-6.404 2.937-4.96 0-7.945-3.804-2.937-3.804-2.937-8.908 0-5.008 2.937-8.715 2.986-3.756 7.85-3.756 4.044 0 6.596 2.985v-2.215zm-15.65 16.42q1.59 2.022 4.045 2.022 2.456 0 4.045-2.022 1.589-2.07 1.589-4.623 0-2.552-1.589-4.574-1.589-2.023-4.045-2.023-2.455 0-4.044 2.023-1.541 2.022-1.541 4.574t1.54 4.623zm58.285-16.42v2.167h.096q1.926-2.937 6.163-2.937 8.186 0 8.186 9.967v14.445h-6.741v-12.518-1.83q0-.481-.193-1.589-.192-1.155-.53-1.637-.336-.53-1.107-.963-.722-.481-1.83-.481-1.396 0-2.31.674-.868.674-1.205 2.022-.337 1.3-.433 2.215-.096.915-.096 2.408v11.7h-6.742v-23.643zm65.295 1.685-2.89 3.9q-1.733-1.636-3.562-1.636-.867 0-1.541.626-.674.577-.674 1.396 0 .481.24.915.241.385.77.722l1.06.53q.482.192 1.348.53.915.336 1.445.577 2.215.963 3.515 2.504 1.348 1.493 1.348 4.286 0 3.803-2.696 6.115-2.649 2.263-6.5 2.263-5.057 0-8.33-3.949l3.08-3.996q2.457 2.745 5.009 2.745 1.155 0 1.926-.675.77-.722.77-1.877 0-.578-.24-1.012-.193-.481-.771-.866-.578-.386-1.011-.578-.385-.193-1.349-.578-.963-.385-1.348-.53-2.215-.963-3.467-2.311-1.252-1.348-1.252-3.9 0-3.323 2.07-5.49 2.12-2.166 5.442-2.166 4.815 0 7.608 2.455zm56.777 11.219h-15.553q0 2.6 1.108 4.479 1.155 1.878 3.563 1.878 2.937 0 4.526-3.226l6.212 1.01q-1.204 3.516-4.093 5.442-2.89 1.926-6.645 1.926-5.393 0-8.62-3.419-3.177-3.467-3.177-8.956 0-5.634 2.937-9.197 2.985-3.611 8.523-3.611 5.537 0 8.378 3.611 2.841 3.563 2.841 9.245zm-15.36-4.188h9.004q-.289-1.975-1.493-3.371-1.155-1.396-2.985-1.396-1.926 0-3.082 1.396-1.155 1.348-1.444 3.37zm64.616-7.031-2.89 3.9q-1.733-1.636-3.563-1.636-.866 0-1.54.626-.675.577-.675 1.396 0 .481.241.915.24.385.77.722l1.06.53q.481.192 1.348.53.915.336 1.445.577 2.215.963 3.515 2.504 1.348 1.493 1.348 4.286 0 3.803-2.696 6.115-2.649 2.263-6.5 2.263-5.057 0-8.331-3.949l3.082-3.996q2.455 2.745 5.007 2.745 1.156 0 1.926-.675.77-.722.77-1.877 0-.578-.24-1.012-.193-.481-.77-.866-.578-.386-1.012-.578-.385-.193-1.348-.578-.963-.385-1.348-.53-2.215-.963-3.467-2.311-1.252-1.348-1.252-3.9 0-3.323 2.07-5.49 2.12-2.166 5.442-2.166 4.815 0 7.608 2.455z" fill="#ff0" stroke-width="2.432"/></svg>