<svg xmlns="http://www.w3.org/2000/svg" width="2500" height="431" viewBox="0 -2.3 256.177 48.107"><g fill="none" stroke-width="44.308" stroke-miterlimit="10" font-family="none" font-weight="none" font-size="none" text-anchor="none" style="mix-blend-mode:normal"><path d="M236.92 2.06l-.182.225s6.21 16.928-4.236 17.225c-10.028.288-7.947-14.775-.564-12.146C235.162 8.516 229.73-2.3 221.486.45c-13.96 4.652-11.783 40.244-.492 43.21 1.75.459 8.72 2.147 11.678-5.93.1-1.18-.945-.71-.945-.71-1.334.5-2.328.283-2.666.18-5.77-1.737-4.896-13.068 3.583-12.322 10.337.914 4.094 16.382 4.094 16.382l.044.186.216.109 18.749-19.39c.195-.025.43-.929-.072-1.146L237.141 2.273l-.22-.214" fill="#244b76"/><path d="M207.526 41.089c.185.25.281.36.266.31l.046.44-.43-.285-18.327-18.966c-.852-.498-.04-1.14-.068-1.14l18.646-19.42.396-.037-.077.282c-12.608 18.854-2.289 36.267-.452 38.816" fill="#ff0004"/><path d="M30.88 11.233c-2.611 0-7.49.583-7.49 4.123 0 1.753 1.479 2.958 3.157 2.958 1.45 0 2.967-.719 2.967-2.305v-.617c0-.681.54-.793 1.125-.793 1.14 0 2.34.625 2.34 1.932 0 4.534-10.66.305-10.66 8.456 0 3.515 2.995 5.158 6.12 5.158 2.168 0 4.27-.655 5.884-2.2.585 1.616 2.335 2.2 3.915 2.2 1.62 0 3.552-.725 3.552-2.645 0-1-.632-1.928-1.729-1.928-.272 0-.544.036-.816.036-.69 0-.59-1.138-.59-1.587v-6.465c0-2.13-.176-4.09-2.205-5.29-1.511-.863-3.845-1.033-5.57-1.033zm2.1 10.597v.753c0 2.028-.994 3.23-3.026 3.23-.997 0-1.96-.412-1.96-1.62 0-1.821 3.992-1.308 4.986-2.363zM55.98 11.405c-2.89 0-4.982 1.576-5.598 4.4v-2.577c0-.795-.074-1.483-1.071-1.483-.784.037-1.51.34-2.268.34-.688 0-1.377-.303-2.377-.34-1.124 0-1.715 1.067-1.715 2.377 0 1.031.379 1.96 1.515 1.96.452 0 .786-.245 1.13-.245.755 0 .621 1.964.621 2.413v4.945c0 .449.134 2.413-.621 2.413-.344 0-.678-.24-1.13-.24-1.136 0-1.515.924-1.515 1.955 0 1.31.59 2.377 1.715 2.377 1.238-.04 2.547-.345 3.86-.345 1.406 0 2.784.305 4.636.345 1.134 0 1.724-1.067 1.724-2.377 0-1.031-.378-1.955-1.515-1.955-.446 0-.793.24-1.134.24-.756 0-.617-1.964-.617-2.413 0-2.744.099-7.97 3.951-7.698-.207.408-.408.858-.408 1.338 0 1.375 1.093 2.236 2.4 2.236 1.86 0 2.957-1.616 2.957-3.366 0-2.474-2.131-4.3-4.54-4.3zM74.551 11.405c-2.892 0-4.989 1.576-5.602 4.4v-2.577c0-.795-.076-1.483-1.07-1.483-.787.037-1.515.34-2.273.34-.685 0-1.374-.303-2.377-.34-1.128 0-1.715 1.067-1.715 2.377 0 1.031.382 1.96 1.515 1.96.446 0 .79-.245 1.134-.245.759 0 .613 1.964.613 2.413v4.945c0 .449.146 2.413-.613 2.413-.344 0-.688-.24-1.134-.24-1.133 0-1.515.924-1.515 1.955 0 1.31.587 2.377 1.715 2.377 1.245-.04 2.553-.345 3.86-.345 1.41 0 2.784.305 4.636.345 1.134 0 1.72-1.067 1.72-2.377 0-1.031-.374-1.955-1.511-1.955-.446 0-.793.24-1.134.24-.756 0-.622-1.964-.622-2.413 0-2.744.11-7.97 3.956-7.698-.204.408-.413.858-.413 1.338 0 1.375 1.098 2.236 2.414 2.236 1.855 0 2.953-1.616 2.953-3.366 0-2.474-2.133-4.3-4.537-4.3zM120.265 11.233c-5.95 0-9.146 3.614-9.146 9.458 0 5.878 3.198 9.454 9.178 9.454 6.02 0 8.905-3.952 8.905-9.663 0-5.537-3.304-9.25-8.937-9.25zm-.041 4.332c2.784 0 3.307 2.924 3.307 5.126 0 1.167-.208 2.577-.753 3.643-.551 1.136-1.585 1.478-2.79 1.478-2.542 0-3.194-3.09-3.194-5.121 0-2.24.649-5.126 3.43-5.094zM132.44 11.736c-2.585 0-3.17 1.069-3.17 2.372 0 1.041.378 1.96 1.515 1.96.443 0 .79-.231 1.134-.231.759 0 .621 1.961.621 2.404v4.473c0 1.722-.138 3.747.862 5.23 1.028 1.512 3.057 2.17 4.813 2.17 2.304 0 4.785-1.033 6.12-2.932v.695c0 .721-.067 1.783 1.243 1.823.653-.04 1.411-.345 2.164-.345.79 0 1.584.305 2.445.345 1.446 0 2.032-1.067 2.032-2.377 0-1.031-.374-1.955-1.52-1.955-.442 0-.795.236-1.129.236-.762 0-.622-1.96-.622-2.409v-9.771c0-.895.104-1.688-1.097-1.688-.858.037-1.654.34-2.45.34-.762 0-1.514-.303-2.164-.34-2.378 0-2.962 1.069-2.962 2.372 0 1.041.378 1.96 1.515 1.96.452 0 .793-.231 1.143-.231.756 0 .608 1.961.608 2.404v2.341c0 1.276-.06 2.44-.785 3.543a2.95 2.95 0 0 1-2.481 1.379c-.753 0-1.55-.417-1.919-1.07-.421-.685-.422-1.889-.422-2.613v-8.189c0-.86.252-1.896-.885-1.896-.86.037-1.658.34-2.445.34-.755 0-1.52-.303-2.163-.34zM166.6 11.391c-2.887 0-4.996 1.582-5.612 4.41v-2.582c0-.786-.066-1.483-1.066-1.483-.79.037-1.508.34-2.264.34-.693 0-1.383-.303-2.377-.34-1.142 0-1.728 1.069-1.728 2.372 0 1.041.38 1.96 1.52 1.96.446 0 .798-.231 1.138-.231.753 0 .617 1.961.617 2.404v4.954c0 .449.136 2.409-.617 2.409-.34 0-.692-.236-1.138-.236-1.14 0-1.52.924-1.52 1.955 0 1.31.586 2.377 1.728 2.377 1.23-.04 2.542-.345 3.852-.345 1.406 0 2.784.305 4.636.345 1.143 0 1.728-1.067 1.728-2.377 0-1.031-.375-1.955-1.515-1.955-.443 0-.792.236-1.139.236-.749 0-.616-1.96-.616-2.409 0-2.756.103-7.975 3.955-7.703-.201.415-.413.854-.413 1.343 0 1.375 1.102 2.236 2.41 2.236 1.86 0 2.966-1.622 2.966-3.375 0-2.477-2.136-4.305-4.545-4.305zM88.8 11.228c-5.642 0-9.018 4.128-9.018 9.563 0 5.574 3.512 9.354 9.154 9.354 1.899 0 3.855-.38 5.471-1.37 1.242-.76 2.368-2.005 2.368-3.516 0-1.375-1.024-2.168-2.368-2.168-2.685 0-2.473 2.721-5.403 2.721-1.99 0-3.538-1.48-3.538-3.438 0-.932.856-.726 1.547-.726h7.812c2.062 0 2.268-.516 2.268-2.545 0-2.165-.86-4.51-2.477-5.992-1.548-1.437-3.753-1.883-5.816-1.883zm.032 3.883c.69 0 1.344.201 1.855.653.388.344.73.97.73 1.484 0 .755-.656.58-1.201.58H87.08c-.38 0-1.443.174-1.443-.476 0-.449.545-1.009.858-1.316.65-.724 1.413-.925 2.336-.925z" fill="#244b76"/><path d="M108.883 5.276c-3.397 0-6.638 1.544-6.777 5.294-.031 1.239-.305 1.134-1.37 1.134-1.416 0-1.928.614-1.928 2.033 0 1.508.754 1.819 2.095 1.819 1.24 0 1.17.142 1.17 1.347v6.292c0 .449.138 2.409-.62 2.409-.338 0-.687-.236-1.14-.236-1.127 0-1.505.924-1.505 1.955 0 1.31.58 2.377 1.887 2.377 1.136-.04 2.448-.345 3.751-.345 1.41 0 2.789.305 4.27.345 1.442 0 2.027-1.067 2.027-2.377 0-1.031-.376-1.955-1.515-1.955-.45 0-.79.236-1.13.236-.759 0-.621-1.96-.621-2.409v-6.292c0-1.412.038-1.347 1.447-1.347 1.511 0 2.16-.405 2.16-1.987 0-1.793-.994-1.865-2.437-1.865-1.102 0-1.17.004-1.17-1.102 0-1.202.443-1.96 1.719-1.96.279 0 .45.037.685.136-.208.344-.304.554-.304.935 0 1.236 1.204 2.023 2.34 2.023 1.546 0 2.573-1.168 2.573-2.676 0-1.348-.887-2.446-2.064-3.062-.994-.52-2.397-.722-3.543-.722zM10.148 5.276c-3.199 0-6.256 1.443-8.052 4.088C.585 11.674 0 15.185 0 17.9c0 2.992.895 6.742 2.958 8.978 2.205 2.372 5.234 3.266 8.365 3.266 4.608 0 9.527-2.402 9.527-7.599 0-2.071-.996-3.683-3.235-3.683-.824 0-1.622.276-2.096.957-.52.694-.478 1.314-.453 2.11 0 1.027-.025 1.784-.858 2.54-.684.647-1.718.789-2.644.789-4.475 0-4.954-3.89-4.954-7.43 0-3.336.478-7.635 4.777-7.635 1.071 0 2.171.24 2.93 1.061.685.793.648 1.273.617 2.273-.105 1.855.757 2.722 2.609 2.722 1.418 0 2.894-.793 2.894-2.382 0-.923-.272-1.853-.272-2.785 0-1.168.272-2.302.272-3.466 0-1.313-.895-2.214-2.205-2.214-1.381 0-2.3.934-2.128 2.31-1.653-1.72-3.615-2.437-5.956-2.437z" fill="#244b76"/></g></svg>