<svg height="1691" viewBox="0 0 1894.946 1293.128" width="2500" xmlns="http://www.w3.org/2000/svg"><path d="m997.48 0-36.537 117.718-12.864 41.445a5.3 5.3 0 0 1 -5.127 3.725l-166.65-2.185 63.036 44.532c4.21 2.985 2.103 9.615-3.059 9.622h-94.366v38.98c-.003 3.357-3.086 5.866-6.374 5.185-7.358-1.533-14.663-2.508-21.657-2.508-23.226 0-48.368 7.4-65.236 25.493-16.965 18.199-22.691 42.376-22.691 66.043 0 8.835 1.193 17.858 3.212 26.784.745 3.313-1.775 6.461-5.17 6.461h-4.54c-.24.001-.48-.014-.719-.044-3.84-.524-7.53-.924-10.986-.924-4.057 0-8.249.352-12.512.924a5.28 5.28 0 0 1 -.704.044h-8.713a5.3 5.3 0 0 1 -3.05-.968h-180.242a5.3 5.3 0 0 1 -3.602.865 116.033 116.033 0 0 0 -14.08-.865c-23.16 0-48.25 7.38-65.083 25.442-16.93 18.166-22.64 42.29-22.64 65.888 0 23.645 5.677 47.767 22.589 65.984 16.096 17.339 39.78 24.704 62.185 25.303 5.415.145 7.15 7.363 2.39 9.952-7.568 4.108-14.528 8.801-20.314 14.983-18.275 19.525-24.68 45.77-24.68 72.152 0 26.44 6.372 52.689 24.628 72.27 18.165 19.483 45.222 27.568 71.045 27.568 22.208 0 45.166-6.602 62.779-20.91a5.3 5.3 0 0 1 6.667-.015c5.241 4.215 10.783 7.719 16.743 10.51a5.3 5.3 0 0 1 2.398 7.349c-3.402 6.193-6.048 12.493-7.788 18.907l-2.04 9.446-1.517 14.477c-.13 2.544-.367 4.845-.367 6.835 0 10.288 1.554 20.87 4.789 31.221 3.341 10.692 8.805 21.526 16.985 30.583l.008.008.22.242.22.235.022.022c15.518 16.57 39.668 25.273 61.591 25.273 10.848 0 21.623-1.933 31.434-5.522-.45.165.224-.403 2.222-1.225a5.3 5.3 0 0 1 4.247.095c9.443 4.382 19.912 6.652 29.38 6.652 2.941 0 6.248-.953 9.394-1.445l1.885-.293c2.71-.491 5.246-.483 8.016-1.232a5.301 5.301 0 0 1 2.883.03c6.149 1.813 12.217 2.941 17.3 2.941 5.015 0 10.864-1 16.795-2.758a5.304 5.304 0 0 1 2.538-.117c2.705.537 4.943 1.071 6.249 1.071 6.148 0 8.313-.48 12.32-.96 1.34-.161 2.208-.232 2.883-.287a5.39 5.39 0 0 1 .814-.008c.943.068 2.442.17 4.276.36h.015c4.521.467 8.54.894 13.913.894 5.325 0 11.914-2.01 18.188-5.053a5.3 5.3 0 0 1 4.62 0c6.274 3.044 12.863 5.053 18.189 5.053 6.148 0 8.314-.48 12.321-.96 1.369-.165 2.266-.233 2.92-.286.27-.023.542-.027.813-.008.96.069 2.426.172 4.24.36 4.52.467 8.54.894 13.912.894 7.286 0 16.547-3.558 24.297-8.53a5.3 5.3 0 0 1 5.457-.161c12.126 6.803 26.049 10.495 38.68 10.495 8.978 0 18.443-1.57 27.568-4.694a5.296 5.296 0 0 1 3.462.016c5.02 1.748 9.866 2.875 13.656 2.875 7.357 0 7.66-.484 11.631-.961 1.407-.169 2.39-.242 3.022-.293a5.39 5.39 0 0 1 .814-.008c.843.061 2.214.155 3.858.337 4.205.468 7.343.924 12.951.924 4.005 0 10.068-1.262 16.143-3.55a5.3 5.3 0 0 1 3.733 0c9.713 3.654 20.025 5.354 29.438 5.354 11.009 0 23.442-2.976 34.764-8.507a5.3 5.3 0 0 1 4.906.132c10.353 5.78 22.07 8.376 31.77 8.376 6.745 0 13.355-1.355 19.832-3.264a5.3 5.3 0 0 1 2.42-.132c3.493.62 7.267 1.591 7.393 1.591.898 0 .806-.055 1.474-.073a5.3 5.3 0 0 1 4.599-1.364c-.589-.117-.278-.04-.081-.023.054.005.253.034.308.038h-.367c.873-.034 2.637.29 4.167.447 2.683.548 3.487.975 8.463.975 2.46 0 5.737-.447 9.263-1.283a5.294 5.294 0 0 1 2.45 0c3.004.711 5.703 1.283 7.678 1.283 6.149 0 8.314-.48 12.322-.96 1.371-.165 2.269-.233 2.918-.287a5.39 5.39 0 0 1 .815-.008c.955.07 2.42.173 4.231.36h.016c4.52.467 8.54.895 13.912.895 6.19 0 13.923-2.4 20.77-6.124 6.848-3.725 12.82-8.807 15.812-13.128 6.474-9.351 8.61-20.878 8.61-28.566 0 1.186-.09.771-.102-.844a5.302 5.302 0 0 1 2.251-4.37c3.315-2.328 6.217-4.828 8.383-7.4l.016-.016.38-.455.36-.462.016-.015c7.137-9.04 11.411-22.241 11.411-33.26 0-6.074-1.57-12.9-4.143-19.501a5.3 5.3 0 0 1 .198-4.29l5.69-11.376a5.3 5.3 0 0 1 4.739-2.926h46.623c1.463.042 2.778.117 3.93.117 1.63 0 3.295-.053 4.995-.117h19.508c.375 0 .749.039 1.115.117h104.781v-202.345a5.3 5.3 0 0 1 2.714-4.628c3.09-1.722 5.777-3.042 8.119-4.782 16.376-12.167 25.88-35.377 26.08-53.956.004-.288.03-.575.08-.858v-42.64c0-18.655-9.605-42.293-26.168-54.594-17.105-12.705-35.806-15.504-54.953-15.504-17.87 0-35.406 2.799-51.64 13.56a5.3 5.3 0 0 1 -5.742.074c-15.106-9.477-33.404-13.634-50.56-13.634-3.398 0-7.221.515-11.31.938a5.3 5.3 0 0 1 -3.967-1.232l-67.216-56.985-17.961 21.107a5.3 5.3 0 0 1 -6.043 1.474c-8.94-3.657-17.83-6.358-29.08-6.358-19.244 0-37.893 9.966-50.817 22.743-2.784 2.749-7.485 1.637-8.742-2.069l-32.962-97.05a5.3 5.3 0 0 1 1.959-6.029l136.126-96.163-166.658 2.185a5.3 5.3 0 0 1 -5.126-3.725zm-666.601 517.832c.484.657.61.858.132.22l-8.515 6.3-.278-.381 8.661-6.095c-.732-1.082-.37-.558 0-.044zm45.75 190.978c-.003-.003.254.364.733 1.02.66.883.684.957.154.248l-8.522 6.3-.279-.381 8.662-6.095a80.421 80.421 0 0 0 -.748-1.092z" fill="#a00" fill-rule="evenodd"/><path d="m997.48 80.725-34.124 109.952-115.13-1.511 94.03 66.439-37.022 109.02 92.247-68.896 92.24 68.896-37.022-109.02 94.036-66.439-115.122 1.51zm-217.305 172.395v109.548c0 25.634 17.753 38.452 53.267 38.452v-20.83c-12.95 0-21.895-1.8-26.835-5.405-3.738-2.67-5.603-6.744-5.603-12.218v-109.548zm-66.292 41.657c-33.11 0-49.666 17.76-49.666 53.274 0 35.38 16.555 53.069 49.666 53.069h49.468v-20.83h-49.468c-16.689 0-26.1-7.273-28.236-21.826h77.704v-10.414c0-35.514-16.49-53.274-49.468-53.274zm0 20.828c16.556 0 25.902 7.345 28.038 22.032h-56.274c2.136-14.687 11.547-22.032 28.236-22.032zm153.215 61.327v109.548c0 25.635 17.76 38.452 53.274 38.452v-20.828c-12.95 0-21.903-1.808-26.842-5.413-3.739-2.67-5.604-6.737-5.604-12.21v-109.551zm363.488 0-6.813 8.009c-3.605 4.272-7.077 6.41-10.415 6.41-2.803 0-7.875-1.937-15.218-5.809-10.147-5.34-18.489-8.008-25.03-8.008-9.614 0-18.365 4.54-26.242 13.619l-6.806 7.81 16.018 13.62 6.615-8.016c3.605-4.273 7.076-6.41 10.414-6.41 2.804 0 7.94 1.937 15.416 5.808 10.147 5.34 18.49 8.016 25.031 8.016 9.613 0 18.292-4.54 26.036-13.619l6.813-8.016zm-845.736 41.657c-32.977 0-49.46 17.689-49.46 53.07 0 35.513 16.483 53.273 49.46 53.273 25.634 0 41.329-10.816 47.07-32.445h-22.031c-4.14 7.744-12.489 11.617-25.039 11.617-11.081 0-18.82-3.006-23.227-9.014-3.604-4.806-5.405-12.617-5.405-23.432 0-10.814 1.8-18.625 5.405-23.432 4.406-5.874 12.146-8.808 23.227-8.808 12.684 0 21.033 3.866 25.039 11.61h22.03c-5.74-21.63-21.435-32.439-47.069-32.439zm58.284 0v53.267c0 35.38 16.483 53.076 49.46 53.076 33.111 0 49.673-17.695 49.673-53.076v-53.267h-21.034v53.267c0 10.815-1.8 18.626-5.405 23.432-4.406 5.875-12.152 8.816-23.234 8.816-11.081 0-18.82-2.941-23.227-8.816-3.605-4.806-5.405-12.617-5.405-23.432v-53.267zm164.619 0c-32.978 0-49.468 17.753-49.468 53.267v53.076h20.828v-53.076c0-10.814 1.8-18.625 5.406-23.432 4.405-6.008 12.152-9.006 23.234-9.006 11.081 0 18.892 2.998 23.432 9.006 3.605 4.807 5.405 12.618 5.405 23.432v53.076h20.829v-53.076c0-10.814 1.8-18.625 5.405-23.432 4.406-6.008 12.152-9.006 23.234-9.006 11.081 0 18.893 2.998 23.432 9.006 3.605 4.807 5.405 12.618 5.405 23.432v53.076h20.829v-53.076c0-35.514-16.555-53.267-49.666-53.267-17.624 0-30.642 5.409-39.054 16.223-8.544-10.814-21.628-16.223-39.251-16.223zm194.255 0c-32.977 0-49.46 17.753-49.46 53.267v94.932h20.821v-41.858h28.64c33.11 0 49.665-17.695 49.665-53.076 0-35.514-16.555-53.267-49.666-53.267zm175.034 0c-33.11 0-49.666 17.753-49.666 53.267 0 35.38 16.555 53.076 49.666 53.076h49.468v-20.828h-49.47c-16.689 0-26.1-7.28-28.236-21.833h77.704v-10.415c0-35.514-16.49-53.267-49.468-53.267zm107.95 0c-16.423 0-28.244 3.802-35.453 11.412-4.94 5.34-7.408 12.148-7.408 20.425h20.829c0-3.204.932-5.535 2.801-7.004 3.205-2.67 9.617-4.004 19.23-4.004 9.747 0 16.216 1.334 19.42 4.004 1.87 1.469 2.81 3.8 2.81 7.004 0 3.071-.94 5.345-2.81 6.814-3.204 2.67-9.673 4.004-19.42 4.004-16.422 0-28.243 3.809-35.452 11.419-4.94 5.34-7.408 12.148-7.408 20.425 0 8.278 2.468 15.085 7.408 20.425 7.21 7.61 19.03 11.42 35.452 11.42 28.705 0 43.058-10.616 43.058-31.845v-42.662c0-21.228-14.353-31.837-43.058-31.837zm108.542 0c-32.977 0-49.467 17.753-49.467 53.267v53.076h20.828v-53.076c0-10.814 1.8-18.625 5.405-23.432 4.406-6.008 12.153-9.006 23.234-9.006 11.082 0 18.821 2.998 23.227 9.006 3.605 4.807 5.413 12.618 5.413 23.432v53.076h21.026v-53.076c0-35.514-16.555-53.267-49.666-53.267zm115.152 0c-33.111 0-49.666 17.753-49.666 53.267 0 35.38 16.555 53.076 49.666 53.076 32.977 0 49.468-17.695 49.468-53.076 0-35.514-16.491-53.267-49.468-53.267zm107.942 0c-28.572 0-42.853 10.609-42.853 31.837 0 12.684 5.071 21.5 15.218 26.44 5.741 2.803 14.757 4.603 27.04 5.405 9.88.667 16.221 1.736 19.025 3.205 2.403 1.335 3.601 3.938 3.601 7.81 0 3.205-.932 5.543-2.802 7.012-3.204 2.67-9.617 4.004-19.23 4.004s-16.018-1.334-19.222-4.004c-1.869-1.47-2.801-3.807-2.801-7.012h-20.829c0 21.229 14.281 31.845 42.853 31.845 28.571 0 42.86-10.616 42.86-31.845 0-12.55-5.007-21.358-15.02-26.431-5.875-2.804-14.884-4.612-27.034-5.413-10.013-.668-16.354-1.664-19.024-3-2.537-1.335-3.806-4.01-3.806-8.016 0-3.204.932-5.535 2.801-7.004 3.204-2.67 9.61-4.004 19.223-4.004s16.025 1.334 19.23 4.004c1.869 1.469 2.801 3.8 2.801 7.004h20.829c0-21.228-14.289-31.837-42.86-31.837zm-614.62 20.829c11.082 0 18.893 2.998 23.433 9.006 3.604 4.807 5.405 12.618 5.405 23.432 0 10.681-1.8 18.493-5.405 23.432-4.54 5.875-12.351 8.816-23.433 8.816h-28.639v-32.248c0-10.814 1.808-18.625 5.413-23.432 4.406-6.008 12.145-9.006 23.226-9.006zm175.034 0c16.555 0 25.902 7.338 28.038 22.024h-56.274c2.136-14.686 11.547-22.024 28.236-22.024zm331.644 0c11.081 0 18.828 2.998 23.234 9.006 3.605 4.807 5.405 12.618 5.405 23.432 0 10.815-1.8 18.626-5.405 23.432-4.406 5.875-12.153 8.816-23.234 8.816-11.082 0-18.821-2.941-23.227-8.816-3.605-4.806-5.413-12.617-5.413-23.432 0-10.814 1.808-18.625 5.413-23.432 4.406-6.008 12.145-9.006 23.227-9.006zm-201.465 39.648v14.022c0 3.205-.94 5.543-2.81 7.012-3.204 2.67-9.673 4.004-19.42 4.004-9.613 0-16.025-1.334-19.23-4.004-1.869-1.47-2.801-3.807-2.801-7.012 0-3.204.932-5.542 2.801-7.011 3.205-2.537 9.617-3.806 19.23-3.806 8.678 0 16.088-1.07 22.23-3.205zm-639.144 71.242v48.383h-33.107c-38.273 0-57.41 20.445-57.41 61.341 0 41.05 19.137 61.577 57.41 61.577 38.118 0 57.176-20.527 57.176-61.577v-109.725zm241.67 0v126.622c0 29.784 20.445 44.679 61.341 44.679v-24.079c-14.97 0-25.305-2.082-31.015-6.249-4.167-3.086-6.256-7.87-6.256-14.352v-54.17h37.271v-24.07h-37.271v-48.382zm396.997 0v24.078h24.077v-24.078zm131.719 0v48.383h-33.106c-38.273 0-57.41 20.445-57.41 61.341 0 41.05 19.137 61.577 57.41 61.577 38.118 0 57.176-20.527 57.176-61.577v-109.725zm159.954 0v123.152h24.078v-123.153zm-831.265 48.148c-38.273 0-57.411 20.526-57.411 61.576 0 40.896 19.138 61.342 57.41 61.342h57.177v-24.07h-57.178c-19.29 0-30.175-8.415-32.644-25.237h89.82v-12.035c0-41.05-19.058-61.576-57.176-61.576zm218.986 0v61.576c0 40.896 19.058 61.342 57.176 61.342 38.272 0 57.41-20.446 57.41-61.342v-61.576h-24.305v61.576c0 12.5-2.089 21.529-6.256 27.085-5.092 6.79-14.04 10.187-26.85 10.187-12.808 0-21.756-3.397-26.85-10.187-4.166-5.556-6.255-14.585-6.255-27.085v-61.576zm189.818 0 49.072 124.539h22.457l49.072-124.54h-25.926l-34.492 87.276-34.257-87.275zm130.788 0v122.918h24.077v-122.919zm223.614 0c-18.982 0-32.635 4.397-40.968 13.194-5.71 6.173-8.566 14.047-8.566 23.615h24.07c0-3.703 1.081-6.406 3.242-8.104 3.703-3.086 11.11-4.628 22.222-4.628 11.265 0 18.753 1.542 22.456 4.628 2.161 1.698 3.242 4.4 3.242 8.104 0 3.55-1.081 6.172-3.242 7.87-3.703 3.086-11.19 4.627-22.456 4.627-18.982 0-32.635 4.398-40.968 13.194-5.71 6.173-8.566 14.048-8.566 23.616s2.856 17.435 8.566 23.608c8.333 8.796 21.986 13.194 40.968 13.194 33.18 0 49.776-12.265 49.776-36.802v-49.307c0-24.537-16.597-36.81-49.776-36.81zm-763.208 24.076c19.136 0 29.94 8.488 32.409 25.464h-65.053c2.47-16.976 13.353-25.464 32.644-25.464zm-132.181.228h33.106v37.271c0 12.5-2.09 21.529-6.256 27.085-5.093 6.944-14.041 10.414-26.85 10.414-12.81 0-21.757-3.47-26.85-10.414-4.167-5.556-6.249-14.585-6.249-27.085s2.082-21.529 6.249-27.084c5.093-6.79 14.04-10.187 26.85-10.187zm770.386 0h33.106v37.271c0 12.5-2.082 21.529-6.249 27.085-5.093 6.944-14.048 10.414-26.857 10.414s-21.757-3.47-26.85-10.414c-4.167-5.556-6.248-14.585-6.248-27.085s2.081-21.529 6.248-27.084c5.093-6.79 14.041-10.187 26.85-10.187zm150.699 45.603v16.208c0 3.704-1.081 6.399-3.242 8.097-3.703 3.086-11.19 4.635-22.456 4.635-11.112 0-18.519-1.549-22.222-4.635-2.16-1.698-3.242-4.393-3.242-8.097s1.081-6.407 3.242-8.104c3.703-2.932 11.11-4.4 22.222-4.4 10.03 0 18.6-1.235 25.698-3.704zm42.361 28.94v24.07h24.078v-24.07zm-807.444 58.327c-6.51 0-12.744 1.389-18.562 4.298s-10.39 6.925-13.854 12.189c-5.68 8.588-8.449 20.084-8.449 34.352 0 6.511.966 13.16 3.044 19.81 2.078 6.649 4.988 12.053 8.867 16.347 8.173 8.727 19.395 13.165 33.663 13.165 6.51 0 12.604-1.113 18.284-3.19 5.68-2.079 10.393-5.537 14.272-10.386 3.878-4.71 5.815-10.395 5.815-17.044 0-4.433-1.105-8.032-3.183-10.803-2.216-2.632-5.547-4.019-9.842-4.019-4.017 0-6.786 1.248-8.449 3.88-1.246 1.8-1.796 4.708-1.796 8.448 0 2.494-.142 4.44-.558 5.963-.415 1.524-1.38 2.905-2.904 4.29-2.216 2.078-5.823 3.183-10.671 3.183-6.788 0-11.915-2.352-15.1-7.062-3.187-4.71-4.849-12.325-4.849-22.853 0-11.082 1.523-18.979 4.709-23.689 3.048-4.71 7.901-7.07 14.55-7.07 5.403 0 9.417 1.389 11.772 4.298 1.246 1.524 1.937 2.771 2.215 3.88.276 1.246.417 2.91.278 5.265-.277 7.342 3.19 10.943 10.532 10.943 3.186 0 5.815-.832 8.17-2.633 2.355-1.663 3.462-4.022 3.462-6.93 0-1.248-.135-3.184-.55-5.677-.416-2.494-.558-4.29-.558-5.538 0-1.523.142-3.883.558-7.07.415-3.047.55-5.399.55-6.923 0-2.632-.832-4.71-2.494-6.373-1.662-1.662-3.741-2.494-6.373-2.494-2.77 0-4.982.832-6.645 2.494-1.662 1.8-2.359 3.88-1.943 6.513l-.272.27c-5.956-6.51-13.853-9.834-23.689-9.834zm392.575 0c-7.48 0-13.855 1.803-18.98 5.266-5.264 3.602-8.033 9.004-8.31 16.069-.138 2.077-.413 3.464-.828 3.88-.555.415-2.084.696-4.716.696-2.77 0-4.709.69-5.955 1.936-1.247 1.247-1.797 3.325-1.797 6.234 0 2.91.69 4.846 2.075 5.816 1.247.97 3.465 1.525 6.374 1.525 2.216 0 3.603.274 4.019.69.415.554.689 2.084.689 4.716v25.346c0 3.74-.141 6.235-.418 7.62-.416 1.385-1.106 2.076-2.076 2.076-.276 0-.967-.135-2.075-.55-1.385-.277-2.217-.419-2.494-.419-4.017 0-6.094 2.635-6.094 7.9 0 2.77.69 4.982 1.936 6.783 1.247 1.801 3.183 2.772 5.677 2.772 1.246 0 3.606-.273 7.07-.689 3.463-.416 6.09-.697 8.03-.697 1.801 0 4.709.281 8.449.697s6.65.69 8.727.69c2.77 0 4.85-.833 6.234-2.634 1.247-1.8 1.944-4.014 1.944-6.923 0-5.264-2.077-7.899-6.095-7.899-.138 0-.969.142-2.354.418-.97.416-1.668.55-2.222.55-.97 0-1.66-.55-1.936-1.796-.416-1.247-.558-3.882-.558-7.899v-25.346c0-2.078.142-3.467.558-4.298.415-.693 1.107-1.108 2.354-1.108 4.848 0 7.893-.556 9.417-1.664 1.524-.97 2.222-3.188 2.222-6.374 0-2.77-.697-4.707-1.944-5.815-1.246-1.109-3.874-1.658-7.89-1.658-2.356 0-3.604-.142-4.02-.557-.416-.416-.697-1.664-.697-3.88 0-5.264 2.36-7.899 6.931-7.899.97 0 1.941.142 2.772.558-.831 1.385-1.247 2.632-1.247 3.74 0 2.355.965 4.292 2.905 5.816s4.157 2.354 6.512 2.354c3.048 0 5.542-.966 7.481-3.044 1.94-2.077 2.912-4.573 2.912-7.759 0-5.264-2.776-9.42-8.317-12.328-3.74-1.94-8.585-2.912-14.265-2.912zm-310.749 23.968c-10.112 0-17.587 1.522-22.574 4.708-5.126 3.186-7.62 7.208-7.62 11.918 0 3.463 1.247 6.232 3.74 8.448 2.494 2.355 5.536 3.462 9 3.462 3.185 0 6.1-.831 8.455-2.493 2.355-1.524 3.462-3.875 3.462-6.784v-2.494c0-2.078 1.521-3.19 4.569-3.19 2.493 0 4.712.697 6.652 1.943 1.8 1.386 2.772 3.323 2.772 5.816 0 3.325-1.528 5.818-4.437 7.341-2.909 1.524-6.508 2.63-10.664 3.183a184.368 184.368 0 0 0 -12.607 2.494c-4.294 1.108-7.894 3.328-10.803 6.791s-4.437 8.17-4.437 14.265c0 6.65 2.354 11.778 7.202 15.38 4.849 3.601 10.667 5.405 17.455 5.405 9.558 0 17.455-2.91 23.689-8.867 1.108 3.047 3.185 5.259 6.094 6.644 2.91 1.524 6.094 2.223 9.696 2.223 3.74 0 7.065-.833 9.974-2.633 2.91-1.801 4.298-4.437 4.298-8.038 0-2.078-.557-4.014-1.804-5.538-1.247-1.523-3.041-2.222-5.12-2.222-.415 0-.971 0-1.664.14-.693.138-1.25.139-1.665.139-1.524 0-2.354-2.211-2.354-6.505v-26.044c0-5.68-.55-10.251-1.797-13.576-1.247-3.186-3.607-5.82-7.07-7.759-4.848-2.77-12.33-4.158-22.442-4.158zm232.532 0c-11.082 0-19.95 3.6-26.461 10.803-6.51 7.341-9.835 16.487-9.835 27.707 0 11.36 3.325 20.502 9.974 27.29 6.65 6.927 15.659 10.393 26.88 10.393 8.865 0 16.339-1.945 22.434-5.824 6.095-3.878 9.146-8.451 9.146-13.854 0-2.632-.832-4.842-2.633-6.366s-4.153-2.354-6.924-2.354c-2.355 0-4.019.275-5.265.968-1.247.693-3.05 2.214-5.266 4.57-1.94 2.077-3.735 3.605-5.259 4.297-1.524.693-3.607 1.108-5.962 1.108-4.018 0-7.475-1.387-10.107-4.02-2.77-2.631-4.158-5.817-4.158-9.834 0-1.247.274-1.939.69-2.355.415-.415 1.528-.557 3.33-.557h33.655c4.017 0 6.512-.55 7.62-1.797.97-1.247 1.525-3.467 1.525-6.93 0-10.39-2.909-18.422-8.727-24.379-5.818-5.956-13.99-8.866-24.657-8.866zm126.695 0c-11.775 0-20.918 3.325-27.29 10.113s-9.556 16.066-9.556 27.98c0 12.051 3.184 21.337 9.556 27.986 6.372 6.788 15.516 10.114 27.43 10.114 11.774 0 20.637-3.467 26.732-10.532s9.145-16.484 9.145-28.397c0-11.221-3.191-20.363-9.563-27.15-6.372-6.789-15.233-10.114-26.454-10.114zm-258.421.696c-5.957 0-10.811 1.522-14.69 4.57-4.017 3.185-6.505 7.477-7.613 13.157h-.278v-10.385c0-2.355-.276-4.017-.969-4.848-.692-.693-1.805-1.115-3.33-1.115-1.107 0-2.629.28-4.568.697-2.078.415-3.6.69-4.57.69-.83 0-2.22-.275-4.297-.69-2.078-.416-3.742-.697-5.266-.697-2.216 0-3.88.832-5.126 2.633-1.247 1.8-1.797 4.16-1.797 6.93 0 5.265 2.077 7.892 6.094 7.892.693 0 1.524-.135 2.494-.55.97-.277 1.66-.418 2.075-.418.97 0 1.528.557 1.944 1.804.415 1.247.55 3.874.55 7.891v19.949c0 2.632-.14 4.71-.279 6.095-.138 1.523-.412 2.495-.69 2.911-.415.416-.832.69-1.525.69-.276 0-.691-.134-1.107-.272s-.83-.279-.968-.279l-2.494-.418c-4.017 0-6.094 2.635-6.094 7.9 0 2.77.55 4.982 1.797 6.783 1.246 1.801 2.91 2.772 5.126 2.772 1.662 0 4.296-.273 7.76-.689 3.463-.416 5.958-.697 7.759-.697s4.71.281 8.727.697c4.018.416 7.343.69 9.975.69 2.216 0 3.88-.972 5.126-2.773 1.247-1.8 1.797-4.013 1.797-6.784 0-5.264-2.077-7.899-6.095-7.899-.83 0-1.662.142-2.493.418-.97.416-1.66.55-2.076.55-.97 0-1.528-.689-1.943-1.936-.416-1.246-.55-3.88-.55-7.759s.133-7.204.41-9.974c.139-2.77.695-6.095 1.665-9.835s2.632-6.65 4.987-8.728c2.355-1.939 5.265-2.77 8.867-2.493-1.108 2.216-1.665 4.02-1.665 5.405 0 2.632.972 4.85 2.912 6.513 1.8 1.662 4.152 2.493 6.784 2.493 3.602 0 6.51-1.387 8.727-4.019 2.078-2.632 3.19-5.816 3.19-9.556 0-4.849-1.803-9.004-5.405-12.329-3.601-3.324-7.891-4.987-12.878-4.987zm75.21 0c-5.957 0-10.804 1.522-14.683 4.57-4.017 3.185-6.511 7.477-7.62 13.157h-.278v-10.385c0-2.355-.276-4.017-.968-4.848-.693-.693-1.799-1.115-3.323-1.115-1.108 0-2.63.28-4.569.697-2.078.415-3.606.69-4.576.69-.831 0-2.213-.275-4.29-.69-2.078-.416-3.743-.697-5.266-.697-2.217 0-3.88.832-5.127 2.633-1.247 1.8-1.797 4.16-1.797 6.93 0 5.265 2.078 7.892 6.095 7.892.693 0 1.524-.135 2.493-.55.97-.277 1.66-.418 2.076-.418.97 0 1.52.557 1.936 1.804s.558 3.874.558 7.891v19.949c0 2.632-.141 4.71-.28 6.095-.138 1.523-.411 2.495-.689 2.911-.415.416-.832.69-1.525.69-.277 0-.692-.134-1.107-.272-.416-.138-.83-.279-.969-.279l-2.493-.418c-4.017 0-6.095 2.635-6.095 7.9 0 2.77.55 4.982 1.797 6.783s2.91 2.772 5.127 2.772c1.662 0 4.296-.273 7.759-.689s5.959-.697 7.76-.697 4.702.281 8.72.697c4.017.416 7.342.69 9.974.69 2.216 0 3.88-.972 5.126-2.773 1.247-1.8 1.804-4.013 1.804-6.784 0-5.264-2.077-7.899-6.094-7.899-.831 0-1.663.142-2.494.418-.97.416-1.667.55-2.083.55-.97 0-1.52-.689-1.936-1.936-.415-1.246-.557-3.88-.557-7.759s.141-7.204.418-9.974c.138-2.77.695-6.095 1.665-9.835s2.632-6.65 4.987-8.728c2.355-1.939 5.265-2.77 8.867-2.493-1.109 2.216-1.665 4.02-1.665 5.405 0 2.632.972 4.85 2.911 6.513 1.801 1.662 4.152 2.493 6.784 2.493 3.602 0 6.511-1.387 8.728-4.019 2.078-2.632 3.19-5.816 3.19-9.556 0-4.849-1.803-9.004-5.405-12.329-3.602-3.324-7.899-4.987-12.886-4.987zm367.962 0c-5.957 0-10.804 1.522-14.683 4.57-4.017 3.185-6.512 7.477-7.62 13.157h-.278v-10.385c0-2.355-.276-4.017-.969-4.848-.692-.693-1.798-1.115-3.322-1.115-1.108 0-2.63.28-4.569.697-2.078.415-3.607.69-4.576.69-.832 0-2.213-.275-4.29-.69-2.079-.416-3.743-.697-5.267-.697-2.216 0-3.88.832-5.126 2.633-1.247 1.8-1.797 4.16-1.797 6.93 0 5.265 2.077 7.892 6.095 7.892.692 0 1.524-.135 2.493-.55.97-.277 1.66-.418 2.076-.418.97 0 1.52.557 1.936 1.804.415 1.247.557 3.874.557 7.891v19.949c0 2.632-.14 4.71-.278 6.095-.139 1.523-.413 2.495-.69 2.911-.415.416-.833.69-1.525.69-.277 0-.692-.134-1.108-.272-.415-.138-.83-.279-.968-.279l-2.493-.418c-4.018 0-6.095 2.635-6.095 7.9 0 2.77.55 4.982 1.797 6.783s2.91 2.772 5.126 2.772c1.663 0 4.297-.273 7.76-.689s5.951-.697 7.752-.697c1.8 0 4.71.281 8.727.697 4.018.416 7.343.69 9.975.69 2.216 0 3.88-.972 5.126-2.773 1.247-1.8 1.804-4.013 1.804-6.784 0-5.264-2.077-7.899-6.094-7.899-.832 0-1.663.142-2.494.418-.97.416-1.667.55-2.083.55-.97 0-1.52-.689-1.936-1.936-.416-1.246-.557-3.88-.557-7.759s.14-7.204.418-9.974c.138-2.77.695-6.095 1.664-9.835.97-3.74 2.633-6.65 4.988-8.728 2.355-1.939 5.265-2.77 8.866-2.493-1.108 2.216-1.664 4.02-1.664 5.405 0 2.632.972 4.85 2.911 6.513 1.801 1.662 4.152 2.493 6.784 2.493 3.602 0 6.511-1.387 8.728-4.019 2.078-2.632 3.183-5.816 3.183-9.556 0-4.849-1.797-9.004-5.398-12.329-3.602-3.324-7.9-4.987-12.886-4.987zm-140.322 1.379c-5.956 0-8.866 3.191-8.866 9.564 0 5.264 2.077 7.891 6.094 7.891.554 0 1.385-.135 2.494-.55l2.075-.418c.554 0 .97.142 1.386.557.277.416.56 1.38.836 2.905.139 1.523.272 3.601.272 6.233v25.633c0 7.065 2.084 12.461 6.102 16.34 4.017 4.017 9.693 5.963 16.758 5.963 4.848 0 9.422-1.113 13.993-3.19 4.433-2.079 7.892-4.988 10.385-8.728h.279v5.544c0 1.247.415 2.214 1.247 3.183.83.97 2.078 1.386 3.74 1.386.831 0 2.22-.273 4.298-.689 1.939-.416 3.46-.697 4.43-.697s2.63.281 4.847.697c2.078.416 3.74.69 4.987.69 2.77 0 4.849-.833 6.234-2.634 1.247-1.8 1.944-4.014 1.944-6.923 0-5.264-2.085-7.899-6.102-7.899-.693 0-1.385.142-2.354.418-.97.416-1.8.55-2.215.55-1.663 0-2.494-3.184-2.494-9.695v-41.555c0-1.662-.274-2.908-.829-3.6-.692-.693-1.8-.976-3.6-.976-1.109 0-2.638.28-4.716.697-2.078.415-3.873.69-5.12.69-1.523 0-3.462-.275-6.094-.69-2.632-.416-4.578-.697-6.102-.697-5.68 0-8.449 3.191-8.449 9.564 0 5.264 2.078 7.891 6.095 7.891.554 0 1.385-.135 2.493-.55l2.083-.418c.97 0 1.52.697 1.936 1.943.416 1.386.558 4.012.558 7.752v9.564c0 6.234-1.113 11.079-3.19 14.265-2.355 3.74-5.68 5.544-9.975 5.544-3.324 0-5.95-1.388-7.752-4.298-1.108-1.8-1.665-5.398-1.665-10.524v-34.499c0-2.216-.141-3.878-.557-4.848-.415-.97-1.381-1.386-3.044-1.386-1.108 0-2.63.28-4.569.697-2.078.415-3.742.69-5.266.69-1.523 0-3.74-.275-6.373-.69-2.632-.416-4.71-.697-6.234-.697zm-170.985 13.575c3.186 0 5.82.832 7.62 2.633 1.801 1.801 2.773 3.885 2.773 5.963 0 .83-.142 1.381-.558 1.797-.415.415-1.388.557-2.911.557h-13.986c-2.217 0-3.746-.141-4.577-.418-.83-.139-1.246-.694-1.246-1.526 0-1.939 1.387-3.877 4.019-5.955s5.542-3.05 8.866-3.05zm126.138 1.804c9.004 0 13.575 6.924 13.575 20.638 0 5.68-.966 10.527-3.043 14.683-1.94 4.017-5.68 5.963-11.221 5.963-3.464 0-6.375-1.662-9.007-4.848s-3.88-8.456-3.88-15.798c0-7.065 1.388-12.326 4.02-15.65 2.632-3.325 5.816-4.988 9.556-4.988zm-350.353 25.215v3.043c0 8.728-4.023 13.026-12.196 13.026-5.264 0-7.892-2.219-7.892-6.513 0-2.078 1.38-3.739 4.151-4.708 2.632-.97 5.822-1.662 9.285-2.355 3.463-.554 5.682-1.385 6.652-2.493z" fill="#fff"/><path d="m1752.507 969.537-1.351 1.673s45.929 125.212-31.338 127.411c-74.174 2.13-58.78-109.292-4.169-89.843 23.847 8.521-16.333-71.494-77.313-51.152-103.267 34.407-87.163 297.682-3.642 319.627 12.943 3.39 64.507 15.875 86.384-43.867.733-8.728-6.987-5.246-6.987-5.246-9.873 3.688-17.226 2.084-19.723 1.328-42.677-12.85-36.217-96.67 26.504-91.148 76.465 6.757 30.284 121.18 30.284 121.18l.32 1.375 1.604.801 138.682-143.423c1.443-.184 3.184-6.873-.527-8.476l-137.101-138.659z" fill="#000032"/><path d="m1535.07 1258.24c1.374 1.856 2.084 2.657 1.97 2.29l.343 3.254-3.184-2.108-135.566-140.285c-6.3-3.688-.298-8.43-.504-8.43l137.925-143.653 2.933-.275-.573 2.085c-93.256 139.46-16.929 268.27-3.345 287.122" fill="#a00"/><g fill="#000032"><path d="m228.415 1037.392c-19.311 0-55.401 4.319-55.401 30.502 0 12.964 10.939 21.878 23.355 21.878 10.72 0 21.945-5.318 21.945-17.047v-4.563c0-5.04 3.993-5.872 8.322-5.872 8.43 0 17.315 4.626 17.315 14.294 0 33.536-78.856 2.256-78.856 62.548 0 26 22.153 38.153 45.267 38.153 16.035 0 31.587-4.844 43.522-16.274 4.33 11.958 17.276 16.274 28.958 16.274 11.98 0 26.274-5.36 26.274-19.562 0-7.4-4.675-14.262-12.784-14.262-2.016 0-4.025.268-6.04.268-5.109 0-4.362-8.422-4.362-11.744v-47.818c0-15.76-1.304-30.26-16.309-39.125-11.179-6.391-28.447-7.65-41.206-7.65zm15.536 78.386v5.57c0 15.004-7.354 23.891-22.382 23.891-7.376 0-14.496-3.046-14.496-11.98 0-13.47 29.525-9.67 36.878-17.481zm170.129-77.112c-21.373 0-36.85 11.657-41.409 32.549v-19.06c0-5.886-.543-10.972-7.919-10.972-5.795.275-11.165 2.516-16.778 2.516-5.085 0-10.184-2.24-17.583-2.516-8.315 0-12.684 7.893-12.684 17.583 0 7.628 2.8 14.497 11.208 14.497 3.344 0 5.812-1.813 8.355-1.813 5.59 0 4.597 14.53 4.597 17.851v36.578c0 3.32.993 17.85-4.597 17.85-2.543 0-5.011-1.778-8.355-1.778-8.408 0-11.208 6.834-11.208 14.463 0 9.69 4.369 17.582 12.684 17.582 9.163-.292 18.843-2.55 28.556-2.55 10.4 0 20.595 2.253 34.294 2.55 8.384 0 12.751-7.893 12.751-17.582 0-7.629-2.8-14.463-11.207-14.463-3.3 0-5.87 1.778-8.39 1.778-5.589 0-4.563-14.53-4.563-17.85 0-20.298.73-58.96 29.227-56.946-1.534 3.024-3.02 6.349-3.02 9.9 0 10.17 8.084 16.543 17.751 16.543 13.768 0 21.879-11.956 21.879-24.9 0-18.302-15.768-31.81-33.59-31.81zm137.377 0c-21.396 0-36.906 11.657-41.442 32.549v-19.06c0-5.886-.565-10.972-7.919-10.972-5.818.275-11.199 2.516-16.811 2.516-5.063 0-10.161-2.24-17.584-2.516-8.338 0-12.684 7.893-12.684 17.583 0 7.628 2.824 14.497 11.208 14.497 3.299 0 5.846-1.813 8.39-1.813 5.611 0 4.53 14.53 4.53 17.851v36.578c0 3.32 1.081 17.85-4.53 17.85-2.544 0-5.091-1.778-8.39-1.778-8.384 0-11.208 6.834-11.208 14.463 0 9.69 4.346 17.582 12.684 17.582 9.21-.292 18.89-2.55 28.557-2.55 10.423 0 20.595 2.253 34.294 2.55 8.384 0 12.717-7.893 12.717-17.582 0-7.629-2.767-14.463-11.174-14.463-3.298 0-5.869 1.778-8.389 1.778-5.59 0-4.597-14.53-4.597-17.85 0-20.298.81-58.96 29.26-56.946-1.511 3.024-3.053 6.349-3.053 9.9 0 10.17 8.116 16.543 17.852 16.543 13.722 0 21.845-11.956 21.845-24.9 0-18.302-15.78-31.81-33.556-31.81zm338.143-1.274c-44.006 0-67.65 26.736-67.65 69.962 0 43.48 23.65 69.93 67.884 69.93 44.532 0 65.87-29.23 65.87-71.472 0-40.959-24.436-68.42-66.105-68.42zm-.303 32.045c20.594 0 24.463 21.63 24.463 37.917 0 8.637-1.539 19.066-5.57 26.946-4.078 8.407-11.727 10.94-20.638 10.94-18.806 0-23.623-22.858-23.623-37.886 0-16.562 4.797-37.912 25.368-37.682zm90.366-28.321c-19.127 0-23.455 7.905-23.455 17.549 0 7.696 2.8 14.497 11.207 14.497 3.276 0 5.847-1.712 8.39-1.712 5.612 0 4.597 14.51 4.597 17.784v33.086c0 12.738-1.024 27.718 6.375 38.691 7.605 11.178 22.614 16.04 35.603 16.04 17.043 0 35.394-7.635 45.267-21.679v5.136c0 5.336-.496 13.191 9.194 13.488 4.834-.297 10.44-2.55 16.006-2.55 5.842 0 11.719 2.253 18.087 2.55 10.698 0 15.033-7.893 15.033-17.582 0-7.629-2.766-14.463-11.241-14.463-3.276 0-5.882 1.746-8.356 1.746-5.635 0-4.597-14.497-4.597-17.818v-72.281c0-6.62.768-12.482-8.12-12.482-6.346.275-12.233 2.516-18.12 2.516-5.636 0-11.196-2.24-16.007-2.516-17.593 0-21.912 7.905-21.912 17.549 0 7.696 2.801 14.497 11.208 14.497 3.344 0 5.867-1.712 8.456-1.712 5.59 0 4.497 14.51 4.497 17.784v17.316c0 9.438-.445 18.052-5.806 26.206-4.054 6.369-10.979 10.202-18.355 10.202-5.566 0-11.468-3.086-14.194-7.919-3.115-5.063-3.12-13.968-3.12-19.328v-60.568c0-6.37 1.863-14.027-6.544-14.027-6.368.275-12.268 2.516-18.087 2.516-5.589 0-11.241-2.24-16.006-2.516zm252.676-2.551c-21.35 0-36.95 11.702-41.509 32.617v-19.094c0-5.818-.486-10.972-7.885-10.972-5.842.275-11.155 2.516-16.745 2.516-5.13 0-10.23-2.24-17.583-2.516-8.453 0-12.785 7.905-12.785 17.549 0 7.696 2.812 14.497 11.241 14.497 3.3 0 5.903-1.712 8.423-1.712 5.567 0 4.564 14.51 4.564 17.784v36.645c0 3.32 1.003 17.818-4.564 17.818-2.52 0-5.124-1.746-8.423-1.746-8.43 0-11.24 6.834-11.24 14.463 0 9.69 4.331 17.582 12.784 17.582 9.094-.297 18.8-2.55 28.489-2.55 10.4 0 20.595 2.253 34.294 2.55 8.453 0 12.785-7.893 12.785-17.582 0-7.629-2.778-14.463-11.208-14.463-3.276 0-5.857 1.746-8.422 1.746-5.544 0-4.564-14.497-4.564-17.818 0-20.389.764-58.995 29.26-56.98-1.488 3.07-3.053 6.314-3.053 9.934 0 10.17 8.151 16.543 17.818 16.543 13.768 0 21.946-12 21.946-24.967 0-18.325-15.8-31.844-33.623-31.844zm-575.483-1.208c-41.737 0-66.709 30.534-66.709 70.736 0 41.234 25.978 69.192 67.716 69.192 14.042 0 28.51-2.803 40.468-10.134 9.186-5.612 17.516-14.826 17.516-26.006 0-10.17-7.574-16.04-17.516-16.04-19.86 0-18.295 20.134-39.965 20.134-14.73 0-26.174-10.957-26.174-25.436 0-6.894 6.334-5.368 11.443-5.368h57.783c15.257 0 16.778-3.82 16.778-18.825 0-16.013-6.364-33.355-18.322-44.326-11.453-10.63-27.762-13.927-43.018-13.927zm.235 28.724c5.108 0 9.944 1.488 13.724 4.832 2.864 2.542 5.403 7.17 5.403 10.973 0 5.589-4.86 4.295-8.893 4.295h-23.187c-2.817 0-10.67 1.287-10.67-3.524 0-3.32 4.028-7.463 6.342-9.73 4.81-5.361 10.454-6.846 17.28-6.846z"/><path d="m805.408 993.332c-25.13 0-49.102 11.418-50.133 39.16-.229 9.162-2.253 8.389-10.134 8.389-10.468 0-14.26 4.54-14.26 15.033 0 11.155 5.583 13.456 15.502 13.456 9.163 0 8.657 1.055 8.657 9.966v46.543c0 3.32 1.016 17.818-4.597 17.818-2.497 0-5.078-1.746-8.422-1.746-8.339 0-11.14 6.834-11.14 14.463 0 9.69 4.292 17.582 13.958 17.582 8.408-.297 18.107-2.55 27.751-2.55 10.423 0 20.626 2.253 31.576 2.55 10.675 0 15-7.893 15-17.582 0-7.629-2.778-14.463-11.208-14.463-3.322 0-5.836 1.746-8.355 1.746-5.613 0-4.598-14.497-4.598-17.818v-46.543c0-10.446.282-9.966 10.705-9.966 11.179 0 15.972-2.991 15.972-14.698 0-13.264-7.344-13.791-18.02-13.791-8.154 0-8.657.024-8.657-8.154 0-8.89 3.28-14.497 12.718-14.497 2.062 0 3.326.275 5.067 1.007-1.535 2.543-2.248 4.096-2.248 6.913 0 9.14 8.908 14.966 17.315 14.966 11.43 0 19.026-8.643 19.026-19.799 0-9.964-6.563-18.09-15.268-22.649-7.353-3.848-17.731-5.336-26.207-5.336zm-730.344 0c-23.663 0-46.275 10.67-59.561 30.234-11.18 17.088-15.503 43.062-15.503 63.154 0 22.128 6.622 49.866 21.878 66.406 16.31 17.547 38.718 24.16 61.877 24.16 34.087 0 70.468-17.767 70.468-56.205 0-15.325-7.364-27.248-23.926-27.248-6.093 0-11.998 2.04-15.502 7.08-3.849 5.132-3.54 9.717-3.356 15.603 0 7.606-.18 13.202-6.342 18.792-5.063 4.787-12.714 5.838-19.563 5.838-33.101 0-36.643-28.78-36.643-54.964 0-24.671 3.539-56.474 35.334-56.474 7.926 0 16.065 1.781 21.677 7.851 5.063 5.866 4.793 9.413 4.564 16.811-.779 13.723 5.596 20.134 19.294 20.134 10.492 0 21.409-5.865 21.409-17.617 0-6.825-2.013-13.708-2.013-20.603 0-8.636 2.013-17.022 2.013-25.636 0-9.713-6.618-16.375-16.308-16.375-10.217 0-17.02 6.908-15.738 17.079-12.232-12.714-26.74-18.02-44.059-18.02z"/></g></svg>