<svg clip-rule="evenodd" fill-rule="evenodd" height="2500" image-rendering="optimizeQuality" shape-rendering="geometricPrecision" text-rendering="geometricPrecision" viewBox="-.5 -.5 3896 4195" width="2322" xmlns="http://www.w3.org/2000/svg"><path d="m-.5-.5h3896v4195h-3896z" fill="#fefefe"/><path d="m2311.5 178.5c13.42-.43 26.75.403 40 2.5a307.128 307.128 0 0 1 37 11 349.93 349.93 0 0 0 56 20c13.68 2.851 27.02 1.851 40-3 12.33-8.5 25-16.5 38-24 33.93-6.863 52.59 6.97 56 41.5-.74 16.066-5.58 30.733-14.5 44-25.56 29.866-58.06 46.699-97.5 50.5-25.95 1.397-50.95-2.937-75-13a700.162 700.162 0 0 0 -48-19c-13.66-4.448-26.66-3.114-39 4a679.087 679.087 0 0 1 -37 24c-28.55 8.641-47.72-1.193-57.5-29.5-4.01-17.724-1.34-34.391 8-50 12.99-23.656 32.16-40.156 57.5-49.5a358.987 358.987 0 0 1 36-9.5zm-1801 37c53.45-4.201 105.117 3.299 155 22.5 73.121 33.029 107.954 89.862 104.5 170.5-3.379 43.924-21.546 80.424-54.5 109.5-27.823 22.256-58.489 39.923-92 53a2368.264 2368.264 0 0 1 -116 39c-21.613 6.969-41.613 16.969-60 30-12.827 10.148-21.66 22.981-26.5 38.5a24.551 24.551 0 0 0 .5 12c24.384-36.02 58.384-51.854 102-47.5 16.175 2.947 31.508 8.28 46 16a740.295 740.295 0 0 1 60 42 100.985 100.985 0 0 0 27 13c15.102 2.936 27.768-1.231 38-12.5-34.028-5.861-52.028-26.028-54-60.5 4.292-36.561 24.625-57.895 61-64 36.006-2.582 63.173 11.585 81.5 42.5 17.031 32.681 21.364 67.014 13 103-11.381 46.987-37.881 82.487-79.5 106.5-36.491 16.982-73.491 17.982-111 3a413.78 413.78 0 0 1 -34-18 1950.747 1950.747 0 0 1 -66-52c-8.311-6.327-17.645-8.994-28-8l-2.5 2.5a269.654 269.654 0 0 0 -2 31c-5.474 27.143-21.64 44.31-48.5 51.5-55.7 11.066-96.2-8.767-121.5-59.5-27.331-69.385-17.664-133.052 29-191 22.652-25.006 48.485-45.84 77.5-62.5a885.367 885.367 0 0 1 50-26 2891.678 2891.678 0 0 1 79-33c20.301-8.649 38.134-20.816 53.5-36.5 16.443-20.215 19.443-42.215 9-66-13.69-18.605-32.19-29.105-55.5-31.5-25.372-3.771-49.372.229-72 12a39.447 39.447 0 0 0 -6 4.5c16.183 19.381 21.016 41.381 14.5 66-6.634 22.777-20.467 39.61-41.5 50.5-36.139 16.826-70.139 13.492-102-10-17.759-16.682-28.259-37.182-31.5-61.5-3.612-64.615 22.888-112.449 79.5-143.5 39.148-19.985 80.482-31.818 124-35.5z" fill="#00044b"/><path d="m2311.5 420.5c-.33 8.36 0 16.693 1 25 .61-.124.94-.457 1-1 23.29-29.124 51.96-51.29 86-66.5 45.74-17.653 91.08-16.653 136 3 46.22 25.876 72.39 65.376 78.5 118.5 1.28 66.653 1.95 133.319 2 200 .68 7.154 2.01 14.154 4 21 1.65 5.159 5.15 7.826 10.5 8 46.71-16.129 69.21.538 67.5 50-2.24 35.245-20.91 52.912-56 53l-105-9-15.5.5a722.621 722.621 0 0 1 -66.5 8.5c-17.63-.621-28.3-9.621-32-27-6.31-22.163-5.98-44.163 1-66 9.21-17.351 22.38-20.851 39.5-10.5 5.09 1.251 8.59-.582 10.5-5.5a79.066 79.066 0 0 0 2-10 3647.863 3647.863 0 0 0 1-169c-5.21-43.193-29.37-61.36-72.5-54.5-38.88 12.199-60.38 38.699-64.5 79.5-.67 41.333-.67 82.667 0 124a135.48 135.48 0 0 0 4 30c.75 3.589 2.92 5.589 6.5 6 25.41-13.479 40.91-6.146 46.5 22 3.7 22.024 1.36 43.357-7 64-3.95 7.281-9.78 12.447-17.5 15.5a93.658 93.658 0 0 1 -26 1c-22.37-1.973-44.7-4.306-67-7-30.58-2.909-60.91-1.242-91 5a451.443 451.443 0 0 1 -39 2c-3.12-1.314-6.29-2.48-9.5-3.5-14.6 3.767-29.43 4.933-44.5 3.5a728.659 728.659 0 0 0 -85.5-8.5c-9.86.063-19.69.563-29.5 1.5a703.403 703.403 0 0 1 -93 7c-36.1-9.657-51.6-33.157-46.5-70.5 1.8-14.436 7.97-26.602 18.5-36.5 4.16-3.28 8.82-5.613 14-7 12.06-.085 24.06-.751 36-2 4.5-1.833 7.67-5 9.5-9.5.35-19.578-3.65-38.245-12-56-3.54-4.074-8.04-6.241-13.5-6.5-48-.667-96-.667-144 0-7.2.683-13.03 3.849-17.5 9.5-8.11 16.428-11.77 33.761-11 52 1.07 4.735 3.9 7.902 8.5 9.5 10.01.906 20.01 1.906 30 3 17.02 4.017 27.85 14.517 32.5 31.5 5.96 19.716 4.29 38.716-5 57-10.06 14.454-23.89 22.954-41.5 25.5a522.776 522.776 0 0 1 -85-7 293.756 293.756 0 0 0 -59 0 793.996 793.996 0 0 1 -93 7c-27.91-6.583-44.08-24.083-48.5-52.5-2.29-20.311 2.05-38.978 13-56 6.07-7.745 13.9-12.578 23.5-14.5 9.5-.234 19-.067 28.5.5 8.08.937 15.58-.563 22.5-4.5 8.89-8.227 15.39-18.06 19.5-29.5a43100.217 43100.217 0 0 1 139-380c5.94-15.884 13.94-30.551 24-44 11.63-12.065 25.8-19.232 42.5-21.5a226.13 226.13 0 0 1 18-2c31.67-.667 63.33-.667 95 0a157.35 157.35 0 0 1 40 7c12.72 5.386 22.22 14.219 28.5 26.5a215.82 215.82 0 0 1 8 22c38.84 129.713 77.84 259.379 117 389 3.07 12.981 8.91 24.481 17.5 34.5 1.33.667 2.67 1.333 4 2 13.33-.063 26.67-.063 40 0 9.87 1.941 17.87 6.941 24 15a392.9 392.9 0 0 1 21.5 5.5c4.21.043 7.54-1.623 10-5a64.704 64.704 0 0 0 5-17c1.11-33.817 1.61-67.65 1.5-101.5-.17-29.167-.33-58.333-.5-87.5a96.207 96.207 0 0 0 -5-29c-3.66-6.57-9.16-8.737-16.5-6.5-9.62 4.124-19.62 5.791-30 5-16.37-3.202-26.2-13.035-29.5-29.5-4.82-23.366-1.48-45.366 10-66 9.08-12.572 21.25-16.739 36.5-12.5 34.7 9.928 69.37 9.928 104 0 8.33-.667 16.67-.667 25 0 9.03 1.704 13.86 7.204 14.5 16.5.5 8.327.67 16.66.5 25zm-1416-193c117.33-.167 234.67 0 352 .5 21.29.955 31.96 11.955 32 33-1 12.649-1.66 25.315-2 38 .6 14.003 1.27 28.003 2 42 1.42 21.626-3.75 41.46-15.5 59.5-13.58 15.479-30.74 23.145-51.5 23-20.99.092-37.16-8.575-48.5-26a624.1 624.1 0 0 1 -16-36c-3.37-2.769-7.2-4.602-11.5-5.5a2261.212 2261.212 0 0 0 -132-1c-7.479 3.772-11.312 9.939-11.5 18.5a3475.602 3475.602 0 0 1 -7.5 69l1 5c39.3-12.788 79.63-18.621 121-17.5 55.82 2.48 103.99 22.646 144.5 60.5 35.06 36.303 52.56 79.803 52.5 130.5-1.41 87.524-41.08 150.857-119 190-70.06 31.826-142.72 39.493-218 23-37.012-8.176-70.345-23.843-100-47-17.725-14.713-31.225-32.547-40.5-53.5-8.44-22.009-10.773-44.676-7-68 13.776-49.826 46.609-73.659 98.5-71.5 26.672 1.746 47.839 13.246 63.5 34.5 15.523 27.801 13.69 54.301-5.5 79.5 27.47 16.525 57.14 22.192 89 17 28.06-3.61 51.56-15.777 70.5-36.5 16.84-24.491 20.17-50.824 10-79-11.28-22.082-28.44-37.916-51.5-47.5-25.41-10.064-51.74-13.398-79-10a6998.004 6998.004 0 0 0 -81 17c-43.37 4.263-73.537-13.571-90.5-53.5a71.255 71.255 0 0 1 -3.5-19 61051.157 61051.157 0 0 0 21.5-234c1.922-20.751 13.089-32.418 33.5-35z" fill="#00044b"/><path d="m1830.5 333.5h3a23588.663 23588.663 0 0 1 40 181.5c.44 6.562-2.56 10.562-9 12a230.032 230.032 0 0 1 -40.5 2.5 307.77 307.77 0 0 1 -33.5-1.5c-6.65-.832-10.98-4.332-13-10.5a14510.167 14510.167 0 0 0 53-184z" fill="#fcfcfc"/><path d="m2866.5 365.5c34.43-2.185 68.43.648 102 8.5 82.71 25.384 132.55 80.551 149.5 165.5 10.53 61.113 5.19 120.78-16 179-24.72 59.049-67.88 97.216-129.5 114.5-54.84 13.094-109.51 12.428-164-2-73.59-24.261-119.43-74.094-137.5-149.5-12.23-55.97-11.23-111.637 3-167 25.27-80.595 79.43-128.762 162.5-144.5a295.03 295.03 0 0 0 30-4.5z" fill="#00044b"/><path d="m3285.5 365.5c39.81-3.071 77.48 4.429 113 22.5a150.116 150.116 0 0 1 23.5 17.5c1.1-19.098 10.93-30.931 29.5-35.5 17.4-3.069 34.4-1.735 51 4 9.64 5.94 14.3 14.607 14 26a420.164 420.164 0 0 1 -5.5 36.5 239.306 239.306 0 0 0 0 31c16.02 50.644-2.48 74.478-55.5 71.5-18.77-1.468-33.94-9.634-45.5-24.5a216.493 216.493 0 0 0 -30.5-35.5c-24.06-15.089-49.72-18.422-77-10-20.24 10.364-26.07 26.198-17.5 47.5 5.63 7.744 13.13 12.91 22.5 15.5a179.524 179.524 0 0 0 18 5 1490.995 1490.995 0 0 1 116 24c71.83 18.8 105 65.3 99.5 139.5-5.06 44.029-25.56 78.862-61.5 104.5-44.17 29.375-92.83 41.708-146 37-45.37-4.283-85.54-20.783-120.5-49.5.59 23.316-10.58 37.149-33.5 41.5-11.04.85-22.04.517-33-1-21.01-5.976-30.34-19.976-28-42a1067.8 1067.8 0 0 0 4-48 2327.99 2327.99 0 0 0 -3.5-41.5c-3.05-20.409 4.79-34.909 23.5-43.5 23.79-8.619 46.79-6.952 69 5 3.8 2.797 7.3 5.964 10.5 9.5a578.19 578.19 0 0 1 24 33c8.52 11.178 19.35 19.345 32.5 24.5 26.15 10.757 53.15 13.757 81 9 12.58-2.704 23.08-8.871 31.5-18.5 11.83-22.833 6-39.333-17.5-49.5a273.655 273.655 0 0 0 -27-8 2805.925 2805.925 0 0 1 -92-17c-27.73-6.034-52.73-17.7-75-35-21.97-21.788-33.8-48.288-35.5-79.5-5.03-65.793 20.81-114.96 77.5-147.5 20.46-9.61 41.79-15.777 64-18.5z" fill="#00044b"/><path d="m2311.5 420.5c.67 8 1.33 16 2 24-.06.543-.39.876-1 1-1-8.307-1.33-16.64-1-25z" fill="#acadc4"/><path d="m2885.5 474.5c38.29-2.788 65.12 13.212 80.5 48 9.6 25.951 13.77 52.785 12.5 80.5.89 35.922-6.94 69.755-23.5 101.5-11.72 15.446-27.22 24.612-46.5 27.5-42.44 6.531-71.94-9.969-88.5-49.5-9.69-26.782-14.19-54.449-13.5-83-.8-32.18 6.7-62.18 22.5-90 13.65-20.233 32.48-31.899 56.5-35z" fill="#fefefe"/><path d="m1965.5 1112.5c236.1-.55 377.6 114.78 424.5 346 3.31 13.3 5.48 26.8 6.5 40.5.34 6.88-2.83 10.38-9.5 10.5-3.52-.34-7.02-.84-10.5-1.5-53.18-23.88-108.85-33.54-167-29-113.45 14.11-186.62 75.94-219.5 185.5-21.18 71.19-24.18 143.19-9 216 7.51 36.25 22.84 68.59 46 97 21.76 22.47 47.92 37.64 78.5 45.5 43.94 11.53 88.61 18.19 134 20 72.28 4.57 143.95-.09 215-14 32.19-6.84 62.85-17.84 92-33 19.73-10.96 36.9-25.13 51.5-42.5 34.97-42.28 57.3-90.62 67-145 8.4-46.28 11.9-92.94 10.5-140 1.36-72.16-5.47-143.49-20.5-214-15.88-61.64-39.21-120.3-70-176-10-17.33-20-34.67-30-52-3.8-7-3.3-13.5 1.5-19.5 3.42-2.85 7.09-3.18 11-1 160.67 158 321.33 316 482 474 167.83 166.5 335.67 333 503.5 499.5 2 3.67 2 7.33 0 11-167.5 166.17-335 332.33-502.5 498.5-160.67 158-321.33 316-482 474-7.76 4.38-12.93 2.21-15.5-6.5-.81-4.86-.14-9.53 2-14 19.59-33.51 37.92-67.84 55-103 33.91-70.66 54.25-144.99 61-223 4.28-57.59 5.62-115.25 4-173-1.28-80.49-24.94-153.49-71-219-28.38-37.63-65.54-62.46-111.5-74.5-50.99-14.33-102.99-22.33-156-24-60.31-2.41-120.31.59-180 9a366.409 366.409 0 0 0 -75 20c-40.41 16.75-69.25 45.25-86.5 85.5-20.68 51.77-28.01 105.43-22 161 3.59 58.02 18.25 113.02 44 165 43.22 76.81 109.06 118.31 197.5 124.5 42.67 2.91 84.33-2.09 125-15 12.01-4.17 23.68-9.17 35-15 6.28-2.55 12.61-2.89 19-1 2.35 2.13 3.35 4.8 3 8-10.44 91.01-42.27 173.51-95.5 247.5-52 65.28-118.83 107.78-200.5 127.5-152.46 36.3-288.13 3.96-407-97-56.11-51.75-101.94-111.25-137.5-178.5-56.68-109.71-96.01-225.37-118-347a2296.354 2296.354 0 0 1 -35-357c-5.83-144.98 1.17-289.31 21-433 13.53-92.86 34.86-183.86 64-273 25.66-77.38 60.66-150.05 105-218 37.2-56.21 83.04-104.38 137.5-144.5 70.45-49.65 148.78-77.15 235-82.5z" fill="#00044b"/><path d="m1294.5 1168.5c12.12.89 16.29 7.22 12.5 19a88.484 88.484 0 0 1 -6 11c-77.82 107.28-139.82 223.62-186 349-91.94 254.25-127.272 516.25-106 786 11.71 155.19 42.37 306.53 92 454 36.03 105.05 83.03 204.72 141 299 16.68 26.03 34.35 51.37 53 76 4.84 7 9.17 14.34 13 22 2.38 9.27-.95 14.94-10 17-1.97-.04-3.8-.54-5.5-1.5-35.33-34-70.67-68-106-102a465168.69 465168.69 0 0 0 -814-807c-34.167-34.17-68.333-68.33-102.5-102.5a12.494 12.494 0 0 1 0-7 604860.05 604860.05 0 0 1 522.5-519.5 117466.5 117466.5 0 0 0 502-493.5z" fill="#f00"/><g fill="#00044b"><path d="m348.5 3478.5c35.4-3.43 69.4 1.74 102 15.5 17.283 8.48 32.616 19.64 46 33.5 1.777-32.74 19.11-48.24 52-46.5 20.967 3.22 34.134 15.06 39.5 35.5.555 11.69.221 23.35-1 35a359.5 359.5 0 0 0 -4.5 42 399.267 399.267 0 0 0 5.5 46c4.79 33.86-9.376 54.69-42.5 62.5-18.957 4.81-36.957 2.47-54-7-7.585-6.25-12.752-14.08-15.5-23.5a574.725 574.725 0 0 1 -2-43c-7.07-27.73-24.904-43.56-53.5-47.5-66.604-8.07-105.104 21.09-115.5 87.5a2201.446 2201.446 0 0 1 -4 31c-.667 22-.667 44 0 66 1.056 30.04 8.389 58.38 22 85 12.956 19.94 31.122 32.44 54.5 37.5 22.798 4.48 45.131 2.81 67-5 19.497-8.5 29.997-23.34 31.5-44.5l1-32c2.88-32.71 20.713-48.71 53.5-48 37.712.77 59.545 19.77 65.5 57 5.565 51.69-11.268 94.53-50.5 128.5-25.007 20.02-53.34 33.36-85 40-52.751 10.81-104.751 8.14-156-8-55.797-20.13-94.964-57.63-117.5-112.5-22.342-57.42-29.676-116.76-22-178 3.91-45.68 18.243-87.68 43-126 23.231-31.89 53.398-54.72 90.5-68.5 16.566-5.14 33.232-9.31 50-12.5zm2038 0c18.69-.32 37.36.18 56 1.5 22.14 2.93 42.14 10.93 60 24 26.31 23.1 32.15 50.6 17.5 82.5-15.29 21.32-35.79 28.82-61.5 22.5-9.83-3.5-18.33-9-25.5-16.5-9.22-13.72-9.72-27.72-1.5-42-16.86-6.49-31.36-3.16-43.5 10-3.13 4.92-5.13 10.25-6 16-1.12 10.15-.46 20.15 2 30l2.5 2.5c11.9 1.29 23.9 1.96 36 2 8.09.94 15.76 3.27 23 7 6.27 5.37 9.77 12.21 10.5 20.5 1.45 12.36.12 24.36-4 36-4.89 6.54-11.39 10.7-19.5 12.5a625.555 625.555 0 0 1 -43 4c-4.37 2.56-6.87 6.39-7.5 11.5-.97 60.02-.64 120.02 1 180l3 10c1.23 2.23 3.06 3.73 5.5 4.5 6.8-.48 13.47-1.82 20-4 22.49-2.85 34.99 6.99 37.5 29.5 2.08 14.75-.25 28.75-7 42-6.68 10.26-16.18 15.76-28.5 16.5-11.68.44-23.35.1-35-1-20.26-2.77-40.59-4.6-61-5.5-25.69 1.94-51.36 4.27-77 7-17.5-.34-29.33-8.67-35.5-25-6.66-17.71-5.99-35.04 2-52 9.6-11.75 21.77-15.25 36.5-10.5 4.15 1.24 8.31 2.41 12.5 3.5 4.88-1.21 8.22-4.21 10-9 1-4.95 1.66-9.95 2-15 .67-57.67.67-115.33 0-173-.21-3.94-2.05-6.77-5.5-8.5a200.988 200.988 0 0 0 -35-3c-16.83-3.14-25.66-13.3-26.5-30.5-2.15-12.93.19-24.93 7-36 6.04-6.6 13.54-10.44 22.5-11.5 10.03-.24 20.03-.91 30-2 4.9-.66 7.4-3.49 7.5-8.5-.89-55.07 24.28-92.23 75.5-111.5 14.12-4.95 28.46-8.45 43-10.5zm-1608 122c24.043-.36 48.043.48 72 2.5 25.275 2.31 48.942 9.65 71 22 17.156 10.83 28.656 26 34.5 45.5a223.796 223.796 0 0 1 6 36c.019 59.37.686 118.7 2 178 .989 4.81 3.156 8.98 6.5 12.5 9.33-.09 18.663-.09 28 0 15.9 3.57 25.4 13.4 28.5 29.5 3.47 27.17-7.36 46-32.5 56.5-28.795 10.24-57.462 9.91-86-1-17.5-6.83-29.667-19-36.5-36.5-27.613 25.11-60.113 39.61-97.5 43.5-35.888 5.16-69.888-.5-102-17-38.475-22.78-55.308-56.62-50.5-101.5 4.016-42.56 25.516-72.4 64.5-89.5a754.44 754.44 0 0 1 101-21c15.216-3.3 29.216-9.3 42-18 12.385-11.53 16.885-25.69 13.5-42.5-2.508-8.5-7.341-15.34-14.5-20.5-13.767-7.55-28.433-10.22-44-8-5.865 1.51-10.032 5.01-12.5 10.5l-1 24c-1.661 12.66-7.828 22.49-18.5 29.5-21.898 12.55-44.898 14.88-69 7-35.239-17.04-46.739-44.2-34.5-81.5 8.833-16.83 21.667-29.67 38.5-38.5 17.624-9.21 36.29-15.21 56-18a578.096 578.096 0 0 1 35-3.5zm1210 0c32.77-2.2 64.77 1.63 96 11.5 51.27 20.28 82.77 57.44 94.5 111.5 3.58 19.85 4.91 39.85 4 60-.41 9.87-3.91 18.37-10.5 25.5a67.682 67.682 0 0 1 -22 6c-67 .33-134 .67-201 1-3.41 1.08-5.91 3.24-7.5 6.5-2.32 34.53 12.18 59.03 43.5 73.5 20.8 7.53 41.46 7.19 62-1 4-2.67 8-5.33 12-8a269.382 269.382 0 0 1 41-37c15.83-5.61 31.83-5.95 48-1 22.93 10.02 32.1 27.52 27.5 52.5-4.42 19.76-14.59 35.93-30.5 48.5-32.49 24.39-69.16 37.72-110 40-30.89 2.3-61.23-.7-91-9-66.18-24.19-105.68-71.03-118.5-140.5-9.92-55.24-1.25-107.24 26-156 31.99-49.75 77.49-77.75 136.5-84z"/><path d="m2635.5 3600.5c37.2-2.66 73.2 2.51 108 15.5 46.83 21.16 77.66 56.32 92.5 105.5 11.06 42.32 12.4 84.98 4 128-23.22 96.32-84.56 143.32-184 141-43.71 1.36-83.55-10.14-119.5-34.5-37.53-30.53-59.36-70.03-65.5-118.5-6.76-45.49-2.43-89.83 13-133 20.18-47.18 54.68-78.68 103.5-94.5 15.92-4.15 31.92-7.32 48-9.5zm-1429 31c-.33 21.34 0 42.68 1 64 .61-.12.94-.46 1-1 10.65-49.15 40.65-78.65 90-88.5 32.46-6.31 61.8.35 88 20 35.42 32.66 41.58 70.16 18.5 112.5-17.23 20.77-39.06 27.94-65.5 21.5-24.82-9.47-35.32-27.31-31.5-53.5 1.92-6.1 4.42-11.93 7.5-17.5-21.87-2.82-40.03 4.01-54.5 20.5-11.82 16.44-19.15 34.77-22 55-6.4 38.11-8.07 76.44-5 115 1.93 17.88 10.77 22.38 26.5 13.5 21.08-3.56 34.25 4.94 39.5 25.5 1.56 13.98.23 27.65-4 41-7.07 16.04-19.41 23.38-37 22-30.34-2.33-60.67-4.67-91-7-26.19 2.06-52.35 4.4-78.5 7-15.44-.47-26.28-7.81-32.5-22-4.27-13.34-5.61-27.01-4-41 3.76-18.44 14.92-26.94 33.5-25.5 7.06.46 13.89 1.96 20.5 4.5 3.58-.63 6.58-2.29 9-5a98.415 98.415 0 0 0 4-29c.67-48 .67-96 0-144-.1-7.07-1.77-13.74-5-20-3.4-3.7-7.56-4.87-12.5-3.5-12.43 5.83-24.76 5.83-37 0-7.76-6.69-11.93-15.19-12.5-25.5-2.47-15.5-.13-30.17 7-44 6.78-10.97 16.61-15.97 29.5-15 15.87 2.01 31.7 4.34 47.5 7a323.97 323.97 0 0 0 38.5-6.5c6-.67 12-.67 18 0 8.95 3.39 13.28 9.89 13 19.5zm391 0c-.33 21.34 0 42.68 1 64 .61-.12.94-.46 1-1 10.65-49.15 40.65-78.65 90-88.5 32.46-6.31 61.79.35 88 20 35.42 32.66 41.58 70.16 18.5 112.5-17.23 20.77-39.06 27.94-65.5 21.5-24.82-9.47-35.32-27.31-31.5-53.5 1.92-6.1 4.42-11.93 7.5-17.5-21.87-2.82-40.03 4.01-54.5 20.5-11.82 16.44-19.15 34.77-22 55-6.41 38.44-8.08 77.1-5 116 2.55 17.19 11.38 21.36 26.5 12.5 21.08-3.56 34.25 4.94 39.5 25.5 1.56 13.98.23 27.65-4 41-7.07 16.04-19.41 23.38-37 22-30.34-2.33-60.67-4.67-91-7-26.19 2.06-52.35 4.4-78.5 7-15.44-.47-26.28-7.81-32.5-22-4.27-13.34-5.61-27.01-4-41 3.76-18.44 14.92-26.94 33.5-25.5 7.06.46 13.89 1.96 20.5 4.5 3.58-.63 6.58-2.29 9-5a149.88 149.88 0 0 0 4-29c.67-48 .67-96 0-144-.1-7.07-1.77-13.74-5-20-3.4-3.7-7.56-4.87-12.5-3.5-12.43 5.83-24.76 5.83-37 0-7.76-6.69-11.93-15.19-12.5-25.5-2.47-15.5-.13-30.17 7-44 6.78-10.97 16.61-15.97 29.5-15 15.87 2.01 31.7 4.34 47.5 7a323.97 323.97 0 0 0 38.5-6.5c6-.67 12-.67 18 0 8.95 3.39 13.28 9.89 13 19.5zm1910 2a963.8 963.8 0 0 0 1 62c.61-.12.94-.46 1-1 10.65-49.15 40.65-78.65 90-88.5 39.6-7.35 73.1 3.48 100.5 32.5 24.13 32.52 25.8 66.19 5 101-17.15 20.01-38.65 26.84-64.5 20.5-25.1-9.7-35.6-27.86-31.5-54.5 1.89-5.45 4.06-10.78 6.5-16-22.07-3.14-40.24 3.86-54.5 21-11.31 15.91-18.31 33.57-21 53-6.53 39.12-8.2 78.45-5 118 .91 6.34 3.75 11.5 8.5 15.5 1.67.67 3.33.67 5 0 12.54-5.56 25.2-5.9 38-1 8.83 6.14 13.66 14.64 14.5 25.5 1.77 13.79.1 27.12-5 40-7.44 14.72-19.44 21.39-36 20-30.67-2.39-61.33-4.72-92-7a712.139 712.139 0 0 0 -54.5 5.5c-36.14 9.03-56.31-4.8-60.5-41.5-1.69-40.29 16.64-53.96 55-41 4.04-.52 7.04-2.52 9-6a233.5 233.5 0 0 0 4-29c.67-46.33.67-92.67 0-139 .12-8.89-1.88-17.22-6-25-3.34-2.82-7.17-3.65-11.5-2.5-8.95 4.06-18.28 5.4-28 4-12.61-4.29-19.78-13.12-21.5-26.5-3.81-17.96-.81-34.62 9-50 6.42-8.46 14.92-12.46 25.5-12 16.59 1.75 33.09 4.09 49.5 7a398.06 398.06 0 0 0 38.5-6.5c8.36-1.37 16.36-.37 24 3 4.69 5.22 7.02 11.39 7 18.5zm-343 327c.33-10.35 0-20.69-1-31-.61.12-.94.46-1 1-17.7 24.38-41.03 41.21-70 50.5-31.9 10.5-64.23 12.17-97 5-37.07-10.74-61.24-34.57-72.5-71.5-1.55-6.62-2.88-13.29-4-20-.33-55.33-.67-110.67-1-166 .12-9.23-1.21-18.23-4-27-1.65-3.98-4.65-5.98-9-6-35.82 13.51-54.32 1.18-55.5-37 1.81-36.27 20.81-51.77 57-46.5 17.91 2.96 35.91 5.13 54 6.5 13.87-.87 27.54-3.03 41-6.5 7.85-1.03 15.51-.36 23 2 4 4.33 5.83 9.5 5.5 15.5.33 67 .67 134 1 201 .21 9.75 1.21 19.42 3 29 7.87 26.69 25.7 38.53 53.5 35.5 23.78-3.45 40.28-16.28 49.5-38.5a159.64 159.64 0 0 0 9-34c1.55-35.65 1.88-71.32 1-107-.43-5.73-2.1-11.06-5-16-1.74-2.37-4.08-3.7-7-4-6.26 1.11-12.43 2.61-18.5 4.5-21.45 2.57-33.61-6.93-36.5-28.5-.67-8-.67-16 0-24 2.33-19.19 12.83-31.02 31.5-35.5 7.33-.67 14.67-.67 22 0 17.08 2.87 34.25 5.04 51.5 6.5 16.89-2.01 33.72-4.35 50.5-7 6.62-.31 12.95.86 19 3.5 3.25 3.48 5.09 7.65 5.5 12.5.33 79.67.67 159.33 1 239 .06 9.47 2.06 18.47 6 27 1.91 3.51 4.74 4.68 8.5 3.5 37.52-11.65 55.02 2.19 52.5 41.5-.41 13.99-5.58 25.82-15.5 35.5-7.92 4.98-16.58 7.48-26 7.5-17.19-2.26-34.35-4.59-51.5-7a357.867 357.867 0 0 0 -40.5 6.5c-16.7 2.78-26.7-4.05-30-20.5z"/></g><path d="m1206.5 3631.5c.67 21 1.33 42 2 63-.06.54-.39.88-1 1-1-21.32-1.33-42.66-1-64z" fill="#666993"/><path d="m1597.5 3631.5c.67 21 1.33 42 2 63-.06.54-.39.88-1 1-1-21.32-1.33-42.66-1-64z" fill="#676a94"/><path d="m3507.5 3633.5c.67 20.33 1.33 40.67 2 61-.06.54-.39.88-1 1a963.8 963.8 0 0 1 -1-62z" fill="#9d9eba"/><path d="m2001.5 3680.5c16.55-1.52 31.89 1.98 46 10.5 10.19 8.71 16.19 19.71 18 33 .27 5.24-1.73 9.24-6 12-35 .67-70 .67-105 0-8.44-1.43-11.61-6.26-9.5-14.5 6.37-13.7 16.2-24.2 29.5-31.5 8.75-4.26 17.75-7.43 27-9.5z" fill="#fdfdfd"/><path d="m2644.5 3690.5c39.85-4.29 65.35 12.71 76.5 51 11.48 44.87 8.14 88.54-10 131-10.36 17.65-25.86 27.15-46.5 28.5-32.48 1.54-55.31-12.63-68.5-42.5-8.29-27.04-11.29-54.71-9-83 1.23-20.59 7.23-39.59 18-57 10.06-13.92 23.23-23.26 39.5-28z" fill="#fdfdfe"/><path d="m842.5 3820.5c.992 7.48 1.325 15.15 1 23-.518 30.66-15.518 49.49-45 56.5-12.754 2.3-25.421 1.96-38-1-16.33-7.15-22.83-19.65-19.5-37.5 3.561-7.89 9.395-13.39 17.5-16.5a396.644 396.644 0 0 1 66-16c6.727-1.53 12.727-4.37 18-8.5z" fill="#fdfdfd"/><path d="m842.5 3820.5c.06-.54.393-.88 1-1 1.32 8.16 1.32 16.16 0 24 .325-7.85-.008-15.52-1-23z" fill="#898bac"/><path d="m3162.5 3930.5c.06-.54.39-.88 1-1 1 10.31 1.33 20.65 1 31-.67-10-1.33-20-2-30z" fill="#9d9eb9"/></svg>