<svg height="1641" viewBox="-.163 0 23.935 16.144" width="2500" xmlns="http://www.w3.org/2000/svg"><path d="m12.505 0c-.301 0-.617.048-.946.156-4.922 1.64-4.153 14.186-.175 15.23.618.164 3.074.758 4.117-2.09.037-.415-.334-.248-.334-.248-1.559.495-2.51-.607-2.51-2.058 0-1.862 1.235-2.337 2.834-2.222 3.645.261 1.442 5.774 1.442 5.774v.067l.078.037 6.608-6.832c.067 0 .153-.327-.037-.405l-6.532-6.607-.078-.074-.063.078s2.19 6.015-1.494 6.072c-1.886.03-2.775-.214-2.728-2.324.036-1.576 1.187-2.435 2.53-1.956 1.008.36-.383-2.598-2.737-2.598z" fill="#01007d"/><path d="m6.825.695-.141.038-6.572 6.844s-.275.227.037.404l6.459 6.682.152.104v-.152a.785.785 0 0 1 -.093-.116c-.647-.898-4.284-7.035.16-13.681z" fill="#ff2a2a"/></svg>