<svg height="993" viewBox="0 0 439.032 174.406" width="2500" xmlns="http://www.w3.org/2000/svg"><g stroke-width="12.867"><path d="m0 114.26v-114.26h439.032v114.26z" fill="#8dd35f"/><path d="m0 174.406v-54.198h439.032v54.198z" fill="#005"/><path d="m0 174.406v-54.198h439.031v54.198z" fill="none"/></g><g fill="#fff" fill-rule="evenodd"><path d="m190.95 133.082c1.326 0 2.099.884 2.099 2.1 0 1.104-.22 2.209-.22 3.424 0 .885.22 1.769.22 2.652 0 1.548-1.436 2.321-2.762 2.321-1.768 0-2.652-.884-2.541-2.652 0-.994.11-1.436-.553-2.21-.773-.773-1.878-.994-2.873-.994-4.198 0-4.64 4.088-4.64 7.403 0 3.424.442 7.183 4.75 7.183.995 0 1.99-.113 2.653-.775.773-.772.773-1.434.773-2.431 0-.772 0-1.435.442-2.1.442-.662 1.215-.883 2.099-.883 2.1 0 3.094 1.548 3.094 3.536 0 5.083-4.75 7.402-9.282 7.402-2.983 0-5.966-.884-8.066-3.202-1.988-2.1-2.872-5.747-2.872-8.73 0-2.652.552-5.967 1.989-8.287 1.767-2.542 4.751-3.978 7.845-3.978 2.32 0 4.199.773 5.745 2.43-.11-1.325.774-2.21 2.1-2.21zm14.364 15.912c-.994.993-4.861.552-4.861 2.32 0 1.104.994 1.548 1.878 1.548 1.989 0 2.983-1.216 2.983-3.206zm-3.425-5.636c0 1.547-1.436 2.21-2.874 2.21-1.546 0-2.982-1.215-2.982-2.873 0-3.425 4.641-3.978 7.182-3.978 1.768 0 3.978.111 5.414.995 1.99 1.105 2.21 3.094 2.21 5.083v6.298c0 .44-.11 1.547.552 1.547h.774c1.105 0 1.657.884 1.657 1.878 0 1.878-1.878 2.54-3.425 2.54s-3.204-.55-3.757-2.1c-1.658 1.438-3.646 2.1-5.745 2.1-2.984 0-5.967-1.656-5.967-4.971 0-7.956 10.386-3.869 10.386-8.288 0-1.214-1.216-1.877-2.32-1.877-.553 0-1.105.11-1.105.773zm16.353 2.1c0-.443.11-2.321-.552-2.321-.332 0-.663.221-1.105.221-1.105 0-1.547-.884-1.547-1.879 0-1.215.552-2.32 1.657-2.32.995.11 1.657.332 2.32.332.774 0 1.437-.221 2.21-.331.995 0 1.106.662 1.106 1.436v2.541c.552-2.762 2.54-4.309 5.414-4.309 2.32 0 4.42 1.768 4.42 4.198 0 1.658-1.105 3.315-2.873 3.315-1.327 0-2.321-.884-2.321-2.21 0-.442.11-.884.332-1.325-3.757-.221-3.868 4.862-3.868 7.512 0 .444-.11 2.322.663 2.322.332 0 .663-.222 1.105-.222 1.105 0 1.436.884 1.436 1.878 0 1.328-.552 2.322-1.657 2.322-1.768 0-3.093-.332-4.53-.332-1.215 0-2.541.332-3.757.332-1.105 0-1.657-.994-1.657-2.322 0-.993.442-1.878 1.547-1.878.442 0 .773.222 1.105.222.662 0 .552-1.878.552-2.322zm18.343 0c0-.443.11-2.321-.553-2.321-.442 0-.774.221-1.105.221-1.105 0-1.548-.884-1.548-1.879 0-1.215.553-2.32 1.659-2.32.994.11 1.657.332 2.32.332.773 0 1.436-.221 2.21-.331.994 0 .994.662.994 1.436v2.541c.662-2.762 2.652-4.309 5.525-4.309 2.32 0 4.42 1.768 4.42 4.198 0 1.658-1.105 3.315-2.873 3.315-1.326 0-2.43-.884-2.43-2.21 0-.442.22-.884.441-1.325-3.757-.221-3.867 4.862-3.867 7.512 0 .444-.111 2.322.662 2.322.332 0 .664-.222 1.105-.222 1.106 0 1.437.884 1.437 1.878 0 1.328-.552 2.322-1.657 2.322-1.768 0-3.095-.332-4.53-.332-1.216 0-2.541.332-3.757.332-1.105 0-1.659-.994-1.659-2.322 0-.993.443-1.878 1.548-1.878.331 0 .663.222 1.105.222.663 0 .553-1.878.553-2.322zm24.529-.332c.553 0 1.105.11 1.105-.553 0-.553-.332-1.105-.663-1.436-.553-.442-1.105-.663-1.768-.663-.994 0-1.657.22-2.32.884-.33.331-.884.884-.884 1.326 0 .552 1.104.442 1.436.442zm-3.094 3.646c-.663 0-1.547-.222-1.547.775 0 1.877 1.547 3.315 3.426 3.315 2.872 0 2.651-2.653 5.304-2.653 1.215 0 2.21.772 2.21 2.1 0 1.437-1.105 2.65-2.21 3.424-1.658.994-3.536 1.325-5.415 1.325-5.414 0-8.84-3.646-8.84-9.058 0-5.305 3.316-9.283 8.73-9.283 1.989 0 4.199.442 5.635 1.768 1.657 1.437 2.431 3.757 2.431 5.856 0 1.99-.22 2.43-2.21 2.43zm18.674 1.546c0 .444-.111 2.322.663 2.322.332 0 .663-.222 1.105-.222 1.105 0 1.436.884 1.436 1.878 0 1.328-.552 2.322-1.989 2.322-1.436 0-2.762-.332-4.088-.332s-2.541.332-3.647.332c-1.325 0-1.877-.994-1.877-2.322 0-.993.33-1.878 1.435-1.878.442 0 .774.222 1.106.222.773 0 .663-1.878.663-2.322v-6.076c0-1.216 0-1.326-1.105-1.326-1.326 0-2.1-.331-2.1-1.768s.553-1.989 1.878-1.989c.996 0 1.327.11 1.327-1.105.11-3.646 3.314-5.193 6.629-5.193 1.106 0 2.431.22 3.426.773 1.104.553 1.989 1.658 1.989 2.984 0 1.436-.995 2.541-2.541 2.541-1.106 0-2.21-.773-2.21-1.99 0-.33.11-.551.22-.883-.22-.11-.331-.11-.662-.11-1.216 0-1.658.774-1.658 1.878 0 1.105.11 1.105 1.215 1.105 1.327 0 2.321.11 2.321 1.768 0 1.547-.663 1.989-2.1 1.989-1.326 0-1.436-.11-1.436 1.326z"/><path d="m289.622 142.916c-2.762 0-3.425 2.762-3.425 4.971 0 1.99.663 4.975 3.093 4.975 1.216 0 2.21-.331 2.762-1.438.553-1.106.775-2.43.775-3.537 0-2.209-.554-4.971-3.205-4.971zm8.618 4.752c0 5.525-2.761 9.39-8.618 9.39-5.746 0-8.84-3.534-8.84-9.17 0-5.745 3.094-9.17 8.84-9.17 5.415 0 8.618 3.535 8.618 8.95zm2.43-2.21c0-.443.112-2.321-.661-2.321-.331 0-.663.221-1.105.221-1.105 0-1.437-.884-1.437-1.879 0-1.215.552-2.32 3.094-2.32.663.11 1.326.332 2.099.332.775 0 1.546-.221 2.321-.331 1.105 0 .883.994.883 1.877v7.956c0 .663 0 1.878.442 2.54.332.554 1.107.997 1.88.997.994 0 1.877-.443 2.429-1.327.663-1.103.775-2.21.775-3.425v-2.32c0-.443.11-2.321-.664-2.321-.331 0-.663.221-1.105.221-1.104 0-1.436-.884-1.436-1.879 0-1.215.552-2.32 2.874-2.32.663.11 1.325.332 2.098.332s1.547-.221 2.32-.331c1.216 0 1.106.773 1.106 1.657v9.501c0 .444-.111 2.322.551 2.322.334 0 .664-.222 1.105-.222 1.107 0 1.548.884 1.548 1.878 0 1.328-.664 2.322-1.989 2.322-.883 0-1.657-.332-2.43-.332-.664 0-1.438.332-2.1.332-1.216 0-1.216-1.106-1.216-1.769v-.663c-1.215 1.878-3.646 2.872-5.854 2.872-1.77 0-3.759-.662-4.754-2.1-.883-1.434-.773-3.424-.773-5.08zm23.647 0c0-.443.111-2.321-.663-2.321-.332 0-.662.221-1.104.221-1.104 0-1.437-.884-1.437-1.879 0-1.215.552-2.32 1.657-2.32.995.11 1.658.332 2.322.332.774 0 1.435-.221 2.208-.331.996 0 .996.662.996 1.436v2.541c.663-2.762 2.65-4.309 5.524-4.309 2.32 0 4.309 1.768 4.309 4.198 0 1.658-.995 3.315-2.873 3.315-1.215 0-2.32-.884-2.32-2.21 0-.442.22-.884.443-1.325-3.757-.221-3.869 4.862-3.869 7.512 0 .444-.11 2.322.664 2.322.33 0 .663-.222 1.105-.222 1.104 0 1.437.884 1.437 1.878 0 1.328-.553 2.322-1.659 2.322-1.879 0-3.204-.332-4.53-.332-1.215 0-2.542.332-3.757.332-1.105 0-1.657-.994-1.657-2.322 0-.993.333-1.878 1.437-1.878.442 0 .772.222 1.104.222.774 0 .663-1.878.663-2.322zm97.9 2.098c0 .331-.333.662-.333.662l-18.232 18.124c-.663.771-1.103.33-.882-.222.441-.885 1.103-1.878 1.767-4.088.993-3.205.993-5.858.552-7.405-.331-1.434-2.1-4.418-5.967-4.418-4.972 0-6.408 4.53-6.298 6.187.112 1.106 0 2.762 1.767 4.309 1.326 1.106 2.541.775 2.874.665.331 0 .995-.444.995.662 0 1.216-1.105 2.763-1.77 3.534-.773.666-3.204 2.544-6.738 2.544-2.1 0-4.641-.884-6.408-2.984-1.328-1.547-2.212-3.315-2.986-5.856-1.546-4.643-1.767-8.067-1.767-11.714 0-3.314.333-6.96 1.767-11.6.664-2.432 1.88-4.643 2.986-6.078 1.657-2.1 4.308-2.984 6.408-2.984 3.534 0 5.965 1.878 6.739 2.652.664.663 1.769 2.21 1.769 3.536 0 .994-.664.552-.995.552-.333-.11-1.548-.441-2.874.663-1.767 1.547-1.655 3.315-1.767 4.31-.11 1.768 1.326 6.188 6.298 6.188 3.867 0 5.636-2.873 5.967-4.42.44-1.547.44-4.2-.552-7.293-.664-2.32-1.326-3.204-1.767-4.199-.22-.442.219-.994.882-.22l18.232 18.12s.332.332.332.773zm-66.96-.22c0 .442.441.773.441.773l19.336 18.564c.554.44.664 0 .554-.332-.112-.221-.223-.33-.773-1.215-5.304-7.624-5.194-17.79-5.194-17.79s-.11-10.166 5.194-17.68c.55-.884.66-.994.773-1.325.11-.332 0-.773-.554-.332l-19.336 18.563s-.441.333-.441.774z"/></g><path d="m45.346 69.89v26.62h-7.481v-2.44h-.109q-2.548 3.308-7.21 3.308-5.585 0-8.946-4.283-3.307-4.283-3.307-10.03 0-5.639 3.307-9.814 3.361-4.228 8.837-4.228 4.554 0 7.428 3.361v-2.494zm-17.62 18.488q1.79 2.277 4.554 2.277 2.765 0 4.554-2.277 1.79-2.332 1.79-5.205t-1.79-5.15q-1.789-2.278-4.554-2.278-2.765 0-4.554 2.278-1.735 2.277-1.735 5.15t1.735 5.205zm56.426-16.59-3.253 4.391q-1.952-1.843-4.012-1.843-.976 0-1.735.705-.76.65-.76 1.572 0 .542.272 1.03.271.434.867.813l1.193.597q.542.216 1.518.596 1.03.38 1.627.65 2.494 1.085 3.957 2.82 1.519 1.68 1.519 4.825 0 4.283-3.037 6.885-2.981 2.549-7.319 2.549-5.692 0-9.38-4.446l3.47-4.5q2.766 3.09 5.64 3.09 1.3 0 2.168-.759.867-.813.867-2.114 0-.65-.27-1.139-.218-.542-.868-.976-.65-.433-1.139-.65-.434-.217-1.518-.65-1.084-.434-1.518-.597-2.494-1.084-3.903-2.602-1.41-1.519-1.41-4.392 0-3.74 2.331-6.18 2.386-2.44 6.127-2.44 5.421 0 8.566 2.765zm38.681 0-3.253 4.391q-1.952-1.843-4.012-1.843-.976 0-1.735.705-.76.65-.76 1.572 0 .542.272 1.03.27.434.867.813l1.193.597q.542.216 1.518.596 1.03.38 1.627.65 2.493 1.085 3.957 2.82 1.518 1.68 1.518 4.825 0 4.283-3.036 6.885-2.982 2.549-7.319 2.549-5.693 0-9.38-4.446l3.47-4.5q2.766 3.09 5.639 3.09 1.301 0 2.169-.759.867-.813.867-2.114 0-.65-.271-1.139-.217-.542-.867-.976-.651-.433-1.139-.65-.434-.217-1.518-.65-1.084-.434-1.518-.597-2.494-1.084-3.904-2.602-1.41-1.519-1.41-4.392 0-3.74 2.332-6.18 2.386-2.44 6.126-2.44 5.422 0 8.567 2.765zm21.602-1.898h7.59v14.422q0 6.668 4.338 6.668 4.337 0 4.337-6.668v-14.422h7.59v15.67q0 11.819-11.927 11.819-11.928 0-11.928-11.82zm53.211 0v2.765h.109q2.385-3.632 6.614-3.632 1.464 0 3.144.65l-.921 7.048q-1.356-.976-3.145-.976-1.518 0-2.656.543-1.085.542-1.681 1.355-.596.813-.976 2.06-.325 1.247-.434 2.332-.054 1.084-.054 2.493v11.982h-7.59v-26.62zm53.917 0v26.62h-7.481v-2.44h-.109q-2.548 3.308-7.21 3.308-5.585 0-8.946-4.283-3.307-4.283-3.307-10.03 0-5.639 3.307-9.814 3.361-4.228 8.837-4.228 4.554 0 7.428 3.361v-2.494zm-17.62 18.488q1.79 2.277 4.554 2.277 2.765 0 4.554-2.277 1.79-2.332 1.79-5.205t-1.79-5.15q-1.789-2.278-4.554-2.278-2.765 0-4.554 2.278-1.735 2.277-1.735 5.15t1.735 5.205zm47.101-18.488v2.44h.108q2.169-3.307 6.94-3.307 9.216 0 9.216 11.222v16.265h-7.59v-14.096-2.06q0-.542-.217-1.79-.217-1.3-.596-1.843-.38-.596-1.247-1.084-.813-.542-2.06-.542-1.573 0-2.603.759-.976.759-1.355 2.277-.38 1.464-.488 2.494-.108 1.03-.108 2.71v13.175h-7.59v-26.62zm56.187.813v7.32q-2.602-2.603-5.584-2.603-3.036 0-4.88 2.386-1.843 2.385-1.843 5.53 0 3.253 1.898 5.476 1.951 2.168 5.096 2.168 3.036 0 5.313-2.548v7.32q-2.928 1.626-6.56 1.626-5.801 0-9.65-4.12-3.796-4.121-3.796-9.977 0-6.018 3.904-10.138 3.958-4.12 9.922-4.12 3.47 0 6.18 1.68zm44.846 13.717h-17.511q0 2.928 1.247 5.042 1.3 2.115 4.012 2.115 3.307 0 5.096-3.633l6.994 1.139q-1.356 3.957-4.609 6.126-3.253 2.169-7.481 2.169-6.073 0-9.705-3.85-3.578-3.903-3.578-10.084 0-6.343 3.307-10.355 3.361-4.066 9.596-4.066 6.235 0 9.434 4.066 3.198 4.012 3.198 10.41zm-17.295-4.717h10.139q-.325-2.223-1.68-3.795-1.302-1.572-3.362-1.572-2.169 0-3.47 1.572-1.301 1.518-1.627 3.795zm54.23-7.915-3.253 4.391q-1.951-1.843-4.012-1.843-.976 0-1.735.705-.759.65-.759 1.572 0 .542.271 1.03.272.434.868.813l1.193.597q.542.216 1.518.596 1.03.38 1.626.65 2.494 1.085 3.958 2.82 1.518 1.68 1.518 4.825 0 4.283-3.036 6.885-2.982 2.549-7.32 2.549-5.692 0-9.379-4.446l3.47-4.5q2.765 3.09 5.639 3.09 1.3 0 2.168-.759.868-.813.868-2.114 0-.65-.271-1.139-.217-.542-.868-.976-.65-.433-1.138-.65-.434-.217-1.518-.65-1.085-.434-1.518-.597-2.494-1.084-3.904-2.602-1.41-1.519-1.41-4.392 0-3.74 2.332-6.18 2.385-2.44 6.126-2.44 5.422 0 8.566 2.765z" fill="#005" stroke-width="2.738"/></svg>