<svg height="993" viewBox="0 0 439.031 174.406" width="2500" xmlns="http://www.w3.org/2000/svg"><path d="M0 114.26V0h439.031v114.26z" fill="#ff0" stroke-width="12.867"/><path d="M0 174.406v-54.198h439.031v54.198z" fill="#005" stroke-width="12.867"/><path clip-rule="evenodd" d="M31.876 100.345h-7.85V79.43h-2.635v-6.616h2.636v-8.074c0-6.729 2.802-12.614 10.372-12.614 1.288 0 2.58.278 3.758.897v7.008c-1.01-.504-2.02-.954-3.196-.954-3.477 0-3.083 4.54-3.083 6.785v6.954h6.28v6.617h-6.28v20.913zm35.043 0h-7.851V72.813h7.851zm.729-39.083a4.64 4.64 0 0 1-4.653 4.653 4.64 4.64 0 0 1-4.653-4.653c0-2.523 2.073-4.653 4.653-4.653a4.675 4.675 0 0 1 4.653 4.653zm31.007 14.074h.112c1.626-2.467 4.374-3.42 7.179-3.42 7.399 0 9.531 5.215 9.531 11.607v16.822h-7.849V85.767c0-3.308.169-7.57-4.262-7.57-4.65 0-4.709 5.216-4.709 8.524v13.627h-7.849V72.815h7.849v2.521zm52.873 18.952c-4.034 0-6.504-4.039-6.504-7.738s2.467-7.683 6.504-7.683c4.04 0 6.563 3.98 6.563 7.683 0 3.702-2.524 7.738-6.563 7.738zm13.514-21.475h-7.739v2.58c-1.904-2.243-4.821-3.477-7.682-3.477-7.905 0-12.56 7.232-12.56 14.524 0 7.457 4.596 14.802 12.672 14.802 2.861 0 5.773-1.237 7.458-3.423h.113v2.526h7.738zm31.454 2.523h.113c1.626-2.467 4.372-3.42 7.176-3.42 7.402 0 9.534 5.215 9.534 11.607v16.822h-7.851V85.767c0-3.308.168-7.57-4.262-7.57-4.653 0-4.71 5.216-4.71 8.524v13.627h-7.848V72.815h7.849zm59.102 5.888c-1.685-1.682-3.367-2.692-5.778-2.692-4.428 0-6.954 4.15-6.954 8.186 0 4.318 2.75 7.905 7.235 7.905 2.13 0 4.093-1.066 5.497-2.635v7.57c-2.135 1.178-4.375 1.684-6.786 1.684-8.132 0-13.907-6.675-13.907-14.58 0-8.186 5.997-14.746 14.299-14.746 2.188 0 4.484.56 6.394 1.738zm31.06 19.121h-7.851V72.813h7.851zm.731-39.083c0 2.58-2.078 4.653-4.655 4.653s-4.65-2.073-4.65-4.653c0-2.523 2.073-4.653 4.65-4.653s4.655 2.13 4.655 4.653zm29.714 21.698c.39-2.858 2.13-5.55 5.271-5.55 3.027 0 4.82 2.746 5.216 5.55zm17.89 4.878v-.953c0-8.3-4.039-14.972-13.066-14.972-8.915 0-13.348 6.56-13.348 14.915s5.215 14.412 13.739 14.412c5.773 0 10.597-3.086 12.502-8.582l-7.23-1.177c-1.066 2.189-2.695 3.756-5.272 3.756-4.093 0-5.44-3.924-5.44-7.399zm29.433-12.167h.114c1.568-2.41 3.925-3.758 6.84-3.758 1.122 0 2.244.281 3.252.672l-.957 7.292a5.575 5.575 0 0 0-3.247-1.01c-5.44 0-6.002 4.822-6.002 9.084v12.392h-7.847V72.81h7.847zm44.8 3.644c-1.118-1.067-2.58-1.905-4.145-1.905-1.294 0-2.585 1.01-2.585 2.354 0 2.02 2.861 2.58 5.663 3.815 2.861 1.235 5.663 3.14 5.663 7.905 0 6.11-4.934 9.758-10.712 9.758a12.663 12.663 0 0 1-9.7-4.599l3.592-4.655c1.514 1.684 3.528 3.2 5.832 3.2 1.738 0 3.137-1.178 3.137-2.975 0-2.411-2.746-2.971-5.492-4.15-2.75-1.176-5.497-2.802-5.497-7.233 0-5.159 3.587-8.914 8.75-8.914 2.911 0 6.613.897 8.858 2.858zM33.391 26.162c-.458-.956-1.414-1.702-2.495-1.702-1.036 0-2.036.832-2.036 1.91 0 1.704 2.242 2.45 4.528 3.49 2.284 1.036 4.484 2.45 4.484 5.523 0 3.697-3.073 6.435-6.685 6.435-2.826 0-5.692-1.62-6.729-4.36l3.201-1.454c.787 1.455 1.743 2.491 3.53 2.491 1.578 0 2.95-1.078 2.95-2.74 0-1.037-.5-1.536-1.372-2.118l-3.653-1.951c-2.162-1.162-3.739-2.242-3.739-4.9 0-3.157 2.578-5.649 5.732-5.649 2.367 0 4.279 1.29 5.315 3.407zm47.14 3.074c.456-2.783 2.615-4.859 5.523-4.859 2.99 0 4.9 1.954 5.357 4.859zM95.15 32.06v-.582c0-5.773-2.908-10.34-9.096-10.34-6.272 0-9.47 4.484-9.47 10.467 0 5.731 3.614 10.216 9.55 10.216 3.78 0 7.184-1.951 9.016-5.316l-3.157-1.785c-1.413 2.326-2.949 3.778-5.815 3.778-3.572 0-5.814-3.113-5.858-6.438zm43.736-7.184h.124c.915-2.284 2.824-3.739 5.316-3.739 1.078 0 2.159.375 3.074.957l-1.702 3.406c-.665-.58-1.414-.788-2.284-.788-4.03 0-4.528 3.736-4.528 6.893v9.553h-3.739V21.72h3.739zm53.785 8.971l5.607-12.128h4.196l-9.803 20.102-9.76-20.102h4.195zm52.954 7.311h-3.733V21.72h3.733zm.707-28.327c0 1.411-1.161 2.534-2.575 2.534-1.413 0-2.574-1.123-2.574-2.534 0-1.452 1.161-2.616 2.574-2.616 1.414 0 2.575 1.164 2.575 2.616zm56.113 14.412c-1.494-1.702-3.322-2.616-5.567-2.616-3.653 0-6.475 3.24-6.475 6.812 0 3.985 2.78 6.895 6.73 6.895 2.158 0 3.902-.998 5.315-2.577v4.778c-1.704.912-3.406 1.286-5.357 1.286-5.732 0-10.426-4.401-10.426-10.216 0-6.022 4.65-10.468 10.631-10.468 1.748 0 3.658.416 5.152 1.29v4.816zm43.03 1.993c.46-2.783 2.616-4.859 5.526-4.859 2.99 0 4.9 1.954 5.357 4.859zm14.617 2.824v-.582c0-5.773-2.907-10.34-9.094-10.34-6.274 0-9.47 4.484-9.47 10.467 0 5.731 3.612 10.216 9.551 10.216 3.778 0 7.186-1.951 9.013-5.316l-3.157-1.785c-1.408 2.326-2.946 3.778-5.812 3.778-3.572 0-5.817-3.113-5.856-6.438zm47.558-5.898c-.455-.956-1.409-1.702-2.494-1.702-1.037 0-2.035.832-2.035 1.91 0 1.704 2.245 2.45 4.529 3.49 2.288 1.036 4.484 2.45 4.484 5.523 0 3.697-3.071 6.435-6.685 6.435-2.822 0-5.687-1.62-6.729-4.36l3.2-1.454c.788 1.455 1.744 2.491 3.53 2.491 1.579 0 2.95-1.078 2.95-2.74 0-1.037-.5-1.536-1.371-2.118l-3.658-1.951c-2.16-1.162-3.734-2.242-3.734-4.9 0-3.157 2.575-5.649 5.731-5.649 2.37 0 4.28 1.29 5.316 3.407z" fill-rule="evenodd" stroke-width="2.445"/><path d="M0 174.406v-54.198h439.031v54.198z" fill="none" stroke-width="12.867"/><g fill="#fff" fill-rule="evenodd"><path d="M190.95 133.082c1.326 0 2.099.884 2.099 2.1 0 1.104-.22 2.209-.22 3.424 0 .885.22 1.769.22 2.652 0 1.548-1.436 2.321-2.762 2.321-1.768 0-2.652-.884-2.541-2.652 0-.994.11-1.436-.553-2.21-.773-.773-1.878-.994-2.873-.994-4.198 0-4.64 4.088-4.64 7.403 0 3.424.442 7.183 4.75 7.183.995 0 1.99-.113 2.653-.775.773-.772.773-1.434.773-2.431 0-.772 0-1.435.442-2.1.442-.662 1.215-.883 2.099-.883 2.1 0 3.094 1.548 3.094 3.536 0 5.083-4.75 7.402-9.282 7.402-2.983 0-5.966-.884-8.066-3.202-1.988-2.1-2.872-5.747-2.872-8.73 0-2.652.552-5.967 1.989-8.287 1.767-2.542 4.751-3.978 7.845-3.978 2.32 0 4.199.773 5.745 2.43-.11-1.325.774-2.21 2.1-2.21zm14.364 15.912c-.994.993-4.861.552-4.861 2.32 0 1.104.994 1.548 1.878 1.548 1.989 0 2.983-1.216 2.983-3.206zm-3.425-5.636c0 1.547-1.436 2.21-2.874 2.21-1.546 0-2.982-1.215-2.982-2.873 0-3.425 4.641-3.978 7.182-3.978 1.768 0 3.978.111 5.414.995 1.99 1.105 2.21 3.094 2.21 5.083v6.298c0 .44-.11 1.547.552 1.547h.774c1.105 0 1.657.884 1.657 1.878 0 1.878-1.878 2.54-3.425 2.54s-3.204-.55-3.757-2.1c-1.658 1.438-3.646 2.1-5.745 2.1-2.984 0-5.967-1.656-5.967-4.971 0-7.956 10.386-3.869 10.386-8.288 0-1.214-1.216-1.877-2.32-1.877-.553 0-1.105.11-1.105.773zm16.353 2.1c0-.443.11-2.321-.552-2.321-.332 0-.663.221-1.105.221-1.105 0-1.547-.884-1.547-1.879 0-1.215.552-2.32 1.657-2.32.995.11 1.657.332 2.32.332.774 0 1.437-.221 2.21-.331.995 0 1.106.662 1.106 1.436v2.541c.552-2.762 2.54-4.309 5.414-4.309 2.32 0 4.42 1.768 4.42 4.198 0 1.658-1.105 3.315-2.873 3.315-1.327 0-2.321-.884-2.321-2.21 0-.442.11-.884.332-1.325-3.757-.221-3.868 4.862-3.868 7.512 0 .444-.11 2.322.664 2.322.33 0 .662-.222 1.104-.222 1.105 0 1.436.884 1.436 1.878 0 1.328-.552 2.322-1.657 2.322-1.768 0-3.093-.332-4.53-.332-1.215 0-2.541.332-3.757.332-1.105 0-1.657-.994-1.657-2.322 0-.993.442-1.878 1.547-1.878.442 0 .773.222 1.105.222.662 0 .552-1.878.552-2.322zm18.343 0c0-.443.11-2.321-.553-2.321-.442 0-.774.221-1.105.221-1.105 0-1.548-.884-1.548-1.879 0-1.215.553-2.32 1.659-2.32.994.11 1.657.332 2.32.332.773 0 1.437-.221 2.21-.331.994 0 .994.662.994 1.436v2.541c.662-2.762 2.652-4.309 5.525-4.309 2.32 0 4.42 1.768 4.42 4.198 0 1.658-1.105 3.315-2.873 3.315-1.326 0-2.43-.884-2.43-2.21 0-.442.22-.884.441-1.325-3.757-.221-3.867 4.862-3.867 7.512 0 .444-.111 2.322.662 2.322.332 0 .664-.222 1.105-.222 1.106 0 1.437.884 1.437 1.878 0 1.328-.552 2.322-1.657 2.322-1.768 0-3.095-.332-4.53-.332-1.216 0-2.541.332-3.757.332-1.105 0-1.659-.994-1.659-2.322 0-.993.443-1.878 1.548-1.878.331 0 .663.222 1.105.222.663 0 .553-1.878.553-2.322zm24.529-.332c.553 0 1.105.11 1.105-.553 0-.553-.332-1.105-.663-1.436-.553-.442-1.105-.663-1.768-.663-.994 0-1.657.22-2.32.884-.33.331-.884.884-.884 1.326 0 .552 1.104.442 1.436.442zm-3.094 3.646c-.663 0-1.547-.222-1.547.775 0 1.877 1.547 3.315 3.426 3.315 2.872 0 2.651-2.653 5.304-2.653 1.215 0 2.21.772 2.21 2.1 0 1.437-1.105 2.65-2.21 3.424-1.658.994-3.536 1.325-5.415 1.325-5.414 0-8.84-3.646-8.84-9.058 0-5.305 3.316-9.283 8.73-9.283 1.989 0 4.199.442 5.635 1.768 1.657 1.437 2.431 3.757 2.431 5.856 0 1.99-.22 2.43-2.21 2.43zm18.674 1.546c0 .444-.111 2.322.663 2.322.332 0 .663-.222 1.105-.222 1.105 0 1.436.884 1.436 1.878 0 1.328-.552 2.322-1.989 2.322-1.436 0-2.762-.332-4.088-.332s-2.541.332-3.647.332c-1.325 0-1.877-.994-1.877-2.322 0-.993.33-1.878 1.435-1.878.442 0 .774.222 1.106.222.773 0 .663-1.878.663-2.322v-6.076c0-1.216 0-1.326-1.105-1.326-1.326 0-2.1-.331-2.1-1.768s.553-1.989 1.878-1.989c.996 0 1.327.11 1.327-1.105.11-3.646 3.314-5.193 6.629-5.193 1.106 0 2.431.22 3.426.773 1.104.553 1.989 1.658 1.989 2.984 0 1.436-.995 2.541-2.541 2.541-1.106 0-2.21-.773-2.21-1.99 0-.33.11-.551.22-.883-.22-.11-.331-.11-.662-.11-1.216 0-1.658.774-1.658 1.878 0 1.105.11 1.105 1.215 1.105 1.327 0 2.321.11 2.321 1.768 0 1.547-.663 1.989-2.1 1.989-1.326 0-1.436-.11-1.436 1.326z"/><path d="M289.622 142.916c-2.762 0-3.425 2.762-3.425 4.971 0 1.99.663 4.975 3.093 4.975 1.216 0 2.21-.331 2.762-1.438.553-1.106.775-2.43.775-3.537 0-2.209-.554-4.971-3.205-4.971zm8.618 4.752c0 5.525-2.761 9.39-8.618 9.39-5.746 0-8.84-3.534-8.84-9.17 0-5.745 3.094-9.17 8.84-9.17 5.415 0 8.618 3.535 8.618 8.95zm2.43-2.21c0-.443.112-2.321-.661-2.321-.331 0-.663.221-1.105.221-1.105 0-1.437-.884-1.437-1.879 0-1.215.552-2.32 3.094-2.32.663.11 1.326.332 2.099.332.775 0 1.546-.221 2.321-.331 1.105 0 .883.994.883 1.877v7.956c0 .663 0 1.878.442 2.54.332.554 1.107.997 1.88.997.994 0 1.877-.443 2.429-1.327.663-1.103.775-2.21.775-3.425v-2.32c0-.443.11-2.321-.664-2.321-.331 0-.663.221-1.104.221-1.105 0-1.437-.884-1.437-1.879 0-1.215.552-2.32 2.874-2.32.663.11 1.325.332 2.098.332.773 0 1.547-.221 2.32-.331 1.216 0 1.106.773 1.106 1.657v9.501c0 .444-.111 2.322.551 2.322.334 0 .664-.222 1.105-.222 1.107 0 1.548.884 1.548 1.878 0 1.328-.663 2.322-1.989 2.322-.883 0-1.657-.332-2.43-.332-.664 0-1.438.332-2.1.332-1.216 0-1.216-1.106-1.216-1.769v-.663c-1.215 1.878-3.646 2.872-5.854 2.872-1.77 0-3.759-.662-4.754-2.1-.883-1.434-.773-3.424-.773-5.08zm23.647 0c0-.443.111-2.321-.663-2.321-.332 0-.662.221-1.104.221-1.104 0-1.437-.884-1.437-1.879 0-1.215.552-2.32 1.657-2.32.995.11 1.658.332 2.322.332.774 0 1.435-.221 2.208-.331.996 0 .996.662.996 1.436v2.541c.663-2.762 2.65-4.309 5.524-4.309 2.32 0 4.309 1.768 4.309 4.198 0 1.658-.995 3.315-2.873 3.315-1.215 0-2.32-.884-2.32-2.21 0-.442.22-.884.443-1.325-3.757-.221-3.869 4.862-3.869 7.512 0 .444-.11 2.322.664 2.322.33 0 .663-.222 1.105-.222 1.104 0 1.437.884 1.437 1.878 0 1.328-.553 2.322-1.659 2.322-1.879 0-3.204-.332-4.53-.332-1.215 0-2.542.332-3.757.332-1.105 0-1.657-.994-1.657-2.322 0-.993.333-1.878 1.437-1.878.442 0 .772.222 1.104.222.774 0 .663-1.878.663-2.322zm97.9 2.098c0 .331-.333.662-.333.662l-18.232 18.124c-.663.771-1.103.33-.882-.222.441-.885 1.103-1.878 1.767-4.088.993-3.205.993-5.858.552-7.405-.331-1.434-2.1-4.418-5.967-4.418-4.972 0-6.408 4.53-6.298 6.187.112 1.106 0 2.762 1.767 4.309 1.326 1.106 2.541.775 2.874.665.331 0 .995-.444.995.662 0 1.216-1.105 2.763-1.769 3.534-.774.666-3.205 2.544-6.739 2.544-2.1 0-4.641-.884-6.408-2.984-1.328-1.547-2.212-3.315-2.986-5.856-1.546-4.643-1.767-8.067-1.767-11.714 0-3.314.333-6.96 1.767-11.6.664-2.432 1.88-4.643 2.986-6.078 1.657-2.1 4.308-2.984 6.408-2.984 3.534 0 5.965 1.878 6.739 2.652.664.663 1.769 2.21 1.769 3.536 0 .994-.664.552-.995.552-.333-.11-1.548-.441-2.874.663-1.767 1.547-1.655 3.315-1.767 4.31-.11 1.768 1.326 6.188 6.298 6.188 3.867 0 5.636-2.873 5.967-4.42.44-1.547.44-4.2-.552-7.293-.664-2.32-1.326-3.204-1.767-4.199-.22-.442.219-.994.882-.22l18.232 18.12s.332.332.332.773zM355.257 147.336c0 .442.441.773.441.773l19.336 18.564c.554.44.664 0 .554-.332-.112-.221-.223-.33-.773-1.215-5.304-7.624-5.194-17.79-5.194-17.79s-.11-10.166 5.194-17.68c.55-.884.66-.994.773-1.325.11-.332 0-.773-.554-.332l-19.336 18.563s-.441.333-.441.774z"/></g></svg>