<svg height="509" viewBox="0 0 1503.714 305.954" width="2500" xmlns="http://www.w3.org/2000/svg"><g stroke-width="4.3"><path d="m1374.71 10.049c11.134 16.295 18.467 33.134 19.282 45.355 1.901 32.591-.815 58.392-43.454 62.737-31.776 3.531-49.701-14.122-49.158-34.491.543-22.27 20.37-52.96 55.676-33.95-9.506-41.01-30.961-49.7-55.133-49.7-40.467 0-71.7 47.8-71.7 135.523s31.233 135.523 71.7 135.523c24.172 0 45.627-8.69 55.133-49.7-35.307 19.01-55.133-11.679-55.676-33.95-.543-20.368 17.382-38.022 49.158-34.491 42.64 4.345 45.355 30.146 43.454 62.737-.815 12.222-8.148 29.06-19.283 45.356l129.005-125.475z" fill="#000031"/><path d="m1217.459 265.071c-25.53-32.862-41.282-79.304-41.553-129.548.271-49.972 16.023-96.686 41.553-129.548l-132.809 129.548z" fill="#f00"/></g><g fill="#000031" stroke-width="3.188"><path d="m0 110.019c0-16.144 3.474-36.988 12.466-50.68 10.422-15.939 28.813-24.318 47.818-24.318 13.896 0 25.544 4.292 34.945 14.51l.408-.41c-1.021-7.765 4.496-13.282 12.67-13.282 7.766 0 13.079 5.313 13.079 13.078 0 6.948-1.635 13.692-1.635 20.64 0 5.518 1.635 11.035 1.635 16.553 0 9.4-8.787 14.1-17.166 14.1-11.035 0-15.94-5.109-15.53-16.144.204-5.926.204-8.787-3.679-13.487-4.291-5.11-11.035-6.335-17.37-6.335-19.005 0-28.405 12.057-28.405 45.366 0 31.266 9.4 44.14 29.427 44.14 5.517 0 11.648-.817 15.735-4.7 4.904-4.495 5.109-8.991 5.109-15.122 0-4.7 0-8.378 2.656-12.465s7.561-5.722 12.466-5.722c13.283 0 19.21 9.604 19.21 21.866 0 30.857-29.223 45.162-56.607 45.162-18.596 0-36.579-5.313-49.658-19.414-12.26-13.283-17.574-35.557-17.574-53.335zm172.027-11.239c0 9.4-8.991 13.691-17.574 13.691-10.013 0-18.8-7.152-18.8-17.574 0-12.874 13.078-24.523 44.548-24.523 10.218 0 24.114 1.022 33.106 6.131 10.83 6.13 13.078 15.94 13.078 31.47v38.419c0 7.97 1.226 9.604 3.474 9.604 1.635 0 3.27-.408 4.905-.408 6.539 0 10.217 5.517 10.217 11.444 0 11.443-11.443 15.735-21.048 15.735-9.4 0-19.822-3.474-23.296-13.079-9.605 9.196-22.07 13.079-34.945 13.079-18.596 0-36.375-9.81-36.375-30.653 0-48.432 63.35-23.297 63.35-50.271 0-7.766-7.152-11.444-13.896-11.444-3.474 0-6.744.613-6.744 4.7zm20.64 34.535c-5.926 6.335-29.631 3.27-29.631 14.1 0 7.153 5.722 9.605 11.648 9.605 12.057 0 17.983-7.152 17.983-19.209zm102.126-35.762h.408c3.27-16.757 15.735-26.157 32.901-26.157 14.305 0 26.975 10.83 26.975 25.544 0 10.422-6.54 20.027-17.575 20.027-7.765 0-14.304-5.109-14.304-13.283 0-2.861 1.226-5.518 2.452-7.97-22.888-1.635-23.5 29.427-23.5 45.775 0 12.057 1.225 14.305 3.678 14.305 1.021 0 2.043-.409 3.065-.817a11.572 11.572 0 0 1 3.678-.613c6.744 0 8.992 5.517 8.992 11.648 0 7.765-3.474 14.1-10.218 14.1-11.035 0-19.21-2.043-27.588-2.043-7.765 0-15.53 2.043-22.887 2.043-6.744 0-10.218-6.335-10.218-14.1 0-6.13 2.248-11.648 8.992-11.648 1.43 0 2.452.408 3.678.613 1.022.204 2.044.817 3.065.817 2.453 0 3.679-2.043 3.679-14.305v-29.427c0-12.67-1.022-14.304-3.679-14.304-2.043 0-4.087 1.43-6.743 1.43-6.744 0-8.992-5.517-8.992-11.648 0-7.765 3.474-14.1 10.218-14.1 5.926 0 10.013 2.043 14.1 2.043 4.496 0 8.787-2.043 13.488-2.043 4.495 0 6.335 1.43 6.335 8.787zm109.76 0h.408c3.27-16.757 15.736-26.157 32.901-26.157 14.305 0 26.975 10.83 26.975 25.544 0 10.422-6.54 20.027-17.575 20.027-7.765 0-14.304-5.109-14.304-13.283 0-2.861 1.226-5.518 2.452-7.97-22.888-1.635-23.5 29.427-23.5 45.775 0 12.057 1.225 14.305 3.678 14.305 1.021 0 2.043-.409 3.065-.817a11.572 11.572 0 0 1 3.678-.613c6.744 0 8.992 5.517 8.992 11.648 0 7.765-3.474 14.1-10.218 14.1-11.035 0-19.209-2.043-27.587-2.043-7.766 0-15.531 2.043-22.888 2.043-6.744 0-10.218-6.335-10.218-14.1 0-6.13 2.248-11.648 8.992-11.648 1.43 0 2.452.408 3.678.613 1.022.204 2.044.817 3.065.817 2.453 0 3.679-2.043 3.679-14.305v-29.427c0-12.67-1.022-14.304-3.679-14.304-2.043 0-4.087 1.43-6.743 1.43-6.744 0-8.992-5.517-8.992-11.648 0-7.765 3.474-14.1 10.218-14.1 5.926 0 10.013 2.043 14.1 2.043 4.496 0 8.788-2.043 13.488-2.043 4.495 0 6.335 1.43 6.335 8.787zm103.22 34.74c-5.313 0-5.926.818-5.926 4.292 0 11.648 9.196 20.435 21.049 20.435 7.152 0 10.83-1.839 16.552-7.97 6.54-6.948 8.787-8.174 15.531-8.174 7.97 0 14.1 4.7 14.1 12.875 0 15.53-20.026 29.018-46.592 29.018-33.514 0-54.358-22.48-54.358-55.584 0-32.288 20.027-56.81 53.54-56.81 31.47 0 49.25 18.8 49.25 49.044 0 9.4-1.226 12.874-13.488 12.874zm24.318-22.683c4.7 0 5.11-1.226 5.11-3.474 0-5.517-5.11-12.67-15.327-12.67-10.422 0-19.005 7.97-19.005 13.283 0 2.657 2.657 2.861 8.583 2.861zm63.663-5.517c0-7.97-.613-7.97-6.948-7.97-7.97 0-12.466-1.84-12.466-10.83 0-8.38 3.066-12.058 11.444-12.058 7.766 0 7.97-.817 8.174-6.743.818-22.275 20.027-31.47 40.258-31.47 6.744 0 15.122 1.225 21.048 4.29 6.948 3.679 12.262 10.218 12.262 18.188 0 8.992-6.131 15.94-15.327 15.94-6.744 0-13.896-4.7-13.896-12.057 0-2.248.613-3.474 1.84-5.518-1.431-.613-2.453-.817-4.088-.817-7.561 0-10.218 4.496-10.218 11.648 0 6.54.41 6.54 6.948 6.54 12.262 0 14.51 3.269 14.51 11.034 0 9.4-2.657 11.853-17.166 11.853-3.678 0-4.292 2.452-4.292 7.97v37.396c0 12.262.818 14.305 3.679 14.305 1.226 0 2.248-.409 3.27-.817 1.021-.205 2.247-.613 3.473-.613 6.744 0 8.992 5.517 8.992 11.648 0 7.765-3.474 14.1-12.057 14.1-8.787 0-16.961-2.043-25.34-2.043-7.765 0-15.53 1.839-22.274 2.043-7.766 0-11.24-6.335-11.24-14.1 0-6.13 2.248-11.648 8.992-11.648 1.43 0 2.657.408 3.678.613 1.226.408 2.248.817 3.066.817 3.27 0 3.678-4.291 3.678-14.305z"/><path d="m706.134 70.374c33.513 0 53.131 22.07 53.131 54.971 0 33.923-17.165 57.424-52.927 57.424-35.558 0-54.562-21.253-54.562-56.197 0-34.74 19.004-56.198 54.358-56.198zm-.614 25.749c-9.604 0-20.026 7.561-20.026 30.449 0 23.705 10.626 30.448 19.005 30.448 7.152 0 13.283-2.043 16.552-8.787 3.066-6.335 4.496-14.713 4.496-21.661 0-23.705-8.991-30.45-20.027-30.45zm104.166 37.397c0 4.291 0 11.443 2.453 15.53 2.452 3.883 6.948 6.335 11.443 6.335 5.927 0 11.444-3.065 14.714-8.174 4.291-6.539 4.7-13.487 4.7-21.048v-14.1c0-11.036-.817-14.305-3.678-14.305-1.022 0-2.044.408-3.066.613-1.226.408-2.248.817-3.678.817-6.744 0-8.992-5.517-8.992-11.648 0-7.765 3.474-14.1 12.466-14.1 6.744 0 11.24 2.043 17.983 2.043 5.518 0 9.4-2.043 14.51-2.043 5.312 0 6.539 2.248 6.539 6.743v61.306c0 12.262 1.43 14.305 3.678 14.305 2.043 0 4.087-1.43 6.744-1.43 6.743 0 8.991 5.517 8.991 11.648 0 7.765-3.474 14.1-12.057 14.1-5.109 0-9.809-2.043-14.509-2.043-4.496 0-8.991 2.043-12.874 2.043-5.109 0-7.357-3.474-7.357-6.744v-8.174h-.409c-7.56 11.24-22.274 17.575-35.966 17.575-21.048 0-33.718-12.261-33.718-32.901v-37.806c0-12.465-1.43-14.304-3.678-14.304-1.022 0-2.044.408-3.066.613-1.226.408-2.248.817-3.678.817-6.744 0-8.992-5.517-8.992-11.648 0-7.765 3.474-14.1 13.079-14.1 6.54 0 11.852 2.043 18.596 2.043 6.335 0 9.4-2.043 14.51-2.043 5.312 0 5.312 3.882 5.312 9.196zm134.487-35.967h.409c3.27-16.757 15.735-26.157 32.9-26.157 14.306 0 26.976 10.83 26.976 25.544 0 10.422-6.54 20.027-17.575 20.027-7.765 0-14.305-5.109-14.305-13.283 0-2.861 1.227-5.518 2.453-7.97-22.888-1.635-23.501 29.427-23.501 45.775 0 12.057 1.226 14.305 3.678 14.305 1.022 0 2.044-.409 3.066-.817a11.572 11.572 0 0 1 3.678-.613c6.744 0 8.992 5.517 8.992 11.648 0 7.765-3.474 14.1-10.218 14.1-11.035 0-19.21-2.043-27.588-2.043-7.765 0-15.53 2.043-22.887 2.043-6.744 0-10.218-6.335-10.218-14.1 0-6.13 2.248-11.648 8.992-11.648 1.43 0 2.452.408 3.678.613 1.022.204 2.043.817 3.065.817 2.452 0 3.679-2.043 3.679-14.305v-29.427c0-12.67-1.022-14.304-3.679-14.304-2.043 0-4.087 1.43-6.743 1.43-6.744 0-8.992-5.517-8.992-11.648 0-7.765 3.474-14.1 10.218-14.1 5.926 0 10.013 2.043 14.1 2.043 4.496 0 8.787-2.043 13.487-2.043 4.496 0 6.335 1.43 6.335 8.787z"/></g><path d="m236.489 208.88v29.977q-3.827-5.102-9.695-7.78-5.74-2.807-12.246-2.807-11.352 0-18.496 7.654-7.143 7.653-7.143 19.006 0 11.48 7.143 18.879 7.271 7.27 18.879 7.27 6.123 0 11.863-2.678 5.74-2.806 9.695-7.526v29.976q-14.542 4.465-22.068 4.465-20.537 0-36.1-14.16-15.434-13.903-15.434-36.354 0-20.664 14.159-35.206 7.143-7.271 16.838-11.353 9.694-4.21 19.771-4.21 11.098 0 22.834 4.848zm37.777.766q12.118-6.25 26.022-6.25 13.904 0 26.022 6.25 12.118 6.123 19.644 17.603 7.526 11.48 7.526 25.64 0 23.343-15.052 38.268-14.924 14.797-38.14 14.797t-38.268-14.797q-14.924-14.925-14.924-38.268 0-14.16 7.526-25.64t19.644-17.603zm45.156 25.64q-8.036-7.654-19.134-7.654-11.097 0-19.134 7.654-8.036 7.653-8.036 17.73 0 12.246 7.909 20.538 7.908 8.163 19.261 8.163 11.353 0 19.262-8.163 7.908-8.292 7.908-20.538 0-10.077-8.036-17.73zm95.378 28.063 30.232 39.416h-31.124l-23.599-36.993h-.255v36.993h-25.001v-96.18h37.374q15.052 0 24.237 7.398 9.184 7.399 9.184 22.196 0 10.332-5.613 17.858-5.485 7.526-15.434 9.312zm-24.746-37.63v23.98h2.424q17.348 0 17.348-11.99t-17.348-11.99zm61.699 77.046v-96.18h35.462q20.154 0 34.44 14.031 14.415 13.904 14.415 34.059 0 20.154-14.414 34.186-14.287 13.904-34.441 13.904zm25.002-75.005v53.83h5.612q11.99 0 19.772-6.76 7.909-6.762 7.909-20.155 0-12.629-7.526-19.772-7.526-7.143-19.9-7.143zm93.24-18.114q12.118-6.25 26.022-6.25 13.904 0 26.022 6.25 12.118 6.123 19.644 17.603 7.526 11.48 7.526 25.64 0 23.343-15.052 38.268-14.924 14.797-38.14 14.797t-38.268-14.797q-14.924-14.925-14.924-38.268 0-14.16 7.526-25.64t19.644-17.603zm45.156 25.64q-8.037-7.654-19.134-7.654-11.098 0-19.134 7.654-8.036 7.653-8.036 17.73 0 12.246 7.908 20.538 7.909 8.163 19.262 8.163 11.353 0 19.261-8.163 7.909-8.292 7.909-20.538 0-10.077-8.036-17.73zm70.632 27.68v20.665h7.271q1.148 0 4.21-.255 3.06-.255 4.464-.893 1.53-.638 3.444-1.659 2.04-1.148 2.806-2.933.893-1.914.893-4.465 0-1.913-.383-3.444-.382-1.53-1.403-2.551-.893-1.02-1.658-1.786-.765-.893-2.551-1.276-1.659-.51-2.552-.765-.892-.383-3.189-.51-2.168-.128-2.933-.128h-5.868zm13.521 39.799h-38.523v-96.18h35.717q28.573 0 28.573 25.002 0 14.286-10.587 19.644v.255q19.644 2.551 19.644 24.491 0 7.271-2.934 12.629-2.934 5.357-8.036 8.418-4.975 2.934-10.97 4.338-5.868 1.403-12.884 1.403zm-13.521-77.046v18.623h2.806q6.123 0 9.822-1.913 3.7-1.913 3.7-7.398 0-3.19-1.276-5.103-1.148-2.04-3.572-2.806-2.424-.893-4.465-1.148-2.04-.255-5.23-.255zm120.382 60.335h-34.441l-6.633 16.71h-26.533l36.993-96.18h27.297l36.227 96.18h-26.66zm-6.76-19.134-10.205-30.614h-.256l-10.332 30.614z" fill="#f00" stroke-width="6.892"/></svg>