<svg height="432" width="2500" xmlns="http://www.w3.org/2000/svg" viewBox="34.04299999999999 17.45 710.857 84.703"><path d="M83.992 77.912c-4.237 3.985-8.324 6.66-14.337 6.66-9.075 0-15.661-7.161-15.661-17.064v-.227c0-9.455 6.578-16.817 14.916-16.817 6.355 0 10.273 2.747 14.189 6.867l.627.653 12.451-13.361-.51-.569c-6.942-7.738-15.129-11.168-26.645-11.168-9.74 0-18.671 3.564-25.127 10.193-6.357 6.415-9.852 15.112-9.852 24.429v.24c0 9.29 3.517 17.927 9.881 24.314 6.427 6.507 15.266 10.086 24.857 10.086 14.182 0 21.473-5.831 27.245-12.129l.536-.621-11.965-12.086zM259.593 17.45h-19.956v16.607h-8.111v16.407h8.111v31.239c0 13.943 5.987 20.445 19.579 20.445 5.802 0 10.602-1.239 15.065-3.899l.456-.242V81.704l-1.303.669c-2.698 1.472-5.618 2.199-8.731 2.199-3.587 0-5.11-1.628-5.11-5.472V50.464h15.372V34.058h-15.372zm54.354 15.436c-9.969 0-19.168 3.564-25.883 10.12-6.664 6.455-10.337 15.185-10.337 24.502v.24c0 9.318 3.651 17.983 10.259 24.374 6.684 6.465 15.793 10.026 25.697 10.026 9.967 0 19.131-3.587 25.861-10.147 6.678-6.471 10.344-15.143 10.344-24.493v-.227c0-9.322-3.625-18.001-10.238-24.404-6.686-6.47-15.803-9.991-25.703-9.991zm15.992 34.862c0 9.892-6.572 16.824-15.992 16.824-9.286 0-16.264-7.319-16.264-17.064v-.227c0-9.905 6.559-16.817 16-16.817 9.276 0 16.256 7.33 16.256 17.043zm45.618-23.516V34.058h-19.941v66.654h19.941V75.087c0-14.407 6.536-22.029 18.934-22.029h1.821V32.901l-.817-.015c-8.968-.416-15.545 3.301-19.938 11.346zm179.34-11.346c-8.321 0-15.274 3.153-21.198 9.624-3.728-6.213-10.266-9.624-18.5-9.624-8.926 0-14.441 4.39-18.338 8.853v-7.681h-19.915v66.654h19.915V62.791c0-7.95 3.674-12.327 10.338-12.327 8.201 0 10.067 6.712 10.067 12.327v37.921h19.915V62.791c0-7.95 3.796-12.327 10.438-12.327 8.224 0 9.963 6.712 9.963 12.327v37.921h19.907V57.57c0-15.719-8.05-24.684-22.592-24.684zm-408.229 8.965c-4.271-5.31-10.878-8.964-18.592-8.964-16.775 0-31.512 15.599-31.512 34.622v.24c0 18.829 14.256 34.4 31.512 34.4 7.714 0 14.32-3.75 18.592-9.151v7.715h19.952V34.058h-19.952zm.809 25.897c0 9.892-6.304 16.824-15.373 16.824-8.889 0-15.602-7.319-15.602-17.064v-.227c0-9.905 6.309-16.817 15.392-16.817 8.88 0 15.583 7.33 15.583 17.043zm301.066-25.897c-4.285-5.31-10.885-8.964-18.609-8.964-16.768 0-31.508 15.599-31.508 34.622v.24c0 18.829 14.248 34.4 31.508 34.4 7.725 0 14.324-3.75 18.609-9.151v7.715h19.923V34.058h-19.923zm.789 25.897c0 9.892-6.301 16.824-15.355 16.824-8.899 0-15.592-7.319-15.592-17.064v-.227c0-9.905 6.293-16.817 15.371-16.817 8.858 0 15.576 7.33 15.576 17.043zm183.293-33.69v7.793c-4.271-5.31-10.863-8.964-18.607-8.964-16.768 0-31.496 15.599-31.496 34.622v.24c0 18.829 14.256 34.4 31.496 34.4 7.744 0 14.337-3.75 18.607-9.151v7.715h19.939V34.058zm.809 33.69c0 9.892-6.309 16.824-15.36 16.824-8.895 0-15.606-7.319-15.606-17.064v-.227c0-9.905 6.335-16.817 15.371-16.817 8.9 0 15.596 7.33 15.596 17.043v.241zM194.139 53.899c0-2.789 3.01-3.435 5.974-3.435 9.149 0 17.664 5.754 17.664 5.754l8.31-15.201-.664-.434c-7.173-4.863-16.511-7.727-24.947-7.727-9.191 0-26.272 5.55-26.272 20.614 0 23.444 34.574 19.128 34.574 27.925 0 2.588-3.345 3.177-6.955 3.177-10.93 0-20.329-7.315-20.329-7.315l-9.47 14.336.663.48c8.236 6.514 18.434 10.08 28.666 10.08 16.254 0 27.369-10.626 27.369-20.758-.001-22.223-34.583-19.58-34.583-27.496z" fill="#0071b9"/><path d="M727.826 50.475c9.417 0 17.074 7.622 17.074 17.017 0 9.424-7.657 17.028-17.074 17.028H687.97c-9.431 0-17.099-7.629-17.099-17.028 0-9.418 7.668-17.017 17.099-17.017z" fill="#fd0"/></svg>