<svg height="2500" viewBox="79.7 11.2 150.9 166.8" width="2500" xmlns="http://www.w3.org/2000/svg"><path d="m149.5 12c-12.4 1.4-23.6 5.2-35 11.9-19.7 11.6-30.6 29.1-33.6 54.1-1.2 10.2-.3 30.3 1.7 36.8.7 2.6 1.4 6 1.4 7.7.1 1.6.7 4.1 1.5 5.5s1.4 3.5 1.5 4.7c0 2.2 1.7 6.7 4.6 12.6.8 1.6 1.4 3.4 1.4 4.2 0 2.3 12.2 25.5 13.1 24.9.5-.3.9.4.9 1.5 0 1.2.4 2.1 1 2.1.9 0 .5-2.1-.9-4.5-.3-.6-.6-1.6-.7-2.3-.2-.8-.6-2.1-1-3-2.9-6.5-6.3-21-8.6-36.2-6.6-45 10.3-84.4 44.7-104.4 4.4-2.5 8.4-4.6 9-4.6.5 0 2.1-.6 3.5-1.3 2.9-1.5 11.7-4 20.8-5.9 11.7-2.4 7.3-4.6-9.3-4.5-5.5 0-12.7.3-16 .7z"/><path d="m170 38.3c0 1.4.5 2.9 1 3.2.6.4.8 1.1.5 1.6-.4.5.1.9.9.9.9 0 1.6.8 1.6 1.8s.6 2.7 1.4 3.7c1 1.4 1.1 2.6.5 4.3-.5 1.3-.9 6.8-.8 12.2 0 5.4-.3 10.5-.7 11.2-.5.7-.9 1.7-.9 2.3-.1 1.7-2.8 6.5-3.6 6.5-.9 0-3.9 5.8-3.9 7.7 0 .7-.9 1.3-2 1.3s-2 .7-2 1.5-.7 1.5-1.5 1.5-1.5.5-1.5 1.1c0 .5-.4.8-.9.4-.5-.3-1.6.2-2.5 1-1.8 1.9-7.5 4-8.3 3.1-.3-.3-1.1.1-1.7.9-.7 1-2.9 1.6-5.6 1.7-11.6.3-18.8-2.2-24.9-8.6-1.9-2-3.7-3.6-4-3.6-1.2 0-.5 28.5.7 30.7.7 1.2 1.2 2.9 1.2 3.9 0 1.7 5.3 13.6 7 15.7.5.7 3 3.8 5.6 7 4.9 6.3 10.3 11.6 11.8 11.7.5 0 3.1 1.3 5.8 3 2.6 1.7 5.4 3 6.1 3 .6 0 2.6.8 4.2 1.7 2.4 1.4 5.5 1.7 16.5 1.6 12.9-.1 13.8-.2 20.9-3.3 4-1.7 8.5-4.2 10-5.6 1.4-1.3 2.9-2.4 3.3-2.4.8 0 10.8-9.8 10.8-10.6 0-.2 1.4-2.3 3-4.6 1.7-2.2 3-4.7 3-5.5 0-.7.7-1.6 1.5-1.9.8-.4 1.5-1.8 1.5-3.3s.7-3.6 1.5-4.7c.8-1 1.5-3.2 1.5-4.7s.7-4.4 1.5-6.4c2.1-4.9 2.1-24.7 0-29.6-.8-2-1.5-4.8-1.5-6.2 0-1.5-.5-3.6-1.2-4.8s-1.3-3-1.5-3.9c-.4-2.4-9.3-16.8-10.4-16.8-.5 0-.9-.5-.9-1.1 0-2.4-10.8-11.1-18.9-15.2-5.9-3-11.6-4.6-19.3-5.4-4.6-.5-4.8-.4-4.8 2z"/></svg>