<svg fill="none" height="2500" viewBox="-.604 0 152.358 155.206" width="2484" xmlns="http://www.w3.org/2000/svg"><g fill="#4e9459"><path d="m121.354 139.224c-.793-.493-3.466-2.374-2.556-4.856 1.064-2.903 3.466-3.6 5.141-3s2.697 2.059 1.4 5.421c0 0-.126.35.588.488.713.137 3.191.279 3.774.824.583.544 1.199 1.306.2 5.359-.998 4.053-.62 5.344.234 5.685.849.336 2.02 1.18 4.782-1.831.009-.01.014-.015.018-.025.061-.091.35-.58.64-2.181.326-1.8.545-7.399 6.051-9.855 0 0 2.211-1.103 4.161 1.2 1.95 2.304-1.549 6.829-3.746 8.99-1.465 1.434-2.006 1.968-2.207 2.166a.262.262 0 0 0 -.056.275c.294.737 1.745 3.621 6.112 1.948.004 0 .009-.006.014-.006.158-.076 2.692-1.301 3.695-3 .942-1.601 1.875-.376 2.029-.152a.202.202 0 0 1 .038.086c.037.168.088.717-.593 1.455-.826.889-3.107 4.123-8.146 4.271h-.018c-.229-.015-4.456-.331-6.187-3.265 0 0 .052-.269-1.768 1.068-1.824 1.338-2.724 2.227-6.531 1.271s-1.955-8.008-1.451-9.178c.503-1.164.27-2.12-.849-2.263-1.12-.147-2.002-.32-2.828.702s-5.724 8.833-6.027 9.138c-.299.305-5.31 5.247-8.333-.768a.375.375 0 0 1 -.028-.102c-.018-.366-.177-2.512-1.148-1.505-1.059 1.098-4.716 5.187-6.657 4.592-1.94-.595-.177-.005-.177-.005s-1.517-.021-2.71-1.653a.218.218 0 0 1 -.034-.066c-.065-.183-.443-.992-1.875.452-1.6 1.612-5.92 2.06-7.745-1.2 0 0-1.185-1.754.35-6.737.005-.01.01-.026.014-.036.098-.198 1.013-2.176-.406-2.69-1.493-.539-2.542-.366-3.247.824-.7 1.175-5.02 8.461-6.648 8.843a.197.197 0 0 0 -.075.03c-.233.153-1.67 1.022-3.68.605-.365-.076-1.34-.788-2.884.845-1.54 1.637-5.234 1.673-6.289 1.215-1.04-.453-2.701-1.088-3.68-2.965a.27.27 0 0 1 -.029-.122c.005-.269-.116-1.235-2.24.565-2.416 2.049-6.661 3-8.187 2.13a7.122 7.122 0 0 0 -.028-.015c-.229-.086-2.949-1.098-3.15-1.485-.204-.407-.942-.173-1.534.204-.593.376-2.855 2.43-7.017.427a.16.16 0 0 1 -.042-.026c-.22-.173-2.258-1.8-2.85-2.664 0 0 .177-.158-1.605.915-2.104 1.271-5.487 4.673-11.263 1.571l-.032-.02c-.154-.127-1.498-1.159-2.669-.193-1.246 1.022-7.021 2.766-12.55.513-5.528-2.252-9.424-8.1-8.743-15.346.681-7.241 3.485-13.012 9.41-16.048 0 0 5.23-2.644 9.224-.214.005 0 .01.005.014.005.15.077 3.032 1.567 3.102 4.816v.02c-.009.178-.163 2.634-2.351 2.527-.774-.04-1.031-.05-1.031-.056.196-.05.28-.294.126-.432-.406-.361-.765-.971-.527-1.937.462-1.892-.611-2.741-1.12-2.96-.509-.218-3.658-2.074-8.589 2.309 0 0-6.26 5.675-4.544 16.943 1.707 11.187 14.93 9.178 15.993 8.187.019-.015.037-.031.06-.041.215-.091 1.27-.549 1.535-1.063.294-.574.075-.839.028-.961-.046-.122-1.558-5.995 4.11-11.024 0 0 2.763-2.278 5.156-.391.014.01.028.025.042.04.2.265 1.843 2.614-.57 6.519a.074.074 0 0 1 -.013.021c-.136.172-1.848 2.344-2.436 2.939-.615.625-2.253 2.237-2.286 2.527-.032.29-.023 1.012.635 1.363.019.01.033.02.047.03.251.229 2.91 2.471 6.867-.335 0 0 2.039-1.307 2.459-2.634.34-1.073.252-1.267.224-1.531s-.999-14.889 2.962-20.675c.005-.006.005-.011.01-.016.135-.173 2.971-3.722 4.889-.91 1.927 2.827-.635 11.563-.733 11.894 0 .005-.004.01-.004.02l-3.588 9.331s-.257.707-.01 1.536 1.797 4.622 4.67 3.813c.015-.005.033-.005.047-.005.21-.005 1.773-.091 2.548-1.393.032-.056.046-.122.032-.188-.2-.926-1.567-8.304 5.198-12.641.014-.01.032-.016.051-.026.327-.107 3.522-1.098 4.493.921 1.021 2.13-.425 6.152-2.772 8.151-.004.005-.009.01-.014.01l-3.07 3.097a.263.263 0 0 0 -.046.295c.378.778 2.244 3.869 7.115 1.413l.028-.015c.186-.132 2.286-1.642 2.692-2.639.424-1.048.527-1.424.522-2.507-.004-1.078-.522-17.599 5.482-22.272.005-.005.01-.005.014-.01.163-.107 2.949-1.922 4.418-.01 1.516 1.967.653 6.224.653 6.224s-1.47 8.156-6.643 16.592a2.348 2.348 0 0 0 -.205 1.195c.07.646 0 3.33 3.569 4.434 0 0 2.183.646 3.625-1.637a.276.276 0 0 0 .004-.275c-.648-1.073-4.898-8.212.15-12.331.023-.02.312-.234.34-.239.443-.117 3.76-.844 4.6 3.956 0 .01.005.02.005.031.019.274.228 4.296-1.446 7.388l-.014.03c-.07.184-.668 1.912 1.688 1.272 2.259-.61 5.995-7.623 6.672-8.919a.253.253 0 0 0 -.075-.326c-.858-.6-4.408-3.361-1.805-6.514 2.948-3.569 5.972-.478 6.084-.101.111.366.587 2.13-.252 4.164a.26.26 0 0 0 .07.295c.186.158.583.387 1.245.331.985-.082 4.53.193 3.947 2.644-.56 2.364-1.306 6.783-1.362 7.104 0 .015-.005.025-.005.04-.004.26.038 2.899 2.79 2.161 2.809-.752 3.345-3.742 3.378-3.925v-.015c.028-.275 1.017-8.975 7.903-10.45.009 0 .019-.005.028-.005.173-.015 1.829-.112 2.86.885.005.005.009.01.014.01.051.041.401.32.522.569.131.27.462.834 1.353.189.892-.646 1.871-1.373 2.45-.682.578.692.653 1.566-.224 2.843-.873 1.271-2.435 6.564-.005 10.607a.22.22 0 0 0 .098.091c.383.178 2.45.987 3.844-1.642 1.363-2.563 4.325-7.205 5.006-8.273.066-.153.033-.31-.084-.382zm21.629.636c1.241-2.558-.527-2.461-.527-2.461-3.406 1.891-3.074 6.6-3.074 6.6.261 1.068 2.36-1.581 3.601-4.139zm-19.702-4.8c.145-1.495-.942-1.383-.942-1.383-.49.035-.751.462-.938 1.383-.191.92.616 1.296.938 1.383.322.086.798.107.942-1.383zm-15.657 7.724c.359-2.543.359-5.263-1.236-5.553 0 0-5.603.976-5.743 8.746-.14 7.765 4.353 1.454 4.353 1.454s2.267-2.105 2.626-4.647zm-22.454-6.468c.336-.102.2-1.424.13-2.105-.07-.682-.807-.534-.807-.534-1.026.162-1.012 1.383-1.012 1.383.158 1.805 1.353 1.352 1.689 1.256zm-11.141 7.139s.793-5.995-.952-5.283-.915 4.836-.915 4.836-.317-1.343.327 1.774c.644 3.127 1.54-1.327 1.54-1.327zm-6.495-11.004s2.809-8.232.929-8.827-3.36 5.146-3.36 5.146c-1.478 4.993-1.334 10.276-1.203 11.715.126 1.439 3.634-8.034 3.634-8.034zm-15.228 9.779s2.268-3.758 1.241-4.643-2.482 1.881-2.482 1.881-1.208 2.533-1.17 4.231c.041 1.704 2.411-1.469 2.411-1.469zm-12.306-5.848s2.827-10.943 1.563-11.162c-1.264-.218-1.689 2.075-1.689 2.075-.83 1.592-1.623 10.48-1.11 11.66.513 1.174 1.236-2.573 1.236-2.573zm-13.343 6.539s2.855-3.717 2.057-5.126c-.797-1.403-2.346 1.165-2.346 1.165-.859 1.134-1.423 3.641-1.423 3.641-.705 3.503 1.712.32 1.712.32zm68.453-133.622s-9.16 12.993-6.135 26.145 12.069 14.77 4.074 28.982c0 0 1.24-6.733-5.198-13.162-6.437-6.428-10.44-28.064 7.259-41.964z"/><path d="m81.617 25.371s-4.702 14.461 1.919 23.236c6.62 8.775 8.542 10.877 8.294 13.413a39.151 39.151 0 0 0 -15.224-11.498s-3.032-7.045 0-13.348c0 0-.186 5.13 1.175 6.52-.01 0-.866-14.926 3.836-18.323z"/><path d="m51.079 0c-1.423 13.013 1.82 22.347 3.772 26.847 4.716 10.85 12.405 17.702 15.505 20.401 10.318 8.999 16.704 8.7 21.05 16.441 3.476 6.201 3.096 13.037 2.288 17.706a33.947 33.947 0 0 0 -5.558-9.887c-6.359-7.799-13.24-8.782-20.866-13.135-1.382-.79-18.357-10.79-22.407-27.715-3.25-13.45 3.072-25.548 6.216-30.658z"/><path d="m41.7 34.209a43.376 43.376 0 0 0 5.513 11.728c6.957 10.373 17.244 15.713 21.729 17.723 7.66 3.42 10.864 2.712 15.733 7.015 3.962 3.513 6.036 7.707 7.174 10.72 0 0-5.219-9.269-11.812 1.76a10.24 10.24 0 0 1 -2.991 3.052c-5.093 3.32-11.367.597-12.066.282a6.414 6.414 0 0 0 4.301-1.808 6.522 6.522 0 0 0 1.8-5.085 14.656 14.656 0 0 1 -4.943 1.695c-10.42 1.556-18.755-9.253-19.519-10.27 0 0 13.788 2.641 16.524-.695-.679.166-9.533 2.176-16.137-4.008-4.828-4.523-5.245-10.423-5.306-11.752 2.678 2.414 5.666 4.96 6.08 4.58.415-.379-2.376-3.525-4.203-7.163-1.843-3.706-3.347-9.325-1.877-17.774zm47.637 49.506s-4.047 1.675-7.534 8.703c-3.487 7.03-5.415 6.961-5.415 6.961s2.105-.86 3.897-6.927 9.052-8.737 9.052-8.737z"/><path d="m87.805 80.61s-5.432 2.254-10.134 11.71c-4.703 9.457-7.286 9.365-7.286 9.365s2.831-1.159 5.245-9.317 12.175-11.759 12.175-11.759z"/><path d="m73.51 88.9s-2.29 21.82-21.05 24.6c0 0 4.828-1.356 6.869-4.14 0 0-5.433 5.13-14.48-.99 0 0 4.206 1.238 9.59-1.977 0 0-9.22 2.472-16.337-6.242 0 0 6.312 2.967 10.525 1.546 0 0-9.59-1.732-12.562-11.063.007 0 17.94 16.007 37.445-1.733zm20.718-21.01s1.559-.062 2.86-4.574 10.025-3.832 12.622-1.296 6.067 4.944 7.612 4.747c0 0-10.209 2.713-12.932 11.372-2.723 8.66-7.425 28.305-34.005 25.338 5.177-1.793 16.483-6.554 24.875-18.109a49.005 49.005 0 0 0 6.903-13.532l-5.884 3.052 4.274-6.483-4.274 2.034 2.417-3.987z"/></g></svg>