<svg fill="none" height="2091" width="2500" xmlns="http://www.w3.org/2000/svg" viewBox="9.769962616701378e-15 0 2527.9 2113.5"><path clip-rule="evenodd" d="M1473.5 29.1c14.8-5 40.1-13.6 56-19.1 15.9-5.4 29.7-9.9 30.5-10 .8 0 15.4 4.7 32.5 10.6 6.24 2.117 12.56 4.274 18.3 6.233l.07.022.04.015c9.94 3.391 18.12 6.181 21.09 7.13.92.314 2.43.824 4.39 1.492 8.07 2.737 23.94 8.122 39.61 13.508 14.57 4.931 29.31 9.975 37.79 12.877l.01.005c2.87.98 5.01 1.714 6.2 2.118 4.7 1.6 28.3 9.6 52.5 17.8 24.2 8.3 62 21.2 84 28.7s40.1 13.7 40.2 13.8c.18.091 2.44 7.076 5.34 16.034l.86 2.666c3.2 10.2 11.8 37.2 19.1 60 7.2 22.8 14.2 44.9 15.5 49s6.3 19.9 11 35c4.8 15.1 8.3 27.8 7.8 28.2-.4.3-14.1 4.3-30.3 8.8-4.09 1.135-8.23 2.29-12.22 3.401-11.82 3.292-22.27 6.202-25.78 7.099-1.5.416-3.65 1.016-6.17 1.718l-.01.004-.01.002-.04.012-.02.005c-5.33 1.491-12.3 3.435-18.25 5.059-8.8 2.5-28.4 8-43.5 12.2-11.94 3.399-24.56 6.86-31.65 8.804l-.02.005-2.31.634-2.02.557c-.98.272-2.47.681-4.35 1.196-7.09 1.944-19.71 5.405-31.65 8.804-15.1 4.2-34.7 9.7-43.5 12.2s-17.3 4.9-19 5.3c-1.35.318-10.15 2.782-34.67 9.649l-.02.005-22.31 6.246-137-45.5c-27.53-9.105-55.39-18.329-82.35-27.259l-.31-.103-.08-.026-.02-.006c-46.62-15.442-90.56-29.994-125.54-41.506l-.6-7c-.3-3.9-.9-43.7-1.3-88.5-.5-44.8-.8-83.9-.8-92.3l21.5-7.3c11.8-4.1 33.7-11.5 48.5-16.5S1393 56.5 1412 50c19-6.4 46.7-15.8 61.5-20.9zM898 23.3c25-8.5 50.5-17.2 56.5-19.3S966.2.1 967 .1c.8-.1 22.9 7.1 49 16 18.73 6.316 40.04 13.56 54.94 18.625l.06.02.26.086c5.72 1.944 10.47 3.56 13.74 4.669 7.26 2.46 17.54 5.942 27.27 9.236l.03.01c6.08 2.057 11.93 4.04 16.7 5.654 4.97 1.683 11.53 3.911 18.55 6.3h.01l.29.1.04.014.1.035.01.001.08.03.16.052v.002c10.33 3.51 21.58 7.335 30.26 10.266 14.8 5 36.5 12.4 69 23.5v7.4c0 2.393-.14 17.149-.33 38.048v.178c-.14 14.876-.3 32.845-.47 51.674-.4 45.4-1 84.3-1.8 90.5l-35.7 11.8c-19.39 6.331-95.73 31.646-302.886 100.341l-.003.001-6.811 2.258-27-7.6c-5.228-1.448-10.293-2.859-14.734-4.096l-.021-.005c-8.12-2.262-14.146-3.941-15.245-4.199-1.7-.4-7-1.9-12-3.4l-3.769-1.057-7.571-2.126c-5.343-1.501-11.541-3.242-17.16-4.817-10.7-3-28.7-8-40-11.1s-27.5-7.6-36-10c-3.521-.994-9.186-2.589-15.824-4.457-9.387-2.642-20.718-5.831-30.676-8.643-5.828-1.611-11.409-3.164-16.272-4.517l-.007-.001c-9.318-2.592-15.998-4.451-16.721-4.582-.676-.184-4.489-1.238-9.767-2.696l-.084-.024-5.274-1.457-5.875-1.623c-10.5-2.9-26.7-7.4-36-10s-17.4-5-17.8-5.4c-.5-.3 1.2-7.4 3.8-15.6 2.5-8.2 7.7-24.7 11.5-36.5s10.1-31.6 14-44 8.6-27.2 10.5-33c1.8-5.8 6.5-20.6 10.5-33 1.314-4.179 2.606-8.267 3.76-11.92l.005-.015.02-.064.005-.015c2.256-7.14 3.98-12.598 4.31-13.786.9-3.2 1.2-3.3 23.1-10.6 12.3-4.1 37.6-12.6 56.3-19 18.7-6.5 38.5-13.2 44-15 2.23-.77 7.581-2.592 14.789-5.046 10.574-3.6 25.143-8.56 39.711-13.554 13.756-4.66 32.555-11.085 50.823-17.33l.053-.017.029-.01.012-.004c14.236-4.866 28.144-9.62 39.083-13.339zm314.99 310.114c-9.83 3.332-20.42 6.924-29.99 10.186l-3.67 1.234-7.54 2.538-.11.036c-24.9 8.371-66.18 22.254-99.68 33.592-19.82 6.707-42.08 14.203-61.88 20.871l-.02.004c-19.455 6.553-36.54 12.305-46.6 15.725-23 7.7-37.5 13.1-38.2 14.2-.7.9-1.7 4.9-2.2 8.7-.6 3.9-2.6 16-4.5 27-1.051 6.084-2.836 16.513-4.797 27.969l-.041.237-.003.017c-1.572 9.184-3.254 19.01-4.759 27.777a8017.844 8017.844 0 0 0-6.807 40.341L902 565c-.5 3-1.8 10.7-2.9 17s-4.8 27.7-8.1 47.5c-1.675 9.757-3.836 22.476-5.993 35.166l-.01.062A21592.45 21592.45 0 0 1 878.9 700.5a6754.108 6754.108 0 0 1-5.371 31.835c-.619 3.631-1.028 6.024-1.129 6.665l-.5 3.5c18.3 7.6 28.1 11.7 33.6 14.1 2.045.855 5.376 2.263 9.406 3.968l.028.011.129.055.005.002.055.023.015.007.098.041.045.019.042.018.004.002c6.749 2.853 15.358 6.493 23.173 9.754 4.848 2.061 10.731 4.56 16.792 7.134 9.816 4.169 20.098 8.537 27.208 11.566 4.396 1.873 8.632 3.673 12.249 5.21l.059.026c5.812 2.47 10.012 4.256 10.692 4.564 1.1.5 7 3 13 5.5 3.78 1.64 9.95 4.234 16.13 6.829l.03.013c3.6 1.516 7.21 3.032 10.34 4.358 2.83 1.2 6 2.532 9.16 3.865 6.34 2.667 12.67 5.335 16.34 6.935 2.12.888 5.63 2.387 9.87 4.197 6.74 2.88 15.33 6.549 23.13 9.803l2.92 1.241 4.23 1.801.25.106.38.163.03.011c10.53 4.48 21.05 8.958 25.69 10.878 5.8 2.5 16.1 6.9 23 9.8 4.31 1.812 14.95 6.32 27.57 11.667l.11.043c7.54 3.197 15.79 6.692 23.82 10.09 17.19 7.196 33.55 14.201 41.11 17.435 1.89.811 3.23 1.384 3.89 1.665 3.3 1.5 6.5 2.6 7 2.6s8-3 16.5-6.6c8.5-3.7 21.8-9.4 29.5-12.6 7.7-3.3 19.2-8.2 25.5-10.8 3.24-1.389 8.71-3.705 14.81-6.293l.05-.018.23-.101c5.69-2.41 11.92-5.047 17.41-7.388 11.5-4.9 28.7-12.2 38-16.1 3.89-1.674 8.22-3.506 12.3-5.232 5.67-2.397 10.85-4.589 13.7-5.868 4.9-2.1 19.3-8.2 32-13.5 4.79-2.036 10.1-4.285 15.26-6.468 8.53-3.609 16.63-7.038 21.24-9.032s12.71-5.423 21.24-9.032c5.16-2.183 10.47-4.432 15.26-6.468 5.4-2.298 11.52-4.886 17.35-7.355l.11-.048.03-.011.07-.033c7.79-3.298 15.06-6.375 19.44-8.253 7.7-3.3 19.2-8.2 25.5-10.8 4.83-2.07 14.72-6.258 24.39-10.353l4.08-1.73L1632 752c9.41-4.067 19.2-8.198 24.46-10.414l3.04-1.286 1.04-.443.79-.333c2.44-1.04 4.29-1.824 4.37-1.824.1-.1-1.6-10.5-3.8-23.2-2.2-12.6-6.5-37.8-9.5-56-3.1-18.1-6-35.2-6.4-38-.25-1.372-1.18-6.825-2.47-14.454l-.01-.004c-1.25-7.383-2.85-16.806-4.52-26.542-2.67-16.014-6.19-36.607-8.6-50.721-.57-3.337-1.08-6.312-1.5-8.779-.41-2.398-.88-5.166-1.39-8.186l-.01-.059-.02-.106-.01-.022-.02-.136-.02-.112c-2.24-13.185-5.28-30.996-7.53-43.879-2.7-15.9-4.9-29.3-4.9-29.7 0-.5-1-1.3-2.3-1.9-1.2-.7-28.3-10.2-60.2-21.1-15.51-5.347-32.57-11.237-47.75-16.476-16.05-5.539-29.99-10.351-37.75-13.024-5.48-1.887-11.43-3.944-17.16-5.925l-.01-.004c-10.06-3.477-19.43-6.715-24.33-8.371-4.36-1.53-12.55-4.346-21.78-7.518l-.02-.01-.13-.043-.03-.009c-7-2.407-14.58-5.015-21.54-7.42-9.36-3.235-22.32-7.705-34.84-12.021l-.17-.057-.27-.096-.07-.024c-8.97-3.093-17.69-6.098-24.65-8.502l-2.18-.752c-16.26-5.616-34.33-11.851-41.12-14.148-7-2.4-13.3-4.4-14-4.3-.6 0-10.4 3.2-21.7 7.1-6.31 2.177-17.51 5.976-29.95 10.194zM409 379l6.122-2.187c16.121-5.758 44.524-15.904 67.878-24.213 26.7-9.6 49.4-17.5 50.5-17.5 1.1-.1 16.4 3.7 34 8.4 17.6 4.6 36.3 9.6 41.5 11 2.214.596 6.586 1.754 12.089 3.212 7.42 1.966 16.896 4.476 25.911 6.888 7.088 1.851 14.646 3.845 21.383 5.622l.002.001c8.184 2.159 15.16 3.999 18.615 4.877 6.3 1.7 15.8 4.2 21 5.5 1.811.487 3.791 1.011 5.717 1.521 3.606.954 7.023 1.858 8.783 2.379 2.8.7 10.8 2.9 18 4.9 1.568.414 3.772.998 6.448 1.708 9.611 2.55 25.316 6.716 39.552 10.392 18.2 4.8 45.5 12 60.7 16.1 15.3 4.1 28.5 7.4 29.3 7.4s1.5.9 1.5 2-.7 5.5-1.5 9.8c-.8 4.2-8.3 45.1-16.5 90.7-8.3 45.7-15.5 85.3-16 88-.6 2.8-5.8 31.1-11.6 63-5.7 31.9-10.6 58-10.7 58.1-.1 0-25.9 9.6-57.2 21.4-22.6 8.448-60.686 22.736-96.374 36.124L629 808.8c-43.2 16.2-84.1 31.6-91 34.2-4.64 1.681-14.707 5.488-25.729 9.656-5.369 2.03-10.965 4.146-16.271 6.144l-7.439 2.8-2.653.998-11.03 4.15-.126.048C452.139 875.304 414.306 889.539 352 913l-29.2-13.4a7769.177 7769.177 0 0 0-33.2-15.147l-.005-.002-.062-.028-2.033-.923c-1.145-.521-2.568-1.174-4.088-1.872l-.031-.014c-2.851-1.309-6.039-2.773-8.381-3.814-3.6-1.7-19.8-9.1-36-16.4-7.974-3.642-15.803-7.237-22.019-10.09-6.413-2.944-11.11-5.101-12.481-5.71l-2.739-1.276c-2.659-1.24-5.877-2.741-8.261-3.824-3.3-1.5-9.4-4.3-13.5-6.3-4.1-1.9-11.8-5.4-17-7.7s-25.4-11.5-44.8-20.4c-7.51-3.424-16.913-7.727-26.74-12.224l-.118-.053c-15.396-7.045-31.82-14.561-43.642-19.923-19.3-8.9-38-17.5-41.5-19-3.4-1.6-6.2-3.4-6.2-3.9s6.4-15.5 14.1-33.2c2.861-6.529 5.776-13.152 8.424-19.169 4.57-10.386 8.346-18.965 9.676-22.131.651-1.48 1.382-3.127 2.126-4.806 1.77-3.991 3.618-8.16 4.674-10.694 1.318-3.163 3.948-9.105 6.127-14.028a7693.476 7693.476 0 0 0 1.745-3.944c2.18-4.923 4.81-10.865 6.128-14.028s3.948-9.105 6.127-14.028L60 613l.837-1.892.035-.08c2.18-4.923 4.81-10.865 6.128-14.028s3.949-9.106 6.128-14.029l.442-.999L74 581l.872-1.971c2.18-4.923 4.81-10.866 6.128-14.029 1.055-2.533 2.903-6.7 4.672-10.689l.002-.004.005-.012.003-.008c.742-1.672 1.47-3.312 2.118-4.787 1.25-2.975 3.81-8.783 6.689-15.316 1.96-4.447 4.067-9.229 6.011-13.684 4.8-11 9.6-22 10.8-24.5.501-1.139 1.106-2.548 1.872-4.33l.001-.004.002-.004.002-.004.005-.012.002-.005c.912-2.125 2.053-4.781 3.516-8.141l25.9-9.3c14.2-5.2 35.1-12.7 46.4-16.7 4.476-1.585 11.227-4.001 19.017-6.788l.022-.008.055-.02.037-.013c11.853-4.242 26.089-9.337 38.369-13.671 20.4-7.2 43.3-15.4 51-18.2s21-7.5 29.5-10.5l3.102-1.094c8.938-3.153 22.854-8.062 32.898-11.706 6.427-2.275 15.895-5.682 25.441-9.118l.016-.005.036-.013A9427.276 9427.276 0 0 1 409 379zm1566.86-39.627c-9.04 2.417-24.78 6.628-40.36 10.727-15.62 4.109-36.53 9.67-52.87 14.013-5.53 1.47-10.53 2.8-14.63 3.887-16.2 4.3-39.2 10.4-51 13.5s-25.3 6.7-30 8-15.5 4.2-24 6.4-21.6 5.6-29 7.6-19.6 5.2-27 7.1c-7.4 2-22.5 6-33.5 8.9-11 3-20.8 5.5-21.7 5.5-1.1 0-1.8.8-1.8 2 0 1.1.6 5.3 1.4 9.3.8 3.9 4.7 25 8.6 46.7l1.44 8.027c3.36 18.674 6.36 35.382 7.06 38.973.8 4.1 4.6 24.8 8.4 46 2.56 13.897 4.9 26.721 6.29 34.356v.012c.42 2.27.75 4.081.98 5.324l.21 1.137.08.459.04.212c.3 1.7 3.9 21.7 8.1 44.5 1.57 8.715 3.13 17.386 4.52 25.035l.09.524.07.38.01.036v.024l.04.235.03.149c2.12 11.718 3.76 20.82 4.24 23.617.8 4.7 2.1 12.1 3 16.5.8 4.4 1.6 8 1.7 8 .05.047 12.98 4.884 34.05 12.768l.06.019.37.14.12.046.1.035c23.64 8.845 57.33 21.445 94.5 35.392 10.27 3.855 20.36 7.638 30.11 11.295l31.96 11.987c41.79 15.675 72.19 27.078 75.43 28.318 4.7 1.8 15.7 6 24.5 9.3 3.63 1.362 13.23 4.974 26.39 9.928l.42.158.34.125c18.66 7.024 44.25 16.656 70.15 26.389L2176 913c41.81-19.197 58.57-26.81 63.5-29.048l1-.452c3.3-1.5 10.2-4.7 15.3-7.1 5-2.4 9.4-4.4 9.7-4.4s4.9-2.1 10.3-4.6c5.3-2.5 11.5-5.4 13.7-6.4 2.2-.9 9.2-4.1 15.5-7s14.4-6.6 18-8.2c3.6-1.7 9-4.2 12-5.5.83-.385 1.87-.869 3.04-1.407 1.16-.538 2.45-1.131 3.76-1.735l.03-.011 1.86-.858c.74-.342 1.48-.68 2.19-1.007l1.1-.512 1.02-.47c4.1-2 10.9-5 15-6.8s10.9-4.9 15-6.8c2.35-1.09 14.12-6.493 30.47-13.999l.04-.017c12.13-5.572 26.79-12.301 41.99-19.284 15.58-7.094 30.44-13.885 42.55-19.417l.09-.044c15.66-7.155 26.69-12.194 28.66-13.039 5.3-2.5 6.1-3.2 5.8-5.1-.2-1.3-5.9-14.7-12.5-29.8l-1.91-4.296c-6.03-13.604-11.73-26.446-13.09-29.704-.2-.445-.47-1.055-.8-1.809l-.59-1.335-.64-1.47-1.59-3.613c-2.78-6.314-6.65-15.12-10.48-23.773a4571.74 4571.74 0 0 1-9.21-20.953c-2.5-5.706-4.48-10.226-5.39-12.247-.73-1.641-1.61-3.674-2.53-5.796l-.04-.095-.02-.028-.01-.025-.02-.057c-1.47-3.378-3.03-6.953-4.18-9.499-1.9-4.3-5.1-11.6-7.1-16.3s-5.2-12-7.1-16.2c-1.9-4.3-5-11.4-6.9-15.8-.93-2.145-2.16-4.956-3.4-7.784l-.04-.083-.06-.133-.06-.133c-1.25-2.855-2.5-5.701-3.44-7.867-.95-2.2-2.23-5.1-3.5-8l-.06-.133-.04-.083c-1.24-2.828-2.47-5.639-3.4-7.784s-2.16-4.956-3.4-7.784l-.04-.083-.06-.133-.06-.133-.04-.083c-1.24-2.828-2.47-5.639-3.4-7.784-1.9-4.4-5.1-11.7-7.1-16.2-2-4.6-3.9-8.6-4.3-9-.3-.4-5.5-2.5-11.6-4.7-3.25-1.173-9.75-3.484-17.44-6.219l-.1-.038-.08-.028-.13-.047c-6.66-2.367-14.18-5.041-21.25-7.568-6.61-2.361-15.06-5.385-23.8-8.511l-.12-.041-.26-.094v-.002c-11.5-4.114-23.46-8.391-32.32-11.552-8.92-3.182-20.98-7.495-32.55-11.635l-.03-.013-.12-.041c-8.74-3.126-17.19-6.15-23.8-8.511-15.4-5.5-35.4-12.6-44.5-15.8s-29.8-10.6-46-16.4c-7.64-2.734-18.03-6.424-28.84-10.263A12615.35 12615.35 0 0 1 2093.5 370c-9.37-3.357-21.17-7.566-32.62-11.649l-.27-.096-.05-.019c-11.29-4.025-22.2-7.918-30.06-10.736-3.9-1.398-7.7-2.76-11.25-4.029-10.9-3.902-19.32-6.918-20.45-7.371-1.6-.6-3.8-1.1-5-1-1.3 0-6.4 1.1-11.3 2.5l-1.79.476-4.5 1.205-.12.03-.12.033zM796.5 787c16-6.1 32.8-12.6 37.5-14.5 4.7-1.8 8.5-3.4 8.5-3.4 0-.1 2.3.8 5 2 1.541.66 3.658 1.594 5.75 2.516l.021.009c1.702.75 3.386 1.493 4.729 2.075 1.652.771 6.365 2.875 12.421 5.579l.027.013A6653.614 6653.614 0 0 1 887 788.7c12.9 5.7 25.3 11.2 27.5 12.2 2.2 1.1 12.3 5.6 22.5 10.1 6.801 3.067 14.447 6.446 20.181 8.979 2.865 1.266 5.253 2.321 6.819 3.021 4.7 2 22.9 10.1 40.5 18 8.8 3.901 17.8 7.901 25.23 11.202a6522.03 6522.03 0 0 0 15.77 6.998c1.72.759 6.03 2.683 12.07 5.383l.02.007.08.036c11.48 5.13 29.17 13.038 47.33 21.074 13.44 5.993 27.53 12.267 39.59 17.636 12.88 5.738 23.45 10.442 28.41 12.664 2.26 1.013 4.6 2.06 6.89 3.09 3.15 1.411 6.22 2.792 8.95 4.014l.01.004c3.72 1.669 6.77 3.042 8.45 3.792 3.7 1.7 6.9 3.1 7.2 3.1s3.8 1.5 7.8 3.4c3.9 1.9 11.2 5.2 25.2 11.4l-.3 25.3c-.06 7.746-.26 27.095-.52 51.22l-.01.19c-.21 19.44-.45 41.95-.67 63.99-.6 49.5-1.5 121.7-2 160.5s-1 80.2-.9 113.5l-27.8 15.4c-3.05 1.7-6.22 3.46-9.4 5.23-12.76 7.09-25.64 14.25-31.4 17.37-7.2 3.9-15.5 8.5-18.5 10.2s-12.2 6.8-20.5 11.3c-4.73 2.66-9.83 5.44-13.88 7.66l-.08.04-.04.02-.02.01-.02.02c-2.89 1.57-5.22 2.84-6.46 3.55-3 1.6-10.9 6-17.5 9.7-5.48 3.07-13.59 7.53-19.61 10.84h-.01c-1.23.68-2.37 1.3-3.38 1.86-5.03 2.85-13.92 7.74-21.38 11.84l-.04.02c-1.43.78-2.8 1.54-4.08 2.24-8 4.4-29.8 16.4-48.5 26.7-14.776 8.14-29.802 16.46-37.776 20.88-1.288.72-2.392 1.33-3.281 1.82l-1.443.8-1.073.59-1.339.75-.019.01c-4.957 2.74-12.232 6.77-17.569 9.65-6.3 3.5-13.5 7.5-16 8.8-1 .56-2.465 1.38-4.124 2.3l-.062.04c-2.475 1.38-5.375 2.99-7.814 4.36-4.1 2.3-16.7 9.3-28 15.5-5.77 3.17-12.141 6.67-17.699 9.73l-.274.15c-5.21 2.87-9.678 5.33-12.227 6.72-1.955 1.09-4.356 2.41-6.876 3.8-4.438 2.44-9.243 5.09-12.624 7-4.45 2.39-14.195 7.77-23.474 12.89a3702.93 3702.93 0 0 0-5.826 3.21c-3.207 1.77-6.629 3.65-9.989 5.5l-.012.01-.212.12c-7.772 4.28-15.18 8.36-18.787 10.37-2.368 1.32-4.881 2.7-7.095 3.92l-.008.01-.032.01-.016.01c-2.624 1.45-4.821 2.66-5.849 3.25-1.9 1.1-11.2 6.2-20.5 11.3s-17.7 9.8-18.5 10.3c-1.1.7-7.4-2.4-25.5-12.9-13.2-7.6-27.8-16-32.5-18.7-3.392-2.02-9.233-5.4-14.815-8.62-2.152-1.25-4.265-2.47-6.185-3.58-6.9-4-22.6-13.1-35-20.2-6.971-4.05-14.637-8.47-20.991-12.14-4.949-2.86-9.101-5.26-11.509-6.66-5.5-3.2-21.7-12.6-36-20.8-9.283-5.32-21.557-12.42-32.255-18.6l-.234-.13-.352-.21c-5.556-3.21-10.659-6.15-14.659-8.46-11.8-6.9-27.1-15.8-34-19.8s-18.3-10.6-25.5-14.7a3880.154 3880.154 0 0 0-21.412-12.37l-1.088-.63c-5.2-3-15.6-9-23-13.3s-24.5-14.2-38-22c-5.085-2.94-10.894-6.3-16.662-9.64l-.562-.33-.13-.07-.018-.01c-9.301-5.39-18.414-10.67-24.128-13.95-5.859-3.37-15.06-8.71-24.212-14.03l-.1-.06c-5.496-3.2-10.971-6.38-15.688-9.11-7.552-4.38-14.53-8.43-19.059-11.06l-.193-.11-.211-.12-.183-.11c-2.689-1.56-4.392-2.55-4.654-2.7-1-.5-1.1-1.5-.4-4.2.5-1.9 5.3-17.2 10.7-34 5.3-16.8 16.2-51 24.2-76 7.9-25 18.9-59.7 24.4-77 1.92-6.04 4.046-12.71 6.138-19.27 3.9-12.24 7.679-24.09 9.762-30.73 3.2-10.2 10.8-34.2 17-53.5 6.1-19.2 14.4-45.3 18.5-58 1.839-5.84 4.186-13.22 6.545-20.644l.013-.043c2.766-8.702 5.547-17.45 7.542-23.813 1.328-4.235 2.579-8.213 3.637-11.577l.043-.137.03-.095.001-.005c1.848-5.878 3.089-9.823 3.089-9.886.1-.1 21.3-8.4 47.1-18.3 18.761-7.272 43.179-16.658 62.297-24.007 7.173-2.758 13.601-5.229 18.703-7.193 7.834-3.016 15.86-6.085 22.948-8.795 9.832-3.759 17.856-6.827 21.052-8.105l1.901-.726c5.545-2.116 13.425-5.122 18.599-7.174 5.8-2.3 18.8-7.3 29-11.1l2.421-.926 4.603-1.761c9.095-3.481 19.42-7.432 25.476-9.713 7.7-3 18.3-7.1 23.5-9.1a5124.97 5124.97 0 0 1 4.424-1.698l.03-.011c3.934-1.509 7.736-2.967 9.546-3.691 2.5-.9 16.9-6.4 32-12.3 7.06-2.712 16.086-6.166 25.159-9.639l.04-.015c10.32-3.95 20.696-7.921 28.301-10.846l.012-.005c14.302-5.5 38.992-14.997 54.988-21.195zm842.9 2.358l-.02.008-.1.044c-11.54 5.181-20.63 9.261-22.38 9.99-1.81.832-8.77 3.95-17.07 7.669l-.03.013-8.3 3.718c-11.6 5.2-23.9 10.7-27.5 12.2s-19.8 8.7-36 16-32.9 14.7-37 16.5c-4.1 1.7-28.4 12.5-54 23.9s-48.3 21.6-50.5 22.6-8 3.6-13 5.8-15.1 6.7-22.5 10c-2.42 1.078-4.98 2.22-7.46 3.321-5.1 2.271-9.82 4.369-12.04 5.379a2766.95 2766.95 0 0 1-12.62 5.659l-.08.038-.03.011-1.77.792c-4.7 2.1-12.5 5.5-17.4 7.6l-8.8 3.9c.2 38.8.7 88 1.2 134.5.6 46.5 1.5 119.4 2 162 .6 42.6 1 86.6 1 97.8 0 14.9.3 20.5 1.3 21.3.6.5 16.5 9.5 35.2 19.8s45.7 25.2 60 33.1c14.3 7.8 28.5 15.6 31.5 17.3 3 1.6 8.9 4.9 13 7.2s16.9 9.4 28.5 15.8c11.6 6.3 23 12.6 25.5 14 1.12.58 3.46 1.87 6.41 3.51h.01l.01.01c3.62 2 8.17 4.51 12.57 6.88 7.06 3.88 22.92 12.67 37.34 20.67l5.66 3.13 1.66.92c15.38 8.52 33.62 18.63 41.34 22.78 8 4.4 16.8 9.3 19.5 10.8 1.18.63 3.45 1.88 6.29 3.45 1.03.56 2.13 1.17 3.28 1.81l.05.02c3.24 1.79 6.88 3.8 10.38 5.72 8.3 4.6 16.8 9.3 19 10.5s12.6 6.9 23 12.7 28 15.5 39 21.5c11 6.1 35.3 19.5 54 29.8 13.79 7.6 27.36 15.14 35.06 19.42 2.75 1.52 4.74 2.63 5.74 3.18 3.7 2.2 6.9 3.9 7.2 3.9s3.5-1.7 7.3-3.9c.89-.51 2.33-1.33 4.17-2.39l5.37-3.1.11-.06c5.58-3.22 12.67-7.31 19.55-11.25 12.4-7.2 39.8-23.1 61-35.3s41.4-23.9 45-26 14.6-8.5 24.5-14.2c9.9-5.8 28.8-16.7 42-24.3s27.6-15.9 32-18.5 21.5-12.5 38-22c16.5-9.6 35.6-20.6 42.5-24.5 1.89-1.09 3.96-2.29 6.08-3.52l.12-.07c5.58-3.22 11.41-6.59 14.8-8.61 4.7-2.8 21.8-12.7 38-22s35.6-20.5 43-24.8c1.16-.67 2.49-1.45 3.97-2.3l3.03-1.76c7.79-4.51 18.05-10.46 26-15.14l3.21-1.86c9.33-5.41 17.07-9.89 17.79-10.34 1.3-.8.9-2.7-2.7-13.8-1.72-5.25-4.74-14.76-7.57-23.71l-.03-.08c-.94-2.96-1.86-5.85-2.7-8.51l-.84-2.65c-.67-2.09-1.36-4.3-2.08-6.54l-.24-.77-.06-.19-.05-.17c-2.71-8.55-5.54-17.47-7.23-22.68-2.4-7.4-7-22-10.3-32.5-2.38-7.28-6.08-18.95-9.52-29.84l-.05-.14c-1.46-4.62-2.88-9.09-4.13-13.02-1.78-5.61-4.58-14.36-7.8-24.43-4.35-13.62-9.47-29.65-13.9-43.57-6.28-19.98-12.42-39.29-15.1-47.71l-.03-.12c-.55-1.72-.95-2.97-1.17-3.67-1.3-4.1-8.3-26.2-15.5-49-3.46-10.81-7.48-23.46-11.27-35.36l-.12-.38c-4.15-13.06-8.01-25.197-10.51-32.96l-8.6-27.3c-7.7-3-28.9-11.2-52-20.1-23.1-8.8-57.3-21.9-76-29.1-7.78-2.997-15.76-6.046-22.81-8.743l-.12-.046-.02-.007c-9.83-3.758-17.85-6.826-21.05-8.104l-1.9-.725-.03-.012c-5.55-2.116-13.41-5.115-18.57-7.163-2.06-.78-5.39-2.064-9.44-3.628-7.38-2.844-17.15-6.616-26.06-9.972-13.7-5.2-30.6-11.7-37.5-14.4-3.7-1.394-8.58-3.276-13.32-5.108-4.11-1.585-8.12-3.132-11.18-4.292-4.5-1.775-10.03-3.922-14.39-5.615l-.04-.013-.02-.01c-1.5-.58-2.85-1.105-3.98-1.544L1854 834c-4.1-1.6-13.6-5.2-21-8-7.4-2.9-21.6-8.3-31.5-12-5-1.919-10.69-4.119-15.8-6.097l-.05-.019-.03-.01c-4.98-1.926-9.41-3.64-12.12-4.674-5.5-2.1-22.4-8.6-37.5-14.5-15.1-5.8-32.2-12.3-38-14.5l-4.5-1.713c-3.86-1.476-6.91-2.641-7.5-2.787-.8-.3-15.7 5.8-33.1 13.6-4.67 2.093-9.25 4.15-13.5 6.058zM1145.1 1689.1c-.1.2-.8 34.6-1.6 76.4-.7 41.8-2.1 122.6-3.1 179.5l-1.7 103.5c3.3 16.3 5.6 23.7 7.2 27 1.7 3.6 5.4 8.5 9.2 12.3 3.5 3.5 8.9 8 11.9 10s9.5 5.4 14.5 7.5 13.3 4.9 18.5 6c9.2 2.1 11.6 2.2 74 2.2 35.5 0 68.9-.3 74.3-.7l9.7-.8c-.8-43.8-1.3-62.8-1.6-70.5l-.6-14c-19.6-1.1-28.7-2.1-32.8-2.9-4.1-.7-9.5-2.4-12-3.6s-5.6-3.2-6.8-4.4c-1.3-1.1-3-3.3-3.8-4.8-.9-1.7-1.6-7.4-1.9-14.5-.3-6.5-1.2-71.4-2-144.3-.9-72.9-1.8-139.4-2-147.7l-.5-15.3c-107.3 0-140.8-.3-143.6-.6-2.8-.4-5.2-.5-5.3-.3zm-220.1.9c0 .5-2.9 36-6.5 78.8-3.5 42.7-8 97.3-10 121.2-.912 10.9-2.137 25.78-3.427 41.46l-.01.12-.005.06c-1.533 18.63-3.157 38.36-4.458 53.86-3.2 39.2-4 54.1-3.5 60.5.4 4.7 1.5 11.4 2.4 15s3.2 9.8 5.1 13.8c2.2 4.6 5.4 9.3 9.2 13.1 3.1 3.2 8.6 7.7 12.2 10s9.7 5.4 13.5 6.8c3.8 1.5 10.4 3.5 14.5 4.6 6.6 1.6 14.1 2 61 2.9 39.6.8 58.2.7 71.5-.1 9.9-.6 19.6-1.5 21.7-1.9l3.6-.7c.81-30.7 1.16-48.94 1.37-59.87.05-2.6.09-4.79.13-6.63l.2-17.5c-20.9-1-30.4-2.1-34.5-3.1-4.5-1-9.3-3-11.9-4.8-2.4-1.7-5.3-4.7-6.4-6.6-1.7-3.2-1.8-4.9-1.3-18 .3-8 2.6-54.8 5.1-104s5.2-102.5 6-118.5c.26-5.22.55-11.13.85-17.12l.01-.14c.61-12.34 1.24-25.02 1.64-32.74.5-11.5 1.2-23.4 1.5-26.2l.5-5.3c-124.3 0-150 .3-150 1zm-718 4c5-1.1 12-2.4 15.7-2.9 3.8-.5 33.1-.9 65.3-.9s100.9.3 152.7.6c51.8.4 94.4.9 94.8 1.2s-1.8 14.2-4.9 31c-2.039 11.42-4.726 26.17-6.96 38.44l-.012.06-.035.2-.007.03c-1.03 5.66-1.962 10.77-2.686 14.77-2.3 12.7-4.5 23.3-4.8 23.6-.3.4-41.6.9-91.6 1.2-80.1.5-91.7.8-96.5 2.2-3 .9-7.5 3-10 4.6-2.5 1.5-5.7 4.3-7.1 6.1s-3.7 5.6-5.1 8.3c-1.4 2.8-4.1 11.1-6.1 18.5-1.301 4.82-3.959 14.8-6.869 25.74l-.015.05-.001.01c-1.556 5.84-3.184 11.96-4.715 17.7-1.876 7.04-3.934 14.8-5.856 22.05h-.001c-2.585 9.75-4.924 18.58-6.243 23.45-2.3 8.5-4.4 18.2-4.7 21.5-.3 3.4 0 8.4.7 11.5.7 3 2.7 8.7 4.5 12.5 2 4.3 5.4 9.1 8.7 12.5 2.9 3 7.6 6.6 10.3 8 4.8 2.3 6 2.4 33 3.1 15.4.4 55.2 1.3 88.5 1.9 33.3.7 60.6 1.3 60.8 1.4.2 0-.8 6.6-2.3 14.6-.703 4.02-1.583 8.85-2.412 13.39-.82 4.5-1.59 8.72-2.088 11.61-.827 4.36-2.673 14.5-4.601 25.08l-.01.06-1.889 10.36c-2.5 13.8-5.1 27.4-7 35.9l-171.5-.3c-145.4-.2-172.5-.4-177.8-1.7-3.4-.7-9.2-2.8-13-4.5-3.7-1.7-9.4-5-12.7-7.3-3.3-2.4-8.8-7.4-12.3-11.2s-8-9.8-10.1-13.4-5-10.1-6.5-14.5-3.3-11.8-3.9-16.5c-.8-6.4-.8-10.2.1-15.2.7-3.8 6.9-26 13.8-49.5 6.9-23.6 17.5-59.5 23.5-79.8 2.16-7.31 4.772-16.13 7.489-25.3l.073-.25c4.81-16.24 9.936-33.54 13.438-45.45 5.5-18.7 12-40.3 14.4-48 2.5-7.7 6.9-18.7 9.8-24.5s8.2-14.8 11.7-20 9.8-12.9 14-17c4.6-4.5 10.9-9.3 15.6-12 4.3-2.5 11.6-6 16.1-7.7 4.6-1.8 12.3-4.2 17.3-5.3zm1927 7.3c0 .1 2.7 10.7 6 23.5 3.3 12.7 6 25 6 27.2 0 3.2-.5 4.4-2.7 6-2.5 1.9-4.3 2.1-16.8 2.1l-14-.1 4.1 17.27.27 1.13 1.04 4.39c8.65 36.42 11.8 49.68 12.39 52.21l1.3 5.5c28.5.9 32.4 1.4 34.4 2.7 1.4.9 3.3 2.8 4.3 4.2.9 1.4 3 7.4 4.6 13.4 1.6 5.9 4.8 17.7 7 26.2 1.37 5.29 3.55 13.83 5.75 22.44l.06.25.08.3.17.67c1.23 4.82 2.46 9.62 3.54 13.84 3.1 12.1 7.6 29.4 10 38.5 1.02 4.04 2.61 10.23 4.41 17.21l.04.13.01.07.05.2.01.01.05.21c2.21 8.59 4.71 18.31 6.83 26.67 4 15.4 9.3 35.7 11.8 45s5.8 19.9 7.5 23.5c1.6 3.6 4.9 9.2 7.2 12.5 2.4 3.3 6.5 8 9.2 10.4s8.3 6 12.4 8l7.5 3.6c204.1.5 209.5.4 209.1-1.2l-.11-.35-.08-.27-.21-.69-.54-1.78-1.2-3.92c-1.09-3.53-2.51-8.2-4.15-13.56-1.47-4.8-3.11-10.15-4.81-15.73-5.8-19-11.4-37-12.4-40l-1.8-5.5c-59.3-1-61-1.1-64.3-3.1-1.9-1.2-4.7-3.7-6.1-5.5-1.4-1.9-3.3-4.7-4.1-6.4-.9-1.7-6.8-19.9-13.2-40.5-6.5-20.6-13.1-42-14.7-47.5-.8-2.58-1.62-5.19-2.31-7.37v-.02c-.78-2.45-1.38-4.37-1.59-5.11-.5-1.4-4.6-14.4-9.1-29-6.6-21.5-8-27.3-7.5-30.5.3-2.2 1.4-4.8 2.3-5.9 1-1 3.3-2.5 5.1-3.2 2.4-1.1 9.7-1.4 30.2-1.4 14.8 0 27-.3 27-.7 0-.5-4.3-14.3-9.6-30.8s-10.9-34.4-12.4-39.7l-2.8-9.8c-40.8 0-55.4-.5-58.7-1-4.4-.8-7-1.9-9.8-4.3-3.7-3.1-4.2-4.2-11.6-28.2l-7.7-25c-27.1-1-60.2-1.3-91.1-1.4-31 0-56.3 0-56.3.2zm-757.7 63c.1-.1 44.5-.9 98.7-1.7s114-1.3 133-1.1c26.1.2 36.7.6 43.5 1.8 4.9.9 13.1 2.8 18 4.2 4.9 1.5 11.5 3.8 14.5 5.2s8 4.1 11 6.1c3 1.9 8.1 6 11.4 9.1 3.2 3.1 7.8 8.3 10.1 11.6s5.4 8.3 6.8 11c1.4 2.8 3.7 8.2 5.2 12 1.4 3.8 3.5 10.4 4.6 14.5 1 4.1 2.6 11.6 3.5 16.5.8 5 6 44.1 11.4 87s12.5 98.1 15.7 122.7 5.6 44.9 5.3 45.2-36.5.7-160.4 1.1l-15.7-125c-8.6-68.7-16.2-126.9-16.8-129.2-.6-2.4-2.6-5.9-4.3-7.9-1.8-1.9-4.9-4-6.8-4.6s-6-.9-9.1-.7c-3.9.3-6.8 1.2-9.7 3.2-2.6 1.7-4.8 4.1-5.7 6.5-.9 2-1.5 6.4-1.5 9.7s1.6 22.9 3.5 43.5c.83 8.52 1.69 17.59 2.48 25.92 1.12 11.81 2.09 22.09 2.62 27.08l.05.57c.8 8.45 1.86 19.76 2.45 25.43.5 5.8 1.8 19.7 2.9 31 .63 6.49 1.63 17.12 2.68 28.37.78 8.34 1.6 17.02 2.32 24.63 1.6 17.9 3.2 34.6 4 42h-171l-.5-5.2c-.3-2.9-.9-17.7-1.5-32.8s-3.7-90.5-7-167.5c-3.2-77-5.7-140.1-5.7-140.2zm-760.7-.3c-3.2.5-8.8 1.6-12.5 2.5-3.6.9-10 3-14.1 4.6-4.1 1.7-10.2 4.7-13.5 6.7s-8.9 6.6-12.5 10.2c-3.8 3.9-8 9.4-10.2 13.5-2 3.9-6.4 15.1-9.6 25-3.3 9.9-7.9 25.4-10.1 34.5-2.3 9.1-5.7 24.2-7.6 33.5-1.8 9.3-4.5 24.4-5.9 33.5s-3.2 22.3-4.1 29.5c-.8 7.2-2.2 21.3-3.1 31.5-.8 10.2-1.6 29.5-1.7 43-.1 19.5.2 25.9 1.5 31.5.8 3.8 3 9.9 4.6 13.5 2 4.1 5.4 8.9 9.4 12.9 3.5 3.6 9.5 8.6 13.3 11.1s10.4 5.9 14.5 7.5l7.5 3c252.6.4 281.6.2 282-.7.3-.7 2.7-19.3 5.4-41.3s4.8-40.2 4.6-40.5-34.7-.8-76.7-1.2c-59.6-.6-77.7-1-82.8-2.1-3.6-.8-8.1-2.2-10-3.2s-5.3-3.2-7.4-4.9-5.1-5.1-6.5-7.6c-2.4-4.1-2.6-5.4-2.5-14.5.1-5.5.6-11.9 1.3-14.2.8-3.3 2.1-4.9 5.3-7l4.2-2.8c151.7.4 182.6.2 182.6-.5 0-.5 3.1-26.8 7-58.2 3.8-31.5 7-59.9 7-63 0-3.2-.5-9.3-1.1-13.5-.6-4.3-2.2-11.6-3.5-16.3-1.4-4.7-4.4-12.3-6.7-16.9-2.7-5.5-6.5-10.9-10.8-15.5-3.6-3.9-9.5-9-13-11.3s-9.1-5.3-12.4-6.7c-3.3-1.3-9.4-3.1-13.5-3.9-6.2-1.3-23.4-1.6-100-2-50.9-.3-95.1-.2-98.4.3zm1185.4 6.2c2.5-1.5 7.4-3.7 11-5l6.5-2.3 96 .5c84.5.4 97 .6 104.5 2.1 4.7.9 12.3 3.1 17 4.7 4.7 1.7 12.3 5 17 7.4s11 6.2 14 8.4 8.1 6.6 11.4 9.8c3.2 3.1 8.2 9.3 11.1 13.7 3 4.4 6.7 11.4 8.4 15.5 1.6 4.1 3.9 10.9 5 15s8.1 31.6 15.5 61c3.63 14.24 7.13 28.04 9.89 38.94l.06.28.07.25v.01c2.87 11.33 4.92 19.44 5.48 21.52 1.1 4.1 1.9 7.6 1.8 7.8-.1.1-41.2 1.2-91.3 2.5-77.2 1.9-91.4 2.4-92.9 3.7-.9.8-2.4 2.7-3.1 4.3-.8 1.5-1.4 4.8-1.4 7.5 0 2.6 1.1 7.2 2.3 10.2 1.3 3 4.1 8 6.3 11s6.3 7.4 9 9.8c2.7 2.3 6.9 5 9.4 5.9 4 1.4 14.8 1.7 90.5 2.5 47.3.4 86.2 1.1 86.5 1.4.3.4 1.1 2.9 1.8 5.8.1.42.29 1.16.55 2.18l.84 3.36.03.12c1.81 7.16 4.99 19.8 8.28 32.94 4.7 18.4 8.8 34.4 9.2 35.5.6 2 .3 2-154.8 1.2-152.2-.7-155.6-.8-162.9-2.8-4.1-1.1-10-3.4-13-5.1s-8.4-5.2-12-7.8c-3.6-2.7-9-7.4-12.1-10.7-3-3.2-6.9-7.8-8.6-10.3s-4.4-7.3-6.2-10.7c-1.7-3.5-4.4-10.2-6-15-1.7-4.9-4.8-18.2-7-29.8-2.2-11.5-5.1-28-6.5-36.5s-3.4-22-4.5-30c-1.2-8-3-22.6-4.1-32.5-1-9.9-2.5-25.4-3.1-34.5-.7-9.1-1.3-27.3-1.3-40.5-.1-22.3.1-24.6 2.2-32 1.3-4.4 3.9-11.2 5.9-15 1.9-3.8 4.9-8.8 6.6-11s5.1-6 7.6-8.3c2.5-2.4 6.6-5.6 9.1-7zm-1109 69c1.2-1.9 4.1-4.2 7.3-5.8 4.1-2 6.3-2.4 10.2-2.1 2.8.3 6.5 1.2 8.3 2.1 1.7.9 4.1 3.1 5.2 4.8 1.8 3.1 2 5.1 2 50.8l-5.7 2.7c-5.2 2.5-7 2.8-16.3 2.8-5.9 0-13.3-.7-23.3-3l.7-8.3c.3-4.5 1.1-10.6 1.7-13.5.6-2.8 2.6-10.2 4.5-16.2 1.8-6.1 4.3-12.5 5.4-14.3zm1235.3 5.3c1.2-1.6 3.8-3.5 5.7-4.2s5.7-1.2 8.5-1.3c2.7 0 6.8.5 9 1.1 2.6.7 5.7 2.8 9 6.2 3.5 3.6 5.6 6.9 6.9 10.7 1.3 4 2 10 3.1 37.8l-6 1.9c-4.4 1.3-8.9 1.8-16.5 1.7-7.5-.1-12.1-.7-21.5-3.9l-1.7-10c-1-5.5-1.9-14.3-2-19.5-.1-7 .3-10.5 1.6-13.5.9-2.2 2.7-5.3 3.9-7z" fill="#010101" fill-rule="evenodd"/></svg>