<svg height="268pt" viewBox="105 14.9 868.2 237.1" width="1075pt" xmlns="http://www.w3.org/2000/svg"><path d="m194.5 16c-22.8 3-43.8 14.6-57.6 31.8-18.5 23-24.3 53.1-15.5 80.8l2.4 7.5-9.5 16.6c-5.2 9-9.3 16.6-9.1 16.8s3-.3 6.3-1.1c3.3-.9 12.1-1.8 19.5-2.1l13.5-.5 4.4 4c2.5 2.3 8.1 6.2 12.5 8.7 29.7 16.8 66.1 14.9 94.2-5.1 30.7-21.7 44-63.5 31.5-98.9l-2.1-5.9 9.5-16.7c5.2-9.2 9.5-16.9 9.5-17.3 0-.3-1.2-.1-2.6.4-5.7 2.2-12.4 3.2-25.3 3.8l-13.3.7-9.7 16.7c-9.5 16.6-9.6 16.8-13.1 16.8-2.7 0-18.8-2.6-33.7-5.6-2.1-.4-1.6-1.5 7.2-16.7 5.2-9 9.5-16.9 9.5-17.5 0-1.4 6.2-.8 23.4 2.4 17.8 3.3 18.1 3.3 11-2.2-11.8-9.2-27.4-15.4-43.4-17.4-9.3-1.1-10.8-1.1-19.5 0zm20.7 68.5c7.8 1.4 15.5 2.9 17 3.3l2.6.7-10 17.2c-7.2 12.5-10.5 17.3-11.8 17.3-1 0-7.9-1.1-15.2-2.4s-15.2-2.7-17.6-3.1-4.2-1-4-1.4c.2-.5 4.6-8.3 9.8-17.4 8.5-14.9 9.8-16.7 12.2-16.7 1.4 0 9.1 1.1 17 2.5zm-24.9 50.4c5.9 1.2 12.1 2.1 13.7 2.1h2.9l-3.8 6.2c-2 3.5-6.6 11.4-10.2 17.5-6.2 10.9-6.5 11.3-9.9 11.3-2.8 0-30.6-4.5-34.7-5.6-.8-.2 2.3-6.5 8.2-16.7 5.2-9 9.5-16.8 9.5-17.3 0-1.3 10.1-.2 24.3 2.5zm252.7-76.3c-8.4 1.3-9.3 2-14.7 11.6-2.9 5.1-5.1 9.3-5 9.5.2.1 2-.2 4.2-.7 6.3-1.5 20.5-1.2 29.6.7 10.1 2 26.9 2.2 32.1.4 3.2-1 4.5-2.5 8.9-10.2 2.8-5 4.9-9.2 4.7-9.4s-2.1 0-4.3.5c-6.5 1.5-18.2 1.1-30.4-1-10.5-1.8-18.8-2.3-25.1-1.4zm225 .7-5.4 1.2-5.4 9.3c-2.9 5.2-5.2 9.6-5 9.8.3.2 2-.1 3.9-.6 5.3-1.5 20.8-1.2 30 .7 9.9 1.9 26.9 2.2 31.9.5 2.9-1 4.3-2.6 8.7-10.4 2.9-5.1 5.1-9.3 5-9.5-.2-.1-2 .2-4.2.7-6.1 1.4-18.4 1.2-27.2-.5-10.9-2.2-25.7-2.7-32.3-1.2zm-320.5 26.8c-8.6 14.9-16.3 28.6-17.1 30.5-2.1 5-1.8 10.7.8 13.9 4 5.1 7.4 5.8 29.9 6.3l20.5.4 5.7-9.8 5.7-9.9-15.4-.5c-15.5-.5-18.6-1.3-18.6-4.7 0-.7 4.2-8.6 9.2-17.3l9.3-16h38l5.3-9.4c2.8-5.2 5.2-9.7 5.2-10s-14.1-.6-31.4-.6h-31.4zm162.1-19.4c-2.6 4.3-12.7 21.8-22.5 38.8l-17.9 31 12.1.3c6.7.1 12.6.1 13.2-.2.6-.2 7.8-12 16-26.2 19.9-34.6 17.2-31.4 25.6-31.4 5.5 0 7.3.4 8.9 2 2.6 2.6 2.7 2.4-12.5 28.5-6.9 12-13.2 23-14.1 24.6l-1.5 2.9h24.8l14.5-25.3c18.9-32.7 18.2-31.2 18.2-38 .1-5.4-.2-6.1-3.1-8.7-5-4.5-9-5.2-34-5.7l-23.1-.5zm75.2 2.3-5.7 10h9.5c5.4 0 9.4.4 9.4 1 0 .5-7.2 13.4-16 28.7l-16 27.8 12.7.3c11.3.2 12.9.1 14.1-1.5.7-1 8.4-14.1 17-29.1l15.7-27.2h18l3.2-5.8c1.8-3.1 4.4-7.6 5.8-10l2.6-4.2h-32.3l-32.3.1zm141.7 17.7c-15.9 27.6-16 27.8-16 34 0 7.3 2 10.7 8.1 13.8 3.3 1.6 6.5 2 20.5 2.3l16.5.4 5.7-9.8 5.7-9.9-13.3-.5c-7.2-.3-13.8-.9-14.4-1.3-2.8-1.8-2.1-3.4 14-31.2 6-10.5 11.8-20.5 12.9-22.3l2-3.2h-25.7zm68.3-3.9-13.6 23.7 18.4.3c11.8.1 18.4.6 18.4 1.3 0 .5-1 2.8-2.2 4.9l-2.3 4h-38.3l-5.6 9.6c-3.1 5.2-5.6 9.7-5.6 10 0 .2 14 .3 31.1.2l31.1-.3 13.4-23c7.3-12.7 13.3-23.3 13.4-23.8 0-.4-8.4-.7-18.6-.7h-18.5l2.7-5 2.7-5h38.2l2.7-4.8c1.5-2.6 4.1-7.1 5.8-10l3-5.2h-62.5zm82.4-17.2c-2.2 3.8-11.5 19.9-20.7 35.9-9.2 15.9-17.6 30.5-18.7 32.2l-2 3.3h26.1l6.3-11 6.3-11h21.6l-1.7 3.1c-.8 1.7-3.6 6.5-6 10.6s-4.4 7.7-4.4 7.9c0 .3 5.5.3 12.2.2l12.2-.3 16-27.8c14.7-25.5 16-28.3 16.4-33.6.4-5.5.3-5.8-3.2-8.9-6-5.2-11.6-6.3-35.2-6.9l-21.2-.6zm34.3 14.7c2.3 1.7 1.7 5.3-2 11.9l-2.7 4.8h-22l1.4-2.3c.8-1.2 3.2-5.2 5.2-9l3.8-6.7h7.2c4.5 0 7.9.5 9.1 1.3zm47-20.6c-3.6 1-6.4 3.5-7.5 6.8-2.3 7 2.3 13.5 9.6 13.5 5.8 0 9.3-3 10.1-8.7.7-5.2-1.4-8.9-6.2-10.9-1.9-.8-3.6-1.3-3.7-1.3-.2.1-1.2.4-2.3.6zm8 4.8c6.7 6.6-2 17.1-10.4 12.5-3.1-1.6-4.6-6.5-3.1-10 1.5-3.7 3.5-4.9 7.8-5 2.2 0 4.1.8 5.7 2.5z"/><path d="m956 70.1c0 4.4.3 6 1.3 5.7.6-.3 1.3-1.4 1.5-2.6.4-2.9 2-2.8 3.2.3 1.6 4.1 2.9 2.8 2.8-2.8 0-5.7-.8-6.7-5.5-6.7h-3.3zm5.8-2.3c.2.7-.3 1.2-1.2 1.2s-1.6-.7-1.6-1.6c0-1.7 2.2-1.4 2.8.4zm-540.6 20.2c-1.8.4-3.4.9-3.6 1.1-1 1.2-10.5 18.4-10.2 18.6.1.2 2.7-.1 5.6-.7 7.8-1.5 15.1-1.2 28.5 1 13.3 2.2 23.7 2.4 30.5.7 4.2-1.1 4.7-1.7 9.7-10.2 2.8-5 5.2-9.3 5.3-9.7 0-.4-1.5-.2-3.2.3-5 1.5-21.3 1.2-30.3-.5-8.3-1.7-26.5-2-32.3-.6zm228.2.1c-2.6.7-4.1 2.6-8.4 10-2.9 4.9-5 9.2-4.7 9.5.2.3 2.4 0 4.8-.5 6.9-1.6 16.6-1.3 29.5 1 11.6 2 25.7 2.2 32.2.3 1.5-.4 4-3.8 7.7-10.2 3-5.3 5.3-9.7 5.1-9.9-.1-.1-1.8.2-3.7.8-5 1.6-21.4 1.3-29.7-.5-8-1.7-27.6-2-32.8-.5zm-244 28c-3.7.9-4.4 1.6-8.4 8.7-2.4 4.2-5 8.7-5.8 9.9-1.3 2.2-1.3 2.2 2.5 1.1 5.9-1.7 21.7-1.4 32.6.6 10.6 2 28.4 1.9 32.2-.1 1.1-.6 4.3-5.1 7-9.9 6.3-11.1 6.2-10.6 2.8-9.2-4.2 1.7-23.4 1.4-33.2-.5-8.9-1.8-23-2.1-29.7-.6zm228.9.1c-3.9.8-4.5 1.4-9.7 10.4-3.1 5.2-5.6 9.7-5.6 9.9s1.7-.2 3.8-.8c5.3-1.6 23.4-1.2 32 .7 8.5 1.9 23.3 2.1 29.7.5 3.9-1 4.8-1.8 7.6-6.8 1.7-3.1 4.3-7.5 5.6-9.9l2.5-4.2-2.8 1c-5.9 2.3-17.5 2.3-30.1.1s-25.8-2.6-33-.9zm129.7 43.9c-9.3 1.8-16.5 9.7-19.4 21.2-.9 3.3-1.8 12.9-2.1 22.5-1 27.8-1.8 31.7-6.3 29.3-2.9-1.6-5.3-8.6-11.1-33.5-2.8-12-6.1-24.2-7.5-27.1-7.4-16.2-26.1-14.6-32.2 2.7-.8 2.3-2.6 13-4 23.7-3.9 30.4-5.5 33.6-17.2 33.6h-6.7l-.9 3.8c-1.3 5.1-.1 6.1 8.3 6.5 12.1.7 19.4-5.2 23.1-18.6.6-2.4 2.2-13 3.5-23.5 2.5-20.3 3.3-23.8 6.7-27.5 2.8-2.9 5.3-2.8 8.2.3 2.6 2.8 3 4.3 10.5 35.3 5.8 23.8 8.5 30.4 14.1 33.2 10.3 5.3 18.9-.5 20.5-13.6.3-2.7.9-13.7 1.4-24.5.9-21.8 2-26.1 8.4-31.5 3-2.5 3.6-2.6 10.9-2.1 6.9.4 7.9.3 8.8-1.3 1.8-3.3 1.2-7-1.2-7.9-4-1.5-11.2-1.9-15.8-1zm10 43c-8.1 2.4-11 7.7-11 20.1 0 14.5 3.8 19.8 14.7 20.6 9.7.6 17.4-3.3 14.7-7.6-1.2-1.8-2.9-1.9-10.1-.7-6.1 1.1-8.9.1-10.2-3.6-.6-1.8-1.1-3.6-1.1-4 0-.5 4.7-.9 10.4-.9 9.7 0 10.6-.2 12-2.2 2.2-3.2 2-8.6-.6-13.8-3.5-6.9-11.2-10.1-18.8-7.9zm9.5 9.4c1.4 1.3 2.5 3.3 2.5 4.5 0 1.8-.6 2-7.5 2-4.1 0-7.5-.2-7.5-.4 0-.1.5-1.8 1.1-3.5 1.9-5.3 7.5-6.6 11.4-2.6zm17.5-8.5c-2.4 2.4-2 3.6 4.2 12.3l4.8 6.7-5.5 8.1c-5.8 8.4-6.3 9.7-4.3 11.7 2.8 2.8 5.5 1.3 9.9-5.3 2.4-3.5 4.6-6.4 4.9-6.4s2.5 2.9 4.9 6.4c4.5 6.6 7.2 8 9.9 5.3 2-2 1.5-3.3-4.3-11.7l-5.5-8.1 4.8-6.7c6.2-8.7 6.6-9.9 4.2-12.3-2.8-2.8-5-1.4-9.7 5.5-2 3-3.9 5.5-4.3 5.5s-2.3-2.5-4.3-5.5c-4.7-6.9-6.9-8.3-9.7-5.5zm43.8-.7c-7.5 2.1-10 5.6-6.2 8.8 1.3 1 2.3 1 6.2-.4 2.6-1 5.6-1.7 6.7-1.7 3.1 0 6.5 2.8 6.5 5.4 0 2.1-.6 2.4-6.5 2.9-11.7 1.1-16.5 5.1-16.5 13.5 0 7.5 6.1 12.2 15.7 12.2 7.8 0 13-1.6 14.9-4.5 2.3-3.6 1.7-26.9-.9-30.8-3.7-5.7-11.3-7.8-19.9-5.4zm13.2 27.7v5h-5.9c-6.3 0-9.1-1.5-9.1-4.9 0-3.3 3.2-4.8 10.8-5l4.2-.1zm29.5-28.5c-.5.2-2.7.6-4.8 1-7.3 1.2-7.7 2.4-7.7 20.6 0 9.1.4 16.9 1 18 1.4 2.5 5.6 2.5 7 0 .5-1.1 1-8.4 1-16.4v-14.5l3.8-.7c4-.6 8.5.5 9.9 2.7.4.7 1 7.8 1.3 15.8.5 14.2.5 14.5 2.8 14.8 4.6.7 5.2-1 5.2-15.5 0-14.3-.9-18.1-5.1-22-3.3-2.9-11-5-14.4-3.8zm35 1c-7.4 2.7-10.4 9.9-6.9 16.4 1.6 2.9 3.3 4.1 9.4 6.6 7 2.8 7.5 3.3 7.5 6 0 2.8-.3 3-4 3.3-2.2.2-5.7-.2-7.8-.8-4.7-1.4-7 0-6.5 3.9.4 3.2 4.8 5 12.8 5 11.2.1 18.2-8.9 13.6-17.7-1.6-3.1-3.4-4.2-11.8-7.2-4.9-1.8-5.8-2.5-5.8-4.5 0-3.9 3.2-4.9 10.2-3.5 6.6 1.4 8.2.8 7.6-3.1-.6-4.5-11.2-7-18.3-4.4zm-314.5 24.5c0 12.7.2 15 1.5 15 .8 0 1.5-.5 1.5-1.1 0-.5 1-.3 2.2.5 5.9 4.1 12.8-.1 12.8-7.7 0-6.2-2.9-9.7-7.9-9.7-2 0-4.2.5-4.9 1.2-.9.9-1.2-.4-1.2-6 0-6.5-.2-7.2-2-7.2-1.9 0-2 .7-2 15zm13.6 2.5c1 1.5 1.4 3.4 1 4.9-2 7.9-11 7.1-11-.9 0-6.3 6.7-9 10-4zm6.4-5c0 .2 1.5 3.9 3.4 8.2 3.2 7.2 3.3 7.9 2 10.5-3.2 6.1-3.5 7.8-1.5 7.8 1.4 0 3.2-3.1 7.5-12.5 3.1-6.9 5.6-13 5.6-13.6 0-2.9-3.4.2-5.4 4.8-1.2 2.9-2.4 5.5-2.8 5.8-.3.3-1.5-2.1-2.8-5.5-1.6-4.4-2.7-6-4.1-6-1.1 0-1.9.2-1.9.5z"/></svg>