<svg height="862" viewBox="25.76 29.949 1601.825 573.632" width="2500" xmlns="http://www.w3.org/2000/svg"><path d="m1340.1 30.019c-12.072.208-24.313 1.271-36.155 2.531-36.82 4.53-72.711 16.19-105.1 34.3-31.19 17.38-59.16 40.59-81.91 68.11-28.14 33.92-48.359 74.3-58.289 117.26-9.86 42.22-9.85 86.781-.18 129.03 9.61 42.27 29.2 82.12 56.59 115.69 24.65 30.29 55.5 55.661 90.11 73.761 39.32 20.7 83.41 31.79 127.8 32.74 7.15.14 14.3.14 21.45.12.05-45.45-.07-90.91.06-136.36 22.51 18.24 50.519 29.38 79.359 31.86 28.21 2.4 56.9-2.19 82.99-13.15 22.97-9.64 43.73-24.13 60.77-42.29 28.26-29.56 45.77-68.92 48.96-109.67.96-10.24 1.03-20.652.25-30.912-2.66-57.24-23.299-113.24-58.119-158.73-34.25-44.9-81.36-79.62-134.82-98.03-21.91-7.65-44.8-12.54-67.9-14.65-4.75-.12-9.21-.72-13.871-1.51-3.965-.145-7.97-.17-11.994-.101zm-2.477 30.451c10.709-.165 21.451.59 32.351 1.77 37.38 4.42 73.671 17.18 105.55 37.2 30.15 18.92 56.369 44.17 76.569 73.48 23.89 34.66 38.941 75.21 43.421 117.07.99 7.25 1.23 14.48 1.18 21.79-11.8-47.56-48.25-87.44-94.22-104.15-24.67-9.04-51.79-11.638-77.7-7.239-31.22 5.01-60.47 20.29-82.73 42.69-18.96 19.04-32.73 43.11-39.26 69.19-3.67 14.05-4.83 28.9-4.93 43.38-8.07-2.55-16.05-5.26-23.68-9-28.42-13.43-52.31-35.94-67.56-63.42-18.52-33.26-23.58-73.45-13.84-110.25 6.64-25.87 20.59-49.84 39.63-68.55 19.95-19.92 45.55-34.05 73.07-40.21 10.764-2.5 21.44-3.585 32.148-3.75zm-147.49 47.24c-4.77 7.17-9.36 14.421-13.14 22.181-12.7 24.77-19.02 52.319-19.37 80.109.05 29.36 6.89 58.59 20.67 84.57 16.01 30.46 40.99 56.19 70.9 73.2 22.94 13.13 48.68 20.91 75 23.09.02 60.67.01 121.34 0 182.01-40.47-1.99-80.51-14.169-115.46-34.649-28.08-16.42-52.969-38.35-73.069-63.91-26.68-33.9-44.511-74.631-51.101-117.28-5.49-34.15-3.81-69.469 4.64-103 10.7-42.53 32.71-82.071 63.15-113.63 11.54-12.08 24.12-23.069 37.78-32.689zm256.06 120.65c3.598-.11 7.195-.062 10.772.15 22.38 1.37 44.291 8.912 62.621 21.842 20.19 14.16 35.93 34.349 44.36 57.549 3.18 8.41 4.93 17.11 6.45 25.93-3.81.4-7.61.42-11.43.34-21.78 0-43.55-.01-65.33 0-2.43-15.03-8.12-29.4-17.06-41.76-10.59-14.91-25.46-26.65-42.33-33.67-18.29-7.58-38.92-9.48-58.28-5.33 19.74-15.635 45.038-24.274 70.228-25.051zm-51.262 52.96a66.482 66.482 0 0 1 18.135 2.092c15.46 3.73 29.12 13.229 38.5 25.989 8.71 11.91 13.41 26.84 12.91 41.6-.02 4.38-.01 8.77-.03 13.15 41.83.11 83.66-.02 125.49.06-7.23 23.33-20.4 44.85-37.74 62.03-20.38 20.47-46.88 34.8-75.21 40.51-24.22 4.85-49.38 3.96-72.54-5.09-19.71-7.52-36.95-20.551-50.04-37.061.04-21.12.01-42.25.01-63.38-8.69.07-17.38-.05-26.06-.4-.04-9.45-.25-18.47 1.78-27.79 4.58-19.1 17.92-35.59 35.43-44.4 9.087-4.6 19.2-7.09 29.364-7.31z" fill="#00477f"/><path d="m177.05 122.17c12.08 2.08 22.21 8.58 30.77 17.11-3.48 3.74-6.9 7.52-10.39 11.24-5.58-5.04-11.2-9.68-18.31-12.42-9.27-3.48-19.81-3.52-29.07.03-8.97 3.53-16.42 10.73-20.45 19.47-4.42 9.43-5.26 20.52-2.66 30.58 2.92 11.18 10.37 20.93 20.78 26.09 9.06 4.54 20.08 4.84 29.67 1.88 8.32-2.69 14.56-7.94 20.76-13.88 3.47 3.32 6.75 6.81 10.32 10.02-2.44 2.65-5.02 5.15-7.83 7.4-18.36 15.8-47.84 17.13-67.73 3.46-10.74-7.33-18.37-18.67-21.48-31.26-3-12.67-2.28-26.42 3.05-38.38 5.56-12.84 16.37-23.43 29.42-28.54 10.3-4.31 22.26-4.58 33.15-2.8z" fill="#00467f"/><path d="m277.63 122.21c-4.52.01-9.04-.011-13.55.069-16.32 36.17-32.82 72.25-49.22 108.38 5.4.02 10.779.09 16.169-.08 4.06-9.04 8-18.23 12.311-27.15 1.52-.23 3.12-.22 4.66-.24 16.7.1 33.41-.03 50.11.08 3.98 9.15 8.13 18.23 12.14 27.37 5.56.06 11.12.05 16.67.01a50350 50350 0 0 0 -49.29-108.44zm-6.87 19.809c6.96 15.72 14.16 31.331 20.99 47.101-13.96.05-27.92.05-41.87 0 1.14-3.48 2.63-6.81 4.2-10.121 5.19-11.47 10.35-22.97 15.53-34.45.38-.84.77-1.69 1.15-2.53zm72.47-19.309c-.15 35.99-.03 71.981-.06 107.97 5.11 0 10.22.01 15.33-.02.03-12.3-.09-24.601.07-36.891 8.8-.02 17.61.07 26.42-.03 6.99-.02 13.82-1.74 20.17-4.62 7.61-3.53 14.14-9.49 17.36-17.34 2.7-6.57 3.06-13.83 2.01-20.8-1.4-8.74-6.67-16.64-14.17-21.33-8.23-5.24-17.76-6.78-27.36-6.94-13.26.02-26.519.03-39.769 0zm28.066 14.613c4.236.019 8.473.061 12.703.016 7.82-.15 16.971 2.19 21.891 8.71 5.44 7.51 5.01 19.471-1.76 26.061-5.17 5.34-12.92 7.3-20.14 7.48-8.49.18-17 .03-25.5.07.09-14.05-.15-28.17.11-42.21 4.224-.14 8.46-.145 12.696-.126z" fill="#00477f"/><path d="m443.25 122.72c26.37.01 52.74 0 79.1 0 .06 4.84.06 9.68-.01 14.51h-63.74c-.01 10.67-.01 21.35 0 32.02 19.02.01 38.05 0 57.07.01.01 4.73.01 9.47-.01 14.2-19.02 0-38.04-.01-57.06.01-.01 10.99-.01 21.99 0 32.99h64.57c.03 4.74.03 9.48.02 14.21-26.67.02-53.33.01-80 .01.04-35.98-.08-71.97.06-107.96zm145.22-.01c26.3.04 52.61 0 78.91.02.05 4.87.05 9.74.01 14.6-21.25.06-42.49-.06-63.73.07.02 10.62.01 21.25 0 31.88 7.31 1.9 14.81 3.2 22.35 3.67 6.95.25 13.56.03 19.56-3.87-.01 4.86.01 9.72 0 14.57-7.62 4.2-17.2 3.74-25.57 2.83-9.53-.72-18.37-4.01-27.8-5.09-13.69-1.72-28.1-.19-40.95 4.91-.04-4.3-.03-8.59-.11-12.89 10.78-7.18 24.75-7.84 37.27-6.94.04-14.59-.08-29.17.06-43.76zm98.24.06c26.32-.11 52.65 0 78.98-.05.1 4.84.11 9.68-.03 14.52-21.3.04-42.62-.14-63.92.09.12 10.37-.12 20.76.1 31.11.47.62 1.12.89 1.95.8 18.41.05 36.97 0 55.39.02.01 4.73.01 9.46 0 14.2-19.14.06-38.29-.11-57.43.08.02 10.96.01 21.91.01 32.87 21.63.11 43.26.02 64.89.05v14.22c-26.68-.03-53.35.06-80.03-.05.08-35.95-.1-71.91.09-107.86z" fill="#00467f"/><path d="m833.04 122.19c-2.309-.009-4.617.049-6.896.249-16.28 36.09-32.78 72.109-49.1 108.19 5.33.09 10.66.02 15.98.09 4.21-9.13 8.31-18.3 12.41-27.48 18.26-.02 36.52-.02 54.78 0 4.01 9.14 8.18 18.22 12.1 27.4 5.58.06 11.16.07 16.73-.01-16.29-36.12-32.88-72.14-49.1-108.29-2.285-.064-4.595-.139-6.903-.147zm-.066 19.909c6.92 15.7 14.09 31.29 20.92 47.03-14 .03-28 .04-41.99 0 1.02-2.68 2.129-5.31 3.329-7.91 5.89-12.91 11.55-25.951 17.58-38.801l.16-.32zm72.436-19.389c-.16 35.99-.03 71.981-.07 107.97h15.17c0-13.46.02-26.911-.01-40.361 9.15-.06 18.3-.01 27.45-.03 10.17 13.41 20.12 27 30.31 40.4 6.33-.02 12.66.01 18.99-.03-10.82-14.36-21.62-28.75-32.51-43.05 7.53-2.09 14.44-5.23 19.68-11.21 4.93-5.61 7.52-12.96 7.25-20.42.37-8.92-3.239-17.809-10.069-23.619-8.11-7.11-19.1-9.33-29.59-9.63-15.53-.03-31.07.02-46.6-.02zm31.345 14.629c5.414-.004 10.826 0 16.236.02 6.79.01 14.689 2.01 19.299 7.33 6.23 7.33 5.09 19.21-2.21 25.4-5.83 4.97-12.67 5.77-20.06 6.03-9.83.12-19.67.02-29.5.04-.01-12.93 0-25.86-.01-38.79a7820.62 7820.62 0 0 1 16.244-.03z" fill="#00477f"/><path d="m588.43 191.35c5.19.8 10.17 1.91 15.2 3.4.09 11.98.02 23.95.04 35.93h-15.26c.01-13.11-.02-26.22.02-39.33zm-511.42 70.15c8.98-.54 17.59-.62 26.21 2.28 9.57 2.89 17.24 8.68 24.34 15.52-3.33 3.41-6.43 7.1-9.89 10.38-1.57.73-2.48-.94-3.63-1.75-5.55-5.22-12.28-9.4-19.73-11.25-8.89-2.09-18.81-1.5-27.07 2.59-8.93 4.25-15.94 12.32-19.3 21.59-3.3 9.11-3.63 19.23-.95 28.54 3.68 12.79 13.57 23.54 26.5 27.2 9.02 2.71 18.71 1.78 27.32-1.87 6.67-2.97 11.82-7.47 17.09-12.39 3.36 3.38 6.87 6.6 10.28 9.93-7.53 8.25-16.82 15.01-27.68 18.04-9.98 2.68-20.56 2.98-30.62.54-12.59-2.99-23.91-10.86-31.08-21.64-13.04-19.39-12.62-47.27 1.35-66.09 8.65-11.9 22.26-19.88 36.86-21.62z" fill="#00467f"/><path d="m193.83 261.21a107.93 107.93 0 0 0 -5.582.08c-14.48.59-28.72 7.838-38.09 18.838-10.75 12.54-15.22 29.661-12.63 45.911 1.98 14.39 9.99 28.15 21.99 36.47 18.59 13.24 45.52 13.35 64.21.23 12.55-8.63 21.06-22.69 23-37.78 1.59-10.93.09-22.36-4.43-32.44-6.06-13.6-17.92-24.21-32.11-28.69-5.34-1.904-10.803-2.539-16.357-2.619zm-1.19 14.294c7.045.112 14.024 2.025 20.039 5.805 8.18 4.99 14.06 13.05 16.84 22.17 4.75 15.31 1.129 33.18-10.761 44.29-10.9 10.29-27.42 13.14-41.28 7.55-11.32-4.45-19.85-14.42-23.07-26.09-4.15-13.98-1.05-30.16 8.73-41.13 5.8-6.44 13.9-10.82 22.47-12.11 2.33-.36 4.685-.522 7.033-.485z" fill="#00477f"/><path d="m268.71 262.84c4.86-.03 9.73 0 14.59-.06 12.81 18.28 24.8 37.16 37.55 55.48 12.29-18.53 24.73-36.97 37.12-55.43 4.9-.01 9.79-.01 14.69-.01.04 35.94.02 71.88.01 107.82-5.13-.01-10.27 0-15.4-.02-.01-26.76.06-53.53-.03-80.29-11.73 17.27-23.61 34.43-35.26 51.75-.98-.08-1.95-.15-2.92-.22-11.71-17.17-23.33-34.42-35.3-51.41-.12 26.73-.01 53.45-.05 80.18-5.01.01-10.01.03-15.02-.05.03-35.91 0-71.82.02-107.74zm130.05-.02c4.88 0 9.76.02 14.64-.04 12.59 18.41 24.77 37.1 37.4 55.48 11.91-17.92 24-35.77 35.92-53.68.97-1.4 1.29-1.75 3.11-1.73 4.24-.16 8.49.03 12.73-.03.04 35.94.01 71.87.02 107.81h-15.26c-.04-26.72.08-53.45-.06-80.17-11.67 16.63-22.94 33.56-34.47 50.28-.88 1.52-2.19 1.06-3.69 1.34-11.56-17.4-23.59-34.52-35.33-51.81-.02 26.79 0 53.58-.01 80.36h-15c-.01-35.93-.02-71.87 0-107.81zm128.45 0c5.11 0 10.21-.01 15.32.01.04 21.05 0 42.13.02 63.18.16 8.49 2.24 16.98 8.04 23.42 5.83 6.17 14.09 8.63 22.41 8.49 7.77.02 15.61-2.05 21.17-7.75 6.27-6.2 8.29-15.61 8.41-24.13.01-21.07-.03-42.15.02-63.22h15.2c.08 21.06.01 42.12.04 63.18.04 10.82-2.86 22.54-9.73 31.11-5.95 7.58-14.66 12.37-24.06 14.15-8.81 1.67-18.11 1.44-26.78-.9-10.78-2.98-20.07-10.5-24.94-20.61-3.88-7.75-5.17-16.14-5.16-24.74.04-20.73-.03-41.46.04-62.19zm115.26.01c4.54-.01 9.07-.01 13.61-.01 21.2 26.67 42.22 53.5 63.43 80.16.04-26.72-.03-53.44.03-80.16h14.96c.06 35.93 0 71.87.03 107.8-4.04.01-8.08.02-12.12.01-21.66-27.33-43.28-54.71-64.92-82.06-.07 27.35-.01 54.7-.03 82.05-5 .02-10 .02-15.01 0 .01-35.93-.01-71.86.02-107.79zm119.21 0c5.25.05 10.43-.28 15.66.35-.15 35.79-.04 71.59-.06 107.39-5.2.1-10.41.09-15.62.01.03-35.91-.01-71.83.02-107.75zm34.99 0c28.63-.02 57.26-.01 85.88 0 .03 4.82.03 9.64.01 14.46-11.69 0-23.37 0-35.06.01 0 31.1 0 62.21.01 93.31-5.12.03-10.23.02-15.34.02-.01-31.1 0-62.2-.01-93.3-11.83-.1-23.67 0-35.5-.05 0-4.82-.01-9.64.01-14.45zm92.36.01c5.7.03 11.41-.14 17.11.01 1.56-.11 2.07.95 2.92 2.01 10.99 16.21 21.94 32.48 32.99 48.65 11.68-16.84 23.05-33.88 34.74-50.71 6.03.04 12.05.02 18.08.02-15.08 21.77-30.09 43.59-45.26 65.3-.07 14.17-.01 28.34-.03 42.51h-15.3c.02-14.01-.04-28.02.04-42.03-14.5-21.1-29.16-42.12-43.65-63.23-.55-.84-1.1-1.68-1.64-2.53zm-573.06 138.68c9.95-.8 19.77-.42 29.17 3.23 8.42 3.06 15.04 8.45 21.53 14.44-3.47 3.86-7.06 7.6-10.58 11.42-5.04-4.91-10.31-9.21-16.85-11.97-13.99-6.01-31.37-3.61-42.36 7.23-15.05 14.05-16.57 39.51-4.74 56.01 8.24 11.84 23.05 18.24 37.31 15.78 11.17-1.45 19.72-7.66 27.49-15.4 3.41 3.33 6.85 6.61 10.23 9.96-6.27 7.25-14.34 13.2-23.3 16.67-11.75 4.3-24.98 4.9-37.01 1.37-10.82-3.06-20.59-9.78-27.31-18.79-15.38-20.46-14.79-51.47 1.85-71.04 8.63-10.4 21.17-17.24 34.57-18.91z" fill="#00467f"/><path d="m430.24 401.19c-2.601.025-5.199.176-7.764.516-14.04 2.21-27.03 9.83-35.49 21.29-15.13 19.9-14.65 50.4 1.21 69.75 7.44 9.22 18.2 15.78 29.77 18.29 11.91 2.83 24.62 1.63 35.84-3.24 11.04-4.89 20.29-13.35 25.94-24.03 10.62-19.73 8.65-45.49-5.54-62.96-8.72-10.97-22.31-17.96-36.18-19.38-2.58-.16-5.185-.26-7.786-.235zm-.445 14.306a60.962 60.962 0 0 1 5.24.14c12.9 1.29 24.582 9.26 30.562 20.76 8.86 16.61 5.959 39.12-8.241 51.91-11.53 10.37-28.9 12.76-42.86 6.06-10.5-4.85-18.14-14.53-21.1-25.64-3.21-12.62-1.53-26.46 6.15-37.19 5.84-8.34 15.02-13.928 25.03-15.608a39.462 39.462 0 0 1 5.218-.43z" fill="#00477f"/><path d="m837.98 401.35c6.44-.22 13.17-.38 19.51.95 10.41 1.95 19.46 7.2 27.4 14.06-3.14 4.06-6.54 7.88-9.88 11.77-3.21-2.61-6.27-5.24-9.88-7.27-6.74-3.79-14.42-5.55-22.13-5.37-10.37-.25-20.46 4.53-27.41 12.12-9.35 10.43-12.51 24.81-9.95 38.43 1.94 11.73 8.79 22.36 19.48 27.87 15.5 7.92 34.03 5.03 47.84-4.98-.03-7.82.01-15.63-.03-23.45-10.55.01-21.11 0-31.66 0-.01-4.66-.01-9.33 0-14h46.68c-.01 14.77.08 29.55-.04 44.32-14.65 12.91-34.58 19.12-53.94 15.94-12.91-1.99-24.97-8.32-33.15-18.63-8.15-10.2-12-23.12-11.7-36.11-.36-12.4 3.69-24.8 11.16-34.68 8.85-11.83 22.97-19.77 37.7-20.97zm-330.01 1.55c5.14 0 10.28-.01 15.41 0 .02 31.14-.01 62.28.02 93.42 19.61-.01 39.22 0 58.83 0 0 4.78 0 9.57-.01 14.35h-74.25c-.01-35.92 0-71.85 0-107.77zm92.58.01c5.1-.02 10.19-.01 15.28-.01.36 15.05.51 30.08.08 45.13.73 10.36-.31 20.65.15 31-.14 5.81-.55 11.55.16 17.35 19.67-.08 39.35-.14 59.02.03-.02 4.72-.02 9.45 0 14.17-24.9.19-49.8.07-74.7.06.02-35.91 0-71.82.01-107.73zm92.92 0c26.38-.02 52.76-.01 79.15-.01v14.22c-21.33.01-42.66 0-63.99 0 .02 10.71-.04 21.42.04 32.13 19.03.01 38.06 0 57.08.01.01 4.76.01 9.52-.01 14.29-19.03-.01-38.07-.01-57.1 0-.01 10.98-.01 21.97-.01 32.96 21.59.02 43.19-.01 64.78.01 0 4.71 0 9.42.01 14.14-26.65.03-53.31.01-79.96.01 0-35.92 0-71.84.01-107.76zm217.7-.01c26.39.02 52.78-.06 79.17.04-.01 4.72-.01 9.44-.01 14.15-21.28.07-42.55 0-63.83.04.04 10.71-.08 21.42.07 32.13 18.99-.01 37.99 0 56.98 0 0 4.76 0 9.52-.01 14.29h-57.03c-.01 10.98-.01 21.97-.01 32.96 21.58.04 43.16-.07 64.73.06 0 4.67-.01 9.34.01 14.01-26.69.21-53.38.03-80.07.09-.01-35.92-.01-71.84 0-107.77z" fill="#00467f"/></svg>