<svg height="480" viewBox="75.2 136 485.1 97.9" width="640pt" xmlns="http://www.w3.org/2000/svg"><path d="m109.4 136.7c-3.3.6-4.9 3.1-7.4 11.3-1.2 4.1-2.6 8-3.2 8.7-.6.8-3.9 1.1-9.5 1-7.9-.2-8.6 0-10.4 2.2-3.7 4.6-2.1 6.8 7.6 10.7l4 1.6-4.6 4.1c-2.6 2.3-5.1 5.2-5.8 6.4-.7 1.4-1.1 10.3-1.1 26.2v24.1h25v-13h26.6l6.3-6.4c3.8-3.8 6.2-7.1 6.1-8.2-.6-5.6 3-10.4 8-10.4 3.6 0 3.7.6.8 3.7-1.8 1.9-2 2.7-1 4.8 1.4 3 4.2 3.2 6.7.5 2.5-2.8 3.5-2.5 3.5 1 0 1.9-.9 4-2.5 5.5-2.3 2.4-3.8 2.9-8 2.6-1.1-.1-3.5 1.4-5.5 3.4-3.3 3.4-3.3 3.5-1 3.5 1.3 0 2-.3 1.7-.7-1.7-1.6 1.9-3.3 6.8-3.3 4.3 0 6-.5 8.4-2.6 5.8-4.8 5.9-11.8.4-17.6-5.6-5.9-13.7-5.7-18.8.4-2.1 2.5-2.5 4-2.4 8 .3 5.5-1.4 7.7-4.1 5.4-.8-.7-2.3-1.6-3.2-1.9-1.2-.4-1.8-1.7-1.8-3.6 0-2.4.6-3.1 3.1-4 3-1 3.1-1.2 2.5-5.4-.9-5.6.6-7 6.3-6.1 3.9.6 4.2.5 5.2-2.5 1-2.8 1.5-3.2 4.3-2.9 2.2.2 3.2.9 3.5 2.3.5 2.8 2.1 3.6 6.1 3 4.2-.7 7.6 1.9 6 4.5-1.7 2.7-1 5.1 2 6.8 4 2.3 4.2 6.8.5 8.2-3.2 1.2-4.1 3.4-2.7 6.4.8 1.8.7 2.7-.6 4-1.5 1.5-.4 1.6 14.6 1.6h16.2v13h25.2l-.4-25.1-.3-25.1-5.3-4.7c-2.8-2.5-5.2-5.1-5.2-5.8s2.5-2 5.5-2.8c6.5-1.9 8.2-4.2 6.3-8.3-1.3-2.6-1.6-2.7-11.2-3.2l-10-.5-2.7-8.5c-1.8-5.6-3.7-9.3-5.4-10.7l-2.6-2.3-40.2.1c-22.1.1-41.2.4-42.3.6zm83.7 16.5c1.5 4.7 3 10 3.4 11.7l.7 3.1h-46.1c-43.3 0-46.1-.1-46.1-1.8 0-2.2 3.3-13.6 5.3-18.5l1.6-3.7 39.3.2 39.2.3zm18.7 32.4c2.6 1.8 3 6.9.8 10-1.2 1.6-2.9 2-11.6 2.2-12.3.5-16.3-.7-15.8-4.7.5-4.4 7.1-7 23.3-9 .6 0 2.1.6 3.3 1.5zm-106.4.8c7.1 1.7 11.1 4.5 11.1 7.7 0 3.6-5.8 5.2-16.3 4.6-9.4-.5-12.2-2.1-12.2-6.9 0-5.3 1.5-6.8 6.8-6.8 2.6 0 7.3.7 10.6 1.4zm264.3-42c-4.9 1.8-6.7 3.4-8.4 7.3-5.1 12.3 5.2 24.2 17.7 20.4 2.1-.6 5.1-2.6 6.6-4.4l2.7-3.2-2.7-.3c-1.5-.2-3.7.5-5.2 1.7-3.7 2.9-9.4 2.8-12.3-.3-4.4-4.6-3.4-13.8 1.8-16.6 3.1-1.6 7.9-1.2 10.1 1 1.1 1.1 3.3 2 5.1 2 3 0 3.1-.1 1.7-2.3-1.5-2.4-9.2-6.7-11.8-6.7-.8.1-3.2.7-5.3 1.4zm172 0c-4.9 1.8-6.7 3.4-8.4 7.3-5.1 12.3 5.2 24.2 17.7 20.4 2.1-.6 5.1-2.6 6.6-4.4l2.7-3.2-2.7-.3c-1.5-.2-3.7.5-5.2 1.7-3.7 2.9-9.4 2.8-12.3-.3-4.4-4.6-3.4-13.8 1.8-16.6 3.1-1.6 7.9-1.2 10.1 1 1.1 1.1 3.3 2 5.1 2 3 0 3.1-.1 1.7-2.3-1.5-2.4-9.2-6.7-11.8-6.7-.8.1-3.2.7-5.3 1.4zm-255.7 14.1v14.5h2.5c2.5 0 2.5 0 2.5-9.5 0-5.2.3-9.5.8-9.5.4 0 2.5 4.3 4.6 9.6 5 12.3 6.4 12.4 11.2.4 1.9-4.6 3.9-8.9 4.4-9.4.7-.7 1 2.3 1 8.7 0 9.7 0 9.7 2.5 9.7h2.5v-29h-3.2c-3.2 0-3.4.2-7.7 10.5-2.4 5.8-4.7 10.5-5.1 10.5-.3 0-2.6-4.7-5-10.5-4.3-10.3-4.4-10.5-7.7-10.5h-3.3zm45 0v14.5h8.5c7.8 0 8.5-.2 8.5-2 0-1.6-.8-1.9-5.7-2.2l-5.8-.3-.3-4.3-.3-4.2h5c4.4 0 5.1-.3 5.1-2s-.7-2-5-2h-5v-8h6c5.3 0 6-.2 6-2s-.7-2-8.5-2h-8.5zm70 0v14.5h2.5c2.4 0 2.5-.2 2.5-6.5v-6.5h14v6.5c0 6.3.1 6.5 2.5 6.5h2.5v-29h-2.5c-2.4 0-2.5.3-2.5 6v6h-14v-6c0-5.7-.1-6-2.5-6h-2.5zm45.5-13.3c-.2.7-2.5 6.9-5 13.7-2.5 6.9-4.5 12.8-4.5 13.3 0 .4 1.1.8 2.4.8 1.8 0 2.7-.8 3.5-3 1-2.9 1.2-3 7.5-3s6.5 0 7.1 3c.5 2.5 1.2 3 3.5 3h2.9l-4.1-11.3c-2.2-6.1-4.5-12.7-5.1-14.5-.9-2.8-1.5-3.2-4.4-3.2-1.8 0-3.6.6-3.8 1.2zm8.5 17.5c0 .2-2 .3-4.5.3s-4.5-.4-4.5-.9c0-.7 1.9-6.7 3.6-11.1.4-.9 1.5 1.1 3 5 1.3 3.6 2.4 6.6 2.4 6.7zm21-4.2v14.5h5v-10c0-5.5.4-10 .9-10 .4 0 3.7 4.5 7.2 10 5.6 8.7 6.7 10 9.1 10h2.8v-29h-2.5c-2.4 0-2.4.1-2.7 10.2l-.3 10.3-6.9-10.3c-6.1-8.9-7.3-10.2-9.8-10.2h-2.8zm38 0v14.5h5v-29h-5zm-182.9 42.7c-5.2 2.7-8.1 7.4-8.1 13.1 0 13.7 16.7 19.6 25.9 9.2 2.6-3 3.1-4.4 3.1-8.8 0-12.1-10.6-18.9-20.9-13.5zm13 5.7c4.3 4.3 3.8 12.1-1 15.8-2.8 2.2-9.5 1.6-12-1.1-3-3.2-3.7-8.5-1.7-12.4 3.1-6.1 9.8-7.1 14.7-2.3zm-58.1 7.6v14.5h5v-10c0-5.5.4-10 .9-10 .4 0 3.7 4.5 7.2 10 5.6 8.7 6.7 10 9.1 10h2.8v-29h-2.5c-2.4 0-2.4.1-2.7 10.2l-.3 10.3-6.9-10.3c-6.1-8.9-7.3-10.2-9.8-10.2h-2.8zm78-13.8c0 .5 1.6 7 3.6 14.5l3.7 13.8h6.3l2.8-10.6c1.6-5.8 3.1-10.2 3.5-9.9.3.4 1.7 5 3.1 10.3 2.5 9.6 2.5 9.7 5.7 10 3 .3 3.3.1 4.3-4 1.7-6.2 6.2-22.1 6.7-23.6.4-.8-.5-1.2-2.4-1.2-3 0-3 .1-5.3 10.2-1.2 5.7-2.6 10.6-2.9 11.1-.4.4-1.5-2.7-2.5-6.9-3.5-14.9-3.4-14.6-6.8-14.2-3 .3-3.2.5-5.9 10.6-1.5 5.7-2.9 10.6-3.2 10.8-.6.6-1-.8-2.7-8.6-2.7-12.5-2.9-13-5.5-13-1.4 0-2.5.3-2.5.7z"/><path d="m156 219c-1.1.7-.3 1 3 1s4.1-.3 3-1c-.8-.5-2.2-1-3-1s-2.2.5-3 1z"/></svg>