<svg height="2500" viewBox="1 1 500 500" width="2500" xmlns="http://www.w3.org/2000/svg"><path d="m501 105c0 97.354 0 194.708-.332 292.525-.898 1.229-1.849 1.94-1.972 2.772-2.127 14.318-8.249 27.12-15.19 39.547-6.766 12.113-15.71 22.722-25.88 31.963-10.517 9.555-23.104 16.318-36.487 21.168-6.775 2.454-13.969 3.738-20.926 5.718-1.193.34-2.148 1.517-3.213 2.307-.444 0-.889 0-1.617-.256-.554-.465-.824-.674-1.094-.883l-.289 1.139c-95.354 0-190.708 0-286.505-.307-1.287-.677-2.1-1.252-2.981-1.388-16.808-2.59-32.167-8.971-46.627-17.719-10.007-6.053-18.21-14.054-25.806-22.912-15.654-18.257-26.086-38.788-29.14-62.838-.128-1.011-1.27-1.894-1.941-2.836 0-94.354 0-188.708.39-283.588.884-2.684 1.383-4.84 1.867-7 6.327-28.232 19.364-52.393 41.948-71.158 16.163-13.43 33.708-23.634 54.671-27.314 2.147-.377 4.088-1.932 6.124-2.94 95.354 0 190.708 0 286.512.294 1.283.7 2.08 1.336 2.957 1.478 16.503 2.658 31.998 8.124 46.117 17.086 15.382 9.765 28.567 21.91 38.497 37.34 9.123 14.178 15.836 29.355 19.022 46.002.133.696 1.241 1.204 1.895 1.8m-443.082 152.435c40.762 40.77 81.518 81.544 122.29 122.302 7.148 7.146 11.307 7.125 18.465-.09 6.997-7.051 13.928-14.169 21.127-21.5 7.745 7.801 14.872 15.017 22.041 22.191 6.98 6.985 11.073 6.974 18.053-.077 7.102-7.173 14.147-14.402 21.316-21.708 7.968 7.993 15.352 15.45 22.794 22.85 5.844 5.81 10.523 5.944 16.308.171a93650.844 93650.844 0 0 0 122.321-122.274c5.832-5.84 5.697-10.515-.074-16.287-38.995-39.002-78-77.994-117.004-116.987-12.31-12.307-13.667-12.32-25.902-.039-5.823 5.845-11.587 11.748-17.57 17.82-8.01-8.084-15.373-15.559-22.788-22.98-5.738-5.743-10.477-5.776-16.27-.01-7.432 7.398-14.761 14.901-22.326 22.553-7.918-7.946-15.494-15.651-23.189-23.236-5.335-5.26-10.288-5.287-15.61.027-41.035 40.969-82.034 81.975-123.016 122.998-4.643 4.648-4.908 7.947-.966 14.276z" fill="#251159"/><path d="m501 104.531c-.654-.127-1.762-.635-1.895-1.33-3.186-16.648-9.899-31.825-19.022-46.003-9.93-15.43-23.115-27.575-38.497-37.34-14.119-8.962-29.614-14.428-46.117-17.086-.877-.142-1.674-.778-2.489-1.478 35.946-.294 71.871-.294 108.02-.294zm-395.469-103.531c-1.567 1.008-3.508 2.563-5.655 2.94-20.963 3.68-38.508 13.884-54.67 27.313-22.586 18.765-35.623 42.927-41.95 71.16-.484 2.16-.983 4.315-1.866 6.53-.39-35.869-.39-71.795-.39-107.943zm-104.531 392.469c.67.473 1.813 1.356 1.941 2.367 3.054 24.05 13.486 44.58 29.14 62.838 7.595 8.858 15.799 16.859 25.806 22.912 14.46 8.748 29.82 15.13 46.627 17.72.88.135 1.694.71 2.513 1.387-35.288.307-70.549.307-106.027.307zm396.469 107.531c.596-.79 1.551-1.967 2.744-2.307 6.957-1.98 14.151-3.264 20.926-5.718 13.383-4.85 25.97-11.613 36.486-21.168 10.171-9.24 19.115-19.85 25.881-31.963 6.941-12.427 13.063-25.229 15.19-39.547.123-.833 1.074-1.543 1.972-2.304.332 34.268.332 68.528.332 103.007zm-3.219 0c-.154-.38-.057-.76.039-1.139.27.209.54.418.76.883-.049.256-.549.256-.799.256z"/><path d="m57.649 257.182c-3.673-6.076-3.408-9.375 1.235-14.023 40.982-41.023 81.98-82.029 123.016-122.998 5.322-5.314 10.275-5.286 15.61-.027 7.695 7.585 15.271 15.29 23.189 23.236 7.565-7.652 14.894-15.155 22.327-22.553 5.792-5.766 10.531-5.733 16.269.01 7.415 7.421 14.778 14.896 22.789 22.98 5.982-6.072 11.746-11.975 17.569-17.82 12.235-12.28 13.592-12.268 25.902.04 39.004 38.992 78.009 77.984 117.004 116.986 5.77 5.772 5.906 10.446.074 16.287a93650.844 93650.844 0 0 1 -122.32 122.274c-5.786 5.773-10.465 5.639-16.309-.171-7.442-7.4-14.826-14.857-22.794-22.85-7.17 7.306-14.214 14.535-21.316 21.708-6.98 7.05-11.073 7.062-18.053.077-7.17-7.174-14.296-14.39-22.041-22.191-7.199 7.331-14.13 14.449-21.127 21.5-7.158 7.215-11.317 7.236-18.465.09-40.772-40.758-81.528-81.533-122.56-122.555m81.827 60.842 49.259 49.301 20.303-19.67c-.986-1.033-1.98-2.117-3.02-3.157-28.161-28.147-56.327-56.289-84.49-84.432-6.635-6.63-6.665-11.136-.04-17.762 25.795-25.8 51.583-51.606 77.432-77.352 3.734-3.718 7.786-7.119 10.708-9.774l-20.147-20.432-116.543 116.74zm275.045-82.044-101.456-101.442-20.436 20.462c1.712 1.446 3.734 2.922 5.485 4.67a97000.77 97000.77 0 0 1 81.648 81.6c7.63 7.632 7.602 11.578-.043 19.218-26.981 26.961-53.95 53.936-80.952 80.877-2.297 2.291-4.805 4.372-6.743 6.124l20.37 20.421 116.89-117.293c-4.582-4.542-9.422-9.34-14.763-14.638m-141.07 47.97 33.084-32.788-55.12-55.094-55.49 55.533c18.12 18.157 36.443 36.514 54.9 55.007 7.303-7.321 14.71-14.745 22.626-22.658m27.546-100.444c-6.126-6.314-12.253-12.627-18.196-18.75l-20.498 20.423c18.396 18.323 37.048 36.899 55.696 55.477 8.103 8.072 8.074 11.635-.155 19.862-16.266 16.26-32.51 32.54-48.825 48.75-2.686 2.668-5.688 5.018-7.728 6.802l20.16 20.428 86.094-86.231a2500296.7 2500296.7 0 0 0 -66.548-66.761m-111.917 82.917c-2.004-1.998-4.016-3.99-6.012-5.997-6.935-6.973-6.9-10.947.182-18.036 18.123-18.142 36.255-36.273 54.375-54.417 1.117-1.119 2.158-2.313 2.296-2.462l-19.388-19.722-85.356 85.238 84.823 85.276 19.603-19.526c-16.537-16.48-33.28-33.168-50.523-50.354m53.358-101.358 8.13 8.372 19.806-19.62-18.993-19.412-19.967 20.1c3.347 3.201 6.933 6.632 11.024 10.56m8.062 163.03-18.931 19.75 19.407 19.86 19.557-20.069c-6.24-6.139-12.849-12.64-20.033-19.542z" fill="#faf9fb"/><path d="m139.225 317.775c-22.381-22.38-44.511-44.512-66.288-66.29l116.543-116.74 20.147 20.433c-2.922 2.655-6.974 6.056-10.708 9.774-25.849 25.746-51.637 51.552-77.432 77.352-6.625 6.626-6.595 11.132.04 17.762 28.163 28.143 56.329 56.285 84.49 84.432 1.04 1.04 2.034 2.124 3.02 3.157l-20.303 19.67z" fill="#271359"/><path d="m414.77 236.23 14.513 14.388-116.89 117.293-20.37-20.421c1.938-1.752 4.446-3.833 6.743-6.124 27.002-26.941 53.97-53.916 80.952-80.877 7.645-7.64 7.672-11.586.043-19.218a97000.77 97000.77 0 0 0 -81.648-81.6c-1.75-1.748-3.773-3.224-5.485-4.67l20.436-20.463z" fill="#261359"/><path d="m273.194 284.194a42048.789 42048.789 0 0 0 -22.371 22.413c-18.457-18.493-36.78-36.85-54.9-55.007l55.49-55.533 55.12 55.094a123824.29 123824.29 0 0 1 -33.34 33.033z" fill="#261359"/><path d="m301.245 183.755 66.298 66.51-86.093 86.232-20.161-20.428c2.04-1.784 5.042-4.134 7.728-6.802 16.315-16.21 32.559-32.49 48.825-48.75 8.23-8.227 8.258-11.79.155-19.862-18.648-18.578-37.3-37.154-55.696-55.477l20.498-20.424c5.943 6.124 12.07 12.437 18.446 19z" fill="#271359"/><path d="m189.328 266.672 50.273 50.104c-6.745 6.72-13.27 13.219-19.603 19.526l-84.823-85.276 85.356-85.238 19.388 19.722c-.138.15-1.179 1.343-2.296 2.462-18.12 18.144-36.252 36.275-54.375 54.417-7.083 7.09-7.117 11.063-.182 18.036 1.996 2.007 4.008 3.999 6.262 6.247z" fill="#261359"/><path d="m242.184 164.816c-3.839-3.68-7.425-7.11-10.772-10.313l19.967-20.099 18.993 19.412-19.806 19.62c-2.225-2.291-5.177-5.332-8.382-8.62zm8.602 163.477a4405.926 4405.926 0 0 1 19.745 19.342l-19.557 20.07-19.407-19.86c6.114-6.38 12.523-13.066 19.22-19.552z" fill="#281559"/></svg>