<svg clip-rule="evenodd" fill-rule="evenodd" height="944" image-rendering="optimizeQuality" shape-rendering="geometricPrecision" text-rendering="geometricPrecision" viewBox="3.68 -.36 10596.02 3874.41" width="2500" xmlns="http://www.w3.org/2000/svg"><path d="m7743.87 2889.21h-57.94l4.94-13.34 878.92-2387.01 1.91-5.28h65.54l1.99 5.28 882.31 2387.01 4.85 13.34h-59.22l-1.91-5.39-309.79-838.9h-1098.52l-306.5 838.82-2.02 5.46h-4.56zm-6678.36 3.03c-73 0-144-7.88-212.82-23.68-68.8-15.72-135.71-39.56-200.39-71.18-32-15.62-63.23-32.72-93.49-51.37-30.44-18.63-59.76-38.73-87.92-60.13-28.3-21.48-55.64-44.32-81.59-68.36-25.04-23.1-49.27-47.61-72.48-73.35h-.08l-2.92-3.39c-24.3-27.04-47.15-55.39-68.62-84.63-21.4-29.25-41.68-59.94-60.77-92.01-19.12-31.99-36.76-65.15-53.03-99.16a1325.872 1325.872 0 0 1 -45.12-106.65c-13.8-36.91-25.95-74.37-36.1-111.93-10.31-37.84-18.91-76.39-25.85-115.51-6.87-39.22-12.07-78.96-15.54-119.01-3.37-40.09-5.11-80.87-5.11-122.16 0-41.86 1.74-83.08 5.21-123.56 3.55-40.49 8.86-80.4 15.8-119.7 7.04-39.22 15.9-77.77 26.42-115.61 10.59-37.92 22.84-75.12 36.91-111.56 13.98-36.37 29.25-71.74 45.69-105.74 16.53-34.17 34.28-67.17 53.18-99.06 19.09-31.99 39.3-62.76 60.59-92.11 21.29-29.51 43.95-57.95 67.89-85.26 23.86-27.25 48.81-53.1 74.76-77.57a1090.9 1090.9 0 0 1 81.13-68.91c27.98-21.4 57.12-41.58 87.45-60.33 30.26-18.62 61.42-35.82 93.6-51.52 32.43-15.91 65.43-29.79 98.87-41.58 33.45-11.81 67.61-21.76 102.45-29.61 34.63-7.87 69.99-13.91 105.81-17.82 36.01-3.93 72.46-5.85 109.37-5.85 77.51 0 152.89 9.14 226.01 27.51 73.1 18.45 143.92 45.95 212.54 82.86 34.19 18.29 67.35 38.21 99.34 59.79 31.99 21.37 62.87 44.5 92.58 69.16 29.51 24.51 58.21 50.83 85.72 78.67 27.58 27.98 54.01 57.41 79.21 88.28l6.04 7.42 5.49 6.76-6.14 6.4-6.58 6.58-29.79 30.52-5.11 5.2-8.05 8.14-6.84-9.04-4.59-6.04a1115.563 1115.563 0 0 0 -71.83-85.25c-24.84-26.6-50.88-51.72-78.2-75.2a972.433 972.433 0 0 0 -84.73-65.53c-29.32-20.21-59.84-38.75-91.37-55.74-31.53-16.89-63.8-31.71-96.52-44.33-32.8-12.69-66.6-23.28-101.16-31.79a863.994 863.994 0 0 0 -105.64-19.01c-35.9-4.22-72.74-6.32-110.4-6.32-34.34 0-68.07 1.84-101.16 5.49-33.15 3.76-65.98 9.22-98.15 16.55a849.217 849.217 0 0 0 -94.84 27.59c-31.08 10.95-61.88 23.94-91.93 38.64-30.43 14.71-59.6 30.91-87.65 48.16a990.886 990.886 0 0 0 -81.6 56.39 937.562 937.562 0 0 0 -75.66 64.43 1011.162 1011.162 0 0 0 -69.81 72.55c-22.3 25.67-43.41 52.38-63.41 79.97-19.93 27.69-38.85 56.46-56.5 86.44-17.72 29.89-34.24 60.95-49.61 92.94-15.18 31.7-29.42 64.89-42.59 99.34-13.08 34.34-24.58 69.08-34.27 104.34-9.68 35.1-17.82 71.01-24.29 107.58-6.59 36.44-11.43 73.64-14.71 111.38-3.29 37.83-4.95 76.13-4.95 114.97 0 38.29 1.66 76.1 4.95 113.49 3.29 37.56 8.21 74.39 14.61 110.29 6.58 36.3 14.71 72.02 24.51 107.12 9.66 35.09 21.08 69.73 34.16 104 13.17 34.53 27.41 67.71 42.66 99.49 15.37 32 31.92 62.97 49.53 92.87 17.65 29.79 36.58 58.65 56.4 86.34 20.02 27.7 41.21 54.3 63.51 80.07 22.3 25.49 45.69 49.78 69.74 72.63 24.2 22.85 49.53 44.5 75.74 64.71 26.25 20.28 53.55 39.3 81.79 57.12 27.97 17.47 57.21 33.81 87.55 48.89 30.33 15.07 61.06 28.24 91.93 39.3 30.88 11.14 62.51 20.56 94.87 28.05a856.877 856.877 0 0 0 97.96 16.91 923.2 923.2 0 0 0 101.23 5.58c37.02 0 73.39-2.2 109.03-6.5 35.82-4.28 70.92-10.68 105.27-19.27 34.56-8.61 68.36-19.38 101.51-32.26 33.19-12.79 65.8-27.87 97.9-45.14 32.06-17.18 63.05-36.01 92.73-56.47 29.79-20.39 58.42-42.51 85.9-66.08v-.08c27.61-23.68 53.92-48.98 78.87-75.58 25.13-26.77 49.06-55.2 71.91-85.17h.11l4.56-6.01 6.87-9.07 7.95 8.06 5.1 5.28 29.89 30.54 6.59 6.66 6.21 6.4-5.67 6.87-6.12 7.39h-.1c-25.68 30.9-52.54 60.33-80.41 88.1-27.79 27.69-56.68 54.01-86.46 78.59-29.87 24.76-60.77 47.89-92.56 69.26h-.11c-31.88 21.48-64.78 41.5-98.69 59.69-33.99 18.44-68.72 34.53-104.16 48.43-35.38 13.78-71.47 25.31-108.02 34.43a898.631 898.631 0 0 1 -112.13 20.74c-38.01 4.59-76.76 6.87-115.98 6.87h-3.29zm3047.16-15.8v-1201.42h-1494.64v1220.59h-74.12v-2411.67h74.12v1112.03h1494.64v-1112.03h74.03v2411.67h-74.03v-9.87zm700.46 19.17h-56.94v-2411.67h74.12v2411.67h-9.87zm691.94-79.03h1147.49v79.03h-1221.61v-2411.67h74.12v19.19zm1605.49 79.03h-56.91v-2411.67h74.11v2411.67h-9.87zm1492.3-2340.2-525.82 1433.51h1058.22z" fill="#2b2a29" fill-rule="nonzero"/><path d="m7743.87 2889.21h-57.94l4.94-13.34 878.92-2387.01 1.91-5.28h65.54l1.99 5.28 882.31 2387.01 4.85 13.34h-59.22l-1.91-5.39-309.79-838.9h-1098.52l-306.5 838.82-2.02 5.46h-4.56zm-6678.36 3.03c-73 0-144-7.88-212.82-23.68-68.8-15.72-135.71-39.56-200.39-71.18-32-15.62-63.23-32.72-93.49-51.37-30.44-18.63-59.76-38.73-87.92-60.13-28.3-21.48-55.64-44.32-81.59-68.36-25.04-23.1-49.27-47.61-72.48-73.35h-.08l-2.92-3.39c-24.3-27.04-47.15-55.39-68.62-84.63-21.4-29.25-41.68-59.94-60.77-92.01-19.12-31.99-36.76-65.15-53.03-99.16a1325.872 1325.872 0 0 1 -45.12-106.65c-13.8-36.91-25.95-74.37-36.1-111.93-10.31-37.84-18.91-76.39-25.85-115.51-6.87-39.22-12.07-78.96-15.54-119.01-3.37-40.09-5.11-80.87-5.11-122.16 0-41.86 1.74-83.08 5.21-123.56 3.55-40.49 8.86-80.4 15.8-119.7 7.04-39.22 15.9-77.77 26.42-115.61 10.59-37.92 22.84-75.12 36.91-111.56 13.98-36.37 29.25-71.74 45.69-105.74 16.53-34.17 34.28-67.17 53.18-99.06 19.09-31.99 39.3-62.76 60.59-92.11 21.29-29.51 43.95-57.95 67.89-85.26 23.86-27.25 48.81-53.1 74.76-77.57a1090.9 1090.9 0 0 1 81.13-68.91c27.98-21.4 57.12-41.58 87.45-60.33 30.26-18.62 61.42-35.82 93.6-51.52 32.43-15.91 65.43-29.79 98.87-41.58 33.45-11.81 67.61-21.76 102.45-29.61 34.63-7.87 69.99-13.91 105.81-17.82 36.01-3.93 72.46-5.85 109.37-5.85 77.51 0 152.89 9.14 226.01 27.51 73.1 18.45 143.92 45.95 212.54 82.86 34.19 18.29 67.35 38.21 99.34 59.79 31.99 21.37 62.87 44.5 92.58 69.16 29.51 24.51 58.21 50.83 85.72 78.67 27.58 27.98 54.01 57.41 79.21 88.28l6.04 7.42 5.49 6.76-6.14 6.4-6.58 6.58-29.79 30.52-5.11 5.2-8.05 8.14-6.84-9.04-4.59-6.04a1115.563 1115.563 0 0 0 -71.83-85.25c-24.84-26.6-50.88-51.72-78.2-75.2a972.433 972.433 0 0 0 -84.73-65.53c-29.32-20.21-59.84-38.75-91.37-55.74-31.53-16.89-63.8-31.71-96.52-44.33-32.8-12.69-66.6-23.28-101.16-31.79a863.994 863.994 0 0 0 -105.64-19.01c-35.9-4.22-72.74-6.32-110.4-6.32-34.34 0-68.07 1.84-101.16 5.49-33.15 3.76-65.98 9.22-98.15 16.55a849.217 849.217 0 0 0 -94.84 27.59c-31.08 10.95-61.88 23.94-91.93 38.64-30.43 14.71-59.6 30.91-87.65 48.16a990.886 990.886 0 0 0 -81.6 56.39 937.562 937.562 0 0 0 -75.66 64.43 1011.162 1011.162 0 0 0 -69.81 72.55c-22.3 25.67-43.41 52.38-63.41 79.97-19.93 27.69-38.85 56.46-56.5 86.44-17.72 29.89-34.24 60.95-49.61 92.94-15.18 31.7-29.42 64.89-42.59 99.34-13.08 34.34-24.58 69.08-34.27 104.34-9.68 35.1-17.82 71.01-24.29 107.58-6.59 36.44-11.43 73.64-14.71 111.38-3.29 37.83-4.95 76.13-4.95 114.97 0 38.29 1.66 76.1 4.95 113.49 3.29 37.56 8.21 74.39 14.61 110.29 6.58 36.3 14.71 72.02 24.51 107.12 9.66 35.09 21.08 69.73 34.16 104 13.17 34.53 27.41 67.71 42.66 99.49 15.37 32 31.92 62.97 49.53 92.87 17.65 29.79 36.58 58.65 56.4 86.34 20.02 27.7 41.21 54.3 63.51 80.07 22.3 25.49 45.69 49.78 69.74 72.63 24.2 22.85 49.53 44.5 75.74 64.71 26.25 20.28 53.55 39.3 81.79 57.12 27.97 17.47 57.21 33.81 87.55 48.89 30.33 15.07 61.06 28.24 91.93 39.3 30.88 11.14 62.51 20.56 94.87 28.05a856.877 856.877 0 0 0 97.96 16.91 923.2 923.2 0 0 0 101.23 5.58c37.02 0 73.39-2.2 109.03-6.5 35.82-4.28 70.92-10.68 105.27-19.27 34.56-8.61 68.36-19.38 101.51-32.26 33.19-12.79 65.8-27.87 97.9-45.14 32.06-17.18 63.05-36.01 92.73-56.47 29.79-20.39 58.42-42.51 85.9-66.08v-.08c27.61-23.68 53.92-48.98 78.87-75.58 25.13-26.77 49.06-55.2 71.91-85.17h.11l4.56-6.01 6.87-9.07 7.95 8.06 5.1 5.28 29.89 30.54 6.59 6.66 6.21 6.4-5.67 6.87-6.12 7.39h-.1c-25.68 30.9-52.54 60.33-80.41 88.1-27.79 27.69-56.68 54.01-86.46 78.59-29.87 24.76-60.77 47.89-92.56 69.26h-.11c-31.88 21.48-64.78 41.5-98.69 59.69-33.99 18.44-68.72 34.53-104.16 48.43-35.38 13.78-71.47 25.31-108.02 34.43a898.631 898.631 0 0 1 -112.13 20.74c-38.01 4.59-76.76 6.87-115.98 6.87h-3.29zm3047.16-15.8v-1201.42h-1494.64v1220.59h-74.12v-2411.67h74.12v1112.03h1494.64v-1112.03h74.03v2411.67h-74.03v-9.87zm700.46 19.17h-56.94v-2411.67h74.12v2411.67h-9.87zm691.94-79.03h1147.49v79.03h-1221.61v-2411.67h74.12v19.19zm1605.49 79.03h-56.91v-2411.67h74.11v2411.67h-9.87zm1492.3-2340.2-525.82 1433.51h1058.22z" fill="none" stroke="#2b2a29" stroke-miterlimit="22.926" stroke-width="7.33"/><path d="m10172.53 1570.49c-49.52-4.74-283.1-467.22-442.2-533.59-33.44 98.98 6.21 205.26-104.47 194.74h-.36c37.19 84.34 75.12 187.08 110.58 291.06 14.17 41.67 27.95 83.61 41.1 124.56 4.95-13.72 9.97-23.13 15.19-26.05 2.1-1.19 4.3-2.1 6.68-2.64 19.63-4.66 37.74 15.98 54 53.54 13.06 29.98 27.12 72.84 41.3 121.73 52.56 182.12 106.36 451.79 109.02 466.96 22.02 123.56 65.7 508.54 31.97 617.03-1.56 6.58-7.92 11.42-15.7 11.32-17.21-.11-42.33-354.76-56.86-411.51-22.93-146.39-59.04-292.87-116.7-491.74-15.34-52.71-37.35-128.19-63.68-213.83-18.75 104.29-33.07 126.75-32.89 238.17.18 122.44 11.14 271.96 57.66 411.3-20.93-51.89-86.1-311.52-76.41-532.58.18-6.19 15.28-109.47 30.98-183.48-17.82-56.68-36.99-115.89-57.01-174.82-22.85-66.99-46.7-133.41-70.64-194.46-5.03 2.39-9.15 5.49-12.33 6.66 4.56 12.36 8.86 25.05 12.61 36.65 27.41 85.28 5.75 106.19-30.9-11.49-1.99.25-.44 22.27-3.55 15.15-3.47-8.39-6.14-12.69-7.69-12.79.65-8.14-.36-25.31-1.99-43.76-1.19-2.48-2.39-3.86-3.58-3.86-1.27 0-2.56 1.19-3.29 3.86-9.87 35.81 5.93 86.52 19.09 133.69 22.85 55.39 63.7 178.37 56.21 186.14-2.75 0-4.95-.46-6.5-1.47-1.63-.91-3.01-2.28-4.1-3.73-12.44-16.46-13.8-20.75-31.62-36.65-6.66-4.31-12.44-6.41-17.47-6.41-24.95-.08 8.14 84.71 27.07 145.04 15.88 39.65 36.55 99.42 37.17 114.39l-13.23 8.52c-7.6-6.79-16.27-20.39-26.78-19.12-16.64 2.2 25.95 99.7 16.45 137.45-11.43 44.87-47.79 1.65 1.65 143.66 2.36 2.83 4.74 5.83 7.13 9.04 26.22 35.47 35.1 85 11.5 118.62 23.68 95.68-65.98-48.34-14.43 89.36 13.62 36.47 42.3 102.7 1.09 28.52-61.49-110.84-7.13-112.03-8.03-134.34-13.99-20.28-31.89-54.66-41.04-96.41-9.79-44.94 4.13-51.08 25.13-33.9-27.33-59.58-27.41-86.44-9.33-121.62 15.26-29.61-.08-82.79-14.61-123.46-5.49-15.07-12.97-53.65-8.6-68.36.83-2.46 1.56-4.48 2.39-6.03 2.92-5.21 10.77.72 14.24 3.64 9.22 8.5 15.19 17.82 21.76 3.76-.83-1.01-1.66-2.2-2.46-3.47-25.33-51.18-72.58-225.36-61.16-236.68 15.72-15.91 28.99-3.47 42.22 10.7 2.1 2.17 3.58 3.37 4.3 3.37 1.48 0 2.75-.55 3.84-1.92 6.03-7.19-1.45-36.73-10.6-66.24-26.31-71.83-50.9-162.39-30.07-225 2.02-6.11 3.76-11.14 5.2-15.07-2.71-16.17-4.91-30.07-6.66-42.05-.83-2.28-1.73-4.38-2.64-6.58-7.04-16.71-14.35-35.9-30.25-51.99-109.76-111.56-214.85-217.58-219.77-424.01-7.05-289.32 225.26-281.18 103.79-103.8-19.73 28.86 26.14 68.33 43.49 93.67 129.68 190.42 109.75 230.08 130.04 375.29 16.2 115.61 76.79-90.37 96.7-134.41 30.98-68.36 156.18 41.93 230.54 165.5 77.14 128.2 112.79 146.67 33.83-35.02-160.83-370.27-470.54-818.59-361.26-870.97 90.12-43.2 360.14 492.83 404.29 572.43 259.27 467.87 170.7 347.27-129.32-798.96 4.48-1.73 10.8-2.1 19.01-1.37-3 96.41 708.13 1891.88 164.23 1025.14-68.1-108.56-359.12-661.89-382.98-674.8-31.45-49.7-57.94-56.72-34.56 1.38 50.36 125.19 245 448.6 350.46 675.52 46.34 99.6 195.46 425.19 190.08 521.89-.64 8.57-2.75 15.62-6.3 21zm-376.94 134.7c34.45 110.04 63.41 209.27 82.24 274.06 48.52 167.31 111.28 462.67 135.07 729.33 15.7 176.09 14.43 172.44 10.23-2.2-7.95-334.81-61.71-562.92-160.66-905.67-13.7-47.9-27.41-89.48-40.02-118.36-7.31-16.99-11.61-28.78-13.34-32.97-2.75 7.12-7.77 28.59-13.52 55.82zm-180.87-417.34c-2.57 8.14-4.66 15.51-6.29 22.2 1.55 3.39 3 6.87 4.56 10.42l-.18-6.4c-.18-9.41 2.02-15.62 5.2-18.26l-3.29-7.95zm-29.14-8.6-.64-5.67c-.29 2.66-.37 4.94-.18 5.67h.83zm27.41 90.19c4.56 16.99 19.45 56.4 18.36 44.51-3.55-37.02-28.31-82.07-18.36-44.51zm-2.64 785.62c.63 3.21 9.04 29.53 18 46.15 6.94 12.88 24.66 27.87 27.32 2.28 3.91-36.83-8.88-44.87-18.83-59.29-12.71-18.29-32.63-18.19-26.5 10.86zm-83.36-1100.96c25.88-54.56-63.85-294.35-149.38-318.86-9.8 113.59 47.79 237.8 149.38 318.86zm-8151.35 2772.33 187.41-1.3v41.5h-232.57v-451.6h45.15v411.4zm515.85-109.86v-301.54h45.14v299.08c0 23.94 5.14 45.05 15.19 63.05 10.13 18 23.47 31.71 40.02 41.03 16.63 9.51 34.45 14.35 53.36 14.82 19.27-.47 37.02-5.39 53.55-15.08 16.45-9.5 29.79-23.96 39.94-43.41 10.05-19.27 15.16-42.86 15.16-70.27v-289.21h45.25v288.02c0 27.79-4.22 52.64-12.62 74.39-8.49 21.74-20.1 39.74-34.63 54.01-14.71 14.35-31.08 24.95-49.35 31.97-18.28 7.05-37.28 10.62-57.3 10.62-19.55 0-38.57-3.57-57.12-10.51-18.47-6.87-34.99-16.99-49.52-30.62-14.62-13.42-26.14-30.07-34.46-49.81-8.49-19.64-12.61-41.84-12.61-66.52zm636.11 150.06 153.79-231.19-144.65-220.41h52.45l119.52 181.12 119.16-181.12h52.38l-145.29 220.41 155.17 231.19h-52.46l-128.95-192.83-127.47 192.83zm691.58-150.06v-301.54h45.26v299.08c0 23.94 5.1 45.05 15.15 63.05 10.16 18 23.5 31.71 40.03 41.03 16.63 9.51 34.37 14.35 53.28 14.82 19.38-.47 37.2-5.39 53.65-15.08 16.45-9.5 29.79-23.96 39.92-43.41 10.07-19.27 15.18-42.86 15.18-70.27v-289.21h45.23v288.02c0 27.79-4.2 52.64-12.69 74.39-8.42 21.74-20.02 39.74-34.56 54.01-14.69 14.35-31.06 24.95-49.35 31.97-18.26 7.05-37.28 10.62-57.38 10.62-19.46 0-38.47-3.57-57.01-10.51-18.48-6.87-35-16.99-49.53-30.62-14.64-13.42-26.14-30.07-34.56-49.81-8.4-19.64-12.62-41.84-12.62-66.52zm677.7 150.06v-451.6h121.46c37.56 0 68.54 4.45 92.91 13.34 24.41 8.67 42.98 19.99 55.67 33.88 12.88 13.98 21.66 28.52 26.69 43.78 5.02 15.44 8.13 31.8 9.68 49.35 0 25.41-5.75 49.09-17.27 71-11.5 21.66-27.33 39.04-47.69 51.91-20.28 12.97-43.23 19.27-68.73 19.27l127.65 169.07h-56.75l-153.87-205.05h37.83c27.04 0 50.54-4.04 70.64-11.81 20.2-7.93 35.64-19.46 46.6-34.82 10.88-15.34 16.37-33.62 16.37-54.64 0-21.75-5.85-40.59-17.64-56.21-11.89-15.71-27.32-27.58-46.7-35.54-19.2-8.06-39.48-12.07-60.59-12.07h-91.11v410.13h-45.14zm761.3 0v-151.33l-157.44-300.27h48.8l131.31 253.85 129.85-253.85h50.08l-158.64 300.27v151.33zm1411.61-58.57 110.95-393.03h46.32l-128.77 451.6h-59.01l-99.63-369.18-100.07 369.18h-58.02l-128.74-451.6h46.41l111.02 393.03 108.1-393.03h43.41l108.02 393.03zm488.26 58.57v-451.6h246.63v41.47h-201.4v162.39h194.64v40.31h-194.64v167.13h201.4v40.31h-246.63zm760.12-451.6h50.07l193.92 451.6h-48.8l-66.52-151.33h-208.73l-65.33 151.33h-48.81zm25.02 52.45-88 206.32h175.19zm550.04 399.15v-451.6h121.36c37.63 0 68.62 4.45 92.94 13.34 24.4 8.67 43.03 19.99 55.74 33.88 12.8 13.98 21.66 28.52 26.58 43.78 5.02 15.44 8.23 31.8 9.68 49.35 0 25.41-5.67 49.09-17.18 71-11.52 21.66-27.32 39.04-47.71 51.91-20.36 12.97-43.21 19.27-68.8 19.27l127.65 169.07h-56.72l-153.9-205.05h37.82c27.07 0 50.65-4.04 70.75-11.81 20.1-7.93 35.55-19.46 46.5-34.82 10.98-15.34 16.45-33.62 16.45-54.64 0-21.75-5.83-40.59-17.72-56.21-11.89-15.71-27.33-27.58-46.61-35.54-19.26-8.06-39.58-12.07-60.69-12.07h-91v410.13h-45.15z" fill="#2b2a29" fill-rule="nonzero"/></svg>