<svg height="2500" viewBox="84.5 94.7 577.6 562" width="2500" xmlns="http://www.w3.org/2000/svg"><path d="m302.8 96c-6.7 1.2-20.3 5.7-26.2 8.7-27.1 13.6-44.1 30.3-56.9 55.8-4.8 9.7-8.7 19.4-8.7 22 0 1.2 6.9 10.6 17 22.9 17.6 21.7 17.4 21.2 15.4 27.4-.7 2.4 1.6 14.3 3.5 18.1 3 5.8 5.6 7.6 11.1 7.6 4.7 0 4.8.1 5.4 3.5.3 1.9 1.9 5.6 3.4 8.1l2.9 4.6-9.6 1.1c-23.1 2.7-35.8 10.3-56.5 33.7-5 5.8-8 8.3-10.7 9.1-2 .6-7.5 3.4-12.2 6.3-4.6 2.8-8.7 5.1-9 5.1s.6-2.6 2-5.8c1.4-3.1 3.8-10.7 5.3-16.7 1.6-6.1 3.6-13.7 4.4-17 2.2-8.3 2-13.5-1-22.3-3.7-11.2-10.9-25.8-13.2-27.1-4.8-2.6-10.8-.6-16 5.3-3.9 4.4-4.6 8.1-4 21.2l.5 10.4-3.1-3.1c-6.2-6.4-11.8-8.3-17.9-6-4.8 1.8-9.9-3-17.1-16.1-4.2-7.7-6.5-8.9-12-6.3-4.9 2.3-11.2 9.5-12.7 14.3-2.4 8.1 2.5 18.8 14.2 30.8 6.4 6.7 6.8 7.4 6.4 10.8-.3 2.3-2.3 6.3-5 10.1-2.5 3.5-6.1 9.3-8 13-3 5.7-3.5 7.6-3.5 13.6 0 5.4.6 8.1 2.4 11.7 3.5 6.9 4.6 25.9 2 32.9-3.4 8.8-1.7 38.4 3 52.1 5.9 17.2 11.3 25 31 45 14.1 14.2 14.1 14.2 22.1 16.8 16.4 5.3 24.5 4.2 33.3-4.4 5.6-5.5 14.8-22.2 19.4-35 3.2-9.3 5.5-13.7 12.8-24.7 2.6-3.9 6.8-11.1 9.3-16 2.5-5 5.2-9.9 6-10.9 1.3-1.7 1.4-1.5 2 2.5.3 2.4-.1 11.4-.9 19.9s-1.6 26.7-1.8 40.5c-.4 25-.4 25 .4 7 .5-9.9 1.6-28.1 2.4-40.5.9-12.4 1.8-29.4 2.1-37.9.5-16.9 2.2-29.1 6.5-48.1 1.6-6.9 3.4-16.1 4-20.5 2.5-17.7 4.2-27.9 5.1-29.9 1.4-3.3.8 57.1-.8 70.4-.7 6.3-1.3 14.9-1.3 19s-1.6 16.7-3.5 28c-4.5 26.8-5.9 44.2-5 62.5.4 8 1.1 14.5 1.6 14.5s.9-9.8.9-22.3c0-21.1 1.1-38.4 2.5-40.8.4-.5.9-3.6 1.1-6.7s.9-5.9 1.4-6c.6-.2.8-.7.5-1.2-1-1.7 1.6-15.4 3.3-17.4.9-1.1 1.1-1.6.5-1.2-1.8 1-1.7-11.9.3-25.9.8-6.1 1.4-13 1.4-15.3-.1-2.4.5-5.1 1.2-6 1.1-1.3 1.1-1.5-.2-1s-1.4-.8-.8-10.1c.4-5.8.5-19.2.2-29.6-.6-18.4-.5-19.2 1.7-24 1.3-2.8 2.6-5.9 3-7s.7 2 .7 7c0 15.9-1.5 51.9-2.2 54-.6 1.6-.6 1.7.3.5.8-1.2 1.1-.7 1.1 2.1 0 6.1-1.2 15.9-2 15.4-.4-.2-.7.2-.7 1s.3 1.2.6 1.1c1.8-1.2-1.7 57.6-3.9 66.4-2 7.8-6.7 63.6-5.7 66.4 1.6 4.1 2.4-.4 3-16.1.7-16.9 3.4-43 6.1-57.8.8-4.4 1.7-16.1 2-26 .4-9.9 1.1-25.9 1.6-35.5.6-9.6 1.3-31.8 1.6-49.3l.6-31.7 2.3-.6c4-1 5.9.4 9.4 6.7l3.3 6.1-.6 14.1c-.3 7.8-.8 23-1.1 33.7s-1 24-1.5 29.5-1.2 16.1-1.5 23.5c-.6 11.6-3.5 40.6-6.5 64.5-1.3 9.8-1.3 38.5 0 38.5.6 0 1-2.4 1-5.3 0-10.2 1.2-31.3 2.1-38.7.6-4.1 1.4-11.3 1.9-16s1.3-13 1.9-18.5c.5-5.5 1.5-19.2 2.2-30.4.6-11.2 1.4-21.5 1.8-23 .4-1.4.9-12.1.9-23.6.3-25.4 1.3-44.7 2.2-42 .7 1.9.4 13-.4 15.1-.2.6.2 1.1.9 1.1.9 0 1.3-1.7 1.3-5.9 0-3.3.3-6.2.6-6.5.3-.4.6 3.3.6 8 0 4.8-.4 8.7-.9 8.7s-1.1-.8-1.4-1.8c-.4-1.6-.5-1.6-1.2.2-.6 1.3-.3 2.1.8 2.8 1.4.7 1.7 2.5 1.7 9.4 0 4.7-.3 8.3-.8 8-.4-.2-.7 1.7-.6 4.2 0 2.6-.4 5.1-1 5.5-.7.6-.6.7.3.5.8-.2 1.5-1.2 1.7-2.2.1-1 .5-2 .8-2.4.8-.8-.2 16.6-2 34.9-.8 8-1.4 18.6-1.4 23.5s-.7 14.3-1.5 20.9-1.7 14.6-2.1 17.7c-.4 3.2-1 5.8-1.3 5.8s-.7 4.2-.8 9.3c-.4 20.5-1.6 38.7-2.4 38.7-.4 0-.6-.8-.3-1.8.5-1.4.4-1.4-.4-.2-.6.8-.8 1.8-.6 2.2.3.4-.1.8-.8.9-.7 0-.2.5 1.1 1s2.6.8 2.8.5c1.1-1 2.3-14.3 2.3-25.6 0-7.6 1-19.6 2.5-30.5 1.4-9.9 3-26.8 3.5-37.5.6-10.7 1.5-23.3 2.1-28s1.3-22.5 1.6-39.5c.2-17.1.8-31.3 1.1-31.7.4-.3 4.7 2.8 9.6 7l8.8 7.7-.6 9.5c-.4 5.2-1.1 15.1-1.6 22-.6 6.9-1.4 23.7-2 37.4-1.1 27.6-2.1 42-5 66.6-2.5 21.4-3.6 43-2.2 43 .5 0 1.2-5 1.6-11.8.6-10.8 4.2-45.8 5.2-51 .3-1.3.8-2.1 1.2-1.8.4.2.9-.5.9-1.7.2-1.8 0-1.9-.8-.7-.7 1-.8-.5-.4-5 .3-3.6 1.2-21.1 2-39 1.9-42.5 2.6-52.4 3.6-50.9.4.7.5-2.5.3-7.2-.5-8.4-.5-8.4 1.4-6.2 1.1 1.2 2.2 1.9 2.6 1.6.3-.4.6.5.6 2 0 1.4-.5 2.9-1 3.2-.8.5-.7 1.1 0 2.1.9 1 .9 4 .1 11.6-1.7 16.2-3.4 51.7-2.8 57.5.3 3 .2 5.1-.2 4.8-.5-.2-.6 1.5-.4 3.8.3 2.3-.7 11.1-2.1 19.5-1.4 8.3-2.7 16.6-2.8 18.4-.1 2.9-.2 2.8-.9-1.2-.5-3-.6-1.5-.3 4.5.3 4.9 0 16-.6 24.5-.7 8.5-1.1 16.9-1.1 18.7.1 2.2-.4 3.3-1.7 3.6-1.6.4-.5.6 3.6.7.4 0 1.2-11.6 1.8-25.7.9-20 1.8-29.2 3.9-40.8 2.3-12.6 2.8-18.4 3.1-36.5.2-11.8.8-27.4 1.4-34.5.6-7.2 1.3-17.1 1.7-22.2.3-5 .9-9.7 1.3-10.3.6-.9 1.9-.5 4.6 1.4 2.1 1.4 4.4 2.6 5 2.6s1.9.9 2.9 2c1.6 1.7 1.7 3.5 1 19.7-.5 13.7-.3 20.9.9 31.3.9 7.4 2.3 19.6 3.1 27s2.4 20.2 3.4 28.5c2.3 17 4.1 45.6 3.4 52.8-.5 5.1 1.2 6.7 2.3 2.1 1.1-4.4-1.8-49.1-4-61.9-1.9-10.8-3.4-26.6-3-31.8.1-2-.1-3.7-.6-3.7-.4 0-.6-1-.6-2.3.1-1.2-.1-2.9-.5-3.7-2.7-5.7-2.7-41.2-.1-43.9 1.2-1.3 1.2-1.6-.4-2.1-1.6-.6-1.6-.7 0-1.3 1.4-.5 1.5-1.1.6-2.9l-1.1-2.3 1.6 2.2c1.2 1.6 1.7 5.1 1.9 14.5.2 10.9 1.1 22.5 4.6 64.3.5 6 .5 11.1 0 11.3-.4.2-.5 1.3-.2 2.4.5 2.1.6 2.1 1.3.2.7-1.7.8-1.6.8.6.1 1.5-.5 3.2-1.1 3.9-1.1 1.1-1 1.3.5.8 1.3-.5 1.7-.1 1.6 2.1 0 2.4-.1 2.5-1 .7-.6-1.4-.8-.4-.5 3.4.5 5.9 1.5 8.1 1.7 3.5.1-1.7.7.1 1.6 4.1 1.8 8.9 3 42 1.4 41.1-.6-.4-1.1-.2-1.1.4s-.6.8-1.2.5c-.7-.4-.4.1.6.9 3.8 3.1 4.6 2.1 4.8-6.2.4-14.4-.3-23.7-3.7-46.2-1.8-12.4-3.8-30.4-4.4-40s-1.6-22.2-2.2-28-.9-15.1-.7-20.7l.3-10.1 6.5 4.9c3.6 2.7 7.4 4.9 8.5 4.9 4.3.1 4.4.7 5.5 26 .5 13.5 1.7 28.5 2.4 33.5.8 4.9 1.7 13 2.1 18 .3 4.9 1.4 18 2.5 29 1 11 2.2 23.9 2.5 28.7.7 8.4.8 8.8 3.1 8.8 2.2 0 2.4-.4 2.4-4.4 0-2.7-.6-5.1-1.5-6-1.5-1.5-1.9-4.8-5.6-43.1-1.9-18.8-2.4-30.5-1.5-30.5.4 0 0-1.2-.9-2.7-1.5-2.2-2-7.1-3.1-29.2-.7-14.6-1.2-26.6-1.1-26.6s1.2-.6 2.5-1.3l2.3-1.3-.2 15.9c-.1 8.8.1 16.4.4 16.9s.8 5.3 1.1 10.8c.4 6.6.3 9.3-.3 8-.9-1.9-1-1.9-1 .2-.1 1.5.5 2.3 1.5 2.3 1.4 0 1.6.8 1.1 5.7-.4 3.8-.3 5.2.3 4.3.8-1.3 1-1.2 1 .2 0 .9-.4 1.9-.9 2.2-1.5 1-2 4.5-.5 3.9.7-.2 1-1.2.7-2-.4-1.1-.2-1.4.5-.9 1.5.9 1.6 6.2.2 7.1-.5.3-1 1.4-.9 2.3 0 1.4.2 1.3.8-.3.7-1.7.9-1.6 1.5 1 .5 1.7 1 6.6 1.2 11.1.2 4.4.5 8.7.8 9.5.5 1.6 1.4 14.3 2.3 34.1.3 7.6.9 13.8 1.4 13.8.4 0 .9-1.2 1.1-2.8.9-7.7-2.8-59.9-5.2-73.3-2.1-11.6-5-45.8-5-58.8 0-13.2 0-13.4 2.9-17 1.6-2 5.4-7.6 8.5-12.5 3.2-5.2 5.7-8.3 6-7.5s1 16.2 1.5 34.4c1.3 38.3 2.4 54 5.2 72 4.3 27.4 4.8 32.5 4.2 48.9-.5 13.4-.4 15.8.8 15.4.8-.3 1.3-1.2 1.1-2.1-.2-1.2.2-1.5 1.5-1.1 1.2.4 1.4.3.6-.3-.9-.7-1.4-6.2-1.7-19.9-.3-14.2-1-22.7-2.9-34.4-1.5-8.5-2.8-18.7-2.9-22.5-.2-3.9-.6-7.2-1-7.5-.8-.6-3.1-56-2.6-62 .3-2.5.5 0 .6 5.5s.6 10.6 1 11.3c.5.7.7-4 .6-10.5l-.2-11.8.8 10c.5 5.5 1 11.4 1.2 13.2.2 1.7 0 2.9-.4 2.7-.4-.3-.8.6-.8 2s.5 2.6 1 2.6c1.3 0 1.3 8.7.1 9.4-1.2.8-.2 6.9 1.2 7.8.7.4 1.3 3.9 1.4 8.5 0 4.3.4 11.4.7 15.8.5 6.4.4 7.4-.5 5-.6-1.7-1.1-3.9-1-4.9 0-1.5-.3-1.6-1.2-.7s-.9 1.6.1 3.1c.6 1.1 1.2 2.9 1.2 3.9 0 1.1.5 4.3 1.1 7.2.8 3.6 1.4 4.7 2 3.8.6-1 .9-.8.9.9 0 1.5-.4 2.1-1.2 1.6s-.9-.2-.5 1c.4 1 .7 2.2.7 2.7 0 .6.4.8.9.4 1.2-.7 2.2 5.6 2.4 15.1.1 4 .5 7 1 6.7.4-.2.7.8.8 2.4 0 1.5.3 6.5.5 11 .3 6 .1 8.3-.8 8.3s-.9.3 0 1.2c1.6 1.6 1.5 7.5 0 8.1-1 .4-1 .8.1 1.5 1.1.8 1.1 1 0 1.5-1.2.5-1.1.7.1 1.6.8.5 1.8.7 2.2.5.4-.3.8-6.7.8-14.2 0-13.7-1.8-33-4.6-47.7-.8-4.4-2.1-17.5-2.9-29-.8-11.6-2.1-29.1-3-39-.8-9.9-1.4-25.4-1.4-34.5l.1-16.5 2 6c1 3.3 3 12.7 4.4 21 1.4 8.2 3.2 17.7 3.9 21 2.5 11.1 4.4 24.9 5 37.5.3 6.9 1 15.4 1.5 19s1.4 13.7 2 22.5 1.5 21.4 2 28 1 15.1 1 19c0 5 .3 6.6 1 5.5.6-.9.8-4.9.5-9.5-1.8-28.8-3.8-54-5.1-66.6-.9-8.1-1.5-15.2-1.2-15.9.7-2.1 10.7 14.3 16.2 26.7 7.6 16.9 13.8 26.5 23.8 36.9 10 10.3 16.2 14.1 28.3 17.5 6.2 1.7 9.9 2 17.4 1.8 5.3-.2 9.8-.7 10.1-1s3.9-1.8 8.2-3.3c4.2-1.5 11.6-5 16.5-7.8 4.8-2.8 16.9-9.1 26.8-13.9 9.9-4.9 19.6-9.8 21.5-10.9s4.2-2 5-2c2.6 0 10.5-5.5 13.5-9.4 3.8-5 5.6-17.7 5.4-37.6-.3-15.2-.2-15.6 2.5-21 1.6-3.1 4-6.3 5.6-7.2 3.6-2.1 10.6-11.3 12.4-16.5 2.1-6 3-18.8 1.7-25.6-.9-5.1-.8-6.1.9-8.9 1.6-2.6 3.4-3.6 11.2-6.2 17.6-5.8 23.9-11.3 24.6-21.7.3-4.1-.1-7.4-1.3-10.5-1.7-4.5-6-10.4-7.5-10.4-.5 0-3.1 1.5-6 3.4-2.8 1.8-8.4 4.6-12.5 6.1l-7.4 2.7-2.6-2c-4.1-3.3-11.9-5.4-18-5-3 .1-5.5-.1-5.5-.5 0-.5 1.1-2.3 2.5-4.1 5.8-7.6 9.2-19.6 7.4-26.2-1.4-4.8-6.2-9.4-9.9-9.4-1.8 0-5.2 1.7-9.2 4.7-8.4 6.2-24.4 22.8-26.8 27.8-1.8 3.9-9.5 36.4-10.2 43.5-.4 3.5-.4 3.4-4-4-6.3-13.3-14.4-20.1-21.7-18.5-6.8 1.5-16 12.8-16.1 19.7 0 4 3.4 7.1 6.9 6.3 8.4-1.8 15.8 7.4 18.6 23.2.7 4.3 1.6 9 2 10.4.6 2.4.2 2.8-6.8 6.2-14.6 6.9-31.9 19.6-39.7 29.2-2.5 3-4.7 5.5-5 5.5s-1.8-2.6-3.4-5.8c-1.5-3.1-3.8-7.3-5.1-9.2s-4-7.6-6.1-12.5c-6.7-15.8-16.3-31.9-28.8-48.3-14.1-18.4-23.1-26-35.6-29.8-5.5-1.7-6-2.1-5.5-4.2 3-12.3 2.4-29.6-1.6-45-1.1-4.2-2.3-12.7-2.6-18.7-.4-9.1-.2-12.5 1.6-19.6 1.1-4.8 2.1-9.3 2.1-10.2 0-.8 2-5.7 4.4-10.8 2.4-5.2 5.3-11.4 6.5-13.9 1.1-2.5 3.6-7.2 5.6-10.5 1.9-3.3 3.5-6.3 3.5-6.6 0-1.3-15.3-15.5-22.5-20.9-8.3-6.2-29-17.6-38-21-3.3-1.2-9.6-2.8-14-3.6-9.4-1.8-39.9-2.7-46.7-1.4zm4.1 18.1c1 13.9 2 21.8 6.2 47.5.6 3.8 1 7.8.8 8.8-.4 1.7-9.3 5.6-12.9 5.6-1.6 0-6.4-12.4-18.1-46.5-8.5-25-8.5-22.7.8-26.3 10.6-4 20.3-6.4 21.4-5.3.3.3 1.1 7.6 1.8 16.2zm34.8-16.3 5.2.7.3 34.1.3 34.2-5 .6c-8.1 1-12.3.7-12.2-.7.1-.6-.2-5.9-.6-11.7s-1.2-19.7-1.7-31c-.6-11.3-1.3-22-1.6-23.8l-.6-3.2 5.3.1c3 .1 7.7.4 10.6.7zm30.8 8.9c3.9 2 8.1 4.1 9.3 4.7 2.7 1.2 2.7-.8-.8 25.6-1.1 8.5-2.5 19.9-3.2 25.2-.6 5.4-1.4 9.8-1.7 9.8s-3.7-.9-7.6-1.8l-7-1.8-.3-33.3-.2-33.2 2.2.6c1.3.4 5.5 2.3 9.3 4.2zm-111.1 19.1c1.6 4.2 5.4 13.1 8.4 19.7s6.3 14.2 7.3 17c.9 2.7 3.3 8.6 5.2 13.1l3.5 8.1-6.3 5.6c-3.5 3.2-6.8 5.7-7.2 5.7-.5 0-1.9-1.9-3.1-4.3-5.5-10.9-13.2-24.5-21.8-38.8-5.2-8.6-9.4-16.1-9.4-16.6 0-1 11-11.9 15.4-15.1 1.6-1.2 3.4-2.2 4-2.2s2.4 3.5 4 7.8zm152.4 8.6c4.5 4.4 8.2 8.4 8.2 8.9 0 .6-2 4.4-4.4 8.6s-6.3 11.9-8.6 17.1c-6 13.9-5.6 13.5-12.6 10.9-3.3-1.2-6-2.3-6.2-2.4-.2-.2 4.7-30.6 8.3-52.3l.6-3.3 3.2 2.3c1.8 1.2 6.9 5.8 11.5 10.2zm-172.6 47.4c9.2 14.1 16.9 26.4 17.3 27.2.3 1-1.9 3.9-6.5 8.5-3.8 3.8-7.1 6.7-7.3 6.4-.2-.2-7.7-9.4-16.7-20.4l-16.3-19.9 1.7-5.1c2.4-6.8 9.7-22.5 10.5-22.4.3 0 8.1 11.6 17.3 25.7zm116.8-11.3c3.5.3 10.6 1.7 15.6 3.2l9.2 2.6-5.9 5.4c-3.2 3-7.6 8.3-9.8 11.8-5 7.9-7 9.1-11.1 7-2.6-1.3-3-1.4-3-.1 0 2.1 6 6.5 9.9 7.2 1.7.4 3.7 1.6 4.3 2.7 6.8 12.8 19.2 12.6 25.9-.5 1.9-3.7 1.9-3.8-.2-9.3-1.4-3.8-2.9-6-4.5-6.7-3.5-1.6-2.5-3.1 3.2-4.7 2.7-.7 5.1-1.5 5.3-1.7s-.4-1.5-1.3-2.8c-2.2-3.5-2.1-3.7 2.2-2.2 3.3 1.2 3.7 1.7 3.6 4.7-.1 1.9-.9 7.1-1.9 11.6-1.7 7.4-1.8 9.2-.6 19 .7 5.9 2.2 14.6 3.4 19.3 1.5 6.3 2 11.9 2.1 22 .1 14.2-1.4 21-6.7 31.5l-2 4-1.7-5.1c-1-2.7-2.5-6.4-3.3-8.1-2.5-4.7-9.3-14.7-11.1-16.2-2-1.6-2.1-3.2-.2-2.5 2 .8 5.4-4.2 6.1-9.1.8-4.8-.5-8-3.5-9-1.1-.3-2-1.3-2-2 0-2.7-9.5-18.9-13.5-23.1-3.1-3.3-5-4.4-8.5-4.9-4.6-.7-10 .6-10 2.4 0 .6 2 .8 4.8.4 8.6-1 12.2 2.3 21.1 19.2 3.7 7 4.1 8.5 3.6 12.5-.8 5.6-2.3 10.3-6.3 19.3-5.4 11.8-19.8 11.4-26.3-.7-4-7.3-6.8-9.6-12-9.9-6.3-.4-6.9-1-6.9-7.3 0-5.1.2-5.6 3-7.2 3.4-2 3.9-3.2 1.1-3.2-1.1 0-3.1 1.4-4.5 3.1-2.2 2.6-2.6 4-2.6 9.6 0 5 .4 6.9 1.7 7.8 1.5 1.1 1 2.3-5 12.7-11.9 20.5-12.4 28.8-2.7 43.2 2.9 4.3 5 7.9 4.8 8.1s-3.9-2.3-8.3-5.6-10-7.5-12.5-9.4c-9.8-7.3-19.7-17.9-23-24.5-1.8-3.6-4.8-8.6-6.7-11.2-4.2-5.8-7.5-14.6-6.3-16.9.5-.8 1.6-2.1 2.4-2.9.9-.7 1.6-1.6 1.6-2.1 0-1.7-2.3-.9-5.7 2.1-1.8 1.6-4.4 3-5.8 3-7.5 0-14-15.1-11.5-26.7 1.2-5.1 6.1-11.3 9.1-11.3s7.8 6.1 10 12.8c1.5 4.5 2.4 6.1 3.2 5.3 1.9-1.9-2-12.1-6.2-16.2-2-2-4.3-3.9-5.1-4.2-1-.3-1.1-.8-.5-1.4.6-.4 4.5-4.5 8.7-8.9 6.7-7.1 7.8-7.9 8.4-6.2.5 1.6 1.2 1.9 3.2 1.4 6.5-1.6 11.2-1.7 14.6-.6l3.7 1.2-3.7 4c-3 3.3-3.5 4.6-3.1 7.2.8 4.8 5.7 11.6 9.7 13.3 10.5 4.5 24-1.8 24-11.2 0-1.9.5-2.5 2.3-2.5 2.9-.1 9.8-3.2 11.6-5.4 1.4-1.7 1.2-1.7-3.1-1.1-5.9.9-10.1-.9-24.4-10.7-6-4-12.8-8-15.1-8.7-2.4-.8-4.3-1.8-4.3-2.2 0-1.3 9.3-5.7 15.2-7.3 2.9-.8 6.4-1.9 7.8-2.4 3.1-1.3 22-5.1 27.5-5.5 4.2-.3 7.9-.1 18.5.8zm30.2 26.4c2.7 2.4 3.3 3.6 3.3 7.1 0 3.6-.6 4.7-3.8 7.6-3.1 2.9-4.4 3.4-8.6 3.4-3.9 0-5.6-.6-8-2.6-3.8-3.2-3.9-5.6-.5-7.9 2.5-1.6 2.6-1.6 1.9.5-1 3.1 1.3 7.9 4.2 8.6 3.3.9 7.1-1 8.3-4.1 1.9-5-2.4-10.2-7.5-9.2-2.3.4-2.3.3-.8-2 3.3-5 6.9-5.5 11.5-1.4zm-88.8 6.7c1.4.5 1.3.9-.4 3.1-4.3 5.5-.9 13.3 5.7 13.3 4.6 0 7.3-2.4 7.3-6.5v-3.2l4 1c4.4 1.2 4.8 2.1 2.3 5.7-2.7 3.9-5.3 5.9-9.4 7.2-5.1 1.5-11.6-.9-15.9-5.9-4-4.5-3.6-8.5 1.2-12.6 1.8-1.5 3.3-2.7 3.4-2.7s.9.3 1.8.6zm80.6 3c0 .9-.5 1.4-1.2 1.2-1.8-.6-2.1-2.8-.4-2.8.9 0 1.6.7 1.6 1.6zm-75.1 4.3c1.6 1 .6 3.1-1.4 3.1-1.7 0-2.8-1.7-2-3 .8-1.2 1.6-1.2 3.4-.1zm300 28c5.3 5.2 5.4 12.6.4 23.3-3.5 7.3-12.8 17.2-19.7 20.9-4.9 2.6-5.8 4.4-2.6 5.4 2.5.8 2.5 2.1 0 7.9-1.5 3.3-1.8 5.1-1.1 6.4.9 1.6 1 1.6 1.7-.3 2.7-7.8 8.1-19.1 9.8-20.7 6.3-6.1 16.3-6.9 26.2-2.2 6.5 3.1 8.4 6.6 8.4 15.6 0 7.3-1.8 17.8-3.1 17.8-.5 0-.6.7-.3 1.5.4.8.1 1.5-.5 1.5s-1 .5-.8 1.2c.7 3.5-13 8.1-17.3 5.8-5.9-3.2-7.3-11.1-4.4-25.7 1.6-8.1 1.4-12-.6-10.8-.5.3-1 1.9-1 3.4 0 1.6-.7 6.1-1.6 10l-1.6 7.1-4.9-.6c-8.2-1.1-17.1 2.5-12.8 5.2.6.3 4.1.8 7.8.9 3.6.2 7.4.4 8.3.4 1.1.1 1.9 1.3 2.4 3.6.3 2 1.9 4.9 3.4 6.5s2.5 3.1 2.3 3.4c-1.3 1.3 13.6-.3 16.5-1.7l3.2-1.8-.1 12.3c0 12.7-1.3 18.3-5.2 22.8-.9 1.1-1.7 2.4-1.7 2.8 0 2.1-7 7.2-11.2 8.4-3.9 1-4.8 1.6-4.8 3.5 0 1.2.7 2.6 1.6 3.1 2 1.1 1.2 2.5-8.7 15.2-3.6 4.7-8.1 10.7-9.9 13.5-4 5.9-9.8 12.3-12.2 13.6-1.2.6-2.5.6-3.7 0-2.5-1.4-11.1-12.5-13.6-17.6-1.1-2.2-2.7-5.1-3.6-6.5-4.3-6.9-6-17.2-4.3-25.9l.7-3.1 2.2 3c5.7 7.7 12.2 9.9 23.3 8.1 10.7-1.8 15.9-6 12.1-9.8-.9-.9-2-.6-4.4 1.3-2.6 1.9-4.4 2.4-9.2 2.4-6.2 0-10.2-1.9-17.5-8.3-3.4-2.9-9.9-12.8-9.2-13.9.3-.4.1-.8-.4-.8s-1.5-3.7-2.2-8.3c-2.6-17.8-9-26.8-19.4-27.2-5-.2-5.1-.2-5.4-3.5-.2-1.8-.1-4.4.3-5.7.7-2.9 7.2-10.3 9.1-10.3.8 0 1.4-.5 1.4-1 0-1.4 6.6-1.2 9.3.2 3.5 2 6.7 5 6.7 6.4 0 .6.6 1.4 1.4 1.7s2.2 2.7 3.2 5.4c2.5 6.6 6.7 13 8.2 12.5.7-.2 1.2-2.2 1.2-5.1 0-2.6.9-8.7 2-13.7 1.1-4.9 2.7-12.1 3.5-15.9 1.7-8.5 2.9-12.5 4.5-15.5 2.1-3.9 18.1-20.4 23.1-23.8 2.7-1.8 4.9-3.7 4.9-4.1 0-.8 4.1-2.8 6.2-3 .4-.1 2.1 1.2 3.7 2.8zm-434.7 5.5c.4.6.5 1.8.2 2.6s-.2 1.1.2.7c.9-.9 5.2 8.4 9.8 21.1 3 8.3 3.2 13.4 1.1 21.2-.8 3-2.6 10-3.9 15.5-1.4 5.6-4.3 14-6.5 18.7-4 8.4-4.7 10.8-3.5 10.8.8 0 6.8-3.3 7.4-4.1.3-.4 4.5-3 9.5-5.8 8.3-4.8 11-5.6 16-5.1 6.9.7 11.7 15.2 8.3 24.7-1.4 4-2.1 4.1-6 .8-3.4-2.9-8.9-3.3-14.3-1.1-4.8 2-14.3 10.2-20.7 17.7-7.6 9.1-16.2 13.4-26.9 13.4-6.7 0-8-.3-11.2-2.8-4.1-3.1-5.6-3.5-3.6-1 1.3 1.7 1.3 1.7-.5.3-1.1-.8-2.8-3.4-3.8-5.8-1-2.3-2.1-4.2-2.2-4.2-.2 0-1.3 1.6-2.5 3.6-1.9 3.2-2 3.7-.6 6.4 4 7.8 21.6 12.6 32.3 8.9 4.8-1.6 5.5-.9 3.2 3.6-1.1 2.1-2 4.4-2 5 0 2.1-11.5 13.8-18.3 18.6-7.8 5.5-16.9 9.3-19.9 8.3-1.4-.4-1.8-.2-1.4.5 1 1.6-.9 1.4-2.3-.2-2.4-3-6.8-17.3-8.2-26.7-.5-3.6-1.2-8-1.5-9.8-.4-1.8-.3-6 0-9.5.7-5.7.9-6.2 3.3-6.4 4.9-.2 4.7-1.9-1.1-7.7-3.1-3-5.6-6.4-5.6-7.5s-.4-2.3-1-2.6c-1.5-.9-1.2-11.6.4-16.2.8-2.2 4-8 7.2-12.8l5.8-8.8 2.9 3.7c5.6 6.9 11.2 8.2 18.1 4.2 5.4-3.1 11.9-2.3 17.6 2.2 4.6 3.8 5.8 3.9 6.9 1 1.2-3.4-4.5-10.1-10.1-11.7-3.5-1.1-4-1.5-2.7-2.5 1.9-1.4 3.7-6 4.3-11.1.4-3 .1-4.6-1.4-6.3-2.4-2.9-3.7-2.2-4.5 2.6-1.8 10.6-4 15.7-8.7 20.4-4.1 4.2-5.1 4.7-8 4.4-4.9-.7-6-1.3-9-5.3-2.4-3-2.8-4.6-2.8-9.7 0-7.8 3.9-18.3 8.6-23.2 3.5-3.6 11-7.4 14.5-7.4 5.9 0 12.9 5.7 18 14.8 3.2 5.8 3.3 7.6.1 17.9-.8 2.9-1.3 5.6-.9 5.9 1.2 1.2 2.5-.7 3.8-5.5 1.1-4.3 1.4-4.7 2.7-3.5.8.8 2.2 1.4 3.1 1.2 2.8-.5 2.1-5-1.5-10.4-7.4-10.9-9.9-33.7-4.5-41.2 3.5-4.9 7.6-7.2 12-6.5 2 .4 3.9 1.1 4.3 1.7zm-59.2 11.6c2.9 4.9 6.4 10.2 7.9 11.8l2.8 2.9-3.8 3.1c-3.8 3.2-9.9 14.4-9.9 18.2 0 1.1-.3 2-.6 2s-3.2-2.5-6.4-5.5c-7.7-7.5-11.2-14-11.8-22.4l-.4-6.6 4.3-4.9c4-4.5 8.6-7.5 11.6-7.6.6 0 3.5 4 6.3 9zm271.8-4.8c.2 2.2-.3 3.9-1.3 4.8-2.2 1.8-2.6 1-1.9-4.4.8-5.4 2.7-5.7 3.2-.4zm-38.3 20.9c1.1 2 3.4 3.9 6.8 5.5 6.2 2.8 7.7 2.9 13.9.7 4.1-1.4 5.1-1.5 7.5-.3l2.8 1.3-5 .9c-2.7.4-10.6.9-17.5 1.1-10.5.2-13-.1-15.9-1.6-4.1-2.3-6.7-.8-2.8 1.7 2.1 1.4 2.5 2.6 3 9.1.6 8.8 3.2 13.8 7.9 15.4 3.9 1.4 18.3 1.4 20.9.1 1.6-.9 1.9-2.2 1.9-8 0-3.9.4-7 .9-7s1.4-1.9 1.9-4.3c.8-2.9 1.9-4.5 3.6-5.3 2.1-1 3.1-.6 8.8 3.7 4.3 3.2 7.1 6.1 8.3 8.8 1.7 4 1.7 4.1-.5 10-3 8.2-10.3 20.8-13.7 23.7-4.7 4.1-5.8 3.7-12.7-4.9-5.9-7.3-7-6.7-11.1 5.8-2.6 8.2-6 11.1-11.9 9.9-4-.7-14.8-11-17.8-16.8-1-1.9-3.6-6-5.7-9.1-4.5-6.4-5.6-10.1-4.2-13.6.8-2.1 16.4-21.4 20.3-25.2 2.3-2.2 6.2-4.7 7.5-4.7.7 0 2 1.4 2.8 3.1zm310.8 1.7c.9.9 1.8 3 2.1 4.6s1 3.4 1.6 4c.5.5 1 3 1 5.5 0 5.1-3.3 11.7-5.2 10.5-.6-.4-.8-.3-.4.4 1.4 2.3-8.5 7.9-21 11.7l-4 1.2.9-6.1c1.2-8.3 1.3-14.3.4-19.1l-.8-4 6.8-2.8c3.8-1.5 8.6-3.9 10.8-5.2 4.8-2.9 5.7-3 7.8-.7zm-400.6 13.4c-4.8 12.7-6.3 19.1-8.2 34-.8 6.9-1.5 12.9-1.5 13.2 0 3.9-15.7-10.8-24.9-23.2-3.3-4.6-6.1-9.2-6.1-10.2 0-2.7 12.3-12.5 21.5-17.1 6.5-3.2 21-7.4 22.3-6.3.2.1-1.2 4.4-3.1 9.6zm161-.6c4 1.9 9.6 5.6 12.5 8.3 5.2 4.8 5.2 4.8 3.8 8.1-2.2 5.4-8.5 12.9-19.8 23.7-5.8 5.6-10.8 10.1-10.9 9.9-.1-.1-.9-3.6-1.7-7.7s-2.6-10.6-4-14.5-2.6-7.8-2.6-8.5c0-.8 1.7-4.9 3.9-9 2.1-4.2 4.4-9.2 5.1-11.3 1-3.2 1.4-3.5 3.8-3 1.5.3 6 2.1 9.9 4zm-60.9-2.1c8.7.5 12.2.4 12.2-.4 0-.6.7-1.1 1.6-1.1 1.3 0 1.5.6.9 2.7-.9 3.6-2.1 4.3-7.2 4.3-2.3 0-5.4.5-7 1.1-1.5.6-5.2 1.1-8.2 1.2-6 .1-8.1-1.5-8.1-6.6 0-2.2.4-2.7 1.8-2.3.9.2 7.2.8 14 1.1zm-1.2 18.5c4 0 7.6.4 7.9 1 .8 1.3-8.9 1.3-13.7-.1-2.1-.5-3.8-1.5-3.8-2.1 0-.9.3-.9 1.2 0 .7.7 4.1 1.2 8.4 1.2zm37.2 12.6c0 1.7-.3 2.2-.9 1.3-.5-.9-1-.4-1.5 1.6-.4 1.6-.2 3.6.5 4.6.6 1 1 4.5 1 7.6-.1 5.2-.2 5.4-.9 2.3l-.7-3.5-.2 3.7c0 2.1.4 3.8 1 3.8.5 0 .7.4.4 1-1.8 2.8-2.5 0-2.5-9.5 0-8 .4-11.2 1.6-13 2-3.1 2.2-3.1 2.2.1zm69.6 20.9c3.7 6 6.9 11.9 7.2 13.1.5 2.1-2.7 7.9-11.3 20.4-5.5 7.8-21.3 23-31 29.7l-8.4 5.7-2.4-2.9c-3.8-4.7-4.2-6.3-5.5-19.5-.7-6.9-1.9-14.9-2.6-17.9-.8-3-1.3-5.5-1.2-5.6.2-.1 2.3-1.5 4.8-3 7.5-4.6 21-16.6 25.4-22.5 2.2-3 6-7.9 8.5-10.8l4.4-5.2 2.7 3.7c1.5 2.1 5.8 8.7 9.4 14.8zm-228.1 17.4c5.9 4.7 6.7 5.7 6.3 8-1.8 8.8-2.7 16.2-3.5 26.2-.9 11.5-2.4 16.9-4.7 16.9-1.8 0-14.9-10.7-22.1-18.1-7.8-8.1-25.1-28.7-26.5-31.6-3.1-6.5 14-12.8 19.9-7.4 5.2 4.8 9.2 2.1 10.7-7.5l.7-4.1 6.2 6.2c3.4 3.4 9.3 8.5 13 11.4zm311.3-.2c.7 1.2.8 4.2.3 8.8-1.4 12-1 33.4.6 40.4 2 8.4 10.3 25.4 15.1 31 4.2 4.9 11.8 10.1 14.6 10.1 4.2 0 1.1 2.5-9.4 7.5l-11.3 5.3-2.4-2.1c-1.2-1.2-6.6-8.2-11.9-15.6-14.7-20.6-25-45.3-26.8-64.2l-.7-6.5 8.2-5.3c8-5.1 19.6-11.1 21.6-11.1.6 0 1.5.8 2.1 1.7zm-361.1 8c2.8 7 9.5 31.2 9.5 34.3 0 3.9-18.6 17.4-34.5 25-10.9 5.2-47.1 19.4-52.1 20.4-3 .7-3.2.5-4.8-3.5-1.9-4.7-4.6-16.8-4.6-20.5v-2.5l2.8 1.9c3.5 2.5 8.7 4.2 12.6 4.2 5.9-.1 17.1-3 23.5-6.2 14.8-7.5 30.7-28.8 35.7-47.6 1.6-6.4 6.6-13.8 8.4-12.7.5.3 2 3.5 3.5 7.2zm301 20.2c2.8 5.8 3.6 8.3 2.8 9.3-.5.7-4.8 5.9-9.4 11.5-14.6 17.9-15.7 19.4-17.5 25.7-1.3 4.3-2 11-2.4 22.6l-.5 16.4-6.4-6.4c-3.5-3.5-8.4-9.5-10.9-13.3-4.1-6.4-12.2-22.7-12.2-24.6 0-.4 2.4-2.4 5.3-4.3 8.9-6 25.8-21.2 35.2-31.9 5-5.6 9.4-10.8 9.8-11.5 1.4-2.4 2.2-1.6 6.2 6.5zm-89.6 1.3c0 2.7-.2 2.9-.8 1.3-.5-1.1-.6-2.6-.4-3.3.8-2.1 1.3-1.3 1.2 2zm94 17.3c2.2 7 9.8 21.7 15.8 31 6.5 9.9 15.3 19.8 25.5 28.6l6.7 5.7-5.7 3.4c-6.4 3.8-14.6 7.5-21 9.4-4.3 1.3-4.4 1.3-7.4-1.9-14.4-15.5-23.1-32.2-27.3-52.5-2.4-11.7-2.2-12.4 4.8-21.1 3.4-4.3 6.4-7.6 6.7-7.2.3.3 1.2 2.4 1.9 4.6zm-277.6 13.3c7.4 5.2 11.5 8.8 11.1 9.5s-2.7 4.4-5.1 8.4l-4.5 7.2-3.6-2.4c-2-1.3-4.9-2.7-6.4-3-2.6-.7-2.8-1.1-2.8-5.4 0-4.5-1.4-15.6-2.6-21.5-.7-3.4-1.8-3.9 13.9 7.2zm186.7 9.9c0 4.3-.5 4.1-1.3-.5-.4-1.8-.2-3.2.3-3.2.6 0 1 1.6 1 3.7zm-199.1 17.1c.1 2.9-.6 6.9-1.4 8.8-4.4 10.7-38.6 41.4-48.9 44-2.6.6-4-.5-19.3-16.2l-16.5-16.9 11.8-1.3c26.1-2.8 55.7-13.1 68.4-23.7 4-3.3 4.5-3.5 5.1-1.8.4 1 .8 4.2.8 7.1zm174.4 49c.2 2.3 0 4.2-.5 4.2-.4 0-.8-2.1-.8-4.7 0-5.6.8-5.3 1.3.5z"/><path d="m249.7 228.7c-.4.3-.7 1.2-.7 1.9 0 1.6 9.9 11.8 10.7 11.1 1.3-1.4-1-7.9-3.8-10.7-3-2.9-4.9-3.7-6.2-2.3zm311.3 96.3c-.8.5-1.2 1.1-1 1.3.3.2 2.9 1.8 5.8 3.6 8.7 5.5 13.1 13.9 13.2 24.9 0 3 .4 4.2 1.3 4 .7-.3 1.3-2.9 1.5-7 .2-5.2-.2-7.7-1.9-11.2-3.4-7.3-15.8-17.5-18.9-15.6zm-411 13.1c-11.5.7-14.2 1.4-18.2 5.2-3.3 3.1-7.1 10.4-6.4 12.4.8 2.1 2.4.7 4.8-4.3 3.5-7.6 7.5-9.4 24.6-10.9 3.9-.4 7.2-1.1 7.2-1.5 0-1.5-1.2-1.6-12-.9zm213-25.9c-2.7 1.4-4.6 1.7-8.1 1.3-3.1-.5-4.9-.3-5.4.5-2.2 3.6 9.5 4.2 14.5.7 3.2-2.1 5.1-4.8 3.3-4.6-.4.1-2.4 1-4.3 2.1zm-103.9-26.7c-.1 1.1-.8 3.3-1.6 4.9-1.8 3.3-1.9 3.9-.5 3.1.6-.3 1 .1 1 1s.5 1.3 1.1.9c.7-.4.7-1 .1-1.6s-.6-2.2 0-4.5c.5-1.9.7-4 .4-4.6-.2-.7-.5-.3-.5.8zm21 34.1c0 1.1.3 1.4.6.6.3-.7.2-1.6-.1-1.9-.3-.4-.6.2-.5 1.3zm28.1 21.4c0 1.4.2 1.9.5 1.2.2-.6.2-1.8 0-2.5-.3-.6-.5-.1-.5 1.3zm-2.2 10c0 .5.5 1 1.1 1 .5 0 .7-.5.4-1-.3-.6-.8-1-1.1-1-.2 0-.4.4-.4 1zm27.3 14.7c-.7.3-1.3 1.3-1.3 2.4 0 1.3.5 1.7 1.6 1.2 1.1-.4 1.2-.8.4-1.3-.9-.6-.9-.9.1-1.2.8-.3 1.2-.8.9-1-.3-.3-1.1-.3-1.7-.1zm29.9 1.8c0 1.6.2 2.2.5 1.2.2-.9.2-2.3 0-3-.3-.6-.5.1-.5 1.8zm0 6.5c0 1.9.2 2.7.5 1.7.2-.9.2-2.5 0-3.5-.3-.9-.5-.1-.5 1.8zm-29.1 1.6c0 1.1.3 1.4.6.6.3-.7.2-1.6-.1-1.9-.3-.4-.6.2-.5 1.3zm-56.4 12.5c.2 5.6.5 10.5.8 10.7.8.8.4-17.1-.4-19.1-.4-1.1-.6 2.7-.4 8.4zm56.3-9.6c0 .5.5 1.7 1 2.5s1 1 1 .5c0-.6-.5-1.7-1-2.5s-1-1.1-1-.5zm-78.8 5.5c0 1.4.2 1.9.5 1.2.2-.6.2-1.8 0-2.5-.3-.6-.5-.1-.5 1.3zm107.9 2.6c0 1.1.3 1.4.6.6.3-.7.2-1.6-.1-1.9-.3-.4-.6.2-.5 1.3zm-58.1 4.4c0 1.6.4 3 .8 3 .5 0 .7-1.4.4-3-.2-1.7-.6-3-.8-3s-.4 1.3-.4 3zm-50.9.2c0 1.4-.4 3.5-.7 4.5-.5 1.7-.5 1.7.6 0 .6-1 .9-3 .7-4.5l-.4-2.7zm138.2 7.3c0 .8.4 1.5.9 1.5.4 0 .8-.4.8-.9 0-.6-.4-1.2-.8-1.5-.5-.3-.9.1-.9.9zm-138.1 14c0 1.6.2 2.2.5 1.2.2-.9.2-2.3 0-3-.3-.6-.5.1-.5 1.8zm22.3 1.5c-.4 1.2-.5 2.4-.2 2.7.3.2.8-.5 1.2-1.7s.5-2.4.2-2.7c-.3-.2-.8.5-1.2 1.7zm61.8 7c0 3 .2 4.3.4 2.7.2-1.5.2-3.9 0-5.5-.2-1.5-.4-.2-.4 2.8zm-64.5 4.5c-.4 2-.2 2.3.8 1.4.7-.6 1-1.7.7-2.5-.7-2-1-1.8-1.5 1.1zm28.4 9c0 1.6.2 2.2.5 1.2.2-.9.2-2.3 0-3-.3-.6-.5.1-.5 1.8zm67.4 3.2c-.6 1.4-.5 1.5.5.6.7-.7 1-1.5.7-1.8s-.9.2-1.2 1.2zm-95.4 1.8c0 1.6.2 2.2.5 1.2.2-.9.2-2.3 0-3-.3-.6-.5.1-.5 1.8zm123.5 4.5c.3 1.1.7 2 .9 2s.4-.9.4-2-.4-2-.9-2-.7.9-.4 2zm-28.7 1.1c0 .5.5.7 1 .4.6-.3 1-.8 1-1.1 0-.2-.4-.4-1-.4-.5 0-1 .5-1 1.1zm-97.5 1.9c-.3.5.1 1 1 1s1.3-.5 1-1c-.3-.6-.8-1-1-1s-.7.4-1 1zm71.7 8c0 1.9.2 2.7.5 1.7.2-.9.2-2.5 0-3.5-.3-.9-.5-.1-.5 1.8zm-72.7 4c-.3.5.1 1 .9 1 .9 0 1.6-.5 1.6-1 0-.6-.4-1-.9-1-.6 0-1.3.4-1.6 1zm73.8 6c0 3 .2 4.3.4 2.7.2-1.5.2-3.9 0-5.5-.2-1.5-.4-.2-.4 2.8zm55.2 4.9c0 4 .3 5.6 1 5.1 1.2-1 1-8.9-.2-10.1-.5-.5-.8 1.8-.8 5zm-102.5 0c0 2.5.6 2.7 1.3.6.4-.8.2-1.7-.3-2-.6-.4-1 .3-1 1.4zm47.2 4.1c0 1.9.2 2.7.5 1.7.2-.9.2-2.5 0-3.5-.3-.9-.5-.1-.5 1.8zm26.8-1c0 .5.5 1 1 1 .6 0 1-.5 1-1 0-.6-.4-1-1-1-.5 0-1 .4-1 1zm-100.4 7.3c.3 1 .9 1.5 1.2 1.2s0-1.1-.7-1.8c-1-.9-1.1-.8-.5.6zm27.6 2.2c0 1.6.2 2.2.5 1.2.2-.9.2-2.3 0-3-.3-.6-.5.1-.5 1.8zm46.9-.9c0 1.1.3 1.4.6.6.3-.7.2-1.6-.1-1.9-.3-.4-.6.2-.5 1.3zm28 0c0 1.1.3 1.4.6.6.3-.7.2-1.6-.1-1.9-.3-.4-.6.2-.5 1.3zm27 1c0 1.1.3 1.4.6.6.3-.7.2-1.6-.1-1.9-.3-.4-.6.2-.5 1.3zm-154.9 9.4c0 1.4.2 1.9.5 1.2.2-.6.2-1.8 0-2.5-.3-.6-.5-.1-.5 1.3zm-47.1 18.7c-2.2.4-2.3.8-1.7 5.1.6 4.4 1.4 11.7 5.1 45.7 2.4 21.3 1.8 19.9 7.8 19 2.9-.3 5.4-.8 5.6-1 .2-.3-.2-5.8-.8-12.4-1.2-10.5-1.1-12.2.3-15 .9-1.7 2.3-3.1 3.2-3.1 2.7 0 3.8 5.2 3.8 18.2v12.8h11.8l-.5-14.3c-.5-15.4-1.7-20.4-5.8-24.8-3.4-3.7-8-3.9-12.4-.4l-3.2 2.4-1.3-15.9c-1.2-14.7-1.5-15.9-3.4-16.4-2.3-.6-4.8-.6-8.5.1zm319.8 3.4c-2.4.9-2.6 1.4-2.3 4.7 1.6 13.7 5.4 54.4 5.4 57.4v3.8h12.2l-.7-8.6c-.6-6.4-.5-8.5.4-8 .6.4 1.1 1.1 1.1 1.7 0 2.3 6.6 14.6 9.8 18.1s3.9 3.8 8.8 3.8c2.9 0 5.5-.4 5.8-.8 1-1.6-.6-8.2-2-8.2-2.7 0-7.3-5.3-11.3-12.9-2.2-4.3-4.1-8.6-4.1-9.4 0-.9 2.7-4 6-6.9l6.1-5.4-3.9-4.2c-2.1-2.3-4.4-4.2-4.9-4.2-.6 0-3.6 3.1-6.7 7-3.1 3.8-6 7-6.5 7-.8 0-3.1-23.7-3.1-31.8v-4.2l-3.7.1c-2.1 0-5 .5-6.4 1zm-346.3 10.9c-7.2 2.2-13.6 12.5-14.4 23.2-1.4 20.4 7.9 34.1 22.1 32.5 9-1.1 14.2-6.3 15.4-15.5.5-3.9.5-3.9-3.3-4.5-7.1-1.2-8.4-.9-8.4 1.7 0 1.4-.4 3.6-1 5-.8 2.1-1.6 2.6-4.5 2.6-3.3 0-3.8-.4-5.6-4.6-1.8-3.9-2-6.2-1.7-15.1.3-10.4.3-10.5 3.6-13.4 3.7-3.3 4.1-3.4 6.8-1.5 1.5 1.1 1.9 2.6 1.8 6.6l-.1 5.2 5.3-.5c6.7-.7 7.4-1.1 7.4-4.6 0-12.4-11.4-20.7-23.4-17.1zm212.8 5.7-17.1.3-.6 3.5c-.3 1.8-.3 4.3 0 5.4.5 1.9 1 2 7.3 1.5 3.7-.4 6.9-.3 7.2.2s.2 7.9-.2 16.4-.5 16.1-.2 16.8c.3.9 2.3 1.2 6.6 1l6.1-.3-.4-16.8-.3-16.7h16l.4-3.7c.8-6.8 0-8.3-4.1-8.1-2 .1-11.3.4-20.7.5zm34.5 3.2c-5.7 1.8-6.9 3-6.9 6.7 0 1.9.5 4.4 1.1 5.5 1 2 1 2 4.2.1 1.8-1.1 4.7-2.3 6.5-2.7 3.1-.6 3.2-.6 3.2 2.8s-.1 3.5-5.1 3.9c-11.8 1.2-18.2 16.1-9.9 23.1 3.5 3 8.8 4.1 12.4 2.7 3.8-1.4 4.6-1.3 4.6.7 0 3.7 1.5 4.7 5.1 3.4 1.8-.6 4.4-1.8 5.6-2.7 2-1.3 2.2-1.8 1.1-3.7-.7-1.4-1.2-7.8-1.4-17-.2-15.8-.8-18-5.8-21.2-2.8-1.9-11.1-2.8-14.7-1.6zm8.3 26.6c1.6 3.6-.3 7.5-3.7 7.5-2.2 0-2.5-.4-2.5-3.4 0-1.9.3-4.1.6-5 .9-2.5 4.3-1.9 5.6.9zm22.5-26.3c-3.7 1-3.8 1.2-3.3 4.3.7 3.5-2.5 34.1-5 47.4-.8 4.6-1.3 8.9-1 9.6.5 1.5 9.8 3.7 10.7 2.7.4-.4 1.4-6.3 2.4-13.2 2.1-16.2 1.9-15.5 5.4-12.9 2.3 1.7 3.8 2 6.8 1.6 7.9-1.3 12.5-7.9 13.1-18.9.4-5.8.1-7.3-2.2-11.1-1.6-2.8-3.9-5.1-6.2-6.2-3.4-1.6-3.9-1.6-7-.1-3.4 1.6-3.4 1.6-3.4-.9 0-1.4-.6-2.5-1.2-2.5-.7 0-2.2-.2-3.3-.4-1.1-.3-3.7 0-5.8.6zm18.3 16.7c0 3.4-2.1 8.9-4 10.6-1.8 1.7-2.1 1.7-4.6 0-2.3-1.5-2.5-2.1-1.9-5.3 1.1-6.4 1.6-7.3 4.8-8.7 2.8-1.2 3.4-1.2 4.5.2.6.9 1.2 2.4 1.2 3.2zm21-16.1c-4.5 1.8-4.5 1.8-4.4 6.5.1 6.5 1 7.1 6.8 4.2 6.5-3.3 7.3-3.2 7.8 1 .4 3.5.4 3.5-3.7 3.5-12.7 0-20.1 17.1-10.4 24.2 2.8 2.1 8.7 2.7 12.9 1.5 2.2-.7 2.7-.4 3.7 2.3 1.3 3.6 2.5 3.7 7.8.7 2.9-1.7 3.9-2.9 3.6-4.3-.2-1-.6-9-1-17.6-.6-14.9-.8-15.9-3.1-18.4-5.1-5.4-12-6.7-20-3.6zm9.8 24.4c.7.7 1.2 2.4 1.2 3.8 0 3.2-1.7 5-4.7 5-2 0-2.3-.5-2.3-3.8 0-3.8 1.4-6.2 3.5-6.2.6 0 1.6.5 2.3 1.2zm-250.8-24.5c-2.6 1-7.1 5.7-9.1 9.5-2.5 5-2.6 15.8 0 21.4 3.3 7.2 9.4 11 22.4 13.8 2.5.6 3 .3 4.7-3.6 1.1-2.4 2-5.4 2-6.8 0-2.4-.1-2.5-6.4-2.2-5.6.3-6.6.1-9.2-2.2-3.7-3.2-2.7-3.9 7.4-5.6 10.8-1.7 10.5-1.4 9.7-7.4-1.1-8.1-3.9-13.1-8.9-15.5-4-2-9.4-2.6-12.6-1.4zm7.8 13c.3 2.7 0 3.3-1.7 3.3-1 0-2.6.3-3.5.6-1.2.4-1.6 0-1.6-1.6 0-6.4 6.2-8.4 6.8-2.3zm26.2-11.5c-2 1.3-4.7 4.6-6.3 7.8-2.5 4.8-2.8 6.3-2.4 12 .7 11.2 5.6 17.6 16.3 21.4 2.3.8 5.7 1.6 7.5 1.8 3 .3 3.6-.1 5.1-3.2 1-2 2-5 2.4-6.6l.6-3.1-5.6.5c-6.2.5-10.5-.8-12.4-3.8-1.4-2.3-1.3-2.3 10.8-4.3l7.5-1.3v-5.4c-.1-10.5-5.6-17-14.9-17.8-4.1-.3-5.8.1-8.6 2zm10.2 10.3c1.4 3 .6 4-4.1 5-3.3.7-3.4.7-2.7-2.1 1.5-5.8 4.8-7.2 6.8-2.9zm20.5-8.8c-2.4.4-2.8.8-2.3 2.6.3 1.2.6 10 .6 19.4v17.3h3.8c8.3 0 8.2 0 8.2-11.9v-10.7l3.3-3.2c1.8-1.8 3.8-3.2 4.5-3.2 1.6 0 1.5 5-.2 17-.8 5.2-1.1 9.8-.8 10.1.6.6 10.2 2.9 12.1 2.9.4 0 1.1-7.2 1.4-16 .6-13.3.4-16.6-.8-19-3.8-7.3-11.3-8-18.2-1.7l-2.3 2v-3.1c0-3-.2-3.2-3.2-3.1-1.8.1-4.6.4-6.1.6zm-92.1 67.8c-3.8.8-7.1 1.7-7.4 1.9-.3.3-.1 2.5.4 4.8.7 3.4 1.4 4.4 3.2 4.6 1.2.2 2.2.7 2.2 1.2 0 2.1 6 35.4 6.5 35.8 1 1 14-3.7 18.8-6.8 6.1-3.9 8.6-9.1 8.7-17.9 0-3.5-.5-8.1-1.1-10.2-1.4-4.6-6.1-10.4-10-12.4-4.2-2.2-13.4-2.6-21.3-1zm14.3 10.6c4.2 1.5 6.1 5.5 6.1 12.9 0 5.2-.4 6.5-2.6 8.7-1.4 1.4-2.9 2.2-3.4 1.7-.4-.5-1.6-5-2.4-9.9-.9-5-1.9-10.2-2.2-11.8-.6-3-.1-3.2 4.5-1.6zm141.3-10.6c-4.1.7-7.6 1.6-7.9 1.8-.2.3-.1 2.5.4 4.9.7 3.4 1.3 4.4 3.1 4.6 1.2.2 2.2.5 2.2.7 0 1.5 6.3 36.1 6.6 36.4 1 1 14.6-4.2 19-7.2 6.6-4.5 8.4-8.4 8.4-18 0-19.2-10.9-27.2-31.8-23.2zm13.7 10.6c4.3 1.5 6.1 5.4 6.1 13.3 0 5.8-.3 6.7-2.7 8.6-1.4 1.1-3 1.7-3.3 1.3-.4-.4-1.5-5.3-2.5-10.8-.9-5.5-1.9-10.8-2.1-11.8-.6-2 .1-2.1 4.5-.6zm-92-.6-4.6 2.4 1.5 5.8c1.1 4.5 1.3 7.8.6 15.1-.5 5.1-.7 9.5-.5 9.8.2.2 3.1.4 6.3.4h5.8v-9.8c0-9 .2-10 2.3-12 2.7-2.6 5.2-2.8 6.1-.6.8 2.2.7 13.9-.3 19.6l-.8 4.8h4.8c2.6 0 5.4.3 6.3.6 1.4.5 1.6-.6 1.7-7.7.1-9.7 1.7-16.8 4.1-18.3.9-.6 2-.8 2.3-.5.3.4.8 7.2 1.2 15.3.7 16.3.1 15.4 8.5 14l3.8-.7-.7-15.6c-.6-16.3-1.4-19.7-5.5-22.5-3.4-2.4-9.1-2-12.6.9-2.6 2.2-3.1 2.3-4.3.9-1.7-2-6.3-4.4-8.6-4.4-1 0-3.5 1.1-5.5 2.5l-3.6 2.4-.6-2.4c-.8-3.1-1.8-3.1-7.7 0zm154.8.1c-4.4 2.3-4.7 2.6-3.5 4.7.9 1.5 1.3 6.3 1.1 15.5l-.1 13.3 6-.3 6.1-.3-.2-9.4c-.2-8.5 0-9.6 2-11.7 3-3.2 5.7-3.1 6.5.2.4 1.5.4 7.3.1 13l-.7 10.4h4.4c2.5 0 5.1.2 5.9.6 1.1.4 1.5-1.4 1.9-10 .4-7.7 1.1-11.4 2.4-13.7 1.1-1.8 2.4-3.1 2.9-3.1 1.4.2 2.3 7.8 2.4 19.9.1 11.5-.4 10.9 8.3 9.7 3.9-.5 4.4-.9 4.1-2.8-.2-1.1-.7-8.8-1.1-17l-.8-14.9-3.2-2.8c-4.2-3.8-9.9-4-13.9-.5l-2.8 2.5-2.8-2.7c-3.6-3.4-9-3.6-13.4-.4l-3.1 2.2-.6-2.5c-.8-3.1-1.8-3.1-7.9.1zm-195.1 4.3c-2.1 18.4-1.6 23.4 3.1 27 3.1 2.5 10.1 2.8 14.3.6 2.8-1.4 2.9-1.4 3.5 1.5.6 2.6 1.1 3 3.8 3 1.8 0 4.3-.3 5.6-.7 2.2-.6 2.3-.8 1.6-6.7-.4-3.4-1-9.9-1.4-14.6l-.6-8.5h-11l-.6 6.9c-.5 5.6-1 7.3-2.8 8.8-1.3 1-2.7 1.5-3.3 1.2-.5-.4-.8-5.1-.7-11.2.2-6-.1-10.7-.7-10.8-.5-.1-3-.4-5.6-.7l-4.6-.4zm155 .5c-.3 2.8-.6 9.1-.6 13.9 0 8.5.1 9 2.9 11.8 2.4 2.4 3.8 2.9 7.6 2.9 2.5 0 5.9-.7 7.6-1.5 2.9-1.6 2.9-1.5 3.5 1.5.6 2.6 1.1 3 4 3 1.8 0 4.4-.4 5.7-.9 2.3-.9 2.4-1.2 1.6-5.8-.5-2.6-1.2-9.1-1.6-14.3l-.8-9.5-5.2-.3-5.3-.3v3.8c0 5.7-1.8 11-4.3 12.8-1.9 1.3-2.2 1.3-3-.1-.5-.9-.7-5.9-.5-11.1.6-10.4.9-9.9-6.3-10.6l-4.7-.4z"/></svg>