<svg height="1382" viewBox="91.95 164.89 790.56 551.12" width="2500" xmlns="http://www.w3.org/2000/svg"><path d="m272.5 575.2c-34.58 0-65.43-7.43-92.57-22.32-27.14-14.87-48.58-34.9-64.34-60.07-15.76-25.16-23.64-53.51-23.64-85.01 0-31.52 7.88-59.84 23.64-85.02 15.76-25.16 37.19-45.19 64.34-60.07 27.13-14.87 57.99-22.32 92.57-22.32h78v64.34h-79.31c-20.14 0-37.97 4.49-53.5 13.45-15.54 8.98-27.69 21.34-36.44 37.1-8.76 15.76-13.13 33.27-13.13 52.52 0 19.26 4.37 36.77 13.13 52.52 8.75 15.75 20.89 28.13 36.44 37.09 15.53 8.98 33.37 13.47 53.5 13.47h79.31v64.33h-78zm334.94 0v-64.33h161.5c7.88 0 14.77-1.74 20.68-5.26 5.91-3.5 10.51-8.09 13.79-13.78s4.92-11.6 4.92-17.72c0-7-1.54-13.13-4.6-18.39-3.07-5.25-7.45-9.51-13.13-12.79-5.69-3.28-12.26-4.92-19.69-4.92h-65.65c-21.45 0-40.49-3.5-57.12-10.51-16.64-7-29.77-17.83-39.39-32.5-9.63-14.65-14.44-33.15-14.44-55.48 0-17.94 4.48-34.35 13.46-49.24 8.96-14.87 21.11-26.92 36.44-36.11 15.31-9.19 32.6-13.79 51.86-13.79h155.59v64.34h-148.37c-10.07 0-18.38 3.18-24.95 9.52-6.56 6.35-9.85 14.12-9.85 23.31 0 8.76 3.28 16.41 9.85 22.98 6.56 6.56 15.32 9.85 26.26 9.85h63.68c24.06 0 44.64 3.72 61.71 11.17 17.07 7.44 30.09 18.6 39.06 33.48s13.46 33.71 13.46 56.46c0 18.38-4.59 35.56-13.79 51.54-9.19 15.98-21.78 28.67-37.75 38.08-15.98 9.42-34.04 14.11-54.16 14.11h-169.37zm-166.55 0v-334.81h75.5v334.81zm-314.15 69.56h8.56v70.36h-8.56zm36.79 0h11.12l34.25 58.16v-58.16h8.17v70.36h-9.84l-35.53-60.33v60.33h-8.17zm95.73 6.99h-20.47v-6.99h49.5v6.99h-20.47v63.37h-8.56zm50.76-6.99h41.04v6.99h-32.48v23.91h26.18v6.99h-26.18v25.48h34.24v6.99h-42.81v-70.36zm61.28 35.62v-.79c0-20.57 13.88-35.92 34.05-35.92 13.88 0 26.57 6.59 28.64 22.34h-8.56c-1.97-11.12-9.64-15.55-19.88-15.55-16.24 0-25.39 11.81-25.39 29.03v.79c0 17.41 8.66 28.83 25.19 28.83 15.25 0 21.85-9.93 22.14-22.43h-20.57v-7.09h28.93v5.22c0 20.37-12.4 31.19-30.51 31.19-21.64 0-34.04-15.05-34.04-35.62zm88.94-35.62h21.16c13.38 0 24.6 5.51 24.6 19.58v.39c0 11.51-7.77 17.42-17.42 19.19l21.55 31.2h-9.55l-20.96-30.61h-10.82v30.61h-8.56zm21.74 32.96c10.14 0 15.45-4.33 15.45-12.99v-.39c0-9.55-5.9-12.7-15.45-12.7h-13.18v26.07h13.18zm68.97-32.96h11.22l23.82 70.36h-8.46l-6.89-20.27h-29.04l-6.79 20.27h-8.07zm-6.99 43.29h24.41l-12.2-36.21zm72.01-36.3h-20.47v-6.99h49.5v6.99h-20.47v63.37h-8.56zm51.25-6.99h8.56v70.36h-8.56zm33.35 35.62v-.79c0-20.08 13.97-35.72 34.64-35.72s34.34 15.75 34.34 35.53v.79c0 19.88-13.68 35.82-34.15 35.82-20.86-.01-34.83-15.95-34.83-35.63zm60.13-.3v-.78c0-15.75-9.35-28.54-25.49-28.54-16.34 0-25.78 11.91-25.78 28.74v.79c0 17.02 11.41 28.64 25.98 28.64 15.64-.01 25.29-11.82 25.29-28.85zm33.13-35.32h11.12l34.25 58.16v-58.16h8.17v70.36h-9.84l-35.53-60.33v60.33h-8.17z" fill="#fff"/><path d="m516.39 164.89c0 41.7-33.8 75.5-75.5 75.5v-75.5z" fill="#1fa138"/></svg>