<svg height="408" viewBox="0 0 1000 163.21" width="2500" xmlns="http://www.w3.org/2000/svg"><path d="m69.36 132.83c-19.8 0-36.34-6.16-49.63-18.48-13.15-12.45-19.73-28.43-19.73-47.93 0-19.51 6.58-35.43 19.73-47.75 13.29-12.45 29.83-18.67 49.63-18.67 24.36 0 42.53 10.46 54.51 31.38l-23.84 11.55c-2.87-5.39-7.1-9.82-12.7-13.28-5.47-3.59-11.46-5.39-17.98-5.39-11.85 0-21.62 3.98-29.31 11.94s-11.53 18.03-11.53 30.22 3.84 22.27 11.53 30.22c7.68 7.96 17.45 11.94 29.31 11.94 6.51 0 12.5-1.73 17.98-5.2 5.6-3.46 9.83-7.96 12.7-13.48l23.84 11.36c-12.37 21.05-30.55 31.57-54.51 31.57zm85.09-2.31h-24.81v-128.4h24.81zm58.79 2.31c-14.59 0-26.64-4.49-36.15-13.47s-14.26-20.79-14.26-35.42c0-13.73 4.56-25.28 13.68-34.65 9.25-9.37 20.97-14.05 35.17-14.05 14.07 0 25.46 4.75 34.19 14.25 8.73 9.37 13.09 21.69 13.09 36.96v5.39h-70.14c.78 6.16 3.58 11.29 8.4 15.4s11.07 6.16 18.76 6.16c4.17 0 8.66-.83 13.48-2.5 4.95-1.67 8.86-3.91 11.72-6.74l10.94 15.79c-9.51 8.6-22.47 12.9-38.88 12.9m21.68-57.58c-.39-5.26-2.54-10.01-6.45-14.25-3.78-4.24-9.38-6.35-16.8-6.35-7.03 0-12.5 2.12-16.41 6.35-3.91 4.11-6.19 8.86-6.84 14.25zm82.79 55.25h-26.77l-37.9-92.98h26.57l24.62 64.68 24.62-64.68h26.77l-37.9 92.98zm83.18 2.31c-14.59 0-26.64-4.49-36.15-13.47s-14.26-20.79-14.26-35.42c0-13.73 4.56-25.28 13.68-34.65 9.25-9.37 20.97-14.05 35.17-14.05 14.07 0 25.46 4.75 34.19 14.25 8.73 9.37 13.09 21.69 13.09 36.96v5.39h-70.14c.78 6.16 3.58 11.29 8.4 15.4s11.07 6.16 18.76 6.16c4.17 0 8.66-.83 13.48-2.5 4.95-1.67 8.86-3.91 11.72-6.74l10.94 15.79c-9.51 8.6-22.47 12.9-38.88 12.9m21.69-57.58c-.39-5.26-2.54-10.01-6.45-14.25-3.78-4.24-9.38-6.35-16.8-6.35-7.03 0-12.51 2.12-16.41 6.35-3.91 4.11-6.19 8.86-6.84 14.25zm56.41 55.25h-24.81v-92.98h24.81v12.71c3.52-4.36 8.01-7.96 13.48-10.78s11.01-4.24 16.61-4.24v23.87c-1.69-.38-3.97-.58-6.84-.58-4.17 0-8.6 1.03-13.29 3.08s-8.01 4.56-9.96 7.51z" fill="#3f6bbe"/><path d="m542.18 130.84h-13.91v-110.14h13.91v110.15m92.74 0h-12.57v-52.18c0-6.72-1.57-11.45-4.69-14.2-3.13-2.86-7.6-4.29-13.41-4.29-4.69 0-9.27 1.21-13.74 3.63-4.36 2.42-7.77 5.34-10.22 8.75v58.29h-12.57v-79.77h12.57v11.56c3.13-3.63 7.32-6.77 12.57-9.41 5.25-2.75 10.67-4.13 16.26-4.13 17.21 0 25.81 8.59 25.81 25.76v55.98m50.74 1.99c-13.74 0-24.64-4.18-32.68-12.55l6.54-8.92c2.79 3.19 6.59 5.89 11.4 8.09 4.92 2.2 10 3.3 15.25 3.3 6.03 0 10.73-1.27 14.08-3.8s5.03-5.83 5.03-9.91c0-3.52-1.73-6.27-5.2-8.26-3.46-2.09-7.65-3.63-12.57-4.62-4.8-1.1-9.67-2.31-14.58-3.63-4.92-1.43-9.11-3.8-12.57-7.1-3.46-3.41-5.2-7.87-5.2-13.38 0-6.5 2.68-11.95 8.04-16.35 5.48-4.4 12.85-6.61 22.12-6.61 12.18 0 22.18 3.85 30 11.56l-5.87 8.59c-5.7-6.72-13.74-10.07-24.14-10.07-5.47 0-9.83 1.21-13.07 3.63-3.24 2.31-4.86 5.28-4.86 8.92 0 3.19 1.73 5.73 5.2 7.6 3.46 1.76 7.6 3.19 12.4 4.29 4.92.99 9.83 2.2 14.75 3.63s9.11 3.96 12.57 7.6c3.46 3.52 5.2 8.15 5.2 13.87 0 7.05-2.79 12.83-8.38 17.34s-13.41 6.77-23.47 6.77m58.48-93.13c-2.23 0-4.19-.77-5.87-2.31-1.68-1.65-2.51-3.63-2.51-5.94s.84-4.29 2.51-5.95c1.68-1.65 3.63-2.48 5.87-2.48 2.35 0 4.36.83 6.03 2.48 1.68 1.65 2.51 3.63 2.51 5.95s-.84 4.29-2.51 5.94c-1.68 1.54-3.69 2.31-6.03 2.31zm6.37 91.15h-12.57v-79.76h12.57zm57.59 32.37c-7.15 0-13.24-.88-18.27-2.64-5.03-1.65-9.83-4.73-14.42-9.25l6.37-9.25c6.15 7.27 14.92 10.9 26.32 10.9 7.49 0 13.69-1.98 18.6-5.95 4.92-3.85 7.38-9.85 7.38-18v-11.4c-3.02 4.18-6.93 7.6-11.73 10.24s-9.94 3.96-15.42 3.96c-10.73 0-19.44-3.69-26.15-11.07-6.59-7.49-9.89-17.56-9.89-30.22s3.3-22.73 9.89-30.22c6.7-7.49 15.42-11.23 26.15-11.23 11.06 0 20.11 4.68 27.15 14.04v-12.06h12.57v77.45c0 12.22-3.63 21.03-10.89 26.42-7.26 5.51-16.48 8.26-27.66 8.26m1.84-42.25c4.8 0 9.44-1.27 13.91-3.8 4.58-2.53 7.99-5.61 10.22-9.25v-34.84c-2.23-3.63-5.59-6.66-10.06-9.08-4.47-2.53-9.16-3.8-14.08-3.8-8.04 0-14.41 2.81-19.11 8.42-4.58 5.61-6.87 12.94-6.87 21.96s2.35 16.24 7.04 21.96c4.69 5.61 11.01 8.42 18.94 8.42m129.27 9.91h-12.57v-52.52c0-6.61-1.56-11.28-4.69-14.04-3.13-2.75-7.65-4.13-13.58-4.13-4.58 0-9.11 1.21-13.58 3.63-4.36 2.42-7.82 5.34-10.39 8.75v58.29h-12.57v-110.12h12.57v41.95c3.13-3.63 7.32-6.77 12.57-9.41 5.25-2.75 10.73-4.13 16.42-4.13 17.21 0 25.81 8.48 25.81 25.43v56.31m45.73 1.97c-5.92 0-10.39-1.6-13.41-4.79s-4.53-7.82-4.53-13.87v-52.18h-13.41v-10.9h13.41v-21.8h12.57v21.8h16.43v10.9h-16.43v49.54c0 3.08.67 5.56 2.01 7.43 1.45 1.87 3.52 2.81 6.2 2.81 3.69 0 6.54-1.1 8.55-3.3l3.69 9.25c-3.69 3.41-8.71 5.12-15.08 5.12" fill="#646464"/></svg>