<svg height="2500" viewBox="102.021 118.109 877.291 560.798" width="2500" xmlns="http://www.w3.org/2000/svg"><path d="m468.573 206.855h254.651a281.655 281.655 0 0 0 -71.776-55.314c-39.521-21.333-84.817-33.432-133.021-33.432-64.214 0-123.364 21.531-170.594 57.771-48.302 37.063-84.182 89.541-100.354 150.093-2.51 9.434-10.234 16.084-19.244 17.704-36.428 9.744-68.09 31.318-90.599 60.375-22.324 28.787-35.615 65.005-35.615 104.407 0 47.068 19.083 89.692 49.932 120.53 30.844 30.844 73.463 49.918 120.536 49.918h382.766c25.709 0 49.114-10.532 66.094-27.511 16.99-16.984 27.515-40.38 27.515-66.104 0-25.719-10.525-49.125-27.515-66.099-16.98-16.974-40.385-27.51-66.094-27.51h-186.682c-39.198 0-74.808-16.027-100.604-41.819-25.797-25.807-41.808-61.41-41.808-100.593 0-39.188 16.011-74.802 41.818-100.594 25.786-25.797 61.406-41.822 100.594-41.822zm186.682 329.218c-27.187 0-49.234 22.031-49.234 49.219 0 27.192 22.047 49.235 49.234 49.235 27.193 0 49.218-22.043 49.218-49.235 0-27.188-22.025-49.219-49.218-49.219" fill="#00b19c" fill-rule="evenodd"/><path d="m773.265 255.65h-304.692c-25.724 0-49.12 10.533-66.104 27.506-16.98 16.984-27.516 40.385-27.516 66.11 0 25.718 10.536 49.125 27.516 66.094 16.984 16.995 40.38 27.525 66.104 27.525h186.687c39.177 0 74.792 16.016 100.59 41.818 25.806 25.792 41.795 61.401 41.795 100.589 0 35.765-13.322 68.557-35.276 93.615h5.262c58.452 0 111.39-23.688 149.692-61.986 38.297-38.301 61.989-91.218 61.989-149.666 0-57.619-22.943-109.807-60.197-147.958-36.943-37.833-87.918-61.876-144.448-63.698-.474.032-.927.052-1.402.052zm-304.692 44.391c-27.193 0-49.224 22.032-49.224 49.224 0 27.183 22.031 49.224 49.224 49.224 27.187 0 49.224-22.041 49.224-49.224 0-27.192-22.037-49.224-49.224-49.224" fill="#58595f" fill-rule="evenodd"/><text transform="matrix(1.33333 0 0 1.33333 172.033 907.05)"><tspan fill="#58595f" font-family="Roboto" font-size="207.407" font-weight="700" x="0" y="0">Clopri</tspan></text></svg>