<svg height="471" viewBox=".55 .5 167.9 32" width="2500" xmlns="http://www.w3.org/2000/svg"><path d="m13 .5v3a4.8 4.8 0 0 0 -4.8 4.79v3.15h-3v-3.15c0-4.3 3.49-7.79 7.8-7.79z" fill="#ef8a45"/><path d="m20.79 8.29v3.15h-3v-3.15c0-2.64-2.15-4.79-4.79-4.79v-3c4.3 0 7.79 3.49 7.79 7.79zm4.64 6.52v16c0 .93-.75 1.68-1.68 1.68h-10.76v-2.13l1.34-6.22 6.24-1.33-6.24-1.34-1.34-6.22v-2.14h10.76c.93 0 1.68.76 1.68 1.68z" fill="#04426d"/><path d="m11.65 21.48-6.24 1.34 6.24 1.33 1.34 6.22v2.13h-10.76c-.93 0-1.68-.75-1.68-1.68v-16.01c0-.93.76-1.68 1.68-1.68h10.76v2.14l-1.34 6.22zm22.33-4.46c0-6.8 4.68-11.71 10.98-11.71 3.34 0 6.21 1.33 8.11 3.81l-2.46 2.57c-1.49-1.79-3.34-2.67-5.48-2.67-4.25 0-7.32 3.32-7.32 8s3.07 8 7.32 8c2.14 0 3.98-.88 5.48-2.7l2.46 2.6c-1.9 2.47-4.77 3.81-8.14 3.81-6.27 0-10.95-4.91-10.95-11.71zm21.36-12.75h3.66v24.14h-3.66zm5.94 15.45c0-5.21 3.51-8.88 8.32-8.88s8.35 3.68 8.35 8.88-3.48 8.92-8.35 8.92-8.32-3.71-8.32-8.92zm12.97 0c0-3.32-1.99-5.43-4.66-5.43s-4.63 2.11-4.63 5.43 1.99 5.43 4.63 5.43 4.66-2.11 4.66-5.43zm21.23-8.69v17.38h-3.48v-2.21c-1.17 1.59-3.02 2.44-5.04 2.44-4.01 0-6.73-2.44-6.73-7.68v-9.92h3.66v9.37c0 3.16 1.35 4.65 3.66 4.65 2.55 0 4.27-1.76 4.27-5.24v-8.79zm18.9-6.76v24.14h-3.51v-2.25c-1.23 1.66-3.05 2.47-5.18 2.47-4.54 0-7.91-3.51-7.91-8.92s3.37-8.88 7.91-8.88c2.02 0 3.81.75 5.04 2.34v-8.9h3.66zm-3.6 15.46c0-3.32-2.02-5.43-4.66-5.43s-4.66 2.11-4.66 5.43 2.02 5.43 4.66 5.43 4.66-2.11 4.66-5.43z" fill="#ef8a45"/><path d="m117.25 26 1.32-3.29c1.64 1.46 4.25 2.51 6.76 2.51 3.19 0 4.54-1.27 4.54-2.96 0-4.91-12.18-1.69-12.18-10.15 0-3.68 2.64-6.8 8.26-6.8 2.46 0 5.04.72 6.82 2.02l-1.2 3.29c-1.84-1.2-3.87-1.79-5.65-1.79-3.16 0-4.45 1.37-4.45 3.09 0 4.85 12.15 1.69 12.15 10.05 0 3.64-2.66 6.77-8.29 6.77-3.19 0-6.38-1.11-8.08-2.73zm17.7 0 1.32-3.29c1.64 1.46 4.25 2.51 6.76 2.51 3.19 0 4.54-1.27 4.54-2.96 0-4.91-12.18-1.69-12.18-10.15 0-3.68 2.64-6.8 8.26-6.8 2.46 0 5.04.72 6.82 2.02l-1.2 3.29c-1.84-1.2-3.87-1.79-5.65-1.79-3.16 0-4.45 1.37-4.45 3.09 0 4.85 12.15 1.69 12.15 10.05 0 3.64-2.66 6.77-8.29 6.77-3.19 0-6.38-1.11-8.08-2.73zm18.95-20.38h3.81v19.23h10.74v3.59h-14.55z" fill="#04426d"/></svg>