<svg height="1768" width="2500" xmlns="http://www.w3.org/2000/svg" xmlns:xlink="http://www.w3.org/1999/xlink" viewBox="374.4649999999999 285.97999999999996 93.51813868849234 50.30900000000008"><g/><path d="M430.414 286.012l-2.473 3.176.559-3.208c-1.148.743-1.387 2.954-2.602 4.348l.383-2.801c-1.281.879-1.117 3.481-2.176 4.754-.847 1.016-2.75 1.664-3.203 3.356l-2.043-1.723-.14-.777h-1.25c-.016-.688.093-1.559-.625-1.559-.5 0-.918 1.09-1.563 1.559v-1.871c0-.512-.187-.938-.625-.938-.718 0-.609.871-.625 1.563l-.742-1.844-1.062-.766-.067 1.672h-.312c0-1.433-.676-2.531-1.563-3.125v2.188l-1.398-1.985.218 2.91-.968-.66-.039.985c0 6.246 7.281 7.703 7.808 9.679h-1.562c-1.762 0-1.082.793-2.809.938-.164.765-.531 1.25.625 1.25h.313c1.703 0 1.73.625 3.433.625h.313c2.445 0 3.703 1.558 7.183 1.558h2.809l2.195-.273 2.164.355c.985.079.602-.832 1.575-.707l5.3.707c-.027-1.777-1.097-3.203-2.8-3.203h-3.747c-.843 0-.863-.148-1.562-.312.723-1.508 1.559-3.453 2.809-4.371l.718-2.879-.152-.848.621-.711-.309-.851.711-2.2-.964-.007 1.324-1.153-3.156 1.239c.843-1.411 2.007-1.207 2.457-2.899l-3.329 2.336 1.641-2.512-.246-.199-2.18 1.918zm0 0" fill="#060606" fill-rule="evenodd"/><g/><g fill="#1b1918" fill-rule="evenodd"><path d="M381.184 326.375c0 .117-.004.219-.008.297-.008.082-.02.156-.031.211a.595.595 0 0 1-.172.297 1.44 1.44 0 0 1-.297.207 3.106 3.106 0 0 1-.543.242 4.316 4.316 0 0 1-.731.191 4.471 4.471 0 0 1-.886.082 4.673 4.673 0 0 1-1.684-.293 3.337 3.337 0 0 1-1.277-.855c-.352-.383-.621-.859-.809-1.434-.184-.57-.281-1.23-.281-1.992 0-.773.101-1.457.308-2.055.207-.601.493-1.105.868-1.511a3.598 3.598 0 0 1 1.328-.926 4.483 4.483 0 0 1 1.707-.316 4.1 4.1 0 0 1 1.383.23c.199.066.379.145.535.234.16.09.273.164.332.227a.704.704 0 0 1 .133.16.508.508 0 0 1 .054.16c.016.067.024.141.032.231a5.092 5.092 0 0 1 0 .687c-.012.098-.028.18-.051.242-.024.059-.051.106-.086.129a.142.142 0 0 1-.11.043c-.07 0-.16-.039-.265-.121a3.966 3.966 0 0 0-.422-.273 3.035 3.035 0 0 0-.609-.274 2.592 2.592 0 0 0-.848-.125c-.359 0-.68.075-.961.223a2.081 2.081 0 0 0-.727.633 2.985 2.985 0 0 0-.453.992 5.216 5.216 0 0 0-.156 1.312c0 .536.059.997.168 1.387.109.391.27.711.473.965s.445.441.734.566c.289.122.613.184.973.184.328 0 .609-.039.847-.113.243-.078.446-.164.618-.258.168-.094.312-.176.421-.254.11-.074.196-.109.254-.109.047 0 .086.007.114.027.027.02.05.055.07.113.019.055.031.133.043.235.008.097.012.234.012.402zm2.992 1.137c0 .047-.012.09-.043.125a.274.274 0 0 1-.145.086 1.181 1.181 0 0 1-.269.054 4.11 4.11 0 0 1-.43.02c-.172 0-.316-.008-.426-.02a1.181 1.181 0 0 1-.269-.054.274.274 0 0 1-.145-.086.203.203 0 0 1-.043-.125v-9.231c0-.047.016-.09.043-.125a.28.28 0 0 1 .145-.094c.066-.027.156-.046.269-.062.11-.012.254-.02.426-.02.176 0 .316.008.43.02.113.016.203.035.269.062a.28.28 0 0 1 .145.094.182.182 0 0 1 .043.125zm8.097-3.196c0 .536-.074 1.024-.211 1.465a3.121 3.121 0 0 1-.64 1.133c-.285.32-.645.566-1.074.738-.434.176-.934.262-1.512.262-.555 0-1.039-.078-1.449-.23a2.652 2.652 0 0 1-1.028-.676 2.769 2.769 0 0 1-.601-1.09 4.972 4.972 0 0 1-.199-1.473c0-.535.074-1.019.214-1.465.145-.441.356-.82.641-1.136a2.885 2.885 0 0 1 1.07-.731c.43-.175.93-.261 1.508-.261.563 0 1.047.074 1.461.226.41.152.754.375 1.02.672.273.293.468.656.601 1.086.129.434.199.926.199 1.48zm-1.82.075a4.49 4.49 0 0 0-.074-.856 1.97 1.97 0 0 0-.25-.676 1.24 1.24 0 0 0-.469-.449c-.191-.109-.437-.164-.73-.164-.262 0-.492.051-.688.145a1.23 1.23 0 0 0-.484.421 1.928 1.928 0 0 0-.285.668 3.79 3.79 0 0 0-.094.887c0 .309.023.594.074.856.051.257.137.484.25.675.117.192.274.34.469.446.195.105.437.16.726.16.27 0 .5-.051.7-.149a1.26 1.26 0 0 0 .484-.414c.125-.183.219-.402.281-.664.059-.257.09-.558.09-.886zm9.156 3.121c0 .047-.011.09-.035.125a.243.243 0 0 1-.121.086.977.977 0 0 1-.234.054c-.098.012-.215.02-.364.02a3.13 3.13 0 0 1-.375-.02.871.871 0 0 1-.226-.054.243.243 0 0 1-.121-.086.254.254 0 0 1-.035-.125v-.723c-.344.375-.7.656-1.055.844a2.384 2.384 0 0 1-1.113.281c-.43 0-.793-.07-1.086-.211a1.87 1.87 0 0 1-.707-.578 2.31 2.31 0 0 1-.387-.844c-.078-.32-.113-.719-.113-1.195v-3.836c0-.047.011-.09.035-.121a.298.298 0 0 1 .14-.09c.071-.023.161-.039.274-.051.113-.011.258-.019.426-.019.172 0 .316.008.426.019.113.012.203.028.273.051a.287.287 0 0 1 .141.09.168.168 0 0 1 .046.121v3.539c0 .328.02.578.059.75.047.172.109.32.195.445s.196.223.328.289c.137.071.29.102.469.102.223 0 .449-.082.676-.246.23-.164.473-.402.727-.715v-4.164c0-.047.015-.09.039-.121a.298.298 0 0 1 .14-.09c.067-.023.16-.039.274-.051.109-.011.254-.019.425-.019.176 0 .317.008.43.019.113.012.199.028.266.051a.298.298 0 0 1 .14.09.179.179 0 0 1 .043.121zm7.715 0a.24.24 0 0 1-.035.133.269.269 0 0 1-.121.085.807.807 0 0 1-.227.051 4.047 4.047 0 0 1-.718 0 .834.834 0 0 1-.231-.051.297.297 0 0 1-.125-.085.24.24 0 0 1-.039-.133v-.696c-.32.348-.66.618-1.016.809a2.413 2.413 0 0 1-1.171.289c-.481 0-.883-.094-1.215-.277a2.313 2.313 0 0 1-.805-.746c-.211-.317-.359-.684-.453-1.102s-.141-.859-.141-1.324c0-.559.059-1.059.176-1.5.121-.445.297-.824.527-1.141.227-.312.516-.551.856-.719.344-.171.734-.253 1.18-.253.351 0 .668.07.953.21.285.145.57.352.851.633v-3.39a.24.24 0 0 1 .035-.129.278.278 0 0 1 .145-.094c.066-.027.156-.047.27-.062.113-.012.253-.02.425-.02.176 0 .317.008.43.02.113.015.199.035.266.062a.274.274 0 0 1 .14.094.192.192 0 0 1 .043.129zm-1.754-4.184c-.254-.32-.496-.562-.726-.726a1.216 1.216 0 0 0-.727-.258c-.23 0-.426.058-.594.176-.168.113-.3.265-.402.457a2.389 2.389 0 0 0-.223.644 3.53 3.53 0 0 0-.074.727c0 .261.024.515.063.761.043.25.109.473.211.664.093.196.222.352.379.469.16.117.363.176.605.176.121 0 .238-.016.352-.055.117-.031.234-.09.355-.168.117-.082.242-.183.363-.316.129-.125.27-.285.418-.473zm13.465 1.699c0 .325-.043.618-.133.879-.09.262-.214.496-.371.696a2.282 2.282 0 0 1-.562.519 3.2 3.2 0 0 1-.719.359c-.262.09-.539.161-.836.204a6.602 6.602 0 0 1-.996.066h-2.414a.58.58 0 0 1-.391-.133c-.105-.094-.156-.242-.156-.449v-7.918c0-.207.051-.355.156-.445a.563.563 0 0 1 .391-.137h2.281c.559 0 1.027.047 1.414.141.387.093.711.234.977.425.265.188.465.426.609.719.137.289.211.633.211 1.024 0 .222-.031.425-.086.621-.058.195-.137.371-.246.531s-.238.297-.398.422a2.021 2.021 0 0 1-.536.293c.258.047.497.129.715.246.215.117.407.265.567.453.16.184.289.402.383.648.093.25.14.528.14.836zm-2.387-3.824c0-.183-.031-.348-.086-.492a.875.875 0 0 0-.253-.363 1.205 1.205 0 0 0-.422-.223 2.654 2.654 0 0 0-.684-.074h-.933v2.355h1.031c.265 0 .48-.031.637-.09.16-.062.292-.152.398-.261.105-.11.184-.239.234-.387a1.41 1.41 0 0 0 .078-.465zm.469 3.891c0-.211-.035-.403-.105-.567a1.087 1.087 0 0 0-.309-.422 1.434 1.434 0 0 0-.519-.257 3.124 3.124 0 0 0-.821-.09h-1.093v2.582h1.332c.257 0 .472-.028.648-.082.176-.051.328-.129.457-.235.129-.105.231-.238.301-.394.074-.16.109-.336.109-.535zm5.059 2.418a.2.2 0 0 1-.039.125.291.291 0 0 1-.145.086 1.23 1.23 0 0 1-.269.054 4.11 4.11 0 0 1-.43.02c-.172 0-.316-.008-.426-.02a1.181 1.181 0 0 1-.269-.054.27.27 0 0 1-.145-.086.182.182 0 0 1-.043-.125v-6.246c0-.047.012-.09.043-.121.027-.04.074-.071.145-.094.066-.028.156-.043.269-.059.11-.015.254-.023.426-.023.176 0 .316.008.43.023.113.016.199.031.269.059a.284.284 0 0 1 .145.094.181.181 0 0 1 .039.121zm.136-8.383c0 .359-.074.601-.218.738-.145.137-.414.203-.809.203-.398 0-.664-.062-.801-.195-.14-.133-.211-.367-.211-.711 0-.352.075-.602.219-.738.141-.141.41-.207.809-.207.394 0 .66.066.801.199.14.133.21.371.21.711zm5.653 2.703c0 .172-.004.309-.016.414a1.11 1.11 0 0 1-.043.254.221.221 0 0 1-.07.125.191.191 0 0 1-.117.035.327.327 0 0 1-.125-.023l-.16-.051c-.059-.02-.122-.035-.192-.055a1.118 1.118 0 0 0-.234-.023.78.78 0 0 0-.293.058 1.196 1.196 0 0 0-.305.188 2.25 2.25 0 0 0-.332.336c-.113.14-.238.316-.367.519v3.903c0 .047-.012.09-.043.125a.273.273 0 0 1-.141.086c-.07.023-.16.043-.273.054-.113.012-.254.02-.43.02-.172 0-.316-.008-.426-.02a1.181 1.181 0 0 1-.269-.054.278.278 0 0 1-.145-.086.203.203 0 0 1-.043-.125v-6.262c0-.047.012-.09.036-.121a.256.256 0 0 1 .128-.09c.059-.023.137-.039.235-.051a3.474 3.474 0 0 1 .734 0 .884.884 0 0 1 .227.051.227.227 0 0 1 .113.09.197.197 0 0 1 .035.121v.781c.164-.234.321-.429.465-.578.145-.156.285-.273.414-.363.133-.09.266-.152.395-.188a1.49 1.49 0 0 1 .39-.05c.063 0 .129.003.199.011.071.004.141.016.215.032.075.019.145.039.2.058.054.02.097.043.125.067.023.023.043.05.054.078.012.027.02.062.032.113.007.051.015.125.019.223.004.097.008.23.008.398zm6.855 5.68a.232.232 0 0 1-.039.133.277.277 0 0 1-.117.085.84.84 0 0 1-.23.051 4.049 4.049 0 0 1-.719 0 .834.834 0 0 1-.231-.051.308.308 0 0 1-.121-.085.212.212 0 0 1-.039-.133v-.696a4.041 4.041 0 0 1-1.015.809 2.447 2.447 0 0 1-1.176.289c-.481 0-.883-.094-1.211-.277a2.325 2.325 0 0 1-.809-.746c-.207-.317-.359-.684-.453-1.102s-.14-.859-.14-1.324c0-.559.062-1.059.179-1.5a3.37 3.37 0 0 1 .524-1.141 2.3 2.3 0 0 1 .855-.719c.344-.171.734-.253 1.18-.253.351 0 .672.07.957.21.285.145.566.352.847.633v-3.39c0-.051.016-.09.04-.129.023-.039.074-.071.14-.094a1.14 1.14 0 0 1 .27-.062c.113-.012.254-.02.426-.02.175 0 .316.008.429.02.113.015.203.035.266.062a.307.307 0 0 1 .144.094.209.209 0 0 1 .043.129zm-1.758-4.184a3.722 3.722 0 0 0-.726-.726 1.205 1.205 0 0 0-.727-.258.999.999 0 0 0-.593.176 1.225 1.225 0 0 0-.399.457 2.5 2.5 0 0 0-.226.644 3.752 3.752 0 0 0-.075.727c0 .261.024.515.063.761.043.25.113.473.211.664.094.196.222.352.379.469.16.117.363.176.605.176a1.3 1.3 0 0 0 .707-.223c.117-.082.242-.183.367-.316a5.42 5.42 0 0 0 .414-.473zm8.743 4.172c0 .047-.016.09-.047.125a.29.29 0 0 1-.153.09c-.07.023-.164.043-.281.058a3.409 3.409 0 0 1-.449.024 3.47 3.47 0 0 1-.445-.024 1.6 1.6 0 0 1-.285-.058.277.277 0 0 1-.149-.09.185.185 0 0 1-.047-.125v-8.582a.2.2 0 0 1 .047-.125.327.327 0 0 1 .156-.09c.071-.023.164-.043.282-.058a4.39 4.39 0 0 1 .441-.02c.184 0 .332.008.449.02.117.015.211.035.281.058a.353.353 0 0 1 .153.09.2.2 0 0 1 .047.125zm7.855.012c0 .047-.015.09-.043.125a.274.274 0 0 1-.14.086 1.203 1.203 0 0 1-.27.054c-.117.012-.258.02-.426.02-.172 0-.316-.008-.429-.02a1.186 1.186 0 0 1-.274-.054.314.314 0 0 1-.14-.086.195.195 0 0 1-.04-.125v-3.574c0-.301-.023-.54-.066-.715a1.455 1.455 0 0 0-.195-.446.916.916 0 0 0-.328-.289 1.016 1.016 0 0 0-.465-.097c-.223 0-.449.078-.68.242-.23.164-.469.402-.719.719v4.16c0 .047-.011.09-.039.125a.307.307 0 0 1-.144.086c-.071.023-.16.043-.27.054-.113.012-.254.02-.43.02-.171 0-.316-.008-.425-.02a1.283 1.283 0 0 1-.274-.054c-.066-.02-.117-.051-.14-.086a.18.18 0 0 1-.047-.125v-6.262c0-.047.015-.09.039-.121a.242.242 0 0 1 .125-.09c.062-.023.14-.039.234-.051a3.366 3.366 0 0 1 .735 0 .846.846 0 0 1 .226.051.254.254 0 0 1 .117.09.197.197 0 0 1 .036.121v.723c.347-.371.699-.657 1.058-.844a2.41 2.41 0 0 1 1.117-.277c.426 0 .785.066 1.078.21.293.141.532.329.711.571.18.242.309.523.387.847.082.325.121.711.121 1.165zm7.676 0a.212.212 0 0 1-.039.133.29.29 0 0 1-.117.085.84.84 0 0 1-.231.051 4.043 4.043 0 0 1-.719 0 .796.796 0 0 1-.226-.051.284.284 0 0 1-.125-.085.212.212 0 0 1-.039-.133v-.696c-.324.348-.66.618-1.016.809a2.43 2.43 0 0 1-1.176.289c-.48 0-.882-.094-1.21-.277a2.316 2.316 0 0 1-.809-.746c-.207-.317-.359-.684-.453-1.102s-.141-.859-.141-1.324c0-.559.063-1.059.18-1.5.121-.445.293-.824.523-1.141.227-.312.516-.551.856-.719a2.616 2.616 0 0 1 1.179-.253c.352 0 .672.07.957.21.286.145.567.352.848.633v-3.39c0-.051.016-.09.039-.129a.278.278 0 0 1 .141-.094 1.13 1.13 0 0 1 .269-.062 4.11 4.11 0 0 1 .43-.02c.172 0 .313.008.426.02.113.015.203.035.265.062a.286.286 0 0 1 .145.094.215.215 0 0 1 .043.129zm-1.758-4.184c-.25-.32-.492-.562-.726-.726a1.199 1.199 0 0 0-.727-.258c-.23 0-.426.058-.594.176a1.214 1.214 0 0 0-.398.457 2.501 2.501 0 0 0-.227.644c-.047.238-.07.481-.07.727 0 .261.019.515.059.761.046.25.113.473.21.664.094.196.223.352.379.469.164.117.364.176.606.176a1.291 1.291 0 0 0 .707-.223c.117-.082.242-.183.367-.316a5.42 5.42 0 0 0 .414-.473zm5.301 4.184a.2.2 0 0 1-.039.125.306.306 0 0 1-.145.086c-.07.023-.16.043-.273.054-.11.012-.254.02-.426.02a4.11 4.11 0 0 1-.43-.02 1.23 1.23 0 0 1-.269-.054.278.278 0 0 1-.145-.086.203.203 0 0 1-.043-.125v-6.246c0-.047.016-.09.043-.121a.272.272 0 0 1 .145-.094c.066-.028.16-.043.269-.059.114-.015.254-.023.43-.023.172 0 .316.008.426.023.113.016.203.031.273.059a.298.298 0 0 1 .145.094.181.181 0 0 1 .039.121zm.133-8.383c0 .359-.071.601-.219.738-.141.137-.414.203-.805.203-.398 0-.664-.062-.804-.195-.137-.133-.207-.367-.207-.711 0-.352.07-.602.214-.738.141-.141.414-.207.809-.207s.664.066.801.199c.144.133.211.371.211.711zm6.968 8.406a.182.182 0 0 1-.074.156.509.509 0 0 1-.218.079c-.102.015-.25.027-.446.027-.211 0-.367-.012-.461-.027-.097-.02-.164-.043-.203-.079a.21.21 0 0 1-.062-.156v-.5a2.859 2.859 0 0 1-.879.649c-.328.152-.696.23-1.098.23-.336 0-.637-.043-.918-.133a2.111 2.111 0 0 1-.723-.383 1.697 1.697 0 0 1-.472-.636 2.134 2.134 0 0 1-.168-.883c0-.367.07-.684.211-.953a1.77 1.77 0 0 1 .64-.668 3.152 3.152 0 0 1 1.059-.387c.422-.086.91-.129 1.465-.129h.613v-.379c0-.195-.019-.367-.062-.515a.852.852 0 0 0-.196-.368.834.834 0 0 0-.363-.218 1.957 1.957 0 0 0-.566-.071c-.297 0-.559.032-.793.098a4.587 4.587 0 0 0-.614.219 8.098 8.098 0 0 0-.445.215.597.597 0 0 1-.293.101.209.209 0 0 1-.137-.051.4.4 0 0 1-.097-.14c-.024-.059-.043-.133-.059-.223s-.019-.187-.019-.297c0-.144.011-.258.035-.343a.51.51 0 0 1 .133-.227c.066-.07.179-.145.343-.227s.356-.156.578-.226c.215-.07.457-.125.719-.172.258-.047.528-.066.801-.066.492 0 .914.046 1.262.14.347.098.632.246.859.446.227.199.387.457.492.769.102.313.156.684.156 1.113zm-1.734-2.683h-.676a3.89 3.89 0 0 0-.73.062 1.445 1.445 0 0 0-.492.191.797.797 0 0 0-.278.305.938.938 0 0 0-.086.41c0 .266.082.469.25.618.164.152.395.226.688.226.25 0 .48-.062.687-.191.207-.125.418-.309.637-.555zm0 0M394.941 332.562h-1.003v3.645h-.676v-3.645h-1.004v-.585h2.683zm3.375 3.645h-.765c-.09-.113-.137-.418-.137-.926 0-.371-.047-.617-.137-.742-.078-.109-.234-.164-.472-.164h-.559v1.832h-.676v-4.23h1.465c.305 0 .551.066.735.207.25.187.375.492.375.906 0 .277-.071.508-.207.695-.137.188-.293.297-.477.324v.012c.23.039.391.125.48.262.114.168.172.461.172.883 0 .511.067.824.203.941zm-.867-3.027c0-.453-.23-.676-.699-.676h-.504v1.363h.504c.469 0 .699-.23.699-.687zm4.094 1.668c0 .961-.438 1.441-1.313 1.441-.418 0-.726-.098-.921-.297-.235-.226-.352-.617-.352-1.16v-2.855h.676v2.914c0 .343.055.582.16.718.09.114.246.172.465.172.211 0 .363-.058.453-.172.105-.136.156-.371.156-.699v-2.933h.676zm3.398.179c0 .84-.468 1.262-1.41 1.262-.422 0-.734-.101-.937-.309-.219-.218-.332-.585-.332-1.089h.672c0 .308.046.535.148.675.098.141.262.215.496.215a.67.67 0 0 0 .449-.16c.145-.121.215-.285.215-.5a.634.634 0 0 0-.312-.574 7.589 7.589 0 0 0-.664-.277c-.313-.125-.536-.25-.664-.379-.192-.188-.286-.442-.286-.762 0-.418.122-.734.368-.953.214-.188.5-.285.859-.285.437 0 .762.097.973.293.207.191.312.5.312.918h-.656c.004-.465-.199-.7-.606-.7a.56.56 0 0 0-.418.16.595.595 0 0 0-.152.426.64.64 0 0 0 .227.516c.093.082.261.168.504.254.339.125.515.187.535.191.207.094.367.215.472.36.137.183.207.421.207.718zm3.168-2.465h-1.004v3.645h-.675v-3.645h-1.008v-.585h2.687zm4.477 0h-1.004v3.645h-.676v-3.645h-1.004v-.585h2.684zm3.226 3.645h-.675v-1.957h-1.246v1.98l-.676-.023v-4.23h.676v1.687h1.246v-1.687h.675zm3.25 0h-2.328v-4.23h2.27v.574h-1.594v1.172h1.496v.57h-1.496v1.34h1.652zm4.727-1.18c0 .84-.469 1.262-1.41 1.262-.422 0-.734-.101-.938-.309-.218-.218-.332-.585-.332-1.089h.672c0 .308.047.535.149.675.097.141.261.215.496.215a.67.67 0 0 0 .449-.16c.145-.121.215-.285.215-.5a.635.635 0 0 0-.313-.574c-.039-.027-.261-.121-.664-.277-.312-.125-.535-.25-.664-.379-.191-.188-.285-.442-.285-.762 0-.418.121-.734.367-.953.215-.188.5-.285.86-.285.437 0 .761.097.972.293.207.191.313.5.313.918h-.656c.003-.465-.2-.7-.606-.7a.558.558 0 0 0-.418.16.595.595 0 0 0-.152.426c0 .219.078.391.226.516.094.082.262.168.504.254.34.125.52.187.535.191.207.094.368.215.473.36.137.183.207.421.207.718zm3.5-.929c0 .808-.121 1.386-.355 1.73-.219.309-.563.461-1.028.461-.496 0-.855-.156-1.07-.473-.231-.339-.344-.914-.344-1.718 0-.817.113-1.395.348-1.739.219-.312.566-.468 1.051-.468.453 0 .785.136 1 .41.265.34.398.937.398 1.797zm-.699 0c0-.657-.063-1.11-.18-1.364a.53.53 0 0 0-.519-.332.545.545 0 0 0-.536.348c-.109.254-.164.703-.164 1.348 0 .644.055 1.09.172 1.343a.543.543 0 0 0 .532.344.53.53 0 0 0 .511-.324c.121-.254.184-.707.184-1.363zm3.836 2.109h-2.289v-4.23h.675v3.656h1.614zm3.183-1.359c0 .961-.433 1.441-1.308 1.441-.418 0-.727-.098-.926-.297-.23-.226-.348-.617-.348-1.16v-2.855h.676v2.914c0 .343.055.582.16.718.09.114.246.172.461.172s.367-.058.457-.172c.102-.136.153-.371.153-.699v-2.933h.675zm3.27-2.286h-1v3.645h-.676v-3.645h-1.008v-.585h2.684zm1.293 3.645h-.672v-4.23h.672zm3.633-2.109c0 .808-.121 1.386-.356 1.73-.219.309-.558.461-1.027.461-.496 0-.856-.156-1.07-.473-.231-.339-.344-.914-.344-1.718 0-.817.113-1.395.347-1.739.219-.312.567-.468 1.051-.468.453 0 .785.136 1 .41.266.34.399.937.399 1.797zm-.7 0c0-.657-.058-1.11-.179-1.364a.533.533 0 0 0-.52-.332.544.544 0 0 0-.535.348c-.109.254-.164.703-.164 1.348 0 .644.055 1.09.172 1.343a.54.54 0 0 0 .531.344.532.532 0 0 0 .512-.324c.121-.254.183-.707.183-1.363zm4.25 2.109h-.839l-1.204-3.246-.003.004v3.242h-.653v-4.23h.801l1.231 3.308.011-.004v-3.304h.656zm0 0"/></g></svg>