<svg fill="none" height="360" viewBox="0 0 291.277 42" width="2500" xmlns="http://www.w3.org/2000/svg"><path clip-rule="evenodd" d="m10.389 21.266 21.266 7.015 4.662 13.719-36.317-14.252v-13.186l36.406-14.562-4.75 14.03zm56.74 0-21.265-7.192-4.574-13.985 36.228 14.473v13.186l-36.14 14.163 4.485-13.674z" fill="#e31e30" fill-rule="evenodd"/><path d="m92.529 28.605v-16c0-1.81.553-3.262 1.66-4.356 1.107-1.107 2.553-1.66 4.337-1.66h12.991v3.81l-1.797 1.797h-8.791c-1.602 0-2.403.8-2.403 2.402v11.995c0 1.602.801 2.403 2.403 2.403h10.588v5.606h-12.991c-1.784 0-3.23-.547-4.337-1.64-1.107-1.095-1.66-2.547-1.66-4.357zm30.201.801h4.591c1.601 0 2.402-.801 2.402-2.403v-12.795c0-1.602-.801-2.403-2.402-2.403h-4.591c-1.602 0-2.403.8-2.403 2.403v12.795c0 1.602.801 2.403 2.403 2.403zm-8.4-.41v-16.8c0-1.81.553-3.263 1.66-4.357s2.553-1.64 4.337-1.64h9.396c1.811 0 3.263.546 4.357 1.64s1.641 2.546 1.641 4.356v16.8c0 1.81-.547 3.263-1.641 4.357s-2.546 1.64-4.357 1.64h-9.396c-1.784 0-3.23-.546-4.337-1.64s-1.66-2.546-1.66-4.356zm26.177 5.606v-28.012h15.002c1.811 0 3.263.547 4.357 1.64 1.094 1.095 1.641 2.553 1.641 4.377v15.999c0 1.81-.547 3.262-1.641 4.356s-2.546 1.641-4.357 1.641zm5.997-5.606h6.603c1.602 0 2.402-.801 2.402-2.403v-11.995c0-1.602-.8-2.403-2.402-2.403h-6.603zm19.789 5.606v-28.012h18.206v3.81l-1.797 1.797h-10.412v5.606h8.205v5.392h-8.205v5.802h12.209v5.606zm22.191 0v-28.012h6.603l9.397 17.62h.214l-.605-5v-12.621h5.997v28.013h-6.603l-9.396-17.6h-.195l.586 5v12.6zm26.802 0v-28.012h5.998v28.013zm11.213 0v-28.012h6.603l9.397 17.62h.214l-.605-5v-12.621h5.997v28.013h-6.603l-9.396-17.6h-.195l.586 5v12.6zm24.595.391v-5.587h6.212c1.602 0 2.403-.801 2.403-2.403v-20.414h5.997v22.407c0 1.81-.553 3.262-1.66 4.356s-2.553 1.64-4.337 1.64zm25.181-11.193h6.387l-2.988-11.8h-.411zm-8.615 10.802v-2.792l8.009-25.22h7.599l8.009 25.22v2.793h-5.802l-1.406-5.606h-9.201l-1.407 5.606z" fill="#323232"/></svg>