<svg height="1406" viewBox="518.38 309.32 329.99 148.45" width="2500" xmlns="http://www.w3.org/2000/svg"><g fill="none"><path d="m791.7 429.93-22.44-32.26-22.04 32.26h-24.69l34.38-47.26-32.65-45.67h24.43l21.37 30.14 20.97-30.14h23.23l-32.39 44.87 34.65 48.05h-24.82zm34.51-75.4c-2.39-2.21-3.58-4.95-3.58-8.23 0-3.27 1.19-6.02 3.58-8.23s5.49-3.32 9.29-3.32 6.9 1.06 9.29 3.19c2.39 2.12 3.58 4.78 3.58 7.97 0 3.45-1.19 6.3-3.58 8.56s-5.49 3.38-9.29 3.38-6.9-1.11-9.29-3.32zm-1.06 13.27h20.71v62.12h-20.71z" fill="#000"/><path d="m652.94 457.77h-120.68c-7.67 0-13.88-6.22-13.88-13.88v-120.69c0-7.67 6.22-13.88 13.88-13.88h120.68c7.67 0 13.88 6.22 13.88 13.88v120.68c0 7.68-6.21 13.89-13.88 13.89z" fill="#3c69f0"/><g fill="#fff"><path d="m605.91 405.33v24.71c-14.41-1.09-28.95 2.49-42.67-4.53-18.16-9.29-28.63-29.31-25.31-49.18 3.45-20.68 19.73-36.73 40.45-38.83 8.96-.91 18.09-.15 27.43-.15v25.13c-9.46-7.3-19.63-9.71-30.77-5.84-6.1 2.12-10.83 6.13-14.29 11.58-7.24 11.43-5.73 26.1 3.64 35.91 10.33 10.82 23.39 11.28 41.52 1.2zm17.58-32.98h19.08v57.27h-19.08z"/><path d="m585.34 397.49c-7.34.05-13.52-6.13-13.56-13.54-.04-7.52 5.92-13.64 13.33-13.7 7.44-.06 13.59 6.02 13.59 13.43 0 7.38-6.17 13.76-13.36 13.81zm58.08-49.75c.1 5.84-4.43 10.66-10.14 10.79-5.96.14-10.85-4.51-10.95-10.41-.1-5.92 4.57-10.69 10.57-10.8 5.72-.09 10.41 4.55 10.52 10.42z"/></g></g></svg>