<svg clip-rule="evenodd" fill-rule="evenodd" height="2500" image-rendering="optimizeQuality" shape-rendering="geometricPrecision" text-rendering="geometricPrecision" viewBox="0 0 4.82 4.86" width="2477" xmlns="http://www.w3.org/2000/svg"><path d="m1.08 1.37h-.41c-.37 0-.67-.3-.67-.68v-.02c0-.37.3-.67.67-.67h.03c.36 0 .65.29.65.65v.45h2.12v-.45c0-.36.29-.65.65-.65h.02c.37 0 .68.3.68.67v.02c0 .38-.31.68-.68.68h-.4v2.12h.4c.37 0 .68.3.68.67v.02c0 .38-.31.68-.68.68h-.02c-.36 0-.65-.29-.65-.65v-.45h-2.12v.45c0 .36-.29.65-.65.65h-.03c-.37 0-.67-.3-.67-.68v-.02c0-.37.3-.67.67-.67h.41v-1.06zm2.39 1.06v-1.06h-2.12v2.12h2.12zm.27 1.33h.4c.22 0 .41.18.41.4v.02c0 .23-.19.41-.41.41h-.02a.38.38 0 0 1 -.38-.38zm0-2.66h.4c.22 0 .41-.18.41-.41v-.02c0-.22-.19-.4-.41-.4h-.02a.38.38 0 0 0 -.38.38zm-2.66 2.66h-.41c-.22 0-.4.18-.4.4v.02c0 .23.18.41.4.41h.03c.21 0 .38-.17.38-.38zm0-2.66h-.41c-.22 0-.4-.18-.4-.41v-.02c0-.22.18-.4.4-.4h.03c.21 0 .38.17.38.38z"/></svg>