<svg clip-rule="evenodd" fill-rule="evenodd" height="2337" image-rendering="optimizeQuality" shape-rendering="geometricPrecision" text-rendering="geometricPrecision" viewBox="-.00053104 -.00053104 23.94106209 22.36106209" width="2500" xmlns="http://www.w3.org/2000/svg"><path d="m3.14 0h17.66a3.138 3.138 0 0 1 3.14 3.14v16.08a3.138 3.138 0 0 1 -3.14 3.14h-17.66a3.138 3.138 0 0 1 -3.14-3.14v-16.08a3.138 3.138 0 0 1 3.14-3.14zm20.18 17.38a3.12 3.12 0 0 1 -2.52 1.27h-17.66a3.138 3.138 0 0 1 -2.52-1.27v1.84c0 .69.28 1.32.74 1.78.46.45 1.09.74 1.78.74h17.66c.7 0 1.33-.29 1.78-.74.46-.46.74-1.09.74-1.78zm-22.7-1.87c0 .69.28 1.32.74 1.78s1.09.74 1.78.74h17.66c.7 0 1.33-.28 1.78-.74.46-.46.74-1.09.74-1.78v-12.37c0-.69-.28-1.32-.74-1.78-.45-.46-1.08-.74-1.78-.74h-17.66c-.69 0-1.32.28-1.78.74s-.74 1.09-.74 1.78z" fill-rule="nonzero"/><path d="m8.99 6.98h-.91c-.83 0-1.51-.68-1.51-1.51v-.05c0-.83.68-1.51 1.51-1.51h.05c.81 0 1.47.66 1.47 1.46v1h4.75v-1c0-.8.65-1.46 1.46-1.46h.05c.83 0 1.51.68 1.51 1.51v.05c0 .83-.68 1.51-1.51 1.51h-.91v4.76h.91c.83 0 1.51.68 1.51 1.51v.05c0 .83-.68 1.51-1.51 1.51h-.05c-.81 0-1.46-.66-1.46-1.46v-1h-4.75v1c0 .8-.66 1.46-1.47 1.46h-.05c-.83 0-1.51-.68-1.51-1.51v-.05c0-.83.68-1.51 1.51-1.51h.91v-2.38zm5.36 2.38v-2.38h-4.75v4.76h4.75zm.6 2.99h.91c.5 0 .91.4.91.9v.05c0 .5-.41.9-.91.9h-.05c-.47 0-.86-.38-.86-.85zm0-5.98h.91c.5 0 .91-.4.91-.9v-.05c0-.5-.41-.9-.91-.9h-.05c-.47 0-.86.38-.86.85zm-5.96 5.98h-.91c-.5 0-.9.4-.9.9v.05c0 .5.4.9.9.9h.05c.47 0 .86-.38.86-.85zm0-5.98h-.91c-.5 0-.9-.4-.9-.9v-.05c0-.5.4-.9.9-.9h.05c.47 0 .86.38.86.85z"/></svg>