<svg height="2500" viewBox="0 0 1600 1600" width="2500" xmlns="http://www.w3.org/2000/svg"><path d="m0 0h1600v1600h-1600z" fill="#fdfdfd"/><path d="m840 416h2l1 19 4 13 6 11 9 10 12 8 16 5h21l13-4 11-6 11-9 5 2 10 6 19 11 11 6-2 12 1 10 4 9 6 8 8 5 7 2h13l10-4 9-7 5-1 9 9 4 6 1 3v296l-5-1-43-14-40-11-41-9-27-5-28-4-39-3-23-1h-43l-42 2-42 4-36 6-38 8-40 10-36 11-20 6-3-1v-229l3-1 14 5 4 1h18l13-4 11-7 6-5 7-10 4-8 3-15-1-14-3-10-7-11-7-8-11-7-7-4v-3l19-10 7-5 4 1 4 11 6 7 10 5h14l10-5 7-8 3-7 1-8-2-9-7-11-1-4 16-9 5 1 5 6v2l3 1v2l4 2 10 6 13 5 6 1h13l12-3 14-7 12-11 7-12 4-13 1-9 4-1 8 5 11 4 6 1h11l13-3 14-8z" fill="#0ec5ca"/><path d="m636 562h312l3 2 1 59 27 1 13 1 3 2v35l-8 16-13 21-13 22-9 14-5 5h-307l-6-3-9-15-13-23-12-21-8-16v-36l4-2h38l1-60z" fill="#fdfdfd"/><path d="m768 802h63l47 4 35 5 36 7 40 10 36 11 24 8-1 2-53 21-52 20-46 18-49 19-39 15-13 3-13-1-18-6-182-71-35-14-14-7-1-2 27-6 60-15 35-7 35-6 40-5z" fill="#fe692e"/><path d="m648 573h284l7 2v39l-1 9-2 1h-287l-1-2-1-48zm-114 445 12 1 11 4 6 4 8 9 4 10 1 4v102l-3 12-6 8-10 7-9 4-4 1h-13l-15-4-9-7-6-8-3-10-1-11v-92l3-12 6-9 8-7 9-4zm31-690h13l14 3 15 8 10 9 8 12 5 12 1 5v21l-3 10-5 10-7 9-10 9-16 8-11 3h-15l-13-4-10-5-11-9-8-10-6-12-3-12v-18l6-16 7-11 10-10 14-8zm-157 690h22l3 7 8 31 10 39 5 18 2 1-1-12v-83l8-1h13l2 1v165l-1 1h-19l-7-2-10-40-8-31-8-30-4-13-1 14v101l-2 1h-14l-7-1-1-67v-30l1-68zm912 11h38l11 2 6 3 6 5 6 9 2 8 1 9v14l-2 9-6 8-6 5 1 4 8 7 3 6 1 5 1 43v18l-3 1h-9l-12-2-1-3-1-55-5-5-8-3h-11l-1 67-2 1h-15l-7-1v-154zm-986-11h27l2 2 7 41 10 64 9 56v3h-26l-1-1-2-26-1-3-6-1h-24l-2 23-1 7-1 1-9 1-15-1 1-10 6-33 9-57 8-49 3-15zm813 11h22l4 4 17 71 3 12 1-18v-68h22v154l-2 1h-11l-11-1-3-8-12-49-9-37-3-13h-1l-1 107-3 1h-9l-10-1v-153zm-515-395h93l257 1 1 1v12l-1 9-2 1h-375l-2-1v-22zm-38 384h35l14 3 9 4 6 5 6 10 3 11v34l-4 13-7 9-11 7-6 2-21 1v67l-14 1-12-1-1-5 1-160zm478 11h26l2 2 4 20 18 111 3 17v5h-25l-1-1-2-25-1-4-6-1h-22l-1 13-2 15-1 3-13 1-9-1 1-12 11-69 10-59 2-12 1-2zm-821-11 14 2 9 4 8 7 5 7 4 14v20l-3 3h-20l-2-2-1-24-5-5-3-2h-8l-6 4-2 4v100l2 8 4 2 8 1 8-5 2-4 1-29 2-2h23v26l-2 13-4 8-6 7-12 7-8 2h-13l-13-4-8-6-7-10-2-5-1-6-1-27v-21l1-55 3-11 5-8 8-7 9-4zm586 11h15l11 4 8 7 5 8 3 8 1 6v20l-1 1h-22l-1-6v-18l-5-5-2-1h-9l-6 2-1 4v92l2 7 7 3 7-1 5-3 2-3 1-28 1-1h21l1 1v26l-2 10-4 8-7 7-14 7-10 1-11-2-12-6-8-10-3-7-1-7v-91l1-9 5-10 6-7 10-5zm55-650h17l13 5 9 6 7 8 7 14 1 5v16l-3 10-7 11-10 9-12 6-8 2h-12l-12-4-8-5-9-8-6-10-3-8-1-7v-11l4-13 6-9 9-9 14-7zm353 650h55l2 1v11l-1 10-1 1-40 1-1 39h33v22l-1 1h-32l1 46h41l1 8-1 15-2 1h-53l-11-1v-154zm-267 0h56l1 1v16l-2 6-40 1-1 39h34v12l-1 10-1 1h-32l1 46h42v12l-1 11-21 1h-32l-12-1-1-1v-152l1-1zm-274-652h14l12 4 9 6 7 7 7 12 3 10v12l-4 13-6 10-10 9-12 6-8 2h-12l-13-4-12-9-7-9-5-11-2-8 1-14 4-11 6-10 9-8 11-5zm-22 641h16l4 2 8 24 7 30v3l3-3 16-54 2-2h10l14 1-3 10-5 14-12 36-10 33-1 71-1 1h-25l-1-74-14-43-10-32-6-14v-2zm-137-502h11l12 4 9 6 5 5 6 9 4 13v12l-4 11-5 8-8 8-14 7-4 1h-14l-11-4-10-7-6-7-6-12-1-4v-17l4-11 7-9 7-6 10-5zm350 513h22l1 1v131h38l1 2v19l-1 2-9 1h-46l-8-1v-154z" fill="#0ec5ca"/><path d="m623 1221h36l10 3 8 7 4 9v7l-5 10-6 4 6 7 5 8 1 3v9l-5 10-7 6-5 2-6 1h-36l-1-50v-35z" fill="#243a63"/><path d="m794 346h17l11 6 8 8 6 10 2 7v9l-3 9-5 9-5 5-8 6-6 2h-20l-7-3v-2l-5-2-8-9-3-6-1-4v-17l3-10 9-10 9-6zm139-90h14l12 5 6 5 7 10 3 8v14l-4 9-6 8-7 6-11 5h-15l-12-6-8-8-6-12-1-4v-9l4-13 7-9 9-6z" fill="#0ec5ca"/><path d="m227 1221 7 1 5 8 17 37 9 20 3-3 11-25 12-26 4-10 2-1h11l1 1v82l-2 2h-7l-3-1-1-55-9 19-7 15-9 19-3 3h-5l-5-6-8-17-10-24-4-9-1 43-1 12-1 1h-10l-1-1v-78l1-6z" fill="#233c65"/><path d="m1060 1221h34l11 3 8 7 4 9 1 9-3 9-4 6-8 6-5 1 9 16 10 16v3l-11 1-5-5-10-15-6-12-1-1-11-1-1 33-9 1-4-2v-83z" fill="#233d65"/><path d="m794 1231h10l10 3 6 4 6 7 3 7 1 5v16l-4 10-5 7-9 6-4 1h-16l-10-4-6-5-5-8-2-7v-17l3-10 8-9 10-5zm-261-190 9 1 6 4 3 6v94l-2 9-6 5-5 2-8-1-6-6-1-4v-101l7-8z" fill="#fdfdfd"/><path d="m1194 1221h8l4 2 13 19 7 10 15 24 5 6 2-59 6-2h5l1 1v84l-1 1h-8l-8-7-11-17-10-15-15-23-2 60-2 2h-7l-3-1-1-3v-47l1-34z" fill="#243962"/><path d="m1014 367h10l9 3 8 6 7 11 3 10-2 9-7 11-8 7-10 4h-8l-10-2-8-6-7-10-3-9v-7l4-11 7-9 10-6z" fill="#0ec5ca"/><path d="m789 1221h20l11 4 9 6 6 7 5 9 2 7 1 14-3 13-6 10-6 7-9 6-9 3h-19l-10-3-10-6-8-9-4-8-2-8v-18l4-12 7-10 10-8zm5 10-11 4-9 8-4 8-1 5v17l3 9 6 8 10 6 4 1h16l8-3 6-5 6-10 2-6v-16l-3-10-4-6-7-6-7-3-5-1z" fill="#243a63"/><path d="m918 1221h8l1 1 1 60 3 8 5 4 5 2h13l7-3 4-5 1-3 1-62 4-2h8l1 1v62l-6 12-7 7-9 4h-19l-11-4-8-8-4-9-1-7v-56z" fill="#233d65"/><path d="m650 213h12l8 4 9 9 4 10v9l-5 9-4 5-9 6-5 2h-9l-8-3-6-5-6-9-2-5v-12l5-10 7-6z" fill="#0ec5ca"/><path d="m388 1221h41l5 1-1 10h-33v26h25l6 1v10l-30 1-1 27h34l-1 9-7 1h-33l-5-1-1-19v-65z" fill="#234169"/><path d="m1337 1221h45l1 1v9l-1 1-32 1v25h20l10 1v10l-30 1-1 26 34 1v9l-2 1h-44z" fill="#233e66"/><path d="m436 569h8l8 3 7 6 5 9 1 9-4 10-6 7-12 6-10-1-6-3-8-8-3-7v-14l4-7 8-7zm505 99h37l1 2-8 15-17 28-9 15-4 3h-8v-62zm-333 0h44v62l-5 1-5-2-6-9-14-26-8-13-6-10zm409-189h10l8 4 7 8 3 7v10l-6 9-7 6-5 2h-11l-7-3-7-7-3-7v-12l4-8 8-7zm-234-221 10 2 8 6 5 8 1 4v7l-4 8-8 8-7 3h-8l-8-4-7-8-3-7v-9l3-7 4-5h2v-2l7-3z" fill="#0ec5ca"/><path d="m512 1221 10 1v75h15l14 1 1 1v6l-1 1-21 1h-16l-3-1-1-3v-81z" fill="#234068"/><path d="m618 1041h9l10 3 4 5v34l-2 6-3 3-4 1h-14l-1-1v-49z" fill="#fdfdfd"/><path d="m479 462h8l8 4 6 8 1 3v8l-3 6-5 6-8 4h-8l-9-6-5-8-1-4v-7l3-6 6-6zm140 6h10l6 3 6 7 2 4v8l-3 7-8 7-3 1h-10l-7-4-6-9v-10l3-7 5-5zm80 200 8 1v60l-1 1-16 1-1-1 1-61zm74 1h17v60l-1 1-16 1-1-1zm-27 0h16v60l-1 1-15 1-2-2 1-59zm-83-1h16l1 1-1 61-15 1-2-2v-60zm55 1h17v37l-1 24-16 1-1-1zm188 0h17v31l-1 30-2 1h-13l-2-2z" fill="#0ec5ca"/><path d="m343 1051 2 1 4 19 6 46 1 12-16 1-8-1 5-35 5-42z" fill="#fdfdfd"/><path d="m828 669h15l1 1v59l-1 1-14 1-3-2 1-59zm52 0h15l1 1v59l-1 1-14 1-2-2v-54z" fill="#0ec5ca"/><path d="m1340 1052h12l9 3 4 5v20l-2 7-6 5-16 2-2-1v-39z" fill="#fdfdfd"/><path d="m855 669h14l1 60-1 1-13 1-3-2 1-59zm-53 0h14l1 59-1 2-14 1-2-1 1-60z" fill="#0ec5ca"/><path d="m635 1269h26l5 3 4 5v11l-6 7-9 2h-19l-2-2v-24zm438-37h19l7 2 5 6v13l-3 5-8 4h-21v-29zm8-171 3 3 8 51 1 15-2 1h-18l-1-1v-8l7-49 1-10zm-446 171h23l5 2 4 5 1 8-2 5-6 5-4 1h-21l-1-6v-19zm-92-881h7l7 6 1 7-7 8h-9l-4-3v-2l-3-1-1-7 5-6zm340 45 6 1 4 7-2 5-4 4-7-1-5-5v-5l6-5zm-194-1h6l3 3v6l-5 5-5-1-4-5 1-5z" fill="#fdfdfd"/><path d="m1193 1222h1l1 84h-2l-1-3v-47z" fill="#0ec5ca"/><path d="m926 269h6l3 4-1 6-3 3h-5l-4-4v-5zm-397 269h7l3 4-1 5-4 3-4-1-3-3v-6zm-98 41 6 1 1 2v7l-4 3-6-2-1-6zm214-356 5 2 1 1v6l-5 4-5-2-1-1v-6zm145 138h6l2 2-1 5-3 3-5-1-2-2 1-5zm222 131 6 1 1 1v6l-3 2-6-1-1-5zm-396-16 5 1 2 3-1 4-2 2-6-1-1-1 1-7zm-143-7 6 2v5l-5 2-4-3v-5zm301-202 5 2v5l-4 1-5-3 2-4z" fill="#fdfdfd"/></svg>