<svg xmlns:xlink="http://www.w3.org/1999/xlink" xmlns="http://www.w3.org/2000/svg" width="2500" height="2500" fill="currentColor" class="text-black" viewBox="0 0 45.596000000000004 36"><defs><symbol fill="none" viewBox="0 0 46 36" id="a" xmlns="http://www.w3.org/2000/svg"><path d="M2.74 13.444c-.069-2.481.776-4.806 2.897-5.284 1.384-.312 2.761.875 3.056 2.643l-1.93.36c-.138-.682-.528-1.115-1.098-.955-.884.248-1.2 1.457-1.169 2.969.03 1.49.381 2.47 1.246 2.408.568-.04 1.092-.632 1.184-1.448 0 0 1.51-.125 1.853-.155 0 1.845-1.379 3.527-3.01 3.527-1.823 0-2.961-1.65-3.029-4.065zm13.374-2.19c-.16-3.598.72-6.95 2.994-7.816 2.367-.904 4.062 2.37 4.134 6.501.086 5.023-1.422 7.57-3.684 7.57-2.025 0-3.281-2.574-3.444-6.255zm2.248-.233c.074 2.2.505 3.804 1.226 3.734.798-.079 1.22-2.011 1.155-4.542-.066-2.598-.594-4.272-1.404-3.793-.574.338-1.06 2.1-.977 4.6zm-9.237 1.232c-.11-3.129.86-5.753 2.719-6.377 2.077-.698 3.583 1.941 3.648 5.334.073 3.868-1.095 6.3-3.325 6.3-1.824 0-2.933-2.177-3.042-5.257zm1.922-.338c.055 1.9.47 3.293 1.166 3.235.742-.063 1.185-1.64 1.137-3.696-.048-2.097-.568-3.524-1.32-3.276-.503.166-1.045 1.587-.983 3.737zm15.677-8.289l-2.56-.859V17.36H30v-2.623l-3.276-.238V3.626zm14.904 10.317l1.124 3.416H40.94l-1.001-3.23-.715-.083v3.313h-2.127V7.06l3.41 1.146c1.375.462 2.182 1.915 2.182 3.462 0 1.42-.559 2.059-1.06 2.276zm-.586-2.623c0-.656-.336-1.134-.816-1.262l-1.002-.265v2.234l1.002.187c.48.09.816-.237.816-.894zM24.164 21.48l1.781-.118.002 11.097 2.436-.812V21.188l1.6-.131v-2.613h-5.819v3.037zm6.564 9.386l5.628-1.875v-2.182l-3.304.868v-2.293l2.912-.58v-2.226l-2.912.377v-2.08l3.304-.233v-2.198h-5.628v12.422zm10.911-7.033l1.113 3.029-1.82.606-.989-2.882-.716.156v3.293l-2.13.71V18.444h3.416c1.381 0 2.192 1.189 2.192 2.744 0 1.428-.561 2.258-1.066 2.645zm-.589-2.44c0-.66-.336-1.026-.819-.992l-1.004.07v2.244l1.004-.15c.483-.07.82-.511.82-1.171zm-26.955-2.95l2.41 12.864-2.242-.782-.299-1.935-2.02-.575-.258 1.629-1.847-.637 1.927-10.563h2.33zm-.484 7.637l-.716-4.352-.66 4.04 1.376.312zm-7.762-3.294l-.846-4.342H2.937v8.177l1.443.505v-5.17L5.475 27.5l.622.216 1.41-5.301v5.79l1.894.657v-10.42H6.946l-1.097 4.343zm39.747-8.846v8.754c0 4.42-.671 5.708-4.723 7.473-1.407.608-3.53 1.663-8.958 3.717C29.526 34.79 25.933 36 22.794 36c-3.123 0-6.716-1.21-9.113-2.116-5.42-2.054-7.544-3.108-8.949-3.717C.68 28.402 0 27.114 0 22.694V13.94c0-4.764 1.14-6.654 5.13-8.481.82-.375 1.765-.843 6.935-2.741C17.99.539 20.959 0 22.794 0c1.843 0 4.81.54 10.745 2.718 5.17 1.898 6.115 2.366 6.935 2.74 3.99 1.828 5.122 3.718 5.122 8.482zm-1.272-.586c0-4.342-1.952-5.803-4.748-6.966-.984-.414-1.39-.68-6.349-2.515-4.076-1.514-7.809-2.646-10.433-2.646-2.608 0-6.34 1.132-10.425 2.646C7.419 5.71 7.012 5.974 6.02 6.388c-2.789 1.163-4.74 2.624-4.74 6.966v9.675c0 3.358.773 4.639 3.545 5.88 2.318 1.031 2.553 1.141 7.348 3.023 3.03 1.187 7.067 2.756 10.62 2.756 3.57 0 7.598-1.57 10.628-2.756 4.803-1.882 5.037-1.992 7.356-3.022 2.772-1.242 3.546-2.523 3.546-5.88v-9.676zm-25.422 8.962c-.037-.73.494-1.225 1.014-1.17.386.047.89.459.82 1.451l2.542.249c.135-2.568-.948-4.5-3.277-4.54-1.806-.024-3.55 1.53-3.494 3.873.09 4.197 4.665 3.527 4.698 7.01.004.522-.288 1.052-.825.998-.675-.129-1.184-.597-1.229-2.032l-2.378-.583c-.023 2.193.768 4.51 3.09 5.012 2.254.495 4.323-1.326 3.833-4.457-.576-3.64-4.69-3.858-4.794-5.811zm11.828-4.957h5.626v-2.201l-3.304-.225v-2.246l2.741.369V10.82l-2.741-.563V8.152l3.304.877V6.805l-5.628-1.868.002 12.422z" fill="#1C1C23"/></symbol></defs><use xlink:href="#a"/></svg>