<svg height="813" viewBox="19.457 -104.178 2019.711 714.914" width="2500" xmlns="http://www.w3.org/2000/svg"><path d="m950.348-104.178h1088.82v102.278c-33.76 16.606-68.8 35.813-105.141 57.835-41.852 25.354-85.441 54.449-130.843 87.583-36.621 21.766-74.498 45.789-113.677 72.196a2832.814 2832.814 0 0 0 -58.069 40.225c-18.924 13.444-37.699 26.397-56.325 38.836-462.46 309.115-835.948 315.961-1112.037 222.43v-369.807c59.522-69.34 109.689-150.825 189.426-224.981 0 0 11.079-10.303 33.655-26.595z" fill="#f9b11a" transform="matrix(.35278 0 0 -.35278 502.78 216.537)"/><path d="m330.946 105.792a30.224 26.49-23.834 0 1 -29.647 29.647 30.224 26.49-23.834 0 1 -29.646-24.367 30.224 26.49-23.834 0 1 29.647-29.646 30.224 26.49-23.834 0 1 29.647 24.366z" fill="#fc0" fill-rule="evenodd"/><path d="m124.2 183.216s12.587 4.744 14.62-2.842c1.262-4.713-3.303-7.18-10.925-9.743-20.717-6.969-102.361-40.5-95.442-93.673 3.574-27.468 23.353-44.14 72.283-40.998 59.407 3.815 75.339 45.872 75.339 45.872 2.64-1.312 1.41-21.85-20.698-39.303-12.112-9.562-33.197-21.465-58.494-22.426-43.361-1.648-81.426 22.434-81.426 55.231 0 73.309 104.742 107.882 104.742 107.882z" fill="#000080"/><path d="m169.112 72.118c-1.687 1.686-1.48 3.398-.398 4.308 1.167.982 3.457 1.318 5.269-.889 0 0 19.745-24.496 47.515-24.496 23.48 0 40.002 25.308 40.002 25.308 2.145 3.565 8.749 2.967 11.524.61 2.84-2.414 3.433-6.752.052-11.371 0 0-19.953-28.701-52.235-28.701-28.965 0-51.728 35.231-51.728 35.231z" fill="#f00"/><g fill="#000080"><path d="m158.106 87.614c1.743-.01 3.569.58 3.983 3.39.498 3.38-1.28 4.447-2.929 4.54-13.522.757-20.788 6.532-20.866 15.122-.123 13.618 19.029 24.236 32.643 24.57 16.793.41 43.404-10.574 41.697-28.3-.488-5.052-6.45-12.347-19.997-10.714-7.636.92-13.956 8.187-19.595 10.754-4.288 1.952-7.651 2.074-9.642-.453-2.03-2.577-1.128-6.685 1.852-9.665 7.633-7.633 23.136-10.697 33.795-8.994 16.306 2.604 20.092 11.757 19 21.177-2.196 18.932-19.902 32.692-46.907 32.692-17.837 0-39.03-14.509-39.393-31.27-.251-11.625 14.731-22.797 26.359-22.85zm65.087 48.027a3.321 3.321 0 0 1 -3.254-3.386c.052-11.158 5.783-35.547 12.204-49.87a3.321 3.321 0 1 1 6.06 2.715c-5.819 12.98-11.582 38.551-11.624 47.191a3.321 3.321 0 0 1 -3.386 3.35z"/><path d="m224.833 123.509a3.321 3.321 0 0 1 -3.273-4.23c5.11-19.068 25.425-29.727 42.524-26.45a3.321 3.321 0 1 1 -1.25 6.522c-13.415-2.572-30.76 6.348-34.86 21.65a3.321 3.321 0 0 1 -3.141 2.508zm70.095 12.148c-3.628-1.177-3.321-4.263.867-4.806 18.705-4.252 32.769-6.826 34.214-22.878 1.25-13.887-14.205-24.18-28.779-21.893-11.507 1.807-19.072 11.426-25.862 16.37-.377.274-1.249.539-1.818.26-.465-.229-.686-.915-.617-1.463 1.261-9.94 15.46-22.93 28.49-24.044 16.87-1.443 35.61 16.955 32.693 31.588-3.803 19.084-14.765 31.514-39.188 26.865z"/><path d="m333.142 136.335a2.887 2.887 0 0 1 -2.836-2.638c-4.044-40.37 19.33-76.887 33.066-113.592a2.887 2.887 0 1 1 5.408 2.022c-14.036 37.507-36.516 73.2-32.73 110.996a2.887 2.887 0 0 1 -2.908 3.212zm38.049-3.721c-17.735-1.196-25.083-15.056-23.414-30.397 1.563-13.598 17.446-24.605 30.797-25.9 19.217-1.862 31.561 11.952 28.722 27.856-2.692 15.082-15.665 29.82-36.105 28.441zm1.448-6.443c17.073-.62 25.054-12.465 27.939-23.23 3.354-12.52-7.386-20.27-21.412-19.731-10.54.404-22.652 9.412-23.83 19.665-2.593 18.679 7.581 23.65 17.303 23.296z"/><path d="m373.111 108.678c-6.777-.296-14.141-1.723-22.23-4.637a2.887 2.887 0 1 1 1.955-5.432c15.225 5.483 27.004 5.284 37.422 2.363 10.417-2.92 19.523-8.697 28.884-14.67a2.887 2.887 0 1 1 3.105 4.865c-9.36 5.97-18.964 12.147-30.434 15.363a59.077 59.077 0 0 1 -18.702 2.148z"/><path d="m452.692 137.275c-9.754.225-20.745-.018-29.093-1.867-8.348-1.848-13.855-5.16-17.428-7.113-4.08-2.063-.758-8.146 3.183-5.827 2.217 1.211 8.316 4.841 16.255 6.598s17.918 1.777 26.928 1.568c9.01-.208 17.414-1.989 23.206-5.91 5.792-3.923 9.363-9.714 9.207-19.815-.152-9.822-7.4-20.737-20.257-22.65-6.493-.967-15.001 3.426-21.705 8.573-6.703 5.146-11.474 10.6-11.474 10.6-2.418 2.763-6.869.14-5.624-3.314 9.793-27.058 19.852-54.13 34.617-79.717 2.936-5.093 10.974-1.14 7.989 4.03-12.037 20.861-22.551 42.32-31.03 64.5.803-.664.61-.703 1.478-1.37 7.295-5.6 16.875-11.344 26.73-9.877 16.127 2.4 25.716 16.111 25.917 29.123.183 11.85-4.697 20.39-12.127 25.42-7.43 5.031-17.018 6.822-26.772 7.048zm119.55 6.443c-10.867-2.716-14.077-21.653-15.171-32.306-4.337 3.979-9.67 11.104-18.738 17.41-9.708 6.395-30.451 17.844-38.917 4.624-7.11-15.38 12.268-24.243 22.597-28.639 9.235-5.197 32.33-9.708 32.33-16.757 0-7.284-8.919-10.77-17.727-12.068-2.068-.232-4.422-2.216-4.374-4.202.052-2.244 2.78-4.493 5.116-4.23 13.017 1.833 24.018 10.32 23.625 20.5-.44 11.429-23 19.25-34.382 24.026-5.634 2.81-24.483 8.53-21.03 14.018 2.022 3.212 18.969-1.67 27.432-5.604 8.369-3.89 20.125-15.751 29.296-24.678 3.554 13.263 1.95 35.848 10.814 39.15 3.635 1.353 20.331-4.18 29.904-10.305 10.493-6.058 12.593 4.754 5.636 8.77-10.443 6.184-24.467 13.275-36.41 10.29z"/></g></svg>