<svg height="574" viewBox="7.1 .5 345.9 78.3" width="2500" xmlns="http://www.w3.org/2000/svg"><g clip-rule="evenodd" fill-rule="evenodd"><path d="m68.8 61.4c-18.1 12-37.1-.9-38.6-10.9 1 1.4 2.9 2.3 4.4 2.6-5.3-9.3-4.7-16.9 6.5-22.2-3.7-.1-10.5 1.3-12.3 5.1-1.2-1.5-1.2-2.4-.9-3.9-3.6 2.8-6.4 8.3-6 17.8-4.7-2.1-2 6.1-.4 10.5-14.4-11.7-13.7-36.2 1.5-47.9 18.1-12 37.1.3 38.6 10.3-1-1.4-2.8-2.2-4.3-2.5 6.3 8.7 3.3 18.2-6.6 23 3.7.1 10.5-1.6 12.3-5.3 1.2 1.5 1.3 2.4 1 3.9 3.6-2.8 6.4-8.3 6-17.8 4.7 2.1 2-6.1.3-10.5 14.4 11.6 13.7 36.2-1.5 47.8z" fill="#ff201a"/><path d="m118.2 43v1.4c0 5.4-1.2 9.5-3.6 12.1s-6 3.9-10.9 3.9c-2.9 0-5.4-.5-7.4-1.4-2.1-1-3.7-2.4-5-4.4-.9-1.4-1.5-3.3-1.9-5.8s-.6-6.4-.6-11.7.2-9.3.6-11.7c.4-2.5 1-4.4 1.9-5.8 1.3-1.9 2.9-3.4 4.9-4.4s4.5-1.5 7.3-1.5c4.9 0 8.5 1.4 11 4.1 2.4 2.7 3.7 6.8 3.7 12.2v.4h-10.1c0-3-.4-5.2-1-6.4-.7-1.2-1.8-1.8-3.3-1.8-1.7 0-2.8.8-3.4 2.2-.6 1.5-.9 5.4-.9 11.8v.8c0 6.9.3 11.1.9 12.6s1.8 2.3 3.4 2.3 2.7-.6 3.3-1.7.9-3.2.9-6.3v-2h10.2c-.1.5 0 .8 0 1.1zm31.2-17.6c-.4-2.5-1-4.4-2-5.8-1.3-2-2.9-3.4-5-4.4-2-.9-4.5-1.4-7.4-1.4s-5.4.5-7.4 1.4c-2.1 1-3.7 2.4-5 4.4-.9 1.4-1.5 3.3-1.9 5.8s-.6 6.4-.6 11.7.2 9.3.6 11.7c.4 2.5 1 4.4 1.9 5.8 1.3 1.9 2.9 3.4 5 4.4s4.5 1.4 7.4 1.4 5.4-.5 7.4-1.4c2-1 3.7-2.4 5-4.4.9-1.4 1.6-3.3 2-5.8s.6-6.4.6-11.7-.2-9.2-.6-11.7zm-10.1 15.8c0 4.9-.3 7.9-.9 9.1s-1.7 1.8-3.4 1.8c-1.6 0-2.8-.6-3.4-1.8s-.9-4.2-.9-9.1v-8c0-4.9.3-7.9.9-9.1s1.7-1.8 3.3-1.8 2.8.6 3.4 1.7c.6 1.2.9 4.2.9 9.2v8zm42.4 17.8c-1.3-1.5-2-4.5-2.1-9 0-1.1 0-1.9-.1-2.4v-.1c-.2-5.3-1.9-8.7-5.1-10.1 1.9-1.1 3.3-2.5 4.2-4.3.9-1.7 1.3-3.9 1.3-6.4 0-2.1-.3-3.9-.9-5.4s-1.6-2.8-2.8-3.9c-1.1-.9-2.5-1.5-4.2-1.8-1.7-.4-4.5-.5-8.4-.5h-11.6v44.5h10.3v-18h2.1c1.8 0 3.1.5 3.8 1.5s1.1 2.9 1.1 5.6c0 .3 0 1-.1 2 0 1-.1 1.9-.1 2.6 0 1.2.1 2.2.2 3.3.1 1 .3 2 .6 2.9h12.2c-.1-.2-.2-.3-.4-.5zm-13.6-26.8c-.9.9-2.4 1.3-4.6 1.3h-1.3v-10.9h1.3c2.2 0 3.7.4 4.6 1.2s1.3 2.1 1.3 4.1c.1 1.9-.4 3.4-1.3 4.3zm44.2-4.1c0-2.6-.5-4.8-1.3-6.7-.9-2-2.1-3.5-3.8-4.5-1.2-.8-2.7-1.3-4.5-1.7-1.8-.3-4.6-.5-8.4-.5h-10.2v44.5h10.5v-16.9h3.7c4.6 0 8.1-1.2 10.5-3.5 1.8-1.8 2.9-4.2 3.4-7.2.1-.9.2-2 .2-3-.1-.2-.1-.3-.1-.5zm-11.8 4.6c-.9 1-2.4 1.5-4.5 1.5h-.8c-.2 0-.4 0-.5-.1v-11.2h.9c2.3 0 3.9.4 4.9 1.2s1.5 2.1 1.5 3.9c-.1 2.1-.6 3.7-1.5 4.7zm43.1-7.3c-.4-2.5-1-4.4-2-5.8-1.3-2-2.9-3.4-5-4.4-2-.9-4.5-1.4-7.4-1.4s-5.4.5-7.4 1.4c-2.1 1-3.7 2.4-5 4.4-.9 1.4-1.5 3.3-1.9 5.8-.1.8-.2 1.7-.3 2.7s-.1 2.1-.2 3.4c0 1.6-.1 3.5-.1 5.5 0 5.4.2 9.3.6 11.7.4 2.5 1 4.4 1.9 5.8 1.3 1.9 2.9 3.4 5 4.4s4.5 1.4 7.4 1.4 5.4-.5 7.4-1.4c2-1 3.7-2.4 5-4.4.9-1.4 1.6-3.3 2-5.8s.6-6.4.6-11.7c-.1-5.2-.3-9.1-.6-11.6zm-10.1 15.8c0 4.9-.3 7.9-.9 9.1s-1.7 1.8-3.4 1.8c-1.6 0-2.8-.6-3.4-1.8s-.9-4.2-.9-9.1v-8c0-4.9.3-7.9.9-9.1s1.7-1.8 3.3-1.8 2.8.6 3.4 1.7c.6 1.2.9 4.2.9 9.2v8zm23-17.7v8.2h12.8v8.9h-12.8v9.8h13.9v9h-24.3v-44.5h24.3v8.6zm38.8 26.9v9h-23v-44.5h10.4v35.5zm12.3-26.9v8.2h12.8v8.9h-12.8v9.8h13.9v9h-24.3v-44.5h24.3v8.6zm45.3 20.9c0 5.4-1.2 9.5-3.6 12.1s-6 3.9-10.9 3.9c-1.2 0-2.3-.1-3.3-.3-1.5-.2-2.9-.6-4.1-1.2-2.1-1-3.7-2.4-5-4.4-.9-1.4-1.5-3.3-1.9-5.8s-.6-6.4-.6-11.7.2-9.3.6-11.7c.4-2.5 1-4.4 1.9-5.8 1.3-1.9 2.9-3.4 4.9-4.4 1.2-.6 2.6-1 4.2-1.2 1-.2 2-.2 3.2-.2 4.9 0 8.5 1.4 11 4.1 2.4 2.7 3.7 6.8 3.7 12.2v.4h-10.1c0-3-.4-5.2-1-6.4-.7-1.2-1.8-1.8-3.3-1.8-1.6 0-2.7.7-3.3 2 0 .1-.1.2-.1.2-.6 1.5-.9 5.4-.9 11.8v.8c0 6.9.3 11.1.9 12.6 0 .1.1.2.1.2.6 1.4 1.7 2.1 3.3 2.1s2.6-.6 3.3-1.7c.6-1.1.9-3.2.9-6.3v-2h10.2v.9c-.1.5-.1 1-.1 1.6zm-256.1 32.9c-.2.1-.5.1-.8.2-.3 0-.6.1-.9.1-.7 0-1.3-.1-1.8-.3s-1-.5-1.4-.9-.6-.9-.8-1.4c-.2-.6-.3-1.2-.3-1.9s.1-1.4.3-2 .5-1.1.9-1.5.9-.7 1.4-.9 1.1-.3 1.8-.3c.5 0 .9.1 1.3.1.4.1.7.2 1 .3l.3-1.2c-.1-.1-.3-.1-.6-.2-.2-.1-.5-.1-.9-.2s-.8-.1-1.2-.1c-.9 0-1.7.1-2.4.4s-1.3.7-1.9 1.2c-.5.5-.9 1.1-1.2 1.9-.3.7-.4 1.5-.4 2.4s.1 1.7.4 2.5c.3.7.7 1.3 1.2 1.8s1.1.9 1.8 1.1 1.4.4 2.2.4c.5 0 .9 0 1.3-.1s.7-.1 1-.2.5-.2.7-.3l-.3-1.2c-.2.2-.4.3-.7.3zm11.7-6.7c-.2-.7-.6-1.3-1-1.8s-1-.9-1.6-1.2-1.3-.4-2.1-.4-1.5.1-2.1.4-1.2.7-1.7 1.2-.8 1.1-1.1 1.9c-.3.7-.4 1.5-.4 2.4s.1 1.6.4 2.3c.2.7.6 1.3 1 1.8.5.5 1 .9 1.6 1.2s1.3.4 2 .4c.6 0 1.1-.1 1.7-.2.5-.2 1-.4 1.4-.7s.8-.7 1.1-1.2.6-1 .7-1.7c.2-.6.3-1.3.3-2.1.2-.9.1-1.6-.2-2.3zm-1.4 4.1c-.2.6-.4 1.1-.7 1.5s-.7.8-1.1 1-1 .4-1.5.4-.9-.1-1.3-.2c-.4-.2-.7-.4-1-.7s-.5-.6-.7-1-.4-.8-.4-1.2c-.1-.4-.2-.9-.2-1.4s0-1 .1-1.4c.1-.5.2-.9.4-1.3s.4-.7.7-1 .6-.5 1-.7.8-.2 1.3-.2.9.1 1.3.3.7.4 1 .7.5.6.7 1 .3.8.4 1.2.1.9.1 1.3c.1.6.1 1.2-.1 1.7zm10.6 2.8c-.1-.5-.3-1.2-.5-2-.1-.6-.3-1.1-.6-1.5s-.6-.7-1.1-.8v-.1c.4-.1.8-.3 1.1-.6s.6-.6.8-1 .3-.8.3-1.3c0-.4-.1-.8-.2-1.2-.2-.4-.4-.7-.7-.9-.2-.2-.5-.4-.8-.5s-.7-.2-1.1-.3-.9-.1-1.4-.1h-1c-.3 0-.7 0-1 .1-.3 0-.6.1-.8.1v11.1h1.5v-4.9h1.4c.4 0 .8.1 1.1.2.3.2.5.4.7.7s.3.7.4 1.2c.2.7.3 1.3.4 1.7.1.5.2.8.3.9h1.5c0 .1-.1-.3-.3-.8zm-2.6-5.1c-.4.2-.8.3-1.3.3h-1.5v-4.1c.1 0 .3-.1.5-.1h.9c.5 0 1 .1 1.4.2.4.2.7.4.9.7s.3.7.3 1.2c0 .4-.1.8-.3 1.1-.3.2-.5.5-.9.7zm11.3-3.2c-.2-.4-.4-.7-.7-1s-.8-.5-1.3-.7-1.2-.2-1.9-.2c-.6 0-1.1 0-1.6.1s-.9.1-1.2.2v11.1h1.5v-4.5c.2 0 .4.1.5.1h.6c.5 0 .9-.1 1.3-.1.4-.1.8-.2 1.2-.4s.7-.4.9-.7c.3-.3.5-.6.7-1 .1-.4.2-.9.2-1.4s0-1.1-.2-1.5zm-1.5 2.7c-.2.4-.6.6-1 .8s-.9.3-1.5.3h-.7c-.2 0-.4 0-.5-.1v-4.4c.1 0 .3-.1.5-.1h.8c.5 0 1 .1 1.4.2.4.2.7.4.9.7s.3.7.3 1.2c.2.6 0 1.1-.2 1.4zm13-1.3c-.2-.7-.6-1.3-1-1.8s-1-.9-1.6-1.2-1.3-.4-2.1-.4-1.5.1-2.1.4-1.2.7-1.7 1.2-.8 1.1-1.1 1.9c-.3.7-.4 1.5-.4 2.4s.1 1.6.4 2.3c.2.7.6 1.3 1 1.8.5.5 1 .9 1.6 1.2s1.3.4 2 .4c.6 0 1.1-.1 1.7-.2.5-.2 1-.4 1.4-.7s.8-.7 1.1-1.2.6-1 .7-1.7c.2-.6.3-1.3.3-2.1.2-.9.1-1.6-.2-2.3zm-1.4 4.1c-.2.6-.4 1.1-.7 1.5s-.7.8-1.1 1-1 .4-1.5.4-.9-.1-1.3-.2c-.4-.2-.7-.4-1-.7s-.5-.6-.7-1-.4-.8-.4-1.2c-.1-.4-.2-.9-.2-1.4s0-1 .1-1.4c.1-.5.2-.9.4-1.3s.4-.7.7-1 .6-.5 1-.7.8-.2 1.3-.2.9.1 1.3.3.7.4 1 .7.5.6.7 1 .3.8.4 1.2.1.9.1 1.3c.2.6.1 1.2-.1 1.7zm10.6 2.8c-.1-.5-.3-1.2-.5-2-.1-.6-.3-1.1-.6-1.5s-.6-.7-1-.8v-.1c.4-.1.8-.3 1.1-.6s.6-.6.8-1 .3-.8.3-1.3c0-.4-.1-.8-.2-1.2-.2-.4-.4-.7-.7-.9-.2-.2-.5-.4-.8-.5s-.7-.2-1.1-.3-.9-.1-1.4-.1h-1c-.3 0-.7 0-1 .1-.3 0-.6.1-.8.1v11.1h1.5v-4.9h1.4c.4 0 .8.1 1.1.2.3.2.5.4.7.7s.3.7.4 1.2c.2.7.3 1.3.4 1.7.1.5.2.8.3.9h1.5c-.1.1-.2-.3-.4-.8zm-2.6-5.1c-.4.2-.8.3-1.4.3h-1.5v-4.1c.1 0 .3-.1.5-.1h.9c.5 0 1 .1 1.4.2.4.2.7.4.9.7s.3.7.3 1.2c0 .4-.1.8-.3 1.1-.2.2-.4.5-.8.7zm9.5-5.1h-1.8l-3.8 11.3h1.5l1.2-3.5h4l1.2 3.5h1.6zm-2.6 6.6 1.1-3.3c.1-.3.2-.7.3-1s.2-.7.3-1c.1.3.2.7.3 1s.2.7.3 1.1l1.1 3.2zm14.7 3.4c-.2.1-.5.1-.8.2-.3 0-.6.1-.9.1-.7 0-1.3-.1-1.8-.3s-1-.5-1.4-.9-.6-.9-.8-1.4c-.2-.6-.3-1.2-.3-1.9s.1-1.4.3-2 .5-1.1.9-1.5.9-.7 1.4-.9 1.1-.3 1.8-.3c.5 0 .9.1 1.3.1.4.1.7.2 1 .3l.4-1.2c-.1-.1-.3-.1-.6-.2s-.5-.1-.9-.2-.8-.1-1.2-.1c-.9 0-1.7.1-2.4.4s-1.3.7-1.9 1.2c-.5.5-.9 1.1-1.2 1.9-.3.7-.4 1.5-.4 2.4s.1 1.7.4 2.5c.3.7.7 1.3 1.2 1.8s1.1.9 1.8 1.1 1.4.4 2.2.4c.5 0 .9 0 1.3-.1s.7-.1 1-.2.5-.2.7-.3l-.3-1.2c-.3.2-.5.3-.8.3zm2.8-10v11.3h1.5v-11.3zm13.3 3.3c-.2-.7-.6-1.3-1-1.8s-1-.9-1.6-1.2-1.3-.4-2.1-.4c-.7 0-1.5.1-2.1.4s-1.2.7-1.7 1.2-.8 1.1-1.1 1.9c-.3.7-.4 1.5-.4 2.4s.1 1.6.4 2.3c.2.7.6 1.3 1 1.8s1 .9 1.6 1.2 1.3.4 2 .4c.6 0 1.1-.1 1.7-.2.5-.2 1-.4 1.4-.7s.8-.7 1.1-1.2.6-1 .7-1.7c.2-.6.3-1.3.3-2.1.2-.9 0-1.6-.2-2.3zm-1.4 4.1c-.2.6-.4 1.1-.7 1.5s-.7.8-1.1 1c-.5.2-1 .4-1.5.4s-.9-.1-1.2-.2c-.4-.2-.7-.4-1-.7s-.5-.6-.7-1-.4-.8-.5-1.2-.2-.9-.2-1.4.1-1 .1-1.4c.1-.5.2-.9.4-1.3s.4-.7.7-1 .6-.5 1-.7.8-.2 1.3-.2.9.1 1.3.3.7.4 1 .7.5.6.7 1 .3.8.4 1.2.1.9.1 1.3c.1.6 0 1.2-.1 1.7zm-2.7-9.9-1.6 2h1.2l2.1-2zm13.4 2.5v6.3c0 .5 0 1 .1 1.5 0 .5.1 1 .1 1.5l-.9-1.8c-.3-.6-.7-1.2-1.1-1.9l-3.6-5.7h-1.6v11.3h1.4v-4.8-1.7-1.5c0-.5 0-1-.1-1.4h.1c.3.6.6 1.2 1 1.9.4.6.7 1.3 1.1 1.9l3.6 5.7h1.5v-11.3zm8.9 10.1v-4.1h4.4v-1.2h-4.4v-3.6h4.6v-1.2h-6v11.3h6.3v-1.2zm8.3 0v-10h-1.5v11.3h6.3v-1.2h-4.8zm7.9 0v-4.1h4.4v-1.2h-4.4v-3.6h4.6v-1.2h-6.1v11.3h6.3v-1.2zm2.3-12.6-1.6 2h1.2l2.1-2zm11.3 12.5c-.2.1-.5.1-.8.2-.3 0-.6.1-.9.1-.7 0-1.3-.1-1.8-.3s-1-.5-1.4-.9-.6-.9-.8-1.4c-.2-.6-.3-1.2-.3-1.9s.1-1.4.3-2 .5-1.1.9-1.5.9-.7 1.4-.9 1.1-.3 1.8-.3c.5 0 .9.1 1.3.1.4.1.7.2 1 .3l.3-1.2c-.1-.1-.3-.1-.6-.2-.2-.1-.5-.1-.9-.2s-.8-.1-1.2-.1c-.9 0-1.7.1-2.4.4s-1.3.7-1.9 1.2c-.5.5-.9 1.1-1.2 1.9-.3.7-.4 1.5-.4 2.4s.1 1.7.4 2.5c.3.7.7 1.3 1.2 1.8s1.1.9 1.8 1.1 1.4.4 2.2.4c.5 0 .9 0 1.3-.1s.7-.1 1-.2.5-.2.7-.3l-.3-1.2c-.2.2-.4.3-.7.3zm2-10v1.2h3.4v10h1.5v-10h3.4v-1.2zm16.6 10.2c-.1-.5-.3-1.2-.5-2-.1-.6-.3-1.1-.6-1.5s-.6-.7-1.1-.8v-.1c.4-.1.8-.3 1.1-.6s.6-.6.8-1 .3-.8.3-1.3c0-.4-.1-.8-.2-1.2-.2-.4-.4-.7-.7-.9-.2-.2-.5-.4-.8-.5s-.7-.2-1.1-.3-.9-.1-1.4-.1h-1c-.3 0-.7 0-1 .1-.3 0-.6.1-.8.1v11.1h1.5v-4.9h1.4c.4 0 .8.1 1.1.2.3.2.5.4.7.7s.3.7.4 1.2c.2.7.3 1.3.4 1.7.1.5.2.8.3.9h1.5c-.1.1-.2-.3-.3-.8zm-2.7-5.1c-.4.2-.8.3-1.3.3h-1.5v-4.1c.1 0 .3-.1.6-.1h.9c.5 0 1 .1 1.3.2.4.2.7.4.9.7s.3.7.3 1.2c0 .4-.1.8-.3 1.1-.2.2-.5.5-.9.7zm4.7-5.1v11.3h1.5v-11.3zm10.9 10c-.2.1-.5.1-.8.2-.3 0-.6.1-.9.1-.7 0-1.3-.1-1.8-.3s-1-.5-1.3-.9c-.4-.4-.7-.9-.9-1.4-.2-.6-.3-1.2-.3-1.9s.1-1.4.3-2 .5-1.1.9-1.5.8-.7 1.4-.9c.5-.2 1.1-.3 1.8-.3.5 0 .9.1 1.3.1.4.1.7.2 1 .3l.4-1.2c-.1-.1-.3-.1-.6-.2-.2-.1-.5-.1-.9-.2s-.8-.1-1.2-.1c-.9 0-1.7.1-2.4.4s-1.3.7-1.9 1.2c-.5.5-.9 1.1-1.2 1.9-.3.7-.4 1.5-.4 2.4s.1 1.7.4 2.5c.3.7.7 1.3 1.2 1.8s1.1.9 1.8 1.1 1.4.4 2.2.4c.5 0 .9 0 1.3-.1s.7-.1 1-.2.5-.2.7-.3l-.3-1.2c-.3.2-.6.3-.8.3zm7.6-10h-1.8l-3.8 11.3h1.5l1.2-3.5h4l1.2 3.5h1.6zm-2.6 6.6 1.1-3.3c.1-.3.2-.7.3-1s.2-.7.3-1c.1.3.2.7.3 1s.2.7.3 1.1l1.1 3.2zm18.7-6.6v6.3c0 .5 0 1 .1 1.5 0 .5.1 1 .1 1.5l-.9-1.8c-.3-.6-.7-1.2-1.1-1.9l-3.6-5.7h-1.6v11.3h1.4v-4.8-1.7-1.5c0-.5 0-1-.1-1.4h.1c.3.6.6 1.2 1 1.9.4.6.7 1.3 1.1 1.9l3.6 5.7h1.5v-11.3zm8.7 0h-1.8l-3.8 11.3h1.5l1.2-3.5h4l1.2 3.5h1.6zm-2.6 6.6 1.1-3.3c.1-.3.2-.7.3-1s.2-.7.3-1c.1.3.2.7.3 1s.2.7.3 1.1l1.1 3.2zm14.7 3.4c-.2.1-.5.1-.8.2-.3 0-.6.1-.9.1-.7 0-1.3-.1-1.8-.3s-1-.5-1.4-.9-.6-.9-.9-1.4c-.2-.6-.3-1.2-.3-1.9s.1-1.4.3-2 .5-1.1.9-1.5.9-.7 1.4-.9 1.1-.3 1.8-.3c.5 0 .9.1 1.3.1.4.1.7.2 1 .3l.4-1.2c-.1-.1-.3-.1-.6-.2-.2-.1-.5-.1-.9-.2s-.8-.1-1.2-.1c-.9 0-1.7.1-2.4.4s-1.3.7-1.9 1.2c-.5.5-.9 1.1-1.2 1.9-.3.7-.4 1.5-.4 2.4s.1 1.7.4 2.5c.3.7.7 1.3 1.2 1.8s1.1.9 1.8 1.1 1.4.4 2.2.4c.5 0 .9 0 1.3-.1s.7-.1 1-.2.5-.2.7-.3l-.3-1.2c-.2.2-.4.3-.7.3zm2.8-10v11.3h1.5v-11.3zm13.3 3.3c-.2-.7-.6-1.3-1-1.8s-1-.9-1.6-1.2-1.3-.4-2.1-.4-1.5.1-2.1.4-1.2.7-1.7 1.2-.8 1.1-1.1 1.9c-.3.7-.4 1.5-.4 2.4s.1 1.6.4 2.3c.2.7.6 1.3 1 1.8s1 .9 1.6 1.2 1.3.4 2 .4c.6 0 1.1-.1 1.7-.2.5-.2 1-.4 1.4-.7s.8-.7 1.1-1.2.6-1 .7-1.7c.2-.6.3-1.3.3-2.1.1-.9 0-1.6-.2-2.3zm-1.4 4.1c-.2.6-.4 1.1-.7 1.5s-.7.8-1.1 1-1 .4-1.5.4-.9-.1-1.3-.2c-.4-.2-.7-.4-1-.7s-.5-.6-.7-1-.4-.8-.5-1.2-.2-.9-.2-1.4.1-1 .1-1.4c.1-.5.2-.9.4-1.3s.4-.7.7-1 .6-.5 1-.7.8-.2 1.3-.2.9.1 1.3.3.7.4 1 .7.5.6.7 1 .3.8.4 1.2.1.9.1 1.3c.2.6.1 1.2 0 1.7zm10.7-7.4v6.3c0 .5 0 1 .1 1.5 0 .5.1 1 .1 1.5l-.9-1.8c-.3-.6-.7-1.2-1.1-1.9l-3.6-5.7h-1.6v11.3h1.4v-4.8-1.7-1.5c0-.5 0-1-.1-1.4h.1c.3.6.6 1.2 1 1.9.4.6.7 1.3 1.1 1.9l3.6 5.7h1.5v-11.3zm8.7 0h-1.8l-3.8 11.3h1.5l1.2-3.5h4l1.2 3.5h1.5zm-2.7 6.6 1.1-3.3c.1-.3.2-.7.3-1s.2-.7.3-1c.1.3.2.7.3 1s.2.7.3 1.1l1.1 3.2zm9.6 3.5v-10h-1.5v11.3h6.3v-1.2h-4.8z" fill="#0a3672"/></g></svg>