<svg height="690" viewBox="74.36 73.75 1713.5 395.08" width="2500" xmlns="http://www.w3.org/2000/svg"><path d="m452.32 90.33c26.68-9.09 54.51-14.94 82.65-16.58 11.67 1.49 23.96 2.01 34.54 7.72 10.33 5.24 18.5 14.76 21.76 25.91 3.33 13.37.2 27.3-4.98 39.77-7.58 18.21-18.86 34.67-31.53 49.71-3.71 4.66-7.6 9.2-12 13.23 6.14 3.23 12.39 6.27 18.53 9.47-8.99 3.9-17.35 9.03-25.87 13.83-9.76 5.7-19.97 10.73-29.07 17.51 4-18.55 7.37-37.23 9.97-56.04.22-2.07.48-4.16 1.18-6.14 4.23 5.2 9.88 8.92 14.69 13.53 6.83-11.01 14.47-21.61 19.36-33.7 3.7-8.43 6.15-17.43 6.85-26.62-.16-10.08-3.46-20.48-11.07-27.42-10.29-9.36-25.02-11.47-38.43-10.95-20.4 1.7-40.48 6.21-59.97 12.38-42.07 13.38-82.28 31.9-121.9 51.18-9.25-.16-18.5.56-27.75.23 3.97-3.18 8.39-5.69 12.69-8.35 43.78-28.44 90.73-52.28 140.35-68.67z" fill="#e20110"/><path d="m282.12 168.45c5.72-.33 11.41-1.55 17.16-1.1 9.25.33 18.5-.39 27.75-.23 6.62.82 13.29-.14 19.94.13 20.04-.22 40.08.57 60.08 1.84 16.07.98 32.78 3.45 46.67 12.14 7.29 4.44 13.07 11.28 16.09 19.28 2.64 6.53 3.99 13.51 4.97 20.46 1.25 9.06.34 18.26 1.44 27.34-21.66-.2-43.32-.15-64.98-.07-.01-5.41.18-11.17-2.41-16.09-3.69-5.51-10.53-7.82-16.84-8.5-19.29-1.5-38.65-.89-57.97-.95-9.01.13-18.04-.21-27.02.56-9.03.15-18.51 2.31-25.54 8.25-6.42 6.71-8.73 16.37-9.19 25.4-.03 14.69-.24 29.38.1 44.06.84 7.87 2.5 16.46 8.44 22.18 6.28 5.65 15.17 6.6 23.2 7.62 25.32.16 50.64-.04 75.96.06 6.87.1 13.75-.73 20.41-2.4 4.28-1.12 8.18-3.9 10.16-7.91 3.24-6.06 2.27-13.15 3.26-19.71 16.52.04 33.04.06 49.56-.17-48.29 29.26-98.29 55.62-148.86 80.7-3.99 1.93-7.92 4.43-12.46 4.72-8.39.67-16.76-.63-25.14-.81-16.03-1.73-32.84-4.3-46.32-13.82-11.74-7.99-19.02-21.18-22-34.83-1.47-7.82-2.92-15.7-2.91-23.68-.16-24.31-.1-48.63-.08-72.94-.02-6.99 1.2-13.9 2.53-20.73 2.17-11.88 7.5-23.41 16.15-31.97 8.92-8.2 20.3-13.43 32.11-15.9 8.42-2.07 17.12-2.4 25.74-2.93zm259.33 83.06c26.17-.75 52.38-.02 78.57-.23 13.34-.34 27.47 1.39 38.82 8.94 10.03 6.73 13.71 19.28 14.51 30.74.23 16.32.26 32.64.06 48.96-.1 10.47-2.78 21.56-9.97 29.48-10.18 9.76-24.87 12.24-38.42 12.91-18 .33-36 .22-53.99.18-15.63-.12-31.63.65-46.76-3.97-7.39-2.7-14.62-7.12-18.6-14.13-3.51-6.2-5.41-13.29-5.91-20.38-.16-14.34-.08-28.69-.16-43.03.02-6.69-.52-13.54 1.51-20.01 2.23-7.93 5.68-16.29 12.91-20.9 7.98-5.77 17.92-7.26 27.43-8.56m20.76 32.79c-5.77.55-12.01 1.45-16.62 5.27-5.02 4.67-5.56 12-5.93 18.43-.11 9.08-.32 18.24 1.12 27.24.66 4.18 2.37 8.66 6.26 10.82 5.66 3.5 12.58 3.06 18.96 3.13 14.32-.63 28.66-.3 43-.35 4.5-.08 9.2.46 13.49-1.29 4.22-1.33 7.98-4.65 9.04-9.06 1.43-5.7 1.86-11.61 2.03-17.46.1-8.52.26-17.24-2.34-25.45-1.55-4.63-5.55-8.19-10.23-9.46-9.74-2.75-19.97-1.61-29.95-2.02-9.6-.52-19.23-.28-28.83.2zm158.73-31.12c7.25-1.35 14.61-2.09 21.99-1.89 18.03 0 36.06-.04 54.09 0 12.77-.09 26.22.03 37.94 5.78 6.73 3.08 11.7 9.67 12.75 17.01.92 6.63 1.31 13.32 1.98 19.98-2.85-.5-5.73-.8-8.61-.77-10.84.01-21.68-.23-32.51.19.41-3.2 1.18-6.68-.38-9.7-2.45-3.02-6.67-3-10.21-3.16-16.33-.27-32.66-.22-48.99-.21-3.83.1-7.99-.06-11.39 1.99-5.38 3.21-5.7 12.04-.77 15.78 3.38 2.15 7.56 2.17 11.43 2.5 19.9.43 39.83-.44 59.72.74 9.82.08 19.84.99 29.07 4.55 6.32 2.46 11.91 7.28 14.24 13.77 3.09 8.35 2.87 17.44 2.91 26.22-.23 7.85-.76 16.27-5.32 22.98-3.41 5.14-9.14 8.2-14.99 9.69-18.24 4.7-37.23 3.75-55.88 3.95-15.32-.14-30.66.25-45.97-.49-10.95-1.06-23.59-1.84-31.34-10.76-7.86-9.43-5.87-22.49-7.57-33.82 13.65 1.19 27.37.49 41.05.72-.49 3.97-.46 8.35 1.73 11.85 3.13 3.14 8.03 2.69 12.11 3.1 16.98.17 33.98.16 50.96-.03 4.34-.41 9.54.16 12.77-3.41 4.2-4.42 3.76-13.6-2.35-16.13-4.6-1.71-9.6-1.5-14.42-1.9-20.64-.59-41.34.19-61.94-1.5-9.88-1.39-20.73-1-29.18-7.12-7.43-5.46-9.38-15.41-9.3-24.1.2-10.77-1.49-22.44 4.23-32.18 4.3-8.17 13.52-12.01 22.15-13.63zm429.46-1.61c10.5-.59 21.03-.17 31.55-.28 17.57.03 35.15-.02 52.72.09 11.64.58 23.95 2.3 33.62 9.34 7.85 5.74 11.75 15.34 13.11 24.7 1.46 10.79 1.01 21.72 1.17 32.58-.32 12.36.68 24.98-2.65 37.03-1.93 7.83-6.9 14.97-13.86 19.13-9.49 6.09-21.06 7.56-32.09 8.15-22.68.3-45.37.24-68.05.09-10.72-.04-21.52-.71-31.93-3.44-9.52-2.9-18.09-9.76-21.86-19.12-3.89-8.74-3.78-18.46-3.83-27.83-.1-13.7-.16-27.4.11-41.1.1-9.9 3.56-19.93 10.16-27.39 8.28-8.44 20.51-10.82 31.83-11.95m19.89 32.76c-6.66.87-15.13 1.66-18.56 8.38-4.72 9.73-3.31 20.85-3.52 31.3.33 6.57.4 13.83 4.4 19.38 5.61 6.23 14.73 5.79 22.4 5.83 16.32-.71 32.65-.28 48.98-.41 5.16-.01 10.62-1.77 14.06-5.78 2.17-2.41 2.52-5.8 3.01-8.87 1.17-9.46 2.11-19.07.71-28.57-.8-5.71-1.29-12.31-5.99-16.33-5.51-4.62-13.16-4.66-19.97-4.98-15.17-.1-30.35-.33-45.52.05zm467.27-24.74c8.99-5.98 19.99-7.62 30.56-8.2 16.31-.2 32.62-.09 48.94-.09 10.34.2 20.75-.5 31.03.99 9.61 1.1 19.67 2.98 27.5 9.08 4.21 3.11 6.51 8.09 7.88 13.02 2.28 8.36 2.41 17.08 3.03 25.67-13.31-.49-26.65-.46-39.96-.07-.44-4.31.77-10.3-3.76-12.8-6.32-3.48-13.85-2.75-20.8-2.99-12.58.05-25.18-.3-37.75.2-6.27.74-13.69 1.6-17.65 7.18-3.82 4.93-4.05 11.46-3.92 17.42.22 8.69-.18 17.42.72 26.08.38 4.14 1.98 8.64 5.89 10.67 5.35 3.25 11.73 3.31 17.79 3.12 15.3-.09 30.61-.02 45.92-.06 4.67.13 9.72-1.4 12.75-5.15 2.39-3.53 2.13-8.03 2.55-12.1 13.03.18 26.06-.11 39.1-.16-.14 8.16-.25 16.32-.93 24.46-1.03 7.8-5.79 15.01-12.51 19.09-9.18 5.78-20.36 7.14-30.98 7.43-24.29.02-48.59.34-72.87-.06-12.11-1.02-25.34-2.18-35.09-10.24-5.7-4.41-9.14-11.11-10.74-18.02-2.78-11.1-2.54-22.65-2.61-34.01.1-12.33-.5-24.76 1.6-36.97 1.81-9.11 6.11-18.47 14.31-23.49zm-760.11-6.82c20.36.08 40.73.06 61.09-.06 6.47 14.94 14.99 28.88 22.41 43.36 6.73 13.11 14.36 25.76 20.19 39.31 3.4-5.3 5.58-11.24 8.62-16.73 6.6-12.09 12.98-24.3 19.54-36.41 5-9.73 10.74-19.11 14.83-29.28 20.36-.26 40.72-.08 61.08-.09-.02 42.77-.16 85.55.14 128.32-12.57-.63-25.19-.58-37.77-.26-.18-31.23.23-62.48.03-93.7-4.48 5.77-6.4 12.97-10.08 19.22-10.99 19.73-22.01 39.44-32.92 59.22-2.81 4.89-5.52 9.85-7.62 15.08-10.29-.09-20.59.1-30.86-.18-12.02-23.23-25.18-45.89-37.75-68.84-3.43-6.09-6.89-12.17-9.66-18.59-.81-1.9-1.9-3.66-3.08-5.33-.43 4.38-.11 8.79-.11 13.18.49 26.71-.09 53.43.29 80.14-12.74-.55-25.53-.69-38.27-.05 0-42.77.39-85.54-.1-128.31zm418.69.02c49.58.08 99.16 0 148.74-.1-.5 10.74-.32 21.5-.2 32.25-18.43-.31-36.87-.58-55.3-.41.32 32.13.3 64.27.38 96.4-13.08-.31-26.16-.47-39.24-.41.22-32.02.2-64.04.23-96.06-18.2-.08-36.42-.02-54.6.65.27-10.76.41-21.55-.01-32.32zm164.05.02c46.56-.04 93.12-.04 139.67-.01-.34 10-.29 20.02-.2 30.03-33.39-.53-66.79.02-100.18-.46-.18 6.66-.21 13.33.04 19.98 31.76.02 63.52-.07 95.28-.14-.33 9.14-.24 18.29-.11 27.43-31.8-.27-63.59-.46-95.39-.37-.1 6.74-.16 13.49.13 20.23 34.07.15 68.14.28 102.21-.21 0 10.58.03 21.18.49 31.75-47.32-1.17-94.67-.73-142.01-.53.28-42.57.26-85.14.07-127.7zm-995.07 59.37c4.86-4.04 9.87-7.93 14.14-12.61-1.94 14.5.61 29.39-2.97 43.72-2.49 12.56-9.85 24.44-21.05 30.96-9.64 6.2-20.98 8.8-32.16 10.46-7.01.97-14.09.68-21.13 1.17-12.58.93-25.25-.44-37.8 1.09 5.33-4.39 11.24-7.99 16.85-12.01 17.09-12.15 34.16-24.35 51-36.87 11.2-8.42 22.51-16.73 33.12-25.91z" fill="#7d7e7d"/><path d="m143.48 302.61c6.6-3.59 13.16-7.29 19.18-11.8-2.16 7.94-3.01 16.15-4.7 24.2-1.68 12.88-5.37 25.59-5.1 38.67-5.15-4.99-10.9-9.32-15.89-14.48-8.1 13.17-17.16 26.03-22.03 40.86-2.54 6.69-3.6 13.84-4.07 20.95.46 7.3 2.19 14.73 6.45 20.8 5.55 8.16 14.78 13.63 24.54 14.91 8.06 1.79 16.4 2.26 24.56.86 15.78-1.68 31.34-5.08 46.54-9.61 42.83-12.86 83.72-31.32 123.81-50.97 18.86-9.36 37.58-19.01 55.97-29.26 16.91-8.78 33.35-18.42 49.68-28.24 3.3-2.01 6.64-4.02 10.29-5.38-2.39 3.88-6.72 5.71-10.09 8.55-30.8 23.16-62.24 45.5-94.9 65.98-33.4 21.04-68.58 39.36-105.45 53.52-22.68 8.74-45.9 16.32-69.76 21.07-16.96 2.99-34.33 5.59-51.54 3.18-9.57-.84-19-3.97-27.01-9.33-13.13-9.21-19.6-26.41-16.89-42.08 1.38-7.65 3.53-15.17 6.65-22.29 10.07-23 25.4-43.33 42.66-61.41-6.09-2.55-11.8-5.91-17.63-9.01 2.74-2.32 6.15-3.55 9.24-5.3 8.64-4.54 17-9.58 25.49-14.39zm1039.88 95.58c2.98.01 5.98.02 8.98.02-.28 14.01.01 28.02.11 42.04-2.99.11-5.96.24-8.93.35-.28-14.13-.22-28.27-.16-42.41zm17.23.04c3.08.03 6.18-.19 9.27.15 5.74 8.54 10.55 17.72 15.51 26.74.09-8.98-.3-17.95-.16-26.93 3.07-.01 6.15-.02 9.24-.06-.14 14.04-.17 28.08-.02 42.12-3.18.01-6.35.02-9.51-.05-5.47-8.35-9.78-17.42-15.6-25.52.2 8.57.29 17.14.4 25.71-2.99 0-5.98.03-8.95.09-.39-14.08-.33-28.17-.18-42.25zm42.05-.11c6.12.05 12.24-.05 18.37.14 6.82.13 13.62 4.61 15.61 11.29 1.53 5.28 1.42 10.91.81 16.34-.67 6.06-5.09 11.52-10.9 13.35-7.88 1.28-15.89.8-23.83 1.09-.24-14.07-.05-28.14-.06-42.21m8.96 9.39c.18 8.09-.02 16.19.02 24.28 3.99-.44 8.12-.2 11.99-1.43 3.74-2.35 4.84-7.17 4.78-11.31-.12-3.89-1.16-8.4-4.7-10.57-3.86-1.43-8.07-.98-12.09-.97zm31.15-9.66c3.36.02 6.72-.01 10.1-.11-.34 8.08-.09 16.16-.09 24.24.16 3.23-.05 7.21 2.81 9.41 2.45 1.48 5.74 1.66 8.39.61 3.31-1.73 2.99-5.86 3.21-9.03-.04-8.28.07-16.56.04-24.84 3.33.03 6.66-.1 10-.37-.52 9.69-.39 19.4-.67 29.1-.08 4.26-1.19 9.17-5.24 11.38-6.07 3.37-13.52 2.72-20.03 1.22-4.69-1.1-7.03-6.05-7.49-10.45-1-10.36.15-20.82-1.03-31.16zm50.51.41c7.92-2.36 16.22.68 22.39 5.74-1.36 2.52-3.14 6.1-6.56 5.67-3.87-1.65-7.68-4.89-12.17-3.66-2.19.29-3.55 2.06-4.51 3.87.32.66.95 1.97 1.27 2.63 6.23 2.58 13.44 2.08 19.34 5.5 6.91 4.53 5.56 15.88-1.41 19.72-9.5 5.59-21.77 2.67-30.2-3.6-.16-3.76 2.58-6.18 5.34-8.21 4.08 2.79 7.74 6.91 13.11 6.89 3.86.85 9.09-2.37 7.43-6.77-6.56-3.19-14.72-2.23-20.86-6.53-3.8-2.89-3.5-8.17-2.9-12.38.87-4.74 5.6-7.33 9.73-8.87zm24.43-.08c10.65.14 21.3.06 31.95.15.11 2.97.11 5.94-.08 8.91-3.76-.11-7.51-.1-11.26-.04.04 10.99.03 21.97.19 32.96-3.07.01-6.13.06-9.17.17-1.27-10.95.09-21.99-.02-32.98-3.86-.9-7.79-.06-11.67.01-.05-3.06-.02-6.12.06-9.18zm36.02.31c5.75-.27 11.51-.29 17.28-.21 5.07.1 10.56 1.73 13.83 5.86 2.85 4.13 3.11 9.92.57 14.28-1.3 2.8-4.19 4.2-6.7 5.7 3.39 5.35 7.02 10.56 10.18 16.05-3.82-.26-7.89.68-11.52-.68-3.04-4.31-5.28-9.15-8.54-13.31-1.27-1.75-3.75-.7-5.55-1-.05 5-.06 10.01.19 15.01-3.21 0-6.41.03-9.59.05-.35-13.92-.07-27.83-.15-41.75m9.47 8.87c-.01 2.98.01 5.96.07 8.95 4.37-.14 8.99.66 13.18-.92 2.23-2.61.71-7.11-2.49-8.14-3.51-1.06-7.21-.11-10.76.11zm29.4-8.99c3.2-.05 6.4-.08 9.61-.12-.03 13.97.06 27.94-.05 41.92-3.14.03-6.28.05-9.41.05-.11-13.95.05-27.9-.15-41.85zm26.62-.03c4-.15 8.01-.15 12.03-.03 4.16 14.06 9.58 27.73 13.33 41.92-3.39 0-6.78.01-10.16.11-.8-2.92-1.48-5.87-2.17-8.82-4.83-.1-9.64.05-14.45.25-.58 2.71-1.11 5.44-1.51 8.18-3.54.3-7.08.32-10.62.25 4.12-14.08 9.49-27.76 13.55-41.86m1.02 25.46c3.16.05 6.33.06 9.5.02-1.53-5.03-2.76-10.16-4.54-15.11a170.57 170.57 0 0 1 -4.96 15.09zm28.42-25.63c3.04.01 6.09-.01 9.15-.04-.06 11.12-.02 22.25-.09 33.37 5.59-.38 11.23.08 16.79-.84.03 3.24.15 6.48.39 9.72-8.71-1.3-17.52.24-26.27-.05-.08-14.05-.35-28.11.03-42.16zm52.74 2.2c8.29-5.16 20.6-3.41 26.38 4.71 2.24 3.68-1.62 6.85-4.4 8.67-2.11-3.22-4.63-6.57-8.43-7.83-3.53-.78-7.8-.11-10.03 2.98-3.95 5.47-4.47 13.3-1.13 19.19 1.59 2.96 4.85 4.91 8.25 4.74 4.77.49 7.9-3.76 10.86-6.78 2.41 1.53 4.52 3.49 5.87 6.06-3.26 5.36-9.45 8.61-15.68 8.6-5.25-.03-11.12-.79-14.92-4.79-4.41-4.79-6.38-11.52-6.04-17.95.01-6.84 3.2-14.07 9.27-17.6zm43.9-1.9c7.51-2.35 16.51-.5 21.83 5.51 3.73 4.02 4.81 9.71 5.1 15.01.29 7.08-2.37 14.77-8.56 18.73-6.37 3.85-14.6 3.93-21.37 1.09-5.39-2.42-8.63-8.03-9.52-13.69-1.01-6.31-.72-13.17 2.55-18.81 2.11-3.82 5.94-6.37 9.97-7.84m2.13 8.23c-4.63 2.59-6.06 8.35-5.89 13.29.13 4.65 1.74 10.02 6.25 12.19 3.91 1.41 9 .84 11.62-2.71 4.29-5.89 4.55-14.88-.15-20.61-2.7-3.52-8.05-4.09-11.83-2.16zm41.96-8.23c5.67-1.81 12.21-1.31 17.36 1.79 13.34 7.82 13.55 30.84-.31 38.22-5.19 2.93-11.58 2.92-17.18 1.34-5.51-1.46-9.86-6.1-11.52-11.47-2.16-6.65-1.98-14.19 1.01-20.56 2.03-4.44 6.14-7.63 10.64-9.32m2.96 7.94c-2.52.95-4.16 3.3-5.1 5.71-2.41 5.46-2.05 12.25 1.51 17.14 3 4.31 10.05 5.01 13.76 1.25 5.06-4.61 5.44-12.67 2.86-18.66-2.04-4.93-8.07-7.72-13.03-5.44zm30.28-8.21c3.26 0 6.53.01 9.81-.01-.05 11.11-.13 22.21.01 33.32 5.15.04 10.31-.33 15.48-.16.54 2.78.29 5.64.33 8.46-8.56.54-17.14.24-25.71.51-.31-14.04-.19-28.09.08-42.12zm31.1.07c3.15-.01 6.32-.02 9.49-.08-.03 13.99-.01 27.98.06 41.97-3.14.04-6.28.09-9.4.12-.26-14-.08-28.01-.15-42.01zm17.15.02c3.18.09 6.49-.49 9.63.26 5.23 8.03 9.51 16.69 15.15 24.46.01-8.21 0-16.42-.09-24.63 3.22-.09 6.45-.14 9.69-.22-.11 14.01-.08 28.01.02 42.02-3.35-.16-6.81.44-10.05-.45-5.19-7.85-9.71-16.17-14.92-24.01-.01 8.14.2 16.28.25 24.42-3.06.03-6.12.09-9.15.2-.59-14.01-.71-28.03-.53-42.05zm44.57 6.17c6.94-8.55 20.95-9.28 28.95-1.81 2.05 1.54 2.73 4.09 3.36 6.46-2.18.92-4.27 2.69-6.71 2.52-2.54-1.28-3.71-4.48-6.57-5.3-4.83-1.98-10.64 1-12.37 5.8-2.01 5.14-2.09 11.39.65 16.3 3.02 6.29 13.31 5.96 16.68.15.47-1.32.05-2.75.07-4.11-3.67.1-7.3.62-10.92 1.05-.12-3.14-.08-6.29.04-9.42 6.39.16 12.79.2 19.2.07.05 8.44-.13 16.89-.35 25.33-2.94-.58-7.1-.49-7.43-4.42-3.97 2.29-8.4 4.32-13.1 3.52-5.78-.32-10.83-4.13-13.39-9.21-4.53-8.36-3.86-19.33 1.89-26.93z" fill="#2c7caa"/></svg>