<svg height="1123pt" viewBox="117.92 175.67 886.17 769.88" width="1123pt" xmlns="http://www.w3.org/2000/svg"><path d="m749.49 177.78c44.44-2.11 89.63.68 132.47 13.36 30.82 9.21 60.78 24.11 83.21 47.62 13.79 14.4 24.19 32.08 29.73 51.25 8.72 29.68 6.17 61.66-2.71 90.99-1.34 4.01-2.28 8.22-4.2 12.01-2.02 2.34-6.19-.14-4.85-3.06 4.74-16.18 7.29-33.18 5.62-50.04-1.54-17.41-7.93-34.33-18.3-48.4-16.81-22.99-41.95-38.35-68.01-48.83-38.57-15.31-80.17-21.37-121.43-23.24-51.87-2.11-103.85 2.79-154.84 12.25-78.23 14.81-154.79 39.63-225.82 75.76-67.88 34.54-130.58 79.53-184.06 133.82-1.74 2.16-5.2 2.78-7.26.73-2.01-1.73-1.83-4.68-.65-6.82 14.72-33.51 29.43-67.01 44.11-100.53.75-1.87 2.13-4.15 4.5-3.82 2.6.03 4.29 2.73 4.1 5.14.1 12.69-.06 25.39.06 38.09-.38 3.14 3.37 6.82 6.26 4.38 69.62-59.71 149.68-106.72 234.39-141.57 78.84-32.15 162.4-54.59 247.68-59.09z" fill="#29fc92"/><path d="m749.32 394.18.66-.55c5.28-.1 10.68-.59 15.89.29.89 7.67.13 15.48.38 23.2 9.56.11 19.14-.19 28.7.12.25.2.77.6 1.02.79.26 6.26.31 12.57-.03 18.82-.28.19-.85.57-1.13.76-9.51.36-19.04.02-28.56.14.02 18.75-.04 37.5.02 56.25-.12 5.11 2.57 10.59 7.76 12.12 6.76 1.84 13.86.05 20.48-1.61.99-.52 2.68-.03 2.51 1.34.3 6.11 0 12.24.11 18.36-9.08 4.08-19.35 5.04-29.18 4.22-7.9-.75-15.98-3.97-20.87-10.46-5.4-7.07-6.82-16.27-6.84-24.94.01-18.43.01-36.85.01-55.28-4.56-.18-9.18.41-13.69-.3-1.37-3.22-.53-7.07-.66-10.53-.5-2.15 1.68-2.88 3.15-3.76 4.19-2.21 8.35-4.46 12.53-6.68 2.68-7.4 4.82-15 7.74-22.3zm-615.07 33.14c12.08-11.23 29.76-13.43 45.53-11.63 7.56 1.07 15.43 2.58 22.01 6.62-.32 4.35-2.81 8.27-4.04 12.43-1.28 2.77-1.61 6.23-3.8 8.43-10.29-3.19-21.17-7.69-32.08-4.55-8.17 2.04-13.65 9.61-15.47 17.51-2.46 10.61-2.52 21.91.16 32.49 1.95 7.82 7.67 15.12 15.83 16.88 11.06 2.17 22.69-.41 32.6-5.53 1.29-.4 2.76-1.84 4.09-.7.74 7.27 0 14.62.37 21.93-8.02 5.45-17.89 7.22-27.43 7.47-13.91.66-29-2.36-39.17-12.51-11.54-11.41-14.93-28.43-14.75-44.1-.09-16.07 3.86-33.51 16.15-44.74zm207.56-2.54c6.75-5.64 15.51-8.24 24.14-9.17 15.03-1.54 30.56.8 44.28 7.19 2.76 1.16.12 4.19-.33 6.1-2.56 4.68-3.46 10.59-7.02 14.48-10.59-3.77-21.54-8.15-33.04-6.99-4.06.43-9.1 1.22-11.17 5.23-1.77 3.99.65 8.49 4.2 10.53 11.98 7.34 26.25 10.09 37.89 18.08 5.75 3.99 10.34 9.93 11.71 16.89 2.24 10.77-.07 23.2-8.51 30.81-9.67 8.75-23.36 10.75-35.93 10.81-11.85-.19-24.27-1.28-34.87-7.02-.99-7.28-.13-14.79-.4-22.15 1.42-.25 2.89-.2 4.2.52 11.88 5.34 25.02 8.9 38.13 7.4 3.88-.53 8.09-1.52 10.78-4.58 3.37-4.06 2.18-10.8-2.33-13.55-12.24-8.6-27.77-10.98-39.74-20.11-14.13-9.8-15.37-33.51-1.99-44.47zm115.37 4.61c6.64-9.02 17.79-13.76 28.79-14.19 9.35-.33 19.33 1.08 27.06 6.74 3.39 2.37 5.91 5.73 8.09 9.2 5.77-8.48 15.28-13.96 25.36-15.41 8.04-1.13 16.41-.71 24.18 1.79 6.2 2.01 11.82 6.06 15.18 11.7 4.9 7.98 6.07 17.58 6.15 26.76.03 22.36-.01 44.72.02 67.08-.19 1.23.42 3.14-1.23 3.57-7.6.27-15.23.11-22.83.07-1.57.23-2.02-1.47-1.82-2.66-.02-21.34 0-42.68 0-64.02-.11-6.08-.6-12.7-4.43-17.71-3.19-4.15-8.78-5.36-13.75-5.1-6.13.03-12.68 2.17-16.4 7.3-4.48 6.2-5.45 14.12-5.76 21.56-.14 19.65.08 39.31-.1 58.96.13 2.03-2.32 1.7-3.65 1.74-7.41-.21-14.86.4-22.24-.38-.13-22.82 0-45.64-.06-68.45-.13-5.14-.86-10.54-3.75-14.91-2.39-3.62-6.7-5.49-10.92-5.73-5.53-.4-11.49.38-16.04 3.8-3.78 2.8-5.98 7.19-7.23 11.63-2.19 7.88-2.23 16.14-2.18 24.26 0 15.69.02 31.39 0 47.08.05 1.04-.16 2.88-1.67 2.62-8.05-.03-16.15.44-24.18-.31-.01-35.82-.09-71.64.04-107.45-.33-1.95 1.84-1.76 3.1-1.81 5.38.01 10.75-.08 16.13.05 1.61-.3 1.65 1.77 2.06 2.78.77 3.13 1.38 6.29 2.08 9.44zm198.36-13.63c14.46-1.96 30.35.36 41.83 9.95 11.96 9.71 17.8 25.16 18.58 40.23 1.07 17.08-2.08 35.85-14.38 48.63-11.01 11.72-28.11 15.45-43.64 13.81-13.63-1.27-26.82-8.38-34.5-19.85-10.01-14.67-11.7-33.47-9.14-50.63 2.06-13.9 9.17-27.61 21.35-35.16 5.99-3.82 12.9-6.03 19.9-6.98m2.95 21.97c-6.38 1-11.96 5.36-14.53 11.26-4.81 10.6-4.8 22.72-3.42 34.07 1.16 8.66 5.11 18.14 13.73 21.66 9.43 3.67 22.02 2.62 28.56-5.87 5.93-7.9 6.72-18.26 6.79-27.8-.21-9.38-1.24-19.68-7.63-27.06-5.78-6.54-15.35-7.72-23.5-6.26zm167-11.2c9.26-8.47 22.16-11.84 34.49-11.36 9.6.24 19.38 2.83 27.11 8.72 7.52 5.62 12.82 13.93 15.31 22.95 2.82 9.77 2.44 20.05 2.27 30.1.24 2.11-2.25 1.9-3.64 1.95-22.07-.02-44.14-.02-66.21-.01.63 9.19 3.89 19.18 12.14 24.25 9.92 6.06 22.17 4.22 33.06 2.5 1.9-.94 3.39 1.92 1.87 3.04-5.28 5.13-10.96 9.85-16.51 14.68-3.37 3.02-7.82 4.9-12.38 4.67-14.59-1.12-28.65-9.23-36.3-21.82-7.61-12.23-9.24-27.2-8.13-41.3 1.01-14.17 6.09-28.72 16.92-38.37m21.83 11.74c-7.59 3.94-10.85 12.59-11.99 20.59 14.63.03 29.27.01 43.91 0-.51-6.48-2-13.49-7.02-18.04-6.63-6.01-17.11-6.35-24.9-2.55zm115.18-22.49c13.95-1.58 28.87-.29 41.39 6.43.2 2.4-1.18 4.58-1.87 6.82-1.88 4.53-3.16 9.33-5.34 13.73l-.85.39c-10.45-3.43-21.75-7.85-32.79-4.23-8.16 2.46-13.16 10.42-14.8 18.39-2.06 9.89-2.11 20.28.14 30.14 1.77 7.94 7.08 15.7 15.31 17.83 12.42 3 25.23-.98 36.32-6.53.34.24 1.01.7 1.34.93.27 7.16.27 14.36 0 21.52-9.57 6.81-21.97 7.67-33.37 7.49-13.59-.25-27.84-5.18-36.34-16.26-10.45-13.32-12.19-31.19-11.16-47.53.96-15.11 6.53-30.99 19.12-40.26 6.63-5 14.72-7.77 22.9-8.86zm-699.25.4c9.65-2.2 19.85.53 28.46 5.01 14.77 7.99 23.31 24.33 24.89 40.66 1.85 17.88-.59 37.79-13.03 51.67-10.25 11.72-26.56 16.08-41.68 15.1-13.4-.6-26.78-6.52-35.22-17.12-9.6-11.84-12.89-27.6-12.36-42.55.11-6.98 2.85-13.92 7.77-18.91 9.52-9.46 19.39-18.58 29.45-27.47 3.34-3 7.34-5.3 11.72-6.39m-3.83 21.56c-5.04.91-9.82 3.72-12.62 8.08-4.85 7.41-5.85 16.55-6.03 25.19.04 8.34.71 17.06 4.7 24.55 2.72 5.21 7.74 9.14 13.51 10.37 8.25 1.79 18.09.66 23.97-5.99 6.37-7.35 7.43-17.61 7.68-26.94-.01-9.79-.79-20.53-7.16-28.48-5.69-7-15.65-8.31-24.05-6.78zm237.72 414.63c1.57-.01 3.15 0 4.73.01-5.01 23.42-9.99 46.84-15.02 70.25-1.58-.02-3.16-.02-4.72-.01 5-23.42 10-46.83 15.01-70.25zm258.29 0c1.56 0 3.14-.01 4.73.01-5 23.41-10.01 46.83-15.01 70.25-1.59-.02-3.17-.02-4.74-.01 5-23.41 10.01-46.83 15.02-70.25zm-238.1 3.84c1.65-1.47 5.33-.93 5.18 1.78.37 2.5-1.67 5.62-4.48 4.95-3.2-.53-2.77-5.12-.7-6.73zm340.05.12c1.43-1.41 4.85-1.3 5.28 1.06.66 2.68-1.51 6.38-4.61 5.52-2.95-.73-2.53-4.93-.67-6.58zm-29.19 5.42h3.19c-.84 3.91-1.68 7.82-2.52 11.74 4.72.01 9.44 0 14.16.01-.29 1.28-.58 2.57-.85 3.88-4.72-.01-9.44-.01-14.15-.01-2.3 10.84-4.69 21.67-6.91 32.53-.54 2.98-1.02 7.19 2.15 8.93 3.3 1.43 6.93.21 10.29-.38-.02.97-.05 2.9-.06 3.87-4.79 1.24-10.58 2.32-14.8-.98-3.39-2.88-2.93-7.83-2.29-11.77 2.24-10.74 4.56-21.46 6.83-32.19-2.46-.01-4.92-.01-7.36-.01.15-.69.47-2.07.63-2.76 2.53-.51 5.06-1 7.61-1.5 1.35-3.79 2.72-7.57 4.08-11.36zm-636.73 11.93c5.59-1.64 12.11-1.55 17.09 1.78 4.7 3.17 7.05 8.92 7.2 14.45.37 9.34-2.11 19.23-8.51 26.27-6.38 7.16-17.77 9.51-26.29 4.99-6.99-3.94-8.64-12.84-7.85-20.2.7-11.37 6.85-23.69 18.36-27.29m1.87 3.77c-11.02 3.41-15.55 15.98-15.58 26.55-.19 5.2 1.42 11.26 6.35 13.88 6.26 3.12 14.29 1.29 19.04-3.71 5.65-5.84 7.64-14.22 7.84-22.11.11-4.49-.93-9.44-4.44-12.53-3.55-3.17-8.83-3.31-13.21-2.08zm107.06-3.94c3.37-1.34 7.04-.79 10.52-.25-.33 1.42-.66 2.84-.98 4.29-4.94-1.2-10.35-.34-14.18 3.16-6.93 5.71-9.94 14.62-11.38 23.2-1.31 6.24-2.63 12.47-3.94 18.7-1.58 0-3.16-.01-4.73.02 3.45-16.38 6.98-32.74 10.45-49.12 1.32-.01 2.64-.02 3.96-.01-.66 3.84-1.32 7.69-2.06 11.53 3.26-4.6 6.9-9.43 12.34-11.52zm51.2 2.05c7.16-4.12 16.09-3.58 23.63-.83-.45 1.37-.88 2.78-1.31 4.18-6.03-2.39-13.21-3.35-19.12-.11-7.08 3.8-10.93 11.67-12.19 19.33-.75 5.16-1.08 10.9 1.8 15.53 2.19 3.65 6.43 5.73 10.64 5.74 4.43.27 8.7-1.19 12.74-2.84-.02 1.44-.04 2.88-.05 4.34-5.77 2.46-12.34 3.51-18.47 1.83-4.95-1.34-9.06-5.25-10.73-10.08-1.89-5.37-1.41-11.24-.38-16.73 1.63-8.13 6.03-16.2 13.44-20.36zm46.82-2.04c6.01-1.63 13.19-1.22 18.01 3.1 4.08 3.56 5.74 9.12 5.81 14.39.04 8.17-1.99 16.62-6.97 23.23-5.89 8.26-17.65 11.61-26.93 7.46-5.33-2.46-8.3-8.21-8.81-13.86-.7-8.47.99-17.36 5.77-24.48 3.08-4.65 7.72-8.33 13.12-9.84m.96 4.04c-10.8 3.62-15.17 15.97-15.22 26.44-.24 5.37 1.57 11.63 6.79 14.11 6.11 2.73 13.73 1.02 18.38-3.73 5.6-5.6 7.69-13.76 8.03-21.46.24-4.65-.65-9.81-4.16-13.16-3.64-3.45-9.26-3.6-13.82-2.2zm51.02-3.92c5.78-1.65 12.62-1.5 17.58 2.25 4.39 3.26 6.46 8.8 6.64 14.13.31 9.26-2.14 19.03-8.43 26.05-6.34 7.24-17.75 9.62-26.32 5.15-6.71-3.72-8.62-12.13-8-19.24.45-11.73 6.64-24.64 18.53-28.34m2.85 3.54c-5.08 1.1-9.34 4.66-11.98 9.05-3.58 5.89-4.85 12.95-4.62 19.78.13 4.62 2.04 9.68 6.37 11.91 6.05 2.96 13.79 1.37 18.53-3.33 5.73-5.56 7.91-13.79 8.22-21.56.24-4.55-.5-9.56-3.82-12.94-3.2-3.42-8.36-3.88-12.7-2.91zm81.36-3.8c1.37-.01 2.75-.02 4.14 0-.66 3.74-1.3 7.48-2 11.21 3.7-5.32 8.67-10.44 15.28-11.75 5.15-1 11.62-.22 14.67 4.58 2.67 4.37 1.86 9.76.89 14.51-2.2 10.23-4.38 20.47-6.59 30.7-1.65-.02-3.3-.02-4.94-.01 2.28-10.89 4.69-21.75 6.96-32.64.65-3.7 1.26-8.36-1.86-11.15-3.61-2.93-8.93-2.38-12.89-.47-7.38 3.73-12 11.43-13.85 19.28-1.88 8.31-3.57 16.67-5.43 24.99-1.64-.02-3.27-.02-4.9-.01 3.5-16.42 7.02-32.83 10.52-49.24zm52.61 4.87c4.19-4.47 10.75-6.32 16.74-5.39 6.62 1.37 13.42.54 20.13.77-.28 1.15-.56 2.32-.83 3.5-3.59.14-7.17.3-10.75.37 5.93 9.15 1.21 23.65-9.78 26.24-4.93 2.05-11.01-1.16-15.22 2.84-2.39 1.64-3.78 5.82-.79 7.59 3.78 1.89 8.22 1.3 12.29 2.02 4.87.66 10.48 2.27 12.85 7.01 2.11 5.1.7 11.47-3.4 15.19-4.88 4.66-11.9 6.05-18.42 6.36-5.71.18-12.06-.36-16.53-4.32-4.11-3.63-4.26-10.15-1.73-14.72 2.44-4.34 7.11-6.71 11.62-8.32-1.52-1.79-3.14-3.87-2.72-6.37.39-4.17 4.36-6.42 7.67-8.18-8.1-5.47-7.34-17.98-1.13-24.59m10.21-1.62c-8.63 1.68-12.96 12.54-9.23 20.12 2.51 4.7 8.79 4.99 13.33 3.56 7.5-2.44 10.93-11.94 8.16-18.98-1.99-4.63-7.78-5.86-12.26-4.7m-11.04 42.8c-4.21 1.19-8.53 3.46-10.6 7.5-1.74 3.43-1.75 8.24 1.33 10.94 3.29 2.71 7.78 3.18 11.89 3.18 5.43-.03 11.2-1.09 15.53-4.6 3.36-2.73 4.98-7.92 2.83-11.84-2.5-3.7-7.34-4.32-11.41-4.8-3.18-.22-6.41-.98-9.57-.38zm66.91-38.14c1.44-4.25 5.54-7 9.75-8 6.77-1.56 13.98-.51 20.27 2.35-.53 1.29-1.05 2.59-1.56 3.9-6.31-2.61-13.88-4.3-20.29-1.14-4.71 2.18-5.72 9.51-1.57 12.73 4.7 3.75 10.66 5.67 15.09 9.82 6.01 5.68 3.76 16.99-3.67 20.38-7.81 3.61-17.16 2.58-24.81-.97-.01-1.59-.02-3.16-.02-4.73 6.52 3.42 14.47 5.35 21.56 2.54 5.53-2.05 7.51-10.27 3.02-14.29-4.87-4.27-11.52-6.08-15.97-10.89-2.87-3.11-3.02-7.85-1.8-11.7zm56.09-7.84c5.37-1.37 11.53-1.19 16.25 2 4.43 2.95 6.83 8.24 7.17 13.45.57 8.57-1.31 17.54-6.3 24.64-5.71 8.65-17.68 12.39-27.22 8.27-5.35-2.36-8.45-8.05-8.98-13.69-.79-8.39.84-17.18 5.43-24.32 3.13-4.92 7.97-8.84 13.65-10.35m1.02 4.02c-10.64 3.3-15.24 15.27-15.5 25.53-.35 5.47 1.05 12.03 6.28 14.86 6.01 3.01 13.73 1.47 18.52-3.14 5.59-5.32 7.82-13.19 8.31-20.68.38-4.91-.24-10.45-3.9-14.09-3.54-3.55-9.14-3.81-13.71-2.48zm174.95-3.91c5.81-1.61 12.66-1.32 17.56 2.53 4.21 3.29 6.17 8.7 6.38 13.91.27 7.61-1.36 15.44-5.36 21.98-3.61 6-9.88 10.58-16.95 11.28-5.3.59-11.2-.23-15.19-4.06-4.88-4.59-5.74-11.81-5.2-18.15.69-11.51 7-24.06 18.76-27.49m1.06 4.02c-10.38 3.5-14.83 15.24-15.12 25.36-.37 5.41.97 11.86 6.05 14.78 6.15 3.3 14.24 1.57 19.07-3.31 5.62-5.6 7.71-13.76 8.05-21.48.24-4.69-.65-9.89-4.22-13.23-3.67-3.41-9.28-3.53-13.83-2.12zm40.83-4.21c1.36-.01 2.74 0 4.13.01-.67 3.78-1.3 7.57-2.04 11.34 3.72-5.52 8.9-10.76 15.72-11.96 4.66-.75 10.23-.22 13.49 3.6 3.33 4 2.83 9.65 1.9 14.43-2.25 10.61-4.53 21.22-6.81 31.84-1.66-.01-3.31-.02-4.94-.01 2.23-10.59 4.52-21.16 6.78-31.74.61-3.53 1.41-7.55-.57-10.78-2.12-3.15-6.4-3.67-9.86-3.1-6.14 1.12-10.96 5.8-14.11 10.96-3.62 5.75-4.5 12.6-5.95 19.1l-3.36 15.57c-1.65-.01-3.29-.02-4.91-.01 3.5-16.42 7.01-32.83 10.53-49.25zm52.58 1.47c7.58-3.79 16.66-2.41 24.25.66-.51 1.34-1.01 2.68-1.5 4.03-6.28-2.57-13.78-4.28-20.18-1.18-4.57 2.02-5.87 8.92-2.16 12.33 5.05 4.47 12.12 6.22 16.61 11.43 4.76 6.14 2.07 16.5-5.2 19.45-7.76 3.33-16.81 2.25-24.35-1.16-.03-1.61-.08-3.23-.09-4.82 6.55 3.45 14.58 5.44 21.69 2.55 5.44-2.03 7.44-10.11 3.08-14.14-5-4.52-12.08-6.26-16.49-11.5-4.2-5.59-1.99-14.63 4.34-17.65zm-847.33-1.35c1.59-.01 3.18 0 4.77.01 2.1 14.83 5.17 29.55 6.29 44.5 7.31-15.22 16.1-29.67 24.13-44.51 1.71-.01 3.42 0 5.13.01-10.92 19.49-21.86 38.97-32.79 58.46-2.62 4.47-5.49 9.29-10.27 11.74-3.61 1.85-7.8 1.35-11.61.53-.02-1.39-.05-2.77-.08-4.13 3.82.83 8.38 1.57 11.51-1.4 4.79-4.56 7.77-10.7 10.77-16.49-2.38-16.27-5.28-32.47-7.85-48.72zm100.59.01c1.59-.01 3.18-.01 4.78-.01-2.24 10.52-4.51 21.03-6.77 31.55-.72 3.83-1.62 8.44 1.07 11.75 3.27 3.45 8.85 3.1 12.92 1.41 7.95-3.66 12.94-11.85 14.79-20.17 1.79-8.17 3.49-16.35 5.26-24.53 1.56-.01 3.12-.01 4.69 0-3.48 16.38-7.02 32.75-10.51 49.12h-3.96c.68-3.85 1.34-7.7 2.11-11.52-3.62 5.15-8.24 10.19-14.54 11.86-4.76 1.09-10.52.87-14.22-2.71-3.67-3.77-3.41-9.55-2.49-14.34 2.16-10.83 4.62-21.6 6.87-32.41zm270.12 49.13c3.48-16.38 6.97-32.76 10.47-49.13 1.57-.01 3.14-.01 4.73 0-3.49 16.38-6.98 32.76-10.48 49.13-1.58-.01-3.16-.01-4.72 0zm268.01-49.13c1.59-.01 3.19-.02 4.8 0-2.24 10.48-4.5 20.96-6.76 31.45-.71 3.67-1.54 7.89.62 11.27 2.63 3.67 7.93 3.69 11.87 2.53 7.45-2.56 12.56-9.46 15.11-16.65 2.69-9.4 4.22-19.08 6.42-28.6 1.56-.01 3.12-.01 4.7.01-3.51 16.37-7.02 32.74-10.52 49.12-.99 0-2.97-.01-3.96-.01.69-3.87 1.36-7.73 2.11-11.57-3.76 5.47-8.78 10.82-15.57 12.15-4.9.86-10.96.28-14.11-4.05-2.89-4.08-2.33-9.38-1.43-14 2.18-10.57 4.52-21.09 6.72-31.65zm82.65 0c1.56-.01 3.14-.01 4.72.01-3.47 16.37-6.97 32.74-10.46 49.11-1.59-.01-3.17-.01-4.74.01 3.49-16.38 6.98-32.76 10.48-49.13z" fill="#2e3b5b"/><path d="m904.17 502.22c3.91-2.38 8.77 2.59 6.53 6.51-14.75 33.88-29.71 67.67-44.5 101.54-.78 1.77-1.94 3.9-4.17 3.89-2.74.1-4.63-2.64-4.49-5.18-.17-12.93.1-25.88-.11-38.81.13-3.22-4.06-6.04-6.57-3.39-43.36 37.32-91.02 69.53-141.16 97.03-56.84 31.08-116.94 56.26-179.07 74.63-46.53 13.67-94.31 23.46-142.67 27.48-44.66 3.58-90.09 2.56-133.89-7.53-31.14-7.27-61.79-19.39-86.87-39.61-14.46-11.68-26.77-26.19-35.12-42.84-9.1-17.86-13.45-37.93-13.7-57.92-.24-22.14 4.22-44.19 11.73-64.96.86-3.68 6.84-1.85 5.49 1.69-5.07 17.24-7.64 35.45-5.34 53.38 2.14 18.27 9.92 35.73 21.65 49.86 18.52 22.37 44.74 36.86 71.68 46.69 37.89 13.63 78.27 18.95 118.35 20.28 49.99 1.5 100.03-3.61 149.1-12.97a880.926 880.926 0 0 0 210.62-69.23c68.04-32.55 132.18-74.09 187.2-125.88 5.25-4.73 9.96-10.06 15.31-14.66z" fill="#21aba5"/></svg>