<svg height="2500" viewBox="201.2 46.45 440.44 501.93" width="1313" xmlns="http://www.w3.org/2000/svg"><path d="m434.05 66.45-212.85 120.11v239l212.85 122.82 207.59-120.35v-241.47zm-26.5 416.61-136-79.21v-154.79l136 77.01zm-108.5-281.39 134.35-77.51 135.65 78.15-134.35 77.52zm297.5 202.18-136 79.21v-156.99l136-77.01z" fill="#e62356"/><path d="m414.05 46.45-212.85 120.11v239l212.85 122.82 207.59-120.35v-241.47zm-26.5 416.61-136-79.21v-154.79l136 77.01zm-108.5-281.39 134.35-77.51 135.65 78.15-134.35 77.52zm297.5 202.18-136 79.21v-156.99l136-77.01z" fill="#71c6ca"/><path d="m424.05 56.45-212.85 120.11v239l212.85 122.82 207.59-120.35v-241.47zm-26.5 416.61-136-79.21v-154.79l136 77.01zm-108.5-281.39 134.35-77.51 135.65 78.15-134.35 77.52zm297.5 202.18-136 79.21v-156.99l136-77.01z" fill="#fff"/></svg>