<svg height="1176" viewBox="-.3 .5 3509.6 882.9" width="3508pt" xmlns="http://www.w3.org/2000/svg"><path d="m2951.7 3.1c-2.1 1.6-3.7 5.3-7.3 16.7-14.5 46-39.3 100-71.7 156.5-7.5 13-28.7 48.1-47.1 78-35.8 58.3-47 77.3-62.1 105.6-32.2 60.2-51.8 117.2-56.6 164.5-1.5 14.8-.7 47.2 1.6 61.1 18.7 117.8 115.5 206 233 212.4 60.9 3.3 117.2-13.9 166.5-50.7 21.8-16.3 45.7-42.7 61-67.2 7.4-11.7 19.2-36.4 23.5-48.9 13.7-40 17.4-84.1 10.5-124.6-5.9-34.7-19.6-75.7-38.4-115-19.4-40.7-34.3-66.8-87.5-152.8-58.8-95.2-87-151.5-107.8-215-5.9-17.7-6.8-19.9-9.4-21.2-3.7-2-5.1-1.9-8.2.6zm-513.2 149.9c-19.9 4-35.9 19.1-41 38.7-1.3 5-1.5 36-1.5 246.3 0 218.4.1 241.1 1.6 246.1 5.6 18.8 20.2 33.1 38.5 37.4 27.3 6.4 54.8-9.2 63.2-36l2.2-7v-483l-2.6-7.1c-1.4-3.9-4.3-9.6-6.3-12.7-11.6-17.4-33.8-26.7-54.1-22.7zm-806.2 35c-16.9 3.1-32 14.5-39 29.7-5.5 11.9-5.3 4.1-5.3 199.1 0 119.7.4 183.5 1.1 190 4.1 37.8 22.8 70.9 52.9 93.6 20 15.1 41.8 23.6 67.9 26.6 10.4 1.2 47.2-.2 65.7-2.5 24.3-3 45.2-8.4 55.2-14.2 11.3-6.7 21.5-21 24.2-34 1.7-8.2.8-22.4-1.9-29.5-10.3-26.9-38.4-40.3-66.8-31.9-16 4.8-57.2 8.6-68 6.3-7.2-1.5-13.8-5.5-18-11-6.6-8.6-6.3-3.9-6.3-116.9v-102.3h53.3c44 0 54.3-.3 59-1.5 18.4-4.8 31.7-19.4 34.9-38.3 4-23.6-11.8-47.1-35.3-52.7-5.3-1.2-15.6-1.5-59.1-1.5h-52.8v-31.8c0-34.4-.4-38.3-5.7-49.2-3.2-6.6-14.9-18.8-21.3-22-11.1-5.6-24-7.9-34.7-6zm-310.3 96.1c-32.4 4.2-63.1 17.2-86.2 36.6-37.5 31.6-52.7 80.7-40.3 130.4 9.3 37.2 33.2 65.6 69.6 82.8 19.1 9 34 13.4 85.9 25.1 29.9 6.8 42.9 12 50.5 20.1 4.2 4.5 6.5 9.7 6.5 15 0 8.1-7.5 19.1-15.9 23.4-10.2 5.1-15.8 5.9-40.6 6-20.5 0-24.1-.3-33.5-2.3-14.5-3.3-27-8.1-44-17-28-14.7-32.1-16.2-44-16.2-39.8.1-65.4 42.3-46.8 77.3 6.6 12.3 13 17.6 37.7 30.8 33.9 18.3 62.7 27.9 96.1 32.1 15.6 1.9 53.6 1.7 68-.5 39-6 67.6-19.3 90.6-42.2 24.6-24.6 36.7-54.1 36.7-90 0-16.6-1.9-28.6-6.9-43.5-10.8-32.3-35-59-68.9-75.8-19.5-9.7-36.4-14.9-83-25.2-12.6-2.9-26.4-6.3-30.5-7.7-18.9-6.2-27.9-16.1-26.7-29.3 1.2-13.8 11.4-22.7 29.7-26.2 16.8-3.2 52.2 2.9 85.7 14.8 31.3 11.1 30 10.7 40.3 10.7 15.8.1 27.7-5 38.3-16.2 12-12.8 16.8-29.2 13.7-46.2-1.7-9.4-8.1-20.8-15.5-27.8-7.9-7.3-11.9-9.4-31.2-16.5-36.9-13.4-60.3-19.4-88.8-22.6-10.5-1.2-37.1-1.1-46.5.1zm-1153.5 4.5c-1.6.2-6.6.9-11 1.5-19.4 2.6-43.9 11-62 21.1-53.8 30.2-88.4 83.5-94.4 145.2-1.4 13.9-1.4 87.6-.1 102.1 4.1 44.5 22.4 83.6 53.6 114.9 41.1 41.1 95.8 59.5 158.9 53.6 38.5-3.7 73.7-18.4 103.2-43.1 19.4-16.3 39.6-42.8 45.7-59.8 2.9-8.2 2.8-24.3-.3-33-9.1-25.8-35.8-40.7-61.9-34.6-14.4 3.4-24.5 11.2-35.2 26.9-13.1 19.3-28.1 30.5-49 36.2-9.1 2.5-39.7 2.7-48.5.2-10.6-2.9-17.2-5.8-24.8-10.8-17.2-11.2-28.2-26.5-34.5-48-2.4-8.4-3-87.8-.8-101 5.6-32.2 30.3-57.9 61.8-64.4 9.9-2 34.7-2.1 43.9-.2 21.8 4.7 40.4 18 52.1 37.4 6.7 11 15.5 20 23.6 24.1 30.8 15.5 66 0 75.7-33.4 2.4-7.9 1.7-23.7-1.4-31.5-5.5-14.3-19.1-33.1-36-50-28-27.7-59.4-44.1-99.3-51.6-8-1.5-51.8-2.8-59.3-1.8zm393 .8c-51.2 8.6-91.9 43-107.9 90.9-6.5 19.5-6.1 9.9-6.1 164.7 0 135.9.1 140.7 1.9 146.4 6.2 18.8 23.7 33.1 43.6 35.8 24.9 3.3 47.9-11.1 56.9-35.6l2.6-7.1.5-135c.5-126.4.6-135.2 2.3-138.5 3.1-6.4 7.6-10.8 14.3-14.1l6.4-3.2 13.8.6c15.7.7 25.8 2.3 41.6 6.8 18 5.1 30.1 4.3 44.1-3 12.7-6.6 23.2-20.1 26.6-34.1 5.6-23.9-6.5-49.2-28.4-59.5-12.2-5.8-32.7-11-55.2-14-15.9-2.2-47.1-2.8-57-1.1zm219.8 0c-18.5 4.5-34 19.7-38.8 38.1-1.8 7-2 18.7-.4 25.3.8 3.3 109.5 264.8 142.5 342.8 1.3 3.1 1.1 3.4-6.4 14.5-19.1 28.3-40.7 52.6-64.8 73.2-16.6 14-22.7 25.9-22.6 43.7 0 21.2 10.8 38.5 29.7 47.6 18.5 8.8 38.5 6.6 55.8-6.4 27.4-20.6 56.9-52.5 78.1-84.5 15.4-23.3 30-50.4 43.7-81.4 10.4-23.5 143.7-343.8 145-348.4 2-7.2 1.6-20.4-.9-28.4-11.1-36.4-56.4-49.3-85.4-24.5-2.6 2.2-6.4 6.6-8.5 9.8-2.5 3.8-20.5 46.6-53.8 128.4-27.5 67.5-50.3 122.8-50.6 122.8s-22.3-52.1-48.9-115.8c-26.5-63.6-50.5-120.3-53.1-126-3.8-8.2-6.1-11.5-11.1-16.6-12.9-12.9-32.2-18.4-49.5-14.2zm1271.3 4.6c-63.5 11.6-121.5 65.9-139.1 130.3-5.6 20.8-5.7 21.5-6.2 76.7-.5 53.9-.1 62.7 3.9 80.9 4.2 19.7 14.3 43.6 25.3 60.1 16 23.8 38.6 45.2 63 59.5 26.1 15.3 56.7 22.8 86.1 21.1 40.4-2.2 73.3-18 92.7-44.4 4.1-5.6 4.7-6.1 5.1-4 2.2 11.3 3.1 14.5 5.8 19.9 8.6 17.2 27.7 28.9 47.4 28.9 23.5 0 44.9-16.7 50.8-39.6 1.4-5.5 1.6-24.3 1.6-175.6 0-186.2.4-174.1-6.1-187-1.9-3.8-5.8-8.9-9.8-12.9-10.4-10.3-21.7-14.9-37.2-14.9-14.4 0-26.6 5-36.9 15.1-6.6 6.5-13.5 19.1-14.5 26.6-1.1 8-1.3 8.1-5.9 1.2-12.8-19.1-38.7-33.9-71.5-41-14.4-3.1-40-3.5-54.5-.9zm68.2 101.6c24.3 5 45.8 22.3 55.8 45.1 1.4 3.1 3.4 9.4 4.5 14 1.9 7.9 2 11.3 1.7 56.1-.3 46.9-.4 47.8-2.7 54.7-9.2 27.5-29.4 46.9-56.1 53.9-8.7 2.3-32.3 3.2-43 1.7-10-1.5-21.7-5.5-29.7-10.2-3.2-1.9-10.1-7.7-15.3-12.9-10.3-10.3-15.5-18.7-20.1-32.5-2.3-6.9-2.4-8-2.7-53.9-.3-40.3-.1-48.1 1.3-55 6.1-30 30.3-54.6 60.1-60.9 9.7-2.1 36.1-2.2 46.2-.1zm1254.7 107c-27.6 5.2-51.7 19.1-68 39.4-17.3 21.3-25.5 44.4-25.5 72 0 27.5 8.2 50.7 25.4 71.9 12.8 16 34.2 30.3 53.6 36.1 65 19.3 130.6-19.7 144.6-86 3.7-17.7 2-41.8-4.3-59.5-12.8-35.9-42-62.4-79.3-72.2-12.3-3.2-34.4-4-46.5-1.7z"/></svg>