<svg height="629" width="2500" xmlns="http://www.w3.org/2000/svg" viewBox="-0.76 0.37099999999999866 3514.3610000000003 881.4060000000001"><g fill="#0065cb"><path d="M2957.902.371c3.327.998 4.842 3.03 7.098 5.629 1.113 2.547 1.996 4.883 2.797 7.52l.71 2.201c.501 1.554.995 3.11 1.482 4.667 1.29 4.112 2.636 8.206 3.972 12.303l.798 2.461c12.502 38.49 30.043 75.836 49.743 111.138a631.553 631.553 0 0 1 4.572 8.452c7.623 14.29 15.717 28.259 24.054 42.14 1.705 2.84 3.404 5.685 5.099 8.532 6.596 11.063 13.344 22.029 20.145 32.967 4.307 6.928 8.597 13.867 12.887 20.806a5863.11 5863.11 0 0 0 3.564 5.751c10.141 16.352 20.062 32.823 29.831 49.399 2.326 3.944 4.67 7.876 7.03 11.8 9.88 16.53 18.657 33.602 27.286 50.81.966 1.925 1.934 3.848 2.904 5.772 23.375 46.607 45.039 100.79 45.33 153.539l.02 2.598c.018 2.757.024 5.513.026 8.269l.002 2.856c-.016 14.225-.554 28.018-3.252 42.019l-.488 2.727C3196.58 633.03 3180.333 670.496 3156 701l-2.172 2.754c-12.124 15.112-25.548 29.31-40.828 41.246l-2.945 2.39c-30.397 24.226-67.726 40.416-105.742 47.86l-2.333.458c-15.152 2.768-30.232 3.673-45.605 3.605l-2.643-.007c-14.089-.056-27.859-.662-41.732-3.306l-3.094-.586C2858.32 785.47 2815.147 761.217 2778 726l-2.285-2.156c-4.877-4.731-9.195-9.842-13.398-15.176a502.86 502.86 0 0 0-2.79-3.5c-8.942-11.134-16.468-22.766-23.527-35.168l-1.135-1.942C2701.574 611.084 2698.104 540.768 2714 478c7.745-29.342 18.392-57.641 31.547-84.971a853.778 853.778 0 0 0 4.23-8.978c5.765-12.326 11.997-24.324 18.634-36.201a1591.28 1591.28 0 0 0 4.862-8.803c7.79-14.12 16.013-27.946 24.444-41.688 2.575-4.198 5.135-8.404 7.685-12.617l1.094-1.806 2.174-3.59a3719.544 3719.544 0 0 1 23.905-38.876c24.66-39.611 48.43-79.782 69.425-121.47l.948-1.878c15.845-31.436 29.302-63.853 40.08-97.384l.953-2.948c.575-1.795 1.14-3.595 1.689-5.399 2.228-7.012 4.226-10.75 12.232-11.02zM2162.438 316.938A170.3 170.3 0 0 1 2167 321l2.648 2.441c5.02 4.82 8.972 9.475 12.352 15.559l.664-2.676c4.269-16.154 11.753-29.068 26.488-37.855 13.561-6.995 28.47-8.746 43.285-4.906 15.326 5.073 25.907 15.271 33.052 29.464 4.443 9.423 4.802 18.537 4.772 28.844l.011 4.193c.01 3.822.008 7.643.004 11.465-.002 4.129.007 8.258.014 12.387.013 8.082.015 16.164.012 24.246-.001 6.571 0 13.143.005 19.714l.001 2.837.004 5.706c.01 17.828.009 35.656.003 53.484-.006 16.297.006 32.594.025 48.89.02 16.748.027 33.495.024 50.242-.002 9.397 0 18.793.014 28.19.012 8 .014 16 .002 24-.006 4.079-.007 8.157.005 12.235.01 3.74.007 7.48-.007 11.22-.004 1.98.007 3.96.019 5.94-.098 16.176-4.648 30.302-15.979 42.126-11.593 10.806-25.267 15.826-41.027 15.496-13.37-.955-27.194-6.132-36.391-16.242-8.267-9.817-13.119-20.31-15-33l-1.434 2.09c-18.618 26.458-46.694 39.546-77.855 45.164-42.459 7.07-85.003-5.113-119.64-29.733-4.738-3.48-9.2-7.247-13.57-11.175a357.356 357.356 0 0 0-4.544-3.987C1932.867 649.207 1912.382 608.15 1907 566l-.265-2.062c-1.076-9.965-.92-19.976-.938-29.985l-.009-3.058c-.015-5.35-.024-10.7-.028-16.05-.006-5.455-.03-10.91-.058-16.367a3132.52 3132.52 0 0 1-.026-12.767c-.003-2.007-.01-4.015-.024-6.022-.254-41.24 10.116-81.452 35.348-114.689l1.95-2.586c5.3-6.816 11.135-13.133 17.05-19.414l1.871-2c49.914-51.71 140.768-70.385 200.567-24.063zM2041 413l-3.063 2.313c-12.429 11.37-23.14 29.37-24.037 46.61-.051 2.376-.07 4.75-.077 7.127l-.02 2.737c-.02 2.985-.031 5.97-.041 8.955l-.013 3.106c-.02 5.43-.035 10.862-.044 16.294-.011 5.575-.046 11.15-.085 16.726-.027 4.315-.035 8.63-.038 12.946a912.7 912.7 0 0 1-.035 6.16c-.13 15.118.978 28.71 8.203 42.338l1.04 2.012c3.088 5.795 6.774 10.828 11.21 15.676.59.682 1.18 1.364 1.79 2.066 12.729 13.84 31.54 21.78 50.068 23.238 3.988.132 7.965.171 11.954.133l2.124-.01c21.69-.164 40.787-5.459 57.064-20.427l2.36-2.117c15.435-14.555 22.39-34.124 23.64-54.883.147-5.442.165-10.881.168-16.324l.01-4.67c.006-3.246.008-6.493.007-9.74 0-4.109.014-8.219.031-12.329.011-3.211.013-6.423.013-9.634 0-1.513.005-3.026.013-4.538.038-8.003-.214-15.882-1.12-23.838l-.23-2.06c-2.524-20.095-13.889-38.321-29.704-50.742-16.171-11.357-32.232-15.849-51.731-15.646-2.455.021-4.908 0-7.363-.026-19.75-.036-36.884 5.55-52.094 18.547zM827 298c9.65 8.024 14.924 18.196 19.813 29.563l1.394 3.206c6.265 14.502 12.25 29.123 18.277 43.725 4.461 10.804 8.956 21.593 13.453 32.381l1.272 3.05a38273.302 38273.302 0 0 0 30.182 72.166 65467.9 65467.9 0 0 1 6.785 16.19 6637.49 6637.49 0 0 1 13.9 33.403c1.905 4.612 3.809 9.224 5.707 13.838l2.033 4.923.938 2.288c1.22 3.38 1.22 3.38 3.246 6.267 8.571-20.567 17.098-41.15 25.437-61.812a9052.64 9052.64 0 0 1 19.63-48.256l3.431-8.378c4.01-9.792 8.011-19.588 12.01-29.385l3.72-9.114c4.068-9.964 8.13-19.93 12.18-29.9 1.985-4.887 3.972-9.773 5.959-14.66.95-2.337 1.899-4.675 2.847-7.013 8.542-21.062 8.542-21.062 12.677-30.693l1.551-3.622c2.479-5.04 5.686-9.13 9.558-13.167l1.863-1.95c10.03-9.572 23.515-13.997 37.2-14.425 12.914.423 27.724 5.382 37.289 14.46 10.092 11.72 15.736 23.582 16.085 39.103l.14 2.365c.263 14.647-7.6 29.391-13.32 42.55-1.894 4.356-3.76 8.723-5.632 13.088l-1.17 2.723c-4.002 9.33-7.892 18.704-11.768 28.086a86625.683 86625.683 0 0 1-5.334 12.902c-4.369 10.562-8.767 21.111-13.166 31.66a1070520.166 1070520.166 0 0 0-7.639 18.325l-11.301 27.12L1070 534l-2.5 6-26.378 63.308a401359.143 401359.143 0 0 0-8.958 21.496c-3.772 9.05-7.541 18.1-11.297 27.157-31.206 75.231-65.4 155.336-131.426 207.094-2.42 1.928-4.673 3.966-6.941 6.07-9.817 8.753-21.196 14.87-34.5 15.875l-1.93.156c-14.125.621-27.75-4.28-38.383-13.468-10.924-10.505-17.59-22.114-18.03-37.477-.21-17.327 4.537-30.107 16.655-42.836 3.78-3.616 7.899-6.826 11.973-10.102 3.206-2.684 6.11-5.573 9.016-8.574C829 767 829 767 831.562 765c2.787-2.287 4.968-4.812 7.301-7.55 2.065-2.367 4.197-4.657 6.352-6.942 6.733-7.163 12.868-14.662 18.785-22.508l1.403-1.853c2.349-3.114 4.659-6.249 6.913-9.432 2.152-3.037 4.448-5.896 6.883-8.709 2.017-2.874 3.849-5.614 4.801-9.006-.56-2.822-1.145-4.731-2.297-7.29l-.86-2.083A426.475 426.475 0 0 0 878 683c-.612-1.46-1.222-2.92-1.828-4.382-1.614-3.868-3.26-7.722-4.916-11.572a4712.209 4712.209 0 0 1-5.623-13.148l-1.168-2.738c-4.032-9.464-7.974-18.965-11.903-28.472l-4.25-10.278-1.07-2.587a7286.508 7286.508 0 0 0-12.18-29.198l-1.13-2.697a87850.67 87850.67 0 0 0-5.666-13.52c-3.383-8.073-6.762-16.147-10.141-24.221a323523.513 323523.513 0 0 0-13.449-32.121 30764.618 30764.618 0 0 1-27.193-65.112 10540.81 10540.81 0 0 0-12.397-29.669C751.43 380.763 751.43 380.763 746 367.313l-1.186-2.912c-5.647-14.13-7.159-28.886-1.814-43.401 5.876-13.655 16.29-24.455 30-30.312 18.408-6.692 38.123-4.382 54 7.312zM1457.688 305.188l2.094.745c19.55 6.987 33.205 15.401 42.53 34.567 5.31 12.784 4.685 26.461.688 39.5-6.429 15.103-16.246 25.133-31.438 31.375-6.298 2.387-11.797 2.866-18.5 2.938l-2.65.087c-7.69.073-14.197-1.868-21.412-4.4l-3.08-1.06c-3.083-1.07-6.157-2.161-9.232-3.252-51.602-18.53-51.602-18.53-104.41-12.47-7.152 3.793-11.709 9.075-14.278 16.782-.906 7.531-.374 13.434 4.004 19.754 14.127 15.896 43.154 18.185 62.67 22.418 43.172 9.405 82.587 21.792 114.326 53.828.755.746 1.51 1.493 2.29 2.262 25.607 26.593 32.475 61.48 31.883 97.125-.179 7.815-1.05 15.077-3.173 22.613l-.7 2.488c-10.03 34.47-32.012 61.808-63.483 79.193-52.15 27.817-117.873 26.963-173.477 10.362-17.842-5.593-34.878-13.224-51.34-22.043l-2.705-1.43c-18.562-9.884-33.692-20.245-40.584-41.156-3.895-13.225-1.769-27.342 3.797-39.785 7.354-13.425 18.711-22.583 33.36-27.121 19.847-4.726 35.633 1.67 52.784 10.923 35.226 18.967 75.795 30.962 115.91 20.319 8.786-3.082 15.73-7.603 20.438-15.75 2.54-5.425 3.1-11.38 1.348-17.145-4.425-9.932-13.673-14.201-23.305-18.03-15.778-5.64-32.402-8.85-48.711-12.583-36.516-8.37-70.71-17.412-100.332-41.242l-2.46-1.934c-23.211-19.127-36.94-51.142-39.782-80.568-2.842-34.05 4.498-68.4 26.745-95.12 2.443-2.845 4.953-5.623 7.497-8.378l2.086-2.3c60.355-63.54 157.14-47.901 230.601-21.512zM316.785 330.258c4.052 3.673 7.956 7.481 11.82 11.351a176.347 176.347 0 0 0 4.43 4.286c10.138 9.59 18.001 21.05 25.027 33.043l1.373 2.327c7.55 13.265 9.77 28.084 6.44 43.048C361.669 438.704 352.103 450.685 339 458c-14.468 6.569-28.778 8.28-44 3-14.392-5.72-23.374-15.47-31.313-28.375-11.322-17.992-28.251-30.794-48.988-35.742-6.944-1.31-13.97-1.255-21.01-1.254-2.355-.004-4.708-.04-7.062-.078-21.172-.159-39.954 7.014-55.627 21.449-14.843 14.99-23.13 34.293-23.161 55.43l-.015 2.5c-.015 2.72-.022 5.44-.027 8.16l-.009 2.835c-.015 4.958-.024 9.916-.028 14.874-.006 5.083-.03 10.166-.058 15.25-.019 3.94-.024 7.881-.026 11.822-.003 1.871-.01 3.743-.024 5.614-.15 22.956 3.977 42.664 19.348 60.515l2.082 2.422c13.039 14.03 31.644 22.397 50.637 23.866 3.765.112 7.515.122 11.281.087l3.79.035c22.374-.07 41.471-7.695 57.831-22.926 5.623-5.872 10.162-12.59 14.629-19.359 8.403-12.695 19.998-20.08 34.875-23.437 15.116-2.496 29.083.958 41.875 9.312 11.003 7.922 18.578 20.231 21.25 33.5 3.17 20.383-4.858 37.097-16.25 53.5-2.852 3.808-5.858 7.429-9 11l-2.14 2.473A344.389 344.389 0 0 1 331 672l-2.637 2.836c-28.57 30.02-72.28 51.422-113.921 53.278-2.93.067-5.859.103-8.79.124l-3.298.025c-2.303.014-4.607.024-6.91.032-2.311.012-4.621.032-6.932.062-49.71.64-96.327-16.805-132.438-51.326A488.86 488.86 0 0 1 51 672l-2.691-2.691C14.243 633.493-.76 585.968-.496 537.359c0-2.387-.002-4.775-.005-7.163 0-4.962.011-9.923.034-14.884.029-6.306.026-12.611.013-18.917-.007-4.916.001-9.832.014-14.748.004-2.323.005-4.646 0-6.97-.016-18.31 1.534-35.59 6.627-53.24l.91-3.19C9.908 408.739 13.569 399.854 18 391l.956-1.957C37.403 351.499 69.203 321.507 107 304l3.418-1.617c65.073-29.447 152.278-19.707 206.367 27.875zM1674 197l1.86 1.262c10.902 8.327 16.887 21.537 19.14 34.738.085 2.116.118 4.234.114 6.35v3.822l-.016 4.098-.005 4.216c-.003 3.687-.013 7.374-.024 11.062-.01 3.767-.015 7.534-.02 11.302-.01 7.383-.028 14.767-.049 22.15l3.874-.013c12.079-.041 24.157-.071 36.236-.09 6.209-.011 12.418-.025 18.627-.048a6484.03 6484.03 0 0 1 17.992-.039c2.283-.003 4.565-.01 6.848-.021 3.209-.015 6.418-.017 9.627-.016l2.827-.022c15.17.047 27.598 4.13 38.711 14.76 10.16 11.197 13.227 22.61 13.258 37.489-.793 13.196-7.48 24.129-17 33-8.23 6.807-18.875 11.133-29.625 11.12l-2.724.004-2.95-.01h-3.134c-3.414 0-6.829-.009-10.243-.016l-7.108-.005c-6.232-.003-12.465-.013-18.697-.024-6.361-.01-12.722-.015-19.083-.02-12.479-.01-24.957-.028-37.436-.049.037 26.686.097 53.373.184 80.06.04 12.39.072 24.782.087 37.173.013 10.802.04 21.604.084 32.405.022 5.718.038 11.436.037 17.154 0 5.386.017 10.772.05 16.158.008 1.973.01 3.946.004 5.919-.029 11.52.211 20.555 6.741 30.444 11.02 10.53 23.843 9.128 38.14 8.823a210.301 210.301 0 0 0 44.513-6.422c15.95-4.013 31.566-3.624 46.312 4.434 13.398 8.712 21.588 20.79 25.434 36.2 2.315 14.83-.185 29.142-8.586 41.652-17.597 22.991-45.602 26-72.486 29.744-14.768 1.948-29.47 2.489-44.346 2.551-1.895.012-3.79.032-5.684.062-16.838.26-33.367-1.298-49.172-7.544l-2.324-.892c-17.652-6.982-32.19-16.9-45.988-29.921l-2.234-2.04c-25.49-24.132-37.148-58.626-38.766-92.96-.129-5.075-.14-10.148-.134-15.225l-.007-4.414c-.006-3.998-.006-7.996-.004-11.994 0-4.33-.006-8.659-.01-12.988-.009-8.463-.011-16.926-.012-25.389 0-6.881-.003-13.763-.006-20.645-.009-19.54-.013-39.081-.012-58.622v-3.185-3.19c0-17.067-.01-34.135-.023-51.203-.015-17.554-.022-35.108-.02-52.662 0-9.844-.003-19.688-.014-29.532-.01-8.377-.011-16.754-.005-25.131.004-4.27.004-8.538-.005-12.807-.008-3.917-.006-7.833.002-11.75a833.3 833.3 0 0 0-.005-4.224c-.068-18.124 1.807-34.113 14.255-48.039l1.652-1.898c18.675-20.125 49.783-19.994 71.348-5.102zM2481.723 162.074c9.704 8.387 15.317 16.704 19.277 28.926l.55 1.68c.667 3.438.591 6.862.584 10.35l.007 2.484c.007 2.764.007 5.528.006 8.292l.011 5.984c.01 5.496.014 10.991.017 16.487.004 5.922.013 11.844.022 17.766.019 13.632.029 27.265.037 40.898l.015 20.214a152666.83 152666.83 0 0 1 .042 73.554v2.176l.004 10.917v2.188c.009 23.406.032 46.812.065 70.218a59230.587 59230.587 0 0 1 .059 84.434c.002 10.096.015 20.19.034 30.286.022 11.489.03 22.978.02 34.467-.004 5.86-.002 11.721.017 17.582.018 5.37.017 10.74.001 16.11-.002 1.938.002 3.876.014 5.814.106 18.398-3.181 32.217-15.943 46.287-11.346 10.86-25.818 15.366-41.269 15.058-15.823-1.182-28.572-8.586-39.07-20.215-8.078-10.03-11.553-21.906-11.477-34.617l-.01-2.481c-.008-2.732-.003-5.463.003-8.195l-.011-5.95c-.01-5.44-.008-10.881-.004-16.322.002-5.871-.007-11.742-.014-17.614-.013-11.499-.015-22.998-.012-34.497a42761.431 42761.431 0 0 0-.01-38.147c-.008-18.823-.012-37.646-.008-56.47v-2.149a692299.293 692299.293 0 0 1 .005-17.28c.005-22.465-.003-44.929-.021-67.393a77298.587 77298.587 0 0 1-.027-83.828v-2.01c.002-10.002-.005-20.003-.015-30.005-.012-11.378-.014-22.756-.002-34.134.006-5.804.007-11.608-.005-17.412-.01-5.317-.007-10.633.007-15.95.002-1.92 0-3.84-.008-5.76-.072-18.676 2.652-33.476 15.968-47.528 19.517-18.477 49.489-20.71 71.14-4.215zM589 287l3.188.145c30.219 1.477 67.71 4.016 92.812 22.855l2.469 1.8c8.877 7.714 15.824 20.344 16.672 32.167.768 17.542-2.492 32.868-14.703 46.283-12.177 11.325-26.576 15.715-42.88 15.242-7.933-.5-15.4-2.79-23.007-4.96-17.18-4.88-40.668-9.834-56.989-.844-5.77 3.797-9.552 8.612-11.562 15.312-1.07 5.93-1.14 11.71-1.125 17.725l-.004 3.24c-.003 3.579 0 7.156.003 10.734l-.006 7.704c-.004 4.812-.006 9.625-.006 14.438a16084.496 16084.496 0 0 1-.037 32.876l-.012 6.787c-.015 8.522-.029 17.044-.041 25.566l-.003 2.36c-.018 12.602-.02 25.204-.02 37.806.002 12.96-.016 25.921-.05 38.882-.02 7.98-.026 15.962-.012 23.943.01 6.129-.007 12.258-.033 18.387-.007 2.503-.005 5.006.006 7.508.082 20.158-1.596 35.207-15.976 50.509-11.828 11.41-24.785 14.953-40.742 14.9-14.368-.273-26.285-6.263-36.77-15.967-11.057-12.21-14.326-25.382-14.312-41.325l-.01-3.342c-.008-3.699-.01-7.397-.011-11.095l-.015-7.955c-.014-7.207-.02-14.414-.024-21.621-.003-4.507-.007-9.015-.012-13.522a53190.46 53190.46 0 0 1-.026-37.491v-2.423-2.428l-.002-4.87v-2.441a26263.33 26263.33 0 0 0-.046-39.072c-.023-13.396-.036-26.791-.037-40.186 0-7.512-.007-15.023-.025-22.534-.015-6.402-.02-12.803-.012-19.205.004-3.26.001-6.518-.011-9.777C445.487 393.96 455.023 359.256 482 330l2.46-2.676C494.59 316.785 506.08 308.701 519 302l1.804-.941C541.985 290.175 565.267 285.856 589 287zM3466.398 524.809c2.962 2.637 5.783 5.402 8.602 8.191l2.2 2.016c13.73 12.84 22.8 31.089 27.8 48.984l.969 3.223c7.632 30.21.966 61.744-14.625 88.058-3.293 5.347-7.098 10.098-11.344 14.719l-1.339 1.467c-20.902 22.656-48.906 35.274-79.696 36.748-31.94 1.014-60.37-10.767-83.926-31.867-21.49-20.497-33.685-49.126-34.444-78.726-.324-33.158 10.954-61.942 34.03-85.747 39.618-39.238 108.86-43.682 151.773-7.066z"/></g></svg>