<?xml version="1.0" encoding="UTF-8"?>
<svg id="Capa_1" data-name="Capa 1" xmlns="http://www.w3.org/2000/svg" viewBox="0 0 1080 1080">
  <defs>
    <style>
      .cls-1 {
        fill: #fff;
      }

      .cls-2 {
        fill: #00a6e2;
      }
    </style>
  </defs>
  <path class="cls-1" d="M897.85,821.24c0,28.3-10.7,55.69-30.33,76.09-26.3,27.33-75.15,58.38-165.62,75.15-116.32,21.57-150.34,45.17-159.59,59.7-1.09,1.71-3.55,1.71-4.64,0-9.24-14.53-43.27-38.13-159.59-59.7-90.47-16.77-139.32-47.82-165.62-75.15-19.63-20.4-30.33-47.78-30.33-76.09,0-97.51.05-479.06.07-680.08,0-1.72,1.57-3,3.25-2.67,10.47,2.08,45.31,8.24,91.19,8.24,76.51,0,183.77-17.12,260.18-98.83.82-.87,1.96-1.38,3.16-1.38h0c1.2,0,2.34.5,3.16,1.38,76.41,81.71,183.67,98.83,260.18,98.83,45.88,0,80.73-6.16,91.19-8.24,1.68-.34,3.25.94,3.25,2.67.02,201.01.06,582.57.07,680.08Z"/>
  <path class="cls-2" d="M878.53,163.86c0-1.65-1.45-2.93-3.09-2.7-17.5,2.4-42.57,4.84-72.1,4.84-76.53,0-181.72-16.48-261.45-92.06-1.05-1-2.7-1-3.75,0-79.74,75.58-184.93,92.06-261.46,92.06-29.53,0-54.61-2.44-72.1-4.84-1.64-.22-3.09,1.05-3.09,2.7l-.07,657.39c0,23.74,8.86,46.02,24.95,62.73,13.64,14.17,31.61,26.83,53.42,37.63,27.97,13.85,62.24,24.6,101.84,31.94,58.77,10.89,103.44,23.57,132.76,37.69,9.49,4.57,17.46,9.31,23.96,14.26,1,.76,2.36.76,3.36,0,6.49-4.95,14.46-9.69,23.95-14.26,29.32-14.12,73.99-26.8,132.76-37.69,39.6-7.34,73.87-18.09,101.84-31.94,21.81-10.8,39.78-23.46,53.42-37.63,16.09-16.72,24.95-39,24.95-62.73l-.06-657.38Z"/>
  <path class="cls-1" d="M476.11,397.81v554.68c0,1.83-1.77,3.14-3.52,2.61-24.64-7.41-53.87-14.26-87.48-20.48-12.11-2.25-23.7-4.82-34.7-7.7-1.2-.31-2.03-1.4-2.03-2.64v-499.96c0-1.46,1.15-2.66,2.62-2.72,27.79-1.16,55.9-5.72,83.74-13.59,12.56-3.55,25.12-7.79,37.63-12.72,1.79-.71,3.74.6,3.74,2.53Z"/>
  <path class="cls-1" d="M731.58,424.31v499.97c0,1.24-.83,2.33-2.03,2.64-11,2.88-22.56,5.45-34.67,7.69-33.63,6.24-62.87,13.09-87.52,20.49-1.75.53-3.52-.78-3.52-2.61V397.83c0-1.93,1.94-3.24,3.74-2.53,12.49,4.92,25.04,9.15,37.58,12.7,27.86,7.88,55.99,12.44,83.8,13.59,1.46.06,2.62,1.25,2.62,2.72Z"/>
  <path class="cls-1" d="M857.78,379.26c-15.6,7.7-147.11,66.8-316.39-39.04-.88-.55-2.01-.55-2.89,0-168.91,105.62-300.23,46.98-316.28,39.08-.93-.46-1.52-1.41-1.52-2.45l.02-191.4c0-1.61,1.38-2.87,2.98-2.72,14.96,1.42,32.97,2.51,52.96,2.51,74.67,0,178.68-15.27,261.58-85.56,1.02-.86,2.51-.86,3.52,0,82.9,70.28,186.9,85.56,261.57,85.56,19.99,0,38.01-1.09,52.97-2.51,1.6-.15,2.98,1.11,2.98,2.72l.02,191.36c0,1.04-.58,1.98-1.51,2.44Z"/>
  <path class="cls-2" d="M803.91,277.03v26.73h-76.18l-.32,41.68h85.08v26.77h-117.61v-155.53c38.12-.01,114.82.04,114.82.04l.02,26.69h-82.63v33.61h76.83Z"/>
  <path class="cls-2" d="M391.82,260.71c-10.63,2.56-20.33,4.88-30.69,7.37-5.64-18.37-17.75-25.7-31.37-25.89-12.61-.18-22.75,4.32-30.62,14.07-3.79,4.74-5.77,10.36-7.07,16.14-2.66,12.02-2.91,24.13-1.41,36.41,1,7.92,2.31,15.66,6.4,22.55,11.43,19.14,37.04,23.13,52.88,8.44,4.52-4.2,7.28-9.76,9.38-15.55.93-2.67,1.8-5.37,2.76-8.4,10.03,3.16,19.86,6.27,29.96,9.46-4.71,18.63-13.94,33.7-31.06,42.83-10.44,6.19-26.31,7.4-33.75,7.39-14.79-.53-28.81-3.8-40.77-12.96-12.02-9.22-20.54-21.05-24.77-35.73-1.71-6.02-3.26-12.08-3.44-18.44-.14-5.19-1-10.4-.8-15.58.62-16.28,3.69-31.99,12.38-46.14,5.89-9.53,13.79-17.05,23.59-22.48,8.06-4.44,16.73-6.87,25.92-8.16,12.41-1.73,24.4-.63,35.99,3.56,15.84,5.7,27.4,16.15,33.33,32.25.98,2.67,2.26,5.81,3.16,8.87"/>
  <path class="cls-2" d="M477.99,265.02l30.26-2.97c1.81,10.2,5.49,17.71,11.08,22.49,5.59,4.8,13.11,7.18,22.56,7.18,10.01,0,17.59-2.13,22.64-6.38,5.08-4.27,7.63-9.26,7.61-14.95,0-3.67-1.06-6.77-3.19-9.35-2.15-2.56-5.87-4.78-11.2-6.71-3.66-1.25-11.93-3.52-24.91-6.75-16.67-4.16-28.36-9.26-35.1-15.32-9.45-8.51-14.19-18.89-14.2-31.15.01-7.88,2.25-15.25,6.68-22.11,4.46-6.86,10.86-12.09,19.24-15.7,8.35-3.56,18.48-5.36,30.31-5.36,19.34,0,33.9,4.25,43.66,12.77,9.78,8.52,14.93,19.87,15.4,34.11l-31.11,1.36c-1.33-7.95-4.19-13.66-8.55-17.15-4.39-3.48-10.96-5.23-19.71-5.23s-16.11,1.87-21.24,5.59c-3.29,2.41-4.94,5.62-4.92,9.62-.02,3.67,1.51,6.79,4.61,9.39,3.94,3.3,13.45,6.76,28.59,10.36,15.12,3.58,26.33,7.29,33.57,11.12,7.24,3.83,12.94,9.08,17.04,15.73,4.09,6.67,6.14,14.87,6.14,24.66,0,8.87-2.43,17.18-7.35,24.92-4.91,7.74-11.84,13.51-20.81,17.26-8.96,3.78-20.14,5.67-33.53,5.67-19.5,0-34.41-4.53-44.86-13.59-10.43-9.04-16.68-22.22-18.7-39.52"/>
</svg>