<?xml version="1.0" encoding="UTF-8"?>
<svg id="Capa_1" data-name="Capa 1" xmlns="http://www.w3.org/2000/svg" viewBox="0 0 1080 1080">
  <defs>
    <style>
      .cls-1 {
        fill: #fff;
      }

      .cls-2 {
        fill: #152f4e;
      }

      .cls-3 {
        fill: #00a6e2;
      }
    </style>
  </defs>
  <g>
    <g>
      <g>
        <g>
          <path class="cls-1" d="M974.35,779.99l-130.35-602.35c-1.69-7.8-7.24-14.21-14.73-16.98-2.64-.98-5.38-1.45-8.12-1.45-5.03,0-10,1.62-14.12,4.75-25.23,19.12-57.58,29.23-93.53,29.23-59.28,0-115.13-27.21-153.23-74.65-2.14-2.71-8.54-10.69-20.26-10.69h0c-11.73,0-18.13,7.99-20.27,10.69-38.1,47.44-93.94,74.65-153.22,74.65-35.96,0-68.3-10.11-93.54-29.23-4.12-3.13-9.1-4.75-14.12-4.75-2.73,0-5.48.48-8.12,1.45-7.49,2.77-13.04,9.18-14.73,16.98L105.65,779.99c-4.36,18.3-4.31,36.81.14,55.03,4.27,17.51,12.42,33.97,24.22,48.95,15.3,19.42,36.38,35.53,60.95,46.59,25.71,11.57,54.19,17.43,84.64,17.43,94.09,0,181.98,28.07,247.48,79.03,2.69,2.11,8.25,6.45,16.92,6.45s14.19-4.3,16.89-6.42c65.5-50.98,153.4-79.05,247.51-79.05,30.46,0,58.94-5.87,84.65-17.43,24.57-11.06,45.65-27.17,60.95-46.59,11.8-14.97,19.94-31.44,24.22-48.94,4.45-18.22,4.49-36.74.13-55.03Z"/>
          <path class="cls-1" d="M902.1,352.45c-1.39-10.54-8.68-15.76-11.42-17.72l-.02-.02-.02-.02c-23.41-16.67-42.55-27.88-58.14-35.3,11.93-13.63,23.02-31.99,27.63-55.74,10.77-55.45-17.36-119.15-83.6-189.31-4.74-5.04-11.02-7.81-17.69-7.81-8.19,0-15.9,4.35-20.13,11.36-4.34,7.2-4.51,16.09-.45,23.78,3.54,6.72,10,23.72,13.27,42.98,3.6,21.24,2.18,39.13-4,50.37-3.8,6.92-11.58,16.33-35.1,18.22l-.19.02-.19.02s-5.84.53-15.55.53c-15.59,0-39.92-1.33-67.34-7.65-30.02-7.09-60-10.72-89.1-10.79h-.1c-29.09.06-59.06,3.69-89.08,10.78-27.43,6.32-51.76,7.65-67.35,7.65-9.71,0-15.54-.53-15.6-.54l-.19-.02h-.14c-23.52-1.9-31.3-11.31-35.1-18.23-6.19-11.25-7.61-29.14-4-50.37,3.27-19.26,9.73-36.26,13.27-42.99,4.05-7.67,3.89-16.56-.45-23.77-4.23-7.01-11.94-11.37-20.14-11.37-6.67,0-12.95,2.77-17.69,7.81-66.24,70.16-94.37,133.86-83.6,189.31,4.61,23.75,15.7,42.11,27.63,55.74-15.59,7.42-34.73,18.63-58.14,35.3l-.02.02-.02.02c-2.74,1.96-10.03,7.18-11.42,17.72-1.39,10.54,4.29,17.47,6.43,20.08l.04.04.04.04c17.49,21.13,32.05,35.39,45.83,44.89,15.44,10.65,30.81,15.83,46.99,15.83,12.5,0,24.5-3.08,36.38-7.55,4.88,9.24,11.81,16.26,16.64,21.16.65.66,1.27,1.29,1.82,1.85,5.41,8.56,27.37,53.15,45.25,90.91l3.2,6.76,6.53,3.64,141.58,79,11.39,6.36,11.39-6.36,141.57-79,6.53-3.64,3.2-6.76c17.89-37.76,39.85-82.36,45.26-90.91.55-.57,1.17-1.2,1.82-1.85,4.83-4.9,11.75-11.93,16.64-21.16,11.87,4.47,23.88,7.55,36.38,7.55,16.17,0,31.54-5.18,46.99-15.83,13.77-9.5,28.33-23.76,45.83-44.89l.04-.04.04-.04c2.14-2.61,7.82-9.54,6.43-20.08Z"/>
          <path class="cls-2" d="M804.4,924.61c-104.82,0-195.61,32.41-261.88,83.99q-2.51,1.97-5.03,0c-66.27-51.58-157.06-83.99-261.88-83.99-98.15,0-164.03-69.3-147.15-139.43L258.85,182.58c28.51,21.61,65.45,33.97,107.66,33.97,68.09,0,130.37-32.2,171.51-83.46q1.98-2.5,3.97,0c41.14,51.27,103.42,83.46,171.51,83.46,42.2,0,79.14-12.37,107.65-33.97l130.4,602.6c16.88,70.13-49,139.43-147.15,139.43Z"/>
          <path class="cls-1" d="M236.74,796.41c1.59,21.07,16.25,38.92,36.65,44.43,13.7,3.7,28.83,5.71,45.05,5.71,85.54,0,166.49,27.92,220.43,72.29.66.54,1.6.54,2.26,0,53.94-44.38,134.89-72.29,220.43-72.29,16.22,0,31.35-2.01,45.05-5.71,20.4-5.51,35.06-23.36,36.65-44.43h0c.34-4.57.06-9.16-.85-13.65-11.59-57.31-97.9-389.77-122.95-496.17-.21-.9-1.07-1.48-1.98-1.36-50.36,6.93-120.78.58-176.16-60.04-.71-.78-1.93-.78-2.65,0-55.38,60.62-125.8,66.97-176.16,60.04-.92-.13-1.77.45-1.98,1.36-25.05,106.39-111.36,438.86-122.95,496.17-.91,4.49-1.19,9.08-.85,13.65h0Z"/>
          <path class="cls-1" d="M236.74,796.41c1.59,21.07,16.25,38.92,36.65,44.43,13.7,3.7,28.83,5.71,45.05,5.71,85.54,0,166.49,27.92,220.43,72.29.66.54,1.6.54,2.26,0,53.94-44.38,134.89-72.29,220.43-72.29,16.22,0,31.35-2.01,45.05-5.71,20.4-5.51,35.06-23.36,36.65-44.43h0c.34-4.57.06-9.16-.85-13.65-11.59-57.31-97.9-389.77-122.95-496.17-.21-.9-1.07-1.48-1.98-1.36-50.36,6.93-120.78.58-176.16-60.04-.71-.78-1.93-.78-2.65,0-55.38,60.62-125.8,66.97-176.16,60.04-.92-.13-1.77.45-1.98,1.36-25.05,106.39-111.36,438.86-122.95,496.17-.91,4.49-1.19,9.08-.85,13.65h0Z"/>
          <g>
            <path class="cls-2" d="M667.03,861.96c1.21,13.56-6.94,26.16-19.76,30.76-34.45,12.35-65.31,29.41-90.36,50.01-.67.55-1.6.55-2.26,0-25.05-20.6-55.92-37.65-90.36-50.01-12.81-4.6-20.96-17.2-19.75-30.76l56.44-632.85c.05-.55.35-1.04.81-1.33,19.53-12.58,36.6-28.22,52.55-49.53.72-.97,2.16-.97,2.89,0,15.94,21.3,33.02,36.95,52.55,49.53.46.3.76.79.81,1.33l56.44,632.84Z"/>
            <path class="cls-2" d="M635.47,861.96c1.21,13.56-6.94,26.16-19.76,30.76-34.45,12.35-65.31,29.41-90.36,50.01-.67.55-1.6.55-2.26,0-25.05-20.6-55.92-37.65-90.36-50.01-12.81-4.6-20.96-17.2-19.75-30.76l56.44-632.85c.05-.55.35-1.04.81-1.33,19.53-12.58,36.6-28.22,52.55-49.53.72-.97,2.16-.97,2.89,0,15.94,21.3,33.02,36.95,52.55,49.53.46.3.76.79.81,1.33l56.44,632.84Z"/>
          </g>
          <path class="cls-3" d="M651.25,861.96c1.21,13.56-6.94,26.16-19.76,30.76-34.45,12.35-65.31,29.41-90.36,50.01-.67.55-1.6.55-2.26,0-25.05-20.6-55.92-37.65-90.36-50.01-12.81-4.6-20.96-17.2-19.75-30.76l56.44-632.85c.05-.55.35-1.04.81-1.33,19.53-12.58,36.6-28.22,52.55-49.53.72-.97,2.16-.97,2.89,0,15.94,21.3,33.02,36.95,52.55,49.53.46.3.76.79.81,1.33l56.44,632.84Z"/>
          <g>
            <path class="cls-2" d="M414.65,266.52l-13.91-16.38c-.34-.39-.83-.62-1.35-.63-45.13-.61-78.06-10.48-88.5-16.5-1.08-.62-2.45,0-2.68,1.22l-102.01,546.95c-1.52,6.68-2.23,12.97-2.19,18.83,0,.65,0,1.29.02,1.94v.14c1.46,40.61,39.66,61.08,96.24,65.96,2.05.18,2.76-2.65.87-3.45-12.6-5.33-30.93-15.43-30.57-28.97.45-16.93,113.18-514.04,125.47-568.2.32-1.42,2.15-1.92,3.09-.8,2.35,2.82,5.38,2.66,5.38,2.66,1.22.07,5.41.14,8.72.2,1.55.03,2.4-1.78,1.4-2.97Z"/>
            <path class="cls-2" d="M873.79,781.18l-102.01-546.95c-.23-1.23-1.59-1.85-2.68-1.22-10.44,6.02-43.36,15.89-88.5,16.5-.51,0-1,.23-1.34.63l-13.93,16.41c-.99,1.17-.15,2.97,1.39,2.94,3.32-.06,7.53-.13,8.76-.2,0,0,3.04.16,5.4-2.68.92-1.11,2.74-.62,3.07.79,12.26,54.03,125.02,551.3,125.47,568.22.36,13.54-17.96,23.64-30.57,28.97-1.89.8-1.18,3.63.87,3.45,56.59-4.88,94.78-25.35,96.24-65.96v-.14c.02-.64.02-1.28.02-1.94.03-5.86-.67-12.14-2.19-18.83Z"/>
          </g>
          <path class="cls-3" d="M398.27,266.52l-13.91-16.38c-.34-.39-.83-.62-1.35-.63-45.13-.61-78.06-10.48-88.5-16.5-1.08-.62-2.45,0-2.68,1.22l-102.01,546.95c-1.52,6.68-2.23,12.97-2.19,18.83,0,.65,0,1.29.02,1.94v.14c1.46,40.61,39.66,61.08,96.24,65.96,2.05.18,2.76-2.65.87-3.45-12.6-5.33-30.93-15.43-30.57-28.97.45-16.93,113.18-514.04,125.47-568.2.32-1.42,2.15-1.92,3.09-.8,2.35,2.82,5.38,2.66,5.38,2.66,1.22.07,5.41.14,8.72.2,1.55.03,2.4-1.78,1.4-2.97Z"/>
          <path class="cls-3" d="M890.15,781.18l-102.01-546.95c-.23-1.23-1.59-1.85-2.68-1.22-10.44,6.02-43.36,15.89-88.5,16.5-.51,0-1,.23-1.34.63l-13.93,16.41c-.99,1.17-.15,2.97,1.39,2.94,3.32-.06,7.53-.13,8.76-.2,0,0,3.04.16,5.4-2.68.92-1.11,2.74-.62,3.07.79,12.26,54.03,125.02,551.3,125.47,568.22.36,13.54-17.96,23.64-30.57,28.97-1.89.8-1.18,3.63.87,3.45,56.59-4.88,94.78-25.35,96.24-65.96v-.14c.02-.64.02-1.28.02-1.94.03-5.86-.67-12.14-2.19-18.83Z"/>
        </g>
        <path class="cls-2" d="M646.29,269.15c-37.49,0-67.88-30.39-67.88-67.88,0-16.47-13.35-29.82-29.82-29.82h-17.17c-16.47,0-29.82,13.35-29.82,29.82,0,37.49-30.39,67.88-67.88,67.88h-173.67v60h559.9v-60h-173.66Z"/>
      </g>
      <g>
        <g>
          <path class="cls-2" d="M877.6,357.71c-52.87,63.86-75.64,59.66-123.26,37.41-2.16-1-4.23-1.87-6.21-2.62.85,4.65,1.1,8.94.61,13.18-1.4,12.12-12.8,21.71-18.74,28.1-6.07,6.53-48.42,95.93-48.42,95.93l-141.57,79-141.58-79s-42.35-89.4-48.42-95.93c-5.94-6.39-17.34-15.98-18.74-28.1-.49-4.23-.25-8.52.61-13.18-1.97.75-4.04,1.61-6.21,2.62-47.62,22.26-70.39,26.45-123.26-37.41q-1.86-2.27.53-3.97c72.19-51.42,95.02-43.96,95.02-43.96,0,0-141.98-65.17,22.55-239.41.67-.71,1.09-.58.56.41-12.71,24.11-49.88,138.19,44.64,145.78,0,0,40.47,3.92,90.47-7.62,23.19-5.48,51.95-10.1,83.81-10.17,31.88.07,60.63,4.69,83.82,10.17,50.01,11.54,90.48,7.62,90.48,7.62,94.52-7.59,57.35-121.66,44.64-145.78-.53-1-.1-1.12.56-.41,164.53,174.24,22.55,239.41,22.55,239.41,0,0,22.83-7.46,95.02,43.96q2.38,1.71.53,3.97Z"/>
          <g>
            <g>
              <path class="cls-1" d="M327.55,236.17c19.29,23.84,50.14,26.99,62.85,27.22-1.61,1.5-3.36,3.04-5.19,4.67-.72.64-1.46,1.29-2.19,1.94-78.68,14.55-101.52-43.54-101.52-43.54,9.39,43.07,50.14,64.01,89.86,64.01-15.03,10.39-12.02,22.7-12.02,22.7-38.8,0-84.75-36.01-94.13-79.08-3.69-16.93-4.9-35.9,3.31-56.37,4.5-11.18,10.83-22.94,18.87-35.08-1.09,18.97,2.99,98.39,112.69,92.14,1.19,0,2.39,0,3.59-.03-1.35,2.78-2.33,6.1-2.95,9.98-43.52,18-73.15-8.55-73.15-8.55Z"/>
              <path class="cls-1" d="M425.9,321.75l46.39,20.29-26.16,3.27c-16.52-1.95-20.23-23.56-20.23-23.56Z"/>
              <path class="cls-3" d="M330.17,352.28c-10.23-.06-23.26,2.44-39.13,10.17,15.8-1.37,35.24-4.75,46.79,3.44,0,0-5.66,11.63-22.69,20.7-31.08,14.35-49.54,18.74-87.11-28.14,62.17-55.81,128.27-30.84,128.27-30.84-8.47,10.94-6.55,20.55-6.6,28.44-4.68-1.97-11.16-3.74-19.53-3.78Z"/>
            </g>
            <g>
              <path class="cls-1" d="M752.45,236.17c-19.29,23.84-50.14,26.99-62.85,27.22,1.61,1.5,3.36,3.04,5.19,4.67.72.64,1.46,1.29,2.19,1.94,78.68,14.55,101.52-43.54,101.52-43.54-9.39,43.07-50.14,64.01-89.86,64.01,15.03,10.39,12.02,22.7,12.02,22.7,38.8,0,84.75-36.01,94.13-79.08,3.69-16.93,4.9-35.9-3.31-56.37-4.5-11.18-10.83-22.94-18.87-35.08,1.09,18.97-2.99,98.39-112.69,92.14-1.19,0-2.39,0-3.59-.03,1.35,2.78,2.33,6.1,2.95,9.98,43.52,18,73.15-8.55,73.15-8.55Z"/>
              <path class="cls-1" d="M633.87,345.31l-26.16-3.27,46.39-20.29s-3.71,21.61-20.23,23.56Z"/>
              <path class="cls-3" d="M749.83,352.28c10.23-.06,23.26,2.44,39.13,10.17-15.8-1.37-35.24-4.75-46.79,3.44,0,0,5.66,11.63,22.69,20.7,31.08,14.35,49.54,18.74,87.11-28.14-62.17-55.81-128.27-30.84-128.27-30.84,8.47,10.94,6.55,20.55,6.6,28.44,4.68-1.97,11.16-3.74,19.53-3.78Z"/>
            </g>
            <path class="cls-3" d="M490.84,444.66c-3.31-2.71-7.85-4.37-12.84-4.37-10.18,0-18.43,6.9-18.43,15.42,0,4.19,1.99,7.97,5.23,10.75-7.37-2.47-12.58-8.51-12.58-15.56,0-9.25,8.97-16.76,20.04-16.76,8.43,0,15.63,4.36,18.58,10.52Z"/>
            <path class="cls-3" d="M589.17,444.66c3.31-2.71,7.85-4.37,12.84-4.37,10.18,0,18.43,6.9,18.43,15.42,0,4.19-1.99,7.97-5.23,10.75,7.37-2.47,12.58-8.51,12.58-15.56,0-9.25-8.97-16.76-20.04-16.76-8.43,0-15.63,4.36-18.58,10.52Z"/>
          </g>
        </g>
        <path class="cls-3" d="M721.64,377.64s-30.49,34.79-47.14,27.62c33.28-19.51,58.56-72.51,21.43-75.54,18.31-38.46-35.08-56.24-36.87-75.14-1.81-18.91-10.82-21.84-19.83-21.61-39.49.95-71.31,42.78-71.31,42.78,0,0,9.09-43.25,55.99-53.6-26.25-1.72-55.03-9.62-83.91-9.68-28.87.06-57.65,7.96-83.91,9.68,46.9,10.34,55.99,53.6,55.99,53.6,0,0-31.82-41.84-71.31-42.78-9-.22-18.01,2.7-19.83,21.61-1.79,18.9-55.17,36.68-36.87,75.14-37.14,3.03-11.85,56.03,21.43,75.54-16.66,7.17-47.14-27.62-47.14-27.62-16.56,43.86,1.51,21.89,30.51,80.97,0,0,6.09-1.44-8.58-42.23.46.47,18.4,10.17,30.49,61.46l6.6,38.72,108.48,68.77c0-45.97-39.51-53.77-48.86-65.85-9.35-12.08-1.95-24.16-1.95-24.16-10.29,6.55-18.41-5.64-19.28-6.92-6.71-9.88-15-15.68-15-15.68-5.89-6.13-37.18-24.2-5.52-56.89,0,0,13.62-29.86,30.86-45.43l-39.56,20.52c-26.1-4-41.66-35.09-24.73-61.19,0,0-2.16,33.43,21.73,44.02,21.61-9.05,39.45-15.96,50.33-20.06-11,1.2-32.25,5.05-32.25,5.05-36.61-9.26-29.38-43.82-29.38-43.82l-9.19-26.01c39.49,39.36,114.24,54.62,114.24,54.62-4.69,0-26.35.02-26.35,8.93l2.56,53.63s-10.63-34.64-12.52-36.53c-12.47,6.43-24.41,35.68-24.41,43.23,34.14-1.73,47.68,23.97,83.39,23.97s49.25-25.71,83.39-23.97c0-7.55-11.93-36.8-24.41-43.23-1.89,1.89-12.52,36.53-12.52,36.53l2.56-53.63c0-8.91-21.66-8.93-26.35-8.93,0,0,74.75-15.27,114.24-54.62l-9.19,26.01s7.24,34.57-29.38,43.82c0,0-21.25-3.85-32.25-5.05,10.88,4.1,28.72,11.01,50.33,20.06,23.89-10.59,21.73-44.02,21.73-44.02,16.93,26.1,1.37,57.2-24.73,61.19l-39.56-20.52c17.24,15.57,30.86,45.43,30.86,45.43,31.67,32.69.37,50.77-5.52,56.89,0,0-8.29,5.8-15,15.68-.87,1.28-8.99,13.47-19.28,6.92,0,0,7.4,12.08-1.95,24.16-9.35,12.08-48.86,19.87-48.86,65.85l108.48-68.77,6.6-38.72c12.09-51.29,30.03-60.99,30.49-61.46-14.67,40.8-8.58,42.23-8.58,42.23,29-59.08,47.07-37.11,30.51-80.97ZM410.78,289.06s42.63-26.47,72.36-6.13c16.4,10.44,32.27,44.67,32.27,44.67-58.53-52.36-103.61-38.77-104.63-38.54ZM564.6,327.6s15.87-34.23,32.27-44.67c29.73-20.35,72.36,6.13,72.36,6.13-1.02-.23-46.1-13.82-104.63,38.54Z"/>
        <path class="cls-1" d="M577.92,485.15c-.96,1.01-74.86,1.01-75.82,0,10.24-3.44,23.47-5.5,37.91-5.5s27.67,2.07,37.91,5.5Z"/>
      </g>
    </g>
    <path class="cls-2" d="M876.6,758.44l-238.46,37.13-51.91,9.19c-30.58,5.42-61.88,5.42-92.46,0l-51.89-9.19-238.49-37.13c-20.74-3.23-34.59-23.1-30.43-43.67l28.43-140.63c.18-.83.91-1.43,1.75-1.43h23.72l11.09-57.02c3.35-17.3,18.5-29.78,36.13-29.78h531.81c17.63,0,32.78,12.48,36.14,29.78l11.09,57.02h23.71c.85,0,1.59.6,1.75,1.43l28.43,140.63c4.16,20.57-9.69,40.45-30.42,43.67Z"/>
    <g>
      <path class="cls-1" d="M197.62,728.78c8.7-43.04,17.4-86.09,26.11-129.13h62.91c-1,6.7-1.51,10.05-2.51,16.75-13.17-.26-26.33-.52-39.5-.78-2.53,13.92-5.05,27.84-7.58,41.76,12.74.89,25.49,1.78,38.23,2.67-1.01,6.68-1.52,10.03-2.53,16.71-12.87-1.14-25.73-2.27-38.6-3.41-2.63,14.47-5.25,28.95-7.88,43.42,13.98,1.91,27.97,3.83,41.95,5.74-1,6.7-1.51,10.05-2.51,16.75-22.7-3.5-45.4-6.99-68.1-10.49Z"/>
      <path class="cls-1" d="M370.38,710.88c-.23,2.19-.46,4.36-.67,6.44-.22,2.1-.54,4.42-.88,6.89-1.55,11.25-5.44,19.15-12.04,23.2-6.6,4.05-17.01,4.89-31.17,2.69-14.25-2.22-24.15-6.17-29.65-11.73-5.51-5.57-7.82-13.6-7.02-24.19.45-3.3.67-4.94,1.12-8.24.36-2.65.75-5.3,1.2-7.97.44-2.66,1.01-5.38,1.7-8.14,9.46.95,14.18,1.42,23.64,2.37-.89,4.9-1.66,9.79-2.28,14.63-.62,4.84-1.01,9.49-1.14,13.93-.11,3.57.97,6.41,3.19,8.48,2.24,2.08,5.89,3.49,10.94,4.19,4.96.69,8.65.31,11.05-1.18,2.38-1.48,3.95-4.04,4.72-7.63.6-2.84,1.08-5.51,1.41-7.96.32-2.45.57-4.94.75-7.47.18-2.52.26-5.35.25-8.47.14-3.68-.43-6.92-1.7-9.7-1.27-2.78-3.91-4.77-7.9-5.96-6.04-1.87-9.06-2.79-15.08-4.61-6.75-2.02-11.9-4.53-15.46-7.52-3.55-2.98-5.91-6.6-7.02-10.82-1.12-4.22-1.43-9.25-.84-14.91.33-3.18.8-6.48,1.28-9.8,1.81-12.56,3.5-25.18,5.34-37.76h74.7c-.97,14.04-2.16,28.13-3.44,42.09-.42,4.6-.97,9.21-1.58,13.79-9.44-.55-14.17-.83-23.61-1.38.71-4.71,1.33-9.45,1.88-14.16.28-2.37,1.48-14.47,2.35-23.43-11.55-.21-17.33-.32-28.89-.53-1.03,8.01-2.36,18.81-2.57,20.72-.43,3.94-.73,7.88-.89,11.79-.16,3.92.41,7.15,1.71,9.66,1.3,2.52,4.01,4.33,8.11,5.42,5.4,1.46,8.1,2.2,13.52,3.69,7.01,1.9,12.41,4.49,16.19,7.77,3.77,3.28,6.34,7.3,7.67,12,1.33,4.7,1.81,10.2,1.57,16.31-.11,2.77-.24,5.29-.47,7.48Z"/>
      <path class="cls-1" d="M471.86,722.86c-.12,5.04-.44,9.96-.75,14.6-.86,12.52-4.33,21.31-10.89,25.72-6.55,4.4-17.62,5.7-31.46,3.08-10.26-1.94-22.56-4.39-30.4-12.56-5.75-5.99-8.36-14.99-7.78-26.75.36-7.39.83-15.19,1.35-23.32.52-8.12,1.1-16.37,1.71-24.77.61-8.38,1.26-16.65,1.92-24.8,1.47-18.11,2.76-36.28,4.32-54.41h74.72c-.33,14.25-.88,28.56-1.21,42.75-.08,3.42-.2,6.85-.39,10.24-.18,3.39-.35,6.37-.51,8.93-9.79-.65-14.68-1.03-24.48-1.6.21-3.12.44-6.52.67-10.17.23-3.64.42-7.34.55-11.06.06-1.8.49-11.73.84-20.4-11.08-.2-16.62-.31-27.7-.51-.81,12.06-1.56,24.15-2.41,36.18-.63,8.87-1.24,17.85-1.78,26.88-.54,9.04-1.01,18.01-1.42,26.91-.42,8.91-.83,17.71-1.03,26.21-.1,3.98,1.03,7.15,3.32,9.41,2.29,2.27,5.84,3.74,10.67,4.42,5.21.73,9.1.28,11.68-1.36,2.57-1.63,3.96-4.53,4.23-8.61.2-3.11.44-6.63.64-10.48.21-3.85.35-7.71.44-11.54.09-3.84.17-7.37.22-10.58,10.06,1.01,15.07,1.69,25.11,2.83,0,4.81-.06,9.75-.18,14.78Z"/>
      <path class="cls-1" d="M572.61,661.51c-.57-20.59-.8-41.25-1.48-61.86h-75.48c-.69,20.29-1.09,40.59-1.69,60.87-.26,8.86-.5,17.78-.7,26.73-.2,8.96-.37,17.9-.49,26.81-.11,8.92-.22,17.79-.22,26.58,0,13.02,3.17,22.93,9.34,29.57,8.1,8.71,20.93,11.15,30.94,11.45,9.82.29,22.87-1.18,31.1-9.66,6.13-6.31,9.31-16.25,9.47-29.45.11-8.9.11-17.89.09-26.94-.02-9.04-.11-18.06-.26-27.06-.15-8.99-.37-18.01-.61-27.03ZM548.42,719.66c-.07,10.02-.32,19.74-.53,29-.1,4.4-1.29,7.72-3.66,9.81-2.38,2.11-6.16,3.17-11.34,3.03-4.94-.13-8.64-1.4-11.07-3.62-2.44-2.23-3.73-5.57-3.83-9.98-.22-9.27-.35-18.91-.4-28.88-.04-9.96,0-20.02.1-30.18.11-10.14.31-20.15.55-29.98.32-13.03.49-26.11.74-39.17,11.47.13,17.2.15,28.67.1.15,13.13.22,26.28.45,39.38.17,9.89.31,19.95.35,30.15.04,10.21.03,20.33-.04,30.33Z"/>
      <path class="cls-1" d="M670.67,705.54c-.63-6.53-2.61-11.71-5.61-15.3-3-3.6-7.5-5.98-13.48-7.14-.1-1.8-.15-2.71-.24-4.51,5.63-2.15,9.67-5.19,12.11-9.12,2.43-3.93,3.66-9.16,3.69-15.7-.13-3.22-.3-6.54-.51-9.93-.94-14.73-1.87-29.46-2.81-44.19h-71.74c1.49,57.98,2.98,115.96,4.46,173.94,12.05-2.11,24.09-4.22,36.14-6.33,10.62-2.37,22.48-4.44,30.56-12.47,6.05-6,9.18-15.09,8.87-26.58-.11-4.1-.4-7.99-.62-11.45-.22-3.45-.44-7.26-.82-11.22ZM646.61,731.08c.15,4.68-.98,8.37-3.42,11.01-2.44,2.65-6.25,4.27-11.35,5.06-4.15.65-6.22.97-10.37,1.61-.69-18.43-1.38-36.85-2.07-55.28,3.86-.39,5.79-.58,9.66-.97,5.37-.54,9.37.55,11.96,3.09,2.58,2.53,4.07,7.05,4.5,13.48.25,3.77.49,7.42.67,10.93.18,3.51.31,7.2.43,11.06ZM642.32,643.21c.18,3.66.26,7.45.34,11.26.13,5.59-.86,9.95-3.19,12.9-2.33,2.95-5.99,4.59-10.93,4.98-3.96.31-5.95.47-9.91.79-.66-17.72-1.33-35.44-1.99-53.16,9.74-.22,14.62-.32,24.37-.51.48,8.05,1.17,21.02,1.31,23.73Z"/>
      <path class="cls-1" d="M691.49,758.18c3.8-52.82,7.16-105.66,10.03-158.53h39.67c12.57,48.45,25.87,96.69,40,144.72-10.54,1.62-15.82,2.44-26.36,4.06-2.89-12.18-5.72-24.38-8.53-36.58-10.95,1.29-16.43,1.94-27.38,3.23-.3,13.01-.61,26.02-.94,39.03-10.59,1.63-15.89,2.45-26.48,4.08ZM719.67,696.29c8.9-.89,13.35-1.33,22.25-2.22-2.45-10.87-4.86-21.74-7.24-32.63-2.85-14.54-5.65-29.09-8.41-43.65-2.49.05-3.74.07-6.23.12.17,14.86.31,29.71.42,44.57-.24,11.27-.5,22.54-.79,33.81Z"/>
      <path class="cls-1" d="M852.12,681.37c5.37-2.43,9.02-5.69,10.95-9.74,1.94-4.06,2.4-9.17,1.53-15.27-.5-3.5-1-6.87-1.55-10.03-.56-3.17-1.2-6.37-1.93-9.64-2.56-12.35-5.11-24.7-7.66-37.05h-73.01c6.62,47.25,13.24,94.51,19.86,141.76,10.3-1.59,15.46-2.38,25.76-3.97-2.61-16.51-5.23-33.01-7.84-49.52,4.27-.43,6.41-.65,10.68-1.08,8.49,15.5,17.15,30.87,26.03,46.16,10.97-1.69,16.45-2.53,27.42-4.22-10.44-15.57-20.47-31.41-30.25-47.4ZM836.57,636.74c.76,3.74,1.43,7.51,2.02,11.27.59,3.75,1.12,7.44,1.52,11.01.38,3.39-.49,6.05-2.59,7.95-2.1,1.9-5.67,3.08-10.64,3.49-4.51.38-6.76.56-11.27.94-2.91-18.4-5.83-36.8-8.74-55.21,10.26-.2,15.39-.3,25.64-.51,1.4,7.11,3.49,18.3,4.05,21.06Z"/>
    </g>
    <g>
      <path class="cls-1" d="M281.28,572.71c-2.11,0-4.03-.53-5.78-1.58-1.74-1.05-3.14-2.45-4.2-4.2-1.05-1.75-1.58-3.67-1.58-5.78v-4.57h10.98v4.07c0,.28.1.51.29.71.19.2.43.29.71.29h35.83c.28,0,.51-.1.71-.29.19-.19.29-.43.29-.71v-11.39c0-.28-.1-.5-.29-.67-.2-.17-.43-.25-.71-.25h-36.25c-2.11,0-4.03-.53-5.78-1.58-1.74-1.05-3.14-2.45-4.2-4.2-1.05-1.75-1.58-3.7-1.58-5.86v-12.3c0-2.11.53-4.03,1.58-5.78,1.05-1.75,2.45-3.14,4.2-4.2,1.75-1.05,3.67-1.58,5.78-1.58h36.75c2.11,0,4.03.53,5.78,1.58,1.74,1.05,3.14,2.45,4.2,4.2,1.05,1.75,1.58,3.67,1.58,5.78v4.57h-11.06v-4.07c0-.28-.1-.51-.29-.71-.2-.19-.43-.29-.71-.29h-35.83c-.28,0-.51.1-.71.29-.19.2-.29.43-.29.71v11.39c0,.28.1.5.29.67.19.17.43.25.71.25h36.33c2.11,0,4.03.53,5.78,1.58,1.74,1.05,3.14,2.45,4.2,4.2,1.05,1.75,1.58,3.7,1.58,5.86v12.3c0,2.11-.53,4.03-1.58,5.78-1.05,1.75-2.45,3.15-4.2,4.2-1.75,1.05-3.67,1.58-5.78,1.58h-36.75Z"/>
      <path class="cls-1" d="M344.53,572.71v-59.78h48.22c2.11,0,4.05.53,5.82,1.58,1.77,1.05,3.19,2.45,4.24,4.2,1.05,1.75,1.58,3.67,1.58,5.78v16.13c0,2.11-.53,4.05-1.58,5.82-1.05,1.77-2.47,3.17-4.24,4.2-1.77,1.03-3.71,1.54-5.82,1.54l-37.25.08v20.45h-10.97ZM356.5,541.11h35.75c.28,0,.53-.08.75-.25.22-.17.33-.39.33-.67v-15.3c0-.28-.11-.51-.33-.71-.22-.19-.47-.29-.75-.29h-35.75c-.28,0-.51.1-.71.29-.19.2-.29.43-.29.71v15.3c0,.28.1.5.29.67s.43.25.71.25Z"/>
      <path class="cls-1" d="M429.29,572.71c-2.11,0-4.03-.53-5.78-1.58-1.75-1.05-3.15-2.45-4.2-4.2-1.05-1.75-1.58-3.67-1.58-5.78v-36.75c0-2.11.53-4.03,1.58-5.78,1.05-1.75,2.45-3.14,4.2-4.2,1.75-1.05,3.67-1.58,5.78-1.58h36.75c2.11,0,4.03.53,5.78,1.58,1.74,1.05,3.14,2.45,4.2,4.2,1.05,1.75,1.58,3.67,1.58,5.78v36.75c0,2.11-.53,4.03-1.58,5.78-1.05,1.75-2.45,3.15-4.2,4.2-1.75,1.05-3.67,1.58-5.78,1.58h-36.75ZM429.71,561.65h35.75c.28,0,.53-.1.75-.29.22-.19.33-.43.33-.71v-35.75c0-.28-.11-.51-.33-.71-.22-.19-.47-.29-.75-.29h-35.75c-.28,0-.51.1-.71.29-.2.2-.29.43-.29.71v35.75c0,.28.09.51.29.71.19.2.43.29.71.29Z"/>
      <path class="cls-1" d="M492.61,572.71v-59.78h48.22c2.11,0,4.04.53,5.82,1.58,1.77,1.05,3.19,2.45,4.24,4.2,1.05,1.75,1.58,3.67,1.58,5.78v16.13c0,2.11-.53,4.05-1.58,5.82-1.05,1.77-2.47,3.17-4.24,4.2-1.78,1.03-3.71,1.54-5.82,1.54l-37.25.08v20.45h-10.98ZM504.58,541.11h35.75c.28,0,.53-.08.75-.25.22-.17.33-.39.33-.67v-15.3c0-.28-.11-.51-.33-.71-.22-.19-.47-.29-.75-.29h-35.75c-.28,0-.51.1-.71.29-.19.2-.29.43-.29.71v15.3c0,.28.1.5.29.67s.43.25.71.25ZM540.33,572.71l-18.04-21.53h14.38l15.63,18.46v3.08h-11.97Z"/>
      <path class="cls-1" d="M590.22,572.71v-48.8h-24.44v-11.06h59.86v11.06h-24.36v48.8h-11.06Z"/>
      <path class="cls-1" d="M637.59,572.71v-59.86h10.89v59.86h-10.89Z"/>
      <path class="cls-1" d="M695.4,572.71l-34.67-59.86h12.8l26.77,46.56,26.86-46.56h12.72l-34.67,59.86h-9.81Z"/>
      <path class="cls-1" d="M761.96,572.71c-2.11,0-4.03-.53-5.78-1.58-1.75-1.05-3.15-2.45-4.2-4.2-1.05-1.75-1.58-3.67-1.58-5.78v-36.75c0-2.11.53-4.03,1.58-5.78,1.05-1.75,2.45-3.14,4.2-4.2,1.74-1.05,3.67-1.58,5.78-1.58h36.75c2.11,0,4.03.53,5.78,1.58,1.75,1.05,3.14,2.45,4.2,4.2,1.05,1.75,1.58,3.67,1.58,5.78v36.75c0,2.11-.53,4.03-1.58,5.78-1.05,1.75-2.45,3.15-4.2,4.2-1.74,1.05-3.67,1.58-5.78,1.58h-36.75ZM762.37,561.65h35.75c.28,0,.53-.1.75-.29.22-.19.33-.43.33-.71v-35.75c0-.28-.11-.51-.33-.71-.22-.19-.47-.29-.75-.29h-35.75c-.28,0-.51.1-.71.29-.19.2-.29.43-.29.71v35.75c0,.28.1.51.29.71.19.2.43.29.71.29Z"/>
    </g>
  </g>
  <g>
    <path class="cls-2" d="M606.54,469.44c0,4.92-.53,9.69-1.55,14.3-6.54,29.88-33.14,52.23-64.99,52.23s-58.45-22.36-64.98-52.23c-1.02-4.61-1.55-9.39-1.55-14.3,0-2.78.17-5.51.51-8.2,2.13-1.58,4.73-2.56,7.57-2.66.99,8.95,3.96,17.29,8.5,24.57,10.37,16.68,28.87,27.78,49.96,27.78s39.57-11.1,49.95-27.76c4.54-7.28,7.53-15.62,8.51-24.58,2.84.1,5.44,1.08,7.57,2.66.33,2.69.5,5.42.5,8.2Z"/>
    <path class="cls-1" d="M606.54,462.27c0,4.92-.53,9.69-1.55,14.3-6.54,29.88-33.14,52.23-64.99,52.23s-58.45-22.36-64.98-52.23c-1.02-4.61-1.55-9.39-1.55-14.3,0-2.78.17-5.51.51-8.2,2.13-1.58,4.73-2.56,7.57-2.66.99,8.95,3.96,17.29,8.5,24.57,10.37,16.68,28.87,27.78,49.96,27.78s39.57-11.1,49.95-27.76c4.54-7.28,7.53-15.62,8.51-24.58,2.84.1,5.44,1.08,7.57,2.66.33,2.69.5,5.42.5,8.2Z"/>
    <path class="cls-2" d="M593.69,488.43c-8.63,19.67-29.41,33.52-53.68,33.52s-45.04-13.85-53.68-33.52c10.33,16.82,30.5,24.72,53.68,24.72s43.35-7.91,53.68-24.72Z"/>
  </g>
</svg>