<svg height="500mm" viewBox="-1116.707 -837.226 1616.707 1337.226" width="500mm" xmlns="http://www.w3.org/2000/svg" xmlns:xlink="http://www.w3.org/1999/xlink"><linearGradient id="a" gradientUnits="userSpaceOnUse" x1="-211.194" x2="-200.317" y1="42.455" y2="42.785"><stop offset="0" stop-color="#795800"/><stop offset=".5" stop-color="#dca200"/><stop offset="1" stop-color="#edd901"/></linearGradient><linearGradient id="b" gradientUnits="userSpaceOnUse" x1="-196.552" x2="-188.61" y1="34.425" y2="34.425"><stop offset="0" stop-color="#e8c204"/><stop offset=".25" stop-color="#f0c400"/><stop offset="1" stop-color="#f7ed05"/></linearGradient><linearGradient id="c" gradientUnits="userSpaceOnUse" x1="-210.595" x2="-190.213" xlink:href="#d" y1="67.711" y2="62.684"/><linearGradient id="d"><stop offset="0" stop-color="#808080"/><stop offset="1" stop-color="#fff"/></linearGradient><linearGradient id="e" gradientUnits="userSpaceOnUse" x1="-182.78" x2="-201.494" y1="63.778" y2="100.214"><stop offset="0" stop-color="#f3f3f3"/><stop offset=".5" stop-color="#e8e8e8"/><stop offset="1" stop-color="#dedede"/></linearGradient><linearGradient id="f" gradientUnits="userSpaceOnUse" x1="-1011.009" x2="-948.831" y1="-698.672" y2="-680.711"><stop offset="0" stop-color="#795800"/><stop offset=".5" stop-color="#dca200"/><stop offset="1" stop-color="#ebcb00"/></linearGradient><linearGradient id="g" gradientUnits="userSpaceOnUse" x1="-933.498" x2="-897.534" y1="-687.337" y2="-677.772"><stop offset="0" stop-color="#daa700"/><stop offset=".4" stop-color="#f1c801"/><stop offset="1" stop-color="#f1e402"/></linearGradient><linearGradient id="h" gradientUnits="userSpaceOnUse" x1="-1018.524" x2="-981.357" xlink:href="#d" y1="-664.69" y2="-654.694"/><linearGradient id="i" gradientUnits="userSpaceOnUse" x1="-1008.888" x2="-867.917" y1="-295.748" y2="-565.623"><stop offset="0" stop-color="#d6d6d6"/><stop offset=".231" stop-color="#dedede"/><stop offset=".59" stop-color="#e8e8e8"/><stop offset="1" stop-color="#f1f1f1"/></linearGradient><path d="m0 0h500v500h-500z" fill-rule="evenodd" stroke-width=".068"/><path d="m358.231 139.402-59.734-16.972 1.149 60.395 47.406-11.608z" fill="#ecc300"/><g fill-rule="evenodd"><path d="m-189.93 16.444c-6.245.16-12.136 2.32-16.939 5.928-6.985 5.249-11.669 13.561-11.79 23.24l-.403 32.238 57.698-22.377-3.748-33.49-16.153-4.465a29.633 29.633 0 0 0 -8.666-1.074z" fill="url(#a)" transform="matrix(2.86587 0 0 2.86587 899.947 118.122)"/><path d="m342.467 354.697 60.705 9.37-2.728-30.177-55.674-3.622z" fill="#6b5200"/><path d="m-189.124 16.436a27.06 27.06 0 0 0 -.807.008 29.117 29.117 0 0 0 -6.143.827l-1.68 33.555 8.637-2.427.803-31.948c-.27-.008-.54-.013-.81-.015z" fill="url(#b)" transform="matrix(2.86587 0 0 2.86587 899.947 118.122)"/><path d="m398.233 345.236 3.134-1.136 1.783 19.719-3.301-.713z" fill="#8a811d"/><path d="m346.732 353.986 56.44 10.08-.482-5.343-56.296-16.27z" fill="#fff"/><path d="m-188.078 47.524c-5.255.097-10.554 1.721-15.274 4.5-6.866 4.044-12.507 10.531-15.006 18.32a17.483 17.483 0 0 0 -.523 2.09 9.88 9.88 0 0 0 -.13 1.422l-.05 3.994 57.697-22.377-.21-1.877-19.426-5.224c-2.671-.718-4.724-.848-7.08-.848z" fill="url(#c)" transform="matrix(2.86587 0 0 2.86587 899.947 118.122)"/><path d="m-187.868 49.4c-5.254.098-10.554 1.722-15.274 4.502-6.865 4.043-12.506 10.53-15.005 18.318-.548 1.708-.836 3.623-.915 5.63-.163 4.15.649 8.728 2.468 12.924 2.7 6.227 7.566 11.589 14.546 13.37l19.508 4.98 9.199-23.305-15.89-4.593c-1.714-.497-3.864-2.416-3.236-4.017.846-2.158 3.356-2.02 4.65-1.646l16.627 4.805 9.827-24.895-19.425-5.224a25.41 25.41 0 0 0 -7.08-.848z" fill="url(#e)" transform="matrix(2.86587 0 0 2.86587 899.947 118.122)"/></g><path d="m358.231 139.402-51.901-22.217-2.008 12.806 52.023 14.781z" fill="#e8e8e8"/><path d="m257.556 145.972 9.028-46.103-73.393-7.359-8.061 33.033z" fill="#ecc300"/><path d="m193.191 92.51-1.348 5.523 64.955 18.455 2.009-16.322z" fill="#e8e8e8"/><path d="m233.16 177.418-43.146 141.724 72.708 21.408 46.584-140.718z" fill="#ebba00"/><path d="m227.482 155.596 14.425-49.245-8.747 71.067-10.228 33.597z" fill="#ad8f00"/><path d="m234.93 171.604-3.166 10.4 76.145 22.414 1.397-4.586z" fill="#e8e8e8"/><path d="m-854.385-835.654c-84.58-1.572-162.826 53.745-186.794 138.916l-58.63 208.345 367.359-99.358 28.136-212.615-102.735-28.392c-15.793-4.364-31.673-6.605-47.336-6.896z" fill="url(#f)" transform="matrix(.42925 0 0 .42925 537.816 471.822)"/><path d="m140.862 279.387-4.132 22.601 60.495 10.216 2.845-28.597z" fill="#6b5200"/><path d="m197.225 312.204 3.07-30.854-4.321-1.089-3.07 30.855z" fill="#f1d603"/><path d="m136.104 289.234 4.26 13.638 56.861 9.332.682-6.86z" fill="#fff"/><path d="m-859.717-835.677c-12.419.127-24.673 1.497-36.621 3.976l-56.522 218.733 59.739-16.157 53.14-205.647c-4.815-.458-9.621-.794-14.404-.882a185.2 185.2 0 0 0 -5.332-.023z" fill="url(#g)" transform="matrix(.42925 0 0 .42925 537.816 471.822)"/><path d="m-897.208-636.675c-38.329-.263-76.444 10.118-110.75 30.07-38.456 22.366-74.054 54.971-83.43 88.286l-8.422 29.93 367.36-99.362 1.477-11.162-114.174-30.706a205.688 205.688 0 0 0 -52.061-7.056z" fill="url(#h)" transform="matrix(.42925 0 0 .42925 537.816 471.822)"/><path d="m-898.685-625.513c-38.329-.263-76.444 10.118-110.75 30.07-45.594 26.517-79.115 67.041-90.375 107.055-16.897 60.043-3.828 115.38 24.949 158.63 28.776 43.248 73.26 74.415 119.187 86.137l117.514 29.994 44.707-158.226-108.387-27.295c-21.23-5.346-28.167-19.655-25.432-29.861 2.619-9.773 13.212-19.975 33.533-14.634l112.237 29.496 49.052-173.604-114.173-30.706a205.687 205.687 0 0 0 -52.062-7.056z" fill="url(#i)" transform="matrix(.42925 0 0 .42925 537.816 471.822)"/><path d="m241.907 106.351-1.396 4.587-8.747 71.067 1.396-4.587z" fill="#989898"/><path d="m198.893 69.144-5.702 23.366 48.716 13.841-8.747 71.067 76.146 22.414 1.859-73.802 47.066 13.372-1.167-25.318z" fill="#f3f3f3"/><path d="m233.16 177.418-6.283 20.637-7.137-9.851 8.668-61.897 13.499-19.956zm19.304 160.112 27.268-48.362-17.01 51.382z" fill-opacity=".25"/></svg>