<svg viewBox="237.71 452.76 524.58 94.88999999999999" xmlns="http://www.w3.org/2000/svg" width="2500" height="-3119"><linearGradient id="a" gradientUnits="userSpaceOnUse" x1="296.454" x2="343.351" y1="476.805" y2="476.805"><stop offset="0" stop-color="#3de78b"/><stop offset=".031" stop-color="#34c677"/><stop offset=".075" stop-color="#299d5e"/><stop offset=".125" stop-color="#1f7748"/><stop offset=".179" stop-color="#175734"/><stop offset=".239" stop-color="#103b24"/><stop offset=".306" stop-color="#0a2516"/><stop offset=".385" stop-color="#05140c"/><stop offset=".483" stop-color="#020905"/><stop offset=".62" stop-color="#000201"/><stop offset="1"/></linearGradient><linearGradient id="b" gradientUnits="userSpaceOnUse" x1="248.952" x2="294.453" y1="499.837" y2="545.338"><stop offset="0" stop-color="#3de78b"/><stop offset=".38" stop-color="#3de58a"/><stop offset=".517" stop-color="#3bde86"/><stop offset=".615" stop-color="#38d37f"/><stop offset=".694" stop-color="#33c275"/><stop offset=".761" stop-color="#2dac67"/><stop offset=".821" stop-color="#269057"/><stop offset=".875" stop-color="#1e7043"/><stop offset=".925" stop-color="#144a2d"/><stop offset=".969" stop-color="#092114"/><stop offset="1"/></linearGradient><linearGradient id="c" gradientUnits="userSpaceOnUse" x1="267.019" x2="313.915" y1="517.856" y2="517.856"><stop offset="0" stop-color="#3de78b"/><stop offset=".127" stop-color="#3ce388"/><stop offset=".258" stop-color="#39d681"/><stop offset=".392" stop-color="#33c275"/><stop offset=".527" stop-color="#2ba563"/><stop offset=".663" stop-color="#227f4c"/><stop offset=".8" stop-color="#155131"/><stop offset=".936" stop-color="#071c11"/><stop offset="1"/></linearGradient><linearGradient id="d" gradientUnits="userSpaceOnUse" x1="272.926" x2="319.823" y1="476.773" y2="476.773"><stop offset="0" stop-color="#3de78b"/><stop offset=".091" stop-color="#3bde86"/><stop offset=".24" stop-color="#34c677"/><stop offset=".428" stop-color="#2a9e5f"/><stop offset=".648" stop-color="#1b673e"/><stop offset=".892" stop-color="#092114"/><stop offset="1"/></linearGradient><linearGradient id="e" gradientUnits="userSpaceOnUse" x1="267.318" x2="314.214" y1="494.659" y2="494.659"><stop offset=".006" stop-color="#3de78b"/><stop offset=".132" stop-color="#3ce388"/><stop offset=".262" stop-color="#39d681"/><stop offset=".395" stop-color="#33c275"/><stop offset=".529" stop-color="#2ba563"/><stop offset=".665" stop-color="#227f4c"/><stop offset=".802" stop-color="#155131"/><stop offset=".936" stop-color="#071c11"/><stop offset="1"/></linearGradient><path d="M297.67 454.57c1.62-1.62 4.26-1.62 5.87 0l38.6 38.6c1.62 1.62 1.62 4.26 0 5.87-1.62 1.62-4.26 1.62-5.87 0l-38.6-38.6a4.152 4.152 0 0 1 0-5.87z" fill="url(#a)"/><path d="M250.67 501.56c1.62-1.62 4.26-1.62 5.87 0l38.6 38.6c1.62 1.62 1.62 4.26 0 5.87-1.62 1.62-4.26 1.62-5.87 0l-38.6-38.6c-1.61-1.61-1.61-4.26 0-5.87z" fill="url(#b)"/><path d="M268.23 495.62c1.62-1.62 4.26-1.62 5.87 0l38.6 38.6c1.62 1.62 1.62 4.26 0 5.87-1.62 1.62-4.26 1.62-5.87 0l-38.6-38.6a4.152 4.152 0 0 1 0-5.87z" fill="url(#c)"/><path d="M274.14 454.54c1.62-1.62 4.26-1.62 5.87 0l38.6 38.6c1.62 1.62 1.62 4.26 0 5.87-1.62 1.62-4.26 1.62-5.87 0l-38.6-38.6c-1.62-1.62-1.62-4.26 0-5.87z" fill="url(#d)"/><path d="M268.53 472.42c1.62-1.62 4.26-1.62 5.87 0l38.6 38.6c1.62 1.62 1.62 4.26 0 5.87-1.62 1.62-4.26 1.62-5.87 0l-38.6-38.6c-1.62-1.61-1.62-4.25 0-5.87z" fill="url(#e)"/><circle cx="350.97" cy="507.88" r="4.15"/><circle cx="241.86" cy="492.75" fill="#3de78b" r="4.15"/><text font-family="'SFProDisplay-Light'" font-size="23.5" transform="translate(377.055 537.534)">Hub Of Professional Software Solutions.</text><path d="M367.76 484.89c0-19.41 11.06-31.13 28.5-31.13 14.48 0 25.5 9.18 26.46 22.66h-12.27c-1.17-7.39-6.84-12.23-14.19-12.23-9.52 0-15.65 7.97-15.65 20.66 0 12.85 6.05 20.78 15.69 20.78 7.47 0 12.85-4.38 14.19-11.52h12.27c-1.42 13.44-11.73 21.95-26.5 21.95-17.52 0-28.5-11.72-28.5-31.17zM469.7 515.02h-11.77v-8.05h-.25c-2.21 5.63-6.64 8.89-13.4 8.89-9.68 0-16.11-6.3-16.11-16.74v-28.84h12.19v26.29c0 5.97 2.96 9.14 8.35 9.14 5.43 0 8.81-3.88 8.81-9.81v-25.62h12.19v44.74zM489.21 507.34h-.25v7.68h-12.02V454.8h12.19v23.25h.25c2.46-5.3 7.43-8.47 13.81-8.47 11.27 0 18.2 8.64 18.2 23.08 0 14.4-6.89 23.08-18.15 23.08-6.56-.01-11.57-3.18-14.03-8.4zm-.13-14.69c0 8.1 4.01 13.27 9.93 13.27 6.09 0 9.89-5.09 9.89-13.27 0-8.14-3.84-13.31-9.89-13.31-5.88 0-9.93 5.3-9.93 13.31z"/><ellipse cx="532.82" cy="459.06" fill="#3de78b" rx="6.51" ry="6.3"/><path d="M526.73 470.28h12.19v44.74h-12.19zM563.67 499.5l-8.39 15.52h-12.81l14.02-22.29-13.94-22.45h13.73l8.05 15.11h.25l7.93-15.11h13.27L571.8 492.4l13.86 22.62h-13.23l-8.51-15.52zM648.32 515.02v-25.37h-27.13v25.37h-12.6V454.8h12.6v24.46h27.13V454.8h12.6v60.22zM710.61 515.02h-11.77v-8.05h-.25c-2.21 5.63-6.63 8.89-13.4 8.89-9.68 0-16.11-6.3-16.11-16.74v-28.84h12.19v26.29c0 5.97 2.96 9.14 8.35 9.14 5.43 0 8.81-3.88 8.81-9.81v-25.62h12.19v44.74zM730.11 507.34h-.25v7.68h-12.02V454.8h12.19v23.25h.25c2.46-5.3 7.43-8.47 13.81-8.47 11.27 0 18.2 8.64 18.2 23.08 0 14.4-6.89 23.08-18.15 23.08-6.56-.01-11.56-3.18-14.03-8.4zm-.12-14.69c0 8.1 4.01 13.27 9.93 13.27 6.09 0 9.89-5.09 9.89-13.27 0-8.14-3.84-13.31-9.89-13.31-5.88 0-9.93 5.3-9.93 13.31z"/></svg>