<svg height="-3119" viewBox="237.71 452.76 524.58 94.89" width="2500" xmlns="http://www.w3.org/2000/svg"><path d="m297.67 454.57c1.62-1.62 4.26-1.62 5.87 0l38.6 38.6c1.62 1.62 1.62 4.26 0 5.87-1.62 1.62-4.26 1.62-5.87 0l-38.6-38.6a4.152 4.152 0 0 1 0-5.87zm-47 46.99c1.62-1.62 4.26-1.62 5.87 0l38.6 38.6c1.62 1.62 1.62 4.26 0 5.87-1.62 1.62-4.26 1.62-5.87 0l-38.6-38.6c-1.61-1.61-1.61-4.26 0-5.87zm17.56-5.94c1.62-1.62 4.26-1.62 5.87 0l38.6 38.6c1.62 1.62 1.62 4.26 0 5.87-1.62 1.62-4.26 1.62-5.87 0l-38.6-38.6a4.152 4.152 0 0 1 0-5.87zm5.91-41.08c1.62-1.62 4.26-1.62 5.87 0l38.6 38.6c1.62 1.62 1.62 4.26 0 5.87-1.62 1.62-4.26 1.62-5.87 0l-38.6-38.6c-1.62-1.62-1.62-4.26 0-5.87zm-5.61 17.88c1.62-1.62 4.26-1.62 5.87 0l38.6 38.6c1.62 1.62 1.62 4.26 0 5.87-1.62 1.62-4.26 1.62-5.87 0l-38.6-38.6c-1.62-1.61-1.62-4.25 0-5.87z"/><circle cx="350.97" cy="507.88" r="4.15"/><circle cx="241.86" cy="492.75" r="4.15"/><text font-family="'SFProDisplay-Light'" font-size="23.5" transform="translate(377.055 537.534)">Hub Of Professional Software Solutions.</text><path d="m367.76 484.89c0-19.41 11.06-31.13 28.5-31.13 14.48 0 25.5 9.18 26.46 22.66h-12.27c-1.17-7.39-6.84-12.23-14.19-12.23-9.52 0-15.65 7.97-15.65 20.66 0 12.85 6.05 20.78 15.69 20.78 7.47 0 12.85-4.38 14.19-11.52h12.27c-1.42 13.44-11.73 21.95-26.5 21.95-17.52 0-28.5-11.72-28.5-31.17zm101.94 30.13h-11.77v-8.05h-.25c-2.21 5.63-6.64 8.89-13.4 8.89-9.68 0-16.11-6.3-16.11-16.74v-28.84h12.19v26.29c0 5.97 2.96 9.14 8.35 9.14 5.43 0 8.81-3.88 8.81-9.81v-25.62h12.19v44.74zm19.51-7.68h-.25v7.68h-12.02v-60.22h12.19v23.25h.25c2.46-5.3 7.43-8.47 13.81-8.47 11.27 0 18.2 8.64 18.2 23.08 0 14.4-6.89 23.08-18.15 23.08-6.56-.01-11.57-3.18-14.03-8.4zm-.13-14.69c0 8.1 4.01 13.27 9.93 13.27 6.09 0 9.89-5.09 9.89-13.27 0-8.14-3.84-13.31-9.89-13.31-5.88 0-9.93 5.3-9.93 13.31z"/><ellipse cx="532.82" cy="459.06" rx="6.51" ry="6.3"/><path d="m526.73 470.28h12.19v44.74h-12.19zm36.94 29.22-8.39 15.52h-12.81l14.02-22.29-13.94-22.45h13.73l8.05 15.11h.25l7.93-15.11h13.27l-13.98 22.12 13.86 22.62h-13.23l-8.51-15.52zm84.65 15.52v-25.37h-27.13v25.37h-12.6v-60.22h12.6v24.46h27.13v-24.46h12.6v60.22zm62.29 0h-11.77v-8.05h-.25c-2.21 5.63-6.63 8.89-13.4 8.89-9.68 0-16.11-6.3-16.11-16.74v-28.84h12.19v26.29c0 5.97 2.96 9.14 8.35 9.14 5.43 0 8.81-3.88 8.81-9.81v-25.62h12.19v44.74zm19.5-7.68h-.25v7.68h-12.02v-60.22h12.19v23.25h.25c2.46-5.3 7.43-8.47 13.81-8.47 11.27 0 18.2 8.64 18.2 23.08 0 14.4-6.89 23.08-18.15 23.08-6.56-.01-11.56-3.18-14.03-8.4zm-.12-14.69c0 8.1 4.01 13.27 9.93 13.27 6.09 0 9.89-5.09 9.89-13.27 0-8.14-3.84-13.31-9.89-13.31-5.88 0-9.93 5.3-9.93 13.31z"/></svg>