<svg height="1288" viewBox="0 0 608.5 313.4" width="2500" xmlns="http://www.w3.org/2000/svg"><path d="m299.7 139.1c-4.3-2.4-5.9-6.3-6.6-10.7-.7-4.7.1-9.1 2.8-13.1 3.4-5 9.2-5.2 13-.4 4.5 5.6 4.4 16.8-.6 22.1-.6.7-1.3 1.2-2.2 2 6.1 12.5 12.2 25 18.4 37.7-3.8 2.6-6.1 6.1-5.9 11 .1 3.1 1.2 5.9 3.3 8 4.7 4.8 12 5.1 17.2.4 4.1-3.7 6-11.9.2-17.9.6-.6 1.4-1.2 1.9-1.9l13.5-19.2c3.6-5.1 7.2-10.3 10.9-15.5-2.5-2.9-2.8-6.5-2.3-10.1.9-5.9 3.5-10.9 8.9-13.8 5.5-3 10.2.4 11.2 5.3 1.6 7.4-.8 13.5-6.3 18.5-.8.8-1.9 1.3-3 1.8-.9.4-1.2.9-1.3 1.8-.3 5.7-.6 11.3-.8 17-.3 6.3-.6 12.6-.9 18.8 0 .3-.1.6-.1 1-4.2.9-7.4 3.3-9.1 7.3-1.4 3.4-1.3 6.8.3 10.1 2.8 5.8 10 8.4 16.1 5.7 5.8-2.6 9.9-10.8 4.6-18.6 4.7-4.1 9.4-8.1 14.1-12.2 6.4-5.6 12.8-11.1 19.2-16.7.6-.5 1-1 .6-2-2.3-5.5-1-10.5 2-15.3 1.7-2.7 3.9-4.9 6.8-6.2 6.6-3.1 11.6.5 11.9 7.4.1 3.2-.8 6.3-2.4 9.1-1.9 3.4-4.3 6.2-7.9 7.8-1.8.7-3.8.9-6 1.5-7.3 25.5-14.8 51.5-22.2 77.5-2.3-1-4.4-2-6.6-2.8-5.5-2.1-11-4.3-16.5-6.2-4.6-1.6-9.2-3-13.9-4.1-6.3-1.5-12.7-2.8-19.2-3.9-5.1-.9-10.2-1.8-15.3-2.2-8.2-.6-16.4-.9-24.6-1.1-8.6-.2-17.1.3-25.6 1.5-7.9 1.1-15.9 2.4-23.7 4.2-8.4 1.9-16.6 4.5-24.6 7.8-6.6 2.7-13.1 5.7-19.3 9.1-.2.1-.4.1-.7.2-8.2-26.6-16.4-53.2-24.5-79.7-1.7-.3-3.2-.4-4.7-.9-3.9-1.4-6.5-4.3-8.5-7.7-2.2-3.8-3.1-7.9-2.1-12.3s5.3-6.8 9.6-5.4c4.4 1.5 7.4 4.6 9.5 8.5 2 3.7 3 7.6 1.9 11.8-.3 1.2-1 2.4-1.6 3.8 12.2 10.1 24.6 20.3 37 30.7-2 2.7-3.3 5.9-2.7 9.5.4 2.5 1.3 4.8 3.1 6.6 4.2 4.4 9.6 4.9 13.9 3 5.6-2.4 7.8-7.6 7.4-12.2-.5-5.8-4.5-10.3-11.3-11.3l-1.2-15.6c-.5-7.3-.9-14.6-1.4-21.8 0-.7-.2-1.1-.9-1.3-3.7-1-6-3.6-7.7-6.8-1.8-3.4-2.9-7.1-2.5-10.9.4-3.5 1.3-6.9 4.7-9 2.3-1.4 4.5-1.3 6.7-.1 4.6 2.4 6.9 6.5 8 11.3.9 4 .9 7.9-1.1 11.7-.2.4-.1 1.2.2 1.6 2.9 4 5.8 8 8.7 11.9 4.7 6.3 9.3 12.7 14 19 1.3 1.8 2.7 3.6 4.1 5.4-2.1 3.1-3.2 6.5-2.2 10.5 1 3.7 3.2 6.4 6.5 8.1 5.5 2.8 12.6 1 16-5 3.6-6.4.7-13.8-5.4-17 2.3 0 2.7-1.6 3.3-3l7.5-18.6c1.9-4.7 3.9-9.3 5.8-13.9.4-.5.5-1.1.6-1.6zm6.9 174.3c-6.3-.2-12.6-.3-18.9-.7-5.6-.4-11.1-.9-16.6-1.8-6.5-1.1-12.9-2.5-19.3-4-6.8-1.6-13.4-4-19.6-7.2-3.8-2-7.5-4.3-10.4-7.6-5.6-6.3-5-12.3.5-18.1 3.7-3.9 8.4-6.6 13.3-8.6 4.5-1.8 9-3.5 13.6-4.9 4.3-1.3 8.8-2.2 13.3-3.1 4.2-.9 8.5-1.6 12.7-2.2 3.2-.5 6.3-.9 9.5-1 8.6-.4 17.1-1 25.7-.8 9.1.2 18.1.9 27.1 1.8 5.9.6 11.7 2 17.5 3 7.2 1.3 14.2 3.5 21 6.3 5 2 9.8 4.5 13.8 8.1 3.6 3.2 6.3 7 5.6 12.2-.4 2.8-1.8 5-3.6 7-3.5 3.9-7.8 6.7-12.5 8.7-5.3 2.2-10.7 4.3-16.2 6-4.3 1.3-8.7 2.1-13.2 2.9-4.1.8-8.3 1.4-12.4 2-4 .5-8 1-12.1 1.3-6.2.4-12.4.5-18.8.7zm57-37.2v-.8c-1.8-.7-3.7-1.5-5.5-2.1-6.2-2.1-12.6-3.5-19.1-4.3-6.7-.8-13.4-1.6-20.1-2.1-11.5-.9-23-.4-34.5.4-3.1.2-6.2.6-9.2 1-4.1.6-8.2 1.4-12.2 2.2-5.5 1.1-10.7 2.7-15.9 4.8-.9.4-1.8.9-2.9 1.5.6.3.8.5 1.1.6 3.1.9 6.2 2 9.4 2.7 5.2 1.1 10.4 2.2 15.6 2.9 6.9.9 13.9 1.6 20.8 2.1 10.5.8 21 .4 31.5-.4 3-.2 6-.5 8.9-1 5.4-.9 10.7-1.9 16-3.1 5.4-1.3 10.8-2.9 16.1-4.4zm-58.3 28.6v-.4c9.7 0 19.4-.3 29.1-1.8 2.7-.4 5.5-.5 8.1-1.1 5.5-1.3 11.1-2.6 16.5-4.2 4.4-1.3 8.6-3.2 12-6.3 1.8-1.6 3.2-3.5 2.9-6.2-.1-1-.5-1.4-1.6-1-3.3 1-6.6 1.9-9.9 2.6-5.9 1.3-11.8 2.6-17.8 3.6-4.9.9-9.8 1.5-14.7 2-7 .7-14 1.3-21.1 1.6-10.5.4-21-.1-31.4-1.6-6.1-.9-12.1-1.7-18.1-3-7-1.5-13.9-3.6-20.9-5.4-1.2-.3-1.5-.2-1.6 1.1-.3 2.6.9 4.6 2.8 6.2 4.9 4.3 11 6.2 17.1 7.9 2.9.9 5.9 1.5 8.9 2 4.3.8 8.6 1.8 13 2.1 8.8.9 17.8 1.3 26.7 1.9z" fill="#955023"/><path d="m206 12.2c-.2-.4-.5-.8-.8-1.3h-2.6c-.9 0-1.4-.2-1.4-1.2 0-.5-.1-.9-.2-1.3-.2-.9.2-1.5 1.1-1.6 3-.4 6-.7 9-1.1 4-.5 8-1 12-1.6 5.9-.9 11.7-2 17.6-1.4 3.8.4 7.2 1.8 10.2 4.2 1 .8 2 1.7 3 2.6.1.3.1.6.3.8 1.7 2.3 2.9 4.8 3.3 7.7.4 3.2 0 6.3-1.3 9.2-1.8 3.8-4.9 6.5-8.6 8.3-1.2.6-1 1.1-.5 1.8.5.8 1.1 1.5 1.7 2.3 2.5 3.5 5.1 7 7.6 10.5l7.8 11.1c.9 1.2 2 2.3 3.7 2.3 1.2.5 2.4 1.1 3.7 1.6 1.2.5 1.7 1.3 1.6 2.5-1 .4-1.9.9-2.9 1-3.7.2-7.4.2-11.1.5-1.5.1-2.9.6-4.4.9-2.1.7-3-.6-4-2.2-3.3-5.9-6.8-11.8-10.2-17.6-1.2-2-2.3-4-3.5-6-.2-.3-.5-.5-.7-.7-.5-2.1-2.1-3.6-4.2-3.7h-3.3c-3.4.1-3.5.3-3 3.8.5 3.2 1 6.4 1.3 9.6.3 2.6.3 5.1.4 7.7.2 4.8.2 4.8 4.8 5.7h.3c1.3.2 2.7.5 4 .7 1.1.2 1.8.6 1.8 1.9 0 .5.2 1 .4 1.4-.5.4-.9 1-1.4 1.1-2 .2-4 .3-6 .3-2.5.1-5-.2-7.4.1-4.9.6-9.8 1.4-14.7 2.1-1 .2-1.9.5-2.6-.6-.1-.2-.8-.2-1.2-.1-3.6.5-7.2 1-10.7 1.6-1.3.2-2.5 1-3.8 1.5-2.2.5-3-1.1-3.9-2.5-4.5-6.4-8.9-12.8-13.5-19.2-.8-1.1-1.8-2.1-2.6-3.1-.5-2-2.7-3.9-4.6-3.8s-3.7.4-5.5.7c-.8.1-1.2.6-1 1.5.6 2.4 1.1 4.9 1.6 7.4.9 4.9 1.8 9.9 2.6 14.8.2 1 .4 1.8 1.5 1.9 1 .1 2.1.2 3.1.3 1.4.1 2.9.2 4.3.4 1.7.1 1.9.4 2.2 2 .1.5.3 1.1.4 1.6-1.2 1.4-3 1.2-4.6 1.4-2.8.5-5.7.8-8.5.9s-5.3 1-7.9 1.6c-.2.1-.5.2-.7.3h-.1c-1.8.4-3.5.9-5.3 1.3-.2 0-.4.1-.6.1-.4.1-.9.2-1.3.3h-2.5c-.1-.6-.2-1.2-.4-1.8-.3-.9.1-1.5.9-1.8 1.7-.8 3.5-1.6 5.3-2.3 1.3-.5 1.5-1.3 1.3-2.5-.6-3.4-1.2-6.8-1.8-10.1-.7-3.9-1.5-7.8-2.2-11.8-.9-5-1.7-9.9-2.6-14.9-.8-4.7-1.7-9.4-2.6-14.1-.3-1.3-.6-2.6-1-4.1-1.3.2-2.3.3-3.4.5-1.1 0-2.3-.1-3.4.1-.9.1-1.3-.2-1.5-1-.1-.5-.3-1-.4-1.5-.2-.9.1-1.4 1.1-1.6 3.4-.6 6.9-1.2 10.2-1.9 4-.9 7.9-2 11.9-2.9 5.2-1.3 10.5-2.7 16-2.6 4.9.1 9.1 1.8 12.8 5 .7.7 1.5 1.3 2.3 1.9.1.2.2.3.3.5.2.5.4 1 .7 1.5.7 1.6 1.6 3.1 2 4.7.7 3.1.6 6.3-.6 9.4-1 2.5-2.3 4.8-4.4 6.5-1.4 1.1-2.9 2.2-4.5 3.5 1.2 1.3 2.3 2.4 3.4 3.7 5 5.9 10 11.8 15 17.8 1.3 1.5 2.5 3.3 4.6 3.8 1.7.4 3.4 1.1 5.1 1.2 1.3.1 2.8-.1 4.1-.5 2.9-1 2.9-1.1 2.6-4.2-.8-8.5-1.7-16.9-2.4-25.4-.4-4.5-.7-9.1-1-13.6-.3-3.3-.6-6.5-1-9.8-.1-.6-.3-1.2-.5-1.7v-2.2c0-1.1-.6-1.5-1.6-1.5-1.3.3-2.5-.2-2.5 1.4zm-34.8 8.9c-1.6-2.8-4.3-3.6-7.2-4-3.4-.4-6.6.6-9.9 1.7 1.5 8.5 3 17 4.6 25.7 1.5-.4 2.6-.8 3.8-1.1 2-.5 4-.9 5.9-1.7 4.3-1.7 6.7-5.2 6.6-9.8-.1-3.7-1.1-7.2-3.2-10.4-.2 0-.4-.2-.6-.4zm58.2 13.6c1.9-.3 3.8-.4 5.6-.9 2.9-.9 5.3-2.5 6.4-5.5 2.1-5.4 1-10.5-1.9-15.4-1-1.7-2.6-2.9-4.4-3.6-4.1-1.6-8.2-.9-12.3 0 .7 8.7 1.5 17.3 2.2 25.9 1 0 1.7.1 2.5 0 .7 0 1.3-.3 1.9-.5z" fill="#aa762b"/><path d="m400.6 271.1c-3.6-2.4-6.8-4.8-10.2-6.9-5.8-3.5-11.9-6.3-18.3-8.5-4.2-1.4-8.5-2.9-12.8-3.9-5.5-1.3-11-2.2-16.5-3.1-4.5-.7-9.1-1.3-13.7-1.6-10.2-.8-20.5-1.1-30.7-.4-6.2.5-12.3.8-18.5 1.5-4.6.5-9.2 1.3-13.8 2.1-3.6.6-7.3 1.3-10.9 2.1-3.7.9-7.5 1.8-11.1 3-4.5 1.5-9 3-13.3 4.8-6.1 2.5-11.9 5.5-16.3 10.7l-.7.7c-3.7-5.7-5.6-11.7-4.3-18.5.2-1.1.7-2.2.7-3.4.1-1.9 1.3-2.6 2.7-3.3 6-3.2 12.2-6 18.6-8.2 5.1-1.8 10.1-3.6 15.3-5.1 5.3-1.5 10.7-2.7 16.1-3.9 3.7-.8 7.5-1.6 11.3-2.2s7.7-1.2 11.6-1.4c8.8-.6 17.6-1.2 26.4-1.2 7.3 0 14.6.7 21.8 1.5 6.1.7 12.2 1.7 18.3 2.9 5.1 1 10 2.6 15 4 6.7 1.8 13.2 4.3 19.5 7.1 4.6 2 9.1 4.3 13.6 6.4.9.4 1.3 1 1.3 2.1.1 2.5.6 4.9.5 7.4-.2 4.1-.8 8.2-1.3 12.3.1.9-.1 1.9-.3 3z" fill="#6a0c0d"/><path d="m440.2 77c.3.2.5.4.8.5 1.8.2 2.5 1.2 2.2 2.9-.3.7-.7 1.3-1.1 2.2-1.9-.5-3.8-.9-5.7-1.4-4.4-1.1-8.8-2.3-13.3-3.2-3.8-.8-7.8-.4-11.7-1.8-2.9-1.1-6.2-1.3-9.3-1.6-3.6-.4-7.2-.6-10.8-.9-1.7-.1-3.5-.2-5.2-.3-.1-.1-.2-.2-.3-.2.1-.4.3-.8.3-1.3.1-1.6.4-2 2.1-2.2l3.6-.6c2-.4 2.8-1.9 1.9-3.5-.8-1.4-1.5-2.9-2.4-4.3-3.5-5.6-7.1-11.1-10.6-16.7-1.3-2.2-2.7-4.3-4.2-6.7-.2.7-.4.9-.4 1.2l-.9 8.4-.9 8.7c-.2 2.6-.5 5.1-.7 7.7 0 .5.1 1.2.4 1.4 1.4.8 2.8 1.4 4.2 2.1.4.3.9.6 1.3.9.8.7 2.3 1 2 2.6 0 1-.3 1.7-1.5 1.6-4.4-.6-8.8-1.3-13.3-1.9-4.1-.5-8.3-.9-12.4-1.4-1.7-.2-3.4-.3-5.1-.5-.4-2.1 0-2.9 1.8-3.6s3.7-1.5 5.6-1.8c3.3-.5 3.5-1.7 3.9-4.3.8-5.9 1.3-11.8 1.9-17.7.5-4.6 1.2-9.1 1.7-13.7.7-6 2.1-11.9 1.6-17.9-.1-1.3-1.9-2.7-3.8-3.1-1.2-.6-2.4-1.2-3.6-1.9-1.4-.7-1.9-2.9-.7-4 .4-.3 1.2-.3 1.7-.2 3.1.6 6.1 1.3 9.2 1.8 2.6.5 5.3 1 7.9 1.2 3.6.3 7.3.4 10.9.5.4 0 .7 0 1.1.1 1.6.3 1.8.5 1.5 2.1-.1.7-.2 1.4.6 1.8-2.8.4-5.7.7-8.5 1.1-2.2.3-2.7.9-2.8 3.1-.1 1.7-.2 3.4-.4 5.1-.6 5.3-1.4 10.5-2 15.8-.1.4-.1.8-.2 1.6 2.4-1.7 4.5-3 6-5.1.4-.2.8-.3 1.2-.6 5.2-4.6 10.5-9.2 15.7-13.9.5-.5.8-1.3 1.2-2 .8-.2 1.7-.5 1.4-1.4-.2-.5-1.1-.7-1.7-1-.3-.1-.6 0-.9 0-1.5-.5-3-.9-4.5-1.4-.2-.3-.3-.7-.5-1 .2-1 .3-2.1.5-3.3 9.1 1.9 18.2 2.9 27.5 3.1-.1 1.3-.2 2.5-.3 3.6-.2.1-.4.3-.6.4-3.4.8-6.9 1.4-10.2 2.5-2 .6-3.9 1.8-5.7 3-1.3.8-2.4 2-3.6 3-.5.2-1 .4-1.4.7-1.2.9-2.4 1.9-3.6 2.9l-8.4 6.9c-.7.6-1 1.2 0 1.7.9 1.4 1.8 2.7 2.7 4.2 4 6.6 8.1 13.3 12.1 19.9 1.7 2.8 3.1 5.7 4.8 8.5 1.6 2.7 2.9 5.7 6.4 6.6 1.4 1.3 2.9 1.3 4.5.7.1 0 .3-.1.4-.1 1.6 0 2.5-.9 2.8-2.3.7-3.2 1.4-6.4 2-9.6l2.7-14.4c.9-4.8 1.9-9.6 2.9-14.4.6-2.7 1.2-5.4 1.6-8.1.3-1.8.3-3.7.4-5.5 1-.6.6-1.3 0-1.8-.7-.5-1.6-.7-2.4-1l-2.7-.9c-.7-.3-1.5-.5-2.2-.8v-1.9c.2-.8.3-1.6.6-2.6 9.9 2.6 19.8 4.9 30.1 5.7-.2 1.3-.3 2.3-.5 3.2-.5.3-.9.8-1.4.9-2 .3-4.1.5-6.2.6-1.4.1-2 .7-2.2 2-.3 2-.6 4.1-1 6.1-.7 3.7-1.6 7.3-2.3 10.9-.6 3.2-1.2 6.3-1.8 9.5-.7 3.6-1.3 7.1-2 10.7-.5 2.8-1.1 5.6-1.7 8.4-.4 2.4-.8 4.8-1.2 7.3 0 .3.2.9.4 1 1.6.4 3.2.9 4.7 1.4zm69.6 27.4c-3-.3-4.3-2.3-5.4-4.9-3.7-8.7-7.8-17.2-11.7-25.7-2.2-4.8-4.2-9.8-6.5-14.6-2.2-4.8-4.6-9.5-7-14.2-.2-.3-.6-.5-.9-.8-.1-2.5-1.7-4.3-2.8-6.4-.2-.4-.4-.8-.5-1.3h-.4c-.2.9-.4 1.7-.7 2.6l-5.7 18.6c-.3 1.1-.8 2.2-1.1 3.2-.1.8-.3.8-.4 1.6-.5 1.3-.4 1.1-.5 1.3-.4 1.7-.7 3.5-1 5.2-.1.6-.1 1.2-.3 1.7-.9 3-1.9 6.1-2.7 9.1-.3 1-.1 2 1.1 2.5s2.5 1.1 3.7 1.7c.8.3 1.6.6 2.5 1 1.1.4 1.4 1.3 1.2 2.4-.4.9-.8 1.8-1.3 2.8-.8-.3-1.7-.6-2.6-.9-4.2-1.6-8.4-3.3-12.6-4.8-1.3-.5-2.8-.6-4.2-.9-.7-.1-1.4-.2-2-.3-.6-.3-1.3-.7-1.9-.9-.8-.2-1.2-.6-1.2-1.5.3-1 .7-2 1.1-3.2 1.8.6 3.5 1.1 5.1 1.6.2.1.4.2.6.2 3.1.8 3.7.5 4.8-2.6 2.2-6.2 4.3-12.5 6.4-18.7 2-5.9 3.9-11.9 5.8-17.8 1-3.2 1.9-6.5 2.6-9.7.6-2.9-.4-5.1-2.9-7.1-1.7-1.3-3.2-2.7-5.1-3.7-.3-.1-.5-.8-.4-1.1.1-.8.4-1.6.7-2.7 2.1.6 4.1 1.1 6 1.7 4.4 1.3 8.8 2.7 13.3 4.1.9.3 1.6.7 1.9 1.7.2.6.6 1.1.9 1.6 0 .2 0 .3.1.4l6.3 13.5 6.6 14.4c2.4 5.2 4.7 10.5 7.1 15.8 1.3 2.9 2.6 5.8 3.9 8.6.8 1.8 1.7 3.6 2.6 5.5.2.3.5.6.7.8.2 0 .3 0 .5-.1.2-1.4.3-2.7.5-4.1.2-.3.5-.6.6-.9 1.5-5.5 3.1-11 4.6-16.4 1.6-6 3.3-12.1 4.9-18.1.5-1.7.3-2.2-1.1-3.2-1.7-1.2-3.4-2.6-5.1-3.7-1.5-1-.6-2.1-.3-3.1.3-1.2 1.4-.7 2-.5 2.7.7 5.3 1.6 7.9 2.4 4.2 1.2 8.3 2.4 12.7 3.6-.3.8-.5 1.5-.7 2.1-.2 1.1-.9 1.5-1.9 1.4-1.4-.1-2.9-.2-4.3 0-3.4.6-4.1.7-4.4 4.3v.2c-.5 1.5-.9 3.1-1.4 4.6-.1-.2-.2-.3-.4-.6-1.1 4-2.2 7.7-3.3 11.5-1.8 6.2-3.6 12.4-5.3 18.6-.5 1.7-.8 3.5-1.2 5.3-.3.9-.7 1.8-1 2.7-1.4 4.2-2.8 8.3-4 12.6-.6 1.2-1 2-2.5 1.6zm89.6-13.5c-.3.1-.6.1-.8.3-.5.5-.8 1.5-1.7 1-1-.6-2.3-1.1-2.3-2.7 0-1.9-.1-3.7-.2-5.6-.2-4.3-1.9-8.1-4.5-11.4-.4-.5-1-.9-1.4-1.4-.2-.1-.4-.3-.6-.4-.1-.3-.1-.6-.3-.8-2.8-2.4-6-3.9-9.7-4.1-5.4-.2-10.3 1.5-14.6 4.7-4.4 3.3-7.8 7.5-10.7 12.2-2.8 4.5-5.1 9.2-6.2 14.4-.9 4.3-1.2 8.6-.1 12.9 1 4 3.3 7 6.4 9.6.4.3 1 .4 1.5.6 2.4 1.8 5.1 2.8 8 3.4 1.9.3 3.4-.6 4.3-2 2.7-4.3 5.4-8.6 7.9-13 .6-1 .5-2.2-.5-3.2-1.4-1.4-2.6-2.9-4-4.3-1.1-1.1-.3-1.9.3-2.7s1.2-1.1 2.3-.4c4.5 2.9 9.1 5.6 13.7 8.4 2.5 1.5 5 2.8 7.4 4.3.5.3.6 1 .9 1.5-1.2 2.3-3.2 2.5-5.4 1.8-.2-.1-.5 0-.8 0-1.5-.3-2.4.5-3.1 1.7-3 5-6 10.1-9 15.1-1 1.6-2 2-3.8 1.6-2-.4-4-.8-6-1.4-4.5-1.4-9.1-2.6-13.1-5.3-.2-.1-.5-.1-.7-.2-1.5-.9-3.1-1.8-4.6-2.7-.2-.1-.3-.2-.5-.3-4.4-3.2-8.6-6.6-11.3-11.5-3-5.7-4.1-11.7-3.4-18 .7-6.5 3-12.5 6.7-18 4.4-6.6 10.2-11.7 17.6-14.7 6.9-2.8 13.9-3 21.1-1 4.1 1.1 7.8 2.8 11.2 5.3 2.9 2.1 5.8 4.1 8.7 6.2.7.5 1.1 1.3 1.6 1.9.1.3.1.6.3.8.8 1 1.6 1.9 2.3 3 1 1.5 2.1 2.9 1.1 4.9-.8 1.4-1.4 2.9-2 4.3-.7 1.7-1.3 3.5-2 5.2zm-500.4 1.4c2.2 1.2 4.6 1.5 7 1.3 5.5-.6 10.3-2.8 14.1-6.9 3.2-3.5 4-7.7 3.4-12.1-.8-6.6-3.4-12.7-5.6-18.9-1.9-5.4-4.1-10.6-6.2-15.9-.7-1.7-1.4-3.3-2.1-5-.5-1.7-1.2-3.2-3.2-3.5-2.2-.6-4 .5-6 1.1-1.2.4-1.8.4-1.9-1-.1-.8-.5-1.5-.8-2.4 7.2-2.3 14.4-4.5 21.9-6.9.3.7.8 1.7 1 2.8.1.3-.3.9-.7 1.1-1 .6-2.1 1-3.1 1.6-.4.2-.6.6-.9.9-.3.2-.6.3-.9.5-1.3.6-1.5 1.5-.7 2.7.5.9.8 2 1.1 3 1.3 3.7 2.5 7.3 3.8 11 1.5 4.2 3.1 8.5 4.6 12.7.8 2.2 1.5 4.4 2.1 6.6.8 2.8 1.9 5.6 2.3 8.4.4 3 0 6 0 9-.1.2.1-.2 0 0-1.7 4.3-4.4 8.5-8.2 11.2-.5.4-1.3.8-1.7 1.2-.7.5.4-.1-1.9 1.2-.3.2-.6.3-1 .5-3.6 1.3-7 2.9-10.8 3.7-4.8.9-9.5 1.2-14.2-.1-.5-.1-1.1-.1-1.6-.1l-.6-.3c-3.5-2.1-6.4-4.9-8.3-8.5-1.2-2.3-2.3-4.7-3.2-7.2-2.9-8.5-5.6-17.1-8.4-25.6-.8-2.4-1.6-4.9-2.5-7.3-.2-.5-.5-.8-.8-1.3-.6-3.5-2-4.3-4.7-3.4l-1.2.3c-.8 0-1.6-.1-2.3.2-.7.2-1.4.1-2-.3-.8-.6-.8-1.5-1.2-2.3s0-1.2.7-1.4c3.3-.9 6.7-1.8 10-2.8 3.2-1 6.3-2 9.5-3 3.5-1.2 6.9-2.5 10.5-3.7.3.9.6 1.7.9 2.5.3 1 .3 1.6-1 2-1.5.4-2.9 1.1-4.3 1.7-.8.4-1.4 1-2.1 1.5-.1.7-.5 1.4-.3 1.9 1.3 4.4 2.6 8.7 4 13.1.7 2.3 1.6 4.6 2.4 7 .7 2.1 1.3 4.1 2 6.2 1.3 3.6 2.6 7.1 3.9 10.7 1.3 3.5 2.6 7 5.2 9.8 1 1.1 1.9 2.3 3.6 2.4.2-.2.3-.1.4.1zm-99 1.5v-6.1c1-10.7 6.2-18.9 15.2-24.8 5.5-3.6 11.4-6.6 17.6-8.8 1.4-.5 2.4-.4 3.5.7 1 1 2.2 1.8 3.3 2.7.3.3.6.6 1 .9 1.4 1.5 2.7 2.9 4.1 4.4.3.6.7 1.1 1 1.7.1.3.3.7.2.9-.6 1.3-3.4 2.1-4.8 1.6-1.5-.6-3-1.1-4.6-1.6-1.6-.4-3.4-.6-5-1.1-2.9-.9-5.7 0-8.4.8-1.6.4-3 1.4-4.5 2.2-2.1.6-3.5 2.1-4.5 3.9-.1.1-.2.3-.2.4v.1h-.1c-.7 1.4-1.8 2.8-2.1 4.3-1.3 6.8 0 13.2 2.9 19.4 2.2 4.8 5 9.3 8.2 13.4 1.5 2 3.4 3.7 5.1 5.5.2.2.7.3 1 .4.1.2.2.3.3.5.3.2.5.3.8.5 2 1.3 3.9 2.8 6 3.7 4.7 2.2 9.5 1.5 14.1-.6 3.4-1.5 5.9-4.1 7.6-7.4 1.5-2.9 2.4-6 2.8-9.2.3-2.2.4-4.3.4-6.5 0-1.5 1.3-1.8 2-2.6.4-.5 1.1-.7 1.7-1.1.9 1.8 1.7 3.5 2.6 5.2.1.5.2 1.1.4 1.6.8 2.2 1.7 4.4 2.5 6.6.1.4.2.9 0 1.2-.8 1.5-1.5 3.2-2.6 4.4-2.2 2.5-4.7 4.8-7.1 7.1l-.3.3h-.1c-2.4 1.6-4.8 3.1-7.2 4.7-.1.1-.1.3-.2.4-1.2.5-2.4 1.1-3.6 1.6-2.4.9-4.8 2-7.3 2.7-3.3.9-6.7.9-10.2.5-3.4-.4-6.5-1.2-9.6-2.6l-3-1.2c-3.5-2.3-6.6-5-9.3-8.2-4.9-5.9-8.2-12.7-9.6-20.2.1-.8.1-1.6 0-2.3zm308.4-93.7c2.8.1 5.6.2 8.5.2s5.8-.2 8.8-.3h2.1c.7 2.1.4 3.3-.7 4-1.1.3-2.3.5-3.4.9-1.8.7-3.1 2-3.7 3.9-.9 1.2-1.8 2.3-2.6 3.6l-12 19.8c-1 1.6-1.7 3.4-2.5 5.1-.3.6-.8 1.2-.9 1.9-.2 3.4-.3 6.9-.2 10.3.1 4.2.4 8.4.5 12.6 0 .7.3 1.2 1 1.3 1.2.2 2.5.3 3.7.5.3.1.7.1 1 .2 3.2.6 3.2.6 3.7 3.6-.3 1-1.1.7-1.7.8-6 .3-11.9-1.2-18-.6-2.4.2-4.9.4-7.3 1-.6-.1-1.2-.2-1.8-.2-.9 0-1.7.2-2.6.2-2.2 0-2.1 0-2.2-2.2 0-1.1.7-1.4 1.5-1.6 2.3-.6 4.7-1.1 7.1-1.6 1.1-.2 1.6-.6 1.6-1.9-.2-5.8-.2-11.7-.3-17.5 0-2.3-1-4.2-2.1-6.1-2.8-4.3-5.6-8.6-8.3-12.9-3-4.8-5.8-9.7-8.8-14.6-.5-.8-1.2-1.5-1.8-2.3-.5-1.4-1.2-2.6-2.8-2.9-1.1-.3-2.2-.8-3.3-1-1.4-.2-1.8-.9-1.6-2.2.1-.4.1-.8.1-1.5h7.2c6.6.1 13.2 1.1 19.9.3 1.1-.1 2.2-.2 3.3-.2.2 0 .4.1.9.2-.2 1.4-.3 2.7-.5 4.1-2.3.3-4.6.7-6.9 1-1 .2-1.5.6-.9 1.7 1.2 2 2.3 4.1 3.5 6.1 3.5 5.8 6.9 11.6 10.4 17.4.8 1.3 1.6 2.5 2.4 3.7h.4c.2-.7.5-1.3.7-2 1.1-1.6 2.3-3.1 3.4-4.8 2.7-4.3 5.3-8.5 7.9-12.9 1.1-1.9 2.1-4 3.1-6 .2-.4 0-.9 0-1.4 1.2-.1 1.1-1 1-1.8-.1-.4-.6-.7-1-1.1l-1 1c-.4-.7-.8-1.4-1.9-1.5-3.6-.3-3-.4-3.2-3.4.3-.5.3-.7.3-.9z" fill="#aa762b"/><path d="m88.9 99.9c.6 0 1.1 0 1.6.1 4.7 1.4 9.4 1 14.2.1 4-.8 7.6-2.6 11.3-3.9.9-.3 1.6-1 2.4-1.5.9-.3 1.8-.6 2.5-1 4.3-2.6 7-6.3 7.4-11.5 0-3 .3-6.1 0-9-.3-2.7-1.4-5.3-2.2-8-.6-2.1-1.2-4.1-2-6.2-1.6-4.5-3.3-9.1-5-13.6-1.3-3.6-2.6-7.3-3.8-11-.3-1-.6-2.1-1.1-3-.7-1.3-.5-2.1.7-2.7.3-.2.6-.3.9-.5l5.4-1.8c.2-.1.4-.2.5-.3 2.3-1 3.5-.3 3.6 2.2 0 .4-.4.9-.8 1.1-1.4.8-2.9 1.5-4.4 2.3s-1.8 1.2-1.3 2.9c.9 2.8 1.9 5.5 2.8 8.3 1.3 3.7 2.7 7.4 4.1 11.2 1.5 4.2 3.2 8.4 4.5 12.8 1.2 3.9 2.2 8 2.9 12 .9 5.2-1 9.7-4.2 13.7-3 3.8-6.9 6.4-11.3 8.3-5.3 2.4-10.8 3.9-16.7 3.7-4.3-.1-8.5-1.1-11.9-4.2.2.1.1-.2-.1-.5z" fill="#6e0e10"/><path d="m509.8 104.4c1.5.4 1.9-.4 2.3-1.7 1.2-4.2 2.6-8.4 4-12.6.3-.9.7-1.8 1-2.7.4.8.8.5.9-.1 1.1-3.9 2.2-7.8 3.4-11.7 1.3-4.7 2.7-9.5 4-14.2.8-2.9 1.3-5.8 2-8.7.5-1.5.9-3.1 1.4-4.6v-.2c.3-3.7 1-3.7 4.4-4.3 1.4-.2 2.8-.1 4.3 0 1.1 0 1.8-.3 1.9-1.4 1.8.5 3.6 1.1 5.3 1.6.1.2.1.3.1.3-.7 3.3-.7 3.2-4 3.2-1.7 0-3.4.2-5 .6-.8.2-1.7 1.1-1.9 1.9-2.1 6.9-4.1 13.9-6.1 20.8-2.6 8.9-5.3 17.7-8 26.6l-3 9.9c-.1.5-.4.9-.6 1.4-1.4-.4-2.6-.8-4-1-1.7-.3-1.8-1.8-2.4-3.1zm44.3 15.8c-.5-.2-1.1-.3-1.5-.6-3.1-2.5-5.5-5.6-6.4-9.6-1.1-4.3-.8-8.6.1-12.9 1.1-5.2 3.4-9.9 6.2-14.4 2.9-4.6 6.3-8.9 10.7-12.2 4.3-3.2 9.2-5 14.6-4.7 3.7.2 6.9 1.7 9.7 4.1.2.2.2.5.3.8-.6-.1-1.2-.2-1.7-.3-5.6-1.6-10.8-.3-15.7 2.5-5.5 3.2-9.4 8-12.8 13.2-2.4 3.7-4.4 7.7-5.7 11.9-1.9 6-2.5 12-.2 18 .6 1.5 1.6 2.8 2.4 4.2zm-113.9-43.2c-1.6-.5-3.1-1-4.7-1.6-.2-.1-.4-.7-.4-1 .4-2.4.8-4.8 1.2-7.3.5-2.8 1.1-5.6 1.7-8.4.7-3.6 1.3-7.1 2-10.7.6-3.2 1.1-6.3 1.8-9.5.7-3.7 1.6-7.3 2.3-10.9.4-2 .7-4.1 1-6.1.2-1.3.8-1.9 2.2-2 2.1-.1 4.1-.3 6.2-.6.5-.1 1-.6 1.4-.9 1.7.2 3.4.4 5 .6.1.2.1.3.1.4 0 3.1-.5 3.7-3.5 4-2 .2-4.1.4-6.3.5-.6 3.7-1.2 7.1-1.9 10.5-.7 3.5-1.5 7-2.1 10.5-.5 2.6-.9 5.3-1.4 7.9l-2.1 10.8c-.8 4.3-1.5 8.5-2.3 12.8 0 .4-.1.7-.2 1zm-380 41.4c.2-.1.3-.2.4-.3 2.4-2.4 4.9-4.6 7.1-7.1 1.1-1.2 1.8-2.9 2.6-4.4.2-.3.1-.8 0-1.2-.8-2.2-1.7-4.4-2.5-6.6-.2-.5-.3-1.1-.4-1.6.7-.5 1.4-1 2.2-1.5 1.2 2.8 2.4 5.4 3.5 8.1.4.9.5 2 1 2.8 1.9 3.2.3 5.8-1.6 8.3-3 3.9-6.9 6.9-11 9.7-4.2 2.9-8.7 5.2-13.5 6.8-3.8 1.3-7.8 1.4-11.9.9-5.7-.7-10.7-2.9-15.4-6-.7-.4-1.1-1.1-1.7-1.7l3 1.2c3.1 1.4 6.2 2.2 9.6 2.6 3.5.4 6.9.4 10.2-.5 2.5-.7 4.9-1.7 7.3-2.7 1.2-.5 2.4-1.1 3.6-1.6.8-.3 1.6-.6 2.3-1 2-1.1 4-2.2 5.2-4.2zm246.8-54.8c-1.2-.1-2.5-.3-3.7-.5-.7-.1-1-.5-1-1.3-.1-4.2-.4-8.4-.5-12.6-.1-3.4.1-6.9.2-10.3 0-.6.6-1.3.9-1.9.3.4.5.9.9 1.5 1.9-3.1 3.5-5.6 5.2-8.1 4.1-5.9 7.5-12.1 10.6-18.5.5-1 1.1-2.1.4-3.2.6-1.9 1.9-3.2 3.7-3.9 1.1-.4 2.2-.6 3.4-.9l2.4-.3c.7 0 1.4-.1 2.1-.1.5 0 1 .1 1.5.1v3.6c-.8.2-1.6.6-2.4.7-3 .4-4.9 2.3-6.4 4.8-3.2 5.4-6.4 10.9-9.6 16.3-2.2 3.6-4.5 7.2-6.7 10.8-.4.7-.7 1.6-1 2.4 0 1.6-.1 3.1-.1 4.7v8.9c0 .4 0 .9.1 1.3-.1 2.3 0 4.4 0 6.5z" fill="#6c0d0f"/><path d="m29 114.8c-.3-.1-.8-.2-1-.4-1.7-1.8-3.6-3.6-5.1-5.5-3.2-4.2-6-8.6-8.2-13.4-2.9-6.2-4.2-12.6-2.9-19.4.3-1.5 1.4-2.8 2.1-4.3l.1-.1c.1-.1.2-.3.2-.4l4.5-3.9c1.5-.7 2.9-1.7 4.5-2.2 2.7-.8 5.5-1.7 8.4-.8 1.6.5 3.4.7 5 1.1 1.5.4 3.1 1 4.6 1.6 1.3.5 4.2-.4 4.8-1.6.1-.2 0-.7-.2-.9-.3-.6-.7-1.1-1-1.7.2-.1.3-.3.5-.4 2.1 2.1 4.1 4.2 6.4 6.5-1.4.9-2.5 1.7-3.7 2.3-.3.2-.8 0-1.2-.2-5-2-10-3.7-15.5-2.8-6.3 1-11.5 3.8-14.1 10-1.6 3.8-1.4 7.9-.5 12 1.6 8 5.7 14.7 10.3 21.2.6 1 1.3 2.1 2 3.3zm372.9-94.3c1.2-1 2.3-2.2 3.6-3 1.8-1.1 3.7-2.3 5.7-3 3.3-1.1 6.8-1.7 10.2-2.5.2-.1.4-.2.6-.4.9 0 1.8 0 2.7.1v1.9c.7.3 1.5.5 2.2.8-.1 1.3-.8 1.8-2.1 1.8-1.1 0-2.2.3-3.3.5-3.4.7-6.8 1.4-9.6 3.5-6.3 4.7-12.4 9.7-18.6 14.5-.8.6-.5 1.2-.2 1.8.5.8 1.1 1.5 1.6 2.3 4.5 7.3 9 14.6 13.4 21.9 2.2 3.6 4.2 7.4 6.2 11.1-3.5-.9-4.8-3.9-6.4-6.6-1.7-2.8-3.1-5.7-4.8-8.5-4-6.7-8-13.3-12.1-19.9l-2.7-4.2c3.6-3.1 7.2-6.2 10.7-9.3 1.1-.9 2-1.9 2.9-2.8z" fill="#6e0e10"/><path d="m552.5 125.4c.2 0 .5 0 .7.2 4 2.7 8.6 3.9 13.1 5.3 2 .6 4 1 6 1.4 1.9.4 2.9 0 3.8-1.6 3-5 6-10.1 9-15.1.7-1.2 1.6-2 3.1-1.7h.8c2.2.7 4.1.4 5.4-1.8l4.8 2.7c-.3 2.5-1.3 3.4-3.5 3.2-.6 0-1.1 0-1.7-.2-1.9-.7-3.1.2-4 1.7-2.2 3.8-4.5 7.6-6.8 11.4-.9 1.5-1.7 2.9-2.8 4.3-.4.5-1.4 1-2 .9-2.7-.4-5.4-.9-8-1.5-5.7-1.4-10.8-4.1-15.9-7-.9-.5-1.6-1.1-2.4-1.7.2-.2.3-.3.4-.5z" fill="#6c0d0f"/><path d="m190.8 76.8c1.3-.5 2.5-1.3 3.8-1.5 3.6-.7 7.2-1.1 10.7-1.6.4-.1 1.1-.1 1.2.1.7 1.2 1.6.8 2.6.6 4.9-.8 9.8-1.6 14.7-2.1 2.5-.3 5-.1 7.4-.1 2 0 4-.1 6-.3.5-.1.9-.7 1.4-1.1 1.3.3 2.6.5 3.9.9.2.1.5.5.5.8.1 1 0 2.1 0 3.5-3 .1-5.9.3-8.8.2-5.6-.2-11.1.7-16.6 1.7-1.7.3-3.4.5-5.1.7-.4 0-.8-.4-1.2-.6s-.8-.4-1.2-.4c-5 .5-9.9 1.1-14.7 2.6-1.3.4-2.4.6-3.1-.9-.2-.9-.9-1.7-1.5-2.5z" fill="#6e0e10"/><path d="m467 84c-1.2-.6-2.4-1.2-3.7-1.7-1.2-.5-1.4-1.5-1.1-2.5.8-3.1 1.8-6.1 2.7-9.1.2-.6.4-1.1.5-1.7.3-.6.4-1.1.5-1.7.4-1.3 1-2.4 1.3-3.7.1-.8.3-.9.4-1.8.4-.5.5-1.8.8-2.3.5-1.1.9-2.3 1.2-3.5 1.5-4.8 3-9.6 4.5-14.3.4-1.3.8-2.6 1.3-3.8 1.1 2.1 2.7 3.9 2.8 6.4-.7 2.4-1.4 4.8-2.2 7.2-1.9 6.5-3.9 13-5.8 19.5-1.1 3.7-2 7.4-3 11.1-.1.5-.1 1.2-.2 1.9z" fill="#6c0d0f"/><path d="m98.7 91.9c-1.7-.1-2.6-1.3-3.6-2.4-2.6-2.8-3.9-6.3-5.2-9.8-1.3-3.6-2.7-7.1-3.9-10.7-.7-2-1.3-4.1-2-6.2-.8-2.3-1.7-4.6-2.4-7-1.4-4.3-2.7-8.7-4-13.1-.2-.6.2-1.3.3-1.9 1.1-.3 2.2-.6 3.3-1 2-.7 4-1.6 6-2.3.6-.1 1.3-.3 2.1-.5.4 1.2.9 2.3 1.4 3.8-1.3.6-2.7 1.3-4.1 1.7-4.4 1.3-5.1 2.4-3.6 6.8 1.9 5.6 3.9 11.1 5.8 16.6 1.3 3.9 2.4 7.9 3.8 11.7 1.6 4.2 3.4 8.3 5.2 12.5.2.7.6 1.3.9 1.8zm169.2-28.2c-1.7 0-2.8-1.1-3.7-2.3l-7.8-11.1c-2.5-3.5-5.1-7-7.6-10.5-.6-.8-1.2-1.5-1.7-2.3s-.7-1.3.5-1.8c3.8-1.8 6.8-4.5 8.6-8.3 1.4-2.9 1.7-6 1.3-9.2-.3-2.9-1.5-5.4-3.3-7.7-.2-.2-.2-.6-.3-.8 5.3 3.5 8.6 8.1 8.5 14.7-.1 7.8-4.7 12.5-11 15.6zm-65 5.1c-2.1-.6-3.3-2.3-4.6-3.8-5-5.9-10-11.9-15-17.8-1.1-1.3-2.2-2.4-3.4-3.7 1.6-1.2 3-2.3 4.5-3.5 2.1-1.7 3.5-4 4.4-6.5 1.2-3.1 1.3-6.2.6-9.4-.4-1.6-1.3-3.1-2-4.7-.2-.5-.4-1-.7-1.5 3 1.4 4.9 3.9 6.3 6.7 3.8 7.8.9 16.7-6.6 21.4-.5.3-1 .7-1.7 1.1l4.2 4.8c4.4 5.2 8.7 10.5 13.1 15.7zm241.8 11.9c-.1.9.4 1.2 1.2 1.5.7.2 1.3.6 1.9.9-.2 1-.3 2.1-.5 3.4-1.7-.4-3.2-.7-4.8-1.1-3.7-.9-7.3-2.1-11-2.8s-7.5-1-11.3-1.5c-1.2-.2-2.6.1-3.5-1.2-.1-.2-.6-.1-.9-.2-7.6-1.4-15.2-2.2-22.9-2.6-2.3-.1-2.4-.3-1.9-2.7.1-.2.1-.5.2-.7 3.6.3 7.2.4 10.8.9 3.1.4 6.4.6 9.3 1.6 3.8 1.4 7.8 1 11.7 1.8 4.5.9 8.9 2.1 13.3 3.2 1.9.5 3.8.9 5.7 1.4.4-.8.8-1.5 1.1-2.2.6.1 1.1.2 1.6.3zm69.1-.8c-.2 1.4-.3 2.7-.5 4.1-.2 0-.3 0-.5.1-.2-.3-.6-.5-.7-.8-.9-1.8-1.7-3.6-2.6-5.5-1.3-2.9-2.6-5.7-3.9-8.6-2.4-5.3-4.7-10.5-7.1-15.8l-6.6-14.4-6.3-13.5c-.1-.1 0-.3-.1-.4 2.8 0 4 2 5 4.2 2.5 5.4 4.9 10.7 7.4 16.1 3.4 7.4 6.8 14.7 10.1 22.1 2 4.1 3.9 8.2 5.8 12.4z" fill="#6e0e10"/><path d="m394.2 8.2c.2.3.3.7.5 1-.2 2.3-.2 2.3-2.4 2.8-1.9.4-3.9.6-5.8.8-1.7.2-2.2.5-2.4 2.1-.6 4.8-1.1 9.7-1.7 14.6-1.4 2.2-3.6 3.5-6 5.1.1-.8.1-1.2.2-1.6.7-5.3 1.4-10.5 2-15.8.2-1.7.3-3.4.4-5.1.1-2.2.6-2.8 2.8-3.1 2.8-.3 5.7-.7 8.5-1.1 1.3.2 2.6.3 3.9.3z" fill="#6c0d0f"/><path d="m153.6 83.1s.1 0 0 0c.3-.1.5-.2.8-.3 2.6-.7 5.1-1.6 7.9-1.6 2.8-.1 5.7-.4 8.5-.9 1.6-.3 3.4 0 4.6-1.4 1.3.2 2.7.3 4.1.5.1.5.2.8.2 1.2.4 3.1.3 3.2-2.8 3.5-2.8.3-5.5.6-8.3.8-4.9.3-9.5 2-14.3 3.1-1.7.4-3.3.8-5 1.2-1.2-1.6-1.2-2.7 0-4.1 1.4-.8 2.9-1.4 4.3-2z" fill="#6e0e10"/><path d="m232.6 66.7h-.3c-4.7-.9-4.7-.9-4.8-5.7-.1-2.6-.1-5.2-.4-7.7-.3-3.2-.8-6.4-1.3-9.6-.6-3.5-.5-3.7 3-3.8h3.3c2.1.1 3.7 1.5 4.2 3.7-1.1 0-2.2 0-3.3.2-.7.1-1.5.3-2.4.5.7 7.4 1.3 14.9 2 22.4zm-64.1 8.2c-1-.1-2.1-.1-3.1-.3-1.1-.2-1.4-.9-1.5-1.9-.8-5-1.7-9.9-2.6-14.8-.5-2.5-1-4.9-1.6-7.4-.2-.9.2-1.4 1-1.5 1.8-.3 3.7-.6 5.5-.7 1.9-.1 4.1 1.8 4.6 3.8-2 .3-4.1.6-6.4.9.7 3.3 1.3 6.4 1.9 9.4.7 4.1 1.4 8.3 2.2 12.5z" fill="#6c0d0f"/><path d="m284.8 68.5c2.4-.5 4.8-.7 7.3-1 6-.6 12 .9 18 .6.7 0 1.5.2 1.7-.8 1.4.2 2.9.5 4.4.8v3.5c-2.8 0-5.7.1-8.5 0-6.7-.3-13.4-.5-20 .5-.7.1-1.4.1-2.1.1-2.5 0-3.1-1-2-3.5h.1l.1-.1c.3.1.6 0 1-.1zm15.3-36c-.2.7-.5 1.3-.7 2h-.4c-.8-1.2-1.7-2.5-2.4-3.7-3.5-5.8-7-11.6-10.4-17.4-1.2-2-2.4-4.1-3.5-6.1-.6-1-.1-1.5.9-1.7 2.3-.3 4.6-.7 6.9-1 1.6-.2 3.2-.4 5-.7.1 1.2.3 2.2.1 3.1-.1.5-.8 1.1-1.3 1.2-1.8.5-3.7.7-5.5 1.1-1.6.3-2 .9-1.1 2.3 1.9 3.1 3.8 6.2 5.7 9.4 2.2 3.7 4.5 7.6 6.7 11.5zm54.2 36.6c4.1.5 8.3.9 12.4 1.4 4.4.6 8.9 1.2 13.3 1.9 1.2.2 1.5-.6 1.5-1.6 1.4.8 2.8 1.5 4.3 2.3.1.1.2.2.3.2v2.9c-10.8-1.4-21.4-2.7-32.2-4.1.1-.8.2-1.9.4-3z" fill="#6e0e10"/><path d="m599.4 90.9c.6-1.7 1.2-3.5 1.9-5.2.6-1.5 1.3-2.9 2-4.3 1.1-2 0-3.4-1.1-4.9-.7-1-1.6-2-2.3-3-.2-.2-.2-.5-.3-.8 1.6 1.3 3.2 2.6 4.7 4 1 .9 1.6 2.2 2.5 3.2 1.7 1.9 1.7 4.1.9 6.3-1.2 2.9-2.7 5.7-4.2 8.5-.3.6-1 1.3-1.7 1.4-.8.2-2.5-1.7-2.5-2.5.1-.9.1-1.8.1-2.7z" fill="#6c0d0f"/><path d="m254.7 70.1c1.5-.3 2.9-.8 4.4-.9 3.7-.2 7.4-.2 11.1-.5 1-.1 2-.7 2.9-1 1.2.4 2.3.9 3.5 1.4.4.2.9.6 1.1 1 .8 1.8.5 2.3-1.6 2.4-4.8.3-9.6.6-14.4 1-1.1.1-2.3.3-3.4.7-.9.3-1.4 0-1.8-.8zm195.2 13.4c1.4.3 2.9.5 4.2.9 4.2 1.5 8.4 3.2 12.6 4.8.9.3 1.8.6 2.6.9.5-1 .9-1.9 1.3-2.8 1.1.4 2.1.9 3.2 1.3 1.7.7 1.8 1 1.3 2.7-.1.2-.1.4-.2.6-.5 2.3-.5 2.3-2.8 1.4-5.9-2.5-11.7-4.9-18-6.4-1.6-.4-3.3-.8-5-1.3.4-.9.6-1.5.8-2.1zm-343.4-52.3c2 .4 2.7 1.8 3.2 3.5-1.3.4-2.6.9-3.9 1.3-1.8.6-2.2.6-2.5-1.2-.1-.5-.2-1-.4-1.5 0-.2-.1-.4-.1-.7 1.2-.5 2.4-1 3.7-1.4zm-47.1 15.4c.4-.1.8-.1 1.2-.3 2.7-1 4.1-.2 4.7 3.4-1.8.4-3.5.8-5.5 1.3-.5-1.3-1-2.5-1.5-3.8.4-.3.7-.5 1.1-.6zm78.1-24.6c1.1-.1 2.1-.3 3.4-.5.3 1.5.7 2.8 1 4.1-1.4.1-2.8.2-4.2.4-.3-1.1-.6-2-.7-2.9-.1-.4.3-.7.5-1.1z" fill="#6e0e10"/><path d="m206 12.2c0-1.6 1.2-1.2 2.1-1.2 1 0 1.6.4 1.6 1.5v2.2h-1c-2.5.1-2.5.1-2.7-2.5z" fill="#6c0d0f"/><path d="m361.8 6.5c1.9.3 3.7 1.8 3.8 3.1-1.1-.5-2.1-.9-3.2-1.4-.7-.3-1.1-.8-.6-1.7zm-97.6-1.6c1.6.4 2.3 1.6 2.8 2.9-.9-.2-1.8-.4-2.8-.6z" fill="#6e0e10"/><path d="m45.1 62.4c-.2.1-.3.3-.5.4-1.4-1.5-2.7-2.9-4.1-4.4 1.6 1.3 3.1 2.7 4.6 4z" fill="#965223"/><path d="m313.4 5.6 1-1c.3.4.9.7 1 1.1.1.7.3 1.7-1 1.8-1.5 0-.8-1.2-1-1.9z" fill="#6a0c0d"/><path d="m552.5 125.4c-.1.1-.2.3-.3.4-1.4-1-2.9-2.1-4.3-3.1 1.6.9 3.1 1.8 4.6 2.7z" fill="#6e0e10"/><path d="m306.8 47c0-1.6.1-3.1.1-4.7-.1 1.6-.1 3.2-.1 4.7zm0 10.2c0-.4 0-.9-.1-1.3.1.5.1.9.1 1.3z" fill="#aa762b"/><path d="m40.6 58.4c-.3-.3-.6-.6-1-.9.4.4.7.6 1 .9z" fill="#965223"/><path d="m547.5 122.4c.2.1.3.2.5.3-.2-.1-.4-.2-.5-.3zm-517.5-6.7c-.3-.2-.5-.3-.8-.5.3.2.6.3.8.5z" fill="#6e0e10"/><path d="m587.8 70.7c.2.1.4.3.6.4-.2-.2-.4-.3-.6-.4z" fill="#6c0d0f"/><path d="m186.7 18c-.1-.2-.2-.3-.3-.5.1.2.2.3.3.5zm-98.4 81.6.6.3zm-59 15.6c-.1-.2-.2-.3-.3-.5.1.2.2.4.3.5zm69.7-22.9c-.1-.1-.3-.2-.4-.3.2 0 .3.1.4.3z" fill="#6e0e10"/><path d="m283.7 68.8-.2.1c.1-.1.2-.1.2-.1z" fill="#aa762b"/><path d="m239.6 12.9c-3.5-.7-6.9-.5-10.4-.1-1.2.2-1.5.6-1.4 1.8.6 6.7 1.1 13.4 1.6 20.1-.6.2-1.2.5-1.9.6s-1.5 0-2.5 0c-.7-8.6-1.5-17.2-2.2-25.9 4.2-.9 8.3-1.6 12.3 0 1.9.6 3.4 1.8 4.5 3.5zm-76.7 8.5c-.9.2-1.8.6-2.8.7-1.2.1-1.2.9-1 1.7.5 2.9 1.1 5.7 1.6 8.6.6 3.7 1.2 7.4 1.8 11-1.2.3-2.4.7-3.8 1.1-1.6-8.7-3.1-17.2-4.6-25.7 3.3-1.1 6.5-2.1 9.9-1.7 2.9.3 5.6 1.2 7.2 4-.1.1-.3.1-.4.2-.2 0-.4-.1-.7-.1-.5-.1-1-.2-1.6-.4h-1.1c-.9.1-1.8.3-2.8.4-.4 0-.8.1-1.3.1 0 .1-.2.1-.4.1z" fill="#6c0d0f"/><path d="m170.9 21.3c.1-.1.3-.1.4-.2.2.2.3.4.5.6-.4-.2-.7-.3-.9-.4z" fill="#aa762b"/><path d="m154.4 82.8c-.2.1-.5.2-.7.3.2-.1.5-.2.7-.3z" fill="#e6d6ce"/><path d="m380.6 44.6-.9 8.7c-.5 4.7-1 9.3-1.6 14-1.4-.7-2.9-1.3-4.2-2.1-.3-.2-.4-.9-.4-1.4.2-2.6.4-5.1.7-7.7l.9-8.7.9-8.4c0-.3.2-.5.4-1.2 1.5 2.5 2.9 4.6 4.2 6.8z" fill="#6c0d0f"/><path d="m431.9 18.1c-.9-.2-1.8-.3-2.7-.5.1-.9.2-1.6.3-2.3.8.3 1.7.5 2.4 1s1.1 1.2 0 1.8zm-31.5-5c-1.6-.2-1.4-1.3-1.3-2.4.3 0 .6-.1.9 0 .6.3 1.6.5 1.7 1 .4.9-.5 1.2-1.3 1.4z" fill="#6e0e10"/><path d="m116 28.4c-.3.2-.6.3-.9.5.3-.2.6-.4.9-.5z" fill="#fff"/><path d="m13.9 71.6-.1.1h.1zm46.7 46.5-.3.3z" fill="#e6d6ce"/><path d="m164.7 21.2c.9-.1 1.8-.3 2.8-.4-.9.2-1.8.3-2.8.4zm3.9-.3c.5.1 1 .2 1.6.4-.5-.2-1-.3-1.6-.4zm-5.7.5c.2 0 .4-.1.6-.1-.2.1-.4.1-.6.1z" fill="#aa762b"/></svg>