<svg height="649" viewBox="-.651 -.02379256 147.083 38.02379256" width="2500" xmlns="http://www.w3.org/2000/svg"><path d="m10.81 35.933a5.844 5.844 0 0 1 -2.262.416c-2.878 0-4.887-1.829-4.887-5.117a4.826 4.826 0 0 1 4.887-5.118 7.653 7.653 0 0 1 2.236.357l-.08 1.651a4.659 4.659 0 0 0 -1.848-.4c-1.888 0-3.119 1.443-3.119 3.511 0 2.127 1.138 3.51 3.079 3.51a4.294 4.294 0 0 0 1.914-.416zm1.38.249v-9.922h1.981v3.957h3.548v-3.957h1.978v9.922h-1.977v-4.19h-3.548v4.19zm10.918-3.715c0 1.264.522 2.276 1.78 2.276s1.821-.982 1.821-2.261v-6.218h1.981v6.188a3.585 3.585 0 0 1 -3.815 3.9 3.466 3.466 0 0 1 -3.749-3.808v-6.278h1.981zm6.996-1.234c0-3.035 1.579-5.117 4.377-5.117 2.838 0 4.392 2.023 4.392 5.117 0 3.049-1.566 5.117-4.392 5.117a4.774 4.774 0 0 1 -1.9-.357c-1.62-.744-2.476-2.425-2.476-4.76m4.377 3.585c1.768 0 2.316-1.934 2.316-3.585s-.549-3.585-2.316-3.585-2.3 1.978-2.3 3.585a5.345 5.345 0 0 0 .5 2.395 2 2 0 0 0 1.807 1.19m63.603 1.115a5.848 5.848 0 0 1 -2.263.416c-2.877 0-4.886-1.829-4.886-5.117a4.826 4.826 0 0 1 4.886-5.118 7.653 7.653 0 0 1 2.236.357l-.08 1.651a4.659 4.659 0 0 0 -1.848-.4c-1.887 0-3.12 1.443-3.12 3.511 0 2.127 1.139 3.51 3.08 3.51a4.292 4.292 0 0 0 1.914-.416zm1.065-4.7c0-3.035 1.579-5.117 4.378-5.117 2.838 0 4.391 2.023 4.391 5.117 0 3.049-1.567 5.117-4.391 5.117a4.773 4.773 0 0 1 -1.9-.357c-1.62-.744-2.476-2.425-2.476-4.76m4.378 3.585c1.767 0 2.316-1.934 2.316-3.585s-.549-3.585-2.316-3.585-2.3 1.978-2.3 3.585a5.342 5.342 0 0 0 .5 2.395 2 2 0 0 0 1.808 1.19m12.535 1.364v-9.922h1.982v8.166h3.842v1.756zm9.393 0v-8.166h-2.8v-1.756h7.591v1.756h-2.8v8.166zm6.183 0v-9.922h3.132c2.893 0 4.727 1.547 4.727 4.82 0 3.391-2.049 5.1-4.968 5.1zm1.982-1.516h.629c2.1 0 3.173-1.309 3.173-3.585 0-2.083-1.057-3.3-2.946-3.3h-.852zm-22.498.313a1.272 1.272 0 1 1 -1.277-1.27 1.284 1.284 0 0 1 1.272 1.272m1.281 2.517a2.133 2.133 0 0 0 1.619-1.838 1.194 1.194 0 0 1 -.784.257 1.106 1.106 0 0 1 -1.119-1.131 1.123 1.123 0 0 1 1.184-1.131 1.415 1.415 0 0 1 1.361 1.53 2.621 2.621 0 0 1 -2 2.815zm30.355-2.642a1.273 1.273 0 1 1 -1.274-1.273 1.284 1.284 0 0 1 1.274 1.273m-100.494-.648a5.149 5.149 0 0 0 2.249.565c.7 0 1.567-.283 1.567-1.295 0-.7-.5-1.071-1.5-1.532l-.723-.342a2.614 2.614 0 0 1 -1.7-2.544c0-2.275 1.955-2.945 3.414-2.945a5.816 5.816 0 0 1 2.1.312l-.067 1.711a4.416 4.416 0 0 0 -1.9-.431c-.682 0-1.553.238-1.553 1.19 0 .655.589 1 1.285 1.309l.589.268a2.879 2.879 0 0 1 2.115 2.8c0 2.365-1.914 3.079-3.481 3.079a7.262 7.262 0 0 1 -2.49-.4zm7.277 1.973v-9.922h3.16c1.888 0 3.574.8 3.574 3.05 0 2.305-1.686 3.213-3.561 3.213h-1.232v3.659zm1.928-5.147h.7c1.071 0 2.115-.223 2.115-1.71 0-1.175-.75-1.592-1.995-1.592h-.817zm6.215 5.147v-9.922h3.535c1.539 0 3.146.625 3.146 2.6a2.36 2.36 0 0 1 -2.061 2.44c.764.193 1.085.655 1.459 1.681l1.138 3.2h-2.142l-.8-2.483c-.4-1.205-.63-1.622-1.606-1.622h-.723v4.106zm1.928-5.578h.9c.91 0 1.861-.342 1.861-1.517 0-1.146-.843-1.353-1.807-1.353h-.959zm10.569 5.579v-9.922h2.891l3.3 8.122v-8.122h1.754v9.922h-2.905l-3.291-8.106v8.106zm13.751-4.074v-1.443h3.494v5.118a7.15 7.15 0 0 1 -2.918.565 4.711 4.711 0 0 1 -5.007-5.117 4.945 4.945 0 0 1 5.167-5.118 7.122 7.122 0 0 1 2.6.446l-.08 1.666a4.692 4.692 0 0 0 -2.25-.55 3.23 3.23 0 0 0 -3.361 3.555c0 2.067 1 3.555 3 3.555a3.5 3.5 0 0 0 1.1-.149v-2.528z" fill="#231815"/><path d="m66.308 27.147h2.053v9.039h-2.053zm2.44-2.377a1.414 1.414 0 1 1 -1.414-1.414 1.427 1.427 0 0 1 1.414 1.414m-36.414-16.851 1.163-7.336h4.942l-3.01 19.013h-4.943l1.233-7.792h-7.137l-1.235 7.792h-4.941l3.012-19.013h4.942l-1.161 7.336zm26.224-7.336-1.7 10.692c-.387 2.444-.872 4.868-3.055 6.707a10.372 10.372 0 0 1 -6.639 2.118c-2.22 0-4.629-.553-5.97-2.118-1.6-1.84-1.316-4.263-.929-6.707l1.693-10.692h4.943l-1.586 10.01c-.39 2.471-.643 5.171 2.536 5.171s3.782-2.7 4.174-5.171l1.584-10.01zm14.493 7.336 1.164-7.337h4.94l-3.015 19.013h-4.936l1.235-7.792h-7.136l-1.235 7.792h-4.943l3.01-19.012h4.946l-1.164 7.337zm17.554 3.898h-3.816l2.782-5.359h.049zm.633 3.784.892 3.995h5.271l-4.149-19.013h-5.4l-10.323 19.013h5.242l2.054-3.995zm13.864 3.995h-4.938l2.348-14.828h-4.748l.662-4.185h14.432l-.664 4.185h-4.744zm19.541-14.084a5.787 5.787 0 0 0 -3.436-1.3c-.908 0-2.2.531-2.37 1.59-.178 1.109.9 1.5 3.3 2.6a5.34 5.34 0 0 1 3.371 5.794 5.69 5.69 0 0 1 -2.8 4.572 8.887 8.887 0 0 1 -5.351 1.333 10.5 10.5 0 0 1 -6.34-2.169l1.946-4.052a9.094 9.094 0 0 0 4.821 1.945c1.159 0 2.547-.49 2.758-1.826.221-1.386-1.461-2.109-2.462-2.546-2.833-1.24-4.824-2.572-4.376-5.378.617-3.857 3.646-6 7.456-6a8.864 8.864 0 0 1 5.007 1.218zm21.789-4.929-1.695 10.692c-.388 2.444-.871 4.868-3.053 6.707a10.385 10.385 0 0 1 -6.642 2.118c-2.22 0-4.629-.553-5.969-2.118-1.6-1.84-1.318-4.263-.931-6.707l1.7-10.692h4.942l-1.588 10.01c-.392 2.471-.643 5.171 2.537 5.171s3.783-2.7 4.173-5.171l1.586-10.01zm-135.559 14.865c-3.28 0-5.619-2.42-5.225-5.4a6.694 6.694 0 0 1 6.652-5.41 5.309 5.309 0 0 1 4.816 2.529l.937-5.652a10.706 10.706 0 0 0 -5.607-1.515c-6.096 0-11.633 4.5-12.365 10.043s3.619 10.042 9.71 10.042a12.915 12.915 0 0 0 5.386-1.2l.944-5.686a7.124 7.124 0 0 1 -5.248 2.247" fill="#d22730"/></svg>