<svg height="2500" viewBox="161.41 121.06 676.79000002 757.89" width="2023" xmlns="http://www.w3.org/2000/svg" xmlns:xlink="http://www.w3.org/1999/xlink"><linearGradient id="a" gradientUnits="userSpaceOnUse" x1="229.55" x2="534.21" y1="158.37" y2="945.14"><stop offset="0" stop-color="#03031c"/><stop offset=".3" stop-color="#05031b"/><stop offset=".44" stop-color="#0c061b"/><stop offset=".56" stop-color="#1a0b1b"/><stop offset=".65" stop-color="#2c121b"/><stop offset=".74" stop-color="#441c1b"/><stop offset=".82" stop-color="#62271a"/><stop offset=".89" stop-color="#86351a"/><stop offset=".96" stop-color="#ae4419"/><stop offset="1" stop-color="#cc5019"/></linearGradient><linearGradient id="b" x1="326.27" x2="758.66" xlink:href="#a" y1="679.82" y2="66.44"/><path d="m454.38 878.64-292.45-754.8c-.52-1.34.47-2.78 1.91-2.78h104.09c.86 0 1.64.54 1.93 1.36l196.41 549.01c15.84 44.1 29.11 85.44 39.79 124.03" fill="url(#a)"/><path d="m718.83 220.58c-47.2 53.74-91.73 119.81-133.59 198.18-41.86 78.38-73.99 159.77-96.38 244.18-22.05 83.08-33.74 154.14-35.08 213.19-.04 1.56 1.23 2.82 2.78 2.82h87.9c1.45 0 2.65-1.13 2.75-2.57 5.31-74.45 19.38-143.01 37.77-205.69 25.84-89.92 62.44-177.42 109.81-262.52 47.12-84.66 94.68-152.61 142.67-203.85.48-.51.74-1.18.74-1.87v-68.49a2.77 2.77 0 0 0 -2.77-2.77h-480.96c-2.47 0-3.71 2.99-1.96 4.73l79.3 84.73" fill="url(#b)"/></svg>