<svg viewBox="-0.24 -0.001915381965753582 500.24 100.40191538196575" xmlns="http://www.w3.org/2000/svg" width="2500" height="502"><g opacity=".5"><path d="M76.82 3.43c-.9-1.47-2.5-2.37-4.22-2.37H52.64a4.95 4.95 0 0 0-4.53 2.96l-9.33 21.25-9.35-21.26a4.95 4.95 0 0 0-4.53-2.96H4.95c-1.72 0-3.32.9-4.22 2.37s-.97 3.3-.18 4.84l23.27 45.46a4.96 4.96 0 0 0 4.41 2.69h21.08c1.86 0 3.56-1.04 4.4-2.69L77 8.26c.79-1.53.72-3.36-.18-4.83zM500 6.01c0-2.73-2.22-4.95-4.95-4.95h-53.21c-2.73 0-4.95 2.22-4.95 4.95V9.1c-.41-.49-.83-.97-1.28-1.43-4.14-4.2-9.83-6.61-15.61-6.61h-43.98c-2.73 0-4.95 2.22-4.95 4.95v28.34L354.62 3.67a4.943 4.943 0 0 0-4.36-2.61h-21.08c-1.82 0-3.5 1-4.36 2.61l-3.33 6.2V6.01c0-2.73-2.22-4.95-4.95-4.95h-59.87c-1.03 0-1.99.32-2.78.86-.79-.54-1.75-.86-2.78-.86H197.9c-2.73 0-4.95 2.22-4.95 4.95V9.1c-.41-.49-.83-.97-1.28-1.43-4.14-4.2-9.83-6.61-15.61-6.61h-43.98c-2.73 0-4.95 2.22-4.95 4.95v28.35L110.67 3.67a4.943 4.943 0 0 0-4.36-2.61H85.23c-1.82 0-3.5 1-4.36 2.61L56.49 49.13c-.82 1.53-.78 3.39.11 4.88s2.51 2.41 4.25 2.41H80.8c1.93 0 3.69-1.12 4.49-2.88l2.26-4.9h14.95a5.867 5.867 0 0 0-2.49 3.13c-.61 1.84-.28 3.88.91 5.6 1.03 1.51 3.01 3.1 5.56 3.1.33 0 .66-.03.98-.08l.14-.03c6-1.18 13.49-1.83 20.31-2.21-7.19 11.51-11.96 19.49-14.51 24.3-2.11 3.98-4.1 7.73-1.41 11.01.02.02.04.04.05.06 1.35 1.59 3.22 2.48 5.28 2.51h.12c3.6 0 6.38-2.73 7.26-3.7 1-1.08 1.55-2.48 1.55-3.97 0-.88-.2-1.77-.57-2.6 1.82-2.92 4.24-6.77 7.16-11.37-.45 1.05-.73 2.09-.83 3.09-.25 2.09.33 4.18 1.66 5.9.08.1.16.2.25.3l.05.06c.06.07.12.13.18.19.47.47 1.34 1.33 2.71 1.88.81.34 1.66.51 2.54.51 1.15 0 2.2-.29 3.18-.74.81.29 1.68.44 2.56.44.63 0 1.26-.07 1.89-.22.32.22.65.42 1.01.61 1.15.61 2.45.93 3.77.93.58 0 1.15-.06 1.75-.19.06-.01.13-.03.19-.04.46-.12.92-.28 1.36-.48.67.32 1.38.55 2.14.67.03 0 .06.01.09.01.36.05.72.07 1.07.07 2.11 0 4.43-.8 7.12-2.49.27.19.54.36.83.52 1.27.73 2.73 1.09 4.34 1.09 5.73 0 12.81-5.12 14.78-8.58.05-.08.09-.17.14-.26 1.23-2.48.74-5.17-1.3-7.22a5.841 5.841 0 0 0-.58-.51c.11-.16.22-.32.32-.5 1.07-1.89 1.01-4.2-.16-6.21-.95-1.64-3.03-3.53-5.84-3.53h-1.14l.16-.22c.33-.46.54-.77.72-1.03.36-.5.63-1.05.81-1.62l1.72-.76a5.734 5.734 0 0 0 3.18-3.07c.78-1.81.59-3.95-.5-5.73a7.459 7.459 0 0 0-2.43-2.47c4.13-.9 8.01-3.01 11.05-6.1.46-.47.88-.95 1.3-1.45v14.19c0 2.73 2.22 4.95 4.95 4.95h14.17c-.21.29-.37.55-.58.84 0 0-.97 1.29-1.14 1.52-2.61 1.08-5.6 1.62-8.9 1.62-2.44 0-5.08-.3-7.86-.88-.13-.03-.25-.05-.38-.07-.26-.03-.52-.05-.78-.05-1.84 0-3.54.83-4.66 2.3-1.29 1.7-1.55 3.95-.68 6.07l.03.07c.07.16.15.32.23.47 1 1.81 2.72 3.16 4.6 3.61.06.01.12.03.18.04 2.19.45 4.33.76 6.41.93a179.93 179.93 0 0 1-6.4 6.63c-4.13 3.99-3.27 8.71-.72 11.4l.06.06c2.58 2.64 6.77 2.99 10.52 2.99 3.38 0 7.38-.33 12.01-.71l.51-.05c5.2-.45 11.67-1 16.71-1 2.73 0 4.21.17 4.97.3.82 1.17 1.99 2.1 3.33 2.6.69.26 1.41.4 2.15.4 1.53 0 2.96-.58 4.03-1.61 1.65-1.58 2.22-3.95 1.48-6.2-.01-.04-.03-.08-.04-.13-.33-.93-.78-1.74-1.31-2.47.13-.07.26-.13.4-.21.27.19.54.36.83.52 1.27.73 2.73 1.09 4.34 1.09 5.73 0 12.8-5.12 14.78-8.58.05-.08.09-.17.14-.26 1.22-2.46.74-5.15-1.27-7.19-.08-.08-.17-.16-.26-.24a6.19 6.19 0 0 0-2.29-1.28c-.3-1.2-.9-2.32-1.77-3.29-1.1-1.23-2.5-2.06-4.05-2.4l-.15-.03c-.36-.07-.74-.1-1.12-.1-.99 0-2.54.19-5 1.66-.04-.05-.07-.1-.11-.14-.18-.23-.37-.45-.57-.65l2.01-3.14c.85-1.39.98-3.03.58-4.61a4.932 4.932 0 0 0 3.74-4.78V39.8c0-1.09-.35-2.09-.94-2.91.59-.82.94-1.82.94-2.91V25.3c.2.03.41.06.62.06h16.12v26.1c0 .94.28 1.8.73 2.55-1.86 2.6-3.08 5.36-3.39 7.89-.01.05-.01.09-.02.14-.2 2.15.19 4.22 1.13 5.99l.03.06c1.09 1.98 3.07 3.37 5.17 3.65.26.03.52.05.78.05.59 0 1.16-.09 1.71-.26-.14.3-.28.6-.43.9-1.84 2.4-3.44 4.59-4.63 6.31-1.21 1.72-2.25 3.32-2.9 4.46-1.98 3.38-2.13 6.3-.45 8.66 1.19 1.69 3.14 2.66 5.36 2.66.54 0 1.12-.06 1.7-.17.1-.02.2-.04.3-.07 1.08-.28 2.12-.84 3.08-1.68 2.39-2.05 5.22-6.41 8.42-12.96 2.53-3.26 4.83-6.06 6.84-8.37-.19 3.46.31 6.8 3.19 9.02.09.07.18.14.28.2 1.18.79 2.52 1.2 3.89 1.2.11 0 .22 0 .33-.01 1.15-.08 2.2-.45 3.25-1.11.51 10.08 5.57 14.45 10.58 16.29.07.02.13.05.2.07.63.2 1.27.31 1.91.31 1.5 0 2.92-.56 4.01-1.58.07-.06.13-.13.2-.19 1.12-1.17 1.68-2.75 1.6-4.37.99.4 2.08.63 3.24.63 2.35 0 4.47-.85 5.85-1.57 1.58-.8 4.06-2.6 6.37-4.42.08.05.17.1.25.15.03.02.06.03.09.05a7.724 7.724 0 0 0 5.95.65c1.06-.3 1.94-.8 2.7-1.35-.62 1.17-1.13 2.18-1.54 3.04-1.18 2.49-2.16 4.93-1.29 7.41.73 2.18 2.61 3.95 4.81 4.52.03.01.07.02.1.02.47.11.95.17 1.43.17 1.68 0 3.28-.72 4.35-1.94 1.68 1.01 3.63 1.6 5.66 1.65h.12c3.17 0 5.89-1.69 11.37-10.5 2.1-.19 4.42-.29 6.93-.29 3.4 0 7.21.18 11.31.52.14.01.28.02.42.02 2.11 0 4-1.07 5.06-2.88 1.05-1.8 1.05-4.02.02-5.96-1.03-1.98-2.92-3.39-4.99-3.75-.16-.03-.32-.05-.48-.07-3.9-.34-7.58-.53-10.94-.56.15-.3.29-.56.39-.79l.99-1.71c1.46-2.47.94-5.52-1.34-7.8-.07-.07-.14-.13-.21-.2-.9-.8-1.8-1.26-2.61-1.51a4.86 4.86 0 0 0-1.69-.65c.42-.66.84-1.33 1.28-2.02.53-.79 1.19-1.8 1.4-2.23.53-1.05.66-2.2.54-3.33h12.55c2.73 0 4.95-2.22 4.95-4.95V45.3h21.36c5.74 0 11.4-2.4 15.53-6.59.46-.46.88-.95 1.3-1.45v14.19c0 2.73 2.22 4.95 4.95 4.95h53.21c2.73 0 4.95-2.22 4.95-4.95V39.8c0-1.09-.35-2.09-.94-2.91.59-.82.94-1.82.94-2.91V23.46c0-1.09-.35-2.09-.94-2.91.59-.82.94-1.82.94-2.91zM143.69 62.75c-.55 1.01-.76 2.16-.66 3.3-2.07.25-4.07 1.07-5.62 2.35-.66.53-1.29 1.14-1.87 1.81 2.44-3.84 5.16-8.08 8.09-12.66l9.56-.21c1.51-.04 4.81-.12 4.81-.12 1.65-.04 3.32-.08 5-.13-.54.81-1.13 1.69-1.75 2.63H148.8c-2.16 0-4.11 1.16-5.11 3.03zm93.23-2.84c-.84-.32-1.61-.43-2.21-.43a5.78 5.78 0 0 0-4.42 2.03l-2.54 2.9c-.05.06-.1.11-.14.17-.57.72-.95 1.52-1.14 2.36-1.68 1.53-3.54 3.99-4.69 6.25-1.38 2.76-1.54 5.04-1.25 6.77-2.59.17-5.21.39-7.79.61 0 0-.15.01-.21.01-1.16.1-2.41.21-3.66.31 3.5-3.85 6.97-7.97 10.05-11.93 4.65-2.65 8.43-6.5 11.25-11.47.21-.37.35-.72.53-1.08h8.45zm76.26-34.55l-12.75 23.76c-.01.01-.01.02-.01.04v-23.8zm-4 31.06h1.67c-.39.54-.74 1.05-1.16 1.61-.12-.56-.3-1.09-.51-1.61zm18.5 6.22l-.17-.03c-.36-.07-.74-.1-1.12-.1-.45 0-1.55 0-3.32.78.31-.91.64-1.84 1-2.82l.11-.31c1.08-1.54 2.06-2.99 3.03-4.43a4.9 4.9 0 0 0 2.03-2.19l1.38-3c.42-.65.8-1.28 1.19-1.91h9.97a17.34 17.34 0 0 0-4.29 4.26c-1.65 1.93-4.56 6.2-7.4 10.75-.73-.47-1.55-.81-2.41-1zm23.35 1.48c-.03-.02-.17-.09-.21-.1 1.28-1.54 2.36-3.06 3.08-4.49.57-1.09.94-2.11 1.18-3.11h12.23c-1.25 1.8-3.17 4.4-5.75 7.49-.58.7-1.18 1.39-1.78 2.05-.54-.1-1.1-.15-1.68-.15h-.26c-1.04 0-2.36.22-3.81.97a8.585 8.585 0 0 0-3-2.66z"/></g><path d="M76.82 2.37C75.92.9 74.32 0 72.6 0H52.64a4.95 4.95 0 0 0-4.53 2.96l-9.33 21.25-9.35-21.25A4.939 4.939 0 0 0 24.9 0H4.95C3.23 0 1.63.9.73 2.37s-.97 3.3-.18 4.84l23.27 45.46a4.96 4.96 0 0 0 4.41 2.69h21.08c1.86 0 3.56-1.04 4.4-2.69L77 7.21a4.94 4.94 0 0 0-.18-4.84zM500 4.95c0-2.73-2.22-4.95-4.95-4.95h-53.21c-2.73 0-4.95 2.22-4.95 4.95v3.09c-.41-.49-.83-.97-1.28-1.43-4.14-4.2-9.83-6.61-15.6-6.61h-43.98c-2.73 0-4.95 2.22-4.95 4.95v28.34L354.62 2.61A4.943 4.943 0 0 0 350.26 0h-21.08c-1.82 0-3.5 1-4.36 2.61l-3.33 6.2V4.95c0-2.73-2.22-4.95-4.95-4.95h-59.87c-1.03 0-1.99.32-2.78.86-.79-.54-1.75-.86-2.78-.86H197.9c-2.73 0-4.95 2.22-4.95 4.95v3.09c-.41-.49-.83-.97-1.28-1.43-4.14-4.2-9.83-6.61-15.61-6.61h-43.98c-2.73 0-4.95 2.22-4.95 4.95V33.3L110.67 2.61A4.943 4.943 0 0 0 106.31 0H85.23c-1.82 0-3.5 1-4.36 2.61L56.49 48.07c-.82 1.53-.78 3.39.11 4.88s2.51 2.41 4.25 2.41H80.8c1.93 0 3.69-1.12 4.49-2.88l2.26-4.9h14.95a5.867 5.867 0 0 0-2.49 3.13c-.61 1.84-.28 3.88.91 5.6 1.03 1.51 3.01 3.1 5.56 3.1.33 0 .66-.03.98-.08l.14-.03c6-1.18 13.49-1.83 20.31-2.21-7.19 11.51-11.96 19.49-14.51 24.3-2.11 3.98-4.1 7.73-1.41 11.01.02.02.04.04.05.06 1.35 1.59 3.22 2.48 5.28 2.51h.12c3.6 0 6.38-2.73 7.26-3.7 1-1.08 1.55-2.48 1.55-3.97 0-.88-.2-1.77-.57-2.6 1.82-2.92 4.24-6.77 7.16-11.37-.45 1.05-.73 2.09-.83 3.09-.25 2.09.33 4.18 1.66 5.9.08.1.16.2.25.3l.05.06c.06.07.12.13.18.19.47.47 1.34 1.33 2.71 1.88.81.34 1.66.51 2.54.51 1.15 0 2.2-.29 3.18-.74.81.29 1.68.44 2.56.44.63 0 1.26-.07 1.89-.22.32.22.65.42 1.01.61 1.15.61 2.45.93 3.77.93.58 0 1.15-.06 1.75-.19.06-.01.13-.03.19-.04.46-.12.92-.28 1.36-.48.67.32 1.38.55 2.14.67.03 0 .06.01.09.01.36.05.72.07 1.07.07 2.11 0 4.43-.8 7.12-2.49.27.19.54.36.83.52 1.27.73 2.73 1.09 4.34 1.09 5.73 0 12.81-5.12 14.78-8.58.05-.08.09-.17.14-.26 1.23-2.48.74-5.17-1.3-7.22a5.841 5.841 0 0 0-.58-.51c.11-.16.22-.32.32-.5 1.07-1.89 1.01-4.2-.16-6.21-.95-1.64-3.03-3.53-5.84-3.53h-1.14l.16-.22c.33-.46.54-.77.72-1.03.36-.5.63-1.05.81-1.62l1.72-.76a5.734 5.734 0 0 0 3.18-3.07c.78-1.81.59-3.95-.5-5.73a7.459 7.459 0 0 0-2.43-2.47c4.13-.9 8.01-3.01 11.05-6.1.46-.47.88-.95 1.3-1.45v14.19c0 2.73 2.22 4.95 4.95 4.95h14.17c-.21.29-.37.55-.58.84 0 0-.97 1.29-1.14 1.52-2.61 1.08-5.6 1.62-8.9 1.62-2.44 0-5.08-.3-7.86-.88-.13-.03-.25-.05-.38-.07-.26-.03-.52-.05-.78-.05-1.84 0-3.54.83-4.66 2.3-1.29 1.7-1.55 3.95-.68 6.07l.03.07c.07.16.15.32.23.47 1 1.81 2.72 3.16 4.6 3.61.06.01.12.03.18.04 2.19.45 4.33.76 6.41.93a179.93 179.93 0 0 1-6.4 6.63c-4.13 3.99-3.27 8.71-.72 11.4l.06.06c2.58 2.64 6.77 2.99 10.52 2.99 3.38 0 7.38-.33 12.01-.71l.51-.05c5.2-.45 11.67-1 16.71-1 2.73 0 4.21.17 4.97.3.82 1.17 1.99 2.1 3.33 2.6.69.26 1.41.4 2.15.4 1.53 0 2.96-.58 4.03-1.61 1.65-1.58 2.22-3.95 1.48-6.2-.01-.04-.03-.08-.04-.13-.33-.93-.78-1.74-1.31-2.47.13-.07.26-.13.4-.21.27.19.54.36.83.52 1.27.73 2.73 1.09 4.34 1.09 5.73 0 12.8-5.12 14.78-8.58.05-.08.09-.17.14-.26 1.22-2.46.74-5.15-1.27-7.19-.08-.08-.17-.16-.26-.24a6.19 6.19 0 0 0-2.29-1.28c-.3-1.2-.9-2.32-1.77-3.29-1.1-1.23-2.5-2.06-4.05-2.4l-.15-.03c-.36-.07-.74-.1-1.12-.1-.99 0-2.54.19-5 1.66-.04-.05-.07-.1-.11-.14-.18-.23-.37-.45-.57-.65l2.01-3.14c.85-1.39.98-3.03.58-4.61a4.932 4.932 0 0 0 3.74-4.78V38.74c0-1.09-.35-2.09-.94-2.91.59-.82.94-1.82.94-2.91v-8.68c.2.03.41.06.62.06h16.12v26.1c0 .94.28 1.8.73 2.55-1.86 2.6-3.08 5.36-3.39 7.89-.01.05-.01.09-.02.14-.2 2.15.19 4.22 1.13 5.99l.03.06c1.09 1.98 3.07 3.37 5.17 3.65.26.03.52.05.78.05.59 0 1.16-.09 1.71-.26-.14.3-.28.6-.43.9-1.84 2.4-3.44 4.59-4.63 6.31-1.21 1.72-2.25 3.32-2.9 4.46-1.98 3.38-2.13 6.3-.45 8.66 1.19 1.69 3.14 2.66 5.36 2.66.54 0 1.12-.06 1.7-.17.1-.02.2-.04.3-.07 1.08-.28 2.12-.84 3.08-1.68 2.39-2.05 5.22-6.41 8.42-12.96 2.53-3.26 4.83-6.06 6.84-8.37-.19 3.46.31 6.8 3.19 9.02.09.07.18.14.28.2 1.18.79 2.52 1.2 3.89 1.2.11 0 .22 0 .33-.01 1.15-.08 2.2-.45 3.25-1.11.51 10.08 5.57 14.45 10.58 16.29.07.02.13.05.2.07.63.2 1.27.31 1.91.31 1.5 0 2.92-.56 4.01-1.58.07-.06.13-.13.2-.19 1.12-1.17 1.68-2.75 1.6-4.37.99.4 2.08.63 3.24.63 2.35 0 4.47-.85 5.85-1.57 1.58-.8 4.06-2.6 6.37-4.42.08.05.17.1.25.15.03.02.06.03.09.05a7.724 7.724 0 0 0 5.95.65c1.06-.3 1.94-.8 2.7-1.35-.62 1.17-1.13 2.18-1.54 3.04-1.18 2.49-2.16 4.93-1.29 7.41.73 2.18 2.61 3.95 4.81 4.52.03.01.07.02.1.02.47.11.95.17 1.43.17 1.68 0 3.28-.72 4.35-1.94 1.68 1.01 3.63 1.6 5.66 1.65h.12c3.17 0 5.89-1.69 11.37-10.5 2.1-.19 4.42-.29 6.93-.29 3.4 0 7.21.18 11.31.52.14.01.28.02.42.02 2.11 0 4-1.07 5.06-2.88 1.05-1.8 1.05-4.02.02-5.96-1.03-1.98-2.92-3.39-4.99-3.75-.16-.03-.32-.05-.48-.07-3.9-.34-7.58-.53-10.94-.56.15-.3.29-.56.39-.79l.99-1.71c1.46-2.47.94-5.52-1.34-7.8-.07-.07-.14-.13-.21-.2-.9-.8-1.8-1.26-2.61-1.51a4.86 4.86 0 0 0-1.69-.65c.42-.66.84-1.33 1.28-2.02.53-.79 1.19-1.8 1.4-2.23.53-1.05.66-2.2.54-3.33h12.55c2.73 0 4.95-2.22 4.95-4.95v-6.15h21.36c5.74 0 11.4-2.4 15.53-6.59.46-.46.88-.95 1.3-1.45v14.19c0 2.73 2.22 4.95 4.95 4.95h53.21c2.73 0 4.95-2.22 4.95-4.95V38.74c0-1.09-.35-2.09-.94-2.91.59-.82.94-1.82.94-2.91V22.4c0-1.09-.35-2.09-.94-2.91.59-.82.94-1.82.94-2.91zM143.69 61.69c-.55 1.01-.76 2.16-.66 3.3-2.07.25-4.07 1.07-5.62 2.35-.66.53-1.29 1.14-1.87 1.81 2.44-3.84 5.16-8.08 8.09-12.66l9.56-.21c1.51-.04 4.81-.12 4.81-.12 1.65-.04 3.32-.08 5-.13-.54.81-1.13 1.69-1.75 2.63H148.8c-2.16.01-4.11 1.17-5.11 3.03zm93.23-2.84c-.84-.32-1.61-.43-2.21-.43a5.78 5.78 0 0 0-4.42 2.03l-2.54 2.9c-.05.06-.1.11-.14.17-.57.72-.95 1.52-1.14 2.36-1.68 1.53-3.54 3.99-4.69 6.25-1.38 2.76-1.54 5.04-1.25 6.77-2.59.17-5.21.39-7.79.61 0 0-.15.01-.21.01-1.16.1-2.41.21-3.66.31 3.5-3.85 6.97-7.97 10.05-11.93 4.65-2.65 8.43-6.5 11.25-11.47.21-.37.35-.72.53-1.08h8.45zm76.26-34.54l-12.75 23.76c-.01.01-.01.02-.01.04v-23.8zm-4 31.05h1.67c-.39.54-.74 1.05-1.16 1.61-.12-.56-.3-1.09-.51-1.61zm18.5 6.22l-.17-.03c-.36-.07-.74-.1-1.12-.1-.45 0-1.55 0-3.32.78.31-.91.64-1.84 1-2.82l.11-.31c1.08-1.54 2.06-2.99 3.03-4.43a4.9 4.9 0 0 0 2.03-2.19l1.38-3c.42-.65.8-1.28 1.19-1.91h9.97a17.34 17.34 0 0 0-4.29 4.26c-1.65 1.93-4.56 6.2-7.4 10.75a7.64 7.64 0 0 0-2.41-1zm23.35 1.48c-.03-.02-.17-.09-.21-.1 1.28-1.54 2.36-3.06 3.08-4.49.57-1.09.94-2.11 1.18-3.11h12.23c-1.25 1.8-3.17 4.4-5.75 7.49-.58.7-1.18 1.39-1.78 2.05-.54-.1-1.1-.15-1.68-.15h-.26c-1.04 0-2.36.22-3.81.97a8.685 8.685 0 0 0-3-2.66z"/><path d="M38.77 36.51L52.64 4.95H72.6L49.29 50.41H28.22L4.95 4.95H24.9zM85.23 4.95h21.08l24.38 45.46h-19.95l-3.59-7.78H84.39l-3.59 7.78H60.85zm4.3 26.59h12.48l-6.22-13.43zM175.88 4.95c9.37-.1 17.32 7.78 17.19 17.18.13 9.37-7.82 17.32-17.19 17.18H149.8v11.1h-17.72V4.95zm-4.43 21.04c1.05 0 1.97-.37 2.71-1.12.77-.78 1.15-1.69 1.15-2.74 0-1.08-.37-2-1.15-2.74-.74-.78-1.66-1.15-2.71-1.15H149.8v7.75zM197.9 4.95h53.21v11.63h-35.48v5.82h35.48v10.52h-35.48v5.82h35.48v11.67H197.9zM277.75 50.41V19.36h-21.07V4.95h59.87v14.41h-21.07v31.05zM329.18 4.95h21.08l24.38 45.46h-19.95l-3.59-7.78h-22.77l-3.59 7.78H304.8zm4.3 26.59h12.48l-6.22-13.43zM419.83 4.95c9.37-.1 17.32 7.78 17.19 17.18.13 9.37-7.82 17.32-17.19 17.18h-26.07v11.1h-17.73V4.95zm-4.43 21.04c1.05 0 1.96-.37 2.7-1.12.77-.78 1.15-1.69 1.15-2.74 0-1.08-.37-2-1.15-2.74-.74-.78-1.66-1.15-2.7-1.15h-21.65v7.75zM441.84 4.95h53.21v11.63h-35.49v5.82h35.49v10.52h-35.49v5.82h35.49v11.67h-53.21z" fill="#04d9ff"/><g fill="#fff"><path d="M233.07 69.08h.06c.25-.01.47-.12.62-.3l2.55-2.92.06-.08c.28-.47.11-1.17-.43-1.78l-.05-.05c-.46-.41-.88-.59-1.25-.56-.24.02-.45.13-.58.3l-2.58 2.94c-.37.46-.22 1.17.41 1.87.18.17.65.58 1.19.58zM119.56 85.43h-.11c3.29-5.39 10.92-17.44 21.43-33.82l12.17-.27 4.8-.12c4.93-.12 10.02-.25 14.88-.45.07.18.18.37.33.58.48.61 1.17.92 1.74.72l3.71-1.63a.75.75 0 0 0 .48-.44c.14-.33.07-.78-.18-1.19-.35-.59-.99-1.14-1.58-1.06-8.29.43-17.37.66-25.17.82-1.74.05-3.48.08-5.23.11-1.37.03-2.75.05-4.12.09l.22-.32c.27-.45.08-1.1-.52-1.78l-.05-.05c-.26-.23-.77-.6-1.27-.52a.81.81 0 0 0-.58.38l-.08.14v.01c-.12.2-.41.63-.75 1.17l-.72 1.11c-10.46.31-23.64.9-33.61 2.79l-.08.02c-.26.09-.46.29-.55.55-.12.36-.02.8.3 1.24.35.53 1.04 1.04 1.63.94h.02c9.05-1.78 20.89-2.39 30.48-2.7-22.67 35.85-21.82 36.88-21.3 37.51.42.5.98.76 1.6.77h.02c1.71 0 3.45-1.91 3.62-2.11.49-.49.18-1.33-.34-1.85-.35-.39-.8-.63-1.19-.64z"/><path d="M157.5 68.38c-.32-.4-.75-.65-1.14-.68a.827.827 0 0 0-.64.22c-.1.08-.54.45-1.12 1.07l-2.97 3.61c-.01.01-.01.01-.02.01-.05.04-.13.11-.3.24-3.18 2.57-4.49 3.37-5.03 3.61-.04-.58.09-1.21.37-1.9l.01-.02c.15-.27.14-.61-.02-.97.12.06.24.11.36.14.37.09.7.01.91-.24.14-.16.34-.52.1-1.15-.33-1.11-1.15-1.91-2.3-2.26-1.64-.51-3.78-.03-5.2 1.14-1.2.97-2.32 2.42-3 3.86-.31.69-.5 1.34-.55 1.9-.12.84.11 1.63.66 2.35l.05.06c.3.3.63.63 1.08.8.21.09.44.14.67.14.95 0 2.08-.76 3.47-1.99.22.72.62 1.12.99 1.35.86.53 2.05.44 3.38-.24.37-.19.79-.48 1.27-.83.15 1 .77 1.83 1.84 2.37.44.24.94.36 1.47.36.24 0 .49-.03.74-.08.42-.1.85-.31 1.29-.62.31-.27.71-.65 1.02-1.2.45-.97.55-2.18.27-3.54-.46-1.92.81-3.74 1.57-4.61l1.11-1.06c.48-.47.18-1.29-.34-1.84zm-17.47 8.53s.75-3.83 4.19-4.24c0 0-3.86 5.35-4.19 4.24zm12.33.72c-.09.21-.29.44-.47.56l-.05.04c-.17.14-.37.24-.58.27.02-.03.03-.06.05-.09.11-.23.17-.33.19-.42.14-.47-.11-1.04-.48-1.46.46-.41.96-.85 1.5-1.33.01.04.02.08.02.13l.02.13c.18.83.12 1.55-.2 2.17z"/><path d="M180.84 72.9c-.29-.26-.64-.36-1-.29-.38.08-.73.35-.9.68-.91 1.65-7.85 5.2-9.74 4.24-.52-.27-.32-1.11-.01-1.87.84-.11 2.79-.48 4.58-1.39 1.12-.56 2.15-1.59 2.77-2.78.23-.45.45-.94.51-1.44.12-.73-.13-1.51-.69-2.12-.4-.46-.88-.75-1.43-.87-1.01-.19-2.93 1.08-3.51 1.47-1.02.75-2.11 1.73-3.07 2.79-.56.65-1.01 1.31-1.35 1.97-2.31 1.77-6.79 4.95-7.94 4.95h-.03c-.19-.87 2.11-4.63 3.72-7.22.17-.12.3-.31.35-.59.91-1.45 1.78-2.81 2.58-4.04h13.35c.31 0 .59-.15.73-.41.2-.34.15-.8-.13-1.27-.3-.52-.96-1.07-1.56-1.07h-10.56c2.32-3.46 4.48-6.51 5.55-8.04.4-.56.61-.86.72-1.04l.01.01c.37-.5.04-1.31-.44-1.79-.35-.4-.81-.63-1.22-.61-.27.01-.49.13-.64.32-.23.3-1.23 1.7-2.62 3.71a298.77 298.77 0 0 0-4.96 7.44h-15.13c-.32 0-.6.16-.74.43-.19.34-.13.79.15 1.22.33.63 1.01 1.11 1.58 1.11.36-.01.8-.02 1.32-.02 2.93 0 7.93.3 9.36 1.72.19.19.3.38.33.59-.11.17-.19.31-.24.44-5.4 8.96-4.58 10.49-4.3 11.01.38.7 1 1.13 1.78 1.25.13.02.28.03.43.03 2.28 0 5.58-2.31 8.05-4.34a4.936 4.936 0 0 0 2.35 3.02c.54.31 1.18.44 1.89.44 3.77 0 9.25-3.93 10.48-6.08.33-.72.01-1.17-.38-1.56zm-6.14-3.34s.82 1.09-5 4.44c0-.01 2.62-4 5-4.44zm-14.19-3.29l1.7.06-.46.73c-.35-.27-.77-.54-1.24-.79zM243.13 88.82c-2.16-6.03-16.64-4.81-29.42-3.73l-.11.01c-6.31.55-14.03 1.22-16.05.66.17-.19.44-.47.83-.85 5.91-5.74 12.58-13.29 17.9-20.21 4.26-2.22 7.69-5.6 10.22-10.05 2.23-3.97 3.06-7.55 3.36-9.32.54-2.87.22-5.05-.82-5.69-.47-.29-1.02-.24-1.49.12-.25.17-.45.47-.64.98-1.75 5.21-5.38 11.61-10.8 19.03-.23.31-.47.63-.71.95-.4.52-.79 1.05-1.18 1.59-5.73 2.79-12.79 3.34-21.02 1.61-.36-.05-.68.08-.87.33-.13.17-.31.54-.06 1.15l.03.07c.26.47.81 1.05 1.42 1.19l.02.01c6.27 1.29 11.95 1.33 16.89.12-4.48 5.48-9.67 11.19-14.44 15.86-2.17 2.1-1.29 3.67-.56 4.44 2.12 2.17 9.41 1.57 18.62.8l.45-.04c9.9-.85 24.87-2.14 25.9.83.2.66.81 1.19 1.32 1.38.13.05.27.08.4.08.23 0 .45-.08.61-.24.26-.25.34-.65.2-1.08zM220.2 58.4c.08-.12.16-.23.25-.35.12-.17.24-.36.38-.54.11-.16.22-.31.33-.48 1.25-1.82 2.74-4.11 3.96-6.36.09-.17.19-.34.27-.51.54-1.02 1.02-2.02 1.39-2.96.02-.06.05-.12.07-.18.04-.1.08-.21.12-.31.02-.07.05-.13.07-.2.06-.17.12-.33.16-.49 0 0 .01.08-.01.26 0 .03-.01.05-.01.08-.01.06-.02.13-.03.22-.02.12-.05.24-.09.4-.03.12-.07.26-.12.41-.1.31-.23.68-.42 1.12-.05.13-.11.27-.17.41-.33.73-.77 1.61-1.4 2.68-.1.18-.22.37-.33.56-.36.59-.77 1.24-1.23 1.94-.15.23-.31.46-.47.7-.14.2-.28.41-.44.63-.09.12-.17.25-.26.37-.74 1.05-1.59 2.21-2.58 3.47-.28.36-.57.73-.88 1.11.02-.03.03-.05.06-.08.28-.39.77-1.05 1.38-1.9z"/><path d="M261.52 72.9c-.29-.26-.65-.36-1.01-.29-.38.08-.73.35-.9.68-.91 1.65-7.85 5.2-9.74 4.24-.52-.27-.32-1.11-.01-1.87.84-.11 2.79-.48 4.58-1.39 1.12-.56 2.15-1.59 2.77-2.78.23-.45.45-.94.51-1.44.12-.73-.13-1.51-.69-2.12-.4-.45-.87-.75-1.43-.87-1-.19-2.93 1.08-3.51 1.47-1.02.75-2.11 1.73-3.07 2.79-.69.8-1.22 1.63-1.57 2.44-4.66 3.63-7.25 4.55-8.13 4.16-.51-.22-.84-1.59-.16-4.78 2.59-2.3 4.91-3.83 7.09-4.66.23-.09.41-.29.47-.55.11-.38-.03-.88-.37-1.31-.41-.54-1.1-.98-1.71-.78-1.3.48-2.67 1.21-4.07 2.17l6.92-10.79c.33-.54-.01-1.32-.52-1.83-.29-.26-.75-.58-1.22-.53-.25.02-.47.13-.62.33l-12.65 19.74c-1.47 1.24-3.33 2.61-4.24 2.67-.03-.13-.03-.52.4-1.4.96-1.83 2.53-3.73 3.5-4.57.19-.15.31-.37.33-.63.03-.39-.16-.85-.53-1.26-.6-.68-1.36-.87-1.85-.48l-.01.01c-1.09.9-2.82 2.98-3.89 5.08-.97 1.93-1.12 3.59-.44 4.8.36.63.93 1.02 1.62 1.11.1.01.22.02.33.02.49 0 1.02-.14 1.59-.37l-.1.16c-.29.48-.07 1.2.55 1.76.33.36.76.58 1.15.58h.05c.27-.01.49-.12.64-.32l.12-.16v-.03c.38-.6 2.14-3.15 4.63-5.9.29 2.19 1.28 3.72 2.92 4.45 2.05.89 5.42-1.23 7.97-3.24a5.027 5.027 0 0 0 2.31 2.85c.54.31 1.18.44 1.89.44 3.77 0 9.25-3.93 10.48-6.08.32-.68 0-1.13-.38-1.52zm-6.33-3.34s.82 1.09-5 4.44c0-.01 2.62-4 5-4.44zM319.98 89.2c-1.66-.61-2.86-1.75-3.66-3.48-2.28-4.94-.95-14.66 3.74-27.36l.34-.93c7.43-10.57 15.29-23.24 15.15-27.17-.03-.86-.27-1.51-.72-1.92-.37-.34-.87-.5-1.45-.48-1.77.09-5.44 6.44-6.93 9.17-3.11 5.65-6.22 12.39-8.56 18.52-1.42 2.07-2.99 4.23-4.79 6.59-2.66 3.53-4.91 6.33-6.69 8.33-.92 1.04-1.59 1.73-2.08 2.2.17-1.32.45-3.18.67-4.66.63-4.23 1.27-8.61-.04-10.73-1.16-1.8-2.92-2.08-4.96-.77-2.63 1.66-6.71 6.12-9.83 9.76.06-.17.12-.34.18-.52 1.24-3.44 2.09-6.54 2.45-8.98.47-3.15-.07-5.44-1.54-6.62-.52-.4-1.04-.61-1.62-.66-1.59-.19-3.32.22-5.13 1.2-2.15 1.12-4.21 2.92-5.81 5.05-1.68 2.12-2.77 4.42-3 6.34-.11 1.19.09 2.29.58 3.21.33.59.94 1.05 1.47 1.12.33.05.63-.07.81-.32.13-.19.3-.59-.03-1.25l-.02-.04c-.19-.31-.23-.8-.15-1.51.16-1.56 1.12-3.55 2.63-5.46 1.49-1.9 3.42-3.58 5.3-4.6 1.48-.8 2.83-1.14 4.01-.98.07.27.17 1.09-.16 3.22-.34 2.28-1.16 5.28-2.35 8.67-1.21 3.45-2.72 7.08-4.38 10.49-1.9 2.48-3.57 4.75-4.82 6.55-1.14 1.62-2.09 3.08-2.68 4.11-.93 1.59-1.15 2.64-.68 3.31.36.51 1.05.68 2.1.48.32-.08.68-.29 1.06-.62 1.85-1.58 4.55-5.89 7.43-11.84 5.45-7.06 12.53-15.37 16.09-17.6.54-.35.87-.54 1.07-.63.44 1.5-.25 5.91-.64 8.38l-.03.24c-.58 4.03-1.07 7.52.79 8.96.37.24.75.37 1.14.37h.01c.6-.04 1.59-.51 4.42-3.67 1.63-1.83 3.7-4.39 6.16-7.62-4.03 14.77-2.23 23.99 5.29 26.75.15.05.28.07.4.07.33 0 .54-.16.62-.24.12-.12.37-.47.17-1.07-.22-.6-.78-1.18-1.33-1.36zm1.78-38.22c.02-.03.05-.08.07-.15.05-.09.1-.2.17-.34.02-.05.04-.09.07-.15.22-.46.55-1.12.93-1.9.08-.16.16-.33.25-.51.11-.23.23-.47.35-.71s.24-.49.37-.75c.27-.53.55-1.09.83-1.65.06-.12.12-.23.17-.34 1.41-2.79 2.96-5.76 3.92-7.28.03-.05.06-.1.1-.16.06-.08.1-.16.15-.23.04-.06.08-.12.12-.17.02-.02.03-.05.05-.07.05-.06.09-.12.13-.17.03-.05.07-.08.1-.12 1.42-1.49.65.32.65.32s-.31.54-.82 1.41c-.11.19-.23.39-.35.61-.1.17-.2.35-.31.54-.08.13-.15.25-.23.38-.05.08-.1.17-.15.25-.1.17-.2.35-.31.52-.16.27-.32.54-.48.83-.08.13-.16.27-.24.41-.43.73-.88 1.5-1.33 2.27-.12.2-.24.41-.36.62-.29.49-.58.99-.87 1.48l-.24.42c-.16.28-.33.55-.48.82l-2.15 3.66c-.03.06-.08.13-.11.18v-.02z"/><path d="M376.32 55.33c-.41-.41-.86-.61-1.25-.56-.26.03-.49.17-.61.38l-.96 1.47c-.9 1.4-3.44 5.19-7.5 10.04-1.5 1.8-3.06 3.49-4.54 4.92-.49-.63-1.26-1.28-2.85-1.25-1.6-.08-3.1 1.28-4.13 2.53-1.01.48-1.98.5-2.85.39.03-.55.02-1.08-.06-1.56-.12-.77-.29-1.33-.55-1.8-.37-.79-.96-1.44-1.68-1.83-.49-.25-.98-.34-1.5-.29-.44.08-1.22.39-1.4 1.72-.02.3-.01.61.04.94-.24-.04-.47-.01-.66.13-.08.06-.16.12-.24.19-.05.04-.1.09-.15.12l-.07.05c-.91.83-1.75 2.14-2.33 3.6-2.75 2.67-9.08 7.6-11.26 8.75-.59.3-1.72.6-2.08.52-.2-.88.82-3.91 3.49-8.89.13-.17.24-.34.33-.49.06-.12.1-.23.12-.34.31-.56.63-1.15.98-1.76h.09l.22-.2c2.91-2.26 12.61-10.03 15.23-15.28.83-1.56 1.12-2.83.86-3.78-.29-.9-.97-1.56-1.89-1.83-.52-.21-1.12-.22-1.85-.02-1.69.49-3.7 2.12-5.11 4.16l.02.02c-1.69 1.71-8.34 11.66-12.36 19.25-2.38 1.69-6.85 3.64-8.31 2.9-.52-.27-.33-1.11-.01-1.87.84-.11 2.8-.48 4.58-1.39 1.12-.56 2.15-1.59 2.77-2.78.23-.45.46-.94.51-1.44.12-.73-.13-1.51-.68-2.12-.4-.45-.88-.75-1.43-.87-1.01-.19-2.93 1.08-3.51 1.47-1.02.75-2.11 1.73-3.07 2.79-1.05 1.2-1.72 2.46-1.96 3.64-.4 1.98.6 4.08 2.43 5.1.55.31 1.19.44 1.89.44 1.4 0 3.04-.54 4.6-1.33-.09.22-.18.44-.26.64-1.01 2.63-1.17 4.28-.54 5.17.62.99 1.6 1.37 2.7 1.37 1.16 0 2.45-.42 3.58-1.02 1.73-.86 6.08-4.19 9.35-7.03.09.64.29 1.22.61 1.68l.31.32c.29.33.63.61 1.08.86.45.24.91.36 1.37.36.28 0 .56-.04.84-.13.63-.17 1.23-.62 1.78-1.08.71-.61 1.39-1.53 1.99-2.69.31-.52.58-1.15.78-1.86.47.1.95.13 1.44.1-.19.5-.3.97-.33 1.39-.08 1.39.54 2.05 1.05 2.36 1.12.66 2.78.25 3.86-.42 1.09-.7 2.49-1.78 4.14-3.2.03.01.07.01.1.01-8.67 14.52-9.22 16.83-8.91 17.65.19.62.78 1.18 1.37 1.33.1.02.2.03.29.03.26 0 .49-.1.66-.29.13-.15.32-.49.12-1.05.13-1.32 5.63-11.12 20.72-34.82.74-1.11 1.11-1.71 1.13-1.75.32-.59-.07-1.3-.54-1.77zm-31.93 1.66c1.46-2.05 3.11-3.18 4.16-3.56-.06.41-.26 1.03-.72 1.96-1.44 2.84-5.17 6.57-8.81 9.78 2.84-4.49 5.28-8.04 5.37-8.18zm-17.07 12.57s.82 1.09-5 4.44c0-.01 2.62-4 5-4.44zm20.69 6.16c-.52 1.01-1.08 1.76-1.68 2.28-.45.45-.91.65-1.1.72-.09.02-.17.03-.24.05-.01-.33.06-.97.38-2.03.52-1.48 1.29-2.74 2.1-3.49.03-.02.07-.05.12-.09.29.41.63.8 1 1.15-.16.54-.35 1-.58 1.41zm11.38-1.73c-.52.38-3.55 3.17-3.68 2.47 0 0 1.76-3.22 3.66-3.14h.09c.07 0 .12.01.17.02 0 .01.28.26-.24.65z"/><path d="M395.13 82.9c-.31-.62-.93-1.11-1.5-1.18l-.02-.01c-7.4-.64-13.79-.72-19.01-.24 1.25-2.22 3.85-6.93 4.5-8.34l1.11-1.91c.34-.56-.06-1.27-.57-1.79-.43-.38-.82-.56-1.19-.53-.02.01-.03.01-.05.01l-.69-.48v1.17c-.42 1.06-4.69 6.77-7.17 6.77h-.02c-.02-.2.01-.5.04-.61.57-1.36 1.7-3.07 3.11-4.7.37-.46.22-1.17-.41-1.87-.19-.19-.69-.62-1.24-.59-.25.01-.48.13-.62.31-1.56 1.85-2.74 3.67-3.33 5.12-.38.88-.56 1.64-.51 2.2 0 1.16.61 2.14 1.71 2.74.37.22.77.34 1.28.4.57.06 1.26-.15 2.07-.61-.54.94-1.15 2.01-1.82 3.15-4.32.69-7.58 1.8-9.71 3.3-1.24.87-2.07 1.88-2.46 3-.34 1.09-.2 2.31.42 3.43 1.06 1.85 3.1 3.03 5.35 3.08.58 0 2.33 0 8.4-10.19 5.66-.77 12.92-.79 21.63-.05.34 0 .63-.15.79-.42.09-.18.23-.58-.09-1.16zm-31.67 9.05c-1.23-.05-1.96-.48-2.21-.85-.19-.38-.2-.83-.05-1.3.19-.54.66-1.34 1.85-2.15 1.3-.94 3.22-1.74 5.75-2.37-4.12 6.59-5.31 6.67-5.34 6.67z"/></g></svg>