<svg viewBox="0 0 524.41 113.38" xmlns="http://www.w3.org/2000/svg" width="2500" height="541"><g fill="#dd052b"><path d="M446.37.8h37.28v96.26h40.76v15.54h-78.04zM363.88.8h74.14v13.19h-38.43v37.27h34.95v13.2h-34.95v32.6h40.78v15.54h-76.49zM267.79.8h89.66v14.38h-26.4v97.42h-35.7V15.18h-27.56zM263.31 0H233s-36 1.29-38.77 34.74 34.56 32.76 41.53 47.05c4.44 9.14-6.45 16.12-15.68 16.12h-25v15.47h42.38s44.39-2.4 38.15-40.49c-4-24.58-31.15-20.76-40.25-37.28s6.77-21.19 8.46-21.19h19.28zM110.18.8h75.32v13.19h-39.6v37.27h34.95v13.2H145.9v32.6h41.93v15.54h-77.65zM87.21.78L63.18 78.79 38.38.78H0l39.36 111.78h28.68L106.41.78z"/></g></svg>