<svg height="2591.516" viewBox="0 0 1000 685.672" width="1000mm" xmlns="http://www.w3.org/2000/svg"><path d="m496.994 0c-189.055 0-342.836 153.85-342.836 342.836 0 189.055 153.78 342.836 342.836 342.836 189.09 0 342.904-153.781 342.904-342.836 0-188.986-153.814-342.836-342.904-342.836zm0 82.348c143.71 0 260.623 116.915 260.623 260.488 0 143.676-116.912 260.555-260.623 260.555-143.676 0-260.555-116.88-260.555-260.555 0-143.573 116.879-260.488 260.555-260.488z" fill="#383381"/><path d="m311.35 545.702-9.753 60.84 17.12 12.45 49.322-32.823-18.642-11.379-29.296 22.932-.139-.07 9.27-37.147zm72.6 48.008-19.439 49.494 18.505 7.575 19.438-49.807zm51.637 16.91-29.453 47.76 19.523 4.931 4.526-8.038 20.334 3.31.81 9.39 20.807 2.23-12.632-54.718zm9.458 17.496.135.07 3.04 17.699-11.755-1.959zm82.348-11.823v.001a95.308 95.308 0 0 0 -7.768.405c-16.187 1.452-28.501 6.047-27.36 18.983.623 6.986 5.108 12.247 14.862 12.835l22.833 1.352c2.698.173 3.713 1.553 3.85 3.04.208 2.352-1.308 4.176-7.43 4.729-3.079.277-5.301.104-6.823-.474-1.487-.622-2.224-1.65-2.432-3.31l-23.711 2.093c1.383 14.665 18.12 15.3 33.304 13.916 22.101-1.972 31.506-8.6 30.399-20.74-.726-8.473-7.331-12.516-17.361-13.104l-23.847-1.42c-1.971-.103-2.734-.877-2.837-2.295-.173-2.11 1.753-3.738 7.633-4.256 2.18-.208 4.417-.104 6.215.473 1.868.554 3.17 1.71 3.378 3.717l22.833-2.096c-1.422-9.17-8.97-14.097-25.738-13.85zm78.227-20.941-22.495 8.783-3.175 56.204 19.793-5.675v-9.457l19.456-6.958 5.81 7.026 18.644-8.647zm-5.944 18.916 11.281 13.983-11.214 4.054-.204-17.97zm76.808-62.826s-8.682 7.642-23.036 17.362c-14.353 9.684-23.44 14.929-23.44 14.929l8.443 12.092 15.335-9.998 21.212 32.899 16.551-11.552-21.212-32.088 15.335-9.998z" fill="#fff"/><path d="m3.97 243.614v216.449h987.718v-216.45z" fill="#f7e600"/><path d="m356.453 276.956v29.192h17.985v121.333h36.006v-150.525zm339.825-3.228c-42.958 0-77.755 35.193-77.755 78.566s34.797 78.565 77.755 78.565 77.754-35.193 77.754-78.565-34.796-78.566-77.754-78.566zm-.07 35.263c23.555 0 42.627 19.236 42.627 43.032 0 23.761-19.072 43.032-42.626 43.032s-42.627-19.27-42.627-43.032c0-23.796 19.073-43.032 42.627-43.032zm-177.664-35.263c-42.958 0-77.755 35.193-77.755 78.566s34.797 78.565 77.755 78.565c42.957 0 77.754-35.193 77.754-78.565s-34.797-78.566-77.754-78.566zm-.07 35.263c23.554 0 42.627 19.236 42.627 43.032 0 23.761-19.073 43.032-42.627 43.032s-42.694-19.27-42.694-43.032c0-23.796 19.14-43.032 42.694-43.032zm353.106-35.263c-42.958 0-77.822 35.193-77.822 78.566 0 43.372 34.864 78.565 77.822 78.565s77.755-35.193 77.755-78.565-34.797-78.566-77.755-78.566zm-.135 35.263c23.554 0 42.694 19.236 42.694 43.032 0 23.761-19.14 43.032-42.694 43.032-23.52 0-42.626-19.27-42.626-43.032 0-23.796 19.106-43.032 42.626-43.032z"/><path d="m0 235.695v231.778h1000v-231.778h-8.444zm323.38 11.214h665.136v209.214h-665.136z" fill="#383381"/><path d="m37.21 273.947v27.29h31.958v127.248h30.575v-127.248h34.207v-27.29zm227.205 0-37.77 87.749-36.87-87.265h-32.928l69.763 161.801 69.798-162.285z" fill="#fff"/></svg>