<svg height="2500" viewBox="0 0 76.349 87.062" width="2192" xmlns="http://www.w3.org/2000/svg"><path d="m5.095 0 33.073 66.146 33.073-66.146z" fill="#2c2c54"/><path d="m38.168 0v66.146l33.073-66.146z" fill="#7692af"/><path d="m22.293 0 15.875 33.073 15.875-33.073z" fill="#7692af"/><path d="m38.168 33.073 15.875-33.073h-15.875z" fill="#2c2c54"/><path d="m17.81 69.86v.46q-.893.16-1.352.57-.657.607-1.166 1.86l-5.866 14.312h-.46l-6.3-14.498q-.483-1.116-.682-1.364-.31-.385-.769-.596-.445-.223-1.215-.284v-.459h6.87v.46q-1.165.11-1.512.396-.347.285-.347.732 0 .62.57 1.935l4.279 9.86 3.969-9.736q.583-1.44.583-1.997 0-.36-.36-.682-.36-.335-1.216-.472-.062-.012-.21-.037v-.459zm2.468-.818q.52 0 .88.372.372.36.372.88t-.372.893q-.36.372-.88.372-.521 0-.893-.372t-.372-.893q0-.52.36-.88.372-.372.905-.372zm1.03 5.94v9.129q0 1.066.148 1.426.161.347.459.52.31.174 1.116.174v.447h-5.519v-.447q.831 0 1.116-.16.286-.162.447-.534.173-.372.173-1.426v-4.378q0-1.848-.111-2.394-.087-.397-.273-.546-.186-.161-.509-.161-.347 0-.843.186l-.174-.446 3.424-1.39zm12.786 7.38q-.459 2.245-1.798 3.46-1.34 1.203-2.964 1.203-1.935 0-3.374-1.625-1.439-1.624-1.439-4.39 0-2.679 1.588-4.353 1.6-1.675 3.832-1.675 1.675 0 2.754.893 1.079.881 1.079 1.836 0 .471-.31.769-.298.285-.844.285-.732 0-1.104-.471-.21-.26-.285-.992-.062-.732-.496-1.116-.434-.373-1.203-.373-1.24 0-1.997.918-1.004 1.216-1.004 3.212 0 2.034.992 3.597 1.004 1.55 2.704 1.55 1.215 0 2.182-.83.682-.571 1.327-2.072zm4.986-13.32v11.298l2.89-2.629q.917-.843 1.066-1.067.1-.148.1-.297 0-.248-.212-.422-.198-.186-.67-.21v-.398h4.937v.397q-1.017.025-1.7.31-.669.286-1.475 1.017l-2.916 2.692 2.915 3.683q1.215 1.526 1.637 1.935.595.583 1.042.756.31.124 1.079.124v.447h-5.52v-.447q.472-.012.633-.136.174-.136.174-.372 0-.285-.496-.918l-3.485-4.452v3.77q0 1.104.149 1.451.16.347.446.496.285.149 1.24.161v.447h-5.78v-.447q.869 0 1.303-.21.26-.137.397-.422.186-.41.186-1.414v-10.344q0-1.971-.087-2.406-.087-.446-.285-.607-.199-.174-.521-.174-.26 0-.781.21l-.211-.433 3.373-1.39zm11.249 10.554q-.013 2.53 1.228 3.969 1.24 1.439 2.914 1.439 1.116 0 1.935-.608.83-.62 1.389-2.109l.384.249q-.26 1.699-1.513 3.1-1.252 1.39-3.137 1.39-2.047 0-3.51-1.588-1.451-1.6-1.451-4.292 0-2.914 1.488-4.539 1.5-1.637 3.758-1.637 1.91 0 3.138 1.265 1.227 1.253 1.227 3.361zm0-.72h5.258q-.062-1.09-.26-1.537-.31-.695-.93-1.091-.608-.397-1.278-.397-1.03 0-1.848.806-.806.794-.942 2.22zm12.687-3.894v2.555q1.427-2.555 2.927-2.555.682 0 1.129.422.446.41.446.955 0 .484-.322.819-.323.335-.77.335-.433 0-.979-.422-.533-.434-.794-.434-.223 0-.483.248-.558.508-1.154 1.674v5.445q0 .942.236 1.426.161.335.57.558.41.223 1.179.223v.447h-5.817v-.447q.868 0 1.29-.272.31-.199.434-.633.062-.21.062-1.203v-4.403q0-1.984-.087-2.356-.074-.385-.298-.558-.21-.174-.533-.174-.384 0-.868.186l-.124-.446 3.435-1.39zm12.477 0v3.87h-.41q-.47-1.823-1.215-2.48-.731-.658-1.872-.658-.869 0-1.402.46-.533.458-.533 1.016 0 .695.397 1.19.384.51 1.562 1.08l1.811.88q2.518 1.228 2.518 3.237 0 1.55-1.178 2.506-1.166.942-2.617.942-1.042 0-2.382-.372-.409-.124-.67-.124-.285 0-.446.323h-.409v-4.056h.41q.347 1.736 1.326 2.617.98.88 2.196.88.855 0 1.389-.496.545-.508.545-1.215 0-.856-.607-1.439-.596-.583-2.394-1.476t-2.357-1.612q-.558-.707-.558-1.786 0-1.401.955-2.344.968-.943 2.493-.943.67 0 1.625.286.632.186.843.186.199 0 .31-.087.112-.087.26-.384z"/></svg>