<svg height="1077" viewBox="5.746 3.265 728.552 306.758" width="2500" xmlns="http://www.w3.org/2000/svg"><path d="m311.546 83.385c0-19.218-3.246-37.703-8.812-55.08l.109-.256c4.484-2.176 13.606-6.874 22.788-11.81 9.953-5.353 20.875-10.42 26.428-11.531 7.214-1.443 13.938.742 17.973 6.929 4.03-6.19 10.75-8.372 17.964-6.93 5.558 1.112 16.48 6.175 26.433 11.531 9.181 4.937 18.304 9.63 22.771 11.786l.113.256c-5.553 17.394-8.8 35.887-8.8 55.105 0 18.397 3.515 36 8.637 52.731l-.13.26c-30.598 11.334-49.217 25.56-66.808 43.89h-.306c-17.62-18.33-36.054-32.49-66.858-43.864l-.126-.26c5.113-16.757 8.624-34.36 8.624-52.757" fill="#fff"/><path d="m311.546 83.385c0-19.218-3.246-37.703-8.812-55.08l.109-.256c4.484-2.176 13.606-6.874 22.788-11.81 9.953-5.353 20.875-10.42 26.428-11.531 7.214-1.443 13.938.742 17.973 6.929 4.03-6.19 10.75-8.372 17.964-6.93 5.558 1.112 16.48 6.175 26.433 11.531 9.181 4.937 18.304 9.63 22.771 11.786l.113.256c-5.553 17.394-8.8 35.887-8.8 55.105 0 18.397 3.515 36 8.637 52.731l-.13.26c-30.598 11.334-49.217 25.56-66.808 43.89h-.306c-17.62-18.33-36.054-32.49-66.858-43.864l-.126-.26c5.113-16.757 8.624-34.36 8.624-52.757z" fill="none" stroke="#900027" stroke-miterlimit="3.864" stroke-width="2.097"/><path d="m405.508 25.269c-7.714-3.838-15.687-7.5-19.974-8.356-8.145-1.631-14.357 4.857-15.343 8.783l-.205.814-.206-.814c-.99-3.926-7.059-10.414-15.2-8.783-4.295.86-12.26 4.518-19.973 8.36-7.58 3.77-14.878 7.696-18.133 9.26 4.409 14.48 6.774 29.596 6.854 45.627h10.918v-8.238h24.75v-24.746h21.63v24.746h24.743v8.234h11.426c.08-16.027 2.436-31.148 6.849-45.626-3.263-1.56-10.557-5.487-18.136-9.261m-35.518 138.794c14.852-14.021 33.332-27.624 53.432-34.586-2.01-6.942-4.031-16.576-5.201-26.114-1.078-8.745-1.347-16.782-1.456-18.04h-11.395v8.234h-24.742v24.746h-21.63v-24.746h-24.751v-8.234h-10.964c-.37 14.768-2.857 31.047-6.67 44.158 20.096 6.958 38.522 20.56 53.378 34.582" fill="#900027"/><path d="m46.581 290.007 16.778-45.484c1.01-3.032-.407-5.255-5.864-6.065v-4.039h25.065v4.04c-4.446.2-8.082 1.01-10.104 6.467l-24.864 65.096h-5.46l-27.696-65.499c-2.424-5.662-6.67-5.863-8.69-5.863v-4.24h28.907v4.038c-4.648.81-5.864 3.435-5.256 5.256zm68.93 8.288c0 2.428 1.216 3.64 3.64 4.651 1.414.604 3.436 1.217 4.854 1.414v3.842h-29.717v-3.842c1.01-.197 4.244-1.011 5.255-1.615 1.82-1.01 3.234-2.022 3.234-4.652v-53.771c0-4.043-5.054-5.662-8.49-6.065v-3.838h29.718v3.838c-4.044.81-8.494 1.615-8.494 6.266zm77.83-63.876.403 20.615h-3.838c-1.01-4.043-2.022-7.478-3.842-9.902-2.63-3.44-6.472-5.055-12.13-5.055-18.799 0-20.62 18.8-20.62 30.925 0 12.332 2.224 31.537 22.033 31.135 6.066-.202 15.163-3.64 21.228-11.522l.608-.81 4.04 3.033-.202.403c-6.87 12.134-20.011 16.58-28.3 16.58-23.45 0-35.378-20.825-35.378-38.21 0-14.148 8.694-38.61 31.134-38.61 8.69 0 15.159 2.022 20.62 4.85l.809-3.432zm49.728 7.881v55.395c0 2.621 1.82 4.643 4.652 5.654 1.413.608 3.028.814 4.848 1.01v3.843h-30.929v-3.842c1.82-.197 3.234-.403 5.461-1.212 2.223-.81 4.04-2.832 4.04-5.663l-.202-55.185h-9.701c-5.864 0-7.684 2.429-8.695 5.055-.805 2.223-1.01 4.446-1.01 6.669l-4.246-.198v-19.406h59.635v19.605h-4.446c-.2-3.033-.608-5.659-1.619-7.68-1.413-2.827-3.636-4.044-6.467-4.044zm103.097 29.713c-.403 19.407-13.346 38.01-34.364 38.01-21.433 0-35.174-16.984-35.58-38.413-.4-20.01 13.342-38.814 35.379-38.814 21.424 0 34.968 19.206 34.565 39.217m-54.38-1.212c-.398 15.162 4.656 31.537 19.609 31.537 15.565 0 19.407-16.777 19-31.94-.398-14.755-2.827-30.12-19-30.12-16.777 0-19.403 15.566-19.608 30.523m138.274 37.4h-17.993l-15.972-27.694h-12.739v17.586c0 2.832 2.026 5.457 9.102 6.267l.206 3.842h-31.14v-4.04c2.027 0 3.847-.406 5.663-1.216s3.64-2.83 3.64-5.054v-52.358c0-4.853-5.053-6.673-10.108-7.277v-3.838h35.376c12.33 0 27.292 8.284 27.292 22.436 0 7.281-3.234 17.788-15.162 21.63l12.13 20.011c2.021 3.238 4.651 5.461 9.5 5.864zm-38.814-66.308c-.604 0-3.435.206-7.68.609v31.331h12.529c9.298-.604 13.14-5.456 13.14-16.571 0-13.745-8.288-15.369-17.99-15.369m75.201 56.402c0 2.428 1.212 3.64 3.637 4.651 1.417.604 3.435 1.217 4.852 1.414v3.842h-29.72v-3.842c1.019-.197 4.248-1.011 5.26-1.615 1.82-1.01 3.233-2.022 3.233-4.652v-53.771c0-4.043-5.05-5.662-8.494-6.065v-3.838h29.721v3.838c-4.047.81-8.489 1.615-8.489 6.266zm94.2 9.907h-2.83l-46.696-54.376v44.267c0 1.82 1.212 3.436 3.238 4.853 2.018 1.217 3.637 1.217 5.457 1.414v3.842h-24.868v-3.842c1.212-.197 2.83-.403 4.244-1.011 2.429-.81 4.25-2.626 4.25-5.256v-52.76c-1.821-3.64-5.86-7.076-10.516-7.076v-3.838h19.202l40.634 48.31v-38.206c0-4.043-4.848-6.266-8.485-6.266v-3.838h25.061v3.838c-4.24.403-8.69 1.615-8.69 6.065zm91.978-36.39c-.406 19.407-13.338 38.009-34.565 38.009-21.228 0-35.174-16.983-35.58-38.412-.198-20.011 13.543-38.814 35.379-38.814 21.634 0 35.173 19.206 34.766 39.217m-54.58-1.208c-.202 15.158 4.647 31.533 19.814 31.533 15.368 0 19.403-16.782 19.004-31.944-.407-14.752-3.032-30.116-19.004-30.116-16.778-.205-19.613 15.566-19.815 30.527m105.723-2.63 19.009 28.5c1.816 2.832 4.043 4.652 6.065 5.864 1.01.608 3.64 2.022 5.457 2.022v3.842h-31.538v-3.842c.206 0 3.029-.403 4.853-1.212 1.816-.81 2.425-3.033.806-5.055l-12.735-19.205-14.554 19.608c-2.63 3.033-.403 5.461 3.238 5.864v3.842h-23.455v-4.04c5.457-.813 7.479-3.036 9.903-6.27l19.814-26.688-17.582-26.072c-2.832-4.245-7.286-6.875-11.526-6.875v-3.838h32.145v3.838c-3.636.403-8.896 1.615-6.266 5.864l11.115 16.576 12.532-16.576c2.63-3.234.609-5.663-3.435-5.864v-3.838h23.656v3.838c-3.842.201-5.868 1.82-8.09 4.043z" fill="#231f20"/></svg>