<svg height="1527" viewBox="-.04 2.43 41.6 27.87" width="2500" xmlns="http://www.w3.org/2000/svg"><text fill="#777" font-family="Montserrat-Black, Montserrat" font-size="9" font-weight="800" transform="matrix(.89 0 0 1 28.95 30.76)"><tspan letter-spacing="-.05em">W</tspan><tspan x="10.36" y="0">e Host</tspan><tspan letter-spacing="-.06em" x="44.2" y="0">Y</tspan><tspan letter-spacing="0em" x="50.05" y="0">our D</tspan><tspan letter-spacing="0em" x="76.67" y="0">r</tspan><tspan letter-spacing="-.02em" x="80.73" y="0">e</tspan><tspan x="86.47" y="0">ams</tspan></text><path d="m-.04 2.43 18 27.87 18-27.87h-10l-7.94 12.34-5.26-7.7h-3.09q4.17 6.38 8.29 12.75l9.53-14.27h2.72l-12.25 19.73q-6.06-9.87-12.19-19.73h9.29l3.12 4.63 1.55-2.32-3.48-5.43z" fill="#df2941"/><text fill="#333" font-family="Montserrat-SemiBold, Montserrat" font-size="24" font-weight="600" transform="translate(43.72 20.4)">KHO<tspan letter-spacing="-.01em" x="57.14" y="0">S</tspan><tspan x="72" y="0">T</tspan></text><path d="m38.57 7.5h2.99v13h-2.99z" fill="#333"/><path d="m38.57 2.5h2.99v2.99h-2.99z" fill="#df2941"/></svg>