<svg height="2500" viewBox=".068 80.336 255.841 95.298" width="2500" xmlns="http://www.w3.org/2000/svg"><g stroke-linecap="square" stroke-miterlimit="0"><path d="m75.99 80.336s-.425.928-.715 1.418c-.252.427-.699 1.315-.699 1.315l.589.05-1.44 1.69.747-.061-.896 1.148 1.67-.722-4.741 5.913 1.759-.35s-2.98 3.267-4.459 4.91c-2.218 2.466-5.18 5.75-6.624 7.425-2.888 3.352-4.327 5.043-6.45 7.597-2.246 2.706-4.516 5.392-6.762 8.098-1.607 1.938.488-.48-4.802 5.829-.681.813-2.275-.007-3.333.041-.727.033-2.185-.508-2.843-1.085-.371-.325-.416-.733-.388-1.225.035-.613.555-1.069 1.042-1.443.316-.242.954-.476.954-.476l.89-.157s2.145-2.974 3.272-4.359a407.685 407.685 0 0 1 6.346-7.615c1.943-2.27 3.894-4.536 5.917-6.735 1.575-1.712 3.224-3.356 4.842-5.027 1.815-1.875 3.628-3.751 5.46-5.609 2.1-2.127 4.221-4.232 6.34-6.34 1.378-1.37 4.323-4.23 4.323-4.23zm-41.406 44.854c.61-.196 1.308-.28 1.919-.088.556.174.995.632 1.387 1.062.399.438.688.972.945 1.506.103.216.202.441.236.678.05.352.078.736-.06 1.063-.237.565-.739 1.004-1.239 1.358a3.307 3.307 0 0 1 -1.18.502 4.504 4.504 0 0 1 -2.067 0c-.364-.09-.774-.348-1.136-.443-.747-.196-1.09.042-1.461-.428-.36-.455-.156-1.503-.015-2.066.143-.568.434-.854.694-1.255.267-.413.526-.845.885-1.18.317-.297.68-.576 1.092-.709zm-33.9 50.444s1.388-1.703 1.492-1.557c.105.146.314.668.314.668s.548-.992 1.081-1.245c.366-.173 1.11.034 1.13-.112.022-.146.566-1.018 1.056-1.31.156-.093.469-.15.469-.15l9.6-13.38 7.347-10.018 4.977-6.929s2.27-2.975 3.602-4.255c.76-.73 1.591-1.4 2.419-1.943.367-.241.077-.906-.082-1.316-.309-.798-.99-1.41-1.607-2.004-.362-.348-.715-.566-1.21-.897-.417-.278-1.19-.432-1.503-.042-3.38 4.196-9.539 13.045-9.539 13.045l-5.74 8.056-4.675 6.68-3.506 5.468-3.423 5.551-1.523 2.458s.068.385 0 .614c-.122.405-.39.715-.773.81-.227.057-.339.842-.481 1.557-.041.206.575.251.575.251z" fill="#3da93f" stroke="#3da93f" stroke-width=".216235"/><g stroke="#000"><path d="m102.134 138.776c.768-.266 6.28-4.948 6.28-4.948l5.974 4.982c.46.918-4.346-8.128-4.346-8.128h-3.464zm.143 10.422c.347.039.717.04 1.044-.083.258-.097.462-.272.626-.477.272-.341.47-.786.542-1.193s-.062-.734-.083-1.169-.154-1.008-.034-1.439.321-.72.665-1.05c.344-.332.85-.623 1.402-.818s1.193-.25 1.736-.177c.544.073 1.056.285 1.442.555s.682.603.93.967.465.762.538 1.21c0 0 .174.86.209 1.295.092 1.15 0 3.464 0 3.464-.446.126-.894.241-1.336.376-.589.18-1.173.372-1.753.577-.674.238-1.347.48-2.004.759-.78.33-1.573.645-2.296 1.085-.883.538-1.771 1.116-2.463 1.884-.644.714-1.182 1.556-1.505 2.462-.31.872-.415 1.804-.373 2.75.028.638.111 1.297.375 1.879.298.655.8 1.21 1.315 1.711.358.348.805.67 1.21.877s.866.355 1.19.417c.41.08.838.09 1.253.042.536-.061 1.115-.25 1.565-.417.567-.21.966-.395 1.482-.71.746-.456 1.408-1.036 2.087-1.586.421-.341.807-.724 1.21-1.086.07.32.086.657.21.96.185.456.38.929.71 1.295.314.35.728.625 1.168.793.528.202.87.252 1.434.218.404-.024.98-.207 1.363-.385s.56-.3.918-.626.904-1.004 1.14-1.38.363-.791.363-.791c-.46.167-.708.328-1.169.49-.249.088-.339.242-.929.272-.325.016-.699-.136-.95-.345a.945.945 0 0 1 -.396-.751c-.018-4.127.001-13.85.001-13.85 0-.85-.303-1.411-.599-2.063-.27-.596-.593-1.128-1.06-1.653s-1.136-1.073-1.744-1.427c-.339-.197-.8-.349-1.336-.47s-1.246-.188-1.874-.196a11.631 11.631 0 0 0 -3.615.551c-.58.189-1.157.405-1.69.7a5.92 5.92 0 0 0 -1.125.795c-.417.378-.813.831-1.067 1.333a4.565 4.565 0 0 0 -.48 1.587c-.061.525-.07 1.069.041 1.586.074.34.22.712.501.918.338.247.795.288 1.21.334zm8.994 2.59v7.803s-.35.446-.55.648c-.29.297-.584.604-.937.825-.63.395-1.325.722-2.054.865a4.256 4.256 0 0 1 -1.773-.022c-.607-.143-1.236-.38-1.684-.814-.357-.345-.56-.778-.692-1.32a4.439 4.439 0 0 1 0-2.101 5.437 5.437 0 0 1 .933-1.962c.433-.576 1.08-1.074 1.66-1.502.463-.342.942-.616 1.438-.907.454-.267.93-.493 1.413-.7.732-.312 2.246-.813 2.246-.813zm88.1-2.59c.347.039.717.04 1.044-.083.258-.097.462-.272.626-.477.272-.341.47-.786.542-1.193s-.062-.734-.083-1.169-.154-1.008-.034-1.439.321-.72.665-1.05c.344-.332.85-.623 1.402-.818s1.193-.25 1.736-.177c.544.073 1.056.285 1.442.555s.683.603.93.967.466.762.538 1.21c0 0 .174.86.209 1.295.092 1.15 0 3.464 0 3.464-.446.126-.894.241-1.336.376-.589.18-1.173.372-1.753.577-.674.238-1.347.48-2.004.759-.78.33-1.573.645-2.296 1.085-.883.538-1.771 1.116-2.463 1.884-.644.714-1.182 1.556-1.505 2.462-.31.872-.415 1.804-.373 2.75.028.638.111 1.297.375 1.879.298.655.8 1.21 1.315 1.711.358.348.805.67 1.21.877s.866.355 1.19.417c.41.08.838.09 1.253.042.536-.061 1.115-.25 1.565-.417.567-.21.966-.395 1.482-.71.746-.456 1.408-1.036 2.087-1.586.421-.341.807-.724 1.21-1.086.07.32.086.657.21.96.185.456.38.929.71 1.295.314.35.728.625 1.168.793.528.202.87.252 1.434.218.404-.024.981-.207 1.363-.385s.56-.3.918-.626.904-1.004 1.14-1.38.363-.791.363-.791c-.46.167-.708.328-1.169.49-.249.088-.339.242-.929.272-.325.016-.699-.136-.95-.345a.945.945 0 0 1 -.396-.751c-.018-4.127.001-13.85.001-13.85 0-.85-.303-1.411-.599-2.063-.27-.596-.593-1.128-1.06-1.653s-1.136-1.073-1.744-1.427c-.339-.197-.8-.349-1.336-.47s-1.246-.188-1.874-.196a11.631 11.631 0 0 0 -3.615.551c-.58.189-1.157.405-1.69.7a5.92 5.92 0 0 0 -1.125.795c-.417.378-.813.831-1.067 1.333a4.565 4.565 0 0 0 -.48 1.587c-.06.525-.07 1.069.041 1.586.074.34.22.712.501.918.338.247.795.288 1.21.334zm8.994 2.59v7.803s-.35.446-.55.648c-.29.297-.584.604-.937.825-.63.395-1.325.722-2.054.865a4.256 4.256 0 0 1 -1.772-.022c-.608-.143-1.237-.38-1.685-.814-.357-.345-.56-.778-.692-1.32a4.439 4.439 0 0 1 0-2.101 5.437 5.437 0 0 1 .933-1.962c.433-.576 1.08-1.074 1.66-1.502.463-.342.942-.616 1.439-.907.453-.267.929-.493 1.412-.7.732-.312 2.246-.813 2.246-.813zm-63.258-26.305 4.945-2.294a38.862 38.862 0 0 0 2.03-1.009v39.683c0 .382.268 1.06.268 1.06.102.245.325.398.56.566.234.168.62.372 1.218.526.444.115 1.298.306 1.298.306h-10.36s1.791-.14 2.468-.657c.328-.251.6-.57.769-.947.185-.415.23-.76.23-1.52v-35.01c0-.257-.139-.53-.323-.698-.184-.167-.308-.189-.677-.225-.37-.036-.971.062-1.471.132-.363.05-1.174.188-.955.087zm10.31 0 4.946-2.294a38.862 38.862 0 0 0 2.03-1.009v39.683c0 .382.267 1.06.267 1.06.102.245.325.398.56.566.234.168.62.372 1.219.526.443.115 1.298.306 1.298.306h-10.36s1.79-.14 2.467-.657c.328-.251.6-.57.77-.947.184-.415.229-.76.229-1.52v-35.01c0-.257-.138-.53-.322-.698-.184-.167-.308-.189-.678-.225s-.97.062-1.47.132c-.363.05-1.175.188-.956.087zm79.228 0 4.946-2.294a38.862 38.862 0 0 0 2.03-1.009v39.683c0 .382.267 1.06.267 1.06.102.245.325.398.56.566.234.168.62.372 1.219.526.443.115 1.298.306 1.298.306h-10.36s1.79-.14 2.467-.657c.328-.251.6-.57.77-.947.184-.415.229-.76.229-1.52v-35.01c0-.257-.138-.53-.322-.698-.184-.167-.308-.189-.678-.225s-.97.062-1.47.132c-.363.05-1.174.188-.956.087zm-150.147 20.635c.378-.376.557-.565 1.166-1.093s1.625-1.425 2.524-2.022a7.85 7.85 0 0 1 1.416-.767c.649-.259 1.327-.483 2.022-.545.689-.06 1.405-.023 2.067.178.56.169.94.387 1.537.844 1.013.775 2.083 2.612 2.084 3.888 0 .35.004-.177.002.078-.035 5.061 0 15.184 0 15.184 0 .382.267 1.06.267 1.06.102.245.325.398.56.566.234.168.62.372 1.219.526.443.115 1.298.306 1.298.306h-10.36s1.79-.14 2.467-.657c.328-.251.6-.57.77-.947.184-.415.229-.76.229-1.52v-11.223l-.003-.51s-.133-1.77-.41-2.402c-.273-.625-.395-1.04-.693-1.505-.2-.311-.422-.628-.724-.842a3.522 3.522 0 0 0 -1.475-.575 3.743 3.743 0 0 0 -1.506.088c-.681.177-.96.258-1.375.517-1.214.757-2.232 1.916-3.121 2.946v14.172c0 .382.267 1.06.267 1.06.102.245.325.398.56.566.234.168.62.372 1.219.526.443.115 1.298.306 1.298.306h-10.36s1.79-.14 2.467-.657c.328-.251.6-.57.77-.947.184-.415.229-.76.229-1.52v-35.01c0-.257-.138-.53-.322-.698-.184-.167-.308-.189-.678-.225s-.971.062-1.47.132c-.363.05-1.175.188-.956.087l4.946-2.294a38.862 38.862 0 0 0 2.03-1.009v23.936zm104.448 2.336v13.409c0 .382.267 1.06.267 1.06.102.245.325.398.56.566.234.168.62.372 1.219.526.443.115 1.298.306 1.298.306h-10.36s1.79-.14 2.467-.657c.328-.251.6-.57.77-.947.184-.415.229-.76.229-1.52v-15.927s-.138-.53-.322-.697-.308-.189-.678-.225c-.37-.037-.97.062-1.47.131-.363.05-1.174.189-.956.087l4.946-2.293a38.862 38.862 0 0 0 2.03-1.009v2.052l.06 2.43s1.501-1.904 2.405-2.703c.344-.305.581-.662.963-.918.384-.257.885-.513 1.334-.623.44-.107.924-.013 1.352.135.474.165 1.27.811 1.27.811s.41.584.514.92c.147.475.211.95.02 1.41-.13.313-.515.816-.65.897s-.47.24-.749.341c-.39.143-.851.248-1.243.108-.436-.155-.707-.71-.996-.969s-.465-.469-.75-.57-.528-.092-.95.084-.955.72-1.359 1.158c-.319.347-.63.782-.824 1.149-.155.293-.23.62-.308.94-.043.177-.089.54-.089.54zm-14.936-6.965c-.983.104-1.95.338-2.867.764-.725.336-1.482.904-2.064 1.453-.514.485-.99 1.137-1.414 1.758-.433.631-.837 1.289-1.147 1.988-.521 1.175-.674 2.287-.88 3.46-.203 1.166-.406 2.49-.344 3.535.064 1.063.154 2.333.42 3.364.27 1.037.474 1.7.995 2.637.307.554.731 1.217 1.223 1.72.656.671 1.412 1.272 2.255 1.683 1.306.636 2.753 1.106 4.205 1.147.977.027 1.731-.11 2.867-.613s2.819-1.739 3.67-2.637 1.224-1.54 1.567-2.446c.383-1.013.497-3.211.497-3.211s-1.109 1.81-2.026 2.637-2.15 1.844-3.478 2.14c-1.552.347-3.273.078-4.74-.535-.862-.36-1.611-1.017-2.18-1.757-.67-.874-1.036-1.961-1.337-3.02-.281-.99-.443-2.038-.574-3.059-.068-.534-.038-1.605-.038-1.605l14.163-.019s-.077-2.035-.287-2.848-.408-1.486-.744-2.137-.842-1.39-1.245-1.834c-.949-1.043-2.17-1.89-3.505-2.344-.99-.336-1.992-.184-2.992-.221zm-1.055 2.014a3.494 3.494 0 0 1 1.82.164c.81.307 1.56.854 2.095 1.54.677.864.649.995.816 1.557.18.6.184 1.872.184 1.872h-8.906s.02-1.324.21-1.95c.12-.398.277-.705.58-1.107s.785-.896 1.275-1.224c.583-.39 1.246-.736 1.926-.852zm-35.947-2.014c-.984.104-1.95.338-2.867.764-.726.336-1.483.904-2.064 1.453-.514.485-.99 1.137-1.415 1.758-.432.631-.836 1.289-1.146 1.988-.522 1.175-.675 2.287-.88 3.46-.204 1.166-.407 2.49-.344 3.535.063 1.063.153 2.333.42 3.364.27 1.037.474 1.7.995 2.637.307.554.73 1.217 1.223 1.72.655.671 1.412 1.272 2.255 1.683 1.306.636 2.752 1.106 4.205 1.147.976.027 1.731-.11 2.866-.613s2.82-1.739 3.67-2.637 1.225-1.54 1.567-2.446c.384-1.013.498-3.211.498-3.211s-1.11 1.81-2.026 2.637-2.15 1.844-3.479 2.14c-1.552.347-3.273.078-4.74-.535-.861-.36-1.61-1.017-2.178-1.757-.67-.874-1.038-1.961-1.338-3.02-.282-.99-.443-2.038-.574-3.059-.069-.534-.038-1.605-.038-1.605l14.163-.019s-.077-2.035-.288-2.848-.408-1.486-.743-2.137-.842-1.39-1.245-1.834c-.95-1.043-2.17-1.89-3.506-2.344-.99-.336-1.992-.184-2.991-.221zm-1.055 2.014a3.494 3.494 0 0 1 1.82.164c.81.307 1.559.854 2.095 1.54.677.864.648.995.816 1.557.18.6.184 1.872.184 1.872h-8.906s.02-1.324.21-1.95c.12-.398.277-.705.579-1.107s.786-.896 1.275-1.224c.584-.39 1.247-.736 1.927-.852zm-16.364 16.983c-.36-2.45.013-17.11.002-17.052l-3.586-.054.037-.96s1.262-.172 1.863-.373c.343-.114.482-.184.977-.468a9.412 9.412 0 0 0 1.318-.902 6.91 6.91 0 0 0 1.185-1.26c.468-.642.823-1.363 1.159-2.083.358-.768.908-2.374.908-2.374s.133 7.257 0 6.758h4.243v1.594h-4.243l.162 15.951s-.035 1.404.315 1.969c.186.299.049.286.725.659.16.089.469.13.652.144.39.027.78-.111 1.146-.249.927-.347 2.6-1.433 2.6-1.433l-1.013 1.51s-1.073 1.35-1.72 1.911c-.389.337-.757.657-1.24.833-.446.162-.981.168-1.455.18-.562.014-1.11-.03-1.628-.244-.742-.308-2.067-1.752-2.251-3.003zm126.857 0c-.36-2.45.013-17.11.001-17.052l-3.585-.054.037-.96s1.262-.172 1.863-.373c.342-.114.482-.184.977-.468a9.412 9.412 0 0 0 1.318-.902 6.91 6.91 0 0 0 1.184-1.26c.469-.642.823-1.363 1.16-2.083.358-.768.907-2.374.907-2.374s.134 7.257 0 6.758h4.244v1.594h-4.244l.163 15.951s-.035 1.404.315 1.969c.186.299.048.286.725.659.16.089.468.13.651.144.39.027.78-.111 1.147-.249.927-.347 2.6-1.433 2.6-1.433l-1.014 1.51s-1.072 1.35-1.72 1.911c-.388.337-.757.657-1.24.833-.445.162-.98.168-1.455.18-.561.014-1.109-.03-1.627-.244-.742-.308-2.067-1.752-2.251-3.003zm-16.917-1.352c.01-.66.02-1.683.024-2.381.022-3.28.005-9.837.005-9.837v-2.104c0-.383-.267-.938-.267-.938a1.757 1.757 0 0 0 -.56-.689c-.234-.168-.62-.371-1.219-.526-.443-.115-1.298-.306-1.298-.306h6.559l.318-.007c-.003.756.017 3.715.017 4.095l-.005 2.576v10.967c0 .256.094 1.048.38 1.462.193.28.506.49.83.588.403.122.761.034 1.261-.036.362-.05 1.174-.188.955-.087 0 0-3.77 1.64-4.946 2.185s-2.137 1.185-2.135 1.04c0 0 .025-2.78.046-4.17l-.147.154c-.897 1.08-1.809 1.974-2.662 2.568-.623.433-1.271.907-1.988 1.156-.67.234-1.388.255-2.089.236-.643-.017-1.297-.105-1.904-.319-.675-.237-1.352-.557-1.871-1.048a5.397 5.397 0 0 1 -1.399-2.194c-.305-.877-.337-2.764-.337-2.764v-13.943c0-.383-.267-.938-.267-.938a1.757 1.757 0 0 0 -.56-.689c-.234-.168-.62-.371-1.218-.526-.444-.115-1.299-.306-1.299-.306h6.559l.48.012c.002 0 .14 1.27.059 16.497 0 0 .11 1.069.441 1.56.367.544.733.915 1.184 1.199.451.283.933.408 1.43.49.181.029.55-.003.55-.003 1.229-.039 1.781-.15 2.93-.957s2.036-1.874 2.036-1.874z" stroke-width=".22056"/><path d="m179.23 125.574h1.21v11.603h-1.278zm5.785 0h1.209v11.603h-1.278zm4.414 10.383v1.29h-4.493v-1.363zm36.076-10.383h1.21v11.603h-1.278zm5.826.034v1.29h-4.493l-.129-1.324zm0 4.675v1.29h-4.493v-1.363zm0 5.635v1.29l-4.615-.033.122-1.33zm-39.018-10.344h1.209v11.603h-1.278zm4.414 10.383v1.29h-4.493v-1.363zm-17.497-10.383h1.21v11.603h-1.278zm0 0h1.21v11.603h-1.278zm0 0h1.21v11.603h-1.278zm20.327 0h1.209v11.603h-1.278zm5.825.034v1.29h-4.492l-.13-1.324zm0 4.675v1.29h-4.492v-1.363zm0 5.635v1.29l-4.614-.033.122-1.33zm10.25 1.201h-1.278l.069-11.602h1.449c5.494-.003 6.91 3.139 6.955 5.842.04 2.355-1.469 5.76-6.957 5.76zm.233-1.203c3.84.03 5.85-2.23 5.81-4.583-.046-2.704-2.366-4.633-5.807-4.575l-.236.002v9.155m-43.253 1.094 3.913-11.35-1.277-.011-3.155 8.987h-.013l-3.155-8.987-1.277.01 3.924 11.355z" stroke-width=".239156"/><path d="m76.145 121.59 1.357 14.876s-1.338-3.45-2.302-5.018c-.711-1.157-1.535-2.272-2.538-3.188a15.275 15.275 0 0 0 -3.956-2.598c-1.264-.575-2.57-.883-3.955-1.003-1.99-.173-4.123-.147-6.021.472a14.485 14.485 0 0 0 -5.313 3.129c-1.243 1.156-2.137 2.671-2.893 4.191-.95 1.911-1.56 3.994-2.007 6.08a21.647 21.647 0 0 0 -.472 4.546c.002 2.058.154 4.142.65 6.14.382 1.543 1.026 3.023 1.77 4.427.79 1.49 1.687 2.955 2.834 4.192.936 1.01 2.054 1.863 3.24 2.565 1.233.732 2.558 1.384 3.962 1.678 1.66.347 3.407.292 5.087.059a18.415 18.415 0 0 0 5.362-1.587c1.443-.688 2.733-1.683 3.955-2.715 1.318-1.114 3.69-3.764 3.69-3.764s-.549 1.368-.913 2.006a17.002 17.002 0 0 1 -2.024 2.894c-.919 1.075-2.373 2.4-3.646 3.291s-2.487 1.646-3.896 2.066c-1.837.549-3.78.688-5.697.709-1.676.018-3.401-.14-5.047-.532-2.436-.578-4.934-1.279-7.025-2.656a21.245 21.245 0 0 1 -6.376-6.612c-1.21-1.987-1.846-4.293-2.326-6.57-.46-2.184-.703-4.489-.507-6.712.225-2.559.929-5.108 2.007-7.439 1.063-2.298 2.514-4.471 4.31-6.257 1.586-1.578 3.425-2.818 5.401-3.867a19.128 19.128 0 0 1 4.752-1.741c1.81-.397 3.699-.373 5.55-.295 1.587.066 3.17.305 4.722.649 1.076.238 2.09.708 3.158.974.661.165 1.326.395 2.007.384a3.57 3.57 0 0 0 1.447-.325c.393-.185.786-.407 1.033-.797.294-.464.62-1.653.62-1.653z" stroke-width=".216235"/></g><path d="m64.708 101.194c.365-.14.807-.103 1.17.041.567.226 1.143.788 1.554 1.24.415.458.712.888.908 1.474.22.66.437 1.644-.042 2.15-4.245 4.483-6.449 6.887-6.449 6.887s-2.356 2.433-3.527 3.736c-1.266 1.409-2.522 2.908-3.736 4.362-.355.426-1.204 1.35-1.204 1.35s-1.854.739-2.81 1.313c-1.159.697-2.406 1.519-3.425 2.409-.814.71-1.536 1.347-2.187 2.129-.888 1.067-1.623 2.26-2.316 3.462-.575.997-1.15 2.163-1.519 3.1-.369.938-.538 1.645-.751 2.482-.119.466-.294 1.412-.294 1.412s-2.09 2.305-3.088 3.496c-1.692 2.018-3.17 3.984-4.916 6.183-1.362 1.715-2.546 3.54-3.804 5.334-.777 1.108-1.441 2.277-2.335 3.385-.253.314-1.212.257-1.742.018-1.613-.73-1.869-.808-3.217-2.214-.356-.371-.135-1.225.134-1.601 1.862-2.608 4.402-6.259 6.832-9.409 1.72-2.229 3.39-4.391 5.195-6.552 2.115-2.534 4.434-5.01 6.565-7.53 2.413-2.854 4.825-5.86 7.249-8.705 2.924-3.431 9.043-10.81 12.096-14.128 2.649-2.877 1.729-1.952 4.508-4.834.351-.364.686-.813 1.151-.99zm-54.996-.209c.626-.423 1.356.594 1.87 1.107.45.451.721.755 1.107 1.162.292.307.19.207.73.848.197.234.343.55.031 1.117-.606 1.098-.863 1.407-1.423 2.358-.493.837-.753 1.466-1.262 2.397-.572 1.044-.706.406-1.335.017-.692-.426-1.29-.9-1.762-1.225-.57-.393-1.268-.742-1.495-1.397-.178-.513-.087-1.03.095-1.542.353-.99.935-1.898 1.545-2.755.605-.85.781-1.333 1.9-2.087zm7.488 2.009c.208-.2.65-.32.856-.118 1.22 1.202 2.344 1.89 3.335 2.98.166.183.264.435.295.68.034.256.052.571-.118.767-1.673 1.932-1.652 2.157-2.42 3.276-.778 1.135-.681.816-2.39 3.454-.216.332-2.7-1.11-2.982-1.387-1.02-1.003-2.27-1.266-1.417-2.657 1.527-2.49 1.197-2.239 2.214-3.719.817-1.19 1.446-2.145 2.627-3.276zm30.33-12.278c.304-.232.783-.156 1.148-.042.564.177 1.156.685 1.552 1.124.544.602.881 1.252 1.12 2.028.11.36.407.984.121 1.275-2.786 2.837-4.37 4.269-6.515 6.458-2.667 2.72-5.303 5.413-7.84 8.255a152.531 152.531 0 0 0 -5.04 5.93c-2.084 2.59-3.943 5.035-5.814 7.782-.522.766-.99 1.794-1.774 2.359-.446.32-1.089.225-1.607.041-.95-.337-1.65-.98-2.63-1.92-.231-.222-.084-.675.063-.96 1.227-2.385 2.81-4.57 4.425-6.658 2.066-2.673 3.955-5.271 6.122-7.799 1.955-2.28 3.378-3.978 5.375-6.226 1.662-1.87 3.971-4.167 5.727-6.04s3.364-3.924 5.567-5.607zm6.314 3.186c.136-.134.4-.077.575 0 .753.33 1.342 1.078 1.846 1.764.361.493.64 1.058.81 1.646.105.358.379.845.119 1.114-3.144 3.25-4.176 4.2-6.228 6.398-1.673 1.791-3.309 3.618-4.959 5.43a355.614 355.614 0 0 0 -5.103 5.718 314.545 314.545 0 0 0 -5.375 6.326c-1.439 1.741-1.93 2.288-3.35 4.043a125.478 125.478 0 0 0 -4.162 5.505c-.684.972-2.022 3.055-2.022 3.055s-.89.462-1.27.148a46.147 46.147 0 0 1 -3.152-2.82c-.283-.278-.28-.875-.038-1.19 2.21-2.87 4.268-5.65 6.46-8.431 2.042-2.592 4.103-5.171 6.235-7.69 2.045-2.415 4.157-4.773 6.287-7.113a298 298 0 0 1 5.803-6.194c1.474-1.53 2.946-3.066 4.487-4.529 1.085-1.03 1.512-1.674 3.037-3.18zm-25.783 6.465c.269-.343 1.077-.709 1.077-.709s.605-.105.886-.015c.56.182 1.009.634 1.416 1.06.575.603 1.139 1.364 1.401 2.07.124.333.219.825.002 1.106-2.007 2.6-3.214 4.158-4.753 6.287-.79 1.095-1.354 1.847-2.302 3.336-.912 1.433-2.023 3.262-3.306 4.885-.511.646-2.151-.437-3.143-1.093-.73-.482-1.195-.648-1.659-1.353-.175-.267-.17-.748 0-1.019 1.54-2.438 3.055-4.6 4.7-6.882 1.022-1.418 2.046-2.887 3.084-4.293.852-1.154 1.46-1.93 2.597-3.38zm43.158 38.562c.198-.196.604-.198.835-.041 1.197.81 2.514 2.022 3.486 3.11.191.214.306.593.104.855-2.486 3.23-7.514 8.808-7.514 8.808s-4.366 4.734-7.054 8.265c-.273.359-1.243-.154-1.646-.356-.67-.337-.963-.465-1.618-.891-.577-.376-1.16-.792-1.495-1.383-.168-.297-.425-.738-.209-1.002a423.82 423.82 0 0 1 7.89-9.308c2.376-2.729 4.692-5.547 7.221-8.057zm.822 9.993c.232-.167.586-.092.856 0 .611.207 1.077.725 1.535 1.18.432.43.909.883 1.226 1.405.22.361.68 1.173.448 1.527-1.15 1.75-2.325 2.944-3.829 4.684-.771.892-2.02 1.198-3.1 1.653-1.017.428-2.98 1.062-3.158 1.003-.177-.059-1.497-.588-1.86-1.24-.152-.275-.223-.696-.029-.944 1.925-2.462 2.627-3.575 4.074-5.254 1.208-1.403 2.371-2.962 3.837-4.014zm-20.953 1.66s.404 1.297.708 1.908c.276.554.558 1.117.878 1.647.433.718.64 1.026 1.037 1.544.285.371.62.502.62.502s5.705-6.978 8.644-10.366c2.97-3.423 9.08-10.06 9.08-10.06s.008-.692-.157-1.044c-.36-.764-1.055-1.478-1.68-2.045-.513-.464-1.057-.948-1.712-1.169-.508-.171-1.607-.083-1.607-.083s-4.558 5.168-6.753 7.824a407.546 407.546 0 0 0 -4.209 5.184c-1.613 2.016-4.85 6.157-4.85 6.157zm-6.498 8.11s.997 1.293 1.596 1.883c.645.636 1.183 1.078 1.956 1.549.316.192 1.171.67 1.171.67s-1.665 2.47-2.745 3.779c-.451.547-1.308.392-2.052.099-.843-.333-.967-.368-1.68-.852-.481-.327-.93-.719-1.545-1.348-.208-.213-.337-.625-.161-.866 1.023-1.4 3.46-4.914 3.46-4.914zm-4.83-17.217s-.217 2.076-.219 3.117c0 .961.034 1.986.167 2.939.133.946.538 2.752.538 2.752l-3.172 4.216-3.549 4.843s-.177.512-1.043.167c-1.77-.706-2.061-.754-3.674-1.837-.336-.226-.442-.725-.422-1.125.025-.51.678-1.377.678-1.377l5.63-7.433zm19.5-14.651s-2.327.821-3.34 1.503c-.685.461-1.25 1.088-1.794 1.711a14.182 14.182 0 0 0 -1.482 2.045c-.54.903-1 1.857-1.378 2.839-.304.791-.73 2.525-.71 2.442.021-.084 8.704-10.54 8.704-10.54zm-3.575-5.236s2.16-.597 3.337-.776c.995-.152 2.19-.312 3.512-.278.709.018 1.686.097 1.686.097l6.448-7.321 3.202-3.559s.317-.414.333-.845c.014-.392-.127-1.232-.27-1.597-.306-.777-.671-1.384-1.41-2.098-.45-.435-1.38-.25-1.857.157-2.269 1.939-4.01 4.11-6.295 6.383-1.654 1.646-5.11 5.529-5.11 5.529zm5.568 4.745s1.595-.066 2.39-.02c.787.045 1.584.097 2.348.292.663.168 1.91.751 1.91.751l-8.936 10.703-8.324 10.863s-.436-1.535-.56-2.32a20.138 20.138 0 0 1 -.234-3.102c-.002-1.135.146-3.402.146-3.402l6.345-7.617zm4.648-5.393 2.775.502 3.601 1.033 5.52-6.258s2.02-2.166 4.398-4.501c.242-.238-.045-1.019-.045-1.019s-1.284-2.419-2.435-2.995c-.431-.217-1.104-.4-1.446-.06-2.026 2.02-5.962 6.155-5.962 6.155zm-25.1 31.213c.076-.028.83 2.123 1.192 2.852.426.858 1.122 2.037 1.823 2.688 0 0-3.648 4.635-5.749 7.61-.25.353-.856.476-1.27.266-2.169-1.106-.766-.486-3.6-2.273-.354-.223-.309-1.001-.03-1.358 2.568-3.282 3.917-5.05 3.917-5.05z" fill="#fcdc14" stroke="#fcdc14" stroke-width=".216235"/></g></svg>