<svg height="2500" viewBox="17.723 .207 220.838 255.503" width="2500" xmlns="http://www.w3.org/2000/svg"><g stroke-linecap="square" stroke-miterlimit="0" stroke-width=".579745"><path d="m221.27.208s-1.138 2.49-1.913 3.802c-.678 1.146-1.875 3.526-1.875 3.526l1.58.135-3.862 4.532 2.002-.165-2.402 3.077 4.48-1.934-12.713 15.854 4.716-.94s-7.988 8.76-11.953 13.166c-5.95 6.61-13.89 15.413-17.76 19.906-7.743 8.985-11.603 13.52-17.292 20.368-6.024 7.253-12.11 14.455-18.13 21.712-4.309 5.194 1.308-1.287-12.875 15.626-1.828 2.18-6.1-.018-8.938.11-1.947.09-5.857-1.362-7.622-2.908-.994-.872-1.115-1.965-1.04-3.285.096-1.644 1.487-2.865 2.794-3.868.847-.65 2.56-1.276 2.56-1.276l2.383-.422s5.752-7.974 8.774-11.685a1093.034 1093.034 0 0 1 17.016-20.419c5.209-6.087 10.438-12.16 15.863-18.057 4.223-4.59 8.642-8.997 12.982-13.479 4.867-5.025 9.727-10.056 14.64-15.035 5.628-5.704 11.315-11.348 16.997-16.997 3.695-3.674 11.59-11.345 11.59-11.345zm-111.005 120.259c1.634-.525 3.506-.751 5.144-.238 1.49.467 2.667 1.695 3.719 2.85 1.07 1.173 1.845 2.603 2.532 4.035.278.58.544 1.184.633 1.82.133.942.21 1.972-.158 2.85-.636 1.514-1.983 2.69-3.324 3.64-.935.662-2.047 1.092-3.165 1.345-1.829.413-3.719.445-5.54 0-.975-.24-2.075-.933-3.046-1.187-2.003-.525-2.921.111-3.918-1.148-.965-1.22-.418-4.03-.04-5.54.383-1.523 1.165-2.287 1.86-3.363.717-1.107 1.41-2.265 2.375-3.165.85-.794 1.82-1.544 2.928-1.9zm-90.89 135.243s3.721-4.567 4.001-4.176c.28.392.84 1.791.84 1.791s1.469-2.66 2.9-3.337c.981-.464 2.975.092 3.031-.3s1.516-2.731 2.828-3.512c.42-.25 1.257-.405 1.257-.405l25.74-35.87 19.698-26.859 13.342-18.576s6.087-7.979 9.657-11.41c2.04-1.959 4.268-3.752 6.487-5.21.985-.646.205-2.428-.22-3.527-.828-2.14-2.655-3.78-4.309-5.372-.97-.934-1.917-1.518-3.245-2.406-1.118-.746-3.187-1.158-4.03-.112-9.058 11.25-25.572 34.974-25.572 34.974l-15.389 21.6-12.534 17.906-9.401 14.661-9.177 14.885-4.083 6.59s.18 1.03-.003 1.645c-.326 1.087-1.041 1.918-2.07 2.173-.608.15-.909 2.257-1.29 4.174-.11.55 1.542.673 1.542.673z" fill="#3da93f" stroke="#3da93f"/><g fill="#fcdc14" stroke="#fcdc14"><path d="m191.026 56.13c.977-.372 2.163-.274 3.134.112 1.523.606 3.066 2.112 4.168 3.325 1.114 1.226 1.91 2.379 2.435 3.95.592 1.77 1.17 4.409-.112 5.763-11.383 12.022-17.291 18.467-17.291 18.467s-6.316 6.522-9.457 10.016c-3.395 3.777-6.762 7.797-10.016 11.695-.952 1.14-3.227 3.618-3.227 3.618s-4.971 1.982-7.534 3.523c-3.107 1.868-6.452 4.071-9.183 6.456-2.182 1.906-4.118 3.612-5.863 5.709-2.382 2.861-4.352 6.057-6.21 9.283-1.54 2.673-3.084 5.797-4.072 8.31-.989 2.514-1.442 4.41-2.015 6.656-.318 1.249-.787 3.786-.787 3.786s-5.602 6.177-8.28 9.372c-4.535 5.41-8.5 10.682-13.179 16.576-3.651 4.6-6.827 9.493-10.199 14.3-2.083 2.972-3.865 6.107-6.261 9.078-.68.842-3.25.688-4.67.046-4.325-1.954-5.011-2.165-8.625-5.935-.955-.996-.361-3.285.359-4.293 4.993-6.993 11.803-16.78 18.317-25.225 4.61-5.977 9.09-11.773 13.928-17.568 5.67-6.793 11.889-13.433 17.603-20.19 6.469-7.65 12.934-15.71 19.433-23.335 7.841-9.2 24.245-28.986 32.432-37.88 7.1-7.712 4.634-5.233 12.084-12.958.943-.978 1.841-2.182 3.088-2.657zm-147.449-.56c1.678-1.132 3.636 1.593 5.013 2.97 1.208 1.208 1.933 2.023 2.969 3.114.782.824.509.556 1.955 2.274.53.627.922 1.475.085 2.993-1.624 2.945-2.315 3.775-3.816 6.324-1.321 2.243-2.018 3.93-3.384 6.425-1.533 2.8-1.891 1.088-3.58.048-1.853-1.143-3.454-2.412-4.722-3.285-1.53-1.053-3.4-1.99-4.008-3.746-.477-1.377-.234-2.762.255-4.134.946-2.656 2.506-5.09 4.14-7.386 1.622-2.278 2.096-3.573 5.093-5.596zm20.075 5.386c.558-.534 1.745-.859 2.295-.317 3.27 3.225 6.284 5.07 8.943 7.993.445.49.706 1.164.791 1.82.09.689.138 1.533-.317 2.058-4.485 5.18-4.43 5.782-6.489 8.784-2.086 3.042-1.827 2.186-6.41 9.259-.576.89-7.237-2.976-7.993-3.72-2.732-2.688-6.084-3.393-3.798-7.122 4.092-6.677 3.21-6.002 5.935-9.97 2.192-3.192 3.879-5.75 7.043-8.785zm81.32-32.917c.817-.623 2.099-.418 3.079-.112 1.513.474 3.099 1.835 4.16 3.013 1.458 1.615 2.364 3.358 3.002 5.437.296.964 1.091 2.638.326 3.418-7.469 7.608-11.715 11.446-17.468 17.314-7.15 7.293-14.218 14.514-21.021 22.132a408.947 408.947 0 0 0 -13.513 15.902c-5.586 6.943-10.57 13.497-15.585 20.862-1.4 2.055-2.655 4.81-4.757 6.324-1.195.86-2.92.604-4.308.112-2.55-.904-4.424-2.629-7.051-5.149-.62-.595-.226-1.81.168-2.574 3.291-6.395 7.536-12.254 11.863-17.85 5.54-7.166 10.604-14.134 16.415-20.91 5.241-6.111 9.057-10.666 14.411-16.692 4.455-5.013 10.647-11.173 15.355-16.195s9.018-10.52 14.925-15.032zm16.928 8.543c.366-.361 1.072-.207 1.543 0 2.017.886 3.598 2.888 4.947 4.727a14.187 14.187 0 0 1 2.176 4.413c.278.962 1.012 2.267.316 2.987-8.43 8.716-11.197 11.262-16.698 17.153-4.485 4.804-8.871 9.7-13.295 14.562a953.427 953.427 0 0 0 -13.68 15.329 843.318 843.318 0 0 0 -14.413 16.958c-3.856 4.67-5.172 6.135-8.982 10.842-3.065 3.787-8.16 10.498-11.158 14.759-1.833 2.605-5.421 8.19-5.421 8.19s-2.384 1.238-3.403.396c-2.724-2.25-5.371-4.525-8.452-7.558-.759-.747-.752-2.347-.103-3.19 5.925-7.695 11.443-15.152 17.32-22.607 5.476-6.948 11-13.864 16.717-20.616 5.483-6.475 11.146-12.797 16.856-19.072a798.96 798.96 0 0 1 15.557-16.606c3.954-4.103 7.899-8.22 12.031-12.142 2.908-2.761 4.054-4.49 8.142-8.525zm-69.126 17.33c.721-.919 2.889-1.898 2.889-1.898s1.621-.284 2.374-.04c1.504.487 2.706 1.697 3.797 2.841 1.541 1.617 3.053 3.656 3.757 5.55.331.894.586 2.21.004 2.965-5.382 6.97-8.616 11.147-12.741 16.856-2.122 2.936-3.632 4.95-6.173 8.943-2.447 3.843-5.423 8.747-8.863 13.097-1.372 1.734-5.769-1.171-8.428-2.928-1.96-1.294-3.204-1.74-4.447-3.629-.471-.716-.458-2.007 0-2.732 4.128-6.536 8.19-12.333 12.6-18.452 2.74-3.802 5.486-7.739 8.269-11.509 2.285-3.095 3.915-5.177 6.962-9.063zm115.711 103.39c.53-.526 1.62-.53 2.238-.112 3.21 2.173 6.74 5.422 9.345 8.338.514.575.821 1.592.28 2.294-6.666 8.66-20.145 23.615-20.145 23.615s-11.706 12.693-18.913 22.159c-.732.961-3.333-.414-4.413-.955-1.799-.902-2.582-1.247-4.337-2.39-1.548-1.008-3.112-2.122-4.009-3.706-.45-.796-1.139-1.978-.56-2.686 6.356-7.758 14.012-16.758 21.153-24.957 6.37-7.315 12.58-14.871 19.361-21.6zm2.203 26.79c.621-.446 1.57-.246 2.295 0 1.638.558 2.889 1.945 4.115 3.166 1.159 1.154 2.437 2.368 3.287 3.766.588.968 1.823 3.146 1.2 4.093-3.082 4.69-6.233 7.894-10.264 12.558-2.068 2.392-5.417 3.213-8.31 4.432-2.729 1.15-7.992 2.849-8.467 2.69-.475-.158-4.016-1.577-4.986-3.323-.41-.739-.599-1.867-.079-2.533 5.16-6.6 7.043-9.585 10.921-14.086 3.24-3.76 6.358-7.941 10.288-10.763zm-56.177 4.45s1.084 3.48 1.899 5.116c.74 1.487 1.497 2.996 2.355 4.418 1.16 1.924 1.715 2.75 2.78 4.139.762.996 1.661 1.345 1.661 1.345s15.295-18.707 23.176-27.792c7.96-9.176 24.341-26.971 24.341-26.971s.024-1.854-.42-2.798c-.961-2.05-2.826-3.964-4.504-5.484-1.373-1.244-2.834-2.541-4.588-3.134-1.363-.46-4.31-.224-4.31-.224s-12.22 13.859-18.105 20.979c-3.9 4.718-7.46 9.118-11.284 13.899-4.323 5.404-13.001 16.507-13.001 16.507zm-17.42 21.745s2.673 3.468 4.278 5.05c1.729 1.703 3.173 2.89 5.245 4.152.847.515 3.139 1.798 3.139 1.798s-4.465 6.618-7.36 10.129c-1.21 1.467-3.506 1.053-5.502.265-2.26-.892-2.591-.984-4.504-2.282-1.29-.877-2.496-1.928-4.141-3.615-.557-.572-.905-1.677-.434-2.321 2.745-3.753 9.279-13.176 9.279-13.176zm-12.95-46.159s-.583 5.565-.586 8.355c-.004 2.579.09 5.327.447 7.88.355 2.537 1.442 7.38 1.442 7.38l-8.506 11.304-9.513 12.982s-.476 1.374-2.798.448c-4.743-1.893-5.526-2.021-9.848-4.925-.902-.605-1.186-1.942-1.133-3.014.067-1.37 1.818-3.694 1.818-3.694l15.095-19.927zm52.28-39.281s-6.238 2.202-8.953 4.029c-1.84 1.237-3.354 2.92-4.812 4.588a38.023 38.023 0 0 0 -3.973 5.484 49.309 49.309 0 0 0 -3.694 7.61c-.816 2.121-1.958 6.771-1.902 6.547.056-.223 23.334-28.258 23.334-28.258zm-9.584-14.039s5.79-1.598 8.946-2.08c2.668-.408 5.873-.837 9.415-.746 1.902.049 4.523.26 4.523.26l17.287-19.628 8.584-9.54s.85-1.111.892-2.267c.038-1.05-.34-3.304-.724-4.281-.82-2.083-1.798-3.711-3.778-5.624-1.208-1.167-3.702-.672-4.98.42-6.082 5.198-10.753 11.017-16.878 17.113-4.435 4.413-13.702 14.823-13.702 14.823zm14.928 12.724s4.275-.18 6.407-.056c2.111.121 4.246.261 6.296.783 1.777.453 5.12 2.015 5.12 2.015l-23.958 28.696-22.316 29.122s-1.17-4.113-1.5-6.22c-.433-2.746-.625-5.514-.63-8.315-.006-3.043.392-9.121.392-9.121l17.011-20.423zm12.462-14.461 7.44 1.345 9.654 2.77 14.798-16.777s5.419-5.808 11.792-12.068c.65-.639-.119-2.73-.119-2.73s-3.444-6.487-6.529-8.033c-1.156-.58-2.961-1.071-3.877-.158-5.433 5.416-15.986 16.5-15.986 16.5zm-67.297 83.684c.206-.074 2.227 5.693 3.196 7.646 1.143 2.302 3.01 5.463 4.889 7.208 0 0-9.781 12.426-15.413 20.404-.669.947-2.296 1.277-3.403.712-5.817-2.965-2.056-1.303-9.655-6.093-.95-.6-.827-2.685-.079-3.64 6.885-8.8 10.502-13.542 10.502-13.542z"/><path d="m43.577 55.57c1.678-1.132 3.636 1.593 5.013 2.97 1.208 1.208 1.933 2.023 2.969 3.114.782.824.509.556 1.955 2.274.53.627.922 1.475.085 2.993-1.624 2.945-2.315 3.775-3.816 6.324-1.321 2.243-2.018 3.93-3.384 6.425-1.533 2.8-1.891 1.088-3.58.048-1.853-1.143-3.454-2.412-4.722-3.285-1.53-1.053-3.4-1.99-4.008-3.746-.477-1.377-.234-2.762.255-4.134.946-2.656 2.506-5.09 4.14-7.386 1.622-2.278 2.096-3.573 5.093-5.596zm20.075 5.386c.558-.534 1.745-.859 2.295-.317 3.27 3.225 6.284 5.07 8.943 7.993.445.49.706 1.164.791 1.82.09.689.138 1.533-.317 2.058-4.485 5.18-4.43 5.782-6.489 8.784-2.086 3.042-1.827 2.186-6.41 9.259-.576.89-7.237-2.976-7.993-3.72-2.732-2.688-6.084-3.393-3.798-7.122 4.092-6.677 3.21-6.002 5.935-9.97 2.192-3.192 3.879-5.75 7.043-8.785zm81.32-32.917c.817-.623 2.099-.418 3.079-.112 1.513.474 3.099 1.835 4.16 3.013 1.458 1.615 2.364 3.358 3.002 5.437.296.964 1.091 2.638.326 3.418-7.469 7.608-11.715 11.446-17.468 17.314-7.15 7.293-14.218 14.514-21.021 22.132a408.947 408.947 0 0 0 -13.513 15.902c-5.586 6.943-10.57 13.497-15.585 20.862-1.4 2.055-2.655 4.81-4.757 6.324-1.195.86-2.92.604-4.308.112-2.55-.904-4.424-2.629-7.051-5.149-.62-.595-.226-1.81.168-2.574 3.291-6.395 7.536-12.254 11.863-17.85 5.54-7.166 10.604-14.134 16.415-20.91 5.241-6.111 9.057-10.666 14.411-16.692 4.455-5.013 10.647-11.173 15.355-16.195s9.018-10.52 14.925-15.032zm16.928 8.543c.366-.361 1.072-.207 1.543 0 2.017.886 3.598 2.888 4.947 4.727a14.187 14.187 0 0 1 2.176 4.413c.278.962 1.012 2.267.316 2.987-8.43 8.716-11.197 11.262-16.698 17.153-4.485 4.804-8.871 9.7-13.295 14.562a953.427 953.427 0 0 0 -13.68 15.329 843.318 843.318 0 0 0 -14.413 16.958c-3.856 4.67-5.172 6.135-8.982 10.842-3.065 3.787-8.16 10.498-11.158 14.759-1.833 2.605-5.421 8.19-5.421 8.19s-2.384 1.238-3.403.396c-2.724-2.25-5.371-4.525-8.452-7.558-.759-.747-.752-2.347-.103-3.19 5.925-7.695 11.443-15.152 17.32-22.607 5.476-6.948 11-13.864 16.717-20.616 5.483-6.475 11.146-12.797 16.856-19.072a798.96 798.96 0 0 1 15.557-16.606c3.954-4.103 7.899-8.22 12.031-12.142 2.908-2.761 4.054-4.49 8.142-8.525zm-69.126 17.33c.721-.919 2.889-1.898 2.889-1.898s1.621-.284 2.374-.04c1.504.487 2.706 1.697 3.797 2.841 1.541 1.617 3.053 3.656 3.757 5.55.331.894.586 2.21.004 2.965-5.382 6.97-8.616 11.147-12.741 16.856-2.122 2.936-3.632 4.95-6.173 8.943-2.447 3.843-5.423 8.747-8.863 13.097-1.372 1.734-5.769-1.171-8.428-2.928-1.96-1.294-3.204-1.74-4.447-3.629-.471-.716-.458-2.007 0-2.732 4.128-6.536 8.19-12.333 12.6-18.452 2.74-3.802 5.486-7.739 8.269-11.509 2.285-3.095 3.915-5.177 6.962-9.063zm115.711 103.39c.53-.526 1.62-.53 2.238-.112 3.21 2.173 6.74 5.422 9.345 8.338.514.575.821 1.592.28 2.294-6.666 8.66-20.145 23.615-20.145 23.615s-11.706 12.693-18.913 22.159c-.732.961-3.333-.414-4.413-.955-1.799-.902-2.582-1.247-4.337-2.39-1.548-1.008-3.112-2.122-4.009-3.706-.45-.796-1.139-1.978-.56-2.686 6.356-7.758 14.012-16.758 21.153-24.957 6.37-7.315 12.58-14.871 19.361-21.6zm2.203 26.79c.621-.446 1.57-.246 2.295 0 1.638.558 2.889 1.945 4.115 3.166 1.159 1.154 2.437 2.368 3.287 3.766.588.968 1.823 3.146 1.2 4.093-3.082 4.69-6.233 7.894-10.264 12.558-2.068 2.392-5.417 3.213-8.31 4.432-2.729 1.15-7.992 2.849-8.467 2.69-.475-.158-4.016-1.577-4.986-3.323-.41-.739-.599-1.867-.079-2.533 5.16-6.6 7.043-9.585 10.921-14.086 3.24-3.76 6.358-7.941 10.288-10.763zm-56.177 4.45s8.678-11.103 13.001-16.507c3.824-4.78 7.384-9.18 11.284-13.9 5.885-7.12 18.106-20.978 18.106-20.978s2.946-.236 4.309.224c1.754.593 3.215 1.89 4.588 3.134 1.678 1.52 3.543 3.434 4.505 5.484.443.944.42 2.798.42 2.798s-16.382 17.795-24.342 26.971c-7.881 9.085-23.176 27.792-23.176 27.792l-13.453 17.727s-4.465 6.618-7.36 10.129c-1.21 1.467-3.506 1.053-5.502.265-2.26-.892-2.591-.984-4.504-2.282-1.29-.877-2.496-1.928-4.141-3.615-.557-.572-.905-1.677-.434-2.321 2.745-3.753 9.279-13.176 9.279-13.176zm-2.935-28.106 17.011-20.423 13.178-16.481 12.462-14.461 17.173-19.151s10.553-11.084 15.986-16.5c.916-.913 2.72-.421 3.877.158 3.085 1.546 6.53 8.033 6.53 8.033s.768 2.091.118 2.73c-6.373 6.26-11.792 12.068-11.792 12.068l-14.798 16.777-11.733 13.088-23.958 28.696-22.316 29.122-18.299 23.517s-9.781 12.426-15.413 20.404c-.669.947-2.296 1.277-3.403.712-5.817-2.965-2.056-1.303-9.655-6.093-.95-.6-.827-2.685-.079-3.64 6.885-8.8 10.502-13.542 10.502-13.542l9.963-12.695zm-27.435 3.692c-4.513 5.608-13.582 16.789-13.582 16.789l-15.095 19.927s-1.75 2.323-1.818 3.694c-.053 1.072.23 2.409 1.133 3.014 4.322 2.904 5.105 3.032 9.848 4.925 2.322.926 2.798-.448 2.798-.448l9.513-12.982 8.506-11.304 27.643-34.638c.056-.223 23.334-28.258 23.334-28.258l13.3-16.604 17.287-19.629 8.584-9.54s.85-1.111.892-2.267c.038-1.05-.34-3.304-.724-4.281-.82-2.083-1.798-3.711-3.778-5.624-1.208-1.167-3.702-.672-4.98.42-6.082 5.198-10.753 11.017-16.878 17.113-4.435 4.413-13.702 14.823-13.702 14.823s-6.424 7.672-9.585 11.55c-14.387 17.648-28.42 35.583-42.696 53.32zm.855-7.33s-5.602 6.178-8.28 9.373c-4.535 5.41-8.5 10.682-13.179 16.576-3.651 4.6-6.827 9.493-10.199 14.3-2.083 2.972-3.865 6.107-6.261 9.078-.68.842-3.25.688-4.67.046-4.325-1.954-5.011-2.165-8.625-5.935-.955-.996-.361-3.285.359-4.293 4.993-6.993 11.803-16.78 18.317-25.225 4.61-5.977 9.09-11.773 13.928-17.568 5.67-6.793 11.889-13.433 17.603-20.19 6.469-7.65 12.934-15.71 19.433-23.335 7.841-9.2 24.245-28.986 32.432-37.88 7.1-7.712 4.634-5.233 12.084-12.958.943-.978 1.841-2.182 3.088-2.657.977-.372 2.163-.274 3.134.112 1.523.606 3.066 2.112 4.168 3.325 1.114 1.226 1.91 2.379 2.435 3.95.592 1.77 1.17 4.409-.112 5.763-11.383 12.022-17.291 18.467-17.291 18.467s-6.316 6.522-9.457 10.016c-3.395 3.777-6.762 7.797-10.016 11.695-.952 1.14-2.178 2.389-3.227 3.618-12.205 14.31-35.664 43.723-35.664 43.723z"/></g></g></svg>