<svg height="-1991" viewBox="1.91 49.78 56.17 6.56" width="2500" xmlns="http://www.w3.org/2000/svg"><path clip-rule="evenodd" d="m21.89 52.54c-.77-.87-1.87-1.21-2.04-2.45h-1.53v6.23h1.5v-3.78c0 .23 1.09.85 1.51 1.5.27.32.44.72.54 1.23.05.29.04.67.04 1.06h1.48v-6.23h-1.5zm16.93-2.45h-1.53c-.47 1.57-1.04 3.39-1.52 4.96-.13.42-.25.82-.39 1.27h1.17c.43 0 .43 0 .59-.43.17-.47.16-.5.71-.5.61 0 .79.06 1.03-.36l.2-.38c.13.55.26 1.1.4 1.67h1.84c-.04-.14-1.18-3.86-1.76-5.74-.11-.34-.37-.49-.74-.49m-.81 3.95c-.11 0-.34.05-.38.2.01-.02.05-.18.06-.2.19-.65.55-1.86.59-1.98.04.12.39 1.32.58 1.98zm10.25-1.14c-.83-.39-1.49-.43-1.49-.94 0-.34.26-.55.69-.55.52 0 1.02.22 1.02.59.32 0 .61-.2.71-.51a.933.933 0 0 0 -.35-.97c-.76-.58-1.99-.48-2.73-.17-.67.3-1 .82-1 1.54 0 .87.92 1.37 1.26 1.56.3.16.81.4 1.07.54.31.16.46.42.42.63-.05.26-.39.33-.62.33-.24-.01-.51-.04-1.06-.3-.4-.2-.76-.47-1.07-.8v1.11c0 .44.39.73.74.96.43.28.98.42 1.52.42s1.09-.11 1.62-.59c.29-.32.51-.7.51-1.22 0-.72-.32-1.21-1.24-1.63m-42.24-2.79c.13 1.44-.69 2.64-1.01 3.96-.28-.76-.87-2.63-1.12-3.37-.09-.3-.21-.59-.57-.6-.46-.02-.93 0-1.4 0 0 .04-.01.06-.01.08.71 2.01 1.47 4.15 2.2 6.15h1.25c.19 0 .51-.18.61-.49.21-.61 1.14-3.2 1.45-4.09.19-.53.27-1.08.24-1.64zm22.13 6.22h1.7v-2.43h.9c.61 0 .87-.31.87-.8v-.56h-1.76v-1.06h1.97v-1.39h-3.68zm27.47-6.24h-2.44v1.31h1.47v4.92h1.71v-4.92c1 0 1.11.04 1.45-.24.26-.26.27-.4.27-1.38-.46.36-1.66.31-2.46.31m-42.68 0h-1.04v6.24h1.66v-2.8-2.82c0-.54-.36-.62-.62-.62" fill="#080709" fill-rule="evenodd"/></svg>