<svg height="512pt" viewBox="203 309.6 274.1 97.2" width="512pt" xmlns="http://www.w3.org/2000/svg"><path d="m288.7 315.2c-5.7 1.5-14.1 9.8-17.7 17.4-3.4 6.9-6 18.7-6 26.5 0 6.8 2.6 19 5.5 25.4 7 15.8 22.8 22.3 36.4 15 6.3-3.5 10.2-7.9 14-16 4.2-8.8 5.6-15.7 5.6-27.5-.1-28.8-16.5-46.4-37.8-40.8zm16.2 8.1c9.3 6.2 14.7 26.2 12.3 45.8-2.1 17.3-9.2 26.8-20 26.9-10.7 0-18.8-10-21.8-26.9-4-22.7 1.8-43.1 13.6-48 4.1-1.7 11.5-.7 15.9 2.2zm31.6-8.1c-.2.7-1.6 16.8-3 35.8-3.4 46.7-3.2 44.9-6.1 46.2-1.3.6-2.4 1.7-2.4 2.5 0 1 2.1 1.3 8.5 1.3 6.8 0 8.5-.3 8.5-1.5 0-.8-1.2-1.8-2.7-2.1l-2.6-.7.7-15.6c.9-22.7 1.9-38.2 2.3-37.8.2.2 4.5 12.9 9.7 28.1 8.7 25.9 10.7 30.8 12.1 29.4.3-.3 4.8-13.4 9.9-29.2 5.1-15.7 9.5-28.8 9.8-29.1.7-.7 3.2 38.2 3.3 49.2 0 9.5-.3 9.3 10.8 9.3 5.1 0 6.7-.3 6.7-1.4 0-.8-1.4-1.7-3-2.1-1.7-.4-3.7-1.6-4.5-2.8-1-1.6-2.3-13.6-4.4-40.6-2.6-34.3-3.7-42.2-5.4-39.4-.3.4-5.3 15.6-11.1 33.8-5.9 18.1-10.9 33.1-11.1 33.4-.7.6-.7.6-3.9-8.9-1.5-4.7-6.6-19.9-11.3-33.8-4.7-13.8-8.9-25.2-9.4-25.2s-1.2.6-1.4 1.2zm83.3.5c-12.5.3-15.8.6-15.8 1.7 0 .7 1.3 1.6 2.9 1.9 2.6.5 3 1.2 3.6 5 .4 2.4.5 19.3.3 37.6l-.3 33.3-2.8 2c-1.5 1.1-2.5 2.4-2.1 2.9.8 1.4 32.1 1.2 33-.2 1.3-2.1 1.8-14.9.5-14.9-.6 0-1.1 1.1-1.1 2.5s-1.1 3.7-2.5 5c-2 2.1-3.4 2.5-7.9 2.5-8.5 0-8.6-.2-8.6-19.7v-16.5l6.6.4c6.9.4 8.4 1.4 8.4 5.5 0 4.4 1.7 2.2 2.4-3 .7-5.9.8-11.7.2-11.7-.2 0-1.7.7-3.2 1.5-1.6.8-5.5 1.5-8.6 1.5h-5.8v-31h5.3c7.1 0 10.1 1.7 10.5 5.8.2 1.7.7 3.2 1.2 3.2 1.4 0 2-2.9 2-9.6 0-4.6-.4-6.3-1.2-6.2-.7.1-8.4.4-17 .5zm33.6 1.8c-5.6 3.3-7.7 8-8.2 17.8-.4 7.2-.2 8.3 2.7 14 1.7 3.4 6.2 9.8 10.1 14.2 8.6 9.9 10 12.6 10 20.5 0 5.7-.3 6.5-3.4 9.6-7.3 7.3-18.6 1.8-18.6-9.1 0-3.6-1.3-4.7-2.4-1.9-.3.9-.6 4.9-.6 9 0 6.7.2 7.5 2.5 9 1.3.9 5.1 1.8 8.3 2.1 11.5 1.1 18.9-5.1 21.2-17.8 2.1-11.3-1.5-20.7-12.7-33-8.2-9.1-11.2-14.4-11.3-19.9 0-5.2 3.2-9.8 7.4-10.5 6.6-1.3 11.3 1.6 12.2 7.7.7 4.4 2.4 5.1 2.4 1 0-1.5.3-5 .6-7.8l.6-5.1-4.5-1.2c-7.1-1.7-11.7-1.4-16.3 1.4zm-250.4-.1c0 .7 1.3 1.6 2.9 1.9 2.8.6 3 1 3.6 7.1.4 3.5.6 20.4.4 37.6l-.4 31.2-2.8 2c-1.5 1.1-2.5 2.4-2.1 2.9.3.5 5 .9 10.5.9 7.8 0 9.9-.3 9.9-1.4 0-.8-1.2-1.7-2.7-2.1-1.5-.3-3.1-1.2-3.5-1.8-.4-.7-.8-9.4-.8-19.5v-18.2h31v38l-2.5 1.2c-1.4.6-2.5 1.7-2.5 2.5 0 1.1 2.1 1.3 10.2 1.1 10.5-.3 13.6-1.7 7.6-3.4l-3.3-1-.6-9.9c-.9-13.7-1-52.8-.3-60.4.6-5.4 1-6.2 3-6.7 1.3-.4 2.4-1.2 2.4-2 0-1.1-2.1-1.4-10-1.4-8.2 0-10 .3-10 1.5 0 .8.8 1.5 1.8 1.5 3.7 0 4.2 1.9 4.2 17.2v14.8h-31.1l.3-15.3c.3-14.7.4-15.2 2.6-16.2 1.2-.5 2.2-1.5 2.2-2.2 0-1-2.6-1.3-10-1.3-7.8 0-10 .3-10 1.4z"/></svg>