<svg height="512pt" viewBox="0.5 0 511.6 512.1" width="512pt" xmlns="http://www.w3.org/2000/svg"><path d="M115 .6C91.7 4 73.6 10.5 57.5 21.3c-8.3 5.6-10.8 7.7-20.3 17C20 55.2 7.9 77.7 2.4 103 .6 111.1.5 118.6.5 256s.1 144.9 1.9 153c7.4 34 26.8 62.7 55.1 81.7 8.9 6 19.6 11.1 31 14.8 20.2 6.6 16.6 6.5 167.5 6.5 118.3 0 137.6-.2 146.9-1.6 35.3-5.2 67.5-25.6 87.8-55.9 6-8.9 11.1-19.6 14.8-31 6.6-20.2 6.5-16.6 6.5-167.5s.1-147.3-6.5-167.5C490.3 42.1 450.7 8.6 402.9 1.6 393.6.2 374.6 0 254.9.1 179.3.2 116.4.4 115 .6zm83.4 125.6c3.3 1.4 1.5-3.6 31.7 88.5C244 257.2 255.7 292 256 292s12.7-36.6 27.4-81.3c21.4-65.1 27.2-81.6 29.2-83.5 2.5-2.2 2.7-2.2 36.4-2.2s33.9 0 36.5 2.2c1.7 1.5 2.6 3.3 2.7 5.3.1 4.6-87.2 249.5-89.9 252.2l-2.2 2.3h-80.2l-2.2-2.2c-1.5-1.6-16.2-41.5-46.5-127-47.3-133.5-45.5-127.4-40-131.2 1.9-1.4 6.6-1.6 35.5-1.6 23 0 34 .4 35.7 1.2z"/><path d="M143.4 143.3c.3 1.3 18.5 52.9 40.4 114.7l39.9 112.5h64.6L328.2 258c21.9-61.9 40.1-113.5 40.5-114.8l.5-2.2-23.2.2-23.3.3-29.8 90.4c-16.4 49.7-30.6 91.2-31.5 92.2-2.5 2.8-8.8 2.6-11.1-.5-1-1.3-15.1-42.9-31.3-92.5L189.5 141h-46.7z"/></svg>