<svg height="2345" viewBox="-3.35 -1.47 204.48 193.44" width="2500" xmlns="http://www.w3.org/2000/svg"><path d="m194.34 102.7c-2.41-1.42-.28-2.41-.28-2.41s2.97 1.66 4.77 1.88l-4.61-4.18 5.78 3.01c-.73-1.69-4.25-4.69-6.09-5.95-.02-.01-.04-.03-.06-.04 1.56.31 3.06.6 3.75.6 1.29 0-1.36-1.46-6.23-2.91-.27-.42-.33-.7-.15-.76.43-.14 3.4.71 3.4.71s1.03.27 2.45.84c.26.1.41.06.49-.09-.28-.17-2.43-1.48-2.87-1.57-.43-.09 2.02-.57 2.38-.64 0-.01-.01-.03-.02-.04-.23-.1-1.14-.48-2.74-.72-1.87-.28-1.03-.75 1.86-1.04-.57-.85-3.12-2.69-4.82-2.83s-.28-.85.43-.85 3.72-1.4 3.16-1.55c-.57-.14-5-3.13-8.26-2.14s1.56-.71 2.83-1.56c1.28-.85 1.7-1.84 1.28-2.83-.43-.99-4.11-.57-4.11-.57l1.84-2.69s-.99-1.28-1.84-1.42-2.27-1.7-2.98-2.41.28-1.7.28-1.7-2.41-1.7-2.83-1.84c-.43-.14 3.12-2.27 3.12-2.27s-3.83-1.56-5.1-2.13c-1.28-.57 2.13-2.13.28-2.13s-2.98-.99-3.4-1.84c-.43-.85.99-4.39.99-4.39l-.81-.11c.15-.23.31-.45.46-.66.27-.38.5-.71.72-1l1.57-2.1-.39-.34c2.38-2.52 4.22-5.31 5.47-8.28 2.73-6.46 2.2-9.41.44-19.17l-1 .18 1-.18c-.21-1.16-.44-2.43-.68-3.82-2.48-14.12-8.42-15.73-15.3-17.59l-.92-.25c-8.69-2.39-14.03.57-15.02 1.18-.67.42-2.77 2.04-6.41 4.86l-.1.08c-2.58 1.99-5.24 4.06-6.07 4.63-1.63 1.13-4.84 5.52-7.42 9.25-1.11-.42-2.74-1.04-4.91-1.91-5.81-2.33-18.29-3.69-28.05-4.2-1.98-.21-9.61.13-14.35.87l-1.37.21c-4.11.63-6.59 1.01-9.57 2.01-1.94.65-5.16 1.85-7.33 2.67-.9-1.48-2.29-3.5-4.3-5.69-4.04-4.41-10.93-10.22-15.48-12.32-4.55-2.09-14.88-3.42-21.68-.35-6.58 2.98-12.3 10.1-13.04 16.21-.11.91-.23 1.81-.34 2.69l-.02.18c-.55 4.21-1.02 7.84-.57 10.66.02.1 1.87 10.61 6.67 14.89.15.13.3.27.45.41.57.53 1.17 1.12 1.77 1.75l.36.38.47.23c1.35.66 2.34 1.33 3.16 2.08-.96.82-2.22 1.89-2.54 2.17-.54.47 1.9 2.57 1.29 2.78-.61.2-2.17.68-2.17.68s-1.92-.66-2.79-.47c4.47 2.47 7.47 4.92 6.04 4.14-1.14-.62-4.57-2.17-6.05-2.83.13.18.29.37.49.59 2.98 3.25 8.06 3.46 5.35 3.59-2.71.14-11.92-.81-7.25.88s7.99 1.9 6.84 1.9-8.54.27-8.54.75l6.54.4-6.29.51c.19.37.5.71.97.78.88.14 2.57-.34 2.24 1.08-.34 1.42.78 2.41-.9 1.88s-1.81-.94-2.49-.53c-.19.12-.38.23-.55.36 3.21.74 4.02 1.85 4.02 1.85l-4.76-.11c0 .19 0 .39-.01.6l2.1 1.05-2.55.68c-.15.22-.35.41-.63.52-1.22.47-3.48.9-3.97.96-.32.04-.37.18-.24.36 1.9.14 7.04.55 7.04.55s-4.28-.04-6.12.14c1.09.62 2.87 1.34 4.33 1.63 2.69.54 2.51 1.79-.54 1.79s-6.38.18-6.62 1.05l5.34.12-5.28.86c.32.3 1.19.54 3.33.84 3.95.54 1.43 1.43 0 1.79s-6.46 1.26-6.1 2.15c.36.9 6.1-.72 6.1.54 0 1.16-7.54 2.02-8.5 3.99 1.21-.31 8.8-2.28 8.25-2.09-.53.18-6.79 3.01-8.06 3.62l.03.06c1.21-.27 6.31-1.39 5.95-1.21-.23.11-2.2 1.15-3.89 2.04.67-.06 1.4-.3 2.1-.68 1.97-1.08 1.08 3.05-1.08 4.12-1.2.6-3.17 1.92-3.94 2.97l6.15-2.92-5.68 3.94s5.54-.2 5.27-.07c-.08.04-.83.21-1.85.44 3.14-.27 5.28-.82 3.27.48-2.5 1.6-5.7 3.91-7.32 5 2.04-.39 6.5-1.11 6.5-1.11l-5.48 2.07-.54.2c.18.08.37.16.58.24l4.3.16-1.18.54c.66.08 1.27.11 1.71.08 1.97-.18-3.23 1.97-5.2 3.59-.64.52-1.19 1.11-1.52 1.63 2.44-1 8.47-3.29 8.47-3.29l-7.96 4.63c.15 0 .31-.02.5-.05l1.78-.51c4.14-1.51 10.51-5 6.49-1.68-2.61 2.15-6.92 5.73-8.62 7.54l2.45-.9-1.87 1.27-.02.34c4.48-2.15 10.03-5.73 8.78-3.4-1.26 2.33-5.74 5.92-6.81 6.81-.4.33-.8 1.03-.92 1.63.25-.31 4.25-2.78 4.25-2.78l-4.06 3.68c.37.26 1.22.07 2.88-1.1 4.3-3.05 9.68-6.81 10.4-6.46.72.36 1.97.18-2.51 3.05s-6.46 4.3-7.71 5.38c-.45.39-1.01 1.25-1.43 2.11l2.89-2.06-3.47 3.76c-.05.59.28.76 1.29-.04 2.69-2.15 13.63-9.15 11.12-6.99-1.95 1.68-10.32 8.35-12.75 11.05l9.22-5.3s-6.61 4.29-9.84 6.4c.05.05.13.07.28.05 2.51-.36 9.32-1.97 12.91-3.05s5.56.9 2.51 1.43c-3.05.54-6.99 2.33-10.04 3.41-2.42.85 2.26 1.03 5.29.71-2.02.53-4.79 1.32-5.29 1.62a2.2 2.2 0 0 0 -.74.82c1.05-.23 7.92-1.76 7.73-1.64-.2.13-6.61 2.67-6.88 2.67-.04 0-.1.05-.19.13.68.14 1.87.08 3.84-.37 6.28-1.43 9.68-.9 7.53-.9s-13.09 3.59-12.01 4.12c.09.05.14.12.15.21 1.23-.36 6.69-1.95 8.76-2.13 2.34-.2-8.21 3.21-9.41 4.27-.09.08-.18.16-.28.24.27.17 1.12 0 3.12-.8 6.28-2.51 12.55-3.59 9.15-1.08-3.41 2.51-7.71 6.1-4.3 4.48 3.41-1.61 13.99-3.77 9.86-2.69-3.12.81-9.91 3.16-11.12 4.72.18-.05.37-.12.59-.21 1.4-.6 13.69-3.07 14.36-3.07s-12.55 3.41-13.42 4.21c-.13.12-.24.22-.34.32 4.7.81 16.68-4.14 13.34-2.2-2.4 1.39-7.29 3.14-9.41 4.3 1.26-.17 5.77-1.42 5.02-1.01-.31.17-1.15.8-2.08 1.53 5.9-1.46 16.39-4.87 15.44-3.38-1.26 1.97-11.84 6.63-11.3 6.99.1.07.32.11.64.14 1.23-.52 8.01-3.81 8.39-3.81.36 0-2.79 1.97-4.85 3.48 1.4-.27 3-.72 4.61-1.42 4.12-1.79 11.48-5.2 8.79-2.51-2.18 2.18-5.2 4.49-5.68 5.66 2.23-1.17 6.65-4.35 6.14-3.67-.5.66-4.05 3.15-5.46 4.33 2.6-.33 12.16-4.89 12.16-4.89s-4.81 5.13-5.18 6.29c1.23-.95 4.39-3.83 4.21-3.53-.14.24-2.62 2.24-4.18 3.75.53.35 5.02-3.13 6.22-3.64 1.13-.48-1.06 1.78-1.66 3.67.68-.55 1.28-.98 1.55-1.05.39-.1 1.03-.53 1.5-.88.15-.14.28-.25.37-.32.45-.35.14-.06-.37.32-.65.59-1.85 1.78-2.96 2.9 1.52.37 9.99-5.18 9.99-5.18s.26-.19.58-.37c-1.94 2.39-6.1 7.1-5.78 6.94.39-.19 4.6-2.61 5.34-3.7-.38.72-.94 1.35-1.19 2.26-.31 1.19 2.08-3.62 2.98-5.03-.07.41-.27 1.01-.69 1.87-1.2 2.5-.92 3.84-.45 5 .79-1.87 1.75-3.74 1.75-3.74l-.94 4.26c.38-.15.85-.68 1.38-1.75.95-1.91 1.55-2.77 2.41-4.43-.39 1.74-1.01 6.46-.95 6.29.07-.2-.03-.22 1.04-3.02.43-1.14.83-1.95 1.15-2.54-.56 3.22-.07 4.26.38 5.37.3-.57 1.22-2.24 1.22-1.66 0 .22.07.37.1.59v.5c0 .08-.02.17-.04.28.01-.01.03-.03.05-.04 0 .28 0 .55.01.83l.02.31v.07c.85 5.86 1.96 9.95 3.31 12.13 2.56 4.14 9.07 8.78 16.54 9.63 3.32.38 8.47.63 12.82.63 2.06 0 3.78-.06 5.02-.17l.21.22 1.68-.48c.12-.03.23-.08.34-.12 1.04-.13 1.69-.23 3.09-.56 4.44-1.03 9.55-4.09 12.61-5.91.69-.41 1.4-.84 1.77-1.03 6.32-3.29 6.26-10.9 6.22-15.44 0-.57-.01-1.37.01-1.88l.39-.37-.04-1.28c-.02-.58-.03-1.17-.04-1.79 2.67 2.42 7.62 10.7 6.18 7.42-.05-.11-.09-.21-.13-.31 2.45 1.89 2.71 2.08 3.49 2.66 1.52 1.14-.84-2.79-4.38-6.58-.11-.12-.2-.21-.29-.32v-.14c1.01.97 2.55 2.44 3.7 3.37 2.53 2.02 5.44 3.14 4.68 2.51-.71-.59-2.76-2.24-5.62-6.25 1.46.59 3.33 1.55 4.7 2.64 1.28 1.02 2.41.99 6.04 3.09l-3.44-4.79s4.47 2.02 6.51 3.25c-.6-1.3-2.82-4-5.08-6.09-3.42-3.16 3.33.56 6.94 2.75-1.39-1.96-3.48-4.83-3.48-4.83s5.66 3.19 7.86 4.1c-.43-.78-4.24-3.75-4.96-4.44-3.03-2.93-.3-.91 4.14 1.11 1.36.62 3.92 1.32 4.9 1.07-2.41-1.59-6.24-4.75-6.24-4.75s6.76 2.58 9.13 3.3c-.16-.87-3.38-3.21-5.07-4.17-2-1.13-3.48-1.77-4.22-2.05.6.18 1.75.49 3.53.87 1.1.23.12-.19.58-.23l5.27.39 2.49-.15c-.72-1-1.31-1.46-2.51-2.45-2.22-1.82 2.62.61 7.16 1.51.79.16 1.36.2 1.76.16-1.98-.81-4.72-1.93-4.48-1.85s2.71.3 4.64.49c-.68-.65-1.91-1.38-3.34-1.83-3.53-1.11-.61-1.61.81-1.61 1.69 0 5.25 1 7.25.73l-2.91-1.32 3.65.12c-.78-.67-2.69-1.53-5.33-2.44-4.53-1.56-.57-2.13 2.83-.99 2.53.84 5.77 1.55 7.2 1.04l-6.83-3.79 7.33 1.49c-.03-.1-.06-.21-.1-.31l-3.94-1.56s1.94.07 3.23.15c-.69-1.07-1.79-2.25-3.5-3.67-3.31-2.76 7.23 1.01 10.29 1.34l-.42-.35-3.54-2.4s1.99.34 3.98.73c-1.45-1.5-4.31-3.41-7.48-4.28-5.67-1.56-.99-3.26.85-2.13s6.77 1.76 8.9 1.9-5.07-5.73-7.91-6.86c-2.83-1.13.43-.99 1.7-.43 1.28.57 7.05 3.96 7.47 2.68.43-1.28-1.66-3.11-5.21-4.67-3.54-1.56-.14-1.42-.14-1.42s2.38.97 3.5 1.56c1.51.78 2.25.87 2.57.62l-3.48-5.05.37.28c-1.25-1.03-2.84-2.33-4.38-3.79-2.83-2.69.28-1.7.85-1.56l8.55 4.17c.03-.22 0-.48-.14-.77-.71-1.56-2.8-4.25-5.63-6.09s-.93-1.41-.93-1.41 4.11 1.42 5.95 1.84c1.84.43.57 0 .43-.85s-1.98-2.41-5.1-4.68 0-1.42 2.55-.28c1.28.57 2.14 1.04 2.66 1.09l-6.68-4.32 7.24 2.62c-.35-2-2.51-3.87-4.79-5.21zm-127.62 59.03-.78-.54c.71-1.2 1.09-1.39.78.54z" fill="#fff"/><path d="m114.67 86.59c-2.39 4.63-2.87 15.88-1.43 23.16 1.43 7.28-1.43 19.19-1.43 19.19s-4.7-29.31-6.13-33.28-3.9-20.99.4-13.04c4.3 7.94-.48 17.21 8.6 3.97z" fill="#1c180f"/><path d="m111.25 81.29c2.19 5.11-8.2-7.58-7.86-12.44.34-4.85-1.03-7.89-2.05-9.4-1.03-1.52.34-17.29.34-17.29s0 15.47 12.3 14.56 25.97-.91 30.07 1.82 11.28 4.25 4.1 2.73-25.29-4.55-29.39-.91-10.25 14.56-7.52 20.93z" fill="#050505"/><path d="m104.76 40.34c2.97 5.27-1.71 9.4 9.91 8.8 11.62-.61 18.8-1.52 25.97 2.43 7.18 3.94 15.04 10.31 14.01 9.1s-19.14-20.02-28.36-20.63c-9.23-.61-9.57 1.52-13.67 0s-8.54-.91-7.86.3z" fill="#f5a506"/><path d="m101.34 27.3c-4.44-1.52-14.01 1.82-23.58.91s-17.09 10.62-15.38 8.49c1.71-2.12 17.77-3.64 17.77-3.64s16.74 2.12 19.14 2.43 5.81 2.12 14.01.3 17.35-1.25 19.82-.91 4.39 1.34 4.25 1.18c-2.36-2.72-10.05-7.24-13.81-7.55-3.76-.3-9.97-1.29-13.42-1.53s-7.18-.21-8.79.32z" fill="#e54f13"/><path d="m95.32 40.34c-2.97 5.27 1.71 9.4-9.91 8.8-11.62-.61-18.8-1.52-25.97 2.43-7.18 3.94-15.04 10.31-14.01 9.1s19.14-20.02 28.36-20.63c9.23-.61 9.57 1.52 13.67 0s8.54-.91 7.86.3z" fill="#050505"/><path d="m26 121.6c-3.54 2.19-18.75 9.74-22.28 13.28-3.54 3.54-3.2 2.36-3.2 2.36s17.3-16.01 23.7-19.21m-3.82-1.68c-1.68 1.35-15.67 10.95-19.71 14.66s16.68-8.42 21.56-14.32m-21.73 10.44c.51-.67 5.56-4.21 8.42-6.57s1.35-4.72-3.71.84c-5.05 5.56-4.72 5.73-4.72 5.73zm8.59-12.47c-3.52 3.52-6.91 2.53-6.91 2.53s-2.86 1.01-.67-.51 6.4-2.86 7.41-3.54 2.36-.34.17 1.52zm-.17-4.88s-.29.11-.76.3c-1.58.64-5.23 2.16-6.66 3.07-1.85 1.18.67-2.36 3.2-3.71m2.37-5.39c-2.36 1.35-4.55 1.85-4.55 1.85s-1.85-1.52 1.18-3.37 5.39-1.35 4.04.51m1.18-8.09c-2.7 3.2-4.21 3.71-4.21 3.71s-1.52-.84 0-1.85 3.03-2.19 1.85-2.19-6.4 1.85-2.02-.84 5.56-2.36 4.72-1.18-1.52 1.52-1.52 1.52m3.54-6.08s-5.56 1.52-5.9.84c-.34-.67 4.55-2.19 5.22-1.85m1.02-1.85c-1.18-.34-4.38-1.85-3.87-1.85s3.37-1.35 4.21-1.01.51 2.36.51 2.36m1.84-6.41c-1.35-.17-4.21 0-4.21 0s.17 1.52 1.52 1.68l2.86.34m1.52-4.21c-1.01 0-3.54.17-3.37-.34s-.84-.84.84-1.85 0-2.36 1.01-3.2.67-1.01 1.52-.84 1.01.67 1.68.67 1.35-2.19.17-2.36-2.53-.84-.67-1.18c1.85-.34 4.55-.34 4.55-.34s3.37.84 1.35 1.52-2.36 1.68-2.36 1.68-.67 3.03-1.35 2.86-1.52-.67-1.35.17-.84 2.02-1.35 3.03-1.18 1.01-1.18 1.01m9.77-12.79-3.03-1.68 5.73-.34-2.53 3.37-2.52-.51m4.71-4.38s-2.86-1.52-2.7-2.19 1.35-1.68 1.35-1.68-1.18-1.85-1.18-2.53c0-.67.34-2.36.34-2.36s-4.38 2.53-3.87 2.7 2.02 2.36 2.02 2.36-4.38-.17-1.18 1.52c3.2 1.68 3.54 3.03 3.54 3.03m34.2 100.07c-4.72 3.87-8.59 5.9-9.77 6.4-1.18.51-4.38 1.01-2.36-.34s4.72-3.37 1.68-2.19c-3.03 1.18-4.89 2.02-4.38 1.52s1.18-2.53 1.85-2.7 2.86-.84 2.86-.84-1.01 3.54 1.52 2.53 8.25-3.54 8.25-3.54m-11.11-1.52-9.27 4.38s-2.86 0-.67-.67 11.79-5.9 11.79-5.9zm-1.52-5.39c-.13.06-.39.17-.76.34-3.02 1.38-13.05 6.06-13.05 6.06l-1.68-.67m9.26-8.09c-.51 0-19.54 7.58-19.54 7.58s-3.2-.51-2.53-.84c.67-.34 22.74-6.57 22.74-6.57m3.88-5.56c-11.29-1.52-27.29 2.36-32.85 6.23l.17-.17s11.96-11.46 32.68-6.06zm-9.1 3.71c-2.02-.17-17.18 3.2-20.89 5.05s18.53-2.7 20.89-5.05zm-9.21-23.7c-4.72 1.52-21.11 11.39-23.14 11.73s-3.37 2.02-1.68 1.35c1.68-.67 24.31-5.74 26.67-6.91m-23.8 8.77c2.02 0 8.09-2.7 8.09-2.7zm9.26 4.55-.91.33-5.66 2.03s6.4 1.52 9.94-1.85m24.26-5.57c-5.56-1.18-25.61.34-34.87 3.87 5.73-4.21 23.59-5.73 34.87-3.87z" fill="#f5a506"/><path d="m175.91 114.05c1.68 1.35 17.13 10.56 21.18 14.27 4.04 3.71-16.68-8.42-21.56-14.32m21.73 10.45c-.51-.67-5.29-4.59-8.42-6.57-15.31-9.68-1.35-4.72 3.71.84 5.05 5.56 4.72 5.73 4.72 5.73zm-8.6-12.47c3.52 3.52 6.91 2.53 6.91 2.53s2.86 1.01.67-.51-6.4-2.86-7.41-3.54c-1.01-.67-2.36-.34-.17 1.52zm.17-4.89s.29.11.76.3c1.58.64 5.23 2.16 6.66 3.07 1.85 1.18-.67-2.36-3.2-3.71m-2.36-5.38c2.36 1.35 4.55 1.85 4.55 1.85s1.85-1.52-1.18-3.37-5.39-1.35-4.04.51m-1.19-8.09c2.7 3.2 4.21 3.71 4.21 3.71s1.52-.84 0-1.85-3.03-2.19-1.85-2.19 6.4 1.85 2.02-.84c-4.38-2.7-5.56-2.36-4.72-1.18s1.52 1.52 1.52 1.52m-3.54-6.08s5.56 1.52 5.9.84c.34-.67-4.55-2.19-5.22-1.85m-1.01-1.85c1.18-.34 4.38-1.85 3.87-1.85s-3.37-1.35-4.21-1.01-.51 2.36-.51 2.36m-1.85-6.41c1.35-.17 4.21 0 4.21 0s-.17 1.52-1.52 1.68c-1.35.17-2.86.34-2.86.34m-1.51-4.21c1.01 0 3.54.17 3.37-.34s.84-.84-.84-1.85 0-2.36-1.01-3.2-.67-1.01-1.52-.84-1.01.67-1.68.67-1.35-2.19-.17-2.36 2.53-.84.67-1.18c-1.85-.34-4.55-.34-4.55-.34s-3.37.84-1.35 1.52c2.02.67 2.36 1.68 2.36 1.68s.67 3.03 1.35 2.86c.67-.17 1.52-.67 1.35.17s.84 2.02 1.35 3.03 1.18 1.01 1.18 1.01m-9.78-12.79 3.03-1.69-5.73-.33 2.53 3.37 2.53-.51m-4.72-4.38s2.86-1.52 2.7-2.19c-.17-.67-1.35-1.68-1.35-1.68s1.18-1.85 1.18-2.53-.34-2.36-.34-2.36 4.38 2.53 3.87 2.7-2.02 2.36-2.02 2.36 4.38-.17 1.18 1.52c-3.2 1.68-3.54 3.03-3.54 3.03m-22.74 99.39 9.27 4.38s2.86 0 .67-.67-11.79-5.9-11.79-5.9zm1.52-5.39c.13.06.39.17.76.34 3.02 1.38 13.05 6.06 13.05 6.06l-2.8-2.98m-4.78-5.78c.51 0 12.89 4.86 12.89 4.86s2.53.45 1.85.12c-.67-.34-15.42-4.8-15.42-4.8m-11.83-2.63c13.32-5.09 35.25-.58 40.81 3.29l-.17-.17s-17.15-15.24-40.65-3.12z" fill="#e54f13"/><path d="m161.37 148.71c2.02-.17 17.18 3.2 20.89 5.05s-18.53-2.7-20.89-5.05zm-5.73-9.27c5.56-1.18 24.71.5 37.36 5.59-13.57-8.72-26.08-7.45-37.36-5.59zm-.43-5.31c13.08-2.66 37.07 2.18 41.19 4.36-13.08-7.75-23.86-7.34-40.88-4.48m19.78-7.72c6.68.43 17.23 3.45 20.03 4.42s-16.7-6.57-22.08-12.06c-5.39-5.49 6.36 6.46-2.26 7m-44.39 36.51c.04.06.09.13.16.21 1.89 2.42 10.92 9.09 10.4 7.94-.54-1.18-2.36-6.97-.43-5.79 1.94 1.18 10.88 6.14 10.88 5.82s-6.14-5.71-8.83-7.11-3.88-2.15-4.09.43m11.3-2.25c-.71-1.13 6.36 2.48 7.86 4.85 1.51 2.37-.32.22-.32.22s-2.59 1.4-7.54-5.06z" fill="#e54f13"/><path d="m74.7 169.67c7.44 4.36 12.84 9.18 24.16 8.8 8.86-.3 11.48-.6 17.12-3.42s10.51-6.41 12.56-1.28-11.93 15.92-27.57 15.41-19.6-.79-24.22-5.41-8.05-17.19-2.16-14.11" fill="#1c180f"/><path d="m154.68 4.05c3.33-2.05 10.61-1.88 18.56 1.2s10.23 17.15 10.08 29.63c-.14 12.08-11.88 17.03-12.13 16-.26-1.03 2.31-15.64 4.87-29.23s-12.56-13.59-14.61-9.23-7.18 17.95-15.9 21.28-7.95 0-11.54-5.9 12.05-18.2 20-23.33" fill="#831720"/><path d="m149.62 88.43c-3.04 2.71-5.6 10.14-16.62 11.94 0 0 9.74 2.05 12.56.51s5.64-11.28 5.64-11.28" fill="#1c180f"/><path d="m136.68 146.6c-.35 2.36-9.07 5.3-16.25 6.59s-6.41 1.28-6.41 1.28 14.61 3.33 21.79.77" fill="#831720"/><ellipse cx="131.58" cy="79.09" fill="#fff" rx="8.08" ry="7.44"/><path d="m45.35 4.48c7.95 5.13 23.59 17.43 20 23.33s-2.82 9.23-11.54 5.9-13.85-16.92-15.9-21.28-17.18-4.36-14.61 9.23c2.56 13.59 5.13 28.2 4.87 29.23s-14.27-8.94-13.85-21.02c.44-12.48 3.85-21.54 11.79-24.61 7.95-3.08 16.31-2.45 19.64-.4" fill="#1c180f"/><path d="m33.55 72.93s-3.85 31.02-1.28 38.2c2.56 7.18 9.74 18.46 12.31 20.77 1.53 1.38 4.85 3.24 7.28 4.51a5.532 5.532 0 0 1 2.95 5.24c-.16 2.68-.93 5.7-3.63 5.16-1.04-.21-13.78-2.6-18.65-17.98s-7.69-31.02-6.15-39.23c1.54-8.2 3.33-17.18 4.1-18.2.77-1.03 7.44-5.38 7.44-5.38" fill="#e54f13"/><path d="m49.75 88.43c3.04 2.71 5.6 10.14 16.62 11.94 0 0-9.74 2.05-12.56.51s-5.64-11.28-5.64-11.28" fill="#f5a506"/><path d="m82.81 153.27c-7.8-.2-17.56-2.29-19.56-5.49s-1.04 4.29.56 7.09 15 1.6 19-1.6z" fill="#e54f13"/><path d="m174.13 74.33c1.16 9.08 3.72 20.02 1.63 28.87-2.1 8.85 6.29-3.72 6.75-5.12.47-1.4-4.19-21.18-8.38-23.74z" fill="#831720"/><path d="m145.76 72.65c-2.31-1.5-6.51-2.33-10.88-2.13.51.33.97.72 1.39 1.15-.42-.42-.89-.81-1.39-1.15-1.82.09-3.68.33-5.44.82-3.77 1.03-6.46 3.72-8.41 6.64.02.61.12 1.2.27 1.77-.15-.57-.24-1.16-.27-1.77-1.15 1.72-2.04 3.51-2.74 5.09-1.89 4.26-2.38 7.22-1.97 8.12s1.15 5.49 1.48 8.94c-.08-.49.25-5.66 1.31-7.05 1.07-1.39 4.43-1.97 6.97-2.05s8.95-1.4 11.4-3.36c4.92-3.94 4.76-8.36 7.71-9.68 2.95-1.31 7.05.57 6.56.08s-2.71-3.28-5.99-5.41zm-8.3.51c-.31-.5-.68-.96-1.08-1.39.41.42.77.89 1.08 1.39zm-16.07 6.86c.14.48.31.95.54 1.39a9.31 9.31 0 0 1 -.54-1.39zm.62 1.52c.26.48.55.95.9 1.37-.34-.43-.64-.89-.9-1.37zm7.88 4.72c-2.2 0-4.19-.8-5.74-2.09-2.45-2.67-2.83-6.74 2.68-9.49-.82.86-1.33 1.99-1.33 3.25 0 2.65 2.22 4.8 4.96 4.8s4.96-2.15 4.96-4.8c0-2.43-1.87-4.42-4.29-4.73 4.96-.99 6.89 1.58 7.61 3.65.02.26.05.53.05.79 0 4.76-3.98 8.61-8.9 8.61z" fill="#e54f13"/><ellipse cx="68.56" cy="77.94" fill="#831720" rx="4.96" ry="4.8"/><path d="m83.75 80.79c-4.38-8.44-10.78-14.38-24.53-13.75 9.06-1.56 20.78-.94 24.53 13.75z" fill="#831720"/><path d="m117.79 72.38c3.45-6.04 22.43-8.05 28.47-4.03-9.2-6.9-29.33-2.01-28.47 4.03z" fill="#f5a506"/><path d="m28.82 71.03c-.51.51-3.71 2.19-3.71 2.19s-4.55.34-1.01 1.01 4.04.67 3.54.67-5.05 2.36-5.05 2.36l3.37-.17s-.34 2.36-1.18 2.7-4.72 2.36-4.21 2.36 3.54-3.54 1.85 0c-1.68 3.54-5.05 4.21-3.03 5.05s-.51 2.7.34 2.7c.84 0 2.36-1.85 2.36-1.18s1.01 2.02-1.52 3.37-6.06 4.04-2.7 2.86c3.37-1.18 5.05-.67 6.4-1.68s4.49 4.99 3.99 4.65-.84-5.43 1.18-9.13c2.02-3.71 1.91-5.46 1.57-5.97s-3.54-.67-1.18-3.37 2.19-2.7 3.37-4.72-1.01-2.36.84-3.71 2.19-3.2 2.19-3.2 3.03-.84 1.18-1.35-2.19.17-4.72 2.02-4.04 3.2-4.04 3.2" fill="#e54f13"/><path d="m161.38 55.54c.5-1.08 1.07-2.53 1.74-4.43 5.64-15.9 8.71-24.47 6.67-28.72-2.11-4.39-11.54 6.84-9.23 8.2 3.85 1.03 5.38 4.87-.77 7.95-3.93 1.97-8.81 2.99-10 4.68 5.28 4.12 8.99 8.65 11.59 12.31z" fill="#1c180f"/><path d="m38.51 55.54c-.5-1.08-1.07-2.53-1.74-4.43-5.64-15.9-8.71-24.47-6.67-28.72 2.11-4.39 11.54 6.84 9.23 8.2-3.85 1.03-5.38 4.87.77 7.95 3.93 1.97 8.81 2.99 10 4.68-5.28 4.12-8.99 8.65-11.59 12.31zm116.53 18.16c.24 5.02-1.79 26.66-7.18 31.79-5.38 5.13-7.18 11.28-8.46 16.41s3.08 11.54 3.08 11.54 18.46-14.36 18.97-31.02c.51-16.67-2.14-29.37-2.56-30.51-.43-1.14-1.81-5.35-2.13-6.12-.86-2.09-2.59-5.67-1.72 7.91z" fill="#f5a506"/><path d="m165.81 72.93s3.85 31.02 1.28 38.2c-2.56 7.18-9.74 18.46-12.31 20.77-1.28 1.15-3.75 3.06-5.9 4.67a5.903 5.903 0 0 0 -1.36 8.01c.46.68.87 1.12 1.16 1.05 1.03-.26 13.28-1.42 18.15-16.81 4.87-15.38 7.69-31.02 6.15-39.23-1.54-8.2-2.89-13.98-4.1-18.2-1.13-3.95-7.44-5.38-7.44-5.38" fill="#1c180f"/><path d="m78.54 81.79c-1.6-4.38-4.55-12.13-15.58-10.33-10.82 1.77-5.7-.91 1-.91 10.33 0 14.91 6.39 17.67 14.84m53.99 44.3c-.12 4.02-13.91 15.55-19.8 17.86-5.9 2.31 13.54-3.67 21.58-9.11" fill="#831720"/><path d="m63.72 129.69c1.42 4.02 13.93 15.55 19.83 17.86s-16.4-5.44-19.83-8.28m29.3-77.57.82-1.53c-.29.43-.56.94-.82 1.53z" fill="#f5a506"/><path d="m55.78 131.01c4.45 11.21 20.79 12.46 24.92 15.66-.56-.15-1.19-.63-1.88-1.36 1.24-1.26-15.21-10.96-13.96-15.02 1.87-6.07 16.49-1.46 16.49-1.46s0-10.24 2.45-22.95 7.59-36.02 11.39-44.5c.04-1.23-5.33.28-5.33 4.27s-2.79 23.41-3.72 24.74-3.33-.53-3.99-2.93c-.67-2.39-10.37 1.6-6.25 3.19 4.12 1.6 6.38 7.18 4.26 14.5-2.13 7.32-14.23 24.21-19.82 15.69-5.59-8.51-7.98-1.6-7.32 1.6" fill="#f5a506"/><path d="m88.82 81.29c-2.19 5.11 8.2-7.58 7.86-12.44-.34-4.85 1.03-7.89 2.05-9.4 1.03-1.52-.34-17.29-.34-17.29s0 15.47-12.3 14.56-25.97-.91-30.07 1.82-11.28 4.25-4.1 2.73 25.29-4.55 29.39-.91 10.25 14.56 7.52 20.93z" fill="#e54f13"/><path d="m44.32 73.7c-.77 1.79 1.79 26.66 7.18 31.79 5.38 5.13 7.34 11.24 8.46 16.41 2.29 10.57-.16 14.8-.16 14.8s-21.37-17.62-21.89-34.28c-.51-16.67 2.56-30.51 2.56-30.51l2.78-7.06" fill="#831720"/><path d="m53.26 72.65c2.31-1.5 6.51-2.33 10.88-2.13-2.36 1.55-3.91 4.16-3.91 7.13 0 4.76 3.98 8.61 8.9 8.61 4.8 0 8.68-3.68 8.86-8.29 1.15 1.72 2.04 3.51 2.74 5.09 1.89 4.26 2.38 7.22 1.97 8.12s-1.15 5.49-1.48 8.94c.08-.49-.25-5.66-1.31-7.05-1.07-1.39-4.43-1.97-6.97-2.05s-8.95-1.4-11.4-3.36c-4.92-3.94-4.76-8.36-7.71-9.68-2.95-1.31-7.05.57-6.56.08s2.71-3.28 5.99-5.41zm15.29-47c5.89-3.34 22.47-4.6 29.83-.63 0 0 17.31-5.01 30.94.63-9.51-6.8-49.72-7.96-60.77 0z" fill="#831720"/><path d="m91.41 165.02c3.01 3.46 10.11 4.48 15.2.83.15-.11.3-.22.45-.34l2.01.49-8.99-5.35-5.58 2.43" fill="#e54f13"/><path d="m135.56 129.34c.33.46.67.98 1.02 1.54 3.74 6 8.21 17.32 2.82 24.36-5.9 7.69-8.75 11.61-17.43 12.56-12.6 1.38-20.51-2.82-24.1-7.95s-3.33-9.49-3.33-9.49 1.28-9.23 5.13-10.77 4.87-1.03 7.69-2.56c2.82-1.54 2.82-.26-5.9-1.54s-11.28-4.36-4.1-5.13 15.01-.76 16.41-1.28c3.5-1.32 4.36-5.9 4.36-5.9s.26 18.46-3.59 19.49-17.43 4.36-16.92 10.26 11.28 13.33 20.77 11.54 24.1-15.9 15.64-27.95" fill="#831720"/><path d="m63.81 129.34c-.33.46-.67.98-1.02 1.54-3.74 6-8.21 17.32-2.82 24.36 5.9 7.69 8.7 12.56 17.43 12.56 12.11 0 20.51-2.82 24.1-7.95s3.33-9.49 3.33-9.49-1.28-9.23-5.13-10.77-4.87-1.03-7.69-2.56c-2.82-1.54-2.82-.26 5.9-1.54s11.28-4.36 4.1-5.13-13.92-.5-15.33-1c-4.12-1.46-5.44-6.18-5.44-6.18s-.26 18.46 3.59 19.49 17.43 4.36 16.92 10.26-11.28 13.33-20.77 11.54-24.1-15.9-15.64-27.95" fill="#e54f13"/><path d="m92.85 132.98c-4.48-.17-8.61 1.2-5.85 3.61 2.75 2.41 12.91 3.61 13.08 7.23.17-1.2 5.85-4.48 9.29-4.65s7.4-5.68 1.72-5.85-15.32-.69-18.25-.34z" fill="#fff"/></svg>