<svg height="2500" viewBox="196.1 168 456.2 456.2" width="2256" xmlns="http://www.w3.org/2000/svg"><path d="m292.4 377.1c7.5 12.9 14.9 25.7 22.3 38.7 1.4-2.5 2.8-4.7 4.1-7 1.8-3.1 3.6-6.3 5.4-9.4 3.2-5.6 6.5-11.3 9.7-16.9 2-3.5 4.2-7 6.2-10.6 5.8-10 11.5-20 17.3-30l16.5-28.5c4.9-8.4 9.7-16.8 14.6-25.2l9.6-16.8c3.5-6.2 7.1-12.3 10.7-18.5 3.1-5.3 6.2-10.5 9.2-15.8 5-8.6 10-17.2 14.9-25.8 4.8-8.4 9.7-16.7 14.5-25.1 1.8-3.1 3.5-6.2 5.3-9.3.5-.9 1.2-1.5 2.4-1.4.7.1 1.4 0 2.1 0 1.4 0 1.8.8 1.1 2-4.1 7.1-8.1 14.1-12.2 21.1-3.9 6.7-7.8 13.4-11.6 20.1-4.9 8.4-9.7 16.8-14.6 25.2-4.5 7.9-9 15.7-13.6 23.6-4 6.9-8 13.7-11.9 20.6-4.5 7.9-9.1 15.8-13.6 23.6-4.1 7.2-8.3 14.3-12.5 21.5l-11.1 19.2c-3.5 6-6.9 12-10.4 18-4.8 8.2-9.5 16.5-14.3 24.7-3.8 6.5-7.5 13-11.3 19.5-1.4 2.3-2.7 4.7-4.1 7s-3.6 2.2-4.9-.1c-1.5-2.5-2.9-5-4.3-7.5-2-3.4-3.9-6.8-5.9-10.2l-10.5-18.3c-1.9-3.3-3.8-6.5-5.6-9.8-1.1-2.1 0-4 2.3-4h26.3c1.7 0 2.8 1.1 2.8 2.6s-1.2 2.6-2.9 2.6h-22z"/><path d="m292.4 377.1c7.5 12.9 14.9 25.7 22.3 38.7 1.4-2.5 2.8-4.7 4.1-7 1.8-3.1 3.6-6.3 5.4-9.4 3.2-5.6 6.5-11.3 9.7-16.9 2-3.5 4.2-7 6.2-10.6 5.8-10 11.5-20 17.3-30l16.5-28.5c4.9-8.4 9.7-16.8 14.6-25.2l9.6-16.8c3.5-6.2 7.1-12.3 10.7-18.5 3.1-5.3 6.2-10.5 9.2-15.8 5-8.6 10-17.2 14.9-25.8 4.8-8.4 9.7-16.7 14.5-25.1 1.8-3.1 3.5-6.2 5.3-9.3.5-.9 1.2-1.5 2.4-1.4.7.1 1.4 0 2.1 0 1.4 0 1.8.8 1.1 2-4.1 7.1-8.1 14.1-12.2 21.1-3.9 6.7-7.8 13.4-11.6 20.1-4.9 8.4-9.7 16.8-14.6 25.2-4.5 7.9-9 15.7-13.6 23.6-4 6.9-8 13.7-11.9 20.6-4.5 7.9-9.1 15.8-13.6 23.6-4.1 7.2-8.3 14.3-12.5 21.5l-11.1 19.2c-3.5 6-6.9 12-10.4 18-4.8 8.2-9.5 16.5-14.3 24.7-3.8 6.5-7.5 13-11.3 19.5-1.4 2.3-2.7 4.7-4.1 7s-3.6 2.2-4.9-.1c-1.5-2.5-2.9-5-4.3-7.5-2-3.4-3.9-6.8-5.9-10.2l-10.5-18.3c-1.9-3.3-3.8-6.5-5.6-9.8-1.1-2.1 0-4 2.3-4h26.3c1.7 0 2.8 1.1 2.8 2.6s-1.2 2.6-2.9 2.6h-22z" fill="none" stroke="#000" stroke-miterlimit="10" stroke-width="2.4"/><path d="m554.3 418.3c-7.5-13-14.9-25.7-22.3-38.7-1.3 2.2-2.5 4.2-3.6 6.2l-12 21c-4.4 7.7-8.9 15.3-13.3 22.9-4.5 7.8-9 15.7-13.5 23.5-4 6.9-8 13.7-11.9 20.6-3.9 6.8-7.8 13.5-11.7 20.3-2.9 5-5.7 10.1-8.6 15.1-4.9 8.6-9.9 17.2-14.9 25.7-3.2 5.5-6.4 10.9-9.6 16.4-4.9 8.5-9.9 17.1-14.8 25.6-3.6 6.3-7.3 12.6-10.9 18.9-4.3 7.5-8.7 15.1-13 22.6-.5.9-1.2 1.4-2.3 1.3-.7-.1-1.5 0-2.2 0-1.3-.1-1.7-.8-1.1-2 2.9-5 5.8-9.9 8.6-14.9 4.5-7.9 9-15.8 13.6-23.6 4-6.9 8.1-13.9 12.1-20.8l13.5-23.4c3-5.2 6-10.3 9-15.5 4.1-7.1 8.2-14.3 12.3-21.4 3-5.2 6-10.3 9-15.5 3.1-5.4 6.2-10.9 9.3-16.3 3-5.1 6-10.3 8.9-15.4 2.9-4.9 5.7-9.9 8.5-14.8 2.1-3.6 4.2-7.3 6.3-10.9 2.9-5 5.7-10 8.6-14.9 2.1-3.6 4.2-7.3 6.3-10.9 2.8-4.9 5.7-9.9 8.5-14.8 2.1-3.7 4.3-7.4 6.5-11.1 1.4-2.3 3.6-2.2 5 .1 1.2 2.1 2.4 4.2 3.6 6.2 4.6 8 9.3 16 13.9 24 2.8 4.8 5.6 9.6 8.4 14.5.3.5.5 1 .7 1.5.6 1.5-.2 3-1.8 3.4-.3.1-.7.1-1.1.1h-25.8c-1.5 0-2.5-.6-2.9-1.6-.6-1.8.6-3.5 2.6-3.5h13.7c2.7.1 5.4.1 8.4.1z"/><path d="m554.3 418.3c-7.5-13-14.9-25.7-22.3-38.7-1.3 2.2-2.5 4.2-3.6 6.2l-12 21c-4.4 7.7-8.9 15.3-13.3 22.9-4.5 7.8-9 15.7-13.5 23.5-4 6.9-8 13.7-11.9 20.6-3.9 6.8-7.8 13.5-11.7 20.3-2.9 5-5.7 10.1-8.6 15.1-4.9 8.6-9.9 17.2-14.9 25.7-3.2 5.5-6.4 10.9-9.6 16.4-4.9 8.5-9.9 17.1-14.8 25.6-3.6 6.3-7.3 12.6-10.9 18.9-4.3 7.5-8.7 15.1-13 22.6-.5.9-1.2 1.4-2.3 1.3-.7-.1-1.5 0-2.2 0-1.3-.1-1.7-.8-1.1-2 2.9-5 5.8-9.9 8.6-14.9 4.5-7.9 9-15.8 13.6-23.6 4-6.9 8.1-13.9 12.1-20.8l13.5-23.4c3-5.2 6-10.3 9-15.5 4.1-7.1 8.2-14.3 12.3-21.4 3-5.2 6-10.3 9-15.5 3.1-5.4 6.2-10.9 9.3-16.3 3-5.1 6-10.3 8.9-15.4 2.9-4.9 5.7-9.9 8.5-14.8 2.1-3.6 4.2-7.3 6.3-10.9 2.9-5 5.7-10 8.6-14.9 2.1-3.6 4.2-7.3 6.3-10.9 2.8-4.9 5.7-9.9 8.5-14.8 2.1-3.7 4.3-7.4 6.5-11.1 1.4-2.3 3.6-2.2 5 .1 1.2 2.1 2.4 4.2 3.6 6.2 4.6 8 9.3 16 13.9 24 2.8 4.8 5.6 9.6 8.4 14.5.3.5.5 1 .7 1.5.6 1.5-.2 3-1.8 3.4-.3.1-.7.1-1.1.1h-25.8c-1.5 0-2.5-.6-2.9-1.6-.6-1.8.6-3.5 2.6-3.5h13.7c2.7.1 5.4.1 8.4.1z" fill="none" stroke="#000001" stroke-miterlimit="10" stroke-width="2.4"/><path d="m468 423.3c-3.9 0-7.8.1-11.7 0-11.8-.5-21.4-9.1-23.8-20.2-1.8-8.4.3-16 6-22.5 2.6-2.9 5.7-5.2 9.2-6.7 2.9-1.2 6-1.9 9.2-2h23.9c1.7 0 3 1.2 3 2.6 0 1.5-1.2 2.5-3 2.5h-22.3c-5.8 0-11 1.8-15.1 5.9-3.8 3.8-6 8.4-6.2 14-.1 4.6 1 8.7 3.5 12.4 3.1 4.6 7.4 7.5 12.9 8.6 1.8.3 3.7.5 5.5.5 7.3.1 14.5 0 21.8 0 2.2 0 3.6 1.9 2.6 3.7-.6 1.1-1.7 1.4-2.9 1.4-4.3-.1-8.4-.1-12.6-.2 0 .1 0 .1 0 0z"/><path d="m468 423.3c-3.9 0-7.8.1-11.7 0-11.8-.5-21.4-9.1-23.8-20.2-1.8-8.4.3-16 6-22.5 2.6-2.9 5.7-5.2 9.2-6.7 2.9-1.2 6-1.9 9.2-2h23.9c1.7 0 3 1.2 3 2.6 0 1.5-1.2 2.5-3 2.5h-22.3c-5.8 0-11 1.8-15.1 5.9-3.8 3.8-6 8.4-6.2 14-.1 4.6 1 8.7 3.5 12.4 3.1 4.6 7.4 7.5 12.9 8.6 1.8.3 3.7.5 5.5.5 7.3.1 14.5 0 21.8 0 2.2 0 3.6 1.9 2.6 3.7-.6 1.1-1.7 1.4-2.9 1.4-4.3-.1-8.4-.1-12.6-.2 0 .1 0 .1 0 0z" fill="none" stroke="#000001" stroke-miterlimit="10" stroke-width="2.4"/><path d="m361.8 387.3v-12.5c0-2 1.2-3.2 2.8-3 1.4.2 2.3 1.2 2.3 2.8 0 6.9.1 13.7 0 20.6 0 3.5.2 6.9 1.5 10.2 1.4 3.6 3.7 6.5 6.7 8.8 3.7 2.8 7.9 4.2 12.4 4.2 8.7-.1 16.1-4.8 19.3-13.5.9-2.4 1.3-5.1 1.3-7.7.2-7.6.1-15.2.1-22.8 0-1.2.7-2.2 1.8-2.5 1.2-.3 2.1 0 2.8 1 .3.4.5 1 .5 1.5 0 8.3.2 16.6-.1 25-.3 10.9-8.4 20-18.1 23-4.4 1.3-8.9 1.5-13.4.4-8.6-2.1-14.4-7.3-18-15.3-1.4-3.2-1.9-6.7-1.9-10.2z"/><path d="m361.8 387.3v-12.5c0-2 1.2-3.2 2.8-3 1.4.2 2.3 1.2 2.3 2.8 0 6.9.1 13.7 0 20.6 0 3.5.2 6.9 1.5 10.2 1.4 3.6 3.7 6.5 6.7 8.8 3.7 2.8 7.9 4.2 12.4 4.2 8.7-.1 16.1-4.8 19.3-13.5.9-2.4 1.3-5.1 1.3-7.7.2-7.6.1-15.2.1-22.8 0-1.2.7-2.2 1.8-2.5 1.2-.3 2.1 0 2.8 1 .3.4.5 1 .5 1.5 0 8.3.2 16.6-.1 25-.3 10.9-8.4 20-18.1 23-4.4 1.3-8.9 1.5-13.4.4-8.6-2.1-14.4-7.3-18-15.3-1.4-3.2-1.9-6.7-1.9-10.2z" fill="none" stroke="#000001" stroke-miterlimit="10" stroke-width="2.4"/><path d="m424.2 624.2c-30.8 0-60.7-6-88.8-17.9-27.2-11.5-51.6-27.9-72.5-48.9-21-21-37.4-45.4-48.9-72.5-11.9-28.1-17.9-58-17.9-88.8s6-60.7 17.9-88.8c11.5-27.2 27.9-51.6 48.9-72.5 21-21 45.4-37.4 72.5-48.9 28.1-11.9 58-17.9 88.8-17.9s60.7 6 88.8 17.9c27.2 11.5 51.6 27.9 72.5 48.9 21 21 37.4 45.4 48.9 72.5 11.9 28.1 17.9 58 17.9 88.8s-6 60.7-17.9 88.8c-11.5 27.2-27.9 51.6-48.9 72.5-21 21-45.4 37.4-72.5 48.9-28.1 11.8-58 17.9-88.8 17.9zm0-449.8c-122.2 0-221.6 99.4-221.6 221.6s99.4 221.6 221.6 221.6 221.6-99.4 221.6-221.6c.1-122.2-99.4-221.6-221.6-221.6z" fill="#000001"/><path d="m424.2 624.2c-30.8 0-60.7-6-88.8-17.9-27.2-11.5-51.6-27.9-72.5-48.9-21-21-37.4-45.4-48.9-72.5-11.9-28.1-17.9-58-17.9-88.8s6-60.7 17.9-88.8c11.5-27.2 27.9-51.6 48.9-72.5 21-21 45.4-37.4 72.5-48.9 28.1-11.9 58-17.9 88.8-17.9s60.7 6 88.8 17.9c27.2 11.5 51.6 27.9 72.5 48.9 21 21 37.4 45.4 48.9 72.5 11.9 28.1 17.9 58 17.9 88.8s-6 60.7-17.9 88.8c-11.5 27.2-27.9 51.6-48.9 72.5-21 21-45.4 37.4-72.5 48.9-28.1 11.8-58 17.9-88.8 17.9zm0-449.8c-122.2 0-221.6 99.4-221.6 221.6s99.4 221.6 221.6 221.6 221.6-99.4 221.6-221.6c.1-122.2-99.4-221.6-221.6-221.6z" fill="none" stroke="#000001" stroke-miterlimit="10" stroke-width="1.2"/></svg>