<svg height="2500" viewBox="0 -12.434 202.835 307.818" width="1717" xmlns="http://www.w3.org/2000/svg"><g stroke-miterlimit="10"><path d="m184.63 157.708c0 1.517-1.29 2.807-2.806 2.807h-171.204c-1.517 0-2.883-1.214-2.883-2.807v-69.18c1.29-46.954 38.99-84.73 85.944-86.019 48.926-1.365 89.584 37.093 90.95 86.02z" fill="#ff00c7"/><path d="m166.577 85.646c3.717 9.027-10.013 28.825-49.154 50.52-28.976 15.777-65.16 20.328-68.27 13.805-3.11-6.448 16.613-27.839 52.568-47.106s61.746-24.88 64.78-17.37" fill="#4a21a9"/><path d="m82.15 139.579c-5.916.076-11.681-2.2-15.929-6.372a155.899 155.899 0 0 1 35.12-25.26c1.442 2.883 2.2 5.993 2.2 9.179.38 12.136-9.254 22.15-21.39 22.453" fill="#fff400"/><path d="m26.7 155.736c1.897 2.048 4.249 3.49 6.904 4.323l.986.38h-24.122c-1.593 0-2.883-1.29-2.883-2.807v-69.18a88.392 88.392 0 0 1 36.866-71.834l-1.062 1.214c-2.048 2.882-2.352 6.675-.607 9.785.986 2.58-1.896 5.462-3.338 6.903a48.683 48.683 0 0 0 -13.804 33.073c.076 12.06 1.896 24.046 5.31 35.651.91 3.717 1.593 7.51 1.972 11.378 5.765-4.854 11.833-9.557 17.977-13.805 9.862-6.524 17.978-11.378 25.033-15.171 15.853-8.496 19.873-7.585 7.433-.38-11.681 6.676-22.756 14.489-32.92 23.288-32.315 29.128-27.688 43.54-24.122 46.954m158.307 1.972c0 1.517-1.29 2.807-2.806 2.807h-112.19l1.67-.38a174.248 174.248 0 0 0 49.533-19.115c34.59-17.901 57.27-41.037 63.338-57.877v-.834 75.248m-126.677-148.448c43.996-21.315 97.018-2.958 118.333 41.113a89.503 89.503 0 0 1 5.841 15.55 20.49 20.49 0 0 0 -4.475-2.654c-3.11-1.214-6.296-2.124-9.634-2.655a50.13 50.13 0 0 1 -17.219-4.703c-11.302-6.145-26.322-32.618-50.368-39.596a52.28 52.28 0 0 0 -23.97-1.29c-1.972.38-5.916.759-7.358-1.138-2.882-3.717-5.082-5.916-9.481-5.158zm-41.265 183.037h-16.233v-11.074h45.285v11.074h-16.233v41.796h-12.82zm19.191 41.796 22.529-52.87h10.771l21.619 52.87h-14.109l-2.883-7.737h-21.163l-2.958 7.737zm20.708-18.28h13.35l-6.447-18.737zm56.816 19.191c-14.11-.835-24.957-12.896-24.198-27.08a30.385 30.385 0 0 1 0-3.717c.91-14.185 13.123-24.88 27.308-23.97 8.116-.228 15.853 3.565 20.784 10.012l-10.468 7.51c-2.276-3.717-6.296-5.84-10.62-5.765-.607 0-1.213 0-1.82.076-7.586.986-12.971 7.889-11.985 15.474 0 8.875 4.779 15.399 13.274 15.399 4.627.227 9.027-1.82 11.758-5.538l10.695 7.965c-5.537 6.448-13.654 10.013-22.15 9.634zm50.064 0c-14.337-.759-25.412-12.972-24.653-27.308v-.986c.303-15.323 12.971-27.46 28.294-27.08 15.322.303 27.46 12.97 27.08 28.293-.304 15.323-12.971 27.46-28.294 27.08h-2.427zm.91-42.858c-7.585.986-12.971 7.889-11.985 15.474a13.995 13.995 0 0 0 0 6.144c1.669 7.434 9.102 12.061 16.536 10.392 7.434-1.668 12.061-9.102 10.392-16.536 0-.455.076-.986.076-1.441.228-7.586-5.84-13.957-13.502-14.11-.53 0-1.062.077-1.517.077zm-104.755 88.446c0 10.317-6.524 15.171-19.95 15.171h-22.984v-52.87h20.329c12.213 0 18.433 4.627 18.433 12.516a11.714 11.714 0 0 1 -7.358 11.757c6.75.759 11.757 6.6 11.53 13.426zm-31.025-16.688h7.055c4.475 0 6.902-1.744 6.902-5.537 0-3.869-2.503-5.082-8.647-5.082h-5.158zm7.889 20.784c7.813 0 9.861-1.517 9.861-5.461 0-3.945-2.958-5.462-9.861-5.462h-7.889v11.075h7.889zm41.113.001h27.384v11.074h-40.203v-52.87h39.672v11.15h-26.853v9.634h22.301v10.771h-22.3zm46.575 0h23.287v11.074h-36.182v-52.87h12.895zm42.403 0h23.363v11.074h-36.183v-52.87h12.82zm28.976.682v5.008h-.91v-5.007h-1.517v-.683h3.868v.683zm6.903 5.007v-3.717l-1.29 2.73h-.758l-1.29-2.73v4.096h-.758v-5.69h.758l1.745 3.49 1.669-3.49h.758v5.69z" fill="#4a21a9"/><path d="m110.071 27.05c1.831 1.245 7.54 5.415 10.433 7.798s6.145 5.494 7.21 6.734c2.395 2.786 3.906 6.722 5.475 10.224l1.33 1.01c.372.27.68.615.894 1.026.394.76 10.88 17.563 10.88 17.563s-15.885-.988-19.986 1.877c-1.992 1.39-2.61-7.36-3.87-9.051-2.708-3.633-1.759-5.048-4.2-8.814-1.556-2.402-3.252-6.306-5.57-8.375-4.663-4.164-11.897-8.745-17.423-12.186-3.868-2.409-11.862-.426-15.567-3.059s-17.504-7.434-17.504-7.434 10.515-3.91 13.465-4.25 7.275-.666 10.706.856c5.348.41 10.692-.453 15.98 1.34 4.229 1.433 4.281 2.386 7.747 4.742z" fill="#fff"/></g></svg>