<svg height="2422" viewBox="0 0 30.91 29.94" width="2500" xmlns="http://www.w3.org/2000/svg"><path d="m0 0h30.91v29.94h-30.91z" fill="#ff6131"/><path d="m6.59 10.25h-1.49v-.87h4.07v.87h-1.49v3.74h-1.08v-3.74zm6.2 2.76h-2.17l-.41.99h-1.11l2.08-4.61h1.07l2.09 4.61h-1.13l-.41-.99zm-.34-.81-.74-1.77-.74 1.77zm5.73-2.61c.3.14.54.33.7.58s.25.55.25.89-.08.63-.25.89c-.16.25-.4.45-.7.58s-.66.2-1.08.2h-.94v1.27h-1.08v-4.61h2.02c.41 0 .77.07 1.08.2zm-.4 2.06c.17-.14.25-.33.25-.59s-.08-.46-.25-.6-.42-.21-.74-.21h-.88v1.6h.88c.32 0 .57-.07.74-.21zm2.86 2.28c-.34-.1-.62-.23-.83-.39l.37-.8c.2.14.44.26.71.35.28.09.55.13.83.13.31 0 .53-.04.68-.14.15-.09.22-.21.22-.36 0-.11-.04-.2-.13-.27s-.2-.13-.33-.17-.32-.09-.55-.14c-.36-.08-.65-.17-.87-.25s-.42-.22-.58-.4-.24-.43-.24-.74c0-.27.07-.51.22-.73s.37-.39.66-.52c.3-.13.66-.19 1.08-.19.3 0 .59.04.87.11s.53.17.75.3l-.33.81c-.43-.24-.86-.36-1.29-.36-.3 0-.53.05-.67.15s-.22.22-.22.38.08.28.25.35c.17.08.42.15.76.23.36.08.65.17.87.25s.42.22.58.4.24.42.24.73c0 .26-.07.5-.22.72s-.37.39-.67.52-.66.19-1.09.19c-.37 0-.73-.05-1.07-.15zm3.91-4.55h1.08v4.61h-1.08zm-17.98 7.42v1.22h2.16v.86h-2.16v1.68h-1.08v-4.61h3.53v.86h-2.45zm4.18 3.53c-.39-.21-.69-.49-.91-.85s-.33-.77-.33-1.22.11-.86.33-1.22.52-.65.91-.85c.39-.21.83-.31 1.31-.31s.92.1 1.31.31.69.49.91.85.33.77.33 1.22-.11.86-.33 1.22-.53.65-.91.85c-.39.21-.82.31-1.31.31s-.92-.1-1.31-.31zm2.06-.79c.22-.13.4-.3.52-.52.13-.22.19-.48.19-.76s-.06-.54-.19-.76-.3-.4-.52-.52-.47-.19-.75-.19-.52.06-.75.19c-.22.13-.4.3-.52.52-.13.22-.19.48-.19.76s.06.54.19.76.3.4.52.52c.22.13.47.19.75.19s.52-.06.75-.19zm3.75.79c-.39-.21-.69-.49-.91-.85s-.33-.77-.33-1.22.11-.86.33-1.22.52-.65.91-.85c.39-.21.83-.31 1.31-.31s.92.1 1.31.31.69.49.91.85.33.77.33 1.22-.11.86-.33 1.22-.53.65-.91.85c-.39.21-.82.31-1.31.31s-.92-.1-1.31-.31zm2.06-.79c.22-.13.4-.3.52-.52.13-.22.19-.48.19-.76s-.06-.54-.19-.76-.3-.4-.52-.52-.47-.19-.75-.19-.52.06-.75.19c-.22.13-.4.3-.52.52-.13.22-.19.48-.19.76s.06.54.19.76.3.4.52.52c.22.13.47.19.75.19s.52-.06.75-.19zm2.5-3.59h2.12c.51 0 .95.1 1.34.29s.69.46.91.81.32.75.32 1.21-.11.87-.32 1.21c-.22.35-.52.62-.91.81s-.84.29-1.34.29h-2.12v-4.61zm2.07 3.74c.47 0 .84-.13 1.12-.39s.42-.61.42-1.04-.14-.79-.42-1.04c-.28-.26-.65-.39-1.12-.39h-.99v2.86z" fill="#fff"/></svg>