<svg height="400pt" viewBox="-.2 0 400.4 400.4" width="400pt" xmlns="http://www.w3.org/2000/svg"><path d="m135 34v34h26l-.1-14.8c-.1-8.1-.4-13.6-.8-12.2-.5 2-1.4 2.6-4.4 2.8l-3.7.3v10.5c0 8.8-.3 10.6-1.6 11.1-3.8 1.4-4.9-.9-5.2-11.6l-.3-10.1h-3.9c-4.9 0-5.4-1.5-4.3-11.5l.8-7 3.8.3 3.7.3v-11.6c0-6.4.4-11.5.9-11.5s2.1.4 3.5 1c2.6.9 2.6 1.1 2.6 11.5v10.5h3.9c2.2 0 4.2.5 4.4 1.2.3.7.6-5.1.6-13l.1-14.2h-26zm35.5-6c-1 1.1-2.1 3.9-2.6 6.2-.8 4.5-3.3 114.9-2.7 122.8l.3 4.5 3.3-4.4 3.2-4.4v-27.6c0-37.4 2.3-84.1 4.1-84.1 1.7 0 1.9 4.3.9 22-.5 10.2-1.3 37.2-1.6 60-.6 40.7.2 60 2.5 62.3 1.4 1.4 3.8-.7 6.1-5.3 2.4-4.7 11.6-31.5 12.4-36.2.8-4.5 2.1-5.5 3.6-2.8.8 1.6.8 3-.1 5.8-1.4 4.2-1.8 17.4-.6 21.4.9 3.5 2.2 3.5 4.3.3 1.5-2.2 1.5-3.4.4-10.4-1.3-7.8-1.3-7.9 2.3-19.7 3.5-11.4 6.6-23.1 18.3-68.9 6.2-24.1 7.6-34.1 5.1-37.9-2-2.9-7.8-4.1-14.7-2.9-3.8.7-4.8 1.4-6.2 4.3-.9 1.9-5.8 18.1-10.8 36-5.1 17.9-9.3 32.6-9.5 32.8-.1.1 0-13.6.3-30.5.6-40.9-.5-45.3-11.9-45.3-3.3 0-5.1.6-6.4 2zm95.8 25c-1.2.5-3 2.1-4 3.7-1.7 2.5-1.8 6.8-2.4 53.6-.7 55.6-.3 52.7-6.6 52.7h-3.3l-.1-12.3c-.6-62.7-1.5-94.5-2.8-96-1.5-1.9-8.1-2.3-11.1-.7-1.1.6-2.7 3.4-3.6 6.3-1.4 4.3-1.7 11.4-2.1 42.2l-.5 37 2.4-3.4c3.2-4.7 9.3-9.5 11.2-8.8 3.2 1.3 1.8 5.4-2.9 8.8-8.8 6.3-9.6 10.6-3.5 19.3 6.4 9.2 8.2 13.2 7.4 17.2-1.1 5.9-7.4 9.1-12.5 6.4-1.9-1-1.9-.4-1.9 32.2.1 46.5 1.2 70.3 3.5 75.2 3.8 8.1 10.8 8.6 13.3 1.1 1.6-4.9 3.4-45.4 2.5-58.1-.3-5-.3-11.2.1-13.7.7-4.6.8-4.7 4.5-4.7 2.1 0 4.3.6 4.8 1.2.6.8 1.1 14.2 1.2 33.6.2 32.1.9 42.1 3.2 44.8 1.3 1.6 6.6 1.8 10.3.4 1.7-.6 2.8-2.1 3.6-4.7 1.7-6.1 2.8-88.7 2.1-162-.6-65.5-.7-67.3-2.6-69.2-2.4-2.4-7.1-3.4-10.2-2.1zm120 1.1c-3.5 1.3-4.4 6.8-5.5 35.1-.6 14.8-1.3 26.6-1.5 26.4-1-1-8.6-28.3-11.8-42.6-2.4-10.8-4.2-16.9-5.3-17.8-1-.8-3.7-1.2-6.7-1-4.9.3-5 .4-6.3 4.3-2.7 8.2-5.6 109.6-5.1 176.5.4 46.5.4 46.5 2.8 51.3 2.1 4.3 6.1 7.7 9 7.7.5 0 2.3-1.1 3.9-2.5 2.6-2.2 3.1-3.5 3.7-8.8.4-3.5 1-37.8 1.4-76.2.4-38.5 1-69.3 1.3-68.5s3 11.2 5.9 23l5.4 21.5.5 49.5c.5 49.5.5 49.5 2.9 54.3 2.2 4.4 6.1 7.7 9.3 7.7.7 0 2.5-1.1 4-2.5 3.4-3.1 3.4-3.5 4.8-70 1.2-62.7.7-159.7-.9-163.7-1-2.6-1.9-3-8.1-4.2-.9-.2-2.5.1-3.7.5zm-78.5 1.6c-1.4.9-3.1 2.7-3.7 4.1-2.1 4.6-7.6 56-11.1 104.2-1.3 18.1-3.2 37-7.1 71.5-3.7 32.5-4.2 49.8-1.7 53.7 2 3.1 7.6 4.6 11.7 3.2 3.8-1.3 5.8-6.5 7.6-19.9 2.3-16.6 2.3-16.7 8.7-16.3 6.3.4 6.6.9 6.7 14.5.2 21.1 5.4 28.6 15.2 22 5.9-3.9 6.4-6.2 6.2-25.2 0-9.4-.8-26.5-1.7-38-.8-11.6-1.8-26.4-2.1-33-.4-6.6-1.5-22.4-2.6-35-1-12.7-2.6-33.6-3.4-46.5-3.2-50.4-3.7-54.2-7.8-58.8-2.5-2.8-10.7-3-14.9-.5zm6.8 122c.4 7.1.8 18 .8 24.3l.1 11.5h-3.5c-2.7 0-3.6-.5-3.9-2-.5-2.9 4.1-46.5 5-46.5.4 0 1 5.7 1.5 12.7zm-310.3-119.6c-3.6 4-4.5 10.3-4.1 29.1.4 20.9.7 21.8 8 21.8h5.1l-.8 77.2c-.7 81.2-.3 92.9 3.3 97.8 4.9 6.6 11.5 5.6 14.7-2.2 2.1-5.4 2.3-11 3.1-100.3.3-39.1.7-72.1.8-73.5.2-2.3.7-2.5 6.4-2.8 5.2-.2 6.4-.7 7.4-2.5 1.8-3.3 2.3-34.1.6-39.2-1.8-5.6-5.4-6.6-25.8-7.2-16.4-.5-16.5-.5-18.7 1.8zm54.4 19.9c-4.2 3.3-6 16.4-11.2 82-1.4 17.3-3.9 43.6-5.5 58.5-5.5 48.6-5.3 55.8 1.6 57.1 5.9 1.1 8.1-.1 9.8-5.3.8-2.7 2-8.4 2.6-12.8 1.8-13.4 1.4-12.7 6.8-12.3l4.7.3.8 11.5c1.2 18.6 4.3 23.7 11.9 19.3 6.2-3.5 7-6.8 6.4-23.8-.8-20.7-3.3-59.3-5.6-88-1.1-13.2-2.5-31.4-3-40.5-2.3-38-2.9-42.4-6.1-45.9-2.7-2.8-9.6-2.9-13.2-.1zm6.8 115.2.8 16.8h-6.3v-7.3c0-3.9.7-12.6 1.5-19.2.8-6.5 1.6-12.6 1.6-13.5.4-4.8 1.8 8.9 2.4 23.2zm28.5-115.9-3.5 1.2-.3 8c-.2 5.8 1.3 18.8 5.6 47.5l5.9 39.5-2.8 21c-1.6 11.5-4.3 30.9-5.9 43-3.7 27.3-3.9 31.4-1.7 34.9 3.4 5.1 14.7 2.5 16.6-3.9.5-1.6 1.7-7.4 2.7-12.8s2.1-9.2 2.5-8.5 1.7 5.7 2.9 11c1.2 5.4 2.5 10 2.9 10.2.4.3 3.4.1 6.6-.3 7.8-1.1 9.5-3.1 9.5-11.7 0-3.5-2.5-23.5-5.6-44.6l-5.5-38.2 3.6-24c4.6-31.1 8.5-61 8.5-65.3 0-5.4-3.9-8.3-11.1-8.3h-5.8l-1.5 7.2c-.8 4-2 10.7-2.7 14.8-.6 4.1-1.3 8.2-1.6 9s-1.8-5.4-3.4-13.9c-1.6-8.9-3.3-15.8-4.1-16.2-1.8-1.2-7.7-1-11.8.4zm58.5.2c-.5.2-3.1.6-5.7 1-4.1.5-4.8 1-5.8 3.8-2.4 7-5.1 106.3-4.1 154.7.5 26.6.8 30.9 2.4 33.8 2.3 4.3 5.8 5.9 9.3 4.4 4.9-2.3 5.2-4.7 6.3-49.9.6-23.2 1.1-43.7 1.1-45.7 0-3.3-.2-3.6-2.8-3.6-1.7 0-3.7-.9-4.8-2.1-1.9-2.1-1.9-2.1-2.6 3.2-.3 3-.6 23.4-.7 45.3-.1 32-.4 39.8-1.3 38.8-1-1-1.4-16.4-1.6-68.5-.2-37 0-69.1.3-71.5 1.3-9 2.5-2.4 2.6 14.1v17.2l1.9-4.8c2.8-6.8 4.9-9.7 7.1-9.7 1.8 0 1.9-1.3 1.9-28.8 0-28.7-.4-32.6-3.5-31.7z"/><path d="m152.5 146.2c-1.5 2.2-4.6 11.2-5.9 17.4-.7 2.9-.4 3.3 2.6 4.3 2.9 1.1 3.5.9 5.1-1 1.4-1.7 1.7-4.1 1.7-12.5 0-5.9-.4-10.4-.9-10.4-.6 0-1.7 1-2.6 2.2zm78.1 10.5c-.3.3-.6 4.2-.6 8.5v7.8h2.9c3.7 0 8.1-1.6 8.1-2.9 0-1.6-9.7-14.1-10.4-13.4zm-36.6 3.6c0 6.6-7.9 27.7-11.4 30.6-4.3 3.6-8.4-4.2-10-19.2l-1.1-10.9-3.3 5.1-3.3 5.1.3 60.7.3 60.8 2.4 5.4c3.2 7 6.7 9.2 12.2 7.8 7.5-1.9 7.3-.9 7.9-47.2.3-22.5.8-40.3 1.2-39.5s3.4 15 6.7 31.5c6.9 34.5 12.3 58.5 21.6 94.5 3.6 14 8 31.1 9.7 38 4 15.7 5.4 17.4 13.7 16.8 3.2-.2 7-1.2 8.5-2.1 4.5-3 3.8-7.8-8.9-61.7-2.4-10.2-5.3-23.9-6.5-30.5-3.1-17.4-6.7-35.2-10.1-50-1.6-7.2-4.7-22.7-6.9-34.5-3.4-19.1-8.2-42-9.6-45.9-.3-1.1-.9-1-2.5.5-1.5 1.4-2.4 1.6-3.7.8-2.1-1.3-5.1-9.7-5.2-14.7 0-2-.4-3.7-1-3.7-.5 0-1 1-1 2.3z"/></svg>