<svg height="276" width="2500" xmlns="http://www.w3.org/2000/svg" viewBox="0 -0.0029999999999983373 335.99 37.14"><g fill="#0050ff"><path d="M126.21.391v35.513h-6.92V21.06h-12.534v14.841H99.75V.391h7.006v14.144h12.534V.391zM133.177 18.235c0-11.838 5.005-18.148 14.057-18.148s13.97 6.4 13.97 18.278c0 11.62-4.917 17.844-13.97 17.844s-14.057-6.311-14.057-17.974zm20.8 0c0-8.225-2.873-11.49-6.746-11.49s-6.833 2.219-6.833 11.49c0 9.1 2.959 11.315 6.833 11.315s6.749-2.089 6.749-11.315zM189.148 29.376v6.528h-20.542V.391h7.007v28.985zM195.722.391h9.4c10.271 0 16.581 6.267 16.581 17.8 0 11.838-6.441 17.714-16.581 17.714h-9.4zm9.4 28.9c5.614 0 9.27-2.133 9.27-11.054 0-8.879-3.656-11.229-9.27-11.229h-2.524v22.283zM228.844.391h7.138v35.513h-7.138zM271.279.391v35.513h-6.746L251.172 13.06v22.849h-6.925V.391h6.746l13.536 22.805V.391zM278.679 17.539c0-10.88 5.44-17.452 14.884-17.452 6.18 0 10.357 3.047 11.925 7.529l-6.442 2.785a5.788 5.788 0 0 0-5.657-3.569c-4.265 0-7.355 2.611-7.355 10.445 0 10.315 3.351 12.4 7.529 12.4 3.786 0 5.962-2.568 6.093-7.312h-6.572v-6.611h13.709a36.341 36.341 0 0 1 .13 3.917c0 10.009-4.352 16.538-13.534 16.538-9.357.001-14.71-5.962-14.71-18.67zM312.672 28.373l6.571-2.873c1.132 2.742 2.785 3.961 5.353 3.961a3.991 3.991 0 0 0 4.221-3.831c0-2.568-1.784-3.7-5.353-4.743-6.006-1.741-10.1-5.615-10.1-11.011 0-5.876 4.7-9.879 10.88-9.879 6.658 0 9.487 3.7 10.836 7.094l-6.31 2.7a4.883 4.883 0 0 0-4.483-3.264 3.6 3.6 0 0 0-3.786 3.307c0 2.568 1.523 3.96 5 4.961 5.963 1.7 10.489 5.135 10.489 10.75 0 6.049-5.266 10.663-11.751 10.663-5.475.001-9.566-2.654-11.567-7.835zM53.436 25.32a10.706 10.706 0 0 0-3.066-7.52l-.033-.033.031-.036A10.53 10.53 0 0 0 42.34.393H30.415v35.718H42.66A10.8 10.8 0 0 0 53.436 25.32zM37.214 7.061h5.119a3.845 3.845 0 1 1 0 7.689h-5.119zm-.018 22.535v-8.4h5.434a4.2 4.2 0 1 1 0 8.4zM24.163.391H0v6.846h8.466v29.9l7.23-3.129V7.238h8.466zM74.881 25.973a4.024 4.024 0 0 1-4.253 3.881c-2.513 0-4.241-1.242-5.285-3.8l-.083-.2-6.631 2.87.073.193c1.895 4.968 6.014 7.7 11.6 7.7a11.806 11.806 0 0 0 8.785-3.512 10.513 10.513 0 0 0 3.024-7.192 9.319 9.319 0 0 0-3.765-7.566 19.678 19.678 0 0 0-6.8-3.271c-3.5-1.013-5.017-2.395-5.017-4.971a3.636 3.636 0 0 1 3.8-3.34 4.921 4.921 0 0 1 4.52 3.3l6.317-2.721C79.841 3.944 76.984.186 70.301.186a11.317 11.317 0 0 0-7.967 2.911 9.568 9.568 0 0 0-2.973 7.034 10.2 10.2 0 0 0 2.874 7.021c1.33 1.423 3.872 2.991 7.844 4.242 2.362.766 4.802 1.558 4.802 4.579z"/></g></svg>