<svg viewBox="0 -0.9128139915857574 516.7800000000002 69.9556279831715" xmlns="http://www.w3.org/2000/svg" xmlns:xlink="http://www.w3.org/1999/xlink" width="2500" height="343"><linearGradient id="a" gradientUnits="userSpaceOnUse" x1="47.12" x2="18.77" y1="4.11" y2="53.21"><stop offset="0" stop-color="#f0a"/><stop offset=".33" stop-color="#0af"/><stop offset=".65" stop-color="#ff0"/><stop offset="1" stop-color="#f0a"/></linearGradient><linearGradient id="b" x1="99.59" x2="14.59" xlink:href="#a" y1="40.34" y2="40.34"/><linearGradient id="c" x1="29.14" x2="71.64" xlink:href="#a" y1="-3.4" y2="39.1"/><path d="M127.14 0H87.63a.69.69 0 0 0-.69.68v7.5h16.36v60h8.17v-60h16.35V.68a.68.68 0 0 0-.68-.68zM167.34 46.33v1.36a12.27 12.27 0 1 1-24.53 0V20.44a12.27 12.27 0 0 1 24.53 0v1.36h8.18v-1.36a20.44 20.44 0 1 0-40.88 0v27.25a20.44 20.44 0 1 0 40.88 0v-1.36zM215.29 32.32a16.28 16.28 0 0 0 3.83-10.52v-5.45A16.35 16.35 0 0 0 202.77 0h-16.35v68.13h20.44a16.35 16.35 0 0 0 16.35-16.35v-5.45a16.32 16.32 0 0 0-7.92-14.01zm-20.7-24.14h8.18a8.17 8.17 0 0 1 8.23 8.17v5.45a8.18 8.18 0 0 1-8.23 8.2h-8.18zM215 51.78a8.17 8.17 0 0 1-8.14 8.22h-12.27V38.15h12.27a8.17 8.17 0 0 1 8.14 8.18z" fill="#040000"/><g fill="#070303"><path d="M261.82 24.34q0 3.72.14 7.63c0 .45 0 1.18.08 2.2v.73a.21.21 0 0 1-.24.24h-1.3a.21.21 0 0 1-.24-.24c0-.06 0-.61.05-1.66q.14-4.58.15-8.76a25 25 0 0 1-6.42 5.93 37.22 37.22 0 0 1-7 3.45 1.52 1.52 0 0 1-.42.13c-.12 0-.25-.15-.4-.46a3.09 3.09 0 0 0-.72-.94 29.55 29.55 0 0 0 13.92-8.82h-3.88l-4.9.07c-.16 0-.24-.08-.24-.25l.07-3.52V15l-.07-3.5c0-.17.08-.25.24-.25l4.9.07h4.83V7.66h-9.25l-4.45.07a.23.23 0 0 1-.25-.26V6.31a.23.23 0 0 1 .25-.26l4.45.07h9.25v-.18a27.37 27.37 0 0 0-.23-4.31 12.67 12.67 0 0 1 1.81.15c.27.05.41.15.41.31a1 1 0 0 1-.08.38c-.07.16-.11.27-.13.33a14.16 14.16 0 0 0-.2 3.14v.18H272l4.46-.07c.16 0 .24.09.24.26v1.16c0 .17-.08.26-.24.26L272 7.66h-10v3.63h5.48l4.94-.07c.15 0 .23.08.23.25l-.07 3.5v5.1l.07 3.52c0 .17-.08.25-.23.25l-4.94-.07h-4.66q5.54 5.88 15.22 8.78a3.23 3.23 0 0 0-.79 1.06c-.15.31-.28.47-.38.47a1.47 1.47 0 0 1-.39-.11q-9.67-3.46-14.66-9.63zm-1.44-7.72v-3.87H252v3.87zm0 1.42H252v4.31h8.39zm1.62-1.42h9v-3.87h-9zm0 1.38v4.31h9V18zM281.11 31.73a22.87 22.87 0 0 0 6.14-5.53 6.33 6.33 0 0 0 .95-2.2 12.22 12.22 0 0 1 1.51.89.52.52 0 0 1 .26.42c0 .15-.11.3-.33.44a4.82 4.82 0 0 0-.9 1 20.34 20.34 0 0 1-5.86 5.79 1 1 0 0 1-.42.22c-.11 0-.26-.13-.46-.37a2.54 2.54 0 0 0-.89-.66zm13.7-25V5.65a20.59 20.59 0 0 0-.24-3.89 10.66 10.66 0 0 1 1.84.18c.26 0 .39.13.39.26a2.71 2.71 0 0 1-.2.71 11.2 11.2 0 0 0-.19 2.74v1.08h9.22l4.6-.08c.16 0 .24.09.24.26v1.24c0 .17-.08.25-.24.25l-4.6-.07h-19.42l-4.58.07a.22.22 0 0 1-.25-.25V6.91c0-.17.08-.26.25-.26l4.58.08zm-3.66 5.45h9.25l4.73-.07c.16 0 .23.08.23.25l-.06 2.92v3.14l.06 3c0 .17-.07.26-.23.26l-4.73-.08h-3.75v5.2l.07 4.51a3.2 3.2 0 0 1-.82 2.47 5.29 5.29 0 0 1-3.35.76h-1.07a1 1 0 0 1-.52-.07 1.8 1.8 0 0 1-.17-.53 3.82 3.82 0 0 0-.58-1.29 25.43 25.43 0 0 0 3.09.18 1.7 1.7 0 0 0 1.44-.48A2.35 2.35 0 0 0 295 31v-9.44h-3.86l-4.74.08c-.15 0-.23-.09-.23-.26l.06-3v-3.1l-.06-2.92c0-.17.08-.25.23-.25zM287.78 20h16v-6.28h-16zm23.07 11.52a3.32 3.32 0 0 0-.82 1c-.17.31-.29.46-.38.46a1 1 0 0 1-.42-.24 29.46 29.46 0 0 1-7.33-7.59.34.34 0 0 1-.08-.18c0-.06.09-.16.28-.29l.52-.35a1 1 0 0 1 .37-.17c.05 0 .12.05.18.15a24.3 24.3 0 0 0 7.68 7.2zM326.93 22.53h-9.6v2.21c0 .17-.08.25-.24.25h-1.17c-.16 0-.23-.08-.23-.25l.06-6.92v-3.41l-.06-4.6c0-.17.07-.26.23-.26l4.9.08h6.11V6.49a32.22 32.22 0 0 0-.24-4.78 15.31 15.31 0 0 1 1.88.18c.23.05.35.15.35.29s-.05.25-.14.64a17.35 17.35 0 0 0-.21 3.52v3.29h6.72l4.9-.08c.16 0 .24.09.24.26l-.07 4.12v3.78l.07 6.88c0 .17-.08.26-.24.26H339c-.15 0-.23-.09-.23-.26v-2.06h-10.2v5.68l.06 6.69c0 .17-.07.26-.23.26h-1.31c-.15 0-.23-.09-.23-.26l.07-6.66zm0-1.57v-9.73h-9.6V21zm1.64 0h10.22v-9.73h-10.22zM362.73 21.29a20.66 20.66 0 0 0 6.1 7.66 28.64 28.64 0 0 0 8.17 4.18 5.05 5.05 0 0 0-.82 1.14c-.16.31-.28.47-.38.47a1.44 1.44 0 0 1-.44-.15 28 28 0 0 1-9-5.58 21.18 21.18 0 0 1-4.85-7.26q-.29 1-.45 1.53-2.71 7.72-12.65 11.55a1.48 1.48 0 0 1-.39.11c-.09 0-.22-.16-.4-.49a3.3 3.3 0 0 0-.9-1Q357 30 359.56 22.6c.17-.5.3-.93.39-1.31h-8.77l-4.46.07c-.16 0-.24-.09-.24-.29V19.9c0-.17.08-.25.24-.25l4.46.07h.1v-6.79l-.06-3.56c0-.17.07-.25.23-.25l4.87.07h4.52v-3a27.56 27.56 0 0 0-.24-4.29 10.9 10.9 0 0 1 1.84.22q.42.12.42.33a1.29 1.29 0 0 1-.08.4 1.56 1.56 0 0 0-.12.34 12.53 12.53 0 0 0-.22 3v3h4.77l4.85-.07a.22.22 0 0 1 .25.25l-.07 3.52v6.83l4.42-.07c.16 0 .23.08.23.25v1.17c0 .2-.07.29-.23.29l-4.45-.07zm-2.48-1.57a54.2 54.2 0 0 0 .59-9h-7.95v9zm10.39 0v-9h-8.2a69 69 0 0 1-.58 9zM398.62 24.7q3.94 7.14 14.6 8.82a2.84 2.84 0 0 0-.75 1c-.14.36-.29.54-.43.54a1.94 1.94 0 0 1-.37-.05q-10.35-2.25-14.14-9.78a12.4 12.4 0 0 1-3.84 5.56 21.18 21.18 0 0 1-9.39 4.22 2.4 2.4 0 0 1-.38.07c-.14 0-.27-.16-.4-.47a3.21 3.21 0 0 0-.72-1.06q6.45-1.1 10-4a10.81 10.81 0 0 0 3.32-4.86h-7.31l-4.65.08c-.15 0-.23-.09-.23-.26v-1.12c0-.17.08-.26.23-.26l4.65.08h7.68a5.1 5.1 0 0 0 .14-.75 11.23 11.23 0 0 0 .15-1.72 7.27 7.27 0 0 0-.09-1.13c.53.06 1 .14 1.54.24s.52.22.52.4a3.58 3.58 0 0 1-.23.6 8.92 8.92 0 0 0-.39 1.83l-.06.53h9.11l4.7-.08c.16 0 .24.09.24.26v1.13c0 .17-.08.26-.24.26l-4.7-.08zm-1.74-16.37h-6.57l-4.84.07c-.15 0-.23-.08-.23-.25V7c0-.17.08-.26.23-.26l4.84.08h10.07c.63-1.09 1.25-2.26 1.84-3.53a6.53 6.53 0 0 0 .48-1.57 7.53 7.53 0 0 1 1.47.57c.2.13.31.26.31.38a.53.53 0 0 1-.27.44 2 2 0 0 0-.59.71 23.54 23.54 0 0 1-1.77 3h3.8l4.83-.08c.16 0 .23.09.23.26v1.15c0 .17-.07.25-.23.25l-4.83-.07h-7.23V12h5.39l4.85-.08a.23.23 0 0 1 .25.26v1.09a.23.23 0 0 1-.25.26l-4.85-.07h-5.39v4H408l4.57-.08c.15 0 .23.09.23.26v1.13c0 .17-.08.26-.23.26l-4.57-.17h-20l-4.56.08c-.16 0-.24-.09-.24-.26v-1.13c0-.17.08-.26.24-.26l4.56.08h8.9v-4H392l-4.86.07c-.14 0-.2-.09-.2-.26v-1.05c0-.17.06-.26.2-.26L392 12h4.87zM392.28 2a20 20 0 0 1 2.18 3.32.37.37 0 0 1 .05.16c0 .1-.08.19-.24.28l-.62.38a1.57 1.57 0 0 1-.43.22q-.08 0-.15-.18a13.29 13.29 0 0 0-2-3.4.35.35 0 0 1-.12-.22c0-.09.11-.2.32-.31l.52-.25a.73.73 0 0 1 .33-.15c.03.02.09.07.16.15zM441.27 22.82V23l-.06 3.23v2.88l.06 5.9c0 .18-.07.27-.23.27h-1.1a.24.24 0 0 1-.27-.27v-1.9H426v2.13c0 .15-.08.22-.25.22h-1.15c-.16 0-.24-.07-.24-.22l.05-6v-2.6l-.06-3.71a44.2 44.2 0 0 1-5 3 1.49 1.49 0 0 1-.43.17c-.1 0-.24-.15-.42-.46a2.83 2.83 0 0 0-.75-.89q9.23-4.23 13.21-10.06a9.73 9.73 0 0 0 1.34-2.35 11.86 11.86 0 0 1 1.6.44c.26.11.39.23.39.38s-.08.21-.23.29l-.19.11q4.89 7.14 14.44 11a3.36 3.36 0 0 0-.76 1.09c-.13.33-.25.5-.35.5a1.21 1.21 0 0 1-.37-.17 53 53 0 0 1-5.56-3.16zM431.82 5.9v-.32a19.11 19.11 0 0 0-.25-3.89l1 .07.75.07q.42.06.42.3a2.17 2.17 0 0 1-.22.67 12.08 12.08 0 0 0-.16 2.74v.36h8l4.78-.07c.17 0 .25.09.25.26l-.06 1.71v1.35l.06 3.85c0 .17-.07.26-.23.26H445c-.16 0-.24-.09-.24-.26V7.44h-23.83V13c0 .17-.08.26-.25.26h-1.15c-.16 0-.24-.09-.24-.26l.06-3.85V8l-.06-1.91c0-.17.08-.26.24-.26l4.78.07zm-4.46 3.69a9.63 9.63 0 0 1 1.4.82c.21.17.32.31.32.42s-.16.29-.48.5a4.36 4.36 0 0 0-.92.93 23.53 23.53 0 0 1-5.63 4.74 1.23 1.23 0 0 1-.41.18c-.09 0-.21-.14-.37-.42a3.9 3.9 0 0 0-.8-.85 19 19 0 0 0 5.65-4.29 5 5 0 0 0 1.24-2.03zm13.75 13.12a33.84 33.84 0 0 1-3.06-2.28 26.77 26.77 0 0 1-5.14-5.82 30.31 30.31 0 0 1-8.21 8.1l4.41.08h7.43zM426 31.55h13.7v-7.23H426zm19.79-15.83a3 3 0 0 0-.69 1.06c-.12.29-.23.44-.32.44a1.31 1.31 0 0 1-.4-.18A24.6 24.6 0 0 1 437 11a.27.27 0 0 1-.07-.17s.1-.17.3-.36l.52-.4a.29.29 0 0 1 .2-.11.24.24 0 0 1 .17.09 21.79 21.79 0 0 0 7.64 5.67zM452.75 33.12a32.37 32.37 0 0 0 10.35-11.19 41.1 41.1 0 0 0-4.43-4.75c-.08-.06-.12-.11-.12-.16s.09-.19.27-.38l.4-.53c.1-.14.19-.2.25-.2a.31.31 0 0 1 .2.11 39 39 0 0 1 4.25 4.34 39.46 39.46 0 0 0 3.47-10.46h-6.8a37.71 37.71 0 0 1-6.5 10.35c-.16.19-.28.29-.35.29s-.24-.12-.41-.36a3 3 0 0 0-.82-.79 34.89 34.89 0 0 0 8.18-14.45 10.51 10.51 0 0 0 .52-2.81 8.47 8.47 0 0 1 1.61.56c.26.11.38.26.38.44a.67.67 0 0 1-.2.42 4.7 4.7 0 0 0-.62 1.45c-.42 1.33-.82 2.47-1.2 3.43h5.75a1.66 1.66 0 0 0 .76-.1.51.51 0 0 1 .33-.11c.2 0 .49.18.85.56s.49.54.49.66a1 1 0 0 1-.36.56l-.1.19a37.57 37.57 0 0 0 4.52 7.26V6.94a35.12 35.12 0 0 0-.21-4.94 11.65 11.65 0 0 1 1.8.18c.26 0 .39.15.39.29a.89.89 0 0 1-.07.29 2.24 2.24 0 0 0-.1.35 19.57 19.57 0 0 0-.23 3.76V19a36.16 36.16 0 0 0 9 6.17 4.2 4.2 0 0 0-.81 1c-.14.29-.26.44-.35.44a1.07 1.07 0 0 1-.4-.16 35.83 35.83 0 0 1-7.43-5.3v7.3l.07 6.5c0 .18-.08.27-.23.27h-1.24q-.24 0-.24-.27l.07-6.5v-8.7a34.11 34.11 0 0 1-5-7.56 39.87 39.87 0 0 1-5.37 12.87 36.65 36.65 0 0 1-8.5 9 1.13 1.13 0 0 1-.45.25c-.08 0-.21-.11-.38-.33a3.34 3.34 0 0 0-.99-.86zM494.17 14.83q0 6.65.13 14.4c0 1.08.05 2.53.08 4.36v1.39s-.08.25-.23.25h-1.31c-.15 0-.23-.08-.23-.25q.25-5.26.3-20.08a42.3 42.3 0 0 1-5.37 12.19c-.15.22-.25.33-.32.33s-.2-.12-.33-.36a2.84 2.84 0 0 0-.82-1 38 38 0 0 0 6.15-12.37H491l-3.9.07c-.13 0-.2-.09-.2-.27v-1.05c0-.17.07-.26.2-.26l3.9.08h1.79V6.42c-1.3.37-2.61.7-3.91 1a2.83 2.83 0 0 1-.39.08c-.13 0-.29-.17-.47-.52a2.7 2.7 0 0 0-.71-.85 27.38 27.38 0 0 0 8.84-2.78 6.84 6.84 0 0 0 1.26-.93 12.39 12.39 0 0 1 1.24 1 .92.92 0 0 1 .26.53q0 .27-.48.33a3.48 3.48 0 0 0-1.19.42 20.67 20.67 0 0 1-2.88 1.24v6.39h.76l3.91-.08c.16 0 .24.09.24.26v1.08q0 .27-.24.27l-3.91-.07h-.45a24.85 24.85 0 0 0 4.6 7.09 3.58 3.58 0 0 0-.72 1.12c-.12.25-.21.38-.29.38s-.17-.1-.3-.29a33.52 33.52 0 0 1-3.79-7.26zm17.91 7.92c1.28-.28 2.38-.55 3.28-.8l.7-.19.24-.05h.08c.1 0 .16.09.19.27l.21 1.25v.11q0 .13-.21.18l-.36.07c-1 .2-2.42.48-4.13.86v4l.07 6.46c0 .17-.08.26-.24.26h-1.23c-.16 0-.24-.09-.24-.26l.07-6.42v-3.7l-7.16 1.53-3.53.78-.74.19h-.35c-.06 0-.11-.09-.15-.26l-.23-1.2a.89.89 0 0 1 0-.11c0-.1.07-.16.22-.18 2.31-.42 3.83-.7 4.57-.86l7.39-1.64v-16a37.56 37.56 0 0 0-.23-4.93q1.07.06 1.74.15c.26 0 .4.16.4.33s0 .25-.14.64a20.34 20.34 0 0 0-.2 3.74zm-10.92-8c-.08-.05-.12-.1-.12-.17s.09-.21.25-.4l.42-.43c.11-.15.2-.22.27-.22a.38.38 0 0 1 .18.07A25.56 25.56 0 0 1 507 18a.42.42 0 0 1 .1.24c0 .06-.07.17-.22.32l-.43.53c-.19.23-.31.35-.37.35a.29.29 0 0 1-.18-.13 24.35 24.35 0 0 0-4.74-4.59zm.92-8.19a.19.19 0 0 1-.1-.15.85.85 0 0 1 .25-.4l.4-.5q.17-.18.27-.18a.42.42 0 0 1 .18.08 23.58 23.58 0 0 1 4.75 4.45.34.34 0 0 1 .1.2.56.56 0 0 1-.16.31l-.51.6c-.17.21-.29.31-.35.31s-.1 0-.16-.13a23.35 23.35 0 0 0-4.67-4.62zM303.74 61.19q2 3.42 7.46 4.23a1.28 1.28 0 0 0-.39.5c-.07.17-.14.26-.22.26h-.19c-3.52-.71-5.93-2.28-7.22-4.69a6 6 0 0 1-2 2.67 11.07 11.07 0 0 1-4.8 2h-.19c-.07 0-.14-.08-.21-.23a1.52 1.52 0 0 0-.37-.51 11 11 0 0 0 5.1-1.93 5.26 5.26 0 0 0 1.7-2.33h-6.11a.11.11 0 0 1-.12-.12v-.55a.11.11 0 0 1 .12-.12H302.6a2.59 2.59 0 0 0 .06-.36 4.29 4.29 0 0 0 .08-.83 3.27 3.27 0 0 0 0-.54l.78.11c.18 0 .27.11.27.2a1.66 1.66 0 0 1-.12.29 4 4 0 0 0-.2.87v.26H310.53a.11.11 0 0 1 .12.12v.55a.11.11 0 0 1-.12.12h-2.4zm-.89-7.87h-5.83a.11.11 0 0 1-.12-.12v-.55a.11.11 0 0 1 .12-.12H304.64c.32-.52.63-1.09.94-1.7a3 3 0 0 0 .24-.75 4.13 4.13 0 0 1 .76.27c.1.07.15.13.15.19a.26.26 0 0 1-.14.21.89.89 0 0 0-.3.34 11.86 11.86 0 0 1-.9 1.44h4.41a.11.11 0 0 1 .12.12v.55a.11.11 0 0 1-.12.12h-6.16v1.74h5.23c.08 0 .12 0 .12.13v.52c0 .08 0 .13-.12.13h-5.23v1.9h7.21a.11.11 0 0 1 .12.12v.54c0 .09 0 .13-.12.13h-14.88c-.08 0-.12 0-.12-.13v-.54a.11.11 0 0 1 .12-.12h6.88v-1.9H297.88c-.07 0-.11 0-.11-.13v-.52c0-.08 0-.13.11-.13H302.85zm-2.35-3a8.75 8.75 0 0 1 1.11 1.6.13.13 0 0 1 0 .08s0 .09-.12.13l-.32.18-.22.11s-.05 0-.08-.09a6.31 6.31 0 0 0-1-1.63.17.17 0 0 1-.06-.11s.05-.09.16-.15l.27-.12a.5.5 0 0 1 .17-.07.15.15 0 0 1 .09.04zM326.07 60.28v5.84c0 .09 0 .13-.12.13h-.56c-.09 0-.14 0-.14-.13v-.91h-7v1c0 .07 0 .11-.13.11h-.57c-.08 0-.12 0-.12-.11V60.34a22.26 22.26 0 0 1-2.57 1.43.58.58 0 0 1-.22.08c-.05 0-.12-.07-.21-.22a1.56 1.56 0 0 0-.39-.43 15.73 15.73 0 0 0 6.75-4.83 4.64 4.64 0 0 0 .69-1.13 7.51 7.51 0 0 1 .82.21c.13.06.19.12.19.19s0 .1-.12.14h-.09a15.68 15.68 0 0 0 7.37 5.28 1.52 1.52 0 0 0-.38.52q-.11.24-.18.24a.68.68 0 0 1-.19-.08 27.89 27.89 0 0 1-2.83-1.46zm-4.83-8.12V52a9.43 9.43 0 0 0-.12-1.87h.91c.14 0 .21.07.21.14a.86.86 0 0 1-.11.33 5.82 5.82 0 0 0-.08 1.31v.18H328.58c.09 0 .13 0 .13.13V55.54a.11.11 0 0 1-.12.12H328a.11.11 0 0 1-.12-.12v-2.65h-12.2v2.68c0 .08 0 .12-.13.12H315a.11.11 0 0 1-.12-.12V52.25c0-.09 0-.13.12-.13h2.45zM319 53.93a4.31 4.31 0 0 1 .72.39c.11.09.16.15.16.21s-.08.13-.25.23a2.87 2.87 0 0 0-.47.45 11.64 11.64 0 0 1-2.87 2.28.67.67 0 0 1-.21.09c-.05 0-.11-.07-.19-.21a2 2 0 0 0-.41-.41 9.59 9.59 0 0 0 2.89-2.06 2.36 2.36 0 0 0 .63-.97zm7 6.3a15.05 15.05 0 0 1-1.57-1.1 13.1 13.1 0 0 1-2.62-2.79 15.16 15.16 0 0 1-4.2 3.89h6.05zm-7.74 4.24h7V61h-7zm10.11-7.6a1.49 1.49 0 0 0-.35.51c-.06.14-.12.21-.16.21a.67.67 0 0 1-.21-.09 12.49 12.49 0 0 1-3.74-2.9.16.16 0 0 1 0-.08s.05-.09.15-.18l.27-.19a.14.14 0 0 1 .1 0 .09.09 0 0 1 .08 0 11.21 11.21 0 0 0 3.85 2.72zM332.48 65.23a16 16 0 0 0 5.29-5.38 20.27 20.27 0 0 0-2.27-2.27s-.06-.06-.06-.08.05-.09.14-.19l.2-.25c.05-.07.1-.1.13-.1a.23.23 0 0 1 .1 0 20.09 20.09 0 0 1 2.17 2.09 17.79 17.79 0 0 0 1.77-5h-3.47a17.79 17.79 0 0 1-3.32 5c-.08.09-.14.14-.18.14s-.12-.06-.2-.18a1.74 1.74 0 0 0-.42-.37 16.66 16.66 0 0 0 4.18-7 5 5 0 0 0 .26-1.35 4.64 4.64 0 0 1 .82.28c.13.05.2.12.2.21a.34.34 0 0 1-.11.2 2.06 2.06 0 0 0-.31.68c-.22.64-.42 1.19-.62 1.65h2.94a1 1 0 0 0 .39 0 .27.27 0 0 1 .17-.06.74.74 0 0 1 .43.28c.17.15.25.25.25.31a.42.42 0 0 1-.17.27l-.05.09a17.33 17.33 0 0 0 2.31 3.49v-5a15.34 15.34 0 0 0-.12-2.37 6.1 6.1 0 0 1 .92.09c.13 0 .2.07.2.14a.33.33 0 0 1 0 .14 1 1 0 0 0-.05.17 8.94 8.94 0 0 0-.11 1.79v5.81a18.77 18.77 0 0 0 4.59 3 1.83 1.83 0 0 0-.41.5q-.11.21-.18.21a.84.84 0 0 1-.21-.08 18.79 18.79 0 0 1-3.79-2.54v6.57c0 .09 0 .13-.11.13h-.64c-.08 0-.12 0-.12-.13V58.8a16.31 16.31 0 0 1-2.56-3.63 17.49 17.49 0 0 1-7.08 10.5.82.82 0 0 1-.23.13s-.11-.06-.2-.16a1.64 1.64 0 0 0-.47-.41zM354.88 56.44c0 2.13 0 4.44.07 6.92v2.76a.11.11 0 0 1-.12.12h-.67a.11.11 0 0 1-.12-.12c.09-1.68.14-4.9.16-9.64a19.76 19.76 0 0 1-2.75 5.85c-.07.11-.13.16-.16.16s-.1-.06-.17-.17a1.28 1.28 0 0 0-.42-.47 18.15 18.15 0 0 0 3.15-5.94h-2.65c-.06 0-.1 0-.1-.13v-.48c0-.09 0-.13.1-.13h2.91V52.4c-.67.19-1.33.34-2 .47h-.2q-.09 0-.24-.24a1.22 1.22 0 0 0-.36-.41 14.56 14.56 0 0 0 4.52-1.34 3.63 3.63 0 0 0 .64-.44 6.63 6.63 0 0 1 .63.46.45.45 0 0 1 .14.26c0 .08-.08.14-.25.15a2.1 2.1 0 0 0-.61.21 11 11 0 0 1-1.47.59v3.07h2.39c.08 0 .12 0 .12.13v.51c0 .09 0 .13-.12.13h-2.23a12 12 0 0 0 2.35 3.41 1.75 1.75 0 0 0-.37.53L357 60s-.09 0-.16-.14a15.39 15.39 0 0 1-1.96-3.42zm9.12 3.81c.66-.14 1.21-.27 1.68-.39l.35-.09H366.2s.08 0 .09.13l.11.6v.05s0 .08-.11.09h-.18c-.53.1-1.24.23-2.11.41v5.05c0 .09 0 .13-.12.13h-.64c-.08 0-.12 0-.12-.13v-4.88l-3.66.74-1.8.37a2.31 2.31 0 0 1-.38.09h-.18s-.06 0-.08-.13l-.12-.57v-.02s0-.07.11-.09c1.18-.19 1.95-.33 2.33-.41l3.78-.79v-7.68a16.45 16.45 0 0 0-.12-2.37c.36 0 .66 0 .89.07s.2.08.2.16a2.46 2.46 0 0 1-.07.31 9.85 9.85 0 0 0-.1 1.79zm-5.58-3.86a.09.09 0 0 1-.06-.08s0-.1.13-.19l.21-.21c.06-.07.11-.11.14-.11h.09a12.57 12.57 0 0 1 2.52 2.2.28.28 0 0 1 .05.12s0 .08-.11.15l-.22.26c-.1.11-.16.16-.19.16s-.05 0-.09-.06a12.82 12.82 0 0 0-2.44-2.24zm.47-3.93s-.05-.05-.05-.07 0-.1.13-.2l.2-.23a.26.26 0 0 1 .14-.09h.09a12.44 12.44 0 0 1 2.46 2.13.23.23 0 0 1 .05.1.36.36 0 0 1-.08.15l-.26.29q-.13.15-.18.15s-.05 0-.09-.06a11.13 11.13 0 0 0-2.38-2.17zM373.11 56.77a1.29 1.29 0 0 1 1 .46 1.4 1.4 0 0 1 .35.94 1.38 1.38 0 0 1-.45 1 1.28 1.28 0 0 1-.92.37 1.33 1.33 0 0 1-1-.47 1.41 1.41 0 0 1-.36-.95 1.35 1.35 0 0 1 .46-1 1.32 1.32 0 0 1 .92-.35zM387 61.19q2 3.42 7.46 4.23a1.28 1.28 0 0 0-.39.5c-.07.17-.14.26-.22.26h-.19c-3.52-.71-5.93-2.28-7.22-4.69a6 6 0 0 1-2 2.67 11.07 11.07 0 0 1-4.8 2h-.19c-.07 0-.14-.08-.21-.23a1.52 1.52 0 0 0-.37-.51 11 11 0 0 0 5.1-1.93 5.26 5.26 0 0 0 1.7-2.33h-6.11a.11.11 0 0 1-.12-.12v-.55a.11.11 0 0 1 .12-.12H385.86a2.59 2.59 0 0 0 .06-.36 5.26 5.26 0 0 0 .08-.83 3.27 3.27 0 0 0 0-.54l.78.11c.18 0 .27.11.27.2a1.66 1.66 0 0 1-.12.29 4 4 0 0 0-.2.87v.26H393.79a.11.11 0 0 1 .12.12v.55a.11.11 0 0 1-.12.12h-2.4zm-.89-7.87h-5.83a.11.11 0 0 1-.12-.12v-.55a.11.11 0 0 1 .12-.12H387.9c.32-.52.63-1.09.94-1.7a3 3 0 0 0 .24-.75 3.76 3.76 0 0 1 .75.27c.11.07.16.13.16.19a.26.26 0 0 1-.14.21.89.89 0 0 0-.3.34 11.86 11.86 0 0 1-.9 1.44h4.41a.11.11 0 0 1 .12.12v.55a.11.11 0 0 1-.12.12h-6.16v1.74h5.23c.08 0 .12 0 .12.13v.52c0 .08 0 .13-.12.13h-5.23v1.9h7.21a.11.11 0 0 1 .12.12v.54c0 .09 0 .13-.12.13h-14.92c-.08 0-.12 0-.12-.13v-.54a.11.11 0 0 1 .12-.12h6.88v-1.9H381.1c-.07 0-.11 0-.11-.13v-.52c0-.08 0-.13.11-.13H386.07zm-2.35-3a9.27 9.27 0 0 1 1.11 1.6.13.13 0 0 1 0 .08s0 .09-.12.13l-.32.18a1.27 1.27 0 0 1-.22.11s-.05 0-.08-.09a6.31 6.31 0 0 0-1-1.63.17.17 0 0 1-.06-.11s.05-.09.16-.15l.27-.12a.5.5 0 0 1 .17-.07s.01 0 .05.04zM409.29 60.28v5.84c0 .09 0 .13-.12.13h-.56c-.09 0-.14 0-.14-.13v-.91h-7v1c0 .07 0 .11-.13.11h-.57c-.08 0-.12 0-.12-.11V60.34a22.26 22.26 0 0 1-2.57 1.43.58.58 0 0 1-.22.08c-.05 0-.12-.07-.21-.22a1.56 1.56 0 0 0-.39-.43 15.73 15.73 0 0 0 6.74-4.83 4.64 4.64 0 0 0 .69-1.13 7.51 7.51 0 0 1 .82.21c.13.06.19.12.19.19s0 .1-.12.14h-.09a15.68 15.68 0 0 0 7.37 5.28 1.52 1.52 0 0 0-.38.52q-.11.24-.18.24a.68.68 0 0 1-.19-.08 27.89 27.89 0 0 1-2.82-1.46zm-4.83-8.12V52a9.43 9.43 0 0 0-.12-1.87h.91c.14 0 .21.07.21.14a.86.86 0 0 1-.11.33 5.23 5.23 0 0 0-.08 1.31v.18H411.8c.09 0 .13 0 .13.13V55.54a.11.11 0 0 1-.12.12h-.6a.11.11 0 0 1-.12-.12v-2.65H398.9v2.68c0 .08 0 .12-.13.12h-.59a.11.11 0 0 1-.12-.12V52.25c0-.09 0-.13.12-.13h2.45zm-2.28 1.77a4.31 4.31 0 0 1 .72.39c.11.09.16.15.16.21s-.08.13-.25.23a2.87 2.87 0 0 0-.47.45 11.64 11.64 0 0 1-2.87 2.28.67.67 0 0 1-.21.09c-.05 0-.11-.07-.19-.21a2 2 0 0 0-.41-.41 9.59 9.59 0 0 0 2.89-2.06 2.36 2.36 0 0 0 .63-.97zm7 6.3a15.05 15.05 0 0 1-1.57-1.1 13.1 13.1 0 0 1-2.61-2.79 15.16 15.16 0 0 1-4.2 3.89h6.05zm-7.74 4.24h7V61h-7zm10.11-7.6a1.49 1.49 0 0 0-.35.51c-.06.14-.12.21-.16.21a.67.67 0 0 1-.21-.09 12.49 12.49 0 0 1-3.74-2.9.16.16 0 0 1 0-.08s.05-.09.15-.18l.27-.19a.14.14 0 0 1 .1 0 .1.1 0 0 1 .08 0 11.21 11.21 0 0 0 3.89 2.72zM417.69 65.49a16.54 16.54 0 0 0 5.64-2.93 13.23 13.23 0 0 1-3.07-4.56h-1.82a23.83 23.83 0 0 1-.28 3 10.71 10.71 0 0 1-2.16 4.74c-.08.1-.14.15-.19.15a.33.33 0 0 1-.19-.13 1.78 1.78 0 0 0-.49-.36 9.11 9.11 0 0 0 2.27-4.64 28.27 28.27 0 0 0 .32-5v-2.71a.11.11 0 0 1 .12-.12H423.15v-.53a13.62 13.62 0 0 0-.12-2.14c.28 0 .59 0 .92.08.13 0 .2.07.2.14a1.05 1.05 0 0 1-.11.36 6.84 6.84 0 0 0-.09 1.56v.6h4.8a1 1 0 0 0 .35 0 .32.32 0 0 1 .17 0c.11 0 .24.09.4.27s.27.33.27.39 0 .11-.12.18a.91.91 0 0 0-.3.39 11.83 11.83 0 0 1-1.12 2c-.08.11-.14.17-.17.17a.54.54 0 0 1-.23-.12 1.27 1.27 0 0 0-.49-.2 9.62 9.62 0 0 0 1.31-2.2h-4.87v3.49h3.06a1.57 1.57 0 0 0 .38 0l.15-.05c.09 0 .23.09.4.27s.29.32.29.39-.05.13-.14.19a1.32 1.32 0 0 0-.32.42 17.43 17.43 0 0 1-3.13 4.14 16.62 16.62 0 0 0 6.26 2.81 1.66 1.66 0 0 0-.4.55c-.08.16-.15.24-.22.24a.68.68 0 0 1-.2 0 17.85 17.85 0 0 1-6.06-3 17.77 17.77 0 0 1-5.48 3l-.2.06s-.11-.08-.18-.24a1.6 1.6 0 0 0-.47-.66zm.8-9.62v1.36h4.62v-3.49h-4.59zM427 58h-5.92a11.84 11.84 0 0 0 2.85 4 14.66 14.66 0 0 0 3.07-4zM440.41 54.24v-1h-4v3.29a28.45 28.45 0 0 1-.3 4.59 9.82 9.82 0 0 1-1.91 4.56c-.08.11-.13.17-.17.17s-.1-.06-.19-.17a1.23 1.23 0 0 0-.47-.35 8.38 8.38 0 0 0 2-4.52 30.73 30.73 0 0 0 .26-4.35V52.7c0-.09 0-.13.12-.13H440.89v-1.33a6.81 6.81 0 0 0-.1-1.32 5.52 5.52 0 0 1 .88.1c.11 0 .17.06.17.12a1.05 1.05 0 0 1-.1.33 1.89 1.89 0 0 0-.1.65H446.78c.08 0 .13 0 .13.12v.44c0 .08-.05.12-.13.12H441.64v.93h5.53a.76.76 0 0 0 .29 0 .33.33 0 0 1 .15-.06c.06 0 .19.09.4.26s.28.3.28.37a.23.23 0 0 1-.13.21 2.24 2.24 0 0 0-.37.36c-.29.33-.55.61-.8.85-.1.08-.16.12-.19.12a.63.63 0 0 1-.25-.12 1.18 1.18 0 0 0-.44-.16 5.58 5.58 0 0 0 1.14-1.15h-6.11v.91l1.82-.1c1.08-.06 1.81-.12 2.17-.18h.06s.07 0 .08.12v.34c0 .06-.05.09-.14.09-.41 0-1.15 0-2.21.11l-1.82.11q0 .65.42.72c.67.07 1.66.1 3 .1a12.94 12.94 0 0 0 2.78-.16.89.89 0 0 0 .56-.84 1.74 1.74 0 0 0 .5.25c.13 0 .2.09.2.15a.41.41 0 0 1 0 .15 1.22 1.22 0 0 1-.65.77 12.66 12.66 0 0 1-3.35.24 24 24 0 0 1-3.48-.16c-.42-.11-.63-.45-.63-1v-.16l-.81.05c-1.23.09-2 .14-2.17.18h-.05c-.05 0-.08 0-.09-.13v-.4c0-.06 0-.09.13-.09.4 0 1.14 0 2.21-.08zm0 5.89h-2.43a.11.11 0 0 1-.12-.12v-3.13a.11.11 0 0 1 .12-.12H447.86a.11.11 0 0 1 .12.12v2.02L448 60a.11.11 0 0 1-.12.12h-2.45zm2.1-1.92v-.92h-3.93v.92zm0 .46h-3.93v1h3.93zm-3.07 5.65V66.23a.11.11 0 0 1-.12.12h-.56a.11.11 0 0 1-.12-.12V61.1a.11.11 0 0 1 .12-.12h8.33a.11.11 0 0 1 .12.12v3.86a1.21 1.21 0 0 1-.35 1 1.3 1.3 0 0 1-.64.21h-1.68a.31.31 0 0 1-.1-.21 1.71 1.71 0 0 0-.23-.49c.43 0 .91.06 1.43.06a1 1 0 0 0 .68-.17.71.71 0 0 0 .14-.5v-.52zm7-1.92v-.87h-7v.87zm-7 .52v.89h7v-.89zm3.76-4.71h4v-.92h-4zm0 .46v1h4v-1zM456.49 56.44q0 3.2.07 6.92v2.76a.11.11 0 0 1-.12.12h-.66a.11.11 0 0 1-.12-.12c.08-1.68.13-4.9.15-9.64a19.75 19.75 0 0 1-2.74 5.85c-.08.11-.13.16-.17.16s-.1-.06-.17-.17a1.28 1.28 0 0 0-.42-.47 17.78 17.78 0 0 0 3.15-5.94h-2.65c-.07 0-.1 0-.1-.13v-.48c0-.09 0-.13.1-.13h2.92V52.4c-.67.19-1.34.34-2 .47h-.19q-.1 0-.24-.24a1.26 1.26 0 0 0-.37-.41 14.47 14.47 0 0 0 4.52-1.34 3.29 3.29 0 0 0 .64-.44c.29.19.5.35.64.46a.42.42 0 0 1 .13.26c0 .08-.08.14-.25.15a2.06 2.06 0 0 0-.6.21 11 11 0 0 1-1.47.59v3.07H459c.08 0 .12 0 .12.13v.51c0 .09 0 .13-.12.13h-2.23a12.16 12.16 0 0 0 2.35 3.41 2.19 2.19 0 0 0-.37.53c0 .13-.1.19-.14.19s-.09 0-.15-.14a15.87 15.87 0 0 1-1.97-3.5zm9.16 3.81c.65-.14 1.21-.27 1.67-.39l.36-.09h.12c.05 0 .08 0 .1.13l.11.6v.05s0 .08-.11.09h-.18c-.54.1-1.24.23-2.11.41v5.05c0 .09 0 .13-.12.13h-.63c-.08 0-.12 0-.12-.13v-4.88l-3.66.74-1.8.37a2 2 0 0 1-.38.09H458.73s-.06 0-.08-.13l-.12-.57a.18.18 0 0 1 0-.06s0-.07.11-.09c1.18-.19 2-.33 2.33-.41l3.78-.79v-7.64a16.45 16.45 0 0 0-.12-2.37c.37 0 .66 0 .89.07s.21.08.21.16 0 .12-.07.31a9 9 0 0 0-.1 1.79zm-5.59-3.86a.08.08 0 0 1-.05-.08s0-.1.12-.19l.22-.21c0-.07.1-.11.13-.11a.26.26 0 0 1 .1 0 12.81 12.81 0 0 1 2.48 2.2.22.22 0 0 1 .06.12s0 .08-.12.15l-.22.26c-.09.11-.16.16-.19.16s0 0-.09-.06a12.25 12.25 0 0 0-2.44-2.24zm.47-3.93v-.07c0-.02 0-.1.13-.2l.21-.23a.21.21 0 0 1 .13-.09h.1a12.11 12.11 0 0 1 2.37 2.13.18.18 0 0 1 .06.1.31.31 0 0 1-.09.15l-.26.29q-.14.15-.18.15s-.05 0-.08-.06a11.18 11.18 0 0 0-2.39-2.17zM248.56 58.13h38.77v1h-38.77zM475.84 58.13h38.77v1h-38.77z"/></g><path d="M61.78 22.37l4.57-4.57-8.09-8.09H14.95L0 24.66l43.47 43.47 4.58-4.57-38.9-38.9 8.48-8.48h19.65l6.19 6.19 6.2-6.19h5.91z" fill="url(#a)"/><path d="M50.34 61.27l36.6-36.61-4.57-4.58-32.03 32.04-27.46-27.46 5.25-5.25h-9.16l-5.24 5.25z" fill="url(#b)"/><path d="M80.08 17.8L62.28 0H24.66l-6.47 6.47H59.6L70.93 17.8 45.76 42.96l4.58 4.58z" fill="url(#c)"/></svg>