<svg viewBox="-8.66 -85.43 392.66 281.06" xmlns="http://www.w3.org/2000/svg" xmlns:xlink="http://www.w3.org/1999/xlink" width="2500" height="2283"><linearGradient id="d" gradientUnits="userSpaceOnUse" x1="24.61" x2="256.68" y1="220.14" y2="-8.16"><stop offset="0" stop-color="#f99cdb"/><stop offset="1" stop-color="#fffae5"/></linearGradient><linearGradient id="a"><stop offset="0" stop-color="#6554c0"/><stop offset="1" stop-color="#f99cdb"/></linearGradient><linearGradient id="b" gradientUnits="userSpaceOnUse" x1="-26.61" x2="110.92" xlink:href="#a" y1="160.59" y2="136.7"/><linearGradient id="c" gradientUnits="userSpaceOnUse" x1="36.68" x2="36.68" y1="94.71" y2="42.49"><stop offset="0" stop-color="#d62587"/><stop offset="1" stop-color="#ff8f73"/></linearGradient><linearGradient id="e" x1="188.75" x2="57.06" xlink:href="#b" y1="155.48" y2="31.99"/><linearGradient id="f" gradientUnits="userSpaceOnUse" x1="127.07" x2="153.06" xlink:href="#a" y1="41.32" y2="-56.33"/><linearGradient id="g" gradientUnits="userSpaceOnUse" x1="224.17" x2="96.79" y1="115.94" y2="10.16"><stop offset="0" stop-color="#c0b6f2"/><stop offset=".32" stop-color="#c3b7f2"/><stop offset=".55" stop-color="#ccb9f1"/><stop offset=".75" stop-color="#dcbdef"/><stop offset=".93" stop-color="#f2c3ec"/><stop offset="1" stop-color="#fcc6eb"/></linearGradient><linearGradient id="h" x1="185.51" x2="264.91" xlink:href="#c" y1="85.33" y2="56.15"/><path d="M47.93 48.67C-8.66 135.5 24.5 195.63 156.3 189.72 384 179.5 135.32-85.43 47.93 48.67z" fill="url(#d)"/><g fill="#f99cdb" opacity=".7"><rect height="3.86" rx="1.93" width="32.97" x="31.65" y="114.23"/><rect height="3.86" rx="1.93" width="13.99" x="69.61" y="114.23"/><rect height="3.86" rx="1.93" width="13.99" x="88.59" y="114.23"/><rect height="3.86" rx="1.93" width="32.97" x="31.65" y="123.41"/><rect height="3.86" rx="1.93" width="13.99" x="69.61" y="123.41"/><rect height="3.86" rx="1.93" width="13.99" x="88.59" y="123.41"/><rect height="3.86" rx="1.93" width="32.97" x="31.65" y="132.58"/><rect height="3.86" rx="1.93" width="13.99" x="69.61" y="132.58"/><rect height="3.86" rx="1.93" width="13.99" x="88.59" y="132.58"/><rect height="3.86" rx="1.93" width="32.97" x="31.65" y="88.14"/><rect height="3.86" rx="1.93" width="13.99" x="69.61" y="88.14"/><rect height="3.86" rx="1.93" width="13.99" x="88.59" y="88.14"/><rect height="3.86" rx="1.93" width="32.97" x="31.65" y="97.32"/><rect height="3.86" rx="1.93" width="13.99" x="69.61" y="97.32"/><rect height="3.86" rx="1.93" width="13.99" x="88.59" y="97.32"/><rect height="3.86" rx="1.93" width="32.97" x="31.65" y="106.49"/><rect height="3.86" rx="1.93" width="13.99" x="69.61" y="106.49"/><rect height="3.86" rx="1.93" width="13.99" x="88.59" y="106.49"/><rect height="3.86" rx="1.93" width="32.97" x="31.65" y="62.05"/><rect height="3.86" rx="1.93" width="13.99" x="69.61" y="62.05"/><rect height="3.86" rx="1.93" width="13.99" x="88.59" y="62.05"/><rect height="3.86" rx="1.93" width="32.97" x="31.65" y="71.23"/><rect height="3.86" rx="1.93" width="13.99" x="69.61" y="71.23"/><rect height="3.86" rx="1.93" width="13.99" x="88.59" y="71.23"/><rect height="3.86" rx="1.93" width="32.97" x="31.65" y="80.41"/><rect height="3.86" rx="1.93" width="13.99" x="69.61" y="80.41"/><rect height="3.86" rx="1.93" width="13.99" x="88.59" y="80.41"/><rect height="3.86" rx="1.93" width="32.97" x="31.65" y="35.97"/><rect height="3.86" rx="1.93" width="13.99" x="69.61" y="35.97"/><rect height="3.86" rx="1.93" width="13.99" x="88.59" y="35.97"/><rect height="3.86" rx="1.93" width="32.97" x="31.65" y="45.14"/><rect height="3.86" rx="1.93" width="13.99" x="69.61" y="45.14"/><rect height="3.86" rx="1.93" width="13.99" x="88.59" y="45.14"/><rect height="3.86" rx="1.93" width="32.97" x="31.65" y="54.32"/><rect height="3.86" rx="1.93" width="13.99" x="69.61" y="54.32"/><rect height="3.86" rx="1.93" width="13.99" x="88.59" y="54.32"/></g><path d="M84.71 139.42A28.07 28.07 0 0 0 30.84 134a19 19 0 0 0-20 10.59 14 14 0 0 0 3.23 27.7l66.54-.05a16.65 16.65 0 0 0 4.11-32.78z" fill="url(#b)"/><path d="M74 155.9a.63.63 0 0 1-.63.63H70.7l1.91 1.92a.63.63 0 0 1 0 .9.65.65 0 0 1-.45.19.67.67 0 0 1-.45-.19l-1.91-1.92v2.71a.64.64 0 0 1-1.28 0v-2.71l-1.91 1.92a.64.64 0 0 1-.91 0 .65.65 0 0 1 0-.9l1.92-1.92h-2.71a.64.64 0 1 1 0-1.27h2.71l-1.92-1.92a.65.65 0 0 1 0-.9.65.65 0 0 1 .91 0l1.91 1.92v-2.71a.64.64 0 1 1 1.28 0v2.71l1.91-1.92a.64.64 0 1 1 .9.9l-1.91 1.92h2.71a.63.63 0 0 1 .59.64zm-13.59-.85h-2.67l1.92-1.92a.64.64 0 0 0-.9-.9l-1.92 1.92v-2.71a.64.64 0 1 0-1.27 0v2.71l-1.92-1.92a.64.64 0 0 0-.9.9l1.92 1.92H52a.64.64 0 1 0 0 1.27h2.71l-1.92 1.92a.63.63 0 0 0 0 .9.65.65 0 0 0 .9 0l1.92-1.92v2.71a.64.64 0 1 0 1.27 0v-2.71l1.92 1.92a.63.63 0 0 0 .45.18.66.66 0 0 0 .45-.18.63.63 0 0 0 0-.9l-1.92-1.92h2.71a.64.64 0 1 0 0-1.27zm25.91 0h-2.67l1.92-1.92a.64.64 0 0 0-.9-.9l-1.92 1.92v-2.71a.64.64 0 0 0-.64-.64.63.63 0 0 0-.63.64v2.71l-1.92-1.92a.64.64 0 0 0-.9.9l1.91 1.92h-2.7a.64.64 0 1 0 0 1.27h2.7l-1.91 1.92a.63.63 0 0 0 0 .9.65.65 0 0 0 .9 0l1.92-1.92v2.71a.64.64 0 0 0 .63.64.64.64 0 0 0 .64-.64v-2.71l1.92 1.92a.63.63 0 0 0 .45.18.66.66 0 0 0 .45-.18.63.63 0 0 0 0-.9l-1.92-1.92h2.71a.64.64 0 1 0 0-1.27zm-51.82-.43h-2.67l1.92-1.91a.64.64 0 1 0-.9-.9l-1.92 1.91V151a.64.64 0 0 0-1.27 0v2.71l-1.92-1.91a.64.64 0 1 0-.9.9l1.92 1.91h-2.71a.64.64 0 1 0 0 1.28h2.71l-1.92 1.91a.64.64 0 0 0 .45 1.09.61.61 0 0 0 .45-.19l1.92-1.91v2.71a.64.64 0 0 0 1.27 0v-2.7l1.92 1.91a.61.61 0 0 0 .45.19.64.64 0 0 0 .45-1.09l-1.92-1.91h2.71a.64.64 0 1 0 0-1.28zm13 .21h-2.71l1.91-1.91a.64.64 0 0 0-.9-.9l-1.91 1.91v-2.71a.64.64 0 0 0-1.28 0v2.71L40.7 152a.64.64 0 0 0-.9.9l1.91 1.91H39a.64.64 0 0 0 0 1.28h2.71L39.8 158a.65.65 0 0 0 0 .91.63.63 0 0 0 .45.18.66.66 0 0 0 .45-.18l1.91-1.91v2.71a.64.64 0 1 0 1.28 0V157l1.91 1.92a.66.66 0 0 0 .45.18.63.63 0 0 0 .45-.18.65.65 0 0 0 0-.91l-1.91-1.91h2.71a.64.64 0 0 0 0-1.28zm-25.91-.42h-2.71l1.91-1.92a.64.64 0 0 0-.9-.9L18 153.51v-2.71a.64.64 0 0 0-1.28 0v2.71l-1.91-1.92a.64.64 0 0 0-.9.9l1.91 1.92h-2.73a.64.64 0 0 0-.63.64.63.63 0 0 0 .63.63h2.71l-1.91 1.92a.63.63 0 0 0 0 .9.6.6 0 0 0 .45.19.63.63 0 0 0 .45-.19l1.91-1.91v2.7a.64.64 0 0 0 1.28 0v-2.7l1.91 1.91a.63.63 0 0 0 .45.19.6.6 0 0 0 .45-.19.63.63 0 0 0 0-.9l-1.91-1.92h2.71a.63.63 0 0 0 .63-.63.64.64 0 0 0-.63-.64z" fill="#e6fcff"/><path d="M51 69.23h-1.1v-3.57a13.26 13.26 0 0 0-26.51 0v3.57h-1.1a1.59 1.59 0 0 0-1.59 1.59V78a16 16 0 0 0 16 15.94A15.94 15.94 0 0 0 52.62 78v-7.18A1.59 1.59 0 0 0 51 69.23zm-24.56-3.57a10.24 10.24 0 0 1 20.47 0v3.57H26.44zm12.84 18.69h-5.2l1.73-3.87a2.75 2.75 0 1 1 1.73 0z" fill="url(#c)"/><path d="M168.31 160.12l-2.1-1.33-46.78-29.47a38.49 38.49 0 0 1-18.08-32.76v-72.2l-6.49 3.24v72.2a38.52 38.52 0 0 0 18.08 32.76l50.13 30.95z" fill="url(#e)"/><path d="M101.35 24.36s20.73 6.08 37.87-3.16c11.1-6 22.72-18 22.72-18l6.37-3.2-21.48 44.45z" fill="url(#f)"/><path d="M230.37 25.6a53.09 53.09 0 0 1-13 1.61 53.37 53.37 0 0 1-37.67-15.7l-8.6-8.69L168.31 0l-2.8 2.82-8.63 8.69a53.37 53.37 0 0 1-37.67 15.7 53 53 0 0 1-13-1.61l-4.9-1.24v72.2a38.49 38.49 0 0 0 18.08 32.76l46.78 29.47 2.1 1.33 2.1-1.33 46.77-29.47a38.5 38.5 0 0 0 18.09-32.76v-72.2z" fill="url(#g)"/><path d="M161 111a7.23 7.23 0 0 1-6.95-9.26l3.36-11.6a4.15 4.15 0 0 0-1.23-4.14 21.07 21.07 0 0 1-6.69-15.47 21.35 21.35 0 0 1 21.32-21.32h.84A21.3 21.3 0 0 1 185.44 86a4.06 4.06 0 0 0-1.23 4.07l3.37 11.65a7.25 7.25 0 0 1-7 9.26z" fill="#5243aa"/><path d="M170.81 51.61h.74a19.07 19.07 0 0 1 18.14 18.26 18.77 18.77 0 0 1-5.92 14.33 6.49 6.49 0 0 0-1.9 6.52l3.37 11.65a4.81 4.81 0 0 1-4.62 6.15H161a4.81 4.81 0 0 1-4.62-6.15l3.36-11.61a6.52 6.52 0 0 0-1.89-6.56 18.87 18.87 0 0 1 13-32.6m0-4.86a23.78 23.78 0 0 0-23.79 23.76 23.49 23.49 0 0 0 7.45 17.24 1.72 1.72 0 0 1 .56 1.68L151.71 101a9.67 9.67 0 0 0 9.29 12.39h19.62a9.66 9.66 0 0 0 9.29-12.39l-3.37-11.66a1.69 1.69 0 0 1 .56-1.62 23.73 23.73 0 0 0-15.36-41z" fill="#e6fcff"/><path d="M156.38 102.38l3.36-11.61a6.52 6.52 0 0 0-1.89-6.56 18.86 18.86 0 0 1 8.11-32 19.1 19.1 0 0 1 14.11 17.63 18.78 18.78 0 0 1-5.92 14.33 6.49 6.49 0 0 0-1.9 6.52l5.15 17.8H161a4.81 4.81 0 0 1-4.62-6.11z" fill="#172b4d" opacity=".67"/><path d="M270.14 62.69a26.79 26.79 0 0 0-52.7 8.42l-14.34 3.6-17.33 4.37-16.21 4.08a4.7 4.7 0 1 0 2.29 9.11l47.89-12a26.78 26.78 0 0 0 50.4-17.53zM248.4 86.1A17.4 17.4 0 1 1 261 65a17.42 17.42 0 0 1-12.6 21.1z" fill="#403294" opacity=".13"/><path d="M223 75.31L172.3 91a4.65 4.65 0 0 1-2.76-8.88l50.67-15.71a4.64 4.64 0 0 1 2.79 8.9z" fill="#b22865"/><path d="M267.77 56.55a26.49 26.49 0 0 0-51.59 11.13l-30.84 9.57a4.65 4.65 0 1 0 2.75 8.88l30.85-9.57a26.49 26.49 0 0 0 48.83-20zm-20.22 24.28a17.2 17.2 0 1 1 11.34-21.53 17.22 17.22 0 0 1-11.34 21.53z" fill="url(#h)"/></svg>