<svg height="1673pt" viewBox="4.1 38.1 2188.9 1568.7" width="2940" xmlns="http://www.w3.org/2000/svg"><path d="m287.8 40.9c-26.5 5.8-48.4 17.6-66.9 36-10.5 10.6-16 18.4-30.4 43.6-15.1 26.3-22.5 36.6-35 49-16.3 16.2-28 22.3-41 21.3-22.7-1.9-40.5-28.4-53.1-79.3-2.2-8.9-5.8 31.5-4.3 49.2 2.3 28.4 9.2 45.7 24.3 60.9 6.7 6.7 9.7 8.9 17.6 12.7 14.1 6.8 22.1 8.8 38.1 9.4 21.9.9 38.1-3.6 57-15.9 16.5-10.6 24.2-17.8 55.6-51.5 14.4-15.4 18.1-17.7 28.5-17.7 11.9.2 26.9 9.1 37.5 22.6 5.4 6.8 9.7 14.5 10.7 19.3.6 2.8.2 3.2-4.6 6-20.5 11.9-29.9 36.9-20.9 55.6 1.2 2.3 2 4.3 1.8 4.5-.1.1-3.6 1.9-7.7 3.9-44.7 22.3-77 67.3-86.5 120.5-2.5 14.3-3.1 39.9-1.1 54.5 9.4 71.2 54.4 145.8 112.4 186.8l9.3 6.6-3.3 2.4c-4 3-59.1 42-65.3 46.2-24.8 16.8-76 54.8-92.9 68.9-15.7 13-44.2 41.5-53.9 53.6-21.4 27-34.4 52.9-40.3 80-2.6 12-2.7 42.9-.1 55 11.6 54.1 52.6 98.3 108.6 117 16.7 5.6 27.7 7.4 46.1 7.4 10.3 0 18.7-.6 25-1.8 12.1-2.2 29.9-8.1 43.3-14.4l10.5-5 1.1 7.2c2.8 19.4 5.8 66.2 6.8 109.3.5 21.7.9 28.3 1.9 28.3.7 0 6-1.2 11.9-2.6s10.8-2.4 11-2.2c1.1 1.2 5.9 27.4 17 92.3 5.7 33.9 5.9 55.3.5 76.5-4.4 17.2-11.5 30.4-23 42.4-20 21-46.3 31.6-85.6 34.6-23.6 1.8-45.4-.6-83-8.9-40-8.9-62.1-11.8-80.9-10.7-43.3 2.6-69.9 20.5-78.2 52.6-2.2 8.6-2.1 26.9.1 37.4 9 41.6 41.9 81.4 78.1 94.5 12.3 4.4 21.9 6.1 41.4 7.1 9.6.5 17.7.8 17.8.6.1-.1-5-4.5-11.5-9.6-23.7-19-45.7-44-54.4-61.9-5.2-10.6-6.2-19.4-3-25.7 7-13.6 27.2-20.1 65.2-21.1 38.2-1 62.4 3 137.8 23.1 59.1 15.8 91.8 22.6 124.4 26 42.7 4.5 79.2 2.4 115.6-6.5 89.4-21.9 163.8-90.3 184.2-169.5 6.4-24.6 7.4-35.6 7.4-80.4.1-22.3-.1-52.9-.4-68l-.5-27.5 11.8-.6c6.4-.3 11.9-.8 12.2-1.1.6-.6-4.4-51.3-8.1-82.8-6.8-57.9-15.1-108.1-23.5-141.2-1.6-6.4-2.9-11.9-2.9-12.2 0-.8 6.3-3.4 39.5-16.8 63.7-25.6 82-37.5 98.6-64.3 10-16.1 14.5-32.8 13.6-50.4-1.2-24.9-11.3-44.8-34.6-68.2-19-19-38.9-32.9-68.1-47.5-16.6-8.3-21.4-10.3-62.5-26.4-16.5-6.4-41-16.5-54.5-22.3-13.5-5.7-30.7-12.8-38.2-15.6-13.4-5-36.5-12.1-39.5-12.1-.8 0 1-2.8 4.5-6.8 13.6-15.3 22.9-31.3 27.4-46.7 2-6.8 2.3-10.2 2.2-22.5 0-12.8-.4-15.6-2.7-23.3-6.2-20.3-17.8-38.7-42.1-66.7-7.8-9-14.3-22.2-16.2-33-1.2-7.1-1.3-10.2-.3-18.8 3-26.1-2.4-56.1-14.6-80.5-11.8-23.7-31.9-43.4-57.3-56.1-9.6-4.8-25-9.9-38.5-12.7l-10.7-2.2.7-3.6c.5-2 .8-7.3.7-11.7 0-7.2-.4-9-3.4-15-2.1-4.4-5.4-8.9-9.1-12.4l-5.7-5.5 5.3-7.2c6.5-8.9 13.6-22.4 17-32.7 8.1-24.2 7.6-51.2-1.4-70.9-11.2-24.9-37.1-45.3-67.8-53.4-13.5-3.6-39.3-4.2-52.5-1.4zm124.2 229.8c25.5 5 48.8 17 65.7 33.8 17 17.1 28.2 39.8 32.8 67 1.4 8.4 1.6 13.6 1 32-.8 24.8-.1 29.8 6 43.2 4.2 9.2 7.3 13.6 20.4 29.3 24 28.8 33.7 48.2 34.8 70 .5 8.7.2 12-1.5 18.8-2.5 9.6-8.3 21.7-14.9 31-6 8.5-17.4 20.5-18.4 19.5-1.1-1.1-2.8-23.9-2.2-27.9.5-2.9.2-3.3-3.3-4.4-10-3.3-28.1 1.1-45.9 11.1-11.5 6.6-28.5 18.6-28.5 20.3 0 2.2 11.5 18.8 18 25.8l6.1 6.7-4 1.1c-21.1 5.6-59.8 6.1-85.6.9-50.6-10.2-97.3-45.9-132.1-101.2-11.5-18.1-25.3-48-30.7-66.5l-1.6-5.3 6.7 6.9c11.8 12.1 21.4 17.2 32.4 17.2 12 0 18.8-6 17.4-15.7-.3-2.4-1.3-5.6-2.1-7.1-1.6-2.7-1.6-2.7-1 2 .7 5.4-1.2 11.1-4.3 12.7-3.5 1.8-10.4 1.2-16-1.4-12.1-5.6-28.3-25.6-32.8-40.4-5.7-18.9 6.6-39.4 23.6-39.3 6.7.1 14.4 3.9 22.5 11.3 3.6 3.2 6.7 5.9 7 5.9.5 0-3.1-5.7-7.5-11.8-6.4-8.8-20.6-15.3-29.7-13.6-8.1 1.5-18.2 8.1-22.5 14.8l-2 3.1.6-10c1.7-31 13.5-62.6 32.5-87.2 13.3-17.2 33.3-33.4 51.6-41.9 7.6-3.5 8-3.6 10.4-2 4.7 3.1 14.5 7.3 20.1 8.7 7.4 1.8 22.1 1.5 30-.6 9.1-2.3 19.4-8 25.9-14.2 6.3-5.9 5.2-5.8 21.1-2.6zm155.6 376.4c14 4.7 33.7 14 42.3 19.8 21.2 14.5 27.5 32.1 15.8 44.8-9.2 10-41.4 21.7-83.6 30.5l-6.4 1.3 13.3 12c12 10.9 38 37.8 38 39.4 0 .3-3.9 4.6-8.7 9.3l-8.8 8.8-11.5 1.9c-13.7 2.4-25.5 5.7-38.9 11-5.8 2.3-12.6 4.2-16.4 4.6l-6.6.7-2.6-5.7c-3-7-3.1-9.4-.4-28.3 5.8-41.8 16.7-78.2 32.9-110.1 6.3-12.4 4.9-11.7 16.8-8.2 8.9 2.6 29.2 7.1 32.4 7.1.6 0-2.7-3.9-7.4-8.8-8.1-8.4-18.8-23.9-18.8-27.3 0-2.1 3.8-6.9 5.5-6.9.7 0 6.6 1.8 13.1 4.1zm-209.1 6.3c6.1 2.5 15.1 5.5 19.9 6.7l8.8 2.2 21.1 24.5 21.1 24.6.4 14.9c.4 11.9.2 14.8-.8 14.2-.7-.4-5.1-3.9-9.9-7.7-26.8-21.7-63.8-41.7-99.6-53.7-4.4-1.5-8.1-3.1-8.3-3.6-.2-.8 34.2-26.2 35.8-26.4.2-.1 5.4 1.9 11.5 4.3zm146.6 9.3c4.4 2.5 7.8 5.1 7.5 5.7-5.9 14.3-15.1 38.9-19.5 52.3l-5.7 17.2-15.2-18.2c-10.9-13.1-15.2-18.8-15.2-20.7.1-3.3 4.7-33 5.3-33.6.2-.3 4.2-1.1 8.8-1.9s11.6-2.3 15.4-3.4c3.9-1 7.8-1.9 8.8-2 .9-.1 5.4 2 9.8 4.6zm193.4 35.5c31.6 12.3 51.3 22.2 72.5 36.3 32.8 21.8 51.5 43.2 59.1 67.5 3.3 10.5 3.3 25.5 0 36-6.2 20-17.9 35.4-35.9 47.4-10.1 6.7-31.9 16.9-61.2 28.6-14 5.6-31.3 12.7-38.5 15.7-7.1 3-16.1 6.6-19.8 7.9-6.1 2.1-6.8 2.1-6.1.6 3.5-8.2 4.6-13.3 4.6-22.2 0-17.2-6-35.7-18.9-57.8-9.8-16.9-28.3-42-32-43.3-1-.3 5.5-4.1 17.8-10.1 19.7-9.8 41.4-21.7 40.7-22.4-.2-.2-17.7 4.6-38.8 10.6-21.2 6.1-38.7 11-39 11-.2 0 1.3-1.8 3.4-3.9l3.9-4-4.4-5.3c-6.1-7.5-18.1-20.9-27.1-30.3l-7.7-8.1 7.2-1.9c13.6-3.4 33.2-10.6 43.2-15.8 17.7-9.3 24.9-18.9 26.2-35.3.5-6.6-1-14.5-4.3-22-.2-.6 9.1 2.7 20.8 7.3s27.2 10.7 34.3 13.5zm-396.8-6.7c66.9 19.5 125.5 60.8 160.5 112.9 7.2 10.8 7.9 12.3 7.4 15.5-.3 2-.8 6.1-1.2 9.2l-.6 5.6-11.2 2.3c-22.6 4.6-54.7 14.6-82.8 25.8l-12.6 5.1-19.7-6.6c-18.2-6-19.6-6.7-19.1-8.7 2.3-9.6 16.8-86.8 16.3-87.2-.3-.3-4.5-.1-9.4.6-14.7 1.8-40.8 2.4-50.8 1.1-16.9-2.3-24.3-6.5-29.1-16.6-4.4-9.3-2.5-19.6 6-32.3 2.4-3.7 6.9-9 9.8-11.9 4.8-4.7 22.3-18 24-18.2.3-.1 5.9 1.5 12.5 3.4zm-71.1 47.7c-.1 11.7 1.3 16.7 7.2 25.7 6 9.1 14.8 14.2 30.6 17.8 5.3 1.3 12.5 1.7 28.6 1.7l21.6.1-7.8 40c-4.3 22-7.8 40.5-7.8 41 0 .6 6.6 3.2 14.8 5.9 22.2 7.3 20.6 6.3 14.8 9.3-5.1 2.6-82.1 33.3-83.5 33.3-.5 0-1.2-1.2-1.6-2.7-2.7-11.1-17-33.7-27.2-43.4-11.7-11-22.4-15.7-33.3-14.6-11.2 1.2-11.3 1.7-1.3 7.7 10.3 6.3 25.7 21.1 32.2 31 5.6 8.6 12.5 22.7 16.6 34.2 2.2 6 3.8 9.2 4.7 9 .7-.2 11.6-4.3 24.2-9.3 12.6-4.9 23-8.8 23.1-8.7.1.2 11.2 19.2 24.6 42.2l24.3 42-7.9 7.4c-18.8 17.4-26.6 23.3-39 29.3-20.8 10-34.8 13.7-55.5 14.5-16.6.7-28.5-1-45.1-6.6-46.2-15.4-81.2-49.4-94.7-92-4.2-13.4-5.6-22.6-5.6-37 .2-57 38.9-110.9 125.8-175.2 9.4-7 17.1-12.7 17.2-12.7zm219.6 200.2c11.2 2.4 21.9 4.7 24 5l3.6.7 1.2 7.2c6.9 42.7 19.2 90.5 34.1 132.9l6.1 17.3-.5 35.3c-.3 19.5-.8 35.6-1.1 35.9s-3.2-.6-6.3-2c-7.6-3.4-20.4-7-32.3-9.2-12.5-2.3-53.1-3.2-72.4-1.6-18.6 1.6-39.6 4.5-58.5 8.2-8.4 1.7-15.6 2.7-16 2.4-.3-.4-.9-11.3-1.3-24.3-1.4-44.8-5-90.7-8.3-104.7l-1.4-6 3.7-3.4c2-1.9 9.1-8.4 15.7-14.5s13.2-11.9 14.7-12.9c1.5-.9 5.5-5.4 8.9-9.9 15.9-21 38.8-48.7 49.1-59.4l5-5.1 5.9 1.8c3.2 1 15 3.8 26.1 6.3zm54 10.1c5.6.8 5-.8 7.8 23 2.4 21.1 6.2 70 5.3 69.1-2.1-2-14.9-55.7-19.3-80.5-2.4-13.8-2.4-13.4-.2-12.7.9.3 3.8.8 6.4 1.1zm54.2 7c49.7 5.5 74 6.7 83.2 4.1 2.7-.8 9-1.7 13.9-2 5-.3 12.7-1.6 17.3-2.7s8.5-1.9 8.8-1.7c.7.8 8.3 35.1 11.8 53.9 4.2 22.1 10.5 65.7 14 96.4 3.4 29.9 6.7 62.7 6.4 63-.2.2-28 1.5-61.8 2.9s-66.2 2.9-72 3.2l-10.6.6-7.6-15.8c-8-16.6-16.6-36.5-22.3-51.3l-3.3-8.6-.6-24.5c-.6-24.4-2.2-57.6-3-63.7l-.5-3.2 4.2 4.4c6.9 7.1 16 7.4 22.8.6 4.5-4.4 5.7-9.4 3.9-15.4-4.1-13.8-23.2-16.6-29.7-4.4-1.7 3.2-1.7 3.2-3.9-16.3-3-26-3.3-23.4 2.3-22.6 2.6.3 14.6 1.7 26.7 3.1zm-18.5 196.3c1.9 4.2 7 14.8 11.3 23.4l7.9 15.8 8.7-.6c14.6-.9 123.5-5.4 123.8-5.1.9.9 2.5 84.6 2.1 107.5-.5 28-1.6 38.5-5.6 56.9-13.5 62-63.3 119.2-130.1 149.3-37.1 16.7-83.4 25.4-125 23.5-43-1.9-78.7-8.5-149.5-27.4-57.5-15.3-80.8-20.3-108.9-23.1-15.8-1.7-52.8-.8-65.6 1.5-11.4 2-25.5 6.5-31.8 10.2-6.6 3.8-14.3 11.9-17.2 17.8-3.2 6.8-3.9 19.8-1.5 28 3.6 12.6 14.3 29.9 28.8 46.7 3.7 4.3 6.4 7.8 5.9 7.8-2.2 0-20.4-10-25.7-14.1-14.8-11.4-29-29.1-37.1-46.3-14.5-30.8-13-59.5 4.1-76.2 13.9-13.5 40.3-20.2 69.9-17.6 15.5 1.4 25.5 3.2 57.1 10.1 29 6.3 38.1 7.8 57.2 9.2 25.9 1.9 54-1.2 76.3-8.3 31.7-10.1 56.5-30.9 69.4-58.3 13.5-28.6 15.8-58.7 8.1-105-6.9-41.1-13.8-79.7-15.4-86.2-2.1-8.6-3.7-7.5 14.5-10.3 55.6-8.5 98-7.6 126.9 2.7 9.5 3.4 16 7.2 25.2 14.8 4.2 3.6 8 6.2 8.4 5.7.8-.9 2.9-37.1 2.9-50.5 0-5.3.3-9.7.8-9.7.4 0 2.2 3.5 4.1 7.8z"/><path d="m247.5 435.2c4.4 3.6 9.5 8.2 11.4 10.2l3.5 3.6-2.1 2.2c-3.8 4.2-5.4 8.6-5.1 14.1l.3 5.2 1.4-4.5c1.3-4.3 7-11.1 11.6-13.6 1.8-1 1.8-1.2-.8-5.7-1.5-2.5-4.4-6-6.4-7.7-4.1-3.4-14-8.4-18.8-9.6-2.4-.6-1.5.5 5 5.8zm217.4 11.7c-4.2 1.4-10.2 5.8-13.2 9.8-1.5 2.1-2.4 3.9-1.9 4.1.4.1 3.4-.7 6.7-1.8 8.5-2.9 13.7-2.7 17.7.9 2.8 2.5 3.2 3.4 3.1 7.8-.1 4.8-3.6 13.6-7.1 17.6-2.4 2.7-.8 3.1 4 .9 15.8-6.9 19.8-28.2 6.8-36.8-4-2.7-11.8-3.9-16.1-2.5zm98.1 619.8c-2.3.9-6 4.5-7.6 7.5-1.8 3.4-1.8 9.9 0 14.2 3.3 7.9 14.9 11.9 22.5 7.9 5.6-2.9 7.6-6.5 7.6-13.7 0-5.3-.4-6.8-2.8-9.9-1.5-2-4.1-4.4-5.7-5.2-2.8-1.5-10.9-1.9-14-.8zm343-247.7v600h72.9l.3-84.8c.4-83.8.4-84.8 2.6-92.7 5.7-20.6 17.8-34.7 34.8-40.5 15.7-5.5 31.8-4.7 45.5 2.1 9.2 4.7 15.4 11.1 20.4 20.9 7.3 14.4 6.9 8.7 7.2 106.8l.4 88.2h73.8l.3-86.3c.4-96 0-90.3 7.4-105.6 4.4-9 13.3-18.2 21.9-22.8 9.4-4.9 16.7-6.7 28-6.7 16.3 0 27.3 4.3 36.9 14.4 6.5 6.8 10.9 15.1 13.8 26.3 2.2 8.1 2.2 9.5 2.5 94.4l.4 86.3h73l-.4-100.8c-.3-97.8-.4-101-2.4-109.7-12.1-52.6-50.9-83.5-104.8-83.5-20 0-37 3.1-55 10.1-17.8 6.9-36.2 20.8-44 33.1-1.7 2.7-3.2 4.8-3.5 4.8s-3-3.7-6-8.2c-19.1-28.6-43.8-40.9-79-39.5-21.2.9-37 5.8-51.4 16.1-6.6 4.7-17.3 15.5-20.2 20.5-1 1.7-2.2 3.1-2.6 3.1-.9 0-.8-129.4.1-225.8l.6-63.3 37.9 56 38 56.1h44.3c24.4 0 44.3-.3 44.3-.6s-23.7-33.7-52.7-74.2-52.7-74.4-52.7-75.2 23.2-30.5 51.5-66 51.8-65.1 52.2-65.8c.7-.9-8.4-1.2-43.6-1.2h-44.4l-37.4 49.8-37.4 49.7-.8-181c-.4-99.5-.5-181.6-.2-182.2.3-1 16.2-1.3 75-1.3h74.5v-66h-151v-155h-71zm776-395v205h70.9l.3-82.8c.4-92.1 0-86.8 7.5-102.2 6.5-13.4 19.2-23.4 34.3-27.1 8.6-2.1 23.2-1.6 30.9 1 16.2 5.6 26 16.8 31.4 35.9 2.1 7.6 2.2 9 2.5 91.4l.3 83.8h71l-.4-96.3c-.3-95.4-.3-96.3-2.6-106.2-9-40.1-34.3-67.4-72.2-77.7-7.4-2-10.7-2.3-27.4-2.3-15.5 0-20.3.3-25.9 1.9-19.6 5.3-34.4 14.6-45.8 28.9l-3.8 4.9v-163.2h-71z"/><path d="m1258.4 343c-59.1 6.8-101.9 48.1-114.5 110.7-2.7 13.6-3.7 44-1.9 59.4 6.5 56.5 40.4 99.9 90.2 115.8 30.5 9.7 70.8 9.1 103.4-1.4 17.5-5.7 38.7-17.8 51.2-29.2l5.3-4.8-21.1-24.2-21.1-24.2-5.9 4.8c-12.2 9.8-32.3 18.4-49.3 21.1-9.2 1.5-23.5.8-32.2-1.5-22.1-5.8-38.4-21.9-45.4-44.9-1.2-3.7-2.1-7.7-2.1-8.7 0-1.9 2.4-1.9 93.9-1.9h93.8l.7-5.3c1.1-9.1.6-33.8-.9-44.8-7.5-56.4-37.7-97.9-83.3-114.3-16.4-5.9-42.3-8.7-60.8-6.6zm28.7 65.4c15.7 3.4 29.2 14.2 36.8 29.6 3.7 7.6 8.1 20.4 8.1 23.7 0 1-12.3 1.3-58.5 1.3-42.1 0-58.5-.3-58.5-1.1 0-3.6 3.7-14.7 7.7-22.9 11.9-24.6 36.8-36.4 64.4-30.6zm257.5-65.4c-33.3 3.8-61.6 16.9-83.1 38.5-28.4 28.3-42.9 68.6-41.2 114 .7 17.8 2.5 29 7.3 44.5 15.6 50.2 54.5 84.4 106.4 93.6 12.6 2.2 30.9 2.9 43 1.5 28.9-3.3 52.2-13.3 72.5-31.1 5.9-5.2 18.4-18.9 18.5-20.2 0-.6-43.3-39.8-48.7-44.1l-2.4-1.9-7.2 6.9c-20.3 19.3-45.6 25.7-70.3 17.9-20.7-6.6-36.9-24.9-43.6-49.1-1.8-6.7-2.1-10.6-2.2-24.5 0-15.1.3-17.3 2.7-25.3 6.8-22 18.6-36.9 36.1-45.1 12.2-5.7 24.2-7.6 37.1-5.6 15.2 2.3 26.7 8.1 40.1 20.4l7.2 6.6 17.3-15.2c9.6-8.3 21.1-18.5 25.6-22.6l8.3-7.4-4.7-6c-13.3-16.9-35.3-32.1-57-39.4-17.2-5.8-43.4-8.5-61.7-6.4zm-169.6 362.5c0 .3 24.8 48 55.1 106.1 30.2 58.1 56.4 108.4 58 111.7l3.1 6.2-47.1 89-47.1 89 39.7.3c21.8.1 40-.1 40.4-.5.3-.5 44.6-86.5 98.4-191.3 53.7-104.8 100.1-195.1 103.1-200.8l5.3-10.2h-40.2l-40.2.1-35.5 72.1c-19.5 39.6-35.9 72.1-36.3 72.2-.4 0-17.3-32.4-37.5-72.1l-36.7-72.3h-41.2c-22.7 0-41.3.2-41.3.5z"/><path d="m1252 708.1c-10.2 1.2-22.8 4.5-32.8 8.5-41.1 16.4-68.5 51.3-78.9 100.3-2.5 11.6-2.7 14.4-2.8 36.6 0 21 .3 25.4 2.2 35.1 12.3 60.1 51.5 99.3 109.3 109.1 12.6 2.1 39.9 2.1 54-.1 24.2-3.7 44.3-11.3 62.8-23.7 6.4-4.3 13.8-9.8 16.4-12.1l4.7-4.3-19.9-23c-11-12.7-20.5-23.4-21.3-23.9-.9-.6-3.5.8-8.1 4.3-13.2 10-31.7 17.7-48.5 20.1-28.5 4.2-55.9-7.4-69-29.3-3.3-5.6-8.6-19.8-9.3-24.7l-.3-2.5 93.7-.3 93.6-.2.7-10.8c2.2-31.8-4.1-66.4-16.5-91.3-24.8-49.4-72.8-74.4-130-67.8zm32.4 65.4c15.7 4.1 27.4 14 35 29.6 3.9 8.1 7.6 19.2 7.6 22.8 0 .8-16.3 1.1-58 1.1h-58v-2.3c0-1.2 1.5-6.5 3.3-11.8 7.3-21 21.2-34.9 39.3-39.3 7.9-1.9 23.6-2 30.8-.1zm654.6 438v207.5h71l.2-55.6.3-55.5 37.5 55.5 37.5 55.5 43.8.1c24 0 43.7-.2 43.7-.5s-23.4-33.4-52.1-73.6c-30.1-42.2-51.9-73.6-51.5-74.4.3-.8 23.5-30.2 51.5-65.4 28.1-35.3 51.1-64.3 51.1-64.6s-19.7-.4-43.7-.3l-43.8.3-35.5 47.2c-19.5 26-36.3 48-37.2 49-1.7 1.6-1.8-3.9-1.8-115.5v-117.2h-71zm-449.5-84.5c-47.5 4.1-88.7 30.6-110.9 71.3-23 42.2-24.4 98.5-3.6 142.1 19.4 40.8 56.8 69 101.8 76.7 23.3 3.9 52.4 1.9 73.6-5.2 41.6-13.8 74.5-46.8 88-88.1 6-18.5 7.1-26.5 7.1-51.3-.1-19.8-.4-24.3-2.2-32.7-13.5-60-56.5-101.7-114.8-111.2-11.8-1.9-27.8-2.6-39-1.6zm33.2 72.1c11.8 3.6 20.1 8.6 28.8 17.4 14.9 14.8 21.6 32.4 21.7 56.5.1 44.4-29.3 76.2-70.2 76.2-27.4 0-49.1-13.6-61.6-38.7-6.4-12.9-8.8-25-8.1-41.5 1.7-38.1 23-64.8 57.2-71.6 9.1-1.8 23.3-1 32.2 1.7zm263.9-69.6c-22.9 4.7-40.3 15.7-54.8 34.5l-2.7 3.5-.1-18.3v-18.2l-35.2.2-35.3.3-.3 143.7-.2 143.8h72.9l.3-85.3c.4-94.7 0-89 7.3-104.6 4.6-9.7 14.3-19.5 23.7-24 23-10.9 51.3-6 65.1 11.3 4.9 6.2 8 12.8 10.9 23.2 2.2 7.8 2.2 8.6 2.6 93.6l.3 85.8h71.9v-97.8c0-104.5 0-105.4-5.1-121.7-6.6-21.4-20.3-40.9-37.4-53.1-8.4-5.9-23-12.7-33.5-15.4-10.9-2.9-39.5-3.7-50.4-1.5zm-813.5 352.9c-6.9 3.8-6.7 16.2.4 19.4 4.6 2.1 9.2 1.5 12.7-1.7 2.9-2.6 3.3-3.5 3.3-8.1s-.4-5.5-3.3-8.1c-3.6-3.2-8.9-3.8-13.1-1.5zm1073.3-.3c-3 1.5-5.4 6.1-5.4 10.4 0 5.5 5.2 10.5 11 10.5 3.4 0 4.8-.6 7.6-3.4s3.4-4.2 3.4-7.6-.6-4.8-3.4-7.6c-2.7-2.7-4.2-3.4-7.2-3.3-2.2 0-4.8.5-6 1zm-765.2 47.6.3 47.8 8.8.3 8.7.3v-20.4c0-19.6.1-20.5 2.3-23.8 2.8-4.1 6-5.9 11-5.9 5.2 0 9.1 2.2 11.1 6.4 1.3 2.8 1.6 7 1.6 23.5v20.1h17v-48.8l-2.8-5.3c-6.5-12.6-25.4-16.6-36.4-7.8l-3.8 3v-37.1h-18zm-606.5-45c-1 1.7-35.7 91.4-35.7 92.3 0 .6 4 1 9.4 1h9.4l1.6-4.3c.9-2.3 2.7-7.1 4-10.7l2.4-6.5 19.9-.3 20-.2 4 10.7 4 10.8 9.6.3c7.3.2 9.7 0 9.7-1 0-1.1-29.6-78.1-34.1-88.6l-1.8-4.2h-11c-6 0-11.2.3-11.4.7zm18.2 37.1c3.4 8.9 6.1 16.5 6.1 16.7 0 .3-5.8.5-13 .5-7.1 0-13-.3-13-.8 0-2 12.6-34 13.2-33.4.3.4 3.4 8 6.7 17zm1107.1 9.2v47.2l24.8-.4c22.3-.4 25.3-.7 31.2-2.7 17.2-5.9 27.4-18.2 30.1-36.4 3.7-24.9-10-46.8-33.2-52.8-2.4-.6-15.3-1.3-28.6-1.6l-24.3-.5zm50.4-27c10.4 3.9 16.6 14 16.6 27s-6.2 23.1-16.6 27c-4.5 1.6-7.8 2-18.9 2h-13.5v-58h13.5c11.1 0 14.4.4 18.9 2zm-402.4-.5v9.5h-12v16h11.8l.4 17.2c.3 15.4.6 17.7 2.5 21.3 4.4 8.2 10.4 11.5 21.1 11.5 7.7 0 15.8-2.1 19.3-4.9l2.4-1.9-3-6.3c-1.6-3.5-3-6.5-3.1-6.7 0-.1-2.1.7-4.5 1.8-5.3 2.4-10.7 2.6-13.6.5-3.2-2.3-4.3-7.5-4.3-20.7v-11.7l11.8-.3 11.7-.3.3-7.8.3-7.7h-24.1v-19h-17zm-682.3 8.5c-10.1 1.7-18.5 8-23.5 17.5-2.4 4.5-2.7 6.1-2.7 15.5 0 8.6.4 11.3 2.1 15.1 3.1 6.7 8.7 12.4 15.2 15.6 5.1 2.5 6.7 2.8 16.2 2.8 9.4 0 11-.3 15.5-2.7 2.8-1.4 6.3-3.9 7.8-5.6l2.8-2.9-5.8-5.2c-6.3-5.5-7.4-5.9-9.4-3.4-3.2 3.8-12.6 5.6-17.2 3.2-6.5-3.3-10-9.1-10-16.4 0-10.3 6.4-17.5 15.6-17.5 4.6 0 9.5 1.8 12.7 4.6 1.4 1.1 2.5.6 7.8-3.8l6.3-5.1-2.8-2.9c-4.2-4.5-10.1-7.5-16.7-8.7s-7-1.2-13.9-.1zm65 0c-11.9 3-20 11.3-23.3 24-3.3 13.1.8 27.6 10.2 35.9 6.1 5.4 12.6 7.4 21.9 6.9 6.4-.3 8-.8 11.9-3.5l4.6-3.3v32h18v-91h-17v3c0 3.3-1.1 3.8-3.1 1.4-3.7-4.5-15.6-7.2-23.2-5.4zm18.3 18.2c6 4.1 7.5 7.1 7.5 15.2 0 6.5-.3 7.7-2.9 11-3.6 4.8-8.6 7-14.7 6.4-12-1.2-18.4-14.4-12.6-25.8 3-6.1 7.6-9 14.2-9 3.8 0 6.1.6 8.5 2.2zm184.7-17.8c-2.6.7-6.1 2.6-7.7 4.1l-3 2.9v-6.4h-17v65h17v-19.3c0-16.9.3-19.7 2-23.5 3-6.5 10.2-8.6 20.9-6 1.1.2 1.8-1.7 2.7-7.7.7-4.4 1-8.3.6-8.7-1.5-1.5-10.9-1.7-15.5-.4zm47.4-.4c-15.9 3.3-25.1 15.6-25.1 33.5 0 10.8 2.5 17.7 8.6 24 7.1 7.4 11.8 9 25.4 9 12.3-.1 15.7-1 23.2-6.2l3.7-2.5-5.1-5.7-5.1-5.8-4.5 2.5c-5.7 3.2-11.1 4.2-16.6 3-4.9-1-10.1-5.7-11.1-10.1l-.7-2.7h45l.6-2.6c1.5-5.7-1.1-16.5-5.6-23.7-6.3-10-20-15.3-32.7-12.7zm11.1 15c3.8 1.1 7.9 5.4 9.3 9.7l.6 2.3h-14c-9.2 0-14.1-.4-14.1-1 0-3.8 5.2-9.6 9.6-11 3.9-1.1 4.4-1.1 8.6 0zm288.5-15c-11.9 3-20 11.3-23.3 24-3.3 13.1.6 27.2 9.8 35.5 6.5 5.8 12.8 7.9 22.5 7.3 6.3-.4 8.1-1 11.9-3.7 2.5-1.7 4.7-3.1 4.9-3.1.3 0 .5 1.4.5 3v3.1l8.3-.3 8.2-.3.3-32.3.2-32.2h-17v3c0 3.3-1.1 3.8-3.1 1.4-3.7-4.5-15.6-7.2-23.2-5.4zm18.3 18.2c5.5 3.8 7.4 7.1 7.7 14.1.4 7-1.9 12.3-7 16.1-4.2 3.1-14 3-18.6-.3-4-2.9-7-9.1-7.1-14.6 0-5.4 3.7-12.4 7.9-15.2 4.7-3.2 12.5-3.2 17.1-.1zm232-18.2c-31.8 5.6-38.1 49.5-9.2 63.7 5.1 2.5 6.7 2.8 16.2 2.8 9.4 0 11.1-.3 16.1-2.8 6.6-3.2 13.2-10 16-16.3 4.6-10.2 3.3-23.9-3-33.5-7-10.6-22.1-16.4-36.1-13.9zm16.1 18.3c14.2 9.6 7.8 32.7-9.1 32.7s-23.3-23.1-9.1-32.7c4.7-3.2 13.5-3.2 18.2 0zm276.2-18.3c-14.3 3-23.8 14.6-25 30.4-1.1 14.6 5.4 27.2 17.1 33.4 4.7 2.5 6 2.7 16.6 2.7 10.5 0 12-.2 17.7-2.9 3.4-1.5 6.9-3.6 7.8-4.6 1.5-1.6 1.3-2.1-3.3-7l-4.8-5.3-5.6 2.7c-6.9 3.4-15.2 3.7-20.1.9-2.8-1.7-7.6-8.3-7.7-10.6 0-.4 10.4-.7 23.1-.7h23.2l-.5-8.3c-.4-5.2-1.3-10.1-2.6-13-2.8-6.3-9.3-13.1-15-15.5-5.6-2.4-15.1-3.4-20.9-2.2zm12 15.4c3.9 1.6 8.7 7 8.7 9.7 0 1.8-.9 1.9-14 1.9h-14l1.5-3.8c2-4.8 3.3-6 8.1-7.7 5-1.8 5.8-1.8 9.7-.1zm57.7-15.3c-11.6 1.9-19 9.8-19 20.1 0 6.4 2 10.9 6.1 14.1 4.6 3.5 7.5 4.5 18.1 6.2 10.3 1.6 14.1 3.5 13.6 6.8-.9 6.1-16.2 7.4-27.4 2.3-3.1-1.4-6-2.3-6.5-2s-2.3 3.2-3.9 6.5l-3 5.9 4 2c9.8 5 28.9 6.7 38.7 3.4 12-4 18.1-13.8 15.3-24.4-2.3-8.7-9.1-13-23.6-15.4-5.1-.8-10.1-1.9-11.3-2.5-2.9-1.6-2.7-5.6.4-7.7 3.3-2.2 13.7-1.5 21.8 1.4l5.9 2.1 2.9-6.4c1.6-3.6 2.9-6.7 2.9-6.9 0-1.9-23-7.1-28.5-6.5-.5.1-3.5.5-6.5 1zm113.7.3c-2.6.7-6.1 2.6-7.7 4.1l-3 2.9v-6.4h-17v65h17v-18.3c0-10 .5-19.8 1-21.8.5-1.9 2.4-4.8 4.1-6.5 2.6-2.5 3.8-2.9 8.7-2.9 3.1 0 6.9.3 8.3.7 2.6.8 2.6.8 3.8-7.8.7-4.8 1.1-8.8.9-8.9-1.2-1.2-12.1-1.2-16.1-.1zm47.5-.4c-10.1 2.1-18.3 8.6-22.6 17.9-1.7 3.8-2.1 6.5-2.1 15.6 0 9.7.3 11.6 2.5 16 5.6 11.3 14.5 16.7 28.6 17.3 10.6.5 17.3-1.1 24.7-5.8l4.8-3-5.2-6-5.2-6-2.6 1.8c-6.9 4.8-16.5 5.9-22.3 2.5-3.4-2-7.8-7.6-7.8-9.9 0-1.1 4.3-1.4 23-1.4h23v-4.8c-.1-11.1-4.7-22.4-11.7-28.1-6.5-5.4-18.1-8-27.1-6.1zm14.5 16.6c2.5 1.6 4.8 4.8 5.8 8.1l.6 2.3h-14c-7.8 0-14.1-.2-14.1-.5 0-1.7 3-7.3 4.8-8.8 4.2-3.8 12-4.3 16.9-1.1zm-1277.7 3.1c0 27.7 2 35.1 11 41.8 7.3 5.4 21.3 7.1 32 3.9 6.7-2 15-9.9 16.8-16 .8-2.7 1.2-11.8 1.2-26.3v-22.1h-16.9l-.3 21.5-.3 21.5-3.3 3.2c-2.9 3-3.8 3.3-9.2 3.3s-6.3-.3-9.2-3.3l-3.3-3.2-.3-21.5-.3-21.5h-17.9zm79 13.8v32.6l8.8-.3 8.7-.3.3-32.3.2-32.2h-18zm189-31.8c.1.4 4.9 15 10.8 32.3l10.7 31.5h19.9l6.6-20c3.6-11 6.8-20.7 7.1-21.5s3.7 8.2 7.5 20l7 21.5 10 .3 10.1.3 10.6-31.8c5.9-17.5 10.7-32.1 10.7-32.6 0-.4-4-.7-8.8-.7h-8.9l-6.3 20.7c-3.5 11.5-6.7 21.5-7.1 22.3s-3.5-7.2-7.9-20.8l-7.1-22.2h-18.5l-7 21.9c-3.8 12-7.1 21.7-7.4 21.4-.3-.2-3.4-9.9-7-21.6l-6.5-21.2-9.3-.3c-5-.1-9.2.1-9.2.5zm368-.1c0 .3 6.1 11.8 13.6 25.5l13.6 24.8-11.1 20c-6.1 11-11.1 20.2-11.1 20.5s4.2.6 9.3.6h9.4l24.4-45.2c13.4-24.8 24.6-45.5 24.7-46 .2-.4-3.9-.8-9.2-.8h-9.5l-8.3 16c-4.6 8.8-8.6 16-8.9 16-.4 0-4.4-7.2-9-16l-8.4-16h-9.7c-5.4 0-9.8.3-9.8.6zm160 22.1c0 21.8.1 23 2.4 27.9 4.7 10.1 14.4 15.4 28.2 15.4 13.2 0 23.1-5.7 27.8-15.9 1.9-4.1 2.1-6.8 2.4-27.4l.4-22.7h-18.2v20.1c0 22.5-.6 25.3-6.4 28.4-4.1 2.2-11.7 1.6-14.8-1.1-4.2-3.8-4.8-7.2-4.8-27.9v-19.5h-17zm356.2 9.5.3 32.3h17l.3-32.3.2-32.2h-18z"/></svg>