<svg height="1000pt" viewBox="100 413.2 800 172.8" width="1000pt" xmlns="http://www.w3.org/2000/svg"><path d="m100 421.4c0 6.8.2 7.4 2.3 8 1.2.3 9.7.6 18.9.6 15.5 0 16.8.1 17.8 1.9.6 1.3 1 20.6 1 55.9v54l2.3.6c3.4.9 11 .7 12.7-.4 1.3-.8 1.6-8.6 2-56.5.5-60.3.2-56.6 6-58.2 1.3-.3 8.8-.1 16.5.5 17.9 1.6 27.8 1.5 29.3 0 .7-.7 1.2-3.3 1.2-5.9 0-8.7 5.4-7.9-55.6-7.9h-54.4zm270 56.5v63.8l3.1.7c5.5 1.1 10.7.7 12.3-1 1.4-1.3 1.6-4.9 1.6-24.2 0-26.1.8-30.9 6.5-37.8 6.2-7.5 10.7-9.8 20.1-10.2 6.2-.3 9.1 0 11.7 1.3 5.3 2.5 11.2 7.9 14.3 13.2l2.8 4.8.4 26.6.4 26.7 3 .6c4.3.8 10.1.7 11.6-.3 1-.6 1.2-6.8 1-30.2l-.3-29.4-3.3-6.3c-4.5-8.5-12.2-16.1-20.8-20.3-6.7-3.3-7.1-3.4-19.9-3.4-11.8 0-13.3.2-16.7 2.3-2.4 1.5-4.9 2.2-7 2l-3.3-.3-.6-21c-.3-11.6-.6-21.1-.7-21.3-.1-.1-3.8-.2-8.2-.2h-8zm346.6-61.7c-.3 1.3-.6 4.7-.6 7.5v5.3h14v-15h-6.4c-5.8 0-6.4.2-7 2.2zm37.4 5.2c0 4.2.5 7.8 1.1 8.1.6.4 3.7.9 7 1.2 8.1.8 8.9-.1 8.9-9.3v-7.4h-17zm3 49c0 30.1 1.1 44.5 3.5 45.9.7.4 1.6 2.1 2 3.7.4 1.7 1.5 3.5 2.6 4 1 .6 1.9 1.5 1.9 2.1 0 1.2 5.8 6.9 6.9 6.9.4 0 2.2 1.1 4.1 2.5s4.2 2.5 5.2 2.5c.9 0 3.6.9 5.8 2.1 2.6 1.4 4.9 1.9 6.5 1.5 2.3-.6 2.5-1.1 2.5-7.1 0-6.9.2-6.6-6.7-8-1.7-.3-3.7-1.3-4.4-2.1-.6-.8-1.6-1.4-2.2-1.4-1.9 0-10.6-9.9-11.3-12.8-.4-1.5-1.4-3.7-2.2-5-2.1-3.3-2.4-32.1-.3-34.5 1.1-1.4 3.3-1.7 12-1.7 15.5 0 15.2.1 14.9-7.9l-.3-6.6-12.8-.5c-14.7-.6-15.7-1.1-15.7-8.7v-4.3h-12z"/><path d="m207.6 452.2c-8 1-15.3 4.3-22 10.1-4.8 4-11.6 13.4-11.6 15.8 0 .8-.7 2.7-1.7 4.4-1 1.9-1.8 6.3-2.1 11.7-.4 7.4-.1 9.8 1.8 15 5.2 14.1 12.6 23 23.8 28.3 10.7 5.1 9.5 4.9 36.2 5.3 21.9.3 25.8.2 26.8-1.1.9-1 1.2-4 1-8.4l-.3-6.8-24.5-.6c-22.3-.5-25-.8-29.9-2.8-10.1-4.1-18.1-16.1-18.1-26.9 0-8.5 5.6-18.3 13.5-23.8 3.5-2.5 5.1-2.9 13.2-3.2 10.1-.4 13 .5 19.6 5.9 3.9 3.2 7.7 9.5 7.7 12.7 0 2.7-3.4 3.2-22.5 3.2-13.3 0-16.5.3-17.5 1.5-1.6 2-.7 13.4 1.2 14.6.7.5 13.5.9 28.4.9 23 0 27.3-.2 28.4-1.5.9-1.1 1.1-4.4.8-11.8-.5-8.2-1.1-11.4-3.2-16-3.9-8.5-6.1-11.4-14.5-18.7-3.7-3.2-12.9-7-18.1-7.6-3-.3-6.4-.7-7.5-.8-1.1-.2-5.1.1-8.9.6zm95.9.4c-8 2-24.5 14.5-26.1 19.7-.3 1.2-1.2 2.9-2 3.7-.7.9-2.2 5.7-3.3 10.8l-2.1 9.2 2 8.9c1.8 8.2 3 10.8 9.7 21.2 2.5 3.9 12.8 11.1 19.7 13.8 5.7 2.2 7.8 2.4 29.1 2.8 14.8.3 24 .1 25.8-.6 2.5-1 2.7-1.4 2.7-7.3 0-3.5-.4-6.8-.8-7.5-.5-.8-7.8-1.3-24.2-1.5-20.4-.4-24.1-.7-28-2.4-10-4.3-14.9-10.3-17-21.2-2.4-12 1.8-22.4 11.8-29.4 4.6-3.2 4.9-3.3 15.3-3.3h10.7l4.8 4.1c6.5 5.5 10.3 11 11.2 16.4l.8 4.5h15.9l-.2-6.2c-.5-11.7-9.9-25-22.8-32.2-5.8-3.2-6.5-3.3-18.5-3.7-6.9-.1-13.4-.1-14.5.2zm168.5.3-2.5.7-.3 23.4c-.3 26 .3 30.5 5.9 41.3 2.8 5.4 11.5 15.7 13.3 15.7.4 0 2 .8 3.4 1.8 4.8 3.3 15.4 6.2 22.7 6.2 7.2 0 18.5-3 21.8-5.9 1.4-1.1 2.2-1.2 3.5-.4 1.5.9 1.7 3.8 2 25.7l.2 24.6h17v-66c0-64.2-.1-66-1.9-67-2.2-1.1-8.2-1.2-12.1-.1l-2.5.7-.5 25.9-.5 26-2.7 4.5c-3.9 6.5-8.5 10.6-14.8 12.9-10.7 4.1-20.9 1.9-29.1-6.2-7.5-7.4-8.2-10.6-8.6-38.7-.3-20.4-.6-23.7-2-24.8-1.8-1.3-8.1-1.5-12.3-.3zm379.2.8c-6 .3-9.2.9-11.5 2.3-1.8 1.1-4.1 2-5.1 2-2.2 0-2.9.6-11 8.6-7.8 7.8-8.6 8.8-8.6 10.5 0 .8-1 3-2.2 4.9-1.7 2.9-2.1 5.1-2.2 12.5l-.1 9 32.9.3c22.3.1 33.4.6 34.3 1.3 1.9 1.6 1.6 7.2-.4 9.1-1 .9-2.4 2.3-3 3-3.2 3.3-5.2 4.7-10.4 7.2-5.2 2.4-6.6 2.6-18.8 2.6h-13.2l.3 7.2.3 7.3 12 .3c12.2.3 21.4-1.5 28.5-5.4 1.4-.7 3.6-1.9 5-2.6 2.7-1.5 12-10.5 12-11.7 0-.5.9-2 2-3.4s2.5-4.8 3-7.6c1.1-5.7 2.6-9.1 4-9.1.6 0 1-2.2 1-4.9 0-4.6-.1-4.9-3.1-5.5-1.7-.3-17.3-.6-34.5-.6-30.1 0-31.5-.1-33.4-2-1.1-1.1-2-2.5-2-3 0-2.7 8.5-13 10.6-13 .6 0 2.3-.9 3.7-2 2.2-1.8 4-2 16-2 7.5 0 14.2-.3 15.1-.6 1.2-.5 1.6-2.1 1.6-7.4s-.4-6.9-1.6-7.4c-1.5-.6-3.7-.6-21.2.1zm-269.2 44.3v44.1l38.8-.3c33.8-.3 39-.5 41.2-1.9 1.4-.9 4.1-2 6.1-2.3 2-.4 4.4-1.5 5.4-2.6s2.2-2 2.7-2c1 0 10.8-9.6 10.8-10.5 0-.4.9-1.8 2-3.2s2-3.5 2-4.7.9-3.9 2-6.1c1.8-3.6 2-5.9 2-29.2v-25.3h-13.9l-.3 27.1c-.3 23.3-.5 27.2-1.9 28.2-.9.7-1.9 2.4-2.2 3.8-.8 3-7.2 9.9-9.3 9.9-.7 0-2.2 1-3.3 2.2-1.8 1.8-3.2 2.1-10.2 2.2-6.9.1-8.3-.2-9.5-1.8-1.1-1.6-1.4-8.3-1.4-36.8v-34.8h-4.5c-3.4 0-4.7.5-5.5 1.9-.6 1.3-1 14-1 34.6v32.6l-2.5 2.4c-2.3 2.4-2.9 2.5-16.7 2.5-7.9 0-14.9-.4-15.5-.8-1-.6-1.3-9.5-1.5-36.8l-.3-35.9-6.7-.3-6.8-.3zm134-1.8c0 24.4.4 42.9 1 43.8.6 1 2.7 1.5 6.7 1.5h5.8l.3-43.8.2-43.7h-14z"/></svg>