<svg height="2500" viewBox="125.5 228 348.6 143" width="2500" xmlns="http://www.w3.org/2000/svg"><path d="m150.7 229.1c-9.3 2.2-18.2 9.4-22.7 18.4-2.1 4.3-2.5 6.4-2.5 14.5 0 8.5.3 10.1 3 15.3 5.4 10.8 17.3 18.7 28 18.7h4.5v-11c0-10.5-.1-11-2.1-11-4.8 0-10.6-4.9-11.5-9.7-1.2-6.4 3.6-12.7 10.1-13.5l3-.3.3-11.3.3-11.2-3.3.1c-1.8.1-5 .5-7.1 1zm14.3 61.8c0 67.2-.1 65.9 5 72.4 2.6 3.3 10.9 7.7 14.5 7.7h2.5v-143h-22zm26-5.9v11h283v-3c0-3.9-2.9-9.7-6.7-13.2-6.4-6.1 1-5.8-143.9-5.8h-132.4zm60.6 24.5c-10.2 3.9-15.9 12.6-15.9 24.5 0 15.7 10.1 26 25.5 26 10.1-.1 19.2-5.2 22.4-12.9 2.4-5.7 2.1-6.1-5.2-6.1-5.9 0-7 .3-10.1 3-2.6 2.4-4.3 3-7.7 3-3.8 0-4.8-.5-7.5-3.5-2.7-3.2-3.1-4.3-3.1-9.6 0-5.6.3-6.4 3.4-9.5 4.6-4.6 10-4.8 14.9-.4 3.1 2.7 4.2 3 10.1 3 7.4 0 7.9-.6 5-6.3-4.1-8-10.6-11.9-20.9-12.3-4.5-.3-8.4.1-10.9 1.1zm-52.2.8c-.2.7-.3 12-.2 25.2l.3 24 16.3.3 16.2.2v-11h-18.1l.3-4.8.3-4.7 7.8-.3 7.7-.3v-9.9h-16v-9h18v-11h-16c-12.1 0-16.2.3-16.6 1.3zm90.6 24.2v25.5h13.9l.3-10.3.3-10.2h17l.5 10 .5 10 6.8.3 6.7.3v-51.2l-6.7.3-6.8.3-.3 9.3-.3 9.3-8.7-.3-8.7-.3-.3-9.3-.3-9.2h-13.9zm60.7-24.9c-.4.4-.7 1.3-.7 2.1 0 1 2.7 1.3 11.9 1.3 6.6 0 12.2.3 12.5.8.2.4-5.4 10.3-12.5 22.1-7.1 11.7-12.9 21.9-12.9 22.7 0 1.1 3 1.4 16 1.4 15.3 0 16-.1 16-2s-.7-2-12.5-2c-13.4 0-13.9-.2-10.7-4.8 6.6-9.5 23.3-38.6 23-40-.3-1.5-2-1.7-14.9-2-8-.1-14.8.1-15.2.4zm36.3 24.9v25.5h13.1c11.9 0 13-.2 12.7-1.8-.3-1.5-1.8-1.7-11.1-2l-10.8-.3.3-9.7.3-9.7 9.8-.3c8.7-.2 9.8-.5 9.5-2-.3-1.4-1.8-1.7-10.1-2l-9.7-.3v-18.9h11.1c10 0 11-.2 10.7-1.8-.3-1.5-1.9-1.7-13.1-2l-12.7-.3zm32 0v25.5h13c12.3 0 13-.1 13-2s-.7-2-10.5-2h-10.6l.3-9.8.3-9.7 9.3-.3c8.2-.2 9.3-.5 9-2-.3-1.4-1.8-1.7-9.6-2l-9.2-.3v-18.9h10.5c9.8 0 10.5-.1 10.5-2s-.7-2-13-2h-13zm32.7-24.9c-.4.4-.7 11.9-.7 25.6v24.8h11.6c10.5 0 11.5-.2 11.2-1.8-.3-1.4-1.7-1.7-9-2l-8.8-.3-.2-23.2c-.3-20-.5-23.2-1.8-23.5-.9-.1-1.9 0-2.3.4z"/></svg>