<svg height="500pt" viewBox="0 0 500 500" width="500pt" xmlns="http://www.w3.org/2000/svg"><path d="M0 250v250h500V0H0zm158.5-65.4c9.4 2 22.2 4.7 28.5 6.1 13.8 2.9 35.2 4.1 42 2.3 8.8-2.3 9.8-2.3 13.5 0 4.6 2.8 4.7 6 .2 10.5-6.4 6.4-19 8.6-38.5 6.6-6-.6-7.7-.4-9 .9-1.8 1.6-6.2 10.3-6.2 12.1 0 .6-1.2 3.6-2.6 6.7s-3.9 9.1-5.4 13.2c-2.8 7.5-5.9 15-11 27-1.5 3.6-3.6 8.7-4.6 11.5-4.1 11.1-9.6 19.5-18.1 27.5-9.5 9-16.8 12-28.8 12-12.1 0-18-2.5-27.3-11.4-5.7-5.5-7.6-9.9-8.7-20.4-1-9 3.2-19.2 11.1-26.8 6.1-5.9 17.8-9.9 22.1-7.5 3.8 2 3.7 12.9 0 15.3-.7.4-2.5.8-4.1.8-2.2 0-4.2 1.2-7.8 5-4.5 4.7-4.8 5.3-4.8 10.2.1 3.4.9 7 2.3 9.8 1.9 3.8 3.1 4.8 7.7 6.8 9.3 3.8 18.9 1.2 27.6-7.6 5-5.1 11.5-17.7 16.9-32.7 1-2.8 2.2-5.5 2.5-6 .4-.6 1.1-2.1 1.5-3.5s2-5.2 3.5-8.5 4.2-9.8 6-14.5 4.4-11.2 5.7-14.5c1.4-3.3 2.7-6.5 3-7.2.9-2.2-4.2-4.2-19.2-7.3-21.4-4.4-31.9-5.4-38.4-3.4-7.5 2.2-10.3 5.3-10.9 11.7-.4 4.9-.2 5.6 2.7 8.3 3.9 3.7 8.1 4.4 15.4 2.4l5.9-1.5 2.4 2.8c3.7 4.3 4.1 7.4 1.3 10.3-1.2 1.3-2.9 2.4-3.6 2.4-.8 0-2.4.7-3.7 1.5-1.4 1-4.9 1.6-8.8 1.7-13.9.2-24.4-8.4-27.3-22.4-1.9-9.5 1.5-19.6 9-26.1 3.3-2.9 11.7-7 16-7.8 7.8-1.5 24.5 0 42 3.7zm79.1 47c5.8 2.8 10 8.6 10.8 14.9 1.1 9.3-4 21.5-12 28.4-7.3 6.5-14.9 8.6-31.5 9-2.8.1-3.8.6-4.7 2.6-4.5 9.9 4.4 19.8 16.2 18.1 7.3-1.1 17.7-7 24.8-13.9 8.8-8.6 15.8-18 15.8-21.2 0-.8 2.3-5.8 5-11.2 5.8-11.1 12.3-18.5 21.5-24.1 5.8-3.6 6.3-3.7 15.7-3.7 9.2 0 9.8.1 13.4 3.1 6.5 5.2 7.4 7.1 7.5 15.2.1 6-.4 8.3-2.9 13.6-6.6 14.1-15.8 19.9-33.3 21.1-10 .6-10.7.8-11.8 3.1-2.5 5.6-.5 12.5 4.6 16 2 1.3 4.6 1.9 8.9 1.9 4.9 0 7.3-.6 13.5-3.7 7.4-3.7 17.2-12.1 23.4-20.1 2.9-3.7 12.9-21.7 18-32.4 3.6-7.4 11.8-16 16.7-17.5 4.1-1.2 14.8-.4 27.8 2.2 3 .6 8.5.8 12.1.5 6.4-.6 6.8-.5 8.8 2.1 4 5.1 3.2 6.5-12.5 21.7-27.5 26.5-32.6 31.8-32 33.3.3.7 2.4 2.2 4.8 3.3 11.4 5.1 16.5 5.3 22.9 1.2 4.7-3.1 9.9-7.7 9.9-8.9 0-.4 1-1.8 2.3-3.2 1.2-1.4 3.5-4.6 5-7.3 3-5.1 6.1-6.2 9.1-3.1 2.4 2.3 2 3.6-2.9 12-7 11.8-15.6 21.4-25 28-4.2 2.9-5.9 3.3-15 3.5-7.1.2-8.9-.2-16-3.2-8.6-3.8-12.9-3.9-19.7-.4-2.5 1.2-3.4 1.3-4.7.2-2.5-1.9-5-5.1-5.1-6.3 0-1.1 21.1-22.5 41-41.5 5.5-5.2 10-10 10-10.6 0-1.5-7.7-4.3-13.6-5-9.8-1.1-14 2.8-25.5 23.2-8.4 15-10.4 18-18.3 26.3-16 16.7-41.5 22.9-57.8 13.9-5.1-2.8-8-7.2-8.6-12.9-.2-2.6-.8-4.8-1.2-4.8s-3.2 2.5-6.1 5.5-5.8 5.5-6.5 5.5-1.4.3-1.6.7c-1.5 3.6-16.1 8.9-26.7 9.9-11.8 1.1-23.3-2.8-27.1-9.3-8.7-14.7-.9-47 15.4-64.1 4.4-4.7 13.6-11 17.6-12.3 4.7-1.4 16-1 19.6.7z"/><path d="M222 246.7c-5.1 1.9-18.3 21.3-16.5 24.3 1.2 2 9.7 1.1 14-1.4 6.3-3.7 12.8-17.3 10.4-21.8-.9-1.8-4.6-2.3-7.9-1.1zM294 246.8c-4.7 2.1-10.8 9.3-14.6 17.2-3.5 7.4-3.3 8 2.9 8 5.3 0 10.6-2.3 13.5-5.9 3.1-3.9 6.3-12.3 6-15.9-.3-3.3-.6-3.7-3.3-3.9-1.6-.1-3.7.1-4.5.5z"/></svg>