<svg viewBox="0 -0.010677405327698786 200.00000861044933 55.44116746302458" xmlns="http://www.w3.org/2000/svg" width="2500" height="693"><path d="M199.64 31.83a2.83 2.83 0 1 1-2.83-2.83 2.84 2.84 0 0 1 2.83 2.83zm-2.83-3.2a3.19 3.19 0 1 0 3.19 3.2 3.2 3.2 0 0 0-3.19-3.2z" fill="#fff"/><path d="M195.47 33.88v-4H197a2.17 2.17 0 0 1 .83.11.88.88 0 0 1 .41.38 1.34 1.34 0 0 1 .15.64 1.22 1.22 0 0 1-.23.75 1 1 0 0 1-.7.37 2.21 2.21 0 0 1 .39.34 3.87 3.87 0 0 1 .4.65l.42.8h-.84l-.51-.88a4.73 4.73 0 0 0-.37-.6.57.57 0 0 0-.22-.17 1.42 1.42 0 0 0-.36 0h-.14v1.69zm.72-2.33h.52a1.94 1.94 0 0 0 .63-.06.33.33 0 0 0 .2-.17.54.54 0 0 0 .07-.29.52.52 0 0 0-.09-.33.37.37 0 0 0-.28-.16 3.68 3.68 0 0 0-.51 0h-.54z" fill="#fff"/><path d="M24.35 34.69a3.25 3.25 0 0 0 3.26-3.25v-9.55c0-5.86 2-7.1 5-7.1h5a5.62 5.62 0 0 0 5.61-3.53c0 3.9-1.37 7.28-5.61 7.28h-4c-1.63 0-2.23 2.17-2.23 3.3v9.61a6.89 6.89 0 0 1-7 7 7 7 0 0 1-7-7V17.56a3.55 3.55 0 0 0-3-3.83H6.56a1.87 1.87 0 1 1 0-3.74h7.9c4.28 0 6.7 1.24 6.65 7.54v13.92a3.2 3.2 0 0 0 3.24 3.24z" fill="#009844"/><path d="M12.56 22v10.69c0 2.53 2.59 5.55 7.25 5.55a6.37 6.37 0 0 1-3.5-5.61V22c0-6.43-4.17-6.86-9.42-6.86a3.38 3.38 0 0 1-3.15-3.24A3.22 3.22 0 0 1 7 8.82h29.58a1.88 1.88 0 0 0 0-3.75H7a6.84 6.84 0 0 0-7 6.8c0 3.32 1.43 7 7.27 7 3.46-.05 5.29.3 5.29 3.13z" fill="#009844"/><path d="M.14 7.52C.14 1.84 3.27 0 5.75 0h30.56a6.85 6.85 0 0 1 6.89 6.87 7 7 0 0 1-6.88 6.88h-7.95c-1.1 0-2.22 1.1-2.22 3.72v14a1.87 1.87 0 0 1-3.74 0V17.53c0-6.33 1.81-7.52 5.72-7.52h8.16a3.15 3.15 0 0 0 3.14-3.14 3 3 0 0 0-3.15-3.13H5.71C2.06 3.74.14 7.52.14 7.52z" fill="#009844"/><g fill="#fff"><path d="M131.6 3.05h3.72v31.98h-3.72zM137.51 3.05h3.72v31.98h-3.72zM145.94 3.05h3.71v31.98h-3.71zM185.31 3.05h3.72v31.98h-3.72zM176.84 35.03h-4.41L155.64 9.96v25.07h-3.72V3.05h3.72zM179.34 35.03h3.7V3.05h-3.72v25.18L162.46 3.05l-4.43-.01zM70.9 35.03h4.03V10.97h13.34V7.98H70.9zM69.19 7.97v27.06H65.2V10.97H51.81V7.98zM51.81 3.05h36.46v3H51.81zM97.07 32.03h29.56v2.99H97.07zM91.48 3.05h4.03v31.98h-4.03zM97.07 17.62h29.56v-2.11h-25.52v-4.67h25.52v-3H97.07zM97.07 29.92h29.56v-2.99h-25.52v-4.87h25.52v-2.11H97.07zM97.07 3.05h29.56v3H97.07zM35.43 43.89l-.07.67c0 .15 0 .35-.06.59v.48l-.06.06h-.34l-.06-.06a2.48 2.48 0 0 0-.1-.91c-.09-.12-.64-.18-1.64-.18h-.76a21 21 0 0 0-.07 2.16v.79H34.05a.3.3 0 0 0 .22-.09 2.3 2.3 0 0 0 .1-.78l.06-.06h.37l.06.06v2.51l-.06.06h-.4l-.06-.06a2.91 2.91 0 0 0-.05-.73c-.07-.14-.27-.22-.61-.25H32.27v1.41a13.4 13.4 0 0 0 .08 1.83.24.24 0 0 0 .2.21l.84.06.06.06v.4l-.06.06h-3.78l-.06-.06v-.4l.06-.06a4.71 4.71 0 0 0 .69-.06.26.26 0 0 0 .2-.21 13.4 13.4 0 0 0 .08-1.83v-3.1a13.11 13.11 0 0 0-.08-1.82.26.26 0 0 0-.2-.22 4.71 4.71 0 0 0-.69-.06l-.06-.06v-.4l.06-.06h5.82zM42.28 49.25a2.88 2.88 0 0 1-1.41 2.82 3.29 3.29 0 0 1-1.56.36 2.65 2.65 0 0 1-2.07-.78 3.26 3.26 0 0 1-.71-2.25 2.71 2.71 0 0 1 1.38-2.7 3.57 3.57 0 0 1 1.58-.33A2.48 2.48 0 0 1 42 47.68a3.6 3.6 0 0 1 .28 1.57zm-1.64.48a4.88 4.88 0 0 0-.32-2.1 1 1 0 0 0-1-.64c-.78 0-1.18.71-1.18 2.12 0 1.81.44 2.72 1.32 2.72a1 1 0 0 0 1-.9 5 5 0 0 0 .18-1.2zM47.58 46.47V48.11l-.25.07a.93.93 0 0 0-1.5 0 1 1 0 0 0-.17.64v2.58a.3.3 0 0 0 .12.28 2.39 2.39 0 0 0 .82.09l.06.05v.36l-.06.06h-3.33l-.06-.06v-.36l.06-.06a2 2 0 0 0 .7-.09c.08 0 .12-.13.13-.28V48.9a5.18 5.18 0 0 0-.1-1.39.3.3 0 0 0-.25-.15h-.52v-.43a10.29 10.29 0 0 0 2.24-.49l.13.08v1.15l.88-1a1 1 0 0 1 .66-.23 1 1 0 0 1 .44.03zM58.87 44.11c-.62.85-1.3 1.88-2 3.11a6.34 6.34 0 0 0-.69 1.33 1.68 1.68 0 0 0 0 .44v.58a8.2 8.2 0 0 0 .11 1.93.19.19 0 0 0 .13.1 4 4 0 0 0 .73.08l.06.06v.4h-3.7v-.4l.06-.06a4 4 0 0 0 .73-.08.21.21 0 0 0 .13-.1 8.2 8.2 0 0 0 .11-1.93v-.69a8.37 8.37 0 0 0-.93-1.8A12.92 12.92 0 0 0 52 44.91a1.56 1.56 0 0 0-.37-.31 1.33 1.33 0 0 0-.44 0l-.07-.07v-.33l.06-.06c1-.19 1.58-.32 1.85-.4a2.08 2.08 0 0 1 .55.38 9.53 9.53 0 0 1 1.34 2.18l.78 1.55q.3-.59 1.3-2.29l.66-1.18.29-.54h.86l.06.06zM64.45 49.25A2.88 2.88 0 0 1 63 52.07a3.27 3.27 0 0 1-1.56.36 2.68 2.68 0 0 1-2.07-.78 3.26 3.26 0 0 1-.71-2.25 2.71 2.71 0 0 1 1.38-2.7 3.6 3.6 0 0 1 1.58-.33 2.47 2.47 0 0 1 2.49 1.31 3.6 3.6 0 0 1 .34 1.57zm-1.63.48a4.85 4.85 0 0 0-.33-2.1 1 1 0 0 0-1-.64c-.78 0-1.17.71-1.17 2.12 0 1.81.43 2.72 1.31 2.72a1 1 0 0 0 1.05-.9 5.63 5.63 0 0 0 .14-1.2zM72.16 52.14l-.06.06h-2.27v-.05-.92a13.58 13.58 0 0 0-1.07 1 2.25 2.25 0 0 1-.82.15 1.77 1.77 0 0 1-1.26-.44 1.61 1.61 0 0 1-.46-1.24v-.43-1.38a5.29 5.29 0 0 0-.09-1.36c0-.08-.12-.13-.25-.15H65.3V47l.06-.07a10.21 10.21 0 0 0 2.29-.49l.12.08c-.05.65-.07 1.25-.07 1.81v1.15a8.33 8.33 0 0 0 0 1.1.83.83 0 0 0 .28.54.92.92 0 0 0 .59.18 1.24 1.24 0 0 0 .81-.29 1 1 0 0 0 .35-.67V48.87a5.35 5.35 0 0 0-.09-1.36q0-.12-.24-.15H68.81V47l.07-.07a10.13 10.13 0 0 0 2.28-.49l.13.08a17.87 17.87 0 0 0-.08 1.81v1.85a6.65 6.65 0 0 0 .07 1.41.17.17 0 0 0 .12.11 3.34 3.34 0 0 0 .61.07l.07.06zM77.28 46.47V48.11l-.25.07a.92.92 0 0 0-1.49 0 1 1 0 0 0-.18.64v2.58c0 .15 0 .24.12.28a2.44 2.44 0 0 0 .82.09l.06.05v.36l-.06.06h-3.33l-.06-.06v-.36l.06-.06a2 2 0 0 0 .7-.09c.08 0 .12-.13.13-.28V48.9a5.18 5.18 0 0 0-.09-1.36c0-.08-.12-.13-.25-.15H72.89V47l.06-.07a10.21 10.21 0 0 0 2.23-.49l.13.08v1.15l.89-1a.93.93 0 0 1 .66-.23 1.09 1.09 0 0 1 .42.03zM90.07 47.53a4.51 4.51 0 0 1-1.3 3.32 4.37 4.37 0 0 1-1.55 1 6.08 6.08 0 0 1-2.27.36h-2.08a11.8 11.8 0 0 0-1.41 0v-.28a1.89 1.89 0 0 0 .48-.35 3.62 3.62 0 0 0 .06-.78v-4.32a13.11 13.11 0 0 0-.08-1.82.24.24 0 0 0-.2-.22 4.71 4.71 0 0 0-.69-.06L81 44.3v-.4l.06-.06h4.74a6.31 6.31 0 0 1 2.35.34 3 3 0 0 1 1.4 1.21 4 4 0 0 1 .52 2.14zm-1.81.29a3.64 3.64 0 0 0-.79-2.52 2.22 2.22 0 0 0-1-.65 5.94 5.94 0 0 0-1.65-.17 7.22 7.22 0 0 0-1.05.07c0 .44-.06 1.51-.06 3.2v2.58a9.3 9.3 0 0 0 0 1.14 6.23 6.23 0 0 0 1.06.09 4.16 4.16 0 0 0 1.86-.35A2.57 2.57 0 0 0 87.82 50a4.91 4.91 0 0 0 .44-2.18zM95.47 46.47V48.11l-.25.07a.89.89 0 0 0-.76-.4.92.92 0 0 0-.74.36 1 1 0 0 0-.17.64v2.58c0 .15 0 .24.12.28a2.44 2.44 0 0 0 .82.09l.06.05v.36l-.06.06h-3.33l-.06-.06v-.36l.06-.06a2 2 0 0 0 .7-.09c.08 0 .12-.13.13-.28V48.86a5.18 5.18 0 0 0-.09-1.36.3.3 0 0 0-.25-.15H91.08V47l.06-.07a10.33 10.33 0 0 0 2.23-.49l.13.08v1.15l.89-1a.93.93 0 0 1 .66-.23 1.09 1.09 0 0 1 .42.03zM99.32 52.15l-.06.06H96.03l-.03-.06v-.36l.06-.06a2 2 0 0 0 .7-.09c.08 0 .12-.12.13-.28V48.87a5.52 5.52 0 0 0-.09-1.36c0-.07-.11-.12-.25-.14h-.51l-.04-.09V47l.06-.07a9.51 9.51 0 0 0 2.28-.49l.12.08c0 .72-.07 1.32-.07 1.81v3.08c0 .16 0 .25.13.28a2 2 0 0 0 .7.09l.07.06zm-.82-7.7a.92.92 0 0 1-.26.65.87.87 0 0 1-.64.27.85.85 0 0 1-.6-.27.89.89 0 0 1-.27-.65.86.86 0 0 1 .27-.65.88.88 0 0 1 1.27 0 .86.86 0 0 1 .23.65zM106.38 47l-.06.07a1.05 1.05 0 0 0-.47.09.69.69 0 0 0-.2.26c-.08.14-.23.46-.44 1L104.08 51l-.51 1.26h-1c-.22-.62-.46-1.25-.72-1.9-.41-1-.76-1.93-1.06-2.67-.12-.33-.26-.52-.41-.58a1.13 1.13 0 0 0-.35 0l-.1-.11v-.35l.07-.06h3l.06.06V47l-.06.07a2.11 2.11 0 0 0-.57 0 .16.16 0 0 0-.13.16 18.1 18.1 0 0 0 .72 2.07c.26.69.43 1.11.51 1.29q.38-.89.72-1.74a8.38 8.38 0 0 0 .56-1.62.15.15 0 0 0-.12-.16 2.47 2.47 0 0 0-.58-.06L104 47v-.35l.07-.06h2.21l.06.06zM110.34 52.15l-.06.06H107.05l-.06-.06v-.36l.06-.06a2 2 0 0 0 .7-.09c.08 0 .12-.12.13-.28V48.87a6.43 6.43 0 0 0-.08-1.36.33.33 0 0 0-.26-.14h-.51l-.06-.06V47l.06-.07a9.51 9.51 0 0 0 2.28-.49l.13.08c-.06.72-.08 1.32-.08 1.81v3.08c0 .16 0 .25.13.28a2 2 0 0 0 .7.09l.07.06zm-.82-7.7a.92.92 0 0 1-.26.65.87.87 0 0 1-.64.27.85.85 0 0 1-.64-.27.89.89 0 0 1-.27-.65.86.86 0 0 1 .27-.65.88.88 0 0 1 1.27 0 .86.86 0 0 1 .27.65zM117.93 52.14l-.06.07h-2.3l-.06-.06c.08-.88.11-1.55.11-2V49c0-1-.35-1.44-1-1.44a1.07 1.07 0 0 0-.85.37 1 1 0 0 0-.26.64v1.1a12.86 12.86 0 0 0 .08 1.88c0 .13.26.21.68.21l.06.06v.36l-.06.06H111.16l-.06-.06v-.36l.06-.06a2.06 2.06 0 0 0 .71-.09c.07 0 .12-.13.13-.28V48.9a5.18 5.18 0 0 0-.09-1.36.32.32 0 0 0-.25-.15H111.08V47l.06-.07a10.29 10.29 0 0 0 2.24-.49l.13.08v1l1-.85a2.2 2.2 0 0 1 .86-.16 1.7 1.7 0 0 1 1.4.57 2.07 2.07 0 0 1 .38 1.35v2.96a.41.41 0 0 0 .14.31 1.76 1.76 0 0 0 .61.08l.05.06zM124.92 52.57a2.5 2.5 0 0 1-1 2.06 4 4 0 0 1-2.53.76 3.58 3.58 0 0 1-1.93-.45 1.42 1.42 0 0 1-.71-1.23 1.2 1.2 0 0 1 .23-.79s.22-.15.62-.39l.43-.24c-.54-.09-.81-.36-.81-.78a1.24 1.24 0 0 1 .23-.7l.32-.24.5-.36a1.69 1.69 0 0 1-1.27-1.7 1.9 1.9 0 0 1 .72-1.55 2.94 2.94 0 0 1 1.91-.59 2.84 2.84 0 0 1 1.82.52H124.88l.07.06-.07.61-.06.06h-.87a2.25 2.25 0 0 1 .07.58 1.91 1.91 0 0 1-1.36 1.92 3.5 3.5 0 0 1-1.21.23h-.52a.58.58 0 0 0-.37.52c0 .2.14.32.43.34a7.69 7.69 0 0 0 .82 0h1.31c.89 0 1.45.2 1.66.59a1.67 1.67 0 0 1 .14.77zm-1.35.67a.76.76 0 0 0-.45-.81 2.5 2.5 0 0 0-.75-.07h-1.65a1.39 1.39 0 0 0-.8 1.15 1.09 1.09 0 0 0 .47.93 2.55 2.55 0 0 0 2.66-.07 1.37 1.37 0 0 0 .52-1.13zm-1.08-4.8c0-1-.33-1.48-1-1.48s-1 .43-1 1.28q0 1.53 1 1.53c.69 0 1-.45 1-1.33zM135.41 45.69a2.34 2.34 0 0 1-.83 1.9 2.89 2.89 0 0 1-1.87.68 3.53 3.53 0 0 1-.72-.08 1.82 1.82 0 0 0-.21-.43l.13-.13a1.29 1.29 0 0 0 .45.09 1.18 1.18 0 0 0 1-.43 1.75 1.75 0 0 0 .36-1.18c0-1.1-.5-1.65-1.48-1.65-.12 0-.36 0-.71.07a15 15 0 0 0-.05 1.93v3.13a14 14 0 0 0 .07 1.83.26.26 0 0 0 .2.21l.81.06.07.07v.39l-.06.06h-3.76l-.05-.06v-.39l.06-.07a4.71 4.71 0 0 0 .69-.06.26.26 0 0 0 .2-.21 14 14 0 0 0 .07-1.83v-3.13a13.72 13.72 0 0 0-.07-1.82.26.26 0 0 0-.2-.22 4.75 4.75 0 0 0-.7-.06l-.05-.07v-.39l.06-.06h4.28c1.08 0 1.78.28 2.1.82a2.09 2.09 0 0 1 .21 1.03zM139.56 52.14l-.06.06H136.27l-.06-.06v-.36l.06-.06a2 2 0 0 0 .7-.09c.08 0 .13-.13.13-.28 0-.51.05-1.41.05-2.69v-2c0-.83 0-1.5-.05-2a.29.29 0 0 0-.13-.28 1.76 1.76 0 0 0-.68-.09l-.06-.07v-.32l.06-.07a11.59 11.59 0 0 0 2.28-.48l.13.07V44q-.06 1.41-.06 3.12v4.21c0 .15.05.25.13.28a2 2 0 0 0 .7.09l.07.06zM145.65 48.85v.3l-.06.09a8.23 8.23 0 0 1-2.07.21h-1.39a2.22 2.22 0 0 0 .53 1.43 1.72 1.72 0 0 0 1.37.61 3.12 3.12 0 0 0 1.35-.39l.14.17-.26.59a3.45 3.45 0 0 1-1.87.54 2.74 2.74 0 0 1-2.06-.75 2.92 2.92 0 0 1-.74-2.13 2.71 2.71 0 0 1 .79-2.26 3.46 3.46 0 0 1 2.06-.83 2.15 2.15 0 0 1 1.63.6 2.55 2.55 0 0 1 .58 1.82zm-1.54-.15q0-1.59-1-1.59c-.7 0-1 .53-1 1.58v.13a10.37 10.37 0 0 0 1.21 0 6.81 6.81 0 0 0 .82 0zM152 52.13l-.06.07H149.8V51.34l-1.15.88a.9.9 0 0 1-.39.12h-.23a1.3 1.3 0 0 1-1-.39 1.62 1.62 0 0 1-.35-1.09 1.47 1.47 0 0 1 .58-1.31 7.58 7.58 0 0 1 2.55-.75 1.39 1.39 0 0 0-.5-1.26 1.29 1.29 0 0 0-.72-.2 1.26 1.26 0 0 0-.72.19l-.23.55h-.07l-.31-.07V47.23a4.24 4.24 0 0 1 1.47-.81 2.6 2.6 0 0 1 .53 0 2 2 0 0 1 1.66.61 2.09 2.09 0 0 1 .36 1.35v2.96s.07.27.14.31a1.24 1.24 0 0 0 .52.08l.06.06zm-2.16-1.37v-1.45a3.63 3.63 0 0 0-1.31.46.84.84 0 0 0-.34.74c0 .54.23.8.7.8a1.08 1.08 0 0 0 .93-.55zM157.34 50.31a1.9 1.9 0 0 1-.71 1.53 2.89 2.89 0 0 1-1.88.58 5.18 5.18 0 0 1-1.76-.35l-.06-.09c0-.36.06-.64.06-.84v-.75l.06-.06h.35l.07.06a6.52 6.52 0 0 0 .06.78 1.57 1.57 0 0 0 1.31.64 1.26 1.26 0 0 0 .83-.25.84.84 0 0 0 .32-.68.69.69 0 0 0-.48-.71 6 6 0 0 0-.79-.2 3.38 3.38 0 0 1-1.31-.48 1.42 1.42 0 0 1-.5-1.18 1.73 1.73 0 0 1 .62-1.38 2.66 2.66 0 0 1 1.76-.54 3.48 3.48 0 0 1 1.57.32l.05.09a11.46 11.46 0 0 0-.1 1.37l-.06.06h-.34l-.06-.06a4.5 4.5 0 0 0-.09-.69 1.26 1.26 0 0 0-1.08-.48 1.22 1.22 0 0 0-.75.23.7.7 0 0 0-.3.59.64.64 0 0 0 .5.65 7.31 7.31 0 0 0 .88.2 3.34 3.34 0 0 1 1.31.45 1.44 1.44 0 0 1 .52 1.19zM165 52.14l-.06.06h-2.26v-.05-.92a11.64 11.64 0 0 0-1.08 1 2.21 2.21 0 0 1-.82.15 1.77 1.77 0 0 1-1.26-.44 1.64 1.64 0 0 1-.46-1.24v-.43-1.38a5.29 5.29 0 0 0-.09-1.36.3.3 0 0 0-.25-.15H158.14V47l.06-.07a10 10 0 0 0 2.28-.49l.13.08c0 .65-.08 1.25-.08 1.81v1.15a6.49 6.49 0 0 0 .06 1.1.83.83 0 0 0 .28.54.89.89 0 0 0 .59.18 1.24 1.24 0 0 0 .81-.29 1 1 0 0 0 .35-.67V48.87a5.35 5.35 0 0 0-.09-1.36.3.3 0 0 0-.25-.15H161.7V47l.06-.07a10.21 10.21 0 0 0 2.29-.49l.12.08c0 .59-.08 1.19-.08 1.81v1.85a7.53 7.53 0 0 0 .07 1.41.21.21 0 0 0 .12.11 3.5 3.5 0 0 0 .62.07l.06.06zM170.11 46.47V48.11l-.25.07a.93.93 0 0 0-1.5 0 1 1 0 0 0-.18.64v2.58c0 .15.05.24.13.28a2.39 2.39 0 0 0 .82.09l.06.05v.36l-.06.06h-3.33l-.06-.06v-.36l.06-.06a2 2 0 0 0 .7-.09c.08 0 .12-.13.13-.28V48.9a5.18 5.18 0 0 0-.09-1.36.3.3 0 0 0-.25-.15H165.71V47l.06-.07a10.29 10.29 0 0 0 2.24-.49l.13.08v1.15c.24-.28.54-.61.88-1a.93.93 0 0 1 .66-.23 1 1 0 0 1 .43.03zM175.89 48.85v.3l-.06.09a8.23 8.23 0 0 1-2.07.21h-1.4a2.28 2.28 0 0 0 .54 1.43 1.72 1.72 0 0 0 1.37.61 3.09 3.09 0 0 0 1.34-.39l.15.17-.26.59a3.47 3.47 0 0 1-1.87.54 2.77 2.77 0 0 1-2.07-.75 2.91 2.91 0 0 1-.73-2.13 2.74 2.74 0 0 1 .78-2.26 3.48 3.48 0 0 1 2.06-.83 2.18 2.18 0 0 1 1.64.6 2.55 2.55 0 0 1 .58 1.82zm-1.54-.15q0-1.59-1-1.59c-.7 0-1.05.53-1.05 1.58v.13a10.71 10.71 0 0 0 1.22 0 6.51 6.51 0 0 0 .81 0 .68.68 0 0 0 .02-.12z"/></g></svg>