<svg clip-rule="evenodd" fill-rule="evenodd" height="1497" image-rendering="optimizeQuality" shape-rendering="geometricPrecision" text-rendering="geometricPrecision" viewBox="0 0 2018 1208.37" width="2500" xmlns="http://www.w3.org/2000/svg"><path d="m0 0h2018v1208.37h-2018z" fill="none"/><path d="m207.64 882.92v-144.34h-62.78v-32.96h175.59v32.96h-62.77v144.34zm133.32 0v-177.3h126.8v32.7h-79.34v36.11h75.83v32.97h-75.83v42.3h81.66v33.22zm159.49 0v-177.3h47.45v143.09h81.8v34.21zm150.55 0v-177.3h126.8v32.7h-79.35v36.11h75.83v32.97h-75.83v42.3h81.67v33.22z" fill="#ed3237" fill-rule="nonzero"/><path d="m807.52 868.86v-39.45c14.31 8.31 26.34 14.06 36.16 17.39 9.81 3.29 19.31 4.93 28.56 4.93 9.31 0 16.34-1.34 21.16-3.98 4.77-2.68 7.18-6.62 7.18-11.85 0-4.24-1.49-7.66-4.49-10.21-2.97-2.59-9.96-5.66-20.88-9.21-27.04-8.87-45.65-17.91-55.79-27.16-10.19-9.26-15.28-21.07-15.28-35.43 0-15.1 6.62-27.38 19.86-36.85 13.24-9.48 30.51-14.19 51.76-14.19 10.74 0 21.53 1.21 32.41 3.67 10.83 2.47 21.57 6.06 32.12 10.78v36.37c-12.72-6.01-24.16-10.42-34.3-13.28-10.14-2.9-19.35-4.32-27.68-4.32-9.03 0-15.93 1.21-20.65 3.67-4.77 2.47-7.13 5.97-7.13 10.51 0 3.73 2.13 7.19 6.39 10.47 4.21 3.25 10.65 6.32 19.26 9.3 1.8.65 4.53 1.65 8.24 2.9 18.1 6.27 31.06 11.64 38.93 16.09 8.24 4.72 14.44 10.82 18.66 18.25 4.21 7.45 6.3 16.14 6.3 26.09 0 16.39-6.62 29.28-19.87 38.67-13.24 9.38-31.62 14.06-55.13 14.06-11.76 0-23.15-1.43-34.12-4.33-10.97-2.85-21.53-7.18-31.67-12.89zm219.16 14.06v-80.24l-74.72-97.06h56.95l41.61 57.4 42.73-57.4h56.44l-75.55 96.8v80.5zm132.82-14.06v-39.45c14.31 8.31 26.35 14.06 36.16 17.39 9.81 3.29 19.31 4.93 28.56 4.93 9.31 0 16.35-1.34 21.16-3.98 4.77-2.68 7.18-6.62 7.18-11.85 0-4.24-1.48-7.66-4.49-10.21-2.97-2.59-9.96-5.66-20.88-9.21-27.04-8.87-45.65-17.91-55.79-27.16-10.18-9.26-15.28-21.07-15.28-35.43 0-15.1 6.62-27.38 19.86-36.85 13.24-9.48 30.51-14.19 51.76-14.19 10.74 0 21.53 1.21 32.41 3.67 10.83 2.47 21.57 6.06 32.13 10.78v36.37c-12.73-6.01-24.17-10.42-34.31-13.28-10.13-2.9-19.35-4.32-27.68-4.32-9.03 0-15.93 1.21-20.65 3.67-4.77 2.47-7.13 5.97-7.13 10.51 0 3.73 2.13 7.19 6.39 10.47 4.21 3.25 10.65 6.32 19.26 9.3 1.8.65 4.53 1.65 8.24 2.9 18.1 6.27 31.06 11.64 38.93 16.09 8.24 4.72 14.45 10.82 18.66 18.25 4.21 7.45 6.3 16.14 6.3 26.09 0 16.39-6.62 29.28-19.87 38.67-13.23 9.38-31.62 14.06-55.13 14.06-11.76 0-23.15-1.43-34.12-4.33-10.97-2.85-21.53-7.18-31.67-12.89zm214.95 14.06v-144.34h-62.77v-32.96h175.59v32.96h-62.78v144.34zm133.33 0v-177.3h126.8v32.7h-79.35v36.11h75.83v32.97h-75.83v42.3h81.67v33.22zm159.48 0v-177.3h41.9l60.93 71.37 61.15-71.37h41.9v177.3h-46.67v-109.74l-56.38 64.88-55.88-64.88v109.74z" fill="#373435" fill-rule="nonzero"/><path d="m923.15 379.67h102.35v102.35h-102.35z" fill="#ed3237"/><g fill="#373435"><path d="m795.22 251.74h102.35v102.34h-102.35zm127.93 0h102.35v102.34h-102.35zm127.94 255.86h102.34v102.35h-102.34zm0-127.93h102.34v102.35h-102.34zm-127.94 127.93h102.35v102.35h-102.35zm-127.93 0h102.35v102.35h-102.35zm0-127.93h102.35v102.35h-102.35zm250.41-127.89 108.55-108.55 108.56 108.55-108.56 108.56z"/><path d="m365.7 1069.53-25.85 48.54h17.49l52.8-102.44h-17.34l-18.91 38.14-20.17-38.14h-17.81zm83.52-55.63c-19.54 0-35.3 15.45-35.3 34.51 0 20.18 15.29 35.62 35.14 35.62 20.18 0 35.62-15.29 35.62-35.14 0-19.7-15.44-34.99-35.46-34.99zm0 13.71c11.98 0 19.86 8.51 19.86 21.43 0 12.77-7.88 21.28-19.86 21.28-11.97 0-19.7-8.51-19.7-21.59 0-12.61 8.04-21.12 19.7-21.12zm66.82-11.98h-15.28v38.46c0 10.4 1.89 16.07 6.93 21.59 5.36 5.51 12.61 8.35 21.27 8.35 8.83 0 16.08-2.84 21.44-8.35 5.04-5.52 6.93-11.19 6.93-21.59v-38.46h-15.28v38.14c0 11.35-4.1 16.55-12.93 16.55-8.98 0-13.08-5.2-13.08-16.55zm60.68 0v66.35h15.28v-34.35c0-13.08 3.94-19.07 12.45-19.07 3.16 0 5.05.79 8.51 3.31l7.1-14.03c-5.2-3.15-8.04-4.1-12.77-4.1-5.99 0-9.61 1.89-15.29 7.88v-5.99zm130.17 11.35c-4.41-8.98-10.24-13.08-18.91-13.08-11.82 0-20.65 8.51-20.65 20.01 0 8.2 3.16 12.46 12.93 17.18 14.34 7.09 15.28 7.73 15.28 12.14 0 4.25-3.15 7.09-7.88 7.09-4.57 0-7.09-2.05-10.71-8.67l-13.08 5.99c4.57 10.87 12.45 16.39 23.64 16.39 13.23 0 23.64-9.77 23.64-22.38 0-6.3-2.68-11.35-8.04-14.97-3-2.05-5.99-3.62-12.61-6.78-7.09-3.31-8.82-4.72-8.82-7.56 0-2.68 2.2-4.73 5.04-4.73 3.15 0 5.36 1.89 7.56 6.15zm78.32 25.53v-3.62c0-8.67-1.89-16.39-5.35-21.91-5.2-8.04-15.29-13.08-26.16-13.08-19.23 0-32 14.03-32 35.14 0 21.12 13.08 34.99 32.78 34.99 8.36 0 16.55-2.84 22.38-8.04 3.47-2.83 5.52-5.51 8.99-11.34l-12.93-7.25c-6.14 9.93-10.24 12.92-17.96 12.92-9.77 0-16.39-6.93-17.18-17.81zm-46.49-12.45c1.9-7.56 7.88-12.29 15.29-12.29 7.88 0 13.4 4.41 15.44 12.29zm114.73-21.59c-6.14-3.31-11.5-4.57-18.59-4.57-20.33 0-36.25 15.45-36.25 35.3 0 19.7 15.6 34.83 36.09 34.83 7.09 0 11.82-1.26 18.75-4.88v-20.33c-7.4 8.82-11.82 11.5-19.38 11.5-11.5 0-19.86-8.98-19.86-21.43 0-12.14 8.51-21.28 20.17-21.28 7.41 0 11.98 2.68 19.07 11.19zm32.15-2.84h-15.28v38.46c0 10.4 1.89 16.07 6.93 21.59 5.36 5.51 12.61 8.35 21.28 8.35 8.82 0 16.07-2.84 21.43-8.35 5.04-5.52 6.93-11.19 6.93-21.59v-38.46h-15.28v38.14c0 11.35-4.1 16.55-12.93 16.55-8.98 0-13.08-5.2-13.08-16.55zm60.68 0v66.35h15.28v-34.35c0-13.08 3.94-19.07 12.45-19.07 3.16 0 5.05.79 8.51 3.31l7.1-14.03c-5.2-3.15-8.04-4.1-12.77-4.1-5.99 0-9.61 1.89-15.29 7.88v-5.99zm69.18 0h-15.28v66.35h15.28zm-7.72-37.5c-5.36 0-9.93 4.57-9.93 9.92 0 5.52 4.41 10.09 10.09 10.09 5.51 0 9.93-4.57 9.93-10.09 0-5.51-4.42-9.92-10.09-9.92zm42.71 51.85h11.97v-14.35h-11.97v-24.27h-15.29v24.27h-6.46v14.35h6.46v52h15.29zm48.22 39.55-25.84 48.54h17.49l52.79-102.44h-17.33l-18.91 38.14-20.18-38.14h-17.8zm132.7-42.55c-4.42-8.98-10.25-13.08-18.91-13.08-11.82 0-20.65 8.51-20.65 20.01 0 8.2 3.15 12.46 12.92 17.18 14.34 7.09 15.29 7.73 15.29 12.14 0 4.25-3.15 7.09-7.88 7.09-4.57 0-7.09-2.05-10.72-8.67l-13.08 5.99c4.57 10.87 12.45 16.39 23.64 16.39 13.24 0 23.64-9.77 23.64-22.38 0-6.3-2.68-11.35-8.04-14.97-2.99-2.05-5.98-3.62-12.6-6.78-7.09-3.31-8.83-4.72-8.83-7.56 0-2.68 2.21-4.73 5.05-4.73 3.15 0 5.35 1.89 7.56 6.15zm33.25-11.35h-15.29v38.46c0 10.4 1.89 16.07 6.94 21.59 5.36 5.51 12.6 8.35 21.27 8.35 8.83 0 16.08-2.84 21.43-8.35 5.05-5.52 6.94-11.19 6.94-21.59v-38.46h-15.29v38.14c0 11.35-4.1 16.55-12.92 16.55-8.98 0-13.08-5.2-13.08-16.55zm75.96 102.44v-43.5c6.46 6.62 12.45 9.46 20.8 9.46 17.81 0 31.21-14.97 31.21-34.83 0-20.33-13.4-35.3-31.52-35.3-8.04 0-14.03 2.68-20.49 8.98v-7.25h-15.29v102.44zm18.12-90.46c10.72 0 18.28 8.98 18.28 21.75 0 11.98-7.87 20.96-18.43 20.96-11.19 0-18.92-8.83-18.92-21.43 0-12.61 7.73-21.28 19.07-21.28zm65.41 90.46v-43.5c6.46 6.62 12.45 9.46 20.8 9.46 17.81 0 31.2-14.97 31.2-34.83 0-20.33-13.39-35.3-31.52-35.3-8.03 0-14.02 2.68-20.48 8.98v-7.25h-15.29v102.44zm18.12-90.46c10.72 0 18.28 8.98 18.28 21.75 0 11.98-7.88 20.96-18.44 20.96-11.19 0-18.91-8.83-18.91-21.43 0-12.61 7.72-21.28 19.07-21.28zm65.4-60.52h-15.28v114.89h15.28zm34.83 48.54h-15.29v66.35h15.29zm-7.72-37.5c-5.36 0-9.93 4.57-9.93 9.92 0 5.52 4.41 10.09 10.09 10.09 5.51 0 9.92-4.57 9.92-10.09 0-5.51-4.41-9.92-10.08-9.92zm87.3 74.38v-3.62c0-8.67-1.89-16.39-5.35-21.91-5.2-8.04-15.29-13.08-26.16-13.08-19.23 0-32 14.03-32 35.14 0 21.12 13.08 34.99 32.78 34.99 8.36 0 16.55-2.84 22.38-8.04 3.47-2.83 5.52-5.51 8.99-11.34l-12.93-7.25c-6.14 9.93-10.24 12.92-17.96 12.92-9.77 0-16.39-6.93-17.18-17.81zm-46.49-12.45c1.9-7.56 7.88-12.29 15.29-12.29 7.88 0 13.4 4.41 15.45 12.29zm63.2-24.43v66.35h15.29v-34.35c0-13.08 3.94-19.07 12.45-19.07 3.15 0 5.04.79 8.51 3.31l7.09-14.03c-5.2-3.15-8.04-4.1-12.77-4.1-5.98 0-9.61 1.89-15.28 7.88v-5.99z" fill-rule="nonzero"/></g></svg>