<svg height="1721" width="2500" xmlns="http://www.w3.org/2000/svg" viewBox="0.001 -0.001000000000000112 473.497 326.97745544118993"><g fill="#002d72"><path d="M22.747 315.904a26.2 26.2 0 0 0 .175 3.382 4.447 4.447 0 0 0 .827 2.188 3.8 3.8 0 0 0 1.952 1.214 17.354 17.354 0 0 0 3.541.452v1.642q-2.562-.122-5.155-.183a270.182 270.182 0 0 0-5.493-.061c-1.87 0-3.1.024-4.935.061s-3.721.1-5.673.183v-1.642a17.935 17.935 0 0 0 3.546-.452 3.8 3.8 0 0 0 1.947-1.214 4.438 4.438 0 0 0 .828-2.188 26.2 26.2 0 0 0 .175-3.382v-28.268a27.546 27.546 0 0 0-4.608.244 9.677 9.677 0 0 0-3.668 1.377 8.282 8.282 0 0 0-2.689 3.02 17.108 17.108 0 0 0-1.744 5.208H.001c.082-.786.15-1.581.212-2.388s.122-1.707.184-2.7.11-2.131.15-3.411.062-2.771.062-4.466q4.578.128 9.03.244a323.738 323.738 0 0 0 17.864 0c3.048-.081 6.121-.159 9.209-.244 0 1.7.021 3.187.062 4.466s.094 2.416.15 3.411.122 1.891.185 2.7.134 1.6.216 2.388h-1.554a17.359 17.359 0 0 0-1.715-5.208 8.222 8.222 0 0 0-2.645-3.02 9.512 9.512 0 0 0-3.6-1.377 30.2 30.2 0 0 0-4.849-.244zM450.443 315.904v-28.268a28.488 28.488 0 0 0-4.686.244 9.976 9.976 0 0 0-3.729 1.377 8.337 8.337 0 0 0-2.734 3.02 16.9 16.9 0 0 0-1.772 5.208h-1.773q.123-1.18.212-2.388t.184-2.7c.062-.994.11-2.131.155-3.411s.057-2.771.057-4.466q4.633.128 9.137.244t9.063.122c3.085 0 5.925-.041 9.015-.122s6.188-.159 9.314-.244c0 1.7.02 3.187.061 4.466s.095 2.416.151 3.411.122 1.891.183 2.7.135 1.6.217 2.388h-1.553a16.922 16.922 0 0 0-1.772-5.208 8.329 8.329 0 0 0-2.73-3.02 10.02 10.02 0 0 0-3.725-1.377 32.174 32.174 0 0 0-5.008-.244v28.268a26.2 26.2 0 0 0 .175 3.382 4.485 4.485 0 0 0 .828 2.188 3.793 3.793 0 0 0 1.952 1.214 17.343 17.343 0 0 0 3.54.452v1.642q-2.561-.122-5.154-.183a270.262 270.262 0 0 0-5.493-.061c-1.871 0-3.105.024-4.935.061s-3.721.1-5.673.183v-1.642a17.946 17.946 0 0 0 3.546-.452 3.8 3.8 0 0 0 1.947-1.214 4.437 4.437 0 0 0 .827-2.188 26.2 26.2 0 0 0 .173-3.382zM72.47 303.851h2.2a21.031 21.031 0 0 1 2.738.163c4.2.428 5.082 3.187 5.334 6.451l1.309-.045c0-2.152-.114-3.957-.049-6.76.094-3.851.212-5.762.333-7.636l-1.315-.045c-.392 2.641-1.1 5-5.318 5.448a26.886 26.886 0 0 1-3.035.171h-2.2v-14.329l4.331-.012c5.257-.02 7.466.11 9.6 1.663 2.107 1.536 3.031 4.193 3.912 7.306l1.544-.293a62.376 62.376 0 0 1-.737-6.394c-.122-1.667-.245-3.407-.276-5-3.787.106-7.462.155-11.365.236s-5.5.122-9.442.122q-3.11 0-6.251-.122c-2.094-.081-4.177-.159-6.251-.244v2.131a10.791 10.791 0 0 1 3.321.522 4.19 4.19 0 0 1 1.923 1.308 4.619 4.619 0 0 1 .885 2.135 18.383 18.383 0 0 1 .212 2.987v22.331a19.254 19.254 0 0 1-.212 3.109 4.4 4.4 0 0 1-.885 2.107 3.948 3.948 0 0 1-1.923 1.218 14.033 14.033 0 0 1-3.321.518v1.887q1.156-.061 2.959-.122t4.087-.09q2.287-.031 4.968-.033h5.342c3.17 0 5.99.024 9.12.061s5.289.1 8.459.183a65.345 65.345 0 0 1 2.409-6.646q1.368-3.234 2.9-6.463l-1.337-1.015c-2.078 3.973-4.217 6.98-7.485 8.965-3.231 1.96-5.749 2.49-10.1 2.461a24.9 24.9 0 0 1-3.537-.236 12.271 12.271 0 0 1-2.828-.672zM125.732 312.401a41.075 41.075 0 0 0 .24 4.971 6.259 6.259 0 0 0 1.051 2.958 4.691 4.691 0 0 0 2.38 1.614 27.612 27.612 0 0 0 4.214.945v1.887a163.773 163.773 0 0 0-8.903-.244c-1.712 0-3.379.024-5 .061s-3.293.1-5 .183v-1.887a33.459 33.459 0 0 0 4.462-.913 4.987 4.987 0 0 0 2.469-1.5 5.2 5.2 0 0 0 1.085-2.653 31.924 31.924 0 0 0 .239-4.389l.232-23.333a9.382 9.382 0 0 0-1.594-1.389 12.239 12.239 0 0 0-2.131-1.141 17.738 17.738 0 0 0-2.265-.713 16.065 16.065 0 0 0-2.376-.424v-1.915c1.075.086 2.164.163 3.264.244s2.18.122 3.261.122q4.285-.006 8.447-.371c4.6 5.285 8.622 9.939 12.7 14.755 4.165 4.931 7.217 8.443 11.214 13.333h.119v-2.9q0-2.989-.09-6.19t-.273-6.223a46.006 46.006 0 0 0-.551-5.094 7.5 7.5 0 0 0-.822-2.592 5.057 5.057 0 0 0-1.5-1.646 6.755 6.755 0 0 0-2.1-.974 25.052 25.052 0 0 0-2.653-.583v-1.887c1.46.086 2.714.163 4.2.244s2.947.122 4.405.122q4.371 0 8.688-.367v1.887a12.515 12.515 0 0 0-3.786.672 3.989 3.989 0 0 0-2.1 1.83 9.085 9.085 0 0 0-.912 3.448q-.215 2.164-.216 5.518v27.571h-2.666c-4.979-6.793-10.778-13.871-16.075-20.008-4.475-5.183-7.856-8.9-11.643-12.885zM301.899 322.88a8.431 8.431 0 0 1-3.717-.762 5.847 5.847 0 0 1-2.4-2.522 25.675 25.675 0 0 1-1.948-4.112l-11.907-32.131a26.262 26.262 0 0 1-3.855 1.377 48.668 48.668 0 0 1-3.948.913l.892 2.331-11.389 28.072c-.4.974-.836 1.9-1.243 2.69a9.554 9.554 0 0 1-1.45 2.058 6.693 6.693 0 0 1-2.07 1.451 9 9 0 0 1-3.068.693v1.842a118.935 118.935 0 0 1 7.555-.244 135.02 135.02 0 0 1 8.1.244v-1.9a14.417 14.417 0 0 1-2.1-.265 3.88 3.88 0 0 1-2.294-1.117 3.139 3.139 0 0 1-.774-2.156 10.513 10.513 0 0 1 .749-3.586l3.106-8.121h11.987s1.838 5.2 1.978 5.611c.419 1.2 1.01 2.95 1.47 4.584a6.8 6.8 0 0 1 .294 2.522 2.075 2.075 0 0 1-1.467 1.752 12.176 12.176 0 0 1-4.345.807v1.866q2.616-.122 5.2-.183t5.2-.061h2.612c1 0 1.993.008 2.987.033s1.992.049 2.986.09 2.07.081 2.861.122zm-30.71-18l5.172-13.6 4.792 13.6zM422.101 322.88a8.425 8.425 0 0 1-3.717-.762 5.842 5.842 0 0 1-2.4-2.522 25.844 25.844 0 0 1-1.948-4.112l-11.907-32.131a26.262 26.262 0 0 1-3.855 1.377 48.668 48.668 0 0 1-3.948.913l.893 2.331-11.39 28.072a31.89 31.89 0 0 1-1.242 2.69 9.623 9.623 0 0 1-1.45 2.058 6.7 6.7 0 0 1-2.07 1.451 9.011 9.011 0 0 1-3.069.693v1.842a118.935 118.935 0 0 1 7.554-.244 135.203 135.203 0 0 1 8.102.244v-1.9a14.413 14.413 0 0 1-2.1-.265 3.877 3.877 0 0 1-2.294-1.117 3.158 3.158 0 0 1-.774-2.156 10.494 10.494 0 0 1 .75-3.586l3.1-8.121h11.989s1.837 5.2 1.976 5.611c.42 1.2 1.011 2.95 1.472 4.584a6.838 6.838 0 0 1 .293 2.522 2.074 2.074 0 0 1-1.467 1.752 12.151 12.151 0 0 1-4.344.807v1.866q2.616-.122 5.2-.183t5.2-.061h2.611c1 0 1.992.008 2.987.033s1.993.049 2.991.09 2.07.081 2.856.122zm-30.709-18l5.171-13.6 4.793 13.6zM210.452 303.935a31.222 31.222 0 0 1 .686-6.023 18.36 18.36 0 0 1 2.176-5.526 11.515 11.515 0 0 1 3.732-4.034 11.816 11.816 0 0 1 6.4-1.846 15.633 15.633 0 0 1 5.688 1.019 10.79 10.79 0 0 1 4.226 3.085 16.886 16.886 0 0 1 2.869 4.54 23.985 23.985 0 0 1 1.47 5.126l1.88-.293c-.221-1.724-.4-3.223-.515-4.922s-.212-3.13-.257-4.849c-.023-1.084-.068-2.685.033-4.1-2.021-.363-4.014-.88-6.187-1.39a35.606 35.606 0 0 0-8.687-1.133 25.868 25.868 0 0 0-9.056 1.536 21.322 21.322 0 0 0-7.126 4.3 19.849 19.849 0 0 0-4.7 6.671 22.2 22.2 0 0 0-1.776 8.692 22.811 22.811 0 0 0 1.483 8.761 18.885 18.885 0 0 0 10.979 10.937 24.616 24.616 0 0 0 20.61-1.687 26.448 26.448 0 0 0 8.786-9.156l-1.634-1.744a27.113 27.113 0 0 1-2.649 3.57 17.968 17.968 0 0 1-7.511 5.163 15.1 15.1 0 0 1-5.306.868 18.026 18.026 0 0 1-7.236-1.4 12.876 12.876 0 0 1-4.694-3.692 15.788 15.788 0 0 1-2.8-5.5 23.525 23.525 0 0 1-.884-6.973zM363.132 323.404a13.016 13.016 0 0 1-5.558-2.486 35.117 35.117 0 0 1-7.424-7.575 68.329 68.329 0 0 1-4.907-7.037 26.245 26.245 0 0 0 3.387-1.41 11.541 11.541 0 0 0 3.072-1.98 8.423 8.423 0 0 0 2.812-6.557 11.254 11.254 0 0 0-.953-4.637 11.025 11.025 0 0 0-2.779-3.749 13.187 13.187 0 0 0-4.381-2.531 17.028 17.028 0 0 0-5.766-.917q-3.643 0-6.973.183t-6.666.183q-2.776 0-4.968-.061c-1.458-.037-2.949-.1-4.47-.183v1.764a15 15 0 0 1 3.565.644 4 4 0 0 1 1.952 1.308 4.538 4.538 0 0 1 .822 2.135 22.286 22.286 0 0 1 .184 3.109v22.331a24.567 24.567 0 0 1-.184 3.358 3.751 3.751 0 0 1-.822 2.009 3.7 3.7 0 0 1-1.952 1.068 21.822 21.822 0 0 1-3.565.518v1.887c1.854-.077 3.7-.143 5.559-.179s3.724-.061 5.618-.061q2.66 0 5.221.061c1.707.037 3.284.1 4.727.179v-1.887a19.043 19.043 0 0 1-3.354-.518 3.664 3.664 0 0 1-1.861-1.068 3.576 3.576 0 0 1-.791-2.009 28.471 28.471 0 0 1-.155-3.358v-9.69a20.023 20.023 0 0 0 4.5.57 82.09 82.09 0 0 0 5.909 9.364 84.194 84.194 0 0 0 7.2 8.594c1.06-.077 1.867-.143 2.927-.179s1.98-.061 3.04-.061q1.84 0 3.59.061c1.165.037 3.446.179 3.446.179zm-26.556-19.25a14.189 14.189 0 0 1-4.055-.469v-15.926a10.016 10.016 0 0 1 2.371-.579 17.768 17.768 0 0 1 2.348-.118 9.238 9.238 0 0 1 3.533.689 7.282 7.282 0 0 1 2.5 1.773 7.064 7.064 0 0 1 1.573 2.571 9.941 9.941 0 0 1 .57 3.382q0 4.248-2.437 6.467a9.156 9.156 0 0 1-6.403 2.212zM152.58 18.757a56.534 56.534 0 0 1 22.632-6.8 297.6 297.6 0 0 1 30.953-1.328v75.4a173.277 173.277 0 0 1 29.891-29.283V10.628a297.606 297.606 0 0 1 30.954 1.328 56.534 56.534 0 0 1 22.632 6.8 34.425 34.425 0 0 1 7.368 5.713 258.802 258.802 0 0 1 21.446-6.459L317.173.056l.208-.057c-10.127.444-17.938.778-27.833.994s-19.014.334-29.141.334h-81.486c-9.637 0-18.292-.11-27.694-.334s-17.611-.55-27.257-.994l-4.649 65.094 4.319 1.328c4.059-14.417 7.685-23.814 12.49-31.345s10.044-12.668 16.45-16.319z"/><path d="M349.882 17.254c-13.574.338-38.019 5.754-60.705 14.808-39.245 15.66-68.813 38.8-89.185 69.963-25.383-3.708-44.119-10.265-53.907-20.387l-6.908 1.5c14.222 11.194 33.1 17.384 59.357 21.54q-18.431 30.587-16.936 59.156a78.4 78.4 0 0 0 13.243 39.421 15.481 15.481 0 0 0 2.452-2.971 25.144 25.144 0 0 0 2.988-8.2 74.856 74.856 0 0 1-1.758-13.187c-1.205-23.191 6.4-48.024 23.114-72.942s29.242-37 48.451-51.446a215.576 215.576 0 0 1 34.034-20.974c.636.839 1.26 1.72 1.712 2.465 4.5 7.359 7.991 16.638 11.874 30.424l4.315-1.328-2.722-38.154a126.06 126.06 0 0 1 10.554-3.464 92.147 92.147 0 0 1 23.7-3.8c18.13-.412 27.444 4.091 27.922 13.28.484 9.36-9.141 18.94-22 27.848-15.171 10.505-37.38 21.011-61.5 29.022-20.595 6.842-43.729 12-61.923 13.3v-9.645a170.557 170.557 0 0 0-12.111 16.98c-8.61 13.879-14.449 26.642-17.779 38.9v15.359q0 13.949-.83 23.081-.832 9.138-4.316 14.78a20.417 20.417 0 0 1-10.129 8.3q-6.652 2.659-18.6 3.651v3.985q11.956-.666 23.913-.994 5.9-.165 11.874-.245a79.18 79.18 0 0 0 47.343 14.213c28.447-.713 54.768-12.3 76.112-32.115q33.447-31.039 31.54-67.685c-1.079-20.754-11.238-35.228-34.095-34.658q-25.024.63-48.15 24.849c-15.521 16.418-23.194 34.364-21.165 49.091 1.354 9.8 8.3 11.944 14.006 10.354 6.263-1.74 10.407-7 10.2-13.382-.175-5.367-4.564-8.957-10.537-7.767-3.917.778-7.185 2.632-9.173 6.055-2.241-9.841 4.062-27.327 19.8-43.4 15.273-15.134 30.566-22.746 44.539-23.1 8.717-.216 16.206 1.858 21.728 6.879s8.146 12.233 8.6 20.974q1.3 24.878-19.935 53.174-35.068 46.821-82.938 48.015c-17.872.448-29.519-4.808-38.749-11.569 1.085 0 2.156-.02 3.248-.02q12.617 0 25.241.33 12.623.324 25.24.994v-3.973q-12.292-1-19.263-3.651a20.317 20.317 0 0 1-10.46-8.3q-3.483-5.642-4.315-14.78t-.831-23.081v-58.973c16.4-1.186 40.375-5.469 67.131-14.715 25.979-8.973 53.057-23.5 65.7-34.279 6.646-5.664 15.782-14.246 15.281-23.871q-.868-16.467-34.292-15.635z"/></g></svg>