<svg height="641" width="2500" xmlns="http://www.w3.org/2000/svg" viewBox="0 0 1768.631 453"><path d="M809 0h61l1 133 11-12c14.022-11.628 30.544-17.519 48-22l3.16-.813c31.402-6.506 65.995 2.486 92.84 18.813 3.611 2.432 6.803 5.054 10 8l2.867 2.41c24.208 20.64 35.418 51.625 37.954 82.72 2.336 37.519-3.751 74.606-28.821 103.87l-2.016 2.457c-19.682 23.145-49.737 36.15-79.566 39.262-27.16 1.974-56.946-.128-78.715-18.399C874.237 325.473 874.237 325.473 871 319l-.351 2.738c-.431 3.342-.866 6.683-1.303 10.024-.189 1.448-.376 2.897-.562 4.345-.266 2.078-.538 4.156-.811 6.233l-.492 3.793C867 349 867 349 866 350h-57V0zm79.91 181.441c-12.689 16.997-16.54 36.414-14.285 57.309 2.96 18.448 11.868 34.01 26.383 45.816 18.141 13.055 38.422 16.328 60.176 12.938 17.707-3.786 32.652-14.68 42.816-29.504 11.247-19.19 13.957-40.947 8.977-62.566-5.006-17.6-15.403-31.746-30.977-41.434-31.464-17.515-69.952-9.972-93.09 17.441zM1301.742 119.914c4.613 4.261 8.774 8.86 12.258 14.086l.168-2.738c.207-3.342.418-6.683.632-10.024.091-1.449.182-2.897.27-4.345.127-2.078.26-4.155.395-6.233l.238-3.793C1316 104 1316 104 1317 103h59v247h-59l-3-32-9 12c-18.042 18.315-44.775 27.723-70.17 28.42-34.173.225-67.282-9.577-92.123-33.717L1140 322l-2.426-2.39c-22.637-23.616-30.204-58.423-29.965-90.144.016-2.532 0-5.062-.02-7.593-.044-34.291 10.816-65.91 34.911-90.81 40.186-40.046 114.754-48.296 159.242-11.149zm-113.015 53.2c-12.912 13.67-18.716 30.24-19.727 48.886l-.125 2.055c-.609 20.164 5.248 39.812 18.438 55.258 12.837 13.553 30.652 21.284 49.253 21.89 22.743.356 40.742-5.016 57.622-20.89 15.066-15.69 19.398-36.078 19.066-57.313-1.054-21.143-7.652-39.238-23.254-54-29.238-23.932-74.176-22.689-101.273 4.113zM462.992 123.395L466 126l2.258 1.95c16.076 15.002 25.9 35.872 30.742 57.05l.492 2.04c2.945 12.832 2.768 25.869 2.758 38.96l-.002 2.745a1311 1311 0 0 1-.045 7.817l-.013 2.397c-.046 3.573-.317 6.55-1.19 10.041H309c5.905 18.897 11.884 31.62 29.413 41.3 24.323 12.583 53.072 11.89 78.75 4.039 11.22-3.63 20.677-8.887 29.837-16.339 3.183 1.405 5.313 3.07 7.759 5.532l2.183 2.183 2.324 2.355 2.404 2.413a3831.28 3831.28 0 0 1 7.58 7.642l5.148 5.176A7505.67 7505.67 0 0 1 487 316c-7.132 15.451-31.659 25.557-46.615 31.152-41.159 14.63-89.572 14.62-129.347-4.16-28.26-13.76-49.069-37.926-59.35-67.555C239.47 237.22 241.899 193.88 260 158c4.23-7.606 9.442-14.328 15-21l1.453-1.863C290.673 117.36 313.391 105.847 335 100l2.333-.642c41.631-10.843 92.255-3.966 125.66 24.037zm-138.672 47.09C317.784 177.57 310 187.913 310 198h132c-3.31-16.555-8.883-27.363-22.633-37.473-28.38-18.311-70.964-12.81-95.047 9.957zM1395 103h71c5.625 13.5 5.625 13.5 7.273 18.235l1.138 3.251 1.179 3.405 1.275 3.653c1.128 3.232 2.252 6.465 3.375 9.698 1.18 3.4 2.366 6.797 3.55 10.195 1.425 4.085 2.849 8.17 4.27 12.256 2.576 7.399 5.16 14.794 7.764 22.182a5663.53 5663.53 0 0 1 19.18 55.412c.866 2.541 1.734 5.081 2.603 7.62a4995.74 4995.74 0 0 1 3.631 10.663l1.11 3.233c1.593 4.716 3.076 9.226 3.652 14.197h2l.38-2.655c.583-3.147 1.409-5.873 2.527-8.864l1.202-3.236 1.317-3.487 1.377-3.681c1.237-3.3 2.482-6.598 3.73-9.893a6811.84 6811.84 0 0 0 2.345-6.204c8.659-22.917 17.802-45.598 27.381-68.147 3.12-7.347 6.197-14.71 9.257-22.083l1.381-3.328c1.776-4.276 3.55-8.553 5.324-12.83 1.205-2.903 2.412-5.804 3.619-8.705l1.055-2.548c2.575-6.182 5.33-12.233 8.105-18.339h68c-.752 3.761-1.447 6.359-2.94 9.766l-1.22 2.809-1.336 3.03-1.394 3.195c-.992 2.275-1.987 4.548-2.984 6.821-2.387 5.444-4.76 10.894-7.136 16.343l-2.416 5.536a4621.741 4621.741 0 0 0-13.512 31.313l-2.15 5.026c-1.89 4.416-3.779 8.833-5.667 13.25a58111.822 58111.822 0 0 1-14.457 33.784c-8.53 19.916-17.13 39.801-25.775 59.667A8073.883 8073.883 0 0 0 1564 340c-12.237 28.607-24.493 57.205-36.875 85.75l-1.516 3.497c-1.407 3.246-2.816 6.492-4.226 9.737l-1.263 2.912-1.162 2.673-1.006 2.315c-.929 2.064-1.94 4.091-2.952 6.116h-68c3.296-8.57 6.651-17.041 10.281-25.465l1.488-3.469c1.307-3.044 2.616-6.087 3.925-9.13 1.083-2.518 2.164-5.036 3.244-7.554 4.784-11.148 9.576-22.293 14.425-33.413l.933-2.14c1.34-3.074 2.684-6.146 4.036-9.214l1.375-3.142 1.14-2.586L1489 354l.916-2.024c2.142-5.26 2.27-8.38.113-13.632l-1.076-2.371-1.082-2.572c-1.181-2.791-2.401-5.564-3.621-8.338-.843-1.976-1.682-3.953-2.519-5.93a2570.408 2570.408 0 0 0-5.208-12.208c-3.371-7.88-6.572-15.827-9.762-23.782-1.73-4.31-3.472-8.613-5.214-12.916l-1.087-2.689c-4.798-11.855-9.631-23.696-14.46-35.538a15834.505 15834.505 0 0 1-21.492-52.937 5067.772 5067.772 0 0 0-11.643-28.576c-1.534-3.734-3.064-7.469-4.595-11.204a4158.337 4158.337 0 0 0-3.766-9.158c-1.403-3.4-2.798-6.8-4.192-10.203l-1.278-3.081-1.17-2.87-1.023-2.482C1396 109 1396 109 1395 103zM0 0h288v60H177v290h-66V60H0V0zM529 103a2462.63 2462.63 0 0 1 28.634-.466c4.433-.047 8.865-.11 13.297-.213 4.28-.098 8.558-.152 12.838-.175a248.88 248.88 0 0 0 4.892-.098c12.74-.365 12.74-.365 16.582 2.799 1.581 2.324 2.689 4.558 3.757 7.153l1.928 3.211 1.666 2.95 1.91 3.366.986 1.746c1.75 3.102 3.514 6.197 5.276 9.293l1.08 1.9C631.318 151.12 641.088 167.602 651 184c2.725-3.281 5.032-6.559 7.145-10.262l1.777-3.1 1.89-3.325 1.994-3.482c1.381-2.41 2.76-4.822 4.137-7.234 3.19-5.583 6.406-11.152 9.62-16.722l1.634-2.839a201.363 201.363 0 0 1 3.631-6.043c1.908-3.238 3.14-6.56 4.422-10.088 2.819-6.959 5.686-13.234 11.75-17.905 11.224-3.73 23.637-2.377 35.265-1.648 4.368.248 8.74.356 13.114.476 8.55.256 17.083.664 25.621 1.172-.695 3.882-1.633 6.372-3.86 9.648l-1.848 2.748-2.042 2.979-3.257 4.817c-1.173 1.731-2.35 3.46-3.528 5.188a3252.68 3252.68 0 0 0-7.531 11.112c-4.872 7.208-9.756 14.408-14.643 21.606a36699.962 36699.962 0 0 0-13.087 19.29 4004.65 4004.65 0 0 1-11.535 16.938 5893.63 5893.63 0 0 0-5.867 8.586c-.944 1.382-1.89 2.762-2.84 4.141-1.318 1.916-2.63 3.837-3.939 5.76l-1.193 1.722c-2.764 3.921-2.764 3.921-3.83 8.465 1.02 2.26 1.02 2.26 2.691 4.5l1.842 2.656 2.03 2.844 2.074 2.97A1976.61 1976.61 0 0 0 709 248c1.186 1.696 2.371 3.392 3.555 5.09 2.279 3.268 4.564 6.532 6.855 9.793a4222.806 4222.806 0 0 1 11.465 16.43l2.023 2.91c1.357 1.95 2.713 3.902 4.07 5.854 3.343 4.808 6.687 9.616 10.032 14.423 4.106 5.902 8.212 11.804 12.316 17.707l2.155 3.098a53404.42 53404.42 0 0 1 5.908 8.496l1.801 2.6a392.58 392.58 0 0 0 3.839 5.382l1.946 2.697 1.765 2.415C778 347 778 347 778 350c-9.475.349-18.947.615-28.427.777-4.403.078-8.802.184-13.202.355-4.254.164-8.504.252-12.76.291-1.618.028-3.234.082-4.85.163-12.297.595-12.297.595-16.41-3.045-3.036-3.595-5.292-7.55-7.413-11.735-1.283-2.47-2.808-4.749-4.372-7.048a4409.075 4409.075 0 0 1-3.003-4.633l-1.657-2.553a13523.55 13523.55 0 0 1-11.729-18.118c-2.519-3.896-5.044-7.788-7.575-11.677l-1.752-2.691a7967.805 7967.805 0 0 0-3.348-5.137A782.609 782.609 0 0 1 652 270c-3.452 3.15-5.802 6.653-8.187 10.625-4.613 7.529-9.406 14.931-14.25 22.313a46700.545 46700.545 0 0 0-6.583 10.038c-2.632 4.02-5.248 8.05-7.855 12.087l-1.189 1.714c-2.364 3.486-4.183 6.668-5.5 10.68-2.051 5.386-4.4 9.504-9.436 12.543-11.486 2.804-23.81 1.676-35.522 1.167-4.45-.175-8.902-.251-13.355-.337A1281.08 1281.08 0 0 1 524 350c1.576-4.14 3.491-7.295 6.125-10.875a2002.27 2002.27 0 0 0 2.719-3.746l1.52-2.097c3.135-4.372 6.194-8.799 9.261-13.22a497145053.08 497145053.08 0 0 0 6.278-9.042c3.362-4.842 6.73-9.681 10.097-14.52l4-5.75 10.002-14.377 3.983-5.726c4.124-5.929 8.248-11.857 12.375-17.784a2845.52 2845.52 0 0 0 4.093-5.902c2.823-4.079 5.655-8.14 8.621-12.117l1.332-1.816a405.211 405.211 0 0 1 3.383-4.505c1.52-2.44 1.52-2.44.513-4.835-1.424-2.94-3.066-5.518-4.915-8.211l-2.25-3.295-2.45-3.557-2.559-3.743a7668.488 7668.488 0 0 0-5.393-7.882c-3.957-5.782-7.882-11.585-11.808-17.388-1.753-2.591-3.508-5.182-5.262-7.772a89212.573 89212.573 0 0 1-20.025-29.575c-4.22-6.239-8.459-12.464-12.738-18.663l-3.576-5.201c-1.112-1.612-2.231-3.22-3.35-4.826l-1.996-2.903-1.753-2.528C529 106 529 106 529 103z"/><path d="M1751.578 287.613c8.274 6.178 14.174 13.28 15.996 23.657 1.057 10.307-.022 20.244-6.074 28.925-6.26 7.533-14.69 13.315-24.5 14.805-10.695.947-20.226-.87-28.938-7.375-7.305-6.25-12.153-12.843-13.294-22.61-.848-11.615.297-21.662 7.982-30.89 12.982-13.413 32.655-16.632 48.828-6.512z" fill="#396fd4"/></svg>