<svg clip-rule="evenodd" fill-rule="evenodd" height="451" image-rendering="optimizeQuality" shape-rendering="geometricPrecision" text-rendering="geometricPrecision" viewBox="-.5 -.5 5352 965" width="2500" xmlns="http://www.w3.org/2000/svg"><path d="m1100.5-.5h75c64.73 5.18 128.07 18.014 190 38.5 109.25 34.949 208.92 87.116 299 156.5l-125 2c-132.09-80.081-275.42-124.914-430-134.5-43.84-1.987-87.17 1.68-130 11a57.8 57.8 0 0 0 -16 6 7.292 7.292 0 0 0 3 2 382.608 382.608 0 0 1 29 5c9.37 2.985 13.2 9.152 11.5 18.5-3.61 4.724-8.446 7.224-14.5 7.5-19.052 1.994-37.385-.672-55-8-7.857-6.93-10.024-15.43-6.5-25.5 8.606-27.605 26.44-46.439 53.5-56.5 38.07-11.286 76.74-18.786 116-22.5z" fill="#40005f" opacity=".988"/><path d="m2105.5 196.5a565.216 565.216 0 0 0 -47-1 134.595 134.595 0 0 0 11.5-19c6.59-19.317.42-32.484-18.5-39.5-16.61-.355-31.94 3.978-46 13a414.698 414.698 0 0 0 -57 45.5h-77a522.711 522.711 0 0 1 63-64.5c-19.38 2.352-36.71 9.685-52 22-14.77 11.427-25.77 25.594-33 42.5h-42c3.05-18.436 10.22-35.103 21.5-50 41.08-50.042 94.08-77.375 159-82 27.63-.763 50.13 9.403 67.5 30.5 56.53 14.749 73.19 48.916 50 102.5z" fill="#3f0060" opacity=".988"/><path d="m1360.5 559.5c-28.56.645-56.89-.021-85-2-.3-41.684.03-83.35 1-125a822.44 822.44 0 0 0 -120 16.5c-19.6 3.754-38.26 10.087-56 19-12.1 8.382-13.27 18.215-3.5 29.5 21.66 23.844 45.83 44.511 72.5 62h-52c-18.41-16.236-33.24-35.236-44.5-57-9.91-21.578-7.91-41.911 6-61 12.85-13.858 27.68-25.025 44.5-33.5a364.127 364.127 0 0 1 23-11 711.111 711.111 0 0 1 132.5-36.5 741.64 741.64 0 0 1 16-146c1.48-7.123 4.64-13.289 9.5-18.5 3-.667 6-.667 9 0 8.5 4.5 15 11 19.5 19.5 10.7 21.449 17.36 44.116 20 68a660.435 660.435 0 0 1 4.5 70c59.42-2.678 117.76 4.155 175 20.5 31.53 7.673 58.37 23.173 80.5 46.5 27.98 41.083 21.14 75.25-20.5 102.5-22.24 10.011-44.07 9.178-65.5-2.5-2.25-4.166-1.42-7.666 2.5-10.5 12.66-4.91 23.5-12.41 32.5-22.5 2.3-3.718 2.97-7.718 2-12a39.227 39.227 0 0 0 -10.5-10.5 461.893 461.893 0 0 0 -89-24 669.518 669.518 0 0 0 -106-11.5c.62 43.334 1.28 86.668 2 130z" fill="#3b0062" opacity=".991"/><path d="m1664.5 194.5c44.48 35.649 83.65 76.315 117.5 122 20.53 29.72 36.86 61.72 49 96 12.22 42.734 10.88 85.067-4 127-3 7.34-6.5 14.34-10.5 21-32.16-.998-64.5-1.332-97-1 33.99-45.367 40.82-94.7 20.5-148-16.92-40.887-40.26-77.554-70-110-39.04-40.906-82.54-75.906-130.5-105z" fill="#3b0061" opacity=".992"/><path d="m1807.5 195.5h42c-1.76 9.042-.59 17.708 3.5 26a546.987 546.987 0 0 1 18.5-26h77a316.024 316.024 0 0 0 -40 49.5c57.98 7.617 107.98-8.883 150-49.5 15.74-.317 31.41.016 47 1-9.49 16.404-21.49 30.904-36 43.5-35.67 32.67-77.34 54.003-125 64-15.71 2.032-31.37 1.698-47-1a98.709 98.709 0 0 1 -15-5c-1.33-.667-2.67-.667-4 0a147.6 147.6 0 0 0 -9.5 17.5c-8.49 9.382-17.33 9.882-26.5 1.5-6.4-6.974-10.57-15.141-12.5-24.5a373.11 373.11 0 0 0 -1.5-25.5 206.932 206.932 0 0 0 -13.5-20.5c-8.15-16.295-10.65-33.295-7.5-51z" fill="#3d0060" opacity=".988"/><path d="m609.5 559.5h-49a529.493 529.493 0 0 0 -1-46 679.222 679.222 0 0 0 -1.5-58c-3.779-32.116-21.612-45.616-53.5-40.5-12.718 3.026-24.051 8.692-34 17a282.27 282.27 0 0 0 -20.5 19.5c-.5 35.998-.667 71.998-.5 108h-50c.465-87.016-.035-174.016-1.5-261-.546-7.256-3.379-13.423-8.5-18.5-3.254-1.842-6.754-2.675-10.5-2.5a68.983 68.983 0 0 0 -19 4 3.943 3.943 0 0 1 -2-1l-3.5-8.5c3.29-2.553 6.957-4.553 11-6a3870.543 3870.543 0 0 0 65-26 69.558 69.558 0 0 1 19-1.5c-.167 64.334 0 128.668.5 193 14.012-15.688 29.512-29.521 46.5-41.5 21.805-13.247 44.805-15.913 69-8 20.038 9.385 32.872 24.885 38.5 46.5a190.557 190.557 0 0 1 5 36c.5 31.665.667 63.332.5 95z" fill="#3a0062" opacity=".986"/><path d="m3997.5 497.5c-1 20.493-1.33 41.16-1 62h-48c.33-20.84 0-41.507-1-62a584.647 584.647 0 0 0 -3.5-50c-8.39-28.785-27.22-39.285-56.5-31.5-14.53 4.262-27.2 11.595-38 22l-13.5 13.5c-.5 35.998-.67 71.998-.5 108h-49c.33-42.503 0-84.837-1-127 .17-36.335 0-72.668-.5-109a175.04 175.04 0 0 0 -3-32c-3.35-11.969-11.18-16.469-23.5-13.5a186.702 186.702 0 0 0 -13 3.5 4.922 4.922 0 0 1 -2.5-1 96.164 96.164 0 0 0 -3.5-8.5c.94-1.477 2.28-2.477 4-3a5137.243 5137.243 0 0 0 75-30c5.66-.499 11.32-.666 17-.5-.17 64.334 0 128.668.5 193a634.167 634.167 0 0 1 30.5-29.5c21.69-19.562 47.02-27.229 76-23 23.84 6.171 39.67 21.005 47.5 44.5a117.78 117.78 0 0 1 6 31c1.1 14.313 1.6 28.646 1.5 43z" fill="#3a0062" opacity=".99"/><path d="m5307.5 559.5h-49c.33-42.503 0-84.837-1-127 .37-44.013-.13-88.013-1.5-132a46.59 46.59 0 0 0 -5-17c-5.71-5.617-12.54-7.45-20.5-5.5a246.087 246.087 0 0 0 -12 3.5c-2.85-2.518-4.85-5.685-6-9.5a3.92 3.92 0 0 1 1-2 5137.243 5137.243 0 0 0 75-30 69.536 69.536 0 0 1 19-1.5z" fill="#3b0062" opacity=".991"/><path d="m3438.5 559.5h-66c-15.86-30.776-23.53-63.609-23-98.5.22-65.029 23.88-119.696 71-164 60.3-47.791 127.3-60.124 201-37a399.48 399.48 0 0 1 29 13c15.29 4.941 25.79-.226 31.5-15.5a46.007 46.007 0 0 0 2.5-9h12c2.86 45.01 5.86 90.01 9 135-3.61.289-7.11-.044-10.5-1-27.72-91.612-88.22-126.445-181.5-104.5-31.64 11.64-55.14 32.473-70.5 62.5-15.07 31.936-23.07 65.603-24 101-3.4 41.067 3.1 80.4 19.5 118z" fill="#3b0061" opacity=".983"/><path d="m195.5 513.5a529.493 529.493 0 0 0 -1 46h-56a4031.82 4031.82 0 0 0 -1-127v-150c-23.681-.18-47.348.32-71 1.5-27.044 3.289-44.21 18.122-51.5 44.5a108.08 108.08 0 0 0 -3.5 22h-12v-20a1813.665 1813.665 0 0 0 4-73h328a5564.357 5564.357 0 0 0 5 92 43.117 43.117 0 0 1 -13 1c-.027-25.233-10.361-44.733-31-58.5a73.75 73.75 0 0 0 -26-8 1023.799 1023.799 0 0 0 -71-1.5z" fill="#3b0061" opacity=".988"/><g fill="#3a0062"><path d="m2596.5 559.5h-68a487.595 487.595 0 0 0 -14.5-114l-27-102a208.846 208.846 0 0 1 -3.5-20c1.41-12.209 8.08-16.709 20-13.5 13.03 7.361 23.86 17.194 32.5 29.5 40.38 56.475 61.21 119.642 62.5 189.5.12 10.372-.55 20.539-2 30.5z" opacity=".989"/><path d="m2706.5 557.5c-24.44 1.975-49.11 2.642-74 2 4.4-9.637 8.4-19.471 12-29.5a530.578 530.578 0 0 1 -6-35c1.05-11.053 7.05-17.72 18-20 5.86.662 10.7-1.171 14.5-5.5a2158.78 2158.78 0 0 0 18.5-48.5c-15.18-3.171-29.52-8.504-43-16-7.31-5.78-11.64-13.28-13-22.5 1.43-7.263 5.76-11.763 13-13.5a1327.393 1327.393 0 0 1 177-23.5c34.32 1.747 57.48 18.747 69.5 51 1.7 6.745.2 12.578-4.5 17.5a54.454 54.454 0 0 1 -19 7 421.904 421.904 0 0 1 -62 6c-19.02.557-38.02.557-57 0a1041.972 1041.972 0 0 0 -13 42.5c15.66-.576 31.32-.91 47-1 13.72-.131 27.39.369 41 1.5 7.36 2.695 11.86 7.862 13.5 15.5 1.96 9.339 1.96 18.673 0 28-2.45 6.116-6.95 9.616-13.5 10.5-30.66.978-61.33 1.644-92 2-5.35.521-10.69 1.187-16 2a312.175 312.175 0 0 0 -11 29.5z" opacity=".99"/><path d="m2301.5 557.5c-8.47 1.332-17.31 1.998-26.5 2-9.19-.002-18.03-.668-26.5-2a26.483 26.483 0 0 0 -2.5-11c-3.47-2.132-6.3-4.965-8.5-8.5a111.643 111.643 0 0 0 -26-11 382.852 382.852 0 0 0 -51-10c-44.03-4.427-88.03-9.094-132-14-31.12-5.112-44.62-23.279-40.5-54.5 5.28-26.607 19.78-46.441 43.5-59.5 36.47-18.451 75.13-29.118 116-32 44.27-5.404 87.94-2.404 131 9a188.63 188.63 0 0 1 24 10c7.97 4.434 10.47 10.934 7.5 19.5-5.45 12.653-14.95 20.486-28.5 23.5a268.64 268.64 0 0 1 -28 4 6022.664 6022.664 0 0 1 -120 6c-29.13 1.354-57.46 6.687-85 16-1.53 2.881-.86 5.214 2 7a157.873 157.873 0 0 0 24 6 4025.322 4025.322 0 0 1 147 19c18.37 3.341 35.37 10.008 51 20 18.11 16.056 27.78 36.223 29 60.5z" opacity=".989"/><path d="m1957.5 559.5c-25.74.324-51.41-.01-77-1a884.882 884.882 0 0 1 8.5-142 261.499 261.499 0 0 1 9-42c2.05-5.603 5.21-10.436 9.5-14.5 15.08-1.972 25.58 4.195 31.5 18.5a135.023 135.023 0 0 1 6 22 1240.416 1240.416 0 0 1 12.5 159z" opacity=".99"/><path d="m733.5 559.5h-55c-6.798-38.017-3.298-75.017 10.5-111 26.18-51.683 68.347-75.183 126.5-70.5 37.554 4.906 64.388 24.406 80.5 58.5 6.271 16.061 9.438 32.728 9.5 50h-187c-.755 25.562 4.245 49.895 15 73zm46-161c26.832.653 45.999 12.987 57.5 37a142.312 142.312 0 0 1 5.5 33h-124c3.423-38.404 23.756-61.737 61-70zm3486 162a638.706 638.706 0 0 0 -50-1c.33-22.409 0-44.076-1-65a443.924 443.924 0 0 0 -68 30.5c-13.43 8.252-23.43 19.419-30 33.5a276.694 276.694 0 0 1 -47 0c10.88-16.372 24.88-29.539 42-39.5a764.445 764.445 0 0 1 102-43.5c2.55-18.796.72-37.13-5.5-55-6.83-13.334-17.66-21.167-32.5-23.5-17.99-3.553-33.16 1.281-45.5 14.5a35.275 35.275 0 0 0 -5 10 351.98 351.98 0 0 1 -2 35c-5.71 13.442-15.88 18.942-30.5 16.5-8.32-2.313-14.15-7.48-17.5-15.5-3.93-16.673-.6-31.673 10-45 16.93-19.718 38.43-30.884 64.5-33.5 26.24-3.671 51.91-1.338 77 7 20.22 8.225 32.39 23.058 36.5 44.5a316.444 316.444 0 0 1 2 27c.5 34.332.67 68.665.5 103zm308-1h-49a273.37 273.37 0 0 1 -1 33c.45-45.358-.05-90.691-1.5-136-2.82-31.167-19.65-45-50.5-41.5-23.83 5.663-43.66 17.83-59.5 36.5-.5 35.998-.67 71.998-.5 108h-49c.33-22.173 0-44.173-1-66a777.58 777.58 0 0 0 -1.5-52c-.1-8.32-2.94-15.486-8.5-21.5-10.3-3.516-20.47-3.016-30.5 1.5-2.62-3.585-4.46-7.585-5.5-12a2316.273 2316.273 0 0 0 79.5-31 76.326 76.326 0 0 1 16.5-1c-.17 18.336 0 36.67.5 55 16.2-19.548 35.37-35.382 57.5-47.5 23.7-10.571 47.03-9.904 70 2 18.95 14.375 29.78 33.542 32.5 57.5a2344.98 2344.98 0 0 1 1.5 115z" opacity=".982"/><path d="m4879.5 478.5c-1 26.828-1.33 53.828-1 81h-49c.17-28.669 0-57.335-.5-86-1.79-56.32-28.29-72.486-79.5-48.5-11.97 7.071-22.47 15.904-31.5 26.5-.5 46.999-.67 93.999-.5 141a273.37 273.37 0 0 1 -1-33h-49a273.37 273.37 0 0 1 -1 33c.17-47.668 0-95.334-.5-143 1.02-29.491-12.15-38.825-39.5-28-2.16-2.994-3.83-6.327-5-10 .32-1.147.98-1.981 2-2.5a5558.943 5558.943 0 0 0 78-31c5.32-.499 10.66-.666 16-.5-.17 18.003 0 36.003.5 54 16.88-20.844 37.38-37.011 61.5-48.5 21.8-8.133 43.13-7.133 64 3 20.95 15.386 32.45 36.219 34.5 62.5a273.312 273.312 0 0 1 1.5 30z" opacity=".976"/><path d="m5004.5 558.5c-18.26.986-36.59 1.32-55 1-5.79-30.025-4.95-60.025 2.5-90 12.16-44.156 39.99-73.322 83.5-87.5 25.1-6.287 50.1-5.953 75 1 45.52 19.156 67.86 53.656 67 103.5h-189c-.33 25.333 5 49.333 16 72zm46-160c28.71.262 48.54 13.596 59.5 40a155.353 155.353 0 0 1 4.5 30h-125c3.4-38.385 23.73-61.718 61-70z" opacity=".982"/></g><path d="m2521.5 559.5c-25.17-.331-50.17.002-75 1-13.64-25.272-27.3-50.605-41-76-3.51-4.355-5.68-3.688-6.5 2a1780.144 1780.144 0 0 0 -4.5 72l-69 2c4.87-57.805 18.37-113.471 40.5-167 7.35-14.117 18.18-17.617 32.5-10.5a138.47 138.47 0 0 1 14.5 13.5c14.67 21.333 29.33 42.667 44 64a3799.03 3799.03 0 0 0 64.5 99zm659 18-66-2c24.59-24.698 37.93-54.531 40-89.5.23-10.39-1.93-20.224-6.5-29.5-1.41-1.914-3.25-3.247-5.5-4a152.716 152.716 0 0 0 -24.5 22 1105.404 1105.404 0 0 0 -35 44 56717.264 56717.264 0 0 1 -38.5 59c-50.16-.999-100.5-1.332-151-1 .04-41.62 10.21-80.62 30.5-117 18.74-35.304 42.24-67.137 70.5-95.5 3.86-3.54 8.36-5.707 13.5-6.5 5.93.597 9.26 3.93 10 10 .77 6.724.44 13.39-1 20a234.24 234.24 0 0 1 -13 33 2228.144 2228.144 0 0 1 -32 55c-14.48 26.621-23.65 54.955-27.5 85 .02 4.114.69 8.114 2 12a4931.272 4931.272 0 0 1 56.5-76 1204.829 1204.829 0 0 1 81.5-83.5c15.49-13.161 33.33-21.328 53.5-24.5 14.24 1.619 25.91 7.952 35 19 15.04 19.767 23.71 42.1 26 67 2.86 30.935-1.14 60.935-12 90-1.71 4.656-3.87 8.99-6.5 13z" fill="#390062" opacity=".991"/><path d="m4265.5 560.5c-.17 13.337 0 26.671.5 40 .15 6.29 1.98 11.956 5.5 17 4.35 3.224 9.02 3.724 14 1.5a266.19 266.19 0 0 0 26-21.5 48.803 48.803 0 0 1 .5 17c-12.5 17.506-28.33 31.006-47.5 40.5-33.26 8.176-49.93-4.99-50-39.5a539.608 539.608 0 0 1 -51 35.5c-23.2 10.25-46.2 9.917-69-1-21.67-14.33-32.34-34.663-32-61 .24-10.695 2.57-20.861 7-30.5a276.694 276.694 0 0 0 47 0c-5.36 18.609-2.19 35.609 9.5 51 16.19 15.758 34.35 18.258 54.5 7.5a214.957 214.957 0 0 0 33-21.5c1-33.66 1.33-67.327 1-101 1 20.924 1.33 42.591 1 65 16.74-.318 33.41.015 50 1z" fill="#370063" opacity=".978"/><path d="m137.5 432.5a4031.82 4031.82 0 0 1 1 127h56a529.493 529.493 0 0 1 1-46c-.167 30.002 0 60.002.5 90-.759 20.894 9.075 33.061 29.5 36.5a221.955 221.955 0 0 0 26 1.5v11h-171v-11c12.6.423 24.933-1.077 37-4.5 7.921-3.586 13.421-9.42 16.5-17.5a103.9 103.9 0 0 0 3-20c.5-55.666.667-111.332.5-167z" fill="#370063" opacity=".976"/><path d="m559.5 513.5a529.493 529.493 0 0 1 1 46h49a653.553 653.553 0 0 0 1.5 55c.414 10.679 5.247 18.513 14.5 23.5a85.09 85.09 0 0 0 24 3.5v11h-133v-11c9.558.472 18.891-.695 28-3.5 7.609-4.363 12.442-10.863 14.5-19.5.5-34.998.667-69.998.5-105z" fill="#370063" opacity=".974"/><path d="m399.5 559.5h50c-.167 15.337 0 30.67.5 46-2.246 15.012 3.254 25.845 16.5 32.5a108.64 108.64 0 0 0 27 3.5v11h-135v-11c10.543.267 20.543-1.9 30-6.5 7.178-6.516 10.678-14.683 10.5-24.5.5-16.997.667-33.997.5-51z" fill="#370064" opacity=".981"/><path d="m2248.5 557.5c8.47 1.332 17.31 1.998 26.5 2 9.19-.002 18.03-.668 26.5-2 4.59 42.983-11.74 75.483-49 97.5-37.04 18.054-76.04 24.388-117 19-38.03-4.666-72.03-18.666-102-42a254.946 254.946 0 0 1 -18.5-19.5c-13.5-19.197-14.84-39.197-4-60 7.72-10.277 17.56-17.777 29.5-22.5 25.41-8.442 51.41-10.776 78-7 33.35 3.252 65.02 12.252 95 27 5.14 5.326 5.31 10.826.5 16.5-10.09 8.296-21.59 13.796-34.5 16.5-15.92 5.358-31.92 5.692-48 1a571.112 571.112 0 0 1 -42-17 112.063 112.063 0 0 0 -27.5-7.5c-10.11-.15-18.78 3.183-26 10-6.51 9.182-5.01 17.015 4.5 23.5 19.21 10.093 39.71 14.593 61.5 13.5 40.31.811 78.81-7.022 115.5-23.5a124.35 124.35 0 0 0 26.5-17.5 47.77 47.77 0 0 0 4.5-8z" fill="#380063" opacity=".991"/><path d="m2394.5 558.5c.1 29.754-1.4 59.421-4.5 89-4.86 26.51-19.36 34.01-43.5 22.5-10.17-8.838-16.34-20.005-18.5-33.5a156.91 156.91 0 0 1 -3-20c-.75-18.684-.59-37.351.5-56z" fill="#370063" opacity=".991"/><path d="m2706.5 557.5a716 716 0 0 1 -9 29 43.234 43.234 0 0 0 16 .5 4709.062 4709.062 0 0 1 102-16c10.15-1.949 18.32 1.218 24.5 9.5 7.38 10.199 10.05 21.532 8 34a32.615 32.615 0 0 1 -8.5 11.5c-40.81 32.814-87.31 52.314-139.5 58.5-39.59-1.774-64.26-21.774-74-60-3.75-22.253-1.58-43.92 6.5-65 24.89.642 49.56-.025 74-2z" fill="#370063" opacity=".994"/><path d="m678.5 559.5h55c10.047 16.883 23.38 30.716 40 41.5 27.523 14.882 55.19 15.215 83 1 9.121-5.454 16.621-12.62 22.5-21.5a241.783 241.783 0 0 0 16.5-32 88.242 88.242 0 0 0 9.5 6c-6.244 38.331-25.078 68.831-56.5 91.5-23.668 13.612-49.001 17.945-76 13-41.344-9.671-70.177-34.171-86.5-73.5a189.216 189.216 0 0 1 -7.5-26z" fill="#370063" opacity=".987"/><path d="m1275.5 557.5c28.11 1.979 56.44 2.645 85 2 .53 26.01 1.2 52.01 2 78 70.68 13.383 141.34 13.216 212-.5 45.16-9.422 86.16-27.755 123-55 8.23-6.732 15.57-14.232 22-22.5 32.5-.332 64.84.002 97 1-20.73 42.899-51.73 76.399-93 100.5-60.47 32.953-125.14 51.62-194 56-37.51 1.867-74.84.2-112-5a1657.852 1657.852 0 0 1 -56-10.5c.24 11.812-1.93 23.145-6.5 34-8.01 9.176-18.18 13.176-30.5 12-19.43.726-32.59-7.941-39.5-26a339.268 339.268 0 0 1 -9.5-54.5c-59.53-26.226-112.2-62.059-158-107.5h52c33.33 21.331 68.66 38.997 106 53 .19-18.298.19-36.631 0-55z" fill="#370064" opacity=".992"/><path d="m1880.5 558.5c25.59.99 51.26 1.324 77 1 1.57 28.314 2.07 56.647 1.5 85-1.19 20.186-11.85 30.52-32 31-24.5.168-38.5-11.832-42-36a599.071 599.071 0 0 1 -4.5-81z" fill="#370063" opacity=".992"/><path d="m2521.5 559.5c1.47 1.24 3.14 2.24 5 3 1.42-.505 2.09-1.505 2-3h68c-1.16 31.335-11.83 58.835-32 82.5-16.92 13.986-35.59 16.986-56 9-9.58-7.579-17.75-16.413-24.5-26.5a437.893 437.893 0 0 1 -37.5-64 1406.65 1406.65 0 0 1 75-1z" fill="#380063" opacity=".992"/><path d="m3114.5 575.5 66 2c-12.73 26.237-30.39 48.737-53 67.5-25.2 20.774-53.54 36.107-85 46-20.29 6.009-40.95 8.175-62 6.5a2052.412 2052.412 0 0 0 -37.5 136 5208.695 5208.695 0 0 1 -27 125c-2.11 2.621-4.61 4.621-7.5 6h-9c-15.53-6.024-28.36-15.691-38.5-29-8.42-15.943-11.92-32.943-10.5-51 3.54-64.879 16.38-127.879 38.5-189a1815.333 1815.333 0 0 0 19.5-54c-8.94-20.743-13.94-42.41-15-65 50.5-.332 100.84.001 151 1a641.971 641.971 0 0 0 -22 36c15.98.971 31.31-1.862 46-8.5 17.23-7.1 32.56-16.934 46-29.5z" fill="#360064" opacity=".992"/><g fill="#370063"><path d="m3372.5 559.5h66c23.43 43.859 60.09 68.692 110 74.5 31.53 4.02 61.53-.98 90-15 16.99-10.985 32.16-24.152 45.5-39.5a1185.22 1185.22 0 0 0 20.5-25.5c3.13.899 6.13 2.399 9 4.5 1.08.865 1.25 1.865.5 3-43.43 76.796-109.26 109.63-197.5 98.5-65.8-8.339-113.8-41.839-144-100.5z" opacity=".981"/><path d="m3785.5 432.5c1 42.163 1.33 84.497 1 127h49c-.25 19.354.25 38.687 1.5 58 .98 9.979 6.14 16.812 15.5 20.5a109.688 109.688 0 0 0 28 3.5v11h-137v-11c11.35.328 22.02-2.172 32-7.5 3.93-3.688 6.43-8.188 7.5-13.5a119.434 119.434 0 0 0 2-16c.5-57.332.67-114.666.5-172z" opacity=".984"/><path d="m3947.5 497.5c1 20.493 1.33 41.16 1 62h48c-.33-20.84 0-41.507 1-62-.17 36.335 0 72.668.5 109 .54 26.361 14.04 38.027 40.5 35v11h-136v-11c11.5.857 22.5-.977 33-5.5 5.15-4.466 8.65-9.966 10.5-16.5a2989.19 2989.19 0 0 0 1.5-122z" opacity=".983"/><path d="m4361.5 493.5c1 21.827 1.33 43.827 1 66h49c-.17 15.67 0 31.337.5 47-1.48 13.964 3.69 24.464 15.5 31.5a107.624 107.624 0 0 0 29 3.5v11h-137v-11c8.9.466 17.57-.7 26-3.5 6.73-3.065 10.89-8.231 12.5-15.5a85.753 85.753 0 0 0 3-18c.5-36.998.67-73.998.5-111z" opacity=".982"/><path d="m4573.5 559.5c-.14 18.017.36 36.017 1.5 54 .53 12.253 6.36 20.753 17.5 25.5a120.14 120.14 0 0 0 23 2.5v11h-136v-11c8.78.254 17.44-.579 26-2.5 10.4-4.407 16.24-12.24 17.5-23.5.5-7.659.67-15.326.5-23a273.37 273.37 0 0 0 1-33zm144 33c-.28 9.379.22 18.712 1.5 28 2.63 8.8 8.13 14.967 16.5 18.5 8.6 1.56 17.26 2.393 26 2.5v11h-136v-11c10.17.62 19.84-1.214 29-5.5 5.98-5.123 9.48-11.623 10.5-19.5a133.841 133.841 0 0 0 1.5-24 273.37 273.37 0 0 0 1-33h49a273.37 273.37 0 0 0 1 33z" opacity=".984"/><path d="m4879.5 478.5c-.17 43.335 0 86.668.5 130-.43 11.972 4.07 21.472 13.5 28.5 9.03 3.208 18.36 4.708 28 4.5v11h-136v-11c9.55.469 18.88-.697 28-3.5 7.33-4.14 12.16-10.307 14.5-18.5a732.166 732.166 0 0 0 1.5-60h49c-.33-27.172 0-54.172 1-81z" opacity=".981"/><path d="m4949.5 559.5c18.41.32 36.74-.014 55-1 17.79 33.481 45.62 51.481 83.5 54 30.08-.363 52.74-13.363 68-39a433.124 433.124 0 0 0 12-25l9 6c-6.06 38.395-24.9 68.895-56.5 91.5-24 13.722-49.66 18.055-77 13-52.39-13.22-83.72-46.387-94-99.5z" opacity=".988"/><path d="m5257.5 432.5c1 42.163 1.33 84.497 1 127h49c-.27 18.356.23 36.69 1.5 55 .89 12.213 7.05 20.38 18.5 24.5a139.09 139.09 0 0 0 24 2.5v11h-134v-11c26.89 2.279 40.05-10.054 39.5-37 .5-57.332.67-114.666.5-172z" opacity=".986"/></g></svg>