<svg viewBox="0 -2.4000000000000004 3165 747.4" xmlns="http://www.w3.org/2000/svg" width="2500" height="592"><g clip-rule="evenodd" fill-rule="evenodd"><path d="M145.9 215.6V85.9c0-1.6.9-2.4 2.7-2.4h30.6c2.9 0 4.4-1.4 4.4-4.2V66.8c0-2.8-1.5-4.2-4.4-4.2h-90c-2.9 0-4.4 1.4-4.4 4.2v12.4c0 2.8 1.4 4.2 4.4 4.2h30.6c1.6 0 2.4.8 2.4 2.4v129.7c0 2.8 1.4 4.2 4.3 4.2h15.3c2.7.1 4.1-1.3 4.1-4.1zM240.7 215.6v-61.8c0-1.6 1-2.4 2.9-2.4h51.2c1.6 0 2.4.8 2.4 2.4v61.8c0 2.8 1.4 4.2 4.1 4.2h15.5c2.7 0 4.1-1.4 4.1-4.2V66.8c0-2.8-1.4-4.2-4.1-4.2h-15.5c-2.7 0-4.1 1.4-4.1 4.2v61.1c0 1.6-.8 2.4-2.4 2.4h-51.2c-1.9 0-2.9-.8-2.9-2.4V66.8c0-2.8-1.4-4.2-4.1-4.2h-15.3c-2.7 0-4.1 1.4-4.1 4.2v148.8c0 2.8 1.4 4.2 4.1 4.2h15.3c2.7 0 4.1-1.4 4.1-4.2zM445.8 215.6v-12.5c0-2.8-1.3-4.2-3.9-4.2h-55.3c-1.9 0-2.9-.9-2.9-2.7v-43.5c0-1.6 1-2.4 2.9-2.4h46.8c2.9 0 4.4-1.4 4.4-4.1v-12.5c0-2.8-1.5-4.2-4.4-4.2h-46.8c-1.9 0-2.9-.8-2.9-2.4V85.9c0-1.6 1-2.4 2.9-2.4h55.3c2.6 0 3.9-1.4 3.9-4.2V66.8c0-2.8-1.3-4.2-3.9-4.2h-77.6c-2.8 0-4.1 1.4-4.1 4.2v148.8c0 2.8 1.4 4.2 4.1 4.2h77.6c2.6 0 3.9-1.4 3.9-4.2zM754.5 2.5c-6.7-4.9-12.1-2.2-12.1 6.1v258.5c0 6 3 9 9 9h36.5c6 0 9-3 9-9V42.8c0-5-3.2-11.4-7.2-14.3l-35.2-26zM906.5 125.8V52c0-3.2 1.6-4.7 4.7-4.7h42c9.1 0 15.9 2 20.2 6s6.4 10.5 6.4 19.3v33.5c0 8.6-2.1 14.8-6.4 18.7s-11 5.8-20.2 5.8h-42c-3.1 0-4.7-1.6-4.7-4.8zm0 141.3v-88c0-3.1 1.7-4.7 5.1-4.7h28.8l42.9 92.8c1.4 3.7 3.3 6.2 5.6 7.3s6 1.7 11.2 1.7h34.8c7.4 0 9.9-3.4 7.3-10.3l-45.9-95.8v-1.7c25.4-10.6 38.2-32.1 38.2-64.4V70.4c0-22.3-6.3-39.7-18.9-52C1002.9 6.2 985.5 0 963.2 0H861.1c-6 0-9 3-9 9v258.1c0 6 3 9 9 9h36.5c5.9 0 8.9-3 8.9-9zM1092 257.7c12.6 12.3 30 18.5 52.4 18.5h46.8c22.3 0 39.8-6.2 52.3-18.5 12.6-12.3 18.9-29.6 18.9-52v-14.6c0-17.2-3.4-31.3-10.1-42.3s-15.1-18.7-25.1-23c-18.9-7.7-40.5-12.6-64.8-14.6-23.5-2-35.2-9.7-35.2-23.2v-8.2c0-12.9 2.1-21.5 6.2-26 4.1-4.4 12.1-6.7 23.8-6.7h16.7c11.4 0 19.3 2 23.6 6s6.4 11.6 6.4 22.8v2.6c0 6 3 9 9 9h36.5c6 0 9-3 9-9v-8.2c0-22.3-6.3-39.7-18.9-52S1209.4 0 1186.8 0h-42.9c-22.3 0-39.8 6.2-52.3 18.5s-18.9 29.6-18.9 52v15c0 17.7 3.3 32.3 10.1 43.6 6.7 11.3 15.1 18.9 25.1 22.8s20.8 7 32.4 9.4c11.6 2.5 22.4 4.1 32.4 4.9 10 .9 18.4 3.5 25.1 7.9s10.1 10.8 10.1 19.1v5.2c0 11.7-2.2 19.8-6.6 24.1s-12.2 6.4-23.4 6.4h-20.2c-11.4 0-19.3-2-23.6-6s-6.4-11.5-6.4-22.3v-3.4c0-6-3-9-9-9h-36.5c-6 0-9 3-9 9v8.6c-.1 22.3 6.2 39.6 18.8 51.9zM1384.7 270.7c7.9 7.7 14.3 5 14.3-6.1V52c0-3.2 1.7-4.7 5.1-4.7h48.9c6 0 9-3 9-9V9c0-6-3-9-9-9h-162.2c-6 0-9 3-9 9v29.2c0 6 3 9 9 9h48.9c3.1 0 4.7 1.6 4.7 4.7v177.7c0 1.1.6 2.6 1.4 3.4zM605.7 267.1v-91.5c0-3.2 1.7-4.7 5.1-4.7h60.3c1.7 0 3.5-1.3 4.1-2.8l14.3-37c1.6-4.1-.7-7.5-5.1-7.5h-73.6c-3.4 0-5.1-1.7-5.1-5.2V52c0-3.2 1.7-4.7 5.1-4.7h75.1c1.7 0 3.5-1.2 4.2-2.7l16.2-36.3c2-4.5-.3-8.2-5.3-8.2H560.2c-6 0-9 3-9 9v258.1c0 6 3 9 9 9h36.5c6-.1 9-3.1 9-9.1zM14 740h164.2c34.6 0 61.5-9.4 80.8-28.3s28.9-45.6 28.9-80.2V420.6c0-34.6-9.6-61.3-28.9-80.2s-46.2-28.3-80.8-28.3H14c-9.3 0-14 4.7-14 14v97.5l84.5 41.5v-72.5c0-4.9 2.4-7.3 7.3-7.3h72.5c14.2 0 24.3 3 30.2 9 6 6 9 16.1 9 30.3v202.9c0 14.2-3 24.3-9 30.3s-16.1 9-30.2 9H91.8c-4.9 0-7.3-2.4-7.3-7.3v-88.9L0 612.1V726c0 9.3 4.7 14 14 14zM546.2 486.5H352.1c-6.6 0-12 5.4-12 12V726c0 9.3 4.7 14 14 14h217.4c8.9 0 13.3-4.7 13.3-14v-45.2c0-9.3-4.4-14-13.3-14h-139c-5.3 0-8-2.4-8-7.3V567c0-4.9 2.6-7.3 8-7.3h113.7c9.3 0 14-4.7 14-14v-45.2c0-9.3-4.7-14-14-14zm-133.7-19.6c6.6 0 12-5.4 12-12v-62.2c0-4.9 2.6-7.3 8-7.3h139c8.9 0 13.3-4.7 13.3-14v-45.2c0-9.3-4.4-14-13.3-14H354c-9.3 0-14 4.7-14 14v128.7c0 6.6 5.4 12 12 12zM641.7 711.4c19.5 19.1 46.5 28.6 81.1 28.6h72.5c34.6 0 61.6-9.5 81.1-28.6s29.3-45.9 29.3-80.5v-22.6c0-26.6-5.2-48.4-15.6-65.5s-23.4-28.9-38.9-35.6c-29.2-12-62.7-19.5-100.4-22.6-36.4-3.1-54.5-15.1-54.5-35.9v-12.6c0-19.9 3.2-33.4 9.6-40.2 6.4-6.9 18.7-10.3 36.9-10.3h25.9c17.7 0 29.9 3.1 36.6 9.3s10 18 10 35.3v4c0 9.3 4.6 14 14 14h56.5c9.3 0 13.9-4.7 13.9-14v-12.6c0-34.6-9.8-61.4-29.3-80.5s-46.8-28.6-81.8-28.6h-66.5c-34.6 0-61.6 9.5-81.1 28.6s-29.2 45.9-29.2 80.5v23.3c0 27.5 5.2 50 15.6 67.5s23.4 29.3 38.9 35.3 32.2 10.9 50.2 14.6c17.9 3.8 34.7 6.3 50.2 7.7 15.5 1.3 28.5 5.4 38.9 12.3s15.6 16.8 15.6 29.6v8c0 18.2-3.4 30.6-10.3 37.3s-18.9 10-36.2 10h-31.2c-17.7 0-29.9-3.1-36.6-9.3s-10-17.7-10-34.6V618c0-9.3-4.7-14-14-14h-56.5c-9.3 0-14 4.7-14 14v13.3c.1 34.2 9.8 61 29.3 80.1zM1198.5 711.7c19.3-18.9 28.9-45.6 28.9-80.2v-31.3c0-9.8-4.9-14.6-14.6-14.6H1157c-9.3 0-14 4.9-14 14.6v27.3c0 14.2-3 24.3-9 30.3s-16.1 9-30.3 9h-45.2c-13.7 0-23.6-3-29.6-9s-9-16.1-9-30.3V424.6c0-14.2 3-24.3 9-30.3s15.8-9 29.6-9h45.2c14.2 0 24.3 3 30.3 9s9 16.1 9 30.3v27.3c0 9.8 4.6 14.6 14 14.6h55.8c9.7 0 14.6-4.9 14.6-14.6v-31.3c0-34.6-9.7-61.3-28.9-80.2-19.3-18.9-46.2-28.3-80.8-28.3h-72.5c-35 0-62.1 9.3-81.1 27.9-19.1 18.6-28.6 45.5-28.6 80.5v210.9c0 35 9.5 61.9 28.6 80.5s46.1 27.9 81.1 27.9h72.5c34.6.2 61.6-9.2 80.8-28.1zM1464.2 486.5H1270c-6.6 0-12 5.4-12 12V726c0 9.3 4.7 14 14 14h217.4c8.9 0 13.3-4.7 13.3-14v-45.2c0-9.3-4.4-14-13.3-14h-139c-5.3 0-8-2.4-8-7.3V567c0-4.9 2.7-7.3 8-7.3h113.7c9.3 0 14-4.7 14-14v-45.2c.1-9.3-4.6-14-13.9-14zm-133.7-19.6c6.6 0 12-5.4 12-12v-62.2c0-4.9 2.7-7.3 8-7.3h139c8.9 0 13.3-4.7 13.3-14v-45.2c0-9.3-4.4-14-13.3-14H1272c-9.3 0-14 4.7-14 14v128.7c0 6.6 5.4 12 12 12zM1625.4 726V479.2h2.7l133 247.5c4.4 8.9 11.5 13.3 21.3 13.3h48.5c9.3 0 14-4.7 14-14V326.1c0-9.3-4.7-14-14-14h-55.2c-9.3 0-14 4.7-14 14v247.5h-2.6l-134.3-252.2c-3.1-6.2-9.3-9.3-18.6-9.3h-49.9c-9.3 0-14 4.7-14 14V726c0 9.3 4.7 14 14 14h55.2c9.3 0 13.9-4.7 13.9-14zM1901.3 740h164.2c34.6 0 61.5-9.4 80.8-28.3s28.9-45.6 28.9-80.2V420.6c0-34.6-9.6-61.3-28.9-80.2s-46.2-28.3-80.8-28.3h-164.2c-9.3 0-14 4.7-14 14V726c.1 9.3 4.7 14 14 14zm70.5-80.5V392.7c0-4.9 2.4-7.3 7.3-7.3h72.5c14.2 0 24.3 3 30.2 9 6 6 9 16.1 9 30.3v202.9c0 14.2-3 24.3-9 30.3s-16.1 9-30.2 9h-72.5c-4.8-.1-7.3-2.5-7.3-7.4zM2360.1 392.7l81.8 333.3c.9 5.3 2.2 9 4 11s5.1 3 10 3h63.8c8 0 10.6-4.7 8-14l-105.1-399.9c-2.2-9.3-8.9-14-19.9-14h-88.4c-10.2 0-16.9 4.7-19.9 14L2189.2 726c-2.6 9.3 0 14 8 14h172.4c3.3 0 5.4-2.6 4.6-5.8l-15.6-63.3c-.5-2.1-2.7-3.9-5-3.9h-63.9l67.8-274.3zM2634.6 726V479.2h2.7l133 247.5c4.4 8.9 11.5 13.3 21.3 13.3h48.5c9.3 0 14-4.7 14-14V326.1c0-9.3-4.7-14-14-14h-55.2c-9.3 0-14 4.7-14 14v247.5h-2.6L2634 321.5c-3.1-6.2-9.3-9.3-18.6-9.3h-49.9c-9.3 0-14 4.7-14 14V726c0 9.3 4.7 14 14 14h55.2c9.3 0 13.9-4.7 13.9-14zM3044.7 733c12.3 12 22.3 7.8 22.3-9.5v-331c0-4.9 2.7-7.4 8-7.4h76c9.3 0 14-4.7 14-14v-45.5c0-9.4-4.7-14.1-14-14.1h-252c-9.3 0-14 4.7-14 14.1v45.5c0 9.4 4.7 14 14 14h76c4.9 0 7.3 2.5 7.3 7.4v276.7c0 1.7 1 4.1 2.2 5.3z"/></g></svg>