<svg viewBox="53.95 40.679999999999986 892.1 568.6400000000001" xmlns="http://www.w3.org/2000/svg" width="2500" height="1575"><path d="M211.37 543.5h33.15v12.12h-10.93v52.47h-11.58v-52.47h-10.64zm44.3-1.62h11.05v23.27c2.17-2.02 4.36-3.53 6.56-4.54s4.43-1.52 6.69-1.52c4.4 0 8.11 1.64 11.13 4.92 2.58 2.84 3.87 7.01 3.87 12.51v31.57H284v-20.94c0-5.53-.24-9.28-.73-11.24s-1.33-3.43-2.51-4.39c-1.18-.97-2.64-1.45-4.38-1.45-2.26 0-4.19.81-5.81 2.42s-2.74 3.81-3.36 6.59c-.33 1.43-.49 4.71-.49 9.84v19.19h-11.05zm99.52 45.79h-35.76c.52 3.4 1.9 6.1 4.14 8.1 2.24 2.01 5.1 3.01 8.58 3.01 4.16 0 7.73-1.57 10.72-4.7l9.38 4.74c-2.34 3.57-5.14 6.21-8.4 7.93-3.26 1.71-7.14 2.57-11.62 2.57-6.96 0-12.63-2.36-17-7.09-4.38-4.73-6.56-10.65-6.56-17.76 0-7.29 2.18-13.34 6.54-18.16s9.83-7.22 16.41-7.22c6.99 0 12.67 2.41 17.04 7.22 4.38 4.82 6.56 11.17 6.56 19.08zm-11.13-9.43c-.74-2.66-2.19-4.83-4.35-6.5s-4.68-2.5-7.54-2.5c-3.1 0-5.83.94-8.17 2.81-1.47 1.17-2.83 3.24-4.08 6.19zm50.32-34.74h11.42v52.86h16.63v11.72h-28.05zm84.84 44.17h-35.76c.52 3.4 1.9 6.1 4.14 8.1 2.24 2.01 5.1 3.01 8.58 3.01 4.16 0 7.73-1.57 10.72-4.7l9.38 4.74c-2.34 3.57-5.14 6.21-8.4 7.93-3.26 1.71-7.14 2.57-11.62 2.57-6.96 0-12.63-2.36-17-7.09-4.38-4.73-6.56-10.65-6.56-17.76 0-7.29 2.18-13.34 6.54-18.16s9.83-7.22 16.41-7.22c6.99 0 12.67 2.41 17.04 7.22 4.38 4.82 6.56 11.17 6.56 19.08zm-11.13-9.43c-.74-2.66-2.19-4.83-4.35-6.5-2.17-1.67-4.68-2.5-7.54-2.5-3.1 0-5.83.94-8.17 2.81-1.47 1.17-2.83 3.24-4.08 6.19zm57.89-17.92h11.13v47.77h-11.13v-5.05c-2.17 2.23-4.35 3.83-6.54 4.81s-4.56 1.47-7.11 1.47c-5.73 0-10.68-2.39-14.86-7.18s-6.27-10.74-6.27-17.85c0-7.38 2.02-13.42 6.07-18.13s8.96-7.07 14.74-7.07c2.66 0 5.16.54 7.49 1.62 2.34 1.08 4.49 2.71 6.48 4.87zm-11.7 9.84c-3.44 0-6.3 1.31-8.58 3.93s-3.41 5.98-3.41 10.08c0 4.13 1.16 7.52 3.47 10.19 2.32 2.66 5.17 4 8.55 4 3.49 0 6.39-1.31 8.7-3.93s3.45-6.05 3.45-10.3c0-4.16-1.15-7.52-3.45-10.1-2.3-2.59-5.21-3.87-8.73-3.87zM587 541.88h11.13v66.21H587v-5.05c-2.17 2.23-4.35 3.83-6.54 4.81s-4.56 1.47-7.11 1.47c-5.73 0-10.68-2.39-14.86-7.18s-6.27-10.74-6.27-17.85c0-7.38 2.02-13.42 6.07-18.13s8.96-7.07 14.74-7.07c2.66 0 5.16.54 7.49 1.62 2.34 1.08 4.49 2.71 6.48 4.87zm-11.7 28.28c-3.44 0-6.3 1.31-8.58 3.93s-3.41 5.98-3.41 10.08c0 4.13 1.16 7.52 3.47 10.19 2.32 2.66 5.17 4 8.55 4 3.49 0 6.39-1.31 8.7-3.93 2.3-2.62 3.45-6.05 3.45-10.3 0-4.16-1.15-7.52-3.45-10.1-2.3-2.59-5.21-3.87-8.73-3.87zm70.2-26.66h11.22l14.03 45.05 14.16-45.05h11.22l10.15 64.59h-11.14l-6.49-40.79-12.86 40.79h-10.15L652.9 567.3l-6.64 40.79h-11.23zm106.93 16.82h11.13v47.77h-11.13v-5.05c-2.17 2.23-4.35 3.83-6.54 4.81s-4.56 1.47-7.11 1.47c-5.73 0-10.68-2.39-14.86-7.18s-6.27-10.74-6.27-17.85c0-7.38 2.02-13.42 6.07-18.13s8.96-7.07 14.74-7.07c2.66 0 5.16.54 7.49 1.62 2.34 1.08 4.49 2.71 6.48 4.87zm-11.7 9.84c-3.44 0-6.3 1.31-8.58 3.93s-3.41 5.98-3.41 10.08c0 4.13 1.16 7.52 3.47 10.19 2.32 2.66 5.17 4 8.55 4 3.49 0 6.39-1.31 8.7-3.93 2.3-2.62 3.45-6.05 3.45-10.3 0-4.16-1.15-7.52-3.45-10.1-2.29-2.59-5.21-3.87-8.73-3.87zm35.9-9.84h9.54v6.02c1.03-2.37 2.41-4.17 4.12-5.4s3.59-1.84 5.63-1.84c1.44 0 2.95.41 4.53 1.23l-3.47 10.32c-1.3-.7-2.38-1.05-3.22-1.05-1.71 0-3.16 1.14-4.34 3.42s-1.77 6.76-1.77 13.44l.04 2.33v19.32h-11.05v-47.79zm33.53-18.44h11.13v38.14l16.39-19.7h13.98l-19.11 22.9 21.39 24.88h-13.82l-18.84-22.02v22.02h-11.13v-66.22zm98.1 45.79H872.5c.52 3.4 1.9 6.1 4.14 8.1 2.24 2.01 5.1 3.01 8.58 3.01 4.16 0 7.73-1.57 10.72-4.7l9.38 4.74c-2.34 3.57-5.14 6.21-8.4 7.93-3.26 1.71-7.14 2.57-11.62 2.57-6.96 0-12.63-2.36-17-7.09-4.38-4.73-6.56-10.65-6.56-17.76 0-7.29 2.18-13.34 6.54-18.16s9.83-7.22 16.41-7.22c6.99 0 12.67 2.41 17.04 7.22 4.38 4.82 6.56 11.17 6.56 19.08zm-11.13-9.43c-.74-2.66-2.19-4.83-4.35-6.5-2.17-1.67-4.68-2.5-7.54-2.5-3.1 0-5.83.94-8.17 2.81-1.47 1.17-2.83 3.24-4.08 6.19zm25.91-35.53h11.13v17.61h6.6v10.32h-6.6v37.45h-11.13v-37.45h-5.71v-10.32h5.71zM194.05 543.5h4.35v64.59h-4.35zm-22.2 64.59h7.41V543.5h-7.41zm-27.42 0h12.08V543.5h-12.08zm-26.55 0h16.75V543.5h-16.75zm-30.21 0h21.54V543.5H87.67zm-33.67 0h25.82V543.5H54zM887.21 40.68h17.63c22.76 0 41.21 18.45 41.21 41.21v302.94c0 15.34-12.43 27.77-27.77 27.77s-27.77-12.43-27.77-27.77V99.14L740.84 389.65a42.346 42.346 0 0 1-37.65 22.96c-15.86 0-30.39-8.86-37.65-22.96L516.32 100l-.01-.01v284.84c0 15.34-12.43 27.77-27.77 27.77s-27.77-12.43-27.77-27.77V81.89c0-22.76 18.45-41.21 41.21-41.21h17.17c15.93 0 30.53 8.9 37.83 23.07l146.2 283.8 146.2-283.8a42.556 42.556 0 0 1 37.83-23.07zM384.85 438.97V68.45c0-15.34-12.43-27.77-27.77-27.77s-27.77 12.43-27.77 27.77v390.96c0 22.1 17.92 40.02 40.02 40.02h544.66c16.69 0 30.23-13.53 30.23-30.23 0-16.69-13.53-30.23-30.23-30.23zM313.19 68.45c0-10.53 3.73-20.2 9.93-27.77H81.72c-15.34 0-27.77 12.43-27.77 27.77s12.43 27.77 27.77 27.77h127.26v375.43c0 15.34 12.43 27.77 27.77 27.77s27.77-12.43 27.77-27.77V96.22h48.67zm87.77 0v26.5c11.27-3.54 19.45-14.06 19.45-26.5 0-15.34-12.43-27.77-27.77-27.77h-1.61c6.2 7.57 9.93 17.24 9.93 27.77z"/></svg>