<svg height="436" viewBox="-.40263753 -.40461027 240.40063753 42.61786258" width="2500" xmlns="http://www.w3.org/2000/svg"><path d="m23.674 23.115a4.413 4.413 0 1 1 -1.615-6.035 4.414 4.414 0 0 1 1.615 6.035z" fill="#de2225"/><path d="m5.346 22.337a2.863 2.863 0 1 1 -1.049-3.913 2.866 2.866 0 0 1 1.049 3.913zm33.972.005a2.862 2.862 0 1 1 -1.046-3.912 2.86 2.86 0 0 1 1.046 3.912zm-18.041 14.161a2.844 2.844 0 1 1 -3.887 1.041 2.849 2.849 0 0 1 3.887-1.041zm0-36.123a2.844 2.844 0 1 1 -3.887 1.043 2.847 2.847 0 0 1 3.887-1.043zm8.748 8.961a2.094 2.094 0 1 1 -2.861.767 2.1 2.1 0 0 1 2.861-.767zm0 19.351a2.094 2.094 0 1 1 -2.861.766 2.1 2.1 0 0 1 2.861-.766zm-18.009-19.351a2.094 2.094 0 1 1 -2.862.767 2.1 2.1 0 0 1 2.862-.767zm0 19.351a2.094 2.094 0 1 1 -2.862.766 2.1 2.1 0 0 1 2.862-.766zm62.589 7.52c-4.767 0-6.85-2.188-6.85-10.194v-9.012c0-.569-.2-.787-.721-.787h-1.122a1.015 1.015 0 0 1 -1.042-1.137v-.613a1.052 1.052 0 0 1 1.042-1.181h1.122c.52 0 .721-.219.721-.744v-3.281a1.051 1.051 0 0 1 1.042-1.181h.881a1.051 1.051 0 0 1 1.042 1.181v3.281c0 .569.2.744.721.744h6.129a1.052 1.052 0 0 1 1.042 1.181v.613a1.015 1.015 0 0 1 -1.042 1.137h-6.129c-.52 0-.721.219-.721.787v9.187c0 5.775 1.2 7.088 3.926 7.088h.16c2.284 0 2.925-.657 3.605-.657.561 0 .881.35.881 1.05v.656c0 .788-.321 1.225-1.4 1.531a11.783 11.783 0 0 1 -3.085.35zm8.772-.2a1.01 1.01 0 0 1 -1.042-1.041v-15.624c0-2.644.641-3.405 2.8-3.926a18.424 18.424 0 0 1 3.766-.4h.2a20.41 20.41 0 0 1 4.327.4c.881.2 1.242.521 1.242 1.282v.561c0 .681-.32 1.042-1 1.042a22.727 22.727 0 0 0 -4.367-.6h-.12a10.922 10.922 0 0 0 -2.524.241c-1.122.28-1.322.841-1.322 1.843v15.183a1.021 1.021 0 0 1 -1.082 1.041zm13.178-9.935v-.8c0-7.892 2.4-10.256 8.934-10.256h.481c6.33 0 8.894 1.963 8.894 8.173v1.118c0 1.963-.962 2.644-2.765 2.644h-11.778c-.481 0-.721.2-.721.721 0 4.166 1.2 5.889 6.089 5.889h.4c3.926 0 6.089-1.122 6.971-1.122.641 0 .961.28.961 1v.521c0 .881-.481 1.122-1.322 1.362a24.126 24.126 0 0 1 -6.53.881h-.521c-6.73.004-9.093-2.396-9.093-10.131zm3.766-1.482h10.9c.481 0 .721-.2.721-.681 0-5.168-1.041-6.25-5.969-6.25h-.6c-4.447 0-5.769 1.362-5.769 6.25-.004.521.196.681.717.681zm23.033-6.49c-1.081.2-1.362.842-1.362 1.883v14.983a1.02 1.02 0 0 1 -1.082 1.041h-.881a.988.988 0 0 1 -1.042-1.041v-15.544c0-2.4.681-3.325 2.644-3.806a26.373 26.373 0 0 1 5.889-.6c6.33 0 8.774 1.763 8.774 9.094v10.857a1 1 0 0 1 -1.082 1.041h-.841a1.021 1.021 0 0 1 -1.082-1.041v-10.7c0-5.368-1.322-6.57-5.689-6.57a19.525 19.525 0 0 0 -4.246.403zm26.999 18.108h-.961c-6.37 0-9.014-2.3-9.014-11.117v-.739c0-8.815 2.644-11.117 9.014-11.117h1a39.729 39.729 0 0 1 4.968.391c.6.087.841-.174.841-.738v-6.122a1.076 1.076 0 0 1 1.082-1.173h.841a1.077 1.077 0 0 1 1.082 1.173v24.1c.001 3.822-2.002 5.342-8.853 5.342zm4.647-19.715a24.279 24.279 0 0 0 -4.647-.348h-.842c-5.088 0-6.129 1.52-6.129 8.294v.392c0 6.948 1.082 8.468 6.129 8.468h.842a16.737 16.737 0 0 0 3.926-.3c1.522-.477 1.923-.912 1.923-2.735v-12.295c0-.955-.32-1.259-1.202-1.476zm11.055 19.514h-.881a1.011 1.011 0 0 1 -1.042-1.129v-28.112a1.047 1.047 0 0 1 1.042-1.173h.881a1.047 1.047 0 0 1 1.042 1.173v28.111a1.011 1.011 0 0 1 -1.042 1.13zm7.935-25.157h-.881c-.641 0-1.041-.434-1.041-1.173v-2.911a1.047 1.047 0 0 1 1.041-1.173h.881a1.047 1.047 0 0 1 1.042 1.173v2.911c-.005.739-.405 1.173-1.042 1.173zm0 25.157h-.881a1.011 1.011 0 0 1 -1.041-1.129v-20.247a1.047 1.047 0 0 1 1.041-1.173h.881a1.047 1.047 0 0 1 1.042 1.173v20.247a1.011 1.011 0 0 1 -1.042 1.129zm10.129-17.907c-1.081.2-1.362.842-1.362 1.883v14.983a1.02 1.02 0 0 1 -1.081 1.041h-.879a.988.988 0 0 1 -1.042-1.041v-15.544c0-2.4.681-3.325 2.644-3.806a26.372 26.372 0 0 1 5.889-.6c6.329 0 8.773 1.763 8.773 9.094v10.857a1 1 0 0 1 -1.081 1.041h-.841a1.021 1.021 0 0 1 -1.082-1.041v-10.7c0-5.368-1.322-6.57-5.688-6.57a19.528 19.528 0 0 0 -4.25.403zm17.025 7.972v-.8c0-7.892 2.4-10.256 8.933-10.256h.481c6.33 0 8.894 1.963 8.894 8.173v1.118c0 1.963-.961 2.644-2.764 2.644h-11.778c-.481 0-.721.2-.721.721 0 4.166 1.2 5.889 6.089 5.889h.4c3.926 0 6.089-1.122 6.971-1.122.641 0 .961.28.961 1v.521c0 .881-.481 1.122-1.322 1.362a24.126 24.126 0 0 1 -6.53.881h-.521c-6.73.004-9.093-2.396-9.093-10.131zm3.766-1.482h10.9c.481 0 .721-.2.721-.681 0-5.168-1.042-6.25-5.969-6.25h-.6c-4.447 0-5.769 1.362-5.769 6.25-.003.521.197.681.717.681zm25.516 1.722c-5.368-1.162-7.051-2.283-7.051-5.488 0-4.046 2.364-5.809 7.932-5.809a22.63 22.63 0 0 1 6.57.842c1.042.32 1.4.641 1.4 1.482v.6a.9.9 0 0 1 -.961.961c-1.122 0-2.6-1.242-6.97-1.242-3.926 0-4.968.881-4.968 3.045 0 1.762.921 2.163 5.568 3.285 6.21 1.4 8.052 2.364 8.052 5.809 0 4.286-2.363 6.41-8.853 6.41a23.027 23.027 0 0 1 -6.57-.8c-1.042-.32-1.4-.641-1.4-1.482v-.6a.925.925 0 0 1 .961-.961c1.122 0 2.885 1.2 7.091 1.2 4.647 0 5.769-1.282 5.769-3.485s-1.522-2.565-6.57-3.767z" fill="#fff"/></svg>