<svg height="1597.979" viewBox="0 0 1000 422.798" width="1000mm" xmlns="http://www.w3.org/2000/svg"><g fill-rule="evenodd"><path d="m56.768 290.205c-1.782.08-2.788.242-2.795.244 6.002 1.608 14.306 10.013 14.306 17.027v113.84h28.857v-71.564l34.19 71.415-.08.148h33.958l38.578-71.974v71.974h25.094c5.764 0 16.44-.915 30.425-29.17h61.178c8.01 16.01 25.01 29.521 47.699 29.13-9.376-12.966-15.58-21.784-22.056-37.61l-27.995-70.171h34.486v51.317c0 19.944 1.96 56.797 42.372 56.797-9.585-13.254-14.17-36.5-14.17-49v-59.114h28.2v107.821h26.164v-45.352c37.83 30.747 55.785 45.352 82.283 45.352h63.584l21.547-33.547 21.545 33.547h76.412l21.345-33.235 21.346 33.235h39.307l-40.998-63.837 18.87-28.946c12.267-21.249 33.471-32.529 42.159-37.59h-27.65a57.28 57.28 0 0 0 -48.196 26.326l-5.503 8.57-22.411-34.896h-74.527l-21.47 33.907-4.923-7.666a57.585 57.585 0 0 0 -48.038-26.464l-50.953-.367c11.802 7.377 18.554 21.418 18.554 33.918v77.441c-14.943-8.015-29.888-17.93-44.831-30.14 18.913-2.926 35.42-11.903 36.276-37.932.55-16.67-1.84-20.38-8.048-28.573-6.208-8.192-17.019-14.124-32.999-14.124h-195.882l-37.894 93.135c-.316.758-1.444.534-1.444-.287v-92.565h-32.748l-51.188 97.007-25.43-50.527c-11.076-19.184-22.647-32.004-35.424-39.447-13.39-7.8-25.734-8.295-31.082-8.053zm605.376 4.839 39.432 61.398-39.233 61.088-39.432-61.4zm-112.221 16.893c3.951.238 22.048 30.34 32.724 44.775l-33.062 52.212v-96.917a.59.59 0 0 1 .338-.07zm-103.742.348c12.594-.16 22.039.83 27.941 4.501 5.903 3.672 8.266 10.184 8.266 14.96 0 9.555-5.085 18.686-29.61 18.686-4.777 0-10.507.157-14.617-2.841s-6.6-9.151-6.461-13.926l.589-20.327c4.941-1.04 9.137-.993 13.892-1.053zm-155.928 11.167 14.687 36.194h-29.372z" fill="#fe0000"/><path d="m93.644 344.953c.686 1.924 1.283 3.857 1.283 5.93 0 4.053-1.735 8.793-6.13 8.793-3.594 0-5.376-2.502-5.376-5.407v-2.82c1.77.78 2.923 2.611 2.924 4.642h4.703l.003-.165c0-2.811-1.1-5.308-2.884-7.2-2.425-2.571-4.44-3.13-7.55-3.13-.683 0-1.304.014-1.899.034l-.003 8.703c0 5.805 4.498 10.51 10.046 10.51 5.549 0 10.047-4.705 10.047-10.51 0-3.95-2.084-7.509-5.164-9.38zm-5.328 20.889c-5.302 0-9.6 4.306-9.6 9.894v4.735c-4.988.338-6.26 3.772-6.26 6.34v35.904h4.618v-19.507h12.06c2.86 0 6.732 1.59 8.743 2.784 0-5.619-3.439-8.258-8.743-8.258h-12.06v-10.996h20.853v-6.267h-14.307v-4.073c0-3.099 2.384-6.11 5.324-6.11h8.984v-4.446z" fill="#1b1a20"/><path d="m73.843 0v79.434c0 4.883-1.01 12.494-3.562 20.487s-6.646 16.367-9.126 21.095c11.344 0 22.003-4.086 28.651-12.323 6.649-8.237 9.286-26.665 9.286-31.859v-55.947h48.316v-20.887zm102.396 32.167c-1.357 0-2.393.543-2.83 1.485l-29.933 64.497a132.605 132.605 0 0 1 -14.867 22.185c11.023 0 20.337-3.454 28.391-10.309 4.279-3.64 8.211-8.575 10.603-13.567l20.202-42.173 29.662 63.912h23.971l-39.927-86.03zm109.334-2.44c-24.808 0-44.92 20.383-44.92 45.526 0 25.142 20.112 45.524 44.92 45.524 16.882 0 32.092-9.445 40.09-23.4-8.223 3.108-16.483 5.813-25.343 5.813-17.323 0-37.582-7.864-37.582-27.781 0-16.283 10.692-24.354 23.109-24.354h12.049a21.485 21.485 0 0 1 -19.836 13.245v21.313c.235.003.468.017.705.017 12.018 0 22.684-4.982 30.773-13.07 10.989-10.989 13.374-20.118 13.374-34.215 0-3.09-.058-5.905-.143-8.6zm105.227-29.407c-45.452 0-57.12 43.03-57.12 75.463.001 24.878 20.467 45.047 45.713 45.046 25.246 0 45.282-20.168 45.282-45.046 0-24.88-20.035-45.361-45.282-45.361h-14.589c4.226-13.47 15.662-22.836 25.996-30.102zm-32.61 51.433h21.35c12.927 0 23.407 11.343 23.407 24.27 0 12.926-10.48 23.405-23.406 23.405-12.927 0-24.111-10.48-24.111-23.406 0-7.115 1.595-17.593 2.76-24.269z"/><path d="m112.959 139.036c-33.189 0-60.093 27.043-60.093 60.4 0 33.358 26.904 60.754 60.093 60.754 22.83 0 42.09-11.152 52.585-29.997-20.354 8.223-38.048 8.573-47.958 8.573-29.09 0-43.229-19.5-43.229-39.65s16.335-39.032 36.485-39.032h36.484v-21.048zm98.013 31.147c-24.753 0-44.267 19.761-44.267 44.912s19.514 45.54 44.267 45.54c9.056 0 17.261-2.298 24.178-6.288 10.057 3.991 19.861 7.163 28.284 5.872-5.73-14.796-5.926-29.935-5.926-45.124v-44.912zm-.158 21.349h24.773v24.163c0 12.977-10.52 23.498-23.498 23.498s-24.052-10.521-24.052-23.498c0-6.489 1.63-12.086 5.811-16.505 4.182-4.418 9.751-7.658 16.966-7.658zm57.792-20.892c3.647 1.521 6.63 3.555 8.698 6.184 2.068 2.63 3.199 5.674 3.199 7.503v73.049h21.113v-65.887h14.534c5.374 0 11.559 1.659 16.62 5.747 5.063 4.088 9.002 12.27 9.002 19.545v40.595h20.936v-40.595c0-7.275 3.94-15.457 9.001-19.545 5.062-4.088 11.246-5.747 16.62-5.747h14.535v65.887h21.113v-73.049c0-1.83 1.13-4.874 3.198-7.503s5.052-4.663 8.7-6.184h-49.452c-8.34 0-17.939 2.185-25.795 7.567-3.182 2.18-6.068 5.251-8.388 8.76-2.32-3.509-5.206-6.58-8.388-8.76-7.856-5.382-17.455-7.567-25.795-7.567zm212.311-2.062c-12.486-.167-22.108 4.852-29.816 12.211-8.222 7.85-13.303 19.42-13.31 34.301.01 24.744 20.324 44.247 45.468 44.247 25.151 0 45.54-19.513 45.54-44.266 0-9.056-2.52-17.983-6.51-24.9 3.27-4.734 6.205-7.124 6.205-21.02-6.507 1.71-10.742 2.12-15.468 2.12-8.387 0-22.842-2.135-29.573-2.59a46.824 46.824 0 0 0 -2.536-.103zm2.942 21.878c12.977 0 23.497 10.52 23.497 23.497 0 12.978-10.52 23.817-23.497 23.817-18.029 0-24.164-13.889-24.164-22.541 0-1.783.33-12.025 7.66-18.962 4.418-4.182 10.015-5.811 16.504-5.811zm312.417-21.878c-12.485-.167-22.107 4.852-29.816 12.211-8.222 7.85-13.303 19.42-13.309 34.301.01 24.744 20.323 44.247 45.467 44.247 25.151 0 45.54-19.513 45.54-44.266 0-9.056-2.519-17.983-6.51-24.9 3.271-4.734 6.205-7.124 6.205-21.02-6.506 1.71-10.742 2.12-15.468 2.12-8.387 0-22.842-2.135-29.573-2.59a46.804 46.804 0 0 0 -2.536-.103zm2.942 21.878c12.977 0 23.498 10.52 23.498 23.497 0 12.978-10.52 23.817-23.498 23.817-18.029 0-24.163-13.889-24.163-22.541 0-1.783.329-12.025 7.658-18.962 4.419-4.182 10.016-5.811 16.505-5.811zm-115.198-19.031-39.927 86.03h23.97l29.663-63.912 20.202 42.173c2.392 4.993 6.324 9.926 10.603 13.567 8.054 6.855 17.368 10.309 28.39 10.309a132.61 132.61 0 0 1 -14.866-22.185l-29.933-64.497c-.437-.942-1.473-1.485-2.83-1.485zm-144.684-.693v25.527c0 21.425 1.26 28.391 3.536 33.702a43.654 43.654 0 0 0 9.643 14.034c8.142 7.949 19.39 12.792 31.815 12.792h50.118c-3.448-.924-6.578-3.135-8.938-6.021-2.36-2.887-3.876-6.205-3.876-8.617v-71.417h-21.292v64.763h-16.048c-13.07 0-23.666-10.596-23.666-23.666v-41.097zm.47-32.128v21.297h81.828v-21.297z"/><path d="m858.176 135.822c2.982 3.036 12.303 10.2 21.86 21.38s18.562 27.089 18.562 49.732h-43.427v21.125h44.093v155.504h21.557v-176.629c0-23.492-9.084-41.08-21.178-53.174-13.43-13.43-27.94-17.938-41.467-17.938zm138.819 0c-13.527 0-28.037 4.508-41.467 17.938-12.094 12.093-21.178 29.682-21.178 53.174v176.629h21.557v-155.504h44.093v-21.125h-43.428c0-22.643 9.007-38.55 18.563-49.731 9.557-11.182 18.878-18.345 21.86-21.38z"/><path d="m18.189 373.943c-3.093 0-6.502.74-9.139 2.356-2.636 1.615-4.5 4.105-4.5 7.603 0 1.991.882 4.116 3.929 7.999a68.056 68.056 0 0 0 2.182 2.607c-1.444 1.087-2.783 2.139-3.811 3.093-4.64 4.304-6.85 6.549-6.85 12.105 0 3.562 1.673 8.184 7.41 10.868 2.87 1.342 6.837 2.224 11.316 2.224 5.388 0 9.97-2.918 14.222-5.877 5.144 4.344 7.794 4.767 14.065 4.767 3.014 0 7.34.087 10.377-.726-2.696-1.086-9.536-5.09-15.461-10.823l-17.506-16.937c3.195-2.067 5.964-4.163 5.964-10.277 0-1.641-.206-3.886-1.835-5.722-1.628-1.835-4.678-3.26-10.363-3.26zm1.09 6.8c1.642 0 2.985 1.888 2.985 3.18 0 1.087-1.288 2.538-3.148 4.145 0 0-2.778-2.471-2.778-4.45 0-1.125.992-2.875 2.94-2.875zm-3.367 19.464c3.82 3.986 7.72 7.894 11.668 11.753-.542.53-3.434 4.369-7.746 4.369-2.593 0-5.805-2.72-7.135-7.177-.915-3.067.677-6.12 3.213-8.945z" fill="#1c1b21"/></g></svg>