<svg clip-rule="evenodd" fill-rule="evenodd" height="451" image-rendering="optimizeQuality" shape-rendering="geometricPrecision" text-rendering="geometricPrecision" viewBox="-.5 -.5 5352 965" width="2500" xmlns="http://www.w3.org/2000/svg"><path d="m1100.5-.5h75c121.64 11.878 236.64 46.211 345 103-59.83.833-119.83 1.333-180 1.5.56.383.89.883 1 1.5-95.34-32.596-193.34-46.763-294-42.5-28.42 1.014-56.087 6.014-83 15-.845 1.558-.179 2.558 2 3a382.608 382.608 0 0 1 29 5c7.29 1.91 11.62 6.577 13 14-1.3 5.964-4.96 9.631-11 11-20.694 3.413-40.694 1.08-60-7-7.857-6.93-10.024-15.43-6.5-25.5 8.606-27.605 26.44-46.439 53.5-56.5 38.07-11.286 76.74-18.786 116-22.5z" fill="#510056" opacity=".992"/><path d="m2080.5 103.5h-206c38.67-29.422 82.34-42.256 131-38.5 20.39 3.412 37.05 13.078 50 29 5.54 1.983 11.21 3.65 17 5 2.89 1.274 5.56 2.774 8 4.5z" fill="#500056" opacity=".992"/><path d="m1520.5 102.5c81.96 41.086 154.8 94.753 218.5 161a551.402 551.402 0 0 1 63 84 852.953 852.953 0 0 1 24 50 247.328 247.328 0 0 1 13 52c.77 17.041.27 34.041-1.5 51-.9-.709-1.24-1.709-1-3h-88c5.9-29.49 3.06-58.157-8.5-86-22.95-53.7-56.11-100.2-99.5-139.5-76.18-66.456-162.18-117.122-258-152a999.457 999.457 0 0 0 -41-14.5c-.11-.617-.44-1.117-1-1.5 60.17-.167 120.17-.667 180-1.5z" fill="#4d0058" opacity=".991"/><path d="m1874.5 103.5h206c25.41 11.808 37.25 31.808 35.5 60-3.37 21.736-12.37 40.736-27 57-37.64 41.607-83.81 69.107-138.5 82.5-23.86 4.44-47.2 2.607-70-5.5-.94.108-1.78.441-2.5 1a209.074 209.074 0 0 0 -9 17c-8.49 9.382-17.33 9.882-26.5 1.5-6.4-6.974-10.57-15.141-12.5-24.5a373.11 373.11 0 0 0 -1.5-25.5 206.932 206.932 0 0 0 -13.5-20.5c-7.96-16.124-10.63-33.124-8-51 3.53-18.38 10.86-35.047 22-50 12.85-16.691 28.02-30.691 45.5-42zm58 27c.74-.131 1.41.036 2 .5a661.852 661.852 0 0 0 -53.5 52.5 388.137 388.137 0 0 0 -28 38c-6.15-12.977-5.48-25.643 2-38 18.68-28.247 44.51-45.914 77.5-53zm105 6c28-.502 38.84 12.831 32.5 40-4.91 10.578-11.74 19.745-20.5 27.5-40.92 34.647-87.92 48.314-141 41 25.76-38.423 58.09-70.089 97-95 10.13-5.982 20.8-10.482 32-13.5z" fill="#4f0058" opacity=".989"/><g fill="#4c0059"><path d="m1359.5 497.5c-28.07.324-56.07-.009-84-1-.26-21.353.07-42.686 1-64a790.093 790.093 0 0 0 -133 19.5c-16.33 3.66-31.66 9.66-46 18-6.87 5.074-8.7 11.574-5.5 19.5a69.686 69.686 0 0 0 4.5 8h-25c-7.94-19.961-5.44-38.627 7.5-56 22.64-22.664 49.3-38.998 80-49a676.567 676.567 0 0 1 120-32 741.64 741.64 0 0 1 16-146c1.48-7.123 4.64-13.289 9.5-18.5 3-.667 6-.667 9 0 8.5 4.5 15 11 19.5 19.5 10.7 21.449 17.36 44.116 20 68a660.435 660.435 0 0 1 4.5 70c59.42-2.679 117.75 4.155 175 20.5 31.53 7.673 58.37 23.173 80.5 46.5 27.98 41.083 21.14 75.25-20.5 102.5-22.24 10.011-44.07 9.178-65.5-2.5-2.25-4.166-1.42-7.666 2.5-10.5 12.66-4.91 23.5-12.41 32.5-22.5 2.3-3.718 2.97-7.718 2-12a39.227 39.227 0 0 0 -10.5-10.5 461.893 461.893 0 0 0 -89-24 669.518 669.518 0 0 0 -106-11.5c.13 22.67.47 45.337 1 68z" opacity=".991"/><path d="m609.5 497.5h-49c.332 31.838-.002 63.504-1 95 .436-45.686-.064-91.353-1.5-137-2.862-28.87-18.695-42.703-47.5-41.5-15.094 2.216-28.428 8.216-40 18a282.27 282.27 0 0 0 -20.5 19.5c-.5 15.33-.667 30.663-.5 46h-49a992.742 992.742 0 0 1 -1 63c.465-87.349-.035-174.683-1.5-262-.546-7.256-3.379-13.423-8.5-18.5-3.254-1.842-6.754-2.675-10.5-2.5a68.983 68.983 0 0 0 -19 4 3.943 3.943 0 0 1 -2-1l-3.5-8.5c3.29-2.553 6.957-4.553 11-6a3870.543 3870.543 0 0 0 65-26 69.558 69.558 0 0 1 19-1.5c-.167 64.334 0 128.668.5 193 14.012-15.688 29.512-29.521 46.5-41.5 27.262-16.186 54.595-16.519 82-1 10.911 8.926 18.744 20.093 23.5 33.5a124.673 124.673 0 0 1 6 29 479.016 479.016 0 0 1 1.5 46z" opacity=".979"/><path d="m3997.5 497.5h-50a584.647 584.647 0 0 0 -3.5-50c-8.39-28.785-27.22-39.285-56.5-31.5-14.53 4.262-27.2 11.595-38 22l-13.5 13.5c-.5 36.332-.67 72.665-.5 109-1-20.827-1.33-41.827-1-63h-49c.17-58.001 0-116.001-.5-174 .45-12.973-1.22-25.639-5-38-5.28-7.428-12.44-9.928-21.5-7.5a186.702 186.702 0 0 0 -13 3.5 4.922 4.922 0 0 1 -2.5-1 96.164 96.164 0 0 0 -3.5-8.5c.94-1.477 2.28-2.477 4-3a5137.243 5137.243 0 0 0 75-30c5.66-.499 11.32-.666 17-.5-.17 64.334 0 128.668.5 193a634.167 634.167 0 0 1 30.5-29.5c21.69-19.562 47.02-27.229 76-23 23.84 6.171 39.67 21.005 47.5 44.5a117.78 117.78 0 0 1 6 31c1.1 14.313 1.6 28.646 1.5 43z" opacity=".985"/><path d="m5307.5 497.5h-50c.17-58.334 0-116.668-.5-175-.18-9.376-.85-18.709-2-28-1.29-11.125-7.45-16.792-18.5-17-6.2.384-12.2 1.717-18 4-2.85-2.518-4.85-5.685-6-9.5a3.92 3.92 0 0 1 1-2 5137.243 5137.243 0 0 0 75-30 69.536 69.536 0 0 1 19-1.5z" opacity=".989"/><path d="m3420.5 497.5h-68c-10.19-67.567 5.97-127.9 48.5-181 50.77-53.594 112.94-75.428 186.5-65.5 22.19 3.953 43.19 11.286 63 22 15.29 4.941 25.79-.226 31.5-15.5a46.007 46.007 0 0 0 2.5-9h12c2.86 45.01 5.86 90.01 9 135-3.61.289-7.11-.044-10.5-1-27.72-91.612-88.22-126.445-181.5-104.5-36.41 14.078-61.91 39.245-76.5 75.5-13.02 34.264-19.18 69.764-18.5 106.5.03 12.541.7 25.041 2 37.5z" opacity=".98"/></g><path d="m195.5 584.5a1893.431 1893.431 0 0 1 -1-87h-57v-215c-23.681-.18-47.348.32-71 1.5-27.044 3.289-44.21 18.122-51.5 44.5a108.08 108.08 0 0 0 -3.5 22h-12v-20a1813.665 1813.665 0 0 0 4-73h328a5564.357 5564.357 0 0 0 5 92 43.117 43.117 0 0 1 -13 1c-.027-25.233-10.361-44.733-31-58.5a73.75 73.75 0 0 0 -26-8 1023.799 1023.799 0 0 0 -71-1.5z" fill="#4d0059" opacity=".975"/><path d="m2596.5 497.5h-72a1225.312 1225.312 0 0 0 -32.5-134 287.695 287.695 0 0 1 -8.5-40c1.41-12.209 8.08-16.709 20-13.5 9.2 4.358 17.03 10.525 23.5 18.5 32.27 39.552 53.6 84.552 64 135a359.322 359.322 0 0 1 5.5 34z" fill="#4b0059" opacity=".988"/><g fill="#4b005a"><path d="m2840.5 498.5-202-2c.34-11.84 6.34-19.007 18-21.5 5.86.662 10.7-1.171 14.5-5.5a2158.78 2158.78 0 0 0 18.5-48.5c-15.18-3.171-29.52-8.504-43-16-8.05-6.275-12.22-14.442-12.5-24.5 1.91-6.24 6.07-10.073 12.5-11.5a1327.393 1327.393 0 0 1 177-23.5c34.32 1.747 57.48 18.747 69.5 51 1.7 6.745.2 12.578-4.5 17.5a54.454 54.454 0 0 1 -19 7 421.904 421.904 0 0 1 -62 6c-19.02.557-38.02.557-57 0a1041.972 1041.972 0 0 0 -13 42.5c15.66-.576 31.32-.91 47-1 13.72-.131 27.39.369 41 1.5 5.05 1.717 8.88 4.884 11.5 9.5a57.311 57.311 0 0 1 3.5 19zm-569-2-257 2c-18.61-6.186-27.61-19.186-27-39 .39-22.952 9.06-42.119 26-57.5 21.12-16.39 44.78-27.723 71-34 54.11-13.585 108.77-16.585 164-9 18.9 2.89 36.9 8.556 54 17 7.97 4.434 10.47 10.934 7.5 19.5-5.45 12.653-14.95 20.486-28.5 23.5a268.64 268.64 0 0 1 -28 4 6022.664 6022.664 0 0 1 -120 6c-29.13 1.354-57.46 6.687-85 16-1.53 2.881-.86 5.214 2 7a157.873 157.873 0 0 0 24 6 4025.322 4025.322 0 0 1 147 19c18.02 3.28 34.69 9.78 50 19.5z" opacity=".988"/><path d="m2960.5 498.5a702.718 702.718 0 0 0 -53-1c19.85-50.54 48.85-95.04 87-133.5 3.86-3.54 8.36-5.707 13.5-6.5 5.93.597 9.26 3.93 10 10 1.27 10.341-.07 20.341-4 30a489.64 489.64 0 0 1 -37 69 729.48 729.48 0 0 0 -16.5 32z" opacity=".984"/><path d="m1954.5 498.5c-24.26-.99-48.59-1.323-73-1 .88-41.637 6.38-82.637 16.5-123 2.05-5.603 5.21-10.436 9.5-14.5 12.09-2.045 21.59 2.121 28.5 12.5 7.15 17.283 11.49 35.283 13 54a871.512 871.512 0 0 1 5.5 72z" opacity=".988"/><path d="m718.5 497.5a452.669 452.669 0 0 1 -42-1c3.718-43.967 23.718-78.134 60-102.5 31.364-17.212 64.364-21.212 99-12 37.124 13.466 59.624 39.633 67.5 78.5a342.504 342.504 0 0 1 2.5 26h-187zm61-99c26.832.653 45.999 12.987 57.5 37a142.312 142.312 0 0 1 5.5 33h-124c3.423-38.404 23.756-61.737 61-70z" opacity=".973"/><path d="m4265.5 469.5a196.665 196.665 0 0 0 -1 28h-49c.33 32.504 0 64.838-1 97 .17-33.335 0-66.668-.5-100a42.978 42.978 0 0 1 -8.5 3h-48c18.33-7.894 37-15.227 56-22 1.77-15.487.94-30.82-2.5-46-6.98-22.5-22.31-33.5-46-33-19.3-.998-32.64 7.335-40 25-.33 10.333-.67 20.667-1 31-2.91 13.746-11.41 20.746-25.5 21-13.09-.583-21.25-7.25-24.5-20-2.4-15.361 1.27-29.028 11-41 19.36-22.094 43.86-33.594 73.5-34.5a191.605 191.605 0 0 1 56 4c30.09 7.049 46.59 25.883 49.5 56.5.59 10.333 1.09 20.666 1.5 31z" opacity=".98"/><path d="m4573.5 497.5h-49c.32-5.526-.01-10.86-1-16 .73-65.781-27.94-83.281-86-52.5-9.39 6.384-17.89 13.884-25.5 22.5-.5 15.33-.67 30.663-.5 46h-50c.13-18.683-.37-37.35-1.5-56-.1-8.32-2.94-15.486-8.5-21.5-10.3-3.516-20.47-3.016-30.5 1.5-2.62-3.585-4.46-7.585-5.5-12a2316.273 2316.273 0 0 0 79.5-31 76.326 76.326 0 0 1 16.5-1c-.17 18.336 0 36.67.5 55 16.2-19.548 35.37-35.382 57.5-47.5 26.51-11.64 51.85-9.64 76 6 17.28 17.146 26.45 37.979 27.5 62.5.5 14.663.67 29.33.5 44z" opacity=".982"/></g><path d="m4879.5 478.5c-.99 6.145-1.32 12.478-1 19h-48c.32-4.863-.01-9.53-1-14 .25-16.445-2.25-32.445-7.5-48-3.99-9.993-11.16-16.493-21.5-19.5-18.1-3.447-35.1-.447-51 9-11.97 7.071-22.47 15.904-31.5 26.5-.5 15.33-.67 30.663-.5 46h-50c.33 31.838 0 63.504-1 95 .17-47.668 0-95.334-.5-143 1.02-29.491-12.15-38.825-39.5-28-2.16-2.994-3.83-6.327-5-10 .32-1.147.98-1.981 2-2.5a5558.943 5558.943 0 0 0 78-31c5.32-.499 10.66-.666 16-.5-.17 18.003 0 36.003.5 54 16.88-20.844 37.38-37.011 61.5-48.5 21.8-8.133 43.13-7.133 64 3 20.95 15.386 32.45 36.219 34.5 62.5a273.312 273.312 0 0 1 1.5 30z" fill="#4b0059" opacity=".982"/><path d="m4988.5 493.5v4h-42c3.6-40.046 20.93-72.546 52-97.5 33.54-22.269 69.87-28.269 109-18 28.71 9.374 49.21 27.874 61.5 55.5 6.25 15.744 9.08 32.077 8.5 49h-189zm62-95c28.71.262 48.54 13.596 59.5 40a155.353 155.353 0 0 1 4.5 30h-125c3.4-38.385 23.73-61.718 61-70z" fill="#4b005a" opacity=".974"/><path d="m2479.5 496.5c-21.85.337-43.52 1.337-65 3-2.47-4.271-4.97-8.604-7.5-13-1.36-2.192-3.19-3.859-5.5-5-1.31 1.412-2.14 3.079-2.5 5-.32 3.714-.82 7.381-1.5 11h-62v-3a481.201 481.201 0 0 1 27.5-95c3.21-8.954 9.04-15.454 17.5-19.5 6.35-1.098 12.35-.098 18 3a138.47 138.47 0 0 1 14.5 13.5 1609.936 1609.936 0 0 1 66.5 100z" fill="#4b005a" opacity=".99"/><path d="m3199.5 497.5c-15.41-.317-30.74.017-46 1 2.42-14.588.58-28.588-5.5-42-1.41-1.914-3.25-3.247-5.5-4a152.716 152.716 0 0 0 -24.5 22 657.17 657.17 0 0 1 -19.5 23c-31.68.659-63.02-.007-94-2a1038.36 1038.36 0 0 1 80-82.5c47.65-39.38 83.15-30.546 106.5 26.5 6.61 18.775 9.44 38.108 8.5 58z" fill="#4b005a" opacity=".989"/><path d="m4265.5 469.5c-.17 43.668 0 87.335.5 131 .37 4.804 1.37 9.47 3 14 4.29 5.76 9.79 7.26 16.5 4.5a266.19 266.19 0 0 0 26-21.5 48.803 48.803 0 0 1 .5 17c-12.5 17.506-28.33 31.006-47.5 40.5-33.26 8.176-49.93-4.99-50-39.5a1621.076 1621.076 0 0 1 -44 31.5c-22.42 12.416-45.75 14.416-70 6-25.68-13.337-38.35-34.671-38-64 .33-18.471 6.83-34.304 19.5-47.5 22.28-19.399 47.45-34.066 75.5-44h48a1464.78 1464.78 0 0 0 -47 20.5c-15.79 7.805-28.62 18.971-38.5 33.5-9.42 20.515-7.42 39.849 6 58 16.19 15.758 34.35 18.258 54.5 7.5 12.26-6.282 23.59-13.782 34-22.5 1-32.162 1.33-64.496 1-97h49c-.33-9.515.01-18.848 1-28zm614 9c-.17 43.335 0 86.668.5 130-.43 11.972 4.07 21.472 13.5 28.5 9.03 3.208 18.36 4.708 28 4.5v11h-136v-11c10.34.594 20.34-.906 30-4.5 6.07-4.415 10.24-10.248 12.5-17.5 1.43-45.315 1.93-90.648 1.5-136 .99 4.47 1.32 9.137 1 14h48c-.32-6.522.01-12.855 1-19zm-356 3c.99 5.14 1.32 10.474 1 16h49c-.17 32.335 0 64.668.5 97 .21 8.376.88 16.71 2 25 2.63 11.629 9.79 18.462 21.5 20.5 5.97.963 11.97 1.463 18 1.5v11h-136v-11c8.78.254 17.44-.579 26-2.5 8.32-3.655 13.82-9.822 16.5-18.5 1.47-46.294 1.97-92.628 1.5-139z" fill="#49005b" opacity=".98"/><path d="m2335.5 494.5v3h62a9752.27 9752.27 0 0 0 -4.5 116c.22 17.17-2.45 33.836-8 50-4.19 7.278-10.53 11.611-19 13-15.81-1.486-26.81-9.486-33-24a124.612 124.612 0 0 1 -8-36c-2.23-41.298 1.27-81.965 10.5-122z" fill="#49005b" opacity=".988"/><path d="m676.5 496.5a452.669 452.669 0 0 0 42 1c.186 39.864 15.52 72.364 46 97.5 25.237 17.986 52.571 21.986 82 12 16.662-6.996 29.162-18.496 37.5-34.5a394.79 394.79 0 0 0 11.5-24c3.371 2.346 6.704 4.679 10 7-7.08 37.866-26.08 68.033-57 90.5-23.668 13.612-49.001 17.945-76 13-39.352-8.939-67.519-31.772-84.5-68.5-11.612-30.336-15.445-61.669-11.5-94z" fill="#48005b" opacity=".982"/><path d="m1275.5 496.5c27.93.991 55.93 1.324 84 1 .75 46.679 1.75 93.346 3 140 68.95 13.149 137.95 13.316 207 .5 43.06-8.371 82.73-24.704 119-49 31.65-22.782 51.65-53.282 60-91.5h88c-.24 1.291.1 2.291 1 3-14.47 67.807-50.8 120.307-109 157.5-61.69 35.003-128.02 54.67-199 59-37.51 1.867-74.84.2-112-5a1657.852 1657.852 0 0 1 -56-10.5c.24 11.812-1.93 23.145-6.5 34-8.01 9.176-18.18 13.176-30.5 12-20.82.51-34.32-9.156-40.5-29a316.005 316.005 0 0 1 -8-51c-66.45-30.044-124.79-71.377-175-124-12.48-13.645-22.31-28.978-29.5-46h25a1425.385 1425.385 0 0 1 32 31.5c44.35 35.522 93.35 63.356 147 83.5.08-38.632.08-77.298 0-116z" fill="#48005b" opacity=".99"/><path d="m2479.5 496.5a2348.697 2348.697 0 0 1 36.5 56c10.82 14.679 14.98 12.846 12.5-5.5a963.873 963.873 0 0 0 -4-49.5h72c3.38 29.497 2.21 58.831-3.5 88-4.62 21.41-14.12 40.243-28.5 56.5-14.33 11.995-30.66 15.995-49 12a35.119 35.119 0 0 1 -10-5 235.615 235.615 0 0 1 -21.5-24.5 824.008 824.008 0 0 1 -26-41 5030.665 5030.665 0 0 1 -43.5-84c21.48-1.663 43.15-2.663 65-3z" fill="#49005b" opacity=".991"/><path d="m2638.5 496.5 202 2c.53 6.674-.63 13.007-3.5 19-3.02 3.592-6.85 5.758-11.5 6.5-30.66.978-61.33 1.644-92 2-5.35.521-10.69 1.187-16 2l-1.5 1.5a3731.732 3731.732 0 0 0 -18.5 57 43.234 43.234 0 0 0 16 .5 4709.062 4709.062 0 0 1 102-16c10.15-1.949 18.32 1.218 24.5 9.5 7.38 10.199 10.05 21.532 8 34a35.953 35.953 0 0 1 -4 7c-35.35 30.092-75.85 50.259-121.5 60.5-25.82 5.624-49.48.957-71-14-7.29-5.957-13.12-13.124-17.5-21.5-13.16-28.296-13.83-56.963-2-86a403.778 403.778 0 0 0 12.5-30.5 1006.63 1006.63 0 0 1 -6-33.5z" fill="#48005b" opacity=".991"/><path d="m3004.5 495.5c30.98 1.993 62.32 2.659 94 2a1761.816 1761.816 0 0 0 -76 116c15.98.971 31.31-1.862 46-8.5 47.46-20.29 75.8-55.79 85-106.5a541.832 541.832 0 0 1 46-1c-1.61 57.056-23.61 104.556-66 142.5-32.62 28.476-70.29 47.143-113 56a161.056 161.056 0 0 1 -40 1.5 1902.795 1902.795 0 0 0 -44 166h-85c5.29-57.609 17.79-113.609 37.5-168a1815.333 1815.333 0 0 0 19.5-54c-19.65-47.844-19.98-95.844-1-144 17.84-.33 35.51.003 53 1a264.95 264.95 0 0 0 -16 62c.02 4.114.69 8.114 2 12a1663.223 1663.223 0 0 1 58-77z" fill="#48005b" opacity=".992"/><path d="m137.5 497.5h57c-.331 29.171.002 58.171 1 87a169.971 169.971 0 0 0 1.5 27c1.364 14.697 9.197 23.863 23.5 27.5a172.62 172.62 0 0 0 31 2.5v11h-171v-11c12.6.423 24.933-1.077 37-4.5 6.779-3.112 11.945-7.945 15.5-14.5a92.472 92.472 0 0 0 4-23c.5-33.998.667-67.998.5-102z" fill="#49005b" opacity=".986"/><path d="m449.5 497.5c-.167 36.002 0 72.002.5 108-2.246 15.012 3.254 25.845 16.5 32.5a108.64 108.64 0 0 0 27 3.5v11h-135v-11c10.543.267 20.543-1.9 30-6.5 7.178-6.516 10.678-14.683 10.5-24.5.5-16.663.667-33.33.5-50a992.742 992.742 0 0 0 1-63z" fill="#49005b" opacity=".985"/><path d="m609.5 497.5c-.167 34.335 0 68.668.5 103-2.522 28.976 10.644 42.642 39.5 41v11h-133v-11c11.16.774 21.827-1.06 32-5.5 5.413-4.655 8.913-10.488 10.5-17.5.5-8.66.666-17.327.5-26a2256.409 2256.409 0 0 0 1-95z" fill="#49005b" opacity=".988"/><path d="m1881.5 497.5c24.41-.323 48.74.01 73 1a1940.68 1940.68 0 0 1 4.5 101c.88 17.698.55 35.365-1 53-4.05 16.037-14.38 23.704-31 23-15.15.634-27.15-5.032-36-17-4.83-11.146-7.5-22.813-8-35a1214.651 1214.651 0 0 1 -1.5-126z" fill="#49005b" opacity=".989"/><path d="m2271.5 496.5c16.56 13.773 26.39 31.44 29.5 53 7.43 51.314-12.07 88.148-58.5 110.5-46.71 18.218-94.21 20.385-142.5 6.5-33.91-9.443-62.24-27.443-85-54-13.5-19.197-14.84-39.197-4-60 7.72-10.277 17.56-17.777 29.5-22.5 25.41-8.442 51.41-10.776 78-7 33.35 3.252 65.02 12.252 95 27 5.14 5.326 5.31 10.826.5 16.5-10.09 8.296-21.59 13.796-34.5 16.5-15.92 5.358-31.92 5.692-48 1a571.112 571.112 0 0 1 -42-17 128.624 128.624 0 0 0 -27.5-7.5c-10.11-.15-18.78 3.183-26 10-6.51 9.182-5.01 17.015 4.5 23.5 19.21 10.093 39.71 14.593 61.5 13.5 36.04.467 70.87-5.7 104.5-18.5 13.71-5.6 26.21-13.1 37.5-22.5 4.98-5.895 5.65-12.229 2-19-3.47-2.132-6.3-4.965-8.5-8.5-14.77-7.923-30.44-13.257-47-16a548.92 548.92 0 0 0 -46-7 7483.143 7483.143 0 0 1 -111-11c-6.67-1.08-13.01-2.914-19-5.5z" fill="#49005b" opacity=".986"/><path d="m3352.5 497.5h68c3.57 32.577 15.07 61.911 34.5 88 27.95 31.387 63.12 47.887 105.5 49.5 40.74 2.535 76.07-9.798 106-37a593.466 593.466 0 0 0 38-44c3.13.899 6.13 2.399 9 4.5 1.08.865 1.25 1.865.5 3-43.43 76.796-109.26 109.63-197.5 98.5-72.13-10.147-122.63-48.647-151.5-115.5a188.218 188.218 0 0 1 -12.5-47z" fill="#48005b" opacity=".979"/><path d="m3785.5 497.5h49c-.33 21.173 0 42.173 1 63-.24 19.021.26 38.021 1.5 57 .98 9.979 6.14 16.812 15.5 20.5a109.688 109.688 0 0 0 28 3.5v11h-137v-11c11.35.328 22.02-2.172 32-7.5a46.487 46.487 0 0 0 6.5-9.5 86.682 86.682 0 0 0 3-20c.5-35.665.67-71.332.5-107z" fill="#49005b" opacity=".987"/><path d="m3947.5 497.5h50c-.17 36.335 0 72.668.5 109 .54 26.361 14.04 38.027 40.5 35v11h-136v-11c11.5.857 22.5-.977 33-5.5 5.15-4.466 8.65-9.966 10.5-16.5a2989.19 2989.19 0 0 0 1.5-122z" fill="#49005b" opacity=".986"/><path d="m4361.5 497.5h50c-.17 36.335 0 72.668.5 109-1.48 13.964 3.69 24.464 15.5 31.5a107.624 107.624 0 0 0 29 3.5v11h-137v-11c8.9.466 17.57-.7 26-3.5 6.73-3.065 10.89-8.231 12.5-15.5a85.753 85.753 0 0 0 3-18c.5-35.665.67-71.332.5-107z" fill="#49005b" opacity=".981"/><path d="m4717.5 497.5c-.17 38.668 0 77.335.5 116 .61 10.732 5.45 18.899 14.5 24.5a119.497 119.497 0 0 0 29 3.5v11h-136v-11c10.17.62 19.84-1.214 29-5.5 5.98-5.123 9.48-11.623 10.5-19.5a133.841 133.841 0 0 0 1.5-24c1-31.496 1.33-63.162 1-95z" fill="#49005b" opacity=".98"/><path d="m4988.5 493.5c.28 31.117 9.78 59.117 28.5 84 27.41 31.913 61.24 41.746 101.5 29.5 16.28-6.946 28.78-18.113 37.5-33.5a433.124 433.124 0 0 0 12-25l9 6c-3.61 26.559-14.28 49.892-32 70-25.12 28.379-56.62 40.212-94.5 35.5-53.88-10.214-87.38-42.047-100.5-95.5-4.42-22.155-5.59-44.488-3.5-67h42z" fill="#48005b" opacity=".983"/><path d="m5257.5 497.5h50c-.17 34.335 0 68.668.5 103-1.26 30.237 13.24 43.903 43.5 41v11h-134v-11c26.89 2.279 40.05-10.054 39.5-37 .5-35.665.67-71.332.5-107z" fill="#49005b" opacity=".987"/><path d="m2851.5 863.5h85a1939.435 1939.435 0 0 1 -20.5 95c-2.11 2.621-4.61 4.621-7.5 6h-9c-14.13-5.822-26.29-14.489-36.5-26-7.19-10.909-11.19-22.909-12-36-.78-13.033-.61-26.033.5-39z" fill="#44005d" opacity=".989"/></svg>