<svg height="1667" viewBox="3 5.999999999999999 65.1 35" width="2500" xmlns="http://www.w3.org/2000/svg"><path d="M3 10v4h6.5c3.6 0 6.5.3 6.5.7 0 .5-2 6.4-4.5 13.2S7 40.4 7 40.6s1.7.4 3.9.4h3.8l5.8-16.2c3.2-9 6-16.9 6.3-17.6.3-.9-2.4-1.2-11.7-1.2H3zM31.5 7.7C29.8 12 20 39.9 20 40.4c0 .3 1.5.6 3.4.6 3 0 3.6-.4 4.6-3.5l1.2-3.5h13.6l1.2 3.5c1 3.1 1.6 3.5 4.6 3.5 1.9 0 3.4-.3 3.4-.6 0-.5-9.8-28.4-11.5-32.7C40 6.5 38.7 6 36 6s-4 .5-4.5 1.7zm6.9 14c.9 2.6 1.6 4.8 1.6 5 0 .6-6.6.3-7.2-.3C32 25.6 35 17 36 17c.4 0 1.5 2.1 2.4 4.7zM48.6 18.7c2.6 7.1 5.3 14.9 6.2 17.6 1.5 4.5 1.7 4.7 5.4 4.7 2.1 0 3.8-.4 3.8-1 0-.5-.9-3.2-2-6s-2-5.3-2-5.5c0-.3 1.8-.5 4.1-.5h4l-.3-3.8-.3-3.7-5.3-.3c-4.6-.3-5.4-.6-6.2-2.8-1.6-4.1-1.3-4.4 5.5-4.4H68V6H44z"/></svg>