<svg height="1512" viewBox="0 0 291 176" width="2500" xmlns="http://www.w3.org/2000/svg" xmlns:xlink="http://www.w3.org/1999/xlink"><linearGradient id="a"><stop offset=".01" stop-color="#bc7658"/><stop offset=".53" stop-color="#eba486"/><stop offset="1" stop-color="#bc7658"/></linearGradient><linearGradient id="b" x1=".005%" x2="99.995%" xlink:href="#a" y1="49.994%" y2="49.994%"/><linearGradient id="c" x1=".082%" x2="99.918%" xlink:href="#a" y1="50.107%" y2="50.107%"/><linearGradient id="d" x1=".083%" x2="99.91%" xlink:href="#a" y1="49.998%" y2="49.998%"/><linearGradient id="e" x1=".007%" x2="100.013%" xlink:href="#a" y1="49.915%" y2="49.915%"/><linearGradient id="f" x1=".006%" xlink:href="#a" y1="49.98%" y2="49.98%"/><linearGradient id="g" x1="9.526%" x2="100.621%" xlink:href="#a" y1="43.858%" y2="56.651%"/><g fill="none" fill-rule="evenodd"><path d="m93.426 142.718c-14.662-12.439-24.386-29.665-27.426-48.588l.873-.13c6.197 38.882 39.454 67.132 79.127 67.132s72.93-28.25 79.127-67.132l.873.13c-3.04 18.923-12.764 36.15-27.426 48.588-14.661 12.438-33.3 19.274-52.574 19.282-19.273-.008-37.913-6.844-52.574-19.282z" fill="url(#b)" fill-rule="nonzero"/><path d="m145.5 0a81.31 81.31 0 0 1 43.468 12.597 81.468 81.468 0 0 1 30.032 33.896l-1.065.507a80.287 80.287 0 0 0 -29.597-33.405 80.132 80.132 0 0 0 -42.838-12.414 80.132 80.132 0 0 0 -42.838 12.414 80.287 80.287 0 0 0 -29.597 33.405l-1.065-.507a81.468 81.468 0 0 1 30.032-33.896 81.31 81.31 0 0 1 43.468-12.597z" fill="url(#c)"/><path d="m193.224 94 23.62 5.988a73.74 73.74 0 0 0 1.3-5.662l.856.147a74.248 74.248 0 0 1 -1.427 6.127l-.111.4-24.462-6.201z" fill="url(#d)"/><path d="m198.481 28.036a74.842 74.842 0 0 0 -33.557-19.463 74.658 74.658 0 0 0 -38.761-.027h-.044a74.543 74.543 0 0 0 -27.387 13.87 74.834 74.834 0 0 0 -19.513 23.75l-.219.351.788.44.218-.396a75.14 75.14 0 0 1 12.864-17.647l17.281 17.34.088.088.525.57c.495-.527.816-.848.962-.966l.525-.526.656-.571.525-.483.7-.57.525-.483.7-.571.569-.439.7-.527.569-.395.744-.527.568-.395.7-.439 10.457 4.258-1.007 2.327.831.307.963-2.326 5.688 2.326.35-.79-5.688-2.326 4.375-10.404.613-.132.437-.088c1.181-.219 2.363-.439 3.5-.57h.35l.963-.088h8.574l.657.088.744.088h.7l.743.131.7.088.744.132.7.131.7.132.613.132 4.375 10.403-5.688 2.327.35.79 5.688-2.326.962 2.326.831-.307-1.006-2.327 10.413-4.258.35.22a50.305 50.305 0 0 1 8.093 6.672l.613-.614 17.281-17.34a73.954 73.954 0 0 1 12.863 17.603l.218.395.744-.439-.175-.395a74.61 74.61 0 0 0 -13.344-18.13zm-40.512 4.917-.394-.088-1.181-.263h-.131l-.963-.176-.438-.131-2.93-.44h-.394l-1.05-.131h-.525l-.963-.088h-8.006l-.875.088-.613.088-.831.087-.613.088-.83.132-.657.132-.787.131-.657.132-.787.176-.657.175-.568.132-6.3-23.705a73.829 73.829 0 0 1 37.45 0zm2.45 1.624 1.269.44.612.219 1.881.746 1.838.79.612.307 1.182.615c.245.09.48.208.7.351l1.093.615.7.395.613.395-9.8 3.994-2.494-5.838-1.662-3.95.7.131.83.22 1.138.35zm-28.131-1.405-.613.176-.7.22-.831.263-.7.22-.832.307-.656.263-.831.307-.656.264-.875.395-.613.263-.875.395-.525.264-1.006.526-.437.22c-.92.483-1.838 1.053-2.757 1.58l-.394.264-.962.614-.481.351-.831.57-.525.396-.744.527-.525.439-.744.57-.525.483-.7.57-.525.484-.656.57-.525.527-.481.44-17.283-17.34a73.53 73.53 0 0 1 32.463-18.788l6.344 23.66zm-12.163 6.278.525-.351.569-.308.831-.483.525-.307 1.313-.658.656-.308.875-.439.7-.307.743-.307.744-.307.744-.308.744-.263.744-.263.743-.22.788-.263.743-.22.788-.22h.087l.744-.219.394-.088-4.156 9.833zm52.062-.264h-.087l-1.137-.702-.7-.439-1.225-.658-.657-.352-1.443-.746-.482-.22-1.925-.877h-.043l-1.97-.747-.7-.263-1.312-.439-.831-.22a6.633 6.633 0 0 0 -.875-.263l6.344-23.704a73.531 73.531 0 0 1 32.419 18.832l-17.283 17.295a48.24 48.24 0 0 0 -8.094-6.497z" fill="url(#e)"/><path d="m192.633 93.44a48.918 48.918 0 0 1 -5.457 12.826l-4.017-9.884 5.763-2.416-.349-.834-5.72 2.46-.873-2.197-.83.308.874 2.24-14.408 6.106-3.013-9.049-.83.264 2.882 8.61-13.709-4.657-1.746-4.217-.83.307 1.747 4.218-6.418 13.046-6.419-13.046 1.747-4.218-.83-.307-1.746 4.217-13.71 4.656 2.882-8.61-.83-.263-3.012 9.05-14.408-6.107.873-2.24-.83-.308-.872 2.197-5.72-2.46-.35.834 5.764 2.416-4.017 9.928-.262-.395-.524-.923c-.13-.175-.218-.395-.349-.615l-.436-.834-.35-.66-.436-.878c-.088-.22-.219-.395-.306-.615l-.393-.922-.262-.66-.393-.878-.262-.659c-.13-.307-.218-.659-.35-.966-.13-.308-.13-.44-.217-.615-.088-.176-.219-.747-.35-1.098-.13-.352-.13-.352-.174-.527-.044-.176-.306-1.055-.437-1.626l-.13-.395-.437.088-23.97 6.457a72.265 72.265 0 0 1 -1.31-6.106l-.873.132c.35 2.109.83 4.173 1.353 6.238l.088.395.13.44a75.489 75.489 0 0 0 18.95 32.99l.305.307.306.307a74.635 74.635 0 0 0 33.517 19.233 74.307 74.307 0 0 0 38.586-.148 74.644 74.644 0 0 0 33.37-19.49 75.314 75.314 0 0 0 19.264-33.639l.131-.44-25.28-6.808zm-7.116 15.374a4.611 4.611 0 0 0 -.35.483l-.436.615-.35.44c-.146.215-.306.42-.48.614a3.778 3.778 0 0 0 -.305.44l-.524.615-.306.395-.611.659-.262.351-.699.703-.218.264a38.184 38.184 0 0 1 -1.877 1.889l-.219.22-.742.658-.35.352-.654.527-.393.351-.611.527-.437.352-.611.44-.437.35-.61.44-.481.351-.611.44-.48.307-.525.351-10.39-4.26 6.199-14.716 14.626-6.238 2.14 5.271 2.095 5.184c-.106.168-.222.33-.349.483l-.306.527zm-32.09 20.25h-.306l-1.048.176h-.48l-.917.088h-.524l-.873.088h-4.672a52.684 52.684 0 0 1 -4.322-.263l-1.397-.132h-.219l-1.135-.176-.35-.088-1.003-.176-.437-.087-.393-.088-4.366-10.411 14.714-5.842 14.713 6.018-4.366 10.41-.96.176-.262.088-1.398.22zm-21.918-1.493-.524-.176-1.091-.351-.612-.22-.96-.351-.655-.264-.873-.351-.655-.264-.917-.439-.611-.307-.874-.396-.654-.351-.83-.483-.611-.308-.873-.527-.437-.264 9.823-4.04 4.148 9.883-1.179-.308zm14.757-16.165 6.55-13.31 14.014 4.744-6.069 14.496zm24.756 11.113a48.518 48.518 0 0 1 -13.928 5.799l4.148-9.84zm-25.891-11.113-14.495 5.93-6.069-14.496 14.015-4.744zm-21.48-8.434 6.199 14.715-10.435 4.261-.437-.307-.436-.264-.873-.615-.35-.22-1.178-.878-.262-.22-.874-.702-.393-.352-.742-.615-.393-.351-.786-.703-.349-.307-1.048-1.01a11.965 11.965 0 0 1 -1.004-1.099 1.184 1.184 0 0 1 -.306-.351 5.653 5.653 0 0 1 -.698-.747l-.35-.396-.654-.746-.306-.396-.698-.878-.219-.264-.873-1.186-.218-.351c-.219-.264-.393-.571-.612-.879l-.305-.44-.262-.438 4.235-10.5 14.626 6.239zm-32.004-7.16 6.33-1.714c.033.198.092.39.176.571.052.255.125.504.218.747.093.258.166.522.218.79l.262.704.262.79.262.703.306.79.262.704c.134.255.25.519.349.79l.305.66.35.79c.12.21.222.431.305.659l.393.747.35.659.393.746.349.615c.162.254.308.518.436.791l.393.571c.302.438.578.893.83 1.362l.524.747.393.57.524.704.393.57.567.747.437.484c.18.268.384.518.611.746l.393.484.699.79.349.396 1.091 1.186-17.245 17.351a75.005 75.005 0 0 1 -18.73-32.594l17.245-4.657zm19.342 20.514.436.439c.209.137.4.3.568.483l.611.571.568.527.61.527.612.484.655.527.568.44.655.526.61.44.7.483.61.439.7.44.61.395.743.439.61.395.743.396.655.351c.232.172.48.32.742.44l.655.307.786.395.611.308.83.351.611.264.917.395.567.22 1.005.351.48.176 1.31.439h.174l1.529.483-6.331 23.721a73.856 73.856 0 0 1 -32.396-18.8zm16.023 36.416 6.287-23.721.699.175.567.132.917.176.655.132.393.088c1.789.345 3.597.58 5.414.702l1.44.088h2.27a48.35 48.35 0 0 0 3.581-.131l1.354-.088h.13l1.267-.132h.218l1.135-.132h.306l1.091-.22h.35l1.353-.307h.262l1.397-.351 6.287 23.72a73.229 73.229 0 0 1 -18.73 2.24 75.054 75.054 0 0 1 -18.643-2.371zm31.916-23.985a48.055 48.055 0 0 0 13.098-5.842h.043l.175-.132 1.092-.703.349-.263.742-.528.393-.263.699-.527.392-.308.655-.527.437-.351.568-.483.436-.352.568-.527.436-.395.568-.528.437-.395a2.63 2.63 0 0 1 .349-.351l17.246 17.351a74.468 74.468 0 0 1 -32.353 18.845l-6.33-23.72zm22.048-13.09.35-.396.436-.395c.136-.21.297-.401.48-.571l.393-.44a2.98 2.98 0 0 0 .48-.57l.393-.44.48-.57.394-.484.436-.571c.13-.15.248-.312.35-.483.17-.197.33-.402.48-.615l.305-.44.524-.702.262-.396.699-1.142.13-.175a48.645 48.645 0 0 0 5.808-13.179l23.576 6.326a74.345 74.345 0 0 1 -18.73 32.594z" fill="url(#f)"/><path d="m55.218 105.806.13.22h.218l.349-.088 6.797-2.105.305-.132.175-.175v-.22a2.82 2.82 0 0 1 -.088-.306h.088l.871 2.85c.123.356.21.723.262 1.096a2.8 2.8 0 0 1 -.044 1.052c-.083.32-.231.619-.436.877-.28.274-.625.47-1.002.57a1.647 1.647 0 0 1 -1.307-.044 2.493 2.493 0 0 1 -.959-1.052c.022.292.022.585 0 .877a2.15 2.15 0 0 1 -.261.745c-.105.231-.253.44-.436.614a2.435 2.435 0 0 1 -.74.395 2.21 2.21 0 0 1 -1.177.087 2.305 2.305 0 0 1 -.915-.482 3.287 3.287 0 0 1 -.654-.877 5.629 5.629 0 0 1 -.479-1.052l-.915-3.113.087-.044c.027.109.071.212.13.307zm1.002 1.403v.307c.035.1.064.203.087.307l.087.263c.083.27.185.534.305.79.124.254.303.479.523.657.185.18.408.316.654.394.293.057.596.027.871-.087a1.259 1.259 0 0 0 .828-.526 1.32 1.32 0 0 0 .349-.79 3.264 3.264 0 0 0 0-.92 6.212 6.212 0 0 0 -.262-.965l-.174-.614-3.137.965zm4.227-.22c.066.249.169.485.305.702.109.203.257.382.435.526.182.132.39.222.61.263.25.033.505.003.741-.087a1.52 1.52 0 0 0 .697-.395c.158-.178.276-.387.349-.614a1.84 1.84 0 0 0 .043-.701 5.113 5.113 0 0 0 -.174-.79 1.896 1.896 0 0 1 -.044-.219 2.82 2.82 0 0 0 -.087-.306l-.13-.264-.218-.175-2.876.92zm3.224 11.488-2.789 1.228-.305.175a.218.218 0 0 0 -.13.175c-.007.09.008.18.043.263.012.113.058.22.13.307l-.13.088-1.046-2.368h.131c.05.122.108.239.174.351l.131.175c.044 0 .13.044.218 0l.349-.087 2.745-1.272 2.658-4.253c.13-.175.174-.35.261-.438a.97.97 0 0 0 -.044-.482h.088l1.002 2.192h-.131l-.13-.22-.131-.175h-.175c-.043 0-.13.088-.174.22l-2.266 3.507 4.14.614h.217c.088-.044.088-.088.131-.132v-.219c-.043-.044-.043-.131-.087-.175l.13-.088.785 1.842h-.13a.962.962 0 0 0 -.785-.483l-4.88-.745zm4.662 15.959a.218.218 0 0 0 .174.088h.175l.305-.176 5.708-4.253.261-.219.13-.175c0-.088-.043-.132-.086-.22a.921.921 0 0 0 -.175-.262l.131-.088 1.743 2.411c.388.521.696 1.098.915 1.71.211.529.3 1.098.262 1.666a3.39 3.39 0 0 1 -.523 1.579 5.03 5.03 0 0 1 -1.308 1.447 6.564 6.564 0 0 1 -1.568.789 3.508 3.508 0 0 1 -1.787.044 3.956 3.956 0 0 1 -1.655-.833 5.509 5.509 0 0 1 -1.308-1.36l-1.699-2.28.087-.131zm1.374.735a.22.22 0 0 0 -.023.098.485.485 0 0 0 .043.22l.131.219c.044.087.087.131.087.175.348.45.742.862 1.177 1.228.387.305.832.529 1.307.657.476.095.968.08 1.438-.044a3.781 3.781 0 0 0 1.525-.745c.455-.329.84-.746 1.133-1.228.254-.397.418-.846.48-1.315a3.175 3.175 0 0 0 -.219-1.403 7.074 7.074 0 0 0 -.784-1.49l-.305-.351-.392-.22-5.534 4.122a.219.219 0 0 0 -.064.077zm10.87 12.33c.124-.4.212-.81.261-1.227a8.91 8.91 0 0 0 .131-1.184c0-.395 0-.833-.043-1.315l-.654-.658-2.31 2.324-.26.22a.485.485 0 0 0 -.044.218.264.264 0 0 0 .043.176c.076.098.164.186.262.263l-.131.087-1.612-1.666.13-.087c.088.087.131.175.218.219h.393l.217-.22 5.098-4.998.262-.219a.397.397 0 0 0 .043-.219.264.264 0 0 0 -.043-.175l-.218-.263.087-.088 2.135 2.192c.255.262.475.557.654.877.172.282.29.594.348.92.05.322.036.65-.043.965-.14.345-.348.658-.61.921a2.176 2.176 0 0 1 -.741.438c-.25.095-.52.125-.784.088a2.645 2.645 0 0 1 -.785-.22l-.697-.438c0 .307.044.57.044.79.009.19-.006.382-.044.57.007.176-.007.353-.043.526-.044.175-.044.394-.088.614a6.26 6.26 0 0 1 -.174.876c-.087.274-.16.552-.218.833-.087.264-.13.483-.174.658s-.044.35.044.395l-.088.087-1.002-1.008.436-1.271zm.566-4.34.698.57c.219.17.471.289.74.35.27.08.553.095.828.045a1.958 1.958 0 0 0 1.22-1.14c.044-.232.044-.47 0-.702a1.495 1.495 0 0 0 -.305-.658l-.479-.57-.174-.219-.218-.175-.218-.132h-.218l-2.31 2.193zm16.253 18.984.305.176h.218l.174-.088c.068-.097.126-.2.174-.307l3.748-5.787-6.841 4.691-.349-.22 1.307-8.066-3.442 5.392-.218.351a.395.395 0 0 0 -.13.263.309.309 0 0 0 .087.263c.069.12.176.213.305.263l-.087.132-1.7-1.14v-.088l.392.176h.262l.218-.22.218-.35 3.703-5.744c.044-.131.131-.22.131-.307a.397.397 0 0 0 .044-.22l-.175-.174-.261-.176.087-.131 1.656 1.096-1.177 7.585 6.318-4.297 1.656 1.052-.087.088-.262-.132h-.217a.217.217 0 0 0 -.175.132.658.658 0 0 0 -.174.263l-3.878 5.963-.174.307c0 .044-.044.131 0 .175l.087.175.261.176v.131l-2.004-1.271zm13.246 6.708a.867.867 0 0 0 .436.088c.13-.044.174-.175.174-.394v-2.105l-3.53-1.535-1.35 1.36c-.174.175-.262.307-.262.438 0 .132.088.22.35.35v.089l-1.657-.702v-.131h.305l.218-.088a.436.436 0 0 0 .218-.176l.218-.175 6.1-5.919.654.307-.175 8.857a.749.749 0 0 0 .349.613v.132l-2.048-.877zm-2.353-4.428 3.094 1.36.13-4.517zm17.08 1.316a.703.703 0 0 0 -.13-.264.393.393 0 0 0 -.262-.175l-.348-.131-2.397-.658h-.261c-.044.044-.044.131-.087.263l-.785 2.806 2.31.658.348.087h.262c.087 0 .13-.044.218-.131l.174-.307h.13l-.522 1.841h-.13c.043-.263.043-.482-.088-.57a.956.956 0 0 0 -.567-.263l-2.352-.701-.872 3.332a1.36 1.36 0 0 0 -.087.35c0 .088 0 .132.044.176.043.044.043.088.13.132l.305.131v.132l-2.266-.658v-.132l.305.088h.218c.044 0 .088-.088.131-.131.04-.114.069-.232.087-.351l1.917-6.884c.044-.097.074-.2.088-.307v-.219l-.175-.131-.305-.088v-.131l5.403 1.534-.348 1.272-.087-.176v-.394zm8.149 9.25c.217.044.348.044.435-.043.087-.088.131-.176.087-.395l-.479-2.06-3.79-.614-.96 1.666c-.096.144-.156.31-.174.482.044.132.175.22.436.263v.132l-1.786-.263v-.132h.261l.218-.175.174-.176.131-.263 4.444-7.234.698.088 2.047 8.637a.659.659 0 0 0 .48.482v.132l-2.222-.395v-.131zm-3.4-3.682 3.312.526-1.002-4.385zm11.33 4.603v-.131h.523a.352.352 0 0 0 .087-.22 2.47 2.47 0 0 0 .043-.306l.131-7.147v-.35a.308.308 0 0 0 -.261-.264h-.305v-.131h2.309v.131h-.523a.352.352 0 0 0 -.087.22c-.044.043-.044.175-.044.306l-.13 7.06c0 .087 0 .13.043.175l.175.087h2.832l.479-.087.392-.307c.12-.164.223-.34.305-.526h.174l-.391 1.578-5.751-.088zm11.416-.175.174-.088a.308.308 0 0 0 .044-.219.485.485 0 0 0 0-.35l-.741-7.103c0-.132-.044-.263-.044-.351l-.13-.176h-.523v-.131l2.92-.307a7.102 7.102 0 0 1 1.96.088 3.458 3.458 0 0 1 2.658 1.885 4.58 4.58 0 0 1 .566 1.885c.045.588 0 1.18-.13 1.754a3.074 3.074 0 0 1 -.872 1.535 4.02 4.02 0 0 1 -1.525 1.052 9.233 9.233 0 0 1 -1.83.438l-2.832.307v-.22h.305zm1.33-.867a.23.23 0 0 0 .064.078h.654a4.595 4.595 0 0 0 1.655-.395 2.7 2.7 0 0 0 1.22-.789c.346-.34.6-.762.741-1.228a4.522 4.522 0 0 0 .087-1.753 4.185 4.185 0 0 0 -.435-1.579 3.721 3.721 0 0 0 -.915-1.096 3.43 3.43 0 0 0 -1.308-.526 5.153 5.153 0 0 0 -1.655-.044l-.48.088-.392.219.74 6.927a.22.22 0 0 0 .024.098zm16.534-2.158a.827.827 0 0 0 .393-.22c.087-.087.043-.219-.088-.438l-1.22-1.666-3.747.877-.261 1.929a.705.705 0 0 0 .043.526c.044.088.218.088.48.044v.131l-1.743.395v-.088a.436.436 0 0 0 .218-.175l.13-.22a.616.616 0 0 0 .087-.262.573.573 0 0 0 .044-.263l1.307-8.418.697-.176 5.185 7.19a.741.741 0 0 0 .654.264v.131l-2.179.526zm-4.575-2.105 3.225-.789-2.571-3.683zm24.706-4.56.959.132a2.21 2.21 0 0 0 .958-.175l.087.175-.74.35-.654.22-.697.088h-.828l-.915-.176a2.603 2.603 0 0 1 -.828-.263 3.814 3.814 0 0 1 -1.656.307 4.074 4.074 0 0 1 -1.481-.307 4.881 4.881 0 0 1 -1.264-.92 7.765 7.765 0 0 1 -.915-1.404 5.02 5.02 0 0 1 -.566-1.666 4.279 4.279 0 0 1 .087-1.666c.134-.51.372-.988.697-1.403a3.533 3.533 0 0 1 1.394-1.096 3.73 3.73 0 0 1 1.613-.438 3.38 3.38 0 0 1 1.481.219c.463.188.89.455 1.264.79a4 4 0 0 1 .958 1.14c.296.426.517.9.654 1.402a4.63 4.63 0 0 1 .174 1.535c.004.499-.1.992-.305 1.447-.183.5-.5.94-.915 1.271.216.117.453.192.697.22l.74.218zm-3.53-7.19a3.08 3.08 0 0 0 -1.22-.395 2.557 2.557 0 0 0 -1.35.264c-.44.183-.807.507-1.046.92a3.127 3.127 0 0 0 -.392 1.228c-.035.455-.006.912.087 1.359.133.433.293.858.48 1.272.217.394.479.789.74 1.183.29.34.628.634 1.002.877a3.18 3.18 0 0 0 1.22.439 2.26 2.26 0 0 0 1.351-.307c.44-.184.806-.507 1.046-.921.22-.374.355-.794.392-1.228a4.47 4.47 0 0 0 -.087-1.315 9.2 9.2 0 0 0 -.48-1.315 6.361 6.361 0 0 0 -.74-1.14 6.595 6.595 0 0 0 -1.002-.92zm10.72-8.506v.263a.703.703 0 0 0 .174.307l.174.263 2.527 3.683a3.392 3.392 0 0 1 -.026 3.602 3.362 3.362 0 0 1 -1.402 1.235 3.337 3.337 0 0 1 -1.84.293 3.214 3.214 0 0 1 -2.048-1.447l-2.701-3.99-.349-.35c-.087-.088-.218-.044-.392.087l-.174.088v-.088l1.873-1.359.088.088-.262.219c-.087.044-.087.088-.13.175a.485.485 0 0 0 .043.22l.174.307 2.745 3.99a2.97 2.97 0 0 0 1.482 1.227 2.122 2.122 0 0 0 1.83-.438 2.183 2.183 0 0 0 1.09-1.535 2.426 2.426 0 0 0 -.48-1.798l-2.614-3.814-.262-.35a.525.525 0 0 0 -.218-.22.304.304 0 0 0 -.261-.044.608.608 0 0 0 -.392.176v-.132l1.655-1.14v.088l-.13.131c-.131.088-.175.132-.175.263zm9.89 2.763-.087-.088c.174-.176.305-.307.305-.439 0-.131-.087-.219-.305-.438l-4.793-5.261c-.174-.22-.305-.307-.392-.307s-.261.044-.436.219l-.087-.088 4.183-3.858.872.965-.131.131c-.262-.22-.436-.263-.61-.22a1.35 1.35 0 0 0 -.567.396l-1.917 1.71a.395.395 0 0 0 -.13.219l.13.219 1.961 2.148 1.917-1.754.262-.263c.043-.087.087-.131.087-.219a.264.264 0 0 0 0-.263l-.175-.307.131-.087 1.307 1.403-.13.131-.305-.22h-.262l-.218.089-.305.219-1.873 1.753 2.222 2.5h.348l.131-.132c.087-.058.13-.102.13-.131l1.57-1.403.348-.395a.878.878 0 0 0 .218-.395c.036-.128.05-.261.044-.394a2.205 2.205 0 0 0 -.088-.526l.131-.132.784 1.272zm7.756-7.76.218-.264a.352.352 0 0 0 .087-.22c0-.043 0-.087-.087-.175l-.218-.263-5.272-4.779-.305-.219c-.044-.044-.13-.087-.174-.044l-.218.088-.218.263-.13-.088 1.655-1.841.087.088-.218.263c-.043.087-.087.131-.087.219a.352.352 0 0 0 .087.175l.218.263 5.316 4.78a.567.567 0 0 0 .261.219l.218.087.175-.131a.743.743 0 0 0 .261-.263l.087.087-1.656 1.842-.087-.088zm7.364-10.962h-1.22l-1.177.088-1.263.263-.523.745 2.614 1.93.305.175h.218l.175-.088.174-.263h.13l-1.35 1.885h-.13l.173-.263a.485.485 0 0 0 .044-.219l-.087-.175-.262-.22-5.751-4.165c-.13-.087-.218-.175-.305-.175s-.13-.088-.175-.044a.217.217 0 0 0 -.174.088l-.218.219h-.087l1.743-2.5c.225-.282.473-.546.74-.788.265-.217.558-.394.872-.526.295-.096.608-.126.915-.088.368.05.715.202 1.002.438.244.146.44.36.567.614.132.243.206.513.218.79.036.266.006.537-.087.788a2.949 2.949 0 0 1 -.305.79l.784-.176.566-.087h1.177c.275-.022.552-.022.828 0l.871.131h.697a.52.52 0 0 0 .392-.131l.088.087-.828 1.096zm-4.357.22c.19-.243.352-.508.479-.79a1.98 1.98 0 0 0 .218-.833 1.278 1.278 0 0 0 -.13-.789 1.664 1.664 0 0 0 -.567-.702 1.477 1.477 0 0 0 -.741-.306 1.04 1.04 0 0 0 -.654.087c-.23.106-.436.254-.61.439l-.522.57-.131.219-.13.22-.132.262v.22l2.571 1.885.349-.483zm11.416-12.014a3.66 3.66 0 0 1 .261 1.535 4.316 4.316 0 0 1 -.523 1.71 3.94 3.94 0 0 1 -1.133 1.359c-.414.34-.91.567-1.437.657a3.941 3.941 0 0 1 -1.613.044 5.556 5.556 0 0 1 -1.612-.614 4.752 4.752 0 0 1 -1.612-1.227 4.481 4.481 0 0 1 -.784-1.49 3.087 3.087 0 0 1 -.131-1.535c.052-.506.2-.997.436-1.447.256-.442.58-.842.958-1.184.41-.316.866-.567 1.351-.745a3.638 3.638 0 0 1 1.7-.132 4.946 4.946 0 0 1 1.873.614c.507.29.976.643 1.394 1.052.385.401.682.88.872 1.403zm-5.403-2.104a2.863 2.863 0 0 0 -1.22.394c-.422.22-.76.575-.959 1.009a2.643 2.643 0 0 0 -.348 1.359c.044.432.177.85.392 1.227.24.377.534.716.871 1.009a6.427 6.427 0 0 0 2.397 1.315c.438.128.896.173 1.35.132.43-.009.85-.13 1.22-.351.39-.248.706-.596.915-1.008.253-.406.375-.881.349-1.36a2.906 2.906 0 0 0 -.392-1.227 3.327 3.327 0 0 0 -.872-1.052 6.276 6.276 0 0 0 -1.089-.79 9.07 9.07 0 0 0 -1.307-.482 4.462 4.462 0 0 0 -1.307-.175zm8.976-2.982-.436-.131-5.229-7.541-1.263 3.42c-.12.26-.166.548-.131.832.117.251.317.453.566.57v.176l-1.394-.658 2.179-5.787.392.131 5.272 7.541 1.438-3.814c.097-.252.113-.528.044-.79a1.487 1.487 0 0 0 -.567-.613l.087-.131 1.351.701-2.31 6.094z" fill="url(#g)"/><g fill="#fff"><path d="m115.167 18.097c-.583 0-1.152.18-1.63.514l-3.216 1.926 8.449 13.953c.129.233.287.45.472.642a.686.686 0 0 0 .386.257c.176.014.352-.015.514-.085l.686-.386.172.214-4.76 2.868-.172-.214.643-.428a.77.77 0 0 0 .3-.385.556.556 0 0 0 0-.514 3.336 3.336 0 0 0 -.343-.685l-8.449-13.953-3.26 1.969a2.66 2.66 0 0 0 -1.2 1.198 2.948 2.948 0 0 0 .171 1.755l-.214.129-1.716-3.04 12.995-7.832 1.845 2.91-.258.172a2.66 2.66 0 0 0 -1.415-.985zm33.393 10.423h.796c.16-.045.31-.119.443-.217a.994.994 0 0 0 .176-.436 3.68 3.68 0 0 0 .045-.784l-.133-7.67-9.686.175.133 7.67a3.95 3.95 0 0 0 .044.783.822.822 0 0 0 .177.393c.122.114.276.19.443.217h.751v.262l-5.44.087v-.305h.797c.159-.023.31-.083.442-.174a.778.778 0 0 0 .177-.436 2.19 2.19 0 0 0 .044-.784l-.265-16.384a3.478 3.478 0 0 0 -.045-.74.823.823 0 0 0 -.22-.436.669.669 0 0 0 -.443-.175h-.796v-.305l5.44-.087v.305h-.752a.845.845 0 0 0 -.442.218.821.821 0 0 0 -.177.436c0 .174-.044.436-.044.74l.132 7.234 9.73-.175-.133-7.19a3.179 3.179 0 0 0 -.088-.783.778.778 0 0 0 -.177-.436l-.487-.174h-.751v-.262l5.439-.087v.261l-.797.088a.803.803 0 0 0 -.442.174 1.296 1.296 0 0 0 -.177.436c-.04.26-.054.522-.044.784l.265 16.34c-.003.264.027.527.089.784a.648.648 0 0 0 .177.436c.138.11.309.171.486.174h.753v.305l-5.44.044v-.305zm16.44 3.887.13-.264c.52.308.911.44 1.128.352s.478-.352.781-.924l7.984-14.373c.245-.347.381-.76.39-1.187a1.698 1.698 0 0 0 -.868-.747l.13-.264 11.325 6.462-1.432 2.637-.347-.176c.26-.703.304-1.23.043-1.538a3.742 3.742 0 0 0 -1.214-1.011l-5.164-2.901c-.26-.176-.477-.264-.52-.22a1.186 1.186 0 0 0 -.347.483l-3.298 5.89 5.163 2.945.738.352.607.132a.949.949 0 0 0 .478-.22c.208-.185.397-.39.564-.615l.303.176-2.126 3.912-.347-.22c.113-.254.2-.52.26-.791a.845.845 0 0 0 -.086-.572.75.75 0 0 0 -.39-.44 3.205 3.205 0 0 0 -.695-.439l-5.163-2.945-3.732 6.725a.443.443 0 0 0 -.043.396.702.702 0 0 0 .26.352l.39.22.391.22 4.166 2.373 1.128.527c.3.14.624.216.954.22.312-.031.619-.105.911-.22a3.934 3.934 0 0 0 1.085-.615l.39.22-2.341 2.681z" fill-rule="nonzero"/><path d="m153.818 138.07a.347.347 0 0 0 -.045-.175.26.26 0 0 0 -.044-.176c0-.087 0-.131-.045-.175-.044-.044-.044-.132-.044-.176l-.09-.219a.13.13 0 0 0 -.044-.088 3.97 3.97 0 0 0 -1.646-1.754l-.311-.132h-.045l-.267-.087h-.089l-.267-.088h-1.157a4.232 4.232 0 0 0 -1.806.425 4.171 4.171 0 0 0 -1.442 1.154 4.171 4.171 0 0 0 -1.442-1.154 4.232 4.232 0 0 0 -1.806-.425h-1.157l-.267.088h-.09l-.266.087h-.09l-.266.132h-.045l-.267.175a.045.045 0 0 0 -.031.013.044.044 0 0 0 -.013.031l-.223.176-.089.087-.178.132-.178.175-.089.088c-.235.311-.43.65-.578 1.009a.565.565 0 0 0 -.134.35c-.044.045-.044.045-.044.089a.608.608 0 0 1 -.09.263v.307a9.902 9.902 0 0 0 0 3.245c1.558 8.158 4.317 8.51 4.629 8.553h.178a15.777 15.777 0 0 0 2.58-1.404 15.777 15.777 0 0 0 2.581 1.404h.178c.312-.044 3.07-.395 4.628-8.553a9.875 9.875 0 0 0 -.09-3.245v-.132zm-13.883.176a.175.175 0 0 0 .044-.132c0-.088.045-.132.045-.175 0-.044.044-.088.044-.132s.045-.132.045-.175a.175.175 0 0 0 .044-.132l.09-.132c0-.043.044-.087.044-.131h.044c.174-.325.417-.61.712-.833l.178-.176h.045l.222-.132.223-.087h.044l.223-.088h.089l.178-.088h.934a3.283 3.283 0 0 1 1.664.468c.501.301.91.73 1.184 1.243l.4.702.4-.702a3.221 3.221 0 0 1 1.185-1.243 3.283 3.283 0 0 1 1.664-.468h.623l.222.088h.09l.222.088h.044l.223.087c.434.202.818.495 1.126.859.307.364.53.79.653 1.247 0 .087 0 .131.045.175.044.044.044.351.044.57a5.34 5.34 0 0 1 -1.023 3.29 24.097 24.097 0 0 1 -5.518 5.263 24.084 24.084 0 0 1 -5.517-5.395 5.34 5.34 0 0 1 -1.024-3.29c0-.219.045-.394.045-.57zm.267 4.386a24.96 24.96 0 0 0 5.428 5.394 10.15 10.15 0 0 1 -2.002 1.053c-.4-.132-2.136-1.009-3.426-6.447zm7.03 5.394a24.96 24.96 0 0 0 5.429-5.394c-1.29 5.482-3.07 6.36-3.426 6.447a11.59 11.59 0 0 1 -2.003-1.053z"/><path d="m92.562 114.981-5.944 3.647-.69.483a.708.708 0 0 0 -.215.44c.007.196.051.39.13.57.114.243.244.477.387.703l-.215.176-3.015-5.096.258-.132.474.703a.78.78 0 0 0 .388.351h.474c.26-.079.506-.197.732-.351l5.9-3.603 4.825-10.587c.175-.337.32-.69.43-1.055a1.56 1.56 0 0 0 -.215-1.098l.215-.132 2.843 4.789-.258.132-.345-.528-.345-.263a.423.423 0 0 0 -.387.044c-.16.167-.29.36-.388.57l-4.135 8.7 9.562.263a.806.806 0 0 0 .517-.132.348.348 0 0 0 .172-.307.806.806 0 0 0 -.043-.44c-.086-.131-.13-.307-.215-.439l.215-.176 2.326 3.954-.215.132a2.335 2.335 0 0 0 -.86-.702 2.287 2.287 0 0 0 -1.079-.22z" fill-rule="nonzero"/><path d="m117.302 143.534a9.29 9.29 0 0 1 -3.756.427 9.401 9.401 0 0 1 -3.89-1.324 8.773 8.773 0 0 1 -3.086-2.648 7.919 7.919 0 0 1 -1.431-3.331 8.332 8.332 0 0 1 .134-3.63 12.358 12.358 0 0 1 1.52-3.674 12.61 12.61 0 0 1 3.086-3.417 10.4 10.4 0 0 1 3.577-1.666 9.446 9.446 0 0 1 3.622-.17c1.186.198 2.323.603 3.354 1.195a9.844 9.844 0 0 1 2.639 2.221 8.395 8.395 0 0 1 1.61 3.118 8.293 8.293 0 0 1 .178 3.802 11.674 11.674 0 0 1 -1.654 4.228 13.573 13.573 0 0 1 -2.639 3.032 10.265 10.265 0 0 1 -3.264 1.837zm5.366-12.045a5.97 5.97 0 0 0 -.715-2.776 6.208 6.208 0 0 0 -2.298-2.234 6.577 6.577 0 0 0 -3.158-.84 6.957 6.957 0 0 0 -2.907.725 9.296 9.296 0 0 0 -2.504 1.88 16.99 16.99 0 0 0 -1.967 2.434c-.55.901-.985 1.862-1.297 2.862a7.784 7.784 0 0 0 -.492 2.99 5.72 5.72 0 0 0 .716 2.776 5.646 5.646 0 0 0 2.325 2.22 5.785 5.785 0 0 0 3.13.855 6.77 6.77 0 0 0 2.907-.726 8.673 8.673 0 0 0 2.504-1.88 14.41 14.41 0 0 0 1.967-2.434c.54-.892.974-1.837 1.297-2.819a8.97 8.97 0 0 0 .492-3.033zm60.877 7.291a22.238 22.238 0 0 0 -2.487-1.267 18.39 18.39 0 0 0 -2.618-.874c-.873-.263-1.876-.481-2.967-.7l-1.79 1.093 3.797 6.514c.119.235.265.456.436.656.175.175.306.262.437.262a.523.523 0 0 0 .436-.043l.698-.35.131.218-4.582 2.711-.174-.262c.222-.1.428-.233.61-.394a1.05 1.05 0 0 0 .263-.393.526.526 0 0 0 -.044-.437 5.163 5.163 0 0 0 -.35-.7l-8.29-14.165a2.887 2.887 0 0 0 -.393-.656c-.13-.13-.262-.262-.393-.262a.61.61 0 0 0 -.48.044 2.66 2.66 0 0 0 -.61.306l-.175-.262 6.065-3.542a11.596 11.596 0 0 1 2.27-1.005 6.839 6.839 0 0 1 2.269-.263 4.358 4.358 0 0 1 2.05.656 4.98 4.98 0 0 1 1.702 1.836c.373.578.597 1.239.655 1.924a3.985 3.985 0 0 1 -.262 1.749 5.949 5.949 0 0 1 -.916 1.617c-.41.52-.878.99-1.397 1.4l1.79.35c.43.078.854.195 1.265.349l1.178.437 1.353.525c.616.23 1.215.508 1.789.83l1.702 1.006 1.396.787c.436.175.742.218.916.087l.175.263-2.836 1.66a55.424 55.424 0 0 0 -2.619-1.704zm-9.338-3.671a9.034 9.034 0 0 0 1.658-1.225 5.727 5.727 0 0 0 1.266-1.486 3.81 3.81 0 0 0 .48-1.793 4.422 4.422 0 0 0 -.611-2.054 3.32 3.32 0 0 0 -1.265-1.312 2.614 2.614 0 0 0 -1.484-.393c-.567 0-1.129.103-1.658.306a13.69 13.69 0 0 0 -1.615.787l-.48.306-.523.306c-.177.111-.326.26-.437.437-.121.156-.21.334-.262.525l3.71 6.295 1.221-.7z"/><path d="m210.794 111.69.132-.264c.084-.119.144-.253.175-.395a.964.964 0 0 0 .044-.35.263.263 0 0 0 -.131-.264 1.539 1.539 0 0 0 -.66-.044l-.79.088-.834.175-.66.22-8.915 3.203 6.764 3.641.747.307a.88.88 0 0 0 .483 0c.131 0 .263-.131.351-.263.15-.207.283-.427.395-.658l.264.132-2.549 4.782-.263-.132.307-.702a.964.964 0 0 0 .044-.482.702.702 0 0 0 -.263-.351l-.703-.439-14.493-7.81-.747-.307a.88.88 0 0 0 -.483 0 .922.922 0 0 0 -.351.263l-.395.658-.264-.131 2.591-4.783.22.132-.308.702a.964.964 0 0 0 -.044.483.57.57 0 0 0 .308.35c.201.172.422.32.659.44l6.588 3.553-2.811-9.916a2.806 2.806 0 0 0 -.264-.79 1.01 1.01 0 0 0 -.351-.526.395.395 0 0 0 -.483-.044 2.326 2.326 0 0 0 -.615.746l-.22-.132 2.549-4.782.263.132a3.2 3.2 0 0 0 -.307 1.097c-.032.37.013.744.131 1.096l3.163 11.408 12.868-4.3a4.13 4.13 0 0 0 1.01-.438c.344-.168.623-.446.79-.79l.264.131-2.943 5.485-.263-.132z" fill-rule="nonzero"/><path d="m1.076 83.512a1.1 1.1 0 0 0 .646-.266 1.16 1.16 0 0 0 .3-.664c.058-.396.086-.796.087-1.197v-24.814c0-.4-.03-.8-.086-1.197a1.167 1.167 0 0 0 -.301-.664 1.102 1.102 0 0 0 -.646-.266h-1.076v-.444h9.985a23.41 23.41 0 0 1 6.542.886 14.08 14.08 0 0 1 5.036 2.791 12.183 12.183 0 0 1 3.27 4.698 17.645 17.645 0 0 1 1.163 6.69 18.198 18.198 0 0 1 -.99 6.027 11.745 11.745 0 0 1 -3.443 5.007 14.245 14.245 0 0 1 -5.595 3.058 23.425 23.425 0 0 1 -6.327.842h-9.641v-.488h1.076zm4.757-2.393c.053.11.135.202.236.266.22.156.469.261.731.31.28.088.57.133.861.133h.646a20.896 20.896 0 0 0 5.724-.753 11.033 11.033 0 0 0 4.39-2.304 10.013 10.013 0 0 0 2.798-4.032 16.011 16.011 0 0 0 .99-5.894 15.558 15.558 0 0 0 -.947-5.716 10.737 10.737 0 0 0 -2.669-3.988 11.4 11.4 0 0 0 -4.218-2.393 19.85 19.85 0 0 0 -5.552-.753l-1.592.133a2.971 2.971 0 0 0 -1.464.664v23.973a.682.682 0 0 0 .066.354z"/><path d="m31 84v-.443c.931 0 1.499-.133 1.703-.399.218-.222.349-.842.349-1.772v-24.772c0-.93-.131-1.55-.35-1.816-.218-.266-.785-.355-1.702-.355v-.443h19.472v4.564h-.611c-.131-1.108-.48-1.817-1.004-2.082a6.632 6.632 0 0 0 -2.358-.355h-8.776c-.48 0-.785.044-.829.133-.118.28-.163.584-.131.886v10.148h8.863l1.222-.089a2.03 2.03 0 0 0 .83-.266c.24-.16.423-.392.524-.664a4.06 4.06 0 0 0 .262-1.197h.567v6.692h-.567a4.04 4.04 0 0 0 -.262-1.241 1.77 1.77 0 0 0 -.524-.71 2.077 2.077 0 0 0 -.786-.31h-10.129v11.566a.764.764 0 0 0 .218.576c.182.133.391.224.612.266h8.513c.6.009 1.198-.036 1.79-.133a3.456 3.456 0 0 0 1.397-.443c.423-.25.794-.58 1.092-.975a8.45 8.45 0 0 0 .916-1.595h.699l-1.091 5.229zm49.2-29.144a1.144 1.144 0 0 0 -.267.376c-.17.308-.247.66-.22 1.011-.04.483-.054.968-.044 1.452v26.305h-2.242l-17.634-25.25v22.83c.017.348.091.69.22 1.012.16.268.409.47.704.572.44.142.901.201 1.363.176v.44h-7.08v-.44c.476.028.953-.032 1.407-.176a1.32 1.32 0 0 0 .704-.572 1.98 1.98 0 0 0 .22-.967c.04-.483.054-.968.044-1.452v-23.886l-.44-.967a3.211 3.211 0 0 0 -.396-.572 1.143 1.143 0 0 0 -.572-.264h-.967v-.44h5.805c2.682 4.09 5.452 8.094 8.223 12.009 2.77 3.915 5.54 7.918 8.223 12.009v-21.863a5.016 5.016 0 0 0 -.22-1.011 1.451 1.451 0 0 0 -.748-.572 3.913 3.913 0 0 0 -1.407-.176v-.44h7.124v.44a3.913 3.913 0 0 0 -1.407.176c-.146.052-.28.134-.393.24zm26.247 2.029c-.518-.444-1.295-.622-2.46-.622h-5.61v25.163a7.62 7.62 0 0 0 .086 1.198.997.997 0 0 0 .346.666c.204.148.442.24.69.266h1.208v.444h-8.327v-.444h1.122a1.61 1.61 0 0 0 .734-.266.971.971 0 0 0 .345-.666 4.2 4.2 0 0 0 .13-1.198v-25.163h-5.697c-1.122 0-1.942.222-2.503.666-.56.444-.906 1.243-1.122 2.396h-.389l.173-5.325h22.698l.129 5.325h-.432c-.215-1.198-.604-1.997-1.121-2.44z" fill-rule="nonzero"/><path d="m127.267 83.561a2.242 2.242 0 0 0 1.46-.394c.287-.205.287-.687 0-1.448l-2.663-6.666h-12.932l-2.406 6.14c-.3.746-.43 1.36-.3 1.754.128.395.687.614 1.589.614v.439h-6.015v-.439a1.69 1.69 0 0 0 .86-.307c.244-.17.461-.376.644-.614.207-.229.367-.497.472-.79l.387-.876 10.998-26.974h2.363l11.429 28.114c.155.386.408.723.733.977.324.255.708.417 1.114.47v.439h-7.733zm-13.277-10.657h11.342l-5.67-14.299z"/><path d="m140 84v-.444l1.096-.089a.915.915 0 0 0 .651-.273.938.938 0 0 0 .27-.658c.06-.382.089-.768.087-1.154v-24.808c0-.386-.03-.772-.087-1.154a.983.983 0 0 0 -.267-.675.96.96 0 0 0 -.654-.301h-1.096v-.444h8.067v.444h-1.14a1.49 1.49 0 0 0 -.702.31 1.16 1.16 0 0 0 -.306.622 8.399 8.399 0 0 0 -.088 1.198v24.453a.763.763 0 0 0 .22.577c.166.132.361.223.569.266h7.76l2.104-.089a4.603 4.603 0 0 0 1.622-.444 2.99 2.99 0 0 0 1.228-1.02 7.606 7.606 0 0 0 1.096-1.82l.57.133-1.228 5.37zm37.754-.575h-.532l-.222-6.447.089-.133h.399a7.86 7.86 0 0 0 2.127 3.047 8.608 8.608 0 0 0 2.882 1.634c.982.34 2.02.49 3.058.442a6.58 6.58 0 0 0 2.793-.75 5.18 5.18 0 0 0 2.04-1.856 4.624 4.624 0 0 0 .797-2.737 4.757 4.757 0 0 0 -1.064-3.18 11.996 11.996 0 0 0 -2.57-2.34 46.588 46.588 0 0 0 -3.414-1.987 21.689 21.689 0 0 1 -3.37-2.12 11.014 11.014 0 0 1 -2.614-2.738 7.044 7.044 0 0 1 -1.02-3.886 6.47 6.47 0 0 1 .71-3.09 8.04 8.04 0 0 1 1.95-2.297 8.52 8.52 0 0 1 2.704-1.501 10.9 10.9 0 0 1 3.147-.486c.608-.001 1.216.043 1.818.133l1.817.441.488.133.842.265.886.22.444.133a.888.888 0 0 0 .842-.84h.488a78.55 78.55 0 0 1 .31 3.357c.117 1.114.147 2.237.089 3.356h-.488a7.414 7.414 0 0 0 -1.729-2.782 8.07 8.07 0 0 0 -2.571-1.678 7.16 7.16 0 0 0 -2.881-.574 6.85 6.85 0 0 0 -2.704.53 5.006 5.006 0 0 0 -1.995 1.59 4.536 4.536 0 0 0 -.754 2.605c-.01.738.206 1.463.62 2.075.447.62.968 1.184 1.552 1.678.777.624 1.59 1.199 2.438 1.722.843.53 1.73 1.016 2.616 1.502l-.31-.133a28.84 28.84 0 0 1 2.792 1.634 11.96 11.96 0 0 1 2.438 1.987 8.433 8.433 0 0 1 1.685 2.473 8.186 8.186 0 0 1 .62 3.224 6.384 6.384 0 0 1 -.842 3.356 7.604 7.604 0 0 1 -2.216 2.517c-.912.678-1.93 1.2-3.015 1.545a11.26 11.26 0 0 1 -3.413.53 13.214 13.214 0 0 1 -3.546-.441l-3.458-.928a.977.977 0 0 0 -.532.221.837.837 0 0 0 -.221.574zm46.561-28.641c-.23.264-.397.577-.487.914-.09.37-.136.751-.133 1.132v16.328c0 3.527-.976 6.183-2.97 8.055-1.996 1.873-4.7 2.787-8.247 2.787s-6.34-.958-8.29-2.83c-1.952-1.872-2.927-4.572-2.927-8.099v-16.501a4.924 4.924 0 0 0 -.221-1.57c-.133-.391-.62-.566-1.374-.566h-.666v-.434h8.246v.435h-1.152c-.24.034-.468.123-.665.262a1.123 1.123 0 0 0 -.31.653 8 8 0 0 0 -.09 1.175v16.59c0 2.656.621 4.79 1.863 6.313 1.241 1.524 3.325 2.351 6.162 2.351 2.838 0 4.611-.74 6.03-2.177 1.418-1.437 2.172-3.44 2.172-5.965v-17.199a2.658 2.658 0 0 0 -.222-1.088 1.448 1.448 0 0 0 -.665-.697 3.831 3.831 0 0 0 -1.418-.218v-.435h7.049v.435h-.665c-.373-.02-.74.105-1.02.349zm7.685 28.772h1.113c.25-.027.491-.118.701-.266a.87.87 0 0 0 .226-.273.936.936 0 0 0 .104-.348 9.11 9.11 0 0 0 .083-1.243v-24.852a9.11 9.11 0 0 0 -.083-1.243 1.032 1.032 0 0 0 -.102-.368.965.965 0 0 0 -.228-.297 1.486 1.486 0 0 0 -.7-.222h-1.114v-.444h8v.444h-1.155c-.233.013-.46.09-.66.222a.965.965 0 0 0 -.227.297 1.04 1.04 0 0 0 -.102.368 9.11 9.11 0 0 0 -.083 1.243v24.808c0 .415.027.83.083 1.242a.936.936 0 0 0 .104.348.87.87 0 0 0 .226.274c.195.147.422.239.66.266h1.154v.444l-8 .044zm33.447-26.671c-.518-.444-1.295-.622-2.46-.622h-5.61v25.163a7.62 7.62 0 0 0 .086 1.198.997.997 0 0 0 .346.666c.204.148.442.24.69.266h1.208v.444h-8.328v-.444h1.122a1.61 1.61 0 0 0 .734-.266.971.971 0 0 0 .345-.666 4.2 4.2 0 0 0 .13-1.198v-25.163h-5.697c-1.122 0-1.942.222-2.503.666-.56.444-.906 1.243-1.122 2.396h-.388l.173-5.325h22.698l.129 5.325h-.432c-.215-1.198-.604-1.997-1.121-2.44zm4.553 27.115v-.443c.931 0 1.499-.133 1.703-.399.218-.222.349-.842.349-1.772v-24.772c0-.93-.131-1.55-.35-1.816-.218-.266-.785-.355-1.702-.355v-.443h19.472v4.564h-.611c-.131-1.108-.48-1.817-1.048-2.082a6.202 6.202 0 0 0 -2.314-.355h-8.775a1.64 1.64 0 0 0 -.874.133c-.071.29-.1.588-.087.886v10.148h8.863l1.222-.089a2.03 2.03 0 0 0 .83-.266c.24-.16.423-.392.524-.664a4.06 4.06 0 0 0 .262-1.197h.567v6.692h-.567a4.04 4.04 0 0 0 -.262-1.241 1.77 1.77 0 0 0 -.524-.71 2.033 2.033 0 0 0 -.83-.31h-10.085v11.566a.764.764 0 0 0 .218.576c.166.133.36.224.568.266h8.557c.6.009 1.198-.036 1.79-.133a3.456 3.456 0 0 0 1.397-.443c.423-.25.794-.58 1.092-.975a8.45 8.45 0 0 0 .916-1.595h.699l-1.091 5.229z" fill-rule="nonzero"/></g></g></svg>