<svg height="2500" viewBox="0 0 1600 1136" width="2500" xmlns="http://www.w3.org/2000/svg"><path d="m0 0h1600v1136h-1600z"/><path d="m942 375c.577.371 1.15.743 1.75 1.12-.433.371-.866.743-1.31 1.12-1.86 1.89-1.86 1.89-3.06 4.75-1.62 3.12-1.62 3.12-3.88 5.31-5.53 5.66-9.29 12.7-12.8 19.8-.787 1.19-1.58 2.38-2.38 3.56-2.18 3.41-3.61 6.83-5 10.6-3.53 9.54-8.18 18.9-14.6 26.8h-2l-.75 2.31c-1.45 3.11-2.32 3.95-5.25 5.69-3.17.726-6.3 1.26-9.51 1.73-4.47.754-6.53 1.89-9.49 5.27-2.75.75-2.75.75-5 1v2l2.06-.124c3.08-.178 6.17-.34 9.25-.501l3.25-.195 3.12-.156 2.87-.159c2.45.135 2.45.135 5.45 2.14-.254.557-.508 1.11-.77 1.69-3.81 8.46-6.81 17-9.52 25.9-1.61 5.26-1.61 5.26-2.71 7.46-4.91 2.39-10.2 3.11-15.5 4.12-3.51.887-6.29 2.18-9.47 3.88-1.99.7-3.99 1.38-6 2 1.79.027 3.58.046 5.38.063l3.02.035c2.59.082 2.59.082 4.6-1.1 1.54-.07 3.08-.085 4.62-.063l2.48.028 1.9.035c1.26 4.4 1.26 4.4.137 7l-1.45 2c-.554.772-1.11 1.54-1.68 2.34l-2.01 2.66c-.786 1.05-1.57 2.11-2.38 3.19-4.16 5.51-8.42 10.9-13 16-1.57 1.76-3.07 3.57-4.58 5.39-2.98 3.49-6.24 6.73-10 9.38h-2l-1 3c-2.01 1.74-4.01 3.34-6.12 4.94-1.27.973-2.54 1.95-3.8 2.92l-2.01 1.54c-2.11 1.64-4.18 3.31-6.25 4.99-.678.55-1.36 1.1-2.05 1.67a616.74 616.74 0 0 0 -3.95 3.23c-4.58 3.71-4.58 3.71-6.8 3.71-.26.578-.521 1.15-.789 1.75-1.3 2.41-2.77 4.22-4.59 6.25-.619.694-1.24 1.39-1.88 2.1-1.86 2.02-3.81 3.95-5.75 5.9l-1 2h-2l-.848 2.14c-1.16 2.87-2.37 5.7-3.59 8.54-1.61 3.76-2.8 7.25-3.62 11.2-1.4 5.03-4.36 8.34-7.81 12.1-.518.573-1.04 1.15-1.57 1.74-3 3.13-5.15 4.93-9.55 5.2v-2l-3-2c1.3-.835 1.3-.835 2.62-1.69 13-11.1 17-38.4 21.4-54.3.338-1.13.675-2.26 1.02-3.43.973-3.56 1.62-7.06 2.23-10.7 1.32-7.51 3.32-14.8 5.48-22.1 1.62-5.49 3.08-11 4.39-16.6 1.65-6.76 3.72-12.8 7.4-18.7 1.39-2.41 2.22-4.53 3.04-7.18 4.26-12.1 10.9-24 18.4-34.4.587-.85 1.17-1.7 1.78-2.57 4.25-6.15 8.76-11.9 13.6-17.6 1.06-1.23 2.11-2.46 3.16-3.7 5.65-6.66 5.65-6.66 8.42-9.14h2l.812-1.94c1.19-2.06 1.19-2.06 4.19-3.06.681-1.33 1.35-2.66 2-4 1.77-1.75 1.77-1.75 3.81-3.44 2.37-2 4.58-3.96 6.75-6.19 2.45-2.39 4.96-4.26 7.79-6.16 1.68-1.16 1.68-1.16 3.01-2.62 2.2-2.13 4.64-3.67 7.2-5.34 4.81-3.16 9.53-6.42 14.2-9.8 2.34-1.5 4.67-2.44 7.25-3.45l1.44-1.44c2.2-2.2 4.78-3.17 7.56-4.56 1.47-.963 2.93-1.94 4.38-2.94 4.06-2.76 8.2-4.98 12.6-7.06.69-.384 1.38-.768 2.09-1.16 1.91-.836 1.91-.836 4.16.039z" fill="#ffe4db"/><path d="m1099 425c2.9-.263 4.46-.402 6.84 1.36 10.9 12.8 11.8 25.6 11.2 41.6-.692 7.69-2.24 14.8-5 22l-1.13 3.09c-2.56 6.89-5.45 13.4-8.87 19.9-.765 1.5-1.53 2.99-2.29 4.49-3.96 7.71-7.85 15.3-13 22.2-2.62 3.6-4.88 7.43-7.18 11.2-.489.678-.977 1.36-1.48 2.05h-2l-.734 2.16c-1.44 3.23-3.24 5.51-5.52 8.21-.801.953-1.6 1.91-2.43 2.89-.767.904-1.53 1.81-2.32 2.74-.612.749-1.22 1.5-1.86 2.27-1.33 1.62-2.73 3.18-4.14 4.73h-2c-.231.587-.461 1.17-.699 1.78-1.63 2.79-3.44 3.99-6.11 5.79-.852.579-1.7 1.16-2.58 1.75-.86.556-1.72 1.11-2.61 1.68-.79.554-1.58 1.11-2.39 1.68-5.18 2.63-11 2.1-16.6 1.32-4.48-2.02-6.94-5.28-8.94-9.69-2.59-8.87-.83-18.1.938-27l.578-3.03c.465-2.43.939-4.86 1.42-7.28-1.49-.495-1.49-.495-3-1l-.766 1.68c-1.44 2.71-3.15 5.05-4.98 7.51-3.57 4.85-6.95 9.78-10.2 14.8-25.4 38.5-25.4 38.5-33 45-4.16.54-6.25.483-9.81-1.81-3.37-3.37-4.48-5.43-4.5-10.1.389-16.6 8.09-33.8 14.3-49.1.668-1.67 1.33-3.33 2-5l-2.38-.104c-3.62-.172-7.25-.377-10.9-.583l-3.74-.162c-11-.666-21.2-3.28-29.3-11.2-5.74-6.77-7.42-13.1-7.05-21.9.75-6.3 3.43-11.5 6.36-17.1h2l.75-2.23c1.37-3.03 2.88-4.77 5.25-7.08.701-.697 1.4-1.39 2.12-2.11 1.88-1.57 1.88-1.57 3.88-1.57l1-3c9.56-8.27 20.6-14.7 32-20 .655-.311 1.31-.621 1.98-.941 6.67-2.85 14.9-4.15 22-2.31 5.98 2.44 9.23 5.14 13.1 10.2 5.23 15.7-1.75 33.7-8 48-3.6 8.25-6.95 16.5-9.92 25-1.22 3.42-2.61 6.73-4.08 10-1.24 2.94-2.46 5.89-3.68 8.84-.836 2-1.68 4-2.54 6-2.56 5.99-4.89 12-7.09 18.2-.4 1.1-.4 1.1-.808 2.21-1.23 3.49-1.88 6.04-1.88 9.79 1.31-1.79 2.63-3.58 3.94-5.38.731-.998 1.46-2 2.21-3.02 1.83-2.43 1.83-2.43 2.85-4.6h2l2-6h2c.25-.712.5-1.42.758-2.16 1.37-3.14 3.07-5.6 5.12-8.34.678-.918 1.36-1.84 2.05-2.78 1.38-1.81 2.78-3.61 4.21-5.39 2.66-3.33 4.97-6.84 7.16-10.5l1.33-2.21c.405-.688.81-1.38 1.23-2.09.379-.508.758-1.02 1.15-1.54h2l.562-2c1.67-3.48 3.79-5.84 6.37-8.68 3.09-3.46 5.96-7.09 8.86-10.7 3.12-3.69 6.18-6.93 10.2-9.61 2.96.359 3.85.847 6 3 .741 6.92-1.22 11.7-4 18-2.7 6.51-4.39 13.1-6 20l-.82 3.45c-3.87 15.3-3.87 15.3-1.18 30.6 4.89.414 7.07.578 11.3-2.05 1.06-.918 2.1-1.86 3.13-2.82.555-.495 1.11-.989 1.68-1.5 4.3-3.9 8.24-8.1 12-12.5 1.85-2.13 1.85-2.13 4.41-4.57 18.2-19.1 32.6-48 39.5-73.2 1.01-3.68 2.13-7.32 3.3-11 1.86-7.23 1.83-14.5 1.86-21.9l.063-3.34c.038-8.02-.991-12.7-5.5-19.4-1.81-2.75-1.81-2.75-1.81-5.75zm131 51c1.81.75 1.81.75 2.81 1.75.638 5.87-.978 10.1-3.22 15.5-1.07 2.55-1.07 2.55.223 5.45l2.3-.427c18.1-3.34 35.8-6.59 54.3-7.07l2.78-.13c5.97-.059 9.48 1.08 14 4.99 2.07 2.11 3.44 4.15 4.67 6.83l1.22 2.54c.715 2.27.715 2.27-.285 5.27l-.188-1.88-.812-2.12-2.5-1-2.5-1a70.39 70.39 0 0 1 -1-4c-1.9-1.24-1.9-1.24-4-2l-2-1c-8.24-.656-16.4.497-24.6 1.6-2.05.276-4.1.541-6.15.803-6.13.8-12.2 1.7-18.2 3.15-2.32.503-4.62.827-6.97 1.13l-2.46.322c-1.66.212-3.32.41-4.98.594-4.02.551-6.08.848-9.08 3.7-1.49 2.54-2.89 5.05-4.15 7.71-1.27 2.64-2.52 5.13-4.06 7.62-1.51 2.6-2.49 5.28-3.51 8.11-.939 2.46-2.02 4.81-3.13 7.19-2.95 6.46-5.59 13-8.18 19.6l-.726 1.85c-5.35 13.7-10.1 27.4-14 41.5-.772 2.68-1.66 5.25-2.63 7.86-1.56 4.48-1.47 8.47-1.25 13.2 3.31-.287 4.68-.657 6.99-3.12l1.88-2.76c1.02-1.48 1.02-1.48 2.07-2.99 2.57-3.9 5.08-7.84 7.52-11.8 1.38-2.07 2.77-3.59 4.54-5.31.908-1.25 1.78-2.52 2.62-3.81.77-1.17.77-1.17 1.55-2.36 1.4-2.17 2.77-4.34 4.14-6.53.401-.637.803-1.27 1.22-1.93.804-1.28 1.6-2.56 2.39-3.84.971-1.54 2.02-3.04 3.07-4.52h2l.688-2.5c1.05-2.81 1.93-4.53 3.56-6.94 3.24-4.96 5.2-10.4 7.33-15.9 1.94-4.97 4.03-9.87 6.42-14.6h2l.625-2.44c.681-1.27.681-1.27 1.38-2.56 3.06-.875 3.06-.875 6-1 1 1 1 1 1.38 3.81-.076 4.68-2 8.49-3.86 12.7-1.72 3.95-3.29 7.94-4.82 12-.266.682-.533 1.36-.807 2.07-1.29 3.4-1.88 5.74-1.88 9.43 3.88.44 3.88.44 5.71-1.5.549-.679 1.1-1.36 1.66-2.06.907-1.1.907-1.1 1.83-2.23.592-.728 1.18-1.46 1.79-2.21 1.02-1.13 2.04-2.25 3.06-3.38 4.68-5.52 8.01-11.9 11.4-18.2l1.33-2.47c.881-1.64 1.75-3.29 2.61-4.94.408-.758.815-1.52 1.24-2.3l1.09-2.08c1.6-2.01 2.78-2.24 5.28-2.61 2 3 2 3 2 6 3.12.98 4.47 1.27 7.44-.25.846-.577 1.69-1.15 2.56-1.75 5-3 8.29-3.56 14-3 2 1.06 2 1.06 3 3 1.14 6.84-2.01 12-5 18-3.15 6.42-5.59 11.8-6 19 9.61-8.06 17.5-17.4 22.9-28.9 3.38-4.97 8.61-7.96 14.3-9.85 2.47-.375 3.74.453 5.83 1.72-.299 3.59-.77 4.78-3.44 7.31-2.56 1.69-2.56 1.69-4.56 1.69l-.848 2.2c-1.08 2.62-2.29 5.1-3.59 7.61-4.63 9.12-4.63 9.12-5.56 19.2 3.61-1.44 5.04-3.15 7.06-6.44 1.78-2.87 3.52-5.21 5.94-7.56l1-2h2c1.69-3.74 2.26-6.93 2.62-11 .843-5.38.843-5.38 3.04-7.93 3.44-2.35 6.17-3.43 10.3-2.89l3 .812c2.21 7.32-.945 13.3-4 20l-1 1c-.04 1.67-.043 3.33 0 5 3.3-1.61 6.49-3.29 9.62-5.19 3.38-1.81 3.38-1.81 7.38-1.81-1.51 3.83-3.77 5.54-7 8l-2 2c-3.06 3.06-6.43 5.61-10 8.06-4.32 3.61-5.97 8.83-8 13.9l-.918 2.3-.895 2.26c-14.2 35.8-14.2 35.8-28.2 48.4-4.91 1.64-9.88 1.5-15 1-3.19-1.69-3.19-1.69-5-4-1.91-6.53.365-12.7 3.29-18.6 4.62-7.95 9.92-15.2 17.1-21 3.34-2.73 6.17-5.75 8.82-9.14.598-.722 1.2-1.44 1.81-2.19h2l-1-2-2 1c-8.26-1.83-8.26-1.83-11-5-.632-2.7-.817-5.21-1-8-3.08 1.03-4.27 2.18-6.48 4.46-8.08 8.23-8.08 8.23-12.6 9.23-3.75-.897-5.98-2.13-8.88-4.69-2.49-6.15.618-12.7 3.02-18.5.97-2.19 1.97-4.36 2.98-6.53 1.34-3.08 2-4.64 2-8h-4l-.812 1.94c-1.19 2.06-1.19 2.06-4.19 3.06-.7 1.65-1.36 3.32-2 5-1.25 1.8-2.54 3.57-3.88 5.31-2.86 3.83-5.17 7.52-7.21 11.8-1.67 3.38-3.42 6.01-5.92 8.86-3.12.75-3.12.75-6 0-1.69-2.44-1.69-2.44-3-5-1.48-.495-1.48-.495-3-1l-.812 1.88c-1.19 2.12-1.19 2.12-4.19 4.12-1.94.266-1.94.266-4 .25l-2.06.016c-1.94-.266-1.94-.266-4.94-2.27-2.51-.157-2.51-.157-5 1a48.372 48.372 0 0 0 -4.19 6.12c-.784 1.28-1.57 2.57-2.36 3.85-.403.665-.805 1.33-1.22 2.02-1.99 3.23-4.11 6.36-6.24 9.51-2.53 3.76-5.03 7.53-7.46 11.3l-1.2 1.89c-1.08 1.71-2.16 3.43-3.24 5.14-2.21 3.28-4.45 6.2-7.11 9.12h-2c-.227.578-.454 1.15-.688 1.75-1.79 3.07-3.21 4.44-6.31 6.25-3.45.618-6.59.858-10 0-3.48-2.61-4.83-4.08-5.63-8.39.214-12.5 2.39-23.9 6.88-35.6 1.53-4.18 2.66-8.48 3.85-12.8 1.31-4.6 2.96-8.88 4.89-13.3 1.01-2.63 1.97-5.29 2.94-7.94 1.62-4.41 3.25-8.67 5.5-12.8 1.65-3.44 1.68-3.88.562-7.25h-2l-.801 1.75c-1.26 2.36-2.67 4.21-4.39 6.25-.924 1.11-.924 1.11-1.87 2.24-.642.764-1.28 1.53-1.95 2.31-1.27 1.52-2.54 3.04-3.81 4.57-.563.67-1.13 1.34-1.71 2.03-1.64 1.98-1.64 1.98-3.48 4.84h-2l-.688 2.19c-1.58 3.39-3.51 5.35-6.31 7.81-1.48.495-1.48.495-3 1-.268.577-.536 1.15-.812 1.75-1.71 3.25-4.05 5.42-7.19 7.25-3.47.619-5.67.81-8.74-1.06-2.2-1.77-3.99-3.39-5.26-5.94-.683-6.95.39-12.6 3-19l1.17-2.91c.843-2.05 1.7-4.1 2.57-6.14.791-1.86 1.56-3.72 2.29-5.6 1.45-3.6 2.48-5.91 5.4-8.53 2.56-.812 2.56-.812 5.25-.312 2.93 1.9 3.43 3.15 4.31 6.5-.793 2.61-.793 2.61-2.19 5.31a1828.155 1828.155 0 0 1 -2.82 5.69c-.802 1.95-1.53 3.91-2.24 5.89-.594 1.65-1.22 3.28-1.87 4.91-.567 1.46-.567 1.46-1.14 2.95l-1.08 2.73c-.711 2.66-.603 3.96.328 6.52l2.88-2.5c2.88-2.5 2.88-2.5 5.12-2.5.268-.763.536-1.53.812-2.31 1.18-2.67 2.12-3.72 4.19-5.69 4.86-5.24 9.24-10.8 13.5-16.5 2.02-2.67 4.05-5.16 6.46-7.48 1.15-1.3 2.3-2.62 3.44-3.94 1.82-2.1 3.62-4.12 5.62-6.06 3.68-3.8 7.25-7.95 8.94-13-3 .142-6 .289-9 .438l-2.54.119c-2.49.125-4.97.278-7.46.443l-2.31.124c-4.15.317-4.15.317-7.5 2.58l-1.07 2.11-1.12 2.08-1.01 2.11c-.374.746-.748 1.49-1.13 2.26l-.867 1.74c-1.46.054-2.92.092-4.38.125l-2.46.07c-2.16-.195-2.16-.195-4.16-2.2.023-2.38.023-2.38.375-5.12l.336-2.76.289-2.12-2.12-.262c-6.69-.99-11.5-2.67-16.9-6.74l1-3c2.94-.173 4.96-.014 7.75.989 3.53 1.1 6.41 1.28 10.1 1.31.977.01.977.01 1.97.018 7.34.046 14.7-.087 22-.27 2.07-.047 4.15-.073 6.22-.094 13.2.338 13.2.338 24.8-4.55 2.89-3.77 4.38-7.82 5.57-12.4 1.12-4.07 2.53-7.96 5.49-11 2.06-1 2.06-1 4.25-.75z" fill="#fee3da"/><path d="m313 470 3.38.016c1.16.02 2.33.04 3.52.062l3.55.016c8.67.08 8.67.08 9.83 1.23.123 1.63.178 3.26.205 4.89l.06 3.15.051 3.43.063 3.49c.066 3.7.124 7.4.183 11.1l.131 7.5c.107 6.15.209 12.3.307 18.4 5.61.33 11.2.66 17 1l-.032-4.74c-.036-5.79-.059-11.6-.078-17.4-.01-2.51-.024-5.02-.04-7.53-.025-3.6-.036-7.2-.045-10.8-.01-1.13-.02-2.25-.032-3.42v-3.15l-.013-2.79c.24-2.21.24-2.21 2.24-4.21 2.41-.243 2.41-.243 5.41-.23l3.25.006 3.4.037 3.42.002c8.38.045 8.38.045 9.52 1.19.096 1.68.122 3.37.12 5.06l.004 3.32-.011 3.67v3.84c0 3.49-.005 6.97-.012 10.5-.007 3.64-.007 7.28-.008 10.9-.003 6.9-.012 13.8-.022 20.7-.01 7.85-.016 15.7-.021 23.6-.01 16.2-.028 32.3-.05 48.5-4.12.029-8.25.046-12.4.062l-3.56.026-3.4.01-3.14.015c-2.52-.114-2.52-.114-4.52-1.11v-52h-16c-1.65 1.65-1.17 3.61-1.21 5.89l-.061 3.15-.05 3.43-.064 3.49c-.065 3.7-.124 7.4-.183 11.1l-.13 7.5c-.108 6.15-.21 12.3-.308 18.4-4.46.03-8.92.047-13.4.063l-3.85.025-3.67.01-3.4.016c-2.71-.114-2.71-.114-4.71-1.11-.07-16.5-.123-33-.155-49.5-.015-7.66-.036-15.3-.07-23-.03-6.68-.05-13.4-.056-20-.004-3.54-.014-7.07-.035-10.6-.024-3.95-.025-7.89-.024-11.8l-.032-3.57.012-3.25-.008-2.83c.848-5.4 4.23-5.73 9.1-5.68zm206 4c4.24 5.41 5.12 9.75 5.13 16.5l.004 3.08-.012 3.18.012 3.23-.004 3.07-.003 2.81c-.13 2.15-.13 2.15-1.13 3.15-3.37.253-6.75.185-10.1.188l-2.84.037c-5.42.011-9.91-.43-15-2.22l-1-13c-2.93.096-5.23.183-8 1-2.76 3.35-3.24 6.22-3.06 10.4 1.69 10.4 13.1 16.7 20.8 22.7 4.7 3.67 8.59 7.16 12.2 11.9l2.62 2.62 2.38 2.38c.536.53 1.07 1.06 1.63 1.61 2.04 3.56 1.78 7.08 1.74 11.1l.001 2.56c-.002 1.78-.012 3.57-.029 5.35-.023 2.71-.02 5.42-.013 8.14-.006 1.74-.013 3.47-.022 5.21l.003 2.44c-.078 6.27-.538 11.7-4.87 16.5-.804.701-1.61 1.4-2.44 2.12l-1 1c-1.56.11-3.13.15-4.7.161l-3.04.03-3.31.012-3.38.017c-2.37.01-4.74.016-7.11.02-3.62.01-7.24.04-10.9.072-2.3.007-4.6.012-6.9.016l-3.28.037c-5.53-.016-9.72-.11-14.4-3.37-4.84-6.28-5.18-11-5.19-18.6l-.037-2.65-.006-2.54-.013-2.32c.243-1.92.243-1.92 2.24-3.92 3.59-.629 7.24-.699 10.9-.875l3.05-.219c7.41-.374 7.41-.374 10.7 1.92 1.53 2.36 2.97 4.76 4.41 7.18 2.96 1.48 5.74 1.06 9 1 2.17-4.33 1.76-10.5.387-15-2.63-5.09-7.03-8.4-11.4-12-1.1-.936-2.21-1.88-3.3-2.82-6.15-5.35-6.15-5.35-12.7-10.2v-2c-1.18-.37-1.18-.37-2.38-.75-3.03-1.44-3.3-2.31-4.62-5.25l-3-1c-3.55-3.96-4.13-7.52-4.13-12.7l-.006-2.75.014-2.91.015-2.98c.023-2.88.062-5.76.11-8.64l.038-2.27c.337-14.2.337-14.2 4.96-19.7 12-11 47.9-11.4 61-2zm104-4 2.51.161c5.78.548 8.58 2.01 12.7 6.15 4.2 6 3.12 15 3.06 21.9l-.014 2.94c-.011 2.37-.028 4.75-.048 7.12-3.97.025-7.94.043-11.9.055-1.35.005-2.7.012-4.05.02-1.94.012-3.88.018-5.82.023l-3.54.015c-2.68-.114-2.68-.114-3.68-1.11a182.7 182.7 0 0 1 -1.06-6.56l-.535-3.63c-.2-1.39-.2-1.39-.402-2.81l-9 1a362.92 362.92 0 0 0 -.25 7.12l-.102 2.02c-.101 5.14 1.12 7.92 4.35 11.9 2.46 1.64 2.46 1.64 5 3 1.34 1.33 2.67 2.66 4 4 1.76 1.46 3.53 2.89 5.31 4.31 3.95 3.2 7.62 6.47 11.1 10.1 1.52 1.52 3.11 2.8 4.81 4.11 4.11 3.65 5.6 6.82 6.11 12.3.006 1.45-.005 2.89-.029 4.34l-.005 2.35c-.007 1.63-.021 3.26-.042 4.89-.03 2.48-.04 4.95-.047 7.43l-.03 4.77-.014 2.22c-.109 7.97-.505 13.3-6.19 19.1-9.41 4.7-25.8 2.17-36.2 2.29-1.38.018-2.75.042-4.12.074-13.7.295-13.7.295-19.6-4.36-4.77-5.09-4.18-11-4.19-17.6l-.037-2.64-.006-2.52-.012-2.3c.243-1.91.243-1.91 2.24-3.91 3.96-.483 7.95-.37 11.9-.375l3.37-.075 3.22-.011 2.96-.025c2.51.486 2.51.486 4.29 2.2 1.22 2.28 1.22 2.28 2.22 7.28h11a832.73 832.73 0 0 0 -.375-6.69l-.211-3.76c-.57-4.89-1.51-8.25-5.41-11.4-.623-.505-1.25-1.01-1.89-1.53-.697-.547-1.39-1.09-2.11-1.66-6.07-4.8-12-9.68-17.7-14.9-2.28-2.1-2.28-2.1-4.74-3.84-4.67-4.04-8.8-8.33-9.31-14.7-.02-1.61-.005-3.22.037-4.84l.004-2.61c.01-1.81.033-3.62.07-5.43.055-2.76.062-5.52.061-8.28.015-1.77.032-3.53.053-5.3l.01-2.48c.142-5.74 1.08-10.3 5.4-14.4 13.7-9.07 31.2-6.75 46.9-5.48zm-227 0h3.15l3.4.048 3.48.012c3.68.017 7.36.055 11 .093 2.49.015 4.98.029 7.47.041 6.11.033 12.2.083 18.3.146 1.71 3.2 2.21 5.12 1.98 8.77l-.156 2.7-.195 2.79-.172 2.84c-.141 2.31-.293 4.61-.453 6.91-3.06.9-5.76 1.11-8.95 1.06l-2.82-.023-2.92-.04c-1.92-.025-3.84-.046-5.76-.062l-2.57-.035c-1.98-.124-1.98-.124-2.98 1.1-.088 2-.107 4-.098 6l.01 3.68.025 3.88.014 3.89c.012 3.18.028 6.37.049 9.55.676.014 1.35.03 2.05.044 3.07.075 6.13.171 9.2.268l3.22.068 3.11.107 2.86.08c2.94.495 4.36 1.48 6.57 3.43-7.62 17.6-7.62 17.6-11 21-2.56.119-5.01.14-7.56.062-2.48-.062-4.95-.083-7.44-.062-1.83 1.83-1.24 4.76-1.32 7.22l-.127 3.82-.119 4.02-.131 4.03c-.106 3.3-.209 6.6-.307 9.9l2.37.076c3.52.116 7.04.238 10.6.362l3.73.119 3.54.127 3.28.11c2.5.206 2.5.206 3.5 1.21.157 1.56.251 3.13.316 4.69l.127 2.86.119 3.01.131 3.02c.106 2.47.208 4.94.307 7.42-3 1-4.98 1.12-8.11 1.11h-3.15l-3.4-.015-3.48-.004c-3.68-.006-7.36-.019-11-.031l-7.47-.014c-6.11-.011-12.2-.028-18.3-.049-1.61-3.56-2.25-6.35-2.26-10.3l-.022-3.14.008-3.42-.016-3.62c-.011-3.27-.014-6.54-.01-9.81 0-2.73-.005-5.46-.01-8.19-.01-6.44-.011-12.9-.005-19.3.006-6.65-.006-13.3-.028-19.9-.017-5.71-.023-11.4-.02-17.1.002-3.41 0-6.82-.015-10.2-.012-3.8-.005-7.59.006-11.4l-.023-3.43.021-3.13v-2.72c.827-5.03 3.89-5.65 8.49-5.62zm422-86 3.57-.028c10.1.036 19.6 1.2 29.2 4.22l3.15.965c2.9 1.09 5.28 2.47 7.91 4.1 1.42.603 2.86 1.17 4.31 1.69 1.22.433 2.43.866 3.69 1.31v2h2c2 3 2 3 2 6l-2.81-.871c-4.99-1.43-10.1-2.29-15.2-3.19l-2.91-.525c-2.7-.483-5.39-.95-8.09-1.41l-3.45-.613c-5.15-.56-10.3-.531-15.4-.512l-3.2-.012-3.04.004-2.77.003c-2.1-.106-2.1-.106-3.11 1.13-1.74.296-3.48.587-5.22.85-7.4 1.13-14.4 2.77-21.5 5.15l-2.27.755c-3.98 1.38-7.43 2.94-11 5.25-.972.581-1.94 1.16-2.95 1.76-12.4 7.48-24.3 15.3-33.5 26.6-1.58 1.64-1.58 1.64-4.58 2.64-1.05 1.8-1.05 1.8-2 4-1.05 1.68-2.11 3.34-3.19 5-7.23 11.1-7.23 11.1-12.8 23-.454 1.2-.908 2.39-1.38 3.62l-.773 2.1c-.59 1.58-1.2 3.15-1.83 4.71-2.63 6.74-4.12 13.4-5.41 20.5-.613 3.09-.613 3.09-1.61 5.09-.247 4.35-.185 8.71-.188 13.1l-.037 3.65c-.011 6.74.423 12.8 2.22 19.3.314 1.32.624 2.64.93 3.96 3.51 15.1 3.51 15.1 10.1 29l1.25 2.62c4.79 9.23 10.7 16.8 17.8 24.4 1.84 2.09 3.67 4.2 5.49 6.31 1.49 1.72 1.49 1.72 3.2 3.29 1.3 1.4 1.3 1.4 1.3 3.4-6.23-.319-10.2-3.42-15-7l-2.55-1.86c-5.1-3.88-9.14-7.85-12.9-13.1-1.53-2.13-1.53-2.13-3.48-3.95-2.53-2.58-4.55-5.41-6.59-8.38-.753-1.08-1.51-2.16-2.28-3.27-4.11-6.24-6.89-12.9-9.28-19.9l-.78-2.27c-.502-1.46-1-2.92-1.5-4.39-.523-1.51-1.08-3.02-1.64-4.51-7.01-18.9-6.53-45.5-.02-64.4.315-1.41.61-2.83.875-4.25 1.12-5.19 3.05-9.88 5.12-14.8l1.38-3.39c4.38-10.6 9.45-19.5 16.7-28.3 1.58-1.95 2.99-3.91 4.37-6 2.88-4.12 6.64-7.15 10.5-10.3 3.78-3.02 3.78-3.02 7.25-6.37 2.56-2.39 5.49-4.15 8.44-6.01.63-.398 1.26-.797 1.91-1.21 1.24-.788 2.49-1.57 3.74-2.36 1.37-.87 2.73-1.76 4.09-2.65 4.36-2.85 8.66-4.72 13.6-6.41 1.2-.474 2.39-.949 3.62-1.44 15.5-5.74 30.1-7.72 46.5-7.81zm-578 86 3.32.004 3.75-.009 4.07.022 4.15.001c2.9.002 5.81.01 8.71.023 3.73.017 7.46.021 11.2.02 2.86 0 5.72.006 8.58.014 1.38.003 2.75.005 4.13.005 1.92.003 3.84.012 5.75.022l3.31.012c2.46.134 2.46.134 3.46 1.13.087 1.71.107 3.42.098 5.13l-.01 3.13-.025 3.3-.014 3.31c-.012 2.71-.028 5.42-.049 8.13-1.14.06-2.29.12-3.46.184l-4.47.254-2.29.119c-3.69-.116-3.69-.116-6.78 1.44-.12 2.83-.175 5.63-.189 8.46l-.025 2.69c-.017 1.94-.033 3.87-.046 5.81a3680.4 3680.4 0 0 1 -.077 9.22c-.06 6.54-.112 13.1-.163 19.6-.059 7.55-.122 15.1-.192 22.6-.026 3.01-.047 6.03-.068 9.04-.076 9.22-.216 18.3-1.24 27.5-4.48.027-8.96.046-13.4.062l-3.88.026-3.68.01-3.41.015c-2.59-.114-2.59-.114-3.59-1.11a56.14 56.14 0 0 1 -.114-4.02v-2.63l.016-2.9.005-3.04c.004-2.19.01-4.37.018-6.56.013-3.45.02-6.91.024-10.4.013-8.58.038-17.2.061-25.7.02-7.24.036-14.5.046-21.7.006-3.41.019-6.83.032-10.2l.01-6.24.015-2.9v-2.63l.007-2.29c.068-1.76.068-1.76-1.12-2.73a211.9 211.9 0 0 0 -7.44-.5c-7.29-.366-7.29-.366-9.56-1.5-.058-3.62-.093-7.25-.125-10.9l-.05-3.13-.02-2.99c-.01-.91-.02-1.82-.032-2.76.346-3.42 1.46-4.17 4.81-4.49zm302 0 3.24.03c1.11.024 2.22.05 3.37.076l3.41.04c2.78.036 5.56.085 8.34.146 1.27 2.54 1.12 4.29 1.12 7.14l.004 3.3-.01 3.63v3.81c0 3.46-.006 6.91-.013 10.4-.006 3.61-.007 7.22-.008 10.8-.003 6.84-.011 13.7-.021 20.5-.011 7.78-.017 15.6-.022 23.4-.01 16-.028 32-.05 48-3.97.025-7.94.043-11.9.055-1.35.005-2.7.012-4.05.02-1.94.013-3.88.018-5.82.023l-3.54.016c-2.68-.114-2.68-.114-3.68-1.11-.105-1.64-.14-3.28-.147-4.92l-.022-3.23-.008-3.57-.02-3.74c-.016-3.39-.028-6.79-.036-10.2l-.018-6.36c-.019-6.63-.033-13.3-.041-19.9-.01-7.66-.036-15.3-.077-23-.03-5.91-.045-11.8-.048-17.7-.002-3.53-.011-7.07-.037-10.6-.027-3.94-.023-7.88-.016-11.8l-.039-3.56.021-3.25-.007-2.83c.495-2.35.495-2.35 2.36-4.15 2.75-1.54 4.64-1.54 7.78-1.49z" fill="#ffe4db"/><path d="m997 464c3.94 7.88-.477 18.3-3 26l-1.17 3.55c-2.39 6.95-5.19 13.6-8.35 20.2-2 4.38-3.66 8.85-5.3 13.4-1.16 2.84-2.56 5.28-4.18 7.88-.676 1.33-1.34 2.66-2 4-4.29-.052-8.58-.148-12.9-.25l-3.65-.043c-9.43-.256-17.7-2.07-25.5-7.71-4.16-4.61-4.31-9.37-4.2-15.4.992-12.9 10.4-22.7 19.8-30.8.57-.477 1.14-.954 1.73-1.45 1.68-1.42 1.68-1.42 3.23-3.05 1.65-1.62 3.36-2.35 5.41-3.38l1.17-1.31c2.69-2.48 5.86-4.01 9.08-5.69l1.95-1.04c19.9-10.5 19.9-10.5 27.8-4.96z"/><g fill="#ffe4db"><path d="m979 676c5.98.119 5.98.119 7.09 1.23.1 1.93.128 3.86.129 5.79l.01 3.75-.007 4.08.003 4.16c.002 2.91 0 5.82-.005 8.73-.006 3.74-.002 7.47.004 11.2.003 2.86.002 5.73 0 8.59-.001 1.38 0 2.76.002 4.13.002 1.92-.002 3.85-.007 5.77l-.002 3.32c-.127 2.47-.127 2.47-1.13 3.47-3.05-.182-6.08-.521-9.12-.844-2.95-.337-2.95-.337-5.88.844-2.78.149-5.53.231-8.31.25l-2.26.063c-5.87.04-9.94-1.09-14.4-5.11-5.11-5.96-8.59-11.1-8.2-19.2.896-8.21 4.82-13.7 10.6-19.3 5.61-3.6 10.9-5.38 17.6-4.69 3.38.864 6.69 1.88 10 3l-.07-3.65c-.02-1.58-.038-3.15-.055-4.73l-.051-2.41c-.018-2.07.072-4.15.176-6.22 2-2 2-2 3.91-2.23zm72 19c2.62 2.25 2.62 2.25 5 5l1.35 1.53c8.12 10.1 6.1 24.4 4.87 36.5l-.219 1.98-2.52-.254-3.29-.309-3.27-.316c-2.98-.297-2.98-.297-5.92.879-2.6.149-5.15.231-7.75.25l-2.09.063c-5.97.044-10.4-1.27-15.3-4.86-5.31-5.32-7.55-9.9-8.27-17.4.383-8.14 3.44-14.5 9.38-20.1 8.74-6.6 18.1-8.65 28-3zm-233-1c6.07 3.05 10.8 7.24 13.5 13.6 1.46 4.5 2.56 8.78 1.97 13.5-2 2-2 2-5.26 2.14-1.39-.042-2.77-.096-4.16-.159l-2.21-.076c-2.33-.082-4.67-.179-7-.276-1.58-.058-3.16-.116-4.74-.172-3.88-.14-7.76-.293-11.6-.453v5l3 1c.445.507.889 1.01 1.35 1.54 2.92 2.59 6.34 1.92 10.1 1.84 3.35-.48 4.45-1.84 6.59-4.37 3.25-.25 3.25-.25 6 0 1.84 2.65 2.04 3.76 1.5 7-1.93 3.86-3.71 4.95-7.5 7-2.79.575-5.47.62-8.31.562l-2.28-.024c-6.18-.222-10.5-1.7-15.4-5.54-.928-.598-1.86-1.2-2.81-1.81-4.32-4.32-6.41-8.94-6.69-15.1.314-7.28 3.08-15.1 8.5-20.1 7.96-5.69 16-8.45 25.5-5.11zm-206 1c6.6 3.85 11.6 9.01 13.8 16.4.264 3.36.334 6.65 0 10-1.95 1.95-5.65 1.25-8.32 1.32l-2.22.063c-2.34.066-4.69.124-7.03.183l-4.76.131c-3.89.107-7.79.209-11.7.307.706 3.26 1.41 4.82 4 7 3.52 1.76 7.15 1.54 11 1 3.5-1.39 6.75-3.1 10-5l3 2c-.085 4.23-.666 7.29-3.5 10.4-5.47 4.22-13 3.51-19.5 2.86-7.21-1.1-12.1-5.75-16.6-11.3-3.7-5.43-3.79-10.9-3.04-17.2 1.65-6.89 6.04-12.1 12-15.8l1.7-.996c.908-.598 1.82-1.2 2.75-1.81 6.05-2.21 12.6-2.3 18.5.375zm281-3c1.08.371 1.08.371 2.19.75 5.18 1.06 8.07.745 13-1 5.58-.723 8.71.488 13.2 3.57 4.01 3.19 6.17 6.63 7.79 11.4.335 2.95.335 2.95.449 6.18l.131 3.56.107 3.69.143 3.68c.183 5.48.213 10.5-.83 15.9-6.05.195-6.05.195-8 0-2.73-2.73-2.25-4.26-2.27-8.07l-.063-3.71c-.025-2.58-.044-5.16-.054-7.74-.132-6.99-.344-11.8-4.61-17.5-5.87-.373-5.87-.373-11 2-4.28 5.5-5.06 9.93-5.32 16.7l-.127 3.23-.12 3.34-.13 3.4c-.106 2.76-.208 5.52-.307 8.29-5.71 1.07-5.71 1.07-8.31.438-2.57-2.19-2.31-4.09-2.69-7.44-.14-3.65-.143-7.29-.125-10.9l.014-3.08c.024-2.99.063-5.99.11-8.98l.038-2.49c.045-2.09.12-4.18.212-6.26l.141-3.48c.61-2.77.61-2.77 2.54-4.67 2.07-1.09 2.07-1.09 3.88-.844zm-119 3c3 2.25 3 2.25 5 5-.207 6.21-.207 6.21-2 8-2.75.312-2.75.312-6 0-.763-.639-1.53-1.28-2.31-1.94-3.72-2.86-7.04-3.39-11.7-3.06-4.12 1.83-5.63 3.35-7.88 7.25-1.58 5.25-2.13 9.43.125 14.6 2.53 3.07 4.62 3.98 8.55 4.5 6.92.326 6.92.326 12.8-2.87l2.44-2.5h3c2.54 3.81 2.59 6.54 2 11-2.03 3.39-5.33 3.97-9 5-7.6.876-16.8 1.5-23.5-2.73-4.69-3.95-8.91-9.06-9.79-15.3-.331-8.2 1.87-16.7 7.29-23 9.26-7.26 20.2-10.3 31-4zm-217-3 3.13.02c2.74.168 2.74.168 5.74 1.17 3.67 4.4 4.45 7.32 4 13-.617-.218-1.23-.434-1.87-.657-5.97-1.96-10.9-2.65-17.1-2.34l-1 4c6.06 3.61 6.06 3.61 12.7 5.94 4.36 1.4 7.15 2.93 9.31 7.06.924 5.61 1.38 10.9-1.77 15.8-4.3 4.33-9.2 5.95-15.2 6.8-6.41-.36-12.2-3.78-16.8-8.06-1.31-2.5-1.31-2.5-1.25-5.12.973-2.46 1.91-3.7 3.94-5.38 3.26 1.09 5.7 2.47 8.38 4.56 3.55 2.65 6.24 3.17 10.6 3.44v-2h2c-.54-3.48-.54-3.48-2-7-2.59-1.34-2.59-1.34-6-2-6.67-2.18-11.7-4.28-16-10-.612-3.87-.425-6.06 1.19-9.62 5.17-6.77 9.34-9.68 17.9-9.56zm555-164 6 3c1.92.159 1.92.159 4 .125l2.12.008c1.97-.02 1.97-.02 3.88-1.13 2.06.086 2.06.086 4.44.375l2.37.273c2.19.352 2.19.352 5.19 1.35 2.55 3.83 2.44 5.43 2 10-3.15 10.2-3.15 10.2-7 13-2.48.293-2.48.293-5.19.188l-2.73-.082-2.08-.105c-.495-1.49-.495-1.49-1-3 1.9-2.65 4.05-5 6.21-7.43 1.98-2.85 2.18-4.18 1.79-7.57-5.86.533-9.99 3.67-13.7 7.99-4.2 5.69-7.28 11.8-10.4 18.2-5.63 11.6-5.63 11.6-9.93 15.8-4.03.263-5.56.294-9-2 .539-5.39 2.49-9.31 5-14 2.39-4.59 4.51-9.02 6-14h2l.285-2.05c.885-3.65 2.45-6.81 4.15-10.1.313-.628.625-1.26.947-1.9 1.34-2.65 2.5-4.8 4.62-6.91zm-445 164c1.93.094 1.93.094 4.31.5l2.36.344c5.66 2.82 7.75 11.4 9.95 17 1.98 5.52 1.98 5.52 5.38 10.2h3c.231-.606.461-1.21.699-1.84 2.12-5.45 4.45-10.7 7.16-15.9 1.28-2.44 1.28-2.44 2.52-5.83 1.62-2.44 1.62-2.44 5.31-3.31l3.31-.125c1.97 3.94 1.18 7.43-.125 11.5-.612 1.51-1.24 3-1.88 4.5-.437 1.06-.874 2.11-1.32 3.2-3.26 7.76-6.83 15.3-10.7 22.8-.514 1.08-1.03 2.16-1.56 3.28-1.44 2.72-1.44 2.72-3.32 3.79-3.21-.094-4.62-1.06-7.12-3.06-3.62-5.2-5.57-11-7.78-16.9-1.83-4.72-4.12-9.13-6.54-13.6-2.81-5.31-4.46-9.53-4.68-15.6l1-1zm109-258 2.05.082c4.95.294 8.54 1.51 13 3.67.733.327 1.47.655 2.22.992 10.4 4.97 16.3 12.6 20.7 23.3 1.11 3.93 1.31 6.72 1.06 10.8-2.26-.172-2.26-.172-5-1-1.99-2.33-1.99-2.33-3.88-5.25-5.47-7.9-11.3-11.3-20.1-14.8-.664-.278-1.33-.557-2.01-.844-11.6-4.42-24.7-4.5-37-4.16l-1-3c8.47-8.02 18.5-10.5 29.9-9.75z"/><path d="m641 692 3.44.688c6.18.5 6.18.5 12-1 2.33-.04 4.67-.043 7 0v2l3 1v2h-2l-1 5-2.05.48c-5.52 1.44-8.9 2.4-12 7.52-.517.757-1.03 1.51-1.57 2.29-1.64 3.11-1.84 5.13-1.91 8.63-.03 1.11-.062 2.21-.094 3.36l-.054 3.47c-.051 2.29-.105 4.57-.164 6.86l-.054 3.06c-.158 2.33-.158 2.33-1.16 3.33-4.03.263-5.56.294-9-2-.38-1.89-.38-1.89-.388-4.22l-.028-2.64.018-2.86-.009-2.93c-.002-2.05.004-4.09.016-6.14.016-3.14 0-6.27-.019-9.41.002-1.99.006-3.97.012-5.96l-.018-2.85.028-2.65.008-2.33c.685-3.63 2.28-5.15 5.94-4.71zm226-17c6.75.75 6.75.75 9 3 .247 2.5.247 2.5.243 5.7l.01 3.62-.022 3.93c-.002 1.34-.002 2.68-.002 4.01-.001 2.8-.01 5.61-.023 8.41-.017 3.6-.021 7.2-.02 10.8 0 2.76-.006 5.52-.013 8.29-.005 1.97-.007 3.95-.008 5.92l-.02 3.62-.011 3.2c-.134 2.5-.134 2.5-1.13 4.5h-8c-1.92-3.25-2.25-5.66-2.26-9.41l-.02-3.28.013-3.53-.006-3.64c-.001-2.54.002-5.08.01-7.62.011-3.88 0-7.76-.012-11.6.001-2.47.004-4.94.008-7.41l-.012-3.51c.03-5.36.066-9.97 2.28-15zm-94-210c1.22.474 2.43.949 3.69 1.44 2.95 1.39 4.28 2.16 6.31 4.56.784.722 1.57 1.44 2.38 2.19 6.57 7.04 8.56 13.3 9.62 22.8-4.25-.809-6.15-2.75-9-6v-2c-.557-.248-1.11-.495-1.69-.75-2.31-1.25-2.31-1.25-4.56-3.12-9.66-7.46-20.4-9.56-32.3-9.81l-3.35-.104c-2.7-.082-5.39-.151-8.09-.209l-1-2c2.85-4.89 6.42-6.56 11.6-8.28 8.58-1.82 18.2-1.94 26.4 1.28z"/></g><path d="m966 702c4.2 2.48 6.83 5.65 9 10 .918 5.14.752 9.54-2.12 14-2.61 3.1-4.8 4.36-8.88 5-5.69.068-9.56-1.28-14-5-2.83-3.39-3.6-6.43-3.41-10.9 1.03-5.26 3.93-9.07 8.23-12.1 4.16-1.31 6.82-1.48 11.2-1zm79 1c4.19 3.29 5.96 7.09 6.75 12.2.341 5.13-.901 9.02-4 13.1-3.53 2.36-5.19 2.3-9.38 2.31l-3.4.05c-3.56-.4-5.39-1.2-8.23-3.36-2.66-4.52-3.49-8.01-2.57-13.1 1.34-4.5 3.83-7.27 7.32-10.3 4.66-2.33 8.4-2.42 13.5-1z"/><path d="m1000 692 3 .312c2.02 3.04 2.25 3.62 2.26 7.02l.02 2.44-.013 2.62.006 2.71c.001 1.89-.003 3.78-.011 5.67-.01 2.89 0 5.78.013 8.66-.002 1.84-.004 3.68-.008 5.52l.012 2.61c-.034 4.36-.24 7.77-2.28 11.7l-7-1c-2-4.17-2.25-7.57-2.23-12.2l.001-2.07c.003-1.44.011-2.88.024-4.32.018-2.17.02-4.35.02-6.52.054-22.6.054-22.6 6.19-23.2zm-272 0c1.17 2.33 1.14 3.73 1.16 6.33l.03 2.71.012 2.93.017 3c.01 2.1.016 4.2.02 6.29.01 3.22.04 6.44.072 9.66.007 2.04.012 4.07.016 6.11l.037 2.93-.009 2.71.011 2.39-.366 1.94c-3.22 2.15-4.27 2.38-8 2-2.4-2.4-2.26-2.95-2.29-6.22l-.038-2.64-.007-2.86-.02-2.93c-.01-2.05-.015-4.09-.015-6.14-.004-3.14-.04-6.27-.078-9.41-.006-1.99-.01-3.97-.012-5.96l-.044-2.85c.046-6.48.046-6.48 2.36-9.1 2.53-1.06 4.43-1.12 7.14-.896zm38-191c8.19 6.24 13.9 13.9 16.5 23.9-4.26-2.35-7.9-4.59-10.9-8.44-6.14-7.64-16.4-13.1-26.1-14.6-2.8-.119-5.57-.185-8.38-.188l-2.21-.037c-4.85-.013-8.81.689-13.4 2.22l-1-4c12.3-11.2 32.8-6.92 45.5 1.12z" fill="#ffe4db"/><path d="m1321 592c1.26 3.77.559 4.56-1.12 8.06l-1.42 2.97c-.721 1.47-.721 1.47-1.46 2.96-.409.844-.817 1.69-1.24 2.56-1.23 2.5-2.49 4.97-3.76 7.44-.498.99-.995 1.98-1.51 3-.513.99-1.03 1.98-1.55 3-.465.908-.931 1.82-1.41 2.75-1.69 2.48-2.63 3.46-5.53 4.25-2.25-.875-2.25-.875-4-2 .42-12.8 8.12-23.2 17-32 3.31-1.84 3.31-1.84 6-3zm-713 110c4.02 3.05 5.78 6.14 7 11h-25l-1-2c.908-1.13 1.83-2.26 2.75-3.38l1.55-1.9c4.07-4.13 9.14-5.01 14.7-3.73zm208 1c4.26 3.18 4.27 4.56 5.19 10.1h-24l-1-2c4.01-6.39 4.01-6.39 7.31-8.44 4.37-.915 8.41-1.71 12.5.348z"/><path d="m1259 510c2 2 2 2 2.19 5.44-.188 3.56-.188 3.56-1.19 6.56-3.25 2.17-4.23 2.55-8 2-2.38-1.56-2.38-1.56-4-4 0-3.79.163-6.04 2.69-8.94 2.96-1.36 5.09-1.41 8.31-1.06zm-259 165 3.5.312c2.68 4.02 2.16 6.24 2 11-1.46.027-2.92.046-4.38.063l-2.46.035c-2.16-.098-2.16-.098-4.16-1.1-.195-6.05-.195-6.05 0-8 2-2 2-2 5.5-2.31zm-276 0 3 .312c2.68 4.02 2.16 6.24 2 11-1.46.081-2.92.139-4.38.188l-2.46.105-2.16-.293c-2-3-2-3-1.75-6.06 1.01-3.94 1.66-4.82 5.75-5.25z" fill="#ffe4db"/></svg>