<svg clip-rule="evenodd" fill-rule="evenodd" height="263.252" image-rendering="optimizeQuality" shape-rendering="geometricPrecision" text-rendering="geometricPrecision" viewBox="0 -0.01 23168.93 6964.91" width="231.7mm" xmlns="http://www.w3.org/2000/svg"><linearGradient id="a" gradientUnits="userSpaceOnUse" x1="16704.8" x2="21926.17" y1="6068.13" y2="896.78"><stop offset="0" stop-color="#219e56"/><stop offset=".471" stop-color="#ffd701"/><stop offset=".612" stop-color="#fcd726"/><stop offset=".82" stop-color="#eb6a1e"/><stop offset="1" stop-color="#e96b37"/></linearGradient><path d="M15462.02 3875.16c0 1261.25 602.48 2382.16 1535.17 3089.74h171.27c-857.16-686.02-1406.22-1740.62-1406.22-2924.31 0-2065.93 1675.65-3740.63 3741.45-3740.63 1805.84 0 3313.76 1279.69 3665.24 2982.74C22882.53 1423.3 21276.44-.01 19338.39-.01c-2141.46 0-3876.38 1734.92-3876.38 3875.16" fill="url(#a)"/><path d="M1709.15 5287.19l601.81-2999.15h1175.01l119.33-596.65H119.19L0 2288.04h1184.77l-601.8 2999.15h1126.19zm2547.99 0l716.13-3595.81H3847.08l-716.13 3595.81zm2752.22-522.35c-49.36 3.53-105.78 8.82-162.45 12.21-481.54-34.31-790.16-382.81-790.16-887.53 0-749.35 502-1639.19 1315.49-1688.81 696.06-9.76 1090.39 219.95 1141.11 241.65l134.38-691.45c-363.15-94.66-740.94-149.16-1124.16-149.16h-166.51c-1606.37 0-2486.58 1387.5-2486.58 2402.22 0 805.76 492.52 1372.86 1491.92 1372.86 34.44 0 68.48-.41 102.38-.95 21.29.54 42.58.95 64.14.95 531.98 0 999.54-64.69 1457.47-164.35l318-1601.22H7242.88l-233.51 1153.59zm3599.61 522.35h1171.08l-701.61-1641.34c517.74-223.75 950.18-691.18 950.18-1248.37 0-333.31-228.77-706.37-940.15-706.37H9121.94L8405.55 5287.2H9472.2l591.78-2997.93c91.81-8.27 319.08 2.71 466.61 0 183.88 6.1 371.83 45.16 371.83 272.43 0 338.33-338.06 750.98-820.68 750.98l-129.22 3.12 656.45 1971.41zm1234.68 0l716.4-3595.81h2607.93l-118.92 596.65h-1482.28l-179 875.46h1188.85l-104.56 537.13h-1183.96l-199.07 989.77h1601.9l-119.46 596.79h-2727.82zm6352.08 665.14c78.39 7.87 217.11 90.32 278.13 181.3 237.44 356.64 480.86 484.38 873.15 366.67 382.95-114.99 731.32-427.43 966.18-890.11 54.52-122.17 205.58-80.82 333.99 59.94 345.79 378.2 817.56 196.63 1121.04-241.92 124.75-180.08 89.51-422.27-52.21-549.87-414.13-373.04-907.33-218.05-1127.68 162.45-120.01 180.63-250.33 59.4-170.18-162.04 182.11-500.25 218.05-888.75-206.39-1148.16-266.6-163.27-328.16-208.02-589.88-566.55-170.18-233.24-443.56-250.87-695.51-74.59-328.43 289.92-719.52 417.12-1135.42 417.93-150.51.4-319.49-3.53-471.09 0-189.16 4.75-262.94 46.24-340.09 160.69-459.02 680.87-357.99 1259.35 168.96 1439.84 215.75 73.78 346.07 122.72 466.35 381.46 133.02 298.6 320.98 436.91 580.65 462.95zm1183.02-4427.06c-394.88 455.76-299.83 912.48 58.58 1130.4 484.79 294.67 918.45-17.63 1177.59-454.69 395.55-665.95 237.85-895.39-.95-1009.56-174.79-83.54-728.61-249.92-1235.22 333.85h.01zm-1902.93 402.33c-312.71 546.36-310.41 1098.53 200.28 1275.22 265.79 92.08 781.35-106.18 1012.56-706.63 222.66-577.4 48.27-1118.6-281.39-1203.35-433.66-111.73-660.12 160.01-931.46 634.76zm3175.57 1307.09c102.79-202.19 381.18-833.42 968.76-696.19 320.57 74.72 562.48 217.64 235.27 880.74-262.94 532.93-598.68 785.55-934.86 707.72-301.85-69.97-538.89-363.95-269.17-892.27z" fill="#2e5288"/></svg>