<svg height="640pt" viewBox="71 96 523 499.3" width="640pt" xmlns="http://www.w3.org/2000/svg"><path d="m218.3 97c-1.8.4-4.3 1.4-5.6 2.3-3.5 2.3-11.4 10.4-13.4 13.8-.9 1.6-2.1 2.9-2.4 2.9-.4 0-2.4-2-4.4-4.5-3.3-4-8.4-7.9-16.4-12.5-2.2-1.3-8.7-1.5-41.1-1.5-35.5 0-38.9.1-43.3 1.9-5.8 2.3-13 9.9-16.5 17.4-4.2 9.2-4 27.8.3 36.2 1.8 3.4 6.9 8.8 12.8 13.4 2.6 2.1 5.7 5.6 6.8 7.7 2.9 5.8 8.5 11 16.2 14.9 5.8 3 6.9 4 7.7 7.2.6 2.1.9 13.1.8 25.4-.3 18.1-.5 21.8-1.8 22.4-.8.4-5.9 1.4-11.3 2.3-15.5 2.4-24.7 8.3-31.2 20.1-2.2 4-2.9 6.7-3.3 13.7-.8 15.1 3.5 25.7 14.1 34 2.9 2.3 7.1 7 9.5 10.5 4.4 6.7 9.6 11.1 16.9 14.6 2.3 1.1 4.8 2.7 5.5 3.5 1 1.3 1.4 21.9 1.8 103.7l.5 102.1 4.9 7.7c2.9 4.6 6.5 8.8 8.7 10.2 2.1 1.4 6.4 6.1 9.7 10.4 6.6 8.6 10.6 12.1 17.9 15.5l4.8 2.2 85.2.3c93.8.3 91.2.5 103.1-5.9 6.3-3.3 13.3-3.8 20.4-1.5 4.7 1.6 14.2 3.7 25.8 5.7 4.7.8 15.8 1.3 29.5 1.2 18.6 0 23.7-.4 33-2.3 12.2-2.4 24.9-5.6 28-7 1.1-.5 3.1-1.2 4.5-1.5 7.1-1.9 31.2-15.5 41.4-23.4 2.7-2.1 15.2-14.5 19.3-19.2 6.4-7.4 16.1-22.5 20.6-32 4.1-8.9 9.9-27.4 12.3-39.4 3.5-18 4.4-47.1 2-66.5-3.1-24.1-9.7-45-19.4-61-11.8-19.6-13.5-21.6-39.2-45.8-18.9-17.8-34.5-27.8-60-38.5-19.6-8.2-32.6-10.7-58.5-11.4-21.7-.6-35.1.8-54.2 5.8-6.3 1.6-12.5 2.9-13.9 2.9-2.3 0-2.4-.3-2.4-5.8 0-106.5-.2-110.5-6-118.6-3.4-4.6-9.2-9.8-13.2-11.7-1.3-.6-4.3-3.6-6.8-6.6-5.2-6.5-13.4-12.8-19.2-14.9-3.3-1.1-11.1-1.4-40.7-1.3-20.1.1-38.1.4-39.8.9zm81.5 6.8c6 3.2 13 9.9 14.8 14 1.2 2.9 1.4 14 1.4 66.7 0 34.9.3 64 .6 64.9.3.8 2.9 2.3 5.7 3.2 3.8 1.2 6.6 3.2 10.5 7.2 5 5.3 5.4 5.4 8 4.3 7.3-3.4 29.3-9.4 41.2-11.3 11.1-1.7 46.1-1.7 55.5.1 18.1 3.4 36.6 9.9 52.5 18.4 26.5 14.2 46.1 34.3 59.9 61.3 10 19.7 16.1 48 16.1 74.9 0 47.9-12.3 83.6-39.2 113.2-22.8 25.2-55.1 41-93.2 45.4-13.1 1.5-47.9.6-60.1-1.6-4.9-.9-14.4-3.4-21.1-5.6-6.6-2.1-12.7-3.9-13.4-3.9s-3.1 2.1-5.3 4.6c-2.3 2.6-5.6 5.3-7.4 6-2.6 1.2-19.4 1.4-92.6 1.4h-89.3l-4.5-2.8c-5.1-3.3-9-7.6-12.2-13.6l-2.2-4.1-.3-113c-.2-127.7.7-115.5-8.6-115.5-6.1 0-17.5-2.9-23.1-5.7-5.6-2.9-10-7.4-13.2-13.5-2.5-4.8-2.8-6.3-2.8-15.3 0-8.9.3-10.6 2.7-15.1 5.4-10.3 15.1-15.8 31.3-17.6 5-.6 10-1.4 11.3-1.9l2.2-.9-.2-39.2-.3-39.3-9.2-1.1c-27.6-3.5-39.7-15.2-38-36.9 1-13.3 8.7-24.3 19.5-27.9 4.5-1.5 9.2-1.7 39.4-1.4 34.3.3 34.3.3 39.2 2.8 2.7 1.4 6.6 4.2 8.8 6.3 7.6 7.4 7.2 3.7 7.8 75.2l.5 64 27.4.3c21.3.2 27.6-.1 28.3-1 .4-.7.8-19.1.8-40.9 0-30.6-.3-39.9-1.2-40.6-.7-.6-5.1-1.3-9.8-1.6-24.1-1.6-37-13.2-37-33.1 0-4 .7-9.5 1.5-12.3 2.6-8.7 10.3-16.8 18.3-19.3 1.5-.5 18.9-.8 38.7-.7 35.6.2 36.1.2 40.3 2.5zm-66.6 83.6c2.6 1.4 5.4 2.6 6.2 2.6 3.5 0 4.1 3.9 4.4 28.2.3 16.9 0 24.3-.8 25.9-1.2 2.1-1.6 2.2-11.5 1.7-5.7-.3-10.8-.9-11.4-1.2-1.5-1-1.5-53.1 0-57.4 1.7-4.8 4.2-4.8 13.1.2z"/><path d="m193.5 318.2c-.3.7-.4 42.2-.3 92.3l.3 91h26.8c22.7 0 26.9-.2 27.7-1.5.6-.9.9-36.3.7-92l-.2-90.5-27.3-.3c-21.3-.2-27.4 0-27.7 1zm47.3 26.6c.7.5 1.7 2.4 2.2 4.3 1.2 4.1 1.4 143.8.2 145.6-1.1 1.7-16.9 2.8-20.4 1.4l-2.8-1.1v-70.2c0-66.9.1-70.5 1.9-74.5 1.8-3.8 2.3-4.2 6.8-4.8 2.6-.4 5.3-.8 5.8-1 1.9-.6 5-.5 6.3.3zm155.7-26.7c-22.5 2.2-44.2 12.7-56.5 27.1-9 10.5-14.6 21.2-18.6 35.4-2.7 9.3-2.9 11.1-2.9 28.9 0 15.5.4 20.4 1.9 26.5 8.3 32.4 29.1 53.2 61.9 61.7 9.1 2.4 12.1 2.7 27.2 2.7 19 0 26.5-1.3 39.2-6.6 25.7-10.6 42.4-31.7 48.9-61.8 2.4-10.6 2.3-33.8 0-44.9-7.2-34-27.6-56.2-60.3-65.6-7-2.1-27.7-4.9-31.8-4.4-.5.1-4.6.5-9 1zm56.5 30c8.3 2.1 16.5 5.7 24.2 10.5 14.7 9.3 21.8 49.8 13.8 79.2-4.4 16.2-15.8 33.4-28.1 42.4-5.3 3.9-19.5 10.5-26.4 12.3-24.3 6.3-54 3.3-70.2-7.1-6.6-4.2-8.3-6.1-11.6-12.9-7.6-15.6-9-22-9.1-42 0-13.7.4-17.3 2.4-25 9.1-34.7 30.7-53.9 67.5-59.9 7-1.1 29.1.4 37.5 2.5z"/></svg>