<svg viewBox="1 1 1068.602 1130.2890000000002" xmlns="http://www.w3.org/2000/svg" width="2363" height="2500"><path d="M1 146.465c1.012-3.903 1.838-7.409 3.07-10.766 5.624-15.345 16.325-25.676 31.703-30.943 17.155-5.875 33.28-3.237 47.818 7.437 16.318 11.982 22.46 28.84 20.238 48.376-2.052 18.038-12.097 31.13-28.646 39.863 0-1.39-.118-2.196.038-2.945.121-.585.582-1.099 1.068-1.954-7.978-4.868-15.508-9.882-25.418-9.679-5.159.106-7.615 2.867-8.59 6.88-.82 3.38-.169 7.119-.169 10.678-15.082.424-38.897-18.662-40.722-43.27C1 155.642 1 151.285 1 146.464zM697.563 1c3.152.66 5.846 1.434 8.586 1.962 21.387 4.124 36.727 21.703 39.678 42.526 2.322 16.39-2.362 31.39-13.7 43.634-3.924 4.238-9.373 7.064-14.794 11.024V86.514c-8.367-2.075-16.536-6.866-26.074-4.537-6.647 1.623-8.387 4.166-7.21 10.652.674 3.714 1.697 7.365 2.568 11.069-23.52-2.48-45.548-23.77-43.578-54.88 1.495-23.6 20.856-45.936 47.813-47.423C693.042 1 695.083 1 697.562 1z" fill="#ff8e4d"/><path d="M833.776 655.58c-10.198 10.224-20.302 20.53-27.821 33.009-.845 1.402-1.502 2.918-1.834 4.622 19.7-22.734 40.135-44.277 69.395-55.173-3.002 7.006-6.19 13.825-8.871 20.84-4.69 12.265-8.02 24.904-8.616 38.099-.485 10.743-1.676 21.576-.832 32.232 1.972 24.88 8.432 48.532 22.772 69.482 9.841 14.377 22.553 24.875 40.261 27.128 12.076 1.536 22.903-3.039 32.61-10.162 11.464-8.413 18.832-20.01 25.134-32.428 1.015-1.999 1.977-4.024 3.16-6.435 3.462 1.316 6.734 2.41 9.853 3.84.898.41 1.98 1.83 1.917 2.71-.816 11.438-1.7 22.875-2.824 34.286-.83 8.425-1.606 16.893-3.166 25.2-3.51 18.704-7.07 37.418-11.386 55.947-5.88 25.242-16.105 49.031-26.748 72.517-7.348 16.217-15.96 31.923-24.895 47.343-8.305 14.334-19.022 26.979-31.267 38.22-12.997 11.93-27.803 20.952-44.338 27.097-12.342 4.587-25.07 6.994-38.231 8.246-15.726 1.496-31.241.584-46.78-1.242-12.261-1.441-24.662-2.456-36.66-5.171-13.244-2.998-26.222-7.358-39.091-11.78-15.205-5.225-28.167-14.694-41.412-23.493-9.622-6.391-20.643-8.736-31.506-11.436-21.082-5.238-42.684-6.441-64.165-4.817-19.712 1.491-38.637 6.86-55.184 18.671-9.74 6.952-17.283 15.785-24.144 25.464-13.112 18.498-28.924 34.11-49.937 43.535-13.625 6.11-28.204 9.358-42.883 6.8-20.243-3.526-39.004-11.365-55.833-23.652-16.86-12.308-30.797-26.983-41.591-44.967-8.502-14.164-14.824-29.127-20.083-44.668-6.874-20.315-13.436-40.75-20.89-60.853-8.184-22.07-16.908-43.955-26.017-65.66-5.701-13.584-11.68-27.197-19.108-39.874-8.543-14.576-18.478-28.385-28.435-42.072-13.246-18.208-30.907-31.683-49.654-43.726-13.449-8.64-28.179-14.483-43.703-18.219-7.177-1.728-14.458-3.024-22.076-4.595.232-14.352 4.716-27.508 11.967-39.735 10.145-17.104 24.47-29.948 42.045-39.022 12.592-6.501 25.934-10.992 39.912-13.76 21.243-4.205 42.73-6.09 64.225-4.73 32.393 2.051 64.226 7.228 93.188 23.455 19.679 11.026 35.886 25.733 48.805 44.249 13.232 18.965 29.348 34.85 50.806 44.414 10.33 4.604 21.108 8 32.504 8.64 9.738.547 19.514 1.23 29.243.922 14.455-.456 28.58-3.25 42.498-7.357 18.897-5.576 35.259-15.42 48.973-29.285 12.7-12.84 22.52-28.006 32.437-43.073a1466.113 1466.113 0 0 1 35.434-51.417c6.192-8.588 12.99-16.884 20.458-24.371 9.269-9.293 18.948-18.377 29.472-26.17 15.528-11.499 31.456-22.645 48.152-32.32 15.104-8.754 31.1-16.27 47.368-22.63 18.478-7.223 37.565-13 56.638-18.546 11.712-3.405 23.842-5.473 35.873-7.651 23.644-4.28 47.586-4.891 71.484-3.91 23.363.959 46.105 5.144 67.855 14.681 17.212 7.548 31.471 18.688 43.382 32.658 7.468 8.759 12.993 19.172 19.418 28.824 2.862 4.3 5.794 8.553 8.568 12.64l-27.055 14.844c-8.802-7.399-17.266-15.134-26.382-22.002-9.389-7.073-20.492-10.987-31.998-12.606-10.873-1.53-22.022-2.578-32.941-1.947-17.924 1.035-35.542 4.802-52.31 11.431-11.769 4.653-23.328 9.9-34.717 15.423-6.627 3.214-13.073 7.052-18.941 11.481-3.194 2.41-4.626 7.023-7.528 9.979-5.936 6.045-12.084 11.936-18.588 17.357-10.634 8.86-22.608 16.338-32.174 26.188-8.913 9.178-15.89 20.388-22.893 31.238-13.673 21.186-23.306 44.306-30.348 68.458-3.638 12.476-6.514 25.175-9.703 37.78-.157.621-.02 1.317-.02 3.079 1.318-1.914 2.148-2.964 2.813-4.11 13.397-23.077 26.412-46.387 40.267-69.187 12.027-19.79 25.918-38.324 42.665-54.45 6.49-6.248 13.345-12.349 23-14.775.733.24.88.344 1.027.448m-32.505 40.628c-.785 1.906-1.569 3.813-2.914 5.913l-.121 1.619c.44-.315.879-.63 1.878-1.424.885-1.91 1.77-3.818 3.216-6.215l.76-2.262-.984-.397c-.394.827-.789 1.654-1.835 2.766z" fill="#2c71a1"/><path d="M111.274 531.919c-1.425-2.304-2.883-4.587-4.267-6.914-6.663-11.196-14.614-21.852-19.626-33.745-6.375-15.128-11.098-31.076-15.144-47.022-3.174-12.51-4.482-25.522-6.163-38.37-1.374-10.505-3.456-21.193-2.74-31.629.992-14.457 3.509-28.946 6.886-43.06 2.776-11.599 6.764-23.155 12-33.857 7.262-14.839 17.008-28.15 28.216-40.56 16.136-17.864 34.4-32.98 54.856-45.321 15.683-9.462 32.147-17.63 48.289-26.329.5-.27 1.274-.034 2.357-.034-6.557 12.2-10.399 24.806-9.872 39.006 10.55-1.929 20.784-3.912 31.06-5.645 9.599-1.618 19.24-2.979 28.866-4.437 10.91-1.652 21.804-3.434 32.742-4.883 9.383-1.242 18.819-2.075 28.227-3.124 11.671-1.302 23.335-2.676 35.01-3.945 4.238-.46 8.496-.76 12.751-1.04 15.587-1.025 31.178-1.987 46.763-3.032 2.756-.185 5.616-.286 8.19-1.141 1.363-.453 2.604-2.279 3.239-3.767 8.277-19.404 20.902-35.287 39.157-45.93 13.107-7.642 27.702-8.734 42.6-6.323 2.597.42 5.346-.13 7.96.23 10.593 1.464 21.227 2.76 31.72 4.777 12.325 2.37 24.687 4.843 36.723 8.336a336.134 336.134 0 0 1 36.653 12.97c12.702 5.346 25.388 11.062 37.208 18.086 13.702 8.143 26.668 17.6 39.413 27.204 2.245 1.69 2.33 6.872 2.567 10.497 1.183 18.076 2.13 36.168 3.006 54.262.077 1.599-.49 3.719-1.56 4.807-9.856 10.019-16.62 21.46-17.384 35.853-.952 17.956 1.755 34.995 15.008 48.278 3.72 3.729 9.444 6.317 14.682 7.482a53.559 53.559 0 0 0 27.013-.97c9.915-2.969 16.342-10.268 19.165-19.798 7.535-25.441 3.02-48.47-15.62-68.054-1.33-1.397-2.909-2.674-4.598-3.59-8.758-4.752-10.2-13.713-12.5-21.998-2.093-7.535-3.397-15.29-4.296-23.5 3.045 3.265 6.42 6.284 9.074 9.84 8.51 11.401 17.147 22.74 25.01 34.584 12.224 18.418 20.751 38.61 27.103 59.774 4.034 13.439 7.075 26.985 6.993 41.104-.058 10.003.715 20.072-.18 29.996-1.367 15.159-6.268 29.186-16.355 41.103-9.711 11.474-21.865 19.756-34.937 26.61-16.19 8.488-32.696 16.389-49.227 24.2-12.315 5.82-24.892 11.085-37.337 16.63-1.019.453-1.928 1.153-3.437 2.06-11.006 5.07-21.508 9.721-31.899 14.61-4.036 1.9-7.82 4.335-11.72 6.526-5.516 2.17-11.126 4.13-16.53 6.551-13.01 5.83-25.846 12.054-38.9 17.783-13.787 6.05-27.527 12.32-41.684 17.39a854.019 854.019 0 0 1-55.83 17.861c-10.218 2.886-20.923 4.317-31.507 5.57-12.69 1.504-25.478 2.227-38.238 3.082-8.07.54-16.17.638-24.25 1.055-11.674.603-23.37 2.176-35.006 1.801-23.602-.76-46.949-3.724-70.058-9.165-20.113-4.736-38.798-13.253-58.266-19.643-10.038-3.294-20.61-5.183-30.314-9.218-15.067-6.264-29.406-14.109-41.517-25.423-2.854-2.665-6.02-4.995-9.414-7.896-3.625-3.797-6.878-7.176-10.131-10.555m73.558-223.68c-1.957.918-3.883 1.906-5.873 2.743-20.59 8.662-39.373 20.002-54.226 37.019-2.474 2.835-4.878 6.043-6.214 9.504-4.8 12.437-7.296 25.488-7.29 38.777.006 11.572.882 23.173 1.934 34.71 1.411 15.463 5.677 30.27 12.6 44.154 12.145 24.355 32.196 40.286 56.833 50.359 29.439 12.036 60.666 16.402 92.158 17.14 26.376.618 52.813-.85 79.207-1.824a483.46 483.46 0 0 0 39.068-3.048c18.999-2.253 38.009-4.661 56.847-7.958 24.862-4.352 49.655-9.203 74.307-14.616a567.756 567.756 0 0 0 83.14-25.058c15.603-6.037 30.865-12.955 46.237-19.576 1.24-.534 2.146-1.845 3.207-2.795-.88-.849-1.666-1.831-2.655-2.525-5.937-4.168-12.375-7.749-17.806-12.487-18.845-16.442-28.918-38.217-35.25-61.762-4.044-15.042-8.05-30.257-7.175-46.145.045-.809-.316-1.635-.317-2.454-.02-13.269-.305-26.546.087-39.804.288-9.74 1.627-19.445 2.076-29.184.064-1.37-2.163-3.982-3.514-4.112-23.36-2.246-46.715-4.981-70.141-5.964-19.903-.834-39.896.37-59.846.795-6.79.144-13.588.486-20.357 1.037-14.823 1.207-29.63 2.597-44.443 3.928-11.357 1.021-22.737 1.855-34.064 3.154-15.241 1.75-30.458 3.746-45.654 5.856-16.343 2.27-32.75 4.263-48.95 7.326-28.293 5.348-56.174 12.428-83.926 22.81z" fill="#2c71a1"/><path d="M185.21 308.158c27.374-10.3 55.255-17.38 83.548-22.73 16.2-3.062 32.607-5.055 48.95-7.325 15.196-2.11 30.413-4.107 45.654-5.856 11.327-1.299 22.707-2.133 34.064-3.154 14.813-1.331 29.62-2.721 44.443-3.928 6.77-.55 13.566-.893 20.357-1.037 19.95-.424 39.943-1.63 59.846-.795 23.426.983 46.781 3.718 70.141 5.964 1.35.13 3.578 2.742 3.514 4.112-.45 9.74-1.788 19.445-2.076 29.184-.392 13.258-.107 26.535-.087 39.804 0 .819.362 1.645.317 2.454-.876 15.888 3.131 31.103 7.176 46.145 6.33 23.545 16.404 45.32 35.249 61.762 5.431 4.738 11.869 8.319 17.806 12.487.989.694 1.775 1.676 2.655 2.525-1.061.95-1.967 2.26-3.207 2.795-15.372 6.621-30.634 13.54-46.236 19.576a567.756 567.756 0 0 1-83.14 25.058c-24.653 5.413-49.446 10.264-74.308 14.616-18.838 3.297-37.848 5.705-56.847 7.958a483.46 483.46 0 0 1-39.068 3.048c-26.394.975-52.831 2.442-79.207 1.824-31.492-.738-62.72-5.104-92.158-17.14-24.637-10.073-44.688-26.004-56.833-50.359-6.923-13.884-11.189-28.69-12.6-44.154-1.052-11.537-1.928-23.138-1.934-34.71-.006-13.29 2.49-26.34 7.29-38.777 1.336-3.46 3.74-6.67 6.214-9.504 14.853-17.017 33.635-28.357 54.226-37.019 1.99-.837 3.916-1.825 6.251-2.824m201.146 114.733c3.146 6.947 5.851 14.138 9.519 20.798 11.592 21.054 26.994 38.551 49.189 48.882 24.235 11.28 46.022 5.832 61.441-13.842 16.128-20.578 19.654-45.064 17.3-70.257-1.75-18.72-7.447-36.601-16.597-53.217-11.632-21.12-27.003-38.54-49.269-48.838-17.506-8.097-34.753-7.824-50.904 3.538-9.657 6.795-15.44 16.686-20.256 27.253-8.104 17.78-9.529 36.447-6.972 55.437 1.337 9.936 4.121 19.677 6.549 30.246m-205.288 6.26c.279.95.58 1.896.834 2.855 8.37 31.684 24.064 58.327 52.575 76.068 10.332 6.429 21.605 10.803 33.816 9.782 15.072-1.262 26.844-9.179 34.787-21.995 12.524-20.21 15.326-42.372 11.611-65.506-2.51-15.637-7.657-30.41-15.519-44.222-11.426-20.073-26.468-36.252-47.802-46.146-21.335-9.894-40.216-5.203-53.795 9.063-12.745 13.39-17.955 30.418-18.49 48.578-.301 10.198 1.181 20.449 1.983 31.522z"/><path d="M386.208 422.521c-2.28-10.199-5.064-19.94-6.401-29.876-2.557-18.99-1.132-37.658 6.972-55.437 4.817-10.567 10.599-20.458 20.256-27.253 16.15-11.362 33.398-11.635 50.904-3.538 22.266 10.298 37.637 27.718 49.269 48.838 9.15 16.616 14.848 34.497 16.597 53.217 2.354 25.193-1.172 49.679-17.3 70.257-15.419 19.674-37.206 25.123-61.441 13.842-22.195-10.33-37.597-27.828-49.19-48.882-3.667-6.66-6.372-13.85-9.666-21.168m25.884-3.891c-.513 8.802.736 17.129 6.055 24.535 9.544 13.288 26.966 12.323 35.396.758 8.54-11.714 9.476-24.526 4.363-37.58-5.39-13.761-18.67-20.01-30.185-14.433-10.514 5.093-14.972 14.421-15.629 26.72zM181.007 428.727c-.74-10.65-2.223-20.901-1.923-31.1.536-18.16 5.746-35.187 18.491-48.577 13.579-14.266 32.46-18.957 53.795-9.063 21.334 9.894 36.376 26.073 47.802 46.146 7.862 13.811 13.009 28.585 15.52 44.222 3.714 23.134.912 45.296-11.612 65.506-7.943 12.816-19.715 20.733-34.787 21.995-12.21 1.021-23.484-3.353-33.816-9.782-28.511-17.741-44.204-44.384-52.575-76.068-.253-.959-.555-1.904-.895-3.28m22.423 22.124c.91 3.328 1.434 6.827 2.808 9.951 3.527 8.018 9.159 13.987 18.316 15.025 9.436 1.07 16.428-2.542 21.25-11.198 8.09-14.52 8.726-28.544-.864-42.536-7.955-11.606-26.807-11.4-35 .093-6.043 8.476-7.465 17.831-6.51 28.665z" fill="#fff"/><path d="M412.092 418.16c.657-11.829 5.115-21.157 15.63-26.25 11.515-5.577 24.794.672 30.184 14.433 5.113 13.054 4.178 25.866-4.363 37.58-8.43 11.565-25.852 12.53-35.396-.758-5.319-7.406-6.568-15.733-6.055-25.006zM203.28 450.427c-.805-10.41.617-19.766 6.66-28.242 8.193-11.492 27.045-11.699 35-.093 9.59 13.992 8.954 28.016.865 42.536-4.823 8.656-11.815 12.268-21.25 11.198-9.158-1.038-14.79-7.007-18.317-15.025-1.374-3.124-1.897-6.623-2.958-10.374z"/></svg>