<svg height="1000" viewBox="1.258 44.12 372.733 67.453" width="2500" xmlns="http://www.w3.org/2000/svg"><path d="m14.992 98.745v-49.516h10.875v49.516zm-13.734-40.36v-9.155h38.344v9.157zm43.584 40.36v-39.39h10.812v39.39zm5.406-44.125c-2.106 0-3.719-.445-4.844-1.344-1.125-.906-1.687-2.18-1.687-3.828 0-1.75.562-3.07 1.687-3.969 1.125-.906 2.738-1.359 4.844-1.359 2.094 0 3.703.453 4.828 1.36 1.133.898 1.703 2.218 1.703 3.968 0 1.649-.57 2.922-1.703 3.828-1.125.899-2.734 1.344-4.828 1.344zm13.426 44.125v-39.39h9.015l-.156 14.03h1.047c.55-3.601 1.414-6.503 2.594-8.703 1.175-2.195 2.687-3.804 4.53-4.828 1.852-1.03 4.032-1.547 6.532-1.547 2.195 0 4.07.368 5.625 1.094 1.55.719 2.828 1.719 3.828 3 1 1.274 1.797 2.711 2.39 4.313a23.528 23.528 0 0 1 1.282 5.14c.25 1.825.375 3.657.375 5.5v21.391h-10.796v-20.11c0-.945-.055-2.054-.156-3.328a13.757 13.757 0 0 0 -.781-3.687c-.43-1.176-1.094-2.148-2-2.922-.899-.781-2.121-1.172-3.672-1.172-1.899 0-3.512.617-4.844 1.844-1.324 1.23-2.324 2.996-3 5.297-.668 2.293-1 5.07-1 8.328v15.75zm60.172 12.828c-4.344 0-7.855-.351-10.531-1.047-2.68-.699-4.621-1.672-5.828-2.922-1.2-1.25-1.797-2.777-1.797-4.578 0-2.21.883-4.023 2.656-5.437 1.781-1.426 4.422-2.344 7.922-2.75v-.969c-2.648 0-4.7-.348-6.156-1.047-1.45-.707-2.172-1.785-2.172-3.234 0-1.395.687-2.645 2.062-3.75 1.375-1.102 3.664-1.88 6.875-2.328v-1.047c-2.96-.395-5.289-1.504-6.984-3.328-1.7-1.832-2.547-4.176-2.547-7.032 0-2.55.688-4.785 2.063-6.703 1.375-1.926 3.382-3.453 6.03-4.578 2.657-1.125 5.911-1.687 9.766-1.687h19.797v8.328l-12.89-1.735v1.203c3.539.555 6.035 1.454 7.484 2.704 1.457 1.25 2.188 2.875 2.188 4.875 0 1.949-.625 3.687-1.875 5.218-1.25 1.524-3.09 2.72-5.516 3.594-2.43.875-5.39 1.313-8.89 1.313-.805 0-1.641-.036-2.516-.11a53.031 53.031 0 0 1 -3.344-.406c-1.043.594-1.828 1.14-2.36 1.64-.523.5-.78.954-.78 1.36 0 .344.16.605.484.781.32.18.758.32 1.312.422.551.094 1.149.14 1.797.14h11.563c1 0 2.285.063 3.859.188 1.57.125 3.145.5 4.719 1.125 1.582.625 2.922 1.653 4.015 3.078 1.102 1.43 1.657 3.446 1.657 6.047 0 2.844-.805 5.203-2.407 7.078-1.593 1.875-4.015 3.274-7.265 4.203-3.25.926-7.383 1.391-12.39 1.391zm.61-9.078c3.25 0 5.734-.152 7.453-.453 1.726-.305 2.93-.766 3.609-1.39.676-.626 1.016-1.36 1.016-2.204 0-.906-.23-1.617-.688-2.14a3.813 3.813 0 0 0 -1.687-1.126 7.003 7.003 0 0 0 -2.016-.375 39.06 39.06 0 0 0 -1.766-.046h-9.75c-1.949.406-3.34.984-4.172 1.734-.824.75-1.234 1.625-1.234 2.625 0 .945.36 1.656 1.078 2.125.727.477 1.781.805 3.156.984 1.375.176 3.04.266 5 .266zm.515-23.703c2.156 0 3.797-.563 4.922-1.688s1.687-2.64 1.687-4.547c0-1.945-.578-3.53-1.734-4.75-1.148-1.226-2.793-1.843-4.937-1.843-2.106 0-3.774.617-5 1.843-1.22 1.22-1.829 2.778-1.829 4.672 0 1.25.27 2.356.813 3.313.55.95 1.336 1.687 2.36 2.219 1.03.523 2.269.78 3.718.78zm26.559 19.953v-52.969h10.657v52.969zm37.148 1.047c-3.406 0-6.36-.485-8.86-1.453-2.5-.977-4.59-2.352-6.265-4.125-1.68-1.782-2.93-3.895-3.75-6.344-.824-2.457-1.234-5.16-1.234-8.11 0-3 .41-5.796 1.234-8.39.82-2.602 2.035-4.879 3.64-6.828 1.602-1.957 3.614-3.485 6.032-4.578 2.426-1.102 5.242-1.657 8.453-1.657 3.102 0 5.828.528 8.172 1.579 2.352 1.043 4.281 2.554 5.781 4.53 1.5 1.981 2.563 4.345 3.188 7.095s.758 5.851.406 9.296l-30 .313v-5.938l22.875-.296-2.766 3.218c.29-2.5.149-4.582-.422-6.25-.574-1.675-1.484-2.941-2.734-3.797-1.25-.851-2.726-1.28-4.422-1.28-1.96 0-3.617.515-4.969 1.546-1.343 1.024-2.355 2.469-3.03 4.344-.68 1.875-1.016 4.14-1.016 6.797 0 4.199.847 7.297 2.546 9.297 1.707 2 4.086 3 7.141 3 1.395 0 2.566-.188 3.516-.563.957-.375 1.734-.875 2.328-1.5a6.19 6.19 0 0 0 1.36-2.172c.3-.82.5-1.687.593-2.594l9.687 1.36a17.481 17.481 0 0 1 -1.406 5.14c-.719 1.625-1.781 3.063-3.187 4.313-1.399 1.25-3.157 2.242-5.282 2.969-2.125.718-4.664 1.078-7.609 1.078zm23.925-1.047v-49.516h10.812v49.516zm5.25-18.453v-8.86h27.312v8.86zm0-21.906v-9.157h30.093v9.157zm35.94 40.359v-52.969h10.656v52.969zm36.772 1.047c-3.855 0-7.273-.774-10.25-2.313-2.968-1.55-5.293-3.863-6.968-6.937-1.68-3.082-2.516-6.926-2.516-11.531 0-4.696.86-8.57 2.578-11.625 1.727-3.051 4.082-5.329 7.063-6.829 2.976-1.5 6.343-2.25 10.093-2.25 3.895 0 7.332.778 10.313 2.329 2.976 1.543 5.305 3.84 6.984 6.89 1.676 3.055 2.516 6.906 2.516 11.563 0 4.699-.883 8.59-2.64 11.672-1.75 3.074-4.118 5.351-7.094 6.828-2.97 1.468-6.329 2.203-10.079 2.203zm.297-8.094c1.25 0 2.399-.223 3.453-.672 1.051-.457 1.954-1.172 2.704-2.14.75-.977 1.332-2.227 1.75-3.75.425-1.532.64-3.348.64-5.454 0-2.25-.242-4.187-.719-5.812-.468-1.625-1.105-2.961-1.906-4.016-.793-1.05-1.758-1.828-2.89-2.328a8.833 8.833 0 0 0 -3.625-.75c-1.211 0-2.34.23-3.391.688-1.043.449-1.938 1.164-2.688 2.14-.75.97-1.355 2.22-1.812 3.75-.45 1.524-.672 3.356-.672 5.5 0 2.262.223 4.203.672 5.828.457 1.625 1.11 2.954 1.953 3.985.852 1.023 1.828 1.781 2.922 2.281 1.101.5 2.305.75 3.61.75zm32.488 7.047-9.75-39.39h11.406l5.47 30.53h.905l6.297-30.53h12.532l6.296 30.53h.985l5.625-30.53h10.875l-9.75 39.39h-14.563l-5.547-29.344h-.828l-5.547 29.344zm0 0"/></svg>