<svg height="833" viewBox=".853 9.528 110.37 19.968" width="2500" xmlns="http://www.w3.org/2000/svg"><g fill="#fff"><path d="m4.915 25.7v-14.673h3.219v14.671zm-4.062-11.955v-2.718h11.344v2.718zm0 0"/><path d="m13.76 25.7v-11.673h3.203v11.671zm1.593-13.063c-.625 0-1.105-.129-1.437-.39-.336-.27-.5-.65-.5-1.141 0-.52.164-.91.5-1.172.332-.27.812-.406 1.437-.406s1.102.136 1.438.406c.332.262.5.652.5 1.172 0 .492-.168.87-.5 1.14-.336.262-.813.391-1.438.391zm3.983 13.063v-11.673h2.656l-.031 4.156h.297c.164-1.063.422-1.914.765-2.563.352-.656.801-1.132 1.344-1.437.55-.301 1.195-.453 1.938-.453.656 0 1.21.11 1.671.328.458.21.833.5 1.125.875.301.375.54.805.72 1.281.175.469.3.977.374 1.516.07.543.11 1.09.11 1.64v6.33h-3.205v-5.953c0-.28-.015-.609-.046-.984a3.886 3.886 0 0 0 -.22-1.094 2.018 2.018 0 0 0 -.593-.86c-.273-.237-.637-.359-1.094-.359a2.05 2.05 0 0 0 -1.437.547c-.387.368-.68.891-.875 1.578-.2.68-.297 1.497-.297 2.454v4.671zm17.812 3.796c-1.293 0-2.336-.105-3.125-.312-.793-.211-1.367-.5-1.719-.875a1.854 1.854 0 0 1 -.531-1.344c0-.656.258-1.195.781-1.61.531-.425 1.317-.695 2.36-.812v-.281c-.793 0-1.403-.102-1.829-.313-.43-.207-.64-.523-.64-.953 0-.414.203-.785.61-1.109.405-.332 1.081-.566 2.03-.703v-.313c-.875-.113-1.57-.441-2.078-.984-.5-.54-.75-1.234-.75-2.078 0-.75.203-1.41.61-1.985.414-.57 1.015-1.023 1.797-1.359.78-.332 1.742-.5 2.89-.5h5.86v2.469l-3.813-.516v.36c1.05.168 1.79.437 2.219.812.426.367.64.844.64 1.438 0 .574-.187 1.09-.562 1.546-.367.45-.906.805-1.625 1.063-.719.262-1.602.39-2.64.39a8.09 8.09 0 0 1 -.735-.03c-.262-.032-.59-.071-.984-.126-.313.18-.547.34-.704.485-.156.148-.234.281-.234.406a.25.25 0 0 0 .14.234c.094.043.223.078.391.11.164.031.344.047.532.047h3.421c.29 0 .672.023 1.141.062.469.031.938.14 1.406.328.47.188.864.496 1.188.922.32.418.484 1.012.484 1.781 0 .844-.242 1.54-.719 2.094-.468.563-1.187.977-2.156 1.25-.96.27-2.18.406-3.656.406zm.187-2.687c.958 0 1.692-.047 2.204-.14.507-.087.863-.22 1.062-.407a.887.887 0 0 0 .297-.656c0-.258-.07-.469-.203-.625a.989.989 0 0 0 -.5-.328c-.2-.07-.399-.11-.594-.11-.2-.008-.371-.015-.516-.015h-2.89c-.574.117-.985.289-1.235.515-.242.219-.359.477-.359.766 0 .281.102.488.313.625.218.144.53.242.937.297.406.05.899.078 1.484.078zm.141-7.016c.645 0 1.133-.164 1.469-.5.332-.332.5-.781.5-1.344 0-.582-.172-1.05-.516-1.406-.344-.363-.836-.547-1.469-.547-.625 0-1.12.184-1.484.547-.355.356-.531.813-.531 1.375 0 .375.078.703.234.985.164.28.399.5.703.656.301.156.664.234 1.094.234zm7.874 5.907v-15.689h3.157v15.687zm10.992.312c-1.012 0-1.887-.148-2.625-.438a5.07 5.07 0 0 1 -1.86-1.218 5.262 5.262 0 0 1 -1.109-1.875c-.242-.727-.36-1.532-.36-2.407 0-.882.118-1.71.36-2.484.25-.77.61-1.441 1.078-2.016a4.876 4.876 0 0 1 1.797-1.359c.719-.32 1.551-.484 2.5-.484.914 0 1.723.156 2.422.468a4.13 4.13 0 0 1 1.703 1.344c.446.586.766 1.281.953 2.094.188.812.227 1.73.125 2.75l-8.89.094v-1.766l6.781-.078-.828.953c.094-.738.05-1.351-.125-1.844-.168-.5-.438-.875-.813-1.125-.367-.257-.804-.39-1.312-.39-.574 0-1.063.156-1.469.468-.398.305-.695.73-.89 1.282-.2.554-.297 1.226-.297 2.015 0 1.243.25 2.157.75 2.75.5.594 1.203.891 2.109.891.414 0 .766-.055 1.047-.172.281-.113.508-.258.687-.437.176-.188.305-.399.391-.641a3.26 3.26 0 0 0 .187-.781l2.875.406a5.22 5.22 0 0 1 -.421 1.531c-.211.48-.524.906-.938 1.281-.418.368-.945.657-1.578.875-.625.207-1.375.313-2.25.313zm7.09-.312v-14.673h3.204v14.671zm1.547-5.47v-2.624h8.094v2.625zm0-6.484v-2.718h8.922v2.718zm10.651 11.954v-15.689h3.157v15.687zm10.883.312c-1.137 0-2.149-.23-3.032-.688-.886-.457-1.578-1.14-2.078-2.046-.492-.914-.734-2.055-.734-3.422 0-1.395.254-2.54.766-3.438.507-.906 1.203-1.578 2.078-2.015.883-.446 1.883-.672 3-.672 1.156 0 2.172.23 3.047.687a4.87 4.87 0 0 1 2.062 2.047c.5.899.75 2.031.75 3.406 0 1.399-.262 2.555-.781 3.47-.512.905-1.211 1.577-2.094 2.015-.875.437-1.871.656-2.984.656zm.093-2.406c.364 0 .704-.063 1.016-.188.313-.133.578-.347.797-.64.227-.29.406-.66.531-1.11.125-.445.188-.984.188-1.61 0-.663-.075-1.237-.219-1.718-.137-.488-.324-.883-.563-1.187a2.225 2.225 0 0 0 -.859-.688 2.525 2.525 0 0 0 -1.078-.234c-.356 0-.688.07-1 .203-.305.137-.57.351-.797.64-.219.282-.398.653-.531 1.11-.137.449-.203.992-.203 1.625 0 .668.066 1.246.203 1.734.133.48.328.871.578 1.172.25.305.535.527.86.672.331.148.69.219 1.077.219zm0 0"/><path d="m96.223 25.7-2.89-11.672h3.374l1.625 9.046h.266l1.875-9.046h3.703l1.86 9.046h.296l1.672-9.046h3.219l-2.89 11.671h-4.313l-1.641-8.687h-.25l-1.64 8.687zm0 0"/></g></svg>