<svg height="1000mm" viewBox="0 0 1000 1000" width="1000mm" xmlns="http://www.w3.org/2000/svg"><path d="m0 0h1000v1000h-1000z" fill="#e9e9e9" fill-rule="evenodd"/><path d="m375.392 475.51c-.766.014-.91-.178-.91-.916v-20.247c0-.647-.005-.794.79-.794h3.403c.527 0 .777.077 1.157.829 1.584 3.136 5.856 9.745 13.46 9.745h.619c.346 0 .48-.157.48-.505v-10.854c0-.441-.145-.533-.53-.561-15.662-.958-33.101-4.578-46.804-8.829-2.095-.65-2.397-1.477-1.955-2.867l1.821-5.735-7.21-1.84c-1.552-.439-1.682-.98-1.112-2.085l5.772-10.64-4.543-15.68c-.49-1.62.054-2.234 1.602-1.795l21.265 6.398c1.559.442 2.612 1.744 2.612 3.365v2.052c6.654 1.956 17.992 4.106 28.768 4.978.252.016.314-.047.314-.273v-.966c0-4.545-2.657-6.791-5.318-8.187-.611-.328-1.07-.48-1.07-1.27v-3.08c0-1.114.153-1.638 1.414-1.554 4.354.494 10.314.69 16.386.69s12.032-.196 16.385-.69c1.261-.084 1.415.44 1.415 1.554v3.08c0 .79-.457.942-1.069 1.27-2.66 1.396-5.319 3.642-5.319 8.187v.966c0 .226.065.289.316.273 10.775-.872 22.113-3.022 28.766-4.978v-2.051c0-1.62 1.054-2.923 2.612-3.365l21.265-6.398c1.547-.44 2.093.175 1.603 1.794l-4.544 15.681 5.771 10.64c.571 1.106.441 1.646-1.112 2.084l-7.208 1.841 1.82 5.735c.441 1.39.14 2.217-1.953 2.867-13.703 4.251-31.143 7.87-46.805 8.829-.385.028-.532.12-.532.56v10.855c0 .348.136.504.482.505h.617c7.606 0 11.878-6.61 13.462-9.745.38-.752.629-.83 1.157-.83h3.401c.795 0 .791.148.791.795v20.247c0 .738-.145.93-.912.915 0 0-9.687-.624-30.409-.624s-30.41.624-30.41.624z" fill="#f9f9f9" transform="matrix(6.4186 0 0 -6.4186 -2104.688 3282.192)"/><path d="m376.73 473.73c-.266 0-.426-.175-.42-.455v-17.462c-.022-.294.153-.435.426-.428h1.538c.23-.017.396.085.51.31 2.083 4.102 7.322 10.265 14.509 10.265l2.499-.001c.24 0 .428-.174.428-.428v-14.568c0-.323-.073-.432-.383-.461-17.09-.869-32.378-3.958-47.362-8.63-1.22-.38-1.562-1.196-1.268-2.091l1.993-6.078c.033-.1-.005-.235-.123-.27l-7.903-2.186c-.295-.084-.315-.23-.207-.44l5.266-10.188c.062-.12.102-.2.059-.36l-3.971-14.754c-.071-.211.037-.315.237-.258l19.64 5.651c.826.234 1.282.855 1.282 1.602v2.83c0 .198.054.255.195.306 6.717 2.226 19.243 4.764 32.033 5.727.33.02.517-.088.512-.39v-2.683c0-5.37-3.163-8.11-6.06-9.681-.231-.134-.329-.248-.329-.529v-1.582c0-.24.155-.423.459-.404 1.447.127 8.343.697 15.513.697s14.064-.57 15.51-.697c.305-.02.46.163.46.404v1.582c0 .281-.098.395-.329.529-2.897 1.572-6.058 4.31-6.058 9.681v2.684c-.006.3.18.408.51.39 12.79-.964 25.316-3.502 32.033-5.728.14-.051.194-.108.194-.306v-2.83c0-.747.458-1.368 1.284-1.602l19.639-5.65c.199-.058.308.046.237.257l-3.971 14.754c-.043.16-.003.24.058.36l5.267 10.188c.108.21.088.356-.208.44l-7.9 2.187c-.12.034-.158.17-.125.27l1.992 6.077c.294.895-.049 1.712-1.267 2.092-14.985 4.67-30.27 7.76-47.362 8.629-.31.029-.381.138-.381.461v14.568c0 .254.186.428.426.428l2.497.001c7.188 0 12.43-6.163 14.513-10.266.113-.224.277-.326.51-.309h1.536c.272-.007.448.134.426.428v17.462c.006.28-.155.455-.42.455 0 0-8.35-.475-29.071-.475s-29.073.475-29.073.475zm29.073-24.444c19.726 0 38.725-3.111 56.543-8.864.432-.145.505-.453.416-.725l-7.881-23.71c-.101-.275-.247-.647-.596-.812.094.407-.287.856-.745 1.002-15.175 4.832-32.686 7.541-47.737 7.541s-32.565-2.709-47.74-7.54c-.458-.147-.838-.596-.744-1.003-.349.165-.496.537-.597.812l-7.878 23.71c-.09.272-.016.58.416.725 17.816 5.753 36.818 8.864 56.543 8.864zm-56.168-17.001a.16.16 0 0 0 .096-.104l5.425-16.634c.337-1.03.926-1.426 1.519-1.612l4.368-1.363c.543-.169.47-.596.004-.728l-16.825-4.772c-.115-.035-.234.013-.183.146l3.52 13.046c.079.293.033.39-.093.636l-4.72 9.16c-.077.149-.034.324.184.373l6.54 1.852c.062.018.119.017.165 0zm112.334 0a.263.263 0 0 0 .166 0l6.539-1.852c.218-.049.26-.224.184-.373l-4.72-9.16c-.125-.246-.172-.343-.093-.636l3.52-13.046c.05-.133-.067-.181-.183-.146l-16.825 4.772c-.465.132-.538.56.003.728l4.37 1.363c.595.186 1.18.582 1.517 1.612l5.426 16.634a.159.159 0 0 0 .096.104z" fill="#231f20" transform="matrix(6.4186 0 0 -6.4186 -2104.688 3282.192)"/><path d="m405.803 448.397a180.416 180.416 0 0 1 -56.195-8.995c-.274-.094-.568-.298-.463-.616l7.577-22.8c-.151.459.181.805.837 1.02 15.168 4.962 31.427 7.651 48.244 7.651 16.816 0 33.072-2.689 48.241-7.65.655-.216.988-.562.837-1.02l7.577 22.799c.106.318-.188.522-.462.616a180.407 180.407 0 0 1 -56.193 8.995zm-55.86-16.875-5.476-1.544c-.383-.11-.548-.337-.35-.72l4.399-8.53c.025-.048.03-.08.01-.155l-3.156-11.708c-.082-.303.136-.539.447-.45l14.915 4.255-4.057 1.265c-.593.186-1.182.582-1.52 1.612zm111.717 0-5.213-15.975c-.336-1.03-.922-1.426-1.516-1.612l-4.06-1.265 14.916-4.255c.31-.089.527.147.446.45l-3.155 11.708c-.021.075-.016.107.01.156l4.4 8.53c.197.382.033.61-.35.719z" fill="#fff" fill-rule="evenodd" transform="matrix(6.4186 0 0 -6.4186 -2104.688 3282.192)"/><path d="m460.084 412.67c.941-.288 1.97.199 2.275 1.202.303.993-.278 1.975-1.219 2.263-.949.291-1.979-.196-2.282-1.19-.306-1.002.275-1.984 1.226-2.275zm-.878 2.168c.25.822 1.054 1.25 1.846 1.007.783-.24 1.21-1.045.959-1.867-.255-.834-1.056-1.258-1.84-1.018-.791.243-1.219 1.044-.965 1.878zm.999-.455.349-.107.26-1.027.34-.104-.298 1.054c.301-.053.574.032.683.391.121.394-.062.639-.532.783l-.756.231-.608-1.995.299-.092zm.268.876.412-.127c.212-.065.419-.178.344-.427-.094-.309-.327-.257-.585-.178l-.362.11z" fill="#231f20" fill-rule="evenodd" transform="matrix(6.4186 0 0 -6.4186 -2104.688 3282.192)"/><path d="m448.453 423.859c-.211-.762.239-1.634.239-1.634l-.312-1.124s-1.882.528-2.715.742c-.929.239-2.954.742-2.954.742l.269 1.137s.824.656.983 1.37c-2.771-.053-4.395 2.041-4.49 4.823-.969-2.472-3.658-3.804-5.985-2.622-.163-.916.395-1.7.395-1.7l-.2-1.126s-1.929.33-2.787.469c-.946.153-3.039.457-3.039.457l.173 1.147s.739.604.913 1.458c-3.095-.294-4.784 1.847-4.971 4.905-.702-2.661-2.441-4.376-5.716-4.229-1.801.081-3.163.927-4.02 2.108.682-1.357 1.564-2.334 3.527-2.857l-.121-1.453c-4.858.335-7.04.696-9.064 5.671l-.683 1.679-.012-.843c-.024-1.699.816-2.452.816-2.452l-.004-1.178s-2.28.035-3.156.032c-.977-.004-2.952-.036-2.952-.036l-.007 1.148s.659 1.193.641 2.019c-.361-1.942-2.082-3.203-4.006-3.264l-1.563-.049a134.209 134.209 0 0 1 -5.225-.349l-.097 1.147s.602.944.518 2.057l-.586 7.74c-.095 1.265-.865 1.922-.865 1.922l-.102 1.185s2.215.18 3.242.246c1.039.067 3.279.175 3.279.175l.048-1.228s-.844-.757-.762-2.237l.109-1.993 1.733.051c2.477.078 4.137-1.837 4.252-3.359l-.067 5.727c-.013 1.158-.737 1.963-.737 1.963l-.012 1.193s2.235.028 3.276.028c1.025-.001 3.242-.031 3.242-.031l-.027-1.228s-.906-.755-.915-1.949l-.013-1.933 1.549 2.255c.484.704-.016 1.327-.501 1.624l.022 1.238c1.842-.052 3.684-.101 5.525-.202l-.067-1.391s-1.854-.525-2.682-1.723l-.865-1.255 2.214-5.492c-.155.752-.183 1.548-.169 2.353.166 10.235 11.254 8.833 11.513 1.939.978 3.188 3.574 5.052 6.497 3.82l.04.271c.144.995-.567 1.715-.567 1.715l.188 1.283s2.256-.337 3.298-.502l2.352-.381-.533-3.151c3.084.241 4.96-2.25 4.996-4.903 1.101 2.526 4.126 3.968 6.507 2.489l.08.366c.224 1.036-.304 1.691-.304 1.691l.293 1.226s1.907-.465 2.832-.704c.759-.197 2.666-.714 2.666-.714l-.855-3.164c3.985-.092 5.025-4.275 4.069-7.786-1.139-4.189-3.738-7.486-7.588-5.369zm-62.632 5.494c-.001 0 .728.817.499 2.705l-.347 2.87-1.713-.204.36-2.924c.238-1.941 1.201-2.447 1.201-2.447zm-5.934-2.042-.186 1.141s.635 1.127.441 2.356l-1.141 7.24c-.187 1.189-1.152 2.008-1.152 2.008l-.189 1.173s2.221.346 3.257.496c1.025.147 3.238.44 3.238.44l.154-1.216s-.784-1.025-.591-2.344l.268-1.839 1.743.209-.219 1.914c-.146 1.272-1.097 2.076-1.097 2.076l-.144 1.222c0-.001 2.171.248 3.258.36 1.027.104 3.222.311 3.222.311l.111-1.203s-.699-.814-.584-2.026l.731-7.735c.106-1.126.902-1.919.902-1.919l.109-1.16s-2.842-.248-6.057-.63c-3.48-.414-6.074-.874-6.074-.874zm-6.359-.031s.585 1.13.395 2.104l-.652 3.354-.965-3.8c.211-.934 1.222-1.658 1.222-1.658zm-5.716-2.455-.268 1.117s.394 1.267.193 2.116l-1.779 7.548c-.353 1.499-2.268 2.264-3.18 2.291l3.187-12.414c.269-1.045 1.401-1.552 1.401-1.552l.304-1.189s-1.799-.455-3.061-.798c-1.269-.345-3.027-.847-3.027-.847l-.316 1.165s.575 1.137.323 2.039l-3.457 12.367c-.904-.592-1.364-1.648-1.553-2.66l-1.393-.44-1.554 5.113s3.059.934 5.972 1.715c2.963.794 6.032 1.514 6.032 1.514l.702-2.919 1.02.222c1.117.259 3.51.747 3.51.747l.252-1.177s-.675-1.101-.439-2.259l.713-3.497.98 4.113c-.284 1.13-1.151 1.66-1.151 1.66l-.24 1.186s1.866.377 2.85.559c1.043.193 3.545.62 3.545.62l.202-1.185s-.616-.96-.377-2.309l1.284-7.278c.234-1.324 1.05-1.971 1.05-1.971l.203-1.153s-1.679-.272-2.907-.509c-1.421-.276-3.081-.588-3.081-.588s-1.993-.43-2.993-.652c-.931-.206-2.947-.695-2.947-.695zm83.234 8.725-1.695-6.26c-.439-1.62-.04-1.866.116-1.826 1.289.322 3.566 8.554 2.639 9.576-.108.124-.618.147-1.06-1.49zm-5.063 2.985c-1.388-1.115-3.136-8.63-2.383-9.451.206-.051.858-.067 1.223 1.4l1.572 6.326c.154.618.359 2.346-.412 1.725zm-10.832.644-1.085-6.379c-.268-1.573.263-1.792.411-1.816 1.271.549 2.668 8.866 1.635 9.776-.259.227-.738-.268-.961-1.581zm-5.3 2.452c-1.151-1.159-2.304-8.823-1.372-9.671.147-.024.772-.002 1.009 1.574l.964 6.393c.103.685.078 2.388-.601 1.704zm-11.893-7.857c.04-.23.182-.949.433-1.124 1.09-.072 1.575 7.629 1.322 9.345-.033.224-.154.943-.397 1.12-1.36.123-1.63-7.76-1.358-9.341zm-20.442.547c.04-.719.107-1.008.162-1.118.836-.058.808 1.847.795 2.268-.071 2.264-.648 2.302-.914 2.294l-.235-.006z" fill="#fff" fill-rule="evenodd" transform="matrix(6.4186 0 0 -6.4186 -2104.688 3282.192)"/><path d="m431.153 444.068-.061-.42s.71-.86.528-1.978l-.177-1.192a3.184 3.184 0 0 1 -1.63.728c-2.375.327-4.673-1.702-5.057-5.004l-.143-1.241c-.384-3.301.886-5.953 3.178-6.325.605-.1 1.346-.065 1.914.16l-.084-.556c-.164-1.12-1.02-1.985-1.02-1.985l-.05-.345s1.493-.218 2.443-.372c.859-.14 2.194-.367 2.195-.367l.06.337s-.527 1.095-.325 2.21l.101.604c.47-.396 1.115-.718 1.722-.816 2.29-.372 4.339 1.75 5.01 5.004l.251 1.215c.672 3.255-.905 5.954-3.225 6.378-.606.11-1.213.024-1.783-.203l.587 3.474-1.746.282c-1.04.165-2.688.412-2.688.412zm-25.498-1.211h.001c-1.038 0-2.66-.02-2.66-.02l.004-.395s.726-1.02.738-2.152l.088-7.772c.013-1.132-.637-2.193-.637-2.193l.003-.36s1.364.022 2.345.026c.88.003 2.552-.022 2.552-.022v.35s-.83 1.072-.818 2.205l.025 2.12.579.841 1.267-3.11c1.49-3.605 3.082-4.917 6.666-5.164l1.276-.088.028.344c-2.664.709-3.573 3.301-4.253 4.976l-2.622 6.504.863 1.263c.93 1.36 2.783 2.066 2.783 2.066l.018.389s-1.098.06-2.197.09l-2.1.06-.008-.39s1.234-.938.4-2.188l-2.675-3.89.025 3.936c.044 1.132.92 2.158.92 2.158l.008.394s-1.597.02-2.619.022zm-8.435-.21s-1.62-.078-2.656-.145a220.636 220.636 0 0 1 -2.622-.196l.035-.39s.793-.984.88-2.114l.585-7.738c.086-1.13-.504-2.23-.504-2.23l.033-.36s1.373.114 2.254.171c.934.061 2.395.128 2.395.128l1.565.048c1.716.054 3.55 1.683 3.484 3.782-.063 2.002-1.553 3.735-3.719 3.667l-2.327-.07-.156 2.84c-.062 1.132.766 2.214.766 2.214zm21.552-.161c-2.724-.09-4.923-2.43-5.075-5.543l-.06-1.24c-.161-3.32 1.327-6.192 4.66-6.421 3.212-.22 5.1 2.178 5.443 5.484l.134 1.294c.342 3.307-1.555 6.183-4.55 6.413-.185.014-.37.019-.552.013zm-28.563-.33s-1.583-.148-2.608-.253a199.475 199.475 0 0 1 -2.643-.298l.047-.39s.955-.935 1.088-2.062l.325-2.748-2.94-.353-.366 2.734c-.15 1.122.577 2.267.577 2.267l-.05.391s-1.601-.212-2.623-.36c-1.034-.148-2.647-.4-2.647-.4l.059-.369s.934-.92 1.109-2.04l1.195-7.676c.174-1.121-.387-2.275-.387-2.275l.057-.352s1.3.208 2.486.37l2.397.329-.04.356s-.956.933-1.106 2.055l-.55 4.138 2.929.349.47-4.125c.13-1.127-.526-2.257-.526-2.257l.044-.362s1.487.175 2.44.274c.942.098 2.42.233 2.42.233l-.035.361s-.813.977-.92 2.107l-.73 7.736c-.107 1.13.562 2.234.562 2.234zm29.05-.414c1.044-.095 1.292-2.328.96-5.999-.331-3.666-.825-5.79-1.871-5.721-1.06.07-1.367 2.328-1.117 5.995.252 3.693.983 5.82 2.028 5.725zm-54.07-.564s-2.474-.58-5.426-1.371a179.83 179.83 0 0 1 -5.37-1.533l1.196-3.939.459.146c.173.925 1.046 2.648 2.481 3.029l3.648-13.045c.305-1.09-.264-2.264-.264-2.264l.095-.347s1.17.333 2.442.68c1.267.343 2.479.65 2.479.65l-.088.35s-1.186.697-1.468 1.796l-3.362 13.103c1.437.38 3.085-.674 3.691-1.393.425-.483.789-1.076.909-1.585l1.72-7.28c.26-1.103-.154-2.287-.154-2.287l.085-.35s1.43.345 2.365.553c1.003.222 2.401.522 2.401.522l-.074.356s-1.034.792-1.273 1.947l1.634 6.537 1.175-5.96c.22-1.115-.32-2.282-.32-2.282l.067-.35s1.063.198 2.483.473c1.237.24 2.316.414 2.316.414l-.063.357s-.897.898-1.093 2.015l-1.34 7.65c-.196 1.118.407 2.284.407 2.284l-.066.384s-1.63-.277-2.67-.469c-.98-.18-2.511-.486-2.511-.486l.077-.382s1.011-.88 1.223-1.993l-1.653-6.641-1.29 6.056c-.235 1.112.42 2.307.42 2.307l-.08.386s-1.523-.315-2.633-.572l-1.853-.433zm82.587-.32-.093-.39s.533-.833.257-1.933l-.32-1.289a3.19 3.19 0 0 1 -1.497.894c-2.24.61-4.885-1.217-5.565-4.471l-.263-1.252c-.68-3.255.252-5.98 2.49-6.59.592-.162 1.416-.174 2.005-.01l-.132-.548c-.27-1.1-1.13-1.872-1.13-1.872l-.088-.366s1.444-.359 2.376-.598c.838-.215 2.143-.58 2.143-.58l.096.348s-.414 1.121-.118 2.214l.157.575c.426-.443.898-.855 1.491-1.016 2.24-.61 4.535 1.274 5.517 4.45l.365 1.183c.983 3.174-.305 6.07-2.545 6.68a3.295 3.295 0 0 1 -1.78-.01l.94 3.47s-1.316.356-2.073.553c-.921.238-2.233.558-2.233.558zm-17.776-.475a.743.743 0 0 0 .205-.005c.698-.114 1.093-.897.849-2.541l-.961-6.393c-.246-1.644-.963-2.223-1.661-2.11-1.112.18-.987 2.739-.602 5.758.367 2.892 1.156 5.167 2.17 5.29zm5.89-.98c.083.007.168.004.255-.01 1.112-.18 1.142-2.753.602-5.75-.546-3.022-1.256-5.44-2.368-5.26-.697.113-1.191.881-.911 2.52l1.085 6.378c.244 1.433.747 2.062 1.336 2.121zm10.33-2.133h.001a.721.721 0 0 0 .205-.025c.682-.186.96-.968.56-2.581l-1.57-6.327c-.398-1.614-1.231-2.04-1.917-1.87-1.113.273-.66 2.806-.001 5.777.622 2.82 1.695 5.008 2.723 5.026zm-48.692-.895c.868.027 1.47-.636 1.54-2.885.054-1.687-.33-2.951-1.438-2.875-.46.033-.656.257-.735 1.673l-.226 4.063zm54.429-.674a.958.958 0 0 0 .253-.035c1.086-.296.827-2.897.006-5.797-.83-2.929-1.82-5.29-2.909-4.994-.682.186-.98.971-.543 2.574l1.692 6.261c.38 1.403.916 1.991 1.501 1.99z" fill="#231f20" fill-rule="evenodd" transform="matrix(6.4186 0 0 -6.4186 -2104.688 3282.192)"/><g fill="#fff" stroke="#fff" stroke-miterlimit="2.613" stroke-width="1.613" transform="matrix(6.41025 0 0 -6.42694 -2104.688 3282.192)"><path d="m365.04 396.502-2.4-4.797h1.308l.507 1.075h2.486l.51-1.075h1.374l-2.391 4.797zm.637-.967h.018l.885-1.96h-1.738z"/><path d="m372.784 394.26v1.487h.56c.704 0 1.023-.322 1.023-.72 0-.363-.284-.767-1.023-.767zm-1.222 2.241v-4.797h1.222v1.803h.782c1.54 0 2.091.862 2.091 1.493 0 .301-.129 1.501-2.313 1.501z"/><path d="m378.084 395.747h.654c.963 0 1.023-.493 1.023-.651 0-.281-.249-.665-1.023-.665h-.654zm-1.222.754v-4.797h1.222v1.974h.465c.403 0 .628-.165.773-.453l.775-1.521h1.367l-.98 1.857c-.145.275-.336.452-.629.507v.014c.423.082 1.162.329 1.162 1.117 0 .643-.412 1.302-2.021 1.302z"/><path d="m382.584 396.501h1.22v-4.796h-1.22z"/><path d="m385.887 396.501 1.299-3.118.267-.739h.017l.258.739 1.318 3.118h1.221l-2.083-4.797h-1.505l-2.099 4.797z"/><path d="m392.77 393.575.835 1.96h.017l.887-1.96zm.198 2.926-2.4-4.797h1.307l.508 1.076h2.487l.508-1.076h1.377l-2.393 4.797z"/><path d="m401.71 396.501v-.85h-1.739v-3.947h-1.221v3.947h-1.738v.85z"/><path d="m402.441 396.502v-4.797h3.597v.85h-2.375v1.226h2.16v.787h-2.16v1.084h2.375v.85z"/><path d="m410.296 395.747h.544c.945 0 .99-.459.99-.596 0-.213-.148-.596-.94-.596h-.594zm-1.221.754v-4.797h1.901c1.929 0 2.366.754 2.366 1.35 0 .603-.489 1.048-1.265 1.144v.014c.431.102.981.384.981 1.103 0 .809-.834 1.186-2.004 1.186zm1.221-2.7h.68c.843 0 1.076-.329 1.076-.671 0-.343-.309-.672-1.076-.672h-.68z"/><path d="m415.94 395.747h.655c.963 0 1.023-.493 1.023-.651 0-.281-.249-.665-1.023-.665h-.655zm-1.22.754v-4.797h1.22v1.974h.467c.403 0 .628-.165.772-.453l.775-1.521h1.368l-.981 1.857c-.145.275-.336.452-.628.507v.014c.422.082 1.161.329 1.161 1.117 0 .643-.411 1.302-2.02 1.302z"/><path d="m424.038 396.501v-.85h-2.376v-1.083h2.159v-.788h-2.159v-1.226h2.376v-.85h-3.596v4.797z"/><path d="m433.27 396.501-1.626-4.797h-1.55l-.92 3.118-.206.918h-.019l-.189-.918-.887-3.118h-1.572l-1.662 4.797h1.283l.895-2.865.258-1.082h.017l.239 1.082.809 2.865h1.653l.851-2.865.25-1.082h.017l.25 1.082.878 2.865z"/><path d="m437.639 396.501v-.85h-2.374v-1.083h2.16v-.788h-2.16v-1.226h2.374v-.85h-3.596v4.797z"/><path d="m440.151 395.747h.656c.962 0 1.023-.493 1.023-.651 0-.281-.251-.665-1.023-.665h-.656zm-1.22.754v-4.797h1.22v1.974h.467c.403 0 .628-.165.772-.453l.776-1.521h1.368l-.982 1.857c-.145.275-.336.452-.628.507v.014c.422.082 1.161.329 1.161 1.117 0 .643-.411 1.302-2.02 1.302z"/><path d="m445.478 396.501 1.239-1.686.19-.329h.025l.206.329 1.247 1.686h1.292l-2.168-2.851v-1.946h-1.222v1.96l-2.221 2.837z"/></g><g fill="#231f20" transform="matrix(6.4186 0 0 -6.4186 -2104.688 3282.192)"><path d="m364.564 396.995-2.398-4.802h1.309l.505 1.077h2.483l.508-1.077h1.374l-2.388 4.802zm.636-.968h.018l.884-1.962h-1.735z"/><path d="m371.079 396.995v-4.802h1.218v1.804h.783c1.537 0 2.088.865 2.088 1.497 0 .3-.13 1.501-2.311 1.501zm1.218-.756h.56c.704 0 1.022-.32 1.022-.719 0-.363-.283-.769-1.022-.769h-.56z"/><path d="m376.371 396.995v-4.802h1.22v1.976h.465c.403 0 .627-.166.772-.454l.774-1.522h1.366l-.98 1.86c-.145.273-.335.452-.627.506v.013c.42.082 1.16.33 1.16 1.12 0 .645-.412 1.303-2.019 1.303zm1.22-.756h.654c.96 0 1.02-.494 1.02-.652 0-.28-.247-.665-1.02-.665h-.654z"/><path d="m382.085 396.995v-4.802h1.22v4.802z"/><path d="m384.079 396.995 2.098-4.802h1.503l2.078 4.802h-1.219l-1.315-3.121-.26-.742h-.015l-.267.742-1.296 3.121z"/><path d="m392.456 396.995-2.396-4.802h1.304l.508 1.077h2.484l.507-1.077h1.376l-2.39 4.802zm.636-.968h.018l.885-1.962h-1.736z"/><path d="m396.495 396.995v-.85h1.736v-3.952h1.22v3.951h1.736v.851z"/><path d="m401.916 396.995v-4.802h3.592v.85h-2.37v1.228h2.156v.79h-2.156v1.083h2.37v.851z"/><path d="m408.543 396.995v-4.802h1.897c1.926 0 2.363.754 2.363 1.351 0 .604-.488 1.048-1.263 1.145v.014c.431.104.98.386.98 1.106 0 .81-.833 1.186-2 1.186zm1.22-.756h.543c.944 0 .987-.459.987-.596 0-.213-.147-.598-.938-.598h-.593zm0-1.946h.677c.842 0 1.076-.33 1.076-.673s-.31-.674-1.076-.674h-.678z"/><path d="m414.18 396.995v-4.802h1.217v1.976h.468c.403 0 .628-.166.772-.454l.773-1.522h1.365l-.98 1.86c-.144.273-.335.452-.627.506v.013c.421.082 1.16.33 1.16 1.12 0 .645-.41 1.303-2.017 1.303zm1.217-.756h.657c.96 0 1.02-.494 1.02-.652 0-.28-.248-.665-1.02-.665h-.657z"/><path d="m419.894 396.995v-4.802h3.59v.85h-2.37v1.228h2.155v.79h-2.156v1.083h2.372v.851z"/><path d="m424.085 396.995 1.66-4.802h1.57l.887 3.12.189.92h.019l.205-.92.92-3.12h1.546l1.625 4.802h-1.23l-.877-2.868-.25-1.084h-.016l-.25 1.084-.85 2.868h-1.651l-.807-2.868-.239-1.084h-.018l-.257 1.084-.894 2.868z"/><path d="m433.478 396.995v-4.802h3.59v.85h-2.368v1.228h2.156v.79h-2.156v1.083h2.368v.851z"/><path d="m438.36 396.995v-4.802h1.218v1.976h.465c.403 0 .63-.166.772-.454l.775-1.522h1.365l-.98 1.86c-.145.273-.334.452-.626.506v.013c.42.082 1.16.33 1.16 1.12 0 .645-.41 1.303-2.019 1.303zm1.218-.756h.654c.961 0 1.021-.494 1.021-.652 0-.28-.25-.665-1.02-.665h-.655z"/><path d="m443.489 396.995 2.217-2.84v-1.962h1.22v1.949l2.166 2.853h-1.29l-1.246-1.687-.206-.33h-.025l-.19.33-1.237 1.687z"/></g></svg>