<svg viewBox="0.5 0.7 541 144.70000000000002" xmlns="http://www.w3.org/2000/svg" width="2500" height="666"><g fill="#1d1d1b"><path d="M470 .7h71.5V8h-21.2v130.7h21.2v6.7H470v-6.7h27.1V8H470zM2.4.7h123.7l2.2 47.5h-8.5S120.1 3.4 74.4 8v130.7h26.9v6.7H27.7v-6.7h22.9V8S13.2 1.9 9.3 48.2H.5zM159.5.7H231V8h-21.3v130.7h21.2v6.7h-71.4v-6.7h27.1V8h-27.1zM265 .7h60.9v10.6h-16.8l16.8 93.5L350.2 3.2h14.2l26.2 101.6 19.9-93.5h-12.8V.7H436v10.6h-12.7l-28.5 134.1h-18.5l-27-98.7-20.9 98.7h-15.1l-36-134.1H265z"/></g></svg>