<svg height="2099.255" viewBox="2.62 2.62 994.778 550.188" width="1000mm" xmlns="http://www.w3.org/2000/svg"><path d="m499.9 2.62c-148.59 0-269.702 123.603-269.702 275.12 0 151.515 121.112 275.068 269.701 275.068 148.564 0 269.753-123.553 269.753-275.069s-121.164-275.119-269.752-275.119z" fill="#1a1a1a"/><path d="m499.9 2.62c-148.59 0-269.702 123.603-269.702 275.12 0 151.515 121.138 275.068 269.701 275.068 148.564 0 269.753-123.553 269.753-275.069s-121.164-275.119-269.752-275.119z" fill="none" stroke="#1a1a1a" stroke-width="5.24"/><path d="m766.465 32.005v257.997l2.721 258.021c126.276-1.028 228.212-116.904 228.212-258.021 0-142.093-103.733-257.997-230.933-257.997z" fill="#1a1a1a"/><path d="m766.443 32.009v258.017l2.758 258.017c126.276-1.029 228.179-116.9 228.179-258.017 0-142.067-103.737-258.017-230.937-258.017z" fill="none" stroke="#1a1a1a" stroke-width="5.24"/><path clip-rule="evenodd" d="m233.552 291.03-2.696 257.995c-126.302-1-228.236-116.905-228.236-257.995 0-142.119 103.732-257.996 230.933-257.996z" fill="#1a1a1a" fill-rule="evenodd"/><path d="m233.557 33.011c-127.2 0-230.937 115.9-230.937 258.018 0 141.09 101.927 257.018 228.23 258.018l2.707-258.018z" fill="none" stroke="#1a1a1a" stroke-width="5.24"/><path d="m370.715 160.157v268.01h72.049v-99.881h111.203v99.881h72.049v-268.01h-72.049v100.805h-111.203v-100.805z" fill="#fff"/><path d="m370.715 160.157v267.983h72.049v-99.855h111.203v99.855h72.049v-267.983h-72.049v100.805h-111.203v-100.805z" fill="none" stroke="#fff" stroke-width="5.237982"/><path clip-rule="evenodd" d="m853.56 428.218v-33.276h-34.895v-205.078c3.442-.388 3.673.026 10.81-.291 29.477-1.155 52.252 15.944 51.918 69.711l29.117.582v-98.956h-247.675v97.699h29.734c.611-52.508 22.184-71.098 51.892-69.84 3.722.195 6.47 0 10.219.389l-.621 206.335-34.432-.582v33.276h133.928z" fill="#fff" fill-rule="evenodd"/><path d="m662.835 160.884v97.699h29.734c.61-52.508 22.184-71.098 51.892-69.84 3.723.194 6.47 0 10.218.389l-.62 206.334-34.433-.582v33.277l133.933.057v-33.278h-34.894v-205.1c3.441-.388 3.672.024 10.81-.292 29.476-1.155 52.252 15.946 51.918 69.712l29.117.582v-98.957z" fill="none" stroke="#fff" stroke-width="5.24"/><path d="m88.173 160.236v97.726h29.732c.612-52.534 22.185-71.1 51.867-69.841 3.749.194 6.496 0 10.245.389l-.64 206.334-34.433-.582v33.277l133.953-.014v-33.277h-34.895v-205.103c3.415-.388 3.673.026 10.81-.291 29.477-1.184 52.252 15.97 51.918 69.685l29.116.68v-98.983z" fill="#fff"/><path d="m88.173 160.236v97.726h29.732c.612-52.534 22.185-71.1 51.867-69.841 3.749.194 6.496 0 10.245.389l-.64 206.334-34.433-.582v33.277l133.953-.014v-33.277h-34.895v-205.103c3.415-.388 3.673.026 10.81-.291 29.477-1.184 52.252 15.97 51.918 69.685l29.116.68v-98.983z" fill="none" stroke="#fff" stroke-width="5.24"/></svg>