<svg height="1270.18" viewBox="0 0 1200 336.069" width="1200mm" xmlns="http://www.w3.org/2000/svg"><g fill-rule="evenodd"><path d="M0 0h1200v336.069H0z" fill="#0a198a"/><path d="M23.21 198.903h320.794V312.77H23.21z" fill="#cd0854"/><path d="M166.776 23.22c-39.556 0-82.812 41.585-82.812 78.602V126.7h77.522V88.173h255.139V23.628zm71.113 114.468l-214.677.015v61.199h60.752v42.47c0 37.017 41.518 71.484 81.074 71.484l72.851-.087V247.89h-76.403v-49h76.403zm91.405.008l-80.28.007v61.199h94.993v49h-94.993v64.864l89.666-.102c40.456-.059 81.02-34.524 81.02-87.724 0-48.188-41.681-87.244-90.406-87.244z" fill="#fff"/></g><path d="M704.267 23.212v52.855H463.336v76.207h75.746v160.583h75.753V152.274h89.432v160.583h72.791V203.172h86.81v109.685h76.66V152.274h89.432v160.583h73.01V152.274h74.378V76.067h-236.82V23.212h-76.66v109.685h-86.81V23.212z" fill="#fff"/><path d="M777.056 23.215h86.814V132.9h-86.814zM777.056 203.17h86.814v109.69h-86.814z" fill="#cd0854" fill-rule="evenodd"/></svg>