<svg height="1048" width="2500" xmlns="http://www.w3.org/2000/svg" viewBox="0 0 108.738 45.6"><g fill="#5f3b20"><path d="M85.938 45.6H22.8a22.8 22.8 0 0 1 0-45.6h63.138a22.8 22.8 0 0 1 0 45.6M22.8 5.517a17.281 17.281 0 0 0 0 34.562h63.138a17.281 17.281 0 0 0 0-34.562z"/><path d="M18.008 31.013h4.672l7.029-16.371a2.923 2.923 0 0 0 .29-1.025h3.586a6.5 6.5 0 0 0-.936 1.614l-.06.149h1.852a6.611 6.611 0 0 1 1.031-1.8q.346-.47 1.439-1.645H19.304c-.535 0-.8.283-.8.852 0 .55.238.826.706.826h5.087a1.02 1.02 0 0 1 .646.263.743.743 0 0 1 .325.558.585.585 0 0 1-.032.2zM35.098 15.607l-5.232 11.73a3.5 3.5 0 0 0-.328 1.353q0 2.323 4.794 2.32 5.818 0 7.462-3.673l4.794-10.722q3.407-.357 4.437-1.824a.431.431 0 0 0 .085-.263.583.583 0 0 0-.233-.442.7.7 0 0 0-.468-.206.441.441 0 0 0-.267.09 3.6 3.6 0 0 1-2.087.821 2.758 2.758 0 0 1-.826-.148 3.121 3.121 0 0 0 .53-1.617c0-.977-.583-1.471-1.764-1.471a3.548 3.548 0 0 0-2.112.677 8.173 8.173 0 0 0-6 .5 5.91 5.91 0 0 0-2.785 2.875m10.433-2.525c.258 0 .381.185.381.559a1.64 1.64 0 0 1-.18.765.578.578 0 0 1-.143.028.613.613 0 0 1-.47-.237.772.772 0 0 1-.208-.527c0-.392.208-.588.62-.588m-5.532 1.556c.281-.6.643-.908 1.091-.908.863 0 1.294.643 1.294 1.939a3.537 3.537 0 0 1-.233 1.292l-4.409 9.875a2.178 2.178 0 0 1-2.027 1.53c-.844 0-1.268-.34-1.268-1.029a1.243 1.243 0 0 1 .12-.5z"/><path d="M90.091 11.939l-5 11.2a5.657 5.657 0 0 1-1.748 1.868 4.167 4.167 0 0 1-2.188 1.07c-.221 0-.328-.086-.328-.262a1.262 1.262 0 0 1 .06-.324l4.854-10.848a2.952 2.952 0 0 0 .261-1.114q0-1.59-3.526-1.589H50.11c-.526 0-.793.283-.793.852 0 .55.235.826.71.826h5.083a1.014 1.014 0 0 1 .645.263.743.743 0 0 1 .33.558.644.644 0 0 1-.035.2L53.493 20.4a9.855 9.855 0 0 0-5.761 5.35l-1.291 2.886a1.415 1.415 0 0 0-.148.612c0 .568.383 1.019 1.144 1.353a4.984 4.984 0 0 0 2.025.41 5.817 5.817 0 0 0 2.975-.762 5.16 5.16 0 0 0 2.2-2.406l2.675-6.033h4.349l.65-1.41h-4.354l2.56-5.761a2.771 2.771 0 0 0 .29-1.025h3.588a6.274 6.274 0 0 0-.941 1.614l-.058.149h1.852a6.654 6.654 0 0 1 1.008-1.763h1.46a1.015 1.015 0 0 1 .646.263.737.737 0 0 1 .325.558.647.647 0 0 1-.03.2L66.1 20.396a9.847 9.847 0 0 0-5.76 5.35l-1.291 2.886a1.415 1.415 0 0 0-.148.612c0 .568.383 1.019 1.144 1.353a4.99 4.99 0 0 0 2.029.41 5.83 5.83 0 0 0 2.97-.762 5.156 5.156 0 0 0 2.2-2.406l2.678-6.033h4.349l.645-1.41h-4.351l2.557-5.761a2.87 2.87 0 0 0 .3-1.025h3.586a6.328 6.328 0 0 0-.943 1.614l-.06.149h1.854a6.53 6.53 0 0 1 1.01-1.763h1.46a1.019 1.019 0 0 1 .646.263.747.747 0 0 1 .323.558.71.71 0 0 1-.028.2l-4.379 9.85a4.678 4.678 0 0 0-.471 1.878c0 1.176.651 1.765 1.965 1.765a10.364 10.364 0 0 0 5.262-1.707s-2.4 4.981-2.615 5.548-.7.7-1.436.7H17.274l-1.056 2.4h66.689a1.824 1.824 0 0 0 1.923-1.179l9.723-21.952zM49.905 28.461a.746.746 0 0 1-.7.464c-.277 0-.411-.1-.411-.288a.223.223 0 0 1 .03-.122l1.229-2.764c.65-1.489 1.372-2.332 2.179-2.526a275.058 275.058 0 0 0-2.327 5.235m12.612 0a.751.751 0 0 1-.7.464c-.279 0-.415-.1-.415-.288a.268.268 0 0 1 .028-.122l1.236-2.764c.648-1.489 1.37-2.332 2.175-2.526q-1.588 3.5-2.32 5.235"/></g></svg>