<svg height="1000mm" viewBox="0 0 997.016 1000" width="3768.248" xmlns="http://www.w3.org/2000/svg"><path d="m.836 890.945-.836 33.725h4.596c2.65-24.245 12.924-28.182 34.561-27.816v95.565h-12.594v5.73h43.574v-5.73h-12.655v-95.565c21.638 0 31.75 3.082 34.561 27.816h4.597l-.836-33.725zm283.412-1.791c-27.832 0-51.633 24.527-51.633 55.334 0 37.489 30.484 55.512 51.633 55.512 21.27 0 51.632-18.023 51.632-55.512 0-30.807-23.638-55.334-51.632-55.334zm0 5.85c8.802 0 31.039 1.278 31.039 49.484 0 48.45-22.237 49.96-31.04 49.96-11.45 0-30.979-4.118-30.979-49.96 0-42.38 17.166-49.484 30.98-49.484zm187.548-4.059v6.088h12.655v95.386h-12.655v5.73h42.38v-5.73h-11.4v-48.469h48.23v48.47h-11.46v5.73h42.32v-5.73h-12.475v-95.387h12.475v-6.088h-42.32v6.088h11.46v41.187h-48.23v-41.187h11.4v-6.088zm255.059 0v5.91h12.654v95.564h-12.654v5.73h43.574v-5.73h-12.535v-95.565h12.535v-5.91zm234.943-1.791c-26.039 0-48.11 21.758-48.11 51.871 0 32.803 16.792 58.975 44.827 58.975 1.304 0 10.67-.374 18.982-4.775 3.26-1.834 5.984-3.582 8.714-3.582 4.401 0 5.03 5.08 5.193 6.507h4.298l1.314-35.696h-3.94c-4.971 26.243-18.315 31.995-30.622 31.995-11.49 0-28.173-5.095-28.173-33.905v-26.562c0-34.963 17.733-38.978 28.532-38.978 19.11 0 25.895 9.635 28.054 28.95h3.224v-34.8h-4c-1.63 5.053-4.672 5.014-6.506 5.014-10.717 0-7.036-5.014-21.787-5.014zm-175.491-889.154-659.046 83.507 83.507 659.285 659.047-83.507z" fill="#911e40"/><path d="m323.047 185.101-2.865 118.665h16.116c9.21-85.287 45.531-98.974 121.65-97.833v336.418h-44.47v20.294h153.286v-20.294h-44.41v-336.418c76.038 0 111.81 10.835 121.59 97.833h16.057l-2.865-118.665z" fill="#fff"/></svg>