<svg xmlns="http://www.w3.org/2000/svg" width="2500" height="1694" viewBox="1.1099999999999994 1.2510000000000048 363 245"><g data-paper-data="{&quot;isPaintingLayer&quot;:true}" fill="none" stroke-width="none" stroke-linecap="none" stroke-miterlimit="10" font-family="none" font-weight="none" font-size="none" text-anchor="none" style="mix-blend-mode:normal"><path d="M124.574 164.851a7.386 7.386 0 1 1 14.772 0 7.386 7.386 0 0 1-14.772 0z" data-paper-data="{&quot;origPos&quot;:null}" fill="#fff" stroke="#fff" stroke-width="0" stroke-linecap="butt"/><path d="M21.11 234.251l-20-218 174 22 2 169z" data-paper-data="{&quot;origPos&quot;:null}" fill="#000" stroke="#000" stroke-width="2" stroke-linecap="butt"/><path d="M176.11 208.251l1-170 187-37-32 245z" data-paper-data="{&quot;origPos&quot;:null,&quot;index&quot;:null}" fill="#f62f10" stroke="#f62f10" stroke-width="2" stroke-linecap="butt"/><path d="M87.953 95.49l-19.546 4.073 13.448 61.752-13.148 5.964-15.572-68.697-22.061 3.866-8.29-23.437 55.719-15.719z" data-paper-data="{&quot;origPos&quot;:null,&quot;origRot&quot;:0}" fill="#fff" stroke="#000" stroke-width="0" stroke-linecap="round"/><path d="M86.262 111.942c0-23.34 18.804-42.26 42-42.26s42 18.92 42 42.26c0 23.339-18.804 42.259-42 42.259s-42-18.92-42-42.26zM172.262 130.942c0-23.34 18.804-42.26 42-42.26s42 18.92 42 42.26c0 23.339-18.804 42.259-42 42.259s-42-18.92-42-42.26z" data-paper-data="{&quot;origPos&quot;:null}" fill="#ffe800" stroke-width="0" stroke-linecap="butt"/><path d="M109.64 114.1c0 10.218-4.029 18.5-9 18.5-4.97 0-9-8.282-9-18.5 0-10.217 4.03-18.5 9-18.5 4.971 0 9 8.283 9 18.5zM247.64 124.1c0 10.218-4.029 18.5-9 18.5-4.97 0-9-8.282-9-18.5 0-10.217 4.03-18.5 9-18.5 4.971 0 9 8.283 9 18.5z" data-paper-data="{&quot;origPos&quot;:null}" fill="#000" stroke="#000" stroke-width="2" stroke-linecap="butt"/><path d="M283.01 59.6l30.59 63-1.055-64h20.04l1.056 107-17.932 1-36.918-60 3.165 60-25.315 2v-106z" data-paper-data="{&quot;origPos&quot;:null}" fill="#fff" stroke="#000" stroke-width="0" stroke-linecap="round"/></g></svg>