<svg height="1227" width="2500" xmlns="http://www.w3.org/2000/svg" viewBox="0 0 148.102 72.69"><path d="M20.171 2.426L3.109 70.264h62.055L82.23 2.426z"/><path d="M1.553 71.478L19.224 1.214h127.323l-17.665 70.264z"/><path d="M20.171 2.426h124.823l-17.056 67.84H3.111zM18.28 0l-.462 1.834-17.06 67.84L0 72.69h129.828l.462-1.834 17.054-67.838.758-3.018z" fill="#fff"/><path d="M82.51 2.426h-1.298l-17.07 67.838h63.793l17.056-67.838z" fill="red"/><g fill="#fff"><path d="M131.368 39.218c-.525 2.771-1.106 4.365-2.019 6.198-1.711 3.418-5.163 5.284-10.023 5.935-1.905.242-4.451.169-4.451.169l10.162 14.436H109.96L95.85 45.867s12.289-.038 13.564-.038c2.948 0 6.833-.862 7.918-2.887.327-.607.801-1.65.813-2.74.006-1.368-1.315-2.514-3.566-2.514-2.257 0-22.11-.019-22.11-.019l-6.993 27.899H71.214l8.957-34.761s33.813-.006 40.845-.006c7.644 0 11.231 3.85 10.352 8.417M66.159 45.183l-23.493.017-2.211 6.594h11.678l-1.905 6.373H31.412c-4.103 0-5.825-.999-5.41-3.884.464-3.271 1.686-6.038 2.795-9.071 2.266-6.133 5.534-7.688 19.138-7.688 7.22 0 20.375.004 20.375.004l2.156-6.904s-19.42-.006-24.476-.006c-19.939 0-26.763 2.333-30.58 12.086-1.286 3.313-3.222 9.42-4.082 14.449-1.022 5.933 3.566 8.249 8.449 8.415 6.746.226 40.626.116 40.626.116z"/></g></svg>