<svg height="442" width="2500" xmlns="http://www.w3.org/2000/svg" viewBox="0 0 1000 176.987"><g clip-rule="evenodd" fill="red" fill-rule="evenodd"><path d="M499.244 88.494C499.244 39.618 538.869 0 587.737 0c48.89 0 88.509 39.625 88.509 88.494 0 48.883-39.626 88.493-88.509 88.493-48.868 0-88.493-39.618-88.493-88.493zm88.493 56.043c27.3 0 49.424-25.098 49.424-56.05 0-30.946-22.125-56.051-49.424-56.051-27.284 0-49.401 25.097-49.401 56.05s22.125 56.05 49.401 56.05zM776.665 36.868V172.97h-37.283V36.868h.126-52.144V6.093h141.32v30.768h-52.019zM873.786 135.427h-.037l-14.305 37.513h-43.547L884.741 6.063h46.408L1000 172.94h-43.554l-14.305-37.513h-68.355zm34.17-28.166h23.46l-.015.007-23.29-61.076h-.325l-23.304 61.076-.007-.007h23.482zM89.316 36.868V172.97h-37.29V36.868h.126H0V6.093h141.327v30.768H89.316zM150.874 88.494C150.874 39.618 190.499 0 239.382 0c48.876 0 88.5 39.625 88.5 88.494 0 48.883-39.624 88.493-88.5 88.493-48.883 0-88.508-39.618-88.508-88.493zm88.508 56.043c27.284 0 49.417-25.098 49.417-56.05 0-30.946-22.125-56.051-49.417-56.051-27.291 0-49.417 25.097-49.417 56.05s22.126 56.05 49.417 56.05zM413.56 172.97h18.908V109.603l65.049-103.51h-43.539l-40.418 70.14-40.411-70.14h-43.554l65.056 103.51v63.359h18.909z"/></g></svg>