<svg height="1406" width="2500" xmlns="http://www.w3.org/2000/svg" viewBox="32.80200000000001 97 489.456 104.292"><path d="M181 109.88v12.88l-6.25.461c-3.437.253-7.825.011-9.75-.537-5.653-1.613-21.851-1.173-27 .733-9.96 3.685-15.394 9.883-16.641 18.977-1.267 9.247 4.961 18.029 16.167 22.797 2.186.929 6.111 2.592 8.724 3.693 4.165 1.757 4.75 2.373 4.75 5.001 0 3.659-1.158 4.456-6.424 4.421-3.832-.026-14.925-4.443-16.154-6.432-1.109-1.795-2.398-.726-5.616 4.656l-3.306 5.53-.5-29.28-.5-29.28h-25l-.314 2.723-.314 2.722-5.274-2.976c-22.095-12.47-48.444 1.144-52.773 27.267-2.023 12.211 2.155 25.796 10.5 34.142 5.639 5.638 10.619 8.194 18.969 9.732 5.574 1.027 7.57.964 13.157-.415 3.623-.894 8.575-2.993 11.004-4.664l4.418-3.039.313 3.254.314 3.254h25l.299-2.571.299-2.57 5.394 2.72c14.863 7.498 39.268 5.349 48.21-4.244 5.578-5.984 7.014-17.658 3.153-25.635-2.356-4.866-11.286-11.498-17.154-12.74-1.76-.373-5.338-1.584-7.951-2.692-3.721-1.578-4.75-2.516-4.75-4.332 0-1.275.502-2.628 1.116-3.007 2.178-1.347 11.497-.568 16.655 1.392 4.826 1.834 5.311 1.86 6.202.334.571-.977.979-1.143.997-.405.02.829 1.713 1.25 5.03 1.25h5v16.318c0 23.165 2.569 30.526 12.426 35.598 3.962 2.039 6.31 2.523 12 2.473 6.538-.057 16.928-2.534 18.016-4.295.256-.414-.183-2.906-.975-5.539l-1.441-4.785 4.562 4.204c9.174 8.457 21.035 11.938 34.543 10.14 10.353-1.379 19.078-5.447 24.653-11.495l4.038-4.382 1.083 4.298c1.295 5.145 7.44 10.932 12.644 11.908 10.682 2.004 21.499-8.919 19-19.186-1.876-7.71-8.661-13.261-16.2-13.253-5.998.006-13.474 5.363-14.94 10.707-.596 2.174-.751 2.137-9.395-2.204l-8.788-4.414-1.863 2.06C261.137 181.354 240 177.106 240 165.05c0-2.014.457-2.05 26-2.05h26l-.008-2.25c-.018-5.57-2.28-15.695-4.558-20.411-4.662-9.647-15.048-16.582-27.473-18.345-13.288-1.884-24.521 1.465-34.565 10.307L221 136.17V123h-15V97h-25zm182.891 12.497c-2.534.683-6.584 2.699-9 4.481l-4.391 3.238-.31-3.548-.311-3.548H325v73h25v-22.032c0-23.661.591-27.168 5.117-30.337 4.559-3.193 12.514-1.648 15.581 3.027 1.562 2.381 1.869 5.812 2.302 25.794l.5 23.048h25l.5-23.5c.356-16.748.877-24.16 1.811-25.798 2.441-4.279 10.117-5.539 15.255-2.504 5.18 3.06 5.934 6.977 5.934 30.822V196h25l.052-9.75c.051-9.404.111-9.661 1.699-7.25 3.322 5.047 11.597 12.27 16.769 14.638 16.719 7.654 38.088 3.972 49.835-8.586 2.555-2.732 4.645-5.431 4.645-5.999s-3.999-3.041-8.887-5.496l-8.887-4.464-1.863 2.06C491.189 181.297 470 177.038 470 165.05c0-2.014.456-2.05 26.129-2.05h26.129l-.706-7.169c-1.657-16.811-9.713-27.432-24.552-32.367-7.222-2.402-19.702-2.433-26.748-.067-7.007 2.353-16.157 9.234-20.005 15.044l-3.127 4.72-1.038-3.83c-1.813-6.687-5.518-10.928-12.586-14.408-11.965-5.89-23.898-4.124-33.798 5.001l-4.451 4.103-1.648-2.516c-2.483-3.79-8.907-7.611-15.345-9.126-6.89-1.621-8.374-1.622-14.363-.008m-116.513 17.005c-3.481 1.576-6.378 5.137-6.378 7.841 0 1.612 1.209 1.777 13.003 1.777h13.003l-1.295-3.173c-.712-1.746-2.462-4.045-3.889-5.11-3.348-2.5-10.425-3.154-14.444-1.335m230.935-.329c-3.559 1.085-7.313 5.234-7.313 8.082 0 1.724.98 1.865 13.003 1.865h13.003l-1.295-3.173c-2.492-6.108-9.998-9.03-17.398-6.774M69.985 145.25c-5.685 2.881-8.414 7.503-8.414 14.25 0 6.91 2.708 11.375 8.708 14.362 5.459 2.717 11.069 2.429 16.455-.846 9.837-5.983 8.522-23.27-2.139-28.112-5.428-2.465-9.242-2.375-14.61.346m136.021 9.5c.008 17.181 1.552 21.152 7.633 19.626 1.775-.446 2.301-1.085 1.851-2.249-2.738-7.084-2.701-17.444.091-25.357l1.33-3.77H206z" fill="#040404" fill-rule="evenodd"/></svg>