<svg height="2500" viewBox="0 0 377.99 416.52" width="2269" xmlns="http://www.w3.org/2000/svg" xmlns:xlink="http://www.w3.org/1999/xlink"><linearGradient id="a" gradientUnits="userSpaceOnUse" x1="84.946" x2="326.81" y1="5.97" y2="368.067"><stop offset="0" stop-color="#eedd73"/><stop offset=".333" stop-color="#ca9d38"/><stop offset=".688" stop-color="#e2cf8a"/><stop offset="1" stop-color="#b48535"/></linearGradient><linearGradient id="b"><stop offset="0" stop-color="#f3f0a3"/><stop offset=".333" stop-color="#b58632"/><stop offset=".688" stop-color="#f2ed97"/><stop offset="1" stop-color="#af8030"/></linearGradient><linearGradient id="c" gradientUnits="userSpaceOnUse" x1="192.206" x2="185.215" xlink:href="#b" y1="141.572" y2="349.882"/><linearGradient id="d" gradientTransform="matrix(102.52324078 142.60264468 142.60264468 -102.52324078 100792.859335 84822.481581)" gradientUnits="userSpaceOnUse" x1="-725.804" x2="-724.804" xlink:href="#b" y1="-183.947" y2="-183.947"/><linearGradient id="e" gradientUnits="userSpaceOnUse" x1="260.73" x2="103.448" xlink:href="#b" y1="218.083" y2="259.325"/><linearGradient id="f" gradientUnits="userSpaceOnUse" x1="134.461" x2="248.054" xlink:href="#b" y1="196.464" y2="297.124"/><linearGradient id="g"><stop offset="0" stop-color="#b58632"/><stop offset=".36" stop-color="#ebdc80"/><stop offset=".645" stop-color="#e0b94b"/><stop offset="1" stop-color="#f3f2aa"/></linearGradient><linearGradient id="h" gradientUnits="userSpaceOnUse" x1="185.57" x2="191.948" xlink:href="#g" y1="125.09" y2="135.663"/><linearGradient id="i" gradientUnits="userSpaceOnUse" x1="289.376" x2="295.754" xlink:href="#g" y1="201.416" y2="211.988"/><linearGradient id="j" gradientUnits="userSpaceOnUse" x1="250.026" x2="256.405" xlink:href="#g" y1="321.488" y2="332.061"/><linearGradient id="k" gradientUnits="userSpaceOnUse" x1="123.196" x2="129.575" xlink:href="#g" y1="318.197" y2="328.77"/><linearGradient id="l" gradientUnits="userSpaceOnUse" x1="81.946" x2="88.325" xlink:href="#g" y1="202.346" y2="212.919"/><linearGradient id="m"><stop offset="0" stop-color="#924b20"/><stop offset="1" stop-color="#ac6f29"/></linearGradient><linearGradient id="n" gradientUnits="userSpaceOnUse" x1="232.936" x2="248.066" xlink:href="#m" y1="212.203" y2="212.203"/><linearGradient id="o"><stop offset="0" stop-color="#af8030"/><stop offset=".333" stop-color="#ecd167"/><stop offset=".667" stop-color="#dbb242"/><stop offset="1" stop-color="#f2ed98"/></linearGradient><linearGradient id="p" gradientUnits="userSpaceOnUse" x1="255.764" x2="218.541" xlink:href="#o" y1="211.224" y2="196.369"/><linearGradient id="q" gradientUnits="userSpaceOnUse" x1="216.132" x2="227.754" xlink:href="#m" y1="185.863" y2="188.834"/><linearGradient id="r" gradientUnits="userSpaceOnUse" x1="131.005" x2="146.146" xlink:href="#m" y1="212.203" y2="212.203"/><linearGradient id="s" gradientUnits="userSpaceOnUse" x1="116.486" x2="164.766" xlink:href="#o" y1="204.328" y2="204.328"/><linearGradient id="t" gradientUnits="userSpaceOnUse" x1="162.471" x2="150.195" xlink:href="#m" y1="185.949" y2="191.935"/><linearGradient id="u" gradientUnits="userSpaceOnUse" x1="118.906" x2="259.746" xlink:href="#o" y1="181.708" y2="181.708"/><linearGradient id="v" gradientTransform="matrix(148.09 0 0 -148.09 107599.797 -27050.857)" gradientUnits="userSpaceOnUse" x1="-725.804" x2="-724.804" y1="-183.947" y2="-183.947"><stop offset="0" stop-color="#b58632"/><stop offset=".191" stop-color="#ebdc80"/><stop offset=".365" stop-color="#b58632"/><stop offset=".598" stop-color="#ebdc80"/><stop offset=".809" stop-color="#e0b94b"/><stop offset="1" stop-color="#f3f2aa"/></linearGradient><linearGradient id="w"><stop offset="0" stop-color="#ba8c34"/><stop offset=".331" stop-color="#f3ec97"/><stop offset=".671" stop-color="#c89a37"/><stop offset="1" stop-color="#f3efa2"/></linearGradient><linearGradient id="x" gradientUnits="userSpaceOnUse" x1="250.685" x2="228.956" xlink:href="#w" y1="301.949" y2="304.512"/><linearGradient id="y" gradientUnits="userSpaceOnUse" x1="128.006" x2="149.356" xlink:href="#w" y1="303.008" y2="303.008"/><linearGradient id="z" gradientUnits="userSpaceOnUse" x1="127.916" x2="250.896" xlink:href="#w" y1="296.438" y2="296.438"/><linearGradient id="A" gradientTransform="matrix(116.50496606 34.9509485 34.9509485 -116.50496606 91113.604993 4210.592408)" gradientUnits="userSpaceOnUse" x1="-725.804" x2="-724.804" y1="-183.947" y2="-183.947"><stop offset="0" stop-color="#f2ec9f"/><stop offset=".322" stop-color="#b98a33"/><stop offset=".622" stop-color="#f2ec9f"/><stop offset=".872" stop-color="#cea039"/><stop offset="1" stop-color="#ba8c34"/></linearGradient><linearGradient id="B"><stop offset="0" stop-color="#f2f2ab"/><stop offset=".328" stop-color="#d8ac3d"/><stop offset=".659" stop-color="#eddf7d"/><stop offset="1" stop-color="#b78732"/></linearGradient><linearGradient id="C" gradientUnits="userSpaceOnUse" x1="140.133" x2="238.492" xlink:href="#B" y1="238.5" y2="238.5"/><linearGradient id="D" gradientUnits="userSpaceOnUse" x1="189.312" x2="189.312" xlink:href="#B" y1="181.879" y2="281.375"/><linearGradient id="E"><stop offset="0" stop-color="#fff"/><stop offset=".222" stop-color="#e4c35a"/><stop offset=".508" stop-color="#fff"/><stop offset=".772" stop-color="#f0e683"/><stop offset="1" stop-color="#fff"/></linearGradient><linearGradient id="F" gradientUnits="userSpaceOnUse" x1="169.665" x2="205.563" xlink:href="#E" y1="238.626" y2="238.626"/><linearGradient id="G" gradientUnits="userSpaceOnUse" x1="192.604" x2="208.186" xlink:href="#E" y1="234.22" y2="234.22"/><radialGradient id="H" cx="189.199" cy="236.538" gradientUnits="userSpaceOnUse" r="10.162"><stop offset="0" stop-color="#f0e683"/><stop offset=".476" stop-color="#fff"/><stop offset="1" stop-color="#f0e683"/></radialGradient><radialGradient id="I" cx="188.983" cy="237.854" gradientUnits="userSpaceOnUse" r="11.128" xlink:href="#B"/><linearGradient id="J" gradientUnits="userSpaceOnUse" x1="170.863" x2="176.215" xlink:href="#B" y1="214.113" y2="214.113"/><linearGradient id="K" gradientUnits="userSpaceOnUse" x1="174.718" x2="179.83" xlink:href="#B" y1="211.37" y2="211.37"/><linearGradient id="L" gradientUnits="userSpaceOnUse" x1="180.718" x2="186.151" xlink:href="#B" y1="210.396" y2="210.396"/><linearGradient id="M" gradientUnits="userSpaceOnUse" x1="185.47" x2="190.138" xlink:href="#B" y1="209.739" y2="209.739"/><linearGradient id="N" gradientUnits="userSpaceOnUse" x1="190.596" x2="195.269" xlink:href="#B" y1="210.244" y2="210.244"/><linearGradient id="O" gradientUnits="userSpaceOnUse" x1="197.336" x2="203.333" xlink:href="#B" y1="212.269" y2="212.269"/><linearGradient id="P" gradientUnits="userSpaceOnUse" x1="202.493" x2="208.746" xlink:href="#B" y1="214.248" y2="214.248"/><linearGradient id="Q" gradientUnits="userSpaceOnUse" x1="177.743" x2="182.784" xlink:href="#B" y1="264.699" y2="264.699"/><linearGradient id="R" gradientUnits="userSpaceOnUse" x1="182.371" x2="186.771" xlink:href="#B" y1="266.265" y2="266.265"/><linearGradient id="S" gradientUnits="userSpaceOnUse" x1="187.093" x2="192.696" xlink:href="#B" y1="266.326" y2="266.326"/><linearGradient id="T" gradientUnits="userSpaceOnUse" x1="193.558" x2="198.927" xlink:href="#B" y1="265.614" y2="265.614"/><linearGradient id="U" gradientUnits="userSpaceOnUse" x1="198.35" x2="203.31" xlink:href="#B" y1="263.726" y2="263.726"/><linearGradient id="V"><stop offset=".021" stop-color="#f2ed95"/><stop offset=".291" stop-color="#f2eda1"/><stop offset=".545" stop-color="#e1bc57"/><stop offset=".818" stop-color="#f2eda0"/><stop offset="1" stop-color="#e7c95e"/></linearGradient><linearGradient id="W" gradientUnits="userSpaceOnUse" x1="56.358" x2="92.358" xlink:href="#V" y1="59.868" y2="76.645"/><linearGradient id="X" gradientUnits="userSpaceOnUse" x1="93.558" x2="136.548" xlink:href="#V" y1="45.549" y2="74.209"/><linearGradient id="Y" gradientUnits="userSpaceOnUse" x1="142.537" x2="167.003" xlink:href="#V" y1="40.48" y2="65.296"/><linearGradient id="Z" gradientUnits="userSpaceOnUse" x1="178.631" x2="210.088" xlink:href="#V" y1="38.87" y2="75.569"/><linearGradient id="aa" gradientUnits="userSpaceOnUse" x1="217.415" x2="238.735" xlink:href="#V" y1="26.961" y2="75.194"/><linearGradient id="ab" gradientUnits="userSpaceOnUse" x1="251.313" x2="274.031" xlink:href="#V" y1="38.88" y2="85.366"/><linearGradient id="ac" gradientUnits="userSpaceOnUse" x1="292.853" x2="307.882" xlink:href="#V" y1="46.618" y2="93.453"/><path d="m376.36 63.4-72.82-63.4h-225.01l-78.27 64.5-.1 1.98c0 .07-.16 3.18-.16 8.93 0 18.77 1.64 65.66 15.55 126.81 13.91 61.14 40.1 136.55 89.25 212.25l1.33 2.05h167.71l1.34-1.98c45.54-67.27 71.25-132.77 85.57-188.52s17.24-101.75 17.24-130.08c0-19.54-1.39-30.69-1.41-30.85zm-24.33 160.4c-13.95 54.34-38.91 118.11-82.98 183.73h-158.01c-47.6-73.94-73.11-147.52-86.71-207.3-13.73-60.32-15.33-106.57-15.33-124.81 0-2.79.04-4.93.07-6.36v-.16l72.69-59.9h218.41l67.65 58.9c.37 3.7 1.16 13.44 1.16 28.05.01 27.72-2.86 72.97-16.95 127.85z" fill="url(#a)"/><path d="m300.17 9h-218.41l-72.68 59.9v.16c-.04 1.43-.08 3.56-.08 6.36 0 18.24 1.6 64.49 15.33 124.82 13.6 59.78 39.11 133.36 86.71 207.3h158.01c44.07-65.62 69.03-129.4 82.98-183.73 14.09-54.88 16.96-100.13 16.96-127.85 0-14.62-.8-24.35-1.16-28.05z"/><path d="m111.55 164.49s39.9-18.32 69.73 3.58l-6.29 55.69-69.67 1.4z" fill="#272560"/><path d="m111.55 164.49s-22.08 9.06-40.14 16.98c0 0-30.06 13.28-49.28 7.57 0 0 14.62 67.11 32.62 108.7l44.04-18.35s32.33-13.98 60.99-3.67l-6.47-51.53-47.99.96z" fill="#ea1f29"/><path d="m24.35 198.74s18.51 4.05 53-11.09c0 0 28.19-12.55 33.26-14.08l-.96 9.32s-20.54 7.78-39.99 16.35c0 0-26.9 11.39-43.16 8.41zm4.4 17.83s14.82.9 34.97-6.68l45.08-18.66-.9 8.75-40.42 16.62s-20.53 9.37-36.5 8.55zm4.64 17.46s16.82-1.53 34.88-9.45l38.8-16.44-1 9.69-32.91 13.29s-24.28 10.92-37.48 11.04zm4.79 16.69s18.31-3.07 37.65-12.27c0 0 27.15-11.65 32.27-13.34l7.57 6.7s-14.35 4.31-38.75 15.03c0 0-23.63 10.5-36.19 12.24zm5.02 16s14.46-2.41 45.1-16.86c0 0 25.17-11.07 34.95-11.18l7.46 7.11s-9.9-.7-42.06 12.23c0 0-27.52 13.87-42.77 16.66zm5.5 15.83 2.83 7.41s22.21-8.65 44.69-18.09c0 0 27.96-11.42 42.29-8.5l1.75-8.97s-12.58-2.8-39.61 7.11c0 0-42.97 18.43-51.95 21.04zm68.06-116.84-1.02 2.36-2.3 1.14 1.4.93-.56 2.62 2.22-1.95 1.69.23-.08-2.04 1.79-2.09-2.24.55zm15.05-4.31-1.11 2.24-2.28.81 1.51 1.27-.8 2.34 2.26-1.82 1.76.93-.36-2.16 1.92-1.96-2.2.29zm14.65-1.86-1.33 2.24-2.01.29 1.67 1.52-.94 2.25 2.08-1.39 1.94 1.29-.48-2.3 1.84-1.4-2.25-.37zm14.19 1.8-1.12 1.68-1.98-.1 1.55 2.71 4.61-.7-2.49-1.44zm-22.4 4.96-1.25 2.3-2.04.46 1.43 1.28-.76 2.42 2.25-1.63 1.83 1.17-.52-2.45 1.98-1.54-2.13.17zm-7.81 7.47-1.22 2.41-1.99.61 1.61 1.16-.91 2.36 2.18-1.82 1.99 1.55-.54-2.73 1.9-1.9-2.32.4zm-7.05-4.24-.99 2.28-2.09 1.11 1.42.85-.83 2.43 2.25-1.79 1.79.78-.38-2.33 1.88-1.84-2.33.61zm-7.93 8.61-.94 2.36-2.34 1.16 1.72.92-.89 2.38 2.16-2.08 1.84.66-.34-2.27 1.8-1.86-2.16.63zm6.77 3.84-1.06 2.3-2.3.96 1.46 1.01-.61 2.25 1.95-1.8 2.12.95-.62-2.28 1.79-1.86-2.13.61zm-7.95 8.57-1.05 2.29-2.25 1.18 1.55.83-.74 2.47 2.11-2.03 2.15.7-.73-2.36 1.93-1.79-2.3.59z" fill="#fff"/><path d="m194.56 173.2s25.86-20.04 66.41-10.25l-.93 110.91s-34.25-9.32-54.52-1.17z" fill="#192858"/><path d="m260.96 162.95 44.74 15.61s34.13 12.02 54.63 7.59c0 0-7.1 37.26-13.85 56.49 0 0-30.49.24-85.96-26.56z" fill="#fff"/><path d="m346.48 242.64s-8.97 32.56-17.88 53.18c0 0-19.4-4.37-35.3-10.66 0 0-22.76-9.03-33.26-11.3l.49-57.78c-.01 0 66.78 27.9 85.95 26.56z" fill="#c71f3f"/><path d="m286.92 207.12-64.69-8.42-33.07-61.69-31.69 60.98-64.41 10.33 48.43 46.96-11.29 62.81 59.72-31.51 61.59 35.75-13.53-67.8zm-41.69 107.35-57.17-33.18-53.14 30.69 8.74-56.36.45-2.93-43.95-42.61 58.58-9.4.84-1.54 29.56-54.29 28.17 56.42 61.37 7.87-46.89 42.88z" fill="url(#c)"/><path d="m291.29 205.68-51.14 49.52 14.19 71.08-64.46-37.42-62.38 32.91 11.84-65.8-50.54-48.99 67.36-10.81 32.09-61.77.88-1.68 34.38 64.13zm-53.31 48.85 48.94-47.41-64.69-8.42-33.07-61.69-31.69 60.98-64.41 10.33 48.43 46.96-11.29 62.81 59.72-31.51 61.59 35.75z" fill="url(#d)"/><path d="m274.84 210.36-44.95 41.07 12.87 59.45-54.66-31.58-50.95 29.32 8.83-56.54-42.12-40.83 56.02-8.99 29.28-53.5 27.04 54.12z" fill="url(#e)"/><path d="m278.68 209.14-46.89 42.88 13.44 62.45-57.17-33.18-53.14 30.69 8.74-56.36.45-2.93-43.95-42.61 58.58-9.4.84-1.54 29.56-54.29 28.17 56.42zm-48.79 42.29 44.95-41.07-58.64-7.48-27.04-54.12-29.28 53.5-56.02 8.99 42.12 40.83-8.83 56.54 50.95-29.32 54.66 31.58z" fill="url(#f)"/><circle cx="189.08" cy="130.91" fill="url(#h)" r="6.87"/><circle cx="189.07" cy="130.92" fill="#f2f1a9" r="4.74"/><circle cx="292.89" cy="207.23" fill="url(#i)" r="6.87"/><circle cx="292.88" cy="207.24" fill="#f2f1a9" r="4.74"/><circle cx="253.54" cy="327.31" fill="url(#j)" r="6.87"/><circle cx="253.53" cy="327.31" fill="#f2f1a9" r="4.74"/><circle cx="126.71" cy="324.01" fill="url(#k)" r="6.87"/><circle cx="126.7" cy="324.02" fill="#f2f1a9" r="4.74"/><circle cx="85.46" cy="208.16" fill="url(#l)" r="6.87"/><circle cx="85.45" cy="208.17" fill="#f2f1a9" r="4.74"/><path d="m247.95 216.54c.07.38.12.85.12 1.24 0 .26-.03.49-.07.61l-.05.11c-.29.09-.58.14-.87.14-.8 0-1.65-.32-2.44-.81-.8-.49-1.53-1.14-2.09-1.74-2.02-2.17-3.78-4.6-6.06-6.68-.3-.27-.82-.84-1.39-1.35-.29-.25-.59-.5-.9-.7s-.62-.36-.98-.42c-.12-.02-.21-.04-.28-.06l.11-.1c.21-.18.53-.37.78-.5.13-.07.24-.13.32-.17l.11-.05c.5-.21 1.01-.3 1.53-.3 1.64 0 3.41.94 4.83 1.95 2.78 1.95 6.15 4.85 7.15 8.02.03.09.11.42.18.81z" fill="url(#n)"/><path d="m261.77 212.72-.01-.02-.01-.02s-.16-.32-.47-.9c-.3-.58-.76-1.42-1.34-2.44a100.11 100.11 0 0 0 -4.69-7.49l-15.51 2.61-.17.03 1.45-1.18.02-.03c.03-.04.08-.12.14-.26.12-.27.26-.78.26-1.64 0-.12-.01-.25-.02-.39l-.04-.07c-.09-.13-.21-.31-.38-.55-.33-.48-.85-1.17-1.55-2.01-1.39-1.67-3.51-3.93-6.48-6.36-.92.05-1.87.07-2.84.07-4.18 0-8.73-.44-12.99-1.76l-.04-.02-.04-.02c-.29-.15-.82-.36-1.35-.53s-1.08-.28-1.4-.28c.07.1.17.24.33.41.35.4.95.94 1.83 1.64l21.33 13.6c.78.25 1.53.61 2.22 1.02.42.24.81.5 1.18.76 2.83 2.02 6.36 4.94 7.53 8.54.05.17.13.51.2.94.08.42.14.93.14 1.41 0 .24-.01.47-.06.7l-.04.15c.33.06.75.13 1.26.2 1.23.18 2.89.36 4.65.36 2.57 0 5.31-.4 7.13-1.64l.04-.06c.05-.1.13-.25.21-.44.16-.39.32-.96.32-1.64 0-.76-.19-1.67-.81-2.69z" fill="url(#p)"/><path d="m217.47 189.36c-.37-.19-.9-.4-1.47-.58-.44-.13-.87-.22-1.29-.27l3.16-5.41c5.77 2.37 10.35 5.21 13.88 7.93-.54.02-1.07.04-1.62.04-4.1.01-8.55-.43-12.66-1.71z" fill="url(#q)"/><path d="m145.78 206.59c.15.1.27.2.37.29-.08.02-.17.04-.29.06-.36.06-.67.22-.99.42-.46.3-.9.7-1.31 1.09-.39.39-.75.76-.97.96-2.28 2.08-4.04 4.51-6.06 6.68-.56.6-1.29 1.25-2.09 1.74-.79.49-1.64.81-2.44.81-.3 0-.59-.05-.87-.14l-.02-.03c-.06-.1-.11-.37-.1-.69 0-.39.05-.86.12-1.24.07-.39.15-.72.18-.81 1-3.17 4.37-6.07 7.15-8.02 1.42-1.01 3.19-1.95 4.83-1.95.52 0 1.03.09 1.53.3l.05.02c.16.08.57.28.91.51z" fill="url(#r)"/><path d="m163.37 189.74c-.53.17-1.06.38-1.35.53l-.04.02-.04.02c-4.24 1.33-8.79 1.76-12.96 1.76-.91 0-1.79-.02-2.65-.06-2.38 1.71-4.66 3.55-6.33 5.3-1.72 1.78-2.76 3.5-2.74 4.73 0 .34.07.65.21.94l.42.85-14.01-2.05c-2.98 4.32-5.17 8.27-6.08 9.99-.31.59-.47.91-.47.91l-.01.02-.01.02c-.63 1.03-.81 1.94-.82 2.7 0 1.1.42 1.9.57 2.13 1.82 1.24 4.57 1.64 7.14 1.64 2.5 0 4.79-.36 5.91-.56-.07-.27-.1-.56-.1-.85 0-.48.06-.99.13-1.41.08-.43.16-.77.21-.94 1.17-3.6 4.7-6.52 7.53-8.54.37-.26.76-.52 1.18-.76.69-.41 1.44-.77 2.22-1.02l21.33-13.6c.83-.66 1.4-1.17 1.76-1.56.2-.2.32-.37.4-.49-.32 0-.87.11-1.4.28z" fill="url(#s)"/><path d="m161.21 183.11 3.16 5.4c-.42.05-.85.14-1.29.27-.57.18-1.1.39-1.47.58-4.1 1.28-8.54 1.71-12.63 1.71-.44 0-.85-.02-1.28-.02 2.42-1.67 4.84-3.18 6.74-4.31 1.11-.66 2.05-1.2 2.71-1.57.66-.38 1.04-.58 1.04-.58.97-.53 1.98-1.02 3.02-1.48z" fill="url(#t)"/><path d="m136.32 202.59-12.61-1.84-3.57-.52c-.11-.07-.36-.23-.61-.51-.31-.36-.61-.88-.62-1.66 0-.58.17-1.31.68-2.23l.01-.01v-.01l.03-.05c.54-1.11 10.15-19.8 36.57-29.14h.01l.02-.01s.05-.02.16-.07c1.61-.67 15.29-6.15 33.69-6.15 5.7 0 11.85.52 18.24 1.88h.01s.15.03.43.08c2.14.43 11.92 2.57 22.62 7.92s22.31 13.9 28.17 27.1l.01.01c.01.02.19.45.19.95 0 .35-.08.72-.34 1.08-.25.35-.71.71-1.54.98l-2.47.42-13.16 2.21c.11-.4.2-.93.2-1.64 0-.18-.01-.37-.02-.57l-.01-.12-.06-.11c-.02-.04-2.7-4.44-8.88-9.47-3.81-3.1-8.95-6.41-15.61-9.1-7.01-2.85-15.71-4.97-26.31-5.35h-.36c-2.49 0-17.9.2-29.98 5.35-1.2.52-2.37 1.08-3.5 1.7-.04.02-6.15 3.33-11.83 7.39-2.45 1.76-4.83 3.66-6.61 5.52-1.77 1.87-2.99 3.67-3.01 5.42 0 .19.03.37.06.55z" fill="url(#u)"/><path d="m216 188.78c.57.18 1.1.39 1.47.58 4.11 1.28 8.56 1.72 12.66 1.71.55 0 1.08-.02 1.62-.04-3.53-2.72-8.11-5.56-13.88-7.93l-3.16 5.41c.42.05.85.14 1.29.27zm32.07 29c0-.39-.05-.86-.12-1.24-.07-.39-.15-.72-.18-.81-1-3.17-4.37-6.07-7.15-8.02-1.42-1.01-3.19-1.95-4.83-1.95-.52 0-1.03.09-1.53.3l-.11.05c-.08.04-.19.1-.32.17-.25.13-.57.32-.78.5l-.11.1c.07.02.16.04.28.06.36.06.67.22.98.42s.61.45.9.7c.57.51 1.09 1.08 1.39 1.35 2.28 2.08 4.04 4.51 6.06 6.68.56.6 1.29 1.25 2.09 1.74.79.49 1.64.81 2.44.81.29 0 .58-.05.87-.14l.05-.11c.04-.12.07-.35.07-.61zm14.19-.73c.16-.39.32-.96.32-1.64 0-.76-.19-1.67-.81-2.69l-.01-.02-.01-.02s-.16-.32-.47-.9c-.3-.58-.76-1.42-1.34-2.44a100.11 100.11 0 0 0 -4.69-7.49l-15.51 2.61-.17.03 1.45-1.18.02-.03c.03-.04.08-.12.14-.26.12-.27.26-.78.26-1.64 0-.12-.01-.25-.02-.39l-.04-.07c-.09-.13-.21-.31-.38-.55-.33-.48-.85-1.17-1.55-2.01-1.39-1.67-3.51-3.93-6.48-6.36-.92.05-1.87.07-2.84.07-4.18 0-8.73-.44-12.99-1.76l-.04-.02-.04-.02c-.29-.15-.82-.36-1.35-.53s-1.08-.28-1.4-.28c.07.1.17.24.33.41.35.4.95.94 1.83 1.64l21.33 13.6c.78.25 1.53.61 2.22 1.02.42.24.81.5 1.18.76 2.83 2.02 6.36 4.94 7.53 8.54.05.17.13.51.2.94.08.42.14.93.14 1.41 0 .24-.01.47-.06.7l-.04.15c.33.06.75.13 1.26.2 1.23.18 2.89.36 4.65.36 2.57 0 5.31-.4 7.13-1.64l.04-.06c.05-.1.13-.25.21-.44zm-97.89-28.54-3.16-5.4c-1.04.46-2.05.95-3.02 1.48 0 0-.38.2-1.04.58-.66.37-1.6.91-2.71 1.57-1.9 1.13-4.32 2.64-6.74 4.31.43 0 .84.02 1.28.02 4.09 0 8.53-.43 12.63-1.71.37-.19.9-.4 1.47-.58.44-.13.87-.22 1.29-.27zm-25.1 8.11c1.78-1.86 4.16-3.76 6.61-5.52 5.68-4.06 11.79-7.37 11.83-7.39 1.13-.62 2.3-1.18 3.5-1.7 12.08-5.15 27.49-5.35 29.98-5.35h.36c10.6.38 19.3 2.5 26.31 5.35 6.66 2.69 11.8 6 15.61 9.1 6.18 5.03 8.86 9.43 8.88 9.47l.06.11.01.12c.01.2.02.39.02.57 0 .71-.09 1.24-.2 1.64l13.16-2.21 2.47-.42c.83-.27 1.29-.63 1.54-.98.26-.36.34-.73.34-1.08 0-.5-.18-.93-.19-.95l-.01-.01c-5.86-13.2-17.47-21.75-28.17-27.1s-20.48-7.49-22.62-7.92c-.28-.05-.43-.08-.43-.08h-.01c-6.39-1.36-12.54-1.88-18.24-1.88-18.4 0-32.08 5.48-33.69 6.15-.11.05-.16.07-.16.07l-.02.01h-.01c-26.42 9.34-36.03 28.03-36.57 29.14l-.03.05v.01l-.01.01c-.51.92-.68 1.65-.68 2.23.01.78.31 1.3.62 1.66.25.28.5.44.61.51l3.57.52 12.61 1.84c-.03-.18-.06-.36-.06-.55.02-1.75 1.24-3.55 3.01-5.42zm2.01 8.49 21.33-13.6c.83-.66 1.4-1.17 1.76-1.56.2-.2.32-.37.4-.49-.32 0-.87.11-1.4.28s-1.06.38-1.35.53l-.04.02-.04.02c-4.24 1.33-8.79 1.76-12.96 1.76-.91 0-1.79-.02-2.65-.06-2.38 1.71-4.66 3.55-6.33 5.3-1.72 1.78-2.76 3.5-2.74 4.73 0 .34.07.65.21.94l.42.85-14.01-2.05c-2.98 4.32-5.17 8.27-6.08 9.99-.31.59-.47.91-.47.91l-.01.02-.01.02c-.63 1.03-.81 1.94-.82 2.7 0 1.1.42 1.9.57 2.13 1.82 1.24 4.57 1.64 7.14 1.64 2.5 0 4.79-.36 5.91-.56-.07-.27-.1-.56-.1-.85 0-.48.06-.99.13-1.41.08-.43.16-.77.21-.94 1.17-3.6 4.7-6.52 7.53-8.54.37-.26.76-.52 1.18-.76.69-.41 1.44-.77 2.22-1.02zm5.56 2.56c-.23.13-.49.2-.83.26-.13.01-.35.11-.59.27-.24.15-.51.37-.77.61-.53.47-1.03 1.01-1.39 1.34-2.18 1.99-3.92 4.39-6 6.62-.61.66-1.4 1.36-2.29 1.91-.9.55-1.91.95-2.97.96-.35 0-.7-.06-1.05-.16-.57.12-3.47.71-6.75.71-2.7-.01-5.66-.39-7.79-1.86l-.07-.05-.05-.07c-.03-.05-.79-1.11-.8-2.79 0-.92.24-2.02.94-3.18.01-.02 2.47-4.94 6.34-10.62l-2.94-.43-.07-.03c-.03-.02-.48-.24-.93-.73-.46-.49-.92-1.28-.92-2.37 0-.77.23-1.66.79-2.69.03-.06 9.54-19.92 37.14-29.68.3-.13 14.59-6.3 34.24-6.3 5.75 0 11.97.53 18.43 1.9.06.01 9.81 1.74 21.17 7.05 5.68 2.65 11.77 6.21 17.25 10.9 5.47 4.69 10.33 10.51 13.53 17.72l.01.01c.02.06.28.6.28 1.36 0 .5-.12 1.11-.53 1.66-.4.56-1.07 1.05-2.07 1.37l-.03.01-1.78.29c3.86 5.66 6.3 10.56 6.31 10.58.69 1.16.93 2.25.93 3.17 0 1.69-.77 2.75-.81 2.8l-.04.07-.07.05c-2.13 1.47-5.08 1.85-7.78 1.86-3.28 0-6.18-.59-6.75-.71-.35.1-.7.16-1.05.16-1.06-.01-2.07-.41-2.97-.96a11.27 11.27 0 0 1 -2.29-1.91c-2.08-2.23-3.82-4.63-6-6.62-.27-.25-.62-.61-1-.98s-.8-.74-1.16-.97c-.24-.16-.46-.26-.59-.27-.25-.04-.47-.09-.65-.17s-.35-.18-.48-.37a.798.798 0 0 1 -.13-.42c0-.2.07-.36.15-.49s.18-.23.28-.33c.21-.19.45-.36.68-.5.47-.29.92-.5.93-.51h.02c.52-.22 1.05-.31 1.58-.35l-19.56-12.46-.02-.02c-1.38-1.1-2.11-1.82-2.46-2.4-.11-.2-.19-.39-.19-.63 0-.14.03-.29.12-.42l.06-.07h-.01l3.55-6.06c-6.81-2.7-15.2-4.7-25.42-5.07h-.33c-2.39-.01-17.32.22-29.05 5.05l3.55 6.08-.01.01.06.06c.09.13.12.28.12.42 0 .24-.08.43-.19.63-.12.2-.28.4-.49.63-.42.47-1.05 1.04-1.97 1.77l-.02.02-19.56 12.46c.53.04 1.06.13 1.58.35h.01c.02.01.79.36 1.37.81.2.15.38.31.53.53.07.13.15.29.15.49 0 .14-.05.3-.13.42s-.19.21-.3.28zm-.98-.73c.12-.02.21-.04.29-.06-.1-.09-.22-.19-.37-.29-.34-.23-.75-.43-.91-.51l-.05-.02c-.5-.21-1.01-.3-1.53-.3-1.64 0-3.41.94-4.83 1.95-2.78 1.95-6.15 4.85-7.15 8.02-.03.09-.11.42-.18.81-.07.38-.12.85-.12 1.24-.01.32.04.59.1.69l.02.03c.28.09.57.14.87.14.8 0 1.65-.32 2.44-.81.8-.49 1.53-1.14 2.09-1.74 2.02-2.17 3.78-4.6 6.06-6.68.22-.2.58-.57.97-.96.41-.39.85-.79 1.31-1.09.32-.2.63-.36.99-.42z" fill="url(#v)"/><path d="m232.34 305.76c-.87.1-1.77.21-2.54.34-.39.07-.74.13-1.04.2l-.04.01.06-2.2c1.18-.52 2.54-1.08 4.03-1.62 3.55-1.3 7.76-2.43 11.43-2.43 2.66 0 5.01.6 6.68 2.09-.02.19-.08.43-.22.7-.29.53-.94 1.22-2.47 1.8-1.53.57-3.94 1.01-7.64 1.01-1.43 0-3.05-.06-4.88-.21h-.08s-1.57.12-3.29.31z" fill="url(#x)"/><path d="m141.47 305.3c-1.86 0-4.03.13-6.55.46h-.03c-.09.01-.33.02-.65.02-.85.01-2.36-.09-3.66-.61-.65-.26-1.24-.62-1.7-1.11-.43-.46-.73-1.03-.87-1.79.13-.26.41-.71.96-1.16.84-.69 2.31-1.39 4.9-1.4 3.2 0 8.11 1.11 15.49 4.7l-.09 1.89c-1.12-.37-3.66-1-7.8-1z" fill="url(#y)"/><path d="m187.8 295.59c9.06 0 22.38-1.89 39.04-9.55h.02l.01-.01.5-.28c1.14-.61 4.11-2.14 7.59-3.52 3.47-1.38 7.46-2.59 10.58-2.58 1.38 0 2.57.23 3.47.74s1.54 1.27 1.89 2.45v18.02c-1.84-1.31-4.18-1.8-6.66-1.8-4.43 0-9.39 1.53-13.27 3.06-3.88 1.52-6.67 3.04-6.68 3.04l-.01.01c-7 3.98-15.32 6.02-22.08 7.06-6.75 1.04-11.94 1.09-12.68 1.09h-.11c-.71.03-1.42.04-2.13.04-9.49 0-18.79-2.42-25.71-4.85a100.37 100.37 0 0 1 -8.33-3.33c-1-.46-1.78-.84-2.31-1.1-.27-.13-.47-.24-.61-.31-.13-.07-.2-.1-.2-.1l-.01-.01c-3.82-1.87-7.01-3.11-9.68-3.88s-4.83-1.07-6.56-1.07c-2.86 0-4.61.83-5.63 1.7-.1.1-.2.19-.29.28l-.03-17.69c0-.01 0-.22.08-.55.12-.5.42-1.22 1.16-1.82s1.96-1.12 4.03-1.12c2.39 0 5.9.71 10.96 2.79.16.08 5.19 2.47 11.41 5.09 6.31 2.65 13.82 5.53 18.77 6.46.37.14 5.09 1.74 13.47 1.74z" fill="url(#z)"/><path d="m128.97 301.11c-.55.45-.83.9-.96 1.16.14.76.44 1.33.87 1.79.46.49 1.05.85 1.7 1.11 1.3.52 2.81.62 3.66.61.32 0 .56-.01.65-.02h.03c2.52-.33 4.69-.46 6.55-.46 4.14 0 6.68.63 7.8 1l.09-1.89c-7.38-3.59-12.29-4.7-15.49-4.7-2.59.01-4.06.71-4.9 1.4zm121.73 1.74c.14-.27.2-.51.22-.7-1.67-1.49-4.02-2.09-6.68-2.09-3.67 0-7.88 1.13-11.43 2.43-1.49.54-2.85 1.1-4.03 1.62l-.06 2.2.04-.01c.3-.07.65-.13 1.04-.2.77-.13 1.67-.24 2.54-.34 1.72-.19 3.29-.31 3.29-.31h.08c1.83.15 3.45.21 4.88.21 3.7 0 6.11-.44 7.64-1.01 1.53-.58 2.18-1.27 2.47-1.8zm.2-1.99v-18.02c-.35-1.18-.99-1.94-1.89-2.45s-2.09-.74-3.47-.74c-3.12-.01-7.11 1.2-10.58 2.58a77.728 77.728 0 0 0 -7.59 3.52l-.5.28-.01.01h-.02c-16.66 7.66-29.98 9.55-39.04 9.55-8.38 0-13.1-1.6-13.47-1.74-4.95-.93-12.46-3.81-18.77-6.46-6.22-2.62-11.25-5.01-11.41-5.09-5.06-2.08-8.57-2.79-10.96-2.79-2.07 0-3.29.52-4.03 1.12s-1.04 1.32-1.16 1.82c-.08.33-.08.54-.08.55l.03 17.69c.09-.09.19-.18.29-.28 1.02-.87 2.77-1.7 5.63-1.7 1.73 0 3.89.3 6.56 1.07s5.86 2.01 9.68 3.88l.01.01s.07.03.2.1c.14.07.34.18.61.31.53.26 1.31.64 2.31 1.1 2 .91 4.87 2.12 8.33 3.33 6.92 2.43 16.22 4.85 25.71 4.85.71 0 1.42-.01 2.13-.04h.11c.74 0 5.93-.05 12.68-1.09 6.76-1.04 15.08-3.08 22.08-7.06l.01-.01c.01 0 2.8-1.52 6.68-3.04 3.88-1.53 8.84-3.06 13.27-3.06 2.48 0 4.82.49 6.66 1.8zm1.03 1.06v.06c0 .33-.07.82-.35 1.34s-.77 1.08-1.57 1.57c-1.59.99-4.38 1.77-9.42 1.77-1.45 0-3.08-.06-4.92-.21-.17.02-1.27.1-2.59.24-1.44.15-3.14.36-4.09.59-.27.06-.49.13-.58.17l-.73.35.09-3.23c-1.13.52-2.02.96-2.52 1.22-.31.16-.48.25-.48.25-14.34 8.13-33.69 8.27-35.25 8.28h-.09c-.72.02-1.44.04-2.15.04-17.14-.01-33.46-7.72-36.94-9.46l-.15 2.86-.67-.31h-.02l-.08-.04c-.07-.03-.19-.07-.34-.12-.32-.11-.8-.26-1.46-.4-1.32-.29-3.35-.59-6.15-.59-1.82 0-3.96.13-6.43.46h-.03c-.01 0-.3.02-.77.02-.69 0-1.77-.05-2.89-.32-1.13-.28-2.32-.78-3.2-1.72-.58-.62-1.01-1.44-1.16-2.46v-.01l-.01-.03-.04-.01.04-.09c-.04-.24-.06-.48-.06-.73 0-.2.01-.4.03-.61l-.03-17.8c0-.11.01-1.21.83-2.33.82-1.13 2.47-2.17 5.44-2.16 2.59 0 6.21.76 11.35 2.87h.01l.02.01s.31.15.89.42a314.891 314.891 0 0 0 10.49 4.66c6.29 2.65 13.82 5.52 18.6 6.41l.04.01.04.01.05.02.15.05c.14.04.35.11.64.19.56.15 1.4.37 2.52.58 2.23.42 5.53.85 9.81.85 8.92 0 22.08-1.85 38.61-9.45.21-.11 3.01-1.67 6.7-3.23 3.83-1.62 8.59-3.26 12.43-3.26 1.48 0 2.84.24 3.96.87 1.12.62 1.98 1.66 2.38 3.09l.02.07v18.91c.01.07.03.17.03.33z" fill="url(#A)"/><path d="m224.09 203.72c-8.9-8.9-21.19-14.4-34.78-14.4s-25.87 5.5-34.78 14.4c-8.9 8.9-14.4 21.19-14.4 34.78s5.5 25.87 14.4 34.78c8.9 8.9 21.19 14.4 34.78 14.4s25.87-5.5 34.78-14.4c8.9-8.9 14.4-21.19 14.4-34.78s-5.5-25.87-14.4-34.78zm-34.78 69.88c-19.39 0-35.1-15.72-35.1-35.1 0-19.39 15.72-35.1 35.1-35.1v.5-.5c19.39 0 35.1 15.72 35.1 35.1 0 19.39-15.71 35.1-35.1 35.1z" fill="url(#C)"/><path d="m212.48 215.33c-5.93-5.93-14.12-9.6-23.17-9.6s-17.23 3.67-23.17 9.6c-5.93 5.93-9.6 14.12-9.6 23.17s3.67 17.23 9.6 23.17c5.93 5.93 14.12 9.6 23.17 9.6s17.23-3.67 23.17-9.6c5.93-5.93 9.6-14.12 9.6-23.17-.01-9.05-3.67-17.23-9.6-23.17zm-23.17 46.74c-13.21 0-23.92-10.71-23.92-23.92s10.71-23.92 23.92-23.92v.5-.5c13.21 0 23.92 10.71 23.92 23.92 0 13.22-10.71 23.92-23.92 23.92z" fill="#24377d"/><path d="m204.88 222.59c-3.99-3.98-9.48-6.45-15.56-6.45s-11.58 2.46-15.56 6.45-6.45 9.48-6.45 15.56 2.46 11.58 6.45 15.56 9.48 6.45 15.56 6.45 11.58-2.46 15.56-6.45 6.45-9.48 6.45-15.56a21.999 21.999 0 0 0 -6.45-15.56z" fill="#c8e3e7"/><g fill="url(#D)"><path d="m189.31 186.32v.5-.5c-28.82 0-52.18 23.36-52.18 52.18s23.36 52.18 52.18 52.18 52.18-23.36 52.18-52.18-23.36-52.18-52.18-52.18zm0 101.36c-13.59 0-25.87-5.5-34.78-14.4-8.9-8.9-14.4-21.19-14.4-34.78s5.5-25.87 14.4-34.78c8.9-8.9 21.19-14.4 34.78-14.4s25.87 5.5 34.78 14.4c8.9 8.9 14.4 21.19 14.4 34.78s-5.5 25.87-14.4 34.78c-8.91 8.9-21.19 14.4-34.78 14.4z"/><path d="m189.31 203.4v.5-.5c-19.39 0-35.1 15.72-35.1 35.1 0 19.39 15.72 35.1 35.1 35.1 19.39 0 35.1-15.72 35.1-35.1 0-19.39-15.71-35.1-35.1-35.1zm23.17 58.27c-5.93 5.93-14.12 9.6-23.17 9.6s-17.23-3.67-23.17-9.6c-5.93-5.93-9.6-14.12-9.6-23.17s3.67-17.23 9.6-23.17c5.93-5.93 14.12-9.6 23.17-9.6s17.23 3.67 23.17 9.6c5.93 5.93 9.6 14.12 9.6 23.17-.01 9.05-3.67 17.23-9.6 23.17z"/><path d="m189.31 214.24v.5-.5c-13.21 0-23.92 10.71-23.92 23.92s10.71 23.92 23.92 23.92 23.92-10.71 23.92-23.92-10.71-23.92-23.92-23.92zm15.57 39.48c-3.99 3.98-9.48 6.45-15.56 6.45s-11.58-2.46-15.56-6.45-6.45-9.48-6.45-15.56 2.46-11.58 6.45-15.56 9.48-6.45 15.56-6.45 11.58 2.46 15.56 6.45 6.45 9.48 6.45 15.56a21.999 21.999 0 0 1 -6.45 15.56z"/></g><path d="m201.99 247.9c-.16.19-.31.38-.31.38-.04-.14-.08-.28-.11-.4.07-.03.18-.08.28-.17.05-.04.09-.1.13-.15.04-.06.06-.13.07-.21s.01-.18-.01-.28c-.1-.46-.91-1.21-1.14-1.39-.02.06-.05.17-.09.3s-.08.28-.12.44c-.03.15-.06.3-.08.44s-.02.27 0 .38c.11.49.53.64.74.68.03.21.03.52 0 .73l-.2.22c-.1.11-.21.21-.21.21l-.18.18-.19.19c-.07.07-.15.14-.23.2-.15.14-.31.28-.43.38s-.2.16-.2.16c-.01-.14-.02-.29-.03-.4.1-.02.25-.08.38-.19a.63.63 0 0 0 .22-.55c-.03-.47-.69-1.33-.88-1.55-.06.11-.19.37-.32.66-.13.28-.24.61-.23.83.01.49.41.71.61.79-.02.2-.05.53-.12.72l-.49.36-.16.12c-.08.06-.17.11-.17.11s-.21.14-.41.28c-.1.07-.21.13-.29.18l-.13.08c.01-.14.02-.29.03-.4.17-.01.47-.09.63-.37.04-.08.07-.16.08-.27.05-.47-.48-1.42-.63-1.66-.04.05-.11.14-.18.25l-.25.39c-.16.26-.31.54-.34.76-.06.49.29.76.48.86-.05.2-.13.52-.23.7l-.54.29s-.09.05-.23.12-.33.16-.52.25-.39.17-.53.23c-.15.06-.24.1-.24.1.03-.14.07-.29.1-.4.1.01.27 0 .43-.07s.31-.21.38-.46c.13-.45-.23-1.47-.34-1.74-.05.04-.12.12-.21.21s-.2.2-.3.32c-.21.25-.43.5-.49.72-.14.48.16.8.33.93-.08.2-.22.48-.35.64 0 0-.14.05-.29.11-.07.03-.14.05-.2.07l-.09.03-.39.12-.15.05c-.09.03-.21.06-.33.09-.25.07-.49.13-.49.13.05-.14.11-.27.16-.38.08.02.2.03.33.02s.27-.06.39-.18a.72.72 0 0 0 .16-.24c.1-.22.11-.58.07-.94-.03-.35-.1-.69-.13-.83-.1.08-.36.26-.62.48-.12.1-.23.2-.33.31-.1.1-.18.21-.23.31-.21.45.03.81.18.96-.11.19-.3.44-.45.59l-.3.06-.09.02c-1.06.11-2.89.21-2.89.21s-2.05-.06-3.04-.18c0 0-.04-.01-.09-.02-.06-.01-.13-.02-.21-.04-.15-.03-.3-.07-.3-.07-.15-.14-.34-.4-.45-.59.15-.15.4-.51.18-.96-.05-.1-.13-.2-.23-.31-.1-.1-.22-.2-.33-.31-.26-.22-.52-.4-.62-.49-.03.14-.1.47-.13.83-.03.35-.03.72.07.94.04.1.1.18.16.24.12.12.26.17.39.18.13.02.25 0 .33-.02.05.11.11.24.16.38 0 0-.24-.07-.49-.13-.12-.03-.25-.06-.33-.09l-.15-.05-.39-.12-.05-.02-.05-.02c-.05-.02-.12-.04-.19-.07-.14-.05-.29-.11-.29-.11-.13-.16-.27-.45-.35-.64.17-.13.47-.45.33-.93-.06-.22-.28-.48-.49-.72-.1-.12-.21-.23-.3-.32s-.16-.17-.21-.21c-.11.26-.47 1.29-.34 1.74.07.25.22.39.38.46s.33.07.43.07c.03.11.07.25.1.4 0 0-.1-.04-.24-.1s-.34-.14-.53-.23-.38-.19-.52-.25c-.14-.07-.23-.12-.23-.12l-.54-.29c-.1-.18-.18-.49-.23-.7.19-.1.54-.37.49-.86-.03-.21-.17-.5-.33-.75l-.25-.39c-.08-.11-.14-.2-.18-.25-.15.24-.68 1.19-.64 1.66.01.11.04.2.08.27.16.28.47.37.63.37.01.11.02.26.03.4 0 0-.06-.03-.13-.08-.08-.05-.19-.11-.29-.18-.21-.14-.41-.28-.41-.28s-.08-.06-.17-.11l-.16-.12-.49-.36c-.07-.19-.1-.52-.12-.72.21-.07.6-.29.61-.78 0-.22-.1-.55-.23-.83-.12-.29-.25-.56-.31-.66-.19.22-.86 1.08-.89 1.55-.02.26.09.43.22.55.13.11.28.17.38.19-.01.11-.02.26-.03.4 0 0-.08-.07-.2-.17s-.27-.24-.42-.38c-.08-.07-.15-.14-.22-.21l-.19-.19-.18-.18-.21-.21-.2-.22c-.03-.2-.03-.51 0-.73.21-.04.64-.19.74-.68.02-.11.02-.24.01-.38-.02-.14-.05-.29-.08-.44-.04-.16-.08-.32-.12-.44-.04-.13-.07-.24-.09-.3-.22.19-1.04.94-1.14 1.39a.54.54 0 0 0 -.01.28c.01.08.04.15.07.21.04.06.08.11.13.16.1.09.2.14.28.17l-.11.39s-.16-.19-.31-.38c-.16-.19-.3-.39-.3-.39l-.24-.31s-.02-.03-.06-.07c-.03-.04-.08-.11-.12-.17-.08-.12-.17-.25-.17-.25 0-.2.06-.52.12-.72.22-.01.66-.1.84-.57.08-.21.07-.54.05-.86-.01-.16-.03-.3-.05-.43-.01-.13-.02-.23-.03-.29-.25.15-1.18.78-1.35 1.22-.1.24-.06.44.03.59s.22.24.31.29c-.04.11-.1.24-.17.38 0 0-.05-.09-.13-.22s-.19-.3-.28-.48c-.1-.18-.19-.36-.27-.49-.04-.07-.06-.12-.08-.16l-.03-.06-.25-.53c.03-.2.16-.5.24-.69.22.03.67 0 .92-.43.1-.18.17-.5.2-.8.01-.17.03-.32.04-.46.01-.13.01-.24.01-.31-.28.11-1.29.58-1.54.99-.06.09-.09.18-.1.26-.05.32.15.56.28.65-.06.1-.14.22-.22.34 0 0-.02-.06-.06-.14-.03-.08-.09-.19-.12-.31l-.16-.46s-.03-.09-.07-.18l-.06-.18-.17-.57c.06-.19.23-.47.35-.65.21.06.66.1.98-.29.14-.18.26-.5.33-.8.08-.3.14-.59.16-.71-.29.07-1.36.39-1.68.76-.33.4-.11.79.03.93-.08.09-.17.2-.28.31 0 0-.02-.1-.06-.24-.04-.15-.07-.35-.11-.55s-.08-.4-.09-.55c-.02-.15-.03-.25-.03-.25l-.04-.29c-.01-.07-.01-.15-.02-.2 0-.06-.01-.09-.01-.09.1-.18.31-.43.45-.59.2.09.64.2 1.02-.13.17-.15.32-.43.44-.7.15-.3.25-.59.29-.72-.3.03-1.41.18-1.78.49-.09.07-.15.15-.19.22-.15.29-.02.57.06.71-.09.07-.21.17-.33.26 0 0 0-.06-.01-.15 0-.09-.01-.21-.01-.33-.01-.24-.01-.48-.01-.48l.01-.39s0-.15.01-.29c0-.15.02-.29.02-.29.12-.17.37-.39.54-.52.18.12.6.29 1.03.01.2-.13.41-.4.57-.67.18-.26.32-.52.38-.63-.3-.02-1.42-.02-1.84.23-.24.14-.31.32-.34.49-.02.17.02.32.06.41-.1.06-.23.14-.36.21 0 0 .01-.1.02-.25.02-.15.05-.35.08-.55.02-.2.06-.4.09-.55s.04-.25.04-.25.01-.04.02-.09.02-.13.04-.2c.04-.14.07-.29.07-.29.15-.14.42-.32.62-.43.16.14.54.37 1.01.17.1-.04.22-.12.32-.22.11-.1.22-.21.33-.32.23-.24.42-.49.51-.59-.15-.03-.5-.1-.87-.13s-.76-.02-.99.07c-.1.04-.19.1-.25.16-.13.11-.18.25-.19.37-.02.13 0 .24.02.31-.11.04-.26.1-.4.15 0 0 .07-.23.14-.47.04-.12.07-.23.1-.32s.05-.14.05-.14l.13-.37s.01-.03.03-.07l.02-.05.01-.03.05-.12c.06-.14.11-.27.11-.27.17-.12.47-.26.68-.33.13.16.47.45.98.31.46-.13 1.13-.79 1.32-.95-.28-.1-1.36-.45-1.83-.32-.26.07-.41.21-.49.36-.07.15-.08.31-.07.41-.12.03-.27.06-.42.09 0 0 .04-.09.11-.23s.15-.32.24-.5c.1-.18.19-.36.27-.49.07-.14.12-.22.12-.22l.31-.51c.18-.09.52-.17.73-.22.1.18.39.52.91.46.22-.03.52-.16.79-.32.15-.09.29-.17.41-.24s.22-.14.27-.17c-.26-.15-1.25-.65-1.75-.6-.11.01-.2.04-.28.08-.3.15-.39.44-.39.6-.12.01-.27.02-.42.03 0 0 .03-.05.09-.13.05-.07.12-.18.19-.28.15-.2.29-.39.29-.39l.12-.16c.06-.08.12-.15.12-.15l.17-.21.21-.26c.2-.06.54-.1.76-.11.08.2.31.57.83.58.23 0 .58-.1.87-.22.31-.12.58-.24.69-.3-.23-.18-1.14-.81-1.63-.84a.734.734 0 0 0 -.78.57c-.12 0-.27-.01-.42-.03 0 0 .07-.08.17-.19s.26-.26.4-.4c.07-.07.15-.15.22-.21s.14-.13.2-.18c.12-.1.19-.17.19-.17l.22-.2c.12-.09.23-.19.23-.19.21-.03.54-.02.76 0 .04.2.2.6.72.7.11.02.25.02.4.01.15-.02.3-.05.46-.07.17-.04.33-.08.47-.11.14-.04.25-.06.31-.08-.2-.21-.99-.99-1.47-1.08a.77.77 0 0 0 -.52.06c-.06.04-.12.08-.16.12-.09.09-.15.19-.18.26-.12-.03-.27-.06-.42-.1l.4-.3c.2-.15.41-.29.41-.29l.33-.22s.03-.02.08-.05l.07-.05.02-.01.04-.02.02-.01.03-.02.26-.16c.21 0 .54.05.75.11.01.21.11.63.6.8.23.08.57.06.9.05.16-.01.32-.03.45-.04s.24-.02.3-.03c-.16-.24-.82-1.12-1.28-1.28a.768.768 0 0 0 -.62.02c-.15.08-.25.21-.31.29-.11-.04-.26-.1-.4-.16 0 0 .09-.05.23-.12s.32-.18.51-.27c.11-.05.98-.49 1.71-.86.15.16.48.43.97.25.47-.18 1.14-1.03 1.31-1.27-.29-.05-1.4-.22-1.87-.04-.56.22-.53.73-.5.9-.35.13-.69.26-.81.32-.19.08-.99.34-.99.34.02-.14.06-.29.08-.4.11 0 .28-.02.45-.09s.34-.21.43-.46c.09-.23.09-.61.06-.96-.03-.36-.08-.7-.11-.84-.07.04-.19.12-.33.22s-.29.23-.44.36c-.31.26-.58.58-.66.81-.17.51.2.79.38.91-.04.1-.09.23-.14.35-.05.13-.11.25-.16.34 0 0-.07.04-.17.09-.1.06-.24.12-.37.21l-.52.32s-.04.02-.09.06-.12.08-.2.13c-.14.1-.28.19-.28.19l-.13.09c0-.08 0-.16.01-.24 0-.06.01-.12.01-.17.11-.01.27-.05.43-.15.15-.1.3-.25.36-.51.1-.48-.23-1.5-.33-1.78-.06.05-.17.14-.29.26s-.25.26-.38.42c-.26.3-.48.65-.53.89l-.01.08c-.04.47.34.68.53.76-.05.21-.11.54-.19.73 0 0-.07.06-.19.14-.11.08-.26.2-.4.32s-.29.23-.4.33c-.1.09-.17.16-.17.16s-.15.14-.31.28c-.08.07-.15.14-.21.2-.06.05-.09.09-.09.09-.03-.14-.05-.29-.06-.41.1-.03.26-.09.4-.21s.24-.3.26-.57c.02-.48-.49-1.45-.63-1.7-.1.13-.34.43-.54.77-.19.35-.37.71-.36.97.01.54.45.7.66.76-.01.22-.02.55-.06.74 0 0-.05.05-.13.14-.08.08-.18.2-.28.31s-.2.22-.27.31-.12.14-.12.14l-.22.26c-.06.06-.11.13-.15.18s-.06.08-.06.08l-.09.12c-.03-.08-.05-.16-.07-.23-.02-.06-.03-.11-.04-.16.09-.05.24-.13.36-.27s.2-.33.17-.6c-.05-.47-.71-1.36-.88-1.59-.08.14-.27.47-.42.84-.14.37-.26.75-.21 1.01l.02.08c.12.46.54.55.75.57.03.22.06.54.05.75 0 0-.21.3-.41.61-.19.31-.38.63-.38.63s-.03.04-.07.11-.09.16-.13.25l-.2.36c-.07-.13-.13-.26-.18-.37.09-.06.22-.17.3-.32.09-.15.15-.35.07-.62-.14-.47-.93-1.23-1.15-1.43-.03.07-.08.2-.13.36s-.1.34-.14.53c-.09.38-.11.79-.04 1.03.17.51.65.53.87.53.06.2.16.52.18.73 0 0-.03.07-.08.17s-.11.23-.17.37c-.11.27-.23.55-.23.55s-.02.04-.04.1-.05.14-.08.22c-.06.16-.11.31-.11.31l-.05.14c-.05-.07-.1-.13-.14-.2-.03-.05-.06-.1-.09-.14.08-.07.19-.2.25-.36.06-.17.09-.37-.03-.62-.21-.44-1.12-1.09-1.36-1.26-.09.31-.24 1.5 0 1.94l.04.07c.26.4.69.36.9.32.09.2.24.5.3.7 0 0-.03.09-.07.22s-.08.31-.13.48c-.04.18-.09.35-.12.48s-.04.22-.04.22l-.08.4c-.04.2-.06.4-.06.4-.11-.1-.22-.21-.3-.3a.83.83 0 0 0 .19-.4c.03-.17.01-.38-.14-.61-.28-.4-1.29-.9-1.56-1.03 0 .16 0 .54.04.93.06.39.15.79.3.99.34.43.8.32 1 .24.13.18.33.45.41.64 0 0-.01.07-.02.18s-.02.26-.03.4c-.01.15-.02.29-.03.4v.19l-.02.66v.15l-.21-.15c-.05-.04-.09-.07-.13-.11.05-.09.12-.24.13-.42s-.05-.38-.23-.58c-.34-.36-1.42-.71-1.71-.8.02.16.08.54.18.91.11.38.27.75.45.93l.06.06c.39.3.78.14.96.04.16.16.39.4.51.58 0 0 0 .09.01.23.01.13.03.32.04.49.01.18.02.36.05.49.02.13.03.22.03.22s.03.2.05.4c.03.2.07.4.07.4-.14-.06-.27-.14-.38-.2.06-.2.17-.64-.28-.97-.39-.3-1.51-.48-1.81-.52.05.15.16.51.33.87.18.35.38.7.6.85.46.31.86.07 1.03-.06.18.13.45.34.59.49 0 0 .07.29.14.57.03.14.07.29.1.39l.05.18s.05.16.09.32c.02.08.05.16.07.22s.03.1.03.1l.05.14c-.08-.02-.17-.05-.24-.08-.06-.02-.12-.05-.16-.06.01-.1.03-.27-.02-.44s-.17-.35-.41-.48c-.43-.24-1.57-.26-1.88-.26.07.14.24.49.47.82s.49.64.73.76l.08.04c.46.18.79-.09.93-.24.2.11.5.27.66.4 0 0 .14.34.28.67.07.17.15.33.21.46a5.684 5.684 0 0 1 .15.32c.03.07.08.16.13.25.1.18.19.36.19.36-.15-.02-.3-.05-.42-.08 0-.1-.02-.27-.1-.42-.07-.16-.22-.32-.48-.41-.24-.08-.64-.08-1.01-.06-.38.02-.73.07-.88.1.05.07.13.18.23.31s.24.28.37.42c.27.29.61.55.85.63.54.16.84-.19.96-.36.11.04.24.09.37.14s.26.1.36.15c0 0 .04.06.1.16.06.09.13.23.22.35.17.25.33.5.33.5l.06.09c.04.05.09.12.14.19.1.14.2.27.2.27l.09.12c-.09 0-.17 0-.25-.01-.06 0-.12-.01-.18-.01-.02-.1-.06-.26-.16-.41s-.26-.28-.54-.34c-.5-.09-1.58.22-1.87.31.06.06.15.16.27.27.13.11.28.24.44.36.31.25.69.46.94.5l.09.01c.49.04.72-.32.8-.5.22.05.56.11.77.18 0 0 .06.07.15.18s.21.24.33.38c.13.14.25.27.34.37l.16.16.29.29c.07.07.15.15.21.2s.1.09.1.09c-.15.03-.31.04-.43.05-.03-.1-.1-.25-.23-.38-.12-.13-.32-.23-.6-.25-.5-.02-1.52.46-1.79.59.13.1.46.32.81.52.37.19.75.35 1.02.35.57-.01.74-.42.8-.62.23.01.58.02.79.06 0 0 .06.05.14.12.09.07.21.17.32.27.12.1.23.19.33.26.09.07.15.11.15.11s.14.1.27.2c.07.05.14.1.19.14s.09.06.09.06l.13.09c-.08.02-.17.05-.25.07-.06.01-.12.03-.17.04-.05-.09-.14-.23-.28-.34s-.35-.19-.63-.16c-.5.05-1.43.67-1.68.84.15.08.5.26.88.4.39.13.79.25 1.06.2l.09-.02c.49-.12.58-.52.6-.71.23-.03.57-.06.78-.05 0 0 .32.2.64.39l.66.36s.05.03.12.06.17.08.26.13c.19.09.38.19.38.19-.13.07-.28.13-.39.17-.06-.08-.18-.21-.34-.29a.85.85 0 0 0 -.65-.07c-.49.13-1.3.88-1.51 1.09.08.03.21.07.37.12.17.05.36.09.57.13.4.09.83.11 1.08.04.54-.17.56-.61.55-.82.22-.05.55-.15.77-.17 0 0 .07.03.18.08.1.04.25.11.39.16l.58.22s.04.02.1.04.14.05.23.07c.16.05.33.11.33.11l.15.05c-.07.05-.14.1-.21.14l-.15.09c-.08-.07-.21-.18-.38-.24a.873.873 0 0 0 -.65.03c-.46.2-1.15 1.06-1.33 1.29.33.09 1.58.23 2.04 0l.08-.04c.42-.25.38-.66.34-.85.2-.08.53-.23.73-.28 0 0 .09.02.23.06s.32.08.51.12l.51.11c.14.02.23.04.23.04.49.1 1.27.17 1.93.21.04.01.08.02.13.04-2.3.71-2.91 2.07-2.91 2.07h.98c.28-.79 1.71-1.43 2.75-1.8 1.05.38 2.47 1.02 2.75 1.81h.98s-.6-1.37-2.9-2.08l.06-.02c.71-.04 1.86-.14 2.63-.33.07-.02.14-.03.22-.05.19-.04.37-.08.51-.12s.23-.06.23-.06c.21.05.53.2.73.28-.04.19-.08.61.34.85l.08.04c.47.23 1.72.09 2.04 0-.18-.23-.86-1.09-1.32-1.29a.873.873 0 0 0 -.65-.03c-.17.06-.31.16-.38.24-.04-.03-.1-.06-.15-.09-.07-.04-.14-.09-.21-.14l.15-.05s.17-.05.33-.11c.08-.03.16-.05.23-.07.06-.02.1-.04.1-.04s.29-.11.58-.21c.15-.05.29-.11.39-.16s.18-.08.18-.08c.21.02.55.12.77.17-.01.21.01.66.55.83.25.07.68.05 1.08-.03.2-.04.4-.09.56-.13.16-.05.3-.1.37-.12-.21-.21-1.02-.96-1.51-1.09a.917.917 0 0 0 -.65.06c-.16.08-.28.21-.34.29-.11-.04-.26-.1-.39-.17 0 0 .19-.09.38-.19.1-.05.19-.09.26-.13s.12-.06.12-.06l.66-.36c.32-.19.64-.39.64-.39.21-.01.56.02.78.05.02.2.12.6.6.71l.09.02c.26.04.67-.07 1.06-.2.39-.14.73-.32.88-.39-.25-.17-1.18-.8-1.68-.84-.28-.03-.49.05-.63.16s-.23.25-.28.34c-.05-.01-.11-.03-.17-.04-.08-.02-.16-.04-.25-.07l.13-.09s.04-.02.09-.06.13-.08.19-.14c.14-.1.27-.21.27-.21s.06-.05.15-.11c.09-.07.21-.16.33-.26s.23-.19.32-.27c.09-.07.15-.12.15-.12.21-.04.55-.05.78-.06.06.2.23.62.8.62.26 0 .65-.16 1.02-.34.35-.2.68-.42.81-.52-.27-.13-1.29-.62-1.79-.6-.27.02-.47.12-.6.25s-.19.28-.23.38c-.12-.01-.28-.03-.43-.05 0 0 .04-.03.1-.09.06-.05.14-.12.21-.2.15-.15.3-.29.3-.29l.16-.16c.09-.1.22-.24.34-.37.13-.14.25-.27.34-.38s.15-.18.15-.18c.2-.07.55-.13.77-.18.09.18.31.54.8.5l.09-.01c.25-.04.63-.25.94-.5.16-.12.31-.25.44-.36.12-.11.22-.21.27-.27-.29-.09-1.37-.4-1.87-.31-.28.06-.44.19-.54.34-.11.15-.15.31-.16.41-.05 0-.11.01-.18.01-.08 0-.17.01-.26.01l.09-.12-.35-.24c.01-.07-.13.13-.3.32z" fill="url(#F)"/><path d="m205.48 241.94c.07-.29.14-.57.14-.57.14-.15.41-.35.59-.49.17.13.56.37 1.03.06.22-.14.43-.49.61-.85.18-.35.29-.72.33-.87-.3.04-1.43.22-1.81.52-.45.33-.34.77-.28.97-.11.06-.25.13-.38.2 0 0 .04-.2.07-.4s.05-.4.05-.4.01-.09.03-.22.03-.31.05-.49.03-.36.04-.49c0-.14.01-.23.01-.23.12-.17.35-.41.51-.57.18.1.57.26.96-.04l.06-.06c.18-.18.34-.55.45-.93.1-.38.16-.75.18-.91-.29.09-1.37.43-1.71.79-.18.2-.24.4-.23.58s.07.33.12.42c-.04.03-.08.07-.13.11l-.21.15v-.15l-.02-.66s0-.07-.01-.19c-.01-.11-.02-.26-.03-.4-.01-.15-.02-.29-.03-.4s-.02-.18-.02-.18c.09-.18.28-.46.41-.64.2.07.66.19 1-.24.15-.2.25-.59.3-.98.04-.39.04-.77.04-.93-.27.13-1.29.63-1.57 1.02-.15.22-.18.43-.14.6.03.17.13.31.19.4-.08.09-.19.2-.3.3 0 0-.02-.2-.06-.4s-.07-.4-.07-.4-.02-.09-.04-.22c-.03-.13-.08-.31-.12-.48s-.08-.35-.13-.48c-.04-.13-.06-.22-.06-.22.05-.2.21-.5.3-.7.21.04.64.08.9-.32l.04-.07c.25-.44.09-1.63.01-1.94-.25.17-1.15.82-1.36 1.25-.12.25-.09.45-.03.62s.17.29.25.36c-.03.04-.06.09-.09.14l-.14.2-.05-.14s-.06-.16-.11-.31c-.03-.08-.06-.16-.08-.22s-.04-.1-.04-.1-.11-.27-.23-.55c-.05-.14-.12-.27-.17-.37s-.08-.17-.08-.17c.03-.2.13-.52.18-.73.22.01.69-.01.87-.52.08-.23.06-.65-.03-1.03-.04-.19-.09-.38-.14-.54s-.1-.28-.13-.36c-.22.2-1.01.97-1.15 1.43a.72.72 0 0 0 .07.61c.09.16.22.27.3.33-.05.11-.11.24-.18.37 0 0-.1-.18-.19-.36-.05-.09-.1-.18-.13-.25-.04-.07-.07-.11-.07-.11s-.19-.31-.38-.63c-.21-.3-.41-.61-.41-.61-.01-.2.02-.53.05-.75.21-.02.63-.11.75-.57l.02-.08c.05-.25-.07-.63-.21-1.01-.14-.37-.34-.7-.42-.84-.18.23-.84 1.12-.89 1.59-.03.27.05.46.17.6s.27.22.36.27c-.01.05-.03.1-.04.16-.02.08-.05.16-.08.23l-.09-.12s-.02-.03-.06-.08-.09-.12-.14-.18l-.22-.26s-.05-.06-.12-.14c-.07-.09-.17-.2-.27-.31l-.28-.31c-.08-.08-.13-.14-.13-.14-.04-.2-.06-.53-.07-.74.21-.05.65-.21.66-.75 0-.25-.17-.62-.36-.97-.2-.34-.44-.64-.54-.77-.14.26-.66 1.22-.63 1.7.02.26.12.45.26.57s.3.18.4.22c-.01.12-.03.27-.06.41l-.09-.09c-.06-.06-.13-.13-.21-.2-.16-.14-.31-.28-.31-.28s-.07-.06-.17-.16c-.1-.09-.25-.21-.39-.33s-.29-.24-.4-.32l-.19-.14c-.08-.19-.14-.52-.19-.73.19-.08.57-.29.53-.76l-.01-.08c-.04-.24-.26-.6-.52-.9-.13-.15-.26-.3-.38-.42s-.22-.21-.29-.26c-.09.27-.43 1.3-.33 1.78.06.27.2.42.36.52.15.1.32.14.43.15 0 .05.01.11.01.17 0 .08.01.16.01.24l-.13-.09s-.14-.1-.28-.19c-.07-.05-.14-.1-.19-.13-.06-.03-.09-.06-.09-.06l-.52-.32c-.13-.08-.27-.15-.37-.21s-.17-.09-.17-.09c-.05-.09-.11-.21-.16-.34s-.1-.25-.14-.35c.18-.11.55-.4.38-.91-.08-.23-.35-.55-.66-.81-.15-.13-.3-.26-.44-.36s-.26-.17-.32-.22c-.03.14-.08.48-.11.84s-.03.74.06.96c.1.25.26.39.44.46.17.08.34.09.45.09.03.11.06.26.08.4 0 0-.8-.25-.99-.34-.12-.05-.46-.18-.81-.32.03-.17.06-.67-.5-.9-.46-.18-1.57-.02-1.87.04.17.23.84 1.09 1.3 1.27.49.19.82-.09.97-.25.73.37 1.6.81 1.71.86.19.09.37.2.51.27l.23.13c-.14.06-.29.11-.4.15-.05-.08-.16-.21-.31-.29s-.36-.12-.62-.02c-.46.16-1.12 1.04-1.29 1.27.06.01.17.02.3.03.13.02.29.04.45.05.33.02.68.03.9-.05.49-.17.59-.59.6-.8.21-.06.54-.11.75-.11l.26.16.03.02h.01c.05.03.1.06.14.09.05.03.08.05.08.05l.33.22s.21.14.41.29l.4.3c-.15.04-.3.07-.42.1a.873.873 0 0 0 -.18-.26.61.61 0 0 0 -.16-.12.808.808 0 0 0 -.22-.07c-.09-.01-.19-.01-.3.01-.48.09-1.27.86-1.47 1.08.06.02.17.05.31.08.14.04.3.08.47.11.16.03.31.06.46.08s.29.02.4 0c.51-.1.68-.5.72-.7.22-.03.55-.03.76 0l.23.19.22.2s.08.07.19.17c.06.05.12.11.2.18l.21.21c.14.15.3.29.4.4s.17.19.17.19c-.15.01-.3.02-.42.03-.02-.1-.08-.24-.2-.36s-.3-.23-.57-.21c-.5.03-1.41.66-1.64.84.11.06.39.18.69.3s.64.22.88.22c.52-.01.75-.38.83-.58.22.02.56.05.76.12l.38.46s.06.08.12.15l.12.16s.15.2.29.39c.08.1.14.2.19.28s.09.13.09.13c-.15-.01-.31-.02-.42-.03a.719.719 0 0 0 -.68-.68c-.5-.04-1.49.45-1.75.6.05.04.15.1.27.17s.26.15.41.24c.27.15.57.29.79.32.51.06.8-.28.91-.46.21.05.55.13.73.22l.31.51.12.22c.07.13.17.31.27.49.09.18.18.37.24.5.07.14.11.23.11.23-.15-.03-.3-.07-.42-.1.01-.1 0-.26-.07-.41s-.22-.3-.48-.36c-.47-.13-1.55.21-1.83.32.19.16.87.82 1.32.95.5.13.84-.15.98-.31.21.07.51.21.68.33 0 0 .06.14.11.27.03.07.05.14.07.19s.03.09.03.09l.13.37s.02.06.05.14c.03.09.06.2.1.32l.14.46c-.14-.05-.29-.11-.4-.15.02-.07.03-.19.02-.31a.605.605 0 0 0 -.19-.37.98.98 0 0 0 -.25-.16c-.23-.09-.61-.1-.98-.07s-.72.09-.87.12c.09.1.28.35.51.59l.32.32c.11.1.22.17.32.22.48.21.86-.03 1.02-.17.2.1.47.28.62.43 0 0 .04.14.07.29.02.07.03.14.04.2s.02.09.02.09l.05.25c.03.15.07.35.09.55.03.2.05.4.07.55s.02.25.02.25c-.13-.07-.26-.15-.36-.21.04-.09.08-.24.06-.41a.643.643 0 0 0 -.34-.49c-.42-.26-1.54-.26-1.84-.24.05.11.2.37.38.63.16.27.37.54.57.67.42.28.84.11 1.03-.01.16.13.41.35.54.52l.02.29c0 .15.01.29.01.29l.01.39s-.01.24-.01.48c0 .12-.01.24-.01.33-.01.09-.01.15-.01.15-.12-.09-.23-.19-.33-.26.08-.13.2-.42.06-.7a.64.64 0 0 0 -.19-.22c-.37-.31-1.48-.47-1.78-.49.04.12.14.41.29.71.12.27.27.56.44.7.38.34.82.23 1.02.14.14.15.35.41.45.59 0 0 0 .04-.01.09s-.01.13-.02.2l-.04.29s-.01.1-.03.25-.05.35-.09.55-.07.4-.11.54c-.04.15-.06.25-.06.25-.1-.11-.2-.22-.27-.31.14-.14.37-.53.03-.93-.32-.37-1.39-.69-1.68-.76.01.12.08.4.15.71.07.3.19.62.33.8.31.39.77.35.98.29.12.17.28.45.35.65l-.17.57s-.03.09-.06.19l-.06.18-.16.46c-.04.12-.09.23-.12.31-.04.08-.06.14-.06.14-.08-.12-.16-.25-.22-.34.13-.1.33-.34.28-.65a.605.605 0 0 0 -.1-.26c-.26-.41-1.26-.88-1.54-.99 0 .06 0 .17.01.3s.02.29.04.46c.03.29.09.61.2.8.25.43.71.45.92.43.09.19.21.49.24.69l-.26.53-.03.06-.08.16c-.07.13-.17.31-.27.49-.09.18-.21.35-.29.48s-.13.22-.13.22a5.3 5.3 0 0 1 -.16-.38c.09-.05.22-.15.31-.29.08-.15.12-.35.03-.59-.17-.44-1.1-1.07-1.35-1.22-.01.06-.02.16-.04.29s-.04.27-.05.43c-.02.31-.03.64.05.86.18.47.62.56.84.57.06.21.12.52.11.72 0 0-.08.12-.17.25-.04.06-.08.12-.12.17a.23.23 0 0 1 -.06.07l-.24.31.35.24s.1-.14.2-.27c.05-.07.1-.14.14-.19s.06-.09.06-.09.17-.25.33-.49c.09-.12.16-.25.22-.35s.1-.16.1-.16c.09-.05.22-.1.36-.15.13-.05.26-.1.37-.14.12.17.42.53.96.36.25-.07.58-.34.86-.63.14-.14.27-.29.38-.42.1-.13.18-.24.23-.31-.15-.02-.51-.07-.88-.1-.37-.02-.77-.03-1.02.06-.26.09-.41.25-.48.41-.08.16-.1.32-.1.42-.12.03-.27.06-.42.08l.2-.36c.05-.09.1-.18.13-.25s.06-.12.06-.12.04-.08.1-.21c.06-.12.14-.29.21-.45.14-.34.28-.67.28-.67.16-.13.46-.29.66-.4.14.14.46.42.93.24l.08-.03c.24-.11.5-.43.73-.75.23-.33.4-.67.47-.81-.3 0-1.45.02-1.88.26-.24.14-.36.31-.41.48s-.03.34-.02.43c-.05.02-.11.04-.17.06-.08.03-.16.06-.24.08l.05-.14s.01-.04.04-.1c.02-.06.05-.14.07-.22l.1-.32.05-.18c0-.04.04-.18.07-.33z" fill="url(#G)"/><path d="m199.61 234.2-7.19-1.05-3.22-6.52-.17.34-3.05 6.18-7.19 1.05 5.2 5.08-1.23 7.16 6.44-3.38 6.43 3.38-1.22-7.16z" fill="url(#H)"/><path d="m199.61 234.2-7.2-1.05-3.22-6.52-.17.34-3.05 6.18-7.2 1.05 5.21 5.08-1.23 7.17 6.44-3.38 6.44 3.38-1.23-7.17zm-5.45 4.8-4.36-1.42 8.72-2.83zm-1.78-5.48 6.03.88-8.72 2.83zm-3 3.49v-9.17l2.69 5.46zm-.37 0-2.69-3.71 2.69-5.46zm-.3.22-8.72-2.83 6.03-.88zm.3 5.51-5.39 2.83 5.39-7.42zm.37-4.59 5.39 7.42-5.39-2.83zm-9.5-3.4 8.72 2.83-4.36 1.42zm4.47 4.6 4.36-1.42-5.39 7.42zm10.72 6-5.39-7.42 4.36 1.42z" fill="url(#I)"/><path d="m173.65 213.33c-.83.17-1.2.2-1.41-.12-.16-.26-.07-.65.43-.96s.96-.4 1.22-.43l-.33-1.09c-.4.05-.89.2-1.47.57-1.2.76-1.53 1.88-.97 2.76.47.75 1.33.86 2.38.63.75-.17 1.11-.15 1.31.17.21.34.07.73-.46 1.07-.5.31-1.08.46-1.49.49l.36 1.1c.39-.02 1.07-.23 1.66-.6 1.41-.89 1.6-2.03 1.06-2.89-.46-.73-1.17-.94-2.29-.7z" fill="url(#J)"/><path d="m179.47 209.05-.44-1.06-4.31 1.79.44 1.06 1.51-.63 1.9 4.54 1.26-.52-1.89-4.54z" fill="url(#K)"/><path d="m181.35 207.41-.64 6.32 1.4-.28.11-1.61 1.71-.34.76 1.44 1.45-.29-3.04-5.59zm.87 3.38.11-1.34c.02-.36.03-.83.04-1.2h.03c.16.33.35.76.52 1.09l.62 1.19z" fill="url(#L)"/><path d="m185.47 207.85 1.64.01-.02 4.91 1.37.01.02-4.92 1.65.01.01-1.15-4.67-.02z" fill="url(#M)"/><path d="m190.6 212.92 3.81.63.18-1.11-2.46-.4.23-1.43 2.21.37.18-1.1-2.2-.37.2-1.24 2.34.38.18-1.1-3.69-.61z" fill="url(#N)"/><path d="m201.51 209.36c-1.66-.65-3.25.18-3.91 1.88-.63 1.61-.14 3.26 1.52 3.92h.01c1.65.65 3.2-.03 3.93-1.89.62-1.56.19-3.23-1.55-3.91zm.19 3.42c-.44 1.11-1.25 1.72-2.11 1.38h-.01c-.85-.34-1.04-1.37-.62-2.43s1.25-1.72 2.13-1.37 1.01 1.41.61 2.42z" fill="url(#O)"/><path d="m208.18 214.12.57-.98-3.2-1.86-3.06 5.25 1.19.68 1.22-2.1 1.89 1.09.56-.96-1.88-1.1.69-1.2z" fill="url(#P)"/><path d="m178.45 261.33-.42 1.07 1.52.6-1.81 4.57 1.27.5 1.81-4.57 1.54.61.42-1.07z" fill="url(#Q)"/><path d="m182.37 269.06 3.84.44.12-1.12-2.47-.28.16-1.43 2.22.25.13-1.11-2.22-.25.14-1.25 2.35.26.13-1.11-3.71-.43z" fill="url(#R)"/><path d="m192.15 263.11-1.56.12-.43 1.14c-.13.36-.22.64-.34 1.04h-.02c-.17-.33-.33-.62-.53-.97l-.61-1.06-1.57.12 1.91 2.86-1.52 3.19 1.56-.12.41-1.13c.17-.44.29-.76.39-1.12h.02c.2.34.36.64.62 1.05l.63 1.05 1.58-.12-2.03-2.96z" fill="url(#S)"/><path d="m193.89 262.67-.33 6.33 1.38-.34.03-1.61 1.69-.42.83 1.4 1.43-.36-3.3-5.42zm1.02 3.33.05-1.34c0-.36-.01-.83-.02-1.2l.03-.01c.17.32.39.74.57 1.06l.68 1.16z" fill="url(#T)"/><path d="m203.19 264.13c-.3-.8-.97-1.14-2.11-1.13-.85 0-1.22-.04-1.36-.4-.11-.29.06-.65.62-.86.55-.21 1.02-.21 1.28-.18l-.1-1.13c-.4-.03-.91.02-1.56.27-1.33.51-1.87 1.55-1.5 2.52.31.82 1.13 1.11 2.2 1.08.77-.02 1.12.08 1.25.43.14.37-.08.73-.67.96-.55.21-1.15.24-1.56.19l.14 1.15c.39.05 1.09-.01 1.74-.26 1.57-.61 1.99-1.69 1.63-2.64z" fill="url(#U)"/><g fill="#24377d"><path d="m153.77 225.79c-.08.27-.19.47-.32.6-.14.13-.27.21-.41.22-.14.02-.45-.04-.94-.18l-7.36-2.13.21-.71c.13-.45.26-.75.4-.9.25-.27.53-.46.84-.57s.79-.15 1.43-.13l.07-.25-2.58-.75-2.48 8.57 2.58.75.08-.27c-.67-.31-1.14-.73-1.4-1.24-.19-.37-.19-.88 0-1.52l.2-.69 7.36 2.13c.48.14.77.25.86.33.14.12.22.25.25.39.05.2.03.43-.05.71l-.09.32.26.08 1.45-5-.26-.08zm11.61-17.34c-.3.02-.84-.12-1.63-.41l-8.34-3.1-.1.1 3.22 8.07c.31.77.47 1.32.48 1.65.01.13-.02.26-.05.38-.03.01-.05.04-.08.05-.16.06-.5.12-1.04.18l-4.1.41c.17-.6.2-1.12.11-1.57a2.35 2.35 0 0 0 -1.19-1.58c-.52-.3-1.06-.4-1.63-.32-.56.08-1.05.33-1.47.73s-.93 1.12-1.52 2.17l-2.28 4.01.24.13c.22-.39.41-.64.57-.75.15-.1.31-.15.46-.14s.46.15.93.42l5.6 3.19c.47.27.74.46.83.59.09.12.13.28.12.46s-.12.48-.35.88l.24.13 2.51-4.42-.24-.13c-.22.4-.41.64-.57.75-.15.1-.31.15-.46.14s-.46-.15-.93-.42l-2.42-1.38.32-.57 5.52-.55 1.19-2.1 1.89-1.95-.19-.19c-.39.34-.66.54-.8.58-.25.07-.48.01-.68-.19-.15-.15-.29-.38-.43-.7l-.4-.97 2.44-2.52 1.26.48c.33.13.51.2.55.22l.22.16c.11.1.15.22.13.35-.03.19-.18.42-.45.7l-.14.14.19.19 3.34-3.45-.19-.19c-.23.22-.45.32-.68.34zm-13.33 9.6-.21.36-3.78-2.15.39-.68c.39-.68.83-1.09 1.32-1.22s1.06-.01 1.72.37c.45.26.77.55.96.88s.25.67.19 1.02-.25.83-.59 1.42zm6.44-6.57-1.4-3.47 3.49 1.32zm8.47-14.24c.05-.43.21-.77.48-1.02l-.15-.22-2.7 1.82.15.22c.29-.19.54-.31.76-.36.16-.04.3-.03.43.02s.23.13.31.26c.07.11.13.25.19.43s.14.56.24 1.13l.83 4.75-4.52-2.92c-.48-.31-.77-.5-.87-.58s-.17-.15-.22-.23a.362.362 0 0 1 -.04-.36c.07-.18.28-.38.64-.62l.13-.09-.15-.22-3.95 2.66.15.23c.34-.18.62-.24.83-.18s.75.37 1.62.93l7.24 4.64.2-.14-1.41-8.2c-.15-.99-.22-1.64-.19-1.95zm9.74 5.34c-.26.11-.48.16-.67.13a.8.8 0 0 1 -.44-.17c-.1-.09-.25-.37-.46-.84l-2.61-5.99c-.2-.46-.3-.75-.29-.88 0-.18.05-.33.13-.44.12-.16.31-.3.58-.42l.3-.13-.11-.25-4.76 2.07.11.25.3-.13c.25-.11.48-.16.66-.13.19.02.33.08.43.18s.25.38.45.84l2.61 5.99c.2.46.3.75.29.88 0 .18-.04.33-.13.44-.12.16-.31.3-.58.42l-.3.13.11.25 4.76-2.07-.11-.25zm5.45-5.94c-.52-.39-1.41-.72-2.68-.99-.91-.19-1.49-.34-1.75-.44-.36-.14-.63-.3-.83-.49-.14-.14-.24-.32-.29-.53-.09-.34-.02-.67.19-1 .22-.33.57-.56 1.05-.68.62-.16 1.27-.06 1.93.29s1.16.91 1.51 1.68l.29-.07-.9-3.19-.21.05c.01.3-.01.5-.06.6-.05.09-.14.16-.26.19-.13.03-.37.01-.73-.06s-.66-.11-.89-.11c-.31 0-.62.04-.94.12-.86.22-1.5.67-1.92 1.35s-.54 1.41-.34 2.17c.12.45.32.83.62 1.16.3.32.68.58 1.14.79s1.18.41 2.17.62c.7.15 1.2.29 1.5.42s.53.28.71.47c.17.18.29.39.35.61.1.38.03.76-.21 1.13s-.63.62-1.16.76c-.69.18-1.39.07-2.13-.31-.73-.39-1.33-1.06-1.8-2.03l-.26.07.93 3.63.26-.07c.04-.22.11-.39.22-.52s.23-.21.35-.24c.15-.04.35-.04.6 0 .45.07.82.1 1.1.09.29-.01.58-.05.88-.13.96-.25 1.69-.74 2.17-1.48s.62-1.51.41-2.32c-.16-.64-.5-1.15-1.02-1.54zm13.97-5.21c-.12.11-.26.16-.42.15-.12-.01-.4-.11-.84-.32-.75-.35-1.48-.55-2.18-.6-.95-.06-1.85.11-2.72.53-.87.41-1.58 1.03-2.13 1.84s-.86 1.7-.92 2.64c-.06.9.11 1.76.5 2.58s.99 1.47 1.78 1.95 1.72.75 2.78.82c.8.05 1.52-.03 2.13-.25s1.22-.6 1.82-1.15l.06-.85c-.62.63-1.2 1.06-1.73 1.3-.54.24-1.12.34-1.74.3-.76-.05-1.37-.28-1.82-.68s-.77-.98-.94-1.72c-.18-.74-.24-1.56-.18-2.44.06-.9.27-1.71.62-2.43.28-.56.68-1 1.22-1.32s1.12-.46 1.74-.42c.74.05 1.39.33 1.94.85s.91 1.23 1.06 2.14l.29.02.23-3.44-.28-.02c-.07.24-.15.41-.27.52zm11.41 4.45c-.6-1.26-1.65-2.13-3.16-2.61-1.36-.55-2.68-.54-3.95.05-1.28.58-2.17 1.57-2.67 2.96-.45 1.24-.47 2.43-.07 3.6.51 1.47 1.6 2.51 3.28 3.12 1.68.6 3.19.48 4.54-.39 1.02-.65 1.74-1.57 2.17-2.75.5-1.4.46-2.72-.14-3.98zm-2.39 3.19c-.37 1.04-.79 1.84-1.25 2.4s-.94.92-1.45 1.07c-.4.12-.84.09-1.31-.08-.7-.25-1.15-.72-1.35-1.39-.29-.96-.14-2.24.44-3.84.48-1.34 1.04-2.3 1.66-2.89.76-.71 1.57-.91 2.42-.6.46.17.83.44 1.09.82s.4.92.41 1.62c.01.69-.21 1.66-.66 2.89zm10.17 6.87 2.18-3.08c.23-.33.42-.54.56-.63.2-.14.4-.2.62-.18s.44.1.67.26l.17.12.16-.22-2.8-1.98-.16.22c.33.23.55.46.66.67.07.14.09.32.06.53-.04.21-.18.5-.44.86l-2.34 3.31c-.61.86-1.11 1.41-1.51 1.65s-.82.35-1.27.32c-.45-.02-.89-.19-1.33-.5-.38-.27-.64-.57-.79-.91-.14-.33-.18-.66-.13-.97.06-.31.34-.83.86-1.56l2.81-3.97c.33-.46.56-.73.69-.81s.28-.11.44-.09.4.14.72.36l.21.15.16-.22-4.18-2.96-.16.22c.34.24.56.44.64.59.08.16.1.31.08.46-.03.15-.21.46-.54.92l-2.81 3.97c-.48.67-.75 1.29-.82 1.84s.07 1.14.41 1.76c.25.46.73.94 1.43 1.43.84.6 1.63.89 2.37.88s1.32-.18 1.74-.52c.41-.33.96-.97 1.64-1.92zm10.81 4.76c.2-.07.38-.07.54-.02s.4.22.71.5l.2-.18-2.16-2.47-.2.18c.37.41.52.8.46 1.16-.05.27-.29.6-.74.99l-3.22 2.81 1.42-7.74-2.32-2.66-.2.18c.19.23.31.44.35.62s.03.43-.03.76l-.06.33-5.28 4.61c-.4.35-.75.51-1.06.49s-.64-.23-1-.64l-.2.18 2.31 2.66.2-.18-.15-.18c-.22-.25-.34-.54-.36-.87s.18-.68.62-1.06l4.76-4.15-1.82 10.5.16.19 6.23-5.43c.37-.33.64-.52.84-.58zm-2.19 10.79 6.81-3.52.34.66c.21.41.32.72.33.93.01.37-.06.7-.22.99s-.47.65-.95 1.08l.12.23 2.39-1.23-4.1-7.92-2.39 1.23.13.25c.7-.24 1.33-.26 1.87-.06.39.14.74.51 1.05 1.1l.33.64-6.8 3.52c-.44.23-.73.35-.86.35-.18.01-.33-.02-.45-.11-.17-.11-.32-.29-.46-.55l-.15-.29-.24.12 2.39 4.62.24-.12-.15-.29c-.13-.25-.19-.47-.18-.66s.06-.34.14-.45c.09-.12.36-.29.81-.52zm11.32 8-.26.07c.08.44.09.75.01.94a.39.39 0 0 1 -.27.26c-.23.06-.76-.04-1.58-.29l-3.34-1.01 2.76-2.54c.59-.55.97-.85 1.14-.89.09-.02.19.01.3.1s.2.28.27.56l.05.21.26-.07-1.15-4.62-.26.07c.07.31.06.57-.04.79s-.5.66-1.2 1.31l-3.56 3.3-1.93.48c-.48.12-.79.17-.92.15-.18-.03-.32-.1-.41-.21-.14-.14-.25-.35-.32-.64l-.13-.5-.26.07 1.35 5.41.26-.07-.13-.54c-.06-.26-.07-.47-.01-.65.05-.18.13-.31.24-.39s.41-.19.91-.31l2.33-.58 4.01 1.22c1.01.29 1.65.53 1.91.72.18.13.34.36.46.66l.26-.07zm-76.48-54.47c-.57-.31-1.5-.5-2.8-.57-.92-.05-1.52-.11-1.8-.17-.38-.08-.67-.21-.89-.36-.16-.12-.28-.28-.37-.48-.14-.32-.12-.66.04-1.02s.47-.63.93-.83c.59-.25 1.24-.25 1.95 0s1.29.73 1.74 1.44l.28-.12-1.37-3.02-.2.09c.06.3.07.5.03.6s-.11.18-.23.23-.37.07-.73.05a4.14 4.14 0 0 0 -.9.03c-.31.05-.61.13-.91.26-.81.34-1.38.89-1.7 1.63s-.32 1.47-.01 2.2c.18.43.44.78.79 1.05s.76.48 1.25.61 1.23.23 2.24.28c.72.04 1.23.1 1.54.19.31.08.57.2.77.35s.35.34.44.55c.15.36.14.75-.04 1.15s-.53.71-1.03.92c-.65.28-1.37.28-2.15.01s-1.48-.85-2.08-1.74l-.25.11 1.46 3.45.25-.11c0-.22.05-.4.14-.55s.2-.24.31-.29c.14-.06.34-.09.59-.09.46 0 .82-.03 1.1-.08s.57-.14.85-.26c.92-.39 1.56-.99 1.92-1.79s.38-1.59.06-2.35c-.24-.6-.65-1.06-1.22-1.37zm13.11.64c-.27.07-.5.08-.68.03s-.32-.13-.4-.24-.19-.41-.32-.9l-1.67-6.32c-.13-.48-.18-.79-.16-.91.03-.18.09-.32.2-.42.14-.14.35-.25.63-.33l.31-.08-.07-.26-5.01 1.33.07.26.31-.08c.27-.07.5-.08.68-.03.19.05.32.13.4.24s.19.41.32.9l.72 2.72-3.39.9-.72-2.72c-.13-.48-.18-.79-.16-.91.03-.18.09-.32.2-.42.14-.14.35-.25.63-.33l.32-.08-.07-.26-5.02 1.33.07.26.32-.08c.27-.07.49-.08.68-.03s.32.13.4.24.19.41.32.9l1.67 6.32c.13.48.18.79.16.91-.02.18-.09.32-.19.41-.14.14-.36.25-.63.33l-.32.08.07.26 5.02-1.33-.07-.26-.32.08c-.27.07-.49.08-.68.03s-.32-.13-.4-.24-.2-.41-.33-.9l-.79-2.97 3.39-.9.79 2.97c.13.48.18.79.16.91-.03.18-.09.32-.2.42-.14.14-.35.25-.63.33l-.31.08.07.26 5.01-1.33-.07-.26zm7.91-1.84c-.5.49-1.21.8-2.13.91l-.59.07c-.28.03-.49.02-.62-.04-.14-.06-.23-.15-.29-.27s-.12-.44-.19-.99l-.34-2.78c.47-.06.84-.04 1.1.05s.51.31.74.64c.23.34.41.78.54 1.34l.28-.03-.63-5.16-.28.03c.02.77-.09 1.38-.33 1.8-.23.43-.66.68-1.29.76l-.2.02-.49-4.01 1.02-.12c.75-.09 1.26-.11 1.54-.06.48.09.87.27 1.16.55s.55.77.78 1.46l.28-.03-.36-2.92-8.25 1.01.03.27.33-.04c.32-.04.58 0 .78.11.14.08.25.2.32.36.04.1.08.37.14.82l.8 6.48c.06.49.07.8.03.93-.05.17-.13.3-.25.38-.16.12-.39.2-.67.24l-.33.04.03.27 8.52-1.05.06-3.19-.27.03c-.15.92-.47 1.62-.97 2.12zm17.13-7.33c.03-.5.08-.8.14-.92.08-.16.19-.27.32-.33.18-.09.42-.13.7-.11l.33.02.02-.27-5.18-.32-.02.27.33.02c.28.02.5.08.65.18.16.11.26.22.3.35s.05.45.02.96l-.41 6.52c-.03.5-.08.8-.14.92-.08.16-.18.27-.31.33-.18.09-.42.13-.7.11l-.22-.01-.01-.14c-.26-.01-.5-.08-.7-.23-.14-.1-.37-.37-.69-.79l-2.5-3.28c.6-.17 1.06-.41 1.39-.73.51-.5.76-1.11.73-1.84-.02-.6-.21-1.12-.58-1.55s-.83-.73-1.39-.87c-.56-.15-1.44-.2-2.64-.16l-4.61.15.01.27c.45-.01.77.02.93.09.17.08.29.18.36.32s.11.47.13 1.01l.21 6.44c.02.54 0 .87-.07 1.01-.06.14-.17.25-.33.34s-.47.14-.93.16l.01.27 5.08-.17-.01-.27c-.45.02-.77-.02-.93-.09a.761.761 0 0 1 -.36-.32c-.07-.14-.12-.47-.13-1.01l-.09-2.78.65-.02 3.35 4.42 3-.1-.01.13 5.18.32.02-.27-.33-.02c-.28-.02-.5-.08-.65-.18-.16-.1-.26-.22-.31-.35s-.06-.45-.02-.96zm-8.59 2.08c-.18.33-.44.56-.77.7s-.84.21-1.52.24l-.42.01-.14-4.35.78-.03c.79-.03 1.36.14 1.73.49s.56.9.58 1.66c.03.52-.06.95-.24 1.28zm18.93.39.3.04.42-2.82-8.29-1.25-.04.27.33.05c.28.04.49.12.63.24s.24.24.27.38c.03.13.01.45-.06.95l-.97 6.46c-.07.49-.15.79-.22.9-.09.15-.21.26-.34.3-.19.08-.43.09-.71.05l-.33-.05-.04.27 5.13.77.04-.27-.33-.05c-.28-.04-.49-.12-.63-.24-.15-.12-.24-.24-.28-.38-.04-.13-.02-.45.06-.95l.45-3.01.28.04c.52.08.96.3 1.32.65s.52 1.01.47 1.96l.25.04.74-4.93-.25-.04c-.14.52-.32.92-.56 1.2s-.5.46-.8.55c-.29.09-.66.1-1.09.04l-.28-.04.61-4.03.91.14c.78.12 1.31.23 1.59.35.51.21.88.49 1.1.85.25.37.35.89.32 1.56zm2.14-2.21.32.08c.27.07.47.17.6.31.13.13.21.27.23.4.02.14-.03.45-.16.94l-1.66 6.32c-.13.48-.23.77-.31.87-.11.14-.23.23-.37.27-.2.05-.43.05-.71-.03l-.32-.08-.07.26 5.02 1.32.07-.26-.32-.08c-.27-.07-.47-.17-.6-.31-.13-.13-.21-.27-.23-.41s.03-.45.16-.94l.77-2.94.28.07c.51.13.92.4 1.24.79.32.4.41 1.06.26 2l.25.06 1.27-4.82-.25-.06c-.19.5-.42.88-.69 1.13s-.55.41-.85.47-.67.03-1.09-.08l-.28-.07 1.04-3.95.89.23c.76.2 1.28.37 1.54.52.48.26.82.59 1.01.97s.23.91.13 1.57l.29.08.72-2.76-8.1-2.13zm12.24 5.03c.19-.53.2-1 .03-1.41s-.46-.68-.85-.82c-.33-.12-.65-.1-.96.05s-.52.38-.63.68c-.1.29-.09.57.04.85.12.28.32.47.59.57.2.07.38.09.54.06h.14l.08.09-.01.19c-.14.39-.39.72-.76 1s-.86.44-1.48.48l-.11.3c.87.04 1.59-.13 2.17-.5.57-.37.98-.88 1.21-1.54zm8.42 1.56c-.18.25-.32.39-.42.43s-.21.04-.32-.01c-.12-.05-.3-.22-.54-.5s-.45-.49-.63-.64c-.25-.19-.51-.36-.81-.49-.81-.36-1.59-.4-2.35-.13s-1.3.77-1.62 1.49c-.19.42-.26.86-.23 1.29.04.44.17.88.41 1.33.23.45.67 1.06 1.32 1.83.46.55.77.97.92 1.25s.24.55.26.8c.03.25-.01.48-.11.7-.16.36-.45.61-.87.75s-.88.1-1.38-.12c-.65-.29-1.14-.81-1.47-1.56s-.39-1.66-.16-2.71l-.25-.11-1.52 3.43.25.11c.16-.15.33-.24.5-.27s.31-.02.43.03c.14.06.29.18.47.37.31.33.58.58.81.75s.49.32.77.45c.91.4 1.78.46 2.62.18s1.42-.81 1.76-1.56c.27-.6.32-1.21.16-1.84s-.66-1.44-1.49-2.43c-.59-.71-.96-1.19-1.11-1.43-.19-.33-.31-.63-.35-.9-.02-.2.01-.4.1-.6.14-.32.4-.54.77-.66.37-.13.79-.09 1.24.11.59.26 1.04.74 1.34 1.42.3.69.35 1.44.14 2.25l.28.12 1.27-3.06zm-58.21 125.64c-.61-1.25-1.67-2.11-3.19-2.58-1.36-.54-2.68-.51-3.95.09s-2.15 1.59-2.63 2.99c-.43 1.24-.44 2.44-.03 3.6.52 1.46 1.63 2.49 3.32 3.08 1.68.59 3.19.44 4.53-.44 1.01-.66 1.72-1.59 2.14-2.78.49-1.38.42-2.7-.19-3.96zm-2.35 3.22c-.36 1.04-.77 1.85-1.22 2.42s-.93.93-1.44 1.08c-.4.12-.83.1-1.31-.07-.71-.25-1.16-.71-1.37-1.38-.3-.96-.17-2.24.39-3.84.47-1.35 1.01-2.32 1.63-2.91.75-.72 1.56-.93 2.42-.63.47.16.83.43 1.1.81s.41.92.43 1.61c.01.71-.2 1.67-.63 2.91zm4.45-3.91-.05.27.32.06c.27.05.48.13.63.26.14.12.23.25.26.39s0 .45-.09.95l-1.15 6.43c-.09.49-.17.79-.24.89-.1.15-.21.25-.35.29-.19.07-.43.08-.71.03l-.33-.06-.05.27 5.11.91.05-.27-.32-.06c-.27-.05-.48-.13-.63-.26-.14-.12-.23-.25-.27-.39s0-.45.08-.95l.53-2.99.28.05c.51.09.95.32 1.3.69s.49 1.02.42 1.97l.25.04.88-4.91-.25-.04c-.15.51-.35.91-.59 1.18s-.52.45-.81.53c-.3.08-.66.08-1.09 0l-.28-.05.72-4.02.91.16c.78.14 1.31.27 1.58.39.5.22.86.52 1.08.88.22.37.3.89.25 1.56l.3.05.5-2.8zm8.5 1.78.33.01c.28.01.5.07.66.17s.26.21.31.34.07.45.05.95l-.22 6.53c-.02.5-.05.8-.11.92-.07.16-.18.28-.3.34-.18.1-.41.14-.7.13l-.33-.01-.01.27 5.19.18.01-.27-.33-.01c-.28-.01-.5-.06-.66-.17-.16-.1-.27-.21-.32-.34s-.07-.45-.05-.95l.1-3.04.29.01c.52.02.98.18 1.39.5.4.31.63.94.69 1.89l.26.01.17-4.99-.26-.01c-.08.53-.22.95-.42 1.25-.2.31-.45.52-.73.64s-.64.18-1.08.16l-.29-.01.14-4.08.92.03c.79.03 1.33.08 1.62.17.53.15.93.39 1.2.72s.43.83.47 1.5l.3.01.1-2.85-8.37-.28zm14.25 9.2c-.28.02-.5-.01-.67-.1-.17-.08-.29-.19-.35-.31s-.11-.44-.15-.94l-.45-6.52c-.03-.5-.03-.81.02-.93a.67.67 0 0 1 .28-.37c.17-.11.4-.18.68-.2l.33-.02-.02-.27-5.18.36.02.27.33-.02c.28-.02.5.01.67.1.17.08.29.19.35.31s.11.44.15.94l.45 6.52c.03.5.03.81-.02.93-.06.17-.15.29-.27.37-.17.11-.4.18-.68.2l-.33.02.02.27 5.18-.36-.02-.27zm9.23-1.86c-.47.35-1.01.58-1.63.68-.75.12-1.39.03-1.93-.26-.53-.29-.97-.78-1.3-1.47-.34-.69-.58-1.47-.72-2.34-.14-.89-.12-1.73.07-2.5.14-.61.45-1.13.9-1.56.46-.43.99-.7 1.6-.8.73-.12 1.43.01 2.08.39s1.16 1 1.51 1.85l.28-.04-.54-3.4-.28.04c.01.25-.04.44-.13.57s-.22.21-.37.23c-.12.02-.42-.02-.89-.12-.81-.18-1.57-.21-2.26-.1-.94.15-1.78.52-2.54 1.12s-1.31 1.35-1.67 2.27-.46 1.84-.31 2.78c.14.89.5 1.69 1.06 2.4.57.71 1.29 1.22 2.17 1.51s1.84.35 2.89.18c.79-.13 1.47-.37 2.02-.72s1.06-.86 1.52-1.52l-.14-.85c-.45.76-.92 1.31-1.39 1.66zm11.56-5.38-.26.08c.01.91-.19 1.65-.61 2.22s-1.07.98-1.96 1.24l-.57.17c-.27.08-.48.1-.62.06s-.25-.11-.33-.22c-.08-.1-.19-.42-.35-.94l-.78-2.69c.46-.13.82-.17 1.09-.12s.55.22.83.52c.28.29.53.71.74 1.23l.27-.08-1.45-5-.27.08c.14.76.13 1.37-.03 1.83s-.55.78-1.15.95l-.19.05-1.12-3.88.99-.29c.72-.21 1.23-.31 1.51-.3.49.01.9.13 1.24.36.33.23.67.67 1 1.32l.27-.08-.82-2.82-7.99 2.31.08.26.32-.09c.31-.09.57-.09.79-.02.15.05.28.15.37.3.05.09.14.35.26.79l1.82 6.28c.14.48.2.78.18.91a.68.68 0 0 1 -.18.42c-.14.15-.35.26-.63.34l-.32.09.08.26 8.25-2.39zm-28.21-25.84 1.61 3.26 3.6.52-2.6 2.54.61 3.59-3.22-1.7-3.22 1.7.62-3.59-2.61-2.54 3.6-.52z"/><circle cx="148.33" cy="250.01" r=".94"/><circle cx="231.14" cy="249.64" r=".94"/></g><path d="m89.49 73.69c-.77-.76-4.55-3.82-11.89-8.97-4.92-3.63-8.52-6.62-10.6-9.25-.87-1.15-1.58-2.51-2.13-4.1-1.57-4.52-.37-7.4 3.52-8.45 3-.81 6.55-.09 10.18 2.28 3.11 2.03 5.15 4.25 6.15 6.5 1-.24 1.49-.36 2.49-.59a847.57 847.57 0 0 0 -7.74-15.35c-1.22.29-1.83.44-3.05.75-.51 1.2-.77 1.79-1.27 2.99-2.82-.93-5.45-1.09-7.83-.55-5.55 1.27-9.49 3.71-11.23 7.13-1.5 2.93-1.55 6.35-.15 10.05 1.6 4.25 5.04 8.27 9.99 12.14 5.44 3.77 8.11 5.7 13.31 9.63 4.87 3.79 7.88 7.83 9.35 11.72 1.59 4.22.89 6.76-2.14 7.58-2.55.69-5.63-.19-9.4-2.49-3.37-2.06-5.67-4.17-6.75-6.21-.9.27-1.35.41-2.24.69 3.48 5.98 5.19 8.99 8.56 15.01 1-.3 1.5-.45 2.51-.75.31-1.21.46-1.81.78-3.02 2.5.93 5.03 1.06 7.56.49 4.41-.99 7.61-3.02 9.21-6.07 1.37-2.61 1.47-5.93.35-9.88-1.1-3.88-3.53-7.7-7.54-11.28z" fill="url(#W)"/><path d="m127.28 31.82c1.82-1.96 2.74-2.93 4.6-4.87-8.78 1.08-13.17 1.72-21.9 3.22 2.45 1.31 3.66 1.97 6.07 3.31 1.92 9.92 2.89 14.89 4.81 24.81-4.57.73-6.85 1.12-11.39 1.98-2.25-9.87-3.37-14.8-5.61-24.67 1.7-2.05 2.56-3.07 4.3-5.1-8.72 1.53-13.07 2.4-21.72 4.35 2.53 1.18 3.79 1.77 6.28 2.99 4.6 17.75 9.19 35.5 13.79 53.25-1.34 2.03-2 3.04-3.29 5.08 7.23-1.63 10.87-2.36 18.16-3.64a283.31 283.31 0 0 0 -5.33-3.36c-2.25-9.87-3.37-14.8-5.61-24.67 4.49-.84 6.74-1.23 11.26-1.95 1.92 9.92 2.89 14.89 4.81 24.81-1.46 1.95-2.18 2.94-3.59 4.9 7.3-1.25 10.97-1.79 18.31-2.69-2.02-1.46-3.04-2.19-5.11-3.63-2.95-18.05-5.9-36.09-8.84-54.12z" fill="url(#X)"/><path d="m165.99 82.89c-2.98.17-4.47.27-7.44.5-.91-9.74-1.36-14.61-2.27-24.35 1.3-.1 1.96-.15 3.26-.24a296.6 296.6 0 0 1 7.18 6.39c-.49-7.64-.74-11.45-1.23-19.09-2.62 2.87-3.9 4.32-6.4 7.22-1.33.09-1.99.14-3.31.24-.91-9.74-1.36-14.61-2.27-24.35 3.47-.27 5.21-.38 8.68-.58 4.57 4.97 6.79 7.48 11.08 12.55-.3-6.98-.45-10.47-.74-17.44-12.42.44-24.83 1.37-37.18 2.79 2.81 1.39 4.21 2.09 6.97 3.52 2.23 18.12 4.46 36.24 6.68 54.36-1.98 1.91-2.96 2.87-4.88 4.8 10.28-1.23 20.74-2.01 31.09-2.33-.3-6.98-.45-10.47-.74-17.44-3.55 5.34-5.24 8.03-8.48 13.45z" fill="url(#Y)"/><path d="m210.53 84.32c-.43-.94-.63-2.37-.5-4.36.45-6.97.67-10.46 1.11-17.43.23-3.57-1.22-5.74-4.47-6.62 3.38-1.77 5.28-4.33 5.49-7.57.37-5.78.56-8.66.93-14.44.18-2.74-.92-5.05-3.46-7.08s-5.74-3.15-9.33-3.23c-9.72-.24-14.59-.23-24.31.04 2.65 1.62 3.96 2.44 6.55 4.1.31 18.23.61 36.46.92 54.69-2.17 1.73-3.24 2.6-5.35 4.35 8.13-.22 12.2-.23 20.33-.04-2.12-1.75-3.19-2.61-5.37-4.33.12-9.91.19-14.86.31-24.77 1.77.02 2.66.03 4.43.07 2.22.05 3.24.91 3.18 2.57-.27 7.74-.4 11.62-.67 19.36-.16 4.74 1.59 7.19 5.27 7.34 3.41.14 5.11.24 8.51.45-1.94-1.18-3.15-2.17-3.57-3.1zm-8.66-33.82c-.06 1.58-1.81 2.86-3.95 2.81-1.79-.04-2.69-.05-4.49-.07.13-10.17.19-15.26.32-25.44 1.92.02 2.88.03 4.81.07 2.29.05 4.07 1.43 4.01 3.09z" fill="url(#Z)"/><path d="m245.55 26.89c-9.66-1.18-14.51-1.64-24.21-2.31 2.45 1.87 3.65 2.81 6.04 4.71-1.84 18.16-3.67 36.32-5.51 54.47-2.36 1.51-3.53 2.27-5.83 3.81 8.12.56 12.17.95 20.25 1.93-1.91-1.94-2.87-2.91-4.84-4.83l7.11-54.32c2.77-1.4 4.17-2.1 6.99-3.46z" fill="url(#aa)"/><path d="m260.84 58.31c1.97-9.61 2.95-14.42 4.92-24.03 3.44.58 5.15.88 8.58 1.53 2.98 5.89 4.39 8.85 7.07 14.78 1.75-6.8 2.63-10.2 4.38-17a458.655 458.655 0 0 0 -36.79-6.27c2.31 2.01 3.45 3.02 5.7 5.06l-9.42 54.03c-2.47 1.36-3.69 2.05-6.11 3.45 8.07 1.04 12.1 1.67 20.11 3.14-1.77-2.05-2.67-3.07-4.49-5.11 1.98-9.68 2.97-14.52 4.95-24.19 1.29.22 1.94.33 3.23.56 2.09 3.15 3.11 4.73 5.08 7.9 1.75-7.48 2.63-11.22 4.39-18.7-3.37 2.14-5.04 3.22-8.31 5.42-1.32-.24-1.98-.35-3.29-.57z" fill="url(#ab)"/><path d="m290.66 34.64c2.09 2.21 3.12 3.33 5.14 5.56-5.1 17.64-10.21 35.27-15.31 52.91-2.62 1.13-3.91 1.71-6.48 2.88 7.95 1.78 11.91 2.77 19.77 4.97-1.55-2.21-2.33-3.31-3.94-5.5 3.04-9.45 4.55-14.17 7.59-23.62l3.17.85c1.75 3.32 2.59 4.99 4.23 8.33 2.57-7.28 3.85-10.93 6.43-18.21-3.61 1.81-5.39 2.74-8.91 4.63-1.29-.35-1.93-.52-3.22-.86 3.02-9.39 4.52-14.08 7.54-23.46 3.37.89 5.06 1.35 8.42 2.31 2.34 6.14 3.43 9.21 5.47 15.36 2.49-6.61 3.74-9.91 6.23-16.52-11.91-3.7-23.97-6.91-36.13-9.63z" fill="url(#ac)"/><path d="m157.15 345.2v48.22l-3.59 3.74h20.65v-15.39l-5.9 11.5h-4.88v-21.54h1.99l4.11 6.01v-16.86l-4.11 6.01h-1.99v-21.55h4.88l5.9 11.51v-15.39h-20.65zm-27.89 14.36 6.48-14.22h1.92v48.08l-3.59 3.74h13.4l-3.59-3.74v-48.08h1.92l6.48 14.22v-18.1h-23.02zm63.73 7.11 6.03-21.4 3.59-3.74h-10.51l3.59 3.74-4.36 15.39-4.17-15.39 3.59-3.74h-13.47l3.59 3.74 7.25 26.82-6.09 21.4-3.53 3.74h10.45l-3.59-3.74 4.36-15.39 4.17 15.39-3.53 3.74h13.4l-3.52-3.74zm26.04-25.21h-3.33l-7.12 51.96-4.17 3.74h11.67l-3.59-3.74 1.03-7.99h6.41l1.09 7.99-3.53 3.74h12.82l-3.59-3.74zm-5.01 40.09 2.56-19.71 2.76 19.71zm33.28-6.31c-.32-.81-2.05-4.18-5.26-10.19-2.12-4.18-3.53-7.55-4.17-10.26-.26-1.17-.38-2.49-.38-3.96 0-4.18 1.15-6.3 3.4-6.3 1.73 0 3.46 1.39 5.07 4.18 1.35 2.42 2.12 4.69 2.31 6.82h1.48l-1.8-14.66h-1.73l-1.15 2.27c-1.35-1.39-2.69-2.12-4.04-2.2-3.14-.22-5.58.88-7.18 3.3-1.35 2.13-2.05 4.91-2.05 8.35 0 3.96 1.03 8.21 3.01 12.68l5.71 11.29c2.12 4.32 3.21 8.35 3.33 12.02.19 3.96-.77 5.94-2.82 5.94-1.73 0-3.46-1.47-5.26-4.32-1.6-2.57-2.5-4.91-2.69-6.89h-1.47l1.79 14.73h1.73l1.15-2.35c1.35 1.39 2.88 2.12 4.62 2.2 3.01.22 5.39-.88 6.99-3.15 1.35-1.98 1.99-4.76 1.99-8.35-.01-3.52-.85-7.26-2.58-11.15zm-183.11-254.34 1.33-.62 8.06 5.67-4.58-9.86-15.87 7.38 4.59 9.85.86-9.81 1.32-.62 12.18 26.18-1.53 3.18 9.23-4.29-3.42-.89zm36.13 15.62-2.85-8.79c-.58-1.8-1.62-2.62-3.18-2.53 1.13-1.43 1.43-3.01.91-4.64l-2.36-7.29c-.45-1.38-1.32-2.35-2.7-2.96-1.38-.62-2.84-.7-4.28-.24l-9.74 3.15 3.29 1.3 8.92 27.55-1.91 2.98 9.74-3.15-3.29-1.3-4.04-12.48 1.95-.63c.97-.31 1.57-.05 1.84.79l3.16 9.76c.77 2.39 2.05 3.32 3.81 2.75l4.08-1.32c-1.15-.23-1.9-.5-2.28-.88-.38-.4-.74-1.07-1.07-2.07zm-10.25-11.25-1.95.63-4.15-12.81 1.95-.63c.93-.3 1.89.13 2.16.97l3.18 9.84c.26.79-.26 1.7-1.19 2zm20.89-21.46-2.48.51.97 31.65-2.65 2.84 8.69-1.78-3.13-1.65-.2-4.85 4.77-.98 1.78 4.53-2.17 2.74 9.55-1.96-3.12-1.65zm1.12 24.34-.47-11.99 4.43 11.17zm20.76-25.77-.18 19.22-6.22-18.23 2.3-2.63-9.63 1.49 3.04 1.8 10.55 29.94 2.5-.39.58-31.66 2.79-2.7-8.77 1.36zm18.91-2.48 2.45-2.55-10.17 1.18 2.97 1.91 3.32 28.77-2.45 2.54 10.17-1.17-2.97-1.92zm21.93 16.28c-.28-.47-1.72-2.4-4.39-5.84-1.77-2.4-2.98-4.34-3.57-5.94-.24-.69-.39-1.47-.45-2.35-.17-2.5.62-3.83 2.33-3.95 1.31-.09 2.68.66 4.01 2.25 1.12 1.38 1.79 2.7 2.02 3.97l1.12-.07-1.95-8.69-1.31.09-.79 1.42c-1.08-.77-2.13-1.14-3.15-1.11-2.39.03-4.2.81-5.31 2.34-.94 1.34-1.36 3.04-1.22 5.11.16 2.37 1.11 4.86 2.79 7.44l4.78 6.47c1.78 2.48 2.77 4.84 3.01 7.03.3 2.36-.35 3.59-1.9 3.7-1.31.09-2.68-.7-4.16-2.32-1.32-1.46-2.09-2.81-2.32-3.99l-1.12.07 1.95 8.73 1.31-.09.78-1.46c1.08.77 2.27 1.13 3.59 1.08 2.29-.02 4.05-.8 5.17-2.24.94-1.25 1.32-2.95 1.17-5.1-.14-2.12-.92-4.31-2.39-6.55zm36.93-19.35c-1.08-.88-2.53-1.34-4.42-1.43-1.85-.08-3.38.29-4.64 1.16-1.36.91-2.1 2.15-2.17 3.78l-1.05 23.74c-.08 1.71.59 3.11 2.01 4.18 1.28.94 2.82 1.4 4.62 1.44 1.71.03 3.14-.35 4.4-1.22 1.36-.91 2.05-2.2 2.12-3.83l.2-4.53-1.46-.06c-.21 4.88-1.74 7.28-4.51 7.2-1.95-.09-2.88-1.05-2.8-2.85l1.11-25.19c.04-1.01.75-1.51 2.06-1.45 2.53.11 4.23 2.61 5.04 7.44l1.22.05.42-9.54-1.22-.05zm20.53 1.68c-1.13-.99-2.6-1.56-4.39-1.73-1.79-.16-3.34.14-4.63.9-1.45.84-2.25 2.09-2.4 3.71l-2.18 23.66c-.15 1.62.41 3 1.68 4.13 1.13 1.03 2.59 1.61 4.44 1.78 1.79.17 3.39-.17 4.74-1.02 1.35-.89 2.1-2.1 2.25-3.68l2.17-23.66c.15-1.62-.41-3-1.68-4.09zm-2.84 2.74-2.34 25.5c-.11 1.18-.8 1.78-2.02 1.71-1.17-.06-2.02-.89-1.91-2.08l2.34-25.5c.12-1.27.85-1.82 2.16-1.7 1.31.13 1.88.8 1.77 2.07zm22.86-.86 1.84 2.58-4.28 25.65c-.31 1.87-1.67 2.93-3.17 2.68-1.49-.25-2.35-1.6-2.03-3.55l4.28-25.65 2.58-1.84-9.18-1.54 1.84 2.58-4.27 25.56c-.3 1.78.14 3.28 1.32 4.55 1.09 1.16 2.69 1.92 4.76 2.27 3.6.6 6.28-1.22 6.83-4.48l4.3-25.73 2.58-1.84zm23.35 4.99 2.09 2.84-3.65 14.33-1.42-17.93-6.42-1.63 2.09 2.84-7.14 28.07-3.2 1.5 8.6 2.19-2.09-2.85 4.36-17.15 2.02 21.09 2.51.63 7.69-30.23 3.15-1.52zm15.09 4.17-3.56 10.27 7.45-6.45 1.38.48-9.45 27.27-3.31 1.23 9.62 3.33-1.84-3.01 9.45-27.28 1.38.48 1.86 9.68 3.55-10.27zm33.83 13.06 1.58 3.16-6.8 7.09.88-9.73 3.41-.94-9.35-4.17 1.58 3.16-1.27 13.84-6.45 14.43-3.36.95 9.3 4.16-1.53-3.14 6.67-14.95 9.23-9.66 3.41-.94z" fill="#fff"/></svg>