<svg height="2500" width="2500" xmlns="http://www.w3.org/2000/svg" viewBox="0 0 696 696"><path d="M0 0h696v696H0V0z" fill="#baa48f"/><path d="M0 609h696v87H0v-87zM0 0h696v87H0V0z"/><path d="M225 276c4.363 3.317 8.205 7.045 12 11l2.484 2.531c15.844 16.801 23.114 37.793 23.004 60.705-.766 24.16-11.843 46.168-29.199 62.748-18.8 16.554-41.72 23.7-66.455 22.264-14.7-1.287-28.222-6.764-40.834-14.248v-2l-2-.563c-15.33-7.345-26.55-26.78-31.969-42.156-7.413-23.588-5.614-47.99 5.73-69.976A282.62 282.62 0 0 1 103 297h2l.734-1.691c3.75-6.84 10.14-12.575 16.266-17.309l2.203-1.883c3.273-2.477 6.628-4.3 10.297-6.117l2.12-1.055C165.167 255.12 199.068 258.037 225 276z" fill="#bba690"/><path d="M225 276c4.363 3.317 8.205 7.045 12 11l2.484 2.531c15.844 16.801 23.114 37.793 23.004 60.705-.766 24.16-11.843 46.168-29.199 62.748-18.8 16.554-41.72 23.7-66.455 22.264-14.7-1.287-28.222-6.764-40.834-14.248v-2l-2-.563c-15.33-7.345-26.55-26.78-31.969-42.156-7.413-23.588-5.614-47.99 5.73-69.976A282.62 282.62 0 0 1 103 297h2l.734-1.691c3.75-6.84 10.14-12.575 16.266-17.309l2.203-1.883c3.273-2.477 6.628-4.3 10.297-6.117l2.12-1.055C165.167 255.12 199.068 258.037 225 276zm-109.688 18.75C98.703 313.975 94.376 335.321 96 360c1.723 14.59 9.481 29.008 19 40l1.824 2.43C128.417 416.125 147.4 424.839 165 427c19.224 1.154 40.196-2.147 56-14v-2l2.148-.668c3.486-1.628 5.842-3.919 8.477-6.644l1.445-1.436c4.999-4.873 4.999-4.873 6.93-11.252h2c11.854-19.068 15.092-41.49 10.102-63.273-3.406-11.523-8.495-21.383-16.102-30.727l-1.441-1.863c-2.526-3.19-5.23-5.797-8.559-8.137h-2v-2l-4-1v-2a2245.041 2245.041 0 0 0-7.5-3.813l-2.11-1.08c-32.73-16.516-70.1-8.608-95.077 17.643z" fill="#e7f6ca"/><path d="M497 305c29.84 0 29.84 0 37 7 4.086 5.835 3.433 12.191 3.398 19.027l.01 3.825c.001 2.666-.003 5.33-.017 7.996-.017 3.4-.007 6.8.01 10.201.014 3.264.005 6.527-.003 9.79l.019 3.679c-.065 7.885-.522 13.225-5.917 19.295-10.927 9.56-11.75 4.187-34.5 4.187v-85z" fill="#283d24"/><path d="M351 305c29.895 0 29.895 0 37 6 4.31 7.328 3.954 16.726 3 25-.928 3.423-1.863 5.09-4 8-2.14 1.191-2.14 1.191-4 2v2l1.813.75c2.964 1.694 4.653 3.663 5.75 6.92.606 3.23.673 6.445.753 9.72l.063 2.136c.066 2.241.125 4.483.183 6.724l.131 4.57c.107 3.727.209 7.453.307 11.18-2.146.027-4.292.046-6.438.063l-3.62.035C379 390 379 390 378 389c-.122-2.17-.18-4.345-.21-6.52l-.087-4.037a916.686 916.686 0 0 1-.104-6.379 604.02 604.02 0 0 0-.122-6.146l-.06-3.726c-.54-4.249-.54-4.249-3.417-7.192l-9-1v37h-14v-86z" fill="#2b4027"/><path d="M445 305h16c2.086 5.346 3.816 10.632 5.227 16.191l.585 2.27c.404 1.57.805 3.14 1.205 4.712.608 2.388 1.225 4.775 1.842 7.161l1.18 4.607.552 2.135c1.096 4.337 1.77 8.457 2.409 12.924l1-50h12v85h-15a44147.67 44147.67 0 0 1-4.962-19.794l-1.685-6.717c-.813-3.24-1.624-6.48-2.435-9.72l-.749-2.978c-1.811-7.247-3.488-14.509-5.169-21.791l-1 61h-11v-85z" fill="#293f26"/><path d="M601 307c4.65 4.316 6.886 8.665 7.195 14.988a306.758 306.758 0 0 1-.07 4.325l-.027 2.244c-.024 1.814-.06 3.629-.098 5.443h-12l-.078-2.957-.172-3.856-.14-3.832c-.292-3.391-.292-3.391-2.497-5.277-2.653-1.354-4.176-1.605-7.113-1.078-2.962 3.064-3.375 5.28-3.372 9.471l-.02 3.317.029 3.564-.002 3.667c.003 2.557.012 5.114.029 7.671.023 3.927.02 7.852.014 11.779.005 2.482.012 4.963.021 7.445l-.003 3.576.03 3.298.013 2.91c.041 2.497.041 2.497 2.261 4.302 1.91.318 1.91.318 4 .25l2.125.016c2.119-.109 2.119-.109 3.875-2.266.307-2.9.512-5.718.625-8.625l.117-2.43c.095-1.981.177-3.963.258-5.945h12c.109 3.001.188 5.998.25 9l.102 2.543c.104 6.706-1.228 12.092-5.884 17.107-4.125 3.793-8.452 3.716-13.843 3.725l-2.25.074c-5.257.028-8.21-.984-12.375-4.449-3.775-5-5.118-8.52-5.177-14.721l-.039-3.562-.022-3.854-.025-3.965c-.015-2.773-.025-5.546-.032-8.32a1305.56 1305.56 0 0 0-.085-10.607c-.033-3.39-.037-6.78-.046-10.17l-.053-3.824c.019-7.662.455-13.675 5.927-19.524 7.195-6.443 18.485-6.293 26.552-1.453z" fill="#283e25"/><path d="M400 305h37v12h-23v23h18v12h-18v26h23v13h-37v-86z" fill="#2d4128"/><path d="M303 305h42v13h-14v73h-14v-73h-14v-13z" fill="#2f432a"/><path d="M201 329h18v68h-18v-68z" fill="#e7f7cb"/><path d="M546 305h14c.023 11.065.04 22.13.052 33.196.005 5.138.012 10.275.023 15.413.011 4.953.017 9.907.02 14.86.002 1.895.005 3.79.01 5.684.008 2.643.009 5.287.009 7.93l.01 2.398c-.01 5.405-.01 5.405-1.124 6.519h-13v-86z" fill="#2e4229"/><path d="M178 345h18v52h-18v-52z" fill="#e7f7cb"/><path d="M510 317h10c3.715 3.715 4.123 5.84 4.145 10.867l.02 2.994.003 3.229.01 3.321c.005 2.32.007 4.639.007 6.958.002 3.55.02 7.102.04 10.652.003 2.252.005 4.504.005 6.756l.022 3.223-.01 3.004.005 2.637c-.27 2.575-.865 4.18-2.247 6.359-2 1-2 1-12 1v-61z" fill="#b6a18c"/><path d="M199.816 298.902c1.582.006 3.165.02 4.746.036L213 299v17l-5 1-1-5c-3.988 3.394-7.852 6.804-11.438 10.625C180.846 337.427 154.604 358.029 133 360l-2-2c.043-2.473.043-2.473 1-5 2.3-1.371 2.3-1.371 5.312-2.437 10.376-3.95 19.748-9.055 29.07-15.024C169 334 169 334 171 334v-2c1.828-1.437 1.828-1.437 4.25-3l2.39-1.562A70.16 70.16 0 0 1 184 324v-2a83.837 83.837 0 0 1 4.562-3.687c7.723-5.746 7.723-5.746 13.438-13.313h-6a88.406 88.406 0 0 1-1-5c1-1 1-1 4.816-1.098z" fill="#e7f7cb"/><path d="M156 360h17v37h-17v-37zM133 370h17v27h-17v-27z" fill="#e9facd"/><path d="M365 318h10c3.397 4.53 3.432 6.007 3.438 11.5l.058 3.969c-.562 4.003-1.332 5.127-4.496 7.531-2 1-2 1-9 1v-24z" fill="#b5a18b"/></svg>