<svg height="500pt" viewBox="21.6 215 447.4 95" width="500pt" xmlns="http://www.w3.org/2000/svg"><path d="m25 215.7c-.8.3-1.8 1.1-2.2 1.7-1.2 1.8-1 88.4.2 90.7 1 1.9 3.1 1.9 85.5 1.9 79.4 0 84.5-.1 85.4-1.8 1.3-2.5 1.2-90.4-.1-92-.8-.9-18.8-1.2-84.2-1.1-45.7 0-83.8.3-84.6.6zm109.3 7.5c7.5 3.9 5.6 14.2-2.6 14.2-8.6 0-10.8-10.1-3.2-14.2 2.6-1.4 3.2-1.4 5.8 0zm-54.3 3.7c2.9 5.6 0 8.1-9.6 8.1-4.5 0-5.4.3-5.4 1.7-.1 1-.1 12.4 0 25.4.1 27.9.5 26.9-9.8 26.9-3.7 0-7.4-.5-8.2-1-1.3-.8-1.5-5-1.8-26.2-.2-13.9-.7-25.7-1.2-26.2s-3.1-.8-5.9-.7c-8.9.3-12-2.5-9.1-8 1-1.8 2.4-1.9 25.5-1.9s24.5.1 25.5 1.9zm26.1 20.5c8.7 3.6 11.2 12.6 5.7 19.9-1.6 1.9-2.8 4-2.8 4.5s1.8 3.5 4 6.6c2.2 3.2 4.2 6.7 4.3 7.9.2 2-.3 2.2-5.2 2.5-8.9.5-9.6.1-13.8-8.8-2-4.3-4-7.7-4.5-7.4-.4.3-.8 3.2-.8 6.5 0 8.7-.9 9.9-7.5 9.9-4.3 0-5.6-.4-6.5-1.9-.6-1.2-1-9.3-1-19.3 0-22.7-.5-21.8 13.9-21.8 7.1 0 12 .5 14.2 1.4zm31.3.2c1.3 1.3 1.6 4.6 1.6 20.4 0 21.3.1 21-7.9 21-7.4 0-7.1 1-7.1-20.9 0-14 .3-20 1.2-20.9 1.8-1.8 10.3-1.5 12.2.4zm40.9.4c9.4 3.5 13.7 10.3 13.7 21.2-.1 12.1-6.5 18.1-21 19.7l-5.5.6-.5 7.2c-.3 4-1.1 7.8-1.8 8.5-1.9 1.9-11 1.7-12.2-.2-1.3-2.1-1.3-54.6 0-57.1 1-1.7 2.2-1.9 11.5-1.9 8 0 11.7.5 15.8 2z"/><path d="m93 260.4c0 3.6.4 6.7.8 7 1.3.8 5.2-2.3 6.3-5.1 1.4-3.8-1.4-8.3-5.3-8.3-1.5 0-1.8 1-1.8 6.4zm72.7-5.7c-.4.3-.7 6.1-.7 12.9 0 13.2.5 14.3 5.4 12.4 4.2-1.6 5.6-4.8 5.6-12.8 0-6.8-.2-7.6-2.9-10.3-2.8-2.7-6-3.7-7.4-2.2zm36-33c-.4.3-.7 15.4-.7 33.5v32.8h5.9c6.9 0 7.1-.3 7.1-9.6 0-8 1.1-10.4 4.8-10.4 4.3 0 5.2 1.7 5.2 9.6 0 10.2.1 10.4 7 10.4 4.4 0 5.9-.4 6.4-1.6 1.2-3.1.7-36.9-.6-38.2-1.6-1.6-10.3-1.5-11.6.1-.6.7-1.2 3.7-1.4 6.7-.3 4.9-.6 5.5-2.7 5.8-1.2.2-3.4.1-4.7-.2l-2.4-.6v-18.3c0-12.9-.4-18.7-1.2-19.5-1.3-1.3-10-1.7-11.1-.5zm50.5 3.3c-2.8 2.6-2.9 7.3-.2 10s7.4 2.6 10-.2c6.1-6.6-3.2-15.9-9.8-9.8zm125.8 0c-4 4-1.2 12 4.3 12 3.9 0 6.7-2.7 6.7-6.5 0-6.4-6.8-9.7-11-5.5zm-126.8 23.2c-1.3 1.3-1.8 35.1-.6 38.2.9 2.3 11.9 2.3 12.8 0 1.2-3.1.7-36.9-.6-38.2-.7-.7-3.3-1.2-5.8-1.2s-5.1.5-5.8 1.2zm26 0c-.9.9-1.2 8.6-1.2 28.4 0 26.3.1 27.3 2 27.9 3 .9 10 .9 11-.1.5-.5 1-4.3 1.2-8.4l.3-7.5 6.5-.6c10.6-1 15.7-4 18.7-10.9 4.8-11.5-1.3-25-12.9-28.5-6.3-1.8-23.8-2.1-25.6-.3zm21.6 7.8c4.7 4.6 5.4 15.7 1.5 21.7-1.6 2.4-7.6 4.9-9.3 3.8-1.1-.7-1.4-26.7-.3-27.8 1.5-1.6 5.4-.5 8.1 2.3zm28.4-7.8c-1.9 1.9-1.7 54.1.2 55.7.8.7 3.6 1.1 6.3.9l4.8-.3.3-7c.3-8.1 1.4-9.5 7.6-9.5 8.7 0 15.9-4.1 18.7-10.6 5-11.9-.8-25.5-12.5-28.9-6.1-1.8-23.7-2-25.4-.3zm19 5.9c4.5 2.1 6.1 5.6 6.1 13.6 0 8.1-1.5 10.9-7.5 13.4-4.8 2-5.8-.3-5.8-13 0-5.8.3-11.6.6-12.9.7-2.4 3-2.8 6.6-1.1zm30.4-5.5c-.9 2.4-.7 36.7.3 38.2.5.9 2.5 1.2 6.2 1l5.4-.3.3-18.9c.2-13-.1-19.3-.9-20.2-1.7-2-10.5-1.9-11.3.2zm28.1.4-2.7 2.1v16.3c0 15.8.1 16.3 2.4 18.5 2.1 2 3.1 2.1 13.7 1.9 10.2-.3 11.4-.5 11.7-2.2.5-2.5-1.4-3.6-6.9-3.6-5.2 0-7.9-2.1-7.9-6.1 0-3.3 1.8-4.9 5.5-4.9 5.4 0 7.6-1.1 7.3-3.4-.2-1.7-1.2-2.2-5.3-2.6-6.4-.7-7.5-1.4-7.5-5.3.1-5.1 2-6.8 8.2-7 4.9-.2 5.3-.4 5.3-2.7 0-2.5 0-2.5-10.6-2.8-9.5-.2-10.8 0-13.2 1.8zm40.7-.6c-4.8 2.1-7.4 6.1-7.4 11.5 0 6 2.9 8.9 11.8 12.1 4.9 1.8 6.4 2.8 6.9 4.8.9 3.6-1.9 5.2-8.8 5.2-5.9 0-8.7 1.6-7.5 4.5.8 2.2 16.3 2.1 20.9-.1 4.8-2.3 7.7-7.1 7.7-12.7 0-6.6-1.9-9-10.6-12.7-6.2-2.8-7.4-3.7-7.2-5.4.3-1.8 1.2-2.2 6.1-2.7 6.3-.7 8.3-1.9 7.4-4.3-.8-2.1-14.7-2.2-19.3-.2z"/></svg>