<svg height="396" viewBox=".13 .132 171.202 26.865" width="2500" xmlns="http://www.w3.org/2000/svg"><path d="m10.017 13.858c1.125-4.228-.157-8.658-3.227-11.004-4.181 2.646-6.592 7.623-5.722 12.808.287 1.714.909 3.29 1.784 4.67 3.27-.91 6.144-2.634 7.165-6.474m5.643 12.198c6.901-1.158 11.554-7.692 10.395-14.59-.965-5.742-5.646-9.927-11.167-10.505a12.712 12.712 0 0 0 -7.254 1.407c6.081 2.063 9.352 5.199 9.578 8.412.112 1.983-.81 3.418-2.022 4.588l8.6-.6c.244-.018.32.266.025.35l-20.512 5.882a12.695 12.695 0 0 0 8.932 5.166c1.114.117 2.265.087 3.425-.109m-.692-25.851c6.755.703 12.024 6.412 12.026 13.353.003 7.417-6.009 13.433-13.427 13.435-7.417.003-13.432-6.008-13.435-13.426-.002-7.418 6.008-13.433 13.426-13.436.475 0 .946.026 1.41.074" fill="#fff"/><path d="m1.068 15.663a12.583 12.583 0 0 0 1.784 4.669c3.27-.91 6.144-2.634 7.166-6.474 1.124-4.228-.159-8.658-3.23-11.004-4.179 2.646-6.589 7.624-5.719 12.809m24.987-4.198c1.16 6.9-3.494 13.433-10.395 14.591-1.16.196-2.31.226-3.426.11a12.695 12.695 0 0 1 -8.931-5.167l20.512-5.88c.295-.086.219-.369-.025-.352l-8.6.6c1.212-1.169 2.134-2.604 2.022-4.587-.226-3.213-3.497-6.349-9.578-8.412a12.712 12.712 0 0 1 7.254-1.407c5.52.578 10.201 4.763 11.166 10.504" fill="#c70a0c"/><path d="m96.56 18.831v-4.416h-4.43v4.416h-2.43v-10.519h2.43v4.19h4.428v-4.19h2.449v10.52zm-52.381-10.519v6.586c0 .727.107 1.357.319 1.87.21.507.514.93.905 1.254.394.328.87.57 1.413.719.552.152 1.175.23 1.852.23.676 0 1.293-.078 1.833-.23.533-.15.986-.39 1.35-.716.363-.324.648-.747.847-1.255.201-.51.301-1.14.301-1.872v-6.586h-2.273v6.515c0 .664-.165 1.2-.49 1.593-.332.4-.86.604-1.568.604-.697 0-1.22-.202-1.559-.602-.331-.393-.5-.929-.5-1.595v-6.515zm-7.011 10.521v-8.557h-2.857v-1.964h8.163v.942c0 .564-.458 1.022-1.022 1.022h-1.852v8.557zm39.065-10.522h2.431v10.52h-2.43zm-8.095 5.614.082.105 3.105 4.001c.395.51.991.803 1.636.803h1.936l-4.449-5.659-.065-.084.065-.082 3.658-4.701h-2.53l-3.354 4.534-.084.11-.001-.19v-4.454h-2.431v10.52h2.431v-4.715zm-10.462-.798h1.417c.51 0 .9-.141 1.155-.416.254-.273.383-.628.383-1.053 0-.437-.126-.796-.373-1.069-.25-.277-.642-.417-1.165-.417h-1.417zm4.861 5.702a2.08 2.08 0 0 1 -1.77-.998l-1.892-3.123h-1.2v4.121h-2.429v-10.517h4.332c1.113 0 1.984.29 2.59.863.604.572.91 1.355.91 2.327 0 .494-.131.994-.39 1.487-.256.484-.71.88-1.35 1.177l-.14.066 2.951 4.597zm18.123-.445v-2.017c.773.357 1.77.712 2.801.712 1.186 0 1.788-.406 1.788-1.186 0-.915-.807-1.016-2.424-1.712-1.1-.49-2.148-1.254-2.148-3.015 0-2.05 1.564-3.017 3.73-3.017 1.151 0 2.132.271 2.681.474v1.966c-.55-.254-1.53-.56-2.51-.56-1.065 0-1.564.39-1.564 1.068 0 .712.603.933 1.685 1.34 1.392.694 3.008 1 3.008 3.372 0 2.05-1.633 3.168-3.816 3.168-1.34 0-2.406-.237-3.232-.593m75.087.446v-10.52h6.587v.955a1.01 1.01 0 0 1 -1.01 1.01h-3.146v2.263h3.532v1.756h-3.532v2.573h4.156v1.963zm-24.033 0v-10.52h1.181c.689 0 1.25.561 1.25 1.25v7.375h3.88v1.894zm-15.047-.002v-10.512h2.43v10.512zm7.09-5.703h1.417c.51 0 .898-.14 1.155-.415.253-.274.382-.627.382-1.054 0-.436-.125-.796-.373-1.068-.25-.277-.642-.418-1.164-.418h-1.417zm4.86 5.703c-.72 0-1.399-.383-1.771-.997l-1.89-3.123h-1.2v4.12h-2.429v-10.518h4.331c1.114 0 1.984.29 2.59.864.605.571.911 1.354.911 2.326 0 .494-.131.994-.391 1.487-.256.483-.71.88-1.349 1.178l-.14.065 2.95 4.597zm-20.305-3.831.955-2.658c.211-.599.424-1.23.565-1.695h.035c.124.482.337 1.08.548 1.695l.92 2.658zm3.003-6.687h-2.791l-3.967 10.52h1.75c.446 0 .838-.284.977-.706l.407-1.235h4.267l.624 1.94h2.633zm52.971 10.074v-2.016c.773.356 1.77.711 2.802.711 1.186 0 1.788-.406 1.788-1.186 0-.915-.809-1.016-2.424-1.71-1.1-.493-2.15-1.255-2.15-3.017 0-2.05 1.565-3.017 3.731-3.017 1.152 0 2.132.271 2.682.474v1.966c-.55-.253-1.53-.559-2.51-.559-1.065 0-1.564.39-1.564 1.068 0 .711.602.932 1.684 1.338 1.393.695 3.008 1 3.008 3.373 0 2.05-1.633 3.168-3.815 3.168-1.341 0-2.407-.237-3.232-.593m-20.041-10.072h1.506c.716 0 1.38.37 1.759.976l2.934 4.714c.33.523.715 1.215.942 1.705h.052a24.444 24.444 0 0 1 -.052-1.604v-5.79h2.13v10.517h-2.665l-3.568-5.69a22.914 22.914 0 0 1 -.926-1.62h-.034c.017.455.052.996.052 1.502v5.808h-2.13zm-4.657 10.516v-10.512h2.43v10.512zm0 0"/></svg>