<svg viewBox="-0.09065511741663101 -0.12 310.88065511741667 246.45" xmlns="http://www.w3.org/2000/svg" width="2500" height="1982"><linearGradient id="a" gradientUnits="userSpaceOnUse" x2="171.36" y1="29.05" y2="29.05"><stop offset="0" stop-color="#6ddab3"/><stop offset="1" stop-color="#4da2ef"/></linearGradient><linearGradient id="b" gradientUnits="userSpaceOnUse" x1="144.31" x2="142.62" y1="108.51" y2="215.31"><stop offset="0" stop-color="#f1a645"/><stop offset="1" stop-color="#cb599c"/></linearGradient><linearGradient id="c" gradientUnits="userSpaceOnUse" x1="282.04" x2="283.06" y1="117.71" y2="243.32"><stop offset="0" stop-color="#dd3e77"/><stop offset=".26" stop-color="#d93c7c"/><stop offset=".55" stop-color="#cc3889"/><stop offset=".86" stop-color="#b7309f"/><stop offset="1" stop-color="#ab2bac"/></linearGradient><path d="M86 0c18.83 0 37.65-.11 56.48 0 11.91.1 20.82 5.65 25.87 16.42s3.75 21.47-3.65 31A26.58 26.58 0 0 1 143 58c-38.32.07-76.64.12-115-.12-16-.1-28-13-28-29.13A28.24 28.24 0 0 1 28 .17C47.3-.12 66.63.1 86 .1z" fill="url(#a)"/><path d="M115.33 160.41c0-18.83-.07-37.66 0-56.49.06-12.92 7.7-23.69 19.28-27.55a28.14 28.14 0 0 1 37.06 26.49c.36 38.49.23 77-.08 115.47a28 28 0 0 1-28 28c-15.56 0-27.91-12.31-28.08-28.46-.2-19.16 0-38.33 0-57.49z" fill="url(#b)"/><path d="M213.15 61.25A28 28 0 0 1 185 33.07 28.1 28.1 0 0 1 213.6 4.8c15.47.09 28.33 13.15 28.06 28.48a28.33 28.33 0 0 1-28.51 27.97z" fill="#f5c144"/><path d="M184.65 181.4c.38-15.86 13.18-27.85 29.36-27.49 15 .34 27.25 13.55 26.84 29-.4 15.21-13.48 27.47-28.85 27.06a28.2 28.2 0 0 1-27.35-28.57z" fill="#8e21cb"/><path d="M254.36 220v-76.8a3.72 3.72 0 0 0 .22-.64c1.65-15.07 15-26.53 31.66-24.67A27.62 27.62 0 0 1 309.79 139c.41 1.69.65 3.42 1 5.13v75.6a2.67 2.67 0 0 0-.23.63 28.06 28.06 0 0 1-20.23 23.85c-1.86.53-3.8.81-5.7 1.2h-4.32a3 3 0 0 0-.64-.21 28.23 28.23 0 0 1-24.61-22c-.27-1.03-.48-2.11-.7-3.2z" fill="url(#c)"/></svg>