<svg height="294" viewBox=".001 -.233 167.722 19.951" width="2500" xmlns="http://www.w3.org/2000/svg"><path clip-rule="evenodd" d="m66.39 15.667c.074 1.624-1.223 2.99-2.783 2.981-1.644-.07-2.927-1.304-3.001-2.927l-.1-12.608c-.076-1.622 1.157-2.906 2.864-2.918 1.56.009 2.844 1.243 2.918 2.866zm9.778-8.249c.025-.894-.74-1.606-1.635-1.631-.894-.025-1.606.74-1.63 1.635l.102 8.3c.075 1.623-1.305 2.928-2.865 2.919-1.623.075-2.907-1.16-2.982-2.782l-.102-8.3c.022-4.162 3.264-7.579 7.424-7.557 4.14-.124 7.41 3.138 7.534 7.279l.123 8.447c-.008 1.56-1.305 2.926-2.865 2.918-1.623.075-2.99-1.222-2.981-2.782l-.06-8.53zm33.47 11.082c-1.615.073-2.974-1.217-2.904-2.852l-.106-3.458-3.623-.019.107 3.458c-.008 1.552-1.299 2.912-2.851 2.903-1.616.075-2.913-1.298-2.904-2.85l-.157-9.732-2.215.009.157 9.73c.074 1.615-1.299 2.912-2.852 2.904-1.615.075-2.892-1.154-2.904-2.851l-.219-9.648-1.697.012c-1.553-.01-2.83-1.236-2.904-2.852.008-1.552 1.298-2.912 2.851-2.903l12.608-.183c1.553.008 2.912 1.298 2.904 2.85l.024 3.395 3.54-.043-.003-3.25c-.075-1.615 1.216-2.975 2.769-2.967l7.308-.045c1.615-.074 2.974 1.217 2.967 2.769-.008 1.553-1.3 2.912-2.852 2.904l-4.348.08-.068 1.118 2.65-.069c1.263.048 2.355 1.006 2.308 2.269.034 1.325-1.006 2.354-2.187 2.37l-2.65.068-.006 1.036 4.12-.124c1.635.07 2.912 1.299 2.986 2.914-.008 1.552-1.236 2.83-2.85 2.904l-7.081.087.082.063zm-73.997-18.482c1.54.008 3.116 1.331 2.964 2.892-.008 1.54-1.37 2.827-2.931 2.675-2.218-.134-3.913 1.931-3.904 4.13.091 2.26 2.033 4.119 4.231 4.11 2.548-.13 3.975-2.013 3.966-4.211l-.134-5.773c.007-1.541 1.287-2.891 2.829-2.882 1.602-.074 2.87 1.145 2.943 2.748l.007 2.711 3.37-4.275c.93-1.228 2.658-1.465 3.968-.473 1.227.93 1.547 2.72.616 3.947l-3.413 4.502 3.695 4.476c1.042 1.177.93 3.025-.329 4.005-1.176 1.041-3.024.929-4.004-.33l-4.307-5.198c-.614 3.53-4.902 6.466-9.072 6.526a9.43 9.43 0 0 1 -6.97-2.707c-.271.697-.705 1.27-1.385 1.657-1.442.712-3.143.066-3.855-1.376l-.101-.205-6.862.21c-.747 1.496-2.497 2.103-3.91 1.418a2.538 2.538 0 0 1 -1.491-1.774c-1.156 1.185-2.804 1.998-4.714 1.968-3.657.063-6.702-2.89-6.847-6.61l.013-2.567c.008-1.54 1.289-2.89 2.829-2.882 1.603-.074 2.89 1.289 2.881 2.83l.049 2.485c-.065.595.508 1.03 1.104 1.095.575-.079 1.03-.508 1.012-1.166l-.077-8.567c.008-1.54 1.226-2.808 2.83-2.882 1.54.008 2.889 1.289 2.88 2.83l.147 7.457 4.09-8.627c.748-1.495 2.435-2.02 3.85-1.335.634.353 1.125.725 1.349 1.28l3.272 6.735c.498-4.907 4.32-9.098 9.412-8.846zm-13.99 12.335-1.221-2.473-1.185 2.582zm123.181-2.475c-.041-2.112 1.714-3.861 3.826-3.903 2.192.022 3.941 1.777 3.983 3.89-.022 2.192-1.777 3.94-3.97 3.92-2.112.04-3.861-1.715-3.84-3.907zm-11.84-2.483c.369.027.684-.377.712-.745-.053-.431-.313-.764-.745-.71l-1.76-.076-.03 1.537 1.824-.006zm.72 5.24c.512.01.971-.412.98-.924-.07-.575-.411-.971-.923-.98l-2.624.03.007 1.824zm-.07-12.4c2.768-.05 5.02 2.228 5.07 4.996-.02 1.024-.282 1.86-.769 2.65.404.314.727.567 1.068.963.485-4.95 4.616-8.744 9.72-8.79a9.763 9.763 0 0 1 6.851 2.879l2.592 2.673 4.285-4.324c1.107-1.084 2.85-1.153 4.016.017 1.086 1.107 1.092 2.931-.016 4.017l-4.266 4.467 4.44 4.635c1.084 1.107 1.09 2.932-.017 4.018-1.09 1.228-2.85 1.154-4.017-.017l-4.34-4.428-2.702 2.96c-1.836 1.686-4.192 2.706-6.815 2.737-3.793.03-7.05-2.123-8.671-5.209-.822 2.218-2.964 3.796-5.587 3.828l-6.192.105c-1.536-.03-2.864-1.325-2.834-2.862l-.005-12.482c.03-1.536 1.263-2.783 2.862-2.834h5.328z" fill="#ed1a3b" fill-rule="evenodd"/></svg>