<svg height="1303" viewBox=".329 2.053 277.078 142.102" width="2500" xmlns="http://www.w3.org/2000/svg"><g stroke="#000" stroke-miterlimit="10" stroke-width="1.5"><g fill="#359803"><path d="m105.09 68.964c.656.058.656.058 1.325.331a28.768 28.768 0 0 1 1.594 2.443l.884 1.466.433.725c.513.85 1.057 1.679 1.602 2.508 1.396 2.18 2.576 4.476 3.768 6.77 1-.22 1-.22 1.358-.873a18846.53 18846.53 0 0 0 .661-1.404c.332-.754.332-.754.652-1.76.31-.932.31-.932.796-1.68.752-1.342.934-2.735 1.222-4.233.286-1.004.515-1.308 1.274-1.975l.165-.848c.166-.808.166-.808 1.16-1.47h.993a44631.704 44631.704 0 0 1 .776 2.006c.218.644.218.644.218 1.306l.994-.331a17.035 17.035 0 0 1 1.718 3.54l.346.956c.254.804.254.804.254 1.466h.663c.997 2.143 1.81 4.309 2.568 6.547.385.998.838 1.827 1.407 2.728a87.781 87.781 0 0 1 1.366 3.246c.641 1.577 1.28 3.095 2.153 4.559.794 1.365 1.192 2.728 1.557 4.26.232.884.48 1.688.886 2.51a29.67 29.67 0 0 0 1.988.33c1.117.56 1.117.56 1.987 1.326.054 1.041.054 1.041 0 1.987l-.57.08-2.639.376-.969.137c-1.673.24-3.345.486-5.014.753-1.68.261-3.363.48-5.051.683l-.722.088c-1.201.14-2.375.235-3.584.202-.26-.721-.26-.721-.332-1.656.632-.843.632-.843 1.49-1.719 1.125-1.26 1.125-1.26 1.652-2.817-.158-1.719-.738-3.188-1.485-4.74-.805-1.849-1.45-3.634-1.843-5.613-.195-.916-.491-1.787-.807-2.667-3.3 1.808-5.33 5.175-7.288 8.28-1.189-.183-1.627-.553-2.35-1.499l-.557-.712-.57-.749c-.374-.487-.75-.974-1.129-1.458l-.5-.656c-.58-.614-1.064-.917-1.85-1.219-.728.099-.728.099-1.325.332l-.123.855c-.212 1.156-.52 2.225-.88 3.343-.133.41-.265.821-.4 1.244l-.208.64c-.212.65-.42 1.3-.628 1.95-1.03 3.186-1.03 3.186-1.404 3.56a47.692 47.692 0 0 0 0 1.988l.701.316.914.43.908.419c.874.545 1.043.901 1.452 1.816-1.967-.185-3.927-.4-5.888-.641l-.697-.086-2.87-.356c-2.917-.363-5.831-.69-8.764-.904v-.994l.568-.11.737-.159.733-.151.612-.242.332-.994h2.318l.255-1.054.346-1.41.166-.69c.3-1.214.634-2.4 1.038-3.585.69-2.021 1.213-4.086 1.756-6.151.373-1.394.756-2.76 1.275-4.108a22.3 22.3 0 0 0 .94-3.166c.446-1.862 1.079-3.588 1.843-5.341h.662l.105-.638c.308-1.386.751-2.715 1.2-4.062l.265-.822.261-.786.236-.715c.252-.596.252-.596.914-1.258z"/><path d="m164.169 72.263c1.254.493 1.867 1.4 2.635 2.456l.456.593c1.097 1.464 1.097 1.464 1.097 2.595l.994.331v.994h.994c.662.994.662.994.662 1.988h.662v.662l.6.265c1.898 1.039 3.071 3.024 3.707 5.035.071.902.047 1.742 0 2.65l-3.644-1.325v-.663l-.872-.102c-1.189-.244-2.013-.642-3.062-1.243l-.97-.55-.727-.423v-.663c-1.042-.372-1.042-.372-2.319-.331-.946.634-1.65 1.468-2.401 2.319-4.377 4.675-4.377 4.675-7.536 5.3v.662l.861.262c1.156.411 2.168.917 3.245 1.505l.593.322c.622.337 1.243.677 1.864 1.016 2.523 1.379 5.028 2.733 7.68 3.851v.663l.63.205c.27.09.54.179.82.27.268.09.537.177.815.269.716.25.716.25 1.379.58v.663l2.981.994c.548 2.01.06 3.342-.643 5.27-.487 1.42-.765 2.857-1.013 4.336h-.663l-.136.708c-.352 1.713-.804 3.398-1.25 5.088l-.28 1.132c-.823 3.068-.823 3.068-1.973 4.096-.998.569-.998.569-2.323.569v.662c-1.815.797-3.003 1.273-4.968.663-.808-.481-1.553-1.014-2.308-1.576a66.232 66.232 0 0 0 -2.373-1.672l-.723-.488c-.477-.321-.955-.641-1.434-.96l-.667-.454-.599-.402c-.509-.41-.509-.41-1.171-1.404a38.31 38.31 0 0 0 -1.672-.72c-1.043-.442-1.991-1.022-2.966-1.599v-.993l-.517-.249a33.1 33.1 0 0 1 -1.946-1.097c-1.334-.784-1.334-.784-2.836-.973-.578.473-1.059.976-1.547 1.54l-.44.447h-.663l.331-2.318h.662l.104-1.243c.15-1.308.377-2.585.662-3.87l.224-1.014c.335-.83.335-.83 1.033-1.276l.627-.216c.68 2.312 1.035 4.226.994 6.625l.62.037c2.32.18 4.274.727 6.425 1.59 2.113.821 4.252 1.389 6.453 1.913l.903.215c1.6.372 3.181.68 4.811.882l.145-1.18c.158-1.265.333-2.527.517-3.788h.663l.331-3.313-1.166-.393c-1.494-.56-2.728-1.345-4.03-2.257l-1.267-.87-.602-.412c-1.442-.974-2.895-1.683-4.5-2.34-.715-.365-1.133-.773-1.684-1.346l-.663-.166c-.818-.204-1.067-.57-1.656-1.16l-.745-.268c-1.087-.47-1.794-1.119-2.67-1.902-.688-.589-1.437-1.013-2.216-1.473l-.994-.87c-.962-.76-1.452-1.012-2.65-1.117.02-.725.02-.725.331-1.656.549-.459 1.113-.825 1.727-1.19.761-.6 1.096-1.29 1.586-2.123.467-.511.951-1.008 1.449-1.49l.801-.78.731-.711.89-.932c.855-.808 1.776-1.398 2.754-2.05.556-.547 1.108-1.1 1.656-1.655 1.945-1.833 3.92-3.585 6.068-5.176.599-.426.599-.426.888-1.118l1.656-.994c.334-.3.665-.604.994-.91.993-.746.993-.746 1.774-.759zm-39.204-64.247c1.243.498 1.855 1.209 2.67 2.256l.674.856c1.624 2.224 1.624 2.224 1.624 3.844h.663c1.485 2.161 2.657 4.53 3.643 6.956h1.325l.232-.536a89.492 89.492 0 0 1 2.37-4.976c.394-.786.394-.786.719-1.646.417-1.023 1.036-1.862 1.648-2.78.228-.549.449-1.1.662-1.656.497-.931.497-.931.994-1.656h.663c.686 1.236 1.141 2.435 1.552 3.789.537 1.67 1.241 3.133 2.091 4.658 2.65 4.76 2.65 4.76 2.65 7.121h.663a263.892 263.892 0 0 1 3.008 7.382c.304.9.304.9.304 1.893h.663l.942 2.594c.252.69.507 1.38.766 2.068l.362.97.336.89c.244.765.244.765.244 1.76l3.643.993v.994c-8.507 1.273-8.507 1.273-11.842 1.739l-1.071.15c-1.111.11-2.202.115-3.318.098 0-.662 0-.662.787-1.49l.87-.829.662-.662c-.104-1.863-.546-3.447-1.242-5.176-.18-.463-.358-.926-.537-1.39l-.273-.698c-2.1-5.396-2.1-5.396-2.254-7.973-2.913 1.612-4.745 4.506-6.664 7.153-.623.797-.623.797-1.286 1.128-1.384-1.012-2.344-2.117-3.354-3.478l-.43-.57c-.397-.527-.79-1.055-1.184-1.583l-.598-.797-.396-.528-.994.331c-.368.745-.368.745-.642 1.656-.394 1.17-.805 2.285-1.345 3.395-.728 1.577-1.138 3.219-1.555 4.898-.403 1.615-.403 1.615-.764 1.976-.222.922-.222.922 0 1.987.562.597 1.152 1.071 1.812 1.558l.507.43v.662c-5.447-.164-10.835-.946-16.23-1.656v-.663l1.759-.641c.49-.18.49-.18.99-.361a82.822 82.822 0 0 1 1.887-.654c.369-.71.369-.71.64-1.594l.34-1.001c.17-.52.17-.52.345-1.048l.686-1.967c.228-.67.454-1.339.68-2.008l.349-1.007c.65-1.93 1.14-3.811 1.453-5.825.223-1.213.674-2.3 1.138-3.437 1.077-2.748 1.077-2.748 1.657-5.63h.662c.04-.234.082-.466.124-.706.22-1.01.53-1.94.88-2.913l.4-1.111.418-1.15.418-1.166c1.03-2.849 1.03-2.849 1.404-3.223zm-41.074 17.224c1.162.4 1.845.738 2.588 1.718.903 1.115 1.882 2.027 2.972 2.956.829.707 1.641 1.43 2.452 2.158l.8.717c.84.775 1.643 1.58 2.45 2.388.653.619 1.307 1.233 1.967 1.843l.56.52a122.655 122.655 0 0 0 4.18 3.641 42.81 42.81 0 0 1 5.218 5.259l1.076 1.262.47.554c.411.468.85.91 1.29 1.351a29.473 29.473 0 0 1 2.464 2.795v.662l.608-.023c3.197-.069 6.005.595 8.998 1.68v.662c-.752.278-1.504.554-2.257.828l-.645.24c-.957.347-1.703.588-2.73.588v.663h-1.324v.662l-.973.414c-.715.304-1.424.616-2.129.94l-.79.364-.74.346c-.668.255-.668.255-1.662.255v.662l-1.987.332v.662l-.63.267-.82.354-.815.35c-.762.329-.762.329-1.38 1.016-.869.042-.869.042-1.655 0 .127-1.269.277-2.214.87-3.353.534-1.117.498-1.453.123-2.609-.546-.61-.546-.61-1.242-1.118-1.294-1.064-2.173-2.1-3.064-3.52v-.662l-.762.218-.997.28c-.327.091-.654.184-.99.279-.894.217-.894.217-1.888.217v.662h-.994c-.16 4.39-.16 4.39 1.46 8.241.93.56 1.843.957 2.846 1.365.946.67.946.67 1.657 1.325v.663c-.932.31-1.618.394-2.588.455a27.47 27.47 0 0 0 -4.161.684c-2.305.524-4.598.754-6.953.936-2.494.202-4.912.439-7.167 1.569-.742.095-1.488.162-2.235.207l-1.175.075-.896.049v-.663a46.127 46.127 0 0 1 2.216-1.822l.628-.5c1.125-.879 2.112-1.465 3.45-1.984l-.01-.705c-.019-2.66.102-5.294.276-7.947l.085-1.308c.058-.905.118-1.81.179-2.715.077-1.156.15-2.313.222-3.47.07-1.112.145-2.223.218-3.335l.078-1.253.08-1.167.067-1.022c.134-.955.412-1.701.792-2.583.126-.665.231-1.334.32-2.005l.16-1.17.162-1.235c.467-3.41.986-6.792 1.677-10.165zm-8.943 56.973c1.268.483 1.655 1.07 2.235 2.278l.43.867c.316.83.316.83.316 2.155h.662c.271.524.54 1.048.808 1.574l.454.885a9.42 9.42 0 0 1 .726 2.179h.662l.27 1.097c.386 1.201.543 1.405 1.386 2.215l.497 1.18c.404 1.206.404 1.206 1.49 1.801v.994l.994.331.332 1.987h.662l.113.782c.625 3.546 2.006 6.575 3.55 9.805.238.516.451 1.043.652 1.575.318.822.318.822.99 1.695.757 1.208.987 2.197 1.237 3.596l.126.665c.17.932.288 1.802.288 2.75l.725.104c1.018.249 1.7.675 2.588 1.222.726.23.726.23 1.325.33v.663l.704.228c1.182.54 1.967 1.232 2.94 2.09l-.332.663-.575.02c-4.226.107-4.226.107-8.41.643-4.747.902-9.721.71-14.533.662.361-.61.728-1.216 1.097-1.821l.617-1.025.605-.797h.993v-2.319h-.662c-.732-1.097-.996-2.023-1.346-3.292l-.343-1.23c-.218-.81-.427-1.621-.63-2.434l-6.625-.662-.476 1.78c-.476 1.78-.476 1.78-.849 2.526-.165 1.81-.277 3.43.56 5.072l.765.89c.286.405.57.812.85 1.221.422.604.81 1.101 1.354 1.601.446.49.446.49.446 1.484h-2.318v-.662l-.744-.099c-2.643-.375-5.204-.926-7.796-1.554a162.28 162.28 0 0 0 -5.001-1.111 81.57 81.57 0 0 1 -1.871-.414c-3.006-.68-6.136-.822-9.211-.784-1.114-.012-1.631-.07-2.539-.676-.062-.786-.062-.786 0-1.656.892-.595 1.403-.819 2.41-1.078l.827-.215.862-.218.854-.222c1.324-.342 2.645-.67 3.99-.917l.171-.655c.493-1.777 1.029-3.152 2.148-4.645l.663-.993.662-.994.704-1.097c.621-.89.621-.89 1.284-1.222.328-.697.328-.697.62-1.532.395-1.032.793-1.995 1.367-2.94.674-1.125 1.137-2.295 1.614-3.515 2.16-5.522 2.16-5.522 4.017-7.581.342-.768.672-1.542.994-2.319.403-.682.828-1.346 1.259-2.01.453-.707.453-.707.956-1.778.435-.85.435-.85 1.097-1.18.295-.536.568-1.083.828-1.636.759-1.607.759-1.607 1.49-2.34.229-.548.45-1.1.663-1.655z"/></g><path d="m27.58 2.053c.774.004 1.547.037 2.319.083l1.284.068c.975.095 1.81.307 2.731.639 2.04.724 4.145 1.047 6.274 1.405l.65.11c2.72.463 5.363.805 8.118.907 2.155.113 4.291.449 6.428.743a19575.48 19575.48 0 0 0 3.851.53c1.434.193 2.868.364 4.306.525 2.91.335 5.792.758 8.668 1.32 4.428.86 8.843 1.282 13.338 1.6 2.705.19 5.335.471 7.993 1.001 2.02.393 4.004.503 6.056.573 1.267.11 2.301.379 3.507.765v2.319l-1.035.372c-1.339.495-2.631 1.074-3.934 1.656-1.733.753-3.105 1.123-4.968 1.284-.63.239-1.258.478-1.885.721-1.385.493-2.813.81-4.243 1.142l-.902.217c-1.354.32-2.67.595-4.056.722-1.228.188-1.433.249-2.164 1.173-.25.61-.25.61-.39 1.287-.06.254-.122.507-.185.769l-.19.821c-.69 2.787-1.583 5.419-2.633 8.086-.408 1.047-.794 2.1-1.177 3.156l-.4 1.09c-.346 1.006-.346 1.006-.49 2.018-.182 1.087-.505 2.029-.89 3.061-1.947 5.295-1.947 5.295-3.458 10.724-.97 3.938-.97 3.938-2.594 4.925-.932.43-1.869.801-2.83 1.162-.776.324-1.547.659-2.319.993 3.751-.304 7.433-.672 11.115-1.462 1.18-.2 2.266-.25 3.46-.194.331.331.331.331.364 1.088l-.012.92-.01.923-.01.713-.571.243c-2.924 1.072-2.924 1.072-5.06 3.07-.569.356-.569.356-1.305.744-1.165.63-2.317 1.273-3.457 1.946l-.816.48c-.667.44-1.15.902-1.71 1.466-1.823 1.212-3.76 1.985-5.836 2.653-.841.35-1.215.618-1.783 1.322-.15.673-.15.673-.134 1.426l-.02.883-.011.962c-.093 3.52-.402 6.99-.794 10.487-.583 5.248-.772 10.47-.88 15.743-.017.825-.036 1.65-.055 2.474l-.013.751c-.094 3.97-.094 3.97-.99 5.11-.247.2-.493.402-.746.609l-.814.667c-1.548 1.17-3.092 2.266-4.838 3.121-1.13.577-2.06 1.297-3.048 2.085-.575.4-.575.4-1.237.4v.662c-2.602.465-4.692.082-7.246-.517l-1.218-.274a804.954 804.954 0 0 1 -3.792-.865c-1.217-.275-2.433-.548-3.65-.819-.746-.167-1.49-.334-2.235-.504a94.27 94.27 0 0 0 -6.19-1.184c-.844-.143-.844-.143-2.065-.454-1.667-.031-2.694.776-4.078 1.636-.606.327-1.213.652-1.822.973a41.85 41.85 0 0 0 -4.214 2.637c-.59.365-.59.365-1.252.365v.662c-1.087.725-1.43.745-2.691.725l-.893-.007c-.722-.055-.722-.055-1.053-.386-.421-2.48.616-3.836 2.006-5.849l.644-.776h.662l.222-.698c.548-1.192 1.335-2.08 2.2-3.05 1.069-1.221 2.068-2.407 2.899-3.809l.642-1.055h.662l.242-.54c.531-.992 1.174-1.853 1.85-2.752l.761-1.024c.764-.95 1.585-1.78 2.447-2.64.434-.557.855-1.123 1.263-1.698l.687-.961.7-.985c.88-1.217 1.764-2.431 2.65-3.644l.503-.69c1.595-2.157 3.23-4.367 5.128-6.266.89-.09 1.753-.029 2.65 0 .3 1.012.354 1.866.303 2.918l-.044.915-.052.95-.044.945c-.073 1.44-.2 2.795-.494 4.21-.021.475-.03.952-.021 1.428l.02 1.221c.724.376 1.449.748 2.174 1.118l.612.319c1.367.694 2.684 1.166 4.17 1.544l-.182-.87c-.745-3.775-1.116-7.571-1.444-11.4-.179-2.023-.382-3.979-.869-5.951-.26-1.112-.392-2.238-.527-3.371l-.087-.675a26.887 26.887 0 0 1 -.203-3.9l-1.277-.114c-2.438-.244-4.862-.592-7.289-.932l-2.448-.34-1.569-.219-.733-.101c-.923-.13-1.837-.264-2.748-.463-1.16-.21-2.32-.246-3.494-.292l-1.574-.074c-.819-.038-1.638-.074-2.457-.107-7.17-.294-7.17-.294-8.541-1.665-.062-.973-.062-.973 0-1.987 1.482-1.482 4.76-1.042 6.765-1.09 3.31-.08 6.519-.255 9.776-.846 2.072-.368 4.133-.545 6.232-.693a73.401 73.401 0 0 0 7.99-1.015c6.381-1.17 12.787-1.574 19.254-1.987-.751-2.255-3.975-3.335-6.013-4.356-.666-.33-1.335-.654-2.004-.979a35.735 35.735 0 0 1 -2.432-1.307c-1.12-.66-1.12-.66-2.272-1.127a25.536 25.536 0 0 1 -2.568-1.273l-.715-.402c-.485-.275-.967-.554-1.447-.836-1.625-.902-2.546-1.123-4.41-.65l-1.342.286a246.518 246.518 0 0 0 -2.161.513c-3.394.818-3.394.818-6.642 2.078-1.39.54-2.287.56-3.768.434-.662-.662-.662-.662-.807-1.594.19-1.39.73-1.844 1.801-2.712h.663l.22-.58c.582-.98 1.285-1.426 2.222-2.07a21.663 21.663 0 0 0 3.189-2.65c.426-.295.861-.577 1.304-.848 1.79-1.161 3.373-2.535 4.984-3.926 2.677-2.295 2.677-2.295 4.642-2.844v-.662a28.867 28.867 0 0 1 1.615-1.18c1.297-.918 2.5-1.86 3.665-2.94 1.506-1.391 3.101-2.611 4.753-3.824a36.43 36.43 0 0 0 2.1-1.683c.786-.642.786-.642 1.448-.642v-.662c1.152-.527 2.042-.8 3.313-.663.662.663.662.663.713 1.242-.287 3.006-.947 6.673-2.395 9.357-.398.742-.398.742-.306 1.988.784.773.784.773 1.78 1.49 1.179.89 1.904 1.49 2.526 2.816l.994.332c1.297-7.795 2.337-15.543 2.884-23.427a34.28 34.28 0 0 1 .428-3.073l-.848-.103c-1.276-.255-2.279-.68-3.458-1.222v-.662l-.657-.17c-3.078-.818-6.127-1.657-8.956-3.141a24.645 24.645 0 0 0 -5.79-2.092c-1.822-.43-3.536-1.042-5.278-1.719l-.773-.298c-2.665-1.055-2.665-1.055-3.72-1.855-.124-1.2-.124-1.2 0-2.318l.331-.332z" fill="#359903"/><path d="m173.988 28.553c.994.33.994.33 1.38 1.053l.338.893.346.887c.255.81.255.81.255 1.804h.662a22334.128 22334.128 0 0 0 1.873 5.641l.683 2.058.415 1.25c.304.949.304.949.673 1.65 1.38-.506 2.062-1.505 2.898-2.65l.883-1.174.439-.588a113.541 113.541 0 0 1 4.496-5.566c.21-.247.42-.494.638-.748.583-.536.583-.536 1.577-.536.459.919.382 1.705.414 2.733.125 2.518.652 4.884 1.238 7.33.8 3.358 1.402 6.743 1.991 10.143l.413 2.365.346 2c.17.915.363 1.804.582 2.708.367 1.62.461 3.216.523 4.872l.039.87c.03.696.058 1.394.085 2.09-1.782.395-3.463.76-5.3.663v.663h-1.987v.662h-5.3l.331-.993 2.319-.994.331-.994h.662l-.194-1.274c-.226-1.494-.45-2.988-.67-4.483l-.241-1.605c-.418-2.756-.644-5.418-.55-8.206-1.748.463-2.907 1.246-4.286 2.36l-.615.489c-1.518 1.232-2.855 2.548-4.043 4.107-.616-.064-.616-.064-1.325-.331-.42-.734-.42-.734-.745-1.636l-.337-.9c-.243-.777-.243-.777-.243-1.44h-.663c-.278-.585-.553-1.172-.828-1.759l-.466-.99c-.362-.894-.362-.894-.362-1.888-1.11.37-1.226.536-1.844 1.47l-.483.725-.51.787-.525.804c-.54.833-1.075 1.67-1.606 2.508l-.51.802c-.471.75-.935 1.504-1.395 2.262l-.432.692c-.78 1.313-1.268 2.293-.976 3.862.55.707.55.707 1.304 1.243 1.327 1.039 1.327 1.039 1.677 1.739l-1.884-.31-1.06-.176c-.899-.154-1.793-.324-2.687-.508v-.663l-.547-.098c-1.332-.264-2.534-.572-3.759-1.164-1.733-.827-3.558-1.305-5.407-1.801a41.873 41.873 0 0 1 -1.88-.58l-.331-.663c.852-.426 1.601-.352 2.538-.36 2.148.039 2.148.039 4.045-.78.403-.679.403-.679.704-1.84.418-1.162.922-2.1 1.635-3.106.847-1.242 1.445-2.453 2.009-3.85a30.937 30.937 0 0 1 3.46-5.856c.524-.785.859-1.54 1.177-2.426h.662l.063-.683c.312-1.13.828-1.785 1.528-2.706.541-.799.768-1.658 1.06-2.573.475-.518.475-.518.993-.994.537-.817.96-1.56 1.284-2.484.48-1.07 1.183-1.68 2.028-2.484.341-.435.676-.874.994-1.325z" fill="#359703"/><path d="m207.133 7.643.902-.003c.733.044.733.044 1.065.376.083 1.47-.016 2.349-.663 3.643-.049.834-.049.834.331 1.657.46.383.924.765 1.403 1.125 1.194 1.084 2.023 2.502 2.903 3.843.336-.626.666-1.254.994-1.884l.56-1.06c.428-1.018.63-1.603.434-2.687-.5-.47-.5-.47-1.16-.787-.641-.406-.641-.406-1.159-.87-.165-1.241-.165-1.241 0-2.318.615-.615 1.635-.404 2.459-.424l.658-.019c.7-.02 1.4-.037 2.1-.054 2.93-.073 5.845-.182 8.767-.426a41.748 41.748 0 0 1 3.323-.112l1.082-.003c.823.044.823.044 1.154.376.225 1.035.23 1.946 0 2.98-.568.71-.568.71-1.283 1.409-1.479 1.499-1.665 2.636-1.871 4.687-.434 3.273-1.704 6.473-3.134 9.428-.37.741-.37.741-.668 1.701h-.662l.062.953c.01 1.058-.21 1.796-.6 2.774-.78 2.428-.232 4.86.099 7.333.143 1.149.243 2.3.342 3.453.101 1.16.217 2.32.337 3.479.062.606.122 1.213.18 1.82.09.912.195 1.822.304 2.733l.077.843c.178 1.475.178 1.475 1.078 2.595.705.423.705.423 1.764.848v.662l.642.31c.683.353.683.353 1.015.684.153 1.459.153 1.459-.412 2.185-.69.55-1.159.667-2.023.817l-.856.158-.891.152c-1.976.348-3.856.75-5.747 1.428-2.182.743-4.496 1.045-6.765 1.4-.895.138-.895.138-1.856.485-1.2.041-1.2.041-2.318 0-.649-.648-.518-1.604-.52-2.473.306-1.368 1.237-2.105 2.259-3.015.814-1.133.735-2.126.58-3.456a41.692 41.692 0 0 0 -.601-2.836c-.628-2.772-1.034-5.541-1.345-8.366-.22-1.9-.61-3.665-1.142-5.502a15.664 15.664 0 0 1 -.423-2.262c-.276-2.296-.543-3.951-2.349-5.566a70.622 70.622 0 0 0 -1.76-1.304c-.46-.395-.915-.795-1.366-1.201-.661-.58-1.326-1.154-2.001-1.719l-.71-.6-.639-.53c-.583-.588-.583-.588-1.066-1.393-.558-.93-1.182-1.587-1.96-2.342l-.798-.779-.734-.711-.932-.952c-1.332-1.295-2.624-1.988-4.328-2.703-.702-.32-.702-.32-1.696-.983-.135-.898-.044-1.736 0-2.65 1.19-.676 2.448-1 3.768-1.324l.713-.178c1.836-.442 3.669-.72 5.542-.96 1.505-.228 2.983-.54 4.469-.87l.79-.176c3.695-.84 3.695-.84 4.282-.839z" fill="#359803"/><path d="m199.2 68.92c6.021-.298 10.982 1.03 16.193 4.019l.889.508c3.941 2.452 6.44 5.928 8.303 10.091l.295.655c1.174 2.73 1.566 5.348 1.547 8.31 0 .3-.002.602-.004.912-.061 3.723-.466 7.103-2.418 10.329l-.414 1.056c-.796 1.906-2.04 3.56-3.23 5.237l-.393.57c-2.214 3.173-4.726 5.352-7.88 7.565-1.077.768-2.116 1.583-3.154 2.403l-.579.456c-2.695 2.045-2.695 2.045-4.887 4.575h-.662v.662c1.684.038 1.684.038 3.312-.331.443-.062.887-.112 1.332-.154l.778-.078c.536-.052 1.071-.103 1.607-.153 1.124-.114 2.127-.238 3.202-.597 1.527-.508 3.082-.674 4.675-.881l.975-.135c.889-.118 1.777-.223 2.668-.32l1.16-.133.828.132c.524.734.524.734.994 1.656 1.774 1.87 3.591 3.297 5.962 4.307v.662l1.656.331c.168 1 .333 2.001.497 3.002l.144.85c.26 1.611.406 3.13.353 4.76l-.61.015c-4.86.112-4.86.112-9.659.814-2.601.548-5.173.591-7.825.641-6.845.134-13.556 1.122-20.31 2.22-1.346.213-2.632.328-3.995.285v.663l-3.643.331-.244-1.286c-.575-2.988-1.197-5.917-2.071-8.832a103.11 103.11 0 0 1 -1.06-3.96l-.168-.661c-.15-.606-.291-1.214-.432-1.823l-.303-1.013c-.041-1.412.682-2.135 1.565-3.148l1.016-1.228.524-.623a89.147 89.147 0 0 0 2.249-2.849l.415-.539a104.36 104.36 0 0 0 3.995-5.62c1.3-1.922 2.742-3.662 4.265-5.406 1.363-1.572 2.62-3.194 3.85-4.874.438-.592.893-1.172 1.361-1.74.686-.887.969-1.698 1.268-2.771h.663l.103-.973c.132-.97.385-1.784.746-2.692.846-2.436.904-5.362.04-7.805l-.558-1.118-.393-.828c-.812-.672-1.506-.64-2.533-.575-3.06.336-4.579 1.461-6.68 3.722a17.238 17.238 0 0 0 -1.656 2.65l-.38.708c-.568 1.088-.99 2.072-1.276 3.267l-.885.056a4855.172 4855.172 0 0 0 -4.722.298c-2.772.174-5.54.367-8.305.64l.066-.606c.144-1.32.262-2.626.302-3.955.108-3.574.696-6.773 2.944-9.683l.166-.683c.208-.809.57-1.046 1.159-1.635.381-.525.753-1.057 1.118-1.594 2.444-3.518 4.653-5.356 8.778-6.604l.946-.305c2.152-.67 4.178-1.005 6.42-1.148z" fill="#f0db19"/><path d="m254.935 55.362 1.318.088c3.707.253 7.09.638 10.482 2.252l.863.39c2.844 1.392 4.365 3.311 6.093 5.903v.994h.663c.34 1.447.667 2.897.993 4.347l.288 1.223c.628 2.828.822 5.451.706 8.342l-.019.765a31.464 31.464 0 0 1 -1.306 8.178h-.662l-.084.726c-.628 2.362-2.964 4.18-4.968 5.423-1.074.62-2.004.945-3.23 1.139.457 1.058.949 1.64 1.843 2.36 4.474 3.794 4.474 3.794 4.782 5.92h.663c.74 1.209.815 2.353.952 3.748.219 1.931.585 3.265 1.698 4.865 1.224 2.785 1.397 5.505 1.263 8.509l-.03.798c-.125 2.105-.427 4.192-2.04 5.681l-.85.58-.641.642c-1.88 1.88-4.371 4.265-6.977 4.99h-1.325v.662c-.724.16-1.449.318-2.174.476l-1.222.268c-3.625.73-7.167.63-10.847.58l-1.008-.007c-4.078-.039-7.502-.244-11.248-1.98l-1.054-.454c-1.265-.554-2.433-1.098-3.583-1.864l-.85-.249c-2.527-.92-5.122-2.555-7.1-4.389v-.662l-.6-.104c-.878-.276-1.206-.453-1.719-1.221-.22-2.067.371-3.352 1.325-5.114l.383-.734c.31-.593.626-1.182.942-1.77h.663l.662-2.982h.663l.115-.56c.245-.87.607-1.599 1.023-2.4.444-.858.852-1.685 1.192-2.59.32-.743.32-.743.982-1.075 1.7-.17 2.652.243 4.1 1.118l1.063.63.8.571v.662l.62.171c1.438.412 2.742.832 4.058 1.548 1.423.665 2.8.722 4.348.724l.688.002c1.31-.029 2.382-.15 3.535-.788 1.198-1.344 1.852-2.839 1.987-4.638l-.993-.331c-.56-.657-1.111-1.32-1.657-1.987l-.993-.663v-.662l-1.16.041c-1.476.003-2.727-.282-4.14-.704-.634-.634-.415-1.798-.436-2.664l-.021-.723a624.263 624.263 0 0 0 -.104-3.812c-.084-3.011-.12-6.019-.102-9.032 1.285-.395 2.291-.662 3.644-.662v-.663l.582-.182c2.792-.898 6.13-2.111 7.928-4.553 1.09-2.252 1.372-5.094.765-7.52-.565-.566-1.255-.455-2.029-.497-1.125.001-1.74.02-2.668.671-.606.62-.606.62-1.12 1.273-.477.54-.477.54-1.47.871l-.497.518c-.497.476-.497.476-1.49.476-.08.193-.158.387-.239.586-.517.9-1.088 1.336-1.915 1.96-1.532 1.186-2.971 2.442-4.397 3.754-1.854 1.65-1.854 1.65-3.387 1.65l-.331-1.656h-.994c-.511-.499-.511-.499-1.056-1.18-.795-.954-1.587-1.78-2.546-2.568-1.386-1.174-2.475-2.52-3.601-3.94-.928-1.15-1.917-2.234-2.922-3.317-.475-.589-.475-.589-.475-1.251l-.993-.332c.134-1.743.35-2.491 1.656-3.643l.449-.784c.58-.93 1.177-1.497 2.014-2.197.847-.724 1.524-1.342 2.195-2.236 1.12-1.3 2.58-2.011 4.285-2.153l.663.083v-.994c6.215-3.261 12.522-3.15 19.336-2.67z" fill="#fd0000"/><path d="m61.483 60.77-11.333 1.335" fill="none" stroke-linecap="round"/><path d="m90.549 40.982c3.296 1.649 3.296 1.649 4.326 3.812l.618 1.957-4.944 1.648zm-15.742 60.778c2.477 2.729 2.477 2.729 2.656 5.118l-.132 2.048-5.206-.25z" fill="#fff"/></g></svg>