<svg height="1563" viewBox="0 0 2400 1500" width="2500" xmlns="http://www.w3.org/2000/svg"><path d="m0 0h2400v1500h-2400z" fill="#181870"/><g stroke="#000"><path d="m1238.172 670.893s-132.065-185.939-150.27-178.122 18.137 232.04 18.137 232.04-184.488 133.202-176.698 150.763 231.84-19.272 231.84-19.272 133.823 184.226 150.962 177.833-19.415-232.187-19.415-232.187 184.986-133.64 177.977-150.615-232.533 19.56-232.533 19.56z" fill="#fff" fill-rule="evenodd" stroke-width="10"/><g fill="none"><path d="m1088.278 495.134 223.49 536.64" stroke-width="8.885"/><path d="m1466.733 652.979-533.42 220.95" stroke-width="10"/></g><g fill-rule="evenodd"><path d="m1200 277.542-38.252-52.634 38.252-52.634 38.252 52.634z" fill="#fff" stroke-width="13.378"/><path d="m1200 245.962-15.3-21.054 15.3-21.054 15.3 21.054z"/><path d="m1161.519 670.992s-224.863-38.094-232.208-19.694 176.902 151.253 176.902 151.253-36.265 224.64-18.34 231.55 150.309-177.563 150.309-177.563 224.895 35.64 232.493 19-177.91-150.452-177.91-150.452 36.308-225.303 19.348-232.35-150.594 178.256-150.594 178.256z" fill="#fff" stroke-width="10"/></g><g fill="none"><path d="m931.247 652.704 537.493 221.43" stroke-width="8.885"/><path d="m1310.469 496.708-220.95 533.421" stroke-width="10"/></g><g stroke-width="9.2"><path d="m1092.564 763.65s-193.3 284.973-185.27 292.493c8.031 7.52 292.618-185.145 292.618-185.145s286.173 191.378 292.866 185.145c6.694-6.232-185.518-292.742-185.518-292.742s192.098-286.58 185.518-292.742c-6.34-5.939-292.617 185.395-292.617 185.395s-285.808-192.414-292.867-185.395c-7.06 7.019 185.27 292.991 185.27 292.991z" fill="#fff" fill-rule="evenodd"/><path d="m913.71 1049.728 572.653-572.653m-572.653 0 572.653 572.653" fill="none"/></g><path d="m1117.206 681.003s-367.598 70.46-367.206 82.412 367.206 82.602 367.206 82.602 72.859 367.043 82.794 367.398 82.411-367.589 82.411-367.589 367.91-72.619 367.589-82.411c-.309-9.438-367.397-82.412-367.397-82.412s-71.783-367.557-82.603-367.588-82.794 367.588-82.794 367.588z" fill="#fff" fill-rule="evenodd" stroke-width="10"/><path d="m759.862 763.415h880.275m-440.137-440.138v880.275" fill="none" stroke-width="10"/></g></svg>