<svg height="2500" viewBox="0 0 1080 1080" width="2500" xmlns="http://www.w3.org/2000/svg"><path d="M0 540v540h1080V0H0zm692.8-52c13.2 1.9 25 9.9 29.8 20.5 3.7 7.9 4.3 16.7 4.4 56.2V601h-32v-22h-33v22h-32.1l.3-42.3c.3-41.3.4-42.3 2.6-47.8 7.8-19.3 28.7-27.3 60-22.9zm-276 1.9c11.4 4.6 18.4 11 22.3 20.7 2.4 5.8 2.4 6.3 2.7 48.1l.3 42.3H410v-22h-33v22h-32v-37.3c0-20.6.5-40.1 1-43.7 2.1-13 8.9-22.4 20.5-28.1 8.4-4.1 13.5-4.9 30.5-4.4 11.8.3 15.5.7 19.8 2.4zm394.2-.3c11 3.1 19.5 9.6 23.9 18.3 4.5 8.8 5.1 14.9 5.1 55.2V601h-32v-37.3c0-23.9-.4-38.6-1.1-41.2-3.1-11.1-16.6-15.1-25.3-7.5-5.3 4.7-5.6 7.7-5.6 48.9V601h-32.1l.3-40.8c.4-45 .6-46.2 7.1-55.8 8.2-12.3 23.4-17.9 45.2-16.8 5 .3 11.5 1.2 14.5 2zm-483 37.6c0 20.5-.5 40.1-1 43.6-3.6 21.7-19.7 33.1-47.1 33.2-27.6.1-43.9-12.2-47.2-35.5-1.6-11-2.3-10.5 15.8-10.5H264v4.2c.1 8.3 5.2 15.9 12 17.9 7.9 2.4 16.3-2.6 18.9-11 .7-2.6 1.1-16.3 1.1-41.5V490h32zm225.2 2c.3 36.1.5 39.6 2.2 43.1 6.3 12.8 20 11 24-3.2 1.4-5 1.6-11.1 1.6-40.1-.1-18.8.1-34.4.4-34.7.4-.4 12.7 2.6 25.3 6.3l5.3 1.5v34.2c0 35.9-.4 39.7-4.8 48.2-2.7 5.4-10.1 12.1-16.6 15.1-21.4 9.8-76.2 11-103.6 2.3-7.9-2.5-11.4-4.6-16.1-9.6-10.2-10.8-11-15.1-10.7-56.9l.3-33.8 13.5-3.7c7.4-2.1 14.3-3.8 15.2-3.8 1.5-.1 1.7 2.9 2 36.1l.3 36.3 2.5 5c5.3 10.6 19 12.7 25.8 4 2.2-2.7 2.2-3.2 2.2-44.1V490h30.9zm-70.4 80.6c-2.9.3-4 3.2-1.3 3.2.8 0 1.5.4 1.5 1 0 .5-.9 1-1.9 1-1.1 0-2.1.5-2.3 1.1-.2.7-.9 1-1.4.8-.7-.3-.5-2.1.3-5.1l1.4-4.7 3.2 1.2 3.2 1.2zm109.2 1.1c0 .5-.8 1.2-1.7 1.4-1.4.4-1.3.5.3.6 2.6.1 4 3.1 2.2 4.3-.7.4-2.2.7-3.3.7-1.7-.1-1.7-.2-.2-.6 2.3-.6 2.2-2.3-.3-2.3s-2.7-3.7-.2-4.3c2.8-.8 3.2-.7 3.2.2zm-9.9 1.2c1.5.8 1.8 1.4.9 2.4-.8.9-.7 1.7.5 2.8 1.9 1.9 1.9 2.7.1 2.7-1.5 0-4.6-5.2-4.6-7.7 0-1.6.5-1.6 3.1-.2zm-89.7 1.5c2 .8 2.1 4.8.1 6.4-1.2 1-2.1 1-4 .2-2.7-1.3-3-2.3-1.5-5.3 1.1-2 2.7-2.3 5.4-1.3zm21.5 4.6l-.9 5.4c0 .6-1.3.9-3.1.6-2.7-.4-3-.8-2.7-3.6.2-2.3.8-3.2 2.6-3.4 1.2-.2 2.2-1 2.2-1.8s.6-1.4 1.4-1.4c1 0 1.2.9.5 4.2zm43.5-.5c1.1 7 .9 7.5-2.6 7.1-2.9-.3-3.3-.7-3.6-3.5-.2-2.4.1-3.3 1.7-3.8 1.2-.3 2.1-1.3 2.1-2.1 0-3 1.8-1.2 2.4 2.3zM577 615c0 .5-.7 1-1.5 1s-1.5.9-1.5 2c0 1.4.7 2 2.1 2 1.1 0 1.7.4 1.4 1-1.2 1.9-4.5 1-5.7-1.5-.8-1.9-.8-2.8.2-4 1.4-1.7 5-2.1 5-.5zm-73.6 2.2c1.5 2.5-.4 5.3-3.5 5.3-2.5 0-3.7-3-2.5-6.1.8-2 4.6-1.4 6 .8zm24.7-1.2c1.1.6 1.9 2.1 1.9 3.6 0 1.9-.6 2.6-3 3-1.6.4-3 1-3 1.5s-.4.9-1 .9c-1.1 0-1.4-8.3-.3-9.3.9-1 3.1-.9 5.4.3zm39.9 3.4c0 2.8-.4 3.5-2.7 4-1.7.5-2.9.3-3.4-.6-1.2-1.8-1.1-5.8 0-5.8.5 0 1.1 1 1.3 2.2.4 3 2.2 2.5 2.6-.7.5-3.7 2.2-3 2.2.9zm-31-.4c1 .6 1.1 1 .3 1s-1.3 1.3-1.3 3.1c0 3.6-2.3 3.6-2.8 0-.7-4.4.9-6 3.8-4.1zm10.6 1.6c.8 3.3-1.5 5.9-4.5 4.9-1.5-.4-2.1-1.5-2.1-3.4 0-3.4.7-4.1 3.6-4.1 1.7 0 2.5.7 3 2.6z"/><path d="M670 512.2c-7 3.6-8 6.6-8 23.5V550h33v-12.3c0-6.7-.5-13.9-1-15.9-2.9-10.3-14-14.7-24-9.6zM387.1 511.3c-4.2 1.6-7.7 5.6-9 10.5-.6 2-1.1 9.2-1.1 15.9V550h33l.1-2.8c.5-24.8-.7-30.9-6.9-34.5-3.9-2.3-11.8-3-16.1-1.4zM488.7 616.4c-.6 1.5.1 2.6 1.5 2.6.4 0 .8-.9.8-2 0-2.3-1.5-2.7-2.3-.6zM509.7 618.6c-1.1 1.1-.8 4.4.3 4.4 1.5 0 2.4-3 1.3-4.1-.5-.5-1.2-.6-1.6-.3zM553.6 619.7c-1.2 1.2-.6 3.3.9 3.3.8 0 1.5-.6 1.5-1.4 0-1.7-1.4-2.8-2.4-1.9zM498.7 618.5c-.8 1.9 1.3 3.1 2.3 1.4.9-1.4.4-2.9-1-2.9-.4 0-1 .7-1.3 1.5zM525 619c0 1.3.5 2 1.3 1.7.6-.2 1.2-1 1.2-1.7s-.6-1.5-1.2-1.8c-.8-.2-1.3.5-1.3 1.8zM543 622.1c0 2.4 2.3 2.1 2.8-.4.2-1-.3-1.7-1.2-1.7-1 0-1.6.9-1.6 2.1z"/></svg>