<svg clip-rule="evenodd" fill-rule="evenodd" height="2500" image-rendering="optimizeQuality" shape-rendering="geometricPrecision" text-rendering="geometricPrecision" viewBox="-.5 -.5 1000 1000" width="2500" xmlns="http://www.w3.org/2000/svg"><path d="m-.5-.5h1000v1000h-1000z" fill="#ba2027"/><path d="m588.5 451.5c21.626-3.066 39.792 3.267 54.5 19 7.123 11.334 9.456 23.668 7 37-6.03 28.029-23.197 44.529-51.5 49.5-16.071 2.77-31.071.104-45-8-9.392-6.408-15.225-15.241-17.5-26.5-2.877-38.932 14.623-62.599 52.5-71z" fill="#fefdfd"/><path d="m701.5 451.5c12.933-1.01 25.267 1.156 37 6.5 13.998 9.815 16.831 22.315 8.5 37.5a57.217 57.217 0 0 1 -9.5 8.5c8.229 7.023 11.063 15.856 8.5 26.5-6.108 15.659-17.608 24.492-34.5 26.5-8.333.667-16.667.667-25 0-14.848-1.982-25.015-9.815-30.5-23.5-1.838-15.325 3.995-26.658 17.5-34-9.866-16.498-6.866-30.331 9-41.5 6.09-3.262 12.424-5.429 19-6.5zm97 0c14.058-1.16 27.391 1.34 40 7.5 10.723 7.655 13.89 17.822 9.5 30.5-2.188 6.544-6.354 11.377-12.5 14.5 8.59 7.278 11.423 16.444 8.5 27.5-6.205 15.38-17.705 23.88-34.5 25.5-16.033 2.591-31.033-.075-45-8-12.401-11.268-14.235-24.101-5.5-38.5 3.747-4.254 7.914-7.921 12.5-11-9.987-15.865-7.321-29.365 8-40.5 6.104-3.417 12.437-5.917 19-7.5z" fill="#fece0d"/><path d="m261.5 454.5a1723.12 1723.12 0 0 1 83-1c.237 1.291-.096 2.291-1 3-26.98-1.991-54.313-2.658-82-2z" fill="#dc8e91"/><path d="m177.5 453.5h68a791.115 791.115 0 0 1 -16.5 79c-5.449 13.982-15.616 22.149-30.5 24.5-8.333.667-16.667.667-25 0-10.04-1.518-18.04-6.351-24-14.5a212.988 212.988 0 0 1 21.5-21c5.596 8.388 13.096 10.888 22.5 7.5a11.532 11.532 0 0 0 3.5-4.5 4946.366 4946.366 0 0 1 9.5-43 289.882 289.882 0 0 0 -34-1 192.692 192.692 0 0 1 5-27z" fill="#fefafa"/><path d="m261.5 454.5c27.687-.658 55.02.009 82 2a238.862 238.862 0 0 1 -5 23.5c-16.33.5-32.663.667-49 .5a72.032 72.032 0 0 0 -1 11h42a227.83 227.83 0 0 1 -5 24.5c-14.329.5-28.663.667-43 .5l-2 13h50a361.301 361.301 0 0 1 -5 26c-28.172.331-56.172-.002-84-1a2651.595 2651.595 0 0 1 20-100z" fill="#fefcfc"/><path d="m358.5 453.5h83a962.45 962.45 0 0 1 -5 27c-16.337-.167-32.67 0-49 .5-1.04 3.4-1.706 6.9-2 10.5a463.087 463.087 0 0 1 43 1 382.831 382.831 0 0 0 -5 24h-44c.121 4.325-.546 8.491-2 12.5 17.01.167 34.01.667 51 1.5a329.714 329.714 0 0 0 -5 25h-85a13755.132 13755.132 0 0 0 20-102zm90 0h94a320.858 320.858 0 0 1 -5 27h-30a1817.078 1817.078 0 0 1 -15 74 289.882 289.882 0 0 1 -34 1 3709.132 3709.132 0 0 1 14-75h-29a960.04 960.04 0 0 1 5-27z" fill="#fefbfb"/><path d="m705.5 475.5c8.816-2.006 12.65 1.327 11.5 10-.346 2.348-1.513 4.181-3.5 5.5-9.271 2.394-13.105-1.106-11.5-10.5a27.241 27.241 0 0 1 3.5-5z" fill="#bc2726"/><path d="m806.5 474.5c7.679.518 10.512 4.518 8.5 12-2.435 4.724-6.269 6.224-11.5 4.5-4.78-3.877-5.28-8.377-1.5-13.5a29.01 29.01 0 0 0 4.5-3z" fill="#bc2826"/><path d="m590.5 479.5c19.721-.778 27.888 8.555 24.5 28-4.128 17.107-14.961 24.273-32.5 21.5-5.073-1.406-8.573-4.572-10.5-9.5-4.826-18.67 1.34-32.004 18.5-40z" fill="#ba2228"/><path d="m698.5 513.5c12.077.229 15.91 5.895 11.5 17-4.222 3.552-9.055 4.719-14.5 3.5-2.07-.948-3.57-2.448-4.5-4.5a25.238 25.238 0 0 1 0-10c2.134-2.653 4.634-4.653 7.5-6z" fill="#bc2626"/><path d="m796.5 513.5c10.542-.961 15.042 3.706 13.5 14-3.323 6.408-8.489 8.575-15.5 6.5-5.525-2.919-7.358-7.419-5.5-13.5 1.742-3.246 4.242-5.579 7.5-7z" fill="#bc2726"/><path d="m241.5 554.5c27.828.998 55.828 1.331 84 1a906.56 906.56 0 0 1 -85 0c.124-.607.457-.94 1-1z" fill="#ca575c"/></svg>