<svg height="897" viewBox="245.7 82.1 2035.4 724.4" width="2500" xmlns="http://www.w3.org/2000/svg"><path d="m245.7 257.3 301.9-173.3v51.7l-301.9 173.3zm0 251.3v-51.7l301.9-173.3v51.7zm0 49.6 301.9-173.3v51.7l-301.9 173.3zm0-200.2 301.9-173.3v51.7l-301.9 173.3zm318.9 448.5-301-174.9 44.8-25.8 301.2 174.9zm218.3-125.3-44.9 25.8-301.5-175.2 44.7-25.8zm43-24.6-301.7-175.4 44.7-25.9 301.7 175.5zm-173.8 99.7-301.3-175 44.8-25.9 301.4 175.1zm186.4-410.5 44.8 24.3-.6 235.3-44.8-25.8z" fill="#03528b"/><path d="m883.6 257.3-.3 103.5-44.8-24.3.3-104.9z" fill="#949599"/><path d="m665.2 417 44.8 24.3-.2 64.3-44.7-25.8z" fill="#03528b"/><path d="m710.7 158.1-.7 273.8-44.7-24.3.7-275.2z" fill="#d1d2d4"/><path d="m578 172.1 44.8 24.4-.7 258.5-44.7-25.9z" fill="#03528b"/><path d="m623 107.8-.2 79.3-44.7-24.3.2-80.7z" fill="#949599"/><path d="m751.1 385 44.8 24.4-.4 145.7-44.8-25.9z" fill="#03528b"/><path d="m796.4 207.3-.5 192.7-44.8-24.3.5-194.1z" fill="#a8a9ad"/><path d="m1153.7 413.9c-25 0-45.2-20.3-45.2-45.2s20.3-45.2 45.2-45.2 45.2 20.3 45.2 45.2-20.3 45.2-45.2 45.2zm0-83.5c-21.1 0-38.2 17.2-38.2 38.2s17.2 38.2 38.2 38.2 38.2-17.2 38.2-38.2-17.2-38.2-38.2-38.2zm523.2 70.1a45.03 45.03 0 0 1 -32.1 13.4c-25 0-45.2-20.3-45.2-45.2s20.3-45.2 45.2-45.2 24.7 5.5 33 14.3l-4.9 5c-7-7.5-17-12.3-28-12.3-21.1 0-38.2 17.2-38.2 38.2s17.2 38.2 38.2 38.2 20.2-4.3 27.1-11.3l5 4.9zm-611.1 11.2c26.2-4.6 28.2-26 28.2-26.3v-59.4h-7v59.3c0 1.1-1.1 15.6-21.2 19.5zm210.9-53.4c0-17.8-14.5-32.3-32.3-32.3h-29.5v86.1h7v-21.6h22.5c3.7 0 7.2-.6 10.4-1.7l12.2 23.4h7.8l-13.7-26.3c9.3-5.7 15.5-15.9 15.5-27.5zm-54.8 25.2v-50.5h22.5c13.9 0 25.3 11.3 25.3 25.3s-11.3 25.3-25.3 25.3h-22.5zm109.2 28.6h-35.1v-86.1h35.1c23.7 0 43 19.3 43 43s-19.3 43-43 43zm-28.1-7h28.1c19.9 0 36-16.2 36-36s-16.2-36-36-36h-28.1v72.1zm935.1 145h-35.1v-86.1h35.1c23.7 0 43 19.3 43 43s-19.3 43-43 43zm-28.1-7h28.1c19.9 0 36-16.2 36-36s-16.2-36-36-36h-28.1v72.1zm-729-131h-7v-86.1h5.5l54.5 72.5v-72.5h7v86.1h-5.5l-54.5-72.5zm303.2 138h-7v-86.1h5.5l54.5 72.5v-72.5h7v86.1h-5.5l-54.5-72.5zm336.8 0h-7v-86.1h5.5l54.5 72.5v-72.5h7v86.1h-5.5l-54.5-72.5zm-870 0h-7v-86.1h5.5l54.5 72.5v-72.5h7v86.1h-5.5l-54.5-72.5zm203.1-138h7.7l-40-86.1h-6.3l-40 86.1h7.7l6.8-14.6h57.4l6.8 14.6zm-60.9-21.5 25.5-54.8 25.5 54.8h-50.9zm363.2 21.5h7.7l-40-86.1h-6.3l-40 86.1h7.7l6.8-14.6h57.4l6.8 14.6zm-60.9-21.5 25.5-54.8 25.5 54.8h-50.9zm305.1 21.5h7.7l-40-86.1h-6.3l-40 86.1h7.7l6.8-14.6h57.4l6.8 14.6zm-60.9-21.5 25.5-54.8 25.5 54.8h-50.9zm-132.9-64.5h-29.6v86h8v-21.1h21.6c17.9 0 32.5-14.6 32.5-32.5s-14.6-32.5-32.5-32.5zm0 57h-21.6v-48.9h21.6c13.5 0 24.5 11 24.5 24.5s-11 24.5-24.5 24.5zm48-57.1h8v86.1h-8zm-640.3 138h8v86.1h-8zm854.5-51.9h-49.3v-86.1h8v78.1h41.3zm-137.9-86.1h-57v8h24.1v78.1h8v-78.1h24.9zm-342.4 138h-57.1v8h24.2v78.1h8v-78.1h24.9zm324.2 0h-57.1v8h24.2v78.1h8v-78.1h24.9zm104.1 8v-8h-52.4v86.1h8v-39h33.2v-8h-33.2v-31.1zm-255.9 0v-8h-52.4v86h52.1v-8h-44.1v-30.9h33.2v-8h-33.2v-31.1zm-305.5 0v-8h-52.4v86h52.1v-8h-44.1v-30.9h33.2v-8h-33.2v-31.1zm606 81c-18.5 0-33.5-15-33.5-33.5v-55.5h8v55.5c0 14.1 11.5 25.5 25.5 25.5s25.5-11.5 25.5-25.5v-55.5h8v55.5c0 18.5-15 33.5-33.5 33.5zm-373.4-2.9h-8v-71.6l-33.9 46.4-6.4-.1-33.2-46.1v71.4h-8v-86.1h7.3l37.1 51.7 37.8-51.7h7.3zm-334.1.1-31.5-86.2h8.5l26.6 72.8 25.1-72.8h8.4l-29.6 86.1zm143.2 4c-7.2 0-18.3-1.1-31.6-18.7l6.4-4.8c11.8 15.7 20.4 15.6 26.7 15.5h1.3c16.2 0 21.5-14.1 21.5-18 0-11.5-9-14.1-23.8-17.1-3-.6-6.1-1.2-8.9-2-15.6-4.3-22-17.4-20.2-27.5 2.3-13.9 12.8-21.5 29.6-21.5s26.3 12.7 26.8 13.2l-5.9 5.4c0-.1-9.9-10.6-20.9-10.6s-20.1 5-21.7 14.9c-1 5.3 2.1 15 14.5 18.4 2.5.7 5.4 1.3 8.3 1.9 12.8 2.6 30.3 6.1 30.3 25 0 8.8-9.1 26-29.5 26h-2.8zm-391.1 9.2c-1.4 0-2.7 0-4.2-.2h-.1c-18.3-2.7-26.1-18.5-27.6-24.3v-.2c-4.4-20.8 9.3-30.4 11-31.5.7-.5 5.8-4.1 12.1-8.6-4.3-5.6-7.8-10.3-9.9-13.1-3-4-4.5-8.9-4.2-13.6.3-5.1 2.2-8.7 2.9-9.8 1-2.2 6.8-13 20.5-13s17.1 4.6 21.8 13c3.3 6.1 6.6 19.7-4.8 27.7-4.1 2.9-9.6 6.8-15 10.7 7.1 9.3 15.2 20.1 22.3 29.4v-29.5h25.7v8.9h-17.6l-.2 25.8h-1v4.9c5.9 7.7 11.9 14.9 12.1 15.1h-10c-.1-.1-1.1-1.6-5.5-7.4-6.9 10.4-16.8 15.9-28.3 15.9zm-3.2-8.1c13 1.4 20.7-5.9 25-12.4l1.1-2.5c-7.9-10.5-18.2-24-26.8-35.3-6.9 4.9-12.4 8.8-12.4 8.8h-.2c-.4.4-10.8 7.2-7.5 23.1.3 1 5.2 15.9 21 18.3zm-9.9-89.1s-1.6 2.5-1.8 6.2c-.2 2.9.8 5.9 2.6 8.4 2.1 2.8 5.7 7.6 10 13.3 5.5-3.9 11.1-7.9 15.2-10.8 8.4-6 2.5-17.2 2.4-17.3-4.1-7.3-10.3-8.8-14.8-8.8-9.5 0-13.1 8.1-13.2 8.5v.3c-.1 0-.4.3-.4.3z" fill="#6f7072"/></svg>