<svg height="-268" viewBox="20.4 217.5 554.6 160.2" width="2500" xmlns="http://www.w3.org/2000/svg"><path d="m60.6 344v5.1c0 2.3-.3 4.5-.7 6.8-.4 2.5-1.1 4.9-2 7.3s-2.3 4.7-4.1 6.7c-2 2.1-4.4 3.7-7.1 4.8-3.4 1.3-7.1 1.9-10.8 1.8-2.7 0-5.4-.2-8-.6s-5.1-1.1-7.5-2.3v-18.9c1.3 1.5 2.9 2.8 4.8 3.8 1.8 1 3.9 1.5 6 1.5 2 .1 3.9-.4 5.5-1.6 1.3-1.1 2.2-2.5 2.6-4 .5-1.7.8-3.4.8-5.2v-69.8h20.6v64.6zm46.8-66.1c4.6 0 9.2.9 13.5 2.7 4.6 1.9 8.6 4.9 11.7 8.6 3.4 3.9 6.2 9 8.3 15.3 2.1 6.2 3.1 13.8 3.1 22.8 0 8.9-1 16.5-3.1 22.8s-4.8 11.3-8.3 15.3c-3.1 3.7-7.1 6.6-11.7 8.6-4.2 1.8-8.8 2.7-13.5 2.7s-9.2-.9-13.5-2.7c-4.6-1.9-8.6-4.9-11.7-8.6-3.4-3.9-6.2-9-8.3-15.3-2.1-6.2-3.1-13.8-3.1-22.8s1-16.6 3.1-22.8 4.8-11.3 8.3-15.3c3.1-3.7 7.1-6.6 11.7-8.6 4.2-1.7 8.8-2.7 13.5-2.7zm-14.7 49.3c0 1.3 0 2.9.1 5 0 2.1.3 4.3.6 6.6.3 2.4.8 4.8 1.4 7.1.6 2.2 1.4 4.4 2.6 6.5 1 1.8 2.3 3.4 4 4.7 1.7 1.2 3.7 1.8 5.9 1.8s4.2-.6 5.9-1.8c1.7-1.3 3-2.9 4-4.7 1.1-2.1 2-4.2 2.6-6.5s1.1-4.7 1.5-7.1c.3-2.4.5-4.6.6-6.6 0-2.1.1-3.7.1-5s0-3.2-.1-5.3c0-2.1-.3-4.4-.6-6.7-.3-2.4-.8-4.8-1.5-7.1-.6-2.2-1.4-4.3-2.6-6.4-1-1.7-2.3-3.3-4-4.5-1.7-1.1-3.8-1.8-5.9-1.8s-4.2.6-5.9 1.8-3 2.8-4 4.6c-1.1 2-2 4.1-2.6 6.3-.6 2.3-1.1 4.7-1.4 7.1s-.5 4.6-.6 6.7c0 2.1-.1 3.9-.1 5.3z" fill="#fdb515"/><path d="m154.9 374.9v-95.5h25.5c5.2 0 10.3.8 15.2 2.6 2.9 1.1 5.6 2.7 7.9 4.7 2.6 2.3 4.6 5.1 5.9 8.2 1.5 3.4 2.3 7.6 2.3 12.8 0 4.1-.7 8.1-2.3 11.9-1.4 3.3-3.6 6.3-6.4 8.8-2.9 2.5-6.2 4.3-9.9 5.5-4.2 1.3-8.6 2-13 1.9l-4.5-.3v39.4h-20.6zm20.5-54.7c5 .2 8.8-.7 11.5-2.6s4.1-5.3 4.1-10.2c.1-3.1-.8-6.2-2.6-8.8-1.7-2.4-4.8-3.6-9.2-3.6h-3.9v25.2zm81.2-40.8 25 95.5h-21.9l-3.9-16.1h-20.8l-3.7 16.1h-20.4l24.2-95.5h21.7zm-9.1 39-2.3-14.4h-.3l-2.2 14.4-4.4 25.5h14.5l-5.2-25.5zm94.3-21c-2.5-.6-5.1-1-7.7-1-4.1-.1-8.1.8-11.7 2.6-3.2 1.7-6 4-8.1 6.8-2.2 2.9-3.7 6.1-4.7 9.6s-1.5 7.2-1.5 10.8c0 3.7.5 7.4 1.5 11 .9 3.6 2.5 7.1 4.7 10.2 2.1 3 4.8 5.6 8 7.6 3.4 2 7.5 3.1 11.6 3 1.3 0 2.6-.1 3.9-.4s2.6-.6 3.9-1v17.9c-3 1.1-6.3 1.7-9.5 1.7-6.9.1-13.7-1.4-19.7-4.3-5.6-2.8-10.5-6.6-14.4-11.2-4-4.8-7-10.2-8.9-15.9-2-5.9-3-12.1-3-18.3 0-5.9 1.1-11.8 3.1-17.5 2-5.6 5-10.8 9-15.4 3.9-4.5 8.7-8.2 14.2-10.9 5.8-2.8 12.3-4.3 18.8-4.2 3.6 0 7.1.7 10.5 1.8v17.3zm64.6 0c-2.5-.6-5.1-1-7.7-1-4.1-.1-8.1.8-11.7 2.6-3.2 1.7-6 4-8.1 6.8-2.2 2.9-3.7 6.1-4.7 9.6s-1.5 7.2-1.5 10.8c0 3.7.5 7.4 1.5 11 .9 3.6 2.5 7.1 4.7 10.2 2.1 3 4.8 5.6 8 7.5 3.4 2 7.5 3.1 11.6 3 1.3 0 2.6-.1 3.9-.4s2.7-.6 3.9-1v17.9c-3 1.1-6.2 1.7-9.5 1.7-6.9.1-13.7-1.4-19.7-4.3-5.6-2.7-10.6-6.6-14.5-11.2-4-4.8-7-10.1-8.9-15.9-2-5.9-3-12.1-3-18.3 0-5.9 1.1-11.8 3.1-17.5 2-5.6 5-10.8 9-15.4 3.9-4.5 8.7-8.2 14.2-10.9 5.8-2.8 12.3-4.3 18.8-4.2 3.6 0 7.1.6 10.5 1.8v17.3z" fill="#707372"/><path d="m564.2 217.9-53.6 22.5c-.4.2-.8.5-1 .8-.2.4-.4.8-.4 1.2s.1.8.4 1.2c.2.4.6.6 1 .8l46.2 19.5 10.5-4.4c.7-.3 1.2-.7 1.6-1.3s.6-1.2.6-1.9v-35.3c0-.6-.2-1.2-.5-1.7s-.7-.9-1.3-1.3c-.5-.3-1.1-.5-1.8-.5-.6 0-1.3 0-1.8.3z" fill="#9da1a1"/><path d="m440.4 274.9 53.6 22.5c.4.2.8.5 1 .8.2.4.4.8.4 1.2s-.1.8-.4 1.2c-.2.4-.6.6-1 .8l-46.3 19.5-10.5-4.4c-.7-.3-1.2-.7-1.6-1.3s-.6-1.2-.6-1.9v-35.2c0-.6.2-1.2.5-1.7s.7-.9 1.3-1.3c.5-.3 1.1-.5 1.8-.5.6 0 1.3 0 1.8.3z" fill="#ae852d"/><path d="m504.3 305.9-72.4 29.9c-.7.3-1.2.7-1.6 1.3s-.6 1.2-.6 1.9v35.2c0 .6.2 1.2.5 1.7s.7.9 1.3 1.3c.5.3 1.1.5 1.8.5.6 0 1.3 0 1.8-.3l69.6-28.7c1.4-.6 2.5-1.5 3.3-2.6s1.2-2.5 1.2-3.9v-33.4c0-4.7-4.9-2.9-4.9-2.9z" fill="#fdb515"/><path d="m500.4 249.1 72.4 29.9c.7.3 1.2.7 1.6 1.3s.6 1.2.6 1.9v35.2c0 .6-.2 1.2-.5 1.7s-.7.9-1.3 1.3c-.5.3-1.1.5-1.8.5-.6 0-1.3 0-1.8-.3l-69.7-28.8c-1.4-.6-2.5-1.5-3.3-2.6s-1.2-2.5-1.2-3.9v-33.4c0-4.7 5-2.9 5-2.9z" fill="#707372"/></svg>