<svg height="2500" width="2500" xmlns="http://www.w3.org/2000/svg" viewBox="0 0 1000 1000"><path d="M0 0h1000v1000H0V0z" fill="#fefefe"/><path d="M197 404c82.763 0 82.763 0 96.563 4.188l2.15.651c15.034 4.788 27.671 13.489 35.787 27.223 8.518 16.68 10.328 36.342 5.668 54.567-5.995 17.303-15.591 29.707-32.168 38.058-20.34 8.805-43.579 7.313-65 7.313v72h-43V404z" fill="#ed2025"/><path d="M645.063 473.625C659.178 485.306 667.729 502.984 670 521c1.991 23.706-3.972 45.572-19.418 63.863-4.938 5.174-10.145 9.088-16.332 12.664-2.504 1.43-2.504 1.43-4.25 4.473h-3c-3.231 1.183-6.397 2.498-9.578 3.809-14.716 5.123-36.9 4.718-51.29-1.274L563 603l-3.32-1.504c-19.839-9.731-32.107-26.217-39.848-46.566-3.094-10.896-2.1-22.712-1.832-33.93l-2-1h2l.375-2.5c3.42-19.156 13.958-36.932 29.91-48.35 30.256-20.27 68.078-16.883 96.778 4.475z" fill="#010101"/><path d="M562 318l1.893.492c4.286.7 8.49.65 12.826.64l2.835.004c1.973 0 3.947-.001 5.92-.006 3.015-.005 6.03 0 9.046.007 1.92 0 3.84-.002 5.761-.004l2.725.006c3.458-.013 6.584-.052 9.976-.772L615 318c2 2 2 2 2 5 .853.09.853.09 1.723.184 3.774.41 7.528.84 11.277 1.441l3 .375 1-1c5.276-.459 5.276-.459 7.875 1.188 1.473 2.372 1.347 4.071 1.125 6.812l2.688.813C649 334 649 334 651.25 335.625c3.04 1.52 4.419 1.455 7.75 1.313 3.535-.095 4.868-.004 8.125 1.625C669 341 669 341 668.813 344.313c-.195 3.625-.195 3.625 1.773 5.519a128.546 128.546 0 0 0 4.328 3.531C677 355 677 355 679.563 357.813c2.98 2.674 5.59 3.244 9.437 4.187 2 2 2 2 2.195 4.164l-.07 2.461-.055 2.477L691 373l-1.977-.098c-2.908.039-5.239.228-8.023 1.098-2.61 2.702-4.334 5.648-6 9h8c-3.674 4.008-7.143 6.526-12 9h-2l-.75 2.438c-1.51 4.305-3.352 8.416-5.25 12.562h2c.125 2.375.125 2.375 0 5l-2 2c-2.625-.375-2.625-.375-5-1-1.134-4.534-1.134-4.534-.44-6.953.767-3.569-1.428-6.52-3.06-9.61l-1.102-2.143c-3.126-5.987-6.614-11.7-10.398-17.294l-2-3c-4.094-.38-7.656-.601-11 2-1.233 2.457-1.233 2.457-2 5l-1 2c-.274 2.853-.446 5.706-.621 8.566L626 394l-2 1-1-3-2-1-.813 2.625C619 397 619 397 617.375 399.75c-1.887 4.46-1.63 8.474-1.375 13.25l-4 2c1.25 3.653 1.671 4.78 5 7a57.768 57.768 0 0 1-.063 8l-.083 2.234c-.14 2.141-.14 2.141-.854 5.766l-4 2-1 17-5.527-.14c-16.405-.29-29.924.862-45.473 6.14a845.86 845.86 0 0 1-3.938-5.25l-2.214-2.953C552 452 552 452 551.53 449.75L551 448c-2.08-1.138-2.08-1.138-4.563-1.75l-2.503-.734L542 445v-3l-4-2v-3l-1.813-.75c-2.523-1.442-3.687-2.775-5.187-5.25v-3l-4-2v-3l-1.813-.75c-2.523-1.442-3.687-2.775-5.187-5.25v-3l-3.375.125C513 414 513 414 511 412c.327-2.616.82-4.64 2-7a115.356 115.356 0 0 0-3.563-7.5l-1.114-2.185c-2.503-4.859-5.113-9.63-8.034-14.252-1.289-2.063-1.289-2.063-2.266-4-.935-1.92-.935-1.92-3.023-4.063-3.488-.704-6.764-.618-10 1-.618-8.036-.618-8.036 1.563-11.438 3.029-1.941 5.947-2.757 9.437-3.562l-2-1v-2c1.03-.49 1.03-.49 2.082-.988l2.73-1.325 2.708-1.3c2.314-1.294 3.86-2.304 5.48-4.387l.438-3.438c.562-3.562.562-3.562 2-6 2.923-1.782 3.808-1.642 7.125-1.437 6.362.274 11.506-2.178 16.437-6.125 1.214-2.52 1.214-2.52 2-5 2-2 2-2 4.813-2.188 3.187.188 3.187.188 5.535.774 3.13.489 5.229.054 8.277-.774l2.852-.73c2.872-1.232 3.903-2.456 5.523-5.082z" fill="#fdf7f7"/><path d="M365 404h43v167h82c1 35 1 35 0 37H365V404z" fill="#030303"/><path d="M811 394v33l-7-1c-11.159-.89-11.159-.89-21.484 2.66-4.425 3.911-6.276 9.233-6.721 14.997l-.111 2.984-.116 2.922-.13 3.687L775 465h31v34h-31v109h-40V499h-15l-1 2v-2h-4v-34h20l-.105-6c-.512-40.835-.512-40.835 12.793-55.313C765.313 387.49 789.258 389.652 811 394z"/><path d="M859 419h41v45c11.144-.04 11.144-.04 22.289-.09l4.176-.008 2.209-.015c1.776 0 3.551.05 5.326.113 1 1 1 1 1.114 4.235 0 1.433-.006 2.867-.016 4.3l-.003 2.022c-.006 2.502-.02 5.004-.032 7.505L935 499h-35c.068 7.887.138 15.773.236 23.66.044 3.674.083 7.347.11 11.02.027 3.548.067 7.094.117 10.641.025 1.993.035 3.987.045 5.98.06 11.2.06 11.2 3.492 21.699 3.796 2.003 6.916 2.237 11.176 2.195l3.161-.015 3.976-.055L935 574v32c-15.704 6.282-37.01 6.439-52.715-.137A57.174 57.174 0 0 1 876 602l-3.187-2.188c-9.082-9.08-13.476-22.458-13.933-35.153l.006-3.674v-2.042c0-2.208.008-4.415.016-6.623l.005-4.615c.003-4.034.013-8.068.024-12.103.01-4.122.015-8.245.02-12.368.01-8.078.028-16.156.049-24.234h-17v-35h17v-45z" fill="#010101"/><path d="M116 404h43c.045 19.412.082 38.823.104 58.235.01 9.015.024 18.03.047 27.044.02 7.864.033 15.728.037 23.592.003 4.157.009 8.315.023 12.473.014 3.926.018 7.853.015 11.78 0 1.428.005 2.857.012 4.285.107 20.554-1.85 42.534-16.488 58.341-15.692 14.593-35.216 14.823-55.394 14.4-8.258-.368-15.672-2.076-23.356-5.15v-36l8.063 2c12.871 2.97 24.416 3.916 36.187-2.875 5.156-4.717 6.437-13.105 7.124-19.74.154-3.94.187-7.871.172-11.814.009-1.5.02-2.999.031-4.498.028-4.028.031-8.056.03-12.084.004-4.226.03-8.451.052-12.676.04-7.983.061-15.965.074-23.947.016-9.096.055-18.192.095-27.287.082-18.693.133-37.386.172-56.079z" fill="#ed2025"/><path d="M562 318l1.893.492c4.286.7 8.49.65 12.826.64l2.835.004c1.973 0 3.947-.001 5.92-.006 3.015-.005 6.03 0 9.046.007 1.92 0 3.84-.002 5.761-.004l2.725.006c3.458-.013 6.584-.052 9.976-.772L615 318c2 2 2 2 2 5l1.723.184c3.774.41 7.528.84 11.277 1.441l3 .375 1-1c5.276-.459 5.276-.459 7.875 1.188 1.473 2.372 1.347 4.071 1.125 6.812l2.688.813C649 334 649 334 651.25 335.625c3.04 1.52 4.419 1.455 7.75 1.313 3.535-.095 4.868-.004 8.125 1.625C669 341 669 341 668.813 344.313c-.195 3.625-.195 3.625 1.773 5.519a128.546 128.546 0 0 0 4.328 3.531C677 355 677 355 679.563 357.813c2.98 2.674 5.59 3.244 9.437 4.187 2 2 2 2 2.195 4.164l-.07 2.461-.055 2.477L691 373l-1.977-.098c-2.908.039-5.239.228-8.023 1.098-2.61 2.702-4.334 5.648-6 9h8c-3.674 4.008-7.143 6.526-12 9h-2l-.75 2.438c-1.51 4.305-3.352 8.416-5.25 12.562h2c.125 2.375.125 2.375 0 5l-2 2c-2.625-.375-2.625-.375-5-1-1.134-4.534-1.134-4.534-.44-6.953.767-3.569-1.428-6.52-3.06-9.61l-1.102-2.143c-3.126-5.987-6.614-11.7-10.398-17.294l-2-3c-4.13-.382-7.562-.512-11 2l-1 3a111.256 111.256 0 0 1-6.563 4.688l-1.865 1.26A723.614 723.614 0 0 1 616 388l5 1c-1.117 2.65-2.243 5.294-3.375 7.938l-.96 2.287c-2.438 5.662-2.438 5.662-4.665 6.775-3-5.75-3-5.75-3-8h-2l-.854-1.573a2524.491 2524.491 0 0 0-3.896-7.115l-1.344-2.474c-1.89-3.433-3.662-6.545-6.18-9.565-2.745-3.614-2.632-6.708-2.523-11.128 1.282-5.058 4.541-7.679 8.414-10.989 2.987-2.703 4.246-4.496 4.578-8.515l-.07-2.391-.055-2.422L605 340c-4.777-3.335-8.375-5.481-14.313-4.688l-2.425.489c-2.262.199-2.262.199-4.227-.903-2.093-1.19-2.093-1.19-4.613-.097-5.215 2.717-5.215 2.717-8.14 7.504-.055 4.136.385 6.195 2.718 9.695l-5-2-1 1a237.17 237.17 0 0 1-8 0h-3c-3.186 4.116-4.491 9.089-6 14h-2v-6l-8-1c2.388-2.766 4.653-3.822 8.063-5.063 3.829-1.382 3.829-1.382 6.937-3.937.46-2.203.46-2.203.625-4.625L557 340l-12-6-3 2c-2.563.25-2.563.25-5 0l-2-2c-2.437.27-2.437.27-5 1l-2.313.563L526 336c1.626-1.788 2.817-2.922 5.063-3.875 2.657-1.543 2.944-3.288 3.937-6.125 2-2 2-2 4.813-2.188 3.187.188 3.187.188 5.535.774 3.13.489 5.229.054 8.277-.774l2.852-.73c2.872-1.232 3.903-2.456 5.523-5.082z" fill="#fef8f8"/><path d="M612.027 495.324c9.874 5.566 18.27 14.878 21.5 25.903 2.129 12.49 1.098 24.444-6.277 35.023-6.839 8.385-14.833 13.829-25.25 16.75-9.563.813-18.471.884-27-4l-2.39-1.355c-9.701-5.991-15.63-14.543-18.922-25.457-2.33-11.218-.83-21.342 5.078-31.106 12.044-17.57 33.45-24.473 53.261-15.758z" fill="#fdfdfd"/><path d="M859 419h41v45c11.144-.04 11.144-.04 22.289-.09l4.176-.008 2.209-.015c1.776 0 3.551.05 5.326.113 8.253 8.253 1 23.329 1 35h-75v69h-1v-69h-17v-35h17v-45z" fill="#e82429"/><path d="M240 439c39.027 0 39.027 0 49 9 7.311 9.702 8.008 19.196 7 31-1.508 7.197-5.082 12.64-11 17-14.454 8.16-27.585 6-45 6v-63z" fill="#fefdfd"/><path d="M714 465h1v34h20v31l-11.625.188-3.631.082-2.908.023-2.952.048C711 530 711 530 708.15 528.514c-3.841-1.846-7.218-1.99-11.392-2.026l-2.329-.054c-2.434-.054-4.869-.088-7.304-.121-1.659-.034-3.318-.068-4.977-.104-4.049-.085-8.098-.152-12.148-.209-.23-1.232-.461-2.465-.7-3.734-2.701-13.933-6.412-25.099-14.628-36.868C653 483 653 483 652 481a100.644 100.644 0 0 1 6-3l2 1-2 2 2.422-.035A206.61 206.61 0 0 1 683 482l2-4h3l1-3 24-1z" fill="#fdf6f6"/><path d="M536 334l1 1c4.65-.448 4.65-.448 9-2 2.82 1.434 2.82 1.434 6.125 3.438l3.32 1.996L558 340c-.189 8.032-.189 8.032-2.938 11.313-4.202 2.315-8.56 4.043-13.062 5.687l7 2v6h2l.332-1.793c1.221-6.085 2.265-10.605 7.668-14.207l1 1c2.675.043 5.327.047 8 0h3c.028-1.15.028-1.15-.316-2.855-.277-2.62-.32-4.578.316-7.145 3.431-3.424 7.433-5.478 12-7l3 2c2.677.211 4.745.072 7.332-.66 4.363-.556 7.013 1.415 10.602 3.715 2.386 2.247 2.815 3.21 2.941 6.445-.543 4.394-1.98 7.1-4.875 10.5l-1.766 2.18c-4.973 5.659-4.973 5.659-8.46 6.105C589.624 363 589.624 363 586 362h-2c-.938 5.05-.938 5.05 0 10-.996 1.824-.996 1.824-2.438 3.688l-1.433 1.886L579 379l-2-4h-2l.098 1.957c-.134 10.868-5.169 19.591-10.098 29.043h-2l-2-7h-2l-.87-1.589a4066 4066 0 0 0-3.943-7.161l-1.369-2.5-1.338-2.422-1.221-2.222c-1.233-2.153-1.233-2.153-2.84-4.173-1.819-2.477-2.554-5.004-3.419-7.933l1-1c.161-3.065-.018-5.055-1-8l-3.375.625c-3.47.056-4.565-.576-7.313-2.816a204.818 204.818 0 0 1-5.21-5.524c-1.891-2.328-1.891-2.328-4.102-3.285v-2h-2c-.624-3.507-.858-6.521 0-10 3.83-3.736 8.624-7.192 14-5z" fill="#fefafa"/><path d="M652 337c10.72-.615 10.72-.615 15.25 1.563C669 341 669 341 668.813 344.313c-.195 3.625-.195 3.625 1.773 5.519a128.546 128.546 0 0 0 4.328 3.531C677 355 677 355 679.563 357.813c2.98 2.674 5.59 3.244 9.437 4.187 2 2 2 2 2.195 4.164l-.07 2.461-.055 2.477L691 373l-1.977-.098c-2.908.039-5.239.228-8.023 1.098-2.61 2.702-4.334 5.648-6 9h8c-3.674 4.008-7.143 6.526-12 9h-2l-.75 2.438c-1.51 4.305-3.352 8.416-5.25 12.562h2c.125 2.375.125 2.375 0 5l-2 2c-2.625-.375-2.625-.375-5-1-1.134-4.534-1.134-4.534-.44-6.953.767-3.569-1.428-6.52-3.06-9.61l-1.102-2.143c-3.126-5.987-6.614-11.7-10.398-17.294l-2-3c-2.195-.58-2.195-.58-4.625-.688l-2.477-.199L632 373l-.148-1.828-.227-2.422c-.07-.789-.14-1.578-.21-2.39-.835-4.75-3.126-7.306-6.54-10.61l-2.195-2.14L621 352c3 0 3 0 4.98 1.969l2.207 2.531c3.096 3.32 3.096 3.32 7.11 5.168 2.395.093 2.395.093 5.703-.668l2-2-5-1v-2l2.773-1.023 3.602-1.352 3.586-1.336c3.084-1.084 3.084-1.084 5.039-3.289.68-2.427.68-2.427 1.125-5.125l.508-2.758L655 339l-3-1v-1z" fill="#fef8f8"/><path d="M524 336l2 1-3 2c-.326 1.912-.326 1.912-.125 4 .211 3.828.211 3.828-.875 6h2v2l1.758.742c2.601 1.46 4.136 3.163 6.117 5.383 3.048 3.323 3.048 3.323 7.375 4.125L542 361c2.375 1.688 2.375 1.688 4 4 .25 2.563.25 2.563 0 5v3l-1 2-1-1c-4.066-.504-4.066-.504-8 0-3.555 3.267-4.473 5.975-4.707 10.771l-.043 2.041-.09 2.1c-.07 1.695-.117 3.392-.16 5.088h-2l-.875-1.938c-.953-2.214-.953-2.214-3.125-3.062l-.75 2.5c-.977 2.734-1.957 4.776-3.375 7.25-2.45 4.683-2.256 9.08-1.875 14.25-2.875.625-2.875.625-6 1l-2-2c.327-2.616.82-4.64 2-7a115.356 115.356 0 0 0-3.563-7.5l-1.114-2.185c-2.503-4.859-5.113-9.63-8.034-14.252-1.289-2.063-1.289-2.063-2.266-4-.935-1.92-.935-1.92-3.023-4.063-3.488-.704-6.764-.618-10 1-.618-8.036-.618-8.036 1.563-11.438 3.029-1.941 5.947-2.757 9.437-3.562l-2-1v-2c1.03-.49 1.03-.49 2.082-.988l2.73-1.325 2.708-1.3c2.314-1.294 3.86-2.304 5.48-4.387l.438-3.438c.562-3.562.562-3.562 2-6 3.496-2.131 6.303-1.825 10.32-1.605 2.28.217 2.28.217 4.242-.957z" fill="#fef7f7"/><path d="M860 419h40v46h-40v-46z" fill="#020000"/><path d="M562 318l1.893.492c4.286.7 8.49.65 12.826.64l2.835.004c1.973 0 3.947-.001 5.92-.006 3.015-.005 6.03 0 9.046.007 1.92 0 3.84-.002 5.761-.004l2.725.006c3.458-.013 6.584-.052 9.976-.772L615 318c2 2 2 2 2 5l1.723.184c3.774.41 7.528.84 11.277 1.441l3 .375 1-1c5.276-.459 5.276-.459 7.875 1.188 1.473 2.372 1.347 4.071 1.125 6.812l2.813.813c2.95 1.098 4.243 1.811 6.187 4.187l-2.75-.938L646 335l-2.188-.75c-2.154-.501-2.154-.501-4.812 1.75-3.757.376-4.754.164-8-2l-2.875 1.563L625 337l-2-1 3.438-1.688c3.117-1.734 3.117-1.734 4.5-5.062L631 327c-2.333-.34-4.666-.672-7-1l-2.21-.324A166.44 166.44 0 0 0 616 325l-1 1c-2.428.131-4.459.182-6.777-.598-3.11-.562-5.44.212-8.473 1.036l-3.266.87L594 328c.375 2.511.584 3.676 2.629 5.266l1.933.984L602 336l-2 1-1.813-.969c-2.732-1.288-4.232-1-7.187-.531-4.593.728-4.593.728-6.984-.613-2.077-1.177-2.077-1.177-4.594-.086-5.215 2.717-5.215 2.717-8.14 7.504-.055 4.136.385 6.195 2.718 9.695l-5-2-1 1a237.17 237.17 0 0 1-8 0h-3c-3.186 4.116-4.491 9.089-6 14h-2v-6l-8-1c2.388-2.766 4.653-3.822 8.063-5.063 3.829-1.382 3.829-1.382 6.937-3.937.46-2.203.46-2.203.625-4.625L557 340l-12-6-3 2c-2.563.25-2.563.25-5 0l-2-2c-2.437.27-2.437.27-5 1l-2.313.563L526 336c1.626-1.788 2.817-2.922 5.063-3.875 2.657-1.543 2.944-3.288 3.937-6.125 2-2 2-2 4.813-2.188 3.187.188 3.187.188 5.535.774 3.13.489 5.229.054 8.277-.774l2.852-.73c2.872-1.232 3.903-2.456 5.523-5.082z" fill="#f67376"/><path d="M523 562a61.29 61.29 0 0 1 4.125 7.188l1.07 2.167L529 573l-1.934 1.004c-2.894 1.802-4.91 3.334-7.066 5.996-1.09 5.055-1.166 9.848-1 15h-1l-1-7-2.375 2.5C512 593 512 593 510 593v7l-2.414-.176c-7.145-.52-7.145-.52-13.211 2.676L492 605h-2v-34h2l1.438 2.438c1.362 2.854 1.362 2.854 4.562 3.562 6.132.906 11.72 1.658 16.922-2.125 4.625-4.748 4.625-4.748 6.078-10.875h2v-2z" fill="#f7e9e9"/><path d="M678 644l1 4h-5l1 1.563c1.375 3.351 1.385 5.847 1 9.437-1.867 2.365-3.32 3.66-6 5-1.54.07-3.083.085-4.625.063l-2.477-.028L661 664v3l2.668.113 3.52.2 3.48.175c3.524.541 5.53 1.332 8.332 3.512.563 2.938.563 2.938 0 6-2.494 3.325-5 4.957-9 6-5.062.56-8.906.471-13.625-1.563C654 679 654 679 653.5 675.438 654 672 654 672 656 669c.167-2.5.167-2.5 0-5v-3l-1-1c-.238-1.926-.238-1.926-.313-4.313l-.113-2.363c.601-3.281 1.767-4.346 4.426-6.324 3.164-.793 3.164-.793 6.625-1.188 4.32-.519 8.103-1.812 12.375-1.812zM306 643l2 4-4 1 1 1.625c1.29 3.062 1.404 5.074 1 8.375-2.15 3.338-3.204 4.735-7 6a81.355 81.355 0 0 1-4.688.063l-2.449-.028L290 664l1 2c3.143.716 6.271 1.262 9.453 1.768 2.875.506 5.122.915 7.488 2.681C309 672 309 672 309.563 674.375c-.86 4.007-3.308 5.328-6.563 7.625-5.505 1.835-11.035 1.586-16.563-.063C284 680 284 680 282.938 676.563c.07-3.954.64-4.654 3.063-7.562.25-2.542.25-2.542 0-5v-3l-2-3c-.588-3.865-.32-5.502 1.813-8.813 3.976-2.728 6.795-2.73 11.515-2.94 3.537-.327 5.687-1.391 8.672-3.247z" fill="#0f0f0f"/><path d="M631 333l3 2c3.542-.316 6.626-.875 10-2 2.7 1.215 2.7 1.215 5.688 2.938l3.011 1.714L655 339c-.188 8.944-.188 8.944-2.875 12.438-4.52 2.26-9.216 3.427-14.125 4.562v2h6c-1 2-1 2-3 4-3.518.864-4.688 1.137-8 0-2.893-2.386-5.378-4.94-7.898-7.715-1.891-2.328-1.891-2.328-4.102-3.285v-2h-2c.365-7.184.365-7.184 3.188-10.813 2.822-2.195 5.547-3.744 8.812-5.187z" fill="#fefdfd"/><path d="M563.93 324.773c2.141.354 2.141.354 4.465-.355 3.353-.538 5.284.274 8.418 1.52l2.957 1.152 2.23.91c.625 2.625.625 2.625 0 6-2.227 1.418-2.227 1.418-5 2.813-3.824 1.895-3.824 1.895-5.734 5.46-.027 4.149.393 6.215 2.734 9.727l-5-2-1 1a237.17 237.17 0 0 1-8 0h-3c-3.186 4.116-4.491 9.089-6 14h-2v-6l-8-1c2.388-2.766 4.653-3.822 8.063-5.062 3.829-1.383 3.829-1.383 6.937-3.938.46-2.203.46-2.203.625-4.625l.227-2.477L557 340l-3.25-1.75c-3.054-1.766-5.59-3.398-7.75-6.25-.098-2.629-.098-2.629 0-5 6.23-2.06 11.407-3.491 17.93-2.227z" fill="#fef5f5"/><path d="M402 633h5v39h-8l-2.086.176c-4.431.264-6.277.315-9.914-2.489-3.19-4.286-3.708-8.465-3-13.687 1.559-3.966 3.403-6.602 7-9 3.684-.267 7.301-.087 11 0v-14z" fill="#070707"/><path d="M612.965 324.738c2.107.39 2.107.39 4.426-.285 3.223-.56 5.305.046 8.422.984l2.957.872L631 327v5l-3.312 1.687c-3.421 1.98-5.087 3.605-6.688 7.313a172.633 172.633 0 0 0-1 4.187C619 349 619 349 616 351c-2.375.195-2.375.195-5 .125l-2.625-.055L606 351h-3l2-2c.629-3.077.614-5.921 0-9-2.754-2.946-5.352-4.648-8.875-6.563L594 332v-4c11.99-4.727 11.99-4.727 18.965-3.262z" fill="#fef8f8"/><path d="M582 647h17c5.929 5.929 5.929 5.929 6.25 10.75-.086 5.287-1.857 8.646-5.313 12.625-4.393 2.43-7.96 1.89-12.937 1.625v10h-5v-35z" fill="#0e0e0e"/><path d="M155 647c3.191 1.758 4.465 3.149 6.375 6.188 1.147 5.161.46 9.944-1.688 14.75-2.34 2.86-4.43 3.886-8.09 4.398-4.202.065-6.872.072-10.597-2.024-3.592-4.153-4.46-7.788-4.324-13.316.54-3.327 2.205-5.453 4.324-7.996 4.46-2.973 8.77-2.62 14-2z" fill="#111"/><path d="M743 647c2.897 2.202 4.393 3.786 6 7 1.09 10.538 1.09 10.538-2.375 15.188-4.811 3.321-8.858 3.484-14.625 2.812-3.395-2.051-4.803-3.705-7-7-.652-4.374-1.034-9.013 1.05-13.02 4.75-5.757 9.862-5.921 16.95-4.98z" fill="#0e0e0e"/><path d="M366.188 646.625c3.934.02 6.374.204 9.437 2.75 3.72 4.111 3.66 6.765 3.59 12.148-.379 4.367-2.074 6.474-5.277 9.29-4.326 1.748-8.343 2.017-12.938 1.187-2.824-2.19-4.415-3.83-6-7-1.053-10.183-1.053-10.183 1.082-13.867 1.356-1.32 1.356-1.32 3.918-3.133 1.71-1.71 3.85-1.293 6.188-1.375z" fill="#0d0d0d"/><path d="M888 647c2.897 2.202 4.393 3.786 6 7 .42 4.57.561 8.681-1.25 12.938-2.499 2.945-4.486 4.798-8.336 5.601-7.1.219-7.1.219-10.465-1.723-3.427-3.41-4.375-6.596-4.636-11.379.29-5.428 1.698-7.828 5.687-11.437 3.954-1.977 8.701-1.57 13-1zM817 647c2.897 2.202 4.393 3.786 6 7 .42 4.57.561 8.681-1.25 12.938-2.499 2.945-4.486 4.798-8.336 5.601-7.1.219-7.1.219-10.465-1.723-3.427-3.41-4.375-6.596-4.636-11.379.29-5.428 1.698-7.828 5.687-11.437 3.954-1.977 8.701-1.57 13-1z" fill="#0c0c0c"/><path d="M518.547 483.902l2.558.01 2.645.026 2.691.013c2.187.012 4.373.028 6.559.049l-.895 1.773a257.79 257.79 0 0 0-2.793 5.852c-1.763 3.112-2.078 3.303-5.75 4.438L520 497l-2.227 3.022c-2.24 2.828-2.62 2.95-6.462 3.66-1.412-.002-2.825-.035-4.237-.096l-2.265-.026a392.624 392.624 0 0 1-7.122-.185c-1.615-.03-3.23-.057-4.845-.082A811.86 811.86 0 0 1 481 503v-2c-4.639-1.789-8.627-2.295-13.586-2.414l-2.127-.059a1132.6 1132.6 0 0 0-6.662-.152 4078.69 4078.69 0 0 1-4.543-.117c-3.694-.096-7.388-.18-11.082-.258l1-2c4.805-.025 9.611-.043 14.417-.055 1.635-.005 3.27-.012 4.906-.02 2.348-.013 4.696-.018 7.044-.023l2.223-.015c5.182 0 5.182 0 7.41 1.113 2.178.086 4.36.107 6.54.098l3.944-.01 4.141-.025c1.388-.006 2.776-.01 4.164-.014 3.404-.012 6.807-.028 10.211-.049l.898-1.89c1.122-2.148 2.321-3.491 4.102-5.11l-2.938-.375L508 489l-1-2h4l-1-2c2.925-.842 5.507-1.118 8.547-1.098z" fill="#f5cece"/><path d="M789 647c1.657 1.232 1.657 1.232 3 3 .34 2.36.34 2.36.293 5.105l-.03 2.979c-.024 1.024-.05 2.048-.076 3.104l-.04 3.138A744.085 744.085 0 0 1 792 672h-5l-1-20h-8l-1 20h-5l-1-21-10 1v20h-5v-25l8.813-.063 2.764-.027 2.193-.008 2.237-.016C774 647 774 647 777 648l2.813-1c3.618-1.135 5.568-1.046 9.187 0z" fill="#151515"/><path d="M714 465h1v34h4l-1 2-14-1v-1h10v-11h-23v-1h23v-6c-3.732.22-7.46.482-11.188.75l-3.197.188-3.095.234-2.841.19c-2.84.466-2.84.466-5.11 2.665-3.275 2.515-5.096 2.438-9.182 2.364l-3.78-.04-3.92-.101-3.978-.055A888.14 888.14 0 0 1 658 487l-1 2-5-8a100.644 100.644 0 0 1 6-3l2 1-2 2 2.422-.035A206.61 206.61 0 0 1 683 482l2-4h3l1-3 24-1z" fill="#f4dfe0"/><path d="M898 647h5a9042218463003166 9042218463003166 0 0 1 3.125 8.984C907 659 907 659 907 663h2l.367-1.977c.922-4.81 1.935-9.413 3.633-14.023h6c.672 2.103 1.337 4.207 2 6.313l1.125 3.55C923 660 923 660 923 663h2l.375-2.438c.74-4.22 1.669-8.385 2.625-12.562l5-1c-.641 5.494-1.904 10.585-3.5 15.875l-.684 2.336c-1.682 5.655-1.682 5.655-2.816 6.789h-5l-5-18-6 18-5-1a3135.54 3135.54 0 0 1-3.5-10.313l-1.012-2.958-.957-2.842-.888-2.619C898 650 898 650 898 647z" fill="#111"/><path d="M431 647c2.531 2.199 3.85 3.918 4.317 7.284.077 2.687.032 5.342-.067 8.028l-.055 2.823c-.047 2.29-.112 4.577-.195 6.865h-5v-2l-1.715.98c-2.472 1.103-4.156 1.319-6.848 1.332l-2.316.051c-2.653-.454-3.514-1.236-5.121-3.363-.5-2.875-.5-2.875 0-6 2.088-2.61 3.783-4.473 6.875-5.813 3.048-.268 6.068-.246 9.125-.187l-2-5c-4.161-.082-7.947.018-12 1v-4c4.998-3.332 9.18-3.481 15-2z" fill="#121212"/><path d="M504.813 634.75l3.144-.078c3.405.367 5.267 1.378 8.043 3.328l-1 4-3-1c-4.13-1.178-7.715-1.29-12-1-2.244 1.81-2.244 1.81-2.188 4.375 1.688 3.731 4.07 4.196 7.762 5.656 4.654 1.859 8.59 3.715 11.426 7.969.34 3.017.572 5.094 0 8-2.176 2.691-3.91 4.455-7 6-13.238.95-13.238.95-19-3l2-4 2.5 1c4.793 1.37 9.242 1.903 14 0l1.5-1c.334-2.374.334-2.374 0-5-2.74-2.495-5.46-3.639-8.938-4.813-4.947-1.922-7.32-3.618-10.062-8.187-.625-3.063-.625-3.063 0-6 4.148-4.912 6.52-6.157 12.813-6.25z" fill="#0c0c0c"/><path d="M203 646.688l3.188-.051c2.812.363 2.812.363 4.47 1.567 1.8 2.408 1.687 3.915 1.635 6.901l-.03 2.979c-.024 1.024-.05 2.048-.076 3.104l-.04 3.138A744.085 744.085 0 0 1 212 672h-4v-2l-1.719.977c-3.71 1.664-7.294 1.607-11.281 1.023-2.625-1.625-2.625-1.625-4-4-.063-3-.063-3 1-6 5.153-4.889 8.19-5.11 15-5l-1-5c-6.084-.198-6.084-.198-12 1v-4c3.447-2.298 4.933-2.298 9-2.313zM564 646.688l3.188-.051c2.812.363 2.812.363 4.47 1.567 1.8 2.408 1.687 3.915 1.635 6.901l-.03 2.979c-.024 1.024-.05 2.048-.076 3.104l-.04 3.138A744.085 744.085 0 0 1 573 672h-4v-2l-1.715.984c-2.486 1.105-4.145 1.284-6.847 1.266l-2.317.016C556 672 556 672 553 670c-.398-3.081-.637-5.05 0-8 2.593-2.733 4.44-3.813 8-5 2.333-.04 4.667-.044 7 0l-1-5c-6.084-.198-6.084-.198-12 1v-4c3.447-2.298 4.933-2.298 9-2.313z" fill="#101010"/><path d="M562 318c2.375.25 2.375.25 5 1l.875 2 1.125 2c3.275.695 3.275.695 7 1 2.366.582 4.669 1.286 7 2l2-2c5.333-.333 5.333-.333 8 1v2l2 1v4l7 4-2 1-1.813-.973c-3.366-1.58-6.182-.638-9.75-.023C586 336 586 336 583.688 334.84 582 333 582 333 581.75 330.313L582 328c-6.23-2.06-11.407-3.491-17.93-2.227-2.07.227-2.07.227-4.465-.293-3.09-.57-5.35-.17-8.418.457l-2.957.59L546 327c.62 3.683 1.067 5.577 4 8l-2.313-.625c-2.906-.709-2.906-.709-5.687 1.625-2.563.25-2.563.25-5 0l-2-2c-2.437.27-2.437.27-5 1l-2.313.563L526 336c1.626-1.788 2.817-2.922 5.063-3.875 2.657-1.543 2.944-3.288 3.937-6.125 2-2 2-2 4.813-2.188 3.187.188 3.187.188 5.535.774 3.13.489 5.229.054 8.277-.774l2.852-.73c2.872-1.232 3.903-2.456 5.523-5.082z" fill="#f86064"/><path d="M525 633h4v16l4-2c2.473-.3 2.473-.3 5.063-.313l2.597-.05c2.884.447 3.585 1.065 5.34 3.363.34 2.36.34 2.36.293 5.105l-.03 2.979c-.024 1.024-.05 2.048-.076 3.104l-.04 3.138A744.085 744.085 0 0 1 546 672h-5l-1-20h-9l-1 20h-5v-39z" fill="#0e0e0e"/><path d="M643 414h1l.184 3.648.254 4.727.119 2.406c.132 4.245.132 4.245 1.443 8.219.155 2.177.25 4.358.316 6.54l.127 3.944.12 4.141.13 4.164c.107 3.404.209 6.807.307 10.211h-3c-1.678 1.534-1.678 1.534-3.188 3.5l-1.605 1.969L638 469l-8-4 3-2c.417-2.715.417-2.715.293-5.883l-.03-3.535c-.024-1.223-.05-2.447-.076-3.707l-.04-3.73c-.036-3.05-.085-6.097-.147-9.145h2l1 21 1-25h1l1 14v-31h1v24h2z" fill="#f6d6d6"/><path d="M696 635h31v5h-13v32h-5v-32h-13v-5z" fill="#0f0f0f"/><path d="M439 647h5c2.553 5.6 4.897 11.216 7 17l.77-1.941c2.01-5.051 4.063-10.074 6.23-15.059h5c-1.864 6.689-4.081 13.222-6.438 19.75l-.873 2.472c-1.728 4.728-3.439 8.897-6.689 12.778-2.36.805-2.36.805-4.75.875l-2.422.117L440 683v-4l2.875-.313c3.416-.372 3.416-.372 5.125-3.687-.274-5.769-2.868-10.989-5.063-16.25-.743-1.796-1.484-3.592-2.222-5.39l-.996-2.392C439 649 439 649 439 647z" fill="#101010"/><path d="M326 635h30v5h-12v32h-5v-32h-13v-5z" fill="#121212"/><path d="M714 481v6h-23l-1 3c-3.063 1.188-3.063 1.188-6 2v1c-3.958.087-7.916.14-11.875.188l-3.418.076-3.262.029-3.015.048L660 493c-2-3-2-3-2-6l2.491-.028c3.733-.054 7.464-.138 11.197-.222l3.92-.043 3.779-.098 3.475-.063c3.74-.65 5.319-2.083 8.138-4.546 3.234-.61 3.234-.61 6.75-.75l3.71-.168c4.186-.097 8.354-.154 12.54-.082z" fill="#fefdfd"/><path d="M255 647h8l2.375-.07 2.625-.055 2.625-.07C273 647 273 647 276 649c.96 2.883 1.117 4.677 1.098 7.668l-.01 2.705-.026 2.814-.013 2.85c-.012 2.321-.028 4.642-.049 6.963h-5l-.076-1.728c-.116-2.57-.238-5.14-.361-7.71l-.12-2.72-.127-2.588-.11-2.396c-.012-1.872-.012-1.872-1.206-2.858h-10v20h-5v-25z" fill="#131313"/><path d="M109 647h8l2.375-.105 2.625-.082 2.625-.106C127 647 127 647 128.63 648.199c1.834 2.411 1.715 3.9 1.663 6.906l-.03 2.979c-.024 1.024-.05 2.048-.076 3.104l-.04 3.138A744.085 744.085 0 0 1 130 672h-5l-1-20h-10v20h-5v-25zM79 647h8l2.375-.105 2.625-.082 2.625-.106C97 647 97 647 98.63 648.199c1.834 2.411 1.715 3.9 1.663 6.906l-.03 2.979c-.024 1.024-.05 2.048-.076 3.104l-.04 3.138A744.085 744.085 0 0 1 100 672h-5l-1-20H84v20h-5v-25z" fill="#0c0c0c"/><path d="M626 647l8.813-.188 2.764-.082 2.193-.023 2.237-.048c1.993.341 1.993.341 3.74 1.54 1.681 2.416 1.597 3.979 1.546 6.906l-.03 2.979c-.024 1.024-.05 2.048-.076 3.104l-.04 3.138A744.085 744.085 0 0 1 647 672h-5l-1-20h-9l-1 20h-5v-25z" fill="#0e0e0e"/><path d="M652 337c10.672-.613 10.672-.613 15.25 1.5 2.55 3.644 2.115 6.116 1.75 10.5-3.644 2.332-6.753 2.232-11 2l-3-1c-4.138 4.433-5.955 9.399-8 15l-2-1v-4l-7-2v-2l2.773-1.023 3.602-1.352 3.586-1.336c3.084-1.084 3.084-1.084 5.039-3.289.68-2.427.68-2.427 1.125-5.125l.508-2.758L655 339l-3-1v-1z" fill="#f6484c"/><path d="M524 336l2 1-3 2c.032 2.008.067 4.016.133 6.023C523 347 523 347 521.437 349.5c-3.325 2.046-5.6 1.919-9.437 1.5l-3-2c-2.153 5.288-4.28 10.551-6 16l-2-1v-6l-1.813.563C497 359 497 359 494 358v-2c1.03-.49 1.03-.49 2.082-.988l2.73-1.325 2.708-1.3c2.314-1.294 3.86-2.304 5.48-4.387l.438-3.438c.562-3.562.562-3.562 2-6 3.496-2.131 6.303-1.825 10.32-1.605 2.28.217 2.28.217 4.242-.957z" fill="#f6484d"/><path d="M573 338l-1 2c-.197 2.11-.197 2.11-.188 4.438l-.042 2.37c.09 2.484.09 2.484 2.23 5.192l-5-2-1 1a237.17 237.17 0 0 1-8 0h-3c-3.186 4.116-4.491 9.089-6 14h-2v-6l-8-1c2.388-2.766 4.653-3.822 8.063-5.063 3.829-1.382 3.829-1.382 6.937-3.937.304-2.567.378-5.105.46-7.688.54-2.312.54-2.312 2.4-3.613 4.708-1.538 9.374-.607 14.14.301z" fill="#f6484c"/><path d="M222 641h5v6h8v4h-8l1 16 7 1-1 4c-1.436.108-2.874.186-4.313.25l-2.425.14C225 672 225 672 223.219 670.532c-1.805-3.747-1.539-7.183-1.406-11.281l.04-2.402c.036-1.95.09-3.899.147-5.848h-5v-4h5v-6z" fill="#0a0a0a"/><path d="M164 647h6l1.277 3.465 1.66 4.472.842 2.288c1.139 3.663 1.139 3.663 3.221 6.775l6-17h5c-.596 5.77-2.77 10.617-5.063 15.875l-1.142 2.664A1306.92 1306.92 0 0 1 179 672h-5l-10-25z" fill="#0f0f0f"/><path d="M64 635h6v37h-6v-37z" fill="#222"/><g fill="#f9f9f9"><path d="M882 650.625l2.063-.023c2.562.526 3.422 1.275 4.937 3.398.398 2.34.398 2.34.375 4.938l.023 2.59c-.48 2.98-1.264 4.348-3.398 6.472-2.747.803-5.222.648-8 0-2.96-2.868-3.207-5.666-3.375-9.625-.028-2.689.055-3.936 1.648-6.125 2.075-1.502 3.186-1.654 5.727-1.625zM811 650.625l2.063-.023c2.562.526 3.422 1.275 4.937 3.398.398 2.34.398 2.34.375 4.938l.023 2.59c-.48 2.98-1.264 4.348-3.398 6.472-2.747.803-5.222.648-8 0-2.96-2.868-3.207-5.666-3.375-9.625-.028-2.689.055-3.936 1.648-6.125 2.075-1.502 3.186-1.654 5.727-1.625zM369.125 650.66C371 651 371 651 373 652.5c1.883 4.708 1.56 8.817 0 13.5-2.66 2.66-4.42 2.56-8.063 2.566-2.79-.815-3.538-2.06-4.937-4.566-.398-2.473-.398-2.473-.375-5.063l-.023-2.597c.398-2.34.398-2.34 1.671-4.121 2.629-1.856 4.721-1.703 7.852-1.559z"/></g><path d="M151.063 650.566c2.562.574 3.43 1.284 4.937 3.434.398 2.594.398 2.594.375 5.5l.023 2.906C156 665 156 665 154.691 666.816c-2.878 2.015-5.308 1.6-8.691 1.184-2.438-1.438-2.438-1.438-4-4-.663-4.106-.515-7.68 1-11.563 2.704-1.943 4.797-1.877 8.063-1.87z" fill="#f7f7f7"/><path d="M739.063 650.566c2.543.57 3.424 1.318 4.937 3.434.398 2.34.398 2.34.375 4.937l.023 2.59c-.48 2.981-1.264 4.349-3.398 6.473-2.746.803-5.224.653-8 0-2.755-2.755-3.192-5.3-3.375-9.063C730 655 730 655 731 652.5c2.702-2.026 4.757-1.94 8.063-1.934z" fill="#fafafa"/><path d="M518.547 483.902l2.558.01 2.645.026 2.691.013c2.187.012 4.373.028 6.559.049l-.93 1.828a77.52 77.52 0 0 0-2.195 4.922C528 493 528 493 526.027 493.316c-2.012-.003-4.022-.152-6.027-.316l-2 4h-3c-1.671.31-3.339.64-5 1 0-4 0-4 2-6.25l2-1.75-2.938-.375L508 489l-1-2h4l-1-2c2.925-.842 5.507-1.118 8.547-1.098z" fill="#fbeff0"/><path d="M397.75 649.563C401 650 401 650 402 651c.073 2.697.092 5.367.063 8.063l-.014 2.298c-.012 1.88-.03 3.76-.049 5.639-3.092 1.546-5.594 1.294-9 1-2.438-1.5-2.438-1.5-4-4-.676-4.657-.713-7.621 2.063-11.5C394 650 394 650 397.75 649.562z" fill="#f4f4f4"/><path d="M593 650.813l2.125-.043C597 651 597 651 599 653c.3 2.46.3 2.46.313 5.375l.05 2.898c-.423 3.175-1.03 4.539-3.363 6.727-3.082.532-5.85.183-9 0v-16c2.229-1.114 3.53-1.165 6-1.188z" fill="#fcfcfc"/><path d="M664 562l1 2h2v2l1.938.938C671 568 671 568 672 569l2-2 1 3h3v2c3.238 1.08 5.578 1.114 8.98 1.098l3.526-.01 3.681-.025 3.717-.014c3.032-.012 6.064-.028 9.096-.049l1 2-1.697-.016c-2.538-.02-5.077-.034-7.615-.046l-2.67-.026-2.569-.01-2.364-.016c-2.281.033-2.281.033-5.085 1.114a99.485 99.485 0 0 1-5 0l1 2-4 2 2 3c-.023 3.355-.023 3.355-.375 7.188l-.336 3.855L679 597h-1l.063-3c.047-7.76.047-7.76-2.91-14.777-1.966-1.917-3.92-3.63-6.153-5.223l1-2-5-1v-2l-4 1c1.875-5.75 1.875-5.75 3-8z" fill="#f3cfd0"/><path d="M616 337c2.438 1.063 2.438 1.063 4 3 .555 3.819.534 6.054-1.375 9.438-4.066 2.42-8.014 1.84-12.625 1.562h-3l2-2c.243-2.44.243-2.44.125-5.125l-.055-2.758L605 339c3.84-2.113 6.59-2.394 11-2z" fill="#f64549"/><path d="M830 647h5l1 2 2-2c3.625-.125 3.625-.125 7 0v5l-2.813-.125c-3.345-.146-3.345-.146-6.187 2.125-.505 1.924-.505 1.924-.512 4.133l-.107 2.441-.069 2.551-.103 2.574c-.083 2.1-.147 4.2-.209 6.301h-5v-25z" fill="#0c0c0c"/><path d="M852 647h4l1 2 2-2c2.688-.27 5.291-.087 8 0l-1 5-2.875-.125c-3.227-.225-3.227-.225-5.125 2.125-.368 1.933-.368 1.933-.414 4.133l-.117 2.441-.094 2.551-.117 2.574c-.095 2.1-.177 4.2-.258 6.301h-5v-25z" fill="#141414"/><path d="M531 379v15h-2l-.875-1.938c-.953-2.214-.953-2.214-3.125-3.062l-.75 2.5c-.977 2.734-1.957 4.776-3.375 7.25-2.45 4.683-2.256 9.08-1.875 14.25-2.875.625-2.875.625-6 1l-2-2c.327-2.616.82-4.64 2-7a75.68 75.68 0 0 0-1-5l4 5 7-15-3-2a948.854 948.854 0 0 1 3.313-3.375l1.863-1.898C529.113 379 529.113 379 531 379z" fill="#f2676b"/><path d="M699 387l1.32 1.137 1.805 1.55 1.918 1.653a239.513 239.513 0 0 0 5.394 4.41L712 398v2c-5.75-.875-5.75-.875-8-2 1.142 2.8 2.328 5.473 4 8 2.615 1.128 2.615 1.128 5 1 .625 2.375.625 2.375 1 5l-2 2c-2.625-.375-2.625-.375-5-1l-.875-3.188c-.897-3.04-1.89-5.9-3.125-8.812l-5 4c-.097-6.115.23-11.933 1-18z" fill="#ed2b30"/><path d="M627 379l1 2-1 2c-.274 2.853-.446 5.706-.621 8.566L626 394l-2 1-1-3-2-1-.813 2.625C619 397 619 397 617.375 399.75c-1.887 4.46-1.63 8.474-1.375 13.25-4.75 1.125-4.75 1.125-7 0-.125-5.75-.125-5.75 1-8l-1-1.938C608 401 608 401 609 398l4 7 7-15-5-1c3.7-3.925 7.55-6.946 12-10z" fill="#f66568"/><path d="M599 414l2 1c-.01.929-.02 1.857-.032 2.814-.034 3.44-.059 6.88-.078 10.32-.01 1.49-.024 2.98-.04 4.47-.025 2.14-.036 4.28-.045 6.42l-.032 3.903c-.101 3.18-.101 3.18 2.227 5.073l1-21h2v11l2-1-.96 1.64c-1.223 2.776-1.45 5.092-1.665 8.11l-.227 2.984L605 452h-3l-1 2c-3.706-3.234-5.731-5.261-6.495-10.203-.095-3.76-.028-7.476.12-11.235l.082-3.95c.07-3.206.169-6.408.293-9.612h1l1 11h2v-16z" fill="#f2babb"/><path d="M649 453h1l1 7 5-1v3h2c-1.438 3.738-3.848 5.911-6.758 8.535-1.565 1.526-1.565 1.526-1.242 4.465l-2 3-8-7c5.75-6.75 5.75-6.75 8-9 .46-2.203.46-2.203.625-4.625l.227-2.477L649 453z" fill="#fefefe"/><path d="M524 351c3.451 1.457 5.396 3.348 7.875 6.125 3.048 3.323 3.048 3.323 7.375 4.125L542 361c2.375 1.688 2.375 1.688 4 4 .25 2.563.25 2.563 0 5v3l-1 2-1-1c-5.876-.463-5.876-.463-11 2l.5-2.5.5-3.5.688-3.75c.019-3.328-.745-4.318-2.918-6.95a185.175 185.175 0 0 0-5.582-5.296L524 352v-1z" fill="#f86265"/><path d="M669 349c3.62 1.504 5.686 3.626 8.313 6.5 3.867 3.989 6.293 5.51 11.687 6.5 2 2 2 2 2.195 4.164L691 373l-11 1c-1.145-8.653-1.145-8.653-.188-10.941L680 361a56.249 56.249 0 0 0-5.438-5.688A555.35 555.35 0 0 1 669 350v-1z" fill="#f86669"/><path d="M621 351c3.454 1.452 5.313 3.315 7.75 6.125 2.804 2.948 2.804 2.948 6.477 4.434 2.846.005 5.213-.279 7.773-1.559.054 1.583.093 3.166.125 4.75l.07 2.672C643 370 643 370 641 374l-9-1-.586-6.64c-.834-4.753-3.103-7.265-6.539-10.548A187.721 187.721 0 0 1 621 352v-1z" fill="#f86569"/><path d="M608 322c-3.162 1.732-6.267 2.713-9.75 3.625-.985.26-1.97.52-2.984.79-.748.192-1.496.386-2.266.585v-2l-3.813-.125-2.144-.07c-2.357.062-2.357.062-5.043 2.195-3.137-.68-3.137-.68-6.688-1.875l-3.574-1.18L569 323c11.234-6.034 27.047-3.224 39-1z" fill="#fef7f7"/><path d="M491 575l2.813 1.438c4.875 2.126 9.932 2.286 15.187 2.562a498.814 498.814 0 0 1-3.516 3.488 61.263 61.263 0 0 0-2.906 3.18l-1.453 1.644-1.305 1.551C498 590 498 590 491 590v-15z" fill="#fefefe"/><path d="M507 453c4.053 1.225 7.444 2.699 11 5v-4h2v6l2 .563c5.092 2.44 9.032 6.47 13 10.437 2.433.462 2.433.462 5.125.625l2.758.227L545 472c-1.5 2.063-1.5 2.063-4 4-3.532.365-4.855.392-8-1-2.489-2.275-4.71-4.729-6.992-7.21-5.279-5.28-12.435-8.414-19.008-11.79v-3z" fill="#f2cecf"/><path d="M589 420l3 2c.337 2.487.337 2.487.3 5.602.01 1.13.018 2.26.026 3.425-.009 2.375-.03 4.75-.062 7.125.086 8.017 1.223 11.949 6.736 17.848h-15l2-4h2l-.5-1.563c-.65-3.17-.562-6.21-.5-9.437l3-1-1-2h2c-.14-2.438-.288-4.875-.438-7.313l-.119-2.091c-.192-3.068-.466-5.666-1.443-8.596z" fill="#f7d9da"/><path d="M583 361c7.322-.36 7.322-.36 10 1.063 1.563 3.027 1.303 5.6 1 8.937-2.398 2.398-3.333 2.343-6.625 2.625l-2.477.227L583 374a380.414 380.414 0 0 1-.563-4.25l-.316-2.39c-.121-2.365.183-4.111.879-6.36z" fill="#f23a3e"/><path d="M612 647h5v25h-5v-25z" fill="#0f0f0f"/><path d="M495 361c2.449 3.673 2.315 5.664 2 10-2 2-2 2-3.875 2.16l-2.125-.098c-3.118-.158-3.118-.158-6 .938-.617-8.026-.617-8.026 1.625-11.563 3.045-1.842 4.876-1.97 8.375-1.437z" fill="#f23b3f"/><path d="M670 376h2l1 5h2v2h8c-3.674 4.008-7.143 6.526-12 9h-2l-.813 2.625c-1.158 3.293-2.57 6.286-4.187 9.375l-1-3 1.75-3.125c3.608-6.64 4.144-14.5 5.25-21.875z" fill="#ef3b3f"/><path d="M568 418c2.927 2.927 2.336 6.04 2.379 9.965l.051 2.391c.054 2.527.094 5.054.133 7.581.043 2.524.09 5.048.142 7.571.032 1.572.06 3.143.08 4.715.06 3.175.204 5.744 1.215 8.777-1.938-.313-1.938-.313-4-1-1.248-3.744-1.143-7.233-1.133-11.133l-.003-2.401c0-1.673.001-3.346.006-5.018.005-2.57 0-5.14-.007-7.71 0-1.623.002-3.247.004-4.87l-.006-2.343c.024-5.41.024-5.41 1.139-6.525z" fill="#fefefe"/><path d="M669 464h2v3l4-1c.625 1.813.625 1.813 1 4l-2 3 2 2c-5.373 3.394-9.87 3.327-16 3l1-3 3-1v-3a101.46 101.46 0 0 1 3-3c1.176-2.1 1.176-2.1 2-4z" fill="#f6d4d4"/><path d="M668 650l3 2c.25 3.563.25 3.563 0 7-1.589 1.589-3.248 1.17-5.438 1.188l-2.433.042C661 660 661 660 659 658c-.36-2.81-.383-4.382 1.125-6.813 2.72-1.722 4.72-1.516 7.875-1.187z" fill="#f3f3f3"/><path d="M663.125 670.813c4.047.195 7.051.938 10.875 2.187-.573 2.867-.861 3.861-3 6-2.023.266-2.023.266-4.375.25l-2.336.016c-2.488-.29-4.131-1.025-6.289-2.266 1.067-5.944 1.067-5.944 5.125-6.188z" fill="#f1f1f1"/><path d="M298 650c1.875 1.188 1.875 1.188 3 3 .313 2.563.313 2.563 0 5-2 2-2 2-3.875 2.266L295 660.25l-2.125.016C291 660 291 660 289 658c-.313-3-.313-3 0-6 3.47-2.313 4.922-2.425 9-2z" fill="#f6f6f6"/><path d="M504 464l8 2v-2c6.473 1.85 10.917 4.763 15.438 9.688 2.425 2.533 3.996 3.77 7.5 4.25L538 478v1c-8.45.14-8.45.14-12-1l-2.125-.5C522 477 522 477 520 476l3-1v-2h-3v-2l-2.172-.379c-2.839-.623-5.379-1.488-8.078-2.558l-2.64-1.028C505 466 505 466 504 464z" fill="#f6d3d4"/><path d="M582 374c0 3 0 3-2 6h6v2c-1.648.93-3.32 1.818-5 2.688-7.614 4.61-10.475 11.464-14 19.312-1-3-1-3 .363-5.934.645-1.17 1.295-2.338 1.95-3.503 3.416-6.385 5.036-12.304 5.687-19.563h2l2 3 3-4z" fill="#f0494e"/><path d="M289 671c2.19.09 4.378.247 6.563.438l3.628.308L302 672l1 5c-3.25 2.167-4.292 2.272-8.063 2.25l-2.66.016C290 679 290 679 288 677c-.188-2.563-.188-2.563 0-5z" fill="#f4f4f4"/><path d="M242 647h4v25h-4v-25z" fill="#020202"/><path d="M518.547 483.902l2.558.01 2.645.026 2.691.013c2.187.012 4.373.028 6.559.049-.784 1.946-.784 1.946-2 4a48.688 48.688 0 0 1-7.688 1.313c-.695.085-1.39.17-2.107.26-4.556.497-8.687.419-13.205-.573l-1-2h4l-1-2c2.925-.842 5.507-1.118 8.547-1.098z" fill="#f4d0d1"/><path d="M610 416h2a264.271 264.271 0 0 1 3 5l2 1c-.06 2.627-.147 5.25-.25 7.875l-.043 2.262c-.098 2.168-.098 2.168-.707 5.863l-4 2-1 17h-2c-.08-2.771-.14-5.54-.188-8.313l-.076-2.38-.029-2.295-.048-2.11c.44-2.458 1.594-3.181 3.341-4.902.271-2.778.374-5.293.313-8.063l.01-2.22c.092-4.325.092-4.325-2.323-7.717v-3z" fill="#f0b0b1"/><path d="M480 382v18c-3-3-3-3-4-5l-2 1v-3l-7 1c9.752-12 9.752-12 13-12z" fill="#ed262b"/><path d="M534 328h11l2 4c1.541 1.71 1.541 1.71 3 3l-2.313-.625c-2.906-.709-2.906-.709-5.687 1.625-2.563.25-2.563.25-5 0l-2-2c-2.437.27-2.437.27-5 1l-2.313.563L526 336c1.637-1.801 2.904-2.955 5.125-4 2.228-.912 2.228-.912 2.875-4z" fill="#f3454a"/><path d="M495.125 505.734l2.39-.007 2.485.023 2.484-.023 2.391.007 2.18.007C509 506 509 506 512 508c2.05.451 2.05.451 4.188.625L520 509l-1 5-6 1-1.438-2.438c-1.331-2.41-1.331-2.41-2.562-3.562a55.397 55.397 0 0 0-4-.133l-2.438-.004-2.562.012-2.563-.012-2.437.004-2.25.004c-1.778-.06-1.778-.06-2.75 1.129-1.34.156-2.688.25-4.035.316l-2.451.127-2.577.12-2.587.13c-2.117.107-4.233.207-6.35.307l-1-3 3.613.07c1.567.02 3.133.037 4.7.055.785.017 1.57.034 2.38.05l2.295.02 2.11.032c3.474-.415 5.292-2.48 9.027-2.493z" fill="#f1bcbd"/><path d="M583 328h10l2 4c1.697 1.312 1.697 1.312 3.625 2.25L602 336l-2 1-1.813-.977c-2.757-1.29-4.223-.931-7.187-.398-4.665.586-4.665.586-7.688-1.313C582 332 582 332 583 328z" fill="#f4474c"/><path d="M631 328h11c.188 2.875.188 2.875 0 6-3.246 2.164-4.243 2.376-8 2l-3-2-2.875 1.563L625 337l-2-1 5.371-2.734c2.088-1.354 2.088-1.354 2.629-5.266z" fill="#f34145"/><path d="M521 447h2l2.375 3 2.625 3h4c2.75 2.5 2.75 2.5 5 5l2-3 .938 3.375c.885 3.42.885 3.42 2.062 5.625l-9-3v-2l-1.734-.785c-2.462-1.32-4.4-2.831-6.516-4.652l-2.14-1.81C521 450 521 450 521 447z" fill="#f4c9c9"/><path d="M627 379l1 2-1 2c-.274 2.853-.446 5.706-.621 8.566L626 394l-2 1-1-5-8-1c3.7-3.925 7.55-6.946 12-10z" fill="#ee3439"/><path d="M430 660c.188 2.875.188 2.875 0 6-3.644 2.43-5.712 2.162-10 2l-1-5c3.858-2.153 6.551-3.393 11-3z" fill="#e9e9e9"/><path d="M601 418l2 1-.035 3.77c-.057 8.796-.066 17.484 1.035 26.23-1.973-1.115-1.973-1.115-4-3-.47-2.803-.47-2.803-.426-6.164l.026-3.649.087-3.812.03-3.836c.115-9.371.115-9.371 1.283-10.539z" fill="#f6d4d4"/><path d="M505 350l2 1c-1.148 4.754-2.383 9.379-4 14l-2-1v-6l-1.813.563C497 359 497 359 494 358v-2l2.152-1.059 2.786-1.378c1.374-.68 1.374-.68 2.777-1.372 2.19-.996 2.19-.996 3.285-2.191z" fill="#ee3136"/><path d="M651 352c-.591 4.847-1.98 8.607-4 13l-2-1v-4l-7-2v-2c1.79-.67 3.582-1.336 5.375-2l3.023-1.125C649 352 649 352 651 352z" fill="#ee3237"/><path d="M545 367v8l-1-1c-5.876-.463-5.876-.463-11 2l1-9c7.625-1.125 7.625-1.125 11 0z" fill="#f34246"/><path d="M497 450l4 2h-2c2.63 3 5.742 4.724 9.188 6.688l3.292 1.886L514 462c-1.645 1.133-1.645 1.133-4 2-2.762-.758-2.762-.758-5.688-2.125l-2.949-1.32C499 459 499 459 498.328 456.93L498 455c-2.48-1.771-2.48-1.771-5-3l2-1 2 1v-2z" fill="#f4c6c7"/><path d="M540 420h2c4 6.75 4 6.75 4 9h2l1-4-.063 3.25c.049 2.898.195 5.036 1.063 7.75-6.016-3.692-9.69-7.262-12-14h2v-2z" fill="#f5cdce"/><path d="M555 353l-4 12h-2v-6l-8-1c2.15-2.391 3.99-3.633 7-4.75l2.063-.797C552 352 552 352 555 353z" fill="#ee2e33"/><path d="M568 322l3.21.945 4.165 1.18 2.117.629c1.813.506 3.66.885 5.508 1.246l2-2c5.333-.333 5.333-.333 8 1v2l2 1c-4.256 1.16-7.684.762-12 0l-1 4v-4l-2.3-.621-3.013-.817-2.988-.808A120.773 120.773 0 0 1 568 324v-2z" fill="#f86569"/><path d="M656 397c2.503 2.938 3.47 5.179 4 9h2l1-2v3h2c.125 2.375.125 2.375 0 5l-2 2c-2.625-.375-2.625-.375-5-1-1.13-4.522-1.13-4.522-.438-7.063.588-2.6-.31-3.653-1.562-5.937v-3z" fill="#f76265"/><path d="M669 573l2.813.5c3.143.577 3.143.577 6.187.5 2.188 2 2.188 2 4 4l-4 2 2 3c-.023 3.355-.023 3.355-.375 7.188l-.336 3.855L679 597h-1l.063-3c.056-7.75.056-7.75-2.91-14.742-1.971-1.898-3.988-3.591-6.153-5.258v-1z" fill="#f6d1d2"/><path d="M680 366c7.429-.143 7.429-.143 11 1v6l-11 1v-8z" fill="#f23c40"/><path d="M466 665c1.675.286 3.344.618 5 1 .432 6.26-.073 9.09-4 14l-2-1 .563-3.438L466 672l-1-1c-.125-2.5-.125-2.5 0-5z" fill="#0d0d0d"/><path d="M631 366l3.813-.063 2.144-.035C639 366 639 366 642 367v7l-10-1-1-7z" fill="#f2393d"/><path d="M207 660c.188 2.875.188 2.875 0 6-3.644 2.43-5.712 2.162-10 2-.188-2.375-.188-2.375 0-5 3.352-2.235 5.988-3 10-3z" fill="#f6f6f6"/><path d="M703 399c1.819 1.653 2.93 2.829 3.875 5.125 1.009 2.165 1.009 2.165 3.75 2.625L713 407c.625 2.375.625 2.375 1 5l-2 2c-2.625-.375-2.625-.375-5-1l-4-14z" fill="#f43d42"/><path d="M560 399c3 3.625 3 3.625 3 7h2l1-2c1.62 2.572 2.044 3.677 1.625 6.75L567 413c-2.375.625-2.375.625-5 1l-2-2c.228-1.99.464-3.979.773-5.957.28-2.514-.091-4.618-.773-7.043z" fill="#f7565a"/><path d="M568 661c.188 2.375.188 2.375 0 5-3.435 2.29-4.985 2.178-9 2l-1-5c3.644-2.43 5.712-2.162 10-2z" fill="#f9f9f9"/><path d="M583 361c7.442-.366 7.442-.366 10 1.313 1 1.687 1 1.687 1 4.687-1.458.027-2.917.046-4.375.063l-2.46.035C585 367 585 367 583 366l-1 3zM495 361c2 3 2 3 2 6h-11l-1 2c.313-2.875.313-2.875 1-6 3.45-2.3 4.946-2.431 9-2z" fill="#f95357"/><path d="M670 529h1v5h19v2l-10-1-1 4-9-1v-9z" fill="#f1c8c9"/><path d="M649 416h2l-1 8 4-2c-2 4-2 4-3.044 5.802-1.151 2.647-1.274 4.739-1.37 7.62l-.117 3.105-.094 3.223-.117 3.27c-.094 2.66-.18 5.32-.258 7.98h-1v-25l-2 1 .938-2c1.312-3.705 1.665-7.093 2.062-11z" fill="#f3c2c2"/><path d="M470 405h1c.36 5.411.36 5.411-1.188 7.938-1.812 1.062-1.812 1.062-4.5.75L463 413c-.043-2-.04-4 0-6l1-1h5z" fill="#f64e52"/><path d="M662 491c2.43-.34 2.43-.34 5.445-.293l3.262.03 3.418.075 3.441.042c2.812.035 5.623.084 8.434.146v4l-26-1 2-3z" fill="#efb4b5"/><path d="M649 453h1l1 7 5-1v2c-1.61 1.438-1.61 1.438-3.75 3l-2.11 1.563c-1.992 1.338-3.994 2.373-6.14 3.437-1.71 1.541-1.71 1.541-3 3 0-3 0-3 1.496-4.508l1.942-1.617c3.72-3.504 4.397-6.133 4.59-11.152L649 453z" fill="#efd0d0"/><path d="M562 318c2.5.188 2.5.188 5 1l2 3-3 4-5-1c-.625-2.375-.625-2.375-1-5z" fill="#f95256"/><path d="M656 462h2c-1.438 3.738-3.848 5.911-6.758 8.535-1.565 1.526-1.565 1.526-1.242 4.465l-2 3-4-5a671.772 671.772 0 0 1 3.75-3.375l2.11-1.898c1.985-1.602 3.82-2.692 6.14-3.727v-2z" fill="#edcccd"/><path d="M612 441l5 1c-.75 7.75-.75 7.75-3 10a89.901 89.901 0 0 0-1 6l-2-1z" fill="#f4c9ca"/><path d="M548 456c2.5 1.813 2.5 1.813 5 4v3l4 2-6 3-2-8h-2z" fill="#f2d5d6"/><path d="M506 425l2 1v2l1.938.625C512 430 512 430 512.75 433.125L513 436c-4.875-2.625-4.875-2.625-6-6h-3l2-5z" fill="#f5cbcc"/><path d="M610 319c2.211.428 3.981.99 6 2l-1 5c-1.666.043-3.334.04-5 0-1-1-1-1-1.125-3.5C609 320 609 320 610 319z" fill="#f53e43"/><path d="M613 635c2.063.438 2.063.438 4 1 .625 1.875.625 1.875 1 4l-2 2c-2.625-.375-2.625-.375-5-1 .875-4.875.875-4.875 2-6z" fill="#191919"/><path d="M242 635c2.063.438 2.063.438 4 1l1 5c-2.375.625-2.375.625-5 1l-2-2c.536-3.536.536-3.536 2-5z" fill="#1b1b1b"/><path d="M530 381v12l-3-3v-2l-4-1a776.676 776.676 0 0 1 2.938-3l1.652-1.688C529 381 529 381 530 381z" fill="#ed2227"/><path d="M531 579l3 1-5 5-2.625 2.813C524 590 524 590 521 590v-2c1.68-1.656 1.68-1.656 3.875-3.5 2.115-1.79 4.165-3.54 6.125-5.5z" fill="#f3cccc"/><path d="M669 464h2l-1.063 2.313c-1.26 2.735-1.26 2.735.063 5.687l-1 2h-6c1.035-3.105 1.786-3.786 4-6 1.176-2.1 1.176-2.1 2-4z" fill="#fae4e5"/><path d="M504 464l8 2v-2h2l.75 2.375c1.404 2.948 2.257 3.527 5.25 4.625-3.605-.629-6.85-1.588-10.25-2.938l-2.64-1.027C505 466 505 466 504 464z" fill="#f4c8c8"/><path d="M512 409h7v4l-6 1-1-5z" fill="#f23a3e"/><path d="M519 545v4c-2.375 1.813-2.375 1.813-5 3l-2-1 1-5c3-1 3-1 6-1z" fill="#edcaca"/><path d="M663 499h17l1 2-12-1v2h-5l-1-3z" fill="#ebb5b6"/><path d="M516 467c5.201 2.177 7.68 4.607 11 9l-7 1 1-2h2v-2h-3v-3l-4-1v-2z" fill="#fae7e8"/><path d="M512 400c3 3.75 3 3.75 3 6l4 2v1h-7l-1 3c.875-4.75.875-4.75 2-7a75.68 75.68 0 0 0-1-5z" fill="#f85e62"/><path d="M673 466l2 1v4l-6 2 1-3-2-1c2.375-1.563 2.375-1.563 5-3z" fill="#f4c9ca"/><path d="M602 450c3 1.813 3 1.813 6 4v3c-2.375-.188-2.375-.188-5-1-1.313-2.563-1.313-2.563-2-5z" fill="#f5e4e4"/><path d="M600 439h2c2.094 3.402 2.18 6.053 2 10-2-1.063-2-1.063-4-3-.25-3.688-.25-3.688 0-7z" fill="#fefefe"/><path d="M658 409l7 1-2 4-5-1v-4z" fill="#f33a3f"/><path d="M703 399c3 3 3 3 3.875 5.125L708 406c2.527.656 2.527.656 5 1l1 2h-8l-3-10z" fill="#f86569"/><path d="M523 562l2 4-9 9-2-1 1.531-1.426 1.969-1.886 1.969-1.864c1.852-1.81 1.852-1.81 1.531-4.824h2v-2z" fill="#e7b6b7"/><path d="M649 453h1l1 7 5-1v2c-2.967 1.648-5.656 2.443-9 3l1-2c.225-1.537.408-3.08.563-4.625l.253-2.477L649 453z" fill="#f0b5b6"/><path d="M497 450l4 2h-2l4 5-2 1c-2.82-2.21-5.53-4.4-8-7l4 1v-2z" fill="#f7d9d9"/><path d="M643 459h2c-1.668 3.941-4.227 6.79-7 10l-2-1c1.285-2.867 2.571-4.976 5-7h2v-2z" fill="#efc3c4"/><path d="M471 508h19v2l-18 1-1-3z" fill="#eea7a8"/><path d="M560 409h6l1 4c-2.375.625-2.375.625-5 1l-2-2v-3z" fill="#f33a3e"/><path d="M676 573l6 4-2 2c-3 0-3 0-4.688-1.5L674 576c1-2 1-2 2-3z" fill="#f1b7b8"/><path d="M562 322h6l-2 4-5-1 1-3z" fill="#f23237"/><path d="M519 491h9v2h-8l-1 2v-4z" fill="#f6dadb"/><path d="M673 567l2 1v2h3v2l2 1v2c-2.862-1.283-5.025-2.53-7-5v-3z" fill="#fae7e7"/><path d="M520 461c3.375.547 5.082 1.055 8 3l-1 2c-2.938-.813-2.938-.813-6-2l-1-3z" fill="#f7d5d6"/><path d="M538 587l3 1-1 4h-4l2-5z" fill="#f8e1e1"/><path d="M648 466c-1.293 2.884-2.66 4.872-5 7 0-4 0-4 1.375-5.75C646 466 646 466 648 466z" fill="#f8e8e8"/><path d="M609 411h7v2c-4.75 1.125-4.75 1.125-7 0v-2z" fill="#f23b40"/><path d="M545 358l4 1-1 4h-2l-2 1 1-6z" fill="#f9afb1"/><path d="M587 333h6l-2 3c-2.625.188-2.625.188-5 0l1-3z" fill="#f03035"/></svg>