<svg fill="#9e1b32" height="1202" viewBox="10.6 22.4 78.8 55.2" width="2500" xmlns="http://www.w3.org/2000/svg"><path d="m84.9 22.4h-69.8c-2.5 0-4.5 2-4.5 4.5v40.1c0 2.5 2 4.5 4.5 4.5h47.1v-3h-26.4c.8-1.5 1.3-3.2 1.3-4.9 0-2.7-1.1-6.2-2.8-9 1.3.5 2.7.8 4.2.8.4 0 .9 0 1.3-.1.1 0 .3 0 .4-.1.3 0 .6-.1.9-.2.2 0 .3-.1.5-.1.3-.1.5-.1.8-.2.2-.1.3-.1.4-.2.3-.1.5-.2.8-.3.1-.1.3-.1.4-.2.3-.1.5-.3.8-.4.1-.1.2-.1.3-.2.3-.2.6-.4.9-.7 0 0 .1 0 .1-.1.6-.5 1.2-1 1.7-1.6h4.2c2.3 2.7 5.7 4.3 9.2 4.3h1.1c.5-3.7 3.6-6.6 7.5-6.6.8 0 1.5.1 2.3.4 1-1.8 1.6-3.8 1.6-5.9 0-1.2-.2-2.3-.5-3.3-.2-.7-.3-1.3-.6-1.9-.1-.2-.2-.3-.4-.4-1.3-2.5-3.4-4.5-5.2-6.4-2-2-3.8-3.8-4.5-5.8h22.4c.8 0 1.5.7 1.5 1.5v30.2l3 1.7v-32c0-2.4-2-4.4-4.5-4.4zm-49.3 41.2c0 1.8-.5 3.5-1.5 4.9h-19c-.8 0-1.5-.7-1.5-1.5v-40.1c0-.8.7-1.5 1.5-1.5h22.5c-.5 2.6-2.5 4.1-4.6 5.9-2.6 2.1-5.5 4.5-6.4 9v.2c-.1.3-.1.6-.1 1v.3c0 .4-.1.9-.1 1.3 0 4.3 2.2 8 5.6 10.2 0 .2 0 .4.1.5 2.1 2.9 3.5 6.8 3.5 9.8zm13.3-14c.4-.7.8-1.4 1.1-2.2.3.8.6 1.5 1.1 2.2zm16.9-17.3c1.6 1.6 3.3 3.3 4.5 5.2-5.6.1-15.5 1.6-18.3 10.8-.9-1.5-1.3-3.3-1.3-5.2v-.1c.5-2.9 1.8-5.3 3.6-6.9.3-.3.3-.8.1-1.1-.3-.3-.8-.3-1.1-.1-1.5 1.3-2.7 3.2-3.4 5.3-.7-2.1-1.9-3.9-3.4-5.3-.3-.3-.8-.3-1.1.1-.3.3-.3.8.1 1.1 1.8 1.6 3.1 4.1 3.6 6.9 0 .1.1.2.1.3 0 1.9-.6 3.6-1.4 5.1-2.8-9.6-13-11-18.6-11 1.2-2.1 3-3.6 4.7-5 2.3-1.9 4.7-3.8 5.2-7.1h21.7c.7 2.6 2.8 4.7 5 7z"/><path d="m87.1 62.8-15.8-9.1c-.5-.3-1-.4-1.5-.4-1.6 0-3 1.3-3 3v18.3c0 1.8 1.4 3 3 3 .5 0 1-.1 1.5-.4l15.8-9.2c2-1.1 2-4 0-5.2z"/></svg>