<svg fill="none" height="584" viewBox="43 50 1013.018 156.944" width="2500" xmlns="http://www.w3.org/2000/svg"><g fill="#20894d"><path d="m368.1 100.582q-8.118-3.17-17.86-3.17-9.896 0-18.014 3.17-8.118 3.17-13.84 8.891-5.72 5.721-8.89 13.762-3.17 8.04-3.17 17.937 0 9.896 3.247 17.937 3.247 8.04 8.969 13.762 5.72 5.72 13.375 8.89c5.102 2.114 10.592 3.17 16.468 3.17 6.082 0 11.055-1.056 14.921-3.17q5.799-3.17 9.2-8.581v11.622l21.494-.148v-43.482c0-6.598-1.057-12.576-3.17-17.937q-3.17-8.04-8.891-13.762-5.721-5.72-13.84-8.89zm-1.779 56.671q-6.03 6.03-16.08 6.03c-6.804 0-12.216-2.01-16.237-6.03q-6.03-6.03-6.03-16.081c0-6.7 2.01-12.061 6.03-16.081q6.03-6.03 16.236-6.03 10.05 0 16.081 6.03 6.03 6.03 6.03 16.081c0 6.7-2.01 12.06-6.03 16.081z" fill-rule="evenodd"/><path d="m451.441 142.195 29.196 42.778h-24.824l-27.478-39.5v39.5h-21.701v-134.646l21.7.004v88.429l28.662-40.833h23.64z"/><path d="m643.542 100.907q-8.034-3.168-17.922-3.168t-17.922 3.168q-8.034 3.167-13.751 8.884-5.717 5.716-8.884 13.75-3.167 8.035-3.167 17.923v65.48h21.476v-33.498q3.553 5.407 9.27 8.575c3.811 2.111 8.755 3.167 14.832 3.167 5.871 0 11.356-1.056 16.455-3.167 5.098-2.112 9.553-5.073 13.364-8.884q5.717-5.717 8.961-13.751c2.163-5.356 3.245-11.33 3.245-17.922s-1.056-12.567-3.167-17.923q-3.168-8.034-8.962-13.75-5.793-5.717-13.828-8.884zm-1.699 56.625q-6.026 6.026-16.223 6.026c-6.695 0-12.051-2.009-16.068-6.026q-6.026-6.026-6.026-16.068c0-6.695 2.009-12.051 6.026-16.069q6.025-6.025 16.068-6.025c6.798 0 12.206 2.008 16.223 6.025q6.026 6.026 6.026 16.069c0 6.695-2.009 12.05-6.026 16.068zm126.404-9.843c.309-2.159.463-4.265.463-6.321q0-9.867-3.16-17.883-3.161-8.017-8.865-13.72-5.704-5.705-13.798-8.865-8.094-3.16-17.806-3.16-9.866 0-17.96 3.16-8.094 3.16-13.798 8.864-5.704 5.704-8.864 13.72-3.16 8.017-3.16 17.884t3.16 17.883q3.16 8.017 8.864 13.72 5.704 5.705 13.798 8.865 8.094 3.16 17.96 3.16c9.044 0 16.881-1.952 23.51-5.858q9.944-5.858 15.185-16.341l-19.578-10.483c-1.645 3.391-4.112 6.09-7.4 8.093-3.29 2.005-7.195 3.007-11.717 3.007-5.55 0-10.15-1.388-13.798-4.163s-6.038-6.629-7.168-11.562zm-28.983-25.437q5.55 4.625 7.092 12.487h-42.704q1.542-7.862 7.169-12.487t14.26-4.625q8.633 0 14.183 4.625zm217.486 18.888v-91.14l-21.436.048v59.325q-3.392-5.397-9.175-8.558-5.783-3.162-14.881-3.162c-5.86 0-11.335 1.054-16.424 3.162s-9.535 5.063-13.339 8.867q-5.705 5.705-8.944 13.724-3.238 8.02-3.238 17.734 0 9.87 3.161 17.966 3.161 8.096 8.867 13.801c3.804 3.804 8.404 6.76 13.802 8.867q8.096 3.162 17.965 3.162 9.715 0 17.811-3.162c5.398-2.107 9.998-5.063 13.802-8.867q5.706-5.705 8.867-13.801 3.161-8.096 3.161-17.966zm-27.604 16.192q-6.014 6.014-16.038 6.014c-6.785 0-12.182-2.004-16.192-6.014-4.01-4.009-6.014-9.407-6.014-16.192q0-9.87 6.014-15.883 6.014-6.014 16.192-6.014c6.682 0 12.028 2.004 16.038 6.014q6.014 6.014 6.014 15.883c0 6.785-2.005 12.183-6.014 16.192zm100.985-56.752q-8.114-3.168-17.85-3.168-9.892 0-18.005 3.169-8.114 3.168-13.833 8.886-5.718 5.719-8.886 13.755-3.169 8.037-3.169 17.928t3.246 17.928c2.164 5.358 5.152 9.943 8.964 13.755q5.718 5.718 13.368 8.887 7.65 3.168 16.46 3.168 9.118 0 14.914-3.168c3.864-2.113 6.93-4.972 9.196-8.578v11.66h21.482v-43.652c0-6.594-1.056-12.57-3.168-17.928q-3.168-8.036-8.887-13.755-5.718-5.718-13.832-8.886zm-1.777 57.08q-6.028 6.027-16.073 6.027c-6.8 0-12.21-2.009-16.228-6.027q-6.028-6.028-6.028-16.074c0-6.697 2.01-12.055 6.028-16.073q6.027-6.027 16.228-6.027c6.697 0 12.055 2.009 16.073 6.027q6.027 6.028 6.027 16.073c0 6.698-2.009 12.055-6.027 16.074z" fill-rule="evenodd"/><path d="m218.292 184.883v-49.82c0-24.882 12.855-37.324 38.563-37.324s38.564 12.442 38.564 37.324v49.82h-24.54v-45.883c0-2.854-.176-5.45-.526-7.79-.351-2.34-.994-4.509-1.929-6.506-.934-1.998-2.366-3.624-4.294-4.88-1.928-1.255-4.353-1.883-7.275-1.883-2.921 0-5.346.628-7.274 1.883-1.928 1.256-3.36 2.882-4.295 4.88-.934 1.997-1.577 4.166-1.928 6.506-.35 2.34-.526 4.936-.526 7.79v45.882zm274.011-87.143v49.787c0 25.038 12.934 37.557 38.804 37.557 25.869 0 38.803-12.519 38.803-37.557v-49.787h-24.693v45.826c0 2.871-.176 5.484-.53 7.839-.352 2.354-.999 4.536-1.94 6.546s-2.38 3.647-4.32 4.91-4.38 1.895-7.32 1.895-5.38-.631-7.32-1.895-3.38-2.9-4.322-4.91-1.587-4.192-1.94-6.546c-.352-2.355-.529-4.968-.529-7.839v-45.826zm288.071 87.143v-49.82c0-24.882 12.854-37.324 38.563-37.324s38.563 12.442 38.563 37.324v49.82h-24.54v-45.883c0-2.854-.175-5.45-.526-7.79-.35-2.34-.993-4.509-1.928-6.506-.935-1.998-2.366-3.624-4.294-4.88-1.929-1.255-4.353-1.883-7.275-1.883-2.921 0-5.346.628-7.274 1.883-1.929 1.256-3.36 2.882-4.295 4.88-.935 1.997-1.577 4.166-1.928 6.506-.35 2.34-.526 4.936-.526 7.79v45.882zm-658.425-43.087c2.134 0 4.041.353 5.72 1.06 1.68.706 3.1 1.718 4.262 3.037 1.16 1.318 2.048 2.927 2.66 4.826s.918 4.057.918 6.474v40.632h15.914v-40.632c0-4.207-.683-8.067-2.048-11.583-1.366-3.515-3.32-6.544-5.862-9.087s-5.634-4.52-9.275-5.932-7.738-2.12-12.29-2.12c-4.582 0-8.694.707-12.335 2.12-3.64 1.412-6.733 3.39-9.275 5.932-2.543 2.543-4.489 5.572-5.838 9.087-1.35 3.516-2.025 7.376-2.025 11.583v40.632h15.914v-40.585c0-2.417.306-4.575.918-6.474.612-1.9 1.499-3.516 2.66-4.85 1.162-1.334 2.582-2.354 4.261-3.06 1.68-.707 3.587-1.06 5.72-1.06z"/><path d="m179.159 185.542q-21.412 21.402-57.099 21.402c-24.157 0-43.373-7.134-57.648-21.402q-21.412-21.401-21.412-57.07 0-35.67 21.412-57.07 21.412-21.402 57.648-21.402 35.687 0 57.099 21.401 21.412 21.402 21.412 57.07c0 23.78-7.137 42.804-21.412 57.071zm-14.315-14.297q-16.069 16.04-42.852 16.04c-18.13 0-32.55-5.347-43.264-16.04q-16.07-16.04-16.07-42.773c0-17.822 5.357-32.08 16.07-42.773q16.07-16.04 43.264-16.04c17.855 0 32.139 5.346 42.852 16.04q16.07 16.04 16.07 42.773c0 17.822-5.357 32.08-16.07 42.773z" fill-rule="evenodd"/></g><path d="m72.652 164.022q4.26 6.061 9.01 9.993 5.57 4.587 10.65 7.045h.163q0-10.813.317-26.008.83-12.164 7.874-18.88-2.13 1.802-28.014 27.85z" fill="#41b349"/></svg>