<svg height="2500" viewBox="199 234 1717 660" width="2500" xmlns="http://www.w3.org/2000/svg"><path d="m387 234h1269l15 5 11 7 6 5 8 10 6 12 3 11v171h14l12 3 10 6 8 9 4 9 2 15v97h115l15 1 10 3 9 6 6 7 4 8 2 7v47l-4 13-6 9-9 7-8 3-4 1-18 1h-162v137l-5 15-9 14-8 8-11 7-16 5-5 1h-1261l-16-5-10-5-12-11-8-11-5-13-2-11v-132h-102l-10-2-8-4-9-8-6-10-3-10v-183l3-12 6-11 8-7 10-5 6-1h105v-165l3-13 7-14 8-10 8-7 16-8z" fill="#121c21"/><path d="m236 488h180l24 3 15 4 8 5 5 5 4 7 3 11 1 7v9l-2 12-5 10-9 8-14 7-1 2 11 3 14 7 7 7 4 10 1 5v18l-2 14-4 10-6 7-13 6-18 4-19 2h-183l-2-1-1-3v-171l1-7zm300 0h173l18 2 16 5 12 6 10 9 6 9 4 14 2 17-1 16-4 12-6 9-5 5-8 6-13 6-12 4h-3l5 5 11 10 11 9 15 13 13 11 10 9 2 3-6 2h-47l-16-1-10-7-15-13-11-9-14-12-13-10-2-1h-63l-1 1-1 50-5 2h-50l-3-3-1-39v-48l1-91zm712 0h70l41 3 56 6 8 2-1 10-7 28-2 3-22-3-44-5-43-2h-18l-26 1-13 2-6 4-1 8 1 5 5 2 7 2 8 1 85 1 25 2 22 4 15 5 9 6 8 9 5 13 2 11v23l-3 14-5 10-7 7-16 8-15 4-14 2-25 1h-33l-2 1-23-1-65-4-30-4-13-3-1-5 7-33 2-4 13 1 42 6 46 4h37l30-2 9-3 4-4 1-9-3-7-5-3-13-2-15-1-86-1-19-2-19-4-12-5-10-8-7-11-3-12-1-10v-11l3-16 6-12 8-9 8-5 17-5 13-2zm-300 0h66l5 3 7 10 14 23 15 24 14 23 15 24 16 26 13 21 14 23 2 3v3h-65l-6-7-10-17v-2h-135l-4 5-10 16-6 5h-59l2-5 17-28 12-19 14-23 30-48 12-20 10-16 12-19zm713 2h56l3 3 1 135 157 1 3 1v41l-165 1h-53l-4-2v-179z" fill="#fefefe"/><path d="m1150 260h501l10 4 8 6 6 7 4 11v167h-21l-1-141-1-24-3-5-4-2-117-1h-170l-174-1-18-10-19-9zm-758 0h479l-3 2-25 12-12 7-174 1h-162l-102 1-5 4-2 4-1 162h-21l-1-113v-46l2-11 6-10 9-8zm1266 447h21v133l-4 11-9 10-12 6-4 1h-468l5-4 24-16 1-1 433-1 8-3 3-5 1-4z" fill="#008e4a"/><path d="m364 706h20l1 1 1 130 3 5 4 3 6 1 408 1 11 8 19 12v1h-446l-10-4-9-7-6-10-2-7-1-17v-116z" fill="#008f4a"/><path d="m1514 488h33l12 1 1 9v169l-1 4-15 1h-43l-2-1-1-4v-152l1-25 1-1z" fill="#fefefe"/><path d="m807 846h405l-2 4-23 15-7 4h-337l-7-2-18-11-11-8zm73-587 270 1 16 8 17 9 3 2v3h-352l-1-3 18-10 20-9z" fill="#1e2e62"/><path d="m609 533h70l22 1 10 4 4 6 1 14-2 12-6 5-3 1-17 1h-91l-4-2v-40l1-1z" fill="#010604"/><path d="m1183 343h32l8 11-3 14-17 61-1 2h-16l2-10 4-16h-21l-7 25-1 1h-16l4-17 16-58 5-5zm-198 0h33l8 11-4 16-16 58-1 3h-16l1-7 5-20-21 1-8 26h-16l2-10 12-44 6-21 5-5zm253-1 43 1 8 11-8 31-3 7-10 8v9l2 15v7h-15l-2-7-2-20-14 1-7 24-1 2h-16l2-10 20-72z" fill="#fefefe"/><path d="m296 598h114l9 4 3 6v10l-3 7-4 3-3 1-12 1h-102l-3-3v-28z" fill="#020305"/><path d="m688 260h183l-3 2-25 12-12 7h-173l4-4 21-13z" fill="#fed243"/><path d="m1150 260h180l21 13 11 7v1h-174l-18-10-19-9z" fill="#ffd243"/><path d="m908 343h16l2 8 6 36v5h2l1-7 11-40 1-2h16l-2 10-19 69-3 9h-16l-2-8-6-37v-5h-2l-1 7-12 43h-16l1-8 20-72z" fill="#fefefe"/><path d="m1212 847h175l-5 5-22 14-3 2h-175l5-4 24-16zm-580 0h175l11 8 19 12v1h-174l-19-12-11-7z" fill="#ffd243"/><path d="m299 533h85l24 1 6 5 1 3v11l-3 5-7 3h-108l-2-1v-25z" fill="#010605"/><path d="m1051 343h33l7 10-1 9-2 6h-16l1-7 1-2h-23l-2 11-2 7 19 1 8 1 7 10-1 9-6 21-16 12h-30l-9-11 1-8 2-6h16l-2 9h23l2-11 3-9h-26l-8-10-1-5 7-24 5-5z" fill="#fefefe"/><path d="m864 342h34l-2 10-22 79-2 1h-32l-1-3 14-50 10-36z" fill="#1f2e63"/><path d="m1117 343h32l8 10-1 8-3 11-1 1h-15l-1-2 3-13-2 1h-19l-15 53-1 3 22-1 4-12 1-1h15l-2 10-3 8-8 7-7 5h-31l-8-11 1-9 15-54 5-6z" fill="#fefefe"/><path d="m979 536 4 4 13 22 17 28 4 7-1 5-2 1h-70l-3-1 1-6 14-23 16-26z" fill="#010705"/><path d="m900 735h32l6 7-1 9-6 21-8 6 1 23h-11l-2-6-1-14h-11l-4 18-2 2h-11l2-10 15-55zm240 0h24l6 8-2 11-13 46-1 1h-11l2-11 3-9-17 1-5 18-1 1h-11l1-8 13-47 5-6zm-58 0h32l6 7-1 9-5 18-2 4-7 5 1 23h-11l-2-6-1-14h-11l-4 17-2 3h-11l1-7 13-47zm-109 0h12l2 5 4 26v5h2l2-10 7-25 1-1h12l-8 30-10 35-1 1h-11l-2-5-5-31-3 8-7 26-1 2h-11l-1-2 13-48zm-124 0h33l6 8-2 10-5 17-5 5-7 6h-21l-2 11-3 9h-11l1-9zm-42 0h24l6 7-1 9-1 2-11 1-1-4 1-3h-17l-1 7-2 8h20l6 8-4 17-3 6-11 8h-22l-7-9 2-9 1-1h12l-2 7h17l3-12 1-3h-20l-6-8 1-8 4-13 5-5zm424 0h35l-2 11-1 1-23 1-3 13 21 1-3 11-1 1h-22l-3 15h22l-1 7-2 5h-35l4-17 13-47zm-42 0h25l5 7-1 10-2 5h-11l-1-2 3-8-17 1-11 40h16l3-9h12l-3 12-9 8-3 2h-23l-6-8 1-9 11-39 5-5z" fill="#fefefe"/><path d="m839 342h15l-2 9-14 52-8 28-2 1h-15l4-17 20-72zm-23 0h14l1 2-18 65-6 22-1 1h-16l2-10 13-47 9-31z" fill="#1f2e63"/><path d="m1021 735h41l-3 11-1 1h-14l-4 16-10 37-1 1h-11l1-8 12-44v-2h-13l1-8z" fill="#fefefe"/><path d="m795 343h10l-11 40-13 47-1 1h-9l2-10 12-43zm-17 0h10l-3 11-14 51-7 25-1 1h-9l4-16 18-65z" fill="#ffd243"/><path d="m951 735h11l-2 11-15 54-1 1h-11l1-7 8-30 8-28z" fill="#fefefe"/><path d="m1183 359h22l-2 10-5 18-1 1h-21l1-8zm-197 0h22l-4 16-4 13h-21l-1-2 7-25z" fill="#030a09"/><path d="m1249 359h22l-4 16-4 13h-21l1-8z" fill="#030909"/><path d="m788 344h6l-1 9-14 50h-2l-1 3v-3h-2v3h-2v-8l14-51z" fill="#040e0e"/><path d="m1091 747h16l-2 10-3 11-2 1h-15l2-10 3-11z" fill="#02130d"/><path d="m909 747h16l-1 7-4 14-1 1h-15l-1-2 5-19z" fill="#02140c"/><path d="m1140 747h17l-4 16-2 5h-16l2-9z" fill="#030b0a"/><path d="m858 747h17l-4 16-2 5h-16l2-11z" fill="#030a09"/><path d="m994 759h1l-1 9-1 3h-2v-11z" fill="#071316"/><path d="m216 459 2 1-11 11v-3l6-7z" fill="#52706e"/></svg>