<svg height="1975" viewBox="10.2 26.3 270.8 199" width="2500" xmlns="http://www.w3.org/2000/svg"><path d="m249 27.2c-32.7 1.8-34.2 2-47.7 5.1-7.4 1.8-17.8 6.5-22.1 10.2-1.7 1.4-3.5 2.4-3.9 2.2-.9-.6-17.6-3.4-24.8-4.2-4.5-.6-10.3.2-26.9 3.4-4.6.8-5.1.7-9.3-2.5-2.5-1.9-5-3.4-5.6-3.4-.7 0-3-1-5.2-2.1-9.6-5.2-27-7.5-61.1-8.3-22.3-.4-24.6 0-28.6 5.7-3.1 4.3-3.6 12.3-1 17.3 1.9 3.9 5.6 14.9 10.8 31.9 5.1 17.2 14.8 32.9 26.4 42.6 2.9 2.4 4.9 4.8 4.6 5.6-1 2.6 1.5 22.6 3.5 28.2 1.2 3.1 2.7 7.3 3.5 9.4s2.2 5 3.2 6.5l5.8 8.7c7.6 11.6 16.5 19.3 31.7 27.5 22.4 12.1 50.3 14.3 77.7 6.2 8.3-2.5 22.1-9.2 21.4-10.4-.3-.4-.1-.7.4-.6.6.2 3.4-1.5 6.3-3.7 20.3-15.2 31.5-37.4 33.6-66.5l.6-8.5 5.1-5.3c5.5-5.7 14.5-18 14.6-19.8 0-.5.9-2.8 1.9-5 1.7-3.6 7.2-21.2 10.1-32.9.7-2.8 1.6-5.5 2-6 1.7-2.3 5-13.8 5-17.1 0-5-2.6-10-6.4-12.3-3.8-2.4-9.8-2.8-25.6-1.9zm18.3 13.5c.3.5-.8 3.9-2.4 7.8-1.6 3.8-2.9 8-2.9 9.3 0 1.2-.4 3-.9 4-1.5 2.6-3.9 11.2-4.6 16.2-.4 2.5-1.2 5.6-2 7-2.8 5.5-5.5 11.8-5.5 12.9 0 1.3-5.2 8.3-10.5 14-3.8 4.1-8.5 5.6-8.5 2.7 0-.7-.7-1.9-1.5-2.6s-1.5-1.9-1.5-2.7-1.4-4.5-3.1-8.1c-5.8-12.4-7-17.1-6.3-23.7.4-3.3 1.3-6.6 2.1-7.3.7-.7 1.3-2.2 1.3-3.3 0-1 .4-1.9 1-1.9.5 0 1.4-.9 2-2 .8-1.6.8-2-.3-2-.8 0-3.1 2.4-5 5.2-3 4.4-3.7 6.5-4.3 12.5-.6 6.5-.3 8.2 2.7 17.4 1.8 5.5 3.9 10.3 4.6 10.6s1.3 1.3 1.3 2.3.6 2.3 1.4 2.9c2.2 1.9 4 15.2 3.2 25.4-.7 10.2-2.5 18.4-5.6 25.3-1.1 2.4-2.5 5.4-3 6.6-2.7 6.1-9.5 14.7-14.8 18.8-2.4 1.9-5.7 4.6-7.4 6.1-1.6 1.6-5.5 3.8-8.6 4.9-3.1 1.2-5.9 2.5-6.2 2.9-.9 1.2-9.9 3.2-22.3 4.9-10.9 1.5-12.6 1.5-22.5 0-20.2-3.2-26.4-5.4-37.7-13.7-7-5.2-18.1-16.4-19-19.2-.4-1-1.1-1.9-1.6-1.9s-.9-.6-.9-1.4-.6-2.1-1.3-2.8c-.8-.7-1.6-2.5-2-3.8-.3-1.4-1.8-5.9-3.3-10-2.5-6.9-2.8-8.7-2.7-22 0-13.5.2-15 2.7-21.5 7.5-18.9 7.9-20.5 7.4-29.5-.5-7.4-.9-9.1-3.6-13.1-5.8-8.5-9.4-9.6-4.3-1.2 4.5 7.3 5.4 12.7 3.6 21.4-.9 4-2 7.9-2.7 8.6-.6.7-1.2 2.1-1.3 3.1-.1.9-1.4 4.3-2.8 7.5-1.5 3.2-2.7 6.4-2.7 7.2 0 3.8-5.8.8-13.3-6.9-6.6-6.7-17-30.6-19.6-45.1-.5-2.8-1.9-7.3-3.1-10-3-6.9-4-10.4-3-11 .9-.6 40.6 1.2 53.5 2.4 7.9.8 18.1 3.4 19.5 5 .3.3 2.3 1.5 4.5 2.6s5.9 3.5 8.2 5.2c4.8 3.7 6 3.9 11.8 1.7 7.5-2.7 23.9-3.8 35.5-2.4 5.8.7 11 1.6 11.5 2 .6.4 2.6 1 4.5 1.2 2.8.4 4.2 0 7.1-2.3 1.9-1.5 4.7-3.3 6.2-4s2.7-1.6 2.7-2.1c0-.4.8-.8 1.8-.8.9 0 3.1-.9 4.9-1.9 1.7-1.1 4.6-2.2 6.5-2.5 1.8-.3 4.7-.8 6.3-1.2 4.9-.8 27.4-2.5 35-2.5 3.9 0 8.8-.4 11-.8 5.3-1.1 10.3-1.3 10.8-.4z"/><path d="m65.5 59c.3.5.8 1 1.1 1 .2 0 .4-.5.4-1 0-.6-.5-1-1.1-1-.5 0-.7.4-.4 1z"/></svg>