<svg height="2500" viewBox="0 0 420 420" width="2500" xmlns="http://www.w3.org/2000/svg"><path d="M0 210v210h420V0H0zM185.9 87.4c.9 1.1 1.2 14.1 1.2 51.4-.1 42.6.1 50.1 1.4 51.2 1 .8 6.1 1.1 18.1.8l16.6-.3 3.4-3.9 3.4-3.9.2-21.6.3-21.6h38l.3 24c.2 20.1 0 24.8-1.4 29-1.9 5.7-5.1 12.3-7 14.6-1.8 2-1.8 5.8 0 7.8 2.1 2.6 5.3 9.2 7 15 1.3 4.2 1.6 10.2 1.6 29.2V283l-19.2-.2-19.3-.3-.3-21.6-.2-21.6-3.4-3.9-3.4-3.9-16.6-.3c-12.3-.3-17.1 0-18.2.9-1.3 1-1.5 5-1.4 24.8.1 13 .1 24.2 0 24.9 0 1-4.2 1.2-19.2 1l-19.3-.3-.3-96.3c-.1-65.3.1-96.9.8-98.3 1-1.8 2.3-1.9 18.4-1.9 13.9 0 17.6.3 18.5 1.4zm-83.4 53.5c8.8 2.8 11.4 4.1 17.7 8.8 9.4 7.2 13.4 12.7 18.9 26.3 1.1 2.9 1.4 13 1.4 55v51.5h-38l-.5-48.1c-.6-53.7 0-49.8-7.6-54.5-2.9-1.8-4.7-1.9-20.6-1.7l-17.3.3-.5 52-.5 52-19.2.3-19.3.2v-71.3c0-39.3.3-71.7.7-72 .3-.4 18.2-.7 39.7-.7 35.5 0 39.6.2 45.1 1.9zm271.2-.3c9.9 4.3 12.1 5.6 16.1 9.6 4.4 4.4 5.5 6.1 9.1 13.7 2 4.2 2.1 5.9 2.1 41.5-.1 33.4-.3 37.6-1.9 42.4-1 2.9-2.3 5.8-3 6.5-.6.6-1.1 1.5-1.1 1.9 0 .5-1.9 3.4-4.2 6.4-4.3 5.8-12.8 12.8-18.8 15.5-9 4.1-10.5 4.3-33 4.9l-22.5.5-.3 26.4c-.1 17.5-.6 26.9-1.3 27.8-.9 1-5.3 1.3-18.9 1.3-15.3 0-17.9-.2-18.4-1.6-.8-2.1-.8-196.9.1-197.7.3-.4 21.2-.7 46.4-.7 40.1 0 46.3.2 49.6 1.6z"/><path d="M317 180.5c-1.1 2.8-1.4 59.2-.4 61.9.5 1.4 3.1 1.6 18.5 1.6s18.4-.2 20.7-1.7c6.4-4.2 6.2-3 5.9-34.8l-.2-29-21.8-.3-21.7-.2z"/></svg>