<svg height="2500" viewBox="0 0 750 750" width="2500" xmlns="http://www.w3.org/2000/svg"><path d="m0 0h750v750h-750zm171.64 122.46c.28 12.18.04 24.38.12 36.56.03 104.25-.06 208.5.04 312.74 45.54-.01 91.07-.04 136.61.02 2.36-.02 4.73-.08 7.09-.24-1.68-16.11-1.61-32.44.39-48.52 2.38-14.17 6.54-28.11 12.71-41.09-3.78-6.47-8.61-12.29-14.06-17.43-.8-.74-1.85-1.08-2.8-1.55-1.95 8.32-4.01 17.24-10.38 23.42-4.36 4.06-9.55 7.65-15.35 9.2-6.51-2.28-12.3-6.46-17.48-10.97-8.87-8-11.71-20.35-12.47-31.79-.25-.15-.76-.45-1.02-.6-2.54 1.39-4.74 3.34-7.36 4.57-5.36 2.65-11.48 3.48-17.39 2.79-4.18-6.24-5.56-13.87-7.26-21.06-1.05-1.53-3.49-.4-5.06-.77-9.71.73-18.54-4.93-24.89-11.8 2.12-12.98 11.54-25.06 24.85-27.69-2.59-6.02-6.53-11.59-7.32-18.26-.09-2.75-1.96-6.03-.12-8.46 4.98-4.5 11.85-6.21 18.43-6.15-3.82-4.4-7.52-9.16-9.19-14.83-1.72-6.27-.14-12.75-.37-19.12 11.4-2.46 23.14-2.3 34.67-.91-6.58-6.9-11.73-15.71-11.64-25.51 4.36-3.51 9.15-6.73 14.68-8.01 8.27-1.97 17.52-2.17 25.19 1.91 2.2 1.01 4.18 3.77 6.86 2.65 3.71-1.45 7.01-3.78 10.69-5.35-3.2-6.19-3.71-14.06.11-20.11 2.01-3.16 4.82-6.94 9.03-6.64 6.38-.52 12.62 1.06 18.56 3.17 2.33-1.48 4.42-3.37 7.02-4.39 6.79-2.96 14.37-1.77 21.55-1.82 1.4-2.96 2.94-5.87 4.78-8.59 4.47-7.17 13.12-10.56 21.2-11.28 6.15 2.25 11.78 7.04 13.82 13.41 1.55 5.74 1.11 11.95-.48 17.63 8.17-.81 18.15-1.21 23.68 6.11 7.59-1.32 15.35-2.02 23.03-1.05 1.09 4.05 2.42 8.12 2.38 12.37-.09 5.03-1.84 9.86-4.12 14.29 4.49 0 9.16.78 12.94 3.35 3.59 2.3 5.32 6.32 7.27 9.93 8.6-1.77 17.54-1.13 26.11.49.4 6.33-.44 12.64-2.62 18.59 7.98.7 16.87 2.52 21.92 9.38 3.66 5.23 6.97 11.4 6.77 17.95-2.61 6.07-9.94 7.3-15.67 8.78 5.69 1.12 11.68 2.94 15.69 7.41 4.55 5.3 7.32 12.1 7.93 19.05-2.93 1.39-5.85 2.78-8.81 4.1 1.7 3.99 5.57 6.58 7.06 10.7 1.3 3.67.82 7.66.69 11.48-4.96 2.37-10.4 3.33-15.79 4.09 2.25 2.55 4.56 5.17 5.74 8.42 2.29 5.78 2.05 12.12 1.77 18.22-9.58 1.34-19.31 2.13-28.96 1.13-8.75-2.02-14.83-9.23-20.76-15.44-1.27 4.23-1.93 9.12-5.61 12.06-4.2 3.93-10.39 2.13-15.56 2.51.48 2.11 1.07 4.24 1.01 6.44.23 5.97-3.85 11.04-8.27 14.59-5.43.14-10.98-.56-15.74-3.35-2.36-.95-4.54-3.19-7.17-2.89-1.78 2.75-2.63 6-4.41 8.75-2.11.95-4.66-.1-6.92-.23-6.62-.61-12.08-4.66-18.05-7.14-10.41 17.7-15.53 38.79-13.48 59.28.83 11.71 2.4 23.42 5.44 34.78 2.33 0 4.67 0 7.01.01 54.15-.09 108.29.16 162.43-.12-.05-116.4-.14-232.81.05-349.21-1.13-.29-2.27-.48-3.41-.57-119.32-.01-238.64 0-357.96-.01-3.13.06-6.35-.4-9.37.62m392.93 4.81c0 1.46 0 2.92.01 4.38 3.21.02 6.43.02 9.65.01.02 8.51-.02 17.01.02 25.52l5.15.03c.05-8.52-.05-17.05.05-25.57 3.24.04 6.49.04 9.74 0-.04-1.46-.06-2.92-.08-4.37-8.18-.01-16.36-.01-24.54 0m27.75-.03c.09 10.02-.15 20.04.12 30.06 1.46-.06 2.93-.12 4.41-.17.08-7.87.23-15.73.53-23.59 2.45 7.75 5 15.47 7.25 23.28 1.57.21 3.15.38 4.74.54 2.92-7.5 4.22-15.61 7.6-22.91.53 7.62-.18 15.27.38 22.89 1.46-.09 2.93-.17 4.42-.24-.01-9.95-.02-19.9 0-29.85-2.46.01-4.92 0-7.38 0-2.45 7.67-4.63 15.42-7.16 23.07-2.66-7.61-4.92-15.35-7.39-23.02-2.51-.04-5.02-.05-7.52-.06m-214.85 28.53c-5.29 2.29-10.89 6.11-12.16 12.11-1.74 6.19.1 12.52 1.57 18.55 8.22.74 15.79-5.66 17.51-13.51 1.74-5.52-.27-11.24-2.19-16.42-.6-2.14-3.25-1.2-4.73-.73m-41.98 25.12c-.8 4.92 2.29 9.68 5.96 12.7 5.63 4.03 13.06 2.81 19.29 1.03.07-4.94-2.07-10.03-6.26-12.82-5.54-3.95-12.9-2.74-18.99-.91m-27.92-.37c-.12 5.2-.53 10.86 2.42 15.45 3.95 5.4 11.81 7.97 18.1 6.14 1.46-6.21.88-13.62-4.21-18.07-4.34-4.14-10.73-4.03-16.31-3.52m79.7 12.78c-5.01 5.89-5.62 14.25-4.03 21.54 5.26.12 11.03-.79 14.84-4.76 6.09-5.62 6.2-14.65 6.38-22.34-6.16-2.21-13.26.51-17.19 5.56m28.15 2.08c-3.32 4.16-3.38 10.15-2.12 15.11 1.23.21 2.45.44 3.68.67 4.92-.32 10.15-1.71 13.28-5.82 3.16-4.29 2.53-10.04 1-14.84-5.58-.33-11.69.92-15.84 4.88m-161.97 12.97c.9 5.89 4.62 11.75 10.46 13.73 5.15 1.08 10.51.46 15.57-.87.53-8-6.41-15.61-14.48-15.54-3.92.09-8.22.39-11.55 2.68m40.96-1.9c-3.1 2.59-6.32 6.25-5.76 10.6.48 3.57 2.12 7.04 4.63 9.62 3.13.76 5.35-2.3 6.77-4.63 2.96-4.72.98-10.85-2.52-14.69-.71-.96-2.01-1.59-3.12-.9m58.77-.41c-4.43 6.73-7.46 16.62-1.7 23.49 3.27 3.66 6.87 7.61 11.68 9.12 6.59-5.62 8.62-16.17 3.79-23.53-3.22-4.55-8.11-8.4-13.77-9.08m73.06 16.14c-4 3.52-7.69 8.35-7.8 13.89 4.99 2.25 10.56 3.3 15.98 2.16 6.76-2.67 11-9.12 14.25-15.3-5.84-5.93-16.22-6.25-22.43-.75m-114.95 12.37c3.89 7.7 12.9 11.66 21.14 12.32 2.26-5.3 2.48-11.59-.75-16.54-4.2-7.1-12.64-9.69-20.32-10.82-2.48 4.6-1.68 10.28-.07 15.04m-43.98-4.06c-.49 6.57 1.53 13.97 7.24 17.82 5.46 3.57 12.19 4.41 18.54 4.94 1.9-1.07 1.36-3.45 1.5-5.25.38-6.13-3.96-11.55-9.03-14.48-5.51-3.28-12.04-3.44-18.25-3.03m190.24 2.09c-4.64 3.45-5.52 9.63-5.16 15.02 5.13 1.24 11.14 1.48 15.64-1.7 4.44-3.53 6.16-9.7 5.58-15.18-5.3-1.56-11.54-1.84-16.06 1.86m-75.47 2.51c-7.37 4.76-12.4 13.37-12.84 22.12 6.12 2.29 12.73 3.04 19.18 1.96 7.6-2.2 12.53-9.11 16.06-15.77 1.03-2.22 2.76-4.57 2.19-7.11-2.28-2.39-5.62-3.31-8.71-4.14-5.44-1.57-11.06.47-15.88 2.94m-150.83 7.18c-.12 5.89 3.96 11.7 9.42 13.85 5.21 1.16 10.73.76 15.85-.71.77-8.17-6.36-15.56-14.44-15.62-3.67.23-7.67.37-10.83 2.48m179.92 10.86c-8.07 6.9-10.66 18.11-10.64 28.31 7.24.05 15.47-1.69 19.83-8.05 4.75-6.96 7.31-15.48 7.47-23.89-5.74-1.81-12.21-.41-16.66 3.63m-72.26-2.14c-1.95 4.02-3.43 8.52-2.83 13.03.59 6.35 5.93 10.7 10.72 14.21 1.42.99 3.72 2.51 5.22.83 5.18-5.86 4.37-15.61-.99-21.1-3.27-3.36-7.25-6.64-12.12-6.97m136.29 2.77c.97 4.81 3.39 9.6 7.45 12.51 5.34 3.26 11.92 2.03 17.72 1 .26-.55.79-1.65 1.05-2.2-.63-6.33-5.31-11.74-11.38-13.48-5.04-.81-10.26-.11-14.84 2.17m-26.52 9.86c-5.71 6.01-7.05 14.82-6.21 22.79 4.04-.05 8.08-.8 11.89-2.16 5.15-2.14 8.63-7.08 10.14-12.31 1.23-4.29 2.5-8.72 1.87-13.22-3.09-.14-6.21-.5-9.28-.02-3.16.88-6.02 2.7-8.41 4.92m-156.31 4.12c2.81 5.98 6.91 11.95 13.45 14.18 8.21 3.22 16.72-.57 24.62-2.83 1.04-7.19-4.88-13.57-11.11-16.23-9.03-3.58-19.38-.66-26.96 4.88m-34.07 3.26c2.19 3.17 5.3 5.8 8.85 7.3 6.57 1.84 12.59-2.11 17.63-5.83-1.18-5.22-6.54-9.15-11.85-8.98-5.85-.56-11.05 3.25-14.63 7.51m106.6 7.87c-1.44 7.2 1.18 14.64 4.99 20.69 6.24-1.56 11.83-6.28 13.54-12.6 2.34-7.36-.93-15.24-5.39-21.12-6.07 1.83-11.23 7-13.14 13.03m-142.56.84c1.35 7.2 4.78 14.57 11.15 18.62 6.35 3.5 13.98 2.19 20.73.75 2.77-.49 2.08-4.1 1.63-6.09-1.15-7.42-6.53-14.06-13.81-16.18-6.67-1.43-13.71-.33-19.7 2.9m54.19 6.06c-3.18 1.1-6.05 2.95-8.6 5.12-.69.71-2.02 1.43-1.35 2.6 2.57 3.52 6.12 6.61 10.4 7.78 5.91 1.07 11.68-1.56 16.43-4.87 1.21-.51 1.49-1.82 1.03-2.96-3.05-6.61-11.03-9.74-17.91-7.67m199.88 2.06c2.09 5.33 5.38 10.87 11 12.99 7.19 2.41 15.09 1.68 22.3-.3-.28-8.64-8.46-14.98-16.67-15.22-5.66-.43-11.41.21-16.63 2.53m-152.02 3.38c-.04 5.13 2.8 10.2 7.03 13.05 4.74 2.51 10.24 1.04 15.17.03.36-6.05-2.78-12.24-8.54-14.57-4.52-.99-9.52-.7-13.66 1.49m74.97 10.93c-.67 1.53-1.95 4.14.45 4.81 5.08 2.42 11.11 5.02 16.68 2.57 5.5-2.55 9.15-7.68 12.24-12.7-3.55-4.29-9.15-6.86-14.74-6.19-6.81.19-12.05 5.6-14.63 11.51m41.99-6.57c-3.79 1.86-6.36 5.96-6.99 10.06 3.23 2.65 7.78 2.27 11.67 1.9 3.14-1.1 5.15-4.01 6.9-6.67.62-1.13 1.54-2.92.38-3.98-3.45-2.27-8.14-3.26-11.96-1.31m-145.06 10.8c1.44 4.22 3.07 8.8 6.82 11.53 5.55 4.14 13.07 2.85 19.31 1.26.71-6.96-4.52-13.51-11.09-15.31-5.12-1.06-10.54-.13-15.04 2.52m79.58-.44c-2.6 2.52-2.42 6.3-2.44 9.63 2.95.1 5.99.47 8.9-.28 4.29-2.11 5.82-7.15 6.21-11.57-4.21-1.81-9.56-1.45-12.67 2.22m71.88 14.55c-.38 1.34-1.1 3.54.9 3.85 4.89 1.79 10.61 3.35 15.54.83 5.65-2.92 9.11-8.73 11.49-14.42-4.15-2.99-9.45-5.08-14.58-3.58-6.67 1.26-11.04 7.36-13.35 13.32m-228.24-10.76c-6.07 1.5-11.52 6.99-12.23 13.25 3.44 2.44 7.58 3.95 11.78 4.35 5.7-.13 10.33-4.3 13.7-8.53.88-1.31 2.33-2.65 1.82-4.38-3.73-4.13-9.66-5.91-15.07-4.69m269.1.21c-1.46.54-3.66.44-4.36 2.1.54 7.07 6.36 13.91 13.72 14.25 3.91.1 8.09-.16 11.7-1.66.81-5.62-2.65-11.08-7.53-13.64-4.11-2.31-9.08-1.87-13.53-1.05m-226.57 5.22c-3.82 2.69-6.2 6.86-7.91 11.1 3.54 2.25 7.56 3.94 11.86 3.61 7.42.24 12.17-6.64 15.88-12.11-4.3-6.34-13.96-7.12-19.83-2.6m82.3 2.33c-5.26 1.46-7.64 7.54-7.11 12.58-.87 9.14 6.86 19.86 16.74 18.47 6.14-.89 9.17-7.87 8.62-13.49.18-9.29-8.13-20.01-18.25-17.56m-111.69 14.12c-2.18 5.06-.12 11.19 3.37 15.12 3.83.5 7.1-2.48 9.25-5.32 1.64-5.24-.46-10.53-2.89-15.14-3.85-.06-8.06 1.66-9.73 5.34m169.93-5.08c-12.74 5.33-23.53 14.19-33.46 23.6-12.03 12.8-22.44 27.25-29.72 43.28-5.49 12.82-9.5 26.59-9.25 40.65-.15 9.98.14 19.97.31 29.95.14 2.61-.37 5.18-1.27 7.63 3.49 1.1 7.17.61 10.77.67 4.97-.11 9.96.31 14.91-.33-2.29-6.08-4.3-12.35-4.47-18.91-.77-6.31-1.26-12.7-.32-19.02.8-16.99 4.87-33.78 11.52-49.42 8.01-18.32 20.09-34.77 34.91-48.18 3.5-3.87 8.63-6.26 11.08-11.03-1.73.11-3.45.36-5.01 1.11m18.96 2.25c-.44 7.38 2.35 15.53 8.96 19.48 5.44 2.95 11.92 2.5 17.9 2.24 2.29-7.39-1.22-15.95-7.84-19.88-5.65-3.7-12.71-2.26-19.02-1.84m-152.73 28.29c-.12 9.09 6.54 16.38 13.3 21.62 1.47 1 3.39 2.95 5.24 1.62 4.36-3.63 8.29-7.95 10.74-13.11 2.91-5.7 3.27-12.43 2.01-18.62-2.92-8.14-10.47-13.58-18.31-16.53-6.33 7.01-11.77 15.49-12.98 25.02m28.39-24.03c.14.63.42 1.91.56 2.55 1.76.87 3.57 1.67 5.47 2.24 2.08 1.69 4.43 3.01 6.64 4.53 12.93 8.79 23.14 21.09 30.88 34.57 1.24-.22 2.46-.72 2.96-1.99 1.69-3.21 4.01-6.01 6-9.03-.4-2.63-3.16-4-4.72-5.93-10.47-11.09-23.57-19.64-37.94-24.72-2.8-2.09-6.47-2.45-9.85-2.22m171.13 3.61c1.52 6.05 4.95 12.17 10.77 14.95 6.95 2.65 14.57 1.66 21.6-.15.37-6.22-3.14-12.46-8.77-15.21-7.29-4.2-16.2-2.68-23.6.41m-59.9 12.7c-.01 4.74-.68 9.97 2.19 14.11 3.12 4.17 8.21 6.31 13.22 7.12 1.34.05 3.35.77 4.29-.54 1.21-4.91.98-10.65-2.49-14.64-4.15-4.99-10.97-6.63-17.21-6.05m-18.93 10.39c-.03 3.71.55 7.77 3.21 10.58 2.74 2.13 6.67 2.43 9.86 1.16.16-4.26-.38-9.25-4.27-11.8-2.64-1.97-5.98-.77-8.8.06m87.86 126.36c-.11 2.36 3.52 2.58 3.83 4.97 1.43 3.52-1.97 6.01-3.36 8.84 7.54-1.29 10.95-14.17 3.22-17.66-1.25 1.27-2.59 2.46-3.69 3.85m-191.93 7.25c-4.12 9.77-8.81 19.28-12.95 29.04-1.01 2.93-3.69 4.63-5.6 6.92 4.26.04 8.52.17 12.77.19.07-1.78-2.62-1.61-3.75-2.44-.32-.5-.98-1.49-1.3-1.99 1.6-4.04 2.79-8.56 5.63-11.9 4.82-.94 10.01-.28 14.97-.33.27.2.81.59 1.08.79 1.77 4.31 3.86 8.67 4.14 13.4-1.45.37-2.63 1.11-3.55 2.23 5.16.18 10.33.15 15.49.08-.9-2.19-3.76-1.87-5.14-3.5-.77-.95-1.22-2.09-1.68-3.2-3.15-8.29-6.45-16.52-9.74-24.76-1.85-4.68-3.3-9.55-5.73-13.98-1.82 3.01-3.19 6.25-4.64 9.45m114.45-7.46c-.26.35-.8 1.06-1.06 1.41 1.52.43 3.06.89 4.6 1.32 1.31 2.92 1.17 6.18 1.32 9.32.03 6.01.01 12.03.02 18.05-.07 3.72.07 7.59-1.52 11.06-1.31.63-3.01.97-3.38 2.6 5.74-.45 11.49-.2 17.23-.11-1.89-2.49-6.69-1.47-7.3-5.29-.2-4.9.02-9.81-.06-14.71l6.4-.06c3.35 4.24 5.8 9.09 9.03 13.43 2.01 3.13 4.72 6.76 8.85 6.74 1.86-.22 5.11.75 5.66-1.74-3.58.04-6.38-2.5-8.27-5.28-3.35-4.92-6.51-9.96-10.1-14.7 2.84-2.04 6.13-4.2 7.08-7.8.83-4.11.59-9.63-3.62-11.85-7.57-4.68-16.66-1.07-24.88-2.39m41.52-.37c-.03.47-.1 1.42-.13 1.9 1.4.23 3.04.06 4.09 1.24 1.29 1.83 1.12 4.16 1.17 6.29-.06 9.68.06 19.37-.03 29.06.19 2.79-3.03 3.73-4.62 5.38 4.71.23 9.41-.57 14.12-.17 4 .09 8.04.79 12.03.15 3.78-1.32 6.45-5.34 6.45-9.3-5.12 5.71-13.16 7.17-20.48 6.25-1.63-.12-2.62-1.88-2.44-3.39-.12-4.72-.11-9.43.11-14.13 4.53.09 9.26-.82 13.59.87.46 1.47.95 2.94 1.45 4.42.34-.26 1.03-.77 1.37-1.02-.91-3.98.14-8.06-.23-11.98-1.94-.19-1.69 2.33-2.45 3.5-4.42 1.71-9.25 1.05-13.86.89-.03-5.31-.02-10.61-.01-15.92 5-1.76 10.48-.85 15.59 0 1.85 1.07 1.45 3.29 1.7 5.1.39 0 1.19.01 1.58.02.24-2.85.54-5.68 1.06-8.49-1.15-.16-2.3-.36-3.45-.35-8.85.73-17.79.85-26.61-.32m-131.99.8c-.57 3.25-1.07 6.52-1.2 9.83 2.84-1.03 1.79-5.36 4.82-6.11 3.63-.94 7.49-.49 11.2-.42.26.31.78.92 1.03 1.23.24 10.39.01 20.79.11 31.19.13 1.79-.51 3.48-1.08 5.14-1.5.42-2.99.85-4.47 1.31l.83.99c5.17-.25 10.37.21 15.53-.28-2.01-1.54-5.79-2.17-5.79-5.3-.14-11.28-.07-22.56-.02-33.84 4.12-.85 8.41-.71 12.58-.28 2.01.36 2.68 2.14 2.89 3.94l1.48.16c-.21-2.36.05-4.81 1.64-6.68 1.4 1.21 4.44 1.55 4.55 3.84 1.02 9-.57 18.15 1.01 27.09 1.15 6.01 6.51 10.39 12.4 11.36 5.18.7 10.79.66 15.45-2.04 4.02-1.93 6.63-6.06 7.27-10.39 1.48-8.57.43-17.31.83-25.96-.26-2.43 3.05-2.75 3.52-4.92-3.74-.29-7.54.35-11.26-.49-.24.31-.7.93-.93 1.24 2.11.67 5.06 1.2 5.59 3.81.79 4.72.19 9.55.38 14.32-.17 4.8.65 9.88-1.33 14.42-4.11 9.64-19.36 10.42-25.36 2.32-3.18-5.72-2.08-12.52-2.26-18.79.23-4.75-.68-9.65.73-14.27 1.33-.67 2.65-1.39 3.78-2.39-17.97.12-35.94-.09-53.92-.03m180.39 10.45c-3.67 4.54-4.93 10.54-4.46 16.28.13 7.86 5.03 15.12 11.83 18.89 9.66 6.26 21.24 8.22 31.45 13.29 4.7 2.07 8.21 6.64 9.07 11.69 1.45 6.38-1.52 13.26-6.67 17.15-4.13 3.64-9.68 5.19-15.08 5.41-10.19.25-20.08-5.38-25.66-13.79-2.06-3-2.86-6.59-4.38-9.84-3.09-1.52-2.86 2.33-2.49 4.26.97 6.11 3.34 11.89 4.43 17.97 3.9 4.2 9.93 5.09 15.28 6.13 11.6 1.81 25.06.38 33.58-8.55 10.71-9.27 12-27.97 1.56-37.93-9.71-9.79-24.12-11.26-36.07-17.01-5.16-2.91-9.21-8.56-8.88-14.67-.58-5.76 3.37-11 8.28-13.57 5.77-3.2 12.84-2.52 18.96-.73 7.43 2.63 14.69 7.74 17.24 15.53.45 1.97 2.27 5.3 4.4 2.76-.38-6.04-1.8-11.97-2.34-18-.29-1.28-.07-2.83-1.04-3.84-2.02-.06-3.77 1.85-5.78 1.2-4.29-1.5-8.46-3.67-13.1-3.82-10.92-1.13-23.45 1.81-30.13 11.19m-320.3-7.58c4.11.49 8.35 2 10.9 5.45 5.79 7.43 6.1 17.4 5.93 26.41-.09 15.31.09 30.63-.07 45.93-.02 5.02-2.32 10.29-7.24 12.24-1.68 1.09-5.83 1.34-4.45 4.29 2.8.3 5.61-.13 8.41-.26 7.25-.41 14.49.7 21.74.38-.38-.97-.23-2.52-1.55-2.77-3.26-1-7.38-1.14-9.46-4.25-2.15-4.23-1.23-9.1-1.42-13.64.19-16.47-.36-32.98.27-49.42 1.77-.93 2.51 1.13 3.54 2.14 19.55 22.49 39.2 44.9 58.75 67.39 1.39 2.48 5.12 1.06 4.62-1.7.26-23.77.08-47.57.13-71.35.09-5.45-.44-11.07 1.19-16.34 1.16-2.9 4.36-3.89 7.12-4.56-.4-1 0-3.49-1.86-2.69-9.44 1.94-19.02.42-28.52.31l.84 2.57c4.12 1.4 9.11 1.55 12.13 5.12 2.94 3.84 2.57 9.01 2.88 13.58.57 18.42.25 36.86.21 55.29-3.32-2.29-5.52-5.75-8.25-8.65-18.75-21.51-37.78-42.79-56.62-64.23-1.59-1.58-3.11-4-5.67-3.76-4.49-.04-8.98.1-13.47-.22-.03.91-.06 1.82-.08 2.74m110.01 55.24c-11.26 7.84-12.75 26.32-2.58 35.62 5.4 5.12 13.44 5.49 20.42 4.49 4.83-.73 8.65-3.95 13.13-5.59.11-4.29-.15-8.58.1-12.86.02-2.11 2.38-3.01 3.59-4.39-4.43-.08-8.86.12-13.29.03-.29.3-.86.88-1.15 1.18 1.54.27 3.11.53 4.67.75 1.59 3.2.82 6.87.98 10.31.55 4.09-3.4 6.7-6.64 8.12-5.5 1.59-12.18.92-16.27-3.45-7.23-6.55-8.82-17.82-5.02-26.57 2.45-5.24 7.59-9.57 13.59-9.56 8.04-.05 15.53 5.1 19.02 12.26.42-.87 1.29-1.68.75-2.75-.34-2.95-.43-5.95-1.25-8.82l-1.77 1.09c-8.65-4.22-20.01-5.71-28.28.14m38.44-2.34c2.04.89 5.45 1.13 5.73 3.94.36 9.32.03 18.66.17 27.99-.1 2.34.26 4.84-.66 7.06-1.26 1.39-2.95 2.29-4.42 3.46 4.43.17 8.83-.79 13.26-.3 4.6.1 9.39 1.16 13.86-.36 3.36-1.18 4.97-4.64 5.85-7.84-2.29.24-3.34 2.58-5.27 3.53-5.17 2.72-11.23 2.18-16.86 1.96-1.58-6.07-.57-12.38-.84-18.57.22-5.58-.49-11.25.36-16.78.43-2.64 3.25-3.22 5.08-4.61-4.07-.29-8.15-.02-12.22-.22-1.4-.03-2.95-.35-4.04.74m49.54-.23c-13.12 3.6-18.22 20.65-12.14 32.03 6.98 14.21 29.93 15.07 38.74 2.27 3.9-5.44 5.17-12.63 3.61-19.11-1-6.08-5.49-10.98-10.6-14.07-6.05-2.87-13.26-3.12-19.61-1.12m34.53.2c2.24.93 5.63.92 6.16 3.9 1 6.63.17 13.4.44 20.09-.14 5.35.63 10.88-1.28 16.03-1.52.64-3.01 1.37-4.39 2.29 5.8.23 11.62-.21 17.42.3-.96-2.12-3.67-1.87-5.56-2.55-2.37-5.6-.73-11.89-1.18-17.79 2.45.24 5.87-1.04 7.33 1.69 3.56 5.13 6.73 10.54 10.53 15.5 2.68 3.21 8.61 4.93 11.88 1.83-2.42-.51-4.86-1.3-6.37-3.4-4.38-5.34-7.79-11.39-11.79-17.02 2.59-1.51 5.26-3.34 6.37-6.26 2.45-5.02.69-12.29-4.86-14.35-6.02-2.11-12.52-.75-18.74-.91-1.99.09-4.2-.57-5.96.65m35.79-.74c2.19 1.5 5.2 1.79 6.74 4.18 2.74 3.94 5.16 8.11 7.75 12.15 1.68 2.95 4.29 5.71 4.09 9.34-.08 5.09.49 10.28-.92 15.25-1.56.45-3.12.93-4.64 1.47.23.18.71.53.94.71 3.38.12 6.8-.32 10.18.09 1.68 0 3.74.65 5.07-.75-1.62-.46-3.25-.87-4.88-1.23-1.12-6.1-.49-12.4-.48-18.56 2.75-5.98 7.42-10.85 10.67-16.56 1.3-2.86 4.3-4.08 6.71-5.81-4.79-.24-9.6-.26-14.39-.06 1.63 1.25 3.4 2.3 5.17 3.37-1.57 4.64-4.71 8.47-7.26 12.59-.78.74-1.08 2.49-2.39 2.34-2.93-4.61-6.3-9-8.75-13.89-1.3-2.24 1.26-3.38 2.63-4.61-5.42.18-10.83-.06-16.24-.02m-264.39 55.13c.03 1.01.08 3.03.11 4.04 11.15.5 22.33.08 33.49.22h175.99c54.14-.11 108.29.22 162.43-.16v-4.06c-15.13-.54-30.3-.09-45.44-.24-91.34.01-182.67 0-274.01 0-17.52.13-35.05-.25-52.57.2z" fill="#fff"/><path d="m371.47 542.86c4.62-.5 9.46.59 13.17 3.45 10.03 7.08 12.17 23.7 3.03 32.34-4.87 5.23-13.46 5.71-19.42 2.1-9.52-6.08-12.94-19.51-8.25-29.62 2.04-4.54 6.61-7.6 11.47-8.27z" fill="#fff"/><path d="m171.64 122.46c3.02-1.02 6.24-.56 9.37-.62 119.32.01 238.64 0 357.96.01 1.14.09 2.28.28 3.41.57-.19 116.4-.1 232.81-.05 349.21-54.14.28-108.28.03-162.43.12-.98-2.85-1.92-5.72-2.81-8.61 23.97-.64 47.95-.05 71.91-.29 27.93.01 55.86.16 83.78.1.2-41.3-.07-82.62.09-123.93.32-5.66.17-11.33-.03-16.99.27-19.68-.04-39.37 0-59.05-.01-43.92.08-87.84-.07-131.76-117.31 0-234.63-.01-351.95.01-.34 89.58-.03 179.17-.15 268.76.11 20.98-.19 41.96.15 62.94 4.39.2 8.79.27 13.19.22 24.66-.66 49.33-.07 73.98-.24 13.47.3 26.95-.35 40.42.1.02 2.92.02 5.84 0 8.77-45.54-.06-91.07-.03-136.61-.02-.1-104.24-.01-208.49-.04-312.74-.08-12.18.16-24.38-.12-36.56zm-2.14 366.72c.02-.92.05-1.83.08-2.74 4.49.32 8.98.18 13.47.22 2.56-.24 4.08 2.18 5.67 3.76 18.84 21.44 37.87 42.72 56.62 64.23 2.73 2.9 4.93 6.36 8.25 8.65.04-18.43.36-36.87-.21-55.29-.31-4.57.06-9.74-2.88-13.58-3.02-3.57-8.01-3.72-12.13-5.12l-.84-2.57c9.5.11 19.08 1.63 28.52-.31 1.86-.8 1.46 1.69 1.86 2.69-2.76.67-5.96 1.66-7.12 4.56-1.63 5.27-1.1 10.89-1.19 16.34-.05 23.78.13 47.58-.13 71.35.5 2.76-3.23 4.18-4.62 1.7-19.55-22.49-39.2-44.9-58.75-67.39-1.03-1.01-1.77-3.07-3.54-2.14-.63 16.44-.08 32.95-.27 49.42.19 4.54-.73 9.41 1.42 13.64 2.08 3.11 6.2 3.25 9.46 4.25 1.32.25 1.17 1.8 1.55 2.77-7.25.32-14.49-.79-21.74-.38-2.8.13-5.61.56-8.41.26-1.38-2.95 2.77-3.2 4.45-4.29 4.92-1.95 7.22-7.22 7.24-12.24.16-15.3-.02-30.62.07-45.93.17-9.01-.14-18.98-5.93-26.41-2.55-3.45-6.79-4.96-10.9-5.45z" fill="#334133"/><path d="m564.57 127.27c8.18-.01 16.36-.01 24.54 0 .02 1.45.04 2.91.08 4.37-3.25.04-6.5.04-9.74 0-.1 8.52 0 17.05-.05 25.57l-5.15-.03c-.04-8.51 0-17.01-.02-25.52-3.22.01-6.44.01-9.65-.01-.01-1.46-.01-2.92-.01-4.38z" fill="#040303"/><path d="m592.32 127.24c2.5.01 5.01.02 7.52.06 2.47 7.67 4.73 15.41 7.39 23.02 2.53-7.65 4.71-15.4 7.16-23.07 2.46 0 4.92.01 7.38 0-.02 9.95-.01 19.9 0 29.85-1.49.07-2.96.15-4.42.24-.56-7.62.15-15.27-.38-22.89-3.38 7.3-4.68 15.41-7.6 22.91-1.59-.16-3.17-.33-4.74-.54-2.25-7.81-4.8-15.53-7.25-23.28-.3 7.86-.45 15.72-.53 23.59-1.48.05-2.95.11-4.41.17-.27-10.02-.03-20.04-.12-30.06z" fill="#060308"/><path d="m180.82 131.23c117.32-.02 234.64-.01 351.95-.01.15 43.92.06 87.84.07 131.76-.04 19.68.27 39.37 0 59.05.2 5.66.35 11.33.03 16.99-.16 41.31.11 82.63-.09 123.93-27.92.06-55.85-.09-83.78-.1-23.96.24-47.94-.35-71.91.29.89 2.89 1.83 5.76 2.81 8.61-2.34-.01-4.68-.01-7.01-.01-3.04-11.36-4.61-23.07-5.44-34.78-2.05-20.49 3.07-41.58 13.48-59.28 5.97 2.48 11.43 6.53 18.05 7.14 2.26.13 4.81 1.18 6.92.23 1.78-2.75 2.63-6 4.41-8.75 2.63-.3 4.81 1.94 7.17 2.89 4.76 2.79 10.31 3.49 15.74 3.35 4.42-3.55 8.5-8.62 8.27-14.59.06-2.2-.53-4.33-1.01-6.44 5.17-.38 11.36 1.42 15.56-2.51 3.68-2.94 4.34-7.83 5.61-12.06 5.93 6.21 12.01 13.42 20.76 15.44 9.65 1 19.38.21 28.96-1.13.28-6.1.52-12.44-1.77-18.22-1.18-3.25-3.49-5.87-5.74-8.42 5.39-.76 10.83-1.72 15.79-4.09.13-3.82.61-7.81-.69-11.48-1.49-4.12-5.36-6.71-7.06-10.7 2.96-1.32 5.88-2.71 8.81-4.1-.61-6.95-3.38-13.75-7.93-19.05-4.01-4.47-10-6.29-15.69-7.41 5.73-1.48 13.06-2.71 15.67-8.78.2-6.55-3.11-12.72-6.77-17.95-5.05-6.86-13.94-8.68-21.92-9.38 2.18-5.95 3.02-12.26 2.62-18.59-8.57-1.62-17.51-2.26-26.11-.49-1.95-3.61-3.68-7.63-7.27-9.93-3.78-2.57-8.45-3.35-12.94-3.35 2.28-4.43 4.03-9.26 4.12-14.29.04-4.25-1.29-8.32-2.38-12.37-7.68-.97-15.44-.27-23.03 1.05-5.53-7.32-15.51-6.92-23.68-6.11 1.59-5.68 2.03-11.89.48-17.63-2.04-6.37-7.67-11.16-13.82-13.41-8.08.72-16.73 4.11-21.2 11.28-1.84 2.72-3.38 5.63-4.78 8.59-7.18.05-14.76-1.14-21.55 1.82-2.6 1.02-4.69 2.91-7.02 4.39-5.94-2.11-12.18-3.69-18.56-3.17-4.21-.3-7.02 3.48-9.03 6.64-3.82 6.05-3.31 13.92-.11 20.11-3.68 1.57-6.98 3.9-10.69 5.35-2.68 1.12-4.66-1.64-6.86-2.65-7.67-4.08-16.92-3.88-25.19-1.91-5.53 1.28-10.32 4.5-14.68 8.01-.09 9.8 5.06 18.61 11.64 25.51-11.53-1.39-23.27-1.55-34.67.91.23 6.37-1.35 12.85.37 19.12 1.67 5.67 5.37 10.43 9.19 14.83-6.58-.06-13.45 1.65-18.43 6.15-1.84 2.43.03 5.71.12 8.46.79 6.67 4.73 12.24 7.32 18.26-13.31 2.63-22.73 14.71-24.85 27.69 6.35 6.87 15.18 12.53 24.89 11.8 1.57.37 4.01-.76 5.06.77 1.7 7.19 3.08 14.82 7.26 21.06 5.91.69 12.03-.14 17.39-2.79 2.62-1.23 4.82-3.18 7.36-4.57.26.15.77.45 1.02.6.76 11.44 3.6 23.79 12.47 31.79 5.18 4.51 10.97 8.69 17.48 10.97 5.8-1.55 10.99-5.14 15.35-9.2 6.37-6.18 8.43-15.1 10.38-23.42.95.47 2 .81 2.8 1.55 5.45 5.14 10.28 10.96 14.06 17.43-6.17 12.98-10.33 26.92-12.71 41.09-2 16.08-2.07 32.41-.39 48.52-2.36.16-4.73.22-7.09.24.02-2.93.02-5.85 0-8.77-13.47-.45-26.95.2-40.42-.1-24.65.17-49.32-.42-73.98.24-4.4.05-8.8-.02-13.19-.22-.34-20.98-.04-41.96-.15-62.94.12-89.59-.19-179.18.15-268.76m3.78 3.51c-.26 13.08 0 26.17-.12 39.26.06 95.07-.1 190.15.07 285.23 18.81.13 37.62 0 56.43.04 22.57-.13 45.15.29 67.71-.2.58-15.57 1.88-31.26 6.12-46.32 2.2-8.97 5.91-17.47 9.8-25.8.04-3.78-2.6-7-4.32-10.22-2.21-3.19-4.15-6.81-7.6-8.83-1.09 5.54-2.25 11.15-4.68 16.28-3.88 7.4-10.88 12.54-18.1 16.39-2.7 1.32-5.99 3.29-8.87 1.29-8.28-4.54-16.33-10.37-21.17-18.67-4.54-8.59-5.17-18.48-6.08-27.96-7.45 5.84-17.05 9.98-26.61 8.72-4.62-6.65-5.87-14.92-7.66-22.66-6.8.32-13.99-.16-19.95-3.8-3.76-2.42-7.8-4.92-10.32-8.69-.2-5.37 2.22-10.44 4.51-15.16 4.2-7.91 12.24-12.63 20.08-16.34-5.57-6.37-7.77-14.74-9.5-22.81-.14-1.2-.68-2.75.63-3.51 4.42-3.28 9.5-6.2 15.11-6.6 1.06-.2 2.52.02 2.89-1.33-2.07-3.61-4.71-6.92-6.11-10.89-3.09-7.59-2.52-15.9-2.54-23.91 6.15-1.36 12.43-2.13 18.71-2.48 5.41.14 10.68 1.45 16.04 2.06-3.3-4.81-6.94-9.5-8.81-15.11-1.01-3.21-3.2-6.3-3.15-9.7 5.18-5.06 12.17-8.02 19.14-9.75 10.88-2.74 22.87-.3 31.77 6.54 3.21-1.64 6.27-3.58 9.14-5.76-2.2-5.68-2.82-12.11-1.09-17.99 1.69-3.94 3.82-8.44 7.83-10.41 7.86-.33 15.86.85 23.11 4.04 7.59-8 19.53-7.24 29.62-6.91 2.47-5.52 5.38-11.14 10.29-14.89 4.13-3.11 9.07-5.01 14.08-6.15 1.34-.44 2.59-.27 3.76.5 3.52 1.93 6.76 4.47 9.28 7.61 5.73 7.18 6.16 17.19 4.41 25.85 4.64-1.14 9.63-2.17 14.28-.5 3.37.88 5.71 3.48 8.31 5.58 8.08-1.7 16.39-3.63 24.7-2.52 3.24 9.15 3.5 19.73-1.58 28.29 4.88 1.04 10.19 1.79 14.08 5.2 2.48 2.11 3.89 5.11 5.14 8.05 9.34-.52 18.88-1.18 28.05 1.1-.41 6.57-1.61 13.04-3.33 19.38 4.7.84 9.41 1.88 13.8 3.82 9.1 4.8 15.2 14.67 15.64 24.92-2.08 4.98-7.64 7.78-12.69 8.92 3.23 2.63 7.46 3.7 10.51 6.61 6.06 5.54 9.04 13.65 10.21 21.62-3.29 1.44-6.51 3.02-9.63 4.78 1.73 2.23 3.66 4.3 5.39 6.55 3.28 4.43 4.04 10.37 2.91 15.67-4.62 3.35-10.63 3.79-16.16 3.53 2.09 3.65 5.14 6.8 6.28 10.95a56.722 56.722 0 0 1 2.17 17.77c-10.36 1.46-21 2.73-31.42 1.02-8.99-1.92-15.34-9.08-21.98-14.87-.76 4.41-.92 9.71-5.08 12.45-4.46 2.74-9.98 1.19-14.91 1.23.34 3.94 1.6 8.04.22 11.91-1.04 3.33-3.23 6.15-5.69 8.55-2.78 2.99-7.31 1.46-10.81 1.06-5.89-.83-10.57-4.56-15.35-7.75-1.39 4.14-2.58 8.36-4.3 12.39-5.3-.85-10.72-1.65-15.57-4.08-3.81-1.57-7.14-4.14-11.11-5.33-7.98 15.7-11.46 33.66-9.81 51.2.65 7.41 2.41 14.65 3.94 21.91.53 1.73.66 4.71 3.26 4.15 50.44-.03 100.9.08 151.34-.05.05-108.12.03-216.24.01-324.36-17.44-.25-34.88-.04-52.32-.11h-292.35z" fill="#a7924e"/><path d="m184.6 134.74h292.35c17.44.07 34.88-.14 52.32.11.02 108.12.04 216.24-.01 324.36-50.44.13-100.9.02-151.34.05-2.6.56-2.73-2.42-3.26-4.15-1.53-7.26-3.29-14.5-3.94-21.91-1.65-17.54 1.83-35.5 9.81-51.2 3.97 1.19 7.3 3.76 11.11 5.33 4.85 2.43 10.27 3.23 15.57 4.08 1.72-4.03 2.91-8.25 4.3-12.39 4.78 3.19 9.46 6.92 15.35 7.75 3.5.4 8.03 1.93 10.81-1.06 2.46-2.4 4.65-5.22 5.69-8.55 1.38-3.87.12-7.97-.22-11.91 4.93-.04 10.45 1.51 14.91-1.23 4.16-2.74 4.32-8.04 5.08-12.45 6.64 5.79 12.99 12.95 21.98 14.87 10.42 1.71 21.06.44 31.42-1.02.22-5.99-.51-12.02-2.17-17.77-1.14-4.15-4.19-7.3-6.28-10.95 5.53.26 11.54-.18 16.16-3.53 1.13-5.3.37-11.24-2.91-15.67-1.73-2.25-3.66-4.32-5.39-6.55 3.12-1.76 6.34-3.34 9.63-4.78-1.17-7.97-4.15-16.08-10.21-21.62-3.05-2.91-7.28-3.98-10.51-6.61 5.05-1.14 10.61-3.94 12.69-8.92-.44-10.25-6.54-20.12-15.64-24.92-4.39-1.94-9.1-2.98-13.8-3.82 1.72-6.34 2.92-12.81 3.33-19.38-9.17-2.28-18.71-1.62-28.05-1.1-1.25-2.94-2.66-5.94-5.14-8.05-3.89-3.41-9.2-4.16-14.08-5.2 5.08-8.56 4.82-19.14 1.58-28.29-8.31-1.11-16.62.82-24.7 2.52-2.6-2.1-4.94-4.7-8.31-5.58-4.65-1.67-9.64-.64-14.28.5 1.75-8.66 1.32-18.67-4.41-25.85-2.52-3.14-5.76-5.68-9.28-7.61-1.17-.77-2.42-.94-3.76-.5-5.01 1.14-9.95 3.04-14.08 6.15-4.91 3.75-7.82 9.37-10.29 14.89-10.09-.33-22.03-1.09-29.62 6.91-7.25-3.19-15.25-4.37-23.11-4.04-4.01 1.97-6.14 6.47-7.83 10.41-1.73 5.88-1.11 12.31 1.09 17.99a61.089 61.089 0 0 1 -9.14 5.76c-8.9-6.84-20.89-9.28-31.77-6.54-6.97 1.73-13.96 4.69-19.14 9.75-.05 3.4 2.14 6.49 3.15 9.7 1.87 5.61 5.51 10.3 8.81 15.11-5.36-.61-10.63-1.92-16.04-2.06-6.28.35-12.56 1.12-18.71 2.48.02 8.01-.55 16.32 2.54 23.91 1.4 3.97 4.04 7.28 6.11 10.89-.37 1.35-1.83 1.13-2.89 1.33-5.61.4-10.69 3.32-15.11 6.6-1.31.76-.77 2.31-.63 3.51 1.73 8.07 3.93 16.44 9.5 22.81-7.84 3.71-15.88 8.43-20.08 16.34-2.29 4.72-4.71 9.79-4.51 15.16 2.52 3.77 6.56 6.27 10.32 8.69 5.96 3.64 13.15 4.12 19.95 3.8 1.79 7.74 3.04 16.01 7.66 22.66 9.56 1.26 19.16-2.88 26.61-8.72.91 9.48 1.54 19.37 6.08 27.96 4.84 8.3 12.89 14.13 21.17 18.67 2.88 2 6.17.03 8.87-1.29 7.22-3.85 14.22-8.99 18.1-16.39 2.43-5.13 3.59-10.74 4.68-16.28 3.45 2.02 5.39 5.64 7.6 8.83 1.72 3.22 4.36 6.44 4.32 10.22-3.89 8.33-7.6 16.83-9.8 25.8-4.24 15.06-5.54 30.75-6.12 46.32-22.56.49-45.14.07-67.71.2-18.81-.04-37.62.09-56.43-.04-.17-95.08-.01-190.16-.07-285.23.12-13.09-.14-26.18.12-39.26z" fill="#314134"/><path d="m377.47 155.77c1.48-.47 4.13-1.41 4.73.73 1.92 5.18 3.93 10.9 2.19 16.42-1.72 7.85-9.29 14.25-17.51 13.51-1.47-6.03-3.31-12.36-1.57-18.55 1.27-6 6.87-9.82 12.16-12.11zm-119.17 115.23c3.58-4.26 8.78-8.07 14.63-7.51 5.31-.17 10.67 3.76 11.85 8.98-5.04 3.72-11.06 7.67-17.63 5.83-3.55-1.5-6.66-4.13-8.85-7.3z" fill="#50a847"/><path d="m335.49 180.89c6.09-1.83 13.45-3.04 18.99.91 4.19 2.79 6.33 7.88 6.26 12.82-6.23 1.78-13.66 3-19.29-1.03-3.67-3.02-6.76-7.78-5.96-12.7zm113.19 82.73c2.39-2.22 5.25-4.04 8.41-4.92 3.07-.48 6.19-.12 9.28.02.63 4.5-.64 8.93-1.87 13.22-1.51 5.23-4.99 10.17-10.14 12.31-3.81 1.36-7.85 2.11-11.89 2.16-.84-7.97.5-16.78 6.21-22.79zm39.93 46.31c4.45-.82 9.42-1.26 13.53 1.05 4.88 2.56 8.34 8.02 7.53 13.64-3.61 1.5-7.79 1.76-11.7 1.66-7.36-.34-13.18-7.18-13.72-14.25.7-1.66 2.9-1.56 4.36-2.1zm-226.57 5.22c5.87-4.52 15.53-3.74 19.83 2.6-3.71 5.47-8.46 12.35-15.88 12.11-4.3.33-8.32-1.36-11.86-3.61 1.71-4.24 4.09-8.41 7.91-11.1z" fill="#50a947"/><path d="m307.57 180.52c5.58-.51 11.97-.62 16.31 3.52 5.09 4.45 5.67 11.86 4.21 18.07-6.29 1.83-14.15-.74-18.1-6.14-2.95-4.59-2.54-10.25-2.42-15.45z" fill="#4fa847"/><path d="m387.27 193.3c3.93-5.05 11.03-7.77 17.19-5.56-.18 7.69-.29 16.72-6.38 22.34-3.81 3.97-9.58 4.88-14.84 4.76-1.59-7.29-.98-15.65 4.03-21.54zm28.15 2.08c4.15-3.96 10.26-5.21 15.84-4.88 1.53 4.8 2.16 10.55-1 14.84-3.13 4.11-8.36 5.5-13.28 5.82-1.23-.23-2.45-.46-3.68-.67-1.26-4.96-1.2-10.95 2.12-15.11zm-76.51 55.61c4.87.33 8.85 3.61 12.12 6.97 5.36 5.49 6.17 15.24.99 21.1-1.5 1.68-3.8.16-5.22-.83-4.79-3.51-10.13-7.86-10.72-14.21-.6-4.51.88-9.01 2.83-13.03zm-119.4 58.73c5.41-1.22 11.34.56 15.07 4.69.51 1.73-.94 3.07-1.82 4.38-3.37 4.23-8 8.4-13.7 8.53-4.2-.4-8.34-1.91-11.78-4.35.71-6.26 6.16-11.75 12.23-13.25z" fill="#50a946"/><path d="m253.45 208.35c3.33-2.29 7.63-2.59 11.55-2.68 8.07-.07 15.01 7.54 14.48 15.54-5.06 1.33-10.42 1.95-15.57.87-5.84-1.98-9.56-7.84-10.46-13.73zm70.94 82.86c4.14-2.19 9.14-2.48 13.66-1.49 5.76 2.33 8.9 8.52 8.54 14.57-4.93 1.01-10.43 2.48-15.17-.03-4.23-2.85-7.07-7.92-7.03-13.05z" fill="#50a848"/><path d="m294.41 206.45c1.11-.69 2.41-.06 3.12.9 3.5 3.84 5.48 9.97 2.52 14.69-1.42 2.33-3.64 5.39-6.77 4.63-2.51-2.58-4.15-6.05-4.63-9.62-.56-4.35 2.66-8.01 5.76-10.6zm81.46 99.48c3.11-3.67 8.46-4.03 12.67-2.22-.39 4.42-1.92 9.46-6.21 11.57-2.91.75-5.95.38-8.9.28.02-3.33-.16-7.11 2.44-9.63z" fill="#51a749"/><path d="m353.18 206.04c5.66.68 10.55 4.53 13.77 9.08 4.83 7.36 2.8 17.91-3.79 23.53-4.81-1.51-8.41-5.46-11.68-9.12-5.76-6.87-2.73-16.76 1.7-23.49zm11.72 72.83c1.91-6.03 7.07-11.2 13.14-13.03 4.46 5.88 7.73 13.76 5.39 21.12-1.71 6.32-7.3 11.04-13.54 12.6-3.81-6.05-6.43-13.49-4.99-20.69zm82.85 41.61c2.31-5.96 6.68-12.06 13.35-13.32 5.13-1.5 10.43.59 14.58 3.58-2.38 5.69-5.84 11.5-11.49 14.42-4.93 2.52-10.65.96-15.54-.83-2-.31-1.28-2.51-.9-3.85zm-26.21 8.29c6.31-.42 13.37-1.86 19.02 1.84 6.62 3.93 10.13 12.49 7.84 19.88-5.98.26-12.46.71-17.9-2.24-6.61-3.95-9.4-12.1-8.96-19.48z" fill="#51a847"/><path d="m426.24 222.18c6.21-5.5 16.59-5.18 22.43.75-3.25 6.18-7.49 12.63-14.25 15.3-5.42 1.14-10.99.09-15.98-2.16.11-5.54 3.8-10.37 7.8-13.89zm-15.07 30.95c4.45-4.04 10.92-5.44 16.66-3.63-.16 8.41-2.72 16.93-7.47 23.89-4.36 6.36-12.59 8.1-19.83 8.05-.02-10.2 2.57-21.41 10.64-28.31zm57.16 83.51c7.4-3.09 16.31-4.61 23.6-.41 5.63 2.75 9.14 8.99 8.77 15.21-7.03 1.81-14.65 2.8-21.6.15-5.82-2.78-9.25-8.9-10.77-14.95z" fill="#4fa947"/><path d="m311.29 234.55c-1.61-4.76-2.41-10.44.07-15.04 7.68 1.13 16.12 3.72 20.32 10.82 3.23 4.95 3.01 11.24.75 16.54-8.24-.66-17.25-4.62-21.14-12.32z" fill="#4fa946"/><path d="m267.31 230.49c6.21-.41 12.74-.25 18.25 3.03 5.07 2.93 9.41 8.35 9.03 14.48-.14 1.8.4 4.18-1.5 5.25-6.35-.53-13.08-1.37-18.54-4.94-5.71-3.85-7.73-11.25-7.24-17.82zm174.04 65.08c3.82-1.95 8.51-.96 11.96 1.31 1.16 1.06.24 2.85-.38 3.98-1.75 2.66-3.76 5.57-6.9 6.67-3.89.37-8.44.75-11.67-1.9.63-4.1 3.2-8.2 6.99-10.06z" fill="#50a846"/><path d="m457.55 232.58c4.52-3.7 10.76-3.42 16.06-1.86.58 5.48-1.14 11.65-5.58 15.18-4.5 3.18-10.51 2.94-15.64 1.7-.36-5.39.52-11.57 5.16-15.02zm-161.26 73.79c4.5-2.65 9.92-3.58 15.04-2.52 6.57 1.8 11.8 8.35 11.09 15.31-6.24 1.59-13.76 2.88-19.31-1.26-3.75-2.73-5.38-7.31-6.82-11.53z" fill="#52a748"/><path d="m382.08 235.09c4.82-2.47 10.44-4.51 15.88-2.94 3.09.83 6.43 1.75 8.71 4.14.57 2.54-1.16 4.89-2.19 7.11-3.53 6.66-8.46 13.57-16.06 15.77-6.45 1.08-13.06.33-19.18-1.96.44-8.75 5.47-17.36 12.84-22.12zm-89.71 32.65c7.58-5.54 17.93-8.46 26.96-4.88 6.23 2.66 12.15 9.04 11.11 16.23-7.9 2.26-16.41 6.05-24.62 2.83-6.54-2.23-10.64-8.2-13.45-14.18zm-70.03 11.97c5.99-3.23 13.03-4.33 19.7-2.9 7.28 2.12 12.66 8.76 13.81 16.18.45 1.99 1.14 5.6-1.63 6.09-6.75 1.44-14.38 2.75-20.73-.75-6.37-4.05-9.8-11.42-11.15-18.62z" fill="#4fa945"/><path d="m231.25 242.27c3.16-2.11 7.16-2.25 10.83-2.48 8.08.06 15.21 7.45 14.44 15.62-5.12 1.47-10.64 1.87-15.85.71-5.46-2.15-9.54-7.96-9.42-13.85z" fill="#51a748"/><path d="m475.2 253.76c4.58-2.28 9.8-2.98 14.84-2.17 6.07 1.74 10.75 7.15 11.38 13.48-.26.55-.79 1.65-1.05 2.2-5.8 1.03-12.38 2.26-17.72-1-4.06-2.91-6.48-7.7-7.45-12.51zm1.21 34.07c5.22-2.32 10.97-2.96 16.63-2.53 8.21.24 16.39 6.58 16.67 15.22-7.21 1.98-15.11 2.71-22.3.3-5.62-2.12-8.91-7.66-11-12.99z" fill="#50a945"/><path d="m276.53 285.77c6.88-2.07 14.86 1.06 17.91 7.67.46 1.14.18 2.45-1.03 2.96-4.75 3.31-10.52 5.94-16.43 4.87-4.28-1.17-7.83-4.26-10.4-7.78-.67-1.17.66-1.89 1.35-2.6 2.55-2.17 5.42-4.02 8.6-5.12zm-43.88 45.83c1.67-3.68 5.88-5.4 9.73-5.34 2.43 4.61 4.53 9.9 2.89 15.14-2.15 2.84-5.42 5.82-9.25 5.32-3.49-3.93-5.55-10.06-3.37-15.12z" fill="#51a846"/><path d="m399.36 302.14c2.58-5.91 7.82-11.32 14.63-11.51 5.59-.67 11.19 1.9 14.74 6.19-3.09 5.02-6.74 10.15-12.24 12.7-5.57 2.45-11.6-.15-16.68-2.57-2.4-.67-1.12-3.28-.45-4.81z" fill="#50a845"/><path d="m344.34 317.48c10.12-2.45 18.43 8.27 18.25 17.56.55 5.62-2.48 12.6-8.62 13.49-9.88 1.39-17.61-9.33-16.74-18.47-.53-5.04 1.85-11.12 7.11-12.58z" fill="#ec9531"/><path d="m402.58 326.52c1.56-.75 3.28-1 5.01-1.11-2.45 4.77-7.58 7.16-11.08 11.03-14.82 13.41-26.9 29.86-34.91 48.18-6.65 15.64-10.72 32.43-11.52 49.42-.94 6.32-.45 12.71.32 19.02.17 6.56 2.18 12.83 4.47 18.91-4.95.64-9.94.22-14.91.33-3.6-.06-7.28.43-10.77-.67.9-2.45 1.41-5.02 1.27-7.63-.17-9.98-.46-19.97-.31-29.95-.25-14.06 3.76-27.83 9.25-40.65 7.28-16.03 17.69-30.48 29.72-43.28 9.93-9.41 20.72-18.27 33.46-23.6z" fill="#ed9531"/><path d="m268.81 357.06c1.21-9.53 6.65-18.01 12.98-25.02 7.84 2.95 15.39 8.39 18.31 16.53 1.26 6.19.9 12.92-2.01 18.62-2.45 5.16-6.38 9.48-10.74 13.11-1.85 1.33-3.77-.62-5.24-1.62-6.76-5.24-13.42-12.53-13.3-21.62z" fill="#ab9144"/><path d="m297.2 333.03c3.38-.23 7.05.13 9.85 2.22-2.13-.16-4.26-.21-6.39-.25.84.95 1.69 1.9 2.57 2.82-1.9-.57-3.71-1.37-5.47-2.24-.14-.64-.42-1.92-.56-2.55z" fill="#c6a77d"/><path d="m300.66 335c2.13.04 4.26.09 6.39.25 14.37 5.08 27.47 13.63 37.94 24.72 1.56 1.93 4.32 3.3 4.72 5.93-1.99 3.02-4.31 5.82-6 9.03-.5 1.27-1.72 1.77-2.96 1.99-7.74-13.48-17.95-25.78-30.88-34.57-2.21-1.52-4.56-2.84-6.64-4.53-.88-.92-1.73-1.87-2.57-2.82z" fill="#eb9531"/><path d="m408.43 349.34c6.24-.58 13.06 1.06 17.21 6.05 3.47 3.99 3.7 9.73 2.49 14.64-.94 1.31-2.95.59-4.29.54-5.01-.81-10.1-2.95-13.22-7.12-2.87-4.14-2.2-9.37-2.19-14.11z" fill="#50a948"/><path d="m389.5 359.73c2.82-.83 6.16-2.03 8.8-.06 3.89 2.55 4.43 7.54 4.27 11.8-3.19 1.27-7.12.97-9.86-1.16-2.66-2.81-3.24-6.87-3.21-10.58z" fill="#52a64a"/><path d="m477.36 486.09c1.1-1.39 2.44-2.58 3.69-3.85 7.73 3.49 4.32 16.37-3.22 17.66 1.39-2.83 4.79-5.32 3.36-8.84-.31-2.39-3.94-2.61-3.83-4.97z" fill="#353e36"/><path d="m285.43 493.34c1.45-3.2 2.82-6.44 4.64-9.45 2.43 4.43 3.88 9.3 5.73 13.98 3.29 8.24 6.59 16.47 9.74 24.76.46 1.11.91 2.25 1.68 3.2 1.38 1.63 4.24 1.31 5.14 3.5-5.16.07-10.33.1-15.49-.08.92-1.12 2.1-1.86 3.55-2.23-.28-4.73-2.37-9.09-4.14-13.4-.27-.2-.81-.59-1.08-.79-4.96.05-10.15-.61-14.97.33-2.84 3.34-4.03 7.86-5.63 11.9.32.5.98 1.49 1.3 1.99 1.13.83 3.82.66 3.75 2.44-4.25-.02-8.51-.15-12.77-.19 1.91-2.29 4.59-3.99 5.6-6.92 4.14-9.76 8.83-19.27 12.95-29.04m2.58.66c-2.05 5.23-4.74 10.19-6.69 15.46 4.45.17 8.91.14 13.37.01-1.24-4.29-3.22-8.3-4.7-12.5-.35-1.19-1.08-2.17-1.98-2.97z" fill="#343f36"/><path d="m399.88 485.88c8.22 1.32 17.31-2.29 24.88 2.39 4.21 2.22 4.45 7.74 3.62 11.85-.95 3.6-4.24 5.76-7.08 7.8 3.59 4.74 6.75 9.78 10.1 14.7 1.89 2.78 4.69 5.32 8.27 5.28-.55 2.49-3.8 1.52-5.66 1.74-4.13.02-6.84-3.61-8.85-6.74-3.23-4.34-5.68-9.19-9.03-13.43l-6.4.06c.08 4.9-.14 9.81.06 14.71.61 3.82 5.41 2.8 7.3 5.29-5.74-.09-11.49-.34-17.23.11.37-1.63 2.07-1.97 3.38-2.6 1.59-3.47 1.45-7.34 1.52-11.06-.01-6.02.01-12.04-.02-18.05-.15-3.14-.01-6.4-1.32-9.32-1.54-.43-3.08-.89-4.6-1.32.26-.35.8-1.06 1.06-1.41m9.87 3.89c-.19 5.57.1 11.16-.08 16.74 4.38.37 10.09 1.21 12.93-3.04 4.02-5.78-.63-14.61-7.53-15.09-1.77.08-4.53-.82-5.32 1.39zm-100.34-3.46c17.98-.06 35.95.15 53.92.03-1.13 1-2.45 1.72-3.78 2.39-1.41 4.62-.5 9.52-.73 14.27.18 6.27-.92 13.07 2.26 18.79 6 8.1 21.25 7.32 25.36-2.32 1.98-4.54 1.16-9.62 1.33-14.42-.19-4.77.41-9.6-.38-14.32-.53-2.61-3.48-3.14-5.59-3.81.23-.31.69-.93.93-1.24 3.72.84 7.52.2 11.26.49-.47 2.17-3.78 2.49-3.52 4.92-.4 8.65.65 17.39-.83 25.96-.64 4.33-3.25 8.46-7.27 10.39-4.66 2.7-10.27 2.74-15.45 2.04-5.89-.97-11.25-5.35-12.4-11.36-1.58-8.94.01-18.09-1.01-27.09-.11-2.29-3.15-2.63-4.55-3.84-1.59 1.87-1.85 4.32-1.64 6.68l-1.48-.16c-.21-1.8-.88-3.58-2.89-3.94-4.17-.43-8.46-.57-12.58.28-.05 11.28-.12 22.56.02 33.84 0 3.13 3.78 3.76 5.79 5.3-5.16.49-10.36.03-15.53.28l-.83-.99c1.48-.46 2.97-.89 4.47-1.31.57-1.66 1.21-3.35 1.08-5.14-.1-10.4.13-20.8-.11-31.19-.25-.31-.77-.92-1.03-1.23-3.71-.07-7.57-.52-11.2.42-3.03.75-1.98 5.08-4.82 6.11.13-3.31.63-6.58 1.2-9.83zm128.4 55c5.41-.04 10.82.2 16.24.02-1.37 1.23-3.93 2.37-2.63 4.61 2.45 4.89 5.82 9.28 8.75 13.89 1.31.15 1.61-1.6 2.39-2.34 2.55-4.12 5.69-7.95 7.26-12.59-1.77-1.07-3.54-2.12-5.17-3.37 4.79-.2 9.6-.18 14.39.06-2.41 1.73-5.41 2.95-6.71 5.81-3.25 5.71-7.92 10.58-10.67 16.56-.01 6.16-.64 12.46.48 18.56 1.63.36 3.26.77 4.88 1.23-1.33 1.4-3.39.75-5.07.75-3.38-.41-6.8.03-10.18-.09-.23-.18-.71-.53-.94-.71 1.52-.54 3.08-1.02 4.64-1.47 1.41-4.97.84-10.16.92-15.25.2-3.63-2.41-6.39-4.09-9.34-2.59-4.04-5.01-8.21-7.75-12.15-1.54-2.39-4.55-2.68-6.74-4.18z" fill="#344034"/><path d="m441.4 485.51c8.82 1.17 17.76 1.05 26.61.32 1.15-.01 2.3.19 3.45.35-.52 2.81-.82 5.64-1.06 8.49-.39-.01-1.19-.02-1.58-.02-.25-1.81.15-4.03-1.7-5.1-5.11-.85-10.59-1.76-15.59 0-.01 5.31-.02 10.61.01 15.92 4.61.16 9.44.82 13.86-.89.76-1.17.51-3.69 2.45-3.5.37 3.92-.68 8 .23 11.98-.34.25-1.03.76-1.37 1.02-.5-1.48-.99-2.95-1.45-4.42-4.33-1.69-9.06-.78-13.59-.87-.22 4.7-.23 9.41-.11 14.13-.18 1.51.81 3.27 2.44 3.39 7.32.92 15.36-.54 20.48-6.25 0 3.96-2.67 7.98-6.45 9.3-3.99.64-8.03-.06-12.03-.15-4.71-.4-9.41.4-14.12.17 1.59-1.65 4.81-2.59 4.62-5.38.09-9.69-.03-19.38.03-29.06-.05-2.13.12-4.46-1.17-6.29-1.05-1.18-2.69-1.01-4.09-1.24.03-.48.1-1.43.13-1.9zm-161.89 58.91c8.27-5.85 19.63-4.36 28.28-.14l1.77-1.09c.82 2.87.91 5.87 1.25 8.82.54 1.07-.33 1.88-.75 2.75-3.49-7.16-10.98-12.31-19.02-12.26-6-.01-11.14 4.32-13.59 9.56-3.8 8.75-2.21 20.02 5.02 26.57 4.09 4.37 10.77 5.04 16.27 3.45 3.24-1.42 7.19-4.03 6.64-8.12-.16-3.44.61-7.11-.98-10.31-1.56-.22-3.13-.48-4.67-.75.29-.3.86-.88 1.15-1.18 4.43.09 8.86-.11 13.29-.03-1.21 1.38-3.57 2.28-3.59 4.39-.25 4.28.01 8.57-.1 12.86-4.48 1.64-8.3 4.86-13.13 5.59-6.98 1-15.02.63-20.42-4.49-10.17-9.3-8.68-27.78 2.58-35.62z" fill="#343f35"/><path d="m489.8 496.76c6.68-9.38 19.21-12.32 30.13-11.19 4.64.15 8.81 2.32 13.1 3.82 2.01.65 3.76-1.26 5.78-1.2.97 1.01.75 2.56 1.04 3.84.54 6.03 1.96 11.96 2.34 18-2.13 2.54-3.95-.79-4.4-2.76-2.55-7.79-9.81-12.9-17.24-15.53-6.12-1.79-13.19-2.47-18.96.73-4.91 2.57-8.86 7.81-8.28 13.57-.33 6.11 3.72 11.76 8.88 14.67 11.95 5.75 26.36 7.22 36.07 17.01 10.44 9.96 9.15 28.66-1.56 37.93-8.52 8.93-21.98 10.36-33.58 8.55-5.35-1.04-11.38-1.93-15.28-6.13-1.09-6.08-3.46-11.86-4.43-17.97-.37-1.93-.6-5.78 2.49-4.26 1.52 3.25 2.32 6.84 4.38 9.84 5.58 8.41 15.47 14.04 25.66 13.79 5.4-.22 10.95-1.77 15.08-5.41 5.15-3.89 8.12-10.77 6.67-17.15-.86-5.05-4.37-9.62-9.07-11.69-10.21-5.07-21.79-7.03-31.45-13.29-6.8-3.77-11.7-11.03-11.83-18.89-.47-5.74.79-11.74 4.46-16.28z" fill="#334134"/><path d="m409.75 489.77c.79-2.21 3.55-1.31 5.32-1.39 6.9.48 11.55 9.31 7.53 15.09-2.84 4.25-8.55 3.41-12.93 3.04.18-5.58-.11-11.17.08-16.74z" fill="#fdfdfc"/><path d="m288.01 494c.9.8 1.63 1.78 1.98 2.97 1.48 4.2 3.46 8.21 4.7 12.5-4.46.13-8.92.16-13.37-.01 1.95-5.27 4.64-10.23 6.69-15.46z" fill="#fcfdfc"/><path d="m317.95 542.08c1.09-1.09 2.64-.77 4.04-.74 4.07.2 8.15-.07 12.22.22-1.83 1.39-4.65 1.97-5.08 4.61-.85 5.53-.14 11.2-.36 16.78.27 6.19-.74 12.5.84 18.57 5.63.22 11.69.76 16.86-1.96 1.93-.95 2.98-3.29 5.27-3.53-.88 3.2-2.49 6.66-5.85 7.84-4.47 1.52-9.26.46-13.86.36-4.43-.49-8.83.47-13.26.3 1.47-1.17 3.16-2.07 4.42-3.46.92-2.22.56-4.72.66-7.06-.14-9.33.19-18.67-.17-27.99-.28-2.81-3.69-3.05-5.73-3.94z" fill="#324034"/><path d="m367.49 541.85c6.35-2 13.56-1.75 19.61 1.12 5.11 3.09 9.6 7.99 10.6 14.07 1.56 6.48.29 13.67-3.61 19.11-8.81 12.8-31.76 11.94-38.74-2.27-6.08-11.38-.98-28.43 12.14-32.03m3.98 1.01c-4.86.67-9.43 3.73-11.47 8.27-4.69 10.11-1.27 23.54 8.25 29.62 5.96 3.61 14.55 3.13 19.42-2.1 9.14-8.64 7-25.26-3.03-32.34-3.71-2.86-8.55-3.95-13.17-3.45z" fill="#344035"/><path d="m402.02 542.05c1.76-1.22 3.97-.56 5.96-.65 6.22.16 12.72-1.2 18.74.91 5.55 2.06 7.31 9.33 4.86 14.35-1.11 2.92-3.78 4.75-6.37 6.26 4 5.63 7.41 11.68 11.79 17.02 1.51 2.1 3.95 2.89 6.37 3.4-3.27 3.1-9.2 1.38-11.88-1.83-3.8-4.96-6.97-10.37-10.53-15.5-1.46-2.73-4.88-1.45-7.33-1.69.45 5.9-1.19 12.19 1.18 17.79 1.89.68 4.6.43 5.56 2.55-5.8-.51-11.62-.07-17.42-.3 1.38-.92 2.87-1.65 4.39-2.29 1.91-5.15 1.14-10.68 1.28-16.03-.27-6.69.56-13.46-.44-20.09-.53-2.98-3.92-2.97-6.16-3.9m11.71 2.76c-.32 5.61-.01 11.26-.12 16.89 4.16-.04 9.51 1.24 12.43-2.64 3.97-5.05.84-13.28-5.21-15.01-2.23-.6-5.71-1.83-7.1.76z" fill="#344036"/><path d="m413.73 544.81c1.39-2.59 4.87-1.36 7.1-.76 6.05 1.73 9.18 9.96 5.21 15.01-2.92 3.88-8.27 2.6-12.43 2.64.11-5.63-.2-11.28.12-16.89z" fill="#fefefe"/><path d="m173.42 596.44c17.52-.45 35.05-.07 52.57-.2 91.34 0 182.67.01 274.01 0 15.14.15 30.31-.3 45.44.24v4.06c-54.14.38-108.29.05-162.43.16h-175.99c-11.16-.14-22.34.28-33.49-.22-.03-1.01-.08-3.03-.11-4.04z" fill="#a59048"/></svg>