<svg height="1460" viewBox="20.9 13.2 622.3 364.5" width="2500" xmlns="http://www.w3.org/2000/svg"><path d="m77.8 318.7c-2.3-9.6-8.1-16.6-19.5-16.6-16.8 0-23.8 15.8-23.8 31.8s7 31.8 23.8 31.8 18.8-9.7 19.9-21.9h13.4c-1.1 20-14.3 33.8-33.3 33.8s-37.4-19.9-37.4-43.8 14-43.8 37.4-43.8c17.6.1 31.5 10.5 33.2 28.6h-13.7z" fill="#003055"/><path d="m22.5 13.2h620.6v364.5h-620.6z" fill="none"/><g fill="#003055"><path d="m99.6 315.2h11.7v11.7h.2c1.4-6.4 8.9-13.3 16.5-13.3s3.6.2 4.7.4v12.9c-1.8-.2-3.6-.6-5.4-.6-8.5 0-15.3 7.4-15.3 20.7v28.8h-12.5v-60.5zm45.6 33.7c0 9.5 4.8 17.9 15.2 17.9s11.6-3.4 13.8-10.1h11.8c-2.7 13.2-13.2 20.6-25.6 20.6-17.7 0-27.7-13.2-27.7-31.8s10.5-32 27.4-32 28.8 17.2 26.7 35.4zm29.1-8.8c-.4-8.4-5.8-16-14.2-16s-14.6 7-14.9 16zm72.6 35.6h-11.8v-8.2h-.2c-3.3 6.9-10.4 9.8-17.5 9.8-17.9 0-26.5-14.2-26.5-32.3s12.2-31.5 24.5-31.5 15 2.8 18.8 9.5h.2v-30.9h12.5zm-27.9-8.9c11.2 0 15.9-10.9 15.9-21.4s-6-21.3-15.7-21.3-15.9 11.1-15.9 22 4.8 20.7 15.7 20.7m39.1-74.7h12.5v12.6h-12.5zm0 23.1h12.5v60.5h-12.5zm17.6 0h9.4v-18.1h12.5v18.1h11.3v10h-11.3v32.3c0 5.5.4 8.3 6 8.3s3.5 0 5.3-.5v10.3c-2.7.2-5.4.7-8.1.7-13 0-15.4-5.4-15.7-15.5v-35.7h-9.4v-10zm65.3-23.1h13.7v48.7c0 11.2.7 24.2 18.4 24.2s18.4-13 18.4-24.2v-48.7h13.7v53.5c0 21.4-12.8 32.1-32.1 32.1s-32.1-10.6-32.1-32.1zm74.3 23.1h11.8v8.9l.2.2c3.7-6.7 10.2-10.8 17.6-10.8 12.3 0 20 7 20 20.6v41.6h-12.5v-38c-.2-9.5-3.7-13.6-11.1-13.6s-13.7 7-13.7 15.9v35.7h-12.5v-60.5zm60.5-23.1h12.5v12.6h-12.5zm0 23.1h12.5v60.5h-12.5zm19.6 30.2c0-18.5 10.4-31.8 28.6-31.8s28.6 13.3 28.6 31.8-10.4 32-28.6 32-28.6-13.3-28.6-32m44.6 0c0-10.4-4.9-21.3-16.1-21.3s-16.1 10.9-16.1 21.3 4.9 21.4 16.1 21.4 16.1-10.9 16.1-21.4m19.1-30.2h11.8v8.9l.2.2c3.7-6.7 10.2-10.8 17.6-10.8 12.3 0 20 7 20 20.6v41.6h-12.5v-38c-.2-9.5-3.7-13.6-11.1-13.6s-13.7 7-13.7 15.9v35.7h-12.5v-60.5zm-536.3-178.1h65.9v19.1h-40.2v23.2h37.3v19.1h-37.3v37.8h-25.7zm72.5 0h69.9v19h-44.4v20.7h41.8v19h-41.8v21.2h45.4v19.3h-70.9zm78.6-.3h39.3c11.1 0 25.8 1.2 35.4 8.3 13.8 10.1 17.5 26.5 17.5 41.2 0 22-6.6 38.3-25.4 46.2-9.5 3.9-20.9 3.9-27.3 3.9h-39.6v-99.5zm26.5 80.3h11.1c17.1-.1 28.1-8 28.1-31.1s-21.1-30.2-29-30.2h-10.2zm72.3-80h69.8v19h-44.3v20.7h41.8v19h-41.8v21.2h45.4v19.3h-70.9zm77.7-.3h43.1c16.8 0 23.1 1.1 28.6 7.2 2.8 3 6.4 8.5 6.4 19.3s-4.1 15.6-8.5 18.5c-5.9 4-11.6 4.7-14.2 5.1v.6c18 .5 19.1 9.1 21.1 24.4.9 6.8 2.2 17.5 4.4 24.5h-28c-1.5-6.1-2.2-13.6-3.1-22.5-1.2-12-1.5-16.4-13.1-16.4h-10.8v38.9h-25.9v-99.5zm25.9 42.7h9.7c5.7 0 8.5 0 10.7-.8 5.7-1.9 6.8-8.1 6.8-11.3 0-12.3-10.1-12.3-17.5-12.3h-9.7zm93.6-42.7h31.5l36.7 99.5h-29.1l-6.4-20h-37.3l-6.3 20h-25.8zm26.7 61.2-12-41.7h-.4l-12.9 41.7zm44.2-61.2h26.1v79.9h41.8v19.6h-67.9zm-518-110h35.6l31.4 74.1-.2-74.1h22.5v99.5h-34.8l-32.1-77.3.3 77.3h-22.7zm133 0h31.5l36.7 99.5h-29.1l-6.4-20h-37.3l-6.3 20h-25.8zm26.7 61.1-12-41.7h-.4l-12.9 41.7zm22.2-61.1h28.5l21.1 72 22.3-72h25.7l-33.9 99.5h-30.8z"/><path d="m331.2 26.8 20.4 41.7 21-41.7h26.5l-36.3 64.3v35.2h-26.1v-36.4l-35.4-63.1zm-308.4 221h585.9v26.1h-585.9zm519.6-176.5c0-30.2-23.2-55.1-52.8-57.7-1.7-.2-3.4-.4-5.1-.4s-3.2.1-4.8.3c-16.2 1.4-31.3 9.6-41.2 22.6s-1.1 1.5-1.1 1.5l-1.1 1.5c-6.4 9.6-9.8 20.6-9.8 32.2 0 30.2 23.3 55.1 52.8 57.7 1.7.2 3.4.4 5.1.4s3.5-.1 5.1-.4c29.6-2.6 52.8-27.5 52.8-57.7m-31.2 42.8h-8.1c2.3-4.6 4.2-10 5.7-16.2h13.5c-2.8 6.3-6.6 11.7-11 16.2m-64.3-16.2h13.5c1.4 6.1 3.4 11.6 5.7 16.2h-8.1c-4.4-4.4-8.2-9.9-11-16.2m-16.8-24.8h7.5c.2 7.5 1.5 14.7 3.8 21.2h-6.2c-3-6.5-4.8-13.6-5.1-21.2m17.2-29.8c2.8-5.8 6.3-10.8 10.5-14.9h8.1c-1.8 3.5-3.3 7.6-4.6 12.1s-.5 1.8-.5 1.8l-.5 1.8c0 .2 0 .3-.1.5h-13.5c.2-.4.4-.9.6-1.3m74.7 1.3h-13.5c-1.4-6.1-3.4-11.6-5.7-16.2h8.1c4.5 4.4 8.2 9.9 11 16.2m16.7 24.8h-7.5c-.2-7.5-1.5-14.6-3.8-21.2h6.2c3 6.5 4.8 13.6 5.1 21.2m-11.1 0h-16.1c-.1-7.5-.8-14.7-2.1-21.2h14.2c2.4 6.5 3.8 13.6 4 21.2m-63.1-26.1c1.5-5.8 3.5-10.8 5.7-14.8h12.5v16.2h-18.5c.1-.4.2-.9.3-1.3m3.6-18.6h-5.9c3.2-2.4 6.7-4.4 10.3-5.7-1.5 1.6-3 3.5-4.3 5.7m14.4-7.7v7.7h-10.2c3.1-4.4 6.6-7.1 10.2-7.7m3.7 7.7v-7.7c3.7.7 7.1 3.4 10.2 7.7zm12.4 3.7c2.4 4.4 4.5 9.9 6.1 16.2h-18.5v-16.2zm-16.1 19.8v21.2h-21.5c0-7.3.9-14.5 2.2-21.2zm0 24.8v21.2h-19.3c-1.3-6.5-2.1-13.7-2.2-21.2zm0 24.8v16.2h-12.4c-2.4-4.4-4.5-9.9-6.1-16.2zm0 19.9v7.7c-3.7-.7-7.1-3.4-10.2-7.7zm3.7 0h10.2c-3 4.3-6.5 7-10.2 7.7zm0-3.7v-16.2h18.5c-1.6 6.2-3.6 11.7-6.1 16.2zm0-19.8v-21.2h21.6c-.1 7.5-.9 14.7-2.3 21.2zm0-24.9v-21.2h19.3c1.4 6.5 2.1 13.7 2.3 21.2zm14.6-44.6c-1.4-2.2-2.9-4.2-4.4-5.8 3.7 1.4 7.2 3.3 10.4 5.8zm-41.3 23.5c-1.3 6.7-2 13.8-2.2 21.2h-16.1c.2-7.4 1.6-14.6 4-21.2h14.2zm-21.9 21.1h-7.4c.2-7.4 2-14.6 5.1-21.2h6.2c-2.3 6.7-3.6 13.8-3.8 21.2m3.6 3.7h16.1c0 7.5.8 14.7 2.1 21.2h-14.2c-2.4-6.5-3.8-13.6-4-21.2m26.7 44.7c1.4 2.2 2.9 4.2 4.4 5.8-3.7-1.4-7.2-3.3-10.4-5.8zm32.8 0h6c-3.2 2.5-6.7 4.4-10.4 5.8 1.6-1.6 3-3.6 4.4-5.8m8.5-23.5c1.3-6.5 2-13.6 2.1-21.2h16.1c-.2 7.5-1.6 14.7-4 21.2zm21.9-21.2h7.5c-.2 7.5-2 14.7-5.1 21.2h-6.2c2.3-6.5 3.6-13.7 3.8-21.2m.5-28.5h-5.7c-2.6-6.1-5.9-11.6-10-16.2h1.7c5.6 4.4 10.4 9.9 13.9 16.2m-80.6-16.1h1.8c-3 3.4-5.7 7.3-7.9 11.7l-.8 1.6-.8 1.7c-.2.4-.4.8-.5 1.2h-5.7c1-1.7 2-3.3 3.1-4.9 3.1-4.3 6.7-8.1 10.8-11.3m-13.9 69.4h5.7c2.5 6.1 5.9 11.6 10 16.2h-1.7c-5.6-4.4-10.4-9.9-13.9-16.2m80.5 16.2h-1.7c4.1-4.6 7.4-10.1 10-16.2h5.7c-3.6 6.3-8.3 11.8-13.9 16.2m111.5 131.3c7.7 0 13.8 6.2 13.8 14s-6.1 14.1-13.8 14.1-13.9-6.2-13.9-14.1 6.2-14 13.9-14zm-.1 2.2c-6.2 0-11.2 5.3-11.2 11.8s5 11.9 11.3 11.9c6.2 0 11.2-5.2 11.2-11.8s-5-11.9-11.2-11.9zm-2.6 20h-2.5v-15.6c1.3-.2 2.6-.4 4.4-.4s3.9.5 4.9 1.2c.9.7 1.4 1.7 1.4 3.2s-1.4 3.3-3.1 3.8c1.4.4 2.3 1.6 2.6 3.9.4 2.4.7 3.4 1 3.9h-2.6c-.4-.5-.7-1.9-1.1-4-.4-2-1.4-2.7-3.4-2.7h-1.7v6.7zm0-8.7h1.8c2.1 0 3.8-.7 3.8-2.7s-1-2.7-3.8-2.7-1.4 0-1.8.1z"/></g></svg>