<svg viewBox="-0.118 -0.02 1000.051 458.241" xmlns="http://www.w3.org/2000/svg" width="2500" height="1145"><path clip-rule="evenodd" d="M352.162 228.755h33.012zM69.83-.02C32.663-.02 1.96 30.684-.118 68.543v96.266h36.936V68.543C37.742 51 52.285 35.993 69.83 35.993c17.314 0 31.858 15.237 32.781 32.55v96.266h36.936V68.543C137.931 30.683 106.997-.02 69.83-.02m185.605 396.373c-37.167 0-67.87-30.703-69.948-68.563v-96.265h36.936v96.265c.924 17.545 15.467 32.55 32.781 32.55s32.089-15.236 32.781-32.55v-96.265h36.936v96.265c-1.616 37.86-32.319 68.332-69.486 68.563m-130.2-84.722c0-24.24-19.623-43.862-43.862-43.862S37.51 287.39 37.51 311.63s19.622 43.861 43.862 43.861c19.16 0 35.55-12.466 41.553-29.78v55.636c-12.235 7.156-26.317 11.542-41.323 11.542-44.554 0-81.029-36.474-81.029-81.029s36.475-81.029 81.03-81.029 81.028 36.475 81.028 81.03c0 1.615 0 3.231-.23 4.847h.23v141.513h-37.398zm837.53 0c0-24.24-19.622-43.862-43.861-43.862-24.009 0-43.862 19.622-43.862 43.862s19.622 43.861 43.862 43.861c19.16 0 35.782-12.466 41.553-29.78v55.636c-12.235 7.156-26.317 11.542-41.553 11.542-44.555 0-81.03-36.474-81.03-81.029s36.475-81.029 81.03-81.029 81.029 36.475 81.029 81.03c0 1.615 0 3.231-.231 4.847h.23v79.644h-37.166zm-576.437 84.722h-38.09V231.525h38.09zm292.951 0h-38.09V231.525h38.09zM356.317 231.294h32.781zm65.1-52.172H378.71l-27.702 41.091h32.78zm158.596 108.5v108.731h38.09V287.622c0-30.934-25.162-56.097-56.097-56.097-20.315 0-38.321 11.08-48.248 27.24-9.926-16.16-27.933-27.24-48.248-27.24-30.934 0-56.097 25.163-56.097 56.097v108.731h38.09V287.622c0-12.928 10.62-23.547 23.548-23.547s23.547 10.62 23.547 23.547v108.731h38.09V287.622c0-12.928 10.62-23.547 23.547-23.547 13.159 0 23.778 10.388 23.778 23.547m80.106-105.73c10.619 0 19.16 8.541 19.16 19.16 0 10.62-8.541 19.161-19.16 19.161-10.389 0-19.161-8.541-19.161-19.16.23-10.62 8.772-19.161 19.16-19.161m129.97 214.461c-48.248 0-87.724-36.936-87.724-82.414 0-43.862 36.475-79.875 82.415-82.414h30.241v35.782H784.78c-24.702 2.309-44.786 22.393-45.017 46.632 0 25.856 22.624 46.632 50.095 46.632h24.932v35.782zM268.132 42.457c-7.85-6.233-18.007-9.003-27.933-9.003-27.01 0-48.94 21.93-48.94 48.94s20.314 50.557 49.401 50.788 48.249-23.778 48.249-50.787l33.242 4.155c-2.077 43.17-38.09 78.028-81.952 78.028-45.247 0-82.184-36.936-82.184-82.183S194.952.21 240.2.21c35.09 0 65.33 22.162 76.873 53.327L207.88 114.714l-14.543-30.242zM423.034-.02c45.477 0 82.414 36.937 82.414 82.415s-36.937 82.414-82.414 82.414-82.415-36.937-82.415-82.414S377.556-.02 423.034-.02m0 33.012c27.24 0 49.633 22.162 49.633 49.633 0 27.24-22.393 49.403-49.633 49.403S373.4 109.866 373.4 82.625c.231-27.471 22.393-49.633 49.634-49.633" fill="#2f318f" fill-rule="evenodd"/></svg>