<svg height="1586" viewBox="-0.523 0 292.48900000000003 185.263" width="2500" xmlns="http://www.w3.org/2000/svg"><g stroke-width="3.705"><path d="M235.807 185.263c.852 0 1.497-.378 2.65-1.881l52.619-68.574c.6-.78.89-1.436.89-1.982 0-1.019-.757-1.475-1.87-1.475h-9.625c-1.12 0-1.704-.54-1.498-1.77l9.77-58.309c.379-2.255-.3-3.129-2.527-3.129h-15.064c-1.275 0-1.67-.707-1.481-1.82l7.348-43.851C277.275.963 276.501 0 275.277 0c-.607 0-1.203.306-1.782 1.035l-41.869 52.831c-.78.98-1.024 1.576-1.024 2.11 0 .907.69 1.586 1.987 1.586h5.728c1.415 0 1.77.78 1.587 1.888l-9.675 57.718c-.273 1.637.322 2.611 2.176 2.611h10.205c1.486 0 2.02.523 1.77 2.06l-10.177 60.741c-.256 1.531.513 2.683 1.604 2.683z" fill="#fcb614"/><path d="M70.612 56.11c.368-1.475 1.848-2.567 3.38-2.567 1.553 0 2.694 1.092 2.605 2.567zm-1.475-7.494c-.05.318.161.557.479.557H79.98c.474 0 .908-.384.986-.851l.2-1.275c.073-.462-.245-.89-.724-.846l-10.505 1.018c-.383.034-.628.346-.679.657zm-2.271 8.936c-.585 3.663 1.414 6.875 5.439 6.875 2.755 0 5.711-1.436 6.608-3.841.116-.312-.04-.74-.49-.74h-1.971c-.362 0-.674.178-.89.428-.702.83-1.587 1.269-2.812 1.269-1.726 0-2.7-1.364-2.572-2.867h8.395c.78 0 1.191-.428 1.297-1.13.529-3.357-.93-6.708-5.444-6.708-4.17.006-7.015 3.262-7.56 6.714zm-5.49 5.622c-.089.568.296 1.02.858 1.02l1.503-.001c.562 0 1.074-.45 1.163-1.019l2.494-15.721c.09-.557-.289-1.007-.846-1.007h-1.503c-.562 0-1.09.45-1.185 1.007zM54.374 53.06c-.066.401.206.718.596.718h.735l-.975 6.285c-.339 2.177.958 4.137 3.541 4.137h1.38c.424 0 .825-.346.897-.768l.184-1.142c.072-.417-.228-.763-.657-.763h-.206c-1.247 0-1.798-.784-1.62-1.926l.924-5.812h2.266c.39 0 .768-.317.83-.707l.166-1.058c.067-.4-.217-.712-.606-.712h-2.266l.606-3.864c.084-.545-.3-.985-.851-.985h-1.459c-.545 0-1.074.44-1.158.985l-.612 3.864h-.735c-.39 0-.751.317-.818.712zm-12.715 7.627c-.261 1.832 1.865 3.74 5.228 3.74 2.416 0 5.912-1.001 6.424-4.22.295-1.858-.757-3.139-2.695-3.662-.768-.206-2.582-.696-2.989-.802-.701-.189-1.358-.417-1.258-1.063.156-.957 1.085-1.292 2.193-1.292 1.186 0 2.004.446 2.194 1.186.105.362.395.418.801.418h1.615c.267 0 .612-.229.668-.574.3-1.887-1.687-3.574-4.871-3.574-3.285 0-5.695 1.565-6.09 4.07-.307 1.915 1.018 3.056 2.789 3.552.812.217 2.215.567 2.889.757.718.206 1.375.428 1.27 1.085-.162 1.036-1.304 1.364-2.49 1.364-1.113 0-2.143-.49-2.354-1.286-.1-.462-.412-.534-.913-.534h-1.643c-.306 0-.673.24-.729.629zm-9.235-4.576c.367-1.475 1.848-2.567 3.379-2.567 1.53 0 2.689 1.092 2.6 2.567zm-3.758 1.442c-.58 3.663 1.414 6.875 5.445 6.875 2.755 0 5.706-1.436 6.596-3.841.123-.312-.027-.74-.478-.74h-1.982a1.16 1.16 0 0 0-.88.428c-.707.83-1.592 1.269-2.811 1.269-1.726 0-2.722-1.364-2.572-2.867h8.378c.79 0 1.191-.428 1.308-1.13.53-3.357-.93-6.708-5.439-6.708-4.17.006-7.02 3.262-7.565 6.714zM11.986 63.09c-.094.607.318 1.102.947 1.102h1.425c.63 0 1.208-.5 1.303-1.124l1.647-10.956s4.214 10.666 4.398 11.095c.234.562.752.985 1.598.985h2.043c.618 0 1.202-.5 1.297-1.102l2.188-13.829h24.784c.406 0 .818-.328.885-.751l.178-1.136a.648.648 0 0 0-.657-.762H26.89c-.629 0-1.219.5-1.308 1.107l-1.592 10.672-4.393-11.106c-.211-.501-.751-.974-1.608-.974h-2.244c-.607 0-1.18.507-1.275 1.113zM.123 132.645c-.646 4.064 1.292 5.645 4.827 5.645h12.542c3.735 0 4.988-1.314 5.511-4.632l1.097-6.948 1.442 7.399c.573 2.95 2.06 4.186 5.422 4.186h11.418c2.07 0 3.301-.857 4.003-2.466.328 1.71 1.775 2.466 3.858 2.466h31.932c3.423 0 4.96-1.447 5.46-4.626l.636-3.992c3.04 6.837 10.772 9.236 18.838 9.236 11.284 0 19.44-4.37 23.443-12.125 2.934 8.211 10.004 12.125 19.206 12.125 6.469 0 12.275-1.91 16.612-5.75-.913 3.512.99 5.127 3.702 5.127h13.333c2.856 0 4.559-1.22 5.377-3.847l1.748-5.606h5.094l-.133 4.693c-.1 3.401 1.881 4.754 5.043 4.754h13.333c3.763 0 5.205-1.548 5.205-5.445 3.753 3.97 9.53 6.063 16.785 6.063 14.97 0 24.272-8.245 26.615-23.036l6.63-41.925c.524-3.307-1.14-5.411-4.548-5.411h-14.563c-2.477 0-3.963.946-4.787 2.995-.474-2.155-2.383-2.995-4.304-2.995h-14.485c-2.867 0-4.632 1.453-5.071 4.253l-2.99 18.928-.323-17.926c-.067-3.602-2.16-5.26-5.383-5.26h-20.837c-2.912 0-4.665 1.424-5.534 4.04l-6.09 18.316c.785-14.82-6.252-23.125-20.787-23.125-11.435 0-19.179 5.7-23.96 14.569-2.166-10.455-10.4-14.77-21.133-14.77-7.443 0-13.85 2.439-18.449 7.432l.112-.851c.445-3.44-1.38-5.606-5.361-5.606H59.712c-2.01 0-3.128.718-3.847 2.677-.328-2.115-1.542-2.66-3.551-2.66H39.866c-3.496 0-5.222 1.614-5.712 4.698l-.835 5.266-1.492-5.95c-.673-2.69-2.566-4.026-5.405-4.026H14.753c-2.917 0-4.687 1.548-5.16 4.515z" fill="#fff"/><path d="M218.643 115.247c-2.026 12.805 4.588 19.69 17.22 19.69 12.625 0 20.597-6.44 22.69-19.69l6.625-41.852c.111-.702-.173-.885-.618-.885H249.99c-.885 0-1.197.362-1.325 1.146l-6.975 43.618c-.44 2.739-1.882 4.064-4.164 4.064-2.4 0-3.385-1.548-2.984-4.064l6.975-43.885c.111-.701-.178-.885-.618-.885h-14.485c-.618 0-1.046.267-1.147.885zm-27.227-2.56l9.48-30.374-.846 30.374zm-21.077 20.308c-.29.874 0 1.325.885 1.325h12.186c1.147 0 1.336-.262 1.587-1.058l2.616-8.39h12.097l-.222 8.067c-.028 1.12.195 1.38 1.152 1.38h13.233c.974 0 1.252-.44 1.236-1.324l-1.047-59.205c-.022-1.019-.457-1.286-1.425-1.286H191.8c-1.147 0-1.503.53-1.77 1.325zm-36.91-30.023c-2.115 15.187-1.764 31.966 16.334 31.966 14.046 0 22.079-9.976 23.404-24.105.09-.885-.267-1.33-1.058-1.33h-13.778c-.969 0-1.075.088-1.236 1.146l-1.058 7.064c-.512 3.44-1.943 5.211-4.414 5.211-2.65 0-3.507-2.026-2.917-5.74l4.414-27.907c.557-3.523 1.854-5.56 4.504-5.56 2.56 0 3.54 2.12 2.912 5.828l-1.142 6.713c-.122.702.084 1.236.796 1.236h13.862c.969 0 1.414-.618 1.587-1.503 2.471-15.983-2.205-24.283-16.245-24.283-13.6.006-22.874 9.102-25.964 31.264zm-44.15 10.772c-2.294 15.721 6.006 21.194 17.836 21.194 15.014 0 22.251-8.3 22.251-20.748 0-7.772-5.3-12.448-15.014-19.43-3.357-2.387-5.389-4.147-5.389-7.064 0-2.644 1.442-4.503 4.18-4.503 3.09 0 4.566 1.943 4.004 7.971-.056.596.122.863.74.863h12.275c1.414 0 1.676-.356 1.77-1.77.88-13.6-6.184-18.722-17.664-18.722-12.542 0-20.748 7.95-20.748 18.9 0 9.364 5.65 13.6 13.16 18.806 4.148 2.827 6.002 4.86 6.002 7.86 0 3.357-1.77 5.562-4.944 5.562-4.331 0-4.86-3.975-4.147-9.448.084-.617-.267-.796-.974-.796h-11.83c-1.064 0-1.33.356-1.509 1.325zm-39.916 19.34c-.095.612.178 1.236.885 1.236h32.144c.757 0 1.186-.356 1.325-1.236l2.032-12.72c.1-.613-.173-1.326-.97-1.326H67.384l1.592-10.154h14.92c.529 0 1.046-.445 1.147-1.057l1.854-11.574c.083-.53-.268-1.147-.797-1.147H71.18l1.325-8.122h16.244c.618 0 1.214-.451 1.325-1.147l1.943-12.186c.112-.702-.35-1.147-.969-1.147H59.701c-.618 0-.813.35-.885.796zM5.2 134.32h12.643c.701 0 1.124-.535 1.235-1.236l4.332-27.29 6.268 27.462c.2.88.796 1.058 1.147 1.058h11.568c.529 0 1.041-.534 1.147-1.236l9.397-59.516c.1-.618-.084-1.058-.796-1.058H39.343c-.446 0-1.13.362-1.237 1.058l-3.93 24.823-6.185-24.723c-.156-.623-.618-1.147-1.586-1.147H14.903c-.88 0-1.27.379-1.386 1.147L4.07 133.084c-.14.89.25 1.236 1.13 1.236z" fill="#3200c6"/></g></svg>