<svg height="2500" viewBox="0 0 226.314 287.287" width="1969" xmlns="http://www.w3.org/2000/svg"><g stroke-width="1.729"><path d="m119.041 144.92c1.643 0 1.643-2.551 0-2.551-1.64 0-1.646 2.55 0 2.55z" fill="#faa819"/><path d="m119.041 144.92c1.643 0 1.643-2.551 0-2.551-1.64 0-1.646 2.55 0 2.55z" fill="#faa819"/><path d="m92.534 287.287c1.28 0 2.07-.601 2.83-1.83l73.987-120.875c.754-1.23.958-1.918.958-2.521 0-1.86-1.489-2.647-3.65-2.167l-20.614 4.484c-1.637.356-2.712-.272-2.443-2.19l12.669-91.113c.387-2.76-1.01-3.586-3.759-2.984l-23.47 5.126c-1.86.408-2.605-.54-2.422-2.26l7.11-67.499c.24-2.326-.913-3.458-2.51-3.458-1.203 0-1.993.571-2.683 1.693l-56.881 92.93c-1.678 2.734-.398 4.759 2.371 4.157l8.604-1.872c2.055-.443 2.83.561 2.585 2.316l-12.76 91.084c-.356 2.53.842 3.78 3.545 3.199l21.026-4.536c2.167-.463 3.121.118 2.866 2.49l-9.725 92.232c-.245 2.37.77 3.594 2.366 3.594z" fill="#fac30f"/><path d="m4.687 181.417 11.857-2.55c2.162-.464 3.166-1.627 3.166-3.987v-8.06l3.03 7.187c1.014 2.412 2.024 3.08 4.9 2.458l10.404-2.26c1.876-.408 2.942-1.499 3.07-3.314.698 1.86 2.208 2.163 4.544 1.656l27.456-5.977c2.555-.55 3.03-1.463 3.244-3.223l.428-3.458.311-.057c2.576 2.346 7.053 3.923 13.132 3.923 10.383 0 20.485-5.493 23.091-15.532 3.167 4.923 7.992 7.413 14.356 7.413 7.712 0 14.953-2.985 18.226-9.998-.398 3.05 1.392 4.816 4.967 4.04l10.169-2.219c2.733-.591 3.709-1.724 3.994-4.106l.427-3.62 5.02-1.113.418 2.53c.484 2.917 2.1 3.717 5.054 3.081l11.892-2.587c2.82-.612 3.524-2.458 3.048-4.784l-.29-1.412c2.927 2.636 6.798 3.962 11.546 3.962 13.703 0 24.167-7.538 24.167-24.732v-37.07c0-3.03-1.973-4.473-5.34-3.748l-12.127 2.637c-2.237.484-3.524 2.004-3.524 4.243-.612-2.423-2.294-2.973-4.243-2.545l-13.315 2.887c-1.917.418-2.941 1.765-2.941 3.983v22.235l-4.264-20.683c-.53-2.596-2.228-3.479-5.232-2.83l-18.487 4.003c-2.284.495-3.188 1.658-3.489 3.815l-2.564 18.764c-1.096-11.664-6.304-18.3-17.416-18.3-12.28 0-19.506 7.151-22.642 17.235-2.54-5.365-7.818-8.692-15.651-8.692-8.512 0-15.758 3.448-19.568 9.273-.076-3.07-1.774-4.04-4.773-3.392l-27.844 6.044c-1.5.332-2.392 1.133-2.703 2.627-.765-1.27-2.163-1.551-3.901-1.173l-11.546 2.51c-1.938.418-3.1 1.927-3.1 3.998v6.744l-2.586-5.883c-1.056-2.39-2.739-3.04-5.335-2.477l-10.342 2.26c-2.412.523-3.37 1.703-3.37 4.07v52.65c-.011 2.903 1.764 4.183 4.676 3.555z" fill="#fff"/><path d="m188.047 119.08c0 12.536 5.986 17.097 14.1 17.097 10.673 0 20.93-4.988 20.93-21.504v-37.07c0-.709-.379-.816-.95-.688l-12.621 2.739c-.709.153-.96.367-.96 1.086v39.34c0 2.566-1.28 3.845-3.273 3.845s-2.993-1.28-2.993-3.275v-38.533c0-.709-.282-.831-.852-.709l-12.816 2.79c-.434.097-.57.28-.57.852v34.03zm-.322 18.408-10.275-49.939c-.118-.571-.455-.832-1.434-.622l-18.578 4.04c-.541.116-.892.417-.989 1.106l-7.732 53.616c-.107.708.138 1.122.709.999l11.107-2.422c.832-.184 1.174-.43 1.281-1.29l.709-5.912 10.587-2.336.968 5.88c.087.506.301.649.821.531l12.254-2.662c.593-.118.69-.419.572-.99zm-23.872-11.548 3.264-27.359 4.253 25.671zm-51.986-1.02c0 14.812 2.565 27.48 15.81 27.48 13.105 0 19.933-8.542 19.933-25.767 0-.861-.427-1.01-1.269-.83l-12.117 2.54c-.709.142-.852.427-.852 1.28v5.697c0 3.136-1 5.697-3.457 5.697-2.275 0-3.091-1.755-3.091-4.835v-24.085c0-3.641 1.378-5.258 3.468-5.258 1.81 0 2.943 1.376 2.943 4.418v5.548c0 1 .28 1.143.99.99l12.351-2.683c.57-.128.723-.271.723-.831 0-12.971-4.61-18.98-14.024-18.98-14.809-.004-21.408 11.737-21.408 29.618zm-37.019 20.08c0 10.636 5.559 15.522 15.962 15.522 9.975 0 19.925-5.697 19.925-17.515 0-10.528-7.247-14.358-16.233-18.23-2.575-1.111-5.405-2.555-5.405-5.83 0-2.422 1.703-3.708 3.748-3.708 2.372 0 3.845 1.378 3.794 5.989-.01.57.148.724.852.57l11.255-2.422c.709-.154.852-.29.852-1 0-9.243-4.845-14.532-14.239-14.532-9.541 0-19.506 4.96-19.506 16.945 0 9.553 5.278 13.822 13.8 17.525 4.06 1.764 6.548 3.137 6.548 6.681 0 2.985-2.132 4.03-4.126 4.03-2.993 0-4.416-2.07-4.416-6.87 0-.43-.27-.668-.71-.571l-11.254 2.422c-.566.123-.847.424-.847.994zm-31.603 23.524c0 .958.28 1.182 1.163.989l27.748-6.034c.989-.213 1.132-.581 1.132-1.442v-10.34c0-.85-.153-1.172-1-1l-15.1 3.127v-8.68l12.958-2.846c.572-.128.852-.292.852-1.143v-10.248c0-.57-.28-.871-1-.72l-12.815 2.849v-7.122l14.381-3.126c.434-.097.719-.43.719-.861v-11.538c0-.72-.331-.853-.969-.72l-27.37 5.959c-.571.126-.709.28-.709.85v52.046zm-40.012 8.951c0 .709.29.892 1.132.709l11.393-2.454c.581-.126.72-.428.72-.85v-24.034l9.25 21.931c.3.71.622.67 1.193.541l10.343-2.25c.57-.127.719-.28.719-.851v-52.355c0-.43-.291-.874-1-.72l-11.535 2.51c-.444.096-.572.29-.572.852v22.074l-8.786-19.906c-.332-.745-.622-.863-1.403-.69l-10.877 2.362c-.444.097-.572.29-.572.862v52.269z" fill="#3200c6"/><g fill="#fff"><path d="m48.381 91.232 9.047-1.949a.955.955 0 0 0 .734-.903v-1.11c0-.408-.336-.7-.744-.572l-9.027 2.831a.731.731 0 0 0 -.505.678v.648c0 .27.214.434.495.378zm10.102 5.131c0-2.928-2.198-5.386-5.966-4.57-3.805.82-5.386 3.998-5.386 7.013 0 3.295 2.469 5.472 6.192 4.677 2.391-.515 4.299-2.189 4.747-4.376.056-.28-.137-.623-.525-.531l-1.734.368c-.311.066-.55.28-.709.53-.505.831-1.208 1.367-2.274 1.597-1.51.32-2.565-.638-2.647-1.938l7.313-1.582c.688-.142.99-.576.99-1.188zm-8.271.525c.117-1.316 1.26-2.52 2.595-2.8 1.347-.29 2.5.418 2.627 1.678zm-4.886-7.38-1.316.28c-.494.107-.892.592-.892 1.076v13.715c0 .505.398.806.892.699l1.316-.28c.485-.108.872-.581.872-1.076v-13.716c0-.5-.392-.795-.872-.698zm-3.447 4.967-1.984.429v-3.372c0-.474-.398-.765-.872-.668l-1.28.27c-.474.097-.872.572-.872 1.046v3.382l-.638.137c-.346.077-.622.408-.622.755v.913c0 .357.27.571.622.495l.648-.138v5.484c0 2.09 1.219 3.33 3.672 2.82l1.203-.25c.368-.077.679-.357.679-.822v-1c0-.366-.311-.601-.679-.525l-.173.042c-1.096.24-1.683-.322-1.683-1.316v-5.075l1.984-.429c.336-.076.622-.408.622-.755v-.918c-.005-.362-.286-.57-.627-.505zm-9.062 6.539c-.71-.031-2.357-.097-2.724-.107-.83-.021-1.25-.107-1.25-.764 0-.735.68-1.164 1.735-1.394 1.035-.223 1.81-.01 2.08.583.138.28.301.3.755.204l1.403-.301c.418-.088.504-.311.504-.612 0-1.648-2.065-2.684-5.115-2.026-2.498.54-4.375 2.112-4.375 4.3 0 1.775 1.209 2.596 2.917 2.662.744.031 2.014.066 2.637.097.647.041 1.26.107 1.26.776 0 .806-.562 1.204-1.714 1.463-1.25.28-2.209.047-2.5-.591-.152-.367-.433-.367-.881-.27l-1.433.311c-.357.076-.541.32-.541.657v.183c0 1.598 2.142 2.812 5.85 2.016 2.167-.465 4.252-1.704 4.252-4.504-.005-1.627-1.101-2.607-2.86-2.683zm-13.642-2.046c-3.804.822-5.385 4-5.385 7.013 0 3.296 2.468 5.475 6.19 4.68 2.392-.516 4.3-2.19 4.749-4.377.056-.282-.138-.622-.526-.53l-1.734.366c-.31.065-.55.28-.709.53-.504.832-1.208 1.366-2.274 1.596-1.51.322-2.565-.636-2.647-1.938l7.313-1.58c.689-.144.99-.581.99-1.193 0-2.919-2.199-5.377-5.967-4.567zm-2.305 5.096c.117-1.316 1.26-2.52 2.596-2.8 1.346-.29 2.498.42 2.626 1.678z"/><path d="m35.091 93.506v-.99c0-.356-.311-.601-.678-.525l-23.683 5.096c-.551.118-.939.647-.939 1.193v9.386c-.04-.128-5.063-8.219-5.334-8.63-.25-.39-.795-.69-1.54-.526l-1.958.427c-.526.118-.959.638-.959 1.174v13.801c0 .531.433.874.98.756l1.249-.26c.54-.117.938-.648.938-1.2v-9.675c.04.128 5.115 8.305 5.34 8.621.28.432.795.688 1.53.53l1.779-.378c.54-.117.98-.646.98-1.182v-12.166l21.627-4.651c.357-.076.668-.433.668-.8z"/></g></g></svg>