<svg height="1471" width="2500" xmlns="http://www.w3.org/2000/svg" viewBox="9.615999999999998 16.11 319.384 173.67000000000002"><g fill="#010101"><path d="M201.313 21.563c7.09 6.152 11.125 14.88 15.312 23.125 3.878 7.539 7.83 15.02 11.938 22.437 3.892 7.032 7.611 14.14 11.242 21.309l1.278 2.517c2.123 4.184 4.235 8.373 6.331 12.571l2.363 4.67 1.066 2.162c2.172 4.26 4.43 7.526 8.157 10.646 3.525.423 5.636.121 9-1 1.052-2.194 1.052-2.194 2-5a700.935 700.935 0 0 1 3.57-7.605l1.07-2.255 2.29-4.814c2.04-4.29 4.076-8.581 6.113-12.873l1.26-2.652c3.73-7.862 7.436-15.735 11.135-23.612a17205.517 17205.517 0 0 1 9.434-20.043c1.828-3.885 3.664-7.766 5.503-11.646l1.353-2.879 1.233-2.59 1.056-2.232C315 20 315 20 317 18c7.083-.562 7.083-.562 9.938 1.187C328.34 21.581 328.75 23.212 329 26a62.944 62.944 0 0 1-2.879 7.133l-.962 2.108A684.566 684.566 0 0 1 322 42l-2.105 4.503a2207.155 2207.155 0 0 1-6.832 14.372c-1.681 3.523-3.36 7.047-5.04 10.57l-1.273 2.672a3447.843 3447.843 0 0 0-8.336 17.625l-1.093 2.329c-1.692 3.604-3.381 7.209-5.069 10.815A1958.74 1958.74 0 0 1 287 116l-1.658 3.486-1.576 3.244-1.37 2.833C278.967 131.55 273.52 135.011 267 137c-7.118.96-12.93-.161-19-4-6.358-5.74-9.937-13.056-13.687-20.625-1.234-2.443-2.475-4.881-3.715-7.32l-.932-1.84c-2.69-5.304-5.53-10.516-8.416-15.715-6.309-11.408-12.21-23.023-18.108-34.646l-2.236-4.385-1.015-2.015c-3.483-7.183-3.483-7.183-8.828-12.892-2.876-.784-4.266-.654-7.063.438-5.26 5.334-8.225 11.862-11.562 18.5a3137.14 3137.14 0 0 1-3.77 7.375l-.95 1.859c-3.167 6.18-6.518 12.252-9.887 18.323-3.225 5.865-6.293 11.796-9.3 17.775l-2.391 4.734c-1.564 3.099-3.11 6.205-4.647 9.317-4.502 8.997-8.987 17.409-17.555 23.18-7.622 2.534-17.21 2.206-24.5-1.063-7.64-3.922-12.137-13.446-16.625-20.438l-1.707-2.641c-1.153-1.785-2.304-3.57-3.454-5.357-1.971-3.06-3.95-6.115-5.929-9.17-1.795-2.771-3.587-5.544-5.38-8.317-1.361-2.106-2.723-4.21-4.085-6.315l-1.379-2.13-2.752-4.253c-2.307-3.565-4.612-7.13-6.912-10.7a23590.044 23590.044 0 0 0-4.138-6.414 706.731 706.731 0 0 0-6.956-10.562l-1.398-2.08c-.877-1.299-1.756-2.596-2.64-3.891C34.349 39.162 32.988 36.96 32 34l-6-1-.011 3.77a9966.61 9966.61 0 0 1-.173 35.138c-.04 6.022-.072 12.044-.087 18.066-.015 5.81-.05 11.619-.097 17.428-.015 2.219-.023 4.437-.024 6.655a946.68 946.68 0 0 1-.062 9.31l.015 2.79c-.102 6.203-.102 6.203-2.408 9.418-2.934 1.942-4.699 1.929-8.153 1.425-3.136-1.78-3.841-2.523-5-6a61.554 61.554 0 0 1-.14-4.034l-.018-2.48-.003-2.712-.015-2.863a8901.307 8901.307 0 0 1-.064-29.623c-.006-5.845-.03-11.69-.058-17.536-.019-4.497-.024-8.994-.026-13.49-.003-2.155-.01-4.31-.024-6.464-.017-3.019-.015-6.036-.008-9.055l-.028-2.686C9.666 32.446 11.549 26.607 17 21c5.235-3.703 10.814-4.017 17-3 8.051 3.184 12.437 10.002 17 17l1.242 1.89c2.808 4.276 5.578 8.578 8.335 12.888 2.295 3.583 4.61 7.152 6.923 10.722l2.75 4.25 1.375 2.125 5.5 8.5 2.748 4.246c2.307 3.564 4.612 7.13 6.912 10.7 2.279 3.534 4.568 7.062 6.861 10.587 1.374 2.123 2.734 4.256 4.092 6.389l2.637 4.078 1.19 1.893c2.368 3.627 4.44 5.978 8.435 7.732 2.079.298 2.079.298 4.063-.063l1.972-.222c6.233-2.268 8.432-9.235 11.09-14.778 3.394-7 6.901-13.926 10.543-20.8 3.702-6.99 7.318-14.018 10.875-21.082l2.814-5.57a2345.18 2345.18 0 0 0 4.265-8.478c1.402-2.801 2.817-5.596 4.233-8.39l1.254-2.529C165.823 29.85 171.057 21.935 181 18c6.992-1.89 14.353-.563 20.313 3.563z"/><path d="M117 19c2.742 2.513 3.004 4.042 3.394 7.788.024 1.555.032 3.11.026 4.665l.026 2.578c.023 2.812.024 5.622.023 8.434l.023 5.866c.013 4.098.015 8.196.009 12.294-.006 5.25.025 10.5.065 15.75.026 4.038.029 8.076.025 12.114.002 1.936.012 3.872.03 5.807.021 2.708.012 5.414-.006 8.122l.04 2.42c-.06 4.027-.499 5.956-2.963 9.198C115 116 115 116 111.312 116 108 115 108 115 106 112c-.195-2.884-.273-5.67-.259-8.555l-.01-2.646c-.01-2.892-.003-5.783.003-8.674l-.005-6.019c-.003-4.207 0-8.413.01-12.62.012-5.397.005-10.794-.007-16.191-.007-4.144-.005-8.287 0-12.43.002-1.991 0-3.982-.005-5.972-.005-2.78.003-5.559.014-8.338l-.012-2.504c.029-3.873.072-5.753 2.271-9.051 3.569-1.19 5.392-.977 9 0zM175.438 73.371l2.779-.007c1.936 0 3.873.014 5.81.04 2.963.033 5.923.02 8.887 0 1.883.007 3.766.017 5.649.03l2.683-.015c6.1.116 6.1.116 9.309 2.398C212.705 79.064 212.61 81.2 212 85c-2.79 3.079-5.006 4.242-9.068 4.502-1.592.02-3.184.016-4.776-.006l-2.566.005c-1.785-.002-3.57-.014-5.355-.034-2.726-.03-5.45-.021-8.176-.008-1.739-.006-3.477-.015-5.215-.025l-2.46.008C169.82 89.367 166.65 89.051 163 86c-1.063-3.375-1.063-3.375-1-7 3.213-6.105 7.211-5.722 13.437-5.629z"/></g><path d="M142 170c12.341-.494 12.341-.494 15.43 1.82 1.57 2.18 1.57 2.18 1.445 5.305C158 180 158 180 156 182l2 2.375c2 2.625 2 2.625 2 4.625-3.151-.34-4.608-.58-6.813-2.938C152 184 152 184 152 182h-6v7h-4v-19zm4 4v5h7l2-4c-.983-1.206-.983-1.206-2.848-1.098L146 174zM101 170h4c2.14 2.188 2.14 2.188 4.25 5l2.14 2.813L113 180l1-10h4v19h-4c-2.14-2.188-2.14-2.188-4.25-5l-2.14-2.813L106 179l-1 10h-4v-19zM92 170c2.5 1.313 2.5 1.313 4 3v3l-3 1-1.875-1.5c-2.05-1.773-2.05-1.773-4.75-1.375-2.705.732-2.705.732-4.375 3.875.083 2.583.083 2.583 1 5 2.836 2.338 2.836 2.338 6.125 1.75L92 184l1-2h-5v-4h8v9c-4.452 2.226-7.162 2.488-12 2-3.42-1.17-3.915-1.873-6-5-.482-3.045-.463-5.953 0-9 3.795-5.06 7.89-5.688 14-5zM321 170c2.5 1.5 2.5 1.5 4 3l-1 3-1.563-.438c-3.122-.72-6.263-1.135-9.437-1.562v3l1.828.078c6.61.47 6.61.47 9.735 2.984L326 182a101.168 101.168 0 0 1-2 6c-2.464 1.232-4.19 1.167-6.938 1.188l-2.652.042C312 189 312 189 309 187l1-4 2.125 1.063c3.413 1.112 5.439.874 8.875-.063l1-2-2.082-.148-2.73-.227-2.708-.21C312 181 312 181 309 179c-.438-2.938-.438-2.938 0-6 3.061-3.827 7.462-3.725 12-3zM10 170c10.926-.437 10.926-.437 15 3 2.492 3.737 2.458 5.573 2 10-1.796 2.753-3.053 4.526-6 6-3.67.138-7.326.043-11 0v-19zm3 4v11c4.665.357 4.665.357 9-1.063 1.615-3.13.799-5.619 0-8.937-2.957-1.478-5.742-1.06-9-1zM213 170l5.75-.188 3.234-.105c3.35.326 4.682.903 7.016 3.293.505 3.954.088 6.607-2 10l1.5 1.875C230 187 230 187 230 189c-2.313-.188-2.313-.188-5-1l-1.438-2.5c-1.376-2.844-1.376-2.844-4.75-3.313L216 182v7h-3v-19zm3 4v5c4.65.27 4.65.27 9-1v-4h-9zM183 170c2.5 1.5 2.5 1.5 4 3l-1 3h-3v-2h-8v3l1.828.113c7.938.653 7.938.653 11.172 3.887-.313 2.875-.313 2.875-1 6-3.24 2.16-4.249 2.272-8 2.25l-2.625.016C174 189 174 189 171 187l2-4 1.625 1.063c3.15 1.243 5.144.799 8.375-.063l1-2-12-2-1-7c3.574-3.574 7.205-3.766 12-3zM61 170c2.5 1.5 2.5 1.5 4 3l-1 3-9-2-2 3 12 2c1 6 1 6-.375 8.375-3.773 2.336-7.289 2.282-11.625 1.625-2.281-1.023-2.281-1.023-4-2l1-4 1.863.543 2.45.644 2.425.668c2.352.407 2.352.407 4.055-1.304L62 182l-1.828-.113c-7.938-.653-7.938-.653-11.172-3.887.313-2.875.313-2.875 1-6 3.681-2.454 6.723-2.594 11-2zM291 170h15v4h-11v4h7v3h-7v4h11v4h-15v-19zM123 170h15v4h-11v4h7v3h-7v4h11v4h-15v-19zM31 170h15v4H35v4h7v3h-7v4h11v4H31v-19zM191 170h4l1 14c4.605 1.453 4.605 1.453 7 0 .47-3.276.47-3.276.625-7.063l.227-3.91L204 170h4c.109 2.228.186 4.458.25 6.688l.14 3.761c-.457 4.158-1.33 5.74-4.39 8.551-2.219.664-2.219.664-4.5.625l-2.281.04c-3.395-1.017-4.43-2.657-6.219-5.665-.39-3.55-.39-3.55-.25-7.313l.11-3.8L191 170zM256 170c1.88.295 1.88.295 4 1a65.552 65.552 0 0 1 3.75 7.375l.957 2.078c1.348 3 2.293 5.225 2.293 8.547h-4l-1-3h-9l-1 3h-4c.618-4.553 2.468-8.285 4.563-12.313l.998-1.955c.807-1.58 1.622-3.156 2.439-4.732zm1 5l-2 7h5l-2-7h-1zM280.063 169.566c3.055.684 4.826 2.191 6.937 4.434v2l-3 1-1.875-1.5c-2.05-1.773-2.05-1.773-4.75-1.375-2.705.732-2.705.732-4.375 3.875.083 2.583.083 2.583 1 5 2.75 2.292 2.75 2.292 5.5 1.75 2.714-.681 2.714-.681 5.5-2.75l2 1c-.313 1.875-.313 1.875-1 4-4.035 2.69-7.262 2.78-12 2-3.063-1.938-3.063-1.938-5-5-.691-3.16-.697-5.84 0-9 3.002-4.597 5.78-5.764 11.063-5.434zM234 170h14v4h-11v4h7v4h-7v7h-3v-19zM70 170h3v19h-3v-19z"/></svg>