<svg height="559" viewBox="-.4 -.4 2300.3 514.6" width="2500" xmlns="http://www.w3.org/2000/svg"><path d="m1253.3 393h-97.4c-14.1 0-25.6 11.5-25.6 25.6v69.5c0 14 11.5 25.6 25.6 25.6h97.4c14.1 0 25.6-11.6 25.6-25.6v-69.5c0-14-11.5-25.6-25.6-25.6m4.1 95c0 2.8-2.3 5-5 5h-95.7c-2.8 0-5-2.2-5-5v-69.2c0-2.7 2.2-5 5-5h95.7c2.7 0 5 2.2 5 5z" fill="#898e89"/><path d="m136 289.1v89.4h-22.4v-120.7h19.1l90.5 87.9v-87.9h22.1v120.7h-17.5zm224 0v89.4h-22.3v-120.7h19.1l90.4 87.9v-87.9h22.1v120.7h-17.4zm464.4 0v89.4h-22.4v-120.7h19.1l90.5 87.9v-87.9h22.1v120.7h-17.4zm-525.9-31.3h4.1v120.7h-22.3v-120.7zm323 0h4.1v20.8h-53.9v99.9h-23.2v-99.9h-53.9v-20.8zm143.2 0h4.2v20.8h-95.8v27h74.1v20.8h-74.1v31.3h95.8v20.8h-117.9v-120.7zm329.9 17.6c-8.7-11.5-21.7-17.7-37.3-17.7h-89.5v120.8h89.5c15.6 0 28.6-6.1 37.3-17.6 8.2-10.7 12.5-25.5 12.5-42.8 0-17.2-4.3-32-12.5-42.7m-36.7 82.3h-68.6v-79.1h68.6c21.5 0 29.1 21.3 29.1 39.5.1 18.3-7.6 39.6-29.1 39.6m195.4-99.9h-97.4c-14.1 0-25.6 11.6-25.6 25.6v69.5c0 14 11.5 25.6 25.6 25.6h97.4c14.1 0 25.6-11.6 25.6-25.6v-69.5c0-14.1-11.5-25.6-25.6-25.6m4.1 94.9c0 2.7-2.3 5-5 5h-95.7c-2.8 0-5-2.3-5-5v-69.2c0-2.7 2.2-4.9 5-4.9h95.7c2.7 0 5 2.2 5 4.9zm722.1 110.4c23.2 9.2 72.1 16.5 110.3 16.5 41.8 0 59.1-14.3 59.1-32.3 0-16.2-16.1-25.7-62.3-42.5-61.7-22.8-106.9-40.8-106.9-81.3 0-42 54.5-66.7 137.5-66.7 44.5 0 59.9 2.8 88.2 8l.2 39.8c-27.8-5.3-52.4-14.3-90.7-14.3-41 0-58.6 13-58.6 26.4 0 19.5 27 28.8 74.2 45.6 65.7 23.5 102.3 41.7 102.3 81.4 0 40.8-45.8 70.3-149.1 70.3-42.5 0-71.7-2.8-104.3-8v-42.9zm-87.9 32.4c-24.3 11-70.3 18-110.6 18h-153.7v-256.2h153.7c40.2 0 86.2 7.1 110.6 18.1 59.2 26.7 78.6 69.5 78.6 110 0 40.6-19.2 83.3-78.6 110.1m-132-203.5h-49.2v186.1h49.2c75.5 0 123.1-32.2 123.1-92.7 0-60.4-47.6-93.4-123.1-93.4" fill="#000100"/><path d="m1519.6 373.3s71.7-11.4 71.7-56.1c0-43.7-76.4-61.5-157.6-61.5-73.3 0-121.5 9-121.5 9v39.7c33.3-8.1 65.1-14.9 108.5-14.9 46.6 0 82.1 13.9 82.1 33.5 0 23.6-35.1 37.1-110.8 37.1h-34.8v35.7h32.3c79.6 0 125 12 125 41.2 0 26.1-40.5 41.9-90.9 41.9-44 0-84.3-9.3-116.9-18.4v42.7c15.7 2.7 57.3 11 134.8 11 85.9 0 160.5-27.6 160.5-76.3-.1-40.6-51.8-64.6-82.4-64.6" fill="#cd181e"/><path d="m2253.8 484.8h-8.1v-4.4h21.4v4.4h-8.2v24h-5.1zm40.6 12.4c-.2-3.7-.4-8.1-.3-11.9h-.2c-.9 3.5-2.1 7.3-3.4 10.9l-4.2 12.3h-3.9l-3.8-12.2c-1.1-3.6-2.1-7.5-2.9-11h-.1c-.1 3.7-.3 8.2-.5 12.1l-.6 11.4h-4.8l1.9-28.4h6.8l3.7 11.4c1 3.3 1.9 6.7 2.6 9.9h.1c.8-3.1 1.7-6.6 2.8-9.9l4-11.4h6.7l1.6 28.4h-5z" fill="#000100"/><path d="m57.7 97.1-53.1-7c-1.6-.3-3.1.9-3.3 2.5-1.7 14.8-1.7 29.8-.1 44.6.2 1.6 1.7 2.7 3.3 2.5l53.1-6.9c1.6-.2 2.7-1.6 2.5-3.2-1.1-9.7-1-19.5 0-29.3.2-1.6-.9-3-2.4-3.2" fill="#a0cd08"/><path d="m84.6 33.2-42.5-32.6c-1.3-1-3.1-.8-4.1.5-8.9 12-16.4 24.9-22.3 38.6-.6 1.5.1 3.2 1.6 3.8l49.4 20.6c1.5.6 3.1-.1 3.7-1.5 4-9 8.9-17.5 14.7-25.4 1-1.2.7-3-.5-4" fill="#f40024"/><path d="m66.3 165.8-49.5 20.5c-1.5.6-2.2 2.3-1.5 3.8 5.9 13.7 13.4 26.7 22.3 38.7.9 1.3 2.8 1.5 4.1.5l42.5-32.5c1.2-.9 1.5-2.7.6-4-5.8-7.9-10.7-16.4-14.6-25.4-.8-1.5-2.5-2.2-3.9-1.6" fill="#019ef3"/><path d="m462.2 152.9h-43.9c-2.7 0-4.3.6-5.1 1.1-.2.1-.4.3-.6.4-6.8 4.5-16.4 8.6-28.9 8.6-33.1 0-45.5-27.4-45.5-47.9 0-21.9 13.2-47.9 45.7-47.9 23.6 0 38.1 14.7 41.8 29.2.4 1.7.8 3.3-.9 3.3h-63.4c-1.8 0-3.3 1.5-3.3 3.3v27.2c0 1.8 1.5 3.3 3.3 3.3h87.5c18.1 0 22.9-5.7 22.9-22.7 0-49.2-40.6-84.4-87.3-84.4s-88.3 35.8-88.3 83.2c0 52 29.2 94.3 88.5 94.3 49.4 0 71.4-29.4 80.5-47.5.5-.9 1.4-3.5-3-3.5m-346.2 46.5c-1.3 0-2.4-1.1-2.4-2.4v-96.9c0-36.8 30.7-73.6 80.6-73.6s80.6 36.8 80.6 73.6v96.9c0 1.3-1.1 2.4-2.4 2.4h-39.7c-1.3 0-2.4-1.1-2.4-2.4v-91.2c0-17.4-12.6-34.8-36.2-34.8s-36.2 17.4-36.2 34.8v91.2c0 1.3-1.1 2.4-2.4 2.4zm510.4-168.7c1.3 0 2.4 1.1 2.4 2.4v100.5c0 17.3 7.6 25.5 19.8 25.5s21.2-8.2 21.2-25.5v-100.5c0-1.3 1.1-2.4 2.4-2.4h41.8c1.3 0 2.4 1.1 2.4 2.4v103.9c0 40.9-27.4 66.6-60.7 66.6-14.1 0-35.8-3.6-51.4-23.7-12.8 20.1-33.6 23.7-48.6 23.7-33.3 0-60.7-25.6-60.7-66.6v-103.9c0-1.3 1.1-2.4 2.4-2.4h41.8c1.3 0 2.4 1.1 2.4 2.4v100.5c0 17.3 9.5 25.5 21.2 25.5s19.8-8.2 19.8-25.5v-100.5c0-1.3 1.1-2.4 2.4-2.4z" fill="#000100"/><path d="m780.1 132.9 53.1 7c1.6.2 3.1-.9 3.3-2.5 1.7-14.8 1.8-29.8 0-44.6-.2-1.6-1.7-2.7-3.3-2.5l-53.1 6.9c-1.6.2-2.7 1.6-2.5 3.2 1.1 9.7 1.1 19.6 0 29.3-.1 1.6.9 3 2.5 3.2" fill="#f7a70d"/><path d="m753.2 196.7 42.5 32.6c1.3 1 3.1.7 4.1-.6 8.9-12 16.4-24.9 22.3-38.6.6-1.5-.1-3.2-1.5-3.8l-49.4-20.6c-1.5-.6-3.1.1-3.8 1.5-3.9 9-8.9 17.5-14.7 25.4-1 1.4-.8 3.2.5 4.1" fill="#ee298e"/><path d="m771.5 64.2 49.5-20.5c1.5-.6 2.2-2.3 1.6-3.8-5.9-13.7-13.4-26.7-22.2-38.6-1-1.3-2.8-1.5-4.1-.6l-42.5 32.6c-1.2.9-1.5 2.7-.5 4 5.8 7.9 10.7 16.4 14.6 25.4.5 1.4 2.2 2.1 3.6 1.5" fill="#029792"/></svg>