<svg height="82mm" viewBox="171 -0.645 373.61 758.653" width="500mm" xmlns="http://www.w3.org/2000/svg"><path d="M277 0v14.72h29.514v67.344h14.72V14.72h29.513V0z" fill="#717275"/><g fill="#717275" transform="matrix(3.68 0 0 -3.68 -1504 2789)"><path d="M425 758h-16.7v-22.3h3.99V754l12.7-.002c.753 0 1.36-.61 1.36-1.36l.003-16.9h4v16.9c0 2.96-2.4 5.36-5.36 5.37M530 752c0 2.96 2.4 5.36 5.36 5.37h9.25v-4h-9.24a1.36 1.36 0 0 1-1.36-1.36l-.003-16.9h-4z"/></g><path d="M233 61l20.6 20.6H273l-40.1-40.1zM233 20L253.645-.645h19.43l-40.112 40.112z" fill="#ee2722"/><g fill="#717275"><g transform="matrix(3.68 0 0 -3.68 -1504 2789)"><path d="M455 752c0 2.96-2.4 5.36-5.36 5.37h-11.3a5.364 5.364 0 0 1-5.36-5.37v-11.5c0-2.96 2.4-5.36 5.36-5.37h14.7v4l-14.7.001a1.36 1.36 0 0 0-1.36 1.36v11.5c0 .753.61 1.36 1.36 1.36h11.3a1.36 1.36 0 0 0 1.36-1.36v-3.12a1.36 1.36 0 0 0-1.36-1.36l-8.67-.002v-3.99h8.67c2.96.001 5.36 2.4 5.36 5.37zM527 752c0 2.96-2.4 5.36-5.36 5.37h-11.3a5.364 5.364 0 0 1-5.36-5.37v-11.5c0-2.96 2.4-5.36 5.36-5.37h14.7v4l-14.7.001a1.36 1.36 0 0 0-1.36 1.36v11.5c0 .753.61 1.36 1.36 1.36h11.3a1.36 1.36 0 0 0 1.36-1.36v-3.12c0-.753-.609-1.36-1.36-1.36l-8.67-.002v-3.99h8.67c2.96.001 5.36 2.4 5.36 5.37z"/></g><path d="M171 0l40.848 40.848L171 81.696h19.43l40.848-40.848L190.43 0z"/></g></svg>