<svg height="625" width="2500" xmlns="http://www.w3.org/2000/svg" viewBox="0 -0.8 600 151.5"><path d="M0-.8h600v151.5H0z" fill="#101010"/><path d="M125.8 112.8c-1.6 0-3-.1-4.1-.4s-2.4-.9-4-1.7L61.6 77.6l-8.5 32.3c-.5 2-1.5 3-2.9 3H39.7c-1.4 0-1.9-1-1.4-3l18.5-69.8c.5-1.9 1.5-2.9 2.9-2.9h10c.9 0 1.6 0 2.3.1s1.3.1 1.9.3 1.2.4 1.8.7 1.2.6 2 1.1l51.9 31.9 8.3-31.1c.5-1.9 1.5-2.9 2.9-2.9h10.4c1.4 0 1.9.9 1.4 2.9L134.2 110c-.5 2-1.5 3-2.9 3zm41.3 0c-3.8 0-7.1-.9-9.9-2.8-2.7-1.9-4.9-4.6-6.4-7.9s-2.2-7.4-2.4-11.9c-.1-4.7.5-9.7 2-15.2 1.4-5.5 3.4-10.4 5.9-15.1s5.4-8.6 8.6-12c3.2-3.3 6.8-6.1 10.5-7.9s7.7-2.8 11.6-2.8h56.8c1.4 0 1.9.9 1.4 2.9l-1.9 7.1c-.5 2-1.5 3-2.9 3h-37.7c-1.7 0-3.3.3-4.8.7-1.4.5-2.6 1.4-3.7 2.7s-2.1 3-3 5.4c-.9 2.2-1.8 5.1-2.7 8.4l-3.2 12.1c-1 3.7-1.6 7-1.9 9.6-.3 2.5-.3 4.7.1 6.3s1.1 2.7 2 3.4c1 .7 2.3 1.1 4 1.1h37.9c1.4 0 1.9 1 1.4 2.9l-1.9 7.1c-.5 1.9-1.5 2.9-2.9 2.9zM193.6 78c-1.4 0-1.9-.9-1.4-2.9l1.9-7.2c.5-1.9 1.5-2.9 2.9-2.9h38.8c1.4 0 1.9.7 1.6 2l-2.4 9c-.4 1.3-1.2 2-2.6 2zm103.9 34.8c-1.7 0-3.1-.8-4-2.4l-14.8-26.6-34.1 26.9c-1 .8-1.9 1.4-2.8 1.7s-1.9.5-2.9.5H233c-1.1 0-1.6-.5-1.2-1.7.2-.7.7-1.4 1.4-2l41.6-32.9-19.3-34.7c-.4-.7-.4-1.4-.3-2.2.4-1.3 1.2-2 2.6-2h33.9c1.9 0 3.2.8 4 2.4l10.2 18.5 24-18.8c.9-.7 1.9-1.2 2.7-1.6.9-.3 1.9-.5 3-.6h5.9c1.1 0 1.6.5 1.2 1.7-.2.7-.7 1.4-1.4 2L310 65.8l23.8 42.9c.4.7.5 1.4.3 2-.4 1.4-1.2 2.1-2.6 2.1zm58.3 0c-1 0-1.4-.5-1.1-1.4l16.2-61.2h-23.8c-1 0-1.4-.4-1.2-1.2l2.7-10.4c.3-.9.9-1.4 1.9-1.4h79.6c1 0 1.4.5 1.1 1.4l-2.7 10.3c-.2.8-.8 1.2-1.9 1.2h-23.8l-16.2 61.2c-.3.9-.9 1.4-1.8 1.4h-29zm63.3 0c-1.4 0-1.8-1-1.3-3L436.3 40c.5-1.9 1.4-2.9 2.9-2.9h28c1.4 0 1.8.9 1.3 2.9L450 109.8c-.5 2-1.5 3-2.9 3zm64.4 0c-3.8 0-7.1-.9-9.9-2.8-2.7-1.9-4.9-4.6-6.4-7.9s-2.2-7.4-2.4-11.9c-.1-4.7.5-9.7 2-15.2 1.4-5.5 3.4-10.4 5.9-15.1s5.4-8.6 8.6-12c3.2-3.3 6.8-6.1 10.5-7.9 3.7-1.9 7.7-2.8 11.6-2.8h56.8c1.4 0 1.9.9 1.4 2.9l-1.9 7.1c-.5 2-1.5 3-2.9 3H519c-1.7 0-3.3.3-4.8.7-1.4.5-2.6 1.4-3.7 2.7s-2.1 3.1-3 5.4c-.9 2.2-1.8 5.1-2.7 8.4l-3.2 12.1c-1 3.7-1.6 7-1.9 9.6-.3 2.5-.3 4.7.1 6.3s1.1 2.7 2 3.4c1 .7 2.3 1.1 4 1.1h37.9c1.4 0 1.9 1 1.4 2.9l-1.9 7.1c-.5 1.9-1.5 2.9-2.9 2.9h-57zM510.1 78c-1.4 0-1.9-.9-1.4-2.9l1.9-7.2c.5-1.9 1.5-2.9 2.9-2.9h38.8c1.4 0 1.9.7 1.6 2l-2.4 9c-.4 1.3-1.2 2-2.6 2z" fill="#fff"/></svg>