<svg height="841pt" viewBox="17.7 17.3 3440.3 815.7" width="3481pt" xmlns="http://www.w3.org/2000/svg"><path d="m87.5 18.1c-9.2 1.4-15.7 3.5-25.7 8.7-7.6 3.8-11 6.4-18.9 14.2-9.9 9.8-14.6 16.9-19.5 29.2-5.7 14.6-5.4-6.4-5.2 359.3l.3 336 2.3 7.5c8.9 28.7 28.4 48.5 56.4 57.2l7.3 2.3 337 .3c249.8.2 338.9 0 344.5-.8 30.3-4.7 55.5-27 65.2-58l2.3-7.5v-341c0-326.4-.1-341.3-1.8-347.5-4.5-15.9-15.7-33.1-27.9-42.9-7.4-5.9-19.3-12-29.8-15.3l-7.5-2.3-336.5-.1c-187.9-.1-339.1.2-342.5.7zm428.5 584c32.5-24.3 54.1-61.7 59.1-102.1 1.7-14 .6-36.9-2.5-50-6.8-29.1-20.3-53.6-40.8-74.2l-9.8-9.7v-8.5c0-4.7.4-8.6.9-8.6 1.9 0 16.4 12.4 23.7 20.3 19.5 21.2 32.9 45.9 39.8 73.5 3.9 15.5 4.9 25.8 4.3 45.2-.8 25.4-5.2 43.6-15.7 65.6-8.2 16.9-17.8 30.3-32.4 45-25.6 25.5-54.4 40.5-89.1 46.4-17.1 2.9-45.3 2.5-60.9-.9-42.7-9.2-80.1-34.6-104.1-70.8-31.3-47-36.1-108.8-12.4-160.1 10-21.6 26.8-43.3 45.3-58.5 3.9-3.1 7.4-5.7 7.8-5.7s.8 3.9.8 8.6v8.7l-10.8 11.1c-12.1 12.5-21.8 26.3-28.6 40.6-22.2 46.9-18.5 102.2 9.8 146 9.8 15.1 29.8 35.5 41.5 42.3l3.1 1.8v-139.6l21.1-11.5c11.6-6.3 21.5-11.7 22-11.8.5-.2.9 37 .9 91.1v91.4l6.3 1.3c3.4.6 6.8 1.4 7.5 1.6.9.3 1.2-28.4 1.2-141.1v-141.4l21.9-12c12-6.7 22.1-12.1 22.5-12.1.3 0 .6 68.8.6 153 0 126.8.2 153 1.3 153 .8 0 3.9-.5 7-1.1l5.7-1.2.2-200.1.3-200.1 22-12.1 22-12.2.5 202.3.5 202.3zm1654.5-396.1c-39.6 4.7-72.8 21.4-94.8 47.8-20.9 25-31 56.1-29.4 89.6.3 6.7 1.3 15.9 2.2 20.5 8.4 43.8 38.5 78.7 82.5 95.6 32.9 12.8 77.8 13.3 111.7 1.4 59.1-20.8 93.6-73.6 88.3-135-2.9-32-14-56.6-35.8-79.1-19.4-20-44-32.8-74.8-38.8-12.2-2.4-38-3.5-49.9-2zm36.6 70.8c18 6.4 31.1 21.4 36.5 42.3 2.4 8.8 2.4 28.1.1 36.9-6.9 25.9-26.1 42.8-51 44.6-34.5 2.5-60.7-24.7-60.7-63.1 0-11.8 2.4-22.4 7.2-32.5 7-14.5 20.4-25.7 35.4-29.5 8.1-2 25-1.4 32.5 1.3zm859.9-70.7c-18.5 2-41.6 9.3-57.5 18.4-33.1 18.9-55.4 50.9-62 89-1.8 10.5-2.1 35.1-.5 45.2 5.5 34.3 22.7 63.3 49 82.7 28.1 20.7 64.6 30.4 103.6 27.6 38.3-2.7 66.6-14.9 90.4-38.8l10.4-10.5-4.5-4.1c-2.5-2.3-14.7-13.2-27.1-24.3l-22.6-20.2-4.6 5.4c-15.9 18.5-40.8 27.6-63.7 23.1-11.4-2.3-19.7-6.5-27.9-14.2-10.8-10.2-16.3-22.1-17.9-39.2-2.4-24 3.6-42.8 18-56.9 13-12.8 34-18.1 54.3-13.8 11.7 2.5 22.7 8.7 32.9 18.7 5.3 5.2 9.4 8.5 10.1 8.1.6-.4 12.7-11 26.8-23.6l25.8-22.9-3-3.8c-1.7-2.1-6.6-7.2-11-11.3-28.7-27-71.6-39.5-119-34.6zm-704 131.4v126.5h85v-81h106v-64h-106v-44h121v-64h-206zm233 0v126.5h85v-81h106v-64l-52.7-.2-52.8-.3-.3-21.8-.2-21.7h121v-64h-206zm233 0v126.5h85v-253h-85zm396 0v126.5h210v-64h-126v-34h107v-61h-107v-30h122v-64h-206zm-2207 7v126.5h83l.2-57.4.3-57.4 6.5 7.7c3.6 4.3 25.2 30.1 48 57.4l41.5 49.7 35-.3 35-.2.3-126.3.2-126.2h-84l-.2 56.9-.3 56.9-47.5-56.9-47.5-56.9h-70.5zm291 0v126.5h210v-64h-126v-34h107v-61h-107v-30h122v-64h-206zm222.5-125.4c.4.6 20 28.5 43.6 62.1s42.9 61.5 42.9 62.1c0 .5-20.1 28.8-44.6 63-24.6 34.2-44.9 62.7-45.1 63.4-.4 1.1 8.9 1.3 47.8 1.1l48.4-.3 21-33.2c11.5-18.3 21.3-33.2 21.7-33 .4.1 10.4 15 22.1 33.2l21.4 33 48.7.3c26.7.1 48.6 0 48.6-.2 0-.3-20.9-29.8-46.5-65.6l-46.5-65.2 3.1-4.2c1.7-2.2 19.8-27.4 40.2-55.8l37.2-51.8.3 28 .2 28h74l.2 93.2.3 93.3 42.8.3 42.7.2v-187h74v-66h-319l-20.9 31.6-20.8 31.7-16.5-24.4c-9.1-13.4-18.7-27.7-21.3-31.7l-4.8-7.2h-47.9c-33.8 0-47.7.3-47.3 1.1zm1495.5 352.8-7.5.6-.6 15c-.4 11.4-2.7 29.5-9.3 74.8-4.8 33-8.6 60-8.4 60.2.5.5 18.9-1.3 19.5-1.9.4-.3.8-5.4 1.1-11.3l.4-10.8 6.3-12.2c8.9-17.1 17.5-30 24.4-36.7 5.9-5.6 8.6-6.7 10.9-4.4 1.9 1.9 1.5 5.5-4.3 41.7-3 18.8-5.5 34.6-5.5 35 0 .9 7.5.6 16.6-.5l4.1-.5.6-12.2c.3-6.7 2.4-23.6 4.7-37.4 5.3-33.5 5.2-37-1.2-43-2.9-2.7-10.5-6.2-13.5-6.3-4.4 0-17.2 14.6-29.7 33.8-6.2 9.5-8.6 12-8.6 9 0-1.3 11.6-84.8 12.5-90.6.7-3.6 2-3.4-12.5-2.3zm187.4 7.1c-4 1.6-6.4 5.9-6.4 11.2 0 4.1.5 5.4 2.9 7.9 2.5 2.5 3.7 2.9 8.1 2.9s5.6-.4 8.1-2.9c2.4-2.5 2.9-3.7 2.9-8.1 0-2.8-.5-6-1-7.1-2.2-4-9.5-6-14.6-3.9zm-799.9 5c-20.8 4.3-35 18.7-36.2 36.8-.7 9.5.6 14.3 5.6 21.9 4.2 6.2 9.5 10.6 20.6 17.3 12.2 7.3 20.4 14.1 22.5 18.5 3.8 7.9 2.1 15.4-4.8 21.7-4.3 3.9-12 6.8-18.2 6.8-9 0-22.8-5.6-29.3-11.8-3.2-3.1-3.9-3.4-5.1-2.2-1.2 1.4-5.6 17.2-5.6 20.4 0 .8 2.7 2.5 6.8 4 32.2 12.2 64.5 4.1 75.8-19.1 2.3-4.6 2.9-7.4 3.2-14.9.4-8.2.2-9.8-2.1-14.6-3.9-8.5-9-13.3-24.6-23.5-20.9-13.7-24.3-17.3-24.3-25.8 0-19.3 26.1-25.8 46.5-11.8 5.1 3.6 6.5 2.6 9.3-6.7 3.9-12.8 4.3-11.5-3.4-13.9-12.2-3.9-26.7-5.1-36.7-3.1zm534 .5c-35.1 6.5-54.5 35.1-54.6 80.4-.1 22.3 4.2 35.1 15.2 45.6 9.3 8.8 19.8 12.5 36.1 12.5 12.2 0 30-4.8 33.4-9.1 1.6-1.9 5-18.6 4.1-19.6-.5-.4-1.8-.1-3 .7-11.1 7.1-20.4 10-31.7 10.1-17.1 0-26.6-8-30.6-26-2.1-9.2-1.4-32.2 1.1-42.1 6.3-23.9 20.4-36.1 42-36.1 9.8 0 15.3 1.6 23.1 6.7 3.2 2.1 6.3 3.9 6.8 3.9 1.5 0 7.4-18.4 6.2-19.4-2.8-2.2-10.5-5.4-17.3-7.2-8.8-2.2-20.3-2.4-30.8-.4zm-127.5 14.1c-4.1 1.8-7.9 3.5-8.3 3.6-.5.2-1.3 3.9-1.8 8.3s-1.1 9.5-1.4 11.2l-.6 3.3h-15.6l-.7 5.6c-.3 3-.4 6-.1 6.5.4.5 3.7.9 7.6.9 5.9 0 6.9.3 6.9 1.7 0 1-2.3 16.2-5.1 33.8-4.5 28.2-5 32.5-4 36.3 3.3 12 15.9 16.7 27.1 9.9 5.5-3.3 15-13.6 18.5-20.1l1.9-3.5-2.9-3.1c-1.6-1.6-3.4-3-4.1-3s-2.7 2-4.3 4.4c-5.7 8.2-11.8 11.9-16 9.6-2.9-1.5-2.8-3.4 2.4-36 2.5-15.5 4.5-28.6 4.5-29.1s6.3-.9 13.9-.9h13.9l.4-5.3c.2-2.8 0-5.8-.5-6.5-.7-.8-4.5-1.2-12.8-1.2-14 0-13 1.7-9.9-16 1.1-6.3 2-12.1 2-12.8 0-1.9-2.9-1.3-11 2.4zm-128.8 25.4-6.2 2.9-6.8-2.5c-4.8-1.9-7.8-2.4-10.7-2-19.7 2.6-38.8 21.8-45.5 45.8-6.6 23.4-1.4 46.3 12.2 53.4 5 2.6 7.2 1.8 13-4.9 6.7-7.6 15.3-19.2 19.9-26.9 3.3-5.5 5.9-7.4 5.9-4.3 0 .8-1.2 9.4-2.6 19.1-1.4 9.6-2.5 17.6-2.3 17.8.6.4 18.9-1.1 19.4-1.6.3-.2.9-7.2 1.4-15.4.6-8.2 3.1-29 5.6-46.3 4.6-32.1 5.1-36.6 3.8-37.4-.5-.3-3.6.8-7.1 2.3zm-18.7 16.4c3.3 1.3 6.1 3 6.3 3.9.5 2.3-9.6 24-16.9 36.2-7 11.7-15.8 21.9-18.6 21.3-.9-.2-2.6-1.8-3.6-3.6-1.6-2.7-1.9-5.2-1.9-14.5 0-22.3 6.8-38.3 18.7-43.8 5.2-2.4 8.7-2.3 16 .5zm469.1-17.9c-18.4 4.7-31.8 19.2-37.8 41.2-1.7 6.2-2.1 10.8-2.2 22.8-.1 13.7.1 15.4 2.2 20 3 6.6 7.6 11.3 13.7 14 7.6 3.4 9.9 3.7 17.5 2.1 19-4 33-18.8 39.2-41.5 1.7-6.1 2.1-10.7 2.2-23.1.1-13.7-.1-16-2-20-3.1-6.6-6.8-10.6-12.7-13.4-6.7-3.3-12.7-3.9-20.1-2.1zm12.1 17.7c3.4 3.1 4.7 10.6 4 23.7-1.2 23.8-7.5 37.8-18.9 42.5-8 3.4-14.7 1.4-17.4-5-1.9-4.4-1.9-24.9 0-34.6 3.4-17.7 10-26.7 20.8-28.6 5.5-1 8.8-.4 11.5 2zm198.9-18.1c-7.2 1.8-17.5 8-22.7 13.7-10 10.9-15 23.4-17 42-2.6 24.8 4.2 39.3 20.6 43.7 12.6 3.5 23.8-.7 36.8-13.5 4.2-4.3 7.7-8.2 7.7-8.7 0-1.7-6.1-9.3-7.5-9.3-.7 0-2.7 1.8-4.5 3.9-4.5 5.7-12 10.9-17.7 12.2-9.5 2.2-15.4-3.5-16.9-16.2l-.6-5.7 6.8-2.2c3.8-1.2 12-4.7 18.2-7.6 9.2-4.4 12.5-6.7 18.1-12.2 5.8-5.7 7.2-7.7 8.6-12.5 2-6.9 1.4-12.4-2.1-18.4-4.3-7.4-17.5-11.8-27.8-9.2zm11 16c1.8 1.5 1.8 9.2 0 12.8-1.7 3.2-7.6 8.7-12.6 11.7-4.8 2.9-17.9 7.9-18.6 7.1-1.2-1.2 1.8-13.2 4.9-19.5 3.6-7.5 9.3-12.8 15.1-14 4.3-.9 8.8-.1 11.2 1.9zm-877.3-15.2c-4.5.4-8.5 1-9 1.4-.4.5-1 6.5-1.4 13.5s-3 28.4-5.8 47.6-5.1 35.5-5.1 36.1c0 1.2 5.9 1.1 15.6-.1l4.2-.5.7-11.2.7-11.2 6.4-12.5c14.8-29.1 29-45.9 34.9-41 .8.7 1.5 2.2 1.5 3.4 0 1.1-2.5 18.2-5.7 37.8-3.1 19.7-5.5 35.9-5.2 36.1.2.2 4.6 0 9.8-.3 6.2-.5 9.6-1.2 10.2-2.1.5-.8.9-5.4.9-10.2v-8.8l7.3-14.2c15.9-30.8 29.3-46.6 35.2-41.7.8.7 1.5 2.3 1.5 3.7 0 1.3-2.5 18.4-5.6 38-3 19.5-5.4 35.6-5.2 35.7.7.5 18.6-1.2 19.7-1.8.7-.5 1.1-4.2 1.1-10.1 0-6.4 1.4-18.3 4.5-37.1 5.2-31.9 5.5-36.7 2.2-41.5-2.7-4-7.6-7.5-12.9-9.1-3.3-1-4.4-.9-6.6.4-4.5 2.6-16.1 16.6-24.9 30-7.7 11.7-10.3 14.7-10.3 11.7 0-.7.7-5.7 1.6-11.3 1.9-12 1.5-18.2-1.5-22.5-2.7-3.7-9.2-7.7-14.2-8.6-3.3-.6-4.1-.3-7.8 3.1-6.1 5.4-15.4 17.3-23.4 29.6-3.8 6-7.4 10.8-7.8 10.8-1.3 0-1.2-1.8 1.6-21.6 2.7-19.1 2.9-22.5 1.8-22.2-.5 0-4.5.4-9 .7zm251.9.1c-4.5.4-8.5.9-8.7 1.2-.3.3-.9 6.5-1.4 13.9-.6 7.4-3.3 28.8-6 47.7-2.8 18.8-5.1 34.8-5.1 35.5 0 1.4 5.2 1.4 15.6.1l4.2-.5.7-10.7c.6-9.8 1.1-11.6 5.5-21.5 10-22.4 19.2-34.2 28.9-37.1 2.8-.8 5.8-1.3 6.6-1 .8.4 1.7-.1 2.1-.9.5-1.5 4.3-26 4-26.4 0-.1-1.4-.5-2.9-.8-2.5-.7-3.7.2-13.5 10.2-9.8 10.1-12.2 13.3-23.1 31.3-2.3 3.8-2.2-1.5.2-18.8 2.9-19.8 3.1-23.3 2-23.1-.5.1-4.5.5-9.1.9zm478.8-.3c-2.5.1-6.3.5-8.6.8l-4.1.6-.7 11.7c-.4 6.4-3.1 28.5-6.1 49.1s-5.3 37.6-5.2 37.7c.5.4 18.9-1.5 19.4-2 .4-.3 1-6.6 1.4-13.8.6-10.9 8.4-72 10.5-82.1.4-1.9.2-2.6-.8-2.5-.7.1-3.3.3-5.8.5zm57.8 1.2c-16.2 5.2-27.4 18.4-33 38.8-2.8 10.5-3.1 36.3-.5 43.2 3.8 9.7 11.7 15.7 22.2 16.8 4.7.5 6 .1 12.5-3.3 8-4.2 14.9-10.4 19.7-17.8l3.3-4.9-3.1-3.8c-2.7-3.5-6.9-5.3-6.9-3 0 1.7-7.3 10.3-11.2 13.2-3.1 2.2-5.2 2.9-8.5 2.9-5.8 0-8.8-3.1-10.4-10.8-1.4-6.9-.6-27.4 1.4-34.7 5.7-20.8 20.9-29.2 33.1-18.5 5.6 4.9 7 4.2 10.1-5 1.5-4.5 2.4-8.7 2.1-9.5-.8-2.1-13-5.5-19.5-5.4-3.1 0-8.2.8-11.3 1.8zm149.7-.5c-11 3.5-20 10.7-23.5 18.8-2.5 5.8-3 14.3-1.2 19.8 1.3 4 9.7 12.6 18.3 18.8 12.5 9.1 15 14.1 10.9 21.9-5.3 10-19.1 9.2-30.1-1.8-2.2-2.2-4.6-3.8-5.3-3.6-.6.3-2.2 4.6-3.5 9.7-2.7 10.4-3.1 9.6 5.9 13.2 4.5 1.8 7.6 2.2 16.5 2.2 10.3.1 11.4-.1 17.7-3.1 12.5-5.9 18-13.7 18.6-26.5.6-12.4-2.3-16.9-19.6-29.8-5.3-4-9.5-7.9-10.7-10.2-1.8-3.4-1.9-4-.5-8 3.8-10.7 16.2-11.6 27.3-1.8 2 1.8 4.3 3 5 2.7.7-.2 2.2-3.8 3.4-7.8 1.2-4.1 2.5-8.2 2.8-9.1.5-1.4-.8-2.1-7.5-4.2-9-2.9-17.9-3.3-24.5-1.2z"/></svg>