<svg height="-33" viewBox="-919.84 299.58 855.16 275.92" width="2500" xmlns="http://www.w3.org/2000/svg"><path d="m-574.01 412.79h-18.94v-21.33l-20-24.33h-.18v45.66h-18.94v-72.29h18.07l21.06 24.6v-24.6h18.94v72.29zm50.27-33.18h-7.17v-16.28h26.1v49.46h-15.4c-24.07 0-45.13-16.72-45.13-43.98 0-14.6 7.35-28.32 28.94-28.32h26.28l4.42 16.28h-26.28c-3.72 0-13.98 0-13.98 13.72 0 12.92 9.2 25.4 22.21 26.01v-16.89zm25.84-11.95c0-15.66 7.52-28.76 32.92-28.76s32.92 13.1 32.92 28.76c0 19.2-10.62 46.72-32.92 46.72-22.31 0-32.92-27.52-32.92-46.72zm46.1.89c0-9.65-3.89-12.74-13.19-12.74-9.29 0-13.19 3.1-13.19 12.74 0 13.1 6.02 28.76 13.19 28.76s13.19-15.67 13.19-28.76zm106.63-11.77h-28.32v11.59h25.57l-4.43 16.28h-21.15v17.87c0 3.45 0 6.99 1.15 10.26l-17.17 10.97c-2.48-4.96-2.92-10.44-2.92-15.93v-67.32h42.83zm2.12 10.88c0-15.66 7.52-28.76 32.92-28.76s32.92 13.1 32.92 28.76c0 19.2-10.62 46.72-32.92 46.72s-32.92-27.52-32.92-46.72zm46.1.89c0-9.65-3.89-12.74-13.19-12.74-9.29 0-13.19 3.1-13.19 12.74 0 13.1 6.02 28.76 13.19 28.76s13.19-15.67 13.19-28.76zm64.42-28.05c17.17 0 21.95 10.44 21.95 18.67 0 10.53-7.17 17.52-15.49 22.83 5.58 11.06 12.83 21.33 20.97 30.79l-15.84 10.97c-11.68-13.27-20.62-28.85-27.78-45.04 4.95-3.8 16.72-10.62 16.72-17.43 0-4.87-5.75-4.51-9.11-4.51h-30.71l4.43-16.28zm-16.81 72.29h-18.94v-53.8h18.94zm103.53 0h-30.71c-21.15 0-28.67-13.01-28.67-29.73 0-15.13 5.84-29.2 12.57-42.56h20.44c-4.16 9.29-13.63 27.08-13.63 42.3 0 13.72 10.26 13.72 13.98 13.72h7.08v-56.02h18.94zm78.93 0h-18.94v-43.71h-.18l-14.6 19.47-14.25-19.47h-.18v43.71h-18.94v-72.29h17.96l15.4 21.24 15.75-21.24h17.96v72.29zm-538.74 46.07h-17.38v7.11h15.69l-2.71 9.99h-12.98v10.97c0 2.12 0 4.29.7 6.3l-10.54 6.73c-1.52-3.04-1.79-6.41-1.79-9.78v-41.33h26.29zm1.3 6.68c0-9.61 4.62-17.65 20.2-17.65s20.2 8.04 20.2 17.65c0 11.79-6.52 28.68-20.2 28.68-13.69-.01-20.2-16.9-20.2-28.68zm28.29.54c0-5.92-2.39-7.82-8.09-7.82s-8.09 1.9-8.09 7.82c0 8.04 3.69 17.65 8.09 17.65s8.09-9.61 8.09-17.65zm39.53-17.22c10.54 0 13.47 6.41 13.47 11.46 0 6.46-4.4 10.75-9.5 14.01 3.42 6.79 7.88 13.09 12.87 18.9l-9.72 6.73c-7.17-8.15-12.65-17.7-17.05-27.64 3.04-2.33 10.26-6.52 10.26-10.7 0-2.99-3.53-2.77-5.59-2.77h-18.85l2.71-9.99zm-10.32 44.38h-11.62v-33.02h11.62zm60.28 0h-11.62v-33.02h11.62v11.73c3.26-1.68 9.61-5.7 9.61-9.72 0-3.31-3.31-3.31-5.7-3.37h-17.71l2.71-9.99h18.03c10.97 0 14.56 6.14 14.56 12.22 0 6.84-4.89 15.26-21.51 22.32v9.83zm60.27 0h-18.85c-12.98 0-17.6-7.98-17.6-18.25 0-9.29 3.59-17.92 7.71-26.12h12.55c-2.55 5.7-8.36 16.62-8.36 25.96 0 8.42 6.3 8.42 8.58 8.42h4.34v-34.38h11.62v44.37zm7.38 0v-33.02h11.62v23.03h6.68c2.06 0 5.05 0 5.05-2.66 0-4.34-7.82-9.12-11.19-10.7l3.64-2.77c1.68-1.19 5.59-3.86 5.59-6.19 0-2.06-1.57-2.06-5.43-2.06h-18.14l2.71-9.99h20.97c10.37 0 12.98 5.38 12.98 10.26 0 4.34-2.71 7.28-5.87 9.99 4.4 3.15 7.82 7.6 7.82 13.25 0 5.05-2.88 10.86-15.05 10.86zm53.82-10h15.26l-2.72 9.99h-24.17v-44.37h11.62v34.38zm29.48 10h-11.62v-44.37h11.62zm32.8 0h-2.01c-14.99 0-25.42-12.71-25.42-26.99 0-8.96 4.51-17.38 17.76-17.38h9.07l2.71 9.99h-9.07c-2.28 0-8.58 0-8.58 8.42 0 8.91 6.68 16.62 18.25 15.97zm61.09 0h-11.62v-20.37h-12.22v14.07c0 2.12 0 4.29.71 6.3l-10.54 6.73c-1.52-3.04-1.79-6.41-1.79-9.78v-41.33h11.62v14.01h12.22v-14.01h11.62zm37.3-34.38h-17.87v6.57h16.24l-2.72 9.99h-13.52v7.82h19.06l-2.72 9.99h-27.97v-44.37h26.77zm39.05 34.38h-11.62v-14.07h-12.71c.05 5 1.9 9.83 4.45 14.07l-9.45 6.25c-4.29-6.46-6.9-14.23-6.9-22.05 0-7.71 2.44-15.75 7.98-21.29 6.19-6.25 13.41-7.28 21.78-7.28h5.7l2.72 9.99h-9.13c-12.44 0-14.56 6.52-16.02 10.32h11.57v-8.96h11.62v33.02zm19.11-10h15.26l-2.72 9.99h-24.17v-44.37h11.62v34.38zm43.49-24.38h-12.38v34.38h-11.62v-34.38h-12.38l2.71-9.99h30.96zm38.07 34.38h-11.62v-20.37h-12.22v14.07c0 2.12 0 4.29.71 6.3l-10.54 6.73c-1.52-3.04-1.79-6.41-1.79-9.78v-41.33h11.62v14.01h12.22v-14.01h11.62zm-766.78-101.23s-23.54 32.05-6.31 68.17c.09.22 16.02 35.97 62.52 36.89.07 0 42.68-1.71 57.75-41.77.16-.36 12.25-28.2-11.41-66.75-.14-.28-26.81-42.95-47.95-88.51-.23-.46-19.27 45.35-40.07 70.86-.16.25-14.26 19.8-14.53 21.11z" fill="#00aeef"/><path d="m-771.21 450.4s-3.13-.38-1.65 2.89c.32.75 2.58 5.58 3.86 11.01 0 0 3.14 9.9 11.09 10.29.08 0 10.07-.25 10.47-10.69 0 0-.93-8.08-11.09-10.56-.78-.2-10.38-2.07-12.68-2.94zm-30.88-4.32s2.58-1.91-.85-3.16c-.76-.35-5.83-2.17-10.51-5.03 0 0-9.33-4.84-15.15.47-.06.09-6.91 7.42.17 14.94.08.06 6.39 5.08 15.3-.31.69-.42 8.78-5.88 11.04-6.91zm24.29 15.81s1.96-2.6 3.29.7c.22.85 2.27 5.8 5.22 10.44 0 0 5.03 9.18-.12 15.08-.08.07-7.23 7.16-14.99.17 0 0-5.18-6.19.05-15.22.38-.71 5.69-8.96 6.55-11.17zm.01-52.07s1.95-2.58 3.28.72c.24.77 2.26 5.76 5.23 10.45 0 0 5.06 9.14-.13 15.08-.09.05-7.24 7.13-15 .17 0 0-5.19-6.18-.01-15.3.44-.71 5.75-8.92 6.63-11.12zm0-40.49s1.95-2.59 3.28.72c.24.79 2.26 5.75 5.23 10.38 0 0 5.06 9.2-.13 15.1-.09.11-7.24 7.11-15 .17 0-.05-5.19-6.21-.01-15.27.44-.69 5.75-8.89 6.63-11.1zm.05-41.87s1.9-2.55 3.21.77c.29.78 2.34 5.77 5.28 10.4 0 0 5.05 9.24-.2 15.14-.08.09-7.14 7.08-14.9.17-.09-.11-5.27-6.28-.04-15.29.39-.72 5.68-8.89 6.65-11.19z" fill="#fff"/><g fill="#00aeef"><path d="m-859.22 387.93s.41-7.02 8.98-13.12c1.1-.73 2.48-1.14 5.96-4.16.67-.64-1.6 6.43-4.88 9.75-.07.07-5.62 5.52-10.06 7.53z"/><path d="m-865.67 407.79s-1.7 1.2-1.77-.91c-.03-.86-.21-6.73-.82-8.97-.11-.62-1.4-10.85 4.44-18.79.51-.71 3.4-3 3.4-3s-1.69 4.32-1 6.65c0 .1-.36 10.43-.36 10.43s1.34 1.41 3.04-.09c.65-.62 3.72-2.83 7.58-5.7 1.33-1.02 2.56-1.22 4.26-2.34.59-.41-1.57 5.45-2.39 6.17-.82.59-2.92 4.13-7.46 7.46-1.12.75-6.03 3.81-8.92 9.09z"/><path d="m-871.54 431.81s-1.28-7.43-4.05-12.61c-.42-.74-5.23-11.55.06-22.67.42-.85 4.04-4.77 4.04-4.77s-1.75 4.57-.32 9.16c.33 1.03 2.68 9.72 2.41 11.19-.28 1.46.59 2.42 1.34 2.03.83-.36 3.81-4.71 7.96-8.78 1.48-1.42 3.63-2.64 3.61-3.48-.02-.76 1.58 3.84-4.3 13.33-.48.91-8.46 12.18-8.05 14.84.16 1.03-2.27 3.49-2.7 1.76z"/><path d="m-867 453.54s-4.21-5.98-7.32-8.18c-1.01-.72-8.53-9.86-8.72-20.79-.03-1.08.17-1.78 1.68-4.85.13-.34.89 4.45 3.57 7.11.62.68 4.22 6.14 5.81 9.95.32.75 1.55 3.11 2.83 2.93.92-.08 3.01-10.2 5.7-12.88.58-.55 2.02-3.55 1.8-4.97-.27-1.45 2.41 1.51 2.13 6.81-.13 1.24-1.63 9.2-4.09 13.64-.56.92-3.67 6.89-3.39 11.23z"/><path d="m-853.8 478.33s-7.79-4.81-10.5-6.52c-.15-.08-12.08-9.34-14.59-19.09-.17-.67-.94-2.55-.76-7.34 0-.09 1.09 3.38 4.52 5.97.14.05 8.47 7.94 10.54 11.09.41.71 2.33 1.38 3.39 1.19.09 0 .13-10.62 1.14-14.99.17-.98.95-6.33.42-8.38-.28-.83 4.61 3.38 4.9 7.99.09 1.37.96 6.6-.34 16.78-.12.98-1.29 4.82.61 7.36.51.78.95 5.3.67 5.94z"/><path d="m-836.83 498.05s-8.32-1.06-13.39-2.92c-.16-.14-18.12-4.64-22.5-25.19-.09-.16 1.48 1.05 6.43 6.38.17.09 11.59 7.06 13.14 8.75.16.14 4.13 2.77 4.13 2.77s3.64 1.76 1.84-1.96c-.32-.91-3.54-11.31-2.97-15.38.02-.84-.91-2.26-.61-6.36.14-.85.34-2.15.97-.87.66 1.27 1.36 2.53 3.75 5.23 0 0 5.89 8.45 7.51 20.88.12.88-.25 2.48 1.27 4.2.63.73 1.69 2.98.43 4.47z"/><path d="m-812.62 505.32s-5.21-4.01-7.83-9.23c0 0-2.86-4.57-10.47-11.57-.23-.13-1.86-1.16-3.15-3.41-.09-.05-4.62 3.03 5.94 19.55.48.79-4.13 1.94-12.08 1.04-.92-.11-8.02-.72-15.48-5.76-.18-.13-1.24-.94-2.59.08-.09 0 6.92 9.25 17.85 12.91.08 0 10.66 2.91 22.52-.81 0 0 2.99-1.18 4.9-.99.15.06 2.11-.65.39-1.81zm25.09 10.48s-10.63 5.93-15.93 12.25c-.14.17-1.07 2.22.91 2.65.08.05 1.67-.21 2.56-1.33.16-.2 6.33-7.26 13.5-11.4.14-.03 8.83-5.25 17.04-.21.17.17 6.74 3.35 15.48 12.73.18.15 1.8 1.85 3.27-.1.05-.13.81-1.03-.42-2.05-.11-.05-4.29-5.88-15.61-11.91-.18-.05 4.05-1.97 7.54-.09.13.15 13.1 7.37 31.41 6.1.21-.01 9.63-1.19 15.96-6.09 0 0-14.49.25-21.85-1.71-.15-.08-12.18-4.8-21.35-4.09-.18.01-11.26.91-14.7 2.15-.16.01-12.09.38-12.09.38s-5.74-2.78-16.88-3.05c-.29.01-9.11-.03-17.43 2.28-.15.09-19.42 5.19-28.88-.17-.24-.11 2.46 8.02 14.98 8.97.33.11 11.35 2.28 24.69-1.49.83-.25 13.87-4.63 13.87-4.63s4.88-.03 3.93.81zm46.88-7.9s5.02-4.34 7.3-9.74c0 0 2.61-4.81 9.74-12.17.26-.18 1.71-1.28 2.95-3.62.09-.11 4.74 2.79-4.71 19.85-.43.91 4.24 1.75 12.11.4.85-.19 7.87-1.27 15.09-6.83.15-.09 1.21-.96 2.52-.08.09.07-6.24 9.7-16.94 14.07-.06 0-10.44 3.51-22.5.55 0 0-3.09-.97-4.98-.68-.14.01-2.13-.52-.58-1.75z"/><path d="m-716.94 499.08s8.33-1.52 13.3-3.73c.12-.07 17.7-5.71 20.86-26.54.08-.18-1.48 1.21-6.03 6.79-.15.12-11.09 7.71-12.56 9.53-.17.09-3.94 3.01-3.94 3.01s-3.52 2.02-2.05-1.77c.35-.97 2.93-11.55 2.12-15.55-.19-.83.77-2.28.11-6.5-.13-.74-.37-2.02-.95-.72-.65 1.3-1.24 2.63-3.42 5.4 0 .05-5.37 8.9-6.25 21.38-.07.84.46 2.45-.92 4.26-.63.73-1.61 3.05-.27 4.44z"/><path d="m-701.14 478.36s7.47-5.24 10.06-7.23c.15 0 11.48-9.95 13.41-19.84.12-.72.74-2.62.21-7.4 0-.09-.88 3.45-4.14 6.22-.06.09-7.89 8.5-9.76 11.75-.43.75-2.23 1.49-3.33 1.38-.05 0-.78-10.62-2.03-14.95-.33-.91-1.35-6.16-.94-8.25.2-.85-4.4 3.64-4.4 8.28-.04 1.34-.64 6.65 1.37 16.69.16 1 1.6 4.76-.17 7.42-.44.67-.6 5.35-.28 5.93z"/><path d="m-689.53 452.8s3.86-6.27 6.81-8.57c.98-.79 7.91-10.41 7.38-21.34-.04-1.15-.23-1.76-1.94-4.72-.15-.37-.62 4.49-3.1 7.33-.69.69-3.86 6.33-5.17 10.26-.25.8-1.35 3.24-2.66 3.14-.91-.05-3.65-10.01-6.47-12.51-.62-.54-2.24-3.43-2.12-4.89.1-1.45-2.29 1.71-1.7 6.97.13 1.2 2.19 9.05 4.91 13.34.56.91 4.09 6.63 4.06 10.99z"/><path d="m-686.38 430.79s.88-7.45 3.32-12.76c.37-.77 4.42-11.96-1.49-22.68-.46-.8-4.3-4.48-4.3-4.48s2.04 4.45.9 9.13c-.28 1.09-2.13 9.89-1.7 11.3.33 1.45-.5 2.36-1.25 2.11-.86-.28-4.1-4.45-8.45-8.28-1.58-1.32-3.84-2.39-3.86-3.24-.03-.81-1.32 3.94 5.06 13.04.63.9 9.26 11.57 9.06 14.35-.17 1.04 2.43 3.33 2.71 1.51z"/><path d="m-693.67 407.28s1.76 1.04 1.69-1.08c-.03-.81-.21-6.68.19-9 .16-.62.79-10.97-5.53-18.44-.6-.71-3.63-2.79-3.63-2.79s2 4.11 1.5 6.58c0 .05 1.01 10.39 1.01 10.39s-1.23 1.49-3.04.09c-.81-.6-3.97-2.63-7.94-5.25-1.39-.93-2.62-1.06-4.4-2.15-.6-.35 1.92 5.45 2.79 6.12.76.54 3.17 3.87 7.89 6.95 1.15.75 6.25 3.47 9.47 8.58z"/><path d="m-701.37 387.85s-.9-7.06-9.74-12.58c-1.17-.72-2.62-.98-6.22-3.78-.69-.57 1.97 6.35 5.4 9.43.15.08 6.03 5.16 10.56 6.93z"/></g><path d="m-756.33 448.17s-2.59-1.88.75-3.24c.76-.28 5.76-2.32 10.41-5.29 0 0 9.17-5.06 15.07.23.17.04 7.18 7.13.17 14.9 0 0-6.17 5.25-15.19.03-.68-.38-8.99-5.69-11.21-6.63zm-32.61 1.64s3.2-.51 1.68 2.8c-.28.76-2.44 5.74-3.59 11.07 0 0-2.96 10.07-10.76 10.61-.16 0-10.2-.11-10.7-10.44 0-.1.66-8.09 10.78-10.86.73-.13 10.3-2.23 12.59-3.18zm-4.24-11.37s3.19.45 1.61-2.85c-.3-.77-2.57-5.68-3.84-10.98 0 0-3.15-10.03-11.01-10.37-.15 0-10.19.31-10.44 10.67 0 .08.83 8.04 10.99 10.64.79.12 10.38 2 12.69 2.89zm32.36-.21s-3.18.43-1.71-2.9c.3-.72 2.36-5.7 3.62-11.06 0 0 2.95-9.99 10.77-10.55.14 0 10.18.04 10.69 10.48 0 0-.68 8.05-10.76 10.79-.76.18-10.32 2.27-12.61 3.24z" fill="#fff"/><path d="m-904.81 367.29 1.98-3.59-9.84-5.42 1.87-3.4 9.84 5.42 6.24-11.33 3.33 1.84 11.66 22.6-1.28 2.32-18.99-10.47-1.98 3.59zm6.68-5.43 14.18 7.81-8.9-17.39zm8.26 25.32a32.61 32.61 0 0 1 -1 5.55c-1 3.67-2.69 6.01-5.03 7.23-2.35 1.25-5.27 1.56-8.97.56-3.73-1.01-6.52-2.84-8.12-5.26-1.64-2.43-1.96-5.79-.92-9.63.49-1.82 1.01-3.32 1.53-4.56zm-20.93-2.94c-.31.61-.6 1.54-.87 2.53-1.48 5.45 1.25 9.37 7.43 11.05 5.39 1.49 9.54-.21 11-5.61.36-1.32.49-2.35.51-3.07zm.68 22.02c-4.17-.43-6.15 1.67-6.46 4.32-.22 1.9.03 3.09.4 4.15l-2.26.2c-.38-.99-.75-2.66-.48-4.98.53-4.5 4.27-6.78 9.37-6.18 5.11.6 8.82 3.66 8.32 7.92-.56 4.77-5.57 5.47-8.68 5.1-.63-.07-1.11-.19-1.42-.26zm1.29 8.05c1.95.26 5.08-.11 5.43-3.1.31-2.69-2.41-4.2-4.52-4.66zm-9.89 17.9c-.43-.69-1.02-2.23-1.05-4.21-.07-4.44 3.36-7.38 8.57-7.47 5.24-.09 9.09 2.95 9.17 7.75.03 1.58-.41 2.99-.82 3.72l-2.4-.57c.41-.65.78-1.65.76-3.11-.05-3.37-2.97-5.15-6.52-5.09-3.94.06-6.33 2.29-6.29 5.21.02 1.52.5 2.52.9 3.27zm.6 13.55 2.11-.46-.01-.09c-1.42-.66-2.8-2.09-3.04-4.17-.35-2.96 1.89-4.75 4.34-5.03 4.09-.48 6.7 2.4 7.32 8.05l.35-.04c1.4-.16 3.88-.79 3.53-3.78-.16-1.36-.81-2.72-1.7-3.65l1.96-.84c1.05 1.1 1.85 2.78 2.07 4.62.52 4.47-2.88 5.96-6.27 6.36l-6.33.74c-1.47.17-2.9.4-4.03.72zm8.59-1.41c-.27-2.9-1.25-6.12-4.54-5.74-1.99.23-2.8 1.49-2.64 2.85.22 1.9 1.76 2.94 3.25 3.2.33.05.68.07 1 .04zm20.23 16.81-19.96 5.05c-1.47.37-3.13.82-4.23 1.2l-.59-2.33 2.84-.84-.01-.06c-2.04-.33-3.88-1.71-4.48-4.04-.87-3.45 1.83-6.96 6.84-8.23 5.49-1.42 9.61.67 10.49 4.15.55 2.18-.27 3.96-1.43 4.94l.02.06 9.86-2.49zm-15.09 1.06c.37-.09.88-.25 1.23-.44 1.81-.87 3.02-2.68 2.53-4.62-.68-2.68-3.81-3.58-7.46-2.66-3.34.85-5.75 2.96-5.04 5.76.44 1.74 2.18 2.99 4.55 2.9.43-.02.85-.09 1.33-.21zm1.15 10.45c-3.86 1.62-4.6 4.41-3.6 6.89.72 1.78 1.51 2.7 2.34 3.45l-1.89 1.25c-.81-.69-1.94-1.97-2.81-4.14-1.7-4.2.49-8 5.26-9.92s9.5-1.01 11.11 2.97c1.8 4.45-2.26 7.47-5.17 8.64-.59.24-1.07.36-1.37.45zm4.99 6.44c1.84-.71 4.41-2.53 3.28-5.32-1.01-2.51-4.13-2.53-6.21-1.93zm-3.27 9.51c-.15.98-.04 2.51.6 3.69.93 1.71 2.35 1.98 3.59 1.31 1.3-.7 1.65-1.76 1.45-3.9-.3-2.84.59-4.74 2.38-5.72 2.41-1.31 5.31-.7 6.82 2.08.71 1.31.9 2.69.8 3.68l-2.3.48c.1-.71.08-1.91-.57-3.11-.75-1.39-2.1-1.66-3.22-1.06-1.24.67-1.37 1.75-1.2 3.83.23 2.78-.45 4.63-2.68 5.84-2.63 1.42-5.44.66-7.11-2.41-.77-1.42-1.08-2.94-.95-4.19zm8.46 20.02 13.78-10.01 1.57 2.16-13.78 10.01zm19.4-10.41c-.84.65-1.91.6-2.54-.26-.55-.76-.26-1.8.59-2.42.88-.64 1.98-.57 2.55.21.59.81.29 1.82-.6 2.47zm-4.61 9.59c1.32-1.17 2.37-2.15 3.36-3.16l1.58 1.77-2 1.99.04.04c1.7-.53 4.01-.31 5.63 1.5 1.35 1.52 2.4 4.82-1.96 8.7l-7.6 6.76-1.78-2 7.34-6.53c2.05-1.83 3.18-4.01 1.5-5.89-1.17-1.32-3.16-1.38-4.75-.57-.37.17-.8.47-1.2.82l-7.65 6.81-1.78-2zm24.18 9.27c1.46.74 3.12 1.71 4.81 2.96 3.05 2.27 4.62 4.7 4.9 7.32.31 2.64-.47 5.48-2.75 8.56-2.31 3.11-5.02 5.03-7.86 5.64-2.86.64-6.11-.29-9.31-2.66-1.51-1.12-2.72-2.15-3.69-3.09zm-10.37 18.42c.45.51 1.21 1.12 2.04 1.74 4.54 3.37 9.19 2.26 13-2.88 3.36-4.47 3.28-8.96-1.21-12.29-1.1-.82-2.01-1.32-2.68-1.59zm20.78 7.43c-1.92 3.72-.7 6.33 1.66 7.59 1.69.9 2.89 1.11 4.01 1.15l-.64 2.17c-1.06-.01-2.75-.27-4.82-1.38-4-2.14-4.76-6.45-2.33-10.99s6.64-6.87 10.42-4.84c4.24 2.27 3.06 7.18 1.58 9.94-.3.56-.59.96-.76 1.23zm7.96 1.75c.96-1.72 1.76-4.77-.9-6.19-2.39-1.28-4.79.71-5.99 2.5zm10.05-2.95-.74 9.97c-.1 1.62-.24 3.08-.46 4.5l.08.03c.82-1.19 1.72-2.36 2.73-3.63l6.1-7.91 2.61 1-11.5 13.84-2.38-.91.89-17.91zm12.25 13.89c-.96 4.08.87 6.31 3.46 6.96 1.86.46 3.07.37 4.16.13l-.1 2.26c-1.03.25-2.73.41-5-.16-4.39-1.1-6.18-5.1-4.93-10.08s4.76-8.28 8.92-7.24c4.66 1.16 4.71 6.22 3.95 9.26-.15.62-.33 1.08-.44 1.38zm8.15-.25c.51-1.9.54-5.05-2.37-5.78-2.62-.66-4.47 1.86-5.2 3.89zm9.05-13.39 2.65.41-3.79 24.7-2.64-.41zm19.19 18.09c-.34 6.29-4.25 8.83-7.8 8.64-3.98-.22-6.86-3.76-6.57-9.14.31-5.69 3.7-8.86 7.77-8.64 4.21.23 6.88 3.93 6.6 9.14zm-11.67-.46c-.2 3.73 1.5 6.64 4.11 6.78 2.55.14 4.61-2.53 4.82-6.37.16-2.88-.89-6.61-4.05-6.78-3.16-.16-4.71 3.14-4.88 6.37zm16.6-2.48c-.18-2.17-.39-3.92-.59-5.53l2.39-.2.37 2.9.06-.01c.92-2.16 2.54-3.53 4.93-3.74 3.54-.3 6.5 2.94 6.94 8.1.52 6.1-2.44 9.39-5.9 9.68-1.94.16-3.72-.67-4.74-2.28h-.06l.78 9.22-2.64.22zm3.01 4.3c.04.46.13.87.23 1.25.67 2.1 2.4 3.43 4.3 3.27 2.82-.24 4.23-3.04 3.9-6.93-.29-3.4-2.08-6.18-4.9-5.94-1.82.15-3.39 1.8-3.71 4.16-.06.39-.11.86-.07 1.28zm15.79-7.02c-.45-1.7-.86-3.09-1.31-4.42l2.26-.6.83 2.62.09-.02c.37-1.78 1.3-3.59 3.65-4.22 1.94-.52 3.77.45 4.9 2.22l.06-.02c.2-1.04.56-1.9 1.01-2.56.65-.98 1.48-1.63 2.83-1.99 1.88-.5 5.05.18 6.58 5.89l2.59 9.69-2.52.67-2.49-9.31c-.85-3.16-2.35-4.8-4.44-4.24-1.47.39-2.28 1.96-2.33 3.54-.01.44.05 1.01.19 1.55l2.72 10.16-2.52.67-2.64-9.86c-.7-2.62-2.21-4.25-4.18-3.73-1.61.43-2.39 2.24-2.4 3.85-.03.48.05 1.01.19 1.52l2.65 9.93-2.52.67zm28.9-4.39c1.8 3.78 4.62 4.38 7.05 3.27 1.74-.8 2.63-1.63 3.33-2.5l1.34 1.82c-.65.84-1.88 2.02-4.01 3-4.11 1.89-8.01-.12-10.15-4.79s-1.46-9.43 2.44-11.22c4.36-2 7.56 1.91 8.87 4.76.26.58.41 1.05.52 1.35zm6.2-5.28c-.79-1.8-2.73-4.28-5.47-3.03-2.46 1.13-2.33 4.24-1.63 6.28zm5.4-5.31c-.94-1.49-1.74-2.69-2.57-3.83l2-1.27 1.63 2.3.05-.03c-.25-1.76.35-4.01 2.4-5.3 1.72-1.09 5.15-1.59 8.27 3.35l5.43 8.6-2.26 1.43-5.25-8.3c-1.46-2.32-3.43-3.78-5.56-2.44-1.49.94-1.88 2.89-1.34 4.59.11.39.34.87.62 1.32l5.47 8.66-2.26 1.43zm11.33-19.31 3.05 3.83 3-2.39 1.47 1.84-2.99 2.39 5.73 7.18c1.32 1.65 2.47 2.27 3.63 1.34.55-.44.88-.84 1.08-1.13l1.54 1.74c-.25.51-.78 1.16-1.59 1.81-.97.78-2.04 1.04-3.07.78-1.16-.24-2.32-1.25-3.57-2.82l-5.79-7.27-1.78 1.42-1.47-1.84 1.78-1.42-2.54-3.19z"/></svg>