<svg clip-rule="evenodd" fill-rule="evenodd" height="1313" stroke-linejoin="round" stroke-miterlimit="2" viewBox=".222 0 410 215.278" width="2500" xmlns="http://www.w3.org/2000/svg"><path d="m410.222 53.819v107.639c0 29.704-24.115 53.82-53.819 53.82h-302.361c-29.704 0-53.82-24.116-53.82-53.82v-107.639c0-29.703 24.116-53.819 53.82-53.819h302.361c29.704 0 53.819 24.116 53.819 53.819zm-23.333-6.585c0-14.417-11.706-26.123-26.123-26.123h-312.476c-14.418 0-26.123 11.706-26.123 26.123v119.421c0 14.417 11.705 26.123 26.123 26.123h312.476c14.417 0 26.123-11.706 26.123-26.123z"/><g fill="#040404"><path d="m260.824 31.707 20.419 17.985 25.66.072-.021 110.176 21.435 17.496.141-127.672 40.518-.14-20.866-17.918z"/><path d="m252.23 33.924v63.078h-85.155l-.174-44.915-22.613-17.994-.418 90.515s-99.11-90.07-99.177-90.07c-.07 0-.123 124.035-.123 124.035l23.414 18.327.106-89.519s98.483 88.99 98.637 89.148l.278.288.07-61.97 85.084.07.071 44.64 21.044 17.206v-124.643z"/></g></svg>