<svg height="1938" viewBox="0 -3.249 278.967 219.76757689" width="2500" xmlns="http://www.w3.org/2000/svg"><g fill="#ff6700" stroke-miterlimit="10"><path d="m47.974 75.189c-8.783 0-15.924-7.061-15.924-15.748s7.141-15.749 15.924-15.749 15.923 7.062 15.923 15.749c-.016 8.687-7.157 15.748-15.923 15.748zm0-27.464c-6.52 0-11.827 5.244-11.827 11.7s5.308 11.7 11.827 11.7 11.826-5.245 11.826-11.701c0-6.44-5.308-11.7-11.827-11.7zm202.016 68.613c0 7.661-6.184 13.887-13.824 13.887s-13.824-6.226-13.824-13.887 6.184-13.887 13.824-13.887 13.824 6.163 13.824 13.887zm-17.138 0c0 3.419 1.457 6.226 3.314 6.226s3.313-2.828 3.313-6.226c0-3.419-1.456-6.226-3.313-6.226s-3.314 2.765-3.314 6.226zm-40.31-22.139v22.033c0 3.863-1.499 7.345-3.947 9.814-1.583 1.583-5.044 4.052-9.814 4.052-4.79 0-8.23-2.469-9.814-4.052a14.134 14.134 0 0 1 -4.01-9.814c0-3.777 1.52-7.344 4.01-9.813 2.533-2.49 5.994-4.053 9.814-4.053 1.077 0 2.237.148 3.314.401v-8.567c0-2.87 2.279-5.234 5.213-5.234 2.87 0 5.234 2.363 5.234 5.234zm-17.138 22.139c0 3.419 1.457 6.226 3.314 6.226s3.356-2.828 3.313-6.226c-.042-3.419-1.456-6.226-3.313-6.226-1.794 0-3.314 2.765-3.314 6.226zm-11.776 0c0 7.661-6.184 13.887-13.824 13.887s-13.824-6.225-13.824-13.887 6.184-13.887 13.824-13.887 13.824 6.226 13.824 13.887zm-17.138 0c0 3.419 1.457 6.226 3.314 6.226s3.313-2.828 3.313-6.226c0-3.419-1.456-6.226-3.313-6.226s-3.314 2.765-3.314 6.226zm71.082-9.814c4.496 4.495 3.314 11.207 3.314 11.207h-16.314c.19 1.034.443 2.026.886 2.807.654 1.182 1.414 1.836 2.364 1.836 2.237 0 3.503-3.271 3.503-3.271h9.37s-.084 3.63-3.06 6.88c-2.194 2.406-5.677 4.137-9.813 4.137-4.01 0-7.45-1.626-9.877-4.053-2.49-2.469-4.074-6.015-4.074-9.813s1.583-7.324 4.074-9.814c2.49-2.49 5.93-4.053 9.75-4.053 3.884 0 7.218 1.541 9.877 4.137zm-12.177 5.17c-.275.57-.507 1.31-.697 2.09l6.12-.063c-.126-.654-.4-1.499-.696-2.026-.654-1.182-1.414-1.836-2.364-1.836s-1.878.823-2.363 1.836zm-86.109-5.17c4.495 4.495 3.313 11.207 3.313 11.207h-16.314c.19 1.034.443 2.026.887 2.807.654 1.182 1.414 1.836 2.363 1.836 2.238 0 3.504-3.271 3.504-3.271h9.37s-.084 3.63-3.06 6.88c-2.195 2.406-5.74 4.137-9.814 4.137-4.01 0-7.45-1.647-9.877-4.053-2.532-2.49-4.073-6.015-4.073-9.813s1.583-7.345 4.073-9.814c2.533-2.49 5.994-4.053 9.814-4.053 3.841 0 7.176 1.541 9.814 4.137zm-12.178 5.17c-.253.57-.506 1.31-.696 2.09l6.057-.063c-.127-.654-.359-1.52-.633-2.026-.633-1.182-1.414-1.836-2.364-1.836s-1.9.844-2.364 1.836zm148.222-5.254c2.532-2.49 5.993-4.053 9.813-4.053 3.757 0 7.26 1.52 9.75 3.99 2.533 2.49 4.074 6.014 4.074 9.813v12.705h-10.574v-12.452c0-1.498-.316-2.806-.95-3.798-.632-.971-1.392-1.562-2.363-1.562s-1.752.57-2.364 1.562c-.59.97-.95 2.3-.95 3.798v12.452h-10.446v-12.641c0-3.863 1.52-7.345 4.01-9.814zm-190.2.042a14 14 0 0 1 4.01 8.505h-10.51c-.127-1.182-.443-2.237-.886-3.081-.634-1.182-1.415-1.836-2.364-1.836-.971 0-1.73.654-2.364 1.836-.57 1.118-.95 2.68-.95 4.39s.317 3.208.95 4.39c.654 1.182 1.414 1.836 2.364 1.836.97 0 1.73-.654 2.364-1.836.443-.845.76-1.9.886-3.082h10.574a14.053 14.053 0 0 1 -4.833 9.244c-2.428 2.069-5.593 3.335-8.97 3.335-4.601 0-7.915-2.153-9.814-4.052-2.49-2.47-3.968-6.015-4.01-9.814s1.52-7.324 4.01-9.814 5.994-4.052 9.814-4.052c3.757 0 7.26 1.583 9.73 4.03zm-61.057.042c2.427-2.49 5.93-4.073 9.75-4.073s7.282 1.54 9.751 4.01a13.902 13.902 0 0 1 4.074 9.814v12.642h-10.51v-12.368c0-1.498-.317-2.807-.95-3.799-.634-.97-1.414-1.562-2.364-1.562-.971 0-1.752.57-2.364 1.562-.59.97-.95 2.3-.95 3.799v12.368h-10.51v-12.642c0-3.8 1.604-7.24 4.073-9.75z"/><path d="m93.284 102.936c2.49 1.435 3.25 4.664 1.858 7.197l-4.01 7.26 5.761 8.696c.19.295.254.654.254.991 0 1.056-.76 1.837-1.71 1.837h-8.463l-5.55-8.316v8.316h-10.51v-21.359c0-2.87 2.278-5.234 5.212-5.234 2.85 0 5.213 2.343 5.213 5.234v5.699l4.77-8.506c.97-1.73 2.87-2.638 4.727-2.575a4.762 4.762 0 0 1 2.448.76zm-62.597-12.136c1.097-1.054 2.554-1.709 4.157-1.709 1.647 0 3.06.655 4.137 1.71 1.098 1.034 1.73 2.47 1.73 4.115 0 1.646-.675 3.06-1.73 4.137l-1.266 1.308c-2.132 2.174-2.3 2.68-.253 4.77l1.14 1.182c.907.95 1.519 2.3 1.519 3.736v18.868h-10.574v-18.868c0-1.435.57-2.744 1.52-3.736l1.14-1.182c2.004-2.047 1.878-2.575-.254-4.77l-1.266-1.308c-1.034-1.098-1.71-2.49-1.71-4.137 0-1.561.633-3.06 1.71-4.115zm93.39 3.399c0-2.87 2.28-5.234 5.234-5.234 2.85 0 5.276 2.342 5.276 5.234v34.718h-10.51zm81.745 84.468c1.514 4.24 1.976 8.528 1.355 12.768-.765 5.228-3.172 10.329-7.141 15.174l-.032.048c-4.51 5.18-11.174 8.607-18.314 9.436a30.211 30.211 0 0 1 -11.237-.845c-3.938-1.068-7.668-2.916-11.095-5.515l-.016-.016c-8.942-6.933-10.153-18.011-10.2-18.473v-.08c-.017-.143-.893-13.325-9.517-20.785-7.268-6.296-16.242-10.058-26.682-11.205-8.336-.909-15.047.127-17.565.526-.112.015-.24.031-.335.047-11.221 2.264-18.745 8.464-22.22 11.97l-.063.065c-5.5 5.068-12.593 7.858-19.765 7.858-.861 0-1.706-.032-2.567-.112-12.369-1.147-19.924-10.68-20.243-11.078-.032-.032-.063-.08-.111-.143-.765-.972-2.822-3.555-4.304-7.715-1.849-5.212-2.104-10.886-.749-16.832a17.701 17.701 0 0 1 1.785-4.686 28.135 28.135 0 0 1 4.607-6.185h6.328c-2.981 1.977-5.452 4.703-7.348 8.13a12.9 12.9 0 0 0 -1.387 3.618c-1.833 8.017-.35 15.334 4.288 21.167.063.064.111.128.143.176.271.35 6.774 8.543 17.39 9.531 6.854.638 13.82-1.785 19.127-6.646 3.826-3.842 12.05-10.6 24.34-13.07l.095-.017c.112-.016.24-.047.383-.063 2.662-.43 9.77-1.53 18.649-.558 11.285 1.243 21.024 5.34 28.93 12.178 9.723 8.416 10.823 22.363 10.903 23.542.063.59 1.307 9.962 8.639 15.653 7.364 5.578 14.584 6.088 19.35 5.546 6.12-.7 11.827-3.634 15.669-8.033 6.312-7.73 8.017-15.812 5.084-24.02-2.167-6.058-6.12-10.074-6.901-10.824-.08-.063-.112-.111-.128-.127-.096-.096-.143-.16-.207-.223-.08-.08-.176-.192-.35-.383l-.033-.048c-.095-.095-.191-.223-.303-.35-1.434-1.658-4.399-5.1-6.407-9.628-2.566-5.786-2.694-11.3-.35-16.401 1.051-2.535 3.314-6.504 8.176-11.062.303-.287.622-.574.94-.861a17.71 17.71 0 0 0 3.587 2.28c-3.475 2.948-7.189 6.949-8.942 11.205l-.032.08c-4.4 9.531 3.538 18.744 6.137 21.773.111.127.207.239.302.35.144.144.224.223.287.303.064.064.128.128.224.24.956.924 5.435 5.514 7.826 12.32z"/><path d="m251.648 94.109c.016 3.841-.622 7.38-1.881 10.552a14.972 14.972 0 0 0 -.957-1.052 17.78 17.78 0 0 0 -2.31-1.945c.7-2.311 1.067-4.83 1.067-7.555 0-9.946-6.168-18.362-15.716-21.423-11.524-3.682-19.988 1.897-23.08 4.48-.176.143-.335.286-.495.43-.924.844-4.383 3.761-10.041 5.85a36.055 36.055 0 0 1 -7.954 1.96c-2.152.27-4.32.35-6.535.255a42.094 42.094 0 0 1 -8.815-1.355c-4.718-1.211-9.308-4.367-12.959-8.846-3.522-4.336-5.626-9.357-5.801-13.804-.08-1.992.08-7.157 3.108-12.177.892-1.467 1.865-2.886 2.79-4.24 3.107-4.559 6.056-8.863 6.056-15.382 0-5.595-1.307-10.504-3.873-14.6a22.535 22.535 0 0 0 -5.643-6.137c-.191-.144-.382-.287-.59-.415h-.015a13.992 13.992 0 0 0 -.606-.382c-.016-.016-.064-.032-.128-.08-1.88-1.211-11.859-7.045-24.052-2.534l-.048.016c-5.404 1.849-8.496 5.897-12.098 10.584-2.63 3.427-5.61 7.316-9.85 10.6-4.846 3.745-10.616 6.168-17.677 7.411a53.01 53.01 0 0 1 -1.276.303c-.207.048-.255.064-.478.127-2.215.702-6.519 2.44-10.36 6.2-4.527 4.448-6.95 10.314-7.221 17.455.335 5.929 2.216 9.452 4.415 13.516 1.196 2.248 2.455 4.559 3.475 7.396.446 1.211.765 2.503.956 3.826.734 5.005 1.276 10.79-1.036 17.326a9.163 9.163 0 0 0 -3.666-1.897c1.785-5.451 1.323-10.313.654-14.856a15.767 15.767 0 0 0 -.765-3.044c-.925-2.55-2.104-4.734-3.236-6.854-2.232-4.128-4.527-8.416-4.893-15.302v-.16c.685-19.732 15.811-25.996 20.434-27.447.382-.127.558-.16.845-.223a28.6 28.6 0 0 0 1.195-.287l.16-.032c14.33-2.486 19.78-9.595 25.056-16.481 3.826-4.99 7.444-9.707 13.995-11.955 14.043-5.18 25.535 1.546 27.703 2.949l.032.016c.27.16.526.319.765.494.255.175.51.35.765.542 4.16 3.108 11.126 10.345 11.126 23.957 0 7.778-3.427 12.8-6.759 17.66-.908 1.308-1.833 2.663-2.662 4.05-2.534 4.207-2.582 8.67-2.534 9.946.128 3.586 1.913 7.746 4.893 11.412 3.06 3.762 6.998 6.488 10.807 7.476 7.364 1.913 14.378 1.673 20.833-.717 5.085-1.881 8.145-4.527 8.703-5.037.207-.192.415-.367.638-.558 3.618-3.013 13.5-9.548 26.97-5.228 11.268 3.602 18.537 13.532 18.569 25.216z"/></g></svg>