<svg height="2500" viewBox="0 0 192.756 192.756" width="2500" xmlns="http://www.w3.org/2000/svg"><g clip-rule="evenodd" fill-rule="evenodd"><path d="M0 0h192.756v192.756H0z" fill="#fff"/><path d="M15.042 15.268h162.22v161.654H15.042z" fill="#a70072"/><path d="M15.042 107.933l92.438-92.552h8.721L15.042 116.656zm0 15.52L122.887 15.381h8.722L15.042 132.175zm0 16.538l124.384-124.61h8.722L15.042 148.715zm0 16.086L155.398 15.381h8.723L15.042 164.801zm0 15.747L171.484 15.381h5.664v2.153L17.874 176.809h-2.832zm10.875 4.985L177.148 25.351v8.722L34.639 176.809zm84.394-64.458l-4.19 4.305 60.15 60.153h8.499zm-7.93 8.043l-4.303 4.304 52.11 52.111h8.496zm-8.042 8.043l-4.305 4.191 44.181 44.181h8.496zm-8.044 8.042l-4.191 4.193 36.025 36.137h8.496zm32.06-32.171l-4.191 4.304 62.984 62.986v-8.497zm8.043-7.93l-4.191 4.192 54.828 55.054v-8.495zm8.043-8.043l-4.304 4.192 47.011 47.012v-8.497z" fill="#e39b37"/></g><path d="M15.042 15.042h162.673v162.673H15.042z" fill="none" stroke="#fff" stroke-miterlimit="2.613" stroke-width="2.36"/></svg>