<svg height="601" viewBox="0 0 760.67 182.73" width="2500" xmlns="http://www.w3.org/2000/svg"><path d="m146.58 0h-110.44c-19.96 0-36.14 16.18-36.14 36.14v110.45c0 19.96 16.18 36.14 36.14 36.14h110.45c19.96 0 36.14-16.18 36.14-36.14v-110.45c0-19.96-16.18-36.14-36.14-36.14zm16.32 135.8c0 14.97-12.13 27.1-27.1 27.1h-88.88c-14.97 0-27.1-12.13-27.1-27.1v-88.88c0-14.97 12.13-27.1 27.1-27.1h88.88c14.97 0 27.1 12.13 27.1 27.1z" fill="#10b794"/><path d="m41.21 54.77v88.9h21.69v-44.45l48.25 44.45h30.36zm100.3 73.18v-88.9h-21.69v44.45l-48.25-44.45h-30.36z" fill="#10b794"/><path d="m263.03 79.03v62.83h-19.05v-98.04h14.77l51.09 64.34v-64.21h19.05v97.9h-15.46l-50.4-62.83zm86.3 62.82v-98.03h19.05v98.04h-19.05zm119.44 0v-64.9l-25.27 48.33h-10.36l-25.27-48.33v64.9h-19.05v-98.03h20.44l29 55.78 29.27-55.78h20.3v98.04h-19.05zm39.48 0v-98.03h19.05v81.33h49.98v16.71h-69.04zm108.53-98.03h16.85l37.28 98.04h-19.61l-9.11-24.44h-34.24l-8.97 24.44h-19.61l37.42-98.04zm21.96 60.2-13.53-38.52-14.08 38.52h27.62zm121.92 12.56c0 4.14-.83 7.78-2.49 10.91s-3.94 5.75-6.83 7.87c-2.9 2.12-6.26 3.73-10.08 4.83s-7.89 1.66-12.22 1.66h-47.36v-98.03h52.47c3.4 0 6.49.74 9.25 2.21s5.11 3.38 7.04 5.73 3.43 5.02 4.49 8.01 1.59 6.01 1.59 9.04c0 4.79-1.2 9.28-3.59 13.46-2.39 4.19-5.89 7.3-10.49 9.32 5.61 1.66 10.06 4.63 13.33 8.91s4.9 9.64 4.9 16.09zm-59.93-56.47v24.72h25.41c3.22 0 5.96-1.1 8.22-3.31 2.25-2.21 3.38-5.25 3.38-9.11s-1.04-6.77-3.11-8.98-4.63-3.31-7.66-3.31h-26.23zm40.74 52.88c0-1.75-.3-3.43-.9-5.04s-1.41-3.01-2.42-4.21-2.21-2.14-3.59-2.83-2.9-1.04-4.56-1.04h-29.27v25.82h28.31c1.75 0 3.38-.32 4.9-.97a11.61 11.61 0 0 0 3.93-2.69c1.11-1.15 1.98-2.51 2.62-4.07s.97-3.22.97-4.97z" fill="#44505a"/></svg>