<svg height="404" width="2500" xmlns="http://www.w3.org/2000/svg" viewBox="1.9969999999999999 2 596.003 92.538"><path d="M534.01 93.52h-1.821v-7.107h-2.59v-1.521h7.008v1.52h-2.598zM546.684 93.52h-1.672V86.3h-.022l-1.612 7.22h-1.764l-1.572-7.22h-.03v7.22h-1.678v-8.628h2.611l1.564 6.786h.022l1.538-6.786h2.615z"/><path d="M337.058 87.008c0 .812-.67 1.447-1.464 1.447h-28c-.822 0-1.482-.635-1.482-1.447V66.736c0-.808.66-1.477 1.481-1.468l28-.009a1.49 1.49 0 0 1 1.465 1.477zm-1.208-27.831h-28.526c-4.123 0-7.486 3.406-7.486 7.512V87.05c0 4.106 3.363 7.486 7.486 7.486h28.526c4.11 0 7.468-3.38 7.468-7.486V66.69c0-4.106-3.358-7.512-7.468-7.512" fill="#939598"/><path d="M2.01 19.566h5.574l26.48 25.75v-25.75h6.469c-.013.382-.013 34.973 0 35.364H35.41L8.544 28.737V54.93H2.01c-.013-.39-.013-34.982 0-35.364M74.144 28.735v26.198h-6.551V19.564h5.587l26.514 25.754V19.564h6.482v35.369h-5.122zM210.206 28.735v26.198h-6.539V19.564h5.574l26.524 25.754V19.564h6.477v35.369h-5.122zM56.119 19.566h1.203V54.93h-6.551V19.566zM150.761 19.566h1.212v6.069h-15.796V54.93h-6.795V25.635h-15.78v-6.07zM192.707 19.566h1.238v6.069H165.87l.004 7.95h21.727v6.087h-21.727l-.004 9.163h28.074v6.095h-34.556V19.566zM278.646 48.833h-20.12v-23.2h20.12c6.282 0 8.523 6.278 8.523 11.617 0 5.33-2.241 11.583-8.523 11.583m10.735-24.1c-2.555-3.362-6.343-5.17-10.918-5.17h-26.25v35.37h26.25c4.575 0 8.363-1.8 10.918-5.162 2.415-3.15 3.675-7.473 3.675-12.52 0-5.054-1.26-9.39-3.675-12.517M337.058 47.394c0 .782-.67 1.438-1.464 1.438h-28c-.822 0-1.482-.656-1.482-1.438v-20.29c0-.786.66-1.472 1.481-1.472h28c.796 0 1.465.686 1.465 1.477zm-1.208-27.827h-28.526c-4.123 0-7.486 3.376-7.486 7.512v20.358c0 4.114 3.363 7.494 7.486 7.494h28.526c4.11 0 7.468-3.38 7.468-7.494V27.08c0-4.136-3.358-7.512-7.468-7.512M454.829 79.623c6.786 2.69 21.118 4.844 32.314 4.844 12.252 0 17.317-4.201 17.317-9.467 0-4.726-4.71-7.516-18.23-12.46-18.085-6.677-31.35-11.951-31.35-23.812 0-12.29 15.945-19.542 40.287-19.542 13.073 0 17.544.835 25.85 2.35l.052 11.679c-8.137-1.555-15.366-4.223-26.584-4.223-12.02 0-17.152 3.815-17.134 7.76 0 5.695 7.876 8.428 21.722 13.35 19.264 6.908 30 12.239 30 23.843-.031 11.965-13.434 20.593-43.702 20.593-12.434 0-21.015-.83-30.542-2.342zM390.323 29.501h-14.446v54.537h14.446c22.17 0 36.129-9.462 36.129-27.158s-13.959-27.379-36.129-27.379m38.731 59.624c-7.138 3.215-20.627 5.262-32.436 5.262h-45.126V19.348h45.126c11.804 0 25.298 2.085 32.436 5.296 17.357 7.838 23.018 20.358 23.018 32.236s-5.61 24.386-23.018 32.245M571.937 2c-14.371 0-26.032 11.652-26.032 26.024 0 14.389 11.66 26.036 26.032 26.036S598 42.413 598 28.024C598 13.652 586.309 2 571.937 2m3.906 44.683h-7.79v-23.76h7.79zm-3.94-28.213c-2.525 0-4.571-1.968-4.571-4.4 0-2.451 2.046-4.415 4.57-4.415 2.607 0 4.675 1.933 4.675 4.414 0 2.463-2.068 4.401-4.675 4.401"/></svg>