<svg height="386" viewBox="7.09 7.081 736.365 101.669" width="2500" xmlns="http://www.w3.org/2000/svg"><path d="m458.943 98.497c0 1.079-.885 2.05-1.975 2.05h-37.796c-1.101 0-1.986-.971-1.986-2.05v-27.307c0-1.08.885-1.943 1.986-1.943h37.796c1.09 0 1.975.863 1.975 1.943zm-1.64-37.452h-38.477c-5.569 0-10.113 4.533-10.113 10.146v27.413c0 5.505 4.544 10.146 10.113 10.146h38.477c5.58 0 10.113-4.641 10.113-10.146v-27.413c0-5.613-4.533-10.146-10.113-10.146" fill="#929497"/><path d="m15.917 20.032v35.293h-8.827v-47.704h7.544l35.756 34.753v-34.754h8.71v47.704h-6.897z" fill="#221f1f"/><path d="m104.43 20.032v35.293h-8.83v-47.704h7.534l35.756 34.753v-34.754h8.721v47.704h-6.897zm183.446 0v35.293h-8.828v-47.704h7.533l35.757 34.753v-34.754h8.72v47.704h-6.885zm-207.752-12.412h1.63v47.705h-8.829v-47.704zm127.616 0h1.618v8.203h-21.283v39.502h-9.175v-39.502h-21.284v-8.202zm56.554 0h1.651v8.203h-37.84v10.685h29.27v8.203h-29.27v12.411h37.84v8.203h-46.582v-47.704zm115.851 39.502h-27.112v-31.299h27.112c8.483 0 11.494 8.419 11.494 15.65 0 7.123-3.011 15.65-11.494 15.65zm14.484-32.486c-3.454-4.641-8.56-7.015-14.733-7.015h-35.379v47.704h35.38c6.173 0 11.278-2.482 14.732-7.015 3.238-4.21 4.954-10.038 4.954-16.837 0-6.8-1.716-12.628-4.954-16.837m64.314 30.544c0 .971-.885 1.942-1.975 1.942h-37.796c-1.101 0-1.986-.97-1.986-1.942v-27.414c0-1.08.885-1.943 1.986-1.943h37.796c1.09 0 1.975.864 1.975 1.943zm-1.64-37.56h-38.477c-5.569 0-10.113 4.534-10.113 10.146v27.414c0 5.612 4.544 10.145 10.113 10.145h38.477c5.58 0 10.113-4.533 10.113-10.145v-27.414c0-5.612-4.533-10.145-10.113-10.145m160.274 80.946c9.153 3.67 28.483 6.584 43.571 6.584 16.513 0 23.345-5.613 23.345-12.736 0-6.476-6.346-10.145-24.575-16.837-24.381-8.958-42.265-16.081-42.265-32.163 0-16.513 21.52-26.334 54.32-26.334 17.614 0 23.658 1.08 34.84 3.13l.086 15.757c-10.987-2.05-20.722-5.612-35.843-5.612-16.21 0-23.118 5.18-23.118 10.47 0 7.662 10.641 11.332 29.302 18.023 25.979 9.282 40.43 16.405 40.43 32.055 0 16.19-18.1 27.846-58.918 27.846-16.761 0-28.32-1.08-41.175-3.238zm-86.882-67.563h-19.428v73.606h19.428c29.82 0 48.632-12.843 48.632-36.696 0-23.852-18.812-36.911-48.632-36.911zm52.14 80.407c-9.606 4.317-27.78 7.123-43.668 7.123h-60.72v-101.237h60.72c15.887 0 34.062 2.806 43.69 7.123 23.388 10.577 31.007 27.522 31.007 43.495 0 15.974-7.555 32.919-31.03 43.496m140.934-7.987h-3.896v-1.404h9.487v1.403h-3.918v11.332h-1.673zm17.755 5.72c-.097-1.727-.205-3.885-.205-5.504h-.044a75.239 75.239 0 0 1 -1.618 4.857l-2.256 6.26h-1.252l-2.094-6.153c-.604-1.834-1.1-3.453-1.457-4.964h-.043c-.033 1.619-.13 3.777-.238 5.612l-.345 5.504h-1.576l.896-12.735h2.105l2.18 6.152c.529 1.619.95 3.022 1.295 4.317h.032c.346-1.295.799-2.698 1.371-4.317l2.277-6.152h2.105l.799 12.735h-1.63z" fill="#221e1f"/></svg>