<svg height="342" width="2500" xmlns="http://www.w3.org/2000/svg" viewBox="0 -0.006421187067932266 438 60.00642118706793"><g fill="#484848" fill-rule="evenodd"><path d="M403.374 36.41c.956-8.32 6.83-14.32 15.162-14.32 7.786 0 13.591 5.796 14.342 14.32zM438 38.59c-.137-12.272-8.332-20.93-19.328-20.93-11.61 0-20.42 8.794-20.42 21.204 0 12.476 8.674 21.136 20.762 21.136 5.942 0 11.747-1.5 16.937-6.75l-2.663-3.41c-3.62 3.546-8.196 5.865-13.933 5.865-8.468 0-15.229-5.524-15.98-15H438c-.068-.682 0-1.364 0-2.115zm-61.397 16.774c-5.464 0-9.152-3.205-9.152-10.091V22.84h19.054v-4.5h-19.054V4.977h-4.985V18.34h-9.494v4.5h9.494v22.432c0 9.954 5.19 14.659 13.795 14.659 4.986 0 9.015-1.637 11.952-4.091l-2.39-3.682c-2.46 1.977-5.669 3.205-9.22 3.205zM336.582 0c-2.05 0-3.552 1.636-3.552 3.613 0 1.978 1.503 3.546 3.552 3.546 2.048 0 3.62-1.5 3.62-3.546A3.597 3.597 0 0 0 336.581 0zm-2.527 59.318h4.985V18.341h-4.985zM284.268 0h-5.328v59.318h41.797v-5.046h-36.469zm-33.215 45.75c-1.366 0-3.005.41-4.03 1.91v-8.183h-2.935v19.841h2.936v-7.296c0-2.25 1.57-3.477 3.483-3.477 1.98 0 3.073 1.228 3.073 3.477v7.296h2.937V51c-.068-3.068-2.322-5.25-5.464-5.25zm-17.551 2.727c1.297 0 2.253.477 3.21 1.363l1.843-1.976c-1.16-1.364-3.004-2.115-4.985-2.115-4.235 0-7.035 3.001-7.035 6.955s2.8 6.955 7.035 6.955c1.98 0 3.756-.75 4.985-2.114l-1.775-1.977a4.647 4.647 0 0 1-3.278 1.364c-2.254 0-3.962-1.773-3.962-4.228 0-2.454 1.708-4.227 3.962-4.227zm-15.299 8.522c-1.16 0-2.117-.681-2.117-2.454V48.75h5.123v-2.59h-5.123v-4.024h-2.937v4.023h-2.663v2.591h2.663v5.795c0 3.546 1.776 5.114 4.781 5.114 1.64 0 3.005-.614 4.098-1.296l-1.16-2.318c-.753.546-1.777.954-2.665.954zm-16.39 2.32h2.936V46.09h-2.937zm1.502-19.842c-1.161 0-2.049.887-2.049 2.046 0 1.158.888 2.045 2.049 2.045s2.049-.887 2.049-2.045c0-1.16-.888-2.046-2.05-2.046zM190.134 56.25l-3.347-10.09h-3.278l-3.278 10.09-3.141-10.09h-3.074l4.44 13.226h3.414l3.278-9.954 3.279 9.954h3.483l4.439-13.227h-3.074zm-26.772-7.978l-1.366-.204c-2.527-.34-4.03-.955-4.03-2.59 0-1.774 1.777-2.864 4.372-2.864 1.98 0 3.824.613 5.463 1.636l1.571-2.523c-1.98-1.296-4.234-2.114-7.034-2.114-4.235 0-7.65 2.182-7.65 6.069 0 3.613 2.87 4.976 5.806 5.317l1.502.205c2.869.41 4.371 1.091 4.371 2.591 0 1.773-1.98 2.863-4.576 2.863-2.253 0-4.78-.886-6.078-2.113L154.006 57c2.049 1.705 5.19 2.592 7.854 2.592 4.234 0 7.785-2.182 7.785-6.068 0-3.546-3.073-4.841-6.283-5.251zm-32.508 8.727c-2.39 0-4.166-1.772-4.166-4.226 0-2.523 1.775-4.228 4.166-4.228 2.39 0 4.166 1.772 4.166 4.228 0 2.454-1.776 4.226-4.166 4.226zm0-11.25c-4.098 0-7.171 3.001-7.171 6.955s3.073 6.955 7.17 6.955 7.172-3 7.172-6.955c0-3.954-3.074-6.955-7.171-6.955zM111.663 57c-2.527 0-4.03-1.909-4.03-4.226 0-2.318 1.503-4.228 4.03-4.228 2.39 0 4.03 1.841 4.03 4.228 0 2.386-1.64 4.226-4.03 4.226zm3.824-9.272c-.888-1.16-2.322-1.978-4.166-1.978-3.756 0-6.693 2.933-6.693 6.955 0 4.023 2.937 6.955 6.693 6.955 1.912 0 3.278-.75 4.166-1.909v1.568h2.937v-19.84h-2.937zM94.111 45.75c-1.366 0-3.005.41-4.098 1.978V46.09h-2.868v13.228h2.936v-7.296c0-2.25 1.571-3.477 3.483-3.477 1.981 0 3.074 1.228 3.074 3.477v7.296h2.936V51c-.068-3.068-2.322-5.25-5.463-5.25zm-22.742 5.865c.273-1.91 1.434-3.273 3.55-3.273 1.845 0 3.074 1.227 3.347 3.273zm3.62-5.865c-3.894 0-6.625 2.796-6.625 6.955 0 4.228 2.8 6.955 6.829 6.955 2.049 0 3.825-.478 5.464-1.842l-1.435-2.045a6.248 6.248 0 0 1-3.824 1.364c-1.912 0-3.551-1.023-3.961-3.34h9.834c0-.341.069-.682.069-1.092-.069-4.091-2.596-6.955-6.352-6.955zM59.962 57c-1.16 0-2.117-.682-2.117-2.454V48.75h5.122v-2.59h-5.122v-4.024h-2.937v4.023h-2.663v2.591h2.663v5.795c0 3.546 1.776 5.114 4.781 5.114 1.64 0 3.005-.614 4.098-1.296l-1.161-2.318c-.752.546-1.708.954-2.664.954zM41.797 45.75c-1.366 0-3.005.41-4.098 1.978V46.09h-2.868v13.228h2.936v-7.296c0-2.25 1.571-3.477 3.483-3.477 1.98 0 3.074 1.228 3.074 3.477v7.296h2.936V51c0-3.068-2.253-5.25-5.463-5.25zM26.02 39.477c-1.16 0-2.048.887-2.048 2.046 0 1.158.887 2.045 2.048 2.045s2.05-.887 2.05-2.045c0-1.16-.889-2.046-2.05-2.046zm-1.434 19.841h2.937V46.091h-2.937zM13.727 54L2.868 40.023H0v19.295h3.142V45.341L14 59.318h2.868V40.023h-3.142z"/><text font-family=".AppleSystemUIFont" font-size="6"><tspan x="256.543" y="44.5">TM</tspan></text></g></svg>