<svg height="296" width="2500" xmlns="http://www.w3.org/2000/svg" viewBox="0 0 512.532 60.757"><path d="M281.45 60.617v-8.88s.481-10.496 20.23-20.51c11.883-6.01 24.394-10.313 24.394-15.772 0-4.624-5.785-7.374-17.319-7.374-8.976 0-18.49 2.948-25.602 6.212V4.5c8.816-2.746 15.9-4.5 29.468-4.5 10.331 0 18.5 1.703 24.79 4.458 6.524 2.843 9.146 7.035 9.316 10.515.565 10.891-16.396 15.942-27.228 21.488-10.427 5.345-15.987 9.89-17.057 15.276h43.422v8.88z" fill="#cd181f"/><path d="M269.818 54.609c0 .638-.482 1.175-1.148 1.175h-22.572a1.18 1.18 0 0 1-1.184-1.175V38.28c0-.652.518-1.18 1.184-1.18h22.572c.666 0 1.148.528 1.148 1.18zm-.941-22.398H245.9a6.047 6.047 0 0 0-6.043 6.043v16.4c0 3.302 2.705 6.03 6.043 6.03h22.976c3.329 0 6.024-2.728 6.024-6.03v-16.4c0-3.329-2.695-6.043-6.024-6.043" fill="#929496"/><g fill="#232020"><path d="M5.285 7.68v21.098H0V.306h4.518l21.35 20.74V.306h5.198v28.472h-4.114zM58.146 7.68v21.098h-5.28V.306h4.5l21.359 20.74V.306h5.207v28.472h-4.119zM167.665 7.68v21.098h-5.257V.306h4.513l21.351 20.74V.306h5.202v28.472h-4.114zM43.631.304h.96v28.473H39.32V.304zM119.822.304h.973v4.9h-12.714v23.573h-5.486V5.204H89.904v-4.9zM153.6.304h.99v4.9H132v6.386h17.48v4.9H132v7.369h22.59v4.918h-27.828V.304zM222.79 23.858h-16.194V5.203h16.195c5.06 0 6.86 5.023 6.86 9.311 0 4.33-1.8 9.344-6.86 9.344m8.646-19.395c-2.053-2.718-5.097-4.16-8.807-4.16h-21.112v28.473h21.112c3.71 0 6.754-1.442 8.807-4.165 1.946-2.53 2.938-6.001 2.938-10.097 0-4.05-.992-7.52-2.938-10.05M269.818 22.706c0 .638-.482 1.162-1.148 1.162h-22.572a1.168 1.168 0 0 1-1.184-1.162V6.379c0-.648.518-1.167 1.184-1.167h22.572c.666 0 1.148.52 1.148 1.167zM268.877.304H245.9c-3.338 0-6.043 2.732-6.043 6.038v16.4c0 3.311 2.705 6.034 6.043 6.034h22.976c3.329 0 6.024-2.723 6.024-6.033V6.342c0-3.306-2.695-6.038-6.024-6.038M436.925 48.735c5.477 2.149 17.011 3.898 26.015 3.898 9.863 0 13.935-3.37 13.935-7.626 0-3.802-3.783-6.034-14.66-10.037-14.555-5.373-25.245-9.615-25.245-19.175C436.97 5.887 449.831.07 469.414.07c10.52 0 14.151.657 20.804 1.887l.046 9.395c-6.547-1.25-12.365-3.398-21.396-3.398-9.684 0-13.802 3.076-13.802 6.254 0 4.6 6.35 6.79 17.48 10.758 15.533 5.546 24.16 9.835 24.16 19.197 0 9.637-10.817 16.594-35.175 16.594-10.024 0-16.939-.662-24.606-1.883zM385.064 8.362h-11.622v43.927h11.622c17.801 0 29.009-7.613 29.009-21.888 0-14.225-11.208-22.04-29.01-22.04m31.127 48c-5.749 2.613-16.608 4.257-26.103 4.257h-36.241V.198h36.24c9.496 0 20.355 1.662 26.104 4.26 13.962 6.305 18.526 16.402 18.526 25.943 0 9.583-4.518 19.666-18.526 25.96M501.618 52.394H499.7V51.36h5.092v1.033h-1.96v5.666h-1.213zM511.214 55.322c-.027-.863-.073-1.9-.073-2.8h-.023a40.637 40.637 0 0 1-.8 2.557l-.996 2.91h-.932l-.913-2.855a44.18 44.18 0 0 1-.648-2.613h-.027c-.037.882-.083 1.938-.115 2.847l-.156 2.695h-1.13l.441-6.699h1.598l.886 2.705c.225.762.432 1.574.61 2.327h.028c.18-.725.432-1.57.68-2.346l.932-2.686h1.57l.386 6.7h-1.185z"/></g></svg>