<svg height="483" viewBox="24.195 84.18 769.846 228.1" width="2500" xmlns="http://www.w3.org/2000/svg"><path d="m262.395 283.38c0 15.9-13 28.9-28.9 28.9h-180.4c-15.9 0-28.9-13-28.9-28.9v-170.3c0-15.9 13-28.9 28.9-28.9h180.4c15.9 0 28.9 13 28.9 28.9z" fill="#f58a33"/><path d="m83.171 180.023c0-3.1 2.7-5.7 5.9-5.7h14.9c1.3 0 2.3-.6 3.5-1.4 9.6-6.5 21.2-10.3 33.8-10.3 32.2 0 58.2 24.9 58.2 55.8v51.1c0 3.1-2.7 5.7-5.9 5.7h-19c-3.3 0-5.9-2.6-5.9-5.7v-51.1c0-14.5-12.3-26.3-27.4-26.3-15.2 0-27.4 11.8-27.4 26.3v51.1c0 3.1-2.7 5.7-6 5.7h-19c-3.3 0-5.9-2.6-5.9-5.7v-89.5zm20.011-41.458c11.6-5.2 24.6-8 38.3-8 30.9 0 58.2 14.7 74.7 37.2 1.3 1.9 3.9 2.3 5.8.9 1.9-1.3 2.3-4 .9-5.9-18-24.6-47.8-40.6-81.4-40.6-14.8 0-29.1 3.1-41.8 8.8-2.1.9-3 3.4-2.2 5.5 1.2 2.1 3.7 3.1 5.7 2.1" fill="#fff"/><path d="m203.892 180.296c-1.2 0-2.5-.6-3.3-1.6-13.5-18.3-35.7-29.3-59.2-29.3-10.5 0-20.6 2.1-30.1 6.2-2.1.9-4.5 0-5.5-2.2-.9-2.1 0-4.5 2.2-5.5 10.5-4.6 21.8-6.9 33.4-6.9 26.1 0 50.7 12.2 65.8 32.7 1.3 1.9.9 4.4-.9 5.8-.7.5-1.5.8-2.4.8" fill="#fff"/><path d="m398.5 185.9h10.2v-57.9h-10.2zm232.845 86.868c-17.3 0-31.5-14.1-31.5-31.4s14.2-31.4 31.5-31.4 31.5 14.1 31.5 31.4-14.2 31.4-31.5 31.4m18.1-31.4c0-10.3-8.2-18.7-18.2-18.7-10.1 0-18.2 8.4-18.2 18.7s8.2 18.7 18.2 18.7 18.2-8.4 18.2-18.7m-179.688 30.532v-47.27h-16.363v-11.818h45.453v11.817h-16.363v47.272zm-63.399-.354c-4.2 0-6.9-2.7-6.9-6.9v-45.5c0-4.2 2.7-6.9 6.9-6.9h34.3v11.9h-28.1v11.9h23.5v11.2h-23.5v12.2h28.1v11.9zm99.972-86.129v-49.09h-17.273v-9.09h42.726v9.09h-17.272v49.09zm44.84.443c-3.4 0-5.4-2-5.4-5.4v-46.9c0-3.4 2-5.4 5.4-5.4h33.7v9h-28.9v15.8h24.1v8.3h-24.1v15.8h28.9v9h-33.7zm140.74-57.76h-17.6c-3.4 0-5.4 2-5.4 5.4v46.9c0 3.4 2 5.4 5.4 5.4h17.6c17.5 0 30.3-12.1 30.3-28.9-.1-16.6-12.8-28.8-30.3-28.8m-.3 48.8h-12.5v-39.8h12.5c11.9 0 20.3 8.4 20.3 19.9s-8.3 19.9-20.3 19.9m72.031 10.304c-16.8 0-30.3-13.5-30.3-30.2s13.6-30.2 30.3-30.2 30.3 13.6 30.3 30.2c.1 16.7-13.5 30.2-30.3 30.2m0-50.5c-11 0-19.9 9.1-19.9 20.3 0 11.1 9 20.3 19.9 20.3 11 0 19.9-9.1 19.9-20.3.1-11.1-8.8-20.3-19.9-20.3m-37.379 134.842-14.7-22.1c7.7-2.7 12.7-9.4 12.7-18 0-11.1-8.5-19.2-20.1-19.2h-21.5c-4.2 0-6.9 2.7-6.9 6.9v52.4h13.1v-20.9h8.5l13.2 20.9zm-37.2-47.5h14.1c4.6 0 8 3.2 8 7.6 0 4.5-3.3 7.6-8 7.6h-14.1zm-136.951 12.381 9.5 27.7c2 5.6 3.7 8 7.6 8 3.2 0 5.7-1.9 7.9-8l17.8-51.9h-14.5l-11.5 36-9.3-28.7c-1.8-5.6-3.9-7.7-7.5-7.7s-5.7 2.1-7.5 7.7l-9.3 28.7-11.5-36h-14.5l17.8 51.9c2.2 6.1 4.7 8 7.9 8 3.8 0 5.6-2.5 7.6-8zm224.335 35.473h16.363l-23.635-34.544 20.908-24.544h-17.272l-20 24.544v-24.544h-13.636v59.088h13.636v-16.363l7.273-9.091zm-432.312-.354h-13.1v-52.9c0-4 2.5-6.9 7.1-6.9 2 0 4.4 1.1 7 4.4l24.8 32.7v-36.7h13.1v52.9c0 4-2.5 6.9-7.1 6.9-2 0-4.4-1.1-7-4.4l-24.8-32.7zm37.274-143.446h-10.2v40.2l-27.7-36.9c-2.4-3.2-4-4-6.2-4-4 0-6.3 2.7-6.3 6.3v52h10.2v-40.3l27.7 36.9c2.4 3.2 4.1 4 6.2 4 4 0 6.3-2.7 6.3-6.3zm94.901 0h-10.3v40.2l-27.7-36.9c-2.4-3.2-4-4-6.2-4-4 0-6.3 2.7-6.3 6.3v52h10.2v-40.3l27.7 36.9c2.4 3.2 4.1 4 6.2 4 4 0 6.3-2.7 6.3-6.3v-51.9zm175.509.002h-10.2v40.3l-27.7-36.9c-2.4-3.2-4-4-6.2-4-4 0-6.3 2.7-6.3 6.3v52h10.2v-40.3l27.7 36.9c2.4 3.2 4 4 6.2 4 4 0 6.3-2.7 6.3-6.3z" fill="#808184"/></svg>