<svg height="313" width="2500" xmlns="http://www.w3.org/2000/svg" viewBox="2 2 596.0104582865423 70.811"><path d="M315.717 39.583H288.9c-3.88 0-7.04 3.186-7.04 7.055v19.137c0 3.857 3.16 7.036 7.04 7.036h26.817c3.884 0 7.047-3.179 7.047-7.036V46.638c0-3.869-3.163-7.055-7.047-7.055m1.141 26.14c0 .76-.62 1.375-1.38 1.375h-26.334a1.38 1.38 0 0 1-1.384-1.375V46.675c0-.757.62-1.373 1.384-1.373h26.334c.76 0 1.38.616 1.38 1.373z" fill="#939598"/><path d="M8.154 10.961v24.62H2V2.352h5.257l24.918 24.2V2.35H38.243v33.23h-4.806zM69.832 10.961v24.62h-6.154V2.352h5.25l24.917 24.2V2.35h6.076v33.23H95.12zM197.658 10.961v24.62h-6.15V2.352h5.25l24.912 24.2V2.35h6.077v33.23h-4.796zM52.891 2.35h1.137v33.232h-6.15V2.35zM141.813 2.35h1.133V8.07h-14.833v27.513h-6.39V8.069h-14.828V2.35zM181.223 2.35h1.156V8.07H156.01v7.457h20.4v5.71h-20.4v8.622h26.369v5.724h-32.46V2.35zM272.045 7.209c-2.403-3.173-5.966-4.858-10.27-4.858h-24.652v33.23h24.652c4.304 0 7.867-1.683 10.27-4.85 2.252-2.953 3.448-7.017 3.448-11.768 0-4.738-1.196-8.812-3.448-11.754m-10.093 22.65H243.06V8.068h18.894c5.91 0 8.01 5.875 8.01 10.894 0 5.024-2.1 10.895-8.01 10.895zM315.717 2.35H288.9c-3.88 0-7.04 3.183-7.04 7.052v19.14c0 3.869 3.16 7.04 7.04 7.04h26.817c3.884 0 7.047-3.171 7.047-7.04V9.402c0-3.87-3.163-7.051-7.047-7.051m1.141 26.143c0 .746-.62 1.364-1.38 1.364h-26.334a1.38 1.38 0 0 1-1.384-1.364V9.442c0-.751.62-1.37 1.384-1.37h26.334c.76 0 1.38.619 1.38 1.37zM427.397 58.79c6.379 2.518 19.846 4.563 30.36 4.563 11.505 0 16.271-3.953 16.271-8.908 0-4.444-4.426-7.061-17.132-11.718-16.985-6.274-29.447-11.217-29.447-22.376C427.449 8.804 442.444 2 465.302 2c12.27 0 16.486.779 24.279 2.204l.059 10.97c-7.657-1.459-14.441-3.96-24.98-3.96-11.293 0-16.103 3.58-16.103 7.28 0 5.367 7.409 7.925 20.414 12.562 18.1 6.482 28.17 11.477 28.17 22.4 0 11.24-12.61 19.355-41.053 19.355-11.68 0-19.735-.768-28.691-2.208zM403.192 67.705c-6.697 3.031-19.362 4.954-30.433 4.954H330.45V2.155h42.309c11.07 0 23.736 1.95 30.444 4.976 16.294 7.356 21.61 19.126 21.61 30.285 0 11.158-5.268 22.916-21.621 30.29m-36.336-56.012H353.32V62.93h13.537c20.78 0 33.888-8.887 33.888-25.514 0-16.626-13.108-25.722-33.888-25.722zM544.075 70.362V36.167h3.787v34.195zm1.824-43.2c1.48 0 2.613 1.133 2.613 2.61 0 1.48-1.133 2.607-2.613 2.607-1.477 0-2.61-1.127-2.61-2.608 0-1.476 1.133-2.61 2.61-2.61zM558.186 36.488h11.473v3.644h-11.473v20.563c.031 3.732 2.717 5.901 6.04 5.903h5.433v3.764h-4.862c-6.43 0-10.399-3.714-10.399-9.72V27.197h3.788zM539.974 66.572h-7.346V27.204h-3.784v43.158l11.13-.006z"/><path d="M584.348 66.624c-5.617-.074-10.778-4.253-11.339-11.475l24.99.005a29.306 29.306 0 0 0-.172-3.473c-.97-8.681-6.198-15.193-14.122-15.193-9.173 0-14.522 7.58-14.522 16.935 0 9.354 5.991 16.939 15.165 16.939 6.102 0 10.12-3.164 12.927-7.814l-2.816-2.133c-1.704 2.951-4.788 6.279-10.111 6.209m-.65-26.54c6.11-.04 10.092 5.48 10.39 11.473l-21.03-.002c.665-6.901 4.866-11.434 10.64-11.471zM504.697 70.369h-2.076v-8.144h-2.972v-1.74h8.026v1.74h-2.978zM519.218 70.369h-1.916v-8.271h-.028l-1.847 8.27h-2.02l-1.797-8.27h-.033v8.27h-1.922v-9.883h2.992l1.79 7.772h.026l1.765-7.772h2.99z"/></svg>