<svg height="2500" viewBox="0 0 192.756 192.756" width="2500" xmlns="http://www.w3.org/2000/svg"><path clip-rule="evenodd" d="M0 0h192.756v192.756H0z" fill="#fff" fill-rule="evenodd"/><path clip-rule="evenodd" d="M27.037 105.595l2.103-4.677h7.716l-2.611-5.611-2.532-5.611-7.225 15.899zm140.949-22.953c-3.625-3.975-9.041-6.235-14.496-6.235-10.951 0-19.875 8.924-19.875 19.914a19.8 19.8 0 0 0 2.291 9.274h54.016v4.613h-10.664c-5.037 9.36-15.072 15.339-25.73 15.339-11.08 0-20.738-6.207-25.68-15.339h-10.211l7.016 15.417h-10.25l-7.021-15.417h-56.07l7.015 15.417H48.078l-7.046-15.417H2.834v-4.613h11.403l17.474-38.463 17.501 38.463h31.351l17.474-38.463 17.502 38.463h10.307a29.125 29.125 0 0 1-1.506-9.274c0-16.095 13.094-29.188 29.188-29.188 10.678 0 20.732 6.118 25.76 15.51h-11.302zm-28.724 27.566c3.613 3.715 8.658 6.024 14.229 6.024 5.369 0 10.623-2.215 14.285-6.024zm-48.45-4.613l7.225-15.899 7.242 15.899z" fill-rule="evenodd"/><path d="M61.171 110.193H71.42l9.314-20.498 16.368 35.93h10.248L80.734 67.132z" fill="none" stroke="#fff" stroke-miterlimit="2.613" stroke-width="2.349"/><path clip-rule="evenodd" d="M61.171 110.193H71.42l9.314-20.498 16.368 35.93h10.248L80.734 67.132z" fill-rule="evenodd"/></svg>