<svg height="1169" viewBox="0 0 166.28 77.76" width="2500" xmlns="http://www.w3.org/2000/svg"><path d="m46.78 56.64-19.38 9.33-19.38-9.33a3.624 3.624 0 0 1 -2.05-3.27v-38.83h42.86v38.83c0 1.39-.8 2.66-2.05 3.27z" fill="#2e479d"/><path d="m8.63 55.37a2.24 2.24 0 0 1 -1.26-2v-37.42h40.05v37.42c0 .85-.49 1.63-1.26 2l-18.77 9.03-18.77-9.03z" fill="#fcee23"/><path d="m9.03 54.55a1.32 1.32 0 0 1 -.74-1.18v-36.51h38.23v36.51c0 .5-.29.96-.74 1.18l-18.37 8.84-18.37-8.84z" fill="#2e479d"/><path d="m45.6 17.77v35.6c0 .15-.09.29-.22.36l-1.75.84-16.23 7.81-16.24-7.82-1.74-.84a.405.405 0 0 1 -.22-.36v-35.59h36.41z" fill="#fff"/><path d="m43.63 54.66-16.23 7.81-16.24-7.82c.83.04 1.21.23 1.97.63 1.24.64 2.93 1.51 5.98 1.51s4.74-.88 5.98-1.51c.87-.45 1.24-.64 2.36-.64s1.49.19 2.36.64c1.24.64 2.93 1.51 5.98 1.51s4.74-.88 5.98-1.51c.74-.38 1.11-.57 1.88-.62z" fill="#2e479d"/><path d="m45.6 17.77v35.6c0 .15-.09.29-.22.36l-1.75.84-16.23 7.81-16.24-7.82-1.74-.84a.405.405 0 0 1 -.22-.36v-35.59h36.41z" fill="none"/><g fill="#2e479d"><path d="m9.07 24.96h36.66v.76h-36.66zm36.53 24.18v.58c-.45-.06-.95-.09-1.49-.09-2.61 0-4.02.73-5.16 1.32-.94.49-1.62.84-3.18.84s-2.24-.35-3.18-.84c-1.13-.59-2.55-1.32-5.16-1.32s-4.02.73-5.16 1.32c-.94.49-1.62.84-3.18.84s-2.24-.35-3.18-.84c-1.13-.59-2.55-1.32-5.16-1.32-.58 0-1.1.04-1.58.1v-.59c.48-.06 1-.09 1.58-.09 2.75 0 4.23.77 5.42 1.38.93.48 1.5.77 2.91.77s1.98-.29 2.91-.77c1.19-.62 2.67-1.38 5.42-1.38s4.23.76 5.42 1.38c.93.48 1.5.77 2.91.77s1.98-.29 2.91-.77c1.19-.61 2.67-1.38 5.42-1.38.54 0 1.04.03 1.49.08z"/><path d="m45.6 50.43v2.6c-.42-.08-.9-.13-1.49-.13-1.73 0-2.51.4-3.5.91-1.12.58-2.4 1.24-4.84 1.24s-3.71-.66-4.84-1.24c-.99-.51-1.77-.91-3.5-.91s-2.51.4-3.5.91c-1.12.58-2.4 1.24-4.84 1.24s-3.71-.66-4.84-1.24c-.99-.51-1.77-.91-3.5-.91-.63 0-1.14.05-1.58.15v-2.61c.47-.07.99-.1 1.58-.1 2.44 0 3.71.66 4.84 1.24.99.51 1.77.91 3.5.91s2.51-.4 3.5-.91c1.12-.58 2.4-1.24 4.84-1.24s3.71.66 4.84 1.24c.99.51 1.77.91 3.5.91s2.51-.4 3.5-.91c1.12-.58 2.39-1.24 4.84-1.24.55 0 1.05.03 1.49.09zm-18.14-22.04s-.01 0-.02.02c0 0 .01-.02.02-.02z"/><path d="m31.73 28.04c-.43-1.04-2.08-1.81-4.06-1.81s-3.63.77-4.06 1.81.21.38.34.28h.01c.06-.05.18-.14.22-.14.02 0 .05.05.06.08.06.1.17.26.41.27.24.02.37-.13.44-.22.02-.02.06-.07.07-.07.02 0 .05.05.07.08.07.09.18.25.42.26s.36-.14.44-.23c.02-.02.06-.07.07-.07.02 0 .05.05.07.08.07.09.18.25.42.25s.36-.15.43-.24c.02-.03.05-.07.07-.07s.04.03.06.05l.02.02c.07.09.19.25.43.25s.36-.15.43-.25c0 0 0-.01.02-.02 0 0 0-.01.01-.02l.04-.04c.01 0 .05.05.07.07.07.09.19.24.43.24s.35-.16.42-.25c.02-.03.05-.07.07-.08.01 0 .05.05.07.07.07.09.2.24.44.23s.35-.17.42-.26c.02-.03.05-.07.07-.08.01 0 .05.05.07.07.08.09.21.23.44.22.24-.02.35-.18.41-.27.02-.03.05-.07.06-.08.04 0 .16.09.22.14l.01.01c.13.1.41-.12.34-.28zm-4.29.37s.01-.02.02-.02-.01 0-.02.02zm3.28-.38s-.05.07-.07.08c-.01 0-.05-.05-.07-.07-.08-.09-.2-.23-.44-.22-.23.01-.34.17-.41.26-.02.03-.05.07-.07.08-.01 0-.05-.05-.07-.07-.08-.09-.2-.24-.43-.23-.23 0-.35.16-.42.26-.02.03-.05.07-.07.08-.01 0-.05-.05-.07-.07-.07-.09-.19-.24-.43-.24-.06 0-.11.01-.15.03 0 0-.02 0-.03.01-.12.05-.19.14-.24.21l-.03.03-.01.01c-.01.01 0 0 0 0l-.01.01c-.01.01-.02-.01-.03-.03l-.01-.01c0-.01-.02-.02-.03-.03-.05-.06-.12-.16-.24-.21 0 0-.02 0-.03-.01a.334.334 0 0 0 -.15-.03c-.23 0-.35.15-.43.24-.02.02-.05.07-.07.07s-.05-.05-.07-.08c-.07-.09-.18-.25-.42-.26a.53.53 0 0 0 -.43.23c-.02.02-.06.07-.07.07-.02 0-.05-.05-.07-.08-.07-.09-.18-.25-.41-.26s-.36.13-.44.22l-.07.07c-.02 0-.05-.05-.07-.08-.06-.09-.15-.23-.34-.26.16-.18.38-.34.65-.49.73-.41 1.7-.63 2.74-.63s2.02.23 2.74.63c.26.15.48.31.65.49-.19.04-.28.18-.34.26z"/><path d="m27.46 28.39s-.01 0-.02.02c0 0 .01-.02.02-.02zm.24-.2-.01.01c-.01.01.02 0 .02-.02zm3.69.67-.01.01c-.06.05-.18.14-.22.14-.02 0-.05-.05-.06-.08-.06-.1-.17-.26-.41-.27-.24-.02-.37.13-.44.22-.02.02-.06.07-.07.07-.02 0-.05-.05-.07-.08-.07-.09-.18-.25-.42-.26s-.36.14-.44.23c-.02.02-.06.07-.07.07-.02 0-.05-.05-.07-.08-.07-.09-.18-.25-.42-.25s-.36.15-.43.24c-.02.03-.05.07-.07.07-.01 0-.03-.02-.04-.04 0 0 0-.01-.01-.02l-.02-.02c-.07-.09-.19-.25-.43-.25s-.36.15-.43.25c0 0 0 .01-.02.02-.02.02-.04.05-.06.05-.01 0-.05-.05-.07-.07-.07-.09-.19-.24-.43-.24s-.35.16-.42.25c-.02.03-.05.07-.07.08-.01 0-.05-.05-.07-.07-.07-.09-.2-.24-.44-.23s-.35.17-.42.26c-.02.03-.05.07-.07.08-.01 0-.05-.05-.07-.07-.08-.09-.21-.23-.44-.22-.24.02-.35.18-.41.27-.02.03-.05.07-.06.08-.04 0-.16-.09-.22-.14h-.01c-.13-.1-.34.27-.34.27.43 1.04 2.08 1.82 4.06 1.82s3.63-.77 4.06-1.81c.07-.16-.21-.38-.34-.28zm-3.93-.07s-.01 0-.02-.02c0 0 .02.01.02.02zm3.6.63c-.16.17-.38.34-.65.49-.73.41-1.7.63-2.74.63s-2.02-.23-2.74-.63c-.27-.15-.48-.31-.65-.49.19-.04.28-.18.34-.26.02-.03.05-.07.07-.08.01 0 .05.05.07.07.08.09.2.23.44.22.23-.01.34-.17.41-.26.02-.03.05-.07.07-.08.01 0 .05.05.07.07.08.09.2.24.43.23.23 0 .35-.16.42-.26.02-.03.05-.07.07-.08.01 0 .05.05.07.07.07.09.19.24.43.24.06 0 .11-.01.15-.03 0 0 .02 0 .03-.01.12-.05.19-.14.24-.21l.03-.03.01-.01.03-.03c.01-.01 0 0 .01.01l.01.01c0 .01.02.02.03.03.05.06.12.16.24.21 0 0 .02 0 .03.01.04.02.09.03.15.03.23 0 .35-.15.43-.24.02-.02.05-.07.07-.07s.05.05.07.08c.07.09.18.25.42.26.23 0 .36-.14.43-.23.02-.02.06-.07.07-.07.02 0 .05.05.07.08.07.09.18.25.41.26s.36-.13.44-.22l.07-.07c.02 0 .05.05.07.08.06.09.15.23.34.26z"/><path d="m27.46 28.79s-.01 0-.02-.02c0 0 .01.02.02.02zm.24.21-.01-.01c-.01-.01.02 0 .02.02zm-12.79-.61s-.01 0-.02.02c0 0 .01-.02.02-.02z"/><path d="m19.18 28.04c-.43-1.04-2.08-1.81-4.06-1.81s-3.63.77-4.06 1.81.21.38.34.28h.01c.06-.05.18-.14.22-.14.02 0 .05.05.06.08.06.1.17.26.41.27.24.02.37-.13.44-.22.02-.02.06-.07.07-.07.02 0 .05.05.07.08.07.09.18.25.42.26s.36-.14.44-.23c.02-.02.06-.07.07-.07.02 0 .05.05.07.08.07.09.18.25.42.25s.36-.15.43-.24c.02-.03.05-.07.07-.07s.04.03.06.05l.02.02c.07.09.19.25.43.25s.36-.15.43-.25c0 0 0-.01.02-.02 0 0 0-.01.01-.02l.04-.04c.01 0 .05.05.07.07.07.09.19.24.43.24s.35-.16.42-.25c.02-.03.05-.07.07-.08.01 0 .05.05.07.07.07.09.2.24.44.23s.35-.17.42-.26c.02-.03.05-.07.07-.08.01 0 .05.05.07.07.08.09.21.23.44.22.24-.02.35-.18.41-.27.02-.03.05-.07.06-.08.04 0 .16.09.22.14l.01.01c.13.1.41-.12.34-.28zm-4.29.37s.01-.02.02-.02-.01 0-.02.02zm3.28-.38s-.05.07-.07.08c-.01 0-.05-.05-.07-.07-.08-.09-.2-.23-.44-.22-.23.01-.34.17-.41.26-.02.03-.05.07-.07.08-.01 0-.05-.05-.07-.07-.08-.09-.2-.24-.43-.23-.23 0-.35.16-.42.26-.02.03-.05.07-.07.08-.01 0-.05-.05-.07-.07-.07-.09-.19-.24-.43-.24-.06 0-.11.01-.15.03 0 0-.02 0-.03.01-.12.05-.19.14-.24.21l-.03.03-.01.01c-.01.01 0 0 0 0l-.01.01c-.01.01-.02-.01-.03-.03l-.01-.01c0-.01-.02-.02-.03-.03-.05-.06-.12-.16-.24-.21 0 0-.02 0-.03-.01a.334.334 0 0 0 -.15-.03c-.23 0-.35.15-.43.24-.02.02-.05.07-.07.07s-.05-.05-.07-.08c-.07-.09-.18-.25-.42-.26a.53.53 0 0 0 -.43.23c-.02.02-.06.07-.07.07-.02 0-.05-.05-.07-.08-.07-.09-.18-.25-.41-.26s-.36.13-.44.22l-.07.07c-.02 0-.05-.05-.07-.08-.06-.09-.15-.23-.34-.26.16-.18.38-.34.65-.49.73-.41 1.7-.63 2.74-.63s2.02.23 2.74.63c.26.15.48.31.65.49-.19.04-.28.18-.34.26z"/><path d="m14.91 28.39s-.01 0-.02.02c0 0 .01-.02.02-.02zm.23-.2-.01.01c-.01.01.02 0 .02-.02zm3.69.67-.01.01c-.06.05-.18.14-.22.14-.02 0-.05-.05-.06-.08-.06-.1-.17-.26-.41-.27-.24-.02-.37.13-.44.22-.02.02-.06.07-.07.07-.02 0-.05-.05-.07-.08-.07-.09-.18-.25-.42-.26s-.36.14-.44.23c-.02.02-.06.07-.07.07-.02 0-.05-.05-.07-.08-.07-.09-.18-.25-.42-.25s-.36.15-.43.24c-.02.03-.05.07-.07.07-.01 0-.03-.02-.04-.04 0 0 0-.01-.01-.02l-.02-.02c-.07-.09-.19-.25-.43-.25s-.36.15-.43.25c0 0 0 .01-.02.02-.02.02-.04.05-.06.05-.01 0-.05-.05-.07-.07-.07-.09-.19-.24-.43-.24s-.35.16-.42.25c-.02.03-.05.07-.07.08-.01 0-.05-.05-.07-.07-.07-.09-.2-.24-.44-.23s-.35.17-.42.26c-.02.03-.05.07-.07.08-.01 0-.05-.05-.07-.07-.08-.09-.21-.23-.44-.22-.24.02-.35.18-.41.27-.02.03-.05.07-.06.08-.04 0-.16-.09-.22-.14h-.01c-.13-.1-.34.27-.34.27.43 1.04 2.08 1.82 4.06 1.82s3.63-.77 4.06-1.81c.07-.16-.21-.38-.34-.28zm-3.93-.07s-.01 0-.02-.02c0 0 .02.01.02.02zm3.6.63c-.16.17-.38.34-.65.49-.73.41-1.7.63-2.74.63s-2.02-.23-2.74-.63c-.27-.15-.48-.31-.65-.49.19-.04.28-.18.34-.26.02-.03.05-.07.07-.08.01 0 .05.05.07.07.08.09.2.23.44.22.23-.01.34-.17.41-.26.02-.03.05-.07.07-.08.01 0 .05.05.07.07.08.09.2.24.43.23.23 0 .35-.16.42-.26.02-.03.05-.07.07-.08.01 0 .05.05.07.07.07.09.19.24.43.24.06 0 .11-.01.15-.03 0 0 .02 0 .03-.01.12-.05.19-.14.24-.21l.03-.03.01-.01.03-.03c.01-.01 0 0 .01.01l.01.01c0 .01.02.02.03.03.05.06.12.16.24.21 0 0 .02 0 .03.01.04.02.09.03.15.03.23 0 .35-.15.43-.24.02-.02.05-.07.07-.07s.05.05.07.08c.07.09.18.25.42.26.23 0 .36-.14.43-.23.02-.02.06-.07.07-.07.02 0 .05.05.07.08.07.09.18.25.41.26s.36-.13.44-.22l.07-.07c.02 0 .05.05.07.08.06.09.15.23.34.26z"/><path d="m14.91 28.79s-.01 0-.02-.02c0 0 .01.02.02.02zm.23.21-.01-.01c-.01-.01.02 0 .02.02zm24.92-.61s-.01 0-.02.02c0 0 .01-.02.02-.02z"/><path d="m44.33 28.04c-.43-1.04-2.08-1.81-4.06-1.81s-3.63.77-4.06 1.81.21.38.34.28h.01c.06-.05.18-.14.22-.14.02 0 .05.05.06.08.06.1.17.26.41.27.24.02.37-.13.44-.22.02-.02.06-.07.07-.07.02 0 .05.05.07.08.07.09.18.25.42.26s.36-.14.44-.23c.02-.02.06-.07.07-.07.02 0 .05.05.07.08.07.09.18.25.42.25s.36-.15.43-.24c.02-.03.05-.07.07-.07s.04.03.06.05l.02.02c.07.09.19.25.43.25s.36-.15.43-.25c0 0 0-.01.02-.02 0 0 0-.01.01-.02l.04-.04c.01 0 .05.05.07.07.07.09.19.24.43.24s.35-.16.42-.25c.02-.03.05-.07.07-.08.01 0 .05.05.07.07.07.09.2.24.44.23s.35-.17.42-.26c.02-.03.05-.07.07-.08.01 0 .05.05.07.07.08.09.21.23.44.22.24-.02.35-.18.41-.27.02-.03.05-.07.06-.08.04 0 .16.09.22.14l.01.01c.13.1.41-.12.34-.28zm-4.29.37s.01-.02.02-.02-.01 0-.02.02zm3.28-.38s-.05.07-.07.08c-.01 0-.05-.05-.07-.07-.08-.09-.2-.23-.44-.22-.23.01-.34.17-.41.26-.02.03-.05.07-.07.08-.01 0-.05-.05-.07-.07-.08-.09-.2-.24-.43-.23-.23 0-.35.16-.42.26-.02.03-.05.07-.07.08-.01 0-.05-.05-.07-.07-.07-.09-.19-.24-.43-.24-.06 0-.11.01-.15.03 0 0-.02 0-.03.01-.12.05-.19.14-.24.21l-.03.03-.01.01c-.01.01 0 0 0 0l-.01.01c-.01.01-.02-.01-.03-.03l-.01-.01c0-.01-.02-.02-.03-.03-.05-.06-.12-.16-.24-.21 0 0-.02 0-.03-.01a.334.334 0 0 0 -.15-.03c-.23 0-.35.15-.43.24-.02.02-.05.07-.07.07s-.05-.05-.07-.08c-.07-.09-.18-.25-.42-.26a.53.53 0 0 0 -.43.23c-.02.02-.06.07-.07.07-.02 0-.05-.05-.07-.08-.07-.09-.18-.25-.41-.26s-.36.13-.44.22l-.07.07c-.02 0-.05-.05-.07-.08-.06-.09-.15-.23-.34-.26.16-.18.38-.34.65-.49.73-.41 1.7-.63 2.74-.63s2.02.23 2.74.63c.26.15.48.31.65.49-.19.04-.28.18-.34.26z"/><path d="m40.06 28.39s-.01 0-.02.02c0 0 .01-.02.02-.02zm.24-.2-.01.01c-.01.01.02 0 .02-.02zm3.69.67-.01.01c-.06.05-.18.14-.22.14-.02 0-.05-.05-.06-.08-.06-.1-.17-.26-.41-.27-.24-.02-.37.13-.44.22-.02.02-.06.07-.07.07-.02 0-.05-.05-.07-.08-.07-.09-.18-.25-.42-.26s-.36.14-.44.23c-.02.02-.06.07-.07.07-.02 0-.05-.05-.07-.08-.07-.09-.18-.25-.42-.25s-.36.15-.43.24c-.02.03-.05.07-.07.07-.01 0-.03-.02-.04-.04 0 0 0-.01-.01-.02l-.02-.02c-.07-.09-.19-.25-.43-.25s-.36.15-.43.25c0 0 0 .01-.02.02-.02.02-.04.05-.06.05-.01 0-.05-.05-.07-.07-.07-.09-.19-.24-.43-.24s-.35.16-.42.25c-.02.03-.05.07-.07.08-.01 0-.05-.05-.07-.07-.07-.09-.2-.24-.44-.23s-.35.17-.42.26c-.02.03-.05.07-.07.08-.01 0-.05-.05-.07-.07-.08-.09-.21-.23-.44-.22-.24.02-.35.18-.41.27-.02.03-.05.07-.06.08-.04 0-.16-.09-.22-.14h-.01c-.13-.1-.34.27-.34.27.43 1.04 2.08 1.82 4.06 1.82s3.63-.77 4.06-1.81c.07-.16-.21-.38-.34-.28zm-3.93-.07s-.01 0-.02-.02c0 0 .02.01.02.02zm3.6.63c-.16.17-.38.34-.65.49-.73.41-1.7.63-2.74.63s-2.02-.23-2.74-.63c-.27-.15-.48-.31-.65-.49.19-.04.28-.18.34-.26.02-.03.05-.07.07-.08.01 0 .05.05.07.07.08.09.2.23.44.22.23-.01.34-.17.41-.26.02-.03.05-.07.07-.08.01 0 .05.05.07.07.08.09.2.24.43.23.23 0 .35-.16.42-.26.02-.03.05-.07.07-.08.01 0 .05.05.07.07.07.09.19.24.43.24.06 0 .11-.01.15-.03 0 0 .02 0 .03-.01.12-.05.19-.14.24-.21l.03-.03.01-.01.03-.03c.01-.01 0 0 .01.01l.01.01c0 .01.02.02.03.03.05.06.12.16.24.21 0 0 .02 0 .03.01.04.02.09.03.15.03.23 0 .35-.15.43-.24.02-.02.05-.07.07-.07s.05.05.07.08c.07.09.18.25.42.26.23 0 .36-.14.43-.23.02-.02.06-.07.07-.07.02 0 .05.05.07.08.07.09.18.25.41.26s.36-.13.44-.22l.07-.07c.02 0 .05.05.07.08.06.09.15.23.34.26z"/><path d="m40.06 28.79s-.01 0-.02-.02c0 0 .01.02.02.02zm.24.21-.01-.01c-.01-.01.02 0 .02.02z"/></g><g fill="none"><g fill="#bb2025"><path d="m27.11 0h.58v49.33h-.58z"/><path d="m20.736.913.56-.15 12.768 47.65-.56.15z"/><path d="m14.818 3.445.502-.29 24.665 42.721-.502.29z"/><path d="m9.75 7.43.41-.41 34.88 34.882-.41.41z"/><path d="m5.895 12.582.29-.502 42.721 24.665-.29.502z"/><path d="m3.497 18.564.15-.56 47.649 12.766-.15.56z"/><path d="m2.73 24.38h49.33v.58h-49.33z"/><path d="m3.501 30.781 47.647-12.776.15.56-47.647 12.776z"/><path d="m5.894 36.749 42.721-24.665.29.502-42.72 24.665z"/><path d="m9.75 41.909 34.88-34.882.41.41-34.88 34.883z"/><path d="m14.819 45.886 24.665-42.721.502.29-24.665 42.72z"/><path d="m20.735 48.417 12.776-47.647.56.15-12.776 47.647z"/><circle cx="27.5" cy="25.04" r="4.38"/></g><circle cx="27.5" cy="25.04" fill="#fcee23" r="3.89"/></g><path d="m40.34 32.55-.23.03c-.08.01-.09 0-.13.01h-.51-.24c-.08 0-.16 0-.25-.02s0 0-.01 0c-.04 0-.08 0-.12-.01-.04 0-.08 0-.11-.01h-.01c-.12-.01-.23-.03-.35-.04-.04 0-.08-.01-.12-.02h-.04c-.01 0-.05 0-.08-.01-.05 0-.09-.01-.14-.02-.05 0-.11-.02-.16-.03a4.57 4.57 0 0 1 -.36-.07c-.03 0-.06-.01-.09-.02-.11-.02-.22-.04-.32-.07-.23-.05-.46-.1-.69-.14-.65-.14-1.31-.28-1.99-.38-.38-.06-.77-.1-1.15-.13-.31-.02-.62-.03-.93-.02-1.55.04-3.13.46-4.68 1.73-.04.03-.08.07-.12.1v12.75l.08-.08.04-.04c2.27-2.09 4.65-1.53 6.75-1.04 1.45.34 2.82.66 3.96.08l.07-.03v-3.85l.35 3.11v1.1h.25v-3.43l.26 2.54v1.2h.25v-4.28l.27 3.25v1.48h.25v-5.08l.24 3.54v1.85h.25v-13.97s-.08.01-.12.02z" fill="#2e479d"/><path d="m40.34 33.39s-.08 0-.12.01c-.08 0-.16.01-.24.02h-.74c-.09 0-.18 0-.26-.02h-.24c-.12-.01-.23-.03-.35-.04-.04 0-.08-.01-.12-.02-.04 0-.08-.01-.12-.02h-.05c-.2-.03-.41-.07-.61-.1-.4-.07-.81-.16-1.23-.25-1.22-.26-2.48-.53-3.74-.53h-.67c-1.19.01-2.39.17-4.24 1.62s-.08.07-.12.1v12.04l.08-.08.04-.04c2.27-2.09 4.65-1.53 6.75-1.04 1.45.34 2.82.66 3.96.08l.07-.03v-3.85l.35 3.11v1.1h.25v-3.43l.26 2.54v1.2h.25v-4.28l.27 3.25v1.48h.25v-5.08l.24 3.54v1.85h.25v-13.13s-.08.01-.12.02z" fill="#fff"/><path d="m40.56 33.36v13.59c-.53.23-1.11.33-1.82.33-.91 0-1.9-.18-2.95-.36-1.2-.21-2.43-.43-3.74-.43-1.38 0-3.12.24-4.61 1.31-1.49-1.07-3.23-1.31-4.61-1.31-1.3 0-2.54.22-3.74.43-1.05.19-2.04.36-2.95.36-.71 0-1.3-.11-1.82-.33v-13.59s.06.01.1.01v13.13h.25v-1.85l.24-3.54v5.08h.25v-1.48l.27-3.25v4.28h.25v-1.2l.26-2.54v3.43h.25v-1.1l.35-3.11v3.86l.07.03c1.14.58 2.51.26 3.96-.08 2.1-.49 4.48-1.05 6.75 1.04.01.01.03.02.04.04l.08.08.08-.08.04-.04c2.27-2.09 4.65-1.53 6.75-1.04 1.45.34 2.82.66 3.96.08l.07-.03v-3.85l.35 3.11v1.1h.25v-3.43l.26 2.54v1.2h.25v-4.28l.27 3.25v1.48h.25v-5.08l.24 3.54v1.85h.25v-13.13s.07 0 .1-.01z" fill="#fff"/><path d="m29.94 33.63c3.89-3.63 8.03.38 10.78-1.01v14.37" fill="none" stroke="#2e3087" stroke-miterlimit="10" stroke-width=".25"/><path d="m40.34 32.48v14.02l-.12-1.85-.24-3.54-.12-1.85-.12-1.85-.27-3.96v-.11l-.03-.4v-.17h.03c.09-.01.18-.03.27-.05.04 0 .08-.02.12-.03s.08-.02.12-.04c.05-.01.09-.03.13-.05.08-.03.15-.06.23-.1z" fill="#fff"/><path d="m40.47 32.28v14.22h-.25v-13.83l-.24.09c-.04.01-.08.03-.12.04l-.12.03c-.09.02-.18.04-.27.05h-.02l-.03-.25h.05c.03 0 .07 0 .1-.02.06 0 .12-.02.17-.04.04 0 .08-.02.12-.03s.08-.03.12-.04c.11-.04.21-.08.31-.13z" fill="#2e479d"/><path d="m39.86 32.31v13.87l-.12-1.48-.27-3.25-.12-1.48-.12-1.48-.26-3.13-.12-1.48-.04-.51-.04-.5v-.16l-.02-.12s.07 0 .11-.01c.04 0 .08 0 .12-.01h.01c.08-.01.17-.03.25-.04.04 0 .08-.02.12-.03s.08-.02.12-.04c.14-.04.27-.1.4-.16z" fill="#fff"/><path d="m39.98 32.11v14.07h-.25v-13.68c-.09.04-.18.07-.27.1h-.01l-.11.03-.12.03c-.09.02-.17.03-.26.04-.04 0-.08.01-.12.01h-.1v-.17-.07h.12c.04 0 .08 0 .12-.02.09-.01.18-.03.26-.05.04 0 .08-.02.12-.03s.08-.02.12-.04c.12-.04.23-.09.34-.14l.18-.09z" fill="#2e479d"/><path d="m39.33 32.07v13.68l-.12-1.2-.26-2.54-.25-2.4-.35-3.41-.25-2.4-.05-.49-.05-.52-.03-.29v-.04-.08h.26c.04 0 .08 0 .12-.01.12-.01.24-.03.35-.06.04 0 .08-.02.12-.03s.08-.02.12-.04c.13-.04.26-.1.39-.16z" fill="#fff"/><path d="m39.46 31.86v13.88h-.25v-13.48c-.09.04-.17.07-.26.1-.04.01-.08.02-.12.04l-.12.03c-.11.02-.23.04-.35.06-.04 0-.08 0-.12.01h-.09-.17v-.09-.12-.03h.28c.04 0 .08 0 .12-.01.17-.02.33-.05.48-.09.04-.01.08-.02.12-.04.12-.04.23-.09.33-.14l.18-.09z" fill="#2e479d"/><path d="m38.82 32.01v13.42l-.12-1.1-.35-3.11-.12-1.1-.12-1.1-.66-5.83-.06-.55-.02-.21v-.07l-.01-.03v-.02h.32c.1 0 .19-.02.29-.03.05 0 .1-.01.15-.02.02 0 .05 0 .07-.01.02 0 .04 0 .06-.01.04 0 .08-.02.12-.03.16-.05.32-.11.48-.19z" fill="#fff"/><path d="m38.95 31.81v13.62h-.25v-13.22c-.11.05-.23.09-.35.12l-.12.03h-.04c-.03 0-.05.01-.08.02-.05 0-.1.02-.14.02-.05 0-.11.01-.16.02-.14.01-.28.02-.44.02h-.02v-.07-.13-.05h.3c.21-.01.4-.04.58-.09.04 0 .08-.02.12-.03.15-.04.29-.1.42-.17z" fill="#2e479d"/><path d="m38.22 31.97v13.03c-2.75 1.39-6.89-2.62-10.78 1.01v-13.03c3.89-3.63 8.03.38 10.78-1.01z" fill="#fff"/><path d="m38.18 32.49h-.05-.03v.31s.08.01.12.02v-.33zm-.01-.63c-.55.28-1.18.33-1.84.27-.62-.06-1.27-.21-1.95-.37-.01 0-.03 0-.05-.01-2.14-.5-4.55-1.05-6.89 1.07-.03.02-.06.05-.09.08s-.03.04-.03.04v13.13s.03.02.04.04l.08.08.08-.08.04-.04c2.27-2.09 4.65-1.53 6.75-1.04 1.45.34 2.82.66 3.96.08l.07-.03v-13.3l-.18.09zm-.07 13.06c-1.05.49-2.35.19-3.72-.13-2.11-.5-4.5-1.05-6.81.95v-12.69c1.55-1.43 3.15-1.62 4.68-1.44.71.08 1.41.25 2.07.4l.64.15c.38.08.75.16 1.11.2.44.06.86.07 1.27.02.03 0 .05 0 .08-.01a3.732 3.732 0 0 0 .68-.19v12.75zm.08-12.43h-.05-.03v.31s.08.01.12.02v-.33zm-25.29.87h.89v.78h-.89z" fill="#2e479d"/><path d="m13.06 33.97v-.45h.78v.45z" fill="#fff"/><circle cx="12.41" cy="33.75" fill="#2e479d" r=".7"/><path d="m12.41 34.24a.49.49 0 1 1 .002-.982.49.49 0 0 1 -.002.982z" fill="#fff"/><path d="m12.89 35.39h.89v.78h-.89z" fill="#2e479d"/><path d="m13.06 36v-.45h.78v.45z" fill="#fff"/><circle cx="12.41" cy="35.77" fill="#2e479d" r=".7"/><path d="m12.41 36.27a.49.49 0 1 1 .002-.982.49.49 0 0 1 -.002.982z" fill="#fff"/><path d="m12.89 37.41h.89v.78h-.89z" fill="#2e479d"/><path d="m13.05 38.02v-.45h.78v.45z" fill="#fff"/><circle cx="12.41" cy="37.8" fill="#2e479d" r=".7"/><path d="m12.41 38.3a.49.49 0 1 1 .002-.982.49.49 0 0 1 -.002.982z" fill="#fff"/><path d="m12.89 39.44h.89v.78h-.89z" fill="#2e479d"/><path d="m13.05 40.05v-.45h.78v.45z" fill="#fff"/><circle cx="12.41" cy="39.83" fill="#2e479d" r=".7"/><path d="m12.41 40.33a.49.49 0 1 1 .002-.982.49.49 0 0 1 -.002.982z" fill="#fff"/><path d="m12.89 41.47h.89v.78h-.89z" fill="#2e479d"/><path d="m13.05 42.08v-.45h.78v.45z" fill="#fff"/><circle cx="12.41" cy="41.86" fill="#2e479d" r=".7"/><path d="m12.41 42.36a.49.49 0 1 1 .002-.982.49.49 0 0 1 -.002.982z" fill="#fff"/><path d="m12.89 43.5h.89v.78h-.89z" fill="#2e479d"/><path d="m13.05 44.11v-.45h.78v.45z" fill="#fff"/><circle cx="12.41" cy="43.89" fill="#2e479d" r=".7"/><path d="m12.41 44.39a.49.49 0 1 1 .002-.982.49.49 0 0 1 -.002.982z" fill="#fff"/><path d="m12.89 45.53h.89v.78h-.89z" fill="#2e479d"/><path d="m13.05 46.14v-.45h.78v.45z" fill="#fff"/><circle cx="12.41" cy="45.92" fill="#2e479d" r=".7"/><path d="m12.41 46.42a.49.49 0 1 1 .002-.982.49.49 0 0 1 -.002.982z" fill="#fff"/><path d="m41.39 32.87v14.33c0 .19-.13.33-.3.41-3.76 1.84-8.66-2.31-13.65 1.07-4.99-3.37-9.89.77-13.65-1.07-.17-.08-.3-.23-.3-.41v-14.33c0-.29.27-.5.55-.42.12.03.25.06.38.09v.84s-.07 0-.1-.01v13.59c.53.23 1.11.33 1.82.33.91 0 1.9-.18 2.95-.36 1.2-.21 2.43-.43 3.74-.43 1.38 0 3.12.24 4.61 1.31 1.49-1.07 3.23-1.31 4.61-1.31 1.3 0 2.54.22 3.74.43 1.05.19 2.04.36 2.95.36.71 0 1.3-.11 1.82-.33v-13.59s-.06.01-.1.01v-.84c.13-.02.25-.05.38-.09.28-.08.55.14.55.42z" fill="#2e479d"/><path d="m27.44 33.43v12.75l-.08-.08-.04-.04c-2.27-2.09-4.65-1.53-6.75-1.04-1.45.34-2.82.66-3.96.08l-.07-.03v-3.86l-.35 3.11v1.1h-.25v-3.43l-.26 2.54v1.2h-.25v-4.28l-.27 3.25v1.48h-.25v-5.08l-.24 3.54v1.85h-.25v-13.97s.08.01.12.02l.23.03c.08.01.09 0 .13.01h.75c.08 0 .16 0 .25-.02s0 0 .01 0c.04 0 .08 0 .12-.01.04 0 .08 0 .11-.01h.01c.12-.01.23-.03.35-.04.04 0 .08-.01.12-.02h.04s.05 0 .08-.01c.05 0 .09-.01.14-.02.05 0 .11-.02.16-.03.12-.02.24-.04.36-.07.03 0 .06-.01.08-.02.11-.02.22-.04.32-.07.23-.05.46-.1.69-.14.65-.14 1.31-.28 1.99-.38.38-.06.77-.1 1.15-.13.31-.02.62-.03.93-.02 1.55.04 3.13.46 4.68 1.73.04.03.08.07.12.1z" fill="#2e479d"/><path d="m27.44 34.14v12.04l-.08-.08-.04-.04c-2.27-2.09-4.65-1.53-6.75-1.04-1.45.34-2.82.66-3.96.08l-.07-.03v-3.86l-.35 3.11v1.1h-.25v-3.43l-.26 2.54v1.2h-.25v-4.28l-.27 3.25v1.48h-.25v-5.08l-.24 3.54v1.85h-.25v-13.13s.08.01.12.02c.04 0 .08 0 .12.01.08 0 .16.01.24.02h.74c.09 0 .18 0 .26-.02h.24c.12-.01.23-.03.35-.04.04 0 .08-.01.12-.02.04 0 .08-.01.12-.02h.05c.2-.03.4-.06.61-.1.4-.07.81-.16 1.23-.25 1.22-.26 2.48-.53 3.74-.53h.67c1.19.01 2.39.17 4.24 1.62s.08.07.12.1z" fill="#fff"/><path d="m24.95 33.63c-3.89-3.63-8.03.38-10.78-1.01v14.37" fill="none" stroke="#2e3087" stroke-miterlimit="10" stroke-width=".25"/><path d="m15.46 32.76v.17l-.04.4v.11l-.27 3.96-.12 1.85-.12 1.85-.24 3.54-.12 1.85v-14.02c.07.04.15.07.23.1s.09.03.13.05c.04.01.08.03.12.04l.12.03c.09.02.18.04.27.05h.04z" fill="#fff"/><path d="m15.48 32.63-.03.25h-.02c-.09-.01-.18-.03-.27-.05-.04 0-.08-.02-.12-.03s-.08-.02-.12-.04c-.08-.02-.16-.05-.24-.09v13.83h-.25v-14.22l.18.09c.1.05.2.09.31.13.04.01.08.03.12.04l.12.03c.06.01.11.03.17.04.03 0 .07.01.1.02z" fill="#2e479d"/><path d="m16.17 32.61-.01.12v.16l-.06.5-.04.51-.12 1.48-.26 3.13-.12 1.48-.12 1.48-.27 3.25-.12 1.48v-13.87c.13.07.26.12.4.16.04.01.08.03.12.04l.12.03c.08.02.16.03.25.04s0 0 .01 0c.04 0 .08.01.12.01h.11z" fill="#fff"/><path d="m16.18 32.48v.24h-.1c-.04 0-.08 0-.12-.01-.09-.01-.18-.03-.26-.04-.04 0-.08-.02-.12-.03-.04 0-.07-.02-.11-.03s0 0-.01 0c-.09-.03-.18-.06-.27-.1v13.68h-.25v-14.07l.18.09c.11.06.22.1.34.14.04.01.08.03.12.04l.12.03c.09.02.17.04.26.05.04 0 .08.01.12.02h.12z" fill="#2e479d"/><path d="m16.93 32.37v.12l-.03.29-.05.52-.05.49-.25 2.4-.35 3.41-.25 2.4-.26 2.54-.12 1.2v-13.68c.13.06.26.12.39.16.04.01.08.03.12.04l.12.03c.12.03.23.04.35.06.04 0 .08 0 .12.01h.27z" fill="#fff"/><path d="m16.94 32.25v.24h-.26c-.04 0-.08 0-.12-.01-.12-.01-.24-.03-.35-.06-.04 0-.08-.02-.12-.03s-.08-.02-.12-.04c-.09-.03-.18-.06-.26-.1v13.48h-.25v-13.88l.18.09c.11.05.22.1.33.14.04.01.08.03.12.04.15.04.31.07.48.09.04 0 .08 0 .12.01h.28z" fill="#2e479d"/><path d="m17.55 32.32v.12l-.03.21-.06.55-.66 5.83-.12 1.1-.12 1.1-.35 3.11-.12 1.1v-13.42c.15.08.31.14.48.19l.12.03c.02 0 .04 0 .06.01.02 0 .04 0 .07.01.05 0 .1.02.15.02l.29.03h.32z" fill="#fff"/><path d="m17.55 32.44h-.02c-.15 0-.3 0-.43-.02-.06 0-.11-.01-.16-.02s-.1-.01-.14-.02c-.03 0-.05-.01-.08-.02h-.04c-.04 0-.08-.02-.12-.03-.12-.03-.24-.07-.35-.12v13.22h-.25v-13.62l.18.09c.13.07.27.12.42.17l.12.03c.18.05.37.07.58.09h.3v.24z" fill="#2e479d"/><path d="m16.66 31.97v13.03c2.75 1.39 6.89-2.62 10.78 1.01v-13.03c-3.89-3.63-8.03.38-10.78-1.01z" fill="#fff"/><g fill="#2e479d"><path d="m16.71 32.49h-.04v.34s.08-.01.12-.02v-.33s-.05 0-.08.01zm10.82.41s-.06-.06-.09-.08c-2.33-2.12-4.75-1.57-6.89-1.07-.02 0-.03 0-.05.01-.67.16-1.33.31-1.94.37-.67.06-1.29.01-1.84-.27l-.18-.09v13.3l.07.03c1.14.58 2.51.26 3.96-.08 2.1-.49 4.48-1.05 6.75 1.04.01.01.03.02.04.04l.08.08.08-.08.04-.04v-13.13zm-10.75 12.02v-12.75c.14.06.29.11.44.14.08.02.16.03.24.05.03 0 .05 0 .08.01.4.05.83.04 1.27-.02.36-.05.73-.12 1.11-.2.21-.05.42-.1.64-.15.67-.16 1.36-.32 2.07-.4 1.53-.18 3.13.01 4.68 1.44v12.7c-2.31-2-4.7-1.44-6.81-.95-1.37.32-2.67.63-3.72.13zm-.08-12.43h-.04v.34s.08-.01.12-.02v-.33s-.05 0-.08.01z"/><path d="m18.77 35.33h1.79l2.33 3.43v-3.43h1.8v6.2h-1.8l-2.32-3.4v3.4h-1.8zm15.05 0h1.91v3.69c0 .37-.06.71-.17 1.04s-.29.61-.54.85-.5.41-.77.51c-.37.14-.82.21-1.34.21-.3 0-.63-.02-.99-.06s-.65-.13-.89-.25c-.24-.13-.46-.3-.66-.53s-.33-.47-.41-.71c-.12-.39-.18-.74-.18-1.05v-3.69h1.91v3.78c0 .34.09.6.28.79s.45.29.78.29.59-.09.78-.28.28-.45.28-.8v-3.78zm-7.34 11.64a9.05 9.05 0 0 0 -.4-.26c-.33-.19-.67-.32-1.04-.41a3.88 3.88 0 0 0 -.33-.07l.25-1.12c.13.03.25.06.38.1.45.13.89.33 1.29.58.29.18.55.38.8.6-.45 0-.78.28-.94.58z"/><path d="m28.27 47.07c-.15.11-.29.23-.43.35l-.82-.03c-.13-.12-.26-.23-.4-.33.13-.26.42-.51.82-.51s.7.25.82.51z"/><path d="m30.23 46.24c-.14.02-.28.05-.42.09a4.252 4.252 0 0 0 -1.41.64c-.16-.3-.49-.57-.95-.58.24-.21.49-.4.77-.58.4-.25.84-.45 1.29-.58.16-.05.31-.09.47-.12l.25 1.12z"/></g><path d="m27.44 46.41h.02zm1.06.93c0 .46-.67.59-1.04.59h-.04c-.37 0-1.04-.13-1.04-.59 0-.11.03-.24.1-.37.05.03.09.06.13.1.13-.26.42-.51.82-.51s.7.25.82.51l.13-.1c.07.12.1.25.1.37z" fill="#fff"/><path d="m28.34 47.34c0 .16-.14.26-.32.33s-.4.1-.57.1c-.33 0-.89-.11-.89-.43 0-.08.02-.18.07-.27.13-.26.42-.51.82-.51s.7.25.82.51c.04.09.07.18.07.27zm26.71 14.38-7.95 3.8-2.44-5.11 7.95-3.8-1.62 3.91z" fill="#2e479d"/><path d="m47.29 64.97-2.08-4.36 6.6-3.16-1.38 3.34 3.47 1.02z" fill="#fcee23"/><path d="m49.23 63.05-2.13 2.47-2.44-5.11 2.13-2.47z" fill="#2e479d"/><path d="m32.48 64.784 14.3-6.838 2.441 5.106-14.298 6.839z" fill="#2e479d"/><path d="m46.586 58.496 2.088 4.367-13.55 6.48-2.088-4.366z" fill="#fcee23"/><path d="m35.2 64.97.95-.46 1.01.67.11-1.21.95-.45-.31 2.13.56 1.16-.86.41-.56-1.16-1.86-1.1zm4.01-.21c-.22-.45-.26-.87-.13-1.24s.42-.67.87-.88c.46-.22.88-.27 1.25-.14s.66.42.87.86c.16.32.23.62.22.88 0 .26-.09.5-.24.71s-.38.4-.69.54c-.31.15-.6.22-.85.22s-.5-.08-.73-.24-.42-.4-.58-.72zm.86-.41c.13.28.28.46.45.53s.33.07.51-.02.3-.22.34-.39 0-.41-.16-.72c-.13-.26-.27-.43-.43-.5s-.34-.06-.52.02c-.17.08-.28.21-.33.38s0 .4.13.68zm4.02-3.63.86-.41.79 1.66c.08.16.13.33.15.5s0 .34-.06.5-.14.29-.23.39c-.14.14-.32.27-.56.38-.14.06-.29.13-.46.18-.17.06-.32.08-.45.08s-.27-.04-.41-.1-.25-.14-.34-.23c-.14-.15-.24-.3-.3-.43l-.79-1.66.86-.41.81 1.7c.07.15.17.25.3.29.12.05.26.03.41-.04s.24-.17.29-.29c.04-.12.03-.26-.04-.42l-.81-1.7zm-44.09 1 7.95 3.8 2.45-5.11-7.96-3.8 1.62 3.91z" fill="#2e479d"/><path d="m7.76 64.97 2.09-4.36-6.61-3.16 1.38 3.34-3.47 1.02z" fill="#fcee23"/><path d="m5.82 63.05 2.13 2.47 2.45-5.11-2.13-2.47z" fill="#2e479d"/><path d="m20.121 69.883-14.299-6.838 2.442-5.106 14.3 6.838z" fill="#2e479d"/><path d="m22.008 64.979-2.088 4.366-13.55-6.48 2.088-4.367z" fill="#fcee23"/><path d="m14.4 62.36.86.41-1.33 2.78-.86-.41zm22.05 10.03-3.96-1.94v-5.67l3.96 1.95zm-17.84 0 3.96-1.94v-5.67l-3.96 1.95z" fill="#2e479d"/><path d="m18.61 66.73h17.84v5.66h-17.84z" fill="#2e479d"/><path d="m36.04 67.14v4.84h-17.01v-4.84z" fill="#fcee23"/><path d="m21.83 69.61c0-.5.14-.89.42-1.17s.67-.42 1.17-.42.91.14 1.19.41c.28.28.42.66.42 1.16 0 .36-.06.66-.18.89s-.3.41-.53.54-.51.19-.86.19-.64-.06-.86-.17c-.23-.11-.41-.29-.55-.53s-.21-.54-.21-.9zm.95 0c0 .31.06.53.17.67.12.14.27.2.47.2s.36-.07.48-.2c.11-.13.17-.37.17-.72 0-.29-.06-.5-.18-.64-.12-.13-.28-.2-.48-.2s-.35.07-.46.2c-.12.14-.17.36-.17.67zm2.79-1.54h.9l.33 1.73.48-1.73h.9l.48 1.72.33-1.72h.9l-.68 3.08h-.93l-.54-1.94-.54 1.94h-.93l-.69-3.08zm5.05 0h2.55v.66h-1.6v.49h1.48v.63h-1.48v.61h1.64v.7h-2.6v-3.08zm42.87-44.81c.9 0 1.77 0 2.61-.07v.55c-2.21.05-2.26.75-2.26 2.74v13.66h-.75l-11.57-14.26v11.07c0 1.77.2 2.36 2.26 2.41v.55c-.87-.07-1.82-.07-2.76-.07-1.02 0-1.84.02-2.51.07v-.55c2.14-.05 2.24-.67 2.24-2.74v-11.57c-.55-.95-1.27-1.27-2.54-1.27v-.57c1.02.05 1.82.07 2.36.07.22 0 .87-.02 1.87-.07l10.65 13.04v-9.78c0-2.06-.12-2.69-2.26-2.74v-.55c.75.05 1.64.07 2.66.07zm9.23 11.07 1.59-1.67c1.32-1.39 2.04-2.24 2.04-2.71 0-.4-.35-.47-1.22-.62v-.45c1.09.05 1.84.1 2.29.1.6 0 1.17-.05 1.79-.1v.45c-1.29.15-1.89.95-2.81 1.97l-1.87 2.09 4.75 4.73c.7.7 1.19 1.19 1.94 1.27v.52c-.75-.05-1.37-.05-1.84-.05-.15 0-.62 0-1.42.05l-4.8-5.08-.45.4v2.86c0 1 .5 1.27 1.79 1.29v.52c-1.12-.07-2.09-.12-2.89-.12-.75 0-1.72.02-2.89.12v-.52c1.27-.02 1.79-.32 1.79-1.24v-13.48c0-1.04-.37-1.29-1.59-1.29h-.2v-.45c.7-.1 2.02-.42 3.98-.95v12.36zm10.62-5.37c.52 0 1.19-.02 1.94-.05v7.91c0 1.69.8 2.56 2.34 2.56 1.69 0 3.13-1.49 3.13-3.58v-5.17c0-.77-.52-1.17-1.59-1.17h-.2v-.55c.77.02 1.47.05 2.06.05.52 0 1.17-.02 1.92-.05v8.23c0 1.34.25 1.82 1.49 1.82h.3v.52c-.97 0-2.11.35-3.51.95l-.4-2.51c-.97 1.54-2.29 2.24-4.06 2.24-2.86 0-3.68-1.37-3.68-3.88v-5.2c0-.25-.03-.4-.03-.45 0-.77-.52-1.17-1.57-1.17h-.2v-.55c.77.02 1.44.05 2.04.05zm17.2 1.69v.22c.9-1.49 2.19-2.24 3.91-2.24 1.84 0 3.04.8 3.33 2.21.85-1.39 2.29-2.19 3.98-2.19 2.51 0 3.51 1.22 3.51 3.61v5.82c0 1 .5 1.27 1.79 1.29v.52c-1.12-.07-2.09-.12-2.89-.12-.75 0-1.72.02-2.89.12v-.52c1.27-.02 1.77-.32 1.77-1.24 0-.02.03-.17.03-.4v-5.85c0-1.59-.75-2.44-2.16-2.44-1.79 0-2.94 1.37-2.94 3.61v5.03c0 .97.5 1.27 1.74 1.29v.52c-1.07-.07-2.02-.12-2.84-.12-.9 0-1.79.05-2.76.12v-.52c1.17-.05 1.67-.35 1.67-1.24v-6.24c0-1.57-.75-2.44-2.16-2.44-1.77 0-2.94 1.37-2.94 3.61v5.03c0 1 .5 1.27 1.79 1.29v.52c-1.12-.07-2.09-.12-2.89-.12-.75 0-1.72.02-2.89.12v-.52c1.27-.02 1.79-.32 1.79-1.24v-6.37c0-1.44-.22-1.92-1.57-1.92h-.22v-.5c.97 0 2.11-.35 3.51-.95.2.75.32 1.49.32 2.24zm21.64-.43c.9-1.04 1.99-1.49 3.53-1.49 3.04 0 5.15 2.26 5.15 5.55 0 3.68-2.16 5.92-5.6 5.92-1.44 0-2.51-.47-3.71-1.49l-1.47 1.42v-15.38c0-1.54-.1-1.69-1.69-1.79v-.47c.95-.05 2.19-.27 3.78-.6v8.33zm2.64 9.3c2.46 0 3.76-1.77 3.76-5.2 0-3.16-1.39-4.88-3.51-4.88-1.82 0-2.96 1.19-2.96 3.04v4.18c0 1.92.92 2.86 2.71 2.86zm17.59-1.68c0 .87.3 1.34.82 1.34.35 0 .57-.2.92-.5l.32.35c-.52.82-1.22 1.19-2.19 1.19s-1.87-.7-2.06-1.74c-1.19 1.12-2.76 1.72-4.1 1.72-1.77 0-2.69-.87-2.69-2.26 0-1.64 1.34-2.71 4.08-3.78l1.32-.5c1.14-.45 1.52-.42 1.52-1.29v-.87c0-1.57-.6-2.34-2.46-2.34-1.19 0-1.99.45-2.11 1.19-.12.7-.12 1.29-1.12 1.29-.47 0-.82-.4-.82-.92 0-1.07 1.44-2.06 4.3-2.06s4.28.92 4.28 2.86v6.32zm-6.67-.42c0 1.17.62 1.84 1.74 1.84.95 0 2.81-.82 2.81-2.39v-3.26c-3.08 1.22-4.55 2.26-4.55 3.81zm-73.45 9.18c.76 0 1.62 0 2.54-.07v.55s-.14-.02-.39-.02c-1.71 0-1.71 1.02-1.71 2.51v6.11c0 4.61-1.57 6.69-6.16 6.69-4.11 0-6.07-1.57-6.07-4.91v-8.28c0-1.59-.3-2.05-2.22-2.1v-.53c1.08.07 2.22.09 3.41.09s2.33-.02 3.41-.09v.53h-.35c-1.62 0-1.87.78-1.87 2.1v7.96c0 3 1.27 4.43 4.22 4.43 3.46 0 4.96-1.68 4.96-5.31v-6.69c0-1.94-.12-2.49-2.08-2.49v-.55c.65.05 1.41.07 2.28.07zm8.42 7.17c.92-1.48 2.15-2.15 3.81-2.15 2.17 0 3.41 1.04 3.41 3.02v5.7c0 .92.46 1.18 1.66 1.2v.48c-1.04-.07-1.94-.12-2.68-.12-.69 0-1.59.02-2.68.12v-.48c1.18-.02 1.66-.3 1.66-1.15v-5.61c0-1.64-.72-2.45-2.17-2.45-1.57 0-2.91 1.38-2.91 3.32v4.68c0 .92.46 1.18 1.66 1.2v.48c-1.04-.07-1.94-.12-2.68-.12-.69 0-1.59.02-2.68.12v-.48c1.18-.02 1.64-.3 1.64-1.15 0-.02.02-.16.02-.37v-5.54c0-1.34-.21-1.78-1.45-1.78h-.21v-.46c.9 0 1.96-.32 3.25-.88.21.72.3 1.52.32 2.4zm14.39 6.26v.32c0 .88.44 1.15 1.57 1.2v.48c-.88-.07-1.75-.12-2.58-.12s-1.68.05-2.54.12v-.48c1.08-.05 1.52-.32 1.52-1.15v-6.14c0-1.13-.07-1.55-1.27-1.55h-.18v-.46c1.02-.09 2.17-.39 3.48-.88v8.65zm-.05-13.27c0 .65-.53 1.18-1.2 1.18s-1.18-.53-1.18-1.18.51-1.2 1.18-1.2 1.2.53 1.2 1.2zm5.04 5.17c.76 0 1.52-.02 2.26-.09v.51c-.85 0-1.22.12-1.22.65 0 .28.14.88.53 1.78l2.17 5.01 1.02-2.68c.78-2.08 1.29-3.37 1.29-3.97 0-.53-.39-.78-1.2-.78v-.51c.55.05 1.06.09 1.59.09.48 0 1.02-.05 1.59-.09v.51h-.05c-.69 0-1.08.81-1.75 2.47l-2.98 7.43h-.51l-3.74-8.84c-.3-.69-.51-.95-1.45-1.06v-.51c.88.07 1.71.09 2.45.09zm12.41 3.76c-.05.48-.07.85-.07 1.15 0 2.77 1.55 4.61 3.69 4.61 1.22 0 2.03-.44 2.98-1.52l.42.44c-.95 1.34-2.28 1.98-4.04 1.98-3.18 0-5.38-2.28-5.38-5.19s2.28-5.58 5.45-5.58c2.52 0 4.29 1.62 4.29 3.9v.21zm5.26-1.2c0-1.55-.97-2.42-2.26-2.42-1.48 0-2.63 1.11-2.86 2.95h5.05c.05-.3.07-.48.07-.53zm7.71-.51c.72-1.45 1.96-2.24 3.25-2.24 1.18 0 1.85.51 1.85 1.22 0 .58-.32.92-.78.92-1.04 0-.51-1.34-1.8-1.34s-2.33 1.11-2.33 3.11v4.68c0 .92.46 1.18 1.66 1.2v.48c-1.04-.07-1.94-.12-2.68-.12-.69 0-1.59.02-2.68.12v-.48c1.18-.02 1.66-.3 1.66-1.15v-5.68c0-1.52-.37-2.03-1.64-2.03h-.25v-.46c1.06-.14 2.19-.42 3.37-.78.25.69.35 1.55.37 2.54zm12.73-2.35h.28c-.02.72-.05 1.38-.05 2.01v.69h-.37c-.23-1.34-1.29-2.24-2.38-2.24-.92 0-1.59.51-1.59 1.27 0 .95.67 1.36 2.1 2.15 1.82 1.02 3.14 1.43 3.14 3.65 0 1.98-1.29 3.21-3.46 3.21-.95 0-1.89-.35-2.58-.95l-.39.65h-.21c.02-.85.02-1.36.02-1.55 0-.37-.02-.9-.02-1.62h.32c.32 1.82 1.5 2.91 2.88 2.91 1.13 0 2.01-.76 2.01-1.73 0-1.15-.88-1.64-2.35-2.4-1.87-.99-2.84-1.82-2.84-3.28 0-1.64 1.18-2.81 2.93-2.81.72 0 1.41.21 2.12.62zm6.99 8.4v.32c0 .88.44 1.15 1.57 1.2v.48c-.88-.07-1.75-.12-2.58-.12s-1.68.05-2.54.12v-.48c1.08-.05 1.52-.32 1.52-1.15v-6.14c0-1.13-.07-1.55-1.27-1.55h-.18v-.46c1.02-.09 2.17-.39 3.48-.88v8.65zm-.05-13.27c0 .65-.53 1.18-1.2 1.18s-1.18-.53-1.18-1.18.51-1.2 1.18-1.2 1.2.53 1.2 1.2zm6.77 2.56v2.54h2.7v.69h-2.68v6.94c0 1.38.42 2.08 1.48 2.08.62 0 1.15-.37 1.62-1.08l.42.37c-.55.99-1.43 1.41-2.72 1.41-2.26 0-2.75-.97-2.75-2.88v-6.83h-1.08v-.37c1.02-.6 1.91-1.57 2.63-2.86h.39zm6.18 2.61c.35 0 1.25-.02 2.65-.09v.51c-.92.02-1.34.16-1.34.76 0 .14.07.37.16.62l2.31 5.95 2.19-5.31c.16-.39.23-.81.23-1.15 0-.62-.35-.85-1.2-.88v-.51c.69.05 1.25.09 1.62.09.46 0 .97-.05 1.57-.09v.51h-.07c-.51 0-.9.51-1.36 1.64l-2.98 7.18c-2.12 5.15-3.02 7.36-4.08 7.36-.37 0-.62-.28-.62-.69 0-.9.78-1.04 1.25-1.27s1.43-1.78 2.05-3.6l.37-1.11-3.25-7.82c-.42-.99-.44-1.57-1.71-1.68v-.51c.88.07 1.62.09 2.22.09zm-158.09 25.57h166.28v.26h-166.28z" fill="#2e479d"/><text fill="#231f20" font-family="AcuminConcept-SemiCondExtraLight, 'Acumin Variable Concept'" font-size="8" font-weight="200" transform="translate(5.97 88.22)"><tspan x="0" y="0">C</tspan><tspan letter-spacing="-.01em" x="4.84" y="0">h</tspan><tspan x="8.9" y="0">a</tspan><tspan letter-spacing=".04em" x="12.74" y="0">r</tspan><tspan letter-spacing="0em" x="15.51" y="0">t</tspan><tspan letter-spacing="0em" x="17.58" y="0">e</tspan><tspan letter-spacing="-.01em" x="21.39" y="0">r</tspan><tspan letter-spacing="0em" x="23.75" y="0">e</tspan><tspan letter-spacing="0em" x="27.59" y="0">d i</tspan><tspan letter-spacing="0em" x="35.38" y="0">n</tspan><tspan letter-spacing="0em" x="41.48" y="0">2</tspan><tspan letter-spacing="0em" x="45.19" y="0">0</tspan><tspan letter-spacing="0em" x="49.3" y="0">06</tspan><tspan letter-spacing="0em" x="59.5" y="0">b</tspan><tspan letter-spacing=".04em" x="63.7" y="0">y</tspan><tspan x="67.49" y="0">the</tspan><tspan letter-spacing="0em" x="81.5" y="0">G</tspan><tspan letter-spacing="0em" x="86.77" y="0">o</tspan><tspan x="90.81" y="0">ve</tspan><tspan letter-spacing="0em" x="98.04" y="0">r</tspan><tspan letter-spacing="0em" x="100.43" y="0">nment</tspan><tspan letter-spacing=".01em" x="122.73" y="0">o</tspan><tspan letter-spacing="0em" x="126.85" y="0">f</tspan><tspan letter-spacing="0em" x="130.65" y="0">U</tspan><tspan letter-spacing="0em" x="135.69" y="0">g</tspan><tspan x="139.75" y="0">anda</tspan></text></svg>