<svg height="615" viewBox="16.231 2.282 368.244 88.831" width="2500" xmlns="http://www.w3.org/2000/svg"><path d="m157 2.767c-4.492.634-7.443 3.425-8.038 7.601-.166 1.168-.069 48.938.102 50.192 1.428 10.461 6.553 18.442 15.109 23.529 7.663 4.555 18.126 5.616 27.041 2.744 11.33-3.651 19.625-13.817 21.143-25.913 1.901-15.143-5.882-28.911-19.371-34.269-7.923-3.147-17.974-2.694-25.366 1.144l-.66.342v-8.578c0-10.075.01-9.951-1.008-11.976-1.609-3.197-5.519-5.301-8.952-4.816m-131.96 21.483c-3.999.324-7.447 3.249-8.448 7.166-.355 1.39-.361 1.876-.333 25.744l.027 22.64.182.795c1.91 8.356 12.748 10.518 17.451 3.482 5.053-7.56 16.805-4.58 17.518 4.443.036.46.058-1.821.052-5.36l-.011-6.16-.215-.784c-1.175-4.277-4.437-6.851-9.143-7.214-3.49-.269-5.691-1.988-6.405-5.002-.323-1.365-.236-8.706.123-10.388 1.881-8.799 12.068-12.961 19.546-7.985 2.526 1.681 4.659 4.663 5.259 7.353.096.429.121.465.39.538 2.39.657 9.367 2.679 9.366 2.714 0 .027-2.097.646-4.66 1.376l-4.659 1.328.002 20.864.184.84c1.142 5.224 5.875 8.402 11.144 7.483 3.947-.688 7.112-3.85 7.79-7.781.225-1.302.134-26.675-.102-28.308-1.444-10.018-6.973-18.356-15.538-23.433-9.043-5.361-20.672-5.846-30.119-1.256l-.959.465-.616-.65c-1.992-2.105-4.813-3.153-7.826-2.91m325.04.32c-15.051 1.012-26.995 11.993-29.112 26.763-3.133 21.861 13.556 39.423 34.952 36.781 4.061-.502 8.598-2.062 11.486-3.951l.245-.161.532.677c2.167 2.757 6.371 3.904 10.057 2.744 3.116-.98 5.113-3.211 5.976-6.677.225-.904.259-28.506.035-28.506-.126 0-.162-.08-.208-.46-.372-3.087-1.569-6.924-3.129-10.02-5.797-11.512-17.579-18.081-30.834-17.19m-237.32.069c-19.707 1.052-32.832 18.019-29.438 38.054 2.803 16.548 17.694 27.398 35.119 25.588 18.57-1.93 30.855-18.64 27.634-37.59-2.751-16.192-16.508-26.949-33.315-26.052m196.24.215c-3.956.157-7.474 1.083-10.906 2.87l-1.152.6-.574-.546c-3.669-3.485-10.498-3.015-13.466.927-.893 1.184-1.51 2.688-1.745 4.248-.148.977-.178 46.6-.032 47.65.639 4.589 3.895 7.516 8.555 7.69 4.302.16 7.669-2.079 8.919-5.933.497-1.532.465-.432.517-17.6l.048-15.68.18-.586c.837-2.725 3.201-4.687 6.697-5.561 1.928-.482 3.145-.534 6.802-.291 5.387.359 7.821-.521 9.769-3.532 3.138-4.851 1.126-10.654-4.492-12.955-2.028-.831-6.538-1.545-8.44-1.337a21.11 21.11 0 0 1 -.68.036m-64.36.078c-9.957.677-18.345 5.216-24.015 12.996-4.878 6.693-6.849 15.797-5.375 24.832 1.426 8.745 6.245 16.197 13.67 21.138 9.199 6.121 22.929 6.496 32.27.882.588-.353.68-.387.745-.271 1.311 2.343 5.041 4.011 8.33 3.725 4.347-.377 7.426-3.219 8.172-7.544.201-1.165.185-28.015-.017-28.068-.114-.03-.182-.286-.366-1.389-2.699-16.14-17.023-27.414-33.414-26.301m-62.672 17.151c8.06.65 13.528 7.8 12.519 16.37-.742 6.298-5.2 11.254-11.045 12.277-9.741 1.706-17.408-5.646-16.488-15.81.74-8.172 6.955-13.487 15.014-12.837m173.48.147c9.796 2.139 14.146 14.151 8.305 22.937-4.596 6.914-15.376 7.737-21.237 1.62-7.481-7.808-4.001-21.454 6.206-24.334 1.755-.495 4.987-.602 6.726-.223m-238.62-.03c9.106 1.193 14.301 11.224 10.608 20.48-4.545 11.39-21.752 10.994-25.786-.593-3.154-9.061 1.949-18.618 10.594-19.842.33-.046.69-.098.8-.114.56-.082 2.967-.039 3.784.069m132.2.326c5.822.859 10.47 5.779 11.339 12.002 1.117 7.999-3.605 15.172-10.873 16.518-8.423 1.561-15.827-3.975-16.687-12.474-.866-8.56 4.626-15.47 12.876-16.203.631-.056 2.491.031 3.345.157m-202.42 8.467c-5.514 1.267-6.871 8.62-2.154 11.671 4.751 3.071 10.85-.971 9.879-6.548-.608-3.493-4.264-5.918-7.725-5.123" fill-rule="evenodd"/></svg>