<svg height="2500" width="2500" xmlns="http://www.w3.org/2000/svg" viewBox="0 0 500 500"><path d="M0 0h500v500H0V0z" fill="#fefefe"/><path d="M181 228.563l3.813-.061c10.272.005 10.272.005 13.875 2.15 4.993 5.07 5.694 9.525 5.722 16.403l-.035 2.945.035 2.945c-.022 5.424-.317 9.4-3.41 14.055-6.419 5.938-12.488 5.214-20.813 5.25l-3.564.063c-11.377.051-11.377.051-15.623-3.313-4.761-5.96-4.608-11.643-4.5-19.063-.015-1.062-.03-2.125-.047-3.22.03-5.99.201-10.19 4.547-14.717 6.57-3.897 12.554-3.48 20-3.438z" fill="#fa8822"/><path d="M292 229c5.598 4.754 8.672 12.825 11.93 19.271l1.117 2.194.995 1.988c.883 1.728.883 1.728 2.958 2.547l.625-2.438c1.49-3.86 3.443-6.805 5.793-10.183 2.013-3.027 3.67-6.191 5.309-9.434 1.504-2.298 2.915-3.542 5.273-4.945 5.985.21 5.985.21 8.621 2.262 1.667 2.1 2.202 3.83 2.879 6.422l.746 2.795.754 2.958.79 3.008c.514 1.965 1.023 3.93 1.527 5.898a606.64 606.64 0 0 0 1.738 6.602C344.277 262.592 345 266.13 345 271h-12c-3.06-8.16-4.52-16.445-6-25h-2c-.39 1.267-.39 1.267-.79 2.559-1.281 3.644-2.853 7.06-4.585 10.504l-.883 1.814c-1.875 3.755-3.878 7.046-6.742 10.123-3.438 1.125-3.438 1.125-7 1-4.525-3.684-6.76-7.9-9.188-13.063l-1.037-2.142a425.702 425.702 0 0 1-3.888-8.229c-.802-1.756-.802-1.756-2.887-2.566l-.078 1.66c-.578 8.08-2.7 15.59-4.922 23.34h-13c0-6.617 0-6.617 1.688-10.125 2.613-6.04 3.982-12.334 5.385-18.743 1.2-5.193 2.573-8.953 5.927-13.132 3.353-1.676 5.446-1.007 9 0z" fill="#0b5d9c"/><path d="M227 229c4.755 3.887 7.365 8.711 10.25 14.063l1.352 2.431c1.912 3.492 3.569 6.587 4.398 10.506h2l.938-2.875C247 250 247 250 248 248h2l.29-2.113c.848-3.447 2.286-6.019 4.085-9.075l1.836-3.167C258 231 258 231 261 229c3.858-.42 6.084-.643 9.313 1.625 3.613 5.086 4.314 10.299 3.687 16.375-1 3.5-1 3.5-2 6h-2l-2 10-2-1c-.748-3.201-1.314-6.389-1.855-9.629-.323-1.802-.729-3.588-1.145-5.371l-2-1-1 3.563c-1.565 4.686-3.662 9.003-5.938 13.375l-1.017 2.008c-1.419 2.66-2.597 4.736-5.08 6.5-3.292.928-5.696.43-8.965-.446-3.444-3.604-5.382-7.627-7.25-12.188l-.813-1.904C229 252.287 229 252.287 229 250l-4-2c-.38 1.593-.38 1.593-.77 3.219-1.72 7.093-3.415 14.026-6.23 20.781h-12c0-5.167.137-6.612 2.14-10.89 1.866-4.578 2.79-9.496 3.923-14.298.507-2.14 1.018-4.28 1.535-6.417l.672-2.849c2.03-7.082 5.115-9.465 12.73-8.546z" fill="#0c5e9d"/><path d="M363.965 228.602l3.424-.012 3.549.035 3.537-.035c7.748.026 12.524.67 18.4 6.035 2.74 4.352 2.926 7.37 2.125 12.375-1.507 4.608-3.808 7.195-7.791 9.961-4.342 2.042-8.95 1.55-13.646 1.352l-3.084-.069A498.66 498.66 0 0 1 363 258v-10l4.34-.184 5.598-.253 2.865-.12 2.724-.127 2.524-.11c1.952 0 1.952 0 2.949-1.206.167-2.5.167-2.5 0-5-1.049-1.273-1.049-1.273-3.408-1.114l-3.158.016-3.409.01-3.587.026-3.6.013c-2.946.012-5.892.028-8.838.049.138 3.313.287 6.625.438 9.938l.119 2.865.127 2.724.11 2.524c0 1.952 0 1.952 1.206 2.949 1.56.157 3.125.25 4.691.316l2.862.127 3.01.12 3.021.13c2.472.107 4.944.207 7.416.307v10c-3.71.108-7.415.187-11.125.25l-3.172.102c-6.052.076-10.072-.002-14.703-4.352-3.99-5.607-3.48-10.778-3.437-17.437l-.061-3.393c.004-6.152.048-10.492 4.498-15.17 3.763-2.694 6.36-3.383 10.965-3.398z" fill="#fa8822"/><path d="M114.68 228.734l1.969-.005c1.373-.002 2.747.002 4.12.01 2.092.01 4.182 0 6.274-.012a7553627328.837 7553627328.837 0 0 1 7.683.015c5.607.442 8.673 2.26 12.524 6.258l2.078 2.125c3.16 3.545 2.789 6.18 2.77 10.852l-.005 2.076c-.005 2.19-.018 4.381-.03 6.572-.006 1.484-.01 2.969-.014 4.453-.011 3.64-.028 7.281-.049 10.922h-10l-.028-2.523a972.69 972.69 0 0 0-.18-9.275c-.042-1.995-.063-3.99-.085-5.985l-.098-3.799-.063-3.507c-.276-2.99-.276-2.99-2.397-4.75-3.244-1.753-5.97-2.307-9.598-2.477l-2.315-.116-2.923-.13L115 239v33h-10a2674.69 2674.69 0 0 1-.165-17.407c-.015-1.975-.035-3.95-.061-5.925a1047.04 1047.04 0 0 1-.067-8.504c-.015-.886-.03-1.773-.047-2.686v-2.487l-.02-2.194c.972-4.843 6.186-4.055 10.04-4.063z" fill="#fa8721"/><path d="M173.902 238.734l2.948-.007 3.088.023 3.076-.023 2.95.007 2.708.007C191 239 191 239 194 241c.356 1.848.356 1.848.328 4.063l-.015 2.414-.063 2.523-.016 2.523c-.08 6.168-.08 6.168-1.234 8.477h-25c-1.71-3.418-1.185-7.234-1.187-11l-.038-2.523-.005-2.415-.013-2.214c.568-4.32 3.53-4.104 7.145-4.114z" fill="#fef9f3"/><path d="M165 231c-1.285 2.867-2.571 4.976-5 7h-2c3.138-7 3.138-7 7-7z" fill="#fa983f"/><path d="M274 246h2c-.7 3.147-1.76 6.026-3 9h-1c-.25-5.625-.25-5.625 2-9z" fill="#f2f7fa"/></svg>