<svg height="634" viewBox="-5.551115123125783e-17 -0.07809004600591596 86.82900000000001 22.259979862391322" width="2500" xmlns="http://www.w3.org/2000/svg"><path d="M86.098 16.906a.223.223 0 0 0-.208-.208h-.313l-1.248.312c-.48.089-.97.122-1.458.1a5.28 5.28 0 0 1-1.354-.208 3.818 3.818 0 0 1-1.146-.521 2.447 2.447 0 0 1-.833-.936 2.884 2.884 0 0 1-.312-1.354c-.023-.83.319-1.63.936-2.186a3.806 3.806 0 0 1 2.5-.833 6.901 6.901 0 0 1 1.561.1c.417.1.729.21 1.042.313.208.1.415 0 .521-.313l.936-3.852a.276.276 0 0 0-.313-.312 8.058 8.058 0 0 0-2.186-.417 13.276 13.276 0 0 0-1.977-.1 14.038 14.038 0 0 0-4.477.625 9.057 9.057 0 0 0-3.125 1.769 6.99 6.99 0 0 0-2.387 5.314 7.602 7.602 0 0 0 .625 3.125 6.013 6.013 0 0 0 1.87 2.398c.888.664 1.87 1.19 2.915 1.56a14.94 14.94 0 0 0 3.853.522c.94-.018 1.878-.087 2.81-.208.744-.101 1.477-.275 2.187-.52.312.1.312-.108.312-.212l-.002-.001-.73-3.957zM65.487 5.038c.73.279 1.522.35 2.29.208a5.342 5.342 0 0 0 2.186-1.04c.542-.551.81-1.315.729-2.084v-.1a.448.448 0 0 0-.208-.73h-.106A2.536 2.536 0 0 0 68.921.249a4.113 4.113 0 0 0-2.5-.1 3.465 3.465 0 0 0-1.979 1.146 2.173 2.173 0 0 0-.729 1.873v.1a.447.447 0 0 0 .21.729.1.1 0 0 1 .1.1v.006c.42.407.918.725 1.464.936zm4.997 1.354h-5.935a.475.475 0 0 0-.519.415v14.785c.031.257.262.44.519.415h5.936c.208 0 .519-.208.519-.415V6.807a.475.475 0 0 0-.52-.415zm-21.969.103a4.757 4.757 0 0 0-2.081.52 4.24 4.24 0 0 0-1.146.73v-.938a.476.476 0 0 0-.521-.415h-5.934a.477.477 0 0 0-.521.415v14.68a.477.477 0 0 0 .521.417h5.934a.385.385 0 0 0 .313-.1c.1 0 .208-.1.208-.313v-9.37a.823.823 0 0 1 .812-.833h2.832a.223.223 0 0 0 .208-.208V6.807a.629.629 0 0 0-.625-.312zM34.982 8.578a11.028 11.028 0 0 0-2.915-1.561 10.874 10.874 0 0 0-3.748-.521 12.51 12.51 0 0 0-4.162.626 8.4 8.4 0 0 0-3.019 1.665 7.189 7.189 0 0 0-2.5 5.623 6.439 6.439 0 0 0 .729 3.227 7.393 7.393 0 0 0 1.979 2.394 9.04 9.04 0 0 0 3.011 1.456 13 13 0 0 0 7.288 0 7.577 7.577 0 0 0 3.023-1.565 8.067 8.067 0 0 0 2.083-2.5 6.83 6.83 0 0 0 .729-3.332 7.116 7.116 0 0 0-2.498-5.512zm-4.998 8.225l-.002-.001a2.227 2.227 0 0 1-1.875.936 2.038 2.038 0 0 1-1.977-1.04 4.94 4.94 0 0 1-.625-2.5 5.94 5.94 0 0 1 .1-1.352 3.68 3.68 0 0 1 .417-1.146c.223-.328.507-.61.835-.832a2.22 2.22 0 0 1 1.248-.313 1.984 1.984 0 0 1 1.875 1.042c.426.763.642 1.626.625 2.5a4.72 4.72 0 0 1-.621 2.706zm29.88.103a.82.82 0 0 1-.833-.833v-4.79h3.126a.223.223 0 0 0 .208-.208V6.703a.223.223 0 0 0-.208-.208h-3.125V3.267a.223.223 0 0 0-.208-.208L52.68 5.246a.223.223 0 0 0-.208.208v1.042h-1.77a.223.223 0 0 0-.208.208v4.268c.007.112.096.2.208.208h1.771v4.477c0 2.187.52 3.749 1.561 4.686.538.51 1.177.899 1.875 1.144a6.812 6.812 0 0 0 2.6.417c.73.024 1.461-.01 2.186-.1a20.073 20.073 0 0 0 1.561-.313c.21-.1.313-.208.313-.312v-4.17h-.1zM10.828 6.392a9.2 9.2 0 0 0-1.771.208c-.415.1-.936.312-1.248.417a3.768 3.768 0 0 0-.938.519v-.414a.475.475 0 0 0-.519-.417H.521A.476.476 0 0 0 0 7.122v3.54a.9.9 0 0 1 .833.833v5.309a.82.82 0 0 1-.833.833v3.852c.03.258.263.443.521.417h5.936a.475.475 0 0 0 .519-.417v-8.955a1.765 1.765 0 0 1 1.859-1.666h.016a1.723 1.723 0 0 1 1.769 1.562v9.057a.477.477 0 0 0 .521.417h5.83c.258.026.49-.16.521-.417v-8.64a6.785 6.785 0 0 0-1.771-5 8.516 8.516 0 0 0-4.893-1.455z" fill="#111827"/></svg>