<svg fill="none" height="1354" width="2500" xmlns="http://www.w3.org/2000/svg" viewBox="0 0.286 96 51.428"><path clip-rule="evenodd" d="M50.913 11.054c-.247 0-.495 0-.743.013L49.87.286h2.125l-.313 10.78c-.13 0-.257-.003-.384-.006s-.255-.006-.385-.006zm-.371 29.886c.124.003.247.006.371.006.26 0 .508 0 .756-.013l.313 10.781h-2.125l.313-10.78c.124 0 .248.002.371.006zm-14.56-15.318c.003-.127.006-.254.006-.385l-10.78-.313v2.125l10.78-.312c0-.115-.003-.234-.006-.353v-.006c-.003-.123-.007-.247-.007-.372 0-.13.004-.257.007-.384zm29.889.756c.003-.124.006-.248.006-.371 0-.248 0-.509-.013-.757l10.78-.313v2.125l-10.78-.313c0-.123.003-.247.006-.371zM48.318 11.275l.378-.058.378-.059L47.511.494 45.413.86l2.176 10.56.11-.024c.208-.044.41-.086.62-.12zm4.458 29.554c.235-.026.483-.065.73-.104.26-.04.509-.092.756-.157l2.177 10.56-2.099.365zM36.152 28.223l-.059-.378-10.662 1.564.365 2.099 10.558-2.177a12.105 12.105 0 0 1-.144-.73l-.058-.378zm29.503-4.81a14.26 14.26 0 0 1-.049-.248 7.56 7.56 0 0 0-.107-.496l10.558-2.177.365 2.086-10.662 1.564a16.407 16.407 0 0 0-.105-.73zm-19.852-11.46c.235-.091.483-.17.73-.247L43.131 1.472l-1.994.73 3.976 10.025c.221-.104.456-.196.69-.274zm9.529 28.328c.234-.065.469-.143.703-.234.235-.079.47-.17.717-.287l3.976 10.025-1.994.73zm-18.444-9.164c-.091-.235-.17-.483-.247-.73l-10.233 3.39.73 1.994 10.024-3.976a5.25 5.25 0 0 1-.274-.678zM65.212 21.6a7.445 7.445 0 0 0-.234-.704c-.079-.248-.183-.482-.287-.717l10.023-3.976.73 1.995zm-21.768-8.539c.222-.13.444-.247.678-.365L39 3.206l-1.851 1.056 5.657 9.177c.208-.13.417-.26.638-.378zm14.3 26.243c.221-.105.43-.222.651-.352s.443-.261.652-.404l5.657 9.19-1.838 1.056zm-19.76-5.815a11.22 11.22 0 0 1-.366-.678l-9.489 5.124 1.056 1.838 9.176-5.658a15.89 15.89 0 0 0-.378-.626zm26.25-14.3a7.968 7.968 0 0 0-.351-.652c-.13-.222-.261-.444-.404-.652l9.176-5.658 1.069 1.838zm-22.927-4.642c.195-.169.39-.325.6-.482l-6.687-8.46-1.63 1.368 7.17 8.057a9.93 9.93 0 0 1 .257-.227c.097-.083.195-.168.29-.256zm18.639 23.388l.586-.47c.196-.169.391-.339.574-.495l7.169 8.057-1.63 1.368zm-20.464-2.32c-.17-.196-.326-.392-.483-.6l-8.459 6.687 1.369 1.63 8.055-7.17-.018-.02a9.94 9.94 0 0 1-.464-.528zm22.901-19.216a6.962 6.962 0 0 0-.508-.574l8.055-7.17 1.369 1.63-8.46 6.7c-.142-.195-.298-.39-.454-.584V16.4h-.001v-.001zm-22.914 0c.17-.196.339-.391.508-.574l-8.055-7.17-1.369 1.63 8.46 6.687c.143-.195.3-.39.456-.573zm22.406 19.776c.17-.183.339-.365.495-.56a9.26 9.26 0 0 0 .47-.587l8.459 6.687-1.369 1.63-8.055-7.17zm-20.542 1.29c-.196-.169-.391-.339-.574-.508l-7.169 8.056 1.63 1.37 6.686-8.461a9.763 9.763 0 0 1-.573-.457zm19.773-22.422c-.182-.17-.365-.34-.56-.496l-.587-.469 6.687-8.46 1.63 1.368zm-23.123 3.494c.13-.222.26-.444.404-.652l-9.19-5.658-1.056 1.838 9.49 5.123a6.29 6.29 0 0 1 .352-.651zm25.82 15.066l.067-.114c.13-.221.247-.455.351-.664l9.49 5.123-1.056 1.838-9.176-5.658c.118-.173.22-.345.324-.525zm-20.332 5.349c-.222-.13-.444-.261-.652-.405l-5.657 9.191L39 48.808l5.122-9.491c-.221-.118-.443-.235-.651-.365zm15.27-25.708c-.108-.065-.216-.13-.32-.196l-.339-.182a35.572 35.572 0 0 0-.339-.183l5.136-9.477 1.838 1.056-5.657 9.177c-.104-.065-.212-.13-.32-.195zm-21.866 7.652c.046-.117.091-.238.137-.358.046-.12.091-.242.137-.359l-10.024-3.976-.73 1.995L36.627 21.6c.092-.235.17-.47.248-.704zm27.829 10.912c.091-.222.182-.457.274-.691a11.774 11.774 0 0 0 .247-.717l10.233 3.39-.73 1.994zM45.83 40.047a41.995 41.995 0 0 1-.717-.274l-3.976 10.025 1.994.73 3.402-10.234c-.234-.078-.469-.156-.703-.247zm10.923-27.82a38.428 38.428 0 0 0-.691-.274 16.69 16.69 0 0 0-.439-.152l-.278-.095 3.389-10.234 1.994.73zM36.21 23.412c.04-.248.092-.508.157-.743l-10.558-2.177-.365 2.086 10.662 1.564.004-.037c.025-.223.051-.458.1-.693zm29.302 5.919c.052-.235.104-.483.143-.73l.118-.743 10.662 1.564-.365 2.086zm-17.91 11.237l-2.176 10.56 2.098.365 1.565-10.664a6.548 6.548 0 0 1-.73-.118 4.829 4.829 0 0 1-.756-.143zM56.44.86l-2.177 10.56a6.923 6.923 0 0 0-.717-.13 7.603 7.603 0 0 0-.756-.118L54.355.494zM16.033 23.1c0 2.23.026 4.459.065 6.662l-.065.026a344.213 344.213 0 0 0-4.34-5.958L4.77 14.521H0v23.075h4.875v-8.578c0-2.23-.026-4.459-.065-6.662l.065-.026a343.846 343.846 0 0 0 4.34 5.958l6.922 9.308h4.784V14.52h-4.888zm72.2.338c.466.137.964.284 1.484.458C93.197 25.042 96 26.67 96 30.752c0 4.497-3.415 7.209-8.381 7.209-2.294 0-5.07-.574-7.17-1.63v-5.097c2.49 1.59 5.423 2.294 7.235 2.294 1.85 0 3.22-.73 3.22-2.45 0-1.775-1.5-2.211-3.7-2.852-.452-.132-.933-.272-1.436-.434-3.194-1.056-6.061-2.62-6.061-6.635 0-4.315 3.245-6.988 8.094-6.988 2.255 0 5.032.574 7.039 1.656v5.006c-2.45-1.525-5.292-2.23-7.078-2.23-1.72 0-2.959.64-2.959 2.165 0 1.663 1.411 2.078 3.43 2.671z" fill="#000" fill-rule="evenodd"/></svg>