<svg height="1000mm" viewBox="-0.002 -0.002 1000.0039999999999 1000.0039999999999" width="1000mm" xmlns="http://www.w3.org/2000/svg"><linearGradient id="a" gradientTransform="matrix(-1 0 0 1 267.373 0)" gradientUnits="userSpaceOnUse" x1="125.082" x2="143.813" y1="225.692" y2="206.961"><stop offset="0" stop-color="#4d4d4d"/><stop offset=".5" stop-color="#fff"/><stop offset="1" stop-color="#4d4d4d"/></linearGradient><linearGradient id="b" gradientUnits="userSpaceOnUse" x1="128.576" x2="140.881" y1="217.087" y2="217.115"><stop offset="0" stop-color="#b3b3b3"/><stop offset=".5" stop-color="#4d4d4d"/><stop offset="1" stop-color="#fff"/></linearGradient><path d="M500.027 0C223.921-.002-.002 223.867 0 499.973-.002 776.079 223.922 1000.002 500.027 1000c276.1-.006 499.975-223.926 499.973-500.027C1000.002 223.872 776.128.005 500.027 0zm0 111.123c214.808.002 388.848 174.042 388.85 388.85-.002 214.808-174.042 388.848-388.85 388.85-214.813.005-388.902-174.036-388.904-388.85.002-214.814 174.092-388.856 388.904-388.85z" fill="gray" fill-rule="evenodd" stroke-width=".285"/><path d="M308.23 286.233v427.534h111.123V555.561h161.24v158.206h111.123V286.233H580.593v158.205h-161.24V286.233z" fill="gray" stroke-width=".16"/><path d="M133.687 199.364c-9.786 0-17.724 7.936-17.724 17.722 0 9.786 7.938 17.725 17.724 17.725 9.786 0 17.723-7.939 17.723-17.725 0-9.785-7.937-17.722-17.723-17.722zm0 3.404c7.911 0 14.319 6.408 14.319 14.318 0 7.911-6.408 14.319-14.319 14.319-7.91 0-14.32-6.408-14.32-14.319 0-7.91 6.41-14.318 14.32-14.318z" fill="url(#a)" fill-rule="evenodd" stroke-width=".285" transform="translate(-3208.484 -5522.024) scale(27.74015)"/><path d="M127.074 209.682h3.404v5.703h6.415v-5.703h3.404v14.81h-3.404v-5.702h-6.415v5.703h-3.404z" fill="url(#b)" stroke-width=".16" transform="translate(-3208.484 -5522.024) scale(27.74015)"/></svg>