<svg height="3443.724" viewBox="0 0 999.9999999999999 911.152" width="1000mm" xmlns="http://www.w3.org/2000/svg"><path d="M0 707.07h991.757v204.082H0z" fill="#312783"/><path d="M308.834 745.305c-2.62.004-5.148.12-7.676.12H188.387v130.749h31.637V772.029h38.472v104.145h31.637V772.03h15.584c6.076 0 14.82.603 19.41 5.153 4.755 4.478 5.15 13.043 5.15 19.056v79.935h31.757V796.24c0-5.401-.231-10.267-.695-14.501-.696-7.057-2.088-13.402-6.239-19.416-3.571-5.336-8.558-9.64-14.262-12.463-2.76-1.345-5.566-2.32-8.511-2.876-7.398-1.484-15.608-1.693-23.489-1.67zm178.251.111l-39.235.008c-8.232 0-15.607.696-22.17 2.157-6.702 1.53-12.663 3.882-17.625 6.95-9.578 5.708-16.675 13.551-21.452 23.49-4.708 9.756-7.073 21.43-7.073 35.114 0 11.166 1.391 21.013 4.545 29.481 3.177 8.593 8.001 15.687 14.263 21.331v.12c4.916 4.481 10.807 7.802 17.254 9.588 8.163 2.226 17.184 2.516 25.526 2.516h45.9v-26.605H447.83c-5.821 0-12.338-.078-17.973-1.67-1.856-.556-3.525-1.299-5.149-2.157-1.623-.927-2.922-2.017-4.313-3.355a25.248 25.248 0 0 1-5.636-9.829c-1.16-3.008-1.623-6.324-1.855-10.067h74.181v-26.605h-73.462c.696-2.823 1.392-5.459 2.644-7.79 1.391-3.251 3.316-5.993 5.635-8.15 2.946-2.945 6.68-5 10.668-6.112 6.007-1.647 12.686-1.809 18.924-1.809h35.591zm84.91 0l-66.02.009v3.595c0 13.436-.058 26.83-.119 40.267-.062 27.734-.114 55.556.118 83.29v3.595h32l-.121-3.835c-.06-.557-.119-6.125-.119-13.182-.062-10.615 0-24.594 0-31.16h11.156c9.624.062 19.294.062 28.882 0l17.022 45.9.927 2.273h32.118l-1.855-4.793-17.37-48.177c.927-.418 1.623-.951 2.643-1.438 2.644-1.716 5.102-3.715 7.19-6.231 2.087-2.454 3.896-5.318 5.52-8.51 1.39-3.067 2.666-6.33 3.362-9.828.695-3.497 1.16-7.159 1.16-11.025 0-5.215-.696-10.025-2.088-14.38-1.391-4.416-3.41-8.368-6.238-11.865-2.76-3.435-6.192-6.185-10.181-8.388s-8.627-3.82-13.66-4.794c-2.319-.417-5.357-.765-9.462-.95-3.92-.233-8.905-.372-14.865-.372zm190.399.003l-.075.006c-4.151.12-8.163.394-11.734.835-4.847.672-9.137 1.762-12.825 3.117-3.803 1.275-7.305 3.119-10.668 5.392-3.316 2.272-6.517 4.958-9.462 8.149h-.12c-5.705 6.32-10.065 13.585-12.941 22.052-2.853 8.347-4.198 17.732-4.198 28.163 0 10.863 1.856 21.578 6.239 31.64 3.13 7.24 7.003 13.192 11.734 17.856h.121c4.8 4.724 10.46 8.096 16.906 10.067 3.804 1.23 8.256 2.087 13.544 2.637 5.218.557 11.132.835 17.625.835h42.903v-26.605H766.54c-7.606 0-18.553-.835-24.327-6.591-7.885-7.915-9.23-21.508-9.23-31.998 0-6.505.463-12.229 1.623-17.138 1.16-4.664 2.83-8.616 4.917-11.745 2.388-3.434 5.589-6.138 9.578-7.669 5.333-2.087 11.665-2.397 17.37-2.397h42.903v-26.606h-42.783c-1.391 0-2.806-.04-4.197 0zm-717.936.006v26.605h61.84c10.561 0 16.58.712 19.957 3.795 3.377 3.084 4.114 8.539 4.114 18.024H90.102c-15.514 0-26.583 1.995-33.077 6.111-2.69 1.647-5.241 3.745-7.305 6.231-2.087 2.496-4.012 5.228-5.38 8.389-1.392 3.068-2.667 6.39-3.363 9.947-.696 3.5-1.16 7.104-1.16 10.908 0 5.278.696 10.022 2.088 14.38 1.391 4.418 3.409 8.306 6.238 11.743a33.621 33.621 0 0 0 10.18 8.63c3.92 2.204 8.489 3.7 13.545 4.674h.12c2.32.417 5.427.904 9.462 1.09 3.92.231 8.905.231 14.866.231h66.034V794.69c0-4.91-.232-9.144-.464-12.704-.232-3.68-.696-6.948-1.392-9.587-.463-2.762-1.391-5.22-2.643-7.551a33.049 33.049 0 0 0-4.198-6.591c-1.855-2.393-4.313-4.467-6.957-6.111-2.644-1.647-5.612-2.98-8.86-3.954-3.13-.928-6.863-1.67-11.27-2.157-4.406-.418-9.462-.603-14.981-.603zm604.73 0v130.749h31.758v-130.75zm179.645 0v26.605h61.84c4.73 0 16.767-.03 20.5 3.836 3.27 3.437 3.595 13.318 3.711 17.736h-40.387c-15.469 0-26.559 1.995-33.075 6.111h-.12c-2.714 1.647-5.219 3.836-7.306 6.352-2.087 2.514-4.012 5.197-5.403 8.388-3.038 6.443-4.43 13.674-4.43 20.854 0 5.278.696 10.144 2.087 14.501 2.69 8.713 8.372 15.775 16.42 20.253 3.965 2.203 8.372 3.817 13.427 4.794h.12c7.7 1.53 16.513 1.322 24.328 1.322h66.034v-81.734c0-7.3-.176-14.99-1.855-22.17-.696-2.762-1.391-5.22-2.644-7.552-1.16-2.393-2.69-4.62-4.313-6.59-1.856-2.394-4.198-4.467-6.818-6.111-2.644-1.647-5.613-2.98-8.86-3.954-8.278-2.445-17.671-2.637-26.247-2.637zm-290.86 26.605h37.512c4.174 0 7.676.348 10.552.95 2.574.557 4.592 1.346 5.983 2.396h.12c1.392.928 2.32 2.359 2.992 4.075.696 1.902 1.16 4.307 1.16 7.192 0 3.497-.464 6.352-1.623 8.509-.928 1.97-2.459 3.337-4.546 4.195-1.391.626-3.316 1.136-5.635 1.437-2.435.371-5.357.603-8.743.603H538zM130.5 820.327v29.242H92.988c-4.174 0-7.676-.348-10.552-.951-2.644-.627-4.731-1.345-6.122-2.396v-.12c-1.392-.928-2.088-2.25-2.876-3.954-.696-1.902-1.16-4.188-1.16-7.071 0-3.497.464-6.473 1.624-8.63.927-1.924 2.388-3.267 4.429-4.195 1.391-.626 3.409-1.136 5.751-1.437 2.459-.371 5.38-.488 8.743-.488zm746.75 0h37.63v29.242h-37.51c-4.174 0-7.676-.348-10.552-.951-2.574-.627-4.591-1.345-5.983-2.396v-.12c-1.391-.928-2.319-2.25-2.991-3.954-.696-1.902-1.16-4.188-1.16-7.071 0-3.497.464-6.473 1.623-8.63.928-1.97 2.459-3.267 4.546-4.195 1.391-.626 3.316-1.136 5.635-1.437 2.435-.371 5.357-.488 8.743-.488z" fill="#fff"/><path d="M261.134 0v190.79H.717v195.105H51.29v63.157H.717v195.585h465.717l-.121-515.198h-69.388v70.827l-71.426.12V69.876h361.447v130.51l-74.184.603v-70.84h-.12v-.718h-63.156v515.206h286.328c47.739 0 97.812-21.952 129.19-62.798 22.17-28.857 34.3-59.54 34.996-91.2-.164-29.624-10.614-62.807-33.905-82.692 4.962-7.73 9.196-15.222 11.27-23.73 6.23-25.541 8.984-53.279 2.761-78.822-5.447-22.359-18.338-43.182-33.881-60.152-15.557-16.984-35.923-29.77-57.001-39.052-20.861-9.186-44.302-14.539-66.598-15.52h-71.305V0zM616.35 256.225h198.822c69.093 0 114.46 47.237 101.266 105.222-2.83 12.516-11.387 26.126-18.46 33.796-.696.788-13.335 13.643-14.379 14.501-.062.061 12.361 9.636 16.048 12.704 7.236 6.136 16.374 15.016 23.37 26.246 13.938 22.212 20.552 54.053-9.717 93.478-17.782 23.161-47.72 36.671-77.419 36.671H615.85v-63.277h58.242V319.503h-57.764zm-550.079.12h128.231v129.55h65.914v-129.55h136.382v63.277h-58.604v196.063h58.604v63.277H260.416v-129.91h-65.914v129.91H66.272v-63.277h50.573V319.622H66.27zm684.784 63.157v66.273h48.897c27.175 0 40.03-15.54 39.906-32.477-.062-17.243-13.59-33.796-40.027-33.796zm0 129.43v66.633h53.33c27.245 0 39.91-15.846 39.787-32.597-.123-17.303-13.636-34.035-40.146-34.035z" fill="#312783"/><path d="M506.454 358.69c-62.342 0-112.77 50.552-112.77 112.893 0 62.219 50.428 112.773 112.77 112.773 62.343 0 112.892-50.554 112.892-112.773 0-62.341-50.55-112.892-112.892-112.892z" fill="#009640"/><path d="M457.32 399.917c-14.773.37-26.726 12.525-26.726 27.444 0 15.093 12.338 27.324 27.444 27.324 15.167 0 27.324-12.228 27.324-27.324 0-15.156-12.175-27.444-27.324-27.444-.231 0-.463-.006-.695 0z" fill="#fff"/><path d="M457.32 399.917c-14.773.371-26.726 12.525-26.726 27.444 0 15.092 12.338 27.324 27.445 27.324 15.167 0 27.323-12.229 27.323-27.324 0-15.156-12.175-27.444-27.323-27.444-.232 0-.464-.006-.696 0z" fill="none" stroke="#9d9d9d" stroke-width="6.49319479"/></svg>