<svg height="200pt" viewBox="15.5 84.5 172.2 31" width="200pt" xmlns="http://www.w3.org/2000/svg"><path d="M21.5 86.1c-5.2 3.1-6 4.9-6 14 0 9.8 1.1 12 7.3 14 4.3 1.4 15.6.6 17.9-1.2 5.7-4.8 5.7-21-.1-25.8-2.2-1.9-16.4-2.6-19.1-1zm9.7 6.4C32.5 94 34.4 95 36 95c3.3 0 5 1.7 5 4.8 0 2.9-3.4 8.8-5.6 9.6-2.4.9-6.3-.4-7.5-2.6-.7-1.2-1.7-1.7-2.8-1.3-1 .3-2.9-.3-4.3-1.5-2.8-2.2-2.8-4.3 0-9 3.4-5.6 7-6.4 10.4-2.5z"/><path d="M25.5 95c-.7 1.1 6.1 11 7.5 11 2.2 0 1.8-2.3-1.2-6.9-3.2-5-5-6.1-6.3-4.1zM36 99c0 .5.5 1 1.1 1 .5 0 .7-.5.4-1-.3-.6-.8-1-1.1-1-.2 0-.4.4-.4 1zM22 100c0 .5.5 1 1.1 1 .5 0 .7-.5.4-1-.3-.6-.8-1-1.1-1-.2 0-.4.4-.4 1zM112.9 89.7c-1 .2-2.3 2.7-3.4 6.4-1 3.3-2.2 5.6-2.6 5.2s-1.4-3.1-2.2-5.8c-1.2-4.2-1.8-5-4-5.3-1.5-.2-2.7-.1-2.7.3 0 1.6 6.5 19.1 7.3 19.6 1.3.9 4.7-.1 4.7-1.4 0-1.9 3.2-9.7 4-9.7.4 0 1.1 1 1.5 2.2.4 1.3.8 2.5.9 2.8.2.3.6 1.7 1 3.2.6 2.2 1.4 2.8 3.5 2.8 2.5 0 2.9-.6 5.5-8.8 1.6-4.8 3.1-9.3 3.3-10 .4-.8-.5-1.2-2.5-1.2-2.7 0-3.1.4-3.7 3.9-.3 2.2-1.2 4.7-1.9 5.6-1.1 1.6-1.4 1.3-2.9-2.4-1-2.3-1.7-4.8-1.7-5.5 0-1.6-1.8-2.4-4.1-1.9zM142.6 90c-1.1 2.4.3 3.5 4.7 3.8 2.6.2 4.7.6 4.7.9s-2.2 3.1-5 6.3c-7.2 8.3-6.9 9 3.9 9 6.7 0 9-.3 9.4-1.4.8-2.1-.2-2.6-5.5-2.6-4.2 0-6.4-1.2-4-2.2 1.7-.7 9.2-10.5 9.2-12 0-1.4-1.5-1.7-8.6-2-4.7-.2-8.7-.1-8.8.2zM169 90.1c-6.2 2.5-8.5 8.3-5.5 14.5 1.7 3.6 6.3 6.4 10.4 6.4 3.3 0 8-3.3 9.7-6.8 4.1-8.8-5.2-17.8-14.6-14.1zM52 100v10h2.5c2.4 0 2.5-.3 2.5-5.5 0-3 .4-5.5.8-5.5.5 0 2.6 2.5 4.8 5.5 3.1 4.3 4.5 5.5 6.7 5.5H72V90h-2.5c-2.1 0-2.5.5-2.6 3.2-.1 1.8-.1 4.1 0 5 .4 3-1.4 2-5.5-3.2-2.9-3.7-4.6-4.9-6.6-5H52zM75.6 96.7c.3 3.8.7 7.8 1 9.1.6 3 6.5 5.6 10.9 4.8 5.4-1 6.9-3.7 7.4-12.7l.3-7.9h-2.6c-2.4 0-2.5.2-2.8 7.1-.2 5.9-.7 7.4-2.3 8.5-1.8 1.2-2.4 1.1-4.3-.2S81 103 81 96.9V90h-5.9zM133 100v10.1l2.6-.3c2.6-.3 2.6-.3 2.7-9.8l.1-9.5-2.7-.3-2.7-.3z"/></svg>