<svg height="2500" width="2500" xmlns="http://www.w3.org/2000/svg" viewBox="0 0 300 300"><path d="M0 0h300v300H0V0z"/><path d="M241.293 136.906c5.422 3.174 8.697 7.065 10.707 13.094.085 2.441.116 4.853.098 7.293l-.005 2.14a2131.51 2131.51 0 0 1-.03 6.755A4407.216 4407.216 0 0 1 252 182l-8-.001v-13l-5 2c-5.517.714-11.17 1.105-16-2-4.02-3.489-6.462-7.795-7.344-13.047-.23-4.947.905-8.704 3.344-12.953 6.1-6.404 13.575-9.54 22.293-6.094z" fill="#f3f3f3"/><path d="M67.203 136.738C72.97 139.333 76.555 143.14 79 149c.227 2.565.227 2.565.195 5.422l-.02 3.105-.05 3.223-.027 3.27c-.024 2.66-.057 5.32-.098 7.98h-8l-.012-1.94a664.699 664.699 0 0 0-.176-8.748l-.017-3.052c-.179-6.133-.179-6.133-3.096-11.428-3.114-2.122-3.114-2.122-6.699-2.457l-1.938-.04c-3.54 1.14-4.872 2.65-7.062 5.665-.748 3.768-.79 7.48-.813 11.312l-.076 3.112c-.058 2.526-.095 5.05-.111 7.576h-8a668.13 668.13 0 0 1-.25-10.5l-.102-2.977C42.563 152.11 43.22 147.3 47 142c5.749-5.891 12.384-7.882 20.203-5.262z" fill="#f1f1f1"/><path d="M124 136h7l.044 1.757a946.5 946.5 0 0 0 .268 7.93l.069 2.764c.197 4.92.346 8.608 3.619 12.549 3.509 2.34 4.87 2.413 9 2 3.712-1.765 3.712-1.765 6-5 .152-1.666.25-3.337.316-5.008l.127-2.988.12-3.129.13-3.152c.107-2.574.209-5.149.307-7.723h8c.117 3.5.188 6.999.25 10.5l.102 2.977c.085 6.39-.614 11.22-4.352 16.523-5.336 5.075-9.94 5.35-17.05 5.281-5.282-.503-7.837-3.048-11.262-6.844-2.542-3.67-2.81-6.409-2.786-10.761l.01-3.115.025-3.249.014-3.283c.012-2.676.028-5.353.049-8.029zM188.688 137.063c4.541 2.656 7.946 6.204 10.312 10.937.085 1.813.107 3.63.098 5.445l-.01 3.262-.025 3.418-.014 3.441A2714.83 2714.83 0 0 1 199 172h-7l-.028-1.848c-.054-2.78-.138-5.56-.222-8.34l-.043-2.908c-.153-4.435-.26-7.181-2.629-11.017-3.282-2.98-5.666-3.22-10.105-3.18-2.217.166-2.217.166-4.41 2.168-2.326 3.163-2.716 5.037-2.88 8.914l-.126 2.852-.12 2.984-.13 3.008c-.107 2.455-.209 4.911-.307 7.367h-7a832.928 832.928 0 0 1-.25-11.625l-.102-3.316c-.077-6.368 0-10.263 4.352-15.059 6.354-6.4 12.108-7.41 20.688-4.938z" fill="#f7f7f7"/><path d="M84 136c3.164-.581 5.855-.751 9 0 2.93 2.627 5.077 5.574 7 9v2c3.303-3.129 3.303-3.129 6.129-6.668 1.121-1.644 1.121-1.644 3.871-4.332 3.065-.501 5.925-.362 9 0-3.804 5.827-7.76 11.482-12 17 1.935 4.4 4.96 7.996 7.898 11.754C118 168.792 118 168.792 118 171c-3.193.652-5.833.852-9 0-2.913-3.008-4.973-6.35-7-10-2.58 2.509-4.842 4.746-6.75 7.813-2.667 2.592-3.41 2.5-7 2.5-1.418-.08-2.836-.177-4.25-.313.894-1.355 1.79-2.71 2.688-4.063.54-.82 1.082-1.64 1.64-2.484 1.469-2.155 3.014-4.204 4.61-6.266 2.315-2.838 2.315-2.838 1.834-5.173-.802-2.092-1.726-3.633-3.057-5.432l-1.358-1.861-1.42-1.909C84 137.11 84 137.11 84 136z" fill="#f6f6f6"/><path d="M235.844 143.496c3.418.799 5.053 2.81 7.156 5.504l1 1c.383 3.256.676 5.862-1.047 8.762-1.79 2.175-3.413 3.968-5.953 5.238-4.181.394-6.31.45-9.875-1.875-2.844-2.844-3.329-4.514-3.5-8.437.063-3.557.331-4.62 2.313-7.75 3.568-2.258 5.75-2.657 9.906-2.442z" fill="#080808"/><path d="M204 136h7v35h-7v-35z" fill="#fefefe"/><path d="M207.5 125.875C210 126 210 126 211 127c.125 2.5.125 2.5 0 5-1 1-1 1-3.5 1.125C205 133 205 133 204 132c-.125-2.5-.125-2.5 0-5 1-1 1-1 3.5-1.125z" fill="#f1f1f1"/></svg>