<svg height="979pt" viewBox=".5 46 948.4 894.7" width="988pt" xmlns="http://www.w3.org/2000/svg"><path d="m.5 489.5c0 269.5.1 379.6.2 244.7.2-135 .2-355.5 0-490-.1-134.6-.2-24.2-.2 245.3zm458.6-440.4c-19.9 1.4-44.1 5.4-67.9 11.1-8.9 2.1-12.9 3.4-12 4s.6.7-.8.3c-2-.5-18.3 4.5-29.9 9.2-2.7 1.2-6.5 2.7-8.4 3.4-3.1 1.1-3.2 1.3-1.5 2.6 2.1 1.6 1.1 1.8-1.4.2-1.3-.8-3.6-.2-10.7 2.9-20.5 9-39.9 19.8-38.8 21.5.3.6.1.7-.6.3-1.2-.8-3 .2-17 9.2-5.6 3.6-8 5.6-7.2 6.1 1 .6.9 1-.4 1.4-.9.4-1.3.3-1-.3s.2-1-.4-1c-.5 0-1.3.5-1.6 1-.4.6-2.5 2.3-4.8 3.7-4.7 2.9-26 20-32.3 26-2.3 2.1-6.9 6.4-10.3 9.6-3.7 3.4-5.9 6.2-5.5 6.9.4.6.3.8-.3.5-2.5-1.6-40.4 42.7-38.8 45.3.3.5.1 1.8-.5 2.7-.9 1.5-1 1.4-.4-.7.5-2.2.4-2.3-.9-1-6.6 6.6-34.5 53.9-33.1 56.1.4.7.3.9-.3.6-1.4-.8-8.7 14.8-7.7 16.5.4.7.3 1-.1.5-1.1-1-6.5 11.2-5.7 13.2.3.9.1 1.3-.3.9-1.8-1.7-16.2 42.7-19.6 60.7-.6 2.7-1.4 7-1.8 9.5-11.1 59.2-9.1 121.3 5.5 177.7 3.2 12.3 10.1 33.1 16 48 4.1 10.4 5 12 6.3 11 1.2-1 1.3-.9.3.9-.6 1.1-.7 2.6-.3 3.3.7 1.1 1 1.1 1.5 0 .3-.8.4-.5.1.7-1.1 4.4 28.9 58.5 31.6 56.9.5-.3.7 0 .4.7-.8 2 12.3 19.4 14.3 19 1.2-.2 1.4 0 .4.6-.9.6-.3 2.1 2.5 5.8 6.6 8.8 26.9 30.8 38.5 41.9 13.5 12.9 31.6 28 32.5 27.1.4-.3-.2-1.2-1.2-2-1.8-1.3-1.7-1.4.8-1.4 3 0 3.1.2 1.7 2.7-.8 1.6.4 2.8 7.7 8.2 4.7 3.5 9 6.3 9.5 6.1.4-.1.8.3.8.9s.7.9 1.5.5c.8-.3 1.4-.1 1.2.5-.2 1.1 6.5 5.6 20.3 13.6 4.8 2.8 8.1 4.1 9.5 3.7 1.5-.4 1.6-.3.6.4-1.9 1.3 10.8 8.4 14.1 7.9 1.3-.2 1.7-.2 1 0-2.1.7.8 2.3 13.3 7.8 29.4 12.8 54.5 20.8 83 26.5 51.8 10.3 109.2 10.3 158.5-.1 33.2-7 49.5-12.2 81-25.6 16.1-6.8 19.2-8.5 17.8-9.6-.9-.6-.7-.7.6-.3 1.7.6 5.6-1.1 16.4-7.2 3.3-1.9 4-2.7 3-3.4-.9-.7-.8-.8.5-.4 1.9.6 7.1-2 15.6-7.7 3.3-2.3 4-3.2 3-3.9s-.8-.8.7-.3c2.3.6 6.1-1.8 21.9-13.6 13-9.7 23-18.4 22.7-19.8-.1-.7.3-.9.9-.6 1.6 1.1 35.3-32 34.3-33.7-.3-.5-.1-.7.4-.6 1.4.4 7.3-6.5 6.7-7.9-.2-.7.1-1 .8-.8.7.3 4.4-3.7 8.4-8.8 5.4-7.1 7.1-9.9 6.9-12-.2-1.4.1-2.4.6-2.1s.7 1.3.3 2.1c-.4 1.3-.3 1.4 1 .3.9-.7 1.3-1.5 1-1.8s.4-1.2 1.5-1.9c1.2-.9 1.9-2.2 1.6-3.1-.3-1-.1-2.4.5-3.2.8-1.1.9-.9.3 1-.3 1.4-.4 2.2 0 1.9 1.4-1.3 11.6-17.3 12.1-19 .4-1.1 1-1.9 1.4-1.9 1.3 0 5.2-8 4.5-9.2-.4-.6-.3-.8.3-.5 1.3.8 6.6-8.9 5.7-10.5-.4-.6-.3-.8.3-.5 1.4.9 8.4-12.9 7.7-15.1-.4-1.1-.3-1.3.3-.5 1.2 1.7 11.2-21.2 18-41.1 13.3-39.3 19.3-70.7 21.5-111 1.7-34-1-69.5-7.8-102.6-1.5-6.9-2.9-12.7-3.3-13-.3-.3-.7-1.8-.8-3.4-.2-2.7-1.8-8.2-7.9-27.6-4.8-15.1-10.7-29.2-11.6-27.8-.6.9-.7.6-.3-.9s-1.7-7-7-17.9c-4.1-8.7-7.9-16.1-8.3-16.4s-1.6-2.3-2.6-4.5c-1.8-3.7-10.4-18.4-11.4-19.5-.3-.3-.7.1-.9.7-.3.7-.9 1.3-1.5 1.3-.7 0-.6-.5.1-1.4.9-1.1.9-2 .2-3.4-2.9-5.5-18.6-27.8-21.9-31.1-.7-.8-2-2.4-2.9-3.7-.8-1.3-1.9-2.1-2.4-1.8s-.6-.2-.3-1c.5-1.3 0-1.5-2.5-1.2-1.7.2-2.8-.1-2.5-.6s0-1.7-.7-2.6c-.8-.9-.1-.6 1.4.7 1.5 1.4 2.7 2 2.7 1.4 0-1.5-4.6-5.4-5.4-4.6-.4.4-.4-.1 0-1.1.5-1.3.4-1.7-.3-1.3-1.5 1-4.4-.3-3.7-1.5.4-.6 1-.5 1.6.3.5.8.8.9.6.2-.6-2.3-22.1-24.4-23.3-23.9-.6.2-1.8 0-2.6-.6-1.1-.8-1-.9.4-.4 2.3.7 2.2-.6-.3-2.7-1.2-1-2.6-1.5-3.2-1.1s-.8.3-.4-.4c.8-1.4-14.5-15.4-16.2-14.7-.7.3-1.1.1-.8-.4.8-1.3-16.2-14.4-17.5-13.5-.7.4-.9.3-.5-.4.7-1.1-12.9-11.2-15.2-11.2-.7 0-1.1-.4-.8-.9 1-1.5-2.6-2.2-4.3-.9-1.4 1.1-1.4 1.1-.3-.3s.7-2-2.5-3.9c-8.6-5.1-10.5-6-11.5-5.4-.6.4-.8.2-.5-.4.8-1.2-6.8-5.6-23.6-13.9-6.2-3-12-5.9-13-6.4s-2.3-.7-3-.3-.9.4-.5-.1c1.6-1.7-36.5-15.6-58.7-21.5-40.6-10.7-88.6-15-132.4-11.9zm-35.4 6.5c-.3.3-1.2.4-1.9.1-.8-.3-.5-.6.6-.6 1.1-.1 1.7.2 1.3.5zm-26 6c-.3.3-1.2.4-1.9.1-.8-.3-.5-.6.6-.6 1.1-.1 1.7.2 1.3.5zm133.8 3.9c13.2 1.5 20.5 2.6 33 5.1 3.9.8 9.5 1.9 12.5 2.5 27.1 5.3 74.7 23.9 101.6 39.7 2.7 1.5 5.6 3.2 6.4 3.6 4.6 2.2 27.7 17.5 30.1 19.8.8.8 3.5 2.8 6.1 4.6 2.5 1.8 5.2 3.8 6 4.5.7.7 2.3 1.9 3.4 2.7 12.1 8.4 50.1 46.8 62.7 63.5.4.5 2.1 2.8 3.7 5s3.3 4.4 3.8 5c.9 1.2 8.2 11.9 9.7 14.3.6.9 1.4 2.1 1.8 2.6 6.1 8.2 22.9 39 29.6 54.6 1.3 3 3.2 7.3 4.2 9.4 1.1 2.2 1.9 4.4 1.9 5 0 .9 2.2 7.4 6.5 18.6 4.5 11.9 12.8 44.8 14.6 57.2.4 3.5 1 7.6 1.3 9.3 6.3 38 4.9 92.4-3.4 131.5-1.1 5.2-2.3 10.8-2.6 12.5-1 4.9-9.3 33.6-11.3 39-10.1 26.7-20.2 48.8-29.8 64.9-2.9 4.9-5.3 9.2-5.3 9.7s-.4.9-1 .9c-.5 0-1 .6-1 1.3 0 .8-1.1 2.7-2.5 4.3s-2.5 3.3-2.5 3.7c0 1-5.2 8.1-6.2 8.5-.5.2-.8 1-.8 1.8s-.4 1.4-1 1.4c-.5 0-1 .4-1 1 0 .9-.6 1.8-5.2 7.2-1 1.2-1.8 2.4-1.8 2.7s-1.3 2-2.8 3.8c-1.5 1.7-4.7 5.5-7.2 8.4-14.6 17.3-28.1 31-43 43.9-4.1 3.6-7.9 7-8.5 7.6-.5.6-2.6 2.1-4.5 3.4s-4.8 3.5-6.5 5c-1.6 1.5-7.5 5.7-13 9.4-5.5 3.6-10.4 6.9-11 7.4-2.1 1.7-19.4 12.1-26 15.6-3.9 2.1-7.7 4.2-8.5 4.7-2.1 1.2-18.8 8.9-19.4 8.9-.3 0-3 1.1-6.1 2.5-23.5 10.8-69 23.3-94.5 26-3.6.4-8.4 1.1-10.7 1.6-8.2 1.7-45.5 2.9-62.4 1.9-20.5-1.1-45-4.3-59.4-7.7-6-1.4-12.8-2.9-15-3.3-8.1-1.5-42.5-12.2-45-14-.5-.4-4.4-2-8.5-3.5-13.5-5-39.8-18.6-57.5-29.6-8.7-5.4-12.9-8.4-25.3-17.7-5.3-4-10.7-8.1-12-9s-3.6-2.8-5.1-4.2-5.2-4.5-8.1-7c-5.2-4.3-24.2-23-30.6-30.1-6.5-7.2-19.2-22.9-24.9-30.9-2.2-3-4.3-5.7-4.7-5.8-.5-.2-.8-1-.8-1.7s-.3-1.5-.7-1.7c-.9-.3-5.3-6.4-5.3-7.2 0-.2-2.3-3.9-5-8-2.8-4.2-5-7.9-5-8.4 0-.4-1.2-2.4-2.6-4.3-3.6-4.8-16.4-31.3-22.2-46-7.8-19.5-14.4-40.3-19.2-60.4-2-8.4-5.7-32.7-7.5-49-2.3-21.8-1.4-63.7 2-86 2.7-18.1 4.6-29.1 5.5-32.5.5-1.9 1.6-6.7 2.5-10.5 2.7-11.5 9.3-32.2 14.6-45.5 2.8-6.9 5.4-13.4 5.9-14.5 6.5-16.2 31-59.6 39.3-69.5.6-.8 2-2.7 2.9-4.1s2.3-3.2 3-4 2.4-3 3.8-5c2.6-3.8 8.2-10.5 16.4-19.8 5-5.7 26.5-27.1 32.7-32.6 4.9-4.4 22.8-18.7 26.9-21.5 1.9-1.4 4-2.8 4.5-3.3 3.6-2.9 12.6-8.9 19-12.7 4.2-2.5 9.3-5.6 11.3-6.9 8.2-5.3 37.8-19.8 52.2-25.4 8.4-3.3 35.2-12.2 41-13.6 28-6.7 41.5-9 73.5-12.1 12.3-1.2 52.2-.3 68 1.5zm-129.5 4.5c0 .5-.2 1-.4 1-.3 0-.8-.5-1.1-1-.3-.6-.1-1 .4-1 .6 0 1.1.4 1.1 1zm-41 3.1c0 .6-.4.7-1 .4-.5-.3-1-1.1-1-1.6 0-.6.5-.7 1-.4.6.3 1 1.1 1 1.6zm7.6 4.4c2 1.9.5 1.9-2 0-1.1-.9-1.4-1.5-.7-1.5s1.9.7 2.7 1.5zm264.4-.5c0 .5-.7.7-1.5.4-.8-.4-1.5-.8-1.5-1s.7-.4 1.5-.4 1.5.4 1.5 1zm-306 8.4c0 .3-.4.8-1 1.1-.5.3-1 .1-1-.4 0-.6.5-1.1 1-1.1.6 0 1 .2 1 .4zm332 1.6c.8.5 1.1 1 .5 1-.5 0-1.7-.5-2.5-1s-1-1-.5-1c.6 0 1.7.5 2.5 1zm-344.3 4.6c-.3.3-1.2.4-1.9.1-.8-.3-.5-.6.6-.6 1.1-.1 1.7.2 1.3.5zm-5.2 2.4c-.3.5-1.4 1-2.3.9-1.4 0-1.3-.2.3-.9 2.7-1.1 2.7-1.1 2 0zm-5.5 2c-.8.5-1.9 1-2.5 1-.5 0-.3-.5.5-1s2-1 2.5-1c.6 0 .3.5-.5 1zm-27 16c0 .5-.5 1-1.1 1-.5 0-.7-.5-.4-1 .3-.6.8-1 1.1-1 .2 0 .4.4.4 1zm-7.5 6c.3.6-.1.7-.9.4-1.8-.7-2.1-1.4-.7-1.4.6 0 1.3.4 1.6 1zm435 1c.3.5.2 1-.4 1-.5 0-1.3-.5-1.6-1-.3-.6-.2-1 .4-1 .5 0 1.3.4 1.6 1zm26.1 17.5c1.9 1.4 1.9 1.4-.2 1.5-1.2 0-2.4-.7-2.8-1.5-.7-1.9.5-1.9 3 0zm-498.6 15.5c0 .5-.8 1-1.7 1-1.5 0-1.6-.2-.3-1 1.9-1.2 2-1.2 2 0zm536.5 18.1c1.1 1.6.1 1.9-1.3.3-.7-.8-.8-1.4-.3-1.4s1.3.5 1.6 1.1zm-568.4 8.6c1.3 1.6 1.2 1.7-.3.4-1-.7-1.8-1.5-1.8-1.7 0-.8.8-.3 2.1 1.3zm7.6 1.5c-.3.7-.5.2-.5-1.2s.2-1.9.5-1.3c.2.7.2 1.9 0 2.5zm-4.5 8c-.7.7-1.2.8-1.2.2 0-1.4 1.2-2.6 1.9-1.9.2.3-.1 1.1-.7 1.7zm-25.6 13.2c0 1.4-.5 2.1-.9 1.7s-.5-1.5-.1-2.4c.9-2.4 1.2-2.1 1 .7zm10.4 2.5c0 1.2-2 2.5-2.7 1.8s.6-2.7 1.8-2.7c.5 0 .9.4.9.9zm-12.2 2.6c-.3.3-.9-.2-1.2-1.2-.6-1.4-.5-1.5.5-.6.7.7 1 1.5.7 1.8zm637.7 18.5c.3.5-.1 1-.9 1-.9 0-1.6-.5-1.6-1 0-.6.4-1 .9-1 .6 0 1.3.4 1.6 1zm11.8 15.5c-.7 2.1-1.2 1.9-1-.4 0-1.1.5-1.8.9-1.5s.5 1.1.1 1.9zm14.7 25.6c0 .5-.4.9-1 .9-.5 0-1-.7-1-1.6 0-.8.5-1.2 1-.9.6.3 1 1 1 1.6zm9.8 12.4c-.3.3-.9-.2-1.2-1.2-.6-1.4-.5-1.5.5-.6.7.7 1 1.5.7 1.8zm-717.1 3.7c-.3.8-.6.5-.6-.6-.1-1.1.2-1.7.5-1.3.3.3.4 1.2.1 1.9zm736.1 43.9c-.3.8-.7.3-1.1-1-.4-1.7-.3-2.1.5-1.3.5.5.8 1.6.6 2.3zm-766.1 45.6c-.3 1-.5.4-.5-1.2 0-1.7.2-2.4.5-1.8.2.7.2 2.1 0 3zm779.4 12.6c-1 .9-1.1.8-.5-.6.3-1 .9-1.5 1.2-1.2s0 1.1-.7 1.8zm1.6 15.9c-.3.8-.6.5-.6-.6-.1-1.1.2-1.7.5-1.3.3.3.4 1.2.1 1.9zm-8 7c-.3.7-.5.2-.5-1.2s.2-1.9.5-1.3c.2.7.2 1.9 0 2.5zm-782 5c-.3.7-.5.2-.5-1.2s.2-1.9.5-1.3c.2.7.2 1.9 0 2.5zm-1 65c-.3.7-.5.2-.5-1.2s.2-1.9.5-1.3c.2.7.2 1.9 0 2.5zm0 7c-.3.8-.6.5-.6-.6-.1-1.1.2-1.7.5-1.3.3.3.4 1.2.1 1.9zm792 16c-.3.8-.6.5-.6-.6-.1-1.1.2-1.7.5-1.3.3.3.4 1.2.1 1.9zm-783.5 34.3c.3 1.3.2 2.2-.2 2-.4-.3-1-1.6-1.2-3-.3-1.3-.2-2.2.2-2 .4.3 1 1.6 1.2 3zm6.5 26.7c-.3.8-.6.5-.6-.6-.1-1.1.2-1.7.5-1.3.3.3.4 1.2.1 1.9zm12.3 35.3c0 .5-.5.3-1-.5s-1-2-1-2.5c0-.6.5-.3 1 .5s1 1.9 1 2.5zm738.8-1c-.3.3-.9-.2-1.2-1.2-.6-1.4-.5-1.5.5-.6.7.7 1 1.5.7 1.8zm-14.1 11.7c-.3.8-.6.5-.6-.6-.1-1.1.2-1.7.5-1.3.3.3.4 1.2.1 1.9zm-712.7 13.2c0 .3-.4.8-1 1.1-.5.3-1 .1-1-.4 0-.6.5-1.1 1-1.1.6 0 1 .2 1 .4zm2.8 8.1c-.3.3-.9-.2-1.2-1.2-.6-1.4-.5-1.5.5-.6.7.7 1 1.5.7 1.8zm708.5 4c-.3.9-.8 1.4-1 1.1-.3-.3-.2-.9.2-1.5.9-1.6 1.5-1.3.8.4zm-5.3 10.9c0 .3-.4.8-1 1.1-.5.3-1 .1-1-.4 0-.6.5-1.1 1-1.1.6 0 1 .2 1 .4zm-10.6 17.5c.3.5-.1 1.1-.9 1.4-.9.4-1.2.1-.8-.9.6-1.6 1-1.7 1.7-.5zm-671.7 4.3c-.3.8-.6.5-.6-.6-.1-1.1.2-1.7.5-1.3.3.3.4 1.2.1 1.9zm666.3 3.2c0 .3-.4.8-1 1.1-.5.3-1 .1-1-.4 0-.6.5-1.1 1-1.1.6 0 1 .2 1 .4zm-654.2 10.1c-.3.3-.9-.2-1.2-1.2-.6-1.4-.5-1.5.5-.6.7.7 1 1.5.7 1.8zm-2.3.5c1 1.1 1.6 2 1.3 2s-1.3-.9-2.3-2-1.6-2-1.3-2 1.3.9 2.3 2zm632.5 10c0 .5-.2 1-.4 1-.3 0-.8-.5-1.1-1-.3-.6-.1-1 .4-1 .6 0 1.1.4 1.1 1zm-622.3 4.2c-.3.8-.6.5-.6-.6-.1-1.1.2-1.7.5-1.3.3.3.4 1.2.1 1.9zm6.9 6c.5.7.3.8-.6.3-.8-.5-1.1-.3-.8.6.3.8 1.1 1.3 1.7 1.1.7-.1.9.2.6.8-.5.8-1.3.6-2.6-.6-1.5-1.3-1.7-1.9-.7-2.6 1.6-1 1.6-1 2.4.4zm5.4-.2c0 .5-.4 1-1 1-.5 0-1-.5-1-1 0-.6.5-1 1-1 .6 0 1 .4 1 1zm597.1 18.2c-1 1.1-1.1 1-.5-.5.5-1.4.2-1.6-1.2-1.1-1.6.5-1.6.4-.4-.5 2-1.4 3.9.4 2.1 2.1zm-588.1-.2c0 .5-.2 1-.4 1-.3 0-.8-.5-1.1-1-.3-.6-.1-1 .4-1 .6 0 1.1.4 1.1 1zm581 .4c0 .2-.7.6-1.5 1-.8.3-1.5.1-1.5-.4 0-.6.7-1 1.5-1s1.5.2 1.5.4zm-574 6.6c0 .5-.5 1-1.1 1-.5 0-.7-.5-.4-1 .3-.6.8-1 1.1-1 .2 0 .4.4.4 1zm3.6 4.2c0 1-.1 1.8-.2 1.8 0 0-.8-.8-1.7-1.8-1.5-1.6-1.5-1.8.1-1.8 1 0 1.8.8 1.8 1.8zm12.1-.7c.9 2.5-.2 2.7-2.2.5-1.7-1.8-1.7-2-.1-2 .9 0 1.9.7 2.3 1.5zm-7.7 4.5c0 .5-.5 1-1.1 1-.5 0-.7-.5-.4-1 .3-.6.8-1 1.1-1 .2 0 .4.4.4 1zm1.4 2.2c-.5.7-.2.9.7.6 1-.4 1.5.1 1.5 1.3 0 2.3-.1 2.3-2 .3-1.4-1.4-1.4-3.4 0-3.4.3 0 .2.5-.2 1.2zm550.1 3.8c-.3.5-1.2 1-1.8 1-.7 0-.6-.4.3-1 1.9-1.2 2.3-1.2 1.5 0zm-542.5 3.5c.7.9.8 1.5.2 1.5-.5 0-1.2-.7-1.6-1.5-.3-.8-.4-1.5-.2-1.5s.9.7 1.6 1.5zm524.5 6.6c-.3.4-1.2.6-2 .3-.8-.4-1.3-1-1-1.5.3-.4 1.2-.6 2-.3.8.4 1.3 1 1 1.5zm-513.5 1.3c0 .2-.7.7-1.6 1-.8.3-1.2.2-.9-.4.6-1 2.5-1.4 2.5-.6zm27.6 22.8c-1 .6-2.2.6-2.6.2-.5-.5.3-1 1.8-1.1 2.2-.1 2.4 0 .8.9zm460.4 1.8c0 .5-.4 1-1 1-.5 0-1-.5-1-1 0-.6.5-1 1-1 .6 0 1 .4 1 1zm-456.3 1.7c0 .7-.4 1.3-.7 1.3-.4 0-1.2-.6-1.8-1.3-.8-1-.6-1.3.7-1.3 1 0 1.8.6 1.8 1.3zm448.1 3.1c.8.6.2.9-1.8.9s-2.6-.3-1.8-.9c.7-.4 1.5-.8 1.8-.8s1.1.4 1.8.8zm-16.8 3.6c0 1.1-1.9 1.5-2.5.6-.3-.5.1-1 .9-1 .9 0 1.6.2 1.6.4zm-381.5 15.4c-.3.3-1.1 0-1.8-.7-.9-1-.8-1.1.6-.5 1 .3 1.5.9 1.2 1.2zm369.5-.3c0 .2-.6.5-1.3.8-.8.3-1.4-.1-1.4-.8s.6-1.1 1.4-.8c.7.3 1.3.6 1.3.8zm-379.5 3.3c-.3.3-1.1 0-1.8-.7-.9-1-.8-1.1.6-.5 1 .3 1.5.9 1.2 1.2zm325.5 17.2c0 .5-.5 1-1.1 1-.5 0-.7-.5-.4-1 .3-.6.8-1 1.1-1 .2 0 .4.4.4 1zm-20.5 8.9c-.3.6.3 1.4 1.2 2 1.6.9 1.6 1-.4.8-1.2 0-1.9-.5-1.7-.9.3-.4-.1-.8-.8-.8-.9 0-.9-.3.2-1 1.9-1.2 2.3-1.2 1.5-.1zm-192 3.1c-.3.5-1.2 1-1.8 1-.7 0-.6-.4.3-1 1.9-1.2 2.3-1.2 1.5 0zm31.2 14.6c-.3.3-1.2.4-1.9.1-.8-.3-.5-.6.6-.6 1.1-.1 1.7.2 1.3.5zm88 0c-.3.3-1.2.4-1.9.1-.8-.3-.5-.6.6-.6 1.1-.1 1.7.2 1.3.5zm-21 2c-.3.3-1.2.4-1.9.1-.8-.3-.5-.6.6-.6 1.1-.1 1.7.2 1.3.5z"/><path d="m463.5 209c-14.8 1.5-35.9 6.1-47.5 10.3-3.6 1.3-7.4 2.7-8.5 3.1-9.9 3.6-19.8 7.7-21 8.6-.5.4-5.3 2.9-10.5 5.5-5.2 2.7-10.5 5.5-11.6 6.4-1.2.9-3 2.2-4 2.8-1.1.7-5 3.3-8.8 5.9-6.5 4.4-7.7 5.3-13.1 9.9-1.3 1.1-4.5 3.8-7.1 6s-8.4 7.8-12.8 12.4c-4.5 4.6-9.4 9.8-11.1 11.5-3.3 3.4-17.5 22.2-17.5 23.1 0 .3-2.2 4-5 8.1-2.7 4.2-7.4 12.8-10.5 19.2s-6 12.5-6.6 13.4c-.5 1-.9 2.5-.9 3.3s-.4 1.5-1 1.5c-.5 0-1 .7-1 1.6s-1.2 4.9-2.6 8.8c-13.2 36.2-16.6 87.9-8.3 125.6 5.9 26.6 16.1 53.7 27.1 71.9 2.1 3.4 3.8 6.4 3.8 6.6 0 .7 9.6 14.8 11.5 16.9.6.7 2.1 2.7 3.5 4.6 3.7 5.3 7.4 9.4 20.5 22.5 14.3 14.4 23.4 22 33.8 28.6 2.9 1.8 5.4 3.6 5.7 3.9 1.9 2.2 28.1 15.9 36.3 19 2.8 1.1 6.1 2.5 7.2 3 8.6 4 28.6 9.4 48 13 16.7 3 39.2 3.8 59.5 2 16.4-1.5 17.7-1.7 25.5-3.5 24.2-5.5 36.6-9.6 52.2-17.1 5.1-2.4 9.7-4.4 10.3-4.4.5 0 1-.3 1-.8 0-.4 2-1.5 4.5-2.6 4.7-1.9 26.7-16 32.1-20.5 1.7-1.4 5.2-4.4 7.9-6.6s8-7 11.7-10.6 7-6.3 7.3-6.1c.3.3.5 0 .5-.6s1-2.1 2.3-3.4c1.2-1.3 4-4.5 6.2-7.2 2.2-2.8 4.8-5.8 5.8-6.8.9-1 1.7-2.2 1.7-2.8 0-.5.9-1.5 2-2.2s2-1.8 2-2.4.9-1.9 2-2.9 2-2.4 2-3c0-.7.6-1.8 1.4-2.4 3.8-3.2 19.5-33.4 25.1-48.4 6-16.2 11.2-36.2 13.5-52.2 2-13.7 2.2-48.4.4-62-2.8-21.7-9.8-48.2-17.1-64.4-5.1-11.4-10.8-22.8-14-27.9-1.8-2.9-3.3-5.7-3.3-6.2 0-.6-.4-1-1-1-.5 0-1-.6-1-1.3 0-.6-1.9-3.8-4.3-6.9-2.3-3.1-4.9-6.6-5.7-7.8s-2.3-3.2-3.4-4.3c-1-1.2-3-3.8-4.5-5.7-1.4-1.9-3.9-4.9-5.6-6.6-1.6-1.7-3.7-4-4.6-5-3-3.5-18.3-17.3-25.4-23-7.2-5.7-25.9-18.4-27.2-18.4-.3 0-1.4-.6-2.2-1.4-2.7-2.4-19.9-10.7-31.1-15-2.5-1-5.8-2.4-7.5-3.1-1.6-.7-6.4-2.1-10.5-3.1s-7.7-2.2-8-2.5-5.7-1.5-12-2.7-14.2-2.6-17.5-3.3c-7.8-1.4-47.5-2-59-.9zm43.2 10.6c-.3.3-1.2.4-1.9.1-.8-.3-.5-.6.6-.6 1.1-.1 1.7.2 1.3.5zm-40.4 3.1c-.7.2-1.9.2-2.5 0-.7-.3-.2-.5 1.2-.5s1.9.2 1.3.5zm57.7 2.8c21.8 3.6 42.1 9.9 63.2 19.8 5.1 2.4 11.3 5.6 13.6 7.1 2.4 1.5 5 2.5 5.8 2.2.9-.4 1.2-.1.9.5-.4.6.2 1.3 1.4 1.6s2.1 1 2.1 1.5.9.7 1.9.3c1.1-.3 2.2-.1 2.6.4.3.7 0 .8-.9.5-2.9-1.1-1.6.5 2.8 3.5 2.8 1.9 5.1 2.9 6.3 2.5 1.3-.4 1.4-.3.5.3-1 .8-.5 1.6 2.2 3.6 1.9 1.5 4 2.7 4.7 2.7s.9.3.6.6c-.7.8 8.6 8.4 10.2 8.4.6 0 1 .4.9.8-.2.5 3.2 4.4 7.4 8.8 4.2 4.3 10.1 10.8 13.1 14.4 5 6.1 18.1 23.9 18.3 25 0 .3.4 1.3.9 2.3.6 1.4 1 1.5 2.3.5 1.3-1.1 1.4-1 .4.9-.9 1.7-.9 2.2.3 2.6.7.3 1.6.2 1.9-.4.2-.5.3-.4.1.3-.1.7-.8 1.2-1.4 1.1-.6-.2.3 1.9 1.9 4.6 1.7 2.6 3 5.4 3 6 0 .7.4 1 .9.7s.8 0 .8.7c-.1.6 1.2 4.1 2.8 7.6 2.7 5.9 3 6.3 3.7 4 .6-2 .7-1.8.3.8-.2 1.9.9 6.9 3 13.1 1.8 5.5 3.7 11.6 4 13.6.4 2.1 1.1 3.3 1.8 2.9.5-.3.7-.2.4.4-.4.6.4 6.6 1.8 13.4 1.3 6.8 2.9 18.4 3.5 25.7 1.1 13.3 1.1 42.3-.1 41.6-.3-.2-.9 2.2-1.2 5.4-1.2 10.9-5.5 29.8-10.1 43.3-4.2 12.6-15.1 37-16.8 37.7-.5.2-.8.8-.8 1.3 0 2.8-13.5 22-24.7 35.2-4.7 5.3-8.1 10.1-7.8 10.7.3.5 0 .8-.7.5-1.6-.6-13.1 10.8-12 12 .4.5.1.5-.6.1-1.2-.7-15.2 10-15.2 11.7 0 .5.7.4 1.5-.3 1-.9 1.5-.9 1.5-.1 0 .6-.6 1.1-1.2 1.2-.7.1-2.2.2-3.3.3-1.1 0-1.9.7-1.7 1.4.1.8-.2 1.1-.8.7s-4.8 1.8-9.3 4.8c-8.5 5.7-23.9 13.8-34.2 18-50.2 20.7-104.7 22.9-157.1 6.3-9.4-3-32.5-13.3-39.5-17.6-2.7-1.6-5.2-3-5.4-3-1.1 0-21.3-14.1-25.1-17.5-.6-.6-5-4.3-9.7-8.4-4.7-4-10-9.1-11.7-11.2-2.1-2.4-3.8-3.6-4.9-3.2-1 .3-1.2.2-.4-.4 1.6-1.1-5.1-8.5-7.1-7.7-.9.3-1.9-.4-2.6-1.8-1.1-2.2-1-2.2.4-.4.9 1.1 1.9 1.7 2.2 1.3.3-.3-1.4-3.2-3.9-6.4-11.7-15.2-22.2-33.3-29.1-50.1-2.3-5.6-4.6-9.9-5.1-9.5-.4.5-.5.2-.1-.4 1-1.7-2.5-12.4-3.7-11.6-.6.3-.7.1-.4-.4.4-.6-.4-5.4-1.8-10.8-4.6-17.5-6.6-34.1-6.5-54.5 0-25.7 3.5-48.2 11-70.7 1.6-4.7 2.7-9 2.4-9.4-.2-.4.1-.9.7-1.1.7-.2 1.2-1.8 1.3-3.5 0-1.7.4-2.9.7-2.8 1 .7 8.1-15.3 7.4-16.6-.5-.8-.4-1 .3-.5.7.4 1.7-.4 2.4-2.1.7-1.5 3-5.7 5.1-9.2 3.5-5.8 3.7-6.4 2.1-7.5-.9-.7-1.4-1.9-1.1-2.7.4-1.1.6-1 .6.2.2 3.6 3.1 2.9 5.8-1.4 1.5-2.3 4.2-6.1 6.1-8.4 1.8-2.4 3-4.8 2.6-5.4-.4-.7-.3-.9.3-.6.6.4 3.2-2.1 5.9-5.4 2.7-3.4 9.9-10.9 15.9-16.7 6.1-5.8 10.4-10.1 9.6-9.7-1 .5-1.2.4-.7-.4.4-.6 1.1-.9 1.6-.6s3.7-1.6 7.1-4.2c11.1-8.6 20.2-14.5 32.2-20.8 6.4-3.4 11.4-6.5 11-7-.5-.4-.3-.5.4-.2.6.4 5.6-1.1 11.1-3.3 5.4-2.2 10.5-4 11.1-4 .7 0 .9-.5.5-1.2s-.3-.8.4-.4c.6.4 4.9-.5 9.5-1.9s9.1-2.5 10.1-2.5c.9 0 1.4-.4 1.1-1-.3-.5 0-.7.8-.5.7.3 5.4-.1 10.3-1s12.5-1.9 16.9-2.2 8.2-.8 8.5-1.1c1-1 38.8.8 48 2.3zm36 5.5c0 .5-.2 1-.4 1-.3 0-.8-.5-1.1-1-.3-.6-.1-1 .4-1 .6 0 1.1.4 1.1 1zm-151.6 5.1c-.4.7-4.4 0-4.4-.7 0-.2 1.1-.3 2.4-.2 1.4.1 2.3.5 2 .9zm-18.4 8.4c0 .2-1 .9-2.2 1.5-2.2 1.1-2.2 1-.4-.4 2.1-1.7 2.6-1.9 2.6-1.1zm-45.6 26.1c.3.8.2 1.2-.4.9s-1-1-1-1.6c0-1.4.7-1.1 1.4.7zm-18.4 7.3c0 .5-.7 1.2-1.6 1.5-1.4.5-1.5.4-.4-.9 1.4-1.7 2-1.9 2-.6zm321.3 5.6c-.3.9-.8 1.4-1 1.1-.3-.3-.2-.9.2-1.5.9-1.6 1.5-1.3.8.4zm-314.8 1.3c-.3.3-1.1 0-1.8-.7-.9-1-.8-1.1.6-.5 1 .3 1.5.9 1.2 1.2zm321 5c-.3.3-1.1 0-1.8-.7-.9-1-.8-1.1.6-.5 1 .3 1.5.9 1.2 1.2zm-327.5 1.6c0 .2-.8 1-1.7 1.7-1.6 1.3-1.7 1.2-.4-.4s2.1-2.1 2.1-1.3zm329.1 1.3c1.3 1.6 1.2 1.7-.3.4-1-.7-1.8-1.5-1.8-1.7 0-.8.8-.3 2.1 1.3zm16.9 4.3c0 .5-.2 1-.4 1-.3 0-.8-.5-1.1-1-.3-.6-.1-1 .4-1 .6 0 1.1.4 1.1 1zm-8 .4c0 .2-.8 1-1.7 1.7-1.6 1.3-1.7 1.2-.4-.4s2.1-2.1 2.1-1.3zm-347.4 4.1c-.8.8-1.8 1.5-2.2 1.5-.3 0-.1-.7.6-1.5s1.7-1.5 2.2-1.5.3.7-.6 1.5zm351.7 6c-.3.9-.8 1.4-1 1.1-.3-.3-.2-.9.2-1.5.9-1.6 1.5-1.3.8.4zm-362.3 8.6c-.7 1.1-1.4 1.8-1.7 1.5s0-1.2.7-2.1c1.8-2.1 2.3-1.9 1 .6zm-26.3 23.1c-.3.8-.6.5-.6-.6-.1-1.1.2-1.7.5-1.3.3.3.4 1.2.1 1.9zm425.3 18.1c0 .5-.4.5-1 .2-.5-.3-1-1.4-1-2.3 0-1.5.2-1.5 1-.2.5.8 1 1.9 1 2.3zm12 19.7c0 .5-.4 1-1 1-.5 0-1-.5-1-1 0-.6.5-1 1-1 .6 0 1 .4 1 1zm-443.9 3.3c-1 .9-1.1.8-.5-.6.3-1 .9-1.5 1.2-1.2s0 1.1-.7 1.8zm436.6 8.9c-.3.8-.6.5-.6-.6-.1-1.1.2-1.7.5-1.3.3.3.4 1.2.1 1.9zm-441.5 11.8c-.7 1.9-1 2-1.5.7-.4-1-.2-1.7.3-1.7.6 0 1.1-1 1.1-2.3.1-1.3.3-1.6.6-.6.2.8 0 2.6-.5 3.9zm-1.5 8.7c-.3 1-.5.4-.5-1.2 0-1.7.2-2.4.5-1.8.2.7.2 2.1 0 3zm-2 7c-.3 1-.5.4-.5-1.2 0-1.7.2-2.4.5-1.8.2.7.2 2.1 0 3zm450 4.5c-.3.8-.6.5-.6-.6-.1-1.1.2-1.7.5-1.3.3.3.4 1.2.1 1.9zm1 56c-.3.7-.5.2-.5-1.2s.2-1.9.5-1.3c.2.7.2 1.9 0 2.5zm9 8c-.3.8-.6.5-.6-.6-.1-1.1.2-1.7.5-1.3.3.3.4 1.2.1 1.9zm-443.6 57.1c-1 .9-1.1.8-.5-.6.3-1 .9-1.5 1.2-1.2s0 1.1-.7 1.8zm1.9 8.6c0 .5-.7 1.4-1.5 2.1-1.6 1.4-1.8 1-.9-1.4.6-1.7 2.4-2.2 2.4-.7zm15.3 21.2c-.8.8-1.3.7-1.8-.2-.6-.8-.4-1 .5-.4 1 .6 1.2.4.6-1.1s-.5-1.7.5-.7c.9 1 1 1.6.2 2.4zm361.7 27.9c0 .5-.5 1-1.1 1-.5 0-.7-.5-.4-1 .3-.6.8-1 1.1-1 .2 0 .4.4.4 1zm-349 3.1c0 .5-.4.9-1 .9-.5 0-1-.7-1-1.6 0-.8.5-1.2 1-.9.6.3 1 1 1 1.6zm16 17c0 .6-.4.7-1 .4-.5-.3-1-1.1-1-1.6 0-.6.5-.7 1-.4.6.3 1 1.1 1 1.6zm323 .8c0 .6-.4 1.3-1 1.6-.5.3-1-.1-1-.9 0-.9.5-1.6 1-1.6.6 0 1 .4 1 .9zm-297.7 8.8c-.7.2-1.9.2-2.5 0-.7-.3-.2-.5 1.2-.5s1.9.2 1.3.5zm279.2 1.4c1.1 1.6.1 1.9-1.3.3-.7-.8-.8-1.4-.3-1.4s1.3.5 1.6 1.1zm-285.5 5.3c0 .3-.4.8-1 1.1-.5.3-1 .1-1-.4 0-.6.5-1.1 1-1.1.6 0 1 .2 1 .4zm33.7 11.3c-.8.7-4.2-1.2-4.5-2.5-.1-.9.5-.8 2.3.4 1.4.9 2.4 1.8 2.2 2.1zm31 13.9c-.3.3-1.2.4-1.9.1-.8-.3-.5-.6.6-.6 1.1-.1 1.7.2 1.3.5zm161 0c-.3.3-1.2.4-1.9.1-.8-.3-.5-.6.6-.6 1.1-.1 1.7.2 1.3.5zm-135 8c-.3.3-1.2.4-1.9.1-.8-.3-.5-.6.6-.6 1.1-.1 1.7.2 1.3.5z"/><path d="m330.3 365.9c-7.8 1.4-14.5 3-14.9 3.4s3 .7 7.5.7c6.3 0 10.1.7 16.9 2.9l8.8 2.9 49.5.6 49.4.7-3-2.6c-4-3.4-13.8-8.1-21-10-4.8-1.2-12.6-1.5-42.5-1.4-35.1.1-37.1.2-50.7 2.8zm268.7 2.8c-1.9.2-11.6 1.8-21.5 3.5s-22.3 3.3-27.5 3.7c-7.5.5-9.5.9-9.5 2.1s1.9 1.7 8.5 2.2c4.7.4 11.7 1.4 15.5 2.3 5.3 1.2 17.2 1.8 48.4 2.5 22.7.5 41.7.7 42.2.4s.9-3.2.9-6.4c0-5.4-.2-6-2.2-6.5-12.6-3-18.1-3.7-33.8-4-9.6-.2-19.1-.1-21 .2zm-102.2 4c.6.2 1.8.2 2.5 0 .6-.3.1-.5-1.3-.5s-1.9.2-1.2.5zm-126.3 7.4c-26.7.7-30.1 1-43 3.7-7.7 1.6-13.3 3.2-12.5 3.5s7.8 1.7 15.5 3.2c13.1 2.6 16.4 2.8 53 3.5 53.9 1.1 80.5 1.2 80.5.1 0-.5-2.1-3.2-4.6-6-3.5-3.9-5.3-5.1-7.5-5.1-1.6 0-2.9-.4-2.9-1 0-.5.7-.7 1.5-.4 1.1.5 1.3.2.9-1-.5-1.4-3.5-1.6-26.3-1.4-14.1.1-38.6.5-54.6.9zm220.1 8c-24.5.5-37.8 1.2-39.7 1.9-1.6.7-3.8 1-4.9.7s-1.8-.2-1.5.2c.8 1.4-7.1 3.1-14.3 3.1-5.7 0-7 .3-6.6 1.4.3.7 2.2 1.6 4.2 1.9s6.9 1.2 10.7 2.1c10.9 2.3 35.5 3.6 78.3 3.9l39.2.3v-16.6l-14.2.2c-7.9.1-30.9.5-51.2.9zm-184.1 9c-57.1.9-65.2 1.3-75 3.7-4.4 1.1-10.1 2.3-12.7 2.6-2.7.4-4.8 1.1-4.8 1.5 0 .5 2.4 1.2 5.4 1.5 2.9.4 7.8 1.4 10.7 2.2 8 2.2 30.5 3.2 77.2 3.5 29.5.2 42 0 42.5-.8.4-.6 4.8-1.2 10.4-1.4 12.5-.5 13.1-1.1 8.7-8.4l-3.3-5.5-7.1.2c-3.8.1-27.2.5-52 .9zm209.4 8.3c-.2.2-18.2.6-39.9.9-31.2.5-40.5.9-44.2 2.1-2.6.8-7.5 1.8-10.8 2.2-6 .7-8 1.8-6.4 3.4 1 .9 17.2 3.3 38.9 5.6 8.2.9 31.5 1.8 56.5 2.3 23.4.4 43.3 1.1 44.3 1.5 1.5.7 1.7 0 1.7-8.8v-9.6h-19.8c-10.9 0-20.1.2-20.3.4zm-235.9 8.1c-.8.2-9.6.9-19.5 1.5-14.4 1-19.4 1.7-25 3.7-4.1 1.4-10.5 2.7-15.2 3-4.5.3-8 .9-7.8 1.3.3.4 4.3.8 9.1.9 6.1.1 10.8.9 16.2 2.7 6.4 2.1 11 2.7 27.5 3.6 10.9.6 19.9.9 20.1.7s.6-4.2.7-8.9c.4-8.4.3-8.5-2.1-8.7-1.4 0-3.2 0-4 .2zm65.1 1.6c-10.6.7-14.7 1.4-19.7 3.4-4.5 1.8-8.3 2.5-13.6 2.6-10.5.1-14.4 1.7-4.6 1.8 5.7.1 10.3.9 17 3.1 8.7 2.7 10.8 3 32.8 3.8 12.9.5 23.8.7 24.2.5.5-.3-2.8-11.5-3.9-13.2-.4-.6-14.5-3-16.8-2.9-1.1 0-8 .5-15.4.9zm118.4 9c-17 .4-25.9 1.1-30.5 2.3-3.6.9-9.9 1.9-14 2.2-9.3.7-10.1 1-9.4 2.9.5 1.2 2.5 1.5 9.8 1.5 6.7 0 11.4.6 17.6 2.4 7.6 2.2 11.3 2.5 33.8 3.2l25.3.7 4.7-5.2c2.6-2.8 7.2-6.5 10.2-8.1l5.5-3-14.5.2c-8 .1-25.3.5-38.5.9zm-204.4 9.1c-14.9.7-18.1 1.2-23.2 3.3-4.7 2-7.5 2.5-14.9 2.5-4.9 0-9 .4-9 .9s3.9 1.2 8.8 1.6c4.8.3 12.8 1.7 17.7 3 6.8 1.9 13.5 2.7 27.4 3.5 10.1.6 18.5.9 18.6.8.1-.2.5-4 .8-8.6l.6-8.2-4.7.1c-2.6.1-12.5.6-22.1 1.1zm92.4-.2c-12.1.6-14.9 1-20.2 3.3-5.2 2.3-7.7 2.7-15.3 2.7-5.3 0-9 .4-9 1s3.3 1 7.8 1c6 0 9.8.7 16.6 3 8.3 2.8 9.8 2.9 31.7 3.6 16 .5 22.9.4 22.9-.4 0-2.1-14.2-5.6-25.5-6.1-6-.3-11-1-11-1.5s3-.8 6.7-.7c3.6.1 8.6-.3 11-.9 4.7-1.3 12.8-4.8 12.8-5.5 0-.6-9.2-.4-28.5.5zm137.4 7.4c-.2.2-12.2.7-26.6 1-23.6.6-26.8.8-31.5 2.7-3.2 1.3-8.7 2.4-14.1 2.8-4.8.3-8.7 1-8.7 1.6s4.5 1.3 10 1.7c6.4.5 12.8 1.7 17.5 3.3 5.8 1.9 9.6 2.5 16.4 2.5 4.8 0 15 .3 22.7.7 19.1.9 12.6 2.1-13.1 2.4-18.1.2-20.5.4-25.7 2.4-3.9 1.6-9 2.5-16.3 3-13.2.9-13.7 2.7-.9 3.6 4.9.4 12.3 1.7 16.4 2.9s10.9 2.4 15 2.5c4.1.2 14.6.7 23.3 1l15.7.7v-9.1c0-7.6.5-10.4 3-17.3 1.7-4.5 3-8.3 3-8.5 0-.5-5.6-.4-6.1.1zm-238.7 10.8c-6.7.6-12.7 1.7-16.9 3.3-4.9 1.9-8.5 2.5-14.4 2.5-4.4 0-7.9.4-7.9.9 0 .4 3.3 1.1 7.3 1.5 3.9.4 12.8 2.1 19.7 3.7 9.8 2.4 15.9 3.2 28.5 3.8 8.8.5 13.3.9 10 1-27.6.9-39.2 2.1-45.8 4.6-4.9 1.8-8.7 2.5-13.7 2.5-4 0-7 .4-7 1s3.5 1 8.5 1c6.2 0 10.2.6 14.3 2.1 9.6 3.5 11.1 3.7 29.7 4.4 9.9.4 17.1 1.1 16 1.5s-10.3 1.1-20.5 1.5c-16.7.6-19.1.9-24.5 3.3-4.5 1.9-8.2 2.6-15.2 3-5.1.2-9.3.8-9.3 1.2s4.4 1 9.8 1.2c6.4.4 11.7 1.3 15.7 2.7 4.6 1.7 10.9 2.6 26.3 3.8 11.1.9 20.5 1.4 20.7 1.1.8-.7 1.4-8.7 2-25.3.3-8.8.8-18.6 1.1-21.8l.7-5.7-12.4.1c-6.8.1-17 .6-22.7 1.1zm102.3-.2c-10.8.6-13.8 1.1-17.5 3-3.6 1.9-6.5 2.5-14.7 2.8-5.7.2-10.3.8-10.3 1.2s4.4 1 9.8 1.3c5.8.3 12.3 1.4 16.2 2.7 4.4 1.4 11.3 2.4 21.7 3.2l15.1 1 7.1-3.2c7.5-3.5 8.1-4.5 6.5-10.8-.6-2.1-1-2.2-10.8-2-5.5 0-15.9.4-23.1.8zm-21.5 20.7c-4.5 2.2-7.3 2.7-15.7 3.1-12.2.5-12.8 2.2-.8 2.2 6.4 0 10.3.6 16.2 2.6 7.1 2.3 10 2.7 31.3 3.4 12.9.5 23.6.7 23.8.6.1-.2.5-1.9.9-3.8l.5-3.5-8.8-2.2c-15.8-3.8-24.4-5.1-33.2-5.1-7.3 0-9.6.4-14.2 2.7zm143.9 4.7c-.3.3-7.9.6-16.9.7-16 .1-16.7.2-24 3.2-5.6 2.4-9.1 3.2-13.9 3.2-4.4.1-6.6.6-7.1 1.6-.7 1.2.8 1.4 9.1 1.6 6.2.1 12.3.9 16.6 2.2 4.8 1.4 11.3 2.1 21.8 2.5 8.3.4 19.7.9 25.3 1.3l10.4.6-2.3-4.4c-1.2-2.4-2.8-6.2-3.4-8.4l-1.2-4-7-.3c-3.8-.1-7.1-.1-7.4.2z"/><path d="m447.6 486.2c-21.6.9-23.3 1.1-30.8 3.9-5.9 2.2-9.7 2.9-14.9 2.9-3.8 0-6.9.4-6.9.9 0 .4 3.7 1.1 8.3 1.5 4.5.3 11.8 1.5 16.2 2.6 6.1 1.6 12.9 2.2 29 2.6 24 .7 31 2.3 10.4 2.4-7.5 0-37.6.5-67 1.1-53.3 1-53.4 1-68.4 4-8.2 1.7-15.1 3.2-15.4 3.4-.6.6 1.5 1.1 9.9 2.4 4.1.6 11.1 1.7 15.5 2.5 6.1 1.2 22.2 1.7 67.7 2.2 32.8.4 59.5 1.1 59.2 1.6-.3.4-11 .8-23.7.9-12.8 0-40.3.4-61.2.8-35.7.8-38.9 1-52 3.6-7.7 1.5-14.7 3-15.5 3.3-1.3.4 14.4 3.4 32 6.1 3.6.6 30.1 1.4 59 1.8 60.4.9 55.6 1.6-20.5 3.2-41 .8-46.9 1.1-54.1 2.9-4.4 1.2-10.4 2.4-13.2 2.8-2.9.3-5.2.9-5.2 1.3 0 .3 7.5 2 16.8 3.6l16.7 3h44c33.1 0 45.5-.3 50-1.3 8.1-1.9 19.1-7.3 24-11.9 3.9-3.7 9.5-10.6 9.5-11.7 0-.6-3.7-1.2-12.2-2.1-8.7-1-7.4-2.9 1.5-2.2 5.5.4 8.5.1 12.7-1.3 3-1 5.1-1.9 4.7-1.9-.5-.1.1-1.5 1.3-3.1 2.1-3 7-14.1 7-15.9 0-1.9-7.6-3.4-19.9-4-8.6-.4-12.6-1-12.9-1.9s2.5-1.2 11.7-1.2c6.6 0 13.2-.5 14.8-1.1 4.3-1.6 10.3-6 10.3-7.5 0-1.6-2.5-1.6-38.4-.2zm116.9 8.9c-16.6.8-18 1-22.4 3.3-2.1 1.2-5.9 1.6-13 1.6-9.5 0-12.6.9-10.5 3 .5.5 5.2 1 10.4 1.1s10.6.6 12 1.2c1.4.5 4.3 1.4 6.5 1.9 4.4 1.1 69.5 3.6 69.5 2.7 0-.3-2-1.5-4.4-2.6-2.3-1.2-7-4.6-10.3-7.7l-6.1-5.6-8.3.2c-4.6 0-15.1.5-23.4.9zm84 15.6c-4.6 1.1-16 1.7-48.5 2.2-37.7.6-43 .9-47 2.5-2.9 1.2-8.3 2-14.8 2.3-8.8.5-10.2.8-10 2.2.2 1.1 1.9 1.8 5.3 2.3 2.8.3 8.4 1.1 12.5 1.8 4.1.6 10.2 1.5 13.5 2s26 1.2 50.5 1.6 42.7 1.1 40.5 1.5c-2.2.3-20.8 1-41.4 1.3-36 .7-37.6.8-43.7 3.1-8.1 3.1-14.2 3.9-18.7 2.7-2.8-.8-3.9-.7-4.8.4-1.6 1.9-.4 2.2 11.6 2.8 6.1.3 12.4 1.3 16.3 2.5 5.7 1.9 10.3 2.2 42 3.1 19.6.5 37.6 1 40 1h4.2v-18.5c0-10.2-.3-18.5-.7-18.4-.5.1-3.5.8-6.8 1.6zm-31.2 37.4c-18.6.7-21 1-29.8 3.8-5.5 1.8-11.9 3.2-15.3 3.2-4.6.1-3.6.4 5.3 1.4 6.1.7 15.3 2.4 20.5 3.8s12.9 3.1 17 3.8c10 1.6 29.2 1.7 35.7 0l5.1-1.3.4-7.5c.2-4.1.1-7.7-.1-7.9-.6-.5-13.6-.3-38.8.7zm-407.1-310.2c-1.1.7-1.1.9 0 1.4.9.3 1.5-.1 1.5-.9s-.1-1.4-.1-1.4c-.1 0-.7.4-1.4.9zm-56.4 126.8c.7.3 1.6.2 1.9-.1.4-.3-.2-.6-1.3-.5-1.1 0-1.4.3-.6.6zm652.3 35.9c0 1.1.3 1.4.6.6.3-.7.2-1.6-.1-1.9-.3-.4-.6.2-.5 1.3zm-40.3 140.1c.7.3 1.6.2 1.9-.1.4-.3-.2-.6-1.3-.5-1.1 0-1.4.3-.6.6zm-556 18c.7.3 1.6.2 1.9-.1.4-.3-.2-.6-1.3-.5-1.1 0-1.4.3-.6.6zm-56.7 7.9c0 1.1.3 1.4.6.6.3-.7.2-1.6-.1-1.9-.3-.4-.6.2-.5 1.3zm99.5 126.9c-.9 2.6-.7 3.2.5 1.2.6-1 .9-2.1.6-2.3-.2-.3-.7.2-1.1 1.1zm272.9 55.6c-.4.6-.5 1.2-.2 1.5.2.3.7-.2 1-1.1.7-1.7.1-2-.8-.4zm61.1 6.2c.3 1 .9 1.5 1.2 1.2s0-1.1-.7-1.8c-1-.9-1.1-.8-.5.6zm-534.6 135.9c-2.5.5-6 .7-7.7.4l-3.3-.5v22.4c0 12.3-.3 23-.6 23.9-.5 1.4.8 1.6 10.5 1.6 12.6 0 15.9-1 20.9-6.1 4.8-4.8 6.4-8.4 6.9-15.4.7-8.1-.9-13.3-5.8-18.9-6.3-7.2-11.9-9.1-20.9-7.4zm9.5 16c3 2.6 4.2 8 2.6 12-1.1 2.8-6.5 6.3-8.1 5.3-1.1-.7-1.4-17.8-.3-18.8 1.2-1.3 3.2-.7 5.8 1.5zm224-16.1c-2.7.5-6.2.7-7.7.4l-2.8-.5v21.4c0 11.7-.3 22.6-.6 24.2l-.6 2.9 8.3-.2 8.2-.1-.2-6.6c-.3-7.7 1.1-8.6 6.1-3.6 2.4 2.4 2.9 3.7 2.6 6.7-.3 3.3 0 3.7 2 3.6 1.2 0 8.7-.1 16.7-.2l14.5-.1v-6.1l7.3.3c7.2.3 7.2.3 7.5 3.3l.3 3 17.1-.2 17-.1-.1-11.9-.1-11.8 6.4 11.5c3.6 6.3 7.1 11.7 8 12 .8.3 4.1.4 7.3.2l5.8-.4-.2-23.6-.2-23.6-6.6.1c-3.6.1-6.8.2-7.3.2-.4.1-.6 5-.4 11.1.3 6 0 11-.4 11-.5 0-3.4-4.6-6.4-10.2-3-5.5-6-10.6-6.6-11.2-.7-.7-3.9-1.1-7.8-1l-6.7.1.1 23.3c0 18.4-.2 23.1-1.2 22.8-.7-.3-4.9-10.4-9.3-22.6-4.4-12.1-8.3-22.4-8.7-22.8s-4.4-.7-8.8-.8c-7.8-.1-8 0-8 2.2 0 2.6-8.7 28.9-12 36.5-1.2 2.6-2.5 4.5-3 4.2-.4-.3-1.1-2.4-1.5-4.6-.5-2.8-2-5.6-4.5-8.3l-3.8-4.1 1.9-3.5c3.1-5.8 2.2-12.9-2.4-17.8-4.5-4.9-10.9-6.5-19.2-5.1zm7.6 13.9c2.4 1.3 2.6 6.5.3 7.4-2.9 1.1-3.4.6-3.4-3.9 0-4.9.1-5 3.1-3.5zm48.5 15.5c-.2.7-1.5 1.2-2.8 1.1-1.9-.1-2.3-.6-2-3.1.2-1.7.8-4.8 1.4-7l1.1-4 1.4 5.9c.8 3.3 1.2 6.5.9 7.1zm82.9-29.8c-7.6 1.9-11.5 6.6-11.5 13.8 0 5.3 2 8.4 8.9 13.8 3.9 3 6.1 5.4 6.1 6.7 0 4.1-5.7 3.8-10.8-.5-1.7-1.4-3.3-2.5-3.6-2.5-.4 0-.5 3.9-.4 8.6l.3 8.7 9.5.4c8.3.3 9.9.1 12.8-1.6 4.5-2.9 7.2-7.7 7.2-13.1 0-6.2-2.7-10.8-9.1-15.3-3.7-2.6-5.4-4.5-5.4-6 0-3 3.6-3.4 6-.7 2.9 3.2 3.5 2.4 3.5-4.4v-6.3l-3.7-.7c-2.1-.3-4.7-.8-5.8-1s-2.9-.2-4 .1zm33.5.5c-2.5.5-6 .7-7.7.4l-3.3-.5v22.4c0 12.3-.3 23-.6 23.8-.4 1.3.7 1.6 6.4 1.9 10.1.4 9.8.7 9.4-6.2l-.4-6h4c5 0 12.1-3.7 15-8 2.8-4.2 3-13.8.4-18.7-2.2-4.2-7.6-8.1-12.1-8.9-2-.3-4.3-.7-5.1-.9-.8-.1-3.5.2-6 .7zm9.4 14.4c2.4 2.3 2 6.1-.9 8-3.4 2.2-4.5 1.1-4.5-4.7 0-4.2.3-4.9 1.9-4.9 1.1 0 2.7.7 3.5 1.6zm37.7-14.5c-6.8 1.3-14.3 8-17.1 15.4-1.7 4.3-1.4 14.5.5 19.1 2 4.9 6.8 10 11.9 12.6 3.1 1.6 5.4 1.9 11.2 1.6 6.1-.3 7.9-.8 11.6-3.3 6.3-4.5 10.1-11.3 10.6-19 .5-7.3-.8-11.8-4.8-17.4-5.4-7.3-14.5-10.8-23.9-9zm11.4 17.4c1.9 1.8 2.5 3.5 2.5 7 0 6.1-3.2 9.5-8.8 9.5-6.2 0-10.3-6.3-8.2-12.6 2.2-6.6 9.9-8.6 14.5-3.9zm34-17.3c-2.7.4-6.2.6-7.7.3l-2.8-.5v21.4c0 11.7-.3 22.6-.6 24.2l-.6 2.9 8.3-.2 8.2-.1-.2-6.6c-.3-7.7.8-8.4 5.9-3.6 2.6 2.4 3.1 3.6 2.8 6.6l-.3 3.6 8.4.1 8.3.2-.6-3.5c-1.2-7.2-2.8-11.3-6-14.8l-3.3-3.7 1.8-4c6.2-13.6-4.9-25.1-21.6-22.3zm7.6 13.8c3.3 1.8 1.9 8-1.8 8-.9 0-1.3-1.5-1.3-4.5 0-4.9.1-5 3.1-3.5zm95.6-14c-8.6 1.5-16.4 9.1-18.8 18.4-2.2 9 .6 17.9 7.9 25 4.7 4.5 10.2 6.3 18.5 5.8l5.7-.4v-8.9c0-4.9-.3-8.9-.7-8.9-.5 0-1.7.7-2.7 1.5-3.4 2.5-8.4 1.9-11.8-1.5-2.7-2.7-3-3.6-2.5-7.1.3-2.3 1.6-5.2 2.9-6.6 1.9-2.1 3-2.4 6.8-2.1 2.5.3 5.3.8 6.3 1.2 1.5.7 1.7 0 1.7-7.8v-8.6h-2.9c-1.6 0-3.5-.2-4.3-.4-.7-.2-3.4 0-6.1.4zm35.1.4c-6.1 1.6-11.1 5.6-14.5 11.4-2.4 4.1-2.8 5.8-2.8 12.8 0 7.2.3 8.6 3 12.9 1.7 2.7 5 6.3 7.3 8 3.7 2.5 5.5 3 11.7 3.3 6.5.4 7.9.1 12.4-2.4 12.2-6.6 16.3-21.8 9.5-34.4-3.3-6.2-8.2-10-14.8-11.7-5.9-1.5-5.8-1.5-11.8.1zm12.3 17.2c5.4 5.7 1.7 16.4-5.7 16.4-4.6 0-6.3-.9-7.9-4.1-2.6-4.9-1.3-11.2 2.9-14.1 2.5-1.8 8.3-.8 10.7 1.8zm88.9-17.4c-2.5.5-6 .7-7.7.4l-3.3-.5v22.2c0 21.1-.7 26.5-2.9 24.2-1.2-1.4-6.3-32.4-6.5-39.9l-.1-6.1-7.4.2c-4.1.2-7.8.6-8.2 1-.3.5-1.6 4.1-2.8 8-1.2 4-2.5 7.3-3 7.3-.4 0-1.8-3.6-3.1-8l-2.3-8h-7.3c-4.1 0-7.7.1-8 .2-.3.2-.7 3.3-.9 7-.4 7.6-4.2 32.9-5.5 37l-.9 2.8h16.4l.2-9.3c.1-5.1.6-11.1 1.1-13.3.8-3.9.9-3.8 5.2 9.3 2.5 7.3 4.7 13.3 5.1 13.3.3 0 2.5-5.5 4.9-12.3 2.3-6.7 4.6-12.6 5-13 .8-.9 2 10 2.2 19.5l.1 5.8h34.2l-.3-6-.4-6h3.5c9.7 0 17.7-7.8 17.7-17.3 0-6.2-1.9-10.6-6.1-14.1-5.4-4.6-11.5-6-18.9-4.4zm9.2 14.5c2.4 2.1 2.3 4.8-.2 7.3-3.6 3.6-5 2.6-5-3.5 0-6 1.5-7.1 5.2-3.8zm-702.7-13.2c-.9 4.3-12.1 37-14 41-1.4 2.7-2.5 5.2-2.5 5.5s4 .4 8.9.2l9-.3.3-3.2c.2-2.6.7-3.1 2.6-3 1.2 0 4.2.1 6.7.2 4.2.1 4.6.3 5.1 3l.6 3 8.5.3c4.7.2 8.6.1 8.8-.1s-.2-1.3-.9-2.5c-.8-1.1-4.6-11.3-8.6-22.6s-7.6-20.8-7.9-21.2c-1-1.1-16.3-1.4-16.6-.3zm11.1 28c-.5 1.5-5.1 1.4-5.1 0 .1-2.4 1.7-11.1 2.3-12 .8-1.2 3.5 10.4 2.8 12zm24.9-5.3v23.8h16l-.3-23.8-.3-23.7h-15.4zm22 0v23.8h25.5v-13h-10.1l.1-17.1.2-17.1-7.9-.1-7.8-.2zm20-23.3c-.3.2.3 1.4 1.4 2.5 1 1.2 4.7 7 8.1 12.9l6.2 10.8-.3 10.5-.3 10.6 7.7.1 7.7.2v-22.8l4.6-8.1c2.6-4.5 6-10 7.5-12.3 1.6-2.3 2.9-4.3 2.9-4.6s-12.8-.1-17.2.2c-.5.1-.8 1-.8 2 0 1.1-1 3.6-2.1 5.6-2.5 4.2-3.6 3.7-6.4-2.7-1.1-2.4-2-4.5-2.2-4.7-.5-.7-16.2-.8-16.8-.2zm76.8-.1-13.3.3v12.9h9.1l-.3 17-.3 17 6.3.1c3.4.1 6.9.2 7.8.3 1.5.1 1.6-1.7 1.5-17.2l-.2-17.2h9.1v-6.5c0-3.6-.3-6.5-.7-6.6-4-.3-7.6-.4-19-.1zm329.1.4c-.3.4-.4 3.4-.3 6.8l.2 6h8.8l-.3 17-.3 17h16l-.3-17-.4-17h9.2v-6.5c0-3.6-.3-6.5-.7-6.5-7.6-.5-31.6-.3-31.9.2zm279.6-.2c-.1.3 0 10.7 0 23.2.1 18.8-.2 22.8-1.3 22.8-.9 0-3.6-6.4-7.7-17.8-3.4-9.7-7.1-20.1-8.2-23l-1.9-5.2h-8.5c-7.3 0-8.4.2-8.4 1.7 0 2.5-9.6 30.4-13.1 38.1-1.6 3.6-2.8 6.6-2.6 6.8.1.1 4 .4 8.7.5 7.4.1 8.5 0 8.2-1.5-.7-3.8 1.3-5.1 7.8-5 3.4.1 6.4.4 6.7.8.3.3.6 1.7.6 3.1 0 2 .4 2.5 2.6 2.5 1.4.1 9.1.1 17 .1l14.4.1-.2-11.7c-.2-7.7.1-11.5.8-11.1.5.4 3.6 5.6 6.8 11.6l5.8 11h14v-22.2c0-12.3.2-23 .5-23.7.4-1.2-.9-1.5-7.4-1.5l-7.8.1.1 11.4c0 7.9-.3 10.9-1 9.9-.5-.8-3.2-5.6-6-10.5-2.8-5-5.4-9.3-5.8-9.7-.7-.8-14.1-1.6-14.1-.8zm-25.2 22.8c.7 3 .9 5.8.6 6.3-.5.8-4.1.4-5.2-.6-.2-.2.2-3 .9-6.4s1.6-5.8 1.9-5.3c.4.4 1.2 3.1 1.8 6zm69.2-23c0 .1 1.7 2.8 3.9 6 2.1 3.1 5.5 8.7 7.5 12.3 3.5 6.5 3.6 6.8 3.6 18v11.4h15.5l-.3-10.8-.4-10.7 4.8-8.3c2.6-4.5 6-10 7.5-12.2 1.4-2.2 2.7-4.4 2.8-4.9 0-.5-3.5-.9-8-1h-8.1l-1.3 3.8c-.8 2.2-2.1 4.6-3 5.5-1.5 1.5-1.8 1.4-3.5-.9-1.1-1.4-2.3-3.8-2.8-5.3-.7-2.8-.8-2.9-9.5-3-4.8-.1-8.7-.1-8.7.1z"/></svg>