<svg height="1091" viewBox="0 0 566.93 247.39" width="2500" xmlns="http://www.w3.org/2000/svg"><path d="m58.33 31.3h450.28l19.19-22.39c3-3.5.51-8.91-4.1-8.91h-480.47c-4.61 0-7.1 5.41-4.1 8.91l19.19 22.39zm499.62-.86c-.37 0-.75.02-1.13.07l-43.88 5.48v175.48l43.51 7.25c5.49.92 10.48-3.31 10.48-8.88v-170.4c0-5.03-4.1-9-8.98-9zm-499.46 5.55h449.94v175.48h-449.94zm-4.5 0-43.88-5.48c-.38-.05-.76-.07-1.13-.07-4.89 0-8.98 3.97-8.98 9v170.41c0 5.56 4.99 9.79 10.48 8.88l43.52-7.25v-175.49zm455.1 180.67s-.08.01-.12.01h-451.14l-18.7 21.81c-3 3.5-.51 8.91 4.1 8.91h480.46c4.61 0 7.1-5.41 4.1-8.91z" fill="#693f23"/><path d="m110.09 64.82c13.43 0 24.73 12.06 24.73 25.34v15.26c0 13.28-11.3 25.34-24.73 25.34h-18.77v40.9h-12.36v-96.92c0-5.8 4.73-9.92 9.77-9.92h21.37zm-18.77 53.27h18.77c6.72 0 12.21-5.65 12.21-12.67v-15.26c0-6.87-5.49-12.67-12.21-12.67l-18.77.3v40.29zm46.24 30.07v-4.27c0-12.82 9.77-23.81 23.81-23.81 4.89 0 10.84 3.21 12.51 8.09l-.3-6.41c0-6.41-5.34-11.75-11.91-11.75-3.05 0-7.48 1.83-11.6 5.8l-6.72-10.22c5.19-4.73 12.36-8.09 18.31-8.09 12.97 0 24.27 10.83 24.27 24.27v49.91h-9.92l-1.22-7.78c-1.53 6.41-9.31 8.7-13.13 8.7-13.12 0-24.11-11.29-24.11-24.42m24.13 12.03c5.8 0 11.91-4.73 11.91-10.23v-7.48c0-6.11-5.34-10.38-11.91-10.38s-11.75 5.19-11.75 11.75v4.27c0 6.56 5.34 12.06 11.75 12.06m85.47-16.32c-.16 15.57-10.53 28.54-24.12 28.54s-24.42-11.14-24.42-24.27v-26.56c0-13.74 11.29-24.27 24.42-24.27s23.96 12.51 24.12 28.54h-12.36c0-9.16-5.34-16.03-11.75-16.03s-12.06 5.34-12.06 11.75v26.56c0 6.56 5.49 11.9 12.06 11.9s11.75-7.32 11.75-16.18h12.36zm26.86-2.75v30.53h-12.36v-103.33h12.36v60.59h.92c5.65 0 10.53-1.99 12.67-6.87l11.14-23.96h12.98c-.92 2.44-4.73 10.68-6.11 13.43-2.29 4.88-5.04 11.29-6.87 15.57-1.22 2.44-5.34 7.48-12.06 8.09 6.72.31 10.84 5.19 12.06 7.78l12.82 28.69h-12.97l-10.99-23.81c-2.14-4.73-7.02-6.72-12.67-6.72h-.92zm61.2 30.53h-12.21v-79.82c0-14.19 13.58-24.57 29-24.57v12.21c-9 0-16.79 5.65-16.79 12.36v22.59h15.11v12.21h-15.11zm25.03-23.35v-50.06h12.36v50.06c0 6.41 5.19 11.75 11.45 11.75s11.6-5.34 11.6-11.75v-50.06h12.21v50.06c0 12.97-9.92 24.12-23.81 24.12s-23.81-11.14-23.81-24.12m89.74 11.14v12.21c-15.72 0-27.78-10.23-27.78-24.73v-78.75h12.21v78.75c0 7.02 6.71 12.52 15.57 12.52m35.56 0v12.21c-15.72 0-27.77-10.23-27.77-24.73v-78.75h12.21v78.75c0 7.02 6.71 12.52 15.57 12.52" fill="#fff"/></svg>