<svg height="658" viewBox="38.6 38.2 491.2 157.3" width="2500" xmlns="http://www.w3.org/2000/svg"><path d="m507.3 169.6h4.4c.5 0 1.4-.1 2.7-.4.7-.1 1.2-.5 1.7-1 .4-.5.7-1.1.7-1.8 0-1-.3-1.8-1-2.4-.7-.5-2-.8-3.9-.8h-4.6zm-10.4 18.7v-31.5h17.3c3.2 0 5.7.3 7.3.8 1.7.5 3.1 1.5 4.1 2.9s1.6 3.1 1.6 5.1c0 1.8-.4 3.3-1.2 4.5s-1.9 2.3-3.3 3.1c-.9.5-2.1.9-3.6 1.2 1.2.4 2.1.8 2.7 1.2.4.3.9.8 1.6 1.6.7.9 1.2 1.5 1.4 2l5 9.1h-11.7l-5.5-9.6c-.7-1.2-1.3-2-1.9-2.4-.7-.5-1.6-.7-2.6-.7h-.9v12.8zm-37.1-31.5h27.8v6.7h-17.4v5h16.1v6.4h-16.1v6.2h17.8v7.1h-28.3v-31.4zm-21 0h10.4v31.5h-10.4zm-42.5 0h9.7l12.6 17.4v-17.4h9.8v31.5h-9.8l-12.5-17.3v17.3h-9.8zm-21 0h10.4v31.5h-10.4zm-21.5 19.5-3.7-11.3-3.7 11.3zm2.2 6.8h-11.8l-1.6 5.2h-10.6l12.6-31.5h11.3l12.6 31.5h-10.9zm-43.3-12.9h2.6c2 0 3.4-.3 4.2-1s1.2-1.5 1.2-2.5-.3-1.8-1-2.5-2-1-4-1h-2.9v7zm-10.4-13.4h17.2c3.7 0 6.5.9 8.4 2.5 1.9 1.7 2.8 4.1 2.8 7.1 0 3.2-1 5.7-3.1 7.5-2 1.8-5.2 2.7-9.3 2.7h-5.7v11.7h-10.4v-31.5z" fill="#f08437"/><g clip-rule="evenodd" fill="#e60012" fill-rule="evenodd"><path d="m345.3 66.9c2.8.2 5 2.6 4.8 5.3s-2.7 4.7-5.5 4.5-5-2.6-4.8-5.3 2.7-4.7 5.5-4.5zm1.3 15.6c1.7.1 3 1.6 2.9 3.2s-1.6 2.8-3.3 2.7-3-1.6-2.9-3.2c.1-1.7 1.6-2.9 3.3-2.7zm-79.4 78.8c2.8.2 5 2.6 4.8 5.3s-2.7 4.7-5.5 4.5-5-2.6-4.8-5.3c.1-2.7 2.6-4.7 5.5-4.5zm16.9-6.6c1.7.1 3 1.6 2.9 3.2s-1.6 2.8-3.3 2.7-3-1.6-2.9-3.2 1.6-2.8 3.3-2.7z"/><path d="m142 116.1-101.4 19.8c-2 .4-1.8 3.3.2 3.5l86.6 6.5c.7.1 1.3.7 1.2 1.4-1.6 18.6 9.9 34 37.8 39.5 0 0 56.1 8.7 89.9-15.6 1.5-1.1.5-3.5-1.3-3.1-20.2 3.9-77.6 12.2-82.5-17.2-.1-.9.5-1.6 1.4-1.5 8.2.6 45.1 3.4 47.8 3.6h.3l152.4-37.6c1.6-.4 1.1-2.9-.5-2.6l-100.6 17.8 86.8-23.8c1.6-.5 1.1-2.9-.6-2.6l-129.3 23.6 87.4-24.5c1.6-.5 1-2.9-.6-2.6l-129.8 23.3 96.8-28.1c1.6-.5 1.1-2.8-.6-2.6l-88.5 12.9c-1.4.2-2.1-1.5-1-2.4 16.5-12.5 82.4-58 148.4-39.7 1.8.5 3-1.8 1.6-3-10.4-8.5-40.3-22.9-113.5-1.3-41 12.1-71.9 34-88.4 56.3z"/></g></svg>