<svg clip-rule="evenodd" fill-rule="evenodd" height="1714" image-rendering="optimizeQuality" shape-rendering="geometricPrecision" text-rendering="geometricPrecision" viewBox="0 -4 812 561" width="2500" xmlns="http://www.w3.org/2000/svg"><path d="M717 6c5-2 10-4 16-5-55-5-108 22-132 71-3 5-5 10-7 15-3-3-8-4-14-4 6-4 13-7 19-9-4-2-8-2-12-1 1-5 7-9 13-13-38 7-63 59-30 100-1 5-2 9-4 10 1-6 0-10-2-17-7 9-7 19 2 30-2 6-1 11 3 14-15 41-20 76-20 121-14 47-22 107-25 159H2v16h726v-16h-88c-7-37-6-73 2-109 6-23 12-46 22-65 6 7 13 11 22 13-1-2-2-5-3-7 7 4 15 4 22 4-1-1-1-2-2-3 7 3 12 2 16-1-1-1-3-2-4-4 2 1 5 1 7 0l-4-4c5-1 9-2 12-5-5 2-10 2-14 1 4-2 9-5 12-8-10 4-18 4-25 6 2-3 3-5 3-8-5 3-11 5-19 4 2-2 3-4 4-5h-6c3-3 5-5 7-8-8 4-15 7-22 4 3-7 7-15 10-22 4 4 8 5 12 1 0 12 7 22 20 25-5-5-12-12-13-17 5 6 13 13 20 16l-3-6c7 4 14 6 21 6-3-2-5-5-6-7 15 4 28 6 37-1-7 0-14-1-18-3 6 1 11 0 16-1-2-1-5-2-8-2 5-5 9-10 10-15-7 7-14 12-22 13 5-3 11-8 12-13-5 6-11 9-15 10 3-3 8-6 10-11-10 6-21 11-28 10 4-2 9-4 12-7-5 0-13 1-21 2 4-1 8-2 10-4-11-1-21-2-25-5 11-1 29-2 37-4-5-2-10-3-15-5 3-5 19-4 25-7-9-1-19-3-27-4v-3c16 2 32 4 41 2-6-2-13-4-18-6 11 1 22 1 32 0-4-2-11-3-18-5 21 1 22-2 36-5-2-2-6-3-7-5 9-1 17-4 25-7-5-1-11-1-17-1 4-2 10-4 14-8-3 0-8 1-11 1 4-2 8-6 9-10-7 5-15 8-22 11-1 0-2-1-3-1 2-2 4-6 5-10-4 4-8 7-12 10 2-2 3-4 3-7-4 5-8 8-12 9 0-2 1-3 2-4-1-1-2-2-3-2-1 1-3 3-5 3 2-3 4-6 8-9-12 1-22 11-30 21 1-3 1-3 2-5-14 6-28 16-39 24-1-1-2-1-4-1 5-3 10-7 15-12-4 1-8 2-14 6 3-6 12-10 21-11-1-1-4-2-9-2 6-1 10-2 13-5-4-1-8-2-5-3 7-2 14-4 20-7-3-1-9-1-15 0 2-2 6-3 11-8-2 0-6-2-8-2-1 2-3 5-11 8-1-2-2-4-3-5-1 2-2 3-3 5-1-1-1-2-2-3-1 3-3 5-5 6-1-1-2-2-2-3-2 4-4 8-7 12 0-1-1-2-1-3l-6 9c-3-2-7-2-10-2 0-2 1-4 3-6-8 0-15 1-23 3 4-2 10-5 11-8-4 2-9 3-12 4 1-2 2-3 4-4-10 0-24 5-35 9 3-4 10-7 19-9-14-2-27 1-38 19 1-5 1-9 2-13h-4c2-5 5-9 6-14-2 4-5 8-9 11v-4c4-3 7-6 9-10 6 4 13 8 20 11-1-3-2-5-4-8 5 1 9 3 14 4 0-7-1-8-3-12 11 1 14 10 28 12-1-1-2-3-3-4 7 2 13 3 18 3-5-3-9-5-10-9 8 4 16 7 23 5-1-1-3-1-5-2 2 0 4-1 5-1-1-1-1-2-2-3 6 3 12 5 19 5-1-2-2-3-4-5 11 5 20 5 29 4-3-1-5-3-7-5 9 2 16 2 24 2-10-5-23-8-36-10 8 0 17 1 24 0-9-6-23-8-44-6 4-2 7-4 11-5-5-1-11-1-15 1 1-2 1-3 2-4-16-2-34-2-56 6 1-1 3-4 8-6-8-2-23 1-42 7 4-4 13-8 24-9-6-1-13-1-15-5 19 4 34 6 47 7-6-3-11-6-17-8 7 1 13 1 19 2-1-2-4-5-9-7 6 2 12 3 18 5-4-5-7-8-10-10 6 1 12 2 18 2-4-2-9-5-15-8 14 1 30 3 45 8-2-5-8-8-17-12 5 1 11 3 17 5-1-4-6-7-11-10 7 0 17 2 25 6-5-6-13-11-22-15 7 0 13 3 19 7-1-3-2-6-6-8 7 0 12 2 18 6-1-4-3-8-6-11 7-1 15 1 23 3-1-3-3-6-8-8 9-1 17 3 25 6-2-5-8-8-14-11 9-2 18 1 37 7-7-6-15-9-25-12 11 0 20 1 32 4-2-2-4-3-6-4 8 0 15 1 23 0-49-20-129-20-188 21 2-2 4-6 3-9-6 4-12 7-19 7 16-14 26-3 37-18h-11c8-3 14-7 18-12-4-2-8-2-13-1 7-3 12-7 15-13-5 1-10 3-15 3 6-5 16-9 23-13-2-3-6-3-10-3 10-6 20-12 31-18-4-1-8-1-13-1 10-6 20-9 32-12-2-2-7-3-12-4 9-4 20-7 32-9-2-1-4-2-5-3zM551 477c-10-17-8-61-1-104 4 37 13 71 27 104zm54 0c-31-40-46-91-45-159 10-34 24-64 43-78 12 17 23 10 35 16-1-1-2-3-4-5 21 9 39-2 42-8h-6c1-2 2-4 1-7-4 0-7 1-9 3 1-2 2-4 3-7-8 0-15 1-20 3-4-3-6-4-7-6-4 0-7 0-11 1 2-4 7-6 9-9 3 1 7 1 13 3v-6c5 2 10 3 15 3-3-2-5-5-6-7 2 1 5 2 7 3 1-2 1-4 0-6 5 2 12 2 17 4-4 10-2 21-3 32-20 3-33 27-27 49 1-1 2-2 3-4 0 2 1 4 1 5-27 57-39 118-35 180zm-30-298c-2-5-1-9 3-9-2 2-2 6-3 9zm23 7c-1-5 2-9 5-8-1 3-3 6-5 8zm75 70c-3 0-2 4-2 7 2-3 4-6 2-7zm-12 23c-1-4-1-9 0-12 1 3 2 6 4 9-1 1-3 2-4 3zm5-9c-2-2-3-4-3-7 1 0 1-1 2-2 0 3 0 5 1 9zm-74-50c-3 1-4-1-3-3 2 0 3 1 3 3zm29 27c-4-5-9-9-14-10 5 3 5 9 14 10zm-29-7c1-3 3-6 5-9 1 1 1 2 2 3-2 1-5 3-7 6zm-29 42c2-21 5-45 10-70 2 4 5 7 9 10h-9c1 3 4 4 7 4 0 3-8 1-9 4 3 0 6 1 9 1-2 1-4 2-8 2 2 5 7 6 13 5-9 14-16 29-22 44zm10-70c2-5 3-11 4-16h8v5c-2-1-3-2-4-3 0 2-1 3-1 5-1-1-3-1-4-2 1 2 3 5 6 8-1-1-2-1-3-2v7c-2-1-3-2-6-2zm9-70c2-4 4-7 7-9v-15c-5 3-9 6-11 11 2 0 4-1 8-1-2 5-4 9-4 14zm6 1c-2-3-5 2-7 7v10c2-2 4-5 6-7 1-4 1-7 1-10zm-9-40c4-1 8-2 11-2 1-4 2-9 4-12-8-1-15-1-17 5 0 0-1 0-1 1 5-4 10-5 14-4-5 2-9 7-11 12zm11 1c-7 3-12 7-15 13 3-3 9-4 14-2 0-4 0-7 1-10v-1z" fill="#12834c"/><g fill="#414e88"><path d="M72 460h41v-1h-2v-5h3l2-16h-14v-5h15l4-24H89v-5h33l1-12h58l3-14h-50v-6h50l2-11h-3v-5h4v-1h-58l2-13h-21v-6h22l2-10h60l2-15h-9v-6h10l3-16H99zm141-105h28v5h-28zm-33 89h29v6h-29zm20-46h92v5h-92zm70 44h29v5h-29zm129-9h40v6h-40zm-65-60h27v5h-27zm47 0h26v5h-26zm-41-36h27v5h-27zm64 123h38l1-1h-3v-5h3l8-49h-61v-6h62l4-21h-24v-5h25l5-31h-30v-5h31l4-26h-15v-6h16l2-16h-39l-16 99-14-46h-22v-5h21l-9-26h-42v-6h41l-5-16h-40l-17 108h27v5h-28l-6 37h27v5h-27l-3 16h39v-1h-6v-5h7l8-49h-2v-6h3l6-38zm-101 0h-40l-2-27h-43l-8 21h-2v6h-42l74-171h43l2 16h-40v6h40l3 25h-28v6h29l2 13h-29v5h29zm-44-65l-4-57-13 34h-2v6l-7 17zM256 255h-43l-2-27h-46l-2 4h-34v5h32l-7 18h-45l77-169h46l3 18h-56v5h56l3 19h-29v5h30l4 33h-17v5h18l4 32h-86v6h87l3 23h-33v5h34zM0 255h39v-3h4l3-15H8v-5h39l3-17H26v-5h25l3-17h31c17 0 32-9 41-22H95v-5h35c6-10 10-22 11-33h-32v-5h32c0-9-3-17-7-24H33v-5h97c-8-8-19-13-35-13H31zm67-135h15c27 0 18 39-4 39H60zm199 135h38v-3h5l3-14h-41v-5h41l3-17 7-7h-46v-6h51l17-19 19 49h42l-9-24h-42v-6h40l-13-32h-83v-5h81l-6-15 20-23h-43v-5h48l17-19h-47v-5h51l10-12h-19v-1h-33l-50 62 7-44h-38v-5h39l2-12h-3v-1h-39l-8 42h26v5h-26zm99-17l6 17h26v-3h16l-6-14zm-157-47l-5-57-13 32h-35v5h33l-8 20z"/><path d="M43 252h36v6H39v-3h4zm147-86h11v5h-13zm46-84h26v5h-26zm-79 170h38v6h-38zm294-19h50v5h-50zm-7-67h81v5h-81zm15-43h52v5h-52zm-61 0h30v5h-35zm12-41h29v5h-10l1-1h-20zm-75 17h13v5h-14zm-1-17h26v5h-23v-1h-3zm45 84h45v5h-43zm15 37h49v6h-47zm-67 0h2v6h-7zm27 30h9l2 5h-11zm51 0h25v5h-23zm8 19h38v6h-54v-3h16zm-104 0h34v6h-39v-3h5zm3-19h19v5h-19zM419 99h50v5h-54zm-184 5h39v5h-39zm3 24h49v5h-48zm5 38h16v5h-15zm5 37h17v6h-16zm4 29h10v5h-9zm-89 0h37v5h-39zM111 82h44v5h-44zm19 17h38v5h-34c-1-2-3-3-4-5zm11 29h14v5h-14v-5zm-11 38h14v5h-18c2-2 3-4 4-5zm-79 44h59v5H50zm-4 22h25v5H46zM474 284h47v6h-47zm-277 21h22v6h-23zm88 0h28v6h-28zm3 31h40v6h-39zm8 36h17v6h-17zm-5-17h23v5h-23zm-159-19h46v6h-47zm55 20h17v5h-18zm55 16h12v6h-14zm-58 0h13v6h-13zm-62 32h38v5h-39zm-5 29h31v5h-32zm-3 21h45v5h-46zm96 0h39v5h-41zm90-55h16v6h-16zm19 40h2v5h-2zm39 15h31v5h-32zm85 0h35v5h-35zm17-21h38v6h-38zm-8-34h33v6h-34zm-85 0h10v6h-11zm-40-2h1l-1 5zm130-24h52v5h-53zm6-36h29v5h-30zm-63 0h6v5h-5zm68-32h22v6h-23zm-78 0h22v6h-21zm-102-21h48v5h-48zm-77 0h13v5h-13zm182 0h35v6h-35zM51 556H41l-15-35-7 35H9l11-53h10l14 36 8-36h10zm13-16c0-7 2-13 5-17 4-4 10-6 16-6s10 1 13 5c4 3 5 7 5 12 0 6-2 12-6 16-4 5-9 7-16 7-3 0-6-1-9-2-3-2-5-4-6-6-2-3-2-6-2-9zm29-7c0-3-1-5-2-6-2-2-4-2-6-2s-4 0-6 2c-1 1-3 3-4 6-1 2-1 5-1 7 0 3 1 5 2 7 2 1 3 2 6 2s5-1 7-4c3-3 4-7 4-12zm25-30h10l-2 10h-10zm-3 15h10l-8 38h-10zm11 27l10-1c1 2 2 3 4 4 1 1 3 2 5 2s4-1 6-2c1-1 1-2 1-3 0 0 0-1-1-2l-4-2c-6-2-10-3-11-4-3-2-4-5-4-8s1-5 4-8 7-4 13-4c5 0 9 1 12 3 2 1 4 4 4 7l-9 2c-1-2-1-3-3-4-1-1-3-1-5-1s-4 0-5 1-1 2-1 3 0 1 1 2c1 0 3 1 6 2 5 1 8 3 10 4 2 2 4 5 4 7 0 4-2 7-5 10s-7 4-13 4c-5 0-9-1-12-3s-6-5-7-9zm80-5h-26v1c0 3 1 5 2 6 2 2 3 3 6 3s6-2 8-6l9 2c-2 4-4 6-7 8s-7 3-10 3c-6 0-10-2-13-5s-5-8-5-13 2-10 5-14c3-5 9-8 16-8 5 0 9 1 12 4 2 3 4 7 4 12 0 3-1 5-1 7zm-9-6v-1c0-3 0-5-2-7-1-1-3-2-5-2s-4 1-5 3c-2 1-3 4-4 7zm13 22l11-53h10l-11 53zm58-16h-26v1c0 3 1 5 2 6 1 2 3 3 5 3 4 0 6-2 8-6l10 2c-2 4-5 6-8 8s-6 3-10 3c-5 0-9-2-12-5s-5-8-5-13 1-10 4-14c4-5 10-8 17-8 5 0 9 1 11 4 3 3 4 7 4 12zm-9-6v-1c0-3-1-5-2-7-1-1-3-2-5-2s-4 1-6 3c-1 1-3 4-3 7zm11 11l10-1c1 2 2 3 4 4 1 1 3 2 5 2s4-1 6-2c1-1 1-2 1-3 0 0 0-1-1-2l-4-2c-6-2-10-3-11-4-3-2-4-5-4-8s1-5 3-8c4-3 8-4 14-4 5 0 9 1 11 3 3 1 5 4 5 7l-9 2c-1-2-2-3-3-4s-3-1-5-1-4 0-5 1-1 2-1 3 0 1 1 2c1 0 3 1 6 2 5 1 8 3 10 4 2 2 4 5 4 7 0 4-2 7-5 10s-7 4-13 4c-5 0-10-1-13-3s-5-5-6-9zm41 0l10-1c1 2 2 3 4 4 1 1 3 2 5 2s4-1 6-2c1-1 1-2 1-3 0 0 0-1-1-2 0 0-1-1-4-2-6-2-10-3-11-4-3-2-4-5-4-8s1-5 4-8 7-4 13-4c5 0 9 1 12 3 2 1 4 4 4 7l-9 2c-1-2-1-3-3-4-1-1-3-1-5-1s-4 0-5 1-1 2-1 3 0 1 1 2c1 0 3 1 6 2 5 1 8 3 10 4 3 2 4 5 4 7 0 4-2 7-5 10s-7 4-13 4c-5 0-9-1-12-3s-5-5-7-9zm94 11h-11l-1-44-9 44h-10l11-53h16l2 37 16-37h16l-10 53h-10l9-44zm45-28h-10c1-4 3-6 6-8s7-3 12-3 8 1 11 3c2 2 3 4 3 7v4c0 1-1 4-2 10-1 5-2 8-2 10 0 1 0 3 1 5h-10c0-1-1-3-1-4-1 1-3 3-5 4-2 0-4 1-6 1-3 0-6-1-8-3s-3-5-3-8c0-4 1-7 4-9 2-2 6-4 12-4 5 0 8-1 10-1v-4c0-1 0-2-1-3-1 0-2-1-4-1s-3 1-4 1c-2 1-2 2-3 3zm10 10s-1 0-2 1c-5 0-9 1-10 2-2 1-2 2-2 4 0 1 0 2 1 3s2 1 4 1c1 0 3 0 4-1l3-3c1-1 1-3 2-6zm20-13l1-7h5l1-6 12-7-3 13h7l-2 7h-6l-4 17v6c1 1 2 1 3 1h3l-1 7c-2 1-4 1-6 1-3 0-6-1-8-2-1-2-2-4-2-6 0-1 0-4 1-8l4-16zm47 17l10 1c-1 5-4 8-7 10-3 3-7 4-11 4-5 0-9-2-12-4-3-3-4-7-4-12s1-9 3-12c1-4 4-7 7-9 4-2 8-3 12-3s8 1 11 3c2 3 4 6 4 10l-10 1c0-2-1-4-2-5s-2-2-4-2-4 1-5 3c-2 1-3 3-4 6s-2 6-2 9c0 2 1 4 2 5s2 2 4 2 3-1 5-2c1-1 3-3 3-5zm26 14h-10l11-53h10l-4 19c3-2 5-3 7-4s4-1 6-1c3 0 6 1 8 3 2 1 2 4 2 7 0 1 0 3-1 7l-4 22h-11l5-23c1-2 1-4 1-4 0-2 0-3-1-4-1 0-2-1-3-1-2 0-4 1-6 2-2 2-3 4-4 6-1 1-2 4-3 9zm35 0l11-53h10l-11 53zm58-16h-26v1c0 3 0 5 2 6 1 2 3 3 5 3 4 0 6-2 8-6l9 2c-1 4-4 6-7 8s-6 3-10 3c-5 0-9-2-12-5-4-3-5-8-5-13s1-10 4-14c4-5 10-8 17-8 5 0 8 1 11 4s4 7 4 12zm-9-6v-1c0-3-1-5-2-7-1-1-3-2-5-2s-4 1-6 3c-1 1-3 4-3 7zm11 11l10-1c1 2 2 3 4 4 1 1 3 2 5 2s4-1 6-2c0-1 1-2 1-3 0 0 0-1-1-2l-4-2c-6-2-10-3-12-4-2-2-3-5-3-8s1-5 3-8c3-3 8-4 14-4 5 0 9 1 11 3 3 1 4 4 5 7l-9 2c-1-2-2-3-3-4s-3-1-5-1-4 0-5 1-1 2-1 3 0 1 1 2c1 0 3 1 6 2 5 1 8 3 10 4 2 2 4 5 4 7 0 4-2 7-5 10s-7 4-13 4c-5 0-10-1-13-3s-5-5-6-9zm41 0l10-1c1 2 2 3 4 4 1 1 3 2 5 2s4-1 6-2c1-1 1-2 1-3 0 0 0-1-1-2l-4-2c-6-2-10-3-11-4-3-2-4-5-4-8s1-5 3-8c4-3 8-4 14-4 5 0 9 1 11 3 3 1 5 4 5 7l-9 2c-1-2-2-3-3-4s-3-1-5-1-4 0-5 1-1 2-1 3 0 1 1 2c1 0 3 1 6 2 5 1 8 3 10 4 2 2 4 5 4 7 0 4-2 7-5 10s-7 4-13 4c-5 0-10-1-13-3s-5-5-6-9z"/></g></svg>