<svg height="921" width="2500" xmlns="http://www.w3.org/2000/svg" viewBox="-0.047 -0.3870000000000001 2000.219 737.9790000000002"><path d="M0 0h2000v737H0V0z" fill="#fefefe"/><path d="M223 28v2h2l.7 1.715c.984 2.215 1.961 4.262 3.3 6.285 2.615 1.128 2.615 1.128 5 1v2h2v2h6c.732 2.279 1.145 3.565.375 5.875-.6 3.399.863 5.247 2.625 8.125l2.25 2.188c12.55 12.834 15.163 27.868 14.98 45.05-.152 4.953-1.208 9.386-2.507 14.157-.944 4.708-1.08 9.314-1.223 14.105-.62 19.147-1.842 50.219-15.184 65.418L242 199c1.49-6.165 3.074-12.265 4.941-18.328 2.393-8.33 3.592-16.722 4.746-25.297.318-2.29.637-4.58.959-6.87.197-1.409.39-2.818.581-4.227.345-2.515.698-4.984 1.324-7.446 3.211-13.095 1.03-30.706-4.977-42.672-3.358-5.353-7.346-8.674-12.574-12.16a115.122 115.122 0 0 0-8.55-.3l-2.578-.014a971.153 971.153 0 0 0-5.42-.002c-2.716.003-5.432-.02-8.15-.045-19.925-.24-19.925-.24-37.302 8.361-8.496 8.955-7.454 24.888-7.336 36.468.023 2.463.02 4.926.014 7.39.022 12.883 1.224 25.422 4.072 38.017l.495 2.224c1.917 8.195 4.771 16.043 7.755 23.901h-2c-7.813-14.13-12.332-29.13-15-45l-4 1-1-2 3-1v-3l-5 2c-4-4.75-4-4.75-4-7h-2c-.26 1.239-.52 2.478-.79 3.754-1.287 5.798-2.942 11.478-4.585 17.184-2.301 8.087-4.434 16.157-6.142 24.39a168.725 168.725 0 0 1-3.241 12.81c-3.082 10.484-5.074 21.032-6.867 31.8A2209.176 2209.176 0 0 0 125 253l-.39 2.356c-3.47 21.04-6.01 42.182-8.172 63.393l-.327 3.179c-1.43 14.03-2.654 28.051-3.424 42.133l-.118 2.177c-.369 6.924-.666 13.827-.569 20.761.594-.92 1.189-1.84 1.8-2.79 11.243-17.242 24.008-34.276 40.2-47.21l2.309-1.863c10.716-8.5 10.716-8.5 15.691-9.137a85.67 85.67 0 0 1 7.25 2.125l4.344 1.418 2.23.74a630.554 630.554 0 0 0 9.926 3.154l1.966.616A1369.92 1369.92 0 0 0 214 339a1882.055 1882.055 0 0 1 18.75 5.687l1.994.618c3.349 1.052 6.627 2.193 9.881 3.507 6.539 2.301 10.196.986 16.375-1.812h3v-3l-1.5.5c-3.534.707-6.897.56-10.5.5v-2l3-1 1-2-3 1c-9.575.971-16.446-.758-24.938-5.063l-3.186-1.537A641.61 641.61 0 0 1 216 330l-3.746-1.867a1083.114 1083.114 0 0 1-6.254-3.164c-9.86-4.93-19.976-9.382-30-13.969.142-2.042.29-4.084.438-6.125l.246-3.445c.316-3.43.316-3.43.84-6.576.688-4.13.66-8.177.664-12.354l.037-2.512c.014-5.966-.733-10.557-3.912-15.738-3.105-7.687.02-18.695 2.687-26.25 8.07-2.69 17.304-1.334 25 2 3.125 2.062 3.125 2.062 5 4v2c3.53-1.103 6.066-2.74 8.938-5 6.268-4.786 12.274-5.957 20.062-5 7.792 2.294 7.792 2.294 10.223 5.727 2.014 5.891 1.916 13.31-.309 19.097a256.383 256.383 0 0 1-2.734 4.906c-1.934 3.72-2.101 7.13-2.18 11.27l-.082 3.7A210.483 210.483 0 0 0 242 305l1.956-.459c2.93-.685 5.862-1.363 8.794-2.041l3.078-.723 2.969-.683c.9-.21 1.801-.42 2.73-.635C264 300 264 300 268 300l.148-3.129c.575-11.482 1.5-22.915 2.539-34.364.29-3.252.572-6.505.85-9.759.256-2.987.514-5.974.772-8.961l.372-4.363c.35-4.119.719-8.234 1.119-12.348.137-1.419.269-2.838.396-4.257.199-2.162.42-4.32.648-6.48l.38-3.835c1.032-4.662 3.17-7.831 6.452-11.25 3.636-1.962 7.476-2.557 11.511-3.317 1.64-.323 3.28-.647 4.918-.972l2.447-.476c3.187-.637 6.356-1.342 9.525-2.059 2.3-.515 4.609-.982 6.923-1.43v2l2.375.937C322 197 322 197 324 198l2-9c4.47.28 7.138.903 10.812 3.5 4.471 2.969 8.814 4.142 14.188 3.5 3.297-2.22 3.297-2.22 6-5 3.706-1.557 5.943-2 10-2l1 9 2.875-1.5C374 195 374 195 376 195v-2c8.224 1.04 16.333 2.587 24.437 4.312l2.87.572c5.904 1.297 9.575 2.613 13.693 7.116 4.622 7.379 6.58 16.014 9 24.312.85 2.894 1.704 5.786 2.562 8.676l.627 2.113c1.476 4.923 3.15 9.745 4.953 14.558 1.22 3.327 2.198 6.683 3.17 10.091a3275.367 3275.367 0 0 0 1.935 6.678c1.468 5.013 2.986 10.011 4.503 15.01l.927 3.07.87 2.863.776 2.56c.63 2.099.63 2.099 1.677 4.069.121 1.622.175 3.249.187 4.875l.043 2.617c-.241 2.632-.9 4.248-2.23 6.508h-2l-1 3c-5.206 3.464-10.658 5.466-16.563 7.437-8.174 2.782-16.302 5.658-24.437 8.563l-1 42h-6c.108 26.933.221 53.867.34 80.8.054 12.51.108 25.02.157 37.53.044 10.926.09 21.852.14 32.777.026 5.766.05 11.531.072 17.297.088 23.687.267 47.361.943 71.04.445 15.708.462 31.405.41 47.119-.005 2.8-.01 5.6-.013 8.4-.01 6.679-.027 13.358-.049 20.037 1.589.644 3.179 1.286 4.769 1.927l2.683 1.085c9.583 3.716 19.786 5.526 29.892 7.18 3.948.872 7.048 2.002 10.656 3.808.937 2.188.937 2.188 1 4-36.008 24.421-116.855 13.608-158.067 13.974-2.606.023-5.212.05-7.818.076-8.853.087-17.704.068-26.557-.024-2.886-.03-5.772-.055-8.658-.08C108.658 719.654 108.658 719.654 90 707c.062-1.813.062-1.813 1-4 4.66-2.31 8.982-3.583 14.125-4.5l2.018-.363c9.247-1.618 18.556-2.871 27.857-4.137l-1.664-.24c-13.468-1.991-26.719-4.628-39.961-7.76l-2.154-.507C81.73 683.253 72.358 680.74 63 678v-26l-8-1c-3-1.063-3-1.063-5-2a440.074 440.074 0 0 1 2-50l-2.036-.17-2.694-.244-2.661-.233c-3.25-.44-6.094-1.428-9.164-2.54-2.768-.92-5.533-1.56-8.383-2.188-5.633-1.255-11.19-2.706-16.75-4.25l-2.396-.662C2.257 587.13 2.257 587.13 0 586c-.047-5.809.085-11.537.516-17.328l.168-2.347c.184-2.526.374-5.05.566-7.575l.2-2.647c2.014-26.462 4.736-52.798 9.046-78.99.717-4.429 1.385-8.864 2.055-13.3 4.027-26.587 4.027-26.587 6.437-37.231.657-2.91 1.253-5.816 1.766-8.754 4.388-25.067 11.108-49.729 17.558-74.328l.626-2.393c2.475-9.442 5.13-18.794 8.062-28.107.671-2.197 1.34-4.395 2.008-6.594 6.793-22.22 14.275-44.168 22.296-65.977a444.5 444.5 0 0 0 5.446-15.742c1.525-4.655 3.217-9.092 5.29-13.527 1.09-2.454 1.998-4.942 2.897-7.473 1.746-4.896 3.693-9.678 5.72-14.464a423.873 423.873 0 0 0 3.475-8.643c2.68-6.826 5.612-13.491 8.763-20.115a691.606 691.606 0 0 0 4.867-10.524c5.205-11.435 10.536-22.73 16.492-33.793a605.127 605.127 0 0 0 6.21-11.921c7.117-13.96 14.495-27.648 22.513-41.118L156 58l1.542-2.56 1.419-2.424 1.267-2.132c1.08-2.05 1.08-2.05-.228-4.884 2-2 2-2 5.125-2.125L168 44l.25-1.875L169 40l2-.938L173 38c.671-2.44.671-2.44 1-5l2-3h2v-2c15.752-8.458 29.25-9.432 45 0z" fill="#d6792e"/><path d="M0 0l157.313-.188 49.75-.082c19.982-.014 19.982-.014 29.324-.016 6.552-.003 13.104-.014 19.657-.03 7.55-.02 15.099-.029 22.649-.024 3.865.001 7.73-.001 11.595-.018 4.131-.017 8.262-.011 12.393-.003l3.686-.026 3.344.018 2.897-.004C315.47.073 316.162.833 318 3c1.982 1.36 3.98 2.698 6 4-2.741.75-5.053 1.084-7.938 1.313C309.801 8.94 303.947 11.024 298 13v1l2.555.367 3.32.508 3.305.492C310 16 310 16 312 18l-2.23.48C303.71 19.93 299.887 21.041 296 26l2.813.938c3.838 2.484 4.96 4.283 6.187 8.617 0 4.038-2.533 5.971-5.135 8.847-5.75 8.01-4.208 21.44-4.18 31.026.002 2.306-.021 4.61-.046 6.916-.038 9.187.871 17.776 2.637 26.785.964 5.153 1.42 10.273 1.787 15.496.157 1.962.318 3.925.48 5.887l.232 2.83c1.087 13.4 1.087 13.4 6.225 25.658l1 3h2v2l1.688.75c2.736 1.48 4.989 3.185 7.312 5.25v2l1.563.688C323 174 323 174 324.473 175.245c4.03 3.364 7.219 4.623 12.492 4.395 5.557-1.173 10.586-3.676 15.691-6.11C356 172 356 172 358 172v16l-11 1 6 5c-2.428 2.915-2.428 2.915-4.91 3.285-5.886-.609-9.851-2.593-14.73-5.91-2.49-1.451-4.524-1.973-7.36-2.375l-1 9c-3.599 0-5.095-.958-8-3v-2l-2.813 1.375c-5.762 2.47-11.943 3.11-18.093 4.086-9.695 1.406-9.695 1.406-17.21 7.17-2.077 3.715-2.713 6.871-3.08 11.03l-.235 2.223a672.852 672.852 0 0 0-.694 7.179c-.168 1.67-.336 3.341-.506 5.012-1.115 11.209-1.955 22.426-2.646 33.668-.751 11.812-2.165 23.527-3.723 35.257-3.394.843-6.79 1.672-10.188 2.5l-2.908.723-2.822.683-2.587.635c-2.554.47-4.903.54-7.495.459-2.001-9.434-2.304-18.416-2-28l.055-2.668c.263-4.373 1.331-7.214 3.507-11.02 3.346-6.16 3.258-12.458 2.438-19.312-1.29-3.675-1.805-3.902-5.5-5.75-6.902-2.276-13.908-2.124-20.621.684-2.774 1.574-4.987 3.613-7.238 5.859C211 246 211 246 207 246l-2.125-2.313c-6.956-6.502-15.936-5.98-24.945-5.792L177 238l-.375 3.938a65.865 65.865 0 0 1-1.75 9.625c-1.051 4.52-.876 7.895.125 12.437 1.44 2.17 1.44 2.17 3 4 3.783 13.573.544 29.48-2 43l2.543.798c3.69 1.283 7.221 2.81 10.77 4.432l2.093.95c1.46.664 2.918 1.329 4.377 1.995 2.18.996 4.365 1.986 6.549 2.975 10.855 4.934 21.577 10.067 32.043 15.788 6.906 3.168 14.207 2.48 21.625 2.062l-1 3h-3v2l12-1v3c-6.93 3.435-12.392 4.896-20 3a205.097 205.097 0 0 1-5.867-2.186c-3.49-1.331-7.028-2.51-10.57-3.689l-2.36-.787c-5.895-1.948-11.827-3.724-17.793-5.439-5.31-1.54-10.549-3.25-15.785-5.024-11.686-4.978-11.686-4.978-23.625-4.875-6.494 3.828-12.131 8.725-17.64 13.832-2.03 1.864-4.106 3.61-6.235 5.356-12.232 10.734-21.587 24.766-30.406 38.312L112 388h-1c.643-28.629 2.949-57.097 6-85.563l.235-2.213c2.107-19.654 5.14-39.144 8.562-58.609.579-3.308 1.145-6.619 1.71-9.93 1.939-11.157 4.208-22.031 7.404-32.897 1.387-4.825 2.384-9.676 3.339-14.6 2.87-14.034 7.327-27.582 11.75-41.188h2a125.024 125.024 0 0 1 4 6l5-2 1 4-3 2 5-1 .664 3.813C167.263 170.076 171.06 183.188 178 196l-.566-1.637c-1.89-5.55-3.525-11.126-4.996-16.8l-.658-2.526c-3.74-14.518-4.985-28.298-5.02-43.258-.01-2.51-.041-5.02-.072-7.529-.17-25.888-.17-25.888 7.312-34.25 10.8-10.217 26.578-9.42 40.48-9.48 2.713-.02 5.423-.082 8.135-.145 15.689-.191 15.689-.191 21.014 4.982L245 87l1.72 1.854c4.874 5.444 6.544 12.193 8.28 19.146l.582 2.309c2.874 18.508-1.168 37.538-4.582 55.691l-.368 1.963c-1.438 7.607-3.018 15.082-5.32 22.475l-.681 2.251A943.099 943.099 0 0 1 243 198c.942-2.144 1.879-4.29 2.813-6.438l1.582-3.62c3.185-7.638 5.243-15.246 6.73-23.38l.512-2.658c1.616-8.636 2.394-17.167 2.654-25.944.42-13.883.42-13.883 2.272-20.648 4.18-15.594 2.148-32.514-5.743-46.414-2.046-3.258-4.265-6.034-6.82-8.898v-2l-3-1c-2.64-4.807-3.464-7.542-2-13l-6-1v-2h-2l-1-2-3-1-1 2a651.927 651.927 0 0 1-2-3.875l-1.125-2.18C225 32 225 32 225 30h-2v-2l-2.063-.813C218 26 218 26 215.063 24.438 206.626 20.828 195.61 21.07 187 24c-2.451 1.2-4.68 2.55-7 4h-2v2l-1.375 1.313c-1.797 1.642-1.797 1.642-2.563 4.187-1.232 2.9-2.542 3.712-5.062 5.5l-1 3c-3.563 1.188-3.563 1.188-7 2l.623 1.766c.475 2.813-.065 3.61-1.588 5.98l-1.401 2.244-1.571 2.447c-5.376 8.654-10.418 17.445-15.313 26.376-.347.632-.694 1.264-1.05 1.916-1.669 3.044-3.333 6.09-4.992 9.138-1.367 2.507-2.74 5.01-4.118 7.512-5.48 10.069-10.354 20.422-15.248 30.785a1891.75 1891.75 0 0 1-3.764 7.902c-6.839 14.307-13.394 28.703-19.203 43.461a508.236 508.236 0 0 1-4.063 9.91 262.435 262.435 0 0 0-4.511 11.477c-.967 2.52-2.044 4.983-3.114 7.461-2.466 5.861-4.497 11.822-6.456 17.867-2.488 7.665-5.284 15.212-8.09 22.766-7.25 19.563-13.498 39.435-19.389 59.445-.78 2.644-1.57 5.285-2.361 7.926-9.989 33.564-20.155 68.139-24.82 102.914-.516 3.348-1.228 6.521-2.08 9.793-3.005 11.722-4.381 23.858-5.957 35.83A527.198 527.198 0 0 1 9.5 490.845c-1.489 8.732-2.574 17.473-3.5 26.281l-.25 2.323C3.701 538.594 2.32 557.792 1 577H0V0z" fill="#fefefe"/><path d="M1382 359c8.152.131 12.822 2.768 19 8 4.16 4.368 5.773 7.953 6.438 13.938-.48 14.7-10.335 30.033-16.438 43.062a4677.44 4677.44 0 0 0-1.988 4.281 1363.583 1363.583 0 0 1-6.969 14.809c-3.714 7.775-7.252 15.577-10.434 23.587-1.693 4.231-3.544 8.363-5.476 12.491-3.117 6.71-5.93 13.51-8.633 20.394l-1.441 3.67c-3.912 10.106-7.268 20.298-10.059 30.768l-.589 2.125c-1.035 3.87-1.647 7.37-1.536 11.375l.055 2.594.07 1.906c17.97-10.519 31.621-37.893 38.875-56.813 7.134-18.133 18.748-33.417 36.32-42.296 8.083-2.567 19.079-2.309 26.743 1.296 5.73 3.5 7.024 7.64 9.062 13.813 9.558-22.798 18.89-45.76 26.923-69.146 1.542-4.463 3.255-8.838 5.024-13.215a430.654 430.654 0 0 0 3.123-8.104l1.028-2.732c.695-1.854 1.387-3.708 2.078-5.563l1.02-2.705.906-2.425C1496 362 1496 362 1498 359c8.152.131 12.822 2.768 19 8 4.111 4.317 6.072 8.232 6.313 14.188-.251 8.471-3.48 15.43-7.338 22.857-3.238 6.294-5.967 12.79-8.69 19.32-2.133 5.078-4.443 10.005-6.937 14.915-2.686 5.419-5.13 10.95-7.598 16.47l-.856 1.91c-4.907 10.96-9.547 22.015-14.014 33.163-1.133 2.804-2.318 5.584-3.505 8.364-4.897 11.82-9.31 23.608-12.313 36.063-.21.869-.422 1.737-.64 2.633-1.105 4.824-1.643 9.17-1.422 14.117 3.418 0 5.35-2.564 7.797-4.773 10.918-11.035 19.117-26.502 26.203-40.227l.896-1.715c7.479-14.35 13.938-29.134 19.026-44.504 3.42-10.168 3.42-10.168 6.078-13.781 3.786-1.591 5.531-1.159 9.402.152 14.535 7.34 14.535 7.34 17.598 13.848 2.76 11.178-2.953 20.457-8 30a1036.895 1036.895 0 0 0-3.75 7.438l-1.727 3.425c-1.699 3.499-3.177 7.03-4.566 10.66-1.07 2.77-2.23 5.495-3.395 8.227-6.644 15.133-6.644 15.133-9.562 31.25l2 2 2.938-2.375 1.652-1.336c1.543-1.256 1.543-1.256 2.41-3.289h2l.688-1.55c1.825-3.407 4.086-6.487 6.312-9.638 8.565-12.314 16.091-25.002 22-38.812l1.45-3.387c.997-2.338 1.992-4.678 2.984-7.02 1.611-3.697 3.327-7.33 5.066-10.968 3.664-7.693 6.624-15.61 9.5-23.625 5.719-1.215 9.565-.67 15.063 1.188l2.064.634c4.435 1.436 8.41 2.964 11.873 6.178 1.095 6.549-.95 11.148-3.875 16.938-.403.823-.806 1.646-1.22 2.495-3.5 7.032-7.435 13.774-11.483 20.5-13.363 21.71-13.363 21.71-18.422 46.067l.911-1.534c7.502-12.615 15.145-25.125 23.089-37.466.42-.653.84-1.305 1.271-1.978 7.113-11.01 14.839-21.56 22.729-32.022l1.913-2.571 1.888-2.5 1.712-2.281L1624 463h2l.746-1.73c2.433-4.404 6.053-7.566 10.254-10.27 3.31-.738 5.804-.005 9 1l3.504 1.035c11.736 3.806 11.736 3.806 15.496 8.965.012 5.313-1.94 9.8-4.125 14.562l-.952 2.13c-1.94 4.292-4.014 8.496-6.173 12.683-9.545 18.83-20.303 40.154-20.75 61.625 2.226-1.054 3.87-1.87 5.625-3.625L1640 548h2l.875-2.313C1644 543 1644 543 1646 540h2l.676-1.965c1.794-4.113 4.139-7.796 6.512-11.597a6865.72 6865.72 0 0 0 2.988-4.856l1.467-2.38L1661 517l1.119-1.815c3.787-6.183 6.893-12.326 9.576-19.06 2.19-5.244 4.812-10.264 7.398-15.32.914-1.819 1.793-3.65 2.665-5.489 7.239-15.164 17.726-28.517 33.883-34.59 10.897-3.355 20.36-1.883 30.359 3.274v2l3 1c1.133 1.559 1.133 1.559 2.125 3.438l1.008 1.87c.629 1.228 1.25 2.459 1.867 3.692l2.25-2.062C1759 452 1759 452 1760.875 452c3.159 1.486 6.126 3.212 9.125 5v2l1.875.75c2.476 1.456 3.076 2.628 4.125 5.25h2c4.46 8.734 3.16 16.641 1.25 26l-.556 2.786c-.553 2.74-1.122 5.477-1.694 8.214l-.453 2.237c-2.34 11.446-5.95 22.387-9.742 33.427-1.4 4.084-2.673 8.17-3.805 12.336 14.111-9.215 14.111-9.215 22.664-22.793.098-1.833.152-3.668.16-5.504.423-6.504 4.023-12.014 8.801-16.265 2.224-1.777 3.609-2.516 6.375-3.438 1.36-2.522 1.36-2.522 2.5-5.5 1.219-3.031 1.219-3.031 2.5-5.5l3-1 .305-3.543c.54-4.277 1.922-7.919 3.82-11.77l.943-1.957c10.573-21.483 10.573-21.483 19.87-26.23l2.062-.5v-2c11.726-5.943 24.087-9.24 37.125-5.875 6.509 2.19 11.817 5.612 15.313 11.625L1890 453l1 2c.637 8.18.116 13.615-4.688 20.375-2.923 2.055-4.89 2.205-8.406 2.008C1876 477 1876 477 1873.5 475.375c-1.902-3.012-1.88-4.872-1.5-8.375l1-2c.402-5.22-.1-8.6-3-13-2.548-1.881-2.548-1.881-5-3-4.135 4.135-3.239 10.013-3.258 15.524.097 8.378 1.303 16.592 2.504 24.87 1.444 10.301 1.896 20.461 1.816 30.856l-.013 3.45c-.012 2.766-.028 5.533-.049 8.3 14.349-13.742 25.26-28.109 34-46 7.322-.36 7.322-.36 10 1.063 1.605 3.11 1.735 5.593 1 8.937-6.922 16.414-19.77 31.261-33.352 42.598-1.826 1.503-1.826 1.503-3.96 3.84-14.67 13.986-32.312 22.717-52.688 22.562-10.883-.663-20.218-5.353-27.637-13.32-1.698-2.093-3.02-4.348-4.363-6.68h-2l-1 3h-2v2c-2.474 2.244-5.262 4.092-8 6l-1.926 1.363c-5.82 3.893-12.962 7.637-20.074 7.637l-.79 2.633c-1.218 3.389-2.718 6.169-4.585 9.242-1.967 3.289-3.883 6.526-5.5 10-7.672 15.735-19.157 29.514-31.125 42.125l-1.762 1.992c-9.06 9.906-23.635 18.427-37.18 19.246-11.841.285-21.731-.73-31.273-8.468-6.376-6.321-9.951-13.661-10.217-22.682-.037-14.348 4.267-24.728 14.432-35.088 20.406-18.716 50.802-27.959 78.079-29.552 2.459-.573 3.339-1.51 4.921-3.448 5.744-10.473 9.441-21.648 13-33l1.484-4.629c.465-1.457.928-2.914 1.391-4.371l.653-2.05c1.104-3.41 1.104-3.41 1.472-6.95l-1.285 2.273c-3.916 6.835-8.063 13.37-12.715 19.727l-1.578 2.281L1730 526h-2l-.773 1.781c-3.034 5.487-9.236 9.994-14.903 12.555-6.996 1.999-14.15 1.613-20.762-1.398-7.809-4.52-11.381-10.687-14.562-18.938-2.478 2.267-4.036 4.585-5.688 7.5-7.096 12.026-17.323 28.837-31.312 33.5-5.601.786-8.41.117-13.125-3.062-7.399-5.672-11.655-10.81-13.875-19.938-.444-3.47-.524-6.879-.5-10.375l.013-2.888c.336-14.313 4.965-27.65 10.487-40.737a708.945 708.945 0 0 0-13.938 19.563l-1.468 2.128c-2.467 3.551-2.467 3.551-4.594 7.309h-2l-.715 2.063c-1.57 3.588-3.648 6.715-5.848 9.937l-1.327 1.97a1243.231 1243.231 0 0 1-11.395 16.518c-1.698 2.366-1.698 2.366-2.715 4.512h-2l-.688 2c-3.425 7.83-3.425 7.83-6.312 11-5.475 1.158-10.997-.65-16-3-3.905-3.141-6.157-6.344-8-11-.188-2.875-.188-2.875 0-5h-2l-.813 1.75c-1.216 2.306-2.49 4.27-4.187 6.25h-2l-1 3c-2.215 1.79-2.215 1.79-4.938 3.625l-2.714 1.852c-4.08 2.647-7.523 3.406-12.348 2.523-3.06-1.598-5.48-3.657-8-6-.84-.742-.84-.742-1.695-1.5-6.39-6.421-7.988-15.83-9.305-24.5l-1.25 2.055c-4.115 6.632-8.374 13.248-13.75 18.945h-2l-1 3c-1.996 1.57-1.996 1.57-4.438 3.125l-2.433 1.57c-4.401 2.697-8.017 3.05-13.129 2.305-2.953-1.304-5.594-2.836-8-5v-2l-1.805-.703c-2.757-1.629-3.723-3.287-5.32-6.047l-1.508-2.547c-3.141-6.21-3.745-11.733-3.992-18.578l-.117-2.664c-.094-2.153-.177-4.307-.258-6.461l-1.617 2.824c-18.89 32.523-18.89 32.523-33.383 39.176-2.751.341-5.194.51-7.938.5l-2.091.086c-3.839.014-6.373-.515-9.334-2.875-2.163-2.224-3.62-3.81-4.887-6.586l-.89-1.867c-1.155-3.033-2-6.13-2.86-9.258l-1.898 2.625-2.477 3.375-1.25 1.734c-1.077 1.46-2.222 2.867-3.375 4.266h-2v2c-2.117 1.691-2.117 1.691-4.875 3.563l-2.742 1.878c-4.491 2.938-8.073 3.42-13.383 2.559-8.945-4.106-15.139-11.586-19.031-20.469-2.091-7.621-1.884-15.672-1.969-23.531l-1.617 2.824c-7.21 12.412-15.241 24.883-26.383 34.176h-2v2c-4.06 3.229-7.93 3.519-12.938 3.5l-2.091.086c-3.846.015-6.373-.517-9.334-2.887-5.812-5.949-7.38-12.631-8.637-20.699l-2.605 2.781c-7.512 7.862-14.624 14.246-24.395 19.219l-2.555 1.367c-6.073 2.743-12.006 3.003-18.57 3.07l-2.531.032c-9.025-.128-17.327-2.54-23.903-9-8.202-9-10.833-19.193-10.754-31.156l.015-2.665c.366-20.48 9.29-41.287 23.446-56.101 10.223-9.13 20.185-14.068 34.082-13.863 7.96.668 14.16 3.706 19.77 9.316 4.628 6.543 4.539 13.2 4 21-1.215 6.315-3.587 11.586-7 17h-2l-.742 1.75c-4.493 8.037-13.231 12.279-21.446 15.5-7.17 1.41-14.68 1.407-21.812-.25-3.618 12.437-7.322 25.824-1 38 4.914 3.276 10.259 2.523 16 2 17.571-4.393 29.87-21.206 38.704-35.81 4.778-8.074 9.1-16.24 12.46-25.014 4.402-11.456 13.428-27.061 24.774-32.613L1295 459v-2c9.124-5.627 18.55-6.506 29-5 5.046 1.475 8.655 3.36 12 7.438 1.102 2.824 2.05 5.684 3 8.562 9.213-21.984 17.881-44.134 25.762-66.629 1.3-3.54 2.698-7.03 4.107-10.527a671.636 671.636 0 0 0 3.639-9.403c.43-1.127.858-2.254 1.3-3.416.888-2.335 1.774-4.67 2.657-7.007l1.293-3.39 1.16-3.06C1380 362 1380 362 1382 359z"/><path d="M223 28v2h2l.7 1.715c.984 2.215 1.961 4.262 3.3 6.285 2.615 1.128 2.615 1.128 5 1v2h2v2h6c.732 2.279 1.145 3.565.375 5.875-.6 3.399.863 5.247 2.625 8.125l2.25 2.188c12.55 12.834 15.163 27.868 14.98 45.05-.152 4.953-1.208 9.386-2.507 14.157-.944 4.708-1.08 9.314-1.223 14.105-.62 19.147-1.842 50.219-15.184 65.418L242 199c1.49-6.165 3.074-12.265 4.941-18.328 2.393-8.33 3.592-16.722 4.746-25.297.318-2.29.637-4.58.959-6.87.197-1.409.39-2.818.581-4.227.345-2.515.698-4.984 1.324-7.446 3.211-13.095 1.03-30.706-4.977-42.672-3.358-5.353-7.346-8.674-12.574-12.16a115.122 115.122 0 0 0-8.55-.3l-2.578-.014a971.153 971.153 0 0 0-5.42-.002c-2.716.003-5.432-.02-8.15-.045-19.925-.24-19.925-.24-37.302 8.361-8.496 8.955-7.454 24.888-7.336 36.468.023 2.463.02 4.926.014 7.39.022 12.883 1.224 25.422 4.072 38.017l.495 2.224c1.917 8.195 4.771 16.043 7.755 23.901h-2c-7.813-14.13-12.332-29.13-15-45l-4 1-1-2 3-1v-3l-5 2c-4-4.75-4-4.75-4-7h-2c-.26 1.239-.52 2.478-.79 3.754-1.287 5.798-2.942 11.478-4.585 17.184-2.301 8.087-4.434 16.157-6.142 24.39a168.725 168.725 0 0 1-3.241 12.81c-3.082 10.484-5.074 21.032-6.867 31.8A2209.176 2209.176 0 0 0 125 253l-.39 2.356c-3.47 21.04-6.01 42.182-8.172 63.393l-.327 3.179c-1.43 14.03-2.654 28.051-3.424 42.133l-.118 2.177c-.369 6.924-.666 13.827-.569 20.761.594-.92 1.189-1.84 1.8-2.79 13.645-20.926 29.276-39.036 49.2-54.21l2 1-1.617 1.695C152.888 343.99 144.604 356.63 137 370l-1.104 1.915C125.489 390.096 118.096 409.996 112 430l-.618 2.01C103.169 459.087 98.162 487.056 94 515l-.582 3.873C89.218 547.72 87.835 576.928 86 606c-1.74-.148-3.48-.298-5.22-.45l-2.935-.253c-3.975-.415-7.823-1.18-11.72-2.047l-2.423-.525C49.044 599.513 34.468 595.982 20 592l-2.353-.642c-2.487-.68-4.973-1.362-7.46-2.045l-2.375-.65C2.232 587.115 2.232 587.115 0 586c-.047-5.809.085-11.537.516-17.328l.168-2.347c.184-2.526.374-5.05.566-7.575l.2-2.647c2.014-26.462 4.736-52.798 9.046-78.99.717-4.429 1.385-8.864 2.055-13.3 4.027-26.587 4.027-26.587 6.437-37.231.657-2.91 1.253-5.816 1.766-8.754 4.388-25.067 11.108-49.729 17.558-74.328l.626-2.393c2.475-9.442 5.13-18.794 8.062-28.107.671-2.197 1.34-4.395 2.008-6.594 6.793-22.22 14.275-44.168 22.296-65.977a444.5 444.5 0 0 0 5.446-15.742c1.525-4.655 3.217-9.092 5.29-13.527 1.09-2.454 1.998-4.942 2.898-7.473 1.745-4.896 3.692-9.678 5.718-14.464a423.873 423.873 0 0 0 3.476-8.643c2.68-6.826 5.612-13.491 8.763-20.115a691.606 691.606 0 0 0 4.867-10.524c5.205-11.435 10.536-22.73 16.492-33.793a605.127 605.127 0 0 0 6.21-11.921c7.117-13.96 14.495-27.648 22.513-41.118L156 58l1.542-2.56 1.419-2.424 1.267-2.132c1.08-2.05 1.08-2.05-.228-4.884 2-2 2-2 5.125-2.125L168 44l.25-1.875L169 40l2-.938L173 38c.671-2.44.671-2.44 1-5l2-3h2v-2c15.752-8.458 29.25-9.432 45 0z" fill="#e7b084"/><path d="M326 189c4.47.28 7.138.903 10.813 3.5 4.47 2.969 8.813 4.142 14.187 3.5 3.297-2.22 3.297-2.22 6-5 3.706-1.557 5.943-2 10-2l1 9 2.875-1.5C374 195 374 195 376 195v-2c8.224 1.04 16.333 2.587 24.438 4.313l2.87.57c5.903 1.298 9.574 2.614 13.692 7.117 4.622 7.379 6.58 16.014 9 24.313.85 2.893 1.704 5.785 2.563 8.675l.626 2.113c1.476 4.923 3.15 9.745 4.953 14.558 1.22 3.327 2.198 6.683 3.17 10.091a3275.367 3275.367 0 0 0 1.935 6.678c1.468 5.013 2.986 10.011 4.503 15.01l.927 3.07.87 2.863.776 2.56c.63 2.099.63 2.099 1.677 4.069.121 1.622.175 3.249.188 4.875l.042 2.617c-.241 2.632-.9 4.248-2.23 6.508h-2l-1 3c-5.206 3.464-10.658 5.466-16.563 7.438-8.174 2.781-16.302 5.657-24.437 8.562l-1 42h-6c.108 26.933.221 53.867.34 80.8.054 12.51.108 25.02.157 37.53.044 10.926.09 21.852.14 32.777.026 5.766.05 11.531.072 17.297.088 23.687.267 47.361.943 71.04.445 15.708.462 31.405.41 47.119-.005 2.8-.01 5.6-.013 8.4-.01 6.679-.027 13.358-.049 20.037 1.602.649 3.204 1.295 4.807 1.941l2.703 1.092c3.426 1.33 6.903 2.253 10.459 3.158C417 696 417 696 419 699c.125 2.688.125 2.688 0 5-5.53 3.587-10.621 3.694-17 3-3.738-1.118-7.176-2.685-10.688-4.375-6.089-2.838-11.753-5.14-18.312-6.625-1-1-1-1-1.063-4.563L372 688h-11c-.837-13.573-1.333-27.142-1.719-40.734l-.19-6.51c-.166-5.687-.33-11.374-.492-17.06-.13-4.538-.263-9.076-.395-13.614-.163-5.564-.324-11.128-.485-16.691l-.096-3.301c-.32-11.111-.632-22.222-.904-33.334l-.066-2.65c-.1-4.008-.196-8.016-.286-12.024a431.714 431.714 0 0 0-1.145-22.93c-.309-4.386-.412-8.76-.468-13.156l-.096-5.604c-.015-.97-.03-1.938-.047-2.936-.346-21.442-1.046-42.86-1.95-64.286-.527-12.733-.78-25.426-.661-38.17h-10l.035 2.867c.137 16.181-.943 32.09-3.035 48.133-2.864-3.34-4.163-6.9-5.563-11-8.203-22.802-21.23-46.951-37.261-65.27C294 367 294 367 294 364c1.812-1.062 1.812-1.062 4-2l3 1-2 3 3.375-1.75c4.043-2.04 8.176-3.668 12.426-5.223 2.259-.9 2.259-.9 3.804-2.648C320 355 320 355 323 355l1 2 2-1-1.313-2.992-1.687-3.883-.867-1.973C320 342.227 320 342.227 320 340h-3l1 5c-4.185 1.198-6.502.753-10.5-.875-3.505-1.408-6.772-2.49-10.5-3.125 2.49 2.667 4.634 4.557 8 6v2a664.623 664.623 0 0 1-4.313 1.5l-2.425.844C296 352 296 352 293 352v-23l-11.063 1c-3.3.27-6.603.522-9.906.769-1.838.14-3.675.29-5.511.455-10.515.921-10.515.921-15.098-1.697-7.467-6.755-8.468-15.019-9.422-24.527 3.582-.84 7.166-1.671 10.75-2.5l3.078-.723 2.969-.683c.9-.21 1.801-.42 2.73-.635C264 300 264 300 268 300l.148-3.129c.575-11.482 1.5-22.915 2.539-34.364.29-3.252.572-6.505.85-9.759.256-2.987.514-5.974.772-8.961l.372-4.363c.35-4.119.719-8.234 1.119-12.348.137-1.419.269-2.838.396-4.257.199-2.162.42-4.32.648-6.48l.38-3.835c1.032-4.662 3.17-7.831 6.452-11.25 3.636-1.962 7.476-2.557 11.511-3.316l4.918-.973 2.447-.476c3.187-.637 6.356-1.342 9.525-2.059 2.3-.515 4.609-.982 6.923-1.43v2l2.375.938C322 197 322 197 324 198z" fill="#1d212a"/><g fill="#b78b49"><path d="M628.25 2.438l2.253-.006c8.8.257 16.134 3.493 22.497 9.568 5.456 6.71 7.582 12.272 7 21-1.175 6.178-3.23 9.918-8.184 13.809-6.266 4.11-12.44 4.156-19.816 3.191-4.035-1.962-6.192-4.63-8.438-8.438-.715-3.258-.754-6.238-.562-9.562 1-1 1-1 4.063-1.063L630 31l.516 1.898.734 2.477.703 2.46c.882 2.277.882 2.277 2.91 3.458 3.468 1.148 6.716.786 10.137-.293 2.94-2.354 2.94-2.354 5-5l1-1c.806-6.712.806-6.712-1.117-12.992-1.23-1.396-2.551-2.71-3.883-4.008v-2l-2.063-.813C641 14 641 14 637.938 12.376c-5.672-2.415-12.587-2.563-18.382-.508-2.094 1.026-2.094 1.026-3.934 2.16C614 15 614 15 611 16c-1.027 1.715-1.027 1.715-2 4-2 3.438-2 3.438-3 5.121-5.14 9.659-4.72 20.508-2 30.879 4.025 11.894 10.587 21.729 18.242 31.531C624 90 624 90 624 92l3 1v2l3 1v2h2v2l3 1v2l3 1v2h2v2l3 1v2h2c1.375 1.363 1.375 1.363 3 3.313a362.319 362.319 0 0 0 9.125 10.312C667 135.478 667 135.478 667 138h2a112.858 112.858 0 0 1 4.438 5.313c3.014 3.852 3.014 3.852 6.347 7.417C681 152 681 152 681 154h2c1.332 1.574 1.332 1.574 2.813 3.688 2.443 3.479 5.165 6.322 8.187 9.312l3.014 3.03c2.928 2.945 5.858 5.887 8.789 8.828a3865.96 3865.96 0 0 1 3.785 3.806 3724.44 3724.44 0 0 0 5.486 5.508l1.711 1.726c5.641 5.642 9.061 5.33 16.777 5.352 10.14-.004 19.591-.866 29.438-3.25l2.165-.52C782.747 187.142 799.57 180.553 816 173l2.233-1.023c13.471-6.2 26.597-12.994 39.626-20.07 7.614-4.125 15.321-7.958 23.169-11.62 3.548-1.657 7.083-3.317 10.554-5.13C916.788 122 916.788 122 925 122c-6.235-18.923-13.784-39.985-31.438-51.313L891 69v-2l-2.129-.824c-2.994-1.226-5.89-2.593-8.808-3.989-23.086-10.68-47.523-14.586-72.022-5.96-16.513 6.26-29.352 18.364-36.943 34.253-5.112 11.734-7.443 24.663-3.207 37.07 3.903 8.618 10.03 16.409 19.066 19.88 7.622 2.127 14.94 2.342 22.043-1.43 2.63-2.181 3.737-3.604 4.371-6.973.37-6.36-1.769-11.338-4.371-17.027-5.535-12.27-10.68-23.79-6.246-37.297 2.173-4.837 4.926-7.67 9.246-10.703 6.012-2.004 14.497-2.232 20.543-.105C834.437 75 834.437 75 837 77v2h2c5.657 9.393 5.657 9.393 6 15l.152 2.098c.717 17.62-6.982 34.702-18.695 47.601C825 145 825 145 823 145v2a87.968 87.968 0 0 1-6.063 4l-1.7 1.078c-8.723 5.343-18.269 6.453-28.206 4.27-11.493-3.762-19.831-11.59-25.539-22.133-6.611-14.337-5.057-28.927.258-43.403C764.145 84.58 766.806 78.255 771 73h2l.719-2.23c1.479-3.197 3.125-4.793 5.781-7.082l2.406-2.114C784 60 784 60 786 60v-2c14.84-11.196 33.027-14.592 51.188-14.5l2.044.007c26.461.184 49.73 10.047 68.956 28.243C919.107 83.126 932 102.34 932 119l3.27-.988c16.29-4.809 31.577-7.258 48.605-7.325l3.636-.016c17.679.142 35.5 3.661 51.489 11.329l1.793.86c9.002 4.38 16.77 9.35 24.207 16.14l2.207 1.996c8.968 8.522 14.74 18.822 19.793 30.004.28.613.56 1.227.85 1.858 2.266 5.39 2.7 10.331 2.713 16.142l.11 2.578c.042 5.935-1.325 9.25-5.087 13.828-2.159 2.17-3.84 3.51-6.926 3.86l-2.598-.016-2.59.016c-3.994-.43-5.934-1.664-8.597-4.641-3.503-4.904-4.23-8.477-4.188-14.5l.004-2.28c.103-6.099 1.207-11.703 2.625-17.634 1.808-8.492 1.494-16.76-3.316-24.211-3.052-3.124-6.378-5.573-10-8l-2.313-1.582C1037.664 130 1025.903 124.402 1014 123l1.688 1.145c8.973 6.472 17.245 16.272 19.897 27.284.689 4.266.64 8.507.665 12.821.03 1.355.03 1.355.063 2.738.064 11.238-3.686 20.035-11.387 28.215-8.411 7.927-18.86 12.368-30.504 12.047-9.18-.948-17.387-4.002-23.797-10.75-3.867-5.95-4.474-11.53-3.625-18.5 1.813-3.5 1.813-3.5 4-6l1.563-1.813c3.067-2.533 6.541-2.459 10.37-2.41 3.162.34 5.418 1.52 8.067 3.223 2 3 2 3 1.625 5.688L992 179c-1.625.75-1.625.75-4 1l-2.938-2.063c-2.866-2.308-2.866-2.308-5.812-1.375-2.51 1.391-2.51 1.391-4.25 4.438.258 3.475.258 3.475 1 7l.313 2.313c.979 2.403 2.355 2.62 4.687 3.687l2.227 1.07c8.566 3.767 15.887 4.18 24.68.836 9.313-4.03 14.423-9.457 18.331-18.89 3.951-10.456 2.268-20.54-2.144-30.504C1023 144 1023 144 1023 142h-2a64.343 64.343 0 0 1-3-3.563c-10.035-11.71-23.89-17.133-39-18.437-15.294-.937-29.483 2.688-44 7l.219 2.605c2.474 31.516-3.081 58.836-22.336 84.297L911 216h-2v2h-2l-1 3h-2l-1 3c-23.814 21.695-53.782 27.58-85 27l-3.035-.05C798.59 250.04 782.663 243.94 768 237l-2.19-1.03c-16.002-7.667-32.216-18.376-44.81-30.97a87.374 87.374 0 0 0-4.602-.648l-2.9-.353-3.123-.374c-33.983-4.298-66.231-16.039-97.087-30.72-9.61-4.526-19.44-8.57-29.248-12.642-1.843-.765-3.683-1.535-5.521-2.311-9.85-4.154-19.872-7.363-30.144-10.327l-3.632-1.05c-10.604-2.976-20.237-3.762-31.207-3.76-2.097-.002-4.194-.02-6.292-.04-1.353-.003-2.707-.005-4.06-.005l-3.67-.013c-5.585.386-10.603 2.166-15.764 4.243l-2.516 1c-2.443 1.02-2.443 1.02-5.234 3h-3v2c-1.68 1.508-1.68 1.508-3.875 3.125l-2.18 1.633C465 159 465 159 463 159l-1 3h-2c-.26.553-.52 1.106-.79 1.676-1.369 2.628-2.95 5.039-4.585 7.512-8.022 12.541-11.26 24.992-9.625 39.812 2.044 9.023 5.934 16.987 12 24l2 1v2l2.125.813C464 240 464 240 466.75 241.5c7.4 3.415 13.459 4.097 21.25 1.5v-2h2c-.02-5.126-.236-8.886-3.188-13.187-4.205-3.621-9.474-5.79-14.472-8.102-7.227-3.702-10.781-8.035-13.34-15.711-.775-6.44.036-11.76 4-17 6.67-6.288 11.962-7.32 20.969-7.21 9.489.66 16.512 6.281 22.781 13.085 8.475 10.115 10.251 21.168 9.506 33.999-.56 4.651-2.576 8.366-5.256 12.126l-1.543 2.258L508 243h-2v2c-12.21 7.022-22.72 10.262-36.813 6.813-4.98-1.557-9.04-3.662-13.187-6.813l-2.281-1.715C447.66 238.348 444.172 233.097 441 226l-1.254-2.562c-5.306-12.72-4.689-30.045.125-42.86L441 178l.91-2.203c8.048-17.697 23.266-30.936 40.902-38.61 33.46-11.153 73.401 1.46 104.188 14.813 1.476.617 2.952 1.231 4.43 1.844 8.041 3.34 16 6.778 23.868 10.509 12.601 5.934 25.533 11.1 38.613 15.873 2.245.832 4.478 1.693 6.71 2.56 15.823 6.081 31.69 9.457 48.379 12.214-2.131-2.755-4.011-5.009-6.75-7.187L700 186v-2h-2c-1.586-1.61-1.586-1.61-3.375-3.75-1.963-2.319-3.884-4.502-6.063-6.625C687 172 687 172 687 170l-3-1v-2h-2c-1.508-1.46-1.508-1.46-3.125-3.375l-1.633-1.898C676 160 676 160 676 158h-2a102.592 102.592 0 0 1-4.5-5.25l-2.406-2.953C665 147 665 147 663.906 144.703c-.849-2.067-.849-2.067-3.906-2.703a99.352 99.352 0 0 1-4.563-5.312l-2.378-2.926C651 131 651 131 649.91 128.707c-.852-2.07-.852-2.07-3.91-2.707-1.79-1.742-1.79-1.742-3.625-3.875l-1.852-2.117C639 118 639 118 638 115h-2v-2l-3-1v-2l-1.703-.707c-2.864-1.612-4.77-3.612-7.047-5.98C601.392 80.055 570.97 58.9 539 51l-3.168-.871c-9.712-2.515-15.798-2.968-24.707 1.871l-2.742 1.625C506 55 506 55 503 56v2a64.343 64.343 0 0 1-3.563 3c-5.941 5.058-10.219 11.189-13.5 18.25-2.32 4.9-5.596 8.358-10.25 11.125-6.7 1.558-11.891 1.052-17.96-2.207-4.97-3.362-6.542-7.405-7.727-13.168-.547-7.773 2.023-13.16 7-19 4.377-4.592 9.218-7.488 15-10l2.273-1.027c11.425-4.9 22.795-6.538 35.164-6.473l3.965.02c29.44.547 56.24 12.97 80.785 28.48l1.803 1.133c1.376.898 2.7 1.875 4.01 2.867v2h2l-1.75-3c-6.797-13.74-8.384-29.57-4.238-44.305 1.46-3.983 3.48-7.295 5.988-10.695l1.688-2.5L605 11h2V9c7.088-4.67 12.849-6.583 21.25-6.562zM1811.191 18.352c8.584 7.823 12.759 16.659 13.684 28.336.438 12.66-1.864 23.119-7.875 34.312h3v-2c1.414-1.11 1.414-1.11 3.41-2.32l2.227-1.36 2.425-1.445 2.48-1.489c32.028-19.084 67.085-31.2 104.48-21.882 11.374 3.045 23.374 8.27 29.978 18.496 3.574 6.87 4.094 13.353 1.875 20.75-2.692 4.667-5.833 7.229-10.625 9.625-5.714 1.099-11.08.624-16.375-1.812L1938 96v-2h-2c-.962-1.727-1.92-3.457-2.875-5.187l-1.617-2.918A71.033 71.033 0 0 1 1928 78h-2c-1.438-1.715-1.438-1.715-3-3.937-2.048-3.05-2.048-3.05-5-5.063v-2l-1.695-.812c-2.48-1.278-4.812-2.713-7.18-4.188-8.013-4.81-14.247-5.991-23.313-3.934-1.94.485-3.878.985-5.812 1.497l-3.098.819c-7.801 2.148-14.872 4.832-22.04 8.632a370.545 370.545 0 0 1-6.202 3.185c-7.985 4.08-15.472 8.413-22.66 13.801l-2.59 1.824c-6.01 4.251-11.65 8.81-17.171 13.671-4.03 3.505-4.03 3.505-6.239 3.505v2c-1.355 1.332-1.355 1.332-3.188 2.813-3.14 2.552-5.969 5.305-8.812 8.187l-2.648 2.613c-5.895 5.835-11.618 11.738-16.817 18.211A131.748 131.748 0 0 1 1765 143h-2l-.781 1.703c-1.36 2.564-2.947 4.75-4.719 7.047l-1.844 2.422L1754 156h-2l-.676 1.64c-1.745 3.11-4.077 5.538-6.512 8.11l-2.988 3.21-1.467 1.574a241.974 241.974 0 0 0-11.17 12.966L1727 186h-2l-1 3h-2v2h-2l-1 3h-2l-1 3h-2v2h-2l-1 3h-2v2c16.535-2.518 32.127-6.77 48-12l3.212-1.037c5.247-1.712 10.313-3.487 15.288-5.9 5.003-2.415 10.08-4.573 15.212-6.696 5.638-2.344 11.241-4.768 16.85-7.18l3.724-1.594a2719.439 2719.439 0 0 0 15.948-6.87c32.465-14.059 73.692-29.373 108.871-16.04 18.851 8.574 33.818 21.917 41.895 41.317 5.262 14.26 6.208 31.526.25 45.75A103.938 103.938 0 0 1 1976 238l-1.242 2.234c-6.265 10.265-15.088 17.6-26.758 20.766-12.929 2.164-22.666.318-34-6v-2l-1.938-.812C1910 251 1910 251 1909 248h-2a913.776 913.776 0 0 1-1.938-4.25l-1.09-2.39c-4.157-10.085-2.285-20.37 1.59-30.235 1.785-3.88 3.616-6.921 6.438-10.125h2l.73-1.805c1.523-2.632 3.035-3.684 5.582-5.32l2.301-1.508c7.567-4.335 16.526-4.848 24.969-2.715 4.9 2.184 7.89 5.673 10.418 10.348 1.85 5.551 2.182 12.042-.012 17.531-3.125 5.181-3.125 5.181-6.988 6.469v2l-1.497.747a924.657 924.657 0 0 0-6.753 3.44l-2.355 1.174c-4.45 2.301-7.667 4.275-10.395 8.639-1.076 4.016-1.427 6.064.312 9.875 1.515 2.215 1.515 2.215 3.688 3.125 10.461 1.09 18.043-1.837 26.156-8.324 8.016-7.285 12.581-16.991 13.293-27.762.34-9.861-.128-18.875-4.449-27.914l-1.098-2.367c-8.569-16.79-22.947-27.821-40.527-33.883-29.808-6.624-63.083 3.203-90.375 15.25-1.506.644-3.012 1.286-4.52 1.926a1782.294 1782.294 0 0 0-25.961 11.276c-9.849 4.37-19.72 8.568-29.796 12.384a298.463 298.463 0 0 0-8.723 3.477c-18.144 7.288-38.036 14.114-57.664 15.25-8.944.55-14.28 1.16-20.668 7.988-3.352 3.391-7.016 6.038-10.918 8.762l-2.224 1.552c-6.63 4.56-13.425 8.6-20.526 12.385l-3.348 1.832c-6.38 3.362-12.77 6.096-19.59 8.418l-2.055.71c-12.503 4.061-24.64 5.539-37.695 5.431-2.31-.016-4.62 0-6.93.02-24.17.035-47.86-7.478-66.382-23.411l-2.492-2.125c-15.387-13.47-25.665-29.31-31.258-49l-.64-2.243c-2.385-8.832-2.773-17.455-2.735-26.57l-.012-2.802c.009-6.143.41-12.16 1.137-18.26l-1.832-.363a897.968 897.968 0 0 1-13.176-2.707c-20.593-4.311-40.129-4.974-58.742 6.383-10.013 6.737-17.096 15.095-19.688 27.187-1.346 9.755.426 17.627 4.438 26.5l1.016 2.723c1.236 2.86 2.178 3.074 4.984 4.277l2.125 1.875c6.6 4.879 13.57 6.93 21.77 6.645 6.367-1.066 13.03-3.692 16.925-9 1.567-3.347 1.518-5.869 1.18-9.52l-2-3c-3.5-.417-3.5-.417-7 0l-2 2c-2.563.188-2.563.188-5 0-1-1-1-1-1.438-3.25.53-3.325 1.781-4.79 4.461-6.797 3.894-1.877 7.792-1.688 11.977-.953 4.495 2.207 6.815 4.516 9 9 2.079 6.237 1.059 11.176-1.75 16.93-1.903 3.151-4.194 5.138-7.25 7.07l-1.941 1.41c-8.135 5.08-17.806 4.676-27.059 3.59-6.065-1.441-11.01-4.287-16-8l-2.441-1.8c-2.662-2.288-4.314-4.43-6.184-7.387l-1.727-2.668c-3.69-7.041-5.189-13.53-5.086-21.457l.026-2.51c.408-14.913 7.154-25.374 17.615-35.584C1401 134 1401 134 1404 132c-16.804 2.75-34.432 11.4-46 24-5.013 8.593-4.582 17.522-2.262 27.023l.824 2.915c2.118 7.953 3.603 17.242-.687 24.687-2.986 3.887-6.051 6.94-11.082 7.715-4.685.194-8.073-.22-11.793-3.34v-2h-2c-4.7-9.686-4.374-20.014-1-30.125 3.987-9.894 9.494-21.178 17-28.875h2l.812-1.937C1351 150 1351 150 1354 149v-2c27.721-23.303 62.744-29.693 98-27 7.603.933 15.036 2.505 22.461 4.366 3.83.956 7.684 1.79 11.539 2.634l.594-2.5c4.866-18.795 15.63-40.615 32.406-51.5h2v-2c27.14-15.809 54.762-23.454 86-16 21.197 6.177 36.125 18.416 46.875 37.625 6.561 12.697 10.297 29.272 5.934 43.324-5.31 13.468-11.952 21.792-25.207 27.957-7.146 3.005-15.685 3.303-23.239 1.446-2.27-.954-4.275-2.046-6.363-3.352l-2.45-1.473c-14.544-9.421-22.334-23.339-27.55-39.527-2.035-9.703-2.175-19.89 2-29l1.187-2.75A23.287 23.287 0 0 1 1592 81c7.819-.378 13.852.768 20 6 5.261 7.167 6.08 14.33 5 23-1.747 8.149-4.99 15.563-8.633 23.027-2.944 6.403-4.39 11.787-2.68 18.786 1.709 2.846 3.177 3.27 6.313 4.187l3 1c9.807 1.02 17.064.039 25-6 7.36-6.536 11.935-14.693 12.937-24.5.238-5.791-.363-10.935-1.937-16.5l-.594-2.195c-4.889-16.24-14.634-29.29-29.406-37.805-19.676-10.454-43.665-12.129-65-6-11.01 3.411-21.702 7.857-30.707 15.21C1523 81 1523 81 1521 81v2a354.529 354.529 0 0 1-5 4c-5.859 6.333-10.195 13.293-14 21l-1.375 2.754c-2.996 6.27-4.88 12.531-6.625 19.246l2.329.943c22.837 9.274 44.922 19.436 66.671 31.057 19.246 10.263 38.597 20.225 59 28 1.668.685 3.334 1.372 5 2.063 18.432 7.282 37.27 11.25 57 12.937l3.324.293c5.862.311 5.862.311 10.738-2.793L1700 200h2v-2c1.375-1.625 1.375-1.625 3-3h2v-2c1.662-1.339 3.33-2.671 5-4l2.187-2.75L1716 184h2v-2c1.375-1.625 1.375-1.625 3-3h2l.81-1.788c1.208-2.245 2.47-3.775 4.237-5.603l1.812-1.902 1.891-1.957c4.384-4.542 8.385-9.084 11.997-14.272L1745 152h2l.746-1.715c1.47-2.677 3.232-4.615 5.316-6.847 4.261-4.627 8.207-9.438 12.09-14.383L1767 127h2l.695-1.692c1.663-2.942 3.741-4.897 6.18-7.238.992-.963 1.983-1.926 2.973-2.89l1.563-1.513c8.863-8.603 17.081-17.088 23.589-27.667l1.213-1.858c8.4-12.992 12.99-26.605 10.787-42.142-1.586-7.248-5.346-13.19-11-18-5.568-3.4-11.807-5.717-18.375-4.594-6.883 1.763-12.71 4.716-17.043 10.48-2.885 5.013-3.04 8.553-1.582 14.114 2.15 3.41 4.12 5.745 8 7 2.957.583 2.957.583 6 0 3.29-2.543 4.766-4.283 6.062-8.25C1789 40 1789 40 1791 39h2c2 2 2 2 2.312 5.813-.136 5.028-2.013 7.725-5.312 11.437-4.038 3.534-8.74 3.148-13.855 3.086-5.764-.616-9.665-2.972-13.81-6.922-4.14-5.296-4.115-11.273-3.882-17.781 1.144-7.601 5.82-12.678 11.688-17.352 12.696-8.749 28.91-8.944 41.05 1.07zM1203.605 622.097c2.95 1.112 4.254 2.867 6.125 5.344 1.387 1.815 1.387 1.815 4.082 3.809L1216 633v2h2a262.496 262.496 0 0 1 4 5l2 1v2l3 1v2c5.541-.616 8.475-5.36 11.812-9.375 8.262-9.71 8.262-9.71 13.81-11.445L1255 625l2 2c-.197 5.007-1.66 7.26-5.219 10.672l-2.574 2.512-2.707 2.566a3321.68 3321.68 0 0 0-5.281 5.11l-2.377 2.264c-1.907 1.75-1.907 1.75-2.842 3.876h2v2l1.703.781c2.564 1.36 4.75 2.947 7.047 4.719l2.422 1.844L1251 665v2l2.125.687c3.568 1.63 5.94 3.72 8.875 6.313 4.276-1.53 7.978-3.735 11.812-6.125 20.734-12.627 44.53-23.993 69.188-24.875l2.543-.121c10.783-.284 20.405 2.058 29.457 8.121 7.257 7.07 10.688 14.036 12 24l3.346-.001c48.636-.017 97.273-.032 145.91-.041h2.229a1698357.936 1698357.936 0 0 1 73.847-.013c25.31-.005 50.622-.012 75.933-.021a274375.378 274375.378 0 0 1 89.001-.019h2.188c11.645-.001 23.29-.006 34.935-.012 11.693-.006 23.385-.008 35.078-.007 6.341.001 12.683 0 19.024-.005 5.795-.005 11.59-.005 17.385-.002 2.106 0 4.212 0 6.319-.004 2.843-.004 5.686-.002 8.53.002l2.53-.008c5.63.017 5.63.017 6.745 1.131v7l-522 1-3 14c-1.612 3.223-3.034 6.062-5 9h-2l-.746 1.809c-1.47 2.567-2.859 3.628-5.317 5.253l-2.16 1.473c-6.803 3.589-13.185 4.979-20.84 4.84l-2.489-.029c-28.565-.691-58.49-14.375-80.44-32.397-2.059-1.245-2.059-1.245-4.59-.187L1259 689l-5 2v2a91.974 91.974 0 0 1-5.125 3.812c-4.118 2.918-8.06 5.888-11.875 9.188 3.328 4.04 6.757 7.808 10.523 11.445l2.403 2.325a746.77 746.77 0 0 0 4.969 4.734l2.378 2.316 2.17 2.071c1.903 2.578 1.96 3.974 1.557 7.109-1.592 1.592-3.234 1.126-5.441 1.127l-2.907.009-3.215-.007-3.364.006c-3.691.004-7.382.001-11.073-.002l-7.656.003c-5.357.001-10.714 0-16.07-.006-6.202-.005-12.403-.003-18.604.002-5.955.005-11.91.005-17.865.002-2.54 0-5.078 0-7.618.002-3.541.003-7.083-.001-10.625-.007l-3.214.007-2.907-.009-2.54-.001C1146 737 1146 737 1145 736c-.466-5.364-.466-5.364 1.375-7.875C1148 727 1148 727 1150 727v-2l2.125-1.688c2.344-1.885 3.987-3.528 5.875-5.812 2.416-2.916 4.995-5.182 8-7.5l1-2h2c-2.558-3.31-4.754-6.019-8.313-8.25L1158 698v-2l-2.223-.77c-2.928-1.297-4.819-2.812-7.215-4.918-3.547-2.95-3.547-2.95-8.125-3.25-.804.31-1.608.62-2.437.938v2c-1.83 1.325-1.83 1.325-4.39 2.828l-2.823 1.666-3.037 1.756c-1.013.59-2.027 1.18-3.07 1.79-14.754 8.54-29.964 16.136-46.68 19.96l-2.453.621c-12.376 2.752-28.5 3.778-39.707-2.91-9.868-6.898-15.532-15.98-17.84-27.711v-5H494v-8h525l1-7c3.538-10.241 9.784-16.561 19-22 19.479-8.57 44.8-.42 63.562 6.75 11.896 4.97 23.369 10.986 33.798 18.595 2.974 2.059 4.367 2.676 8.035 2.397L1147 673v-2a122.95 122.95 0 0 1 6.25-5l1.777-1.367c2.874-2.183 5.656-4.188 8.973-5.633v-2a141.4 141.4 0 0 1 5-5l-1.82-1.772c-2.23-2.179-4.452-4.364-6.67-6.553-1.432-1.41-2.873-2.812-4.313-4.214l-2.724-2.695-2.524-2.476c-1.905-2.239-2.802-3.373-2.949-6.29 2-3 2-3 4.307-3.475 3.749.661 5.14 2.353 7.775 5.069l1.391 1.412a514.076 514.076 0 0 1 4.34 4.494c.987 1.013 1.976 2.025 2.966 3.035 2.42 2.476 4.825 4.966 7.221 7.465 4.052-3.333 7.814-6.769 11.445-10.559l2.325-2.416c1.587-1.66 3.165-3.33 4.734-5.007l2.316-2.39 2.071-2.184C1201 622 1201 622 1203.605 622.097z"/></g><path d="M214.48 80.52c2.713-.02 5.423-.082 8.135-.145 15.689-.191 15.689-.191 21.014 4.982L245 87l1.72 1.854c4.874 5.444 6.544 12.193 8.28 19.146l.582 2.309c2.874 18.508-1.168 37.538-4.582 55.691l-.368 1.963c-1.438 7.607-3.018 15.082-5.32 22.474l-.681 2.252A943.099 943.099 0 0 1 243 198c.942-2.144 1.879-4.29 2.813-6.438l1.582-3.62c3.185-7.638 5.243-15.246 6.73-23.38l.512-2.658c1.616-8.636 2.394-17.166 2.654-25.943.42-13.878.42-13.878 2.272-20.461 2.54-9.21 1.686-19.03 1.437-28.5 2.94 2.56 4.447 5.453 6.223 8.898l.914 1.766c.981 1.9 1.954 3.805 2.926 5.711l2.03 3.956a897.984 897.984 0 0 1 14.87 30.444c.967 2.074 1.941 4.145 2.92 6.213 6.147 13.027 11.96 26.204 17.617 39.45l1.062 2.458.97 2.288.86 2.017C312 192 312 192 312 195c-4.61 1.046-9.214 2.057-13.86 2.93l-2.44.472c-1.647.318-3.296.625-4.946.922-4.873.965-8.187 1.987-11.754 5.676-2.284 3.571-2.58 7.34-3 11.465l-.244 2.233c-.26 2.412-.509 4.826-.756 7.24l-.533 5.04c-1.17 11.243-2.051 22.481-2.744 33.765-.752 11.812-2.165 23.527-3.723 35.257-3.394.843-6.79 1.672-10.187 2.5l-2.909.723-2.822.683-2.587.635c-2.554.47-4.903.54-7.495.459-2.001-9.434-2.304-18.416-2-28l.055-2.668c.263-4.373 1.331-7.214 3.508-11.02 3.345-6.16 3.257-12.458 2.437-19.312-1.29-3.675-1.805-3.902-5.5-5.75-6.902-2.276-13.908-2.124-20.621.684-2.774 1.574-4.987 3.613-7.238 5.859C211 246 211 246 207 246l-2.125-2.313c-6.956-6.502-15.936-5.98-24.945-5.792L177 238l-.375 3.937a65.865 65.865 0 0 1-1.75 9.625c-1.051 4.52-.876 7.896.125 12.438 1.44 2.17 1.44 2.17 3 4 3.783 13.573.544 29.48-2 43l2.543.798c3.69 1.283 7.221 2.81 10.77 4.432l2.093.95c1.46.664 2.918 1.329 4.377 1.995 2.18.996 4.365 1.986 6.549 2.975 10.855 4.934 21.577 10.067 32.043 15.787 6.906 3.169 14.207 2.482 21.625 2.063l-1 3h-3v2l12-1v3c-6.93 3.435-12.392 4.896-20 3a205.097 205.097 0 0 1-5.867-2.186c-3.49-1.331-7.028-2.51-10.57-3.689l-2.36-.787c-5.895-1.948-11.827-3.724-17.793-5.439-5.31-1.54-10.549-3.25-15.785-5.024-11.686-4.978-11.686-4.978-23.625-4.875-6.494 3.828-12.131 8.725-17.64 13.832-2.03 1.864-4.106 3.61-6.235 5.355-12.232 10.735-21.587 24.767-30.406 38.313L112 388h-1c.643-28.629 2.949-57.097 6-85.563l.235-2.213c2.107-19.654 5.14-39.144 8.562-58.609.579-3.308 1.145-6.619 1.71-9.93 1.939-11.157 4.208-22.031 7.404-32.897 1.387-4.825 2.384-9.676 3.339-14.6 2.87-14.034 7.327-27.582 11.75-41.188h2a125.024 125.024 0 0 1 4 6l5-2 1 4-3 2 5-1 .664 3.812C167.263 170.076 171.06 183.188 178 196l-.566-1.637c-1.89-5.55-3.525-11.126-4.996-16.8l-.658-2.526c-3.74-14.518-4.985-28.298-5.02-43.258-.01-2.51-.041-5.02-.072-7.529-.17-25.888-.17-25.888 7.312-34.25 10.8-10.217 26.578-9.42 40.48-9.48z" fill="#fefdfd"/><path d="M815 356c5.48 2.44 10.14 5.392 14 10v2h2c3.514 7.79 2.876 15.468-.063 23.375-2.456 5.812-5.26 11.44-8.128 17.059-5.507 10.858-10.338 22.013-15.165 33.185A714.008 714.008 0 0 1 798 463l2.375-2c2.625-2 2.625-2 4.625-2v-2c10.018-8.9 20.125-14.997 33.887-14.41 4.115.542 6.238 1.383 9.113 4.41 4.089 5.616 4.989 11.191 4 18-3.278 12.872-10.075 23.082-21.156 30.43-10.002 5.834-20.527 9.325-31.844 11.57.726 24.666.726 24.666 10.992 46.285 1.929 1.914 1.929 1.914 4.696 2.34 4.217-.796 6.83-2.708 10.261-5.215C827 549 827 549 830 548v-2h2l.777-1.727c1.352-2.514 2.944-4.468 4.785-6.648 4.62-5.692 8.546-11.704 12.392-17.932a512.723 512.723 0 0 1 2.855-4.552c6.163-10.078 11.184-21.112 15.328-32.176C869 481 869 481 871 480c5.174-.44 5.174-.44 7.875 1 1.786 3.176 1.492 6.472 1.125 10-.76 2.697-1.86 5.16-3.063 7.688l-.96 2.094C870.626 512.285 864.378 522.714 857 533l-1.613 2.371c-1.078 1.58-2.223 3.112-3.387 4.629h-2l-.813 1.938C848 544 848 544 845 545l-1 3h-2v2c-3.448 2.97-7.221 5.473-11 8l-2.43 1.637c-7.14 4.194-14.462 4.511-22.57 3.363-3.343-1.279-6.152-2.84-9-5v-2h-2c-10.295-10.536-13.611-25.835-15-40-4.888 12.888-8.248 25.039-8.594 38.883C771 558 771 558 769.836 559.906c-2.624 1.563-4.675 1.492-7.711 1.469l-3.117.023c-4.52-.598-7.104-2.443-10.196-5.71-3.313-4.914-4.114-9.872-4.812-15.688l-2.188 3.188c-5.37 7.458-13.347 16.043-22.5 18.437-5.512.761-9.267-.089-13.792-3.488-8.607-7.361-13.827-14.797-15.52-26.137-.316-5.666-.18-11.331 0-17l-.742 1.441c-2.878 5.388-6.093 10.52-9.446 15.621l-1.333 2.06c-1.106 1.663-2.286 3.276-3.479 4.878h-2l-.805 1.762c-4.175 7.82-11.907 14.38-19.195 19.238-3.363.336-3.363.336-7.313.375l-3.925.086c-4.383-.537-6.4-1.638-9.762-4.461-1.863-2.438-1.863-2.438-3.313-5-.49-.846-.982-1.691-1.488-2.563-3.027-6.153-2.42-12.655-2.449-19.375l-.063-3.517c-.049-11.114 2.125-21.385 6.125-31.733l.775-2.036C633.81 486.12 636.69 481.089 640 476a301.853 301.853 0 0 0 2-3.688c6.697-11.092 16.748-18.266 29-22.312l3-1c9.392-.824 19.156-.278 27.012 5.473 4.332 4.437 5.286 9.514 5.988 15.527l1.207-3.14 1.606-4.11.79-2.066c2.861-7.276 2.861-7.276 5.397-9.684 4.94-1.07 10.332-.75 14.875 1.562 4.597 3.586 7.494 6.44 8.723 12.278 1.021 9.313-.918 16.468-5.223 24.597-.72 1.398-1.437 2.796-2.152 4.196l-1.113 2.169c-2.882 5.708-5.544 11.524-8.235 17.323a463.7 463.7 0 0 1-2.348 4.934c-8.169 16.974-8.169 16.974-8.527 34.941 16.042-5.158 27.559-31 35-45l1.727-3.203c9.295-17.886 16.452-36.883 23.481-55.75a491.184 491.184 0 0 1 7.671-19.354c1.47-3.533 2.804-7.1 4.121-10.693 2.08-5.671 4.34-11.24 6.675-16.81 2.203-5.305 4.309-10.647 6.388-16.002l1.332-3.427c2.788-7.29 5.095-14.464 6.69-22.1C806 358 806 358 807.79 356.058c2.902-1.39 4.183-1.05 7.211-.059zM1012 363v2l2.313.75c2.948 1.371 4.045 2.485 5.687 5.25v2h2c7.675 12.499 6.84 28.41 3.738 42.27-5.08 19.898-12.694 39.316-21.738 57.73-20.123 38.271-20.123 38.271-26 80 4.645.361 4.645.361 8.926-1.094l1.386-1.406C991 548 991 548 993 548l.875-1.813C995 544 995 544 997 541h2l.762-1.66c1.47-2.778 3.22-5.22 5.05-7.778 11.388-16.184 21.805-33.418 30.504-51.195 1.684-3.367 3.438-6.69 5.209-10.012a523.315 523.315 0 0 0 12.288-24.578 453.863 453.863 0 0 1 6.75-13.84c3.818-7.556 7.21-15.29 10.587-23.053 2.55-5.65 2.55-5.65 4.537-7.197 4.651-1.382 8.826-.14 13 2.063 4.848 3.01 7.542 6.868 9.313 12.25 1.125 10.496-.356 18.96-4.161 28.797-1.664 4.368-3.178 8.79-4.714 13.203l-1.034 2.956c-3.678 10.588-6.946 21.288-10.091 32.044l-.739 2.513c-8.62 29.018-8.62 29.018-5.261 58.487 6.718.548 10.39-.26 16-4 1.326-.68 2.656-1.355 4-2v-2h2l.734-1.695c1.522-2.77 3.405-4.824 5.516-7.18 14.867-17.26 25.906-38.567 35.414-59.164 1.803-3.898 3.741-7.713 5.7-11.535 3.888-7.682 7.084-15.593 10.198-23.613l.856-2.19c10.625-27.226 18.344-54.308 19.582-83.623 8.266 1.485 13.762 4.837 19.172 11.313 5.252 7.72 7.615 16.433 7.828 25.687l.117 2.313c1.299 43.854-24.353 89.068-50.117 122.687l-1.307 1.729c-4.659 6.146-4.659 6.146-6.693 8.271h-2l-.719 1.703c-1.57 2.816-3.496 4.777-5.781 7.047l-2.406 2.422C1127 542 1127 542 1125 542l-1 3c-11.917 10.285-25.95 18.84-42.047 18.344-8.375-.975-15.589-4.834-20.953-11.344-14.477-22.356-10.816-49.77-5.688-74.59a678.57 678.57 0 0 1 3.277-14.452c.48-1.95.48-1.95.411-3.958l-2.438 4.876a6711.28 6711.28 0 0 1-2.151 4.298 1574.87 1574.87 0 0 0-5.513 11.1c-3.263 6.627-6.586 13.11-10.484 19.394-1.481 2.443-2.825 4.933-4.164 7.457a250.39 250.39 0 0 1-19.656 30.738A118.63 118.63 0 0 0 1011 542h-2l-.742 1.727c-4.615 8.341-14.857 16.793-23.988 19.8-5.92 1.233-12.6 1.74-18.145-1.027-6.386-4.47-9.926-10.788-11.656-18.277-4.83-33.21 9.932-67.492 21.236-98.01C982.08 429.004 987.95 411.649 993 394l.625-2.148c1.29-4.727 1.74-9.115 1.75-13.977l.074-2.05c.03-5.079-1.256-7.931-4.449-11.825-2.233-1.43-2.233-1.43-5-1-6.544 2.54-9.915 7.19-13.555 12.988L971 378h-2l-.816 2.605c-1.175 3.37-2.578 6.492-4.121 9.707-5.579 11.958-8.417 22.964-8.313 36.188l-.023 2.973c.016 6.144.725 11.58 2.273 17.527-8.433-.718-15.407-3.448-21-10l-2.125-2.438C928.7 426.125 927.181 415.317 928 405c2.524-15.017 10.443-28.753 22.863-37.767 2.662-1.834 5.38-3.544 8.137-5.233l2.117-1.34c15.856-9.016 35.36-5.804 50.883 2.34z"/><path d="M293 364c18.06 22.05 33.8 48.32 43.047 75.281.691 2.602.691 2.602 1.953 3.719 1.737-10.623 2.565-21.14 3.125-31.875l.262-4.723c.21-3.8.414-7.6.613-11.402h10c.489 11.166.967 22.333 1.438 33.5l.105 2.51c.988 23.461 1.829 46.91 2.166 70.392l.042 2.727c.024 1.61.044 3.22.06 4.83.065 4.56.325 9.076.673 13.623.582 7.8.802 15.597.98 23.414l.115 4.605c.08 3.257.16 6.514.237 9.77.206 8.621.423 17.242.641 25.863l.067 2.64c.308 12.195.655 24.387 1.05 36.58l.07 2.183c.242 7.428.491 14.857.746 22.285.43 12.698.742 25.372.61 38.078h11l1 7 2.281.629c5.851 1.697 11.297 3.563 16.8 6.158 6.998 3.296 13.018 5.709 20.919 4.213a90.677 90.677 0 0 0 5-2v-7c8.096.337 22.018 1.018 28 7-.176 2.027-.176 2.027-1 4-2.73 1.338-5.093 2.19-8 3l-2.66.746c-46.591 11.368-98.822 8.805-146.407 9.228-2.606.023-5.212.05-7.818.076-8.853.087-17.704.068-26.557-.024-2.886-.03-5.772-.055-8.658-.08C108.658 719.654 108.658 719.654 90 707c.063-1.813.063-1.813 1-4 7.296-3.63 15.03-4.712 23-6l3.754-.633c16.538-2.449 33.638-2.004 50.246-.367l1.438-3.125.808-1.758c.95-2.668 1.346-5.32 1.754-8.117 2.25.141 4.5.288 6.75.438 1.253.08 2.506.162 3.797.246C186 684 186 684 190 685l-1 14h41l-1-2a77.923 77.923 0 0 1-.062-4.625l.027-2.477L229 688h2a99.185 99.185 0 0 1 3 5c1.223 1.44 1.223 1.44 4.875 1.313 3.393.007 3.393.007 6-2.125L246 690l2-3c1.899 1.899 1.124 4.572 1.133 7.09C249 696 249 696 248 698c10.996-.243 21.76-1.05 32.625-2.813l2.975-.463c6.53-1.12 12.352-3.024 18.4-5.724l-3-1v-11c12.454-3.608 12.454-3.608 18.129-5.086l2.025-.528c1.888-.49 3.777-.973 5.666-1.456 2.644-.773 4.762-1.665 7.18-2.93.343-46.358.343-46.358-2.276-92.62-.468-5.097-.817-10.158-.965-15.274-1.325-42.638-10.556-87.01-22.997-127.614a625.886 625.886 0 0 1-1.953-6.523c-1.585-5.597-1.585-5.597-3.803-10.956-3.825-8.058-3.46-15.944-3.256-24.638.02-1.496.038-2.992.055-4.488.043-3.63.112-7.258.195-10.887h-4v-10z" fill="#7e4f2c"/><path d="M1196 187h2c-3.278 11.656-18.108 22.901-28 29h-2v2c-1.497 1.19-1.497 1.19-3.578 2.496l-2.27 1.443-2.402 1.499a3309.7 3309.7 0 0 0-4.64 2.933l-2.095 1.31c-2.073 1.31-2.073 1.31-4.084 2.983C1147 232 1147 232 1144 232v2l-1.95 1.031c-5.288 2.837-10.455 5.796-15.55 8.969-8.263 5.127-16.767 9.672-25.438 14.062l-1.878.96C1066.914 275.183 1029.474 281.33 994 286l-4.446.601c-22.143 2.996-44.283 5.556-66.554 7.399l-2.697.225c-44.198 3.69-88.391 6.633-132.72 8.129l-3.246.111c-1.973.067-3.947.132-5.921.193-5.072.171-10.12.454-15.182.838-7.404.548-14.801.801-22.222 1.004-1.397.04-2.793.082-4.19.123-4.378.129-8.756.253-13.134.377-5.768.163-11.534.33-17.301.5l-2.098.062c-8.93.267-17.84.641-26.754 1.224-6.028.365-12.061.496-18.097.652-28.324.797-56.627 2.365-84.893 4.325-3.467.232-6.935.435-10.404.632C539.896 313.85 516.13 317.482 493 325l-3.727 1.14C457.795 336.417 427.31 358.999 411 388a151.97 151.97 0 0 0-5 11h-2c.588-5.22 2.267-9.377 4.5-14.063l1.063-2.249c3.466-7.11 7.765-13.321 12.437-19.688l2.14-3.363L426 357h2l.805-1.762C432.414 348.48 438.876 342.505 445 338h2v-2c23.937-19.15 52.542-31.198 82-39l2.389-.646c41.484-11.145 84.31-15.808 127.048-18.916l2.407-.177c6.383-.464 12.768-.871 19.156-1.261l3.754-.232c28.896-1.767 57.813-2.526 86.752-3.237 3.851-.095 7.702-.192 11.553-.29 32.388-.822 64.775-1.585 97.17-1.95 11.705-.135 23.4-.364 35.1-.76l3.525-.118c50.4-1.811 101.09-7.633 150.146-19.413l3.738-.886c26.035-6.229 51.095-14.47 75.262-26.114l3.34-1.602c3.38-1.658 6.524-3.307 9.66-5.398h3v-2l2.813-1.5c7.894-4.55 14.972-10.12 21.687-16.25l1.528-1.393c2.101-1.957 3.983-3.872 5.69-6.185zM1206 191c2 0 2 0 3.508 1.46.533.633 1.067 1.264 1.617 1.915l1.633 1.898C1214 198 1214 198 1214 200l1.773.809c2.263 1.21 3.946 2.545 5.852 4.254 1.793 1.6 3.222 2.86 5.375 3.937v2l2.078.727c2.806 1.223 5.234 2.704 7.779 4.395 54.63 36.164 126.633 47.14 190.576 53.518 2.641.267 5.28.545 7.92.833 13.652 1.465 27.309 2.353 41.022 3.027l3.853.192c30.967 1.517 61.963 1.896 92.96 2.37l3.932.06a390090.843 390090.843 0 0 0 27.048.417l3.756.058C1807.753 279.72 1807.753 279.72 1920 318l2.029.933c17.72 8.212 32.979 19.52 46.971 33.067l1.513 1.46c11.543 11.32 28.667 31.635 29.659 48.454L2000 404c-2.531-2.531-3.546-5.127-5.063-8.375-4.879-10.022-11.608-18.335-19.062-26.563l-1.45-1.611c-2.58-2.773-5.166-5.056-8.292-7.205L1963 358v-2l-1.594-.738c-3.097-1.624-5.984-3.536-8.906-5.45a2329.844 2329.844 0 0 0-5.71-3.665c-1.56-1-3.117-2.006-4.673-3.014-19.727-12.196-43.377-18.53-66.117-22.133l-2.77-.469c-8.963-1.466-17.935-2.311-26.98-3.031l-2.38-.192c-5.623-.453-11.246-.887-16.87-1.308l-3.968-.297c-21.957-1.59-43.947-2.297-65.947-3.006-19.917-.647-19.917-.647-28.378-1.197-11.738-.745-23.499-.982-35.254-1.316a3949.728 3949.728 0 0 1-106.977-4.504c-7.99-.444-15.98-.847-23.976-1.18-12.38-.538-24.737-1.397-37.095-2.32l-5.04-.375c-168.655-12.511-168.655-12.511-218.546-39.814a288.676 288.676 0 0 0-5.53-2.92c-17.915-9.313-35.62-19.69-52.027-31.473-3.145-2.222-6.39-4.28-9.645-6.336L1233 220v-2l-2.105-.652c-3.664-1.706-6.314-4.155-9.207-6.91l-1.722-1.62c-13.047-12.402-13.047-12.402-13.966-17.818z" fill="#b78b49"/><path d="M315 0c3.667-.059 7.333-.094 11-.125l3.121-.05C340.331-.248 350.726 2.418 360 9v2h2c4 5.412 4 5.412 4 8l1.836.043C378.237 19.635 385.508 23.996 393 31l2.313-.938A110.556 110.556 0 0 1 401 28c2.533 9.289 3.173 18.201 3.125 27.813l-.01 3.022c-.097 14.167-.492 28.212-3.115 42.165l-3.75.188c-3.467.417-4.083.645-6.688 3.25-2.28 3.74-2.795 5.917-2.937 10.312l-.148 3.11c.26 3.371.26 3.371 3.105 5.85 1.843 2.008 2.39 2.94 2.612 5.694-.234 2.863-.64 5.641-1.132 8.471l-.4 2.895c-1.32 8.556-3.755 15.635-10.662 21.23-2.938 1.694-5.97 3.11-9.063 4.5l-2.564 1.182c-5.532 2.535-11.095 4.993-16.744 7.256-1.759.71-3.502 1.46-5.227 2.25-5.747 2.558-11.13 4.394-17.402 2.812-6.1-3.412-11.227-7.937-16-13l-2.313-1.688L310 164v-2h-2c-5.275-5.749-6.16-12.534-7-20l-.523-4.387c-.745-6.384-1.426-12.766-1.914-19.175-.31-3.742-.922-7.353-1.664-11.032-1.807-9.17-2.338-18.024-2.235-27.355.024-2.314.02-4.627.014-6.942.04-24.084.04-24.084 6.072-30.859 2.649-2.959 2.649-2.959 3.473-6.73-.42-2.518-.912-4.33-2.223-6.52-2.983-1.692-2.983-1.692-6-2 0-3 0-3 1.938-5 3.903-2.55 7.597-3.667 12.062-5l-12-2v-3c8.4-2.791 16.094-5 25-5l-1.75-1.023L319 4.625c-.743-.44-1.485-.882-2.25-1.336L315 2V0z" fill="#2a1a06"/><path d="M624 365c11.846 10.677 20.915 24.312 21.945 40.742L646 408l.117 2.758c.509 21.635-6.257 43.527-20.117 60.242l-2.086 2.578c-11.185 13.164-25.354 22.13-42.773 23.676-9.123.193-18.445-1.016-26.141-6.254-2.375-2.688-2.375-2.688-4-5l-2-1c-.1.838-.199 1.676-.3 2.54-.788 3.898-2.224 7.253-3.888 10.835-3.119 6.909-5.861 13.898-8.472 21.012a245.573 245.573 0 0 1-3.465 8.8c-5.325 13.168-8.41 25.69-5.875 39.813-1.541 1.541-2.984 1.206-5.125 1.25-6.143-.098-10.242-1.653-14.688-6-5.994-8.905-4.633-18.787-2.896-28.859 1.273-6.09 3.183-11.972 5.084-17.891l1.172-3.723c1.137-3.597 2.29-7.188 3.453-10.777l1.04-3.227c1.768-5.404 3.682-10.697 5.835-15.96 1.392-3.481 2.699-6.992 4-10.508l.769-2.07c1.052-2.836 2.102-5.671 3.147-8.509 2.741-7.44 5.543-14.682 9.209-21.726a215.055 215.055 0 0 0 2.562-6.75c2.842-7.755 5.847-15.441 8.875-23.125l1.446-3.674a7380.532 7380.532 0 0 1 6.277-15.904c2.93-7.426 5.8-14.815 7.84-22.547 4.777-1.321 7.235-1.224 11.625 1.188A162.54 162.54 0 0 1 581 372l2.812 1.813c4.235 4.234 6.868 10.18 7.5 16.125-.285 11.471-7.297 22.674-12.201 32.764a678.38 678.38 0 0 0-4.611 9.798 3324.805 3324.805 0 0 1-8.188 17.438l-1.117 2.367c-2.061 4.354-4.18 8.664-6.423 12.928-1.686 3.86-1.311 7.197.029 11.099 2.264 5.414 2.264 5.414 6.199 9.668 5.994.692 10.885-.6 15.703-4.313 1.435-1.226 2.866-2.456 4.297-3.687h2l.809-1.773c1.21-2.263 2.545-3.946 4.253-5.852 1.602-1.793 2.861-3.222 3.938-5.375h2l.766-2.043c1.184-2.837 2.533-5.545 3.95-8.272 8.653-16.717 14.486-33.066 14.596-52.06l.018-2.811c-.127-11.91-3.462-21.853-11.33-30.814v-2l-1.71-.844a154.226 154.226 0 0 1-4.517-2.375c-10.633-5.68-21.656-7.42-33.441-4.55-3.514 1.16-6.716 2.805-9.973 4.55-2.403 1.242-4.834 2.252-7.359 3.219v2c-3.462 3-3.462 3-6 3v2c-1.375 1.625-1.375 1.625-3 3h-2l-.938 1.875L535 383h-2l-.82 2.203c-1.148 2.721-2.482 5.053-4.055 7.547-7.735 12.71-13.13 27.203-13.813 42.125l-.114 2.399c-.379 9.306.443 16.674 3.962 25.378C519 465 519 465 519 468l-5-2v-2h-2a105.172 105.172 0 0 1-4.875-6l-1.374-1.816C498.117 445.919 493.535 433.887 493 421l-.121-2.352c-.549-20.33 7.353-38.914 21.121-53.648 28.898-28.242 80.38-25.936 110 0z"/><path d="M1491 139c5.945.567 10.93 2.3 16.438 4.563l2.663 1.082c8.185 3.379 16.073 7.221 23.899 11.355l2.08 1.098c2.857 1.51 5.712 3.024 8.563 4.544 6.744 3.587 13.567 7.003 20.413 10.392a942.49 942.49 0 0 1 5.624 2.821c4.096 2.07 8.207 4.11 12.32 6.145l2.803 1.393c13.408 6.639 26.824 12.79 40.93 17.8a445.65 445.65 0 0 1 6.095 2.229c16.805 5.996 34.434 9.094 52.172 10.578-3.501 3.67-7.157 6.769-11.313 9.688l-1.83 1.29c-11.441 7.98-22.736 15.114-35.857 20.022l-3.645 1.367c-22.152 7.84-48.588 10.696-71.355 3.633l-1.912-.586c-18.409-5.806-34.88-16.39-47.088-31.414l-1.605-1.605c-12.687-12.687-20.048-35.612-20.395-53.395l-.082-2.95c-.095-6.736.344-13.356 1.082-20.05zM927 129c4.286 29.83-2.457 55.736-20.238 79.793-1.508 1.888-2.93 3.632-4.762 5.207h-2l-1 3h-2v2a89.133 89.133 0 0 1-5.75 4.188l-1.796 1.212A694.618 694.618 0 0 1 884 228l-2.902 1.938c-13.697 8.605-30.26 13.12-46.348 13.75l-2.81.111c-26.334.896-50.706-6.92-72.94-20.799a333.05 333.05 0 0 0-3.5-1.938c-5.333-3.045-10.608-6.351-15.5-10.062v-2l-1.813-.813c-2.17-1.178-3.495-2.418-5.187-4.187l1.87-.196c42.341-4.559 79.421-19.843 116.63-39.876 5.233-2.81 10.538-5.458 15.863-8.088a235.098 235.098 0 0 0 7.555-3.961C885.992 145.844 897.353 140.823 909 136c1.275-.534 2.55-1.07 3.824-1.605 2.722-1.142 5.445-2.277 8.176-3.395l2.75-1.129C926 129 926 129 927 129z" fill="#fff"/><path d="M214.48 80.52c2.713-.02 5.423-.082 8.135-.145 15.689-.191 15.689-.191 21.014 4.982L245 87l1.72 1.854c4.874 5.444 6.544 12.193 8.28 19.146l.586 2.29c2.575 16.86-.599 34.134-3.586 50.71l-2-1-.594 2.055C245.11 175.425 236.232 183.275 225 191l-2.348.848c-2.03 1.127-2.03 1.127-2.226 4.304l-.113 3.785c-.25 6.872-.25 6.872-1.313 10.063h-2v2c-2.595 1.298-4.542 1.133-7.437 1.125l-2.934.008C204 213 204 213 201 212v-2h-2c-.974-2.923-1.039-4.388-.86-7.387.611-10.013.611-10.013-3.78-18.465-3.376-1.97-6.79-3.562-10.36-5.148-2.484-1.73-4.79-3.578-7.129-5.496-1.979-1.654-1.979-1.654-4.808-3.317-3.295-3.494-3.51-7.536-4.063-12.187l-.259-1.906c-.975-8.081-.962-16.187-.981-24.315-.01-2.51-.041-5.02-.072-7.529-.17-25.888-.17-25.888 7.312-34.25 10.8-10.217 26.578-9.42 40.48-9.48z" fill="#ebc0a0"/><path d="M196 208v2h2v3h3v2h17v-2h2v-3h2v-2c7.384 1.68 14.638 3.717 21.875 5.938l2.448.729c6.035 1.884 11.024 3.766 14.583 9.294a634.293 634.293 0 0 1 4.215 9.18c.806 1.705 1.744 3.346 2.692 4.976 9.547 17.725 2.808 42.874.187 61.883-3.394.843-6.79 1.672-10.188 2.5l-2.908.723-2.822.683-2.587.635c-2.554.47-4.903.54-7.495.459-2.001-9.434-2.304-18.416-2-28l.055-2.668c.263-4.373 1.331-7.214 3.507-11.02 3.346-6.16 3.258-12.458 2.438-19.312-1.29-3.675-1.805-3.902-5.5-5.75-6.902-2.276-13.908-2.124-20.621.684-2.774 1.574-4.987 3.613-7.238 5.859C211 246 211 246 207 246l-2.125-2.313c-6.956-6.502-15.936-5.98-24.945-5.792L177 238l-.375 3.938a65.865 65.865 0 0 1-1.75 9.625c-1.051 4.52-.876 7.895.125 12.437 1.44 2.17 1.44 2.17 3 4 3.783 13.573.544 29.48-2 43l2.543.798c3.69 1.283 7.221 2.81 10.77 4.432l2.093.95c1.46.664 2.918 1.329 4.377 1.995 2.18.996 4.365 1.986 6.549 2.975 10.855 4.934 21.577 10.067 32.043 15.788 6.906 3.168 14.207 2.48 21.625 2.062l-1 3h-3v2l12-1v3c-6.93 3.435-12.392 4.896-20 3a205.097 205.097 0 0 1-5.867-2.186c-3.49-1.331-7.028-2.51-10.57-3.689l-2.36-.787c-5.895-1.948-11.827-3.724-17.793-5.439-5.31-1.54-10.549-3.25-15.785-5.024-11.694-4.996-11.694-4.996-23.625-4.875a97.957 97.957 0 0 0-5.125 3.5c-4.743 3.434-4.743 3.434-6.875 4.5l-3-1v-7c3.317-1.422 6.442-2.39 10-3-3.87-1.73-7.615-3.195-11.688-4.375-4.111-1.375-6.3-2.602-8.312-6.625-.44-7.701.778-14.983 2.063-22.563l.663-3.998a2808.91 2808.91 0 0 1 1.862-11.019c.432-2.537.86-5.075 1.287-7.613.758-4.49 1.523-8.98 2.295-13.468.3-1.752.6-3.504.897-5.257 4.395-25.86 4.395-25.86 9.933-31.082 5.085-2.91 10.408-4.455 16-6.063 1.75-.51 3.5-1.022 5.25-1.535l2.484-.723c1.935-.58 3.853-1.216 5.766-1.863C194 208 194 208 196 208z" fill="#ebc1a1"/><path d="M358 655h2c.91 11.024 1.114 21.943 1 33h11l1 7 2.281.629c5.851 1.697 11.297 3.563 16.8 6.158 6.998 3.296 13.018 5.709 20.919 4.213a90.677 90.677 0 0 0 5-2v-7c8.096.337 22.018 1.018 28 7-.176 2.027-.176 2.027-1 4-2.73 1.338-5.093 2.19-8 3l-2.66.746c-46.591 11.368-98.822 8.805-146.407 9.228-2.606.023-5.212.05-7.818.076-8.853.087-17.704.068-26.557-.024-2.886-.03-5.772-.055-8.658-.08C108.658 719.654 108.658 719.654 90 707c.063-1.813.063-1.813 1-4 7.296-3.63 15.03-4.712 23-6l3.754-.633c16.538-2.449 33.638-2.004 50.246-.367l1.438-3.125.808-1.758c.95-2.668 1.346-5.32 1.754-8.117 2.25.141 4.5.288 6.75.438l3.797.246C186 684 186 684 190 685l-1 14h41l-1-2a77.923 77.923 0 0 1-.062-4.625l.027-2.477L229 688h2a99.185 99.185 0 0 1 3 5c1.223 1.44 1.223 1.44 4.875 1.313 3.393.007 3.393.007 6-2.125L246 690l2-3c1.899 1.899 1.124 4.572 1.133 7.09C249 696 249 696 248 698c12.421-.488 24.677-1.356 37-3-3 2-3 2-5 3-.25 2.916-.25 2.916 0 6 4.96 3.306 10.216 2.73 16 2 4.545-1.624 8.724-3.777 13-6 4.039-1.74 7.982-2.997 12.313-3.75L325 695l1.234-3.438C328 688 328 688 331.59 686.548c1.443-.296 2.893-.561 4.348-.797 1.426-.274 2.851-.55 4.277-.828l2.25-.412c4.888-.983 9.708-2.265 14.535-3.51l-.016-2.28c-.02-3.385-.034-6.771-.046-10.158l-.026-3.587-.01-3.409-.016-3.158C357 656 357 656 358 655z" fill="#8e8e8e"/><path d="M334.04 66.184c2.195 1.178 2.195 1.178 5.398-.496L343 64c11.289-3.012 24.581-1.87 34.875 3.5 5.808 6.833 6.794 15.782 6.625 24.438l-.032 3.064c-.202 8.399-1.084 16.678-2.218 24.998l-.475 3.558c-1.165 7.725-3.067 13.43-7.462 19.942-3.008 1.951-5.107 2.232-8.665 2.102-4.526-1.029-8.17-3.494-12.046-5.973-5.981-3.745-12.497-2.642-19.28-2.442-2.248.063-4.494.104-6.742.145l-4.295.121-3.941.099c-3.505.47-4.74 1.186-7.344 3.448-2.5.188-2.5.188-5-1-8.06-11.615-7.49-28.27-7.391-41.857.016-2.668 0-5.335-.02-8.002.003-1.724.007-3.448.013-5.172l-.019-2.374c.085-6.74 1.45-12.224 5.855-17.532 7.764-6.25 20.566-3.543 28.601 1.12z" fill="#e7b38c"/><path d="M163 330l2 1-1.617 1.695C152.888 343.99 144.604 356.63 137 370l-1.104 1.915C125.489 390.096 118.096 409.996 112 430l-.618 2.01C103.169 459.087 98.162 487.056 94 515l-.582 3.873C89.218 547.72 87.835 576.928 86 606c-1.727-.144-3.453-.292-5.18-.441l-2.913-.249c-4.372-.466-8.619-1.357-12.907-2.31l-2.52-.54c-3.231-.699-6.34-1.413-9.48-2.46-.414-10.486.706-20.62 2.026-31.003.35-2.755.686-5.51 1.02-8.267l.665-5.34.3-2.453c.603-4.691 1.44-9.254 2.548-13.853.607-2.867.87-5.732 1.097-8.65.399-2.82 1.107-5.526 1.818-8.28.683-2.796 1.197-5.61 1.716-8.44 7.595-40.819 21.902-79.625 41.279-116.269l1.263-2.39C108 393 108 393 111 390l1 12 1.766-3.488c10.707-20.898 22.947-40.049 39.14-57.11 2.048-2.349 3.509-4.731 5.094-7.402 2.688-2.313 2.688-2.313 5-4z" fill="#e0975d"/><path d="M349.438 206.3c3.437.939 5.919 2.653 8.808 4.684 1.832 1.271 1.832 1.271 4.629.891 2.127-.846 2.127-.846 4.125-1.875v107c-13.517 6.759-13.517 6.759-18.719 8.957l-3.383 1.432-3.398 1.423-3.492 1.483c-8.482 3.573-8.482 3.573-13.008 4.705V209l3 3c4.422-.008 8.167-1.253 11.438-4.188 3.51-2.483 5.839-2.087 10-1.511z" fill="#fafafa"/><path d="M1204 633c1.375 1.398 1.375 1.398 3 3.375 7.163 8.414 15.152 16.807 24.227 23.191L1233 661v2l1.598.668c3.28 1.82 6.009 4.209 8.84 6.644l1.697 1.436c3.45 2.943 6.7 6.004 9.865 9.252-2.287 1.84-4.58 3.672-6.875 5.5l-1.973 1.59-1.894 1.504-1.746 1.396C1241 692 1241 692 1239 692v2c-1.828 1.656-1.828 1.656-4.25 3.5l-2.39 1.844A39.145 39.145 0 0 1 1226 703v2c-1.61 1.656-1.61 1.656-3.75 3.5l-2.11 1.844c-1.985 1.536-3.859 2.628-6.14 3.656v2h-2v2a173.788 173.788 0 0 1-5 4 177.475 177.475 0 0 0-4 4c-4.594-3.76-8.787-7.767-12.938-12-3.855-3.922-7.675-7.523-12.246-10.621-1.816-1.379-1.816-1.379-4.074-3.66-3.214-3.187-6.636-5.973-10.18-8.782l-1.947-1.564c-3.759-2.996-7.575-5.769-11.615-8.373 3.007-3.208 6.165-5.971 9.625-8.688 4.959-3.893 9.543-8.084 14.125-12.406C1176 658 1176 658 1178 658v-2c1.456-1.43 1.456-1.43 3.477-3.098 5.342-4.54 10.17-9.53 15.05-14.556l2.059-2.092 1.845-1.896C1202 633 1202 633 1204 633zM1369 657.508c4.602 4.122 6.84 8.789 9 14.492l1 2c.666 8.831.55 16.213-4 24a402.817 402.817 0 0 0-2 4h-2l-1 3c-8.751 7.354-18.53 7.608-29.41 6.723-15.246-1.684-28.094-6.582-41.59-13.723-1.937-.918-3.874-1.835-5.813-2.75-8.144-4.044-15.63-9.218-23.187-14.25 3.91-3.324 7.969-5.845 12.438-8.312l2.136-1.185A970.7 970.7 0 0 1 1291 668l1.836-.999c20.144-10.858 55.35-25.185 76.164-9.493zM1083 655l2.516.621c17.787 4.742 34.987 14.67 50.484 24.379-21.317 18.266-53.345 33.067-81.738 32.176-8.534-.663-14.104-3.053-20.262-9.176-7.03-8.754-7.946-16.835-7.3-27.828.73-5.283 3.434-9.744 6.3-14.172h2l1-3c1.672-1.352 1.672-1.352 3.75-2.625l2.047-1.29c11.546-5.69 29.386-2.376 41.203.915z" fill="#fff"/><path d="M206 48h2v2l3.375.25C215 51 215 51 216.438 53.063L217 55l3-1c.733-2.015.733-2.015 1-4l3 1-2 7h9l1 2h2l2-3c3.054-.72 5.922-.543 9 0 7.826 5.404 13.37 17.008 16 26 2.14 11.78 1.862 23.874-1.277 35.395-.944 4.708-1.08 9.314-1.223 14.105-.62 19.147-1.842 50.219-15.184 65.418L242 199c1.49-6.165 3.074-12.265 4.941-18.328 2.393-8.33 3.592-16.722 4.746-25.297.318-2.29.637-4.58.959-6.87.197-1.409.39-2.818.581-4.227.345-2.515.698-4.984 1.324-7.446 3.211-13.095 1.03-30.706-4.977-42.672-3.358-5.353-7.346-8.674-12.574-12.16a115.122 115.122 0 0 0-8.55-.3l-2.578-.014a971.153 971.153 0 0 0-5.42-.002c-2.716.003-5.432-.02-8.15-.045-19.925-.24-19.925-.24-37.302 8.361-8.496 8.955-7.454 24.888-7.336 36.468.023 2.463.02 4.926.014 7.39.022 12.883 1.224 25.422 4.072 38.017l.495 2.224c1.917 8.195 4.771 16.043 7.755 23.901h-2c-3.8-6.872-6.777-13.75-9.25-21.188l-.745-2.228c-2.708-8.37-4.303-16.644-5.13-25.397l-.257-2.63c-.604-6.529-.858-13-.618-19.557-5.17.406-5.17.406-10 2-5.135-21.058-6.015-44.624 5.496-63.781 2.014-2.971 3.58-5.1 6.504-7.219 3.313-.313 3.313-.313 6 0l2 4 3-1c.733-2.015.733-2.015 1-4h7l-1-5h3l2 3c3.278-.752 3.278-.752 5-4 2.624-.985 5.245-1.422 8-2l2 4h2l2-5z" fill="#59321c"/><path d="M1197 20c3 1 3 1 4.132 3.155l1.067 2.849 1.214 3.162 1.274 3.396c9.893 26.156 9.893 26.156 27.626 47.126L1235 82v2l2.188.813c2.81 1.186 5.296 2.462 7.812 4.187v2l-2.09.008c-9.028.371-13.828 3.085-20.27 9.25-10.232 11.177-16.913 25.823-22.64 39.742h-3l-1.363-3.559c-6.466-16.376-14.663-33.112-29.512-43.441-4.633-1.483-9.285-1.75-14.125-2v-2a158.87 158.87 0 0 1 6.5-4.563c6.05-4.187 11.05-8.511 15.5-14.437l1.309-1.742c8.394-12.385 13.508-27.401 18.905-41.244.915-2.344 1.847-4.68 2.786-7.014z" fill="#b78b49"/><path d="M326 189c4.47.28 7.138.903 10.813 3.5 4.47 2.969 8.813 4.142 14.187 3.5 3.297-2.22 3.297-2.22 6-5 3.706-1.557 5.943-2 10-2l1 9 2.875-1.5C374 195 374 195 376 195v-2l6 1-3 2 1.426 1.469c5.293 5.698 8.401 10.78 9.199 18.594C388.479 223.28 382.464 226.66 377 231l-1 2 2.188.313c3.057.747 5.195 1.967 7.812 3.687-1.964 24.182-7.502 46.866-16.192 69.516-1.242 3.818-1.546 7.487-1.808 11.484l-2-1V211l-2 2c-3.737-.17-5.706-.786-8.75-3-4.31-2.653-8.203-3.384-13.25-3-2.619 1.778-2.619 1.778-5 4-2.959.92-5.945 1.494-9 2l-2-3-1 101c-13.62-13.62-16.828-50.647-19-69v-5l9-5-2.875-3.438-1.617-1.933c-1.43-1.737-1.43-1.737-3.508-2.629v-2l-4-2c-.794-6.99 1.72-12.881 5-19 2.172-2.363 2.172-2.363 4-4l-2-2c2.647-1.46 3.894-2 7-2v2l2.375.938C322 197 322 197 324 198z" fill="#343e47"/><path d="M342 395h10c.489 11.166.967 22.333 1.438 33.5l.105 2.51c.988 23.461 1.829 46.91 2.166 70.392.124 8.39.377 16.705 1.046 25.073.5 7.186.63 14.388.807 21.588l.065 2.478c.397 15.489.492 30.965.373 46.459-3.06.675-6.124 1.339-9.188 2l-2.619.578-2.548.547-2.333.508c-2.473.393-4.812.391-7.312.367-.252-23.859.436-47.645 1.332-71.485.142-3.814.277-7.629.412-11.443.133-3.716.268-7.431.405-11.147l.19-5.259c.565-15.72.565-15.72 1.436-23.46.416-4.08.538-8.172.69-12.269l.233-5.808.118-3.034A2519.25 2519.25 0 0 1 342 395z" fill="#de965c"/><path d="M261 87c2.94 2.56 4.447 5.453 6.223 8.898l.914 1.766c.981 1.9 1.954 3.805 2.926 5.711l2.03 3.956a897.984 897.984 0 0 1 14.87 30.444c.967 2.074 1.941 4.145 2.92 6.213 6.147 13.027 11.96 26.204 17.617 39.45l1.062 2.458.97 2.288.86 2.017C312 192 312 192 312 195c-4.61 1.046-9.214 2.057-13.86 2.93l-2.44.472c-1.647.318-3.296.625-4.946.922-4.873.965-8.187 1.987-11.754 5.676-2.015 3.286-2.441 6.272-2.852 10.078l-.39 3.516-.383 3.656-.406 3.703c-.33 3.015-.653 6.03-.969 9.047h-1l-.256-1.635C268.728 208.146 263.079 183.238 255 159c.23-2.112.534-4.216.875-6.313 1.006-6.606 1.355-13.137 1.563-19.812.196-6.005.49-11.557 2.125-17.375 2.54-9.21 1.686-19.03 1.437-28.5z" fill="#e6af84"/><path d="M358 597c.78 7.037 1.275 14.051 1.563 21.125l.128 3.092c.427 11.26.407 22.517.309 33.783l-2 1-1 25-8.875 2.875-2.87.931c-5.127 1.626-10.051 2.908-15.442 3.284-2.236.866-2.236.866-3.102 4.316C325 696 325 696 321.664 697.566c-1.34.358-2.687.69-4.039.996-5.474 1.44-10.262 3.111-15.313 5.75-6.336 3.066-12.346 3.952-19.312 2.688-2.355-1.336-2.355-1.336-4-3-.25-3.188-.25-3.188 0-6 7.507-3.495 15.184-6.287 23-9l-3-1v-11c12.454-3.608 12.454-3.608 18.129-5.086l2.025-.528c1.888-.49 3.777-.973 5.666-1.456 3.402-.892 3.402-.892 7.18-2.93v-57h1l1-9c3.437-.671 6.874-1.336 10.313-2l2.958-.578 2.842-.547 2.619-.508C355 597 355 597 358 597z" fill="#d6782e"/><path d="M1404.559 20.887c3.848 2.125 6.602 4.664 8.039 8.965 1.305 6.968 1.478 13.956-2.192 20.195-7.403 10.282-7.403 10.282-11.656 11.707L1397 62v2c-23.004 13.923-49.527 16.853-75.739 20.515-11.75 1.653-22.994 3.733-34.261 7.485l-2.03.663c-13.552 4.504-27.296 10.564-38.208 19.927-1.762 1.41-1.762 1.41-3.93 2.414-2.185.918-2.185.918-2.832 3.996h-2l-.816 1.742c-1.206 2.3-2.598 4.282-4.121 6.383-5.658 8.451-7.417 17.45-5.594 27.445 1.73 6.733 4.649 12.657 10.418 16.778 7.231 3.964 14.07 3.903 22.011 2.71L1262 174l2 2c-.187 2.5-.187 2.5-1 5-5.902 3.935-13.643 3.747-20.484 2.574-6.485-1.641-11.896-4.68-16.516-9.574-.746-2.223-.746-2.223-1-4h-2c-5.918-11.772-7.625-25.292-3.437-38a82.044 82.044 0 0 1 2.437-5l1.367-2.648c5.313-9.225 13.965-19.467 23.633-24.352h2v-2c26.618-13.781 53.293-20.663 82.985-24.6C1357.8 70.092 1357.8 70.092 1382 61c7.863-4 7.863-4 10-4v-2c1.39-1.227 1.39-1.227 3.25-2.625 4.828-4.015 7.47-8.398 8.063-14.687-.231-2.784-.231-2.784-1.313-5.688-4.316-2.563-9.127-2.595-14-2a100.26 100.26 0 0 0-6 3c-2.875.188-2.875.188-5 0-2.125-4.625-2.125-4.625-1-8 8.421-5.236 19.024-7.418 28.559-4.113zM1011.887 20.79c3.619 1.566 6.549 3.153 9.113 6.21.25 2.625.25 2.625 0 5l-1 1c-3.373-.324-6.318-.703-9.437-2.062-3.553-1.3-6.858-1.524-10.563-.938-3.499 1.718-5.47 2.742-7 6.375 0 3.231.848 5.618 2 8.625.35 1.33.691 2.66 1 4h2c1.132 1.166 2.263 2.333 3.39 3.504 8.303 7.718 18.615 11.838 29.423 14.559l3.075.784c9.307 2.312 18.618 3.86 28.112 5.153 16.218 2.23 32.202 4.628 48 9l2.042.565c19.907 5.688 41.715 15.903 54.958 32.435.694 2.211.694 2.211 1 4h2c7.711 14.494 11.623 26.65 7.035 43.145-3.142 8.668-9.473 15.941-17.66 20.23-8.693 2.288-16.786 2.2-25.375-.375l-1-1c.287-2.34.62-4.674 1-7 3.58-.073 6.796-.042 10.313.688 6.208.526 11.577-1.047 16.5-4.875 5.801-7.46 9.885-14.664 9.558-24.422-2.598-16.74-13.47-28.196-26.558-38.036-8.845-5.733-19.098-9.371-28.813-13.355l-3.137-1.324c-17.322-6.88-36.981-8.323-55.302-11.13C1031.875 77.758 1004.895 73.315 988 53c-4.263-6.102-5.728-11.572-5-19 1.352-6.22 3.837-9.375 9-13 5.26-2.63 14.319-1.733 19.887-.21z" fill="#b78b49"/><path d="M109 409h1c.29 4.06.524 8.123.75 12.188l.246 3.427c.378 7.364-.486 13.15-2.887 20.108-1.92 5.673-3.17 11.502-4.484 17.34l-.447 1.983C99.406 480.91 96.545 497.912 94 515l-.582 3.873C89.218 547.72 87.835 576.928 86 606c-1.76-.154-3.522-.31-5.282-.467l-2.972-.262a95.592 95.592 0 0 1-8.934-1.333l-2.792-.536L64 603l2-1c.438-2.801.438-2.801.563-6.188l.19-3.417c.037-.659.072-1.317.109-1.996C70.42 528.605 84.232 465.792 109 409z" fill="#dc8b4a"/><path d="M1718 568c-6.314 14.124-15.985 26.515-25 39l-1.333 1.96c-1.176 1.714-2.417 3.381-3.667 5.04h-2l-.719 1.703c-1.57 2.816-3.496 4.777-5.781 7.047l-2.406 2.422C1675 627 1675 627 1673 627v2c-1.828 1.473-1.828 1.473-4.25 3.063l-2.39 1.597c-4.522 2.568-9.216 2.924-14.36 2.34-4.369-2.039-7.176-4.27-9.25-8.625-1.999-8.994 1.255-17.484 5.941-25.137 6.977-10.106 15.519-17.464 26.309-23.238l2.535-1.371c12.381-6.45 26.432-10.368 40.465-9.629zM1738.25 447.375c4.096 3.803 5.292 9.133 6.375 14.438l.727 3.457.648 3.73.45 2.16c1.076 6.258-.305 9.854-3.513 15.215l-1.267 2.241a422.258 422.258 0 0 1-2.526 4.401c-1.454 2.52-2.796 5.093-4.144 7.67-2.376 4.323-4.928 8.52-7.563 12.688l-1.103 1.768c-2.416 3.76-5.1 6.788-8.334 9.857l-1.844 1.95c-4.17 4.376-7.083 6.674-13.219 7.425-2.937-.375-2.937-.375-5.25-1.813-3.7-5.618-2.963-11.029-1.674-17.353 3.578-15.762 9.999-30.226 17.987-44.209l1.77-3.152c2.941-5.104 2.941-5.104 4.23-6.848h2l.937-1.875L1725 455h2l.562-1.75c2.315-3.623 6.187-6.625 10.688-5.875z" fill="#fff"/><path d="M350 207c2.342 1.171 4.667 2.383 6.938 3.688 3.373 1.445 4.646 1.45 8.062.312l2-1v107c-12 6-12 6-17 7V207z" fill="#fefefe"/><path d="M694 463c1.623 1.623 1.366 3.31 1.5 5.563-.136 13.1-9.333 26.224-15.5 37.437l-1.453 2.75c-6.345 11.96-13.266 23.694-21.61 34.375l-1.408 1.812c-1.125 1.398-2.32 2.737-3.529 4.063h-2v2l-4 1c-2.77-11.91 2-24.57 5.396-35.958.51-1.724.992-3.456 1.467-5.19C657.886 493.854 668.311 474.357 683 464c3.647-1.78 7.125-2.64 11-1z" fill="#fff"/><path d="M376 193l6 1-3 2 1.426 1.469c5.293 5.698 8.401 10.78 9.199 18.594C388.479 223.28 382.464 226.66 377 231l-1 2 2.188.313c3.057.747 5.195 1.967 7.812 3.687-1.964 24.182-7.502 46.866-16.192 69.516-1.242 3.818-1.546 7.487-1.808 11.484l-2-1c-.047-14.012-.082-28.025-.104-42.037-.01-6.506-.024-13.012-.047-19.519a7159.96 7159.96 0 0 1-.039-18.829c-.003-2.397-.01-4.794-.021-7.19a2188.35 2188.35 0 0 1-.016-10.057l-.022-3.016.008-2.77-.005-2.403c.276-2.448 1.136-4 2.246-6.179.078-2.332.09-4.668 0-7 5.75-3 5.75-3 8-3v-2z" fill="#374049"/><path d="M337 486h1c4.316 21.532 8.357 43.066 11.438 64.813l.378 2.65c1.763 12.409 3.373 24.79 3.247 37.35l-.028 3.582L353 597l2 1c-2.561.506-5.124 1.005-7.688 1.5l-2.185.434-2.139.41-1.952.38c-2.362.32-4.655.293-7.036.276-.267-24.055.469-48.033 1.39-72.068.186-4.862.364-9.724.544-14.586.349-9.45.705-18.898 1.066-28.346z" fill="#da8a49"/><path d="M1443 464c2.388 9.986-2.647 19.017-6.938 27.875l-1.448 3.007c-4.943 10.075-10.603 19.65-16.614 29.118l-1.144 1.814c-3.811 6.008-7.945 11.761-12.231 17.436l-1.301 1.74c-1.06 1.376-2.186 2.699-3.324 4.01h-2l-1 2c3.205-27.88 12.659-65.104 35-84 3.797-2.871 6.262-3.33 11-3zM1327 464c4.049 19.99-16.263 46.64-26.77 62.676-3.251 4.891-6.72 9.616-10.23 14.324l-1.762 2.457-1.613 2.23-1.398 1.95L1284 549h-2l-1 2c3.205-27.88 12.659-65.104 35-84 3.797-2.871 6.262-3.33 11-3zM1229 712c5.791 4.812 11.128 9.977 16.438 15.313l2.505 2.494 2.366 2.369 2.15 2.153C1254 736 1254 736 1254 737h-102c6.75-7.875 6.75-7.875 10.305-11.402l2.265-2.256 2.305-2.28 2.375-2.36c1.914-1.904 3.831-3.804 5.75-5.702l5 2v2l1.77.771c2.464 1.358 3.991 2.838 5.91 4.89l2.066 2.153c1.418 1.497 2.83 3 4.234 4.508 4.12 4.343 4.12 4.343 9.528 6.674L1206 736v-2c1.355-1.332 1.355-1.332 3.188-2.813 3.921-3.257 7.567-6.569 10.687-10.625 2.72-3.279 5.849-5.86 9.125-8.562z" fill="#fff"/><path d="M293 329v23l8-3h4v-2l-2.875-.75C299 345 299 345 297.805 342.922L297 341c4.508.296 8.62.63 12.75 2.563 3.124 1.381 4.901 1.741 8.25 1.437l-1-5h3l7 17h-4v-2l-5 1-1 3a101.625 101.625 0 0 1-7.938 3.688l-2.248.97C301.307 366 301.307 366 299 366l1-3-3.813.625c-3.588.588-3.938.541-7.187-1.625v6c-3.612-3.465-6.635-7.027-9.625-11.063-4.3-5.715-8.931-10.978-13.832-16.183-2.625-2.843-5.09-5.763-7.543-8.754 1.657-1.657 3.714-1.344 5.996-1.535l3.135-.264 3.307-.264 3.2-.275c6.523-.534 12.767-.662 19.362-.662z" fill="#e2b08b"/><path d="M201 29c2 1.375 2 1.375 4 3v2h7l1 3 3-5c2 1.375 2 1.375 4 3v2h7c.125 4.75.125 4.75-1 7l2 1 2-7 4 1v2h2v2h6c.75 2.335 1.092 3.662.438 6.063L242 51l2 3v3l-6.055.488c-2.34.386-2.34.386-3.945 3.512l-3-1v-2h-9l1-7-2-1-1 5h-4l-1-4h-8l1-3h-2l-1 5h-4l-1-4-3 2-2.5.375c-3.115.779-3.858 1.946-5.5 4.625-2.468-1.152-4.048-2.048-6-4v5h-7l-1 5h-4v-3l3 2 1-5h6l-1.625-2.688C178 50 178 50 178.812 47.126L180 45h-5l2-1-1-5 3.313-.688c3.812-.97 3.812-.97 5.625-3.937L186 32l1.5 1.5c3.616 2.17 6.322 1.709 10.5 1.5l.938-2.438C200 30 200 30 201 29z" fill="#cc8b58"/><path d="M493.188 191c7.705 5.94 13.457 13.456 15.812 23 .939 7.481.478 13.78-4 20-4.038 4.52-4.038 4.52-7 6l-.297-2.414c-1.272-9.608-1.272-9.608-7.355-16.84-2.952-1.925-6.02-3.573-9.137-5.215-12.179-6.434-12.179-6.434-14.211-12.531-.502-4.35-.247-7.171 2.125-10.813 6.256-7.755 16.47-6.167 24.063-1.187zM1830 472h1c1.905 15.319 3.328 30.59 3.477 46.033.015 1.464.039 2.927.072 4.39.176 8.699-.152 16.352-5.549 23.577-3.668 3.312-7.134 5.248-12.125 5.563-5.465-.794-8.207-3.03-12.188-6.688-2.456-4.185-2.997-8.05-2.687-12.875 1.672-5.39 5.44-8.9 10-12 4.701-1.567 8.401-.64 13.047.625 2.023.594 2.023.594 3.953-.625 1.109-4.665 1.344-9.371 0-14l-1.828-.586-2.422-.789-2.39-.773c-2.226-.804-4.27-1.75-6.36-2.852v-4l3-1c1.267-2.108 1.267-2.108 2.312-4.75l1.282-2.973L1824 485a1368.09 1368.09 0 0 1 3.312-7.187l1.551-3.356L1830 472zM1944.75 197.188c3.805 3.065 5.886 5.476 7.188 10.25.076 4.34-.387 6.036-2.938 9.562-3.73 3.052-7.885 5.377-12.082 7.723-6.98 3.916-11.882 6.72-15.23 14.214-.772 3.437-.828 6.551-.688 10.063-4.822-1.894-7.061-5.38-9.594-9.75-3.035-7.014-2.408-15.524.219-22.625 2.128-4.59 4.824-8.993 8.375-12.625h2v-2c1.61-1.254 1.61-1.254 3.75-2.563l2.11-1.316c5.26-2.755 11.423-3.294 16.89-.934z" fill="#fff"/><path d="M355 496h1l.262 2.7c1.14 10.93 2.943 21.713 4.885 32.53 2.529 14.197 4.216 28.409 5.416 42.77l.195 2.323c2.107 25.251 2.375 50.352 2.242 75.677-3.371 1.498-5.204 2-9 2-1.559-31.74-2.501-63.483-3.243-95.251-.077-3.284-.157-6.568-.237-9.852a3831.03 3831.03 0 0 1-.153-6.772c-.18-7.714-.534-15.39-1.155-23.084-.324-4.641-.321-9.266-.274-13.916l.013-2.7c.012-2.141.03-4.283.049-6.425z" fill="#573e2c"/><path d="M334 668v20l-6 1-1.414 3.402C325 696 325 696 321.664 697.566c-1.34.358-2.687.69-4.039.996-5.474 1.44-10.262 3.111-15.313 5.75-6.336 3.066-12.346 3.952-19.312 2.688-2.355-1.336-2.355-1.336-4-3-.25-3.188-.25-3.188 0-6 7.507-3.495 15.184-6.287 23-9l-3-1v-11a990.096 990.096 0 0 1 26.016-7.168C331.586 668 331.586 668 334 668z" fill="#583d2b"/><path d="M294 367c3.69 3.52 6.81 7.201 9.75 11.375l1.313 1.862c12.612 18.111 23.82 38.157 30.984 59.044.691 2.602.691 2.602 1.953 3.719l1-8h1c.264 10.85-.566 21.513-1.5 32.313l-.434 5.17c-.35 4.172-.706 8.345-1.066 12.517-1.65-3.03-2.605-5.929-3.445-9.27l-.813-3.157-.867-3.385C324.463 441.05 314.263 409.394 298 385c-.195-2.918-.195-2.918-.125-6.188l.055-3.292.07-2.52h-4v-6z" fill="#533b2b"/><path d="M1596.5 88.75l2.906-.016C1602 89 1602 89 1605 91v2h2c4.325 9.515 2.484 16.489-1 26-1.658 4.058-3.43 8.066-5.215 12.07-2.04 4.708-3.332 8.811-3.785 13.93-3.47-3.144-5.792-6.636-8.063-10.688l-1.062-1.896c-5.373-9.79-8.516-20.586-6.25-31.853 2.735-7.088 6.925-11.856 14.875-11.813zM829.813 81.125c4.799 4.113 6.897 8.496 7.425 14.652.305 12.962-3.63 23.228-10.238 34.223l-1.496 2.75C824 135 824 135 821 136l-.191-1.844c-.872-6.237-2.655-11.53-5.246-17.219-8.623-18.959-8.623-18.959-5.989-27.882 1.274-3.222 2.63-5.957 5.426-8.055 4.947-1.65 9.938-1.825 14.813.125z" fill="#fff"/><path d="M1545 398c11.77-.565 11.77-.565 17 3l1.914 1.29c3.227 2.403 4.858 3.897 5.961 7.835-1.112 4.923-3.347 8.533-5.992 12.8-2.586 4.223-4.73 8.622-6.883 13.075-.665 1.334-1.33 2.668-2 4-7.11.802-11.308-.145-17.09-4.395L1536 434l-1.816-1.262C1533 431 1533 431 1533.105 427.871c1.033-4.468 2.498-8.563 4.207-12.808l.897-2.303c2.005-5.07 4.294-9.914 6.791-14.76z"/><path d="M342 395h10c.4 8.965.791 17.93 1.173 26.896.178 4.167.359 8.334.545 12.501.978 21.884 1.506 43.697 1.282 65.603-1.532-2.965-2.51-5.644-3.262-8.902l-.693-2.915-.732-3.12c-1.717-7.217-3.623-14.188-6.236-21.132-4.457-11.968-4.842-22.284-4.077-34.931.077-1.429.152-2.858.227-4.287.52-9.909 1.117-19.812 1.773-29.713z" fill="#e1ac81"/><path d="M249 325a282.832 282.832 0 0 1 5 5c1.664.348 3.33.684 5 1l.836 1.723c1.54 3.013 3.643 4.83 6.101 7.152C274.37 348.04 281.235 357.445 288 367l1-5 4 2v10h4c.027 3 .047 6 .063 9l.025 2.543A101.98 101.98 0 0 1 296 401c-1.794-2.691-2.903-5.191-4.054-8.19C285.89 377.15 277.8 359.985 267 347l-3-1v-2l-1.5.5c-3.534.707-6.897.56-10.5.5v-2l3-1 1-2-3 1c-12.795 2.396-23.061-4.167-34-10v-1c4.06-.841 8.124-1.672 12.188-2.5l3.486-.723 3.369-.683 3.094-.635c2.73-.438 5.111-.725 7.863-.459z" fill="#df965c"/><path d="M247 253h2c2.723 5.56 5.429 11.129 8.118 16.705.916 1.895 1.838 3.787 2.764 5.677 1.334 2.722 2.65 5.452 3.962 8.184.415.84.831 1.678 1.26 2.542 2.337 4.919 3.383 8.441 2.896 13.892-3.394.843-6.79 1.672-10.188 2.5l-2.908.723-2.822.683-2.587.635c-2.554.47-4.903.54-7.495.459-2.001-9.434-2.304-18.416-2-28l.055-2.668c.322-5.348 2.175-9.323 4.789-13.973 1.207-2.463 1.735-4.658 2.156-7.359z" fill="#fefdfc"/><path d="M1238.625 456.25l2.375.75c2.483 4.966 1.307 11.682-.063 16.875-4.236 12.57-12.618 24.583-24.21 31.285-3.999 1.945-7.343 1.923-11.727 1.84l-1-2a129.162 129.162 0 0 1 3.25-7.75c.313-.704.626-1.408.95-2.133A268.303 268.303 0 0 1 1214 483h2l.313-1.68c2.242-7.57 13.454-25.914 22.312-25.07z" fill="#fff"/><path d="M343 207h7v118l-7 2V207z" fill="#e6e7e8"/><path d="M834 449c-.603 15.673-13.112 30.586-24 41h-2v2c-6.444 6.009-13.322 8.875-22 10 32.452-58.183 32.452-58.183 48-53z" fill="#fff"/><path d="M326 189c4.47.28 7.138.903 10.813 3.5 4.47 2.969 8.813 4.142 14.187 3.5 3.297-2.22 3.297-2.22 6-5 3.706-1.557 5.943-2 10-2 1.62 6.415 2.83 12.502 1 19-2.063 3.063-2.063 3.063-4 5-3.67-.35-5.731-.805-8.75-3-4.31-2.653-8.203-3.384-13.25-3-2.619 1.778-2.619 1.778-5 4-2.959.92-5.945 1.494-9 2-4.602-7.112-4.32-12.756-3-21l1-3z" fill="#1d222a"/><path d="M1915 55c14.727 1.99 32.916 4.74 43 17 2.293 3.906 2.986 7.167 3.063 11.688-1.103 3.435-2.294 5.3-5.258 7.414-3.386 1.685-6.184 2.105-9.805.898-5.43-4.263-9.195-10.77-12-17v-2h-2a70.29 70.29 0 0 1-3-4c-3.482-4.653-7.43-7.992-12.059-11.469L1915 56v-1zM502 47l-2 3h-2v2c-1.496 1.438-1.496 1.438-3.438 3-2.714 2.145-2.714 2.145-4.562 5h-2l-.828 1.703C477.236 81.177 477.236 81.177 470 84c-3.961-.305-6.807-1.67-10-4-2.473-3.899-2.235-7.016-1.652-11.473 1.615-6.258 6.266-9.47 11.527-12.777 9.592-5.381 21.01-9.508 32.125-8.75z" fill="#fff"/><path d="M242 309h1l.586 2.23.789 2.957.773 2.918c.8 2.719 1.782 5.274 2.852 7.895-3.83.847-7.665 1.675-11.5 2.5l-3.266.723c-15.445 3.296-15.445 3.296-23.109-.973a506.562 506.562 0 0 0-3.563-1.895l-2.085-1.1c-5.374-2.723-10.876-5.184-16.352-7.693l-3.59-1.649c-2.844-1.306-5.689-2.61-8.535-3.913 4.366-1.353 7.708-.152 12 1 14.751 3.918 31.024 3.002 45.785-.344 2.858-.583 5.314-.788 8.215-.656v-2z" fill="#974e2d"/><path d="M223 28v2h2c4.46 7.37 4.46 7.37 3.75 12l-.75 3-3-1 2-7-3.25.25C220 37 220 37 217.562 35L216 33l-3 5-1-4-3.25.25C205 34 205 34 202.562 32L201 30l-1 2.438c-2.186 2.8-2.616 3.024-5.938 3.562-2.99.215-3.88.105-6.562-1.438L186 33l-1.063 2.438C183 38 183 38 179.313 38.812L176 39l1 5h-2c-1.75-2.5-1.75-2.5-3-6 .928-2.924 2.356-5.42 4-8h2v-2c15.752-8.458 29.25-9.432 45 0z" fill="#502b16"/><path d="M372 688c23.496-.97 23.496-.97 32.48 3.7 3.39 1.749 6.873 2.608 10.56 3.527C417 696 417 696 419 699c.125 2.688.125 2.688 0 5-5.53 3.587-10.621 3.694-17 3-3.738-1.118-7.176-2.685-10.688-4.375-6.089-2.838-11.753-5.14-18.312-6.625-1-1-1-1-1.063-4.563L372 688z" fill="#000314"/><path d="M215 35l12 2c0 5 0 5-1 7l2 1 2-7 4 1v2h2v2h6c.75 2.335 1.092 3.662.438 6.063L242 51l2 3v3l-6.055.488c-2.34.386-2.34.386-3.945 3.512l-3-1v-2h-9l1-7-2-1-1 5h-4l-1-5h-6l1.188-2.188c1.171-2.875 1.171-2.875-.563-5.624L208 40l2.938-.813L214 38l1-3z" fill="#d79159"/><path d="M327 689c-.543 3.34-.543 3.34-2 7-2.622 1.268-4.537 1.94-7.313 2.563-5.498 1.437-10.304 3.096-15.375 5.75-6.336 3.065-12.346 3.95-19.312 2.687-2.355-1.336-2.355-1.336-4-3-.25-3.188-.25-3.188 0-6 7.184-3.81 14.182-5.113 22.188-6.188l6.855-.98 3.032-.415c2.023-.288 4.042-.613 6.055-.965 3.322-.523 6.513-.52 9.87-.452z" fill="#040513"/><path d="M172 262h2c6.953 9.06 5.985 21.608 4.701 32.546-.73 4.854-1.669 9.656-2.701 14.454-4.558-.658-7.945-1.78-12-4 .651-9.23 2.592-18.109 4.563-27.125l.998-4.633c.807-3.748 1.621-7.496 2.439-11.242z" fill="#fdfaf8"/><path d="M249 325a282.832 282.832 0 0 1 5 5c2.678.872 2.678.872 5 1l-2 2 7 9c-4.906 3.68-6.175 3.291-12 3v-2l3-1 1-2-3 1c-12.795 2.396-23.061-4.167-34-10v-1c4.06-.841 8.124-1.672 12.188-2.5l3.486-.723 3.369-.683 3.094-.635c2.73-.438 5.111-.725 7.863-.459z" fill="#d57a31"/><path d="M172 683c2.25.141 4.5.288 6.75.438l3.797.246C186 684 186 684 190 685l-1 19h-2l-1-13-3 1c-1.184 2.952-1.184 2.952-2.063 6.438-1.74 6.364-1.74 6.364-3.937 8.562-5.894 2.267-12.933 1.011-19 0l-1-4c.531-.315 1.062-.63 1.61-.953 5.78-3.502 10.306-6.314 12.39-13.047.348-1.998.683-3.997 1-6z" fill="#ebceb7"/><path d="M1345 170h1l.367 2.781c.976 7.723.976 7.723 2.758 15.281 1.47 5.524 1.625 11.29.875 16.938-2.529 3.554-3.912 4.637-8 6-2.917-1.28-4.593-2.36-6.313-5.063-3.122-13.34 3.269-24.392 9.313-35.937zM1073 162c7.254 8.185 10.733 19.629 10.504 30.45-.661 3.346-2.072 6.118-4.504 8.55-2.813.313-2.813.313-6 0-2.303-1.867-3.678-3.356-5-6-.724-7.63.76-14.735 2.5-22.125l.723-3.188A1067.49 1067.49 0 0 1 1073 162z" fill="#fff"/><path d="M287 329l2 30c-4.194-3.495-6.814-5.904-10-10l-2-1v-2l-1.684-.723c-2.847-1.57-4.985-3.516-7.378-5.714l-2.598-2.372A174.967 174.967 0 0 1 260 332c8.889-2.299 17.827-3 27-3z" fill="#fdfbfa"/><path d="M287 329h6v23l4 1-1 2 2 1-3 2h5c-.625 2.438-.625 2.438-2 5-2.938.938-2.938.938-6 1l-3-2v6c-3.612-3.465-6.635-7.027-9.625-11.063-4.3-5.715-8.931-10.978-13.832-16.183-2.625-2.843-5.09-5.763-7.543-8.754l4-1-1 2 1.977 1.574c1.801 1.438 3.6 2.878 5.398 4.32a643.909 643.909 0 0 0 4.625 3.68c1.37 1.097 2.692 2.255 4 3.426v2l3 1v2l3 1a141.135 141.135 0 0 1 5 5l-.219-2.57c-.673-8.515-.898-16.887-.781-25.43z" fill="#e2af86"/><path d="M358 655h2c.91 11.024 1.114 21.943 1 33h11v5c-5.284-.119-10.567-.243-15.85-.372-1.796-.043-3.591-.085-5.387-.125-2.589-.058-5.178-.122-7.767-.187l-2.41-.05A99.318 99.318 0 0 1 327 691l1-3a76.757 76.757 0 0 1 7.813-2c1.444-.311 2.888-.624 4.332-.938l2.287-.488c4.88-1.091 9.722-2.34 14.568-3.574l-.016-2.28c-.02-3.385-.034-6.771-.046-10.158l-.026-3.587-.01-3.409-.016-3.158C357 656 357 656 358 655z" fill="#fff"/><path d="M394.945 100.805L401 101v2h2c2.693 6.178 2.011 11.5.188 17.813-1.433 2.638-2.84 4.309-5.188 6.187-2.75.75-2.75.75-5 1-3.418-2.889-5.712-5.437-6.54-9.926-.171-6.293.31-10.346 4.54-15.074 2-2 2-2 3.945-2.195z" fill="#e6b28c"/><path d="M333.438 140.875l2.525-.012c4.459.007 8.648.238 13.037 1.137.499 4.19.2 5.712-2.25 9.25-4.052 4.052-6.843 5.074-12.563 5.25-5.342-.085-8.2-1.009-11.917-4.844-2.463-3.212-3.27-5.64-3.27-9.656 4.805-1.238 9.514-1.148 14.438-1.125z" fill="#eee6df"/><path d="M401 255c2.107 3.16 3.227 6.044 4.531 9.61l.717 1.954c.5 1.364.997 2.73 1.493 4.095.752 2.071 1.51 4.14 2.27 6.208 2.193 6.002 4.29 11.972 5.989 18.133-1.559.82-3.122 1.63-4.688 2.438l-2.636 1.37C406 300 406 300 401 301v-46z" fill="#fff"/><path d="M198 187h1l.563 3.25c.661 2.387 1.12 3.492 3.058 5.07 1.747.98 3.562 1.836 5.379 2.68l2 1a95.33 95.33 0 0 0 5.125.063l2.758-.028L220 199c.125 7.625.125 7.625-1 11h-2v2c-2.595 1.298-4.542 1.133-7.438 1.125l-2.933.008C204 213 204 213 201 212v-2h-2c-.96-2.883-1.117-4.677-1.098-7.668l.01-2.705.025-2.815.014-2.85c.012-2.32.028-4.641.049-6.962z" fill="#ecc4a6"/><path d="M395 511h1c3.037 24.435 5.836 49.357 5 74l-5 2c-1.662-1.662-1.12-3.665-1.124-5.884l.01-2.114v-2.217c0-2.43.009-4.86.016-7.289l.005-5.04c.003-4.43.013-8.861.024-13.292.01-4.517.015-9.035.02-13.553.01-8.87.028-17.74.049-26.611z" fill="#dba880"/><path d="M189 687h1v5h39l1 7h-41v-12z" fill="#b98256"/><path d="M358 172v16h-23v-7l-2-1 1.73-.227c6.788-1.1 12.429-3.497 18.582-6.53C356 172 356 172 358 172z" fill="#a58166"/><path d="M249 691h48c-3.937 3.937-10.68 3.986-16 5l-3.113.637c-9.926 1.815-19.84 1.543-29.887 1.363l1-7z" fill="#b88156"/><path d="M232 163l1 2c-5.129 8.242-5.129 8.242-10.043 9.54-4.26.727-6.382.748-10.332-1.227-2.31-2.035-4.12-3.639-5.625-6.313v-4c8.197-1.457 16.829-1.776 25 0z" fill="#702f4c"/><path d="M256 118l3 2c.296 2.097.296 2.097.18 4.707l-.119 2.936-.186 3.17-.169 3.26c-2.906 49.624-2.906 49.624-15.39 63.845L242 199c1.49-6.165 3.074-12.265 4.941-18.328 2.393-8.33 3.592-16.722 4.746-25.297.318-2.29.637-4.58.959-6.87.197-1.409.39-2.818.581-4.227.432-3.154.994-6.195 1.773-9.278.14-1.367.244-2.737.316-4.11l.127-2.285.12-2.355.13-2.402c.106-1.95.207-3.899.307-5.848z" fill="#603a24"/><path d="M185 35c3.41.787 6.689 1.871 10 3l-.063 3.25c.049 2.898.195 5.036 1.063 7.75l-2.375.813c-2.906 1.035-2.906 1.035-4.625 4.187l-4-2v-2h-4l1-6-3-1-1-3 2.938-.813L184 38l1-3z" fill="#f4e2d5"/><path d="M247 687l2 1c.179 10.737.179 10.737-3.625 14.813-2.672 2.076-3.331 2.186-6.938 2.25-3.682-1.139-5.723-2.349-8.437-5.063-.96-2.882-1.106-4.699-1.063-7.688l.028-2.449L229 688h2a99.185 99.185 0 0 1 3 5c1.223 1.44 1.223 1.44 4.875 1.313 3.408-.005 3.408-.005 6.063-2.125 1.164-2.278 1.164-2.278 2.062-5.188z" fill="#efd0b7"/><path d="M215 35c3.699.888 7.346 1.946 11 3-.783 3.916-2.392 7.364-4 11h-2l-1 5-4-2v-2h-6l1.188-2.188c1.171-2.875 1.171-2.875-.563-5.624L208 40l2.938-.813L214 38l1-3z" fill="#faf0e8"/><path d="M394.945 100.805L401 101l-2 1 1 1.5c1.468 3.67 1.255 6.55 1 10.5l-2 2 .098-6.055c.028-2.027.028-2.027-1.098-3.945h-3l-1 2 3 2a260.428 260.428 0 0 1-.312 4.75l-.176 2.672c-.576 2.901-1.588 4.37-3.512 6.578l-3-2-2 1c-2.088-4.177-1.445-9.452-1-14 1.387-3.458 4.035-7.803 7.945-8.195z" fill="#d4a481"/><path d="M156 127h6c.337 3.041.67 6.083 1 9.125.095.856.19 1.712.29 2.594 1.005 9.338 1.005 9.338.71 13.281l-2 2c-2.125-.375-2.125-.375-4-1l3-2c.73-2.563.73-2.563 1-5l-2.25.313C157 146 157 146 154.687 143.875c-2.024-3.448-2.228-4.93-1.687-8.875.868-2.744 1.897-5.335 3-8z" fill="#e9be9e"/><path d="M287 329h6v23l4 1c-2.404 3.607-3.947 3.855-8 5-3.388-3.388-2.015-14.106-2.063-19.043 0-3.32.018-6.638.063-9.957z" fill="#e5b187"/><path d="M176 698h4c-.75 6.75-.75 6.75-3 9-5.894 2.267-12.933 1.011-19 0l-1-4c5.625-4 5.625-4 9-4v2h9l1-3z" fill="#e9eaea"/><path d="M231 41l1.625 1.438c2.803 1.844 5.071 2.187 8.375 2.562l-.5 1.813c-.764 3.343-.396 5.938.5 9.187-2.375.188-2.375.188-5 0-2-3-2-3-2-7h-3l-.438 3.438C230 56 230 56 229 57c-1.666.04-3.334.043-5 0l.625-2.75c.388-3.36.18-4.49-1.625-7.25 1-1 1-1 3.563-1.063L229 46l2-5z" fill="#f8ebe1"/><path d="M230 685h18c-2.443 8.551-2.443 8.551-5 10-6.857.762-6.857.762-10.438-1.625C231 691 231 691 230 685z" fill="#e5aa7c"/><path d="M201 32l3 1 1 3h6v2l-3 1 1 7h-4l-1 5-4-2v-2h-3l-2-4c3.325-1.108 5.622-.845 9 0v-3l-7 1v-4l-2-1h4z" fill="#f9efe8"/><path d="M358 178v10h-23v-4l2.816-.297C344.29 182.92 352.371 178 358 178z" fill="#e7b590"/><path d="M290 372c3.906 3.8 6.733 6.884 7.219 12.55.061 5.559-.39 10.96-1.219 16.45-6.717-10.076-7.602-17.248-6-29z" fill="#dc8b4a"/><path d="M199 188c3.273 1.038 6.328 2.155 9.438 3.625 3.792 1.464 6.536 1.622 10.562 1.375v7c-6.616.551-11.442-.24-17-4-1.715-1.469-1.715-1.469-3-3-.188-2.688-.188-2.688 0-5z" fill="#b0917a"/><path d="M172 683l9 1-4 13h-9l1.438-3.625A44 44 0 0 0 172 683z" fill="#e5a97b"/><path d="M176 45h4l-.625 2.875L179 51l2 2v3h-6l-1 5-4-2v-2h-6l4-5 6 1-.125-2.875C174 47 174 47 176 45z" fill="#fbf4ee"/><path d="M201 29c2 1.375 2 1.375 4 3v2h7l1 3 3-5 4 3-1 2-4-2-1 4-5 1c.776 3.075.776 3.075 3 5l-3 5h6v1h-8l1-3h-2l-1 5h-4l-1-4 4 1 1-4h4l-1.063-1.75c-1.086-2.608-.868-3.644.063-6.25h3v-2l-7 1-1-4-4 1 2-5z" fill="#c8824b"/><path d="M388 698c1.542.457 3.084.916 4.625 1.375l2.781.824a95.094 95.094 0 0 1 5.719 1.989c5.463 1.543 10.754 1.523 15.875-1.188l2-2v5c-5.534 3.59-10.621 4.102-17 3-5.526-1.874-10.771-4.428-16-7z" fill="#0a0a0b"/><path d="M171 41l5 5-1 3c-.348 1.664-.684 3.33-1 5l-2.75-.688c-3.245-.638-3.245-.638-5.625 1.126-.536.515-1.073 1.03-1.625 1.562l.625-2.25c.42-3.073-.006-4.178-1.625-6.75 1-1 1-1 3.563-1.063L169 46l2-5z" fill="#f5e6da"/><path d="M172 325c-4.905 4.114-10.256 8.128-16 11l-3-1v-7c6.466-2.771 12.05-3.136 19-3z" fill="#e9b68f"/><path d="M325 687l1 2c-4.197.74-8.397 1.47-12.598 2.191-1.428.247-2.856.496-4.283.748-2.054.363-4.11.715-6.166 1.065l-3.745.65c-2.844.307-4.555.299-7.208-.654 11.323-5.12 20.598-6.829 33-6z" fill="#452a1f"/><path d="M250 166l4 1c-.64 8.025-2.89 14.816-6 22.188l-1.08 2.575c-2.652 6.103-2.652 6.103-4.92 7.237a434.93 434.93 0 0 1 6.133-22.676c.895-3.432 1.43-6.806 1.867-10.324z" fill="#664330"/><path d="M355 192l2 1a105.022 105.022 0 0 1-4 5h-2l.563 2.25c.429 2.7.288 4.196-.563 6.75h-8l1-2c.333-3.5.333-3.5 0-7l-3-2 2.047.14c5.687.379 5.687.379 10.578-2.14z" fill="#292d35"/><path d="M348 144c.813 1.625.813 1.625 1 4-2.639 3.77-4.657 6.31-9 8-4.87.714-9.825 1.102-14.305-1.168-2.935-2.37-4.453-4.091-5.632-7.707L320 145l2.313 2.375c3.943 3.852 6.068 4.932 11.5 5 5.444-.092 8.232-.628 12.187-4.375 1.389-2.1 1.389-2.1 2-4z" fill="#bb9579"/><path d="M209 165h22c-5.922 5.922-5.922 5.922-10.184 6.082-4.56-.545-8.124-1.105-11.816-4.082v-2z" fill="#efe8eb"/><path d="M367 344v7h-18c1.574-3.149 4.715-3.54 7.875-4.625l1.934-.695c2.864-1.005 5.134-1.68 8.191-1.68z" fill="#f0f1f1"/><path d="M215 42c3.344.557 6.033 1.352 9 3l-2 4h-2l-1 5c-1.938-.813-1.938-.813-4-2-1.231-3.694-.644-6.206 0-10z" fill="#f3dfcf"/><path d="M231 699h16c-3 5-3 5-6.313 6.063-4.466-.076-6.326-1.194-9.687-4.063v-2z" fill="#fbfbfb"/><path d="M336 188c8.47-.92 8.47-.92 12.223 1.336 1.696 1.484 3.271 2.989 4.777 4.664-1.207 1.52-1.207 1.52-3 3-2.262.074-2.262.074-4.688-.313l-2.449-.363L341 196c0-3 0-3 2-6l-7-1v-1z" fill="#f2f8fc"/><path d="M185 35c2.962.613 4.38 1.254 7 3l-3 9-4-1-1-5-5-1v-1l5-1 1-3z" fill="#efd6c3"/><path d="M171 38l4 4-1 2-3-2-.688 1.938C169 46 169 46 166.375 46.75L164 47l1.125 2.75c.875 3.25.875 3.25 0 5.625L164 57h6v1l-7 1 .188-3.688c.02-3.89-.815-6.148-3.188-9.312 2-2 2-2 5.125-2.125L168 44l.375-1.875C169 40 169 40 171 38z" fill="#dc955c"/><path d="M231 48c2.063.438 2.063.438 4 1l-.063 2.25c-.058 2.68-.058 2.68.688 4.875L236 58l-2 3c-3-1-3-1-4.25-2.625-1.059-3.353-.456-5.975.25-9.375z" fill="#f8eadf"/><path d="M279 698l1.313 1.938c1.6 2.33 1.6 2.33 4.687 3.062 1.895.069 3.792.085 5.688.063l3.011-.028L296 703l1 3c-1.861 1.861-4.82 1.217-7.313 1.25l-3.488.078c-3.443-.353-4.833-.835-7.199-3.328-.25-3.188-.25-3.188 0-6z" fill="#0c0c0d"/><path d="M317 340h3l7 17h-4c-1.007-2.268-2.006-4.54-3-6.813l-.867-1.947c-1.27-2.918-2.133-5.023-2.133-8.24z" fill="#e4e3e3"/><path d="M171 172c1.791 3.288 2.871 6.603 3.938 10.188A486.011 486.011 0 0 0 180 198h-2c-.96-1.895-1.919-3.79-2.875-5.688l-1.617-3.199c-3.87-7.99-3.87-7.99-3.133-12.925l.336-2.395L171 172z" fill="#735342"/><path d="M333 196l12 1-1 8 2 1c-1.516-.03-1.516-.03-3.063-.063-3.74.06-7.25.461-10.937 1.063 3.188-2.125 5.265-2.502 9-3v-2h-7v-1l6-1-7-3v-1z" fill="#0e151e"/><path d="M207 163h2v4c4.004 1.937 7.64 2.362 12.012 2.656C223 170 223 170 225 172c-2.08 2.08-5.616 1.869-8.414 2.121-2.785-.13-3.957-.51-6.149-2.184-2.62-3.157-3.249-4.89-3.437-8.937z" fill="#8f5a6c"/><path d="M208 40h7c.027 1.48.046 2.958.063 4.438l.035 2.496C215 49 215 49 214 50c-1.666.04-3.334.043-5 0l1.188-2.188c1.171-2.875 1.171-2.875-.563-5.624L208 40z" fill="#faf4f0"/><path d="M246 700l1 2c-3.976 6.632-3.976 6.632-7.438 7.875-4.037-1.379-6.075-4.524-8.562-7.875 3 0 3 0 6 2 3.572-.082 3.572-.082 7-1l2-3z" fill="#bebfc1"/><path d="M237.563 45.938L240 46l-.625 2.375L239 51l2 2v3c-2.375.188-2.375.188-5 0-2.294-3.441-2.263-4.968-2-9 1-1 1-1 3.563-1.063z" fill="#fbf5f0"/><path d="M180 45l2 3-1 2h4l-2 4v3h-7l-1 5h-4v-3l3 2 1-5h6l-1.625-2.688C178 50 178 50 178.812 47.126z" fill="#d5935f"/><path d="M192 38h3l-.063 3.25c.049 2.898.195 5.036 1.063 7.75-1.666.043-3.334.04-5 0-1-1-1-1-1.188-4.375C190 41 190 41 192 38z" fill="#faf2eb"/><path d="M208 41l4 4-3 5h6v1h-8l1-3h-2l-1 5h-4l-1-4 4 1 1-4h4l-1-5z" fill="#dfa475"/><path d="M143 694h26l-1 3-25-2v-1z" fill="#ba8255"/><path d="M230 163l3 1c-1.968 4.557-3.673 7.46-8 10-2.995.599-5.951.867-9 1l-1-2 9-1 1-3 2.563-1.5L230 166v-3z" fill="#7c3e55"/><path d="M201 32l3 1v6c-2.647 1.46-3.894 2-7 2v-4l-2-1h4z" fill="#f3decf"/><path d="M189 685c1.664 3.328.819 6.997.563 10.625l-.159 2.43c-.13 1.982-.266 3.963-.404 5.945h-2l-1-13h-2c1.37-3.161 1.99-3.993 5-6z" fill="#cdb5a2"/><path d="M154 327l2 1-1 1h9c-2.578 2.648-4.916 4.944-8 7l-3-1c-.042-2.333-.04-4.667 0-7z" fill="#ecbf9e"/><path d="M393 110h4a260.428 260.428 0 0 1-.313 4.75l-.175 2.672c-.576 2.901-1.588 4.37-3.512 6.578l-2-2c.313-2.813.313-2.813 1-6l.563-2.813L393 111v-1z" fill="#b08a6d"/><path d="M348 144c.813 1.625.813 1.625 1 4-2.37 3.663-3.665 5.555-7.813 6.938-3.85.075-7.38-.347-11.187-.938v-1l1.977-.078c5.729-.372 9.547-1.006 14.023-4.922 1.389-2.1 1.389-2.1 2-4z" fill="#c5a38a"/><path d="M152 137l.813 1.75c1.247 2.363 2.362 4.29 4.187 6.25 2.599.804 2.599.804 5 1-1.392 2.784-3.156 2.979-6 4-2.89-3.263-4.652-5.593-5-10l1-3z" fill="#ecc4a6"/><path d="M156 132l2 1-1 1c.026 2.04.026 2.04.313 4.375l.238 2.398c.358 2.501.358 2.501 2.449 5.227-2.624-.362-3.82-.827-5.75-2.688-1.625-3.006-1.68-4.94-1.25-8.312 1.5-1.875 1.5-1.875 3-3z" fill="#c7a389"/><path d="M172.125 696.938l2.758.027L177 697l-2 4h-9l-1-3c2.525-1.262 4.312-1.099 7.125-1.063z" fill="#ebc2a3"/><path d="M185 690l2 1v7h-6c.599-2.352 1.27-4.686 2-7z" fill="#c08557"/><path d="M360 195v2l-4 2 3 1v2h-8v-4c6.75-3 6.75-3 9-3z" fill="#101822"/><path d="M336 188c8.47-.92 8.47-.92 12.223 1.336 1.696 1.484 3.271 2.989 4.777 4.664-1.27 1.52-1.27 1.52-3 3-3.688-.313-3.688-.313-7-1v-1l6-1c-4.263-4.13-7.288-4.613-13-5v-1z" fill="#dde6ec"/><path d="M162 139h1c.221 2.124.427 4.249.625 6.375l.352 3.586L164 152l-2 2c-2.125-.375-2.125-.375-4-1l3-2c.585-2.886.585-2.886.688-6.125l.199-3.32L162 139z" fill="#c68757"/><path d="M212 170h12v3c-1.437.081-2.874.14-4.313.188l-2.425.105C215 173 215 173 212 170z" fill="#b392a2"/><path d="M372 692c3.438.813 3.438.813 7 2l1 3-7-1-1-4z" fill="#080809"/><path d="M301 121h1c.196 1.603.381 3.208.563 4.813l.316 2.707C303 131 303 131 302 134h-2a535.423 535.423 0 0 1-.063-4.25l-.035-2.39c.094-2.267.466-4.189 1.098-6.36z" fill="#46311a"/><path d="M394.945 100.805L401 101l-2 1-1 2a449.4 449.4 0 0 1-6 1l-3 2c2.741-5.874 2.741-5.874 5.945-6.195z" fill="#d6a580"/><path d="M231 48l4 1-1 5-4-1 1-5z" fill="#c3845d"/><path d="M185 48c1.675.286 3.344.618 5 1l-1 5c-1.938-.813-1.938-.813-4-2l-1-3z" fill="#fbf1ea"/><path d="M211 45h4l-1 5h-5l2-5z" fill="#fdfaf8"/><path d="M222 38h4c-.573 2.867-.861 3.861-3 6h-3c.506-2.169 1-4 2-6z" fill="#fbf3ed"/><path d="M326 692l-1 4-7 1c2.275-3.358 3.697-5 8-5z" fill="#0e0e0f"/><path d="M351 203l9 3c-4.18 2.09-4.804 2.166-9 1v-4z" fill="#121923"/><path d="M170 49h5l-1 5-4-1v-4z" fill="#c17e55"/><path d="M216 48l4 1-1 5-4-2z" fill="#fcf6f1"/><path d="M198 33l1 3-2 1-1 3v-2h-6v-2c2.709-1.354 5.01-1.065 8-1v-2z" fill="#b6723e"/><path d="M161 700l1 2-1 2 3 1v1l-7-1c1.75-3.875 1.75-3.875 4-5z" fill="#cddeea"/><path d="M323 193l-2 2 4 1-1 3-7-4v-2c2.49-1.245 3.41-.777 6 0z" fill="#c0cdd6"/><path d="M237.563 45.938L240 46c-.313 1.938-.313 1.938-1 4l-3 1-2-4c1-1 1-1 3.563-1.063z" fill="#fefdfc"/><path d="M190 45h5l1 4h-5l-1-4z" fill="#fefcfa"/><path d="M215 42l5 1-1 4-4-1v-4z" fill="#bf7a50"/><path d="M185 42l5 1-1 4-4-1v-4z" fill="#c07c51"/><path d="M201 39l4 1-1 4h-4l1-5z" fill="#c07c52"/><path d="M185 35l4 1-1 5-4-2z" fill="#fdf8f5"/><path d="M201 29c2 1.313 2 1.313 4 3v3h5v1l-6 1-1-4-4 1 2-5z" fill="#d49664"/><path d="M159 147l3 1-1 4-4 1c.875-4.875.875-4.875 2-6z" fill="#faefe7"/><path d="M171 41l3 2-1 5-3-1a99.984 99.984 0 0 1 0-5z" fill="#fdf9f6"/><path d="M245 187l2 3c-.968 4.223-1.879 5.879-5 9z" fill="#866a5b"/><path d="M202 45l3 1-1 5-3-1 1-5z" fill="#fdfbf9"/><path d="M201 32l3 1-1 5-3-1 1-5z" fill="#fdfaf7"/><path d="M228 52h2l-1 5h-5a105.022 105.022 0 0 1 4-5zM168 52h2l-1 5h-5a105.022 105.022 0 0 1 4-5z" fill="#fdfcfb"/><path d="M298 358l2 1c-.813 1.938-.813 1.938-2 4l-3 1v-2h-2v-2c2.375-1.063 2.375-1.063 5-2z" fill="#a3826c"/><path d="M163 330l2 1-8 7c0-3 0-3 1.313-4.387L163 330z" fill="#e3a371"/><path d="M399 108h1v9h-3l-1-3 2-2c.643-2.069.643-2.069 1-4z" fill="#ddab86"/><path d="M178 40h6l1 3h-6l-1-3z" fill="#fdfbfa"/><path d="M339 206l3 1c-4.75 4-4.75 4-7 4 1.75-3.875 1.75-3.875 4-5z" fill="#292c32"/><path d="M251 172l2 1-1 6-2-2-2 1c.375-2.438.375-2.438 1-5z" fill="#7b5c4c"/><path d="M200 49l1.875.563c2.167.674 2.167.674 4.125-.563l-2 5-4-2v-3z" fill="#bf7d4b"/><path d="M227 37l2 1-1 7-3-1 2-7z" fill="#5e351d"/><path d="M219 37l3 1-2 5-5-1 1-2h2l1-3z" fill="#eed6c4"/></svg>