<svg height="2372" viewBox="-9.08 -5.90343151 502.8 479.80343151" width="2500" xmlns="http://www.w3.org/2000/svg"><g fill="#1d1d1b"><path d="m491.82 377.36c-11.77-97.34-68.35-193.5-160.4-231.24 8.63-22.94 3.94-52.75-9.94-72.78a45.52 45.52 0 1 0 -19.86 14.23c6.63 9.05 8.81 20.31 8.81 31.48a82.85 82.85 0 0 1 -.94 13.17c-.18 1.11-1.3 4.92-1.36 5.82-3.19-.91-6.4-1.76-9.66-2.53a202.64 202.64 0 0 0 -68.52-4.69 82.59 82.59 0 0 0 -13.17-53.54 45.46 45.46 0 1 0 -21.63 11.88c7.35 9 10 20.31 9.95 31.81a74.77 74.77 0 0 1 -.85 12c-.1.59-.41 1.77-.72 2.94a150.59 150.59 0 0 0 -63.07 35 273.19 273.19 0 0 0 -24.72 26.42q-7.22 8.77-13.86 18c-5.77 8-10.2 17.92-16.52 25.37-7.44 8.78-23.84 8.72-36.23 14.87-48.23 23.93-58.21 77.23-41.8 125 5.12 14.9 28.93 8.5 23.76-6.55-12.75-37.11-8.68-76.72 28.84-96.34 12-6.3 21-4.91 32.11-10.73s14.91-14.81 21.59-25.21a287.53 287.53 0 0 1 26.58-35.24c11.59-13.08 24.46-26.38 39.69-35.26 27.16-15.82 59.71-19.61 90.5-15.86 50.32 6.13 95.6 31.77 129.38 69.13 37.91 41.93 60.65 97 67.4 152.85 1.88 15.55 26.54 15.73 24.64 0zm-332.19-332.19a25.45 25.45 0 1 1 25.45 25.45 25.48 25.48 0 0 1 -25.45-25.45zm101.15 0a25.46 25.46 0 1 1 25.46 25.45 25.49 25.49 0 0 1 -25.46-25.45zm48.14 91.66c-.19.43-.36.86-.5 1.28h-.13a9.36 9.36 0 0 0 .63-1.28zm-271.38 305.46c25.24-1.81 68.91-6.38 55.62-29.54-6.43-11.2-21.9-15.06-33.65-16.22-18.78-1.85-37.23 3-54.53 10-7.27 2.91-4.1 14.82 3.28 11.88a178.86 178.86 0 0 1 17.48-6.09q-.64 9.3-.7 18.61c-1.87.21-3.73.42-5.6.69-7.82 1.13-4.49 13 3.27 11.87.67-.09 1.55-.18 2.54-.27q.39 10.79 1.59 21.54c.88 7.79 13.2 7.88 12.32 0q-1.29-11.23-1.62-22.47zm.5-32.76c2.12-.34 4.25-.64 6.4-.82 9-.76 26.86-1.5 33.61 6.21 6.32 7.21-1.55 8.87-8.18 10.72a105.38 105.38 0 0 1 -19.1 3c-4.47.41-8.93.73-13.39 1.07q.09-9.3.75-18.61a6.78 6.78 0 0 0 -.12-1.57zm94.09 31.61c-2.84-11.6-5.89-23.39-7-35.28a6.15 6.15 0 0 0 -2.73-4.68c-2.51-3-7.6-3.8-10 .59l-30 55.13c-3.79 7 6.85 13.19 10.64 6.22q2.2-4.05 4.4-8.09c8.36-.45 16.73-.81 25.09-1.2.36 1.46.72 2.92 1.07 4.38.43 1.75.89 3.51 1.28 5.27.13.6.45 4.46.54 2.49-.36 7.93 12 7.91 12.32 0 .21-4.46-1.15-9.45-2.63-14.25 3.43-3.27 2.43-10.13-2.98-10.58zm-27.76 1.24 10.91-20.05c1.21 6.2 2.66 12.37 4.12 18.51.07.27.13.54.2.81-5.06.26-10.15.49-15.23.73zm157.09-27.75c1.11 6.63 3 45-10.74 38.41-13-6.3-13.58-27.82-8.79-38.75 3.15-7.19-7.46-13.47-10.64-6.22-5 11.46-6.39 23.66-1.93 35.59 3.27 8.76 10.65 19.85 20.09 22.85 10.89 3.45 18.85-6.38 22.1-15.55 4.45-12.56 3.95-26.67 1.79-39.61-1.3-7.8-13.17-4.44-11.88 3.28zm157.85 37-31.07 1c-3.68.12-11.35 1.36-17.95 1.59a285.38 285.38 0 0 1 39.25-29.88 6.23 6.23 0 0 0 -1.47-11.25c-15.93-4.75-34.55-1.47-50.47 2.13-7.72 1.75-4.45 13.63 3.28 11.88 8.9-2 18.91-4 28.6-4.08a300.4 300.4 0 0 0 -36.71 30.83 6.24 6.24 0 0 0 1.25 9.68c7.56 4.67 18.59 2 27.06 1.69l38.23-1.31c7.9-.23 7.94-12.55 0-12.28z"/><path d="m484.29 452.37-25.1 2.27c-4.5.4-9 .85-13.51 1.22-3.63.3-6.55 2.18-7.06-2.49-.22-2 .64-4.51 1.93-7.14h.45l29.46-3.81c7.75-1 7.85-13.33 0-12.32l-21.82 2.81c3.5-5.8 7.33-11.37 11.37-16.81a226.25 226.25 0 0 1 24.12.77c7.9.67 7.85-11.65 0-12.32a226.48 226.48 0 0 0 -46 .75c-7.78.91-7.87 13.24 0 12.31q3.08-.36 6.15-.63a164.7 164.7 0 0 0 -12.15 20.25c-3.4 6.85-8.4 15.93-5.28 23.73 2.9 7.27 10.07 7.93 16.88 7.39 13.52-1.07 27-2.44 40.54-3.66 7.85-.71 7.92-13.04.02-12.32zm-139.21-4.62-31.07 1c-3.68.12-11.34 1.36-17.94 1.59a285.38 285.38 0 0 1 39.24-29.91 6.24 6.24 0 0 0 -1.47-11.26c-15.93-4.74-34.55-1.47-50.47 2.14-7.73 1.75-4.46 13.63 3.28 11.88 8.89-2 18.91-4 28.6-4.08a299.51 299.51 0 0 0 -36.71 30.87 6.23 6.23 0 0 0 1.25 9.67c7.56 4.68 18.59 2 27.05 1.7l38.24-1.28c7.91-.26 7.95-12.58 0-12.32zm-157.49-50.98c-18.78-1.86-37.23 3-54.53 10-7.27 2.9-4.1 14.82 3.27 11.88a180 180 0 0 1 17.49-6.09q-.65 9.3-.7 18.61c-1.87.21-3.74.41-5.6.69-7.82 1.13-4.5 13 3.27 11.87.67-.09 1.55-.18 2.53-.27.27 7.19.79 14.37 1.6 21.54.87 7.79 13.2 7.88 12.32 0q-1.26-11.19-1.62-22.43c25.24-1.81 68.91-6.38 55.61-29.54-6.42-11.24-21.89-15.12-33.64-16.26zm10.36 29.14a105.38 105.38 0 0 1 -19.1 3c-4.47.41-8.93.73-13.39 1.07q.09-9.3.74-18.61a6.3 6.3 0 0 0 -.08-1.59c2.12-.34 4.24-.64 6.4-.82 9-.76 26.85-1.5 33.61 6.21 6.32 7.2-1.59 8.86-8.18 10.74z"/></g><text style="font-size:104.76;fill:#000100;stroke:#1d1d1b;stroke-miterlimit:10;font-family:ArialMT,Arial;letter-spacing:.02em" transform="matrix(.58 0 0 .58 500.47 418.31)">®</text></svg>