<svg fill="none" height="2500" width="2491" xmlns="http://www.w3.org/2000/svg" viewBox="0 0.818 279 279"><path d="M0 .818h279v279H0z" fill="#03045e"/><path d="M108.106 188.173l18.535 10.726v-46.058l-18.535-11.125z" fill="#0096c7"/><path d="M164.206 131.331l-20.575-10.756-34.049 18.63 18.565 11.135zM109.651 73.213l57.703 32.772 19.837-10.989-57.286-32.782z" fill="#ade8f4"/><path d="M165.887 108.506l-57.781-32.811v21.462l36.205 20.479 18.302 9.568 3.274 1.713z" fill="#0096c7"/><path d="M168.801 131.331c0 .126-.019.262-.048.379-.01.049-.039.088-.049.127a1.56 1.56 0 0 1-.097.224v.019c-.019.039-.058.068-.087.107a1.214 1.214 0 0 1-.136.166s-.01.019-.02.029c-.029.029-.077.048-.116.078-.049.039-.088.077-.136.107a.071.071 0 0 0-.039.019c-.01 0-.02.02-.039.029l-38.469 20.275v46.068l19.672-10.814v-23.652c0-.545.301-1.041.777-1.295l38.692-20.342V97.497l-19.905 11.028z" fill="#0077b6"/></svg>