<svg fill="none" height="425" viewBox="0 .819 318 52.999" width="2500" xmlns="http://www.w3.org/2000/svg"><path d="m51.24 46.078v-36.491h14.977c3.928 0 7.084 1.03 9.469 3.092 2.384 2.064 3.579 5.06 3.579 9.002 0 2.479-.551 4.643-1.653 6.482-1.102 1.844-2.605 3.263-4.514 4.267s-4.112 1.506-6.607 1.506h-5.726v12.147h-9.526zm9.525-19.75h4.624c1.322 0 2.367-.42 3.138-1.257s1.155-1.914 1.155-3.228c0-1.384-.366-2.497-1.102-3.338-.736-.837-1.816-1.257-3.248-1.257h-4.572v9.08zm15.855 19.75 13.488-36.491h11.179l12.994 36.491h-10.517l-2.367-7.551h-12.276l-2.425 7.551zm14.48-14.608h8.313l-4.073-13.403zm27.254 14.608v-36.491h15.198c3.928 0 7.084 1.012 9.468 3.036 2.385 2.023 3.579 5.006 3.579 8.944 0 2.37-.533 4.45-1.595 6.237-1.067 1.787-2.477 3.21-4.241 4.266l7.873 14.008h-10.46l-6.224-12.418h-4.073v12.418zm9.525-20.026h4.734c1.283 0 2.332-.39 3.139-1.178.806-.784 1.212-1.831 1.212-3.145 0-1.384-.384-2.48-1.155-3.28s-1.856-1.205-3.249-1.205h-4.681zm22.52 20.026 13.488-36.491h11.179l12.994 36.491h-10.517l-2.367-7.551h-12.276l-2.424 7.551zm14.48-14.608h8.313l-4.073-13.403zm26.483 14.608 1.705-36.491h9.305l8.922 15.922 8.754-15.922h9.358l1.706 36.491h-9.856l-.882-21.393-6.44 12.475h-5.342l-7.158-12.474-.715 21.392zm46.137 0v-36.491h9.746v36.491zm16.904 0v-36.491h25.601v8.48h-15.855v7.056h12.276v7.99h-12.276v12.965zm40.742 0v-14.555l-13.047-21.94h11.178l7.158 13.022 6.718-13.022h10.848l-13.105 21.883v14.608h-9.746z" fill="#03045e"/><path d="m0 49.638 7.243 4.157v-17.851l-7.243-4.312z" fill="#0096c7"/><path d="m21.924 27.607-8.04-4.17-13.308 7.222 7.255 4.316z" fill="#90e0ef"/><path d="m.577 30.658 7.255 4.316z" fill="#fff"/><path d="m.607 5.08 22.547 12.703 7.752-4.26-22.386-12.704z" fill="#90e0ef"/><path d="m22.58 18.76-22.58-12.72v8.321l14.15 7.939 7.152 3.708 1.279.664z" fill="#0096c7"/><path d="m14.157 22.302 7.145 3.705-7.153-3.708z" fill="#fff"/><path d="m23.72 27.606c0 .05-.008.102-.02.147-.003.02-.014.035-.018.05v.01c-.015.027-.023.054-.038.076v.008s-.027.026-.038.041a.439.439 0 0 1 -.053.064s-.004.008-.008.012c-.011.011-.03.019-.046.03-.018.015-.034.03-.053.041a.029.029 0 0 0 -.015.008c-.004 0-.007.008-.015.011l-15.034 7.858v17.856l7.688-4.191v-9.168c0-.21.118-.403.304-.501l15.12-7.885v-17.58l-7.778 4.274v8.84z" fill="#0077b6"/><g fill="#fff"><path d="m23.545 28.018s.004-.008.008-.012c0 0-.004.008-.008.012zm.008-.012a.434.434 0 0 0 .053-.064.222.222 0 0 1 -.05.064zm-.107.084c.02-.012.034-.027.053-.042-.022.019-.045.034-.068.049a.029.029 0 0 0 .015-.008zm.254-.336a.652.652 0 0 0 .02-.148c0 .027-.008.053-.012.08 0 .022 0 .049-.007.071zm-.056.136.011-.027c-.004.008-.007.02-.011.027z"/><path d="m23.644 27.89c.015-.023.023-.05.034-.076l-.023.049-.011.026zm.056-.136c.008-.023.008-.046.008-.072 0 .023 0 .049-.011.072zm-.147.252.05-.06a.38.38 0 0 1 -.05.06z"/></g></svg>