<svg fill="none" height="2500" width="2491" xmlns="http://www.w3.org/2000/svg" viewBox="0 0.818 279 279"><path d="M0 .818h279v279H0z" fill="#fff"/><path d="M99.5 188.173l18.535 10.726v-46.058L99.5 141.716z" fill="#0096c7"/><path d="M155.601 131.331l-20.575-10.756-34.049 18.63 18.564 11.135zM101.045 73.213l57.703 32.772 19.837-10.989-57.286-32.782z" fill="#ade8f4"/><path d="M157.281 108.506L99.5 75.695v21.462l36.206 20.479 18.302 9.568 3.273 1.713z" fill="#0096c7"/><path d="M160.195 131.33c0 .127-.019.263-.048.38-.01.049-.039.088-.049.127-.029.077-.058.155-.097.223v.02c-.019.039-.058.068-.087.107a1.148 1.148 0 0 1-.136.165s-.01.02-.02.03c-.029.029-.077.048-.116.077-.049.039-.088.078-.136.108a.071.071 0 0 0-.039.019c-.01 0-.02.019-.039.029l-38.469 20.275v46.068l19.672-10.814v-23.652c0-.545.301-1.042.777-1.295l38.692-20.342V97.497l-19.905 11.028z" fill="#0077b6"/></svg>