<svg height="2500" viewBox="14.18 13.46 240.94 428.59" width="1366" xmlns="http://www.w3.org/2000/svg" xmlns:xlink="http://www.w3.org/1999/xlink"><linearGradient id="a" gradientUnits="userSpaceOnUse" x1="134.65" x2="255.11" y1="312.89" y2="312.89"><stop offset=".67" stop-color="#fffad4"/><stop offset="1" stop-color="#dab000"/></linearGradient><linearGradient id="b" gradientUnits="userSpaceOnUse" x1="134.65" x2="253.88" y1="305.28" y2="305.28"><stop offset=".18" stop-color="#191400"/><stop offset=".98" stop-color="#b69351"/></linearGradient><linearGradient id="c" gradientUnits="userSpaceOnUse" x1="105.07" x2="134.63" y1="380.83" y2="380.83"><stop offset="0" stop-color="#453604"/><stop offset=".12" stop-color="#463705"/><stop offset=".16" stop-color="#4d3e0c"/><stop offset=".19" stop-color="#594a17"/><stop offset=".21" stop-color="#6a5a27"/><stop offset=".23" stop-color="#80703b"/><stop offset=".25" stop-color="#9b8a55"/><stop offset=".27" stop-color="#bba973"/><stop offset=".28" stop-color="#dfcd95"/><stop offset=".32" stop-color="#ddcb93"/><stop offset=".34" stop-color="#d6c48c"/><stop offset=".35" stop-color="#cab881"/><stop offset=".36" stop-color="#b9a871"/><stop offset=".36" stop-color="#a3925b"/><stop offset=".37" stop-color="#887741"/><stop offset=".37" stop-color="#685823"/><stop offset=".38" stop-color="#483804"/></linearGradient><linearGradient id="d" gradientUnits="userSpaceOnUse" x1="90.09" x2="134.64" y1="378.9" y2="378.9"><stop offset="0" stop-color="#342500"/><stop offset=".2" stop-color="#352601"/><stop offset=".27" stop-color="#3a2c08"/><stop offset=".32" stop-color="#443614"/><stop offset=".36" stop-color="#514425"/><stop offset=".39" stop-color="#63573b"/><stop offset=".42" stop-color="#786f56"/><stop offset=".45" stop-color="#928a77"/><stop offset=".48" stop-color="#b0ab9c"/><stop offset=".5" stop-color="#d3cfc7"/><stop offset=".52" stop-color="#f7f7f5"/><stop offset=".53" stop-color="#fff"/><stop offset="1" stop-color="#fff"/></linearGradient><linearGradient id="e" gradientUnits="userSpaceOnUse" x1="97.6" x2="134.63" y1="379.95" y2="379.95"><stop offset="0" stop-color="#6c5312"/><stop offset=".17" stop-color="#6a5111"/><stop offset=".23" stop-color="#634c0e"/><stop offset=".28" stop-color="#57430a"/><stop offset=".31" stop-color="#463704"/><stop offset=".31" stop-color="#453604"/><stop offset=".46" stop-color="#6c5312"/></linearGradient><linearGradient id="f" gradientUnits="userSpaceOnUse" x1="113.08" x2="134.63" y1="381.38" y2="381.38"><stop offset="0" stop-color="#7e6236"/><stop offset=".21" stop-color="#7c6034"/><stop offset=".28" stop-color="#755b31"/><stop offset=".33" stop-color="#69522b"/><stop offset=".37" stop-color="#584522"/><stop offset=".38" stop-color="#554320"/></linearGradient><linearGradient id="g" gradientUnits="userSpaceOnUse" x1="23.86" x2="134.62" y1="352.44" y2="352.44"><stop offset="0" stop-color="#5f4802"/><stop offset=".36" stop-color="#ffdd73"/><stop offset=".37" stop-color="#ffdf7c"/><stop offset=".43" stop-color="#ffecb4"/><stop offset=".49" stop-color="#fff6dc"/><stop offset=".53" stop-color="#fffcf5"/><stop offset=".55" stop-color="#fff"/></linearGradient><linearGradient id="h" gradientUnits="userSpaceOnUse" x1="134.64" x2="235.69" y1="357.65" y2="357.65"><stop offset=".61" stop-color="#ffe895"/><stop offset=".64" stop-color="#f5d884"/><stop offset=".69" stop-color="#e4bd69"/><stop offset=".75" stop-color="#d6a853"/><stop offset=".81" stop-color="#cd9944"/><stop offset=".89" stop-color="#c7903b"/><stop offset="1" stop-color="#c68e39"/></linearGradient><linearGradient id="i" gradientUnits="userSpaceOnUse" x1="134.64" x2="254.3" y1="336.67" y2="336.67"><stop offset=".67" stop-color="#fffad4"/><stop offset="1" stop-color="#d8a437"/></linearGradient><linearGradient id="j" gradientUnits="userSpaceOnUse" x1="130.01" x2="130.01" y1="321.58" y2="201.11"><stop offset=".72" stop-color="#9c7e4f"/><stop offset=".9" stop-color="#fcfbf3"/><stop offset="1" stop-color="#fff"/></linearGradient><linearGradient id="k" gradientUnits="userSpaceOnUse" x1="105.98" x2="172.93" y1="292.92" y2="225.97"><stop offset=".63" stop-color="#bda35a"/><stop offset=".81" stop-color="#fcfbf3"/><stop offset=".96" stop-color="#fff"/></linearGradient><linearGradient id="l" gradientUnits="userSpaceOnUse" x1="134.67" x2="193.63" y1="267.15" y2="267.15"><stop offset="0" stop-color="#e8dc8a"/><stop offset=".34" stop-color="#ead884"/><stop offset=".77" stop-color="#f3cd75"/><stop offset=".98" stop-color="#f9c66b"/></linearGradient><linearGradient id="m" gradientUnits="userSpaceOnUse" x1="134.65" x2="164.21" y1="262.3" y2="262.3"><stop offset=".49" stop-color="#bda35a"/><stop offset=".76" stop-color="#fcfbf3"/><stop offset=".85" stop-color="#fff"/><stop offset=".91" stop-color="#e9e3b0"/><stop offset=".96" stop-color="#dacf75"/><stop offset=".98" stop-color="#d4c75f"/></linearGradient><linearGradient id="n" gradientUnits="userSpaceOnUse" x1="134.64" x2="179.2" y1="264.25" y2="264.25"><stop offset=".49" stop-color="#d4c75f"/><stop offset=".56" stop-color="#e4dc9c"/><stop offset=".67" stop-color="#fff"/><stop offset=".82" stop-color="#ecd6a6"/><stop offset=".93" stop-color="#e0ba6b"/><stop offset=".98" stop-color="#dcb055"/></linearGradient><linearGradient id="o" gradientUnits="userSpaceOnUse" x1="33.6" x2="134.65" y1="285.5" y2="285.5"><stop offset="0" stop-color="#ffde81"/><stop offset=".04" stop-color="#e1c26c"/><stop offset=".09" stop-color="#bba053"/><stop offset=".15" stop-color="#99813c"/><stop offset=".22" stop-color="#7d6829"/><stop offset=".3" stop-color="#66531a"/><stop offset=".38" stop-color="#55430e"/><stop offset=".49" stop-color="#493806"/><stop offset=".63" stop-color="#413101"/><stop offset=".98" stop-color="#403000"/></linearGradient><linearGradient id="p" gradientUnits="userSpaceOnUse" x1="48.13" x2="134.64" y1="276.74" y2="276.74"><stop offset=".1" stop-color="#efd85f"/><stop offset=".28" stop-color="#f8f2c4"/><stop offset=".47" stop-color="#cfba6a"/><stop offset=".7" stop-color="#724201"/></linearGradient><linearGradient id="q" gradientUnits="userSpaceOnUse" x1="66.06" x2="134.65" y1="269.94" y2="269.94"><stop offset="0" stop-color="#fff"/><stop offset="0" stop-color="#faf8f5"/><stop offset="0" stop-color="#e1dac7"/><stop offset="0" stop-color="#cabd9c"/><stop offset="0" stop-color="#b5a477"/><stop offset="0" stop-color="#a48e56"/><stop offset="0" stop-color="#957c3b"/><stop offset="0" stop-color="#8a6d25"/><stop offset="0" stop-color="#816214"/><stop offset="0" stop-color="#7a5a08"/><stop offset="0" stop-color="#775601"/><stop offset="0" stop-color="#765500"/></linearGradient><linearGradient id="r" gradientUnits="userSpaceOnUse" x1="38.18" x2="134.65" y1="282.38" y2="282.38"><stop offset=".22" stop-color="#ffde81"/><stop offset=".98" stop-color="#6a4c00"/></linearGradient><linearGradient id="s" gradientUnits="userSpaceOnUse" x1="72.59" x2="134.65" y1="268.09" y2="268.09"><stop offset=".14" stop-color="#fbfbf1"/><stop offset=".15" stop-color="#f5f2dc"/><stop offset=".38" stop-color="#cfba6a"/><stop offset=".64" stop-color="#724201"/></linearGradient><linearGradient id="t" gradientUnits="userSpaceOnUse" x1="59.81" x2="134.64" y1="272.05" y2="272.05"><stop offset=".07" stop-color="#fde880"/><stop offset=".14" stop-color="#fbfbf1"/><stop offset=".24" stop-color="#f5f2dc"/><stop offset=".38" stop-color="#cfba6a"/><stop offset=".64" stop-color="#724201"/></linearGradient><linearGradient id="u" gradientUnits="userSpaceOnUse" x1="43.17" x2="134.64" y1="279.66" y2="279.66"><stop offset="0" stop-color="#9e8e00"/><stop offset=".02" stop-color="#988700"/><stop offset=".11" stop-color="#877100"/><stop offset=".21" stop-color="#7a6000"/><stop offset=".33" stop-color="#705400"/><stop offset=".5" stop-color="#6b4d00"/><stop offset=".98" stop-color="#6a4c00"/></linearGradient><path d="m93.69 13.46h81.9v195.24h-81.9z" fill="#1d465f"/><g fill="#fff"><path d="m171.28 130.89-36.64-36.64-36.64 36.64 36.64 36.64zm-36.63-34.62 34.62 34.62-34.62 34.62-34.62-34.62zm-40.96 78.58v33.63l16.82-16.82-16.82-16.82zm1.07 2.9 14.07 14.07-14.07 14.07v-28.13zm25.21-109.37h11.89v-11.89zm2.03-.85 8.92-8.92v8.92z"/><path d="m151.77 123.52c-4.15 0-7.55 3.2-7.87 7.27h.07c-.25-.02-.5-.04-.76-.04-.23 0-.46.01-.69.03a7.895 7.895 0 0 0 -15.74 0h.07c-.25-.02-.5-.04-.76-.04-.23 0-.46.01-.69.03a7.895 7.895 0 0 0 -7.87-7.27c-4.36 0-7.9 3.53-7.9 7.9a7.898 7.898 0 0 0 8.58 7.87v-.06c.29 4.1 3.7 7.34 7.88 7.34s7.55-3.2 7.87-7.27a7.791 7.791 0 0 0 1.37 0v-.1c.27 4.12 3.69 7.38 7.88 7.38s7.55-3.2 7.87-7.27a7.904 7.904 0 0 0 8.58-7.87c0-4.36-3.54-7.9-7.9-7.9zm-40.82 7.9c0-3.64 2.95-6.58 6.58-6.58s6.36 2.73 6.57 6.18c-3.2.83-5.61 3.62-5.88 7.01v-.06c-.23.02-.46.03-.69.03-3.64 0-6.58-2.95-6.58-6.58zm13.09.99a6.583 6.583 0 0 1 -4.46 5.27v.05c.36-2.5 2.12-4.55 4.47-5.32zm-5.85 6.26v-.36zm1.36-.72s0 .08-.01.12c0-.04 0-.08.01-.12zm-.04.79c0 .11 0 .21.01.31 0-.1 0-.21-.01-.31zm6.58 6.51c-3.5 0-6.36-2.73-6.57-6.18 3.18-.83 5.59-3.59 5.88-6.95.23-.02.46-.04.69-.04 3.3 0 6.04 2.43 6.51 5.6a6.583 6.583 0 0 1 -4.46-5.27c-.43-.14-.89-.24-1.36-.29.29 3.36 2.7 6.12 5.88 6.95a6.583 6.583 0 0 1 -6.57 6.18zm7.87-7.28c-.29-3.36-2.7-6.12-5.88-6.95a6.583 6.583 0 0 1 13.14 0c-3.18.83-5.59 3.59-5.88 6.95-.23.02-.46.03-.69.03s-.46-.01-.69-.04zm7.2-5.56a6.583 6.583 0 0 1 -4.46 5.27l-.03.24c.29-2.59 2.09-4.72 4.49-5.51zm2.05 12.84c-3.5 0-6.36-2.73-6.57-6.18 3.18-.83 5.59-3.59 5.88-6.95.23-.02.46-.04.69-.04 3.3 0 6.03 2.43 6.51 5.6a6.583 6.583 0 0 1 -4.46-5.27c-.43-.14-.89-.24-1.36-.29.29 3.36 2.7 6.12 5.88 6.95a6.583 6.583 0 0 1 -6.57 6.18zm8.56-7.24c-.23 0-.46-.01-.69-.04a7.892 7.892 0 0 0 -5.88-6.95c.21-3.45 3.07-6.18 6.57-6.18s6.58 2.95 6.58 6.58-2.95 6.58-6.58 6.58zm-14.36-81.52v11.89h11.89zm.85 2.02 8.92 8.92h-8.92zm11.05 13.33h-11.89v11.89zm-2.02.85-8.92 8.92v-8.92zm-15.42 11.04v-11.89h-11.89zm-.85-2.02-8.92-8.92h8.92zm-13.88-4.99v11.89h11.89zm.85 2.02 8.92 8.92h-8.92zm11.05 13.33h-11.89v11.89zm-2.02.85-8.92 8.92v-8.92zm13.19-4.28h11.89v-11.89zm2.03-.84 8.92-8.92v8.92zm15.41-11.05v11.89h11.89zm.85 2.02 8.92 8.92h-8.92zm11.05 13.34h-11.89v11.89zm-2.02.84-8.92 8.92v-8.92zm-15.42 11.05v-11.89h-11.89zm-.85-2.02-8.92-8.92h8.92zm-11-53.85h11.89v-11.89zm2.02-.84 8.92-8.92v8.92zm15.42-11.05v11.89h11.89zm.85 2.02 8.92 8.92h-8.92zm11.05 13.34h-11.89v11.89zm-2.02.84-8.92 8.92v-8.92zm-15.42 11.05v-11.89h-11.89zm-.85-2.02-8.92-8.92h8.92zm21.11-18.24v-11.89h-11.89zm-.85-2.03-8.92-8.92h8.92zm-54.42-4.96v11.89h11.89zm.84 2.02 8.92 8.92h-8.92zm11.06 13.34h-11.89v11.89zm-2.03.84-8.92 8.92v-8.92zm-27.32 117.24h11.89v-11.89zm2.02-.84 8.92-8.92v8.92zm15.42-11.05v11.89h11.89zm.85 2.02 8.92 8.92h-8.92zm11.05 13.33h-11.89v11.89zm-2.02.85-8.92 8.92v-8.92zm-15.42 11.05v-11.89h-11.89zm-.85-2.03-8.92-8.92h8.92zm49.73-74.11h11.89v-11.89zm2.02-.85 8.92-8.92v8.92zm9.88 16.2v-11.89h-11.89zm-.85-2.02-8.92-8.92h8.92zm-74.64 15.28v11.89h11.89zm.85 2.02 8.92 8.92h-8.92zm11.05 13.33h-11.89v11.89zm-2.02.85-8.92 8.92v-8.92zm13.21 36.22h11.89v-11.89zm2.02-.84 8.92-8.92v8.92zm15.42-11.05v11.89h11.89zm.84 2.02 8.92 8.92h-8.92zm11.05 13.33h-11.89v11.89zm-2.02.85-8.92 8.92v-8.92zm-15.42 11.05v-11.89h-11.89zm-.84-2.03-8.92-8.92h8.92zm9.22-33.59h11.89v-11.89zm2.03-.85 8.92-8.92v8.92zm15.41-11.05v11.89h11.89zm.85 2.03 8.92 8.92h-8.92zm11.05 13.33h-11.89v11.89zm-2.02.84-8.92 8.92v-8.92zm-15.42 11.05v-11.89h-11.89zm-.85-2.02-8.92-8.92h8.92zm9.19-33.58h11.89v-11.89zm2.02-.85 8.92-8.92v8.92zm9.88 16.2v-11.89h-11.89zm-.85-2.02-8.92-8.92h8.92zm-71.82 47.45h11.89v-11.89zm2.02-.85 8.92-8.92v8.92zm15.42-11.04v11.89h11.89zm.84 2.02 8.92 8.92h-8.92zm22.23 9.86h11.89v-11.89zm2.03-.84 8.92-8.92v8.92zm15.41-11.05v11.89h11.89zm.85 2.02 8.92 8.92h-8.92zm.26-8.66 16.82 16.82v-33.63l-16.82 16.82zm15.75 14.21-14.07-14.07 14.07-14.07v28.13zm-15.75-135.76 16.82 16.82v-33.63l-16.82 16.82zm15.75 14.22-14.07-14.07 14.07-14.07v28.13z"/></g><path d="m106.76 113.19h-8.79l-.13.91v8.01z" fill="none"/><path d="m106.25 47.29.74-5.26m4.61 46.58v-11.89l-9.89 9.89-.28 2zm-.96-.85h-8.92l8.92-8.92zm.96 16.2v-11.89h-10.67l-.15 1.07zm-.85-2.02-8.92-8.92h8.92zm-.1-63.57v8.92h-3.43l-.12.84h4.5v-11.89l-3.29 3.29-.19 1.37zm.11 14.18v8.92l-4.85-4.85-.14 1.03 5.84 5.84v-11.89h-4.99l-.14.95zm-4.11 55.38h-7.94l-.13.95h10.2l-8.95-8.94-.14 1.03zm.11 5.26-8.92 8.92v-8.01l-.95 6.77v3.37l11.9-11.89h-10.7l-.12.84zm2.09-42.94-5.64 5.64-.26 1.79 7.59-7.58-5.72-5.72-.23 1.61zm25.8-26.3-23.64-23.64-.25 1.77 23.89 23.88 27.5-27.5h-2.01zm36.46-25.49h.35v-.35z" fill="#fff"/><path d="m171.46 18.46v8.57h-8.92l8.57-8.57h-1.17l-9.42 9.41h11.89v-9.41zm-61.16 0-16.61 118.32v6.89l17.58-125.21z" fill="#fff"/><path d="m254.31 335.64c.54-4.61.81-9.3.81-14.06v-1.47l-120.46 1.47 119.66 14.06z" fill="#614614"/><path d="m159.7 439.45c2.62-.55 5.21-1.19 7.76-1.91l-32.81-115.95z" fill="#80611e"/><path d="m134.65 321.58 120.46-1.47c-.06-5.4-.49-10.71-1.24-15.92z" fill="url(#a)"/><path d="m250.65 288.98c-1.43-5.1-3.19-10.06-5.25-14.86l-110.76 47.47z" fill="#bd943e"/><path d="m134.65 321.58 119.22-17.39c-.75-5.19-1.83-10.26-3.22-15.21l-116.01 32.61z" fill="url(#b)"/><path d="m134.65 321.58 110.76-47.47c-2.11-4.92-4.54-9.67-7.26-14.23z" fill="#624614"/><path d="m134.65 321.58 16.98 119.29c2.72-.38 5.41-.86 8.08-1.42l-25.05-117.86z" fill="#3d2715"/><path d="m134.63 321.55-29.56 116.82c2.64.67 5.31 1.24 8.02 1.73z" fill="url(#c)"/><path d="m134.64 321.56-44.56 111.96c2.47.98 4.97 1.89 7.52 2.71z" fill="url(#d)"/><path d="m120.38 441.22c2.83.33 5.7.57 8.59.7l5.68-120.34z" fill="#3d3116"/><path d="m134.63 321.54-37.04 114.67c2.46.79 4.95 1.51 7.48 2.15z" fill="url(#e)"/><path d="m134.65 321.58 9.24 120.12c2.6-.2 5.18-.48 7.73-.84l-16.98-119.29z" fill="#a9862e"/><path d="m134.65 321.58-5.68 120.34c1.88.09 3.77.13 5.68.13h1.26l-1.26-120.46z" fill="#a58427"/><path d="m134.65 321.58-119.22 17.39c.75 5.19 1.83 10.26 3.22 15.21l116.01-32.61z" fill="#d1a045"/><path d="m134.63 321.57-21.54 118.55c2.4.43 4.83.8 7.28 1.08l14.27-119.64z" fill="url(#f)"/><path d="m82.96 430.43c2.34 1.11 4.71 2.15 7.13 3.11l44.56-111.96z" fill="#947942"/><path d="m134.65 321.58-94.42 74.83c3.18 4.01 6.62 7.82 10.28 11.39z" fill="#8f6a25"/><path d="m23.86 369.06c2.11 4.92 4.54 9.67 7.26 14.23l103.5-61.7z" fill="url(#g)"/><path d="m134.65 321.58-116.01 32.61c1.43 5.1 3.19 10.06 5.25 14.86z" fill="#271a0f"/><path d="m134.65 321.58-103.5 61.7c2.74 4.59 5.77 8.97 9.08 13.14l94.42-74.83z" fill="#211a10"/><path d="m134.65 321.58-58.97 105.08c2.38 1.34 4.81 2.6 7.28 3.77z" fill="#2e2815"/><path d="m134.65 321.58-71.66 96.85c4.05 3 8.28 5.75 12.7 8.23l58.97-105.08z" fill="#896a22"/><path d="m134.65 321.58-84.14 86.22c3.91 3.82 8.08 7.37 12.48 10.63z" fill="#1a1510"/><path d="m135.91 442.05c2.68-.03 5.34-.14 7.98-.34l-9.24-120.12z" fill="#392a14"/><path d="m134.65 321.58 91.47 78.4c1.73-2.02 3.4-4.1 5-6.23z" fill="#261e11"/><path d="m235.69 387.2c1.45-2.23 2.83-4.51 4.13-6.84l-105.18-58.78z" fill="#2b1b11"/><path d="m134.65 321.58 105.18 58.78c1.3-2.32 2.52-4.69 3.67-7.1l-108.85-51.69z" fill="#d6a84f"/><path d="m134.64 321.57 96.47 72.17c1.6-2.13 3.12-4.31 4.58-6.55z" fill="url(#h)"/><path d="m134.65 321.58 108.85 51.69c1.08-2.27 2.09-4.59 3.03-6.94l-111.89-44.75z" fill="#271e11"/><path d="m134.65 321.58 111.89 44.75c.96-2.4 1.85-4.84 2.66-7.31l-114.54-37.44z" fill="#d4a951"/><path d="m134.64 321.58 116.66 30.17c1.35-5.24 2.36-10.62 3-16.11z" fill="url(#i)"/><path d="m134.65 321.58 103.5-61.7a120.29 120.29 0 0 0 -9.08-13.14l-94.42 74.83z" fill="#d6aa4b"/><path d="m134.65 321.58 86.51 83.84c1.71-1.76 3.36-3.57 4.96-5.44z" fill="#946c20"/><path d="m134.65 321.58 55.45 106.98c2.24-1.17 4.45-2.4 6.6-3.7l-62.06-103.28z" fill="#3c2b14"/><path d="m134.65 321.58 32.81 115.95c2.44-.69 4.84-1.45 7.22-2.29z" fill="#462b14"/><path d="m196.7 424.86c2.22-1.34 4.4-2.75 6.53-4.22l-68.59-99.05 62.06 103.28z" fill="#775327"/><path d="m134.65 321.58 40.03 113.66c2.65-.93 5.26-1.96 7.83-3.07z" fill="#4b3214"/><path d="m134.65 321.58 47.86 110.59c2.58-1.12 5.11-2.32 7.6-3.61l-55.45-106.98z" fill="#523516"/><path d="m215.1 411.25c2.09-1.87 4.11-3.82 6.06-5.83l-86.51-83.84z" fill="#2d1c11"/><path d="m134.65 321.58 68.59 99.05c2.13-1.48 4.21-3.03 6.24-4.64l-74.83-94.42z" fill="#352111"/><path d="m134.65 321.58 74.83 94.42c1.92-1.53 3.8-3.11 5.62-4.75z" fill="#9a6916"/><path d="m134.65 321.58 114.54 37.44c.78-2.39 1.49-4.81 2.12-7.27z" fill="#362715"/><path d="m134.63 321.58-1.26-120.46c-2.68.03-5.34.14-7.98.34z" fill="url(#j)"/><path d="m125.4 201.46c-2.6.2-5.18.48-7.73.84l16.98 119.29-9.24-120.12z" fill="#e0b84a"/><path d="m140.32 201.24c-1.88-.09-3.77-.13-5.68-.13h-1.26l1.26 120.46 5.68-120.34z" fill="#dca545"/><path d="m14.18 323.05c.06 5.4.49 10.71 1.24 15.92l119.22-17.39z" fill="#473014"/><path d="m134.65 321.58-16.98-119.29c-2.72.38-5.41.86-8.08 1.42l25.05 117.86z" fill="#e2b859"/><path d="m101.84 205.63c-2.44.69-4.84 1.45-7.22 2.29l40.03 113.66z" fill="#b78e32"/><path d="m134.65 321.58-25.05-117.86c-2.62.55-5.21 1.19-7.76 1.91z" fill="#efd878"/><path d="m134.65 321.58 21.54-118.55c-2.4-.43-4.83-.8-7.28-1.08l-14.27 119.64z" fill="#c78b28"/><path d="m134.65 321.59 14.27-119.64c-2.83-.33-5.7-.57-8.59-.7z" fill="url(#k)"/><path d="m134.67 321.58 58.97-105.08c-2.38-1.34-4.81-2.6-7.28-3.77z" fill="url(#l)"/><path d="m134.65 321.57 29.56-116.82c-2.64-.67-5.31-1.24-8.02-1.73z" fill="url(#m)"/><path d="m206.31 224.74c-4.05-3-8.28-5.75-12.7-8.23l-58.97 105.08 71.66-96.85z" fill="#7a541b"/><path d="m134.65 321.58 94.42-74.83c-3.18-4.01-6.62-7.82-10.28-11.39z" fill="#6f501a"/><path d="m134.65 321.58 84.14-86.22c-3.91-3.82-8.08-7.37-12.48-10.63z" fill="#a77f31"/><path d="m171.68 206.91c-2.46-.79-4.95-1.51-7.48-2.15l-29.56 116.82z" fill="#bf8120"/><path d="m134.65 321.58 51.69-108.85c-2.34-1.11-4.71-2.15-7.13-3.11z" fill="#754d14"/><path d="m134.64 321.59 44.56-111.96c-2.47-.98-4.97-1.89-7.52-2.71z" fill="url(#n)"/><path d="m134.65 321.58-40.03-113.66c-2.65.93-5.26 1.96-7.83 3.07z" fill="#eece78"/><path d="m25.79 269.9c-1.08 2.27-2.09 4.59-3.03 6.94l111.89 44.75-108.85-51.69z" fill="#ddaf40"/><path d="m134.65 321.58-105.18-58.78c-1.3 2.32-2.52 4.69-3.67 7.1l108.85 51.69z" fill="#86601c"/><path d="m134.65 321.58-96.47-72.17c-1.6 2.13-3.12 4.31-4.58 6.55z" fill="url(#o)"/><path d="m134.65 321.58-111.89-44.75c-.96 2.4-1.85 4.84-2.66 7.31l114.54 37.44z" fill="#533412"/><path d="m134.65 321.58-101.05-65.62c-1.45 2.23-2.83 4.51-4.13 6.84z" fill="#f3c861"/><path d="m134.65 321.58-119.66-14.06c-.54 4.61-.81 9.3-.81 14.06v1.47l120.46-1.47z" fill="#a37b2d"/><path d="m134.65 321.58-116.66-30.17c-1.35 5.24-2.36 10.62-3 16.11z" fill="#8e6b24"/><path d="m134.65 321.58-114.54-37.44c-.78 2.39-1.49 4.81-2.12 7.27z" fill="#e6c056"/><path d="m134.64 321.58-80.45-89.67a119.11 119.11 0 0 0 -6.06 5.83z" fill="url(#p)"/><path d="m134.65 321.58-62.06-103.28c-2.22 1.34-4.4 2.75-6.53 4.22l68.59 99.05z" fill="url(#q)"/><path d="m43.18 243.18c-1.73 2.02-3.4 4.1-5 6.23l96.47 72.17z" fill="url(#r)"/><path d="m134.65 321.58-55.45-106.98c-2.24 1.17-4.45 2.4-6.6 3.7l62.06 103.28z" fill="url(#s)"/><path d="m134.64 321.58-68.59-99.05c-2.13 1.48-4.21 3.03-6.24 4.64l74.83 94.42z" fill="url(#t)"/><path d="m134.64 321.58-86.51-83.84a116.28 116.28 0 0 0 -4.96 5.44z" fill="url(#u)"/><path d="m134.65 321.58-47.86-110.59c-2.58 1.12-5.11 2.32-7.6 3.61l55.45 106.98z" fill="#ba8536"/><path d="m59.81 227.16c-1.92 1.53-3.8 3.11-5.62 4.75l80.45 89.67z" fill="#684510"/><path d="m76.93 356.25v-65.38l56.63-32.7 56.63 32.7v65.38l-56.63 32.7z" fill="#564536"/><path d="m76.93 290.87 56.63-32.7v-2.69l-58.96 34.04v.31l2.33 1.33z" fill="#a69476"/><path d="m190.19 290.87v.29l2.33-1.33v-.31l-58.96-34.04v2.69z" fill="#fefbe4"/><path d="m76.93 291.16-2.33-1.33v67.46l2.33-1.33z" fill="#705c3d"/><path d="m190.19 291.16v64.8l2.33 1.33v-67.46z" fill="#4d3924"/><path d="m190.19 356.25-56.63 32.7v2.69l58.96-34.04v-.31l-2.33-1.33z" fill="#19100a"/><path d="m76.93 356.25v-.29l-2.33 1.33v.31l58.96 34.04v-2.69z" fill="#231a12"/><path d="m139.52 258.88-5.96-5.95v5.95z" fill="#be9951"/><path d="m133.56 252.93-5.95 5.95h5.95z" fill="#c3a44e"/><path d="m133.56 258.88v5.96l5.96-5.96z" fill="#6a5626"/><path d="m127.61 258.88 5.95 5.96v-5.96z" fill="#88652a"/><path d="m192.55 296.47 2.18-8.13-5.16 2.98z" fill="#472a14"/><path d="m194.73 288.34-8.14-2.18 2.98 5.16z" fill="#dcb386"/><path d="m189.57 291.32-5.16 2.98 8.14 2.17z" fill="#3f2713"/><path d="m186.59 286.16-2.18 8.14 5.16-2.98z" fill="#9a7c52"/><path d="m186.58 361.04 8.13-2.17-5.15-2.98z" fill="#211811"/><path d="m194.71 358.87-2.18-8.14-2.97 5.16z" fill="#593816"/><path d="m189.56 355.89-5.16-2.98 2.18 8.13z" fill="#604420"/><path d="m192.53 350.73-8.13 2.18 5.16 2.98z" fill="#9c7c44"/><path d="m127.61 388.23 5.95 5.95v-5.95z" fill="#291c10"/><path d="m133.56 394.18 5.96-5.95h-5.96z" fill="#2e2716"/><path d="m133.56 388.23v-5.96l-5.95 5.96z" fill="#866229"/><path d="m139.52 388.23-5.96-5.96v5.96z" fill="#bfa17b"/><path d="m74.54 350.8-2.18 8.13 5.16-2.97z" fill="#b69259"/><path d="m72.36 358.93 8.14 2.18-2.98-5.15z" fill="#1b110a"/><path d="m77.52 355.96 5.16-2.98-8.14-2.18z" fill="#b0a47b"/><path d="m80.5 361.11 2.18-8.13-5.16 2.98z" fill="#705c3f"/><path d="m80.6 286.11-8.13 2.18 5.15 2.97z" fill="#cfa866"/><path d="m72.47 288.29 2.18 8.13 2.97-5.16z" fill="#775321"/><path d="m77.62 291.26 5.16 2.98-2.18-8.13z" fill="#b29869"/><path d="m74.65 296.42 8.13-2.18-5.16-2.98z" fill="#2a150d"/><path d="m104.56 329.84c-.48-.23-1-.26-1.52-.26h-1.71v6.45h1c0-.37-.02-.74.13-1.09.25-.55.84-.81 1.35-1.06.55-.27 1.16-.53 1.53-1.04.32-.46.41-1.06.32-1.61-.11-.62-.54-1.12-1.1-1.39m-.05 2.47c-.24.36-.64.56-1.01.74-.41.2-.83.4-1.17.71v-3.24h.95c.53 0 1.12.16 1.33.71.13.33.11.78-.09 1.08m7.4-2.55c-.87-.49-2.11-.35-2.78.41-.33.37-.49.84-.52 1.33v4.53h.99v-2.14c.58-.07 1.24-.02 1.73.34.44.32.63.82.63 1.35v.45h.99v-4.32c0-.79-.33-1.54-1.04-1.95m-.01 3.85c-.59-.6-1.49-.81-2.31-.68v-1.05c0-.19 0-.39.05-.58.1-.36.37-.66.73-.78.37-.13.8-.07 1.12.17s.46.6.47.99v2s-.04-.04-.05-.06m7.86.02c-.11-.06-.24-.11-.37-.15.32-.17.63-.39.86-.68.21-.27.32-.58.36-.92.08-.71-.15-1.38-.74-1.81-.78-.58-1.76-.49-2.67-.49h-.95v6.45h1v-.58c.02-.43.21-.84.58-1.07.36-.22.86-.25 1.25-.07s.64.55.71.97c.04.24.02.5.02.75h1.01c0-.35.02-.71-.06-1.06-.13-.57-.5-1.06-1.02-1.33m-1.49-3.13c.64 0 1.28.31 1.35 1.01.03.34-.04.67-.26.93-.24.28-.61.45-.94.61-.4.19-.8.39-1.13.69v-3.24zm5.7-.03c.33-.09.66-.13 1-.15v-.75h-1zm0 .56v4.98h1v-5.13c-.34.01-.68.06-1 .15m7.69 1.89c-.36-.28-.79-.44-1.21-.6-.39-.14-.85-.3-1.14-.62-.26-.3-.2-.78.07-1.05.28-.28.73-.34 1.1-.23.42.13.67.51.67.94h.99c0-.47-.15-.93-.48-1.28-.32-.34-.75-.54-1.2-.6-.47-.06-.96 0-1.38.24-.39.22-.72.58-.86 1.01-.13.41-.1.93.11 1.32.24.43.67.69 1.11.87.48.2 1.03.33 1.45.63.17.12.31.28.37.49.05.2.03.44-.06.62-.23.46-.81.6-1.28.51-.53-.1-.91-.54-.91-1.09h-.98c0 .52.17 1.02.55 1.39.37.37.89.57 1.41.61.54.04 1.1-.07 1.55-.38.41-.29.69-.75.75-1.26.06-.59-.13-1.17-.6-1.55m9.3.17c.22-.28.44-.57.58-.89s.2-.67.16-1.02c-.07-.66-.53-1.21-1.13-1.49-.61-.28-1.38-.27-1.98.04s-1.04.9-1.07 1.58c-.04.7.29 1.32.84 1.74l.57-.72c-.2-.19-.36-.43-.41-.71-.04-.27 0-.54.17-.77.32-.44.97-.57 1.45-.33.24.12.44.33.53.59.09.27.05.57-.07.83s-.3.47-.47.69c-.67.84-1.34 1.67-2.01 2.51l-.72.9h4.53v-.92h-2.6zm9.42-2.63c-1-.98-2.56-1.24-3.83-.65a3.361 3.361 0 0 0 -1.92 3.35c.13 1.37 1.16 2.55 2.49 2.89 1.35.34 2.83-.16 3.64-1.31s.79-2.77-.06-3.9a3.8 3.8 0 0 0 -.33-.37m-.21 3.28c-.39.92-1.31 1.51-2.32 1.45-.97-.06-1.81-.75-2.09-1.68-.29-.95.05-2.01.84-2.61s1.91-.62 2.73-.06c.91.63 1.28 1.87.84 2.9m7.58-.66c.22-.28.44-.57.58-.89s.2-.67.16-1.02c-.07-.66-.53-1.21-1.13-1.49-.61-.28-1.38-.27-1.98.04s-1.04.9-1.07 1.58c-.04.7.29 1.32.84 1.74l.57-.72c-.2-.19-.36-.43-.41-.71-.04-.27 0-.54.17-.77.32-.44.97-.57 1.45-.33.24.12.44.33.53.59.09.27.05.57-.07.83s-.3.47-.47.69c-.67.84-1.34 1.67-2.01 2.51l-.72.9h4.53v-.92h-2.6zm7.06-1.77v2.19c-.48-.34-1.07-.44-1.57-.74-.43-.26-.57-.71-.57-1.19v-1.98h-1v2.01c0 .69.17 1.36.73 1.8.35.27.76.44 1.18.59.37.13.76.29 1.01.6.2.25.22.54.22.84v.6h.96v-4.72z" fill="#010101"/><path d="m133.12 351.98c0 2.92-2.37 5.29-5.29 5.29s-5.29-2.37-5.29-5.29 2.37-5.29 5.29-5.29 5.29 2.37 5.29 5.29m-5.29-4.41a4.41 4.41 0 1 0 4.41 4.41c0-2.43-1.98-4.41-4.41-4.41" fill="#f9b034"/><path d="m144.59 351.98c0 2.92-2.37 5.29-5.29 5.29s-5.29-2.37-5.29-5.29 2.37-5.29 5.29-5.29 5.29 2.37 5.29 5.29m-5.29-4.41a4.41 4.41 0 1 0 4.41 4.41c0-2.43-1.98-4.41-4.41-4.41" fill="#0fa652"/><path d="m122.09 341.84c-2.92 0-5.29 2.37-5.29 5.29s2.37 5.29 5.29 5.29c.15 0 .31 0 .46-.02-.01-.14-.02-.28-.02-.42 0-.16 0-.31.02-.46-.15.01-.31.02-.46.02a4.41 4.41 0 0 1 0-8.82c2.43 0 4.41 1.98 4.41 4.41 0 1.96-1.27 3.61-3.04 4.19-.03.22-.05.44-.05.66v.27a5.29 5.29 0 0 0 -1.33-10.41" fill="#0f83c6"/><path d="m145.03 341.84c-2.78 0-5.06 2.14-5.28 4.87.3.03.59.08.87.15.14-2.31 2.06-4.14 4.4-4.14s4.41 1.98 4.41 4.41a4.41 4.41 0 0 1 -8.77.66c-.29-.1-.6-.16-.91-.19.24 2.7 2.51 4.83 5.27 4.83 2.92 0 5.29-2.37 5.29-5.29s-2.37-5.29-5.29-5.29" fill="#e83a50"/><path d="m133.56 341.84c-2.78 0-5.06 2.15-5.28 4.87.3.03.59.08.87.15.14-2.31 2.06-4.14 4.4-4.14s4.41 1.98 4.41 4.41c0 1.96-1.27 3.61-3.04 4.19-.03.22-.05.44-.05.66v.27a5.29 5.29 0 0 0 -1.33-10.41" fill="#010101"/><path d="m134 351.98c0-.16 0-.31.02-.46-.15.01-.31.02-.46.02-2.21 0-4.04-1.63-4.36-3.75-.29-.1-.59-.16-.91-.19.24 2.7 2.51 4.83 5.27 4.83.15 0 .31 0 .46-.02-.01-.14-.02-.28-.02-.42" fill="#010101"/><path d="m135.83 318.54c-.55-.21-1.48-.22-2.27.42-.79-.64-1.72-.62-2.27-.42-.46.17-.83.29-1.51.28.68 1.41 2.11 2.38 3.78 2.38s3.1-.97 3.78-2.38c-.68 0-1.04-.11-1.51-.28" fill="#d7c379"/><path d="m133.56 283.17c-11.39 0-20.63 9.24-20.63 20.63 0 9.77 6.79 17.95 15.9 20.09-7.24-3.88-10.2-12.76-6.7-20.21a9.662 9.662 0 0 0 5.34 6.92c-3.73-8.73-.98-19 6.72-24.68-1.52 5.19.81 9.94 5.81 13.53 5.71 4.1 5.96 12.47.91 17 2-.47 3.87-1.57 5.26-3.26-.86 4.42-3.63 8.43-7.89 10.7 9.12-2.14 15.9-10.32 15.9-20.09 0-11.39-9.24-20.63-20.63-20.63" fill="#3a2f21" stroke="#d7c379" stroke-miterlimit="10"/><path d="m148.61 322.54h.39v1.35h.19v-1.35h.39v-.18h-.97zm2.69-.18c-.29 0-.52.13-.64.34-.11-.21-.34-.34-.64-.34h-.1v1.53h.19v-1.34c.27 0 .45.19.45.49v.38h.19v-.38c0-.3.18-.49.45-.49v1.34h.19v-1.53h-.1z" fill="#d7c379"/></svg>