<svg height="2500" viewBox="0 0 500 500" width="2500" xmlns="http://www.w3.org/2000/svg"><path d="m0 0h500v500h-500z" fill="#fefefe"/><path d="m107 215h101c1.813 4.833 3.349 9.045 4.513 13.968.853 3.559 1.872 7.072 2.862 10.594 2.692 9.637 5.38 19.28 7.75 29 .784 3.402.784 3.402 2.063 6.375 2.352 8.868-1.856 16.946-5.188 25.063h-21c-5.883-22.259-5.883-22.259-8.387-33.143-1.908-8.236-3.993-16.428-6.064-24.623a1052.663 1052.663 0 0 1 -5.549-23.234l-1 23h-71z" fill="#475d84"/><path d="m248 215c19.993-.07 39.985-.123 59.978-.155 9.283-.016 18.566-.037 27.849-.071 8.09-.03 16.18-.05 24.271-.056 4.285-.004 8.569-.013 12.853-.035 4.033-.02 8.065-.027 12.098-.022 1.48-.001 2.96-.007 4.44-.019 2.02-.015 4.042-.01 6.063-.003l3.428-.008c3.02.369 3.02.369 8.02 3.369v23h-136l-2 10c-1.622 7.143-3.58 14.087-6 21h-2l-.48-2.29c-.828-3.905-1.671-7.808-2.52-11.71l-.552-2.548c-2.29-10.506-4.678-20.917-7.924-31.174-1.034-3.31-1.524-5.758-1.524-9.278z" fill="#4c3d96"/><path d="m213 215h31c1.626 4.065 2.702 7.639 3.656 11.875l.448 1.96c.628 2.747 1.245 5.496 1.864 8.245.455 2.016.916 4.03 1.376 6.045l.818 3.633c.747 2.888 1.696 5.494 2.838 8.242.54 2.262 1.038 4.534 1.5 6.813.786 3.837 1.588 7.616 2.688 11.375 2.024 9.5.423 17.566-2.188 26.812h-23c-1.764-3.527-2.322-5.313-2.813-9.063-1.24-8.023-3.44-15.757-5.557-23.583-.933-3.484-1.82-6.98-2.692-10.479l-.488-1.954c-1.369-5.522-2.657-11.062-3.941-16.603-1.448-6.187-3.086-12.314-4.775-18.44-.734-2.878-.734-2.878-.734-4.878z" fill="#415a7f"/><path d="m106 274h72v27h-72z" fill="#33885c"/><path d="m107 244h71v27h-71z" fill="#49558b"/><path d="m336 245h71v23c-4.992 2.995-6.164 3.372-11.626 3.34l-1.953.002c-2.116-.002-4.231-.025-6.347-.049a2053.76 2053.76 0 0 1 -16.013-.087c-3.948-.03-7.896-.044-11.844-.06-7.74-.032-15.478-.084-23.217-.146z" fill="#455289"/><path d="m107 216h70v25h-70z" fill="#493995"/><path d="m274 244h54v27h-54z" fill="#49568b"/><path d="m274 274h38v27h-38z" fill="#33875c"/><path d="m337 275h35v25h-35z" fill="#298254"/><path d="m259 261 2 3 1.688 1.938c1.312 2.062 1.312 2.062 1 4.312l-.688 1.75h-2c-1.193-3.877-2-6.916-2-11z" fill="#7d99a6"/></svg>