<svg clip-rule="evenodd" fill-rule="evenodd" height="1565" image-rendering="optimizeQuality" shape-rendering="geometricPrecision" text-rendering="geometricPrecision" viewBox="0 0 695 435" width="2500" xmlns="http://www.w3.org/2000/svg"><g fill="#215da4"><path d="M15 412h3c4 0 6-1 8-2 2-2 3-5 3-9s-1-6-2-8c-2-2-5-3-8-3h-4zM0 434v-3h5l1-2v-38l-1-1H0v-4h19c7 0 12 1 15 4 4 2 5 6 5 11s-2 9-5 11c-3 3-8 5-14 5h-2c-1 0-2-1-3-1v13l1 2h6v3zm63-7v-11c-5 1-8 2-10 3s-3 3-3 5 1 3 2 4 2 2 4 2c1 0 2-1 3-1s2-1 4-2zm0 3c-3 2-5 3-7 4s-4 1-6 1c-3 0-5-1-7-3-1-1-2-4-2-6 0-4 1-6 4-8 2-2 8-4 18-6v-2c0-3-1-5-2-6s-3-2-5-2h-2s-1 1-2 1v6h-9c0-1-1-1-1-2 0-2 2-4 5-6s7-3 11-3c5 0 9 1 11 3s3 6 3 10v19l1 1h3v3H64zm16 4v-3h4l1-1v-43h-6v-2l11-4h3v35h2l10-12v-1h-3v-4h14v4h-4l-8 9 11 19h4v3h-14v-2l-8-14h-4v12l1 1h4v3zm61 0v-3h4l2-2v-38l-2-1h-4v-4h36v11h-5l-1-6-1-1h-14v17h9l1-1 1-5h4v17h-4l-1-5-1-1h-9v18h17l1-1 1-7h5v12zm42 0v-3h5l1-1v-43h-6v-2l11-4h3v49l2 1h4v3zm47-22v-1c0-2-1-5-2-6-1-2-3-3-5-3s-4 1-5 3-2 4-2 7zm9 13v6c-2 1-5 2-7 3-3 1-5 1-8 1-5 0-9-2-13-5-3-3-5-8-5-13s2-10 5-13c4-4 8-6 13-6s9 2 11 5c3 3 4 7 4 12v1h-23c0 4 1 8 3 10s5 3 8 3c2 0 4 0 6-1 2 0 4-1 6-3zm4 9v-3h4l1-1v-43h-5v-2l11-4h3v35h1l11-12-1-1h-3v-4h15v4h-5l-8 9 11 19h5v3h-14v-2l-9-14h-3v12l1 1h3v3zm44-29h-4v-3l5-3 4-8h4v9h11v5h-11v18c0 2 1 4 2 5 0 1 2 2 4 2 1 0 2-1 3-1h2v3c-2 1-4 2-6 2-2 1-4 1-5 1s-2 0-3-1c-1 0-2 0-3-1-1 0-2-1-2-2s-1-3-1-5zm22 29v-3h4l1-1v-25h-5v-3l10-3h4v7c1-1 2-3 4-4 1-1 2-2 4-3h4c1 0 2 0 2 1l-1 10h-3l-2-2c-1-1-2-1-3-1s-1 0-2 1c-1 0-2 0-3 1v21l1 1h5v3zm49-32c-2 0-4 2-6 4-1 3-2 6-2 11 0 4 1 8 2 10 2 3 4 4 6 4 3 0 5-1 7-4 1-2 2-6 2-10 0-5-1-8-2-11-2-2-4-4-7-4zm1-4c5 0 10 2 13 5 3 4 5 8 5 14 0 5-2 10-5 13-4 3-8 5-14 5-5 0-10-2-13-5s-5-8-5-13c0-6 2-10 5-13 4-4 8-6 14-6zm22 36v-3h4l1-1v-25h-5v-3l10-3h4v4c3-2 5-3 7-3 2-1 4-1 5-1 3 0 6 1 7 3 2 1 3 4 3 9v19l1 1h4v3h-18v-3h3l1-1v-17c0-3 0-5-1-6-1-2-3-2-5-2h-3c-2 0-3 1-4 1v24l1 1h3v3zm64 0v-3h5l1-2v-38l-1-1h-5v-4h21v4h-4l-1 1v39h13l1-1 1-9h6v14zm50-35h4v31l1 1h4v3h-19v-3h4l1-1v-25h-5v-3zm-1-17c2 0 3 1 4 2s2 2 2 4c0 1-1 2-2 3s-2 2-4 2c-1 0-2-1-3-2s-2-2-2-3c0-2 1-3 2-4s2-2 3-2zm47 21c2-1 5-2 7-3s4-1 5-1c4 0 6 1 8 3s2 5 2 9v19l1 1h4v3h-18v-3h4l1-1v-17c0-3-1-5-2-6-1-2-3-2-5-2h-3c-1 0-2 1-3 1v24l1 1h3v3h-17v-3h3l1-1v-18c0-2-1-4-2-5-1-2-2-2-5-2h-2c-1 0-2 1-4 1v24l1 1h3v3h-17v-3h3l2-1v-25h-5v-3l10-3h3v4c3-2 5-3 7-3 2-1 4-1 5-1 2 0 4 0 5 1 2 1 3 2 4 3zm40-4h4v31l1 1h4v3h-19v-3h4l1-1v-25h-5v-3zm0-17c1 0 2 1 3 2s2 2 2 4c0 1-1 2-2 3s-2 2-3 2c-2 0-3-1-4-2s-2-2-2-3c0-2 1-3 2-4s2-2 4-2zm16 23h-5v-3l6-3 3-8h5v9h10v5h-10v18c0 2 0 4 1 5s3 2 5 2c1 0 1-1 2-1h2v3c-2 1-4 2-5 2-2 1-4 1-6 1-1 0-2 0-3-1-1 0-2 0-3-1l-2-2v-5zm46 7v-1c0-2-1-5-2-6-1-2-3-3-5-3s-4 1-5 3-2 4-2 7zm9 13v6c-2 1-5 2-7 3-3 1-5 1-8 1-5 0-10-2-13-5s-5-8-5-13 2-10 5-13c4-4 8-6 13-6s8 2 11 5 4 7 4 12v1h-24c0 4 2 8 4 10s4 3 8 3c2 0 4 0 6-1 2 0 4-1 6-3zm30 3v-24c-1-1-2-1-3-1 0 0-1-1-2-1-3 0-6 2-8 4-1 3-2 6-2 10s1 7 2 10c2 2 4 3 7 3h3c1-1 2-1 3-1zm0-41h-5v-2l11-4h3v49l1 1h4v3h-14v-4c-2 2-4 3-6 4-1 1-3 1-5 1-4 0-7-2-10-5s-4-7-4-12c0-6 2-11 5-14 4-4 8-6 14-6 1 0 2 0 3 1h3z" fill-rule="nonzero"/><path d="M347 0c90 0 163 72 163 162 0 89-73 162-163 162-89 0-162-73-162-162C185 72 258 0 347 0zm49 128h34c2 0 4 2 4 5 0 2-2 4-4 4h-3v55h15c8 0 13-3 18-8 1-1 7-8 10-8 5-1 0 9-1 10-3 6-5 12-8 19h-65c-3 0-5-2-5-5 0-2 2-5 5-5h4v-58h-4c-3 0-5-2-5-4 0-3 2-5 5-5zm-35 64l-10 1v-20h9l1 2c-3 7 2 9 5 4 5-7 9-14 14-20 2-4-2-7-6-3-2 3-5 4-10 5h-13v-20h10c10 0 16 1 21 7 5 5 10 1 7-4-5-6-6-9-10-15-20 0-40-1-59-1-3 0-5 2-5 5v2h1v1h1v1h7v59h-4c-3 0-5 2-5 4 0 3 2 5 5 5h33c11 0 15-1 26 0 4-6 7-12 11-18 4-5-1-9-6-4-6 6-13 9-23 9zm-95-14v18h4c3 0 5 2 5 4 0 3-2 5-5 5h-34c-3 0-5-2-5-5 0-2 2-4 5-4h4v-59h-7v-1h-1v-1h-1v-2c0-3 2-5 5-5h54c34 0 33 50-1 50zm0-37h11c6 0 11 5 11 11v5c0 6-5 11-11 11h-11zm63-86c81-20 155 14 166 75s-46 126-127 145-155-15-166-75c-11-61 46-126 127-145z"/></g></svg>