<svg height="1876" width="2500" xmlns="http://www.w3.org/2000/svg" viewBox="1784.9700000000012 396.02000000000135 5768.899999999998 6198.979999999998"><linearGradient id="a" gradientUnits="userSpaceOnUse" x1="1785.82" x2="7447.89" y1="3620.08" y2="3620.08"><stop offset=".44" stop-color="#00000c"/><stop offset=".54" stop-color="#00f"/><stop offset=".68"/></linearGradient><linearGradient id="b" gradientUnits="userSpaceOnUse" x1="1785.82" x2="7447.89" y1="3620.08" y2="3620.08"><stop offset="0" stop-color="#00f"/><stop offset="1"/></linearGradient><linearGradient id="c" gradientUnits="userSpaceOnUse" x1="1990" x2="7553.86" y1="1497.83" y2="1497.83"><stop offset="0" stop-color="red"/><stop offset=".28" stop-color="#ff1515"/><stop offset=".48" stop-color="#fcc"/><stop offset=".65" stop-color="#ff1313"/><stop offset="1" stop-color="red"/></linearGradient><linearGradient id="d" gradientUnits="userSpaceOnUse" x1="1887.37" x2="7549.45" y1="3563.66" y2="3563.66"><stop offset=".4" stop-color="red"/><stop offset=".5" stop-color="#fcc"/><stop offset=".63" stop-color="red"/></linearGradient><linearGradient id="e" gradientUnits="userSpaceOnUse" x1="1887.37" x2="7549.45" y1="3563.66" y2="3563.66"><stop offset="0" stop-color="red"/><stop offset=".36" stop-color="#fcc"/><stop offset="1" stop-color="red"/></linearGradient><linearGradient id="f" gradientUnits="userSpaceOnUse" x1="1910" x2="7429.78" y1="5613.5" y2="5613.5"><stop offset="0" stop-color="#00f"/><stop offset=".35" stop-color="#1616ff"/><stop offset=".5" stop-color="#ccf"/><stop offset=".7" stop-color="#1212ff"/><stop offset="1" stop-color="#00f"/></linearGradient><g fill-rule="evenodd"><path d="M5973.81 4525.06c-3.24 3.43-96.21 10.12-206.59 14.87s-203.69 10.49-207.33 12.75c-3.66 2.27-51.47 7.21-106.25 11-54.78 3.8-171.32 20.3-258.97 36.69-167.85 31.4-203.91 37.27-525.33 85.63-365.25 54.96-619.58 86.9-956.22 120.08-215.43 21.23-954.17 21.2-1121.49-.06-237.31-30.15-472.1-83.03-643.39-144.94-141.08-50.98-133.78-49.99-123.8-16.83 20.91 69.42 764.16 1829.88 2760.3 1833.92 1976 4 2764.7-1607.1 2754.79-1633.64-5.02-13.43-155.88-95.1-250.14-135.43-185.13-79.2-488.76-152.38-698.36-168.29-165.73-12.59-411.43-21.87-417.22-15.75zM4602.74 422.02c-1950.3 23.58-2703.01 1639.79-2703.01 1665.95 0 8.02 70.89 49.77 157.52 92.78 402.48 199.81 793.89 262.31 1405.84 224.49 130.77-8.08 277.89-16.87 326.93-19.55 49.04-2.67 115.91-10.52 148.62-17.46 117.4-24.87 371.62-70.24 534.98-95.48 91.54-14.13 214.59-33.32 273.44-42.64 95.22-15.06 310.26-42.77 612.26-78.87 144.63-17.29 409.32-34.31 679.71-43.7 480.13-16.67 981.87 51.86 1314.61 179.55 60.48 23.2 109.97 38.87 109.96 34.8-.01-16.03-710.86-1925.87-2860.86-1899.87z" stroke="#000"/><path d="M6510.21 2630.75c-110.77 10.9-276.35 35.21-425.45 67.91-62.99 13.82-168.97 35.33-235.52 47.81-66.54 12.47-219.06 41.74-338.92 65.04-248.54 48.32-449.74 83.48-598.73 104.63-99.96 14.19-183.56 7.28-400.83-33.13-28.91-5.37-31.25-2.99-25.67 26.21 9.16 47.91 112.84 154.15 187.12 191.73 171.29 86.66 361.79 69.13 698.13-64.25 195.95-77.71 439.73-161.87 509.15-175.76 36.48-7.29 28.11 1.19-60.49 61.26-90.77 61.55-192.03 138.59-308.52 234.71-86.9 71.71-245.28 243.54-282.57 306.54-90.66 153.23-143.57 350.13-130.89 487.15l6.76 73.05-87.02 14.69c-204.91 34.58-614.06 96.2-909.74 136.98-374.99 51.74-789.47 24.09-1170.55-78.07-125.24-33.57-127.44-30.8-68.75 86.65 73.02 146.11 223.82 233.93 460.72 268.3 123.36 17.9 400.07-1.21 615.24-42.48 479.67-92.01 811.16-156.69 967.9-188.87 247.17-50.75 254.07-51.76 254.07-37.32 0 22.92 120.36 144.99 203.18 206.05 149.8 110.47 314.87 179.61 508.27 212.9 176.75 30.43 461.95-2.18 641.74-73.37 143.82-56.94 216.91-99.43 284.42-165.35 110.37-107.75 118.32-212.63 23.14-305.08-55.09-53.5-167.93-108.22-273.79-132.77-130.17-30.19-382.15-44.71-540.03-31.12-76.53 6.58-171.81 14.64-211.73 17.91-87.56 7.15-294.98 39.08-322.49 49.64-16.41 6.3-21.16-4.53-28.06-63.91-21.49-185.17 66.07-380.63 287.62-642 176.52-208.26 493.07-413.28 733.32-474.97 83.09-21.35 218.86-31.56 218.86-16.47 0 3.6-11.02 18.38-24.48 32.84-13.47 14.45-30.63 46.77-38.13 71.8-20.14 67.22-1.53 116.75 60.15 160.1 47.67 33.5 161.73 56.76 248.31 41.19 139-25 201.04-118.98 201.82-203.45 1.18-128.55-143.76-201.15-216.51-218.45-101.31-24.1-321.31-27.1-411.05-18.27zm-2947.62 1.58c-353.22 49.02-603.57 134.82-848.73 290.89-91.91 58.51-222.96 189.56-258.68 258.65-39.55 76.54-39.41 163.06.38 221.83 52.7 77.88 191.08 123.51 282.8 93.24 49.5-16.34 53.6-24.89 21.55-44.91-12.27-7.66-31.55-33.41-42.85-57.22-38.54-81.2 12.03-197.74 142.02-327.24 207.92-207.12 447.91-309.31 733.74-312.4 133.35-1.44 211.46 15.78 305.36 67.37 49.12 26.99 63.87 55 58.57 111.23-11.66 123.71-185.06 246.4-386.55 273.51-51.89 6.98-111.23 10.93-131.87 8.76l-37.5-3.94 55.07-82.27c30.3-45.25 107.52-134.58 171.62-198.51l116.55-116.22-87.48 8.01c-215.89 19.76-348.95 108.68-554.85 370.84-121.81 155.08-458.13 607.11-494.08 664.05-44 69.7-61.05 90.33-163.47 197.74-109.92 115.3-201.84 166.59-298.51 166.59-84.05 0-122.53-19.01-150.84-74.49-32.05-62.82-30.78-86.85 3.99-75.69 90.8 29.13 185.05 23.3 257.1-15.91 110.26-60.01 118.59-213.7 14.93-275.83-60.35-36.16-169.47-29.9-266.01 15.28-148.34 69.42-219.88 161.34-219.03 281.45.51 72.39 19.68 118.79 72.83 176.23 128.85 139.26 405.67 168.15 627.16 65.46 148.78-68.99 199.05-124.6 608.02-672.63l226.8-303.91 114.93-1.73c241.38-3.63 452.1-45.91 610.99-122.62 123.97-59.85 177.67-105.37 216.69-183.65 49.89-100.11 36.53-183.81-42.01-263.14-59.2-59.79-92.18-77.34-206.48-109.8-86.93-24.69-358.11-42.13-452.16-29.02zm2423.86 500.09c-163.45 74.85-287.36 311.87-282 448 5 127 57.34 178.61 124 194 52 12 208 72 394-156 132.83-162.82 159.74-278.89 146-398-8.82-76.49-168-186-382-88zm172 96c126.48 37.55-138.72 437.65-260 412-104-22 132-450 260-412zm106.18 421.75c-32.16 47.94-66.68 107.73-66.68 113.75 0 5.56 335.49 36.36 337 35 1.55-1.41 92-157.42 92-159 0-3.29-118.31-12.37-118.31-16.01s47.23-78.72 104.95-166.85c156.9-239.54 202.36-324.74 202.36-327.14 0-3.25-186.67-23.67-225-27-27.62 62.06-219.68 388.26-326.32 547.25zm815.72-365.23c-24.99 26.74-72.34 78.46-105.22 114.94-32.89 36.48-349.99 399.05-355.18 408.04-6.07 10.51 193.59 49.75 196 49 3.47-1.09 98.75-135.46 101.17-135.81 11.98-1.72 86.28 23.33 91.83 33.81 1.29 2.45-55.4 120.91-65.63 138.36l98.25 37.52c54.05 20.64 105.36 37.52 114.02 37.52 8.68 0 291.52-669.23 292.3-671.42.7-1.94-219.41-84.47-285.94-103.98-1.92-.57-56.62 65.29-81.6 92.02zm.6 332.98l-61-23 127.29-141.42zm-1979-335c-41.59 5.55-233.3 45.34-236 50-18 31-308.23 538.97-329.15 574.43l-58.85 95.57 103-20c35.34-4.25 103-19 141-27 1.38-.29 127.31-287.33 380-673zm-610.5 85.06c-77.25 19.54-147.52 64.56-192.2 123.13-43.06 56.45-51.48 149.45-23.33 257.71 18.75 72.16 18.71 78.36-.71 99.81-25.32 27.98-85.8 29.82-146.51 4.44-24.26-10.13-46.27-21.03-46.75-20.15-10 18-77.76 170.58-77.76 183.18 0 5.46 68.78 23.44 155.76 21.82 161-3 248.63-15.98 311-99 30.47-40.57 18.83-90.81 11.24-140.01-28.24-182.99-13.24-236.99 15.76-265.99 28.02-28.03 57-21 106.22-8.1l57.78 18.1 41.41-77.8 37.62-65.48-36.33-18.79c-50.99-26.36-138.86-31.67-213.2-12.87zm-1149.13 112.37c-35.12 76.9-217.16 351.37-288.18 434.49-30.8 36.05-46.84 63.08-42.19 63.08 4.64 0 79.17 13.73 172.23 27.5 75.71 11.19 182.09 30.14 183.77 29.5 2.03-.78 52-93 84-146 .57-.95-130.38-17.41-151.86-17.41 36.29-56.57 52.46-84.79 55.86-85.59 2.74-.65 106.69 10.96 129.11 11.77l41.8-65.34c22.99-35.93 51.09-72.78 51.09-76.43l-138-8c15.6-36.83 58.94-87.31 62-89 2.97-1.65 37.51-.35 73.2 2.53l85.12 6.86c13.32-20.35 86.73-138.36 83.68-141.39-3.05-3.05-94.96-2.36-194-6l-175-9zm468.29-31.81c0 13.58-11.66 47.6-25.91 75.62-44.81 88.07-337.67 516.63-334.75 516.76 2.9.13 177.68 18.23 212.52 20.35 8.73-17.98 118.95-211.88 132.26-232.68l62.21 2.07c134.07 4.46 271.01-58.01 323.82-147.74 38.92-66.13 39.66-148.66 1.72-192.77-35.14-40.85-138.04-65.85-272.05-66.11-92.46-.17-99.82 1.64-99.82 24.5zm228.34 143.38c20.2 25.04-.85 73.81-53 99-27.7 13.38-107.46 6.62-106 4 5-9 67.83-123.77 71-125 2.8-1.1 74.92 5.78 88 22zm982.08-65.29c-16.26 20.58-39.08 79.29-48.94 102.3-.45 1.05 120.62-11.16 121.86-12.01 2.6-1.79 52.88-105 50-105-4 0-122.09 13.65-122.92 14.71zm1204.71 545.08c228.86 39.87 318.78 81.32 319.03 147.08.13 32.02-9.7 46.29-56.42 81.97-91.01 69.5-199.6 97.14-378.98 96.51-170.17-.59-280.39-26.31-397.13-92.68-66.74-37.94-195.71-155.07-195.71-177.73 0-16.23 20.39-21.2 199.63-48.72 183.12-28.13 371.38-30.51 509.58-6.43z" fill="url(#a)" stroke="url(#b)"/><path d="M4693.01 501C2742.7 524.58 1990 2140.79 1990 2166.95c0 8.02 70.89 49.77 157.52 92.78 402.48 199.81 793.89 262.31 1405.84 224.49 130.77-8.08 277.89-16.87 326.93-19.55 49.04-2.67 115.91-10.52 148.61-17.46 117.41-24.87 371.63-70.24 534.99-95.48 91.54-14.13 214.59-33.32 273.44-42.64 95.22-15.06 310.26-42.77 612.26-78.87 144.63-17.29 409.32-34.31 679.71-43.7 480.12-16.67 981.87 51.86 1314.61 179.55 60.48 23.2 109.96 38.87 109.95 34.8 0-16.03-710.85-1925.87-2860.85-1899.87z" fill="url(#c)" stroke="red"/><path d="M6611.76 2574.33c-110.76 10.9-276.35 35.21-425.45 67.91-62.99 13.82-168.97 35.33-235.52 47.81-66.54 12.47-219.06 41.74-338.92 65.04-248.54 48.32-449.74 83.48-598.73 104.63-99.96 14.19-183.56 7.28-400.83-33.13-28.91-5.37-31.25-2.99-25.67 26.21 9.16 47.91 112.84 154.15 187.12 191.73 171.29 86.66 361.79 69.13 698.13-64.25 195.95-77.71 439.73-161.87 509.15-175.76 36.48-7.29 28.11 1.19-60.49 61.26-90.77 61.55-192.03 138.59-308.52 234.71-86.9 71.71-245.28 243.54-282.57 306.54-90.66 153.23-143.57 350.13-130.89 487.15l6.76 73.05-87.02 14.69c-204.91 34.58-614.06 96.2-909.74 136.98-374.99 51.74-789.47 24.09-1170.55-78.07-125.24-33.57-127.44-30.8-68.75 86.65 73.02 146.11 223.82 233.93 460.72 268.3 123.36 17.9 400.07-1.21 615.24-42.48 479.67-92.01 811.16-156.69 967.9-188.87 247.17-50.75 254.07-51.76 254.07-37.32 0 22.92 120.36 144.99 203.18 206.05 149.8 110.47 314.87 179.61 508.27 212.9 176.75 30.43 461.95-2.18 641.74-73.37 143.82-56.94 216.91-99.43 284.42-165.35 110.37-107.75 118.32-212.63 23.14-305.08-55.09-53.5-167.93-108.22-273.79-132.77-130.17-30.19-382.15-44.71-540.03-31.12-76.53 6.58-171.81 14.64-211.73 17.91-87.56 7.15-294.98 39.08-322.49 49.64-16.41 6.3-21.16-4.53-28.06-63.91-21.49-185.17 66.07-380.63 287.62-642 176.52-208.26 493.07-413.28 733.32-474.97 83.09-21.35 218.86-31.56 218.86-16.47 0 3.6-11.02 18.38-24.48 32.84-13.47 14.45-30.63 46.77-38.13 71.8-20.14 67.22-1.53 116.75 60.15 160.1 47.67 33.5 161.73 56.76 248.31 41.19 139-25 201.04-118.97 201.82-203.45 1.18-128.55-143.76-201.14-216.51-218.45-101.31-24.1-321.31-27.1-411.05-18.27zm-2947.62 1.58c-353.22 49.02-603.57 134.82-848.73 290.89-91.91 58.51-222.96 189.56-258.68 258.65-39.55 76.54-39.41 163.06.38 221.83 52.7 77.88 191.08 123.51 282.8 93.24 49.5-16.34 53.6-24.89 21.55-44.91-12.27-7.66-31.55-33.41-42.85-57.22-38.54-81.2 12.03-197.74 142.02-327.24 207.92-207.12 447.91-309.31 733.74-312.4 133.35-1.44 211.46 15.78 305.36 67.37 49.12 26.99 63.87 55 58.57 111.23-11.66 123.71-185.06 246.4-386.55 273.51-51.89 6.98-111.23 10.93-131.87 8.76l-37.5-3.94 55.07-82.27c30.3-45.25 107.52-134.58 171.62-198.51l116.55-116.22-87.48 8.01c-215.89 19.76-348.95 108.68-554.85 370.84-121.81 155.08-458.13 607.11-494.08 664.05-44 69.7-61.05 90.33-163.47 197.74-109.92 115.3-201.84 166.59-298.51 166.59-84.05 0-122.53-19.01-150.84-74.49-32.05-62.82-30.78-86.85 3.99-75.69 90.8 29.13 185.05 23.3 257.1-15.91 110.26-60.01 118.59-213.7 14.93-275.83-60.35-36.16-169.47-29.9-266.01 15.28-148.34 69.42-219.88 161.34-219.03 281.45.51 72.39 19.68 118.79 72.83 176.23 128.85 139.26 405.67 168.15 627.16 65.46 148.78-68.99 199.05-124.6 608.02-672.63l226.8-303.91 114.93-1.73c241.38-3.63 452.1-45.91 610.99-122.62 123.97-59.85 177.67-105.37 216.69-183.65 49.89-100.11 36.53-183.81-42.01-263.14-59.2-59.79-92.18-77.34-206.48-109.8-86.93-24.69-358.11-42.13-452.16-29.02zM6088 3076c-163.45 74.85-287.36 311.87-282 448 5 127 57.34 178.62 124 194 52 12 208 72 394-156 132.83-162.82 159.74-278.89 146-398-8.82-76.49-168-186-382-88zm172 96c126.48 37.55-138.72 437.66-260 412-104-22 132-450 260-412zm106.18 421.75c-32.16 47.94-66.68 107.73-66.68 113.75 0 5.56 335.49 36.37 337 35 1.55-1.41 92-157.42 92-159 0-3.29-118.31-12.37-118.31-16.01s47.23-78.72 104.95-166.85c156.9-239.54 202.36-324.74 202.36-327.14 0-3.24-186.67-23.67-225-27-27.62 62.06-219.68 388.26-326.32 547.25zm815.72-365.23c-24.99 26.74-72.34 78.46-105.22 114.94-32.89 36.48-349.99 399.05-355.18 408.04-6.07 10.51 193.59 49.75 196 49 3.47-1.09 98.75-135.46 101.17-135.81 11.98-1.72 86.28 23.33 91.83 33.81 1.3 2.45-55.4 120.91-65.63 138.36l98.25 37.52c54.05 20.64 105.36 37.52 114.02 37.52 8.68 0 291.52-669.23 292.31-671.42.69-1.93-219.42-84.47-285.95-103.98-1.92-.56-56.62 65.29-81.6 92.02zm.6 332.98l-61-23 127.29-141.42zm-1979-335c-41.59 5.55-233.3 45.34-236 50-18 31-308.23 538.97-329.15 574.43l-58.85 95.57 103-20c35.34-4.25 103-19 141-27 1.38-.29 127.31-287.33 380-673zm-610.5 85.06c-77.25 19.54-147.52 64.56-192.2 123.13-43.06 56.45-51.48 149.45-23.33 257.71 18.75 72.16 18.71 78.36-.71 99.81-25.32 27.98-85.8 29.82-146.51 4.44-24.26-10.13-46.26-21.02-46.75-20.15-10 18-77.76 170.58-77.76 183.18 0 5.46 68.78 23.44 155.76 21.82 161-3 248.63-15.98 311-99 30.47-40.56 18.83-90.81 11.24-140.01-28.24-182.99-13.24-236.99 15.76-265.99 28.02-28.02 57-21 106.22-8.1l57.78 18.1 41.41-77.8 37.62-65.48-36.33-18.79c-50.99-26.36-138.86-31.67-213.2-12.87zm-1149.13 112.37c-35.12 76.9-217.16 351.37-288.18 434.49-30.8 36.05-46.84 63.08-42.19 63.08 4.64 0 79.17 13.73 172.23 27.5 75.71 11.2 182.09 30.14 183.77 29.5 2.03-.78 52-93 84-146 .57-.95-130.38-17.41-151.86-17.41 36.29-56.57 52.46-84.79 55.86-85.59 2.74-.64 106.69 10.97 129.11 11.77l41.8-65.34c22.99-35.93 51.09-72.78 51.09-76.43l-138-8c15.6-36.82 58.94-87.3 62-89 2.97-1.64 37.51-.35 73.2 2.53l85.12 6.86c13.32-20.35 86.73-138.36 83.68-141.39-3.05-3.05-94.96-2.36-194-6l-175-9zm468.29-31.81c0 13.58-11.66 47.6-25.91 75.62-44.81 88.07-337.67 516.63-334.75 516.76 2.9.13 177.68 18.23 212.52 20.35 8.73-17.97 118.95-211.88 132.26-232.68l62.21 2.07c134.07 4.46 271.01-58.01 323.82-147.74 38.92-66.13 39.66-148.66 1.72-192.77-35.14-40.85-138.04-65.85-272.05-66.11-92.46-.17-99.82 1.64-99.82 24.5zm228.34 143.38c20.2 25.04-.85 73.81-53 99-27.7 13.38-107.46 6.62-106 4 5-9 67.83-123.76 71-125 2.8-1.09 74.92 5.78 88 22zm982.08-65.29c-16.26 20.58-39.08 79.29-48.94 102.3-.45 1.05 120.62-11.16 121.86-12.01 2.6-1.79 52.88-105 50-105-4 0-122.09 13.66-122.92 14.71zm1204.71 545.08c228.86 39.87 318.78 81.32 319.03 147.08.13 32.02-9.7 46.29-56.42 81.97-91.01 69.5-199.6 97.14-378.98 96.51-170.17-.59-280.39-26.31-397.13-92.68-66.74-37.94-195.71-155.07-195.71-177.73 0-16.23 20.39-21.2 199.63-48.72 183.12-28.13 371.38-30.51 509.58-6.43z" fill="url(#d)" stroke="url(#e)"/><path d="M6064.08 4637.89c-3.24 3.43-96.21 10.12-206.59 14.88-110.38 4.74-203.69 10.48-207.33 12.74-3.66 2.27-51.47 7.21-106.25 11.01-54.78 3.79-171.32 20.29-258.97 36.69-167.85 31.39-203.91 37.27-525.33 85.63-365.26 54.96-619.58 86.89-956.22 120.07-215.44 21.23-954.18 21.2-1121.5-.06-237.31-30.15-472.09-83.03-643.38-144.93-141.08-50.99-133.78-50-123.8-16.84 20.91 69.42 764.16 1829.88 2760.3 1833.92 1976 4 2764.7-1607.1 2754.79-1633.63-5.02-13.44-155.88-95.11-250.14-135.44-185.13-79.2-488.76-152.38-698.36-168.29-165.73-12.59-411.43-21.87-417.22-15.75z" fill="url(#f)" stroke="#00f"/></g></svg>