<svg height="551" viewBox="22 10.622 756 155.621" width="2500" xmlns="http://www.w3.org/2000/svg"><path d="m770.324 152.622h-79.324c-10.25 0-10-11.507-10-13.257v-8.743h72c2.833 0 25-1.417 25-24s-21-25-25-25h-62c-7.91 0-13.094 2.851-16.5 6.792-3.406-3.941-8.59-6.985-16.5-6.985-8.632 0-14.164 3.515-17.715 7.989-3.725-4.479-9.461-8.038-18.285-8.038-9.105 0-14.93 3.57-18.642 8.101-3.723-4.521-9.476-8.113-18.358-8.113-22.583 0-25 21.996-25 25.996v32c0 1.75.25 13.257-10 13.257h-62c-10.25 0-10-11.507-10-13.257v-50c0-1.75-.417-25.743-23-25.743h-49c-22.583 0-23 23.993-23 25.743v34.257h-23.839c-3.59 0-6.24 2.911-6.24 6.5s2.478 6.5 6.068 6.5h24.011v23.124c0 3.59 2.91 6.24 6.5 6.24 3.588 0 6.5-2.52 6.5-6.111v-23.51l24-.008c3-.084 6.123-2.827 6.123-6.364 0-3.588-2.48-6.371-6.071-6.371h-24.052v-34.256c0-1.75-.25-12.743 10-12.743h49c10.25 0 10 10.993 10 12.743v50c0 1.724.42 25.25 22 25.966v.291h64v-.291c21.58-.716 22-24.242 22-25.966v-32c0-1.75 1.75-13 12-13s12 11.25 12 13v53.257h.031c.313 3 3.089 5.621 6.469 5.621 3.422 0 6.222-2.621 6.475-5.621h.025v-53.257c0-1.75 1.75-13 12-13s12 11.25 12 13v53.257h.031c.313 3 3.089 5.621 6.469 5.621 3.422 0 6.222-2.621 6.475-5.621h.025v-53.257c0-1.75.75-13 11-13s10 11.25 10 13v32c0 1.724.42 25.25 22 25.966v.291h80.195c3.59 0 6.24-2.91 6.24-6.5.001-3.588-2.519-6.5-6.111-6.5zm-79.324-58h62c1.75 0 12 1.75 12 12s-10.25 11-12 11h-72v-10.257c0-1.75-.25-12.743 10-12.743z"/><path d="m352 107.746c0 3.59 2.91 6.24 6.5 6.24 3.588 0 6.5-2.52 6.5-6.111v-1.51c0-1.75-.417-23.743-23-23.743h-62c-7.911 0-13.094 2.979-16.5 6.921-3.406-3.941-8.589-6.921-16.5-6.921h-33.017c8.529-10 14.017-22.016 14.017-31 0-16.149-17.72-41-39-41h-129c-21.28 0-38 20.594-38 36.743v112.381c0 3.59 2.91 6.24 6.5 6.24 3.588 0 6.5-2.52 6.5-6.111v-64.253h127.744c-2.639 6-2.744 11.898-2.744 12.743v31c0 1.724.42 25.25 22 25.966v.291h88v-57.726c.013-2.725.429-12.274 10-12.274h62c9.571 0 9.987 7.807 10 10.3zm-317-60.381c0-10.625 11-23.743 25-23.743h129c14 0 26 17.375 26 28s-12 31-26 31h-154zm148 48.257h64c8.22 0 9.686 7.231 9.945 11-.259 3.769-1.725 11-9.945 11h-74v-9.257c0-1.75-.25-12.743 10-12.743zm0 57c-10.25 0-10-11.507-10-13.257v-8.743h74c3.989 0 7.274-1.024 10-2.28v24.28zm367-8h-62a2 2 0 0 1 0-4h62a2 2 0 0 1 0 4z"/></svg>