<svg clip-rule="evenodd" fill-rule="evenodd" stroke-linejoin="round" stroke-miterlimit="2" viewBox="-0.7760000000000105 0 291.086 299.612" xmlns="http://www.w3.org/2000/svg" width="2435" height="2500"><ellipse cx="144.767" cy="149.806" fill="#00c1ff" rx="145.543" ry="149.806" transform="matrix(.99734 0 0 .99952 .773 .143)"/><path d="M250.393 187.905l-13.766 17.11c-2.682 2.822-6.777 3.688-10.32 2.184l-41.308-21.9a1.25 1.25 0 0 0-.28-.172c.086-.06.181-.11.28-.145l35.07-19.427c3.649-2.015 11.01-2.015 14.67 0l3.827 2.106c4.797 2.632 11.137 7.897 13.586 11.239 1.033 1.436.882 5.752-1.76 9.03m-57.867 72.024c-2.607 2.758-6.626 3.554-10.038 1.988l-1.786-1.015-6.737-3.856a4.336 4.336 0 0 1-1.019-.712c.298-.288.623-.549.968-.774l45.402-28.893zm-79.667 6.962c-5.42-.432-10.5-2.913-14.262-6.962L86.21 244.567a3.897 3.897 0 0 1-.945-3.081 3.609 3.609 0 0 1 2.003-2.434l8.24-4.58a15.548 15.548 0 0 1 7.17-1.554 15.73 15.73 0 0 1 7.386 1.646l56.947 32.352zm-60.43-64.35l37.519 20.77.523.289a2.93 2.93 0 0 1-.471.277l-8.23 4.553a7.436 7.436 0 0 1-3.583.843c-2.483.046-4.874-.998-6.572-2.87zm-11.99-25.732l24.773-34.115c2.409-2.839 6.34-3.767 9.707-2.292l20.654 10.965.306.172a1.798 1.798 0 0 1-.306.184l-47.609 26.496a19.932 19.932 0 0 1-8.929 2.499 3.77 3.77 0 0 1-.561 0 11.154 11.154 0 0 1 1.926-3.949m38.59-52.99l18.867-25.996c1.554-1.917 3.868-3.01 6.29-2.974a6.8 6.8 0 0 1 3.29.778l17.044 9.37 27.428 15.071a.089.089 0 0 1 .077 0c.153 0 .28.17.383.223-.135.096-.275.18-.422.252l-36.129 20.018a16.834 16.834 0 0 1-7.652 1.633 16.471 16.471 0 0 1-7.221-1.475L80.265 129.7a3.989 3.989 0 0 1-2.17-2.631 4.211 4.211 0 0 1 .894-3.265m32.746-44.606c12.758-16.598 28.475-35.539 34.151-40.355 3.42 2.487 10.69 10.147 16.928 18.019a3.719 3.719 0 0 1 .945 3.078 3.818 3.818 0 0 1-2.002 2.462l-39.905 21.875c-3.61 1.108-8.407.99-10.525-.158a1.534 1.534 0 0 1-.841-1.13 5.004 5.004 0 0 1 1.276-3.791m78.596 14.701a3.96 3.96 0 0 1 .938 2.567c0 1.524-.868 2.913-2.215 3.541l-16.966 9.37c-3.635 2.03-10.983 2.03-14.646 0L130.016 94.32a3.502 3.502 0 0 1-.433-.249l.433-.263 37.316-20.73c3.286-1.494 7.158-.612 9.528 2.171zm40.669 55.927l-10.945-6.03-42.417-23.268s-.282-.172-.383-.252c.133-.097.275-.186.42-.262l16.94-9.385c3.298-1.468 7.161-.59 9.556 2.171l26.892 37.04zm-59.155 26.165a15.993 15.993 0 0 1-7.258-1.526l-43.285-22.969-.241-.17c.103-.037.203-.09.293-.158l36.127-19.98c3.649-2 11.01-2.027 14.684 0l42.48 23.35c.117.041.23.097.331.172l-.433.263-35.069 19.413a16.69 16.69 0 0 1-7.654 1.645m42.545 38.382l.828.54a4.756 4.756 0 0 1-.803.619l-46.652 29.746c-3.38 2.157-10.422 2.33-13.906.328l-38.182-21.665a4.501 4.501 0 0 1-.561-.342l.561-.342 49.115-27.153c3.674-2.029 11.164-2.08 14.849-.132l15.309 8.135 19.39 10.28zm-160.917-25.01a1.963 1.963 0 0 1-.447-.235l.485-.304 47.634-26.483c3.649-2.038 11.163-2.105 14.837-.144l43.296 22.983c.102.037.197.09.282.156a.712.712 0 0 0-.282.158l-49.112 27.14c-3.676 2.041-11.035 2.041-14.684 0zm208.04-17.768a52.4 52.4 0 0 0-8.928-8.884c0-3.462-2.26-6.58-3.254-7.976l-35.859-49.214c-2.672-3.585-6.47-6.103-10.741-7.12.505-4.21-.6-8.46-3.077-11.846l-13.509-18.599c-2.679-3.62-6.502-6.161-10.805-7.185.38-4.191-.875-8.37-3.482-11.61-18.333-23.007-24.354-23.007-26.319-23.007-2.767 0-8.049 0-42.965 45.527-2.607 3.312-3.921 7.51-3.687 11.768-4.134 1.1-7.796 3.6-10.397 7.094L69.6 116.58c-2.447 3.35-3.543 7.548-3.063 11.714-4.249 1.054-8.022 3.576-10.69 7.145L31.073 169.57c-3.52 4.845-5.002 10.227-4.043 14.701.212.952.55 1.871 1.008 2.725-.23 3.7 2.384 7.03 3.647 8.596l30.885 38.458c2.86 3.453 6.75 5.834 11.06 6.767-.311 4.149.977 8.263 3.586 11.439l12.361 15.4c5.972 6.817 14.357 10.875 23.256 11.252h65.38c5.995 0 8.764-2.052 10.039-4.305 5.099-.465 9.832-2.948 13.204-6.922l29.585-36.788c2.219-2.75 5.536-7.62 5.994-12.228a19.632 19.632 0 0 0 8.547-5.936l13.74-17.112c5.766-7.16 6.684-17.689 2.13-23.967" fill="#fff" fill-rule="nonzero"/></svg>