<svg height="2500" width="2500" xmlns="http://www.w3.org/2000/svg" viewBox="0 0 1000 1000"><path d="M0 0h1000v1000H0V0z" fill="#fefefe"/><path d="M814.563 530.5c2.87.589 3.637 1.235 5.437 3.5 2.71 11.985-4.107 27.067-9.188 37.5-1.765 4.009-2.493 7.077-1.812 11.5 1.796 2.753 3.053 4.526 6 6 .637 10.61-2.404 20.86-6 30.75-.843 2.739-1.347 5.25-1.813 8.063-1.503 7.797-5.182 13.972-11.187 19.187-3.284 2.19-4.172 2.233-7.965 2.16l-2.924-.033-3.048-.064a1272.74 1272.74 0 0 0-5.965-.09l-2.672-.055c-2.319.078-4.192.504-6.426 1.082-3.268.2-6.54.139-9.813.125l-2.54.012c-4.615-.007-9.216-.099-13.823-.365-19.718-1.105-39.458-.908-59.2-.888-5.456.004-10.912.003-16.369.002-9.428 0-18.856.003-28.284.008-13.631.008-27.262.011-40.893.012-22.122.002-44.243.01-66.365.019-21.475.009-42.95.016-64.425.02h-2.01l-21.97.005c-55.102.01-110.205.028-165.308.05v-2l-1.723.035c-4.884.057-9.462-.215-14.277-1.035l-1-3 4-1-1-3-16-1v-2h-28l1-3h432v2l3.176-.105c1.379-.029 2.758-.056 4.136-.083l2.092-.076c2.022-.029 2.022-.029 5.596.264l3 3-29 1c1.714 1.714 4.004 1.23 6.348 1.316l3.271.127 3.443.12 3.456.13c2.827.107 5.654.209 8.482.307l-1 3h18v2c5.854-.07 11.707-.157 17.56-.262 1.989-.034 3.978-.062 5.968-.084 2.867-.034 5.734-.086 8.6-.142l2.675-.02c5.505-.13 9.257-1.068 14.197-3.492a205.252 205.252 0 0 1 7.687-1.875c14.678-3.292 14.678-3.292 25.13-13.355C765 625 765 625 768 623c.997-3.354 1.1-6.517 1-10h2l.5-3.5c1.749-7.455 4.62-15.503 9.5-21.5 2.433-1.444 4.555-2.553 7.125-3.625 3.695-1.598 6.178-3.017 8.06-6.682 2.311-6.393 3.612-13.017 4.815-19.693 1.042-5.668 2.109-10.979 4.375-16.313.4-.965.8-1.93 1.21-2.925 3.815-7.45 3.815-7.45 7.977-8.262z" fill="#fe7709"/><path d="M430 298c3.946 1.812 6.114 4.103 9 7.375 5.768 6.453 11.842 12.547 18 18.625l5 5 1.773 1.738c2.822 2.774 5.527 5.578 8.07 8.61 5.737 6.595 12.072 12.634 18.282 18.777 2.506 2.479 5.008 4.961 7.508 7.445l1.711 1.686c3.447 3.426 6.575 6.986 9.656 10.744 1.71 1.599 1.71 1.599 3.375 2.875 3.254 2.701 5.916 5.672 8.648 8.89 3.784 4.278 7.904 8.236 11.977 12.235l-1.164-1.61-1.461-2.14-1.477-2.11c-.898-2.14-.898-2.14-.285-4.16 1.56-2.226 3.244-4.03 5.2-5.918l2.019-1.964L538 382c3.642-3.583 7.125-7.286 10.563-11.063 4.7-5.138 9.53-10.115 14.515-14.978 2.556-2.51 4.868-5.02 6.922-7.959 4.348 1.657 7.094 4.91 10.25 8.188 3.314 3.421 6.63 6.75 10.266 9.832 7.382 6.369 14.077 13.52 20.93 20.446 9.041 9.171 9.041 9.171 18.595 17.798 5.039 4.466 9.67 9.4 14.396 14.193 5.17 5.238 10.34 10.395 16.004 15.106C662 435 662 435 664 438c-3.648-1.55-6.078-3.782-8.937-6.5-4.644-4.302-9.45-8.209-14.497-12.023a174.576 174.576 0 0 1-9.914-8.067c-1.899-1.62-3.86-3.14-5.84-4.66-4.192-3.23-8.256-6.596-12.31-9.996a458.128 458.128 0 0 0-9.19-7.504c-4.706-3.744-9.356-7.553-14-11.375l-2.16-1.776c-3.972-3.274-7.887-6.59-11.718-10.028-1.403-1.27-1.403-1.27-3.434-1.071a6045.854 6045.854 0 0 0-3.375 7.188l-.96 2.04c-1.286 2.744-2.545 5.469-3.657 8.288-1.397 3.443-3.081 6.734-4.758 10.046l-1.071 2.131c-1.64 3.261-3.286 6.519-4.933 9.776-3.102 6.126-3.102 6.126-5.871 12.406-1.49 3.386-3.245 6.113-5.375 9.125-3.067-1.362-5.118-2.897-7.437-5.313l-1.684-1.738L531 417l-3.391-3.392c-3.592-3.59-7.173-7.191-10.758-10.789-9.287-9.32-18.58-18.634-27.874-27.946-5.624-5.634-11.246-11.27-16.864-16.911a13307.27 13307.27 0 0 0-14.745-14.782 4817.11 4817.11 0 0 1-7.795-7.819 4191.525 4191.525 0 0 0-8.683-8.698l-2.607-2.629-2.387-2.379-2.073-2.078c-1.84-1.795-1.84-1.795-4.823-2.577l-.727 2.14c-1.482 3.33-3.37 5.764-5.648 8.61-4.02 5.099-7.842 10.303-11.562 15.625a901.808 901.808 0 0 1-13.265 18.446c-2.523 3.424-5.001 6.87-7.423 10.366-2.485 3.584-5.06 7.083-7.687 10.563-3.752 4.97-7.398 10.003-11.005 15.078A1529.218 1529.218 0 0 1 360 414c-4.049-1.82-7.613-4.361-11.25-6.875l-2.122-1.462c-7.088-4.922-13.965-10.11-20.843-15.319-4.217-3.175-8.505-6.255-12.785-9.344a4195.22 4195.22 0 0 1-5.187-3.75l-2.708-1.945a251.278 251.278 0 0 1-7.18-5.547l-2.153-1.693a252.78 252.78 0 0 1-4.202-3.38c-1.816-1.417-3.506-2.664-5.57-3.685-4.276.65-7.34 3.607-10.687 6.25l-1.681 1.317c-1.223.959-2.444 1.92-3.663 2.882-2.788 2.196-5.593 4.37-8.396 6.546-2.3 1.786-4.6 3.575-6.897 5.364a27508.101 27508.101 0 0 1-18.14 14.114c-1.513 1.175-3.024 2.351-4.536 3.527l-2.395 1.863-4.83 3.756-2.337 1.818-2.163 1.682a646309.83 646309.83 0 0 0-17.168 13.351c-6.863 5.335-13.674 10.676-20.107 16.53l-2-1c9.385-9.558 9.385-9.558 13.813-13.313 4.329-3.696 8.293-7.736 12.268-11.805 2.805-2.85 5.664-5.56 8.7-8.163 4.996-4.317 9.588-9.017 14.219-13.719 5.252-5.332 10.512-10.545 16.195-15.418 2.736-2.398 5.27-4.977 7.805-7.582 3.177-3.264 6.403-6.38 9.863-9.344 2.898-2.503 5.6-5.104 8.242-7.875.674-.704 1.348-1.407 2.041-2.133a470.62 470.62 0 0 0 4.118-4.39l2.029-2.102 1.798-1.912C284 340 284 340 286.565 340.191c3.27 1.087 5.38 2.83 8.06 4.996 1.147.913 2.295 1.823 3.445 2.731l1.892 1.498c3.785 2.942 7.668 5.754 11.538 8.584 5.547 4.067 11.065 8.16 16.5 12.375 4.65 3.606 9.371 7.09 14.145 10.531 5.36 3.931 10.603 8.02 15.855 12.094-3.509-4.184-7.08-8.196-11-12 1.524-3.755 3.773-5.808 6.813-8.438 5.484-4.77 10.534-9.909 15.636-15.082l4.645-4.684c1.07-1.08 2.137-2.16 3.203-3.244a1349.63 1349.63 0 0 1 4.652-4.697l2.792-2.823C387 340 387 340 389 340v-2h2l.669-1.692c1.756-3.045 3.99-4.91 6.628-7.234 6.903-6.175 13.43-12.688 19.953-19.262l3.45-3.462c2.769-2.78 5.535-5.565 8.3-8.35z" fill="#070707"/><path d="M220 431c63.139 0 63.139 0 76.133 11.68 4.806 5.972 6.626 11.637 6.555 19.257-.01 1.186-.01 1.186-.018 2.396-.237 5.86-1.426 9.619-5.62 13.913L295 480l-1.895 1.723c-13.808 11.446-31.998 10.567-48.918 10.402L226 492v51h-6V431z" fill="#fcfcfc"/><path d="M549.875 459.688l3.184-.05c8.286-.005 14.97.985 21.316 6.8l1.96 1.746c3.425 3.738 3.92 6.827 3.968 11.838l.05 3.68.026 3.962.051 4.071c.046 3.567.08 7.134.113 10.7.052 5.716.117 11.432.188 17.148.023 1.997.039 3.995.055 5.993l.04 3.66.03 3.235c-.024 2.523-.024 2.523 1.144 4.529 2.126.467 2.126.467 4.563.625l2.503.227L591 538v4c-10.826.622-10.826.622-15.187-1.687-1.994-2.544-2.299-4.18-2.813-7.313l-1.617 1.39c-10.325 8.504-19.183 10.562-32.307 9.83-8.15-.865-14.731-3.787-20.451-9.657-3.737-5.894-4.44-11.72-3.625-18.563 1.543-5.863 4.87-9.575 9.996-12.691 5.977-2.604 12.378-3.675 18.759-4.88 3.282-.627 6.542-1.342 9.808-2.054l3.367-.719c7.608-1.55 7.608-1.55 15.07-3.656.136-2.877.234-5.747.313-8.625l.126-2.45c.084-4.09-.025-7.012-2.584-10.323-6.341-5.778-11.606-6.075-19.855-5.977l-2.945-.035c-6.387.026-10.773.766-15.883 4.883-4.263 4.766-5.438 9.236-6.172 15.527h-6c-.646-6.786.144-10.49 4.223-15.988 7.454-8.437 15.852-9.357 26.652-9.324z" fill="#fbfbfb"/><path d="M771.887 468.563C780.712 477.81 780 488.517 780 501h-66c1.61 18.45 1.61 18.45 11 33 7.733 5.852 17.725 5.804 27 5 8.17-1.672 13.33-6.212 18-13 1.668-3.645 2.446-7.03 3-11h6c-.904 8.677-3.2 16.143-10 22-11.366 7.41-23.654 8.851-36.969 6.469-7.536-2.375-13.741-6.815-18.031-13.469-6.7-14.284-8.746-31.824-4.375-47.188 3.541-9.624 8.238-15.965 17.375-20.812 14.507-6.485 32.796-3.45 44.887 6.563z" fill="#f9f9f9"/><path d="M814.563 530.5c2.87.589 3.637 1.235 5.437 3.5 2.71 11.985-4.107 27.067-9.188 37.5-1.765 4.009-2.493 7.077-1.812 11.5 1.796 2.753 3.053 4.526 6 6 .639 10.644-2.402 20.97-6.063 30.875-1.12 3.732-1.536 7.251-1.937 11.125l-1-2-3.875.125c-2.18.07-2.18.07-4.125-.125l-2-2c-2.433-.462-2.433-.462-5.125-.625l-2.758-.227L786 626v2l-9 1-1-2c-2.586-.468-2.586-.468-5.563-.625l-3.066-.227L765 626l1.457-1.352c3.016-3.221 2.663-7.441 2.543-11.648h2l.5-3.5c1.749-7.455 4.62-15.503 9.5-21.5 2.433-1.444 4.555-2.553 7.125-3.625 3.695-1.598 6.178-3.017 8.06-6.682 2.311-6.393 3.612-13.017 4.815-19.693 1.042-5.668 2.109-10.979 4.375-16.313.4-.965.8-1.93 1.21-2.925 3.815-7.45 3.815-7.45 7.977-8.262z" fill="#c4c3c3"/><path d="M549.875 459.688l3.184-.05c8.286-.005 14.97.985 21.316 6.8l1.96 1.746c3.425 3.738 3.92 6.827 3.968 11.838l.05 3.68.026 3.962.051 4.071c.046 3.567.08 7.134.113 10.7.052 5.716.117 11.432.188 17.148.023 1.997.039 3.995.055 5.993l.04 3.66.03 3.235c-.024 2.523-.024 2.523 1.144 4.529 2.126.467 2.126.467 4.563.625l2.503.227L591 538v4c-10.826.622-10.826.622-15.187-1.687-1.994-2.544-2.299-4.18-2.813-7.313l-1.617 1.39c-10.325 8.504-19.183 10.562-32.307 9.83-8.15-.865-14.731-3.787-20.451-9.657-3.737-5.894-4.44-11.72-3.625-18.563 1.543-5.863 4.87-9.575 9.996-12.691 5.977-2.604 12.378-3.675 18.759-4.88 3.282-.627 6.542-1.342 9.808-2.054l3.367-.719c7.608-1.55 7.608-1.55 15.07-3.656.136-2.877.234-5.747.313-8.625l.126-2.45c.084-4.09-.025-7.012-2.584-10.323-6.341-5.778-11.606-6.075-19.855-5.977l-2.945-.035c-6.387.026-10.773.766-15.883 4.883-4.263 4.766-5.438 9.236-6.172 15.527h-6c-.646-6.786.144-10.49 4.223-15.988 7.454-8.437 15.852-9.357 26.652-9.324zm17.16 38.53c-5.997 1.476-11.971 2.81-18.07 3.798l-3.091.5a464 464 0 0 1-6.029.913c-7.43 1.173-13.08 3.376-17.923 9.54-2.15 4.738-1.705 10-.922 15.031 1.993 4.775 5.27 7.91 10 10 9.692 3.288 19.199 3.518 28.5-1.063 6.443-3.401 9.63-6.74 12.602-13.41 1.309-5.14 1.108-10.123 1.023-15.402l-.027-3.242c-.024-2.628-.057-5.255-.098-7.883-2.037 0-3.998.732-5.966 1.219z" fill="#191919"/><path d="M220 431c63.139 0 63.139 0 76.133 11.68 4.806 5.972 6.626 11.637 6.555 19.257-.01 1.186-.01 1.186-.018 2.396-.237 5.86-1.426 9.619-5.62 13.913L295 480l-1.895 1.723c-13.808 11.446-31.998 10.567-48.918 10.402L226 492v51h-6V431zm6 5v52l19.625.25 6.1.11c14.424.153 28.186-.965 39.275-11.36 5.415-7.033 5.7-14.436 5-23-1.493-5.897-4.915-9.366-9.844-12.75-5.82-3.374-12.102-5.382-18.833-5.364h-2.828c-1.46.009-1.46.009-2.948.016l-2.728.003c-3.356.006-6.713.02-10.069.033L226 436z" fill="#1a1a1a"/><path d="M771.887 468.563C780.712 477.81 780 488.517 780 501h-66c1.61 18.45 1.61 18.45 11 33 7.733 5.852 17.725 5.804 27 5 8.17-1.672 13.33-6.212 18-13 1.668-3.645 2.446-7.03 3-11h6c-.904 8.677-3.2 16.143-10 22-11.366 7.41-23.654 8.851-36.969 6.469-7.536-2.375-13.741-6.815-18.031-13.469-6.7-14.284-8.746-31.824-4.375-47.188 3.541-9.624 8.238-15.965 17.375-20.812 14.507-6.485 32.796-3.45 44.887 6.563zm-51.824 5.5l-1.653 1.91c-4.55 6.541-3.762 11.604-4.41 20.027h60c.394-13.188.394-13.188-5.906-23.918-3.259-2.56-6-4.269-10.094-5.082v-2c-4.494-1.498-8.916-1.348-13.625-1.438l-2.91-.138c-9.217-.144-15.499 3.61-21.402 10.639z" fill="#161616"/><path d="M380.941 458.844c8.28-.366 18.517.57 25.184 5.844 5.969 6.044 8.005 13.265 7.989 21.55v3.82l-.016 4.114a5640.945 5640.945 0 0 1-.029 15.307c-.01 3.774-.015 7.548-.02 11.322-.01 7.4-.028 14.8-.049 22.199-2 .043-4 .04-6 0-1.815-1.815-1.134-4.636-1.142-7.077l-.021-3.945-.006-2.123c-.007-2.19-.022-4.38-.041-6.571-.053-6.23-.1-12.459-.116-18.688-.01-3.808-.04-7.614-.081-11.422a433.92 433.92 0 0 1-.015-4.347c.002-2.035-.023-4.069-.048-6.103l-.018-3.504c-.624-3.926-2.076-6.115-4.512-9.22-1.958-1.471-1.958-1.471-4.063-2.312l-2.035-.926c-9.01-3.608-18.49-2.265-27.375 1.12-6.139 2.715-8.566 6.233-11.442 12.119-1.993 5.51-1.79 11.046-1.757 16.847l-.059 5.925c-.02 2.735-.019 5.47-.018 8.206-.003 4.825-.045 9.65-.083 14.476-.018 2.564-.028 5.129-.03 7.693l-.012 3.481-.001 3.078C355 542 355 542 354 543h-5v-82h6l1 10 2.937-3.25c6.319-6.306 13.264-8.203 22.004-8.906z" fill="#212121"/><path d="M486.063 462.25c2.152 1.383 2.152 1.383 3.937 2.75l3.125 2.125C495 469 495 469 495 472h2c1.898 4.017 2.244 7.202 2.227 11.626v1.953a937.183 937.183 0 0 1-.032 6.347l-.008 4.418c-.008 3.865-.028 7.73-.05 11.594-.02 3.949-.03 7.897-.04 11.845-.02 7.74-.055 15.478-.097 23.217h-6l-.011-2.414a4261.32 4261.32 0 0 0-.173-22.596c-.04-3.872-.072-7.744-.087-11.615-.015-3.742-.05-7.483-.097-11.224a436.326 436.326 0 0 1-.024-4.267C492.604 479.8 492.604 479.8 488 470a153.514 153.514 0 0 0-4-2l-1-2c-8.275-2.758-20.972-2.64-28.875 1.062-6.415 4.017-11.05 9.594-13.125 16.938-.47 4.527-.489 9.04-.512 13.59l-.054 3.938a1680.19 1680.19 0 0 0-.104 10.303c-.03 3.513-.076 7.025-.121 10.538-.086 6.877-.153 13.754-.209 20.631h-6v-82h6l1 11 1.938-2.688c9.252-11.187 30.537-13.317 43.125-7.062z" fill="#141414"/><path d="M632.008 458.844c7.859-.348 17.4.761 23.992 5.156v2l2.297.719c3.166 1.5 4.133 2.83 5.953 5.781l1.516 2.406c2.143 3.636 2.326 5.853 2.234 10.094h-6l-.41-1.977c-1.638-6.65-3.715-10.398-9.59-14.023-2.312-1.18-4.555-2.102-7-3v-2c-3.001.088-6 .195-9 .313l-2.543.068c-9.58.408-15.904 2.874-22.469 10.017-8.187 10.713-7.026 25.749-5.988 38.602 1.276 8.051 4.815 16.675 11.32 21.844 8.933 5.07 19.06 5.604 28.993 3.093 6.744-2.346 11.762-6.709 15.125-13 1.44-3.254 2.206-6.38 2.562-9.937h7c.628 6.883-3.405 12.404-7 18-4.808 5.628-11.366 9.235-18.562 10.75-1.478.113-2.958.191-4.438.25l-3.453.191c-9.927.312-18.424-.66-26.422-6.941-9.585-9.288-12.19-22.013-12.549-34.955-.072-13.768 2.18-24.673 11.674-35.045 6.632-6.301 13.984-7.723 22.758-8.406z" fill="#171717"/><path d="M814.563 530.5c2.87.589 3.637 1.235 5.437 3.5 2.71 11.985-4.107 27.067-9.188 37.5-1.765 4.03-2.566 7.058-1.812 11.5 1.496 2.2 3.202 4.023 5 6v3c-10.13-.428-20.033-.987-30-3 .998-2.575 1.575-3.77 4.043-5.109l2.367-.973c3.936-2.066 5.343-3.63 6.711-7.867a154.29 154.29 0 0 0 1.317-5.739l.693-2.857c1.089-4.566 2.006-9.156 2.88-13.767.762-3.859 1.82-7.369 3.364-11l1.21-2.926c3.815-7.45 3.815-7.45 7.977-8.262z" fill="#2d292b"/><path d="M251 562c22.892 0 22.892 0 29.375 6.313 2.15 3.554 2.2 5.59 1.625 9.687-2.485 4.97-4.871 7-10 9-3.14.342-6.221.285-9.375.188L254 587v21h-3v-46z" fill="#fafafa"/><path d="M683 431h6v112h-6V431z" fill="#242424"/><path d="M337.813 573.625l3.144-.148c3.043.523 3.043.523 5.91 2.183 3.443 5.391 2.655 10.91 2.445 17.153l-.068 3.833A659.054 659.054 0 0 1 349 606h4v2c-3.716.2-4.772.152-8-2l-1.875 1.5c-4.41 2.117-8.322 2.453-13.125 1.5-3.136-1.902-4.6-4.41-5.504-8.004-.34-3.803.351-5.794 2.629-8.808 5.064-3.639 11.87-4.176 17.875-5.188v-8c-2.645-1.322-4.678-1.097-7.625-1.063l-3.04.028L332 578l-3 7h-3c-.4-3.505-.154-4.774 1.875-7.75 3.24-3.43 5.318-3.477 9.938-3.625z" fill="#333"/><path d="M586 574v2l1.813.75c2.704 1.545 3.754 2.456 5.187 5.25v9h-24c1.175 9.175 1.175 9.175 4 13 4.537 1.512 9.023 1.936 13.375-.125 2.105-2.43 2.804-4.796 3.625-7.875h3c0 6.9 0 6.9-2.496 9.645-4.522 3.157-8.752 4.151-14.238 3.832-3.733-.786-5.137-2.38-7.266-5.477-3.488-6.395-4.065-13.194-2.496-20.273 1.049-3.225 2.35-5.54 4.433-8.227 4.849-2.375 9.76-1.804 15.063-1.5z" fill="#2c2c2c"/><path d="M321 461h6v82h-6v-82z" fill="#0d0d0d"/><path d="M809 612h1c-.623 6.44-1.64 12.676-3 19l-1-2-3.875.125c-2.18.07-2.18.07-4.125-.125l-2-2c-2.433-.462-2.433-.462-5.125-.625l-2.758-.227L786 626v2l-9 1-1-2c-2.586-.468-2.586-.468-5.563-.625l-3.066-.227L765 626l1.438-1.063c2.228-2.763 2.15-5.473 2.562-8.937 5.072.404 10.144.813 15.216 1.227 1.726.14 3.451.279 5.177.416 2.48.197 4.96.4 7.439.603l2.34.183c3.12.26 5.845.577 8.828 1.571z" fill="#d5b597"/><path d="M251 562c22.892 0 22.892 0 29.375 6.313 2.15 3.554 2.2 5.59 1.625 9.687-2.485 4.97-4.871 7-10 9-3.14.342-6.221.285-9.375.188L254 587v21h-3v-46zm3 3v20l8.125.188 2.524.082c4.867.054 8.12-.606 12.351-3.27 2.416-2.965 2.414-6.393 2.324-10.098-.505-2.966-1.936-4.196-4.324-5.902-2.766-.922-4.383-1.118-7.23-1.098l-2.193.008-2.765.028L254 565z" fill="#5c5c5c"/><path d="M708 574c3.063 1.563 3.063 1.563 5 4 .813 3.75.813 3.75 1 7h-2l-.875-2.938c-.767-3.169-.767-3.169-3.125-4.062a76.728 76.728 0 0 0-5-.188l-2.688-.042c-2.507.003-2.507.003-4.312 2.23-.584 2.457-.584 2.457 0 5 2.733 2.22 5.655 3.241 8.938 4.375 4.265 1.57 6.978 3.233 10.062 6.625.688 3.5.688 3.5 0 7-2.804 3.394-4.987 5.744-9.426 6.309-7.526.336-7.526.336-10.41-1.438-2.395-2.652-3.15-4.72-3.476-8.246L692 597h2l.813 2.875c.937 3.378.937 3.378 4.187 5.125 2.182.316 2.182.316 4.5.25l2.344.016c2.451-.139 2.451-.139 5.156-2.266.25-3.584.25-3.584 0-7l-2.668-.918c-12.36-4.458-12.36-4.458-15.332-9.082-.775-4.342-.502-6.214 1.875-9.938 4.388-2.896 8.008-2.953 13.125-2.062z" fill="#515151"/><path d="M581.035 575.523c3.522.855 5.395 1.907 7.965 4.477l1 9h-21c0-6.3.188-7.416 4.156-11.637 2.662-1.968 4.633-2.176 7.88-1.84z" fill="#f1f1f1"/><path d="M346 591c.627 7.997.627 7.997-1.875 12-3.52 3.313-6.232 3.404-10.922 3.344C331 606 331 606 328.375 603.875c-1.375-2.875-1.375-2.875-1.5-6C328 595 328 595 330.563 593.187 335.736 591.4 340.509 591 346 591z" fill="#f8f8f8"/><path d="M463 574c3.272 2.605 4.834 4.054 5.568 8.23l-.08 3.602-.049 3.916c-.041 1.355-.084 2.71-.127 4.064-.025 1.375-.047 2.75-.068 4.124A764.32 764.32 0 0 1 468 608h-3l-1-29c-2.848-.95-4.962-1.259-7.938-1.375l-2.59-.148c-3.59.76-4.477 2.515-6.472 5.523-.633 2.884-.633 2.884-.61 5.957l-.097 3.37-.043 3.485-.09 3.545c-.07 2.881-.123 5.761-.16 8.643h-2v-33h2v3l1.75-2c4.77-2.936 9.789-3.17 15.25-2z" fill="#444"/><path d="M218 634h141v1H248v2h16v1h-18v-2h-28v-2z" fill="#ff8929"/><path d="M516 565h3v9h7v4h-7l1 27 6 1v2l-3.875.188-2.18.105L518 608c-2.391-3.587-2.234-5.164-2.195-9.418l.02-3.799.05-3.97c.01-1.336.02-2.671.027-4.006.024-3.27.057-6.538.098-9.807h-5v-2h5v-10z" fill="#505050"/><path d="M273 564c3.306.245 4.29 1.277 6.75 3.625 1.95 2.524 2.28 3.559 2.813 6.875-.676 4.201-1.786 6.284-4.563 9.5-5.076 3.227-9.545 3.524-15.375 3.688L254 588l-1 19h-1v-41h1v19l8.625-.313 2.682-.075c4.872-.225 8.52-.84 12.693-3.612 1.242-3.725 1.684-7.138 1-11-1.44-2.392-3.003-4.003-5-6z" fill="#292929"/><path d="M637 574h3l1 3 1.563-1.5c3.244-1.996 5.7-1.716 9.437-1.5v3l-9 1-1 4-1 3a118.84 118.84 0 0 0-.316 5.324l-.127 3.115-.12 3.249-.13 3.283A2817.61 2817.61 0 0 0 640 608h-3v-34z" fill="#626262"/><path d="M395 575h3v33h-3v-33z" fill="#343434"/><path d="M642.776 637.886l3.665.016 3.955.01 4.167.026A4044.715 4044.715 0 0 1 669 638l-3.001 1.999v3h16v1h-18v-2l-2.08-.06c-3.098-.095-6.197-.205-9.295-.315l-3.273-.094-3.125-.117-2.889-.095C641 641 641 641 639 639c1-1 1-1 3.776-1.114z" fill="#ffbf8d"/><path d="M807 593h6c-.514 5.838-1.294 11.381-3 17l-2 1a101.168 101.168 0 0 0-2 6h-3c1.706-9.183 1.706-9.183 3.125-13.125 1.147-3.769 1.01-6.945.875-10.875z" fill="#cfcdce"/><path d="M708 574c3.063 1.563 3.063 1.563 5 4 .813 3.75.813 3.75 1 7h-2l-.875-2.938c-.767-3.169-.767-3.169-3.125-4.062a76.728 76.728 0 0 0-5-.188l-2.688-.042c-2.507.003-2.507.003-4.312 2.23-.417 2.458-.417 2.458 0 5 1.438 1.688 1.438 1.688 3 3v2c-4.875-1.75-4.875-1.75-6-4-.477-4.214-.432-6.324 1.875-9.938 4.388-2.896 8.008-2.953 13.125-2.062z" fill="#232323"/><path d="M321 431h6v16h-6v-16z" fill="#0f0f0f"/><path d="M444 575h2v3l2.375-1.5c4.674-1.934 8.64-1.766 13.625-1.5v1l-1.793.078c-5.257.377-8.384.98-12.207 4.922-1.314 2.627-1.213 4.726-1.316 7.664l-.127 3.399-.12 3.562-.13 3.586c-.107 2.93-.209 5.86-.307 8.789h-2v-33z" fill="#1b1b1b"/><path d="M586 574v2l1.813.75c2.704 1.545 3.754 2.456 5.187 5.25.245 3.017.174 5.98 0 9-3-2-3-2-3.555-4.059l-.32-2.379c-.736-3.751-.736-3.751-3.25-6.625-3.957-1.29-6.702-1.334-10.875-.937-2.46 1.338-2.46 1.338-4 3l-2-2c4.732-5.408 10.393-4.38 17-4z" fill="#444"/><path d="M381 346c0 3 0 3-1.17 4.517l-1.66 1.622-1.87 1.85-2.046 1.98-2.078 2.05a1763.218 1763.218 0 0 1-6.613 6.481 2421.294 2421.294 0 0 0-6.603 6.48 759.774 759.774 0 0 1-4.12 4.03l-1.88 1.851c-.55.535-1.098 1.07-1.663 1.622-1.534 1.602-1.534 1.602-2.297 4.517l-2-4 2.45-2.23 3.238-2.957 1.607-1.463A265.352 265.352 0 0 0 364 363l4.207-4.207 2.275-2.275z" fill="#252525"/><path d="M207 414v3l-2 2v3a97.31 97.31 0 0 1-6.5 5.25c-1.285.979-2.569 1.96-3.852 2.941l-1.895 1.446c-3.386 2.632-6.582 5.478-9.753 8.363l-2-1c5.191-5.287 10.407-10.446 16.04-15.262 3.478-3.083 6.713-6.414 9.96-9.738z" fill="#1d1d1d"/><path d="M262 639h2v2h27v3l-32 1v-2l4-1-1-3z" fill="#ffa155"/><path d="M338.125 573.938l3.32.027L344 574l1 2c-2 2-2 2-4.602 2.195l-3.023-.07-3.04-.055L332 578l-3 7h-3c-.4-3.505-.154-4.774 1.875-7.75 3.388-3.587 5.436-3.364 10.25-3.313z" fill="#545454"/><path d="M252 563h21l1 3-20-1v20h-1l-1-22z" fill="#424242"/><path d="M640 415c4.265 3.568 8.274 7.23 12.164 11.2 2.596 2.545 5.355 4.883 8.137 7.222C662 435 662 435 664 438c-3.676-1.557-6.121-3.825-9-6.563-5.696-5.28-11.706-9.89-18-14.437l3-2z" fill="#212121"/><path d="M764 626h12l1 3 9-1v-2h10v1l-14 3v2h-5l-1-4-2.117.07-2.758.055-2.742.07C766 628 766 628 764 626z" fill="#f3954b"/><path d="M327 593l3 1-2 3c.187 2.996.537 5.21 2.063 7.813 3.13 1.918 6.304 1.89 9.937 2.187v2c-8.498.891-8.498.891-11.777-1.055-2.63-2.82-3.531-5.459-3.66-9.195C325 595 325 595 327 593z" fill="#3a3a3a"/><path d="M347 589v12l-2 1 1-11-3.43.727c-1.481.3-2.963.6-4.445.898l-2.262.484c-1.939.385-3.901.646-5.863.891l-2-2c3.05-2.034 4.83-2.542 8.375-3.188l2.836-.542C342 588 342 588 347 589z" fill="#494949"/><path d="M814 589h1c.448 7.463-.657 14.894-3 22l-3 1v4h-2l1-10 2 1z" fill="#bdbcbc"/><path d="M590 596h3c-.24 7.18-.24 7.18-3.375 10.563-4.97 1.97-9.448 1.69-14.625.437l-1-2 2.047.105 2.703.082 2.672.106c3.09-.351 4.356-1.15 6.578-3.293 1.28-3.088 1.28-3.088 2-6z" fill="#5b5b5b"/><path d="M568 595l.75 1.625c1.723 3.273 3.619 6.744 6.25 9.375 1.515.232 3.038.412 4.563.563l2.503.253L584 607v2c-8.957.783-8.957.783-13-2.25-4.144-5.697-4.144-5.697-3.625-9.5z" fill="#2f2f2f"/><path d="M692 597h2l.875 2.813c1.012 3.285 1.012 3.285 3.125 6.187 2.425.582 2.425.582 5.125.688l2.758.199L708 607v2c-9.524.9-9.524.9-12.844-1.125-2.382-2.66-3.142-4.724-3.468-8.25z" fill="#343434"/><path d="M517 576h1l1 28 7 2v2h-8c-1.461-2.922-1.111-5.499-1.098-8.758l.005-2.01c.005-2.118.018-4.238.03-6.357A3916.611 3916.611 0 0 1 517 576z" fill="#1c1c1c"/><path d="M784 587l17 1v1l6 1v1c-7.9.28-15.247-.485-23-2v-2z" fill="#333031"/><path d="M252 566h1l.06 1.712c.095 2.555.205 5.109.315 7.663.03.89.062 1.779.094 2.695l.117 2.578.095 2.38c.159 2.202.159 2.202 2.319 3.972l-2 1-1 19h-1v-41z" fill="#090909"/><path d="M808 599h1c-.779 12.67-.779 12.67-3 18h-3c1.1-6.311 2.581-12.063 5-18z" fill="#ecebeb"/><path d="M347 381c1.648 1.04 1.648 1.04 3.375 2.625l1.84 1.672A247.816 247.816 0 0 1 359 392l-1 2c-2.15-1.62-4.295-3.246-6.438-4.875l-1.853-1.395c-4.596-3.503-4.596-3.503-5.709-5.73l3-1z" fill="#b8b8b8"/><path d="M638 575l1 4 3 1-.974 1.661c-1.195 2.724-1.341 4.793-1.44 7.76l-.117 3.106-.094 3.223-.117 3.27c-.094 2.66-.18 5.32-.258 7.98h-1v-32z" fill="#030303"/><path d="M344 576l4 2v20h-1v-9h-2l.035-2.082c.01-.901.018-1.802.027-2.73l.036-2.708c.012-2.614.012-2.614-1.098-5.48z" fill="#060606"/><path d="M569 579h2l-.938 3.438c-1.131 4.487-1.657 8.96-2.062 13.562h-2c-.354-6.518-.039-11.175 3-17z" fill="#212121"/><path d="M694 577h3l-.688 3.813c-.532 3.291-.532 3.291 1.125 6.062L699 588v2c-4.875-1.75-4.875-1.75-6-4-.233-6.533-.233-6.533 1-9z" fill="#1d1d1d"/><path d="M652 574v3a310.5 310.5 0 0 1-4.25 1.063l-2.39.597c-2.464.355-4.016.109-6.36-.66 4.514-3.523 7.283-4.457 13-4z" fill="#4d4d4d"/><path d="M570 348l3 1-14 14-2-1 2.082-2.047 2.73-2.703 2.708-2.672c2.032-2.112 3.798-4.186 5.48-6.578z" fill="#212121"/><path d="M567 499l-15 1c1-2 1-2 2.742-2.668l2.133-.52 2.117-.542c3.408-.458 5.207.863 8.008 2.73z" fill="#0c0c0c"/><path d="M699 588c1.481.281 2.96.575 4.438.875l2.496.492L708 590l1 2-1 2-10-3 1-3z" fill="#535353"/><path d="M340 590l2 2c-1.956.389-3.915.76-5.875 1.125l-3.305.633L330 594l-2-2c3.99-2.66 7.392-3.748 12-2z" fill="#5e5e5e"/><path d="M344 602l1 2h2c-1 2-1 2-3.563 3.188-4.257 1.006-7.148.552-11.437-.188v-1l2.117-.367 2.758-.508 2.742-.492c2.548-.463 2.548-.463 4.383-2.633z" fill="#545454"/><path d="M781 588l1 2 2 1a555.935 555.935 0 0 1-2.375 3.938l-1.336 2.214C779 599 779 599 777 600c.475-1.814.955-3.626 1.438-5.438l.808-3.058C780 589 780 589 781 588z" fill="#cacaca"/><path d="M273 564c2.634.376 4.072 1.052 6.25 2.625 2.361 3.204 2.049 5.492 1.75 9.375a116.664 116.664 0 0 1-3.438-5.438c-1.405-2.305-2.905-4.432-4.562-6.562z" fill="#141414"/><path d="M703.188 573.875l2.73.055L708 574l-1 3c-1.623.222-3.249.427-4.875.625l-2.742.352L697 578l-2-2c3.314-2.21 4.345-2.225 8.188-2.125z" fill="#646464"/><path d="M802 614l1 3h3l1-2 1 5-10-1 4-1v-4z" fill="#cfcccc"/><path d="M708 592c3.23.557 5.066 1.292 7 4 .188 2.688.188 2.688 0 5h-2l-.813-2.375c-1.035-2.906-1.035-2.906-4.187-4.625v-2z" fill="#1d1d1d"/><path d="M191 429l1 3-9 8-2-1z" fill="#6c6c6c"/><path d="M783 587l1 2c2.816.469 2.816.469 6.063.625l3.347.227L796 590v1c-9.41 1.517-9.41 1.517-14-1l1-3z" fill="#b7b5b6"/><path d="M590 580h2c1.203 2.405 1.1 3.95 1.063 6.625l-.028 2.477L593 591c-3-2-3-2-3.547-3.91-.191-2.027-.324-4.059-.453-6.09z" fill="#4e4e4e"/><path d="M331 577l-2 8h-3c-.366-4.517-.366-4.517 1.375-6.813C329 577 329 577 331 577z" fill="#313131"/><path d="M723 464l2 1-10 10c0-3 0-3 2.313-5.5L720 467l1.813-1.813z" fill="#3c3c3c"/><path d="M652 428c5.327 1.453 8.364 5.081 12 9-3.944 0-4.824-1.314-7.688-3.938l-2.449-2.214L652 429v-1z" fill="gray"/><path d="M366 468l2 1-9 9c0-3.956 1.405-5.109 4-8l3-2z" fill="#d1d1d1"/><path d="M773 608c.91 3.073 1.089 5.801 1 9l-5-1v-3h3l1-5z" fill="#ccc9ca"/><path d="M462 575v1l-1.793.113c-4.814.4-8.215.926-12.207 3.887l-2-2c5.373-3.394 9.87-3.327 16-3z" fill="#262626"/><path d="M806 609h1c.125 5.75.125 5.75-1 8h-3c.547-3.375 1.055-5.082 3-8z" fill="#f5f4f6"/><path d="M395 563h3v7h-3v-7z" fill="#3f3f3f"/><path d="M529 465c-1.583 4.274-4.506 6.265-8 9 1.31-3.93 3.25-9 8-9z" fill="#333"/><path d="M784 587h6v2h6v1c-8.571.143-8.571.143-12-1v-2z" fill="#393637"/><path d="M327 593l3 1-4 7h-1c-.125-2.875-.125-2.875 0-6z" fill="#1b1b1b"/><path d="M281 571h1c.125 3.375.125 3.375 0 7l-2 2h-2c.75-6.75.75-6.75 3-9z" fill="#3a3a3a"/><path d="M207 414v3l-2 2v3l-2 1v-2l-2-1z" fill="#353535"/><path d="M640 415l5 5-3 1-5-5 3-1z" fill="#393939"/><path d="M344 576l4 2-1 10-2-1 .098-5.957c-.015-2.246-.015-2.246-1.098-5.043z" fill="#2b2b2b"/><path d="M523 505l2 1-7 7-1-2z" fill="#2f2f2f"/><path d="M528 394c3.08 2.773 4.688 5.063 6 9-4.688-3.516-4.688-3.516-6-5v-4z" fill="#b2b2b2"/><path d="M583 576c2.313-.25 2.313-.25 5 0 1.813 2 1.813 2 3 4-3.908 0-5.116-1.506-8-4z" fill="#373737"/></svg>