<svg height="2500" viewBox="-153.024 -234.72 8302.22 8819.03" width="2426" xmlns="http://www.w3.org/2000/svg"><path d="m6590.823 1594.628c-782.795-239.526-1471.86 171.12-1625.839 958.89-34.307 177.212-35.057 357.116-6.475 531.66l-.75-.383c.367 1.525.75 2.667 1.142 3.809 9.9 58.14 22.116 115.872 38.082 172.47-.75 56.215-31.232 61.74-65.156 49.715-31.65-21.524-64.032-42.29-96.79-62.49-1.132-1.15-1.924-1.525-1.924-1.525v.367c-230.569-141.763-458.479-281.067-738.213-344.74-227.902-52.199-278.209-68.957-501.544-59.632-48.016-7.8-53.74-33.916-46.874-58.507 126.521-182.345 207.344-364.898 261.834-586.525 226.744-917.533-483.636-1805.517-1413.576-1855.457-895.625-48.757-1700.92 526.535-1876.606 1349.537-195.137 915.258 76.972 1514.75 948.598 2003.37 37.341 20.558 60.59 34.29 102.88 36.949-299.54 308.333-517.568 555.851-623.499 999.472-315.557 1328.197 617.792 2702.134 1974.937 3011.567 1356.396 309.466 2712.392-516.786 3028.375-1844.208 117.755-495.827 74.656-991.297-97.214-1433.385l1.95-.758s-84.248-180.67 74.68-118.139c56.791 25.525 115.464 47.99 176.463 66.29 782.811 240.11 1508.058-209.619 1662.029-997.372 153.195-787.387-393.323-1581.24-1176.51-1820.975" fill="#f9c331"/><path d="m6661.32 2112.597c-712.305-348.932-1455.859-101.763-1685.67 613.2-105.546 327.75-69.74 161.029-41.923 327.75l-.75-.35c.358 1.524.75 2.291 1.141 3.424 9.525 55.824-12.583 100.814 2.659 154.546-.767 53.932 4.575 68.781-28.966 57.357-30.474-20.608-62.123-40.207-93.748-59.665-1.15-.75-1.908-1.509-1.908-1.509v.35c-224.477-135.087-446.28-267.717-718.413-328.682-221.81-49.565-270.593-65.548-487.837-56.799-46.49-7.041-52.582-32.007-45.732-55.815 60.982-168.27 175.704-295.95 99.48-858.284-77.739-568.226-549.95-989.74-1328.962-989.74-728.688 0-1340.755 504.578-1507.3 1002.74-168.054 504.96-114.714 1303.013 549.568 1673.261 35.816 20.008 35.449 137.78 76.598 140.638-291.167 293.85-397.898 597.209-503.078 1040.83-316.308 1327.804 617.425 2702.083 1974.195 3011.183 1356.763 309.458 2734.883-565.576 3050.807-1893.014 117.789-495.828 54.516-948.207-112.022-1369.712l1.509-.767s-81.548-171.479 72.814-112.03c55.64 23.99 196.287-4.217 254.977 12.95 805.302 25.882 1162.776-472.213 1226.807-957.574 63.649-485.562-128.063-1047.496-754.245-1354.288" fill="#ffe640"/><path d="m2074.606 3716.32c43.832 49.165 27.808 144.062-22.483 166.17-91.097 39.799-149.779-37.749-157.012-46.34-4.566-21.141-8.766-51.249-11.441-70.665 14.483-21.916 51.065-81.948 122.33-84.223 25.132-1.158 47.64 12.375 68.606 35.058m163.496 22.649c-11.817-69.173-47.274-139.654-106.722-181.587-61.365-45.157-126.53-36.974-192.853-1.525-35.433 19.25-54.124 46.116-75.073 71.448l-12.958-73.73c-25.925 13.332-93.748 35.832-141.771 45.731 19.424 74.506 34.674 144.255 55.256 269.651 14.85 93.564 29.725 211.886 22.1 296.5 49.557-7.05 113.955-29.916 161.595-27.25-16.383-62.889-28.566-119.487-33.924-185.027 25.916 34.674 108.247 78.514 179.887 56.99 122.363-35.833 163.512-160.837 144.463-271.201" fill="#e2bb38"/><path d="m2100.514 3679.904c44.207 49.174 27.824 143.88-22.491 166.17-91.081 40.208-149.388-37.94-156.638-46.282-4.574-20.79-8.758-50.907-11.433-70.714 14.492-21.916 51.066-81.94 122.355-84.023 25.541-1.158 47.624 12.175 68.207 34.849m162.72 31.066c-11.8-68.957-47.232-139.671-106.305-181.412-61.373-45.157-126.538-36.582-193.236-1.141-34.675 18.307-53.74 45.74-74.69 71.473l-13.341-74.132c-25.525 13.167-92.998 35.824-141.388 45.54 19.441 74.515 34.69 144.438 55.265 269.635 15.25 93.764 29.35 212.102 21.724 296.683 49.916-7.016 113.947-30.082 161.97-27.232-16.765-62.882-28.582-119.489-34.298-184.653 26.69 34.299 109.005 78.506 180.27 56.598 122.321-35.816 163.095-160.82 144.03-271.36" fill="#00aacd"/><path d="m2243.435 3718.011c-9.917-62.481-41.924-126.121-96.04-163.462-38.115-28.607-77.372-33.74-118.546-23.833 34.69-4.774 68.99 2.284 101.756 26.5 54.115 37.915 86.13 101.947 96.064 163.487 17.14 100.247-19.442 212.669-129.98 245.051-1.525.384-2.667 1.159-4.192 1.159 6.867-.775 14.1-2.292 20.958-4.2 110.539-32.4 147.121-145.196 129.98-244.702" fill="#76c4e5"/><path d="m2383.306 3908.198c-75.081 22.69-95.672-48.007-104.056-68.59-7.616-20.766-13.708-133.196-12.19-207.303 1.532-102.739 16.007-246.601 19.815-295.775 0 0 119.68-10.475 136.071-12.183 0 0-12.966 170.537-21.349 280.292-9.533 121.772-8.375 160.454 16.016 197.045 9.525 15.241 31.624-1.533 51.049-8.583-3.425 14.116 1.908 46.507 1.15 56.973 0 0-44.582 46.116-86.506 58.124" fill="#e2bb38"/><path d="m2403.514 3876.19c-75.082 22.675-96.064-48.007-104.064-68.59-7.608-20.766-13.708-132.82-12.183-206.944 1.525-102.714 15.624-246.985 19.816-296.142 0 0 119.68-10.483 136.055-12.19 0 0-13.325 170.544-21.716 280.291-9.15 121.414-8.009 160.454 16.4 197.42 9.524 14.466 23.623 1.908 43.823-4.758 0 0 11.833 36.407 11.066 46.882-.025.008-47.282 52.032-89.197 64.031" fill="#9e5b96"/><path d="m2406.18 3326.255s-11.05 158.33-19.066 257.61c-8.008 109.597-2.283 183.72 19.441 217.46 7.617 11.984 31.633.734 49.532-5.95-13.708 4.984-27.816 8.6-33.907-.35-21.716-33.548-27.058-107.288-19.058-217.418 7.625-98.714 19.433-252.868 19.433-252.868-16.375 1.516-13.35 2.633-16.375 1.516" fill="#cfa5bb"/><path d="m2751.079 3681.437c-4.192 16.008-43.44 53.374-79.664 50.316-14.1-1.134-25.141-1.134-35.05-10.867-11.45-11.066-19.44-34.499-9.908-56.615 9.909-21.133 32.775-31.24 56.016-32.949 22.866-.767 53.356 12.558 61.365 20 8.4 7.833 10.29 18.699 7.241 30.115m134.905 161.412c0-17.157-1.134-55.281 1.916-92.447 3.042-61.907 8.383-93.547 19.808-159.496 13.733-83.639-3.808-156.254-77.748-202.536-40.774-26.699-81.956-30.515-135.671-27.449-60.607 3.983-144.83 53.549-144.83 53.549l25.917 58.506c3.041-1.141 14.5-5.55 28.582-10.116 17.925-6.291 39.266-12.191 52.232-13.333 30.874-4.192 48.015-3.417 72.781 11.816 34.308 20.2 50.69 68.59 48.024 90.898-45.732-42.516-89.556-43.824-150.913-30.874-24.39 5.133-79.664 32.399-119.296 76.048-20.958 23.824-50.299 86.289-36.216 139.854 14.5 50.699 43.082 81.948 93.373 95.83 15.25 5.934 24.39 7.45 41.173 6.317 15.242-1.15 31.25-4.591 46.874-10.108 40.007-15.258 73.548-45.357 89.556-68.415-1.533.967-6.867 61.757-6.475 85.581.008 0 111.297-5.541 150.913-3.625" fill="#e2bb38"/><path d="m2778.128 3635.897c-4.95 16.383-43.824 53.932-79.648 50.69-14.482-1.133-25.899-1.533-35.432-10.875-11.05-10.85-19.808-34.299-9.908-56.215 9.908-21.324 32.774-31.999 55.649-33.54 23.616-.35 53.723 12.59 61.356 20.399 9.133 7.833 10.675 18.691 7.983 29.54m128.055 174.946c0-17.158-.75-55.482 1.533-92.622 3.042-61.94 8.375-93.564 19.433-159.121 14.116-83.456-3.416-156.446-77.373-202.936-40.774-26.483-81.914-30.108-136.046-27.433-60.215 3.992-144.438 53.54-144.438 53.54l25.908 58.874c2.667-1.533 14.1-5.708 28.583-10.475 17.9-6.291 39.248-12 52.215-13.341 30.866-4.192 48.015-3.408 72.79 11.825 34.682 20.574 51.056 68.598 48.006 90.88-45.732-42.09-89.93-43.623-150.537-31.24-24.766 5.9-80.031 32.774-119.663 76.997-21.358 23.8-50.324 86.14-36.208 139.28 14.483 50.699 43.05 81.956 93.373 96.439 15.24 4.95 24.382 7.075 40.782 6.1 16-1.159 31.632-4.958 47.249-10.492 40.407-15.24 73.556-45.14 89.197-67.84-.783.767-6.508 61.932-6.1 85.365.009-.008 111.672-5.708 151.296-3.8" fill="#dd4050"/><path d="m2701.155 3350.83c48.774-2.675 85.756.733 123.089 24.582 66.314 41.724 82.314 107.84 69.748 183.112-9.9 58.882-14.85 87.456-17.533 143.696-2.275 29.158-1.908 59.248-1.533 77.165 5.733 0 11.45 0 15.632.366 0-15.983-.758-50.29 1.525-83.456 2.667-56.215 7.625-84.814 17.917-144.07 12.574-75.282-3.442-141.205-70.123-182.946-36.974-23.807-73.94-27.457-122.714-24.957-22.49 1.908-49.157 10.466-72.04 19.807 18.675-6.624 38.508-12.174 56.032-13.3" fill="#e68c9b"/><path d="m3354.762 3765.493c-14.474 76.215-61.356 158.154-129.204 190.162-72.007 33.557-169.587 12.791-238.186-11.433 5.35-34.691 13.35-45.916 19.45-71.665 64.415 17.158 124.996 25.75 170.737-.733 40.39-23.058 47.257-87.865 50.315-121.947-19.45 33.324-50.315 74.681-115.863 70.306-91.856-5.158-152.846-75.656-164.27-190.77-6.867-70.672 8.382-196.635 25.915-252.084 23.625 9.333 110.155 24.574 132.255 25.716-9.533 25.733-27.433 102.156-30.5 202.194-.758 23.441 7.25 50.699 20.592 71.832 11.8 17.916 35.44 32.407 57.557 30.29 57.531-4.174 65.906-52.965 75.822-92.814 1.525-14.457 1.917-40.573 1.525-70.673 0-64.798-22.499-162.745-22.499-162.745 42.682-8.558 133.013-28.766 133.013-28.766 9.533 32.008 27.833 110.705 28.216 186.37 0 79.648.367 147.296-14.875 226.76" fill="#e2bb38"/><path d="m3375.728 3734.244c-14.474 76.015-61.356 157.58-129.204 189.978-72.023 33.541-169.97 12.575-238.194-10.874 5.342-34.666 12.983-46.108 19.458-72.215 64.015 17.141 124.613 25.724 170.729-.767 40.015-23.066 47.257-88.23 49.915-121.746-19.058 33.14-50.682 75.622-116.239 71.83-92.605-5.124-153.195-76.214-165.012-190.944-6.474-71.073 8.767-196.653 26.291-252.076 24.016 9.325 110.13 24.55 132.238 25.724-9.133 25.716-27.057 102.306-30.474 202.17-.758 23.049 7.242 50.298 20.95 71.83 11.816 17.542 35.065 32.392 57.173 30.508 57.957-4.391 66.69-54.323 76.631-94.53 1.517-14.483 1.892-40.583 1.517-70.698 0-64.815-22.116-162.73-22.116-162.73 42.699-8.182 133.021-28.79 133.021-28.79 9.133 32.016 27.816 111.105 27.816 186.961-.008 79.623.758 146.705-14.5 226.37" fill="#00aacd"/><path d="m3375.728 3516.05c0-68.798-16.766-139.67-25.166-168.628l-15.982 5.5c8.39 28.79 25.157 100.247 25.524 169.02 0 71.281 0 132.254-13.716 204.102-12.958 68.607-55.64 142.338-116.63 171.287-1.9.775-3.825 1.534-5.717 2.317 7.633-1.942 14.874-4.575 22.108-7.825 60.606-29.15 103.288-103.08 116.246-171.695 13.708-71.831 13.708-132.255 13.333-204.078" fill="#76c4e5"/><path d="m3830.39 3870.849c-25.14-10.467-125.38-10.1-148.253-12.758 11.058-26.666 29.357-105.764 36.224-210.386 1.508-23.8-6.859-94.114-20.2-115.455-43.065-67.665-125.755 2.65-139.854 56.007-3.05 55.081-3.442 121.213-9.925 189.81-2.658 31.225.392 80.407.392 80.407-20.592.767-112.822-.75-161.97-1.525 19.815-76.973 33.14-146.73 31.998-273.259-1.141-94.122 1.142-213.436-6.083-293.459 49.149-1.524 105.205-10.108 141.004-17.549 5.334 61.957-9.541 163.904.75 199.336 23.258-48.382 62.115-94.706 129.572-89.372 96.055 7.433 166.179 106.147 175.703 225.235 6.475 75.265-10.308 205.244-29.357 262.968" fill="#e2bb38"/><path d="m3844.882 3836.366c-24.783-10.674-125.013-9.916-148.254-12.958 11.433-26.866 29.724-106.155 36.207-210.01 2.283-24.2-6.466-94.523-20.183-115.864-42.307-67.448-125.771 2.667-139.87 56.223-3.067 55.082-3.434 121.005-9.534 189.97-2.666 30.9.367 80.048.367 80.048-20.166.767-112.797-.367-161.97-1.533 19.449-76.981 33.548-146.721 32.407-273.634-1.15-93.564 1.141-193.595-6.1-274.018 49.174-1.525 105.172-9.724 140.621-17.15 5.708 61.757-9.525 144.43.383 179.52 23.625-48.04 62.499-94.338 129.963-88.822 95.664 7.242 166.162 106.147 175.687 225.036 6.867 75.323-10.291 205.244-29.724 263.192" fill="#9e5b96"/><path d="m3860.498 3569.774c-9.15-107.289-72.398-196.645-158.912-202.936-27.44-2.284-49.174 4.766-67.073 17.15 14.858-6.867 32.399-10.509 52.215-8.967 86.498 6.691 150.154 95.664 158.92 203.336 5.334 62.881-7.632 169.412-23.632 225.61a461.948 461.948 0 0 1 11.433 3.05c17.15-51.823 32.774-169.578 27.05-237.243" fill="#cfa5bb"/><path d="m4155.882 3652.863c-3.817 56.599-44.616 137.371-78.89 126.713-44.599-13.924-73.564-86.514-60.981-154.537 8.783-48.024 43.082-91.29 82.697-97.58 19.833-3.026 38.866 15.265 46.874 37.54 9.15 23.84 12.575 66.331 10.3 87.864m145.179-82.898c-5.316-41.732-20.583-73.573-51.832-106.33-76.59-81.74-207.31-76.231-285.834-.958-60.206 56.99-74.69 114.921-77.756 167.12-8.008 136.271 73.565 236.102 163.879 261.068 40.79 7.45 83.856-1.133 121.963-22.291 119.697-64.015 146.746-174.745 129.58-298.609" fill="#e2bb38"/><path d="m4183.69 3602.931c-3.8 56.974-44.974 137.396-78.507 127.105-44.965-13.916-73.923-86.54-61.348-154.737 8.758-48.007 43.057-91.065 82.69-97.198 19.815-3.625 38.49 15.058 47.265 37.366 8.383 23.458 12.574 66.306 9.9 87.464m136.47-65.548c-5.741-41.74-21.366-73.748-51.865-106.53-76.606-81.173-207.31-76.215-286.208-.75-60.224 56.981-74.707 114.73-77.748 167.32-7.625 136.221 73.94 235.693 163.887 260.668 41.149 7.808 83.84-.759 122.321-22.125 119.297-64.381 146.363-174.92 129.614-298.583" fill="#78b755"/><path d="m4305.653 3547.466c-4.95-37.732-18.667-66.298-46.874-96.389-54.874-58.507-141.396-67.081-209.611-33.932 65.548-24.958 142.896-13.35 194.003 40.582 28.183 29.724 41.907 58.873 46.857 96.43 15.258 111.647-8.75 211.503-116.997 269.268-3.058 1.892-6.083 3.425-9.9 5.133 8.767-3.25 17.142-7.05 25.916-11.816 107.856-57.732 131.838-157.587 116.606-269.276" fill="#c8d183"/><path d="m4573.187 3938.313c-54.507 12.192-107.847 12.55-166.537-14.682-33.166-15.25-76.606-60.582-85.356-151.096-13.725-133.205 45.715-281.85 73.531-334.074 22.5 14.483 107.114 42.132 129.205 48.032-14.466 23.824-56.782 116.613-73.548 215.727-12.208 69.923 7.6 138.913 86.897 114.33 39.266-11.624 68.215-99.089 77.365-147.496 14.108-69.348 12.975-165.012 12.975-165.012 41.898.367 129.963 4.175 130.704 4.175.375 31.266 4.967 92.223-6.466 166.745-15.641 99.464-65.565 237.244-178.77 263.351" fill="#e2bb38"/><path d="m4598.753 3911.83c-54.515 12.017-107.856 12.392-166.554-14.84-33.157-15.65-76.606-60.607-85.364-150.746-13.725-133.013 45.715-282.026 73.548-334.816 22.107 14.866 107.472 42.499 129.213 48.399-14.883 24.2-56.782 116.613-73.165 215.91-12.574 69.732 7.225 138.913 86.506 114.347 39.64-11.8 68.598-99.647 77.373-147.504 14.108-69.556 12.941-165.204 12.941-165.204 41.907 0 129.963 4.383 130.73 4.767.4 30.866 4.992 91.63-6.467 166.545-15.657 99.272-65.206 236.835-178.761 263.143" fill="#00aacd"/><path d="m4760.332 3651.146c9.908-67.29 5.724-122.338 5.724-150.37-1.166 0-17.54 2.675-16.774 2.675.375 28.207 4.566 83.28-5.367 150.37-14.466 89.74-59.44 213.778-161.57 237.61-3.825.784-7.625 1.542-11.441 2.3 9.9-1.141 18.674-3.05 28.207-4.974 101.756-23.816 147.13-147.863 161.22-237.61" fill="#76c4e5"/><path d="m4854.829 4055.71c-73.148-23.824-128.038-77.381-162.345-117.971l60.973-74.49c31.657 43.632 122.355 110.905 154.346 74.881 56.415-62.69-99.464-89.364-125.38-201.594-8.4-32.016 1.525-71.457 18.69-94.89 16.367-23.815 45.716-48.406 74.69-60.23 40.041-17.142 84.581-14.659 126.155-4.967 68.223 16.782 119.272 71.856 135.663 106.547-11.066 8.574-54.482 41.348-66.69 49.157-30.849-36.783-92.605-67.457-120.055-40.583-39.249 39.824 19.816 69.915 51.082 94.123 48.032 36.582 96.798 79.848 94.14 149.02-3.434 106.873-109.023 163.863-241.269 120.997" fill="#e2bb38"/><path d="m4874.278 4022.728c-73.922-24.208-128.038-77.756-162.362-118.155l60.982-74.323c31.65 43.832 121.972 110.897 153.962 75.081 56.432-62.49-99.072-88.98-124.988-201.811-8.391-32 1.533-71.056 18.675-94.889 15.99-23.433 45.348-48.399 74.323-60.023 40.415-17.533 84.614-14.867 126.53-5.134 67.814 16.75 118.913 71.832 135.279 106.89-10.675 8.216-54.082 40.99-66.69 49.181-30.89-36.59-92.23-67.848-119.655-40.965-39.657 40.173 19.808 70.306 50.682 94.122 48.424 36.566 96.797 80.39 94.54 149.004-3.842 106.93-108.656 163.896-241.278 121.022" fill="#dd4050"/><path d="m5002.742 3760.16c-28.241-21.541-81.981-48.799-46.124-84.814 1.133-.767 1.891-1.534 2.658-2.3-7.266 1.141-13.333 3.808-18.3 8.933-35.44 35.457 17.917 62.898 46.1 84.256 43.056 33.54 87.314 72.59 84.989 135.088-1.9 48.782-27.425 86.314-67.448 106.139 49.523-17.55 81.164-57.749 82.689-112.814 2.683-62.082-41.507-101.339-84.564-134.488" fill="#e68c9b"/><path d="m5429.563 3908.39s-123.088-16.775-147.496-17.542c22.85-41.349 51.074-90.506 111.297-74.123 41.532 11.267 39.624 57.757 36.2 91.664m125.754 68.232c5.366-38.49 13.733-73.373 5.733-110.73-22.466-100.04-59.44-138.922-155.112-161.23-126.513-28.382-270.951 84.248-294.217 227.528-14.091 92.805 11.425 187.344 100.614 227.535 82.69 37.532 228.302 14.491 277.859-21.124 6.45-4.217 1.891-11.258-1.542-18.3-5.733-10.116-14.874-33.182-17.158-43.64-2.3-8.55-15.633-3.242-23.65-3.6 0 0-81.555 8.158-128.42-3.458-23.242-6.275-42.324-19.058-53.74-33.925-10.292-12.55-14.475-34.865-13.725-47.257 57.573-.366 268.326 24.983 268.326 24.983 19.782 1.517 32.374-18.3 35.032-36.782" fill="#e2bb38"/><path d="m5454.346 3872.007s-123.489-16.766-147.505-17.925c23.625-40.957 51.05-90.697 111.272-73.747 41.966 10.874 39.683 57.731 36.233 91.672m125.771 76.406c5.708-38.682 13.692-73.356 5.308-111.288-22.099-99.473-59.056-138.938-154.32-160.646-126.93-28.574-271.376 84.24-294.225 227.552-14.508 92.406 11.04 186.92 99.83 227.144 83.456 37.349 228.669 14.283 278.217-21.166 6.475-4.167 1.942-10.858-1.533-17.9-5.316-10.091-14.858-33.549-17.15-44.199-2.283-8.208-15.257-2.683-23.632-3.441 0 0-81.54 8.575-128.055-3.417-23.64-6.308-42.665-19.274-54.107-33.732-9.9-12.4-14.483-35.066-13.708-47.449 57.165 0 267.926 24.95 267.926 24.95 20.2 1.9 32.766-18.483 35.45-36.408" fill="#78b755"/><path d="m5562.576 3937.364c4.575-34.691 12.191-65.915 4.575-100.231-20.191-89.948-53.749-125.38-139.496-145.196-27.441-6.292-55.282-4.767-82.331 2.275 21.74-3.992 43.849-3.425 65.565 1.133 86.122 19.816 119.671 55.457 139.854 145.588 7.242 33.932 0 65.181-4.933 99.847-1.908 11.45-8.017 23.441-17.166 29.34 1.158 0 1.916.41 1.916.41 17.9 1.14 29.366-16.784 32.016-33.166" fill="#c8d183"/><path d="m2522.044 3908.781c-96.064 2.283-173.804 14.466-190.945 33.166-15.25 16.35-34.29 30.09-35.057 52.765-.384 21.533 25.549 23.458 40.782 23.458 15.224 0 28.966-1.542 28.966-10.325 0-12.75-20.583-10.45-20.583-23.224 0-14.508 79.664-18.108 119.672-18.108 339.949-1.15 731.746 234.593 732.504 434.304.375 155.463-202.002 190.145-313.658 190.545-39.257 0-77.747-3.825-114.33-10.658-1.908-49.565-4.575-153.596-5.733-219.144 12.975-.392 24.4-.392 35.066-.392 82.706-.391 190.953 28.958 190.953 48.024 0 16.375-28.974 28.216-28.583 43.457 0 12.183 26.674 9.9 49.54 11.442 3.8.741 50.69-25.916 50.69-66.707-.408-54.115-68.23-118.547-290.033-118.147-3.066 0-6.1.375-9.15.375-2.283-61.398-11.441-157.795-46.115-157.795-28.59 0-36.974 106.347-39.257 165.428-124.622 18.283-235.144 68.607-235.144 118.156 0 41.123 89.181 144.046 232.852 206.544 2.667 45.732 11.433 77.381 52.582 77.381 28.966-.383 39.274-21.724 42.699-44.599 46.499 11.442 96.797 18.283 150.537 18.283 208.47-.75 376.173-112.03 375.79-265.26-.775-205.044-414.272-499.077-774.045-488.969m-56.032 509.544c0-35.057 108.23-48.798 208.47-54.132-.784 55.64-1.517 136.463-1.15 190.187-123.48-43.816-207.32-112.797-207.32-136.055m904.375-133.771c-35.424 0-36.19 142.154-37.34 193.978-2.276 118.905 15.24 132.271 46.873 132.271 27.832 0 37.749-3.45 35.074-102.139-4.2-187.894-17.158-224.502-44.607-224.11m18.291-53.74c78.123-.759 202.386-89.181 202.003-162.912 0-33.375-17.15-50.132-59.824-55.84-17.924-17.158-43.832-36.408-83.472-36.408-121.58.4-200.47 97.214-200.086 149.604 0 19.816 6.1 43.64 23.24 63.657.75 41.89 11.059 52.973 25.15 52.582 15.25 0 24.008-8.383 30.124-19.433 17.15 5.333 38.099 8.75 62.865 8.75m8.008-59.64c-17.891 0-33.157-2.267-45.749-6.675 34.316-38.482 118.172-112.23 158.954-112.23 27.058 0 31.616 21.357 31.616 29.54.008 48.79-100.98 88.99-144.82 89.365m5.74-131.113c-36.982 21.932-75.089 52.79-101.013 83.656-1.517-4.375-1.892-8.392-1.892-11.825 0-23.8 34.283-60.39 102.906-71.831m390.622 270.034c0-32.766-84.598-32.766-131.863-32.008-36.216 0-216.852 3.809-216.486 104.797 0 68.224 101.764 51.457 168.837 58.324 54.49 5.716 121.189 23.233 121.189 41.157 0 40.39-145.196 56.399-174.554 56.399-61.748.4-62.873-17.533-62.873-26.666-.383-9.192 9.9-24.408 33.157-24.408 22.875 0 70.515 28.974 102.89 28.974 32.79 0 60.223-14.491 60.223-28.974 0-27.058-108.997-40.016-142.147-40.016-35.065.392-85.764 14.5-85.764 67.465.392 27.441 44.966 92.214 171.129 91.84 124.246-.392 155.495-70.507 155.495-107.098-.383-88.806-84.222-98.714-157.395-104.805-54.132-4.975-113.58-7.242-113.189-19.441.375-40.374 271.734-10.267 271.351-65.54m206.561-74.706c-10.275 0-12.191 10.658-12.191 22.132 0 34.641 47.623 154.696 47.998 200.836 0 9.9-.741 27.05-7.991 28.958-11.833 3.033-111.28-178.728-153.212-182.545-42.683-2.3-65.165 179.137-65.165 224.102s7.991 75.073 41.165 75.073c49.54-.367 24-182.162 43.816-182.162 14.49 0 94.88 166.146 139.88 166.146 48.781-.375 77.347-71.257 77.347-117.772-.342-105.18-70.473-234.768-111.647-234.768m334.982 281.275c-17.14 0-113.946 21.333-120.03 15.25-6.466-5.333 5.367-60.974 17.533-64.799 12.217-4.2 88.056-3.024 99.88-3.824 35.033-1.884 28.95-49.132 7.217-51.066-11.041-1.141-79.647-1.141-83.089-7.583-4.192-6.133.775-37.757 8.383-40.807 15.633-6.466 119.288-9.533 127.28-11.441 12.974-3.417 22.49-10.275 25.907-21.35 3.075-11.033-36.182-56.04-84.956-50.69-83.489 9.158-190.92 8.4-190.92 35.832 0 25.916 50.666 35.45 51.816 42.682 1.142 6.867-6.85 33.558-9.541 41.55-3.442 9.15-38.858 11.799-41.54 36.207-.376 6.5 8.782 15.258 6.849 22.132-5.333 20.95-22.474 63.999-22.474 82.273 0 27.458 20.599 89.19 76.606 87.281 89.964-3.033 169.97-65.148 171.137-75.84 1.891-16.774-22.891-35.807-40.058-35.807m346.466-211.902c-48.415 2.666-141.805 105.938-196.67 176.061-3.441-7.241-5.725-14.09-5.725-20.59 0-29.716 55.257-117.764 65.949-139.48 11.033-23.65-1.542-53.34-14.892-43.09-26.266 21.749-109.738 118.554-109.372 209.26 0 20.591 5.742 46.099 17.15 69.332-18.691 60.24-64.398 195.136-62.882 276.7 1.15 42.682 43.824 83.848 69.348 78.506 9.55-1.908 11.825-57.156 24.8-94.522 17.883-54.473 46.857-153.187 57.173-195.886 4.15.742 9.133 1.525 14.075 1.525 101.764-.783 214.935-109.005 214.569-202.778-.367-93.714-55.999-116.188-73.523-115.038m-116.997 231.335c40.782-70.898 100.222-165.029 122.697-164.646 15.258 0 20.957 15.608 20.957 38.491.4 69.356-83.43 127.297-143.654 126.155" fill="#dd4050"/><path d="m6644.946 1441.05c-920.783-350.04-1828.966 69.747-2029.069 938.498-36.965 161.213-47.24 326.241-32.774 491.07-103.664-44.59-210.752-84.414-320.508-119.113-143.32-44.582-286.242-78.881-429.154-103.472 191.336-331.775 285.092-710.989 249.243-1100.47-97.93-1054.153-1110.936-1782.283-2262.687-1626.596-131.472 17.54-258.777 46.307-381.482 84.23-53.74 16.767-160.07 57.34-160.07 57.34-192.828 75.865-371.581 175.712-532.019 295l-1.533.384c-559.86 416.955-897.917 1070.17-834.269 1754.276 52.599 567.868 371.207 1040.813 834.269 1331.997 0 0 203.528 115.872 313.275 160.07-120.822 147.48-226.002 308.717-311.742 483.07l-1.533 1.517c-64.79 131.296-118.905 270.017-160.829 415.605-422.671 1471.101 538.136 3072.582 2146.066 3576.026 1608.297 503.828 3254.76-280.509 3677.773-1751.985 41.548-144.046 69.34-289.667 84.597-434.488 0 0 7.608-67.073 9.892-99.097 6.866-107.08 7.258-213.42 1.933-320.108-14.875-266.042-69.74-529.002-161.237-780.945 761.487 101.397 1437.21-312.133 1606.397-1047.087 199.711-868.393-384.148-1856.04-1304.539-2205.723m1003.072 1995.32c-143.662 739.588-856.343 1156.501-1591.522 931.658-102.156-31.258-198.928-73.173-289.659-124.264-72.406-20.582-81.931 19.825-75.848 60.607 171.904 358.615 255.735 759.546 230.96 1170.418-5.7 103.622-19.032 208.06-39.24 312.108-6.875 35.074-24.041 107.088-24.041 107.088-2.667 9.558-4.542 19.816-7.208 29.741-330.833 1302.647-1678.83 2096.125-3010.442 1770.651-933.724-227.144-1610.963-943.657-1819.066-1800.4l.375-2.275c-88.04-365.107-91.464-755.737 8.016-1145.243 36.2-143.705 85.74-280.9 145.188-411.622 35.074-72.023 70.131-131.488 102.914-180.429l1.533-3.824c29.716-44.033 57.165-79.257 81.165-106.54l79.272-81.18 152.08-156.046c26.674-27.44 22.474-67.298-8.767-88.614l-303.758-206.578s-25.15-18.266-33.924-23.232c-168.054-96.056-310.6-223.71-423.03-374.448-27.441-36.6-52.599-74.498-76.606-113.389 0 0-30.5-51.257-44.207-76.973-159.704-306.025-209.995-676.28-115.872-1059.879 35.457-145.212 89.564-282.992 158.545-411.038 0 0 12.958-21.525 18.675-32.016 128.821-227.535 306.441-423.43 514.894-575.3 0 0 37.74-28.392 56.023-40.958 350.64-236.493 778.245-351.207 1203.942-289.075 864.776 125.955 1393.77 933.549 1180.717 1803.808-48.023 195.528-129.571 377.698-237.052 541.193-1.525 19.258 8.384 36.774 43.066 43.066 15.624.383 31.249 1.525 47.265 2.275h7.608l-.375.775c153.204 8.175 307.167 30.507 461.53 67.84 349.115 85.572 662.398 239.743 929.173 443.804 36.583 17.916 73.182 20.583 75.815-36.382-84.58-241.069-109.739-503.078-59.432-759.763 144.063-739.18 857.11-1156.3 1591.906-931.266 734.796 224.494 1213.842 1006.548 1069.387 1745.702" fill="#932f7a"/><g stroke-linecap="round" stroke-width="86.929"><path d="m944.328 4678.836s1160.9 405.373 2988.553 405.373c1826.886 0 3004.94-405.373 3004.94-405.373v977.635s-973.452 405.386-3004.94 405.386c-2032.235 0-2988.553-405.386-2988.553-405.386z" fill="#932f7a"/><path d="m3332.438 5230.525a333849.572 333849.572 0 0 1 -155.072 645.014c55.984 4.194 111.633 7.242 168.029 9.524 3.05-28.548 6.092-57.136 9.135-86.094 32.392 1.535 64.406 3.04 96.386 4.59 2.289 28.965 4.95 57.925 7.244 87.226 55.643 1.905 111.628 4.207 166.88 5.729-44.583-219.48-88.412-438.918-132.967-659.123a116172.61 116172.61 0 0 1 -159.635-6.866zm76.596 114.28h1.898c10.292 120.803 20.578 242.325 30.857 362.703-25.512-.754-50.29-1.522-75.816-3.057 14.48-119.987 28.581-239.995 43.06-359.646zm283.843-101.328c38.86.794 77.7 1.554 116.56 1.554 53.307 124.552 106.29 248.404 159.247 372.592.391-.76 1.165-1.542 1.924-2.289-3.063-123.434-6.119-246.505-8.764-369.549 51.435 0 102.863-.767 154.682-1.535-2.282 218.287-4.947 436.594-7.62 654.531-38.113.76-75.419.762-113.142.762-55.259-126.107-109.75-253.38-164.234-380.994-.762.774-1.137 1.528-1.907 2.303 3.81 126.065 7.244 252.577 11.06 378.691-51.81 0-103.61-.762-155.435-2.297 2.29-217.93 4.962-435.455 7.627-653.77zm938.393-19.051c-2.29 218.293-4.948 436.608-7.627 654.908-37.333 2.296-75.446 4.188-113.176 6.49-54.484-124.208-109.34-249.164-163.816-374.127-.762.768-1.132 1.522-1.899 1.522 3.803 126.47 7.243 252.973 11.053 379.457-51.819 1.912-103.65 3.44-155.469 4.578 2.673-218.712 4.954-436.622 7.62-654.531 38.874-1.508 77.741-2.268 116.972-3.803 52.949 122.269 105.536 243.832 158.478 364.97.762-.37 1.522-1.13 1.92-1.513-2.679-123.441-5.716-246.15-8.765-369.55 51.819-2.31 103.247-4.961 154.709-8.401zm428.994-33.522c-.37 43.068-.753 86.876-1.123 130.307-54.889 5.31-110.114 10.258-164.62 14.459l-1.505 121.92c51.826-4.564 104.028-9.142 155.812-14.096-.37 43.048-1.157 86.492-1.54 129.916-51.792 4.961-103.996 9.903-155.807 13.713-.384 48.009-1.15 96.017-1.541 143.272 54.888-4.578 109.374-9.526 164.605-15.254-.37 44.205-1.146 87.26-1.537 130.336-111.244 11.423-222.515 20.564-333.766 28.15 2.303-218.691 4.592-436.623 7.641-654.91 111.257-8.004 222.131-17.137 333.38-27.813zm-2377.445-12.562c56.41 6.475 112.805 11.814 169.173 17.139-1.15 78.858-1.91 157.711-2.671 236.974 28.198 2.289 56.383 4.948 84.95 7.613 1.138-79.256 1.9-157.725 2.667-236.96 56.396 4.577 112.414 9.148 168.81 12.958-2.665 217.924-4.954 436.217-7.613 653.791-56.02-3.81-112.407-8.01-168.434-12.95.762-94.12 1.91-187.869 3.041-281.954-28.568-2.302-57.122-4.961-84.943-7.627a34994.593 34994.593 0 0 0 -3.432 281.584c-56.382-4.954-112.779-11.054-169.162-16.783 2.673-218.3 4.955-436.252 7.614-653.785zm2631.571-15.637c-1.918 175.246-3.796 350.143-5.694 524.998 39.977-4.557 80.372-9.901 120.357-14.855-.37 43.06-1.136 86.896-1.527 130.334-96.374 12.553-192.755 23.998-289.162 33.9 2.273-218.705 4.57-437.019 7.619-655.34 56.012-5.297 112.41-12.178 168.408-19.037zm-2964.321-32.385c12.238.286 25.287 1.337 39.01 3.057 26.683 3.433 50.68 9.902 71.265 19.447 20.188 8.744 38.1 19.817 53.32 32.008 14.85 12.965 27.438 26.662 36.963 42.293 10.286 15.247 18.281 30.467 24.387 46.098 5.715 15.24 9.888 30.48 12.17 44.967 2.29 15.212 3.433 28.938 3.433 40.738-.383 12.204-.382 24.771-.382 36.969-56.37-6.49-112.369-13.725-167.99-20.962.375-22.469.375-45.35.761-68.175 0-3.81-.383-7.636-1.898-12.213-.762-4.55-2.295-9.127-5.338-13.711-2.666-4.2-6.469-7.613-11.43-11.443-4.954-3.036-11.423-5.326-19.81-6.463-10.677-1.145-19.435-.767-25.547 2.666-6.462 3.05-11.046 7.633-14.088 13.341-2.673 5.715-4.578 12.966-6.106 20.963-.761 7.613-1.133 16.007-1.133 24.004-1.15 97.148-2.288 193.556-3.431 290.698 0 3.056.383 7.625 1.144 13.738a57.312 57.312 0 0 0 5.715 19.015c2.666 6.106 6.853 11.438 12.184 16.762 6.099 4.961 13.342 8.389 22.853 9.156 9.916 1.522 17.927.766 23.635-3.037 5.331-3.823 9.908-8.394 12.957-15.254 2.666-6.098 4.57-12.958 5.324-20.927.762-8.01 1.145-15.636 1.145-23.256 0-18.29.385-36.58.385-54.842 56.389 7.579 112.393 14.452 168.379 20.537-.01 15.98-.383 31.227-.383 47.234-.384 28.555-5.337 54.828-13.698 79.237-9.14 24.381-22.483 44.575-40.005 60.967-17.522 16.37-39.607 28.204-66.27 35.81-25.923 7.627-57.164 8.388-92.982 3.824-36.97-4.96-68.594-14.492-94.887-28.978-26.266-14.466-47.605-32.003-64.764-53.342-17.144-21.339-29.705-45.719-37.695-73.156-7.613-27.815-11.437-57.15-11.047-88.39 1.137-79.236 1.899-158.494 2.666-237.73.376-18.289 1.898-36.571 5.324-54.093 3.05-16.775 8.765-33.53 16.008-48.756 7.223-15.233 16.37-28.958 27.787-41.162 11.43-12.177 24.78-22.106 41.555-30.11 16.35-7.996 35.022-13.321 56.367-15.994 10.481-1.34 21.91-1.82 34.149-1.535z" fill="#fff"/></g></svg>