<svg height="444" viewBox="0 0 151.6 26.91" width="2500" xmlns="http://www.w3.org/2000/svg"><g fill="#231815"><path d="m17.36 16.3h7.09v-10.63h15.59v6.34c0 .78-.63 1.42-1.42 1.42h-5.98v2.88h7.01c2.92-2.92 4.55-5.26 7.47-8.18v-6h-24.09l-5.67 5.67zm31.89-9.21h7.09v9.21h-7.09zm0-4.96h7.09v3.54h-7.09zm34.02 4.96h7.09v9.21h-7.09zm0-4.96h7.09v3.54h-7.09zm9.55 4.96v4.25h4.25v4.96h7.09v-4.96h3.54l3.55-4.25zm-34.36 4.96 4.25 4.25h9.92l-2.83-2.83h-4.25c-.78 0-1.42-.63-1.42-1.42v-2.13h9.92v7.8c0 .78-.63 1.42-1.42 1.42h-11.34l-2.83 2.83h17.01l5.67-5.67v-4.96l-4.25-4.25h-18.43zm84.52 1.37v-13.42h-7.08v9.92l7.08 6.38h3.55v-2.88zm-31.18-1.37 4.25 4.25h9.92l-2.83-2.83h-4.25c-.78 0-1.42-.63-1.42-1.42v-2.13h9.92v6.38h7.09v-4.96l-4.25-4.25h-18.43zm-97.63-4.61h-5.31v-5.31h-3.55v5.31h-5.31v3.54h5.31v5.32h3.55v-5.32h5.31z"/><path d="m30.64 11.64c-1.78 0-3.22 1.44-3.22 3.22s1.44 3.22 3.22 3.22 3.22-1.44 3.22-3.22-1.44-3.22-3.22-3.22zm0 4.62c-.77 0-1.4-.63-1.4-1.4s.63-1.4 1.4-1.4 1.4.63 1.4 1.4-.63 1.4-1.4 1.4zm117.74-4.62c-1.78 0-3.22 1.44-3.22 3.22s1.44 3.22 3.22 3.22 3.22-1.44 3.22-3.22-1.44-3.22-3.22-3.22zm0 4.62c-.77 0-1.4-.63-1.4-1.4s.63-1.4 1.4-1.4 1.4.63 1.4 1.4-.63 1.4-1.4 1.4zm-61.07 4.25h-6.98l-1.45 1.45h6.98v2.91c0 .32-.26.58-.58.58h-4.36l-1.45 1.45h6.98l2.33-2.33v-2.62c-.8 0-1.45-.65-1.45-1.45zm51.75 4.37c0 .32-.26.58-.58.58h-.29l-1.45 1.45h1.74l2.33-2.33v-4.07h-1.74v4.36z"/><path d="m130.9 20.51-2.29 2.29h2.32l.84-.84h3.24v1.16h-3.49v1.16h3.49v.58c0 .32-.26.58-.58.58h-4.36l-1.45 1.45h6.98l2.33-2.33v-4.07h-7zm-40.69 1.46h9.31v-1.46h-7.85zm0 1.89h6.4v1.02c0 .32-.26.58-.58.58h-4.36l-1.45 1.45h6.98l2.33-2.33v-1.89h-9.3v1.16z"/><path d="m106.41 23.99-1.64-.01 3.47-3.47h-6.69l-1.45 1.46h4.36l-3.49 3.49h-.58l-1.45 1.45h2.9l2.48-2.48 2.48 2.48h1.44v-1.45h-.36zm8.81-3.48h1.16v1.45h-1.16zm1.74 0h1.16v1.45h-1.16zm-2.32 1.46v-1.46h-4.36l-1.46 1.46zm-5.82.73v1.16h5.23v1.02c0 .32-.26.58-.58.58h-3.2l-1.45 1.45h5.82l2.33-2.33v-.73h1.16v-1.16h-9.3zm13.38-2.19h-2.04l-1.45 1.46h3.49zm-3.49 2.19h5.82v1.16h-5.82z"/><path d="m126.27 20.51v2.18h-1.16v2.18c0 .32-.26.58-.58.58h-4.36l-1.45 1.45h6.98l2.33-2.33v-4.07h-1.74zm-3.49 0h1.16v1.45h-1.16z"/><path d="m124.52 20.51h1.16v1.45h-1.16zm-18.11 3.48h-1.64l3.47-3.48h-6.69l-1.45 1.45h4.36l-3.49 3.49h-.58l-1.45 1.45h2.91l2.48-2.48 2.48 2.48h1.44v-1.45c-.3 0-.4-.03-.56-.19l-1.27-1.27zm42.71-3.22-4.82 4.83v-5.09h-2.91v6.4h3.13l5.37-5.37zm-60.36-1.71a1.451 1.451 0 0 0 0 2.9 1.451 1.451 0 0 0 0-2.9zm0 2.09c-.35 0-.63-.28-.63-.63s.28-.63.63-.63.63.28.63.63-.28.63-.63.63z"/><path d="m150.15 19.06a1.451 1.451 0 0 0 0 2.9 1.451 1.451 0 0 0 0-2.9zm0 2.09c-.35 0-.63-.28-.63-.63s.28-.63.63-.63.63.28.63.63-.28.63-.63.63z"/></g></svg>