<svg height="1525" viewBox="45.5 38 485.5 260" width="2500" xmlns="http://www.w3.org/2000/svg"><path d="m59.3 40.1c-4.9 2.4-9.8 7.6-12.2 12.8-1.4 3.3-1.6 14.3-1.6 115.1v111.5l2.3 4.7c2.8 5.7 8.8 11 14.1 12.6 2.8.9 55.8 1.2 207.7 1.2 195.3 0 204.1-.1 207.9-1.9 4.6-2.1 9.8-6.9 12.3-11.5 1.5-2.7 1.8-7.2 2.2-33.1l.5-29.9 16.3-3.2c9-1.8 17-3.9 17.9-4.6 4-3.3 4.3-6.3 4.3-46.3 0-40.5-.1-41.9-4.5-45.5-.9-.7-8.9-2.7-17.8-4.4l-16.2-3.1-.5-30c-.4-23.2-.8-30.6-1.9-32.5-3.2-5.7-6.5-9-11.4-11.5l-5.1-2.5h-410.1zm402.5 21.9c2.7 1.5 5.4 4.2 7 7l2.7 4.5v189l-2.7 4.5c-1.6 2.8-4.3 5.5-7 7l-4.3 2.5h-376l-4-2.1c-2.2-1.1-5.3-4-7-6.3l-3-4.3-.3-93.5c-.2-64.2.1-94.7.8-97.4 1.4-5.1 7.6-11.3 12.6-12.7 2.6-.7 64.9-1 190.4-.9l186.5.2z"/><path d="m81.4 74.4c-1.9 1.4-1.9 3.5-1.9 93.6 0 90.6 0 92.2 2 93.6 1.5 1.1 5.1 1.4 16.9 1.2l15-.3 25.4-54.5c44.8-96.4 62.2-134 62.2-134.5 0-.3-26.5-.5-58.8-.5-49.2 0-59.1.2-60.8 1.4zm112.6 49.4c-12.9 27.9-32.5 70.3-43.7 94.3s-20.3 43.9-20.3 44.3c0 .3 7.8.6 17.3.6h17.3l28.6-61.8c15.8-33.9 35.7-76.7 44.2-95l15.4-33.2h-17.6l-17.7.1zm73.1-46.6c-1.1 2.4-20.7 44.6-43.6 93.8s-41.9 90.1-42.2 90.8c-.4 1 3.1 1.2 17.1 1l17.6-.3 15.4-33c8.5-18.2 27.6-59.3 42.6-91.5s27.9-60 28.6-61.8l1.4-3.2h-35.1zm53 1c-1.1 2.4-20.7 44.6-43.6 93.8s-41.9 90.1-42.2 90.8c-.4 1 3.1 1.2 17.1 1l17.6-.3 16.3-35c9-19.3 17.5-37.6 18.9-40.7l2.6-5.7 47.4-.3c40.5-.4 48.1-.7 53.1-2.1 12.3-3.6 21.6-10.2 27.6-19.5 6.5-10.2 13.2-36.3 13.3-51.8.1-15.4-4.2-23.8-14.6-28.9-9.9-4.8-17-5.4-66.4-5.5h-45.3zm88.4 23.9c2.4.6 5.4 2.2 6.7 3.6 2 2.1 2.3 3.4 2.2 9.1-.1 7.4-3.4 21.4-6.3 27.1-1.1 2-3.3 4.9-5 6.5-5.6 5.4-10 5.9-50 6.4-34.3.3-36.3.3-35.7-1.4.4-1 5.9-13.1 12.4-27.1l11.7-25.3h29.8c18.4 0 31.5.4 34.2 1.1z"/><path d="m314 192.3c0 .2-3.1 16-7 35.2-3.8 19.2-7 35.1-7 35.3 0 .1 2.8.2 6.2 0l6.2-.3 5.2-26c2.9-14.3 5.4-26.7 5.6-27.5s6.5 11 14 26.2l13.7 27.8h8.8l23.8-26.7c13.1-14.8 24.1-26.9 24.5-27.1.6-.2-5.3 31-9.6 51l-.6 2.8h6.1c5.5 0 6.1-.2 6.6-2.3 1-4 13.5-67.1 13.5-67.9 0-.4-3.7-.8-8.2-.7h-8.3l-24.5 27.9c-13.5 15.4-24.8 27.9-25.1 28-.3 0-6.6-12.6-14-28l-13.4-28h-8.2c-4.6 0-8.3.1-8.3.3z"/></svg>