<svg fill-rule="evenodd" stroke-linejoin="round" stroke-miterlimit="2" viewBox="0 0.031 627.3329999999999 696.336" xmlns="http://www.w3.org/2000/svg" width="2252" height="2500"><linearGradient id="a" gradientUnits="userSpaceOnUse" x1="617.646" x2="0" y1="235.518" y2="230.556"><stop offset="0" stop-color="#b98a5c"/><stop offset=".21" stop-color="#9a6d42"/><stop offset=".37" stop-color="#af8053"/><stop offset="1" stop-color="#edbb88"/></linearGradient><path d="M205.491 693.692c-36.383-9.333-64.205-37.048-78.252-77.955-12.382-36.055-10.359-72.671 5.846-105.785 5.51-11.261 7.954-14.368 25.544-32.475 10.699-11.012 24.869-24.511 31.49-29.998 21.569-17.873 45.032-46.182 65.281-78.762 15.967-25.691 32.953-62.462 35.447-76.74.792-4.532 2.609-13.94 4.038-20.907 4.012-19.568 6.622-42.574 7.532-66.394l.829-21.728-4.791-4.939c-3.076-3.171-5.362-7.23-6.386-11.339-1.446-5.802-1.317-6.94 1.377-12.179 3.94-7.661 9.656-11.711 17.605-12.474 11.039-1.061 19.282 4.653 22.577 15.652 2.194 7.324.514 14.007-5.079 20.197l-4.791 5.303.901 19.618c1.986 43.263 9.599 89.295 17.799 107.617 12.055 26.938 28.127 57.43 38.3 72.666 12.279 18.39 42.309 53.089 51.322 59.301 3.166 2.182 17.047 15.601 30.848 29.819 21.046 21.684 25.94 27.494 30.357 36.033 17.06 32.982 19.07 73.452 5.364 107.956-4.103 10.328-15.27 31.99-20.736 40.225-8.006 12.06-28.418 28.877-41.089 33.851-15.304 6.009-17.385 6.112-122 6.056-93.567-.051-99.913-.203-109.333-2.619zm84.727-9.894c2.504-2.504 3.273-4.681 3.273-9.265 0-9.415 3.777-36.018 7.443-52.432 7.745-34.672 18.132-60.271 34.502-85.031 11.49-17.379 22.377-39.652 26.72-54.666 10.066-34.793 9.8-81.963-.651-115.676-3.488-11.249-11.369-27.857-13.889-29.268-5.11-2.859-5.458-.831-5.476 31.958-.017 30.099-.203 32.438-3.805 47.652-5.375 22.702-10.379 35.454-19.339 49.282-4.295 6.629-10.494 16.552-13.777 22.052s-9.69 15.856-14.238 23.013c-10.458 16.455-35.062 63.12-39.638 75.175-9.749 25.688-13.852 46.651-13.852 70.78 0 17.925 1.104 21.893 7.487 26.914 3.217 2.531 5.288 2.784 22.754 2.784 18.622 0 19.314-.1 22.486-3.272zm105.643-6.728c19.329-25.61 34.77-61.351 40.374-93.449 3.58-20.505 4.812-54.057 2.662-72.511-3.187-27.356-14.61-62.295-25.633-78.404-7.006-10.238-17.153-20.302-20.47-20.302-6.132 0-6.406 2.623-2.111 20.228 10.798 44.268 11.945 91.766 3.295 136.438-6.465 33.387-24.701 82.264-39.022 104.588-3.809 5.938-6.551 11.4-6.094 12.139.513.832 8.284 1.203 20.393.975l19.562-.368zm45.954-6.677c18.157-10.629 34.761-28.281 44.152-46.938 8.368-16.626 11.808-30.672 12.013-49.051.214-19.266-2.21-33.187-6.276-36.035-1.544-1.081-3.176-1.965-3.629-1.965-2.149 0-3.917 7.787-3.917 17.249 0 27.213-10.962 57.864-29.76 83.218-7.935 10.702-19.661 22.976-27.356 28.634-4.672 3.435-5.457 7.378-1.884 9.459 3.881 2.26 5.962 1.69 16.657-4.571zm-247.285-.445c1.254-.796 1.83-7.579 2.177-25.647.85-44.205 7.093-66.572 26.743-95.813 4.712-7.013 12.349-17.068 16.971-22.345 8.01-9.144 18.53-24.011 35.672-50.406 4.286-6.6 11.444-16.2 15.908-21.333 13.516-15.545 18.32-22.364 22.107-31.383 6.326-15.065 11.103-30.939 12.782-42.467 1.786-12.265 1.078-39.54-1.082-41.7-2.308-2.308-12.197-3.047-12.788-.956-2.689 9.525-10.999 33.936-15.478 45.467-11.852 30.515-38.545 63.878-76.13 95.151-19.879 16.542-29.827 27.299-40.902 44.232-20.73 31.696-29.342 65.555-23.834 93.705 2.999 15.327 11.956 33.431 21.804 44.068 8.693 9.39 12.544 11.651 16.05 9.427zm-46.818-124.544c1.477-1.65 4.945-7.2 7.706-12.334 9.62-17.881 26.072-38.628 39.129-49.345 4.186-3.435 18.304-15.938 31.374-27.784 18.223-16.516 25.882-24.491 32.853-34.204 10.29-14.339 29.969-52.671 35.832-69.796 3.78-11.044 3.827-11.479 1.449-13.631-4.675-4.23-8.399-1.618-12.463 8.741-4.584 11.684-22.248 41.353-33.447 56.18-5.091 6.74-24.749 27.006-49.546 51.08-22.609 21.949-43.424 42.947-46.255 46.663-6.587 8.646-11.806 19.028-15.366 30.57-3.376 10.941-3.431 12.059-.725 14.764 2.933 2.933 6.313 2.61 9.459-.904zm169.003-289.81c1.644-.63 2.109-2.857 2.109-10.087 0-10.353-1.508-14.437-5.333-14.437-1.415 0-3.194 1.161-3.953 2.579-2.011 3.759-1.785 21.036.286 21.872 2.411.972 4.491.994 6.891.073zm2.443-87.454c4.769-5.516.908-14.403-6.258-14.403-6.73 0-9.887 10.855-4.674 16.068 3.169 3.169 7.295 2.541 10.932-1.665zM21.494 290.224l11.997-34.652L0 228.404h42.026l11.586-35.988 13.927 35.988h39.874l-31.181 26.937 11.572 35.194-33.99-20.796zm517.33.324l13.334-36.077-32.465-26.067h39.915l13.944-35.992 11.588 35.992h42.193l-33.434 26.192 11.446 35.73-31.56-20.543zM280.158 97.229l13.253-35.596-33.031-26.642h39.135L312.138.031l14.07 34.96h39.283L333.74 61.589l12.593 35.751-33.684-20.936z" fill="url(#a)" fill-rule="nonzero" transform="matrix(.82008 0 0 .82008 0 -.03)"/></svg>