<svg height="583" viewBox="29.4 49.3 347.1 123.4" width="2500" xmlns="http://www.w3.org/2000/svg"><path d="m374.4 97.3c-1.3 1.3-3 2-4.9 2s-3.6-.7-4.9-2c-1.3-1.4-2-3-2-5 0-2.1.7-3.8 2.2-5.1 1.4-1.3 2.9-1.9 4.8-1.9s3.5.7 4.9 2.1 2 3 2 5c0 1.8-.7 3.5-2.1 4.9zm-8.9-9.1c-1.1 1.1-1.7 2.5-1.7 4.1s.6 3 1.7 4.1 2.5 1.7 4 1.7c1.6 0 2.9-.6 4-1.7s1.7-2.5 1.7-4.1-.6-2.9-1.7-4.1-2.5-1.8-4-1.8-2.9.6-4 1.8zm1 7.9v-7.8h3.7c.6 0 1.1.2 1.5.4.7.4 1 1 1 1.9 0 .7-.2 1.1-.5 1.4-.4.3-.8.5-1.3.5.5.1.9.2 1.1.4.5.4.7.9.7 1.7v1.1l.1.2h-1.9c-.1-.3-.1-.6-.1-1.1s-.1-.8-.1-1c-.1-.3-.3-.5-.6-.6-.2-.1-.4-.1-.7-.1h-.8v2.8h-2.1zm3.7-6.2c-.3-.1-.7-.2-1.2-.2h-.5v2.3h.8c.5 0 .8-.1 1.1-.3s.4-.5.4-.9c0-.5-.2-.8-.6-.9zm-303.8 76.8-37-84.7 13.5-5.9c9.7-4.2 22.4-8.7 31.9 13.1 7.5 17.2 4.3 28.1-13.6 35.1l16.4 37.5zm-21.6-80 12.3 28.1c9.9-3.5 10.3-10 6.2-19.4-3.3-7.6-8.4-13.1-16.9-9.3zm47.6-24.8c-19.5 5.2-12.8 30.6-9.5 42.9 2.5 9.4 6.7 25.2 16.7 31 3.8 2.2 8.2 2.7 12.9 1.4 19.5-5.2 12.8-30.6 9.5-42.9-3.3-12.2-10.1-37.7-29.6-32.4zm17.2 64.4c-1.3.3-2.5.2-3.7-.5-4.7-2.7-8.1-13.3-11-24.3s-5.3-21.8-2.5-26.5c.7-1.2 1.6-1.9 2.9-2.2s2.5-.2 3.7.5c4.7 2.7 8.1 13.3 11 24.3 3.7 13.8 6.2 26.9-.4 28.7zm52.6-50.9c0-1.6-.1-3.3-.3-4.9-2.6-19.8-15.1-18.2-21.8-17.3l-12.7 1.6 9.8 75.3 11.7-1.5s-3.1-24.2-4.1-31.7c3.6 6.9 15.8 30.2 15.8 30.2l12.3-1.6s-17.4-32.5-18.3-34.3c5.6-2.4 7.6-9 7.6-15.8zm-12.1 2c0 2.7-.6 4.7-1.7 6s-2.8 2-4.9 2.3c-.2-1.9-2.6-20.3-2.9-22.1.2 0 .5-.1.5-.1 2.2-.3 3.9-.1 5.1.9 2.3 1.7 3.1 5.7 3.7 9.8.1 1.2.2 2.3.2 3.2zm52.6-28.1h-1l-27.6.6 1.7 75.9 11.8-.3s-.7-31.7-.7-33.6c1.8 0 15.1-.3 15.1-.3l-.2-10.6s-13.3.3-15.1.3c0-1.8-.4-19.4-.5-21.2 1.8 0 16.8-.4 16.8-.4zm9.5 1.6-4.3 74.8 11.8.7 4.3-75.8-11.8-.7zm39.3 2.6-11.9-1.9-.2 1-11.6 74 7.7 1.2c18.4 2.9 30 2.2 35.3-31.6 6.1-38.7-8.6-41-19.3-42.7zm8.8 25.5c0 4.5-.8 9.3-1.4 13.4l-.3 2-.2 1.5c-1.2 8-2.6 17-8 20.8-2.4 1.7-5.4 2.2-9.2 1.6.3-2 8.3-52.5 8.6-54.5 3.4.5 5.9 1.8 7.7 4.1 2.1 2.7 2.8 6.8 2.8 11.1zm30-18-.2 1-19.2 72.4 11.5 3.1 19.4-73.5zm57.4 67.9c-6.3 15.4-18.1 43.8-40.1 34.9-22-9-10.7-37.5-4.4-53 6.3-15.4 18.1-43.8 40.1-34.9 22 9 10.6 37.6 4.4 53zm-32.5-13.2c-7.4 18.2-12.3 33.8-3.3 37.4s16.4-10.9 23.7-29.1c7.4-18.2 12.3-33.8 3.3-37.4-8.9-3.6-16.3 11-23.7 29.1z" fill="#8f8f8c"/></svg>