<svg fill="none" height="441" viewBox=".37269081 -.35428028 504.20130919 89.01028028" width="2500" xmlns="http://www.w3.org/2000/svg"><path d="m113.404 70.227v-51.01h19.582c3.515 0 6.619.617 9.312 1.85 2.739 1.232 4.884 3.058 6.436 5.477 1.552 2.42 2.328 5.41 2.328 8.97 0 3.469-.798 6.413-2.396 8.832-1.552 2.42-3.697 4.268-6.436 5.546-2.693 1.232-5.774 1.849-9.244 1.849h-8.969v18.486zm10.613-27.73h9.038c1.506 0 2.807-.296 3.903-.89 1.095-.593 1.94-1.415 2.533-2.465.639-1.05.959-2.26.959-3.629 0-1.414-.32-2.647-.959-3.697-.593-1.05-1.438-1.871-2.533-2.465-1.096-.593-2.397-.89-3.903-.89h-9.038zm32.414 27.73v-37.384h9.586v8.97l-.685-1.301c.822-3.15 2.168-5.272 4.04-6.368 1.917-1.141 4.177-1.712 6.778-1.712h2.191v8.901h-3.218c-2.51 0-4.541.776-6.093 2.328-1.552 1.507-2.328 3.652-2.328 6.437v20.13zm43.734.822c-3.971 0-7.417-.867-10.338-2.602-2.922-1.78-5.181-4.154-6.779-7.12s-2.396-6.254-2.396-9.86c0-3.743.821-7.075 2.465-9.997 1.688-2.921 3.948-5.226 6.778-6.915s6.025-2.533 9.586-2.533c2.967 0 5.591.479 7.874 1.438 2.282.912 4.199 2.213 5.751 3.902a17 17 0 0 1 3.629 5.889c.822 2.19 1.232 4.587 1.232 7.189 0 .73-.045 1.46-.137 2.19-.045.686-.159 1.279-.342 1.781h-28.004v-7.532h22.184l-4.861 3.56c.456-1.962.434-3.696-.069-5.203-.502-1.552-1.392-2.761-2.67-3.629-1.232-.913-2.761-1.37-4.587-1.37-1.78 0-3.31.435-4.588 1.302s-2.236 2.145-2.875 3.834-.891 3.743-.754 6.162c-.182 2.1.069 3.949.754 5.546.684 1.598 1.734 2.853 3.149 3.766 1.415.867 3.127 1.301 5.135 1.301 1.826 0 3.378-.365 4.656-1.095 1.324-.73 2.351-1.735 3.081-3.013l8.217 3.903c-.731 1.826-1.895 3.423-3.492 4.793-1.552 1.369-3.401 2.442-5.546 3.218-2.146.73-4.496 1.095-7.053 1.095zm40.762 0c-3.652 0-6.915-.867-9.791-2.602-2.876-1.734-5.158-4.085-6.847-7.052-1.643-2.967-2.465-6.254-2.465-9.86 0-3.651.845-6.938 2.533-9.86 1.689-2.966 3.972-5.317 6.847-7.052 2.876-1.734 6.094-2.601 9.655-2.601 2.738 0 5.158.525 7.257 1.574 2.146 1.005 3.835 2.443 5.067 4.314l-1.575 2.054v-21.568h10.271v51.831h-9.586v-6.846l.958 2.122c-1.278 1.826-3.012 3.218-5.203 4.177-2.191.913-4.565 1.369-7.121 1.369zm1.232-9.243c1.872 0 3.515-.434 4.93-1.301s2.511-2.077 3.287-3.63c.821-1.551 1.232-3.331 1.232-5.34s-.411-3.788-1.232-5.34c-.776-1.552-1.872-2.762-3.287-3.63-1.415-.866-3.058-1.3-4.93-1.3-1.871 0-3.56.456-5.066 1.37-1.461.867-2.602 2.076-3.424 3.628-.821 1.507-1.232 3.264-1.232 5.272s.411 3.789 1.232 5.34c.822 1.553 1.963 2.763 3.424 3.63 1.506.867 3.195 1.3 5.066 1.3zm26.556 8.421v-37.384h10.271v37.384zm0-40.739v-10.27h10.271v10.27zm35.451 41.561c-3.743 0-7.121-.844-10.133-2.533-2.967-1.735-5.341-4.086-7.121-7.053-1.735-2.967-2.602-6.299-2.602-9.996s.867-7.007 2.602-9.928c1.735-2.967 4.108-5.295 7.121-6.984 3.012-1.689 6.39-2.533 10.133-2.533 2.785 0 5.364.479 7.737 1.438 2.374.958 4.405 2.305 6.094 4.04 1.689 1.688 2.899 3.697 3.629 6.024l-8.901 3.835c-.639-1.872-1.735-3.355-3.287-4.45-1.506-1.096-3.263-1.644-5.272-1.644-1.78 0-3.378.434-4.793 1.3-1.369.868-2.464 2.078-3.286 3.63-.776 1.552-1.164 3.332-1.164 5.34s.388 3.789 1.164 5.34c.822 1.553 1.917 2.763 3.286 3.63 1.415.867 3.013 1.3 4.793 1.3 2.054 0 3.835-.547 5.341-1.643s2.579-2.579 3.218-4.45l8.901 3.903c-.685 2.19-1.872 4.154-3.56 5.888-1.689 1.735-3.721 3.104-6.094 4.108-2.374.959-4.976 1.438-7.806 1.438zm40.83-.411c-4.519 0-8.033-1.21-10.544-3.629-2.465-2.465-3.697-5.888-3.697-10.27v-14.995h-6.299v-8.9h.342c1.917 0 3.378-.48 4.382-1.439 1.05-.958 1.575-2.396 1.575-4.313v-2.739h10.27v8.49h8.764v8.901h-8.764v14.31c0 1.278.228 2.351.685 3.218.456.822 1.164 1.438 2.122 1.849.959.41 2.146.616 3.561.616.319 0 .684-.023 1.095-.068.411-.046.845-.092 1.301-.137v8.695a85.84 85.84 0 0 1 -2.328.274c-.867.091-1.689.137-2.465.137zm10.88-.411v-51.01h34.303v9.244h-23.69v11.572h22.321v9.243h-22.321v11.708h23.69v9.243zm50.453.822c-2.694 0-5.021-.434-6.984-1.3s-3.469-2.1-4.519-3.698c-1.05-1.643-1.575-3.583-1.575-5.82 0-2.1.479-3.948 1.438-5.546.958-1.643 2.419-3.013 4.382-4.108 2.008-1.096 4.496-1.872 7.463-2.328l11.434-1.849v7.532l-9.585 1.712c-1.461.273-2.579.753-3.355 1.437-.776.64-1.164 1.575-1.164 2.808 0 1.14.433 2.03 1.301 2.67.867.639 1.94.958 3.218.958 1.689 0 3.172-.365 4.45-1.095s2.26-1.712 2.944-2.944a8.268 8.268 0 0 0 1.096-4.177v-9.721c0-1.415-.571-2.602-1.712-3.56-1.095-.96-2.602-1.439-4.519-1.439-1.826 0-3.446.502-4.861 1.507-1.37 1.004-2.374 2.328-3.013 3.97l-8.216-3.902c.73-2.1 1.894-3.903 3.492-5.409 1.597-1.506 3.515-2.67 5.751-3.492 2.237-.822 4.679-1.232 7.326-1.232 3.15 0 5.934.57 8.354 1.711 2.419 1.142 4.29 2.74 5.614 4.793 1.37 2.009 2.054 4.36 2.054 7.053v24.648h-9.585v-6.025l2.328-.41c-1.096 1.643-2.306 3.012-3.629 4.107a13.4 13.4 0 0 1 -4.451 2.328c-1.643.548-3.469.822-5.477.822zm42.314 0c-4.108 0-7.691-.959-10.75-2.876-3.012-1.962-5.066-4.587-6.162-7.874l7.532-3.56c.958 2.008 2.259 3.583 3.903 4.724a9.386 9.386 0 0 0 5.477 1.712c1.461 0 2.579-.297 3.355-.89s1.164-1.415 1.164-2.465c0-.548-.137-1.004-.411-1.37-.274-.41-.684-.775-1.232-1.095s-1.233-.593-2.054-.821l-6.368-1.78c-3.058-.868-5.409-2.26-7.052-4.177-1.643-1.963-2.465-4.268-2.465-6.916 0-2.328.593-4.359 1.78-6.093s2.853-3.081 4.998-4.04c2.146-1.004 4.611-1.506 7.395-1.506 3.652 0 6.847.867 9.586 2.601 2.784 1.69 4.747 4.086 5.888 7.19l-7.6 3.56c-.548-1.552-1.552-2.784-3.013-3.697-1.415-.959-3.035-1.438-4.861-1.438-1.324 0-2.374.274-3.15.822-.73.547-1.095 1.3-1.095 2.259 0 .502.137.959.411 1.37s.707.775 1.301 1.095c.639.32 1.415.616 2.328.89l5.956 1.78c3.104.913 5.478 2.305 7.121 4.177 1.643 1.826 2.465 4.085 2.465 6.778 0 2.328-.616 4.36-1.849 6.094-1.186 1.735-2.852 3.104-4.998 4.108-2.145.959-4.679 1.438-7.6 1.438zm25.052 14.241c-1.096 0-2.168-.09-3.218-.273-1.004-.183-1.895-.48-2.671-.89v-8.422c.639.182 1.393.342 2.26.48s1.666.205 2.396.205c2.009 0 3.447-.48 4.314-1.438a11.569 11.569 0 0 0 2.122-3.15l2.534-5.82-.137 8.559-16.433-41.698h11.024l10.886 29.647h-4.108l10.887-29.647h11.023l-16.021 40.877c-1.005 2.556-2.237 4.702-3.698 6.436-1.46 1.735-3.126 3.013-4.998 3.835-1.826.867-3.88 1.3-6.162 1.3z" fill="#1d2939"/><g clip-rule="evenodd" fill-rule="evenodd"><path d="m1.963 22.689a11.246 11.246 0 0 1 4.031-3.994l29.352-17.031a11.15 11.15 0 0 1 11.174-.025l29.276 16.903a11.11 11.11 0 0 1 4.014 3.977l-39.186 29.617zm33.344-3.552-14.077 8.167 10.724 6.192 6.237-3.62a5.347 5.347 0 0 1 5.358-.011l6.22 3.592 10.751-6.238-14.04-8.106a11.15 11.15 0 0 0 -11.174.024z" fill="#8e88df"/><path d="m79.809 22.518c.94 1.658 1.552 3.52 1.56 5.484l.12 34.086a11.15 11.15 0 0 1 -5.614 9.725l-29.415 16.843-.062-17.55 14.185-8.123a11.15 11.15 0 0 0 5.615-9.724l-.059-16.347-10.834 6.204.026 7.243a5.347 5.347 0 0 1 -2.692 4.663l-9.384 5.373a5.583 5.583 0 0 1 -2.617.713l-.01-12.315a6.58 6.58 0 0 1 3.308-5.713l35.874-20.562z" fill="#6960d5"/><path d="m40.682 61.107a5.378 5.378 0 0 1 -2.56-.705l-9.259-5.346a5.328 5.328 0 0 1 -2.656-4.639l.025-7.205-10.69-6.172-.058 16.26a11.11 11.11 0 0 0 5.54 9.675l13.998 8.081-.061 17.46-29.026-16.758a11.108 11.108 0 0 1 -5.54-9.674l.118-33.909c.007-1.954.52-3.837 1.447-5.486l35.463 20.474a6.57 6.57 0 0 1 3.285 5.704z" fill="#4e48bf"/></g></svg>