<svg height="743" viewBox="20.2567376 10.18 1277.9532624 361.6" width="2500" xmlns="http://www.w3.org/2000/svg"><path d="m336.4 182.7a323 323 0 0 1 3.21 3.2c7.93 8.01 15.57 16.41 21.5 25.99a90.97 90.97 0 0 1 12.5 33.68c2.72 17.32.26 35.3-6.09 51.64a106.84 106.84 0 0 1 -28.23 41.05 102.78 102.78 0 0 1 -49.41 24.1 106.15 106.15 0 0 1 -54.83-4.53c-24.18-8.68-45.12-26.5-56.78-49.4a100.7 100.7 0 0 1 -9.94-57.73c1.6-12.79 5.65-25.34 12.51-36.25 7.33-11.64 17.6-21.1 26.3-31.75 4.89-5.98 9.3-12.38 12.83-19.25a92.49 92.49 0 0 0 9.63-50.68c-2.03-21.38-11.52-41.86-25.99-57.73a102.99 102.99 0 0 0 -48.1-29.83c-19-5.29-39.43-4.74-58.39.64-22.55 6.4-43.3 19.85-57.09 38.81a97.78 97.78 0 0 0 -17.96 46.83 99.83 99.83 0 0 0 7.57 50.02 99.83 99.83 0 0 0 31.24 39.8m212.66 54.84v-115.47m-149.47 102.64v-115.47" fill="none" stroke="#0023ff" stroke-linecap="round" stroke-width="43"/><path d="m461.79 26.85v75h25q15.52 0 26.46-10.94 11.04-11.04 11.04-26.56t-11.04-26.46q-10.94-11.04-26.46-11.04zm-8.33-16.67h33.33q22.4 0 38.23 15.94 15.94 15.83 15.94 38.23t-15.94 38.33q-15.83 15.83-38.23 15.83h-25v50q0 3.44-2.5 5.94-2.4 2.4-5.83 2.4-3.44 0-5.94-2.4-2.4-2.5-2.4-5.94v-150q0-3.43 2.4-5.83 2.5-2.5 5.94-2.5zm104.16 58.34q0-3.44 2.4-5.84 2.5-2.5 5.94-2.5 3.43 0 5.83 2.5 2.5 2.4 2.5 5.84v9.16q17.5-17.5 41.67-17.5 12.18 0 22.4 4.17 1.87.73 3.43 2.19 2.4 2.5 2.4 5.93 0 3.44-2.5 5.94-2.4 2.4-5.84 2.4-1.98 0-3.64-.84-7.4-3.12-16.25-3.12-17.3 0-29.48 12.19-12.19 12.18-12.19 29.47v50q0 3.44-2.5 5.94-2.4 2.4-5.83 2.4-3.44 0-5.94-2.4-2.4-2.5-2.4-5.94zm199.28 41.66q-2.3-11.98-11.46-21.14-12.2-12.2-29.48-12.2-17.3 0-29.48 12.2-9.17 9.16-11.46 21.14zm-8.86 38.33q3.44 0 5.83 2.5 2.5 2.4 2.5 5.84t-2.4 5.94q-16.14 14.06-38.01 14.06-24.17 0-41.25-17.09-17.09-17.08-17.09-41.25 0-24.16 17.09-41.24 17.08-17.09 41.25-17.09 24.16 0 41.25 17.09 17.08 17.08 17.08 41.24 0 3.44-2.5 5.94-2.4 2.4-5.83 2.4h-90.94q2.29 11.98 11.46 21.14 12.18 12.2 29.48 12.2 15.62 0 26.87-9.9 2.3-1.78 5.2-1.78zm59.58 20q0 3.44-2.5 5.94-2.4 2.4-5.83 2.4-3.44 0-5.94-2.4-2.4-2.5-2.4-5.94v-100q0-3.43 2.4-5.83 2.5-2.5 5.94-2.5 3.44 0 5.83 2.5 2.5 2.4 2.5 5.84v2.18q12.4-10.52 29.17-10.52 18.96 0 32.4 13.44 2.8 2.81 5.1 5.94 2.3-3.13 5.1-5.94 13.44-13.44 32.4-13.44t32.4 13.44q13.43 13.44 13.43 32.4v62.5q0 3.43-2.5 5.93-2.4 2.4-5.83 2.4-3.44 0-5.94-2.4-2.4-2.5-2.4-5.94v-62.5q0-12.08-8.54-20.62-8.54-8.54-20.62-8.54-12.08 0-20.63 8.54-8.54 8.54-8.54 20.62v62.5q0 3.44-2.5 5.94-2.4 2.4-5.83 2.4-3.44 0-5.94-2.4-2.4-2.5-2.4-5.94v-62.5q0-12.08-8.54-20.62-8.54-8.54-20.62-8.54-12.08 0-20.63 8.54-8.54 8.54-8.54 20.62zm193.75-133.33q0 4.27-3.12 7.4-3.02 3.02-7.3 3.02-4.27 0-7.39-3.02-3.02-3.13-3.02-7.4 0-4.27 3.02-7.29 3.12-3.12 7.4-3.12 4.27 0 7.29 3.12 3.12 3.02 3.12 7.3zm-18.75 33.34q0-3.44 2.4-5.84 2.5-2.5 5.94-2.5 3.43 0 5.83 2.5 2.5 2.4 2.5 5.84v100q0 3.43-2.5 5.93-2.4 2.4-5.83 2.4-3.44 0-5.94-2.4-2.4-2.5-2.4-5.94zm140.94 41.66q-2.3-11.98-11.46-21.14-12.19-12.2-29.48-12.2t-29.48 12.2q-9.16 9.16-11.46 21.14zm-8.85 38.33q3.43 0 5.83 2.5 2.5 2.4 2.5 5.84t-2.4 5.94q-16.14 14.06-38.02 14.06-24.16 0-41.25-17.09-17.08-17.08-17.08-41.25 0-24.16 17.08-41.24 17.09-17.09 41.25-17.09 24.17 0 41.25 17.09 17.09 17.08 17.09 41.24 0 3.44-2.5 5.94-2.4 2.4-5.84 2.4h-90.94q2.3 11.98 11.46 21.14 12.2 12.2 29.48 12.2 15.63 0 26.88-9.9 2.29-1.78 5.2-1.78zm42.91-79.99q0-3.44 2.4-5.84 2.5-2.5 5.94-2.5 3.43 0 5.83 2.5 2.5 2.4 2.5 5.84v9.16q17.5-17.5 41.67-17.5 12.18 0 22.4 4.17 1.87.73 3.43 2.19 2.4 2.5 2.4 5.93 0 3.44-2.5 5.94-2.4 2.4-5.84 2.4-1.98 0-3.64-.84-7.4-3.12-16.25-3.12-17.3 0-29.48 12.19-12.2 12.18-12.2 29.47v50q0 3.44-2.5 5.94-2.39 2.4-5.82 2.4-3.44 0-5.94-2.4-2.4-2.5-2.4-5.94zm-522.44 270.54q3.44 0 5.84 2.5 2.5 2.4 2.5 5.84 0 3.43-2.4 5.83-23.23 18.54-52.4 18.54-34.48 0-58.95-24.37-24.38-24.48-24.38-58.96 0-34.48 24.38-58.86 24.47-24.48 58.95-24.48 29.8 0 53.02 19.07 2.4 2.5 2.4 5.93 0 3.44-2.5 5.94-2.4 2.4-5.83 2.4-3.44 0-5.94-2.5-17.6-14.17-41.15-14.17-27.6 0-47.18 19.58-19.48 19.48-19.48 47.09 0 27.6 19.48 47.19 19.58 19.47 47.18 19.47 23.86 0 41.67-14.58 2.08-1.46 4.8-1.46zm82.71-67.29q-17.3 0-29.48 12.19-12.19 12.19-12.19 29.48t12.2 29.48q12.18 12.18 29.47 12.18 17.3 0 29.48-12.18 12.19-12.2 12.19-29.48 0-17.3-12.19-29.48-12.19-12.19-29.48-12.19zm41.67 82.5q-17.5 17.5-41.67 17.5t-41.25-17.08q-17.08-17.09-17.08-41.25 0-24.17 17.08-41.25 17.08-17.09 41.25-17.09t41.25 17.09q17.08 17.08 17.08 41.25v50q0 3.44-2.5 5.94-2.4 2.4-5.83 2.4-3.44 0-5.94-2.4-2.4-2.5-2.4-5.94zm53.96-40.83q-9.48-3.54-13.23-7.4-7.4-7.29-7.4-17.6 0-10.31 7.7-18.02 15-15.32 39.18-15.32 26.14 0 44.79 20.94 1.66 1.98 1.56 4.9 0 3.44-2.5 5.94-2.4 2.4-5.83 2.4-3.44 0-5.52-2.2-2.09-2.18-3.03-3.12-12.18-12.19-29.47-12.19-17.3 0-27.6 10.83-2.5 3.03-2.5 7.2.3 4.89 5.1 6.66l51.25 16.98q9.47 3.54 13.22 7.4 7.4 7.29 7.4 17.6 0 10.31-7.7 18.02-15 15.31-39.17 15.31-26.25 0-44.8-20.94-1.56-2.18-1.56-4.9 0-3.43 2.4-5.83 2.5-2.5 5.93-2.5 3.44 0 5.53 2.2 2.08 2.18 3.02 3.12 12.18 12.18 29.48 12.18 17.29 0 27.6-10.83 2.5-3.02 2.5-7.19-.31-4.9-5.1-6.66zm89.78-100q0-3.44 2.4-5.84 2.5-2.5 5.94-2.5 3.44 0 5.83 2.5 2.5 2.4 2.5 5.84v56.77q15.63-15.1 37.5-15.1 22.4 0 38.23 15.93 15.94 15.84 15.94 38.23v54.17q0 3.44-2.5 5.94-2.4 2.4-5.83 2.4-3.44 0-5.94-2.4-2.4-2.5-2.4-5.94v-54.17q0-15.52-11.04-26.46-10.94-11.04-26.46-11.04-15.52 0-26.56 11.04-10.94 10.94-10.94 26.46v54.17q0 3.44-2.5 5.94-2.4 2.4-5.83 2.4-3.44 0-5.94-2.4-2.4-2.5-2.4-5.94zm152.09 16.66q0 4.28-3.13 7.4-3.02 3.02-7.29 3.02t-7.4-3.02q-3.01-3.12-3.01-7.4 0-4.27 3.02-7.29 3.12-3.12 7.4-3.12 4.26 0 7.28 3.12 3.13 3.02 3.13 7.3zm-18.75 33.34q0-3.44 2.4-5.84 2.5-2.5 5.93-2.5 3.44 0 5.84 2.5 2.5 2.4 2.5 5.84v100q0 3.44-2.5 5.94-2.4 2.4-5.84 2.4-3.43 0-5.93-2.4-2.4-2.5-2.4-5.94zm140.94 41.66q-2.3-11.97-11.46-21.14-12.19-12.19-29.48-12.19-17.3 0-29.48 12.19-9.17 9.17-11.46 21.14zm-8.86 38.34q3.44 0 5.84 2.5 2.5 2.4 2.5 5.83 0 3.44-2.4 5.94-16.15 14.06-38.02 14.06-24.17 0-41.25-17.08-17.08-17.09-17.08-41.25 0-24.17 17.08-41.25 17.08-17.09 41.25-17.09t41.25 17.09q17.08 17.08 17.08 41.25 0 3.44-2.5 5.94-2.4 2.4-5.83 2.4h-90.94q2.3 11.97 11.46 21.14 12.19 12.18 29.48 12.18 15.62 0 26.87-9.9 2.3-1.76 5.21-1.76zm42.92-80q0-3.44 2.4-5.84 2.5-2.5 5.93-2.5 3.44 0 5.84 2.5 2.5 2.4 2.5 5.84v9.16q17.5-17.5 41.66-17.5 12.19 0 22.4 4.17 1.87.73 3.44 2.19 2.4 2.5 2.4 5.94 0 3.43-2.5 5.93-2.4 2.4-5.84 2.4-1.98 0-3.65-.83-7.4-3.13-16.25-3.13-17.29 0-29.48 12.19-12.18 12.19-12.18 29.48v50q0 3.44-2.5 5.94-2.4 2.4-5.84 2.4-3.43 0-5.93-2.4-2.4-2.5-2.4-5.94z"/></svg>