<svg height="2500" width="2500" xmlns="http://www.w3.org/2000/svg" viewBox="0 0 350 350"><path d="M0 0h350v350H0V0z" fill="#e5e5e5"/><path d="M220.168 109.238c2.71 2.165 5.284 4.41 7.832 6.762l2.168 1.89c12.213 11.245 20.938 29.143 22 45.741.445 10.991.712 21.929-3.168 32.369l-1.066 2.992c-8.265 21.438-23.297 35.43-43.496 45.383-17.69 7.691-38.095 7.807-56.27 1.336C127.16 237.198 110.929 220.73 102 200c-7.023-18.562-6.312-40.595 1.578-58.703 3.273-7.12 7.177-13.476 12.422-19.297l2.43-2.71c6.577-6.96 13.18-11.649 21.57-16.29l2.004-1.238c23.917-13.858 56.633-7.736 78.164 7.476z" fill="#e6e4e4"/><path d="M148 122h6c1 1 1 1 1.098 2.848L155 131h6v24h3l1 12 1-17h2l-.188-3.188c.196-3.97.891-5.654 3.188-8.812 1.904 1.904 2.935 3.334 3.2 6.047-.011 1.985-.1 3.97-.2 5.953l3 1v16h2l-.048-1.88a994.06 994.06 0 0 1-.14-8.433l-.076-2.958-.029-2.842-.048-2.619c.413-2.745 1.137-3.63 3.341-5.268h2v4h2v-4c2.468 1.152 4.048 2.048 6 4l1-2h2v-20l5-1 1-2h2v26h2v6h2v13h2l.148-2.176c.501-6.934 1.13-13.847 1.852-20.762l.251-2.436c.45-4.238.994-8.429 1.749-12.626h1v6h2v-6h1a61776.187 61776.187 0 0 1 1.846 17.168c.745 6.941 1.474 13.884 2.154 20.832h2v-23c3.253-1.627 6.392-1.115 10-1 1 1 1 1 1.114 3.225l-.016 2.904-.01 3.135-.025 3.298-.014 3.311c-.012 2.71-.028 5.418-.049 8.127h2v-18l8 2v12h4c1.104 3.313 1.133 5.827 1.125 9.313l.008 3.363C249 179 249 179 248 185H102c-.914-4.568-1.116-8.7-1.063-13.313l.014-2.244c.012-1.814.03-3.629.049-5.443h2v-3l1.938-.813c2.393-1.074 2.393-1.074 3.062-4.187h7l1 4 5 1 1 6 1-21h9v21h2l-.016-1.893c-.02-2.869-.034-5.738-.047-8.607l-.025-2.977c-.019-5.61.25-10.975 1.088-16.523 6.625-1.125 6.625-1.125 10 0 .988 6.537 1.119 12.896 1.063 19.5l-.014 3.07c-.012 2.477-.028 4.953-.049 7.43h2v-45z" fill="#93d0e9"/><path d="M221.875 114.54c12.235 9.634 22.962 25.19 25.71 40.784.245 2.571.404 5.095.415 7.676h-4v-12l-2.875-.437C238 150 238 150 236 149v18h-2l-1-23h-10v23h-2c-1.79-10.66-3.437-21.194-4-32h-4l-.26 2.292c-.39 3.444-.784 6.889-1.177 10.333l-.409 3.605-.4 3.497-.365 3.205c-.385 3.04-.865 6.05-1.389 9.068h-2v-13h-2v-6h-2v-26h-2l-1 3h-5v20h-2v22h-1l-.012-1.772c-.033-2.66-.104-5.319-.175-7.978l-.018-2.79c-.1-5.643-.1-5.643-3.346-10.1L186 143v4h-2v-4h-2l-1 3h-2v21h-2l-.148-3.465-.227-4.472c-.03-.755-.062-1.51-.094-2.288-.104-1.93-.31-3.854-.531-5.775l-2-1c-.257-1.993-.508-3.988-.656-5.992-.257-2.318-.257-2.318-2.344-5.008-2.12 3.534-2.532 6.944-3 11h-2v17l-2 1v-13h-3v-24h-6l-1-8-6-1v45h-2l-1-30h-10l-1 30h-2v-21h-9v21l-2 1v-7l-5-1-1-3-7-1-1 4-1.938.313L103 161l-1 3c-1.45-13.783 7.179-28.6 15.434-39.094 9.229-10.869 20.15-17.993 33.566-22.906l2.578-1.059c22.855-8.884 49.66-.55 68.297 13.598z" fill="#e3e4e5"/><path d="M116 217h117c-7.088 14.177-23.18 21.918-37.504 26.906-18.14 5.675-38.425 2.96-55.121-5.469-9.896-5.323-17.207-12.835-24.375-21.437z" fill="#94cfe9"/><path d="M220.168 109.238c2.71 2.165 5.284 4.41 7.832 6.762l2.168 1.89c12.213 11.245 20.938 29.143 22 45.741.445 10.991.712 21.929-3.168 32.369l-1.066 2.992c-8.265 21.438-23.297 35.43-43.496 45.383-17.69 7.691-38.095 7.807-56.27 1.336C127.16 237.198 110.929 220.73 102 200c-7.023-18.562-6.312-40.595 1.578-58.703 3.273-7.12 7.177-13.476 12.422-19.297l2.43-2.71c6.577-6.96 13.18-11.649 21.57-16.29l2.004-1.238c23.917-13.858 56.633-7.736 78.164 7.476zM154 101l-3.238 1.066c-20.12 7.164-34.22 20.651-43.578 39.516C99.42 158.547 99.166 176.187 104 194l.656 2.484c3.273 10.989 9.446 19.38 17.344 27.516l1.676 1.898c7.528 8.257 17.89 13.484 28.324 17.102l2.22.808c6.806 2.288 13.074 2.645 20.218 2.567l3.197.035c7.227-.027 13.512-1.145 20.365-3.41l3.242-1.07c16.364-6.556 29.474-17.996 38.758-32.93l1.176-1.844C250.129 191.392 251.1 169.211 247 152c-6.479-20.012-19.46-36.019-38-46-5.506-2.498-11.209-4.293-17-6l-2.477-.805C178.228 96.012 164.96 97.317 154 101z" fill="#bf5b5e"/><path d="M168 65h9c3 5.75 3 5.75 3 8 2.524-2.294 3.383-3.765 5-7h9c-.09.947-.09.947-.184 1.914-.72 7.688-1.287 15.383-1.816 23.086h-6l-1-6-1.875 2.5L181 90h-2a125.024 125.024 0 0 1-4-6l-1 6h-6V65z" fill="#c35558"/><path d="M165 255c14.317-.574 14.317-.574 19 3 3.18 3.603 3.58 7.127 3.418 11.781-.736 3.91-2.49 5.55-5.418 8.219-4.454 2.8-9.893 2.407-15 2-1.714-1.714-1.23-4.004-1.316-6.348l-.127-3.271-.12-3.443-.13-3.456c-.107-2.827-.209-5.654-.307-8.482z" fill="#347e9e"/><path d="M272 126c3.298 4.764 4.344 10.268 4 16-1.768 2.987-2.919 4.46-6 6-3.673.134-6.499.167-10-1l-2 4-6-3c1.152-2.468 2.048-4.048 4-6l-5-1-2-7a820.445 820.445 0 0 1 10-5l2.527-1.258 2.348-1.117 2.117-1.023c2.44-.731 3.664-.559 6.008.398z" fill="#c35558"/><path d="M112 93c2.5 1.5 2.5 1.5 4 4 .316 2.758.186 5.206 0 8h7l-2 7-6-1 1 1c-.125 1.813-.125 1.813-1 4a141.02 141.02 0 0 1-5 4l-2.703-2.52a29458.51 29458.51 0 0 0-3.547-3.293l-1.777-1.658c-2.888-2.677-5.748-5.254-8.973-7.529 1.39-5.251 4.804-7.873 9-11 3.208-1.604 6.52-1.475 10-1z" fill="#c35356"/><path d="M83.875 126.5c4.157.665 6.06 1.574 9.125 4.5.802 2.626 1.243 5.132 1.578 7.855L95 141l2 1c-.875 6.75-.875 6.75-2 9-7.987-1.515-15.401-4.168-23-7 .784-6.688 2.744-10.142 6.875-15.375C81 127 81 127 83.875 126.5z" fill="#c3575a"/><path d="M234 230c3.808 3.657 7.108 7.496 10.313 11.688l1.376 1.76C249 247.752 249 247.752 249 250h-13l4 7-4 3c-14.332-13.997-14.332-13.997-16-19 2.795-2.63 4.306-3.932 8.188-4.313C231 237 231 237 233 238l-2-5z" fill="#307d9d"/><path d="M251 205l9 4-1 2c-.25 3.5-.25 3.5 0 7l2 2c2.575-.165 2.575-.165 5-1l1-2-5-1 1-5c4.72 0 6.27 1.288 10 4-1.657 6.326-4.523 10.349-10 14-4.752.467-7.036.491-11.313-1.688-3.85-3.312-5.425-5.573-6.187-10.625.672-4.957 2.639-7.61 5.5-11.687z" fill="#327e9d"/><path d="M136 247c6.4.37 6.4.37 9.438 3.563L147 253l1-2 6 2-9 22h-2c-1.508-2.188-1.508-2.188-3.125-5l-1.633-2.813L137 265c-1.938 2.773-1.938 2.773-3 5l-5-1c.829-7.956 3.817-14.725 7-22z" fill="#317d9d"/><path d="M144 70c1.316 3.62 2 6.096 2 10l-4 1v3l6-2v5h-4l2 3 5-1c-.195 2.352-.195 2.352-1 5-2.18 1.398-2.18 1.398-4.875 2.375l-2.68 1.023C140 98 140 98 137 97c-1.075-1.702-1.075-1.702-2.043-3.895l-1.064-2.396-1.08-2.521-1.116-2.487C129.977 81.764 129 79.391 129 75c2.123-.837 4.249-1.67 6.375-2.5l3.586-1.406C142 70 142 70 144 70z" fill="#c15154"/><path d="M113 229c4.51 2.46 8.185 5.603 12 9-.756 3.786-2.126 5.404-5 8l-6-2 3 5c-1.75 1.125-1.75 1.125-4 2-2.25-.875-2.25-.875-4-2l-1 2h2v2h2l-1 3c-5.352-.324-8.283-3.497-12-7 .512-4.287 1.801-6.328 4.75-9.438l2.172-2.335L108 235a362.971 362.971 0 0 0 5-6z" fill="#307c9c"/><path d="M245 93c3.41 1.605 5.618 3.405 8.25 6.125l2.14 2.195L257 103c-1.267 3.8-2.586 4.952-6 7-3.313-.75-3.313-.75-6-2l2 5-4 1-1-3-2 1 2 6-4 2a413.483 413.483 0 0 1-3.438-3.75l-1.933-2.11c-1.697-2.23-2.366-3.373-2.629-6.14 1.263-1.831 1.263-1.831 3.184-3.672l2.06-2.012 2.193-2.066 2.182-2.113A596.129 596.129 0 0 1 245 93z" fill="#c14f52"/><path d="M144 239h62c-2.465 2.465-4.505 2.99-7.813 4.063l-3.144 1.035c-14.254 4.226-33.395 4.094-47.043-2.098l-4-3z" fill="#e6e1e2"/><path d="M95 202c3 1 3 1 4.75 3.25 1.25 2.75 1.25 2.75 1.188 5.375-1.12 2.838-2.37 3.801-4.938 5.375l8-1 2 5-25 4-2-5 2.063-2.063 1.374-1.378a523.582 523.582 0 0 1 3.313-3.274C89.075 209.01 92.174 205.73 95 202z" fill="#2e7b9c"/><path d="M217 74l10 5-1.645 3.07-2.167 4.055-1.08 2.016A415.704 415.704 0 0 0 216 100c-3.375-.547-5.082-1.055-8-3 .667-8.22 5.286-15.767 9-23z" fill="#c25256"/><path d="M209 248c1.172 3.457 2.336 6.916 3.5 10.375l1.012 2.984.957 2.852.888 2.634C216 269 216 269 216 271l-8 3a6045.854 6045.854 0 0 1-3.375-7.188l-.96-2.04C199 254.811 199 254.811 199 251c6.625-3 6.625-3 10-3z" fill="#317d9d"/><path d="M207 104c5.65.398 9.084 1.96 13.375 5.5l1.702 1.368C231.499 118.556 238.09 126.414 244 137l1.246 2.215c1.058 2.504.465 4.225-.246 6.785-2.299-2.899-4.012-5.832-5.688-9.125-7.014-12.99-16.577-21.344-28.87-29.176C208 106 208 106 207 104z" fill="#be585b"/><path d="M214 237c-1 3-1 3-3.922 4.719-1.269.61-2.545 1.202-3.828 1.781l-2.055.932c-11.687 5.122-22.627 6.004-35.195 5.568v-1l14-1-14-1v-1l3.55-.113c12.794-.497 23.072-2.595 34.821-7.899C210 237 210 237 214 237z" fill="#bd595c"/><path d="M157 192h2l1 4h6l-2 3c-.167 2.625-.167 2.625 0 5h2v2h-6l-1 4h-2v-5l-7 1v-2l3-2-.938-1.875L150 196l6 1 1-5z" fill="#c15e61"/><path d="M126 192h2l1 5 6-1-2 3c.257 2.03.257 2.03 1 4l1 3h-6l-2 4-.688-1.938c-1.165-2.334-1.165-2.334-3.937-2.812L120 205l1.125-2.25c1.17-2.693 1.17-2.693 0-5.063L120 196l6 1v-5z" fill="#c2585b"/><path d="M219 192c2 2 2 2 2 5l6-1v2l-2 1 .5 1.813C226 203 226 203 226 206l-5-1-1 5-2-2v-3h-6l1.125-2.25c1.17-2.693 1.17-2.693 0-5.063L212 196l6 1 1-5z" fill="#c15c5f"/><path d="M188 192h2l1 4h6l-1.625 1.688L194 200c.71 2.734.71 2.734 2 5h-6v5h-2l-1-4-5-1 .625-2.813c.742-3.339.742-3.339-1.625-6.187l7 1v-5z" fill="#c15a5d"/><path d="M165 95c16.289-.6 30.21.605 45 8l-2 3-1.615-.562c-5.759-1.966-11.555-3.612-17.447-5.125l-2.624-.682A3034.08 3034.08 0 0 0 180 98v-1l-15-1v-1z" fill="#c3696c"/><path d="M246 143c2.407 2.407 2.791 4.114 3.688 7.375l.824 2.898c.494 2.76.358 4.117-.512 6.727a446.93 446.93 0 0 0-1 6h-1l-.367-2.852-.508-3.773-.492-3.727c-.52-3.64-.52-3.64-1.828-6.921L244 146l2-3z" fill="#c06569"/><path d="M127 113c-.573 3.53-1.778 5.089-4.375 7.5-2.033 1.933-3.758 3.679-5.438 5.938L116 128h-2c1.275-4.782 2.948-7.45 6.5-10.875l2.406-2.367C125 113 125 113 127 113z" fill="#bd5255"/><path d="M222 145h1v22h-2c-1.225-5.666-1.092-11.237-1-17h1l1-5z" fill="#d8e5eb"/><path d="M130 113l2 1-15 15-2-1c1.746-1.941 3.496-3.878 5.25-5.813l1.488-1.658c2.58-2.837 5.068-5.362 8.262-7.529z" fill="#e9d9d9"/><path d="M169 246h18l1 3c-3.763 1.254-7.272 1.107-11.188 1.063l-2.271-.014c-1.847-.012-3.694-.03-5.541-.049v-1l14-1-14-1v-1z" fill="#cb8487"/><path d="M258 211l1 4 3-1v2l5 1-1 3c-2.313.688-2.313.688-5 1-1.813-1-1.813-1-3-3-.188-3.688-.188-3.688 0-7z" fill="#d0dbe1"/><path d="M173.25 95.938l2.258.013c1.83.012 3.661.03 5.492.049l-1 2-20 1c1-2 1-2 2.82-2.619 3.46-.605 6.93-.484 10.43-.444z" fill="#be4b4e"/><path d="M248 179c2.39 3.584 2.96 6.767 3 11-.938 3.5-.938 3.5-2 6-1.55-1.05-1.55-1.05-3-3 .145-3.355.145-3.355.813-7.188l.644-3.855L248 179z" fill="#c2686b"/><path d="M126 192h2l1 5 6-1c-1.207 1.52-1.207 1.52-3 3-2.262.074-2.262.074-4.688-.313l-2.449-.363L123 198l-1 2-2-4 6 1v-5z" fill="#bf6569"/><path d="M223 115c2.913.086 4.568.58 6.668 2.625A127.43 127.43 0 0 1 234 123l-3 1c-1.336-1.31-2.669-2.623-4-3.938l-2.25-2.214C223 116 223 116 223 115z" fill="#bb4f53"/><path d="M176 265l4 1c.125 5.75.125 5.75-1 8h-3v-9z" fill="#dae2e6"/><path d="M207 154l3 1-1 12h-2v-13z" fill="#d4e2e9"/><path d="M197 244v2c-3.634 2.326-6.77 2.163-11 2l1-3c3.406-.778 6.508-1.1 10-1z" fill="#bd5558"/><path d="M102 94l2 1c-6.15 7.483-6.15 7.483-10 10l-1-2a591.616 591.616 0 0 1 2.813-3.375l1.582-1.898C99 96 99 96 102 94z" fill="#c15e61"/><path d="M130 109l4 2-7 5-1-4 4-3z" fill="#c05e62"/><path d="M204 242l-3 1v3l-6 1 2-1-1-3c4.625-2.125 4.625-2.125 8-1z" fill="#c3696c"/><path d="M238 112l4 4-2 4h-2c-.8-3.287-1.097-4.71 0-8z" fill="#bf5a5d"/><path d="M193.043 96.926L199 98l-1 3-10-1c3-3 3-3 5.043-3.074z" fill="#c06164"/><path d="M103 152h1v7l3 1-1.938.313L103 161l-1 3a559.991 559.991 0 0 1-.063-4.313l-.035-2.425C102 155 102 155 103 152z" fill="#d6cacf"/><path d="M242 202l1 2h2l-2 6-1-2h-2l2-6z" fill="#c2676a"/><path d="M100 151c1.784 3.062 2.229 5.22 2.125 8.75l-.055 2.422L102 164c-1.563-1.438-1.563-1.438-3-4 .032-3.054.467-5.997 1-9z" fill="#c1696d"/><path d="M148 83l2 4-4 4-2-1v-3h4v-4z" fill="#ead5d4"/><path d="M228 223l2 1-1.938 2.313c-2.204 2.57-2.204 2.57-3.062 5.687l-1-2-2-1z" fill="#be6569"/><path d="M246 143c2.762 2.762 2.579 5.207 3 9l-2-3-2 1c-.625-1.813-.625-1.813-1-4l2-3z" fill="#c26a6d"/><path d="M245 107c2.468 1.152 4.048 2.048 6 4l-4 2-3-5z" fill="#e6cdcd"/><path d="M151 89l-1 5-3 1-1-5c2-1 2-1 5-1z" fill="#c05f62"/><path d="M158 246h11c-4 3-4 3-8 3v-2l-3-1z" fill="#bf5b5e"/><path d="M101 215h3l2 5-6-1z" fill="#3e84a0"/><path d="M246 148c2 1 2 1 3.125 4.063L250 155h-2l-1 3-1-10z" fill="#bf575a"/><path d="M245 245h2l2 5h-8v-1h5l-1-4z" fill="#538ea6"/></svg>