<svg height="1857" viewBox="68 50 1551 1146" width="2500" xmlns="http://www.w3.org/2000/svg"><path d="m759 50h34l184 1 5 10 17 42 16 39 18 44 20 49 18 44 20 49 16 39 13 32 18 44 17 41 10 25 2-2 8-20 11-25 12-29 25-60 8-19 18-43 13-31 15-36 36-86 12-29 10-24 18-43 5-10 1-1h260l-1 5-12 29-57 135-16 38-17 40-38 90-17 40-16 38-17 40-38 90-17 40-16 38-17 40-38 90-13 31-3 5h-261l-8-16-16-38-13-31-68-160-13-31-9 6-18 13-16 10-26 14-18 8-28 10-40 10-28 5-30 4-31 2-42 1h-93v192l-2 1h-265l-1-11v-776l1-2zm-194 206-37 1v183l1 1h106l14-1 22-5 16-6 12-7 12-11 9-12 7-15 4-16 1-7v-27l-3-15-5-13-7-13-11-13-15-10-14-6-13-4-22-3-60-1z" fill="#104486"/><path d="m759 50h34l184 1 5 10 17 42 16 39 18 44 20 49 18 44 20 49 16 39 13 32 18 44 17 41 10 25 2-2 8-20 11-25 12-29 25-60 8-19 18-43 13-31 15-36 36-86 12-29 10-24 18-43 5-10 1-1h260l-1 5-12 29-57 135-16 38-17 40-38 90-17 40-16 38-17 40-38 90-17 40-16 38-17 40-38 90-13 31-3 5h-261l-8-16-16-38-13-31-68-160-11-27v-6l20-20 7-8 13-17 12-18 12-22 8-19 9-27 5-22 4-25 1-8v-55l-4-28-6-27-11-33-11-23-10-17-11-16-16-20-20-20-11-9-9-7-10-7-13-8-14-8-23-11-19-8-27-9-32-8-21-4-23-3-13-2-2-2z" fill="#ac1d1a"/><path d="m933 918 2 2-15 15-7 8-14 15-11 12-13 14 1 4 11 13 7 9 11 14 8 10 22 28 3 5-3 1h-35l-5-5-9-10-11-14-12-14-11-14-4 1-7 8-9 9-1 38-4 1h-30l-1-3 1-146h34l1 68 8-8 7-8 10-10 1-2h2l2-4 12-12 7-8 16-16zm64 1h112v27l-3 1-75-1v33h69v26l-57 1h-11l-1 34h80l1 1v26l-7 1h-108l-1-99v-49z" fill="#000103"/><path d="m440 919h33l5 8 12 27 17 38 20 45 11 25 2 5-5 1h-30l-3-4-11-27-70-1-3 10-7 16-2 5-2 1h-33l-1-2 10-21 18-41 18-40 18-41zm16 35-7 15-14 34-2 7h47l-6-16-16-39z" fill="#000204"/><path d="m1401 916h15l21 3 15 5 9 5-1 5-8 20-3 1-16-7-14-3h-21l-10 4-5 6-1 8 3 6 10 5 26 7 20 6 11 6 9 8 5 9 2 9v11l-3 10-5 9-4 5-8 6-10 5-14 4-6 1h-29l-19-4-18-7-8-6 8-19 3-6 4 1 14 7 17 5 9 1h13l10-2 8-5 3-6-1-7-4-5-12-5-30-8-15-5-10-6-8-8-5-10-1-4v-16l4-12 8-11 10-7 11-5 12-3zm-738 0h12l16 2 12 4 13 7 10 8 4 4-2 4-9 9-7 6-1 2-5-1-8-7-12-6-13-2-13 1-10 3-10 6-9 10-5 12-2 9v13l3 12 6 11 4 5 9 6 12 5 5 1h16l13-4 10-7 5-5 4 1 9 9 8 7 2 3-7 8-13 9-12 5-17 4h-25l-17-4-16-8-11-8-9-10-7-11-6-16-2-13v-14l3-15 5-13 7-11 9-10 10-8 16-8 15-4z" fill="#000103"/><path d="m229 919h87v94l-1 16-4 15-7 11-8 7-10 5-13 3h-23l-16-5-12-7-7-6-1-4 13-16 4-5 4 1 5 6 14 7h13l8-4 4-6 1-4 1-80-52-1z" fill="#000203"/><path d="m1165 919h129l1 1v26l-2 1h-46v120l-3 1h-31l-1-1v-121l-2 1h-45l-1-7v-19z" fill="#000306"/><path d="m1556 929 3 3 8 27 4 11 44 1v2l-14 10-17 12-3 2 1 7 11 34v2l-5-1-13-10-16-12h-5l-19 14-11 8-4 1 1-5 9-29 2-5-1-4-19-14-14-10-1-2 46-1 2-9 10-31zm-1430 8 3 3 11 34 1 4 46 1-4 4-17 12-15 11 10 32 3 10-5-1-13-10-16-12-4-1-19 14-14 10-3-1 12-36 1-5-16-12-16-11-3-4 44-1 5-13 6-18 2-9z" fill="#000103"/><path d="m1012 1121h33l12 1 10 5 4 6 1 3v10l-6 10-1 2 8 6 3 6v11l-6 9-8 4-5 1-28 1h-16l-1-1zm11 9v24h25l8-2 5-6 1-6-2-5-5-4-5-1zm0 32-1 4v14l1 8 32-1 7-3 3-4 1-6-3-7-3-3-3-1-16-1z" fill="#01060d"/><path d="m1389 1121h7l8 7 11 14 14 17 12 15v2h2l-1-10 1-45h10v74l-1 1-7-1-5-5-9-10-11-14-13-16-6-8-2 53-1 1h-8l-1-1z" fill="#000306"/><path d="m1524 1121h31l14 2 12 6 7 7 6 12 1 5v10l-2 9-5 9-8 8-12 5-5 1-33 1h-6l-1-1v-73zm19 9-9 1-1 55 1 1h22l10-2 8-4 7-8 3-9v-10l-3-10-7-8-8-4-3-1-11-1z" fill="#01050a"/><path d="m802 1121h32l15 2 11 6 8 8 5 11 1 5v10l-2 9-6 10-9 8-10 4-6 1-37 1-2-1zm21 9-10 1-1 2v53l1 1h23l12-3 6-4 6-7 3-9v-11l-3-9-6-7-7-4-5-2z" fill="#010409"/><path d="m1141 1121h28l15 2 9 6 6 8 1 3v14l-4 8-5 5-6 4 7 11 8 10v3l-6 1-5-2-9-12-5-7v-2l-24 1v21l-1 1h-9l-1-1v-73zm11 9-1 1-1 32 1 1h24l8-3 6-7 1-9-3-8-6-5-3-1z" fill="#01060c"/><path d="m205 1121h30l14 2 8 5 6 7 2 5v14l-4 8-8 7-4 1 13 19 3 4-1 3-9-1-8-10-8-11h-23v21l-2 1h-8l-1-1zm12 9-2 7v26l1 1h24l8-3 6-7 1-9-3-8-6-5-3-1z" fill="#010409"/><path d="m731 1121 5 1v7l-1 1-41 1v22h37v9l-37 1v23l43 1v8l-23 1h-30l-1-1v-73z" fill="#000307"/><path d="m1289 1121h7l3 3 16 36 8 17 7 16v3h-7l-4-2-8-16h-39l-7 16-3 2-8-1 1-4 10-23 18-40 4-6zm2 12-13 29-2 7h31l-1-5-11-26-3-5z" fill="#010409"/><path d="m329 1121h10l1 50 3 8 5 5 5 2h14l8-4 4-7 1-6 1-48h10l1 5-1 47-3 9-8 9-8 4-4 1h-17l-9-3-7-6-5-10-2-11v-44z" fill="#01060c"/><path d="m474 1121h20l11 3 2 2v8l-3 1-11-4-12-1-10 3-3 3-1 6 2 5 7 4 21 6 8 4 5 6 2 8-2 9-6 7-8 4-5 1h-17l-13-4-6-4 1-7h4l13 5 14 1 8-2 5-5v-7l-5-5-26-8-8-5-4-6-1-10 3-8 5-5z" fill="#01050a"/><path d="m564 1121h60l1 1v7l-1 1-25 1v64l-1 1h-8l-1-1-1-64h-10l-14-1-1-2v-6z" fill="#010409"/><path d="m85 1121h60l1 1v8l-25 1-1 64-1 1h-8l-1-1-1-64-24-1-1-8z" fill="#000205"/></svg>