<svg height="2499" viewBox="0 0 431.81 431.7" width="2500" xmlns="http://www.w3.org/2000/svg"><path d="m369.37 62.85c-37.31-37.31-85.85-59.3-138-62.85v20.05c87.85 6.67 159.72 71.4 177.25 155.8h-39.95c-16.47-62.9-70.88-110.45-137.31-116.73v313.46c73.3-6.93 131.97-64.11 141.18-136.73h-54.37l-67.96 49.93v-49.64l54.84-40.3h126.76c-4.58-50.24-26.34-96.88-62.45-133zm-128.01 367.86c-4.99 0-9.3-3.73-9.92-8.8-.66-5.48 3.25-10.46 8.73-11.13 87.66-10.59 157.77-79 170.5-166.37.8-5.46 5.86-9.25 11.34-8.45 5.46.8 9.25 5.87 8.45 11.34-14.02 96.28-91.29 171.68-187.89 183.35-.41.05-.81.07-1.21.07z" fill="#f02b3c"/><path d="m63.37 62.85c-40.86 40.87-63.37 95.21-63.37 153s22.51 112.13 63.37 153c37.31 37.31 85.85 59.31 138 62.85v-431.7c-52.15 3.55-100.69 25.54-138 62.85zm119.15-.78c-64.33 14.09-113.93 67.51-122.33 133.78h67.49l54.84 40.3v49.64l-67.96-49.93h-54.37c8.4 66.27 58 119.69 122.33 133.78v39.67c-92.21-16.09-162.52-96.71-162.52-193.45s70.32-177.37 162.52-193.46z" fill="#0050ff"/><path d="m158.55 127.05-9.38-28.86-9.37 28.86h-30.34l24.54 17.83-9.37 28.86 24.54-17.84 24.55 17.84-9.37-28.86 24.54-17.83zm-98.36 68.8c8.4-66.27 58-119.69 122.33-133.78v-39.67c-92.2 16.09-162.52 96.71-162.52 193.45s70.32 177.36 162.52 193.45v-39.67c-64.33-14.09-113.93-67.51-122.33-133.78h54.37l67.96 49.93v-49.64l-54.84-40.3h-67.49z" fill="#fff"/></svg>