<svg clip-rule="evenodd" fill-rule="evenodd" height="1391" image-rendering="optimizeQuality" shape-rendering="geometricPrecision" text-rendering="geometricPrecision" viewBox="54.063 325.475 1432.897 228.358" width="2500" xmlns="http://www.w3.org/2000/svg"><path d="m847.5 328.5c-1.667 1.333-3.333 1.333-5 0 1.667-1.333 3.333-1.333 5 0z" fill="#c5c3c3" opacity=".455"/><path d="m534.5 327.5h13c.291 1.149 1.124 1.816 2.5 2 1.07-.028 1.903-.361 2.5-1h2c1.974 1.787 4.474 2.787 7.5 3 .765-.07 1.265-.403 1.5-1h2c35.335 15.575 57.835 42.242 67.5 80 .377 1.442 1.21 2.442 2.5 3v2c-1.257 1.123-.924 1.789 1 2v2c-.639.597-.972 1.43-1 2.5a150.709 150.709 0 0 1 1.5 10.5c.383-.556.883-.889 1.5-1v4c-1.333 4-1.333 8 0 12v5c-1.193.47-1.86 1.47-2 3 .02 1.226.353 2.226 1 3v2c-2.052.553-2.385 1.553-1 3v2c-3.903 11.483-8.736 22.816-14.5 34a462.002 462.002 0 0 1 -14.5 20c-22.411 21.249-49.078 31.249-80 30h-2c-1.974-1.787-4.474-2.787-7.5-3-.765.07-1.265.403-1.5 1h-2c-35.825-13.334-59.159-38.501-70-75.5-.336-1.03-1.003-1.53-2-1.5v-2c1.082-1.827 1.082-3.827 0-6-.247-1.213-.914-1.88-2-2v-6c1.152-5.485 1.318-11.151.5-17-.383-.556-.883-.889-1.5-1v-5c.617.111 1.117.444 1.5 1 .81-3.858.643-7.524-.5-11v-2c1.787-1.974 2.787-4.474 3-7.5-.07-.765-.403-1.265-1-1.5v-2c1.924-.211 2.257-.877 1-2v-2c5.041-12.073 11.207-23.739 18.5-35 19.032-24.548 43.198-38.548 72.5-42zm-4 51h2c6.824 2.689 11.991 7.355 15.5 14 6.47 12.594 11.636 25.594 15.5 39v2a660.276 660.276 0 0 0 4 21v8c-.306 2.885.027 5.552 1 8v2c-.951 1.419-1.284 3.085-1 5v3c-1.202 6.404-4.202 11.904-9 16.5-9.053 3.215-16.887 1.382-23.5-5.5-8.138-13.93-14.305-28.597-18.5-44v-2c.172-.992-.162-1.658-1-2v-2a216.48 216.48 0 0 0 -3-13v-4c.237-1.291-.096-2.291-1-3v-4-15-3c.945-5.722 3.111-11.056 6.5-16 3.33-3.748 7.497-5.415 12.5-5z" fill="#1a1311" opacity=".997"/><path d="m547.5 327.5c1.915-.284 3.581.049 5 1-.597.639-1.43.972-2.5 1-1.376-.184-2.209-.851-2.5-2z" fill="#918e8e" opacity=".667"/><path d="m161.5 329.5v2c-2.885.306-5.552-.027-8-1 2.448-.973 5.115-1.306 8-1z" fill="#c4c2c1" opacity=".496"/><path d="m161.5 329.5c4.532-.318 8.866.015 13 1-4.134.985-8.468 1.318-13 1z" fill="#8c8988" opacity=".627"/><path d="m282.5 330.5a308.5 308.5 0 0 1 -25 1.5c-4.494.663-8.661 2.163-12.5 4.5-.399-.228-.565-.562-.5-1 4.079-3.087 8.746-4.92 14-5.5 8.177-.823 16.177-.656 24 .5z" fill="#6e6a69" opacity=".514"/><path d="m322.5 329.5h19v2h-19z" fill="#544e4e" opacity=".509"/><path d="m554.5 328.5c3.281-.08 6.281.587 9 2-.235.597-.735.93-1.5 1-3.026-.213-5.526-1.213-7.5-3z" fill="#7f7b7a" opacity=".667"/><path d="m731.5 329.5c-9.169-.657-16.669 2.676-22.5 10-6.927 10.848-12.427 22.182-16.5 34 2.754-12.774 7.921-24.441 15.5-35 6.036-8.282 13.869-11.282 23.5-9z" fill="#7c7978" opacity=".333"/><path d="m839.5 328.5c.111.617.444 1.117 1 1.5-2.212.789-4.212.622-6-.5 1.419-.951 3.085-1.284 5-1z" fill="#7b7877" opacity=".667"/><path d="m839.5 328.5h3c1.667 1.333 3.333 1.333 5 0h2c13.713 8.86 22.713 21.36 27 37.5.336 1.03 1.003 1.53 2 1.5v2c-1.134 2.466-1.301 5.133-.5 8 .383-.556.883-.889 1.5-1v10c-1.149.291-1.816 1.124-2 2.5a62.1 62.1 0 0 1 -3.5 13.5c-3.639 4.206-7.806 7.539-12.5 10h-7c-5.641-2.276-10.474-5.943-14.5-11a267.498 267.498 0 0 0 -11-19 14.972 14.972 0 0 0 -3.5-3c-.607.124-.94.457-1 1h-3c-1.632.696-2.965 2.362-4 5 .124.607.457.94 1 1v3c-.617-.111-1.117-.444-1.5-1a162.597 162.597 0 0 0 -.5 18c-.326 8.849.007 17.516 1 26v15a120.655 120.655 0 0 0 0 31v12c-.624.417-.957 1.084-1 2 .247 1.213.914 1.88 2 2v2c-.543.06-.876.393-1 1 3 7.667 8.333 13 16 16a694.383 694.383 0 0 0 6 8v5c-4.535 11.336-13.035 17.669-25.5 19-1.03.336-1.53 1.003-1.5 2h-3c-1.447-1.385-2.447-1.052-3 1h-4c-.417-.624-1.084-.957-2-1-1.213.247-1.88.914-2 2h-7c-6-1.333-12-1.333-18 0h-5c-.291-1.149-1.124-1.816-2.5-2-1.07.028-1.903.361-2.5 1h-3c-.553-2.052-1.553-2.385-3-1h-3c-1.219-1.801-3.052-2.801-5.5-3-.765.07-1.265.403-1.5 1h-2c-3.2-2.614-6.867-4.781-11-6.5-9.69-8.142-10.357-16.809-2-26 5.879-1.736 10.379-5.236 13.5-10.5.692-.937.525-1.603-.5-2v-2c1.545-.73 2.378-2.063 2.5-4 .765-1.566.598-2.899-.5-4v-3c1.287-1.371 1.953-3.205 2-5.5-.006-2.033-.339-3.866-1-5.5v-13c1.305-1.897 1.971-4.231 2-7-.003-2.525-.337-4.859-1-7v-8c.617.111 1.117.444 1.5 1 .498-3.317.665-6.65.5-10v-11-30c-.062-4.834-1.896-8.834-5.5-12-.399.228-.565.562-.5 1h-2c-.06-.543-.393-.876-1-1a111.06 111.06 0 0 0 -14.5 20c-5.177 6.381-11.677 10.381-19.5 12h-2c-6.125-3.142-10.125-8.142-12-15-.457-.798-1.124-1.131-2-1v-2c1.385-1.447 1.052-2.447-1-3v-9c1.447-.634 2.113-1.801 2-3.5-.028-1.07-.361-1.903-1-2.5v-2c4.073-11.818 9.573-23.152 16.5-34 5.831-7.324 13.331-10.657 22.5-10h2c.291 1.149 1.124 1.816 2.5 2 1.07-.028 1.903-.361 2.5-1h2c1.014 1.265 2.514 1.931 4.5 2 6.143.784 12.31 1.117 18.5 1 3.213.31 6.213-.023 9-1h14c2.646.664 5.479.998 8.5 1 3.252-.019 6.085-.686 8.5-2h8c2.448.973 5.115 1.306 8 1a783.45 783.45 0 0 1 13-1.5c-.556-.383-.889-.883-1-1.5h3c1.788 1.122 3.788 1.289 6 .5-.556-.383-.889-.883-1-1.5z" fill="#1a1311" opacity=".997"/><path d="m924.5 330.5c-2.667 1.333-5.333 1.333-8 0 2.667-1.333 5.333-1.333 8 0z" fill="#d4d2d2" opacity=".556"/><path d="m1257.5 374.5v3c-1.82 3.962-3.99 7.962-6.5 12-2.41 1.587-4.57 3.253-6.5 5h-5a95.064 95.064 0 0 0 -8.5-7c-3.93-10.469-11.09-16.469-21.5-18h-2c-.38-1.431-1.38-2.264-3-2.5a67.695 67.695 0 0 0 -17-1.5c-1.79-.134-3.46.199-5 1-7.6-.072-12.26 3.594-14 11-.31 2.885.03 5.552 1 8v13c-.65.949-.99 2.115-1 3.5.11 1.681.77 2.848 2 3.5v4c-1.86 5.835.3 9.502 6.5 11 .76-.07 1.26-.403 1.5-1h2c3.5.844 6.33-.489 8.5-4 2.33-4.282 3.17-8.615 2.5-13v-2c1.95-1.853 3.45-4.186 4.5-7 5.67-5.333 11.33-5.333 17 0 3.3 7.227 5.8 14.727 7.5 22.5.34 1.03 1 1.53 2 1.5v5c-.62.417-.96 1.084-1 2 .25 1.213.91 1.88 2 2v8c-1.29 1.548-1.96 3.548-2 6 0 2.196.34 4.196 1 6v3c-1.23.652-1.89 1.819-2 3.5.01 1.385.35 2.551 1 3.5v3c-2.29 6.298-5.29 12.464-9 18.5.23.399.56.565 1 .5a6.575 6.575 0 0 1 -3 3c.07-.438-.1-.772-.5-1-6.79 3.774-11.79 2.107-15-5a167.12 167.12 0 0 1 -2.5-8.5c-.34-1.03-1-1.53-2-1.5v-2c.27-4.713-2.07-8.047-7-10-.61.124-.94.457-1 1h-4c-3.88-.502-6.21 1.498-7 6 .04.916.38 1.583 1 2v3c-1.19.47-1.86 1.47-2 3 .02 1.226.35 2.226 1 3v16c-.62.417-.96 1.084-1 2 .25 1.213.91 1.88 2 2v5c-1.27 5.347.4 9.847 5 13.5 7.67 2.478 15.34 2.978 23 1.5h4c15.27-.701 26.27-8.201 33-22.5-.23-.399-.56-.565-1-.5v-1c2.95-3.187 5.45-6.854 7.5-11 1.88-2.524 4.38-3.858 7.5-4 2.98-.699 5.82-.032 8.5 2 .4-.228.57-.562.5-1 1 .333 1.67 1 2 2-.44-.065-.77.101-1 .5 2.66 4.87 4.99 9.703 7 14.5v10c-1.09.12-1.75.787-2 2 .04.916.38 1.583 1 2v3c-1-.03-1.66.47-2 1.5-2.56 12.443-7.56 23.776-15 34 .23.399.56.565 1 .5a6.575 6.575 0 0 1 -3 3c.07-.438-.1-.772-.5-1-4.13 1.486-8.3 2.486-12.5 3h-3c-1.09-1.617-2.76-2.45-5-2.5a60.931 60.931 0 0 0 -11-.5c-4.53-.318-8.87.015-13 1h-6c-2.59-1.316-5.59-1.983-9-2-3.41.017-6.41.684-9 2h-76c-1.85-1.946-4.19-3.446-7-4.5-2.62-2.449-4.96-4.949-7-7.5v-2c.78-6.953 4.44-11.787 11-14.5a25.571 25.571 0 0 0 5.5-6.5c2.2-6.034 3.03-12.034 2.5-18v-4c1.31-2.243 1.98-4.91 2-8 0-2.855-.34-5.522-1-8v-14c1.87-2.135 2.54-4.802 2-8v-18c.63-7.743-.04-15.076-2-22v-3c.66-1.122.99-2.455 1-4-.09-1.833-.75-3.166-2-4v-7c.96-1.765 1.29-3.765 1-6 .34-1.983-.32-3.317-2-4v-3c-.21-9.455-4.88-16.288-14-20.5-1.1-2.757-2.77-4.924-5-6.5v-3c1.33-.667 1.33-1.333 0-2v-2c1.64-1.249 2.8-2.916 3.5-5 3.22-2.822 6.38-5.489 9.5-8h3c1.29.658 2.79.992 4.5 1 1.99-.069 3.49-.735 4.5-2h18c6.8 1.331 13.97 1.997 21.5 2 7.53-.003 14.7-.669 21.5-2h10c1.97.663 4.14.996 6.5 1 2.61-.033 4.78-.7 6.5-2h7c1.29.658 2.79.992 4.5 1 1.99-.069 3.49-.735 4.5-2h8c.71.904 1.71 1.237 3 1 11.03-4.54 19.2-1.54 24.5 9 5.3 10.847 8.13 22.18 8.5 34z" fill="#1a1311" opacity=".997"/><path d="m1327.5 330.5c-5.67 1.333-11.33 1.333-17 0 5.67-1.333 11.33-1.333 17 0z" fill="#c5c3c3" opacity=".487"/><path d="m1422.5 330.5c-3 1.333-6 1.333-9 0 3-1.333 6-1.333 9 0z" fill="#c5c3c3" opacity=".475"/><path d="m142.5 330.5v2c-1.915.284-3.581-.049-5-1 1.419-.951 3.085-1.284 5-1z" fill="#c3c2c1" opacity=".493"/><path d="m322.5 329.5v2c-2.235.295-4.235-.039-6-1 1.765-.961 3.765-1.295 6-1z" fill="#9c9a99" opacity=".667"/><path d="m341.5 329.5c2.885-.306 5.552.027 8 1-2.448.973-5.115 1.306-8 1z" fill="#9d9a9a" opacity=".667"/><path d="m355.5 330.5c1.599-.268 2.932.066 4 1-.417.624-1.084.957-2 1-1.213-.247-1.88-.914-2-2z" fill="#aeacab" opacity=".48"/><path d="m534.5 327.5c-29.302 3.452-53.468 17.452-72.5 42-7.293 11.261-13.459 22.927-18.5 35 10.136-32.969 30.802-56.802 62-71.5a100.074 100.074 0 0 1 29-5.5z" fill="#757170" opacity=".667"/><path d="m733.5 329.5c1.915-.284 3.581.049 5 1-.597.639-1.43.972-2.5 1-1.376-.184-2.209-.851-2.5-2z" fill="#8e8b8a" opacity=".667"/><path d="m819.5 330.5v2c-2.885.306-5.552-.027-8-1 2.448-.973 5.115-1.306 8-1z" fill="#b3b1b0" opacity=".493"/><path d="m831.5 329.5c.111.617.444 1.117 1 1.5a783.45 783.45 0 0 0 -13 1.5v-2z" fill="#5c5756" opacity=".556"/><path d="m999.5 330.5a61.015 61.015 0 0 1 -22 0 61.015 61.015 0 0 1 22 0z" fill="#aba9a8" opacity=".667"/><path d="m1224.5 329.5v2c-1.29.237-2.29-.096-3-1 .71-.904 1.71-1.237 3-1z" fill="#c2bfbf" opacity=".667"/><path d="m1303.5 330.5c-.55 2.052-1.55 2.385-3 1 .71-.904 1.71-1.237 3-1z" fill="#bdbbba" opacity=".488"/><path d="m129.5 331.5c.111.617.444 1.117 1 1.5-2.212.789-4.212.622-6-.5 1.419-.951 3.085-1.284 5-1z" fill="#b8b6b5" opacity=".491"/><path d="m142.5 330.5h6c.111.617.444 1.117 1 1.5-2.31.497-4.643.663-7 .5z" fill="#777373" opacity=".667"/><path d="m148.5 330.5h5c2.448.973 5.115 1.306 8 1 4.532.318 8.866-.015 13-1h2c.291 1.149 1.124 1.816 2.5 2 1.735.726 3.235.726 4.5 0h2c11.312 5.438 21.479 12.771 30.5 22 5.61 7.386 9.777 15.552 12.5 24.5.336 1.03 1.003 1.53 2 1.5v2c-1.385 1.447-1.052 2.447 1 3v2c-1.138 2.804-1.305 5.804-.5 9 .383-.556.883-.889 1.5-1v10a760.525 760.525 0 0 1 -7.5 23c-5.467 12.115-13.634 21.949-24.5 29.5a370.202 370.202 0 0 1 -23 10.5h-2c-1.447-1.385-2.447-1.052-3 1h-6c-2.333-1.333-4.667-1.333-7 0h-5c-1.194-1.277-2.86-1.944-5-2-4.13-.602-7.13.898-9 4.5.228.399.562.565 1 .5v3c-.617-.111-1.117-.444-1.5-1a87.05 87.05 0 0 0 .5 22v2c.646 4.298 2.146 8.298 4.5 12a83.286 83.286 0 0 1 13.5 13v4c-1.605 1.98-2.772 4.313-3.5 7l-5.5 5.5-15 7.5h-2c-1.447-1.385-2.447-1.052-3 1a41.541 41.541 0 0 0 -8 1c-.417-.624-1.084-.957-2-1-1.213.247-1.88.914-2 2h-17c-.291-1.149-1.124-1.816-2.5-2-1.07.028-1.903.361-2.5 1h-3c-.12-1.086-.787-1.753-2-2a103.223 103.223 0 0 1 -23-7.5c-5.452-5.028-7.285-11.194-5.5-18.5l14-14c1.35-3.123 1.518-6.123.5-9v-4c1.914-3.184 2.58-6.851 2-11a992.816 992.816 0 0 0 -1-63v-43c.597-.235.93-.735 1-1.5a20.43 20.43 0 0 0 -3.5-6.5 153.337 153.337 0 0 0 -14-9c-4.588-5.648-5.255-11.648-2-18a63.697 63.697 0 0 0 6.5-7h2c1.123 1.257 1.79.924 2-1h4c2.128 1.129 4.462 1.296 7 .5-.556-.383-.89-.883-1-1.5h3a45.636 45.636 0 0 0 19 0h4c1.464.66 3.131.993 5 1 2.14-.056 3.806-.723 5-2h9c1.788 1.122 3.788 1.289 6 .5-.556-.383-.889-.883-1-1.5h8c1.419.951 3.085 1.284 5 1 2.357.163 4.69-.003 7-.5-.556-.383-.889-.883-1-1.5zm20 68v3a104.987 104.987 0 0 0 -2 12v2c-3.393 9.2-10.06 13.367-20 12.5a6.978 6.978 0 0 1 -3.5-2.5 159.141 159.141 0 0 0 -1.5-18v-28c-.19-8.28 3.81-11.113 12-8.5 5.098 1.433 8.598 4.6 10.5 9.5 2.161 5.979 3.661 11.979 4.5 18z" fill="#1a1311" opacity=".997"/><path d="m176.5 330.5c2.652-.09 4.985.576 7 2-1.265.726-2.765.726-4.5 0-1.376-.184-2.209-.851-2.5-2z" fill="#827e7e" opacity=".667"/><path d="m282.5 330.5h2c.111.617.444 1.117 1 1.5 2.31.497 4.643.663 7 .5 1.915.284 3.581-.049 5-1h5c2.128 1.129 4.461 1.296 7 .5-.556-.383-.889-.883-1-1.5h8c1.765.961 3.765 1.295 6 1h19c2.885.306 5.552-.027 8-1h6c.12 1.086.787 1.753 2 2 .916-.043 1.583-.376 2-1h2c.291 1.149 1.124 1.816 2.5 2 1.07-.028 1.903-.361 2.5-1h3a339.008 339.008 0 0 1 20 12.5c14.349 14.239 20.682 31.406 19 51.5a21.435 21.435 0 0 1 -1 7c-4.807 10.892-11.64 20.559-20.5 29a10.258 10.258 0 0 0 -1.5 4c1.059 2.568 2.726 4.735 5 6.5 9.655 5.101 16.155 12.934 19.5 23.5a139.319 139.319 0 0 1 4.5 12.5c.336 1.03 1.003 1.53 2 1.5v2c-.624.417-.957 1.084-1 2a130.406 130.406 0 0 1 1.5 7c.383-.556.883-.889 1.5-1v3c-.639.597-.972 1.43-1 2.5-.113 1.699.553 2.866 2 3.5v2c-.762 2.652-.262 5.318 1.5 8a674.49 674.49 0 0 0 15.5 13v3c-1.333.667-1.333 1.333 0 2v3c-2.604 5.13-6.271 9.63-11 13.5a371.367 371.367 0 0 0 -16 7.5h-3c-1.447-1.385-2.447-1.052-3 1h-7c-2.667-1.333-5.333-1.333-8 0h-3c-.553-2.052-1.553-2.385-3-1h-2a2528.639 2528.639 0 0 0 -17-10.5 36.548 36.548 0 0 1 -6.5-7.5 342.133 342.133 0 0 1 -15-44c-.417-1.256-1.25-1.923-2.5-2v-2c1.098-1.101 1.265-2.434.5-4-.236-1.619-1.069-2.619-2.5-3v-2c1.215-1.279.882-2.279-1-3v-2c-.143-5.072-2.809-8.905-8-11.5-4.026-1.337-7.026-.17-9 3.5.124.607.457.94 1 1v2c-1.225.652-1.892 1.819-2 3.5.014 1.385.348 2.551 1 3.5v16c-.624.417-.957 1.084-1 2 .247 1.213.914 1.88 2 2v4c-1.385 1.447-1.052 2.447 1 3v2c-1.257 1.123-.924 1.789 1 2v2c-.838.342-1.172 1.008-1 2a25.913 25.913 0 0 0 8 9c2.672 4.025 4.338 8.358 5 13v2c-1.747 1.928-3.413 4.094-5 6.5l-19 9.5h-2c-1.447-1.385-2.447-1.052-3 1h-4a78.644 78.644 0 0 0 -25 0h-3c-1.379-2.097-3.045-2.43-5-1h-2c.03-.997-.47-1.664-1.5-2a101.508 101.508 0 0 1 -18.5-6.5 48.135 48.135 0 0 1 -9-11.5v-5c1.747-1.481 2.914-3.481 3.5-6 6.696-4.849 11.196-11.182 13.5-19-.124-.607-.457-.94-1-1v-2c2.052-.553 2.385-1.553 1-3v-4c1.982-13.627 2.649-27.627 2-42v-16-25a60.931 60.931 0 0 0 -.5-11c-.383-.556-.883-.889-1.5-1v-10c1.143-2.568.976-5.235-.5-8-3.016-7.035-7.682-12.701-14-17-2.078-3.37-2.911-7.037-2.5-11 .853-3.87 2.853-7.036 6-9.5-.228-.399-.562-.565-1-.5.333-1 1-1.667 2-2-.065.438.101.772.5 1 3.839-2.337 8.006-3.837 12.5-4.5a308.5 308.5 0 0 0 25-1.5zm43 39h2a86.818 86.818 0 0 1 5.5 3 56.435 56.435 0 0 1 5.5 17v15c-1.604 10.266-7.604 14.933-18 14 .268-1.599-.066-2.932-1-4v-4-16-4c.951-1.419 1.284-3.085 1-5-.165-3.35.002-6.683.5-10 .599-2.754 2.099-4.754 4.5-6z" fill="#1a1311" opacity=".997"/><path d="m308.5 330.5c.111.617.444 1.117 1 1.5-2.539.796-4.872.629-7-.5 1.765-.961 3.765-1.295 6-1z" fill="#b9b8b7" opacity=".493"/><path d="m292.5 330.5c1.915-.284 3.581.049 5 1-1.419.951-3.085 1.284-5 1z" fill="#c3c2c1" opacity=".493"/><path d="m284.5 330.5h8v2a24.935 24.935 0 0 1 -7-.5c-.556-.383-.889-.883-1-1.5z" fill="#777372" opacity=".667"/><path d="m763.5 331.5c3.213-.31 6.213.023 9 1-2.787.977-5.787 1.31-9 1z" fill="#c4c2c1" opacity=".496"/><path d="m803.5 331.5c-2.415 1.314-5.248 1.981-8.5 2-3.021-.002-5.854-.336-8.5-1 5.475-.989 11.142-1.322 17-1z" fill="#bcbab9" opacity=".498"/><path d="m910.5 330.5c-.12 1.086-.787 1.753-2 2-.916-.043-1.583-.376-2-1 1.068-.934 2.401-1.268 4-1z" fill="#a09d9c" opacity=".667"/><path d="m910.5 330.5h6c2.667 1.333 5.333 1.333 8 0h8c.834 1.248 2.167 1.915 4 2 1.545-.011 2.878-.344 4-1h4c2.415 1.314 5.248 1.981 8.5 2 3.252-.019 6.085-.686 8.5-2h3c1.122.656 2.455.989 4 1 1.833-.085 3.166-.752 4-2h5a61.015 61.015 0 0 0 22 0h5c.12 1.086.79 1.753 2 2 15.11 1.305 27.94 7.305 38.5 18 .4-.228.57-.562.5-1a275.91 275.91 0 0 1 3 4c-.44-.065-.77.101-1 .5a55.474 55.474 0 0 1 8 17c.34 1.03 1 1.53 2 1.5a21.462 21.462 0 0 1 1 7c-.99 4.47-1.32 9.137-1 14-.27 1.599.07 2.932 1 4v4c-1-.03-1.66.47-2 1.5-2.56 11.228-8.39 20.395-17.5 27.5a31.46 31.46 0 0 0 -3.5 6c.14 1.607.8 2.941 2 4 3.26 2.211 6.42 4.545 9.5 7 .4-.228.57-.562.5-1 2 1.333 3.67 3 5 5 8.91 13.769 14.57 29.269 17 46.5.18 1.376.85 2.209 2 2.5v3c-1.21 1.935-1.04 3.935.5 6 4.49 3.579 9.16 6.912 14 10 3.02 8.133 1.52 15.3-4.5 21.5a59.742 59.742 0 0 1 -19.5 8.5c-1.03.336-1.53 1.003-1.5 2h-4c-5-1.333-10-1.333-15 0h-5c.03-.997-.47-1.664-1.5-2-16.64-3.307-27.64-12.973-33-29a180.138 180.138 0 0 1 -4.5-15.5c-.336-1.03-1.003-1.53-2-1.5v-2c1.385-1.447 1.052-2.447-1-3v-2c.597-.235.93-.735 1-1.5a56.738 56.738 0 0 1 -1.5-6.5c-.122-1.937-.955-3.27-2.5-4v-2c-.451-8.742-4.117-16.242-11-22.5-4.013-2.461-7.513-1.961-10.5 1.5-2.897 11.262-3.064 22.262-.5 33v2c-.624.417-.957 1.084-1 2 .247 1.213.914 1.88 2 2v2c-.597.235-.93.735-1 1.5 2.587 6.601 6.754 12.101 12.5 16.5 3.433 10.46.266 18.127-9.5 23a52.417 52.417 0 0 0 -8.5 2c-1.03.336-1.53 1.003-1.5 2h-3c-1.447-1.385-2.447-1.052-3 1h-4c-1.293-.658-2.793-.992-4.5-1-1.986.069-3.486.735-4.5 2h-4c-2-1.333-4-1.333-6 0h-10c-.291-1.149-1.124-1.816-2.5-2-1.07.028-1.903.361-2.5 1h-2c-1.974-1.787-4.474-2.787-7.5-3-.765.07-1.265.403-1.5 1h-2c-5.152-2.951-9.985-6.618-14.5-11-4.147-5.824-4.48-11.824-1-18a110.18 110.18 0 0 0 12-13c1.392-2.441 1.559-4.774.5-7v-2c1.086-.12 1.753-.787 2-2-.043-.916-.376-1.583-1-2v-44c.667-10.661 1-21.495 1-32.5-.001-11.188-.668-22.021-2-32.5v-3c.395-3.032-.438-6.032-2.5-9-3-4.333-6.667-8-11-11-5.3-13.401-.966-22.067 13-26 1.03-.336 1.53-1.003 1.5-2h3c.417.624 1.084.957 2 1 1.213-.247 1.88-.914 2-2zm79 63v2c-.734 6.911-2.734 13.578-6 20-2.265 1.627-4.599 2.961-7 4h-2c-1.644.214-3.144-.12-4.5-1-.177-3.856-.677-7.523-1.5-11v-16c.979-3.125 1.313-6.458 1-10v-5c2.388-6.425 6.721-7.758 13-4 4.043 6.536 6.376 13.536 7 21z" fill="#1a1311" opacity=".998"/><path d="m932.5 330.5c2.885-.306 5.552.027 8 1-1.122.656-2.455.989-4 1-1.833-.085-3.166-.752-4-2z" fill="#b0adad" opacity=".5"/><path d="m944.5 331.5h17c-2.415 1.314-5.248 1.981-8.5 2-3.252-.019-6.085-.686-8.5-2z" fill="#7f7b7a" opacity=".5"/><path d="m972.5 330.5c-.834 1.248-2.167 1.915-4 2-1.545-.011-2.878-.344-4-1 2.448-.973 5.115-1.306 8-1z" fill="#7a7574" opacity=".667"/><path d="m1197.5 331.5c-1.72 1.3-3.89 1.967-6.5 2-2.36-.004-4.53-.337-6.5-1 4.13-.985 8.47-1.318 13-1z" fill="#bbb9b9" opacity=".5"/><path d="m1213.5 330.5c-1.01 1.265-2.51 1.931-4.5 2-1.71-.008-3.21-.342-4.5-1 2.79-.977 5.79-1.31 9-1z" fill="#9d9a99" opacity=".667"/><path d="m1295.5 331.5c0 1.333-.67 2-2 2v-1c.34-.838 1.01-1.172 2-1z" fill="#bdbbbb" opacity=".48"/><path d="m1303.5 330.5h7c5.67 1.333 11.33 1.333 17 0h8c6.21 1.793 12.54 3.96 19 6.5 10.79 10.94 10.62 21.774-.5 32.5-1.55 2.396-2.05 4.729-1.5 7v2c-1.09.12-1.75.787-2 2 .04.916.38 1.583 1 2v11c-1.39 1.447-1.05 2.447 1 3v2c-1.27.689-1.27 1.523 0 2.5 3.55-.816 6.71-2.65 9.5-5.5 6.66-8.328 11.5-17.661 14.5-28-.31-1.983-1.31-3.316-3-4v-2c1.26-1.123.92-1.789-1-2v-2c.43-11.797 6.43-19.463 18-23 .8-.457 1.13-1.124 1-2h2c1.12 1.257 1.79.924 2-1h4c2.47 1.134 5.13 1.301 8 .5-.56-.383-.89-.883-1-1.5h7c3 1.333 6 1.333 9 0h8c.29 1.149 1.12 1.816 2.5 2 1.07-.028 1.9-.361 2.5-1h3c.12 1.086.79 1.753 2 2 .92-.043 1.58-.376 2-1h2a74.397 74.397 0 0 1 16 13v2a169.52 169.52 0 0 1 -2.5 14c-3.15 2.476-6.31 4.81-9.5 7h-2c-.71-.904-1.71-1.237-3-1-3.14.103-5.8 1.103-8 3h-2c-.06-.543-.39-.876-1-1-13.63 8.579-23.3 19.912-29 34v2c-1.26 1.014-1.93 2.514-2 4.5.09 3.357.93 6.523 2.5 9.5a5483.599 5483.599 0 0 0 58 81c6.33 5.333 12.67 10.667 19 16 2.45 4.502 3.95 9.169 4.5 14v3c-.62-.111-1.12-.444-1.5-1a23.032 23.032 0 0 1 -2 5 235.562 235.562 0 0 1 -7.5 7h-2c-1.12-1.257-1.79-.924-2 1h-3c-1.42-.951-3.09-1.284-5-1-5.01-.166-10.01.001-15 .5-.56.383-.89.883-1 1.5h-20c-4.23-1.78-8.89-2.614-14-2.5a135.117 135.117 0 0 1 -18.5-20.5 237.191 237.191 0 0 0 -31.5-41.5c-1.86-1.301-3.86-1.635-6-1-2.1 2.744-2.77 5.577-2 8.5v3c-.62-.111-1.12-.444-1.5-1-.58 4.388-.24 8.721 1 13a63.857 63.857 0 0 0 11 15c5.39 12.56 1.55 20.893-11.5 25-.8.457-1.13 1.124-1 2h-2c-1.45-1.385-2.45-1.052-3 1h-3c-1.45-1.385-2.45-1.052-3 1h-3c-.77-.647-1.77-.98-3-1-1.53.14-2.53.807-3 2h-6c-2.67-1.333-5.33-1.333-8 0h-10c-.29-1.149-1.12-1.816-2.5-2-1.07.028-1.9.361-2.5 1h-3c-.29-1.149-1.12-1.816-2.5-2-1.07.028-1.9.361-2.5 1h-2c-.12-1.086-.79-1.753-2-2-2.52-.589-5.02-1.255-7.5-2-.76.07-1.26.403-1.5 1h-2c-1.91-2.417-4.08-4.75-6.5-7-2.77-5.211-3.1-10.544-1-16 3.33-4 6.67-8 10-12l1.5-4.5c-.07-.765-.4-1.265-1-1.5v-2c1.09-.12 1.75-.787 2-2-.04-.916-.38-1.583-1-2v-2c1.09-.12 1.75-.787 2-2-.04-.916-.38-1.583-1-2v-4c1.09-.12 1.75-.787 2-2-.04-.916-.38-1.583-1-2v-4c.62.111 1.12.444 1.5 1 .81-4.52.65-8.854-.5-13v-15c.62.111 1.12.444 1.5 1 .67-10 .67-20 0-30-.38-.556-.88-.889-1.5-1v-6c.64-.597.97-1.43 1-2.5-.18-1.376-.85-2.209-2-2.5v-5c.64-.597.97-1.43 1-2.5-.18-1.376-.85-2.209-2-2.5v-5c1.11-1.446 1.28-3.113.5-5-.38.556-.88.889-1.5 1v-3c.64-4.902.14-9.902-1.5-15a317.553 317.553 0 0 1 -14.5-17v-2c1.3-3.501 2.47-7.167 3.5-11 6.12-5.655 13.29-9.322 21.5-11 1.33 0 2-.667 2-2h5c1.45 1.385 2.45 1.052 3-1z" fill="#1a1311" opacity=".997"/><path d="m1406.5 330.5c.11.617.44 1.117 1 1.5-2.87.801-5.53.634-8-.5 2.11-.968 4.44-1.302 7-1z" fill="#736f6e" opacity=".556"/><path d="m1395.5 331.5c-.21 1.924-.88 2.257-2 1 .34-.838 1.01-1.172 2-1z" fill="#bdbbbb" opacity=".48"/><path d="m1430.5 330.5c1.91-.284 3.58.049 5 1-.6.639-1.43.972-2.5 1-1.38-.184-2.21-.851-2.5-2z" fill="#878383" opacity=".667"/><path d="m1438.5 331.5c1.6-.268 2.93.066 4 1-.42.624-1.08.957-2 1-1.21-.247-1.88-.914-2-2z" fill="#7e7a79" opacity=".526"/><path d="m101.5 333.5a45.636 45.636 0 0 1 -19 0 45.636 45.636 0 0 1 19 0z" fill="#a6a3a2" opacity=".333"/><path d="m361.5 331.5c1.915-.284 3.581.049 5 1-.597.639-1.43.972-2.5 1-1.376-.184-2.209-.851-2.5-2z" fill="#8e8b8a" opacity=".667"/><path d="m740.5 330.5c7.646.707 15.313 1.04 23 1v2c-6.19.117-12.357-.216-18.5-1-1.986-.069-3.486-.735-4.5-2z" fill="#7f7b7a" opacity=".667"/><path d="m79.5 333.5c.11.617.444 1.117 1 1.5-2.538.796-4.872.629-7-.5 1.765-.961 3.765-1.295 6-1z" fill="#777372" opacity=".583"/><path d="m115.5 332.5c-1.194 1.277-2.86 1.944-5 2-1.869-.007-3.536-.34-5-1 3.125-.979 6.458-1.313 10-1z" fill="#a09d9c" opacity=".667"/><path d="m1113.5 332.5c-1.01 1.265-2.51 1.931-4.5 2-1.71-.008-3.21-.342-4.5-1 2.79-.977 5.79-1.31 9-1z" fill="#8b8786" opacity=".667"/><path d="m1131.5 332.5h43c-6.8 1.331-13.97 1.997-21.5 2-7.53-.003-14.7-.669-21.5-2z" fill="#615c5b" opacity=".667"/><path d="m69.5 334.5c-.21 1.924-.877 2.257-2 1 .342-.838 1.008-1.172 2-1z" fill="#bdbbbb" opacity=".48"/><path d="m1444.5 332.5c7.2 2.214 12.53 6.547 16 13a74.397 74.397 0 0 0 -16-13z" fill="#736f6e" opacity=".331"/><path d="m1004.5 330.5c16.16 1.251 29.83 7.584 41 19 .07.438-.1.772-.5 1-10.56-10.695-23.39-16.695-38.5-18-1.21-.247-1.88-.914-2-2z" fill="#7f7b7a" opacity=".22"/><path d="m1101.5 333.5a296.344 296.344 0 0 0 -9.5 8c-.7 2.084-1.86 3.751-3.5 5 2-6.667 6.33-11 13-13zm234-3c12.19-.326 21.36 4.674 27.5 15 1.91 4.684 1.91 9.35 0 14a114.06 114.06 0 0 0 -10.5 17c-.55-2.271-.05-4.604 1.5-7 11.12-10.726 11.29-21.56.5-32.5-6.46-2.54-12.79-4.707-19-6.5z" fill="#7a7675" opacity=".667"/><path d="m1391.5 332.5c.13.876-.2 1.543-1 2-11.57 3.537-17.57 11.203-18 23-1.14-2.804-1.3-5.804-.5-9 4.06-8.284 10.56-13.617 19.5-16z" fill="#888584" opacity=".667"/><path d="m242.5 337.5c.438-.065.772.101 1 .5-3.147 2.464-5.147 5.63-6 9.5h-1c.477-4.293 2.477-7.627 6-10z" fill="#625d5c" opacity=".331"/><path d="m849.5 328.5c12.045 5.548 20.545 14.548 25.5 27a82.021 82.021 0 0 1 3.5 12c-.997.03-1.664-.47-2-1.5-4.287-16.14-13.287-28.64-27-37.5z" fill="#84807f" opacity=".333"/><path d="m1088.5 348.5c1.33.667 1.33 1.333 0 2-1.33-.667-1.33-1.333 0-2z" fill="#d5d2d2" opacity=".386"/><path d="m1257.5 374.5c-.37-11.82-3.2-23.153-8.5-34-5.3-10.54-13.47-13.54-24.5-9v-2c10.41-4.025 18.58-1.359 24.5 8 7.26 11.511 10.1 23.845 8.5 37z" fill="#858281" opacity=".333"/><path d="m1293.5 332.5v1c-8.21 1.678-15.38 5.345-21.5 11-1.03 3.833-2.2 7.499-3.5 11-.5-10.399 4.5-17.232 15-20.5a33.523 33.523 0 0 1 10-2.5z" fill="#7a7676" opacity=".48"/><path d="m1460.5 347.5c3.03 10.928-.97 17.928-12 21 3.19-2.19 6.35-4.524 9.5-7a169.52 169.52 0 0 0 2.5-14z" fill="#807c7c" opacity=".333"/><path d="m369.5 332.5c29.616 11.269 42.616 32.602 39 64 1.682-20.094-4.651-37.261-19-51.5a339.008 339.008 0 0 0 -20-12.5z" fill="#777373" opacity=".333"/><path d="m185.5 332.5c23.259 8.259 38.259 24.259 45 48-.997.03-1.664-.47-2-1.5-2.723-8.948-6.89-17.114-12.5-24.5-9.021-9.229-19.188-16.562-30.5-22z" fill="#7a7676" opacity=".443"/><path d="m1372.5 359.5c1.92.211 2.26.877 1 2-.84-.342-1.17-1.008-1-2z" fill="#9c9999" opacity=".667"/><path d="m1048.5 353.5c4.31 5.627 7.31 11.96 9 19-1 .03-1.66-.47-2-1.5a55.474 55.474 0 0 0 -8-17c.23-.399.56-.565 1-.5z" fill="#807d7c" opacity=".331"/><path d="m1088.5 353.5c2.23 1.576 3.9 3.743 5 6.5 9.12 4.212 13.79 11.045 14 20.5-2.03-9.03-7.19-15.697-15.5-20a17.43 17.43 0 0 1 -3.5-7z" fill="#858280" opacity=".667"/><path d="m65.5 335.5a63.697 63.697 0 0 1 -6.5 7c-3.255 6.352-2.588 12.352 2 18a153.337 153.337 0 0 1 14 9 20.43 20.43 0 0 1 3.5 6.5c-.07.765-.403 1.265-1 1.5-3.491-7.315-9.158-12.482-17-15.5-5.604-6.197-6.437-13.031-2.5-20.5 2.106-2.618 4.606-4.618 7.5-6z" fill="#706c6b" opacity=".331"/><path d="m565.5 330.5c28.323 10.487 48.823 29.487 61.5 57a236.752 236.752 0 0 1 8.5 26c-1.29-.558-2.123-1.558-2.5-3-9.665-37.758-32.165-64.425-67.5-80z" fill="#7e7a79" opacity=".333"/><path d="m1268.5 357.5a317.553 317.553 0 0 0 14.5 17c1.64 5.098 2.14 10.098 1.5 15-.05-10.294-4.22-18.628-12.5-25a17.43 17.43 0 0 1 -3.5-7z" fill="#7f7b7b" opacity=".667"/><path d="m903.5 331.5c.03.997-.47 1.664-1.5 2-13.966 3.933-18.3 12.599-13 26 4.333 3 8 6.667 11 11 2.062 2.968 2.895 5.968 2.5 9a106.037 106.037 0 0 0 -6.5-12c-14.254-9.856-15.088-20.689-2.5-32.5a59.317 59.317 0 0 1 10-3.5z" fill="#827e7d" opacity=".667"/><path d="m1187.5 365.5v2h-5v-1c1.54-.801 3.21-1.134 5-1z" fill="#5b5655" opacity=".333"/><path d="m1187.5 365.5c5.73-.217 11.4.283 17 1.5 1.62.236 2.62 1.069 3 2.5a69.591 69.591 0 0 0 -20-2z" fill="#858280" opacity=".333"/><path d="m1443.5 367.5v2c-2.71.075-5.37.408-8 1 2.2-1.897 4.86-2.897 8-3z" fill="#645f5e" opacity=".583"/><path d="m1443.5 367.5c1.29-.237 2.29.096 3 1-.71.904-1.71 1.237-3 1z" fill="#b3b2b0" opacity=".48"/><path d="m236.5 347.5h1c-.411 3.963.422 7.63 2.5 11 6.318 4.299 10.984 9.965 14 17 1.476 2.765 1.643 5.432.5 8-1.112-4.816-2.945-9.483-5.5-14a832.677 832.677 0 0 0 -11-11c-2.275-3.613-2.775-7.28-1.5-11z" fill="#888484" opacity=".667"/><path d="m340.5 389.5h-2a56.435 56.435 0 0 0 -5.5-17 86.818 86.818 0 0 0 -5.5-3c2.436-1.072 4.603-.405 6.5 2 3.392 5.572 5.558 11.572 6.5 18z" fill="#787473" opacity=".22"/><path d="m1182.5 366.5v1c-6.68.023-10.68 3.357-12 10h-2c1.74-7.406 6.4-11.072 14-11z" fill="#827e7d" opacity=".443"/><path d="m878.5 369.5c.968 2.107 1.302 4.441 1 7-.617.111-1.117.444-1.5 1-.801-2.867-.634-5.534.5-8z" fill="#7d7978" opacity=".333"/><path d="m325.5 369.5c-2.401 1.246-3.901 3.246-4.5 6a50.464 50.464 0 0 0 -.5 10h-2c-1.024-6.383.643-11.883 5-16.5.937-.692 1.603-.525 2 .5z" fill="#726e6d" opacity=".556"/><path d="m530.5 378.5c-5.003-.415-9.17 1.252-12.5 5-3.389 4.944-5.555 10.278-6.5 16-.624-.417-.957-1.084-1-2 1.343-9.209 6.009-16.043 14-20.5l3-.5c1.53.14 2.53.807 3 2z" fill="#7b7777" opacity=".667"/><path d="m989.5 393.5c-.624-7.464-2.957-14.464-7-21-6.279-3.758-10.612-2.425-13 4-.759-6.387 2.241-8.887 9-7.5a15.39 15.39 0 0 1 6 3c4.32 6.765 5.987 13.932 5 21.5z" fill="#969392" opacity=".22"/><path d="m1168.5 377.5h2c.31 2.885-.03 5.552-1 8-.97-2.448-1.31-5.115-1-8z" fill="#cac9c8" opacity=".524"/><path d="m1352.5 378.5c.27 1.599-.07 2.932-1 4-.62-.417-.96-1.084-1-2 .25-1.213.91-1.88 2-2z" fill="#858281" opacity=".667"/><path d="m692.5 375.5c.639.597.972 1.43 1 2.5.113 1.699-.553 2.866-2 3.5-.295-2.235.039-4.235 1-6z" fill="#595452" opacity=".333"/><path d="m168.5 398.5c-.839-6.021-2.339-12.021-4.5-18-1.902-4.9-5.402-8.067-10.5-9.5-8.19-2.613-12.19.22-12 8.5-1.639-8.525 2.027-12.025 11-10.5 7.5 2.167 12.333 7 14.5 14.5 2.039 5.043 2.539 10.043 1.5 15z" fill="#868382" opacity=".333"/><path d="m230.5 382.5c.904.709 1.237 1.709 1 3-2.052-.553-2.385-1.553-1-3z" fill="#b3b2b0" opacity=".48"/><path d="m751.5 391.5h-2c-.271-4.105-1.605-7.772-4-11-.065-.438.101-.772.5-1 3.604 3.166 5.438 7.166 5.5 12z" fill="#848180" opacity=".22"/><path d="m821.5 380.5a598.896 598.896 0 0 1 -3 6c-.543-.06-.876-.393-1-1 1.035-2.638 2.368-4.304 4-5z" fill="#6d6868" opacity=".333"/><path d="m1058.5 379.5c.99 4.47 1.32 9.137 1 14h-2c-.32-4.863.01-9.53 1-14z" fill="#65605f" opacity=".511"/><path d="m318.5 385.5h2c.284 1.915-.049 3.581-1 5-.951-1.419-1.284-3.085-1-5z" fill="#c3c2c1" opacity=".493"/><path d="m1433.5 370.5c-6.5 3.985-12.33 8.985-17.5 15a282.561 282.561 0 0 0 -12.5 18c5.7-14.088 15.37-25.421 29-34 .61.124.94.457 1 1z" fill="#7c7877" opacity=".443"/><path d="m1107.5 383.5c1.68.683 2.34 2.017 2 4h-2z" fill="#66615f" opacity=".667"/><path d="m969.5 381.5c.313 3.542-.021 6.875-1 10-.66-1.464-.993-3.131-1-5 .056-2.14.723-3.806 2-5z" fill="#a7a4a3" opacity=".5"/><path d="m1239.5 394.5c-3.87-.853-7.04-2.853-9.5-6-3.84-9.678-10.67-16.012-20.5-19 10.41 1.531 17.57 7.531 21.5 18a95.064 95.064 0 0 1 8.5 7z" fill="#898584" opacity=".333"/><path d="m1107.5 387.5h2c.29 2.235-.04 4.235-1 6-.96-1.765-1.29-3.765-1-6z" fill="#afadac" opacity=".667"/><path d="m1373.5 363.5c1.69.684 2.69 2.017 3 4-3 10.339-7.84 19.672-14.5 28-2.79 2.85-5.95 4.684-9.5 5.5-1.27-.977-1.27-1.811 0-2.5.65.304 1.32.637 2 1 12.16-9 18.5-21 19-36z" fill="#787574" opacity=".667"/><path d="m231.5 387.5c.973 2.448 1.306 5.115 1 8-.617.111-1.117.444-1.5 1-.805-3.196-.638-6.196.5-9z" fill="#7b7776" opacity=".333"/><path d="m338.5 389.5h2c.597 4.794-.07 9.127-2 13z" fill="#adaba9" opacity=".528"/><path d="m691.5 390.5c2.052.553 2.385 1.553 1 3-.904-.709-1.237-1.709-1-3z" fill="#b3b2b1" opacity=".48"/><path d="m749.5 391.5h2v30h-2z" fill="#c3c1c0" opacity=".506"/><path d="m879.5 386.5c-.407 8.06-3.074 15.227-8 21.5a22.715 22.715 0 0 1 -10 4.5c4.694-2.461 8.861-5.794 12.5-10a62.1 62.1 0 0 0 3.5-13.5c.184-1.376.851-2.209 2-2.5z" fill="#7c7878" opacity=".667"/><path d="m1257.5 377.5c-.62 7.128-3.96 12.628-10 16.5-.95.483-1.95.649-3 .5 1.93-1.747 4.09-3.413 6.5-5 2.51-4.038 4.68-8.038 6.5-12z" fill="#8f8b8a" opacity=".333"/><path d="m1351.5 393.5c.9.709 1.24 1.709 1 3-2.05-.553-2.39-1.553-1-3z" fill="#b3b2b0" opacity=".48"/><path d="m254.5 393.5c.617.111 1.117.444 1.5 1 .499 3.652.665 7.318.5 11h-2z" fill="#524c4b" opacity=".517"/><path d="m818.5 389.5v17h-2c-.166-6.009.001-12.009.5-18 .383.556.883.889 1.5 1z" fill="#7e7a79" opacity=".667"/><path d="m1285.5 396.5c-.93-1.068-1.27-2.401-1-4 .62-.111 1.12-.444 1.5-1 .78 1.887.61 3.554-.5 5z" fill="#a6a4a3" opacity=".48"/><path d="m854.5 412.5c-6.93-1.415-12.43-5.082-16.5-11-3.541-7.781-8.041-14.781-13.5-21 .06-.543.393-.876 1-1a14.972 14.972 0 0 1 3.5 3 267.498 267.498 0 0 1 11 19c4.026 5.057 8.859 8.724 14.5 11z" fill="#7c7877" opacity=".22"/><path d="m1057.5 393.5h2c.27 1.599-.07 2.932-1 4-.93-1.068-1.27-2.401-1-4z" fill="#b0acac" opacity=".22"/><path d="m563.5 431.5c-3.864-13.406-9.03-26.406-15.5-39-3.509-6.645-8.676-11.311-15.5-14 .06-.543.393-.876 1-1 7.971 3.471 13.804 9.138 17.5 17 6.555 11.834 10.722 24.167 12.5 37z" fill="#807d7c" opacity=".443"/><path d="m319.5 394.5v16c-1.309-2.071-1.975-4.571-2-7.5l.5-7.5c.383-.556.883-.889 1.5-1z" fill="#8b8786" opacity=".667"/><path d="m1169.5 398.5c.97 2.107 1.3 4.441 1 7-1.23-.652-1.89-1.819-2-3.5.01-1.385.35-2.551 1-3.5z" fill="#bab7b6" opacity=".5"/><path d="m511.5 402.5v15c-.617.111-1.117.444-1.5 1a72.464 72.464 0 0 1 0-17c.383.556.883.889 1.5 1z" fill="#868281" opacity=".667"/><path d="m1285.5 401.5c1.15.291 1.82 1.124 2 2.5-.03 1.07-.36 1.903-1 2.5-.95-1.419-1.28-3.085-1-5z" fill="#b7b6b5" opacity=".488"/><path d="m692.5 395.5c.876-.131 1.543.202 2 1 1.875 6.858 5.875 11.858 12 15-7.842-2.511-12.509-7.845-14-16z" fill="#726e6d" opacity=".333"/><path d="m168.5 401.5c1.134 2.466 1.301 5.133.5 8-.122 1.937-.955 3.27-2.5 4a104.987 104.987 0 0 1 2-12z" fill="#928f8e" opacity=".667"/><path d="m254.5 405.5h2v25h-2z" fill="#8c8987" opacity=".333"/><path d="m443.5 406.5c1.257 1.123.924 1.789-1 2-.172-.992.162-1.658 1-2z" fill="#848080" opacity=".48"/><path d="m816.5 406.5h2c.326 8.849-.007 17.516-1 26-.993-8.484-1.326-17.151-1-26z" fill="#c5c3c2" opacity=".499"/><path d="m1108.5 400.5c1.25.834 1.91 2.167 2 4-.01 1.545-.34 2.878-1 4-.97-2.448-1.31-5.115-1-8z" fill="#bbb9b8" opacity=".667"/><path d="m743.5 380.5c-5.534 6.03-10.367 12.697-14.5 20-4.903 6.697-11.403 10.697-19.5 12-.607-.124-.94-.457-1-1 7.823-1.619 14.323-5.619 19.5-12a111.06 111.06 0 0 1 14.5-20c.607.124.94.457 1 1z" fill="#777272" opacity=".333"/><path d="m1170.5 409.5c.03 5.374 2.7 8.708 8 10-.24.597-.74.93-1.5 1-6.2-1.498-8.36-5.165-6.5-11z" fill="#8e8b89" opacity=".5"/><path d="m1191.5 402.5c.67 4.385-.17 8.718-2.5 13-2.17 3.511-5 4.844-8.5 4 2.32-.918 4.49-2.252 6.5-4 1.98-4.288 3.48-8.622 4.5-13z" fill="#8f8b8a" opacity=".443"/><path d="m1222.5 417.5c-1 .03-1.66-.47-2-1.5-1.7-7.773-4.2-15.273-7.5-22.5-5.67-5.333-11.33-5.333-17 0-1.05 2.814-2.55 5.147-4.5 7 1.33-7.333 5.67-11.666 13-13 5.71.537 9.54 3.537 11.5 9a109.284 109.284 0 0 1 6.5 21z" fill="#8f8b8a" opacity=".333"/><path d="m1286.5 411.5c1.15.291 1.82 1.124 2 2.5-.03 1.07-.36 1.903-1 2.5-.95-1.419-1.28-3.085-1-5z" fill="#b7b6b5" opacity=".488"/><path d="m442.5 410.5c.597.235.93.735 1 1.5-.213 3.026-1.213 5.526-3 7.5-.08-3.281.587-6.281 2-9z" fill="#827f7e" opacity=".667"/><path d="m902.5 382.5c1.332 10.479 1.999 21.312 2 32.5 0 11.005-.333 21.839-1 32.5a1056.868 1056.868 0 0 1 -1-65z" fill="#d5d4d3" opacity=".5"/><path d="m635.5 415.5c.838.342 1.172 1.008 1 2-1.924-.211-2.257-.877-1-2z" fill="#989594" opacity=".333"/><path d="m968.5 407.5c.823 3.477 1.323 7.144 1.5 11 1.356.88 2.856 1.214 4.5 1-2.092 2.307-4.258 1.974-6.5-1-.81-3.858-.643-7.524.5-11z" fill="#a4a0a0" opacity=".333"/><path d="m989.5 395.5c.935 7.293-.565 14.293-4.5 21l-5.5 3.5c-1.249.74-2.249.573-3-.5 2.401-1.039 4.735-2.373 7-4 3.266-6.422 5.266-13.089 6-20z" fill="#8c8887" opacity=".443"/><path d="m338.5 404.5c.357 5.797-1.976 10.631-7 14.5-4.311 2.148-8.477 1.981-12.5-.5-.765-1.566-.598-2.899.5-4 .934 1.068 1.268 2.401 1 4 10.396.933 16.396-3.734 18-14z" fill="#918e8d" opacity=".542"/><path d="m77.5 420.5a992.816 992.816 0 0 1 1 63h-2a992.816 992.816 0 0 1 1-63z" fill="#c5c3c2" opacity=".5"/><path d="m511.5 421.5c.904.709 1.237 1.709 1 3-2.052-.553-2.385-1.553-1-3z" fill="#b3b2b0" opacity=".48"/><path d="m749.5 421.5h2v11h-2z" fill="#8d8a88" opacity=".333"/><path d="m636.5 419.5c1.295 3.767 1.961 7.767 2 12-.617.111-1.117.444-1.5 1a150.709 150.709 0 0 0 -1.5-10.5c.028-1.07.361-1.903 1-2.5z" fill="#787473" opacity=".443"/><path d="m1222.5 422.5c.93 1.068 1.27 2.401 1 4-1.09-.12-1.75-.787-2-2 .04-.916.38-1.583 1-2z" fill="#a7a5a4" opacity=".5"/><path d="m440.5 421.5c1.143 3.476 1.31 7.142.5 11-.383-.556-.883-.889-1.5-1-.313-3.542.021-6.875 1-10z" fill="#6a6565" opacity=".533"/><path d="m141.5 407.5a159.141 159.141 0 0 1 1.5 18 6.978 6.978 0 0 0 3.5 2.5c9.94.867 16.607-3.3 20-12.5-.807 7.986-5.473 12.819-14 14.5-5.238 1.035-9.071-.798-11.5-5.5-.818-5.849-.652-11.515.5-17z" fill="#716d6c" opacity=".333"/><path d="m1109.5 411.5c1.96 6.924 2.63 14.257 2 22-.67.333-1.33.667-2 1z" fill="#7d7978" opacity=".5"/><path d="m254.5 430.5h2v16h-2z" fill="#c4c2c1" opacity=".511"/><path d="m1287.5 422.5c.62.111 1.12.444 1.5 1 .67 10 .67 20 0 30-.38-.556-.88-.889-1.5-1z" fill="#726e6d" opacity=".667"/><path d="m749.5 432.5h2a50.464 50.464 0 0 1 -.5 10c-.383-.556-.883-.889-1.5-1z" fill="#544e4e" opacity=".519"/><path d="m512.5 428.5a216.48 216.48 0 0 1 3 13c-1.431-.381-2.264-1.381-2.5-3l-1.5-7.5c.028-1.07.361-1.903 1-2.5z" fill="#817d7c" opacity=".443"/><path d="m638.5 435.5c1.333 4 1.333 8 0 12-1.333-4-1.333-8 0-12z" fill="#c5c3c3" opacity=".481"/><path d="m1058.5 401.5a64.705 64.705 0 0 1 -5.5 16 138.722 138.722 0 0 0 -15.5 19c.17.667.33 1.333.5 2 3.36 2.531 6.52 5.198 9.5 8 .07.438-.1.772-.5 1a153.141 153.141 0 0 0 -9.5-7c-1.2-1.059-1.86-2.393-2-4a31.46 31.46 0 0 1 3.5-6c9.11-7.105 14.94-16.272 17.5-27.5.34-1.03 1-1.53 2-1.5z" fill="#8e8b89" opacity=".333"/><path d="m563.5 433.5c2.011 2.167 3.178 4.834 3.5 8 .453 3.34.953 6.674 1.5 10-.02 1.226-.353 2.226-1 3a660.276 660.276 0 0 1 -4-21z" fill="#908d8c" opacity=".667"/><path d="m1223.5 434.5c.32 4.202-.02 8.202-1 12-.66-1.804-1-3.804-1-6 .04-2.452.71-4.452 2-6z" fill="#8e8a8a" opacity=".5"/><path d="m439.5 436.5c.617.111 1.117.444 1.5 1 .818 5.849.652 11.515-.5 17-.99-5.81-1.323-11.81-1-18z" fill="#817d7c" opacity=".667"/><path d="m1111.5 433.5v18h-2v-17c.67-.333 1.33-.667 2-1z" fill="#b3b0b0" opacity=".5"/><path d="m407.5 403.5c-3.728 11.785-10.228 21.785-19.5 30-.667 1.667-.667 3.333 0 5a86.276 86.276 0 0 0 12.5 9.5c7.856 9.546 13.189 20.379 16 32.5-.997.03-1.664-.47-2-1.5a139.319 139.319 0 0 0 -4.5-12.5c-3.345-10.566-9.845-18.399-19.5-23.5-2.274-1.765-3.941-3.932-5-6.5a10.258 10.258 0 0 1 1.5-4c8.86-8.441 15.693-18.108 20.5-29z" fill="#7e7a79" opacity=".333"/><path d="m515.5 443.5c.838.342 1.172 1.008 1 2-1.924-.211-2.257-.877-1-2z" fill="#bdbbbb" opacity=".48"/><path d="m254.5 446.5h2c.649 14.373-.018 28.373-2 42z" fill="#8c8987" opacity=".333"/><path d="m817.5 447.5a120.655 120.655 0 0 1 0 31 120.655 120.655 0 0 1 0-31z" fill="#c5c3c3" opacity=".493"/><path d="m232.5 405.5c-2.577 22.997-13.244 41.163-32 54.5a83.571 83.571 0 0 1 -23 8.5 370.202 370.202 0 0 0 23-10.5c10.866-7.551 19.033-17.385 24.5-29.5a760.525 760.525 0 0 0 7.5-23z" fill="#7b7777" opacity=".333"/><path d="m1222.5 449.5c.3 2.559-.03 4.893-1 7-.65-.949-.99-2.115-1-3.5.11-1.681.77-2.848 2-3.5z" fill="#868281" opacity=".5"/><path d="m1403.5 405.5c-.6 5.733.56 11.066 3.5 16l57 79a215.48 215.48 0 0 1 19 16c3.12 4.455 3.96 9.122 2.5 14-.55-4.831-2.05-9.498-4.5-14-6.33-5.333-12.67-10.667-19-16a5483.599 5483.599 0 0 1 -58-81c-1.57-2.977-2.41-6.143-2.5-9.5.07-1.986.74-3.486 2-4.5z" fill="#7c7877" opacity=".333"/><path d="m1178.5 454.5c-1.03.749-2.2 1.415-3.5 2-.84 2.111-1.68 4.111-2.5 6-.62-.417-.96-1.084-1-2 .79-4.502 3.12-6.502 7-6z" fill="#979493" opacity=".333"/><path d="m638.5 452.5c.295 2.235-.039 4.235-1 6-.647-.774-.98-1.774-1-3 .14-1.53.807-2.53 2-3z" fill="#9f9d9c" opacity=".333"/><path d="m749.5 449.5c.663 2.141.997 4.475 1 7-.029 2.769-.695 5.103-2 7-.319-4.863.014-9.53 1-14z" fill="#9e9b9a" opacity=".667"/><path d="m991.5 482.5c-2.189-7.541-5.856-14.374-11-20.5-2.577-1.25-5.243-1.584-8-1a26.552 26.552 0 0 0 -2.5 9.5c-.5 7.993-.666 15.993-.5 24-2.564-10.738-2.397-21.738.5-33 2.987-3.461 6.487-3.961 10.5-1.5 6.883 6.258 10.549 13.758 11 22.5z" fill="#94908f" opacity=".5"/><path d="m1109.5 451.5h2c.54 3.198-.13 5.865-2 8z" fill="#767270" opacity=".5"/><path d="m567.5 456.5c.617.111 1.117.444 1.5 1 .495 1.973.662 3.973.5 6l-2-1z" fill="#736f6e" opacity=".667"/><path d="m637.5 460.5c.237 1.291-.096 2.291-1 3-1.385-1.447-1.052-2.447 1-3z" fill="#7a7676" opacity=".48"/><path d="m336.5 471.5c-1.589-3.972-4.255-7.138-8-9.5-3.471-1.163-6.138-.33-8 2.5-.543-.06-.876-.393-1-1 1.974-3.67 4.974-4.837 9-3.5 5.191 2.595 7.857 6.428 8 11.5z" fill="#898585" opacity=".333"/><path d="m1190.5 463.5c-1.39-1.773-2.56-3.773-3.5-6a29.202 29.202 0 0 1 -4.5-3c.06-.543.39-.876 1-1 4.93 1.953 7.27 5.287 7 10z" fill="#928f8e" opacity=".22"/><path d="m567.5 462.5 2 1c.302 2.559-.032 4.893-1 7-.973-2.448-1.306-5.115-1-8z" fill="#c2c0bf" opacity=".495"/><path d="m440.5 460.5c1.086.12 1.753.787 2 2 1.082 2.173 1.082 4.173 0 6-1.031-2.461-1.698-5.127-2-8z" fill="#7b7777" opacity=".667"/><path d="m154.5 469.5a60.931 60.931 0 0 0 -11 .5c-.566.995-1.233 1.828-2 2.5-.438.065-.772-.101-1-.5 1.87-3.602 4.87-5.102 9-4.5 2.14.056 3.806.723 5 2z" fill="#7a7776" opacity=".667"/><path d="m175.5 468.5c-.709.904-1.709 1.237-3 1 .553-2.052 1.553-2.385 3-1z" fill="#b3b2b0" opacity=".48"/><path d="m166.5 469.5c-2.333 1.333-4.667 1.333-7 0 2.333-1.333 4.667-1.333 7 0z" fill="#c5c3c3" opacity=".468"/><path d="m1172.5 465.5c.29 2.235-.04 4.235-1 6-.65-.774-.98-1.774-1-3 .14-1.53.81-2.53 2-3z" fill="#979392" opacity=".5"/><path d="m320.5 466.5c.302 2.559-.032 4.893-1 7-.652-.949-.986-2.115-1-3.5.108-1.681.775-2.848 2-3.5z" fill="#a8a6a5" opacity=".488"/><path d="m1221.5 459.5c-.35 7.419-3.02 13.752-8 19-.44.065-.77-.101-1-.5 3.71-6.036 6.71-12.202 9-18.5z" fill="#7d7978" opacity=".331"/><path d="m1251.5 470.5c3.65-.575 6.65.425 9 3 .07.438-.1.772-.5 1-2.68-2.032-5.52-2.699-8.5-2z" fill="#544f4d" opacity=".22"/><path d="m1287.5 467.5c1.15 4.146 1.31 8.48.5 13-.38-.556-.88-.889-1.5-1-.32-4.202.02-8.202 1-12z" fill="#928f8e" opacity=".333"/><path d="m336.5 473.5c1.882.721 2.215 1.721 1 3-.904-.709-1.237-1.709-1-3z" fill="#b6b4b4" opacity=".48"/><path d="m568.5 472.5c.639.597.972 1.43 1 2.5-.184 1.376-.851 2.209-2 2.5-.284-1.915.049-3.581 1-5z" fill="#999796" opacity=".667"/><path d="m1190.5 465.5c1-.03 1.66.47 2 1.5a167.12 167.12 0 0 0 2.5 8.5c3.21 7.107 8.21 8.774 15 5 .4.228.57.562.5 1-7.77 4.801-13.6 2.801-17.5-6a90.047 90.047 0 0 1 -2.5-10z" fill="#928e8d" opacity=".22"/><path d="m1262.5 475.5c3.88 4.116 5.88 9.116 6 15-2.01-4.797-4.34-9.63-7-14.5.23-.399.56-.565 1-.5z" fill="#8b8786" opacity=".333"/><path d="m1251.5 470.5v2c-3.12.142-5.62 1.476-7.5 4-2.05 4.146-4.55 7.813-7.5 11 2.01-8.396 7.01-14.062 15-17z" fill="#908c8b" opacity=".443"/><path d="m1052.5 451.5c1.96 1.46 3.8 3.127 5.5 5 7.22 13.838 11.72 28.504 13.5 44-1.15-.291-1.82-1.124-2-2.5-2.43-17.231-8.09-32.731-17-46.5z" fill="#84807f" opacity=".22"/><path d="m141.5 475.5v21h-1a87.05 87.05 0 0 1 -.5-22c.383.556.883.889 1.5 1z" fill="#767271" opacity=".667"/><path d="m337.5 478.5c1.431.381 2.264 1.381 2.5 3 .765 1.566.598 2.899-.5 4-.907-2.157-1.573-4.49-2-7z" fill="#7c7878" opacity=".667"/><path d="m748.5 476.5c.661 1.634.994 3.467 1 5.5-.047 2.295-.713 4.129-2 5.5-.315-3.871.018-7.538 1-11z" fill="#969392" opacity=".667"/><path d="m76.5 483.5h2c.58 4.149-.086 7.816-2 11z" fill="#8d8a88" opacity=".333"/><path d="m1286.5 483.5c.62.417.96 1.084 1 2-.25 1.213-.91 1.88-2 2-.27-1.599.07-2.932 1-4z" fill="#918e8e" opacity=".667"/><path d="m416.5 482.5c1.268 2.405 1.935 5.072 2 8-.617.111-1.117.444-1.5 1a130.406 130.406 0 0 0 -1.5-7c.043-.916.376-1.583 1-2z" fill="#817e7d" opacity=".443"/><path d="m1109.5 473.5c.66 2.478 1 5.145 1 8-.02 3.09-.69 5.757-2 8-.32-5.526.01-10.86 1-16z" fill="#a4a1a1" opacity=".5"/><path d="m319.5 489.5c.934 1.068 1.268 2.401 1 4-1.086-.12-1.753-.787-2-2 .043-.916.376-1.583 1-2zm498 1c.934 1.068 1.268 2.401 1 4-1.086-.12-1.753-.787-2-2 .043-.916.376-1.583 1-2z" fill="#b7b5b4" opacity=".488"/><path d="m1171.5 487.5c.93 1.068 1.27 2.401 1 4-1.09-.12-1.75-.787-2-2 .04-.916.38-1.583 1-2z" fill="#a4a0a0" opacity=".5"/><path d="m516.5 447.5c4.195 15.403 10.362 30.07 18.5 44 6.613 6.882 14.447 8.715 23.5 5.5 4.798-4.596 7.798-10.096 9-16.5.267 11.419-5.4 18.086-17 20-8.491-.826-14.991-4.826-19.5-12a203.592 203.592 0 0 1 -15.5-39.5c.07-.765.403-1.265 1-1.5z" fill="#807d7c" opacity=".553"/><path d="m747.5 490.5c1.098 1.101 1.265 2.434.5 4-.122 1.937-.955 3.27-2.5 4 .302-2.873.969-5.539 2-8z" fill="#8f8b8b" opacity=".667"/><path d="m1285.5 491.5c.62.417.96 1.084 1 2-.25 1.213-.91 1.88-2 2-.27-1.599.07-2.932 1-4z" fill="#8f8c8b" opacity=".667"/><path d="m254.5 492.5c1.385 1.447 1.052 2.447-1 3-.237-1.291.096-2.291 1-3z" fill="#8f8b8b" opacity=".667"/><path d="m442.5 470.5c.997-.03 1.664.47 2 1.5 10.841 36.999 34.175 62.166 70 75.5-37.765-12.766-61.765-38.432-72-77z" fill="#787474" opacity=".22"/><path d="m903.5 491.5c.624.417.957 1.084 1 2-.247 1.213-.914 1.88-2 2-.268-1.599.066-2.932 1-4z" fill="#777371" opacity=".5"/><path d="m991.5 484.5c1.545.73 2.378 2.063 2.5 4a56.738 56.738 0 0 0 1.5 6.5c-.07.765-.403 1.265-1 1.5-1.492-3.764-2.492-7.764-3-12z" fill="#898685" opacity=".667"/><path d="m140.5 496.5h1c.838.342 1.172 1.008 1 2h-2z" fill="#bdbbbb" opacity=".48"/><path d="m320.5 497.5c.904.709 1.237 1.709 1 3-2.052-.553-2.385-1.553-1-3z" fill="#b3b2b0" opacity=".48"/><path d="m418.5 493.5c.961 1.765 1.295 3.765 1 6-1.447-.634-2.113-1.801-2-3.5.028-1.07.361-1.903 1-2.5z" fill="#928f8e" opacity=".333"/><path d="m1284.5 497.5c.62.417.96 1.084 1 2-.25 1.213-.91 1.88-2 2-.27-1.599.07-2.932 1-4z" fill="#858181" opacity=".667"/><path d="m969.5 496.5c.934 1.068 1.268 2.401 1 4-1.086-.12-1.753-.787-2-2 .043-.916.376-1.583 1-2z" fill="#7f7b7a" opacity=".333"/><path d="m994.5 498.5c2.052.553 2.385 1.553 1 3-.904-.709-1.237-1.709-1-3z" fill="#999695" opacity=".5"/><path d="m818.5 496.5c1.655 3.846 3.988 7.346 7 10.5 7.317 2.45 11.983 7.284 14 14.5a694.383 694.383 0 0 1 -6-8c-7.667-3-13-8.333-16-16 .124-.607.457-.94 1-1z" fill="#65605f" opacity=".443"/><path d="m1172.5 496.5c.77 4.127 2.44 7.96 5 11.5 7.67 1.866 15.34 3.032 23 3.5-7.66 1.478-15.33.978-23-1.5-4.6-3.653-6.27-8.153-5-13.5z" fill="#908d8c" opacity=".5"/><path d="m321.5 502.5c.838.342 1.172 1.008 1 2-1.924-.211-2.257-.877-1-2z" fill="#989594" opacity=".333"/><path d="m1268.5 500.5c.27 1.599-.07 2.932-1 4-.62-.417-.96-1.084-1-2 .25-1.213.91-1.88 2-2z" fill="#9c9a9a" opacity=".22"/><path d="m1354.5 492.5c-.27 4.105.23 8.105 1.5 12a81.956 81.956 0 0 0 10 14c6.25 14.303 1.75 23.636-13.5 28-.13-.876.2-1.543 1-2 13.05-4.107 16.89-12.44 11.5-25a63.857 63.857 0 0 1 -11-15c-1.24-4.279-1.58-8.612-1-13 .38.556.88.889 1.5 1z" fill="#7e7a7a" opacity=".443"/><path d="m322.5 506.5c.838.342 1.172 1.008 1 2h-2c-.172-.992.162-1.658 1-2z" fill="#bdbbbb" opacity=".48"/><path d="m419.5 501.5c1.637 7.143 5.971 11.976 13 14.5 2.234 1.638 3.567 3.805 4 6.5a674.49 674.49 0 0 1 -15.5-13c-1.762-2.682-2.262-5.348-1.5-8z" fill="#807c7c" opacity=".443"/><path d="m253.5 497.5c.543.06.876.393 1 1-2.304 7.818-6.804 14.151-13.5 19-.586 2.519-1.753 4.519-3.5 6 .255-2.516 1.089-4.85 2.5-7l9-9a235.73 235.73 0 0 0 4.5-10z" fill="#787574" opacity=".667"/><path d="m636.5 465.5c-4.716 21.105-14.382 39.438-29 55v-1a462.002 462.002 0 0 0 14.5-20c5.764-11.184 10.597-22.517 14.5-34z" fill="#6c6766" opacity=".333"/><path d="m1236.5 488.5c.44-.065.77.101 1 .5-6.73 14.299-17.73 21.799-33 22.5 14.59-2.257 25.25-9.924 32-23z" fill="#7c7876" opacity=".667"/><path d="m1426.5 546.5c-5.9.538-11.57-.295-17-2.5-3.47-4.467-7.3-8.633-11.5-12.5a736.148 736.148 0 0 0 -30-42c-2.17-2.167-4.33-4.333-6.5-6.5a12.92 12.92 0 0 0 -5-.5c-.22 2.567-.89 4.901-2 7-.77-2.923-.1-5.756 2-8.5 2.14-.635 4.14-.301 6 1a237.191 237.191 0 0 1 31.5 41.5 135.117 135.117 0 0 0 18.5 20.5c5.11-.114 9.77.72 14 2.5z" fill="#7c7878" opacity=".776"/><path d="m321.5 508.5h2a44.91 44.91 0 0 0 7 9h-1a25.913 25.913 0 0 1 -8-9z" fill="#4b4645" opacity=".667"/><path d="m140.5 498.5h2c.967 8.282 5.134 14.282 12.5 18a17.341 17.341 0 0 1 3.5 7 83.286 83.286 0 0 0 -13.5-13c-2.354-3.702-3.854-7.702-4.5-12z" fill="#7b7776" opacity=".333"/><path d="m970.5 502.5c2.644 7.177 7.144 13.177 13.5 18 3.209 8.46 1.375 15.627-5.5 21.5a23.423 23.423 0 0 1 -6 2.5v-1c9.766-4.873 12.933-12.54 9.5-23-5.746-4.399-9.913-9.899-12.5-16.5.07-.765.403-1.265 1-1.5z" fill="#74706e" opacity=".667"/><path d="m1283.5 503.5c.6.235.93.735 1 1.5l-1.5 4.5c-3.33 4-6.67 8-10 12-2.1 5.456-1.77 10.789 1 16 2.42 2.25 4.59 4.583 6.5 7-10.3-5.393-13.13-13.393-8.5-24a51.177 51.177 0 0 1 8-9 44.306 44.306 0 0 0 3.5-8z" fill="#736f6f" opacity=".481"/><path d="m339.5 487.5c1.25.077 2.083.744 2.5 2a342.133 342.133 0 0 0 15 44 36.548 36.548 0 0 0 6.5 7.5 2528.639 2528.639 0 0 1 17 10.5c-10.569-3.069-19.069-9.069-25.5-18a339.097 339.097 0 0 1 -15.5-46z" fill="#84807f" opacity=".443"/><path d="m1267.5 507.5c-2.11 13.541-7.44 25.541-16 36-.44.065-.77-.101-1-.5 7.44-10.224 12.44-21.557 15-34 .34-1.03 1-1.53 2-1.5z" fill="#858180" opacity=".5"/><path d="m436.5 525.5c1.333.667 1.333 1.333 0 2-1.333-.667-1.333-1.333 0-2z" fill="#c4c3c3" opacity=".386"/><path d="m1108.5 493.5c.53 5.966-.3 11.966-2.5 18a25.571 25.571 0 0 1 -5.5 6.5c-6.56 2.713-10.22 7.547-11 14.5-6.36 11.036-16.03 17.37-29 19-.03-.997.47-1.664 1.5-2a59.742 59.742 0 0 0 19.5-8.5c6.02-6.2 7.52-13.367 4.5-21.5a163.746 163.746 0 0 1 -14-10c-1.54-2.065-1.71-4.065-.5-6 .82 1.889 1.66 3.889 2.5 6 3.42 2.292 6.92 4.459 10.5 6.5 2.46 2.408 4.29 5.241 5.5 8.5a80.566 80.566 0 0 1 13-11c2.48-6.602 4.31-13.268 5.5-20z" fill="#8f8b8a" opacity=".667"/><path d="m329.5 517.5h1c3.222 2.639 4.888 6.139 5 10.5-.028 1.07-.361 1.903-1 2.5-.662-4.642-2.328-8.975-5-13z" fill="#928f8e" opacity=".48"/><path d="m839.5 526.5c-3.966 13.284-12.966 20.284-27 21-.03-.997.47-1.664 1.5-2 12.465-1.331 20.965-7.664 25.5-19z" fill="#6c6867" opacity=".331"/><path d="m902.5 497.5c1.059 2.226.892 4.559-.5 7a110.18 110.18 0 0 1 -12 13c-3.48 6.176-3.147 12.176 1 18 4.515 4.382 9.348 8.049 14.5 11-10.783-3.116-17.45-10.116-20-21-.034-2.933.799-5.6 2.5-8 7.119-5.245 11.952-11.911 14.5-20z" fill="#827e7d" opacity=".22"/><path d="m436.5 530.5c-4.587 12.482-13.587 19.482-27 21a371.367 371.367 0 0 1 16-7.5c4.729-3.87 8.396-8.37 11-13.5z" fill="#7d7978" opacity=".516"/><path d="m76.5 498.5c1.018 2.877.85 5.877-.5 9l-14 14c-1.785 7.306.048 13.472 5.5 18.5a103.223 103.223 0 0 0 23 7.5c1.213.247 1.88.914 2 2a91.505 91.505 0 0 1 -26-8.5c-7.297-6.338-8.797-13.838-4.5-22.5 4.19-3.434 8.19-7.1 12-11a545.511 545.511 0 0 1 2.5-9z" fill="#807d7c" opacity=".667"/><path d="m745.5 500.5c1.025.397 1.192 1.063.5 2-3.121 5.264-7.621 8.764-13.5 10.5-8.357 9.191-7.69 17.858 2 26 4.133 1.719 7.8 3.886 11 6.5-11.359-2.693-18.359-9.693-21-21 1.958-8.796 7.291-14.629 16-17.5 2.05-1.965 3.717-4.132 5-6.5z" fill="#7a7676" opacity=".667"/><path d="m995.5 503.5c.997-.03 1.664.47 2 1.5a180.138 180.138 0 0 0 4.5 15.5c5.36 16.027 16.36 25.693 33 29 1.03.336 1.53 1.003 1.5 2-17.39-2.891-29.22-12.558-35.5-29a134.91 134.91 0 0 1 -5.5-19z" fill="#858180" opacity=".22"/><path d="m1089.5 534.5c2.04 2.551 4.38 5.051 7 7.5 2.81 1.054 5.15 2.554 7 4.5-7.47-.812-12.14-4.812-14-12z" fill="#8a8685" opacity=".331"/><path d="m1485.5 533.5c-2.02 5.355-5.69 9.022-11 11 2.45-2.185 4.95-4.518 7.5-7a23.032 23.032 0 0 0 2-5c.38.556.88.889 1.5 1z" fill="#8b8887" opacity=".333"/><path d="m237.5 528.5a48.135 48.135 0 0 0 9 11.5 101.508 101.508 0 0 0 18.5 6.5c1.03.336 1.53 1.003 1.5 2a74.868 74.868 0 0 1 -24-9.5c-2.615-3.062-4.281-6.562-5-10.5z" fill="#767271" opacity=".443"/><path d="m1293.5 547.5c-3.9-.555-7.56-1.555-11-3 .24-.597.74-.93 1.5-1 2.48.745 4.98 1.411 7.5 2 1.21.247 1.88.914 2 2z" fill="#868281" opacity=".48"/><path d="m972.5 543.5v1c-3.142 1.29-6.475 2.29-10 3-.03-.997.47-1.664 1.5-2a52.417 52.417 0 0 1 8.5-2z" fill="#a8a5a5" opacity=".333"/><path d="m1197.5 546.5h-18c2.59-1.316 5.59-1.983 9-2 3.41.017 6.41.684 9 2z" fill="#47413f" opacity=".467"/><path d="m1462.5 544.5v2h-16c.11-.617.44-1.117 1-1.5 4.99-.499 9.99-.666 15-.5z" fill="#524c4c" opacity=".512"/><path d="m1472.5 544.5c-.34.838-1.01 1.172-2 1 .21-1.924.88-2.257 2-1z" fill="#a5a1a1" opacity=".22"/><path d="m158.5 527.5c-.676 6.196-3.676 11.029-9 14.5a45.233 45.233 0 0 1 -15 5.5l15-7.5 5.5-5.5c.728-2.687 1.895-5.02 3.5-7z" fill="#827e7e" opacity=".22"/><path d="m334.5 532.5c-1.014 3.189-2.68 6.022-5 8.5a73.707 73.707 0 0 1 -19 7.5l19-9.5c1.587-2.406 3.253-4.572 5-6.5z" fill="#868281" opacity=".22"/><path d="m1350.5 546.5c-.71.904-1.71 1.237-3 1 .55-2.052 1.55-2.385 3-1z" fill="#b3b2b0" opacity=".48"/><path d="m1462.5 544.5c1.91-.284 3.58.049 5 1-1.42.951-3.09 1.284-5 1z" fill="#aaa8a7" opacity=".333"/><path d="m132.5 547.5c-.709.904-1.709 1.237-3 1 .553-2.052 1.553-2.385 3-1z" fill="#b3b2b0" opacity=".48"/><path d="m754.5 547.5c-2.567-.221-4.901-.888-7-2 .235-.597.735-.93 1.5-1 2.448.199 4.281 1.199 5.5 3z" fill="#918e8e" opacity=".22"/><path d="m809.5 547.5c-.709.904-1.709 1.237-3 1 .553-2.052 1.553-2.385 3-1z" fill="#b3b2b0" opacity=".48"/><path d="m1216.5 545.5v2c-4.53.318-8.87-.015-13-1 4.13-.985 8.47-1.318 13-1z" fill="#b4b2b1" opacity=".333"/><path d="m1216.5 545.5c3.68-.165 7.35.001 11 .5 2.24.05 3.91.883 5 2.5a96.894 96.894 0 0 0 -16-1z" fill="#6c6866" opacity=".333"/><path d="m1300.5 548.5c-1.91.284-3.58-.049-5-1 .6-.639 1.43-.972 2.5-1 1.38.184 2.21.851 2.5 2z" fill="#878383" opacity=".667"/><path d="m1344.5 547.5c-.71.904-1.71 1.237-3 1 .55-2.052 1.55-2.385 3-1zm-1036 1c-.709.904-1.709 1.237-3 1 .553-2.052 1.553-2.385 3-1z" fill="#b3b2b0" opacity=".48"/><path d="m525.5 549.5c-3.281.08-6.281-.587-9-2 .235-.597.735-.93 1.5-1 3.026.213 5.526 1.213 7.5 3z" fill="#827f7e" opacity=".667"/><path d="m760.5 548.5c-1.291.237-2.291-.096-3-1 1.447-1.385 2.447-1.052 3 1z" fill="#a09c9c" opacity=".22"/><path d="m802.5 548.5c-1.068.934-2.401 1.268-4 1 .12-1.086.787-1.753 2-2 .916.043 1.583.376 2 1z" fill="#b7b5b4" opacity=".488"/><path d="m916.5 548.5c-3.281.08-6.281-.587-9-2 .235-.597.735-.93 1.5-1 3.026.213 5.526 1.213 7.5 3z" fill="#938f8f" opacity=".333"/><path d="m959.5 547.5c-.709.904-1.709 1.237-3 1 .553-2.052 1.553-2.385 3-1z" fill="#c0bdbd" opacity=".333"/><path d="m1308.5 549.5c-1.91.284-3.58-.049-5-1 .6-.639 1.43-.972 2.5-1 1.38.184 2.21.851 2.5 2z" fill="#878383" opacity=".667"/><path d="m100.5 550.5c-1.915.284-3.581-.049-5-1 .597-.639 1.43-.972 2.5-1 1.376.184 2.209.851 2.5 2z" fill="#999796" opacity=".667"/><path d="m121.5 549.5c-1.068.934-2.401 1.268-4 1 .12-1.086.787-1.753 2-2 .916.043 1.583.376 2 1z" fill="#b7b5b4" opacity=".488"/><path d="m273.5 549.5c-1.915.284-3.581-.049-5-1 1.955-1.43 3.621-1.097 5 1z" fill="#8e8b8b" opacity=".333"/><path d="m301.5 549.5a78.644 78.644 0 0 1 -25 0 78.644 78.644 0 0 1 25 0z" fill="#b7b5b4" opacity=".498"/><path d="m768.5 549.5c-1.915.284-3.581-.049-5-1 .597-.639 1.43-.972 2.5-1 1.376.184 2.209.851 2.5 2z" fill="#93908f" opacity=".333"/><path d="m923.5 549.5c-1.915.284-3.581-.049-5-1 .597-.639 1.43-.972 2.5-1 1.376.184 2.209.851 2.5 2z" fill="#c0bdbd" opacity=".22"/><path d="m952.5 548.5c-2.787.977-5.787 1.31-9 1 1.014-1.265 2.514-1.931 4.5-2 1.707.008 3.207.342 4.5 1z" fill="#797674" opacity=".333"/><path d="m1248.5 546.5c-.85 1.466-2.18 2.3-4 2.5-3.2.805-6.2.638-9-.5 4.2-.514 8.37-1.514 12.5-3 .4.228.57.562.5 1z" fill="#aba9a8" opacity=".22"/><path d="m1326.5 549.5c-2.67 1.333-5.33 1.333-8 0 2.67-1.333 5.33-1.333 8 0z" fill="#c5c3c3" opacity=".472"/><path d="m1338.5 548.5c-1.76.961-3.76 1.295-6 1 .47-1.193 1.47-1.86 3-2 1.23.02 2.23.353 3 1z" fill="#abaaa9" opacity=".333"/><path d="m607.5 519.5v1c-21.99 22.665-48.657 32.332-80 29 30.922 1.249 57.589-8.751 80-30z" fill="#827e7d" opacity=".333"/><path d="m791.5 549.5c-6 1.333-12 1.333-18 0 6-1.333 12-1.333 18 0z" fill="#adabaa" opacity=".333"/><path d="m939.5 549.5c-2 1.333-4 1.333-6 0 2-1.333 4-1.333 6 0z" fill="#d3d2d1" opacity=".333"/><path d="m406.5 551.5c-.709.904-1.709 1.237-3 1 .553-2.052 1.553-2.385 3-1z" fill="#b3b2b0" opacity=".48"/><path d="m1056.5 551.5c-5 1.333-10 1.333-15 0 5-1.333 10-1.333 15 0z" fill="#9f9c9b" opacity=".524"/><path d="m385.5 552.5c-1.291.237-2.291-.096-3-1 1.447-1.385 2.447-1.052 3 1z" fill="#9e9b9b" opacity=".22"/><path d="m396.5 552.5c-2.667 1.333-5.333 1.333-8 0 2.667-1.333 5.333-1.333 8 0z" fill="#b8b7b6" opacity=".333"/></svg>