<svg height="1186" viewBox="0 0 83.622 39.673" width="2500" xmlns="http://www.w3.org/2000/svg"><text stroke-width=".265" transform="translate(-287.388 -288.854)" x="-51.26" y="145.821"/><text stroke-width=".265" transform="translate(-287.388 -288.854)" x="13.372" y="138.392"/><path d="m0 0h83.622v31.564h-83.622z" fill="#00529e" fill-rule="evenodd"/><path d="m10.945 13.057v-2.56h1.837c1.556 0 2.42-1.07 2.42-2.324 0-1.264-.853-2.323-2.42-2.323h-3.372v7.207zm1.632-3.911h-1.632v-1.946h1.632c.605 0 1.058.367 1.058.972 0 .594-.453.973-1.058.973zm9.4 3.911-1.62-2.744c.777-.184 1.577-.865 1.577-2.14 0-1.34-.919-2.323-2.42-2.323h-3.371v7.207h1.534v-2.56h1.123l1.415 2.56zm-2.69-3.911h-1.61v-1.946h1.61c.616 0 1.08.367 1.08.972s-.464.973-1.08.973zm7.213 4.041c2.182 0 3.77-1.556 3.77-3.728s-1.588-3.729-3.77-3.729c-2.172 0-3.76 1.556-3.76 3.728s1.588 3.728 3.76 3.728zm0-1.362c-1.33 0-2.183-1.026-2.183-2.366 0-1.35.854-2.366 2.183-2.366s2.193 1.015 2.193 2.366c0 1.34-.864 2.366-2.193 2.366zm7.7 1.232c2.257 0 3.824-1.426 3.824-3.598s-1.567-3.609-3.825-3.609h-2.841v7.207zm0-1.35h-1.308v-4.507h1.307c1.48 0 2.258.983 2.258 2.258 0 1.22-.832 2.247-2.258 2.247zm8.176 1.48c2.193 0 3.252-1.221 3.252-3.015v-4.322h-1.568v4.279c0 1.005-.572 1.696-1.685 1.696s-1.697-.691-1.697-1.696v-4.279h-1.556v4.333c0 1.772 1.06 3.004 3.253 3.004zm8.151 0c1.588 0 2.496-.876 3.014-1.772l-1.318-.638a1.932 1.932 0 0 1 -1.696 1.048c-1.307 0-2.258-1.005-2.258-2.366s.95-2.366 2.258-2.366c.745 0 1.394.464 1.696 1.048l1.318-.648c-.507-.897-1.426-1.762-3.014-1.762-2.161 0-3.836 1.513-3.836 3.728s1.675 3.728 3.836 3.728zm7.147-.13v-5.857h2.096v-1.35h-5.748v1.35h2.107v5.856zm6.241.13c2.182 0 3.77-1.556 3.77-3.728s-1.588-3.728-3.77-3.728c-2.172 0-3.76 1.556-3.76 3.728s1.588 3.728 3.76 3.728zm0-1.362c-1.33 0-2.183-1.026-2.183-2.366 0-1.35.854-2.366 2.183-2.366s2.193 1.015 2.193 2.366c0 1.34-.864 2.366-2.193 2.366zm7.419 1.362c1.944 0 2.884-.994 2.884-2.313 0-2.69-4.138-1.923-4.138-3.068 0-.432.368-.724 1.027-.724.734 0 1.512.248 2.096.789l.853-1.124c-.713-.66-1.664-1.005-2.809-1.005-1.696 0-2.733.994-2.733 2.193 0 2.712 4.148 1.837 4.148 3.112 0 .41-.41.8-1.253.8a3.16 3.16 0 0 1 -2.29-.973l-.832 1.167c.67.68 1.664 1.146 3.047 1.146z" fill="#fff" stroke-width=".145"/><g fill="#fff" stroke-width=".167"><path d="m10.2 20.97c0-3.171 2.238-5.33 4.726-5.33 2.238 0 3.8 1.58 3.8 2.884 0 .696-.433 1.208-1 1.208-.58 0-1.062-.39-1.062-1.067 0-.433.232-.671.403-.866-.299-.58-.945-1.068-1.946-1.068-1.658 0-2.805 1.739-2.805 4.227 0 2.482 1.202 4.208 2.86 4.208 1 0 1.64-.482 1.946-1.068-.171-.189-.409-.426-.409-.86 0-.676.488-1.067 1.067-1.067.568 0 1 .506 1 1.202 0 1.31-1.567 2.884-3.805 2.884-2.488 0-4.775-1.963-4.775-5.287zm12.467-2.28c1.275 0 2.055.298 2.464.822.366.464.39 1.177.39 2.202v2.671c0 .567.372.75 1.013.842-.037.658-.5.914-1.037.963-.604.049-1.202-.231-1.433-.86-.28.25-1.098.885-2.16.885-1.463 0-2.554-.976-2.554-2.312 0-1.408 1.225-2.244 2.945-2.244.598 0 1.214.122 1.58.317v-.945c0-.848-.366-1.384-1.33-1.384-.195 0-.628.054-.97.182.037.135.068.281.068.41 0 .517-.33.932-.885.932-.488 0-.853-.39-.853-.89 0-.921 1.158-1.592 2.762-1.592zm-.055 3.872c-.83 0-1.433.414-1.433 1.213 0 .75.525 1.275 1.317 1.275.525 0 1.055-.293 1.379-.714v-1.066c0-.354-.458-.707-1.263-.707zm8.168-2.622c-.39.079-1 .512-1 2.158v1.842c0 .61.091.866.305 1.043.195.152.567.213.695.238.305.664-.195.866-1.659.866-1.457 0-2.049-.202-1.75-.866.134-.025.341-.086.543-.238.207-.177.286-.433.286-1.043v-3.055c0-.647-.262-.897-1.097-.75-.311-.726.524-1.135 1.055-1.293.17-.05.329-.08.475-.08.635 0 .933.476 1.055 1.11l.025-.012c.384-.714 1.055-1.183 1.683-1.183.555 0 1.104.354 1.104 1.037 0 .487-.342.988-.903.988-.451 0-.83-.318-.872-.763h.055zm5.978 0c-.39.079-1 .512-1 2.158v1.842c0 .61.092.866.305 1.043.195.152.567.213.695.238.305.664-.195.866-1.658.866-1.458 0-2.05-.202-1.75-.866.133-.025.34-.086.542-.238.207-.177.287-.433.287-1.043v-3.055c0-.647-.263-.897-1.098-.75-.311-.726.524-1.135 1.055-1.293.17-.05.33-.08.476-.08.634 0 .933.476 1.055 1.11l.024-.012c.384-.714 1.055-1.183 1.683-1.183.555 0 1.104.354 1.104 1.037 0 .487-.341.988-.902.988-.452 0-.83-.318-.873-.763h.055zm5.412-.293c-1.147 0-1.592.963-1.629 1.86h2.775c.317 0 .33-.19.33-.433a1.448 1.448 0 0 0 -1.477-1.427zm.262-.958c2 0 2.92 1.47 2.92 2.726 0 .366-.078.714-.237.994h-4.592c.043 1.409.94 2.421 2.476 2.421.933 0 1.646-.506 1.897-.823.115.085.237.22.237.53 0 .702-.841 1.665-2.805 1.665-1.976 0-3.58-1.573-3.58-3.628 0-2.269 1.488-3.885 3.684-3.885zm6.271.183v-1.238c0-.842.195-1.512 1.104-1.512.317 0 .646.091.805.274a.92.92 0 0 0 -.183.543c0 .47.42.854.866.854.603 0 .896-.513.896-.94 0-.97-1.122-1.616-2.5-1.616-1.092 0-1.793.433-2.202 1.068-.262.396-.457.987-.457 2.055v.524h-.506c-.458 0-.86.384-.592.921l1.11.037v4.098c0 .61-.08.866-.293 1.043a1.268 1.268 0 0 1 -.536.238c-.305.664.305.866 1.762.866 1.458 0 2.171-.202 1.872-.866-.134-.025-.597-.086-.792-.238-.214-.177-.318-.433-.318-1.043v-4.068c.238 0 .58.025.921.025.134 0 .275 0 .409-.013.42-.042.726-.475.5-1.012h-1.884z"/><path d="m54.577 18.69c2.129 0 3.672 1.511 3.672 3.737s-1.61 3.763-3.739 3.763c-2.012 0-3.659-1.512-3.659-3.763 0-2.226 1.75-3.738 3.726-3.738zm-.067.957c-1.08 0-1.738.987-1.738 2.567 0 2.03.897 2.958 1.818 2.958 1.036 0 1.774-.927 1.774-2.64 0-1.788-.786-2.885-1.854-2.885zm6.668 2.634.018-2.317c0-.708-.293-1.183-1.055-1.183-.146 0-.305.024-.42.048-.543.11-1.617.567-1.275 1.293.646-.08 1 .171 1 .817v1.354c0 1.41 0 2.373.628 3.123.409.482 1.055.774 1.817.774a2.59 2.59 0 0 0 1.793-.713c.196-.19.287-.293.39-.415.147.67.293 1.14 1.02 1.14.121 0 .274-.024.438-.048.55-.104 1.5-.446 1.214-1.171-.695.079-.994-.25-.994-.903 0-.134.012-.573.012-1.409 0-1.97.024-2.445.024-2.707 0-.708-.292-1.183-1.055-1.183-.146 0-.305.024-.47.048-.542.11-1.5.567-1.213 1.293.695-.08 1 .171 1 .817v1.867c0 .981-.329 2.06-1.537 2.06-1.11 0-1.347-.871-1.347-2.585zm9.863-2.341c-.39.079-1 .512-1 2.158v1.842c0 .61.091.866.305 1.043.195.152.567.213.695.238.305.664-.195.866-1.659.866-1.457 0-2.049-.202-1.75-.866.134-.025.341-.086.543-.238.207-.177.286-.433.286-1.043v-3.055c0-.647-.262-.897-1.097-.75-.311-.726.524-1.135 1.055-1.293.17-.05.329-.08.475-.08.635 0 .933.476 1.055 1.11l.025-.012c.384-.714 1.055-1.183 1.683-1.183.555 0 1.104.354 1.104 1.037 0 .487-.342.988-.903.988-.451 0-.83-.318-.872-.763h.055z"/></g><path d="m1.604 38.406c1.345 0 2.256-.886 2.256-2.153 0-1.268-.911-2.16-2.256-2.16h-1.604v4.313zm0-.666h-.847v-2.98h.847c.963 0 1.48.659 1.48 1.493 0 .815-.543 1.487-1.48 1.487zm4.416.744c.498 0 .957-.156 1.267-.453l-.31-.446c-.22.22-.582.343-.886.343-.589 0-.944-.388-.996-.86h2.412v-.162c0-.983-.602-1.7-1.54-1.7-.924 0-1.583.73-1.583 1.635 0 .99.698 1.643 1.636 1.643zm.827-1.895h-1.759c.033-.381.298-.828.88-.828.614 0 .866.46.88.828zm2.171 1.817v-2.528h.633v-.595h-.633v-.175c0-.349.168-.523.433-.523.155 0 .271.051.362.135l.265-.42c-.194-.2-.472-.272-.75-.272-.595 0-.99.401-.99 1.08v.175h-.517v.595h.518v2.528zm2.596.078c.498 0 .957-.156 1.268-.453l-.31-.446c-.22.22-.583.343-.887.343-.588 0-.944-.388-.995-.86h2.412v-.162c0-.983-.602-1.7-1.54-1.7-.924 0-1.584.73-1.584 1.635 0 .99.699 1.643 1.636 1.643zm.828-1.895h-1.759c.033-.381.298-.828.88-.828.614 0 .866.46.879.828zm4.117 1.817v-2.198c0-.64-.337-1.003-1.01-1.003-.49 0-.891.259-1.098.505v-.427h-.68v3.123h.68v-2.18c.155-.212.452-.42.801-.42.382 0 .628.162.628.647v1.953zm3.753 0v-4.313h-.68v1.623a1.253 1.253 0 0 0 -1.002-.51c-.808 0-1.39.633-1.39 1.642 0 1.028.589 1.636 1.39 1.636.401 0 .763-.194 1.003-.505v.427zm-1.488-.524c-.536 0-.879-.433-.879-1.034 0-.608.343-1.041.88-1.041.323 0 .653.187.808.42v1.241c-.155.233-.485.414-.809.414zm2.697-2.981a.42.42 0 1 0 .002-.839.42.42 0 0 0 -.002.84zm.343 3.505v-3.123h-.679v3.123zm2.316.078c.498 0 .957-.156 1.268-.453l-.31-.446c-.22.22-.583.343-.886.343-.589 0-.944-.388-.996-.86h2.412v-.162c0-.983-.602-1.7-1.54-1.7-.924 0-1.583.73-1.583 1.635 0 .99.698 1.643 1.635 1.643zm.828-1.895h-1.758c.033-.381.298-.828.88-.828.614 0 .866.46.88.828zm4.117 1.817v-2.198c0-.64-.337-1.003-1.009-1.003-.491 0-.892.259-1.1.505v-.427h-.678v3.123h.679v-2.18c.155-.212.452-.42.802-.42.381 0 .627.162.627.647v1.953zm3.753 0v-4.313h-.68v1.623a1.253 1.253 0 0 0 -1.001-.51c-.809 0-1.39.633-1.39 1.642 0 1.028.588 1.636 1.39 1.636.4 0 .763-.194 1.002-.505v.427zm-1.487-.524c-.537 0-.88-.433-.88-1.034 0-.608.343-1.041.88-1.041.323 0 .653.187.808.42v1.241c-.155.233-.485.414-.808.414zm3.769.602c1.003 0 1.61-.744 1.61-1.643 0-.892-.607-1.636-1.61-1.636-.989 0-1.603.744-1.603 1.636 0 .899.614 1.643 1.604 1.643zm0-.602c-.575 0-.898-.485-.898-1.04 0-.55.323-1.035.899-1.035.582 0 .905.485.905 1.034 0 .556-.323 1.041-.905 1.041zm5.64.602c.808 0 1.384-.615 1.384-1.643s-.576-1.636-1.384-1.636c-.408 0-.77.194-1.002.505v-.427h-.68v4.313h.68v-1.623c.252.336.607.51 1.002.51zm-.2-.602c-.317 0-.654-.194-.802-.42v-1.235c.148-.233.485-.42.801-.42.537 0 .88.433.88 1.034 0 .608-.343 1.041-.88 1.041zm2.936.524v-2.127c.136-.22.517-.414.802-.414.084 0 .155.007.213.02v-.673c-.407 0-.782.233-1.015.53v-.46h-.68v3.124zm3.011.078c.498 0 .957-.156 1.267-.453l-.31-.446c-.22.22-.582.343-.886.343-.588 0-.944-.388-.996-.86h2.412v-.162c0-.983-.601-1.7-1.539-1.7-.925 0-1.584.73-1.584 1.635 0 .99.698 1.643 1.636 1.643zm.827-1.895h-1.758c.032-.381.297-.828.88-.828.613 0 .866.46.878.828zm2.753 1.895c.608 0 .976-.259 1.196-.556l-.446-.414a.849.849 0 0 1 -.718.368c-.569 0-.944-.433-.944-1.04 0-.609.375-1.035.944-1.035.304 0 .543.122.718.368l.446-.414c-.22-.297-.588-.556-1.196-.556-.95 0-1.617.692-1.617 1.636 0 .95.666 1.643 1.617 1.643zm2.121-3.583a.42.42 0 1 0 .002-.839.42.42 0 0 0 -.002.84zm.343 3.505v-3.123h-.679v3.123zm2.284.078c1.002 0 1.61-.744 1.61-1.643 0-.892-.608-1.636-1.61-1.636-.99 0-1.604.744-1.604 1.636 0 .899.615 1.643 1.604 1.643zm0-.602c-.575 0-.899-.485-.899-1.04 0-.55.324-1.035.899-1.035.582 0 .905.485.905 1.034 0 .556-.323 1.041-.905 1.041zm3.822 1.746c.097.026.285.045.382.045.485-.006.86-.174 1.073-.704l1.507-3.686h-.731l-.912 2.34-.912-2.34h-.724l1.28 3.162-.155.356c-.09.206-.232.271-.446.271a.71.71 0 0 1 -.258-.052zm6.483-1.144c.609 0 .977-.259 1.197-.556l-.446-.414a.85.85 0 0 1 -.718.368c-.569 0-.944-.433-.944-1.04 0-.609.375-1.035.944-1.035.304 0 .543.122.718.368l.446-.414c-.22-.297-.588-.556-1.196-.556-.95 0-1.617.692-1.617 1.636 0 .95.666 1.643 1.617 1.643zm4.373-.078v-2.07c0-.84-.608-1.13-1.3-1.13-.498 0-.95.16-1.313.504l.278.472c.272-.265.576-.395.925-.395.433 0 .73.22.73.582v.466c-.226-.265-.588-.401-1.008-.401-.511 0-1.086.297-1.086 1.015 0 .692.575 1.035 1.086 1.035.414 0 .776-.15 1.009-.414v.336zm-1.423-.388c-.382 0-.666-.22-.666-.556 0-.343.284-.563.666-.563.297 0 .588.11.744.324v.472c-.156.213-.447.323-.744.323zm2.975.388v-4.313h-.679v4.313zm1.211-3.505a.42.42 0 1 0 .002-.839.42.42 0 0 0 -.002.84zm.343 3.505v-3.123h-.68v3.123zm3.751 0v-4.313h-.678v1.623a1.253 1.253 0 0 0 -1.002-.51c-.809 0-1.39.633-1.39 1.642 0 1.028.588 1.636 1.39 1.636.4 0 .763-.194 1.002-.505v.427zm-1.487-.524c-.536 0-.879-.433-.879-1.034 0-.608.343-1.041.88-1.041.323 0 .653.187.808.42v1.241c-.155.233-.485.414-.809.414zm4.947.524v-2.07c0-.84-.607-1.13-1.3-1.13-.497 0-.95.16-1.312.504l.278.472c.272-.265.576-.395.925-.395.433 0 .73.22.73.582v.466c-.226-.265-.588-.401-1.008-.401-.51 0-1.086.297-1.086 1.015 0 .692.575 1.035 1.086 1.035.414 0 .776-.15 1.009-.414v.336zm-1.422-.388c-.381 0-.666-.22-.666-.556 0-.343.285-.563.666-.563.298 0 .588.11.744.324v.472c-.156.213-.446.323-.744.323zm5.174.388v-4.313h-.679v1.623a1.253 1.253 0 0 0 -1.002-.51c-.808 0-1.39.633-1.39 1.642 0 1.028.588 1.636 1.39 1.636.4 0 .763-.194 1.002-.505v.427zm-1.487-.524c-.537 0-.88-.433-.88-1.034 0-.608.343-1.041.88-1.041.323 0 .653.187.808.42v1.241c-.155.233-.485.414-.808.414z" fill="#00529e" stroke-width=".115"/></svg>