<svg height="1020" viewBox="0 0 110.753 45.188" width="2500" xmlns="http://www.w3.org/2000/svg"><text stroke-width=".265" transform="translate(-275.904 -288.854)" x="-51.26" y="145.821"/><text stroke-width=".265" transform="translate(-275.904 -288.854)" x="13.372" y="138.392"/><path d="m11.484 0h83.622v31.564h-83.622z" fill="#00529e" fill-rule="evenodd"/><path d="m22.43 13.057v-2.56h1.836c1.556 0 2.42-1.07 2.42-2.324 0-1.264-.853-2.323-2.42-2.323h-3.371v7.207zm1.63-3.911h-1.63v-1.946h1.63c.606 0 1.06.367 1.06.972 0 .594-.454.973-1.06.973zm9.401 3.911-1.62-2.744c.777-.184 1.577-.865 1.577-2.14 0-1.34-.919-2.323-2.42-2.323h-3.371v7.207h1.534v-2.56h1.124l1.415 2.56zm-2.69-3.911h-1.61v-1.946h1.61c.616 0 1.08.367 1.08.972s-.464.973-1.08.973zm7.213 4.041c2.182 0 3.77-1.556 3.77-3.728s-1.588-3.728-3.77-3.728c-2.172 0-3.76 1.556-3.76 3.728s1.588 3.728 3.76 3.728zm0-1.362c-1.33 0-2.183-1.026-2.183-2.366 0-1.35.854-2.366 2.183-2.366s2.193 1.015 2.193 2.366c0 1.34-.864 2.366-2.193 2.366zm7.699 1.232c2.258 0 3.825-1.426 3.825-3.598s-1.567-3.609-3.825-3.609h-2.841v7.207zm0-1.35h-1.307v-4.507h1.307c1.48 0 2.258.983 2.258 2.258 0 1.22-.831 2.247-2.258 2.247zm8.177 1.48c2.193 0 3.252-1.221 3.252-3.015v-4.322h-1.567v4.279c0 1.005-.572 1.696-1.685 1.696s-1.697-.691-1.697-1.696v-4.279h-1.556v4.333c0 1.772 1.06 3.004 3.253 3.004zm8.15 0c1.59 0 2.497-.876 3.015-1.772l-1.318-.638a1.932 1.932 0 0 1 -1.696 1.048c-1.307 0-2.258-1.005-2.258-2.366s.95-2.366 2.258-2.366c.745 0 1.394.464 1.696 1.048l1.318-.648c-.507-.897-1.426-1.762-3.014-1.762-2.161 0-3.836 1.513-3.836 3.728s1.675 3.728 3.836 3.728zm7.148-.13v-5.857h2.096v-1.35h-5.748v1.35h2.107v5.856zm6.241.13c2.182 0 3.77-1.556 3.77-3.728s-1.587-3.729-3.769-3.729c-2.172 0-3.76 1.556-3.76 3.728s1.588 3.728 3.76 3.728zm0-1.362c-1.33 0-2.183-1.026-2.183-2.366 0-1.35.854-2.366 2.183-2.366s2.193 1.015 2.193 2.366c0 1.34-.864 2.366-2.193 2.366zm7.419 1.362c1.944 0 2.884-.994 2.884-2.313 0-2.69-4.138-1.923-4.138-3.068 0-.432.368-.724 1.027-.724.734 0 1.512.248 2.096.789l.853-1.124c-.713-.66-1.664-1.005-2.809-1.005-1.696 0-2.733.994-2.733 2.193 0 2.712 4.148 1.837 4.148 3.112 0 .41-.41.8-1.253.8a3.16 3.16 0 0 1 -2.29-.973l-.832 1.167c.67.68 1.664 1.146 3.047 1.146z" fill="#fff" stroke-width=".145"/><g fill="#fff" stroke-width=".167"><path d="m21.684 20.97c0-3.171 2.238-5.33 4.726-5.33 2.239 0 3.8 1.58 3.8 2.884 0 .696-.433 1.208-1 1.208-.58 0-1.062-.39-1.062-1.067 0-.433.232-.671.403-.866-.299-.58-.945-1.068-1.945-1.068-1.66 0-2.806 1.739-2.806 4.227 0 2.482 1.202 4.208 2.86 4.208 1 0 1.64-.482 1.946-1.068-.17-.189-.409-.426-.409-.86 0-.676.488-1.067 1.067-1.067.568 0 1 .506 1 1.202 0 1.31-1.567 2.884-3.805 2.884-2.488 0-4.775-1.963-4.775-5.287zm12.467-2.28c1.275 0 2.055.298 2.464.822.366.464.39 1.177.39 2.202v2.671c0 .567.372.75 1.013.842-.037.658-.5.914-1.037.963-.604.049-1.202-.231-1.433-.86-.28.25-1.098.885-2.16.885-1.463 0-2.554-.976-2.554-2.312 0-1.408 1.225-2.244 2.945-2.244.598 0 1.214.122 1.58.317v-.945c0-.848-.366-1.384-1.33-1.384-.195 0-.628.054-.97.182.037.135.068.281.068.41 0 .517-.33.932-.885.932-.488 0-.853-.39-.853-.89 0-.921 1.158-1.592 2.762-1.592zm-.055 3.872c-.83 0-1.433.414-1.433 1.213 0 .75.525 1.275 1.317 1.275.525 0 1.055-.293 1.379-.714v-1.066c0-.354-.458-.707-1.263-.707zm8.168-2.622c-.39.079-1 .512-1 2.158v1.842c0 .61.091.866.305 1.043.195.152.567.213.695.238.305.664-.195.866-1.659.866-1.457 0-2.049-.202-1.75-.866.134-.025.341-.086.543-.238.207-.177.286-.433.286-1.043v-3.055c0-.647-.262-.897-1.097-.75-.311-.726.524-1.135 1.055-1.293.17-.05.329-.08.475-.08.635 0 .933.476 1.055 1.11l.025-.012c.384-.714 1.055-1.183 1.683-1.183.555 0 1.104.354 1.104 1.037 0 .487-.342.988-.903.988-.451 0-.83-.318-.872-.763h.055zm5.978 0c-.39.079-1 .512-1 2.158v1.842c0 .61.092.866.305 1.043.195.152.567.213.695.238.305.664-.195.866-1.658.866-1.458 0-2.05-.202-1.75-.866.133-.025.34-.086.542-.238.207-.177.287-.433.287-1.043v-3.055c0-.647-.263-.897-1.098-.75-.311-.726.524-1.135 1.055-1.293.17-.05.33-.08.476-.08.634 0 .933.476 1.055 1.11l.024-.012c.384-.714 1.055-1.183 1.683-1.183.555 0 1.104.354 1.104 1.037 0 .487-.341.988-.902.988-.452 0-.83-.318-.873-.763h.055zm5.412-.293c-1.147 0-1.592.963-1.629 1.86h2.775c.317 0 .33-.19.33-.433a1.448 1.448 0 0 0 -1.476-1.427zm.262-.958c2 0 2.92 1.47 2.92 2.726 0 .366-.078.714-.237.994h-4.592c.043 1.409.94 2.421 2.476 2.421.933 0 1.647-.506 1.897-.823.115.085.237.22.237.53 0 .702-.841 1.665-2.805 1.665-1.976 0-3.58-1.573-3.58-3.628 0-2.269 1.488-3.885 3.684-3.885zm6.271.183v-1.238c0-.842.195-1.512 1.104-1.512.317 0 .646.091.805.274a.92.92 0 0 0 -.183.543c0 .47.42.854.866.854.603 0 .896-.513.896-.94 0-.97-1.122-1.616-2.5-1.616-1.092 0-1.793.433-2.202 1.068-.262.396-.457.987-.457 2.055v.524h-.506c-.458 0-.86.384-.592.921l1.11.037v4.098c0 .61-.08.866-.293 1.043a1.268 1.268 0 0 1 -.536.238c-.305.664.305.866 1.762.866 1.458 0 2.171-.202 1.872-.866-.134-.025-.597-.086-.792-.238-.214-.177-.318-.433-.318-1.043v-4.068c.238 0 .58.025.921.025.134 0 .275 0 .409-.013.42-.042.726-.475.5-1.012h-1.884z"/><path d="m66.061 18.69c2.129 0 3.672 1.511 3.672 3.737s-1.61 3.763-3.739 3.763c-2.012 0-3.659-1.512-3.659-3.763 0-2.226 1.75-3.738 3.726-3.738zm-.067.957c-1.079 0-1.738.987-1.738 2.567 0 2.03.897 2.958 1.818 2.958 1.036 0 1.774-.927 1.774-2.64 0-1.788-.786-2.885-1.854-2.885zm6.668 2.634.018-2.317c0-.708-.293-1.183-1.055-1.183-.146 0-.305.024-.42.048-.543.11-1.617.567-1.275 1.293.646-.08 1 .171 1 .817v1.354c0 1.41 0 2.373.628 3.123.409.482 1.055.774 1.817.774a2.59 2.59 0 0 0 1.793-.713c.196-.19.287-.293.39-.415.147.67.293 1.14 1.02 1.14.121 0 .274-.024.438-.048.55-.104 1.5-.446 1.214-1.171-.695.079-.994-.25-.994-.903 0-.134.012-.573.012-1.409 0-1.97.024-2.445.024-2.707 0-.708-.292-1.183-1.055-1.183-.146 0-.305.024-.47.048-.542.11-1.5.567-1.213 1.293.695-.08 1 .171 1 .817v1.867c0 .981-.329 2.06-1.537 2.06-1.11 0-1.347-.871-1.347-2.585zm9.863-2.341c-.39.079-1 .512-1 2.158v1.842c0 .61.091.866.305 1.043.195.152.567.213.695.238.305.664-.195.866-1.659.866-1.457 0-2.049-.202-1.75-.866.134-.025.341-.086.543-.238.207-.177.286-.433.286-1.043v-3.055c0-.647-.262-.897-1.097-.75-.311-.726.524-1.135 1.055-1.293.17-.05.329-.08.475-.08.635 0 .933.476 1.055 1.11l.025-.012c.384-.714 1.055-1.183 1.683-1.183.555 0 1.104.354 1.104 1.037 0 .487-.342.988-.903.988-.451 0-.83-.318-.872-.763h.055z"/></g><path d="m2.124 43.51c1.781 0 2.989-1.173 2.989-2.852s-1.208-2.86-2.99-2.86h-2.123v5.712zm0-.882h-1.122v-3.948h1.122c1.276 0 1.961.873 1.961 1.978 0 1.08-.72 1.97-1.961 1.97zm5.849.985c.66 0 1.267-.206 1.678-.6l-.41-.59c-.292.29-.772.453-1.174.453-.78 0-1.25-.514-1.319-1.139h3.194v-.214c0-1.302-.796-2.252-2.038-2.252-1.225 0-2.098.967-2.098 2.166 0 1.31.925 2.176 2.167 2.176zm1.096-2.51h-2.33c.043-.505.394-1.096 1.165-1.096.814 0 1.148.608 1.165 1.096zm2.874 2.407v-3.35h.84v-.788h-.84v-.23c0-.463.223-.695.574-.695.206 0 .36.069.48.18l.35-.556c-.256-.266-.624-.36-.993-.36-.788 0-1.31.53-1.31 1.43v.231h-.685v.788h.685v3.349zm3.44.103c.66 0 1.267-.206 1.678-.6l-.41-.59c-.292.29-.772.453-1.174.453-.78 0-1.25-.514-1.32-1.139h3.195v-.214c0-1.302-.796-2.252-2.038-2.252-1.225 0-2.098.967-2.098 2.166 0 1.31.925 2.176 2.167 2.176zm1.096-2.51h-2.33c.043-.505.394-1.096 1.165-1.096.814 0 1.148.608 1.165 1.096zm5.452 2.407v-2.912c0-.848-.445-1.327-1.336-1.327-.65 0-1.182.342-1.456.668v-.566h-.9v4.137h.9v-2.886c.206-.283.6-.557 1.062-.557.505 0 .83.214.83.856v2.587zm4.971 0v-5.712h-.9v2.15a1.66 1.66 0 0 0 -1.327-.677c-1.07 0-1.841.839-1.841 2.175 0 1.362.78 2.167 1.841 2.167.531 0 1.01-.257 1.327-.668v.565zm-1.97-.694c-.71 0-1.165-.574-1.165-1.37 0-.805.454-1.379 1.165-1.379.428 0 .865.248 1.07.557v1.644c-.205.308-.642.548-1.07.548zm3.572-3.948a.556.556 0 1 0 .002-1.111.556.556 0 0 0 -.002 1.111zm.454 4.642v-4.137h-.9v4.137zm3.068.103c.66 0 1.267-.206 1.678-.6l-.41-.59c-.292.29-.772.453-1.174.453-.78 0-1.25-.514-1.319-1.139h3.194v-.214c0-1.302-.796-2.252-2.038-2.252-1.224 0-2.098.967-2.098 2.166 0 1.31.925 2.176 2.167 2.176zm1.096-2.51h-2.33c.043-.505.394-1.096 1.165-1.096.814 0 1.148.608 1.165 1.096zm5.452 2.407v-2.912c0-.848-.445-1.327-1.336-1.327-.65 0-1.182.342-1.456.668v-.566h-.899v4.137h.9v-2.886c.205-.283.599-.557 1.061-.557.506 0 .831.214.831.856v2.587zm4.971 0v-5.712h-.9v2.15a1.66 1.66 0 0 0 -1.327-.677c-1.07 0-1.841.839-1.841 2.175 0 1.362.78 2.167 1.841 2.167.531 0 1.01-.257 1.328-.668v.565zm-1.97-.694c-.71 0-1.165-.574-1.165-1.37 0-.805.454-1.379 1.165-1.379.428 0 .865.248 1.07.557v1.644c-.205.308-.642.548-1.07.548zm4.994.797c1.327 0 2.132-.985 2.132-2.176 0-1.182-.805-2.166-2.132-2.166-1.31 0-2.124.984-2.124 2.166 0 1.19.813 2.176 2.124 2.176zm0-.797c-.763 0-1.19-.642-1.19-1.379 0-.728.427-1.37 1.19-1.37.77 0 1.199.642 1.199 1.37 0 .737-.429 1.38-1.2 1.38zm7.468.797c1.07 0 1.833-.814 1.833-2.176 0-1.361-.762-2.166-1.833-2.166-.54 0-1.019.257-1.327.668v-.566h-.9v5.713h.9v-2.15c.334.445.805.677 1.327.677zm-.265-.797c-.42 0-.865-.257-1.062-.557v-1.635c.197-.309.642-.557 1.062-.557.71 0 1.164.574 1.164 1.37 0 .805-.453 1.38-1.164 1.38zm3.888.694v-2.818c.18-.29.686-.548 1.063-.548.111 0 .205.01.282.026v-.89c-.54 0-1.036.307-1.344.701v-.608h-.9v4.137zm3.989.103c.66 0 1.267-.206 1.678-.6l-.41-.59c-.292.29-.771.453-1.174.453-.78 0-1.25-.514-1.319-1.139h3.195v-.214c0-1.302-.797-2.252-2.039-2.252-1.224 0-2.098.967-2.098 2.166 0 1.31.925 2.176 2.167 2.176zm1.096-2.51h-2.33c.043-.505.395-1.096 1.165-1.096.814 0 1.148.608 1.165 1.096zm3.645 2.51c.805 0 1.293-.343 1.585-.737l-.591-.548a1.125 1.125 0 0 1 -.95.488c-.755 0-1.251-.574-1.251-1.379s.496-1.37 1.25-1.37c.403 0 .72.163.95.488l.592-.548c-.292-.394-.78-.736-1.585-.736-1.259 0-2.14.916-2.14 2.166 0 1.26.881 2.176 2.14 2.176zm2.81-4.745a.556.556 0 1 0 .002-1.111.556.556 0 0 0 -.002 1.111zm.454 4.642v-4.137h-.9v4.137zm3.026.103c1.327 0 2.132-.985 2.132-2.176 0-1.182-.805-2.166-2.133-2.166-1.31 0-2.124.984-2.124 2.166 0 1.19.814 2.176 2.124 2.176zm0-.797c-.763 0-1.191-.642-1.191-1.379 0-.728.428-1.37 1.19-1.37.77 0 1.2.642 1.2 1.37 0 .737-.43 1.38-1.2 1.38zm5.061 2.312c.129.035.377.06.505.06.643-.009 1.14-.23 1.422-.933l1.996-4.882h-.968l-1.208 3.1-1.207-3.1h-.96l1.696 4.188-.205.471c-.12.274-.309.36-.591.36a.94.94 0 0 1 -.343-.069zm8.588-1.515c.805 0 1.293-.343 1.584-.737l-.591-.548a1.125 1.125 0 0 1 -.95.488c-.754 0-1.251-.574-1.251-1.379s.497-1.37 1.25-1.37c.403 0 .72.163.951.488l.59-.548c-.29-.394-.778-.736-1.583-.736-1.26 0-2.141.916-2.141 2.166 0 1.26.882 2.176 2.14 2.176zm5.79-.103v-2.74c0-1.114-.805-1.5-1.722-1.5-.66 0-1.259.215-1.738.669l.368.625c.36-.351.762-.523 1.225-.523.574 0 .967.292.967.771v.617c-.3-.351-.779-.531-1.336-.531-.676 0-1.438.394-1.438 1.344 0 .917.762 1.37 1.438 1.37.549 0 1.028-.196 1.336-.548v.446zm-1.884-.514c-.506 0-.882-.291-.882-.737 0-.453.376-.745.882-.745.394 0 .779.146.984.429v.625c-.205.282-.59.428-.984.428zm3.94.514v-5.712h-.899v5.712zm1.604-4.642a.556.556 0 1 0 .002-1.111.556.556 0 0 0 -.002 1.111zm.454 4.642v-4.137h-.9v4.137zm4.969 0v-5.712h-.9v2.15a1.66 1.66 0 0 0 -1.327-.677c-1.07 0-1.84.839-1.84 2.175 0 1.362.778 2.167 1.84 2.167.531 0 1.01-.257 1.328-.668v.565zm-1.97-.694c-.71 0-1.164-.574-1.164-1.37 0-.805.453-1.379 1.164-1.379.428 0 .865.248 1.07.557v1.644c-.205.308-.642.548-1.07.548zm6.552.694v-2.74c0-1.114-.805-1.5-1.72-1.5-.66 0-1.26.215-1.74.669l.369.625c.36-.351.762-.523 1.225-.523.573 0 .967.292.967.771v.617c-.3-.351-.78-.531-1.336-.531-.676 0-1.439.394-1.439 1.344 0 .917.763 1.37 1.44 1.37.547 0 1.027-.196 1.335-.548v.446zm-1.884-.514c-.505 0-.882-.291-.882-.737 0-.453.377-.745.882-.745.394 0 .78.146.985.429v.625c-.205.282-.59.428-.985.428zm6.853.514v-5.712h-.9v2.15a1.66 1.66 0 0 0 -1.327-.677c-1.07 0-1.84.839-1.84 2.175 0 1.362.778 2.167 1.84 2.167.531 0 1.01-.257 1.328-.668v.565zm-1.97-.694c-.71 0-1.164-.574-1.164-1.37 0-.805.453-1.379 1.164-1.379.428 0 .865.248 1.07.557v1.644c-.205.308-.642.548-1.07.548z" stroke-width=".115"/></svg>