<svg height="2500" width="2500" xmlns="http://www.w3.org/2000/svg" viewBox="0 0 640 640"><g fill-rule="evenodd"><path d="M0 0h640v640H0z" fill="#fff"/><g fill="#252c3a"><path d="M164.827 300.281h7.052v32.386c0 3.878-3.174 7.052-7.052 7.052h-7.054v-32.386c0-3.878 3.174-7.052 7.054-7.052M181.521 300.281h-7.052v32.386h7.052c3.88 0 7.054-3.174 7.054-7.054v-18.28c0-3.878-3.174-7.052-7.054-7.052M198.219 300.281h-7.054v32.386c0 3.878 3.174 7.052 7.054 7.052h7.052v-32.386c0-3.878-3.174-7.052-7.052-7.052M241.2 309.23v-.069c0-1.258-.216-2.406-.647-3.444a7.554 7.554 0 0 0-1.853-2.674c-.803-.746-1.783-1.322-2.936-1.73s-2.464-.612-3.932-.612h-9.999v24.47h5.384v-7.34h4.09c1.376 0 2.662-.182 3.864-.543 1.2-.361 2.248-.903 3.145-1.625s1.603-1.62 2.115-2.692c.513-1.072.769-2.319.769-3.74zm-5.453.106c0 1.048-.374 1.928-1.119 2.639s-1.795 1.066-3.145 1.066h-4.266v-7.481h4.16c1.352 0 2.418.315 3.199.944.78.63 1.17 1.55 1.17 2.761zm30.588 15.835l-5.978-8.739c1.56-.583 2.826-1.497 3.792-2.744.968-1.248 1.451-2.861 1.451-4.843v-.069c0-2.54-.81-4.52-2.43-5.943-1.62-1.421-3.886-2.132-6.798-2.132h-11.187v24.47h5.383v-7.831h4.23l5.243 7.83zm-6.188-16.046c0 1.05-.355 1.888-1.066 2.518-.712.629-1.73.944-3.06.944h-5.453v-7.027h5.35c1.327 0 2.365.292 3.11.873.745.583 1.119 1.458 1.119 2.623zm35.237 3.811v-.07c0-1.747-.321-3.385-.963-4.911a12.033 12.033 0 0 0-2.69-3.986c-1.155-1.13-2.523-2.026-4.108-2.69-1.584-.664-3.322-.998-5.208-.998-1.888 0-3.631.334-5.227.998s-2.97 1.572-4.124 2.726a12.641 12.641 0 0 0-2.71 4.02c-.653 1.527-.98 3.163-.98 4.911v.07c0 1.747.322 3.385.963 4.911.64 1.527 1.538 2.855 2.691 3.986s2.523 2.026 4.108 2.692c1.584.664 3.32.996 5.208.996s3.63-.332 5.227-.996c1.596-.666 2.97-1.574 4.124-2.727a12.682 12.682 0 0 0 2.71-4.02c.652-1.527.979-3.164.979-4.912zm-5.63.07c0 1.049-.18 2.033-.54 2.954a7.74 7.74 0 0 1-1.505 2.43c-.64.698-1.414 1.246-2.324 1.642s-1.9.595-2.97.595c-1.096 0-2.092-.204-2.99-.612s-1.677-.962-2.341-1.66a7.375 7.375 0 0 1-1.539-2.448 8.137 8.137 0 0 1-.542-2.971v-.07c0-1.049.181-2.033.542-2.954.362-.92.862-1.73 1.503-2.43s1.41-1.246 2.308-1.642c.896-.396 1.893-.595 2.988-.595 1.072 0 2.063.204 2.972.612a7.424 7.424 0 0 1 2.36 1.66 7.414 7.414 0 0 1 1.537 2.447c.362.933.542 1.924.542 2.972zm34.889 12.165V300.7h-5.804l-6.432 10.347-6.432-10.347h-5.803v24.47h5.313V309.3l6.818 10.348h.14l6.885-10.452v15.975zm29.712 0l-10.487-24.644h-4.964l-10.487 24.644h5.488l2.238-5.488h10.346l2.238 5.488zm-9.788-10.243h-6.502l3.251-7.935zm32.09-9.263v-4.964h-20.274v4.964h7.445v19.506h5.384v-19.506zm22.723 19.506v-4.79h-13.284v-5.138h11.536v-4.788h-11.536v-4.964h13.11v-4.79h-18.423v24.47zm25.972 0l-5.977-8.739c1.561-.583 2.826-1.497 3.793-2.744.967-1.248 1.45-2.861 1.45-4.843v-.069c0-2.54-.809-4.52-2.429-5.943-1.62-1.421-3.886-2.132-6.798-2.132h-11.187v24.47h5.383v-7.831h4.23l5.243 7.83zm-6.187-16.046c0 1.05-.356 1.888-1.065 2.518-.712.629-1.73.944-3.06.944h-5.453v-7.027h5.349c1.328 0 2.365.292 3.11.873.747.583 1.12 1.458 1.12 2.623zm15.94 16.046V300.7h-5.384v24.47zm24.715 0v-4.79h-13.284v-5.138h11.536v-4.788h-11.536v-4.964h13.11v-4.79h-18.422v24.47zm22.407 0v-4.859h-12.199v-19.61h-5.384v24.469zM226.684 339.604v-1.34h-3.365v-5.41h-1.486v6.75zm8.492 0v-1.321h-3.663v-1.418h3.182v-1.32h-3.182v-1.369h3.615v-1.321h-5.08v6.749zm16.15-1.09l-.945-.954c-.264.244-.529.437-.796.579-.265.141-.592.21-.977.21a1.868 1.868 0 0 1-1.413-.625 2.201 2.201 0 0 1-.4-.675 2.327 2.327 0 0 1-.144-.82v-.018c0-.29.048-.562.144-.816.097-.254.232-.476.405-.67.173-.192.381-.344.621-.453.242-.11.504-.164.787-.164.34 0 .647.068.92.203s.541.321.805.558l.946-1.088a3.843 3.843 0 0 0-.503-.424 2.952 2.952 0 0 0-.587-.328 3.63 3.63 0 0 0-.709-.213 4.525 4.525 0 0 0-.863-.076c-.52 0-.996.09-1.426.275-.431.182-.8.433-1.11.752-.308.317-.549.686-.722 1.108s-.26.873-.26 1.354v.02c0 .482.086.935.26 1.359s.414.792.722 1.104c.31.312.676.557 1.1.737s.883.27 1.379.27c.327 0 .623-.027.887-.082a3.143 3.143 0 0 0 1.34-.621 5.1 5.1 0 0 0 .54-.501zm9.14 1.09v-6.75h-1.485v2.671h-2.738v-2.67h-1.484v6.749h1.484v-2.71h2.738v2.71zm10.74-3.375v-.018c0-.483-.09-.935-.266-1.355a3.327 3.327 0 0 0-.743-1.099 3.565 3.565 0 0 0-1.133-.742c-.437-.184-.915-.275-1.436-.275s-1.001.09-1.441.275a3.455 3.455 0 0 0-2.155 3.214v.02c0 .482.09.934.265 1.354.176.421.424.788.743 1.1.317.312.696.558 1.132.741.437.183.916.275 1.437.275.52 0 1-.092 1.442-.275.44-.183.818-.433 1.137-.75.317-.32.567-.689.747-1.11s.27-.872.27-1.355zm-1.554.02c0 .29-.05.56-.15.815a2.132 2.132 0 0 1-.414.67c-.176.193-.39.343-.64.451-.25.111-.524.164-.82.164a1.975 1.975 0 0 1-1.47-.625 2.049 2.049 0 0 1-.425-.675 2.271 2.271 0 0 1-.149-.82v-.018a2.166 2.166 0 0 1 .564-1.485c.177-.193.39-.345.637-.454.247-.11.522-.164.824-.164.295 0 .568.056.819.17a2.032 2.032 0 0 1 1.075 1.132c.1.257.149.53.149.82zm6.672 3.355v-6.75h-1.484v6.75zm9.881 0l-2.353-3.452 2.257-3.297h-1.688l-1.426 2.189-1.418-2.19h-1.734l2.256 3.318-2.352 3.432h1.686l1.523-2.315 1.513 2.315zm16.218-3.375v-.018c0-.476-.087-.918-.262-1.327a3.152 3.152 0 0 0-.737-1.065c-.317-.302-.697-.538-1.137-.708s-.924-.256-1.451-.256h-2.63v6.749h2.63c.527 0 1.01-.088 1.45-.261s.82-.411 1.138-.714c.319-.301.564-.657.737-1.069a3.37 3.37 0 0 0 .262-1.33zm-1.552.02c0 .302-.051.575-.15.819-.1.244-.238.456-.414.636-.178.18-.391.319-.642.415s-.526.145-.829.145h-1.147v-4.07h1.147c.303 0 .579.051.83.151a1.827 1.827 0 0 1 1.055 1.064c.099.252.15.524.15.82zm10.893.414v-3.808h-1.485v3.866c0 .54-.128.944-.386 1.215-.257.27-.613.404-1.069.404-.457 0-.813-.139-1.07-.419s-.386-.696-.386-1.248v-3.818h-1.484v3.857c0 .996.26 1.744.78 2.245s1.233.752 2.14.752c.45 0 .859-.062 1.224-.188.367-.125.679-.314.936-.569a2.5 2.5 0 0 0 .592-.95c.139-.378.208-.825.208-1.34zm15.745-1.456v-.019c0-.347-.06-.664-.178-.95a2.076 2.076 0 0 0-.511-.737 2.287 2.287 0 0 0-.81-.477 3.246 3.246 0 0 0-1.085-.17h-2.757v6.75h1.484v-2.025h1.13c.378 0 .733-.05 1.063-.15.331-.098.622-.249.868-.448.248-.198.442-.446.584-.742.142-.296.212-.639.212-1.032zm-1.504.029c0 .29-.102.532-.309.728-.205.196-.495.295-.868.295h-1.176v-2.064h1.148c.373 0 .667.088.881.26.216.174.324.428.324.762zm10.682 4.368l-1.65-2.41c.432-.16.78-.413 1.047-.758.267-.343.4-.788.4-1.335v-.018c0-.702-.223-1.247-.67-1.64-.447-.391-1.071-.588-1.875-.588h-3.084v6.749h1.484v-2.16h1.166l1.446 2.16zm-1.707-4.425c0 .289-.097.521-.293.694s-.478.26-.844.26h-1.504v-1.938h1.474c.367 0 .654.081.859.241.205.161.308.403.308.724zm11.964 1.05v-.018c0-.483-.088-.935-.265-1.355a3.307 3.307 0 0 0-.743-1.099 3.559 3.559 0 0 0-1.132-.742 3.665 3.665 0 0 0-1.436-.275c-.521 0-1.001.09-1.441.275a3.46 3.46 0 0 0-1.886 1.86c-.18.421-.269.873-.269 1.354v.02c0 .482.088.934.264 1.354.177.421.424.788.743 1.1s.696.558 1.133.741c.436.183.916.275 1.436.275.521 0 1.001-.092 1.441-.275s.82-.433 1.138-.75c.318-.32.566-.689.746-1.11s.271-.872.271-1.355zm-1.552.02a2.182 2.182 0 0 1-.564 1.484c-.177.194-.39.344-.641.452-.251.111-.524.164-.819.164a1.981 1.981 0 0 1-1.47-.625 2.045 2.045 0 0 1-.425-.675c-.1-.257-.149-.53-.149-.82v-.018c0-.29.05-.562.15-.816.098-.254.237-.476.414-.67.176-.192.388-.344.636-.453.247-.11.521-.164.824-.164.295 0 .57.056.819.17.25.111.468.265.652.457.182.193.324.417.424.674.098.258.149.531.149.82zm10.257-2.054v-1.34h-5.138v6.749h1.484v-2.613h3.22v-1.34h-3.22v-1.456zm8.56 5.409v-1.321h-3.662v-1.418h3.181v-1.32h-3.181v-1.369h3.614v-1.321h-5.08v6.749zm8.455-1.996v-.02c0-.295-.047-.55-.14-.761s-.233-.396-.416-.555c-.183-.156-.41-.292-.676-.404s-.572-.213-.915-.304c-.289-.077-.528-.144-.72-.203a2.171 2.171 0 0 1-.449-.182.559.559 0 0 1-.227-.218.611.611 0 0 1-.062-.284v-.02a.51.51 0 0 1 .217-.418c.144-.112.361-.17.65-.17.289 0 .58.06.867.179.291.119.586.281.888.487l.771-1.119a3.926 3.926 0 0 0-1.143-.635 4.032 4.032 0 0 0-1.364-.222c-.346 0-.664.048-.952.145a2.16 2.16 0 0 0-.744.415 1.89 1.89 0 0 0-.484.641 1.973 1.973 0 0 0-.172.833v.019c0 .335.054.615.159.839.107.225.257.413.45.564.193.152.429.278.706.381s.587.196.928.279c.283.07.515.138.69.202.178.064.317.13.417.194s.168.133.202.208a.572.572 0 0 1 .054.254v.019a.53.53 0 0 1-.256.468c-.17.112-.41.168-.718.168-.385 0-.741-.073-1.065-.221s-.641-.347-.95-.598l-.877 1.051c.406.367.855.637 1.35.815s.998.265 1.513.265c.367 0 .701-.047 1.001-.14s.56-.228.778-.405c.217-.176.385-.395.508-.655.12-.26.181-.557.181-.892zm8.416 0v-.02c0-.295-.047-.55-.14-.761a1.552 1.552 0 0 0-.416-.555c-.183-.156-.41-.292-.676-.404s-.572-.213-.915-.304c-.289-.077-.528-.144-.718-.203a2.156 2.156 0 0 1-.451-.182.559.559 0 0 1-.227-.218.595.595 0 0 1-.062-.284v-.02a.51.51 0 0 1 .217-.418c.144-.112.361-.17.65-.17s.58.06.869.179.584.281.886.487l.771-1.119a3.926 3.926 0 0 0-1.143-.635 4.032 4.032 0 0 0-1.364-.222c-.346 0-.665.048-.952.145a2.16 2.16 0 0 0-.744.415 1.89 1.89 0 0 0-.484.641 1.953 1.953 0 0 0-.172.833v.019c0 .335.054.615.159.839.107.225.257.413.45.564.193.152.43.278.706.381.277.103.585.196.928.279.284.07.515.138.69.202.178.064.317.13.418.194a.528.528 0 0 1 .201.208.572.572 0 0 1 .054.254v.019c0 .2-.086.356-.255.468-.17.112-.41.168-.719.168-.385 0-.741-.073-1.065-.221a4.377 4.377 0 0 1-.95-.598l-.877 1.051c.406.367.855.637 1.35.815s.998.265 1.513.265c.367 0 .7-.047 1.001-.14.3-.093.56-.228.778-.405.217-.176.385-.395.508-.655.12-.26.181-.557.181-.892zm5.09 1.996v-6.75h-1.485v6.75zm10.807-3.375v-.018c0-.483-.089-.935-.265-1.355a3.287 3.287 0 0 0-.743-1.099 3.559 3.559 0 0 0-1.132-.742 3.667 3.667 0 0 0-1.437-.275c-.52 0-1 .09-1.44.275a3.46 3.46 0 0 0-1.885 1.86c-.18.421-.27.873-.27 1.354v.02c0 .482.088.934.264 1.354.178.421.424.788.743 1.1s.696.558 1.133.741c.436.183.916.275 1.436.275.522 0 1.002-.092 1.442-.275s.82-.433 1.137-.75c.319-.32.567-.689.747-1.11s.27-.872.27-1.355zm-1.552.02a2.182 2.182 0 0 1-.564 1.484c-.177.194-.39.344-.641.452-.25.111-.524.164-.82.164a1.98 1.98 0 0 1-1.47-.625 2.045 2.045 0 0 1-.423-.675c-.1-.257-.15-.53-.15-.82v-.018c0-.29.05-.562.15-.816.098-.254.237-.476.414-.67.176-.192.388-.344.636-.453.247-.11.522-.164.824-.164.295 0 .57.056.819.17.25.111.468.265.652.457.183.193.324.417.424.674s.15.531.15.82zm11.115 3.355v-6.75h-1.465v4.157l-3.162-4.156h-1.369v6.749h1.465v-4.29l3.268 4.29zm9.863 0v-6.75h-1.466v4.157l-3.162-4.156h-1.368v6.749h1.465v-4.29l3.268 4.29zm8.994 0v-1.321h-3.664v-1.418h3.182v-1.32h-3.182v-1.369h3.616v-1.321h-5.081v6.749zm8.426 0v-1.34h-3.366v-5.41h-1.484v6.75zm16.584 0l-2.892-6.797h-1.37l-2.892 6.797h1.514l.617-1.515h2.853l.618 1.515zm-2.7-2.825h-1.792l.896-2.188zm12.176-3.924h-1.6l-1.764 4.753-1.764-4.753h-1.64l2.729 6.797h1.31zm4.84 6.749v-6.75h-1.484v6.75zm8.81-1.996v-.02c0-.295-.046-.55-.14-.761s-.233-.396-.416-.555c-.182-.156-.409-.292-.676-.404s-.572-.213-.914-.304c-.29-.077-.528-.144-.72-.203a2.171 2.171 0 0 1-.45-.182.567.567 0 0 1-.226-.218.611.611 0 0 1-.063-.284v-.02a.51.51 0 0 1 .217-.418c.144-.112.362-.17.651-.17s.577.06.868.179c.288.119.584.281.887.487l.77-1.119a3.926 3.926 0 0 0-1.142-.635 4.032 4.032 0 0 0-1.364-.222c-.347 0-.664.048-.954.145a2.166 2.166 0 0 0-.742.415 1.89 1.89 0 0 0-.484.641 1.973 1.973 0 0 0-.172.833v.019c0 .335.053.615.158.839.107.225.258.413.451.564.192.152.43.278.705.381.278.103.587.196.928.279.283.07.515.138.692.202.176.064.315.13.416.194a.543.543 0 0 1 .203.208.591.591 0 0 1 .052.254v.019c0 .2-.085.356-.255.468-.17.112-.41.168-.718.168-.386 0-.742-.073-1.066-.221s-.641-.347-.949-.598l-.877 1.051c.404.367.854.637 1.349.815s1 .265 1.513.265c.367 0 .702-.047 1.002-.14s.56-.228.777-.405c.217-.176.385-.395.508-.655.12-.26.181-.557.181-.892zm8.667 1.996v-1.321h-3.663v-1.418h3.182v-1.32h-3.182v-1.369h3.615v-1.321h-5.08v6.749zm-2.275-7.279l1.235-1.157-1.264-.55-1.09 1.707z"/></g></g></svg>