<svg viewBox="0 0.4 960 788.4000000000001" xmlns="http://www.w3.org/2000/svg" width="2500" height="2052"><radialGradient id="a" cx="854.619" cy="-483.407" gradientUnits="userSpaceOnUse" r="1471.461"><stop offset=".556" stop-color="#6d4aff"/><stop offset="1" stop-color="#ff50c3"/></radialGradient><linearGradient id="b" gradientTransform="matrix(1189.928 1317.46 -798.266 720.993 -12.523 -411.063)" gradientUnits="userSpaceOnUse" x2="1"><stop offset="0" stop-color="#7341ff"/><stop offset=".359" stop-color="#b487ff"/><stop offset="1" stop-color="#ffc8ff"/></linearGradient><path d="M0 103.2l137.1-68.5 240 137.1h411.5v582.7l-34.3 34.3H102.9C46.1 788.8 0 742.7 0 685.9z" fill="url(#a)"/><path d="M375.8 49.3c17.6 12.8 38.8 19.6 60.5 19.6h420.8C913.9 68.9 960 115 960 171.8v514.1c0 56.8-46.1 102.9-102.9 102.9H754.3V291.7c0-47.3-38.4-85.7-85.7-85.7h-360c-22.3 0-43.9-7.2-61.7-20.5l-82.3-61.7c-17.8-13.4-39.5-20.6-61.7-20.6H0C0 46.4 46.1.4 102.9.4h172.2C296.9.4 318 7.3 335.6 20z" fill="url(#b)"/></svg>