<svg viewBox="0.2 0.1 756.9999999999999 959" xmlns="http://www.w3.org/2000/svg" width="1973" height="2500"><linearGradient id="a" gradientTransform="matrix(0 -366.99 294.69 0 131.314 911.894)" gradientUnits="userSpaceOnUse" x2="1"><stop offset="0" stop-color="#6d4bfd"/><stop offset="1" stop-color="#1c0554"/></linearGradient><path d="M.2 709.4v249.7h174.9V720.2c0-23.3 9.2-45.6 25.6-62s38.6-25.7 61.8-25.7h179.3c83.6 0 163.8-33.3 223-92.6 59.1-59.3 92.3-139.7 92.4-223.6 0-83.9-33.3-164.3-92.4-223.6C605.6 33.4 525.4.1 441.7.1H.2v312.2h174.9V165.1H430c39.5 0 77.5 15.7 105.5 43.8 28 28 43.7 66.1 43.7 105.8 0 39.6-15.7 77.7-43.7 105.8-28 28-66 43.8-105.5 43.8H244.6c-32.1 0-63.9 6.3-93.5 18.6-29.7 12.3-56.7 30.4-79.4 53.1C49 558.8 31 585.8 18.8 615.6 6.5 645.3.2 677.2.2 709.4z" fill="#6d4aff"/><path d="M262.4 632.5c-69.5 0-136.2 27.7-185.4 77S.2 825.7.2 895.4v63.7h174.9V720.2c0-23.3 9.2-45.5 25.5-62 16.4-16.4 38.7-25.7 61.8-25.7z" fill="url(#a)"/></svg>