<svg viewBox="0.29999999999999716 0 959.0000000000001 244.3" xmlns="http://www.w3.org/2000/svg" width="2500" height="637"><linearGradient id="a" gradientTransform="matrix(0 -92.027 74.028 0 33.217 228.668)" gradientUnits="userSpaceOnUse" x2="1"><stop offset="0" stop-color="#6d4bfd"/><stop offset="1" stop-color="#1c0554"/></linearGradient><path d="M.3 177.9v62.6h43.9v-59.9c0-5.8 2.3-11.4 6.4-15.5 4.2-4.2 9.7-6.5 15.6-6.5h45c21 0 41.2-8.3 56-23.2 14.9-14.9 23.2-35.1 23.2-56.1s-8.3-41.2-23.2-56.1C152.4 8.4 132.2 0 111.2 0H.3v78.3h43.9V41.4h64c10 0 19.5 3.9 26.5 11 7.1 7 11 16.6 11 26.5 0 10-3.9 19.5-10.9 26.5-7.1 7.1-16.6 11-26.6 11H61.7c-8.1 0-16.1 1.6-23.5 4.7-7.5 3.1-14.2 7.6-19.9 13.3-5.8 5.7-10.3 12.5-13.4 20-3 7.4-4.6 15.4-4.6 23.5z" fill="#6d4aff"/><path d="M66.2 158.6c-17.5 0-34.3 7-46.6 19.3A65.936 65.936 0 0 0 .3 224.5v16h43.9v-59.9c0-5.8 2.3-11.4 6.4-15.5 4.2-4.2 9.7-6.5 15.6-6.5z" fill="url(#a)"/><g fill="#6d4aff"><path d="M197.2 240.5v-95.4c0-38.9 22.8-69.9 68.2-69.9 7.3-.1 14.6.7 21.7 2.4v39.2c-5.2-.3-9.7-.3-11.7-.3-24.1 0-34.5 11-34.5 33.4v90.6zM386.6 244.3c-47.8 0-86.4-37.8-86.4-84.5 0-46.8 38.6-84.6 86.4-84.6 47.7 0 86.4 37.8 86.4 84.6 0 46.7-38.7 84.5-86.4 84.5zm43.3-84.7c0-25.7-19.4-46.5-43.3-46.5-24 0-43.4 20.8-43.4 46.5s19.4 46.5 43.4 46.5c23.9 0 43.3-20.8 43.3-46.5zM599.6 113.4h-47.1v60.3c0 21 7.5 30.7 29.2 30.7 2.1 0 7.2 0 13.8-.4v35.5c-9 2.4-16.9 3.8-25.5 3.8-36.5 0-61.2-22.1-61.2-63.7v-66.2h-29.3V78.6h7.3c2.9 0 5.7-.5 8.4-1.6 2.7-1.2 5.1-2.8 7.1-4.8 2.1-2.1 3.7-4.5 4.8-7.2 1.1-2.6 1.7-5.5 1.7-8.4V23.9h43.7v54.7h47.1zM699.1 244.3c-47.8 0-86.4-37.8-86.4-84.5 0-46.8 38.6-84.6 86.4-84.6s86.4 37.8 86.4 84.6c0 46.7-38.6 84.5-86.4 84.5zm43.4-84.7c0-25.7-19.4-46.5-43.4-46.5s-43.4 20.8-43.4 46.5 19.4 46.5 43.4 46.5 43.4-20.8 43.4-46.5zM808.2 240.5v-91.9c0-42.8 27.2-73.4 75.7-73.4 48.2 0 75.4 30.6 75.4 73.4v91.9h-43.4V152c0-23.8-10.6-38.6-32-38.6-21.3 0-32 14.8-32 38.6v88.5z"/></g></svg>