<svg clip-rule="evenodd" fill-rule="evenodd" height="2196" image-rendering="optimizeQuality" shape-rendering="geometricPrecision" text-rendering="geometricPrecision" viewBox="-0.01 0 8325.87 7314.17" width="2500" xmlns="http://www.w3.org/2000/svg"><path d="M8325.86 0v5352.01H0V0zM96.58 3941.48h1274.97V2724.29H96.58zm0-1313.78h1274.97V1410.53H96.58zm0-1313.76h1274.97V96.57H96.58zM1468.14 96.57v1217.37H2743.1V96.57zm1371.55 0v1217.37h1274.95V96.57zm1371.54 0v1217.37h1274.96V96.57zm1371.55 0v1217.37h1274.95V96.57zm1371.54 0v1217.37h1274.97V96.57zm1274.97 1313.95H6954.32v1217.17h1274.97zm0 1313.76H6954.32v1217.19h1274.97zm0 1313.78H6954.32v1217.36h1274.97zM6857.73 5255.42V4038.06H5582.78v1217.36zm-1371.54 0V4038.06H4211.23v1217.36zm-1371.55 0V4038.06H2839.69v1217.36zm-1371.54 0V4038.06H1468.14v1217.36zm-1371.55 0V4038.06H96.58v1217.36zm96.58-1313.94h1274.96V2724.29H1468.13zm1371.55 0h1274.95V2724.29H2839.68zm1371.54 0h1274.96V2724.29H4211.22zm1371.55 0h1274.95V2724.29H5582.77zM6857.72 2627.7V1410.53H5582.77V2627.7zm-1371.54 0V1410.53H4211.22V2627.7zm-1371.55 0V1410.53H2839.68V2627.7zm-1371.54 0V1410.53H1468.13V2627.7zm5579.08 4165.85c-19.92 82.03-49.7 155-89.26 218.86-39.69 64.04-89.2 118.88-148.51 164.48-59.32 45.8-125.57 80.14-198.63 103.02-72.97 22.84-152.69 34.26-239.09 34.26-114.46 0-218.97-18.96-313.46-56.9-94.57-37.98-178.97-94.97-253.19-170.99-74.12-75.9-129.71-162.11-166.78-258.54-37.07-96.41-55.59-202.83-55.59-319.18 0-115.14 18.4-220.64 55.13-316.54 36.77-96 91.94-182.32 165.41-259.03s156.44-134.24 248.85-172.57c92.41-38.32 194.13-57.48 305.12-57.48 49.16 0 96.17 3.77 141.01 11.29 44.82 7.5 87.39 18.75 127.65 33.67 40.56 15.1 77.58 33.54 110.94 55.37 24.47 15.99 47.06 33.86 67.67 53.6v-124.24h190.08v497.63h-178.64l-2.72-8.62c-16.82-53.2-38.65-99.61-65.43-139.12-26.67-39.36-58.4-72.11-95.06-98.15-36.66-26.21-78.54-45.85-125.55-58.94-47.24-13.15-99.91-19.71-157.94-19.71-84.38 0-160.23 13.69-227.46 41.07-66.95 27.28-125.57 68.23-175.71 122.86-50.21 54.55-87.89 118.31-113.01 191.17-25.25 73.26-37.86 155.85-37.86 247.73 0 89.89 13.1 171.07 39.3 243.63 26.15 72.38 65.41 136.46 117.83 192.33 52.36 55.63 112.36 97.35 180.05 125.14 67.75 27.81 143.45 41.72 227.11 41.72 55.87 0 107.08-6.73 153.55-20.15 46.34-13.38 88.26-33.48 125.69-60.27 37.44-26.78 70.81-60.51 100.09-101.11 29.47-40.85 54.88-88.74 76.23-143.61l3.06-7.89h212.78l-3.68 15.19zm-2772.89 478.62v-165.04h165.44V5909.98h-165.44v-177.35h1206.09v438.24h-204.91v-260.89h-609.61v461.12h530.64v192.18h-530.64v543.85h609.61v-299.08h204.91v476.43H5549.28zm-546.34-165.04h167.58v177.35h-561.27v-177.35h167.56V5909.98h-265.99v273.62H4314.4v-450.97h1150.95v450.97h-198.56v-273.62h-263.86v1197.15zm-2155.08-598.58c0 87.64 13.61 167.52 40.77 239.6 27.1 71.97 67.79 136.37 121.96 193.13 54.12 56.7 114.97 99.24 182.53 127.57 67.57 28.34 142.01 42.52 223.27 42.52 162.67 0 298.3-56.7 406.5-170.09 54.18-56.76 94.86-121.15 121.98-193.13 27.16-72.08 40.77-151.96 40.77-239.6 0-87.99-13.62-168.07-40.77-240.18-27.12-72.02-67.79-136.3-121.93-192.86-54.15-56.58-115.12-99.06-182.81-127.33-67.67-28.29-142.29-42.46-223.74-42.46-81.26 0-155.67 14.17-223.22 42.44-67.56 28.27-128.46 70.76-182.63 127.35-54.14 56.57-94.8 120.84-121.91 192.86-27.15 72.11-40.77 152.19-40.77 240.18zm-230.37 0c0-114.07 19.05-218.99 57.12-314.78 38.09-95.82 95.21-182.3 171.27-259.46 76.18-77.09 161.91-134.95 257.09-173.52 95.13-38.54 199.62-57.85 313.41-57.85 45.01 0 88.65 3.05 130.86 9.2 42.28 6.15 83 15.41 122.08 27.78 39.05 12.26 77 27.68 113.74 46.31 36.5 18.52 71.8 40.22 105.82 65.11 52.93 38.23 99.68 81.13 140.31 128.62 40.66 47.54 75.25 99.73 103.78 156.45 28.39 56.84 49.7 116.26 63.85 178.24 14.19 62.09 21.29 126.77 21.29 193.9 0 113.41-19.14 217.9-57.39 313.49-38.25 95.61-95.63 182.17-172.07 259.69-76.51 77.42-162.49 135.54-257.92 174.29-95.41 38.74-200.19 58.14-314.35 58.14-113.8 0-218.29-19.31-313.41-57.86-95.18-38.57-180.91-96.44-257.09-173.51-76.06-77.15-133.17-163.64-171.27-259.46-38.07-95.8-57.12-200.72-57.12-314.78zm-993.54-598.58v478.08h206.89c64.38 0 119.83-4.93 166.24-14.74 45.82-9.68 82.87-24.12 111.12-43.23 27.62-18.69 48.3-43.01 62.05-72.91 13.94-30.28 20.88-66.61 20.88-108.87 0-43.56-6.71-80.62-20.07-111.15-13.15-30.05-32.83-53.98-58.99-71.74-26.74-18.3-63.25-32.08-109.63-41.33-47.15-9.42-104.33-14.12-171.61-14.12h-206.89zm0 1197.15h167.57v177.35h-559.15v-177.35h165.45V5909.97h-165.45v-177.35H1898c88.42 0 165.52 7.91 231.25 23.64 66.41 15.9 121.16 39.85 164.22 71.79 43.45 32.37 76.05 73.64 97.8 123.83 21.56 49.75 32.34 108.04 32.34 174.85 0 43.13-5.32 82.91-15.92 119.27-10.64 36.48-26.66 69.38-48 98.65-21.25 29.13-49.05 56.21-83.3 81.22-26.91 19.66-57.83 38.04-92.7 55.19 26.14 9.5 49.15 20.69 68.96 33.51 27.59 17.86 49.11 38.93 64.39 63.09 15.16 24.15 26.52 56.89 34.02 98.21 7.34 40.52 11.03 89.28 11.03 146.25v285h167.57v177.35h-393.7V6851.1c0-60.09-4.98-109.64-14.98-148.58-9.67-37.7-23.98-65.32-42.89-82.77-19.18-17.86-46.82-31.32-82.92-40.38-37.11-9.32-82.95-13.98-137.51-13.98h-233.74v541.72zM391.57 5905.71v624.45h172.24c64.57 0 121.01-6.64 169.25-19.85 47.78-13.11 87.68-32.68 119.62-58.67 31.79-25.9 55.61-58.15 71.47-96.74 16.02-38.95 24.01-84.6 24.01-136.97 0-52.22-8.59-97.78-25.72-136.67-17-38.58-42.52-70.84-76.49-96.75-34.4-26.05-77.53-45.68-129.25-58.84-52.25-13.3-113.28-19.97-182.95-19.97H391.57zm0 1201.41h186.65v177.35H-.01v-177.35h165.45V5909.97H-.01v-177.35h584.66c96.28 0 181.33 10.33 255.01 30.93 74.23 20.76 136.84 51.95 187.61 93.47 51.15 41.75 89.56 93.05 115.12 153.82 25.5 60.58 38.24 130.39 38.24 209.23 0 76.26-13.18 144.31-39.47 204.11-26.35 59.96-65.87 111.5-118.49 154.65-52.56 42.96-115.44 75.19-188.74 96.64-72.89 21.34-155.97 32.05-249.29 32.05H391.56v399.61z" fill="#00874f" fill-rule="nonzero"/><path d="M96.58 3113.36c21.47 1.61 46.01 2.39 85.57-.96 49.65-4.2 122.97-14.89 176.83-53.86 53.85-38.95 88.22-106.18 120.68-164.99 32.46-58.82 63.01-109.23 94.72-151.24 31.7-42.02 64.55-75.62 92.42-91.66 27.88-16.05 50.79-14.52 78.3.38 27.49 14.89 59.59 43.16 87.46 75.23 27.88 32.09 51.56 67.99 91.67 110 40.1 42.01 96.61 90.14 152 123.36 55.38 33.23 109.62 51.56 158.51 50.02 48.89-1.52 92.42-22.9 134.05-51.54 41.63-28.65 81.35-64.56 105.8-95.87 24.44-31.33 33.6-58.06 38.71-73.63 5.1-15.57 6.14-19.99 53.74-239.26 47.6-219.28 141.77-653.39 190-872.48 48.24-219.09 50.55-223.13 52.43-225.58 1.87-2.46 3.32-3.31 5.05 1.16 1.74 4.47 3.76 14.31 33.8 199.21 30.03 184.9 88.09 544.89 120.78 871.38 32.68 326.49 40.01 619.49 43.69 766.58 3.66 147.09 3.66 148.26 22.35 161.1 18.7 12.86 56.09 37.4 76.55 49.67 20.45 12.27 23.95 12.27 33.3 10.52 9.34-1.76 24.54-5.25 57.26-24.54 32.71-19.28 82.96-54.35 193.4-125.64 110.42-71.28 281.04-178.78 404.33-258.83 123.28-80.05 199.24-132.64 257.67-179.38s99.33-87.64 129.13-118.02c29.79-30.39 48.5-50.25 60.59-63.39 12.08-13.13 17.57-19.53 22.79-24.96 5.21-5.43 10.18-9.91 19.38-13.14 9.18-3.22 22.59-5.21 35.51-3.22 12.91 1.99 25.33 7.95 37.75 17.13s24.84 21.61 54.39 58.37c29.55 36.75 76.24 97.84 121.18 150.24 44.95 52.4 88.17 96.11 116.73 121.44s42.46 32.27 62.08 39.23 44.94 13.9 78.23 16.39c33.28 2.49 74.5.49 120.19-.75s95.87-1.74 129.64-2.23c33.78-.5 51.16-1 68.79 1.98 17.64 2.98 35.51 9.43 62.33 24.58s62.58 39 99.84 58.37c37.25 19.38 75.99 34.27 104.54 41.73 28.56 7.45 46.94 7.45 69.54.99 22.6-6.45 49.43-19.37 73.02-31.79s43.95-24.35 90.89-57.13c46.93-32.77 120.44-86.41 187.5-144.77 67.05-58.36 127.64-121.44 164.4-156.7 36.75-35.27 49.67-42.72 59.61-47.18 9.92-4.48 16.88-5.97 26.07-4.97 9.19.99 20.6 4.46 31.04 10.17 10.43 5.72 19.87 13.67 36.02 34.77 16.14 21.11 38.98 55.39 74 103.56 35.01 48.17 82.2 110.26 119.46 153.22 37.25 42.97 64.56 66.82 91.88 82.46 27.31 15.64 54.64 23.1 85.43 26.08s65.06 1.49 96.85-4.47 61.09-16.39 90.88-33.28c29.81-16.88 60.11-40.22 87.67-63.32 27.56-23.09 52.4-45.94 71.53-76 19.12-30.04 32.52-67.29 41.47-99.33 8.93-32.04 13.41-58.85 57.12-255.53 43.71-196.69 126.64-563.26 168.62-748.27 41.96-185.01 42.96-188.49 44.2-190.22 1.24-1.74 2.73-1.74 7.45 18.63 4.71 20.37 12.66 61.09 44.45 240.65 31.79 179.54 87.41 497.92 129.38 752.47s70.29 445.28 84.7 542.62c14.4 97.35 14.89 101.33 18.87 101.82 3.97.5 11.43-2.48 32.05-19.37 20.6-16.88 54.38-47.68 103.3-90.15 48.93-42.46 112.99-96.6 155.45-133.86 42.48-37.25 63.33-57.61 77.49-68.79 14.16-11.17 21.61-13.16 45.19-14.16 23.6-.99 63.34-.99 127.9-1.24 64.57-.25 153.98-.74 204.38-3.23 50.42-2.48 61.84-6.95 75.5-14.89 13.66-7.95 29.56-19.37 74.25-56.86 44.7-37.51 118.22-101.08 175.83-154.97 57.61-53.9 99.33-98.09 124.66-124.17 25.34-26.09 34.28-34.03 42.23-38.24 7.95-4.22 14.9-4.73 38.99-4.23s65.31 1.99 87.16 2.74c21.86.74 24.34.74 48.93 20.12 24.59 19.37 71.28 58.11 141.81 111.51 66.07 50.01 153.04 112.88 241.35 176.56v-197.95c-89.36-79.77-175.2-156.37-222.46-198.02-52-45.83-57.29-49.37-61.99-51.42-4.7-2.06-8.8-2.64-59.64-3.22-50.82-.59-148.37-1.18-200.97-1.47-52.59-.3-60.23-.3-67.29 2.35-7.05 2.65-13.51 7.93-67.28 65.81s-154.84 168.35-208.9 225.65c-54.06 57.28-61.11 61.41-98.71 64.05-37.61 2.64-105.77 3.81-157.19 5.58-51.41 1.76-86.07 4.1-112.82 11.45-26.73 7.35-45.54 19.69-76.09 34.38-30.56 14.68-72.87 31.73-127.23 56.7-54.35 24.98-120.74 57.88-165.99 79.32-45.25 21.45-69.34 31.44-81.39 36.14-12.04 4.7-12.04 4.11-12.33 2.64-.3-1.46-.89-3.8-40.26-235.32s-117.52-692.22-173.63-1027.74c-56.12-335.53-90.21-545.89-109.01-659-18.8-113.12-22.32-128.98-27.02-136.33s-10.58-6.17-13.52-2.65c-2.93 3.52-2.93 9.4-68.15 308.2-65.23 298.8-195.69 890.53-261.19 1188.15-65.53 297.63-66.12 301.16-70.81 309.97-4.71 8.81-13.53 22.91-36.44 51.41-22.92 28.5-59.94 71.4-91.96 101.07-32.03 29.68-59.06 46.13-85.49 52.59-26.44 6.46-52.3 2.94-76.39-10.28-24.1-13.22-46.42-36.14-71.4-67.57-24.98-31.44-52.59-71.4-84.62-123.4s-68.45-116.05-96.37-158.06c-27.91-42.02-47.31-62-64.93-74.92-17.63-12.93-33.5-18.81-50.24-19.7-16.75-.88-34.38 3.23-53.77 14.12-19.4 10.87-40.55 28.49-102.83 81.38-62.29 52.88-165.71 141.03-240.62 200.97-74.92 59.94-121.35 91.66-159.25 110.17-37.91 18.52-67.29 23.8-96.66 23.5-29.38-.29-58.77-6.17-92.26-17.92s-71.09-29.38-115.45-47c-44.37-17.64-95.5-35.26-151.02-43.2-55.54-7.94-115.46-6.17-171.58-4.4-56.12 1.76-108.42 3.52-138.97 5.58-30.56 2.06-39.37 4.4-46.24 2.94-6.87-1.47-11.8-6.74-45.75-47.02-33.96-40.28-96.95-115.56-143.04-169.33-46.1-53.78-75.29-86.04-99.1-105.24-23.82-19.21-42.26-25.36-76.06-26.89-33.8-1.54-82.97 1.54-116.76 5.37-33.81 3.84-52.25 8.46-71.45 19.98-19.21 11.52-39.18 29.96-56.85 59.93-17.67 29.96-33.02 71.44-77.59 121.37-44.55 49.93-118.31 108.31-228.92 177.46-110.62 69.13-258.12 149.03-374.12 210.48-116 61.46-200.51 104.48-243.52 126.76-43.03 22.28-44.55 23.81-45.32 23.81s-.77-1.53-9.22-97.55c-8.45-96.04-25.35-286.55-46.08-495.49-20.75-208.96-45.33-436.34-81.43-721.36-36.11-285-83.75-627.63-114.47-842.72-30.73-215.1-44.55-302.67-53.77-346.46-9.22-43.8-13.84-43.8-16.13-43.03-2.31.77-2.31 2.3-66 336.28-63.69 333.97-191.06 1000.37-254.75 1333.57-63.68 333.2-63.68 333.2-88.12 330.15-24.45-3.05-73.34-9.15-137.12-22.14-63.79-12.99-142.47-32.85-203.57-51.95-61.12-19.1-104.65-37.42-143.23-64.54-38.57-27.11-72.19-63.02-96.62-89.37-24.45-26.35-39.72-43.17-69.51-51.18-29.8-8.03-74.09-7.26-111.9 8.41-37.82 15.66-69.14 46.21-110.39 95.48-41.24 49.27-92.42 117.26-140.54 168.05-48.13 50.79-93.2 84.41-136.74 102.36s-85.55 20.24-115.72 13.75c-20.35-4.38-35.31-12.75-48.52-22.42v254.83z" fill="#ed3237"/></svg>