<svg viewBox="-2.8000000000000025 -2.8000000000000025 965.5999999999999 965.6" xmlns="http://www.w3.org/2000/svg" width="2500" height="2500"><radialGradient id="a" cx="0" cy="0" gradientTransform="scale(801.365) rotate(-58.142 1.28 .285)" gradientUnits="userSpaceOnUse" r="1"><stop offset="0" stop-color="#ffd580"/><stop offset=".094" stop-color="#f6c592"/><stop offset=".205" stop-color="#ebb6a2"/><stop offset=".324" stop-color="#dfa5af"/><stop offset=".429" stop-color="#d397be"/><stop offset=".534" stop-color="#c486cb"/><stop offset=".649" stop-color="#b578d9"/><stop offset=".771" stop-color="#a166e5"/><stop offset=".891" stop-color="#8b57f2"/><stop offset="1" stop-color="#704cff"/></radialGradient><linearGradient id="b" gradientTransform="matrix(186.693 1139.597 -937.887 153.648 256.665 -190.618)" gradientUnits="userSpaceOnUse" x2="1"><stop offset="0" stop-color="#6d4aff"/><stop offset=".392" stop-color="#b39ffb" stop-opacity=".98"/><stop offset="1" stop-color="#ffe8db" stop-opacity=".8"/></linearGradient><path d="M288.7 121.3c66.9-67 100.4-100.5 139-113 34-11.1 70.6-11.1 104.6 0 38.6 12.5 72.1 46 139 113l167.4 167.4c67 66.9 100.5 100.4 113 139 11.1 34 11.1 70.6 0 104.6-12.5 38.6-46 72.1-113 139L671.3 838.7c-66.9 67-100.4 100.5-139 113-34 11.1-70.6 11.1-104.6 0-38.6-12.5-72.1-46-139-113l-31.5-35.3c-19-21.3-28.6-32-35.4-44.1-6-10.8-10.4-22.4-13.1-34.4-3-13.6-3-27.9-3-56.5V291.6c0-28.6 0-42.9 3-56.5 2.7-12 7.1-23.6 13.1-34.4 6.8-12.1 16.4-22.8 35.4-44.1z" fill="url(#a)"/><path d="M288.7 121.3c66.9-67 100.4-100.5 139-113 34-11.1 70.6-11.1 104.6 0 38.6 12.5 72.1 46 139 113l167.4 167.4c67 66.9 100.5 100.4 113 139 11.1 34 11.1 70.6 0 104.6-12.5 38.6-46 72.1-113 139L671.3 838.7c-66.9 67-100.4 100.5-139 113-34 11.1-70.6 11.1-104.6 0-38.6-12.5-72.1-46-139-113l-31.5-35.3c-19-21.3-28.6-32-35.4-44.1-6-10.8-10.4-22.4-13.1-34.4-3-13.6-3-27.9-3-56.5V291.6c0-28.6 0-42.9 3-56.5 2.7-12 7.1-23.6 13.1-34.4 6.8-12.1 16.4-22.8 35.4-44.1z" fill="url(#b)"/><path d="M276.7 133.2c33.5-33.5 50.2-50.2 69.6-56.5 16.9-5.5 35.2-5.5 52.2 0 19.3 6.3 36.1 23 69.5 56.5l251.1 251.1c33.5 33.5 50.3 50.3 56.6 69.6 5.5 16.9 5.5 35.2 0 52.2-6.3 19.3-23.1 36.1-56.6 69.6L468 826.8c-33.4 33.4-50.2 50.2-69.5 56.5-17 5.5-35.3 5.5-52.2 0-19.4-6.3-36.1-23.1-69.6-56.5L121.3 671.3c-67-67-100.5-100.4-113-139.1-11.1-33.9-11.1-70.5 0-104.5 12.5-38.6 46-72.1 113-139z" fill="none"/></svg>