<svg clip-rule="evenodd" fill-rule="evenodd" height="648" image-rendering="optimizeQuality" shape-rendering="geometricPrecision" text-rendering="geometricPrecision" viewBox="-.01 0 3941.59 1021.67" width="2500" xmlns="http://www.w3.org/2000/svg"><path d="m187.26 76.69h3379.79l15.35 2.47 33.77 9.9 39.91 22.26 18.42 17.32 21.49 34.63-6.14 2.47-18.42-7.42-36.84-9.9-52.19-4.95-233.3-2.47v9.9l-46.05 173.16-61.4 230.06-85.95 324.06 190.32 2.47 3.07-14.84 76.74-286.96 6.14-12.37h24.56l9.21 2.47 6.14 7.42v17.32l-3.07 12.37-82.88 324.06-6.14 14.84h-1562.5l-3.07-2.47 3.07-12.37 39.91-150.9 92.09-351.27 46.05-173.16h98.23v-9.9l27.63-101.42-386.79-2.47v7.42l-27.63 106.37h95.16v2.47l-82.88 314.17-92.09 351.27-9.21 22.26-1240.18.01-21.49-2.47-3.07-2.47 3.07-14.84 73.67-264.69 12.28-37.11 82.88-2.47 18.42-2.47 46.05-9.9 46.05-19.79 33.77-27.21 27.63-37.11 18.42-44.53 39.91-160.79 12.28-59.37v-29.69l-9.21-29.69-15.35-22.26-24.56-14.84-36.84-12.37-64.47-7.42-245.58-2.47-15.35 61.84-52.19 207.8-64.47 252.32-18.42 69.26-6.14-4.95-6.14-29.69-42.98-195.43-70.6-326.54v-27.21l9.21-24.74 15.35-19.79 27.63-17.32 39.91-9.9zm3382.86-76.69h-3389l-46.05 7.42-33.77 12.37-27.63 14.84-24.56 17.32-21.49 24.74-15.35 24.74-12.28 42.05v34.63l30.7 145.95 101.3 467.54 18.42 79.16 12.28 29.69 24.56 34.63 27.63 27.21 36.84 24.74 36.84 17.32 42.98 12.37 36.84 4.95h3392.07l42.98-7.42 36.84-12.37 30.7-17.32 30.7-24.74 24.56-34.63 12.28-32.16 3.07-19.79v-24.74l-21.49-106.37-110.51-509.6-18.42-81.63-15.35-34.63-21.49-29.69-33.77-29.69-30.7-22.26-52.19-22.26-42.98-9.9zm-101.3 430.44 46.05-173.16 3.07-7.42h21.49l15.35 4.95 3.07 2.47v19.79l-39.91 150.9-9.21 24.74-12.28 7.42h-33.77zm245.58-64.32 12.28-47 6.14 4.95 104.37 482.38 9.21 44.53v19.79l-9.21 24.74-15.35 19.79-27.63 19.79-39.91 9.9h-187.26l6.14-29.69 61.4-222.64 21.49-79.16v-44.53l-9.21-19.79-15.35-12.37-18.42-12.37 9.21-4.95 30.7-14.84 21.49-27.21 21.49-47zm-3180.26-113.79h33.77l12.28 12.37-6.14 32.16-42.98 170.69-12.28 37.11-15.35 12.37h-36.84l15.35-64.32 49.11-192.95 3.07-7.42z"/><path d="m970.04 462.6h-18.42l-3.07-9.9 36.84-136.06 18.42-66.79h27.63l12.28 4.95 3.07 17.32-46.05 170.69-9.21 12.37zm233.3-94.01 21.49-91.53v-47l-3.07-14.84-9.21-19.79-18.42-19.79-24.56-14.84-36.84-12.37-64.46-7.42h-230.23l-3.07 4.95-24.56 91.53-104.37 390.86-61.4 232.53-3.07 19.79h190.32l6.14-14.84 79.81-296.85h27.63l6.14 2.47 6.14 9.9-3.07 19.79-64.47 252.32-6.14 29.69h184.18l12.28-39.58 64.47-227.59 3.07-34.63-9.21-27.21-9.21-9.9-27.63-22.26h6.14l18.42-7.42 21.49-17.32 18.42-24.74 18.42-42.05 18.42-61.84zm55.25-76.69-79.81 299.33-49.12 185.53v39.58l6.14 14.84 12.28 14.84 24.56 17.32 36.84 12.37 46.05 7.42h110.51l39.91-4.95 42.98-9.9 49.11-19.79 27.63-19.79 18.42-22.26 15.35-29.69 55.26-205.32 82.88-311.69 3.07-34.63-6.14-22.26-12.28-19.79-27.63-19.79-36.84-12.37-46.05-7.42h-119.72l-21.49 2.47-36.84 7.42-36.84 12.37-33.77 17.32-27.63 24.74-21.49 34.63-15.35 49.48zm153.49 128.64 39.91-150.9 9.21-12.37 12.28-4.95h24.56l9.21 7.42-3.07 27.21-122.79 460.12-9.21 14.84-12.28 7.42h-21.49l-15.35-9.9 15.35-61.84 73.67-277.06zm690.7-113.79-128.93 356.22-70.6 195.43-6.14 22.26h187.25l3.07-2.47 33.77-108.84 12.28-44.53h58.32l-18.42 123.69-3.07 32.16h368.37l3.07-7.42 39.91-136.06 33.77-111.32 82.88-2.47 21.49-2.47 42.98-9.9 36.84-14.84 24.56-17.32 27.63-24.74 18.42-27.21 18.42-39.58 18.42-71.74 33.77-141.01v-54.42l-6.14-19.79-15.35-19.79-15.35-12.37-24.56-12.37-36.84-9.9-55.26-4.95h-245.58l-3.07 7.42-39.91 148.43-76.74 286.96-49.11 188.01v-12.37l36.84-405.7 18.42-212.74h-264l-3.07 4.95-58.32 160.79zm70.6 284.48 67.53-220.16 3.07-4.95h3.07l-3.07 39.58-30.7 195.43-3.07 9.9h-39.91l3.07-19.79zm528-326.54 3.07-12.37h33.77l12.28 9.9-3.07 24.74-42.98 173.16-12.28 42.05-12.28 12.37-6.14 2.47h-33.77l6.14-32.16zm242.5 91.53-132 494.75-6.13 29.69h313.11l24.56-89.05 3.07-22.27-113.58-2.47 55.25-207.8 6.14-29.68h110.51l3.07-4.95 12.28-44.53 15.35-64.32h-110.51l3.07-4.94 24.56-91.53 15.34-64.32h116.65l3.08-4.95 27.62-108.84h-313.11l-3.07 7.42z"/></svg>