<svg viewBox="8 192.7 823.7 150" xmlns="http://www.w3.org/2000/svg" width="2500" height="-131"><path d="M772.5 197.7v16.8l-19.1-16.8h-63v22.7s-8.7-27.1-47.3-27.1h-23.2s-16.8-.6-29.4 3.5l-2.3.9h-64.7l-11.4 22.6-21.9-22.6h-66.9l-9.4 17.1-16.8-16.8h-49.7l12.4 21.9-9.8-10.8s-12.3-15.3-42.4-15.3h-22.1c-19.7 0-46.2 5.8-50.6 26-5.7-12.7-14.9-21.5-32.9-21.5h-81v22.3s-18.6-21.7-27.2-21.7H8v120.5l23.1 23.1h39.6v-28h37.1s9.7.3 13.2-3.2v8.6l22.6 22.6H183v-30.1c0-7.1 9.7-7.1 9.7 0v5.9l24.4 24.4 35.1-.2v-17.2s17.2 17.2 43.6 17.2h28s27.2-1.6 38.8-13.2l13.1 13.2h35.1l12.9-24 24 24h60.6l11.3-24.2 24.5 24.2h60.6L588.6 322l22.9 14.5c2.5 1.2 6 4.8 29.6 4.8H661s32-.8 40.4-18l18.2 18.2H752V319l16.7 22.6h63v-126l-17.9-17.9zm-469.8 87.6v-11.9c0-3-1.7-19 13.5-19v15.3c.1 0 1.1 15.6-13.5 15.6zm70.8-12.9l-.3-28.5 7.8 13.2zm91.6 9.1l-14-22.1 15.1-25.8 13.5 24.2zm90.1-1.6l13.5-24.5.3 40.9zm79 5.4v-11.9c0-3-1.7-19 13.5-19v15.3s1.1 15.6-13.5 15.6z"/><path d="M88.1 204.8H15V316h32.2v-28l42.3-.2s24-.7 24-40.9-25.4-42.1-25.4-42.1zM73.7 262H47.2v-34.4h26.7s9.9 2 9.9 17.1c0 15-10.1 17.3-10.1 17.3zm154.9-27.1c0-12.1-5.7-30.1-28-30.4h-73.1V316h32.2v-28s22.7-.2 30-.2c9.8 0 9.4 2.7 9.4 11.5l.1 16.2h29v-19c0-11.8-6.6-18.6-15.3-23.4 16.9-10.9 15.7-17.4 15.7-38.2zm-42.4 26.9h-26.5v-34.6h26.7s9.9 2.4 9.9 17.5c.1 15-10.1 17.1-10.1 17.1zm373-57.8h-32.1l-19.2 36.7-19-36.5H429l-19 36.5-19-36.7h-32.1l30 53.1-34.2 58.1h32.9l22.7-44.6 22.7 44.6h52l22.7-44.6 22.7 44.6h32.9l-34.2-58.1zm-100 99.3l-27.1-45.9 26.7-48.5 27.1 48.5zm319.1-100v77.9l-31-77.5h-51.1v110.8h32.1v-75.3l30.2 75.3h48.9V203.3zm-150.7-3.9c-49.6 0-53.2 20.2-52.7 29.8v54.9c-.4 2-.9 31.3 52.7 31.3 55.9 0 52.9-28.6 52.9-33.3v-52.4c.6-8.1-.7-30.3-52.9-30.3zm23.9 76.9s-.6 12.5-23.8 12.5c-22.1 0-23.7-11.6-23.7-12.5v-40.7c0-.9 1.6-12.5 23.7-12.5 23.2 0 23.8 12.5 23.8 12.5zm-355.1-76.2c-49.6 0-53.2 19.5-52.7 29.1v54.9c-.4 2-.9 31.3 52.7 31.3 55.9 0 51.7-27.5 51.7-33.3v-52.4c0-8.2.4-29.6-51.7-29.6zm23.9 76.2s-.6 13.2-23.8 13.2c-22.1 0-23.7-12.3-23.7-13.2v-40.7c0-.9 1.6-11.6 23.7-11.6 23.2 0 23.8 11.7 23.8 11.6z" fill="#fff"/></svg>