<svg viewBox="0 0 240.01 89.42" xmlns="http://www.w3.org/2000/svg" width="2500" height="931"><path d="M21.86 75.47v-6.25L5.53 61.55V30.21L32.74 43v25.05l-5.44-2.56v6.29l5.44 2.56v6.24zM.09 65.25l16.33 7.66v6.3l21.76 10.21V39.28L.09 21.4z" fill="#e5002d"/><path d="M20.71 43.56l-5.44-2.63v18.8l5.44 2.63zM46.78 43L74 30.21v31.34l-16.34 7.67v6.25l-10.88 5.11v-6.24l5.44-2.56V65.5l-5.44 2.55zm-5.45-3.69v50.11L63.1 79.21V72.9l16.32-7.65V21.4z" fill="#e5002d"/><path d="M57.66 62.99l5.44-2.63V41.54l-5.44 2.64zM11.26 18.51L39.31 5.27l28.26 13.14-11.22 5.3-5.65-2.63-5.61 2.65 5.65 2.62-11.22 5.3zM0 18.53l39.56 18.39 39.28-18.53L39.27 0z" fill="#e5002d"/><path d="M50.66 15.81L45 13.18l-5.6 2.64 5.65 2.63zM33.82 23.75l5.61-2.65-5.65-2.63-5.61 2.65z" fill="#e5002d"/><g fill="#150301"><path d="M99.16 63.94A6.83 6.83 0 0 1 98 61.65v6.68h-.57v-6.55a23.92 23.92 0 0 1-1.78 3.5l-.29-.56a11.24 11.24 0 0 0 2-4.13h-1.9V60h2v-2.56H98V60h1.43v.57H98v.14a5.62 5.62 0 0 0 1.49 2.81zM99 67a16.53 16.53 0 0 0 3.51-4.11h-3v-.57h3.44v-2h-2.08a5.68 5.68 0 0 1-1 1.34l-.36-.29A6.27 6.27 0 0 0 101 57.6h.43c0 .4-.43 2.09-.43 2.09h1.61v-2.25h.58v2.29h2.86v.58h-2.85v2h3.15v.57h-2.88a17.64 17.64 0 0 0 3.08 4.12l-.42.44a11.82 11.82 0 0 1-2.93-4.35v5.25h-.58v-5.22a9.89 9.89 0 0 1-3.18 4.27zM115 66.7a43.92 43.92 0 0 1-6.35 1.07v-.54c1.25-.11 1.84-.2 2.86-.34V62.6h-2.58V62h5.44v.58h-2.29v4.21c.8-.15 1.7-.31 2.83-.6zm.07-9.26v2h4.41V60h-3.94a16.15 16.15 0 0 0 .91 5.5c.34.92 1.1 2.22 1.8 2.22.32 0 .44-.33.51-.59a8.37 8.37 0 0 0 .25-1.66l.57.12c-.19 2.27-.73 2.63-1.32 2.63s-1.22-.51-1.78-1.43c-1.18-2-1.33-4.59-1.46-6.79h-6.42v-.57h6c0-.94 0-1.43-.05-2zm3.63 1.81a10.36 10.36 0 0 0-1.86-1.39l.28-.38a12.84 12.84 0 0 1 1.91 1.36zM127.46 57.44a11.76 11.76 0 0 0 5.36 4.05l-.31.49a12.62 12.62 0 0 1-5.25-4 12.29 12.29 0 0 1-5.37 4l-.24-.54a10.55 10.55 0 0 0 5.3-4zm1.54 6.92a19.15 19.15 0 0 1 3.32 3.64l-.42.37c-.29-.41-.5-.7-.77-1-2.65.2-5 .38-9 .52l-.06-.49 1.55-.06a17.3 17.3 0 0 0 2-3.51h-3.52v-.57h10.31v.57h-6.22a20.91 20.91 0 0 1-2 3.49c1.87-.06 4.62-.27 6.53-.41a16.31 16.31 0 0 0-2.14-2.09zm-4.87-3.48h6.3v.57h-6.3zM137.56 68.33H137v-5.22a10.51 10.51 0 0 1-2 1.42l-.21-.48a8.83 8.83 0 0 0 4-4H135v-.57h2v-2h.57v2h1.72v.44a6.93 6.93 0 0 1-1.41 2.38 12.35 12.35 0 0 0 1.69 1.79l-.42.34a12.56 12.56 0 0 1-1.55-1.82zm5.16-10.89v3.44h2.86v.57h-2.86v5.73h3.15v.57H139v-.57h3.15v-5.73h-2.58v-.57h2.58v-3.44zM95.4 28.77a6.56 6.56 0 0 0 .51-2.4l.39.05a7.4 7.4 0 0 1-.58 2.6zm2.73-6.58a26.86 26.86 0 0 1-1.65 3.08c.54 0 .94 0 1.4-.09-.1-.35-.17-.49-.23-.66l.31-.11a6.41 6.41 0 0 1 .45 1.52l-.35.07a3 3 0 0 0-.1-.53c-.19 0-.42.05-.78.08v4.11h-.29v-4.08H95.5v-.33h.59c.19-.32.4-.65.59-1a11.15 11.15 0 0 0-1.21-1.1l.22-.24.24.16a17.48 17.48 0 0 0 .83-1.81l.31.19a13.1 13.1 0 0 1-.88 1.84c.42.37.57.52.68.63a18.45 18.45 0 0 0 1-2zm-.32 6a9.07 9.07 0 0 0-.21-1.71l.4-.08a7.92 7.92 0 0 1 .19 1.6zm5.39-3.66h-4.3v1.34a6.5 6.5 0 0 1-.65 3.65l-.36-.19a10.33 10.33 0 0 0 .72-3.51v-3h4.59zm.57-2.58h-5.16v-.29h5.16zm-.86 1.14h-3.72v1.15h3.72zm.57 6c0 .49-.17.55-.58.55h-.65l-.1-.42h.45c.31 0 .31-.14.31-.28v-1.57h-.86v2h-.29v-2h-.86v2h-.28v-2h-.86v2.29h-.29v-4.29h4zm-2.86-3.46h-.86v1.43h.86zm1.14 0h-.86v1.43h.86zm1.15 0h-.86v1.43h.86zM114.65 23.41a6.58 6.58 0 0 1-1.09.91l-.21-.32a4.83 4.83 0 0 0 2.07-2.47l.34.13a4.51 4.51 0 0 1-.42.84h2.15s.19-.51.34-1l.39.12c-.12.3-.21.51-.39.91h3.41v.29h-3.44v.86h3.2v.28h-3.2v.86h3.2v.29h-3.2v.86h3.44v.29h-3.44v.85h3.72v.29H118a30.35 30.35 0 0 0 3.58 1.7l-.16.37a10.07 10.07 0 0 1-3.86-1.9v1.84h-.29v-1.84a27.36 27.36 0 0 1-3.73 1.86l-.17-.36a7.63 7.63 0 0 0 3.63-1.7h-3.74v-.29h4v-.85h-2.58zm.29.24h2.58v-.86h-2.46l-.12.17zm2.58.28h-2.58v.86h2.58zm0 1.15h-2.58v.86h2.58zM132.26 28.89a6.11 6.11 0 0 0 5.74-5.73c-.12-.07-.18-.13-.24-.37h-6.45v-.29h6.23v-.16a.94.94 0 1 1 1.88 0 .93.93 0 0 1-1 .93c-.36 3.27-2.38 5.5-6 6zm5.57-6.55a.57.57 0 0 0 1.13 0 .57.57 0 1 0-1.13 0M155.89 28.8H149v-6.3h6.87zm-.57-6h-6v5.44h6zM168.58 24.43a16.6 16.6 0 0 1 2.74 1.77 7.81 7.81 0 0 0 1.51-3.13h-4.12a9.08 9.08 0 0 1-2.51 2.42l-.3-.31a7.64 7.64 0 0 0 3.1-3.65h.49c-.16.33-.31.63-.54 1.21h4.4c-.87 4.27-3.56 5.6-6.5 6.49l-.22-.36a8.42 8.42 0 0 0 4.41-2.41 13.6 13.6 0 0 0-2.7-1.74zm3.89-2a4.91 4.91 0 0 0-.61-1.13l.39-.15a4 4 0 0 1 .61 1.12zm1.19.05a5.36 5.36 0 0 0-.59-1.2l.39-.14a3.75 3.75 0 0 1 .59 1.19zM190.2 22.79a8.52 8.52 0 0 1-2.11 4.39 7.5 7.5 0 0 1-4.09 2.17l-.2-.41a7 7 0 0 0 4.06-2.11 7.52 7.52 0 0 0 1.83-3.76h-3.83a7.4 7.4 0 0 1-2.24 2.41l-.28-.34a7.73 7.73 0 0 0 3-3.65l.51.07a5.42 5.42 0 0 1-.68 1.23zM202.82 25.48a11.25 11.25 0 0 0-2.61-1.09l.19-.38a11.2 11.2 0 0 1 2.6 1.07zm-2.23 3.14A7.59 7.59 0 0 0 205 27a7.09 7.09 0 0 0 2.21-3.68l.42.23c-1.37 4.64-4.74 5.24-6.94 5.56zm2.94-5.31a9.58 9.58 0 0 0-2.6-1.09l.17-.37a10 10 0 0 1 2.65 1zM222.34 23.93v4.87h-4.87v-.28h4.29v-2.29h-4.29 4.29v-2.01h-4.29v-.29zM235.38 24a11.75 11.75 0 0 0-2.85-1.3l.25-.39a12.44 12.44 0 0 1 2.84 1.28zm-2.72 4.64a7.58 7.58 0 0 0 6.92-5.64l.4.15c-1.82 5.2-5.47 5.74-7.2 5.91zM180.24 68.32a8.63 8.63 0 0 1-6.77-2.62 17 17 0 0 1-9.11 2.62c-9.11 0-16.33-7-16.33-15.59 0-8 6.15-15.83 16.37-15.83 9.35 0 16.33 6.93 16.33 16a15 15 0 0 1-5 11.07 6 6 0 0 0 4.52 1.64zm-22.24-13c7.55 0 11.82 3.49 15.51 6.64a12.72 12.72 0 0 0 4.19-9.18 13.32 13.32 0 0 0-26.63.12 10.82 10.82 0 0 0 .53 3.45 19.58 19.58 0 0 1 6.4-1m6.44 10.25a11.54 11.54 0 0 0 6.69-2c-.57-.45-3.45-2.66-4.14-3.07a19.11 19.11 0 0 0-9.44-2.46 10.78 10.78 0 0 0-4.72.86 13.11 13.11 0 0 0 11.61 6.64M185.1 37.39h7.64c9.55 0 9.92 6.85 9.92 8.09a7.37 7.37 0 0 1-3.32 6.11 7.87 7.87 0 0 1 5 7.46 8.44 8.44 0 0 1-3.49 7c-2.59 1.52-4.59 1.72-8.16 1.68h-7.59zm3.16 13.18h3.8c2.37 0 3.72-.12 5.2-.86a4.94 4.94 0 0 0 1.18-7.57c-1.18-1.35-3-1.88-6.13-1.88h-4.05zm0 14.32h4.25a14.55 14.55 0 0 0 5.73-.78 5.6 5.6 0 0 0-.37-10.27c-1.43-.57-2.66-.69-5.89-.69h-3.72zM239.52 68.32a8.65 8.65 0 0 1-6.77-2.62 17 17 0 0 1-9.11 2.62c-9.1 0-16.33-7-16.33-15.59a15.85 15.85 0 0 1 16.37-15.83c9.36 0 16.33 6.93 16.33 16a15 15 0 0 1-5 11.07 6 6 0 0 0 4.51 1.64zm-22.27-13c7.55 0 11.82 3.49 15.51 6.64a12.72 12.72 0 0 0 4.24-9.18 13.32 13.32 0 0 0-26.63.12 11.11 11.11 0 0 0 .53 3.45 19.58 19.58 0 0 1 6.4-1m6.44 10.25a11.52 11.52 0 0 0 6.69-2c-.57-.45-3.44-2.66-4.14-3.07a19.11 19.11 0 0 0-9.44-2.46 10.78 10.78 0 0 0-4.72.86 13.11 13.11 0 0 0 11.61 6.64"/></g></svg>