<svg height="2500" viewBox="586.1 102.7 1435.2 1248.8" width="1852" xmlns="http://www.w3.org/2000/svg"><path d="m1133.7 1010.8h-535.7c-1.5 0-3 .1-4.4-.1-3.8-.5-4.8-2.9-2.4-6.1.7-1 1.8-1.7 2.7-2.5 13.4-11 26.8-22.1 40.2-33.1 11.3-9.3 22.5-18.8 34-27.8 7.3-5.7 15.4-10.5 23-15.8 13.6-9.5 27-19.4 40.7-28.7 8.1-5.5 16.6-10.4 25-15.5 21.2-12.9 42.3-26.2 63.8-38.6 17.2-9.9 34.9-18.6 52.4-27.9 16.6-8.8 33-17.9 49.8-26.1 13-6.4 26.5-11.6 39.7-17.3 15-6.4 29.9-13.2 45-19.1 23.2-9.1 46.6-17.7 69.9-26.4 12.8-4.7 25.7-9.2 38.7-13.5 8.8-2.9 17.9-5.2 26.8-7.9 4.6-1.5 9-3.9 13.6-5.1 22.3-6 44.8-11.1 66.8-17.7 26.4-7.9 53.3-12.7 80.3-17.7 21.7-4 43.1-9.4 64.9-12.5 26-3.7 52.2-5.9 78.3-8.3 22.5-2.1 45.1-3 67.5-5.3 68-6.9 136.3-5.6 204.5-5.3 30.9.1 61.9 1 92.8 2.8 24.7 1.4 49.2 4.6 73.8 7.2 26.1 2.8 52.3 5.3 78.3 8.8 17.7 2.4 35.2 6.2 52.7 9.5 4.2.8 4.9 3.5 1.6 6.8-6.9 7-13.9 13.8-20.9 20.6-11 10.8-22.2 21.5-33.1 32.3-20.3 20.2-40.4 40.6-60.7 60.8-16.7 16.6-33.5 32.9-50.2 49.5-13.9 13.8-27.8 27.5-41.6 41.5-16.7 16.9-33 34.1-49.7 50.9-11.9 12-24.4 23.4-36.4 35.3-15.2 14.9-31.2 29.2-44.9 45.4-5.6 6.6-10.6 6.9-17.2 6.9-176.4-.1-353-.1-529.6 0z" fill="#ed2229"/><path d="m830.7 368.5c36.1 1.1 72.2 2.1 108.2 3.3 9.5.3 19 1 28.5 2 5.3.6 7.8-1.7 9-6.3 4.2-16.4 8.4-32.7 12.6-49.1 6-24 12.1-48 17.9-72.1 4-16.4 7.2-33 11.2-49.4 3.9-16.2 8.4-32.3 12.4-48.4 3.5-14 6.5-28.1 10-42.2.3-1.3 2-2.4 3-3.6.8 1.1 2.1 2.1 2.4 3.3 4.8 17.5 9.3 35 14.1 52.4 4.9 18 10 35.9 15.1 53.8 5.8 20.5 11.5 41 17.3 61.6 7.2 25.7 14.5 51.4 21.7 77.1 1.1 3.8 1.9 7.6 2.7 11.5 1.1 5.1 4 7.3 9.4 6.9 38-2.2 76-4.3 114-6.4 1.5-.1 3-.2 4.4.2 1.3.3 2.4 1.3 3.6 2-.9 1-1.6 2.3-2.7 2.9-13.8 7.3-27.7 14.3-41.4 21.6-14.9 7.9-29.8 15.8-44.4 24.3-24.9 14.5-49.6 29.2-74.1 44.4-21.7 13.5-43.1 27.7-64.5 41.8-10.6 7-21.1 14.2-31.5 21.6-18.3 13-36.4 26.2-54.6 39.4-3.8 2.7-7.3 5.7-11.1 8.3-1.3.9-2.9 1.3-4.3 1.9-.4-1.7-1.6-3.7-1.2-5.2 2.5-8.4 5.3-16.8 8.2-25.1 1.7-4.9 3.5-9.7 5.3-14.5 1.5-4 .7-6.7-3.1-9.2-16.1-10.7-32-21.7-48-32.6-10.3-7-20.7-13.8-30.9-20.9-21.3-14.6-42.6-29.3-63.9-44.1-15.8-11-31.4-22.3-47.2-33.3-6-4.2-12.6-7.6-18.6-11.8-1.9-1.3-2.8-4.1-4.1-6.2 2.2-.7 4.3-2 6.5-2 36.1.7 72.2 1.5 108.3 2.3-.2 0-.2-.1-.2-.2m776.6 230c-1.4.5-3.1 1.7-4 1.3-2.2-1-4-2.7-5.9-4.3-14.8-11.8-32.6-16.3-50.4-21-35.4-9.3-71.4-8.7-107.4-7-13.9.6-27.7 3.1-41.5 5-16.5 2.2-33.1 4.2-49.5 7.1-18.1 3.1-36.3 6.2-54.1 10.8-25.5 6.6-50.8 14.3-76 22.1-22.4 6.9-44.8 14.3-66.9 22.1-18 6.3-35.7 13.4-53.3 20.5-16.3 6.5-32.6 13.2-48.7 20.3-17.7 7.8-35.2 15.9-52.7 24.1-14.1 6.6-28.2 13.3-42.2 20.3-15.5 7.8-30.8 15.9-46.1 24.1-12.5 6.7-24.8 13.5-37.1 20.5-13.6 7.7-27 15.6-40.4 23.6-11.5 6.9-23.1 13.7-34.4 21.1-14.3 9.3-28.2 19.1-42.4 28.5-7.1 4.7-14.8 8.7-21.8 13.7-13.9 9.9-27.3 20.3-41.1 30.4-4.9 3.6-10 6.9-15.2 10.2-.8.5-2.1.1-3.2.2.6-1 .9-2.2 1.7-2.9 11.1-9.9 22.1-19.9 33.6-29.4 18.6-15.4 37.4-30.6 56.4-45.6 18.2-14.4 36.4-28.7 55.1-42.4 20.7-15.1 41.8-29.7 62.8-44.2 11.6-8.1 23.5-15.9 35.4-23.5 19.7-12.6 39.5-25.1 59.6-37.1 15.9-9.5 32.3-18.4 48.6-27.3 14.2-7.6 28.5-14.9 42.9-22.1 15.7-7.8 31.5-15.7 47.4-23 16.4-7.5 33.6-13.5 49.6-21.7 19.7-10.2 40.9-16.2 61.7-23.3 22.2-7.6 45.1-13.3 67.1-21.5 23.2-8.6 47.4-11.9 71.3-17 13.4-2.9 27.2-4.4 40.8-5.6 17.5-1.4 35.3-3.4 52.7-2.3 22.2 1.4 44 5.8 65.3 13.3 16.1 5.7 29.7 15 42.7 25.2 16.6 13 28.1 30.5 37.5 49.3.8 1.8 1.1 4.1 2.1 7.5"/><path d="m1377.7 379.2c15.8 0 31.5 1.2 45.4 9.6 6.6 4 12.9 8.9 18.2 14.5 17.2 18.1 33.9 36.7 50.6 55.3 2.3 2.6 3.6 6 5.4 9-3.4-.9-6.9-1.4-10-2.9-37-17.4-76-13.8-114.8-10.4-8.1.7-16.1 1.9-24 3.7-9.2 2.1-18.2 5-27.3 7.7-14.3 4.2-28.8 7.9-42.9 12.8-13.8 4.8-27.4 10.5-40.8 16.4-20.6 9.1-41.2 18.2-61.4 28.2-24.5 12.1-48.6 25.1-72.9 37.8-17.7 9.2-35.7 18.1-53.2 27.9-16 8.9-31.4 18.8-47.2 27.9-9.8 5.6-20 10.4-29.7 16.1-14.9 8.8-29.5 18.2-44.2 27.2-5.4 3.3-11.1 6.3-16.5 9.6-15.4 9.5-30.8 18.9-46.1 28.7-11.7 7.5-23.1 15.5-34.8 23.1-1.3.8-2.9 1.1-4.3 1.6.7-1.4 1-3.2 2-4.1 10.2-9.1 20.5-18.1 30.9-27.1 15.6-13.4 31-27 46.8-40 14.2-11.6 28.8-22.7 43.3-33.8 19.6-15 39.1-30 59.1-44.5 20.7-15.1 41.6-30 62.9-44.3 23.1-15.5 46.8-30.2 70.4-45 11.1-7 22.6-13.4 34-20 15.6-9.1 31-18.4 46.7-27.2 9.4-5.2 19.4-9.4 29-14.3 13.5-6.8 26.8-13.9 40.3-20.8 26.7-13.6 54.7-22.8 85.1-22.7" fill="#ed2229"/><path d="m1277 1171.9c9-.2 16.5-3.1 22.6-9.1 6.5-6.3 9.7-14.3 9.7-24.2l-.3-43.6h15.7l.3 41.9c0 13.4-3.5 24.4-10.6 33.1-6.9 8.8-16.2 13.7-27.8 14.6-2.1-3-5.4-7.3-9.6-12.7zm101.1-20.6h-18.1c-4.1 0-7.6-1.5-10.4-4.5-3.2-3.2-5-7.9-5-13.7l-.4-81.5h15.6l.6 75.1c0 5.5 2.6 9.7 6.8 9.7h11v14.9zm68.1 0h-14.4c-4.4 0-8.2-2-11.3-5.9-1.6-2.2-2.9-4.3-3.7-6.6-2.5 7.6-10.1 12.3-18.2 12.5h-23.2v-15h17.4c2.8 0 5.3-.8 7.6-2.5 3.1-2 4.6-4.8 4.6-8.3l-.3-30.5h15.4c0 5.7.1 13.7.4 24 0 5.4 1.5 9.7 4.6 12.9 2.5 2.9 5.1 4.3 8.1 4.3h13.1v15.1zm-37.9-68.8h-14.3v-15.5h14.3zm21.3 0h-14.3v-15.5h14.3zm125 45.7c-.1 16.5-7.1 25-21 25.3-9 .2-15.6-3.9-19.6-12.2-3.2 7.9-9.6 12-18.8 12.2-7.4.2-13.1-2.6-17.2-8v5.9h-34.3l.1-15h18.8c-.1-20.8-.3-33-.4-36.8h15.6v23c.4 4.6 1.8 8.3 4.3 10.9 2.5 2.8 5.6 4.2 9.6 4.2 6 0 9-3.5 9-10.5 0-2.2 0-11.4-.1-27.6h15.4c.1 4.3.1 11.3.3 21 .1 5.7 1.5 10 4.3 12.9 2.5 2.8 5.6 4.2 9.6 4.2 6 0 9-3.4 9-10.3 0 .5 0-10.2-.1-32.2h15.6zm167.5 23.1h-12.4c-6 0-10.6-3.4-14-10.2-1.8 6.8-6.2 10.2-13.2 10.2h-45.6c-14.6 0-25.3-6.3-32.2-19-5.4-10-7.9-22.4-7.6-37.3h15.4c0 10.9 1.6 19.9 5 27.1 4.3 9.4 11 14.2 20.1 14.2h37.4c3.8 0 5.7-2.9 5.7-8.6 0-1.5-.3-27-1-76.5h15.6c.1 15.1.3 38.1.7 68.8.1 5.1 1.8 9.1 4.7 12.3 2.5 2.6 5.1 4 7.9 4h13.4v15zm-57.8-50.1h-34.3l4.4-10h8.2c-1.2-1.5-1.8-3.5-1.8-6 0-8 5.4-14.3 12.9-14.3 3.8 0 7.2 1.8 10.1 5.5l-4.7 7.4c-1.6-1.5-3.4-2.5-5-2.6-2.4-.2-3.7 1.2-3.8 4.5 0 1.4.4 2.5 1.5 3.5 1.3 1.4 3.4 2 5.9 2h6.5v10zm68.8 73.5h-14.3v-15.6h14.3zm29-43.5c0 12.3-6.9 20-19.7 20h-23.1v-15h17.4c5.7 0 10-3.7 10-10.6 0-6 0-11.1-.1-15.3-.1-6.3-.1-11.6-.3-15.4h15.6c0 24.5.2 36.5.2 36.3zm-7.8 43.5h-14.1v-15.6h14.1zm99.5-23.4h-21.2c-4.6 19.1-17.9 31.8-36.6 33.5-2.2-3.1-5.4-7.4-9.6-12.8 13.4 0 25-7.9 29.7-20.7h-10.3c-14.6 0-24.6-12.9-24.6-27.6 0-17.4 12.4-29 27.5-29 16 0 25.3 9.6 25.3 24.4v17.3h19.7v14.9zm-35.3-15c-.1-12.6-.1-19.6-.1-20.8 0-3.4-4.4-9.4-9.6-9.4-6.8 0-11.9 6.6-11.9 16.8 0 7.4 5 13.4 11.2 13.4zm66.4 0v15h-34v-15zm31.1 0v15h-34v-15zm31.2 0v15h-34v-15zm73.3 15h-76v-15.1h59.9c-1.2-8.5-4.4-15-9.6-19.6-4.9-4.3-10.9-6.5-17.9-6.5-7.5 0-14.7 2.5-21.9 7.2l-5.7-12.6 39.6-41.8 10.9 11.3-20.1 20.8c14.6 0 25.3 5.7 32.2 17.3 5.6 9.7 8.6 22.6 8.6 39z"/><path d="m662.7 1153.3h-9.1c-4.1 0-7.4-2.3-9.8-6.8-.1 8.9-3 16.4-8.7 22.7-5.5 6.3-12.2 9.4-20 9.4-7.9 0-14.6-3.2-20.2-9.6s-8.4-14.1-8.4-23.2c0-1-.1-4.7-.2-11-.1-7.2-.2-11.3-.2-12.6h11.6v12.7c.1 6.9.1 10.7.1 11.1 0 5.4 1.7 10.2 5.1 14 3.4 3.9 7.5 5.9 12.3 5.9 4.9 0 9-2 12.3-6 3.5-3.9 5.2-8.7 5.1-14.1l-.6-23.8h11.6l.1 8.6c.3 3.5 1.6 6.4 3.7 8.6 1.7 2 3.6 2.9 5.6 2.9h9.7zm-42.8-42.2h-10.5v-11.7h10.5zm109.8 42.2h-69.1v-11.3h47.5c-2.2-13.8-8.4-20.6-18.8-20.6-6.6 0-11.4 1.3-14.4 3.9l-4.4-9.5c4.3-4.1 10.7-6 19.2-6 8.8 0 15.7 3.2 20.9 9.8 4.4 5.4 7.2 13 8.5 22.4h10.6zm100.2 0h-10.6c-2.1 0-4.2-.8-6.3-2.4-2.3-1.7-3.9-4.1-4.9-6.9-2.1 7.2-6.8 10.9-14.4 11-6.6.1-11.5-2.9-14.5-9.1-2.3 5.9-6.9 9-13.7 9.1-5.4.1-9.6-2-12.7-6v4.4h-25.2l.1-11.2h13.9c-.1-15.6-.2-24.8-.2-27.7h11.4v17.3c.3 3.5 1.3 6.3 3 8.2 1.8 2.1 4.2 3.1 7.1 3.1 4.4 0 6.6-2.7 6.6-7.9 0-1.6 0-8.6-.1-20.7h11.4c0 3.2.1 8.5.2 15.7.1 4.3 1.1 7.5 3.1 9.7 1.8 2.1 4.1 3.1 7 3.1 4.4 0 6.6-2.5 6.6-7.8 0 .3 0-7.6-.1-24.2h11.4c0 4.1.1 10.5.2 19.5.1 3.6 1.3 6.5 3.5 8.7 1.8 2 3.8 2.9 5.8 2.9h11.4zm-57.6-51.7h-10.5v-11.7h10.5zm7.8-15.3h-10.4v-11.6h10.4zm7.9 15.3h-10.5v-11.7h10.5zm65.2 36.6c0 9.3-5.2 15.1-14.6 15.1h-11.5v-11.3h7.4c4.2 0 7.4-2.8 7.4-8 0-7.2-.1-16.4-.2-27.8-.1-12.9-.2-22.2-.2-27.9h11.4c.1 5.3.1 15.3.2 30 0 12.5.1 22.5.1 29.9zm25.9 15.1h-11.4l-.5-74.9h11.4zm103.7-9.1c-.8 5.6-4.5 9-10.1 9h-33.5c-10.7 0-18.6-4.7-23.7-14.2-4-7.5-5.8-16.8-5.6-28h11.4c0 8.2 1.2 14.9 3.7 20.4 3.1 7.1 8.1 10.7 14.8 10.7h27.5c2.8 0 4.2-2.2 4.2-6.5l-.3-24.6h11.5c0 5.9.1 17 .1 33.2zm-38-33.2h-10.4v-11.7h10.4zm15.7 0h-10.4v-11.7h10.4zm61.4 42.3h-13.3c-3 0-5.6-1.2-7.7-3.4-2.4-2.4-3.7-5.9-3.7-10.3l-.3-61.3h11.5l.4 56.4c0 4.2 1.9 7.3 5 7.3h8.1zm49-21.8c0 13.4-7.1 21.8-19.3 21.8h-31.8v-11.3h13.1c-1.5-3.4-2.3-6.8-2.3-10.5 0-13.4 7.2-21.8 19.7-21.8 6.3 0 11.4 2.3 15.4 6.9 3.4 4.2 5.2 9.2 5.2 14.9zm-11.3.1c0-3.6-1-6.6-2.8-8.8-1.6-2-3.7-2.9-6-2.9-2.5 0-4.4.9-6 2.9-1.6 2.2-2.4 5.1-2.4 8.8 0 3.6 1 6.6 2.8 8.8 1.6 2 3.7 2.9 6 2.9 4.9 0 8.4-4.3 8.4-11.7zm86.2 21.7h-61.9l5.4-11.2h30.1c-.6-6.4-2.7-11.5-6.3-15.3-2.9-3.1-5.8-4.7-8.8-4.7v-11c7.2 0 13.2 2.5 17.7 7.6 4.8 5.2 7.8 13.1 9 23.4h14.7v11.2zm74 0h-76.2v-11.3h54.6c-2.2-13.8-8.4-20.6-18.8-20.6-6.6 0-11.4 1.3-14.4 3.9l-11.5-9.5c4.3-4.1 17.8-6 26.2-6 8.8 0 15.7 3.2 20.9 9.8 4.4 5.4 7.2 13 8.5 22.4h10.6v11.3zm-33.4-51.7h-10.5v-11.7h10.5zm57.4 36.6c0 9.3-5.2 15.1-14.6 15.1h-11.5v-11.3h7.4c4.2 0 7.4-2.8 7.4-8 0-7.2-.1-16.4-.2-27.8-.1-12.9-.2-22.2-.2-27.9h11.4c.1 5.3.1 15.3.2 30 0 12.5.1 22.5.1 29.9z" fill="#ed2229"/><path d="m696.5 1325.1h-19.6l-8.1-9c-8.8 6-18.4 9-28.8 9-9.2 0-18-2.5-26.3-7.4-9.7-5.7-17-13.4-21.8-23.3-3.9-7.9-5.8-16.6-5.8-26.2 0-16.6 5.5-30.5 16.5-41.6 5.8-5.8 12.4-10.1 20-13 5.8-2.2 11.6-3.2 17.6-3.2 8.9 0 17.4 2.3 25.4 6.9 9.3 5.3 16.4 12.7 21.5 22.1 4.8 9 7.2 18.8 7.2 29.6 0 7.6-1.2 14.4-3.5 20.5-2.3 6-6.1 11.9-11.3 17.7zm-43-45.9 15.1 16c2.9-3.2 5-6.3 6.3-9.3 2.4-5.3 3.6-11.3 3.6-18 0-12.1-3.8-22.1-11.3-30s-16.6-11.8-27.2-11.8c-7.8 0-14.8 2.2-21.2 6.6-5.3 3.7-9.4 8.5-12.4 14.4-3.1 6.2-4.6 13.3-4.6 21.2 0 11.9 3.7 21.7 11.2 29.2 7.7 7.9 16.5 11.8 26.5 11.8 6.7 0 12.8-1.6 18.3-4.9l-24.3-25.3h20zm70.6-26v40.1c0 5 .6 8.7 1.9 11.1 2.1 4.2 5.8 6.2 10.9 6.2 4.4 0 7.6-1.4 9.7-4.2s3.1-7.2 3.1-13.1v-40.1h15.1v40.4c0 5.5-.5 9.9-1.6 13.3-1 3.4-2.8 6.5-5.3 9.4-5.3 5.9-12.3 8.8-21 8.8-8.8 0-15.8-2.9-21-8.8-2.6-2.9-4.4-6-5.4-9.4s-1.5-7.8-1.5-13.3v-40.4zm65.4-39.3c2.7 0 5.1 1 7 3s2.9 4.5 2.9 7.4-1 5.4-2.9 7.5-4.2 3.1-6.9 3.1-5.1-1-7-3.1-2.9-4.6-2.9-7.5c0-2.8 1-5.2 2.9-7.2 2-2.1 4.3-3.2 6.9-3.2zm7.6 39.3v69.8h-15.1v-69.8zm67.9 3v21.5c-3.5-4.5-6.6-7.6-9.3-9.3s-5.9-2.6-9.6-2.6c-6 0-10.9 2.3-14.6 7-3.4 4.2-5.1 9.3-5.1 15.3 0 6.4 1.8 11.7 5.5 16.1 3.4 4.2 8.1 6.3 14 6.3 3.7 0 6.9-.8 9.6-2.5s5.8-4.8 9.5-9.5v21.3c-6.1 3.5-12.2 5.2-18.4 5.2-10.9 0-19.8-3.9-26.5-11.8-6.1-7.2-9.1-15.5-9.1-24.9 0-6.4 1.5-12.5 4.6-18.3 3-5.7 7-10.1 12-13.4 5.6-3.6 12-5.4 19.1-5.4 6.5.1 12.6 1.7 18.3 5zm31.2-54.2v73.8l21.2-22.6h20.3l-28.4 29.3 30.4 40.5h-19.6l-21.6-29.4-2.4 2.5v26.9h-15.1v-121zm149.6 26.9-12.7 8c-1.9-3.3-3.5-5.6-4.9-7-2.6-2.6-6.1-3.9-10.5-3.9-4.6 0-8.2 1.4-11.1 4.1-2.7 2.6-4.1 5.9-4.1 9.6s1.6 6.7 4.9 9.2c1.5 1.2 3 2.1 4.4 2.8s5.5 2.5 12.3 5.5c8.6 3.8 14.8 8.3 18.5 13.4 3.8 5.4 5.8 11.8 5.8 19.1 0 10.6-3.5 19.4-10.5 26.3-6.1 6-13.7 9-22.8 9-11.7 0-20.7-4.9-27.1-14.7-3-4.6-5-10.6-6-17.9l15.8-3.7c.7 5.6 1.6 9.7 3 12.1 1.4 2.6 3.4 4.7 6.1 6.2s5.7 2.3 8.8 2.3c5.3 0 9.5-2 12.7-6 2.8-3.5 4.2-7.6 4.2-12.5 0-6.2-2.4-11-7.2-14.5-1.7-1.2-3.3-2.2-4.8-3-1.5-.7-5.7-2.7-12.8-5.9-14.2-6.4-21.2-15.7-21.2-28 0-9.9 3.9-17.6 11.8-23.2 5.8-4 12.2-6.1 19.3-6.1 6.2 0 11.6 1.5 16 4.5 4.6 3.2 8.6 7.9 12.1 14.3zm34.3 39.3v54.7h-15.1v-54.7h-6.4v-15.1h6.4v-25.5h15.1v25.5h11.7v15.1zm69-15h15.1v69.8h-15.1v-7.4c-3.4 3.5-6.7 6-9.6 7.4-3 1.4-6.4 2.1-10.4 2.1-9.6 0-17.4-3.9-23.4-11.7-5.2-6.7-7.8-15.2-7.8-25.4 0-11.3 3.3-20.4 9.8-27.3 6-6.2 13-9.3 21-9.3 4.1 0 7.8.8 10.8 2.3 3.1 1.5 6.3 4.1 9.6 7.7zm-17.6 12.6c-5.6 0-10 2.3-13.4 6.8-3.2 4.3-4.9 9.4-4.9 15.3 0 7.3 2 13.1 6.1 17.6 3.2 3.4 7.2 5.1 11.9 5.1 6.1 0 10.9-2.4 14.4-7.2 2.9-3.9 4.3-9 4.3-15.1 0-7.1-1.9-12.7-5.8-16.8-3.2-3.7-7.5-5.6-12.6-5.7zm49.9-12.6h15.1v6.2c2.8-3.1 5.2-5.3 7.4-6.4 2.1-1.2 4.7-1.7 7.8-1.7 3.9 0 8.1 1.4 12.4 4.2l-7 14.7c-2.9-2.2-5.6-3.3-8.3-3.3-4.2 0-7.4 1.6-9.4 4.9-2 3.2-3 8.3-3 15.1v36.1h-15.1v-69.8z"/><g fill="#ed2229"><path d="m1279.6 1324.9c-8.2 0-14.7-3.3-19.5-9.7-2.1-2.8-3.7-6.6-4.7-11l-.1-.5 9.3-2.6.1.5c.7 3.5 1.7 6.2 3 7.9 1.3 1.9 3.1 3.4 5.2 4.5s4.5 1.6 6.9 1.6c4.3 0 7.9-1.6 10.8-4.6 2.7-2.9 4.1-6.4 4.1-10.4 0-4.6-2-8.1-6.1-10.8-1.9-1.2-6.5-3.5-13.5-6.8-5.7-2.7-9.8-5.6-12.1-8.6-2.5-3.2-3.7-7-3.7-11.3 0-6.8 2.6-12.2 7.8-16.2 4.1-3.1 8.9-4.7 14.1-4.7 8.8 0 15.6 4.2 20.2 12.5l.2.4-7.6 5.1-.3-.4c-1.5-2.4-2.8-4.1-3.9-5.1-2.3-2.2-5.3-3.3-8.8-3.3-3.8 0-6.8 1.3-9.1 3.8-2.1 2.3-3.1 4.9-3.1 7.9 0 3.3 1.5 5.9 4.6 8.1 1.8 1.2 3.8 2.4 5.9 3.3l7.3 3.3c6.3 2.9 10.8 6 13.3 9.2 2.9 3.6 4.3 8 4.3 13 0 7.4-2.8 13.7-8.2 18.5-4.3 4.3-9.9 6.4-16.4 6.4z"/><path d="m1281.3 1242.9c8.6 0 15.2 4.1 19.8 12.3l-6.7 4.6c-1.5-2.4-2.8-4.2-4-5.2-2.4-2.3-5.5-3.4-9.2-3.4-3.9 0-7.1 1.3-9.4 3.9-2.2 2.4-3.3 5.1-3.3 8.3 0 3.4 1.6 6.3 4.8 8.5 1.9 1.3 3.9 2.4 6 3.3l7.3 3.3c6.3 2.8 10.6 5.9 13.2 9.1 2.8 3.5 4.2 7.8 4.2 12.7 0 7.3-2.7 13.4-8 18.2-4.5 4-10 6.1-16.4 6.1-8.1 0-14.4-3.2-19.1-9.5-2.1-2.8-3.6-6.4-4.6-10.8l8.3-2.4c.7 3.6 1.8 6.3 3.1 8.1 1.4 2 3.2 3.5 5.4 4.6s4.6 1.7 7.2 1.7c4.4 0 8.1-1.6 11.1-4.8 2.8-3 4.3-6.6 4.3-10.7 0-4.7-2.1-8.5-6.4-11.2-1.9-1.3-6.5-3.5-13.6-6.8-5.7-2.7-9.6-5.5-11.9-8.4-2.4-3.1-3.6-6.8-3.6-11 0-6.7 2.5-11.9 7.6-15.8 4.2-3.2 8.8-4.7 13.9-4.7m0-1c-5.4 0-10.2 1.6-14.4 4.8-5.3 4-8 9.6-8 16.6 0 4.4 1.3 8.4 3.8 11.6 2.4 3.1 6.5 6 12.3 8.7 7.1 3.2 11.6 5.5 13.5 6.7 4 2.6 5.9 5.9 5.9 10.4 0 3.9-1.3 7.2-4 10-2.8 3-6.2 4.5-10.4 4.5-2.4 0-4.6-.5-6.7-1.6s-3.8-2.5-5.1-4.3c-1.2-1.7-2.2-4.3-2.9-7.8l-.2-1-1 .3-8.3 2.4-.9.3.2.9c1 4.5 2.6 8.3 4.8 11.2 4.8 6.6 11.5 9.9 19.9 9.9 6.6 0 12.3-2.1 17-6.3 5.6-5 8.4-11.4 8.4-18.9 0-5.1-1.5-9.6-4.4-13.3-2.6-3.3-7.2-6.4-13.5-9.3l-7.3-3.3c-2.1-.9-4-2-5.9-3.3-2.9-2-4.3-4.5-4.3-7.7 0-2.9 1-5.4 3-7.6 2.2-2.4 5-3.6 8.7-3.6 3.4 0 6.2 1 8.5 3.1 1.1 1 2.4 2.7 3.8 5l.5.9.9-.6 6.7-4.6.8-.5-.4-.8c-5-8.5-12-12.8-21-12.8zm64.5 81.6v-30.3c0-3.8-.5-6.7-1.5-8.5-1.5-2.5-4.1-3.8-8-3.8-4.7 0-7.9 1.8-9.6 5.5-1.2 2.6-1.9 6.7-1.9 12v25h-9.2v-87.2h9.2v42c1.2-1.3 2.3-2.3 3.3-3 2.8-2 6.1-3 9.9-3 2.9 0 5.7.6 8.2 1.9 2.5 1.2 4.5 2.9 5.9 5 1.9 2.9 2.9 7.4 2.9 13.4v30.9h-9.2z"/><path d="m1324.3 1236.8v42.9c1.5-1.8 2.9-3.1 4.1-4 2.7-1.9 5.9-2.9 9.6-2.9 2.8 0 5.5.6 8 1.8s4.4 2.8 5.7 4.9c1.9 2.8 2.8 7.2 2.8 13.1v30.4h-8.2v-29.8c0-3.9-.5-6.8-1.6-8.7-1.5-2.7-4.3-4-8.4-4-4.9 0-8.2 1.9-10.1 5.8-1.3 2.7-1.9 6.8-1.9 12.2v24.5h-8.2v-86.2zm1-1h-10.2v88.2h10.2v-25.5c0-5.3.6-9.3 1.8-11.8 1.7-3.5 4.7-5.3 9.2-5.3 3.7 0 6.2 1.2 7.6 3.5 1 1.7 1.4 4.5 1.4 8.2v30.8h10.2v-31.4c0-6.1-1-10.7-3-13.7-1.4-2.2-3.5-3.9-6.1-5.2s-5.4-1.9-8.4-1.9c-3.9 0-7.3 1-10.2 3.1-.8.5-1.6 1.3-2.5 2.2v-40.3zm42.8 87.7v-50.1h9.2v50.1zm4.6-61.5c-1.7 0-3.3-.7-4.5-1.9-1.2-1.3-1.9-2.8-1.9-4.6s.6-3.3 1.9-4.6 2.8-1.9 4.6-1.9c1.7 0 3.2.6 4.4 1.9 1.3 1.3 1.9 2.8 1.9 4.6s-.6 3.4-1.9 4.6c-1.2 1.2-2.7 1.9-4.5 1.9z"/><path d="m1372.8 1249.4c1.6 0 2.9.6 4 1.7 1.2 1.2 1.7 2.6 1.7 4.3s-.6 3.1-1.7 4.3-2.5 1.8-4.2 1.8c-1.6 0-3-.6-4.1-1.8-1.2-1.2-1.7-2.6-1.7-4.3s.6-3.1 1.7-4.3c1.3-1.1 2.7-1.7 4.3-1.7m4 24.5v49.1h-8.2v-49.1zm-4-25.5c-1.9 0-3.6.7-4.9 2-1.4 1.4-2 3.1-2 5s.7 3.6 2 5 2.9 2.1 4.8 2.1 3.6-.7 4.9-2.1c1.3-1.3 2-3 2-5 0-1.9-.7-3.6-2-5-1.3-1.3-2.9-2-4.8-2zm5 24.5h-10.2v51.1h10.2v-50.1zm12.7 78.2v-77.7h9.2v6.1c4.5-4.8 9.8-7.3 16-7.3 7.2 0 13.2 2.9 17.8 8.6 3.8 4.7 5.8 10.8 5.8 18 0 8.4-2.6 15.1-7.8 19.9-4.4 4.1-9.6 6.3-15.6 6.3-6.3 0-11.7-2.5-16.2-7.5v33.7h-9.2zm23.9-70.3c-4.7 0-8.5 2-11.5 5.9-2.4 3.2-3.7 7.2-3.7 12 0 5.6 1.7 10 4.9 13.2 3 2.9 6.6 4.4 10.6 4.4 4.5 0 8.3-1.8 11.1-5.3 2.7-3.2 4-7.4 4-12.5 0-5.3-1.6-9.8-4.9-13.3-2.7-2.9-6.2-4.4-10.5-4.4z"/><path d="m1415.7 1272.7c7.1 0 12.9 2.8 17.4 8.4 3.8 4.7 5.7 10.5 5.7 17.7 0 8.3-2.5 14.8-7.6 19.6-4.3 4.1-9.4 6.1-15.2 6.1-6.6 0-12.1-2.8-16.7-8.3v34.5h-8.2v-76.7h8.2v6.9c4.4-5.5 9.9-8.2 16.4-8.2m-1 44.1c4.7 0 8.5-1.8 11.5-5.5 2.8-3.3 4.2-7.6 4.2-12.8 0-5.5-1.7-10-5-13.6-2.9-3-6.6-4.6-11-4.6-4.8 0-8.8 2-11.9 6.1-2.5 3.3-3.8 7.4-3.8 12.3 0 5.8 1.7 10.3 5.1 13.6 3.1 3 6.7 4.5 10.9 4.5m1-45.1c-5.9 0-11.2 2.2-15.5 6.5v-5.4h-10.2v78.7h10.2v-32.9c4.4 4.5 9.7 6.7 15.7 6.7 6.1 0 11.4-2.1 15.9-6.4 5.2-4.9 7.9-11.8 7.9-20.3 0-7.3-2-13.5-5.9-18.3-4.6-5.6-10.7-8.6-18.1-8.6zm-1 44.1c-3.9 0-7.3-1.4-10.3-4.2-3.2-3.1-4.8-7.4-4.8-12.8 0-4.7 1.2-8.6 3.6-11.7 2.9-3.9 6.6-5.7 11.1-5.7 4.2 0 7.6 1.4 10.3 4.2 3.1 3.4 4.7 7.7 4.7 12.9 0 4.9-1.3 9-3.9 12.2-2.8 3.4-6.3 5.1-10.7 5.1zm34.8 35.3v-77.7h9.2v6.1c4.5-4.8 9.8-7.3 16-7.3 7.2 0 13.2 2.9 17.8 8.6 3.8 4.7 5.8 10.8 5.8 18 0 8.4-2.6 15.1-7.8 19.9-4.4 4.1-9.6 6.3-15.6 6.3-6.3 0-11.7-2.5-16.2-7.5v33.7h-9.2zm23.8-70.3c-4.7 0-8.5 2-11.5 5.9-2.4 3.2-3.7 7.2-3.7 12 0 5.6 1.7 10 4.9 13.2 3 2.9 6.6 4.4 10.6 4.4 4.5 0 8.3-1.8 11.1-5.3 2.7-3.2 4-7.4 4-12.5 0-5.3-1.6-9.8-4.9-13.3-2.6-2.9-6.2-4.4-10.5-4.4z"/><path d="m1474.7 1272.7c7.1 0 12.9 2.8 17.4 8.4 3.8 4.7 5.7 10.5 5.7 17.7 0 8.3-2.5 14.8-7.6 19.6-4.3 4.1-9.4 6.1-15.2 6.1-6.6 0-12.1-2.8-16.7-8.3v34.5h-8.2v-76.7h8.2v6.9c4.4-5.5 9.9-8.2 16.4-8.2m-1 44.1c4.7 0 8.5-1.8 11.5-5.5 2.8-3.3 4.2-7.6 4.2-12.8 0-5.5-1.7-10-5-13.6-2.9-3-6.6-4.6-11-4.6-4.8 0-8.8 2-11.9 6.1-2.5 3.3-3.8 7.4-3.8 12.3 0 5.8 1.7 10.3 5.1 13.6 3 3 6.7 4.5 10.9 4.5m1-45.1c-5.9 0-11.2 2.2-15.5 6.5v-5.4h-10.2v78.7h10.2v-32.9c4.4 4.5 9.7 6.7 15.7 6.7 6.1 0 11.4-2.1 15.9-6.4 5.2-4.9 7.9-11.8 7.9-20.3 0-7.3-2-13.5-5.9-18.3-4.6-5.6-10.7-8.6-18.1-8.6zm-1 44.1c-3.9 0-7.3-1.4-10.3-4.2-3.2-3.1-4.8-7.4-4.8-12.8 0-4.7 1.2-8.6 3.6-11.7 2.9-3.9 6.6-5.7 11.1-5.7 4.2 0 7.6 1.4 10.3 4.2 3.1 3.4 4.7 7.7 4.7 12.9 0 4.9-1.3 9-3.9 12.2-2.8 3.4-6.3 5.1-10.7 5.1zm34.8 7.7v-50.1h9.2v50.1zm4.6-61.5c-1.7 0-3.3-.7-4.5-1.9-1.2-1.3-1.9-2.8-1.9-4.6s.6-3.3 1.9-4.6 2.8-1.9 4.6-1.9c1.7 0 3.2.6 4.4 1.9 1.3 1.3 1.9 2.8 1.9 4.6s-.6 3.4-1.9 4.6c-1.2 1.2-2.8 1.9-4.5 1.9z"/><path d="m1513.2 1249.4c1.6 0 2.9.6 4 1.7 1.2 1.2 1.7 2.6 1.7 4.3s-.6 3.1-1.7 4.3-2.5 1.8-4.2 1.8c-1.6 0-3-.6-4.1-1.8-1.2-1.2-1.7-2.6-1.7-4.3s.6-3.1 1.7-4.3c1.2-1.1 2.6-1.7 4.3-1.7m4 24.5v49.1h-8.2v-49.1zm-4-25.5c-1.9 0-3.6.7-4.9 2-1.4 1.4-2 3.1-2 5s.7 3.6 2 5 2.9 2.1 4.8 2.1 3.6-.7 4.9-2.1c1.3-1.3 2-3 2-5 0-1.9-.7-3.6-2-5-1.4-1.3-3-2-4.8-2zm5 24.5h-10.2v51.1h10.2v-50.1zm42.8 50.6v-29.5c0-4.5-.5-7.6-1.5-9.3-1.5-2.6-4.1-3.9-8-3.9-4.6 0-7.7 1.8-9.4 5.5-1.3 2.7-1.9 6.8-1.9 12.1v25h-9.2v-50.1h9.2v5.1c1.2-1.4 2.3-2.4 3.3-3.2 2.7-2 6.1-3 10-3 3 0 5.7.6 8.2 1.9 2.5 1.2 4.5 3 5.9 5.1 1.8 2.9 2.8 7.4 2.8 13.3v31z"/><path d="m1553.3 1272.7c2.9 0 5.6.6 8 1.8 2.5 1.2 4.3 2.9 5.7 4.9 1.8 2.8 2.7 7.2 2.7 13v30.5h-8.2v-29c0-4.6-.5-7.7-1.6-9.5-1.6-2.7-4.4-4.1-8.4-4.1-4.8 0-8.1 1.9-9.9 5.8-1.3 2.8-2 6.9-2 12.3v24.5h-8.2v-49.1h8.2v5.9c1.5-1.9 2.8-3.3 4-4.2 2.7-1.8 5.9-2.8 9.7-2.8m0-1c-4 0-7.4 1.1-10.3 3.1-.8.6-1.6 1.3-2.5 2.3v-4.2h-10.2v51.1h10.2v-25.5c0-5.2.6-9.2 1.9-11.9 1.6-3.5 4.6-5.3 9-5.3 3.7 0 6.1 1.2 7.6 3.6 1 1.6 1.4 4.6 1.4 9v30h10.2v-31.5c0-6.1-.9-10.6-2.9-13.6-1.4-2.2-3.4-4-6.1-5.3-2.4-1.1-5.3-1.8-8.3-1.8zm51.9 79.1c-7.2 0-13-2.2-17.4-6.7-4-4.2-6.2-9.7-6.4-16.4v-.5h9.1v.5c.3 3.5 1 6.2 2.2 8.1 1.2 2 2.9 3.6 5.2 4.7s4.8 1.7 7.4 1.7c5.3 0 9.3-2 11.8-5.8 2-3 3-7.4 3-13.1v-5.8c-4.6 4.9-10.1 7.3-16.4 7.3-6.8 0-12.6-2.7-17.2-8.1-4-4.8-6.1-10.9-6.1-18.2 0-8.1 2.5-14.6 7.4-19.6 4.5-4.5 10-6.8 16.3-6.8 6.2 0 11.6 2.5 16 7.3v-6.1h9.2v48.5c0 6.1-.5 10.7-1.6 13.7-1.9 5.3-5.3 9.3-10 12-3.7 2.3-7.9 3.3-12.5 3.3zm-.5-70c-4.8 0-8.7 2.1-11.7 6.4-2.1 3.1-3.2 7-3.2 11.7 0 5.2 1.4 9.3 4.2 12.4 3 3.3 6.7 5 11 5 4.8 0 8.7-2 11.8-5.9 2.4-3 3.6-7 3.6-11.9 0-5.8-1.7-10.3-5.1-13.4-2.9-2.9-6.5-4.3-10.6-4.3z"/><path d="m1604.1 1272.7c6.5 0 12 2.7 16.5 8.1v-6.9h8.2v48c0 6.1-.5 10.6-1.6 13.6-1.9 5.2-5.1 9.1-9.7 11.8-3.7 2.1-7.8 3.1-12.3 3.1-7.1 0-12.8-2.2-17-6.5-3.9-4.1-6-9.4-6.3-16h8.2c.3 3.6 1 6.4 2.2 8.3 1.2 2.1 3 3.7 5.4 4.9 2.3 1.2 4.9 1.8 7.6 1.8 5.5 0 9.6-2 12.3-6.1 2.1-3.1 3.1-7.5 3.1-13.3v-7.2c-4.7 5.4-10.3 8.1-16.9 8.1-6.7 0-12.3-2.6-16.8-7.9-4-4.7-6-10.6-6-17.8 0-8 2.4-14.4 7.3-19.2 4.3-4.6 9.6-6.8 15.8-6.8m1 44c4.9 0 9-2 12.2-6.1 2.5-3.1 3.7-7.2 3.7-12.2 0-6-1.7-10.6-5.2-13.8-3.1-2.9-6.8-4.3-11-4.3-5 0-9 2.2-12.1 6.6-2.2 3.2-3.3 7.1-3.3 11.9 0 5.3 1.4 9.5 4.3 12.7 3.1 3.5 6.9 5.2 11.4 5.2m-1-45c-6.4 0-12 2.4-16.6 7-5 5-7.5 11.7-7.5 19.9 0 7.4 2.1 13.6 6.2 18.5 4.7 5.5 10.6 8.3 17.6 8.3 6.1 0 11.4-2.2 15.9-6.6v4.6c0 5.6-1 9.9-2.9 12.8-2.5 3.8-6.2 5.6-11.4 5.6-2.6 0-5-.6-7.2-1.7s-3.8-2.6-5-4.5c-1.2-1.8-1.9-4.4-2.1-7.9l-.1-.9h-10.1v1c.3 6.8 2.5 12.5 6.6 16.7 4.5 4.5 10.4 6.8 17.8 6.8 4.7 0 9-1.1 12.8-3.2 4.8-2.8 8.2-6.9 10.2-12.3 1.1-3.1 1.6-7.7 1.6-13.9v-49h-10.2v5.3c-4.4-4.3-9.6-6.5-15.6-6.5zm1 44c-4.2 0-7.7-1.6-10.7-4.9-2.7-3-4.1-7-4.1-12 0-4.6 1.1-8.4 3.1-11.4 2.9-4.1 6.6-6.2 11.3-6.2 3.9 0 7.4 1.4 10.3 4.1 3.3 3 4.9 7.4 4.9 13.1 0 4.8-1.2 8.7-3.5 11.6-2.9 3.8-6.7 5.7-11.3 5.7zm86.9 9.2c-8.2 0-14.7-3.3-19.5-9.7-2.1-2.8-3.7-6.6-4.7-11l-.1-.5 9.3-2.6.1.5c.7 3.5 1.7 6.2 3 7.9 1.3 1.9 3.1 3.4 5.2 4.5s4.5 1.6 6.9 1.6c4.3 0 7.9-1.6 10.8-4.6 2.7-2.9 4.1-6.4 4.1-10.4 0-4.6-2-8.1-6.1-10.8-1.9-1.2-6.5-3.5-13.5-6.8-5.7-2.7-9.8-5.6-12.1-8.6-2.5-3.2-3.7-7-3.7-11.3 0-6.8 2.6-12.2 7.8-16.2 4.1-3.1 8.9-4.7 14.1-4.7 8.8 0 15.6 4.2 20.2 12.5l.2.4-7.6 5.1-.3-.4c-1.5-2.4-2.8-4.1-3.9-5.1-2.3-2.2-5.3-3.3-8.8-3.3-3.8 0-6.8 1.3-9.1 3.8-2.1 2.3-3.1 4.9-3.1 7.9 0 3.3 1.5 5.9 4.6 8.1 1.8 1.2 3.8 2.4 5.9 3.3l7.3 3.3c6.3 2.9 10.8 6 13.3 9.2 2.9 3.6 4.3 8 4.3 13 0 7.4-2.8 13.7-8.2 18.5-4.4 4.3-10 6.4-16.4 6.4z"/><path d="m1693.7 1242.9c8.6 0 15.2 4.1 19.8 12.3l-6.7 4.6c-1.5-2.4-2.8-4.2-4-5.2-2.4-2.3-5.5-3.4-9.2-3.4-3.9 0-7.1 1.3-9.4 3.9-2.2 2.4-3.3 5.1-3.3 8.3 0 3.4 1.6 6.3 4.8 8.5 1.9 1.3 3.9 2.4 6 3.3l7.3 3.3c6.3 2.8 10.6 5.9 13.2 9.1 2.8 3.5 4.2 7.8 4.2 12.7 0 7.3-2.7 13.4-8 18.2-4.5 4-10 6.1-16.4 6.1-8.1 0-14.4-3.2-19.1-9.5-2.1-2.8-3.6-6.4-4.6-10.8l8.3-2.4c.7 3.6 1.8 6.3 3.1 8.1 1.4 2 3.2 3.5 5.4 4.6s4.6 1.7 7.2 1.7c4.4 0 8.1-1.6 11.1-4.8 2.8-3 4.3-6.6 4.3-10.7 0-4.7-2.1-8.5-6.4-11.2-2-1.3-6.5-3.5-13.6-6.8-5.7-2.7-9.6-5.5-11.9-8.4-2.4-3.1-3.6-6.8-3.6-11 0-6.7 2.5-11.9 7.6-15.8 4.1-3.2 8.7-4.7 13.9-4.7m0-1c-5.4 0-10.2 1.6-14.4 4.8-5.3 4-8 9.6-8 16.6 0 4.4 1.3 8.4 3.8 11.6 2.4 3.1 6.5 6 12.3 8.7 7.1 3.2 11.6 5.5 13.5 6.7 4 2.6 5.9 5.9 5.9 10.4 0 3.9-1.3 7.2-4 10-2.8 3-6.2 4.5-10.4 4.5-2.4 0-4.6-.5-6.7-1.6s-3.8-2.5-5.1-4.3c-1.2-1.7-2.2-4.3-2.9-7.8l-.2-1.1-1 .3-8.3 2.4-.9.3.2.9c1 4.5 2.6 8.3 4.8 11.2 4.8 6.6 11.5 9.9 19.9 9.9 6.6 0 12.3-2.1 17-6.3 5.6-5 8.4-11.4 8.4-18.9 0-5.1-1.5-9.6-4.4-13.3-2.6-3.3-7.2-6.4-13.5-9.3l-7.3-3.3c-2.1-.9-4-2-5.9-3.3-2.9-2-4.3-4.5-4.3-7.7 0-2.9 1-5.4 3-7.6 2.2-2.4 5-3.6 8.7-3.6 3.4 0 6.2 1 8.5 3.1 1.1 1 2.4 2.7 3.8 5l.5.9.9-.6 6.7-4.6.8-.5-.4-.8c-5.1-8.4-12-12.7-21-12.7zm55.2 83c-7.8 0-14-2.9-18.6-8.7-3.6-4.6-5.5-10.5-5.5-17.4 0-8.1 2.3-14.6 6.9-19.5 4.4-4.6 10-7 16.7-7 6.1 0 11.3 2 15.6 5.9 5.1 4.7 7.7 11.6 7.7 20.4v2.1h-37.3c.2 3 .8 5.6 1.9 7.8 1.3 2.5 3.1 4.4 5.3 5.8s4.7 2.1 7.4 2.1c3.9 0 7.2-1.3 9.8-3.9 1.3-1.2 2.8-3.3 4.5-6.1l.3-.4 7.8 4.5-.2.4c-1.9 3.5-4 6.2-6 8-4.4 3.9-9.9 6-16.3 6zm13.2-32.3c-.5-2.4-1.4-4.4-2.5-6.1-2.7-3.7-6.3-5.6-10.8-5.6-4.8 0-8.5 2.1-11.3 6.3-1 1.6-1.8 3.4-2.2 5.4z"/><path d="m1748.6 1272.8c6 0 11.1 1.9 15.2 5.8 5 4.6 7.5 11.3 7.5 20v1.6h-37.3c.1 3.3.8 6.2 2 8.5 1.3 2.6 3.2 4.6 5.5 6s4.9 2.1 7.6 2.1c4 0 7.4-1.4 10.2-4.1 1.3-1.3 2.8-3.3 4.6-6.2l6.9 4c-1.9 3.4-3.9 6.1-5.9 7.9-4.4 4-9.8 6.1-16 6.1-7.6 0-13.7-2.8-18.2-8.5-3.6-4.5-5.3-10.3-5.3-17.1 0-8 2.3-14.3 6.8-19.2 4.3-4.6 9.7-6.9 16.4-6.9m-14.1 20.3h28.1c-.5-2.7-1.4-5-2.8-6.9-2.8-3.9-6.6-5.8-11.2-5.8-4.9 0-8.8 2.2-11.8 6.5-1.1 1.8-1.8 3.9-2.3 6.2m14.1-21.3c-6.9 0-12.6 2.4-17.1 7.1-4.7 5-7.1 11.7-7.1 19.8 0 7.1 1.9 13.1 5.6 17.8 4.7 5.9 11.1 8.9 19 8.9 6.5 0 12.1-2.1 16.7-6.3 2.1-1.9 4.2-4.7 6.1-8.2l.5-.9-.9-.5-6.9-4-.9-.5-.5.8c-1.7 2.8-3.2 4.8-4.4 6-2.6 2.6-5.7 3.8-9.5 3.8-2.6 0-5-.7-7.1-2-2.2-1.3-3.9-3.2-5.1-5.6-1-1.9-1.6-4.3-1.8-7h37.2v-2.6c0-9-2.6-16-7.9-20.8-4.4-3.8-9.7-5.8-15.9-5.8zm-12.8 20.3c.4-1.7 1.1-3.3 2-4.6 2.7-4.1 6.3-6.1 10.9-6.1 4.4 0 7.8 1.8 10.4 5.4 1 1.4 1.8 3.2 2.3 5.3zm46.1 31.4v-50.1h9.2v4.4c1.2-1.4 2.2-2.5 2.9-3.1 2-1.7 4.4-2.5 7.4-2.5 2.4 0 5 .7 7.6 2.2l.4.2-4.4 8.5-.5-.3c-1.6-1.1-3.1-1.6-4.5-1.6s-2.8.4-4.2 1.2c-1.3.8-2.3 1.8-3 3-1.2 2.3-1.8 6.2-1.8 11.8v26.3z"/><path d="m1801.4 1272.7c2.4 0 4.8.7 7.3 2.1l-3.9 7.6c-1.7-1.2-3.3-1.7-4.8-1.7s-3 .4-4.4 1.2-2.5 1.9-3.2 3.2c-1.2 2.3-1.9 6.3-1.9 12v25.8h-8.2v-49.1h8.2v5.3c1.6-2 2.8-3.3 3.8-4.2 1.9-1.4 4.3-2.2 7.1-2.2m0-1c-3 0-5.6.9-7.7 2.6-.6.5-1.3 1.2-2.1 2.2v-3.6h-10.2v51.1h10.2v-26.8c0-5.5.6-9.3 1.7-11.5.6-1.1 1.6-2.1 2.8-2.8 1.3-.7 2.5-1.1 3.9-1.1 1.3 0 2.7.5 4.2 1.6l.9.6.5-1 3.9-7.6.4-.9-.8-.5c-2.6-1.6-5.2-2.3-7.7-2.3zm9.4 1.7h10.3l14 32.2 13.9-32.2h10.2l-24.2 54z"/><path d="m1858.5 1273.9-23.5 52.3-23.5-52.3h9.2l14.3 33 14.2-33zm1.5-1h-11.4l-.3.6-13.3 30.9-13.4-30.9-.3-.6h-11.4l.6 1.4 23.5 52.3.9 2 .9-2 23.5-52.3zm5.2 50.6v-50.1h9.2v50.1zm4.7-61.5c-1.7 0-3.3-.7-4.5-1.9-1.2-1.3-1.9-2.8-1.9-4.6s.6-3.3 1.9-4.6 2.8-1.9 4.6-1.9c1.7 0 3.2.6 4.4 1.9 1.3 1.3 1.9 2.8 1.9 4.6s-.6 3.4-1.9 4.6c-1.2 1.2-2.8 1.9-4.5 1.9z"/><path d="m1870 1249.4c1.6 0 2.9.6 4 1.7 1.2 1.2 1.7 2.6 1.7 4.3s-.6 3.1-1.7 4.3-2.5 1.8-4.2 1.8c-1.6 0-3-.6-4.1-1.8-1.2-1.2-1.7-2.6-1.7-4.3s.6-3.1 1.7-4.3c1.2-1.1 2.6-1.7 4.3-1.7m4 24.5v49.1h-8.2v-49.1zm-4-25.5c-1.9 0-3.6.7-4.9 2-1.4 1.4-2 3.1-2 5s.7 3.6 2 5 2.9 2.1 4.8 2.1 3.6-.7 4.9-2.1c1.3-1.3 2-3 2-5 0-1.9-.7-3.6-2-5-1.4-1.3-3-2-4.8-2zm5 24.5h-10.2v51.1h10.2v-50.1zm35.5 52c-8.3 0-15-3.1-20-9.4-3.9-4.9-5.9-10.5-5.9-16.8 0-7.5 2.6-14 7.9-19.3 4.8-4.8 10.9-7.2 18.1-7.2 5.3 0 10.4 1.6 15.1 4.8l.2.1v12.7l-.9-1c-2.5-2.8-4.6-4.8-6.4-5.8-2.6-1.5-5.3-2.2-8.2-2.2-5 0-9 1.9-12.2 5.6-2.8 3.4-4.3 7.4-4.3 12.1 0 4.9 1.5 9.1 4.6 12.5 3 3.4 7 5.1 11.7 5.1 3.6 0 7-1.1 10.1-3.3 1.3-1 3-2.7 5-5.1l.9-1.1v12.8l-.2.1c-5.2 3.7-10.4 5.4-15.5 5.4z"/><path d="m1910.6 1272.8c5.2 0 10.2 1.6 14.8 4.7v11.1c-2.5-2.9-4.7-4.8-6.6-5.9-2.7-1.5-5.5-2.2-8.4-2.2-5.1 0-9.3 1.9-12.5 5.8-2.9 3.5-4.4 7.6-4.4 12.4 0 5 1.6 9.3 4.7 12.9 3.1 3.5 7.2 5.3 12 5.3 3.7 0 7.2-1.1 10.3-3.4 1.3-1 3.1-2.7 5.1-5.2v11.1c-5.1 3.4-10.2 5.1-15.2 5.1-8.1 0-14.7-3.1-19.6-9.2-3.9-4.8-5.8-10.3-5.8-16.4 0-7.4 2.6-13.7 7.7-18.9 4.8-4.8 10.7-7.2 17.9-7.2m0-1c-7.4 0-13.6 2.5-18.5 7.4-5.3 5.4-8 12-8 19.6 0 6.4 2 12.1 6 17.1 5.1 6.3 11.9 9.5 20.4 9.5 5.2 0 10.6-1.8 15.8-5.3l.4-.3v-14.3l-1.8 2.1c-2 2.4-3.7 4.1-4.9 5-2.9 2.1-6.2 3.2-9.8 3.2-4.6 0-8.3-1.6-11.3-4.9s-4.5-7.4-4.5-12.2c0-4.5 1.4-8.5 4.2-11.8 3.1-3.7 6.9-5.5 11.8-5.5 2.8 0 5.4.7 7.9 2.1 1.8 1 3.9 2.9 6.3 5.7l1.8 2v-14.3l-.4-.3c-4.8-3.2-10-4.8-15.4-4.8zm46.9 53.1c-7.8 0-14-2.9-18.6-8.7-3.6-4.6-5.5-10.5-5.5-17.4 0-8.1 2.3-14.6 6.9-19.5 4.4-4.6 10-7 16.7-7 6.1 0 11.3 2 15.6 5.9 5.1 4.7 7.7 11.6 7.7 20.4v2.1h-37.3c.2 3 .8 5.6 1.9 7.8 1.3 2.5 3.1 4.4 5.3 5.8s4.7 2.1 7.4 2.1c3.9 0 7.2-1.3 9.8-3.9 1.3-1.2 2.8-3.3 4.5-6.1l.3-.4 7.8 4.5-.2.4c-1.9 3.5-3.9 6.2-6 8-4.5 3.9-10 6-16.3 6zm13.1-32.3c-.5-2.4-1.4-4.4-2.5-6.1-2.7-3.7-6.3-5.6-10.8-5.6-4.8 0-8.5 2.1-11.3 6.3-1 1.6-1.8 3.4-2.2 5.4z"/><path d="m1957.1 1272.8c6 0 11.1 1.9 15.2 5.8 5 4.6 7.5 11.3 7.5 20v1.6h-37.3c.1 3.3.8 6.2 2 8.5 1.3 2.6 3.2 4.6 5.5 6s4.9 2.1 7.6 2.1c4 0 7.4-1.4 10.2-4.1 1.3-1.3 2.8-3.3 4.6-6.2l6.9 4c-1.9 3.4-3.9 6.1-5.9 7.9-4.4 4-9.8 6.1-16 6.1-7.6 0-13.7-2.8-18.2-8.5-3.6-4.5-5.3-10.3-5.3-17.1 0-8 2.3-14.3 6.8-19.2 4.3-4.6 9.7-6.9 16.4-6.9m-14 20.3h28.1c-.5-2.7-1.4-5-2.8-6.9-2.8-3.9-6.6-5.8-11.2-5.8-4.9 0-8.8 2.2-11.8 6.5-1.1 1.8-1.9 3.9-2.3 6.2m14-21.3c-6.9 0-12.6 2.4-17.1 7.1-4.7 5-7.1 11.7-7.1 19.8 0 7.1 1.9 13.1 5.6 17.8 4.7 5.9 11.1 8.9 19 8.9 6.5 0 12.1-2.1 16.7-6.3 2.1-1.9 4.2-4.7 6.1-8.2l.5-.9-.9-.5-6.9-4-.9-.5-.5.8c-1.7 2.8-3.2 4.8-4.4 6-2.6 2.6-5.7 3.8-9.5 3.8-2.6 0-5-.7-7.1-2-2.2-1.3-3.9-3.2-5.1-5.6-1-1.9-1.6-4.3-1.8-7h37.2v-2.6c0-9-2.6-16-7.9-20.8-4.3-3.8-9.7-5.8-15.9-5.8zm-12.8 20.3c.4-1.7 1.1-3.3 2-4.6 2.7-4.1 6.3-6.1 10.9-6.1 4.4 0 7.8 1.8 10.4 5.4 1 1.4 1.8 3.2 2.3 5.3zm59.5 32.8c-8.2 0-14-4.3-17.2-12.8l-.2-.4 8.1-3.5.2.4c.9 1.9 1.7 3.4 2.4 4.3 1.7 2.3 3.9 3.4 6.7 3.4 2.5 0 4.4-.8 5.8-2.6 1-1.4 1.6-2.9 1.6-4.7 0-1.9-.6-3.4-2-4.7-.9-.8-2.7-1.8-5.5-3.1-4.4-1.9-7.7-3.7-9.7-5.1-2.9-2.2-4.4-5.4-4.4-9.6 0-4.4 1.6-8 4.7-10.6 2.8-2.4 6.1-3.6 9.8-3.6 6 0 10.5 3.1 13.6 9.2l.2.4-7.7 4.1-.2-.5c-1.6-3.1-3.6-4.6-6.2-4.6-1.6 0-2.9.6-4 1.8-.8.9-1.2 1.9-1.2 3.2 0 1.4.6 2.6 1.8 3.6 1 .8 2.8 1.8 5.6 2.9 4.3 1.9 7.4 3.5 9.2 4.8 3.6 2.7 5.4 6.5 5.4 11.2 0 4.9-1.8 9-5.3 12.2-3.1 2.9-7 4.3-11.5 4.3z"/><path d="m2004.2 1272.8c5.8 0 10.1 3 13.1 8.9l-6.8 3.6c-1.7-3.3-3.9-4.9-6.6-4.9-1.8 0-3.2.7-4.4 2-.9 1-1.3 2.1-1.3 3.5 0 1.6.7 2.9 2 4 1 .8 2.9 1.8 5.7 3 4.3 1.8 7.3 3.4 9.1 4.7 3.5 2.6 5.2 6.2 5.2 10.8 0 4.8-1.7 8.8-5.1 11.8-3.1 2.8-6.9 4.2-11.2 4.2-8 0-13.6-4.2-16.7-12.5l7.2-3.1c.9 2 1.8 3.4 2.5 4.4 1.8 2.4 4.1 3.6 7.1 3.6 2.7 0 4.7-.9 6.2-2.8 1.1-1.5 1.7-3.1 1.7-5 0-2-.7-3.7-2.1-5-.9-.8-2.8-1.9-5.6-3.2-4.4-1.9-7.6-3.6-9.6-5.1-2.8-2.1-4.2-5.2-4.2-9.2 0-4.3 1.5-7.7 4.5-10.3 2.6-2.2 5.7-3.4 9.3-3.4m0-1c-3.8 0-7.2 1.3-10.1 3.8-3.2 2.8-4.8 6.5-4.8 11 0 4.3 1.6 7.7 4.6 10 2 1.5 5.3 3.3 9.8 5.2 3.4 1.5 4.8 2.5 5.3 3 1.2 1.2 1.8 2.6 1.8 4.3s-.5 3.1-1.5 4.4c-1.3 1.6-3 2.4-5.4 2.4-2.7 0-4.8-1.1-6.3-3.2-.7-.9-1.5-2.3-2.4-4.2l-.4-.9-.9.4-7.2 3.1-.9.4.3.9c3.3 8.7 9.2 13.2 17.6 13.2 4.6 0 8.6-1.5 11.9-4.5 3.6-3.3 5.4-7.5 5.4-12.6 0-4.9-1.9-8.8-5.6-11.6-1.8-1.4-4.9-3-9.3-4.9-2.7-1.2-4.5-2.1-5.4-2.9-1.1-.9-1.6-1.9-1.6-3.2 0-1.1.4-2.1 1.1-2.8 1-1.1 2.2-1.6 3.7-1.6 2.4 0 4.2 1.4 5.7 4.4l.5.9.9-.5 6.8-3.6.9-.5-.4-.9c-3.3-6.3-8-9.5-14.1-9.5z"/></g></svg>