<svg height="512pt" viewBox=".8 19.8 509.3 475.9" width="512pt" xmlns="http://www.w3.org/2000/svg"><path d="m219.5 24.1c-86.6 7.1-160.4 56.2-196.2 130.7-15.6 32.4-22.5 63.9-22.5 103.2 0 40.4 7.1 72 23.6 105.5 12 24.2 24.5 41.6 43.6 60.6 36.1 35.9 83.6 58.6 139.5 66.7 15.3 2.2 59.7 2.2 75 0 24-3.5 51-11.1 70-19.6 12.4-5.5 33.7-18 43.7-25.5 5-3.7 9.7-6.7 10.3-6.5.7.2 13.6 11.1 28.6 24.4 36.5 32.1 34.7 30.6 35.7 30.2 1.6-.6 39.3-43.9 39-44.7s-4.8-4.8-43.8-39.1c-9.6-8.4-17.6-15.7-17.8-16.2-.2-.4 2.4-5.2 5.8-10.5 16.5-26.2 28.2-59.3 32.6-92.3 2.3-17 2.3-49 0-66.5-10.1-75.6-55.7-140.4-122.3-173.8-43.9-22.1-91.9-30.9-144.8-26.6zm51.5 59c22.5 2.6 49.9 11.9 69.3 23.5 19.2 11.6 40.7 32 52.9 50.4 13.1 19.7 21.1 39.2 26.5 64.9 2.5 11.6 2.7 14.4 2.7 36.1 0 21.8-.2 24.4-2.7 36.5-5.4 25.4-13.4 44.8-26.4 64.5-14.4 21.6-39.6 44.1-62.4 55.5-17.6 8.9-40.1 16-58.9 18.6-13.6 1.9-43 1.6-56.6-.4-50.6-7.7-94.7-35.4-121.2-76-29-44.5-36.2-104.8-18.8-158 18.3-55.8 63.9-97.3 122.6-111.7 23-5.6 47.1-6.9 73-3.9z"/></svg>