<svg height="2500" viewBox="0.7 0 225.5 234.9" width="2500" xmlns="http://www.w3.org/2000/svg"><path d="M105 .6C76.1 3.8 54.6 13.2 35.6 31 13.2 52.1.7 81.1.7 112.5c0 29.3 10.4 55.8 30.3 76.9 34 36.2 88.9 45.5 133.2 22.5 25.5-13.3 45.2-36.3 54.4-63.3 7.6-22.3 7.6-49.9 0-72.2-12.9-37.9-46.3-66.9-85-73.9C124.8 1 110.5 0 105 .6zm21 39.6c2.4 1.3 5.3 3.6 6.4 5.1 2 2.8 2.1 4.2 2.4 48.3l.3 45.4h10.7c9.1 0 11.4-.4 15.8-2.4 15.9-7.4 20.3-28.1 8.7-41.5-5-5.9-10.3-8.4-19.3-9l-7.5-.6-.3-8.8-.3-8.7h4.3c19.2 0 34.9 9.5 42.7 25.9 3.5 7.3 3.6 8 3.6 18.6s-.1 11.3-3.6 18.6c-6.3 13.2-18.6 22.6-32.4 24.9-3.3.5-13.5 1-22.7 1H118V97.5c0-67.2-.8-61.7 8-57.3zm-19 87.3c0 56.5-.1 59.5-1.8 59.5-3 0-10.5-4.3-12.6-7.3-2-2.8-2.1-4.2-2.4-48.3L89.9 86H79.2c-9.1 0-11.4.4-15.8 2.4-15.9 7.4-20.3 28.1-8.7 41.5 5 5.9 10.3 8.4 19.3 9l7.5.6.3 8.7.3 8.8h-4.3c-19.2 0-34.9-9.5-42.7-25.9-3.5-7.3-3.6-8-3.6-18.6s.1-11.3 3.6-18.6c4.4-9.2 11.7-16.7 20.4-21 8.2-4 12.7-4.6 33.8-4.8L107 68z"/></svg>