<svg height="20pt" viewBox="-1.5 -0.8 187.5 21.1" width="248" xmlns="http://www.w3.org/2000/svg"><path d="M5 1.2c-5.5 2.9-6.5 10.1-2.1 15l2.9 3.3 12.4.3c11.4.2 12.1.1 10.2-1.3-2.1-1.5-2.1-1.8-.7-4.6 1.9-3.7 1-8.9-1.8-11.5C23.2 0 8.9-.8 5 1.2zM30 5.9c0 3.3.4 7.1 1 8.6 1.4 3.7 7 5.8 14.4 5.3 4.9-.4 6.3-.9 8.3-3.2 1.9-2.3 2.3-3.8 2.3-9.7V0h-6.9l-.3 6.7-.3 6.8-4.3.3c-6 .4-7.2-.9-7.2-7.9V0h-7zM57.9 1.7c.5 1 3 3.8 5.5 6.3 3.9 3.7 4.6 5 4.6 8.2 0 3.7.1 3.8 3.5 3.8 3.3 0 3.5-.2 3.5-3.3 0-2.5 1.3-4.7 5.7-9.7L86.3.5 82 .2c-2.4-.2-4.6.1-4.9.6s-1.7 2.2-3 3.8l-2.3 2.9-3.3-3.8C65.8.5 64.7 0 61.1 0c-3.7 0-4.1.2-3.2 1.7zM87.7 1.8C85 4.8 85.7 6 90 6h4v14h7V6h3.4c2.5 0 3.8-.6 5-2.5.9-1.3 1.6-2.7 1.6-3s-4.9-.5-10.8-.5c-9.3 0-11.1.3-12.5 1.8zM112 10v10h9.4c9.1 0 9.5-.1 11.6-2.7l2.2-2.8-8.1-.3c-9.4-.3-11.1-2.2-2-2.2 4.7 0 6.5-.4 7.5-1.8.7-.9 1.4-2 1.4-2.5 0-.4-3.5-.8-7.7-.9-7.3-.2-7.4-.2-1.8-.5 6.1-.4 7.9-1.2 9.6-4.5.9-1.7.3-1.8-10.6-1.8H112zM139 2.7c-2.1 1.9-3.1 3.8-3.2 5.8-.2 7.7 3.1 10.4 13.6 11.2 7.1.5 7.3.5 9.5-2.3l2.3-2.9-8.1-.5c-9.2-.6-12.1-2.2-10.2-5.9 1-1.8 2.1-2.1 7.5-2.1 4.8 0 6.7-.4 7.8-1.8 3.5-4.1 3.4-4.2-6.6-4.2-9 0-9.7.2-12.6 2.7zM162 10v10h3.5c3.4 0 3.5-.1 3.5-4v-4h10v4c0 3.9.1 4 3.5 4h3.5V0h-3.5c-3.3 0-3.5.2-3.5 3.5V7h-10V3.5c0-3.3-.2-3.5-3.5-3.5H162z"/></svg>