<svg clip-rule="evenodd" fill-rule="evenodd" height="2500" stroke-linejoin="round" stroke-miterlimit="2" viewBox="0 0 343.791 409.433" width="1897" xmlns="http://www.w3.org/2000/svg" xmlns:xlink="http://www.w3.org/1999/xlink"><filter id="a" color-interpolation-filters="sRGB" height="1" width="1" x="0" y="0"><feColorMatrix values="1.5 0 0 -7.97973e-18 -0.25 0 1.5 0 -7.97973e-18 -0.25 0 0 1.5 -7.97973e-18 -0.25 0 0 0 1 0"/></filter><filter id="b" color-interpolation-filters="sRGB" height="1" width="1" x="0" y="0"><feColorMatrix values="1.5 0 0 -7.97973e-18 -0.25 0 1.5 0 -7.97973e-18 -0.25 0 0 1.5 -7.97973e-18 -0.25 0 0 0 1 0"/></filter><filter id="c" color-interpolation-filters="sRGB" height="1" width="1" x="0" y="0"><feColorMatrix values="1.5 0 0 -7.97973e-18 -0.25 0 1.5 0 -7.97973e-18 -0.25 0 0 1.5 -7.97973e-18 -0.25 0 0 0 1 0"/></filter><filter id="d" color-interpolation-filters="sRGB" height="1" width="1" x="0" y="0"><feColorMatrix values="1.5 0 0 -7.97973e-18 -0.25 0 1.5 0 -7.97973e-18 -0.25 0 0 1.5 -7.97973e-18 -0.25 0 0 0 1 0"/></filter><filter id="e" color-interpolation-filters="sRGB" height="1" width="1" x="0" y="0"><feColorMatrix values="1.5 0 0 -7.97973e-18 -0.25 0 1.5 0 -7.97973e-18 -0.25 0 0 1.5 -7.97973e-18 -0.25 0 0 0 1 0"/></filter><filter id="f" color-interpolation-filters="sRGB" height="1" width="1" x="0" y="0"><feColorMatrix values="1.5 0 0 -7.97973e-18 -0.25 0 1.5 0 -7.97973e-18 -0.25 0 0 1.5 -7.97973e-18 -0.25 0 0 0 1 0"/></filter><filter id="g" color-interpolation-filters="sRGB" height="1" width="1" x="0" y="0"><feColorMatrix values="1.5 0 0 -7.97973e-18 -0.25 0 1.5 0 -7.97973e-18 -0.25 0 0 1.5 -7.97973e-18 -0.25 0 0 0 1 0"/></filter><filter id="h" color-interpolation-filters="sRGB" height="1" width="1" x="0" y="0"><feColorMatrix values="1.5 0 0 -7.97973e-18 -0.25 0 1.5 0 -7.97973e-18 -0.25 0 0 1.5 -7.97973e-18 -0.25 0 0 0 1 0"/></filter><filter id="i" color-interpolation-filters="sRGB" height="1" width="1" x="0" y="0"><feColorMatrix values="1.5 0 0 -7.97973e-18 -0.25 0 1.5 0 -7.97973e-18 -0.25 0 0 1.5 -7.97973e-18 -0.25 0 0 0 1 0"/></filter><filter id="j" color-interpolation-filters="sRGB" height="1" width="1" x="0" y="0"><feColorMatrix values="1.5 0 0 -7.97973e-18 -0.25 0 1.5 0 -7.97973e-18 -0.25 0 0 1.5 -7.97973e-18 -0.25 0 0 0 1 0"/></filter><filter id="k" color-interpolation-filters="sRGB" height="1" width="1" x="0" y="0"><feColorMatrix values="1.5 0 0 -7.97973e-18 -0.25 0 1.5 0 -7.97973e-18 -0.25 0 0 1.5 -7.97973e-18 -0.25 0 0 0 1 0"/></filter><filter id="l" color-interpolation-filters="sRGB" height="1" width="1" x="0" y="0"><feColorMatrix values="1.5 0 0 -7.97973e-18 -0.25 0 1.5 0 -7.97973e-18 -0.25 0 0 1.5 -7.97973e-18 -0.25 0 0 0 1 0"/></filter><filter id="m" color-interpolation-filters="sRGB" height="1" width="1" x="0" y="0"><feColorMatrix values="1.5 0 0 -7.97973e-18 -0.25 0 1.5 0 -7.97973e-18 -0.25 0 0 1.5 -7.97973e-18 -0.25 0 0 0 1 0"/></filter><filter id="n" color-interpolation-filters="sRGB" height="1" width="1" x="0" y="0"><feColorMatrix values="1.5 0 0 -7.97973e-18 -0.25 0 1.5 0 -7.97973e-18 -0.25 0 0 1.5 -7.97973e-18 -0.25 0 0 0 1 0"/></filter><filter id="o" color-interpolation-filters="sRGB" height="1" width="1" x="0" y="0"><feColorMatrix values="1.5 0 0 -7.97973e-18 -0.25 0 1.5 0 -7.97973e-18 -0.25 0 0 1.5 -7.97973e-18 -0.25 0 0 0 1 0"/></filter><filter id="p" color-interpolation-filters="sRGB" height="1" width="1" x="0" y="0"><feColorMatrix values="1.5 0 0 -7.97973e-18 -0.25 0 1.5 0 -7.97973e-18 -0.25 0 0 1.5 -7.97973e-18 -0.25 0 0 0 1 0"/></filter><filter id="q" color-interpolation-filters="sRGB" height="1" width="1" x="0" y="0"><feColorMatrix values="1.5 0 0 -7.97973e-18 -0.25 0 1.5 0 -7.97973e-18 -0.25 0 0 1.5 -7.97973e-18 -0.25 0 0 0 1 0"/></filter><filter id="r" color-interpolation-filters="sRGB" height="1" width="1" x="0" y="0"><feColorMatrix values="1.5 0 0 -7.97973e-18 -0.25 0 1.5 0 -7.97973e-18 -0.25 0 0 1.5 -7.97973e-18 -0.25 0 0 0 1 0"/></filter><filter id="s" color-interpolation-filters="sRGB" height="1" width="1" x="0" y="0"><feColorMatrix values="1.5 0 0 -7.97973e-18 -0.25 0 1.5 0 -7.97973e-18 -0.25 0 0 1.5 -7.97973e-18 -0.25 0 0 0 1 0"/></filter><filter id="t" color-interpolation-filters="sRGB" height="1" width="1" x="0" y="0"><feColorMatrix values="1.5 0 0 -7.97973e-18 -0.25 0 1.5 0 -7.97973e-18 -0.25 0 0 1.5 -7.97973e-18 -0.25 0 0 0 1 0"/></filter><filter id="u" color-interpolation-filters="sRGB" height="1" width="1" x="0" y="0"><feColorMatrix values="1.5 0 0 -7.97973e-18 -0.25 0 1.5 0 -7.97973e-18 -0.25 0 0 1.5 -7.97973e-18 -0.25 0 0 0 1 0"/></filter><filter id="v" color-interpolation-filters="sRGB" height="1" width="1" x="0" y="0"><feColorMatrix values="1.5 0 0 -7.97973e-18 -0.25 0 1.5 0 -7.97973e-18 -0.25 0 0 1.5 -7.97973e-18 -0.25 0 0 0 1 0"/></filter><filter id="w" color-interpolation-filters="sRGB" height="1" width="1" x="0" y="0"><feColorMatrix values="1.5 0 0 -7.97973e-18 -0.25 0 1.5 0 -7.97973e-18 -0.25 0 0 1.5 -7.97973e-18 -0.25 0 0 0 1 0"/></filter><filter id="x" color-interpolation-filters="sRGB" height="1" width="1" x="0" y="0"><feColorMatrix values="1.5 0 0 -7.97973e-18 -0.25 0 1.5 0 -7.97973e-18 -0.25 0 0 1.5 -7.97973e-18 -0.25 0 0 0 1 0"/></filter><linearGradient id="y"><stop offset="0" stop-color="#6098c1"/><stop offset="1" stop-color="#c6d8e3"/></linearGradient><linearGradient id="z" gradientTransform="matrix(-48.7784 0 0 -48.7784 151.172 118.592)" gradientUnits="userSpaceOnUse" x2="1" xlink:href="#y"/><linearGradient id="A" gradientTransform="matrix(48.7784 0 0 -48.7784 205.496 118.592)" gradientUnits="userSpaceOnUse" x2="1" xlink:href="#y"/><g fill-rule="nonzero"><path d="m86.65 85.022 1.024-1.732h.382v3.304h-.368v-2.63h-.01l-.863 1.455h-.34l-.869-1.454h-.01v2.629h-.367v-3.304h.382l1.029 1.732zm-3.016 1.572h-.378v-2.983h-1.015v-.321h2.403v.32h-1.01z" fill="#0d4d8e"/><g transform="matrix(.21837 0 0 .21837 17.575 -.186)"><path d="m272.169 30.414c-12.982-9.244-27.847-16.386-44.694-21.046l-49.14 200.361z" fill="#f05549" filter="url(#a)"/><path d="m178.335 209.729 127.444-145.322c-9.441-13.328-20.721-24.884-33.964-34.251z" fill="#fec23d" filter="url(#b)"/><path d="m178.335 209.729 148.912-104.268c-5.635-14.991-12.771-28.773-21.468-41.053z" fill="#0d4d8e" filter="url(#c)"/><path d="m227.475 9.368c-14.826-4.101-31.18-6.287-49.14-6.287v206.648z" fill="#00ab54" filter="url(#d)"/><path d="m273.28 382.79-94.945-173.061 45.701 195.867c18.759-4.75 35.128-12.522 49.244-22.806z" fill="#00ab54" filter="url(#e)"/><path d="m273.28 382.79c12.747-9.287 23.652-20.624 32.805-33.648l-127.75-139.413z" fill="#fff" filter="url(#f)"/><path d="m306.084 349.142c8.447-12.018 15.407-25.464 20.943-40.061l-148.692-99.352z" fill="#fec23d" filter="url(#g)"/><path d="m338.41 267.991c2.428-12.899 4.02-26.346 4.804-40.205l-164.879-18.057z" fill="#f05549" filter="url(#h)"/><path d="m338.661 147.381c-2.7-14.752-6.483-28.798-11.414-41.921l-148.912 104.269z" fill="#252524" filter="url(#i)"/><path d="m343.301 188.011c-.721-14.002-2.254-27.593-4.64-40.63l-160.326 62.348z" fill="#fff" filter="url(#j)"/><path d="m343.213 227.786c.387-6.824.578-13.747.578-20.753 0-6.415-.168-12.758-.49-19.023l-164.965 21.719z" fill="#00ab54" filter="url(#k)"/><path d="m327.027 309.081c4.881-12.873 8.66-26.635 11.383-41.09l-160.075-58.262z" fill="#0d4d8e" filter="url(#l)"/><path d="m84.501 30.414c12.981-9.244 27.848-16.386 44.695-21.046l49.139 200.361z" fill="#252524" filter="url(#m)"/><path d="m178.335 209.729-127.444-145.322c9.44-13.328 20.721-24.884 33.964-34.251z" fill="#fec23d" filter="url(#n)"/><path d="m178.335 209.729-148.912-104.268c5.635-14.991 12.771-28.773 21.468-41.053z" fill="#f05549" filter="url(#o)"/><path d="m129.196 9.368c14.825-4.101 31.179-6.287 49.139-6.287v206.648z" fill="#fec23d" filter="url(#p)"/><path d="m83.39 382.79 94.945-173.061-45.701 195.867c-18.758-4.75-35.128-12.522-49.244-22.806z" fill="#fec23d" filter="url(#q)"/><path d="m83.39 382.79c-12.747-9.287-23.652-20.624-32.806-33.648l127.751-139.413z" fill="#f05549" filter="url(#r)"/><path d="m50.586 349.142c-8.448-12.018-15.407-25.464-20.943-40.061l148.692-99.352z" fill="#252524" filter="url(#s)"/><path d="m18.26 267.991c-2.428-12.899-4.021-26.346-4.804-40.205l164.879-18.057z" fill="#fff" filter="url(#t)"/><path d="m18.009 147.381c2.7-14.752 6.483-28.798 11.414-41.921l148.912 104.269z" fill="#fff" filter="url(#u)"/><path d="m13.368 188.011c.722-14.002 2.255-27.593 4.641-40.63l160.326 62.348z" fill="#0d4d8e" filter="url(#v)"/><path d="m13.456 227.786a367.596 367.596 0 0 1 -.577-20.753c0-6.415.167-12.758.49-19.023l164.966 21.719z" fill="#f05549" filter="url(#w)"/><path d="m29.643 309.081c-4.882-12.873-8.66-26.635-11.383-41.09l160.075-58.262z" fill="#00ab54" filter="url(#x)"/></g><path d="m56.518 18.646s11.977.412 12.233-.287c.272-.741 1.262-3.929 1.262-6.026 0-3.782-3.81-5.524-4.939-6.088-2.858-1.427-6.11-1.701-8.556-1.701s-5.698.274-8.557 1.7c-1.13.565-4.939 2.307-4.939 6.089 0 2.097.99 5.285 1.262 6.026.256.699 12.234.287 12.234.287z" fill="#c6d8e3"/></g><path d="m152.604 79.235c-11.329-4.197-23.828-10.346-24.792-13.164-1.067-3.117-4.417-15.42-5.72-21.154a104.625 104.625 0 0 1 -.521-2.378c5.436-7.228 13.788-11.209 17.33-12.965-.083.827.004 2.156.489 4.291 1.303 5.734 3.712 18.931 4.966 21.977 1.038 2.518 11.29 9.422 20.273 15.105-5.806 1.829-10.179 4.783-12.025 8.288zm51.518.018c-1.837-3.505-6.201-6.461-11.997-8.294 8.987-5.685 19.254-12.597 20.292-15.117 1.255-3.046 3.663-16.243 4.966-21.977.475-2.088.568-3.405.495-4.236 3.62 1.792 11.924 5.797 17.302 13.021-.12.587-.285 1.326-.499 2.267-1.303 5.734-4.652 18.037-5.719 21.154-.967 2.822-13.498 8.984-24.84 13.182z" fill="#fff" fill-rule="nonzero" transform="matrix(.21837 0 0 .21837 17.575 -.186)"/><path d="m56.518 10.484c7.244 0 13.88 3.655 12.207 7.949-.841 2.157-5.333 5.06-12.207 5.06s-11.365-2.903-12.206-5.06c-1.673-4.294 4.962-7.949 12.206-7.949z" fill="#3c7792" fill-rule="nonzero"/><path d="m56.43 14.1c1.647 0 2.282.295 2.863.488.528.175 1.927.302 2.603-.562.692-.884 2.068-.898 3.488-.531 0 0-2.266-2.509-8.954-2.509s-8.954 2.509-8.954 2.509c1.42-.367 2.796-.353 3.488.531.677.864 2.075.737 2.603.562.582-.193 1.217-.488 2.863-.488z" fill="#6098c1" fill-rule="nonzero"/><path d="m117.662 131.362c-1.131-5.046-.047-15.058 3.069-20.391 7.595-13.001 23.365-10.433 33.055-3.959v-13.718c-5.578-5.988-27.095-8.489-39.581 2.782-16.428 14.827-10.698 52.897-10.698 52.897z" fill="url(#z)" transform="matrix(.21837 0 0 .21837 17.575 -.186)"/><path d="m43.269 28.5c-.247-1.102-.01-3.289.67-4.453 1.659-2.84 5.102-2.279 7.218-.865v-2.995c-1.218-1.308-5.916-1.854-8.643.607-3.587 3.238-2.336 11.551-2.336 11.551z" fill="#c6d8e3" fill-rule="nonzero"/><path d="m115.3 136.17s-4.808-25.521 10.172-34.398 28.314 2.433 28.314 2.433l-9.451 22.348z" fill="#6098c1" fill-rule="nonzero" transform="matrix(.21837 0 0 .21837 17.575 -.186)"/><path d="m253.161 148.973s5.729-38.07-10.698-52.897c-12.487-11.271-34.003-8.77-39.581-2.782v13.718c9.69-6.474 25.459-9.042 33.055 3.959 3.116 5.333 4.2 15.345 3.068 20.391z" fill="url(#A)" transform="matrix(.21837 0 0 .21837 17.575 -.186)"/><g fill-rule="nonzero"><path d="m72.858 32.345s1.25-8.313-2.336-11.55c-2.727-2.462-7.426-1.916-8.644-.608v2.995c2.116-1.414 5.56-1.974 7.219.865.68 1.164.917 3.35.67 4.453z" fill="#c6d8e3"/><path d="m241.367 136.17s4.808-25.521-10.171-34.398c-14.98-8.877-28.314 2.433-28.314 2.433l9.45 22.348z" fill="#6098c1" transform="matrix(.21837 0 0 .21837 17.575 -.186)"/><path d="m56.523 14.872c-3.222 0-5.834 1.371-5.834 3.063v13.923h11.668v-13.923c0-1.692-2.612-3.063-5.834-3.063z" fill="#c6d8e3"/><path d="m157.472 111.446v-34.618c0-4.159 3.001-5.575 7.101-6.269l3.916-.663s-3.954-.349-4.032 4.375c-.079 4.724-.152 24.118.017 26.307.388 5.041 2.755 8.872 4.487 8.793s-11.489 2.075-11.489 2.075zm41.675 0v-34.618c0-4.159-3.002-5.575-7.102-6.269l-3.916-.663s3.954-.349 4.032 4.375c.079 4.724.152 24.118-.017 26.307-.388 5.041-2.755 8.872-4.487 8.793s11.49 2.075 11.49 2.075z" fill="#fff" transform="matrix(.21837 0 0 .21837 17.575 -.186)"/><path d="m83.743 76.247c-3.837 5.273-8.802 8.935-14.827 10.969-.05-.317-.178-.68-.375-1.07-.478-.945-4.105-6.987-4.697-10.55-.766-4.608 1.585-7.384 4.156-13.105 2.987-6.644 8.121-19.372 6.103-27.4-2.227-8.86-10.735-11.645-17.585-11.645s-15.358 2.785-17.585 11.645c-2.018 8.028 3.116 20.756 6.102 27.4 2.572 5.72 4.923 8.497 4.157 13.106-.593 3.562-4.219 9.604-4.697 10.55-.197.388-.326.752-.375 1.069-6.025-2.034-10.99-5.696-14.827-10.97-5.547-7.623-8.48-18.427-8.48-31.245 0-12.825 2.928-23.63 8.466-31.246 6.208-8.539 15.372-12.868 27.239-12.868s21.03 4.329 27.238 12.868c5.538 7.617 8.465 18.421 8.465 31.246 0 12.817-2.932 23.622-8.478 31.246zm.73-63.014c-6.383-8.78-15.788-13.233-27.954-13.233-12.167 0-21.573 4.452-27.957 13.233-5.649 7.77-8.635 18.755-8.635 31.768 0 13.006 2.99 23.991 8.648 31.767 4.208 5.784 9.728 9.68 16.475 11.673.188.061.418.135.696.217.152.046.339.025.54.003.213-.022.441-.045.662.01.341.085.631.465 1.049.55 1.949.403 4.747.78 8.52.78h.002c3.773 0 6.571-.377 8.52-.78.473-.097.865-.516 1.24-.612.19-.048.377-.013.55.022.168.034.324.068.461.027.278-.082.508-.156.696-.217 6.747-1.992 12.266-5.89 16.474-11.673 5.658-7.776 8.648-18.76 8.648-31.767 0-13.013-2.986-23.998-8.634-31.768z" fill="#c6d8e3"/></g><g transform="matrix(.21837 0 0 .21837 17.575 -.186)"><g fill="#fff"><path d="m139.314 409.433a122.588 122.588 0 0 1 -10.31-2.58c.302.09.635.123.99.123.463 0 .965-.056 1.489-.111a15.18 15.18 0 0 1 1.616-.111c.471 0 .946.041 1.413.157 1.561.39 2.888 2.127 4.802 2.522z"/><g fill-rule="nonzero"><path d="m139.314 409.433c-1.914-.395-3.241-2.132-4.802-2.522a5.843 5.843 0 0 0 -1.413-.157c-.549 0-1.093.055-1.616.111-.524.055-1.026.111-1.489.111-.355 0-.688-.033-.99-.123.681-3.641 2.056-7.49 4.622-11.366 9.398-14.19 14.63-31.782 16.918-41.687 7.618-32.971-27.686-59.306-41.767-153.181-10.752-71.682 36.928-84.81 52.332-86.614l6.098-.854c-55.899 19.276-41.373 101.511-29.933 141.918 14.46 51.068 23.835 72.594 21.223 98.378-.808 7.978-5.975 27.273-13.912 42.018-2.836 5.267-4.395 7.252-5.271 13.968zm78.041 0c2.166-.448 3.962-2.368 5.678-2.805.307-.079.612-.109.912-.109.555 0 1.095.105 1.612.21.516.105 1.009.209 1.467.21.222 0 .436-.025.641-.086a122.982 122.982 0 0 1 -10.31 2.58z"/><path d="m217.355 409.433c-.876-6.716-2.435-8.701-5.271-13.968-7.938-14.745-13.104-34.04-13.912-42.018-2.612-25.784 6.763-47.31 21.222-98.378 11.441-40.407 25.967-122.642-29.932-141.918l6.098.854c15.404 1.804 63.084 14.932 52.332 86.614-14.081 93.875-49.385 120.21-41.767 153.181 2.288 9.905 7.52 27.497 16.917 41.687 2.567 3.876 3.942 7.725 4.623 11.366a2.235 2.235 0 0 1 -.641.086c-.458-.001-.951-.105-1.467-.21-.517-.105-1.057-.21-1.612-.21-.3 0-.605.03-.912.109-1.716.437-3.512 2.357-5.678 2.805z"/></g></g><path d="m178.334 184.737c-10.571 0-20.812.45-30.606 1.301.619-16.351 14.107-29.464 30.606-29.464 16.5 0 29.988 13.113 30.607 29.464-9.794-.851-20.036-1.301-30.607-1.301zm0 33.11c-15.592 0-28.491-11.711-30.387-26.797a335.867 335.867 0 0 1 30.387-1.366c10.431 0 20.613.476 30.388 1.366-1.896 15.086-14.795 26.797-30.388 26.797zm35.566-31.339c-.376-19.297-16.18-34.881-35.566-34.881-19.385 0-35.189 15.584-35.565 34.881-56.169 5.747-96.363 24.884-96.363 48.238h4.947c0-20.099 39.374-37.628 91.67-43.21 2.143 17.587 17.156 31.258 35.311 31.258 18.156 0 33.169-13.671 35.312-31.258 52.296 5.582 91.669 23.111 91.669 43.21h4.947c0-23.353-40.194-42.49-96.362-48.238z" fill="#6098c1" fill-rule="nonzero"/></g><path d="m51.896 87.87s1.417-10.83 4.622-10.83 4.621 10.83 4.621 10.83c-5.138 1.185-9.243 0-9.243 0z" fill="#fff" fill-rule="nonzero"/><path d="m45.407 110.12c.104-.91-.174-1.758-.85-2.591l-3.19-3.925-1.58 1.284 2.929 3.604c.51.626.652.973.604 1.486-.035.404-.282.82-.677 1.14-.393.32-.85.476-1.253.428-.511-.058-.822-.268-1.33-.896l-2.93-3.602-1.58 1.284 3.19 3.926c.68.832 1.452 1.276 2.364 1.36.107.01.214.018.32.018.883.011 1.703-.303 2.498-.947.886-.723 1.371-1.563 1.485-2.568zm8.04-10.35-5.117 1.04a.814.814 0 0 0 -.534.338.811.811 0 0 0 -.104.624l1.02 5.024c.166.818.533 1.406 1.09 1.75.368.227.81.34 1.318.34.26 0 .536-.03.83-.09l3.198-.649-.385-1.896-3.111.631c-.637.13-.844.059-.99-.656l-.109-.54 3.6-.73-.381-1.875-3.6.73-.273-1.346 3.934-.798zm9.951 2.742 3.067.795.485-1.87-3.154-.817c-1.728-.448-2.912.199-3.332 1.821l-1.287 4.97a.811.811 0 0 0 .07.627.81.81 0 0 0 .513.366l1.171.303.83-3.214 3.55.92.478-1.849-3.55-.92.138-.53c.183-.705.393-.765 1.021-.602zm11.409 3.276-.311-.24c-.486-.374-.87-.214-1.151-.03l-7.284 4.714 1.904 1.077 4.643-3.003-.8 2.698-.705-.529-1.217.872 1.512 1.128-.352 1.212 1.668 1.527 2.418-8.321c.096-.293.166-.726-.325-1.104zm-18.19 4.49c-5.974 0-11.394 2.674-14.7 6.627l1.049 1.295c3.002-3.737 8.11-6.306 13.652-6.306 5.541 0 10.65 2.57 13.652 6.306l1.048-1.295c-3.306-3.953-8.726-6.626-14.7-6.626zm22.096-6.127c-6.058-5.23-13.905-8.11-22.095-8.11s-16.037 2.88-22.095 8.11a31.138 31.138 0 0 0 -1.68 1.563l1.082 1.337a29.506 29.506 0 0 1 1.715-1.605c5.748-4.961 13.198-7.694 20.978-7.694s15.23 2.733 20.977 7.694a29.438 29.438 0 0 1 1.715 1.605l1.083-1.337a31.303 31.303 0 0 0 -1.68-1.563zm17.07 31.202 2.27-2.072c2.663-2.431 4.185-4.65 4.185-6.984 0-2.884-2.18-4.957-5.536-4.957-3.402 0-5.576 2.096-5.509 5.362l2.771.158c-.09-1.735.89-2.996 2.603-2.996 1.644 0 2.72 1.036 2.674 2.658-.045 1.577-1.227 3.182-3.125 4.956-1.217 1.138-4.831 4.234-4.831 4.234v2.187h11.092v-2.546zm-24.651 0 2.27-2.072c2.663-2.431 4.184-4.65 4.184-6.984 0-2.884-2.179-4.957-5.536-4.957-3.401 0-5.576 2.096-5.509 5.362l2.772.158c-.09-1.735.89-2.996 2.602-2.996 1.645 0 2.72 1.036 2.675 2.658-.045 1.577-1.228 3.182-3.125 4.956-1.217 1.138-4.832 4.234-4.832 4.234v2.187h11.092v-2.546zm42.103-3.875v-9.912h-3.852l-6.887 10.295v2.14h5.893l.39-2.523h-3.084l4.673-7.156.002-.011v.004l.003-.004v7.164h-.002l.001 2.523h.001v3.898h2.861v-3.898h2.23v-2.523zm-52.275-1.876c0 2.628-1.343 4.432-3.472 4.814l.56 3.62c4.402-.57 7.23-3.8 7.23-8.434 0-5.097-3.45-8.502-8.66-8.502s-8.662 3.405-8.662 8.502c0 4.634 2.83 7.864 7.232 8.433l.56-3.62c-2.13-.38-3.473-2.185-3.473-4.813 0-2.926 1.715-4.891 4.342-4.891 2.628 0 4.343 1.965 4.343 4.89zm-15.022-2.697c0-3.064-2.14-5.34-6.173-5.34h-7.885v16.335h4.055v-12.706h3.447c1.374 0 2.298.676 2.298 2.027 0 1.262-.766 2.65-2.298 2.65h-1.866l3.082 8.029h4.345l-2.981-5.37c2.5-.518 3.976-2.988 3.976-5.624zm-45.938 10.994h11.76v-3.492h-7.705v-2.996h7.03v-3.29h-7.03v-3.041h7.705v-3.514h-11.76zm87.485-8.173c0-3.998-1.014-5.835-2.952-5.835-2.072 0-2.973 2.113-2.973 5.766 0 4.044 1.013 5.881 2.973 5.881 2.05 0 2.952-2.113 2.952-5.812zm2.996 0c0 5.583-2.275 8.386-5.948 8.386-3.987 0-5.992-3.148-5.992-8.455 0-5.537 2.23-8.317 5.992-8.317 3.875 0 5.948 3.102 5.948 8.386zm-75.542-8.16h4.055v10.16c0 1.802 1.149 2.771 2.839 2.771 1.87 0 2.838-1.104 2.838-2.77v-10.161h4.033v10.318c0 3.785-2.5 6.24-6.871 6.24-4.168 0-6.894-2.298-6.894-6.24zm52.3 21.518h-1.246l-3.526 8.938h1.147l.519-1.354 1.104-2.928h.005l1.38-3.62 1.837 4.82h-2.685l.147.863h2.858l.85 2.22h1.172zm-19.579 5.266c1.751-.026 2.897-.999 2.897-2.639 0-1.553-1.146-2.626-2.97-2.626h-3.983v8.938h1.048v-7.976h2.848c1.184 0 1.96.616 1.96 1.714 0 1.047-.69 1.75-1.96 1.75h-1.849l3.859 4.512h1.319zm4.414-5.265h1.208l3.402 5.388 3.353-5.388h1.196v8.938h-1.047v-7.397l-3.255 5.203h-.506l-3.304-5.208v7.402h-1.047zm35.899 0-3.255 4.711v4.227h-1.047v-4.227l-3.304-4.71h1.22l2.614 3.932 2.6-3.933zm-8.642 0v8.938h-1.134l-5.017-7.323v7.323h-1.048v-8.938h1.135l5.017 7.286v-7.286zm-43.69 0h6.262v.962h-5.213v3.045h4.845v.912h-4.845v3.058h5.215v.961h-6.262zm-10.38 4.488c0-2.737 1.75-4.61 4.438-4.61 2.095 0 3.686 1.146 4.03 2.86h-1.084c-.358-1.135-1.529-1.9-2.934-1.9-2.047 0-3.353 1.468-3.353 3.65 0 2.194 1.319 3.637 3.378 3.637 1.836 0 3.18-1.16 3.193-2.836l.086-.05h-4.02v-.862h4.957c.024.21.049.407.049.64 0 2.417-1.701 4.044-4.266 4.044-2.724 0-4.475-1.824-4.475-4.573z" fill="#004f9f" fill-rule="nonzero" stroke-width=".951"/></svg>