<svg height="1134" viewBox="0 -.004 88.168 40.0339541" width="2500" xmlns="http://www.w3.org/2000/svg"><path d="m0 33.252h1.624l1.819 5.161h.018l1.773-5.161h1.606v6.591h-1.1v-5.085h-.018l-1.829 5.085h-.95l-1.829-5.085h-.014v5.085h-1.1zm8.226 0h1.155v6.591h-1.153zm2.004 0h5.336v1h-2.1v5.594h-1.154v-5.597h-2.086zm6.829 4.394c0 1.016.748 1.413 1.671 1.413 1.016 0 1.394-.5 1.394-1a.785.785 0 0 0 -.545-.813c-.462-.175-1.061-.294-1.966-.544a1.674 1.674 0 0 1 -1.459-1.67c0-1.321 1.219-1.939 2.41-1.939 1.375 0 2.529.729 2.529 2.1h-1.154c-.056-.848-.628-1.163-1.421-1.163-.536 0-1.21.194-1.21.859 0 .461.314.72.785.849.1.027 1.561.407 1.9.507a1.745 1.745 0 0 1 1.284 1.68c0 1.477-1.312 2.068-2.622 2.068-1.505 0-2.723-.72-2.751-2.354zm5.149-4.394h1.154v3.841c0 .887.056 1.911 1.551 1.911s1.551-1.024 1.551-1.911v-3.841h1.154v4.219a2.711 2.711 0 0 1 -5.41 0zm6.74 0h3.2c1.182 0 1.957.536 1.957 1.634a1.449 1.449 0 0 1 -.942 1.4v.019a1.57 1.57 0 0 1 1.238 1.7c0 1.035-.72 1.837-2.428 1.837h-3.028zm1.154 2.76h1.879a.882.882 0 0 0 .97-.913c0-.665-.342-.9-.97-.9h-1.884zm0 2.891h2.04a.981.981 0 0 0 1.108-1.044.969.969 0 0 0 -1.108-1.016h-2.04zm5.346-5.651h1.153v6.591h-1.153zm3.322 4.394c0 1.016.748 1.413 1.671 1.413 1.016 0 1.394-.5 1.394-1a.786.786 0 0 0 -.545-.813c-.462-.175-1.062-.294-1.966-.544a1.673 1.673 0 0 1 -1.458-1.67c0-1.321 1.219-1.939 2.409-1.939 1.375 0 2.53.729 2.53 2.1h-1.154c-.055-.848-.628-1.163-1.422-1.163-.535 0-1.209.194-1.209.859 0 .461.313.72.785.849.1.027 1.56.407 1.9.507a1.744 1.744 0 0 1 1.283 1.68c0 1.477-1.31 2.068-2.622 2.068-1.5 0-2.723-.72-2.751-2.354zm5.198-4.394h1.154v2.621h3v-2.621h1.154v6.591h-1.153v-2.972h-3v2.972h-1.154zm6.693 0h1.154v6.591h-1.154zm5.132 0h2.908c1.883 0 2.243 1.219 2.243 2.04s-.36 2.031-2.243 2.021h-1.754v2.53h-1.154zm1.154 3.121h1.69a1.05 1.05 0 0 0 1.153-1.09c0-.867-.525-1.088-1.135-1.088h-1.708zm5.003-3.121h4.745v1h-3.591v1.726h3.324v.942h-3.324v1.929h3.656v1h-4.81zm5.77 0h1.219l3.009 4.856h.018v-4.856h1.1v6.591h-1.22l-3-4.845h-.027v4.845h-1.1zm11.16 2.097a1.575 1.575 0 0 0 -1.643-1.312c-1.412 0-2 1.246-2 2.511s.591 2.511 2 2.511a1.7 1.7 0 0 0 1.68-1.726h1.127a2.7 2.7 0 0 1 -2.807 2.668 3.466 3.466 0 0 1 0-6.9 2.573 2.573 0 0 1 2.8 2.253zm2.217-2.097h1.154v6.591h-1.154zm2.565 0h1.154v5.594h3.352v1h-4.506z" fill="#1a1311"/><path d="m74.453 11.015h13.715v16.48h-13.715zm0-11.015v6.562h13.715v-6.566zm-41.758 11.015h-11.092v10.655c0 1.937-2.3 2.527-3.915 2.527-2.374 0-4.291-.821-4.291-2.806v-10.376h-13.394v8.689c0 4.9 3.325 8.767 17.333 8.767 9.4 0 15.363-2.208 15.363-7.246zm38.921 7.065c0-4.316-3.556-7.321-9-7.321-4.2 0-9.166 1.944-13.373 3.745v-3.489h-13.711v16.48h13.716v-8.171a9.538 9.538 0 0 1 4.125-1.7c2.82-.421 4.44 0 4.44 3.064v6.8h13.8z" fill="#df1b26"/></svg>