<svg height="822" viewBox="6.7 2.74 635.82 209.6" width="2500" xmlns="http://www.w3.org/2000/svg"><path d="m46.56 58.36c-2.15 3.16-4.73 5.64-7.76 7.43-3.02 1.79-6.33 2.69-9.92 2.69-3.28 0-6.28-.51-9.01-1.52s-5.07-2.63-7.02-4.86c-1.95-2.18-3.46-4.98-4.54-8.4-1.07-3.41-1.61-7.52-1.61-12.32v-37.46h16.27v37.58c0 2.58.18 4.74.56 6.5.37 1.76.97 3.16 1.79 4.21.82 1.09 1.89 1.87 3.22 2.34s2.95.7 4.86.7c1.72 0 3.27-.18 4.65-.53s2.61-.86 3.66-1.52c.9-.59 1.7-1.29 2.4-2.11s1.31-1.74 1.81-2.75v-44.42h16.33v63.33h-14.75zm31.79-54.44h15.04l.59 6.2c.86-1.05 1.79-2 2.81-2.84a19.78 19.78 0 0 1 3.28-2.2c1.4-.74 2.96-1.32 4.65-1.73 1.7-.41 3.52-.61 5.47-.61 4.02 0 7.57.77 10.65 2.31s5.68 3.72 7.79 6.53c2.11 2.85 3.7 6.25 4.77 10.21s1.61 8.34 1.61 13.14v1.23c0 4.61-.54 8.88-1.61 12.82s-2.64 7.34-4.71 10.18c-2.11 2.89-4.7 5.15-7.79 6.79-3.08 1.64-6.61 2.46-10.59 2.46-2.11 0-4.05-.23-5.82-.67a20.05 20.05 0 0 1 -4.95-1.96c-.9-.55-1.76-1.15-2.58-1.81s-1.6-1.4-2.34-2.22v29.85h-16.27zm39.65 23.56c-.49-2.32-1.24-4.34-2.25-6.06-1.05-1.68-2.39-3-4.01-3.98-1.62-.97-3.58-1.46-5.88-1.46-1.33 0-2.54.13-3.63.38s-2.09.61-2.99 1.08c-1.02.55-1.9 1.23-2.66 2.05s-1.41 1.78-1.96 2.87v26.46c.51 1.02 1.12 1.93 1.84 2.75s1.55 1.52 2.49 2.11c.9.55 1.93.97 3.1 1.26s2.48.44 3.92.44c2.3 0 4.26-.51 5.88-1.52s2.94-2.4 3.95-4.16 1.76-3.79 2.22-6.12c.47-2.32.7-4.79.7-7.4v-1.23c.01-2.66-.23-5.15-.72-7.47z"/><path d="m150.46 79.96v-12.7h53.38v12.7z" fill="#3fff00"/><path d="m226.04 156.09c1.21-2.73 3.01-4.98 5.41-6.73 2.4-1.76 5.59-2.67 9.57-2.75 2.11 0 3.93.26 5.47.79s2.86 1.24 3.95 2.14 1.97 1.94 2.63 3.13 1.17 2.43 1.52 3.72c.62-1.29 1.42-2.52 2.4-3.69.97-1.17 2.15-2.2 3.51-3.1 1.33-.9 2.83-1.62 4.51-2.17s3.53-.82 5.56-.82c3.16 0 5.73.6 7.7 1.79s3.4 2.7 4.3 4.54c1.01 1.76 1.68 3.65 1.99 5.68s.47 3.92.47 5.68l-.12 46.83h-2.87l-.12-46.83c0-1.37-.11-2.91-.32-4.62-.21-1.72-.71-3.34-1.49-4.86-.78-1.48-1.93-2.72-3.45-3.72s-3.59-1.45-6.2-1.38c-2.58.08-4.73.51-6.47 1.29s-3.17 1.78-4.3 2.99-2.02 2.54-2.66 3.98-1.18 2.85-1.61 4.21c0 .2.01.36.03.5s.03.28.03.44l-.12 48h-2.87l-.12-48c-.04-1.37-.18-2.84-.41-4.42s-.74-3.05-1.52-4.42c-.82-1.33-1.98-2.43-3.48-3.31s-3.52-1.3-6.06-1.26c-2.73.08-4.97.59-6.7 1.52-1.74.94-3.15 2.13-4.24 3.57-1.09 1.48-1.92 3.12-2.49 4.92s-1.04 3.55-1.43 5.27l-.12 46.13h-2.87v-63.33h2.87zm73.84 10.24c1.27-3.82 3.09-7.2 5.47-10.13s5.3-5.26 8.75-6.99c3.45-1.74 7.38-2.6 11.8-2.6 4.41 0 8.34.87 11.79 2.6 3.45 1.74 6.39 4.05 8.81 6.94 2.38 2.93 4.2 6.31 5.47 10.16 1.27 3.84 1.92 7.87 1.96 12.09v2.17c-.04 4.18-.68 8.18-1.93 12-1.25 3.83-3.06 7.2-5.44 10.13s-5.3 5.26-8.75 6.99c-3.45 1.74-7.39 2.6-11.79 2.6-4.45 0-8.4-.87-11.85-2.6-3.45-1.74-6.37-4.05-8.75-6.94-2.42-2.93-4.26-6.3-5.53-10.13-1.27-3.82-1.92-7.84-1.96-12.06v-2.17c.03-4.22.68-8.23 1.95-12.06zm4.71 24.32c1.01 3.26 2.5 6.16 4.45 8.69 1.95 2.54 4.35 4.57 7.2 6.09s6.11 2.28 9.78 2.28 6.91-.76 9.72-2.28 5.19-3.57 7.14-6.15c1.95-2.54 3.42-5.42 4.42-8.66s1.51-6.59 1.55-10.07v-2.17a35.47 35.47 0 0 0 -1.58-10.07c-1.02-3.28-2.5-6.18-4.45-8.72-1.95-2.5-4.35-4.53-7.2-6.09s-6.09-2.34-9.72-2.34c-3.67 0-6.91.78-9.72 2.34s-5.19 3.59-7.14 6.09c-1.95 2.54-3.43 5.44-4.45 8.72s-1.54 6.63-1.58 10.07v2.17c.04 3.48.57 6.84 1.58 10.1zm91.96-42.87h23.47v5.79h-23.47v39.69c.04 2.46.42 4.5 1.14 6.12s1.71 2.92 2.96 3.89c1.25 1.02 2.7 1.74 4.36 2.17s3.44.64 5.36.64c1.13 0 2.26-.04 3.39-.12s2.24-.19 3.34-.35c.86-.12 1.68-.24 2.46-.38s1.46-.24 2.05-.32l1.11 5.33c-.74.31-1.57.6-2.49.85s-1.88.46-2.9.61c-1.29.19-2.63.34-4.01.44-1.39.1-2.76.15-4.13.15-2.81 0-5.41-.34-7.81-1.02s-4.48-1.79-6.23-3.31c-1.76-1.52-3.13-3.48-4.13-5.88s-1.51-5.34-1.55-8.81v-39.69h-17.62v-5.79h17.62v-16.21h7.14zm81.54 0v53.97h20.66v9.37h-53.03v-9.37h21.54v-44.55h-21.54v-9.42zm-11.8-19.26c.29-.82.75-1.52 1.38-2.11.51-.51 1.16-.91 1.96-1.2s1.71-.44 2.72-.44 1.91.15 2.69.44 1.42.69 1.93 1.2c.62.55 1.09 1.23 1.4 2.05s.47 1.72.47 2.69c0 1.76-.55 3.22-1.64 4.39s-2.71 1.76-4.86 1.76c-2.19 0-3.81-.59-4.89-1.76-1.07-1.17-1.61-2.63-1.61-4.39.01-.93.16-1.81.45-2.63zm47.74 37.55c1.33-3.92 3.28-7.33 5.85-10.21 2.5-2.89 5.58-5.15 9.25-6.79s7.84-2.46 12.53-2.46c4.72 0 8.92.82 12.58 2.46 3.67 1.64 6.79 3.9 9.37 6.79 2.5 2.89 4.41 6.29 5.74 10.21s1.99 8.19 1.99 12.79v1.23c0 4.64-.66 8.93-1.99 12.85s-3.24 7.33-5.74 10.21c-2.54 2.89-5.64 5.14-9.31 6.76s-7.84 2.43-12.53 2.43c-4.72 0-8.93-.81-12.61-2.43-3.69-1.62-6.78-3.87-9.28-6.76-2.58-2.89-4.53-6.29-5.85-10.21-1.33-3.92-1.99-8.2-1.99-12.85v-1.23c0-4.61.66-8.87 1.99-12.79zm13.96 21.8c.57 2.42 1.43 4.53 2.61 6.32 1.17 1.87 2.68 3.34 4.54 4.39 1.85 1.05 4.07 1.58 6.64 1.58 2.5 0 4.66-.53 6.5-1.58 1.83-1.05 3.34-2.52 4.51-4.39 1.13-1.79 1.98-3.9 2.55-6.32s.85-5.01.85-7.79v-1.23c0-2.69-.28-5.24-.85-7.64s-1.41-4.52-2.55-6.35c-1.17-1.87-2.67-3.34-4.51-4.39-1.83-1.05-4.04-1.58-6.61-1.58-2.54 0-4.72.53-6.56 1.58-1.83 1.05-3.34 2.52-4.51 4.39-1.17 1.83-2.04 3.95-2.61 6.35s-.85 4.95-.85 7.64v1.23c0 2.78.28 5.37.85 7.79zm57.98-40.09h14.75l1 8.78a24.81 24.81 0 0 1 2.69-3.22c.97-.97 2.01-1.85 3.1-2.63 1.87-1.33 3.92-2.34 6.15-3.04 2.22-.7 4.58-1.05 7.08-1.05 3.2 0 6.13.47 8.78 1.4 2.65.94 4.96 2.42 6.91 4.45 1.91 2.07 3.4 4.71 4.48 7.93 1.07 3.22 1.61 7.13 1.61 11.74v38.98h-16.27v-38.75c0-2.5-.28-4.56-.85-6.18s-1.38-2.9-2.43-3.83c-1.05-.94-2.32-1.59-3.8-1.96s-3.16-.56-5.03-.56c-1.56 0-3 .18-4.3.53-1.31.35-2.47.88-3.48 1.58-.82.51-1.56 1.11-2.22 1.81s-1.27 1.48-1.81 2.34v45.01h-16.33v-63.33z"/></svg>