<svg viewBox="1 1 290.00000000000006 159" xmlns="http://www.w3.org/2000/svg" width="2500" height="1367"><path d="M1 96V1c13.686 0 27.374 0 41.386.293-1.249 1.755-2.82 3.219-4.712 4.785A2522.461 2522.461 0 0 0 9.091 34.446c-4.465 4.502-4.372 9.524.061 13.228 2.948 2.462 8.775 1.905 12.09-1.487 5.27-5.391 10.345-10.973 15.502-16.473L38 30.736c0 13.624-.01 27.249.005 40.873.005 5.494 2.751 8.376 7.92 8.39 6.124.019 8.06-1.988 8.07-8.463.018-10.993.005-21.987.005-32.98v-9.398c6.293 6.418 11.715 11.603 16.714 17.169 3.307 3.682 11.35 3.229 13.616.805 2.839-3.038 2.14-9.155-1.506-12.804-8.477-8.484-16.93-16.991-25.472-25.41-1.225-1.207-2.887-1.973-4.47-3.248C51.505 3.91 50.252 2.455 49 1h242c0 31.354 0 62.708-.363 94.41-2.626-.164-5.164-1.582-7.1-1-4.355 1.308-8.412 3.608-12.189 5.322-.37-1.211-.478-3.367-1.598-4.61-.797-.886-3.413-1.228-4.395-.576-1.227.815-2.234 2.892-2.256 4.439-.175 12.636-.064 25.275-.123 37.913-.015 3.288.312 6.177 4.561 6.078 4.198-.097 4.44-3.188 4.453-6.294.03-7.15.008-14.302.01-21.452.004-6.9 2.36-10.161 8.975-12.263 3.32-1.055 6.682-1.982 10.025-2.967v60c-77.354 0-154.708 0-232.407-.372.24-2.527 1.22-4.663 1.327-6.843.25-5.052.08-10.126.08-15.632 12.775 11.792 31.456 4.523 34.504-9.022 1.623-7.214 1.748-14.247-1.053-20.99-1.384-3.332-3.647-6.68-6.38-8.997-7.374-6.249-19.43-5.774-25.692.469-2.533-1.641-4.891-4.445-7.047-4.297-4.356.298-3.306 4.5-3.313 7.507-.039 17.294-.087 34.59.07 51.882.018 2.104 1.244 4.197 1.911 6.295H1c0-10.02 0-20.041.357-30.377 1.137 7.231 5.234 12.032 12.68 13.26 6.968 1.147 13.345-.582 19.397-6.5-1.243 4.595.168 6.592 3.748 6.572 4.106-.024 3.864-2.969 3.847-5.906-.069-12.493-.067-24.987-.002-37.481.016-3.002-.623-5.433-4.115-5.508-3.544-.076-3.932 2.28-3.98 5.29-.144 8.92-.37 17.852-1.024 26.746-.386 5.252-7.778 10.483-13.002 9.842-5.42-.664-8.875-4.89-8.898-10.993-.031-8.162.14-16.33-.112-24.484-.063-2.056-.945-5.3-2.28-5.804C5.834 93.983 3.243 95.452 1 96m242.404-.142c-4.79-.463-9.844-2.13-14.317-1.15-11.057 2.424-16.714 11.776-16.972 22.893-.19 8.16 1.354 16.385 8.785 21.252 9.04 5.92 18.765 5.581 28.494 1.084 3.87-1.79 5.667-4.282 3.867-9.575-3.131 1.232-6.214 2.37-9.237 3.646-12.316 5.2-22.788-.871-22.588-14.008 9.626 0 19.261-.018 28.896.012 2.462.008 4.915.106 4.657-3.44-.612-8.416-2.342-16.26-11.585-20.714m-85.947-3.807c1.498-8.15 1.891-8.556 9.425-10.115.946-.196 2.038-.39 2.727-.977 1.26-1.075 2.97-2.357 3.141-3.72.115-.923-2.17-3.136-3.236-3.046-5.128.43-10.322.679-14.68 4.351-5.176 4.362-6.129 10.126-5.99 16.466-2.334 0-4.419-.556-5.905.15-1.6.76-2.64 2.702-3.923 4.128 1.282.904 2.455 2.248 3.875 2.601 1.82.453 3.84.11 6.109.11v32.952c0 1.332-.477 2.954.113 3.93.962 1.59 2.456 3.605 4.025 3.913 2.526.494 3.971-1.091 3.93-4.157-.166-12.095-.068-24.193-.068-36.64 3.856 0 7.206.336 10.427-.161 1.332-.206 2.388-2.198 3.57-3.378-1.21-1.152-2.27-3.009-3.661-3.303-2.551-.54-5.314.012-7.95-.259-.834-.086-1.548-1.345-1.929-2.845m36.543-.66c0-1.332.038-2.666-.008-3.997-.105-3.046.69-6.43-4.377-6.482-4.899-.05-4.605 3.058-4.614 6.254-.006 2.461-.001 4.923-.001 7.85-2.374 0-4.537-.525-6.212.155-1.506.611-2.477 2.544-3.683 3.894 1.236.978 2.341 2.435 3.74 2.815 1.807.49 3.847.12 6.155.12 0 7.993.152 15.46-.033 22.92-.333 13.416 6.697 17.857 18.324 18.083 2.427.047 4.71.196 4.76-3.384.048-3.422-1.916-3.544-4.518-3.678-4.748-.244-9.048-2.188-9.361-7.344-.532-8.735-.146-17.525-.146-26.598 3.707 0 6.881.277 9.967-.125 1.389-.18 2.602-1.713 3.895-2.632-1.312-1.413-2.388-3.521-3.994-4.065-2.093-.709-4.656.104-6.917-.299-1.107-.197-1.99-1.658-2.977-3.486M104 112.5c0 7.993.043 15.985-.02 23.977-.027 3.375-.004 6.597 4.648 6.507 4.26-.082 4.4-3.052 4.392-6.264-.041-18.815-.041-37.631 0-56.447.007-3.214-.135-6.18-4.398-6.258-4.656-.083-4.66 3.143-4.642 6.514.055 10.323.02 20.647.02 31.971m19-2.993c0 9.79.097 19.582-.055 29.37-.049 3.16 1.694 4.068 4.178 4.045 2.256-.021 3.954-.827 3.928-3.793-.118-13.44.095-26.885-.243-40.317-.04-1.633-2.498-4.265-4.169-4.563-2.95-.526-3.93 1.851-3.695 4.81.249 3.133.056 6.3.056 10.448m8.337-33.603c-3.24-1.189-6.87-2.45-9.102 1.02-1 1.556-.704 5.918.243 6.362 2.315 1.084 5.745 1.536 8 .562 2.833-1.224 3.036-4.456.86-7.944z" fill="#fff"/><path d="M53.417 160c-1.084-2.098-2.31-4.19-2.329-6.295-.156-17.293-.108-34.588-.07-51.882.008-3.007-1.042-7.21 3.314-7.507 2.156-.148 4.514 2.656 7.047 4.297 6.262-6.243 18.318-6.718 25.692-.469 2.733 2.317 4.996 5.665 6.38 8.997 2.8 6.743 2.676 13.776 1.053 20.99-3.048 13.545-21.729 20.814-34.504 9.022 0 5.506.17 10.58-.08 15.632-.108 2.18-1.088 4.316-1.796 6.843-1.513.372-2.902.372-4.707.372m7.345-49.264c-.247 4.576-1.486 9.37-.541 13.686 2.118 9.682 11.051 15.033 20.094 8.736 6.68-4.651 7.35-11.516 5.755-19.035-1.244-5.865-5.108-11.271-9.349-12.097-7.466-1.454-11.825.745-15.959 8.71zM1 96.469c2.243-1.017 4.834-2.486 6.616-1.812 1.335.505 2.217 3.748 2.28 5.804.253 8.155.08 16.322.112 24.484.023 6.104 3.478 10.329 8.898 10.993 5.224.64 12.616-4.59 13.002-9.842.654-8.894.88-17.826 1.024-26.746.048-3.01.436-5.366 3.98-5.29 3.492.075 4.13 2.506 4.115 5.508-.065 12.494-.067 24.988.002 37.481.017 2.937.26 5.882-3.847 5.906-3.58.02-4.991-1.977-3.748-6.571-6.052 5.917-12.43 7.646-19.398 6.498-7.445-1.227-11.542-6.028-12.679-13.728C1 118.312 1 107.624 1 96.47zM291 99.6c-3.343 1.385-6.704 2.312-10.025 3.367-6.615 2.102-8.971 5.364-8.974 12.263-.003 7.15.02 14.301-.01 21.452-.014 3.106-.256 6.197-4.454 6.294-4.25.099-4.576-2.79-4.56-6.078.058-12.638-.053-25.277.122-37.913.022-1.547 1.03-3.624 2.256-4.439.982-.652 3.598-.31 4.395.576 1.12 1.243 1.228 3.399 1.598 4.61 3.777-1.714 7.834-4.014 12.19-5.322 1.935-.582 4.473.836 7.1 1.468.362 1.189.362 2.255.362 3.722z" fill="#e41969"/><path d="M37.995 5.975c1.57-1.463 3.142-2.927 4.86-4.682C44.714 1 46.428 1 48.571 1c1.68 1.455 2.933 2.91 4.308 5.123.059 3.763-.004 6.767-.268 9.797-.201.027-.605.071-.655-.075-.144-.196-.237-.246-.33-.296.122.153.243.305.176.736-1.728 1.763-3.265 3.248-5.177 4.726-1.125-.004-1.875-.003-2.52-.288-1.89-2.14-3.883-3.994-5.778-6.176-.045-3.075-.19-5.824-.333-8.572z" fill="#79d0ec"/><path d="M44.001 21.01c.75-.002 1.5-.003 2.768.306 2.13 1.691 3.742 3.072 6.044 5.045V15.894c.063-3.004.126-6.008.19-9.465 1.462.516 3.124 1.282 4.35 2.49 8.54 8.418 16.994 16.925 25.47 25.409 3.647 3.649 4.346 9.766 1.507 12.804-2.266 2.424-10.31 2.877-13.616-.805-5-5.566-10.421-10.75-16.714-17.169v9.397c0 10.994.013 21.988-.005 32.981-.01 6.475-1.946 8.482-8.07 8.464-5.169-.015-7.915-2.897-7.92-8.391C37.99 57.985 38 44.36 38 30.736l-1.256-1.022c-5.157 5.5-10.232 11.082-15.502 16.473-3.315 3.392-9.142 3.949-12.09 1.487-4.433-3.704-4.526-8.726-.061-13.228A2522.461 2522.461 0 0 1 37.674 6.078c.465 2.645.609 5.394.577 8.88-.173 1.838-.169 2.94-.193 4.457-.016 1.802-.004 3.189.001 4.833.102.5.21.742.32.985.217-.406.434-.813 1.002-1.226 1.788-.992 3.223-1.977 4.657-2.98-.002-.017-.037-.018-.037-.018z" fill="#11c1ee"/><g fill="#e41969"><path d="M243.787 95.944c8.86 4.368 10.59 12.212 11.202 20.628.258 3.546-2.195 3.448-4.657 3.44-9.635-.03-19.27-.012-28.896-.012-.2 13.137 10.272 19.209 22.588 14.008 3.023-1.277 6.106-2.414 9.237-3.646 1.8 5.293.003 7.786-3.867 9.575-9.73 4.497-19.455 4.837-28.494-1.084-7.43-4.867-8.975-13.091-8.785-21.252.258-11.117 5.915-20.47 16.972-22.893 4.473-.98 9.527.687 14.7 1.236m-.247 9.085c-3.177-3.874-7.55-4.99-11.982-3.712-6.407 1.848-9.564 6.806-10.236 13.492h26.52c-1.414-3.448-2.596-6.331-4.302-9.78zM157.263 92.44c.575 1.111 1.289 2.37 2.123 2.456 2.636.271 5.399-.28 7.95.26 1.39.293 2.45 2.15 3.66 3.302-1.181 1.18-2.237 3.172-3.569 3.378-3.221.497-6.571.161-10.427.161 0 12.447-.098 24.545.067 36.64.042 3.066-1.403 4.651-3.929 4.157-1.569-.308-3.063-2.322-4.025-3.913-.59-.976-.113-2.598-.113-3.93v-32.952c-2.27 0-4.288.343-6.11-.11-1.419-.353-2.592-1.697-3.874-2.6 1.284-1.427 2.323-3.369 3.923-4.129 1.486-.706 3.571-.15 5.905-.15-.139-6.34.814-12.104 5.99-16.466 4.358-3.672 9.552-3.921 14.68-4.351 1.067-.09 3.351 2.123 3.236 3.045-.17 1.364-1.88 2.646-3.141 3.721-.69.588-1.78.78-2.727.977-7.534 1.56-7.927 1.965-9.619 10.504zM194.001 91.861c.986 1.359 1.869 2.82 2.976 3.017 2.261.403 4.824-.41 6.917.3 1.606.543 2.682 2.651 3.994 4.064-1.293.919-2.506 2.452-3.895 2.632-3.086.402-6.26.125-9.967.125 0 9.073-.386 17.863.146 26.598.313 5.156 4.613 7.1 9.361 7.344 2.602.134 4.566.256 4.518 3.678-.05 3.58-2.333 3.43-4.76 3.384-11.627-.226-18.657-4.667-18.324-18.084.185-7.458.033-14.926.033-22.92-2.308 0-4.348.37-6.156-.12-1.398-.379-2.503-1.836-3.74-2.814 1.207-1.35 2.178-3.283 3.684-3.894 1.675-.68 3.838-.156 6.212-.156 0-2.926-.005-5.388.001-7.849.009-3.196-.285-6.303 4.614-6.254 5.067.052 4.272 3.436 4.377 6.482.046 1.33.008 2.665.01 4.467zM104 112c0-10.824.035-21.148-.02-31.471-.018-3.37-.014-6.597 4.642-6.514 4.263.077 4.405 3.044 4.398 6.258-.041 18.816-.041 37.632 0 56.447.007 3.212-.131 6.182-4.392 6.264-4.652.09-4.675-3.132-4.648-6.507.063-7.992.02-15.984.02-24.477zM123 109.01c0-3.65.193-6.818-.056-9.951-.235-2.959.745-5.336 3.695-4.81 1.671.298 4.128 2.93 4.17 4.563.337 13.432.124 26.877.242 40.317.026 2.966-1.672 3.772-3.928 3.793-2.484.023-4.227-.886-4.178-4.045.152-9.788.055-19.58.055-29.867zM131.616 76.208c1.898 3.184 1.695 6.416-1.138 7.64-2.255.974-5.685.522-8-.562-.947-.444-1.243-4.806-.243-6.362 2.232-3.47 5.862-2.209 9.381-.716z"/></g><path d="M60.883 110.345c4.013-7.574 8.372-9.773 15.838-8.32 4.24.827 8.105 6.233 9.349 12.098 1.595 7.52.925 14.384-5.755 19.035-9.043 6.297-17.976.946-20.094-8.736-.945-4.316.294-9.11.662-14.077z" fill="#fff"/><path d="M52.612 15.92c.201 3.034.201 6.095.201 10.441-2.302-1.973-3.914-3.354-5.669-5.04 1.394-1.788 2.931-3.273 4.663-5.04l.2-.29s.404-.044.605-.07zM38.086 19a65.36 65.36 0 0 1 .066-3.715c2.07 1.444 4.065 3.298 5.954 5.438-.105.286-.07.287-.44.282-2.106-.672-3.843-1.339-5.58-2.006z" fill="#4fc7eb"/><path d="M51.996 16.003c-.126-.149-.247-.301-.369-.454.093.05.186.1.33.296.05.146.043.155.04.158zM38.058 19.415c1.765.251 3.502.918 5.61 1.608-1.064 1.007-2.5 1.992-4.528 2.977-.592 0-1.074-.01-1.074-.01a245.669 245.669 0 0 1-.008-4.575z" fill="#4fc7eb"/><path d="M38.06 24.248c.006-.257.488-.247.729-.24.024.412-.193.819-.41 1.225-.11-.243-.218-.485-.32-.985z" fill="#48c6eb"/><path d="M243.802 105.312c1.444 3.166 2.626 6.049 4.04 9.497h-26.52c.672-6.686 3.83-11.644 10.236-13.492 4.432-1.278 8.805-.162 12.244 3.995z" fill="#fff"/></svg>