<svg height="739" viewBox="-.2 0 107.4 31.8" width="2500" xmlns="http://www.w3.org/2000/svg"><path d="m90.6 31.1c-1.4 0-2.6-.4-3.4-1.3-.8-.8-1.3-2-1.3-3.4v-26c.4-.1.9-.2 1.8-.2.8-.1 1.6-.2 2.3-.2s1.4.1 2 .2 1.1.3 1.5.6.7.7.9 1.3c.2.5.3 1.2.3 2.1v19.8h11.5c.2.4.4.9.7 1.5.2.6.3 1.2.3 1.9 0 1.3-.3 2.3-.8 2.9-.6.5-1.3.8-2.3.8zm-19.9.6c-2 0-3.8-.3-5.5-.8-1.7-.6-3.2-1.4-4.4-2.5s-2.2-2.5-3-4.2c-.7-1.7-1-3.6-1-5.9s.3-4.1 1-5.7 1.7-2.9 2.9-3.9 2.5-1.8 4-2.3 3.1-.8 4.6-.8c1.8 0 3.4.3 4.8.8 1.5.5 2.7 1.3 3.8 2.2s1.9 2.1 2.5 3.4.9 2.7.9 4.3c0 1.1-.3 2-.9 2.6s-1.5 1-2.7 1.1l-12.5 2c.4 1.1 1.1 1.9 2.3 2.5 1.1.5 2.4.8 3.9.8a16 16 0 0 0 3.9-.5c1.2-.4 2.2-.8 3-1.3.5.3 1 .8 1.4 1.4s.6 1.2.6 1.9c0 1.5-.7 2.6-2.1 3.4-1.1.6-2.3 1-3.6 1.1-1.5.3-2.7.4-3.9.4zm-1.5-19.7c-.8 0-1.5.1-2.1.4s-1 .6-1.4 1.1c-.4.4-.7.9-.8 1.4-.2.5-.3 1-.3 1.6l8.6-1.4c-.1-.7-.5-1.3-1.1-2-.7-.8-1.6-1.1-2.9-1.1zm-37.1-4.5c-.2-.4-.5-.9-.6-1.5-.2-.6-.3-1.3-.3-2 0-1.3.3-2.2.9-2.8s1.4-.9 2.3-.9h21.9c.2.4.5.9.7 1.5s.3 1.3.3 2c0 1.3-.3 2.2-.9 2.8s-1.3.8-2.3.8h-5.6v23.2c-.4.1-1 .2-1.8.3s-1.5.1-2.3.1-1.5-.1-2.1-.2-1-.3-1.5-.6-.7-.7-.9-1.3-.3-1.2-.3-2.1v-19.3z" fill="#fff"/><path d="m27.1 19.7c0 1.8-.3 3.5-1 5-.6 1.5-1.5 2.7-2.7 3.8-1.2 1-2.6 1.8-4.3 2.4s-3.6.9-5.7.9-4-.3-5.7-.9-3.1-1.4-4.3-2.4c-1.2-1.1-2.1-2.3-2.7-3.8-.6-1.5-.9-3.2-.9-5v-19.2c.6-.1 1.2-.2 2-.3s1.6-.2 2.3-.2 1.4.1 2 .2 1.1.3 1.5.6c.4.4.7.8.9 1.3s.3 1.2.3 2.1v15.3c0 1.6.4 2.9 1.3 3.8s2.1 1.4 3.5 1.4 2.6-.5 3.5-1.4 1.3-2.2 1.3-3.8v-19c.4-.1 1-.2 1.8-.2.7-.2 1.5-.3 2.2-.3s1.4.1 2 .2 1.1.3 1.5.6.7.7.9 1.3c.2.5.3 1.2.3 2.1z" fill="#008bf1"/></svg>