<svg height="740" viewBox=".01 0 107.19 31.73" width="2500" xmlns="http://www.w3.org/2000/svg"><path d="m90.63 31.08c-1.44 0-2.58-.42-3.41-1.26-.84-.84-1.26-1.97-1.26-3.41v-25.96c.37-.07.95-.15 1.76-.25.8-.13 1.57-.2 2.31-.2s1.44.07 2.01.2c.6.1 1.1.3 1.51.6s.7.72.9 1.26.3 1.24.3 2.11v19.83h11.5c.23.37.45.87.65 1.51.2.6.3 1.24.3 1.91 0 1.34-.28 2.29-.85 2.86-.57.54-1.32.8-2.26.8zm-19.97.65c-1.97 0-3.82-.27-5.52-.8-1.67-.57-3.15-1.41-4.42-2.51-1.24-1.1-2.23-2.49-2.96-4.17-.7-1.67-1.05-3.63-1.05-5.87s.35-4.1 1.05-5.67c.74-1.61 1.69-2.91 2.86-3.92a10.81 10.81 0 0 1 4.02-2.26c1.51-.5 3.05-.75 4.62-.75 1.77 0 3.38.27 4.82.8 1.47.54 2.73 1.27 3.77 2.21 1.07.94 1.89 2.06 2.46 3.36.6 1.31.9 2.73.9 4.27 0 1.14-.32 2.01-.95 2.61s-1.52.99-2.66 1.15l-12.4 1.86c.37 1.1 1.12 1.94 2.26 2.51 1.14.54 2.44.8 3.92.8 1.37 0 2.66-.17 3.87-.5 1.24-.37 2.24-.79 3.01-1.26.54.33.99.8 1.36 1.41.37.6.55 1.24.55 1.91 0 1.51-.7 2.63-2.11 3.36-1.07.57-2.28.95-3.62 1.15s-2.59.3-3.77.3zm-1.41-19.73c-.8 0-1.51.13-2.11.4-.57.27-1.04.62-1.41 1.05-.37.4-.65.87-.85 1.41-.17.5-.27 1.02-.3 1.56l8.59-1.41c-.1-.67-.47-1.34-1.1-2.01-.64-.67-1.57-1-2.81-1zm-37.16-4.47c-.23-.37-.45-.87-.65-1.51s-.3-1.31-.3-2.01c0-1.31.28-2.24.85-2.81.6-.57 1.37-.85 2.31-.85h21.89c.23.37.45.87.65 1.51s.3 1.31.3 2.01c0 1.31-.3 2.24-.9 2.81-.57.57-1.32.85-2.26.85h-5.57v23.2c-.37.1-.95.2-1.76.3-.77.1-1.54.15-2.31.15s-1.46-.07-2.06-.2c-.57-.1-1.05-.3-1.46-.6s-.7-.72-.9-1.26-.3-1.24-.3-2.11v-19.48z" fill="#000f1a"/><path d="m27.11 19.68c0 1.81-.32 3.46-.95 4.97-.6 1.47-1.49 2.74-2.66 3.82-1.17 1.04-2.59 1.84-4.27 2.41-1.67.57-3.57.85-5.67.85s-4-.28-5.67-.85-3.1-1.37-4.27-2.41a10.917 10.917 0 0 1 -2.71-3.82c-.6-1.51-.9-3.16-.9-4.97v-19.18c.37-.07.95-.15 1.76-.25.79-.13 1.56-.2 2.3-.2s1.44.07 2.01.2c.6.1 1.1.3 1.51.6.4.3.7.72.9 1.26s.3 1.24.3 2.11v15.31c0 1.61.44 2.86 1.31 3.77.9.9 2.06 1.36 3.46 1.36s2.59-.45 3.46-1.36c.87-.9 1.31-2.16 1.31-3.77v-19.03c.37-.07.95-.15 1.76-.25.8-.13 1.57-.2 2.31-.2s1.44.07 2.01.2c.6.1 1.1.3 1.51.6.4.3.7.72.9 1.26s.3 1.24.3 2.11v15.47z" fill="#008bf1"/></svg>