<svg height="200pt" viewBox="-1.5 45.8 256.2 108.5" width="336" xmlns="http://www.w3.org/2000/svg"><path d="m226.6 47.6c-9.5 3-21 17.9-24.6 32.2l-1.3 4.9-4.3-1.9c-4.1-1.7-4.7-1.8-9.6-.3-2.9.8-6.6 2.3-8.3 3.3-3 1.9-3 1.9-6.9-.7-3.1-2-5.1-2.6-9-2.4-2.8 0-6.7.1-8.6.1-9.8-.1-11.7-.1-13.5.1-1.1.1-4.3-.1-7.1-.5-4-.5-6.1-.2-10.1 1.6l-5 2.1-6.3-2.6c-5.1-2.1-6.8-2.4-9.1-1.6l-2.9 1v-8.8c0-10-1.8-13.9-7.8-17.4-6.9-4-19.7-1.5-23.1 4.5-1.6 2.8-3.1 3.7-3.1 1.8 0-.5-1.3-2.5-3-4.3-4.4-5-9.7-6.3-20.9-4.8-14.5 1.8-22.5 5.5-30 13.6-5.4 5.9-8.2 12.2-8.8 19.9-.4 5.2-.2 6.6 1.9 9.5 3.6 5.4 8.2 7.6 15.6 7.6 6.2 0 6.3 0 5.7 2.5-.4 1.4-1.3 3.5-2.1 4.8-1.2 1.9-2.1 2.2-4.9 1.6-9.8-1.8-21 10-19 20.2 1.6 9 11.4 14 25.4 13.2 9.2-.6 15.3-3.3 21.6-9.3l4.4-4.3 3.2 5c8.7 13.5 23 16.1 41.3 7.5 6.9-3.2 7.2-3.2 11.3-1.8 3.4 1.2 5.3 1.3 9.5.4 3.8-.7 5.7-.7 7 0 1.3.8 3 .8 6.2-.1 3.4-.9 5.8-.9 9.3-.1 3.7.8 5.7.8 8.8-.3 3.4-1.1 4.7-1.1 8.3.1 3.2 1 5.5 1.1 9.3.4 3.4-.7 6.4-.7 9.2 0 2.9.7 5.7.7 9.8-.2 4-.8 6.5-.8 8.4-.1 3.6 1.4 8.2 1.2 12.8-.4 3.3-1.2 4.2-1.2 6.8.1 4.4 2.2 11.7.8 21.8-4.3 10.3-5.1 13.1-7.8 13.8-13.3.8-5.6-2.9-15.2-7.2-19l-3.2-2.8 3.7-7.7c12.7-26.1 11-44.1-4.9-49.4-4.1-1.4-4.4-1.4-10.5.4zm10.4 5.9c11.1 5.7 10.3 18.6-2.8 44.7-4.4 8.7-7.7 15.8-7.5 15.8s1.7-1 3.3-2.2c2.5-1.8 3.5-2 5.8-1.2 3 1.1 6.2 6.7 6.9 12.5.6 4.5-1.4 6.6-10.9 11.4-9 4.5-13.8 5.2-18.6 2.8-3.5-1.7-3.9-1.7-7.2-.1-4.3 2.2-8.6 2.3-12.3.3-2.6-1.3-3.4-1.3-7.9.2-4.3 1.4-5.8 1.4-9.5.4-3.5-.9-5.8-.9-10.3.1-5.3 1-6 1-9.3-1-3.5-2-3.6-2-7.3-.1-4.7 2.4-7.1 2.4-10.8.1-2.9-1.7-3.1-1.7-6.5.1-2.4 1.2-4.6 1.6-6.6 1.2-4-.8-5.3-.8-10.1 0-3 .5-5.1.3-7.6-.9-3.5-1.7-3.7-1.7-10.3 1.3-13.9 6.3-21.1 7.4-28 4.2-5.3-2.4-8.5-6.1-13.3-14.9l-3.9-7.3-2.4 3.8c-4 6.5-9.2 11.5-14.4 13.9-9.4 4.4-25.3 2.4-28.5-3.6-1.7-3.1-.5-8 2.9-12 2.8-3.4 3.1-3.5 9.5-3.3 6.5.3 6.5.3 9.1-3.5 1.4-2 3.6-7.1 4.9-11.2 2.8-8.7 5.3-23.6 4.2-24.7-1.2-1.2-4.5 3.8-5.1 7.7-1 6-2.4 8-6.2 9.6-8.1 3.4-17.3-1-17.3-8.4 0-10.7 8.2-21.8 19.5-26 8.6-3.3 20.4-4.8 25.5-3.3 6.5 1.9 7.4 4.3 6.7 17.1-.3 6.1-.3 11 .1 11 2.3 0 8.2-2.3 9.2-3.5.7-.9 1.6-5.4 2.1-10.2.9-9.7 2.2-11.9 8.2-13.2 8-1.9 13.6 2.1 13.8 9.8.3 10.5-.3 15.8-2.7 21.6-.7 1.8-.6 1.8 2-.2 1.5-1.2 4.9-2.9 7.7-3.8 4.8-1.6 5.1-1.6 8.5.4 1.9 1.2 4.3 2.1 5.3 2.1s2.6.9 3.6 2c1.7 1.9 1.8 1.9 5-1.5 2.6-2.9 4-3.5 7.1-3.5 2.2.1 5 .7 6.3 1.4 2 1.1 2.8 1.1 5 0 3.3-1.7 6.9-1.7 10.1 0 2.1 1.2 2.9 1.2 5.4-.1 5.4-2.8 14.6.9 14.6 5.8 0 3 1.4 2.8 5-.7 1.9-1.9 5.9-4.4 9-5.5l5.5-2.1 4 2c2.2 1.1 5.2 2.3 6.6 2.6 2.5.5 2.7.3 4.4-6.2 2.1-7.8 7.4-19 11.6-24.3 2.8-3.5 11.6-8.9 14.6-8.9.8 0 2.7.7 4.3 1.5z"/><path d="m225.2 62.5c-2.2 1.9-5.3 6.1-7 9.2-5.7 10.9-11.1 33.6-9.9 42.3.5 3.6.2 4.3-3 7-6.3 5.6-7.4 3-4.8-11.1 1-5.3 1.5-10.4 1.2-11.3-.4-1-1.8-1.6-3.5-1.6-1.6 0-3.5-.7-4.2-1.5-1.7-2-4.3-1.9-8.9.5-6.8 3.4-13.3 13.5-14.7 22.7-.4 2.9-1.2 4.3-2.6 4.6-3.2.9-4.3-3.1-3-11.2.7-3.9 1.2-9.3 1.2-12 0-4.6-.2-5.1-2.5-5.7-3.3-.8-4.5.3-10.2 9.2-2.5 4.1-4.8 7.3-4.9 7.1-.2-.2.3-2.5 1.1-5.2 2.6-8.5 1.2-12.4-3.9-11.1-2.2.5-9.1 9.9-10.9 15-1.4 3.6-1.6 1-.5-5.5 1.4-8 .8-9.9-3-9.9-3.6 0-4.6 2-6.8 14.2-1.5 8.2-2.1 9.7-5.1 12.6-6.2 6-7.4 3.2-4.8-10.9 1-5.3 1.5-10.4 1.2-11.3-.4-1-1.8-1.6-3.5-1.6-1.6 0-3.5-.7-4.2-1.5s-2.1-1.5-3.2-1.5c-3.1 0-9.3 3.7-12.3 7.2-6 7.1-10 20.1-7.6 24.7 1 1.9.9 2.2-1.4 3.1-7.7 2.9-11.3.1-17.8-14-6.8-14.7-6.9-13.6 1-14.2 15.3-1.1 21.4-8.2 21.4-25 0-5.7-.3-7.5-1.7-8.5-1.5-1.1-5.9-.9-7.3.3-.2.2-.7 4-1.1 8.5-1.1 12.2-5.3 16.4-17.4 17.6l-6.7.6.3-13.8c.4-16.8.6-16.5-11.2-14.7-13.6 1.9-22.1 7.1-26.1 15.7-2.8 6-2.5 9.3.9 10.6 4.3 1.7 7.5.1 8.4-4.4 1.7-8.4 6.8-13.8 14.6-15.5 4.1-1 4.2-.9 4.2 1.7 0 4.1-2.8 21.9-4.5 28.5-2.4 9.1-6.4 17.3-10.3 20.7-3.1 2.8-4 3-9 2.7s-5.7-.1-7.5 2.5c-2 2.6-2 2.8-.4 4.4 1.2 1.2 3.8 1.9 8.7 2.1 5.6.3 7.8 0 11.4-1.8 6.6-3.2 11.8-10.2 15.5-21.3.9-2.7 2.1-4.9 2.6-4.9.6-.1 4.2 6.1 8 13.7 8.2 16.3 10 18 18.3 17.9 4.5 0 7.8-.9 15.2-4.2 5.2-2.4 10.3-5 11.4-6 1.5-1.4 2-1.4 2.4-.3.8 2.5 4.2 5.1 6.5 5.1 1.2 0 3.7-.9 5.6-2.1l3.3-2 1.5 2.1c3 4.3 5.4 2.3 11.6-9.8 3.2-6.3 6-11.2 6.2-11 .2.1-.1 2.3-.5 4.8-1.5 7.6-1.2 15.6.6 17.1 1.3 1.1 2 1.1 4.2-.2 1.9-1 3.5-3.8 5.9-9.9 5.2-13.4 5.1-13.4 5-3.4-.1 7.2.3 9.7 1.7 11.9 1.6 2.4 2.2 2.6 5.4 2 2-.4 4.8-1.3 6.3-2.1 2.3-1.2 2.9-1.1 3.9.1 3 3.6 10.7 2.5 16.4-2.4 1.5-1.3 2-1.3 2.4-.2.8 2.5 4.2 5.1 6.5 5.1 1.3 0 4.4-1.3 7-3l4.6-2.9 3.1 3c2.6 2.6 3.5 3 6.3 2.4 3.7-.8 16.7-7.4 16.7-8.5 0-.4-.7-2.4-1.5-4.4l-1.6-3.7-3.2 2.5c-1.7 1.3-4.7 3.1-6.6 4.1-2.8 1.4-3.5 1.4-4.2.3-2.2-3.4-.7-8.2 7.6-24.6 10.8-21 13.5-32.5 9.2-38-1.9-2.5-7.5-1.4-11.5 2.3zm4.8 8.2c0 1.6-.5 4.6-1.1 6.8-1.3 4.7-10 23.7-10.6 23.1-.8-.7 2.7-17.7 4.7-22.8 3.4-9.1 7-12.7 7-7.1zm-125.5 40.8c-2.3 9.7-4.4 13.5-7.6 13.5-3.5 0-3.6-7.7-.2-14.5 2.1-4.2 6.4-8.5 8.4-8.5 1.5 0 1.5.8-.6 9.5zm86 0c-2.3 9.7-4.4 13.5-7.6 13.5-3.5 0-3.6-7.7-.2-14.5 2.1-4.2 6.4-8.5 8.4-8.5 1.5 0 1.5.8-.6 9.5z"/><path d="m81 103.5c-1.4.8-4.6 1.9-7.2 2.5-2.7.7-4.8 1.4-4.8 1.6 0 .3 1.9 4.1 4.2 8.7l4.2 8.2.8-5.4c.5-2.9 1.9-8 3.2-11.2 1.3-3.3 2.3-5.9 2.2-5.9 0 .1-1.2.7-2.6 1.5z"/></svg>