<svg height="2480pt" viewBox="540.3 276 2484.3 1846.3" width="3508pt" xmlns="http://www.w3.org/2000/svg"><path d="m1737.9 276.5c-.3.2-7.2.7-15.4 1s-19 1-24 1.6c-4.9.6-11.5 1.3-14.5 1.5s-8.4.9-12 1.5-8.4 1.2-10.8 1.4c-9.3.8-15.3 1.8-15.8 2.6-.3.5-1 .7-1.5.3-.5-.3-2.4 0-4.3.6-1.8.6-7.3 1.7-12.2 2.5-20.6 3.4-39.1 7.3-68.9 14.5-16.8 4.1-41.8 11.6-46.5 14-2.2 1.1-4.6 2-5.5 2-.8 0-5.2 1.3-9.8 2.9s-10.3 3.2-12.8 3.6c-2.4.4-5.3 1.5-6.4 2.5-1.1.9-4 2-6.4 2.4s-9.7 2.7-16.3 5.1c-6.6 2.5-12.4 4.3-12.8 4-.5-.3-2.1.6-3.6 2s-3.9 2.8-5.3 3.1c-4.3.9-13.4 4.6-16.3 6.6-1.4 1-3.5 1.8-4.6 1.8-1 0-4.4 1.3-7.5 3-3.1 1.6-6.3 3-7 3-.8 0-3.1 1.1-5.1 2.5s-4.2 2.5-4.8 2.5c-1 0-12.7 5.7-28.3 14-4.4 2.3-11.5 5.9-15.9 8.1-4.3 2.2-10.3 5.6-13.5 7.6-3.1 2-8.3 4.8-11.6 6.3-3.3 1.6-12.2 6.8-19.8 11.6-7.6 4.9-17.5 11.1-22.1 13.8-4.6 2.6-11 7-14.2 9.7-3.3 2.7-6.4 4.9-7.1 4.9-.6 0-2.9 1.5-5.1 3.2-2.2 1.8-6.4 4.6-9.2 6.3-2.9 1.6-7.1 4.6-9.5 6.5-2.3 1.9-11.4 8.9-20.1 15.5-8.6 6.6-18.4 14.5-21.5 17.6-3.2 3.1-7.1 6.4-8.6 7.4-2.5 1.7-13.6 10.8-17.6 14.5-8.7 8.1-75.7 76.3-75.7 77.1 0 .6-3.3 4.5-7.3 8.7-8.6 9.1-16.1 18.8-17.1 22-.5 1.5-1.3 2.1-2.2 1.8-.7-.3-1.3-.2-1.1.2.2.7-3.2 5-17.7 22.7-3.6 4.4-9.6 12.7-13.3 18.4s-8.4 12.2-10.4 14.5c-1.9 2.2-5.3 7-7.4 10.6s-8.3 13.3-13.7 21.7-13.3 21.6-17.5 29.3c-5.3 10-8.3 14.4-9.9 15-1.9.7-2.4 1.7-2.4 4.2 0 1.8-.9 4.8-2 6.6s-2 3.8-2 4.5c0 .6-3.4 8.2-7.6 16.7-15 30.4-17.4 35.5-17.4 36.9 0 .7-.8 2.8-1.9 4.5-1 1.7-2.2 4.2-2.6 5.6-.4 1.3-1.6 3.6-2.6 5-2.5 3.5-17.7 43.3-25.6 67-7.9 23.9-15.8 51.4-20.7 72-2 8.5-4.3 16.6-4.9 18l-1.3 2.5-74.4.2c-76.5.2-88.2.7-106.5 4.4-49 9.9-97.4 43.7-123.3 86.2-28 45.6-34.9 106.5-18 157.2 20.3 60.7 79.1 112.4 140.8 123.9 18.7 3.5 25.6 3.8 89.2 4.5 42.9.4 65.1 1 65.7 1.6 1.3 1.3 4.2 12.3 6.4 24.5.9 4.7 2.8 12.4 4.2 17 1.5 4.7 4.4 15.2 6.6 23.4 9.5 35.4 27.1 83.3 47.2 128.1 10.9 24.2 31.8 64.8 42 81.5 3.8 6.3 9.3 15.6 12.2 20.6s8.1 13.3 11.6 18.5 9.4 14.1 13.3 19.9c8.7 13.3 42.4 58.1 51 68 3.7 4.1 10.2 11.9 14.6 17.2 15.7 19.1 52.4 56.6 76.9 78.6 26.4 23.9 29.6 26.6 43.5 37.6 28.9 22.8 51 38.8 77.1 55.8 140.2 91.9 302.2 144.9 473 154.8 22 1.3 82.2 1.3 104 0 114.8-6.7 221.8-31.4 323.4-74.7 21.4-9.1 70.7-33.2 90.9-44.4 79.2-44.1 146.8-94.7 208.7-156.4 125.3-124.8 214.8-284.8 251.6-450.1 2.3-10.4 4.7-19.5 5.4-20.2 1-1.2 12.1-1.4 61.1-1.3 34.4 0 64.8-.4 71.4-1 69-6.2 127.9-46.3 156.9-106.9 11.7-24.5 16.9-45.5 17.8-72.5.9-25.3-1.8-44.2-9.7-67.6-15-45.1-47.3-82.9-90.1-105.8-17.2-9.1-36.1-15.7-57.4-19.8-7.8-1.5-18.3-1.8-79.5-2.3l-70.4-.5-.8-3.5c-7.7-35.1-15.2-63.2-25.9-96.5-12.9-40.1-39.6-103.8-56.7-135.5-1-1.9-2.6-4.9-3.5-6.5-.9-1.7-4.4-8.4-7.8-15s-10.1-18.3-14.8-26c-4.8-7.7-11.5-18.7-15-24.5-5.8-9.8-18.8-29-36.7-54.1-7.4-10.5-20.6-27.2-28.4-35.9-6.5-7.3-14.4-16.8-22.8-27.5-4.4-5.5-10.8-12.8-14.3-16.2s-7.5-7.5-8.9-9c-6.2-7.2-23-24.4-31.4-32.2-36.6-34-44.7-41.1-61.7-54.2-5.3-4.1-14.6-11.5-20.7-16.4-6.2-5-16.9-12.9-24-17.7-34.8-23.7-50.9-34.3-63.2-41.3-7.4-4.2-15.7-9.2-18.5-11-2.7-1.8-8.4-4.9-12.5-7-4.1-2-13.6-7-21-11.1-14.4-7.9-41.1-20.4-43.5-20.4-2.7 0-2.6 2 .2 3.1 4.6 1.8 5.8 2.7 5.6 3.8-.2.6.3.8 1 .5.7-.2 2.6.9 4.3 2.5 1.6 1.7 3.2 3.1 3.6 3.1s3.9 2.1 7.8 4.7c4.9 3.3 6.6 4.9 5.8 5.5-1 .7-.9.8.2.7 3-.3 4.1.1 3.4 1.3-.4.7-.3.8.4.4 1.6-.9 6.2 3.8 6.2 6.3 0 2.4 3.3 5.3 20.6 17.9 7.6 5.6 15.3 11.3 16.9 12.7l3 2.5-5.5-2.1c-3-1.2-8.9-3.4-13.2-5-4.2-1.5-8.8-4-10.2-5.4s-2.9-2.5-3.5-2.5c-.5 0-5.6-2.2-11.3-4.9s-13.8-6.3-18-8.1c-4.3-1.7-9.7-4.5-12-6.1-2.4-1.6-4.8-2.9-5.4-2.9s-7.1-2.7-14.5-6.1c-18.2-8.3-40.9-17.4-61.9-24.8-9.6-3.4-22-7.9-27.5-10.1-10.8-4.2-17.6-6.2-27-8.1-3.2-.6-6.8-1.7-8-2.5-1.1-.7-6-2.2-10.8-3.4-4.9-1.1-9.8-2.5-10.8-3.1-3.2-1.7-16.2-4.8-21.2-5.1-2.5-.2-4.3-.6-4.1-.9.8-1.3-4.8-2-6.2-.8-1.2 1-1.3.9-.8-.4.4-1.1 0-1.6-1.3-1.6-1 .1-3.4-.2-5.3-.6s-5-.8-6.7-.9c-1.8 0-3.3-.4-3.3-.7 0-.4-3.7-1.3-8.2-2.2-15.1-2.8-15.8-2.9-15.8-1.5 0 1-.2 1-.9 0-1.2-2-15.5-5-37.1-7.7-10.7-1.3-23.1-2.8-27.5-3.4-25.1-3.2-44.2-4-97.6-4.1-27.3 0-49.8.2-50 .5zm-9.8 102.5c5.4 0 9.9.4 9.9.9 0 .8-14.9 13-20.2 16.5-2.2 1.4-5.5 1.6-25.9 1.4l-23.3-.3 10.3-9 10.3-9 13.1-.5c7.3-.3 13.8-.4 14.5-.3.8.2 5.8.3 11.3.3zm-70.6 22 12 .1-9.4 8.9-9.3 9h-43.9l2.3-3.2c3.5-5 9.4-10.4 13.6-12.4 5.8-2.7 9.2-3.4 16.2-2.9 3.6.3 11.9.5 18.5.5zm55.5 21c4.1 1.2 9.3 3.2 11.6 4.5 8.7 5.1 15.6 15.6 17.4 26.6 1.3 8.4.2 36.5-1.6 38-.7.5-8.8 2.1-18.1 3.5-96.7 14.4-190.7 42.8-281.3 85-14.3 6.6-21.1 8.4-32.1 8.4-9.8 0-18.7-1.6-29.8-5.5-12.3-4.2-14.6-3.5-18.9 5.1-4 8-8 11-40.1 30.2-9.7 5.9-22 12.9-27.2 15.6-10.8 5.6-13.8 5.7-15.9.5-4.1-9.8 14-37.8 40-62l11.1-10.3-2.8-1.4c-9.5-4.8-11-12.3-4-20 2.4-2.5 5.2-2.8 9.3-.8 11.3 5.6 58.8 25.5 67.3 28.2 15.6 5.1 17.2 4.9 37.5-4.5 83.4-38.6 172.4-66.2 266.2-82.5 10.8-1.9 19.8-3.7 20.2-4 .8-.8-1.6-10.6-2.9-12.3-1.7-2-4.7-1.6-19.6 2.6-22.4 6.3-29.4 7.5-44.3 7.5-16 .1-19.5-1.2-21.9-8-1.8-5.2-.2-14.8 3.4-20.9 5.9-10.2 27.1-22.4 44.3-25.5 7.3-1.4 23.8-.3 32.2 2zm313.4 22.4c10.9 3.9 15.4 9.9 13.6 17.9-2.1 9.5-14 26.5-25 35.6-21.2 17.7-61.5 30.8-100.2 32.7-15.4.7-28.9-.4-53.3-4.6-9.3-1.6-20.8-3.4-25.5-4.1-4.7-.6-9.4-1.5-10.4-1.9-1.9-.7-1.9-.8.5-2.3 2.2-1.4 3.7-1.5 16.4-.2 42.8 4.4 67.8 2.7 105-7 15.1-3.9 48.6-14.3 49.8-15.4.4-.5-5.6-2.4-13.5-4.3-35.2-8.8-41.6-18.9-22-35.2 12-9.9 29-14.9 48.3-14.1 6.8.3 11.4 1.1 16.3 2.9zm-713 71.4c-2.2 5.8-8.5 12.7-14.4 15.7-2.5 1.2-8.8 3.4-14 4.8s-12.6 3.9-16.5 5.6c-4.2 1.8-7.2 2.6-7.6 2-1-1.7.9-10.8 3-14.3 3.2-5.1 9.2-8.6 20.9-12.2 5.9-1.8 15-4.8 20.2-6.7 9.2-3.4 9.5-3.4 9.8-1.5.2 1.1-.4 4.1-1.4 6.6zm977.3 22.2c.7 1.4 1.3 6.1 1.3 10.7 0 20.4-7.2 27.5-50.8 49.6l-12.4 6.2h-25.6c-34.6-.1-55.9-3.4-84.3-12.9-16.3-5.5-21.5-8.5-45.8-26.5-11.1-8.2-21.1-15.6-22.4-16.5-2.2-1.5-2.2-1.6-.3-3.1 1.1-.8 3.1-1.5 4.5-1.5s10.3 4.2 19.7 9.4c20.4 11.1 30 15.3 45.4 19.9 18.6 5.6 39.5 9.4 72 13.2 37.1 4.2 57.1-.8 64.6-16.2 2.6-5.2 2.9-7.1 3.2-17.3.2-6.3.8-12 1.3-12.5 1.2-1.3 21.4-5.4 25.4-5.2 2.1.2 3.3 1 4.2 2.7zm-1028.9 15.9c.6 10.1-2.4 13.7-15.4 18.6-4.9 1.8-13.4 5.4-18.9 7.8-12 5.4-13 5.1-12.2-3.5.6-6.6 3.2-11.5 7.5-14 1.6-1 6.7-3.1 11.3-4.7 4.6-1.7 12-4.6 16.4-6.5 4.4-2 8.7-3.5 9.5-3.3 1.1.1 1.6 1.8 1.8 5.6zm570.2 73.7c30.3 2.6 64.5 7.8 73.5 11.2 2.2.8 6.5 1.8 9.5 2.2 8.6 1.2 23.6 4.8 28.2 6.9 2.4 1.1 9.9 3.5 16.8 5.4 14.6 4.1 33.2 10.7 50.3 18 16.7 7 51 24.3 56.1 28.2 2.3 1.7 5.4 3.5 6.9 3.9 1.5.3 9.3 5.1 17.5 10.5 8.1 5.4 18.7 12.4 23.6 15.5 11.8 7.6 27.3 19.4 35.5 27 3.6 3.4 9.5 8.4 13.1 11.1 8.3 6.1 44.5 42.6 57.2 57.5 12.5 14.7 32 40.5 35.9 47.5 1.7 3 3.5 5.5 3.9 5.5.5 0 1.2 1 1.6 2.2.4 1.3 1.5 3.4 2.6 4.8 12.7 16.9 35.2 59 45.8 85.5 2.6 6.6 6.2 15.4 7.9 19.5 1.8 4.1 5 13.3 7.1 20.5 2.1 7.1 4.5 15 5.4 17.5 3.1 9.4 5.7 18.8 7.1 26 .7 4.1 2.5 11.8 3.9 17s3.2 14.7 4.1 21 2.2 14.6 3 18.5c.8 3.8 1.9 15.5 2.5 26 .6 10.4 1.5 20.9 2 23.3 2 8.6.9 48.9-1.9 76-.6 5.3-1.5 14.3-2.1 19.8-1.1 11.8-5.6 36.7-9.6 53.4-.9 3.6-2.6 11.2-4 16.8-1.3 5.7-4.2 15.9-6.4 22.5-2.2 6.7-5.2 15.8-6.7 20.2-1.4 4.4-2.9 8.4-3.3 9-.4.5-1.8 4.1-3 7.9-3.2 9.7-16.1 39.2-22.4 51.1-12.4 23.5-32.8 56.8-44 72-2.9 3.8-7.8 10.6-10.9 15-12.4 17.4-35.7 43.2-60 66.4-25.5 24.2-65.7 55.2-89.7 69.1-4.1 2.4-9.6 5.9-12.1 7.7-2.6 1.8-6.2 3.8-8 4.5-1.8.6-4.9 2.2-6.9 3.6-5.4 3.8-40.9 21.1-55.5 27.2-26.6 11-77.8 27.2-94.5 30-4.1.7-10.8 2.1-14.9 3.1-4.1 1.1-8.9 1.9-10.8 1.9-4.1 0-4.2-1-.8-11 3.2-9.5 5.5-21.7 5.5-29.5 0-3.5-1.1-11.1-2.5-16.8-2.9-12.5-5-32.7-4.2-41.5.7-6.9.2-9.2-1.9-9.2-2.7 0-3.4 5.1-3.4 24.3v19.1l-6.3-6.7c-4.7-5.1-6.9-6.7-9-6.7-1.5 0-2.7.2-2.7.4s2.1 2.6 4.6 5.2c7.1 7.3 8.8 11.9 8 22.1-.6 7.6-.5 8.9 1.7 13.6 3.3 7 4 12 2.7 20.1-1.2 7.4-3.8 13.7-7.2 17.6-2.2 2.4-3.4 2.7-20.8 4.4-32.1 3.2-38.9 3.5-61.9 2.9l-22.3-.6.5-5.6c3.1-32.3 3-84.9 0-79.4-1.6 2.7-6.9 26.2-8.9 39.5-1.6 10.3-1.5 36.5.2 43l.6 2.8-8.8-.1c-4.9 0-11.1-.4-13.9-.9-2.7-.5-11-1.4-18.2-2-7.3-.5-19-2.1-26-3.5-7.1-1.3-17-3.1-22.2-4s-12-2.5-15-3.5c-3.1-1-7.8-2.2-10.4-2.6-2.8-.4-5.1-1.3-5.4-2.1s2.8-9 7-18.1c8-17.5 8.5-19.5 12.2-48.7.4-2.8 2.2-12.9 4-22.5 2.9-15 6.3-35.4 8-48l.5-3.5-2.4 4.6c-4.6 8.6-14.4 32.4-19.1 46.4-7 20.7-14 55.5-16 78.9-.3 4.4-.8 8.3-1.1 8.7-.6 1-16.2-3.2-25.6-6.8l-7.3-2.9.2-14.2c.5-31.9 9.4-89.6 18.9-122.5 4.9-17 9.2-27.3 20.4-49.2 15.9-30.9 22.2-47.3 29.5-77.1 2.5-10.1 5.4-20.4 6.5-23 2.2-5 18.2-31.8 23.9-39.9 4.3-6.1 20-25.5 28.2-35 26.8-30.6 37.6-68.6 26.1-91.5-2.6-5.2-7.5-10-8.8-8.7-.4.3.3 5.5 1.6 11.4 4.8 23 .2 48.1-13.2 70.8-9.2 15.7-26.4 35.8-40.5 47.4-7.6 6.2-12.5 13.3-15.5 22.1-1.8 5.4-3.3 7.7-9.2 13.7-4.6 4.7-8 7.3-9.4 7.3-1.2 0-3.9-1.6-6.1-3.5-2.1-1.9-4.1-3.5-4.5-3.5-.3 0-.6 1.8-.6 4.1 0 2.8-.4 3.9-1.2 3.7-4.2-1.4-8.1-23.8-8.2-47.3-.1-18 1.1-34.4 2.4-31.1 1.2 3.4 2 .2 3-12.1 1.2-14.9 4.8-29.2 9.7-38.5 2.1-4 8.6-13.7 14.6-21.7 13.7-18.3 15.4-21.3 16.2-28.1l.7-5.5-4.1 7.3c-5.5 9.9-11.2 18.1-18 26-3.1 3.7-6.5 7.8-7.5 9.2l-1.8 2.5.6-2.9c.4-1.5 1.5-4 2.5-5.5 14.1-20 26.1-43.1 27.7-53 .4-2.3 1.2-4.1 1.8-4.2 2.4-.2 6.2.3 9.3 1.2 2.1.7 6.2.7 12.4 0 10.6-1.2 12.3-2.2 23.3-13.8 8-8.3 8.8-8.3 10.7.5.9 4.3.9 7 .1 11.1-1.1 4.9-.9 5.8 1.6 11.9 1.9 4.6 4.8 8.8 10 14.4 4 4.3 8.1 9.8 9.1 12.1l1.8 4.2 1.2-4c.6-2.2 1.1-5.1 1.1-6.4 0-4.6-3.8-10.5-9.2-14.1-2.9-1.9-6.3-5.1-7.6-7-2.3-3.3-2.4-4.1-1.8-13.6.4-7.5.2-11.5-.9-15.2-1.6-5.1-9-16.2-10.9-16.2-.6 0-2.7 3.3-4.6 7.3-6.7 13.9-15.7 20.6-28.6 21.5-8.3.5-13.7-.9-17.6-4.6-6-5.6-2.2-16 7.8-21.3 4-2.2 24.8-8.5 66.3-20.1 4.2-1.2 3.1-2.1-4.9-3.7-11.2-2.4-13-3.1-13-5.1 0-5.2 11-8 31.4-8h16.1l-2.6-2.6c-4.4-4.3-11.8-5.5-34.4-5.3-19.4.2-20 .2-20.3-1.8-.4-3 4.2-4.3 14.9-4.3 4.9 0 8.9-.4 8.9-.8 0-.5-4.4-1.7-9.7-2.6-11.2-2-18.1-4.7-21.4-8.2l-2.4-2.5 2.2-3.9 2.3-3.8-3.3.8c-6.2 1.7-24.7 1.7-24.7.1 0-1.5 8.2-5 13.3-5.7 2.9-.4 4.7-1.2 4.7-2 0-1-3.2-1.4-14.2-1.6-12.4-.3-14.3-.5-14.6-2-.4-1.9 3.2-3.2 13.2-4.7 7.5-1.1 12.7-4.1 7.1-4.1-3 0-19.9 2.6-24.5 3.7-2.4.6-2.3.5.8-3.3 3.7-4.4 3.7-4.7 1.6-6.8s-5.5-2-14.9.5c-10.6 2.7-13.8 2.1-6.4-1.3 6.8-3.1 7.9-4.5 4.3-5.4-7.3-1.9-29.8 2.2-40 7.1-2.8 1.4-5.4 2.5-5.7 2.5-.4 0-1.3-1.6-2.1-3.5-.9-2.1-2.2-3.5-3.2-3.5-2.6 0-9.2 7.5-12.2 13.9-2 4-3.4 5.7-5 5.9-1.6.3-2.2-.2-2.2-1.6 0-1-.3-2.1-.6-2.5-1-.9-13.4 10.5-18.9 17.3-4.8 6-8.5 7.8-8.5 4.2 0-2.9-.8-3.1-4.8-1.5-4.7 1.8-8.9.5-9.8-3-.6-2.7 3.8-12.7 5.7-12.7.6 0 5-3.8 9.8-8.4 8.5-8.2 15.1-12.6 18.9-12.6 2.7 0 9.5-5.6 11-9.1 1.4-3.5 1.6-3.5 4-.9l1.9 2.1 3-2.5c4.9-4.1 7.9-4.8 26.3-5.6 9.6-.5 24.9-1.8 34-2.9 21.6-2.6 42.3-3.6 47.5-2.2 2.2.5 6.3 1.6 9 2.3 6.4 1.5 30.4 13.7 41.5 20.9 4.7 3.1 10.8 6.9 13.5 8.4 7.4 4.2 17.3 11.1 33.4 23.4 8 6 16.7 12.2 19.5 13.8 5 2.7 5.5 2.7 20.6 2.7 16.8 0 26-1.2 38.5-5.1 12.3-3.9 20.8-8.6 25.2-13.9 2.1-2.5 9.7-9.3 16.9-15 28.5-22.5 45-49.6 61.8-101.5 9.1-28.3 13.6-47.8 13.6-59.6 0-6.2-.3-7.6-2.5-10.1-4.2-5-6.9-5.5-23.8-4.9-8.4.2-20.3 1.3-26.5 2.2-12.3 1.9-15.6 1.6-17.2-1.6-1.7-3-1.3-15.9.5-23.1 2.1-8.1 10.5-23.9 20.8-39.2 2.5-3.8 4.4-7.3 4.1-7.8-.3-.4-1.6-.8-2.9-.8-1.7 0-4.7 2.2-9.7 7.3-11.4 11.5-23.6 19.6-48 31.8-28.4 14.3-39.3 17.2-46.4 12.8-3.9-2.4-8.4-9.4-8.4-13.1 0-1.3 1.7-6.5 3.9-11.4 7.6-17.7 13.3-35 16.7-51.4 3-14.6 3.4-18.3 3.4-31.7 0-16.1-1-26.2-3.9-37.4-3-11.9-4.3-11.5-9 3.3-3.4 10.4-6.1 14.4-6.1 9 0-1.7-.4-3.4-1-3.7-.5-.3-1-1.7-1-3 0-4.4-2.8-1.6-4.5 4.3-4.5 16.2-15.2 40.5-23 52.2-2.6 3.9-5 7-5.4 7-1.9 0-9 7.3-9.6 9.9-.3 1.6-1.6 3.8-2.8 4.9-2.9 2.7-10.5 6.2-13.8 6.2-4.6 0-11.7-3.1-16.2-7-8.4-7.4-11.2-18.3-11-43.5.1-14.3.5-18.8 2.6-28.5 4-17.8 9.3-36.8 12.6-44.7 1.7-4.3 2.6-7.5 2-7.9-.5-.3-4.2-.8-8.2-1.1-8.7-.7-11.3.4-20.2 8.3-3.3 3-6.7 5.4-7.6 5.4s-3.6 1.6-6.1 3.4c-6.3 4.8-13.3 18.4-14.2 27.6-.9 8.1-2.5 14.9-7.8 31.9-5.1 16.1-6.4 17.1-16.9 13-3.7-1.5-5.9-5.9-5.9-12.1 0-7.1 2.6-22.6 4.9-29.6 1-3.2 2.2-7.3 2.6-9.2.3-1.9 2.2-8.4 4.2-14.3 4.2-12.8 3.9-13.6-3.8-11.9-6.4 1.5-21.2 8.7-25.3 12.3-1.7 1.5-4.7 3.5-6.7 4.5-9.7 5-12.1 6.7-15.3 11-4.5 5.8-12.1 21-17.6 34.8l-4.3 10.8-4-.5c-9.6-1.3-12.1-10.8-9.4-35.2.9-7.7 1.9-15.5 2.3-17.3.8-3.9-.5-4.1-3.3-.4-1.2 1.6-3.8 3.3-6.1 4-5.2 1.6-12.6 7.2-18.9 14.4-5.6 6.5-6.7 9.6-10.8 31.3-2.7 14.4-4.9 23-6.4 25.3-.7 1.2-1.3 1.1-3.7-.1-4.2-2.2-6.9-5.5-10.1-12.2-2.5-5.4-2.8-7.3-3.1-18.3-.2-8 .2-15.8 1.2-22.4 1.9-11.7 1.2-13.7-3.1-9.6-1.6 1.4-4.7 3.5-7 4.7-10.3 5.1-22.7 19.5-27.8 32-3.5 8.5-4.6 21.7-4.3 50.6.3 27.4-.2 32.1-4.8 50.5-4.1 16.7-7.8 26.5-10 26.5-2.4 0-5.5-4.7-10-15.6-2-4.9-4-8.6-4.4-8.2s-1.7 4.1-2.9 8.1-2.6 8.5-3.2 10l-1 2.7-3.2-5.5-3.2-5.5-.6 7.5c-2.5 28.2-8 50-17.7 69.1l-4.7 9.4-12.4 6.5c-9.9 5.2-13.7 7.9-19.3 13.5-8.4 8.4-13.5 15.1-18.5 24.2-3.4 6.2-3.8 7.5-3.8 14.3 0 6.4.6 8.9 3.8 17 2.2 5.2 5.4 12 7.2 15 4.4 7.3 6.9 16.1 6.1 21.7-1.1 8.5-4.1 12.4-16.6 21.6-8.2 6-10 13.7-5.4 22.8 1.4 2.8 2.8 7.3 3.1 10 .7 5.7.6 5.7 8.8.4 3.1-1.9 6.8-3.5 8.4-3.5 3.6 0 17 6.7 19.4 9.7 1 1.3 2.4 2.3 3.2 2.3.7 0 1.9 1.5 2.6 3.2 3.5 8.4 13.9 14.8 26.4 16.2 8.8 1 12 2.3 15.5 6.2 4.4 5.1 4 6-3.4 6.8-6.5.6-14.5 2.8-27.2 7.2-12.2 4.3-11.3 5.3 1 1.3 13.4-4.4 19.6-5.4 43.4-7 18.3-1.2 20.2-.9 20.2 3.3 0 3.3 2.6 8.2 7.3 13.7 6.7 7.9 10.9 20 8.2 23.7-1.2 1.8-3.7 2-33.2 2.6-41.4.9-73.8 2.5-90.4 4.4-16.1 1.8-36.8 5.8-46.4 8.9-3.8 1.3-7.2 2.2-7.4 2-.9-.9.1-27.2 1.5-37.2 1.6-12.7 5.3-25.6 8.6-29.9 1.2-1.6 4-4.9 6.2-7.3 3.7-3.9 3.8-4.2 1.6-3.6-6.2 1.8-17.9 13.6-22 22.1-2.8 5.7-6.8 22-8 32.3-1.3 11.6-1.3 32.1 0 32.1.6 0 6.5-1.6 13.1-3.5 25-7.3 45.2-9.4 90.8-9.8l31.3-.2 3.4 3.9c4.2 4.8 7.6 12 10 20.6 2.4 8.9 2.4 26.4 0 34.4-3.2 10.7-11.4 25.6-24.6 44.6-1.7 2.5-4 5.8-5 7.5-1.1 1.6-4.2 5.9-7 9.5-2.7 3.6-6.2 8.4-7.7 10.8s-9 13.2-16.7 24c-7.6 10.8-15.6 23.3-17.8 27.7-9.6 18.9-14.8 36.7-17.4 58.7-3.5 30.7.2 51.8 13.8 78 3.2 6.2 6.1 9.7 15.2 18.5 9 8.7 12.9 11.7 20.1 15.4 5 2.6 10.6 5 12.5 5.4 8.4 1.8 12.1 5 25.5 22.1 12 15.3 19.8 22.9 25.8 25 4 1.5 5.3 2.5 5.5 4.2.3 2.3.3 2.3-3.5.7-2.1-.9-6-3.1-8.8-4.9-2.7-1.8-10.2-6.4-16.5-10.1-24-14.2-53.5-35.4-71.6-51.5-4.3-3.8-11.5-10.1-15.9-13.9-21.4-18.5-61.6-63.2-74.9-83.6-2.2-3.3-5.6-8-7.6-10.5-5.2-6.4-26.4-40.6-32.8-53-20.7-39.7-35.5-76-43.8-107-1.4-5.2-3.9-13.8-5.5-19s-2.9-10.5-2.9-11.8-1.1-6.7-2.4-12c-3.3-13.1-7.4-39.2-9.1-58.7-.8-8.8-1.9-21.9-2.6-29-2.2-24.5 1.1-80.2 6.7-113.5 2.8-16.9 10.9-53.4 13-59 .7-1.9 2.3-7.3 3.4-12 2.6-10.4 17.2-50.7 23.4-64.6 4.9-11 23.5-47.8 28.3-55.9 6.5-11.1 32.4-49.5 38.3-57 20.3-25.6 36.2-43.4 55.1-61.5 23.3-22.3 30.8-29 43.2-38.4 4.9-3.7 11.2-8.5 14-10.8 8.1-6.4 43.7-29.7 58.6-38.2 15.5-9 33.8-18.2 50.2-25.4 15.7-7 39.5-16.2 41.7-16.2.9 0 4.9-1.3 8.7-2.9 6.5-2.7 12.9-4.8 26.5-8.7 3-.8 6.9-1.9 8.5-2.4 1.7-.5 8.3-2.1 14.9-3.5 6.5-1.4 12.2-2.8 12.7-3.1.6-.3 3.7-1 6.9-1.5 6.8-1 12.3-1.9 29.5-4.8 41.2-6.9 86.1-8.4 131.5-4.5zm891.9 406.1c3.2 12.1 4.4 23.3 6.1 58.3 1.6 32.8 2.7 36.1 12.9 38 2.9.6 16.8 1 30.7 1 24.8 0 25.3 0 25.9-2.1.8-2.3-.1-9.7-1.4-11.7-.7-1.1-2.2-1.1-8.7.2-8.8 1.6-14 1-18.3-2.2-4.2-3.1-5.6-6.9-5.5-15.2.2-20.8 11.5-35.7 23.9-31.5 4.9 1.8 7.7 4.5 11.4 11.5 5.5 10.3 7 18.8 7.8 43.1.5 17 .3 22.2-.7 23.4-1.1 1.3-5.9 1.5-36.4 1.5-33.5 0-35.3-.1-38.4-2-7.2-4.4-10.4-17.5-12.2-50.5-1.5-25.8-3-35.4-6.4-39.8-4.2-5.5-3.6-10.7 2-19 2.5-3.7 5-6.7 5.5-6.7.4 0 1.3 1.7 1.8 3.7zm74.7-.4c4.3 2.9 4.9 3.7 4.7 6.5-.1 3.3-3.8 9.8-5.9 10.6-1.4.5-7.4-2.5-12.1-6l-3.2-2.4 1.7-3.8c4.5-9.7 6.7-10.4 14.8-4.9zm-2120.8 33.4c.1 19.5.6 29.3 1.3 29.3 1.1 0 12.6-9.4 26.1-21.2 8.5-7.4 13.4-9.4 20.2-8.2l4.1.7-6 5.4c-3.3 3-12.4 10.8-20.2 17.4-7.9 6.6-14.3 12.8-14.3 13.6 0 1.9 3.2 5 25.3 24.3 9.1 8 16.6 14.9 16.6 15.4.1.4-3.2.7-7.2.5-8.5-.5-6.7.7-28.1-18.4-8.6-7.7-16.1-14.2-16.6-14.3-.6-.2-1 5.8-1 15.7v16.1l-2.5 1.2c-1.9.8-3.1.8-5 0l-2.5-1.2v-52.3c0-28.8.3-52.7.7-53.1s2.5-.6 4.8-.4l4 .3zm456-28.5c.9.9 1.2 14 1.2 53 0 51.2 0 51.7-2.1 52.8-1.1.6-3.3.8-5 .5-2.9-.7-3.5-1.8-4.1-7.8l-.3-2.9-4 3.2c-10.5 8.5-24.1 11.8-36.3 8.6-8.2-2.1-13.8-5.4-19.7-11.7-18.8-20.1-13.1-52.1 11.6-65.1 6.1-3.2 6.9-3.3 17.4-3.3 9.7 0 11.6.3 16.5 2.6 3 1.4 7.6 4.2 10.3 6.2l4.7 3.7v-18.6c0-10.9.4-19.3 1-20.5 1.2-2.2 6.8-2.7 8.8-.7zm1643 4.5c2.8 1.9 5.2 4 5.2 4.6 0 1.9-4 9.4-5.9 11.1-1.8 1.6-2.2 1.6-6.3-.5-6.6-3.3-9.8-5.9-9.8-7.7 0-1 1.6-4.1 3.6-7 4.1-6.1 4.6-6.1 13.2-.5zm-1984 24.4c3.5 1.2 8.9 4.1 12.2 6.5l5.9 4.3.3-4.7c.2-3.8.8-4.9 3-6.1 2.1-1.2 3.1-1.3 5.2-.3l2.6 1.2v37.4c0 36.1-.1 37.6-1.9 38.6-4.7 2.4-9.1-.7-9.1-6.5 0-1.9-.3-3.5-.6-3.5s-2.5 1.6-4.8 3.5-6.9 4.7-10.2 6.2c-5.2 2.4-7.1 2.8-15.4 2.7-12.3 0-18.8-2.5-27-10.1-27.5-25.4-10.5-71.1 26.6-71.3 4.6 0 9.2.7 13.2 2.1zm83.3 1.8c3.5 2.1 6.6 4.6 6.7 5.6.4 1.9-3.5 6.5-5.5 6.5-.8 0-2.9-1.1-4.8-2.5-6.9-5.3-14.4-5.4-19.5-.3-6.5 6.5-2.2 14.3 11.8 21.6 13.4 7 19.2 14.5 19.2 24.7 0 3.5-.7 7-1.9 9.4-6 11.7-22.6 16.4-35.4 10-8.8-4.4-10.8-8.6-6.2-12.9 2.4-2.3 2.4-2.3 5.1-.4 7.2 5.1 7.9 5.4 14.3 5.4 5.8 0 6.6-.3 9.6-3.3 4-4 5.3-9.3 3.3-13.4-.9-1.8-4.6-4.8-10.8-8.6-18.2-11-22.6-16.4-21.8-26.9.3-4.5 1.1-6.7 3.5-10 4.5-6.3 10-8.8 18.8-8.8 6.5 0 7.7.3 13.6 3.9zm54.3-1.9c2.3 1.1 5.7 3.3 7.6 4.9l3.5 3-2.1 2.8c-2.9 3.9-4.7 3.9-10 .5-5.5-3.7-11.3-4.9-15-3-6.7 3.2-8.8 11.6-4.2 16.5 1.2 1.3 6.4 4.9 11.4 7.8 16.1 9.5 19.8 14.2 19.8 25-.1 7.1-1.8 10.8-7.3 15.8-9.7 8.7-25.2 8.5-36.5-.6-2.4-1.9-2.8-2.8-2.2-5 .3-1.5 1.7-3.4 3.1-4.3 2.4-1.5 2.6-1.5 6.3 1.5 8.7 6.8 21.4 5.6 24.8-2.4 3.4-8.3 1.3-12-11.4-19.6-4.8-2.9-10.2-6.4-12-7.7-8.7-6.5-11.5-19.6-6-27.9 5.6-8.5 20.5-12.1 30.2-7.3zm79.7 0c15.2 4.7 27.7 21.2 26.7 35.2l-.3 4.3-34.5.5-34.5.5.1 4.6c.2 5.3 3.9 13.1 8.1 17.1 8.1 7.7 23.8 9.8 34.6 4.5 3.6-1.8 7.5-4.9 10.5-8.3 5.1-5.8 7.5-6.6 11.2-3.6 3 2.5 2.2 4.8-4.5 12.1-12.3 13.2-33.1 16.9-50.2 8.9-10.4-4.8-19.1-17.5-21.3-30.9-3.3-19.4 8.9-39.7 27.3-45.4 6.5-2.1 19.4-1.8 26.8.5zm1505.7 4.7c13 9.8 19.6 24.5 20.9 46.6.6 10.5.7 10.9 3.2 11.9 3.8 1.4 17 .5 20.9-1.6 4.4-2.3 5.5-5.6 4.7-14.1-.6-6.2-.5-7.2 1.3-8.8 2-1.8 2.1-1.8 3.1.1.6 1.1 1.9 4.4 3 7.3 7 18.6 22.6 21.7 49 9.8 3.5-1.6 12.7-7.2 20.5-12.4s17.2-10.6 21-12c14.6-5.5 28.7-4.1 37.1 3.6 6.6 6.1 7.6 10.2 7.3 29.5l-.3 15.9-82.5.4c-107.4.5-134.7.3-138.7-1-4.1-1.3-8-6-8.9-10.5-.7-3.8.9-10.9 2.7-12 .6-.3 2.6.9 4.5 2.7l3.5 3.4 19.7.3c25.2.4 24.1 1 22-12-2.6-15.9-7.9-24.8-18-30.3-2.9-1.6-5.6-3.3-6-3.9-.7-1-.3-7.9.8-15.4.6-3.7 1-3.6 9.2 2.5zm-884.5 34c-.3 1-1.6 3.2-2.9 4.9-2.5 3.4-8.1 5.2-11 3.6-1.3-.7-1-1.3 1.8-3.7 3-2.5 10.2-6.4 12-6.5.4 0 .5.8.1 1.7zm5.2 30.7c6.4 2.7 11.3 6.5 12.3 9.6.7 1.8.7 2.8.2 2.5-.6-.4-1-.1-1 .5 0 .7-1.5 1.1-3.7.9-5.6-.3-6.3-.1-6.3 2 0 2.9-4.9 6.3-8 5.6-5.7-1.4-6.4-6.2-1.2-8.9l2.6-1.4-3.2-.7c-3.9-.8-6.7 0-11 3.2-1.8 1.4-3.9 2.3-4.5 2-.7-.3-2.4.1-3.8.9-3.2 1.8-6.8 1.8-7.5 0-1.7-4.5 10-15.3 19.1-17.7 3.8-1 11.8-.2 16 1.5zm15.3 16.1c-.3.3-.9-.2-1.2-1.2-.6-1.4-.5-1.5.5-.6.7.7 1 1.5.7 1.8zm-6.8 2.9c0 .3-.4.8-1 1.1-.5.3-1 .1-1-.4 0-.6.5-1.1 1-1.1.6 0 1 .2 1 .4zm1149.1 12.7c.6 1.3.9 4.4.6 7.2-.6 6.7-4 9.8-13.1 12.1-7.8 1.9-31.1 10.8-34.3 13.1-1.3.9-2.3 2.2-2.3 3 0 .7 5.7 5.7 12.7 11.2 20.8 16.1 37.3 33.7 44.5 47.6 2.2 4.5 2.6 14.8.7 19l-1.2 2.7h-75.7l-1.1 2.7c-.6 1.6-3 6.6-5.2 11.3-9.5 20-30.7 32.4-52.5 30.6-8.8-.7-33.6-8.5-33.9-10.7-.7-3.7 1.1-4.1 9.3-2.4 4.3.9 12.2 1.7 17.4 1.7 10.6.1 18.1-2 28.7-8.3 8.8-5.2 20.4-17.4 24.4-25.5 6-12.1 4.3-21.5-6.2-35.3-3.9-5.1-4.1-5.7-3.6-10.4.7-5.9 3-9.7 5.7-9.7 2.4 0 9.5 8.6 12.3 15 1.2 2.6 2.3 8 2.7 12.8.4 4.6 1.1 8.7 1.7 9.3 1 1 63.1 1.4 64.1.4 3.7-3.6-27.8-30.5-37.7-32-7-1.2-8-1.5-12.3-4.8-9.5-7.2-10.8-15.8-4.3-28.9 4.2-8.4 7.3-11.9 13.4-15.6 3.9-2.2 41.4-18 43.3-18.1.4-.1 1.2.9 1.9 2zm-1849.6 16.4c3.6 3.5 3.5 9.6-.1 12.4-3.3 2.6-8.4 2.7-11.4.3-1.7-1.3-2.3-3-2.4-6.1-.1-3.5.4-4.7 2.7-6.7 3.7-3.1 8.1-3.1 11.2.1zm-220.7.7c.9.9 1.2 8.7 1.2 28.9 0 18.1.4 28 1 28.4 1 .6 12.5-8.5 24.3-19.3 6.8-6.3 12.6-9.2 18.2-9.2 8.4 0 7.8.9-12.8 18.5-10.8 9.2-19.8 17.4-20.2 18.3-.4 1 1.2 3.1 4.7 6.2 2.9 2.6 12.3 10.9 20.8 18.5s15.6 14.4 15.8 15.2c.3 1-1.1 1.3-5.5 1.3-7.2 0-9.6-1.4-21.7-12.5-5-4.6-12.5-11.2-16.6-14.8l-7.5-6.5-.5 16.6-.5 16.7-4 .3c-2.9.3-4.3-.1-5.2-1.4-1-1.4-1.3-12.6-1.3-52.3 0-45.5.2-50.6 1.7-52.3 1.8-2 6.3-2.4 8.1-.6zm117.2 30.4c3.3 1.5 8.2 4.2 10.8 6.1 2.6 1.8 5 3.3 5.4 3.3.5 0 .8-1.9.8-4.3s.5-4.8 1.2-5.5c1.6-1.6 6.3-1.5 7.7.2.8.9 1.1 12 .9 38.7l-.3 37.4h-9l-.5-5.9-.5-5.8-1.9 2.1c-3.2 3.5-11.7 8.7-17.5 10.6-8.5 2.8-21 1.8-29.4-2.3-11.8-5.8-20.6-17.9-22.8-31.2-3.2-19.8 11-41 30.8-46 6.6-1.6 17.5-.5 24.3 2.6zm84.2-2c2.8 1.7-2.1 9.4-6 9.4-4.1 0-12.7 3.3-15.3 5.9-1.5 1.5-3.2 4.5-3.9 6.7-.6 2.1-1.5 15.3-2 29.3s-1.4 25.9-1.8 26.3c-1.4 1.4-7 1.3-8.7-.2-1.4-1.2-1.6-5.6-1.4-38.2.2-34.4.3-36.9 2-37.8 2.4-1.4 6.3-1.2 7.7.2.7.7 1.2 2.7 1.2 4.5s.3 3.3.6 3.3 2.9-2 5.6-4.5c2.8-2.5 6.4-4.9 8.2-5.5 2.9-.9 12-.5 13.8.6zm90.2 2.1c3 1.7 6.5 4.7 8.6 7.5l3.5 4.8 5.5-5.4c7.1-7 12.8-9.8 21-10.4 8.6-.6 15.4 2.2 21 8.6 6.5 7.4 7.2 11.1 7.8 40.5.2 14.2.1 26.9-.2 28.3-.6 2.3-1.1 2.5-5.4 2.2l-4.7-.3-.5-28c-.6-31.4-1-33.6-8-38.3-3-2.1-4.5-2.3-10.6-2-9.3.4-15.7 4.1-19.5 11.2-3.5 6.3-4 10.7-4.8 36.1l-.6 21-4.1.3c-2.5.2-4.5-.2-5.2-1-.7-.9-1.2-10.8-1.4-28.3-.3-30.3-.8-32.7-7.7-37.2-6.8-4.6-19.7-2.4-26.5 4.3-6.4 6.4-7 9.5-7.4 35.4-.2 12.9-.8 24.3-1.3 25.2-1 1.9-8.3 2.6-9.3 1-.3-.5-.6-17.6-.7-38.1-.1-40.4-.3-39.1 5.3-39.1 3.6 0 5.8 2.5 5.8 6.6v3.5l5.3-4c4.7-3.6 10-6.2 15.2-7.5 4.5-1.1 13.8.4 18.9 3.1zm-72.5-.3c.8.9 1.1 12 .9 38.7l-.3 37.4h-9l-.3-37.5c-.1-20.6 0-38.1.3-38.7.6-1.7 7-1.6 8.4.1zm1678.6 16c3.3 6.8 4.5 15.9 4.5 34.7 0 11.3-.3 15.9-1.2 16.7-.8.7-15.9 1.2-41.8 1.5-34.5.3-41.4.7-46.5 2.1-11.6 3.4-15.5 6.4-15.5 12.1 0 1.4 2.1 10.5 4.6 20.3 4.8 18.5 5.2 24.5 2.3 31.8-1.1 2.8-1.4 2.2-6.1-11.6-14.6-43-13.4-58.1 5.1-66.3 6-2.7 18.9-5.7 24.5-5.7 5.1 0 5.4-1.7.9-6.1-5.6-5.7-9.2-6-17.8-1.8-6.4 3.2-6.7 3.3-8 1.5-1.2-1.6-1.2-2.4.1-5.4 4.6-11.2 14.7-16.8 24.7-13.8 6.3 1.9 12.7 7.2 19.3 16.1 2.9 4 6 7.5 6.9 7.9.9.3 9.9.6 20 .6 21.7 0 21.4.1 19.7-9.2-.8-4.1-2.4-8-4.9-11.7-3.2-4.8-3.8-6.4-3.7-10.7.2-5.2 2.4-10.9 4.6-11.7 2-.7 5.6 3.1 8.3 8.7zm-4.5 66.8c7.6 4.7 8 5.7 4.4 11.4-4 6.5-5.6 7.3-9.8 5-1.9-1-4.9-3-6.6-4.5l-3.2-2.6 1.6-4c1.8-4.3 5.3-8.5 7.1-8.5.6 0 3.5 1.5 6.5 3.2zm-23.8 8.2c2.9 1.3 6.2 3 7.3 3.9 1.9 1.4 1.9 1.5 0 5.8-1 2.4-2.5 5.2-3.3 6.1-3.2 3.9-13 1.1-16.8-4.6-1.5-2.5-1.5-2.8 1-7 2.1-3.7 4.7-6.4 6.3-6.6.1 0 2.6 1.1 5.5 2.4zm86.2 67.2 4.6.7-.6 5.6c-1.2 10.2-20 77.2-24.3 86.6-1.7 3.7-4.1 11.8-4.1 14 0 1.2-1.6 5.6-3.5 9.8-1.9 4.1-4.9 11.7-6.6 16.9-1.7 5.1-4.4 11.8-5.9 14.8s-3.5 8-4.5 11-4.6 11.4-8.1 18.5c-3.4 7.2-7.2 15.4-8.3 18.2-2.3 5.8-19.1 38.7-23 44.8-1.3 2.2-4.1 7.1-6.1 11-2 3.8-4.8 8.7-6.3 10.9-1.5 2.1-2.9 5.3-3.3 7.2-.3 1.9-1.6 4-3 4.8-1.3.9-2.8 3.3-3.3 5.3-1.2 4.4-7.3 14-13.1 20.5-3.8 4.3-9.5 12.9-13.9 20.8-1.1 1.9-3.8 5.7-6 8.5-2.2 2.7-6.8 9-10.2 14-8.2 11.9-29.3 38.8-32.7 41.7-1.5 1.3-6.7 7-11.6 12.8-18.4 21.6-32 35.7-75.6 78.3-8.8 8.6-18 16.9-20.3 18.3-2.3 1.5-7.8 5.7-12.2 9.3-4.4 3.7-9.3 7.5-11 8.6-1.6 1-3.5 2.6-4.2 3.5-.7 1-4.9 4.5-9.5 7.9s-10.3 7.7-12.8 9.6c-2.5 2-6.5 5.1-9 7-2.5 2-7.1 5.2-10.4 7.3-3.2 2-11.5 7.7-18.5 12.5-6.9 4.9-14.6 10.1-17 11.5-22.5 13.6-31.3 18.8-35.6 20.9-2.7 1.4-8.5 5-12.7 7.9-4.3 3-8.5 5.4-9.4 5.4s-3.3 1-5.3 2.2c-7.9 4.9-7.2 4.6-35.1 17.9-11.3 5.3-22.4 10.2-24.6 10.8-2.3.6-4.8 1.8-5.5 2.7s-4 2.9-7.4 4.4c-8.5 4-72.7 28-74.8 28-.9 0-3.4.6-5.4 1.4-11.3 4.2-45.2 14.1-50.8 15-1.6.2-7.5 1.5-13 2.9-23.5 5.8-36.8 8.8-43.7 9.7-4 .5-9.1 1.5-11.3 2.3s-7.4 1.7-11.5 2.1-12.1 1.6-17.7 2.7c-31.1 6-107.6 10.7-155.8 9.6-27.8-.7-79.4-4.1-85.4-5.7-2-.5-9.4-1.6-16.4-2.5-7.1-.9-15-2-17.7-2.5s-8.5-1.4-13.1-1.9c-4.5-.6-11.2-2-14.8-3-3.6-1.1-12.9-3.2-20.6-4.7-18.7-3.5-53.7-12.2-71-17.7-7.7-2.4-17.9-5.4-22.7-6.5s-12.9-3.9-18-6.1-10.6-4.3-12.3-4.7c-6.5-1.5-35.1-12.7-37.1-14.5-1.1-1-2.5-1.9-3.1-1.9-.5 0-6.7-2.7-13.6-6-7-3.3-13.3-6-14.1-6s-7-2.8-13.8-6.3c-6.7-3.4-13.6-6.8-15.3-7.5-1.6-.7-6.9-3.4-11.6-6s-10.6-5.8-12.9-7.1c-6.4-3.4-20.6-12.9-22-14.6-2.5-3 3.7-1.5 16.4 4 24.5 10.5 47.7 16.6 58.2 15.1 2.7-.3 5.9 0 8.6 1 7.6 2.6 21.7 9.7 21.2 10.5-.3.5.7.9 2.1.9s6.7 1.6 11.8 3.6c35.5 13.8 75.3 27 98.7 32.8 5.8 1.4 13.9 3.4 18 4.5 7 1.8 23.5 5.5 36 8.1 3 .6 10.5 2.2 16.5 3.5 6.1 1.3 15.3 2.8 20.5 3.4 5.2.7 12.2 1.8 15.6 2.6 3.3.8 9.6 1.6 14 2 4.3.3 12.6 1.2 18.4 2 17.1 2.4 71 5.4 97.5 5.5 27.4.1 80-3 109-6.5 42.2-5 96.2-15.8 138.6-27.9 38.8-11 86.9-28.3 117.9-42.3 51.2-23.3 69-32.7 111.9-59 72.9-44.8 144-105 200.4-169.8 22-25.2 62.2-77.9 76.5-100.2 4.9-7.6 16.7-27.5 26.4-44.3 24.4-42.6 40.5-76.7 57.4-121.3 14.3-37.8 18.7-51.8 30.3-95.4 5.6-21.6 6.9-25.3 8.6-25.6 3.4-.7 14-.7 18.9-.1zm-1799.9 4.4c2.5 2.3 4 7.1 5 16.5.4 3.3 1.3 6.7 2 7.5 1.1 1.4 1.6 3.9 3.1 18.5.3 2.7 1.2 6 1.9 7.2.8 1.2 1.4 4.2 1.3 6.7 0 2.9.5 5.3 1.5 6.4.8.9 1.8 3.2 2.2 4.9.6 2.9.4 3.3-1.3 3.3-1.6 0-2.4-1.2-3.6-5.3-.8-2.8-3.6-10.2-6.2-16.2-2.6-6.1-6.8-17.2-9.4-24.8s-5.6-15.1-6.7-16.6-2.2-4.6-2.5-7l-.4-4.3 5.4.5c3.6.4 6.2 1.3 7.7 2.7zm596.3 416.4c10.3 5.1 26.1 12.6 35.2 16.6 27.8 12.2 34.8 15.9 40.5 21.5 18 17.6 15.1 44.3-6 53.6-7 3.2-19.2 3.7-30.2 1.4-9.8-2.1-12.6-1.1-7 2.4 5.1 3.1 10.6 9.6 13.6 16 2.5 5.4 2.6 6.1 2.3 21.6-.1 8.8 0 18.4.3 21.3 1.7 14.7 16.4 15.7 22.6 1.4 1.4-3.2 2.4-4.2 4.2-4.2 2.9 0 4.7 1.8 4.7 4.4-.1 1.2-2.2 5-4.9 8.6-6.7 9.1-12.9 12.4-23.1 12.4-6.4 0-8.6-.5-14.8-3.4-16.5-7.6-19.1-17.2-12.7-45.1 4.4-18.8 2.5-28.8-7.2-36.9-4.3-3.6-22.9-13-25.6-13-1.3 0-2.9 2.5-5.8 8.7-2.2 4.9-7.9 16.8-12.6 26.5-8.4 17.6-8.5 17.8-6.8 20.4 1.1 1.7 5.4 4.4 12.2 7.5 8.9 4.2 10.4 5.2 10.1 7.1-.2 1.1-1.1 2.6-2 3.1-2.2 1.4-14.6-3.9-49.3-21.3-24-12-27-13.8-27-15.9 0-4.9 2.5-4.7 13.8 1 10.5 5.1 10.8 5.2 13.9 3.7 2.8-1.3 6.1-7.2 29.6-52.4 14.7-28.5 26.6-52.5 26.9-54.6.7-4.8-.2-5.8-9.4-10.9-4.1-2.3-7.7-4.8-8-5.5-.4-1.2 2.2-5.4 3.4-5.4.2 0 8.8 4.2 19.1 9.4zm513.8 43.1c2 3 .8 5-3.4 5.8-4.7 1-14.6 8.4-19.3 14.4-2.5 3.2-10.7 15.4-18.4 27.2-10.9 16.9-13.6 21.7-12.8 23 3.4 5.6 70.9 52.7 79.6 55.5 6.1 2 12.9 2 19.7 0 5.1-1.5 5.5-1.5 6.7.2 1.6 2.2 1.7 3.9.1 5.2-2.8 2.3-73.2 22.2-78.6 22.2-2.3 0-4.4-3.3-3.5-5.6.2-.6 4.4-2.1 9.3-3.3 11.5-3 15.2-5.2 14.8-8.8-.2-2.2-3.3-4.8-16.5-14.2-8.9-6.4-22.4-16.5-29.9-22.5-7.6-6.1-14.5-11-15.4-11-.9-.1-5.4 4.6-10.1 10.2-13.4 16.6-13.1 16-12.4 21.2.4 2.5 1 7.6 1.5 11.5 1.1 10 2.9 18.7 4.5 21.1 1.9 3 5.5 3.4 16.9 1.8 10.7-1.5 12.6-1.1 12.6 3.1 0 2-.9 2.4-7.7 3.8-15.4 3.3-63.6 9.7-72.5 9.7-4.6 0-4.8-.1-4.8-2.9 0-1.7.4-3.2 1-3.6.5-.3 4.9-.9 9.7-1.4 9.7-.9 14.9-3 16.3-6.5.6-1.6-1.5-21-6.4-60.1l-7.3-57.9-2.8-2.4c-2.7-2.3-3.2-2.3-12.3-1.7-7.5.6-9.6.5-10.3-.6-2.4-3.7.6-6.9 6.5-6.9 5.1 0 21.2-2.1 44.5-5.7 17-2.7 17.3-2.7 18.7-.8 3.2 4.3 1.4 5.6-10 7.3-8.7 1.4-10.9 3.3-10.8 9.6.2 9.2 8.2 59.6 9.9 62.9.6 1.1 15.4-17.7 29.3-37.3 18.6-26.3 23-33.1 23-35.7 0-6.3-4.8-8.8-13.7-7.2-5 1-5.8.9-7-.7-1.6-2.2-1.7-4.1-.1-5 .6-.4 10.4-3.1 21.7-6s24-6.4 28.1-7.8c9.6-3.1 9.6-3.1 11.6-.1zm118.2 17.1c6.6 3.3 8.2 5.6 21.7 32.1 5.9 11.7 12 22.7 13.5 24.4 3.6 4.4 8.3 4.5 13.5.3 2.1-1.6 4.3-3.3 5-3.8 1.9-1.4 6.5.2 6.5 2.3 0 5.3-11.2 14.8-20.6 17.7-6.7 2-11.1 1.7-17-1-3.4-1.6-5.6-2.1-6.7-1.5-.8.5-3.6 3.8-6.1 7.3-12.2 17.1-30.7 26.6-51.9 26.6-12.9 0-20.6-6.4-20.7-17.1 0-13.2 17.8-31.4 50-51 5.1-3.1 7.6-5.3 7.8-6.8.5-3.3-5.1-14.5-8.4-16.8-4.1-2.9-6.6-3.5-14.6-3.4-5.7 0-8.4.6-13.4 3-7.1 3.3-16.4 11.4-16.4 14.2 0 1.1 1.7 2.9 3.9 4.3 7.3 4.6 9 9.9 4.9 15.1-2.8 3.6-7.6 5.5-13.9 5.5-4.4 0-5.5-.4-8-3.1-6.4-6.8-2.3-19.6 9.8-30.9 4.7-4.4 9.4-7.5 17.6-11.5 12.9-6.3 20.2-8.3 30.8-8.4 6.2-.1 8.4.4 12.7 2.5zm-470.4 49.4c4.3 1.1 10.5 3.4 13.9 5.2 7.8 4.1 18.5 14.2 22 20.6 12.1 22.3 3.9 51.4-17.9 62.8-8.3 4.4-15.2 5.8-27.9 5.8-17.2 0-29.9-4.8-41.1-15.5-12.7-12.3-17.1-27.8-12.6-45 6.9-26.4 34.8-41.3 63.6-33.9zm97.5 14.6c1.3 1.2 1.3 5.3-.3 32.1-1.5 28-1.5 31.3-.1 36 1.9 6.3 6.5 10.6 13.7 12.8 7 2 12.3 1.9 20.3-.6 5.5-1.7 7.8-3.1 12.1-7.4 7.8-7.8 8.6-11.5 8.2-36.6l-.3-20.1-3.1-2.8c-2-1.7-4.8-3-7.9-3.4-6.8-1.1-7.5-1.5-7.5-4.7 0-2.2.5-3 2.3-3.3 5.3-1.2 33.1-2.6 33.9-1.8.5.5 1.5 15.9 2.3 34.3 1.9 41.8 2.1 43.3 5 46.7 2.1 2.4 3.1 2.7 10.4 3 7 .4 8.1.7 8.7 2.4 1.2 3.9-1.2 4.6-19.9 5.9-13.6.9-18 .9-19.1 0-.8-.7-2-4.4-2.6-8.4-.7-4-1.4-7.5-1.6-7.9-.3-.4-3.4 1.6-7 4.3-12.2 9.2-22.1 12.9-34.5 12.9-12.2 0-25.2-5.5-30.8-13-5.4-7.4-6.2-15.8-3.6-40.5 1.7-16.5 1.9-26.9.5-29.5-.9-1.7-6.3-3.9-13.2-5.4-2.1-.5-2.8-1.2-2.8-2.9 0-4.4 1.3-4.7 18.9-4.1 11.9.5 17 1 18 2z"/><path d="m1666 441.4c-6.4 1.8-10.7 4.2-12.6 7.1-1.5 2.3-1.5 2.7 0 5s2.2 2.5 9.9 2.5c9.2 0 20.9-2.5 31.3-6.6l6.8-2.8-4.5-1.8c-10.5-4.5-22.2-5.8-30.9-3.4zm-331.7 131.5c-9.6 7.6-22.9 22.4-24.5 27.3l-1.6 4.6 8.6-4.2c14.7-7 18.5-9.2 24.9-14.1 5.5-4.1 12.3-11.2 12.3-12.9 0-1.6-6.9-4.6-10.7-4.6-3.3 0-5.1.8-9 3.9zm650.7-115.6c-5.1 1.4-7.9 5.2-6.1 8.5 1.8 3.4 18.2 9 31.3 10.8 4.5.6 4.7.5 5.4-2.1 1.6-6.6-3.8-14.5-11.4-16.4-6.7-1.7-14.6-2-19.2-.8zm-545 765.7c-1.3.8-1.2 1 .3 1 .9 0 1.7-.5 1.7-1 0-1.2-.1-1.2-2 0zm-6.5 1.9c-1.1.5-5.6 1.1-10 1.4-4.5.3-9.2 1.1-10.5 1.6-2 .8-1.3.9 3 .5 12.8-1.3 19.3-2.3 20.3-3.3 1.3-1.3.1-1.3-2.8-.2zm-43.7 11.1c-2.4 1.6-6.7 5.6-9.4 8.7-10.3 12.1-9.9 12.3 2.1.7 5-4.7 10.4-9.5 12-10.5 1.8-1.1 2.4-1.9 1.4-1.9-.8 0-3.6 1.3-6.1 3zm1386.9-148.5c-2.1 2-2.2 7.4-.3 10.1 1.2 1.5 2.5 1.9 7.2 1.7 6.9-.2 8-1.1 6.8-5.4-1.7-5.8-10.3-9.8-13.7-6.4zm-1694.7-10c-6.8 3.3-12.4 8.5-15.8 15-3.5 6.7-3.8 18.6-.5 25.6 3 6.6 8.6 12.4 15.1 15.6 7.6 3.7 19.2 3.9 26.4.4 22.9-11.1 23.2-44.6.5-56.3-3-1.5-6.5-2.3-12.2-2.5-7-.4-8.7-.1-13.5 2.2zm-311.7-.8c-5.7 2-13.8 9.4-17.1 15.7-3.5 6.8-3.8 18.6-.5 25.7 3 6.6 8.6 12.4 15.1 15.6 7.6 3.7 18.2 3.9 25.7.5 6.6-3 12.8-9.3 15.6-15.6 3.2-7.3 3.2-18.2 0-25.4-3-6.6-11.3-14.4-17.7-16.6-5.8-2-15.5-1.9-21.1.1zm215.3-.2c-2.1.7-5.5 2.7-7.5 4.3-4 3.2-10.3 12.9-9.9 15.2.3 1.3 4.3 1.5 28.1 1.8 31.6.3 30.9.4 26.7-7.5-3.2-6.1-10.2-12-16.3-13.8-6.3-1.9-15.9-1.9-21.1 0zm1675.9 38.6c-2.2.5-10.1 3.9-17.5 7.6l-13.5 6.8 10 .8c5.5.4 17.3.6 26.2.4 19.1-.6 23.6-1.9 24.1-7.3.2-2.4-.3-3.6-2.3-5.2-4.7-3.7-17.6-5.2-27-3.1zm-1840.2 107.9c-15 3.1-25.2 17-24.1 32.9.8 11.3 6.5 19.7 17.1 25.3 6.2 3.4 20.2 3.3 27.1-.1 9.9-4.9 15.4-13.3 16.4-24.7.9-11.8-3.9-22.5-12.9-28.6-6.4-4.3-16.2-6.3-23.6-4.8zm672.4 593.2c-2.2 1.7-22.7 44.4-22.7 47.3 0 1.9 1.6 3 10.8 7 20.1 8.8 33.4 10.7 42.9 6 7.8-3.9 13.8-14 14.9-25.2 1.6-15.3-5.6-22.8-32.1-33.3-8.2-3.3-11.3-3.7-13.8-1.8zm603.7 81.4c-28 17.7-36.5 30.9-28.1 43.5 3.3 5 8 7.1 14.8 6.6 15.5-1.3 30.1-16.5 31.5-33 .5-5.8.3-6.8-3.5-14.5-2.2-4.5-4.4-8.2-4.9-8.2-.4 0-4.8 2.5-9.8 5.6zm-476.6 12.7c-9.7 2.8-15.5 8.3-20.8 20-5.3 11.6-7.3 21.1-6.6 30 1.4 16.3 7.8 25.8 20.1 29.6 8 2.5 12.4 2.6 19.3.6 15.3-4.6 24.9-24.1 24-48.9-.5-12.6-2.6-19.1-8.1-24.4-6.7-6.4-18.8-9.4-27.9-6.9zm531.7-1587.4c-.3.5-.2 1.2.3 1.5s.9-.1.9-.9c0-1.7-.3-1.9-1.2-.6zm30.5 17.5c0 .2.8 1 1.8 1.7 1.5 1.3 1.6 1.2.3-.4s-2.1-2.1-2.1-1.3zm23.5 16.6c-1.6.6-1.4.8 1.2.7 1.8 0 3-.4 2.7-.9-.6-1-1.2-.9-3.9.2z"/></svg>