<svg viewBox="0 0 761.465 198.67900000000003" xmlns="http://www.w3.org/2000/svg" width="2500" height="652"><path d="M475.857 42.104c-32.457 0-55.502 24.289-55.502 57.233 0 32.205 22.545 57.224 55.502 57.224 32.692 0 53.762-25.264 53.762-57.466v-.257c0-31.702-22.546-56.734-53.762-56.734zM660.894 42.104c-32.46 0-55.495 24.289-55.495 57.233 0 32.205 22.54 57.224 55.495 57.224 32.694 0 53.758-25.264 53.758-57.466v-.257c0-31.702-22.556-56.734-53.758-56.734z" fill="none"/><path d="M83.477 91.656l42.624-50.04c21.547-25.765 30.618-37.155 32.349-39.14h-54.812l-.336.498c-1.977 2.72-9.17 12.145-26.754 35.422L46.091 78.672l-.013-.635V2.476H0v193.213h46.078v-84.143l.5.681 33.923 42.847c21.313 26.997 30.481 38.398 31.97 40.385l.166.23h58.657c-1.975-2.478-10.271-11.876-37.033-43.578zM182.56 2.475v193.214h46.078V2.475h-23.045zM359.435 157.061h-47.81c-.998 0-.998-.244-.998-1.235V2.476h-45.835v193.213H367.85v-38.627h-8.415zM661.87 0c-42.746 0-77.808 22.929-93.854 56.789C553.049 22.768 519.338 0 476.835 0c-58.954 0-103.29 43.591-103.29 99.337 0 55.737 44.09 99.342 101.57 99.342 42.586 0 76.89-23.148 92.38-57.747 15.686 34.382 50.582 57.747 92.653 57.747 58.46 0 101.317-43.605 101.317-100.584v-.234C761.465 42.359 719.849 0 661.869 0zM529.62 99.095c0 32.202-21.07 57.467-53.763 57.467-32.957 0-55.502-25.02-55.502-57.225 0-32.944 23.045-57.233 55.502-57.233 31.216 0 53.762 25.032 53.762 56.734zm185.032 0c0 32.202-21.064 57.467-53.758 57.467-32.956 0-55.495-25.02-55.495-57.225 0-32.944 23.036-57.233 55.495-57.233 31.202 0 53.758 25.032 53.758 56.734z"/></svg>