<svg height="645" viewBox="0 -.566 274.458 71.718" width="2500" xmlns="http://www.w3.org/2000/svg"><path d="m53.75.369c-.884.623-.987 1.662-1.195 12.308-.104 9.14-.364 12.463-1.143 15.527-1.194 4.726-2.596 13.606-2.908 18.176-.311 4.674-1.402 7.27-3.739 8.933-1.039.727-3.272 2.544-4.933 3.998-2.026 1.766-3.48 2.649-4.415 2.649-1.35 0-5.452-1.402-8.672-3.012-2.337-1.09-3.583-.675-3.791 1.298-.156 1.506.052 1.714 2.337 2.856 1.35.727 3.895 1.662 5.608 2.181 1.714.468 4.622 1.35 6.492 1.87 1.87.571 4.31 1.143 5.453 1.35s2.96.78 3.998 1.299c2.649 1.35 4.882 1.246 6.284-.26.623-.675 2.181-3.064 3.428-5.297 1.246-2.285 3.323-5.66 4.57-7.582 2.7-4.103 2.908-6.076.83-7.686-1.142-.883-2.025-1.09-4.31-.987-1.61.052-3.22-.052-3.583-.26-.78-.519-.364-6.439.727-10.438.415-1.454.987-4.362 1.298-6.491.364-2.13.935-5.09 1.35-6.492 1.039-3.79 1.195-19.734.156-21.759-1.09-2.233-2.596-3.116-3.842-2.18zm-.26 55.878c.467.883.363 1.403-.572 2.753-2.492 3.531-4.673 5.972-5.66 6.232-1.039.26-3.116-.935-3.116-1.818 0-1.143 7.218-8.205 8.413-8.205.208 0 .623.467.935 1.038zm216.19-50.789c-.208.364-.52 2.233-.727 4.103-.208 2.596-.623 3.895-1.714 5.297-1.506 1.921-9.295 8.413-13.294 11.01-1.299.83-3.22 2.18-4.259 3.011-1.09.831-2.18 1.35-2.44 1.195-.26-.208-.624-1.247-.831-2.337-.364-2.181-1.039-3.012-4.051-4.986-4.882-3.22-6.491-3.53-7.997-1.661-1.04 1.35-7.063 5.556-7.946 5.556-.312 0-1.766.624-3.272 1.402s-4.102 1.87-5.816 2.493c-2.597.883-3.116 1.299-3.116 2.285 0 .935.727 1.662 3.116 3.116 1.714 1.039 3.168 2.285 3.272 2.752.104.52-.727 1.455-2.13 2.441-1.246.831-3.479 2.908-4.881 4.57-5.037 5.817-5.868 8.257-3.583 10.906 2.025 2.337 4.673 2.025 10.49-1.298 2.596-1.506 5.297-3.324 5.92-4 .675-.726 1.402-1.297 1.662-1.297s1.662-.883 3.168-1.974c1.506-1.142 4.414-3.012 6.491-4.154 4.259-2.39 5.193-3.064 10.646-7.686 2.025-1.714 5.037-4.05 6.595-5.141s3.947-3.013 5.246-4.207c4.673-4.258 6.439-3.48 5.972 2.649-.935 13.658-1.35 18.695-1.922 22.382-.727 5.037-.467 6.076 1.454 5.816 1.506-.155 1.35.208 3.48-9.243.467-2.13 1.194-8.465 1.61-14.022.519-6.855 1.246-11.944 2.18-15.84.728-3.167 1.403-6.958 1.403-8.464.052-2.44-.156-2.96-1.402-4.05-1.61-1.403-2.7-1.559-3.324-.624zm-30.276 23.785c0 1.61-1.298 2.285-2.804 1.454-1.87-1.039-.364-3.74 1.817-3.168.675.208.987.727.987 1.714zm-10.438 6.751c.882 0 3.271 4.103 2.908 5.037-.312.935-11.01 8.154-13.918 9.348-3.116 1.35-3.272-.675-.363-4.83 1.142-1.661 2.077-3.271 2.077-3.687 0-.363.363-.83.779-.986.415-.208.779-.78.779-1.299 0-.57.363-.986.935-.986.467 0 1.817-.727 2.96-1.61 1.09-.831 2.337-1.402 2.752-1.247.364.156.883.26 1.09.26zm-52.243-24.304c-.311.364-.675 1.35-.882 2.181-.727 3.012-3.584 6.232-11.062 12.308-3.947 3.272-6.128 4.414-6.699 3.531-.156-.26-.156-1.87.052-3.583.571-4.83-1.402-7.79-5.245-7.79-.727 0-2.908.675-4.882 1.558-1.973.831-3.79 1.558-4.05 1.558s-1.403.675-2.545 1.506-3.116 2.026-4.362 2.649c-1.247.675-4.363 2.544-6.855 4.258-2.545 1.662-5.142 3.272-5.817 3.531-.623.26-2.337 1.455-3.687 2.7-1.402 1.247-4.466 3.532-6.855 5.09-4.362 2.908-5.505 4.466-4.414 6.18.312.467 1.246.883 2.13.987 1.297.156 2.232-.364 5.244-2.908 2.026-1.662 5.35-4.207 7.427-5.557s4.621-3.272 5.608-4.155c.987-.934 2.44-2.025 3.22-2.388 2.804-1.455 8.517-4.83 10.023-5.973 2.233-1.61 5.764-3.323 6.959-3.323 1.817 0 2.336 1.817 1.142 4.31-2.7 5.713-9.867 18.488-11.633 20.669-.623.779-1.713 2.285-2.44 3.324s-2.026 2.856-2.909 4.05c-2.129 2.856-2.544 4.674-1.35 5.713 1.766 1.61 3.583.57 6.907-4 1.662-2.284 4.155-5.504 5.505-7.062 2.908-3.375 22.07-21.448 24.252-22.85 1.973-1.246 3.116-.83 2.648.987-.415 1.662-4.83 9.088-7.53 12.671-2.804 3.687-5.193 8.413-5.193 10.179 0 1.039.468 1.921 1.61 2.856 2.13 1.818 4.778 1.766 10.075-.156 6.543-2.388 13.866-5.245 15.683-6.024.883-.415 1.766-.779 1.922-.779.207 0 1.87-.727 3.687-1.558 3.271-1.506 4.83-3.116 4.102-4.206-.363-.623-2.7-.156-3.843.779-.83.727-3.687 1.558-8.049 2.493-1.402.26-3.324.934-4.206 1.506-.883.519-2.441.986-3.428.986-1.039 0-2.908.468-4.258 1.09-2.753 1.195-4.622 1.143-4.882-.155-.208-.935 4.882-10.334 5.972-10.957.364-.208.675-.624.675-.935 0-.26.572-1.402 1.299-2.545 1.454-2.285 3.687-7.894 4.466-11.165.26-1.143.883-2.96 1.298-3.999 1.09-2.493.623-5.193-1.246-6.907-1.506-1.402-2.805-1.662-3.584-.675zm52.296-.156c-3.168.468-3.636.831-3.636 2.908 0 1.247.312 1.974.987 2.337 1.35.675 3.791.675 5.609-.104.779-.311 2.492-.727 3.739-.882 2.96-.416 3.843-1.662 2.285-3.22-1.247-1.298-4.83-1.714-8.984-1.039z"/><path d="m34.535 19.428c-1.818 1.142-3.636 2.025-4 2.077-.934.052-6.854 3.324-11.164 6.232-1.922 1.298-4.934 3.116-6.648 4.103-1.713.934-3.947 2.388-4.933 3.115-.987.78-3.168 2.182-4.778 3.116-2.597 1.402-3.012 1.87-3.012 3.169 0 3.064 4.622 3.168 8.05.208 2.44-2.13 8.828-6.492 13.71-9.452 2.44-1.506 5.193-3.168 6.023-3.739 2.649-1.714 3.947-2.233 4.726-1.921 1.195.467.831 2.544-.727 4.466-.83.987-2.389 3.427-3.48 5.453-2.388 4.31-5.192 7.893-10.645 13.502-3.999 4.103-11.425 10.282-14.853 12.308-1.87 1.09-2.18 2.025-1.038 2.96.519.415 1.142.363 2.492-.156 2.649-1.142 7.582-4.518 10.854-7.426 1.558-1.402 4.466-3.895 6.44-5.557 6.647-5.505 15.268-16.41 15.32-19.318 0-.312.83-1.506 1.817-2.649.987-1.194 1.818-2.337 1.818-2.597.052-.207.467-1.35 1.038-2.492 1.299-2.649 1.299-3.947 0-5.557-1.661-2.13-3.22-2.077-7.01.156z"/></svg>