<svg height="198" width="2500" xmlns="http://www.w3.org/2000/svg" viewBox="0 0 504.78999999999996 40"><path d="M0 0h39.99v40H0z"/><path d="M7.12 7.12h25.76v25.75H7.12z" fill="#5084c4"/><path d="M90.04 4h8.56v32h-8.56zM88.45 36L73.97 18.93v-.39L88.4 4H77.13L65.3 15.82V4H56v32h9.3V21.99L76.79 36zM103.35 4v32h8.68V17.63L126.17 36h8.91V4h-8.79v18.32L112.36 4zM161.37 28.35h-.02v-4.02h-4.96v-6.7h13.75v16.05c-5.95 2.77-9.32 3.02-12.2 3.13-11.82.44-19.47-6.13-19.71-16.9-.2-9.01 6.58-17.68 18.58-17.07 5.29.27 7.7.84 11.75 2.55v8.13l-.16-.08c-3.19-1.86-5.95-3.39-11.96-3.36-5.38.03-9.58 4.43-9.66 9.78-.09 5.48 4.02 9.73 9.5 9.59 2.29-.07 3.1-.23 5.09-1.09M203.69 4h9.19v32h-9.19zM217.63 4v32h8.56V18.59L232.53 36h7.16l6.34-17.41V36h8.56V4h-11.71l-6.77 18.04L229.34 4zM198.94 27.64V4h-9.04v22.18l-.04.33c-.62 1.69-2.96 1.95-5.41 1.27-2.05-.58-1.93-.55-4.21-1.39v8.35c1.93.88 6.13 1.57 8.33 1.64 4.96.15 9.79-2.72 10.36-8.22v-.5zM304.59 22.29c0-3.71 1.36-6.9 4.08-9.57 2.71-2.67 5.97-4 9.78-4s6.98 1.34 9.67 4.03c2.7 2.69 4.05 5.92 4.05 9.69s-1.36 7.01-4.07 9.66c-2.72 2.65-6.01 3.98-9.86 3.98-3.41 0-6.47-1.18-9.18-3.54-2.99-2.61-4.48-6.03-4.48-10.25zm4.02.05c0 2.92.98 5.31 2.94 7.19 1.95 1.88 4.2 2.82 6.75 2.82 2.77 0 5.1-.96 7.01-2.87 1.9-1.94 2.85-4.29 2.85-7.08s-.94-5.17-2.82-7.08c-1.87-1.91-4.18-2.87-6.94-2.87s-5.06.96-6.96 2.87c-1.89 1.89-2.84 4.23-2.84 7.01zM336.62 18.95h3.86v1.54c1.34-1.33 2.86-2 4.55-2 1.94 0 3.45.61 4.53 1.83.93 1.04 1.4 2.73 1.4 5.08v10.2h-3.86v-9.3c0-1.64-.23-2.77-.68-3.4-.44-.64-1.25-.96-2.43-.96-1.28 0-2.18.42-2.72 1.26-.52.83-.79 2.28-.79 4.36v8.03h-3.86V18.94zM360.54 6.73v28.86h-3.85V6.73zM365.7 12.03c0-.67.24-1.25.73-1.74s1.08-.73 1.76-.73 1.29.25 1.78.73.73 1.07.73 1.76-.25 1.29-.73 1.78-1.07.73-1.76.73-1.29-.24-1.78-.73-.73-1.09-.73-1.79zm4.43 6.92V35.6h-3.85V18.95zM375.87 18.95h3.86v1.54c1.34-1.33 2.86-2 4.55-2 1.94 0 3.45.61 4.53 1.83.93 1.04 1.4 2.73 1.4 5.08v10.2h-3.86v-9.3c0-1.64-.23-2.77-.68-3.4-.44-.64-1.25-.96-2.43-.96-1.28 0-2.18.42-2.72 1.26-.52.83-.79 2.28-.79 4.36v8.03h-3.86V18.94zM411.1 28.18h-11.93c.1 1.37.55 2.46 1.33 3.26.79.8 1.79 1.2 3.02 1.2.96 0 1.75-.23 2.38-.68.62-.46 1.32-1.3 2.1-2.53l3.25 1.81c-.5.85-1.03 1.59-1.59 2.2s-1.16 1.11-1.79 1.5c-.64.39-1.33.68-2.07.86s-1.54.27-2.41.27c-2.48 0-4.48-.8-5.98-2.39-1.5-1.61-2.26-3.74-2.26-6.39s.73-4.76 2.19-6.39c1.47-1.61 3.42-2.41 5.84-2.41s4.39.78 5.81 2.34c1.41 1.55 2.12 3.7 2.12 6.44l-.02.91zm-3.95-3.14c-.54-2.05-1.83-3.08-3.88-3.08-.47 0-.91.07-1.32.21s-.78.35-1.12.62-.62.59-.86.97-.42.8-.55 1.28h7.72zM439.13 13.14l-3.23 1.91c-.6-1.05-1.18-1.73-1.73-2.05-.57-.36-1.3-.55-2.21-.55-1.1 0-2.02.31-2.75.94-.73.62-1.09 1.39-1.09 2.32 0 1.29.96 2.32 2.87 3.11l2.63 1.08c2.14.87 3.71 1.92 4.7 3.17s1.49 2.78 1.49 4.59c0 2.43-.81 4.43-2.43 6.02-1.63 1.6-3.65 2.39-6.07 2.39-2.29 0-4.18-.68-5.67-2.03-1.47-1.36-2.39-3.26-2.75-5.73l4.03-.89c.18 1.55.5 2.62.96 3.21.82 1.14 2.02 1.71 3.59 1.71 1.24 0 2.27-.42 3.09-1.25s1.23-1.89 1.23-3.16c0-.51-.07-.98-.21-1.41s-.37-.82-.67-1.18-.69-.69-1.17-1.01c-.48-.31-1.05-.61-1.71-.9l-2.55-1.06c-3.61-1.53-5.42-3.76-5.42-6.7 0-1.98.76-3.64 2.27-4.97 1.51-1.34 3.4-2.02 5.66-2.02 3.04 0 5.42 1.48 7.13 4.44zM448.72 22.54V35.6h-3.84V22.54h-1.64v-3.59h1.64v-6.1h3.84v6.1h2.99v3.59zM455.19 27.16c0-2.4.86-4.45 2.58-6.14s3.82-2.53 6.29-2.53 4.59.85 6.32 2.55c1.71 1.7 2.56 3.78 2.56 6.25s-.86 4.59-2.58 6.27c-1.73 1.67-3.86 2.51-6.38 2.51s-4.59-.85-6.27-2.56c-1.69-1.69-2.53-3.81-2.53-6.36zm3.93.07c0 1.66.44 2.98 1.33 3.95.91.98 2.11 1.47 3.61 1.47s2.71-.48 3.61-1.45 1.35-2.26 1.35-3.88-.45-2.91-1.35-3.88c-.91-.98-2.11-1.47-3.61-1.47s-2.66.49-3.57 1.47-1.37 2.24-1.37 3.79zM476.42 18.95h3.84v1.49c.71-.74 1.33-1.25 1.88-1.52.56-.28 1.22-.43 1.98-.43 1.01 0 2.07.33 3.18.99L485.54 23c-.73-.52-1.44-.79-2.14-.79-2.1 0-3.14 1.58-3.14 4.75v8.63h-3.84V18.94zM504.64 28.18h-11.93c.1 1.37.55 2.46 1.33 3.26.79.8 1.79 1.2 3.02 1.2.96 0 1.75-.23 2.38-.68.62-.46 1.32-1.3 2.1-2.53l3.25 1.81c-.5.85-1.03 1.59-1.59 2.2s-1.16 1.11-1.79 1.5c-.64.39-1.33.68-2.07.86s-1.54.27-2.41.27c-2.48 0-4.48-.8-5.98-2.39-1.5-1.61-2.26-3.74-2.26-6.39s.73-4.76 2.19-6.39c1.47-1.61 3.42-2.41 5.84-2.41s4.39.78 5.81 2.34c1.41 1.55 2.12 3.7 2.12 6.44l-.02.91zm-3.95-3.14c-.54-2.05-1.83-3.08-3.88-3.08-.47 0-.91.07-1.32.21s-.78.35-1.12.62-.62.59-.86.97-.42.8-.55 1.28h7.72z"/></svg>