<svg height="400pt" viewBox="89 154 204.5 71" width="400pt" xmlns="http://www.w3.org/2000/svg"><path d="m89.4 154.9c-.2.2-.4 11.8-.4 25.8v25.3h54v-50.9l-26.6-.3c-14.6-.2-26.8-.1-27 .1zm77.2 11.8c-7.2 7.1-13.3 12.9-13.5 13.1-.3.1 5.3 6.1 12.4 13.2l13 13h11.5l-12.5-12.2c-6.9-6.7-12.5-12.7-12.5-13.2 0-.6 5.4-6.5 11.9-13 6.6-6.6 11.8-12.3 11.5-12.8-.3-.4-2.4-.8-4.6-.8-3.9 0-4.8.6-17.2 12.7zm102.7.5-13.3 13.2 12.7 12.8 12.8 12.7 6 .1h6l-12.8-12.8-12.7-12.7 12.4-12.4c6.9-6.9 12.3-12.8 12-13.3-.3-.4-2.6-.8-5.1-.8-4.6 0-4.7.1-18 13.2zm-77.3-7v5.3l13.2 13.2c7.2 7.3 13.4 13.3 13.7 13.3.4 0 4.2-3.6 8.6-8s8.3-8 8.7-8c.5 0 .8 6.7.8 15v15h8v-51.5l-12.8 12.8c-7 7-13.1 12.7-13.5 12.7-.5 0-6.5-5.6-13.4-12.5s-12.7-12.5-12.9-12.5-.4 2.4-.4 5.2zm82 61.8c0 1.6.2 3 .4 3s.6-1.4.8-3c.3-1.7.1-3-.4-3-.4 0-.8 1.3-.8 3z"/></svg>