<svg height="1012" viewBox="406 297 1236 233" width="2500" xmlns="http://www.w3.org/2000/svg"><path d="m1174 297h17l17 3 16 5 16 7 18 11h2l7-9 9-6 10-3h100l19 2 17 4 11 4v-2l10-6 6-2 27-2h56l21 2 22 5 15 6 14 8 13 11 9 11 8 16 5 15 3 22v13l-3 20-6 18-8 14-11 13-13 11-16 9-21 7-18 3-9 1h-152l-9-2-9-5-7-6-2 4-9 6-11 3h-50l-12-3-6-4-4 2-13 6-12 3-9 9-14 7-9 2h-13l-14-3-5 1h-11l-18-4-18-8-14-9-11-9-15-15-9-13-4-7-5-1h-33l-19-1v18l-4 11-4 6-8 7-9 4-6 1h-108l-12-3-11-8-5-7-3-8-12-1-3 9-6 8-8 6-8 3-5 1h-102l-12-3-8-6-3-3-4 2-7 6-13 4h-127l-11-4-8-6-1-2-8 7-9 4-4 1h-57l-11-4-8-6-7-11-2-7v-25l1-4-1-95v-23l4-11 7-9 10-6 6-2h59l11 4 8 6 7-6 7-3 5-1h177l19 2 17 4 16 7 9 7 8 7 6-12 7-8 8-5 7-2h82l10 4 10 9 5 7 6-9 8-7 12-4h157l9 3 9 7 7 10 13-13 14-8 15-5z" fill="#010000"/><path d="m611 339h100l18 3 13 5 10 9 6 8 3 9 1 16-3 13-6 11-9 8-13 6-3 2 13 18 12 17 5 7 2-3 44-114 6-15h69l5 11 38 98 9 23v3h-48l-9-26h-59l-5 12-5 14-47 1h-48l-3-3-11-19-13-21-27-1-1 43-43 1-1-1 1-45v-44z" fill="#d63336"/><path d="m1473 337h62l21 3 7 2 13 5 10 6 9 8 8 14 4 15 1 8v14l-3 16-5 12-8 11-9 8-12 7-15 5-18 3h-82l1-56v-22l-1-29v-29z" fill="#f5c007"/><path d="m1291 338 99 1 18 3 13 5 10 9 6 9 3 9 1 13-2 12-7 14-8 7-12 6-6 1 8 12 13 18 11 15v2h-50l-15-25-10-16v-2l-28 1-1 42h-43z" fill="#3cba57"/><path d="m810 339h69l5 11 38 98 9 23v3h-48l-9-26h-59l-5 12-5 14h-47l10-27 19-49 22-57z" fill="#f6c107"/><path d="m440 338 46 1 1 53 22-22 7-8 12-14 8-10h59l-2 4-18 18-8 7-29 29 2 4 12 17 16 21 12 16 14 17 1 3h-58l-13-22-15-24v-2l-8 7-14 14-1 27h-46z" fill="#3cba57"/><path d="m942 338h145l1 1v34l-1 1h-101v19l96-1v37l-96-1v46h-44z" fill="#447ff4"/><path d="m1133 383h14l19 3 9 2 12 5 5 2 9 4 8 4v2l5 1v2h3v2l4 2 10 8 10 10 7 10 5 11 2 11-3 8-4 5-6 2-9-5-12-11-9-10-7-7-16-11-21-11-18-6-15-3h-17l-19 4-1-1v-10l4-10 8-7 10-4z" fill="#f5c007"/><path d="m1124 423h14l16 4 19 8 13 8 9 7 10 9 8 9 4 8 1 9-4 7-6 4h-11l-12-5-11-7-14-14-7-8-13-13-9-5-5 1-1 1 1 8 9 10 7 7 15 11 8 6-1 4-8-1-16-8-14-11-9-9-7-10-3-7v-9l3-6 6-5z" fill="#447ff4"/><path d="m1145 352h27l21 5 21 8 15 8 13 9 10 8 10 10 7 11 4 9 1 4v7l-5 6-7 1-8-6-14-15-5-5-8-7-15-10-18-10-21-8-20-4h-20l-17 4-6 3h-2v2h-2l2-6 7-9 8-7 13-6z" fill="#d63336"/><path d="m1521 373h10l12 2 7 4v2l3 1 4 8 2 8v16l-3 10-5 8-8 4-4 1h-37v-62l1-1z" fill="#010000"/><path d="m1177 331h16l20 4 15 6 15 8 12 11 5 6 4 8 1 6-2 4-7-2-14-12-11-7-16-8-15-5-23-5-26-2 2-4 11-5z" fill="#3cba57"/><path d="m1335 374h36l20 2 5 3 2 2 1 6-5 6-7 2-7 1h-46v-21zm-679 1h47l10 2 5 3 1 2v6l-5 5-7 2-9 1h-42l-1-1v-19zm188-7 2 2 17 46v3h-37l-1-3 15-40z" fill="#010000"/></svg>