<svg height="602" viewBox="0 0 114.17 27.47" width="2500" xmlns="http://www.w3.org/2000/svg"><path d="m50.52 22.37c5.11-5.11 5.11-13.42 0-18.53-2.48-2.48-5.77-3.84-9.27-3.84s-6.75 1.35-9.22 3.79c-.43.39-2.67 2.47-5.14 5.96l-.2.28-.16-.3c-1.99-3.75-4.09-5.8-4.18-5.88-2.48-2.48-5.77-3.84-9.27-3.84s-6.77 1.35-9.25 3.83c-2.47 2.47-3.83 5.76-3.83 9.26s1.36 6.79 3.83 9.27c5.09 5.08 13.38 5.1 18.49.04.31-.28 1.41-1.32 2.85-3.01l.29-.34.08.44c.26 1.51.4 3.07.4 4.62v1.91h4.16v-1.91c0-3.21-.48-6.35-1.43-9.34l-.03-.09.31-.5c2.85-4.63 5.85-7.29 5.88-7.32l.11-.1c1.68-1.69 3.93-2.61 6.32-2.61s4.63.93 6.32 2.62c3.48 3.49 3.49 9.16 0 12.65-3.66 3.66-8.68 2.95-11.95 1.19l-2.03 3.63c2.35 1.28 4.93 1.95 7.46 1.95 3.63 0 6.99-1.36 9.46-3.83zm-26.59-8.14c-2.31 3.22-4.4 5.09-4.42 5.11l-.09.09c-1.74 1.74-4.03 2.61-6.32 2.61s-4.58-.87-6.32-2.61c-3.49-3.49-3.49-9.16 0-12.65 1.69-1.69 3.94-2.62 6.32-2.62s4.64.94 6.35 2.64c.02.02 2.61 2.59 4.51 7.23l.04.11zm42.76.93.03.06 1.48 2.51h1.81l-2.13-3.51.04-.04c1.04-.98 1.58-1.96 1.63-3h-1.67c-.22 1.27-.86 2.19-2.05 2.96l-.1.06v-5.8l-1.67.09v9.23h1.67v-1.93l.03-.02c.28-.17.55-.36.87-.59l.06-.04zm8.02-2.68.24-1.35c-.28-.06-.7-.1-1.1-.1-.93 0-2 .22-2.68.55v6.15h1.67v-5.09l.04-.02c.33-.16.67-.23 1.11-.23.29 0 .53.03.72.09zm1.36-1.29h1.67v6.54h-1.67zm.84-2.89c-.61 0-.98.35-.98.94s.37.94.98.94.97-.36.97-.94-.37-.94-.97-.94zm5.13 9.59c.4 0 .78-.04 1.07-.1l-.08-1.32c-.14.03-.37.06-.63.06-.64 0-.96-.39-.96-1.17v-2.85h1.45v-1.31h-1.45v-1.54l-1.67.09v1.45h-.89v1.31h.89v2.88c0 1.69.75 2.51 2.29 2.51zm6.95-2.04c0-1.08-.57-1.62-2.17-2.07-.76-.22-1.13-.34-1.13-.79 0-.27.17-.6.98-.6.59 0 1.13.14 1.76.33l.18-1.34c-.57-.22-1.38-.36-2.08-.36-1.58 0-2.48.73-2.48 2 0 1.01.58 1.61 1.87 1.95 1.07.3 1.44.43 1.44.91 0 .39-.41.64-1.08.64s-1.32-.13-2.02-.39l-.23 1.35c.59.25 1.48.41 2.29.41 1.68 0 2.68-.76 2.68-2.04zm5.43-2.07v3.96h1.67v-4.09c0-1.68-1.04-2.61-2.94-2.61-.97 0-2.07.21-2.88.55v6.14h1.66v-5.08l.04-.02c.35-.16.74-.24 1.17-.24.85 0 1.28.46 1.28 1.38zm5.59 4.11c1.52 0 2.48-.4 2.78-.55v-3.59c0-1.78-.97-2.72-2.81-2.72-.76 0-1.63.15-2.18.37l.3 1.29c.61-.24 1.25-.29 1.68-.29.92 0 1.39.42 1.39 1.24v.39h-.07c-.31-.06-.78-.12-1.15-.12-1.58.01-2.56.78-2.56 2s.98 1.98 2.62 1.98zm.17-2.98c.3 0 .62.04.94.11h.05v1.49l-.03.02c-.23.12-.57.19-.94.19-.74 0-1.15-.32-1.15-.9s.41-.91 1.13-.91zm11.09-2.51c.83 0 1.24.45 1.24 1.38v3.96h1.66v-4.09c0-1.68-1-2.61-2.82-2.61-.94 0-1.78.37-2.1.53l-.04.02-.03-.02c-.45-.35-1.05-.52-1.8-.52-1.01 0-2.05.2-2.87.55v6.14h1.66v-5.08l.04-.02c.35-.16.71-.24 1.08-.24.84 0 1.24.44 1.24 1.38v3.96h1.62v-3.73c0-.46-.05-.86-.15-1.21v-.05l.03-.02c.36-.2.82-.32 1.24-.32z" fill="#e8e5e2"/></svg>