<svg height="1946" viewBox="-1.3 0 57.35 45.66" width="2500" xmlns="http://www.w3.org/2000/svg"><path d="m41.27 26.62c-2.59 0-5.26-.68-7.75-2.08l2.24-4c3.2 1.79 8.23 2.59 11.88-1.06 3.4-3.41 3.4-8.94 0-12.35-1.65-1.65-3.84-2.56-6.17-2.56s-4.52.91-6.17 2.56l-.11.1s-3.02 2.68-5.84 7.27c-.09.14-.17.28-.26.42.85 2.69 1.44 5.84 1.44 9.4v2.12h-4.58v-2.12c0-1.63-.15-3.16-.4-4.59-1.47 1.73-2.59 2.78-2.86 3.02-5.19 5.14-13.61 5.13-18.78-.04-5.21-5.18-5.21-13.62-.02-18.81 2.52-2.52 5.86-3.9 9.41-3.9s6.9 1.38 9.41 3.9c.15.14 2.24 2.2 4.22 5.93 2.49-3.52 4.75-5.61 5.16-5.98 2.51-2.48 5.83-3.85 9.36-3.85s6.9 1.38 9.41 3.9c5.19 5.19 5.19 13.63 0 18.82-2.57 2.57-6.01 3.89-9.6 3.89zm-27.97-22.04c-2.33 0-4.52.91-6.17 2.56-3.4 3.4-3.4 8.94 0 12.35 3.4 3.4 8.94 3.4 12.35 0l.1-.09s2.1-1.9 4.39-5.08c-1.87-4.57-4.42-7.12-4.46-7.16a8.692 8.692 0 0 0 -6.2-2.58zm-7.04 37.36 2.16 3.56h-1.96l-1.5-2.54c-.27.2-.56.39-.87.59v1.96h-1.8v-9.35l1.8-.09v5.75c1.23-.8 1.83-1.71 2.03-2.97h1.79c-.04 1.12-.61 2.13-1.66 3.1zm5.88-3.26c.47 0 .91.05 1.17.12l-.26 1.47c-.22-.08-.5-.1-.77-.1-.48 0-.81.09-1.08.22v5.11h-1.8v-6.25c.7-.35 1.8-.57 2.74-.57zm2.02-1.73c0-.6.38-1 1.04-1s1.03.4 1.03 1-.38 1-1.03 1-1.04-.4-1.04-1zm1.94 8.55h-1.8v-6.66h1.8zm4.23.16c-1.55 0-2.35-.85-2.35-2.57v-2.82h-.89v-1.43h.89v-1.45l1.8-.09v1.54h1.45v1.43h-1.45v2.79c0 .76.31 1.11.9 1.11.27 0 .52-.04.69-.08l.09 1.45c-.31.08-.73.12-1.13.12zm6.45-5.14c-.6-.18-1.19-.35-1.81-.35-.55 0-.91.16-.91.53s.3.51 1.08.73c1.51.42 2.22.93 2.22 2.13 0 1.41-1.15 2.1-2.74 2.1-.83 0-1.76-.17-2.36-.43l.25-1.47c.57.22 1.3.42 2.07.42.6 0 1.02-.21 1.02-.57 0-.43-.33-.55-1.4-.85-1.2-.31-1.92-.87-1.92-2.01 0-1.33.95-2.06 2.54-2.06.74 0 1.59.16 2.15.38l-.2 1.46zm1.72 4.98v-6.25c.82-.35 1.94-.57 2.95-.57 1.9 0 3 .94 3 2.67v4.15h-1.8v-4.02c0-.9-.42-1.32-1.21-1.32-.42 0-.81.08-1.15.23v5.1h-1.79zm9.8.16c-1.79 0-2.69-.87-2.69-2.05 0-1.29 1.06-2.05 2.62-2.06.37 0 .83.05 1.16.1v-.31c0-.8-.46-1.17-1.33-1.17-.57 0-1.19.09-1.72.31l-.33-1.41c.56-.23 1.46-.39 2.26-.39 1.92 0 2.87 1.02 2.87 2.78v3.63c-.53.27-1.54.57-2.84.57zm1.09-1.48v-1.4c-.3-.07-.61-.1-.93-.1-.6 0-1.07.23-1.07.85 0 .55.39.83 1.08.83.39 0 .72-.08.91-.18zm11.34 1.32v-4.02c0-.87-.35-1.32-1.17-1.32-.44 0-.89.13-1.21.31.1.35.16.77.16 1.23v3.8h-1.75v-4.02c0-.87-.34-1.32-1.17-1.32-.37 0-.72.08-1.06.23v5.1h-1.79v-6.25c.83-.36 1.92-.57 2.93-.57.76 0 1.38.18 1.84.53.55-.27 1.33-.53 2.13-.53 1.85 0 2.88.96 2.88 2.67v4.15h-1.79z" fill="#2b3c73"/></svg>