<svg height="1124" viewBox=".1 10 275.8 134" width="2500" xmlns="http://www.w3.org/2000/svg"><path d="m245.1 116.6c-2.9 0-5.4-1.8-5.4-5.3 0-3.2 2.2-5.3 5.4-5.3 1.8 0 2.9.4 3.9 1.2l-1 2.4c-.6-.7-1.5-1.1-2.4-1.1-1.3 0-2.7.9-2.7 2.7 0 1.9 1.3 2.8 2.7 2.8.9 0 2-.5 2.5-1.2l1 2.3c-1 1-2.1 1.5-4 1.5zm12.2-.2v-6.2c0-1-.6-1.6-1.4-1.6-.9 0-1.7.5-2 1.4v6.4h-3.2v-14.1h3.2v4.9c.5-.7 1.3-1.1 2.9-1.1 2.2 0 3.7 1.4 3.7 3.4v6.9z" fill="#e85382"/><g fill="#518c4d"><path d="m245.1 116.6c-2.9 0-5.4-1.8-5.4-5.3 0-3.2 2.2-5.3 5.4-5.3 1.8 0 2.9.4 3.9 1.2l-1 2.4c-.6-.7-1.5-1.1-2.4-1.1-1.3 0-2.7.9-2.7 2.7 0 1.9 1.3 2.8 2.7 2.8.9 0 2-.5 2.5-1.2l1 2.3c-1 1-2.1 1.5-4 1.5zm12.2-.2v-6.2c0-1-.6-1.6-1.4-1.6-.9 0-1.7.5-2 1.4v6.4h-3.2v-14.1h3.2v4.9c.5-.7 1.3-1.1 2.9-1.1 2.2 0 3.7 1.4 3.7 3.4v6.9z"/><path d="m245.1 116.6c-2.9 0-5.4-1.8-5.4-5.3 0-3.2 2.2-5.3 5.4-5.3 1.8 0 2.9.4 3.9 1.2l-1 2.4c-.6-.7-1.5-1.1-2.4-1.1-1.3 0-2.7.9-2.7 2.7 0 1.9 1.3 2.8 2.7 2.8.9 0 2-.5 2.5-1.2l1 2.3c-1 1-2.1 1.5-4 1.5zm12.2-.2v-6.2c0-1-.6-1.6-1.4-1.6-.9 0-1.7.5-2 1.4v6.4h-3.2v-14.1h3.2v4.9c.5-.7 1.3-1.1 2.9-1.1 2.2 0 3.7 1.4 3.7 3.4v6.9z"/><path d="m245.1 116.6c-2.9 0-5.4-1.8-5.4-5.3 0-3.2 2.2-5.3 5.4-5.3 1.8 0 2.9.4 3.9 1.2l-1 2.4c-.6-.7-1.5-1.1-2.4-1.1-1.3 0-2.7.9-2.7 2.7 0 1.9 1.3 2.8 2.7 2.8.9 0 2-.5 2.5-1.2l1 2.3c-1 1-2.1 1.5-4 1.5zm12.2-.2v-6.2c0-1-.6-1.6-1.4-1.6-.9 0-1.7.5-2 1.4v6.4h-3.2v-14.1h3.2v4.9c.5-.7 1.3-1.1 2.9-1.1 2.2 0 3.7 1.4 3.7 3.4v6.9z"/></g><g fill="#e85382"><path d="m224.6 94.1c-1.8 0-2.4-.4-2.4-1.7v-2.9h-.8v-1.1h.9v-1.8h1.4v1.8h1v1.1h-1v2.6c0 .8.1.8 1.3.8zm4.8-.1v-3.6c0-.7-.4-1-1-1s-1.1.3-1.3.9v3.7h-1.4v-7.9h1.4v2.9c.3-.4.8-.7 1.7-.7 1.2 0 2.1.7 2.1 1.9v3.9h-1.5z"/><path d="m224.6 94.1c-1.8 0-2.4-.4-2.4-1.7v-2.9h-.8v-1.1h.9v-1.8h1.4v1.8h1v1.1h-1v2.6c0 .8.1.8 1.3.8zm4.8-.1v-3.6c0-.7-.4-1-1-1s-1.1.3-1.3.9v3.7h-1.4v-7.9h1.4v2.9c.3-.4.8-.7 1.7-.7 1.2 0 2.1.7 2.1 1.9v3.9h-1.5z"/><path d="m224.6 94.1c-1.8 0-2.4-.4-2.4-1.7v-2.9h-.8v-1.1h.9v-1.8h1.4v1.8h1v1.1h-1v2.6c0 .8.1.8 1.3.8zm4.8-.1v-3.6c0-.7-.4-1-1-1s-1.1.3-1.3.9v3.7h-1.4v-7.9h1.4v2.9c.3-.4.8-.7 1.7-.7 1.2 0 2.1.7 2.1 1.9v3.9h-1.5z"/><path d="m224.6 94.1c-1.8 0-2.4-.4-2.4-1.7v-2.9h-.8v-1.1h.9v-1.8h1.4v1.8h1v1.1h-1v2.6c0 .8.1.8 1.3.8zm4.8-.1v-3.6c0-.7-.4-1-1-1s-1.1.3-1.3.9v3.7h-1.4v-7.9h1.4v2.9c.3-.4.8-.7 1.7-.7 1.2 0 2.1.7 2.1 1.9v3.9h-1.5zm-18.3-8.6c.6 0 1.1.1 1.7.2l3-2.6c-1.4-.8-3-1.2-4.7-1.2-1.2 0-2.3.2-3.3.6v-6.9h9.3l1.4-3.2h-12.8l-1.4 3.2v8.8l3.1 2.2c1.2-.6 2.4-1.1 3.7-1.1z"/><path d="m220.2 88.3-3 2.5c0 .3.1.5.1.8 0 3.4-2.8 6.2-6.2 6.2s-6.2-2.8-6.2-6.2v-.6c-.3-5.1-4.5-9.1-9.7-9.1-1.2 0-2.3.2-3.3.6v-6.9h9.3l1.4-3.2h-12.8l-1.4 3.2v8.8l3.1 2.2c1-.7 2.2-1.2 3.6-1.2 3.4 0 6.2 2.8 6.2 6.2s-2.8 6.2-6.2 6.2c-3 0-5.4-2.1-6-4.9h-3.6c.7 4.7 4.7 8.4 9.6 8.4 3.3 0 6.2-1.6 7.9-4.2 1.8 2.5 4.7 4.2 7.9 4.2 5.4 0 9.7-4.4 9.7-9.7.2-1.1 0-2.3-.4-3.3z"/></g><path d="m211.1 93.1c-.4 0-.8-.2-1.1-.5-.5-.6-.4-1.5.2-2l27.9-23.9c.6-.5 1.5-.4 2 .2s.4 1.5-.2 2l-27.8 23.8c-.3.3-.6.4-1 .4zm38-30.7c0 2.1-1.7 3.8-3.8 3.8s-3.8-1.7-3.8-3.8 1.7-3.8 3.8-3.8 3.8 1.7 3.8 3.8" fill="#ffd800"/><path d="m213.6 66.6c5.6 0 10.7 2.4 14.3 6.2l9.6-8.3c-5.9-6.5-14.4-10.7-23.9-10.7-3.6 0-7.1.6-10.4 1.7v-17.3h32l5.6-12.7h-44.7l-5.6 12.7v23.9l11.7 8.1c3.2-2.3 7.1-3.6 11.4-3.6zm18 12c1 2.3 1.5 4.9 1.5 7.6 0 10.8-8.8 19.5-19.5 19.5-4 0-7.7-1.2-10.7-3.2l-9.9 8.4c5.6 4.7 12.8 7.5 20.6 7.5 17.8 0 32.2-14.5 32.2-32.2 0-5.8-1.6-11.3-4.3-16.1z" fill="#518c4d"/><path d="m275.9 133.8h-105.7v-123.8h105.7z" fill="none"/><path d="m150.8 88.8c4.5-3 7.4-8 7.4-13.8s-2.9-10.8-7.4-13.8h-18.4c4.5 3 7.4 8 7.4 13.8s-2.9 10.8-7.4 13.8c4.5 3 7.4 8 7.4 13.8s-2.9 10.8-7.4 13.8h18.4c4.5-3 7.4-8 7.4-13.8.1-5.8-2.9-10.9-7.4-13.8zm-40.5-27.6h18.4v55.2h-18.4zm-110.2 0h17.6v55.2h-17.6zm56.4 55.2h-18.8l-16-27.6 16-27.6h18.8l-16 27.6zm41.8-55.2h-29.3s-8.4 3.4-8.4 13.8c0 7.4 7.2 13.5 8.9 15.3s10.6 8.1 9 16.5-14.4 9.6-14.4 9.6h29.3s7.1-3.2 8.3-11.5c1.4-9.7-8.7-17.7-10.2-19.1-1.4-1.2-8.7-6.1-7.7-13.5 1.3-9.1 14.5-11.1 14.5-11.1" fill="#518c4d"/><path d="m.1 33.6h158.2v110.4h-158.2z" fill="none"/></svg>