<svg viewBox="0 0.1 500 103.69999999999999" xmlns="http://www.w3.org/2000/svg" width="2500" height="518"><linearGradient id="a" gradientTransform="matrix(1 0 0 -1 0 106)" gradientUnits="userSpaceOnUse" x1="159.595" x2="102.449" y1="32.89" y2="32.89"><stop offset="0" stop-color="#ec2227"/><stop offset=".159" stop-color="#dd2428"/><stop offset=".382" stop-color="#ce232c"/><stop offset=".639" stop-color="#c4282c"/><stop offset="1" stop-color="#c1282d"/></linearGradient><linearGradient id="b" gradientTransform="matrix(1 0 0 -1 0 106)" gradientUnits="userSpaceOnUse" x1="99.302" x2="99.302" y1="105.818" y2="18.91"><stop offset="0" stop-color="#010101" stop-opacity=".4"/><stop offset=".265" stop-color="#525252" stop-opacity=".294"/><stop offset=".53" stop-color="#9b9b9b" stop-opacity=".188"/><stop offset=".749" stop-color="#d2d2d2" stop-opacity=".101"/><stop offset=".911" stop-color="#f3f3f3" stop-opacity=".035"/><stop offset="1" stop-color="#fff" stop-opacity="0"/></linearGradient><path d="M159.6 43.6h-28.4l-20.6 21.1-3.2 3.6-5 4 .8.8-.8.8 5.5 12L116 87l15.2 15.6h28.4L132 73.1z" fill="url(#a)"/><path d="M87.6 28.6V28 14.3c0-4.3-1.2-8.3-3.7-12.1L82.4.1c1.2.7 2.3 1.5 3.4 2.2C90.9 5.6 96 9 101.1 12.4c3.8 2.6 6.5 5.7 7.5 9.7.4 1.5.7 3.1.7 4.7V63.4c0 4-.3 8 .4 12 .4 2.8 1.2 5.5 2.8 8.1.7 1.1 1.5 2 2.6 2.8.3.2.5.4.7.6-.2.1-.4 0-.6 0H99.3c-3.7 0-6.4-1.2-8.3-3.7-1.6-2.1-2.5-4.4-3-6.7s-.7-4.6-.6-6.9v-6.2-.5-18.2-2.4-12c.2-.4.2-1 .2-1.7z" fill="#ea272a"/><path d="M87.6 28.6V28 14.3c0-4.3-1.2-8.3-3.7-12.1L82.4.1c1.2.7 2.3 1.5 3.4 2.2C90.9 5.6 96 9 101.1 12.4c3.8 2.6 6.5 5.7 7.5 9.7.4 1.5.7 3.1.7 4.7V63.4c0 4-.3 8 .4 12 .4 2.8 1.2 5.5 2.8 8.1.7 1.1 1.5 2 2.6 2.8.3.2.5.4.7.6-.2.1-.4 0-.6 0H99.3c-3.7 0-6.4-1.2-8.3-3.7-1.6-2.1-2.5-4.4-3-6.7s-.7-4.6-.6-6.9v-6.2-.5-18.2-2.4-12c.2-.4.2-1 .2-1.7z" fill="url(#b)"/><g fill="#010101"><path d="M172.4 54.2h11.1v22.4l17.1-22.4h13.8l-20.3 23.6 21.4 25h-14.1l-18-23.8v23.8h-11.1zM221.6 54.2h11.1v48.5h-11.1zM242 54.2h11.1v39.1h23.4v9.4H242zM303.9 52.7h1l23.8 49.9h-11.5l-2.9-6.9h-19.8l-2.9 6.9h-11.5zm6.9 34.8l-6.4-15.7-6.5 15.7zM337.9 63.6H323v-9.4h40.9v9.4H349v39.1h-11.1zM370.2 54.2H403v9.4h-21.7V75h18.9v8.7h-18.9v9.5h22.4v9.4h-33.5zM408.5 78.3c0-14.7 11.3-25.5 26.2-25.5 6.5 0 12.8 2.2 17.5 6.6l-5.6 7.9c-3.5-2.9-7.7-4.6-12.1-4.6-8.6 0-14.7 6.7-14.7 15.5 0 9.2 6.4 15.5 14.7 15.5 5.2 0 9.9-2.6 13.2-5.5l5.4 8.1c-4.8 4.7-11.2 7.4-18.5 7.4-14.8.1-26.1-10.5-26.1-25.4zM458.7 54.2h11.1v20.6h19.1V54.2H500v48.5h-11.1V84h-19.1v18.7h-11.1zM28.9 55.1c0 5.2-3.9 9.2-11.9 9.2H.5V29.4h15.6c8.2 0 11 5 11 9.2 0 4.5-2.2 6.7-4.7 7.8 3 1 6.5 3.4 6.5 8.7zM4.4 44.9h11.7c3.6 0 7.1-1.8 7.1-6.1 0-2.9-1.8-5.8-6.6-5.8H4.4zM25 54.7c0-3.3-2.4-6.2-8-6.2H4.4v12h13c4.9 0 7.6-2.1 7.6-5.8z"/><path d="M17 64.7H0V28.9h16.1c8.5 0 11.5 5.2 11.5 9.7 0 4.3-2 6.6-4 7.8 2.3 1 5.8 3.4 5.8 8.7 0 5.9-4.7 9.6-12.4 9.6zm-16-1h16c7.1 0 11.4-3.2 11.4-8.7 0-5.6-4.3-7.6-6.1-8.2l-1.2-.4 1.2-.5c2.9-1.3 4.4-3.8 4.4-7.4 0-4.2-2.8-8.7-10.5-8.7H1zM17.5 61H3.9V48H17c6.2 0 8.5 3.6 8.5 6.7 0 3.9-3 6.3-8 6.3zM4.9 60h12.5c4.5 0 7-1.9 7-5.2 0-2.8-2-5.7-7.5-5.7h-12zm11.2-14.6H3.9V32.6h12.6c5.3 0 7.1 3.4 7.1 6.3.1 4.8-4 6.5-7.5 6.5zm-11.2-1h11.2c3.2 0 6.6-1.5 6.6-5.6 0-2.6-1.6-5.3-6.1-5.3H4.9zM43.2 74.6h-4.3l4.8-10.8L33 37.9h4.4l8.5 21.6 8.6-21.6h4.3z"/><path d="M43.6 75.2H38l5.1-11.4-11-26.6h5.7l8.1 20.6 8.2-20.6h5.6zM39.9 74h2.9l15.1-35.6h-3l-9 22.6L37 38.5h-3.1l10.5 25.4z"/></g></svg>