<svg height="1226" viewBox="1.7 1.1 117.3 57.8" width="2500" xmlns="http://www.w3.org/2000/svg" xmlns:xlink="http://www.w3.org/1999/xlink"><linearGradient id="a" gradientUnits="userSpaceOnUse" x1="47.322" x2="55.875" y1="33.476" y2="21.295"><stop offset="0" stop-color="#f13038"/><stop offset=".124" stop-color="#ec2f37"/><stop offset=".277" stop-color="#dd2c33"/><stop offset=".444" stop-color="#c4272d"/><stop offset=".622" stop-color="#a12025"/><stop offset=".808" stop-color="#74171b"/><stop offset=".998" stop-color="#3f0c0e"/><stop offset="1" stop-color="#3e0c0e"/></linearGradient><linearGradient id="b" gradientUnits="userSpaceOnUse" x1="39.347" x2="77.846" y1="28.337" y2="27.77"><stop offset="0" stop-color="#f13038"/><stop offset=".175" stop-color="#ee2f37"/><stop offset=".325" stop-color="#e32d35"/><stop offset=".467" stop-color="#d12a31"/><stop offset=".603" stop-color="#b8252b"/><stop offset=".735" stop-color="#981e23"/><stop offset=".864" stop-color="#70161a"/><stop offset=".989" stop-color="#420d0f"/><stop offset="1" stop-color="#3e0c0e"/></linearGradient><linearGradient id="c"><stop offset="0" stop-color="#b02b30"/><stop offset=".017" stop-color="#b32b30"/><stop offset=".225" stop-color="#d52e35"/><stop offset=".397" stop-color="#e92f37"/><stop offset=".511" stop-color="#f13038"/><stop offset="1" stop-color="#c52c33"/></linearGradient><linearGradient id="d" gradientUnits="userSpaceOnUse" x1="34.484" x2="81.261" xlink:href="#c" y1="54.499" y2="62.689"/><linearGradient id="e" gradientUnits="userSpaceOnUse" x1="34.778" x2="81.58" xlink:href="#c" y1="52.816" y2="61.01"/><linearGradient id="f" gradientUnits="userSpaceOnUse" x1="34.961" x2="81.746" xlink:href="#c" y1="51.804" y2="59.995"/><linearGradient id="g" gradientUnits="userSpaceOnUse" x1="34.545" x2="81.336" xlink:href="#c" y1="54.123" y2="62.315"/><linearGradient id="h" gradientUnits="userSpaceOnUse" x1="35.248" x2="81.999" xlink:href="#c" y1="50.304" y2="58.489"/><linearGradient id="i" gradientUnits="userSpaceOnUse" x1="35.474" x2="82.259" xlink:href="#c" y1="48.917" y2="57.108"/><linearGradient id="j" gradientUnits="userSpaceOnUse" x1="35.642" x2="82.409" xlink:href="#c" y1="48.061" y2="56.249"/><linearGradient id="k" gradientUnits="userSpaceOnUse" x1="35.344" x2="82.135" xlink:href="#c" y1="49.606" y2="57.798"/><g fill="#2023ad"><path d="m50 35.1v-3.2c-1.8-2.2-2.9-4.9-2.9-7.8s1.1-5.6 2.9-7.8v-3.2c-3.2 2.7-5.3 6.7-5.3 11s2 8.3 5.3 11z"/><path d="m48.5 38.2 1.5-1.7c-3.7-2.9-6.4-7.5-6.4-12.4 0-5 2.5-9.5 6.4-12.4v-.8l1.5-1.3v-1.5c-6.1 3-10.3 9-10.3 15.9 0 5.6 3 10.8 7.3 14.2zm19.8-30.7-3.1 2.1v-.6l3.2-2.1 2.8 1.8.1 2.1-1.6 1.7v-3.8l-.5-.3v4.5l-1 1.2z"/><path d="m67.8 12.1v2.5l-2.5 2.8v-7.1zm-11.2 7.8.1-6.9-3 1.8v1.7z"/><path d="m53.1 15.8v-5.6l3.5 2.2v-.6l-3.5-2.2-2.5 1.7v1.6l1 1.2v-2.5l.8-.6v4s.7.9.7.8z"/><path d="m52.1 4.8v5.1l1.1-.5 3.9 2.4v8.7l1.5 1.6v-21zm2.6 1.7-1.3.7v-2.5l1.3-.7zm3.1 2.4-1.3.7v-2.5l1.3-.7zm0-3.6-1.4.7v-2.5l1.3-.7zm2-4.2v22.2l2.9-3.1v-1.9l1.2.6.8-.8v-13.4zm1.4 19.9-.9-.4v-2.6l.9.4zm0-3.7-.9-.4v-2.6l.9.4zm0-3.8-.9-.4v-2.6l.9.4zm0-3.7-.9-.4v-2.6l.9.4zm0-3.7-.9-.4v-2.7l.9.4zm2.8 11.9-1.3-.7v-2.5l1.3.7zm0-3.6-1.3-.7v-2.5l1.3.7zm0-3.5-1.3-.7v-2.4l1.3.7zm0-3.5-1.3-.7v-2.4l1.3.7z"/></g><path d="m71.8 12.9v25.7h-4v-21.1zm.7-2.6-12.7 14-9.2-10.5v22l4.3-4.8v-6.1l2.9 2.9 15.6-17.5z" fill="#f13038"/><path d="m50.6 35.8 4.3-4.8v-6.1l-4.3-4.5z" fill="url(#a)"/><path d="m58.3 28.1-9.4 10.5h.9l8.8-9.8 2.2 2.7 7-7.8v-6.2z" fill="url(#b)"/><path d="m1.7 48.9v-2.5h.3c.3.6.6 1.1 1 1.5s.9.5 1.5.5c.4 0 .7-.1 1-.3s.4-.5.4-.9c0-.6-.6-1.2-1.8-1.9-.1-.1-.2-.1-.3-.2-.8-.5-1.4-.9-1.6-1.2-.3-.3-.4-.7-.4-1.1 0-.6.2-1 .7-1.4.4-.3 1-.5 1.8-.5.4 0 .8.1 1.3.2.4.1.7.2.7.2.1 0 .2 0 .3-.1s.2-.2.2-.3h.3v2.4h-.3c-.2-.6-.5-1.1-.9-1.4s-.9-.5-1.4-.5c-.4 0-.7.1-.9.3s-.3.4-.3.7c0 .1 0 .2.1.3 0 .1.1.2.2.3.2.2.6.5 1.3.9.3.2.6.3.7.4.7.4 1.2.8 1.4 1.1s.4.8.4 1.3c0 .7-.2 1.2-.7 1.6s-1.1.6-1.9.6c-.4 0-.9-.1-1.3-.2-.4-.2-.7-.2-.7-.2-.1 0-.2 0-.3.1s-.2.2-.2.3zm5.9-.2v-.3c.3 0 .5-.2.7-.3.2-.2.4-.6.7-1.3l2-4.7c.1-.2.1-.3.2-.5s.2-.4.2-.6h.4l2.7 6.4c.1.2.2.4.3.5l.3.3c.1.1.2.1.3.1h.3v.3h-3.4v-.3c.3 0 .5-.1.7-.1.1-.1.2-.2.2-.4v-.1c0-.1 0-.1-.1-.2l-.4-1.1h-2.9l-.4.9c0 .1-.1.1-.1.2v.2c0 .2.1.3.2.4s.3.2.5.2h.1v.3c0 .1-2.5.1-2.5.1zm2.4-2.7h2.4l-1.2-2.8zm7.7-3.2v4.7c0 .4.1.6.2.7s.4.2.8.2v.3h-2.6v-.3c.4 0 .7-.1.8-.2s.2-.4.2-.7v-5.4c-.2-.3-.4-.4-.5-.5-.2-.1-.4-.2-.6-.2v-.3h2.1l4.8 5.2v-4c0-.4-.1-.6-.2-.7s-.4-.2-.8-.2v-.3h2.6v.3c-.4 0-.7.1-.8.2s-.2.4-.2.8v6.5h-.3c-.7-.8-1.4-1.6-2.2-2.4l-.4-.4zm15.2-1.7v.3c-.3.1-.6.3-.8.5s-.4.6-.6 1.1l-2.1 4.7c0 .1-.1.2-.2.4s-.2.4-.3.7h-.4l-2.8-6.4c-.2-.4-.3-.7-.5-.8s-.4-.2-.6-.2v-.3h3.4v.3c-.3 0-.5.1-.7.2-.1.1-.2.2-.2.4v.2c0 .1 0 .1.1.2l1.9 4.5 1.8-4.3c0-.1 0-.1.1-.2v-.2c0-.2-.1-.3-.2-.5-.1-.1-.3-.2-.5-.2h-.1v-.3zm4.3 0v.3c-.5 0-.8.1-.9.2-.2.1-.2.4-.2.7v5.2c0 .4.1.6.2.7.2.1.5.2.9.2v.3h-3.9v-.3c.5 0 .8-.1.9-.2.2-.1.2-.4.2-.7v-5.2c0-.4-.1-.6-.2-.7-.2-.1-.5-.2-.9-.2v-.3zm3.4 7.6v-.3c.4 0 .7-.1.8-.2s.2-.4.2-.7v-5.2c0-.4-.1-.6-.2-.7s-.4-.2-.8-.2v-.3h3.5c1.1 0 2 .2 2.5.5.6.3.8.8.8 1.5 0 .5-.2.9-.5 1.3-.3.3-.9.6-1.5.8l2.3 2.8c.1.2.3.3.4.4s.3.1.5.1v.3h-2.1l-2.6-3.2c0-.1-.1-.1-.1-.1h-.6v2.2c0 .4.1.6.2.7s.4.2.8.2v.3c.1-.2-3.6-.2-3.6-.2zm2.6-3.8h.6c.6 0 1.1-.2 1.5-.5.3-.3.5-.7.5-1.3 0-.5-.2-.9-.5-1.1-.3-.3-.8-.4-1.4-.4-.3 0-.5 0-.6.1s-.1.2-.1.5zm5.7-3.8h6.7l.1 1.7h-.3c-.1-.4-.3-.7-.5-.9-.3-.2-.7-.3-1.3-.3h-1.5c-.2 0-.4 0-.4.1-.1 0-.1.2-.1.3v2.4h1.7c.4 0 .7-.1.9-.2.2-.2.3-.4.4-.7h.3v2.6h-.3c-.1-.4-.2-.7-.5-.9-.2-.2-.6-.2-1.1-.2h-1.4v2.6c0 .3.1.4.2.5s.3.1.7.1h1.2c.6 0 1.1-.1 1.5-.3s.7-.6 1-1.2h.3l-.6 2h-6.8v-.3c.4 0 .7-.1.8-.2s.2-.4.2-.7v-5.2c0-.4-.1-.6-.2-.7s-.4-.2-.8-.2c-.2 0-.2-.3-.2-.3zm7.6 7.6v-.3c.3 0 .5-.2.7-.3.2-.2.4-.6.7-1.3l2-4.7c.1-.2.1-.3.2-.5s.2-.4.2-.6h.4l2.7 6.4c.1.2.2.4.3.5l.3.3c.1.1.2.1.3.1h.3v.3h-3.5v-.3c.3 0 .5-.1.7-.1s.2-.2.2-.4v-.1c0-.1 0-.1-.1-.2l-.4-1.1h-2.9l-.4.9c0 .1-.1.1-.1.2v.2c0 .2.1.3.2.4s.3.2.5.2h.1v.3c.1.1-2.4.1-2.4.1zm2.4-2.7h2.4l-1.2-2.9zm6.1-4.9h3.6v.3c-.4 0-.6.1-.8.2s-.2.4-.2.7v5.2c0 .3.1.5.2.6s.4.1.9.1c.8 0 1.4-.1 1.8-.3s.8-.6 1-1.2h.3l-.6 2h-6.2v-.3c.4 0 .6-.1.8-.2.1-.1.2-.4.2-.7v-5.2c0-.4-.1-.6-.2-.7s-.4-.2-.8-.2zm10.1 0h6.7l.1 1.7h-.3c-.1-.4-.3-.7-.5-.9-.3-.2-.7-.3-1.3-.3h-1.4c-.2 0-.4 0-.4.1-.1 0-.1.2-.1.3v2.4h1.7c.4 0 .7-.1.9-.2.2-.2.3-.4.4-.7h.3v2.6h-.3c-.1-.4-.2-.7-.5-.9s-.6-.3-1.2-.3h-1.4v2.6c0 .3.1.4.2.5s.3.1.7.1h1.2c.6 0 1.1-.1 1.5-.3s.7-.6 1-1.2h.3l-.6 2h-7v-.3c.4 0 .7-.1.8-.2s.2-.4.2-.7v-5.2c0-.4-.1-.6-.2-.7s-.4-.2-.8-.2zm7.8 7.8v-2.5h.3c.3.6.6 1.1 1 1.5s.9.5 1.5.5c.4 0 .7-.1 1-.3s.4-.5.4-.9c0-.6-.6-1.2-1.8-1.9-.1-.1-.2-.1-.3-.2-.8-.5-1.4-.9-1.6-1.2-.3-.3-.4-.7-.4-1.1 0-.6.2-1 .7-1.4.4-.3 1-.5 1.8-.5.4 0 .8.1 1.3.2.4.1.7.2.7.2.1 0 .2 0 .3-.1s.2-.2.2-.3h.3v2.4h-.3c-.2-.6-.5-1.1-.9-1.4s-.9-.5-1.4-.5c-.4 0-.7.1-.9.3s-.3.4-.3.7c0 .1 0 .2.1.3 0 .1.1.2.2.3.2.2.6.5 1.3.9.3.2.6.3.7.4.7.4 1.2.8 1.4 1.1s.4.8.4 1.3c0 .7-.2 1.2-.7 1.6s-1.1.6-1.9.6c-.4 0-.9-.1-1.3-.2-.4-.2-.7-.2-.7-.2-.1 0-.2 0-.3.1s-.2.2-.2.3zm6.3-7.8h7l.2 1.9h-.3c-.1-.5-.3-.9-.6-1.1s-.7-.3-1.3-.3h-.7v5.9c0 .4.1.6.2.7s.4.2.8.2v.3h-3.6v-.3c.4 0 .6-.1.8-.2.1-.1.2-.4.2-.7v-5.9h-.7c-.6 0-1 .1-1.2.3-.3.2-.5.6-.6 1.1h-.3zm6.7 7.6v-.3c.3 0 .5-.2.7-.3s.4-.6.7-1.3l2-4.7c.1-.2.1-.3.2-.5s.2-.4.2-.6h.4l2.7 6.4c.1.2.2.4.3.5l.3.3c.1.1.2.1.3.1h.3v.3h-3.4v-.3c.3 0 .5-.1.7-.1.1-.1.2-.2.2-.4v-.1c0-.1 0-.1-.1-.2l-.4-1.1h-2.9l-.3.9c0 .1-.1.1-.1.2v.2c0 .2.1.3.2.4s.3.2.5.2h.1v.3c-.1.1-2.6.1-2.6.1zm2.4-2.7h2.4l-1.2-2.8zm5.4-4.9h7l.2 1.9h-.3c-.1-.5-.3-.9-.6-1.1s-.7-.3-1.3-.3h-.7v5.9c0 .4.1.6.2.7s.4.2.8.2v.3h-3.6v-.3c.4 0 .6-.1.8-.2.1-.1.2-.4.2-.7v-5.9h-.7c-.6 0-1 .1-1.2.3-.3.2-.5.6-.6 1.1h-.3zm7.6 0h6.7l.1 1.7h-.3c-.1-.4-.3-.7-.5-.9-.3-.2-.7-.3-1.3-.3h-1.4c-.2 0-.4 0-.4.1-.1 0-.1.2-.1.3v2.4h1.7c.4 0 .7-.1.9-.2.2-.2.3-.4.4-.7h.3v2.6h-.3c-.1-.4-.2-.7-.5-.9s-.6-.3-1.2-.3h-1.4v2.6c0 .3.1.4.2.5s.3.1.7.1h1.2c.6 0 1.1-.1 1.5-.3s.7-.6 1-1.2h.3l-.6 2h-6.8v-.3c.4 0 .7-.1.8-.2s.2-.4.2-.7v-5.2c0-.4-.1-.6-.2-.7s-.4-.2-.8-.2z" fill="#2023ad"/><path d="m40.4 51.8c.8 0 1.4.2 1.9.5.4.3.7.8.7 1.4 0 .7-.2 1.2-.7 1.6s-1.2.5-2.2.5h-1v1.8c0 .3.1.6.2.7s.4.2.7.2v.2h-3.3v-.2c.4 0 .6-.1.7-.2s.2-.3.2-.7v-4.8c0-.3-.1-.6-.2-.7s-.4-.2-.7-.2v-.2c0 .1 3.7.1 3.7.1zm-1.3 3.7h.6c.5 0 .9-.2 1.2-.5s.5-.7.5-1.3c0-.5-.1-.8-.4-1.1s-.7-.4-1.2-.4c-.3 0-.5 0-.6.1s-.1.3-.1.5z" fill="url(#d)"/><path d="m50.6 51.8v.2c-.3.1-.5.2-.7.4s-.4.5-.6 1l-1.9 4.3c0 .1-.1.2-.2.4s-.1.4-.2.6h-.3l-2.5-5.7c-.2-.4-.3-.6-.4-.7s-.3-.2-.5-.2v-.3h3.1v.2c-.3 0-.5.1-.6.1-.1.1-.2.2-.2.3v.2c0 .1 0 .1.1.2l1.7 4.1 1.7-3.9c0-.1 0-.1.1-.2v-.2c0-.2-.1-.3-.2-.4s-.3-.1-.5-.1h-.1v-.3z" fill="url(#e)"/><path d="m50.9 51.8h6.4l.2 1.8h-.3c-.1-.5-.3-.8-.6-1-.2-.2-.6-.3-1.1-.3h-.6v5.4c0 .3.1.6.2.7s.4.2.7.2v.2h-3.3v-.2c.3 0 .6-.1.7-.2s.2-.3.2-.7v-5.4h-.6c-.5 0-.9.1-1.1.3s-.4.5-.6 1h-.3z" fill="url(#f)"/><path d="m57.8 57.5c.2 0 .4.1.5.2s.2.3.2.5-.1.4-.2.5-.3.2-.5.2-.4-.1-.5-.2c-.2-.1-.2-.3-.2-.5s.1-.4.2-.5.3-.2.5-.2z" fill="url(#g)"/><path d="m62.1 51.8h3.3v.2c-.3 0-.6.1-.7.2s-.2.3-.2.7v4.8c0 .3.1.4.2.5s.4.1.8.1c.7 0 1.3-.1 1.7-.3s.7-.6.9-1.1h.3l-.5 1.9h-5.8v-.2c.3 0 .6-.1.7-.2s.2-.3.2-.7v-4.8c0-.3-.1-.6-.2-.7s-.4-.2-.7-.2z" fill="url(#h)"/><path d="m67.9 51.8h6.4l.2 1.8h-.3c-.1-.5-.3-.8-.6-1-.2-.2-.6-.3-1.1-.3h-.6v5.4c0 .3.1.6.2.7s.4.2.7.2v.2h-3.3v-.2c.3 0 .6-.1.7-.2s.2-.3.2-.7v-5.4h-.6c-.5 0-.9.1-1.1.3s-.4.5-.6 1h-.3z" fill="url(#i)"/><path d="m78.4 51.8c1.3 0 2.3.3 3.1 1 .8.6 1.1 1.5 1.1 2.6s-.4 1.9-1.1 2.5c-.8.6-1.8.9-3.2.9h-3.4v-.2c.4 0 .6-.1.7-.2s.2-.3.2-.7v-4.8c0-.3-.1-.6-.2-.7s-.4-.2-.7-.2v-.2zm-1.2 5.8c0 .3.1.5.2.6s.4.1.7.1c1 0 1.7-.3 2.2-.8s.8-1.2.8-2.2-.3-1.8-.8-2.3-1.3-.8-2.3-.8c-.3 0-.6 0-.7.1s-.2.3-.2.5z" fill="url(#j)"/><path d="m84.4 57.5c.2 0 .4.1.5.2s.2.3.2.5-.1.4-.2.5-.3.2-.5.2-.4-.1-.5-.2-.2-.3-.2-.5.1-.4.2-.5c.2-.1.3-.2.5-.2z" fill="url(#k)"/><path d="m1.9 48.9v-2.5h.3c.3.6.6 1.1 1 1.5s.9.5 1.5.5c.4 0 .7-.1 1-.3s.4-.5.4-.9c0-.6-.6-1.2-1.8-1.9-.1-.1-.2-.1-.3-.2-.8-.5-1.4-.9-1.6-1.2-.3-.3-.4-.7-.4-1.1 0-.6.2-1 .7-1.4.4-.3 1-.5 1.8-.5.4 0 .8.1 1.3.2s.7.2.7.2c.1 0 .2 0 .3-.1s.2-.2.2-.3h.3v2.4h-.3c-.2-.6-.5-1.1-.9-1.4s-.9-.5-1.4-.5c-.4 0-.7.1-.9.3s-.3.4-.3.7c0 .1 0 .2.1.3s.1.2.2.3c.2.2.6.5 1.3.9.3.2.6.3.7.4.7.4 1.2.8 1.4 1.1.3.4.4.8.4 1.3 0 .7-.2 1.2-.7 1.6s-1.1.6-1.9.6c-.4 0-.9-.1-1.3-.2-.4-.2-.7-.2-.7-.2-.1 0-.2 0-.3.1s-.2.2-.2.3zm5.9-.2v-.3c.3 0 .5-.2.7-.3.2-.2.4-.6.7-1.3l2-4.7c.1-.2.1-.3.2-.5s.2-.4.2-.6h.5l2.7 6.4c.1.2.2.4.3.5l.3.3c.1.1.2.1.3.1h.3v.3h-3.4v-.3c.3 0 .5-.1.7-.1.1-.1.2-.2.2-.4v-.1c0-.1 0-.1-.1-.2l-.4-1.1h-2.9l-.4.9c0 .1-.1.1-.1.2v.2c0 .2.1.3.2.4s.3.2.5.2h.1v.3c-.1.1-2.6.1-2.6.1zm2.4-2.7h2.4l-1.2-2.8zm7.7-3.2v4.7c0 .4.1.6.2.7s.4.2.8.2v.3h-2.6v-.3c.4 0 .7-.1.8-.2s.2-.4.2-.7v-5.4c-.2-.3-.4-.4-.5-.5-.2-.1-.4-.2-.6-.2v-.3h2.2l4.8 5.2v-4c0-.4-.1-.6-.2-.7s-.4-.2-.8-.2v-.3h2.6v.3c-.4 0-.7.1-.8.2s-.2.4-.2.8v6.5h-.3c-.7-.8-1.4-1.6-2.2-2.4l-.4-.4zm15.2-1.7v.3c-.3.1-.6.3-.8.5s-.4.6-.6 1.1l-2.1 4.7c0 .1-.1.2-.2.4s-.2.4-.3.7h-.4l-2.6-6.4c-.2-.4-.3-.7-.5-.8s-.4-.2-.6-.2v-.3h3.4v.3c-.3 0-.5.1-.7.2-.1.1-.2.2-.2.4v.2c0 .1 0 .1.1.2l1.9 4.5 1.8-4.3c0-.1 0-.1.1-.2v-.2c0-.2-.1-.3-.2-.5-.1-.1-.3-.2-.5-.2h-.1v-.3zm4.3 0v.3c-.5 0-.8.1-.9.2-.2.1-.2.4-.2.7v5.2c0 .4.1.6.2.7.2.1.5.2.9.2v.3h-3.9v-.3c.5 0 .8-.1.9-.2.2-.1.2-.4.2-.7v-5.2c0-.4-.1-.6-.2-.7-.2-.1-.5-.2-.9-.2v-.3zm3.4 7.6v-.3c.4 0 .7-.1.8-.2s.2-.4.2-.7v-5.2c0-.4-.1-.6-.2-.7s-.4-.2-.8-.2v-.3h3.5c1.1 0 2 .2 2.5.5s.8.8.8 1.5c0 .5-.2.9-.5 1.3s-.9.6-1.5.8l2.3 2.8c.1.2.3.3.4.4s.3.1.5.1v.3h-2.1l-2.6-3.3c0-.1-.1-.1-.1-.1h-.6v2.2c0 .4.1.6.2.7s.4.2.8.2v.3c.1-.1-3.6-.1-3.6-.1zm2.7-3.8h.6c.6 0 1.1-.2 1.5-.5.3-.3.5-.7.5-1.3 0-.5-.2-.9-.5-1.1-.3-.3-.8-.4-1.4-.4-.3 0-.5 0-.6.1s-.1.2-.1.5zm5.7-3.8h6.7l.1 1.7h-.3c-.1-.4-.3-.7-.5-.9-.3-.2-.7-.3-1.3-.3h-1.4c-.2 0-.4 0-.4.1-.1 0-.1.2-.1.3v2.4h1.7c.4 0 .7-.1.9-.2.2-.2.3-.4.4-.7h.1v2.6h-.3c-.1-.4-.2-.7-.5-.9-.2-.2-.6-.2-1.1-.2h-1.4v2.6c0 .3.1.4.2.5s.3.1.7.1h1.2c.6 0 1.1-.1 1.5-.3s.7-.6 1-1.2h.3l-.6 2h-6.8v-.3c.4 0 .7-.1.8-.2s.2-.4.2-.7v-5.2c0-.4-.1-.6-.2-.7s-.4-.2-.8-.2c-.1 0-.1-.3-.1-.3zm7.5 7.6v-.3c.3 0 .5-.2.7-.3.2-.2.4-.6.7-1.3l2-4.7c.1-.2.1-.3.2-.5s.2-.4.2-.6h.4l2.7 6.4c.1.2.2.4.3.5l.3.3c.1.1.2.1.3.1h.3v.3h-3.4v-.3c.3 0 .5-.1.7-.1s.2-.2.2-.4v-.1c0-.1 0-.1-.1-.2l-.4-1.1h-2.9l-.4.9c0 .1-.1.1-.1.2v.2c0 .2.1.3.2.4s.3.2.5.2h.1v.3c0 .1-2.5.1-2.5.1zm2.4-2.7h2.4l-1.2-2.8zm6.1-4.9h3.6v.3c-.4 0-.6.1-.8.2-.1.1-.2.4-.2.7v5.2c0 .3.1.5.2.6s.4.1.9.1c.8 0 1.4-.1 1.8-.3s.8-.6 1-1.2h.3l-.6 2h-6.2v-.3c.4 0 .6-.1.8-.2.1-.1.2-.4.2-.7v-5.2c0-.4-.1-.6-.2-.7s-.4-.2-.8-.2zm10.1 0h6.7l.1 1.7h-.3c-.1-.4-.3-.7-.5-.9-.3-.2-.7-.3-1.3-.3h-1.4c-.2 0-.4 0-.4.1-.1 0-.1.2-.1.3v2.4h1.7c.4 0 .7-.1.9-.2.2-.2.3-.4.4-.7h.3v2.6h-.3c-.1-.4-.2-.7-.5-.9s-.6-.3-1.2-.3h-1.4v2.6c0 .3.1.4.2.5s.3.1.7.1h1.2c.6 0 1.1-.1 1.5-.3s.7-.6 1-1.2h.3l-.6 2h-6.8v-.3c.4 0 .7-.1.8-.2s.2-.4.2-.7v-5.2c0-.4-.1-.6-.2-.7s-.4-.2-.8-.2zm7.8 7.8v-2.5h.3c.3.6.6 1.1 1 1.5s.9.5 1.5.5c.4 0 .7-.1 1-.3s.4-.5.4-.9c0-.6-.6-1.2-1.8-1.9-.1-.1-.2-.1-.3-.2-.8-.5-1.4-.9-1.6-1.2-.3-.3-.4-.7-.4-1.1 0-.6.2-1 .7-1.4.4-.3 1-.5 1.8-.5.4 0 .8.1 1.3.2.4.1.7.2.7.2.1 0 .2 0 .3-.1s.2-.2.2-.3h.3v2.4h-.4c-.2-.6-.5-1.1-.9-1.4s-.9-.5-1.4-.5c-.4 0-.7.1-.9.3s-.3.4-.3.7c0 .1 0 .2.1.3s.1.2.2.3c.2.2.6.5 1.3.9.3.2.6.3.7.4.7.4 1.2.8 1.4 1.1.3.4.4.8.4 1.3 0 .7-.2 1.2-.7 1.6s-1.1.6-1.9.6c-.4 0-.9-.1-1.3-.2-.4-.2-.7-.2-.7-.2-.1 0-.2 0-.3.1s-.2.2-.2.3zm6.3-7.8h7l.2 1.9h-.3c-.1-.5-.3-.9-.6-1.1s-.7-.3-1.3-.3h-.7v5.9c0 .4.1.6.2.7s.4.2.8.2v.3h-3.6v-.3c.4 0 .6-.1.8-.2.1-.1.2-.4.2-.7v-5.9h-.7c-.6 0-1 .1-1.2.3-.3.2-.5.6-.6 1.1h-.3zm6.7 7.6v-.3c.3 0 .5-.2.7-.3.2-.2.4-.6.7-1.3l2-4.7c.1-.2.1-.3.2-.5s.2-.4.2-.6h.4l2.7 6.4c.1.2.2.4.3.5l.3.3c.1.1.2.1.3.1h.3v.3h-3.4v-.3c.3 0 .5-.1.7-.1.1-.1.2-.2.2-.4v-.1c0-.1 0-.1-.1-.2l-.4-1.1h-2.9l-.4.9c0 .1-.1.1-.1.2v.2c0 .2.1.3.2.4s.3.2.5.2h.1v.3c0 .1-2.5.1-2.5.1zm2.4-2.7h2.4l-1.2-2.8zm5.4-4.9h7l.2 1.9h-.3c-.1-.5-.3-.9-.6-1.1s-.7-.3-1.3-.3h-.7v5.9c0 .4.1.6.2.7s.4.2.8.2v.3h-3.6v-.3c.4 0 .6-.1.8-.2.1-.1.2-.4.2-.7v-5.9h-.7c-.6 0-1 .1-1.2.3-.3.2-.5.6-.6 1.1h-.3zm7.6 0h6.7l.1 1.7h-.3c-.1-.4-.3-.7-.5-.9-.3-.2-.7-.3-1.3-.3h-1.4c-.2 0-.4 0-.4.1-.1 0-.1.2-.1.3v2.4h1.7c.4 0 .7-.1.9-.2.2-.2.3-.4.4-.7h.3v2.6h-.3c-.1-.4-.2-.7-.5-.9s-.6-.3-1.2-.3h-1.5v2.6c0 .3.1.4.2.5s.3.1.7.1h1.2c.6 0 1.1-.1 1.5-.3s.7-.6 1-1.2h.3l-.6 2h-6.8v-.3c.4 0 .7-.1.8-.2s.2-.4.2-.7v-5.2c0-.4-.1-.6-.2-.7s-.4-.2-.8-.2z" fill="#2023ad"/><path d="m40.6 51.8c.8 0 1.4.2 1.9.5.4.3.7.8.7 1.4 0 .7-.2 1.2-.7 1.6-.5.3-1.2.5-2.2.5h-.8v1.8c0 .3.1.6.2.7s.4.2.7.2v.2h-3.3v-.2c.4 0 .6-.1.7-.2s.2-.3.2-.7v-4.8c0-.3-.1-.6-.2-.7s-.4-.2-.7-.2v-.2c-.2.1 3.5.1 3.5.1zm-1.3 3.7h.6c.5 0 .9-.2 1.2-.5s.5-.7.5-1.3c0-.5-.1-.8-.4-1.1s-.7-.4-1.2-.4c-.3 0-.5 0-.6.1s-.1.2-.1.4zm11.5-3.7v.2c-.3.1-.5.2-.7.4s-.4.5-.6 1l-1.9 4.3c0 .1-.1.2-.2.4s-.1.4-.2.6h-.3l-2.6-5.7c-.2-.4-.3-.6-.4-.7s-.3-.2-.5-.2v-.3h3.1v.2c-.3 0-.5.1-.6.1-.1.1-.2.2-.2.3v.2c0 .1 0 .1.1.2l1.7 4.1 1.6-3.9c0-.1 0-.1.1-.2v-.2c0-.2-.1-.3-.2-.4s-.3-.1-.5-.1h-.1v-.3zm.3 0h6.4l.2 1.8h-.3c-.1-.5-.3-.8-.6-1-.2-.2-.6-.3-1.1-.3h-.6v5.4c0 .3.1.6.2.7s.4.2.7.2v.2h-3.3v-.2c.3 0 .6-.1.7-.2s.2-.3.2-.7v-5.4h-.6c-.5 0-.9.1-1.1.3s-.4.5-.6 1h-.3zm6.9 5.7c.2 0 .4.1.5.2s.2.3.2.5-.1.4-.2.5-.3.2-.5.2-.4-.1-.5-.2-.2-.3-.2-.5.1-.4.2-.5.3-.2.5-.2zm4.3-5.7h3.3v.2c-.3 0-.6.1-.7.2s-.2.3-.2.7v4.8c0 .3.1.4.2.5s.4.1.8.1c.7 0 1.3-.1 1.7-.3s.7-.6.9-1.1h.3l-.5 1.9h-5.7v-.2c.3 0 .6-.1.7-.2s.2-.3.2-.7v-4.8c0-.3-.1-.6-.2-.7s-.4-.2-.7-.2v-.2zm5.8 0h6.4l.2 1.8h-.3c-.1-.5-.3-.8-.6-1-.2-.2-.6-.3-1.1-.3h-.6v5.4c0 .3.1.6.2.7s.4.2.7.2v.2h-3.3v-.2c.3 0 .6-.1.7-.2s.2-.3.2-.7v-5.4h-.6c-.5 0-.9.1-1.1.3s-.4.5-.6 1h-.3zm10.5 0c1.3 0 2.3.3 3.1 1 .8.6 1.1 1.5 1.1 2.6s-.4 1.9-1.1 2.5c-.8.6-1.8.9-3.2.9h-3.4v-.2c.4 0 .6-.1.7-.2s.2-.3.2-.7v-4.8c0-.3-.1-.6-.2-.7s-.4-.2-.7-.2v-.2zm-1.2 5.8c0 .3.1.5.2.6s.4.1.7.1c1 0 1.7-.3 2.2-.8s.8-1.2.8-2.2-.3-1.8-.8-2.3-1.3-.8-2.3-.8c-.3 0-.6 0-.7.1s-.2.3-.2.5zm7.2-.1c.2 0 .4.1.5.2s.2.3.2.5-.1.4-.2.5-.3.2-.5.2-.4-.1-.5-.2-.2-.3-.2-.5.1-.4.2-.5c.2-.1.3-.2.5-.2z" fill="#ee3037"/></svg>