<svg height="2500" viewBox="0 0 192.756 192.756" width="2500" xmlns="http://www.w3.org/2000/svg"><g clip-rule="evenodd" fill-rule="evenodd"><path d="M0 0h192.756v192.756H0z" fill="#fff"/><path d="M8.773 17.16v63.589l87.75 94.612 87.728-94.612V17.16z"/><path d="M178.449 22.94v55.536c-1.479 1.588-77.953 84.064-81.925 88.391-3.994-4.326-80.491-86.802-81.969-88.391V22.94z" fill="#fff"/><path d="M22.454 78.477l64.913 69.988V78.477z" fill="#cd3529"/><path d="M172.668 72.696H20.335V28.721h152.333zm-2.096 5.781l-64.914 69.988V78.477z"/><path d="M126.377 38.363h-23.123v24.69h4.81V52.154h12.532v-2.891h-12.532v-8.01h18.313zM34.81 42.181c0-.508.419-.927.904-.927h17.409v-2.89H31.434c-.794 0-1.456.64-1.456 1.457v10.877a1.47 1.47 0 0 0 1.456 1.457h15.953c.508 0 .927.397.927.904v6.178a.933.933 0 0 1-.927.927H29.978v2.89h21.711c.794 0 1.434-.662 1.434-1.456v-10.9c0-.794-.64-1.434-1.434-1.434H35.736a.932.932 0 0 1-.926-.927zm54.962 8.516a1.47 1.47 0 0 1-1.456 1.457H71.458v10.899h-4.832v-24.69h21.689a1.47 1.47 0 0 1 1.456 1.457v10.877zm-18.314-1.434h12.577a.913.913 0 0 0 .904-.927V42.18a.913.913 0 0 0-.904-.927H71.458zm86.759 7.987v1.986c0 .507-.42.927-.928.927h-11.672c-.484 0-.904-.419-.904-.927V42.181c0-.508.396-.927.904-.927h11.672c.508 0 .928.419.928.927v1.963h4.809V39.82c0-.816-.639-1.457-1.434-1.457h-20.256c-.793 0-1.455.64-1.455 1.457v21.777c0 .794.662 1.456 1.455 1.456h20.256c.795 0 1.434-.662 1.434-1.456V57.25z" fill="#fff"/></g></svg>