<svg height="500pt" viewBox="150 148.9 200 200.2" width="500pt" xmlns="http://www.w3.org/2000/svg"><path d="m150.2 233.7.3 84.8 2.3 5.8c3.5 8.5 11.4 16.5 20.4 20.8l7.3 3.4 84.8.3 84.7.3v-80.9c0-50.5-.4-83-1-86.3-2.4-12.7-10.9-23.6-22.8-29.2l-6.7-3.2-84.8-.3-84.7-.3zm97.3-50.1c3.9 1.4 8 2.8 9.3 3.1 1.8.4 2.2 1.2 2.2 4.7-.1 7-2 12.8-5.7 17.4l-3.6 4.4 3.9-2c6-3.1 8.4-7.6 9.1-16.7l.6-7.8 14.1.6c16 .6 22.5 1.8 31.1 5.7 8.4 3.8 14.5 9.6 18.9 17.9s8.1 21.8 6.6 23.6c-.6.7-1.7 5-2.5 9.6s-3.4 14.2-5.8 21.4c-4 11.8-4.6 13-6.9 13.3-2.2.3-2.6-.2-3.2-3.2-.8-4.3-9.4-17.4-13.9-21.2-1.8-1.5-5.6-3.8-8.5-5.2-4.5-2-6.5-2.3-12.5-2-9 .4-14.7 3.1-21.6 9.9-4.8 4.9-14.1 18.5-14.1 20.8 0 1.2-4 2.4-6.7 1.9-1.6-.3-1.9-1.9-2.4-16.5-.5-15.4-.6-16.4-3.5-21.9-3.4-6.6-6.4-9.2-11.7-10.1-3.2-.5-5.5.3-15.5 5-18 8.6-30.6 10.7-43.5 7-5.8-1.6-5.9-1.7-5.3-4.6.8-4 1-4.1 4.7-2.8 5.7 2 15 1.4 20.5-1.4 7.9-3.9 17.6-15.6 27.4-33.2 9.3-16.6 13.8-20.2 25-20.2 4.5 0 8.7.7 13.5 2.5zm88.2 57.1c-.3 1-.5.2-.5-1.7s.2-2.7.5-1.8c.2 1 .2 2.6 0 3.5zm-121.9 53.6c.2 1.1-.3 1.7-1.7 1.7-2.3 0-3.5-1.5-2.6-3.1 1-1.5 3.9-.6 4.3 1.4zm-43.9-.4c.8.5 1.1 1.6.8 2.4-.4 1.2-1.5 1.4-4.1 1-3.1-.5-3.6-.3-3.6 1.3 0 1.2 1.5 2.7 3.8 3.9 3.1 1.7 3.7 2.6 4 5.7.2 2.8-.2 4-2 5.2-2.7 2-7.8 2.1-10.3.3-2.8-2.1-1-3.8 3.4-3.1 5.3.8 6.4-1.9 1.8-4.6-4.9-2.9-5.7-3.8-5.7-6.7 0-3.9 2.7-6.3 6.9-6.3 2 0 4.2.4 5 .9zm120.3.8c2.9 2.6 2.3 6.8-1.8 11.2l-3.5 4 3.8.3c3 .2 3.8.7 3.8 2.3 0 1.8-.8 2-7.2 2.3-9 .4-9.3-.7-2.8-8 6.2-6.9 5.9-12.2-.5-8.8-1.3.7-2.1.6-2.9-.4-.9-1.1-.7-1.8 1.1-3 2.9-2.1 7.7-2 10 .1zm17.6 5.5c.2 3.8.7 6.8 1.2 6.8.6 0 1 .7 1 1.5s-.4 1.5-.9 1.5-1.1 1-1.3 2.2c-.2 1.5-1 2.3-2.3 2.3s-2.1-.8-2.3-2.3c-.3-1.9-.9-2.2-4.8-2.2-5.7 0-5.7-1 .4-10 3.5-5.2 5.2-6.9 6.7-6.8 1.7.3 2 1.2 2.3 7zm35.8-5.9c.6 1.6-6.2 18.1-8.2 19.8-.7.6-2 .9-2.8.6-1.2-.5-.9-2 1.9-8.1 1.9-4.1 3.5-7.9 3.5-8.5s-2.1-1.1-5-1.1c-3.5 0-5-.4-5-1.3 0-2.3 1.1-2.7 8.2-2.7 4.7 0 7 .4 7.4 1.3zm-157.2 5.3c2.2 2.1 2.3 15.4.2 15.4-.8 0-1.8-.5-2.2-1.1-.4-.8-.9-.8-1.7 0-1.5 1.5-6 1.4-7.5-.1-1.6-1.6-1.5-6.3.1-7.7.8-.6 2.8-1.4 4.5-1.7 4.3-.9 4.1-2.4-.3-2.4-3.3 0-4.6-1.6-2.8-3.3 1.3-1.3 8.2-.7 9.7.9zm10.4 3.6c1.7 4.4 2.2 4.9 2.8 3.3 2.6-7.3 3.4-8.5 5.3-8.5 2.7 0 2.7.1-.8 9-2.1 5.5-3.4 7.6-4.8 7.8-2.5.4-3.5-.9-6.1-8.4-2.7-7.5-2.7-8.4-.3-8.4 1.4 0 2.5 1.4 3.9 5.2zm17 3c-.3 7.5-.5 8.3-2.3 8.3s-2-.8-2.3-6.9c-.4-8.2.1-9.6 2.8-9.6 2 0 2.1.5 1.8 8.2zm8.2-7.2c0 .7.6.7 1.9 0 6.4-3.4 10.4.6 9.9 9.7-.3 5.1-.6 5.8-2.5 6.1-2 .3-2.2-.1-2.5-6-.2-5.2-.6-6.3-2.2-6.6-2.6-.5-3.6 1.5-3.6 7.6 0 5-.2 5.3-2.2 5-2.1-.3-2.3-.9-2.6-7.2-.2-3.8-.1-7.5.2-8.3.6-1.5 3.6-1.8 3.6-.3zm30 9c0 5.2-.4 10-.8 10.6-2.6 4-13.2 4.6-13.2.9 0-.9 1.5-1.5 4.2-1.7 3.1-.2 4.4-.8 4.6-2 .3-1.5-.2-1.7-2.6-1.2-4.4.9-7.2-2.3-7.2-8.1 0-6.4 2.2-8.4 9.4-8.2l5.6.1zm15-9c2.1 1.3.3 2.8-4 3.2l-3.5.3 4 2.1c2.8 1.4 4.1 2.8 4.3 4.5.4 3.9-1.2 5.3-6.5 5.3-4.1.1-4.8-.2-5.1-2s.1-2 3.3-1.6c4.6.5 4.6-1.3 0-3.2-2.9-1.2-3.5-2-3.5-4.5 0-1.8.7-3.4 1.8-4 2.2-1.3 7.2-1.4 9.2-.1zm50.7 1.6 1.6 2.6 1.4-2.6c.9-1.7 2.2-2.6 3.8-2.6 3 0 3 0 .4 4.5l-2.2 3.6 2.2 3.9c2.6 4.6 2.6 5 .2 5-1.1 0-2.8-1.2-3.9-2.7l-1.9-2.6-1.8 2.6c-1.6 2.5-4.4 3.5-5.8 2.1-.3-.4.5-2.3 1.8-4.2l2.5-3.6-2-3.4c-1.1-1.8-2-3.7-2-4.3 0-2 4-.8 5.7 1.7z"/><path d="m227.5 195.4c-2.7 2-1.5 5.1 2 5.1 2.3 0 3.1-.5 3.3-2.2.4-2.9-2.8-4.7-5.3-2.9zm73.3 107.6c-1.5 2.7-1.6 3.2-.2 3.7 2.1.8 2.6 0 2.2-3.6l-.3-3.1zm-121.1 5.1c-2.1 1.2-1.4 2.9 1.3 2.9 1.8 0 3.4-2.3 2.3-3.4-.8-.8-1.5-.7-3.6.5zm62.7-4.7c-1.2 3.1 0 7.1 2.3 7.4 2.5.4 3.8-2.6 2.9-6.4-.7-2.7-4.3-3.4-5.2-1z"/></svg>