<svg fill="none" height="2429" viewBox="-.33 -.0024832 34.40539282 34.0794832" width="2500" xmlns="http://www.w3.org/2000/svg"><path d="m17.045 0a17.155 17.155 0 0 0 -9.468 2.841 16.911 16.911 0 0 0 -6.279 7.573c-1.29 3.084-1.628 6.476-.971 9.751s2.28 6.282 4.663 8.642a17.089 17.089 0 0 0 8.725 4.62c3.306.65 6.732.315 9.846-.963s5.774-3.442 7.646-6.218a16.76 16.76 0 0 0 2.868-9.378 16.808 16.808 0 0 0 -4.994-11.921 17.135 17.135 0 0 0 -12.036-4.947zm0 2.035a14.995 14.995 0 0 1 7.136 1.797l-7.181 7.118-7.425-6.916a14.932 14.932 0 0 1 7.47-2.028zm0 29.666a15.06 15.06 0 0 1 -8.684-2.742 14.833 14.833 0 0 1 -5.466-7.223 14.684 14.684 0 0 1 -.22-9.025 14.814 14.814 0 0 1 5.107-7.477l7.717 7.19 1.501 1.489 9.002-8.916a14.816 14.816 0 0 1 5.331 7.433 14.676 14.676 0 0 1 -.074 9.117 14.822 14.822 0 0 1 -5.452 7.347 15.053 15.053 0 0 1 -8.763 2.793z" fill="#0082ff"/></svg>