<svg fill="none" height="402" width="2500" xmlns="http://www.w3.org/2000/svg" viewBox="0 0 248.72299999999998 40"><path d="M67.991 23.672L73.83 3.774l5.993 19.898zM139.9 1.449c5.078 0 7.972 4.394 7.972 10.489 0 6.095-2.794 9.715-8.072 9.715h-3.959V1.445h4.063zm61.242-.051c5.534 0 8.073 3.358 8.073 9.456 0 6.099-2.69 8.993-8.177 8.993h-4.013V1.398h4.113zm-74.902 37.93h13.205v-.31c-2.184 0-3.604-1.292-3.604-3.357V22.48h4.622c8.987 0 13.761-3.357 13.761-10.645 0-7.289-4.774-11.216-13.761-11.216h-14.219v.31c2.084 0 3.403.83 3.403 4.136v29.868c0 3.307-1.319 4.135-3.403 4.135v.26zm-4.214 0l.915-6.51h-.355c-1.42 4.288-1.93 5.63-10.917 5.63h-5.533V5.012c0-3.307 1.32-4.135 3.403-4.135v-.31h-13v.31c2.084 0 3.404.828 3.404 4.135v29.868c0 3.307-1.32 4.135-3.404 4.135v.31h25.491zm-38.746-4.237c.205.672 1.17 3.825-2.589 3.927v.31h13v-.31c-2.589 0-2.994-1.445-3.909-4.288L78.811.57h-4.874l-10.46 35.142c-.51 1.704-2.135 3.204-4.014 3.306v.31h7.467v-.31c-2.084-.153-3.149-.93-2.439-3.306l3.3-11.216h12.29zm104.152 4.238h13.05v-.31c-2.083 0-3.453-1.293-3.453-3.358V20.675h2.334c2.794 0 4.569 1.395 5.943 4.395l4.264 9.405c.864 1.912 1.929 3.723 2.894 4.857h8.277v-.31c-1.88-.259-3.404-2.12-4.874-5.427l-3.453-7.854c-1.525-3.412-4.264-4.394-7.567-5.27 7.567-1.24 10.611-4.084 10.611-9.766 0-7.08-4.773-10.128-13.71-10.128h-14.32v.31c2.084 0 3.404.83 3.404 4.136V34.89c0 3.307-1.27 4.135-3.404 4.135v.31zm-26.71-4.446c0 3.307-1.32 4.135-3.404 4.135v.31h25.491l.76-5.941h-.355c-1.219 4.084-1.829 5.066-10.766 5.066h-5.533v-19.69c6.907.051 8.073-.051 8.532 3.617h.305v-8.062h-.305c-.456 3.668-1.625 3.565-8.532 3.616V1.398h4.013c8.277 0 8.837.412 9.242 5.427h.305l.814-6.252h-23.971v.31c2.084 0 3.404.83 3.404 4.136v29.868zm80.59-16.485l-7.567-3.566c-3.959-1.861-5.433-4.029-5.433-6.872S230.14.829 235.218.829c4.163 0 8.531 2.843 9.496 8.525h.305l.71-5.788C243.8 2.066 239.991 0 235.218 0c-6.552 0-12.036 4.186-12.036 10.285 0 4.237 2.539 7.543 7.313 9.923l7.466 3.668c3.604 1.755 5.534 4.288 5.534 7.544s-2.134 7.751-7.872 7.751c-5.179 0-9.547-2.792-11.221-8.474h-.305l-.61 6.048c2.69 1.394 6.703 3.255 12.186 3.255 9.851 0 13.05-6.77 13-11.317-.15-4.497-2.639-8.011-7.362-10.285zM36.967 20.259C36.967 9.821 39.96.83 47.632.83c5.333 0 8.378 3.927 8.887 8.32h.305l.71-5.375C55.96 2.223 52.76 0 47.683 0c-11.276 0-17.469 9.146-17.52 20.26-.05 10.645 6.399 19.689 17.215 19.689 4.823 0 8.227-2.12 10.005-3.978l-.66-5.27h-.304c-.305 4.237-3.504 8.321-8.987 8.321-7.008 0-10.461-8.01-10.461-18.759zm-18.839-1.861l-7.567-3.566c-3.959-1.861-5.433-4.029-5.433-6.872S6.958.829 12.035.829c4.164 0 8.532 2.843 9.497 8.525h.305l.71-5.788C20.617 2.066 16.809 0 12.035 0 5.483 0 0 4.186 0 10.285c0 4.237 2.54 7.543 7.312 9.923l7.467 3.668c3.604 1.755 5.533 4.288 5.533 7.544s-2.133 7.751-7.871 7.751c-5.179 0-9.547-2.792-11.222-8.474H.915l-.61 6.048C2.995 38.139 7.007 40 12.49 40c9.851 0 13.05-6.77 13-11.317-.15-4.497-2.64-8.011-7.363-10.285z" fill="#000"/></svg>