<?xml version="1.0" encoding="UTF-8" standalone="no"?>
<svg
   xmlns:dc="http://purl.org/dc/elements/1.1/"
   xmlns:cc="http://creativecommons.org/ns#"
   xmlns:rdf="http://www.w3.org/1999/02/22-rdf-syntax-ns#"
   xmlns:svg="http://www.w3.org/2000/svg"
   xmlns="http://www.w3.org/2000/svg"
   viewBox="0 0 1042.24 420.51999"
   height="420.51999"
   width="1042.24"
   xml:space="preserve"
   id="svg2"
   version="1.1"><metadata
     id="metadata8"><rdf:RDF><cc:Work
         rdf:about=""><dc:format>image/svg+xml</dc:format><dc:type
           rdf:resource="http://purl.org/dc/dcmitype/StillImage" /></cc:Work></rdf:RDF></metadata><defs
     id="defs6" /><g
     transform="matrix(1.3333333,0,0,-1.3333333,0,420.52)"
     id="g10"><g
       transform="scale(0.1)"
       id="g12"><path
         id="path14"
         style="fill:#231f20;fill-opacity:1;fill-rule:nonzero;stroke:none"
         d="m 6337.59,768.43 c -57.14,-107.789 -197.88,-251.508 -260.48,-230.051 -35.79,12.359 -93.82,78.293 45.95,342.051 6.62,12.761 132.25,237.52 242.11,237.52 167.86,0 -3.27,-303.79 -27.58,-349.52 z m 303.27,349.43 c 3.98,7.9 7.71,15.71 11.87,23.83 1.91,3.83 7.9,14.9 7.9,14.9 l -113.06,0.11 c 0,0 -6.92,-14.27 -9.17,-18.97 -2.15,-4.45 -4.37,-8.93 -6.73,-13.35 -4.61,-9.37 -9.41,-18.65 -14.1,-27.89 -3.33,-6.2 -10.07,-19.89 -10.28,-19.89 -0.74,2.24 -1.27,4.69 -1.82,7.11 -3,9.61 -6.41,19.34 -11.64,27.79 -3.97,6.3 -7.81,12.76 -12.61,18.43 -16.33,18.53 -41.15,37.61 -90.28,37.61 -32.06,0 -69.89,-11.54 -73.52,-12.76 -31.98,-9.41 -61.54,-24.85 -89.43,-41.79 -4.82,-3.1 -38.46,-26.12 -50.11,-34.83 -15.2,-11.39 -29.73,-23.83 -43.48,-37.3 -92.26,-89.239 -160.86,-190.938 -197.18,-308.251 -15.82,-51.187 -26.5,-121.757 -6.52,-174.879 16.24,-43.64 51.08,-70.519 99.59,-73.679 27.06,-1.59 52.15,4.859 74.91,12.191 10.15,3.246 21.13,7.258 30.77,11.969 27.68,13.551 53.12,31.891 78.45,49.73 13.14,9.25 24.78,19.551 37.39,29.719 6.49,5.18 22.44,19.641 22.44,19.641 0,0 -170.13,-347.422 -181.98,-368.59 -26.71,-48.66 -59.53,-100.152 -106.31,-136.449 -20.42,-16.1409 -86.56,-62.2307 -161.25,-62.2307 -101.09,0 -127.06,39.5507 -127.06,57.789 0,31.9997 21.47,54.7187 50.43,54.7187 8.77,0 24.8,-8.391 37.09,-8.391 14.74,0 23.63,11.551 28.31,17.75 6.09,8.282 9.53,18.434 9.53,29.641 0,33.652 -30.34,54.012 -59.94,58.281 -20.3,2.95 -49.17,-1.488 -69.89,-12.101 -33.76,-17.387 -52.26,-47.289 -61.22,-82.828 -2.69,-10.493 -4.73,-21.7 -4.29,-33.539 0.64,-24.7622 9.6,-46.0825 23.42,-64.2934 8.09,-10.75 19.52,-19.957 30.54,-26.3477 57.04,-33.17184 139.02,-31.49215 208.58,-21.58199 27.56,3.85159 94.67,26.44139 126.33,44.67969 25.07,14.6914 50.43,30.5117 73.08,50.0004 41.63,35.523 78.53,77.113 106.09,121.589 31.94,51.172 55.76,107.352 83.34,161.032 73.44,148.601 146.94,297.011 220.56,445.629 35.79,72.55 72.02,145.23 107.9,217.901 11.15,22.59 22.25,45.29 33.35,67.9" /><path
         id="path16"
         style="fill:#231f20;fill-opacity:1;fill-rule:nonzero;stroke:none"
         d="m 7041.36,1141.47 c 28.2,0 56.1,-10.52 56.1,-56.95 0,-97.61 -168.62,-247.911 -321.54,-247.911 -24.78,0 -25.31,4.391 -25.31,4.391 0,0 142.32,300.47 290.75,300.47 z m 658.63,-14.34 c -2.92,9.48 -17.47,40.41 -48.17,40.41 -56.35,0.22 -145.24,-48.72 -225.8,-129.24 -11.45,-11.54 -22.3,-23.08 -32.35,-34.83 l 73.4,153.33 h -126.41 l -122.42,-255.14 -0.03,0.012 c -72.92,-97.211 -198.09,-210.981 -304.5,-292.801 -61.5,-47.281 -119.51,-69.152 -151.23,-69.152 -31.74,0 -77.28,25.121 -77.28,94.121 0,69.18 47.24,170.621 47.24,170.621 7.05,-1.93 33.57,-4.859 70.64,-4.859 86.9,0 220.88,31.679 282.62,86.796 61.78,55.293 93.4,112.102 93.4,169.752 0,41.65 -20.99,81.6 -67.17,100.65 -17.77,7.33 -39.15,11.66 -64.69,11.66 -29.74,0 -60.15,-3.64 -91.07,-11.66 -90.01,-23.36 -184.29,-84.01 -278.85,-201.359 -108.05,-133.929 -118.62,-280.921 -118.62,-295.5 0,-14.632 -10.17,-171.41 146.9,-171.41 157.2,0 394.49,232.278 465.87,315.93 0,0 -138.67,-286.313 -141.78,-295.762 h 123.53 1.4 c 69.23,143.492 115.76,242.563 130.14,269.801 92.09,189.031 253.54,350.36 310.47,326.94 -8.16,-14.88 -12.87,-31.55 -11.18,-48.2 4.16,-43.19 45.89,-58.568 80.23,-34 16.1,11.35 27.92,26.89 35.16,45.5 8.33,21.42 3.46,48.9 0.55,58.39" /><path
         id="path18"
         style="fill:#231f20;fill-opacity:1;fill-rule:nonzero;stroke:none"
         d="m 5415.57,1141.47 c 28.2,0 56.1,-10.52 56.1,-56.95 0,-97.61 -168.62,-247.911 -321.54,-247.911 -24.79,0 -25.31,4.391 -25.31,4.391 0,0 142.32,300.47 290.75,300.47 z m 553.86,-36.03 c -8.15,-14.88 -12.87,-31.55 -11.17,-48.2 4.16,-43.19 45.88,-58.568 80.23,-34 16.09,11.35 27.92,26.89 35.16,45.5 8.33,21.42 3.46,48.9 0.54,58.39 -2.91,9.48 -17.47,40.41 -48.16,40.41 -56.35,0.22 -145.25,-48.72 -225.8,-129.24 -11.45,-11.54 -22.29,-23.08 -32.35,-34.83 l 73.4,153.33 h -126.41 l -122.42,-255.14 -0.03,0.012 c -72.92,-97.211 -198.1,-210.981 -304.5,-292.801 -61.5,-47.281 -119.51,-69.152 -151.23,-69.152 -31.74,0 -77.29,25.121 -77.29,94.121 0,69.18 47.24,170.621 47.24,170.621 7.06,-1.93 33.57,-4.859 70.65,-4.859 86.9,0 220.88,31.679 282.62,86.796 61.78,55.293 93.4,112.102 93.4,169.752 0,41.65 -20.99,81.6 -67.17,100.65 -17.78,7.33 -39.16,11.66 -64.68,11.66 -29.75,0 -60.16,-3.64 -91.07,-11.66 -90.03,-23.36 -184.3,-84.01 -278.86,-201.359 -108.05,-133.929 -118.62,-280.921 -118.62,-295.5 0,-14.632 -10.18,-171.41 146.9,-171.41 157.2,0 394.49,232.278 465.87,315.93 0,0 -138.67,-286.313 -141.78,-295.762 h 123.52 1.41 c 69.22,143.492 115.75,242.563 130.13,269.801 92.1,189.031 253.54,350.36 310.47,326.94" /><path
         id="path20"
         style="fill:#231f20;fill-opacity:1;fill-rule:nonzero;stroke:none"
         d="M 1053.72,877.582 C 953.305,668.699 805.352,515.289 656.133,474.25 585.953,455.609 452.871,455.371 368.145,474.219 269.242,497.02 184.633,547.43 129.484,614.422 98.1328,654.332 75.9219,702.461 66.7344,755.41 c -7.1328,38.52 -8.3906,79.711 -2.6406,122.07 3.2695,24.329 8.75,47.711 15.9609,69.852 l 0.6484,1.906 c 16.3008,51.662 39.8009,102.952 71.1989,151.732 94.942,148.11 234.411,242.58 378.762,266.39 h 0.027 c 45.661,-86.98 172.653,-148.55 334.301,-166.04 5.121,-20.08 7.25,-40.99 7.082,-62.35 -0.121,-99.65 -45.859,-205.65 -133.39,-285.419 -36.051,-32.992 -75.039,-57.789 -116.36,-75.762 -2.351,-1.008 -3.121,-1.328 -5.562,-2.219 -72.418,-29.789 -146.719,-28.851 -198.86,-3.14 0.871,0.652 9.262,7.101 12.2,13.172 3.089,6.398 8.632,13.367 7.402,34.539 -0.609,10.359 -7.25,28.75 -15.051,38.64 -12.769,16.301 -30.031,29.489 -50.07,33.61 -42.442,8.988 -69.641,-26.211 -56.5,-66.332 5.73,-17.887 17.43,-31.879 30.902,-45.219 68.367,-75.18 205.789,-95.008 337.738,-40.879 72.95,29.828 131.352,77.18 168.168,130.641 69.161,96.48 95.223,210.978 61.43,319.168 -0.84,2.59 -1.578,5.16 -2.457,7.74 50.399,-2.67 103.336,-1.26 157.886,4.77 41.29,4.55 81.16,11.48 119.19,20.61 -40.83,-127.78 -105.62,-284.288 -135.02,-345.308 z M 839.223,1262.7 c 6.539,-10.36 12.09,-21.16 16.652,-32.3 -139.023,15.07 -218.48,66.49 -261.211,141.26 117.367,11.2 191.91,-25.85 244.559,-108.96 z m 672.387,438.04 c 31.96,49.84 68.27,93.27 101.4,136.03 88.57,119.08 198.02,187.48 244.5,152.89 44.36,-33.01 15.36,-147.66 -64.18,-261.4 h 0.31 c -59.57,-90.58 -149.79,-193.93 -256.58,-278.32 -69.31,-54.79 -140.65,-100.38 -210.05,-135.71 38.89,105.07 98.91,252.89 184.6,386.51 z M 1292.39,1211 l 19.01,53.44 c 94.96,36.84 223.4,125.46 347.26,246.37 34.16,33.43 65.92,67.14 94.78,100.52 9.61,11.12 18.3,21.64 27.19,32.71 6.92,8.65 13.67,17.61 20.29,26.81 79.84,111.27 116.14,229.12 98.16,298.96 -5.08,18.76 -12.18,30.69 -26.89,41.19 -45.33,32.62 -177.41,-33.1 -229.62,-73.22 -52.22,-40.12 -223.3,-126.7 -431.06,-652.49 -2.46,-6.23 -5.48,-12.15 -8.2,-18.24 -43.54,-13.59 -80.29,-24.26 -129.16,-31.43 -60.39,-8.86 -119.185,-11.47 -174.216,-8.67 -17.332,38.28 -41.801,72.37 -71.942,101.59 -69.051,65.02 -140.219,93.72 -250.277,85.16 -0.57,4.79 -1.063,9.62 -1.274,14.46 -6.339,156.07 121.801,289.2 323.223,297.32 131.186,5.35 248.326,-43.62 315.916,-121.55 5.05,-4.61 10.01,-6.48 13.39,-4.44 5.39,3.13 4.43,14.84 -2.27,26.27 -2,3.37 -4.25,6.37 -6.52,8.73 -72.64,77.72 -195.71,126.51 -332.489,121 -214.738,-8.76 -383.5,-147.11 -376.957,-309.06 0.469,-12.32 2.149,-24.49 4.579,-36.29 C 429.895,1397.97 340.602,1364.11 258.082,1307.75 146.523,1231.65 68.6523,1129.12 32.625,1025.05 -11.375,910.18 -12.0664,787.52 37.8711,677.262 151.305,426.191 490.965,334.77 796.332,472.84 c 133.52,60.262 238.478,154.57 304.778,262.469 0,0 30.02,50.773 63.63,119.679 45.36,99.313 79.56,207.732 86.48,229.252 8.95,27.96 41.17,126.76 41.17,126.76" /><path
         id="path22"
         style="fill:#231f20;fill-opacity:1;fill-rule:nonzero;stroke:none"
         d="m 4768.7,1114.23 c 52.91,0 91.36,-108.04 -35.82,-347.71 -3.61,-7.09 -127.48,-235.36 -241.47,-235.36 -29.92,0 -69.24,20.539 -69.03,77.86 0.3,72.402 40.71,166.859 95.42,270.16 51.72,97.519 170.98,235.05 250.9,235.05 z m 158.5,645.48 c 7.51,14.56 14.02,27.06 21.03,40.8 l -0.06,0.12 c 0.05,0.07 0.1,0.17 0.14,0.24 -0.05,-0.07 -0.11,-0.12 -0.16,-0.19 l -5.42,11.98 c -61.08,2.35 -145.68,-12.36 -170.47,-18.57 -7.06,-3.12 -8.55,-14.94 -2.64,-21.02 l 22.31,-13.49 c 16.2,-10.2 31.43,-24.35 0.78,-84.38 -68.39,-141.32 -186.32,-384.27 -197.66,-407.98 -14.92,-31.13 -165.4,-329.888 -205.81,-408.849 l -0.4,-0.551 c -0.88,-1.82 -1.72,-3.5 -2.57,-5.238 -1.01,-1.98 -1.97,-3.832 -2.77,-5.391 l 0.18,0.129 c -9.74,-19.531 -17.24,-32.8 -18.81,-35.699 -26.37,-46.801 -60.58,-89.18 -96.16,-131 -34.93,-40.891 -74.14,-81.539 -117.97,-111.133 -6.92,-4.648 -14.41,-8.597 -22.42,-11.636 -72.57,-25.11 -54.5,51.808 -20.95,117.046 19.25,39.75 38.47,79.5 57.6,119.184 l 96.69,198.309 c 23.08,47.729 28.34,74.009 28.34,98.859 0,42.03 -34.73,76.29 -81.44,76.29 -56.42,0.22 -145.25,-48.72 -225.68,-129.24 -12.21,-12.12 -23.52,-24.41 -34.22,-36.74 19.51,41.93 24.05,66.45 24.05,89.69 0,42.03 -34.67,76.29 -81.51,76.29 -56.35,0.22 -145.23,-48.72 -225.8,-129.24 -11.44,-11.54 -22.29,-23.08 -32.35,-34.83 l 4.29,9.18 c 15.64,32.54 65.1,129.85 72.17,144.15 h -128.78 c -24.9,-52.08 -143.39,-298.331 -166.41,-346.089 -34.56,-47.07 -79.09,-101.871 -103.1,-130.09 -34.93,-40.891 -74.14,-81.539 -117.97,-111.133 -6.92,-4.648 -14.41,-8.597 -22.42,-11.636 -66.98,-23.18 -62.88,29.488 -35.49,89.039 4.31,8.89 19.21,39.648 24.99,51.601 51.96,108.219 214.93,444.008 222,458.308 h -128.79 c -24.89,-52.08 -116.39,-245.179 -139.23,-288.558 -18.88,-36.183 -41.29,-91.23 -104.86,-173.351 -48.06,-61.711 -151.13,-172.512 -203.16,-140.2 -33.53,20.789 7.75,94.399 18.75,116.989 17.24,35.582 229.6,475.63 234.29,485.12 h -128.78 c -24.9,-52.08 -116.4,-245.179 -139.23,-288.558 -9.38,-17.961 -19.64,-40.594 -35.36,-68.863 -15.63,-31.539 -54.77,-94.328 -76.58,-119.957 -34.93,-40.902 -74.14,-81.543 -117.96,-111.133 -6.93,-4.648 -14.42,-8.598 -22.43,-11.641 -72.57,-25.109 -56.46,43.282 -20.95,117.051 10.88,22.621 127.56,282.051 127.56,282.051 0,0 55.15,120.63 96.97,211.87 21.08,44.95 38.84,82.71 45.29,96.18 14.13,29.55 172.76,379.21 232.5,500.69 6.51,12.65 12.32,23.85 18.38,35.69 0.12,0.22 0.27,0.48 0.38,0.69 -0.03,-0.05 -0.07,-0.08 -0.1,-0.13 0.32,0.63 0.64,1.25 0.96,1.88 l -6.43,10.04 c -61.08,2.35 -145.68,-12.36 -170.47,-18.57 -7.07,-3.12 -8.56,-14.94 -2.65,-21.02 l 22.31,-13.49 c 16.21,-10.2 31.48,-19.32 0.79,-84.38 -68.4,-141.32 -186.33,-384.27 -197.67,-407.98 -0.26,-0.56 -0.6,-1.26 -0.91,-1.9 -85.41,-176.13 -228.51,-471.058 -228.51,-471.058 -24.13,-39.75 -58.48,-87.153 -106.13,-137.91 -32.7,-34.723 -95.05,-104.653 -137.68,-104.653 -68.37,0 -19.4,91.551 -5.35,119.571 37.33,77.351 74.73,154.789 112.09,232.109 11.91,24.551 23.74,49.051 35.55,73.633 10.62,22.379 21.62,44.358 29.77,67.968 14.68,42.8 7.85,91.36 -33.81,112.74 -6.23,3.25 -12.95,5.75 -20.08,6.98 -3.44,0.6 -15.25,2.43 -27.38,2.43 -12.02,0 -30.4,-3.75 -33.34,-4.35 -72.55,-14.4 -171.15,-91.04 -228.65,-146.76 -3.35,-2.93 -20.13,-18.75 -25.23,-23.93 -5.34,-4.879 -16.56,-16.988 -16.56,-16.988 32.11,70.528 116.85,255.618 132.59,289.278 11.01,23.55 111.82,250.53 181.85,403.18 35.28,72.94 49.87,101.75 67.54,136.39 l -5.57,8.71 c -61.09,2.35 -145.69,-12.36 -170.48,-18.57 -7.06,-3.12 -8.55,-14.94 -2.64,-21.02 l 22.31,-13.49 c 15.47,-9.74 27.48,-26.69 4.03,-76.42 -66.28,-140.08 -185.49,-391.24 -196.77,-415.36 -15.4,-32.86 -98.56,-213.95 -126.87,-269.941 -18.56,-36.64 -42.55,-71.968 -67.05,-105.687 -60.59,-83.973 -115.68,-158.883 -228.99,-258.621 -29,-25.551 -80.29,-59.09 -114.55,-75.379 -23.61,-11.082 -57.94,-22.141 -86.52,-16.332 -99.97,20.262 -56.35,156.082 -34.4,218.551 8.27,23.269 18.78,45.668 29.63,67.828 31.42,64.441 66.61,125.101 110.69,183.041 107.84,142.17 186.17,134.26 221.11,115.95 41.77,-22.02 37.95,-65.88 7.95,-91.63 0,0 -12.85,9.4 -34.06,9.4 -10.37,0 -29.12,-5.57 -39.45,-12.77 -17.01,-11.81 -31.17,-28.27 -36.46,-48.038 -11.43,-41.852 22.12,-71.043 62.94,-60.262 19.08,4.91 34.27,16.61 49.02,30.07 35.15,32.012 69.29,77.96 70.12,127.71 0.21,13.52 -2.78,25.26 -8,35.48 -17.38,34.44 -61.27,52.5 -114.01,52.61 -167.73,0.48 -309.98,-156.36 -349.58,-206.401 -137.25,-182.418 -153.78,-385.887 -69.54,-449.199 8.24,-6.071 17.33,-11.168 26.89,-15.098 42.61,-17.852 95.66,-12.57 140.51,3.25 15.55,5.438 31.05,11.02 45.81,18 86.29,41.09 138.47,84.02 209.52,155.207 22.47,22.383 111.83,114.34 111.83,114.34 0,0 -87.71,-186.988 -131.04,-281.18 h 107.89 c 2.12,3.821 107.49,224.492 113.33,236.02 21.29,42.691 65.02,139.551 167.58,242.019 7.64,7.711 127.08,130.202 178.09,122.412 49.85,-7.6 7.61,-88.38 -3.63,-110.97 -3.17,-6.578 -6.34,-13.098 -9.5,-19.66 -17.86,-33.989 -33.15,-69.411 -50.36,-103.891 -12.88,-26.539 -25.64,-53.047 -38.51,-79.617 -14.49,-30.192 -29.46,-60.383 -43.53,-90.782 -8.44,-17.628 -26.95,-57.691 -27.78,-60.011 -11.03,-25.367 -19.57,-48.789 -17.55,-80.188 2.75,-44.422 39.18,-74.351 83.16,-74.351 81.54,0 151.56,51.832 251.94,166.66 -16.35,-35.93 -29.85,-72.879 -20.33,-107.711 15.16,-55.137 72.23,-69.617 124.55,-55.207 14.56,3.949 27.58,10.918 40.8,17.648 45.51,23.309 105.63,77.539 149.42,125.309 -11.43,-26.617 -19.51,-55.047 -12.83,-85.809 11.99,-55.461 67.48,-68.011 119.83,-56.691 82.81,17.84 143.74,76.609 201.82,134.633 6.23,6.058 18.79,18.429 18.79,18.429 0,0 -6.88,-18.132 -9.18,-23.711 -9.37,-23.289 -14.67,-54.121 -6.41,-79.23 0.11,-0.441 0.17,-0.891 0.29,-1.328 15.16,-55.141 76.99,-62.461 129.3,-48.051 14.57,3.961 27.58,10.918 40.81,17.649 59.88,30.679 145.14,114.929 185.08,167.48 l 0.14,0.051 c -7.17,-14.86 -79.02,-161.653 -82.14,-171.102 H 3394 c 69.23,143.492 115.76,242.551 130.15,269.801 93.48,191.891 258.53,355.39 313.06,325.88 22.27,-12.17 15.92,-46.79 -4.82,-89.7 L 3587.67,508.699 h 122.72 L 3840.97,778.5 c 86.54,176.289 255.5,357.2 313.53,325.88 22.34,-12.17 15.93,-46.79 -4.71,-89.7 l -75.97,-156.61 c -27.54,-56.879 -55.22,-113.609 -81.53,-170.89 -20.94,-44.891 -46.33,-92.848 -34.16,-137.348 15.16,-55.141 72.23,-69.621 124.54,-55.211 14.57,3.961 27.58,10.918 40.81,17.649 59.87,30.679 145.14,114.929 185.08,167.48 0,0 -2,-28.578 -2,-44.059 0,-27.941 12.59,-59.492 20.17,-72.972 28.09,-49.977 87.71,-75.098 146.95,-73.039 38.77,1.172 72.95,10.871 105.88,23.5 33.34,12.66 64.95,33.441 93.93,55.121 59.52,44.668 112.62,103.648 154.19,163.398 14.1,20.551 26.6,41.93 38.9,63.211 19.32,33.399 36.01,70.809 47.86,108 18.06,57.16 34.09,129.93 11.76,191.06 -8.96,24.52 -47.52,92.86 -147.65,68.61 -12.63,-2.95 -24.9,-6.21 -36.48,-10.97 -43.48,-17.83 -82.91,-41.72 -119.87,-72.33 -3.4,-2.98 -11.53,-9.75 -19.45,-16.31 37.64,80.5 83.08,177.39 94.29,200.83 13.95,29.17 168.74,370.33 230.16,495.91" /><path
         id="path24"
         style="fill:#231f20;fill-opacity:1;fill-rule:nonzero;stroke:none"
         d="m 7753.27,1184.08 h 6.99 c 7.92,0 14.66,2.9 14.66,10.35 0,5.29 -3.85,10.58 -14.66,10.58 -3.14,0 -5.32,-0.25 -6.99,-0.48 z m 0,-33.43 h -9.62 v 60.38 c 5.05,0.72 9.86,1.42 17.06,1.42 9.17,0 15.16,-1.92 18.79,-4.55 3.59,-2.65 5.52,-6.73 5.52,-12.51 0,-7.95 -5.29,-12.77 -11.8,-14.69 v -0.46 c 5.32,-0.96 8.91,-5.77 10.1,-14.67 1.46,-9.38 2.91,-13 3.87,-14.92 h -10.12 c -1.42,1.92 -2.89,7.47 -4.08,15.4 -1.44,7.7 -5.29,10.59 -12.98,10.59 h -6.74 z m 10.09,77.21 c -23.81,0 -43.26,-20.47 -43.26,-45.69 0,-25.75 19.45,-45.94 43.5,-45.94 24.06,-0.24 43.3,20.19 43.3,45.7 0,25.46 -19.24,45.93 -43.3,45.93 z m 0.24,8.42 c 29.59,0 53.16,-24.05 53.16,-54.11 0,-30.55 -23.57,-54.36 -53.4,-54.36 -29.57,0 -53.62,23.81 -53.62,54.36 0,30.06 24.05,54.11 53.62,54.11 h 0.24" /><path
         id="path26"
         style="fill:#cb9f51;fill-opacity:1;fill-rule:nonzero;stroke:none"
         d="m 4688.23,2607.39 c -31.91,30.91 -66.07,-4.28 -66.07,-4.28 0,0 -36.49,-30.12 -104.26,-36.85 -69.75,-6.89 -173.14,23.55 -173.14,23.55 0,0 62.74,-60.13 174.05,-70.06 109.81,-9.82 162.77,28.73 162.77,28.73 0,0 6.33,2.78 11.6,10.85 7.44,11.36 12.7,30.96 -4.95,48.06 m -24.9,132.88 c 0,0 27.83,36.46 -7.76,58.75 -39.58,24.82 -63.1,-19.91 -63.1,-19.91 0,0 -19.15,-36.98 -82.29,-62.51 -64.76,-26.24 -170.81,-22.72 -170.81,-22.72 0,0 75.57,-41.45 181.34,-23.12 98.92,17.1 142.62,69.51 142.62,69.51 m -84.87,163.28 c 0,0 16.87,39 -20.94,52.46 -44.06,15.63 -56.6,-29.69 -56.6,-29.69 0,0 -7.13,-47.07 -63.26,-85.5 -57.63,-39.47 -133.83,-55.23 -133.83,-55.23 0,0 65.39,-16.9 151.96,18.02 84,33.84 122.67,99.94 122.67,99.94 m -280.14,157.87 c 0,0 -19.87,33.72 -73.66,41.48 -48.69,7.05 -98.33,-22.95 -98.33,-22.95 0,0 -77.58,-47.35 -81.07,-148.68 -4.23,-124.42 75.69,-156 75.69,-156 0,0 3.68,-2.1 7.87,-2.66 -20.94,21.38 -36.37,59.46 -35.94,110.92 0,0.39 0.04,0.79 0.04,1.15 0.08,12.03 1.19,25.41 3.64,40.41 14.49,88.31 74.9,121.76 74.9,121.76 0,0 27.19,13.34 54.31,15.36 32.97,2.49 56.92,-11.4 56.92,-11.4 0,0 11.28,-9.5 15.55,-8.04 7.25,2.5 0.08,18.65 0.08,18.65 m -88.15,57.67 c 2.06,5.86 -9.54,18.96 -9.54,18.96 0,0 -14.73,10.89 -32.46,14.25 -19.08,3.68 -41.25,-0.16 -41.25,-0.16 0,0 -21.85,-2.57 -44.37,-6.64 -23.43,-4.2 -47.54,-9.9 -47.54,-9.9 0,0 -26.64,-7.6 -52.01,-7.6 -26.84,0 -52.45,7.6 -52.45,7.6 0,0 14.48,-22.01 46.94,-25.37 31.67,-3.25 81.31,12.23 81.31,12.23 0,0 4.43,0.27 5.26,-2.42 0.48,-1.5 -1.97,-3.44 -1.97,-3.44 0,0 -12.28,-8.87 -23.83,-18.88 -10.57,-9.18 -20.51,-19.59 -20.51,-19.59 0,0 -56.01,-64.97 -91.76,-103.68 -15.55,-16.9 -29.53,-27.86 -29.53,-27.86 l -25.33,-19.76 c 30.48,-9.89 59.61,-39.7 74.46,-62.06 0.43,2.53 13.42,28.26 13.42,28.26 0,0 21.77,49.32 50.43,93.61 26.8,41.61 60.56,78.3 60.56,78.3 0,0 23.44,28.26 59.97,41.33 30.96,11.12 63.18,10.33 63.18,10.33 0,0 15.4,-2.22 17.02,2.49 m -327.12,-272.18 c -12,15.52 -30.64,17.58 -36.86,15.99 -6.17,-1.58 -20.5,-2.81 -30.32,-28.26 -10.61,-27.39 -3.84,-59.73 -3.84,-59.73 0,0 8.47,-49.09 34.4,-89.11 29.02,-44.8 71.77,-77.42 71.77,-77.42 l 33.29,33.44 c 0,0 -34.88,22.41 -76.01,70.47 -52.17,60.96 -45.75,104.5 -45.75,104.5 0,0 -2.74,39.94 22.68,40.34 23.11,0.35 23.87,-38.84 23.87,-38.84 0,0 1.94,-11.44 -0.4,-22.05 -2.37,-10.8 -9.02,-20.78 -9.02,-20.78 0,0 -4.24,-6.09 -4.24,-12.98 0,-6.61 4.24,-14.02 4.24,-14.02 0,0 4.27,-8.55 10.41,-6.73 6.8,1.98 11.4,15.56 11.4,15.56 0,0 3.28,10.02 5.06,20.71 1.75,10.13 1.98,20.93 1.98,20.93 0,0 0.08,31.52 -12.66,47.98 m -58.67,79.92 -25.37,19.76 c 0,0 -13.98,10.96 -29.53,27.86 -35.75,38.71 -91.76,103.68 -91.76,103.68 0,0 -9.93,10.41 -20.5,19.59 -11.56,10.01 -23.83,18.88 -23.83,18.88 0,0 -2.46,1.94 -1.98,3.44 0.87,2.69 5.26,2.42 5.26,2.42 0,0 49.64,-15.48 81.31,-12.23 32.46,3.36 46.95,25.37 46.95,25.37 0,0 -25.61,-7.6 -52.45,-7.6 -25.38,0 -52.02,7.6 -52.02,7.6 0,0 -24.1,5.7 -47.54,9.9 -22.52,4.07 -44.37,6.64 -44.37,6.64 0,0 -22.17,3.84 -41.25,0.16 -17.73,-3.36 -32.46,-14.25 -32.46,-14.25 0,0 -11.6,-13.1 -9.54,-18.96 1.63,-4.71 17.02,-2.49 17.02,-2.49 0,0 32.23,0.79 63.18,-10.33 36.54,-13.07 59.97,-41.33 59.97,-41.33 0,0 33.77,-36.69 60.56,-78.3 28.66,-44.29 50.43,-93.61 50.43,-93.61 0,0 12.99,-25.73 13.42,-28.26 14.85,22.36 43.98,52.17 74.5,62.06 m -353.57,176.07 c -53.79,-7.76 -73.62,-41.48 -73.62,-41.48 0,0 -7.21,-16.15 0.04,-18.65 4.27,-1.46 15.55,8.04 15.55,8.04 0,0 23.95,13.89 56.93,11.4 27.11,-2.02 54.31,-15.36 54.31,-15.36 0,0 60.4,-33.45 74.89,-121.76 2.45,-15 3.56,-28.38 3.64,-40.41 0,-0.36 0.04,-0.76 0.04,-1.15 0.44,-51.46 -15,-89.54 -35.94,-110.92 4.19,0.56 7.88,2.66 7.88,2.66 0,0 79.92,31.58 75.68,156 -3.48,101.33 -81.07,148.68 -81.07,148.68 0,0 -49.64,30 -98.33,22.95 m -77.54,-322.88 c 0,0 -76.2,15.75 -133.83,55.18 -56.14,38.47 -63.3,85.5 -63.3,85.5 0,0 -12.51,45.32 -56.57,29.68 -37.84,-13.42 -20.98,-52.45 -20.98,-52.45 0,0 38.72,-66.1 122.75,-99.95 86.54,-34.87 151.93,-17.96 151.93,-17.96 m -288.65,-6.54 c 0,0 -23.51,44.73 -63.1,19.95 -35.62,-22.32 -7.72,-58.74 -7.72,-58.74 0,0 43.71,-52.41 142.59,-69.55 105.77,-18.33 181.33,23.12 181.33,23.12 0,0 -106,-3.49 -170.8,22.72 -63.14,25.53 -82.3,62.5 -82.3,62.5 m -95.75,-171.71 c -17.66,-17.06 -12.35,-36.7 -4.91,-48.06 5.22,-8.03 11.56,-10.81 11.56,-10.81 0,0 52.92,-38.59 162.77,-28.77 111.31,9.93 174.05,70.1 174.05,70.1 0,0 -103.39,-30.48 -173.14,-23.59 -67.81,6.73 -104.27,36.85 -104.27,36.85 0,0 -34.16,35.19 -66.06,4.28 m 58.94,-206.39 c -3.92,-38.4 41.64,-45.01 41.64,-45.01 0,0 90.97,-6.22 160.87,25.25 76.64,34.48 120.06,103 120.06,103 0,0 -67.02,-39.62 -139.97,-51.26 -66.9,-10.65 -140.37,6.57 -140.37,6.57 0,0 -38.35,-0.08 -42.23,-38.55 m 187.71,-132.49 c 4.98,-27.59 41.96,-25.77 41.96,-25.77 0,0 57.31,15.63 94.84,47.74 40.57,34.67 61.71,86.01 61.71,86.01 0,0 -41.21,-39.07 -86.73,-57.75 -42.35,-17.38 -85.38,-13.18 -85.38,-13.18 0,0 -31.99,-5.98 -26.4,-37.05 m 45.12,-299.78 c 68.8,-115.46 185.97,-42.11 205.92,-33.41 19.99,8.75 95.83,48.89 160.43,124.93 94.81,111.67 167.13,259.44 167.13,259.44 l -27.55,48.88 c 0,0 -75.88,-133.63 -166.69,-263.31 -53.4,-76.2 -121.37,-129.96 -131.26,-136.53 -26.37,-17.49 -89.34,-81.07 -172.07,-18.28 -69.51,52.76 -13.58,159.32 43.14,136.28 9.94,-4.07 8.79,-13.53 21.54,-20.7 12.78,-7.12 29.6,-7.12 43.97,13.54 16.04,23 -11.2,72.36 -79.09,50.03 -48.41,-15.83 -116.21,-75.8 -65.47,-160.87 m 203.07,-113.01 c -7.84,-15.44 9.62,-25.53 9.62,-25.53 0,0 14.88,-12.31 42.27,-11.92 28.86,0.48 62.63,11.36 62.63,11.36 0,0 31.9,11.52 58.58,30.21 29.97,20.94 55.06,49.28 55.06,49.28 0,0 40.02,45.24 93.78,141.63 6.37,11.48 5.62,8.47 11.52,19.64 -13.5,25.29 -15.32,28.06 -29.89,59.06 -6.06,-11.8 -5.34,-8.75 -11.91,-21.1 -47.58,-89.66 -100.19,-168 -100.19,-168 0,0 -37.01,-47.54 -74.82,-77.46 -26.4,-20.91 -57.75,-27.52 -57.75,-27.52 0,0 -9.14,-1.94 -14.88,1.15 -3.76,2.06 -4.95,9.54 -4.95,9.54 0,0 -0.56,6.37 -3.44,11.01 -2.89,4.71 -8,7.6 -8,7.6 0,0 -18.21,9.73 -27.63,-8.95 m 137.44,-102.8 c 1.14,-29.97 33.88,-25.81 33.88,-25.81 0,0 48.37,8.23 94.49,63.22 49.36,58.82 50.55,120.41 50.55,120.41 0,0 -35.83,-66.82 -75.37,-97.45 -38.6,-29.89 -68.52,-28.5 -68.52,-28.5 0,0 -36.34,1.5 -35.03,-31.87 m 171.83,-65.31 c -2.33,-7.21 -1.15,-13.34 -1.15,-13.34 0,0 3.88,-35.04 38.28,-35.15 34.36,-0.08 33.81,34.75 33.81,34.75 0,0 0.31,6.61 -1.63,13.34 -3.8,13.58 -12.03,35.63 -17.49,61 -9.11,41.72 -15.64,85.5 -15.64,85.5 0,0 -7.28,-44.49 -17.22,-85.66 -6.05,-25.06 -14.68,-46.91 -18.96,-60.44 m 65.59,223.13 c 0,0 1.19,-61.59 50.55,-120.41 46.12,-54.99 94.49,-63.22 94.49,-63.22 0,0 32.74,-4.16 33.88,25.81 1.31,33.37 -35.03,31.87 -35.03,31.87 0,0 -29.92,-1.39 -68.52,28.5 -39.58,30.63 -75.37,97.45 -75.37,97.45 m 148.84,-49.48 c 27.55,-19.31 60.56,-31.23 60.56,-31.23 0,0 34.96,-11.24 64.8,-11.76 28.27,-0.39 43.7,12.31 43.7,12.31 0,0 18.05,10.45 9.98,26.45 -9.78,19.27 -28.54,9.26 -28.54,9.26 0,0 -5.38,-3.05 -8.35,-7.88 -2.97,-4.79 -3.53,-11.44 -3.53,-11.44 0,0 -1.26,-7.72 -5.14,-9.81 -5.94,-3.21 -15.4,-1.23 -15.4,-1.23 0,0 -32.42,6.89 -59.69,28.5 -39.11,30.95 -77.39,80.12 -77.39,80.12 0,0 -54.43,80.99 -103.63,173.73 -38.76,73 -71.41,142.15 -71.41,142.15 -14.06,-25.1 -19,-34.16 -32.78,-54.67 6.1,-13.34 2.89,-7.6 2.89,-7.6 0,0 31.51,-70.42 69.99,-139.41 55.57,-99.71 96.98,-146.46 96.98,-146.46 0,0 25.93,-29.38 56.96,-51.03 m 182.44,74.1 c 19.99,-8.78 163.96,-82.09 232.8,33.37 50.71,85.07 -17.14,145.04 -65.51,160.91 -67.89,22.25 -95.12,-27.03 -79.05,-50.07 14.37,-20.66 31.11,-20.66 43.9,-13.54 12.78,7.17 11.63,16.67 21.57,20.7 56.72,23.04 112.66,-83.52 43.15,-136.28 -82.74,-62.82 -172.55,0.79 -198.92,18.28 -9.89,6.57 -77.86,60.33 -131.22,136.57 -46.59,66.5 -72.56,107 -107.39,164.39 l -27.55,-56.8 c 29.97,-49.88 64.25,-101.3 107.79,-152.64 64.6,-76.04 140.48,-116.18 160.43,-124.89 m 117.85,383.38 c -45.53,18.68 -86.73,57.75 -86.73,57.75 0,0 21.13,-51.34 61.71,-86.01 37.56,-32.11 94.84,-47.74 94.84,-47.74 0,0 36.97,-1.87 41.96,25.77 5.58,31.07 -26.4,37.05 -26.4,37.05 0,0 -43.03,-4.2 -85.38,13.18 m -221.76,283.97 c 17.54,26.25 26.17,35.67 26.17,35.67 0,0 -22.8,-1.94 -49.2,-29.45 -1.35,-1.38 22.04,-7.64 23.03,-6.22 m -189.76,-52.68 c -14.81,-22.84 -44.89,-74.42 -44.89,-74.42 l 30.04,-42.79 c 0,0 79.92,128.73 144.88,200.69 41.53,46.04 87.17,61.71 87.17,61.71 0,0 114,39.7 138.66,-45.6 5.7,-19.67 -7.32,-47.86 -28.58,-59.65 -5.38,-2.97 -11.04,-5.26 -16.59,-7.09 0,0 -37.05,-11.44 -72.99,-11.83 -32.3,-0.32 -63.14,10.13 -75.8,14.53 -26.76,9.26 -29.81,8.74 -29.81,8.74 0,0 -7.32,-8.78 -13.89,-18.13 -6.81,-9.66 -12.91,-19.87 -12.91,-19.87 0,0 17.66,-9.93 46.83,-16.54 13.74,-3.09 49.4,-5.78 85.03,-2.77 32.18,2.69 64.2,10.45 80.91,20.78 28.14,16.86 63.41,47.93 53.83,94.56 -9.66,47.23 -59.49,91.92 -164.63,74.78 -90.37,-14.72 -169.62,-119.15 -207.26,-177.1 m 112.54,-77.75 c 8.9,17.03 22.4,42.2 23.15,43.51 -13.1,3.56 -19.47,5.46 -33.37,13.06 -10.84,-14.25 -15.55,-22.17 -26.95,-40.26 -35.16,-55.57 -73.31,-130.03 -98.17,-179.55 -15.76,-31.43 -29.14,-58.58 -29.14,-58.58 l 34.09,-59.86 c 0,0 17.45,37.65 41.08,90.69 24.62,55.26 56.06,127.3 89.31,190.99 m 43.1,-115.86 c -24.22,81.47 1.74,151.41 1.74,151.41 0,0 -56.6,-64.44 -9.26,-200.53 46.2,-132.77 167.84,-132.65 186.44,-117.84 18.65,14.76 20.63,22.04 16.83,37.36 -3.29,13.34 -15.32,23.95 -32.07,21.73 -16.74,-2.13 -26.79,-9.14 -38.59,-7.24 -11.84,1.9 -91.96,3.84 -125.09,115.11 m -226.93,107.27 c -37.45,50.95 -78.9,104.86 -78.9,104.86 -12.86,-11.08 -38.71,-21.29 -38.71,-21.29 0,0 31.04,-44.81 66.23,-101.69 39.54,-63.97 72.04,-124.74 72.04,-124.74 l 33.49,61.32 c 0,0 -21.62,37.17 -54.15,81.54 m -98.49,181.78 c -44.1,-28.23 -86.57,-45.92 -86.57,-45.92 l 30.68,-38.59 c 0,0 43.18,15.59 83.72,44.92 40.22,29.1 62.98,62.27 62.98,62.27 0,0 -6.93,9.58 -12.43,18.56 -4.52,7.33 -7.76,14.37 -7.76,14.37 0,0 -29.45,-29.29 -70.62,-55.61 m -208.41,-107.87 c 44.57,-4.35 75.17,3.48 75.17,3.48 l -25.41,39.79 c 0,0 -24.62,-4.99 -62.7,-2.5 -22.09,1.46 -45.65,7.17 -63.58,15.24 -25.69,11.6 -31.27,44.69 -26.44,63.53 10.73,41.41 74.89,60.25 127.62,42.75 58.78,-19.47 99.32,-71.37 99.32,-71.37 0,0 14.41,5.19 26.95,12.2 7.88,4.43 13.03,7.56 13.03,7.56 0,0 -55.54,59.69 -124.57,78.41 -71.61,19.48 -157.47,-13.57 -161.71,-71.17 -5.66,-77.35 64.09,-112.26 122.32,-117.92 m 31.86,105.02 c 0,0 53.88,-71.29 103.4,-166.1 21.81,-41.8 55.89,-105.61 74.73,-147.45 0.95,-2.14 32.66,45.36 31.55,47.42 -17.89,33.57 -50.43,86.81 -69.11,116.34 -73.39,116.02 -140.57,149.79 -140.57,149.79 m 67.26,-335.32 c 47.3,136.09 -20.86,221.55 -20.86,221.55 0,0 37.56,-90.96 13.34,-172.43 -33.13,-111.27 -113.25,-113.21 -125.09,-115.11 -11.83,-1.9 -21.85,5.07 -38.63,7.24 -16.75,2.22 -28.78,-8.39 -32.07,-21.73 -3.76,-15.36 -1.78,-22.6 16.83,-37.36 18.64,-14.81 140.28,-14.93 186.48,117.84 m 789.66,79.56 c 69.91,-31.47 160.88,-25.25 160.88,-25.25 0,0 45.56,6.61 41.68,44.97 -3.96,38.51 -42.28,38.59 -42.28,38.59 0,0 -73.47,-17.22 -140.36,-6.57 -73,11.64 -139.93,51.26 -139.93,51.26 0,0 43.42,-68.52 120.01,-103" /><path
         id="path28"
         style="fill:#cb9f51;fill-opacity:1;fill-rule:nonzero;stroke:none"
         d="m 3011.67,0 c -16.67,0 -32.62,2.83203 -47.85,8.49219 -15.24,5.65621 -29.33,14.34761 -42.3,26.08981 l 22.85,27.168 c 10.49,-9.0586 21.09,-16.0117 31.8,-20.8398 10.7,-4.8282 22.85,-7.2618 36.43,-7.2618 11.74,0 21.05,2.4805 27.95,7.4219 6.89,4.9414 10.34,11.5195 10.34,19.75 v 0.6289 c 0,3.9024 -0.67,7.3516 -2.01,10.3399 -1.35,2.9804 -3.82,5.8125 -7.43,8.4922 -3.61,2.6679 -8.57,5.1406 -14.86,7.4101 -6.3,2.2578 -14.5,4.5195 -24.61,6.7969 -11.56,2.6601 -21.82,5.7027 -30.8,9.1017 -8.98,3.398 -16.51,7.512 -22.6,12.351 -6.09,4.829 -10.73,10.75 -13.93,17.75 -3.2,7 -4.79,15.438 -4.79,25.321 v 0.617 c 0,9.262 1.83,17.762 5.51,25.473 3.67,7.718 8.72,14.308 15.15,19.769 6.43,5.449 14.17,9.711 23.21,12.809 9.03,3.082 18.91,4.629 29.61,4.629 15.85,0 30.1,-2.317 42.76,-6.95 12.66,-4.629 24.55,-11.367 35.66,-20.218 l -20.37,-28.719 c -9.88,7.207 -19.66,12.699 -29.33,16.519 -9.68,3.809 -19.46,5.707 -29.34,5.707 -11.11,0 -19.76,-2.468 -25.93,-7.406 -6.18,-4.941 -9.27,-11.012 -9.27,-18.222 v -0.622 c 0,-4.117 0.72,-7.769 2.17,-10.949 1.44,-3.199 4.07,-6.078 7.89,-8.64 3.82,-2.579 9.08,-5 15.79,-7.258 6.7,-2.281 15.22,-4.641 25.54,-7.11 11.34,-2.882 21.41,-6.07 30.18,-9.57 8.77,-3.5 16.04,-7.769 21.82,-12.812 5.78,-5.047 10.16,-10.9106 13.16,-17.5981 2.99,-6.6914 4.49,-14.4609 4.49,-23.3125 v -0.6171 c 0,-10.0821 -1.9,-19.1524 -5.67,-27.1719 -3.78,-8.0274 -9.04,-14.8203 -15.77,-20.3711 -6.73,-5.5586 -14.83,-9.78908 -24.28,-12.66799 C 3033.38,1.44922 3022.99,0 3011.67,0" /><path
         id="path30"
         style="fill:#cb9f51;fill-opacity:1;fill-rule:nonzero;stroke:none"
         d="m 3179.33,219.219 h 159.94 V 184.941 H 3217 v -55.57 h 108.37 V 95.1016 H 3217 V 37.3594 h 123.81 V 3.08984 H 3179.33 V 219.219" /><path
         id="path32"
         style="fill:#cb9f51;fill-opacity:1;fill-rule:nonzero;stroke:none"
         d="m 3434.67,219.219 h 37.67 V 3.08984 h -37.67 V 219.219" /><path
         id="path34"
         style="fill:#cb9f51;fill-opacity:1;fill-rule:nonzero;stroke:none"
         d="m 3629.8,184.02 h -68.54 v 35.199 h 175.38 V 184.02 h -68.55 V 3.08984 H 3629.8 V 184.02" /><path
         id="path36"
         style="fill:#cb9f51;fill-opacity:1;fill-rule:nonzero;stroke:none"
         d="m 3988.89,182.172 -38.91,-10.813 -8.03,30.883 58.05,18.52 h 26.55 V 3.08984 h -37.66 V 182.172" /><path
         id="path38"
         style="fill:#cb9f51;fill-opacity:1;fill-rule:nonzero;stroke:none"
         d="m 4199.77,127.52 c 11.11,0 20.33,2.992 27.63,9 7.31,5.992 10.96,13.64 10.96,22.96 v 0.622 c 0,8.48 -3.5,15.66 -10.5,21.558 -6.99,5.899 -16.36,8.84 -28.09,8.84 -11.73,0 -21.11,-2.941 -28.1,-8.84 -7,-5.898 -10.5,-12.988 -10.5,-21.262 v -0.609 c 0,-9.519 3.65,-17.277 10.97,-23.269 7.3,-6.008 16.51,-9 27.63,-9 z m 0,-95.7192 c 14.2,0 25.32,3.1289 33.34,9.418 8.03,6.2734 12.05,13.9414 12.05,23 v 0.621 c 0,4.9415 -1.2,9.4219 -3.56,13.4297 -2.36,4.0196 -5.56,7.461 -9.57,10.3516 -4.01,2.8789 -8.8,5.0898 -14.35,6.6406 -5.56,1.5391 -11.54,2.3086 -17.91,2.3086 -6.38,0 -12.35,-0.7695 -17.91,-2.3086 -5.56,-1.5508 -10.35,-3.7617 -14.36,-6.6406 -4.01,-2.8906 -7.21,-6.332 -9.57,-10.3516 -2.36,-4.0078 -3.55,-8.4882 -3.55,-13.4297 v -0.621 c 0,-8.8477 4.02,-16.4571 12.05,-22.8477 8.02,-6.3789 19.14,-9.5703 33.34,-9.5703 z M 4199.77,0 c -11.73,0 -22.65,1.49219 -32.73,4.46875 -10.09,2.98047 -18.84,7.13285 -26.25,12.49215 -7.4,5.3399 -13.17,11.8086 -17.28,19.418 -4.13,7.6016 -6.18,16.0195 -6.18,25.2695 v 0.6329 c 0,13.1406 3.39,23.9296 10.19,32.3593 6.8,8.4184 16.37,15.2114 28.71,20.3514 -9.26,4.738 -16.83,10.918 -22.7,18.559 -5.85,7.621 -8.79,17.519 -8.79,29.687 v 0.614 c 0,8.25 1.9,15.929 5.71,23.039 3.81,7.121 9,13.3 15.59,18.558 6.59,5.262 14.47,9.383 23.63,12.371 9.15,2.989 19.19,4.489 30.1,4.489 10.7,0 20.69,-1.5 29.95,-4.489 9.26,-2.988 17.18,-7.07 23.78,-12.211 6.58,-5.16 11.77,-11.339 15.58,-18.558 3.81,-7.211 5.71,-14.949 5.71,-23.199 v -0.614 c 0,-12.168 -2.93,-22.066 -8.79,-29.687 -5.87,-7.641 -13.43,-13.821 -22.7,-18.559 11.74,-5.351 21.15,-12.082 28.25,-20.1912 7.1,-8.1289 10.66,-18.6524 10.66,-31.6016 V 62.582 c 0,-9.6601 -2.06,-18.3437 -6.18,-26.0507 -4.12,-7.711 -9.88,-14.2813 -17.29,-19.7305 C 4251.33,11.3516 4242.58,7.19141 4232.5,4.30859 4222.41,1.44922 4211.5,0 4199.77,0" /><path
         id="path40"
         style="fill:#cb9f51;fill-opacity:1;fill-rule:nonzero;stroke:none"
         d="m 4470.55,82.75 v 85.52 l -71.02,-85.52 z m 0,-31.1797 h -109 l -7.1,27.1602 120.11,142.0315 h 32.42 V 82.75 h 30.88 V 51.5703 h -30.88 V 3.08984 h -36.43 V 51.5703" /><path
         id="path42"
         style="fill:#cb9f51;fill-opacity:1;fill-rule:nonzero;stroke:none"
         d="m 4615.04,32.9883 74.41,63.1836 c 7.41,6.1801 13.68,11.7691 18.83,16.8081 5.15,5.032 9.32,9.809 12.51,14.329 3.18,4.523 5.51,8.941 6.94,13.25 1.45,4.32 2.17,8.941 2.17,13.882 0,10.68 -3.35,18.95 -10.04,24.809 -6.69,5.859 -14.97,8.781 -24.85,8.781 -9.88,0 -18.58,-2.679 -26.09,-8.031 -7.51,-5.352 -15.49,-13.469 -23.93,-24.379 l -26.87,20.988 c 5.15,7.2 10.4,13.661 15.76,19.371 5.35,5.711 11.16,10.489 17.44,14.329 6.28,3.839 13.17,6.8 20.69,8.882 7.51,2.071 16.1,3.118 25.78,3.118 10.49,0 20.12,-1.547 28.87,-4.629 8.74,-3.098 16.25,-7.469 22.54,-13.129 6.27,-5.66 11.16,-12.461 14.66,-20.379 3.5,-7.922 5.25,-16.731 5.25,-26.391 v -0.621 c 0,-8.449 -1.13,-16.109 -3.4,-23.012 -2.26,-6.886 -5.71,-13.527 -10.34,-19.91 -4.63,-6.386 -10.5,-12.808 -17.6,-19.2966 -7.1,-6.4805 -15.39,-13.6406 -24.85,-21.4492 l -44.46,-37.0508 h 102.81 V 3.08984 H 4615.04 V 32.9883" /></g></g></svg>