<svg clip-rule="evenodd" fill-rule="evenodd" height="320" stroke-linejoin="round" stroke-miterlimit="2" viewBox="0 0 4743.66 607.28" width="2500" xmlns="http://www.w3.org/2000/svg"><circle cx="303.64" cy="303.64" fill="#f07c00" r="303.64"/><path d="m289.592 96.435c2.939-1.711 17.455-1.711 20.394 0 4.068 2.369 12.112 8.083 14.213 14.523 17.459 53.507 90.332 305.833 90.332 305.833s28.159.133 37.593.072c4.474.751 9.192 4.31 10.506 8.652 1.854 6.129 2.472 21.63.618 28.119-1.462 5.116-6.428 10.543-11.742 10.815-27.876-.251-151.717-.927-151.717-.927s-123.968 1.309-151.717.927c-5.312-.322-10.28-5.699-11.742-10.815-1.854-6.489-1.236-21.99.618-28.119 1.314-4.342 6.032-7.901 10.506-8.652 8.11-.022 37.557.075 37.557.075s72.909-252.473 90.367-305.98c2.101-6.44 10.145-12.154 14.214-14.523z" fill="#fff"/><g fill="#f07c00"><path d="m266.58 183.359-18.926 73.773 92.326-44.002-16.622-59.511zm-51.703 179.015-16.633 55.033 49.41.345 133.527-66.617-18.813-63.103z"/><path d="m974.517 305.959h-131.966v-58.877h263.932v30.961h108.617c0-108.11-43.142-119.784-240.075-119.784-197.441 0-241.091 9.644-241.091 118.262s39.589 108.618 240.583 108.618h136.026v58.876h-272.052v-30.961h-109.125c0 110.648 44.157 119.784 245.151 119.784s245.659-9.643 245.659-118.261-42.127-108.618-245.659-108.618zm668.963 98.974v39.082h-274.082v-196.933h274.082v39.59h109.633c-5.076-121.307-38.575-128.413-245.152-128.413-237.03 0-247.181 9.644-247.181 187.29s9.643 187.289 247.181 187.289c207.085 0 240.076-7.105 245.152-127.905zm517.2-237.03v138.056h-254.795v-138.056h-108.617v355.292h108.617v-138.056h254.795v138.056h108.111v-355.292zm739.52 0h-139.579l-147.7 242.106-148.207-242.106h-139.579v355.292h108.618v-218.758l133.488 218.758h90.853l133.488-218.758v218.758h108.618zm270.02-29.439c21.318 0 38.575-17.764 38.575-39.082 0-21.825-17.257-39.082-38.575-39.082-21.825 0-39.082 17.257-39.082 39.082 0 21.318 17.257 39.082 39.082 39.082zm148.208-16.749c12.181-17.765 8.121-42.128-9.644-54.309s-42.127-8.121-54.309 9.644c-12.181 17.764-8.121 42.127 9.644 54.309 17.764 12.181 42.127 7.613 54.309-9.644zm-11.674 46.188h-157.344l-192.873 355.292h121.307l31.977-58.877h236.522l31.977 58.877h121.307zm-154.298 217.743 75.626-139.071 75.626 139.071zm403.004-217.743h108.618v355.292h-108.618zm536.49 0v256.318l-229.417-256.318h-142.624v355.292h108.617v-244.136l218.251 244.136h153.283v-355.292zm651.71 151.76h-306.566v78.672h196.933v45.68h-275.098v-196.933h275.098v23.856h108.11c-7.613-106.08-47.203-112.679-244.644-112.679-237.03 0-247.181 9.644-247.181 187.29s9.643 187.289 247.181 187.289c237.031 0 246.167-9.643 246.167-187.289z" fill-opacity=".96" fill-rule="nonzero"/></g></svg>