<svg height="2500" viewBox="0 134.105 536.742 268.533" width="2500" xmlns="http://www.w3.org/2000/svg"><path d="m266.191 402.419 4.36.219c145.455 0 128.004-94.543 266.191-155.638-81.453 0-167.277-112.895-215.28-112.895-48.004 0-50.911 48.568-50.911 48.568l-.86 4.188s-6.407-52.747-54.411-52.747c-48.003 0-133.827 112.446-215.28 112.446 138.188 61.094 120.727 155.859 266.191 155.859zm146.555-152.866c-56.725 13.818-75.276 45.097-142.003 45.097-63.82 0-119.455-45.097-142.003-45.097-.01 0 218.541 2.544 284.006 0z"/></svg>