<svg clip-rule="evenodd" fill-rule="evenodd" height="491" image-rendering="optimizeQuality" shape-rendering="geometricPrecision" text-rendering="geometricPrecision" viewBox="0 -0.04 7.540000000000001 1.52" width="2500" xmlns="http://www.w3.org/2000/svg"><g fill-rule="nonzero"><path d="M.96.12L.89.64l.5-.23.11.34-.55.11.38.38-.34.24-.24-.46-.27.45-.32-.24.39-.36L0 .74.12.41l.49.23L.54.12zM2.03.08c.06 0 .1.01.14.02.03.01.06.03.08.06s.03.06.04.09.01.07.01.11l-.17.02c0-.02 0-.05-.01-.06 0-.02-.01-.03-.01-.04C2.1.27 2.1.26 2.08.26 2.07.25 2.05.25 2.03.25s-.04 0-.05.01l-.03.03c-.01.01-.01.03-.01.04v.06c0 .05.01.09.03.12s.04.05.07.08l.09.06c.03.02.06.05.09.08s.05.07.07.12.03.11.03.18c0 .12-.02.2-.07.26s-.13.09-.24.09c-.06 0-.1-.01-.14-.02s-.06-.04-.08-.07-.04-.07-.05-.12-.02-.11-.02-.18L1.9.95c0 .05.01.09.01.12s.01.06.02.08.02.03.03.04.03.01.05.01.04 0 .05-.01l.03-.03c.01-.02.01-.03.01-.06v-.08c0-.04 0-.07-.01-.09C2.08.9 2.07.88 2.06.86S2.03.82 2.01.81C1.99.79 1.97.78 1.95.76 1.92.74 1.9.72 1.87.7S1.82.65 1.8.62s-.04-.06-.05-.1-.02-.08-.02-.13 0-.09.01-.13.03-.07.05-.1.05-.05.09-.06.08-.02.14-.02zM2.69.42c.07 0 .13.01.17.04.04.02.07.06.09.1s.03.08.03.13.01.1.01.14V.9h-.4v.12c0 .04.01.07.02.1s.02.05.04.07.04.02.07.02c.04 0 .07-.01.08-.04s.02-.06.03-.11l.16.03c-.01.05-.01.09-.03.12-.01.04-.03.07-.05.09s-.05.04-.08.06a.43.43 0 0 1-.12.02c-.07 0-.13-.01-.17-.04s-.07-.06-.09-.1-.03-.09-.04-.15c0-.06-.01-.11-.01-.18 0-.06 0-.13.01-.18 0-.06.02-.11.04-.15s.05-.08.09-.1c.04-.03.09-.04.17-.04zm0 .14c-.02 0-.04 0-.05.01s-.02.02-.03.04-.01.04-.01.07 0 .06-.01.09h.2V.68c0-.03 0-.05-.01-.07S2.76.58 2.75.57 2.72.56 2.69.56zM3.65 1.35h-.2V.66c0-.03-.01-.04-.02-.05S3.4.59 3.38.59s-.04.01-.05.03-.03.05-.04.1v.64h-.21V.45h.17c0 .02.01.03.01.05s.01.04.01.06c.02-.04.05-.07.07-.1.03-.02.06-.03.11-.03s.1.01.12.04c.03.02.05.06.06.09.02-.04.05-.07.07-.1a.18.18 0 0 1 .11-.03c.04 0 .07.01.1.02s.05.03.06.05c.02.02.03.05.03.08.01.03.01.06.01.09v.68h-.2V.66c0-.03-.01-.04-.02-.05S3.76.59 3.74.59s-.03.01-.05.03c-.01.02-.03.05-.04.1v.64zM4.34 1.35h-.2V.44h.2zm0-1.1h-.2V.03h.2zM4.63.44c0 .02.01.03.01.05s.01.04.01.06c.04-.09.11-.13.2-.13.04 0 .07.01.1.02s.05.03.06.05c.02.02.03.05.03.08.01.03.01.06.01.09v.68h-.2V.65c0-.03-.01-.04-.02-.05C4.81.59 4.8.58 4.77.58c-.02 0-.04.01-.05.03-.02.02-.03.05-.05.1v.64h-.21V.44zM5.43.42c.06 0 .1.01.14.02s.06.03.08.06.03.06.04.1.01.09.01.14v.39c0 .03.01.05.02.06s.03.01.04.01l-.02.13H5.7c-.03 0-.05 0-.07-.01-.02 0-.03-.01-.05-.02-.01-.01-.02-.02-.03-.02-.01-.01-.01-.02-.02-.03-.02.03-.04.05-.07.07s-.07.02-.12.02c-.04 0-.07-.01-.1-.02s-.05-.03-.06-.06a.114.114 0 0 1-.03-.08c-.01-.03-.01-.06-.01-.09 0-.06 0-.1.01-.14s.02-.07.05-.1.06-.05.11-.06.11-.02.19-.02V.7.63c0-.02 0-.03-.01-.04 0-.01-.01-.02-.02-.02-.01-.01-.02-.01-.04-.01-.03 0-.05.01-.06.03s-.02.05-.02.1L5.18.68c0-.05.01-.09.02-.12s.02-.06.04-.09c.02-.02.04-.04.07-.05S5.38.4 5.43.4zm.08.49c-.03 0-.06.01-.08.01-.02.01-.04.02-.05.03s-.02.03-.02.06v.09c0 .04 0 .07.01.09s.02.02.04.02c.05 0 .08-.05.1-.14zM6.03.44h.18l-.02.14h-.16v.53c0 .03 0 .05.01.06s.02.02.03.02c.02 0 .03-.01.04-.02s.02-.03.03-.05l.08.13c-.01.03-.04.05-.07.08a.25.25 0 0 1-.13.03c-.06 0-.11-.02-.14-.05a.265.265 0 0 1-.05-.17V.59h-.07l.02-.14h.05V.23L6.04.2v.26zM6.55.42c.07 0 .13.01.17.04.04.02.07.06.09.1s.03.08.03.13.01.1.01.14V.9h-.4v.12c0 .04.01.07.02.1s.02.05.04.07.04.02.07.02c.04 0 .07-.01.08-.04s.02-.06.03-.11l.16.03c-.01.05-.01.09-.03.12-.01.04-.03.07-.05.09s-.05.04-.08.06a.43.43 0 0 1-.12.02c-.07 0-.13-.01-.17-.04s-.07-.06-.09-.1-.03-.09-.04-.15c0-.06-.01-.11-.01-.18 0-.06 0-.13.01-.18 0-.06.02-.11.04-.15s.05-.08.09-.1c.04-.03.09-.04.17-.04zm0 .14c-.02 0-.04 0-.05.01s-.02.02-.03.04-.01.04-.01.07 0 .06-.01.09h.2V.68c0-.03 0-.05-.01-.07S6.62.58 6.61.57 6.58.56 6.55.56zM7.53 1.35h-.17c-.01-.02-.01-.04-.01-.06v-.06c-.02.04-.04.07-.06.09-.03.02-.07.03-.12.03-.06 0-.1-.01-.13-.04-.03-.02-.05-.06-.07-.1s-.02-.09-.03-.14V.9c0-.07 0-.14.01-.21 0-.06.01-.12.03-.16s.04-.08.08-.1.09-.04.15-.04c.03 0 .06.01.08.02s.04.03.05.06V0l.2-.04v1.35zM7.25.59c-.03 0-.05.01-.06.02s-.03.03-.03.06c-.01.03-.01.06-.01.1V1.06c0 .04 0 .07.01.09 0 .02.01.04.02.05s.02.02.04.02c.04 0 .07-.01.09-.04s.03-.06.03-.11v-.4C7.33.65 7.32.63 7.31.62S7.28.6 7.26.6z"/></g></svg>