<svg fill="none" height="357" width="2500" xmlns="http://www.w3.org/2000/svg" viewBox="0.9064015893374027 1 108.3825984106626 14.458904552926196"><g fill="#000"><path d="M8.5 1a.5.5 0 0 0-.5.5v6a.5.5 0 0 0 .5.5h6a.5.5 0 0 0 .5-.5A6.5 6.5 0 0 0 8.5 1zM9 7V2.022A5.5 5.5 0 0 1 13.978 7zM7 3.522a.5.5 0 0 0-.545-.498 6 6 0 1 0 6.52 6.52.5.5 0 0 0-.497-.544H7zM2 9a5 5 0 0 1 4-4.9v5.4a.5.5 0 0 0 .5.5h5.4A5.002 5.002 0 0 1 2 9zM25.83 6.455a1.338 1.338 0 0 0-.623-1.006c-.363-.239-.81-.358-1.338-.358-.386 0-.724.062-1.014.187a1.62 1.62 0 0 0-.673.516c-.16.219-.239.467-.239.746 0 .233.056.433.166.6.114.165.259.303.435.414.176.108.36.197.554.268.193.069.37.124.533.167l.886.238c.227.06.48.142.759.247.28.106.55.249.805.43.258.18.472.41.64.691s.25.627.25 1.036c0 .471-.123.897-.37 1.278-.245.38-.602.683-1.074.908-.469.224-1.038.336-1.709.336-.625 0-1.166-.1-1.623-.302a2.588 2.588 0 0 1-1.074-.844 2.407 2.407 0 0 1-.44-1.257h1.092c.028.33.139.602.332.818.196.213.443.372.742.478.3.102.625.153.971.153a2.86 2.86 0 0 0 1.087-.196c.32-.134.575-.318.763-.554.187-.239.28-.517.28-.835 0-.29-.08-.526-.242-.708a1.783 1.783 0 0 0-.64-.443 6.719 6.719 0 0 0-.856-.298l-1.074-.307c-.682-.196-1.221-.476-1.619-.84-.398-.363-.597-.839-.597-1.427 0-.489.133-.915.397-1.278.267-.367.625-.651 1.074-.853a3.626 3.626 0 0 1 1.512-.307c.563 0 1.063.101 1.5.303.438.199.784.472 1.04.818.259.347.395.74.41 1.18zm5.487 6.681c-.63 0-1.175-.139-1.632-.417a2.803 2.803 0 0 1-1.052-1.176c-.245-.506-.367-1.094-.367-1.765 0-.67.122-1.26.367-1.772a2.89 2.89 0 0 1 1.03-1.202c.444-.29.96-.435 1.552-.435.34 0 .677.057 1.01.17.332.114.635.3.907.555.273.253.49.588.652 1.005.162.418.243.932.243 1.543v.426h-5.045v-.87h4.023c0-.368-.074-.698-.222-.988a1.67 1.67 0 0 0-.622-.686 1.743 1.743 0 0 0-.946-.251c-.4 0-.747.1-1.04.298-.29.196-.513.452-.669.767a2.254 2.254 0 0 0-.234 1.014v.58c0 .494.085.913.255 1.257.174.34.414.6.72.78a2.11 2.11 0 0 0 1.07.264c.264 0 .503-.037.716-.11.216-.077.402-.191.558-.342.156-.153.277-.343.362-.57l.972.272c-.102.33-.274.62-.516.87-.241.246-.54.44-.894.579a3.319 3.319 0 0 1-1.198.204zm5.246-4.073V13h-1.006V6.455h.972v1.022h.085c.153-.332.386-.6.699-.8.312-.205.716-.308 1.21-.308.443 0 .831.091 1.163.273.333.179.591.452.776.818.185.364.277.824.277 1.38V13h-1.006V8.91c0-.515-.133-.916-.4-1.203-.267-.29-.634-.434-1.1-.434-.32 0-.608.07-.86.209-.25.139-.448.342-.593.609-.145.267-.217.59-.217.971zm10.65-1.143l-.903.256a1.68 1.68 0 0 0-.252-.439c-.108-.145-.255-.264-.443-.358s-.428-.14-.72-.14c-.4 0-.735.092-1.002.277-.264.181-.396.413-.396.694 0 .25.091.448.273.593.182.144.466.265.852.362l.972.238c.585.142 1.021.36 1.308.652.287.29.43.664.43 1.121 0 .375-.108.71-.323 1.006a2.147 2.147 0 0 1-.895.699c-.384.17-.83.255-1.338.255-.668 0-1.22-.145-1.658-.434s-.715-.713-.831-1.27l.955-.239c.09.352.262.617.515.793.256.176.59.264 1.002.264.468 0 .84-.1 1.116-.298.278-.202.418-.443.418-.725a.761.761 0 0 0-.239-.57c-.16-.157-.403-.273-.733-.35l-1.09-.256c-.6-.142-1.04-.362-1.322-.66-.278-.302-.417-.678-.417-1.13 0-.369.103-.696.31-.98.21-.284.496-.507.857-.669a3.007 3.007 0 0 1 1.236-.243c.648 0 1.156.142 1.526.426.372.285.636.66.792 1.125zm4.378 5.216c-.631 0-1.175-.139-1.633-.417a2.803 2.803 0 0 1-1.052-1.176c-.244-.506-.367-1.094-.367-1.765 0-.67.123-1.26.367-1.772.247-.515.59-.915 1.031-1.202.443-.29.96-.435 1.551-.435.341 0 .678.057 1.01.17.333.114.635.3.908.555.273.253.49.588.652 1.005.162.418.243.932.243 1.543v.426h-5.046v-.87h4.023c0-.368-.074-.698-.222-.988a1.67 1.67 0 0 0-.622-.686 1.742 1.742 0 0 0-.946-.251c-.4 0-.747.1-1.04.298-.29.196-.512.452-.669.767a2.253 2.253 0 0 0-.234 1.014v.58c0 .494.085.913.256 1.257.173.34.413.6.72.78a2.11 2.11 0 0 0 1.07.264c.264 0 .502-.037.715-.11.216-.077.402-.191.559-.342.156-.153.277-.343.362-.57l.971.272c-.102.33-.274.62-.515.87-.242.246-.54.44-.895.579a3.318 3.318 0 0 1-1.197.204zM59.7 13h-1.108l3.204-8.727h1.091L66.092 13h-1.108l-2.608-7.347h-.068zm.409-3.41h4.466v.938h-4.466zm8.212-.527V13h-1.006V6.455h.972v1.022h.085c.153-.332.386-.6.699-.8.312-.205.716-.308 1.21-.308.443 0 .83.091 1.163.273.333.179.591.452.776.818.184.364.277.824.277 1.38V13H71.49V8.91c0-.515-.133-.916-.4-1.203-.268-.29-.634-.434-1.1-.434-.32 0-.608.07-.86.209-.25.139-.448.342-.593.609-.145.267-.217.59-.217.971zm7.94 4.09a2.66 2.66 0 0 1-1.13-.234 1.939 1.939 0 0 1-.805-.686c-.199-.301-.298-.665-.298-1.091 0-.375.074-.679.221-.912.148-.236.345-.42.593-.554.247-.133.52-.233.818-.298.3-.068.603-.122.907-.162.398-.051.72-.09.968-.115.25-.029.432-.075.545-.14.117-.066.175-.18.175-.342v-.034c0-.42-.115-.747-.345-.98-.228-.233-.573-.35-1.036-.35-.48 0-.856.106-1.129.316-.273.21-.465.435-.575.673l-.955-.34c.17-.398.398-.708.682-.93.287-.224.6-.38.937-.468.341-.091.677-.137 1.006-.137.21 0 .452.026.725.077.275.048.54.15.796.303.259.153.473.385.644.694.17.31.256.725.256 1.245V13h-1.006v-.886h-.051c-.068.142-.182.294-.341.456s-.37.3-.635.413c-.264.114-.587.17-.967.17zm.153-.903c.398 0 .733-.078 1.006-.234a1.595 1.595 0 0 0 .835-1.385v-.92c-.043.05-.136.097-.281.14-.142.04-.307.075-.495.106a22.395 22.395 0 0 1-.963.128c-.261.034-.505.09-.733.166a1.263 1.263 0 0 0-.545.337c-.136.148-.205.35-.205.605 0 .35.13.614.388.793.261.176.592.264.993.264zm5.688-7.977V13h-1.006V4.273zm2.49 11.182a2.203 2.203 0 0 1-.733-.12l.255-.886c.245.062.46.085.648.068a.776.776 0 0 0 .499-.251c.147-.148.282-.388.404-.72l.188-.512-2.42-6.58h1.09l1.807 5.217h.068l1.807-5.216h1.091l-2.778 7.5c-.125.338-.28.617-.465.839-.184.224-.399.39-.643.499a1.983 1.983 0 0 1-.818.161zm8.878-9v.852h-3.392v-.852zm-2.403-1.569h1.005v6.239c0 .284.042.497.124.64a.64.64 0 0 0 .324.28c.133.046.274.069.422.069.11 0 .201-.006.272-.017l.17-.034.205.903a2.05 2.05 0 0 1-.285.077 2.103 2.103 0 0 1-.465.042c-.284 0-.562-.06-.835-.183a1.659 1.659 0 0 1-.673-.558c-.176-.25-.264-.566-.264-.946zM94.983 13V6.455h1.006V13zm.511-7.636a.715.715 0 0 1-.507-.2c-.139-.134-.209-.295-.209-.482s.07-.348.21-.482c.141-.133.31-.2.506-.2s.364.067.503.2c.142.134.213.294.213.482s-.07.348-.213.481a.7.7 0 0 1-.503.2zm4.996 7.772c-.614 0-1.142-.144-1.585-.434s-.785-.69-1.023-1.198c-.239-.508-.358-1.09-.358-1.743 0-.664.122-1.251.366-1.76.247-.51.591-.91 1.031-1.197.444-.29.96-.435 1.552-.435.46 0 .875.086 1.244.256s.672.41.908.716c.235.307.382.665.439 1.074h-1.006a1.562 1.562 0 0 0-.511-.793c-.262-.233-.614-.35-1.057-.35-.392 0-.736.103-1.032.308a1.997 1.997 0 0 0-.686.856c-.162.367-.243.797-.243 1.291 0 .506.08.946.24 1.321.161.375.388.667.68.874.296.207.643.311 1.041.311.261 0 .498-.045.711-.136s.394-.222.542-.392c.147-.17.252-.375.315-.614h1.006a2.336 2.336 0 0 1-.422 1.044 2.363 2.363 0 0 1-.882.733c-.364.179-.787.268-1.27.268zm8.68-5.216l-.903.256a1.68 1.68 0 0 0-.252-.439 1.216 1.216 0 0 0-.443-.358c-.187-.093-.427-.14-.72-.14-.401 0-.734.092-1.002.277-.264.181-.396.413-.396.694 0 .25.091.448.273.593.182.144.466.265.852.362l.972.238c.585.142 1.021.36 1.308.652.287.29.43.664.43 1.121 0 .375-.108.71-.323 1.006a2.157 2.157 0 0 1-.895.699c-.384.17-.83.255-1.338.255-.668 0-1.221-.144-1.658-.434-.438-.29-.715-.713-.831-1.27l.955-.239c.09.353.262.617.515.793.256.176.59.264 1.002.264.468 0 .84-.1 1.116-.298.278-.202.418-.443.418-.725a.762.762 0 0 0-.239-.57c-.159-.157-.403-.273-.733-.35l-1.091-.256c-.599-.142-1.04-.362-1.321-.66-.278-.302-.417-.678-.417-1.13 0-.369.103-.696.311-.98.21-.284.495-.507.856-.669a3.01 3.01 0 0 1 1.236-.243c.648 0 1.156.142 1.525.426.373.285.637.66.793 1.125z"/></g></svg>