<svg height="2500" width="2373" xmlns="http://www.w3.org/2000/svg" viewBox="-10 0 2447.122000000001 2567.9689999999982"><path d="M703.785 202.922c50.031 0 107.078 13.976 141.684 39.289C897.55 280.309 899.649 345 880.41 382.64c-12.023 23.53-32.238 36.078-56.07 36.078-13.824 0-29.098-4.219-44.922-13.328-6.348-3.653-12.758-8.07-19.227-13.141h-.144c12.07-21.5 21.012-40.52 22.984-53.781 2.965-19.93-9.187-27.848-27.21-30.528-7.563-1.132-16.489-1.441-26.36-1.441h-1.668c-13.629.05-29.348.64-46.305 1.57-13.328-16.84-26.773-34.59-40.285-52.441a4.19 4.19 0 0 0-3.324-1.649c-.543 0-1.09.098-1.613.329a4.157 4.157 0 0 0-2.512 4.441c2.527 17.3 5.062 34.68 8.035 51.871h-.144c-9.422.66-18.997 1.367-28.618 2.09v.008a835.202 835.202 0 0 0-16.972-53.41l-.149.011c6.91-19.691 19.184-35.48 40.88-45.011 17.347-7.618 41.01-11.387 67-11.387zM691.95 0C617.758 0 543.54 14.68 482.4 45.73a345.948 345.948 0 0 0-17.715 9.668c-36.528-27.43-76.102-41.617-112.809-41.617-3.445 0-6.867.13-10.258.38-38.234 2.827-73.133 21.66-97.074 58.448-42.5 65.25-50.297 187.07-38.691 285.02v.012c-22.606-28.7-47.86-64.832-73.422-101.442-.575-.82-1.192-1.308-1.735-1.469a1.415 1.415 0 0 0-.351-.05h-.028c-.054 0-.105.011-.156.02-.281.038-.531.222-.722.51-.66.981-.583 3.13.19 5.188 22.188 59.543 44.88 120.551 71.665 171.102h-.148c-.266.441-.532.89-.801 1.34l-.149.012C123.86 480.622 46.56 529.02 16.84 565.809-10 599.03 1.117 623.48 10.227 643.422c1.445 3.168 2.812 6.168 3.996 9.098 1.629 4.039 2.93 8.03 4.238 12.039 1.23 3.77 2.477 7.601 3.977 11.32v.012c5.398 13.39 14.035 25.18 36.96 34.187 31.2 12.262 89.668 19.652 129.899 19.652 5.601 0 10.898-.14 15.726-.44 12.075-.74 21.192-2.43 28.657-3.81 5.39-1 9.699-1.789 13.726-2.039l.004.008c.848-.058 1.656-.09 2.473-.09 7.3 0 14.398 2.2 25.48 10.672 25.895 19.828 71.262 72.36 101.766 167.63 10.281 32.109 18.871 69.058 28.086 108.698 10.508 45.192 21.797 93.77 37.254 142.04 11.215 35.03 24.64 69.953 41.59 103.39 60.703 119.742 166.246 219.652 225.078 261.762 20.847 14.93 35.875 22.629 47.02 28.34 6.698 3.43 11.683 6 15.777 8.918 7.968 5.71 12.886 13.011 18.113 32.855 4.648 17.621 9.367 44.438 14.723 74.86 6.824 38.789 14.644 83.242 24.554 120.835 2.48 9.41 5.098 18.41 7.867 26.805 11.032 33.39 24.418 56.844 37.012 78.914 11.469 20.102 22.219 38.965 30.297 63.414a236.626 236.626 0 0 1 3.39 11.2c16.278 59.011 17.551 151.316 18.715 244.69l-.14.009c-26.309 25.89-52.8 52.086-71.887 78.277-19.484 26.734-31.18 53.363-42.7 79.562a4.19 4.19 0 0 0-.007 3.34c.465 1.067 1.348 1.89 2.32 2.227l.012.004.125.047c29.129 10.215 58.942 20.691 87.914 22.785 3.887.281 7.742.41 11.582.41 24.887 0 49.067-5.465 72.719-10.797a4.158 4.158 0 0 0 3.215-3.527c5.27-40.52 10.433-79.856 20.933-101.809 10.04-20.992 24.93-25.789 41.329-30.988a4.166 4.166 0 0 0 2.8-4.89c-11.68-51.938-23.289-103.571-27.98-159.489-4.39-52.348-2.711-108.531-.63-165.223l.142.004c17.039 22.457 33.468 47.84 46.039 98.809 14.359 58.183 23.64 149.469 32.937 241.433l-.148.004c-26.73 31.188-53.59 62.606-69.54 87.512-16.37 25.563-21.288 44.3-26.109 62.633a4.175 4.175 0 0 0 .559 3.37 4.203 4.203 0 0 0 2.95 1.825v.008c28.632 3.95 57.6 7.969 84.66 7.969 5.75 0 11.41-.184 16.991-.582 31.868-2.301 60.09-11.801 87.758-21.102a4.157 4.157 0 0 0 2.84-4.012c-.52-35.847-1-70.718 4.902-92.863 5.72-21.45 17.45-30.832 30.059-40.867a4.174 4.174 0 0 0 1.41-4.398c-23.48-82.961-46.73-165.25-49.289-237.688-1.621-45.672 5-87.527 11.399-127.934 3.73-23.515 7.378-46.582 9.218-69.449 4.801-59.945-2.93-118.23-11.02-175.984l.141.004c72.38 18.508 144.852 36.84 209.61 45.37 40.472 5.329 77.902 6.829 114.05 6.829 22.372 0 44.38-.578 66.22-1.176l.14.008c22.73 51.836 45.93 104.203 79.332 143.227 34.008 39.718 78.367 65.402 101.89 77.785a617.45 617.45 0 0 0 4.899 2.554c1.29.668 2.66 1.38 3.781 1.97 14.239 7.495 16.95 9.675 24.149 37.577 8.53 33.055 22.468 99.438 8.949 164.813-13.5 65.238-54.379 129.898-95.938 195.402l-.14.004c-16.98 10.676-34.34 21.746-53.653 42.402-19.558 20.914-41.078 51.633-62.359 81.985a4.182 4.182 0 0 0-.52 3.793 4.173 4.173 0 0 0 2.801 2.613c30.66 8.625 61.782 17.39 94.68 19.836 7.14.531 14.34.762 21.602.762 26.18 0 53.128-3.024 79.796-6.016a4.15 4.15 0 0 0 3.602-3.234c4.078-18.297 7.91-34.926 16.91-44.887 8.88-9.832 23.281-13.61 39.442-17.691a4.17 4.17 0 0 0 3.117-3.54c8.222-67.695 16.39-134.703 47.031-202.011 15.121-33.219 35.738-66.574 54.379-96.715 15.05-24.344 28.91-46.723 37.2-64.942 2.23-4.906 4.093-9.558 5.472-13.925v.008-.012.004c10.16-32.223-6.531-46.313-21.14-58.672-4.59-3.88-8.84-7.48-12.34-11.516-12.442-14.347-15.942-34.832-18.102-57.449l.133.004c47.136 49.988 93.968 99.277 132.41 132.437 27.937 24.106 51.41 39.657 70.117 52.055 8.633 5.727 16.18 10.73 22.7 15.586 19.78 14.73 30.452 27.887 32.23 80.336 1.78 52.742-5.52 143.875-12.93 235.672l-.129.008c-35.09 26.89-70.48 54.097-90.8 77.105-20.97 23.738-26 43.086-30.88 61.813a4.174 4.174 0 0 0 .45 3.187 4.222 4.222 0 0 0 2.59 1.914c31.07 7.621 62.699 15.399 95.449 15.676.55.004 1.261.008 1.82.008 32.14 0 65.172-7.078 97.672-14.031a4.161 4.161 0 0 0 3.289-3.848c1.3-23.692 2.629-45.48 13.66-60.055 11.059-14.617 32.32-22.586 55.371-31.066a4.17 4.17 0 0 0 2.707-4.32c-5.379-55.055-10.758-110.024-13.156-192.891-.961-33.317-1.453-71.086-1.922-107.656-.441-34.125-.86-67.079-1.648-94.258-.473-16.18-1.063-30.352-1.883-41.434-2.7-36.832-8.149-41.281-29.219-55.847-7.66-5.301-17.48-12.09-30.25-22.797-46.75-39.22-130.648-128.899-134.629-199-2.34-41.13 22.86-76.172 52.848-117.524 20.242-27.894 42.37-58.383 57.992-94.742 37.96-88.36 37.238-210.879 36.11-332.55h.128c25.32 3.48 49.692 7.57 72.57 22.76 13.5 8.97 26.583 21.868 37.88 33.028 7.992 7.89 15.363 15.192 21.07 18.98.75.512 1.52.973 2.27 1.384l.011.007c2.04 1.09 4.23 1.871 6.45 1.871.69 0 1.39-.082 2.09-.25a7.976 7.976 0 0 0 3.062-1.48v.012c3.699-2.871 4.52-8.371 4.52-13.614 0-8.238-2.122-20.136-5.942-34.84-8.692-33.367-26.961-84.038-64.68-114.456-37.352-30.122-93.25-39.832-147.738-49.223l-.133.012c-94.04-79.332-188.988-159.18-347.43-187.7-81.71-14.71-180.219-15.75-274.398-16.75-87.242-.93-170.672-1.832-234.442-13.3h-.03c-1.06-.2-2.169-.41-3.227-.602-80.524-15.117-128.59-47.789-171.622-77.059-27.39-18.628-53.082-36.14-83.71-46.37-34.95-11.669-76.11-13.81-116.493-15.93-40.648-2.14-80.527-4.258-114.101-15.48-8.278-2.759-16.137-6.079-23.504-10.052-55.98-30.25-85.606-100.347-111.149-178.757l.149.007c35.926 24.872 84.207 40.891 132.594 40.891 49.765 0 99.914-16.969 136.695-59.07 74.3-85.028 93.39-272.578-18.418-379.918C921.762 34.969 806.403 0 691.949 0zm0 0"/></svg>