<svg viewBox="0.09071193476325473 0 552.6092880652368 243.9145760161471" xmlns="http://www.w3.org/2000/svg" width="2500" height="1104"><path d="M98.2 225.3l-.4.2v.2h.2l.2-.2zm-17.1.2H81v.2zm-42.6-7.2l1.4-1.6 1.6-2.1a12.7 12.7 0 0 0 1.3-1.9l-.7.7-.9 1a10.5 10.5 0 0 1-.8 1.1l-.8 1.2-.8 1.1zm3.8 7.1l.2-.2h-.2zm-24.1-1.2l1-3 1.2-3 2.3-5.9.6-1.3.5-1.3.8-2.1h-.2l-.9.4-.9.5-.9.6-1.5 1.3-1.4 1.4a36.1 36.1 0 0 0-3.3 3.5c-1.1 1.3-2.1 2.6-3.1 4l-2 3a25.2 25.2 0 0 0-1.5 2.4l2.6-.5 3.1-.2h3.6zm214.8 1.2h-.1c0 .1 0 .2.1.2zm-17.7-11.5l.3-.6.4-.6.5-.4.6-.3.5-.3.7-.2h1.1a3.8 3.8 0 0 1 1.5 0h2.1a1 1 0 0 1 .5.4 4.3 4.3 0 0 1 .1.5l-.2.3c0 .1-.1.2-.2.3a.6.6 0 0 1-.7.2l-1.1-.2h-1.2l-1.1.2a3.3 3.3 0 0 0-1 .6h-.1l-.2.2-.2.3c0 .2-.1.3-.2.5l-.4.4-.6.2a.8.8 0 0 1-.7-.2c-.2-.2-.4-.4-.4-.6a.9.9 0 0 1 0-.7zm4.1 11.7v-.2h-.1zm-36.5 3.2l-.5.6-.5.7-.4.6.4-.4.7-.6.6-.8.7-.7.7-1h-.1l-.8.8a2.7 2.7 0 0 0-.7.8zm25.5-22.6l-1.1 1.2-1.1 1.4-.9 1.4-2.2 3.4-1.2 1.9-1.2 2-.8 1.3h1.5l.6.2.5.3a1.4 1.4 0 0 1 .2.7l-.4.7a1.3 1.3 0 0 1-1 .4h-2.8l-.9 1.6-1 1.9a6.6 6.6 0 0 0-.9 1.9 14.6 14.6 0 0 0-.7 1.9l-.2.9v.3c0 .1 0 .2.1.2h1.3l1.1-.3.9-.5 2.1-1 4.1-2.1c2.3-1.3 4.7-2.7 7.1-3.8l.6-.2.6-.2h1.2a.8.8 0 0 1 .5.5 1.1 1.1 0 0 1 0 .8v.4l-.3.5a2.1 2.1 0 0 0-.3.7l-.3.6-.2.8c0 .2-.1.4-.1.6a.4.4 0 0 1 .1.3h.5l.7-.2 1.5-.5a5.7 5.7 0 0 0 1.3-.8l.6-.3.7-.3.6-.2h.2l1.8-.9 1-.5 1.1-.5 1.2-.4 1.1-.3 1.2-.2h1.8l.4.2c.2.2.2.4.3.6a1.4 1.4 0 0 1-.2.6 1 1 0 0 1-.4.5h-2.8l-1 .2-.9.3-.3.2-.3.2-.3.3-.3.2-.2.3-.2.3v.3a.4.4 0 0 0 .1.3l.3.4.6.3h1.9l.4-.2.7-.4.4-.2h.8l.4.2h.1a1.4 1.4 0 0 1 .2.7 2.5 2.5 0 0 1-.2.7l-.2.6 1-1 1.2-1.1 1.4-.9.5-.5h.3l.4-.3 2.5-1.3 2.4-1.5 2.2-1.6 1.9-1.7 1.4-2.9.8-1.3.7-1.3a6.4 6.4 0 0 1 1-1.3 5.2 5.2 0 0 1 1.1-1l.4-.3.5-.2h1.7l.4.3a.9.9 0 0 1 .3.7 3.1 3.1 0 0 1-.2.8 1.4 1.4 0 0 1-.2.6 4.3 4.3 0 0 1-.4.7l-.4.5-.5.6-.5.5-.9.9-2.2 2.3-.9.8-.9.8c-.5 1.2-1.1 2.4-1.7 3.7h.1l1.3-.7 1.3-.7 1.3-.6.5-.3.6-.2a3.3 3.3 0 0 1 1.4 0l.7.4a2.5 2.5 0 0 1 .4.7v.8a1.9 1.9 0 0 1-.2.7l-.3.6-.4.5-.8 1.1a2.1 2.1 0 0 1-.4.6l-.3.5a4.3 4.3 0 0 1-.1.5l.5-.2 1.1-.4 1.1-.5 1.3-.8.8-.5.4-.2h.9l.2.3c.1 0 .1.2.2.3v.3a.8.8 0 0 1-.2.4c0 .1-.1.2-.3.2l-.9.6-.9.5-.9.5-1.8 1-.5.3-.6.3h-1.1l-.7-.2c-.2-.1-.3-.3-.5-.5l-.3-.5v-1.1c.1-.1.1-.3.2-.5l.2-.4.3-.4.9-1.4.4-.7a.9.9 0 0 0 .3-.6v-.2h-.5l-1.6.6h-.3l-.8.5-.8.4-.9.6-.8.5-1.1.9-.7.6-.7.7-.3.3h-.9l-.4-.2-.3-.4a.7.7 0 0 1-.1-.6.4.4 0 0 1 .1-.3.5.5 0 0 1 .2-.4 7.6 7.6 0 0 0 1.1-1.4 17.1 17.1 0 0 0 1.1-1.4 10 10 0 0 0 .8-1.4l-.7.5-1.1.8-1.9 1.3-.7.4a11.8 11.8 0 0 1-1.9 1.1l-.8.5-1 .6-1 .8-.9.8-1 1-1 1.1-.9 1.1a10.5 10.5 0 0 0-.8 1.1l-1 2.6-1.5 4.1-.9 2-.2.4-.2.3-.3.4-.4.3-.4.2h-.5l-.6-.2c-.1-.2-.3-.3-.3-.5s-.1-.4-.2-.6a1.1 1.1 0 0 1 .1-.5v-.5l.2-.5.3-.9c.2-.6.5-1.3.8-2l1.1-1.9 1.2-1.8 1.3-1.8 1.1-3.5h-2.6l-.8-.2-.7-.3-.6-.6a2 2 0 0 1-.4-.8 4.3 4.3 0 0 1-.2-1.1.7.7 0 0 1-.6.1h-.1l-.5.3-.6.3-3.1 1.5-1 .4-1 .3h-.9a2.1 2.1 0 0 1-.9-1.3 1.9 1.9 0 0 1-.1-.8 6.5 6.5 0 0 1 .2-1.9l.3-1-1.2.4-.8.4-.9.4-.7.4-.5.3h-.2l-1.8 1-1.8.9-1.8.9-1.8 1-2.2 1.3a3.8 3.8 0 0 1-1.3.6 5 5 0 0 1-1.3.3h-.7l-.8-.3a2.6 2.6 0 0 1-1.2-1.2 5.2 5.2 0 0 1-.2-1.1 5 5 0 0 1 .2-1.2 4.9 4.9 0 0 1 .4-1.1 3.6 3.6 0 0 1 .4-.9 6.1 6.1 0 0 1 .7-1.4 10.1 10.1 0 0 1 .7-1.5l1.1-1.9-2.1.6-1.5.5-1.5.6-1.5.8-1.4.7c-.6 1-1.2 2-1.9 3l-1 1.5-1.1 1.5-.6.7-.7.7a2.7 2.7 0 0 1-.8.7l-.9.4h-.7l-.6-.2-.4-.3c-.1-.2-.2-.3-.2-.5a.9.9 0 0 1-.1-.5v-.6a1.1 1.1 0 0 1 .1-.5c0-.2.1-.4.1-.6l.6-1a6.1 6.1 0 0 1 .7-1l.8-.9.9-.8.9-.7 1-.7.9-.7 1.9-1.2.7-1 1.8-3.5 1-1.9 1-2a18.2 18.2 0 0 0 1.4-3.9l.2-1v-.8a.6.6 0 0 0-.1-.4l-.6-.5-.3-.3a.8.8 0 0 1-.1-.4v.4c0-.2.1-.3.1-.4l.3-.3.3-.2h.8a2.1 2.1 0 0 1 1 .6 4.1 4.1 0 0 1 .5.9 4.3 4.3 0 0 1 .2 1.1 2 2 0 0 1 0 1.1 9.8 9.8 0 0 1-.5 2.2l-.3 1-.4.8a16 16 0 0 1-1 2.3l-1.2 2.2-2 3.5.5-.2 1.5-.7 3.1-1.1 1.4-.4 1.3-.4 2.6-4 .8-1.4 2-3.2 1-1.6 1-1.6.9-1.5a5.6 5.6 0 0 1 .5-.8l.7-.7h.9l.3.2.3.3a1.4 1.4 0 0 1 .2.7 1.2 1.2 0 0 1-.4.8zm-61.5 12.1a10.7 10.7 0 0 0 1.4-1.6l1.7-2.1 1.2-1.9-.6.7-.9 1-.8 1.1-1.7 2.3zm3.8 7.1h-.2c0 .1 0 .2.1.2l.3-.2zm-12.3-.7l1.2-.6 1.2-.7 1.1-.8 1.1-.8.6-1.1a7.5 7.5 0 0 1 .7-1.2c1.1-1.9 2.2-3.6 3.4-5.4l1.4-1.9.7-.9a6.2 6.2 0 0 1 1.4-1.4h-.2l-.8-.2-.8-.2h-4.5l-1.9.2-1.9.4-1.8.4-1.9.5-1.6.6-.8.3-.7.3-1.1 1.4-1.2 1.6-1.1 1.6a16.3 16.3 0 0 1-1.1 1.7l-.6 1.1-.6 1.1-.8 1.4 1.4-.3 3.4-.5h4.8a1 1 0 0 1 .5.4 1.3 1.3 0 0 1 .3.5 1.3 1.3 0 0 1-.1.6l-.2.4-.5.3h-7.2l-1.2.2-2.3.5-.3.7-.3.8-.7 1.6-.3 1.1-.3 1a3.6 3.6 0 0 0-.2 1 4.1 4.1 0 0 0-.1 1.1v1.2l.2.3.2.5.2.4a.9.9 0 0 1-.5 1.1h-.5a.4.4 0 0 1-.5-.1l-.4-.3-.3-.4-.2-.4v-1.2a5.3 5.3 0 0 1-.1-1.3c.1-.4.1-.8.2-1.3l.3-1.2a9.3 9.3 0 0 0 .4-1.3l.7-1.7.3-.7-.3.2h-.8l-.4-.2-.3-.4c0-.1-.1-.3 0-.5a.8.8 0 0 1 .1-.4l.3-.3h.1l1.3-.5 1.2-.5c.7-1.3 1.4-2.6 2.2-3.9l1-1.7 1.1-1.6a9.9 9.9 0 0 1 1.1-1.7l.3-.5-2 .9-2.6 1.2h-.9l-.3-.3-.3-.3v-.6a1.3 1.3 0 0 1 .3-.5l.4-.2 3.8-1.5 2-.8 1.8-.6 1.4-1.6a11.4 11.4 0 0 1 1.5-1.7 8 8 0 0 1 1.7-1.5 9.4 9.4 0 0 1 1.8-1.2l.7-.2h1.3l.4.2.3.3a1.1 1.1 0 0 1 .2.7 1.4 1.4 0 0 1-.2.7 1.3 1.3 0 0 1-.6.5h-1.8l-.4.2-.8.5-.9.7-.8.7-.6.6 1.2-.4 1.3-.4 1.3-.3 1.9-.4 1.9-.3 1.9-.2h4.8l1 .3.3.2.3.2c.1.1.1.3.2.4v.3c.1.2 0 .3 0 .4l.7.2a1.6 1.6 0 0 1 .5.8.7.7 0 0 1 .1.5 1.3 1.3 0 0 1-.1.6.8.8 0 0 1-.2.5l-.3.6-.3.4-.8 1.2c-.6.8-1.1 1.7-1.7 2.4s-1.3 1.6-2 2.3l-2.1 2.2-2.2 1.9-.4 1a5 5 0 0 0-.5 1.3v.6l-.2.6v.6l1.4-.2 1.2-.3 1.2-.4 1.1-.4 1.5-.7.4-.2h.3l2.2-1.2 2.3-1.3.7-.4.8-.6.8-.5.8-.3h.7c.2.1.3.3.5.5a1.4 1.4 0 0 1 .2.6.9.9 0 0 1-.3.7.8.8 0 0 1-.2.4l-.4.4a1.7 1.7 0 0 0-.6.6l-.8 1.1a3.7 3.7 0 0 0-.5 1.1h-.1c0 .2-.1.3-.2.5l-.2.6v.6l.5-.3.9-.5 1.8-1.3.7-.7.7-.6.7-.7.6-.4.4-.2h.4l.3.2.3.2c.1.1.1.3.2.4v.5a1.4 1.4 0 0 0-.2.6l-.3.6-.3.4-.6.9a10.9 10.9 0 0 1-.8 1.5l-1.5 2.9 3.6-3.6.8-.7.9-.7.8-.6.7-.4.6-.4h.6a.9.9 0 0 1 .6.4.6.6 0 0 1 0 .6.9.9 0 0 1-.3.5l-.9.8-1.1.7-.4.2-.2.2-.9.8-.9.7-.9.9-.8.9-1.5 1.8a13.3 13.3 0 0 0-1.4 1.9 24.3 24.3 0 0 0-1.4 2 22.5 22.5 0 0 0-1.2 2.1c-.7 1.2-1.3 2.6-2 3.8v.3a2.1 2.1 0 0 1-.4.6l-.5.2h-.8l-.4-.3-.3-.5v-.5l.2-.4.3-.6c1.5-2.9 3-5.8 4.4-8.8l1.1-2.2 1.1-2.4.4-.9-.5.4-.8.7a3.9 3.9 0 0 1-1 .8l-.5.3-.6.2h-.6l-.6-.2a1.8 1.8 0 0 1-.7-.5 1.6 1.6 0 0 1-.4-.7v-.8a2.9 2.9 0 0 1 .2-.9l.3-.9a4.2 4.2 0 0 1 .4-1l.4-.8-1 .5-1.3.7-1.4.8-.5.3h-.3c-1.8 1-4.2 1.7-6.2 2.6l-.8.2h-1.4l-.5-.2-.4-.4-.3-.6a4.3 4.3 0 0 1-.1-.5v-1.2a.7.7 0 0 1 .1-.5l.3-1.1-.7.5-1.8 1h-.7a1 1 0 0 1-.5-.4h-.1a.5.5 0 0 1 0-.5c0-.2.1-.3.3-.5zM.5 227.4l1.5-.7 1.5-.5 3-.9a37.3 37.3 0 0 1 2.3-3.7l1.4-2 1.4-1.9 1.5-2 1.5-1.8 1.5-1.9 1.6-1.7 1.8-1.6.8-.8.9-.7 1-.6.9-.6.8-.4.6-.3.6-.2h1.2a.7.7 0 0 1 .6.3 1 1 0 0 1 .4.5v.5a.6.6 0 0 1-.1.4c-.6 1.5-1.3 3-1.9 4.4s-1.1 2.4-1.6 3.5l-.7 1.7c-.7 1.7-1.4 3.3-2 5l-.6 1.6-.4 1.2h.8a1 1 0 0 1 .5.4 1 1 0 0 1 .2.7 1.4 1.4 0 0 1-.2.7.9.9 0 0 1-.6.4h-1.4a8.3 8.3 0 0 1-.4 1.5l-.2 1-.2 1.1v1l-.2 1v2l1.6-1.8a5.7 5.7 0 0 1 1.1-1.1l1.2-1.1 1.9-1.5a13.3 13.3 0 0 1 1.9-1.4 13.7 13.7 0 0 1 2-1.3l2-1.2 1.2-.7 1.2-.7 1.2-.8 1.1-.8a11.7 11.7 0 0 1 .5-1.1 7.5 7.5 0 0 0 .7-1.2c1.2-1.9 2.2-3.6 3.5-5.4l1.3-1.9.7-.9a5.5 5.5 0 0 1 1.8-1.6l.6-.3h.6a1.1 1.1 0 0 1 .8.1 1.1 1.1 0 0 1 .5.8 1.1 1.1 0 0 1 .1.5v.6a1.4 1.4 0 0 0-.2.6l-.3.5-.3.4-1 1.3a20.7 20.7 0 0 1-1.7 2.4l-1.9 2.3a22.8 22.8 0 0 1-2.2 2.2l-2.2 1.9-.6 1.6-.2.6-.2.7a1.3 1.3 0 0 0-.1.6v.6l1.4-.2 1.1-.3 1.2-.4 1.2-.4 1.2-.5.7-.4h.3l2.2-1.1 1.6-.7.8-.3a2 2 0 0 0 .8-.4l.7-.4.5-.3h.6a1 1 0 0 1 .7.2.9.9 0 0 1 .3.6h.1a1.7 1.7 0 0 1-.1.7l-.5.6-.8.7-.5.5-.5.5-.4.6-.4.6-.6.8a.5.5 0 0 1-.2.4l.9-.2 1.5-.7 1.3-1 1.1-1.1.3-.7.2-.4.3-.3.2-.4.4-.3.4-.2h.4l.6.2a1.6 1.6 0 0 1 .5 1.2.9.9 0 0 1-.3.6l-.3.5-.4.4-.8.7v1h.8l.6-.2 1.4-.9a2.2 2.2 0 0 1-.1-.8l.3-1 .5-.7c.1-.3.4-.5.6-.8l.9-.6h.9a1.1 1.1 0 0 1 .8.3l.3.3v.3c.1.1 0 .3 0 .5l-.3.5-.3.4c-.5.6-.9 1.2-1.5 1.8H60l1-.3 1-.3.9-.5h.3l1.7-.9 4.3-1.9.6-.3.8-.2.8-.3.8-.2h1.5l.6.2c.2.3.4.5.4.7a.6.6 0 0 1-.2.7l-.4.4c-.2.2-.4.2-.6.3l-1.8.2-.4.2-.4.2-.9.5-.6.7-.5.6-.5.6a2.1 2.1 0 0 0-.4.6l-.3.6a.4.4 0 0 0-.1.3h.4l.5-.2.6-.2.5-.3.5-.2.6-.4 1.1-.8.8-.8c.4-.5.8-.6 1.3-.2a.9.9 0 0 1 .4.6.8.8 0 0 1 0 .7l-.2.4c0 .1-.1.2-.2.3l-.4.4v.2l-.2.4h1.3l.8-.2.9-.3.9-.3.9-.4.8-.4.9-.4.6-.4 2.9-1.5 2.3-1.3.6-.4.8-.6.8-.5.9-.3h.6a1.2 1.2 0 0 1 .5.5.7.7 0 0 1 .2.6 1.4 1.4 0 0 1-.2.7l-.3.4-.4.4-.3.3-.3.3-.7 1.1-.6 1.1-.3.8v.9l1.5-.8 1.7-1.3.8-.7.7-.6.7-.7a.9.9 0 0 1 .6-.4l.3-.2h.4l.4.2.2.2.2.4v.5a1.4 1.4 0 0 1-.2.6l-.3.6-.3.4-.5.9-.8 1.5-1.8 2.4 3.6-3.6.8-.7.8-.7.8-.6.7-.4 2.1-1.3.9-.5 1-.5.9-.4.9-.4h1.5l.3.2.3.2a1.7 1.7 0 0 1 .2.5 1.4 1.4 0 0 1-.2.6l-.3.3-.3.2-.4.2-.7.2.3.2h.3l.9.3.7.2.7.6a1.6 1.6 0 0 1 .4.7.6.6 0 0 1 .1.4l3.5-2 .5-.2.4.2.3.3a.9.9 0 0 1 .1.5 1.1 1.1 0 0 1-.5.9l-.7.2-.9.5-4.2 2.3-1.1.5-1.2.4h-2.1l-.8-.6a2.2 2.2 0 0 1-.5-.8 2 2 0 0 1-.2-.9v-.4l.2-.5.7-.4h.5l.4.2a.5.5 0 0 1 .2.4c.1.1.1.3.2.4a1.1 1.1 0 0 0 .1.6h1.6l.5-.2.4-.3.4-.3.2-.3.3-.4-.3-.2-.4-.3h-.6l-.6-.2-.6-.2-.4-.3c-.2-.1-.3-.3-.4-.4s-.2-.3-.2-.5v-.2l-1.7.8-.4.3-.4.3-.6.4h-.1l-.6.5-1 .7-.5.2-.2.2-.9.8-.9.7-.8.9-.8.9a13.7 13.7 0 0 0-1.6 1.8l-1.4 1.9-1.4 2-1.2 2.1c-.6 1.2-1.2 2.6-1.9 3.8v.3l-.4.6h-.1a1.2 1.2 0 0 1-1 .1l-.5-.3a.8.8 0 0 1-.2-.5.7.7 0 0 1-.1-.5l.2-.4.3-.5 4.5-8.9 1.1-2.2 1-2.4.4-.9-.4.4-.8.7-1 .8-.6.3-.5.2h-.7l-.6-.2a1.8 1.8 0 0 1-.7-.5 1.5 1.5 0 0 1-.3-.7c0-.3-.1-.6 0-.8a2.8 2.8 0 0 1 .1-.9c.2-.6.4-1.2.7-1.9l.5-.8-1 .5-1.4.7-1.4.8-.5.3-.3.2-4.5 2.2-1.1.6-.6.2-.7.2h-2l-.7-.5a1.6 1.6 0 0 1-.4-.7v-.3l-1.9 1.2-.8.4-.9.2H67l-.7-.4-.6-.6a2.9 2.9 0 0 1-.2-.9c0-.2.1-.4.1-.6l.3-.7.4-.8.5-.7.4-.6-3.2 1.7h-.1l-.6.3-.6.2-1 .4-2.1.5h-2.4l-.6-.2h-.2l-.6.6-1 .7-1 .5h-1.1a1.2 1.2 0 0 1-.9-.3 1.3 1.3 0 0 1-.6-.7 2.9 2.9 0 0 1-.2-.9v-.2l-2.1 1.7-1 .6-1.2.5h-.8l-.9-.2-.4-.3-.3-.4a.8.8 0 0 1-.2-.5 1.3 1.3 0 0 1 .1-.6l.3-.7a1.6 1.6 0 0 1 .4-.7c.5-.7 1.1-1.4 1.6-2.2l-.3.2-2.4 1.2a2.7 2.7 0 0 1-1.1.5c-1.8 1.1-4.4 1.8-6.4 2.7l-.7.2h-1.5l-.6-.2-.4-.4a1.4 1.4 0 0 1-.2-.6 3.6 3.6 0 0 1-.2-1.1v-1.1l.3-1.1-.7.5-1.8 1h-.1l-1.5.9-1.9 1.6-1 .7-1 .8-2.9 2.6a26.1 26.1 0 0 0-2.7 3.1l-.2.4-.2.3-.4.3-.5.2h-.7l-.5-.3-.4-.4-.3-.4c0-.2-.1-.4-.1-.6a.9.9 0 0 1-.1-.5v-1.1c0-.6.1-1.3.1-2s.3-1.3.4-2l.5-1.9.5-1.5h-5.2l-1.5.2-1.4.2-1.7.2-1.5 3.1c-.1.4-.3.7-.4 1.1s-.1.7-.2 1.1v.7a1 1 0 0 1-.4.5l-.5.2a1 1 0 0 1-.9-.4l-.3-.4v-.5a4.9 4.9 0 0 1 .6-2.3l1.2-2.5-2 .7-.6.3-1.4.6-.3.2H.5l-.3-.2v-.3a.4.4 0 0 1-.1-.3v-.5l.2-.3.2-.2z" fill="#c39b54"/><path d="M485 228.9a1.8 1.8 0 0 0 1.9-1.9 1.9 1.9 0 0 0-3.8 0 1.8 1.8 0 0 0 1.9 1.9m-7-2.5c-.7 0-1.3-.6-1.3-1.6a1.3 1.3 0 1 1 2.6 0c0 1-.6 1.6-1.3 1.6zm0 2.5c2.6 0 4.5-1.7 4.5-4.1s-1.9-4-4.5-4-4.6 1.6-4.6 4 1.9 4.1 4.6 4.1zm-9.3.1a5.5 5.5 0 0 0 4.5-2l-2.2-1.9a2.8 2.8 0 0 1-2.2 1.1 2.2 2.2 0 0 1-2.3-2.5 2.3 2.3 0 0 1 2.3-2.5 2.6 2.6 0 0 1 2.2 1.2l2.2-1.9a5.5 5.5 0 0 0-4.5-2c-3.3 0-5.6 2.1-5.6 5.2s2.3 5.3 5.6 5.3zm-18-2.9v-4.8h1.4a2.3 2.3 0 0 1 2.4 2.4 2.2 2.2 0 0 1-2.4 2.4zm-3.4 2.6h5c3.3 0 5.6-1.9 5.6-5s-2.3-5-5.6-5h-5zm-6.3-2.5v-1.3h4.2v-2.5H441v-1.1h4.8v-2.6h-8.1v10h8.3v-2.5zm-8.4 2.5h3.4v-10h-3.4zm-1-7.4v-2.6h-8.2v10h3.4v-3.2h4.2V223h-4.2v-1.7zm-13.2 7.4h3.4v-10h-3.4zm-7.2 0h3.3v-7.4h3v-2.6h-9.3v2.6h3zm-6.8-6.2a1.1 1.1 0 0 1-1.3 1.2h-1.3v-2.4h1.3a1.1 1.1 0 0 1 1.3 1.2zm0 6.2h3.7l-2.1-3.1a3.2 3.2 0 0 0 1.8-3.1c0-2.3-1.7-3.8-4.5-3.8h-4.9v10h3.4v-2.5h.9zm-12.3-2.5v-1.3h4.3v-2.5h-4.3v-1.1h4.8v-2.6h-8.1v10h8.3v-2.5zm-8.8 2.8a5.4 5.4 0 0 0 4.5-2l-2.1-1.9a2.8 2.8 0 0 1-2.2 1.1 2.3 2.3 0 0 1-2.4-2.5 2.3 2.3 0 0 1 2.4-2.5 2.6 2.6 0 0 1 2.2 1.2l2.1-1.9a5.4 5.4 0 0 0-4.5-2c-3.2 0-5.6 2.1-5.6 5.2a5.3 5.3 0 0 0 5.6 5.3zm-14.7-6.8h-.5v-.9h3.9v-2.6h-6.7l-.5 6.1h2.9c1.2 0 1.5.3 1.5.7s-.5.8-1.3.8a5.4 5.4 0 0 1-2.7-.7l-1.1 2.5a8 8 0 0 0 3.9.9c3.2 0 4.6-1.8 4.6-3.6s-1-3.2-4-3.2zm-10.4-3.5v2.6h1.7v7.4h3.4v-10zm-4.9 7.6c-.7 0-1.2-.6-1.2-2.6s.5-2.5 1.2-2.5 1.1.6 1.1 2.5-.5 2.6-1.1 2.6zm0 2.7c2.6 0 4.5-2 4.5-5.3s-1.9-5.2-4.5-5.2-4.6 1.9-4.6 5.2 1.9 5.3 4.6 5.3zm-8.7-2.9l1.5-1.3c1.4-1.3 1.7-2.2 1.7-3.2s-1.7-3.1-4.1-3.1a4.5 4.5 0 0 0-4.3 2.3l2.6 1.3a1.6 1.6 0 0 1 1.4-1c.7 0 1 .3 1 .8s-.1.8-.8 1.4l-3.6 3.4v2h8v-2.6zm-11.5 2.8a1.8 1.8 0 0 0 1.9-1.9 1.9 1.9 0 0 0-3.8 0 1.8 1.8 0 0 0 1.9 1.9zm0-4.4a1.8 1.8 0 0 0 1.9-1.9 1.9 1.9 0 0 0-3.8 0 1.8 1.8 0 0 0 1.9 1.9zm-12.4-5.8v2.6h1.7v7.4h3.4v-10zm-4.9 7.6c-.7 0-1.2-.6-1.2-2.6s.5-2.5 1.2-2.5 1.1.6 1.1 2.5-.5 2.6-1.1 2.6zm0 2.7c2.6 0 4.5-2 4.5-5.3s-1.9-5.2-4.5-5.2-4.6 1.9-4.6 5.2 1.9 5.3 4.6 5.3zm-9.9-2.7c-.7 0-1.2-.6-1.2-2.6s.5-2.5 1.2-2.5 1.1.6 1.1 2.5-.5 2.6-1.1 2.6zm0 2.7c2.6 0 4.5-2 4.5-5.3s-1.9-5.2-4.5-5.2-4.6 1.9-4.6 5.2 1.9 5.3 4.6 5.3zm-10-6.1a1 1 0 0 1-1-1.1 1 1 0 0 1 2 0 1 1 0 0 1-1 1.1zm-.2-4.4c-2.3 0-4.1 1.3-4.1 3.5a3.2 3.2 0 0 0 3.4 3.2 3 3 0 0 0 2-.6 1.9 1.9 0 0 1-2.2 1.7 3.1 3.1 0 0 1-1.8-.5l-1.2 2.4a5.9 5.9 0 0 0 3.1.8 5.2 5.2 0 0 0 5.6-5.6c0-3.3-2-4.9-4.8-4.9zm-14.7 7.7a2.2 2.2 0 0 1-2.2-2.5 2.3 2.3 0 1 1 4.5 0 2.3 2.3 0 0 1-2.3 2.5zm0 2.8c3.3 0 5.7-2.2 5.7-5.3s-2.4-5.2-5.7-5.2-5.6 2.2-5.6 5.2 2.3 5.3 5.6 5.3zm-10.9 0c3.1 0 4.6-1.6 4.6-3.4 0-3.7-5.5-2.7-5.5-3.9s.3-.6 1.3-.6a6.1 6.1 0 0 1 2.8.7l1-2.5a8.9 8.9 0 0 0-3.8-.8c-3.1 0-4.6 1.5-4.6 3.4 0 3.7 5.5 2.7 5.5 3.9s-.3.6-1.3.6a7.4 7.4 0 0 1-3.3-.9l-1.1 2.4a8.2 8.2 0 0 0 4.4 1.1zm-8.8-.3h3.4v-10h-3.4zM483.5 195.3a3.2 3.2 0 0 0 3.3-3.3 3.3 3.3 0 0 0-6.6 0 3.2 3.2 0 0 0 3.3 3.3m-16.6-4.9v-8.3h2.5a4.2 4.2 0 0 1 0 8.3zM461 195h8.6c5.9 0 9.9-3.3 9.9-8.7s-4-8.8-9.9-8.8H461zm-12.6 0h5.9v-12.9h5.2v-4.6h-16.2v4.6h5.1zm-17.6 0h13.8v-4.6h-7.9v-12.9h-5.9zm-12.7.3a3.2 3.2 0 0 0 3.3-3.3 3.3 3.3 0 0 0-6.6 0 3.2 3.2 0 0 0 3.3 3.3zm-14-.3h5.9v-12.9h5.1v-4.6h-16.2v4.6h5.2zM394 177.5l-4.3 10.2-4.1-10.2h-6.4l7.4 17.5h5.8l7.4-17.5zm-22.9 8.7h-2.2v-4.1h2.2c1.6 0 2.4.7 2.4 2s-.8 2.1-2.4 2.1zm.4-8.7H363V195h5.9v-4.3h2.6c4.8 0 7.9-2.5 7.9-6.6s-3.1-6.6-7.9-6.6zM343 195h5.9v-12.9h5.1v-4.6h-16.1v4.6h5.1zm-12.4-17.5v8l-6.7-8h-4.8V195h5.7v-7.9l6.7 7.9h4.8v-17.5zm-24.8 10.2l1.7-4.4 1.7 4.4zm6.2 7.3h6.1l-7.6-17.5h-5.8L297 195h6l1.2-3h6.7zm-24.7 0h5.9v-12.9h5.1v-4.6h-16.1v4.6h5.1zm-17.6 0h13.8v-4.6h-7.9v-12.9h-5.9zm-11.2.4c5.3 0 8.5-3 8.5-8.3v-9.6h-5.8v9.5c0 2.6-1 3.6-2.7 3.6s-2.7-1-2.7-3.6v-9.5h-5.9v9.6c0 5.3 3.2 8.3 8.6 8.3zm-18.3 0c5.4 0 8.1-2.7 8.1-5.9 0-6.4-9.6-4.7-9.6-6.8 0-.6.5-1.1 2.2-1.1a10.3 10.3 0 0 1 4.9 1.3l1.8-4.3a14.3 14.3 0 0 0-6.6-1.5c-5.4 0-8.2 2.7-8.2 5.9 0 6.5 9.7 4.8 9.7 7 0 .6-.6.9-2.3.9a11.4 11.4 0 0 1-5.7-1.6l-1.9 4.3a15.2 15.2 0 0 0 7.6 1.8zm-15.1-17.9v8l-6.7-8h-4.8V195h5.7v-7.9l6.7 7.9h4.8v-17.5zm-23.6 13.1c-2.1 0-3.9-1.6-3.9-4.3s1.8-4.4 3.9-4.4 4 1.6 4 4.4a4 4 0 0 1-4 4.3zm0 4.8c5.7 0 9.9-3.8 9.9-9.1s-4.2-9.2-9.9-9.2-9.8 3.9-9.8 9.2 4.1 9.1 9.8 9.1zm-18.3 0c3.4 0 6.1-1.2 7.8-3.5l-3.7-3.3a4.6 4.6 0 0 1-3.8 2 3.9 3.9 0 0 1-4.1-4.3c0-2.7 1.6-4.4 4.1-4.4a4.6 4.6 0 0 1 3.8 2l3.7-3.3a9.5 9.5 0 0 0-7.8-3.5c-5.6 0-9.8 3.8-9.8 9.2s4.2 9.1 9.8 9.1zM158 177.5v8l-6.6-8h-4.9V195h5.8v-7.9l6.6 7.9h4.9v-17.5zm-23.5 13.1c-2.2 0-3.9-1.6-3.9-4.3s1.7-4.4 3.9-4.4 3.9 1.6 3.9 4.4-1.7 4.3-3.9 4.3zm0 4.8c5.7 0 9.9-3.8 9.9-9.1s-4.2-9.2-9.9-9.2-9.9 3.9-9.9 9.2 4.2 9.1 9.9 9.1zm-17.9-.4h5.9v-17.5h-5.9zm-12.6 0h5.9v-12.9h5.2v-4.6H98.9v4.6h5.1zm-16.1-7.3l1.7-4.4 1.7 4.4zm6.2 7.3h6.1l-7.7-17.5h-5.8L79.1 195h6l1.1-3h6.7zm-22.4.4c3.4 0 6.1-1.2 7.8-3.5l-3.7-3.3a4.7 4.7 0 0 1-3.8 2 3.9 3.9 0 0 1-4.1-4.3c0-2.7 1.6-4.4 4.1-4.4a4.7 4.7 0 0 1 3.8 2l3.7-3.3a9.5 9.5 0 0 0-7.8-3.5c-5.7 0-9.8 3.8-9.8 9.2s4.1 9.1 9.8 9.1zm-20.3 0c5.4 0 8.5-3 8.5-8.3v-9.6h-5.8v9.5c0 2.6-1 3.6-2.7 3.6s-2.6-1-2.6-3.6v-9.5h-5.9v9.6c0 5.3 3.1 8.3 8.5 8.3zm-23.1-5v-8.3h2.5a4.2 4.2 0 0 1 0 8.3zm-5.9 4.6H31c5.9 0 9.9-3.3 9.9-8.7s-4-8.8-9.9-8.8h-8.6zm-11-4.4v-2.3h7.4V184h-7.4v-2h8.4v-4.5H5.6V195h14.5v-4.4zM281.4 106.9l-35.3 13.7a32 32 0 0 0 1.4 6.6 22.2 22.2 0 0 0 3.4 6.7 13.2 13.2 0 0 0 4.6 4 10.8 10.8 0 0 0 5.4 1.3 13.4 13.4 0 0 0 3.5-.5 9.9 9.9 0 0 0 3.3-1.5 15.2 15.2 0 0 0 3.2-2.6 31.5 31.5 0 0 0 3-3.8l2.8-4.3 9.1 11.5-1.4 2.2a34.4 34.4 0 0 1-4.6 5.9 30.6 30.6 0 0 1-5.8 4.4 23.8 23.8 0 0 1-6.6 2.8 28.4 28.4 0 0 1-7.2.9 26.7 26.7 0 0 1-12.7-3 30.1 30.1 0 0 1-9.9-9 40.9 40.9 0 0 1-6-13.4 66.7 66.7 0 0 1-2-16.8 56.1 56.1 0 0 1 1.9-14.6 41.8 41.8 0 0 1 5.9-12.2 28.5 28.5 0 0 1 9.2-8.3 22.9 22.9 0 0 1 11.5-2.9 21.6 21.6 0 0 1 9.5 2 23.7 23.7 0 0 1 7.8 6.1 30.6 30.6 0 0 1 5.4 9.2 58.6 58.6 0 0 1 3 11.7l.4 2.9zm-15.3-9l-.9-2.5a13.1 13.1 0 0 0-2.2-3.5 7.6 7.6 0 0 0-2.3-1.8 6 6 0 0 0-2.7-.6 9.6 9.6 0 0 0-4.9 1.2 11.8 11.8 0 0 0-3.8 3.9 22 22 0 0 0-2.7 6.8 32.9 32.9 0 0 0-.8 4.7zm-42.1 9l-35.4 13.7a40.3 40.3 0 0 0 1.4 6.6 22.4 22.4 0 0 0 3.5 6.7 13.8 13.8 0 0 0 4.5 4 10.8 10.8 0 0 0 5.4 1.3 14.2 14.2 0 0 0 3.6-.5 12.1 12.1 0 0 0 3.3-1.5 14.8 14.8 0 0 0 3.1-2.6 19.4 19.4 0 0 0 3-3.8l2.8-4.3 9.1 11.5-1.3 2.2a34.8 34.8 0 0 1-4.7 5.9 27.1 27.1 0 0 1-5.7 4.4 23.8 23.8 0 0 1-6.6 2.8 28.4 28.4 0 0 1-7.2.9 27.2 27.2 0 0 1-12.8-3 30.1 30.1 0 0 1-9.9-9 40.9 40.9 0 0 1-6-13.4 66.7 66.7 0 0 1-2-16.8 52 52 0 0 1 2-14.6 39.5 39.5 0 0 1 5.9-12.2 27.5 27.5 0 0 1 9.2-8.3 22.5 22.5 0 0 1 11.4-2.9 22 22 0 0 1 9.6 2 24.4 24.4 0 0 1 7.7 6.1 30.6 30.6 0 0 1 5.4 9.2 47.6 47.6 0 0 1 3 11.7l.4 2.9zm-15.4-9l-.9-2.5a11 11 0 0 0-2.2-3.5 7.6 7.6 0 0 0-2.3-1.8 6 6 0 0 0-2.7-.6 9.5 9.5 0 0 0-4.8 1.2 11.2 11.2 0 0 0-3.9 3.9 22 22 0 0 0-2.7 6.8 33.1 33.1 0 0 0-.7 4.7zm-53.7-3.5v38.4c0 2.1 0 3.9.1 5.3s.2 2.8.3 4a29.1 29.1 0 0 0 .4 3.1c.2.9.4 1.8.6 2.5l1.6 4.8H136l1.6-4.9a8.6 8.6 0 0 0 .6-2.3 20.9 20.9 0 0 0 .4-2.8c.1-1.1.2-2.4.2-4s.1-3.3.1-5.7V95.1c0-1.8 0-3.3-.1-4.4a21.9 21.9 0 0 0-.2-2.9 11.8 11.8 0 0 0-.4-2 7.5 7.5 0 0 0-.5-1.6l-1.5-3.1 17.6-9.4.3 5.6 1.7-1a17.7 17.7 0 0 1 4.5-1.8 20.7 20.7 0 0 1 5-.5 11.4 11.4 0 0 1 2.7.2 6.7 6.7 0 0 1 2.6 1h.1a5.5 5.5 0 0 1 2 2.3 6.6 6.6 0 0 1 .5 2.8 9.7 9.7 0 0 1-.1 1.7 3.1 3.1 0 0 0-.2.8l-.2.5-2.6 8.9-4.5-1.1-.9-.2H163a9.9 9.9 0 0 0-2.4.3 12.5 12.5 0 0 0-2.5.9 11.4 11.4 0 0 0-2.3 1.5zm-69.6-52v35.8l4.8-2.1a33.2 33.2 0 0 1 6.2-1.6 35.6 35.6 0 0 1 6.5-.5 30.6 30.6 0 0 1 9 1.2 17.8 17.8 0 0 1 11.6 10.9 26.5 26.5 0 0 1 1.4 8.7v38c0 2.1 0 3.9.1 5.3a24.1 24.1 0 0 0 .3 4 29.1 29.1 0 0 0 .4 3.1c.2.9.4 1.8.6 2.5l1.5 4.8h-21.3l1.4-4.7c.1-.7.3-1.4.4-2.1s.2-1.7.3-2.7.2-2.5.2-4 .1-3.4.1-6.2V98.4a25 25 0 0 0-.5-5.3 7.4 7.4 0 0 0-1.1-2.5 3.6 3.6 0 0 0-1.7-1.1 11.5 11.5 0 0 0-3.6-.5 26.3 26.3 0 0 0-4.9.5 24.4 24.4 0 0 0-4.6 1.4 25.5 25.5 0 0 0-4.3 2.3l-2.8 2.2v43.1c.1 1.6.2 3 .3 4a19.3 19.3 0 0 0 .4 2.7 7 7 0 0 0 .6 2.3l1.6 4.9H66.7l1.5-4.8a10.8 10.8 0 0 0 .5-2.1l.3-2.5c.1-1.1.2-2.5.2-4s.1-3.5.1-6.2V57.4a32.3 32.3 0 0 0-.1-3.4 14 14 0 0 0-.2-2.3l-.3-1.6a5 5 0 0 0-.5-1.3l-1.3-3.2 18.4-9.2zm392.4 35.2v55.2c0 2.6 0 5.3.2 7.8a31.9 31.9 0 0 0 1.3 7.1l1.5 4.8h-21.8l1.5-4.9c1.4-4 1.4-9 1.4-13.6v-1.2h-.1V94.5h.1c0-3.5 0-7.4-1.3-10.3L459 81l18.7-9.3zm-41.1 16.8v38.4c0 2.6 0 5.3.2 7.8a39 39 0 0 0 1.2 7.1l1.6 4.8h-21.9l1.6-4.9c1.4-4 1.3-9 1.3-13.6V94.5c0-3.5 0-7.4-1.2-10.2l-1.5-3.2 17.6-9.4.3 5.7 1.4-.9A20.1 20.1 0 0 1 447 74c6 0 7.9 2.8 7.9 6.7a19.4 19.4 0 0 1-1.5 6.2l-.6 2-1 3.4-3.4-.9a13.9 13.9 0 0 0-7.3.1 11.6 11.6 0 0 0-4.5 2.9zM390.1 106V95.5c0-2.6-.6-4.3-1.7-5.2s-3.1-1.4-5.6-1.4a19.4 19.4 0 0 0-8.4 1.7A18.2 18.2 0 0 0 368 96l-4.4 5.6-2.5-8.1c-2.3-7.7-3.4-11.3 6.7-16.2a37.8 37.8 0 0 1 17.5-3.5c5.5.3 10.8 2 14.6 5.6a17.6 17.6 0 0 1 4.5 7 26.7 26.7 0 0 1 1.3 8.8v39.3a12.4 12.4 0 0 0 1 5.2 8.6 8.6 0 0 0 2.6 3.1l4.5 3.1-4.5 3-1.7 1.2c-2.1 1.6-4.4 3.3-7.2 3.9h-.7c-2.9 0-4.8-2.2-6.1-4.6a26.8 26.8 0 0 1-12.1 4.6c-6.1.8-12.4-.7-17.1-5.4l-.3-.2c-.6-.6-1.1-1.3-1.6-1.9a22.3 22.3 0 0 1-3.9-16.5 25.5 25.5 0 0 1 7.1-15l2-1.8a33.6 33.6 0 0 1 11.1-5.2 59.8 59.8 0 0 1 11.3-2zm0 14.5a34.3 34.3 0 0 0-9.9 2.5c-3.7 1.7-6.5 4.4-6.5 9a7.7 7.7 0 0 0 2 5.5 9.7 9.7 0 0 0 2.4 1.5 8.1 8.1 0 0 0 3.1.5 8.9 8.9 0 0 0 6.4-2.6 9.1 9.1 0 0 0 1.9-3 13.1 13.1 0 0 0 .6-4.1zm-81.7-78.1v36a39.6 39.6 0 0 1 17.9-4.5 25.4 25.4 0 0 1 9.2 1.6 17.6 17.6 0 0 1 7.8 5.3c2.9 3.4 4.6 8 4.6 14v38c0 2.6 0 5.3.2 7.8a31.9 31.9 0 0 0 1.2 7.1l1.5 4.8h-21.3l1.4-4.7c1.1-3.9 1-8.6 1-12.9V98.4c0-3.4-.5-5.9-1.6-7.5S327.7 89 325 89a25.6 25.6 0 0 0-9.5 1.9 25.1 25.1 0 0 0-7.1 4.5v38.8c-.1 4.5-.1 9.5 1.3 13.4l1.6 4.9h-21.5l1.5-4.8c1.2-3.7 1.1-8.4 1.1-12.7V57.4a37 37 0 0 0-.2-4.8 12.4 12.4 0 0 0-.9-3.8l-1.3-3.2 18.4-9.2zM56.2 88.1l-5.1 12-3.8-5.5A14.3 14.3 0 0 0 45 92a11.8 11.8 0 0 0-2.5-1.9h-.1a9.6 9.6 0 0 0-2.8-1.1 10.6 10.6 0 0 0-3.1-.4 12.3 12.3 0 0 0-3.5.5 6.4 6.4 0 0 0-2.5 1.5 4.8 4.8 0 0 0-1.5 2 4.9 4.9 0 0 0-.5 2.5 5.4 5.4 0 0 0 .4 2.2 7.5 7.5 0 0 0 1.2 2.1 22.7 22.7 0 0 0 2.7 2.5 49.1 49.1 0 0 0 4.4 2.8l2.3 1.3c6.3 3.5 11.1 7.2 14.3 11.1a20.5 20.5 0 0 1 5.3 13.5 26.3 26.3 0 0 1-1.7 9.5 20.4 20.4 0 0 1-5.4 7.6 21.6 21.6 0 0 1-8.3 4.8 30.5 30.5 0 0 1-10.3 1.6 38.7 38.7 0 0 1-7.7-.8 29 29 0 0 1-7-2.4 21.1 21.1 0 0 1-5.3-3.4 7.3 7.3 0 0 1-2.6-5.4 7.8 7.8 0 0 1 .2-1.4 8.3 8.3 0 0 1 .4-1.2c2.3-5.3 4.4-10.7 6.5-16l3.4 8.3a13.2 13.2 0 0 0 2 3.2 13.5 13.5 0 0 0 2.8 2.5 11.9 11.9 0 0 0 3.5 1.5 14 14 0 0 0 4.1.6 15.3 15.3 0 0 0 4.5-.6 7.9 7.9 0 0 0 2.9-1.8 6.4 6.4 0 0 0 1.8-2.5 10.2 10.2 0 0 0 .6-3.7 8 8 0 0 0-.3-2.3 4 4 0 0 0-1-1.8 9.6 9.6 0 0 0-2.5-2.2c-1.4-1-3.2-2.1-5.3-3.3a102.2 102.2 0 0 1-10.4-6.5 29.7 29.7 0 0 1-6.5-5.9 21.3 21.3 0 0 1-3.4-6.3 23.6 23.6 0 0 1-1.1-7.2 21.9 21.9 0 0 1 1.7-8.5 20.3 20.3 0 0 1 5.2-6.9 22 22 0 0 1 7.7-4.5 27.3 27.3 0 0 1 9.2-1.5 37.4 37.4 0 0 1 6.8.6 33 33 0 0 1 6.3 2 18.2 18.2 0 0 1 4.7 2.8 6.6 6.6 0 0 1 2.6 5 5 5 0 0 1-.3 1.6c-.1.5-.3.9-.4 1.3z" fill="#044f87"/><g fill="#c39b54"><path d="M451.9 3.4S503.7 22.8 552.7 0c-23.6 27.5-86.2 78.5-132.3 60.1 21.4-4.1 37.2-23.7 31.5-56.7" fill-rule="evenodd"/><path d="M386.4 28.9c21.4 9.6 33.9 11.3 59.9 7.1-8.1 12.7-12.2 17.7-31.2 21.6-13.1-6.6-22-15.2-28.7-28.7" fill-rule="evenodd"/><path d="M15.6 162.3h461v3.56h-461z"/><path d="M478.1 158.7h4.4l2.2 3.4h-8.2zM476.4 162.3h8.5l2.2 3.6h-12.3z" fill-rule="evenodd"/><path d="M480 154.9l2.4 3.6h-4.2z"/><path d="M8.9 158.7h4.4l2.2 3.4H7.3zM7.2 162.3h8.5l2.2 3.6H5.5z" fill-rule="evenodd"/><path d="M10.8 154.9l2.4 3.6H9z"/></g></svg>