<svg height="2500" viewBox="0 0 2048 2048" width="2500" xmlns="http://www.w3.org/2000/svg"><path d="m0 0h2048v2048h-2048z" fill="#fefefe"/><path d="m234 983 5 1 9 9 8 7 13 12 6 5v2l4 2 17 16 7 7 8 6 3 5-1 1h-18l-24 2-7 2-1 5 6 10 8 12 6 8 12 14 15 16 7 7 4 3-1 6-8 7-5 5-12 11-15 14-12 11-5 4-5 5-12 11-4 5-4-1-7-8-8-7-15-14-16-14v-2l-4-2-8-7-5-5-17-16-10-8-2-4 1-6 5-6 8-7 13-10 12-8h7l14 14 8 7 11 9 5 6 8 7 4-2 8-7 6-6h2l1-3 8-7 8-6v-5l-12-11-15-14-5-4-1-6 12-4-1-5-4-6-7-18-5-18-4-18v-7z" fill="#0372b8"/><path d="m1448 971 6 1 4 4v11l-5 14 5-2 12-12 11-8 10-5 11-3 7 1 7 5v2h2l3 8 1 4v19l-3 17-5 12-4 9-8 14-11 13-5 5-8 6-10 5-5 2h-19l-6-3-5 1-6 22-5 20v13l5 2 7 2 13 2 3 3-1 4-3 2h-67l-2-2 1-4 3-3 10-3 5-5 4-8 4-16 6-26 7-28 4-17 8-33 4-17v-9l-6 1-6 4-3 1-2 4h-2l-2 4-3 2-4-1-2-2 1-5 7-7 8-7 7-5 11-5zm354-79h12l5 3 3 3 1 6-4 6-6 3-12-1-10-1h-9l-7 4-4 8-5 18-6 24-5 19-3 14-4 18-2 6-2 10-5 19-3 16v5l2 2 6-1 4-2 6-7h2l2-4 3-3 5 1 1 6-4 5-10 8-13 9-14 7h-10l-4-3v-11l3-6 1-6-3 1-7 8-13 10-8 4-7 3h-13l-8-6-3-5-2-6v-18l4-16 4-9 8-16 9-14 9-10 7-7 10-7 10-5 7-2 15-1 4-10 3-11 4-12 7-14 9-11 8-7 11-7 15-6z" fill="#0165cb"/><path d="m314 911 5 1 13 13 8 7 10 9 8 7 16 15 12 11 8 7 20 18 13 12 11 9 1 3 4 2-1 6-16 13-10 9-15 12-4-1-4-4v-2l-4-2-17-16-12-11-16-14-14-14-8-7-16-15-8-7-5-5-7-6v-2l-4-2-5-4-2-3 1-4 8-7 8-8 8-7 12-12z" fill="#0372b8"/><path d="m239 841 7 2 6 7 8 7 7 7 16 14-2 5-12 11-6 5-5 6-8 7-12 11-5 5-6 4-7 8-26 24-7 7-8 7-14 13-4 1-11-9-7-7-8-7-9-9-7-6 1-4 26-24 3-1v-2l8-7 13-12 7-7 8-7 16-15 12-11 13-12 6-5 4-4z" fill="#f15a21"/><path d="m1632 966 5 1 1 3-3 8-4 14-4 13-8 32-3 14-2 12v10l7-1 10-8 5-6 6-1 1 2v6l-9 9-8 7-15 9-7 3h-12l-4-5 1-8 3-7 1-6h-3l-2 4-8 7-11 8-7 4-7 3h-14l-6-5v-2h-2l-5-14v-11l4-18 5-12 8-15 9-12 9-10 7-7 10-7 10-5 12-3 22-1zm249 0 5 1 1 3-6 19-4 13-2 9-4 16-6 25-2 13v7l3 2 6-3 11-10 3-4h5l2 3v5l-13 12-12 9-15 7h-12l-3-4v-7l2-7 2-3 1-5-5 3-8 8-15 10-11 5h-13l-6-4-4-6-3-7v-20l5-17 4-9 7-14 10-13 9-10 3-3h2l1-3 9-6 11-6 13-3 21-1z" fill="#0165cb"/><path d="m80 988 5 1 18 18 8 7 10 9 8 8 8 7 31 29 10 9 11 10v3l-7 3-12 8-13 11-5 4-5 7-1 4-4-2-16-15-10-9-12-11-6-5v-2l-4-2-16-15-16-14v-2l-4-2-15-14-5-4 1-5 7-6h2v-2l8-7 7-6h2l1-3 8-7z" fill="#f15a21"/><path d="m1955 802h10l10 2 9 4 11 8 8 9 8 16v24l-4 10-6 9-8 9-7 5-8 4-10 3h-16l-13-4-9-6-10-9-4-5-4-8-4-14v-11l5-17 8-12h2l2-4 10-7 13-5z" fill="#fefefe"/><path d="m725 892h12l7 4 2 3v6l-4 5-6 3-13-1-9-1h-10l-6 4-4 7-5 19-2 10-5 21-4 17-3 11-1 3h5l2-4 8-7 8-6 15-10 14-5 6 1 6 4 2 4v9l-4 16-4 13-6 20-7 26-1 10v2l7-2 10-9 7-8h5l2 2v6l-4 5-8 7-3 1-1 3-10 7-10 5h-10l-6-7-1-3v-12l2-11 4-15 8-28 4-15 1-2v-8h-9l-10 5-10 8-7 8-6 8-5 13-4 16-6 26-3 12-1 1-17 1-3-1v-7l4-14 5-21 7-29 3-13 7-31 5-21 4-13 4-9 7-12 5-6 8-7 9-6 5-3 12-4z" fill="#0165cb"/><path d="m1279 900h7l5 4 2 5-1 7-6 9-9 6-7 3-21 2-25 1-2 2-3 13-8 31-5 18-6 26-3 10-2 10-2 6-3 14-3 13v2l4 1h17l8-3 5 1-1 7-8 5-13 1-19-3-41-1-3-2v-6l4-4 13-3 8-5 5-8 4-11 6-23 5-18 4-17 8-32 4-17 1-7h-25l-21 3-12 5-8 5-5 5-4 5-4 8-1 5v11l3 6 6 7 3 5-1 6-5 5-7 1-6-4-5-7-2-8-1-11 3-16 5-10 7-11 9-9 13-9 9-4 14-4 13-2h26l27 3 17 3h20l5-3 2-3v-13l4-5z" fill="#f15a21"/><path d="m586 921h18l18 3 7 2 1 4-3 10-4 24-1 10-3 2-5-1-1-1v-30l-6-9-7-4h-15l-12 5-10 9-5 8-2 8v9l3 10 4 6 15 15v2l3 1 7 8 7 9 7 11 2 9v15l-3 12-5 9-9 11-13 10-15 8-13 4-9 1h-15l-12-2-14-7-9-8-4-5-3-8v-6l5-8 3-3 7-1 6 4 3 5 5 17 6 7 7 4 4 1h13l8-2 10-4 8-6 8-8 4-7 3-6v-18l-7-14-1-3-3-1-7-8-6-7-7-6-9-12-4-7-3-11v-11l4-12 5-9 9-11 10-8 11-5 8-3z" fill="#0165cb"/><path d="m1000 972h17l8 5 5 6 1 3v9l-5 11-9 10-13 9-12 7-17 7-8 5-1 8v11l2 6 4 4 8 1 9-3 10-7h2v-2l5-2 1-3 8-6 4 1 2 2v6l-14 13-13 9-5 4-12 5-5 2h-17l-7-5v-2h-2l-4-9-1-7v-11l2-12 3-13 8-20 3-5 9-13 11-12 6-5 11-5zm-96 0h17l8 5 5 7v13l-5 10-8 9-13 9-16 8-19 9h-2l-1 4v20l4 6 4 2 9-1 7-3 11-8 11-9 5-2 4 3v6l-10 9-15 12-8 5-5 3-12 4h-16l-7-4-4-6-3-11v-15l3-18 5-15 8-15 8-13 10-10 10-8 8-4z" fill="#0473b8"/><path d="m295 1055h20l5 3 14 14 8 7 16 15 5 6-7 8-17 16-12 11-4 3h-2l-2-4-8-7-11-11-7-8-12-14-8-11-11-18 1-5 3-2 13-2z" fill="#f15a21"/><path d="m1486 990 8 1 5 4 2 6v14l-3 19-4 12-9 18-6 8-9 8-5 2h-13l-10-5-5-6 2-10 5-20 4-13 4-9 4-6 9-10h2l1-3 10-7z" fill="#fefefe"/><path d="m1338 964h6l7 6v8l-7 6-4 3-14 5-10 6-8 8-9 12-4 6-4 9-3 9-5 21-2 10-4 15-4 2h-14l-3-1v-7l5-19 6-24 5-18 3-15 2-9v-8l-4 1-8 7-9 11-6-1-1-7 7-6 5-5 9-7 16-8 10-3 5 2 2 3-2 11-4 13-1 5 5-4 6-9 11-13 9-9 6-4z" fill="#0165cb"/><path d="m849 963 6 2 5 5v8l-4 5-7 4-14 5-9 6-9 8-8 11-5 7-4 9-3 11-5 19-5 23-2 3-17 1-3-2 1-10 6-22 10-40 4-18v-9l-4 1-10 9-7 9-5-1-2-3 1-5 6-5 5-5 9-7 16-8 10-3 5 2 2 3-2 13-5 16 5-3 3-6 9-11 6-7h2l2-4 11-8z" fill="#0372b8"/><path d="m1381 971 7 2 3 3v7l-18 63-4 16-1 14 6-2 9-7 7-8h6l2 4-3 5-15 14-12 8-6 3h-11l-6-7-1-2v-7l5-25 4-15 6-20 6-21 1-4h-7l-15 11-5 1-2-2 1-5 11-10 10-8 11-5z" fill="#0165cb"/><path d="m1841 988h13l5 3-1 7-4 16-5 18-4 13-4 8-4 6-4 5h-2l-2 4-8 5-7 2-7-1-5-5-2-6v-13l3-17 6-15 3-6 5-8 8-9 7-4zm-250 0h15l4 3-1 7-5 19-4 15-4 12-7 14-5 6-11 8-8 3-7-1-5-4-2-7v-14l2-14 5-14 9-16 7-9 8-5zm122 0h11l8 3 1 4-4 15-5 22-5 15-4 8-11 12-9 6-6 2-7-1-6-5-2-6v-10l3-16 3-10 4-9 5-10 8-11 8-6z" fill="#fefefe"/><path d="m725 892h12l7 4 2 3v6l-4 5-6 3-13-1-9-1h-10l-6 4-4 7-5 19-2 10-5 21-4 17-3 11-1 3h5l2-4 8-7 8-6 15-10 14-5 6 1 6 4 2 4v9l-4 16-4 13-6 20-7 26-1 10v2l7-2 10-9 7-8h5l2 2v6l-4 5-8 7-3 1-1 3-10 7-10 5h-10l-6-7-1-3v-12l2-11 4-15 8-28 4-15 1-2v-8h-9l-10 5-10 8-7 8-6 8-5 13-4 16-6 26-3 12-1 1-17 1-3-1v-7l4-14 5-21 7-29 3-13 7-31 5-21 4-13 4-9 7-12 5-6 8-7 9-6 5-3 12-4zm-1 3-4 2-10 2-5 3-7 4-3 2v2l-5 2-1 3-3 1-8 11-3 7-3 9-3 6-2 12-2 4-2 13-2 4-1 11-3 6-2 13-2 5-2 12-2 6-2 13-3 9-1 7-2 3-2 12-3 4 1 4 15-1 2-2 1-13 3-7 2-13 2-4 2-13 2-3 2-7 2-2 2-5 4-5 7-6 6-7 10-7 10-5 6 1 3 3v9l-2 9-2 5-2 9-2 5-2 9-2 3-2 12-2 2-2 16-1 4v9l4 6h10l6-2 10-7 5-4 8-7 4-5v-3l-4 1-12 12-6 4-8 1v-18l4-14 4-13 2-8 2-4 2-9 2-3 1-9 3-6v-17l-2-2h-15l-7 4-9 5-6 4-5 5-6 4-5 4-5 5-4 1-1-1v-7l3-5 2-14 2-4 3-16 2-8 2-10 2-7 1-7 3-5 2-7 8-8 4-1h35l4-4-1-5-5-4z" fill="#0473b8"/><path d="m234 983 5 1 9 9 8 7 13 12 6 5v2l4 2 17 16 7 7 8 6 3 5-1 1h-18l-24 2-7 2-1 5 6 10 8 12 6 8 12 14 15 16 7 7 4 3v3h-2l-5-6-8-7v-2l-3-1-7-8-11-12-4-6-3-2-3-5-6-8-6-10-4-7-1-4-13 3-3 1v-3l12-4-1-5-4-6-7-18-5-18-4-18v-7z" fill="#0372b8"/><path d="m240 842 6 1 6 7 8 7 7 7 16 14-2 5-12 11-6 5-5 6-8 7-12 11-5 5-7 4-2-3v-16l3-24 4-19 4-15 3-11z" fill="#0473b8"/><path d="m1955 802h10l10 2 9 4 11 8 8 9 8 16v24l-4 10-6 9-8 9-7 5-8 4-10 3h-16l-13-4-9-6-10-9-4-5-4-8-4-14v-11l5-17 8-12h2l2-4 10-7 13-5zm-1 9-13 4-10 7-6 7-4 6-3 8v21l5 11 6 8 12 9 14 4h10l15-5 10-7 9-13 3-10v-15l-4-12-8-11-9-7-10-4-5-1z" fill="#f15a21"/><path d="m899 976h25l5 5 2 6-1 9-3 9-5 6h-2l-1 3-10 6-1 2-24 12-1 1h-5l4-4 12-7 11-8 3-4h2l2-5 2-3 1-5v-7l-3-7-1-3-6-2h-6l-10 6-3 4h-2l-2 5-2 2-2 6-2 3-1 7-3 4-1 10-2 2v5l7 2-1 3-7 2-1 5v19l2 7 9 6h7l8-4 5-3 11-8 10-9h2l1 4-8 7-5 5-7 6-5 3-6 4-10 5-8 1h-14l-5-3-4-5-1-3v-29l3-9 2-10 3-7 3-5 3-7h2l1-6 3-3 4-5 2-4 8-7 8-6zm97 0h24l7 5 1 13-2 8-7 9-10 8-14 8-16 8-4-1 7-5 5-2 11-8 10-9 2-5 2-2v-15l-4-5-5-3h-7l-10 6-4 5-4 6-4 8-2 7-2 5-2 9-1 1v8l6 1-1 3-6 2-3 12v7l3 11 7 6 2 1h7l8-4 9-5 5-4 3-3 6-4 3-4 3 1-1 5-6 5-5 5-11 8-9 6-7 3-1 1-7 1h-15l-5-2-4-5-1-4v-26l1-12 3-6 2-8 6-12 3-5 4-6 3-6 5-5h2l1-4 10-7z" fill="#0165cb"/><path d="m586 921h18l18 3 7 2 1 4-3 10-4 24-1 10-3 2-5-1-1-1v-30l-6-9-7-4h-15l-12 5-10 9-5 8-2 8v9l3 10 4 6 15 15v2l3 1 7 8 7 9 7 11 2 9v15l-3 12-5 9-9 11-13 10-15 8-13 4-9 1h-15l-12-2-14-7-9-8-4-5-3-8v-6l5-8 3-3 7-1 6 4 3 5 5 17 6 7 7 4 4 1h13l8-2 10-4 8-6 8-8 4-7 3-6v-18l-7-14-1-3-3-1-7-8-6-7-7-6-9-12-4-7-3-11v-11l4-12 5-9 9-11 10-8 11-5 8-3zm3 2-9 3-8 2-9 5-6 4v2l-4 2-7 7-1 3-3 3-2 5-2 3v28l3 3 2 6 8 10 8 7 5 6 5 5 3 4h2l2 5h2l2 7 2 2 2 15-2 12-4 7-4 5v2l-4 2v2l-4 2-8 6-9 4-14 2h-7l-11-3-5-3-3-4h-2l-1-5-3-7-2-9-4-6-7-1-5 5-1 8 1 8 9 10 7 4 4 3 12 3 2 1h21l16-4 18-9v-2l5-2 6-5v-2l4-2 8-12 2-7 2-6v-17l-5-13-5-7h-2l-2-5h-2l-2-5-6-5-3-4h-2l-2-4-7-8-6-6-4-8v-18l5-10 2-2v-3l4-2 9-7 5-3 9-2h11l7 2 6 5 4 6 1 6v26h3l2-14 1-15 3-7 1-9-1-1-16-1-8-3zm1213-31h12l5 3 3 3 1 6-4 6-6 3-12-1-10-1h-9l-7 4-4 8-5 18-6 24-5 19-3 14-4 18-2 6-2 10-5 19-3 16v5l2 2 6-1 4-2 6-7h2l2-4 3-3 5 1 1 6-4 5-10 8-13 9-14 7h-10l-4-3v-11l3-6 1-6-3 1-7 8-13 10-8 4-7 3h-13l-8-6-3-5-2-6v-18l4-16 4-9 8-16 9-14 9-10 7-7 10-7 10-5 7-2 15-1 4-10 3-11 4-12 7-14 9-11 8-7 11-7 15-6zm0 3-5 2-9 2-10 5-11 8v2l-4 2-6 9-3 3-2 5-2 3-2 6-2 5-2 8-2 4-2 11-3 5-20 1-13 6-9 6-6 5-5 6v2l-3 1-3 5-6 9-1 3-2 1-3 7-4 9-2 3-2 8-2 6v27l5 8 4 1h11l9-2 8-5 6-4 10-9 3-4 5-2h3v6l-3 6-3 8v5l1 1h10l7-2 2-2 6-2 5-5-9-1-4-4v-8l3-8 2-13 2-3 2-13 2-4 2-13 2-4 2-14 2-3 2-13 3-7 1-10 3-6 1-9 3-8 2-9 4-10 3-5 5-4 4-1h35l3-4-1-4-5-5zm-354 76 6 1 4 4v11l-5 14 5-2 12-12 11-8 10-5 11-3 7 1 7 5v2h2l3 8 1 4v19l-3 17-5 12-4 9-8 14-11 13-5 5-8 6-10 5-5 2h-19l-6-3-5 1-6 22-5 20v13l5 2 7 2 13 2 3 3-1 4-3 2h-67l-2-2 1-4 3-3 10-3 5-5 4-8 4-16 6-26 7-28 4-17 8-33 4-17v-9l-6 1-6 4-3 1-2 4h-2l-2 4-3 2-4-1-2-2 1-5 7-7 8-7 7-5 11-5zm-9 5-4 3-8 3-6 4-14 13v3l4-1 11-10 5-4h8l3 3-1 7-2 4-1 11-3 7-2 13-2 4-2 14-2 3-2 13-2 3-2 14-2 3-2 12-2 5-2 13-3 8-1 9-3 5-1 5-3 3-4 5-12 5-1 2h64l-1-3-19-4-5-4-3-5 1-8 2-4 1-9 3-6 1-10 3-5 1-10 3-4h5l3 2 11 2h8l12-3 8-5 10-9 9-10 5-9 3-4 2-5 2-2 2-7 2-3 2-11 2-5v-32l-6-8-2-1h-17l-4 3-7 3-11 8-8 7-6 7-4 2h-3v-8l3-5 2-10v-6l-1-1z" fill="#0473b8"/><path d="m230 987h3l6 28 8 24 6 12 2 2-1 5-9 3h-3v2l-4-1-10-9-15-14-5-4v-2l-4-2-10-9 1-5 11-9 3-1 1-3 8-7z" fill="#f15a21"/><path d="m797 976h12l-1 5-2 8-1 7-2 2-1 4v8l5-1 3-1-1 5-7 9-4 8-2 6-2 5-1 9-3 5-1 11-3 6-1 12-5 3h-12v-6l2-2 2-12 2-4 3-13 2-6 1-9 3-6 1-10 3-7 1-11 3-7v-7h-9l-4 1 2-4 8-4 7-3z" fill="#0165cb"/><path d="m1881 966 5 1 1 3-6 19-4 13-2 9-4 16-6 25-2 13v7l3 2 6-3 11-10 3-4h5l2 3v5l-13 12-12 9-15 7h-12l-3-4v-7l2-7 2-3 1-5-5 3-8 8-15 10-11 5h-13l-6-4-4-6-3-7v-20l5-17 4-9 7-14 10-13 9-10 3-3h2l1-3 9-6 11-6 13-3 21-1zm0 3-5 4v2l-30 1-10 4-9 5-3 3-4 2v2l-4 1-6 7-2 1-1 5h-2l-8 11-8 16-3 9-3 6-1 11v15l2 9 4 5 4 1h12l7-2 2-2 5-2 16-12v-2l4-2 1-3 7-2 1 1v5l-2 2-5 15 1 4h12l14-6 16-12v-2l4-2 4-5-4-1-10 10-11 7-5-2-2-3v-8l2-8 1-2 2-14 2-6 2-13 2-4 2-12 2-2 2-12 2-2 2-11 3-5v-5zm-249-3 5 1 1 3-3 8-4 14-4 13-8 32-3 14-2 12v10l7-1 10-8 5-6 6-1 1 2v6l-9 9-8 7-15 9-7 3h-12l-4-5 1-8 3-7 1-6h-3l-2 4-8 7-11 8-7 4-7 3h-14l-6-5v-2h-2l-5-14v-11l4-18 5-12 8-15 9-12 9-10 7-7 10-7 10-5 12-3 22-1zm0 3-7 6-28 1-6 3-7 2-10 7-8 7-5 5-8 10v2l-3 1-1 5h-2l-10 20-4 14v27l4 7 5 3h12l8-2 10-7 9-6 10-10 6-1v6l-6 14v5l1 1h11l7-2 2-2 6-2 11-8 8-8 4-3-1-4-5 3-5 6-11 8h-6l-3-3v-12l2-4 2-15 2-4 2-13 3-10 2-8 2-6 2-9 2-3 1-9 3-5v-7zm-294-5h6l7 6v8l-7 6-4 3-14 5-10 6-8 8-9 12-4 6-4 9-3 9-5 21-2 10-4 15-4 2h-14l-3-1v-7l5-19 6-24 5-18 3-15 2-9v-8l-4 1-8 7-9 11-6-1-1-7 7-6 5-5 9-7 16-8 10-3 5 2 2 3-2 11-4 13-1 5 5-4 6-9 11-13 9-9 6-4zm-2 4-8 5v2l-4 2v2l-4 2-8 9-8 10-4 7-3 3-6 1 3-13 3-6 1-10 2-3v-3h-13l-4 3-9 4-3 3 10 1v9l-2 5-1 10-3 7-1 10-3 6-1 10-3 7-2 11-2 4-2 12-2 3v5l4 1h8l5-5 2-14 2-4 2-13 3-7 1-8 3-5 3-7 5-8 1-3 4-4v-2l4-2 5-6 8-7 8-4 6-2 5-2 7-3 3-6-2-7z" fill="#0473b8"/><path d="m1381 971 7 2 3 3v7l-18 63-4 16-1 14 6-2 9-7 7-8h6l2 4-3 5-15 14-12 8-6 3h-11l-6-7-1-2v-7l5-25 4-15 6-20 6-21 1-4h-7l-15 11-5 1-2-2 1-5 11-10 10-8 11-5zm-8 5-12 6-8 6-10 8-3 3 1 3 7-6 7-5 5-3 1-1h8v9l-4 11-2 8-2 5-2 9-2 4-2 10-2 4-1 10-3 8v23l7 2 11-3 5-3 11-8 12-12v-2h-5l-7 8-6 5-3 3h-7l-3-1v-11l3-7 1-9 3-7 1-8 3-6 2-10 2-4 2-10 2-3 2-11 2-3 1-11-1-1z" fill="#0473b8"/><path d="m1948 831h23l7 4 4 6v6l-4 6-4 4 2 4 7 8v6l-1 1h-6l-6-5-6-9-3-3h-5l-1 5v8l-3 4-5-1-2-2v-39z" fill="#f15a21"/><path d="m896 983h11l6 8v9l-5 9-10 10-6 4-15 9-5-1 2-10 4-13 4-9 5-8 7-7zm98 0h9l5 4 3 6-1 7-4 8-4 5h-2l-1 3-11 8-12 7-1 1h-5l1-10 5-16 5-10 4-6z" fill="#fefefe"/><path d="m1485 986h6l9 5 5 9v16l-2 10-3 13-3 7-2 5-8 16-9 11-5 4-9 4h-10l-10-4-8-6-2-3v-6l4-15 3-15 2-3 2-9 6-10 3-4h2l2-4 9-9h2l2-4 9-5zm1 4-8 3-11 8v2l-4 2-9 10-4 7-4 11-7 28-2 10 5 6 10 5h13l8-4 9-9 5-8 4-8 5-14 3-9 2-15v-14l-3-7-4-3zm104-5h16l6 2 1 2v6l-3 13-2 3-1 10-3 5-1 10-3 5-2 7-2 2-3 7-5 5-7 8-7 5-8 4h-6l-4-2v-2l-5-2-4-8v-19l3-8 2-10 2-3 2-7 5-9 3-6 13-13 8-4zm1 3-11 4-6 4-9 12-8 15-4 12-2 14v14l2 7 5 4 7 1 10-4 9-7 6-8 7-14 4-13 3-12 5-19 1-7-4-3zm120-3h13l8 1 4 4-1 7-2 13-2 3-2 13-2 3-1 9-3 5-2 8-5 7h-2l-2 5-9 8-5 4-9 4-7-1-7-5-5-9v-14l3-7 1-9 3-4 2-9 8-16 5-7 8-7 7-5zm2 3-10 4-7 6-8 11-7 17-3 9-2 5-2 13v10l3 7 5 4 7 1 9-4 8-6 10-11 5-13 3-9 5-22 4-15-1-4-8-3zm127-3h15l6 2 1 2-1 13-3 7-2 11-2 4-1 10-3 4-2 9-3 5-2 4h-2l-2 5-12 12-12 6h-6l-8-6-4-6v-25l3-7 2-9 4-10 2-2 2-5 8-11 9-8 6-3zm1 3-12 4-10 9-4 5-3 6-6 13-4 12-2 13v13l4 9 6 3 8-1 6-3 7-5v-2l3-1 5-6 7-14 7-27 6-20v-5l-5-3z" fill="#0473b8"/><path d="m1396 911 5 1 5 3 2 3v8l-5 8-6 4h-6l-7-6-1-7 3-7 5-5zm-551 57h9l4 4-1 5-5 5-5 2-4 2-7 2-8 4-5 4-7 8-3 3h-2l2-7 9-11h2l2-5h2l2-4h2l2-4 5-4zm-561 85h27l3 2-1 1h-18l-24 2-7 2-1 5 6 10 8 12 6 8 12 14 15 16 7 7 4 3v3h-2l-5-6-8-7v-2l-3-1-7-8-11-12-4-6-3-2-3-5-6-8-6-10-4-7v-5l5-3z" fill="#0165cb"/><path d="m1396 911 5 1 5 3 2 3v8l-5 8-6 4h-6l-7-6-1-7 3-7 5-5zm-3 4-4 4v2h-2l-1 2v7l4 3 5 1 5-2 4-4v-10l-2-3z" fill="#0473b8"/><path d="m233 985h2l6 27 4 14 4 12 6 12 3 3v7l-13 3-3 1v-3l12-4-1-5-4-6-7-18-5-18-4-18z" fill="#0165ca"/><path d="m240 842 3 1-3 5-3 12-3 13-3 12-3 20-1 23-1 4-2-3v-16l3-24 4-19 4-15 3-11z" fill="#0165cb"/><path d="m1958 840h10l3 2v5l-3 2h-11l-3-3 1-5z" fill="#fefefe"/><path d="m185 1089 4 1-11 7-11 8-13 11-6 9h-2l1-5 5-6 8-7 13-10zm1576-28h3l-1 4-14 12-4 1 2-4 8-7 4-5zm-495-73 3 1-4 2-2 4-8 9-3-1 2-4 5-5zm-495 4h2l-2 4-7 9-2-1 1-5z" fill="#0165cb"/></svg>