<svg height="292" viewBox="0 -1.127 857.26 103.554" width="2500" xmlns="http://www.w3.org/2000/svg"><g stroke-width="1.391"><path d="m759.951 0c5.368 8.621 10.332 17.493 15.519 26.225-10.068.042-20.135 0-30.189.042 4.742-8.83 9.776-17.507 14.67-26.267m-8.913 22.79c6.118-.027 12.237.015 18.355-.041a1219.8 1219.8 0 0 0 -9.33-15.922c-3.018 5.312-6.021 10.638-9.025 15.964zm-327.956-10.093c6.327-6.16 15.755-7.676 24.195-6.174 11.083 2.363 19.134 12.987 19.162 24.223-3.24.097-6.466.097-9.692.083-.668-6.8-4.881-13.766-11.89-15.338-6.91-2.308-15.17 1.252-18.215 7.87-2.976 5.758-2.267 14.003 3.42 17.841 7.801 5.41 17.994 5.173 26.073 10.054 7.954 4.575 12.681 13.863 12.25 22.971-.236 9.97-6.98 19.19-16.018 23.153-10.888 5.047-24.89 2.266-32.914-6.689-4.506-4.853-6.647-11.416-6.675-17.965 3.212-.056 6.438-.056 9.65-.042.765 6.966 4.506 13.989 11.264 16.728 9.233 4.533 21.775-1.112 24.543-11.013 2.586-6.758-.543-14.726-6.286-18.828-8.565-6.076-20.343-4.992-28.478-11.903-10.484-8.426-10.29-26.156-.389-34.971zm359.869-11.654c5.325-2.17 12-.681 15.546 3.949 4.602 5.326 3.99 14.295-1.488 18.8-6.438 6.243-18.73 3.379-21.525-5.215-2.642-6.618.695-15.003 7.467-17.534m1 3.713c-5.617 2.656-7.466 10.804-3.058 15.337 3.935 4.909 12.375 4.088 15.407-1.376 3.629-5.104.32-13.391-5.882-14.462-2.156-.626-4.394-.139-6.466.5zm19.746-.737a98.688 98.688 0 0 1 2.823-2.531c3.254 3.087 6.383 6.299 9.511 9.497 3.226-3.365 6.48-6.702 9.873-9.914l2.406 2.99c-3.17 3.253-6.341 6.52-9.595 9.677 3.31 3.199 6.605 6.439 9.692 9.873-.723.612-2.183 1.836-2.906 2.447-3.185-3.156-6.355-6.326-9.456-9.539a994.333 994.333 0 0 1 -9.372 9.387 106.164 106.164 0 0 1 -2.99-2.531 367.675 367.675 0 0 1 9.581-9.623c-3.24-3.198-6.494-6.382-9.567-9.733zm28.965-2.865c8.19-.014 16.394-.014 24.598 0v24.821c-8.204-.028-16.408-.028-24.612-.028 0-8.26-.028-16.533.014-24.793m3.671 3.532c.042 5.896.014 11.792.014 17.702 5.812 0 11.625-.056 17.451.041-.125-5.91-.07-11.82-.042-17.729-5.812 0-11.624.014-17.423-.014zm-350.26 2.837c3.129-.042 6.243-.056 9.372-.07.042 7.787.056 15.574 0 23.375 5.173-.028 10.36 0 15.532-.028.014 2.85.014 5.701-.028 8.552-5.158.042-10.317 0-15.476.028v58.916c-3.143-.027-6.271-.013-9.4 0 .014-19.648 0-39.296.028-58.944-4.659.028-9.289.056-13.933-.042-.042-2.836-.028-5.673.014-8.51 4.63.028 9.26.014 13.89.014-.069-7.773-.055-15.532 0-23.291zm164.221-.028c3.115-.014 6.244-.014 9.372 0 .056 30.272.042 60.544.014 90.801l-8.718-.041c-.028-4.102-.07-8.204.097-12.32-3.893 5.923-9.734 10.61-16.547 12.64-8.538 2.35-17.91 1.501-25.99-2.03-15.337-6.87-23.249-25.934-18.368-41.8 3.462-12.834 15.087-22.721 28.13-24.78 11.736-2.293 24.932 1.948 32.052 11.834-.167-11.43-.056-22.86-.042-34.304m-31.453 31.468c-9.776 1.974-18.119 9.984-20.107 19.8-3.213 12.947 4.922 27.88 18.118 31.093 14.503 4.95 31.454-6.132 33.4-21.164.362-4.978.529-10.262-1.793-14.837-4.742-11.082-17.952-17.59-29.618-14.892zm53.632-31.483h9.08c.014 5.103 0 10.193.014 15.296-3.045 0-6.09 0-9.122.014 0-5.103-.014-10.207.028-15.31zm44.998 23.152c15.462-4.686 32.872 3.7 40.103 17.84 6.034 11.222 4.839 25.74-2.42 36.113-7.245 10.86-21.094 17.34-34.04 14.712-12.306-1.739-23.11-10.86-27.31-22.485-3.518-9.623-2.49-20.789 2.6-29.674 4.506-7.968 12.209-14.114 21.067-16.506m4.255 8.26c-12.376 2.253-21.387 14.6-20.747 26.99.14 13.419 12.25 25.058 25.572 25.155 9.608.014 19.078-5.826 22.93-14.726 2.864-5.326 2.753-11.527 2.28-17.395-2.322-13.28-16.88-23.027-30.035-20.024zm-202.072-8.107c3.129.028 6.258.028 9.386 0 .181 13.586-.222 27.171.209 40.743.139 8.301 5.77 16.464 13.989 18.522 6.674 2.405 14.294.208 19.55-4.311 5.104-4.533 6.717-11.708 6.703-18.285.083-12.223-.056-24.446.083-36.669 3.018.028 6.035.028 9.052.028.042 22.485.028 44.984.014 67.469-2.948-.014-5.91-.014-8.857-.014-.014-3.352-.07-6.703.208-10.04-4.755 9.052-15.838 13.266-25.6 11.25-10.86-1.016-20.913-9.178-23.319-19.94-.973-4.951-1.543-9.999-1.46-15.032.028-11.236-.055-22.485.042-33.72zm152.82 0c3.017.014 6.034.028 9.065.028.042 22.485.014 44.984.014 67.469-3.045 0-6.062-.014-9.094 0-.014-22.5-.041-44.998.014-67.497z" fill="#262424"/><path d="m38.907 7.634c7.37-1.168 15.004-.097 22.485-.57.43 18.675.083 37.363.194 56.038-.139 7.579.404 15.713-3.684 22.457-6.466 10.749-20.094 15.922-32.219 14.072-8.246-1.32-16.728-5.311-20.97-12.834-3.266-5.298-4.225-11.583-4.713-17.688a642.887 642.887 0 0 1 24.835 0c.459 2.712.347 5.757 2.17 8.01 2.21 3.198 7.758 3.128 9.9-.112 1.335-2.03 1.57-4.574 1.71-6.938.278-20.803-.375-41.647.292-62.435zm57.026 11.527c1.557-4.143 3.226-8.26 5.297-12.18 5.604.32 11.208-.042 16.798.278 1.613.653 1.794 2.628 2.53 4.018 11.292 29.048 22.917 57.971 34.208 87.02-8.33.069-16.659.055-24.974.013-1.53-4.477-3.087-8.955-4.853-13.335-10.165.084-20.33.18-30.494-.055-1.864 4.477-3.518 9.038-5.41 13.515-8.106-.166-16.227-.083-24.348-.097 1.641-5.298 3.824-10.415 5.882-15.56 8.455-21.205 16.923-42.397 25.364-63.617m4.866 47.46a1961.04 1961.04 0 0 1 18.091-.015c-2.85-10.54-5.77-21.08-9.525-31.342-2.03 10.665-6.3 20.746-8.566 31.356zm60.683-59.474c14.503.265 29.076-.737 43.524 1.057 5.45.765 10.93 2.767 14.85 6.772 10.86 9.928 12.25 27.352 5.423 39.95-4.06 8.107-12.681 13.168-21.497 14.294-6.66.78-13.39.501-20.08.529-.069 9.525.042 19.064-.083 28.59-7.397-.029-14.781.027-22.179-.029-.167-30.383-.208-60.78.042-91.163m22.22 20.747c-.055 7.203-.083 14.406.07 21.609 5.91-.042 11.973.236 17.73-1.405 5.422-2.266 6.799-8.996 5.033-14.1-1.557-3.184-4.839-5.27-8.315-5.742-4.812-.612-9.678-.292-14.517-.362zm72.322-16.478c.779-1.474 1.168-3.448 2.878-4.171 5.27-.237 10.568-.292 15.825.083 1.724.654 2.169 2.545 2.878 4.047 11.347 28.992 22.874 57.943 34.207 86.95-8.33.04-16.645-.015-24.974.04-1.599-4.463-3.156-8.94-4.811-13.39-10.193.098-20.385.195-30.578-.07-1.85 4.478-3.504 9.04-5.409 13.489-8.093-.153-16.172-.042-24.25-.07 2.015-6.772 4.908-13.224 7.522-19.773 8.858-22.401 17.799-44.761 26.712-67.135m1.919 55.218a858.22 858.22 0 0 1 17.952.028c-2.67-10.624-5.91-21.094-9.4-31.482-2.142 10.68-6.55 20.747-8.552 31.454zm60.613-59.473c5.785.042 11.583-.153 17.368 0 2.42-.486 3.546 1.989 4.658 3.588 10.665 17.799 21.692 35.389 32.344 53.187.264-18.939-.543-37.878-.237-56.803 7.37.209 14.796-.57 22.11.682-.278 30.16-.056 60.32-.125 90.481-6.661.07-13.322.028-19.982.042-11.625-18.188-22.972-36.57-34.235-54.995-.5 18.3.264 36.612.18 54.912-7.37.139-14.725.111-22.081.041-.18-30.383-.209-60.766 0-91.135z" fill="#971010"/></g></svg>