<svg height="1956" width="2500" xmlns="http://www.w3.org/2000/svg" viewBox="10.679000000000002 5.992999999999995 604.321 439.382"><g fill="#050611"><path d="M449 52c8.601.574 16.714 1.54 23 8 8.63 12.96 6.288 29.276 4.574 43.879l-.677 6.02c-.237 2.11-.477 4.22-.718 6.33-4.191 36.836-7.516 73.682-8.179 110.771l-.066 3.413c-.207 12.027-.307 23.742 2.066 35.587 11.655-5.807 17.145-25.625 22-37l1.422-3.266c5.287-13.102 3.794-28.535 3.818-42.418.01-3.374.041-6.748.072-10.123.007-2.18.012-4.36.016-6.54l.038-3.004c-.031-9.76-2.163-18.842-6.366-27.649 8.35-.63 16.155 1.472 22.875 6.625 8.457 8.112 10.042 19.813 10.426 31.012.019 2.017.022 4.034.011 6.05l-.003 3.403c-.135 12.682-1.163 25.31-2.241 37.942-.718 8.576-1.225 17.113-1.287 25.722l-.033 2.453c.01 5.849.594 11.477 3.252 16.793 4.905-.42 6.742-2.449 10-6 5.43-7.197 9.037-14.992 12.25-23.375l.96-2.498c.992-2.692 1.9-5.4 2.79-8.127l1.086-3.152c3.679-11.884 3.704-23.751 3.977-36.098.075-3.21.157-6.42.254-9.63.06-1.98.108-3.96.14-5.94.23-7.77 1.304-15.522 5.418-22.243 2.939-2.679 5.048-3.904 9.094-3.968 6.159.433 11.438 2.52 17.031 5.031l-.586 2.09-.789 2.847-.773 2.778c-1.828 7.051-3.154 13.76-3.475 21.048l-.129 2.503c-.09 1.78-.179 3.562-.263 5.343-.136 2.848-.283 5.695-.432 8.543-.423 8.093-.829 16.186-1.225 24.28-2.92 59.345-2.92 59.345-11.328 84.568l3.813 1.125c11.695 3.91 21.652 10.276 28.187 20.875 1.585 3.251 3.057 6.502 4 10l-1 2-1.512-1.871C591.078 325.03 579.235 317.74 566 312h-2l-1.504 3.184c-3.825 7.955-7.683 15.103-13.496 21.816l-1.855 2.457c-9.783 11.6-25.176 18.438-40.123 19.711-16.593.938-35.719-1.399-49.022-12.168-5.194-5.452-7.397-8.704-7.266-16.344.73-7.297 4.915-12.073 10.403-16.644 18.31-12.866 40.061-17.427 62.113-17.2l3.64.002c6.45.032 12.718.329 19.11 1.186l.166-1.803c.7-7.332 1.688-14.607 2.729-21.898 1.321-9.446 2.261-18.755 2.105-28.299l-1.398 3.008c-6.38 13.415-13.716 28.05-27.602 34.992-4.844.531-8.817.569-13.25-1.563-9.436-8.364-11.787-16.706-13.438-29l-.392-2.767c-.314-2.222-.62-4.446-.92-6.67l-.683 1.538c-13.84 30.87-13.84 30.87-26.317 38.462-3.974 1.092-7.192.226-11.125-.875-8.335-6.16-10.622-16.336-12.187-26.064-3.52-23.644-3.935-51.506.312-75.061l-2.047 1.645-2.703 2.167-2.672 2.145C434 190 434 190 431.907 191.296c-2.519 2.25-2.597 3.695-2.997 7.017l-.43 3.232-.418 3.455c-3.414 24.904-9.836 50.34-29.062 68-7.056 5.307-13.162 6.888-22 6-2.625-1.375-2.625-1.375-4-4-3.969-14.918 5.005-30.318 12-43 3.499-5.742 7.429-11.287 12.059-16.172 6.053-6.698 7.114-11.552 6.691-20.453l-.087-3.452c-.427-11.16-1.292-24.552-9.663-32.923-3.893-.543-5.636-.227-9 1.875-9.442 8.801-13.513 22.728-16.75 34.813l-.639 2.374-.595 2.325-.523 2.038c-1.858 9.704-1.64 19.451-1.626 29.286l-.003 5.206c-.001 3.632 0 7.265.006 10.898.005 4.6.002 9.2-.004 13.799-.004 3.586-.002 7.173 0 10.76 0 1.692 0 3.384-.002 5.077-.044 22.994-.044 22.994 2.574 45.799l.369 2.309c.763 4.596 1.832 8.985 3.193 13.441-16.682-.737-16.682-.737-23.812-6.125-4.946-6.5-5.766-14.368-6.364-22.312l-.242-3.012c-.867-11.844-.841-23.682-.77-35.551l.022-7.208c.11-28.251.666-56.498 1.729-84.73.148-4.02.295-8.041.437-12.062l.091-2.497c.376-11.364.038-22.162-7.091-31.503v-2c8.059-1.048 15.589-1.894 23 2 5.212 4.086 7.836 9.582 9 16 .586 5.652.811 11.323 1 17l1.504-3.184c5.922-12.329 12.867-25.518 25.996-31.378 5.834-.73 10.483-.485 15.75 2.25 12.187 10.248 15.994 25.944 17.438 41.25l.136 2.277c.079 1.888.079 1.888 1.176 3.785 9.823-5.671 9.823-5.671 15.484-15.027.87-4.73 1.031-9.492 1.196-14.29.109-1.783.223-3.566.343-5.348.3-4.682.518-9.364.72-14.05.217-4.681.517-9.356.808-14.033 2.2-33.653 2.2-33.653.449-67.252zm-49 175c-9.33 11.314-19.602 27.957-19 43 2.476-.372 3.726-.718 5.492-2.54C393.82 256.41 398.58 243.024 401 230l-1-3zm99 81l-3.246 1.098C485.74 312.86 474.932 319.08 470 329c-1.486 4.74-1.58 7.817.625 12.313 4.901 5.546 9.371 7.726 16.375 9.687l2.438.688c12.556 1.53 24.414-.913 34.562-8.688 10.983-9.484 16.435-24.303 20-38-13.42-4.473-31.871-1.597-45 3zM137.75 22.625c5.277 5.57 6.47 11.986 7.25 19.375l1.585-.87c2.425-1.324 4.857-2.633 7.29-3.943l2.492-1.369C164.512 31.46 172.645 28.08 182 29c5.771 1.822 9.668 4.931 14 9-3.22.985-5.901.986-9.25.813C173.627 38.733 160.8 43.61 149 49l-2.785 1.215c-3.152 2.54-3.604 5.503-4.465 9.285-5.07 19.304-14.91 39.176-32.293 50.098-4.972 2.7-8.799 4.227-14.457 3.402-2-2-2-2-2.438-4.875C93.02 94.345 104.403 79.982 113 70l2.297-2.668c6.325-7.185 6.325-7.185 10.266-9.957 2.789-2.25 2.789-2.25 3.062-6.063-.318-4.398-1.97-8.216-3.75-12.21C124 37 124 37 124 35c-8.42-3.465-15.415-3.657-23.934-.22C71.305 47.491 51.594 71.17 40 100c-4.396 12.21-7.622 25.702-2 38 2.848 4.852 6.857 7.046 12 9 4.577 1.178 9.053 1.168 13.746 1.21l5.229.087c2.718.04 5.435.078 8.154.104 19.196.204 37.017 1.94 51.613 15.927 10.713 12.678 13.39 29.149 12.47 45.247-2.36 27.069-13.519 53.87-31.212 74.425l-2.203 2.621C93.369 303.255 73.507 319.871 51 323c-5.597.117-10.567-.327-15-4-6.307-6.558-6.507-12.645-6.34-21.313C30.68 277.127 44.174 256.517 58 242h2c-1.381 3.566-2.923 7.04-4.513 10.518-5.891 13.035-11.027 27.79-6.3 42.107 2.2 4.096 4.595 7.266 8.813 9.375 10.5 1.095 17.912-1.84 26.04-8.328L86 294l1.96-1.672c17.184-15.892 25.302-40.203 27.263-62.906.512-13.446-3.168-27.797-12.442-37.828-13.23-11.838-28.7-10.93-45.343-10.594-4.002.08-8.003.14-12.004.188l-2.722.075c-8.826.101-16.981-1.742-23.954-7.388-7.133-7.608-8.079-16.928-7.965-26.879C12.069 115.233 29.998 84.752 50 61l1.331-1.593c17.686-20.931 58.272-53.414 86.419-36.782zm-12.719 44.29C116.743 75.79 107.124 87.006 104 99l1 3c8.511-2.953 13.108-7.855 17.25-15.813C125.468 79.322 128.243 72.67 128 65c-1.338-.116-1.338-.116-2.969 1.914zM318 132c6.031 5.868 7.732 14.163 8.183 22.313.1 11.692-1.183 23.095-2.62 34.687-7.886 48.593-7.886 48.593 4.437 94 1.578 1.883 3.128 3.395 5 5-1.593 1.593-3.232 1.209-5.438 1.25-8.06-.115-15.129-1.841-21.039-7.543-9.037-10.127-11.645-24.35-11.726-37.594l-.02-2.309a1338.24 1338.24 0 0 1-.027-7.492l-.007-2.609c-.013-13.13.685-26.057 1.97-39.119 2.868-22.992 2.868-22.992.287-45.584-3.643 0-5.908.141-8.813 2.426-9.9 10.673-13.522 24.862-17.187 38.574l-1.067 3.58c-1.3 5.267-1.201 10.476-1.163 15.873v3.32c.004 2.316.012 4.632.024 6.949.018 3.475.02 6.95.02 10.426.022 13.313.365 26.565 1.186 39.852-1.413-.125-2.826-.26-4.238-.398l-2.384-.225c-6.398-1.015-11.169-4.364-15.128-9.389-5.825-9.264-5.443-20.454-5.437-30.988l-.002-3.816c.059-10.893.66-21.716 1.477-32.577C246.3 168.893 246.3 168.893 239 149c-2.907-.425-5.117-.48-7.746.95-5.33 4.143-9.537 9.478-11.254 16.05.514 4.747 1.916 9.114 3.33 13.648 7.876 27.646 13.087 67.468.772 94.403-2.408 4.26-5.218 8.469-10.102 9.949-3.885.591-5.647.19-9.125-1.688-6.132-5.633-7.29-16.4-7.875-24.312-.19-4.834-.238-9.663-.25-14.5l-.006-2.056c-.008-11.24.85-22.178 2.502-33.307l.375-2.612c.248-1.655.526-3.306.836-4.95 1.188-7.532-.822-13.55-3.332-20.637l-1.235-3.59C191.456 163.85 185.832 152.68 178 142c7.482-3.803 14.261-6.246 22.625-4.063 6.437 2.454 9.986 7.643 13.313 13.438C215 154 215 154 215 156c2.82-2.59 4.86-5.565 7.063-8.688 5.53-7.57 12.666-14.798 21.937-17.312 5.938-.59 11.101-.9 16.563 1.688 8.759 8.31 9.854 17.604 10.437 29.312l1.25-2.71c5.817-12.31 13.11-24.4 26.313-29.727 7.732-1.266 12.893-1.008 19.437 3.437zm-112 87c-1.96 18.397-3.619 39.685 4 57h3c.718-19.359-1.799-37.939-5-57h-2z"/><path d="M168.625 144.375c6.047 6.683 6.96 14.82 6.914 23.5l.033 3.111c.022 2.198.036 4.396.042 6.595.019 5.827.105 11.654.183 17.482l.042 3.561c.132 10.261.443 20.507.916 30.758.078 1.709.152 3.418.222 5.127.374 9.141 1.12 18.14 2.457 27.194l.364 2.472c1.077 6.84 2.857 13.303 5.202 19.825-7.268 2.584-15.18 3.592-22.438.438-5.23-3.117-6.919-7.018-8.43-12.7-2.956-13.473-3.236-27.174-3.547-40.923-.052-2.253-.108-4.507-.166-6.76-.163-6.395-.32-12.79-.469-19.187 1.393-30.057 1.393-30.057-7.95-56.868v-2c8.521-3.526 17.805-4.97 26.625-1.625zM448.074 378.71C450 380 450 380 452 382l1-6h7c.05 6.207.086 12.414.11 18.622.01 2.107.023 4.215.04 6.322.025 3.046.037 6.092.045 9.138l.032 2.81c.001 8.844-.264 18.122-6.227 25.108-5.885 5.721-11.972 7.186-19.937 7.375-8.91-.22-15.732-1.75-22.063-8.375-1.543-2.587-2.83-5.226-4-8 7.466-.367 7.466-.367 10 1.375 1 1.625 1 1.625 1 3.625 8.875 3.765 16.29 5.284 25.438 1.625 3.546-2.249 5.244-3.356 6.292-7.543l.458-3.27.48-3.292L452 419l-3.062 2.375c-6.14 4.343-12.565 5.393-19.938 4.625-7.855-1.472-13.824-5.42-18.387-12-3.694-7.052-4.078-15.282-1.73-22.844 3.224-7.088 7.675-11.09 14.242-15.031 8.523-3.18 17.22-1.74 24.95 2.586zM418 389c-3.234 5.498-3.894 10.761-3 17 1.847 5.394 5.503 8.747 10 12 5.878 1.96 12.576 1.793 18.438-.125 5.043-3.69 8.187-7.751 9.562-13.875.512-5.53-.222-10.194-3-15-4.347-4.863-8.826-7.706-15.375-8.312-6.851.59-11.805 3.492-16.625 8.312zM45 359c25.71 0 25.71 0 30.645 4.5 3.949 5.072 5.035 9.11 4.355 15.5-1.674 4.27-4.034 7.522-7 11l1.625.188c3.981 1.362 7.227 4.056 9.531 7.582 1.826 4.826 1.349 10.17.844 15.23-2.271 4.892-5.644 7.863-10 11-6 2-6 2-30 2v-67zm7 7v20c8.147.746 8.147.746 15.625-1.813 3.059-2.817 4.286-4.385 4.75-8.562-.435-4.203-1.379-5.714-4.375-8.625-5.164-1.721-10.593-1.054-16-1zm0 28v25c11.281.658 11.281.658 21.633-3.258C76.643 412.456 78 409.423 78 405c-1.688-4.688-3.89-7.226-8-10-3.62-1.207-6.925-1.108-10.688-1.063L52 394zM271.914 378.395c6.554 5.043 9.533 11.595 11.086 19.605v4h-45c2.843 9.626 2.843 9.626 9.785 16.066 5.795 2.57 11.305 2.427 17.2.176 4.496-2.287 6.603-4.997 9.015-9.242 4.75.875 4.75.875 7 2-1.711 5.646-5.101 9.964-9.902 13.336-7.36 3.865-16.097 4.12-24.008 1.816-7.471-3.324-11.728-8.642-14.965-16.027-2.282-6.942-1.799-14.166.773-20.957 2.95-5.805 7.573-10.92 13.61-13.54 8.595-2.168 17.71-1.797 25.406 2.767zM242.063 388c-2.305 2.978-2.305 2.978-3.063 7h35c-1.156-5.781-2.695-8.387-7.5-11.75-8.78-4.39-17.955-2.61-24.437 4.75zM518.293 377.61c5.654 4.606 10.312 10.069 11.707 17.39v7h-44c2.8 10.065 2.8 10.065 10 16 4.856 2.377 8.863 2.227 14 1 5.554-2 8.488-5.454 12-10l5 1c.746 1.684.746 1.684 1 4-3.49 5.428-8.324 10.886-14.703 12.672-7.805 1.115-16.368 1.617-23.297-2.672-5.5-4.176-9.323-9.261-11-16-1.064-9.468-.423-17.406 5.578-24.996 8.273-8.962 22.83-12.129 33.715-5.395zm-27.105 8.702c-2.67 2.958-2.67 2.958-4.188 8.688h35c-2.365-7.094-5.094-9.852-11.5-13.375-7.516-1.88-13.38-.19-19.312 4.688zM142.293 377.61c5.654 4.606 10.312 10.069 11.707 17.39v7h-44c2.8 10.065 2.8 10.065 10 16 4.856 2.377 8.863 2.227 14 1 5.554-2 8.488-5.454 12-10l5 1c.746 1.684.746 1.684 1 4-3.49 5.428-8.324 10.886-14.703 12.672-7.805 1.115-16.368 1.617-23.297-2.672-5.5-4.176-9.323-9.261-11-16-1.064-9.468-.423-17.406 5.578-24.996 8.273-8.962 22.83-12.129 33.715-5.395zm-27.105 8.702c-2.67 2.958-2.67 2.958-4.188 8.688h35c-2.365-7.094-5.094-9.852-11.5-13.375-7.516-1.88-13.38-.19-19.312 4.688zM373.688 376.813c2.52 1.664 4.28 3.045 6.312 5.187l1-6h7v50h-7l-1-6-2.063 1.813c-7.11 5.295-13.196 6.047-21.937 5.187-6.158-1.398-11.005-4.086-14.602-9.34-4.953-7.994-6.741-14.648-4.937-24.066 2.202-7.564 6.253-12.553 13.039-16.531 7.492-3.418 16.667-3.824 24.188-.25zm-24.375 9.375c-3.666 4.458-6.029 8.537-6.75 14.312.965 7.724 3.236 12.173 9.394 17.086 4.628 3.203 8.449 3.875 14.027 2.95 6.35-1.687 10.237-5.313 14.016-10.536 1.95-5.848 1.78-12.522-.063-18.375-3.538-4.794-8.025-9.147-13.937-10.625-6.7-.62-11.47.94-16.688 5.188zM180 79l1 2-1.836 2.613C167.511 100.476 158.484 118.2 153 138c-6.843-5.62-8.86-14.581-10-23-.766-8.579 1.753-16.555 7.223-23.188C158.262 83.615 168.899 80.681 180 79zM567 375c2.964 1.331 5.47 2.97 8 5-.797 3.813-.797 3.813-2.625 5.5-3.327.7-4.825-.846-7.566-2.598-2.839-1.416-4.882-.855-7.809.098-2.387 1.922-2.387 1.922-2.047 5.34 1.156 4.043 2.303 5.085 5.867 7.181l1.93 1.041c5.169 2.89 8.888 5.47 12.25 10.438 1.002 4.75.584 9.384-1.063 13.938-4.133 4.4-7.913 6.296-13.875 6.562-4.89-.21-9.187-1.422-13.062-4.5-1.219-2.14-1.219-2.14-2-4l5-4 2.125 1.938c3.194 2.291 4.963 2.98 8.875 3.062 2.327-1.138 4.168-2.168 6-4 .836-3.285.836-3.285 0-7-2.7-2.48-5.838-4.17-9-6-5.55-3.567-9.27-6.31-11-13-.175-4.167.56-7.3 2.813-10.875 5.01-4.867 10.466-5.077 17.187-4.125zM169 376h7c4.636 9.16 9.165 18.357 13.473 27.677 1.403 3.396 1.403 3.396 3.527 6.323l1.361-3.013c1.662-3.678 3.327-7.355 4.993-11.031l2.162-4.781c1.033-2.287 2.069-4.573 3.105-6.859l.979-2.171c2.286-5.031 2.286-5.031 3.4-6.145 2.333-.04 4.667-.042 7 0-.65 4.802-2.593 8.733-4.676 13.047l-1.11 2.335c-1.17 2.459-2.348 4.913-3.527 7.368-1.166 2.441-2.33 4.883-3.494 7.325-.722 1.516-1.447 3.03-2.174 4.545-2.433 5.086-4.753 10.217-7.019 15.38h-3l-1.266-2.791a29469.487 29469.487 0 0 0-6.797-14.978c-.99-2.183-1.98-4.365-2.972-6.547l-.99-2.183a803.43 803.43 0 0 0-5.033-10.868l-.988-2.092a799.472 799.472 0 0 0-1.869-3.919C169 378.22 169 378.22 169 376zM319.5 374.813l2.406-.043C324 375 324 375 326 377c-1.063 2.5-1.063 2.5-3 5-2.333.043-4.667.04-7 0-4.494 2.35-5.862 5.341-7.367 10.078-1.348 6.223-1.22 12.64-1.32 18.985-.034 1.452-.068 2.904-.104 4.357A1407.61 1407.61 0 0 0 307 426h-7v-50h7l1 4 2.375-1.938c3.352-2.633 4.946-3.216 9.125-3.25zM600 422c5 1 5 1 6.813 3.063L608 427l1.25-2.5L611 422h4v13h-3l-1-5-1.375 2.5L608 435h-2l-2-5-1 5h-3v-13zM587 422h11v2h-4v11h-3v-11h-4v-2z"/></g></svg>