<svg clip-rule="evenodd" fill-rule="evenodd" height="753" image-rendering="optimizeQuality" shape-rendering="geometricPrecision" text-rendering="geometricPrecision" viewBox="0 0 20533.329999999994 6177.09" width="2500" xmlns="http://www.w3.org/2000/svg"><path d="M17976.34 2769.7c251.16-13.37 262.47 211.63 262.47 439.69 0 228.05-18 419.62-242.4 426.3-224.4 6.7-346.06-208.28-346.06-436.34s74.84-416.28 325.99-429.66zm779.85 1216.3c1.58 59.06-3.17 109.42-13.61 152.07-56.71 231.59-281.37 235.82-571.98 169.28-113.07-25.89-234.36-63.41-343.65-103.11-557.71-202.67-855.63-521.25-816.65-1080.7 47.07-675.63 328.8-916.45 976.4-1013.12 167.01-24.91 192.43-45.8 194.38-244.29l-20.06-641.97c-4.47-342.71 639.75-137.08 628.59 160.5l-29.35 2283.7-4.08 317.63z" fill="#a8cf45"/><path d="M16776.73 2304.16c-36.77-283.09-578.63-128.2-581.98 6.66-46.54 648.89-58.04 1265.93-6.5 1825.65 40.12 422.42 655.34 92.51 655.34-36.78-107.68-496.05-93.64-1138.13-66.87-1795.52zm-304.27-993.04c195.74 0 354.42 163.92 354.42 366.13s-158.68 366.13-354.42 366.13-354.42-163.92-354.42-366.13 158.68-366.13 354.42-366.13z" fill="#ffcc29"/><path d="M20413.01 2407.56c-1.68-115.63-12.96-191.13-60.06-293.17-34.47-74.69-89.84-145.49-165.06-155.27-306.95-39.83-597.24 64.44-844.21 241.53-148.66 106.89-262.67 215.87-312.72 399.71-34.17 125.53-16.37 262.18 41.43 371.12 61.14 115.29 302.63 322.53 410.79 386.45 147.53 87.17 344.57 226.87 103.12 397.69-76.12 53.89-167.91 64.21-258.02 79.55-83.89 14.3-184.73 2.33-254.08 44.06-163.11 98.01-.24 476.72 153.35 523.29 147.18 44.61 391.26-25.45 548.18-67.18 164.08-43.62 448.06-203.28 568.04-345.7 101.64-120.7 189.56-293.81 170.29-467.45-6.67-60.06 4.29-12.99-11.24-57.36-43.66-124.56-242.93-332.35-352.26-416.93-73.73-57.05-271.05-203.21-301.1-258.92-121.56-225.49 402.39-300.71 563.55-381.44z" fill="#ee314c"/><path d="M14218.69 3547.03c-5.43 115.91-12.95 519.81 5.45 620.94 119.25 42.82 405.18 40.38 511.41-36.91 61.23-44.57 91.15-110.51 100.71-159.22 17.35-88.49 20.87-249.74 18.61-345.98 7.92-94.19-26.93-162.25 50.91-221.56 105-79.99 117.77 45.33 151.6 110.98 44.1 76.12 539.62 1257.09 544.46 1275.67 17.48 40.14 40.58 104.52 63.02 139.28 58.03 90.06 128.5 174.13 251.46 154.74 178.62-28.19 319.96-150.59 441.42-248.57-9.38-70.13-21.45-64.14-40.98-110-70.29-126.62-145.66-257.12-209-387.52-165.13-334.99-304.12-672.96-463.65-1002.72-90.82-187.94-224.42-462.27-111.59-662.18 59.62-105.71 97.07-148.33 234.83-248.17l160.17-116.55c2.83-82.99-18.08-112.26-56.47-171.5-95.59-147.54-241.74-220.34-416.2-133.58-107.3 88.1-441.13 303.68-461.16 338.14-25.85 27.9-93.76 82.29-115.53-1.98-56.99-168.7 3.6-469.18 9.15-703.6 3.75-158.13 62.03-576.65-54.65-689.71-95.33-92.34-349.51-2.65-409.23 43.89-65.81 50.73-136.21 114.53-156.54 197.82-10.67 43.64-9.51 74.67-8.94 103.08 14.25 705.42-39.54 1568.84-39.25 2255.2z" fill="#0584c7"/><path d="M12174.56 0c309.23 0 562.22 252.99 562.22 562.22v3775.12c0 309.23-252.99 562.21-562.22 562.21s-562.22-252.98-562.22-562.21V562.22c0-309.23 252.99-562.22 562.22-562.22zM8001.8 1347.49v965.63h817.98c265.55 0 482.8-217.27 482.8-482.81 0-265.55-217.26-482.81-482.8-482.81H8001.8zm0 2090.06v1122.84c0 309.23-252.99 562.22-562.22 562.22-309.22 0-562.21-252.99-562.21-562.22V785.28c0-309.24 252.99-562.22 562.21-562.22h1374.71c883.98 0 1607.24 723.26 1607.24 1607.24 0 591.28-323.64 1110.59-802.46 1389.7l1105.3 906.25c239.11 196.06 274.34 552.12 78.29 791.24-196.06 239.11-552.11 274.35-791.23 78.29L8110.96 3437.54h-109.15zM5492.85 1277.54c309.23 0 562.22 252.98 562.22 562.21v3775.12c0 309.23-252.99 562.22-562.22 562.22s-562.22-252.99-562.22-562.22V1839.75c0-309.23 252.99-562.21 562.22-562.21zM1505.98 216.46h2000.4c309.24 0 562.23 252.99 562.23 562.22s-252.99 562.22-562.23 562.22H1489.77c-209.85 0-381.54 171.69-381.54 381.55v.01c0 209.86 171.69 381.55 381.54 381.55h1380.08c828.25 0 1505.98 677.69 1505.98 1505.98v.02c0 828.29-677.69 1505.98-1505.98 1505.98H664.39c-309.24 0-562.23-252.99-562.23-562.21 0-309.23 252.99-562.22 562.23-562.22h2221.67c209.84 0 381.54-171.7 381.54-381.55v-.02c0-209.83-171.69-381.54-381.54-381.54H1505.98C677.69 3228.45 0 2550.76 0 1722.46v-.01C0 894.15 677.69 216.46 1505.98 216.46z" fill="#384c8e"/></svg>