<svg height="556" width="2500" xmlns="http://www.w3.org/2000/svg" viewBox="-0.65 -11.733 2554.177 586.1629999999999"><g fill="#615449"><path d="M1592.746 38.387a466.896 466.896 0 0 1 5 4.547c2 1.833 4.047 3.576 6.129 5.316 10.568 9.276 19.084 20.316 27.462 31.534 2.242 2.987 4.518 5.946 6.795 8.906 4.111 5.346 8.187 10.705 12.118 16.185 14.459 20.036 31.153 40.6 56.75 45.125 26.048 2.714 44.718-7.87 64.719-23.248 3.404-2.615 6.844-5.181 10.281-7.752l3.914-2.941c11.348-8.51 22.8-16.878 34.314-25.162 5.476-3.945 10.91-7.944 16.335-11.96A1143.555 1143.555 0 0 1 1863 60c.774-.54 1.548-1.08 2.345-1.638 10.32-7.196 20.69-14.182 31.655-20.362l2.153-1.222C1924.892 22.314 1952.441 13.535 1982 12l2.816-.164c24.85-.76 46.53 8.175 64.903 24.594 19.024 18.008 30.449 44.186 31.652 70.32 1.866 93.425-27.456 191.348-79.296 356.039-.991 2.96-1.978 5.923-2.964 8.885-13.765 41.239-13.765 41.239-27.111 56.326l-1.492 1.953c-10.239 12.939-26.623 21.48-42.844 23.8-18.953 1.752-36.444-3.56-51.289-15.503-20.262-18.307-25.906-45.905-33.158-71.042-13.44-46.535-33.917-84.557-77.647-109.255-18.998-10.393-39.134-16.964-60.57-19.953l-1.975-.286c-33.946-4.405-71.67.652-103.025 14.286l-2.059.882c-51.126 22.162-80.96 64.796-106.69 112.325A586.257 586.257 0 0 1 1477 490l-1.716 2.838c-16.352 26.948-34.257 53.502-66.534 61.912-23.452 5.572-48.166 1.98-68.77-10.621-17.11-12.222-26.66-30.468-30.355-50.938-4.554-29.226-2.95-58.28 1.898-87.351l.389-2.334c3.2-19.085 7.283-37.967 11.439-56.862.891-4.059 1.776-8.12 2.66-12.18 3.306-15.16 6.644-30.312 9.989-45.464l.442-2.002a55167.282 55167.282 0 0 1 15.874-71.676c4.54-20.446 9.099-40.887 13.684-61.322l.494-2.203c2.2-9.809 4.408-19.616 6.625-29.42.646-2.856 1.29-5.711 1.93-8.567 5.689-25.303 5.689-25.303 8.671-36.16l.557-2.04c7.125-25.037 23.053-46.708 45.805-59.54 51.43-27.798 119.757-14.975 162.664 22.317zM681.059 16.348A131.456 131.456 0 0 1 688 23l2.688 2.625L693 28l1.535 1.469c3.482 3.363 6.58 6.863 9.59 10.656 16.031 19.78 34.953 33.886 60.828 37.414C792.832 79.89 817.167 69.723 839 53l1.971-1.505c2.812-2.149 5.62-4.302 8.427-6.458C874.093 26.097 897.314 8.631 930 11c20.77 2.747 38.698 13.251 51.688 29.625 10.508 14.674 16.31 31.663 13.843 49.828-2.703 15.641-9.47 27.854-18.531 40.547l-1.498 2.11A1412.542 1412.542 0 0 1 964 149l-1.752 2.394A2505.708 2505.708 0 0 1 944 176a2407.104 2407.104 0 0 0-20 27l-1.643 2.24c-20.032 27.397-34.4 57.553-29.59 92.389 3.758 23.63 15.137 44.329 25.8 65.441C949.761 424.84 949.761 424.84 954 455l.547 3.805c3.208 26.522-3.1 53.15-18.555 75.039-1.93 2.452-3.936 4.808-5.992 7.156l-1.79 2.258C917.545 556.286 901.636 565.406 885 568c-24.566 2.052-45.933-4.244-65-20-7.63-6.515-14.704-13.614-21.812-20.688l-2.426-2.41c-3.421-3.431-6.781-6.865-9.922-10.554-5.188-6.022-10.862-11.594-16.471-17.22-1.976-1.985-3.94-3.98-5.904-5.976-16.683-16.825-35.04-32.2-59.777-32.59-20.806.163-36.808 9.81-51.688 23.438l-3.09 2.762c-6.006 5.396-11.734 11.029-17.41 16.77a108.22 108.22 0 0 1-6.25 5.718c-4.143 3.526-7.924 7.388-11.75 11.25-8.86 8.926-8.86 8.926-13.379 12.707a172.848 172.848 0 0 0-5.148 4.555c-19.683 17.791-39.631 24.236-66.056 23.417-14.754-.906-27.807-7.795-38.917-17.179l-1.793-1.355c-14.216-11.094-20.367-27.675-23.812-44.713-.347-1.697-.73-3.385-1.118-5.073-2.523-11.699.367-23.294 2.47-34.882l.854-4.766c.936-5.197 1.885-10.392 2.837-15.586l.496-2.717c7.668-41.97 16.407-83.69 25.512-125.37l1.65-7.57c7.966-36.577 16.031-73.125 25.255-109.408.667-2.633 1.327-5.266 1.986-7.9 8.516-34.015 17.84-67.776 32.663-99.66l1.37-2.954c12.668-26.971 31.603-61.629 60.685-73.269 21.214-7.38 44.088-4.18 62.004 9.57zM2533.375 48.938c13.766 14.279 20.152 32.118 19.976 51.696-.443 16.333-6.485 29.097-18.351 40.366-18.189 15.551-40.952 15.41-63.5 15-4.469-.08-8.937-.14-13.406-.188l-3.062-.075c-5.829-.06-9.891.443-15.032 3.263-3.837 3.837-5.088 8.824-5.5 14.125.22 8.136 4.788 15.52 10.438 21.125l1.84 1.64c2.645 2.512 4.97 5.23 7.355 7.987 2.349 2.67 4.796 5.235 7.256 7.802 7.403 7.741 14.254 15.703 20.611 24.321l1.472 1.987c28.953 39.368 46.79 84.807 39.403 134.388-6.838 41.156-26.195 76.698-54.875 106.625l-2.152 2.277c-5.224 5.395-10.963 10.07-16.848 14.723l-2.855 2.3c-14.72 11.636-30.525 21.989-47.145 30.7l-1.946 1.021A449.554 449.554 0 0 1 2383 537l-2.083.996C2368.28 543.97 2355.29 548.7 2342 553l-2.572.836c-10.424 3.328-20.999 5.86-31.722 8.02a986.09 986.09 0 0 0-5.554 1.14c-20.289 3.909-40.986 4.358-61.59 4.32-3.56-.003-7.12.02-10.68.045-36.395.1-72.736-5.538-104.882-23.361l-1.965-1.086c-8.715-4.882-16.506-10.309-24.035-16.914l-2.547-2.11c-16.268-13.842-26.62-32.618-29.453-53.89-.814-15.843 1.48-28.583 11.5-41.5 22.659-24.67 54.844-32.979 86.313-39.438 38.929-6.662 38.929-6.662 69.437-29.375 5.958-9.638 7.11-19.513 5.75-30.687-3.665-15.019-13.195-25.782-24-36.188a2432.286 2432.286 0 0 1-6.313-6.167l-1.524-1.492A164.844 164.844 0 0 1 2197 273l-1.527-1.81c-19.148-22.903-32.75-48.97-34.473-79.19l-.164-2.848c-1.3-45.784 24.548-85.349 54.531-117.707C2220.853 65.803 2226.852 60.9 2233 56l2.324-1.957c21.48-17.905 47.342-30.17 73.676-39.043l2.785-.96c71.135-24.251 164.497-19.132 221.59 34.898zM302.813-.375h2.708C320.987-.337 335.825.82 351 4l2.69.551C389.357 12.086 432.339 27.85 454 59l1.64 2.355c9.86 15.261 12.951 34.009 9.712 51.833-5.207 21.36-19.93 39.223-38.352 50.812l-1.91 1.208c-12.133 7.619-24.668 14.42-37.382 21.009-14.456 7.536-29.464 15.47-36.145 31.158C347.95 240.651 361.909 260.917 375 279c2.272 2.996 4.614 5.935 6.958 8.876 22.033 27.713 31.997 58.138 28.815 93.658-.612 5.227-1.592 10.34-2.773 15.466l-.504 2.224C398.824 436.272 374.411 472.034 345 496c-1.174.985-2.347 1.97-3.52 2.957C296.628 536.367 239.806 555.754 183 566l-2.862.54c-43.106 7.89-92.114 3.759-129.31-20.798-5.645-3.914-10.577-8.54-15.436-13.374a130.628 130.628 0 0 0-3.775-3.532C16.374 514.686.6 490.627-.238 469.375-.65 449.439 4.367 434.852 18 420c17.518-16.89 41.562-27.695 62.738-39.094 19.674-10.6 39.23-21.655 57.262-34.906l1.893-1.39c12.288-9.114 23.53-18.633 26.107-34.61.987-14.316-5.626-26.627-14.437-37.437a2398.02 2398.02 0 0 1-3.731-4.704l-1.92-2.42c-29.073-37.081-49.087-73.52-43.451-122.369 5.272-30.827 22.895-57.417 44.158-79.626a451.872 451.872 0 0 0 3.65-3.874C189.084 19.1 247.833-.496 302.814-.375zM1268 29c16.967 17.269 23.389 39.008 23.447 62.798-.237 16.683-3.343 32.852-6.447 49.202l-1.058 5.642c-8.548 45.34-18.812 90.35-28.942 135.358l-.54 2.401c-7.14 31.717-14.543 63.364-22.398 94.911l-.908 3.661c-3.242 13.034-6.64 26.016-10.29 38.941l-.95 3.392c-8.977 31.336-23.94 59.597-45.914 83.694l-1.372 1.51c-15.082 16.351-33.497 28.204-53.378 37.865-.851.417-1.702.835-2.58 1.264-17.902 8.467-35.957 9.426-54.67 3.361-13.28-5.297-23.61-17.205-29.313-30-6.98-16.524-6.857-35.464-6.937-53.125l-.028-3.24c.064-17.157 2.401-34.013 5.653-50.822l1.06-5.572c8.194-42.829 17.508-85.427 26.86-128.014l2.49-11.348.634-2.887a9188.827 9188.827 0 0 0 10.202-47.215c16.805-78.587 16.805-78.587 24.379-110.027l.824-3.447C1102.39 88.3 1107.497 70.167 1117 53l1.09-1.974c4.87-8.692 10.226-16.592 16.91-24.026l2.297-2.617C1170.887-11.733 1234.649-1.837 1268 29z"/></g></svg>