<svg height="1362" viewBox="-.1 -.7 1096.8 596.7" width="2500" xmlns="http://www.w3.org/2000/svg"><g fill="#bd7836"><path d="m745.2 197.9c.1 1.5 1.3.9 2 1 24.1 2.8 46.4 10.4 66.6 24 31.4 21.1 51.1 50.5 56.5 87.8 9.2 64.2-7.9 121.4-50.7 170.3-25.2 28.9-56.5 49.4-92.4 63-2.6 1-2.9 1.9-1.1 4.2 13.8 17.4 28.3 33.9 46.3 47.2.2.1.3.4.5.6h-15.7c-.2-1.5-1.4-.9-2.1-.9-34.6-3.1-67.8-11.8-99.2-26.5-30-14.1-56.2-33.3-77.9-58.5-1.3-1.6-1.6-2.3.2-3.8 46.5-39 93-78.1 139.5-117.1.5-.4.9-.7 1.6-1.2.4.9.1 1.6 0 2.4-4 17.9-7.9 35.8-11.9 53.7-.2.9-.8 1.9.3 2.6 1 .6 1.7-.1 2.4-.6 33.4-20.8 56.2-49.1 63.1-88.7 2.9-16.6 1.4-32.9-6.7-47.9-10-18.5-26-29.1-46-33.9-24.9-6-48.7-2-71.6 8.7-28.3 13.3-49.1 34.6-64.7 61.3-14.1 24.2-23.3 50.3-27.3 78-2.8 19.3-2.9 38.7.6 57.9l-.3.3c-5-6.1-8.5-13.1-11.7-20.3-10.8-24.2-15-49.5-12.9-75.8 4.1-52.7 27-96.2 65.7-131.6 27.1-24.8 58.7-41.7 94.1-51.3 6.5-1.8 13.2-2.9 20-3.7.7-.1 1.9.5 2.1-1 10.2-.2 20.5-.2 30.7-.2zm-745.2 340c1.4-.1 1.1-1.4 1.3-2.2 6.9-23.1 13.7-46.1 20.6-69.2 1.5-5.1 3-10.1 4.6-15.5 2.6 4.2 4.8 8.1 7.3 11.8 10.7 15.8 23.7 29.2 41.3 37.4 15.4 7.2 31.4 9.6 48 5 15.3-4.3 23.4-14.7 24.7-30.6 1.3-16.1-5.2-29.1-15.9-40.5-7.5-8-16.4-14.2-25.5-20.3-16-10.8-32-21.8-45.4-36-13.9-14.6-23.2-31.6-24.7-52-2.4-32.3 7-60.7 30.4-83.7 16.7-16.4 37-26.5 59-33.7s44.6-8.6 67.5-7.6c25.7 1.1 50.7 6.2 75.1 14.1 2.4.8 3 1.6 2.4 4.2-5.7 24.4-11.3 48.8-16.9 73.1-.2.7-.4 1.3-.7 2.4-1.2-1.5-2.3-2.9-3.4-4.2-10.7-13.2-22.7-25-37.3-33.8-17.4-10.4-36.1-12.8-55.5-6.8-14.8 4.6-24.8 14.4-28.1 30.1-1.7 7.8-.2 15 3.7 21.9 4.6 8 11.1 14.2 17.9 20.2 10.6 9.2 22.2 17.1 33.5 25.4 12.3 9.1 24.4 18.6 34.8 29.8 13 14 23.3 29.9 26.1 49 6.7 46-8.2 83.7-46.4 111-18.2 13.1-39.1 19.8-61.2 23.1-32.5 4.9-64.5 1.7-96.2-6.4-13.2-3.4-26.2-7.6-38.9-12.7-.7-.3-1.5-.5-2.2-.7.1-.8.1-1.7.1-2.6zm1096.7-85.1c-1.4.1-1.3 1.4-1.6 2.2-13.9 28.7-27.4 57.6-42.1 85.9-3.3 6.3-3.3 6.2-10.4 6.3l-189.8 1.8h-3.2c1.1-1.9 2.1-3.4 3-4.9 8.7-14.8 14.1-31 18.5-47.5 4.2-15.6 6.7-31.6 9.9-47.5 9-44.8 18-89.7 26.9-134.5 4-20.3 8.3-40.5 11.9-60.9 2.6-14.6 2.4-29.3-1.7-43.7-.5-1.7-.3-2.2 1.6-2.2 28.2-.1 56.4-.5 84.6.1 3.1.1 6.2.5 9.2 1.5 6.9 2.4 9.9 7.5 8.4 14.6-3.5 16.6-7 33.2-10.6 49.7-11.1 52.2-22.1 104.4-33.2 156.6-3.4 16.1-6.8 32.1-10.2 48.2-.3 1.5-1.2 3.1 1.7 2.9 20.9-1.4 41.9-2.4 62.5-6.2 13.6-2.5 26.3-7.7 39.1-12.8 7.6-3.1 15.2-6.5 22.7-9.8.9-.4 1.7-.9 2.7-.9.1.4.1.7.1 1.1z"/><path d="m582.3 558.1c-6.2 3.8-12.9 5.6-19.8 7-10 2-20.2 2.6-30.3 2-15.9-.9-31.9-2.1-47.2-7.7-11.6-4.2-22.1-10.3-31.7-18.1-15.3-12.4-26.1-28.1-34.6-45.7-9.2-19.3-19.1-38.3-28.7-57.3-4.9-9.7-9.9-19.3-14.9-29.2-1.4 3.1-1.5 6.3-2.1 9.3-1.8 8.8-3.2 17.7-4.8 26.5-2.2 12.4-4.5 24.7-6.7 37.1-2.8 15.4-5.6 30.7-8.4 46.1-.8 4.4-1.2 8.9-3.3 13-3.4 6.7-8.9 9.9-16.2 10-13.2.1-26.5 0-39.7 0h-53.3c0-.4 0-.7.1-.8 9.6-12.9 15-27.6 18.9-42.9 4.8-18.7 8.2-37.7 12.1-56.6 10.3-50.6 20.4-101.2 30.6-151.8 2.9-14.2 6.1-28.4 8.3-42.7 1.4-8.7 1.4-17.6 1-26.5-.3-6.2-.8-12.4-2.1-18.7h83.7c2.9 0 5.7 0 8.5.9 6.6 2.1 9.2 6.7 9.5 14.1.2 6.3-1.5 12.4-2.7 18.5-2.1 11.2-4.4 22.3-6.6 33.5-2.7 13.5-5.4 27-8.1 40.6-2 9.9-4 19.9-5.9 29.8v.8c1-.2 1.4-1.1 1.9-1.7 27-30.9 53.9-61.7 80.9-92.6 7.7-8.8 15.3-17.8 23-26.6 3.1-3.6 6.5-6.9 9-11 .9-1.4 1.6-2.9 2-4.5.4-1.3.9-1.8 2.3-1.8 34.2 0 68.4 0 102.6.1.2 0 .3.1.9.2-3.1 1.9-6.1 3.4-8.9 5.3-8.6 5.9-16.2 13-23.3 20.7-11.1 12-22.1 24-33.1 36.1l-27.9 30.6c-13.5 15-27 30.1-40.5 45.2-5.6 6.2-11.2 12.3-16.8 18.4-1.2 1.3-1.5 2.5-.5 4.3 7.3 13.5 14.5 27.1 21.7 40.6 7.4 14 14.7 28 22.1 42 6.1 11.5 11.8 23.3 18.6 34.4 8.2 13.5 17.7 26.1 27.7 38.4 5.8 7.1 11.8 14.1 18.4 20.4 3.9 3.7 8.7 7.5 14.3 10.3z"/><path d="m557.5 481.3c.2.3.3.6 0 .9-.1-.2-.2-.4-.4-.6.2-.1.3-.2.4-.3zm-190.8-478.6c24.9-3.4 36.7-1.1 56.5 17.5 8.3 7.9 21.1 21.7 28.7 22.8-27.5 1.6-39.7 1.9-58.7-19.2-6.6-7.2-18.9-14.4-26.5-21.1zm-51.4 0c24.9-3.4 36.7-1.1 56.5 17.5 8.3 7.9 21.1 21.7 28.7 22.8-27.5 1.6-39.7 1.9-58.7-19.2-6.6-7.2-18.9-14.4-26.5-21.1zm-53.7 0c24.9-3.4 36.7-1.1 56.5 17.5 8.3 7.9 21.1 21.7 28.7 22.8-27.5 1.6-39.7 1.9-58.7-19.2-6.6-7.2-18.9-14.4-26.5-21.1zm-51.4 0c24.9-3.4 36.7-1.1 56.5 17.5 8.3 7.9 21.1 21.8 28.7 22.8-27.5 1.6-39.7 1.9-58.7-19.2-6.6-7.2-18.9-14.4-26.5-21.1zm-53.1 0c24.9-3.4 36.7-1.1 56.5 17.5 8.4 7.9 21.1 21.8 28.7 22.8-27.5 1.6-39.7 1.9-58.7-19.2-6.5-7.2-18.9-14.4-26.5-21.1zm-53.7 0c24.9-3.4 36.7-1.1 56.5 17.5 8.3 7.9 21.1 21.8 28.7 22.8-27.5 1.6-39.7 1.9-58.7-19.2-6.6-7.2-18.9-14.4-26.5-21.1zm-51.4 0c24.9-3.4 36.7-1.1 56.5 17.5 8.3 7.9 21.1 21.7 28.7 22.8-27.5 1.6-39.7 1.9-58.7-19.2-6.5-7.2-18.9-14.4-26.5-21.1zm314.7 94.9c24.9 3.4 36.7 1.1 56.5-17.5 8.3-7.9 21.1-21.7 28.7-22.8-27.5-1.6-39.7-1.9-58.7 19.2-6.6 7.3-18.9 14.4-26.5 21.1zm-51.4 0c24.9 3.4 36.7 1.1 56.5-17.5 8.3-7.9 21.1-21.7 28.7-22.8-27.5-1.6-39.7-1.9-58.7 19.2-6.6 7.3-18.9 14.4-26.5 21.1zm-53.7 0c24.9 3.4 36.7 1.1 56.5-17.5 8.3-7.9 21.1-21.7 28.7-22.8-27.5-1.6-39.7-1.9-58.7 19.2-6.6 7.3-18.9 14.4-26.5 21.1zm-51.4 0c24.9 3.4 36.7 1.1 56.5-17.5 8.3-7.9 21.1-21.7 28.7-22.8-27.5-1.6-39.7-1.9-58.7 19.2-6.6 7.3-18.9 14.4-26.5 21.1zm-53.1 0c24.9 3.4 36.7 1.1 56.5-17.5 8.3-7.9 21.1-21.7 28.7-22.8-27.5-1.6-39.7-1.9-58.7 19.2-6.5 7.3-18.9 14.4-26.5 21.1zm-53.7 0c24.9 3.4 36.7 1.1 56.5-17.5 8.3-7.9 21.1-21.7 28.7-22.8-27.5-1.6-39.7-1.9-58.7 19.2-6.6 7.3-18.9 14.4-26.5 21.1zm-51.4 0c24.9 3.4 36.7 1.1 56.5-17.5 8.3-7.9 21.1-21.7 28.7-22.8-27.5-1.6-39.7-1.9-58.7 19.2-6.5 7.3-18.9 14.4-26.5 21.1zm-21.7-67.7c8.8 4.8 20.4 5.6 30.3 5.3 11.6-.3 20.3 4 26.2 15.5-5.8 13.1-14.4 14-27.4 14.2-10.2.1-23 1.9-29 5.6 3.9-5.1 10.8-16.1 18.3-19.7-6.5-2.7-14.6-9.3-18.4-20.9zm1005.6 28.1h-563.6c-4.3 0-7.7-3.5-7.7-7.7v-.2c0-4.3 3.5-7.7 7.7-7.7h563.5c4.3 0 7.7 3.5 7.7 7.7v.2c.1 4.2-3.4 7.7-7.6 7.7z"/></g></svg>