<svg height="792" viewBox="-.00184955 -.00164937 188.61084955 61.49964937" width="2500" xmlns="http://www.w3.org/2000/svg"><path d="m90.861 3.385a1.438 1.438 0 0 1 -.011.218 1.158 1.158 0 0 1 -.011.145l-.033.24a12.955 12.955 0 0 1 -.587 2.406l-15.727 46.812c-2.022 6-8.075 8.292-13.436 5.092l-29.289-17.447-4.577-2.725a1.666 1.666 0 0 1 -.583-2.253 1.63 1.63 0 0 1 .583-.6l15.991-9.546 40.952-24.427a12.822 12.822 0 0 1 2.211-1.07.2.2 0 0 1 .06-.022c.088-.028.171-.056.252-.084l.06-.017a3.115 3.115 0 0 1 .828-.107 3.356 3.356 0 0 1 3.316 3.385m-50.56 20.155-34.95 20.311a16.775 16.775 0 0 1 -1.706.879c-.017.005-.034.017-.051.022a2.652 2.652 0 0 1 -.991.2 2.594 2.594 0 0 1 -2.602-2.589 2.415 2.415 0 0 1 .18-.929c.028-.067.056-.134.09-.207a17.592 17.592 0 0 1 .811-1.578l12.119-21.033a11.555 11.555 0 0 1 15.713-4.228l.074.042 11.313 6.547a1.481 1.481 0 0 1 0 2.563" fill="#8a1a9b"/><path d="m100.686 48.583a37.237 37.237 0 0 1 -6.4-.508 18.47 18.47 0 0 1 -4.876-1.465l1.409-6.707a26.161 26.161 0 0 0 5.016 1.634 25.074 25.074 0 0 0 5.524.621 18.261 18.261 0 0 0 5.946-.734 4.146 4.146 0 0 0 2.564-3.326 3.5 3.5 0 0 0 -.254-2.593 5.012 5.012 0 0 0 -2.368-1.719 46.209 46.209 0 0 0 -5.1-1.719q-5.355-1.578-7.186-3.945t-.93-6.538a12.039 12.039 0 0 1 4.989-7.721q3.918-2.706 11.581-2.706a37.048 37.048 0 0 1 6 .452 22.139 22.139 0 0 1 4.312 1.071l-1.465 6.707a23.714 23.714 0 0 0 -9.244-1.747 17.957 17.957 0 0 0 -5.748.761 3.987 3.987 0 0 0 -2.706 3.185 3.015 3.015 0 0 0 .254 2.254 4.582 4.582 0 0 0 2.2 1.522 46.752 46.752 0 0 0 4.65 1.522 18.161 18.161 0 0 1 6.284 2.818 6.822 6.822 0 0 1 2.564 3.72 10.39 10.39 0 0 1 -.057 4.678 13.922 13.922 0 0 1 -2.451 5.523 11.267 11.267 0 0 1 -5.242 3.664 27.131 27.131 0 0 1 -9.271 1.3m20.239-.569 7.665-36.3h7.608l-6.424 30.436h17.866l-1.24 5.861zm29.703 0 7.665-36.3h7.609l-3.269 15.386 17.245-15.386h8.736l-16.231 14.716 9.244 21.584h-8.116l-6.876-16.74-5.976 5.242-2.423 11.5z" fill="#fff"/></svg>