<svg viewBox="0 0 1121.94800943331 306.07" xmlns="http://www.w3.org/2000/svg" width="2500" height="682"><path d="M142.59 60.1a69.78 69.78 0 0 0-23.76 4.41 84.75 84.75 0 0 0-22.62 12.33 79.55 79.55 0 0 0-18 19.29 69.41 69.41 0 0 0-10.39 25.34h281v52.15q0 30-11.63 54.45a134.28 134.28 0 0 1-30.43 41.76 137.54 137.54 0 0 1-42.56 26.77 129.62 129.62 0 0 1-48.2 9.46H0v-54h206.27A69.21 69.21 0 0 0 234 246.3a83.64 83.64 0 0 0 24.23-15.93 80.53 80.53 0 0 0 17.53-24 72.94 72.94 0 0 0 7.16-30H0v-38.3q0-29.52 11.31-53.76a131.87 131.87 0 0 1 30-41.53 139.41 139.41 0 0 1 42.45-27 127.73 127.73 0 0 1 48.69-9.7h216.42v54zM439 5.64v202.12a50.94 50.94 0 0 0 3.23 18.24 40.07 40.07 0 0 0 10.38 15.23q7.15 6.69 18.69 10.61t28.15 3.93l205 3.45a46.85 46.85 0 0 1 46.06 46.85H481q-24 0-43.14-7.39a98.3 98.3 0 0 1-32.77-20.3 87.37 87.37 0 0 1-20.76-30 93.15 93.15 0 0 1-7.16-36.45V5.64z"/><path d="M567.52 214.58a86.05 86.05 0 0 1-33.23-6.69A91.76 91.76 0 0 1 505.45 189a96.46 96.46 0 0 1-20.54-29.07q-7.85-16.85-7.84-37.61v-30a85.34 85.34 0 0 1 8.31-37.84 93.38 93.38 0 0 1 21.69-29.07 100.58 100.58 0 0 1 30.22-18.72A91.42 91.42 0 0 1 571.21 0h78a86.82 86.82 0 0 1 33 6.69 96.23 96.23 0 0 1 29.3 18.69 94.36 94.36 0 0 1 21 29.07 87.48 87.48 0 0 1 8.08 37.84v29.08a89.57 89.57 0 0 1-7.85 37.84 94.77 94.77 0 0 1-49.38 48.45 83.63 83.63 0 0 1-33.22 6.92zM678.73 97.64q0-21.14-13.38-34.24t-33.69-13.1H586a46.78 46.78 0 0 0-47.07 47.34v18.84a46.48 46.48 0 0 0 3.92 19.31 47.28 47.28 0 0 0 10.38 14.94 50 50 0 0 0 15 9.87 44.3 44.3 0 0 0 17.77 3.68h45.68a44.37 44.37 0 0 0 17.77-3.68 50.06 50.06 0 0 0 15-9.87 47.47 47.47 0 0 0 10.39-14.94 46.64 46.64 0 0 0 3.92-19.31zM1044.94 91.24l-47.07 69.54a68.76 68.76 0 0 1-12.46 13.59q-7.39 6.23-19.38 9 13.38 1.85 21 8.55a54.88 54.88 0 0 1 12.7 16.87l52.14 97h-70.6l-40.61-74.75q-3.71-6.93-6.93-12a29.35 29.35 0 0 0-8.3-8.54 35.56 35.56 0 0 0-12.43-5.04 93.73 93.73 0 0 0-19.38-1.62h-60.49v102h-62.76V5.87h62.76v147.67h74.75q15.24 0 24-6.41T949 128.35l24.92-37.11zM1095.5 53.44a27.56 27.56 0 0 1-13.64-3.33 24.19 24.19 0 0 1-9.34-9.19 26.6 26.6 0 0 1-3.37-13.52 26.54 26.54 0 0 1 3.37-13.56 24.23 24.23 0 0 1 9.34-9.15 29.66 29.66 0 0 1 27.31 0 24.26 24.26 0 0 1 9.3 9.15 26.54 26.54 0 0 1 3.37 13.56 26.6 26.6 0 0 1-3.37 13.52 24.22 24.22 0 0 1-9.3 9.19 27.49 27.49 0 0 1-13.67 3.33zm0-6.43a20.59 20.59 0 0 0 10.3-2.49 17.86 17.86 0 0 0 6.89-6.93 20.48 20.48 0 0 0 2.49-10.19 20.51 20.51 0 0 0-2.49-10.19 17.86 17.86 0 0 0-6.89-6.93 22.49 22.49 0 0 0-20.57 0 17.76 17.76 0 0 0-6.93 6.93 20.51 20.51 0 0 0-2.49 10.19 20.48 20.48 0 0 0 2.49 10.19 17.76 17.76 0 0 0 6.93 6.93A20.66 20.66 0 0 0 1095.5 47zm-11.34-5.9V13.23h13.48a11 11 0 0 1 5.13 1.15 9.14 9.14 0 0 1 3.56 3.22 8.46 8.46 0 0 1 1.35 4.74 8.21 8.21 0 0 1-3 6.78 12.3 12.3 0 0 1-8 2.42H1092v9.57zm7.84-14.86h3.83a4.83 4.83 0 0 0 2.91-.77 2.86 2.86 0 0 0 1.08-2.52 2.88 2.88 0 0 0-1.08-2.57 5.13 5.13 0 0 0-2.91-.73H1092zm7 14.86l-5.74-11 6.66-1.76 8.35 12.79z"/></svg>