<svg height="642" viewBox="37 44.3 830 155.6" width="2500" xmlns="http://www.w3.org/2000/svg"><path d="m157.1 47c-13.6 3.6-25 10.1-35 20.1-12.8 12.8-20.3 28.6-22 46.3l-.7 7.6h27.6v-3.9c0-5.8 3.5-16 7.8-22.7 20.7-32.1 68.3-29.2 85.3 5.1 3.1 6.3 4.2 9.9 4.6 14.9l.6 6.6h27.8l-.7-6.3c-3.6-33.4-25.9-59.5-57.8-67.7-10.6-2.7-27.1-2.7-37.5 0zm375.1 17c-8.4 5.3-7.9 18 1 22.6 6.4 3.4 17.2 1.3 19.9-3.7 3.5-6.7 2.8-12.7-2.1-17.4-2.6-2.5-4-3-9.3-3.3-5-.2-6.9.1-9.5 1.8zm190.2 1c-14 2.9-21.8 11.4-23.1 25.4l-.6 6.6h-8.7v21h9v60h25v-60h13v-21h-13v-2.9c0-4.4 3.7-8.1 8.8-8.8l4.3-.6-.3-10.1-.3-10.1-5-.2c-2.7-.1-6.8.3-9.1.7zm-153.4 59v54h25l-.2-53.8-.3-53.7-12.2-.3-12.3-.3zm273 0v54h25l-.2-53.8-.3-53.7-12.2-.3-12.3-.3zm-530.6-47.9c-9.7 2.3-20.1 11.4-22.4 19.7-1.3 4.9-1.3 13.5.2 18.3 1.4 5 6.8 11.2 12.3 14.4 2.3 1.4 9.4 4.3 15.7 6.4 17.4 5.8 20.8 8.2 20.8 14.4 0 7.9-8.6 12-17.5 8.3-3.3-1.4-6.5-5.9-6.5-9.1 0-1.3-1.9-1.5-13-1.5h-13v3.7c0 9.9 9.9 21.4 21.8 25.5 9.4 3.2 26.1 3.2 34.3 0 12.1-4.8 19.1-14.3 19.7-26.9.5-8.8-.8-12.8-5.9-18.7-4.5-5.1-11.1-8.5-25.8-13.6-5.1-1.7-10.9-4.1-12.7-5.3-8.7-5.7-6-16.7 4.1-16.7 6.2 0 10.1 2.2 11.6 6.5l1.3 3.5h26.9l-.7-4.1c-.9-5.5-4.7-12.7-8.8-16.6-1.8-1.8-6-4.4-9.3-5.9-5.3-2.5-7.4-2.8-17.5-3-6.3-.2-13.3.1-15.6.7zm103.8 21.7c-2.9 1.1-7 3.3-9.2 5.1l-4 3.2v-9.1h-25v81h25v-24c0-26 .4-28.3 5.5-33 2.3-2.2 3.6-2.5 10-2.5s7.7.3 10 2.5c5.1 4.7 5.5 7 5.5 33v24h25v-24.6c0-27.3.5-29.9 6.4-33.5 4.2-2.6 13-2.5 17.3.1 6.3 3.8 6.7 5.8 7.1 33.2l.4 24.8h23.9l-.3-29.3-.3-29.3-3.3-6.7c-4.1-8.2-9.7-12.8-18.9-15.3-11.9-3.2-23.1-.4-32.2 8.1l-5 4.7-3.6-4.1c-8-8.8-22.8-12.4-34.3-8.3zm217.3-.5c-11.6 3.9-19 10.2-23.8 20.5-3.1 6.5-3.2 7.2-3.2 19.7 0 12.7.1 13.2 3.3 19.7 6.4 13 18.1 20.6 33.4 21.6 18.9 1.2 34.8-8.2 40.3-23.8l1.4-4h-26l-2.5 3c-4.8 5.7-14.4 6.4-20.3 1.5-3-2.6-6.6-9.9-5.6-11.6.4-.5 12.1-.9 28-.9h27.5l.6-2.6c1.1-4.2-1.1-16.6-4.1-23.3-3.5-7.8-11.2-15.1-19.3-18.2-7.1-2.8-23.5-3.6-29.7-1.6zm20 20.1c3.5 1.5 7.5 6.7 7.5 9.8 0 1.6-1.4 1.8-15 1.8-14.2 0-15-.1-15-2 0-2.3 5.5-8.8 8.4-10 3.3-1.4 10.4-1.1 14.1.4zm-124-19.1c-.3.6-.4 18.8-.3 40.2l.3 39 12.3.3 12.2.3v-81.1h-12c-8.7 0-12.2.3-12.5 1.3zm217.7 28.4.3 29.8 2.9 5.8c5.6 11 14.1 16.1 27.1 16.1 9.2.1 15.7-2.3 21.3-7.6l3.2-3.2v10.4h25v-81h-25v25.4c0 24.6-.1 25.4-2.3 28.7-5.6 8.4-17.4 9.2-24.4 1.7-3.5-3.7-4.2-9.8-4.3-33.6v-22.2h-24.1zm-709.2-1.5c.1 16 9.7 37.4 22.5 50.3 13.6 13.6 30.3 21 50 22.2 37.6 2.2 71.3-23.8 78.9-60.9.9-4.2 1.6-9.5 1.6-11.8v-4h-26.5l-1.3 7.7c-2.8 18.1-15.3 33.1-32.8 39.4-8.3 3.1-23.5 3.1-31.8 0-17.6-6.3-29.9-21.3-32.8-39.5l-1.2-7.6h-26.6z"/></svg>