<svg height="1406" width="2500" xmlns="http://www.w3.org/2000/svg" viewBox="-0.745 5.56 460.745 254.05399999999997"><path d="M99.688 12.313l2.104.431C111.81 14.816 121.364 17.554 131 21l2.604.926c15.135 5.5 29.058 12.635 43.041 20.59 1.68.955 3.362 1.904 5.044 2.853 6.157 3.549 11.765 7.346 17.213 11.913a55.434 55.434 0 0 0 5.723 4.093L207 63v2l6-3-1 8 1.795.794c2.325 1.272 3.705 2.555 5.482 4.507l1.807 1.963 1.854 2.049c1.804 1.973 3.611 3.944 5.427 5.907 1.41 1.534 2.79 3.094 4.166 4.659 4.982 4.28 12.14 4.282 18.469 5.121l3.371.463c3.728.5 7.458.962 11.192 1.412l3.676.475c6.72.75 10.793.824 16.761-2.35 8.762-1.259 16.282 1.029 24 5 .4-.52.802-1.039 1.215-1.574C316.535 91.899 322.456 87.15 331 86c3.126-.137 6.246-.14 9.375-.125l2.5-.012c13.009.02 13.009.02 16.125 3.137.363 2.655.363 2.655.527 6.004l.213 3.685c.13 2.555.258 5.11.383 7.665.368 6.31.87 11.937 3.221 17.837 1.831 5.053.764 10.047-1.266 14.836-4.839 8.854-14.755 13.814-24.152 16.584-7.518 1.886-14.258 2.613-21.926 1.389v3c-4.062.98-8.125 1.96-12.188 2.938l-3.486.841-3.369.81-3.094.747c-19.392 4.5-40.12 1.911-58.863-4.336v-6h-2v-2l-2.563 1.5c-11.929 5.006-26.572.547-38.187-3.445-2.188-.93-2.188-.93-5.25-3.055-1.302-4.882-1.118-9.86-1.063-14.875l.014-2.375c.012-1.917.03-3.833.049-5.75l-2.719.275c-3.362.339-6.724.674-10.086 1.007-1.45.144-2.898.29-4.347.436-2.095.212-4.19.42-6.286.626l-3.808.38c-3.909.287-7.835.276-11.754.276v19l3-1c14.635-1.313 27.198 1.936 39 11l3 2-1-4c8.412 1.997 16.637 4.382 24.875 7 8.02 2.516 15.91 4.87 24.195 6.332 3.747.854 7.332 2.319 10.93 3.668v32c-3.812-1.27-7.262-2.483-10.875-4.125l-2.367-1.07L236 198c-2.057 2.057-1.257 6.356-1.316 9.191l-.063 2.485c-.066 2.629-.125 5.258-.184 7.887l-.13 5.333c-.108 4.368-.209 8.736-.307 13.104-5.28-.514-10.395-1.189-15.566-2.41l-3.467-.81-3.53-.842-3.634-.854c-2.936-.69-5.87-1.385-8.803-2.084l-.375-3.438L198 222l-2-1c-.625-2.563-.625-2.563-1-5l-1.938 1.813c-6.997 4.998-14.6 6.18-23.062 5.187-13.074-2.762-22.83-8.676-30.313-19.813L137 199l-1 15c-12.014-.51-24.012-1.039-36-2v-8h-3v-32h-4v-8h-3v-19l-4.5.25c-6.974-.03-11.839-2.252-16.75-7.188-4.78-6.139-6.622-14.048-7.098-21.695-.43-6.9-.43-6.9-2.652-13.367-4.391-2.968-8.768-4.062-13.854-5.353-3.47-1.046-6.48-2.741-9.584-4.585l-1.751-1.038C19.079 83.078 6.498 70.531 2.097 53.44-.483 42.566-.745 33.46 4 23c6.878-9.447 18.67-12.442 29.687-14.25C35.79 8.48 37.894 8.23 40 8l2.766-.336c19.446-2.104 37.946.692 56.921 4.648zM26 30c-2.71 5.422-1.6 13.996.063 19.688C29.5 58.425 35.145 64.98 43 70l1-2a90.488 90.488 0 0 0-4-4h-2l-.813-2.563c-1.12-3.459-1.12-3.459-2.75-6.687C31.47 47.842 31.242 40.9 34 33.906c2.27-4.325 5.668-5.91 10.063-7.531 9.998-2.962 19.805-3.66 30.187-3.5l3.45.027c2.766.024 5.533.056 8.3.098l-1-2c-17.077-3.934-46.116-4.341-59 9zm61-8v1h5v-1h-5zM54 39c-1.095 3.104-1.26 4.441.145 7.457l1.667 2.355 1.645 2.395L59 53h2l-.188-3.063C61.026 45.471 61.71 42.843 64 39c5.385-2.893 10.402-3.657 16.438-4.188l2.505-.248c2.018-.198 4.038-.382 6.057-.564v-1c-18.682-1.262-18.682-1.262-35 6zm32 5c2.865 1.597 5.182 2.313 8.438 2.64l2.672.298 2.89.312c10.752 1.26 21.22 3.363 31.77 5.769l3.425.774 3.032.704c2.662.483 5.075.598 7.773.503-16.095-10.73-41.31-11.554-60-11zm60 11l2 2c2.108-.319 2.108-.319 4-1l-6-1zm53 21c2.516 2.606 5.051 4.894 8 7l-1.793-.621a336.616 336.616 0 0 0-4.89-1.625c-1.7-.553-3.387-1.143-5.067-1.754-2.5-.2-2.5-.2-5.125 1.813-3.024 4.536-2.14 8.012-1.125 13.187 1.973-.969 3.908-1.945 5.797-3.07 7.421-4.008 15.022-3.291 23.203-2.93-3.148-3.442-6.658-5.86-10.625-8.25l-1.773-1.102c-3.077-2.012-3.077-2.012-6.602-2.648z" fill="#f4f3f2"/><path d="M424.125 136.75l3.727-.063 3.718-.015 3.305-.028c6.135.277 12.163 1.984 18.125 3.356l-.002 2.16c-.003 6.765.024 13.53.082 20.296.03 3.477.047 6.954.04 10.431-.008 4.012.033 8.023.075 12.035l-.027 3.723c.145 8.741 2.327 14.883 6.832 22.355-1.054-.01-2.108-.02-3.194-.032-3.934-.036-7.868-.059-11.802-.078-1.699-.01-3.397-.023-5.095-.04-2.45-.025-4.9-.037-7.35-.045l-2.277-.032c-4.765 0-8.703.762-13.282 2.227-6.542.726-12.297.543-18.184-2.54-2.693-2.165-4.66-4.76-6.816-7.46-.594.857-1.189 1.714-1.8 2.598-8.011 11.19-17.418 18.536-31.2 21.402-8.233.68-15.86.522-23-4-3.576-3.304-6.308-6.962-9-11l-1.469 3.516C318.403 232.26 309.964 248.563 293 257c-7.841 2.614-17.232 1.486-25-1l-.375-3.438L267 249l-2-1v-22c7 1 7 1 10.75 2.125 3.227 1.19 3.227 1.19 6.25-.125 1.078-3.934.928-6.1-.63-9.85l-1.154-2.831-1.275-3.018-1.282-3.126a1845.92 1845.92 0 0 0-4.097-9.863 5064.836 5064.836 0 0 1-4.085-9.894c-.847-2.054-1.698-4.105-2.554-6.154l-1.163-2.802-1.032-2.47C264 176 264 176 264 174c3.833-.339 7.666-.67 11.5-1l3.266-.29c5.77-.492 11.443-.822 17.234-.71v2l6-1v-3c3.746-1.344 7.498-2.673 11.25-4l3.223-1.156 3.105-1.094 2.857-1.016C325 162 325 162 329 162l1 2 6-1 1-3c8.277-7.078 18.23-12.4 29.29-12.29 7.209.77 13.928 2.953 19.71 7.29l1-14c2.333-.483 4.666-.961 7-1.438l1.965-.408c9.44-1.916 18.534-2.364 28.16-2.404z" fill="#da2921"/><path d="M202 71c8.801 3.114 16.102 9.868 23 16l-2 3 6 2c.335 4.458.667 8.917 1 13.375.095 1.271.19 2.542.29 3.852l.273 3.671.253 3.396c.107 1.567.184 3.136.184 4.706l2 4v-25c4 0 4 0 7 2v2l2-1c-.818-3.2-.818-3.2-3.563-5.563L236 95v-2c.556.08 1.113.16 1.686.244 6.765.97 13.536 1.883 20.314 2.756l2.99.387c2.814.352 5.63.675 8.447.988l2.595.33c5.705.593 8.828-.225 13.968-2.705 8.762-1.259 16.282 1.029 24 5 .4-.52.802-1.039 1.215-1.574C316.535 91.899 322.456 87.15 331 86c3.126-.137 6.246-.14 9.375-.125l2.5-.012c13.009.02 13.009.02 16.125 3.137.363 2.655.363 2.655.527 6.004l.213 3.685c.13 2.555.258 5.11.383 7.665.368 6.31.87 11.937 3.221 17.837 1.831 5.053.764 10.047-1.266 14.836-4.839 8.854-14.755 13.814-24.152 16.584-7.518 1.886-14.258 2.613-21.926 1.389v3c-4.062.98-8.125 1.96-12.188 2.938l-3.486.841-3.369.81-3.094.747c-19.392 4.5-40.12 1.911-58.863-4.336v-6h-2v-2l-2.563 1.5c-11.929 5.006-26.572.547-38.187-3.445-2.188-.93-2.188-.93-5.25-3.055-1.302-4.882-1.118-9.86-1.063-14.875l.014-2.375c.012-1.917.03-3.833.049-5.75l-2.719.275c-3.362.339-6.724.674-10.086 1.007-1.45.144-2.898.29-4.347.436-2.095.212-4.19.42-6.286.626l-3.808.38c-3.945.29-7.8.322-11.754.276 2.83-1.574 5.097-2.306 8.316-2.598l2.54-.238 2.706-.227 2.786-.249c9.205-.795 18.423-1.287 27.652-1.688-.308-3.396-.622-6.792-.938-10.188l-.263-2.908-.264-2.822-.238-2.587c-.302-2.535-.788-4.994-1.297-7.495-.117-2.677-.045-5.318 0-8h1v5l3.125-2.375c5.515-4.192 10.974-4.92 17.75-4.75L217 87l-13-8c3-1 3-1 5-1l-8-5z" fill="#f9f6f6"/><path d="M99.688 12.313l2.104.431C111.81 14.816 121.364 17.554 131 21l2.604.926c15.135 5.5 29.058 12.635 43.041 20.59 1.68.955 3.362 1.904 5.044 2.853 6.157 3.549 11.765 7.346 17.213 11.913a55.434 55.434 0 0 0 5.723 4.093L207 63v2l6-3-1 8 1.786.787c2.367 1.297 3.806 2.643 5.632 4.62l1.861 2.003 1.909 2.09c.64.69 1.282 1.38 1.943 2.09 4.722 5.116 4.722 5.116 5.869 7.41-3.847-1.625-6.715-4.212-9.812-6.938C209.272 71.81 196.49 63.046 183 55l-2.785-1.676C171.553 48.358 162.235 44.744 153 41l-3.516-1.445c-13.877-5.544-28.272-9.088-42.804-12.442a159.814 159.814 0 0 1-8.516-2.226c-2.64-.74-4.948-1.184-7.664-1.387-2.704-.202-4.794-.603-7.375-1.508-6.015-1.776-12.412-1.375-18.625-1.367h-2.033c-12.73.04-25.537.39-35.467 9.375-2.738 5.476-1.578 14.082.125 19.813 1.545 4.045 3.915 7.243 6.668 10.558C35 62 35 62 35 64l1.75.813C39.033 66.016 40.974 67.407 43 69l-1-1c-6.641-7.01-10.28-15.19-11.152-24.809.173-2.494.898-4.05 2.152-6.191l.297 2.563C34.715 50.316 37.53 58.773 46 66c1.812.834 3.625 1.667 5.442 2.491C54.904 70.186 57.754 71.793 60 75c1.563 5.95 1.06 12.162.953 18.262-.088 6.64.877 12.719 2.36 19.175l.611 2.774C67.001 128.48 67.001 128.48 76 138c6.389 2.768 14.57.828 21-1l2-1c-.5 2.375-.5 2.375-2 5-6.986 2.667-15.738 3.503-22.875.875-7.127-4.276-8.949-9.309-11.273-17.02-.655-2.962-1.018-5.499-1.204-8.492-.426-6.897-.426-6.897-2.648-13.363-4.391-2.968-8.768-4.062-13.854-5.353-3.47-1.046-6.48-2.741-9.583-4.585l-1.752-1.038C19.079 83.078 6.498 70.531 2.097 53.44-.483 42.566-.745 33.46 4 23c6.878-9.447 18.67-12.442 29.688-14.25C35.789 8.48 37.894 8.23 40 8l2.766-.336c19.446-2.104 37.946.692 56.922 4.648z" fill="#eeefef"/><path d="M340.375 85.875l2.5-.012c13.009.02 13.009.02 16.125 3.137.363 2.655.363 2.655.527 6.004l.213 3.685c.13 2.555.258 5.11.383 7.665.368 6.31.87 11.937 3.221 17.837 1.831 5.053.764 10.047-1.266 14.836-4.839 8.854-14.755 13.814-24.152 16.584-7.518 1.886-14.258 2.613-21.926 1.389v3c-4.062.98-8.125 1.96-12.188 2.938l-3.486.841-3.369.81-3.094.747c-19.392 4.5-40.12 1.911-58.863-4.336v-6c4.195.466 8.226 1.039 12.332 2.012 6.292 1.267 12.536 1.396 18.94 1.414 2 .011 3.998.06 5.996.111 11.698.14 22.489-2.48 33.732-5.537.102-6.584.172-13.167.22-19.751.02-2.239.047-4.477.082-6.716.048-3.222.071-6.443.089-9.666l.062-3.021c.002-5.813-.48-9.278-4.453-13.846-2.61-2.323-2.61-2.323-5-4 5.196.44 8.663.883 13 4 .4-.52.802-1.039 1.215-1.574 8.25-10.121 16.52-12.61 29.16-12.551z" fill="#f6f1f1"/><path d="M156 41l2.177.846C174.027 48.104 189.412 56.73 203 67c1.264.926 2.528 1.85 3.793 2.773 7.02 5.159 13.784 10.368 20.094 16.387 2.093 1.93 2.093 1.93 4.707 3.395 3.368 2.023 5.066 4.303 7.406 7.445v2h5l-3 1 2 4h-3l-2-3h-3l-2-1 .496 2.32c.667 4.87.61 9.647.566 14.555l-.013 2.953c-.012 2.39-.028 4.781-.049 7.172-2.267-2.906-3.744-5.523-5-9l1-1a122.06 122.06 0 0 0-.438-5.813c-.553-6.415-.666-12.752-.562-19.187l-9-2 4-3c-6.431-5.41-12.884-10.52-20-15l-2 1 8 5-1 2-9-3 8 6c-3.708 1.236-4.675.568-8.188-.938l-2.73-1.152L195 80l2-2c-16.557-8.193-16.557-8.193-33.672-15.098C161 62 161 62 158 60c-20.488-10.302-45.128-15.899-68-15v1l-3.543.113c-1.548.066-3.096.132-4.644.2l-2.33.068c-5.886.278-9.306 1.566-13.67 5.681C60.548 60.593 61.43 72.257 61 82h-1v-7l-2.168-.781C47.658 69.84 38.606 61.317 34 51.188 32.3 45.74 32.09 39.599 33 34c4.36-6.63 10.548-8.81 17.938-10.75C86.04 16.535 123.532 28.287 156 41zM54 39c-1.095 3.104-1.26 4.441.145 7.457l1.667 2.355 1.645 2.395L59 53h2l-.188-3.063C61.026 45.471 61.71 42.843 64 39c5.385-2.893 10.402-3.657 16.438-4.188l2.505-.248c2.018-.198 4.038-.382 6.057-.564v-1c-18.682-1.262-18.682-1.262-35 6z" fill="#b3b4b6"/><path d="M75 52c34.777-.619 68.331 9.097 101 20-1.62 3.667-3.894 6.552-6.375 9.688-4.69 5.986-9.097 12.146-13.425 18.399-8.81 12.656-8.81 12.656-13.2 14.913-12.662.765-24.058-5.494-33.445-13.612C99.613 92.514 91.285 83.15 84 72l-1.41-2.107a577.416 577.416 0 0 1-4.278-6.518l-1.354-2.046c-3.048-4.823-3.048-4.823-2.567-7.541L75 52z" fill="#f5f5f5"/><path d="M424.563 136.813l3.904-.038c6.205-.01 11.7.006 17.533 2.225l-3 1c.042 7.384.114 14.767.208 22.15.028 2.509.049 5.018.063 7.527.022 3.617.068 7.233.12 10.85l.003 3.373c.128 6.891 1.236 12.058 4.606 18.1l-2.611-.048c-3.237-.051-6.474-.089-9.712-.117a519.521 519.521 0 0 1-4.18-.061c-10.558-.218-10.558-.218-20.666 2.54-4.389 1.645-8.565 1.116-12.956-.376-4.518-3.046-8.135-6.719-9.875-11.938a210.08 210.08 0 0 1-.281-7.66l-.056-2.26c-.079-3.189-.147-6.378-.215-9.568-.052-2.328-.11-4.656-.167-6.985l-.04-2.194c-.038-3.793-.038-3.793-1.241-7.333.09-2.558.233-5.076.438-7.625l.158-2.14c.13-1.746.266-3.49.404-5.235 2.333-.483 4.666-.961 7-1.438l1.965-.408c9.598-1.948 18.809-2.337 28.598-2.341z" fill="#db2b23"/><path d="M115.408 48.448c3.122.665 6.255 1.268 9.389 1.876 11.854 2.353 23.185 4.734 34.206 9.793 2.394 1.059 4.82 2.02 7.255 2.98C177.235 67.439 187.748 72.14 198 78v1l-2.813.813C192.091 80.966 190.91 81.418 189 84c-1.125 8.084.375 16.386 1.555 24.387.603 4.891.63 9.694.445 14.613-2.775 1.388-5.238 1.309-8.336 1.5l-3.918.25-4.121.25c-9.218.573-18.425 1.186-27.625 2l.095 1.956c.125 2.931.203 5.861.28 8.794l.152 3.078c.056 2.84.039 5.387-.527 8.172-2.844 2.531-2.844 2.531-6 4a139.281 139.281 0 0 0-5 5v-9h1v-26c15.498-4.428 31.007-4.276 47-4-.833-5.5-1.67-10.999-2.509-16.498-.285-1.87-.569-3.742-.852-5.613-.407-2.689-.818-5.377-1.229-8.065l-.382-2.538c-.492-3.2-1.002-6.209-2.028-9.286a288.691 288.691 0 0 0-13.063 17.063C149.092 115.03 149.092 115.03 141 119c-14.302 1.348-29.69-7.964-40.281-16.621-11.24-9.642-19.865-21.716-27.317-34.438C72.07 65.7 72.07 65.7 69 65c-.075 4.976-.13 9.952-.165 14.93-.015 1.684-.035 3.37-.061 5.055-.226 14.832-.017 32.527 7.788 45.64 6.274 3.539 13.906 1.177 20.438-.625h4c-1.75 5.75-1.75 5.75-4 8-6.846 2.3-13.742 2.994-20.688.875C68.645 134.535 66.29 128.165 64 120c-3.301-12.775-4.615-24.843-4-38l.083-2.272c.868-23.401.868-23.401 8.163-31.232 9.564-8.158 35.403-2.593 47.162-.048zM75 52c-.763 1.759-.763 1.759-1 4 1.005 2.401 1.005 2.401 2.648 4.816l1.784 2.8 1.943 2.947 1.965 3.019C86.85 76.438 91.412 82.97 97 89l1.415 1.555c10.679 11.636 24.436 23.774 40.96 25.008 4.66-.724 5.658-1.928 8.625-5.563l1.695-1.773c5.054-5.34 9.127-11.18 13.215-17.262a163.782 163.782 0 0 1 10.63-14.047c1.652-1.956 1.652-1.956 2.46-4.918-17.506-5.887-34.93-11.097-53-15l-2.31-.507C105.769 53.268 90.277 51.441 75 52z" fill="#505050"/><path d="M191 155c8.412 1.997 16.637 4.382 24.875 7 8.02 2.516 15.91 4.87 24.195 6.332 3.747.854 7.332 2.319 10.93 3.668v32c-3.812-1.27-7.262-2.483-10.875-4.125l-2.367-1.07L236 198c-2.057 2.057-1.257 6.356-1.316 9.191l-.063 2.485c-.066 2.629-.125 5.258-.183 7.887l-.131 5.333c-.108 4.368-.209 8.736-.307 13.104-5.28-.514-10.395-1.189-15.566-2.41l-3.467-.81-3.53-.842-3.634-.854c-2.936-.69-5.87-1.385-8.803-2.084l-.375-3.438L198 222l-2-1 .02-1.89c.067-6.504.112-13.01.145-19.515.015-2.426.035-4.852.061-7.277.037-3.493.054-6.985.067-10.478.015-1.08.03-2.159.047-3.271.001-6.023-.523-10.227-3.34-15.569-2-5.968-2-5.968-2-8z" fill="#f6f2f1"/><path d="M237 100l3 2v2l2-1-1-3c3.379-.285 6.633-.46 10 0 2.125 2.5 2.125 2.5 3 5l2.375-1.5c4.671-1.933 8.632-2.268 13.625-1.5 2.401 1.096 3.958 2.28 6 4 2.579-1.238 4.893-2.573 7.313-4.125 3.666-2.096 6.441-2.425 10.687-1.875 3.185 1.52 5.736 3.283 8 6 .91 2.731 1.122 4.299 1.114 7.104v2.487l-.016 2.67-.005 2.746a3528.42 3528.42 0 0 1-.03 8.68c-.006 1.962-.01 3.924-.014 5.885-.011 4.81-.028 9.619-.049 14.428-1.894.507-3.79 1.006-5.688 1.5l-3.199.844C291 153 291 153 286 153l-1-38-4-1c-2.13 2.13-1.26 6.892-1.316 9.848l-.063 2.686c-.066 2.843-.125 5.686-.183 8.528l-.131 5.768c-.108 4.723-.209 9.447-.307 14.17h-16l-.06-3.44c-.076-4.21-.165-8.42-.257-12.63a1433.39 1433.39 0 0 1-.105-5.468c-.046-2.62-.104-5.238-.164-7.857l-.035-2.471c-.101-3.868-.187-5.846-2.379-9.134l-4 1-1 39c-5.696-.814-11.358-1.872-17-3l-1-51z" fill="#da2a22"/><path d="M168.875 152.688A87.981 87.981 0 0 1 173 155l1.895 1.063c8.27 5.19 12.97 14.644 15.105 23.937.9 8.22.834 16.01-4 23-3.634 4.042-7.724 6.613-13.148 7.254-9.424.46-17.805-2.673-25.07-8.629-6.953-6.342-10.368-11.952-11.063-21.477-.29-8.66.277-15.427 5.031-22.898 7.488-7.488 17.314-8.678 27.125-4.563z" fill="#da2820"/><path d="M443 140h10l-.002 2.16c-.003 6.765.024 13.53.082 20.296.03 3.477.047 6.954.04 10.431-.008 4.012.033 8.023.075 12.035l-.027 3.723c.145 8.741 2.327 14.883 6.832 22.355-1.054-.01-2.108-.02-3.194-.032-3.934-.036-7.868-.059-11.802-.078-1.699-.01-3.397-.023-5.095-.04-2.45-.025-4.9-.037-7.35-.045l-2.277-.032c-4.765 0-8.703.762-13.282 2.227-6.542.726-12.297.543-18.184-2.54-2.693-2.165-4.66-4.76-6.816-7.46-.594.857-1.189 1.714-1.8 2.598-8.011 11.19-17.418 18.536-31.2 21.402-8.262.683-15.804.46-23-4-2.383-2.101-4.42-4.232-6-7v-3l1.5.812c9.501 4.514 16.852 5.53 27.016 2.168 11.642-4.594 18.962-11.426 24.309-22.722 2.347-5.536 2.716-10.662 2.675-16.633l-.013-2.813c-.215-8.652-2.278-14.64-8.3-20.937L375 151c4.398.259 6.495.561 9.875 3.5L387 157l1 1c.123 2.449.186 4.874.21 7.324l.087 4.557c.041 2.398.078 4.796.104 7.195.028 2.312.074 4.624.122 6.936l.01 2.15c.13 5.338 1.326 9.49 4.967 13.483 5.105 3.974 9.1 4.998 15.5 4.355a145.46 145.46 0 0 0 4.895-1.504c6.785-1.912 13.29-1.83 20.292-1.684l3.752.042c3.021.035 6.04.084 9.061.146l-1.976-3.227c-2.789-5.61-2.528-10.996-2.415-17.148l.018-3.53c.022-3.7.072-7.397.123-11.095.02-2.517.038-5.034.055-7.55.044-6.15.113-12.3.195-18.45z" fill="#37322f"/><path d="M322 170c-.553 8.025-2.574 15.356-5 23l-.727 2.329C310.489 213.619 303.004 231.316 287 243c-3.69 1.863-6.635 2.249-10.75 2.188l-2.922-.02C271 245 271 245 270 244a110.238 110.238 0 0 1-.063-5.563l.028-3.066L270 233l1.785.484c4.31 1.004 7.96 1.074 12.027-.734 2.338-1.87 3.08-3.015 4.188-5.75-.017-8.531-3.521-15.757-6.875-23.438-3.487-8.067-6.882-16.04-9.125-24.562 4.053-1.108 8.071-1.337 12.25-1.563l2.258-.13c1.83-.106 3.661-.207 5.492-.307 2.477 5.91 4.64 11.801 6.387 17.969.563 2.071.563 2.071 1.613 4.031 1.737-3.97 3.004-7.71 3.691-11.988l.349-2.15c.221-1.435.423-2.873.606-4.313.547-3.536.908-5.197 3.768-7.455 4.643-1.964 8.488-3.394 13.586-3.094z" fill="#da2921"/><path d="M122.5 124.813l3.406.019C129 125 129 125 133 126v12l-7.617-.977L123 137c-2.325 1.884-2.325 1.884-2.188 5-.013 2.924-.013 2.924 1.188 5 2.126.467 2.126.467 4.563.625L131 148v9h-9v43c-9 0-9 0-20-1v-41h-7v-9l7-1-.14-1.977c-.246-5.942.04-9.384 4.14-14.023 5.292-5.08 9.113-7.28 16.5-7.188z" fill="#da2821"/><path d="M329 162v4h-2l-.144 1.856a108.118 108.118 0 0 1-2.981 17.582l-.66 2.594c-5.6 21.231-14.412 47.3-34.3 59.218-8.37 4.228-15.071 3.277-23.915.75v-22c7 1 7 1 10.75 2.125 3.227 1.19 3.227 1.19 6.25-.125 1.078-3.934.928-6.1-.63-9.85l-1.154-2.831-1.275-3.018-1.282-3.126a1845.92 1845.92 0 0 0-4.097-9.863 5064.836 5064.836 0 0 1-4.085-9.894c-.847-2.054-1.698-4.105-2.554-6.154l-1.163-2.802-1.032-2.47C264 176 264 176 264 174c3.833-.339 7.666-.67 11.5-1l3.266-.29c5.77-.492 11.443-.822 17.234-.71v2l6-1v-3c3.746-1.344 7.498-2.673 11.25-4l3.223-1.156 3.105-1.094 2.857-1.016C325 162 325 162 329 162zm-17.25 9.938l-2.64 1.09c-2.05.797-2.05.797-3.11 1.972a311.38 311.38 0 0 0-1.375 7.563c-1.022 5.772-2.264 11.04-4.625 16.437-3.206-6.733-5.04-13.827-7-21-3.608-1.185-6.742-.944-10.5-.625l-3.406.273c-2.482.282-4.693.717-7.094 1.352 1.573 6.095 3.702 11.876 6.172 17.66l.873 2.06a795.625 795.625 0 0 0 3.641 8.478c6.575 15.06 6.575 15.06 4.314 22.802-1.984 2.399-2.958 2.986-6 4-3.892.142-7.256.037-11-1a920.276 920.276 0 0 0-.063 5.438l-.035 3.058c-.188 2.444-.188 2.444 1.098 3.504 8.657.928 14.428-.34 21.176-5.742C306.974 225.712 314.162 204.926 319 186c.3-1.12.598-2.24.906-3.395C321.048 178.235 322 174.54 322 170c-3.919-.219-6.643.42-10.25 1.938z" fill="#fbf6f6"/><path d="M351 88h7c1.788 1.788 1.3 4.482 1.43 6.906l.222 3.696c.147 2.567.288 5.135.422 7.703.391 6.318.92 11.979 3.273 17.888 1.827 5.053.761 10.045-1.269 14.834-4.839 8.854-14.755 13.814-24.152 16.584-7.518 1.886-14.258 2.613-21.926 1.389v3c-4.062.98-8.125 1.96-12.188 2.938l-3.486.841-3.369.81-3.094.747c-19.392 4.5-40.12 1.911-58.863-4.336v-6c4.193.466 8.217 1.038 12.32 2.016 7.01 1.414 14.06 1.374 21.18 1.359l2.137.004c10.005-.002 19.402-.737 29.062-3.504 2.96-.784 5.267-1.06 8.301-.875v-5l3.156.176c13.785.528 28.191-1.5 38.844-11.176 3.202-3.706 4.84-7.345 5.313-12.25-.49-5.884-2.912-9.77-7.313-13.5l-3-2.25-2.375-1.813L341 107c4.306.615 5.984 1.59 10 4V88z" fill="#35302d"/><path d="M424.563 136.813l3.904-.038c6.205-.01 11.7.006 17.533 2.225l-3 1c.042 7.384.114 14.767.208 22.15.028 2.509.049 5.018.063 7.527.022 3.617.068 7.233.12 10.85l.003 3.373c.128 6.891 1.236 12.058 4.606 18.1l-2.611-.048c-3.237-.051-6.474-.089-9.712-.117a519.521 519.521 0 0 1-4.18-.061c-10.558-.218-10.558-.218-20.666 2.54-4.389 1.645-8.565 1.116-12.956-.376-4.518-3.046-8.135-6.719-9.875-11.938a210.08 210.08 0 0 1-.281-7.66l-.056-2.26c-.079-3.189-.147-6.378-.215-9.568-.052-2.328-.11-4.656-.167-6.985l-.04-2.194c-.038-3.793-.038-3.793-1.241-7.333.09-2.558.233-5.076.438-7.625l.158-2.14c.13-1.746.266-3.49.404-5.235 2.333-.483 4.666-.961 7-1.438l1.965-.408c9.598-1.948 18.809-2.337 28.598-2.341zM420 142c-.09 4.262-.09 4.262-.184 8.61a13338.6 13338.6 0 0 1-.188 8.26c-.044 1.913-.085 3.826-.125 5.738-.058 2.75-.122 5.501-.187 8.251l-.05 2.59-.06 2.425-.048 2.126c-.165 2.092-.594 3.983-1.158 6-2.438-.375-2.438-.375-5-1-1.69-3.38-1.244-7.223-1.316-10.945l-.063-2.682c-.066-2.833-.125-5.665-.184-8.498l-.13-5.754A7384.25 7384.25 0 0 1 411 143c-6.57-.248-12.57.676-19 2a2328.37 2328.37 0 0 0-.22 19.324c-.02 2.19-.047 4.38-.082 6.57a960.82 960.82 0 0 0-.089 9.458l-.062 2.955c-.002 5.908.554 9.176 4.453 13.693 3.435 2.863 6.335 3.467 10.805 3.297 4.81-.65 9.718-1.82 13.195-5.297l2 3h18l-1-56h-19z" fill="#fdfcfc"/><path d="M225 95v13c-2.317-1.159-4.62-2.35-6.875-3.625-3.333-1.466-5.53-1.632-9.125-1.375.199 3.808.92 4.924 3.73 7.613 1.146.909 2.299 1.808 3.458 2.7 12.069 9.823 12.069 9.823 13.3 16.226.219 4.23-.083 6.767-2.238 10.461-5.683 5.052-11.972 4.626-19.235 4.217-5.846-.63-11.761-2.59-17.015-5.217v-15l3.063 2.75c4.67 3.966 8.54 7.098 14.875 7.5L212 134c.377-2.313.377-2.313 0-5-1.897-2.36-1.897-2.36-4.5-4.438l-2.754-2.355a171.163 171.163 0 0 0-7.184-5.457c-4.305-3.175-6.178-5.717-7.187-11.063.887-5.232 3.706-8.222 7.625-11.687 7.99-5.034 18.68-1.35 27 1z" fill="#da2922"/><path d="M338.875 90.875l2.086.027c1.68.024 3.36.06 5.039.098.872 2.995 1.108 5.636 1.063 8.75l-.028 2.422L347 104l-1.793-.656c-5.951-2.214-5.951-2.214-12.207-2.344l-3 2c.256 1.945.256 1.945 1 4a77.977 77.977 0 0 0 7.313 3.938c5.748 2.729 9.722 5.133 12.687 11.062.384 3.997.279 6.43-1.5 10.063-6.649 7.812-14.5 11.3-24.5 12.937-2.103.066-4.208.086-6.313.063L313 145v-15l2.813 2c4.777 2.755 9.812 2.736 15.187 2l3-2c.159-2.385.159-2.385-1-5-2.608-1.76-5.47-2.878-8.375-4.063-9.714-4.047-9.714-4.047-11.625-7.937-1.083-4.801-.373-9.006 2.063-13.25 5.89-8.354 13.781-11.128 23.812-10.875z" fill="#da2921"/><path d="M200 164c4.433.633 8.13 1.182 12.313 2.438l2.55.746C217 168 217 168 219 170c.125 3.125.125 3.125 0 6l2.375-2c4.209-2.85 8.72-2.538 13.625-2l2 1v12l-4.688-.313c-4.013-.005-5.015.095-8.375 2.563-3.015 4.28-3.083 7.872-3.253 13.047l-.127 3.652-.12 3.801-.13 3.848A3932.01 3932.01 0 0 0 220 221c-6.616-.752-12.37-2.343-19-4l-1-53z" fill="#da2a22"/><path d="M335 164l-1.68 2.781c-5.666 9.52-8.419 16.176-8.57 27.406l-.03 2.092c.021 3.025.147 5.415 1.358 8.21 1.817 4.95.419 9.77-1.68 14.406-.66 1.313-1.335 2.619-2.023 3.917l-1.088 2.102C313.99 238.814 305.69 252.77 290 258c-7.613.416-14.714.332-22-2v-7c.871.07 1.743.14 2.64.21 10.455.476 17.828-1.423 25.825-8.343 17.3-17.921 24.954-45.04 29.155-68.952.371-1.99.866-3.957 1.38-5.915 3.228-2.152 4.284-2.2 8-2z" fill="#2f2b28"/><path d="M242 170l9 2v32c-3.812-1.27-7.262-2.483-10.875-4.125l-2.367-1.07L236 198c-2.057 2.057-1.257 6.356-1.316 9.191l-.063 2.485c-.066 2.629-.125 5.258-.183 7.887l-.131 5.333c-.108 4.368-.209 8.736-.307 13.104-5.28-.514-10.395-1.189-15.566-2.41l-3.467-.81-3.53-.842-3.634-.854c-2.936-.69-5.87-1.385-8.803-2.084v-8a175.953 175.953 0 0 1 18.902 4.078l2.08.561c1.673.452 3.346.906 5.018 1.361l-.048-3.058c-.054-3.75-.088-7.499-.117-11.249a722.49 722.49 0 0 0-.061-4.865 703.016 703.016 0 0 1-.067-7c-.015-.723-.03-1.446-.047-2.191-.001-4.174.371-6.61 3.34-9.637 5.775.49 7.758.855 13 4z" fill="#312d2a"/><path d="M376 150c5.466 4.625 9.272 11.44 10.4 18.503.17 2.617.206 5.188.162 7.81l-.03 2.791c-.355 11.41-4.465 20.748-12.532 28.896-9.22 7.549-20.006 12.14-32 11-4.547-1.16-8.44-2.885-12-6l-1 2c-5.674-11.834-7.509-24-3.066-36.684 1.652-3.588 3.686-6.893 5.859-10.187 1.454-2.156 1.454-2.156 1.207-5.129h3l1-3c10.643-9.101 25.213-15.983 39-10zm-39.652 19.035C329.432 179.118 327.89 189.03 329 201c1.404 5.389 4.304 8.99 9 12 8.55 2.85 17 .57 25-3 10.101-5.881 15.155-13.936 18.59-24.879 1.873-9.684.846-18.6-4.34-26.934-3.892-3.783-7.727-5.012-13.063-5.625-11.212.52-20.988 8.056-27.84 16.473z" fill="#f8f4f4"/><path d="M172 149c7.565.398 14.445 4.922 19.438 10.438 5.279 6.288 6.045 12.762 6.101 20.66l.038 2.886c.019 2.004.03 4.009.034 6.013.014 3.06.081 6.117.15 9.177.013 1.954.022 3.907.028 5.861l.081 2.756c-.066 6.208-.066 6.208-2.402 9.116-6.63 5.79-13.763 7.722-22.507 7.44-11.753-1.38-22.205-6.334-29.961-15.347-4.45-5.888-4.45-5.888-6-9l1-3 .996 1.54c5.192 7.513 12.801 13.746 22.004 15.46 12.678 1.208 12.678 1.208 24.195-3.309 6.33-5.931 8.123-11.159 8.402-19.764l.028-2.927.033-2.804C193.433 173.268 189.278 165 182 157c-2.514-2.296-2.514-2.296-5-4l-5-4z" fill="#312c29"/><path d="M118 33l2.598.648C138.638 38.28 156.485 45.42 173 54v2c-4.04-.65-7.435-1.948-11.188-3.563-19.107-7.897-40.766-15.09-61.55-16.261C98 36 98 36 95.695 35.484c-3.51-.63-6.957-.59-10.507-.547l-2.1.014c-1.696.012-3.392.03-5.088.049v-1c-11.367.394-11.367.394-22 4-2.247 2.721-2.247 2.721-1.875 5.313C55.223 46.684 56.879 49.172 59 52l2 1-.688-3.063C59.944 45.284 60.68 43.022 63 39c2.563-2 2.563-2 5-3l2 1-1.531.82C66.095 39.394 64.626 40.637 63 43c-.624 4.72-.409 9.266 0 14-3.833-1.544-5.983-3.925-8.688-7l-2.386-2.688c-2.189-2.628-2.85-3.74-3.301-7.124C49 37 49 37 51 34.312 68.47 20.848 98.63 28.085 118 33z" fill="#d6d6d6"/><path d="M164.363 56.127c1.887.942 3.763 1.905 5.637 2.873v2l2.177.334c3.034.716 5.265 1.804 7.983 3.318l2.904 1.604 2.999 1.681 5.91 3.278 2.633 1.472A156.392 156.392 0 0 0 201 76v2a374.925 374.925 0 0 0 6 4l1 2c-4.847-.591-8.607-1.98-13-4l2-2c-16.557-8.193-16.557-8.193-33.672-15.098C161 62 161 62 158 60c-20.488-10.302-45.128-15.899-68-15v1l-15-1c2.281-3.422 3.246-3.69 7-5l2.27-1.043c22.9-8.027 59.487 7.338 80.093 17.17z" fill="#ebebeb"/><path d="M127 163h7l-.49 1.743c-.834 3.69-.694 7.363-.697 11.132l-.038 2.395c-.008 3.504.06 6.258 1.229 9.59 1.522 4.797 1.205 9.517 1.121 14.515l-.027 3.098c-.024 2.509-.057 5.018-.098 7.527-11.718.109-23.322.1-35-1v-8c2.062-.028 4.125-.047 6.188-.063l3.48-.035c5.787.13 11.56.654 17.332 1.098v-42z" fill="#25201e"/><path d="M162.25 161.125c3.058.973 4.226 2.055 5.92 4.753 1.877 4.801 1.397 10.108 1.33 15.185.015 1.17.03 2.342.047 3.548l-.016 3.424-.013 3.106c-.64 3.535-2.108 5.253-4.518 7.859-2.25-.063-2.25-.063-5-1-4.78-6.184-4.606-12.019-4.5-19.625-.015-1.119-.03-2.238-.047-3.39.04-8.167.04-8.167 2.578-12.258C160 161 160 161 162.25 161.125z" fill="#f8f2f2"/><path d="M357 165.25c2 .75 2 .75 4 3.75.441 3.88.324 7.784.313 11.688l.048 3.224c.004 6.395-.497 11.327-3.361 17.088-3 2-3 2-5 1.875-2.647-1.158-3.49-2.422-5-4.875-.646-3.892-.51-7.81-.5-11.75l-.086-3.21c-.017-6.875.897-11.815 5.586-17.04 2-1 2-1 4-.75z" fill="#f8f4f4"/><path d="M233 137h1v15c-8.446 5.515-17.697 5.147-27.316 3.2-12.797-2.93-12.797-2.93-17.684-6.2-.875-3.188-.875-3.188-1-6 2.605.644 5.209 1.29 7.813 1.938l2.236.552c3.022.752 5.996 1.525 8.951 2.51 8.574.842 15.98.39 23-5 2.176-3.085 2.176-3.085 3-6z" fill="#342f2d"/><path d="M78.601 30.664c2.262.023 4.523.02 6.786.014C96.044 30.699 105.77 31.949 116 35c2 .483 4 .961 6 1.437 4.6 1.133 8.73 2.525 13 4.563v1c-4.773.22-8.879-.6-13.438-1.875-6.76-1.799-13.411-2.925-20.355-3.73C98 36 98 36 95.562 35.453c-3.46-.612-6.874-.559-10.375-.516l-2.1.014c-1.695.012-3.391.03-5.087.049v-1c-11.367.394-11.367.394-22 4-2.247 2.721-2.247 2.721-1.875 5.312C55.223 46.684 56.879 49.172 59 52l2 1-.688-3.063C59.943 45.283 60.68 43.021 63 39c2.562-2 2.562-2 5-3l2 1-1.531.82C66.095 39.394 64.626 40.637 63 43c-.624 4.72-.409 9.266 0 14-5.66-2.35-9.48-7.13-13-12-.875-3.875-.875-3.875 0-7 7.048-8.184 18.753-7.446 28.601-7.336z" fill="#f3f3f3"/><path d="M164.363 56.127c1.887.942 3.763 1.905 5.637 2.873-1.867.578-1.867.578-4 1-1.675-.985-3.34-1.99-5-3-2.333-.791-4.69-1.446-7.062-2.113-3.351-1.012-6.597-2.224-9.875-3.45-5.102-1.847-9.963-3.136-15.313-3.972C115.17 45.169 115.17 45.169 113 43a148.134 148.134 0 0 0-6.441-.316l-3.955-.127-4.166-.12-4.178-.13C90.84 42.2 87.42 42.098 84 42v3h6v1l-15-1c2.281-3.422 3.246-3.69 7-5l2.27-1.043c22.9-8.027 59.487 7.338 80.093 17.17z" fill="#d7d8d8"/><path d="M190 107a1152.32 1152.32 0 0 1 4.848 6.5c2.316 2.691 4.669 4.49 7.59 6.5 7.946 5.662 7.946 5.662 10.562 9 .375 2.75.375 2.75 0 5-1 1-1 1-4 1.438-6.176-.064-11.095-4.633-15.375-8.688L192 125l-3-2h2l-1-16z" fill="#efeaea"/><path d="M217 78l1.355 1.172c6.235 5.57 6.235 5.57 13.145 10.203 3.293 2.14 5.153 4.474 7.5 7.625v2h5l-3 1 2 4h-3l-2-3h-3l-2-1 .496 2.32c.667 4.87.61 9.647.566 14.555l-.013 2.953c-.012 2.39-.028 4.781-.049 7.172-2.267-2.906-3.744-5.523-5-9l1-1a122.06 122.06 0 0 0-.438-5.813c-.553-6.415-.666-12.752-.562-19.187l-9-2 4-3-1.531-1.207-1.969-1.606-1.969-1.582C217 81 217 81 217 78z" fill="#c3c5c1"/><path d="M134.685 29.629c9.648 3.99 19 8.666 28.315 13.371-4.055 1.352-5.357.165-9.188-1.625C146.08 37.867 138.137 35.388 130 33v-2c-9.052-2.91-18.15-5.392-27.378-7.665a2347 2347 0 0 1-6.442-1.599C88.123 19.72 88.123 19.72 80 18c13.073-7.638 42.16 6.733 54.685 11.629z" fill="#d7d7d7"/><path d="M138 128h8c1.313 18.788 1.313 18.788-1.71 23.883-2.029 1.69-3.943 2.925-6.29 4.117l-2 2v-9h1l1-21z" fill="#211c19"/><path d="M172 149c7.565.398 14.445 4.922 19.438 10.438 5.399 6.43 5.99 12.812 5.855 20.87l-.013 2.93c-.017 3.067-.054 6.133-.092 9.2-.016 2.087-.03 4.175-.042 6.263-.032 5.1-.084 10.2-.146 15.299h-1l-1-20h-1l-.078-3.586c-.43-13.621-2.494-23.05-11.922-33.414-2.514-2.296-2.514-2.296-5-4l-5-4z" fill="#474340"/><path d="M52.926 14.902l2.265.005c2.374.005 4.748.018 7.121.03A4867.587 4867.587 0 0 1 79 15l-1 2-2.073.044C51.021 17.306 51.021 17.306 28 26c-2.508 2.605-2.508 2.605-4 5h-2v12c-2.841-4.262-2.506-8-2-13 2.17-5.427 6.411-8.863 11.66-11.168 7.243-2.7 13.52-3.985 21.266-3.93z" fill="#d9d9d9"/><path d="M75 82c2.177 2.859 4.227 5.781 6.25 8.75A716 716 0 0 0 85 96l1.484 2.078c7.25 9.192 18.73 15.76 29.516 19.922v1c-11.207-.712-21.15-5.097-29.133-13.152C81.485 99.534 75 90.573 75 82z" fill="#dadbdc"/><path d="M61 105h1l.38 1.893c.586 2.872 1.196 5.74 1.807 8.607l.596 2.977c1.566 7.226 3.797 13.31 9.28 18.46 7.073 3.88 15.526 2.17 22.937.063l2-1c-.5 2.375-.5 2.375-2 5-6.986 2.667-15.738 3.503-22.875.875C65.871 136.922 64.249 129.965 62 121c-2.41-10.323-2.41-10.323-1-16z" fill="#ececec"/><path d="M55.957 17.867l3.87-.004 3.985.012c1.349-.004 2.697-.007 4.045-.012l3.85.004 3.515.004C78 18 78 18 80 19l-1 2-2.516-.063C50.08 19.31 50.08 19.31 27 30c-1.419 2.838-1.132 5.277-1.125 8.438l-.008 3.496C25.861 45.04 25.861 45.04 27 48c.04 2.333.044 4.667 0 7-2-1-2-1-2.633-2.828-3.316-16.32-3.316-16.32-.48-23.379 4.722-6.509 13.784-9.064 21.385-10.344 3.603-.434 7.058-.578 10.685-.582z" fill="#f8f8f8"/><path d="M84 42c4.02-.05 8.04-.086 12.06-.11 1.366-.01 2.732-.023 4.097-.04 1.971-.025 3.942-.035 5.913-.045l3.587-.032c3.447.234 6.127 1 9.343 2.227a123.533 123.533 0 0 0 18.652 4.57C140 49 140 49 143 50l1 2c2.35.958 4.662 1.818 7.063 2.625l2.01.695c1.64.567 3.283 1.124 4.927 1.68l-1 2-2.082-.747C131.83 50.053 109.698 43.758 85 45l-1-3z" fill="#f6f6f6"/><path d="M10 64c1.503 1.913 2.858 3.703 3.91 5.902 7.006 13.485 23.57 22.362 37.227 27.371C53 98 53 98 54 99c2.328.368 4.662.702 7 1v10h-1l-1-7-3.008-1.031c-17.787-6.274-37.507-15.88-46.75-33.278L8 66z" fill="#f7f7f7"/><path d="M202 71c8.801 3.114 16.102 9.868 23 16l-1 2c-3.647 1.114-6.333.943-10 0l3-2-13-8c3-1 3-1 5-1l-8-5z" fill="#e6e9e6"/><path d="M15 72l3 2.625c10.795 9.2 21.87 16.12 35.476 20.334 1.87.598 3.702 1.311 5.524 2.041l1 3c-4.613.45-7.136-.417-11.027-2.871-2.202-1.26-4.401-2.08-6.785-2.942-9.406-3.67-21.427-11.526-26.47-20.457L15 72z" fill="#e0e0e0"/><path d="M375 151c4.398.259 6.495.561 9.875 3.5L387 157l1 1c.088 2.219.107 4.44.098 6.66l-.005 2.014c-.005 2.13-.018 4.259-.03 6.388A3970.039 3970.039 0 0 1 388 188h-1c-.896-3.679-1.103-7.2-1.188-10.978-.266-9.521-1.757-17.064-8.625-24.147L375 151z" fill="#4f4b49"/><path d="M72.93 27.867l3.41-.004 3.535.012 3.512-.012c5.64.007 11.06.117 16.613 1.137v1l-3.27.028c-4.033.04-8.066.106-12.099.18-1.74.028-3.48.049-5.22.063a637.7 637.7 0 0 0-7.536.12l-2.327.003C63.873 30.546 59.858 32.12 55 35l-2.437 1.438C50.515 38.485 50.306 40.17 50 43h-1c-.45-3.876-.368-5.506 2-8.687 6.46-4.98 13.88-6.437 21.93-6.446z" fill="#d0d0d0"/><path d="M230 96c2 1 2 1 2.628 2.677 1.38 6.189 1.611 12.06 1.497 18.385l-.027 2.913A897.315 897.315 0 0 1 234 127c-2.267-2.906-3.744-5.523-5-9l1-1c.087-1.562.107-3.127.098-4.691l-.01-2.862-.025-3.01-.014-3.021c-.012-2.472-.028-4.944-.049-7.416z" fill="#3a3633"/><path d="M161 167l3 1c.927 2.78 1.129 4.472 1.133 7.344l.004 2.527-.012 2.629.012 2.629-.004 2.527-.004 2.307C165 190 165 190 164 193h-2c-1.02-3.06-1.115-5.124-1.098-8.324l.01-3.115.025-3.249.014-3.283c.012-2.676.028-5.353.049-8.029z" fill="#312c29"/><path d="M355 171l2 1c.054 3.042.094 6.083.125 9.125.017.856.034 1.712.05 2.594.038 4.847-.28 8.728-2.175 13.281h-2c-.058-3.77-.094-7.541-.125-11.313-.017-1.071-.034-2.143-.05-3.248l-.02-3.115-.032-2.872C353 174 353 174 355 171z" fill="#35302e"/><path d="M172 79l1 3a94.86 94.86 0 0 1-5.063 7.188l-1.532 2.031a760.547 760.547 0 0 1-3.025 3.978 635.415 635.415 0 0 0-5.067 6.74L156 105l-3-2c3.21-4.388 6.425-8.772 9.645-13.153 1.12-1.527 2.236-3.058 3.351-4.59 3.779-5.144 3.779-5.144 6.004-6.257z" fill="#595959"/><path d="M182 69c6.17-.79 9.93 1.958 15 5 1.327.68 2.658 1.35 4 2v2a374.925 374.925 0 0 0 6 4l1 2c-4.847-.591-8.607-1.98-13-4l2-2-15-8v-1z" fill="#e0e0e0"/><path d="M133 40c5.96.651 11.26 2.802 16.813 4.938l2.927 1.091 2.78 1.06c.836.32 1.672.637 2.534.965C160 49 160 49 161 51c-6.026-.73-11.63-2.69-17.375-4.563l-3.098-.998c-2.51-.809-5.019-1.622-7.527-2.439v-3z" fill="#dfdfdf"/><path d="M335 164l-1.645 2.746c-3.904 6.615-7.298 12.796-9.355 20.254-1.799-3.597-.053-7.69.75-11.5l.516-2.668.53-2.55.48-2.343c1.586-4.25 4.784-4.152 8.724-3.939z" fill="#4c4846"/><path d="M98 136l1 2c-2.405 3.097-3.537 3.939-7.496 4.46-1.3-.027-2.601-.056-3.942-.085l-3.933-.04c-3.326-.307-5.644-.897-8.629-2.335l1-2 1.5.5c6.647 1.33 13.067.429 19.5-1.5z" fill="#d5d5d5"/><path d="M308 116l2.063 2.25c5.258 5.23 12.216 7.885 18.937 10.75v2c-3.827.57-5.928.646-9.293-1.383A118.144 118.144 0 0 1 313 124l-1.684-1.473c-1.378-1.277-1.378-1.277-3.316-3.527v-3z" fill="#423e3b"/><path d="M185 75l10 3-2.375 2.125c-2.709 2.967-3.642 5.033-4.625 8.875-2.68-2.68-2.387-4.392-2.625-8.125l-.227-3.32L185 75z" fill="#f2f2f2"/><path d="M233 94c1.938.188 1.938.188 4 1 1.25 2.063 1.25 2.063 2 4h5l-3 1 2 4h-3l-2-3h-6c-.043-2-.04-4 0-6z" fill="#e3e8e0"/><path d="M202 71c4.024 1.417 7.134 3.348 10.563 5.875l2.816 2.055c2.396 1.892 4.517 3.862 6.621 6.07l-2 1-2.887-2.082-3.8-2.73-1.897-1.37C208.024 77.385 204.623 75.085 201 73z" fill="#dbdfdb"/><path d="M111 35c8.548.527 17.181 1.427 24 7-5.047.23-9.4-.59-14.25-1.813l-2.18-.501c-5.328-1.322-5.328-1.322-7.57-4.686z" fill="#eee"/><path d="M93.875 40.938l2.953.013c2.39.012 4.781.028 7.172.049v1H84v3h6v1l-15-1c2-3 2-3 4.445-3.684 4.82-.429 9.595-.421 14.43-.379z" fill="#e4e4e4"/><path d="M297 96c7.262.37 7.262.37 11 3.563l2 2.437-2 7a200.704 200.704 0 0 1-3.813-5.938c-2.142-3-4.216-4.916-7.187-7.062z" fill="#464240"/><path d="M296 174h6c-.114 1.46-.242 2.917-.375 4.375-.07.812-.14 1.624-.21 2.46C301 183 301 183 299 185a480.028 480.028 0 0 1-1.5-3.813l-.844-2.144C296 177 296 177 296 174z" fill="#413c3a"/><path d="M93 163h5v8h-5v-8z" fill="#312c2a"/><path d="M61 105h1l4 20c-4.53-4.53-4.53-4.53-5.313-9.438l-.488-2.808c-.203-2.811.114-5.033.801-7.754z" fill="#e4e4e4"/><path d="M68 36l2 1-1.531.996c-4.094 2.918-4.094 2.918-5.934 7.406.025 2.236.155 4.384.465 6.598l-3-1c.252-5.788.565-9.826 5-14l3-1z" fill="#f0f0f1"/><path d="M15 72l3 2.625c3.322 2.855 6.765 5.494 10.3 8.078C30 84 30 84 32 86c-5.047 0-6.745-2.02-10.188-5.313l-1.654-1.513C17.65 76.827 16.102 75.306 15 72z" fill="#e5e5e5"/><path d="M123 42l1 3 10 2v1c-6.86-.66-13.344-2.236-20-4 3.216-1.746 5.32-2.204 9-2z" fill="#e1e1e1"/><path d="M100 33c10.558.779 10.558.779 15 3v1l-17-1 2-3z" fill="#f2f2f2"/><path d="M161 50c4.565.543 7.973 1.795 12 4v2c-4.389-.665-7.981-2.188-12-4v-2z" fill="#d6d6d6"/><path d="M81 20c2.25.087 4.5.195 6.75.313l3.797.175C95.03 21.005 96.479 21.625 99 24c-8.571.143-8.571.143-12-1l-3.25-1.063L81 21v-1z" fill="#fbfbfb"/><path d="M185 75l7 2-1 2h-4v8h-1l-1-12z" fill="#c9c9c9"/><path d="M94.25 37.938l3.828.027L101 38v1l-2.414.148C93.049 39.54 88.242 40.068 83 42l-2-1c3.785-3.785 8.105-3.11 13.25-3.063z" fill="#cbcccc"/><path d="M32 37h1l2 15-2 1c-2.066-5.713-2-10.037-1-16z" fill="#edeeee"/><path d="M95 21l10 2 1 3-9-1v-2l-2-2z" fill="#f2f2f2"/><path d="M187 73c4.053 1.225 7.444 2.699 11 5-3.41 1.136-4.003.867-7.188-.438l-2.167-.87L187 76v-3z" fill="#595959"/><path d="M118 27c4.973.497 8.638 1.553 13 4-3.215 1.072-4.398.944-7.625.25l-2.414-.484L119 30l-1-3z" fill="#e5e5e5"/><path d="M172 149c4.565.543 7.973 1.795 12 4-1.734 1.145-1.734 1.145-4 2-2.14-.863-2.14-.863-4.25-2.313l-2.14-1.425L172 150v-1z" fill="#7b7877"/><path d="M122 37c4.847.591 8.607 1.98 13 4v1c-5.75.125-5.75.125-8-1v-2l-5-1v-1z" fill="#e7e7e7"/><path d="M137 196c2.387 2.963 4.735 5.943 7 9l-2 2a397.108 397.108 0 0 1-2.5-3.813l-1.406-2.144C137 199 137 199 137 196z" fill="#817e7c"/><path d="M102 22h11v3l2 1c-1.606-.283-3.21-.577-4.813-.875l-2.707-.492C105 24 105 24 102 22z" fill="#dfdfdf"/><path d="M190 107c3.26 4.346 3.343 4.748 2.688 9.75l-.364 2.984L192 122h-1l-1-15z" fill="#d7d2cd"/><path d="M201 79c3.653 1.25 4.78 1.671 7 5-5.75-.75-5.75-.75-8-3z" fill="#f1f2f1"/><path d="M45 93l10 3v1c-3.947.18-6.598.094-10-2v-2z" fill="#dadada"/><path d="M68 36l2 1-8 6c1-4 1-4 3.438-5.813z" fill="#d3d3d5"/><path d="M237 99h7l-3 1 2 4h-3c-1.688-2.5-1.688-2.5-3-5z" fill="#de928b"/></svg>