<svg height="512pt" viewBox="0 0 512 512" width="512pt" xmlns="http://www.w3.org/2000/svg"><path d="M0 256v256h512V0H0zM262.2 56c5 1.4 9.7 5.5 11.9 10.5 1.6 3.5 1.9 6.8 1.9 24.5 0 19.4-.1 20.8-2.2 25-6.8 13.2-22.8 14.5-32.2 2.7l-3.1-3.9-.3-21.6c-.3-17.8 0-22.3 1.3-25.7 1.9-5.1 6.1-9.2 11.1-11 4.8-1.7 6.8-1.8 11.6-.5zm-145.6 62.1c2 .6 8.6 6.6 18.7 16.7 16.7 17 17.6 18.5 16.4 27.3-1.6 11.8-14.9 19.3-26 14.5-1.8-.7-10-8.3-18.4-16.7-12.5-12.7-15.3-16.1-16.2-19.7-2.8-10.3 3.6-20.8 14.2-23.2 3.3-.8 5.9-.5 11.3 1.1zm298.6 1.7c7.2 4.5 10.4 16.3 6.5 23.7-2.2 4.2-30.6 32.1-34 33.4-6 2.3-15.3.6-20-3.7-3.3-3-5.7-8.9-5.7-13.9.1-8.1.5-8.7 22.3-30.2 8.9-8.8 11.2-10.5 15.3-11.6 5.6-1.4 10.8-.6 15.6 2.3zm-134.5 33.3c49.9 9.6 89.3 46.8 102.4 96.6 2.7 10 3.2 14.2 3.6 27.5l.6 15.8h-34.8l-.2-12.3c-.6-43.9-29.9-81.1-72.9-92.3-12.4-3.3-32.4-3.7-44.1-1.1-31.7 7.2-57.8 29.3-69.8 59-4.5 11.1-6.6 22-6.8 35.4l-.2 11.3h-34.8l.6-15.8c.4-13.2.9-17.5 3.5-27.2 6.5-24.6 16.8-42.6 34.6-60.6 19.2-19.3 43.3-32 69.6-36.8 12.1-2.2 35.9-2 48.7.5zm-192 112C95.1 267.5 101 276 101 283c0 7.7-6.2 15.8-13.8 18.1-2.4.7-11.1.9-24.2.7-23.2-.3-24.8-.8-29.9-7.9-7.1-9.8-3.6-23 7.4-28 3.5-1.6 6.8-1.9 24.7-1.9 12.2 0 21.8.4 23.5 1.1zm384.8.8c14.6 6.6 14.8 26.9.3 34-4.1 1.9-6.1 2.1-24.6 2.1-21.6 0-25-.6-30-5.3-9.6-8.9-7.4-24.9 4.1-30.6 3.8-1.9 6-2.1 25.2-2.1 18.2 0 21.5.3 25 1.9zm-262.1 50.2c1.9 1.5 2.6 3 2.6 5.3 0 4.3-63 131.8-66.2 134.1-1.9 1.3-8.2 1.5-46.3 1.5-43 0-44.2-.1-46.3-2-2.1-2-2.6-3.6-2.3-7.2.4-3.5 64.2-130.7 66.3-132.3 1.9-1.3 8.2-1.5 45.9-1.5 42.6 0 43.7 0 46.3 2.1zm112 0c1.8 1.5 2.6 3 2.6 5.3 0 2.2-7.8 18.8-25.1 53.7-13.8 27.7-28.2 56.8-32 64.6s-7.8 14.8-9.1 15.7c-2 1.4-7.6 1.6-45.9 1.6-24.1 0-44.5-.3-45.4-.6-2.2-.9-4.7-6.1-4-8.4 1.5-4.8 63.9-129.8 65.8-131.8l2-2.2h44.2c43.2 0 44.3 0 46.9 2.1zm112.1.4c1.4 1.3 2.5 3.5 2.5 4.8 0 4.2-62.6 130.9-66.2 134-1.9 1.6-5.6 1.7-46.4 1.7-42.9 0-44.5-.1-46.4-2-1.1-1.1-2.2-3-2.5-4.3-.5-1.7 7.6-18.9 31.9-68.1 18-36.3 33.4-66.5 34.4-67.2 1.3-1.1 10.8-1.3 46-1.4h44.3z"/></svg>