<svg clip-rule="evenodd" fill-rule="evenodd" height="706" image-rendering="optimizeQuality" shape-rendering="geometricPrecision" text-rendering="geometricPrecision" viewBox=".01 -.01 24621.47 6952.79" width="2500" xmlns="http://www.w3.org/2000/svg"><path d="m8191.61 6860.34c-58.2 27.39-124.1 49.65-197.72 66.76-73.61 17.12-149.79 25.68-228.54 25.68-109.57 0-214.85-14.55-315.85-43.66-101.02-29.1-189.17-76.18-264.5-141.22-75.33-65.07-135.24-149.79-179.75-254.23-44.51-104.43-66.77-230.25-66.77-377.48v-3523.17h754.96v3394.77c0 123.26 24.83 208.01 74.48 254.22 49.65 46.22 108.71 69.35 177.17 69.35 85.6 0 167.78-25.69 246.52-77.05zm-2454.9-1468.85c0-126.67-22.26-244.81-66.77-354.36-44.51-109.58-104.43-205.44-181.46-287.61-77.05-82.19-166.92-146.37-268.77-192.59-102.72-46.24-211.44-69.35-327.85-69.35s-225.12 23.11-327.84 69.35c-101.87 46.22-191.74 110.41-268.78 192.59-77.04 82.17-136.94 178.03-181.45 287.61-44.52 109.56-66.77 227.69-66.77 354.36 0 126.68 22.25 244.8 66.77 354.37 44.51 109.56 104.42 205.43 181.45 287.6 77.04 82.17 166.91 146.37 268.78 192.59 102.72 46.22 211.42 69.35 327.84 69.35 116.4 0 225.13-23.13 327.85-69.35 101.85-46.22 191.72-110.43 268.77-192.59 77.04-82.17 136.95-178.04 181.46-287.6 44.51-109.58 66.77-227.69 66.77-354.37zm739.56 0c0 222.54-41.09 428.83-123.26 618.86-82.17 190.02-195.15 354.37-338.96 493.04-143.8 138.66-312.44 248.23-505.88 328.69-193.45 80.47-399.73 120.69-618.86 120.69s-424.57-40.23-616.31-120.69c-191.72-80.46-359.49-190.87-503.3-331.26-143.8-140.37-256.79-305.59-338.98-495.6-82.17-190.03-123.24-394.6-123.24-613.73 0-215.7 41.94-418.58 125.82-608.59 83.89-190.02 197.72-356.07 341.53-498.18 143.8-142.09 311.59-253.37 503.31-333.84 191.74-80.46 395.46-120.68 611.17-120.68 219.13 0 425.41 40.23 618.86 120.68 193.44 80.47 362.07 190.04 505.88 328.71 143.8 138.66 256.79 303.88 338.96 495.6 82.18 191.74 123.26 397.17 123.26 616.3zm-3528.3 405.72c0 154.08-33.39 300.45-100.16 439.11s-160.06 261.08-279.9 367.21c-119.84 106.15-261.94 190.88-426.27 254.23-164.35 63.34-345.82 95.01-544.41 95.01-178.03 0-338.1-10.27-480.2-30.82-142.09-20.53-275.61-53.07-400.58-97.57-124.97-44.51-244.81-101.87-359.52-172.06-114.69-70.2-233.67-154.92-356.92-254.23l564.94-570.07c164.35 136.95 325.27 233.67 482.77 290.18 157.5 56.5 328.7 84.74 513.58 84.74 75.33 0 146.37-11.13 213.14-33.39s124.97-52.21 174.62-89.88c49.64-37.66 89.02-82.17 118.11-133.51 29.11-51.37 43.66-107.86 43.66-169.49 0-65.06-11.99-123.26-35.95-174.61-23.98-51.37-66.77-101.02-128.4-148.93-61.63-47.94-147.22-96.74-256.78-146.38-109.58-49.64-249.95-105.29-421.14-166.9-150.65-54.8-295.31-117.28-433.98-187.46-138.66-70.2-260.21-154.93-364.63-254.23-104.44-99.29-188.31-215.7-251.65-349.23-63.36-133.53-95.03-291.03-95.03-472.49 0-174.61 35.1-335.55 105.29-482.77 70.19-147.23 166.06-273.06 287.61-377.48 121.54-104.44 263.64-185.75 426.27-243.96 162.63-58.2 338.12-87.3 526.43-87.3 315 0 580.34 41.08 796.05 123.25 215.7 82.18 407.44 202 575.22 359.51l-554.67 559.81c-102.73-99.31-217.43-175.48-344.11-228.54-126.68-53.08-275.62-79.62-446.82-79.62-78.74 0-151.49 11.98-218.26 35.96-66.77 23.96-124.12 55.63-172.06 95.01-47.92 39.38-86.45 85.6-115.56 138.66-29.1 53.08-43.65 108.71-43.65 166.91 0 65.06 13.7 124.12 41.09 177.19 27.39 53.08 73.61 104.43 138.66 154.07s151.51 99.29 259.36 148.93c107.86 49.64 242.24 103.57 403.16 161.77 205.42 71.91 381.76 150.65 528.99 236.25s267.06 179.75 359.5 282.47c92.46 102.73 160.92 218.28 205.44 346.69 44.51 128.38 66.77 273.04 66.77 433.96zm18347.9-5215.44c1089.25 0 1972.26 883 1972.26 1972.26 0 24.64-.6 49.13-1.5 73.55h582.14c.7-24.44 1.14-48.94 1.14-73.55 0-1410.57-1143.47-2554.04-2554.04-2554.04s-2554.04 1143.47-2554.04 2554.04c0 994.27 568.17 1855.78 1397.51 2277.71l263.45-518.84c-640.43-325.84-1079.17-991.1-1079.17-1758.87 0-1089.25 883-1972.26 1972.26-1972.26z" fill="#76c04e" fill-rule="nonzero"/><path d="m22494.4 6875.74 2127.08-3551.13h-573.17l-2127.07 3551.13zm-2629.89 0h573.16l2127.08-3551.13h-573.17zm1028.37 0h573.16l2127.08-3551.13h-573.17zm-2326.92-2660.36-395.45 626.57c-71.91-78.75-151.51-148.08-238.81-207.99-87.32-59.93-175.47-89.88-264.5-89.88-47.94 0-100.16 11.12-156.64 33.37-56.5 22.26-109.58 59.07-159.21 110.43-49.65 51.36-91.59 118.97-125.83 202.86-34.23 83.9-51.35 187.46-51.35 310.72v1674.28h-739.56v-2968.49h739.56v318.42c89.03-126.69 187.46-224.26 295.31-292.75 107.86-68.48 228.55-102.72 362.06-102.72 130.12 0 257.66 35.1 382.63 105.29 124.97 70.2 242.24 163.48 351.79 279.9zm-3369.08 883.36c-58.21-188.31-161.77-339.82-310.72-454.52-148.94-114.71-317.57-172.04-505.88-172.04-184.89 0-350.95 57.34-498.18 172.04-147.21 114.71-249.94 266.21-308.15 454.52h1622.92zm775.51 287.62c0 47.92-2.57 97.57-7.71 148.93-5.13 51.35-11.12 104.43-17.97 159.2h-2372.75c27.4 85.61 65.91 166.92 115.57 243.96 49.65 77.04 110.41 143.8 182.31 200.3 71.9 56.48 153.21 101 243.96 133.51 90.73 32.54 190.87 48.8 300.45 48.8 133.51 0 267.05-23.11 400.58-69.33 133.53-46.24 244.81-108.71 333.84-187.46l467.36 467.35c-205.44 154.08-406.59 262.79-603.46 326.14-196.88 63.34-404.87 95.01-624 95.01-222.56 0-430.55-41.09-623.99-123.25-193.45-82.18-361.22-193.44-503.33-333.84-142.07-140.37-254.21-305.58-336.39-495.6-82.18-190.03-123.25-392.89-123.25-608.59s41.08-418.58 123.25-608.59c82.18-190.02 195.16-355.22 338.97-495.62 143.8-140.37 311.58-251.65 503.31-333.82s397.17-123.26 616.3-123.26c208.84 0 409.14 38.52 600.88 115.56s361.21 184.03 508.44 321c147.23 136.94 263.65 300.45 349.23 490.46 85.6 190.04 128.4 399.73 128.4 629.15zm-3158.52 1489.38h-878.23l-1191.51-1330.17v1330.17h-754.96v-4257.59h754.96v2547.36l1037.45-1258.27h862.8l-1217.18 1443.16 1386.67 1525.33zm-3502.64 0h-749.82v-2973.64h749.82zm10.29-3487.21h-770.38v-770.38h770.38z" fill="#2c5180"/></svg>