<svg height="1217" viewBox="0 0 1540.34 754.762" width="2500" xmlns="http://www.w3.org/2000/svg"><path d="m104.635 257.54c15.603-9.037 44.594-18.351 99.387-18.351 73.453 0 119.47 15.991 145.927 32.53 22.192 13.876 31.604 26.407 31.604 32.157 0 7.6-5.516 10.976-18.155 18.164 20.019-7.328 35.837-14.212 59.794-13.622 30.25.75 31.674 4.468 74.778 4.468s114.998-12.129 114.998-79.616c0-49.323-61.563-71.36-104.059-90.733-25.221-11.496-79.077-33.842-79.077-71.125 0-14.873 15.102-36.62 55.584-36.62 59.086 0 119.437 50.452 129.159 61.597-12.555-17.106-26.701-49.655-27.984-75.495-1.57 1.414-9.834 9.15-29.24 9.15-21.526 0-26.948-9.754-64.485-9.754-49.145 0-100.08 19.574-100.08 63.638 0 20.95 7.774 37.031 20.553 48.644 34.507 31.347 112.133 55.074 112.133 94.254 0 27.877-26.12 42.285-26.12 42.285s5.886-11.163 5.886-27.248c0-27.277-32.976-50.522-65.413-67.511-55.177-28.902-81.484-51.473-78.23-96.24 4.477 10.49 12.508 20.319 16.769 22.941-4.936-19.082-5.53-48.738 15.645-70.68 28.438-29.471 78.806-25.423 78.806-25.423s-11.323-4.95-31.571-4.95c-17.284 0-40.3 4.814-61.363 19.62s-38.3 37.022-38.3 68.514 16.849 53.982 16.849 53.982-35.954-14.877-35.954-62.763c0-30.19 20.309-53.35 31.187-61.671-8.855 3.367-42.974 24.158-42.974 70.864s35.125 72.039 59.363 85.74c31.548 17.837 94.99 33.674 94.99 76.085 0 22.173-18.774 29.6-33.248 29.6-23.151 0-43.259-10.25-54.69-16.872-22.505-13.042-48.934-44.182-45.352-47.464 3.067-2.815 14.77.454 24.744 4.874 9.66 4.28 17.93 12.588 17.93 12.588-4.866-12.02-35.795-40.576-105.788-46.734-53.163-4.678-90.315 14.97-101.587 25.15 10.565-4.209 37.856-14.436 86.022-8.601 45.783 5.544 62.688 28.686 65.254 37.668-12.428-6.748-41.545-19.72-92.484-19.72-73.706 0-115.12 31.665-121.208 36.676v.004zm434.777 16.376c15.369-12.353 20.403-30.728 20.965-39.204 2.257 4.107 14.259 28.509-12.306 49.019-22.988 17.747-54.99 13.098-60.848 12.058 15.889-2.28 35.528-8.476 52.19-21.873zm338.772-190.732c0 16.095 2.014 111.86 2.014 151.42 0 7.62-.815 9.029-1.26 10.12-2.205 5.446-5.048 7.984-11.768 8.504-20.969 1.625-44.176 8.958-57.607 21.63 0 0 24.028-10.584 80.464-5.648 50.24 4.392 103.39 22.341 108.348 26.073 5.47-18.478 9.155-23.685 14.971-32.526 3.208-4.875 11.037-13.777 17.42-20.787 20.304 14.704 49.248 23.962 88.995 22.468 3.662-.136 7.244-.393 10.747-.758 9.515.06 21.901.711 32.31 3.118 17.294 3.995 22.365 11.07 22.365 11.07-3.648-16.155-16.932-21.184-16.932-21.184-1.274.894-2.515-.398-1.7-1.485 50.053-19.25 75.017-64.865 70.934-105.066-2.337-23.016-10.42-44.566-27.736-60.791-4.22-5.404-34.624-40.609-110.32-40.637-67.183-.023-104.444 28.335-105.25 28.958.67-.304 22.21-10.185 50.799-12.85 17.41-1.624 25.9-.238 28.462.338-57.841 15.369-85.924 63.99-82.833 103.661 1.91 24.538 12.653 51.23 36.268 70.185-8.977 4.294-22.37 9.853-39.799 14.746-13.95 3.92-40.683 5.6-55.345 2.3-11.22-2.525-17.003-14.325-17.78-20.417s-2.3-145.263-2.3-152.226 3.676-15.8 10.916-21.724c7.24-5.923 23.175-5.773 23.175-5.773s-19.087-15.73-53.529-21.41c-25.286-4.172-51.856-4.612-51.856-4.612l-1.091 4.369s11.73 4.345 24.828 15.087c3.39 2.782 14.09 10.888 14.09 33.847zm226.625-11.445c51.57-1.868 87.656 37.95 90.634 86.907 2.74 45.076-13.88 87.183-66.204 91.35-26.72 2.131-56.184-6.007-75.992-27.14-4.242-4.529-7.225-10.087-8.499-16.16-1.821-8.678-1.545-17.94 2.702-29.605 7.202-19.751 22.997-32.53 41.302-34.811 17.874-2.224 27.783 5.549 28.05 5.764-.094-.239-7.47-18.286-41.784-12.428-21.79 3.718-36.235 18.188-44.683 30.073-3.53-57.2 30.513-92.362 74.474-93.95z" fill="#471c50"/><path d="m740.456 263.633c79.105-3.475 112.263-56.694 109.365-105.357-2.791-46.832-32.967-88.62-120.323-86.523-76.97 1.85-114.59 57.233-110.002 101.526 4.96 47.853 40.136 93.908 120.96 90.358zm-16.942-177.106c48.7-2.191 82.977 31.173 85.923 76.245 2.824 43.156-9.206 82.776-60.515 86.105-51.309 3.33-89.421-34.998-89.421-88.91 0-49.562 27.338-71.791 64.013-73.44z" fill="#471c50"/><g fill="#164069"><path d="m325.993 682.039c-20.97-4.313-41.077-12.297-54.882-23.306 0 15.28-16.937 20.496-35.982 20.496-17.706 0-55.86-7.726-73.481-15.331-17.069-7.37-18.853-22.66-19.321-44.242-.347-15.96-3.836-204.884-3.709-226.92.169-30.302 7.876-53.964 29.084-55.453 0 0-17.363-14.404-69.894-22.08-53.856-7.871-90.971-6.391-90.971-6.391s22.243 3.783 46.738 20.72c24.5 16.938 30.798 28.837 37.097 45.78 6.298 16.941 7.979 47.313 8.677 63.834.702 16.52 4.715 159.672 2.041 181.68-3.324 27.333-10.02 37.72-26.878 39.316-6.083.576-19.195 3.255-34.732 7.961-12.489 3.779-26.542 8.87-39.78 15.228 0 0 24.776-7.445 63.451-7.445 100.22 0 102.135 31.496 199.948 31.496 63.071 0 107.112-14.217 122.659-24.079-17.26 3.69-39.096 3.053-60.065-1.26z"/><path d="m276.416 409.228c32.733 2.744 45.254 13.182 45.254 13.182l-17.359-36.25s-1.727 5.316-56.483 5.316-79.606-7.043-79.606-7.043 5.924 2.416 15.083 11.58 15.022 25.685 15.58 37.542.94 39.283.94 39.283-6.64-.037-23.483-1.236-29.408-2.842-29.408-2.842 10.307 5.202 18.132 11.557c7.825 6.35 13.87 15.41 13.87 15.41s5.24-1.493 10.953-2.402c5.057-.8 10.353-.964 10.353-.964s1.307 83.895 1.677 99.98c.257 11.21-2.356 14.826-9.853 18.347-6.373 2.993-25.399 6.95-38.459 14.119 0 0 22.056-3.11 59.222-3.11 44.262 0 91.295 5.034 125.807 13.749 8.723-13.444 28.11-37.71 36.745-45.806-19.57 7.867-54.137 16.033-114.221 16.033-17.303 0-20.482-4.378-19.995-18.867.238-7.14-1.288-97.948-1.288-97.948 27.347 0 46.926 1.55 64.453 6.35 8.588-11.187 29.67-26.022 41.114-32.218-14.582 2.22-76.038 9.951-105.675 9.951l-1.348-64.926s5.272-1.536 38.005 1.208z"/><path d="m714.63 601.735c-17.05 7.768-56.426 14.296-90.081 14.296-17.05 0-20.178-3.915-19.7-19.124.234-7.497-1.27-114.53-1.27-114.53 12.995 0 26.327 2.463 37.018 7.511 7.909-10.812 28.26-25.98 41.203-32.489-14.235 3.133-58.885 8.087-78.323 8.621l-1.33-72.704c34.886 0 49.042 4.318 62.107 12.681 6.626-15.547 26.85-36.436 38.052-43.676-12.953 4.247-46.144 8.396-90.883 9.024-38.323.538-69.088.66-83.675.684-26.387-.118-65.69-1.897-65.69-1.897s10.4 1.854 17.851 4.94 13.261 12.972 7.286 33.88c-5.975 20.904-46.457 137.382-46.457 137.382l-44.551-125.296c-6.528-22.669 1.11-28.35 13.055-37.27 14.882-11.107 35.823-21.61 43.428-24.172l-.192-1.086c-39.883 17.101-108.555 18.459-151.28 2.87l-.9 1.592c29.024 11.164 49.516 51.187 55.346 64.96 6.256 14.773 55.56 115.878 63.727 225.833 11.159-35.79 28.475-63.648 39.648-71.557 0 0-5.263-8.72 0-27.628 6.884-24.734 49.047-134.778 53.477-144.565 13.261-29.3 31.21-31.73 41.311-22.346 6.008 6.706 8.883 16.558 9.394 32.7.398 12.456.927 45.867.927 45.867-6.734 0-47.258-2.735-54.737-4.027 10.007 4.594 25.339 17.223 30.972 26.612 3.09-1.166 19.522-4.004 24.177-4.004 0 0 1.288 101.01 1.653 117.901.257 11.768-2.271 15.121-9.66 18.82-6.28 3.142-28.739 10.302-41.607 17.827 0 0 25.587-6.897 62.2-6.897 40.399 0 74.93 6.94 99.79 16.81 9.112-15.607 25.15-36.155 37.71-47.538zm158.024-218.585c-19.813-11.6-47.666-18.651-81.672-19.766l-1.934 4.477c21.653 7.394 36.554 27.703 36.554 49.6 0 18.735 3.24 100.167 3.207 152.965-.018 33.097-.632 79.353-9.239 120.07 19.78-48.284 40.384-84.622 57.43-94.868-13.197-9.815-17.57-44.148-17.57-66.092 0-18.75-1.948-97.883-1.948-114.23 0-14.98 9.28-28.56 15.172-32.156z"/><path d="m1410.61 615.83c-46.392 0-102.875 24.963-153.57 50.362-33.14 16.6-66.06 26.893-77.635 26.893-6.63 0-8.99-2.313-8.99-5.652 0-9.712 27.81-28.54 68.03-51.969 46.087-26.846 93.219-46.19 145.735-46.466 26.65-.14 55.135 8.607 66.453 14.718-13.374-11.684-40.417-21.555-85.493-21.555-5.736 0-11.262.14-16.605.417 1.663-6.88 3.686-18.54 3.686-34.671 0-7.015-1.124-46.134-1.653-81.47-.534-35.29 16.127-54.23 16.127-54.23s-27.53 14.469-51.646 14.469-36.127-6.401-36.127-6.401c-6.008 11.866-34.291 27.305-57.93 30.147 0 0 9.656 4.13 44.388 4.13 24.111 0 21.54-.75 34.338-1.054 12.798-.3 14.315 7.376 14.695 13.997s.847 33.842.847 51.674c0 18.721-.735 27.281-34.834 28.368-66.284 2.112-113.763-51.534-113.763-112.24 0-40.183 26.214-68.457 52.222-79.818-28.373 4.2-43.69 21.522-52.16 33.22-2.033-7.493 14.801-70.69 90.043-70.69 31.464 0 60.099 11.303 73.374 25.047 7.708 7.98 11.609 28.588 11.609 32.896h6.293c0-19.995 43.16-75.125 58.422-88.086 0 0-21.18 11.57-53.318 14.675-34.956 3.377-79.526-1.554-93.031-1.554-58.413 0-140.964 31.079-140.964 133.34 0 65.062 37.48 101.751 77.944 117.803.847.338 1.695.665 2.542.984-32.835 6.911-72.062 22.753-86.34 53.313 21.878-15.28 57.93-28.078 83.4-28.078 7.01 0 10.086.276 10.086 2.693 0 11.121-74.043 47.066-115.12 47.066-20.674 0-28.213-11.496-28.213-22.515 0-24.158 41.891-52.292 87.688-60.332-14.97-1.442-34.324.534-54.066 5.32-.454-19.729-2.974-129.909-2.974-156.783 0-29.548 25.713-31.926 25.713-31.926-10.7-4.66-28.892-13.623-43.245-21.204-16.198 10.03-50.92 14.802-70.522 14.802l-.346 1.54c29.276 3.667 58.655 12.232 58.655 34.644 0 14.877 2.309 110.198 2.309 110.198l-129.014-129.612s-10.217-10.115-29.51-16.684c-19.288-6.57-41.986-7.357-41.986-7.357 20.745 10.058 40.23 28.63 40.23 63.91 0 22.247 1.578 84.795 1.578 114.839 0 68.794-.52 134.146-.52 134.146 7.249-37.354 41.344-80.74 51.608-86.04-12.334-9.614-21.765-61.681-21.765-80.754 0-58.576-.805-61.854-.805-61.854l127.112 128.976c-33.149 13.697-60.496 34.999-60.496 60.679 0 11.547 5.797 20.646 9.375 25.305 0 0-30.42-8.916-30.42-36.146 0-22.95 22.787-44.336 22.787-44.336-13.374 6.163-57.644 26.973-59.335 72.325-1.297 34.67 23.746 60.861 60.95 71.561-35.228 5.325-74.478-3.278-103.797-24.355 0 11.595-14.544 21.1-35.298 21.1-24.912 0-55.42-8.648-72.77-16.253-16.806-7.37-19.597-19.05-19.597-45.015 0-15.963-4.678-216.098-4.678-244.532s2.88-41.737 8.143-52.48c-19.255-14.178-62.383-17.18-92.184-15.386l-4.158 5.919c38.576 9.72 49.014 30.114 49.014 61.034 0 16.535 4.374 224.485 4.374 246.461 0 10.785-4.332 26.355-25.301 36.544-15.22 7.394-45.652 12.264-69.436 30.424 19.054-8.068 46.458-12.592 76.586-12.592 60.557 0 87.965 32.18 182.299 32.18 52.723 0 80.87-9.68 109.285-22.365 13.379 3.55 28.242 5.137 43.966 4.44 16.352-.727 36.366-1.19 47.32-1.982 13.186-.955 21.184 3.864 21.184 11.375 0 10.208-13.496 21.067-45.512 22.224 14.634 7.211 85.755-.641 193.991-61.316 68.237-38.253 109.562-55.396 159.199-55.396 58.857 0 96.44 26.069 111.257 47.576-6.546-25.375-52.077-62.58-129.711-62.58l-.019-.004zm-357.512 78.056c-67.02 0-75.767-35.982-75.767-35.982s23.962 15.415 61.92 15.415c56.324 0 121.489-36.562 167.365-65.736 52.671-33.5 85.45-43.394 110.119-41.287l4.125 19.115c-47.342 7.431-80.805 27.024-123.553 52.418-54.905 32.615-84.776 56.062-144.21 56.062v-.005z"/></g></svg>