<svg height="2500" viewBox="110.3 110.3 2279.4 2279.4" width="2500" xmlns="http://www.w3.org/2000/svg"><g clip-rule="evenodd" fill-rule="evenodd"><path d="m2300.1 806.4c-57.4-135.7-139.6-257.6-244.2-362.3s-226.5-186.8-362.3-244.2c-140.5-59.4-289.8-89.6-443.6-89.6s-303.1 30.1-443.6 89.6c-135.7 57.4-257.6 139.6-362.3 244.2-104.7 104.7-186.8 226.6-244.2 362.3-59.4 140.5-89.6 289.8-89.6 443.6s30.1 303.1 89.6 443.6c57.4 135.7 139.6 257.6 244.2 362.3 104.7 104.7 226.5 186.8 362.3 244.2 140.5 59.4 289.8 89.6 443.6 89.6s303.1-30.1 443.6-89.6c135.7-57.4 257.6-139.6 362.3-244.2s186.8-226.5 244.2-362.3c59.4-140.5 89.6-289.8 89.6-443.6s-30.1-303.1-89.6-443.6z" fill="#3e539d"/><path d="m2057.2 845.8c10.8-16.2 24.3-32.3 27-48.5s-5.4-62 2.7-75.4c8.1-13.5 10.8-37.7 2.7-48.5 0 0-5.4-10.8 2.7-24.3 0 0 0-32.3-8.1-48.5s-27-37.7-21.6-59.3l-1.9-13.7c79.4 88.8 143.5 190.1 189.8 299.8 11.8 27.9 22.4 56.2 31.8 85-5.8 12.5-15.1 18-23 5.3-9-14.4-35.9-28.7-48.5-37.7s-27-14.4-43.1-12.6-9-23.3 1.8-39.5 0-46.7-9-68.3-37.7-21.6-37.7-21.6c-21.6 12.6-9 34.1-9 34.1 7.2 3.6-1.8 25.1-1.8 25.1-5.4 3.6-10.8 34.1-9 44.9s-10.8 23.3-23.4 21.6c-6.4-.9-16.6-7.9-25-14.6 1-1 1.8-2.1 2.6-3.3z" fill="#fff"/><path d="m2017.1 481.5.7.7c7.8 7.9 15.6 15.8 23.2 23.9l-23.9 3.8zm-27.3 628.4c5.4 0 9 9 9 14.4s-9 32.3-14.4 35.9c-3.4 2.3-11.9 10.3-17.6 15.9-2.3-13.4-5.8-26.4-7.5-35.9 9.1-12 26.6-30.3 30.5-30.3z" fill="#3e539d"/><path d="m1588.3 1252.7c-.8-2.3-1.6-4.7-2.5-7l253.4-194.3-.4 1.9c-2.7 13.5-29.6 88.9-35 113.2-1.2 5.5-4.2 12.2-8 19.6l-204.7 98.2c1.3-11.2.6-21.9-2.8-31.6zm-28.6-77.3c-5.1-13.7-9.1-24.5-10.8-30.8l241.9-294.7h77.6c-.2 8.7-.7 20.1-1.8 27.3zm-44.4-73.8c-5.7-5.8-10.8-11.3-14.4-15.5l161.4-236.2h31.8zm27.2 291.2s3.8-5.1 9.4-13.6l200.5-73.1c-2.6 12-5.1 19.3-5.1 19.3s-40.4 43.1-45.8 51.2c-1.1 1.6-3.5 4.4-6.6 8l2.1-5.2-240.5 104.8c-5.8-2.4-10.5-5-13.7-7.8 0-.1 89-18.9 99.7-83.6z" fill="#e7cd4e"/><path d="m1672.6 249.5c82.2 34.7 159.8 79.5 231 133.3h-61.8c-27-27.1-101.9-95.2-226-155.5 19.2 6.9 38.1 14.3 56.8 22.2z" fill="#fff"/><path d="m1561.4 849.9-95.2 178c-9.6-15.5-18.8-29.4-23.3-33.9-1.3-1.4-2.4-2.9-3.4-4.5l56.2-139.6z" fill="#e7cd4e"/><path d="m1250 164.2c77.8-.1 155.3 8.2 231.3 24.6-75.5-8.5-179.3-3.4-226.2 75.7l-.1-.8c-57.5-79.1-204.8-73.7-204.8-73.7-24.4 0-48.5 3-72.1 8.3 88.9-22.7 180.2-34.2 271.9-34.1z" fill="#fff"/><path d="m1399.6 849.9-15.3 49.5c-21.3-1.9-41-12.4-54.5-29.1l3.9-20.4z" fill="#e7cd4e"/><path d="m1213.6 382.9 1.7-.3-.1.3z"/><path d="m783.5 1338.7c-3.2-11.9-3.3-22.3 1.8-29.4l-.6-1.7 219.9 94.2c7 10.2 13.4 18.9 17.9 23.3 2.5 2.5 4.5 6 6.1 10.2zm241 157.3c-2.7 3.3-6.1 5.1-10.1 4.6 0 0-118.6 5.4-134.7-10.8-13.2-13.2-21-35.4-29.3-47.5zm-409.7 44.5c-6.1-10.7-15.4-28.4-15.4-46.2 0-2.2.1-4.4.3-6.6l53.1 8.6c7.4 17.9 15.4 36.1 22.7 50.4z" fill="#e7cd4e"/><path d="m631.8 1624.2-21.9 16.3c-1.7-5.4-3.6-10.9-5.1-13.2-3.6-5.4-10.8-18-5.4-21.6 2.9-1.9 9.2-4.8 14.6-7.1z" fill="#3e539d"/><path d="m712.1 1601.8c9.2 13.7 19.9 29.9 31.3 47h-56.8c-20.5-25.7-30.8-42.4-30.8-42.4l-10.8 8-4.3-14.1zm252.2-402c-4 9.8-7.2 19.8-9.8 30l-236.5-175.7c-6.9-28.2-12.5-52.7-13.4-62.8 0 0-.8-4.3-1.9-11.5zm-204.1-349.9h119.2l145.7 219.4c-11.9 9.3-21.9 20.8-29.4 33.8zm-12.7 328.5 205.4 129.6c2.3 9.3 5.6 18.6 10.2 27.8l-201.1-96.4c-1.4-4.5-2.6-9.1-3.5-13.7-2.7-16.2-13.5-35-10.8-43.1.1-.6.1-2-.2-4.2zm263.8-328.5h72.4l16.1 93.8c-8.3 10.3-16 22.4-21.4 35.8z" fill="#e7cd4e"/><path d="m827.4 249.5c36.8-15.6 74.5-29.1 112.8-40.5-135.6 44.6-246.8 154.2-266 173.9h-77.9c71.2-53.9 148.8-98.7 231.1-133.4z" fill="#fff"/><path d="m489.8 1697.3c5.5 0 15.3 9.5 26 13.2-12.5 9.3-25.1 18.7-37.6 28 1.2-7.5 1.6-15.5 2.6-19.6 1.8-7.2 1.8-21.6 9-21.6z" fill="#3e539d"/><path d="m272.2 1722.6c-8-16.5-15.5-33.1-22.7-50-56.6-133.8-85.3-276-85.3-422.6s28.7-288.8 85.3-422.6c54.7-129.3 133-245.4 232.7-345.2l.7-.7v49.8c-1.6 3.1-3.2 5.7-4.8 7.3-8.1 8.1-16.2 45.8-13.5 59.3s-18.9 35-24.3 45.8c-2.1 4.1-4.5 10.7-6.8 19.1-4.3 1.4-9.2 3.2-13.9 5.1-12.6 5.4-30.5 19.8-35.9 28.7-5.4 9 7.2 37.7 3.6 52.1s-7.2 53.9-18 53.9-62.9 10.8-68.3 35.9c0 0-16.2 9-25.1 12.6-9 3.6-28.7 19.8-30.5 34.1-1.8 14.4-34.1 59.3-27 80.8 7.2 21.6 23.3 46.7 19.8 53.9-3.6 7.2-9 41.3-5.4 48.5 0 0-32.3 28.7-27 53.9 0 0-21.6 21.6-19.8 34.1 1.8 12.6-3.6 88 5.4 102.4s34.1 57.5 30.5 66.5c0 0-21.6 27-25.1 44.9-3.6 18 1.8 53.9-5.4 57.5s-5.4 37.7 27 84.4c0 0 14.4 21.6 14.4 30.5 0 9 23.4 28.8 30.5 30.5 0 0 0 21.6-5.4 26.9-5.4 5.4-1.8 41.3 0 50.3s14.4 52.1 18 57.5c1.5 2.3-.8 8.1-3.7 14.8z" fill="#fff"/><path d="m288 1754.1c8.5.3 16.6-.2 20.4-1.1 7.2-1.8 27-18 32.3-18 5.4 0 19.8 19.8 25.1 30.5 3.8 7.5 20.6 22.9 33.5 31.5l-60 44.6c-18.4-28.3-35.6-57.5-51.3-87.5z" fill="#3e539d"/><path d="m2017.8 2017.8c-99.7 99.7-215.9 178-345.1 232.7-133.8 56.6-276.1 85.3-422.6 85.3-146.6 0-288.8-28.7-422.6-85.3-129.3-54.7-245.4-133-345.1-232.7-45.1-45.1-86.2-94-122.8-146.3l286.6-213.1c19.3 27.7 64.6 86 138.9 144.6 58.5 46.3 123.7 83.4 193.4 110.1 81 31 168.1 47.7 259.1 49.8v.3h19.4v-.3c91-2 178.1-18.8 259.1-49.8 69.7-26.7 134.9-63.9 193.4-110.1 74.3-58.6 119.6-116.9 138.9-144.6l290.3 215.9c-36.2 51.2-76.6 99.2-120.9 143.5zm232.7-345.2c-25.3 59.9-56 117.4-91.6 171.9l-113.9-84.7c9.3-10.5 35.2-11.1 38.3-15.8 3.6-5.4 12.6-3.6 12.6-3.6 25.1 14.4 64.7-1.8 66.5-7.2s7.2-25.1 7.2-25.1c57.5-12.6 44.9-79 44.9-79 9-1.8 12.6-35.9 10.8-44.9s7.2-19.8 7.2-19.8c10.8-3.6 19.8-41.3 19.8-41.3 7.2-3.6 18-23.4 14.4-32.3-3.6-9 0-43.1 0-43.1 10.8-25.1 1.8-53.9 1.8-53.9 48.5-10.8 30.5-86.2 30.5-86.2 18-59.3-21.6-86.2-21.6-86.2s3.6-34.1-1.8-43.1-1.8-18-1.8-18c14.4 0 25.1-32.3 25.1-32.3-4.6-39.1 9.2-61.2 19.7-72.1 11.5 64.1 17.3 129.1 17.3 194.3-.1 146.4-28.8 288.6-85.4 422.4zm-1695.4-912.9c15.9 23.2 38.5 34.1 65.3 34.1h1289.8c13.6.1-8.4 14.4-8.4 14.4h-1278.7s-52.4 1.7-77.5-39.6zm-20.7-212.1v-49.8c0-35.7 25.1-64.7 60.8-64.7h1327.6c26.7.5 62.2 39.7 61.9 64.7v109l14.4 5.4v-127c-1.5-23.2-36.5-67.2-73.7-66.5h-1343.7c-37.2 2.9-62.3 41.5-62.9 71.9v49.8z" fill="#fff"/><path d="m661.5 563.1c.3-21.1-1.3-41.8-20.6-41.8-11.8 0-19.4 6-19.4 22 0 17.9 9.1 24.8 20.1 33.6 11.6 9.1 32.9 26.7 42.7 38.7 12.1 14.8 15.8 28.9 15.8 49.4 0 44.6-23.6 67.9-58.1 67.9-42.2 0-57.3-29.6-57.3-71.7v-17.3h35.3v13.8c-.8 22.9 4.8 39.6 22.1 39.6 14.8 0 21.9-9.7 21.9-27.7 0-13.8-5-23.3-14.1-31.1-18.4-17.9-41.3-30.8-55.6-54.4-5.9-11.1-9-23.5-9.1-36.2 0-40.2 18.1-62.3 55.3-62.3 56.1 0 54.6 54.1 54.8 77.3h-33.8zm56.1 27.4c1.5-60.1 5.3-104.7 61.6-104.7s60.1 44.6 61.6 104.7v33.6c0 62.9-3.8 108.8-61.6 108.8s-61.6-45.9-61.6-108.8z" fill="#fff"/><path d="m753.8 646.1c0 19.5 1.3 51.2 25.4 51.2 25.1 0 25.4-32.4 25.4-55v-60.3c0-18.9.8-60.7-25.4-60.7-27.7 0-25.4 41.2-25.4 59.4z" fill="#3e539d"/><path d="m892.6 625.7v101.5h-35.2v-235.7h66.6c30.4 0 53.6 13.2 53.6 56.6 0 25.8-5.3 52.8-28.9 56.9v.6c20.9 3.4 27.2 20.1 27.2 42.7 0 9.7-1 67.6 7.5 74.5v4.4h-38.7c-4.3-15.1-3.5-44-3.8-59.7-.2-14.5 0-34.3-12.1-38.7-9.6-3.5-19.9-3.1-29.9-3.1z" fill="#fff"/><path d="m892.6 591.1h27.7c11.6-.9 20.6-10.4 20.6-34 0-26.4-8.8-30.8-22.1-31.1h-26.2z" fill="#3e539d"/><path d="m989.6 590.5c1.5-60.1 5.3-104.7 61.6-104.7s60.1 44.6 61.6 104.7v33.6c0 62.9-3.8 108.8-61.6 108.8s-61.6-45.9-61.6-108.8z" fill="#fff"/><path d="m1025.8 646.1c0 19.5 1.3 51.2 25.4 51.2 25.1 0 25.4-32.4 25.4-55v-60.3c0-18.9.8-60.7-25.4-60.7-27.7 0-25.4 41.2-25.4 59.4z" fill="#3e539d"/><path d="m1134.9 727.2v-235.7h71.9c33.7 0 44 34 44 67 0 20.1-4.3 42.7-17.6 56-11.1 11-25.9 14.5-39.5 14.2h-23.6v98.7z" fill="#fff"/><path d="m1170.1 593.9h18.9c15.3 0 25.7-8.2 25.7-36.8 0-27-8.5-31.1-28.4-31.1h-16.1z" fill="#3e539d"/><path d="m1251.9 491.5h117.4v34.5h-41v201.2h-35.2v-201.2h-41.2zm133.8 235.7v-235.7h35.2v235.8h-35.2zm94.5 0h-35.2v-235.7h56.1l18.9 109.4c3 17.9 5 36.2 6.5 54.4h.5c1.8-23.3 3-39 5.5-54.4l18.9-109.4h55.8v235.8h-35.2v-74.2c0-46.8.8-93.7 3-140.5h-.5l-37.7 214.7h-21.4l-37-214.7h-1.3c2.3 46.8 3 93.7 3 140.5zm155.9 0v-235.7h35.2v235.8h-35.2zm136.5-164.1c.3-21.1-1.2-41.8-20.6-41.8-11.8 0-19.4 6-19.4 22 0 17.9 9 24.8 20.1 33.6 11.6 9.1 33 26.7 42.8 38.7 12.1 14.8 15.8 28.9 15.8 49.4 0 44.6-23.6 67.9-58.1 67.9-42.3 0-57.4-29.6-57.4-71.7v-17.3h35.2v13.8c-.8 22.9 4.8 39.6 22.1 39.6 14.9 0 21.9-9.7 21.9-27.7 0-13.8-5-23.3-14.1-31.1-18.4-17.9-41.3-30.8-55.6-54.4-5.9-11.1-9-23.5-9.1-36.2 0-40.2 18.1-62.3 55.3-62.3 56.1 0 54.6 54.1 54.8 77.3h-33.7zm45-71.6h117.4v34.5h-41v201.2h-35.2v-201.2h-41.2z" fill="#fff"/><path d="m1246.1 2307.9c565.9 0 856.9-427.3 856.9-427.3l-253.3-186.3c-215.6 264.1-455.4 288.3-600.9 288.3s-383.8-23-599.4-287.1l-254.8 185.1s291 427.3 856.9 427.3z" fill="#3e539d"/><path d="m460.9 1894.5 177-145.4 21.7 26.4-177 145.4zm279.3-37.5 25.1 23.2-155.6 168.1-26.2-24.2 35.8-77.9c11.8-26.1 25.3-51.5 43.9-83.4l-.4-.3c-13.7 17-27.6 33.8-41.7 50.5-13.8 16.3-27.9 32.4-42.3 48.2l-29.2 31.6-25.1-23.2 155.6-168.1 26 24.1-37.1 79.3c-11.6 25.5-24.7 50.4-43.9 83.4l.4.3c13.2-16.1 27.5-33.3 41.7-50.1s28.6-33.4 42.5-48.5zm35.3 31.1 95.2 62.9-18.5 28-33.2-21.9-107.7 163.1-28.5-18.8 107.7-163.1-33.4-22.1zm10.4 276.2 96.4-207.8 87.3 40.5-14.1 30.5-56.3-26.1-24.3 52.4 51.9 24-14.1 30.5-51.9-24-29.7 64 56.3 26.1-14.1 30.5zm184.6-30.1-27.7 94.7-32.8-9.6 64.3-219.9 62.1 18.2c28.4 8.3 46.3 26.9 34.5 67.4-7 24-19.3 47.8-42.5 45.2l-.2.6c18.5 8.9 19.8 26.2 13.7 47.3-2.7 9.1-19.4 62.7-13.3 71.5l-1.2 4.1-36.1-10.6c.1-15.3 8.7-42 12.8-56.7 3.7-13.6 9.3-32-.7-39.3-8-5.8-17.7-8.4-27-11.1z" fill="#fff"/><path d="m980 2101.9 25.8 7.5c11.1 2.3 22-4 28.5-26 7.2-24.6.2-31.1-12.2-35l-24.4-7.1z" fill="#3e539d"/><path d="m1173.5 2043.5 33.9 4.2-28.4 227.3-35.4-4.4-16.3-84.2c-5.6-28.1-9.4-56.6-13-93.3l-.5-.1c-1.1 18.9-2.6 42.2-4.5 65.3-1.7 21.3-3.7 42.6-6.3 63.9l-5.3 42.7-33.9-4.3 28.4-227.3 35.1 4.4 16.1 86.1c5.4 27.4 9.3 55.3 13 93.3l.5.1c1.4-20.8 2.9-43 4.7-65 1.8-21.9 3.8-43.9 6.3-64.2zm38 233.6 36.7-230.3 46.1-1.4 48.5 227.7-36.6 1.1-10.8-57.7-40 1.2-7.2 58.3z" fill="#fff"/><path d="m1259.8 2184 29.3-.9-11.3-64.7c-2-10.6-3.1-21-4.4-31.7-.4-5.2-1-10.3-1.7-15.2h-.5c-.3 4.9-.7 10.1-.8 15.3-.6 10.7-1.1 21.1-2.4 31.8z" fill="#3e539d"/><path d="m1322.8 2044.9 112.4-19.6 5.8 33.1-39.2 6.8 33.6 192.5-33.7 5.9-33.6-192.5-39.5 6.9zm188.1 195.2-64.5-219.8 32.8-9.6 64.6 219.8zm23.8-144.6c-21.9-54.1-35.8-95.3 14.4-117.1s70.8 16.5 95.4 69.5l13 30c24.3 56 38.7 98.4-12.8 120.7-51.6 22.4-72.7-17.1-97-73.1z" fill="#fff"/><path d="m1588.5 2131.1c7.5 17.4 20.9 45.2 42.5 35.8 22.4-9.7 10.1-38.7 1.4-58.8l-23.4-53.8c-7.3-16.8-22.8-54.4-46.1-44.3-24.6 10.7-6.7 46.5.3 62.8z" fill="#3e539d"/><path d="m1675.5 1915.8 28.9-18.2 122.1 193.8-30.2 19-66-54.8c-22.1-18.2-43.1-37.8-69.2-64l-.4.3c12.8 17.6 25.5 35.4 37.9 53.3 13 18.9 25.9 37.8 35.6 53.3l23 36.4-28.9 18.2-122.1-193.8 30-18.9 67 56.3c21.6 17.8 42.3 36.9 69.2 64l.4-.3c-12.6-17.7-25.2-35.4-37.6-53.2-12.3-17.6-24.2-35.5-35.8-53.6zm181.9 153.1-118.6-200.7 34.7-30.5 182.5 144.3-27.5 24.2-45.2-37.5-30.1 26.5 31.6 49.5z" fill="#fff"/><path d="m1835.2 1966.4 22-19.4-50-42.7c-8.4-6.9-15.8-14.2-23.6-21.6-3.6-3.7-7.4-7.3-11-10.7l-.4.3c2.9 4 5.9 8.2 9.2 12.3 6.3 8.7 12.6 17 18.4 26.1z" fill="#3e539d"/><path d="m1983.8 1951.4-175.2-147.5 22-26.2 149.5 125.9 40.9-48.6 25.7 21.6z" fill="#fff"/><path d="m705.4 381.4s147.3-173.4 344.9-173.4c0 0 167.1-3.6 192.2 91.6 0 0-7.2 10.8-12.6 14.4s-5.4 41.3-53.9 59.3c0 0-5.4 5.4 1.8 9 0 0-84.4 21.6-84.4-48.5s93.4-84.4 93.4-19.8c0 0-16.2-14.4-23.4-12.6s-7.2 16.2-16.2 14.4c0 0-10.8 9-5.4 12.6s0 12.6 0 12.6 9 19.8 27 19.8 44.9-18 44.9-73.7c0 0-10.8-59.3-107.8-61.1 0 0-52.1 7.2-71.9 10.8s-174.3 62-228.2 144.6z" fill="#e7cd4e"/><path d="m836.5 375.1s27-41.3 55.7-55.7c0 0 7.2 5.4 16.2 1.8s104.2-73.7 185-71.9l3.6 10.8s-125.8 27-177.8 120.4c0 0-19.8 1.8-32.3 0-12.6-1.8-18-7.2-23.4-3.6s-10.8-1.8-10.8-1.8 37.7-32.3 37.7-37.7-30.5 16.2-53.9 37.7z" fill="#e7cd4e"/><path d="m944.3 373.3s46.7-53.9 55.7-57.5 25.1-3.6 25.1-3.6 9-9 16.2-12.6 19.8-16.2 34.1-18c0 0-62.9 70.1-62.9 100.6h-61.1c-7.1.1-14.3-5.3-7.1-8.9zm125.8-17.9s-21.6 16.2-10.8 30.5l23.4-1.8s-14.4-19.7-12.6-28.7z" fill="#e7cd4e"/><path d="m757.5 348.2-16.2 19.8-7.2-7.2s14.4-16.2 23.4-12.6zm25.1-28.8s-16.2 5.4-18 10.8-1.8 9 5.4 7.2c7.3-1.8 19.8-14.4 12.6-18zm45-28.7s-10.8 1.8-10.8 7.2 16.1 0 10.8-7.2zm-19.8 12.6s-12.6-1.8-10.8 5.4 14.4 1.8 14.4 1.8z" fill="#3e539d"/><path d="m1697 384.1c-16.2-46.7-167.1-113.2-179.7-120.4s-14.4-16.2-14.4-16.2 28.7 9 35.9 10.8 3.6-10.8 3.6-10.8c-21.6-12.6-109.6-18-143.7-16.2s-86.2 14.4-100.6 64.7 32.3 66.5 43.1 68.3 30.5-3.6 37.7-27-21.6-35.9-21.6-35.9-14.4 3.6-16.2 10.8 10.8 18 10.8 18c-3.6 9-48.5 14.4-30.5-23.4 18-37.7 50.3-28.7 55.7-21.6 5.4 7.2 39.5 18 44.9 39.5 5.4 21.6-18 48.5-25.1 57.5-7.2 9-19.7 1.8-16.2-3.6 3.6-5.4 14.4-21.6 14.4-34.1s-7.2-5.4-7.2-5.4c5.4 19.8-14.4 30.5-14.4 30.5-25.1 35.9-88 18-100.6-41.3s41.3-98.8 41.3-98.8c97-50.3 212-21.6 312.6 21.6 100.6 43.1 188.6 132.9 188.6 132.9s-12.6 1.8-23.4 0-12.6-3.6-23.4-1.8-25.1-1.8-32.3-1.8c-6.9.1-30.3 10.9-39.3 3.7z" fill="#e7cd4e"/><path d="m1682.6 384.1s-18-23.4-37.7-35.9c-19.8-12.6-57.5-43.1-71.9-48.5s-77.2-43.1-107.8-44.9c0 0-32.3-9-34.1 1.8s23.4 9 30.5 12.6c7.2 3.6 50.3 25.1 59.3 30.5s57.5 52.1 61.1 62.9-1.8 19.8-9 14.4-26.9-34.1-35.9-43.1-32.3-30.5-32.3-30.5-9-5.4-14.4 1.8-12.6-1.8-19.8-5.4-14.4 0-14.4 0 18 23.4 28.8 30.5c10.8 7.2 25.1 27 30.5 32.3 5.4 5.4 32.3 9 32.3 9s16.2 14.4 35.9 16.2c19.8 1.8 23.4-12.6 19.8-18s27 14.4 27 14.4z" fill="#e7cd4e"/><path d="m1562.3 262s19.8 1.8 28.7 5.4c9 3.6 18 14.4 18 14.4s-19.8-1.8-27-5.4c-7.1-3.7-26.9-10.8-19.7-14.4zm-221-28.8s-35.9 9-35.9 16.2 9 1.8 9 1.8zm248 113.2 7.2 10.8c-.1 0 10.7-10.8-7.2-10.8z" fill="#3e539d"/><path d="m1119.2 1012.9s-3.6-1.2-8.4 2.4-12 9.6-18 18-28.7 29.9-31.1 41.9-16.8 22.7-25.1 27.5c-8.4 4.8-21.6 33.5-18 49.1 0 0 7.2-8.4 8.4-12s10.8-12 16.8-15.6 9.6-15.6 12-21.6 21.6-18 21.6-26.3c0-8.4 8.4-26.3 14.4-28.7s19.2-18 20.4-21.6c1-3.6 7-13.1 7-13.1zm17.9 6s-8.4 1.2-15.6 10.8-27.5 25.1-33.5 57.5c-6 32.3-9.6 53.9-31.1 71.9-21.6 18-41.9 44.3-31.1 87.4 0 0-9.6 3.6-13.2-15.6s-4.8-22.8-4.8-22.8-24 22.8-25.1 58.7c-1.2 35.9 8.4 52.7 19.2 56.3 0 0 4.8-7.2 2.4-12s-7.2-33.5 1.2-46.7c0 0 7.2 8.4 8.4 25.1s4.8 40.7 16.8 44.3c0 0 1.2-21.6 12-19.2s9.6 18 15.6 23.9c6 6 29.9 10.8 32.3 18s-1.2 14.4-8.4 19.2-3.6 26.3 10.8 32.3 26.4 2.4 26.4-2.4-8.4-10.8-9.6-15.6-3.6-23.9 3.6-22.7 18 9.6 20.4-2.4-3.6-15.6-12-13.2-50.3-1.2-50.3-43.1c0 0 4.8-16.8 16.8-26.3s0-26.3 0-26.3-6 16.8-12 15.6-22.8-6-19.2-29.9c0 0-21.6-41.9 2.4-64.7s43.1-46.7 45.5-77.8c2.2-31.2 28.5-77.9 32.1-80.3z" fill="#fff"/><path d="m1089.2 1178.1s-22.8 7.2-25.1 24c-2.4 16.8 6 31.1 15.6 35.9 0 0-2.4-7.2-1.2-22.7 1.2-15.6 3.6-32.4 10.7-37.2z" fill="#3e539d"/><g fill="#fff"><path d="m1015 1367.4s-18-19.2 0-24c0 0 15.6 10.8 25.1 10.8 0 0 16.8 41.9 26.3 49.1 9.6 7.2 26.4 18 20.4 21.6s-25.1 1.2-33.5-12-15.6-38.3-20.3-40.7c-4.8-2.5-14.4 1.2-18-4.8zm186.8-361.7s-14.4-4.8-22.7-2.4c-8.4 2.4-49.1 34.7-52.7 57.5s-1.2 38.3 3.6 34.7-2.4-31.1 7.2-39.5 35.9-38.3 35.9-38.3 25.1-2.4 28.7-12zm-170.1 152.1s20.4-28.7 32.3-33.5c12.1-4.8-17.9 39.5-32.3 33.5zm352.1 229.9s15.6 29.9 40.7 29.9 57.5-23.9 62.3-31.1 16.8-8.4 20.4-2.4 13.2-9.6 12-15.6-16.8-18-22.7-10.8c-6 7.2-33.5 29.9-51.5 34.7s-29.9 13.2-46.7-4.8c-.1.1-14.5-3.5-14.5.1zm91.1-164s9.6 69.5-37.1 94.6c0 0 23.6 38.2 50.3-41.9 1.1-3.6 4.7-38.4-13.2-52.7z"/><path d="m1447.3 1337.4s-2.4 14.4-8.4 14.4c0 0 0 10.8 14.4 2.4l14.4-2.4c7.2-1.2 13.2-7.2 19.2-8.4s14.4-6 14.4-6-2.4-9.6-1.2-13.2 19.2-25.1 15.6-44.3-13.2-34.7-13.2-34.7 4.7 82.7-55.2 92.2zm-167.7-315s3.6 0 3.6-7.2 6-7.2 7.2-10.8-2.4-12-8.4-12 20.4-4.8 26.3-6c6-1.2 34.7 6 38.3 7.2s21.6 13.2 25.1 20.3c3.6 7.2 27.5 9.6 27.5 28.7 0 19.2 13.2 15.6 14.4 35.9s20.4 58.7 14.4 68.3c0 0-10.8-7.2-15.6-20.4s-14.4-39.5-19.2-39.5 0 31.1 7.2 44.3 43.1 47.9 39.5 62.3c0 0-4.8 4.8-9.6 0s-21.6-24-28.7-27.5c-7.2-3.6-24-39.5-25.1-57.5-1.2-18-8.4-62.3-34.7-73.1-26.4-10.8-46.7-13.2-46.7-13.2s-8.3 9.8-15.5.2z"/><path d="m1404.2 1029.6s14.4 13.2 21.6 34.7c7.2 21.6 26.3 83.8 35.9 98.2s37.1 70.7 35.9 80.2c0 0 9.6-3.6 8.4-7.2s-12-21.6-6-19.2 19.2 21.6 22.7 37.1c3.6 15.6 0 49.1 0 49.1s13.2-32.3 12-43.1 6-8.4 8.4-4.8c0 0 4.8-9.6 1.2-14.4s-24-24-28.8-40.7c-4.8-16.8-1.2-34.7-12-47.9s-10.8-57.5-23.9-59.9c0 0 0 25.1-1.2 29.9s-8.4-25.1-15.6-33.5-13.2-39.5-22.7-32.3l-2.4 13.2s-4.8-9.6-8.4-15.6c-3.5-5.8-20.3-33.3-25.1-23.8zm-196.4-148.5s-13.2 13.2-19.2 15.6-32.3 24-40.7 27.5c-8.4 3.6-50.3 44.3-37.1 52.7 0 0 6 2.4 12-3.6s29.9-29.9 40.7-32.3 37.1-24 52.7-20.4c0 0 10.8-6 8.4-9.6s-15.6-7.2-20.4-3.6-20.3 15.6-25.1 16.8-12-3.6-2.4-9.6c9.5-5.9 41.9-14.3 31.1-33.5zm80.2 10.8s9.6-8.4 19.2-8.4 31.1 14.4 26.3 21.6-13.2 8.4-19.2 2.4c-5.9-6-27.5-9.6-26.3-15.6zm-16.7 19.2s16.8-6 25.1-1.2c8.4 4.8 27.6 12 25.1 18-2.4 6-7.2 7.2-19.2 1.2-11.9-6.1-34.6-3.7-31-18zm63.4 6s16.8 19.2 20.4 25.1c3.6 6 10.8 14.4 16.8 14.4s15.6 12 18 7.2-2.4-13.2-8.4-16.8-13.2-8.4-19.2-14.4-21.6-20.3-27.6-15.5zm-211.9 73s50.3-45.5 73.1-50.3c0 0 10.8-8.4 18-9.6s49.1-6 69.5 1.2 44.3 14.4 53.9 18 38.3 15.6 46.7 24 47.9 37.1 44.3 49.1c0 0-2.4-2.4-13.2-9.6s-35.9-3.6-73.1-37.1c0 0-82.6-15.6-98.2-14.4s-44.3 6-62.3 8.4c-11.9 1.5-42 26.3-58.7 20.3zm128.1 44.3c-15.4 6.6-25.1 3.6-32.3 7.2s-51.5 31.1-51.5 56.3c0 0-3.6 3.6 10.8 10.8s31.1 13.2 28.7 21.6-8.4 13.2-14.4 8.4-26.3-20.4-33.5 0c0 0 21.6 4.8 28.7 8.4 7.2 3.6 24 8.4 24 24s-50.3 13.2-71.9 2.4c0 0-37.1 10.8-27.5 53.9 0 0 15.6 40.7 28.7 55.1 0 0 1.2 21.6 3.6 26.3 2.4 4.8 29.9 85 98.2 89.8s73.1-13.2 121-88.6c0 0 10.8-32.3 16.8-39.5s25.1-58.7 18-75.4c-7.2-16.8-32.3-16.8-44.3-9.6 0 0-18 2.4-22.8 0s-27.5-7.2-27.5-7.2 2.4-27.5 45.5-27.5c0 0 3.6-12-2.4-15.6s-19.2 0-19.2 0-21.5 2.4-23.9-4.8c0 0 19.2-16.8 40.7-19.2 0 0 7.2-15.6-2.4-28.7s-10.8-25.1-32.3-29.9c-21.7-5-50.4-21.8-58.8-18.2z"/></g><path d="m1189.8 1305.1s10.8 0 16.8-3.6 31.1-13.2 41.9-7.2c0 0 28.7-3.6 40.7 4.8s25.1 8.4 25.1 8.4-7.2 10.8-10.8 10.8-29.9-4.8-33.5-4.8-26.3 3.6-32.3 2.4-34.7-1.2-39.5-2.4-8.4-8.4-8.4-8.4zm21.6 13.2s29.9 8.4 39.5 8.4 33.5-3.6 33.5 0-19.2 12-20.3 15.6c-1.2 3.6-14.4 1.2-20.4-2.4s-10.8-6-14.4-6c-3.5-.1-26.3-7.3-17.9-15.6zm12-52.7s3.6-7.2 8.4-6 10.8 9.6 6 9.6c-4.9 0-13.2 1.1-14.4-3.6zm28.7-12s23.9 0 22.7 7.2-20.3 6-22.7-7.2z" fill="#3e539d"/><path d="m1167.1 1378.1s41.9 24 53.9 27.6 27.5 6 37.1 7.2 70.7-18 82.6-38.3c0 0-18 112.6 58.7 146.1 0 0 2.4 13.2-2.4 16.8s-21.5 49.1-22.7 71.9c0 0-9.6 20.4-18 26.3s-65.9 67.1-67.1 73.1-19.2 21.6-29.9 13.2c-10.8-8.4-51.5-49.1-69.5-65.9s-61.1-38.3-73-89.8c0 0-24-25.1-14.4-34.7s24-14.4 29.9-20.4c6-6 13.2-13.2 15.6-23.9 2.4-11 13.2-27.7 19.2-109.2z" fill="#fff"/><path d="m1434.1 1518.3s-12 9.6-19.2 20.3c-7.2 10.8-31.2 63.5-34.7 70.7-3.6 7.2-41.9 65.9-46.7 69.5s-37.1 47.9-37.1 47.9-12 6-13.2 9.6 4.8 12 9.6 12 46.7 28.8 53.9 39.5c7.2 10.8 44.3 43.1 53.9 47.9s45.5 41.9 51.5 63.5c0 0 14.4-15.6 13.2-21.6s-9.6-21.6-9.6-35.9c0-14.4-7.2-124.6 1.2-149.7s14.4-57.5 14.4-57.5 40.7-58.7 45.5-61.1c0 0 6 12 3.6 32.3-2.4 20.4-9.6 144.9 37.1 250.3 0 0 12 4.8 18-6s37.1-95.8 57.5-118.6c20.4-22.7 68.3-80.2 88.6-103 20.4-22.7 74.3-111.4 88.6-130.5 14.4-19.2 43.1-59.9 44.3-75.4 0 0 32.3-25.1 40.7-47.9 8.4-22.7 39.5-89.8 41.9-156.9s12-229.9 13.2-241.9 14.4-50.3 12-58.7-6-37.2 7.2-41.9c16.8-6 28.8-16.8 27.6-31.1 0 0 23.9-12 18-16.8-6-4.8 0-13.2 14.4-7.2 0 0 15.6-8.4 14.4-13.2s7.2-9.6 14.4-4.8 19.2-9.6 18-18-8.4-28.7-8.4-40.7-7.2-34.7-10.8-41.9-15.6-28.7-32.3-34.7-40.7-44.3-51.5-43.1-6 19.2 13.2 37.1c19.2 18 62.3 63.5 65.9 82.6 3.6 19.2 3.6 29.9-2.4 27.5s-4.8-15.6-9.6-27.5-50.3-68.3-64.7-70.7-6 18-2.4 24 44.3 47.9 39.5 77.8c0 0-2.4 6-10.8 7.2s-28.8 2.4-39.5 7.2c-10.8 4.8-56.3 28.7-61.1 44.3s-25.1 148.5-34.7 182-19.2 110.2-28.8 121-81.4 174.9-77.8 214.4c0 0-2.4 10.8-16.8 8.4s-55.1 69.5-71.9 109c0 0-74.3 21.6-106.6 71.9 0 0-7.2 10.8-15.6 2.4s-12-15.6-28.8-13.2-40.7 32.3-49.1 52.7-25.1 83.8-26.3 129.4c-1.2 45.5-2.4 121-14.4 128.1-12 7.2-16.8 7.2-9.6-8.4s19.2-82.6 16.8-117.4c-2.4-34.7 9.6-129.3 40.7-172.5 0 0 6-9.6-4.8-4.8s-21.6 21.6-21.6 21.6l-15.6-1.2s6-19.2 16.8-22.7c0 0 2.4-8.4-3.6-7.2s-15.6-8.4-15.6-8.4z" fill="#fff"/><path d="m1531.2 1866.8c-3-3.7 6-22.8 1.2-32.3s-3.6-25.1-3.6-25.1 13.2 19.2 14.4 32.3c1.1 13.1-1.3 38.3-12 25.1z" fill="#fff"/><path d="m2041 581.7s-6.3-28.7-4.5-35 2.7-19.8 6.3-18 6.3 20.7 6.3 20.7 10.8 36.8 4.5 37.7-12.6-5.4-12.6-5.4zm2.7 18.9s-9 7.2-6.3 18.9 15.3 46.7 15.3 52.1 15.3 45.8 20.7 44.9 16.2-17.1 7.2-29.6c-9-12.6-27.8-53-24.2-55.7s7.2 5.4 12.6 9 9.9-4.5 8.1-9.9-13.5-27.8-15.3-25.1-1.8 18-5.4 16.2-7.3-24.4-12.7-20.8z" fill="#e7cd4e"/><path d="m1428.2 1572.2s5.4 4.8 7.2 4.2 5.4.6 4.8 4.8-5.4 16.2-9.6 19.2-19.8 18.6-19.8 27.6-10.2 76-19.8 80.2-17.4 3.6-15-5.4 18-34.7 19.8-49.7 14.4-50.3 20.4-55.1 7.8-28.2 12-25.8z" fill="#3e539d"/><path d="m1429.4 1906.3s-18-29.9-22.7-35.9c-4.8-6-32.3-35.9-43.1-44.3s-47.9-41.9-59.9-53.9-44.3-38.3-50.3-41.9-39.5-34.7-53.9-43.1-55.1-44.3-64.7-62.3-52.7-98.2-44.3-109 9.6-15.6-1.2-12-22.8 3.6-22.8 9.6 4.8 15.6 0 15.6-10.8 1.2-9.6 18c1.2 16.7 10.8 45.5 4.8 43.1s-7.2-6-8.4-15.6-12-45.5-19.2-43.1-16.8 16.8-13.2 29.9c3.6 13.2 13.2 61.1 18 71.9s9.6 31.1 4.8 34.7c0 0 29.9 75.4 21.6 101.8 0 0-8.4 3.6-7.2-1.2s-4.8-58.7-13.2-74.3-3.6-25.1-10.8-38.3-19.2-46.7-25.1-53.9c-6-7.2-18-52.7-18-52.7l-4.8-10.8-3.6-12s-13.2 7.2-12 15.6 9.6 25.1 8.4 31.2c-1.2 6 16.8 47.9 24 59.9s20.4 57.5 22.7 68.2c2.4 10.8 0 38.3-14.4 67.1s-49.1 79-59.9 93.4c0 0 115 69.5 289.8 69.5 0 0 123.4 0 165.3-18l-2.4-15.6-12-13.2s2.4-14.4-13.2-15.6-38.3-1.2-52.7-8.4-50.3-37.1-55.1-44.3-12-28.8-18-31.1c-6-2.4-21.6-14.4-22.7-19.2-1.2-4.8 2.4-12 10.8-2.4s39.5 38.3 46.7 47.9c0 0 6 6 13.2 4.8s31.2 2.4 40.7 8.4c9.6 6 55.1 37.1 80.2 81.4z" fill="#fff"/><path d="m1049.7 1629.7-1.2-10.8s13.2 7.2 1.2 10.8zm244.3 279s-8.4-7.2-8.4-1.2 8.4 14.4 8.4 14.4 8.4-9.6 0-13.2z" fill="#3e539d"/><path d="m950.3 1549.4s3.6 26.3 14.4 39.5 37.1 64.7 37.1 75.5 1.2 59.9-4.8 88.6c-6 28.8-20.4 68.3-29.9 73.1 0 0-2.4-7.2 0-19.2s14.4-112.6 13.2-117.4l-7.2 6s-3.6 35.9-8.4 43.1-2.4 38.3-9.6 47.9-21.6 49.1-24 61.1c0 0-2.4 8.4-12 3.6s-22.7-9.6-29.9-33.5 0-25.1 0-25.1-1.2-13.2-7.2-18-18-26.3-27.5-32.3c-9.6-6-58.7-63.5-87.4-110.2s-61.1-98.2-75.5-123.3-70.7-138.9-81.4-182.1-19.2-99.4-20.4-136.5-2.4-150.9-4.8-174.8c-2.4-24-4.8-128.1-9.6-136.5s-7.2-18-16.8-20.4-27.5-18-37.1-31.1c-9.6-13.2-28.8-34.4-34.7-35.9-18-4.8-19.2-39.5-16.8-55.1s13.2-61.1 12-65.9 15.6-21.6 21.6-25.1c6-3.6 35.9-21.6 38.3-28.7s14.4-20.3 21.6-15.6c7.2 4.8 12 16.8 2.4 25.1-9.6 8.4-37.1 35.9-41.9 43.1s-39.5 69.5-31.1 97l9.6 2.4s27.5-76.6 49.1-75.4c0 0 15.6 4.8 7.2 16.8s-57.5 87.4 21.6 106.6c0 0 56.3-7.2 63.5 24 5.4 23.5 21.6 103 21.6 116.2s-2.4 22.7 0 35.9 26.3 94.6 41.9 136.5 40.7 100.6 40.7 130.5 15.6 89.8 28.7 106.6c13.2 16.7 81.4 124.5 100.6 164.1 0 0 8.4 32.3 22.7 46.7 14.4 14.4 33.5 44.3 34.7 56.3 0 0 7.2 0 4.8-9.6s-13.2-32.3-15.6-43.1-9.6-29.9-4.8-33.5c4.8-3.9 25.1-3.9 31.1 2.1zm-423.9-984.4s-16.8 8.4-25.1 14.4c-8.4 6-20.4 33.5-26.3 37.1-6 3.6-12 19.2-13.2 25.1-1.2 6-18 61.1-6 65.9s13.2-16.8 13.2-26.4 16.8-40.7 19.2-46.7 34.7-37.1 35.9-43.1c1.1-6 10.6-23.9 2.3-26.3z" fill="#fff"/><path d="m975.5 1627.3s-3.6 13.2 2.4 18 4.8-2.4 4.8-6-7.2-12-7.2-12z" fill="#3e539d"/><path d="m1005.4 1541s-1.2 27.5 2.4 33.5 4.8 10.8 4.8 10.8 6-9.6 3.6-13.2-7.2-37.1-10.8-31.1zm-47.9 261.1s-9.6 28.7-13.2 32.3 0 9.6 0 9.6 8.4-6 9.6-13.2c1.2-7.1 12-28.7 3.6-28.7z" fill="#fff"/><g fill="#e7cd4e"><path d="m2133.6 761.4s-10.8 10.8-9 16.2 12.6 27 18 21.6-1.8-37.8-9-37.8zm-107.8 135.3s18 13.2 21.6 13.2-9.6 9.6-9.6 9.6l-21.6-6zm-27.6 64.7s-2.4-26.3 22.7-16.8c0 0 0 7.2-4.8 9.6s-12 8.4-12 8.4-5.9 2.4-5.9-1.2zm10.8 40.7s14.4-12 19.2-14.4 10.8-10.8 15.6-21.6 33.5-52.7 38.3-56.3 14.4-24 18-22.7c3.6 1.2 6 22.7 6 22.7s14.4 52.7-1.2 53.9-24-8.4-28.8-2.4c-8.6 11.8-6 28.4 5.8 37 .1.1.2.1.2.2 0 0-7.2 19.2-19.2 14.4s-14.4-26.4-23.9-19.2c-9.6 7.2-9.6 19.2-10.8 25.1-1.2 6-13.2 29.9-26.3 26.3-13.2-3.6-20.4-29.9-16.8-38.3s16.7-15.5 23.9-4.7zm115-158.1s-4.8-25.1-2.4-28.7 15.6-7.2 16.8-1.2-4.8 29.9-14.4 29.9zm89.8 57.5-10.8-3.6s-22.8 7.2-20.4 12 14.4 16.8 18 16.8 2.4-7.2 4.8-10.8 8.4-8.4 8.4-14.4zm-55.1-3.6s-20.3-3.6-22.7 1.2-1.2 53.9-1.2 53.9 19.2 33.5 27.5 32.3c8.4-1.2 9.6-20.4 15.6-19.2s16.8 14.4 18 31.1 18 22.7 26.3 21.6c8.4-1.2 4.8-19.2 9.6-21.6s15.6 0 24 10.8 21.6 9.6 26.3 2.4c4.8-7.2-8.4-28.8-8.4-28.8s3.6 18-3.6 16.8-20.4-10.8-28.7-15.6c-8.4-4.8-26.4-12-27.6-8.4s-9.6 15.6-9.6 15.6-2.4-20.3-10.8-31.1-27.5-14.4-27.5-14.4-13.2-9.6-14.4-15.6c-1.2-5.9-7.2-27.4 7.2-31z"/><path d="m2250.9 947s-15.6 1.2-15.6 9.6 9.6 13.2 15.6 8.4 10.8-26.4 9.6-31.1c-1.2-4.8-16.8-14.4-19.2-6-2.3 8.3 14.4 10.7 9.6 19.1zm-142.5 86.2s13.2 16.8 22.7 19.2c9.6 2.4 20.4 22.7 7.2 26.4 0 0-8.4-1.2-16.8-4.8s-16.8 0-14.4 8.4 21.6 33.5 19.2 41.9-6 21.6-15.6 19.2-16.8-9.6-21.6-6-4.8 33.5-15.6 37.1-34.7 14.4-32.3-4.8 14.4-27.5 14.4-21.6c0 6-1.2 22.7 2.4 19.2 3.6-3.6 10.8-9.6 14.4-19.2 3.7-9.6 20.4-106.6 36-115zm26.4-49.1s-8.4 35.9 3.6 39.5 13.2-13.2 16.8-12 14.4 13.2 18 10.8 3.6-20.4-2.4-21.6c-6.1-1.1-34.8-8.3-36-16.7z"/><path d="m2053.3 1095.5s-21.6-1.2-24 7.2-1.2 24 8.4 22.8 25.1 9.6 25.1 9.6 9.6-19.2 2.4-19.2-26.3 2.4-24-3.6c2.5-6 19.3-7.2 12.1-16.8zm124.6-26.3s10.8 0 12-8.4-4.8-29.9 1.2-29.9 20.4 12 20.4 21.6-8.4 8.4-12 13.2-8.4 14.4-13.2 14.4c-4.8-.2-8.4-10.9-8.4-10.9zm51.5-19.2s1.2-13.2 7.2-13.2 12 1.2 15.6-3.6 7.2-12 15.6-10.8 13.2 24 3.6 25.1c-9.6 1.2-16.7-3.6-21.6-2.4-4.9 1.3-13.3 16.9-20.4 4.9zm-1.2 27.6s16.8 13.2 21.6 9.6 9.6-13.2 10.8-7.2-7.2 15.6-13.2 18c-6 2.3-28.8 3.5-19.2-20.4zm-190.5-16.8s1.2-13.2 4.8-13.2 10.8 15.6-4.8 13.2zm-22.7 110.2s18-7.2 19.2 9.6c1.2 16.7-22.8 1.1-19.2-9.6zm-21.6 32.3s-10.8 1.2-9.6 8.4 16.8 9.6 20.3 12c3.6 2.4-1.2 8.4-7.2 7.2s-6-3.6-19.2-2.4c-13 1.1-22.6-31.2 15.7-25.2zm221.6-86.2s-8.4-6-15.6-7.2-26.3-4.8-28.8 1.2c-2.4 6 2.4 63.5 9.6 67.1s12-1.2 19.2-1.2 21.6-7.2 19.2-16.8-10.8-10.8-16.8-15.6-14.4-18-4.8-20.4c9.6-2.3 18 1.3 18-7.1zm-240.7 164s10.8 1.2 15.6-3.6 20.4-28.8 24-28.8 1.2 15.6 0 22.8c-1.3 7.2-27.6 37.2-39.6 9.6zm45.5-38.3s28.8-24 37.1-22.7c8.4 1.2 0 24 7.2 29.9 7.2 6-15.6 24-19.2 21.6s-3.6-16.8-7.2-19.2c-3.5-2.4-17.9-9.6-17.9-9.6zm77.8-63.5-12 16.8s-3.6 20.4 3.6 24 24-9.6 24-16.8-12-26.3-15.6-24zm33.6 4.8s-1.2-38.3 6-39.5 19.2 14.4 21.6 19.2c2.3 4.8-16.8 22.7-27.6 20.3zm51.5 9.6s-6 24-2.4 34.7c3.6 10.8 6 6 9.6 1.2 3.5-4.7 7.1-35.9-7.2-35.9zm-77.9 71.9s13.2-16.8 18-14.4 12 27.5 9.6 32.3-13.2 10.8-15.6 6 2.4-14.4-12-23.9zm-46.7 31.1s14.4-8.4 18-10.8 13.2-7.2 13.2-7.2 1.2 18 4.8 24-1.2 25.1-8.4 23.9-10.8-8.4-12-13.2c-1.2-4.7-15.6-16.7-15.6-16.7zm144.9-35.9s-15.6 10.8-18 15.6-15.6 31.1 7.2 38.3c0 0 7.2-1.2 8.4-6s3.6-16.8 10.8-19.2 12-27.5-8.4-28.7zm47.9 32.3s4.8-10.8 12-13.2 19.2-12 10.8-16.7c-8.4-4.8-4.8 8.4-13.2 6s-24-13.2-27.5-7.2c-3.6 6 3.5 27.5 17.9 31.1zm-245.5 32.3s15.6 4.8 25.1 2.4c9.6-2.4-1.2 13.2-9.6 13.2-8.3 0-27.5-3.6-15.5-15.6zm221.6-15.5s-4.8 25.1 13.2 31.1c17.9 6-13.2-31.1-13.2-31.1zm25.1-6 6 27.5s7.2-1.2 7.2-4.8c0-3.5-4.8-23.9-13.2-22.7zm-125.7 41.9s-13.2 12-22.8 53.9-27.5 132.9-33.5 138.9 31.1-7.2 27.5-18-4.8-44.3 2.4-43.1 18 21.6 16.8 28.8 10.8 4.8 14.4-10.8-3.6-26.4-9.6-31.2-8.4-28.7 1.2-33.5 14.4-18 14.4-18-25.1 2.4-23.9-21.6c1.1-23.8 13.1-45.4 13.1-45.4z"/><path d="m2125.2 1381.7s4.8 4.8 12 0 14.4-14.4 19.2-10.8 14.4 29.9 6 41.9-21.6 25.1-21.6 25.1-3.6-16.8 6-22.7c9.6-6 16.7-13.2 12-20.4s-10.8-10.8-15.6-7.2-16.8 8.4-16.8 8.4-7.2-3.5-1.2-14.3zm61.1-32.3s41.9 4.8 45.5 25.1c3.6 20.4 0 27.6-6 24s-26.3-9.6-28.8-4.8c-2.4 4.8-6 27.5 28.8 43.1 34.7 15.6 13.2 40.7 4.8 43.1s-16.8-1.2-24-1.2-10.8-12-10.8-22.8-4.8-39.5-9.6-52.7.1-53.8.1-53.8zm-239.6 56.3s12-20.4 19.2-20.4 26.3-3.6 26.3-3.6-6 8.4-18 10.8-22.8 9.6-21.6 15.6c1.3 6-10.6 13.2-5.9-2.4zm30-56.3s1.2-18 8.4-13.2 16.8 25.1 16.8 25.1l-8.4-2.4c-.1.1-16.8 3.7-16.8-9.5zm70.6 52.7s6-10.8 9.6-10.8 19.2-10.8 21.6-4.8-4.8 19.2-6 25.1c-1.2 6-7.2 6-7.2 6s-1.2-14.4-6-13.2c-4.8 1.3-12-2.3-12-2.3zm-29.9-1.2s-12 18-13.2 22.7c-1.2 4.8-20.3 28.8-21.6 32.3-1.2 3.6-12 15.6-16.7 14.4-4.8-1.2-1.2-29.9 2.4-33.5s-21.6 4.8-19.2 21.6 7.2 31.1 23.9 24c16.8-7.2 15.6-19.2 18-25.1 2.4-6 9.6-14.4 19.2-18 9.6-3.7 7.2-38.4 7.2-38.4zm-41.9 171.3 25.1-41.9s3.6-20.4 14.4-16.8 14.4 18 10.8 25.1c-3.6 7.2-12 21.6-10.8 26.4s-1.2 28.7-9.6 27.5-9.6-9.6-15.6-12c-5.9-2.3-19.1-4.8-14.3-8.3zm192.8-83.9s2.4 27.5 7.2 28.8c4.8 1.2 8.4-22.8-7.2-28.8zm31.1 4.8s-2.4 27.5 1.2 27.5 12-10.8 12-10.8-8.4-16.7-13.2-16.7zm-273 50.3v9.6s16.8 0 18 3.6 2.4 10.8 8.4 9.6 15.6-16.8 10.8-21.6-10.8-1.2-10.8-1.2zm35.9 50.3s-7.2 20.4-12 21.6-6 9.6-1.2 9.6 21.6-21.6 13.2-31.2zm184.5-61.1s-13.2 124.6-15.6 129.3c-2.4 4.8-13.2 6-19.2 2.4s-15.6 9.6-14.4 19.2 10.8 26.3 22.7 25.1c12-1.2 27.6-19.2 25.1-27.5-2.4-8.4-8.4-29.9-1.2-33.5s19.2 14.4 26.3 7.2c7.2-7.2 9.6-22.8-3.6-32.3s-18-32.3-15.6-35.9 16.8-3.6 22.7 0c6.3 3.5 27.8-31.2-27.2-54z"/><path d="m2098.8 1594.9s-2.4 9.6-8.4 12-34.7 35.9-18 47.9c16.8 12 22.8-12 26.3-12 3.6 0 14.4 1.2 15.6-4.8 1.3-6 .1-41.9-15.5-43.1zm-57.4 40.7s-15.6 29.9-19.2 37.1-18 49.1-33.5 31.1c0 0 3.6 27.5 16.8 22.7s18-18 19.2-22.7 9.6-28.8 15.6-26.3c6 2.4 18 23.9 26.3 21.6 8.4-2.4-6-12-10.8-18-4.9-6-14.4-45.5-14.4-45.5zm-40.8-1.2s-25.1 10.8-22.8 18c2.4 7.2 26.3 10.8 26.3 10.8zm46.7-130.5s-9.6 29.9 10.8 39.5c0 0-12-35.9-10.8-39.5zm44.3 67.1s7.2-7.2 10.8-4.8 1.2 16.8-2.4 16.8c-3.6-.1-15.5-.1-8.4-12zm-55-121-7.2 8.4s-1.2 16.8 3.6 15.6 0-6 2.4-10.8c2.3-4.8 9.5-14.4 1.2-13.2zm-1604.3-767.7s-16.2 7.2-27 25.1c-10.8 18-14.4 34.1-7.2 48.5s-1.8 50.3-7.2 53.9-27 28.7-23.4 37.7 3.6 14.4 9 10.8 7.2-28.7 14.4-27c7.2 1.8 21.6 12.6 21.6 23.4s-5.4 88 59.3 102.4c0 0 12.6-1.8 14.4-14.4s-1.8-26.9-12.6-30.5-25.1-21.6-30.5-34.1c-5.4-12.6-23.4-34.1-30.5-44.9-7.2-10.8-12.6-55.7 0-71.9 0 0 5.4-7.2 0-12.6s-9-30.5 14.4-39.5c0 .1 8.9-19.7 5.3-26.9z"/><path d="m438.9 853.6s-2.4-18 3.6-16.8 15.6 8.4 19.2 9.6-8.4 20.4-22.8 7.2zm26.4 15.6s14.4-10.8 19.2-9.6 15.6 15.6 9.6 16.8c-6.1 1.1-27.6-.1-28.8-7.2zm23.9 25.1s10.8-8.4 14.4-6 18 15.6 8.4 16.8-21.6-2.4-22.8-10.8zm-150.9-12s6-24 13.2-22.7c7.2 1.2 24 13.2 21.6 24s-9.6 24-10.8 28.7c-1.2 4.8-9.6 14.4-14.4 9.6s-8.4-14.4-13.2-13.2-10.8 4.8-9.6 13.2 7.2 53.9-35.9 43.1c0 0-4.8-25.1-1.2-31.1s49.1-48 50.3-51.6zm-85 33.6s12-9.6 12-18 6-33.5 9.6-34.7 32.3-7.2 35.9 0 19.2 24 4.8 28.7c-14.4 4.8-25.1 7.2-31.1 10.8-6.1 3.6-22.8 23.9-31.2 13.2zm7.2 28.7s-16.8-9.6-21.6 6 7.2 33.5 6 37.1 8.4 3.6 16.8 0 19.2-26.4 15.6-29.9c-3.6-3.6-9.6-1.2-12 2.4s-15.6-3.6-4.8-15.6zm63.5 24s9.6-1.2 10.8-6 9.6-15.6 15.6-16.8 28.7-10.8 34.7-14.4 8.4-12 14.4-9.6 15.6 12 8.4 13.2-16.8 0-22.7 4.8c-6 4.8-32.3 19.2-37.1 20.3-4.8 1.2-21.6 16.8-21.6 16.8zm11.9-127s-1.2-16.8 7.2-16.8c8.4.1 12 19.2-7.2 16.8zm161.7 104.2s-8.4 14.4-8.4 24 4.8 32.3 27.5 35.9 12-19.2 14.4-25.1c2.4-6 9.6-21.6 7.2-25.1-2.4-3.6-9.6-10.8-12-18s-15.6-25.1-18-19.2c-2.4 6 12 38.3 12 38.3s-4.7 29.9-22.7-10.8zm-83.8 13.2s0 34.7-3.6 41.9 1.2 43.1 18 52.7c0 0 3.6 10.8 4.8 15.6s41.9 51.5 50.3 13.2c0 0-8.4-8.4-14.4 0 0 0-10.8-1.2-8.4-4.8s4.8-33.5 4.8-33.5-14.4 22.8-20.4 20.4-6-13.2-2.4-14.4 12-25.1 0-28.7-15.6 12-20.3 9.6c-4.8-2.4 4.8-27.5 4.8-27.5s0-24 1.2-31.1c1.2-7.4-4.8-20.6-14.4-13.4z"/><path d="m466.5 1028.4s-1.2-14.4 6-15.6 22.7 3.6 31.1 18 19.2 50.3 18 64.7 4.8 31.1-9.6 31.1-27.5-10.8-27.5-15.6 3.6-15.6 7.2-10.8 12 16.8 15.6 14.4 7.2-14.4 2.4-19.2-9.6-12-13.2-26.3c-3.7-14.3-26.4-41.9-30-40.7zm-148.5-34.7s-16.8-15.6-38.3-1.2c-21.6 14.4-7.2 47.9-7.2 47.9s-7.2 47.9-8.4 55.1 6 24 2.4 26.3c-3.6 2.4-12 7.2-16.8 1.2s-10.8-21.6-14.4-19.2-14.4 24-14.4 27.5-12 18-16.8 27.5c-4.8 9.6-1.2 67.1 8.4 77.8 9.6 10.8 22.7 34.7 32.3 39.5s14.4 2.4 22.8 3.6 15.6 2.4 10.8-8.4-14.4-18-19.2-25.1c-4.8-7.2-10.8-26.4-10.8-34.7s-6-38.3-6-38.3-10.8-14.4-12-24-6-20.4 2.4-20.4 9.6 20.4 18 26.3c8.4 6 22.7 15.6 24 21.6 1.2 6 0 19.2 6 15.6s9.6-7.2 8.4-13.2 0-14.4 0-14.4-13.2-6-19.2-14.4-7.2-24 1.2-25.1c8.4-1.2 18-21.6 26.3-24 8.4-2.4 32.3-14.4 34.7-18s1.2-21.6 4.8-20.4 4.8 13.2 9.6 13.2 14.4-8.4 15.6-14.4 1.2-15.6 4.8-19.2 4.8-33.5 6-38.3 13.2-20.4 14.4-28.7c1.2-8.4 3.6-15.6 0-15.6s-18 2.4-19.2 13.2-6 20.4-13.2 20.4-18 7.2-18 15.6 2.4 37.1-1.2 35.9-9.6-12-13.2-8.4-24 26.3-24 33.5-15.6 21.6-19.2 20.4-13.2-4.8-3.6-16.8 32.3-41.9 34.7-46.7-7.2 0-12-2.4-7.2-9.6 3.6-9.6c11.1.4 25.5-6.8 15.9-21.2zm67 105.4s-9.6 13.2-9.6 18 14.4 16.8 19.2 21.6 8.4 27.5 10.8 43.1 9.6 35.9 15.6 43.1 10.8 8.4 26.3 27.5c15.6 19.2 41.9 27.5 47.9 28.8 6 1.2 13.2 1.2 13.2 1.2s-2.4-9.6-7.2-15.6-51.5-61.1-57.5-65.9-31.1-28.7-29.9-34.7 2.4-14.4 0-18-20.4-22.7-21.6-28.7 1.2-19.2-7.2-20.4zm33.6-2.4s1.2 14.4 4.8 16.8 10.8 3.6 10.8 0c-.1-3.6-9.6-18-15.6-16.8zm31.1 63.5s18-2.4 25.1 1.2c7.2 3.6 18 28.7 29.9 33.5 12 4.8 19.2 22.8 22.7 27.5 3.6 4.8 16.8 56.3 2.4 56.3s-10.8-14.4-12-18-16.8-21.6-25.1-31.1c-8.4-9.6-6-20.3-8.4-24-2.4-3.6-4.8 3.6-16.8-3.6s-8.4-13.2-8.4-16.8-2.4-6-4.8-9.6c-2.2-3.4-11.8-15.4-4.6-15.4zm-91-18s0 21.6-3.6 27.5c-3.6 6-19.2 68.3-18 87.4 1.2 19.2 2.4 44.3 4.8 47.9s7.2 6 9.6-6-2.4-20.4 3.6-25.1 24-18 25.1-22.7c1.2-4.8 1.2-18 0-25.1-1.2-7.2-13.2-61.1-13.2-65.9.1-4.8 3.7-24-8.3-18z"/><path d="m340.7 1151.8s-16.8 6-20.4 10.8-1.2 4.8 4.8 4.8 15.6-15.6 15.6-15.6zm-26.3 32.3s1.2 9.6-2.4 13.2-19.2 15.6-16.8 21.6 8.4 9.6 13.2 3.6 6-14.4 6-14.4l10.8-14.4s-3.6-15.6-10.8-9.6zm1.2 51.5s-3.6 2.4-8.4 2.4-13.2 2.4-14.4 7.2-2.4 46.7 24 47.9c0 0 7.2-8.4 3.6-18s-13.2-10.8-9.6-18c3.6-7.1 8.4-15.5 4.8-21.5zm-75.5 246.8s-19.2-10.8-24-19.2-14.4-13.2-10.8-21.6 16.8-35.9 15.6-47.9 2.4-43.1 18-51.5 35.9-28.8 41.9-26.3c6 2.4 9.6 16.8 13.2 28.7 3.6 12 20.4 28.8 16.8 34.8s-10.8 25.1-6 31.1 10.8 43.1 7.2 47.9-24 20.4-25.1 25.1-2.4 52.7-21.6 50.3-12-10.8-7.2-16.8 6-26.4 4.8-40.7c-1.2-14.4 0-15.6 6-31.1 6-15.6 1.2-47.9 7.2-65.9s9.6-25.1 9.6-32.3 4.8-16.8-7.2-18-21.6 9.6-26.4 12-25.1 18-20.3 25.1c4.8 7.2 13.2 4.8 14.4 1.2s8.4 3.6 7.2 12 1.2 51.5-9.6 51.5-21.6-7.2-20.4 4.8 13.2 23.9 16.8 31.1c3.5 7.2-.1 15.7-.1 15.7zm63.5 25.1s2.4-16.8 8.4-19.2 9.6 1.2 19.2-3.6 18-19.2 20.4-12-12 16.8-13.2 21.6-13.2 27.6-20.4 26.3c-7.2-1.1-14.4-9.5-14.4-13.1zm83.8-243.1s2.4 22.7-1.2 28.8c-3.6 6-9.6 12-14.4 20.3s-9.6 28.8-14.4 32.3c-4.8 3.6-14.4 18-9.6 25.1 4.8 7.2 8.4 10.8 10.8 3.6s-3.6-22.7 2.4-27.5 14.4-7.2 16.8-16.8 15.6-20.3 19.2-21.6c3.6-1.1 9.6-43-9.6-44.2zm-29.9 124.5s2.4 13.2 0 20.4 8.4 18 10.8 21.6 0 20.3 10.8 26.3 19.2 9.6 26.4 8.4 16.8-4.8 24-6 25.1-3.6 24 4.8c-1.2 8.4 2.4 26.3 18 25.1s31.1-20.4 31.1-20.4-13.2-9.6-24-14.4-24-6-32.3-6-21.6 9.6-37.1 3.6c-15.6-6-25.1-8.4-31.1-18s-16.8-38.3-14.4-44.3c2.2-5.9-6.2-1.1-6.2-1.1z"/><path d="m410.2 1420.1s1.2-8.4 7.2-6 9.6 9.6 6 13.2-4.8 13.1-13.2-7.2zm-20.4-65.9s-1.2 9.6 2.4 12 10.8 2.4 9.6-2.4-8.4-10.8-12-9.6zm47.9-34.7s6 10.8 6 16.8 0 45.5 10.8 44.3 12-3.6 14.4-8.4 7.2-12 2.4-19.2-13.2-8.4-15.6-14.4 0-13.2 6-13.2 29.9 20.4 40.7 20.4 24 0 20.4 7.2-14.4 9.6-14.4 14.4 15.6 8.4 20.3 9.6c4.8 1.2 2.4 7.2 2.4 7.2s-8.4 21.6 7.2 26.3c15.6 4.8 22.7 10.8 22.7 10.8s1.2 24 8.4 21.6 10.8-13.2 6-20.3c-4.8-7.2-12-10.8-15.6-20.4s-6-32.3-12-39.5-8.4-13.2-14.4-18-16.8-10.8-24-10.8-20.4-2.4-31.1-10.8c-10.6-8.4-38.2-8.4-40.6-3.6z"/><path d="m464.1 1412.9s-3.6-4.8 2.4-10.8 8.4-25.1 14.4-24c6 1.2 19.2 16.8 18 24s2.4 31.1-13.2 29.9c-15.6-1.1-24-13.1-21.6-19.1zm46.7 2.4s-4.8 7.2-7.2 16.8 7.2 25.1 12 28.7 13.2 10.8 22.8 7.2 14.4-8.4 9.6-16.8-10.8-15.6-13.2-12 2.4 16.7-6 16.7-7.2-6-7.2-19.2-7.2-25-10.8-21.4zm-106.6 62.2s29.9 64.7 37.1 69.5 31.1 10.8 38.3 9.6 12-10.8 9.6-18-4.8-18-12-18-9.6 12-12 15.6-9.6 0-9.6-4.8-16.7-67-51.4-53.9zm106.6 2.4c-2.2 2.8 0 9.6-3.6 10.8s-2.4 20.4 8.4 16.8 33.5-9.6 28.7-16.8-23.9-22.7-33.5-10.8zm-12 54s3.6 12 3.6 18-1.2 18 12 14.4 27.5-9.6 32.3-9.6 26.3 0 31.1-2.4 14.4-21.6 6-27.5c-8.4-6-33.5-12-33.5-12s7.2 18 8.4 22.7c1.2 4.8-6 8.4-10.8 6s-14.4 10.8-19.2 6c-4.7-4.9-22.7-33.6-29.9-15.6zm-200 51.4s-9.6 4.8-10.8 10.8-8.4 45.5-6 62.3 9.6 25.1 13.2 18c3.6-7.2 6-25.1 8.4-29.9s3.6-24 6-33.5c2.4-9.7-13.2-22.9-10.8-27.7zm0 111.4s13.2 0 14.4-6 3.6-24 9.6-19.2 6 25.1 1.2 27.6c-4.8 2.4-20.4 19.2-25.2-2.4zm37.1-101.8 14.4-2.4 15.6 2.4v29.9c0 9.6 4.8 23.9 4.8 31.1s7.2 23.9 1.2 29.9 10.8 20.3 10.8 20.3 10.8 40.7 18 41.9 14.4 1.2 14.4-2.4-8.4-8.4-10.8-27.6 1.2-40.7-6-51.5-10.8-1.2-10.8-18 2.4-47.9 0-61.1-7.2-28.8-10.8-34.7c-3.6-6-9.6-25.1-9.6-25.1s-3.6-14.4-1.2-18 7.2-3.6 9.6 1.2 6 28.8 10.8 32.3c4.8 3.6 14.4 7.2 21.6 15.6s27.5 52.7 27.5 52.7-4.8 26.4 1.2 38.3c6 12 15.6 32.3 4.8 40.7s9.6 37.1-3.6 52.7-7.2 27.6-28.7 21.6c-21.6-6-26.3-25.1-34.7-38.3s-20.3-10.8-22.7-28.7c-2.4-18-8.4-20.4-10.8-33.5-2.4-13.2-2.4-29.9-6-40.7-3.8-10.6-7.3-26.2 1-28.6zm119.8 6s1.2 12 4.8 31.1c3.6 19.2 16.8 24 28.7 24s32.3 7.2 37.1 9.6 18 7.2 24 4.8 15.6 7.2-6-15.6-27.5-31.2-41.9-37.1c-14.4-6-45.5-20.4-46.7-16.8zm38.3-10.8s8.4-8.4 16.8-8.4 20.4 3.6 24 3.6 21.6 12 22.7 24c1.2 12-2.4 21.6 2.4 26.3 4.8 4.8 14.4 33.5 10.8 32.3s-6-10.8-16.8-25.1c-10.8-14.4-22.7-19.2-26.4-28.8-3.6-9.6 0-12-12-14.4-11.9-2.3-28.7.1-21.5-9.5zm1234.8 105.4 39.5-2.4-12 9.6h-25.1zm-206-208.4 21.5-14.3 2.4 3.5-19.1 14.4zm45.5-22.7s52.7-31.1 57.5-31.1 31.1-7.2 31.1-7.2l-10.8 12-77.8 33.5zm-27.6 34.7 33.6-12-16.8 16.8h-18zm240.8-295.8-7.2 19.2-14.4 44.3-31.1 3.5-12-1.1-89.8 41.9 82.6-46.7 26.4-18-4.8-3.6 37.1-21.5zm74.2-282.6-116.2 106.5 2.5 3.6 113.7-103zm2.4 15.5-214.4 191.6-1.1 4.8 217.9-188zm-6 28.8-220.3 188 5.9 2.4 220.4-189.2zm-159.3 156.9 147.3-123.4v4.8zm24-4.8 119.8-97 3.5 4.7zm15.5-265.9-134.1 176 3.6 1.2 138.9-177.2zm20.4-1.2-125.7 154.5-85.1 111.4v9.6l218-273.1zm-156.9-1.2-56.2 95.8 4.7-2.4 52.7-88.6zm14.4 2.4-58.7 98.2 6-2.4 55.1-89.8zm-186.8-1.2-19.2 65.9 27.6-65.9zm17.9 0-27.5 74.3 2.4 13.1 34.7-86.2zm18 1.2-12 31.1 21.6-32.3zm-505.1-2.7h42.2l71 126.6s-.9 13.5 1.8 18 0 25.1-2.7 25.1-25.1-27.8-25.1-27.8zm-18 .9 7.2-.9 65.6 107.8 40.4 70.9-2.7 2.7-36.8-61zm-20.6.9h9l26.9 43.1 90.7 146.4-.9 8.1-86.2-133.8zm-18 .9h6.3l54.8 84.4-2.7 1.8zm-181.4-1.8h26l244.3 265.9.9 6.3zm-19.8 0h9l279.3 282 3.6 12.6-294.6-286.5zm8.1 33.2 282.9 277.6-.9 3.6-287.4-271.3zm-.9 44v-7.1l275.7 250.6-3.5 8.9zm3.6 20.7v7.2l168 146.4zm18.9 135.6 4.4 9.9 214.7 150 .9-2.7-212-157.2zm8.9 30.6 1.8 6.3 196.8 135.6 10.7 1.8-7.2-9-195.8-134.7zm10.8 29.6 8.1-.9 186.8 124.9 3.6 6.3-6.3 1.7-185-121.2zm31.5 119.5 121.2 62.8 9.9-.8-125.8-64.7zm26 107.8s-1.8-9.9.9-9 210.2 86.2 210.2 86.2zm22.5 23.3 1.8 5.4 104.1 31.5zm864.9 360.2c2.8-6.5 11.9-22.1 23.6-40.8l40.7-5.3c-22.3 22.5-45.9 43.6-70.7 63.3 2.2-6.4 4.4-12.5 6.4-17.2zm-429.4-904 .7 24c-9.3-4.7-38.4-18.5-50.2-14.9-.6-3-.9-6-1-9.1zm-87.3 35.2c-13.5 10.3-26.6 20.2-33 22.7-1.3.5-3 1.4-5 2.6l-5.4-60.5h41.4zm-390.8 823c18.4 26.7 35.6 50.6 47.9 64.7 0 0 1.7 7.5.8 15.1-32.9-24.1-63.8-50.8-92.5-79.8zm518-858.1 2.4 13.2 10.8 1.2 6-14.4zm607.8 559c16.2-13.5 27-40.4 27-40.4s0-32.3 8.1-45.8c1.1-1.8 2.1-4.7 3-8.3l6.9 34.3c-7.2 7.2-16.2 43.1-21.6 53.9s-1.8 32.3-1.8 41.3-19.8 46.7-27 57.5c-1.4 2.1-2.7 6.1-3.9 11.3-14.3 2.4-33.7-.1-45.6-2.1 2.9-4.8 5-8.4 6.3-10.1 8.2-10.8 32.4-78.1 48.6-91.6zm-102.9 241.9-48.4-1.8c10.7-14.5 20.5-26.5 27.3-32.6 8.9-7.9 20.4-24.2 31.7-42.2l46.2-1s6 4.8 4.8 8.4c-.8 2.5-12 21.1-18.8 32.3l-10.3-7.7c-.1.1-10.8 17.7-32.5 44.6zm76-62c1.3-3.2 8.2-7.2 14.3-10.1.5 1.8 1.1 3 1.9 3.5 7.2 5.4 3.6 19.8 3.6 19.8s7.2 25.1 7.2 35.9c0 5 5.4 17.2 11.1 29l-57.4-42.6c5.2-9.1 17.4-30.8 19.3-35.5zm-46.7-40.7s3.6-1.2 15.6-3.6 25.1-7.2 28.8-3.6c3.6 3.6-3.6 8.4-7.2 8.4s-30.1 8.4-37.2-1.2z"/></g><path d="m1474.9 1891.9s6-6 4.8-14.4 0-89.8 1.2-106.6 4.8-74.3 4.8-79.1 9.6 86.2 9.6 101.8 1.2 82.6 12 89.8c-.1.2-22.8 12.1-32.4 8.5z" fill="#fff"/><path d="m626.3 1427.8 1.9 5.3-30.3-4.6-.4-.6c-12.6-18-28.7-80.8-28.7-80.8v-4l23.5 6.2c7.7 27.8 18.6 55.3 34 78.5zm-69.8-271.8 18.7 32s-1.5 28.7 1.6 68.4l-13.2-4.9c-.5-2.9-1.1-5.9-1.9-8.7-7.2-25.1-9-46.7-16.2-55.7s-12.6-9-14.4-14.4c-1.5-4.7 16.1-6.6 25.4-16.7zm-.2-53.3s-8.4-13.2-7.2-21.6 9.6-29.9 9.6-29.9 6 51.5-2.4 51.5zm53.9 340.7 22.7 2.4-1.2 3.6zm1.2 12h21.5v4.8h-29.9zm-4.8 15.6 29.9 4.7-1.2-5.9-25.1-2.4zm18 81.4 53.8 1.2 3.6 4.8-53.8-1.2zm91 117.4h28.7l-21.5 1.2zm-146.1-398.8 8.4-1.2v9.6l-12-3.7zm-2.4 23.9 1.2 4.8 9.6-1.2-1.3-4.8z" fill="#e7cd4e"/></g></svg>