<svg clip-rule="evenodd" fill-rule="evenodd" height="50mm" image-rendering="optimizeQuality" shape-rendering="geometricPrecision" text-rendering="geometricPrecision" viewBox="-6.13 6.13 5000 5000" width="50mm" xmlns="http://www.w3.org/2000/svg"><path d="m-6.13 6.13h5000v5000h-5000z" fill="#2f046b"/><path d="m3307.89 1464.99c-100.99 0-182.86-81.87-182.86-182.87 0-100.99 81.87-182.86 182.86-182.86s182.86 81.87 182.86 182.86c0 101-81.87 182.87-182.86 182.87z" fill="#fefefe"/><path d="m3046.16 1568.8-.62-471.87h-553.76v921.8c42.23 25.78 79.46 56.03 112.54 89.9a635.389 635.389 0 0 1 54.4 63.61c-52.93 58.46-108.94 114.31-166.94 165.69v1.8c251.65-223.2 465.77-529.81 554.38-770.93zm1498.5-472.1-684.35.09c-312.09 311.01-922.05 1021.56-1286.12 1297.74 50.88-36.53 100.2-76.27 147.48-118.38 37.97 79.17 59.11 166.62 59.11 256.9 0 148.56-57.83 291.04-152.13 400.18-39.02 45.18-84.27 84.54-136.87 116.68v102.67h553.76v-813.72l814.86 810.5 684.05-.13-1027.75-1028.05z" fill="#ffcc29" fill-rule="nonzero"/><path d="m1158.93 1096.05c-273.79 0-429 72.77-538.52 184.93-109.52 112.15-176.47 263.76-176.47 427.46 0 166.74 63.89 315.3 173.42 427.47 109.52 112.17 267.75 184.93 541.57 184.93h852.08c79.1 0 117.9 15.88 146.04 45.47 26.62 28.01 42.6 66.7 42.6 109.15 0 30.38-8.82 58.38-23.86 81.14 169.22-83.22 337.66-223.91 482.93-384.36a635.413 635.413 0 0 0 -54.41-63.62c-109.52-112.17-264.72-184.93-495.94-184.93h-919.01c-63.88 0-93.83-9.7-118.66-30.31-29.93-24.85-51.72-63.67-51.72-109.14 0-42.45 15.23-78.84 42.6-106.11 24.33-24.24 60.84-39.42 127.78-39.42 82.14 0 929.79.15 929.79-.12 160.27-4.39 290-136.84 290-298.13v-243.44c-416.56 0-832.81-.97-1250.22-.97zm-24.49 1524.81h-402.66c-158.71 0-288.55 129.85-288.55 288.56v235.52h.37l-.52.51h1665.29c243.41 0 407.69-81.86 520.28-212.21 94.3-109.15 152.12-251.63 152.12-400.19 0-90.29-21.13-177.73-59.1-256.9-182.33 162.41-395.05 289.96-611.52 331.39-24.67 8.78-56.52 13.43-99.14 13.43h-10.9l-.11.01.03-.01h-865.59z" fill="#fefefe"/><g fill-rule="nonzero"><path d="m448 3355.36c0 107.65 106.31 140.27 200.33 169.43 74.49 22.74 140.81 43.2 140.81 95.09 0 65.93-107.38 66.72-134.53 66.72-87.45 0-135.47-8.15-177.72-15.23-7.36-1.21-12.85-2.4-17.93-2.4-7.35 0-11.37 3.61-11.37 10.95l-.26 21.53c-.81 30.1 8.15 46.55 38.24 51.63 61.25 10.15 126.38 11.36 159.27 11.36 116.09 0 236.31-24.21 236.31-145.77 0-113.53-113.27-148.18-181.87-169.44-99.09-30.21-161.42-49.07-161.42-97.35 0-53.09 75.97-64.06 144.97-64.06 29.82 0 84.38 1.87 137.2 10.57 8.29 1.21 16.06 2.8 23.95 2.8 7.08 0 11.36-4.01 11.36-13.78v-30.48c0-25-16.04-32.77-39.18-37.17-53.35-9.36-114.08-9.77-134.14-9.77-97.61 0-234.02 19.92-234.02 145.37zm684.59 409.08c160.22 0 199.67-85.99 199.67-205.54 0-149.12-88.94-193.1-199.67-193.1-110.99 0-199.92 43.98-199.92 193.1 0 119.55 39.06 205.54 199.92 205.54zm0-74.61c-27.8 0-49.73-3.49-66.19-10.57-33.03-13.78-47.08-49.21-47.08-120.36 0-84.13 22.34-120.37 113.27-120.37 91.48 0 113.01 36.24 113.01 120.37 0 35.84-3.47 62.98-10.96 81.84-14.44 37.71-47.07 49.09-102.05 49.09zm614.39-309.87c0-5.08-3.49-7.89-10.97-7.89h-64.19c-8.29 0-13.78 2.81-16.05 7.89l-110.86 248.74-113.67-248.74c-2.82-5.08-8.57-7.89-18.06-7.89h-66.2c-5.89 0-8.95 2.81-8.95 7.89 0 2.02 1.06 5.89 3.87 10.98l162.22 328.71-86.92 170.37c-1.21 2.8-2.02 5.89-2.02 9.89 0 5.49 2.68 8.17 7.77 8.17h62.71c9.1 0 15.25-3.09 18.46-9.77l240.18-510.46c1.87-3.61 2.68-6.28 2.68-7.89z" fill="#ffcc29"/><path d="m1807.43 3752.14c0 5.08 4.01 9.09 9.1 9.09h69.28c5.07 0 9.08-4.01 9.08-9.09v-528.24c0-5.09-4.01-9.1-9.08-9.1h-59.12c-10.97 0-19.26 8.29-19.26 19.26zm428.62 1.2c0-4.27-2.28-8.29-5.08-11.36l-233.91-268.8 228.42-239.12c2.81-3.08 5.08-7.09 5.08-11.37 0-5.07-2.68-7.89-7.75-7.89h-79.57c-7.49 0-13.64 3.21-18.86 8.69l-202.88 222.14c-23.93 26.34-23.52 35.3 0 63.12l205.3 242.6c5.06 5.87 10.55 9.88 18.84 9.88h81.86c5.06 0 8.55-2.4 8.55-7.89zm216.79-387.54c-100.15 0-151.64 41.58-151.64 140.27v246.07c0 5.08 4.01 9.09 8.95 9.09h66.33c4.96 0 8.96-4.01 8.96-9.09v-259.43c0-38.8 22.33-54.18 64.19-54.18 43.47 0 69.81 1.62 84.26 1.62 6.28 0 9.36-3.09 9.36-8.96v-36.64c0-15.12-5.08-22.62-22.33-24.48a543.642 543.642 0 0 0 -68.08-4.27zm312.01-.14c-40.78 0-75.3 5.89-104.05 17.11-56.43 23-87.32 76.63-87.32 178.54 0 124.63 39.46 203.13 195.38 203.13 53.37 0 93.74-1.59 121.43-4.68 19.12-2 28.48-12.57 28.48-31.29v-35.43c0-6.7-3.47-10.31-10.55-10.31-3.49 0-11.64.81-24.61 2.01-35.84 3.62-70.08 5.09-102.58 5.09-73.42 0-105.24-12.18-116.22-67.27l150.72-27.16c44.81-7.34 77.17-19.65 96.97-36.5 19.91-16.98 30.08-43.33 30.08-79.04 0-55.37-33.57-114.2-177.73-114.2zm6.29 68.19c61.24 0 85.59 14.45 85.59 47.62 0 31.03-7.77 42.39-74.89 54.15l-121.71 22.48v-12.98c0-81.85 20.74-111.27 111.01-111.27zm480.66 253.84c-7.77 1.86-19.94 3.87-36.78 5.47-16.85 1.47-33.31 2.28-48.69 2.28-60.71 0-98.28-10.57-98.28-49.88 0-24.47 13.64-39.32 41.04-44.54l142.71-26.74zm-85.07-322.03c-62.72 0-104.17 4.01-127.57 7.48-16.73 2.68-26.88 11.24-26.88 30.37v35.02c0 5.23 2.67 7.49 7.75 7.49 4.68 0 11.36-.79 20.32-2 21.81-3.07 59.38-7.75 121.7-7.75 33.31 0 56.84 4.28 69.81 12.57 12.98 8.29 19.53 22.34 19.53 41.73 0 10.95-2.68 13.36-10.16 16.44-12.84 5.09-38.38 9.89-96.02 20.46-8.96 1.61-18.46 3.21-29.02 5.08-44.27 7.49-77.43 19.8-100.03 36.65-22.6 16.98-33.98 42.53-33.98 76.36 0 55.77 23 118.88 178.28 118.88 50.28 0 103.1-3.61 146.56-11.36 19.93-3.49 29.02-12.85 29.02-32.64v-212.22c0-50.82-13.36-87.2-40.38-109.4-27.02-22.21-70.09-33.16-128.93-33.16zm429.29 398.64c48.41 0 95.48-4.27 141.76-13.23 20.32-4.41 29.68-13.38 29.68-33.7v-478.5c0-25.81-11.76-38.78-35.43-38.78h-39.72c-5.49 0-8.29 2.81-8.29 8.29v162.89c-22.34-4.02-53.76-5.47-94.29-5.47-60.04 0-105.24 11.76-135.46 35.16-39.85 31.02-59.93 83.58-59.93 158.07 0 125.44 29.84 205.27 201.68 205.27zm5.09-74.35c-91.88 0-120.9-16.44-120.9-129.05 0-80.76 17.66-120.75 115.81-120.75 30.35 0 59.38 2 88 6.27v220c0 8.96-3.48 14.05-10.58 16.05-20.86 5.08-45.19 7.48-72.33 7.48zm425.82 74.49c160.21 0 199.66-85.99 199.66-205.54 0-149.12-88.94-193.1-199.66-193.1-111 0-199.93 43.98-199.93 193.1 0 119.55 39.06 205.54 199.93 205.54zm0-74.61c-27.81 0-49.74-3.49-66.2-10.57-33.03-13.78-47.07-49.21-47.07-120.36 0-84.13 22.33-120.37 113.27-120.37 91.47 0 113 36.24 113 120.37 0 35.84-3.47 62.98-10.95 81.84-14.45 37.71-47.08 49.09-102.05 49.09zm410.18-324.03c-100.16 0-151.65 41.58-151.65 140.27v246.07c0 5.08 4.01 9.09 8.96 9.09h66.32c4.96 0 8.96-4.01 8.96-9.09v-259.43c0-38.8 22.33-54.18 64.2-54.18 43.46 0 69.81 1.62 84.25 1.62 6.28 0 9.36-3.09 9.36-8.96v-36.64c0-15.12-5.08-22.62-22.33-24.48a543.483 543.483 0 0 0 -68.07-4.27zm-2582.53 536.76c-22.86 0-34.09-12.49-34.09-35.09 0-22.62 11.23-35.03 34.09-35.03 7.01 0 14.18 0 21.21.6 1.3.15 2.53.29 3.84.29.89 0 1.46-.4 1.46-1.37 0-2.63.68-8.69-1.38-10.62-1.11-1.03-2.62-1.36-4.06-1.57-6.83-1.03-14.18-.97-21.07-.97-31.32 0-49.97 16.73-49.97 48.67 0 31.92 18.59 48.71 49.97 48.71 4.54 0 22.1.28 25.13-2.54 1.1-1.03 1.38-2.63 1.38-4.06v-6.56c0-.96-.57-1.36-1.46-1.36-1.31 0-2.54.14-3.84.2-7.11.48-14.13.7-21.21.7zm118.48 0c-9.01 0-18.68-1.93-24.05-9.88-4.94-7.3-6.6-16.46-6.6-25.21 0-8.69 1.66-17.86 6.6-25.16 5.37-7.95 15.04-9.87 24.05-9.87 9.03 0 18.64 1.92 23.99 9.87 4.93 7.3 6.59 16.47 6.59 25.16 0 8.75-1.66 17.91-6.59 25.21-5.35 7.95-14.96 9.88-23.99 9.88zm-.05 13.62c31.03 0 46.52-18.39 46.52-48.71 0-30.26-15.55-48.67-46.52-48.67-31 0-46.48 18.41-46.48 48.67 0 30.27 15.41 48.71 46.48 48.71zm114.72-94.95c-.57-.71-1.17-1.6-2.14-1.6h-9.84c-1.94 0-3.39 1.46-3.39 3.38v91.03c0 .9.7 1.6 1.6 1.6h12.17c.89 0 1.6-.7 1.6-1.6v-66.99c0-1.03.12-1.6.47-1.6.28 0 .68.35 1.17 1.04l49.82 67.55c.55.76 1.03 1.6 2.06 1.6h10.2c1.86 0 3.1-1.24 3.1-3.1v-91.31c0-.89-.7-1.6-1.6-1.6h-10.38c-1.93 0-3.38 1.46-3.38 3.38v63.35c0 1.04-.14 1.6-.48 1.6-.35 0-.67-.35-1.24-1.03zm169.66 81.33c-22.86 0-34.09-12.49-34.09-35.09 0-22.62 11.23-35.03 34.09-35.03 7.01 0 14.18 0 21.21.6 1.3.15 2.53.29 3.84.29.89 0 1.46-.4 1.46-1.37 0-2.63.68-8.69-1.38-10.62-1.11-1.03-2.62-1.36-4.06-1.57-6.83-1.03-14.18-.97-21.07-.97-31.32 0-49.97 16.73-49.97 48.67 0 31.92 18.59 48.71 49.97 48.71 4.54 0 22.1.28 25.13-2.54 1.11-1.03 1.38-2.63 1.38-4.06v-6.56c0-.96-.57-1.36-1.46-1.36-1.31 0-2.54.14-3.84.2-7.11.48-14.13.7-21.21.7zm96.28-67.49c0-1.17.47-1.92 1.78-1.92h44.67c2.89 0 4.35-1.51 4.35-4.4v-7.38c0-1.11-.49-1.73-1.52-1.73h-63.04c-.91 0-1.6.7-1.6 1.59v92.81c0 .9.69 1.57 1.6 1.57h60.21c2.89 0 4.35-1.57 4.35-4.67v-7.23c0-1.05-.49-1.58-1.52-1.58h-47.5c-1.31 0-1.78-.76-1.78-2v-25.14c0-1.17.47-1.96 1.78-1.96h38.47c2.91 0 4.36-1.57 4.36-4.67v-6.54c0-1.03-.48-1.56-1.51-1.56h-43.1zm120.47 31.95c-1.3 0-1.78-.75-1.78-2v-30.58c0-1.16.54-1.86 1.78-1.86h21.93c11.84 0 22.39 3.59 22.39 17.22 0 13.3-9.56 17.22-21.36 17.22zm-3.38 48.62c.89 0 1.6-.7 1.6-1.6v-31.32c0-1.11.32-2.21 1.65-2.21h24.12c20.82 0 35.98-7.63 35.98-30.43 0-22.79-15.16-30.44-35.98-30.44h-37.69c-2 0-3.44 1.45-3.44 3.45v90.95c0 .9.69 1.6 1.6 1.6zm111.13-96c-2.89 0-4.32 1.59-4.32 4.69v7.23c0 1.03.46 1.59 1.49 1.59h27.54c1.32 0 1.8.75 1.8 1.99v78.9c0 .9.69 1.6 1.6 1.6h12.16c.89 0 1.6-.7 1.6-1.6v-78.9c0-1.24.48-1.99 1.78-1.99h24.73c2.89 0 4.32-1.51 4.32-4.4v-7.38c0-1.11-.47-1.73-1.51-1.73zm158.3 82.92c-9.01 0-18.68-1.93-24.04-9.88-4.94-7.3-6.6-16.46-6.6-25.21 0-8.69 1.66-17.86 6.6-25.16 5.36-7.95 15.03-9.87 24.04-9.87 9.03 0 18.64 1.92 23.99 9.87 4.94 7.3 6.6 16.47 6.6 25.16 0 8.75-1.66 17.91-6.6 25.21-5.35 7.95-14.96 9.88-23.99 9.88zm-.04 13.62c31.03 0 46.51-18.39 46.51-48.71 0-30.26-15.54-48.67-46.51-48.67-31 0-46.49 18.41-46.49 48.67 0 30.27 15.41 48.71 46.49 48.71z" fill="#fefefe"/><path d="m2913.06 3899.59-26.75-74.93c-1.05-2.82-3.86-5.03-6.89-5.03h-8.06c-1.25 0-2.48.63-2.48 2.06 0 1.46 31.13 85.11 33.8 92.35.36.9 1.17 1.57 2.14 1.57h17.27c.97 0 1.86-.67 2.21-1.57 2.68-7.24 33.78-90.89 33.78-92.35 0-1.43-1.15-2.06-2.46-2.06h-8.13c-3.03 0-5.78 2.21-6.81 5.03l-26.7 74.93zm98.18 14.45c0 .9.69 1.6 1.6 1.6h12.16c.9 0 1.6-.7 1.6-1.6v-92.81c0-.89-.7-1.6-1.6-1.6h-10.38c-1.93 0-3.38 1.46-3.38 3.38zm69.94-69.72c0 18.92 18.68 24.65 35.21 29.77 13.08 4 24.74 7.6 24.74 16.72 0 11.58-18.87 11.72-23.65 11.72-15.36 0-23.8-1.43-31.21-2.68-1.31-.21-2.27-.41-3.16-.41-1.29 0-2 .63-2 1.92l-.04 3.78c-.14 5.29 1.43 8.18 6.72 9.07 10.76 1.79 22.2 2 27.98 2 20.39 0 41.52-4.26 41.52-25.62 0-19.94-19.9-26.03-31.95-29.77-17.42-5.32-28.37-8.62-28.37-17.11 0-9.32 13.34-11.26 25.48-11.26 5.24 0 14.82.34 24.11 1.86 1.46.22 2.81.5 4.2.5 1.24 0 1.99-.71 1.99-2.42v-5.36c0-4.39-2.81-5.76-6.88-6.54-9.37-1.64-20.04-1.71-23.56-1.71-17.16 0-41.13 3.51-41.13 25.54zm170.31 71.86c27.49 0 40.36-14.45 40.36-41.55v-53.4c0-.89-.69-1.6-1.58-1.6h-10.4c-1.92 0-3.38 1.46-3.38 3.38v51.62c0 17.04-6.59 28.77-25 28.77-18.38 0-25.05-11.65-25.05-28.77v-53.4c0-.89-.71-1.6-1.6-1.6h-10.38c-1.94 0-3.38 1.46-3.38 3.38v51.62c0 27.1 12.95 41.55 40.41 41.55zm150.48-22.28c1.04 0 1.73.55 2.13 1.51l7.92 18.85c.36.75 1.11 1.38 2 1.38h8.4c2.27 0 4.49-1.03 4.49-3.7 0-.79-.22-1.46-.49-2.16l-37.15-88.55c-.36-.89-1.33-1.6-2.3-1.6h-8.51c-2.3 0-3.19 1.03-3.94 2.63-3.23 7.1-38.41 90-38.41 91.38 0 1.3 1.24 2 2.41 2h9.29c2 0 3.92-.27 4.95-2.75l7.32-17.41c.4-.97 1.03-1.58 2.11-1.58zm-4.39-14.44c.28.75-.75.95-1.46.95h-28.47c-.57 0-1.05-.2-1.05-.81 0-.35.15-.71.29-1.03l14.16-35.17c.7-1.78 1.39-1.78 2.08 0zm146.93 24.25c0-1.05-.49-1.58-1.52-1.58h-46.81c-1.72 0-2.48-1.03-2.48-2.68v-78.22c0-.89-.7-1.6-1.59-1.6h-10.38c-1.94 0-3.39 1.46-3.39 3.38v91.03c0 .9.7 1.57 1.6 1.57h60.22c2.89 0 4.35-1.57 4.35-4.67z" fill="#ffcc29"/><path d="m3674.32 3902.56c-9.01 0-18.68-1.93-24.05-9.88-4.93-7.3-6.59-16.46-6.59-25.21 0-8.69 1.66-17.86 6.59-25.16 5.37-7.95 15.04-9.87 24.05-9.87 9.03 0 18.64 1.92 23.99 9.87 4.93 7.3 6.6 16.47 6.6 25.16 0 8.75-1.67 17.91-6.6 25.21-5.35 7.95-14.96 9.88-23.99 9.88zm-.04 13.62c31.03 0 46.51-18.39 46.51-48.71 0-30.26-15.55-48.67-46.51-48.67-31 0-46.49 18.41-46.49 48.67 0 30.27 15.41 48.71 46.49 48.71zm116.49-51.27c-1.31 0-1.78-.75-1.78-1.99v-28.48c0-1.16.53-1.86 1.78-1.86h22.59c11.12 0 20.33 3.66 20.33 16.16 0 12.18-8.21 16.17-19.3 16.17zm42.98 48.99c.83 1.04 2 1.74 3.29 1.74h14.36c.89 0 1.51-.43 1.51-1.38 0-.68-.36-1.39-.76-1.92l-27-33.26c-.67-.82-.49-1.3.54-1.51 15.67-2.68 23.63-12.19 23.63-28.54 0-21.67-13.85-29.39-33.9-29.39h-38.35c-2 0-3.45 1.45-3.45 3.45v90.95c0 .9.7 1.6 1.6 1.6h12.17c.89 0 1.6-.7 1.6-1.6v-33.43c0-1.1.32-2.21 1.64-2.21h13.84c1.03 0 1.86.41 2.57 1.25zm70.95.14c0 .9.69 1.6 1.6 1.6h12.16c.89 0 1.6-.7 1.6-1.6v-92.81c0-.89-.71-1.6-1.6-1.6h-10.38c-1.94 0-3.38 1.46-3.38 3.38zm136.34-20.29c0 5.16-5.03 8.81-18.79 8.81-23.06 0-33.4-12.63-33.4-34.45 0-22.42 10.81-35.67 39.38-35.67 11.84 0 22.73 2.27 24.65 2.27.83 0 1.39-.43 1.39-1.38v-5.86c0-4.46-2.2-6.53-9.09-7.63-5.43-.83-13.78-1.04-17.7-1.04-36.49 0-54.51 18.05-54.51 49.37 0 31.07 17.81 48.01 49.28 48.01 6.77 0 16.33-.68 24.45-3.03 3.58-1.03 9.7-2.97 9.7-7.84v-39.81c0-.89-.69-1.57-1.58-1.57h-33.12c-1.17 0-1.71.6-1.71 1.78v6.52c0 2.97 1.43 4.48 4.4 4.48h14.87c1.31 0 1.78.77 1.78 2.01zm70.46 20.29c0 .9.69 1.6 1.6 1.6h12.16c.89 0 1.6-.7 1.6-1.6v-92.81c0-.89-.71-1.6-1.6-1.6h-10.38c-1.93 0-3.38 1.46-3.38 3.38zm87.99-92.81c-.57-.71-1.17-1.6-2.14-1.6h-9.84c-1.94 0-3.39 1.46-3.39 3.38v91.03c0 .9.7 1.6 1.6 1.6h12.17c.89 0 1.6-.7 1.6-1.6v-66.99c0-1.03.12-1.6.47-1.6.28 0 .68.35 1.17 1.04l49.82 67.55c.56.76 1.03 1.6 2.06 1.6h10.2c1.86 0 3.1-1.24 3.1-3.1v-91.31c0-.89-.7-1.6-1.6-1.6h-10.38c-1.93 0-3.38 1.46-3.38 3.38v63.35c0 1.04-.14 1.6-.47 1.6-.36 0-.68-.35-1.25-1.03zm184.26 72.67c1.04 0 1.73.55 2.13 1.51l7.92 18.85c.36.75 1.11 1.38 2 1.38h8.4c2.27 0 4.49-1.03 4.49-3.7 0-.79-.22-1.46-.49-2.16l-37.15-88.55c-.36-.89-1.33-1.6-2.3-1.6h-8.51c-2.3 0-3.19 1.03-3.94 2.63-3.23 7.1-38.41 90-38.41 91.38 0 1.3 1.24 2 2.41 2h9.29c2 0 3.92-.27 4.95-2.75l7.32-17.41c.4-.97 1.03-1.58 2.11-1.58zm-4.39-14.44c.28.75-.75.95-1.46.95h-28.47c-.57 0-1.05-.2-1.05-.81 0-.35.15-.71.29-1.03l14.16-35.17c.7-1.78 1.39-1.78 2.08 0zm146.93 24.25c0-1.05-.49-1.58-1.52-1.58h-46.81c-1.72 0-2.48-1.03-2.48-2.68v-78.22c0-.89-.7-1.6-1.59-1.6h-10.38c-1.94 0-3.39 1.46-3.39 3.38v91.03c0 .9.69 1.57 1.6 1.57h60.22c2.89 0 4.35-1.57 4.35-4.67z" fill="#fefefe"/></g></svg>