<svg height="1024" viewBox="11.73 226.89 1000.36 270.62" width="1024pt" xmlns="http://www.w3.org/2000/svg"><path d="m637.39 227.01c11.05-.12 22.1-.01 33.15-.05-.05 16.32.2 32.65-.13 48.97 3.48-6.66 9.22-12.64 16.68-14.58 8.38-1.52 17.64-1.07 24.95 3.74 8.3 5.37 12.19 15.41 12.83 24.93.03 22.02.02 44.05.01 66.07-10.98.02-21.96.01-32.93.01.06-20.72.04-41.43.01-62.15.03-4.34-2.53-9.09-7-10.12-6.05-1.58-14.7 1.96-14.37 9.19-.05 20.99-.06 41.98.01 62.98-11.08.15-22.16.19-33.24-.02.07-42.99.02-85.98.03-128.97zm-459.73 33.6c15.65-4.61 32.57-4.86 48.35-.76 8.56 2.14 16.72 7.08 21.36 14.74 2.6 4.29 2.99 9.43 2.65 14.33-11.66-.03-23.31.03-34.96-.02.02-4.57.27-10.33-4.09-13.16-5.68-3.39-15.12-2.19-17.62 4.64-1.43 3.59.98 7.78 4.61 8.78 12 4.36 25.08 5.41 36.62 11.14 7.25 3.35 14.01 8.89 16.68 16.65 4.97 13.16-2.33 30.1-16.02 34.39-15.84 5.21-32.98 5.78-49.39 3.35-6.53-1.32-13.45-2.49-18.98-6.46-8.31-6.38-12.98-16.87-13.02-27.27 12.24.04 24.49-.04 36.74.04.12 5.17.63 11.05 4.86 14.65 4.11 2.89 9.68 3.6 14.48 2.22 4.84-1.37 8.37-7.2 6.25-12.01-1.26-3.39-4.75-5.02-7.95-6.11-12.62-4.26-26.14-5.82-38.22-11.69-12.65-5.97-16.94-23.53-10.35-35.39 3.68-6.68 11.13-9.77 18-12.06zm372.5 5.59c12.89-8.24 28.87-9.23 43.72-7.95 9.25 1.44 18.63 4.74 25.37 11.48 5.82 5.61 9.23 13.78 8.78 21.88-12.11-.06-24.21-.05-36.31-.02.42-5.35-.6-11.91-5.7-14.81-4.58-2.08-10.47-.24-13.28 3.89-3.52 5.04-4.06 11.41-4.68 17.35-.37 9.47-.37 19.02 1.32 28.37.89 4.69 3.41 9.29 7.59 11.8 2.62 1.49 5.76.78 8.63.74 6.99-3.79 6.76-13.04 6.11-19.89 12.59.04 25.19.03 37.78 0-1.51 12.22-8.4 23.96-19.15 30.24-12.02 7.17-26.68 7.67-40.24 6.22-11.73-1.02-22.98-7.07-30.1-16.45-8.49-12.6-8.75-28.49-7.85-43.11 1.59-11.83 7.78-23.27 18.01-29.74zm-83.09-6.24c10.22-1.34 20.82-.75 30.69 2.29 10.58 3.31 18.64 12.04 22.95 22.04 4.24 8.88 5.51 18.74 6.01 28.47-21.41.1-42.81 0-64.22.05-.01 7.32-.34 15.33 3.79 21.74 4.35 6.76 17.33 7.28 20.17-1.09 1.53-3.04 1.65-6.45 1.53-9.78 12.37-.04 24.74.06 37.11-.06-1.16 10.52-7.26 20.56-16.67 25.65-12.65 7.06-27.82 7.46-41.89 6.01-10.43-.84-20.38-5.78-27.47-13.44-6.99-6.66-9.67-16.56-10.35-25.92-1.75-12.83-.58-26.71 6.3-37.96 6.83-10.92 19.52-16.88 32.05-18m2.21 16.47c-3.96 4.93-5.06 11.46-5.95 17.55 8.65.01 17.3.01 25.96-.03-.31-6.37-1.55-13.28-6.19-17.99-3.68-3.79-10.47-3.71-13.82.47zm-165.95-13.97c10.17-3.71 21.85-2.14 31.27 2.96 9.58 5.37 15.07 15.95 16.86 26.5 2.55 15.17 2.47 31.39-3.62 45.75-3.3 8.04-10.27 14.52-18.83 16.46-12.01 3.19-26.63 3.08-36.24-5.84.22 14.95.07 29.91.08 44.86-11.44-.05-22.87 0-34.31-.02-.02-43.65-.04-87.31.01-130.97 9.93-.01 19.87-.01 29.81-.01-.01 4.75.14 9.51-.18 14.26 3.39-6.12 8.45-11.53 15.15-13.95m-2.03 19.95c-5.8 1.77-8.83 7.83-9.14 13.54-.53 8.61-.69 17.25.17 25.85.96 4.7 1.43 10.37 5.7 13.39 2.7 2.32 6.55 2.22 9.84 1.55 4.87-1.73 7.36-6.77 8.34-11.52 2.23-10.75 2-21.93.08-32.7-1.28-6.59-8.02-12.77-14.99-10.11zm438.52-5.51c7.39-10.83 20.56-16.19 33.29-17.02 12.17-.91 25.23-.4 36.04 5.92 10.91 6.67 16.92 18.93 19.65 31.04 1.38 5.25 1.27 10.7 1.89 16.06-21.4.2-42.81-.22-64.2.21.02 6.84-.33 14.15 3.03 20.36 3.39 6.52 13.1 8.61 18.7 3.75 3.07-3.74 4.11-8.73 3.82-13.48 12.36-.02 24.72.06 37.08-.04-1.16 9.05-5.62 17.9-13.09 23.33-8.86 6.65-20.22 8.65-31.04 9.03-10.63.15-21.86-.4-31.33-5.76-6.95-4.13-13.45-9.66-16.89-17.14-2.28-5.11-3.62-10.65-4-16.24-1.95-13.54-.81-28.41 7.05-40.02m33.55-.48c-4.11 4.99-5.16 11.64-6.13 17.83 8.55-.12 17.11-.08 25.66-.03.42-6.47-1.3-13.49-5.96-18.22-3.6-3.71-10.25-3.61-13.57.42zm-373.33-11.4c7.43-4.44 16.43-4.39 24.78-3.6.27 9.88.03 19.78.11 29.67-6.51-.06-13.44-.81-19.34 2.55-7.59 3.67-11.1 12.28-11.42 20.3-.14 11.69-.02 23.39-.07 35.09-.07 2.41.54 4.76 1.08 7.09-11.25-.05-22.49-.01-33.74-.02.04-31.32.09-62.64-.03-93.96 9.45.2 18.91.12 28.36.07.99 4.26 1.38 8.62 1.71 12.98 2.19-3.87 4.54-7.93 8.56-10.17zm479.85-2.08c6.49-2.38 13.58-2.28 20.34-1.33-.1 9.82-.05 19.64-.03 29.47-5.35.16-10.89-.77-16.02 1.16-8.46 2.55-14.14 11.08-14.38 19.75-.08 8.34.09 16.69.02 25.03.2 6.35-.55 12.74.37 19.06-11.09.04-22.19.03-33.28 0 .1-28.35 0-56.7.05-85.05.04-2.96.02-5.92-.28-8.87 9.58.2 19.16.05 28.75.11.41 4.36.89 8.73 1.69 13.05 2.01-5.89 6.85-10.53 12.77-12.38zm75.32-.64c6.53-.09 13.06-.06 19.6-.02-.05 11.65.02 23.31-.04 34.97 12.4-.05 24.8-.03 37.21-.01.11 6.57.03 13.14 0 19.71-12.42.06-24.83-.12-37.24.1.11 13.09.04 26.18.04 39.28-6.52.05-13.04-.02-19.55.03-.04-13.13-.08-26.27.02-39.41-12.05.03-24.11-.07-36.16.09-.02-6.6-.07-13.2.02-19.8 12.03 0 24.06-.09 36.09.05.01-11.67-.01-23.33.01-34.99zm-593.53 103.65c10.81.07 21.62-.03 32.43.07-.1 16.15.02 32.29-.06 48.44 3.8-6.46 9.44-12.46 17-14.16 8.09-1.29 17.03-1.02 24.1 3.6 7.91 4.87 12.14 14.15 12.95 23.15.07 22.69.04 45.39.03 68.08-10.9.06-21.8-.09-32.69.07-.23-21.04.01-42.09-.12-63.12 0-4.26-2.92-8.66-7.3-9.31-5.6-1.12-13.37 1.75-13.92 8.17-.01 21.4-.09 42.79.03 64.19-10.82.02-21.65-.03-32.47.02.1-43.06.07-86.13.02-129.2zm201.26-.39c11.05.03 22.1.08 33.15-.03-.01 16.2-.18 32.41.11 48.61 3.59-6.87 9.76-12.92 17.59-14.43 8.4-1.47 17.59-.36 24.71 4.61 7.19 5.22 10.89 14.1 11.64 22.74.13 22.49-.05 44.99.09 67.48-10.99.27-21.99.04-32.98.12-.1-20.9 0-41.8-.05-62.7-.02-2.2-.45-4.49-1.88-6.21-5.2-7.46-19.93-3.12-19.27 6.28-.06 20.88.12 41.75-.09 62.62-10.97.05-21.95-.07-32.92.06-.18-43.04.02-86.1-.1-129.15zm-388.84 35.51c12.45-4.44 25.92-4.88 38.98-3.82 10.81 1.34 22.42 4.19 29.88 12.75 4.75 4.78 6.72 11.77 5.88 18.39-11.6-.07-23.21-.09-34.81.02-.11-4.38 0-9.63-3.75-12.65-5.79-3.92-15.15-2.59-18.32 4.12-.12 2.94-.06 6.69 3.06 8.14 5.91 2.75 12.42 3.81 18.69 5.44 11.76 2.98 24.66 6.41 32.59 16.32 9.6 11.87 5.48 31.5-7.55 39.11-7.06 3.65-15 5.06-22.81 6.05-14.54 1.46-29.57 1.05-43.54-3.61-12.51-4.22-19.65-17.9-19.72-30.55 12.12 0 24.23.05 36.34-.03.89 4.53.7 9.66 3.99 13.31 3.72 4.15 9.77 4.56 14.94 3.75 5.52-1.19 9.76-8.03 6.56-13.21-2.51-4.47-8.15-5.24-12.59-6.79-10.79-3.04-22-4.93-32.24-9.67-14.25-6.09-18.84-26.75-9.24-38.68 3.51-4.19 8.65-6.5 13.66-8.39zm127.97-3.26c14.06-1.65 29.5.2 41.03 9.04 7.52 5.63 11.79 14.91 11.88 24.23-12.18-.04-24.37-.01-36.56-.01-.03-4.29-.1-9.07-3.05-12.51-3.04-3.9-9.04-3.49-12.93-1.19-4.85 3.29-6.23 9.42-7.14 14.84-.59 6.89-1.24 13.83-.5 20.74.42 7.25.27 15.29 4.91 21.35 2.7 3.82 7.98 5.97 12.43 4.03 3.13-1.11 5.13-4.17 5.75-7.32.98-3.99.97-8.14.38-12.18 12.68-.03 25.35.08 38.03-.07-1.8 11.43-7.66 22.67-17.57 29.05-11.85 8.08-26.96 8.66-40.79 7.45-11.32-.72-22.17-6.1-29.67-14.57-6.41-7.78-8.71-18-9.6-27.81-1.35-13.01.25-27.19 8.39-37.89 8.09-10.95 21.84-16.07 35.01-17.18zm160.13 3.01c11.1-.02 22.2 0 33.3-.02-.11 19.73 0 39.45-.05 59.17.03 4.3.52 9.52 4.52 12.03 6.69 3.71 16.44-1.05 16.34-9.08.21-20.72-.12-41.45.15-62.18 11.2.14 22.41.06 33.62.04-.13 31.7-.02 63.4-.06 95.1-10.46-.11-20.92-.01-31.37-.05.01-5.03-.07-10.05.12-15.07-3.88 5-7.91 10.33-13.82 13.05-5.9 2.79-12.63 2.91-18.99 2.14-7.13-.99-14.34-4.37-18.38-10.54-4.46-6.52-5.52-14.67-5.44-22.39.04-20.74-.08-41.47.06-62.2z" fill="#013976"/><path d="m11.96 252.2c9.31-.51 18.65.01 27.98-.27 14.57.47 29.16-.1 43.73.26.09 81.53.03 163.05.03 244.57-7.57.59-15.16.35-22.75.37-16.29-.18-32.59.38-48.86-.33-.36-32.96.02-65.91-.17-98.86.04-48.58 0-97.16.04-145.74zm83.44.02c8.04-.56 16.11.08 24.17-.05-.05 81.49-.05 162.97 0 244.46-8.05.03-16.1.11-24.15.01-.08-81.47-.03-162.95-.02-244.42z" fill="#f15a23"/></svg>