<svg height="2500" viewBox="0.9970979879194628 3 22.00580402416105 18.413378057018072" width="2500" xmlns="http://www.w3.org/2000/svg"><path d="M22 3h-2a1 1 0 0 0 0 2h1v4.111a6.972 6.972 0 0 0-9-.848 6.973 6.973 0 0 0-9 .847V5h1a1 1 0 0 0 0-2H2a1 1 0 0 0-1 1v10a6.992 6.992 0 0 0 11 5.737A6.992 6.992 0 0 0 23 14V4a1 1 0 0 0-1-1zm-6 16a4.994 4.994 0 0 1-3.333-1.281 1 1 0 0 0-1.334 0 5 5 0 1 1 0-7.438 1 1 0 0 0 1.334 0A5 5 0 1 1 16 19zm0-8a3 3 0 1 0 3 3 3 3 0 0 0-3-3zm0 4a1 1 0 1 1 1-1 1 1 0 0 1-1 1zm-8-4a3 3 0 1 0 3 3 3 3 0 0 0-3-3zm0 4a1 1 0 1 1 1-1 1 1 0 0 1-1 1z"/></svg>