<svg height="699" viewBox="0 0 426.643 119.254" width="2500" xmlns="http://www.w3.org/2000/svg"><path d="m403.477 25.099c0-3.249 2.635-5.644 5.747-5.644 3.084 0 5.719 2.396 5.719 5.644 0 3.276-2.635 5.672-5.719 5.672-3.114.001-5.747-2.394-5.747-5.672zm5.747 4.729c2.562 0 4.581-2.005 4.581-4.729 0-2.681-2.021-4.701-4.581-4.701-2.589 0-4.609 2.021-4.609 4.701-.002 2.724 2.02 4.729 4.609 4.729zm-1.198-1.451h-.987v-6.525h2.484c1.543 0 2.306.568 2.306 1.854 0 1.168-.734 1.677-1.691 1.797l1.855 2.874h-1.106l-1.722-2.829h-1.139zm1.183-3.668c.838 0 1.588-.059 1.588-1.063 0-.809-.733-.958-1.422-.958h-1.349v2.021zm-334.201 10.944c5.414 0 10.705 5.714 10.705 10.951v5.852h-19.848v-3.751c-.1-.5.042-1.299-.257-1.8a3.996 3.996 0 0 0 -1.902-2.8c-.977-.292-2.849-.5-5.6-.5-2.699.1-6.101-.3-7.299 2.199v4.501c-.202 1.5.398 2.399 1.298 3.199.501.602 1.401.701 2.201.901 7.1.5 14.502.899 21.502 1.5 4 .999 6.904 3.1 8.703 6.399 0 .1 1.645 3.126 1.645 7.563 0 5.125-1.844 7.639-1.947 7.837-2.102 2.913-2.05 2.707-4.199 4.4-2.589 2.577-8.215 1.952-11.704 1.952h-27.704c-5.311 0-9.5-6.877-9.5-9.752 0-.75-.045-.938-.045-1.601v-4-1.176h19.986v4.175c0 3.04.749 4.853 2.361 4.853h9.002c3.261 0 4.299-3.551 4.299-3.551.777-2.513-.1-4.6-.1-4.6-.1-.9-.601-1.501-1-2.301-.7-1.001-1.902-2.101-3.501-2.4-7.1-.701-14.201-1.4-21.201-2.3-4.202-1.001-10.143-3.725-10.143-13.415 0-6.501 4.093-12.339 11.142-12.339zm36.496-13.551h-20.092v51.706s.328 10.667 12.324 10.667h12.78v-9.167h-4.106s-.906 0-.906-2.208v-29.896h5.943v-7.502h-5.943zm50.408 13.601h-27.835c-8.334 0-11.964 7.394-11.964 14.229v3.274h20.105c0-6.233-.103-9.732 6.027-9.732 6.246 0 5.372 4.333 5.372 4.333v7.834h-20.208s-11.193 1.066-11.193 15.067 11.026 13.702 11.026 13.702h13.834c4.999 0 7.145-3.309 7.145-3.309v3.375h21.397v-36.071c-.001-12.836-13.706-12.702-13.706-12.702zm-7.692 34.887c0 6.052 0 6.052-6.052 6.052-6.053 0-6.053 0-6.053-6.052v-2.731c0-6.051 0-6.051 6.053-6.051 6.052 0 6.052 0 6.052 6.051zm45.705 14.118h-19.007v-48.804h18.904v1.7s8.854-2.964 16.547-2.964c7.698 0 18.666 1.413 18.666 15.414v34.454h-18.917v-31.202s.129-10.089-8.124-10.089c-8.25 0-8.069 10.089-8.069 10.089zm73.701-63.006v17.102c0-3.124-9.002-2.7-9.002-2.7h-12.298c-11.753 0-11.907 11.002-11.907 11.002v27.803c0 9.625 12.453 9.389 12.453 9.389h13.005c7.749 0 7.749-2.738 7.749-2.738v2.649h20.4v-62.507zm0 48.438c0 6.501 0 6.501-6.503 6.501-6.502 0-6.502 0-6.502-6.501v-20.836c0-6.5 0-6.5 6.502-6.5 6.253 0 6.503 0 6.503 6.5zm43.463-20.582s-9.484-.461-9.484-9.795c0-9.335 8.814-21.162 27.321-21.162 18.498 0 27.533 6.827 27.533 20.162 0 13.334-5.424 18.347-13.924 22.18-8.501 3.834-21.513 4.911-21.513 4.911s-13.059 4.622-13.059 11.955c0 0 8.855-6.976 20.189-6.976 7.979 0 13.775 3.176 13.775 3.176s5.325 2.634 10.993 2.634 8.713-4.134 8.713-4.134-3.045 19.453-20.541 19.453c-8.297 0-16.096-4.911-16.096-4.911s-4.536-2.574-8.578-2.574-9.396 4.733-9.396 4.733h-6.694s-2.114-21.476 17.053-30.144c19.175-8.667 20.002-16.974 20.002-21.807 0-4.834-4.389-11.356-13.557-11.356-5.533 0-7.39 1.883-7.39 1.883s-.971 1.199.031 1.698c.995.5 5.758 4.612 5.758 8.946.004 4.333-2.507 11.128-11.136 11.128zm79.052 39.152h-17.702v-43.306h-8.404v-10.4s9.305 1.399 9.305-15.103h16.803z" fill="#003b77"/><path d="m0 0h426.643v8.001h-426.643zm0 103.31h265.723v8.001h-265.723zm401.641 0h25.002v8.001h-25.002z" fill="#e5312b"/><g fill="#003b77"><path d="m273.254 103.902c0 3.412 2.687 5.618 6.851 5.618 4.688 0 13.711-4.032 13.711-9.548 0-.535-.213-.814-.417-.814-.06 0-.175.024-.259.182l-.083.437c0 4.963-9.394 8.751-13.235 8.751-2.795 0-5.814-1.397-5.814-4.466 0-4.507 6.896-12.561 20.619-12.561 3.077 0 7.678.705 10.652 2.655-5.859 3.95-10.46 9.663-14.9 15.198l-.354.439c-2.98 3.715-7.703 8.655-14.213 8.655-4.313 0-5.932-2.125-5.932-2.559 0-.149.091-.255.18-.339.193.445.527.716 1.028.716.849 0 1.292-.67 1.292-1.33 0-.938-.609-1.569-1.529-1.569-.964 0-1.729.847-1.729 1.926 0 2.268 2.917 3.912 6.926 3.912 5.192 0 11.001-2.933 15.165-7.656 1.76-1.986 3.367-4.177 4.922-6.294 2.827-3.854 5.757-7.837 9.722-10.702 1.061 1.024 1.93 2.005 1.93 3.476 0 4.241-4.904 8.671-8.766 9.188-.425-.701-1.255-1.588-2.249-1.588-.578 0-1.094.455-1.094.974 0 .833.79 1.37 2.007 1.37l.911-.131.142-.03c.142.285.314.775.314 1.133 0 .923-1.298 2.133-2.673 3.413-1.71 1.591-3.477 3.233-3.477 4.844 0 1.236 1.2 2.004 2.319 2.004 2.468 0 5.186-2.281 7.37-4.112l.309-.257-.315-.442-.359.311c-2.725 2.345-5.326 3.746-6.965 3.746-.746 0-1.124-.291-1.124-.417 0-.845.996-1.791 2.146-2.883 1.574-1.487 3.526-3.337 3.526-5.649 0-.593-.166-1.231-.441-1.788 3.309-.394 9.889-2.824 9.889-8.056 0-1.925-1.066-3.951-2.841-5.458 1.536-1.001 2.924-1.797 4.132-2.35l.109-.051-.398-.566-1.144.604c-1.106.574-2.236 1.169-3.259 1.912-3.861-2.604-8.834-3.002-11.47-3.002-13.872-.005-21.132 8.562-21.132 13.154zm23.183 2.819c0-.156.084-.337.334-.337.61 0 1.105.465 1.428.831h-.553c-.689 0-1.209-.212-1.209-.494z"/><path d="m302.245 116.89c0 1.612.648 2.363 2.03 2.363 1.856 0 3.823-1.403 6.176-3.512-.289.519-.638 1.271-.638 2.111 0 .956.463 1.4 1.445 1.4.906 0 1.233-.232 6.959-4.985l.359-.3-.359-.504-.417.362c-2.726 2.319-5.688 4.795-6.438 4.795-.263 0-.388-.125-.388-.382 0-1.348 5.662-7.111 7.396-8.845l.168-.17h-2.699l-1.522 1.819c.083-1.346-.226-2.108-1.852-2.108-3.274.001-10.22 3.765-10.22 7.956zm1.169.964c0-1.632 6.445-8.333 9.246-8.333.348 0 1.149.093 1.149.96 0 1.104-.982 2.241-3.051 4.217-2.559 2.413-5.031 3.973-6.292 3.973-.943-.001-1.052-.467-1.052-.817z"/><path d="m316.556 116.841c0 1.468 1.021 2.413 2.608 2.413 1.953 0 4.299-1.351 8.642-4.985l.36-.301-.36-.503-.417.362c-3.638 3.123-6.479 4.843-7.986 4.843-.835 0-1.396-.347-1.396-.863 0-2.131 6.594-8.286 8.336-8.286a.98.98 0 0 1 .963 1.009c0 .334-.104.334-.141.334l-.2-.108c-.173-.13-.43-.325-.958-.325-.726 0-1.208.625-1.208 1.208 0 .512.266 1.111 1.017 1.111.815 0 2.074-1.038 2.074-2.316 0-.98-.635-1.497-1.837-1.497-3.305-.002-9.497 4.186-9.497 7.904z"/><path d="m326.147 116.841c0 1.49.828 2.413 2.173 2.413 2.157 0 4.793-1.443 9.071-4.985l.359-.301-.359-.503-.417.362c-3.478 2.988-6.779 4.843-8.61 4.843-.584 0-1.055-.453-1.055-1.009 0-1.087 1.055-2.465 1.787-3.003 5.847-1.03 7.947-3.035 7.947-4.562 0-.562-.32-1.16-1.207-1.16-3.289-.001-9.689 4.267-9.689 7.905zm9.691-7.321c.295 0 .622.255.622.623 0 1.712-3.867 3.229-6.713 3.689 3.533-3.059 5.03-4.312 6.091-4.312z"/><path d="m359.438 109.714c-1.215 1.271-2.296 3.723-2.263 4.482-3.566 2.941-6.284 4.474-8.038 4.474-.432 0-1.104-.184-1.104-.671 0-.333.295-.783 1.131-1.716l6.361-7.203h-2.873l-1.806 1.862c-4.292 4.55-8.425 7.728-10.051 7.728-.313 0-.912-.13-.912-.624 0-.576.934-1.414 2.013-2.384 1.529-1.373 3.438-3.084 3.438-4.845 0-1.108-.617-1.883-1.497-1.883-.914 0-2.068.817-6.528 4.602l-.419.36.433.429.358-.299c4.208-3.508 5.172-4.218 5.72-4.218.393 0 .481.288.481.526 0 .595-.971 1.511-1.986 2.479-1.49 1.414-3.174 3.015-3.174 4.604 0 1.354 1.072 1.834 2.074 1.834 1.646 0 4.209-1.762 8.193-5.624-1.118 1.356-2.121 2.821-2.121 3.742 0 1.388 1.17 1.882 2.27 1.882 2.185 0 4.832-1.735 8.121-4.342.245.615.668.969 1.271.969.74 0 1.658-.644 2.814-1.612l.359-.301-.359-.503-.419.362c-.545.438-1.811 1.47-2.344 1.47-.379 0-.688-.35-.822-.935 1.065-.771 3.572-3.524 3.572-4.796 0-.396-.199-.63-.533-.63-.409.002-.871.264-1.36.781z"/><path d="m359.677 116.841c0 1.49.835 2.413 2.171 2.413 2.166 0 4.793-1.443 9.079-4.985l.36-.301-.36-.503-.417.362c-3.477 2.988-6.778 4.843-8.61 4.843-.585 0-1.061-.453-1.061-1.009 0-1.087 1.061-2.465 1.792-3.003 5.849-1.03 7.949-3.035 7.949-4.562 0-.562-.322-1.16-1.215-1.16-3.283-.001-9.688 4.267-9.688 7.905zm9.688-7.321c.295 0 .624.255.624.623 0 1.712-3.862 3.228-6.709 3.689 3.533-3.059 5.032-4.312 6.085-4.312z"/><path d="m369.27 116.89c0 1.612.643 2.363 2.022 2.363 1.863 0 3.829-1.403 6.175-3.51-.288.518-.636 1.27-.636 2.109 0 .956.463 1.4 1.453 1.4.904 0 1.232-.232 6.951-4.985l.358-.3-.353-.504-.425.362c-2.718 2.319-5.687 4.795-6.438 4.795-.264 0-.387-.122-.387-.382 0-1.349 5.661-7.111 7.396-8.845l.168-.17h-2.698l-1.523 1.819c.084-1.346-.225-2.108-1.85-2.108-3.274.001-10.213 3.765-10.213 7.956zm1.162.964c0-1.632 6.444-8.333 9.246-8.333.349 0 1.157.093 1.157.96 0 1.104-.983 2.239-3.052 4.217-2.564 2.413-5.032 3.973-6.297 3.973-.945-.001-1.054-.467-1.054-.817z"/><path d="m388.152 108.842c0 .492.174.888.547 1.333-.109.107-3.547 3.362-3.547 3.362l-.416.36.43.429.354-.299 2.043-1.804s1.9-1.703 1.907-1.711c.007.028.905.163.905.163l1.279-.195-2.796 2.771c-2.095 2.139-2.73 3.18-2.73 4.456 0 1.027.618 1.545 1.832 1.545 1.555 0 3.572-1.258 8.021-4.985l.357-.301-.357-.503-.418.362c-3.35 2.896-6.343 4.843-7.453 4.843-.752 0-.816-.248-.816-.479 0-.403 1.041-1.484 4.131-4.688l2.319-2.396-1.419-1.523-.064.034c-.631.313-1.26.47-1.884.47-.403 0-.835-.151-1.155-.357.758-.13 1.252-.495 1.252-1.083 0-.694-.442-1.162-1.11-1.162-.581.004-1.212.428-1.212 1.358z"/></g></svg>