<svg height="2500" viewBox="-37.5 -37.5 450 450" width="2500" xmlns="http://www.w3.org/2000/svg"><path d="m-37.5-37.5h450v450h-450z" fill="#fff"/><path d="m-37.5-37.5h450v450h-450z" fill="#f4f4f4"/><path d="m139.43 213.371 2.207 12.867-13.399-7.047-12.46 6.48 41.175 21.65-6.781-39.54zm0 0" fill="#e7d581"/><path d="m135.352 158.117-21.606-43.773-21.601 43.773-48.305 7.02 34.953 34.07-6.742 39.316 14.02-12.398-.216.113 5.329-31.054-22.564-21.994 31.18-4.53 13.945-28.255 13.945 28.254 25.473 3.7 14.883-9.489zm0 0" fill="#b08848"/><path d="m109.904 202.652c-2.043 0-3.805-.336-5.281-1-1.48-.676-2.622-1.633-3.422-2.875-.805-1.25-1.203-2.711-1.203-4.391h5.437c0 1.168.398 2.078 1.203 2.734.8.649 1.88.97 3.235.97 1.156 0 2.07-.223 2.75-.673.675-.457 1.015-1.093 1.015-1.906 0-.863-.406-1.562-1.219-2.094-.812-.539-2.078-.992-3.796-1.36-2.868-.6-4.985-1.519-6.36-2.75-1.367-1.237-2.047-2.847-2.047-4.827 0-2.227.813-3.988 2.438-5.281 1.625-1.29 3.844-1.938 6.656-1.938 1.926 0 3.598.336 5.016 1 1.425.668 2.523 1.602 3.297 2.797.78 1.187 1.171 2.61 1.171 4.266h-5.328c0-1.094-.367-1.954-1.093-2.579-.72-.625-1.715-.937-2.985-.937-1.168 0-2.09.23-2.765.687-.668.45-1 1.079-1 1.891 0 .742.367 1.367 1.109 1.875.738.512 2.039.992 3.906 1.438 3.04.718 5.235 1.683 6.578 2.89 1.352 1.211 2.032 2.778 2.032 4.703 0 2.305-.836 4.106-2.5 5.407-1.657 1.304-3.938 1.953-6.844 1.953zm22.35-.485v-19.217h-7.734v-5.188h21.03v5.188h-7.75v19.218zm17.305 0 9.703-24.406h5.438l9.687 24.406h-5.922l-1.64-4.218h-9.704l-1.625 4.218zm9-8.578h6.875l-3.453-8.922zm21.72 8.578v-24.406h10.437c1.852 0 3.469.34 4.844 1.016 1.375.668 2.43 1.632 3.172 2.89.75 1.25 1.125 2.75 1.125 4.5 0 1.782-.414 3.32-1.235 4.61-.812 1.293-1.949 2.265-3.406 2.922l5.047 8.468h-6.406l-4.36-7.61h-3.672v7.61zm5.484-12.281h4.219c1.375 0 2.425-.316 3.156-.953.727-.633 1.094-1.547 1.094-2.734s-.367-2.098-1.094-2.735c-.73-.644-1.781-.969-3.156-.969h-4.219zm23.871-10.802v23.86h-5.516v-23.86zm6.756 4c-.968 0-1.761-.281-2.375-.843-.605-.57-.906-1.282-.906-2.125 0-.852.301-1.563.906-2.125.614-.57 1.407-.86 2.375-.86.946 0 1.727.29 2.344.86.613.562.922 1.273.922 2.125a2.79 2.79 0 0 1 -.922 2.125c-.617.562-1.398.843-2.344.843zm2.75 1.875v17.985h-5.515v-17.985zm14.945-.203c2.113 0 3.797.684 5.047 2.047 1.257 1.367 1.89 3.242 1.89 5.625v10.516h-5.484v-9.766c0-1.207-.313-2.144-.938-2.812-.617-.665-1.453-1-2.515-1-1.055 0-1.89.335-2.516 1-.617.668-.922 1.605-.922 2.812v9.766h-5.515v-17.985h5.515v2.39c.551-.8 1.301-1.429 2.25-1.89.946-.468 2.008-.703 3.188-.703zm27.72 8.906c0 .512-.03 1.047-.093 1.61h-12.485c.094 1.117.453 1.969 1.078 2.562.633.594 1.415.89 2.344.89 1.375 0 2.332-.581 2.875-1.75h5.86a8.144 8.144 0 0 1 -1.625 3.204c-.782.938-1.766 1.68-2.954 2.219-1.18.543-2.496.812-3.953.812-1.773 0-3.343-.375-4.718-1.125a8.043 8.043 0 0 1 -3.22-3.234c-.773-1.395-1.155-3.031-1.155-4.906 0-1.864.378-3.493 1.14-4.891a7.872 7.872 0 0 1 3.203-3.219c1.375-.758 2.957-1.14 4.75-1.14 1.739 0 3.285.37 4.641 1.109a7.877 7.877 0 0 1 3.172 3.125c.758 1.356 1.14 2.934 1.14 4.734zm-5.64-1.453c0-.945-.324-1.695-.969-2.25-.648-.562-1.453-.843-2.422-.843-.918 0-1.695.273-2.328.812-.637.531-1.027 1.293-1.172 2.281zm-94.637 27.318c-.18.156-.399.277-.657.36a2.54 2.54 0 0 1 -.797.125c-.636 0-1.132-.172-1.484-.516-.344-.344-.516-.832-.516-1.469v-4.14h-1.218v-.782h1.218v-1.484h.922v1.484h2.094v.782h-2.094v4.093c0 .407.102.715.313.922.207.211.5.313.875.313.187 0 .367-.024.547-.078.187-.063.343-.149.468-.266zm5.763.485c-.656 0-1.25-.145-1.78-.438a3.396 3.396 0 0 1 -1.25-1.25c-.305-.531-.454-1.129-.454-1.797 0-.664.149-1.258.453-1.781a3.297 3.297 0 0 1 1.25-1.234c.531-.301 1.125-.454 1.781-.454s1.25.153 1.782.454c.53.292.941.703 1.234 1.234.3.523.453 1.117.453 1.781a3.58 3.58 0 0 1 -.453 1.797c-.293.531-.703.95-1.234 1.25a3.625 3.625 0 0 1 -1.782.438zm0-.813c.489 0 .926-.11 1.313-.328.383-.227.68-.547.89-.953a2.88 2.88 0 0 0 .329-1.39c0-.52-.11-.985-.328-1.391a2.244 2.244 0 0 0 -.891-.938 2.619 2.619 0 0 0 -1.313-.328c-.48 0-.914.11-1.296.328a2.391 2.391 0 0 0 -.922.938 2.89 2.89 0 0 0 -.328 1.39c0 .524.109.985.328 1.39.226.407.535.727.922.954a2.57 2.57 0 0 0 1.296.328zm12.824-6.094v6.844h-.89v-1.25a2.486 2.486 0 0 1 -1 .969c-.43.23-.915.344-1.454.344-.898 0-1.605-.25-2.125-.75-.512-.5-.765-1.227-.765-2.188v-3.969h.921v3.875c0 .719.176 1.266.532 1.64.363.376.875.563 1.531.563.719 0 1.285-.218 1.703-.656.414-.437.625-1.047.625-1.828v-3.594zm4.765 1.344c.219-.457.54-.8.969-1.031.426-.239.957-.36 1.594-.36v.891h-.22c-.718 0-1.288.219-1.702.656-.407.438-.61 1.059-.61 1.86v3.484h-.922v-6.844h.891zm17.045 5.641-1.266-1.297c-.774.824-1.79 1.234-3.047 1.234-.586 0-1.11-.094-1.578-.281-.461-.195-.82-.473-1.078-.828a1.963 1.963 0 0 1 -.39-1.203c0-.551.171-1.04.515-1.47.344-.437.93-.89 1.765-1.358-.43-.458-.726-.844-.89-1.157a2.103 2.103 0 0 1 -.25-1.015c0-.57.207-1.036.625-1.391.414-.363.972-.547 1.672-.547.656 0 1.172.164 1.547.485.382.324.578.765.578 1.328 0 .449-.153.855-.453 1.218-.305.356-.829.75-1.579 1.188l2.5 2.578c.27-.5.473-1.086.61-1.766l.75.235c-.168.824-.434 1.523-.797 2.094l1.297 1.343zm-3.922-8.61c-.45 0-.805.117-1.063.344-.25.219-.375.516-.375.89 0 .262.067.516.203.766.145.242.422.57.828.985.657-.383 1.11-.707 1.36-.97.25-.269.375-.566.375-.89 0-.343-.121-.613-.36-.812-.23-.207-.554-.313-.968-.313zm-.328 7.782c1 0 1.812-.344 2.437-1.032l-2.75-2.812c-.719.406-1.215.777-1.484 1.11a1.646 1.646 0 0 0 -.407 1.093c0 .492.196.887.594 1.187.406.305.942.454 1.61.454zm15.839.265c-.18.156-.398.277-.656.36a2.54 2.54 0 0 1 -.797.125c-.636 0-1.132-.172-1.484-.516-.344-.344-.516-.832-.516-1.469v-4.14h-1.218v-.782h1.218v-1.484h.922v1.484h2.094v.782h-2.094v4.093c0 .407.102.715.313.922.207.211.5.313.875.313.187 0 .367-.024.547-.078.187-.063.343-.149.468-.266zm3.858-5.078c.219-.457.54-.8.969-1.031.426-.239.957-.36 1.594-.36v.891h-.22c-.718 0-1.288.219-1.702.656-.407.438-.61 1.059-.61 1.86v3.484h-.922v-6.844h.891zm8.011-1.391c.895 0 1.583.227 2.063.672.477.45.719 1.11.719 1.985v4.234h-.89v-1.062c-.212.355-.517.632-.923.828-.398.199-.87.297-1.422.297-.773 0-1.382-.18-1.828-.547-.449-.364-.672-.844-.672-1.438 0-.582.207-1.05.625-1.406.414-.352 1.086-.531 2.016-.531h2.172v-.422c0-.582-.168-1.024-.5-1.328-.336-.313-.813-.47-1.438-.47-.437 0-.859.075-1.265.22a2.937 2.937 0 0 0 -1.016.578l-.422-.688c.352-.289.77-.515 1.25-.672.489-.164 1-.25 1.531-.25zm-.312 6.235c.52 0 .96-.117 1.328-.36.375-.238.656-.582.844-1.03v-1.126h-2.156c-1.168 0-1.75.406-1.75 1.219 0 .398.148.715.453.953.3.23.726.344 1.281.344zm12.639-6.188-3.046 6.844h-.938l-3.031-6.844h.953l2.563 5.828 2.593-5.828zm8.547 3.703h-5.718c.05.72.32 1.297.812 1.735.5.437 1.13.656 1.89.656.415 0 .802-.07 1.157-.219a2.54 2.54 0 0 0 .938-.687l.515.61c-.304.366-.683.64-1.14.827-.461.188-.961.282-1.5.282-.7 0-1.32-.145-1.86-.438a3.338 3.338 0 0 1 -1.281-1.25c-.305-.531-.453-1.129-.453-1.797 0-.664.144-1.258.437-1.781.29-.531.688-.942 1.188-1.234a3.313 3.313 0 0 1 1.719-.454c.632 0 1.203.153 1.703.454.5.292.89.699 1.172 1.218.289.524.437 1.121.437 1.797zm-3.296-2.953c-.657 0-1.211.211-1.657.625-.449.418-.703.965-.765 1.64h4.86c-.063-.675-.321-1.222-.767-1.64-.449-.414-1.007-.625-1.671-.625zm6.493-3.547h.922v9.641h-.922zm0 0" fill="#242424"/></svg>