<svg height="-1378" viewBox="421.8 530.2 1013.8 203.9" width="2500" xmlns="http://www.w3.org/2000/svg"><rect fill="#0361f7" height="264" rx="40" width="1114.5" x="372.6" y="489.4"/><path d="m1169.1 588v-22.7h38.4c4.2 11.8 8.5 23.7 12.7 35.6s8.4 23.7 13 36.8c8.5-24.9 16.5-48.6 24.6-72.5h38.7v111.4h-25.6v-76.3c-.3 0-.5-.2-.8-.2-.6 1.3-1.2 2.5-1.7 3.8-8.4 22.9-16.9 45.9-25.2 68.9-1.2 3.5-2.9 4.6-6.4 4.4-4.6-.3-9.3 0-14.1 0-9.2-25.8-18.4-51.3-27.5-76.9-.3 0-.7.2-1 .3v76.4h-25.1zm160.5 76.9c-29.9-28.7-23.5-79.4 12.3-96.3 20.5-9.7 41.4-9.3 61.6 1 21.1 10.7 32.1 34.6 28.7 59.5-5 35.8-35.1 53.8-67.9 50.5-12.9-1.3-24.5-5.8-34.7-14.7m35.3-10.6c19 3.4 34.2-7.1 38.1-26.3 4.1-19.7-6.7-37.6-24.9-41.5-17.1-3.6-33.4 6.9-37.4 24.1-4.7 20.3 5.3 38.8 24.2 43.6zm-264.5-5.1c15 9.4 28 7.8 42.6-5.2 6 5.7 12 11.4 18 17-11 16.2-38.4 23.3-62 16.3-24.7-7.3-40.4-28.1-41.2-54.6-.8-26.8 13.5-48.3 37.9-56.9 22.9-8.1 52.8-2.3 63.8 12.1l-17.5 17.8c-10.4-10.2-22.7-12.6-36-6.7-22.6 10.1-25.7 43.5-5.6 60.2zm-74.3-67.8c15.9 20 18.4 49.6 6 71.3-10.8 18.7-27.5 27.8-48.8 27.2-21.2-.6-37.1-10.5-46.9-29.6-.3-.6-.6-1.2-1.5-2.9v86.2c-1.9.2-3.3.3-5 .5v-170.8h4.6v31.1c10.3-19.4 26-30.2 47.8-31.3 17.3-.9 32 5 44 18.3m-69.5 84.9c28.2 18.3 63.4 6.8 74.4-24.6 3.7-10.6 4.3-21.5 2.2-32.5-3.8-20.8-19.6-37.6-38.7-41.1-21.6-3.9-41.9 5.3-52.9 23.8-13.5 22.9-9.3 57.3 14.9 74.4zm-374.4-88c.5-1.3.9-2.6 1.7-3.3 15.4-11.5 32.4-15.2 50.9-9.5 14.6 4.5 22.7 15.2 23.1 30 .8 27.9.2 55.9.2 84.2h-4.7v-29.4c-1.2 2.3-1.8 3.1-2.1 4.1-9.6 25-43.2 32.6-64.2 18.8-15.7-10.3-17.8-33.5-4.3-46.5 9.5-9.1 21.5-12.8 34.1-13.5 11.8-.7 23.6-.2 35.1-.2 6.7-24-7.6-43.8-31.3-44.9-12.5-.6-23.6 3.1-33.5 10.6-1.7 1.3-3.3 3.3-5.1-.4m-1.7 62.7c-2.5 11.7-.6 22 9.9 29.1 16.7 11.3 42.3 6.5 54-9.9 9.2-13 9.4-27.8 8.8-43-9 0-17.4-.2-25.9 0-5.5.2-11 .8-16.3 1.9-13 2.7-25.2 6.9-30.5 21.8zm263.4 32.9c18.5 5.9 36.9-.8 47.2-17.3 6.1-9.6 9.2-20.3 9.3-31.7v-61.6h4.8v116.4c-1.3 0-2.7.3-4.7.5v-31.6c-2.5 4.6-4.2 8.2-6.4 11.5-11.5 17.6-34 24.8-53.7 17.4-8.2-3.1-14.6-8.6-17.6-16.7-2.7-7.2-5-15-5.2-22.6-.7-23.3-.2-46.7-.2-70v-4.7h4.7c0 .8.3 1.6.3 2.4 0 22.5-.2 45 0 67.5 0 6.4 1.2 12.9 2.8 19.2 2.6 9.8 8.9 17 18.5 21.5v-.2zm-392.6-110c17.8-3.2 33.6 2.7 42 15.7-1.4.8-2.7 1.6-4.2 2.5-11-13.6-25-16.8-41-12.1-14 4.1-20.4 17.2-15.5 30.9 2 5.5 6 9.3 11.4 11.2 7.2 2.5 14.6 4.5 21.9 6.9 4.6 1.5 9.2 3 13.6 4.9 9.9 4.4 16.2 11.5 16.6 22.9.4 11.6-4 20.8-13.7 27.2-18.4 12-46.5 6.2-60.7-12.6 1.2-.9 2.4-1.9 4-3.1 7 9.5 16.3 14.9 27.7 16.4 9.6 1.3 18.5-.2 26.7-5.7 13.6-9.2 16.1-32.7-3-41.2-7.3-3.2-15.1-5.1-22.7-7.5-3.2-1-6.4-1.9-9.5-3.1-12.8-4.7-18.8-12.7-18.9-25.2-.1-12.4 6.3-21.3 18.7-26 2-.8 4.1-1.2 6.6-1.9zm105.8 116c-18.1.3-26.7-8.2-26.7-25.7v-85.9h-23.6c-.2-1.9-.3-3.3-.4-5.2h24v-32.9h5v32.6h31.8v5h-31.7v83c0 19.6 10 27.6 29.2 23.1.9-.2 1.9-.5 2.8-.7 1.8 2.8 1.1 4.5-2 5.1-2.6.5-5.2 1.1-8.3 1.7zm221.2-9.7c8.3 6.4 17.1 5.4 26.1 2.9 1.6 2.6 1.4 4.2-1.8 5.1-6.9 2-13.8 2.6-20.7.4-8.9-2.8-14.5-11.8-14.5-23.3v-87h-23.6c-.2-1.9-.3-3.3-.5-5.2h24v-32.9h5v32.6h31.8v5h-31.3c0 1.5-.4 2.8-.4 4v81.5c0 6.1 1 12 5.8 16.8h.1zm-72.5-94.9c-11.2 9.6-16.3 22.1-17.2 35.8-1.1 18.1-.9 36.2-1.2 54.3v14.3c-1.7 0-3.1 0-4.7.2v-116.7h4.7v31c4.2-8.6 8-17.1 15.8-23 7.8-6 16.7-8.8 26.9-8.1 0 1.4.3 2.8.5 4.8-9 0-17.4 1.4-24.7 7.4z" fill="#fff"/></svg>