<svg clip-rule="evenodd" fill-rule="evenodd" height="2500" image-rendering="optimizeQuality" shape-rendering="geometricPrecision" text-rendering="geometricPrecision" viewBox="0 0 9378.02 9378.02" width="2500" xmlns="http://www.w3.org/2000/svg"><circle cx="4689.01" cy="4689.01" fill="#c53438" r="4689.01"/><g fill="#fefefe"><path d="M3809.96 8277.84l163.84 29.26c33.84 6.04 58.58 19.19 74.21 39.45 15.64 20.25 20.71 45.76 15.22 76.52-6.11 34.24-22.57 56.29-49.34 66.2-9.74 3.41-22.32 6.13-37.76 8.14 50.38 20.11 70.97 55.93 61.78 107.47-5.77 32.3-20.41 56.47-43.91 72.53-23.5 16.04-51.59 21.14-84.29 15.31l-168.45-30.08c3.03-5.81 5.12-11.99 6.29-18.52l61.92-346.71c1.3-7.31 1.47-13.83.51-19.55zm68.94 187.32l19.62 3.5c18.08 3.24 32 1.96 41.76-3.85 14.24-8.56 23.79-26.5 28.67-53.81 7.15-40-6.59-63.08-41.22-69.26l-25.95-4.64-22.88 128.07zm-31 173.65l30.57 5.46c33.85 6.04 54.48-11.7 61.9-53.23 8.45-47.31-7.14-74.5-46.75-81.57l-21.93-3.92zm386.23-75.16l-19.72 155.21c-.89 6.97-.73 13.5.47 19.56l-102.9-13.08c2.63-5.18 4.41-11.45 5.35-18.82l44.4-349.38c.83-6.59.68-13.11-.48-19.56l154.65 19.65c36.05 4.58 63.75 18.15 83.14 40.7 19.38 22.55 27.04 49.9 22.95 82.08-4.67 36.81-22.08 62.18-52.2 76.07-10.47 4.96-24.99 9.22-43.56 12.77l79.23 176.06c4 8.78 7.92 15.19 11.73 19.21l-116.26-14.77c-.04-5.92-1.41-12.19-4.11-18.83l-62.67-166.88zm3.84-30.23l19.77 2.52c17.04 2.17 31.53-2.5 43.42-13.98s19.19-27.89 21.91-49.21c2.81-22.09-.1-40.37-8.68-54.86-8.61-14.48-21.63-22.83-39.06-25.04l-19.19-2.44-18.17 143zm293.23 119.31l-35.16 92.32c-2.09 5.41-3.19 9.88-3.28 13.39-.04 1.57.12 3.13.47 4.7l-53.31-1.35c3.62-4.2 6.9-10.18 9.84-17.92l134.37-352.43c2.51-6.57 3.79-11.03 3.85-13.38.02-.78-.15-1.96-.51-3.53l83.2 2.11c-.5 3.89.35 9.2 2.53 15.9l119.86 360.03c2.19 6.31 5.55 12.44 10.09 18.42l-111.9-2.83.11-4.1c.08-3.51-.78-8.23-2.59-14.13l-29.28-93.95-128.31-3.25zm16.34-42.96l98.41 2.49-45.52-147.12zm307.85 126.71l11.64-63.18c22.79 16.3 40.83 26.87 54.14 31.73 13.29 4.86 28.32 6.66 45.07 5.38 18.69-1.42 33.41-7.54 44.15-18.33 10.73-10.81 15.5-24.2 14.28-40.17-1.3-17.14-9.76-30.41-25.35-39.8-8.22-4.86-28.01-12.76-59.4-23.7-33.8-11.53-58.57-25.62-74.33-42.25-15.77-16.62-24.6-37.6-26.53-62.91-3.03-39.74 10.95-72.34 41.93-97.81 22.14-18.14 52.48-28.68 91.04-31.61 33.9-2.58 68.17 2.46 102.82 15.1l-10.25 58.38c-34.53-21.28-64.26-30.96-89.18-29.07-14.81 1.12-26.74 6.44-35.83 15.95-9.07 9.51-13.1 20.88-12.09 34.13 1.04 13.63 6.52 23.88 16.45 30.77 9.93 6.88 32.37 16.06 67.33 27.51 36.96 12.06 62.78 26.96 77.44 44.64 14.68 17.69 22.99 39.39 24.94 65.11 3.31 43.62-10.04 79.12-40.1 106.48-22.35 20.52-54.74 32.38-97.2 35.61-38.18 2.91-78.5-4.41-120.97-21.95zm304.62-396.32l102.9-13.08c-1.26 5.67-1.42 12.19-.48 19.56l44.4 349.38c.94 7.37 2.73 13.64 5.35 18.82l-102.9 13.07c1.16-6.44 1.31-12.96.47-19.55l-44.4-349.39c-.88-6.97-2.67-13.25-5.34-18.81zm476.77 311.46l-215.27 49.68c.59-6.15.13-12.46-1.36-18.93l-79.34-343.75c-1.59-6.85-3.99-12.91-7.21-18.18l101.07-23.33c-.67 5.78-.18 12.27 1.5 19.51l73.54 318.62 94.22-21.75c9.14-2.11 16.48-5 22.05-8.7l10.81 46.83zM3893.72 4933.42c18.67-7.7 45.66 14.77 60.27 50.18 14.62 35.41 11.32 70.37-7.35 78.08-18.67 7.7-45.66-14.77-60.27-50.18-14.62-35.41-11.32-70.37 7.35-78.08zM4313.35 5184l17.92-102.06 104.98 41.13 17.92-102.06 104.98 41.13 17.92-102.06 104.98 41.13 17.92-102.06 104.98 41.13 17.92-102.06 104.98 41.13 17.92-102.06 104.98 41.13 17.92-102.06-70.96-107.42c2.44-33.2-3.89-73.49-19.76-114.21-33.96-87.18-98.76-143.35-144.73-125.44l-943.65 467.78c103.15 15.4 211.8 236.74 143.84 314.15l157.01 93.68 17.92-102.06 104.98 41.13zm731.22-866.23c-9.03 7.34-22.3 5.97-29.64-3.06s-5.97-22.3 3.06-29.64l394.72-319.67c9.03-7.34 22.3-5.97 29.64 3.06s5.97 22.3-3.06 29.64zm0-128.28c-9.03 7.34-22.3 5.97-29.64-3.06s-5.97-22.3 3.06-29.64l394.72-319.67c9.03-7.34 22.3-5.97 29.64 3.06s5.97 22.3-3.06 29.64zm-633.19 128.28c-9.03 7.34-22.3 5.97-29.64-3.06s-5.97-22.3 3.06-29.64l394.72-319.67c9.03-7.34 22.3-5.97 29.64 3.06s5.97 22.3-3.06 29.64zm0-128.28c-9.03 7.34-22.3 5.97-29.64-3.06s-5.97-22.3 3.06-29.64l394.72-319.67c9.03-7.34 22.3-5.97 29.64 3.06s5.97 22.3-3.06 29.64zm-633.19 0c-9.03 7.34-22.3 5.97-29.64-3.06s-5.97-22.3 3.06-29.64l394.72-319.67c9.03-7.34 22.3-5.97 29.64 3.06s5.97 22.3-3.06 29.64zm0 128.28c-9.03 7.34-22.3 5.97-29.64-3.06s-5.97-22.3 3.06-29.64l394.72-319.67c9.03-7.34 22.3-5.97 29.64 3.06s5.97 22.3-3.06 29.64zm461.46 146.16v-807.41l-554.79 449.32v358.1h554.79zm73.76-763.46l84.43 99.85v151.89l-84.43 68.38v-320.11zm559.43 596.91v-640.87l-554.79 449.32v358.1h166.13l313.25-155.28c5.76-3.4 12.05-6.02 18.71-7.68 18.63-5.79 37.72-6.81 56.69-3.58zm73.76-596.91l84.43 99.85v151.89l-84.43 68.38v-320.11zm559.43 763.46v-807.41l-554.79 449.32v229.62c1.62 1.32 3.23 2.68 4.82 4.06 33.13 28.73 64.01 72.33 85.21 124.41h464.75zm73.76-763.46l84.43 99.85v551.28l-84.43 68.38zm-2122.12-143.54c10.97-177.43 88.89-322.72 234.86-435.2 145.95-112.48 325.94-193.5 541.04-242.37 216.19-48.88 440.07-73.65 672.72-73.65 193.16 0 377.53 18.75 550.92 56.91 173.41 38.16 308.37 85.03 403.86 140.6-24.14 30.8-85.6 140.61-185.47 329.41h-57.06c-55.98-89.71-150.34-171.4-283.14-244.38s-313.87-109.8-541.04-109.8c-155.84 0-297.41 20.76-422.51 61.6-125.12 41.52-223.9 97.08-294.12 168.05-71.34 70.3-106.45 147.97-106.45 232.33 0 93.66 33.37 177.23 100.03 250.76l-389.08 315.12c-89.72-68.85-148.47-137.18-176.27-205-31.82-77.67-48.29-159.35-48.29-244.38zm2285.84 746.54c36.59 21.64 69.93 44.39 100 68.29 130.6 103.1 195.35 243.04 195.35 419.12 0 144.62-65.84 285.22-196.45 420.47-131.68 135.24-322.64 245.72-575.06 330.75-251.31 85.03-547.62 127.88-888.92 127.88-201.93-5.35-399.47-30.12-591.53-73.65-192.05-44.18-341.3-98.42-447.75-162.69 61.46-105.79 103.15-226.31 125.1-362.22h65.84c165.73 169.39 329.25 279.87 489.48 331.42 160.23 50.89 336.91 82.35 531.16 94.41 177.77 0 340.21-26.78 488.36-81.02 148.15-53.56 263.38-125.2 347.88-214.91 83.42-89.05 125.12-182.11 125.12-277.86 0-153.02-87.21-279.71-261.27-380.25h302.31l190.39-154.12-.01-85.61z" fill-rule="nonzero"/><path d="M7795.15 1582.87C7000.24 787.94 5902.03 296.26 4689.02 296.26c-1213.03 0-2311.23 491.67-3106.14 1286.61C787.95 2377.78 296.26 3475.99 296.26 4689c0 1213.03 491.67 2311.24 1286.61 3106.15C2377.78 8590.08 3476 9081.76 4689.02 9081.76s2311.22-491.68 3106.13-1286.62C8590.08 7000.23 9081.76 5902.02 9081.76 4689s-491.67-2311.22-1286.61-3106.13zM4689.02 235.36c1229.83 0 2343.26 498.5 3149.21 1304.44 805.94 805.95 1304.44 1919.38 1304.44 3149.21 0 1229.84-498.5 2343.27-1304.44 3149.22-805.95 805.94-1919.38 1304.45-3149.21 1304.45-1229.84 0-2343.28-498.5-3149.23-1304.44C733.85 7032.29 235.35 5918.85 235.35 4689.01c0-1229.83 498.51-2343.26 1304.45-3149.21C2345.75 733.86 3459.18 235.36 4689.02 235.36z" fill-rule="nonzero"/><path d="M1833.43 6383.46h-716.46l521.5 660.02-215.93 619.28h945.21c226.19-8.72 361.37-106.44 423.71-268.89l-143-172.37-254.87-.02c-37.32 1.98-67.97 14.67-90.9 34.28-52.89 45.23-55.24 100.03-18.2 154.15 15.46 22.63 22.22 43.51 5.67 64.22-15.76 19.72-59.21 12.72-82.15-1.8-48.21-30.46-80.01-81.94-95.77-135.85l-278.8-953.01zm5711.16 0h716.46l-521.5 660.02 215.93 619.28h-945.21c-226.19-8.72-361.37-106.44-423.71-268.89l143-172.37 254.87-.02c37.32 1.98 67.97 14.67 90.9 34.28 52.89 45.23 55.24 100.03 18.2 154.15-15.46 22.63-22.22 43.51-5.67 64.22 15.76 19.72 59.21 12.72 82.15-1.8 48.21-30.46 80.01-81.94 95.77-135.85l278.8-953.01zm-563.45 767.64c118.68 3.24 195.12 83.11 212.58 181.77l301.92-1032.08c61.52-210.9-28.6-408.49-261.87-409.75h-5089.5c-233.28 1.26-323.39 198.85-261.87 409.75l301.92 1032.08c17.45-98.66 93.9-178.54 212.58-181.77h4584.25zM1902.86 5167.92c-.95 1.1-1.94 2.18-2.96 3.2h-.01c-10.39 10.38-24.74 16.81-40.6 16.81-31.71 0-57.42-25.71-57.42-57.42 0-16.39 6.86-31.16 17.87-41.63l.94-.88 873.63-830.32c3.61-5.13 9.59-8.48 16.34-8.48 11.03 0 19.97 8.94 19.97 19.97 0 5.51-2.24 10.5-5.85 14.12zM7475.16 4269.17c.95-1.1 1.94-2.18 2.96-3.2h.01c10.39-10.38 24.74-16.81 40.6-16.81 31.71 0 57.42 25.71 57.42 57.42 0 16.39-6.86 31.16-17.87 41.63l-.94.88-873.63 830.32a19.949 19.949 0 0 1-16.34 8.48c-11.03 0-19.97-8.94-19.97-19.97 0-5.51 2.24-10.5 5.85-14.12z"/><path d="M1970.03 4367.28l757.84 782.54c4.68 3.29 7.74 8.75 7.74 14.9 0 10.06-8.16 18.22-18.22 18.22-5.02 0-9.58-2.04-12.88-5.34l-794.18-755.78a87.848 87.848 0 0 1-22.74 2.98c-48.5 0-87.81-39.31-87.81-87.82 0-48.5 39.31-87.81 87.81-87.81 48.51 0 87.82 39.31 87.82 87.81 0 10.65-1.9 20.86-5.37 30.3zm-94.63-87.22c22.22 0 40.21 17.99 40.21 40.19 0 22.22-17.99 40.21-40.21 40.21-22.2 0-40.19-17.99-40.19-40.21 0-22.2 17.99-40.19 40.19-40.19zM7407.99 5069.81l-757.84-782.54a18.196 18.196 0 0 1-7.74-14.9c0-10.06 8.16-18.22 18.22-18.22 5.02 0 9.58 2.04 12.88 5.34l794.18 755.78a87.848 87.848 0 0 1 22.74-2.98c48.5 0 87.81 39.31 87.81 87.82 0 48.5-39.31 87.81-87.81 87.81-48.51 0-87.82-39.31-87.82-87.81 0-10.65 1.9-20.86 5.37-30.3zm94.63 87.22c-22.22 0-40.21-17.99-40.21-40.19 0-22.22 17.99-40.21 40.21-40.21 22.2 0 40.19 17.99 40.19 40.21 0 22.2-17.99 40.19-40.19 40.19z"/><path d="M4924.93 1292.61c139.12 9.53 275.97 27.36 410.01 53.09l-14.71 61.75c-129.64-24.79-261.92-42.06-396.39-51.47l1.09-63.36zM5649.75 1422c132.9 39.02 262.41 85.94 388.03 140.19l-27.58 57.03a3312.701 3312.701 0 0 0-375.15-135.51zm678.37 282.39c120.73 66.43 236.97 140.01 348.21 220.1l-39.16 49.73a3347.908 3347.908 0 0 0-336.64-212.78zm601.61 421.45c57.27 50.09 112.86 102.04 166.64 155.81 43.25 43.25 85.3 87.7 126.19 133.22l-48.94 40.16a3363.915 3363.915 0 0 0-283.08-279.42zm497.01 539.15a3408.63 3408.63 0 0 1 224.22 344.38l-56.41 28.7c-65.75-115.44-138.18-226.57-216.76-332.89l48.96-40.18zm370.63 633.22a3378.552 3378.552 0 0 1 144.87 384.22l-61.2 15.89c-39.46-127.23-86.37-251.18-140.12-371.39l56.44-28.72zm225.38 697.01c27.51 132.82 47.22 268.48 58.76 406.48l-63.33 2.38c-11.27-133.36-30.23-264.51-56.64-392.96l61.22-15.9zm70.55 729.28c-1.42 138.71-11.13 275.42-28.67 409.69l-62.26-11.27c16.83-129.81 26.03-262.01 27.54-396.05l63.38-2.37zm-85.62 727.43c-30.8 134.57-69.61 266.07-115.84 394.02l-58.43-24.41c44.58-123.75 82.17-250.85 112.07-380.87l62.21 11.26zm-240.19 692.65c-58.84 124.23-124.99 244.32-197.87 359.74l-51.85-36.41c70.35-111.64 134.29-227.72 191.28-347.74zm-383.35 624.75c-83.97 108.66-174.41 212.07-270.67 309.72l-42.81-46.72a3360.22 3360.22 0 0 0 261.64-299.43l51.84 36.42zm-507.69 528.5a3416.892 3416.892 0 0 1-330.93 245.36l-31.78-54.85a3357.583 3357.583 0 0 0 319.9-237.21zm-609.84 408.84a3385.904 3385.904 0 0 1-376.51 168.88l-19.27-60.44a3332.356 3332.356 0 0 0 364.01-163.28zm-683.53 268.22c-131.98 35.84-267.16 63.87-404.99 83.7l-5.83-63.12c133.22-19.33 263.9-46.5 391.55-81.03zm-726.36 114.53c-55.57 2.71-111.46 4.1-167.7 4.1-82.67 0-164.64-3.02-245.84-8.81l7.88-62.85c78.61 5.53 157.93 8.53 237.95 8.53 54.29 0 108.25-1.38 161.88-3.96l5.82 62.99zm-735.17-43.01c-137.45-23.06-272.13-54.34-403.47-93.35l21.24-59.82c127.05 37.59 257.25 67.82 390.11 90.24l-7.88 62.92zm-708.79-200.24a3389.908 3389.908 0 0 1-374.46-178.95l33.56-53.8a3327.485 3327.485 0 0 0 362.11 173.01zm-649.49-349.32c-114.35-78.57-223.65-163.95-327.34-255.54l44.33-45.32a3358.048 3358.048 0 0 0 316.55 247.1zm-559.76-481.35c-94.7-101.13-183.32-208.02-265.24-320.12l53.07-34.76a3362.229 3362.229 0 0 0 256.47 309.58zm-443.6-590.29c-70.72-119.05-134.4-242.76-190.44-370.6l59.32-22.56a3337.324 3337.324 0 0 0 184.17 358.41zm-305.9-672.56c-43.09-131.14-78.42-265.82-105.47-403.45l62.68-9.27a3325.747 3325.747 0 0 0 102.06 390.18zm-152.7-723.67c-11.1-111.82-16.8-225.23-16.8-339.97 0-25.61.33-51.13.9-76.6l63.14 4.42c-.51 24.01-.91 48.06-.91 72.19 0 111.61 5.54 221.92 16.29 330.72l-62.61 9.25zm6.42-739.33c16.32-139.62 41.03-276.68 73.71-410.62l60.9 17.94c-31.5 129.58-55.43 262.12-71.35 397.11l-63.25-4.43zm165.35-720.63a3385.539 3385.539 0 0 1 161.18-384.65l55.54 30.55a3320.538 3320.538 0 0 0-155.88 372.02l-60.83-17.92zm318-667.6a3416.207 3416.207 0 0 1 240.38-340.47l47.67 41.79a3352.602 3352.602 0 0 0-232.5 329.25l-55.55-30.56zm454.07-582.62c12.09-12.46 24.24-24.87 36.52-37.15a3422.389 3422.389 0 0 1 270.97-243.53l37.58 51.07a3365.674 3365.674 0 0 0-297.4 271.4l-47.68-41.79zm568.45-471.58c115.42-76.33 235.76-145.83 360.45-207.89l25.74 57.98a3344.343 3344.343 0 0 0-348.6 200.98zm655.67-337.65a3382.318 3382.318 0 0 1 402.95-126.43l12.56 62.17c-133.24 32.96-263.35 73.86-389.77 122.22zm719.67-188.54c135.31-19.93 273.22-31.92 413.22-35.45l-1.09 63.19a3352.527 3352.527 0 0 0-399.58 34.37l-12.55-62.12z" fill-rule="nonzero"/></g><path d="M2885.05 6802.43l26.65-100.89c34.9 29.2 62.81 48.55 83.74 58.06 20.94 9.52 45.05 14.28 72.34 14.28 30.44 0 55.04-8.1 73.75-24.27 18.72-16.18 28.08-37.27 28.08-63.29 0-27.91-12.05-50.43-36.17-67.57-12.69-8.88-43.77-24.1-93.26-45.68-53.3-22.85-91.69-48.7-115.17-77.56-23.47-28.87-35.21-63.92-35.21-105.16 0-64.71 26.65-115.79 79.94-153.23 38.07-26.65 88.51-39.97 151.32-39.97 55.2 0 110.07 12.37 164.64 37.11l-23.78 93.27c-53.3-38.7-100.25-58.06-140.86-58.06-24.1 0-44.09 7.15-59.95 21.42-15.88 14.28-23.8 32.2-23.8 53.77 0 22.22 7.62 39.5 22.84 51.87 15.24 12.37 50.45 29.97 105.65 52.83 58.36 24.1 98.34 51.38 119.91 81.85 21.58 30.44 32.36 66.61 32.36 108.49 0 71.06-26.01 126.9-78.03 167.51-38.71 30.44-92.64 45.68-161.79 45.68-62.18 0-126.58-16.81-193.2-50.44zm451.11-594.82h483.48v82.79c-13.33-3.17-25.7-4.75-37.12-4.75h-124.67v525.33c0 12.06 1.59 22.54 4.76 31.41h-168.45c3.18-8.88 4.75-19.35 4.75-31.41v-525.33h-121.82c-12.06 0-25.7 1.59-40.93 4.75zm690.94 349.27v254.1c0 11.43 1.59 21.9 4.76 31.41h-168.45c3.18-8.88 4.76-19.35 4.76-31.41v-571.96c0-10.79-1.59-21.26-4.76-31.41h253.16c59.01 0 106.43 16.19 142.28 48.54 35.85 32.36 53.77 74.87 53.77 127.53 0 60.28-22.84 104.69-68.53 133.24-15.86 10.15-38.39 19.99-67.57 29.51l163.69 267.43c8.25 13.32 15.86 22.84 22.84 28.55h-190.33c-1.28-9.52-4.76-19.35-10.47-29.5l-135.14-256.02zm0-49.48h32.36c27.92 0 50.28-10.46 67.1-31.4 16.81-20.94 25.21-48.86 25.21-83.75 0-36.17-8.4-65.03-25.21-86.6-16.81-21.58-39.5-32.36-68.05-32.36h-31.41zm677.61-310.25c104.05 0 184.16 28.39 240.32 85.18 56.14 56.78 84.22 137.51 84.22 242.2 0 105.96-28.23 187.17-84.7 243.64-56.46 56.46-137.68 84.7-243.63 84.7-105.97 0-185.59-28.56-238.89-85.66-55.2-59.01-82.79-141.8-82.79-248.39 0-101.52 28.55-180.51 85.65-236.97 57.11-56.47 137.04-84.7 239.83-84.7zm0 68.53c-105.95 0-158.93 85.01-158.93 255.05 0 175.75 52.98 263.62 158.93 263.62 105.33 0 157.99-85.34 157.99-256.01 0-175.1-52.66-262.66-157.99-262.66zm413.99-58.06h270.29c55.84 0 99.14 13.96 129.9 41.88 30.77 27.91 46.16 67.25 46.16 118.01 0 56.47-19.98 96.44-59.96 119.92-14.59 8.24-33.94 16.19-58.05 23.79 86.29 17.76 129.43 69.16 129.43 154.18 0 53.29-16.49 96.11-49.49 128.47-32.99 32.36-76.44 48.54-130.38 48.54h-277.9c3.18-10.14 4.76-20.62 4.76-31.41v-571.96c0-12.06-1.59-22.53-4.76-31.41zm163.69 279.81h32.36c29.81 0 51.71-6.03 65.67-18.08 20.31-17.76 30.45-49.18 30.45-94.22 0-65.99-28.55-98.98-85.65-98.98h-42.83zm0 286.47h50.44c55.84 0 83.75-34.27 83.75-102.78 0-78.04-32.68-117.06-98.02-117.06h-36.18v219.85zm389.24-566.27h366.41v72.33c-10.15-3.18-20.62-4.76-31.41-4.76h-171.3v213.19h168.45c14.59 0 26.01-1.27 34.26-3.8v73.28c-7.61-2.54-18.72-3.8-33.31-3.8h-169.4v216.03h165.59c12.69 0 25.06-1.59 37.12-4.75v77.08h-366.41c3.18-9.52 4.76-19.67 4.76-30.44v-572.93c0-11.42-1.59-21.89-4.76-31.41zm821.33 634.79h-358.8c3.18-9.52 4.76-19.67 4.76-30.44v-572.93c0-11.42-1.59-21.89-4.76-31.41h168.45c-3.18 8.89-4.76 19.35-4.76 31.41v531.04h157.03c15.23 0 27.92-1.9 38.07-5.7v78.03z" fill="#c53438" fill-rule="nonzero"/></svg>