<svg height="2011.285" viewBox="-66.43 6.139 1160.217 519.875" width="1024mm" xmlns="http://www.w3.org/2000/svg"><g stroke="#000"><path d="m691.738 34.74c-299.332 0-545.106 64.66-651.638 193.818-106.53 129.158 52.79 273.902 265.854 273.902s562.28-71.054 681.302-215.355c106.531-129.157-82.456-252.365-295.518-252.365z" fill="#fff" fill-rule="evenodd" stroke-width="12.277772"/><path d="m532.3 6.139c-210.157 0-356.726 113.012-431.52 256.572s11.077 263.303 160.665 263.303 331.485-116.378 406.279-259.938 14.164-259.936-135.424-259.936z" fill="#002bcd" fill-rule="evenodd" stroke-width="12.277772"/><g stroke-width="4.956165"><path d="m317.304 108.887v.005c-13.47 0-28.036 4.734-43.64 13.833-17.212 10.053-32.057 23.704-44.567 40.9-10.73 14.69-16.256 28.68-16.256 41.92 0 10.272 3.712 18.737 11.32 25.162 7.908 6.69 17.94 9.99 29.881 9.99 20.121 0 39.056-8.226 56.986-24.209 4.697-4.152 8.9-8.611 12.605-13.388 3.649-4.704 5.927-8.6 5.927-11.192 0-3.21-2.552-5.165-6.133-5.165-2.723 0-6.124.869-9.875 2.313-2.868 1.102-6.466 4.117-10.112 8.207-5.391 5.943-10.002 10.144-13.97 12.806l-.02.01-.01.01c-4.422 3.034-8.31 5.09-11.79 6.303-3.333 1.182-6.947 1.778-10.854 1.778-7.856 0-13.66-2.27-17.462-6.376-3.273-3.635-5.027-8.426-5.027-14.558 0-5.872 1.492-12.408 4.572-19.637 3.15-7.295 7.514-14.402 13.107-21.326 6.498-7.991 14.152-14.56 22.96-19.732 8.827-5.24 16.426-7.663 22.924-7.663 4.466 0 7.778 1.094 10.102 2.98l.01.01.02.005c2.227 1.762 3.54 4.383 3.54 7.742 0 2.239-.48 4.198-1.38 5.91l-.01.031-.021.02c-.936 1.902-3.102 4.997-6.742 9.542l-.03.04-.031.042c-1.547 2.081-2.778 3.988-2.778 5.36 0 3.898 3.7 5.435 7.9 5.435 6.273 0 12.478-2.638 18.569-7.366 9.154-7.078 14.012-14.993 14.012-23.802 0-8.316-3.284-14.903-10.186-19.738-6.042-4.236-13.955-6.202-23.538-6.202zm189.267-2.069c-1.352 0-2.838.15-4.423.413l.111-.01c-10.684 1.44-19.755 2.486-27.226 3.143l-57.975 5.143c-1.65.12-5.367.356-11.213.715l-.572.04-.524.213c-6.129 2.482-11.81 5.402-17.028 8.763-5.081 3.257-8.742 6.171-8.742 9.15 0 3.806 4.1 5.074 8.212 5.074 1.361 0 3.959-.198 7.71-.561h.01l29.502-3.122-17.706 29.686c-6.434 10.838-12.78 23.657-19.04 38.433-6.171 14.733-9.414 24.654-9.414 29.655 0 3.52 2.063 6.244 6.34 6.244 3.573 0 10.06-2.448 19.79-6.805l.021-.005h.01c3.731-1.717 6.555-3.33 7.784-4.758 1.261-1.463 1.96-4.313 2.175-7.44.244-3.932 3.643-13.328 10.473-28.226 6.811-14.918 13.564-27.69 20.272-38.359l10.155-16.346c2.051-3.274 3.38-4.906 3.62-5.08 0 0 1.098-.42 3.677-.645l13.06-1.08c8.13-.631 15.15-2.483 20.976-5.646 4.325-2.286 7.957-4.585 10.837-6.9l.02-.01.011-.01c2.817-2.328 5.022-4.723 5.022-7.033 0-3.16-2.746-4.62-5.927-4.62zm103.781 1.715c-16.893 0-40.137 4.73-69.522 13.985-5.36 1.698-9.527 3.411-11.88 4.97l-.01.01a.047.047 0 0 1 -.02.01c-2.716 1.744-4.361 3.872-4.361 6.779 0 3.26 2.038 5.8 6.032 5.8 1.434 0 3.642-.406 5.996-1.027l7.996-2.122-8.78 14.695c-7.465 12.454-14.81 26.947-22.034 43.46-5.488 12.583-8.398 21.99-8.398 27.697 0 6.493 4.487 11.372 12.356 14.965l.02.01.021.005c7.753 3.44 17.63 5.085 29.422 5.085 9.109 0 18.698-1.25 28.744-3.714 10.121-2.466 19.714-5.884 28.787-10.266 10.629-5.156 19.293-11.461 25.956-18.965 6.649-7.553 10.191-15.075 10.191-22.522 0-4.834-1.831-9.281-5.37-13.435-3.536-4.217-8.299-7.438-14.204-9.721.021.006.041.01.062.01l-.092-.03c.01.002.005.01.02.01v.01a47.939 47.939 0 0 0 -11.435-3.196h-.005c-.733-.121-.613-.114-1.217-.217 4-1.559 8.022-3.202 12.229-5.546 15-8.357 23.33-17.393 23.33-27.22 0-5.963-3.617-10.625-10.16-14.22-6.49-3.59-14.43-5.301-23.67-5.301zm-7.885 18.457c8.044 0 10.456 1.929 10.456 4.948 0 2.363-1.248 5.365-4.291 9.085-2.94 3.618-6.707 6.765-11.33 9.43-4.568 2.671-10.225 5.036-17.018 7.086-6.84 2.064-12.059 3.01-15.98 3.01-1.376 0-1.128-.146-1.128-.343 0-.933 1.514-4.77 5.09-11.298 3.56-6.557 6.569-11.17 9.007-13.965l.01-.01.006-.02c1.897-2.236 4.995-4.166 9.578-5.663 4.575-1.493 9.767-2.26 15.6-2.26zm-20.558 51.657c9.508.062 16.402 1.696 21.114 4.641l.02.005.02.01c4.543 2.754 6.859 6.661 6.859 11.854 0 2.86-1.084 5.908-3.45 9.107-2.303 3.143-5.555 6.021-9.811 8.604-4.95 2.949-10.908 5.367-17.902 7.223-6.928 1.798-13.65 2.688-20.161 2.688-15.571 0-20.934-2.626-20.934-5.678 0-2.873 2.523-10.09 7.974-21.748 2.402-5.26 4.214-8.534 5.557-10.182l.01-.02.01-.01c1.131-1.433 2.623-2.414 4.424-2.937l.051-.005.041-.01c2.944-.948 6.958-1.774 12.25-2.483 5.355-.708 9.992-1.052 13.923-1.053z" fill="#fff"/><path d="m813.091 122.873c-3.43 0-8.212 3.836-14.53 10.118-2.34 2.29-4.056 4.354-4.97 6.127l-.02.031-.02.03c-.79 1.685-1.537 4.571-2.191 8.298a604.467 604.467 0 0 1 -1.847 10.44l-1.646 8.928h-10.131l-13.398-.27h-.041c-4.135 0-7.526.279-9.52.841-1.945.507-4.818 1.898-8.318 3.948-.01.003-.01.004-.02.01v.005c-4.677 2.653-7.902 4.695-9.452 6.033-1.64 1.415-2.896 3.283-2.423 5.434.788 3.586 5.063 4.62 8.71 4.62.759 0 1.724-.041 2.826-.092a851.793 851.793 0 0 1 19.245-.625c.264.041.512.082.715.082h18.15l-1.238 6.403-.005.02c-1.654 9.722-3.276 17.43-4.874 23.188-1.114 3.627-1.777 5.936-1.968 6.938l.01-.062c-.343 1.545-.589 2.427-.751 2.816l.04-.072c-.404.861-.649 1.903-.402 3.027.453 2.06 2.593 3.625 4.958 3.625 2.31 0 4.85-1.996 8.271-4.853 3.513-2.947 6.507-5.825 8.97-8.63l.01-.01.005-.011c2.425-2.841 4.12-5.406 4.863-7.604.771-2.078 1.857-6.862 3.313-14.378l1.99-10.207h11.509l3.8.092h.04c6.315 0 10.692-.123 12.97-.386h.051l.051-.01c2.43-.353 5.122-1.207 8.028-2.466 4.204-1.817 8.376-4.12 12.52-6.9 4.078-2.737 7.21-5.116 6.668-7.589-.55-2.504-3.062-3.63-5.271-3.63-.472 0-1.034.051-1.566.117-.25.03-1.382.092-3.36.153h.105c-.942 0-3.44.192-8.096.55-4.49.296-9.05.445-13.674.445-1.666 0-5.977-.093-12.928-.27h-7.057l3.069-16.061.005-.01c.574-3.24 1.484-7.272 2.752-12.107 1.597-5.973 2.433-9.892 2.09-11.452-.555-2.523-2.79-4.62-6.006-4.62z" fill="#002bcd"/><path d="m223.642 266.362c-21.502 0-44.366 3.713-68.543 11.075-9.509 2.843-16.013 6.348-16.013 11.16 0 3.688 2.976 5.705 7.075 5.705.632 0 1.256-.041 1.863-.127l.02-.005 8.012-1.265c.248-.041.137-.02.333-.051-.142.337-.072.289-.403.889l-17.51 30.77c-8.195 14.454-14.884 27.759-20.045 39.905-5.14 12.098-7.874 21.034-7.874 26.326 0 3.559 2.171 6.25 6.45 6.25 1.885 0 4.805-.9 8.573-2.297 3.897-1.419 7.372-2.91 10.42-4.487l.01-.006c3.498-1.768 6.113-3.342 7.26-4.699 1.172-1.365 2.129-3.969 2.831-7.027a117.993 117.993 0 0 1 6.71-19.918c1.95-4.5 3.588-7.771 4.91-9.89.314-.502.534-.759.784-1.095.678.73 1.968 2.192 4.614 5.387l4.546 5.678 18.182 21.711.01.01c2.324 2.699 5.59 6.234 9.753 10.584l.01.01.01.01c3.62 3.689 7.7 5.922 12.335 5.922 4.333 0 9.123-1.527 14.087-4.197 2.018-1.081 3.815-2.341 5.392-3.783 1.535-1.404 2.942-2.994 2.942-4.858 0-2.546-2.638-4.132-5.27-5.376l-.021-.01-.02-.006c-2.137-.979-5.624-3.921-10.758-9.345h-.006c-5.043-5.462-11.748-13.532-20.156-24.273l-.01-.01-.01-.01c-2.71-3.37-3.492-4.976-3.588-5.281.37-.202.897-.425 1.789-.677l-.052.01c6.91-1.86 15.75-5.135 26.39-9.737 28.156-12.105 43.339-25.76 43.339-41.275 0-14.757-13.96-21.69-38.397-21.69zm-8.663 19.542c4.723.115 7.992 1.062 10.123 2.556l.01.01.02.01c2.042 1.397 3.155 3.387 3.155 5.985 0 2.462-1.44 5.52-5.012 9.308-3.477 3.757-8.176 7.3-14.16 10.6-6.07 3.31-12.902 6.115-20.516 8.403-7.637 2.295-13.767 3.376-18.478 3.376-.17 0-.316-.006-.456-.01.251-.49 3.545-6.96 9.604-17.94 6.204-11.282 10.476-17.474 12.023-18.583l.03-.02.032-.021c.999-.752 3.495-1.534 8.583-2.36h.02l.01-.006a88.807 88.807 0 0 1 15.013-1.301zm171.577-16.383c-12.681 0-25.423.514-38.243 1.545-12.698 1.027-21.638 2.24-26.463 3.662-3.591 1.088-6.725 2.719-9.42 4.927l-.02.01-.01.01c-2.577 2.176-4.376 4.62-4.376 7.287 0 .966.442 2.434 1.02 3.82l.006.01.005.01c.594 1.38.725 1.906.725 2.202 0 .523-.76 2.589-2.8 6.318l-12.853 23.2c-6.33 11.327-11.395 21.697-15.176 31.088-3.759 9.333-5.779 16.565-5.779 21.13 0 8.08 3.81 14.313 11.425 18.388 5.247 2.864 13.143 4.207 22.924 4.207 9.556 0 19.747-.898 30.532-2.667 11.715-1.844 21.431-4.668 29.004-8.536 3.905-1.952 7.195-4.052 9.78-6.302l.02-.01.01-.01c2.53-2.268 4.413-4.747 4.413-7.14 0-3.28-2.47-5.434-6.239-5.434-1.73 0-3.557.257-5.44.736-11.957 2.87-21.76 4.854-29.511 5.98-7.635 1.117-15.523 1.682-23.654 1.682-4.979 0-7.973-.511-9.43-1.196-.964-.497-1.65-1.37-1.65-3.122 0-2.298 1.05-6.39 3.375-12.705 2.387-6.353 4.734-11.328 7.038-14.997 1.621-2.614 3.408-4.013 5.218-4.62l.02-.005.02-.005c2.343-.815 6.91-1.339 14.405-1.519l16.997-.545c6.397-.19 12.082-1.21 16.954-3.132 3.88-1.53 7.356-3.358 10.425-5.509 3.043-2.145 5.519-4.506 5.519-6.905 0-2.262-1.654-3.722-3.847-4.318-1.505-.41-4.101-.572-7.27-.572-5.64 0-13.077.334-22.263 1l-22.093 1.72c-.834.052-1.436.082-1.799.082-.16 0-.302-.005-.434-.01.159-.902 1.632-4.396 5.44-11.255 3.982-7.234 6.736-11.565 8.287-13.235 2.116-2.136 6.389-3.526 13.964-3.64l24.961-.54c5.17-.062 9.48-.481 12.658-1.291h.03l.041-.01c3.234-.893 6.564-2.475 9.938-4.647 4.96-3.192 8.43-6.298 8.43-9.694 0-3.17-3.432-4.478-6.615-4.852-2.86-.402-8.925-.577-18.193-.577zm18.156.561c.02.002.03.02.051.02h.041zm175.773-2.472-.02.011c-4.445 0-10.287 1.69-17.351 4.704-3.58 1.528-6.268 2.908-7.578 4.049-1.574 1.37-2.448 3.391-2.921 5.614-.708 2.968-2.578 7.146-5.869 12.996l-.005.01-.005.01c-2.148 3.923-3.63 6.725-4.413 8.335l-13.484 26.988v.01c-5.785 12.025-9.34 20.67-11.752 27.538-1.934-5.285-3.648-10.47-4.684-15.33-4.053-19.204-6.457-38.037-7.212-56.505-.208-4.96-.465-8.165-.931-9.71l-.02-.071-.02-.072c-1.302-3.485-4.277-5.498-8.478-5.498-1.932 0-5.144.528-9.282 1.444-4.087.921-7.655 1.89-10.63 2.9-3.241 1.104-6.001 2.368-7.53 3.54-1.756 1.284-2.991 3.017-3.827 5.054a231.6 231.6 0 0 1 -6.466 14.557c-1.663 3.44-2.899 6.088-3.673 7.864-1.9 4.017-3.124 6.494-3.603 7.329l-.03.061-18.183 36.095-4.763 9.107c-4.14 8.05-7.643 14.563-10.535 19.6-3.327 5.914-5.292 9.85-5.292 11.493 0 1.713.808 3.19 2.16 4.366l.05.041.051.03c1.444 1.153 3.19 1.715 5.128 1.715 1.823 0 3.758-.56 5.572-1.386l14.515-6.493c4.288-1.905 6.947-4.87 8.15-8.985l.01-.041.005-.031c1.067-4.121 3.04-9.542 5.985-16.34 3.013-6.857 6.516-13.987 10.499-21.4l13.996-26.083c.952 14.693 3.236 31.284 7.154 50.245 2.221 10.697 4.414 18.445 6.52 22.87 2.217 4.66 5.422 8.001 10.15 8.001 3.75 0 12.217-2.993 25.336-8.493 3.431-1.463 6.22-3.074 7.546-4.519-.004.01-.004.03-.02.041l.07-.072c-.003.004-.03.004-.04.01.003-.004.01-.006.02-.01 1.502-1.589 2.48-4.042 3.133-6.948 2.161-9.528 6.871-21.827 14.224-37.025 11.231-22.74 22.18-41.46 32.861-56.246l-.04.052c2.857-3.763 4.772-6.525 4.772-8.367 0-2.2-1.15-3.788-3.032-5.08a.224.224 0 0 1 -.051-.03c-1.786-1.272-3.836-1.947-6.16-1.947zm-112.183 10.95-.072.05c.005-.005.041-.02.052-.03.005-.01.02-.02.02-.02z" fill="#fff"/><path d="m784.48 270.987c-1.353 0-2.839.137-4.425.386-10.632 1.354-19.666 2.334-27.109 2.953l-57.98 4.868c-1.65.113-5.362.337-11.208.678l-.577.04-.524.202c-6.13 2.347-11.81 5.108-17.029 8.286-5.08 3.08-8.736 5.836-8.736 8.652 0 3.608 4.099 4.794 8.212 4.794 1.36 0 3.959-.186 7.71-.529h.01l29.496-2.953-17.706 28.073c-6.433 10.248-12.77 22.367-19.028 36.337-6.172 13.93-9.425 23.311-9.425 28.041 0 3.329 2.068 5.906 6.345 5.906 3.573 0 10.055-2.315 19.785-6.435l.02-.005.011-.006c3.731-1.623 6.56-3.143 7.79-4.492 1.26-1.384 1.96-4.082 2.174-7.038.245-3.719 3.637-12.6 10.467-26.686 6.812-14.106 13.565-26.181 20.273-36.27l10.16-15.456c2.051-3.096 3.374-4.64 3.614-4.805 0 0 1.109-.395 3.688-.608l13.055-1.021c8.13-.597 15.155-2.35 20.981-5.34 4.325-2.162 7.952-4.335 10.832-6.524l.02-.01.011-.02c2.817-2.201 5.022-4.463 5.022-6.647 0-2.999-2.751-4.366-5.932-4.366zm103.637 9.541c-2.21.003-6.836 1.19-14.103 3.339l-.04.01c.01-.003.01-.002.03-.005-2.511.708-4.565 1.454-5.715 2.185v-.005l-.04.02c.002-.003.02-.003.03-.01-1.205.755-2.382 2.043-3.487 3.54-.702.946-4.832 5.926-12.187 14.648l-.02.02-8.626 10.6-10.456 12.498-20.527 25.04c-4.489 5.411-8.236 9.646-11.303 12.775-1.26 1.31-1.97 1.885-2.756 2.56.003-2.14.294-6.365.942-13.043 1.438-14.83 4.102-32.494 7.995-53.012.643-3.331.987-5.164 1.085-5.996.475-2.583.763-4.1.836-4.423l.01-.041.005-.041c.226-1.15.385-2.121.445-2.742.164-1.691-.244-3.224-1.34-4.482-1.126-1.293-2.515-1.915-4.365-1.915-2.359 0-6.633 1.56-12.954 4.276-2.271.989-4.074 1.913-5.016 2.74-1.306 1.147-1.843 2.638-1.99 4.15a46.928 46.928 0 0 0 -.127 2.19l-.112 1.122a91.462 91.462 0 0 1 -.592 4.466l-6.112 39.582c-1.49 9.56-2.581 17.878-3.265 24.934-1.117 11.511-1.3 19.52-.434 23.707l.01.02.005.031c1.059 4.686 4.005 7.45 8.853 7.45 5.177 0 11.146-2.633 17.711-7.323 4.216-3.033 8.38-6.748 12.489-11.113 4.059-4.312 11.814-13.274 23.24-26.855l26.84-31.983c8.568-10.163 16.911-19.04 25.03-26.654 2.694-2.468 4.76-4.736 4.947-6.673.319-3.281-1.44-5.583-4.932-5.588z" fill="#002bcd"/></g></g></svg>