<svg height="1959.989" viewBox="-17.09565598 -.00028738 1058.19059422 518.58049774" width="1024mm" xmlns="http://www.w3.org/2000/svg"><path d="m666.774 40.775a517.693 216.405-9.37 0 0 -642.82 229.551 517.693 216.405-9.37 0 0 333.272 229.552 517.693 216.405-9.37 0 0 642.82-229.552 517.693 216.405-9.37 0 0 -333.272-229.551z" fill="#fff" stroke-width=".193"/><path d="m770.947 130.672-18.08 43.068h-61.448l-8.12 18.042h61.997l-18.798 44.231h25.511l18.799-44.231h61.722l7.57-18.042h-61.722l18.08-43.068z" fill="#0e4fd7" stroke-width=".66"/><path d="m626.098 274.54c-.497 1.094-.777 2.189-1.058 3.284-.233.912-.466 1.824-.87 2.554-.59 1.46-1.305 2.555-1.926 3.284-.45.913-1.118 1.825-1.569 2.737 19.574-1.824 36.697-2.554 51.678-2.554l-60.405 124.075c1.784-.183 3.35-.365 4.917-.547h5.863c1.954 0 3.69 0 4.947.182 1.473.183 2.946.365 4.683.365l60.406-124.075c15.416 0 31.296.73 47.595 2.372.186-.73.637-1.642.917-2.737s.56-2.19 1.011-3.102c.404-.73.854-1.642 1.615-2.92.761-1.277 1.212-2.189 1.616-2.918zm129.842 0c.479 2.372.906 10.035 1.33 22.807.205 12.772.21 24.633.45 35.58.502 10.766.895 22.808 1.396 36.128.454 13.502 1.311 26.275 2.309 38.5.915-.183 1.83-.365 2.528-.547h2.605c1.086 0 1.955 0 2.56.182l1.813.547c5.279-6.203 18.194-19.34 37.923-39.594 19.993-20.436 38.838-39.777 57.402-58.023 18.037-17.882 30.455-29.924 36.461-35.58-1.085 0-2.388 0-3.955.182-1.784.183-3.35.365-4.917.548-1.209-.366-2.682-.548-4.373-.73h-3.69l-3.183 3.102-29.587 32.478-49.97 52.732c-.884.912-3.492 3.466-7.822 7.663s-9.81 9.488-16.655 15.874h-1.954l-.12-58.935 1.347-34.12c.315-5.474.382-11.678.465-18.794-1.302 0-3.04 0-5.257.182-2.218.183-4.219.365-6.22.548-1.86-.366-3.768-.548-5.892-.73z" stroke-width=".569"/><path d="m499.65 0a208.173 342.057 55.282 0 0 -407.626 259.29 208.173 342.057 55.282 0 0 141.62 259.29 208.173 342.057 55.282 0 0 407.625-259.29 208.173 342.057 55.282 0 0 -141.619-259.29z" fill="#0e4fd7" stroke-width=".149"/><g fill="#fff"><path d="m157.456 273.262-65.718 134.658c9.91-.547 15.866-.913 17.82-.913 2.172 0 7.94.366 17.571.913l30.22-62.95h1.954c.974 3.831 1.9 7.846 2.828 11.86.756 3.832 1.219 7.116 1.821 9.853l7.689 41.237c11.647-.547 18.906-.913 21.512-.913 2.17 0 9.025.366 20.827.913l-3.168-12.226c-6.864-26.64-12.447-44.703-14.346-55.103 12.021-2.007 22.912-6.386 32.27-12.408 9.62-6.203 16.529-13.684 21.08-22.99 6.355-12.955 4.176-22.26-6.272-28.1-3.441-1.824-7.938-2.918-13.49-3.283-5.335-.365-13.105-.547-22.876-.547zm29.862 10.583c11.073 0 18.92.73 23.804 2.007 4.885 1.277 6.417 5.474 4.596 12.59-.747 2.92-1.587 6.204-3.436 10.035-9.835 20.619-26.98 29.924-50.351 27.917zm113.659-10.583-65.267 133.745h89.24c.45-.912.683-1.824.87-2.554l.794-3.102c.544-1.277.994-2.19 1.351-2.737 1.305-2.555 2.92-5.474 5.451-8.576-15.402 1.643-33.874 2.554-55.633 2.737l24.516-49.995h24.101c6.731 0 16.098.73 27.93 2.008.98-3.832 2.162-6.752 3.063-8.576.76-1.277 2.33-4.015 5.187-8.394-10.097 1.277-20.008 1.825-29.562 1.825h-24.318l20.384-42.331c16.765-.183 34.337.73 52.666 2.92 1.198-3.832 2.162-6.752 3.28-8.577.808-1.46 1.569-2.737 2.237-3.649.45-.912 1.521-2.554 2.733-4.744zm118.333 0-65.624 134.293c1.783-.183 3.35-.365 4.7-.547h8.032c.605.182 1.644.365 2.9.547h3.04l46.251-95.063 14.668 22.443c4.353 6.75 18.77 31.018 43.472 72.802l19.712.183 65.501-134.657c-3.133.365-6.22.547-9.476.547-2.823 0-5.816-.183-8.98-.547l-45.023 91.96a445.689 445.689 0 0 0 -13.009-22.99c-4.259-7.116-9.493-15.509-15.363-24.815-5.87-9.305-11.028-17.15-14.869-23.355-4.011-6.386-8.1-13.32-12.917-20.8z" stroke-width=".569"/><path d="m323.578 221.125-2.461-1.26c-6.795 3.96-14.951 7.379-24.254 10.258-9.302 2.88-17.38 4.32-24.018 4.32-11.564 0-20.434-2.16-26.472-7.02-5.87-4.678-8.617-11.517-8.763-20.155.023-8.458 2.555-18.355 7.933-29.333 3.555-7.198 8.18-14.397 13.877-21.595 5.65-7.018 11.973-13.317 18.754-18.896 6.567-5.578 14.357-10.077 23.155-13.497 9.012-3.419 17.825-5.218 26.605-5.218 7.495 0 13.933 1.62 19.1 4.859 5.382 3.239 8.988 7.558 10.82 12.956h2.997c4.165-5.398 7.106-9.357 8.775-11.697 1.67-2.34 3.905-5.219 6.447-8.458-5.091-2.7-11.56-5.039-19.451-6.838-7.723-1.62-15.416-2.52-23.126-2.52-26.768 0-51.768 6.479-74.86 18.896-23.353 12.597-40.899 30.953-52.85 55.067-6.053 12.777-8.097 24.115-5.49 34.013 2.821 9.897 9.453 17.456 20.064 22.854 10.825 5.4 24.268 8.098 40.544 8.098 17.131 0 33.67-2.699 49.658-8.278zm78.497 22.135 58.273-118.953c9.209 0 22.47.9 39.737 2.88l1.105-4.32c.23-.9.599-2.339 1.534-4.318.092-.36 1.057-1.62 2.374-3.42s2.327-3.239 3.078-4.498h-118.852c-.92 3.599-1.826 6.298-2.714 8.098-.75 1.26-2.558 4.139-5.162 8.458 16.567-1.98 31.36-2.88 44.422-2.88l-58.273 118.953c4.115-.18 7.587-.36 10.631-.54 2.83-.18 5.186-.18 6.9-.18 1.927 0 4.282 0 7.02.18 2.952.18 6.072.54 9.927.54zm66.355-.72h53.537c14.99 0 29.525-3.239 43.817-9.718 14.246-6.298 24.61-15.836 30.57-28.253 5.333-10.798 4.743-18.536-1.295-23.395-6.037-4.859-14.295-7.738-24.986-8.638l1.056-1.62c11.03-1.259 21.542-4.678 31.489-10.077 10.161-5.399 17.096-12.417 21.188-20.875 5.072-10.618 4.65-18.176-1.694-22.675-6.39-4.32-16.285-6.658-29.776-6.658h-59.533zm71.024-75.043 22.188-45.709c5.232-.36 9.346-.54 12.559-.54 7.709 0 12.816 1.8 15.322 5.399 2.674 3.779 1.98 8.998-1.268 15.836-4.091 8.458-10.552 15.297-19.765 20.335-4.239 2.34-8.034 3.78-11.552 4.14s-9.347.54-17.484.54zm-31.075 63.706 25.65-52.548c13.248-.72 22.21 1.08 26.673 5.399 4.294 4.139 3.691 11.517-1.12 21.955-3.387 7.378-9.022 13.497-17.071 18.175-8.05 4.68-15.502 7.019-22.354 7.019z" stroke-width=".562"/></g></svg>