<svg height="2258" viewBox="-2.9 -2.8 964.5 872.3" width="2500" xmlns="http://www.w3.org/2000/svg"><g fill-rule="evenodd"><path d="m501.6 572.5c-4.7.3-9.5-.9-13.6-3.8l-479-336.5c-9.5-6.8-11.9-20-5.2-29.5l135.1-193.6c6.6-9.5 19.8-11.9 29.3-5.2l413 290.2h239.6c5.9 0 11.3 2.5 15.1 6.4.6.6 7 6.4 15.8 16l101.6 101.9c8.3 8.3 8.3 21.7 0 30l-106.8 107.1v-.1c-6.2 6.8-10.5 10.9-10.9 11.3-3.8 3.7-9.1 6-14.8 6h-319.1z" fill="#88d9d9"/><path d="m501.7 294.2v-.1h319.1c5.7 0 11 2.3 14.8 6 .4.5 4.7 4.6 11.1 11.5v-.2l106.6 107c8.3 8.3 8.3 21.7 0 30l-100.8 101.1c-9.2 10.1-16 16.2-16.6 16.8-3.8 4-9.2 6.4-15.1 6.4h-239.7l-412.9 290.1c-9.5 6.7-22.7 4.4-29.3-5.2l-135.1-193.5c-6.7-9.6-4.3-22.8 5.2-29.5l479-336.6c4.1-2.9 9-4.1 13.7-3.8z" fill="#00e6e7"/><path d="m501.6 572.5c-4.7.3-9.5-.9-13.6-3.8l-192.7-135.3-286.3 201.2c-9.5 6.7-11.9 19.9-5.2 29.5l135.1 193.5c6.6 9.6 19.8 11.9 29.3 5.2l412.9-290.1h-79.4zm-492.5-340.3c-9.6-6.7-11.9-19.9-5.2-29.5l135-193.6c6.7-9.5 19.9-11.9 29.4-5.2l413 290.2h-79.5l-.1.2c-4.7-.4-9.5.8-13.6 3.7l-192.7 135.4zm827 68.3c.5.6 6.9 6.4 15.8 16l-5.1-5.1v.2c-6.3-6.9-10.7-11-11.1-11.4-3.8-3.8-9-6.1-14.7-6.1 5.9 0 11.2 2.5 15.1 6.4zm10.6 255.1v-.2c-4.7 5-8.2 8.6-9.9 10.3 2.1-2 8.1-7.7 15.8-16.2zm-10.9 11.2c-2.3 2.3-5.2 4-8.3 5 3.3-1 6.3-2.9 8.6-5.3l.8-.8zm16.9-17.2 100.9-101.1zm-25.2 22.2c-2.1.7-4.2 1-6.4 1 2.2 0 4.3-.3 6.4-1z" fill="#88d9d9"/></g></svg>