<svg height="307" viewBox="-.3 .1 960.1 117.9" width="2500" xmlns="http://www.w3.org/2000/svg"><g fill="#fff"><path d="m620.2 91.1v-7.6l7.6-.8q1.2-.1 1.5-.6.3-.4.3-1.8v-64.6q0-1.4-.3-1.8-.3-.5-1.5-.5l-7.6-.9v-7.8h26.8l24.3 55.9h.4l24.7-55.9h25.6v7.7l-8 1q-1.4.1-1.6.5-.3.3-.3 1.7v64.7q0 1.2.4 1.7.3.5 1.5.5l8 1v7.6h-34.6v-7.6l9.9-.8q1.2-.1 1.5-.6.3-.4.3-1.8v-54.3h-.3l-20.7 46h-15.4l-20.8-46.6h-.3v54.8q0 1.5.3 1.9.3.4 1.6.4l10.2 1v7.6z"/><path d="m726 60q0-7.9 2.2-14.1 2.2-6.1 6-9.9 3.9-3.8 8.9-5.8 5-1.9 10.9-1.9 11.9 0 18.5 6.9 6.7 6.9 6.7 21.8 0 3.5-.3 6.9h-38.4q.5 8.7 4.3 13.2t12.1 4.5q4.2 0 8.1-1 3.8-1 9.3-3.2l3.9 9.5q-11.2 5.7-22.8 5.7-6.5 0-11.6-1.7-5-1.7-8.3-4.5-3.3-2.9-5.5-7.1-2.1-4.1-3.1-8.9-.9-4.7-.9-10.4zm14.6-6h25q0-8.2-3.2-11.8-3.3-3.6-8.6-3.6-5.4 0-9.1 3.9-3.7 3.8-4.1 11.5z" fill-rule="evenodd"/><path d="m787 37.1 1.2-7.7h17.7l1.3 8.8.4.1q7.7-10 17.4-10 5.4 0 9.3 1v19.6l-10.7-.5-1.4-7.4q-.1-.8-.4-1.1-.3-.2-1.1-.2-3 0-6.2 1.9-3.3 2-5.8 4.3v34.3q0 1.4.4 1.9.3.4 1.7.4l11.2 1v7.6h-34.5v-7.7l5.7-.7q1.3-.2 1.6-.6.3-.5.3-1.8v-38.5q0-1.8-1.6-2.5z"/><path d="m840.1 103.3q0-3.9 1.8-6.7 1.8-2.8 5.4-6.3-5.4-2.3-5.4-7.4 0-3.5 2.9-6.8l2.6-3q2.7-3.1 4-4.4-4.3-2.3-6.8-6.9-2.5-4.6-2.5-10.6 0-10.2 6.9-16.6 7-6.3 19.4-6.3 6.9 0 11.1 1.1h21.6v8.8l-11.1.7q4.5 5.8 4.5 12.3 0 10-7 15.7-7 5.7-17.9 5.7-6.3 0-9.9-1.1l-5.5 9.1 14.6.7q7.5.4 11.6.8 4 .3 8.5 1.4 4.4 1 6.4 2.7 2.1 1.6 3.4 4.5 1.4 2.9 1.4 7.2 0 9.6-8.1 14.8-8.1 5.3-23.5 5.3-15.1 0-21.8-3.8-6.6-3.8-6.6-10.9zm12.1-2.2q0 4 4.2 5.7 4.3 1.6 12.4 1.6 2.9 0 5.4-.3 2.6-.3 5.6-1.1 3-.8 4.8-2.6 1.8-1.9 1.8-4.6 0-1.2-.3-2.2-.3-.9-1.2-1.5-.8-.7-1.5-1.1-.8-.3-2.4-.6-1.6-.2-2.6-.3-1.1-.1-3.4-.3l-18.3-1q-4.5 4.8-4.5 8.3zm3.1-50.2q0 5.5 3.2 8.7 3.3 3.3 10.2 3.3 6.2 0 9.9-3.4 3.8-3.3 3.8-8.8 0-6.1-3.6-9.4-3.5-3.4-9.7-3.4-6.3 0-10 3.3-3.8 3.3-3.8 9.7zm51.3 9.1q0-7.9 2.2-14.1 2.2-6.1 6-9.9 3.9-3.8 8.9-5.8 5-1.9 10.9-1.9 11.9 0 18.5 6.9 6.7 6.9 6.7 21.8 0 3.5-.4 6.9h-38.3q.5 8.7 4.3 13.2t12.1 4.5q4.2 0 8.1-1 3.8-1 9.3-3.2l3.9 9.5q-11.2 5.7-22.8 5.7-6.5 0-11.6-1.7-5-1.7-8.3-4.5-3.3-2.9-5.5-7.1-2.1-4.1-3.1-8.9-.9-4.7-.9-10.4zm14.6-6h25q0-8.2-3.3-11.8-3.2-3.6-8.5-3.6-5.5 0-9.1 3.9-3.7 3.8-4.1 11.5z" fill-rule="evenodd"/><path d="m137.9 87.8v-21h10.1l2.3 10.7q.3 1.2.6 1.6.4.4 1.5.8 6.1 1.8 11.7 1.8h.4q17.6 0 17.6-13.5 0-3.4-1.3-5.9-1.3-2.6-4.1-4.2-2.7-1.7-5.2-2.6-2.4-1-6.7-2.2-11.6-3.4-15.9-6.2-9.1-6-9.1-18.6 0-12.6 8.5-18.9 8.5-6.4 22.1-6.4 11.8 0 22.9 4.4v21.4l-10.2-.9-1.7-9.9q-.3-1.8-1.1-2.2-3.2-2-10.5-2-7.9 0-12.1 3.3-4.1 3.3-4.1 9.1 0 2.6 1 4.8 1.1 2.1 2.4 3.4 1.3 1.4 4 2.7 2.8 1.3 4.6 1.9 1.9.7 5.5 1.8 4.8 1.4 7.2 2.3 2.4.9 6.4 3 4 2.2 6 4.5 2 2.4 3.6 6.5 1.6 4 1.6 9.1 0 13.3-8.9 19.7-9 6.3-23.2 6.3-7.5 0-15-1.5-7.4-1.4-10.9-3.1zm63.4-50.7 1.1-7.7h20.5v39.8q0 6.4 1.6 9.3 1.6 2.9 6.3 2.9 8.4 0 16.5-8.3v-31.9q0-1.5-.3-1.9-.2-.5-1.6-.7l-5.7-1.5 1.1-7.7h20.2v50.8q0 2.1 1.5 2.3l6.2.9v7.6h-18.8l-1-7.3-.4-.1q-11 8.8-22.1 8.8-9.4 0-13.3-4.8-3.8-4.8-3.8-15.5v-30.9q0-1.5-.3-1.9-.4-.5-1.6-.7z"/><path d="m270.2 8.7 1.2-7.6h20.6v33.5q10.1-6.4 19.4-6.4h.2q10.4 0 16.6 7.3 6.1 7.4 6.1 22.7 0 17.7-6.8 25.9-6.7 8.3-18.5 8.3-10.6 0-17.7-7h-.5l-.7 5.6h-13.1q1.5-8.6 1.5-16.6v-61q0-2-1.5-2.5zm21.9 65.9q7.3 6.8 14.7 6.8 13.3 0 13.3-22.3 0-9.5-3.3-14.6-3.2-5-9.1-5-7.3 0-15.6 5.8z" fill-rule="evenodd"/><path d="m338.7 91v-7.5l6.7-1q1.2-.1 1.6-.6.3-.5.3-1.7v-66.8q0-2-1.5-2.5l-6.8-2.2 1.2-7.6h20.8v79.1q0 1.4.3 1.8.3.4 1.6.5l6.6.9v7.6zm37.7 0v-7.5l7.1-1q1.1-.1 1.5-.6.4-.5.4-1.7v-38.4q0-2.1-1.6-2.5l-6.5-2.3 1.2-7.6h20.5v50.8q0 1.4.3 1.8.3.4 1.6.5l7 .9v7.6zm5.5-82.2q0-4.2 2.3-6.5 2.3-2.2 6.6-2.2 4.2 0 6.5 2.2 2.4 2.3 2.4 6.5 0 4.3-2.4 6.6-2.3 2.3-6.5 2.3-4.3 0-6.6-2.3t-2.3-6.6zm31.9 28.2 1.2-7.6h17.6l.9 6.7.5.1q10.4-8 20.3-8 10.1 0 14.1 7.2 11-7.2 20.6-7.2 9.4 0 13.4 5.3 4.1 5.2 4.1 15.1v31.6q0 1.4.3 1.8.2.4 1.6.5l6.5.9v7.6h-30.1v-7.5l6.1-.8q2-.3 1.9-2.4v-28.1q0-6-1.5-9.2-1.5-3.3-6-3.3-7.2 0-14.5 4.8.5 2.7.5 6.7v29q0 1.4.2 1.8.3.4 1.6.5l5.5.9v7.6h-29.2v-7.5l6.3-.8q1.1-.2 1.5-.7.4-.6.4-1.7v-27.4q0-3.2-.2-5.1-.2-2-.8-4.1-.6-2-2.3-3.1-1.6-1-4.1-1-7 0-14.7 6.1v34.5q0 1.4.3 1.8.4.4 1.6.5l5.8.9v7.6h-28.9v-7.5l5.7-1q1.2-.1 1.5-.6.4-.5.4-1.7v-38.4q0-2.1-1.6-2.5z"/><path d="m519.5 59.9q0-15.5 7.8-23.6 7.8-8.1 20.2-8.1 25.1 0 25.1 28.7 0 3.5-.3 6.9h-38.3q.4 8.7 4.2 13.2 3.8 4.4 12.1 4.4 7.5 0 17.4-4.2l3.9 9.6q-10.9 5.6-22.8 5.6-29.3 0-29.3-32.5zm14.6-6h24.9q0-15.3-11.8-15.3-5.4 0-9 3.8-3.6 3.8-4.1 11.5z" fill-rule="evenodd"/></g><g fill-rule="evenodd"><path d="m44.5 60.8c-.4 0-.8-.1-1.2-.4l-42.5-29.9c-.8-.6-1.1-1.7-.5-2.6l12-17.2c.6-.8 1.8-1 2.6-.4l36.7 25.7h21.3c.5 0 1 .3 1.3.6 0 .1.6.6 1.4 1.4l9 9.1c.7.7.7 1.9 0 2.6l-9.5 9.6c-.5.6-.9.9-.9 1-.4.3-.8.5-1.3.5z" fill="#88d9d9"/><path d="m44.5 36.1v-.1h28.4c.5 0 .9.3 1.3.6l1 1 9.4 9.5c.7.7.7 1.9 0 2.6l-8.9 9c-.8.9-1.5 1.5-1.5 1.5-.3.4-.8.6-1.3.6h-21.3l-36.7 25.8c-.8.6-2 .3-2.6-.5l-12-17.2c-.6-.8-.3-2 .5-2.6l42.5-29.9c.4-.3.8-.4 1.2-.3z" fill="#00e6e7"/></g></svg>