<svg height="276" width="2500" xmlns="http://www.w3.org/2000/svg" viewBox="0 0.2 960 105.6"><linearGradient id="a" gradientTransform="matrix(6.503 -21.743 22.811 6.822 42.058 90.173)" gradientUnits="userSpaceOnUse" x2="1"><stop offset="0" stop-color="#ff9700"/><stop offset=".53" stop-color="#f48e00"/><stop offset="1" stop-color="#d06f00"/></linearGradient><g fill="#fff"><path d="M685.5 29.4V5.3h80.9v24.1h-10.9L753.4 18q-.2-1.4-2.1-1.4h-17.7v71.3q0 1.5.4 1.9.3.4 1.7.6l14.5 1v8.5h-47.6v-8.5l13.5-.9q1.3-.1 1.7-.6.5-.4.5-2V16.6h-17.6q-1.9 0-2.1 1.4l-2.1 11.4z"/><path d="M764.4 65.8q0-17 8.7-25.8 8.6-8.9 22.3-8.9 27.8 0 27.8 31.4 0 3.9-.4 7.6h-42.3q.5 9.6 4.7 14.5t13.3 4.9q8.3 0 19.3-4.6l4.2 10.4q-12 6.1-25.1 6.2-32.5-.1-32.5-35.7zm16.2-6.5h27.5q0-16.8-13-16.8-6 0-10 4.1-4 4.2-4.5 12.7z" fill-rule="evenodd"/><path d="M831.5 99.9v-8.2l6-1.2q2.2-.3 3.9-2.3l18-21.4-18-22.2q-1.5-1.8-3.1-2.3l-5.6-1.4 1.4-8.5h30.3v8.5L857 42l12.2 15.4L882.4 42l-8-1.1 1.4-8.5h26.9v8.5l-5.8 1.3q-1.8.6-3.6 2.5l-16.9 19.8 18.9 23.6q1.9 2.1 3.5 2.3l6.6 1.2v8.3h-33.6v-8.3l7.4-1.2-12.8-16.6-13.5 16.6 8 1.2v8.3zM910.5 41.4v-9.3q7.4-.8 11.1-5.7c2.4-3.2 4.1-6.2 5-12.3h9.5v17q0 1.3 1.1 1.3h19v10.7h-20.1v35.5q0 6.1 2 8.6 2.1 2.5 7.5 2.5 5 0 11.4-2.2l3 9.4q-10 4.6-19.4 4.6-10.3 0-14.9-4.6-4.7-4.6-4.7-14.3V44.4c0-.8-.4-1.1-1-1.4-2.2-1.4-9.5-1.6-9.5-1.6zM152.5 96.4v-23h11.2l2.6 11.8q.2 1.3.6 1.7.4.5 1.6.9 6.8 1.9 13 1.9h.4q19.5 0 19.5-14.7 0-3.8-1.4-6.6-1.5-2.7-4.5-4.5-3.1-1.9-5.8-2.9-2.7-1.1-7.4-2.3-12.9-3.8-17.6-6.9-10.1-6.6-10.1-20.4 0-13.7 9.4-20.7t24.5-7q13 0 25.3 4.8V32l-11.3-1-1.8-10.9q-.4-1.9-1.3-2.4-3.6-2.1-11.6-2.1-8.8 0-13.4 3.6t-4.6 9.9q0 2.9 1.2 5.3 1.2 2.3 2.7 3.8 1.4 1.4 4.4 2.8 3 1.5 5.1 2.2 2.1.7 6 1.9 5.3 1.6 8 2.5 2.7 1 7.1 3.3 4.4 2.4 6.6 5 2.2 2.6 4 7.1 1.8 4.4 1.8 10 0 14.6-9.9 21.6-9.9 6.9-25.7 6.9-8.2 0-16.5-1.6-8.2-1.6-12.1-3.5zM222.6 40.9l1.2-8.5h22.7V76q0 7.1 1.8 10.3 1.8 3.2 7 3.2 9.3 0 18.2-9.2v-35q0-1.6-.3-2.1t-1.8-.7l-6.2-1.6 1.1-8.5h22.4v55.7q0 2.3 1.6 2.6l6.9.9v8.3h-20.8l-1.1-8-.4-.1q-12.2 9.7-24.5 9.7-10.4 0-14.7-5.3-4.2-5.3-4.2-16.9v-34q0-1.6-.4-2.1-.3-.5-1.8-.7z"/><path d="M298.8 9.7l1.3-8.4H323v36.8q11.1-7 21.4-7h.2q11.6 0 18.3 8 6.8 8.1 6.8 24.9 0 19.3-7.4 28.4-7.5 9.1-20.5 9.1-11.8 0-19.6-7.7h-.6l-.7 6.1h-14.6q1.7-9.4 1.7-18.2V14.9q0-2.2-1.7-2.7zm24.3 72.2q8 7.4 16.3 7.4 14.6 0 14.6-24.4 0-10.5-3.6-16-3.6-5.6-10.1-5.6-8 0-17.2 6.5z" fill-rule="evenodd"/><path d="M374.5 99.9v-8.2l7.5-1q1.3-.2 1.7-.7.4-.5.4-1.9V14.9q0-2.2-1.7-2.7l-7.5-2.5 1.4-8.4h22.9v86.8q0 1.6.4 2 .3.4 1.7.6l7.4.9v8.3zM416.2 99.9v-8.2l7.9-1q1.3-.2 1.7-.7.4-.5.4-1.9V46q0-2.3-1.7-2.8l-7.2-2.5 1.3-8.3h22.7v55.7q0 1.6.3 2 .4.4 1.8.6l7.8.9v8.3zm6-90.1q0-4.6 2.5-7.1Q427.3.2 432 .2q4.7 0 7.3 2.5 2.6 2.5 2.6 7.1 0 4.7-2.6 7.3-2.6 2.5-7.3 2.5-4.7 0-7.3-2.5-2.5-2.6-2.5-7.3zM457.6 40.7l1.4-8.3h19.4l1 7.3.6.1q11.5-8.7 22.4-8.7 11.2 0 15.7 7.9 12.1-7.9 22.8-7.9 10.3 0 14.8 5.8 4.4 5.7 4.4 16.5v34.7q0 1.6.4 2 .3.4 1.8.6l7.1.9v8.3h-33.3v-8.2l6.9-.9q2.1-.3 2-2.6V57.4q0-6.6-1.6-10.1-1.6-3.6-6.6-3.6-8.1 0-16.1 5.3.5 3 .5 7.3v31.8q0 1.6.3 2 .3.4 1.7.6l6.1.9v8.3H497v-8.2l7-.9q1.2-.1 1.7-.7.4-.6.4-1.9v-30q0-3.6-.2-5.7t-.9-4.4q-.7-2.3-2.5-3.4t-4.6-1.1q-7.7 0-16.2 6.7v37.8q0 1.6.3 2 .4.4 1.8.6l6.4.9v8.3h-32v-8.2l6.3-1q1.3-.2 1.7-.7.4-.5.4-1.9V46q0-2.3-1.7-2.8z"/><path d="M574.5 65.8q0-17 8.7-25.8 8.6-8.9 22.3-8.9 27.8 0 27.8 31.4 0 3.9-.4 7.6h-42.3q.5 9.6 4.7 14.5t13.3 4.9q8.3 0 19.3-4.6l4.2 10.4q-12 6.1-25.1 6.2-32.5-.1-32.5-35.7zm16.2-6.5h27.5q0-16.8-13-16.8-6 0-10 4.1-4 4.2-4.5 12.7z" fill-rule="evenodd"/></g><path d="M76.3 56.6c0-1.2-.9-1.9-1.9-1.5L1.9 77.9c-1 .4-1.9 1.6-1.9 2.7V104c0 1.2.9 1.8 1.9 1.5l72.5-22.9c1-.3 1.9-1.5 1.9-2.7z" fill="url(#a)" fill-rule="evenodd"/><path d="M0 55.8c0 1.2.9 2.4 1.9 2.7l72.5 22.9c1 .3 1.9-.4 1.9-1.5V56.5c0-1.1-.9-2.3-1.9-2.7L1.9 30.9c-1-.3-1.9.4-1.9 1.5z" fill="#ff9800" fill-rule="evenodd"/><path d="M76.3 8.5c0-1.1-.9-1.8-1.9-1.5L1.9 29.9c-1 .3-1.9 1.5-1.9 2.7V56c0 1.1.9 1.8 1.9 1.5l72.5-22.9c1-.3 1.9-1.6 1.9-2.7z" fill="#ff9800" fill-rule="evenodd"/></svg>