<svg viewBox="0 0 88 71" xmlns="http://www.w3.org/2000/svg" width="2500" height="2017"><path d="M0 0h88v71H0z" fill="#d42e1a"/><path d="M38.844 7.02h11.154l4.056 3.744V30.81l-3.276 3.198-11.934.078zm-16.926 8.97h-6.63v-3.822H14.04v5.46l4.268.671 3.61 3.619v8.892l-3.588 3.198h-8.034L7.02 30.654v-4.992h7.02v3.666h1.248v-5.85s-2.522-.156-3.744-.234L7.02 19.422v-8.58l3.978-3.822h7.332l3.588 3.822zm.936-8.97h6.786v22.308h1.482V7.02h6.864v23.712c-1.118 1.066-2.236 2.21-3.354 3.276h-8.346a389.494 389.494 0 0 1-3.432-3.354zm24.414 22.308v-17.16h-1.482l.078 17.16zm-36.192 7.644h7.02l4.29 3.9v19.812l-3.588 3.276h-7.956L7.02 60.606V40.794zm12.246 0h6.708V59.28h1.56V36.972h6.864v23.712l-3.432 3.276h-8.19l-3.51-3.354zm15.912 0h11.31v5.148h-4.446v4.992h3.744v5.304h-3.744v6.864h4.446v4.68h-11.31zm26.676 8.97h-6.708l-.078-3.822h-1.17c-.02.946-.212 5.048.156 5.46l4.056.702 3.744 3.666v8.736l-3.744 3.276h-7.878l-3.354-3.354v-4.992h7.02v3.666h1.248l-.078-5.85-3.744-.234-4.446-3.744v-8.658l3.978-3.822h7.332l3.666 3.9zm.312-8.97h13.26v5.148h-3.12v21.84h-6.864l-.078-21.84h-3.198zM15.444 59.28V42.12H14.04v17.16z" fill="#fff"/></svg>