<svg clip-rule="evenodd" fill-rule="evenodd" height="411" image-rendering="optimizeQuality" shape-rendering="geometricPrecision" text-rendering="geometricPrecision" viewBox="0 0 26412.54 4343.88" width="2500" xmlns="http://www.w3.org/2000/svg"><path d="m4025.31 1787.34v802.74c0 362.14 197.19 680.38 489.47 852.85v-1655.58h780.49v1699.87h-1680.02c-225.5-181.76-370.42-459.95-370.42-770.39v-929.48h780.49zm1891.7 0h780.49v234.49l279.45-234.49h536.91c284.06 174.39 474.55 487.99 474.55 843.95v855.93h-780.49v-908.48c0-285.5-227.67-520.36-510.42-532.09v1440.57h-780.49v-1699.87zm14745.3 0h780.49v1699.87h-780.49zm4053.36-1653.56h780.49v3353.43h-780.49zm-4069.46 1100.42 406.34-279.45 406.35 279.45-406.35 279.46zm-7571.59 553.15h1672.82c229.09 174.85 382 490.08 382 849.94s-152.91 675.08-382 849.94h-892.33v856.65h-780.49v-2556.52zm780.49 2.44v1694.99c293.68-175.33 489.44-489.29 489.44-847.5s-195.76-672.16-489.44-847.5zm2028.31-2.44c-229.09 174.85-382 490.08-382 849.94s152.91 675.08 382 849.94h1764.15c56.51-43.13 108.38-94.82 154.46-153.59l-597.97-418.7c-70.67 235.64-228.99 435.24-438.59 563.68-278.89-170.9-467-467.81-478.6-807.93h840.32c239.38-174.85 410.83-490.08 432-849.94.66-11.18 1.16-22.31 1.52-33.39h-1677.3zm402.89 849.46c.18-357.96 195.83-671.68 489.31-846.95-.28 10.25-.71 20.54-1.32 30.88-19.87 337.71-211.4 636.1-487.99 816.07zm2133.21-849.46c-229.09 174.85-382 490.08-382 849.94s152.91 675.08 382 849.94h1764.15l-477.45-477.45c-81.14 194.21-223.79 358.02-404.63 468.83-287.97-176.46-479.18-487.29-479.18-841.32s191.21-664.85 479.18-841.32c180.84 110.82 323.5 274.62 404.63 468.83l477.45-477.45h-896.38zm5611.95 0v1699.87h-1752.27c-155.8-118.51-254.96-296.76-254.96-496.13 0-199.36 99.15-377.61 254.94-496.12h971.8v-673.57c-492.06 68.29-788.12 283.62-1058.67 518.06v-552.11zm-780.49 1688.11v-968.74c-281.48 84.62-476.77 269.68-476.77 484.37s195.28 399.75 476.77 484.37zm2829.96-580.88c-72.09 0-137.36 29.22-184.59 76.45s-76.45 112.51-76.45 184.59c0 72.09 29.22 137.36 76.45 184.59s112.51 76.45 184.59 76.45c72.09 0 137.36-29.22 184.59-76.45s76.45-112.51 76.45-184.59c0-72.09-29.22-137.36-76.45-184.59s-112.51-76.45-184.59-76.45zm-234.47 26.57c60.01-60 142.91-97.13 234.47-97.13s174.46 37.13 234.47 97.13c60 60.01 97.13 142.91 97.13 234.47s-37.13 174.46-97.13 234.47c-60.01 60-142.91 97.13-234.47 97.13s-174.46-37.13-234.47-97.13c-60-60.01-97.13-142.91-97.13-234.47s37.13-174.46 97.13-234.47zm160.91 112.66v106.41h97.82c18.95 0 33.37-4.61 43.32-13.78 9.96-9.16 14.97-22.69 14.97-40.61 0-8.37-1.1-15.7-3.26-21.98-2.15-6.38-5.02-11.39-8.52-15.06-3.51-3.75-7.97-6.78-13.3-9.17-5.35-2.3-10.75-3.9-16.1-4.61-5.33-.79-11.39-1.2-18.07-1.2zm-59.73 292.38v-341.12h162.87c36.72 0 64.68 8.04 83.87 24.14 19.19 16.08 28.83 38.78 28.83 68.01 0 12.27-1.67 23.5-5.02 33.69-3.34 10.2-7.17 18.17-11.47 23.98-4.22 5.73-9.39 10.83-15.45 15.37-6.13 4.54-10.75 7.49-14.02 9-3.26 1.43-6.68 2.79-10.27 4.07v.95c5.73.8 11.31 2.47 16.64 5.02 5.42 2.55 10.76 6.45 16.17 11.62 5.35 5.26 9.64 12.59 12.91 22.07 3.26 9.47 4.94 20.63 4.94 33.36 0 20.88 1.51 39.44 4.61 55.68 3.11 16.25 7.81 27.65 14.03 34.17h-64.2c-2.79-4.54-4.86-9.95-6.29-16.33-1.35-6.36-2.16-11.71-2.39-16.01-.25-4.29-.41-10.19-.41-17.84 0-16.48-.94-30.02-2.87-40.7-1.98-10.67-5.4-19.91-10.43-27.64-4.93-7.8-11.85-13.37-20.78-16.8-8.85-3.43-20.15-5.18-33.77-5.18h-87.78v140.49h-59.73z" fill="#373435"/><path d="m0 0h3042.6v3753.42h-3042.6zm9781.68 0h3042.6v3753.42h-3042.6z" fill="#ed3237"/><path d="m1101 2035.17c150.32 104.51 312.66 201.33 448.12 331.5 329.63 318.92 303.61 809.09-50.4 1107.3-242.73-176.6-460.89-391.63-656.58-641.71l-437.65 654.96h2116.34c285.35-554.55 200.08-1010-133.75-1395.2-154.84-178.66-419.75-352.28-617.44-494.2-101.65-72.99-203.26-148.02-297.89-238.94-321.43-310.98-269.18-783.58 76.02-1074.37 250.84 147.17 467.93 340.11 630.56 566.63l409.56-584.92h-2063.68c-280.61 545.37-210.79 994.53 117.64 1372.67 124.17 143 304.62 288.88 459.15 396.28zm9781.68 0c150.32 104.51 312.66 201.33 448.12 331.5 329.63 318.92 303.61 809.09-50.4 1107.3-242.73-176.6-460.89-391.63-656.58-641.71l-437.65 654.96h2116.34c285.35-554.55 200.08-1010-133.75-1395.2-154.84-178.66-419.75-352.28-617.44-494.2-101.65-72.99-203.26-148.02-297.89-238.94-321.43-310.98-269.18-783.58 76.02-1074.37 250.84 147.17 467.93 340.11 630.56 566.63l409.56-584.92h-2063.68c-280.61 545.37-210.79 994.53 117.64 1372.67 124.17 143 304.62 288.88 459.15 396.28z" fill="#fefefe"/></svg>