<svg clip-rule="evenodd" fill-rule="evenodd" height="863" image-rendering="optimizeQuality" shape-rendering="geometricPrecision" text-rendering="geometricPrecision" viewBox="0 0 31711 10948" width="2500" xmlns="http://www.w3.org/2000/svg"><path d="M5420 2017c-1901 0-3457 1556-3457 3457s1556 3457 3457 3457h20872c1901 0 3457-1556 3457-3457s-1556-3457-3457-3457zm26291 3471v-28c-7-2164-1779-3931-3944-3931h-8123C18659 583 17324 0 15856 0s-2804 583-3788 1529H3945C1775 1529 0 3304 0 5474s1775 3945 3945 3945h8123c984 946 2320 1529 3788 1529s2803-583 3788-1529h8123c2165 0 3937-1768 3944-3931z" fill="#272424"/><path d="M5420 2017h20872c1901 0 3457 1556 3457 3457s-1556 3457-3457 3457H5420c-1901 0-3457-1556-3457-3457s1556-3457 3457-3457z" fill="#fff212"/><g fill="#ed3237"><path d="M22869 2208c402 0 730 328 730 731 0 402-328 730-730 730s-731-328-731-730c0-403 329-731 731-731zm-730 6250h1460V3778h-1460zm-3755-2915c-74-227-81-455-35-683 166-567 547-891 1096-1046 168-48 344-74 533-71 321 4 807 115 1162 327 437 260 661 781 302 1225-314 388-1036 255-1207-204-52-141-60-300-22-479 122-183-203-337-354-285-116 41-211 103-257 197-108 218 27 409 195 551 326 277 754 510 1108 766 282 203 516 332 687 657 158 303 235 728 117 1089-210 650-1035 835-1632 870-631-3-1739-199-1654-1053 34-340 287-634 641-655 661-39 910 536 669 1116 298 237 770-50 632-446-113-327-793-685-1138-932-386-276-690-468-843-944zm7795 745v1152c-37 197-154 334-430 340-537-132-555-1724 24-1755 236-32 377 56 406 263zm17 2174h1312V4990c-29-984-1120-1327-2004-1186-440 71-896 296-1074 678-280 602 196 1184 875 962 349-114 552-802 134-1033 59-197 664-186 745 192v1033c-697-190-1588-46-1993 555-334 497-264 1250 100 1712 487 617 1223 549 1893 259zm-9990-2823v1496c-48 256-200 434-558 442-698-171-720-2238 31-2279 306-41 490 72 527 341zm22 2823h1705V3954c-38-1278-1456-1723-2603-1540-571 92-1164 384-1394 880-364 782 254 1538 1135 1250 454-149 717-1042 175-1342 77-255 862-241 967 250v1340c-905-246-2062-59-2588 722-433 644-343 1622 130 2221 632 802 1588 714 2458 337zM27549 3478h239c50 0 90-5 119-16 28-10 50-27 65-50s22-48 22-75c0-40-14-73-43-98-29-26-74-38-136-38h-266zm-111 469h111v-373h129c28 0 49 2 62 4 17 5 34 12 50 23 17 10 36 29 57 56 21 26 47 65 80 115l111 175h140l-146-228c-29-45-60-82-93-112-15-14-37-28-67-42 81-11 141-37 179-78 39-41 58-91 58-150 0-46-12-89-35-127s-54-65-93-80-96-22-171-22h-372zm334-1025c-341 0-619 278-619 619s278 620 619 620 619-279 619-620-278-619-619-619zm0-121c408 0 741 332 741 740s-333 741-741 741-741-333-741-741 333-740 741-740zM4188 4841c140-64 280-129 420-194-126-518-681-832-1155-566-218 123-336 352-373 595-42 281 6 618 252 793 96 69 213 118 342 180 170 83 431 164 452 386 24 268-204 399-440 299-127-54-214-187-257-371-153 46-306 92-460 138 122 390 278 665 700 736 625 104 1005-326 988-938-24-212-99-377-228-510-178-184-350-216-564-319-59-28-115-56-161-90-140-100-169-252-66-390 191-257 495 12 550 251zm7076 428h176c181 0 156-9 205-27 228-82 233-634-5-723-37-14-5-20-184-20h-192zm-517 1511V4058h839c1050 0 804 1461 401 1521l427 1201h-541l-339-1052-270 2v1050zm-1836 0V4058h1504v461h-965v656h761v458h-761v688h1002v459zM7581 4499v805c119 0 245 21 349-35 201-108 208-638-1-739-104-51-232-31-348-31zm-530 2281V4058h720c239 0 394 13 468 39 117 42 213 132 289 269 77 137 115 314 115 531 0 197-33 382-99 515-65 133-148 226-246 280s-268 81-509 81h-208v1007zM4958 4058h522v1474c0 230 4 379 12 448 14 120 48 213 102 279 53 65 124 98 212 98 74 0 135-23 183-70 47-46 79-111 96-193s26-259 26-530V4058h523v1430c0 365-18 629-54 792-37 163-120 294-249 395s-299 152-509 152c-219 0-391-42-513-126-123-83-212-201-268-352-55-152-83-431-83-839z"/></g></svg>