<svg height="2500" width="2500" xmlns="http://www.w3.org/2000/svg" viewBox="-0.387 -128 1176.097 1303.711"><path d="M583.001-.316c2.985.005 5.97-.002 8.955-.02C619.47-.503 646.777 1.035 674 5.25l2.05.31C753.03 17.29 826.274 44.273 920 102l1.843 1.274c18.421 12.805 36.472 26.592 53.012 41.761a269.453 269.453 0 0 0 5.958 5.277c9.333 8.167 18.279 16.683 27.062 25.438l2.413 2.4c4.218 4.228 8.275 8.536 12.17 13.063 2.085 2.417 4.251 4.755 6.417 7.1 4.92 5.402 9.553 10.989 14.125 16.687l2.738 3.36c61.702 75.944 103.274 167.306 124.012 282.702l.565 3.677c3.726 25.992 5.193 51.893 5.076 78.127-.017 3.861-.007 7.722.01 11.583.309 81.814-18.092 164.577-53.1 238.574-1.921 4.083-3.578 8.173-5.113 12.414-1.65 4.474-3.655 7.983-6.418 11.844-2.372 3.645-4.291 7.476-6.27 11.344-11.842 22.934-26.256 44.572-41.5 65.375l-1.373 1.88c-7.831 10.692-16.083 20.99-24.627 31.12l-1.628 1.933c-11.679 13.806-24.116 26.88-36.872 39.692l-2.21 2.224a234.08 234.08 0 0 1-12.477 11.583c-2.423 2.096-4.772 4.269-7.125 6.443-5.403 4.92-10.99 9.553-16.688 14.125l-3.36 2.738c-74.186 60.273-163.221 101.48-282.64 124.012l-3.651.565c-26.04 3.743-52.1 5.198-78.38 5.076-3.724-.017-7.447-.007-11.17.01-79.026.31-158.735-16.94-230.799-49.401l-3.471-1.55c-30.787-13.809-60.832-30.1-88.529-49.45l-1.986-1.372c-14.823-10.238-29.2-21.06-43.014-32.628l-1.529-1.271a530.479 530.479 0 0 1-21.77-19.172c-2.123-1.943-4.278-3.85-6.428-5.764-5.324-4.786-10.41-9.782-15.46-14.856l-2.577-2.564c-4.402-4.41-8.658-8.884-12.719-13.61-2.075-2.41-4.234-4.74-6.392-7.076-4.92-5.402-9.553-10.989-14.125-16.687l-2.738-3.36C106.297 928.373 86.617 897.85 69 866l-1.365-2.464C24.999 785.951.259 694.273-.387 590.306c.012-2.29.02-4.581.025-6.872C-.296 561.498.12 539.78 3 518c.169-1.358.337-2.716.504-4.075C10.507 457.55 25.657 401.821 49 350l1.55-3.471C64.36 315.742 80.65 285.697 100 258l1.372-1.986C111.61 241.19 122.432 226.814 134 213l1.271-1.529a530.479 530.479 0 0 1 19.172-21.77c1.943-2.123 3.85-4.278 5.764-6.428 4.786-5.324 9.782-10.41 14.856-15.46l2.564-2.577c4.41-4.402 8.884-8.658 13.61-12.719 2.41-2.075 4.74-4.234 7.076-6.392 5.402-4.92 10.99-9.552 16.687-14.125l3.395-2.773c9.59-7.807 19.493-15.113 29.605-22.227l2.313-1.63C269.197 92.126 288.847 80.209 309 69l2.12-1.185c60.683-33.723 129.377-54.237 197.943-63.628l2.165-.3C535.095.611 558.94-.357 583.001-.317z" fill="#ab2328"/><path d="M583.001-.316c2.985.005 5.97-.002 8.955-.02C619.47-.503 646.777 1.035 674 5.25l2.05.31C753.03 17.29 826.274 44.273 920 102l1.843 1.274c18.421 12.805 36.472 26.592 53.012 41.761a269.453 269.453 0 0 0 5.958 5.277c9.333 8.167 18.279 16.683 27.062 25.438l2.413 2.4c4.218 4.228 8.275 8.536 12.17 13.063 2.085 2.417 4.251 4.755 6.417 7.1 4.92 5.402 9.553 10.989 14.125 16.687l2.738 3.36c61.702 75.944 103.274 167.306 124.012 282.702l.565 3.677c3.726 25.992 5.193 51.893 5.076 78.127-.017 3.861-.007 7.722.01 11.583.309 81.814-18.092 164.577-53.1 238.574-1.921 4.083-3.578 8.173-5.113 12.414-1.65 4.474-3.655 7.983-6.418 11.844-2.372 3.645-4.291 7.476-6.27 11.344-11.842 22.934-26.256 44.572-41.5 65.375l-1.373 1.88c-7.831 10.692-16.083 20.99-24.627 31.12l-1.628 1.933c-11.679 13.806-24.116 26.88-36.872 39.692l-2.21 2.224a234.08 234.08 0 0 1-12.477 11.583c-2.423 2.096-4.772 4.269-7.125 6.443-5.403 4.92-10.99 9.553-16.688 14.125l-3.36 2.738c-74.186 60.273-163.221 101.48-282.64 124.012l-3.651.565c-26.04 3.743-52.1 5.198-78.38 5.076-3.724-.017-7.447-.007-11.17.01-79.026.31-158.735-16.94-230.799-49.401l-3.471-1.55c-30.787-13.809-60.832-30.1-88.529-49.45l-1.986-1.372c-14.823-10.238-29.2-21.06-43.014-32.628l-1.529-1.271a530.479 530.479 0 0 1-21.77-19.172c-2.123-1.943-4.278-3.85-6.428-5.764-5.324-4.786-10.41-9.782-15.46-14.856l-2.577-2.564c-4.402-4.41-8.658-8.884-12.719-13.61-2.075-2.41-4.234-4.74-6.392-7.076-4.92-5.402-9.553-10.989-14.125-16.687l-2.738-3.36C106.297 928.373 86.617 897.85 69 866l-1.365-2.464C24.999 785.951.259 694.273-.387 590.306c.012-2.29.02-4.581.025-6.872C-.296 561.498.12 539.78 3 518c.169-1.358.337-2.716.504-4.075C10.507 457.55 25.657 401.821 49 350l1.55-3.471C64.36 315.742 80.65 285.697 100 258l1.372-1.986C111.61 241.19 122.432 226.814 134 213l1.271-1.529a530.479 530.479 0 0 1 19.172-21.77c1.943-2.123 3.85-4.278 5.764-6.428 4.786-5.324 9.782-10.41 14.856-15.46l2.564-2.577c4.41-4.402 8.884-8.658 13.61-12.719 2.41-2.075 4.74-4.234 7.076-6.392 5.402-4.92 10.99-9.552 16.687-14.125l3.395-2.773c9.59-7.807 19.493-15.113 29.605-22.227l2.313-1.63C269.197 92.126 288.847 80.209 309 69l2.12-1.185c60.683-33.723 129.377-54.237 197.943-63.628l2.165-.3C535.095.611 558.94-.357 583.001-.317zm-70.563 85.441l-2.075.314C443.983 95.55 380.35 119.217 323 154l-2.606 1.579C308.511 162.823 297.149 170.674 286 179l-1.835 1.367c-7.225 5.405-14.175 11.097-21.024 16.965-2.96 2.53-5.982 4.977-9.016 7.418-3.67 2.984-7.073 6.064-10.347 9.473-1.751 1.75-3.566 3.355-5.45 4.96-4.487 3.902-8.699 8.04-12.89 12.254l-2.17 2.159c-4.63 4.637-8.999 9.436-13.268 14.404a1334.883 1334.883 0 0 1-3.437 3.875c-2.147 2.22-2.147 2.22-2.563 5.125l-3 1c-1.623 1.748-1.623 1.748-3.187 3.937a279.902 279.902 0 0 1-7.438 9.5c-58.8 73.556-97.433 165.24-107.01 259.04-.273 2.635-.57 5.263-.882 7.895-1.611 14.263-1.79 28.447-1.744 42.791.01 3.935 0 7.87-.012 11.806-.013 21.323.798 42.674 4.023 63.781l.515 3.447c13.84 90.056 50.075 177.06 114.204 253.838 2.32 2.717 4.555 5.483 6.781 8.277 12.205 14.964 26.117 29.641 40.887 42.102 2.218 1.888 4.345 3.863 6.488 5.836 5.586 5.034 11.467 9.63 17.415 14.223a509.236 509.236 0 0 1 6.015 4.777c27.658 22.1 58.323 39.981 89.945 55.75l2.402 1.205C414.19 1068.516 463.58 1082.72 513 1090l3.098.494c23.482 3.495 47.333 3.888 71.027 3.818l4.022-.006c20.75-.046 41.277-.51 61.853-3.306l2.14-.287c95.323-12.934 185.965-53.464 262.923-118.713l1.64-1.4A735.046 735.046 0 0 0 925 966l2.178-1.902c6.826-6.045 13.294-12.417 19.728-18.873a2313.03 2313.03 0 0 1 5.37-5.364c5.788-5.784 11.445-11.6 16.724-17.861.949-1.084 1.9-2.166 2.852-3.246 7.8-8.944 15.063-18.236 22.148-27.754l1.613-2.156c30.745-41.226 54.573-87.32 71.387-135.844l1.113-3.189c11.295-32.709 18.63-66.73 23.137-100.999l.495-3.759c2.25-17.978 2.471-35.863 2.495-53.956.005-2.79.018-5.58.041-8.369.21-26.12-1.672-51.71-6.218-77.478l-.791-4.61c-1.78-10.292-3.813-20.49-6.272-30.64l-.816-3.82C1067.386 406.63 1039.438 347.413 1004 298l-3.25-4.586C994.773 285.02 988.632 276.89 982 269a9159.014 9159.014 0 0 1-4.375-5.438c-4.106-5.024-8.43-9.797-12.852-14.542-1.995-2.147-3.91-4.346-5.812-6.575-4.756-5.454-9.878-10.548-14.993-15.663a1476.8 1476.8 0 0 1-5.1-5.14c-5.902-5.93-11.874-11.514-18.451-16.7-2.529-2.032-4.912-4.176-7.292-6.38C897.562 184.44 879.655 172.352 862 161l-2.273-1.467c-64.082-41.114-139.404-68.952-215.434-76.2a300.872 300.872 0 0 1-7.37-.841c-14.236-1.712-28.433-1.8-42.755-1.753-3.395.012-6.789.005-10.183-.007-23.922-.069-47.872.742-71.547 4.393z" fill="#bd9b5d"/><path d="M585.401 80.684c3.966.003 7.93-.02 11.896-.045 24.571-.062 48.864 1.917 73.078 6.173l2.251.386A458.52 458.52 0 0 1 713 96l2.964.768c72.909 18.957 141.396 54.174 198.584 103.282a631.54 631.54 0 0 0 6.624 5.6c8.37 7.015 16.208 14.447 23.89 22.206 1.893 1.912 3.795 3.816 5.698 5.718 5.955 5.973 11.81 11.965 17.24 18.426.972 1.119 1.946 2.236 2.922 3.352C1022.14 314.473 1059.574 385.222 1079 461l.673 2.532c8.949 33.737 14.464 69.944 14.495 104.823l.01 4.063c.006 2.826.008 5.652.007 8.478 0 2.838.007 5.675.02 8.513.114 23.809-.703 47.412-4.455 70.966l-.322 2.064A542.025 542.025 0 0 1 1064 762l-1.197 3.331c-20.445 56.062-52.038 107.209-90.616 152.544l-1.323 1.564c-8.967 10.472-18.528 20.411-28.273 30.156a1416.31 1416.31 0 0 0-4.968 5.007C931.068 961.19 924.279 967.206 917 973a382.256 382.256 0 0 0-4.925 4.294c-57.114 50.272-130.25 85.004-203.773 102.893-2.356.58-4.707 1.178-7.056 1.788-36.774 9.542-74.261 12.274-112.122 12.334-1.956.003-3.911.01-5.867.015-23.456.035-47.052-.632-70.257-4.324l-2.927-.423c-8.656-1.27-17.208-2.939-25.76-4.765l-2.173-.462c-31.967-6.848-63.14-16.294-93.14-29.35l-2.486-1.072C341.36 1034.372 299.742 1008.559 262 977l-1.79-1.49c-17.751-14.818-35.774-30.714-50.112-48.912-2.22-2.749-4.567-5.324-6.973-7.91-5.24-5.709-10.013-11.702-14.717-17.852a790.217 790.217 0 0 0-4.138-5.336c-13.306-17.225-25.39-35.66-36.27-54.5l-1.805-3c-4.856-8.116-9.102-16.482-13.195-25l-1.447-3.002C117.703 781.113 106.853 751.764 98 721l-.965-3.324C84.776 674.96 80.56 630.55 80.625 586.25v-1.994C80.63 561.3 81.66 538.726 85 516l.567-3.942C92.37 466.201 105.566 421.093 125 379l1.414-3.065C139.602 347.54 154.864 320.533 173 295l1.595-2.255c5.894-8.317 11.84-16.524 18.401-24.33 2.648-3.191 5.126-6.502 7.594-9.833L202 257h2l.82-1.785c2.084-3.912 5.21-6.953 8.18-10.215l2.602-2.883c9.645-10.617 19.553-21.256 30.523-30.523 2.279-1.937 4.478-3.953 6.687-5.969 5.252-4.728 10.663-9.221 16.188-13.625l1.873-1.503C339.103 135.907 420.845 99.991 507 86l2.83-.464c25.008-4 50.285-4.894 75.571-4.852zM524 142l-3.453.485A402.971 402.971 0 0 0 500 146l-3.157.616c-42.37 8.433-82.998 23.747-120.919 44.34a653.488 653.488 0 0 1-4.944 2.65A437.31 437.31 0 0 0 363 198l-1.735.964c-34.575 19.307-65.435 45.017-93.357 72.943-1.6 1.598-3.208 3.187-4.816 4.777-6.485 6.45-12.394 13.15-18.092 20.316a271.693 271.693 0 0 1-2.793 3.25c-55.773 64.052-89.824 147.47-100.457 231.25l-.495 3.861C136.638 573.578 137.46 612.951 143 651l.293 2.05c3.933 27.463 10.488 53.555 19.586 79.713.926 2.673 1.828 5.35 2.71 8.038C179.865 783.725 203.378 824.34 231 860l1.304 1.698c5.323 6.927 10.752 13.659 16.669 20.095a234.705 234.705 0 0 1 5.214 5.894C273.922 910.23 295.957 930.158 320 948l2.2 1.641c47.935 35.653 103.568 61.783 161.8 75.359l2.21.521c9.694 2.252 19.46 3.993 29.29 5.541l2.848.456c3.545.538 7.096 1.017 10.652 1.482l2.764.37c17.85 2.344 35.43 3.158 53.423 3.067l3.938-.009C684.505 1036.1 775.197 1006.52 864 942l2.016-1.588c7.982-6.314 15.718-12.815 23.14-19.78a244.331 244.331 0 0 1 6.621-5.894c4.626-4.03 8.96-8.327 13.285-12.676l2.315-2.302A261.829 261.829 0 0 0 925 885c.95-1.083 1.9-2.165 2.852-3.246C978.98 823.14 1012.152 752.644 1029 677l.586-2.606c10.322-47.178 10.961-98.687 4.414-146.394l-.489-3.788c-5.363-41.37-17.246-82.23-34.511-120.212l-1.39-3.062C980.685 363.991 959.04 330.158 933 299l-1.474-1.774c-11.474-13.775-23.598-27.9-37.276-39.539-3.192-2.745-6.29-5.573-9.375-8.437-5.804-5.29-11.908-10.122-18.133-14.906a599.692 599.692 0 0 1-4.96-3.875C840.95 214.119 818.422 200.292 795 188l-2.683-1.418C710.715 143.693 615.01 128.843 524 142z" fill="#fefefe"/><path d="M583.001-.316c2.985.005 5.97-.002 8.955-.02C619.47-.503 646.777 1.035 674 5.25l2.05.31C753.03 17.29 826.274 44.273 920 102l1.843 1.274c18.421 12.805 36.472 26.592 53.012 41.761a269.453 269.453 0 0 0 5.958 5.277c9.333 8.167 18.279 16.683 27.062 25.438l2.413 2.4c4.218 4.228 8.275 8.536 12.17 13.063 2.085 2.417 4.251 4.755 6.417 7.1 4.92 5.402 9.553 10.989 14.125 16.687l2.738 3.36c61.702 75.944 103.274 167.306 124.012 282.702l.565 3.677c3.726 25.992 5.193 51.893 5.076 78.127-.017 3.861-.007 7.722.01 11.583.309 81.814-18.092 164.577-53.1 238.574-1.921 4.083-3.578 8.173-5.113 12.414-1.65 4.474-3.655 7.983-6.418 11.844-2.372 3.645-4.291 7.476-6.27 11.344-11.842 22.934-26.256 44.572-41.5 65.375l-1.373 1.88c-7.831 10.692-16.083 20.99-24.627 31.12l-1.628 1.933c-11.679 13.806-24.116 26.88-36.872 39.692l-2.21 2.224a234.08 234.08 0 0 1-12.477 11.583c-2.423 2.096-4.772 4.269-7.125 6.443-5.403 4.92-10.99 9.553-16.688 14.125l-3.36 2.738c-74.186 60.273-163.221 101.48-282.64 124.012l-3.651.565c-26.04 3.743-52.1 5.198-78.38 5.076-3.724-.017-7.447-.007-11.17.01-79.026.31-158.735-16.94-230.799-49.401l-3.471-1.55c-30.787-13.809-60.832-30.1-88.529-49.45l-1.986-1.372c-14.823-10.238-29.2-21.06-43.014-32.628l-1.529-1.271a530.479 530.479 0 0 1-21.77-19.172c-2.123-1.943-4.278-3.85-6.428-5.764-5.324-4.786-10.41-9.782-15.46-14.856l-2.577-2.564c-4.402-4.41-8.658-8.884-12.719-13.61-2.075-2.41-4.234-4.74-6.392-7.076-4.92-5.402-9.553-10.989-14.125-16.687l-2.738-3.36C106.297 928.373 86.617 897.85 69 866l-1.365-2.464C24.999 785.951.259 694.273-.387 590.306c.012-2.29.02-4.581.025-6.872C-.296 561.498.12 539.78 3 518c.169-1.358.337-2.716.504-4.075C10.507 457.55 25.657 401.821 49 350l1.55-3.471C64.36 315.742 80.65 285.697 100 258l1.372-1.986C111.61 241.19 122.432 226.814 134 213l1.271-1.529a530.479 530.479 0 0 1 19.172-21.77c1.943-2.123 3.85-4.278 5.764-6.428 4.786-5.324 9.782-10.41 14.856-15.46l2.564-2.577c4.41-4.402 8.884-8.658 13.61-12.719 2.41-2.075 4.74-4.234 7.076-6.392 5.402-4.92 10.99-9.552 16.687-14.125l3.395-2.773c9.59-7.807 19.493-15.113 29.605-22.227l2.313-1.63C269.197 92.126 288.847 80.209 309 69l2.12-1.185c60.683-33.723 129.377-54.237 197.943-63.628l2.165-.3C535.095.611 558.94-.357 583.001-.317zm-72.438 38.628l-2.23.325C494.784 40.612 481.379 43.083 468 46l-5.578 1.18C411.322 58.186 361.31 78.044 316 104l-2.74 1.562c-32.648 18.69-64.228 40.617-91.87 66.231a254.64 254.64 0 0 1-6.64 5.894c-3.137 2.723-6.059 5.6-8.969 8.563-1.865 1.832-3.8 3.544-5.781 5.25-5.907 5.11-11.167 10.626-16.258 16.543-1.64 1.842-3.343 3.557-5.117 5.27-3.788 3.72-7.054 7.808-10.379 11.94a175.402 175.402 0 0 1-6.121 7.06c-42.578 47.522-77.947 109.201-97 170.175A94.483 94.483 0 0 1 61.938 411c-2.208 5.289-3.63 10.789-5.1 16.318-1.002 3.754-2.074 7.443-3.342 11.116-1.624 4.789-2.78 9.631-3.871 14.566l-.643 2.888c-.669 3.035-1.327 6.073-1.982 9.112l-.634 2.908C28.492 550.651 29.734 635.661 57 748l1.34 4.687C61.627 764.067 65.506 775.045 70 786l1.11 2.733C86.816 827.388 105.154 864.656 129 899l1.36 1.979c11.02 16.02 22.907 31.329 35.64 46.021l1.918 2.223A693.728 693.728 0 0 0 173 955l1.898 2.145A948.08 948.08 0 0 0 182 965l1.594 1.751c9.08 9.942 18.555 19.335 28.46 28.455a995.768 995.768 0 0 1 5.301 4.927c6.336 5.9 12.886 11.458 19.645 16.867 1.13.922 2.261 1.846 3.39 2.77 32.012 26.063 67.398 48.212 104.523 66.213 2.258 1.1 4.506 2.221 6.755 3.341 40.094 19.765 84.177 34.003 128.1 42.079 2.17.4 4.337.81 6.503 1.23A587.963 587.963 0 0 0 512 1137l2.04.304c24.076 3.531 48.11 4.068 72.398 4.071l2.175.003c18.54.024 36.926-.522 55.387-2.378l2.207-.216c3.895-.385 7.782-.82 11.668-1.284l3.137-.355c6.722-.787 13.341-1.878 19.988-3.145 1.608-.288 3.216-.575 4.824-.86 12.686-2.302 25.147-5.255 37.628-8.483a777.114 777.114 0 0 1 13.673-3.403c5.018-1.207 9.824-2.52 14.613-4.438 3.065-1.106 6.185-1.946 9.325-2.816 4.85-1.358 9.33-2.953 13.937-5a413.855 413.855 0 0 1 8.45-2.742c31.963-11.323 63.79-27.426 92.55-45.258l2.556-1.577c12.865-7.968 25.337-16.344 37.444-25.423l1.854-1.39c7.538-5.68 14.895-11.57 22.146-17.61l1.53-1.269c7.834-6.502 15.392-13.25 22.827-20.202 1.67-1.555 3.35-3.098 5.034-4.638 8.233-7.537 16.333-15.118 23.605-23.606 2.06-2.35 4.178-4.635 6.311-6.918 4.961-5.314 9.745-10.704 14.295-16.379a488.84 488.84 0 0 1 5.421-6.633c7.838-9.456 15.07-19.202 21.977-29.355l1.888-2.768c26.196-38.523 48.347-79.336 64.347-123.156a652.451 652.451 0 0 1 2.48-6.592c6.797-17.948 11.97-36.23 16.285-54.922l.646-2.78c6.448-27.932 11.011-56.201 13.354-84.782l.286-3.422c.946-12.929.957-25.87.964-38.828l.003-3.68c-.011-19.821-.747-39.377-3.022-59.066-.234-2.03-.46-4.06-.685-6.09-2.518-22.487-5.91-44.852-12.308-66.59-1.107-3.78-2.048-7.587-2.961-11.42-3.719-15.567-8.447-30.99-14.277-45.904l-1.226-3.147c-7.746-19.734-16.227-38.923-25.774-57.853l-1.508-3.004c-14.555-28.84-32.496-56.612-52.492-81.996-.72-.92-1.441-1.838-2.184-2.785A662.627 662.627 0 0 0 1019 240l-2.172-2.7a342.127 342.127 0 0 0-13.492-15.718 435.282 435.282 0 0 1-5.648-6.383C986.188 202.034 973.865 189.821 961 178a5305.03 5305.03 0 0 1-3.129-2.906 314.03 314.03 0 0 0-15.816-13.63 622.688 622.688 0 0 1-6.672-5.46c-47.548-39.321-102.81-69.268-160.785-90.04-2.483-.921-4.91-1.932-7.348-2.964-5.44-2.214-11.054-3.632-16.734-5.07-3.884-1.027-7.654-2.26-11.433-3.62-6.58-2.304-13.272-3.79-20.083-5.248-14.024-3.037-14.024-3.037-18.383-4.164-9.301-2.388-18.696-3.983-28.18-5.46l-3.756-.6c-26.458-3.978-52.678-5.32-79.392-5.16-3.07.013-6.138.008-9.207.003-23.374-.03-46.377 1.2-69.52 4.631z"/><path d="M501.813 597.563l3.717.027c21.57.41 40.2 8.082 55.47 23.41 20.625 21.98 25.85 48.105 25.281 77.293-.469 13.98-3.497 26.005-9.281 38.707l-1.254 2.84c-2.826 6.053-6.45 11.066-10.746 16.16l-1.84 2.281C552.008 771.601 534.413 781.973 517 784c-24.347 1.67-46.308-.906-65.938-16.375-18.4-16.173-30.685-39.083-32.448-63.831-.193-4.246-.176-8.483-.114-12.732l.016-2.248c.09-11.06.804-21.295 4.484-31.814l1.063-3.363c7.733-22.422 23.227-39.573 44.437-50.012 10.588-4.974 21.752-6.165 33.313-6.063z" fill="#fefdfd"/><path d="M273 600c92.864 0 92.864 0 111.219 17.063 10.43 10.897 12.269 22.443 12.058 36.863-.388 10.466-4.397 20.38-11.996 27.738-1.382 1.167-2.825 2.262-4.281 3.336l2.379 1.285C393.649 692.577 401.53 699.66 406 712c3.843 15.23 2.399 30.153-5.09 44.082-8.06 12.314-20.05 19.861-34.18 23.41C336.01 785.206 304.248 781 273 781V600z" fill="#fefcfc"/><path d="M809 395c81.614 0 81.614 0 92.375 5.188l2.015.931c14.203 6.807 21.269 17.021 26.587 31.549 4.435 14.696 3.478 31.343-3.332 45.062-1.43 2.533-2.962 4.9-4.645 7.27l-1.45 2.043c-5.31 6.702-12.538 11.211-19.55 15.957 4.355 8.06 8.829 16.047 13.375 24l1.027 1.799c12.358 21.631 12.358 21.631 25.3 42.914C942 574 942 574 942 576c-4.98.075-9.96.129-14.941.165-1.692.015-3.383.035-5.075.061a759.69 759.69 0 0 1-7.328.067l-2.26.047c-8.01.002-14.506-2.539-20.36-8.067-8.992-10.043-15.013-23.077-21.628-34.762l-1.035-1.828c-.941-1.664-1.88-3.33-2.82-4.994A104.478 104.478 0 0 0 863 521l-12 2v52h-42V395zM539 395c92.555 0 92.555 0 109.813 16.594 12.079 13.287 13.901 31.018 13.323 48.228-.95 15.196-8.784 25.811-19.136 36.178l-2 2.035c-12.809 12.119-31.818 18.977-47.938 25.465l-2.639 1.063C584.257 527 584.257 527 582 527l.007 1.816c.022 6.212.037 12.424.048 18.637.005 2.321.012 4.642.02 6.964.013 3.328.018 6.657.023 9.985l.015 3.166v2.912l.007 2.577C582 575 582 575 581 576h-42V395z" fill="#fefdfd"/><path d="M376 395h42l.028 10.993c.034 12.018.09 24.036.156 36.054.04 7.283.072 14.565.087 21.848.013 6.354.04 12.707.084 19.06.022 3.359.036 6.717.037 10.077.002 3.764.03 7.528.062 11.293l-.015 3.315c.117 8.798 1.42 18.791 6.936 25.985 6.855 6.202 13.583 6.055 22.316 5.777 5.161-.354 8.813-1.442 12.309-5.402 7.176-9.3 7.296-20.89 7.319-32.173l.03-3.522c.03-3.803.048-7.607.065-11.41.019-2.653.038-5.305.059-7.957.046-6.244.083-12.487.116-18.73.039-7.116.088-14.23.138-21.346.103-14.62.191-29.241.273-43.862h42c.068 16.187.123 32.373.155 48.56.016 7.517.037 15.034.071 22.55.03 6.559.05 13.117.056 19.675.004 3.467.013 6.933.035 10.4.025 3.887.025 7.773.024 11.66l.032 3.417c-.065 17.149-4.688 34.2-15.373 47.738l-1.813 2.688c-12.083 12.774-29.815 17.244-46.818 17.717-19.753.207-38.432-2.865-53.31-17.061-13.455-15.318-17.411-34.47-17.286-54.273v-3.73c0-3.333.01-6.667.024-10 .013-3.5.014-7 .016-10.499.006-6.608.023-13.216.043-19.824.022-7.531.033-15.062.043-22.593.021-15.475.058-30.95.101-46.425zM763 601h42l1 77 16-25c5.5-8.5 5.5-8.5 8.078-12.473 2.318-3.58 4.614-7.176 6.906-10.773l2.135-3.348c1.38-2.167 2.76-4.334 4.137-6.504a296.397 296.397 0 0 1 3.933-6.01c1.875-2.82 1.875-2.82 3.046-5.847 1.598-3.353 2.667-4.945 5.765-7.045 7.466-1.675 15.355-.933 22.938-.625 2.135.05 4.272.096 6.408.137 5.22.11 10.437.277 15.654.488-1.685 5.149-4.735 9.305-7.766 13.734l-1.763 2.603a3141.495 3141.495 0 0 1-3.763 5.537c-1.967 2.89-3.928 5.784-5.886 8.679-5.109 7.55-10.224 15.095-15.346 22.636-2.625 3.866-5.24 7.739-7.85 11.616-.956 1.417-1.915 2.831-2.878 4.243a988.262 988.262 0 0 0-3.955 5.854l-2.234 3.297c-1.883 2.85-1.883 2.85-1.559 6.801a80.771 80.771 0 0 0 4.063 6.375l1.339 1.957c.987 1.44 1.978 2.879 2.972 4.315 1.713 2.478 3.41 4.967 5.103 7.458 3.18 4.678 6.368 9.35 9.559 14.019 2.57 3.763 5.136 7.53 7.703 11.295a16310.82 16310.82 0 0 0 16.011 23.456l1.59 2.324c2.627 3.842 5.264 7.678 7.914 11.504l1.561 2.258c.977 1.412 1.955 2.822 2.936 4.23C912 779.889 912 779.889 912 781c-6.014.074-12.028.129-18.042.165-2.045.015-4.09.035-6.134.061-2.944.037-5.888.054-8.832.067-.91.015-1.819.03-2.756.047-7.618.002-12.54-2.185-18.236-7.34-2.008-2.469-2.008-2.469-4.125-5.5l-1.244-1.774c-6.735-9.665-13.3-19.45-19.898-29.21-2.837-4.195-5.68-8.384-8.53-12.57l-1.162-1.708c-1.81-2.66-3.622-5.32-5.434-7.98l-1.97-2.895-1.697-2.49c-2.665-3.946-5.3-7.912-7.94-11.873l-1 83h-42V601z" fill="#fefefe"/><path d="M296.535 390.815a723.45 723.45 0 0 0 5.99-.04c11.969-.018 22.452 1.413 33.6 5.787l2.531.96c5.83 2.221 5.83 2.221 8.344 3.478v36c-4.002-1.334-6.888-2.37-10.438-4.313-14.56-7.259-29.282-10.4-45.453-6.828-5.698 2.09-9.081 5.318-12.047 10.578-1.662 5.576-1.902 10.53.743 15.88 6.543 9.215 21.666 12.308 31.793 15.992 13.978 5.18 28.719 11.899 36.379 25.453 6.91 15.113 8.701 32.45 3.023 48.238-5.915 14.824-16.257 25.296-30.813 31.75-10.578 4.037-20.823 5.792-32.125 5.687l-3.521-.02c-15.572-.284-31.41-2.535-45.541-9.417l-2.63-1.054C234 567 234 567 233.433 563.263c.001-1.55.03-3.1.08-4.65l.021-2.476c.028-2.609.09-5.216.154-7.825.026-1.768.048-3.537.069-5.306.055-4.336.141-8.67.244-13.006 4.511.805 8.36 2.401 12.5 4.312 12.641 5.673 24.64 8.823 38.5 9l2.29.088c5.715.064 9.913-1.268 14.71-4.4 3.595-3.711 4.166-7.714 4.375-12.75-.1-5.65-1.585-9.1-5.375-13.25-7.308-5.475-15.727-8.302-24.25-11.313-16.634-6.05-32.211-13.27-40.75-29.687-5.442-12.04-6.73-29.693-2.375-42.25A74.803 74.803 0 0 1 236 425l1.32-2.555c8.692-15.626 21.657-24.423 38.403-29.57 7.035-1.878 13.542-2.061 20.812-2.06z" fill="#fefdfd"/><path d="M682 395h103v33h-60v38h43v31h-44v46h61v33H682V395z" fill="#fefcfc"/><path d="M739 607v40c-3.805-1.522-7.388-3.148-11.063-4.938-14.933-6.794-33.53-9.675-49.375-3.937C665.37 644.323 656.381 654.489 651 668c-6.156 17.979-3.9 37.572 4.25 54.5 5.879 10.983 14.575 18.221 26.422 22.145 5.287 1.516 10.227 1.818 15.703 1.73l2.79-.03c12.504-.285 22.559-4.291 33.835-9.345 1.665-.672 3.331-1.34 5-2 .198 5.462.343 10.923.44 16.388.04 1.858.094 3.715.164 5.572.097 2.674.142 5.345.177 8.02l.125 2.507c.002 2.417-.089 4.235-.906 6.513-4.115 3.903-9.367 5.73-14.75 7.25l-3.297.953L718 783l-1.746.535C700.434 786.8 679.05 785.397 664 780l-3.695-1.32c-23.436-9.263-40.301-26.966-50.484-49.736-10.226-24.222-9.413-51.694.054-75.944 10.647-24.993 29.139-40.488 53.59-51.066 2.165-.794 4.293-1.392 6.535-1.934l3.36-.836c22.863-5.004 44.701-2.633 65.64 7.836z" fill="#fefdfd"/><path d="M522.402 639.438c12.747 9.064 19.44 23.448 22.09 38.48 2.8 20.36-1.111 40.873-13.367 57.648-6.004 6.593-15.599 12.051-24.566 12.672-11.192.307-18.938-.902-27.746-8.363-13.176-12.68-18.6-28.32-19.147-46.32-.276-18.622 3.942-35.68 17.162-49.617 13.118-11.702 30.447-13.553 45.574-4.5z" fill="#ab2429"/><path d="M731 841c3.27-.465 3.27-.465 6 0-.688 3.656-2.254 6.519-4.063 9.75l-1.66 2.984L730 856l2.45-.473 3.237-.59 3.2-.597c3.025-.33 5.193-.115 8.113.66.125 2.375.125 2.375 0 5-2 2-2 2-5.125 2.125L739 862l-1-3h-11l-2 5a154.55 154.55 0 0 1-2.313 4.363l-1.32 2.44a955.703 955.703 0 0 1-2.734 4.984c-2.715 5.04-4.495 9.596-5.633 15.213 10.532-4.435 15.153-11.77 20.617-21.559C735 867 735 867 736 866a99.984 99.984 0 0 1 5 0c.346 4.24-.498 6.27-2.875 9.75-3.026 4.753-4.232 8.71-5.125 14.25 6.485-2.262 8.113-6.216 11-12 3.155-6.062 6.43-10.482 13-13 4.79-.737 7.92-.72 12 2 .438 3.438.438 3.438 0 7-1.813 1.938-1.813 1.938-4 3h-3l1-8c-3.482.29-4.742.728-7.188 3.313-2.64 3.915-4.087 6.528-4 11.312l.02 2.352c.047 2.092.047 2.092 1.168 4.023 5.457-.223 8.483-1.457 12.5-5.188 2.444-2.953 3.358-6.208 4.5-9.812 2.158-4.522 4.456-6.81 9-9 3.72-.479 7.298-.645 11 0 1.832 1.527 1.832 1.527 3 3l-3.188.25c-4.832.95-7.228 2.415-10.007 6.512-2.762 4.915-3.204 8.65-2.805 14.238 2.832.418 2.832.418 6 0 3.187-3.015 4.672-5.624 5-10-.304-1.672-.631-3.34-1-5 1-1 1-1 4.125-1.563 5.005.727 6.315 2.617 9.395 6.422 3.918 5.667 4.302 10.33 3.48 17.141-2.239 8.278-6.01 14.92-13 20-3.57 1.958-7.204 3.536-11 5l-2.48 1.063c-19.544 7.271-45.11 3.215-65.256.716-4.617-.572-9.238-1.106-13.859-1.643-2.441-.284-4.883-.57-7.324-.857-13.367-1.566-26.753-2.933-40.143-4.279l-3.651-.368c-7.453-.752-14.907-1.498-22.361-2.24l-8.04-.803a30368.06 30368.06 0 0 0-33.137-3.293c-7.914-.785-15.83-1.553-23.749-2.296l-3.956-.38c-49.35-4.172-99.166-.761-143.993 21.536l-2.27 1.121-1.998 1.008C406 932 406 932 403 932l10-10 1.453-1.648c31.187-27.25 101.51-21.337 139.312-18.878 53.363 3.636 106.64 8.994 159.85 14.397 40.271 5.502 40.271 5.502 77.385-6.871 4.369-4.107 8.55-8.488 9.336-14.621.127-6.042.127-6.042-2.211-11.504-1.982-1.91-1.982-1.91-4.125-2.875l-.5 3.062c-1.496 5.138-5.018 8.215-9.5 10.938-4.373 1.424-7.694 1.49-12-.125-2.395-2.245-2.739-3.65-3-6.875l-1.574 1.242c-5.592 4.32-10.04 7.681-17.426 6.758-4.676-2.91-4.676-2.91-5.637-6.14L744 887l-1.898 1.496-2.477 1.941-2.46 1.934c-3.526 2.654-5.735 3.16-10.165 2.629-2.375-2.5-2.375-2.5-4-5l-1.434 1.094c-5.18 3.635-9.24 4.875-15.566 3.906-1-1-1-1-1.36-4.46.074-5.465 2.474-9.5 5.11-14.165l1.344-2.484c2.433-4.452 5.018-8.721 7.906-12.891-.7.01-1.402.02-2.124.032-3.188.041-6.375.067-9.563.093l-3.342.05-3.233.02-2.967.032c-2.942-.241-5.103-.996-7.771-2.227l1-2 1.877.016c2.853.02 5.707.034 8.56.046l2.952.026c2.872.01 5.74-.033 8.611-.088l2.566.039c4.398-.103 4.398-.103 7.879-2.528 1.245-1.975 2.263-3.954 3.242-6.074 1.294-2.717 2.585-4.93 4.313-7.437z" fill="#a79363"/><path d="M604 833c2.125.938 2.125.938 4 2 .34 5.482-.478 8.767-3.063 13.59l-.941 1.786a571.173 571.173 0 0 1-2.996 5.562c-.676 1.268-1.35 2.537-2.023 3.806A1180.769 1180.769 0 0 1 594 869l1.861-.65 2.448-.838 2.423-.837c2.507-.746 4.665-.927 7.268-.675-.523 5.155-1.73 9.102-4 13.75-2.204 4.542-2.204 4.542-4 9.25 9.352-3.134 14.254-12.615 19.043-20.691C621 866 621 866 623.738 865.66L626 866c.71 1.57.71 1.57 1 4a74.583 74.583 0 0 1-3.375 6.875c-2.384 4.33-4.092 8.144-4.625 13.125l2.875-1.5C625 887 625 887 627 887l.824-1.675c1.284-2.538 2.632-5.032 3.996-7.528l1.462-2.677 1.843-3.37L641 861h-28l-1-3 2.684.07c3.363.05 6.712.036 10.074-.032 1.497-.026 2.995-.034 4.492-.025 8.707.23 8.707.23 16.258-3.367 2.837-3.551 4.681-7.486 6.492-11.646 1-1 1-1 3.563-1.063L658 842c-1.46 5.31-3.983 9.463-7 14l2.5-.5c3.913-.559 7.552-.568 11.5-.5-4.581 4.382-10.91 5-17 5l-.853 2.196c-1.071 2.619-2.243 5.138-3.495 7.675l-1.334 2.74c-.92 1.883-1.844 3.763-2.773 5.641-2.219 4.577-4.124 8.6-4.545 13.748l10-2-.375-3.938c.028-5.979 2.43-9.71 6.375-14.062 4.616-4.348 8.543-6.358 14.938-6.5 4.721.16 4.721.16 7.062 2.5.127 5.33-2.377 8.243-5.813 11.973-3.159 2.928-6.625 5.261-10.246 7.582L655 889v2c8.142-.664 12.322-4.404 18-10 3.472-4.236 6.544-8.697 9.469-13.324L684 866h4c.378 4.372-.657 6.651-3 10.312l-1.688 2.676L682 881l1.875-2c13.74-13.7 13.74-13.7 22.5-14.188L709 865c-.629 5.75-2.925 10.306-5.56 15.346-2.187 4.405-2.775 7.636-2.44 12.654v3c-2.375.125-2.375.125-5 0-2.608-2.608-2.358-3.862-2.438-7.5.071-6.49 2.06-11.048 5.438-16.5-7.625 5.111-13.516 11.53-19.14 18.746C678 893 678 893 676 894c-2 .04-4 .043-6 0l1-6c-1.877 0-3.337 1.765-4.75 2.875-5.47 4.12-9.26 5.643-16.25 5.125l-3-2c-2.074.196-2.074.196-4.25.875-4.021 1.009-7.579 1.459-11.75 1.125l-3-2v-4l-1.723 1.129c-7.092 4.345-7.092 4.345-11.34 3.683L612 894l-1-7-2.125 1.75c-8.877 6.947-8.877 6.947-14.875 6.25-1-1-1-1-1.438-4.813.011-6.491 3.305-11.676 6.438-17.187-3.297.28-5.153.453-8 2-3.894 5.531-5.697 11.305-5 18v3c-3.375.125-3.375.125-7 0-2-2-2-2-2.438-4.938.105-5.468 3.02-10.285 5.438-15.062-4.843-1.223-9.043-1.795-14-1-4.204 2.85-7.022 7.245-9.862 11.376-1.474 2.103-3.121 4.018-4.825 5.936L551 895l-5-1c.398-5.19 3.097-7.874 6.438-11.563 4.402-4.795 4.402-4.795 7.562-10.437l-3-.188c-5.966-.859-10.433-4.207-14.563-8.437L541 861l1-3 1.25 1.207c5.921 5.432 11.673 7.931 19.703 8.883 3.636-.16 5.235-2.325 7.621-4.89l1.487-1.547a319.352 319.352 0 0 0 4.626-4.966 792.71 792.71 0 0 1 6.075-6.425c.75-.79.75-.79 1.517-1.594C589.95 842.829 596.673 836.664 604 833z" fill="#a79363"/><path d="M316 703l16.5-.25 5.158-.11c8.586-.109 15.635-.197 22.182 6.141l1.098 1.719 1.152 1.719c3.451 6.754 3.133 16.69 1.004 23.812-2.848 6.062-6.267 10.05-12.313 13.082-3.53 1.126-6.566 1.112-10.27 1.082l-3.899-.015-4.924-.055L316 750v-47z" fill="#ab2429"/><path d="M851 428c23.736 0 23.736 0 32.438 6.188 6.513 7.149 7.27 14.55 6.875 23.933-.752 9.334-3.291 15.554-10.313 21.879-8.646 6.9-18.6 10.533-29 14v-66z" fill="#a92328"/><path d="M906.066 610.902L913 611c-3.434 6.44-7.23 12.519-11.34 18.547l-1.828 2.703c-1.92 2.835-3.844 5.668-5.77 8.5-1.256 1.853-2.512 3.705-3.767 5.559l-1.882 2.776c-1.25 1.846-2.497 3.693-3.742 5.542a895.222 895.222 0 0 1-9.804 14.27l-3.933 5.681-1.898 2.648-1.698 2.474-1.519 2.158c-1.085 2.195-1.085 2.195-.079 4.742 1.554 2.96 3.391 5.526 5.385 8.213 4.781 6.538 9.281 13.245 13.75 20 4.615 6.966 9.264 13.89 14.125 20.687 4.861 6.796 9.51 13.722 14.125 20.688 5.79 8.737 11.714 17.333 17.875 25.812 1.38 1.913 2.756 3.829 4.125 5.75l1.695 2.36C938 792 938 792 938 794c-7.686.127-15.372.214-23.06.275-2.612.025-5.225.059-7.838.102-3.763.061-7.526.09-11.29.111l-3.52.078c-6.962.003-12.01-.758-17.292-5.566l-1-2h50l-7-10a1274.585 1274.585 0 0 1-17.375-25.562c-4.847-7.317-9.784-14.522-14.938-21.625-4.43-6.202-8.568-12.609-12.771-18.964-4.563-6.88-9.262-13.62-14.193-20.24-1.616-2.447-2.379-3.753-2.723-6.609.853-1.963.853-1.963 2.247-4.049l1.576-2.397 1.755-2.585 1.801-2.716c1.945-2.926 3.908-5.84 5.871-8.753A4452.098 4452.098 0 0 1 884 640l3.227-4.798c16.262-24.178 16.262-24.178 18.84-24.3z" fill="#440e0f"/><path d="M582 428c24.472 0 24.472 0 31.078 5.836 7.493 7.95 7.453 16.196 7.235 26.574-.253 5.237-1.276 9.268-4.313 13.59l-1.215 1.836c-7.33 9.73-19.628 14.313-30.785 18.164h-2v-66z" fill="#ab2429"/><path d="M486 837c1 1 1 1 1.313 4.063-.646 8.128-5.33 13.517-10.41 19.64A139.382 139.382 0 0 0 472 867l1.563-1.063c3.425-1.317 5.91-.736 9.437.063 2.08 4.161 1.29 8.719-.125 13-2.558 6.111-6.219 10.469-12.188 13.438-4.526 1.755-8.889 2.66-13.687 1.562-3.282-2.53-4.692-4.077-6-8l-1.645 1.46c-.715.633-1.43 1.264-2.168 1.915l-2.144 1.898c-4.228 3.574-6.568 3.934-12.043 3.727l-1-3-2.625 1.5c-3.596 1.598-5.504 2.077-9.375 1.5-3.338-2.15-4.735-3.204-6-7-.712-6.883.673-11.536 5-17 3.909-3.619 7.805-6.325 13.25-6.5 3.34.445 5.674 1.253 8.75 2.5 2.734-.295 2.734-.295 5-1 1 3 1 3-.145 5.305l-1.668 2.57c-3.417 5.31-5.311 9.848-6.187 16.125 4.899-1.38 6.453-3.602 9.063-7.875l1.14-1.838c2.285-3.704 4.488-7.455 6.695-11.205 19.575-33.19 19.575-33.19 31.102-32.082z" fill="#a79363"/><path d="M518 407h7c.07 15.126.123 30.252.155 45.379.016 7.025.037 14.05.071 21.074.034 6.789.05 13.578.059 20.366.005 2.58.016 5.161.032 7.742.157 25.85.157 25.85-3.317 38.439l-.598 2.331C516.907 558.843 508.19 572.397 494 582a86.205 86.205 0 0 1-61.754 8.066c-5.387-1.77-10.32-4.279-15.246-7.066v-2c4.42.5 8.734 1.134 13.094 2.016 22.669 4.143 44.49.007 63.593-12.82 15.223-12.316 20.575-31.855 23.03-50.465.982-9.467.77-19.045.795-28.551l.054-7.322c.047-6.362.077-12.724.104-19.086.03-6.516.076-13.033.121-19.55.086-12.74.154-25.481.209-38.222z" fill="#430e0f"/><path d="M667 430c7.279 6.409 9.588 17.56 10.29 26.813.812 17.873-5.583 31.987-17.477 45.312C646.702 516.209 629.61 524.874 612 532l-3.434 1.477-3.254 1.398-2.886 1.242C600 537 600 537 597 537l.007 1.93c.022 6.601.037 13.203.048 19.805.005 2.466.012 4.933.02 7.4.013 3.537.018 7.074.023 10.611l.015 3.365v3.094l.007 2.739C597 588 597 588 596 589c-1.35.093-2.707.117-4.06.114h-2.61l-2.834-.016-2.888-.005c-3.057-.005-6.114-.018-9.17-.03A8189.481 8189.481 0 0 1 553 589v-8h36v-49c4.704-2.352 9.114-4.54 13.941-6.48 16.506-6.737 31.602-13.594 45.059-25.52l2.328-2.008c11.63-10.72 18.273-25.366 18.977-41.14.162-7.693.04-14.491-2.305-21.852-.125-2.938-.125-2.938 0-5z" fill="#480f10"/><path d="M937 430c5.558 5.188 8.406 14.328 8.945 21.855L946 454l.117 2.988C946.48 474.1 941.76 487.33 930 500a170.827 170.827 0 0 1-9 8c1.246 3.282 2.638 6.271 4.441 9.281l1.493 2.506 1.629 2.713 3.535 5.938 1.91 3.207c3.524 5.936 7.006 11.896 10.492 17.855 4.128 7.055 8.26 14.107 12.438 21.133l1.83 3.08c1.126 1.893 2.255 3.785 3.386 5.676l1.502 2.525 1.307 2.186C966 586 966 586 967 589c-6.51.102-13.02.172-19.531.22-2.212.02-4.423.047-6.634.082-3.193.049-6.384.071-9.577.089l-2.96.062c-6.638.002-12.527-.988-18.298-4.453l-3-4h46c-4.664-8.002-9.33-16.002-14-24l-1.067-1.827c-2.157-3.693-4.316-7.384-6.476-11.074l-3.238-5.54c-3.276-5.604-6.583-11.184-10-16.704-.854-1.385-.854-1.385-1.724-2.8a451.103 451.103 0 0 0-3.181-5.068l-1.384-2.24-1.212-1.917c-.93-2.368-.657-3.493.282-5.83 2.258-2.078 2.258-2.078 5.125-4.25 11.521-9.184 19.833-20.8 21.875-35.75.242-4.172.235-8.323.188-12.5l-.002-3.262c-.034-6.156-.385-12.134-1.186-18.238z" fill="#470e10"/><path d="M316 630l11-.188 3.418-.082c7.54-.062 12.855 1.034 19.394 4.958 5.489 5.802 5.715 12.673 5.678 20.298-.232 6.059-1.418 11.397-5.49 16.014-6.441 5.153-12.98 4.465-20.938 4.25L316 675v-45z" fill="#aa2328"/><path d="M588 652c8.158 7.043 10.616 22.128 11.688 32.375.869 13.75 1.455 28.142-1.688 41.625l-.44 1.914c-3.895 16.33-11.144 30.72-22.56 43.086l-1.77 1.977c-12.288 13.065-30.955 22.405-48.956 23.133-3.176.06-6.348.076-9.524.078l-3.238.037c-9.675.017-18.588-1.13-27.575-4.788l-3.285-1.316A80.248 80.248 0 0 1 476 788v-2c2.862.465 5.712.94 8.55 1.535C509.028 792.21 531.718 788.84 553 776c3.582-2.436 6.81-5.073 10-8l2.29-2.012c17.271-16.055 27.164-41.278 28.081-64.562.04-2.371.061-4.742.067-7.114l.011-3.796c-.14-11.52-2.097-22.311-4.99-33.433C588 655 588 655 588 652z" fill="#460e10"/><path d="M414 713c7 8.778 6.624 21.274 6 32-2.324 16.072-11.227 27.607-23.871 37.172-15.62 10.37-32.084 12.3-50.34 12.121a2679.806 2679.806 0 0 1-18.445-.087c-4.552-.031-9.104-.044-13.657-.06-8.895-.031-17.791-.083-26.687-.146v-7l2.505-.018c7.868-.058 15.736-.13 23.604-.218 4.043-.044 8.085-.083 12.129-.11 3.916-.027 7.832-.067 11.749-.117 1.479-.017 2.958-.028 4.437-.035 21.087-.099 40.962-3.471 57.263-17.877L401 766l1.676-1.887c7.709-9.194 11.481-19.408 11.422-31.386l-.01-3.497-.026-3.605-.013-3.676c-.012-2.983-.028-5.966-.049-8.949z" fill="#440e0f"/><path d="M503 258c6.134 3.125 9.81 7.524 12 14 .87 7.338.574 13.976-4 20-3.736 3.812-6.927 6.141-12.313 6.25-4.093-.065-6.46-.561-9.687-3.25-6.018-6.438-7.476-11.338-7.316-19.992.72-6.846 4.108-11.601 9.316-16.008 4.07-1.357 7.744-1.525 12-1z" fill="#a79463"/><path d="M359 504l3 1a56.15 56.15 0 0 1 2.188 7.375l.521 2.284C368.352 532.186 366.56 549.62 357 565c-10.385 13.615-24.159 21.984-41.086 24.68-6.181.68-12.39.693-18.601.695l-3.921.005c-11.405-.131-22.634-1.038-33.455-4.818l-3.66-1.246c-3.012-1.21-5.63-2.44-8.277-4.316v-2l3.48.805c4.832 1.106 9.673 2.16 14.52 3.195 1.083.235 2.166.47 3.281.71 23.245 4.312 48.28 1.657 68.156-11.776 11.408-8.608 19.63-20.47 22.279-34.695 1.334-10.513 1.07-21.795-.716-32.239z" fill="#460e10"/><path d="M793 554h7v35H696v-8h97v-27z" fill="#4a0f10"/><path d="M700.75 639.688c.796.005 1.591.01 2.411.017 11.682.24 21.341 4.56 31.839 9.295v2c-3.79-.484-7.428-1.088-11.133-2.02-4.962-1.113-9.731-1.327-14.804-1.293l-2.668.018c-11.473.214-21.021 3.468-29.625 11.334-12.333 13.096-14.349 28.247-14.008 45.555.225 6.56 1.005 12.953 2.238 19.406-3-1-3-1-4.316-3.625L659.438 717l-1.254-3.313c-2.428-7.563-3.55-14.554-3.496-22.5.005-.875.01-1.751.017-2.654.26-13.977 4.295-25.558 13.982-35.846 9.171-8.687 19.46-13.093 32.063-13z" fill="#470e10"/><path d="M522 258c3.375-.088 6.75-.14 10.125-.188l2.883-.076c6.393-.066 10.862.551 15.867 4.889 1.771 3.74 1.797 7.32 1.125 11.375-1.794 2.87-2.983 4.491-6 6 .645 4.333 2.19 7.867 4.063 11.813l1.66 3.519L553 298h-10l-.188-2.375c-.73-3.259-1.641-5.904-3-8.938l-1.167-2.613c-1.556-2.395-1.556-2.395-4.82-2.867L531 281c.14 2.459.287 4.917.438 7.375l.119 2.117c.186 3.882.186 3.882 1.443 7.508h-10l.016-3.457c.018-4.223.03-8.445.039-12.668.005-1.83.012-3.66.02-5.489.013-2.626.018-5.252.023-7.878l.015-2.488c.11-4.142.11-4.142-1.113-8.02z" fill="#a79764"/><path d="M426 407h7a572233041402758460 572233041402758460 0 0 1-7.373 102.712l.032-3.037v-3.285c.001-3.55.024-7.098.048-10.648a5776.134 5776.134 0 0 1 .087-26.884c.03-6.63.044-13.26.06-19.89.032-12.989.082-25.978.146-38.968z" fill="#420e0f"/><path d="M793 407h7v34h-60v22h-8v-29h61v-27z" fill="#440e0f"/><path d="M519.23 642.93c1.618.978 3.197 2.021 4.77 3.07l-1 2c-1.16-.07-2.32-.14-3.516-.21-10.304-.43-17.664.282-26.484 6.21l-3.25 2.063c-10.493 9.81-14.474 24.032-15.09 37.906a469.37 469.37 0 0 0-.097 6.344l-.032 2.999c.074 6.126.982 11.457 2.828 17.302C478 723 478 723 478 727h-2c-5.72-12.549-8.252-23.41-8.375-37.125l-.042-3.034c.085-13.447 4.282-26.718 13.542-36.716 10.82-9.917 24.444-14.248 38.105-7.195z" fill="#450e0f"/><path d="M813 714c6.754 6.754 6.754 6.754 7.36 12.297l-.02 3.788.002 2.1a724.715 724.715 0 0 1-.049 6.835 2381.721 2381.721 0 0 1-.087 17.237c-.036 4.997-.05 9.995-.067 14.992-.03 7.584-.087 15.167-.139 22.751h-43v-7h36v-73z" fill="#420e0f"/><path d="M776 478h7v32h-43v29h-8v-36h44v-25z" fill="#450e0f"/><path d="M541 865c1 1 1 1 1.313 4.25-.36 4.319-1.246 5.77-4.313 8.75l-3 1v-7c-2.925.334-4.584.614-6.773 2.645l-1.602 2.168-1.8 2.421c-2.63 3.987-4.817 8.19-6.954 12.457C516 894 516 894 512.785 894.34L510 894c.547-5.006 2.241-8.972 4.563-13.375l.998-1.941A689.225 689.225 0 0 1 518 874c-2.995.717-2.995.717-6 2-1.111 3.458-1.111 3.458-1.523 5.906-1.057 4.64-3.738 7.5-7.352 10.407-4.426 2.39-7.375 3.064-12.313 2-3.124-1.459-4.054-2.4-5.812-5.313-1.018-5.465-.693-10.592 2.125-15.438 2.561-3.464 4.872-5.783 8.875-7.562 5.12-.715 9.432-1.167 13.688 2l1.312 2-3.625-.313c-3.617.007-4.443.357-7.688 2.438-4.132 4.42-5.846 7.715-5.875 13.75.048 1.376.106 2.751.188 4.125 3.363-.026 3.363-.026 7-1 2.441-2.955 3.792-5.375 5-9l-3-1c.573-2.867.861-3.861 3-6a70.887 70.887 0 0 1 4.688-.75c4.903-.862 7.271-2.566 10.773-5.984C523 865 523 865 525.937 864.625L528 865l1 4 2.375-1.938c3.797-2.983 4.993-3.25 9.625-2.062z" fill="#a79363"/><path d="M754 746v37c-25.409 13.551-49.162 17.086-77 9-4.851-1.617-9.432-3.716-14-6v-2l3.543.84 4.644 1.097 2.33.553 2.276.537 2.079.492L680 788l2.358.55c5.541.943 11.224.635 16.83.638l3.869.037c10.51.016 19.484-1.356 29.256-5.163l2.048-.763c3.802-1.45 7.174-3.185 10.639-5.299h2l-.095-2.507a884.049 884.049 0 0 1-.28-11.243l-.152-3.945c-.146-9.401-.146-9.401 1.854-12.088C750.083 747.027 751.8 746 754 746z" fill="#450e0f"/><path d="M447 258c3.541-.117 7.082-.187 10.625-.25l3.027-.102c6.131-.08 9.721.19 14.348 4.352 2.684 4.026 2.806 7.268 2 12-1.924 3.573-4.088 5.696-8 7-2.228.07-4.458.085-6.688.063l-3.574-.028L456 281c.14 2.459.287 4.917.438 7.375l.119 2.117c.186 3.882.186 3.882 1.443 7.508h-11l1-2c.099-2.675.14-5.324.133-8l.003-2.398c0-1.675-.001-3.35-.006-5.024-.005-2.568 0-5.135.007-7.703 0-1.625-.002-3.25-.004-4.875l.006-2.336c.066-3.961.066-3.961-1.139-7.664z" fill="#a79764"/><path d="M419.438 836.313C422 838 422 838 424 841c-.125 3.563-.125 3.563-1 7-1.875 1.5-1.875 1.5-4 2l-3-1 .098-6.152c.108-1.865.108-1.865-1.098-2.848-4.062-.39-6.304-.433-9.813 1.75-2.906 2.99-3.928 4.858-4.687 8.938.871 5.77 4.745 10.023 8.234 14.574 3.287 4.483 5.205 7.872 4.79 13.535-1.45 6.103-5.32 10.82-10.524 14.203-4.456 2.476-9.024 2.673-14 2-5.331-1.764-9.422-4.64-13-9v-3l6-2 1.688 2.313c2.762 3.21 4.953 5.294 9.234 6.007 3.868.218 5.672-.06 9.015-2.195 2.778-2.862 3.585-4.97 3.543-9.004-1.057-4.668-4.632-8.382-7.48-12.121-3.889-5.296-6.806-10.208-6-17 2.45-6.073 6.57-10.094 12.25-13.25 5.318-1.45 10.031-1.406 15.188.563z" fill="#a79362"/><path d="M860 527c2.5.313 2.5.313 5 1 1.33 2.66 1.12 4.666 1.114 7.643v3.58l-.016 3.879-.005 3.96c-.003 3.475-.013 6.95-.024 10.425-.01 3.546-.015 7.092-.02 10.638-.01 6.958-.03 13.917-.049 20.875h-43v-8h36l-.035-11.559c-.008-3.676-.014-7.353-.02-11.03-.005-2.564-.012-5.128-.02-7.692a5303.2 5303.2 0 0 1-.023-11.028l-.015-3.497v-3.215l-.007-2.847C859 528 859 528 860 527z" fill="#460e10"/><path d="M682 258h12l-2 1 .67 1.997C704 294.75 704 294.75 704 298h-9l-1-10h-14v10h-9c2.793-9.765 5.717-19.448 9.12-29.021 1.376-3.98 1.88-6.677 1.88-10.979zM657.816 258.895c2.427.976 4.815 1.997 7.184 3.105-1.438 3.907-2.886 6.197-6 9l-.875-2.438c-.858-2.695-.858-2.695-3.125-3.562-4.38-.042-7.95.213-11.5 2.875-3.402 4.819-3.187 10.458-2.5 16.125 1.243 3.135 2.181 3.814 5 6 3.74 1.012 7.45 1.775 11 0 .658-3.03.658-3.03 1-6h-7l-1 2v-10l2 1c2.546.232 5.074.419 7.625.562l2.14.131c1.745.106 3.49.207 5.235.307l-2 1 .465 2.668c1.25 9.306 1.25 9.306-.817 12.273-5.54 3.95-11.97 5.013-18.648 4.059-6.222-2.438-9.208-6.08-12-12l-1-2c-.746-6.926-.702-12.572 3.496-18.313 6.191-6.946 12.166-9.7 21.32-6.792z" fill="#a79463"/><path d="M594 258h11l-2 1c.11 4.417.24 8.834.375 13.25.03 1.254.062 2.509.094 3.8l.117 3.653.095 3.364c.312 2.868.65 4.593 2.319 6.933 3.468.9 5.927 1.339 9.375.25 1.935-1.247 1.935-1.247 2.625-4.25.094-1.968.13-3.94.133-5.91l.004-3.498-.012-3.654.012-3.667-.004-3.494-.004-3.21c.044-2.556.044-2.556-1.129-4.567h10l-1 2c-.095 2.18-.132 4.364-.14 6.547-.019 1.333-.039 2.667-.06 4-.028 2.098-.05 4.195-.05 6.293-.022 13.176-.022 13.176-3.047 16.988-5.106 4.103-8.504 4.618-15.008 4.488-3.81-.447-5.898-1.729-8.695-4.316-2.908-3.973-3.394-6.878-3.477-11.762l-.093-3.888c-.02-1.346-.038-2.692-.055-4.038-.048-2.65-.105-5.299-.164-7.949l-.053-3.553c.03-2.763.03-2.763-1.158-4.81z" fill="#a79664"/><path d="M553 208c2.691 2.176 4.455 3.91 6 7 .152 2.743.231 5.444.25 8.188l.063 2.251c.036 5.26-.825 8.904-3.313 13.561-3.955 1.978-8.698 1.56-13 1-3.007-2.434-3.745-4.066-4.75-7.75-1.283-16.682-1.283-16.682 3.875-22.75 3.742-1.953 6.74-2.494 10.875-1.5z" fill="#a79262"/><path d="M645 208c2.727 1.836 2.727 1.836 5 5 .66 3.705.562 7.31.438 11.063l-.018 3.01c-.14 8.31-.14 8.31-2.42 11.927-3.95 1.975-8.704 1.572-13 1-3.16-2.709-4.25-5.005-5-9-.144-2.456-.22-4.915-.25-7.375l-.078-3.898c.35-3.97 1.268-6.346 3.328-9.727 3.259-2.655 8-3.065 12-2z" fill="#a79363"/><path d="M563 208c12.615 0 12.615 0 17 3 1.928 3.856 1.272 8.57 1.313 12.813l.087 3.025.026 2.932.044 2.675C581 235 581 235 577 240h-14v-32z" fill="#a79463"/><path d="M589 433c16.313 0 16.313 0 24 6l1 2h-17v45l-8 2v-55z" fill="#4b0f11"/><path d="M709 865c-.629 5.75-2.925 10.306-5.56 15.346-2.187 4.405-2.775 7.636-2.44 12.654v3c-2.375.125-2.375.125-5 0-2.608-2.608-2.358-3.862-2.438-7.5.071-6.49 2.06-11.048 5.438-16.5-7.625 5.111-13.516 11.53-19.14 18.746C678 893 678 893 676 894c-2 .04-4 .043-6 0l.5-2.75c.601-3.36.601-3.36.5-7.25 1.066-1.79 1.066-1.79 2.563-3.625 3.186-3.993 5.968-8.17 8.726-12.469L684 866h4c.378 4.372-.657 6.651-3 10.313l-1.688 2.675L682 881l1.875-2c6.918-6.898 14.815-14.736 25.125-14z" fill="#a79463"/><path d="M323 708l13-.25 4.05-.11c7.11-.066 12.02.283 17.95 4.36l2 4h-29v30h-8v-38z" fill="#4c0f11"/><path d="M517 208h13c4.711 4.711 5.098 5.604 5.23 12.027C535 222 535 222 533 225h-2l3 15h-6l-.586-2.59-.789-3.347-.773-3.34L525 228l-2-1v13h-6v-32z" fill="#a79262"/><path d="M859 434c17.171 0 17.171 0 23 4l2 3h-18v44c-4 2-4 2-7 2v-53z" fill="#430e0f"/><path d="M677 855l-1 8h-5l-1-3c-3.278.752-3.278.752-5 4l3 2-1.906.227c-7.41 1.138-12.613 3.556-17.442 9.406-2.613 4.027-3.118 7.691-3.183 12.449C645 890 645 890 643.172 891.254c-2.792.96-5.242.88-8.172.746-.25-4.537.34-7.444 2.336-11.512l1.476-3.045 1.563-3.13 1.54-3.167c3.712-7.586 3.712-7.586 6.085-11.146 2.688-.879 2.688-.879 6-1.563l3.535-.742L661 857l2.871-.633c4.453-.962 8.544-1.608 13.129-1.367z" fill="#aa282a"/><path d="M577 314c3.819 1.697 5.508 3.132 7 7 .66 6.628 1.104 13.43-3 19-1.917 2.212-3.232 2.885-6.117 3.316-4.072.207-6.156.251-9.446-2.316L564 339c1.563-2.063 1.563-2.063 4-4 3.625.25 3.625.25 7 1h2l1-4-2 1c-4.293.486-6.32.462-9.938-2-2.31-3.36-2.744-5.09-2.496-9.066.682-3.04 2.236-4.801 4.434-6.934 3.064-1.532 5.617-1.23 9-1z" fill="#a79463"/><path d="M341 439v1c-3.188-.425-6.341-.865-9.492-1.512-11.936-2.439-22.024-2.507-32.883 3.325-4.31 3.59-5.823 7.73-6.625 13.187-3.265-1.804-4.89-2.834-7-6-.352-4.736.561-8.296 3.063-12.313C303.505 422.56 325.048 429.421 341 439z" fill="#470e10"/><path d="M503 265c2.87 2.265 3.84 3.517 5 7a99.74 99.74 0 0 1 .25 5.875l.078 3.117c-.463 4.242-2.21 6.81-5.078 9.883-3.409 1.704-5.634 1.093-9.25.125-2.87-2.265-3.84-3.517-5-7a99.74 99.74 0 0 1-.25-5.875l-.078-3.117c.463-4.242 2.21-6.81 5.078-9.883 3.409-1.704 5.634-1.093 9.25-.125z" fill="#aa2629"/><path d="M558 257h31v9l-2-1-10-1v33l2 1h-10l1-34c-8.873.288-8.873.288-12 2v-9z" fill="#a79865"/><path d="M520.375 325.938l3.492.013c2.711.011 5.422.028 8.133.049v5H395v-1a184212.913 184212.913 0 0 1 43.557-1.643c12.148-.459 24.295-.913 36.443-1.357l2.293-.084c29.78-1.086 29.78-1.086 43.082-.978z" fill="#340404"/><path d="M708 258h11l-2 1v33l8.375-.438 2.634-.13c4.128-.142 4.128-.142 7.991-1.432v9l-28-1 1-2c.099-2.675.14-5.324.133-8l.003-2.398c0-1.675-.001-3.35-.006-5.024-.005-2.568 0-5.135.007-7.703 0-1.625-.002-3.25-.004-4.875l.006-2.336c.066-3.961.066-3.961-1.139-7.664z" fill="#a79865"/><path d="M496 208h13c4.93 4.93 4.93 4.93 5.25 9.813-.038 4.223-1.212 7.149-4.25 10.187-2.67.141-5.324.042-8 0v12h-6v-32z" fill="#a79162"/><path d="M323 636l10.125-.25 3.157-.11c5.878-.07 9.307.34 13.718 4.36l1 3h-20v28h-8v-35z" fill="#480f10"/><path d="M586 208h6v26h7v-26h6c.116 4.396.187 8.79.25 13.188l.102 3.775.039 3.642.063 3.349c-.56 3.752-1.793 5.39-4.454 8.046-2.691.629-2.691.629-5.563.563l-2.878.003C590 240 590 240 588.223 238.152c-2.132-3.751-2.342-6.676-2.32-10.914l.01-3.388.024-3.537.014-3.573c.012-2.913.028-5.827.049-8.74z" fill="#a79564"/><path d="M646 326c14.617-.178 29.206.372 43.813.875l8.002.269c6.261.21 12.522.423 18.783.638 7.14.244 14.279.484 21.418.725 14.662.494 29.323.992 43.984 1.493v1H646v-5z" fill="#320303"/><path d="M601.95 314.313c2.45.821 3.505 1.62 5.05 3.687.846 3.11.73 5.872 0 9-2 3.04-4.355 5.513-7 8l-1 1 9 1v6h-20c0-6 0-6 2.117-8.484l2.758-2.266 2.742-2.297L598 328c2.287-1.839 2.287-1.839 2.125-4.625L600 321c-3.024.588-6.018 1.227-9 2l-2-4c4.352-4.575 6.694-5.552 12.95-4.688z" fill="#a79161"/><path d="M403 636c5.483 5.07 6.607 11.783 7.273 18.938.439 13.212-4.098 23.838-12.273 34.062-4.75-1.875-4.75-1.875-7-3 1.427-2.99 3.084-5.717 4.875-8.5 7.972-13.56 7.61-26.148 7.125-41.5z" fill="#470e10"/><path d="M813 612h7c.15 5.817.258 11.632.33 17.45.03 1.976.07 3.951.123 5.927.51 19.83.51 19.83-5.056 26.412C814 663 814 663 813 663v-51z" fill="#430e0f"/><path d="M354 410c6 2 6 2 8 3v38l-8-4v-37z" fill="#4c0f11"/><path d="M747 616l7 3v42l-7-4v-41z" fill="#430e0f"/><path d="M659 210h10c3.278 3.278 3.405 4.305 3.459 8.756l-.021 2.182.06 2.17c-.003 3.276-.3 5.553-1.963 8.396C668 233 668 233 659 233v-23z" fill="#a79765"/><path d="M434 865l1 2-2.75 1.188c-4.586 2.557-7.254 5.995-9.25 10.812-.24 2.592-.24 2.592-.125 5.25l.055 2.703L423 889c3.471.75 3.471.75 7 1v3c-3.416 2.102-6.022 2.487-10 2-3.338-2.15-4.735-3.204-6-7-.711-6.873.664-11.55 5-17 4.53-4.056 8.696-6.97 15-6z" fill="#a79162"/><path d="M609 209h17v5h-5v26h-6v-26h-6v-5z" fill="#a79966"/><path d="M613 315h18c0 6.752 0 6.752-2.152 10.926l-1.354 2.662-1.431 2.724c-.47.919-.938 1.837-1.42 2.784-3.446 6.707-3.446 6.707-4.643 7.904-2 .04-4 .043-6 0 1.528-5.099 3.71-9.657 6.125-14.375l1.129-2.23c.912-1.8 1.828-3.598 2.746-5.395h-11v-5z" fill="#a79764"/><path d="M600 842c0 3.646-1.035 5.28-2.773 8.473l-1.75 3.224-1.852 3.366-1.828 3.376c-4.523 8.287-4.523 8.287-6.797 10.561-3.04.195-3.04.195-6.625.125l-3.602-.055L572 871c1.486-3.456 3.448-5.693 6.105-8.336l2.483-2.476 2.6-2.563 2.54-2.54c4.604-4.57 9.282-8.94 14.272-13.085z" fill="#aa292b"/><path d="M477 870c-.266 7.172-2.665 12.284-7 18-2.396 2.088-3.447 2.934-6.625 3.313C461 891 461 891 459 889c-.508-3.722-.182-5.65 1.563-9 9.896-12.18 9.896-12.18 16.437-10z" fill="#aa272a"/><path d="M436 868c1.29 4.327.695 6.45-1.313 10.438-1.852 3.807-3.477 7.491-4.687 11.562-2.875.625-2.875.625-6 1-2.44-2.44-2.349-3.259-2.438-6.625.112-6.428 2.837-10.345 6.907-15.086 2.361-1.988 4.565-1.487 7.531-1.289z" fill="#aa2629"/><path d="M479.625 865.188L483 866c2.08 4.161 1.29 8.719-.125 13-2.326 5.624-5.811 9.694-10.938 12.938-2.89 1.045-4.896 1.33-7.937 1.062l1.137-1.25C471.2 884.907 475.5 879.333 476 870l-3-2c2.069-3.042 2.832-3.009 6.625-2.813z" fill="#a79463"/><path d="M558 314v28h-6v-21l-5 1-1-5c4.632-2.647 6.35-3 12-3z" fill="#a79162"/><path d="M676 210h11v4h-6v5h4v4h-4v5h6v5h-11v-23z" fill="#a78c5f"/><path d="M481 841h3c-1.145 9.583-7.39 16.619-13.688 23.563l-1.403 1.553c-2.428 2.593-4.584 4.568-7.909 5.884 1.37-4.779 3.463-8.695 6.188-12.813l1.203-1.844c3.79-5.744 7.731-11.465 12.609-16.343z" fill="#aa292b"/><path d="M640.5 213.75c2.5.25 2.5.25 4.5 2.25a98.49 98.49 0 0 1 .188 8l-.002 2.234c-.045 5.485-.045 5.485-1.186 7.766-2.333.042-4.667.04-7 0-2.101-2.101-1.185-6.541-1.188-9.438l-.037-2.392c-.005-2.058.103-4.116.225-6.17 2-2 2-2 4.5-2.25z" fill="#aa2b2c"/><path d="M548.5 213.75c2.5.25 2.5.25 4.5 2.25.172 2.891.232 5.674.188 8.563l-.002 2.404c-.046 5.893-.046 5.893-1.186 7.033-2.333.04-4.667.042-7 0-1.19-3.57-1.184-6.846-1.188-10.563l-.037-2.076c-.005-1.788.103-3.576.225-5.361 2-2 2-2 4.5-2.25z" fill="#aa2a2b"/><path d="M531 264c10.463-.37 10.463-.37 12.867 1.285C545 267 545 267 544.813 270.625L544 274c-3.851 1.926-8.8 1.049-13 1v-11zM456 264l4.75-.188 2.672-.105c3.025.344 4.334 1.295 6.578 3.293a108.817 108.817 0 0 1-1 7c-3.851 1.926-8.8 1.049-13 1v-11z" fill="#aa262a"/><path d="M569 214h5c2.542 2.542 2.287 4.242 2.322 7.717l-.01 2.22.05 2.21c.004 5.275.004 5.275-1.632 7.857C573 235 573 235 569 235v-21z" fill="#aa302f"/><path d="M664.188 869.375L666 870c-.514 4.331-1.888 6.492-4.813 9.688l-2.082 2.324c-1.977 1.867-3.616 2.942-6.105 3.988.988-5.849 2.192-10.269 6-15 3-2 3-2 5.188-1.625z" fill="#aa2a2b"/><path d="M659 236h28v3h-28v-3z" fill="#a79966"/><path d="M687 267c1.866 2.8 2.688 4.82 3.625 8 .39 1.3.39 1.3.79 2.625C692 280 692 280 692 283h-9c2.182-14.182 2.182-14.182 4-16z" fill="#aa2e2e"/><path d="M677 855l-1 8h-5l-1-3-3.375 2c-3.375 2-3.375 2-5.625 2 .125-1.75.125-1.75 1-4 5.113-3.89 8.632-5.142 15-5z" fill="#a78c5f"/><path d="M663 214l5 1c.027 1.958.046 3.917.063 5.875l.035 3.305C668 227 668 227 667 229h-4v-15z" fill="#aa2e2e"/><path d="M574 319.875c3 .125 3 .125 4 1.125.188 2.438.188 2.438 0 5l-2 2c-4.556-.556-4.556-.556-6-2-.125-2.5-.125-2.5 0-5 1-1 1-1 4-1.125z" fill="#aa292b"/><path d="M502 214a99.984 99.984 0 0 1 5 0c1 1 1 1 1.188 3.938C508 221 508 221 506 223h-4v-9z" fill="#aa312f"/><path d="M523 214a99.984 99.984 0 0 1 5 0c1 1 1 1 1.125 3.5C529 220 529 220 528 221c-1.666.04-3.334.043-5 0v-7z" fill="#aa2d2d"/><path d="M698 871l2 1-3 4-1-3zm-4 3l2 1-7 7c0-3 0-3 2.5-5.688L694 874z" fill="#aa3933"/><path d="M248 578l9 2-2 1v2c-2.938-.813-2.938-.813-6-2l-1-3z" fill="#561113"/></svg>