<svg height="381" viewBox="4 3.1 323.9 51.8" width="2500" xmlns="http://www.w3.org/2000/svg"><path d="m175.6 53.7-5-7.7v-13.3l3.2-4.4-2.7-4.3v-12l4.6-7.7h22.7l5.1 7.7v12l-2.9 4.3 3.4 4.4v13.3l-4.8 7.7zm16.4-11.3v-6.3h-9.3v6.3zm0-20.8v-6.3h-9.3v6.3z" fill="#e60012"/><path d="m197.7 5.6 4.5 6.8v11.3l-3.1 4.7 3.7 4.8v12.5l-4.3 6.8h-22.2l-4.4-6.8v-12.5l3.5-4.8-3-4.7v-11.3l4-6.8zm-16.3 17.2h11.8v-8.8h-11.8zm0 20.8h11.8v-8.8h-11.8zm17.7-40.5h-24.1l-.7 1.2-4 6.8-.3.6v12.7l.4.6 2.1 3.3-2.5 3.4-.5.7v14l.4.6 4.4 6.8.7 1.1h25l.7-1.2 4.3-6.8.4-.6v-13.9l-.5-.7-2.6-3.4 2.1-3.2.4-.6v-12.9l-.4-.6-4.5-6.8zm-15.2 13.5h6.8v3.8h-6.8zm0 20.8h6.8v3.8h-6.8z" fill="#231815"/><path d="m199.1 28.4 3.7 4.8v12.5l-4.3 6.8h-22.2l-4.4-6.8v-12.5l3.5-4.8-3-4.7v-11.3l4-6.8h21.3l4.5 6.8v11.3zm-17.7 6.5v8.8h11.8v-8.8zm0-20.8v8.8h11.8v-8.8z" fill="none" stroke="#fff"/><path d="m9.6 9.7c-.6 0-1.1.2-1.5.6s-.6 1-.7 1.8l-3.4-.4c.1-.7.3-1.3.6-1.9s.7-1.1 1.2-1.5 1-.8 1.7-1c.6-.3 1.4-.4 2.2-.4.7 0 1.4.1 2.1.3s1.2.5 1.7.9.9.9 1.2 1.6.4 1.4.4 2.3c0 .6-.1 1.2-.3 1.7s-.4 1.1-.7 1.6-.7 1.1-1.2 1.7-1 1.3-1.5 2l-2.7 3.2h6.1v3.1h-10.5v-3.1l4.2-5c.5-.6 1-1.2 1.4-1.7s.7-.9.9-1.4.4-.8.5-1.2.2-.7.2-1.1c0-.5-.1-.9-.2-1.2s-.2-.5-.4-.7-.4-.3-.6-.4c-.2.2-.5.2-.7.2zm8.4 6.6c0-1.7.1-3.1.4-4.3s.6-2.2 1.1-2.9 1.1-1.3 1.8-1.6 1.6-.5 2.5-.5 1.8.2 2.5.5 1.3.9 1.8 1.6.9 1.7 1.1 2.9c.3 1.2.4 2.6.4 4.3s-.1 3.1-.4 4.3-.6 2.1-1.1 2.9-1.1 1.3-1.8 1.7c-.7.3-1.6.5-2.5.5s-1.8-.2-2.5-.5c-.7-.4-1.3-.9-1.8-1.7s-.9-1.7-1.1-2.9c-.3-1.3-.4-2.7-.4-4.3zm3.7 0c0 1.4.1 2.5.2 3.4s.2 1.6.4 2.1.4.9.7 1.1.6.3.9.3.6-.1.9-.3.5-.5.7-1.1c.2-.5.3-1.2.4-2.1s.2-2 .2-3.4-.1-2.5-.2-3.4-.2-1.6-.4-2.1-.4-.9-.7-1.1-.5-.3-.9-.3-.7.1-.9.3c-.3.2-.5.6-.7 1.1s-.3 1.2-.4 2.1-.2 2-.2 3.4zm16-6.6c-.6 0-1.1.2-1.5.6s-.6 1-.7 1.8l-3.5-.4c.1-.7.3-1.3.6-1.9s.7-1.1 1.2-1.5 1-.8 1.7-1c.6-.3 1.4-.4 2.2-.4.7 0 1.4.1 2.1.3s1.2.5 1.7.9.9.9 1.2 1.6.4 1.4.4 2.3c0 .6-.1 1.2-.3 1.7s-.4 1.1-.7 1.6-.7 1.1-1.2 1.7-1 1.3-1.5 2l-2.7 3.2h6.1v3.1h-10.5v-3.1l4.2-5c.5-.6 1-1.2 1.4-1.7s.7-.9.9-1.4.4-.8.5-1.2.2-.7.2-1.1c0-.5-.1-.9-.2-1.2s-.2-.5-.4-.7-.4-.3-.6-.4c-.2.2-.4.2-.6.2zm14 0c-.6 0-1.1.2-1.5.6s-.6 1-.7 1.8l-3.5-.4c.1-.7.3-1.3.6-1.9s.7-1.1 1.2-1.5 1-.8 1.7-1c.7-.3 1.5-.4 2.3-.4.7 0 1.4.1 2.1.3s1.2.5 1.7.9.9.9 1.2 1.6.4 1.4.4 2.3c0 .6-.1 1.2-.3 1.7s-.4 1.1-.7 1.6-.7 1.1-1.2 1.7-1 1.3-1.5 2l-2.7 3.2h6.2v3.1h-10.6v-3.1l4.2-5c.5-.6 1-1.2 1.4-1.7s.7-.9.9-1.4.4-.8.5-1.2.2-.7.2-1.1c0-.5-.1-.9-.2-1.2s-.2-.5-.4-.7-.4-.3-.6-.4c-.2.2-.5.2-.7.2zm22.3-.7c-.6 0-1.2.2-1.6.5-.5.3-.7.8-.7 1.5 0 .2 0 .5.1.7s.2.4.4.7.5.4.8.7c.4.2.9.5 1.5.7.8.3 1.6.6 2.3 1s1.3.8 1.9 1.3c.5.5 1 1.1 1.3 1.7s.5 1.4.5 2.3c0 .8-.1 1.5-.4 2.2-.2.7-.6 1.3-1.1 1.8s-1.2 1-2 1.3-1.8.5-3 .5c-1.1 0-2.1-.2-2.9-.5s-1.4-.7-1.9-1.2-.9-1-1.1-1.5c-.3-.5-.4-1-.5-1.5l3.7-.5c0 .3.1.6.3.9.1.3.3.5.6.8s.5.4.9.5.7.2 1.1.2c.3 0 .6 0 .9-.1s.6-.2.8-.4.4-.4.6-.7c.1-.3.2-.7.2-1.1 0-.5-.1-.9-.3-1.3-.2-.3-.5-.6-.9-.9s-.9-.5-1.4-.7c-.6-.2-1.2-.5-1.8-.8-.8-.3-1.4-.7-2-1.1-.5-.4-.9-.8-1.3-1.2-.3-.4-.6-.9-.7-1.4s-.2-1.1-.2-1.7c0-.8.1-1.5.4-2.1s.7-1.2 1.2-1.6c.5-.5 1.2-.8 2-1.1s1.7-.4 2.7-.4 1.9.1 2.6.4 1.3.6 1.8 1.1c.5.4.8.9 1.1 1.4s.4 1 .5 1.4l-3.6.6c-.1-.6-.3-1.1-.8-1.5-.7-.7-1.2-.9-2-.9zm13.6-2.4v13.2c0 .7.1 1.2.2 1.6.2.4.4.7.6.9s.5.4.8.5.6.1.9.1.6 0 .9-.1.6-.2.8-.5c.3-.2.5-.5.6-.9.2-.4.2-.9.2-1.6v-13.2h3.7v12.9c0 2-.5 3.6-1.6 4.6s-2.7 1.6-4.8 1.6-3.7-.5-4.8-1.6c-1.1-1-1.7-2.6-1.7-4.6v-12.9zm16.2 15.9h7.5v2.8h-11.7v-3l7.7-12.8h-7.1v-2.9h11.4v3zm14.9-15.9v13.2c0 .7.1 1.2.2 1.6.2.4.4.7.6.9s.5.4.8.5.6.1.9.1.6 0 .9-.1.6-.2.8-.5c.3-.2.5-.5.6-.9.2-.4.2-.9.2-1.6v-13.2h3.7v12.9c0 2-.5 3.6-1.6 4.6s-2.7 1.6-4.8 1.6-3.7-.5-4.8-1.6c-1.1-1-1.7-2.6-1.7-4.6v-12.9zm21.9 18.7-5.1-8.1v8.1h-3.9v-18.7h3.9v7.8l4.8-7.8h4.1l-5.6 8.8 6.6 10h-4.8zm17.1 0-1.1-4.3h-5.8l-1.1 4.3h-3.8l5.7-18.7h4.4l5.8 18.7zm-6.2-7h4.3l-2.2-8.2zm75.7-11.7v18.7h-3.9v-8.1h-5.1v8.1h-3.9v-18.7h3.9v7.9h5.1v-7.9zm3.6 9.4c0-1.8.2-3.3.6-4.6.4-1.2.9-2.2 1.5-3 .7-.8 1.4-1.3 2.3-1.7s1.9-.5 2.9-.5 2 .2 2.9.5 1.7.9 2.3 1.7c.7.8 1.2 1.8 1.5 3s.6 2.8.6 4.6-.2 3.3-.6 4.6-.9 2.2-1.5 3-1.4 1.3-2.3 1.7c-.9.3-1.9.5-2.9.5-1.1 0-2-.2-2.9-.5s-1.7-.9-2.3-1.7c-.7-.8-1.2-1.8-1.5-3-.4-1.3-.6-2.8-.6-4.6zm4 0c0 1.3.1 2.4.2 3.3.2.9.4 1.6.7 2.1s.6.9 1.1 1.1c.4.2.9.3 1.4.3s1-.1 1.4-.3.8-.6 1.1-1.1.5-1.2.7-2.1.2-2 .2-3.3-.1-2.4-.3-3.3-.4-1.6-.7-2.1-.7-.9-1.1-1.2c-.4-.2-.9-.4-1.3-.4-.5 0-.9.1-1.3.3s-.8.6-1.1 1.1-.5 1.2-.7 2.1c-.2 1.1-.3 2.2-.3 3.5zm18.1-9.4v13.2c0 .7.1 1.2.2 1.6.2.4.4.7.6.9s.5.4.8.5.6.1.9.1.6 0 .9-.1.6-.2.8-.5.5-.5.6-.9c.2-.4.2-.9.2-1.6v-13.2h3.7v12.9c0 2-.5 3.6-1.6 4.6s-2.7 1.6-4.8 1.6-3.7-.5-4.8-1.6-1.7-2.6-1.7-4.6v-12.9zm21.7 18.7-3.7-6.9h-1.2v6.9h-3.9v-18.7h5.1c1 0 1.9.1 2.8.3.8.2 1.6.5 2.2 1s1.1 1.1 1.5 1.8.5 1.7.5 2.8c0 .7-.1 1.3-.2 1.9-.2.5-.4 1-.7 1.4s-.6.8-1 1c-.4.3-.8.5-1.3.7l4.5 7.7h-4.6zm-4.9-15.9v6.2h1.5c.3 0 .6-.1.9-.2s.6-.3.9-.5.5-.5.6-.9.2-.9.2-1.5-.1-1.2-.2-1.6c-.2-.4-.4-.7-.6-.9-.3-.2-.6-.4-.9-.4s-.7-.1-1.1-.1h-1.3zm17.3-.4c-.6 0-1.2.2-1.6.5-.5.3-.7.8-.7 1.5 0 .2 0 .5.1.7s.2.4.4.7c.2.2.5.4.8.7.4.2.9.5 1.5.7.8.3 1.6.6 2.3 1s1.3.8 1.9 1.3 1 1.1 1.3 1.7.5 1.4.5 2.3c0 .8-.1 1.5-.4 2.2-.2.7-.6 1.3-1.1 1.8s-1.2 1-2 1.3-1.8.5-3 .5c-1.1 0-2.1-.2-2.9-.5s-1.4-.7-1.9-1.2-.9-1-1.1-1.5c-.3-.5-.4-1-.5-1.5l3.7-.5c0 .3.1.6.3.9.1.3.3.5.6.8.2.2.5.4.9.5s.7.2 1.1.2c.3 0 .6 0 .9-.1s.6-.2.8-.4.4-.4.6-.7c.1-.3.2-.7.2-1.1 0-.5-.1-.9-.3-1.3-.2-.3-.5-.6-.9-.9s-.9-.5-1.4-.7-1.2-.5-1.8-.8c-.8-.3-1.4-.7-2-1.1-.5-.4-.9-.8-1.3-1.2-.3-.4-.6-.9-.7-1.4s-.2-1.1-.2-1.7c0-.8.1-1.5.4-2.1s.7-1.2 1.2-1.6 1.2-.8 2-1.1 1.7-.4 2.7-.4 1.9.1 2.6.4 1.3.6 1.8 1.1c.5.4.8.9 1.1 1.4s.4 1 .5 1.4l-3.6.6c-.1-.6-.3-1.1-.8-1.5-.7-.7-1.3-.9-2-.9z" fill="#005eb8"/><path d="m9.2 36.3c-.5 0-.9.1-1.2.3-.4.2-.5.6-.5 1.2 0 .2 0 .4.1.5s.1.3.3.5c.1.2.4.3.6.5.3.2.7.4 1.2.5.6.2 1.2.5 1.8.8s1 .6 1.4 1 .7.8 1 1.3c.2.5.4 1.1.4 1.8 0 .6-.1 1.1-.3 1.7-.2.5-.5 1-.9 1.4s-.9.7-1.6 1c-.6.2-1.4.4-2.3.4s-1.6-.1-2.2-.4c-.6-.2-1.1-.5-1.5-.9s-.7-.7-.9-1.2c-.2-.4-.3-.8-.4-1.1l2.8-.4c0 .2.1.5.2.7s.3.4.4.6c.2.2.4.3.7.4.3 0 .6.1.9.1.2 0 .4 0 .7-.1l.6-.3c.2-.1.3-.3.4-.5s.2-.5.2-.9-.1-.7-.3-1-.4-.5-.7-.7-.6-.4-1.1-.5c-.4-.2-.9-.4-1.4-.6-.6-.3-1.1-.5-1.5-.8s-.7-.6-1-1c-.2-.3-.4-.7-.5-1.1s-.2-.8-.2-1.3c0-.6.1-1.1.3-1.6.3-.6.6-1 1-1.3s.9-.6 1.5-.8 1.3-.3 2.1-.3 1.5.1 2 .3c.6.2 1 .5 1.4.8s.6.7.8 1.1.3.8.4 1.1l-2.7.5c-.1-.4-.3-.8-.6-1.2s-.8-.5-1.4-.5zm7.3 15.9v-14.1h1.9l.6 1.2c.3-.5.8-.8 1.3-1.1s1.1-.4 1.8-.4c.4 0 .8.1 1.2.2.4.2.7.5 1 .9s.6 1 .8 1.7.3 1.7.3 2.8c0 2-.3 3.4-1 4.3s-1.6 1.4-2.9 1.4c-.5 0-.9-.1-1.3-.2s-.6-.4-.9-.6v4.1h-2.8zm4.4-12.3c-.3 0-.6.1-.9.2s-.5.3-.7.5v6c.2.2.4.3.6.4s.5.2.7.2c.3 0 .6 0 .8-.1s.4-.3.6-.6.3-.7.3-1.2c.1-.5.1-1.2.1-2 0-.7 0-1.3-.1-1.8s-.2-.8-.4-1c-.1-.2-.3-.4-.5-.5-.1-.1-.3-.1-.5-.1zm11.2 7.1c.5 0 .8-.1 1.1-.4s.4-.6.5-1l2.5.4c-.1.4-.3.7-.5 1.1s-.5.7-.8 1-.8.5-1.2.7c-.5.2-1.1.3-1.7.3s-1.2-.1-1.7-.3-1-.5-1.4-1c-.4-.4-.7-1-1-1.7-.2-.7-.4-1.6-.4-2.6 0-1.1.1-1.9.4-2.7.2-.7.6-1.3 1-1.8s.9-.8 1.4-1 1.1-.3 1.8-.3c.9 0 1.6.1 2.1.4.6.3 1 .7 1.3 1.3s.6 1.2.7 2 .2 1.7.2 2.8h-6.1c0 .6.1 1 .2 1.4s.2.6.4.8.3.3.5.4c.3.2.5.2.7.2zm0-7.4c-.2 0-.4 0-.6.1s-.4.2-.5.4-.3.5-.4.9-.2.9-.2 1.5h3.5c0-.6-.1-1-.1-1.4-.1-.4-.2-.7-.4-.9s-.3-.4-.5-.5c-.4-.1-.6-.1-.8-.1zm10.8.1c-.2 0-.4 0-.6.1s-.4.2-.5.5c-.2.3-.3.6-.4 1.1s-.1 1.1-.1 2c0 .8.1 1.5.2 1.9.1.5.2.8.4 1.1s.3.4.5.5.4.1.6.1c.3 0 .5-.1.6-.2s.3-.2.4-.4l.3-.6c.1-.2.1-.5.1-.7l2.8.3c-.1.4-.2.9-.4 1.3s-.5.8-.8 1.1-.8.6-1.3.8-1.1.3-1.8.3c-.6 0-1.2-.1-1.7-.3s-1-.5-1.4-.9-.8-1-1-1.8c-.2-.7-.4-1.7-.4-2.8 0-1 .1-1.9.3-2.6s.5-1.3 1-1.7c.4-.4.9-.8 1.4-1 .6-.2 1.1-.3 1.8-.3.8 0 1.4.1 1.9.3s.9.5 1.2.9c.3.3.6.7.7 1.1s.3.8.3 1.2l-2.7.4c.1-1-.4-1.7-1.4-1.7zm6.3-3v-2.5h3v2.5zm.1 12.2v-10.8h2.8v10.8zm11.9 0-.6-1.2c-.3.4-.7.7-1.1 1-.5.3-1.1.4-1.8.4-.4 0-.7-.1-1.1-.2s-.8-.3-1.1-.6-.6-.6-.8-1-.3-.9-.3-1.6c0-.5.1-1 .3-1.5.2-.4.5-.8.9-1.1s.8-.5 1.3-.7 1-.3 1.5-.4l1.9-.3v-.7c0-1-.4-1.6-1.3-1.6-.4 0-.7.1-1 .3s-.4.6-.5 1l-2.7-.4c.1-.3.3-.7.5-1s.5-.6.8-.9.8-.5 1.3-.7 1.1-.2 1.8-.2c1.3 0 2.2.3 2.9.9s1 1.6 1 2.9v7.3h-1.9zm-2.5-1.8c.5 0 1-.2 1.5-.5v-3.1l-1.2.2c-.6.1-1.1.3-1.4.5-.4.3-.5.6-.5 1.2 0 .3 0 .6.1.8s.2.4.4.5.3.2.5.2c.2.1.4.2.6.2zm7.1-12.9h2.8v14.7h-2.8zm26 .3-2.2 14.4h-3.8l-1.8-11.3-1.8 11.3h-3.7l-2.2-14.4h3l1.3 11.4 1.7-11.4h3.7l1.7 11.3 1.5-11.3zm9.2 8.2h-4.1v3.9h4.7v2.3h-7.7v-14.4h7.7v2.3h-4.7v3.8h4.1zm7-8.2c.8 0 1.5.1 2.2.2s1.2.3 1.7.6.9.7 1.1 1.2c.3.5.4 1.2.4 1.9 0 .3 0 .7-.1 1s-.2.6-.4.9-.4.5-.6.7-.5.3-.8.3c.1 0 .2.1.4.1s.3.1.5.2c.5.2.8.6 1.1 1.1s.4 1.2.4 2-.1 1.5-.4 2c-.2.5-.6 1-1.1 1.3s-1.1.6-1.8.7-1.5.2-2.4.2h-4v-14.4zm-.8 2v3.9h1.1c.2 0 .4 0 .7-.1.2 0 .5-.1.7-.3.2-.1.4-.3.6-.6.1-.3.2-.6.2-1.1 0-.3-.1-.6-.2-.9-.1-.2-.3-.4-.5-.6-.2-.1-.5-.2-.7-.3-.3-.1-.5-.1-.8-.1h-1.1zm0 5.8v4.5h1.2c.3 0 .6 0 .9-.1s.6-.2.8-.3c.2-.2.4-.4.5-.7s.2-.7.2-1.1c0-.8-.2-1.4-.7-1.8s-1-.6-1.7-.6h-1.2zm19.3-6c-.5 0-.9.1-1.2.3-.4.2-.5.6-.5 1.2 0 .2 0 .4.1.5s.1.3.3.5c.1.2.4.3.6.5.3.2.7.4 1.2.5.6.2 1.2.5 1.8.8s1 .6 1.4 1 .7.8 1 1.3c.2.5.4 1.1.4 1.8 0 .6-.1 1.1-.3 1.7-.2.5-.5 1-.9 1.4s-.9.7-1.6 1c-.6.2-1.4.4-2.3.4s-1.6-.1-2.2-.4c-.6-.2-1.1-.5-1.5-.9s-.7-.7-.9-1.2c-.2-.4-.3-.8-.4-1.1l2.8-.4c0 .2.1.5.2.7s.3.4.4.6c.2.2.4.3.7.4s.5.1.8.1c.2 0 .4 0 .7-.1l.6-.3c.2-.1.3-.3.4-.5s.2-.5.2-.9-.1-.7-.3-1-.4-.5-.7-.7-.7-.4-1.1-.6-.9-.4-1.4-.6c-.6-.3-1.1-.5-1.5-.8s-.7-.6-1-1c-.2-.3-.4-.7-.5-1.1s-.2-.8-.2-1.3c0-.6.1-1.1.3-1.6s.5-.9.9-1.3.9-.6 1.5-.8 1.3-.3 2.1-.3 1.5.1 2 .3c.6.2 1 .5 1.4.8s.6.7.8 1.1.3.8.4 1.1l-2.8.5c-.1-.4-.3-.8-.6-1.2-.1-.3-.6-.4-1.1-.4zm10.5-1.8v14.4h-3v-14.4zm12 2.3h-3.6v12h-3v-12h-3.4v-2.4h10zm9.1 5.9h-4.1v3.9h4.7v2.3h-7.7v-14.4h7.7v2.3h-4.7v3.8h4.1zm61.4 7.3c-.7 0-1.3-.1-1.8-.2-.6-.2-1-.4-1.4-.8-.4-.3-.7-.8-1-1.3-.2-.5-.3-1.1-.3-1.8 0-.5.1-.9.2-1.3.2-.4.4-.7.6-.9.2-.3.5-.5.7-.6s.5-.3.7-.3c-.2-.1-.5-.3-.7-.5s-.4-.4-.6-.7-.3-.6-.4-.9-.2-.7-.2-1.2c0-.7.1-1.2.3-1.7s.5-.9.9-1.2.8-.5 1.4-.7c.5-.2 1.1-.2 1.6-.2.6 0 1.1.1 1.6.2s1 .4 1.3.7c.4.3.7.7.9 1.2s.3 1 .3 1.7c0 .4-.1.8-.2 1.1s-.3.6-.5.8-.4.4-.6.5-.5.3-.7.3c.2.1.5.2.8.4s.5.4.8.7c.2.3.4.7.6 1.1s.2.9.2 1.5c0 .7-.1 1.4-.3 1.9s-.5 1-1 1.3-.9.6-1.5.8-1.1.1-1.7.1zm1.6-4.2c0-.4-.1-.7-.2-1s-.2-.5-.4-.6-.4-.3-.6-.4-.5-.2-.7-.3c-.1.1-.3.1-.5.2s-.3.2-.4.4l-.3.6c-.1.3-.1.6-.1 1 0 .8.1 1.3.4 1.7s.7.5 1.2.5.9-.2 1.2-.5.4-.8.4-1.6zm-.1-6.4c0-.4 0-.8-.2-1-.1-.3-.2-.5-.4-.6s-.3-.2-.5-.3c-.2 0-.3-.1-.5-.1s-.3 0-.5.1c-.2 0-.3.1-.5.2s-.3.3-.4.6-.1.6-.1 1c0 .3.1.6.2.9.1.2.3.4.5.6s.4.3.6.3c.2.1.4.1.5.2.1-.1.2-.1.3-.2s.3-.2.4-.4c.1-.1.2-.3.3-.5.2-.2.3-.5.3-.8zm5.1 10.4v-2.7h2.9v2.7zm12.5-8.8v4h1.9v2.1h-1.9v2.7h-2.6v-2.7h-4.7v-2.3l2.7-9h2.7l-2.7 9.2h2.1l.4-4zm10.2.5h-2.3v7.8h-2v-7.8h-2.3v-1.5h6.6zm1.2-1.7h1.8v3.1c.2-.3.5-.4.8-.6.3-.1.6-.2 1-.2.3 0 .6 0 .9.1s.5.2.7.4.3.5.4.8.2.7.2 1.2v4.7h-1.8v-4.7c0-.4-.1-.7-.2-.9s-.4-.3-.8-.3c-.2 0-.4 0-.6.1s-.4.2-.5.4v5.4h-1.9zm9.4 2.5v4.6c0 .4.1.7.2.9s.4.3.8.3c.2 0 .4 0 .6-.1s.3-.2.5-.4v-5.3h1.8v7h-1.3l-.4-.8c-.2.3-.5.5-.8.7s-.7.3-1.1.3c-.6 0-1.2-.2-1.5-.6s-.6-1.1-.6-2v-4.5h1.8zm5.5 7v-1.8h1.9v1.8zm3.6-4.7v-2.4h6.1v2.4zm12.5 5.4c-.7 0-1.3-.1-1.8-.2-.6-.2-1-.4-1.4-.8-.4-.3-.7-.8-1-1.3-.2-.5-.3-1.1-.3-1.8 0-.5.1-.9.2-1.3.2-.4.4-.7.6-.9.2-.3.5-.5.7-.6s.5-.3.7-.3c-.2-.1-.5-.3-.7-.5s-.4-.4-.6-.7-.3-.6-.4-.9-.2-.7-.2-1.2c0-.7.1-1.2.3-1.7s.5-.9.9-1.2.8-.5 1.4-.7c.5-.2 1.1-.2 1.6-.2.6 0 1.1.1 1.6.2s1 .4 1.3.7c.4.3.7.7.9 1.2s.3 1 .3 1.7c0 .4-.1.8-.2 1.1s-.3.6-.5.8-.4.4-.6.5-.5.3-.7.3c.2.1.5.2.8.4s.5.4.8.7c.2.3.4.7.6 1.1s.2.9.2 1.5c0 .7-.1 1.4-.3 1.9s-.5 1-1 1.3-.9.6-1.5.8-1 .1-1.7.1zm1.7-4.2c0-.4-.1-.7-.2-1s-.2-.5-.4-.6-.4-.3-.6-.4-.5-.2-.7-.3c-.1.1-.3.1-.5.2s-.3.2-.4.4l-.3.6c-.1.3-.1.6-.1 1 0 .8.1 1.3.4 1.7s.7.5 1.2.5.9-.2 1.2-.5c.2-.3.4-.8.4-1.6zm-.2-6.4c0-.4 0-.8-.2-1-.1-.3-.2-.5-.4-.6s-.3-.2-.5-.3c-.2 0-.3-.1-.5-.1s-.3 0-.5.1c-.2 0-.3.1-.5.2s-.3.3-.4.6-.1.6-.1 1c0 .3.1.6.2.9.1.2.3.4.5.6s.4.3.6.3c.2.1.4.1.5.2.1-.1.2-.1.3-.2s.3-.2.4-.4c.1-.1.2-.3.3-.5.3-.2.3-.5.3-.8zm5.1 10.4v-2.7h2.9v2.7z" fill="#4d4d4d"/><path d="m297.1 49.8h-2.9l4.4-11.8h-5.7v-2.2h8.4v2.4zm9.2-8.7c-.3 0-.6.1-.8.2s-.3.4-.3.8v.3c0 .1.1.2.2.3s.2.2.4.3l.8.4c.4.2.8.3 1.2.5s.7.4.9.6.5.5.6.9c.2.3.2.7.2 1.1s-.1.7-.2 1.1c-.1.3-.3.7-.6.9-.3.3-.6.5-1 .6-.4.2-.9.2-1.5.2s-1-.1-1.4-.2-.7-.4-1-.6-.4-.5-.6-.8-.2-.5-.2-.7l1.8-.3c0 .1.1.3.1.4.1.1.2.3.3.4s.3.2.4.3c.2.1.4.1.6.1.1 0 .3 0 .4-.1.1 0 .3-.1.4-.2s.2-.2.3-.4c.1-.1.1-.3.1-.6s-.1-.5-.2-.6c-.1-.2-.3-.3-.5-.4s-.4-.3-.7-.4-.6-.3-.9-.4c-.4-.2-.7-.4-1-.5-.3-.2-.5-.4-.6-.6s-.3-.5-.3-.7-.1-.5-.1-.9.1-.7.2-1 .3-.6.6-.8.6-.4 1-.5.8-.2 1.3-.2.9.1 1.3.2.7.3.9.5.4.4.5.7.2.5.3.7l-1.8.3c0-.3-.2-.5-.4-.8 0 0-.3-.1-.7-.1zm6.6 1.2v4.6c0 .4.1.7.2.9s.4.3.8.3c.2 0 .4 0 .6-.1s.3-.2.5-.4v-5.3h1.8v7h-1.2l-.4-.8c-.2.3-.5.5-.8.7s-.7.3-1.1.3c-.6 0-1.2-.2-1.5-.6-.4-.4-.6-1.1-.6-2v-4.5h1.7zm5.7 7v-7h1.2l.4.8c.2-.3.5-.6.8-.7s.7-.3 1.1-.3c.3 0 .6 0 .9.1s.5.2.7.4.3.5.4.8.2.7.2 1.2v4.7h-1.8v-4.7c0-.4-.1-.7-.2-.9s-.4-.3-.8-.3c-.2 0-.4 0-.6.1s-.4.2-.5.4v5.4zm7.4 0v-1.8h1.9v1.8z" fill="#f00"/></svg>