<svg height="819" viewBox="-3.07 0 242.33 80.43" width="2500" xmlns="http://www.w3.org/2000/svg"><g fill="#c00019"><path d="m105.12 20.92-4.51-4.98 3.61-3.04v-2.76h-15.8v2.76h9.28l-9.5 8.02h6.52l3.14-2.64 2.4 2.64zm18.18 0-4.54-4.98 3.63-3.04v-2.76h-15.83v2.76h9.29l-9.49 8.02h6.52l3.12-2.64 2.41 2.64z" fill-rule="evenodd"/><path d="m123.16 10.13h2.55v1.48h-2.55zm0 2.29h2.55v1.47h-2.55z"/><path d="m143.31 14.02v-2.34h-5.19v-1.54h-5.39v1.54h-6.1v2.34h6.1v1.85h-6.1v2.37h6.1v2.61h5.39v-2.61h5.19v-2.37h-5.19v-1.85zm27.15-6.69h-24.53l-.21 4.17h13.96s.5 1.4-.41 2.21h-6.96v4.24s-.28 4.2-2.41 5.61h5.9s2.75-2.84 3.55-6.88h4.12c.7 0 6.08-3.32 7.01-9.34" fill-rule="evenodd"/><path d="m172.17 7.39h7.1v9.8h-7.1z"/><path d="m193.6 14.42v-6.96h-7.6v6.89c0 2.69-1.63 7.93-3.98 9.42h7.03s4.56-2.21 4.55-9.35" fill-rule="evenodd"/><path d="m195.64 13.97h18.09v3.83h-18.09z"/><path d="m239.26 9.45h-7.8v-2.63h-7.58v2.63h-8.53v4.75h8.53v.16c0 2.68-1.64 7.92-3.98 9.42h7.02s4.54-2.21 4.54-9.35v-.22h7.8v-4.75z" fill-rule="evenodd"/><path d="m66.61 0c-4.6 0-7.33 4.85-7.36 4.87-8.48 11.85-41.81 66.87-43.84 70.38-1.36 2.16-1.63 2.97-1.47 3.57.25.9 1.04 1.21 1.82 1.21 2.81.09 13.86-.09 13.89-.09 2.03 0 3.31-.93 4.66-3.41 0 0 .34-.6.35-.63.85-1.51 28.8-57.54 28.8-57.54.69-1.41 1.58-1.67 1.6-1.67 1.53-.31 3.5-.02 3.36 1.92v.09l-4.12 56.7c-.06 1.58-.13 2.96.53 3.64.87.91 4 1.09 8.37 1.09 1.31-.07 2.39-.09 2.76-.09 4.72 0 4.81-.14 4.67-4.31l-.78-62.16v-2.74l-.02-2.08v-.6-.65c-.06-.8-.06-1.58-.06-2.31 0-4.94-4.99-5.16-6.89-5.16h-6.28zm59.88 45.05c0-3.15-1.06-5.75-3.11-7.83-3.05-3.06-8.2-4.64-14.93-4.64-7.63 0-14.23 1.87-16.3 3.14-1.17.71-1.91 1.78-2.42 3.48-.02.02-.11.36-.11.36-.18.67-.38 1.43-.38 2.34 0 .74.2 1.3.57 1.7.42.38 1.01.58 1.78.58.72 0 1.5-.32 2.57-.72.4-.16.84-.33 1.31-.49-2.43 7.28-11.42 34.05-11.42 34.08-.28.96 0 1.63.28 1.99.62.82 1.79 1.21 3.63 1.21h1.69c1.99 0 3.83 0 4.62-2.82 0-.06 1.45-5.3 3.88-12.8 6.59 8.56 9 11.47 10.34 13.08l.38.45.24.3c.85 1.01 1.7 1.81 3.76 1.81h5.85c.29 0 1.48 0 2.12-.65.29-.27.46-.62.46-1.02 0-.75-.29-1.12-.75-1.61l-.24-.29s-.02-.04-.05-.06c-1.29-1.39-5.44-6-12.14-13.76 11.05-2.66 18.36-9.67 18.36-17.81m-25.36 10.94c2.32-6.89 3.66-10.62 4.17-11.8.17-.4.26-1.01.26-1.01 0-.78-.36-1.77-1.96-2.4 1.59-.32 3.08-.46 4.5-.46 3.38 0 5.74.67 7.08 1.98.8.83 1.19 1.86 1.19 3.22 0 5.69-6.61 10.2-15.24 10.47m101.62-18.76.1-.34c.04-.14.34-.99.29-1.7-.08-1.41-.62-3.06-4.22-3.06l-1.87.05c-2.38 0-3.27 1.13-3.86 2.85-.01.04-.01.07-.03.12l-.09.33-2.23 7.19c-1.42 4.55-3.27 10.53-5.63 17.88-1.15-8.75-2.77-16.74-4.83-23.83l-.05-.09-.18-.42c-.79-2.52-2.45-3.84-5.09-4.04-.03-.02-.05-.02-.09-.02h-1.3c-3.4 0-4.68 2.14-5.52 4.24 0-.02-.07.15-.07.15-.04.1-2.73 6.5-7.35 20.42-3.43 10.4-5.34 16.78-5.59 17.92l-.09.22c-.02.09-.05.18-.05.31 0-.08 0-.13.03-.17-.01 0-.04.16-.11.29-.31 1.16-.49 2.01-.49 2.5v.07c.01.15.11.91.86 1.51.7.56 1.7.76 2.94.63.32.02.92.02 2.2.02.23-.02.4-.02.48-.02 2.22 0 3.5-.91 3.93-2.86l.09-.38c.53-2.14 3.25-11.87 8.75-29.07 2.82 15.17 4.03 23.76 4.53 27.64v.09l.08.44c.04.18.06.38.08.58.16 1.49.39 3.55 4.03 3.55h1.9c3.5.18 4.5-2.06 4.67-2.57.84-1.86 1.3-3.12 1.31-3.19l.61-1.77c.88-2.48 2.69-7.63 5.4-15.71 1.77-5.28 4.34-12.98 6.45-19.76"/></g><path d="m29.14 41.95c19.14-.38 30.56-6.63 35.95-9.33 0 0-12.05 17.87-34.41 22.47-20.35 4.21-27.8-3.66-27.8-3.66-5.95-6.43-.85-11.91-.85-11.91 3.92-4.31 9.2-1.7 9.2-1.7s8.11 4.38 17.9 4.13" fill="#2d4f99"/><path d="m233.2 41.82v-2.72l-.01-.33v-.39c.05-3.01-.09-4.41-.97-5.31-.89-.91-2.19-.91-4.34-.91h-2.19c-1.75 0-3.3.89-4.75 2.68l-.28.34c-2.29 2.83-10.6 15.75-17.28 26.19-2.34.12-3.56.16-3.56.16s-3.27 0-3.62 3.23c0 0-.17 2.77 2.84 3.4-2.44 3.83-4.2 6.62-4.54 7.19-1.05 1.61-1.26 1.92-1.32 2.12-.17.4-.46 1.16.01 1.88.46.65 1.34.91 2.94.91h5.12c1.4 0 2.61-1.01 3.23-2.16l7.42-12.77c7.29-3.73 10.22-8.48 10.22-8.48-1.42.69-3.62 1.89-6.96 2.88 3.77-6.4 7.33-12.45 8.4-14.08 0 0-.51 30.88-.5 30.9v.11c0 1.43 0 2.25.64 2.9.71.69 1.76.69 4.07.69.02 0 1.15-.02 1.47-.02 1.68.02 2.64-.09 3.28-.71.67-.65.67-1.61.67-2.9v-1.07l.09-14.26-.08-19.45zm-74.58-9.62h-1.11l-9.66-.07c-4.82 0-7.91.09-9.23.12-.32.02-.53.02-.62.02h-.1l-.6.07c-1.99.13-4.14.51-4.68 3.46l-.06.23s-.04.13-.04.17c-.1.76-.12 1.25-.12 1.43 0 .98.32 1.81.85 2.37.42.4.99.64 1.65.64 0 0 .6 0 1.26-.02-.97 2.48-3.03 8.55-5.08 14.77-1.32-.16-5.66-.4-6.37 2.72 0 0-.91 2.39 1.54 4.11 0 0 .69.51 2.3.94-1.66 5.16-2.96 9.21-3.04 9.69 0-.02-.09.29-.09.35h-.01c-.74 2.74-.16 4.89 1.65 5.89.06.04 2.04 1.18 6.01 1.18h14.31c3.19 0 4.04-1.09 4.74-3.5.01-.02.1-.36.1-.36.24-.76.37-1.49.37-1.92 0-.7-.2-1.27-.59-1.65-.61-.62-1.55-.7-2.28-.7h-13.62s1.25-3.9 2.84-8.83c.74-.11 1.51-.25 2.33-.38 12.03-2.38 18.48-12.09 18.48-12.09-2.81 1.41-8.64 4.6-18.38 5 1.77-5.34 3.42-10.35 3.99-11.9.03-.07.05-.09.06-.16l.07-.4c.2-.6.3-.87.3-1.14 0-.67-.47-1.3-1.05-1.75h12.73c2.25 0 3.75-1.34 4.48-4.01l.08-.31c.11-.38.21-.84.21-1.36 0-2.46-2.45-2.56-3.62-2.6" fill="#c00019"/></svg>