<svg height="133pt" viewBox="0.2 -1.1 379.8 132.9" width="380pt" xmlns="http://www.w3.org/2000/svg"><path d="M52.5 2.4C29.2 7.8 11 24.1 3.8 46 .9 54.9.2 72.9 2.4 82.4c5.4 22.8 23.3 41 46.6 47.2 8.6 2.2 23.4 2.2 32 0 10.8-2.9 21.6-9.2 29.5-17.1 12.5-12.6 18.4-25.8 19.2-43 1.2-23.8-8.9-44.5-27.9-57.1C87.7 3 67.5-1.1 52.5 2.4zM63 19.5V33H35l1.5-3.5c3.7-9.1 12.6-18.9 19.8-22 6.7-3 6.7-3 6.7 12zm12.9-11c5.9 2.9 12.3 10 16.2 17.7 1.6 3.2 2.9 6 2.9 6.3s-6.2.4-13.7.3l-13.8-.3-.3-13.3C66.9 4 67 3.9 75.9 8.5zm-35.2 6.2c-2.5 3.2-5.9 8.6-7.6 12L30 33h-7.5c-4.6 0-7.5-.4-7.5-1 0-2.5 14.8-15.7 21.5-19.2 3.9-2.1 7.4-3.8 7.8-3.8.5 0-1.2 2.6-3.6 5.7zm52.1-2.5c6.7 3.3 22.2 17 22.2 19.6 0 .8-2.1 1.2-7.3 1.2h-7.4l-3.6-7.3c-2-4-5.5-9.4-7.8-12-2.2-2.6-3.8-4.7-3.4-4.7s3.7 1.5 7.3 3.2zM28.6 38.6c-1 2.7-3.6 18.4-3.6 22V64H4.1l.5-3.3c1.3-7.9 2.9-13.6 5-18.5l2.3-5.2h8.7c7.5 0 8.5.2 8 1.6zM63 50.5V64H28.7l.7-6.8c.4-3.7 1.4-9.7 2.3-13.5l1.6-6.7H63zm35.4-7.1c.8 3.5 1.9 9.6 2.2 13.5l.7 7.1H67V37h29.8zm22.9-.1c2.2 5.6 4.7 15.7 4.7 19.4 0 1-2.5 1.3-10.4 1.3h-10.3l-.6-8.3c-.3-4.5-1.2-10.6-2-13.5l-1.4-5.2h17.5zm-20.5 32.5c-.3 4.3-1.4 10.6-2.3 14l-1.8 6.3-14.6-.3-14.6-.3-.3-12.4c-.1-6.9 0-13.1.2-13.8.4-1 4.4-1.3 17.2-1.3h16.7zm-75.4.9C25.7 81 26.7 87 27.5 90s1.5 5.6 1.5 5.7c0 .2-3.8.3-8.6.3h-8.5l-2.3-5.3c-2.1-4.8-3.7-10.5-5-18.5L4.1 69h20.6zM63 82.5v13.6l-14.7-.3-14.8-.3-1.6-6.5c-.9-3.6-2-9.5-2.3-13.3l-.8-6.7H63zm63-12.2c0 3.7-2.5 13.8-4.7 19.4l-2.5 6.3h-17.5l1.8-7.8c1-4.2 1.9-10.3 1.9-13.5V69h10.5c8 0 10.5.3 10.5 1.3zm-92.6 36.5c1.9 3.7 5.3 9.1 7.5 12 2.3 2.9 3.9 5.2 3.5 5.2-.3 0-3.8-1.7-7.8-3.7C29.8 116.7 15 103.5 15 101c0-.6 2.9-1 7.5-1H30zm29.6 6.7c0 15 .1 14.8-6.6 12-7.7-3.2-15.9-12.2-20-22L35 100h28zm32-12.9c0 1.6-6.6 12.8-9.7 16.4-3.9 4.6-12.6 10-16 10-2.3 0-2.3-.2-2.3-13.5V100h14c7.7 0 14 .3 14 .6zm20 .6c0 2.6-15.5 16.3-22.2 19.6-3.6 1.7-6.9 3.2-7.3 3.2s1.2-2.1 3.4-4.7c2.3-2.6 5.8-8 7.8-12l3.6-7.3h7.4c5.2 0 7.3.4 7.3 1.2zM301.9 26.2c-7.9 2.7-4.2 14.6 4.1 12.9 4.1-.8 6.5-7.1 4.2-10.8-1.3-2-5.5-3.1-8.3-2.1zM175.7 27.1c-12.9 3-20.7 12.7-19.4 24.1 1.3 10.4 7 14.9 25 19.4 6 1.5 12.2 3.6 14 4.8C206.9 83.2 199 97 183 97c-4.8 0-13-4-16.4-8l-2.8-3.4-4.4 2.4c-2.4 1.4-4.4 2.9-4.4 3.5s1.5 2.9 3.4 5.1c11.4 13.4 35.6 14.5 47.3 2.2 1.7-1.8 3.7-4.6 4.2-6.1 1.8-4.7 1.3-14.3-.9-18.7-3.5-7-6.8-8.7-28.9-15-5-1.5-8.4-3.1-10.4-5.1-2.6-2.6-2.9-3.5-2.4-7.2 1.6-11.9 21-14.4 31.8-4.1 3 2.9 4.6 2.5 8.8-2 2.4-2.5 2.4-2.6.5-4.7-6.6-7.3-21.7-11.4-32.7-8.8zM333.5 27.2c-5.1 1.8-8.6 4.9-10.6 9.2-1.7 3.7-1.9 7.1-1.9 36.8V106h10V63h16v-9h-16v-5c0-9 3.9-13 12.6-13h3.4V26l-5.2.1c-2.9 0-6.6.5-8.3 1.1zM354 58.8c0 32.3 0 33 2.3 37.3 3 5.8 10.6 9.9 18.4 9.9h5.3V96h-4c-10 0-12-3.4-12-20.5V63h16v-9h-16V26h-10zM213.4 49.7c.7 2.1 12.9 45.9 14.6 52.1l1.1 4.3 6.2-.3 6.2-.3 4.9-20.8c2.7-11.4 5.2-20.7 5.5-20.7s2.9 9.5 5.6 21l5 21h6.3c3.4 0 6.2-.2 6.2-.6 0-.3 2.7-10 5.9-21.7 3.3-11.7 6.9-24.5 8-28.5l2-7.2h-10.6L275 68.7c-2.9 11.5-5.6 21.4-6 22.2-.5.9-2.9-7.3-6.1-20.7L257.5 48h-11.4l-1 3.7c-.5 2.1-2.8 11.7-5.1 21.3-2.4 9.6-4.5 17.8-4.9 18.3-.4.4-3.2-9.1-6.2-21l-5.6-21.8-5.2-.3c-4.7-.3-5.2-.1-4.7 1.5zM299 77v29h11V48h-11z"/></svg>