<svg height="574" viewBox="-3.19825505 .04 621.37825505 143.34" width="2500" xmlns="http://www.w3.org/2000/svg"><path d="m15.52 103.62a10.59 10.59 0 0 0 10.7-10.12 10.37 10.37 0 0 0 -4.83-9 45.07 45.07 0 0 1 19.25-83.2s11-1 23.72-1c11.45 0 45.07 0 71.44.88a3.38 3.38 0 0 1 3.27 3.38v31.82a3.38 3.38 0 0 1 -3.38 3.38h-4.4a10.37 10.37 0 0 0 -4.18 19.5 45 45 0 0 1 -24.19 82.83s-14.17 1-27.56 1c-9.62 0-54.84-.74-67.54-.94a3.38 3.38 0 0 1 -3.32-3.38v-31.77a3.38 3.38 0 0 1 3.38-3.38zm423.56-33.03a37.81 37.81 0 0 0 -20-70l-92.91.7a3.42 3.42 0 0 0 -3.37 3.38c-.15 14.29-1.94 15.62-1.94 66 0 50.56 1.79 53.47 1.94 68a3.41 3.41 0 0 0 3.37 3.38l97 .87a37.92 37.92 0 0 0 15.91-72.33zm-129.53-66.65a3.34 3.34 0 0 0 -3.29-3.46l-60.39.09a3.34 3.34 0 0 0 -3.34 2.75c-1.22 7-4.75 23.56-11.3 23.57s-10.08-16.6-11.3-23.57a3.34 3.34 0 0 0 -3.34-2.75l-60.39-.09a3.34 3.34 0 0 0 -3.29 3.46s-.27 52 33.39 83.39c0 0-1 21.22-1 28.29 0 5.89 1 23.56 1 23.56a3.34 3.34 0 0 0 3.25 3.34c8.74.25 32.69.31 41.66.31h.07c9 0 32.92-.07 41.65-.31a3.34 3.34 0 0 0 3.25-3.34s1-17.67 1-23.56c0-7.07-1-28.29-1-28.29 33.64-31.39 33.37-83.39 33.37-83.39zm236.18 139.44c5.9 0 21.8-.5 29.59-1.13.88-.06 1.66-.14 2.31-.21a44.39 44.39 0 0 0 28.86-15.51c.56-.65 1.09-1.31 1.61-2a44.12 44.12 0 0 0 8.47-19.71c.05-.36.61-5.79.61-5.84.52-7.5.94-20.19 1-26.53v-.77-.77c-.07-6.73-.54-20.66-1.11-27.89 0-.44-.19-2.09-.23-2.45a44.41 44.41 0 0 0 -15.48-28.87c-.41-.35-.83-.69-1.25-1a44.12 44.12 0 0 0 -21.44-9.2c-.35 0-4.83-.45-4.86-.46-8.17-.57-22.49-1-28.06-1h-.06c-5.57 0-19.89.44-28.06 1 0 0-4.51.41-4.86.46a44.12 44.12 0 0 0 -21.44 9.2c-.42.34-.84.68-1.25 1a44.41 44.41 0 0 0 -15.51 28.87c0 .36-.19 2-.23 2.45-.57 7.23-1 21.16-1.11 27.89v1.54c.07 6.34.49 19 1 26.53 0 0 .56 5.48.61 5.84a44.12 44.12 0 0 0 8.52 19.71c.52.69 1.05 1.35 1.61 2a44.39 44.39 0 0 0 28.86 15.51c.65.07 1.43.15 2.31.21 7.79.63 23.69 1.13 29.59 1.13z"/></svg>