<svg height="2500" viewBox="-9.828 0 202.584 192.756" width="2500" xmlns="http://www.w3.org/2000/svg"><g clip-rule="evenodd" fill-rule="evenodd"><path d="m0 0h192.756v192.756h-192.756z" fill="#fff"/><path d="m36.116 155.523.305.305-.648.625 1.784 1.785-.348.336-1.785-1.785-.649.627-.305-.305zm.759-.734 2.177 1.184-1.157-2.168.509-.491 2.089 2.092-.333.321-1.727-1.727 1.205 2.23-.343.332-2.241-1.23 1.726 1.727-.325.314-2.089-2.092z"/><path d="m135.838 60.117c-16.172-32.105-59.308-43.131-90.051-28.312-48.418 20.996-50.496 67.834-32.453 107.412 4.052 5.719 7.569 9.262 10.544 12.531-.415 1.9 1.345 3.266 3.249 2.594 2.719-.941 10.329-2.541 13.985.189 10.698 7.508 25.472 14.352 41.506 11.154 11.823-2.807 26.121-13.207 19.951-33.189-3.49-10.74-12.104-30.867 5.316-41.529 3.541-2.837 6.264-4.32 18.217-5.904 2.037-.264 3.822-5.009 1.797-8.004l-3.092-8.431s-2.559-5.576.973-5.834l3.123.012 5.441-2.695z" fill="#bac6d0"/><path d="m73.422 155.941.017-4.343-6.518-.024-.016 4.344z" fill="#bac6d0"/><path d="m49.812 30.324c39.819-8.422 65.993 13.053 75.468 33.121 0 0 .305-.237.779-.236l1.631.001 6.314-3.221c.918-.508 1.699-.065 2.004.036-18.305-32.567-58.489-41.016-86.196-29.701z" fill="#2f4668"/><path d="m55.651 28.36c35.715-5.947 63.197 11.556 75.263 33.154l3.465-1.661c.441-.204 1.256-.1 1.596.171-20.307-36.098-61.582-37.896-80.324-31.664z" fill="#fff"/><path d="m48.141 59.414c-3.46-5.574-6.49-11.403-8.923-17.406-5.004 7.142-7.75 19.573-8.125 23.784-8.085 3.41-14.628 7.051-21.015 12.567v.116a211.286 211.286 0 0 1 19.856 6.033c.108 9.185.797 18.336 1.852 27.241.166 1.242.198 2.586.479 3.746 2.856-6.016 5.894-11.949 9.265-17.766l4.432-7.322.348-.349 5.105 1.629 8.834 2.643 10.989 3.075 4.642 1.33h.348l-1.243-1.492-5.366-6.653c-4.274-5.523-8.646-11.032-12.438-16.77 3.688-4.415 15.572-17.428 21.843-22.057-5.338.89-23.097 4.946-30.883 7.651z" fill="#2f4668"/><path d="m68.854 93.706c-7.319-1.348-19.915-5.338-23.786-6.832-4.298 6.545-7.984 13.24-11.687 20.017l-.1-.131c-.774-7.951-1.281-15.899-1.175-24.173l-.196-.167c-5.669-1.877-11.354-3.656-17.139-5.219 5.59-4.256 12.009-7.257 18.36-9.789.244-4.255 2.822-16.189 5.474-20.411 1.987 4.113 5.955 11.597 8.224 15.511 5.613-2.075 17.748-5.485 24.007-6.786-4.164 4.025-12.431 12.589-16.722 18.255 1.963 3.036 3.925 5.558 6.045 8.46z" fill="#fff"/><path d="m19.355 76.301c4.91-2.748 10.284-5.223 15.423-7.374.086-3.282 2.208-13.934 3.72-17.803 1.968 4.726 4.436 9.404 7.018 13.7 4.578-1.538 14.211-4.267 18.888-5.572-4.173 4.547-9.59 10.138-13.008 14.827 3.625 5.241 7.485 10.857 11.576 15.883-6.283-1.712-12.665-3.648-18.83-5.61a272.808 272.808 0 0 0 -9.611 15.892h-.083c-.509-6.3-.587-12.783-.582-19.447-3.546-1.279-10.864-3.464-14.511-4.496z" fill="#2f4668"/><path d="m134.084 55.762s3.881 6.081 4.18 7.756l-4.725-7.351z"/><path d="m145.422 77.887-4.51-14.409c-3.801-.626-11.064-.671-15.002-.686-1.496.267-2.855 1.075-1.514 5.018l3.898 10.742c.941 2.312.107 7.333-5.865 7.174-2.039-.008-10.734 1.724-13.189 4.294l30.551.252c5.16-.388 8.996-4.77 5.631-12.385z" fill="#fff"/><path d="m128.965 63.007c-1.021.472-1.771 1.623-.428 5.226l2.418 6.866s1.359-.402 2.377-.399c1.971-.671 4.879 2.802.867 4.281 0 0-1.291.199-1.699.333.807 1.972 2.166 2.112 3.32 2.05 0 0 2.512-.127 3.732-.055 3.193-.599 4.693-2.358 4.025-5.211l-5.111-12.443c-1.348-2.993-3.516-4.086-4.674-3.141zm17.726-1.968-5.779 2.439 3.693 10.519c2.104.008 5.836.769 6.377.975 1.9.55 2.43 4.219-.762 4.274-.814-.343-2.781-.689-4.004-.559 1.279 2.72 4.668 4.159 7.596 2.066 1.703-1.352 1.781-4.136.43-5.838zm-69.793 54.078c-1.422-.887-2.816-.146-3.568 1.039l-4.097 6.4c-.717.947.192 2.92 1.039 3.568l11.073 6.898c3.015 1.539 5.024-.184 5.979-1.098 2.623-2.434 4.575-7.043 1.054-9.16l-7.281-4.848-.717 1.117c-.99 1.387-5.189-1.039-4.096-2.867z" fill="#cbcdd3"/><path d="m14.003 140.439c-.016 4.344 2.682 8.971 4.835 14.139-.966 3.799 2.145 7.205 6.355 6.814 3.258.418 13.724-2.664 18.216-5.498-3.387-2.186-9.08-4.65-14.521-1.957-2.584 1.35-5.566-.156-5.016-2.191-2.708-1.775-10.274-11.715-9.869-11.307z" fill="#fff"/><path d="m150.549 81.758s-1.229 1.896-3.809 2.159c.346-1.526-.457-4.823-.896-5.401h.236c.539 1.428 2.197 2.996 4.469 3.242z" fill="#cbcdd3" stroke="#000" stroke-miterlimit="2.613" stroke-width=".731"/><path d="m140.064 90.001c-10.473 4.034-9.33 25.22-8.121 28.618 5.77 18.217 1.082 37.072-20.648 38.482 0 0-7.268.551-12.354-.826 5.729-6.904 5.465-17.219 4.154-21.199-1.209-3.672-7.115-21.346-5.996-30.303 1.035-8.271 12.006-14.753 12.006-14.753z"/><path d="m104.43 141.189c5.986-2.963 10.639-12.314 10.385-16.932.143-1.766-.121-3.939-.521-6.113-1.877-6.252 10.229-11.502 14.533-1.303 5.797 13.527 5.023 36.408-16.166 37.957 0 0-6.52.926-11.945-.453 4.573-7.075 3.714-13.156 3.714-13.156z" fill="#fff"/></g><path d="m135.984 60.183.322.17m.001.001c-15.34-30.702-61.053-48.036-101.409-22.891-26.364 13.985-44.726 53.634-20.895 102.84 0 0 5.808 8.373 10.005 11.443 0 0-1.304 3.865 4.744 2.191 5.166-1.609 9.511-1.594 14.657 1.957 13.97 9.199 29.392 13.686 42.873 8.58 11.42-3.758 19.739-13.639 17.752-26.273-.92-8.15-11.984-26.658-3.924-39.391 7.369-10.291 13.623-12.168 24.762-13.483 3.533-.53 4.904-4.055 3.02-8.135m.001 0-3.596-9.926m0 0s-1.748-4.452 1.896-4.431m0 0 2.635-.066 5.17-2.629m0 .001c.852-.336 1.689-.158 1.986.042" style="fill:none;stroke:#000;stroke-width:.731;stroke-linecap:round;stroke-linejoin:round;stroke-miterlimit:2.613"/><path d="m40.29 154.797c9.146 5.33 24.921 16.387 44.087 11.029 10.06-3.355 18.773-9.23 20.312-21.512" fill="none" stroke="#000" stroke-miterlimit="2.613" stroke-width=".365"/><path d="m73.568 115.887-4.097 6.365m0 0c-1.091 1.354-.148 3.395 1.07 4.078m.001 0 10.667 6.625m-.001 0c4.709 2.869 9.824-3.492 5.39-6.904m.001 0-12.09-7.445m0-.001c-3.116-1.777.291-5.023 2.457-3.385m-.001.001 11.817 7.918m.001 0c3.25 2.152.853 7.711-3.128 10.07m0 0c2.822-1.277 5.389-6.428 2.172-8.682m0 0-7.821-5.154" fill="none" stroke="#000" stroke-miterlimit="2.613" stroke-width=".548"/><path clip-rule="evenodd" d="m94.505 108.701c.354 15.35 6.303 20.662 7.348 31.666 1.098 11.557-11.228 24.939-30.504 23.645-7.603-.301-16.278-4.137-21.292-6.871-2.302-1.547-8.806-5.193-11.926-5.883 2.714.145 9.49 3.701 12.335 5.342 5.827 3.01 13.963 5.891 20.887 6.189 12.894 1.271 29.355-7.084 29.142-22.428-1.175-12.496-6.723-17.134-5.99-31.66z" fill-rule="evenodd"/><path d="m128.76 63.143 4.627-2.426m0-.001s2.252-2.003 4.742 2.461m0 .001 5.383 12.783m0 0c1.039 3.365-1.377 5.155-3.959 5.315m0 0-4.48.119m-.001 0s-2.039.468-2.977-3.033m.001 0-4.029-11.421m-.001 0s-.836-3.193.693-3.798" fill="none" stroke="#000" stroke-miterlimit="2.613" stroke-width=".548"/><path d="m176.086 115.121c3.123-.26 4.746 1.375 5.418 3.143 2.977 7.799 7.254 20.939 8.414 36.83 0 0 .188 4.615-2.602 5.963 0 0-6.516-.838-3.379-4.221 0 0 1.361-.539 1.232-2.848-.523-4.617-1.988-12.363-2.787-16.711 2.311-.535 3.285-6.912-2.557-5.984 0 0 1.092-1.488.553-2.713s-2.822-7.479-3.768-8.84c2.175-.4 2.328-4.607-.524-4.619z" style="fill-rule:evenodd;clip-rule:evenodd;fill:#cbcdd3;stroke:#000;stroke-width:.731;stroke-miterlimit:2.613"/><path d="m132.139 102.869c2.93 4.432 9.334 9.27 12.043 11.045 8.094 4.365 27.016 1.459 30.816 1.475 4.383.018-19.025 4.545-27.58 4.512-9.086-2.75-14.762-9.832-16.385-11.875 0-.001.026-6.79 1.106-5.157z" style="fill-rule:evenodd;clip-rule:evenodd;fill:#cbcdd3;stroke:#000;stroke-width:.731;stroke-miterlimit:2.613"/><path clip-rule="evenodd" d="m172.871 139.346s-.67-3.475-1.068-4.553c0 0-11.008 2.402-16.576 2.652l-21.305-3.611s-.391-3.939-.254-4.346l19.674 3.469s17.104 1.287 27.572-1.932c3.531-.258 4.461 5.312 1.334 6.252 0 0-6.561 1.686-9.242 2.137z" fill="#cbcdd3" fill-rule="evenodd"/><g stroke-miterlimit="2.613"><path d="m172.871 139.346s-.67-3.475-1.068-4.553c0 0-11.008 2.402-16.576 2.652m0 0-21.305-3.611m0 0s-.391-3.939-.254-4.346m0 0 19.674 3.469m0 0s17.104 1.287 27.572-1.932c3.531-.258 4.461 5.312 1.334 6.252 0 0-6.561 1.686-9.242 2.137" fill="none" stroke="#000" stroke-linecap="round" stroke-width=".731"/><path d="m109.105 90.02 31.363.254m.001 0c4.756-.796 7.895-5.061 5.34-11.657" fill="none" stroke="#000" stroke-width=".731"/><path d="m126.193 62.835c-1.947-.05-.434 3.758-.434 3.758m.001.001 4.836 13.596m0-.001c1.072 3.805-.973 6.106-5.729 6.631-2.172.127-7.061-.027-11.951 1.177" fill="none" stroke="#000" stroke-width=".548"/><path d="m138.129 63.178 2.783.3 3.287 10.11 1.609 5.03m.001 0c2.158 4.217 7.758 4.205 9.232.239 0 0 .584-1.696-1.002-4.349m0 0-7.348-13.469-6.051 2.438" fill="none" stroke="#000" stroke-width=".731"/><path d="m143.164 62.616 5.037 11.835" fill="none" stroke="#000" stroke-width=".457"/><path clip-rule="evenodd" d="m143.043 73.923c.756.003 6.074.43 8.008 1.082 1.934.279 2.428 4.32-.83 4.207 0 0-2.447-.824-6.381-.567.623-1.384-.32-3.402-.797-4.722z" fill="#cbcdd3" fill-rule="evenodd" stroke="#000" stroke-width=".731"/><path d="m144.051 76.846s5.34.059 8.279 1.118" fill="none" stroke="#000" stroke-width=".548"/><path d="m131.762 94.858c-2.32 3.115-3.301 11.257-3.178 14.38" fill="none" stroke="#fff" stroke-linecap="round" stroke-width="1.096"/><path d="m82.111 126.125c-.013-2.002-2.189-2.883-3.377-2.807-1.825.117-2.925 1.537-2.78 2.998.166 1.689 1.568 3.332 3.949 2.576" fill="none" stroke="#000" stroke-linecap="square" stroke-width=".365"/><path d="m137.318 66.538v-.26m0 0c.139-2.477-1.477-4.45-2.395-4.376-1.566.125-.795 2.995 1.025 4.566-.072 2.15 1.154 4.763 2.459 4.702 1.596-.073.6-3.452-1.09-4.631" fill="none" stroke="#000" stroke-linecap="square" stroke-width=".439"/></g><path clip-rule="evenodd" d="m137.547 70.743c.869-1.397.094-3.226-1.471-3.329-.193-.425-.129-.75-.129-.75 1.049-1.299-.18-3.846-1.615-3.461l-.195-.196c-.121-2.347 3.262-.64 3.018 3.433 3.154 1.999 2.224 6.363.392 4.303z" fill-rule="evenodd"/><path d="m134.598 81.325c2.52.207 4.42-1.884 3.379-5.044m0-.001-4.977-12.103m0 0c-.572-1.36-.564-3.634 1.473-3.897m-1.139 14.217-2.553-6.935m0 0s-1.953-4.623.326-5.734" fill="none" stroke="#000" stroke-linecap="square" stroke-miterlimit="2.613" stroke-width=".548"/><path d="m76.42 115.965s12.707-20.726 14.89-23.977c3.959-5.416 7.362-7.711 12.53-9.864 6.352-2.653 19.16-5.81 29.629-7.491 2.854-.397 3.957 3.817.527 4.347-8.596 1.712-18.818 3.702-27.184 7.093-4.195 1.508-8.98 4.991-12.533 10.544l-13.935 22.484c-1.497 1.354-5.288-1.511-3.924-3.136z" style="fill-rule:evenodd;clip-rule:evenodd;fill:#cbcdd3;stroke:#000;stroke-width:.731;stroke-miterlimit:2.613"/><path d="m136.041 76.816c-7.016 1.025-23.008 4.521-28.678 7.087-7.207 2.553-12.112 7.15-14.982 12.164m0-.001-14.071 22.893" fill="none" stroke="#000" stroke-miterlimit="2.613" stroke-width=".548"/><path d="m14.003 140.439s-.009 2.172.396 3.26c0 0 3.898 10.334 4.439 10.879-1.233 2.848 1.331 7.031 6.355 6.814 6.313-.012 13.045-2.668 17.809-5.5l-2.1-1.332c-4.661 2.834-9.927 4.035-12.17 4.537-2.175.67-4.109.256-.948-.818 2.414-.908 2.455-2.674 2.326-4.607 0 0-1.087.266-3.125.666-1.732.34-3.19-.113-3.012-2.49.022-.293-5.989-5.08-9.565-11z" style="fill-rule:evenodd;clip-rule:evenodd;fill:#fff;stroke:#000;stroke-width:.731;stroke-miterlimit:2.613"/><path d="m28.208 154.342c.533 2.719-6.26 3.643-6.107-.836" fill="none" stroke="#000" stroke-linecap="round" stroke-miterlimit="2.613" stroke-width=".731"/><path clip-rule="evenodd" d="m41.004 154.494c-3.928-2.393-9.295-1.463-10.757-.924.094 2.139.019 3.92-1.952 4.643-2.108.771-2.962 2.229.539.918 0 0 7.585-1.651 12.17-4.637zm25.594-26.482-5.736 8.871c-5.841.725-13.699-3.854-11.086-12.736 1.993-6.238 10.209-6.75 14.128-2.051 0 0 1.964 1.636 2.694 5.916z" fill-rule="evenodd"/><path d="m63.643 119.582c-4.466-3.818-11.055-3.029-14.331 1.711m10.932 17.285c-2.309.195-6.312-.432-7.731-1.998m17.336-24.375c-9.336-8.861-25.71-5.527-28.884 7.902" fill="none" stroke="#000" stroke-linecap="round" stroke-miterlimit="2.613" stroke-width=".548"/><path d="m83.388 149.203a3.408 3.408 0 1 0 .025-6.817 3.408 3.408 0 0 0 -.025 6.817z" style="fill-rule:evenodd;clip-rule:evenodd;fill:#fff;stroke:#000;stroke-width:.457;stroke-miterlimit:2.613"/><path clip-rule="evenodd" d="m83.35 148.996c1.249.004 2.417-.818 2.539-2.711.109-1.707-1.356-2.725-2.518-2.729-1.076-.004-2.636.893-2.67 2.6-.034 1.709 1.486 2.836 2.649 2.84z" fill-rule="evenodd" stroke="#000" stroke-miterlimit="2.613" stroke-width=".216"/><path d="m83.086 145.234c1.25.006 2.261 1.043 2.256 2.32-.005 1.275-1.022 2.307-2.274 2.303s-2.262-1.043-2.257-2.32c.006-1.277 1.023-2.308 2.275-2.303z" style="fill-rule:evenodd;clip-rule:evenodd;fill:#fff;stroke:#000;stroke-width:.293;stroke-miterlimit:2.613"/><path clip-rule="evenodd" d="m83.083 149.145a1.615 1.615 0 0 0 1.612-1.613 1.613 1.613 0 0 0 -1.599-1.625 1.613 1.613 0 0 0 -1.612 1.613 1.614 1.614 0 0 0 1.599 1.625z" fill-rule="evenodd"/><path clip-rule="evenodd" d="m81.868 147.547c-.121.938 1.655 1.904 2.433.375 0 0 .005-.383-.187-.105-.377.545-1.617.488-2.06-.217-.044-.155-.138-.26-.186-.053zm3.324-2.561c.368.547-.196.779-.479.348-.528-.588-1.851-.764-2.617-.252-.342.205-.696-.07-.259-.518.859-.74 2.622-.668 3.355.422z" fill="#fff" fill-rule="evenodd"/><path d="m72.985 144.396c-8.037 6.828-21.058 3.248-25.245-2.402" fill="none" stroke="#000" stroke-linecap="round" stroke-miterlimit="2.613" stroke-width=".548"/><path d="m165.35 117.66s9.918-1.727 10.736-2.539c3.26-.529 3.379 4.086.525 4.619-1.518.625-8.441 1.686-9.24 2.002 0 0-1.078-2.449-2.021-4.082z" style="fill-rule:evenodd;clip-rule:evenodd;fill:#cbcdd3;stroke:#000;stroke-width:.731;stroke-miterlimit:2.613"/><path clip-rule="evenodd" d="m180.129 158.857c-8.789-.541-18.574-7.402-24.232-18.965l-20.053-47.192s1.912-2.573 3.811-2.294l19.512 46.646c3.553 8.621 12.689 16.525 23.828 18.285 0 0 4.922.223 5.555 3.145 0 0 .127 2.105-1.232 2.574 0 0-1.09 1.082-12.438 3.652 0 0 .816-.709.697-4.918 2.445-.365 6.215-1.029 6.051-2.082z" fill="#cbcdd3" fill-rule="evenodd"/><path d="m180.129 158.857c-8.789-.541-18.574-7.402-24.232-18.965m-.001.001-20.053-47.192m.001 0s1.912-2.573 3.811-2.294m-.001 0 19.512 46.646m0 0c3.553 8.621 12.689 16.525 23.828 18.285 0 0 4.922.223 5.555 3.145 0 0 .127 2.105-1.232 2.574 0 0-1.09 1.082-12.438 3.652 0 0 .816-.709.697-4.918 2.445-.365 6.215-1.029 6.051-2.082" fill="none" stroke="#000" stroke-linecap="round" stroke-miterlimit="2.613" stroke-width=".731"/><path d="m177.973 118.795s4.037 9.51 4.033 10.469c-.004 1.086-.143 1.766-.143 1.766m1.881 5.437s3.061 16.307 2.918 18.207m0 0-.277 1.492" fill="none" stroke="#000" stroke-linecap="round" stroke-miterlimit="2.613" stroke-width=".457"/><path d="m176.209 118.244c-3.125.803-8.426 1.869-9.375 1.867m5.908 17.266c1.766-.266 8.832-1.867 9.922-2.271" fill="none" stroke="#000" stroke-linecap="round" stroke-miterlimit="2.613" stroke-width=".548"/><path clip-rule="evenodd" d="m179.615 159.537.988-.711s3.061-1.279-2.094-2.42c4.614.629 6.782 1.93 1.106 3.131z" fill-rule="evenodd"/><path clip-rule="evenodd" d="m184.113 155.615s8.104 2.475-4.943 5.41l.135.137s2.377-.127 6.254-1.74c0 0 1.361-1.082 1.561-.062 0 0 2.652-1.484.809 1.361 0 0 1.465-1.184.453-3.02-.001 0-1.589-1.805-4.269-2.086z" fill-rule="evenodd"/><path clip-rule="evenodd" d="m172.094 165.105c-16.721 4.961-42.375 3.336-50.033-18.418 0 0 3.803-.121 4.617-.117 7.406 16.457 27.832 18.436 43.123 14.285 0 0 1.09-.539 1.096-2.168 0 0-.5-11.137-2.109-16.846 0 0-.129-1.766-1.623-1.363-12.08 2.867-32.334 5.332-42.387 6.221 0 0-6.381-.297-10.453-.855l-46.542-7.779c-2.172-.279-1.747-5.031 2.054-4.473l45.592 7.641 4.48.561-5.787-13.736 4.752-.117 5.924 13.6c15.889-.754 28.389-3.287 41.025-5.547 0 0 1.633-.537 1.096-2.168 0 0-2.555-7.07-3.629-9.791 0 0-.537-1.902-2.576-1.23-12.5 2.26-36.408 5.293-45.641 5.121-8.557.512-15.609-1.688-22.505-9.182 0 0-7.441-7.09-10.416-10.359-1.756-2.451 1.514-5.426 3.272-3.383 1.215 1.635 8.384 8.994 12.172 12.539 4.197 3.273 8.398 5.463 14.1 5.619l-15.757-34.277c-1.483-2.653 2.598-4.946 3.543-3.245l17.102 37.54c7.875.029 35.449-2.988 43.602-4.586l.816-.27c.139-1.086 2.721-1.756 4.348-.662 4.92 9.455 10.818 29.029 10.146 45.252-.076 2.174-2.184 3.047-3.742 2.023z" fill="#cbcdd3" fill-rule="evenodd"/><path d="m172.094 165.105c-16.721 4.961-42.375 3.336-50.033-18.418 0 0 3.803-.121 4.617-.117 7.406 16.457 27.832 18.436 43.123 14.285 0 0 1.09-.539 1.096-2.168 0 0-.5-11.137-2.109-16.846 0 0-.129-1.766-1.623-1.363-12.08 2.867-32.334 5.332-42.387 6.221 0 0-6.381-.297-10.453-.855m-.001 0-46.542-7.779m0-.001c-2.172-.279-1.747-5.031 2.054-4.473m-.001.001 45.592 7.641 4.48.561-5.787-13.736 4.752-.117 5.924 13.6m.001-.002c15.889-.754 28.389-3.287 41.025-5.547 0 0 1.633-.537 1.096-2.168 0 0-2.555-7.07-3.629-9.791 0 0-.537-1.902-2.576-1.23-12.5 2.26-36.408 5.293-45.641 5.121-8.557.512-15.609-1.688-22.505-9.182 0 0-7.441-7.09-10.416-10.359-1.756-2.451 1.514-5.426 3.272-3.383 1.215 1.635 8.384 8.994 12.172 12.539 4.197 3.273 8.398 5.463 14.1 5.619m0 0-15.756-34.275m0 0c-1.483-2.653 2.598-4.946 3.543-3.245m0 0 17.102 37.54m0 0c7.875.029 35.449-2.988 43.602-4.586m0 0 .816-.27m0 0c.139-1.086 2.721-1.756 4.348-.662 4.92 9.455 10.818 29.029 10.146 45.252-.076 2.174-2.184 3.047-3.742 2.023" fill="none" stroke="#000" stroke-linecap="round" stroke-miterlimit="2.613" stroke-width=".731"/><path d="m124.098 146.832c4.562 14.273 23.607 22.629 45.082 17.211m-98.406-27.189 43.828 7.295m0-.001c4.207.559 7.33.91 10.047.648 11.271-.635 29.748-3.145 41.027-5.682m-81.62-31.675c3.649 4.494 11.904 11.857 14.069 13.768 2.842 2.184 6.5 4.234 12.066 4.797 2.984.283 7.059.164 10.59-.096 11.34-.432 31.65-3.545 39.26-4.738" fill="none" stroke="#000" stroke-linecap="round" stroke-miterlimit="2.613" stroke-width=".548"/><path clip-rule="evenodd" d="m167.49 161.49c-.779-.037 3.432-.428 4.34 1.273 0 0 .387-3.529-1.859-1.908zm3.004-22.154c3.01 11.824 2.699 21.871 2.699 21.871-.396-2.514-.939-2.244-.939-2.244.004-1.357-.062-1.766-.062-1.766-.242-6.18-.84-11.271-2.178-16.166 0 0 .476-.676.48-1.695zm-2.449 1.213s.887-.674.824-2.236c-.684.879-1.229 1.627-5.375 2.969 0-.001 3.535-.94 4.551-.733zm-3.668-17.326s-.74-1.428-1.283-1.295c0 0 .816-.605.145-2.646 2.225 4.422 5.25 11.832 6.387 16.861 0 0-.74-1.633-1.557-1.363 0 0 .479-.812-.061-2.037 0-.001-2.149-6.12-3.631-9.52zm-3.189-.487s.545-.404.754-1.898c-1.773 2.438-3.266 2.023-5.645 2.693zm-.934-4.144s1.361-.605 1.354 1.227c0 0-.402-1.359-5.293-.562zm-.613 18.463c6.521-.926 7.268-.787 9.096.307-.537-1.564-1.621-2.381-2.098-1.91 0-.001-4.096 1.191-6.998 1.603z" fill-rule="evenodd"/><path d="m69.933 125.92-6.009 8.938c-1.638 2.303 2.834 4.764 4.335 2.461l5.872-8.666z" style="fill-rule:evenodd;clip-rule:evenodd;fill:#cbcdd3;stroke:#000;stroke-width:.731;stroke-miterlimit:2.613"/><path d="m72.437 127.762-5.872 8.804" fill="none" stroke="#000" stroke-linecap="round" stroke-miterlimit="2.613" stroke-width=".548"/><path clip-rule="evenodd" d="m143.41 75.622c.824 2.081-.082 3.53-.32 3.732-.711-.104-4.82.186-5.158.286.477-.846.451-2.848-.223-4.006 1.256-.063 5.635-.182 5.701-.012zm-34.033 14.398c3.807-1.071 13.721-1.984 16.709-2.244 5.299-.794 11.545-.907 11.545-.907 7.199-.651 4.879 2.462 1.486 1.907 0 0 2.041-.943-1.354-.957-2.172-.007-10.322.641-11.816.771-1.248.108-9.779.777-13.957 1.406zm-12.078-1.946.949.411 16.16 35.228-.814-.004zm18.18 39.852.748.004 6.394 14.416-.951-.004z" fill-rule="evenodd"/><path clip-rule="evenodd" d="m113.918 127.988 4.889.018s-3.941.664-3.607 2.295zm12.826 18.717s-3.801.258-3.742 2.363l-.939-2.516z" fill-rule="evenodd"/><path clip-rule="evenodd" d="m70.848 133.662s-2.664 4.199-3.139 4.197l2.646.486c-1.353-1.228-1.417-2.382.493-4.683z" fill-rule="evenodd" stroke="#000" stroke-miterlimit="2.613" stroke-width=".731"/><path clip-rule="evenodd" d="m172.096 164.529s-.779-.275-.811-.75c.031.441-.072 1.02-.041 1.324.047.424.852-.574.852-.574z" fill-rule="evenodd"/><path clip-rule="evenodd" d="m79.903 128.893c.255 1.299 1.21 2.434 2.873 2.766 2.436.488 3.535-1.365 3.255-2.859-.319-1.703-2.351-3.098-3.92-2.674z" fill="#cbcdd3" fill-rule="evenodd"/><path d="m79.903 128.893c.255 1.299 1.21 2.434 2.873 2.766 2.436.488 3.535-1.365 3.255-2.859-.319-1.703-2.351-3.098-3.92-2.674" fill="none" stroke="#000" stroke-linecap="square" stroke-miterlimit="2.613" stroke-width=".365"/><path d="m77.147 123.846c-1.172 2.166.727 4.512 3.279 4.289 1.42-.123 1.933-1.023 2.065-1.861" fill="none" stroke="#000" stroke-miterlimit="2.613" stroke-width=".347"/><path clip-rule="evenodd" d="m79.277 123.342c-.886 1.049-.829 3.934-.357 4.582l.746.172c-.503-1.326-.326-3.328.357-4.514z" fill-rule="evenodd"/><path d="m81.472 127.789c-.264 1.611.898 3.541 3.986 2.924" fill="none" stroke="#000" stroke-linecap="round" stroke-miterlimit="2.613" stroke-width=".355"/><path clip-rule="evenodd" d="m80.348 126.35s-.077.291-.066.441c-1.052.047-1.864-.602-2.169-1.137l.002-.469c.711.768 1.456 1.11 2.233 1.165zm91.353 8.035v.137c3.635-.598 5.943-1.064 8.324-1.801 0 0 .947.172 1.186.615a97.114 97.114 0 0 1 -9.309 2.035zm-117.621 19.513c1.342-1.121 1.407-3.316.172-5.072-1.236-1.758-3.389-2.371-4.809-1.373-1.42 1-1.663 3.498-.427 5.256 1.234 1.754 3.729 2.299 5.064 1.189z" fill-rule="evenodd"/><path clip-rule="evenodd" d="m52.858 150.34c-.194-.318-.98-.984-1.485-1.158-.544-.189-.719.545-.265.635.449.088 1.253.77 1.5 1.303.215.46.752.044.25-.78z" fill="#fff" fill-rule="evenodd"/><path d="m52.108 154.137c.836-.711.766-2.127-.159-3.166-.924-1.039-2.352-1.305-3.187-.596-.838.709-.768 2.125.157 3.164.924 1.039 2.352 1.307 3.189.598z" style="fill-rule:evenodd;clip-rule:evenodd;fill:#fff;stroke:#000;stroke-width:.312;stroke-miterlimit:2.613"/><path clip-rule="evenodd" d="m51.661 153.754c.659-.49.226-1.773-.288-2.359-.627-.717-1.672-1.072-2.259-.506-.529.508-.467 1.588.298 2.291.711.652 1.674 1 2.249.574z" fill-rule="evenodd"/><path clip-rule="evenodd" d="m49.422 151.479c-.435.631.614 2.055 1.79 1.945.35-.059.297-.316.127-.359-.698-.184-1.438-.914-1.538-1.611-.059-.415-.379.025-.379.025zm-.522-1.778c1.609-5.051 8.318 1.76 4.288 4.033 2.51-3.25-2.452-7.004-4.288-4.033z" fill="#fff" fill-rule="evenodd"/><path d="m14.003 140.439c-21.952-47.198-10.129-85.715 23.072-104.325 29.126-18.355 77.991-14.097 98.487 23.457" fill="none" stroke="#000" stroke-miterlimit="2.613" stroke-width=".914"/></svg>