<svg height="200pt" viewBox="1.2 37.1 196.8 125.7" width="200pt" xmlns="http://www.w3.org/2000/svg"><path d="m4.5 40.5c-3 2.9-3.3 7.3-.6 10.6 1.4 1.8 3.1 2.3 8 2.7l6.1.4-.2 45.7-.3 45.6-5.5.3c-3.9.2-6.1.9-7.7 2.4-2.9 2.7-3 7.7-.4 10.9 1.9 2.4 2.2 2.4 20.8 2.4 28.3 0 29.2-.5 42.2-26 4.5-8.8 8.6-16.4 9-16.8.5-.5 4.6 6.5 9.1 15.5 10.1 20 11 21.3 16.8 24.2 4.7 2.3 14.2 4.4 14.2 3 0-1.6-57.4-114.1-59.3-116.1-1.1-1.3-4.3-3.4-7.1-4.8-4.8-2.4-5.7-2.5-23.8-2.5-18.7 0-18.9 0-21.3 2.5zm39.3 15.1c1.3.9 6.4 9.7 11.4 19.7 12.5 24.8 12.5 23.6-.4 49.2-10.2 20.3-11.6 21.9-17.9 21.3l-3.4-.3-.3-45.8-.2-45.7h4.3c2.3 0 5.3.7 6.5 1.6zm38.6-12.4c33.1 73.6 48.7 106.2 53.4 111.1 3.4 3.6 6.7 5.4 12.8 6.7 7.1 1.6 7.7 1 4.7-5.2-1.4-2.9-5.4-11.4-8.8-18.8-3.5-7.4-8.2-17.6-10.5-22.5-2.3-5-6.8-14.6-10-21.5s-7.9-17-10.5-22.5-5.8-12.4-7.2-15.4c-1.3-2.9-3.5-6.8-4.9-8.7-3.4-4.3-11.6-8.4-17.1-8.4h-4.3zm40.6-4.4c0 1.9 32.8 73.9 42.8 93.8 10.3 20.5 12.8 23.9 19.6 26.8 4 1.6 10.4 2.9 11.5 2.2s-50.2-111.1-53.8-115.5c-1.5-1.9-4.4-4.3-6.5-5.4-4.3-2.2-13.6-3.6-13.6-1.9z"/></svg>