<svg clip-rule="evenodd" fill-rule="evenodd" height="671" image-rendering="optimizeQuality" shape-rendering="geometricPrecision" text-rendering="geometricPrecision" viewBox="-55.91 -14.49 4501.05 1245.83" width="2500" xmlns="http://www.w3.org/2000/svg"><path d="m1752.04 596.13h173.83c4.76 20.09 13.39 34.51 26.01 43.26 12.49 8.76 31.29 13.13 56.14 13.13 20.73 0 37.21-3.61 49.06-10.69 11.97-7.21 17.9-17 17.9-29.61 0-20.09-24.98-36.31-74.94-48.93-10.04-2.45-17.77-4.38-23.05-5.67-40.95-10.56-73.52-20.21-97.86-28.84-24.21-8.63-41.85-16.87-52.92-24.34-21.37-15.32-37.47-33.73-48.16-55.11-10.69-21.37-15.97-45.84-15.97-73.26 0-55.11 20.73-98.37 62.19-129.92 41.46-31.42 98.5-47.13 171.12-47.13 71.46 0 127.6 15.06 168.55 45.19s64.12 73.26 69.4 129.4h-169.19c-2.7-16.35-10.04-28.58-21.63-36.57-11.72-8.11-28.46-12.1-50.09-12.1-19.06 0-33.22 3.09-42.62 9.4-9.27 6.31-13.91 15.84-13.91 28.71 0 18.28 24.34 33.74 73.14 45.97 4.38 1.29 7.6 2.19 9.79 2.7 7.08 1.67 17.77 4.38 32.19 7.85 64.64 16.35 106.87 31.16 126.83 44.55 24.59 16.35 42.62 34.89 53.95 55.75s17 45.58 17 73.91c0 61.42-21.5 108.54-64.38 141.38-42.88 32.96-104.3 49.44-184.38 49.44-73.78 0-132.24-16.48-175.37-49.44-43.13-32.83-67.34-79.19-72.62-139.06zm538.04 173.05v-555.47h178.46v188.51h166.1v-188.51h178.46v555.47h-178.46v-215.54h-166.1v215.54zm745.22-277.22c0 52.66 8.76 91.16 26.4 115.88 17.64 24.59 45.19 36.95 82.66 36.95 37.34 0 64.64-12.23 82.02-36.83 17.38-24.46 26.01-63.09 26.01-116.01 0-53.05-8.63-91.81-26.01-116.27-17.38-24.59-44.68-36.83-82.02-36.83-37.47 0-65.02 12.36-82.66 36.95-17.64 24.72-26.4 63.35-26.4 116.14zm-180.01-.13c0-90.52 25.88-161.98 77.51-214.26 51.63-52.41 122.19-78.54 211.42-78.54 88.97 0 159.28 26.14 210.78 78.54 51.63 52.28 77.38 123.74 77.38 214.26 0 90.26-25.75 161.72-77.38 214.13-51.5 52.41-121.81 78.67-210.78 78.67-89.23 0-159.79-26.27-211.42-78.67s-77.51-123.87-77.51-214.13zm619.94 277.35v-555.47h444.09v132.88h-265.63v74.17h224.56v127.47h-224.56v85.75h276.58v135.2zm473.15-173.05h173.83c4.76 20.09 13.39 34.51 26.01 43.26 12.49 8.76 31.29 13.13 56.14 13.13 20.73 0 37.21-3.61 49.06-10.69 11.97-7.21 17.9-17 17.9-29.61 0-20.09-24.98-36.31-74.94-48.93-10.04-2.45-17.77-4.38-23.05-5.67-40.95-10.56-73.52-20.21-97.86-28.84-24.21-8.63-41.85-16.87-52.92-24.34-21.37-15.32-37.47-33.73-48.16-55.11-10.69-21.37-15.97-45.84-15.97-73.26 0-55.11 20.73-98.37 62.19-129.92 41.46-31.42 98.5-47.13 171.12-47.13 71.46 0 127.6 15.06 168.55 45.19s64.12 73.26 69.4 129.4h-169.19c-2.7-16.35-10.04-28.58-21.63-36.57-11.72-8.11-28.46-12.1-50.09-12.1-19.06 0-33.22 3.09-42.62 9.4-9.27 6.31-13.91 15.84-13.91 28.71 0 18.28 24.34 33.74 73.14 45.97 4.38 1.29 7.6 2.19 9.79 2.7 7.08 1.67 17.77 4.38 32.19 7.85 64.64 16.35 106.87 31.16 126.83 44.55 24.59 16.35 42.62 34.89 53.95 55.75s17 45.58 17 73.91c0 61.42-21.5 108.54-64.38 141.38-42.88 32.96-104.3 49.44-184.38 49.44-73.78 0-132.24-16.48-175.37-49.44-43.13-32.83-67.34-79.19-72.62-139.06z" fill-rule="nonzero"/><path d="m403.59 933.78s4.38 138.93 19.69 193.63c15.32 54.7 64.54 103.93 74.39 22.97 9.84-80.95-1.09-118.15-28.44-170.66s-48.13-123.62-12.03-131.27c36.1-7.66 61.26 52.51 113.77 37.19s109.39-118.15 143.31-130.18c33.91-12.03 42.66 37.19 36.1 148.78-6.56 111.58-2.19 175.03 40.48 167.37 42.66-7.66 40.48-100.64 18.6-176.13-21.88-75.48-28.44-156.43 8.75-193.63 37.19-37.19 56.89 1.09 97.36-41.57 40.48-42.66 70.01-90.8 92.99-73.29 22.97 17.5 28.44 149.87 100.64 199.1s103.93 62.36 85.33 108.3c-18.6 45.95-28.44 97.36 9.84 100.64 38.29 3.28 36.1-38.29 33.91-91.89s5.47-110.49 62.36-107.21c56.88 3.28 213.32-9.85 310.68-95.17 97.36-85.33 63.45-177.22-30.63-157.53s-143.31 82.05-206.76 96.27-112.68-21.88-54.7-106.11 131.28-67.82 145.5-101.74c14.22-33.91 3.28-65.64 48.13-96.27s180.5-84.23 179.41-123.62c-1.09-39.38-94.08-113.77-262.55-27.35s-240.43 148.3-263.26 160.67-33.29-9.51-21.88-57.08c11.42-47.56-34.25-172.18-274.91-192.15-240.67-19.98-322.48.95-385.26 13.32s-99.88-42.81-96.08-77.05c3.81-34.25-51.37-46.61-130.32-9.51s-130.32 57.07-133.18 99.88c-2.85 42.81 18.07 36.15-30.44 85.61-48.51 49.47-150.3 134.13-55.17 131.27 95.13-2.85 168.37-18.07 194.06 63.73 25.68 81.81 89.42 266.35 115.1 345.31 25.68 78.95 21.88 145.54-15.22 182.64s-88.47 114.15-34.25 128.42 40.9-80.86 58.98-113.2c18.07-32.34 47.56-39.95 45.71-12.51zm224.33-326.21-116.63-294.48s-22.33-40.53 44.67-37.22 271.32 27.3 322.61 40.53c51.29 13.24 62.04 56.25 6.62 134.01s-115.81 130.7-151.38 153.03c-35.57 22.34-81.89 45.5-105.88 4.14z"/></svg>