<svg height="599pt" viewBox="301.4 144.3 933.6 314.1" width="2048" xmlns="http://www.w3.org/2000/svg"><path d="m726 146.5c-45.4 6.6-96.8 31.9-146.5 72-36 29-73.8 69-104.8 110.7-5.6 7.6-10.5 13.7-10.9 13.8-.4 0-2.6-3.5-4.7-7.9-14.1-28-37.4-52.6-60.6-63.7-14.2-6.9-22.4-8.7-39.5-8.8-16.7-.1-25.5 1.7-42.5 8.5-9.6 3.8-15.1 7-9.5 5.5 1.4-.4 7.2-1 13-1.3 41.1-2.1 78.2 25.7 103.1 77.2 3.7 7.7 8.6 19.2 10.9 25.5 5.5 15 13.1 42.9 16.5 60.8 2.3 11.8 3 13.9 4 12.5.6-1 6.4-11.9 12.7-24.3 45.7-88.9 84-145.1 130.8-192 41-41.1 83-68.5 132-86.1 11.3-4.1 10.5-4.6-4-2.4z"/><path d="m580 281.1c-14.8 4.4-18.8 23.3-7 33.2 7.5 6.4 18.4 6 26-.9 4.7-4.3 6.4-8.9 5.8-16-1-11.5-13.4-19.7-24.8-16.3zm59 44.4v13.5h-22v27h21.9l.3 30.3.3 30.2 3.3 6.7c7.8 15.8 23.9 22.6 47.4 20 5.7-.6 12-1.6 14.1-2.2l3.7-1.1v-27.1l-5.2.9c-9.5 1.5-18.9 1-22.7-1.2-6.6-3.9-7.1-6.1-7.1-32.7v-23.8h35v-27h-35v-27h-34zm125 11.5c-15.5 2-29.6 10.9-38.1 24.2-17.2 26.7-10 66.6 14.9 83.2 21.2 14 47.3 12.1 63.4-4.7l5.8-5.9v17.2h29v-112h-29v17.2l-4.9-5.5c-9.9-10.7-25-15.8-41.1-13.7zm23.2 32c5.9 1.7 11.9 6.9 15.2 13.3 3.8 7.4 4 16.6.6 24.5-7.6 17.6-33.1 21.2-46 6.4-15.6-17.6-3.4-45.2 20-45.2 3.6 0 8.2.5 10.2 1zm133.6-31.9c-11.2 1.2-22.1 7.2-27.8 15.1l-2.9 4-.3-8.4-.3-8.3h-29l-.3 55.7-.2 55.8h33.9l.3-34.8c.3-33.3.4-34.9 2.5-38.7 4.2-7.9 10.5-11.5 19.8-11.5s16 4.6 19 12.9c1.2 3.6 1.5 10.3 1.5 38.2v33.9h34v-33.4c0-36.4.4-39.2 5.8-44.9 4.4-4.7 9.4-6.7 16.4-6.7 10.1 0 17.1 5.3 19.8 14.9.6 2.1 1 17.7 1 36.8v33.3h34v-35.8c0-19.6-.5-38.9-1-42.7-2-14.4-10.7-26.6-22.6-32.2-9.1-4.1-25.4-4.8-35.9-1.3-7.8 2.5-17.4 10-21.4 16.7-1.1 1.7-1.2 1.7-2.3-.2-2.5-4.2-10-11.3-14.5-13.8-8-4.3-18.1-5.9-29.5-4.6zm263.9 0c-10 1.1-18.9 5.6-25.9 13.1l-5.8 6.1v-17.3h-29v112h34v-32.6c0-20.1.4-34.2 1.1-36.8 2.4-9.5 10.6-15.6 20.9-15.6 9.9 0 16.8 4.9 19.9 13.9.7 2.3 1.1 14.6 1.1 37.2v33.9h34v-36.8c0-39.2-.6-46.4-4.6-54.8-7.9-16.8-24.2-24.7-45.7-22.3zm-615.7 57.9v56h33v-112h-33zm500 0v56l16.5-.2 16.6-.3-.1-55v-55.8c0-.4-7.4-.7-16.5-.7h-16.5z"/></svg>