<svg height="1428" viewBox="1.6 2 1434.2 816" width="2500" xmlns="http://www.w3.org/2000/svg"><path d="m495.5 92.5c-64.3 49.7-117.2 90.4-117.5 90.4s-2.5-6.1-5-13.7c-5.2-15.9-15.7-37.5-24.9-51.2-32.2-47.7-77.7-78.1-133.6-89.2-10.8-2.2-12.8-2.2-108.2-2.6l-97.3-.3v417.1h91.9c99.8 0 103.7-.2 126-5.6 37.4-9.2 68.9-26.4 95.5-52.3 17.9-17.5 28.8-32.3 39.2-53.1 5.5-11.1 13.5-33.6 14.9-41.8.4-2.3.9-4.2 1.2-4.2.2 0 53.2 40.6 117.6 90.2 64.5 49.6 117.9 90.2 118.7 90.2.9 0 54.3-40.6 118.7-90.2 64.5-49.6 117.5-90.2 117.8-90.2s.5 35.3.5 78.5v78.5h265v-84h-175v-333h-97l-.2 78.7-.3 78.8-110.5 89.8c-60.8 49.3-111.2 90.2-112.1 90.7-1.2.7-6.3-3.2-23-17.6-11.8-10.2-22.7-19.8-24.2-21.3l-2.9-2.8 53.9-41.9c93.1-72.4 170.4-133.7 169.6-134.5-2.3-2.2-64.8-52.9-65.3-52.9-.3 0-50.6 39.2-111.9 87-61.2 47.9-111.7 87-112.1 87-1.1 0-48-41-48-41.9 0-.4 49.8-38.5 110.8-84.6 60.9-46.1 111.1-84.1 111.5-84.5.9-.8-63.8-54-65.6-53.9-.6 0-53.8 40.7-118.2 90.4zm-310 18.5c43.5 6.2 80.5 38.3 94.9 82.2 5 15.5 6.1 23 6.1 43.3 0 16.3-.3 20.5-2.3 29.4-5.8 25.8-16.8 46.7-34 64.4-14.5 14.8-32 25.1-51.7 30.4l-10 2.7-44.7.4-44.8.4v-254.2h39.8c21.8 0 42.9.5 46.7 1zm968.5 123.5v208.5h265v-84h-169v-333h-96zm-1150.8 330.7c-1.6 1.6-1.6 8 0 9.6.9.9 9.4 1.2 31.9 1.2 24.5 0 30.9.3 31.8 1.3.8 1 1.2 26.6 1.3 90.3l.3 88.9h14l.3-88.4c.1-63.3.5-88.8 1.3-89.8.9-1 7.6-1.3 33.3-1.3 25.1-.1 32.5-.4 33.9-1.4 2.5-1.9 2.4-9.2-.2-10.6-3-1.5-146.3-1.4-147.9.2zm400.3 0c-.3.7-.4 44.5-.3 97.3l.3 96 5.8.3c3.5.2 6.4-.2 7.3-.9 1.2-.9 1.4-8.3 1.4-44.3 0-47.4.4-51.6 5.9-62.3 3.8-7.6 12.2-15.4 19.9-18.5 4.9-1.9 7.5-2.3 18.2-2.3 11 0 13.1.3 17.5 2.3 8.8 4 14.5 11.1 18.1 22.2 1.6 4.8 1.8 11.4 2.3 54.5l.6 49 5.6.3c3 .2 6.7-.2 8.2-.7l2.7-1.1v-48.2c0-53-.2-55.2-6.2-67.2-6.2-12.3-16.7-20.1-31-23-20.8-4.3-40 1.2-52.7 15-3.2 3.5-6.3 6.4-7 6.4-.8 0-1.1-9.9-1.1-36.3 0-42 .5-39.7-9.4-39.7-3.6 0-5.8.5-6.1 1.2zm424 0c-.3.7-.4 44.5-.3 97.3l.3 96 6.3.3c3.8.2 6.9-.2 7.8-.9 1.2-1 1.4-15.6 1.4-96.3 0-72.7-.3-95.5-1.2-96.4-1.6-1.6-13.7-1.6-14.3 0zm329.1 12.1c-1.4 1-1.6 2.6-1.4 10.2l.3 9 6.3.3c3.8.2 6.9-.2 7.8-.9 1.8-1.5 2-16.9.2-18.7-1.6-1.6-11-1.5-13.2.1zm-981.1 40.3c-23 3.6-39.7 18.1-47.2 40.9-2.3 7.1-2.7 10-3.1 25.8-.3 11.4 0 20.1.7 24 7 36.8 31.1 56.5 66.6 54.4 5.5-.3 12.5-1.3 15.5-2.2 16.8-5.1 29.3-16.9 34-32.4 2.6-8.2 1.8-9.3-5.9-8.9l-5.6.3-3.5 6.9c-5 9.7-9.9 14.9-17.7 18.8-5.8 2.8-7.8 3.3-16.4 3.6-11.6.5-20.7-1.8-28.5-7.1-11.6-7.9-20.5-24.4-20.8-38.2l-.1-7 50.4-.3c46.3-.2 50.6-.4 52.4-2s1.9-2.6 1.3-12.2c-.9-13.8-3-22.7-7.5-32.5-6.8-14.6-19.2-25.2-35.1-30-5.4-1.6-23.7-2.8-29.5-1.9zm27.8 16.3c14.6 5.7 23.7 18.3 26.8 37.1.9 5.5.9 7.3-.1 8.5-1.1 1.3-6.9 1.5-43.9 1.5-31.9 0-43-.3-43.9-1.2-2.6-2.6-.2-16.9 4.4-26 5.1-10.1 15-18.2 26.3-21.4 7.1-2.1 23.3-1.2 30.4 1.5zm103.9-15.5c-8.8 1.7-19.8 6.8-26.9 12.5-10.1 8.1-18.3 23.8-21.2 40.5-1.8 9.8-1.3 29.9.9 40.6 5.1 24.9 20 41.4 43 47.6 8.9 2.4 28.2 2.4 37 .1 20.1-5.3 34.6-19.4 39.5-38.4 1.9-7.2 1.1-8.3-6-8.3-5.9 0-6.6.6-8.4 7-4.6 15.9-16.4 25.8-33.7 28.3-15.7 2.3-32.6-3.1-41.8-13.4-9.1-10.1-13.5-22.8-14.3-41.4-1.8-40.6 18.5-65.6 51.5-63.2 18.3 1.3 30.4 10.4 36.2 27.2 2.8 8 3.3 8.5 10 8.5 7.5 0 8.4-1 6.9-8.1-3.8-18.3-18.5-33-38.4-38.3-8.5-2.3-25.3-2.9-34.3-1.2zm289.1 0c-12.2 2.8-23.8 9.9-28.9 17.6-4.4 6.6-5.6 5.5-6.9-6.5-.4-3.3-1.2-6.6-1.7-7.3-1.3-1.5-9-1.6-10.6 0-.9.9-1.2 17.4-1.2 67.9 0 56.3.2 66.8 1.4 67.8.9.7 3.8 1.1 7.3.9l5.8-.3.6-45.5c.4-38.5.8-46.4 2.2-51.3 5-17.1 14.7-26.8 30.4-30.3 9.6-2.1 22-1.5 28.6 1.4 9.9 4.4 17.3 14.5 19.7 27.2.6 3 1 24.8 1 51 0 38.2.2 45.9 1.4 46.9.9.7 4 1.1 7.8.9l6.3-.3.3-45c.2-29-.1-47.8-.8-52.8-3-21.2-12.9-34.4-30.2-40.4-9-3.1-23.3-4-32.5-1.9zm455 .1c-20.8 4.5-35.6 20.2-42.5 45-1.9 7-2.2 10.4-2.2 26.5 0 15.8.4 19.6 2.2 26.4 3.6 12.9 8.6 22.2 16.1 29.7 11.2 11.3 22 15.4 40.1 15.3 20 0 32.6-5.5 41.7-18l3.5-4.9-.5 11.5c-1.7 34.9-14 52.6-37.9 54.6-19.7 1.7-34-5.1-38.8-18.5-3.1-8.6-3.1-8.6-9.4-8.9-7.5-.4-8.6.5-7.5 6.6 3 16 14.3 26.9 32.9 31.8 8.1 2.1 27.3 2.4 35 .5 15.6-3.8 26.8-12.8 33.8-27.1 9.2-18.6 10.2-29.5 10.2-108.1 0-48.6-.2-57.8-1.4-58.8-.8-.7-3.6-1.1-6.3-.9l-4.8.3-1.4 9.2c-1 6.1-1.9 9.3-2.7 9.3-.7 0-2.7-1.9-4.4-4.3-10.5-14.7-34-21.9-55.7-17.2zm25.3 12.9c12.3 3.3 21.3 10.9 26.6 22.5 4.6 9.9 6.1 18.7 6.2 35.1.1 33.3-10.2 52.3-31.8 58.5-8 2.3-21.9 1.7-29.9-1.4-7.9-3.1-16.8-11.4-20.7-19.4-5.4-11.1-6.5-17.3-6.5-36.7 0-15.2.3-18.5 2.3-25.3 6.7-23.5 20-34.5 41.7-34.6 3.9-.1 9.3.5 12.1 1.3zm165.9-13.7c-18.7 2.5-35.2 14.4-43.3 31.3-6.6 13.9-9.2 31.5-7.3 50.8 1.4 13.6 3.4 20.9 8.4 31.2 10.6 21.8 32.2 33.3 59.2 31.7 16.1-1 26.8-5.1 36.1-13.9 6.6-6.3 10.6-12.4 13.4-20.6 2.6-7.9 1.9-9.2-5.4-9.2-2.8 0-5.6.4-6.3.8s-2.8 4-4.8 7.9c-7.3 14.6-18.6 21.3-36 21.3-23.1 0-39.5-13.7-46-38.5-2-7.8-2-13.1.1-13.9.9-.3 24-.6 51.4-.6 43.2 0 49.9-.2 51-1.5 1.7-2.1.7-24-1.5-32-6.4-23.1-22.9-39.3-45-44-6.5-1.4-17.1-1.7-24-.8zm27.4 16.1c14.9 5.8 24.3 18.6 27.2 37.3.8 5.3.8 7.3-.1 8.4-1.1 1.3-7.9 1.5-44.5 1.5-48.1 0-44.5.6-44.5-6.9 0-5.1 2.5-14.2 5.6-20.2 5.1-10.1 16.3-19.2 27-21.8 6.5-1.7 23.1-.7 29.3 1.7zm99.6-16.2c-19.9 2.7-31.1 8.9-37.3 20.9-3.7 7.2-4.3 19.7-1.2 27.7 5 13.3 15.9 19.6 45.2 26.2 20.7 4.7 26.4 6.7 31.6 11.1 5.6 4.7 7.6 9.8 7.7 19.6 0 7.8-.3 9-3 13.5-2.5 3.9-4.4 5.6-9.5 8.2-12.1 6.1-31.9 6.4-43.7.6-9.2-4.4-16.3-15.1-16.3-24.4 0-3.9-1.8-5-8.2-5-7.1 0-7.6.7-5.9 9.7 2.3 12.4 10.1 23.3 21.2 29.7 10.8 6.2 34 8.6 50 5.2 22.8-4.9 35.7-22.7 32-44.6-2.2-13.3-7.8-21.3-18.8-26.8-7.8-3.9-13-5.5-31.8-9.8-28.9-6.6-35.5-11.5-35.5-26.6 0-7.7 2.7-12.9 8.5-17 10-6.9 32.6-7.8 44.5-1.8 6.9 3.6 12 11.3 12 18.3 0 4.5 1.5 5.7 7.6 5.7 6.7 0 7.9-1.4 7-8.3-2-15-13.5-26.2-30.8-30.1-6.9-1.6-20.5-2.6-25.3-2zm-638 1.5c-27.4 4.2-46.1 22.6-52 51.3-1.8 9-2.1 30.1-.5 38.6 5.3 28.1 23.4 47.8 48.3 52.5 23.3 4.4 43.8-1.3 58.7-16.4 13.4-13.5 19.3-29.9 19.3-53.6 0-32.3-11.8-55.2-34.3-66.5-10.7-5.4-27.1-7.9-39.5-5.9zm22 13.5c15.9 4.1 27.8 17.2 33.1 36.5 2.5 9 2.5 32.8 0 41.9-6.1 22.5-20.4 35.9-40.6 38.4-12.8 1.5-28.3-4.4-36.9-14-10.4-11.7-14.5-24.6-14.5-45.4 0-15.2 1.6-23.4 6.4-33.5 9.4-19.7 31-29.6 52.5-23.9zm163-13.5c-33.2 4.9-53.5 32.3-53.5 71.9 0 42.7 22.9 69.7 60.5 71.7 32.3 1.6 57.1-17.1 64.4-48.7 3.9-17.1 3.6-35.8-1.1-50.9-6.6-21.7-22-37.3-41.9-42.5-7.4-1.9-21.1-2.7-28.4-1.5zm23.4 13.8c3.3 1 8 3 10.4 4.5 10 5.8 19.2 19.9 22.2 34.1 1.9 9 1.9 28 0 37-2.1 9.9-8.3 22-14.6 28.3-20.4 20.4-55.3 15.4-69.7-10-11.5-20.2-11.4-54.2.3-74.5 5.4-9.4 16.6-17.7 27.2-20.2 6.7-1.6 17.7-1.2 24.2.8zm216.3-11.1c-1 .7-1.2 15.1-1 68.8l.3 67.9 6.6.3c4.7.2 6.9-.1 7.7-1.1.9-1.1 1.1-18.7 1-68.8l-.3-67.4-6.5-.3c-3.6-.1-7.1.2-7.8.6z"/></svg>