<?xml version="1.0" encoding="UTF-8"?>
<svg xmlns="http://www.w3.org/2000/svg" version="1.1" viewBox="0 0 433.82 158.85">
  <defs>
    <style>
      .cls-1 {
        fill: #c8102e;
      }

      .cls-2 {
        fill: #003da5;
      }
    </style>
  </defs>
  <!-- Generator: Adobe Illustrator 28.6.0, SVG Export Plug-In . SVG Version: 1.2.0 Build 709)  -->
  <g>
    <g id="Layer_1">
      <g>
        <path class="cls-1" d="M295.52,43.87h-46.72s2.19,9.87,2.42,10.92c-.59,1.04-27.86,49.14-28.14,49.63-.42.35-13.85,11.64-13.85,11.64h31.43s8.22-16.14,9.02-17.71h7.43c-.71,3.07-3.52,15.24-3.52,15.24-.03,0-.16.52-.16.52l-.46,1.96h11.62c12.59.07,15.92-3.4,18.61-11.17-.01.03,1.4-3.73,1.4-3.73l.8-2.15h-5.99c.6-3.31,6.47-35.74,6.89-38.08h5.15l6.35-17.06h-2.29ZM260.98,81.61h-2.79c.89-1.75,2.56-5.01,5.11-10.02-1.16,4.99-2.09,9.04-2.32,10.02Z"/>
        <path class="cls-1" d="M232.52,26.61h-55.05s6.58,11.07,7.27,12.22c-.52,1.39-23.89,64.17-24.18,64.94-.61.52-14.68,12.29-14.68,12.29h33.24c8.93-.03,14.47-3.58,17.44-11.14,0-.03,2.64-7.12,2.64-7.12h-7.55c1.06-2.84,3.57-9.6,4.13-11.09h15.56c6.88.02,19.03-1.66,23.14-13.21-.01.02,12.01-32.22,12.01-32.22l.35-.96-13.64-13.7h-.66ZM216.92,46.05c-1.27,3.41-7.27,19.51-7.91,21.24h-6.01c1.27-3.41,7.26-19.52,7.91-21.24h6.01Z"/>
        <path class="cls-1" d="M93.18,26.61h-57.21s6.87,10.48,7.65,11.65c-.57,1.49-29.35,77.8-29.35,77.8h47.7c11.41.36,19.05-4.2,22.66-13.53,0-.02,23.17-62.23,23.17-62.23l-13.97-13.69h-.65ZM76.81,46.05c-1.44,3.88-18.13,48.68-18.84,50.59h-7.24c1.45-3.88,18.13-48.68,18.84-50.59h7.24Z"/>
        <path class="cls-2" d="M92.53,29.8c.81.79,10.3,10.1,11.56,11.33-.7,1.88-22.44,60.27-22.44,60.27-3.11,8.03-9.53,11.79-19.63,11.48,0,0-39,0-43.15,0,1.53-4.07,28.29-75.01,28.29-75.01,0,0-3.48-5.3-5.29-8.07h50.66ZM79.1,42.86h-11.74l-21.22,56.96h14.04l21.21-56.96h-2.29Z"/>
        <path class="cls-2" d="M231.86,29.8c.81.82,10.04,10.09,11.27,11.32-.67,1.8-11.66,31.29-11.66,31.29-3.46,9.72-14.11,11.14-20.14,11.12h-17.78l-6.5,17.47h7.56c-.51,1.37-1.04,2.79-1.04,2.79-2.45,6.24-6.92,9.06-14.47,9.09h-24.46c3.4-2.85,8.61-7.2,8.61-7.2l25.01-67.16s-3.49-5.86-5.19-8.72h48.79ZM219.21,42.86h-10.51l-10.28,27.61h12.81l10.28-27.61h-2.29Z"/>
        <path class="cls-1" d="M365.42,43.87h-25.5s-20.12,54.02-20.86,56.02h-5.49c1.48-3.97,20.87-56.02,20.87-56.02h-30.97s2.83,10.21,3.07,11.1c-.35.95-18.58,49.89-18.58,49.89l11.03,11.2h22.04c7.7.09,17.22-3.34,19.89-11.08-.02.03,13.9-37.35,16.41-44.06h4.03l6.35-17.06h-2.29Z"/>
        <path class="cls-2" d="M363.13,47.05c-1.04,2.8-3.43,9.22-3.98,10.69h-4.03l-17.19,46.17c-2.07,6-10.05,9.04-16.87,8.97h-20.73c-.78-.8-7.51-7.63-8.66-8.81.68-1.83,18.24-48.96,18.24-48.96,0,0-1.54-5.55-2.23-8.06h22.19c-1.48,3.97-20.86,56.03-20.86,56.03h12.29s20.12-54.03,20.86-56.03h20.99Z"/>
        <path class="cls-1" d="M404.07,43.87h-33.28s2.84,10.21,3.08,11.1c-.35.94-18.21,48.9-18.46,49.58-.51.48-12.24,11.51-12.24,11.51h44.22c16.1.04,20.83-6.72,23.55-14.03l3.59-9.61h-21.92s-2.2,5.93-2.78,7.46h-8.92c1.4-3.77,13.82-37.09,14.51-38.96h4.6l6.35-17.06h-2.29Z"/>
        <path class="cls-2" d="M401.78,47.05c-1.04,2.8-3.43,9.22-3.98,10.69h-4.6l-16.88,45.33h15.72s2.2-5.93,2.78-7.47h15.12c-.81,2.18-1.99,5.32-1.99,5.32-2.68,7.2-7.2,11.99-20.56,11.95h-36.18c2.83-2.66,6.93-6.52,6.93-6.52l19.08-51.24s-1.54-5.55-2.24-8.06h26.8Z"/>
        <path class="cls-1" d="M169.3,43.87h-58.29s2.84,10.21,3.09,11.1c-.35.95-18.21,48.9-18.47,49.58-.51.48-12.24,11.51-12.24,11.51h42.92c12.13.08,19.9-3.72,23.09-11.3.02-.06,3.8-10.2,3.8-10.2l.8-2.15h-21.91s-2.21,5.93-2.78,7.46h-8.18c1.11-2.99,4.24-11.38,4.81-12.93h14.45l6.02-16.18h-14.45c1.05-2.8,3.44-9.25,3.99-10.72h7.7c-.63,1.68-2.13,5.72-2.13,5.72h21.92l8.15-21.91h-2.29Z"/>
        <path class="cls-2" d="M167.01,47.05c-1.18,3.16-5.18,13.91-5.78,15.54h-15.12c.62-1.68,2.13-5.73,2.13-5.73h-14.49l-6.37,17.1h14.44c-1,2.71-3.11,8.37-3.65,9.81h-14.45l-7.19,19.31h14.99s2.21-5.93,2.78-7.47h15.12c-.99,2.67-2.97,7.98-2.97,7.98-2.62,6.21-9.4,9.36-20.12,9.29h-34.89c2.82-2.66,6.93-6.52,6.93-6.52l19.09-51.24s-1.54-5.55-2.24-8.06h51.8Z"/>
        <path class="cls-2" d="M293.22,47.05c-1.04,2.8-3.43,9.22-3.98,10.69h-5.6l-8.05,44.45h5.22c-.29.79-.6,1.62-.6,1.62-2.02,5.84-3.74,9.13-15.6,9.07h-7.6c.97-4.11,3.66-15.76,3.66-15.76l.45-1.95h-13.39s-8.22,16.14-9.01,17.71h-20.75c3.17-2.67,7.6-6.39,7.6-6.39l29.02-51.19s-1.28-5.78-1.83-8.24h40.47ZM265.85,59.54l-11.67,22.94-1.19,2.31h10.52l5.85-25.25h-3.51Z"/>
      </g>
    </g>
  </g>
</svg>