<?xml version="1.0" encoding="UTF-8"?>
<svg xmlns="http://www.w3.org/2000/svg" version="1.1" viewBox="0 0 792 612">
  <defs>
    <style>
      .cls-1 {
        fill: #0072ce;
      }

      .cls-2 {
        fill: #ee3e42;
      }

      .cls-3 {
        fill: #c8102e;
      }

      .cls-4 {
        fill: #003da5;
      }
    </style>
  </defs>
  <!-- Generator: Adobe Illustrator 28.6.0, SVG Export Plug-In . SVG Version: 1.2.0 Build 709)  -->
  <g>
    <g id="Layer_1">
      <g>
        <path class="cls-2" d="M241.44,174.53c.02.07.05.12.08.18.47-1.18.21-.75-.08-.18Z"/>
        <path class="cls-3" d="M568.49,117.91s-8.46,45.13-21.11,57.98c-5.21-22.25-52.46-64.27-152-63.9-99.54.35-141.84,34.13-153.88,62.73-.6,1.42-.41.49-.08-.18-7.64-10.55-13.28-35.94-12.33-59.44-55.47,96.84-17.01,173.99,7.79,218.62,20,36,70.27,101.1,151.38,175.86l7.07,6.52,7.1-6.5c54.62-49.99,124.23-125.35,155.78-186.97,30.82-60.2,46.95-126.68,10.28-204.72Z"/>
      </g>
      <path d="M570.23,150.59c-7.16,23.17-19.21,40.82-30.92,52.43,4.88-28.52-13.54-55.74-67.84-70.18,19.35,21.26,25.67,41.77,21.12,54.26-13.58-27.5-41.65-61.78-97.18-61.64-55.39.14-83.03,29.74-96.84,57.63-7.21-9.67-4.23-25.75,18.08-50.26-57.54,15.3-74.76,47.04-66.72,75.29.27.95.58,1.88.92,2.8-12.64-16.28-24.76-40.23-27.87-60.66-24.26,74.99-2.71,131.97,23.06,178.36,27.15,48.86,89.64,118.24,149.33,173.25,61.47-56.26,125.46-129.24,153.52-184.03,30.36-59.28,36.49-114.92,21.35-167.25Z"/>
      <g>
        <path class="cls-4" d="M309.61,332.04c-12.45,1.3-32.22-23.13-37.67-88.48-27.23-4.09-46.29-46.3-46.29-46.3-5.45,72.17,35.33,164.94,169.76,286.12-26.84-35.56-60.59-79.89-74.6-106.86-2.22-5.84-11.2-44.49-11.2-44.49Z"/>
        <path class="cls-4" d="M525.19,229.94c-5.45,103.47-42.07,103.39-42.07,103.39-3.07,15.51-4.46,34.38-12.45,45.36-19.09,23.56-48.42,69.12-75.25,104.68,143.01-127.51,176.82-232.94,170.24-293.09-7.47,13.59-22.2,31.62-40.46,39.65Z"/>
      </g>
      <polygon class="cls-4" points="402.29 346.02 402.29 296.08 414.86 332.8 402.29 346.02"/>
      <polygon class="cls-3" points="419.48 291.85 421.57 301.79 458.14 272.18 419.48 291.85"/>
      <polygon class="cls-3" points="374.28 291.85 372.18 301.79 335.61 272.18 374.28 291.85"/>
      <path class="cls-1" d="M468.34,203.82c2.1-.57,4.21-1.26,6.33-2.08-12.89-28.11-35.46-40.74-35.46-40.74,16.57,14.67,25.38,33.59,29.14,42.82Z"/>
      <polygon class="cls-4" points="370.51 271.8 380.21 281.92 381.43 241.23 370.51 271.8"/>
      <g>
        <path class="cls-4" d="M290.32,154.87c-62.44,42.24-1.22,82.03,31.22,85.09,14.74,1.4,18.09-2.26,20.81-8.57-19.25-1.43-98.55-21.42-52.03-76.52Z"/>
        <path class="cls-4" d="M346.96,233.44c.27,0,.09,0,0,0h0Z"/>
        <path class="cls-4" d="M346.92,233.44h.04-.04Z"/>
      </g>
      <path class="cls-1" d="M497.8,154.87c46.52,55.1-32.77,75.09-52.03,76.52,2.72,6.31,6.07,9.97,20.81,8.57,3.65-.34,7.66-1.16,11.82-2.38.04.36.09.72.12,1.08l-49.84,26.12,2.82,8.04,47.2-20.87-7.73,24.7s-37.65,48.96-42.38,83.8l8.35,2.56,6.98,13.08,13.96-17.45,10.13-19.6s-15.27,2.29-17.89,3.15c15.99-19.49,29.75-33.47,31.16-40.37l.93,12.03c17.1,12.07,27.96-67.85,27.96-67.85l-31.76,45.5c-.12-.26-.25-.53-.38-.78l13.16-41.82c-.31-5.23-1.17-10.27-2.44-15.11,30.11-13.24,58.72-45.29,9.04-78.91Z"/>
      <path class="cls-4" d="M414.62,357.86s5.67,1.07,13.98,2.58c4.73-34.83,42.38-83.8,42.38-83.8-32.28,17.45-56.36,81.22-56.36,81.22Z"/>
      <path class="cls-4" d="M443.94,376.08l-6.98-13.08-8.35-2.56,6.92,17.47-12.14-6.32-14.08-.2-3.8,10.5,15.04-2.64,1.14,33.89,29.67-33.63c9.92-10.12,12.81-23.28,16.67-40.5l-10.13,19.6-13.96,17.45Z"/>
      <polygon class="cls-4" points="431.51 272.82 428.68 264.77 419.79 269.43 409.72 241.23 410.93 281.92 431.51 272.82"/>
      <path d="M424.03,504.53l1.38,3.88,1.38-3.88h1.56v5.42h-1v-4.37l-1.49,4.37h-.89l-1.51-4.37v4.37h-1v-5.42h1.56ZM416.93,505.42v-.9h4.62v.9h-1.77v4.52h-1.08v-4.52h-1.77Z"/>
    </g>
  </g>
</svg>