<svg viewBox="0 0 269.6 158.6" xmlns="http://www.w3.org/2000/svg" width="2500" height="1471"><path clip-rule="evenodd" d="M0 0h269.6v158.6H0z" fill="#fefefe" fill-rule="evenodd"/><path d="M42.5 135.8c-.6 0-1.1-.2-1.6-.7s-.7-1.1-.7-1.8v-21.8c0-3.4.9-6 2.8-7.8s4.5-2.7 8-2.7c9.1 0 13.7 5.9 13.7 17.7 0 5.8-1.1 10-3.4 12.8s-5.8 4.2-10.5 4.2zm4.8-5.8h3.5c2.4 0 4.2-.9 5.2-2.8 1.1-1.9 1.6-4.9 1.6-9.1 0-4-.5-6.8-1.5-8.5s-2.7-2.5-5.1-2.5c-2.5 0-3.8.9-3.8 2.8.1 0 .1 20.1.1 20.1zm34 6.2c-3.3 0-5.8-.5-7.6-1.6s-3.1-2.6-3.9-4.4c-.8-1.9-1.1-4.1-1.1-6.5 0-4.5 1-7.7 3-9.7s4.7-3 8-3c2 0 3.8.3 5.4 1s2.8 1.7 3.7 2.9 1.3 2.8 1.3 4.6c0 5.2-3.7 7.8-11.1 7.8h-3c.3 1 .7 1.8 1.3 2.4s1.7.9 3.2.9c.8 0 1.5 0 2.1-.1l1.5-.3s1-.1 1.6-.1c.9 0 1.6.2 2.1.5s.8.9.8 1.9c0 1.3-.6 2.3-1.7 3-1.2.3-3.1.7-5.6.7zm-5.6-12.5c.3-.4.6-.6.9-.7s.8-.2 1.5-.2c1.9 0 3.2-.2 4-.6.7-.4 1.1-1.1 1.1-2 0-1.2-.3-2.2-1-2.9s-1.5-1-2.6-1c-1.2 0-2.1.5-2.8 1.5-.8 1.1-1.1 3-1.1 5.9zm27 12.5c-6.1 0-9.2-1.4-9.2-4.1 0-.8.2-1.5.7-2s1.1-.7 1.8-.7c.3 0 .6 0 1 .1l1.8.6c.4.1.9.3 1.6.4s1.3.2 1.9.2c1.2 0 2-.1 2.5-.4s.7-.8.7-1.5c0-.6-.1-1-.4-1.3s-.8-.6-1.7-.9c-.8-.3-2.2-.7-4-1.2-1.6-.5-2.9-1.3-3.9-2.5s-1.5-2.7-1.5-4.4c0-2.5.9-4.4 2.7-5.7s4.2-2 7.4-2c2.3 0 4.2.3 5.5 1s2 1.6 2 2.8c0 .8-.2 1.4-.7 2-.5.5-1.1.8-1.9.8-.3 0-.7 0-1.1-.1s-1-.2-1.6-.4c-.5-.2-.9-.3-1.4-.4s-1-.1-1.6-.1c-1.6 0-2.3.6-2.3 1.7 0 .7.3 1.2.9 1.6s1.8.9 3.6 1.4c2.4.7 4.2 1.7 5.3 2.9s1.7 2.8 1.7 4.7c0 2.3-.9 4.1-2.6 5.5-1.7 1.3-4.1 2-7.2 2zm26 0c-3.3 0-5.8-.5-7.6-1.6s-3.1-2.6-3.9-4.4c-.8-1.9-1.1-4.1-1.1-6.5 0-4.5 1-7.7 3-9.7s4.7-3 8-3c2 0 3.8.3 5.4 1s2.8 1.7 3.7 2.9 1.3 2.8 1.3 4.6c0 5.2-3.7 7.8-11.1 7.8h-2.8c.3 1 .7 1.8 1.3 2.4s1.7.9 3.2.9c.8 0 1.5 0 2.1-.1l1.5-.3c.5-.1 1-.1 1.6-.1.9 0 1.6.2 2.1.5s.8.9.8 1.9c0 1.3-.6 2.3-1.7 3-1.5.3-3.3.7-5.8.7zm-5.7-12.5c.3-.4.6-.6.9-.7s.8-.2 1.5-.2c1.9 0 3.2-.2 4-.6.7-.4 1.1-1.1 1.1-2 0-1.2-.3-2.2-1-2.9s-1.5-1-2.6-1c-1.2 0-2.1.5-2.8 1.5-.7 1.1-1.1 3-1.1 5.9zm22.1 12.5c-2.3 0-3.5-1.1-3.5-3.3v-11.7c0-3.1 1-5.6 3-7.4s4.6-2.7 7.9-2.7 5.9.9 7.9 2.7 3 4.3 3 7.4v11.7c0 2.2-1.2 3.3-3.5 3.3s-3.5-1.1-3.5-3.3v-11.3c0-1.5-.3-2.7-1-3.5s-1.6-1.2-2.9-1.2-2.2.4-2.9 1.2-1 2-1 3.5v11.3c0 2.1-1.2 3.3-3.5 3.3zm30.6-3.3c0 2.2-1.1 3.3-3.4 3.3-1.1 0-2-.3-2.6-.8s-1-1.4-1-2.4v-30.5c0-2.5 1.2-3.8 3.6-3.8 2.3 0 3.5 1.3 3.5 3.8v5.2c0 .9-.1 1.8-.3 2.6s-.5 1.7-1 2.6c.6-.7 1.3-1.2 2.2-1.5s2-.4 3.2-.4c2.1 0 4 .4 5.6 1.3 1.6.8 2.8 2 3.7 3.5s1.3 3.3 1.3 5.4v11.7c0 2.2-1.1 3.3-3.4 3.3-1.1 0-2-.3-2.6-.8s-1-1.4-1-2.4v-11.4c0-1.5-.3-2.7-1.1-3.5s-1.7-1.2-2.9-1.2-2.1.4-2.8 1.2-1 1.9-1 3.4zm28.9 3.3c-3.3 0-5.8-.8-7.6-2.3s-2.7-3.5-2.7-5.9c0-2.8 1.2-4.9 3.6-6.2s5.9-1.7 10.5-1.3c-.2-1.5-.7-2.5-1.4-3.1-.7-.5-1.6-.8-2.6-.8-.8 0-1.5 0-2 .1l-1.5.3c-.5.1-1 .1-1.7.1-.9 0-1.6-.2-2.1-.5s-.8-.9-.8-1.9c0-1.3.6-2.3 1.7-3 1.2-.6 3-1 5.5-1 4 0 6.9 1.1 8.8 3.4s2.9 5.3 2.9 9.1c0 4.4-.8 7.6-2.4 9.6-1.5 2.3-4.3 3.4-8.2 3.4zm-3.3-8.2c0 1.9 1.3 2.8 3.8 2.8.8 0 1.4-.1 1.9-.4s.8-.9 1-1.8.4-2.2.5-4c-.2.2-.4.3-.6.3-.3.1-.5.1-.8.1-2.1 0-3.6.2-4.5.6-.9.5-1.3 1.3-1.3 2.4zm22.1 8.2c-1.3 0-2.2-.3-2.7-.9s-.8-1.4-.8-2.4v-18.6c0-1 .3-1.9.8-2.4.5-.6 1.4-.9 2.7-.9s2.2.3 2.7.9.8 1.4.8 2.4v18.6c0 1-.3 1.8-.8 2.4s-1.4.9-2.7.9zm-5.6-28.6c-.4 0-.8-.2-1.2-.5s-.6-.7-.6-1.1c0-.3.1-.5.2-.8.2-.3.5-.5.9-.7.1-.1.5-.3 1.1-.7s1.3-.8 2.1-1.4c.8-.5 1.7-1.1 2.6-1.7s1.7-1.1 2.4-1.7c.3-.2.5-.3.7-.3.2-.1.4-.1.6-.1.8 0 1.4.3 1.9 1s.8 1.4.8 2.2c0 .6-.2 1.2-.6 1.6-.4.5-1 .9-2 1.4-.6.3-1.3.6-2.2.9s-1.8.6-2.8.9-1.8.5-2.6.7c-.5.2-1 .3-1.3.3zM108.9 84V44.7c0-7.2 2-12.7 5.9-16.5s9.6-5.7 17-5.7c19.4 0 29.1 12.6 29.1 37.7 0 12.3-2.4 21.3-7.3 27.3-4.8 5.9-12.3 8.9-22.3 8.9h-14.1l6.7-12.3h7.4c5.1 0 8.8-2 11.2-6 2.3-4 3.5-10.4 3.5-19.3 0-8.4-1.1-14.5-3.2-18-2.1-3.6-5.7-5.3-10.7-5.3-5.4 0-8.1 2-8.1 5.9V84z" fill="#373435"/><g clip-rule="evenodd" fill-rule="evenodd"><path d="M114 94.9L108.9 84h14.9l-7.5 15.8 2.3-4.9z" fill="#fed164"/><path d="M114 94.9L108.9 84h4.4l2.2 10.9z" fill="#e19a52"/><path d="M118.6 94.9l5.2-10.9h-4.4l-2.3 10.9z" fill="#fcb658"/><path d="M116.3 99.8l-2.3-4.9h4.6z" fill="#373435"/></g></svg>