<svg height="137pt" viewBox="0 0 141 137" width="188" xmlns="http://www.w3.org/2000/svg"><path d="M0 68.5V137h141V0H0zm67.3-24.9C76.6 48.3 78 52 78 72c0 19.7-1.4 23.6-10.2 28.1-3.3 1.7-6.1 1.9-26.8 1.9H18V42h23c19.3 0 23.6.3 26.3 1.6zm48.6 1.5c8.2 5.9 9.6 17.5 2.9 24.6l-2.1 2.3 2.1 2.2c6.5 7.1 5.1 19.2-3 25-3.2 2.2-4.2 2.3-23.3 2.6-13.8.1-19.5-.1-18.3-.8.9-.6 2.6-2.6 3.8-4.4l2.1-3.5 14.4-.3c13.4-.3 14.6-.5 16.7-2.5 3.1-3.1 3-8.9-.1-11.4-2-1.7-4.1-1.9-16.2-1.9H81V67h13.9c15.5 0 17.6-.7 18.7-6.7.5-2.7.1-3.7-2.4-6.3l-3-3h-28L78 47.5c-1.2-1.9-2.9-3.9-3.8-4.5-1.2-.6 4.7-.9 17.9-1h19.6z"/><path d="M27 72v21h17c18.7 0 22.2-.8 24-5.6.6-1.4 1-8.4 1-15.5 0-14.3-1.1-18.2-5.6-19.9-1.4-.6-10.2-1-19.5-1H27z"/></svg>