<svg height="200pt" viewBox="20 6.5 159.6 183" width="200pt" xmlns="http://www.w3.org/2000/svg"><path d="m108.3 8.2c-.6.7-1.2 2-1.6 2.9-.5 1.5-1 1.5-5.9.2-7.4-2-18.1-1.2-23.8 1.7-2.5 1.3-7.4 2.9-10.9 3.7-3.6.7-8.5 2.4-10.9 3.6-10.1 5-18.8 17.8-19.9 29.4-.3 3.2-1.4 7.5-2.4 9.5-1.1 2.2-1.9 5.8-1.9 8.8 0 3.5-.4 5-1.3 5-3.5 0-9.7 10-9.7 15.6 0 4.9 2.2 10.2 5.7 13.6 2.9 2.8 4.1 3.3 8.1 3.2 2.6 0 5.6-.4 6.7-.8 1.7-.6 2.6.2 5.3 4.9 5.8 9.7 13.7 16.2 26 21.1l2.2.9-3.6 5.3c-5.7 8.5-10.2 18.2-11.4 24.7-.6 3.3-1 10.9-.8 17l.3 11h80l.7-8.5c1.6-17.1-1.3-28.8-10.3-42.6-4.3-6.7-4.8-8.4-2.1-8.4 5.6 0 19.8-11.9 24.8-20.8 2.4-4.4 3.2-5.2 4.9-4.6 4.1 1.5 10.9.9 13.7-1.1 9.4-6.8 8.6-24.5-1.4-29.7-3.5-1.8-3.5-2-4-9.1-.9-12.5-8.7-25.8-19-32.4-2.1-1.3-3.8-3-3.8-3.7 0-2.4-8.9-9.4-14.7-11.6-3-1.1-8.2-2.3-11.4-2.7-4.9-.5-5.9-.9-5.9-2.4 0-1.1.5-1.9 1-1.9.6 0 1-.7 1-1.5 0-1.8-2.4-2-3.7-.3zm1.1 35.4c.9.3 1.6 1.5 1.6 2.5 0 2.5 6.9 9.3 12.1 12 2.4 1.2 8 3.4 12.7 4.9 9.4 3.2 15.4 6.9 17.1 10.6 1.8 4.1 1.4 18.4-.9 25.7-4 12.8-15 23.7-27.9 27.8-9 2.7-42 2.8-50.8.1-7-2.2-12.8-5.8-17.8-10.9-8.1-8.2-11.4-15.8-12.2-28.3-.7-10.1.8-13.8 7.7-20.5 3.9-3.8 4.2-3.9 5.5-2.1 1.3 1.7 1.6 1.7 5.8-1.3 3.5-2.6 5.5-3.2 9.9-3.4 5.1-.2 5.8.1 9.6 3.5 4.1 3.7 8.8 5.5 15.2 5.8 6.1.3 6 .4 4.5-4.1-2.1-6-2-6.2 2.4-5.5 2.6.4 4.2.2 4.7-.6.4-.6.2-1.4-.5-1.6-2.6-.9-6.9-5.3-7.5-7.8-1.3-5.2 3.5-8.8 8.8-6.8zm-72.6 32c1.9.6 2.2 1.3 2.2 6.3 0 3.2.5 8.4 1.1 11.6 1 5.3.9 6-.7 7.2-3.3 2.4-8.7 1.6-12-1.8-2.6-2.7-2.9-3.7-2.9-9.9 0-5.9.3-7.2 2.5-9.5 3.6-3.9 6.1-4.9 9.8-3.9zm129.1.4c1.9 0 6.2 5.6 7.1 9.1 2.2 8.1-3.1 16.9-10 16.9-5.7 0-7.1-1.6-6-7 .5-2.5.9-7.6 1-11.3 0-6.1.2-6.9 2.3-7.7 1.2-.5 2.8-.7 3.5-.4.8.2 1.7.4 2.1.4zm-49.6 66.4c6.3 12.6 7.7 18.6 7.7 32.3v11.3h-51v-7.8c.1-13.8 1.6-20.4 7.7-33.3l5.6-11.9h25.3z"/><path d="m66.8 84.7c-.2.5-.4 2.6-.4 4.8.1 3.6.4 4 2.7 4.3 4.7.5 7.9-5.4 4.7-8.6-1.3-1.3-6.5-1.6-7-.5zm56.1-.5c0 .2-.2 2.2-.4 4.6-.3 3.8-.1 4.3 2.2 4.9 3.4.8 5.7-.8 6.1-4.1.4-3.6-1.4-5.6-4.9-5.6-1.6 0-2.9.1-3 .2zm-69.7 10.8c-4 .9-5.1 1.9-5.7 4.7-.6 3.5 5.2 5.6 14.3 5.1 4.8-.2 7.7-.8 8-1.6.2-.7.9-1.2 1.6-1.2 1.4 0 1.4-3.6 0-5-2.1-2.1-13.1-3.3-18.2-2zm81.6-.4c-.4.4-2.2.7-4 .6-1.8 0-4.3.6-5.5 1.4-2.5 1.6-3.1 5.4-.9 5.4.8 0 1.6.5 1.8 1.2.6 1.7 15.4 1.7 19.4 0 1.7-.7 3.1-2.1 3.1-3 0-2.1-3.4-5.2-5.7-5.2-1 0-3-.3-4.6-.6s-3.2-.2-3.6.2zm-34.1 2.5c-1 .6-3.5.8-5.8.4-5-.9-5.3 1-.4 3.1 3.1 1.3 3.9 1.2 7.1-.1 2-.8 3.4-2 3.2-2.7-.6-1.7-2-1.9-4.1-.7z"/></svg>