<svg viewBox="252.73 179.99 354.72 574.0900000000001" xmlns="http://www.w3.org/2000/svg" width="647" height="2500"><g fill="#586472"><path d="M497.78 314l69.33-44.89L530 222.44s-49.11 24-49.11 62.22c0 19.33 16.89 29.33 16.89 29.33zM322.33 462.33L466 362s13 20 10.33 43-12 63.67-88.67 141z"/><path d="M252.73 358.67S323.11 324 390.89 324c43.11 0 61.56 20.89 61.56 20.89l-197.56 134L350 618.45s132.33-102.78 161.67-235.78c0 0 49.9 9.67 95.78-25.33v396.74H252.73v-395.4zm23.6 300.72h8s7.61.02 7.61-15.5-6.89-16.17-6.89-16.17h-8.72zm4.64-27.79h2.37s3.66.92 3.66 12.12-3.94 11.62-3.94 11.62h-2.09zm47.61 0h3v27.79h4.5v-31.67h-7.5zm99 0h3v27.79h4.5v-31.67h-7.5zm-41.16 4.15l4.17-1.75s-.92-6.67-8-6.67-7.5 8.42-7.5 8.42v15.75s.33 8.42 7.75 8.42 7.42-8.17 7.42-8.17l.33-8.92h-7.75v3.83h3.67l-.25 5.58s-.33 3.46-3.46 3.46-3.29-4.38-3.29-4.38v-15.33s0-4.4 3.33-4.4 3.58 4.15 3.58 4.15zm85-3.87h4.92v27.51h4.5v-27.56h4.75v-4.11h-14.17v4.15zm52.83 27.51l1.25-5.97h5.92l1 5.97h4.67l-6.83-31.67h-3.5l-6.67 31.67h4.17zm1.83-9.72l2.5-14.5 2.33 14.5zm48.25 9.72h11.5v-3.72h-6.75v-27.94h-4.75v31.67zm-298 7.17v64.67h44.33l5.67-25.89 5.11 25.89h16.22l-9-32.33 6.33-22.67h9v55h15.33v-54.78h9.78v54.78h15.56V701.9h2.72s4.61 0 4.61 5.89v12.22s-.17 11.22 7 11.22h58.61v-53.78l8.44 53.78h13.5l9.17-53.89v53.89h13.5v-64.89h-21.67l-7.06 46.39-5.67-46.39h-22.33v54.94H436.7v-20.89h15.67v-10.17H436.7v-13.89h15.83v-10h-31.22v63.5s-3.94-1.67-3.94-10.28v-13.72s-.06-9.39-8.89-9.39h-2.11V696s11.33.22 11.33-14.94-14.67-14.72-14.67-14.72h-69.5l-4.78 25.22h-.44l-4.94-25.22-47.06.22zm39.56 29.77L307.45 728v-6.61h-16.28v-21.06h15.61v-9.78h-15.61v-14.28h15.94v-8.5zm78.39-20.39h4.17s3.67-.22 3.67 7.28-2.61 9.11-4.89 9.11h-2.94v-16.39zm120.66-9.61v64.89h31.78v-9.94H530.5v-20.89h15.72v-10.06h-15.83v-13.94h16v-10.06h-31.44zm32.23 39.39v12.61s-.56 14.61 18.61 14.61 20.17-12.44 20.17-18.83-.83-8.61-2.94-11.06-19.17-18.33-19.17-18.33-1.33-.89-1.33-4.72 1.66-4.94 4.05-4.94 3.72 1.61 3.72 3.61v10.78h15.28v-11.06s.94-13.5-18.67-13.5-19.72 12-19.72 17.67.86 8.14 2.89 10.17 18.56 17.78 18.56 17.78 1.61 1.72 1.61 5.28-.28 6.06-3.67 6.06-4.05-1.94-4.05-4.11v-11.89l-15.33-.11z"/><path d="M252.73 327.67V179.99h354.72v155.68s-29.9 19.22-50.56 19.22-34.44-14-45.11-25.11L606 260l-58.89-70.22s-82.22 37.56-99.56 103.56c0 0-77.2-13.56-194.82 34.33z"/></g></svg>