<svg height="2295" viewBox="0 -5.91 144.75 126.96" width="2500" xmlns="http://www.w3.org/2000/svg"><path d="m84.39 21.01c4.54-5.78 19.67-5.24 19.67 3.42h18.34c.32-24.04-31.56-30.34-48.02-18.89 3.62 3.41 5.76 7.51 7.8 11.45.72 1.39 1.43 2.74 2.21 4.01zm-45.11-2.19v40.35h9.17c11.41 0 17.4-9.08 17.99-18.62 3.34 4.18 8.37 7.83 17.4 9.66-3.85 14.03-14.03 23.17-27.38 25.78-2.68.48-5.27.74-8.01.75h-28.48v-75.5h28.48c4.72.02 9.63.46 14.16 1.89 19 6.01 13.76 25.03 30.48 28.44 14.66 2.88 31.68 1.7 31.68 23.07 0 23.66-34.23 29.96-51.43 17.84 4.91-3.74 8.76-8.62 11.42-14.24 6 4.73 21.23 3.4 21.23-3.71 0-6.53-10-6.58-14.59-6.97-26.42-2.12-24.15-17.43-31.45-24.78-2.97-3.11-7.38-3.96-11.51-3.96h-9.17z" fill="#3e679b" fill-rule="evenodd"/><path d="m0 105.45v-13.4h5.86c1.46 0 2.73.28 3.83.84s1.95 1.34 2.57 2.34.92 2.17.92 3.52-.31 2.51-.92 3.51-1.47 1.78-2.57 2.35c-1.1.56-2.37.84-3.83.84zm2.49-2.1h3.26c1.01 0 1.88-.19 2.61-.57s1.3-.92 1.7-1.61.6-1.49.6-2.41-.2-1.74-.6-2.42-.97-1.22-1.7-1.6-1.61-.57-2.61-.57h-3.26v9.19zm14.3-9.81c-.45 0-.81-.14-1.1-.42s-.43-.62-.43-1.01.14-.75.43-1.02.65-.41 1.1-.41.81.13 1.1.39.43.59.43.99c0 .42-.14.78-.42 1.06s-.65.43-1.11.43zm-1.2 11.91v-10.23h2.39v10.23zm9.86-.46c-.97 0-1.85-.21-2.63-.62a4.84 4.84 0 0 1 -1.86-1.73c-.45-.74-.68-1.61-.68-2.6s.23-1.84.68-2.58 1.07-1.32 1.86-1.72c.79-.41 1.66-.61 2.63-.61.87 0 1.65.17 2.34.52s1.24.88 1.66 1.61.62 1.66.62 2.8-.21 2.07-.62 2.8c-.42.73-.97 1.28-1.66 1.63s-1.47.53-2.34.53zm.3 4.31c-.94 0-1.87-.12-2.77-.37s-1.64-.61-2.21-1.08l1.07-1.8c.45.37 1.01.67 1.69.89s1.38.34 2.08.34c1.12 0 1.95-.26 2.47-.78s.78-1.29.78-2.33v-1.82l.19-2.32-.08-2.32v-2.49h2.28v8.67c0 1.85-.47 3.21-1.42 4.09-.94.87-2.31 1.31-4.1 1.31zm.06-6.33c.6 0 1.14-.12 1.61-.37s.84-.59 1.1-1.03.39-.95.39-1.52-.13-1.08-.39-1.52-.63-.78-1.1-1.01c-.47-.24-1.01-.35-1.61-.35s-1.14.12-1.62.35-.85.57-1.11 1.01-.39.95-.39 1.52.13 1.08.39 1.52.63.79 1.11 1.03 1.02.37 1.62.37zm9.81-9.43c-.45 0-.81-.14-1.1-.42s-.43-.62-.43-1.01.14-.75.43-1.02.65-.41 1.1-.41.81.13 1.1.39.43.59.43.99c0 .42-.14.78-.42 1.06s-.65.43-1.11.43zm-1.21 11.91v-10.23h2.39v10.23zm4.17-8.23v-1.92h6.82v1.92zm5.21 8.37c-1.12 0-1.99-.29-2.6-.87s-.92-1.44-.92-2.58v-9.17h2.39v9.12c0 .49.12.86.37 1.13s.6.4 1.04.4c.54 0 .98-.14 1.34-.42l.67 1.7c-.28.23-.63.4-1.03.52-.41.11-.83.17-1.26.17zm7.36 0c-.77 0-1.44-.13-2.01-.39s-1.02-.62-1.33-1.09-.47-.99-.47-1.58.14-1.09.41-1.55.72-.82 1.35-1.09 1.46-.4 2.49-.4h2.97v1.59h-2.8c-.82 0-1.37.13-1.65.39s-.42.58-.42.97c0 .43.17.78.52 1.03.34.26.82.38 1.44.38s1.11-.13 1.58-.4.8-.66 1.01-1.19l.4 1.44c-.23.6-.64 1.07-1.23 1.4s-1.34.5-2.25.5zm3.21-.14v-2.07l-.13-.44v-3.62c0-.7-.21-1.25-.63-1.64s-1.06-.58-1.91-.58c-.57 0-1.14.09-1.69.27s-1.02.43-1.41.75l-.94-1.74c.55-.42 1.2-.74 1.96-.95s1.55-.32 2.36-.32c1.48 0 2.63.35 3.44 1.06s1.22 1.8 1.22 3.28v5.99h-2.26zm5.33 0v-14.21h2.39v14.21zm15.2.2c-1.05 0-2.05-.15-3.01-.45s-1.72-.69-2.28-1.16l.86-1.93c.54.42 1.2.77 1.99 1.05s1.6.42 2.43.42c.7 0 1.27-.08 1.7-.23s.75-.36.96-.62c.2-.26.31-.56.31-.89 0-.41-.15-.74-.44-.99s-.67-.45-1.14-.59c-.47-.15-.98-.28-1.55-.41s-1.14-.28-1.7-.45c-.57-.17-1.08-.4-1.55-.67s-.85-.64-1.14-1.1-.44-1.05-.44-1.76.2-1.39.58-2c.39-.61.98-1.09 1.78-1.46.8-.36 1.81-.55 3.04-.55.8 0 1.6.1 2.39.31.79.2 1.48.5 2.07.88l-.79 1.93c-.6-.36-1.22-.62-1.86-.79s-1.25-.26-1.84-.26c-.69 0-1.25.08-1.67.25-.43.17-.74.38-.94.65s-.3.57-.3.92c0 .41.14.74.43.99s.66.44 1.13.58.99.28 1.56.41 1.15.28 1.71.45c.57.17 1.08.38 1.55.65s.84.63 1.13 1.09.43 1.04.43 1.74-.19 1.38-.58 1.98-.99 1.09-1.79 1.46c-.8.36-1.82.55-3.04.55zm12.35-.06c-1.07 0-2.03-.23-2.86-.68s-1.49-1.08-1.96-1.87-.71-1.69-.71-2.7.24-1.92.71-2.71 1.13-1.4 1.96-1.85c.84-.45 1.79-.67 2.86-.67 1 0 1.87.2 2.63.6s1.34.99 1.73 1.77l-1.84 1.07c-.31-.49-.68-.84-1.12-1.07s-.92-.34-1.43-.34c-.59 0-1.12.13-1.59.38-.47.26-.84.62-1.11 1.1s-.4 1.05-.4 1.71.13 1.24.4 1.71c.27.48.64.85 1.11 1.1s1 .38 1.59.38c.51 0 .99-.12 1.43-.34s.81-.59 1.12-1.07l1.84 1.07c-.4.77-.97 1.36-1.73 1.77s-1.64.62-2.63.62zm7.54-12.05c-.45 0-.81-.14-1.1-.42s-.43-.62-.43-1.01.14-.75.43-1.02.65-.41 1.1-.41.81.13 1.1.39.43.59.43.99c0 .42-.14.78-.42 1.06-.28.29-.65.43-1.11.43zm-1.2 11.91v-10.23h2.39v10.23zm10.34.14c-1.14 0-2.13-.23-2.98-.68s-1.51-1.08-1.97-1.87c-.47-.79-.7-1.69-.7-2.7s.23-1.92.68-2.71 1.08-1.4 1.88-1.85 1.71-.67 2.73-.67 1.88.22 2.66.65 1.39 1.05 1.84 1.84.67 1.72.67 2.8v.34c0 .13-.02.25-.03.36h-8.52v-1.59h7.26l-.94.5c.01-.59-.11-1.1-.36-1.55s-.6-.8-1.04-1.05-.95-.38-1.52-.38-1.1.13-1.54.38c-.44.26-.79.61-1.03 1.06s-.37.99-.37 1.6v.38c0 .61.14 1.16.42 1.63s.68.84 1.19 1.09c.51.26 1.1.38 1.76.38.58 0 1.09-.09 1.55-.27s.87-.46 1.23-.84l1.28 1.47c-.46.54-1.04.95-1.73 1.24-.7.29-1.49.43-2.38.43zm12.9-10.48c.82 0 1.55.16 2.19.48s1.15.81 1.52 1.46c.37.66.56 1.5.56 2.54v5.86h-2.39v-5.55c0-.91-.21-1.58-.64-2.03s-1.02-.67-1.79-.67c-.56 0-1.06.11-1.49.34s-.77.57-1 1.02c-.24.45-.35 1.02-.35 1.71v5.17h-2.39v-10.23h2.28v2.76l-.4-.84c.36-.65.88-1.15 1.56-1.5s1.47-.53 2.36-.53zm12.03 10.48c-1.07 0-2.03-.23-2.86-.68s-1.49-1.08-1.96-1.87-.71-1.69-.71-2.7.24-1.92.71-2.71 1.13-1.4 1.96-1.85c.84-.45 1.79-.67 2.86-.67 1 0 1.87.2 2.63.6s1.34.99 1.73 1.77l-1.84 1.07c-.31-.49-.68-.84-1.12-1.07s-.92-.34-1.43-.34c-.59 0-1.12.13-1.59.38-.47.26-.84.62-1.11 1.1s-.4 1.05-.4 1.71.13 1.24.4 1.71c.27.48.64.85 1.11 1.1s1 .38 1.59.38c.51 0 .99-.12 1.43-.34s.81-.59 1.12-1.07l1.84 1.07c-.4.77-.97 1.36-1.73 1.77s-1.64.62-2.63.62zm11.09 0c-1.14 0-2.13-.23-2.98-.68s-1.51-1.08-1.97-1.87c-.47-.79-.7-1.69-.7-2.7s.23-1.92.68-2.71 1.08-1.4 1.88-1.85 1.71-.67 2.73-.67 1.88.22 2.66.65 1.39 1.05 1.84 1.84.67 1.72.67 2.8v.34c0 .13-.02.25-.03.36h-8.52v-1.59h7.26l-.94.5c.01-.59-.11-1.1-.36-1.55s-.6-.8-1.04-1.05-.95-.38-1.52-.38-1.1.13-1.54.38c-.44.26-.79.61-1.03 1.06s-.37.99-.37 1.6v.38c0 .61.14 1.16.42 1.63s.68.84 1.19 1.09c.51.26 1.1.38 1.76.38.58 0 1.09-.09 1.55-.27s.87-.46 1.23-.84l1.28 1.47c-.46.54-1.04.95-1.73 1.24-.7.29-1.49.43-2.38.43zm-117.37 13.74-1.69-4.55h.78l1.5 4.12h-.37l1.56-4.12h.7l1.53 4.12h-.36l1.54-4.12h.74l-1.7 4.55h-.79l-1.43-3.76h.24l-1.45 3.76h-.79zm8.66.06c-.49 0-.92-.1-1.28-.3-.37-.2-.66-.48-.86-.83s-.3-.75-.3-1.2.1-.85.3-1.2.47-.62.82-.82.74-.3 1.17-.3.83.1 1.17.29.6.47.79.82.29.76.29 1.23v.12s0 .09-.01.13h-3.87v-.59h3.44l-.33.21c0-.29-.05-.55-.18-.78s-.3-.41-.52-.54-.48-.19-.77-.19-.54.06-.76.19-.4.31-.52.54c-.13.23-.19.5-.19.79v.14c0 .3.07.57.21.81s.34.42.59.55.54.2.87.2c.27 0 .51-.05.73-.14s.41-.23.58-.41l.46.53c-.21.24-.46.42-.77.55s-.65.19-1.03.19zm3.23-.06v-6.37h.82v3.03l-.09 1.06.05 1.06v1.23h-.79zm2.41.06c-.39 0-.74-.09-1.05-.26-.31-.18-.56-.43-.74-.78-.18-.34-.27-.77-.27-1.29s.09-.94.28-1.29.44-.6.75-.77.66-.26 1.03-.26c.45 0 .84.1 1.19.29.34.19.62.46.82.81s.3.75.3 1.21-.1.87-.3 1.22-.47.62-.82.82c-.34.2-.74.29-1.19.29zm-.07-.73c.29 0 .55-.07.79-.2.23-.13.42-.32.55-.56s.2-.52.2-.85-.07-.61-.2-.85-.32-.42-.55-.55-.49-.2-.79-.2-.55.07-.78.2-.42.32-.55.55c-.13.24-.2.52-.2.85s.07.6.2.85c.13.24.32.43.55.56s.49.2.78.2zm5.17-3.2v-.68h2.9v.68zm2.22 3.93c-.46 0-.81-.12-1.06-.37s-.38-.6-.38-1.06v-4.17h.82v4.14c0 .25.06.44.19.57.12.13.3.2.53.2.26 0 .47-.07.64-.21l.26.59c-.13.11-.28.19-.45.24s-.36.08-.55.08zm3.86 0c-.49 0-.92-.1-1.28-.3-.37-.2-.66-.48-.86-.83s-.3-.75-.3-1.2.1-.85.3-1.2.47-.62.82-.82.74-.3 1.17-.3.83.1 1.17.29.6.47.79.82.29.76.29 1.23v.12s0 .09-.01.13h-3.87v-.59h3.44l-.33.21c0-.29-.05-.55-.18-.78s-.3-.41-.52-.54-.48-.19-.77-.19-.54.06-.76.19-.4.31-.52.54c-.13.23-.19.5-.19.79v.14c0 .3.07.57.21.81s.34.42.59.55.54.2.87.2c.27 0 .51-.05.73-.14s.41-.23.58-.41l.46.53c-.21.24-.46.42-.77.55s-.65.19-1.03.19zm5.22 0c-.46 0-.88-.1-1.24-.3s-.65-.48-.85-.83c-.21-.35-.31-.75-.31-1.2s.1-.85.31-1.2.49-.62.85-.82.78-.3 1.24-.3c.41 0 .78.08 1.1.24s.57.41.75.73l-.63.4c-.15-.22-.33-.39-.55-.49a1.49 1.49 0 0 0 -.69-.16c-.3 0-.56.07-.8.2s-.42.32-.56.55c-.14.24-.21.52-.21.85s.07.61.21.85.32.43.56.56c.23.13.5.2.8.2a1.46 1.46 0 0 0 1.24-.65l.63.4c-.18.31-.43.56-.75.73s-.69.25-1.1.25zm5.29-4.65c.37 0 .7.07.98.21s.51.36.67.65.24.66.24 1.11v2.62h-.82v-2.53c0-.44-.11-.77-.32-1s-.52-.33-.91-.33c-.29 0-.55.06-.76.17-.22.11-.38.28-.5.51-.12.22-.18.5-.18.83v2.34h-.82v-6.37h.82v3.05l-.16-.33c.15-.3.38-.53.69-.7s.67-.25 1.08-.25zm5.84 0c.37 0 .7.07.98.21s.51.36.67.65.24.66.24 1.11v2.62h-.82v-2.53c0-.44-.11-.77-.32-1s-.52-.33-.91-.33c-.29 0-.55.06-.76.17-.22.11-.38.28-.5.51-.12.22-.18.5-.18.83v2.34h-.83v-4.55h.79v1.23l-.13-.33c.15-.3.38-.53.69-.7s.67-.25 1.08-.25zm5.37 4.65c-.46 0-.87-.1-1.22-.3-.36-.2-.64-.48-.84-.83s-.31-.75-.31-1.2.1-.85.31-1.2.49-.62.84-.82.76-.3 1.22-.3.86.1 1.21.3c.36.2.64.47.84.82s.3.75.3 1.21-.1.85-.3 1.2-.48.62-.84.83c-.36.2-.76.3-1.21.3zm0-.73c.29 0 .55-.07.79-.2.23-.13.41-.32.55-.56.13-.24.2-.52.2-.85s-.07-.61-.2-.85-.31-.42-.55-.55c-.23-.13-.49-.2-.79-.2s-.55.07-.78.2-.41.32-.55.55c-.14.24-.21.52-.21.85s.07.6.21.85c.14.24.32.43.55.56s.49.2.78.2zm3.51.67v-6.37h.83v6.37zm4.34.06c-.46 0-.87-.1-1.22-.3-.36-.2-.64-.48-.84-.83s-.31-.75-.31-1.2.1-.85.31-1.2.49-.62.84-.82.76-.3 1.22-.3.86.1 1.21.3c.36.2.64.47.84.82s.3.75.3 1.21-.1.85-.3 1.2-.48.62-.84.83c-.36.2-.76.3-1.21.3zm0-.73c.29 0 .55-.07.79-.2.23-.13.41-.32.55-.56.13-.24.2-.52.2-.85s-.07-.61-.2-.85-.31-.42-.55-.55c-.23-.13-.49-.2-.79-.2s-.55.07-.78.2-.41.32-.55.55c-.14.24-.21.52-.21.85s.07.6.21.85c.14.24.32.43.55.56s.49.2.78.2zm5.4.49c-.44 0-.83-.09-1.18-.28s-.62-.44-.82-.78c-.2-.33-.31-.72-.31-1.15s.1-.83.31-1.16c.2-.33.48-.58.82-.77s.74-.27 1.18-.27c.39 0 .74.08 1.07.24.32.16.58.4.77.73s.29.74.29 1.24-.1.9-.29 1.23-.45.57-.77.73-.68.25-1.07.25zm.1 1.9c-.42 0-.82-.06-1.22-.18-.39-.12-.71-.29-.96-.5l.39-.64c.21.18.47.33.78.43.31.11.63.16.97.16.54 0 .93-.13 1.19-.38s.38-.63.38-1.15v-.96l.09-.9-.04-.91v-1.25h.78v3.93c0 .8-.2 1.39-.6 1.77s-.99.57-1.76.57zm-.01-2.63c.3 0 .57-.06.81-.19.23-.13.42-.3.55-.52s.2-.48.2-.77-.07-.55-.2-.77-.32-.4-.55-.52c-.24-.12-.5-.18-.81-.18s-.57.06-.81.18-.42.3-.56.52c-.13.22-.2.48-.2.77s.07.55.2.77.32.4.56.52c.24.13.51.19.81.19zm4.35-4.51c-.16 0-.29-.05-.4-.15s-.16-.23-.16-.38.05-.28.16-.39c.11-.1.24-.15.4-.15s.29.05.4.15.16.22.16.37-.05.28-.15.39-.24.16-.4.16zm-.41 5.42v-4.55h.83v4.55zm4.43.06c-.49 0-.92-.1-1.28-.3-.37-.2-.66-.48-.86-.83s-.31-.75-.31-1.2.1-.85.3-1.2.47-.62.82-.82.74-.3 1.17-.3.83.1 1.17.29.6.47.79.82.29.76.29 1.23v.12c0 .05 0 .09-.01.13h-3.87v-.59h3.44l-.33.21c0-.29-.05-.55-.18-.78s-.3-.41-.52-.54-.48-.19-.77-.19-.54.06-.76.19-.4.31-.52.54c-.13.23-.19.5-.19.79v.14c0 .3.07.57.21.81s.34.42.59.55.54.2.87.2c.27 0 .51-.05.73-.14s.41-.23.58-.41l.46.53c-.21.24-.46.42-.77.55s-.65.19-1.03.19zm4.53 0c-.38 0-.74-.05-1.08-.15s-.61-.23-.8-.38l.34-.65c.19.13.43.24.72.33s.58.14.88.14c.38 0 .66-.05.83-.16s.25-.26.25-.46c0-.14-.05-.25-.15-.33s-.24-.14-.41-.18-.36-.08-.56-.11-.41-.07-.62-.12-.39-.12-.57-.21c-.17-.09-.31-.21-.41-.37s-.15-.37-.15-.63.08-.52.23-.72.37-.37.66-.48.62-.17 1.01-.17c.3 0 .6.04.91.11s.56.17.75.31l-.35.65c-.21-.14-.42-.23-.64-.28s-.45-.08-.67-.08c-.36 0-.63.06-.81.18s-.27.27-.27.45c0 .15.05.27.16.36.11.08.24.15.41.19s.36.08.56.12c.21.03.41.07.62.12s.39.12.56.2.31.21.41.36c.11.15.16.36.16.62 0 .27-.08.51-.24.71s-.39.36-.68.47-.64.17-1.05.17zm5.31 1.61v-6.22h.79v1.23l-.05 1.06.09 1.06v2.88h-.83zm2.41-1.61c-.38 0-.72-.09-1.04-.26-.31-.18-.56-.43-.75-.78-.19-.34-.28-.77-.28-1.29s.09-.94.27-1.29.43-.6.74-.77.66-.26 1.05-.26c.45 0 .84.1 1.18.29s.62.46.82.81.3.75.3 1.21-.1.87-.3 1.22-.47.62-.82.82c-.34.2-.74.29-1.18.29zm-.07-.73c.29 0 .55-.07.79-.2.23-.13.42-.32.55-.56s.2-.52.2-.85-.07-.61-.2-.85-.32-.42-.55-.55-.49-.2-.79-.2-.54.07-.78.2c-.23.13-.42.32-.55.55-.13.24-.2.52-.2.85s.07.6.2.85c.13.24.32.43.55.56s.49.2.78.2zm3.61.73c-.16 0-.3-.06-.41-.17s-.17-.25-.17-.42.06-.31.17-.42c.12-.11.25-.16.41-.16s.29.05.4.16.17.25.17.42-.06.31-.17.42-.25.17-.4.17zm4.06-.06v-6.37h.83v6.37zm1.86-3.87v-.68h2.9v.68zm2.21 3.93c-.46 0-.81-.12-1.07-.37-.25-.25-.38-.6-.38-1.06v-4.17h.83v4.14c0 .25.06.44.18.57s.3.2.53.2c.26 0 .47-.07.64-.21l.26.59c-.13.11-.28.19-.45.24s-.36.08-.54.08zm3.72 0c-.44 0-.83-.1-1.18-.29s-.62-.47-.82-.82-.3-.76-.3-1.22.1-.87.3-1.21.47-.62.82-.81c.35-.2.74-.29 1.18-.29.38 0 .73.09 1.04.26s.56.43.74.77c.19.34.28.77.28 1.29s-.09.95-.27 1.29-.42.6-.73.78c-.31.17-.66.26-1.06.26zm.07-.73c.29 0 .54-.07.78-.2.23-.13.42-.32.55-.56s.2-.52.2-.85-.07-.61-.2-.85-.32-.42-.55-.55-.49-.2-.78-.2-.55.07-.78.2-.41.32-.55.55c-.14.24-.21.52-.21.85s.07.6.21.85c.14.24.32.43.55.56s.49.2.78.2zm1.56.67v-1.23l.05-1.06-.09-1.06v-3.03h.83v6.37h-.79zm2.55.06c-.16 0-.3-.06-.41-.17s-.17-.25-.17-.42.06-.31.17-.42c.12-.11.25-.16.41-.16s.29.05.4.16.17.25.17.42-.06.31-.17.42-.25.17-.4.17z" fill="#231f20"/></svg>