<svg height="523" viewBox="0 -1.99 155.16 30.49" width="2500" xmlns="http://www.w3.org/2000/svg"><path d="m41.52 12.58v-10.53h4.6c1.14 0 2.14.22 3.01.66.86.44 1.53 1.05 2.01 1.83s.72 1.7.72 2.77-.24 1.97-.72 2.76-1.15 1.4-2.01 1.84-1.86.66-3.01.66h-4.6zm1.96-1.66h2.56c.79 0 1.48-.15 2.05-.45.58-.3 1.02-.72 1.34-1.26s.47-1.17.47-1.89-.16-1.37-.47-1.9c-.32-.54-.76-.95-1.34-1.26s-1.26-.45-2.05-.45h-2.56v7.22zm11.23-7.7c-.35 0-.64-.11-.86-.33-.23-.22-.34-.49-.34-.8s.11-.59.34-.8c.23-.22.51-.32.86-.32s.64.1.86.31c.23.21.34.46.34.77 0 .33-.11.61-.33.83s-.51.34-.87.34zm-.95 9.36v-8.03h1.88v8.03zm7.74-.36c-.76 0-1.45-.16-2.07-.49s-1.1-.78-1.46-1.36-.53-1.26-.53-2.04.18-1.45.53-2.03.84-1.03 1.46-1.35 1.31-.48 2.07-.48c.68 0 1.29.14 1.83.41s.97.69 1.3 1.26.49 1.3.49 2.2-.16 1.63-.49 2.2c-.33.58-.76 1-1.3 1.28s-1.15.41-1.83.41zm.24 3.38c-.74 0-1.47-.1-2.17-.29-.71-.2-1.29-.48-1.74-.85l.84-1.41c.35.29.79.52 1.33.7s1.08.26 1.63.26c.88 0 1.53-.2 1.94-.61s.62-1.01.62-1.83v-1.43l.15-1.82-.06-1.82v-1.95h1.79v6.81c0 1.45-.37 2.52-1.11 3.21s-1.81 1.03-3.22 1.03zm.05-4.98c.47 0 .89-.1 1.26-.29.37-.2.66-.47.86-.81.21-.35.31-.74.31-1.19s-.1-.85-.31-1.2-.49-.61-.86-.8-.79-.28-1.26-.28-.89.09-1.27.28-.67.45-.87.8-.31.74-.31 1.2.1.85.31 1.19.5.62.87.81.8.29 1.27.29zm7.7-7.4c-.35 0-.64-.11-.86-.33-.23-.22-.34-.49-.34-.8s.11-.59.34-.8c.23-.22.51-.32.86-.32s.64.1.86.31c.23.21.34.46.34.77 0 .33-.11.61-.33.83s-.51.34-.87.34zm-.95 9.36v-8.03h1.88v8.03zm3.28-6.47v-1.5h5.35v1.5zm4.09 6.57c-.88 0-1.56-.23-2.04-.68s-.72-1.13-.72-2.02v-7.21h1.88v7.16c0 .38.1.68.29.89.2.21.47.32.82.32.42 0 .77-.11 1.05-.33l.53 1.34c-.22.18-.49.32-.81.41s-.65.13-.99.13zm5.77 0c-.6 0-1.13-.1-1.58-.31s-.8-.49-1.05-.86-.37-.78-.37-1.24.11-.86.32-1.22c.22-.36.57-.65 1.06-.86s1.14-.32 1.95-.32h2.33v1.25h-2.2c-.64 0-1.07.1-1.29.31s-.33.46-.33.76c0 .34.14.61.41.81s.65.3 1.13.3.87-.11 1.24-.32.63-.52.79-.93l.32 1.13c-.18.47-.5.84-.97 1.1s-1.06.39-1.77.39zm2.53-.1v-1.62l-.11-.35v-2.84c0-.55-.17-.98-.5-1.29s-.83-.46-1.5-.46c-.45 0-.89.07-1.33.21s-.8.34-1.1.59l-.74-1.37c.43-.33.94-.58 1.54-.74.6-.17 1.22-.25 1.86-.25 1.16 0 2.06.28 2.7.84s.95 1.42.95 2.58v4.71h-1.77zm4.18 0v-11.16h1.88v11.16zm11.94.15c-.82 0-1.61-.12-2.36-.35-.75-.24-1.35-.54-1.79-.91l.68-1.52c.42.33.94.61 1.56.83s1.26.33 1.91.33c.55 0 1-.06 1.34-.18s.59-.28.75-.49.24-.44.24-.7c0-.32-.12-.58-.35-.77-.23-.2-.53-.35-.89-.47-.37-.12-.77-.22-1.22-.32s-.89-.22-1.34-.35a5.62 5.62 0 0 1 -1.22-.53c-.37-.21-.66-.5-.89-.86s-.35-.82-.35-1.38.15-1.1.46-1.57c.31-.48.77-.86 1.4-1.14.63-.29 1.42-.43 2.38-.43.63 0 1.26.08 1.88.24s1.16.39 1.62.69l-.62 1.52c-.47-.28-.96-.49-1.46-.62s-.98-.2-1.44-.2c-.54 0-.98.07-1.32.2s-.58.3-.74.51-.23.45-.23.72c0 .32.11.58.34.77s.52.35.89.46.77.22 1.23.32.9.22 1.35.35.85.3 1.22.51.66.5.89.86.34.82.34 1.37-.15 1.08-.46 1.56-.77.86-1.41 1.14c-.63.29-1.43.43-2.39.43zm9.69-.05c-.84 0-1.59-.18-2.25-.53s-1.17-.84-1.54-1.47c-.37-.62-.56-1.33-.56-2.12s.19-1.51.56-2.13.88-1.1 1.54-1.45 1.41-.53 2.25-.53c.78 0 1.47.16 2.07.47s1.05.78 1.36 1.39l-1.44.84c-.24-.38-.53-.66-.88-.84s-.72-.27-1.12-.27c-.46 0-.88.1-1.25.3s-.66.49-.87.86c-.21.38-.32.83-.32 1.35s.11.97.32 1.35.5.66.87.86.79.3 1.25.3c.4 0 .77-.09 1.12-.27s.64-.46.88-.84l1.44.84c-.31.6-.76 1.07-1.36 1.39s-1.29.49-2.07.49zm5.93-9.46c-.35 0-.64-.11-.86-.33-.23-.22-.34-.49-.34-.8s.11-.59.34-.8.51-.32.86-.32.64.1.86.31.34.46.34.77c0 .33-.11.61-.33.83-.22.23-.51.34-.87.34zm-.95 9.36v-8.03h1.88v8.03zm8.12.1c-.89 0-1.67-.18-2.34-.53-.67-.36-1.18-.84-1.55-1.47-.37-.62-.55-1.33-.55-2.12s.18-1.51.53-2.13.85-1.1 1.47-1.45c.63-.35 1.34-.53 2.14-.53s1.48.17 2.09.51 1.09.82 1.44 1.44.53 1.35.53 2.2v.27c0 .1-.01.2-.02.29h-6.69v-1.25h5.7l-.74.39c0-.46-.09-.87-.29-1.22s-.47-.63-.82-.83-.74-.3-1.2-.3-.86.1-1.21.3-.62.48-.81.84-.29.77-.29 1.26v.3c0 .48.11.91.33 1.28s.53.66.93.86.86.3 1.38.3c.45 0 .86-.07 1.22-.21s.68-.36.96-.66l1.01 1.16c-.36.42-.81.74-1.36.97s-1.17.34-1.87.34zm10.13-8.22c.64 0 1.22.13 1.72.38.51.25.9.63 1.2 1.15.29.52.44 1.18.44 1.99v4.6h-1.88v-4.36c0-.71-.17-1.24-.5-1.59s-.8-.53-1.41-.53c-.44 0-.83.09-1.17.27s-.6.45-.79.8c-.19.36-.28.8-.28 1.35v4.06h-1.88v-8.03h1.79v2.17l-.32-.66c.28-.51.69-.9 1.23-1.18s1.15-.41 1.86-.41zm9.45 8.22c-.84 0-1.59-.18-2.25-.53s-1.17-.84-1.54-1.47c-.37-.62-.56-1.33-.56-2.12s.19-1.51.56-2.13.88-1.1 1.54-1.45 1.41-.53 2.25-.53c.78 0 1.47.16 2.07.47s1.05.78 1.36 1.39l-1.44.84c-.24-.38-.53-.66-.88-.84s-.72-.27-1.12-.27c-.46 0-.88.1-1.25.3s-.66.49-.87.86c-.21.38-.32.83-.32 1.35s.11.97.32 1.35.5.66.87.86.79.3 1.25.3c.4 0 .77-.09 1.12-.27s.64-.46.88-.84l1.44.84c-.31.6-.76 1.07-1.36 1.39s-1.29.49-2.07.49zm8.7 0c-.89 0-1.67-.18-2.34-.53-.67-.36-1.18-.84-1.55-1.47-.37-.62-.55-1.33-.55-2.12s.18-1.51.53-2.13.85-1.1 1.47-1.45c.63-.35 1.34-.53 2.14-.53s1.48.17 2.09.51 1.09.82 1.44 1.44.53 1.35.53 2.2v.27c0 .1-.01.2-.02.29h-6.69v-1.25h5.7l-.74.39c0-.46-.09-.87-.29-1.22s-.47-.63-.82-.83-.74-.3-1.2-.3-.86.1-1.21.3-.62.48-.81.84-.29.77-.29 1.26v.3c0 .48.11.91.33 1.28s.53.66.93.86.86.3 1.38.3c.45 0 .86-.07 1.22-.21s.68-.36.96-.66l1.01 1.16c-.36.42-.81.74-1.36.97s-1.17.34-1.87.34zm-108.06 11.07-1.72-4.62h.79l1.52 4.18h-.37l1.58-4.18h.71l1.55 4.18h-.37l1.56-4.18h.75l-1.72 4.62h-.8l-1.45-3.81h.24l-1.47 3.81zm8.78.05c-.49 0-.93-.1-1.3-.3s-.66-.48-.87-.84c-.21-.35-.31-.76-.31-1.22s.1-.86.3-1.22c.2-.35.48-.63.83-.83s.75-.3 1.19-.3.84.1 1.18.3.61.47.81.83c.19.36.29.77.29 1.25v.12s0 .09-.01.13h-3.93v-.6h3.49l-.34.21c0-.3-.05-.56-.18-.79s-.3-.41-.53-.54c-.22-.13-.48-.2-.78-.2s-.55.07-.78.2-.4.31-.53.55c-.13.23-.19.5-.19.81v.14c0 .31.07.58.21.82s.34.43.6.56.55.2.88.2c.27 0 .52-.05.74-.14s.42-.23.59-.42l.46.54c-.21.24-.47.43-.78.56s-.66.19-1.04.19zm3.28-.05v-6.46h.84v3.07l-.09 1.07.05 1.07v1.25zm2.44.05c-.39 0-.75-.09-1.07-.27s-.57-.44-.75-.79-.27-.78-.27-1.31.09-.96.28-1.31.44-.61.76-.78.67-.26 1.05-.26c.45 0 .85.1 1.2.3s.62.47.83.82c.2.35.3.76.3 1.23s-.1.88-.3 1.24c-.2.35-.48.63-.83.83s-.75.3-1.2.3zm-.07-.73c.3 0 .56-.07.8-.2s.42-.32.56-.57.2-.53.2-.86-.07-.62-.2-.86c-.14-.24-.32-.43-.56-.56s-.5-.2-.8-.2-.55.07-.79.2-.42.32-.56.56-.2.53-.2.86.07.61.2.86c.14.25.32.44.56.57s.5.2.79.2zm5.25-3.25v-.69h2.94v.69zm2.24 3.98c-.46 0-.82-.12-1.08-.38-.26-.25-.38-.61-.38-1.07v-4.23h.84v4.2c0 .25.06.44.19.58.12.13.3.2.54.2.26 0 .48-.07.65-.22l.26.6c-.13.11-.28.19-.46.24s-.36.08-.55.08zm3.92 0c-.49 0-.93-.1-1.3-.3s-.66-.48-.87-.84c-.21-.35-.31-.76-.31-1.22s.1-.86.3-1.22c.2-.35.48-.63.83-.83s.75-.3 1.19-.3.84.1 1.18.3.61.47.81.83c.19.36.29.77.29 1.25v.12s0 .09-.01.13h-3.93v-.6h3.49l-.34.21c0-.3-.05-.56-.18-.79s-.3-.41-.53-.54c-.22-.13-.48-.2-.78-.2s-.55.07-.78.2-.4.31-.53.55c-.13.23-.19.5-.19.81v.14c0 .31.07.58.21.82s.34.43.6.56.55.2.88.2c.27 0 .52-.05.74-.14s.42-.23.59-.42l.46.54c-.21.24-.47.43-.78.56s-.66.19-1.04.19zm5.29 0c-.47 0-.89-.1-1.26-.3s-.66-.48-.87-.84c-.21-.35-.31-.76-.31-1.22s.1-.86.31-1.22.5-.63.87-.83.79-.3 1.26-.3c.42 0 .79.08 1.12.25s.58.41.76.74l-.64.41c-.15-.23-.34-.39-.55-.5a1.53 1.53 0 0 0 -.7-.16c-.3 0-.57.07-.81.2s-.43.32-.57.56-.21.53-.21.86.07.62.21.86.33.43.57.57c.24.13.51.2.81.2.25 0 .48-.05.7-.16s.4-.27.55-.5l.64.4c-.18.32-.43.56-.76.74-.33.17-.7.26-1.12.26zm5.36-4.71c.38 0 .71.07 1 .22s.51.37.68.66.24.67.24 1.12v2.66h-.84v-2.56c0-.45-.11-.78-.33-1.01s-.52-.34-.92-.34c-.3 0-.55.06-.78.17-.22.12-.39.29-.51.51-.12.23-.18.51-.18.84v2.38h-.84v-6.46h.84v3.09l-.17-.33c.15-.3.38-.54.7-.71s.68-.25 1.1-.25zm5.93 0c.38 0 .71.07 1 .22s.51.37.68.66.24.67.24 1.12v2.66h-.84v-2.56c0-.45-.11-.78-.33-1.01s-.52-.34-.92-.34c-.3 0-.55.06-.78.17-.22.12-.39.29-.51.51-.12.23-.18.51-.18.84v2.38h-.84v-4.62h.8v1.24l-.13-.33c.15-.3.38-.54.7-.71s.68-.25 1.1-.25zm5.44 4.71c-.46 0-.88-.1-1.24-.3s-.64-.48-.85-.84-.31-.76-.31-1.21.1-.86.31-1.22.49-.63.85-.83.77-.3 1.24-.3.87.1 1.23.3.65.48.85.83c.21.35.31.76.31 1.22s-.1.87-.31 1.22-.49.63-.85.84c-.36.2-.77.3-1.23.3zm0-.73c.3 0 .56-.07.8-.2s.42-.32.55-.57.2-.53.2-.86-.07-.62-.2-.86-.32-.43-.55-.56-.5-.2-.8-.2-.56.07-.79.2-.42.32-.56.56-.21.53-.21.86.07.61.21.86.32.44.56.57c.23.13.5.2.79.2zm3.56.68v-6.46h.84v6.46zm4.4.05c-.46 0-.88-.1-1.24-.3s-.64-.48-.85-.84-.31-.76-.31-1.21.1-.86.31-1.22.49-.63.85-.83.77-.3 1.24-.3.87.1 1.23.3.65.48.85.83c.21.35.31.76.31 1.22s-.1.87-.31 1.22-.49.63-.85.84c-.36.2-.77.3-1.23.3zm0-.73c.3 0 .56-.07.8-.2s.42-.32.55-.57.2-.53.2-.86-.07-.62-.2-.86-.32-.43-.55-.56-.5-.2-.8-.2-.56.07-.79.2-.42.32-.56.56-.21.53-.21.86.07.61.21.86.32.44.56.57c.23.13.5.2.79.2zm5.47.48c-.45 0-.85-.1-1.2-.28-.35-.19-.63-.45-.84-.79s-.31-.73-.31-1.17.1-.84.31-1.17.48-.59.84-.78.75-.28 1.2-.28c.4 0 .75.08 1.08.24.32.16.58.4.78.74.19.33.29.75.29 1.25s-.1.91-.29 1.25c-.2.33-.45.58-.78.74-.33.17-.69.25-1.08.25zm.11 1.94c-.42 0-.83-.06-1.23-.18s-.72-.29-.97-.51l.4-.64c.21.19.48.33.79.44s.64.16.98.16c.55 0 .95-.13 1.2-.38s.38-.64.38-1.17v-.98l.09-.91-.04-.92v-1.26h.79v3.99c0 .81-.2 1.41-.61 1.79s-1 .58-1.79.58zm-.01-2.67c.31 0 .58-.06.82-.19s.42-.3.56-.53.2-.49.2-.78-.07-.56-.2-.78c-.14-.23-.32-.4-.56-.53-.24-.12-.51-.19-.82-.19s-.58.06-.82.19-.43.3-.57.53-.2.49-.2.78.07.56.2.78c.14.23.32.4.57.53.24.13.51.19.82.19zm4.41-4.58a.52.52 0 0 1 -.4-.16c-.11-.1-.16-.23-.16-.38s.05-.29.16-.39.24-.16.4-.16.3.05.4.15c.11.1.16.23.16.38s-.05.29-.16.4c-.1.11-.24.16-.41.16zm-.41 5.51v-4.62h.84v4.62zm4.48.05c-.49 0-.93-.1-1.3-.3s-.66-.48-.87-.84c-.21-.35-.31-.76-.31-1.22s.1-.86.3-1.22.48-.63.83-.83.75-.3 1.19-.3.84.1 1.18.3.61.47.81.83.29.77.29 1.25v.12c0 .05 0 .09-.01.13h-3.93v-.6h3.49l-.34.21c0-.3-.06-.56-.18-.79-.13-.23-.3-.41-.53-.54s-.48-.2-.78-.2-.55.07-.78.2-.4.31-.53.55c-.13.23-.19.5-.19.81v.14c0 .31.07.58.21.82s.34.43.6.56.55.2.88.2c.27 0 .52-.05.74-.14s.42-.23.59-.42l.46.54c-.21.24-.47.43-.78.56s-.66.19-1.04.19zm4.6 0c-.38 0-.75-.05-1.09-.16-.35-.1-.62-.23-.81-.38l.35-.66c.2.13.44.25.73.34s.59.14.89.14c.39 0 .67-.06.84-.17s.26-.26.26-.46a.4.4 0 0 0 -.16-.34c-.1-.08-.24-.14-.41-.18s-.36-.08-.57-.11-.42-.07-.63-.12-.4-.12-.57-.21-.31-.21-.42-.38c-.1-.16-.16-.37-.16-.64s.08-.52.23-.73.38-.37.67-.48.63-.17 1.02-.17c.3 0 .61.04.92.11s.56.18.76.31l-.36.66c-.21-.14-.43-.23-.65-.29-.23-.05-.45-.08-.68-.08-.37 0-.64.06-.82.18s-.27.27-.27.46c0 .16.05.28.16.36s.25.15.42.2.36.09.57.12.42.07.63.12.4.12.57.2.31.21.42.37.16.37.16.63c0 .28-.08.52-.24.72s-.39.36-.69.47-.65.17-1.06.17zm5.38 1.63v-6.3h.8v1.24l-.05 1.07.09 1.07v2.92zm2.45-1.63c-.38 0-.73-.09-1.05-.27s-.57-.44-.76-.79-.28-.78-.28-1.31.09-.96.27-1.31.43-.61.75-.78.67-.26 1.07-.26c.45 0 .85.1 1.2.3s.62.47.83.82.3.76.3 1.23-.1.88-.3 1.24-.48.63-.83.83-.75.3-1.2.3zm-.07-.73c.3 0 .56-.07.8-.2.23-.13.42-.32.56-.57s.2-.53.2-.86-.07-.62-.2-.86-.32-.43-.56-.56-.5-.2-.8-.2-.55.07-.79.2c-.23.13-.42.32-.56.56s-.2.53-.2.86.07.61.2.86c.14.25.32.44.56.57s.5.2.79.2zm3.66.73c-.16 0-.3-.06-.42-.17s-.17-.26-.17-.43.06-.32.17-.43c.12-.11.26-.17.42-.17s.29.05.4.17c.11.11.17.25.17.43a.58.58 0 0 1 -.57.6zm4.12-.05v-6.46h.84v6.46zm1.88-3.93v-.69h2.94v.69zm2.24 3.98c-.46 0-.82-.12-1.08-.38-.26-.25-.38-.61-.38-1.07v-4.23h.84v4.2c0 .25.06.44.19.58s.3.2.54.2c.26 0 .48-.07.65-.22l.26.6c-.13.11-.28.19-.46.24s-.36.08-.55.08zm3.77 0c-.45 0-.85-.1-1.2-.3s-.63-.47-.83-.83-.3-.77-.3-1.24.1-.88.3-1.23.48-.63.83-.82c.35-.2.75-.3 1.2-.3.39 0 .74.09 1.05.26s.56.44.75.78c.19.35.28.78.28 1.31s-.09.96-.27 1.31-.43.61-.74.79-.67.27-1.07.27zm.07-.73c.29 0 .55-.07.79-.2.23-.13.42-.32.56-.57s.2-.53.2-.86-.07-.62-.2-.86c-.14-.24-.32-.43-.56-.56s-.5-.2-.79-.2-.56.07-.79.2-.42.32-.56.56-.21.53-.21.86.07.61.21.86.32.44.56.57c.23.13.5.2.79.2zm1.58.68v-1.25l.05-1.07-.09-1.07v-3.07h.84v6.46zm2.59.05c-.16 0-.3-.06-.42-.17s-.17-.26-.17-.43.06-.32.17-.43c.12-.11.26-.17.42-.17s.29.05.4.17c.11.11.17.25.17.43a.58.58 0 0 1 -.57.6z" fill="#231f20"/><path d="m21.7 7.08c1.53-1.95 6.62-1.77 6.62 1.15h6.18c.1-8.1-10.63-10.22-16.18-6.36 1.22 1.15 1.94 2.53 2.63 3.86.24.47.48.92.75 1.35zm-15.2-.74v13.59h3.09c3.84 0 5.86-3.06 6.06-6.27 1.12 1.41 2.82 2.64 5.86 3.26-1.3 4.73-4.73 7.81-9.22 8.68-.9.16-1.77.25-2.7.25h-9.59v-25.43h9.59c1.59 0 3.24.16 4.77.64 6.4 2.02 4.63 8.43 10.27 9.58 4.94.97 10.67.57 10.67 7.77 0 7.97-11.53 10.09-17.32 6.01 1.65-1.26 2.95-2.9 3.85-4.8 2.02 1.59 7.15 1.14 7.15-1.25 0-2.2-3.37-2.22-4.91-2.35-8.9-.72-8.13-5.87-10.59-8.35-1-1.05-2.48-1.33-3.88-1.33h-3.09z" fill="#3e679b" fill-rule="evenodd"/></svg>