<svg height="1721" viewBox="-.69 0 329.75 227.46" width="2500" xmlns="http://www.w3.org/2000/svg"><path d="m50.38 92.81-11.72 1.65-.98-6.99c-1.56 2.99-3.58 5.34-6.04 7.04s-5.04 2.74-7.74 3.12c-5.48.77-10.48-.77-15.01-4.63s-7.34-9.73-8.45-17.61c-1.13-8.06-.09-14.46 3.12-19.19s7.72-7.5 13.53-8.32c5.33-.75 10.25.81 14.76 4.69l-3.32-23.65 12.62-1.77 9.23 65.68zm-37.17-20.08c.71 5.08 1.93 8.65 3.66 10.72 2.5 3 5.57 4.24 9.22 3.73 2.9-.41 5.2-1.99 6.89-4.74s2.19-6.57 1.5-11.47c-.77-5.47-2.31-9.26-4.62-11.39s-5.01-2.97-8.1-2.54-5.33 1.96-7.02 4.62-2.2 6.35-1.54 11.07zm38.52-35.2-1.64-11.65 12.62-1.77 1.64 11.65zm7.59 54.03-6.68-47.58 12.62-1.77 6.68 47.58zm21.33.2 14.66-.28c.47 1.64 1.19 2.71 2.15 3.22 1.32.73 3.27.91 5.85.55 3.29-.46 5.69-1.3 7.2-2.52 1.02-.81 1.7-1.99 2.07-3.53.24-1.1.17-3.05-.23-5.86l-.98-6.94c-3.05 5.67-7.45 8.9-13.2 9.71-6.41.9-11.86-1.09-16.36-5.97-3.53-3.86-5.75-8.97-6.64-15.33-1.12-7.97-.05-14.34 3.2-19.09s7.74-7.53 13.46-8.33 11.12 1.07 15.68 5.7l-.94-6.68 11.81-1.66 6 42.69c.79 5.61.91 9.88.38 12.78-.54 2.91-1.53 5.27-2.99 7.09s-3.52 3.37-6.19 4.66-6.15 2.23-10.43 2.84c-8.08 1.14-14.01.56-17.78-1.73s-5.95-5.55-6.55-9.79a26.3 26.3 0 0 1 -.17-1.53zm7.35-29.5c.71 5.05 2.21 8.61 4.5 10.68s4.87 2.9 7.75 2.5c3.08-.43 5.52-2 7.31-4.7s2.35-6.41 1.69-11.13c-.69-4.93-2.22-8.44-4.6-10.55-2.37-2.1-5.11-2.94-8.23-2.5s-5.35 1.95-6.98 4.57-2.11 6.33-1.43 11.14zm38.47-35.23-1.64-11.65 12.62-1.77 1.64 11.65zm7.59 54.03-6.68-47.58 12.62-1.77 6.68 47.58zm37.25-53.75 1.41 10.03-8.62 1.21 2.69 19.17c.55 3.88.95 6.13 1.2 6.75s.7 1.1 1.35 1.43c.64.34 1.38.45 2.22.33 1.17-.16 2.8-.8 4.9-1.92l2.45 9.62c-2.76 1.67-5.99 2.76-9.71 3.28-2.28.32-4.38.23-6.31-.28s-3.41-1.3-4.43-2.39-1.84-2.64-2.46-4.66c-.48-1.43-1.02-4.36-1.65-8.81l-2.91-20.74-5.79.81-1.41-10.03 5.79-.81-1.33-9.45 11.63-9.13 2.36 16.8 8.62-1.21zm16.73 12.45-11.74-.45c.64-4.78 2.38-8.5 5.21-11.15s7.35-4.41 13.54-5.28c5.63-.79 9.91-.71 12.85.23s5.12 2.36 6.53 4.24c1.41 1.89 2.5 5.57 3.27 11.03l1.93 14.71c.59 4.18 1.22 7.24 1.91 9.17.68 1.93 1.74 3.95 3.16 6.07l-12.48 1.75c-.45-.79-1.03-1.97-1.74-3.55-.31-.72-.53-1.19-.66-1.42-1.86 2.39-3.95 4.29-6.25 5.68s-4.85 2.28-7.64 2.67c-4.91.69-8.97-.1-12.17-2.36s-5.09-5.42-5.66-9.48c-.38-2.69-.07-5.17.92-7.46s2.57-4.15 4.73-5.6 5.37-2.89 9.62-4.34c5.74-1.93 9.68-3.54 11.82-4.81l-.18-1.25c-.34-2.42-1.18-4.06-2.52-4.92s-3.67-1.06-7-.59c-2.25.32-3.93 1-5.07 2.06-1.13 1.06-1.93 2.75-2.4 5.07zm18.32 7.84c-1.54.77-4.01 1.77-7.41 3.01s-5.59 2.29-6.56 3.16c-1.48 1.4-2.1 2.99-1.85 4.78s1.12 3.19 2.62 4.29 3.26 1.51 5.3 1.22c2.27-.32 4.34-1.37 6.2-3.15 1.37-1.35 2.17-2.88 2.42-4.59.18-1.12.06-3.19-.37-6.21zm24.55 19.85-9.23-65.68 12.62-1.77 9.23 65.68z" fill="#2c9489"/><path d="m61.1 167.89-11.72 1.65-.98-6.99c-1.56 2.99-3.58 5.34-6.04 7.04s-5.04 2.74-7.74 3.12c-5.48.77-10.48-.77-15.01-4.63s-7.34-9.73-8.45-17.61-.09-14.46 3.12-19.19 7.72-7.5 13.53-8.32c5.33-.75 10.25.81 14.76 4.69l-3.32-23.65 12.62-1.77 9.23 65.68zm-37.16-20.09c.71 5.08 1.93 8.65 3.66 10.72 2.5 3 5.57 4.24 9.22 3.73 2.9-.41 5.2-1.99 6.89-4.74s2.19-6.57 1.5-11.47c-.77-5.47-2.31-9.26-4.62-11.39s-5.01-2.97-8.1-2.54-5.33 1.96-7.02 4.62-2.2 6.35-1.54 11.07zm71.6-.19 12.87.34c-.97 4.83-3.03 8.69-6.18 11.58-3.15 2.9-7.34 4.71-12.58 5.45-8.29 1.17-14.81-.68-19.55-5.52-3.75-3.89-6.09-9.13-7.02-15.73-1.11-7.88.09-14.35 3.59-19.4 3.5-5.04 8.41-8.01 14.73-8.9 7.09-1 13.02.55 17.78 4.65s7.73 10.98 8.9 20.65l-31.61 4.44c.61 3.72 2.04 6.48 4.28 8.28s4.81 2.5 7.71 2.09c1.98-.28 3.56-1.05 4.76-2.31s1.97-3.14 2.32-5.63zm-1.07-12.83c-.6-3.63-1.93-6.27-4-7.91-2.06-1.64-4.38-2.29-6.96-1.92-2.76.39-4.89 1.71-6.4 3.96-1.52 2.25-2.02 5.1-1.5 8.53l18.86-2.65zm16.88 12.2 12.39-3.71c.88 2.37 2.24 4.08 4.06 5.12s4.22 1.35 7.18.93c3.26-.46 5.63-1.4 7.11-2.83.99-.99 1.39-2.19 1.19-3.59-.13-.96-.54-1.7-1.23-2.25-.71-.51-2.2-.86-4.45-1.06-10.49-.81-17.23-1.95-20.22-3.42-4.13-2.04-6.52-5.34-7.16-9.91-.58-4.12.57-7.81 3.43-11.08 2.87-3.26 7.73-5.38 14.59-6.34s11.53-.54 15 1.14 6.1 4.5 7.88 8.49l-11.59 3.87c-.77-1.78-1.93-3.06-3.49-3.85s-3.66-.99-6.29-.62c-3.32.47-5.64 1.26-6.95 2.39-.87.79-1.23 1.71-1.08 2.76.13.9.65 1.6 1.58 2.11 1.25.68 5.35 1.3 12.29 1.88 6.93.58 11.89 1.79 14.86 3.62 2.95 1.87 4.71 4.81 5.27 8.81.61 4.36-.69 8.37-3.9 12.02s-8.4 5.98-15.55 6.98c-6.5.91-11.82.32-15.98-1.78s-7.14-5.32-8.94-9.66zm46.42-47.77-1.64-11.65 12.62-1.77 1.64 11.65zm7.59 54.03-6.68-47.58 12.62-1.77 6.68 47.58zm21.33.2 14.66-.28c.47 1.64 1.19 2.71 2.15 3.22 1.32.73 3.27.91 5.85.55 3.29-.46 5.69-1.3 7.2-2.52 1.02-.81 1.7-1.99 2.07-3.53.24-1.1.17-3.05-.23-5.86l-.98-6.94c-3.05 5.67-7.45 8.9-13.2 9.71-6.41.9-11.86-1.09-16.36-5.97-3.53-3.86-5.75-8.97-6.64-15.33-1.12-7.97-.05-14.34 3.2-19.09s7.74-7.53 13.46-8.33 11.12 1.07 15.68 5.7l-.94-6.68 11.81-1.66 6 42.69c.79 5.61.91 9.88.38 12.78-.54 2.91-1.53 5.27-2.99 7.09s-3.52 3.37-6.19 4.66-6.15 2.23-10.43 2.84c-8.08 1.14-14.01.56-17.78-1.73s-5.95-5.55-6.55-9.79a26.3 26.3 0 0 1 -.17-1.53zm7.35-29.49c.71 5.05 2.21 8.61 4.5 10.68s4.87 2.9 7.75 2.5c3.08-.43 5.52-2 7.31-4.7s2.35-6.41 1.69-11.13-2.22-8.44-4.6-10.55c-2.37-2.1-5.11-2.94-8.23-2.5s-5.35 1.95-6.98 4.57-2.11 6.33-1.43 11.14zm89.44 12.69-12.62 1.77-3.41-24.28c-.72-5.14-1.46-8.42-2.21-9.85s-1.79-2.48-3.12-3.15-2.85-.88-4.55-.64c-2.19.31-4.06 1.18-5.63 2.62s-2.54 3.19-2.9 5.25c-.37 2.06-.18 5.75.57 11.07l3.03 21.55-12.62 1.77-6.68-47.58 11.72-1.65.98 6.99c3.41-5.96 8.27-9.39 14.58-10.27 2.78-.39 5.4-.25 7.84.43 2.45.68 4.37 1.71 5.77 3.09 1.4 1.39 2.47 3.03 3.21 4.94s1.37 4.7 1.89 8.37zm-47.9 25.51-.37-2.67 2.67-.38.37 2.67zm12.48-8.99-2.57.84c-.16-.51-.42-.88-.77-1.1s-.78-.3-1.28-.23c-.67.09-1.16.4-1.5.91-.33.51-.42 1.31-.27 2.38.17 1.19.49 2.01.96 2.45s1.05.61 1.73.51c.51-.07.9-.27 1.19-.61.28-.33.44-.86.48-1.58l2.69.08c-.1 1.24-.5 2.22-1.19 2.94s-1.68 1.17-2.98 1.36c-1.48.21-2.72-.09-3.73-.9s-1.63-2.03-1.86-3.68.03-3.02.78-4.07 1.88-1.68 3.38-1.89c1.23-.17 2.24-.05 3.04.38s1.43 1.16 1.9 2.19zm.93 1.82c-.12-.89-.03-1.77.29-2.66s.85-1.61 1.59-2.16 1.61-.89 2.59-1.03c1.53-.21 2.85.1 3.96.96 1.11.85 1.78 2.03 1.99 3.55s-.1 2.86-.95 4c-.84 1.14-2.02 1.82-3.51 2.03-.93.13-1.84.05-2.74-.25s-1.62-.82-2.17-1.57-.91-1.7-1.07-2.85zm2.76-.24c.14 1 .49 1.73 1.04 2.2.55.46 1.17.65 1.87.55s1.24-.45 1.64-1.04c.4-.6.53-1.4.38-2.41s-.48-1.71-1.03-2.18c-.55-.46-1.17-.65-1.87-.55s-1.25.45-1.65 1.04-.53 1.4-.39 2.4zm9.74 3.77-.37-2.67 2.67-.38.37 2.67zm11.32-1.59-.21-1.51c-.29.59-.72 1.08-1.27 1.47s-1.17.64-1.83.73-1.31.03-1.89-.19-1.03-.58-1.34-1.09c-.32-.5-.54-1.23-.68-2.18l-.9-6.37 2.67-.38.65 4.63c.2 1.42.37 2.28.51 2.58.14.31.36.53.64.68.29.15.63.2 1.03.14.46-.06.85-.25 1.17-.55.33-.3.53-.64.61-1.03s.02-1.3-.18-2.75l-.6-4.25 2.67-.38 1.42 10.07-2.48.35zm4.42-.62-1.95-13.91 2.67-.38 1.04 7.38 2.63-3.99 3.29-.46-2.93 4.17 4.6 5.87-2.88.4-3.17-4.17-1.06 1.47.45 3.23-2.67.38z" fill="#201f20"/><path d="m285.83 112.83-3.54-25.16 4.96-.7 12.68 15.35-2.36-16.8 4.73-.66 3.54 25.16-5.11.72-12.47-14.98 2.31 16.41-4.73.66zm24.05-3.38-3.54-25.16 18.7-2.63.6 4.26-13.61 1.91.78 5.58 12.66-1.78.6 4.24-12.66 1.78.96 6.85 14.09-1.98.6 4.24-19.18 2.7z" fill="#2c9489"/><path d="m98.61 216.21c-.41-3.78 1.81-5.6 5.59-6.13 1.23-.17 5.73-.44 6.3 3.6l1.27 9.07c.09.66.45.89.98.82.23-.03.55-.14.83-.24l.27 1.93c-.42.18-.78.42-1.36.5-2.28.32-2.8-.84-3.06-2.03-.84 1.25-2.19 2.92-5.17 3.34-2.81.39-5.06-1.16-5.44-3.88-.19-1.33-.24-4.45 3.96-5.6l4.17-1.14c.61-.15 1.3-.49 1.08-2.06-.23-1.66-1.53-2.4-3.96-2.06-2.93.41-3.08 2.31-3.08 3.54l-2.37.33zm9.84 1.6c-.36.39-.97.72-4.1 1.59-1.23.36-3.2 1.03-2.92 3.02.24 1.72 1.23 2.62 3.17 2.35 2.4-.34 4.52-2.26 4.22-4.37l-.36-2.59zm10.44 6.74-2.58.36-3.04-21.64 2.58-.36zm6.26-.88-2.58.36-3.04-21.64 2.58-.36zm12.79-15.63 1.44 10.25c.17 1.24 1.2 1.09 1.72 1.02l.91-.13.29 2.08c-.92.22-1.64.45-1.9.48-2.55.36-3.31-1.04-3.58-2.94l-1.46-10.4-2.08.29-.31-2.2 2.08-.29-.62-4.4 2.58-.36.62 4.4 2.46-.35.31 2.2zm19.09 11.15-2.58.36-1.45-10.31c-.3-2.14-1.08-3.44-3.54-3.1-2.11.3-4.1 1.87-3.54 5.85l1.21 8.59-2.58.36-3.04-21.64 2.58-.36 1.12 7.99h.06c.59-1.11 1.66-2.85 4.12-3.2s5.5.24 6.13 4.73zm1.01-19.14-.42-3.01 2.58-.36.42 3.01zm5.19 18.27-2.58.36-2.22-15.77 2.58-.36zm16.1-2.26-2.58.36-1.36-9.71c-.39-2.74-1.34-4.02-3.86-3.67-1.46.21-3.9 1.53-3.3 5.81l1.21 8.59-2.58.36-2.22-15.77 2.43-.34.31 2.23h.06c.44-.93 1.61-2.97 4.25-3.34 2.37-.33 5.5.24 6.13 4.73l1.51 10.73zm16.09-3.58c.32 2.26 1.08 7.93-6 8.93-1.81.25-5.43.24-6.51-3.88l2.58-.36c.82 2.44 3.19 2.1 3.81 2.02 4.45-.63 3.84-4.29 3.58-6.16l-.09-.66c-.55 1.37-1.76 2.52-3.81 2.81-5.21.73-7.44-4.09-7.97-7.86-.62-4.43 1.21-8.19 5.28-8.76 2.78-.39 4.23 1.25 5.01 2.12l-.33-2.32 2.43-.34 2.03 14.47zm-6.72.39c1.64-.23 4.03-1.7 3.44-5.89-.36-2.56-1.35-6.63-5.07-6.11-3.98.56-3.64 4.48-3.36 6.5.49 3.47 2.17 5.9 4.98 5.51zm17.35-12.06c-.17-.99-.75-2.6-4-2.14-.79.11-3.01.7-2.73 2.66.18 1.3 1.02 1.49 3.08 1.72l2.67.3c3.3.37 4.59 1.42 4.89 3.56.46 3.26-1.87 5.58-5.33 6.07-6.06.85-7.01-2.7-7.36-4.59l2.49-.35c.26 1.22.89 3.16 4.52 2.65 1.84-.26 3.41-1.25 3.16-3-.18-1.27-1.09-1.57-3.36-1.83l-3.09-.33c-2.21-.24-3.77-1.16-4.08-3.33-.49-3.47 2.07-5.43 5.09-5.85 5.47-.77 6.44 3.34 6.55 4.12l-2.49.35z" fill="#201f20"/><path d="m234.42 208.32-2.43.34-.3-2.17h-.06c-.81 2.3-2.5 3.03-3.99 3.24-5.21.73-7.44-4.09-7.97-7.86-.62-4.43 1.21-8.19 5.27-8.76 2.78-.39 4.2 1.22 4.94 2.04h.06l-1.14-8.12 2.58-.36 3.04 21.64zm-7.05-.89c1.64-.23 4.03-1.7 3.44-5.89-.36-2.56-1.35-6.63-5.07-6.11-3.98.56-3.64 4.48-3.36 6.5.49 3.47 2.17 5.9 4.98 5.51zm7.83-18.22-.42-3.01 2.58-.36.42 3.01zm5.19 18.27-2.58.36-2.22-15.77 2.58-.36zm16.15-3.59c.32 2.26 1.08 7.93-6 8.93-1.81.25-5.43.24-6.51-3.88l2.58-.36c.82 2.44 3.19 2.1 3.8 2.02 4.45-.63 3.84-4.29 3.58-6.16l-.09-.66c-.55 1.37-1.76 2.52-3.81 2.81-5.21.73-7.44-4.09-7.97-7.86-.62-4.43 1.21-8.19 5.28-8.76 2.78-.39 4.23 1.25 5.01 2.12l-.33-2.32 2.43-.34 2.03 14.47zm-6.72.39c1.64-.23 4.03-1.7 3.44-5.89-.36-2.56-1.35-6.63-5.07-6.11-3.98.56-3.64 4.48-3.36 6.5.49 3.47 2.17 5.9 4.98 5.51zm7.68-18.2-.42-3.01 2.58-.36.42 3.01zm5.19 18.27-2.58.36-2.22-15.77 2.58-.36zm4.89-14.52 1.44 10.25c.17 1.24 1.2 1.09 1.72 1.02l.91-.13.29 2.08c-.92.22-1.64.45-1.9.48-2.55.36-3.31-1.04-3.58-2.94l-1.46-10.4-2.08.29-.31-2.2 2.08-.29-.62-4.4 2.58-.36.62 4.4 2.46-.35.31 2.2zm5.02 1.94c-.41-3.78 1.81-5.6 5.59-6.13 1.23-.17 5.73-.44 6.3 3.6l1.27 9.07c.09.66.45.89.98.82.23-.03.55-.14.83-.24l.27 1.93c-.42.18-.78.42-1.36.5-2.28.32-2.8-.84-3.06-2.03-.84 1.25-2.19 2.92-5.17 3.34-2.81.39-5.06-1.16-5.44-3.88-.19-1.33-.24-4.45 3.96-5.6l4.17-1.14c.61-.15 1.3-.49 1.08-2.06-.23-1.66-1.53-2.4-3.96-2.06-2.93.41-3.08 2.31-3.08 3.54l-2.37.33zm9.83 1.6c-.36.39-.97.72-4.1 1.59-1.23.36-3.2 1.03-2.92 3.02.24 1.72 1.23 2.62 3.17 2.35 2.4-.34 4.52-2.26 4.22-4.37l-.36-2.59zm10.47 6.73-2.58.36-3.04-21.64 2.58-.36z" fill="#2c9489"/></svg>