<svg height="990" viewBox=".55 1.11 540.91 215.02" width="2500" xmlns="http://www.w3.org/2000/svg"><g fill="#1a234e"><path d="m66.37 29.27c-4.6 0-8.33 1.97-8.33 4.41s3.73 4.41 8.33 4.41c4.04 0 7.41-1.52 8.17-3.54l-5.71-.87 5.5-1.3c-1.05-1.81-4.22-3.11-7.96-3.11zm57.85-3.78c1.19 2.61 1.83 5.35 1.83 8.19 0 2.92-.68 5.73-1.94 8.4l.05.01c3.59-6.76 1.99-12.78.06-16.6zm-7.13-3.26-42.76 10.14c.24.41.37.85.37 1.3 0 .3-.06.59-.16.87l45.18 6.87c1.37-2.46 2.12-5.05 2.12-7.73-.01-4.08-1.71-7.95-4.75-11.45z"/><path d="m124.22 25.49c-1.35-2.68-2.86-4.28-2.86-4.28l-2.05.49c2.98 3.68 4.63 7.72 4.63 11.98 0 2.79-.72 5.49-2.06 8.06l2.23.34c1.26-2.67 1.94-5.49 1.94-8.4 0-2.84-.63-5.58-1.83-8.19z"/><path d="m121.83 33.68c0 2.68-.75 5.27-2.12 7.73l2.17.33c1.33-2.57 2.06-5.27 2.06-8.06 0-4.25-1.65-8.3-4.63-11.98l-2.22.53c3.04 3.5 4.74 7.37 4.74 11.45zm-47.29.86c.11-.28.16-.57.16-.87 0-.45-.13-.89-.37-1.3l-5.5 1.3zm-59.41-11.7c8.34-10.27 28.17-17.51 51.24-17.51 22.61 0 42.09 6.95 50.72 16.89l2.22-.53c-8.8-10.86-29.19-18.48-52.94-18.48-23.95 0-44.47 7.74-53.15 18.74.66.25 1.3.54 1.91.89z"/><path d="m119.72 41.41c-6.61 11.88-28.01 20.61-53.35 20.61-23.07 0-42.89-7.24-51.24-17.51-.61.35-1.25.64-1.91.88 8.68 11 29.2 18.74 53.15 18.74 26.52 0 48.83-9.49 55.52-22.39z"/><path d="m66.37 64.13c-23.95 0-44.47-7.73-53.15-18.74-.72.26-1.48.46-2.26.59 8.73 11.99 29.97 20.26 55.41 20.26 28.12 0 51.12-10.1 57.75-24.16l-2.23-.34c-6.69 12.9-29 22.39-55.52 22.39zm-53.15-42.17c8.68-11 29.2-18.74 53.15-18.74 23.76 0 44.15 7.61 52.94 18.48l2.05-.49s1.51 1.6 2.86 4.28c-6.49-14.17-29.58-24.38-57.85-24.38-25.45 0-46.68 8.27-55.41 20.26.78.13 1.53.33 2.26.59zm-8.04 57.08c.09 1.25.43 1.86.93 3.85.85-.17 2.63-.37 4.71.3.52-2.12 1.01-2.88 1.09-4.19.52-8.56-2.75-33.85-3.55-33.85-.83.02-3.79 25.34-3.18 33.89zm.74 6.29c-2.33 1.72-2.96 5-1 9.46 1.97 4.46.96 8.14.43 8.53 3.33-1.66 13.05-7.17 5.94-17.6-2.92-1.21-5.37-.39-5.37-.39z"/><path d="m22.71 95.88c-.04 1.48.51 2.06.94 2.53.13.15.26.27.35.43.2.34.35.77.43 1.27 1.79 10.84 2.19 12.31 6.72 14.7 2.17 1.15 6.64 1.91 11.1 1.91 3.49 0 8.52-.46 12.71-2.64 6.1-3.18 8.37-14.18 8.48-14.73.01-.05.19-1.36 2.97-1.36h.17c2.64 0 2.83 1.31 2.84 1.45.1.46 2.37 11.45 8.47 14.64 4.19 2.18 9.22 2.64 12.71 2.64 4.47 0 8.94-.77 11.1-1.91 4.54-2.38 4.94-3.87 6.73-14.7.08-.5.22-.92.42-1.27.1-.16.22-.28.36-.44.43-.46.97-1.05.94-2.53-.01-.25 0-.69.01-1.17.02-.74.03-1.57.01-2.02-.14-2.19-2.07-3.08-3.05-3.24-6.23-1.28-13.73-1.65-21.63-1.08l-.41.03c-4.82.33-7.48.53-10.64 1.94-.74.33-1.49.7-2.16 1.04-1.19.61-2.91 1.28-3.84 1.48-.37.08-.74.16-1.08.23-.49.1-1.41.1-1.89 0-.34-.07-.71-.15-1.08-.23-.92-.2-2.64-.87-3.84-1.48-.66-.34-1.42-.72-2.15-1.04-3.17-1.42-5.82-1.61-10.64-1.94l-.42-.03c-7.91-.57-15.4-.19-21.6 1.08-1.01.16-2.94 1.06-3.07 3.25-.03.45-.01 1.27.01 2.01.02.49.03.93.03 1.18zm85.64-2.69v1.61l-2.01-.8zm-35 2.32c.3-.76 2.23-3.28 14.16-3.98 2.09-.12 3.87-.18 5.42-.18 7.03 0 9.27 1.27 10.61 3.31.8 1.22 1.34 3.78 1.34 5.39.01 3.53-.69 9.82-5.59 12.18-2.24 1.09-5.61 1.74-9 1.74-6.51 0-11.72-2.21-13.92-5.91-4.64-7.8-3.08-12.42-3.02-12.55zm-44.04-.86c1.33-2.04 3.57-3.31 10.61-3.31 1.56 0 3.33.06 5.42.18 11.93.7 13.85 3.22 14.2 4.07.01.04 1.59 4.66-3.05 12.45-2.2 3.7-7.41 5.91-13.92 5.91-3.4 0-6.76-.65-9-1.74-4.9-2.37-5.61-8.65-5.59-12.18 0-1.61.54-4.15 1.33-5.38zm-4.82-1.46 2.02.81-2.02.8zm0 0"/><path d="m75.7 176.55c1.91-2.74 1.23-6.52-1.5-8.43a5.954 5.954 0 0 0 -3.35-1.08 6.05 6.05 0 0 0 -2.37-6.59c-.9-.63-1.92-.98-2.95-1.06l5.66-8.12c1.91-2.74 1.23-6.52-1.5-8.42-2.74-1.91-6.52-1.23-8.43 1.51l-13.93 19.98c-3.23-1.39-7.12-.38-9.21 2.62a16.52 16.52 0 0 0 -2.81 11.86c.62 4.3-.37 8.57-2.78 12.03l-2.54 3.64c-.97 1.39-1.57 3.84 1.07 7.63 1.61 2.3 4.18 4.75 7.25 6.89 5.73 3.99 13.48 7.12 16.5 2.78l4.54-6.5c1.2-1.72 2.69-3.39 4.55-5.1 4.96-4.56 9.44-9.68 13.29-15.21a6.048 6.048 0 0 0 -1.49-8.43zm-13.84 21.41c-2.03 1.86-3.66 3.69-4.99 5.6l-4.53 6.5c-1.3 1.87-6.82.28-12.29-3.54-5.48-3.82-8.87-8.44-7.57-10.31l2.54-3.65c2.85-4.09 4.01-9.13 3.29-14.19-.49-3.42.32-6.86 2.3-9.7a4.554 4.554 0 0 1 4.93-1.78l-3.31 4.75 2.48 1.73 19.04-27.31c.96-1.37 2.85-1.71 4.21-.76 1.37.95 1.71 2.84.75 4.21l-8.65 12.41v.01l-3.46 4.96 2.48 1.73 3.46-4.97a3.03 3.03 0 0 1 4.21-.75c1.37.95 1.71 2.84.75 4.21l-1.73 2.48-.01.01-1.73 2.48 2.48 1.73 1.73-2.48a3.03 3.03 0 0 1 4.21-.75c1.37.95 1.71 2.84.75 4.21l-3.46 4.96 2.48 1.73 1.72-2.47c1.26.93 1.71 2.84.76 4.2a87.644 87.644 0 0 1 -12.84 14.75zm-53.06-172.54c-4.55 0-8.25 3.7-8.25 8.26 0 4.55 3.7 8.25 8.25 8.25s8.25-3.7 8.25-8.25c0-4.56-3.7-8.26-8.25-8.26zm100.69 31.02c-.98-.8-2.58-1.6-4.68-2.36-9.97 4.91-23.53 7.94-38.44 7.94-14.82 0-28.29-2.99-38.25-7.85-2.05.68-4.03 1.43-5.92 2.27 0 0-4.28 1.89-3.33 27.99 11.87.95 35.58-2.37 47.92-10.91 0 0 .47 5.53-15.66 11.07 0 0 27.99 1.43 40.8-14.07 0 0 2.85 12.4 20.4 14.11.01-.01 5.23-21.55-2.84-28.19zm84.5-22.25c5.9 3.35 10.49 8 13.78 13.93 3.28 5.93 4.93 12.69 4.93 20.27s-1.64 14.35-4.93 20.32-7.88 10.63-13.78 13.98-12.64 5.03-20.22 5.03h-18.2c-1.48 0-2.72-.5-3.72-1.51-1.01-1.01-1.51-2.25-1.51-3.72v-68.1c0-1.54.5-2.8 1.51-3.77s2.25-1.46 3.72-1.46h18.2c7.58 0 14.32 1.68 20.22 5.03zm-5.28 60.45c4.39-2.55 7.81-6.12 10.26-10.71s3.67-9.77 3.67-15.54-1.22-10.93-3.67-15.49-5.87-8.11-10.26-10.66-9.37-3.82-14.94-3.82h-12.97v60.04h12.97c5.57 0 10.55-1.28 14.94-3.82zm78.34-38.67c4.19 2.45 7.51 5.8 9.96 10.06s3.67 9 3.67 14.23v22.43c0 1.48-.49 2.7-1.46 3.67s-2.2 1.46-3.67 1.46c-1.48 0-2.7-.49-3.67-1.46s-1.46-2.19-1.46-3.67v-3.72c-2.35 2.88-5.2 5.13-8.55 6.74s-6.97 2.41-10.86 2.41c-4.83 0-9.2-1.21-13.12-3.62s-7.01-5.75-9.25-10.01c-2.25-4.26-3.37-9-3.37-14.23s1.21-9.97 3.62-14.23 5.75-7.61 10.01-10.06 8.97-3.67 14.13-3.67c5.16-.01 9.83 1.22 14.02 3.67zm-4.92 40.63c2.72-1.64 4.84-3.89 6.39-6.74 1.54-2.85 2.31-6.05 2.31-9.6s-.77-6.77-2.31-9.66c-1.54-2.88-3.67-5.14-6.39-6.79-2.72-1.64-5.75-2.46-9.1-2.46s-6.39.82-9.1 2.46c-2.72 1.64-4.86 3.91-6.44 6.79s-2.36 6.1-2.36 9.66c0 3.55.79 6.76 2.36 9.6 1.57 2.85 3.72 5.1 6.44 6.74s5.75 2.46 9.1 2.46 6.38-.82 9.1-2.46zm72.81-40.63c4.19 2.45 7.51 5.8 9.96 10.06s3.67 9 3.67 14.23v22.43c0 1.48-.49 2.7-1.46 3.67s-2.2 1.46-3.67 1.46c-1.48 0-2.7-.49-3.67-1.46s-1.46-2.19-1.46-3.67v-3.72c-2.35 2.88-5.2 5.13-8.55 6.74s-6.97 2.41-10.86 2.41c-4.83 0-9.2-1.21-13.12-3.62s-7.01-5.75-9.25-10.01c-2.25-4.26-3.37-9-3.37-14.23s1.21-9.97 3.62-14.23 5.75-7.61 10.01-10.06 8.97-3.67 14.13-3.67c5.15-.01 9.83 1.22 14.02 3.67zm-4.93 40.63c2.72-1.64 4.84-3.89 6.39-6.74 1.54-2.85 2.31-6.05 2.31-9.6s-.77-6.77-2.31-9.66c-1.54-2.88-3.67-5.14-6.39-6.79-2.72-1.64-5.75-2.46-9.1-2.46s-6.39.82-9.1 2.46c-2.72 1.64-4.86 3.91-6.44 6.79s-2.36 6.1-2.36 9.66c0 3.55.79 6.76 2.36 9.6 1.57 2.85 3.72 5.1 6.44 6.74s5.75 2.46 9.1 2.46 6.39-.82 9.1-2.46zm85.03-66.03c.94.94 1.41 2.18 1.41 3.72v45.86c0 5.23-1.22 9.97-3.67 14.23s-5.77 7.61-9.96 10.06-8.87 3.67-14.03 3.67-9.87-1.22-14.13-3.67-7.59-5.8-10.01-10.06c-2.41-4.26-3.62-9-3.62-14.23s1.12-9.97 3.37-14.23c2.24-4.26 5.33-7.59 9.25-10.01 3.92-2.41 8.3-3.62 13.12-3.62 3.89 0 7.51.8 10.86 2.41s6.2 3.86 8.55 6.74v-27.15c0-1.54.49-2.78 1.46-3.72s2.2-1.41 3.67-1.41c1.55 0 2.79.47 3.73 1.41zm-17.14 66.03c2.71-1.64 4.84-3.9 6.39-6.79 1.54-2.88 2.31-6.1 2.31-9.66 0-3.55-.77-6.75-2.31-9.6s-3.67-5.09-6.39-6.74c-2.72-1.64-5.75-2.46-9.1-2.46s-6.39.82-9.1 2.46c-2.72 1.64-4.86 3.89-6.44 6.74s-2.36 6.05-2.36 9.6.79 6.77 2.36 9.66c1.58 2.88 3.72 5.15 6.44 6.79s5.75 2.46 9.1 2.46 6.38-.82 9.1-2.46zm44.45.8c1.37 1.37 2.06 3.03 2.06 4.98 0 1.88-.67 3.5-2.01 4.88-1.34 1.37-2.98 2.06-4.93 2.06-1.88 0-3.5-.69-4.88-2.06s-2.06-3-2.06-4.88c0-1.94.69-3.6 2.06-4.98 1.37-1.37 3-2.06 4.88-2.06s3.5.69 4.88 2.06zm26.95-64.97c1.31 1.31 1.96 2.87 1.96 4.68s-.65 3.37-1.96 4.68-2.87 1.96-4.68 1.96-3.37-.65-4.68-1.96-1.96-2.87-1.96-4.68.65-3.37 1.96-4.68 2.87-1.96 4.68-1.96 3.37.65 4.68 1.96zm-8.35 21.67c.97-.94 2.2-1.41 3.67-1.41 1.54 0 2.78.47 3.72 1.41s1.41 2.18 1.41 3.72v44.75c0 1.48-.47 2.7-1.41 3.67s-2.18 1.46-3.72 1.46c-1.48 0-2.7-.49-3.67-1.46s-1.46-2.2-1.46-3.67v-44.74c0-1.55.49-2.79 1.46-3.73zm67.08 1.77c4.19 2.38 7.48 5.68 9.86 9.91 2.38 4.22 3.57 9.05 3.57 14.48 0 5.37-1.17 10.16-3.52 14.38s-5.62 7.53-9.81 9.91-8.97 3.57-14.33 3.57-10.16-1.19-14.38-3.57-7.51-5.68-9.86-9.91c-2.35-4.22-3.52-9.02-3.52-14.38 0-5.43 1.17-10.26 3.52-14.48s5.63-7.53 9.86-9.91c4.22-2.38 9.02-3.57 14.38-3.57 5.3-.01 10.04 1.19 14.23 3.57zm-23.43 7.89c-2.72 1.61-4.84 3.86-6.39 6.74-1.54 2.88-2.31 6.14-2.31 9.76s.77 6.86 2.31 9.71 3.67 5.08 6.39 6.69 5.78 2.41 9.2 2.41 6.49-.8 9.2-2.41c2.72-1.61 4.83-3.84 6.34-6.69s2.26-6.08 2.26-9.71c0-3.62-.75-6.87-2.26-9.76-1.51-2.88-3.62-5.13-6.34-6.74-2.71-1.61-5.78-2.41-9.2-2.41s-6.48.8-9.2 2.41zm-353.3 70.69a.852.852 0 0 1 -.88-.88v-15.78a.852.852 0 0 1 .88-.88h4.04c1.29 0 2.47.21 3.54.64s1.99 1.03 2.77 1.82 1.38 1.71 1.81 2.77.64 2.24.64 3.52-.21 2.47-.64 3.54-1.03 2-1.81 2.78c-.78.79-1.7 1.39-2.77 1.82s-2.25.64-3.54.64h-4.04zm.87-1.57h3.17c1.38 0 2.59-.31 3.65-.93s1.88-1.47 2.48-2.56.9-2.32.9-3.71-.3-2.63-.9-3.72-1.43-1.93-2.48-2.55c-1.06-.61-2.27-.92-3.65-.92h-3.17zm16.53-13.05c-.33 0-.61-.12-.85-.36s-.36-.53-.36-.88c0-.37.12-.67.37-.89s.54-.33.86-.33c.31 0 .6.11.84.33.25.22.37.51.37.89 0 .34-.12.64-.36.88s-.53.36-.87.36zm.02 14.62c-.27 0-.48-.08-.64-.24s-.24-.37-.24-.64v-10.53c0-.27.08-.48.24-.64s.37-.24.64-.24c.25 0 .46.08.62.24s.24.37.24.64v10.53c0 .27-.08.48-.24.64s-.37.24-.62.24zm10.66.11c-1.18 0-2.23-.27-3.14-.8s-1.63-1.27-2.14-2.21c-.52-.94-.77-2.02-.77-3.23 0-1.23.27-2.31.81-3.25s1.28-1.68 2.22-2.21 2.01-.8 3.21-.8c1.21 0 2.29.27 3.22.8.94.53 1.67 1.27 2.2 2.21s.8 2.03.82 3.25l-1.01.54c0 1.11-.23 2.09-.7 2.95-.46.86-1.1 1.53-1.92 2.02s-1.75.73-2.8.73zm.23 4.73c-1.18 0-2.22-.22-3.12-.66s-1.64-1.04-2.22-1.81c-.16-.18-.24-.37-.21-.58.02-.21.13-.38.33-.52s.41-.18.65-.13c.24.04.43.16.56.34.43.54.99.97 1.67 1.3s1.47.49 2.37.49a4.266 4.266 0 0 0 3.87-2.32c.39-.74.6-1.59.6-2.58v-3.41l.65-1.3 1.06.2v4.58c0 1.21-.27 2.3-.81 3.27s-1.27 1.73-2.2 2.29c-.94.56-2.01.84-3.2.84zm-.05-6.3c.88 0 1.66-.2 2.35-.6.68-.4 1.22-.95 1.6-1.65s.58-1.51.58-2.42-.19-1.72-.58-2.44-.92-1.26-1.6-1.66-1.46-.59-2.35-.59c-.88 0-1.67.2-2.36.59s-1.23.95-1.62 1.66-.58 1.52-.58 2.44c0 .91.19 1.72.58 2.42s.93 1.25 1.62 1.65 1.48.6 2.36.6zm10.82-13.16c-.33 0-.61-.12-.85-.36s-.36-.53-.36-.88c0-.37.12-.67.37-.89s.54-.33.86-.33c.31 0 .6.11.84.33.25.22.37.51.37.89 0 .34-.12.64-.36.88s-.52.36-.87.36zm.02 14.62c-.27 0-.48-.08-.64-.24s-.24-.37-.24-.64v-10.53c0-.27.08-.48.24-.64s.37-.24.64-.24c.25 0 .46.08.62.24s.24.37.24.64v10.53c0 .27-.08.48-.24.64s-.36.24-.62.24zm4.47-10.33c-.22 0-.41-.07-.56-.21s-.22-.32-.22-.53c0-.22.07-.41.22-.55s.34-.21.56-.21h5.72c.22 0 .41.07.56.21s.22.33.22.55c0 .21-.07.39-.22.53s-.34.21-.56.21zm5.59 10.33c-.79 0-1.5-.19-2.12-.56s-1.11-.89-1.47-1.54-.54-1.39-.54-2.23v-10.98c0-.25.08-.46.24-.63s.36-.25.62-.25.46.08.63.25c.16.16.25.37.25.63v10.98c0 .76.22 1.39.67 1.88s1.02.73 1.73.73h.61c.24 0 .43.08.58.25.15.16.22.37.22.63 0 .25-.09.46-.27.62s-.4.24-.67.24h-.48zm9.63.11c-1.15 0-2.19-.27-3.1-.82s-1.64-1.29-2.17-2.23-.8-2-.8-3.19c0-1.2.27-2.27.82-3.21s1.29-1.69 2.23-2.23c.94-.55 2.01-.82 3.19-.82s2.24.27 3.18.82 1.68 1.29 2.22 2.23c.55.94.83 2.01.84 3.21l-.7.54c0 1.08-.25 2.05-.75 2.91s-1.18 1.54-2.04 2.04c-.85.5-1.83.75-2.92.75zm.18-1.57c.87 0 1.64-.2 2.32-.61.68-.4 1.22-.96 1.62-1.67s.6-1.51.6-2.39c0-.9-.2-1.7-.6-2.4s-.94-1.26-1.62-1.67-1.46-.62-2.32-.62c-.85 0-1.62.21-2.31.62s-1.23.97-1.64 1.67c-.4.7-.61 1.5-.61 2.4 0 .88.2 1.68.61 2.39.4.71.95 1.27 1.64 1.67s1.46.61 2.31.61zm5.37 1.46c-.25 0-.46-.08-.63-.24s-.25-.36-.25-.62v-3.84l.43-1.77 1.32.34v5.28c0 .25-.08.46-.25.62-.16.15-.37.23-.62.23zm6.89 0c-.6 0-1.13-.17-1.6-.49-.47-.33-.84-.79-1.1-1.37s-.39-1.26-.39-2.02v-12.8c0-.25.08-.46.24-.62s.36-.24.62-.24.46.08.62.24.24.36.24.62v12.8c0 .64.13 1.17.39 1.57s.59.61 1 .61h.56c.22 0 .4.08.54.24s.2.36.2.62c0 .25-.09.46-.28.62s-.43.24-.73.24h-.31zm9.51 0c-.34 0-.59-.14-.74-.43-.15-.28-.17-.56-.04-.83l6.6-15.67c.17-.4.45-.61.85-.61.39 0 .67.2.83.61l6.62 15.69c.13.29.12.56-.06.83s-.42.4-.73.4c-.18 0-.34-.04-.48-.13s-.26-.22-.35-.4l-6.17-14.97h.7l-6.22 14.97c-.08.18-.18.31-.33.4-.13.09-.3.14-.48.14zm1.49-4.18.67-1.5h9.11l.67 1.5zm15.89 4.18c-.27 0-.48-.08-.63-.22-.15-.15-.22-.36-.22-.63v-10.57c0-.27.07-.48.22-.63s.36-.22.63-.22.48.07.63.22.22.36.22.63v10.57c0 .27-.08.48-.22.63s-.36.22-.63.22zm-.13-7.57c.04-.93.29-1.76.73-2.49s1.02-1.31 1.73-1.73 1.5-.63 2.37-.63c.69 0 1.22.1 1.59.29.37.2.52.48.43.85-.06.22-.16.37-.3.45s-.31.1-.52.09-.43-.03-.68-.04c-.84-.08-1.58.01-2.23.26s-1.17.62-1.55 1.13-.57 1.12-.57 1.82zm8.77-2.76c-.22 0-.41-.07-.56-.21s-.22-.32-.22-.53c0-.22.07-.41.22-.55s.34-.21.56-.21h5.72c.22 0 .41.07.56.21s.22.33.22.55c0 .21-.08.39-.22.53-.15.14-.34.21-.56.21zm5.59 10.33c-.79 0-1.5-.19-2.12-.56s-1.11-.89-1.47-1.54-.54-1.39-.54-2.23v-10.98c0-.25.08-.46.24-.63s.36-.25.62-.25a.852.852 0 0 1 .88.88v10.98c0 .76.22 1.39.67 1.88s1.03.73 1.73.73h.61c.24 0 .43.08.58.25.15.16.22.37.22.63 0 .25-.09.46-.27.62s-.4.24-.67.24h-.48zm8.51.11c-.88 0-1.76-.15-2.63-.45s-1.57-.75-2.11-1.35c-.17-.18-.23-.38-.2-.61s.14-.42.34-.58a.892.892 0 0 1 1.21.11c.36.42.83.74 1.43.97s1.25.34 1.96.34c1.11 0 1.91-.19 2.4-.57s.75-.84.76-1.38c0-.54-.25-.98-.76-1.34s-1.35-.62-2.51-.82c-1.51-.24-2.62-.66-3.32-1.26s-1.05-1.31-1.05-2.13c0-.76.2-1.4.61-1.91.4-.51.94-.89 1.62-1.15.67-.25 1.41-.38 2.22-.38 1 0 1.87.17 2.59.52.73.34 1.31.81 1.76 1.39.15.19.21.4.18.61s-.15.38-.36.52c-.18.1-.38.14-.62.1-.23-.04-.43-.15-.59-.33-.37-.43-.81-.75-1.3-.95s-1.06-.3-1.71-.3c-.82 0-1.48.17-1.98.5-.49.34-.74.76-.74 1.27 0 .34.09.64.28.9.19.25.51.48.97.67s1.1.36 1.92.49c1.12.18 2.01.45 2.66.8s1.12.76 1.39 1.23c.28.47.42.98.42 1.54 0 .7-.21 1.32-.62 1.85s-.98.95-1.71 1.25-1.57.45-2.51.45zm13.65-.11c-.34 0-.59-.14-.74-.43-.15-.28-.17-.56-.04-.83l6.6-15.67c.17-.4.45-.61.85-.61.39 0 .67.2.83.61l6.62 15.69c.13.29.12.56-.06.83s-.42.4-.73.4c-.18 0-.34-.04-.48-.13s-.26-.22-.35-.4l-6.17-14.97h.7l-6.22 14.97c-.08.18-.18.31-.33.4-.14.09-.3.14-.48.14zm1.48-4.18.67-1.5h9.11l.67 1.5zm20.52 4.29c-1.18 0-2.23-.27-3.15-.82s-1.65-1.29-2.18-2.23-.8-2-.8-3.19c0-1.2.25-2.27.76-3.21s1.2-1.69 2.09-2.23c.88-.55 1.9-.82 3.05-.82.91 0 1.75.18 2.53.54s1.45.9 2.03 1.62c.17.18.22.37.18.57s-.17.38-.38.53c-.17.12-.35.16-.55.12s-.38-.15-.53-.33c-.87-.99-1.96-1.48-3.28-1.48-.84 0-1.58.2-2.21.61-.64.4-1.13.96-1.48 1.66s-.53 1.51-.53 2.42c0 .9.19 1.7.56 2.4s.9 1.26 1.57 1.66 1.44.61 2.31.61c.58 0 1.12-.08 1.6-.24s.92-.4 1.29-.73c.18-.15.37-.23.56-.25.19-.01.37.04.54.18.18.17.28.35.3.56s-.05.39-.21.54c-1.08 1.01-2.44 1.51-4.07 1.51zm13.31 0c-1.15 0-2.19-.27-3.1-.82s-1.64-1.29-2.17-2.23-.8-2-.8-3.19c0-1.2.27-2.27.82-3.21s1.29-1.69 2.23-2.23c.94-.55 2-.82 3.19-.82 1.18 0 2.24.27 3.18.82.93.55 1.68 1.29 2.22 2.23.55.94.83 2.01.84 3.21l-.7.54c0 1.08-.25 2.05-.75 2.91s-1.18 1.54-2.04 2.04c-.85.5-1.83.75-2.92.75zm.18-1.57c.87 0 1.64-.2 2.32-.61.68-.4 1.22-.96 1.62-1.67s.59-1.51.59-2.39c0-.9-.2-1.7-.59-2.4-.4-.7-.94-1.26-1.62-1.67s-1.46-.62-2.32-.62c-.85 0-1.62.21-2.31.62s-1.23.97-1.64 1.67c-.4.7-.61 1.5-.61 2.4 0 .88.2 1.68.61 2.39.4.71.95 1.27 1.64 1.67s1.46.61 2.31.61zm5.37 1.46c-.25 0-.46-.08-.63-.24s-.25-.36-.25-.62v-3.84l.43-1.77 1.32.34v5.28c0 .25-.08.46-.25.62-.16.15-.37.23-.62.23zm9.83.11c-1.18 0-2.25-.27-3.19-.82s-1.69-1.29-2.23-2.23c-.55-.94-.82-2.01-.82-3.21 0-1.18.27-2.25.8-3.19s1.25-1.69 2.17-2.23c.91-.55 1.95-.82 3.1-.82 1 0 1.91.21 2.72.64s1.46.99 1.95 1.69v-6.6c0-.27.08-.48.25-.64s.37-.24.63-.24c.25 0 .46.08.63.24.16.16.25.37.25.64v10.6c-.03 1.17-.32 2.22-.86 3.15-.55.94-1.29 1.67-2.22 2.21-.96.54-2.01.81-3.18.81zm0-1.57c.87 0 1.64-.21 2.32-.62s1.22-.97 1.62-1.67.59-1.5.59-2.4c0-.88-.2-1.68-.59-2.39s-.94-1.27-1.62-1.67-1.46-.61-2.32-.61c-.85 0-1.62.2-2.31.61-.69.4-1.23.96-1.64 1.67s-.61 1.51-.61 2.39c0 .9.2 1.7.61 2.4s.95 1.26 1.64 1.67c.68.41 1.45.62 2.31.62zm15.85 1.57c-1.21 0-2.29-.27-3.22-.8s-1.67-1.27-2.2-2.21-.8-2.02-.8-3.23c0-1.23.25-2.31.75-3.24s1.19-1.67 2.08-2.21c.88-.54 1.9-.81 3.05-.81 1.14 0 2.13.26 2.97.77.84.52 1.5 1.23 1.96 2.14s.7 1.95.7 3.12c0 .24-.08.43-.22.57a.81.81 0 0 1 -.58.21h-9.54v-1.44h9.72l-.96.7c.01-.87-.14-1.65-.47-2.33s-.8-1.23-1.4-1.62c-.61-.39-1.33-.58-2.17-.58-.85 0-1.6.2-2.25.61-.64.4-1.14.96-1.49 1.67s-.53 1.52-.53 2.44c0 .91.2 1.72.6 2.42s.94 1.26 1.63 1.66 1.48.61 2.38.61c.54 0 1.08-.09 1.63-.28s.98-.42 1.31-.71c.17-.13.35-.21.56-.21.21-.01.39.05.54.17.19.18.29.37.3.58s-.08.39-.26.54c-.49.42-1.12.77-1.89 1.04-.77.28-1.5.42-2.2.42zm9.09-.11c-.27 0-.48-.08-.64-.24s-.24-.36-.24-.62v-10.55c0-.25.08-.46.24-.63.16-.16.37-.25.64-.25.25 0 .46.08.62.25s.24.38.24.63v10.55c0 .25-.08.46-.24.62s-.37.24-.62.24zm7.88 0c-.25 0-.46-.08-.63-.24a.836.836 0 0 1 -.25-.62v-6.46c0-1.06-.28-1.9-.83-2.53s-1.26-.93-2.13-.93c-.93 0-1.69.3-2.29.91s-.9 1.4-.9 2.37h-1.23c.03-.96.24-1.81.64-2.55s.94-1.32 1.63-1.74 1.47-.63 2.33-.63c.88 0 1.67.21 2.35.63s1.21 1.01 1.59 1.77.57 1.66.57 2.69v6.46c0 .25-.08.46-.24.62s-.36.25-.61.25zm7.83 0c-.25 0-.46-.08-.63-.24s-.25-.36-.25-.62v-6.46c0-1.06-.28-1.9-.83-2.53-.55-.62-1.27-.93-2.13-.93-.93 0-1.69.31-2.28.93s-.88 1.45-.86 2.48h-1.55c.02-1 .23-1.89.65-2.65s1-1.35 1.73-1.77 1.56-.63 2.49-.63c.88 0 1.66.21 2.35.63.68.42 1.21 1.01 1.59 1.77s.57 1.66.57 2.69v6.46c0 .25-.08.46-.24.62s-.35.25-.61.25zm9.27-.39c-.22.1-.43.12-.63.06-.2-.07-.35-.21-.47-.44l-5.01-10.37a.74.74 0 0 1 -.04-.63c.07-.19.22-.34.45-.45.22-.1.43-.12.63-.06s.34.21.45.44l4.92 10.37c.12.22.16.43.11.63s-.18.35-.41.45zm-2.49 5.73c-.12 0-.25-.03-.4-.09-.51-.22-.65-.58-.43-1.08l7.25-15.98c.22-.48.58-.61 1.08-.4.51.21.65.56.43 1.06l-7.27 15.98c-.16.34-.37.51-.66.51zm16.03-15.67c-.24 0-.43-.07-.57-.21s-.21-.32-.21-.53c0-.22.07-.41.21-.55s.33-.21.57-.21h5.86c.24 0 .43.07.57.21s.21.33.21.55c0 .21-.07.39-.21.53s-.33.21-.57.21zm2.27 10.33c-.22 0-.42-.08-.58-.24s-.25-.37-.25-.64v-11.38c0-1.05.18-1.97.54-2.76s.89-1.41 1.59-1.85 1.56-.66 2.58-.66c.25 0 .46.08.63.22.16.15.25.34.25.56s-.08.41-.25.56-.38.22-.63.22c-.67 0-1.23.15-1.67.46s-.77.73-.99 1.28-.33 1.17-.33 1.88v11.47c0 .27-.08.48-.24.64s-.37.24-.65.24zm12.28.11c-1.2 0-2.27-.27-3.21-.81s-1.68-1.28-2.22-2.22-.81-2.01-.81-3.21c0-1.21.27-2.29.81-3.23s1.28-1.68 2.22-2.22 2.01-.81 3.21-.81 2.26.27 3.2.81c.93.54 1.67 1.28 2.21 2.22s.82 2.02.83 3.23c0 1.2-.27 2.27-.82 3.21s-1.29 1.68-2.22 2.22c-.94.54-2 .81-3.2.81zm0-1.57c.87 0 1.65-.2 2.33-.61.69-.4 1.23-.96 1.62-1.66s.58-1.5.58-2.4-.19-1.7-.58-2.41-.93-1.27-1.62-1.67-1.47-.61-2.33-.61c-.87 0-1.65.2-2.33.61-.69.4-1.23.96-1.63 1.67s-.59 1.52-.59 2.41c0 .9.2 1.7.59 2.4s.94 1.26 1.63 1.66 1.46.61 2.33.61zm10.46 1.46c-.27 0-.48-.08-.63-.22-.15-.15-.22-.36-.22-.63v-10.57c0-.27.07-.48.22-.63s.36-.22.63-.22.48.07.63.22.22.36.22.63v10.57c0 .27-.08.48-.22.63s-.36.22-.63.22zm-.14-7.57c.04-.93.29-1.76.73-2.49s1.02-1.31 1.73-1.73 1.5-.63 2.37-.63c.69 0 1.22.1 1.59.29.37.2.52.48.43.85-.06.22-.16.37-.3.45s-.31.1-.52.09-.43-.03-.68-.04c-.84-.08-1.58.01-2.23.26s-1.17.62-1.55 1.13-.57 1.12-.57 1.82zm15.36-2.76c-.22 0-.41-.07-.56-.21s-.22-.32-.22-.53c0-.22.07-.41.22-.55s.34-.21.56-.21h5.72c.22 0 .41.07.56.21s.22.33.22.55c0 .21-.08.39-.22.53-.15.14-.34.21-.56.21zm5.59 10.33c-.79 0-1.5-.19-2.12-.56s-1.11-.89-1.47-1.54-.54-1.39-.54-2.23v-10.98c0-.25.08-.46.24-.63s.36-.25.62-.25a.852.852 0 0 1 .88.88v10.98c0 .76.22 1.39.67 1.88s1.03.73 1.73.73h.61c.24 0 .43.08.58.25.15.16.22.37.22.63 0 .25-.09.46-.27.62s-.4.24-.67.24h-.48zm5.09-5.01c-.27 0-.48-.08-.64-.25s-.24-.37-.24-.63v-10.78c0-.27.08-.48.24-.64s.37-.24.64-.24c.25 0 .46.08.62.24s.24.37.24.64v10.78c0 .25-.08.46-.24.63s-.36.25-.62.25zm0 5.01c-.27 0-.48-.08-.64-.24s-.24-.36-.24-.62v-10.55c0-.27.08-.48.24-.64s.37-.24.64-.24c.25 0 .46.08.62.24s.24.37.24.64v10.55c0 .25-.08.46-.24.62s-.36.24-.62.24zm9.66 0a.852.852 0 0 1 -.88-.86v-5.84c0-.93-.18-1.69-.53-2.29s-.83-1.05-1.44-1.35-1.29-.45-2.05-.45c-.73 0-1.4.14-1.99.43s-1.06.67-1.4 1.17c-.34.49-.52 1.05-.52 1.68h-1.23c.03-.94.28-1.79.76-2.53s1.12-1.33 1.91-1.75c.79-.43 1.68-.64 2.65-.64 1.06 0 2.01.22 2.85.66s1.5 1.09 1.99 1.94.73 1.89.73 3.12v5.84c0 .24-.08.44-.25.61-.16.17-.36.26-.6.26zm10.23.11c-1.21 0-2.29-.27-3.22-.8s-1.67-1.27-2.2-2.21-.8-2.02-.8-3.23c0-1.23.25-2.31.75-3.24s1.19-1.67 2.08-2.21c.88-.54 1.9-.81 3.05-.81 1.14 0 2.13.26 2.97.77.84.52 1.5 1.23 1.96 2.14s.7 1.95.7 3.12c0 .24-.08.43-.22.57a.81.81 0 0 1 -.58.21h-9.54v-1.44h9.72l-.96.7c.01-.87-.14-1.65-.47-2.33s-.8-1.23-1.4-1.62c-.61-.39-1.33-.58-2.17-.58-.85 0-1.6.2-2.25.61-.64.4-1.14.96-1.49 1.67s-.53 1.52-.53 2.44c0 .91.2 1.72.6 2.42s.94 1.26 1.63 1.66 1.48.61 2.38.61c.54 0 1.08-.09 1.63-.28s.98-.42 1.31-.71c.17-.13.35-.21.56-.21.21-.01.39.05.54.17.19.18.29.37.3.58s-.08.39-.26.54c-.49.42-1.12.77-1.89 1.04-.76.28-1.49.42-2.2.42zm15.9-.11a.852.852 0 0 1 -.88-.88v-15.78a.852.852 0 0 1 .88-.88h4.04c1.29 0 2.47.21 3.54.64s1.99 1.03 2.77 1.82 1.38 1.71 1.81 2.77.64 2.24.64 3.52-.21 2.47-.64 3.54-1.03 2-1.81 2.78c-.78.79-1.7 1.39-2.77 1.82s-2.25.64-3.54.64h-4.04zm.87-1.57h3.17c1.38 0 2.59-.31 3.65-.93a6.634 6.634 0 0 0 2.48-2.56c.6-1.08.9-2.32.9-3.71s-.3-2.63-.9-3.72a6.677 6.677 0 0 0 -2.48-2.55c-1.06-.61-2.27-.92-3.65-.92h-3.17zm20.88 1.68c-1.21 0-2.29-.27-3.22-.8s-1.67-1.27-2.2-2.21-.8-2.02-.8-3.23c0-1.23.25-2.31.75-3.24s1.19-1.67 2.08-2.21c.88-.54 1.9-.81 3.05-.81 1.14 0 2.13.26 2.97.77.84.52 1.5 1.23 1.96 2.14s.7 1.95.7 3.12c0 .24-.08.43-.22.57a.81.81 0 0 1 -.58.21h-9.54v-1.44h9.72l-.96.7c.01-.87-.14-1.65-.47-2.33s-.8-1.23-1.4-1.62c-.61-.39-1.33-.58-2.17-.58-.85 0-1.6.2-2.25.61-.64.4-1.14.96-1.49 1.67s-.53 1.52-.53 2.44c0 .91.2 1.72.6 2.42s.94 1.26 1.63 1.66 1.48.61 2.38.61c.54 0 1.08-.09 1.63-.28s.98-.42 1.31-.71c.17-.13.35-.21.56-.21.21-.01.39.05.54.17.19.18.29.37.3.58s-.08.39-.26.54c-.49.42-1.12.77-1.89 1.04-.76.28-1.5.42-2.2.42zm13.63 0c-1.15 0-2.19-.27-3.1-.82s-1.64-1.29-2.17-2.23-.8-2-.8-3.19c0-1.2.27-2.27.82-3.21s1.29-1.69 2.23-2.23c.94-.55 2-.82 3.19-.82 1.18 0 2.24.27 3.18.82.93.55 1.68 1.29 2.22 2.23.55.94.83 2.01.84 3.21l-.7.54c0 1.08-.25 2.05-.75 2.91s-1.18 1.54-2.04 2.04-1.83.75-2.92.75zm.18-1.57c.87 0 1.64-.2 2.32-.61.68-.4 1.22-.96 1.62-1.67s.59-1.51.59-2.39c0-.9-.2-1.7-.59-2.4-.4-.7-.94-1.26-1.62-1.67s-1.46-.62-2.32-.62c-.85 0-1.62.21-2.31.62s-1.23.97-1.64 1.67c-.4.7-.61 1.5-.61 2.4 0 .88.2 1.68.61 2.39.4.71.95 1.27 1.64 1.67s1.45.61 2.31.61zm5.36 1.46c-.25 0-.46-.08-.63-.24s-.25-.36-.25-.62v-3.84l.43-1.77 1.32.34v5.28c0 .25-.08.46-.25.62-.16.15-.37.23-.62.23zm3.5-10.33c-.24 0-.43-.07-.57-.21s-.21-.32-.21-.53c0-.22.07-.41.21-.55s.33-.21.57-.21h5.86c.24 0 .43.07.57.21s.21.33.21.55c0 .21-.07.39-.21.53s-.33.21-.57.21zm2.27 10.33c-.22 0-.42-.08-.58-.24s-.25-.37-.25-.64v-11.38c0-1.05.18-1.97.54-2.76s.89-1.41 1.59-1.85 1.56-.66 2.58-.66c.25 0 .46.08.63.22.16.15.25.34.25.56s-.08.41-.25.56-.38.22-.63.22c-.67 0-1.23.15-1.67.46s-.77.73-.99 1.28-.33 1.17-.33 1.88v11.47c0 .27-.08.48-.24.64s-.37.24-.65.24z"/></g></svg>