<svg clip-rule="evenodd" fill-rule="evenodd" height="790" image-rendering="optimizeQuality" shape-rendering="geometricPrecision" text-rendering="geometricPrecision" viewBox="0.01 0.009999999999763531 21936.46 6928" width="2500" xmlns="http://www.w3.org/2000/svg"><path d="M13.57 4197.66V559.67H1269.2c921.73 0 1493.77 545.76 1493.77 1743.21 0 1369.29-599.84 1894.79-1517.63 1894.79H13.57zm937.68-848.94h198.81c436.91 0 675.37-293.06 675.37-980.27 0-757.77-194.85-959.84-695.29-959.84H951.25v1940.12zM5960.6 2358.5c0 1237.79-655.63 1935.14-1501.83 1935.14-898.04 0-1497.88-707.48-1497.88-1945.27 0-1141.81 607.91-1884.49 1497.88-1884.49 1021.13 0 1501.83 934.59 1501.83 1894.62zm-2062 0c0 464.73 111.23 1045.85 560.17 1045.85 405.16 0 564.12-444.47 564.12-1045.85 0-495.12-158.96-1020.61-572.02-1005.5-425.24 0-552.27 545.74-552.27 1005.5zm4198.51-409.28c-27.82-379.05-214.6-596.22-508.52-596.22-329.78 0-528.41 358.8-528.41 1061.12 0 510.23 87.4 990.23 564.13 990.23 301.82 0 444.98-267.82 480.86-616.49h901.65c-83.43 939.75-611.67 1505.78-1366.71 1505.78-945.41 0-1517.61-737.7-1517.61-1919.86 0-1177.35 627.64-1909.9 1426.27-1909.9 874.19 0 1362.77 550.57 1438.31 1485.34zm4024.09 409.28c0 1237.79-655.63 1935.14-1501.83 1935.14-898.04 0-1497.87-707.48-1497.87-1945.27 0-1141.81 607.73-1884.49 1497.87-1884.49 1020.96 0 1501.83 934.59 1501.83 1894.62zm-2062.17 0c0 464.73 111.24 1045.85 560.34 1045.85 405.16 0 564.14-444.47 564.14-1045.85 0-495.12-158.98-1020.61-572.2-1005.5-425.08 0-552.28 545.74-552.28 1005.5zm2299.44 1839.16V559.67h937.51v2789.06h1287.57v848.94h-2225.08zM.01 5419.31h211.5l327.9 1208.43h3.78l327.9-1208.43h200v1360.7H949.21V5533.64h-3.78L592.81 6780.01H478.48L125.85 5533.64h-3.77v1246.37H.02v-1360.7zm1276.08 0h674.69v103.01h-552.8v495.46h516.58v102.85h-516.58v556.57h569.96v102.83h-691.85v-1360.7zm1174.09 103.01h-350.57v-103.01h823.36v103.01h-350.74v1257.7h-122.04v-1257.7zm806.02-103.01h152.44l402.23 1360.7h-129.61l-110.56-396.4h-476.57l-110.56 396.4h-129.61l402.25-1360.7zm287.72 861.3l-209.61-766.01h-3.79l-209.6 766.01zm436.58-861.3h121.88v1360.7H3980.5zm996.57 348.84c0-167.72-78.11-268.85-243.78-268.85-165.84 0-257.34 108.67-257.34 243.96 0 406.01 659.41 183 659.41 661.47 0 262.84-163.96 398.29-411.68 398.29-255.46 0-396.41-137.17-396.41-404.12v-40.01h121.89v51.51c0 173.39 91.51 289.79 270.74 289.79 171.51 0 293.4-85.84 293.4-276.57 0-403.96-659.41-173.39-659.41-666.97 0-213.57 139.22-360.35 375.45-360.35 253.58 0 369.79 129.79 369.79 371.85zm1795.05 0c0-167.72-78.12-268.85-243.95-268.85-165.84 0-257.35 108.67-257.35 243.96 0 406.01 659.58 183 659.58 661.47 0 262.84-163.95 398.29-411.68 398.29-255.45 0-396.57-137.17-396.57-404.12v-40.01h122.06v51.51c0 173.39 91.5 289.79 270.56 289.79 171.51 0 293.57-85.84 293.57-276.57 0-403.96-659.41-173.39-659.41-666.97 0-213.57 139.06-360.35 375.46-360.35 253.4 0 369.61 129.79 369.61 371.85zm669.02-348.84h152.45l402.07 1360.7h-129.62l-110.55-396.4h-476.41l-110.55 396.4h-129.61l402.23-1360.7zm287.74 861.3l-209.62-766.01h-3.78l-209.79 766.01zm428.84-861.3h163.96l520.16 1185.42h3.95V5419.31h121.89v1360.7h-163.95l-520.34-1185.25h-3.79v1185.25h-121.88zm1088.26 0h121.88v1360.7h-121.88zm655.63 103.01h-350.73v-103.01h823.36v103.01h-350.72v1257.7h-121.9v-1257.7zm787.13-103.01h152.62l402.07 1360.7h-129.61l-110.56-396.4h-476.4l-110.56 396.4h-129.61l402.06-1360.7zm287.91 861.3l-209.78-766.01h-3.79l-209.6 766.01h423.17l-15.27-1194.87-186.79 268.85h-91.51l142.83-268.85h135.46l15.27 1194.87zm428.68-861.3h406.01c226.78 0 352.62 129.61 352.62 341.11 0 163.79-64.9 310.56-245.84 344.9v3.95c169.62 15.27 226.79 112.44 232.44 322.06l3.79 148.67c1.88 74.34 9.61 146.78 57.34 200h-143.01c-28.66-47.55-34.33-117.93-36.21-190.38l-3.79-114.51c-7.72-240.01-51.5-316.22-270.73-316.22h-230.56v621.12h-122.06zm122.06 636.57h209.62c192.61 0 304.89-87.72 304.89-266.95 0-165.67-70.38-266.62-291.51-266.62h-223v533.56zm895.81-636.57h121.88v1360.7h-121.88zm761.54-23.01c278.29 0 434.69 215.45 434.69 703.36s-156.4 703.37-434.69 703.37c-278.11 0-434.51-215.46-434.51-703.37s156.4-703.36 434.51-703.36zm0 1303.89c194.35 0 312.63-160.17 312.63-600.53 0-440.18-118.28-600.35-312.63-600.35-194.33 0-312.44 160.17-312.44 600.35 0 440.36 118.11 600.53 312.44 600.53zm1290.33-932.03c0-167.72-78.12-268.85-243.95-268.85-165.84 0-257.35 108.67-257.35 243.96 0 406.01 659.41 183 659.41 661.47 0 262.84-163.78 398.29-411.51 398.29-255.45 0-396.57-137.17-396.57-404.12v-40.01h122.06v51.51c0 173.39 91.5 289.79 270.56 289.79 171.51 0 293.58-85.84 293.58-276.57 0-403.96-659.42-173.39-659.42-666.97 0-213.57 139.06-360.35 375.46-360.35 253.4 0 369.62 129.79 369.62 371.85zm7324.74 714.69c0-25.75-10.99-51.67-36.74-66.44-22.15-14.76-48.08-14.76-73.83-14.76h-140.25v309.88h40.52v-143.86h70.21l88.42 143.86h48.24l-96.14-143.86c55.28 0 99.58-22.15 99.58-84.82zm-143.69 55.46h-66.61v-107.12h88.58c40.69 0 81.22 3.61 81.22 51.67 0 59.07-62.67 55.46-103.19 55.46zm0-258.37c-158.63 3.6-284.13 125.48-284.13 276.74 0 151.07 125.49 276.57 284.13 276.57 154.84 0 280.35-121.71 280.35-276.57 0-151.25-125.5-276.74-280.35-276.74zm0 512.8c-132.87 0-239.84-107.12-239.84-236.06 0-129.27 106.96-232.45 239.84-236.05 132.7 0 236.06 106.77 236.06 236.05 0 128.93-103.36 236.06-236.06 236.06z" fill="#373435"/><path d="M15395.75 276.57c-77.77 915.05-542.14 2822.19 1847.92 3250.18 487.23 92.02 1579.08 509.03 1265.6 2641.24l-427.98-217.69c173.39-1066.11 110.54-1678.47-247.05-2010.5-280.53-276.57-608.77-354.17-985.07-413.05-2025.26-313.65-2032.65-1907.32-1863.04-3504.6zm560.7 346.79c0 51.68-206.53 988.68 7.37 1601.06 173.23 534.93 531.17 962.92 1626.98 1258.03 55.12 22.15 335.45 77.43 619.57 272.97 95.98 66.27 210.31 147.48 306.11 250.82 92.37 95.98 151.42 184.55 232.46 309.89 272.96 453.73 409.62 1180.44 335.79 2135.99l-402.23-202.92c180.94-1460.79-169.45-2305.62-1025.43-2663.56-121.71-51.66-287.74-99.57-427.99-132.7-1726.38-464.72-1925.52-1375.98-1667.49-3073l394.86 243.44zm531.15 328.42c-33.13 210.3-140.25 903.87 22.15 1357.61 95.97 291.33 272.8 531.16 527.56 719.15 272.97 206.7 686.03 346.78 1162.08 535.12 59.05 29.35 221.28 77.42 505.24 265.41 173.56 99.74 472.28 424.38 594.17 656.84 199.14 328.23 438.81 1198.8 335.62 2239.16l-376.31-188.15c55.28-723.11 62.84-2213.43-970.14-2829.4-129.26-77.59-280.52-147.64-435.37-214.08-1859.25-545.92-1944.07-1339.08-1730.16-2770.52l365.15 228.86zm380.09 232.28l187.99-110.56c-62.49 464.74-265.59 1531.02 402.24 1936.85 59.05 55.29 173.38 125.32 250.81 169.61 309.89 187.99 604.99 272.97 1073.33 490.67 7.55 3.6 405.84 202.91 597.94 379.91 184.38 166 361.38 317.26 549.36 700.78 181.13 346.96 350.57 800.53 306.29 2062.35l-213.75 114.34-217.85-121.73c77.59-630.91 62.67-2213.41-782.16-2866.47-114.16-77.43-224.9-173.22-479.49-302.5-132.87-51.68-302.34-140.09-453.57-199.14-1579.08-545.93-1601.23-1283.8-1449.98-2394.19l228.84 140.09zm752.45-449.97c-95.97 793.15-214.08 1490.33 77.43 2028.87 103.36 199.31 357.96 380.09 424.4 413.22 339.23 199.14 656.66 339.4 1125.16 557.09 106.95 62.66 874.35 343.01 1272.81 1088.09 154.68 357.94 291.34 627.3 261.81 1719.33l-379.92 191.77c3.6-387.47 47.9-830.23-51.68-1313.33-81.38-405.84-258.37-848.43-686.36-1272.64-110.55-103.35-368.76-291.51-630.74-427.99-132.87-51.67-324.64-169.62-468.51-225.07-1213.75-498.04-1630.58-741.46-1342.85-2515.91l398.45-243.44zm564.47-343.01c-44.29 324.64-317.25 1778.04-47.89 2323.99 73.64 177.16 250.65 350.56 305.92 398.45 358.12 276.59 612.73 365.16 1088.44 564.47 228.84 114.34 295.11 103.18 933.4 486.88 339.4 228.68 457.52 416.83 616.15 689.8 114.32 272.97 224.89 612.37 280.34 1394.52l-398.45 199.14c-14.77-217.68 77.43-866.96-247.22-1615.81-132.88-243.43-346.96-494.25-604.81-686.02-110.74-103.35-479.68-324.81-804.48-475.88-132.7-51.86-328.24-169.79-468.51-225.07-457.35-188.17-756.22-368.93-937-641.9-298.72-450.14-272.97-1103.02-114.33-2169.13l398.45-243.45zm2940.13 3803.33c-313.47-236.06-918.64-438.99-1154.69-531.17-479.49-155.03-675.03-228.84-907.48-372.71-398.46-243.44-442.59-475.88-490.65-675.04-114.16-638.28 62.84-1121.56 258.2-2615.48l-457.34 295.12c-132.72 1043.96-283.96 1892.39-95.98 2338.92 180.95 424.21 479.67 656.49 1044.14 877.96 125.15 58.88 254.42 103.18 394.51 151.24 317.42 121.71 656.66 287.73 918.82 453.75 413.04 276.57 641.72 641.72 745.23 1051.34 136.31 446.36 128.92 855.81 147.3 996.07l394.86-199.32c-73.83-608.77-132.88-1331.7-796.93-1770.66z" fill="#00afef"/></svg>