<svg fill="none" height="958" viewBox="-1.194 -1.002 845.226 324.227" width="2500" xmlns="http://www.w3.org/2000/svg" xmlns:xlink="http://www.w3.org/1999/xlink"><mask id="a" fill="#fff"><path d="m32.1 129.424c0-15-.031-29.5.007-44 .115-43.771 27.006-74.16 70.704-77.887 25.83-2.203 51.993-3.63 77.646 1.955 35.682 7.769 58.169 35.686 58.546 72.214.328 31.83.278 63.667.024 95.498-.327 40.842-28.206 71.123-68.902 75.149a213.677 213.677 0 0 1 -20.441 1.026c-37.166.097-74.333.046-111.5.046h-6.084zm171.003-4.491c-.348-5.645-.423-11.324-1.091-16.931-3.827-32.127-23.293-53.928-54.72-61.682-14.412-3.556-29.063-3.56-43.707-2.917-10.873.476-21.711 1.73-32.538 2.634v168.223c.894.246 1.655.578 2.44.655 21.928 2.136 43.879 3.41 65.672-.976 20.629-4.151 38.339-13.223 49.945-31.689 10.827-17.225 14.288-36.317 13.999-57.317zm246.857 20.469c0-17.995.122-35.496-.084-52.993-.052-4.44-.73-8.977-1.866-13.272-1.339-5.064-4.427-9.01-10.086-9.89-5.902-.919-10.864.909-14.646 5.596-3.962 4.912-5.161 10.716-5.167 16.844-.021 20.499-.009 40.998-.009 61.498v4.887c-7.365 0-14.449.033-21.532-.008-10.179-.059-8.563.909-8.586-8.369-.067-26.499-.023-52.999-.023-79.498v-24.61c7.461 0 15.399-.113 23.325.15.932.03 2.317 2.01 2.584 3.277.608 2.892.652 5.901 1.049 10.196 8.569-10.416 18.602-15.878 31.142-15.758 12.708.122 22.381 5.58 28.053 16.395 2.644-2.319 5.326-4.548 7.872-6.924 13.464-12.569 36.596-12.734 48.59-.194 7.786 8.141 10.975 18.472 11.216 29.231.554 24.819.215 49.657.221 74.488 0 .301-.235.602-.504 1.252h-29.548v-5.774c0-19.166.162-38.334-.105-57.496-.074-5.257-.983-10.615-2.334-15.708-1.341-5.055-4.624-8.857-10.36-9.53-6.3-.74-12.154.784-14.953 6.635-2.287 4.78-3.812 10.383-3.928 15.66-.443 20.157-.179 40.328-.179 60.495v5.71h-30.141zm392.791-24.978c0 11.161-.194 21.827.094 32.48.116 4.296-1.402 5.413-5.445 5.249-6.984-.284-13.998-.301-20.981.008-4.05.179-5.08-1.245-5.048-5.137.171-20.488.127-40.977.034-61.465-.015-3.298-.336-6.664-1.066-9.873-1.464-6.44-4.835-11.362-11.989-12.337-7.639-1.04-14.647 2.23-17.743 9.225-1.756 3.967-2.674 8.613-2.732 12.97-.276 20.485-.21 40.976-.045 61.463.031 3.861-.939 5.339-5.025 5.158-7.149-.316-14.333-.333-21.48.005-4.207.199-4.958-1.497-4.942-5.237.124-28.816.068-57.634.069-86.45v-20.616h26.118l1.648 13.255c6.363-7.82 13.547-12.675 22.425-14.668 22.065-4.956 41.03 7.054 44.156 29.675 2.083 15.067 1.398 30.516 1.952 46.294zm-485.216-46.349c6.188 16.857 6.549 33.625 1.455 50.311-7.242 23.726-26.889 36.929-52.458 35.895-22.999-.929-41.389-16.745-46.331-40.415-4.081-19.546-2.812-38.615 8.783-55.575 11.832-17.307 29.364-22.845 49.359-20.64 18.792 2.071 31.757 12.598 39.192 30.424zm-65.333 9.18c-.116.486-.239.97-.346 1.458-3.263 14.81-3.883 29.497 4.021 43.129 7.071 12.194 21.918 12.619 28.628.366 9.502-17.35 9.393-35.64.186-53.053-6.233-11.79-20.759-11.719-28.23-.655-1.655 2.452-2.693 5.32-4.259 8.755zm363.764 7.256v67.513c-7.529 0-15.965.073-24.396-.118-.804-.019-1.972-1.575-2.273-2.619-.638-2.211-.814-4.555-1.325-7.757-5.792 6.286-12.346 10.147-20.089 11.802-17.615 3.764-33.499-3.582-40.025-18.5-7.089-16.204-1.938-35.371 12.325-45.466 11.887-8.414 25.631-10.619 39.711-11.618 1.627-.115 3.247-.322 4.836-.484.109-10.922-4.932-16.479-15.305-17.15-10.395-.672-16.094.644-31.069 7.368-1.815-6.376-3.717-12.623-5.243-18.96-.192-.798 1.379-2.542 2.497-3.058 16.829-7.756 34.362-10.574 52.478-5.836 16.492 4.312 24.389 16.348 26.912 32.466.615 3.93.659 7.95.966 12.417zm-54.042 19.136c-1.093 1.015-2.342 1.907-3.255 3.064-6.892 8.738-3.376 22.599 6.194 24.611 7.921 1.665 17.175-2.62 19.268-10.508 1.893-7.133 1.698-14.82 2.44-22.426-9.445-.382-17.064.68-24.647 5.259z" fill="none"/><path d="m124.102 261.417h37.715c-3.285 2.566-5.606 4.542-8.088 6.29-14.46 10.184-30.548 16.268-48.205 16.626-34.286.695-68.586.687-102.881.954-.634.005-1.27-.194-2.275-.359-.093-1.699-.257-3.307-.258-4.915-.012-43.145-.305-86.293.116-129.434.224-22.779 7.824-43.202 23.882-61.804v159.115c0 10.798 2.727 13.525 13.537 13.525 28.652.002 57.305.001 86.457.001zm360.849-8.957v39.765h-20.698c0-1.767.005-3.54-.001-5.312-.043-13.829.071-27.662-.192-41.487-.163-8.534-3.984-13.211-9.907-13.097-6.074.117-11.032 5.914-11.133 13.663-.177 13.496-.062 26.995-.069 40.492v5.755h-20.558v-75.536h17.407l.724 8.704c6.046-6.87 12.787-10.581 21.144-10.52 8.499.062 14.986 3.747 19.481 11.647 5.233-6.335 11.129-10.726 19.292-11.478 10.686-.984 19.531 3.933 23.439 13.898 1.259 3.211 2.372 6.73 2.418 10.124.239 17.61.112 35.225.112 53.18h-20.157c0-5.867.014-11.647-.003-17.427-.026-9.163-.052-18.327-.13-27.491-.014-1.657-.128-3.343-.46-4.961-1.466-7.151-4.799-10.343-10.295-10.017-5.387.319-9.494 4.668-10.2 11.117-.307 2.803-.157 5.656-.214 8.981zm316.392-17.234c4.521 14.723 4.621 28.924-2.231 42.565-6.146 12.237-18.846 18.556-31.458 15.587-4.021-.947-7.691-3.386-11.998-5.36v34.207h-21.021v-105.484h17.921l.936 8.478c8.346-9.154 17.993-12.254 29.175-9.132 9.634 2.69 15.075 9.827 18.676 19.139zm-43.086 36.274c6.919 8.55 17.37 7.542 21.884-2.415 4.24-9.353 4.192-19.052.298-28.539-2.461-5.995-6.669-8.604-12.299-8.254-5.896.367-9.899 3.864-11.102 9.185-2.203 9.735-2.772 19.657 1.219 30.023zm-452.672 20.885c-.635-2.125-1.001-4.079-1.02-6.037-.138-13.827.044-27.663-.389-41.48-.256-8.147-4.149-12.337-10.165-12.426-6.481-.096-11.761 4.902-12.025 12.714-.462 13.647-.252 27.317-.32 40.978-.01 1.967-.001 3.934-.001 6.185h-20.931v-75.542h17.602l.834 6.887c5.029-2.636 10.036-6.628 15.67-7.952 15.549-3.653 28.793 5.501 29.916 21.795 1.243 18.042.284 36.235.284 55.048-6.19 0-12.607 0-19.455-.17zm380.513-170.961v-75.867c2.177 0 4.08-.046 5.98.009 8.094.235 16.186.5 24.28.754.202 7.947.559 15.895.58 23.843.072 27.492-.08 54.985.134 82.475.036 4.536-1.378 5.692-5.682 5.53-8.272-.31-16.564-.09-25.292-.09zm-283.448 137.007v33.796h-17.717l-1.08-4.765c-5.488 2.135-10.75 5.124-16.373 6.168-11.063 2.055-20.443-3.198-24.666-12.583-4.475-9.945-1.951-22.299 6.118-29.228 7.557-6.488 16.776-8.487 26.353-9.374 1.944-.181 3.902-.22 5.805-.321.17-7.536-2.731-11.635-9.633-11.467-7.113.174-14.184 2.007-22.004 3.227l-3.66-12.212c9.277-5.57 19.311-7.392 29.687-6.605 18.345 1.391 26.528 10.943 27.149 30.868.125 3.995.02 7.998.021 12.496zm-26.689 18.706c6.101-3.259 7.328-8.611 5.244-21.616-4.502 1.107-9.145 1.682-13.312 3.407-5.905 2.444-8.093 8.837-5.733 14.536 1.996 4.823 6.441 6.181 13.801 3.673zm282.44-54.589c8.584-7.119 18.889-8.019 29.152-7.479 17.991.946 27.156 11.352 27.378 30.059.148 12.481.083 24.964.207 37.445.032 3.123.428 6.242.681 9.697h-18.504l-1.158-4.912c-5.247 2.107-10.329 5.061-15.783 6.149-11.43 2.28-21.33-3.14-25.398-12.818-4.444-10.574-1.43-22.888 7.357-29.752 7.372-5.759 16.096-7.623 25.132-8.49 1.967-.189 3.951-.203 5.886-.296.602-7.167-2.728-11.758-9.747-11.524-7.108.238-14.16 2.114-21.798 3.364-.855-2.859-2.084-6.967-3.405-11.443zm29.692 33.939c-2.843.88-5.869 1.398-8.491 2.718-5.048 2.543-7.025 7.618-5.475 13.119 1.189 4.225 4.107 6.278 8.494 6.255 5.357-.028 10.514-3.655 11.331-8.746.694-4.325.504-8.792.714-13.406-2.405 0-4.04 0-6.573.06zm-139.347-23.344c7.08-13.043 17.871-19.095 32.187-18.08 14.616 1.037 24.238 10.313 26.923 25.656.911 5.205.744 10.599 1.091 15.905.228 3.48-1.39 4.47-4.792 4.424-13.139-.179-26.283-.073-39.372-.073-1.204 6.583 2.707 13.745 9.953 14.999 7.171 1.242 14.746.238 22.139.046 1.587-.041 3.154-.828 5.281-1.425l3.177 14.522c-8.566 4.098-17.593 4.917-26.698 4.654-34.377-.995-39.699-33.907-32.044-55.729.549-1.563 1.306-3.054 2.155-4.899zm39.246 12.766c1.954-3.818.249-10.051-3.663-13.395-3.788-3.238-9.767-3.466-13.76-.306-4.241 3.356-6.212 7.883-6.544 13.768 7.919 0 15.495 0 23.967-.067zm246.878 46.728h-14.092v-75.959h20.642v75.959zm-132.132-292.637c10.805 1.813 16.818 9.765 15.008 19.436-1.836 9.813-10.321 15.244-20.448 13.088-7.903-1.683-12.531-8.005-12.336-16.854.176-7.995 5.209-13.965 12.958-15.302 1.462-.252 2.956-.313 4.818-.368zm120.84 205.036c-4.236-4.119-4.565-8.765-2.744-13.576 1.488-3.931 4.785-5.836 8.905-6.167 4.657-.373 8.65 1.018 10.95 5.321 2.293 4.289 2.15 8.712-.771 12.69-3.009 4.098-7.357 4.849-12.044 3.887-1.406-.289-2.676-1.246-4.296-2.155z" fill="none"/><path d="m203.103 125.43c.29 20.503-3.172 39.595-13.999 56.82-11.606 18.466-29.316 27.538-49.945 31.689-21.793 4.386-43.744 3.112-65.671.976-.786-.077-1.547-.409-2.44-.655v-168.223c10.826-.905 21.664-2.158 32.537-2.634 14.644-.643 29.295-.639 43.707 2.917 31.427 7.754 50.893 29.555 54.72 61.682.668 5.607.743 11.286 1.091 17.428zm-56.052-47.57c-13.185-8.313-27.438-8.678-41.908-6.282v116.978c6.514 0 12.678.434 18.762-.082 17.611-1.496 30.482-10.263 37.203-26.719 7.802-19.105 8.242-38.867 3.163-58.746-2.59-10.142-7.892-18.631-17.22-25.15z" fill="none"/><path d="m147.341 78.078c9.038 6.3 14.34 14.79 16.93 24.931 5.079 19.879 4.639 39.641-3.163 58.746-6.721 16.456-19.592 25.223-37.203 26.719-6.084.516-12.248.082-18.762.082v-116.978c14.47-2.396 28.723-2.031 42.198 6.5z" fill="none"/></mask><path d="m32.1 129.424c0-15-.031-29.5.007-44 .115-43.771 27.006-74.16 70.704-77.887 25.83-2.203 51.993-3.63 77.646 1.955 35.682 7.769 58.169 35.686 58.546 72.214.328 31.83.278 63.667.024 95.498-.327 40.842-28.206 71.123-68.902 75.149a213.677 213.677 0 0 1 -20.441 1.026c-37.166.097-74.333.046-111.5.046h-6.084zm171.003-4.491c-.348-5.645-.423-11.324-1.091-16.931-3.827-32.127-23.293-53.928-54.72-61.682-14.412-3.556-29.063-3.56-43.707-2.917-10.873.476-21.711 1.73-32.538 2.634v168.223c.894.246 1.655.578 2.44.655 21.928 2.136 43.879 3.41 65.672-.976 20.629-4.151 38.339-13.223 49.945-31.689 10.827-17.225 14.288-36.317 13.999-57.317z" fill="#444343"/><path d="m449.96 145.402c0-17.995.122-35.496-.084-52.993-.052-4.44-.73-8.977-1.866-13.272-1.339-5.064-4.427-9.01-10.086-9.89-5.902-.919-10.864.909-14.646 5.596-3.962 4.912-5.161 10.716-5.167 16.844-.021 20.499-.009 40.998-.009 61.498v4.887c-7.365 0-14.449.033-21.532-.008-10.179-.059-8.563.909-8.586-8.369-.067-26.499-.023-52.999-.023-79.498v-24.61c7.461 0 15.399-.113 23.325.15.932.03 2.317 2.01 2.584 3.277.608 2.892.652 5.901 1.049 10.196 8.569-10.416 18.602-15.878 31.142-15.758 12.708.122 22.381 5.58 28.053 16.395 2.644-2.319 5.326-4.548 7.872-6.924 13.464-12.569 36.596-12.734 48.59-.194 7.786 8.141 10.975 18.472 11.216 29.231.554 24.819.215 49.657.221 74.488 0 .301-.235.602-.504 1.252h-29.548v-5.774c0-19.166.162-38.334-.105-57.496-.074-5.257-.983-10.615-2.334-15.708-1.341-5.055-4.624-8.857-10.36-9.53-6.3-.74-12.154.784-14.953 6.635-2.287 4.78-3.812 10.383-3.928 15.66-.443 20.157-.179 40.328-.179 60.495v5.71h-30.141zm392.791-24.978c0 11.161-.194 21.827.094 32.48.116 4.296-1.402 5.413-5.445 5.249-6.984-.284-13.998-.301-20.981.008-4.05.179-5.08-1.245-5.048-5.137.171-20.488.127-40.977.034-61.465-.015-3.298-.336-6.664-1.066-9.873-1.464-6.44-4.835-11.362-11.989-12.337-7.639-1.04-14.647 2.23-17.743 9.225-1.756 3.967-2.674 8.613-2.732 12.97-.276 20.485-.21 40.976-.045 61.463.031 3.861-.939 5.339-5.025 5.158-7.149-.316-14.333-.333-21.48.005-4.207.199-4.958-1.497-4.942-5.237.124-28.816.068-57.634.069-86.45v-20.616h26.118l1.648 13.255c6.363-7.82 13.547-12.675 22.425-14.668 22.065-4.956 41.03 7.054 44.156 29.675 2.083 15.067 1.398 30.516 1.952 46.294zm-485.216-46.349c6.188 16.857 6.549 33.625 1.455 50.311-7.242 23.726-26.889 36.929-52.458 35.895-22.999-.929-41.389-16.745-46.331-40.415-4.081-19.546-2.812-38.615 8.783-55.575 11.832-17.307 29.364-22.845 49.359-20.64 18.792 2.071 31.757 12.598 39.192 30.424zm-65.333 9.18c-.116.486-.239.97-.346 1.458-3.263 14.81-3.883 29.497 4.021 43.129 7.071 12.194 21.918 12.619 28.628.366 9.502-17.35 9.393-35.64.186-53.053-6.233-11.79-20.759-11.719-28.23-.655-1.655 2.452-2.693 5.32-4.259 8.755zm363.764 7.256v67.513c-7.529 0-15.965.073-24.396-.118-.804-.019-1.972-1.575-2.273-2.619-.638-2.211-.814-4.555-1.325-7.757-5.792 6.286-12.346 10.147-20.089 11.802-17.615 3.764-33.499-3.582-40.025-18.5-7.089-16.204-1.938-35.371 12.325-45.466 11.887-8.414 25.631-10.619 39.711-11.618 1.627-.115 3.247-.322 4.836-.484.109-10.922-4.932-16.479-15.305-17.15-10.395-.672-16.094.644-31.069 7.368-1.815-6.376-3.717-12.623-5.243-18.96-.192-.798 1.379-2.542 2.497-3.058 16.829-7.756 34.362-10.574 52.478-5.836 16.492 4.312 24.389 16.348 26.912 32.466.615 3.93.659 7.95.966 12.417zm-54.042 19.136c-1.093 1.015-2.342 1.907-3.255 3.064-6.892 8.738-3.376 22.599 6.194 24.611 7.921 1.665 17.175-2.62 19.268-10.508 1.893-7.133 1.698-14.82 2.44-22.426-9.445-.382-17.064.68-24.647 5.259zm-477.822 151.77h37.715c-3.285 2.566-5.606 4.542-8.088 6.29-14.46 10.184-30.548 16.268-48.205 16.626-34.286.695-68.586.687-102.881.954-.634.005-1.27-.194-2.275-.359-.093-1.699-.257-3.307-.258-4.915-.012-43.145-.305-86.293.116-129.434.224-22.779 7.824-43.202 23.882-61.804v159.115c0 10.798 2.727 13.525 13.537 13.525 28.652.002 57.305.001 86.457.001z" fill="#1ccc99"/><path d="m484.951 252.46v39.765h-20.698c0-1.767.005-3.54-.001-5.312-.043-13.829.071-27.662-.192-41.487-.163-8.534-3.984-13.211-9.907-13.097-6.074.117-11.032 5.914-11.133 13.663-.177 13.496-.062 26.995-.069 40.492v5.755h-20.558v-75.536h17.407l.724 8.704c6.046-6.87 12.787-10.581 21.144-10.52 8.499.062 14.986 3.747 19.481 11.647 5.233-6.335 11.129-10.726 19.292-11.478 10.686-.984 19.531 3.933 23.439 13.898 1.259 3.211 2.372 6.73 2.418 10.124.239 17.61.112 35.225.112 53.18h-20.157c0-5.867.014-11.647-.003-17.427-.026-9.163-.052-18.327-.13-27.491-.014-1.657-.128-3.343-.46-4.961-1.466-7.151-4.799-10.343-10.295-10.017-5.387.319-9.494 4.668-10.2 11.117-.307 2.803-.157 5.656-.214 8.981zm316.392-17.234c4.521 14.723 4.621 28.924-2.231 42.565-6.146 12.237-18.846 18.556-31.458 15.587-4.021-.947-7.691-3.386-11.998-5.36v34.207h-21.021v-105.484h17.921l.936 8.478c8.346-9.154 17.993-12.254 29.175-9.132 9.634 2.69 15.075 9.827 18.676 19.139zm-43.086 36.274c6.919 8.55 17.37 7.542 21.884-2.415 4.24-9.353 4.192-19.052.298-28.539-2.461-5.995-6.669-8.604-12.299-8.254-5.896.367-9.899 3.864-11.102 9.185-2.203 9.735-2.772 19.657 1.219 30.023zm-452.672 20.885c-.635-2.125-1.001-4.079-1.02-6.037-.138-13.827.044-27.663-.389-41.48-.256-8.147-4.149-12.337-10.165-12.426-6.481-.096-11.761 4.902-12.025 12.714-.462 13.647-.252 27.317-.32 40.978-.01 1.967-.001 3.934-.001 6.185h-20.931v-75.542h17.602l.834 6.887c5.029-2.636 10.036-6.628 15.67-7.952 15.549-3.653 28.793 5.501 29.916 21.795 1.243 18.042.284 36.235.284 55.048-6.19 0-12.607 0-19.455-.17z" fill="#4b4a4a"/><path d="m686.098 121.424v-75.867c2.177 0 4.08-.046 5.98.009 8.094.235 16.186.5 24.28.754.202 7.947.559 15.895.58 23.843.072 27.492-.08 54.985.134 82.475.036 4.536-1.378 5.692-5.682 5.53-8.272-.31-16.564-.09-25.292-.09z" fill="#1ccc99"/><path d="m402.65 258.431v33.796h-17.717l-1.08-4.765c-5.488 2.135-10.75 5.124-16.373 6.168-11.063 2.055-20.443-3.198-24.666-12.583-4.475-9.945-1.951-22.299 6.118-29.228 7.557-6.488 16.776-8.487 26.353-9.374 1.944-.181 3.902-.22 5.805-.321.17-7.536-2.731-11.635-9.633-11.467-7.113.174-14.184 2.007-22.004 3.227l-3.66-12.212c9.277-5.57 19.311-7.392 29.687-6.605 18.345 1.391 26.528 10.943 27.149 30.868.125 3.995.02 7.998.021 12.496zm-26.689 18.706c6.101-3.259 7.328-8.611 5.244-21.616-4.502 1.107-9.145 1.682-13.312 3.407-5.905 2.444-8.093 8.837-5.733 14.536 1.996 4.823 6.441 6.181 13.801 3.673zm282.44-54.589c8.584-7.119 18.889-8.019 29.152-7.479 17.991.946 27.156 11.352 27.378 30.059.148 12.481.083 24.964.207 37.445.032 3.123.428 6.242.681 9.697h-18.504l-1.158-4.912c-5.247 2.107-10.329 5.061-15.783 6.149-11.43 2.28-21.33-3.14-25.398-12.818-4.444-10.574-1.43-22.888 7.357-29.752 7.372-5.759 16.096-7.623 25.132-8.49 1.967-.189 3.951-.203 5.886-.296.602-7.167-2.728-11.758-9.747-11.524-7.108.238-14.16 2.114-21.798 3.364-.855-2.859-2.084-6.967-3.405-11.443zm29.692 33.939c-2.843.88-5.869 1.398-8.491 2.718-5.048 2.543-7.025 7.618-5.475 13.119 1.189 4.225 4.107 6.278 8.494 6.255 5.357-.028 10.514-3.655 11.331-8.746.694-4.325.504-8.792.714-13.406-2.405 0-4.04 0-6.573.06zm-139.347-23.344c7.08-13.043 17.871-19.095 32.187-18.08 14.616 1.037 24.238 10.313 26.923 25.656.911 5.205.744 10.599 1.091 15.905.228 3.48-1.39 4.47-4.792 4.424-13.139-.179-26.283-.073-39.372-.073-1.204 6.583 2.707 13.745 9.953 14.999 7.171 1.242 14.746.238 22.139.046 1.587-.041 3.154-.828 5.281-1.425l3.177 14.522c-8.566 4.098-17.593 4.917-26.698 4.654-34.377-.995-39.699-33.907-32.044-55.729.549-1.563 1.306-3.054 2.155-4.899zm39.246 12.766c1.954-3.818.249-10.051-3.663-13.395-3.788-3.238-9.767-3.466-13.76-.306-4.241 3.356-6.212 7.883-6.544 13.768 7.919 0 15.495 0 23.967-.067zm246.878 46.728h-14.092v-75.959h20.642v75.959z" fill="#4b4a4a"/><path d="m702.738 0c10.805 1.813 16.818 9.765 15.008 19.436-1.836 9.813-10.321 15.244-20.448 13.088-7.903-1.683-12.531-8.005-12.336-16.854.176-7.995 5.209-13.965 12.958-15.302 1.462-.252 2.956-.313 4.818-.368z" fill="#1ccc99"/><path d="m823.578 205.036c-4.236-4.119-4.565-8.765-2.744-13.576 1.488-3.931 4.785-5.836 8.905-6.167 4.657-.373 8.65 1.018 10.95 5.321 2.293 4.289 2.15 8.712-.771 12.69-3.009 4.098-7.357 4.849-12.044 3.887-1.406-.289-2.676-1.246-4.296-2.155z" fill="#4b4a4a"/><path d="m203.103 125.43c.29 20.503-3.172 39.595-13.999 56.82-11.606 18.466-29.316 27.538-49.945 31.689-21.793 4.386-43.744 3.112-65.671.976-.786-.077-1.547-.409-2.44-.655v-168.223c10.826-.905 21.664-2.158 32.537-2.634 14.644-.643 29.295-.639 43.707 2.917 31.427 7.754 50.893 29.555 54.72 61.682.668 5.607.743 11.286 1.091 17.428zm-56.052-47.57c-13.185-8.313-27.438-8.678-41.908-6.282v116.978c6.514 0 12.678.434 18.762-.082 17.611-1.496 30.482-10.263 37.203-26.719 7.802-19.105 8.242-38.867 3.163-58.746-2.59-10.142-7.892-18.631-17.22-25.15z" fill="#fdfdfd"/><path d="m147.341 78.078c9.038 6.3 14.34 14.79 16.93 24.931 5.079 19.879 4.639 39.641-3.163 58.746-6.721 16.456-19.592 25.223-37.203 26.719-6.084.516-12.248.082-18.762.082v-116.978c14.47-2.396 28.723-2.031 42.198 6.5z" fill="#444343"/><path d="m147.292 46.32-.12.485zm-43.707-2.917-.022-.5zm-32.538 2.634-.041-.498-.459.038v.46zm0 168.223h-.5v.38l.367.102zm2.44.655.05-.498zm65.672-.976.099.491zm-34.016-25.383h-.5v.5h.5zm18.762-.082.042.498zm37.203-26.719-.463-.189zm41.401-53.813c-1.925-16.15-7.784-29.732-17.133-40.253-9.35-10.521-22.166-17.957-37.965-21.854l-.239.97c15.629 3.857 28.259 11.198 37.456 21.548s14.984 23.732 16.888 39.708zm-55.098-62.107c-14.484-3.574-29.195-3.575-43.848-2.932l.043 1c14.636-.643 29.227-.635 43.566 2.902zm-43.848-2.932c-10.886.477-21.753 1.733-32.557 2.636l.083.997c10.848-.907 21.657-2.158 32.517-2.634zm-33.016 3.134v168.223h1v-.327-.328-.327-.327-.327-.327-.327-.327-.327-.327-.327-.327-.327-.327-.327-.326-.327-.327-.327-.327-.327-.327-.327-.327-.327-.327-.327-.327-.327-.327-.327-.327-.327-.327-.326-.327-.327-.327-.327-.327-.327-.327-.327-.327-.327-.326-.327-.327-.327-.327-.327-.327-.327-.327-.326-.327-.327-.327-.327-.327-.327-.327-.327-.326-.327-.327-.327-.327-.327-.327-.327-.326-.327-.327-.327-.327-.327-.327-.327-.326-.327-.327-.327-.327-.327-.327-.327-.327-.326-.327-.327-.327-.327-.327-.327-.327-.327-.326-.327-.327-.327-.327-.327-.327-.327-.327-.327-.327-.326-.327-.327-.327-.327-.327-.327-.327-.327-.327-.327-.327-.327-.327-.327-.327-.327-.326-.327-.327-.327-.327-.327-.327-.327-.327-.327-.327-.327-.327-.327-.327-.327-.327-.327-.327-.328-.327-.327-.327-.327-.327-.327-.327-.327-.327-.327-.327-.327-.327-.328-.327-.327-.327-.327-.327-.327-.327-.328-.327-.327-.327-.327-.327-.328-.327-.327-.327-.327-.328-.327-.327-.327-.328-.327-.327-.327-.328-.327-.327-.327-.328-.327-.327-.328-.327-.327-.328-.327-.327-.328-.327-.327-.328-.327-.328-.327-.327-.328-.327-.328-.327-.328-.327-.328-.327-.328-.327-.328-.327-.328-.327-.328-.327-.328-.327-.328-.328-.327-.328-.327-.328-.328-.327-.328-.328-.327-.328-.328-.327-.328-.328-.328-.327-.328-.328-.328-.327-.328-.328-.328-.328-.327-.328-.328-.328-.328-.328-.328-.328-.328-.328-.327-.328-.328-.328-.328-.328-.328-.328-.328-.329-.328-.328-.328-.328-.328-.328-.328-.328-.329-.328-.328-.328-.328-.329-.328-.328-.328-.329-.328-.328-.329-.328-.328-.329-.328-.328-.329-.328-.329-.328-.328-.329-.328-.329-.328-.329-.329-.328-.329-.328-.329-.328-.329-.329-.328-.329-.329-.328-.329-.329-.329-.328-.329-.329-.329-.328-.329-.329-.329-.329-.329-.329-.329-.329-.329-.329-.328-.33-.329-.329-.329-.329-.329-.329-.329-.329-.329-.329-.33-.329-.33-.328-.33-.329-.33-.328-.33-.33-.328-.33-.33-.329-.329-.33-.329-.33-.329-.33-.329-.33-.329-.33-.33-.329-.33-.33-.329-.33-.33-.329-.33-.33-.33-.33-.329-.33-.33-.33-.33-.33-.33-.33-.33-.33-.33-.33-.33-.33-.33-.33-.33-.33-.33-.33-.33-.33-.33-.331-.33-.33-.331-.33-.33-.331-.33-.331-.33-.331-.33-.331-.33-.331-.33-.331-.331-.33-.331-.331-.33-.332-.33-.331-.33-.332-.33-.331-.331-.331-.331-.331-.331-.331-.331-.331-.331-.331-.331-.331-.332-.33-.332-.331-.331-.332-.331-.331-.332-.331-.331-.332-.331-.332-.331-.332-.331-.332-.331-.332-.332-.331-.332-.332-.331-.332-.332-.332-.331-.332-.332-.332-.332-.332-.332-.332-.332-.332-.332-.332-.332-.332-.332-.333-.332-.332-.332-.333-.332-.332-.333-.332-.332-.333-.332-.333-.332-.333-.332-.333-.333-.332-.333-.333zm.367 168.705c.44.121.82.255 1.247.387.409.126.834.24 1.278.283l.097-.995c-.341-.033-.69-.123-1.08-.244-.375-.115-.822-.27-1.276-.395zm2.525.67c21.934 2.138 43.948 3.418 65.819-.982l-.197-.981c-21.716 4.37-43.604 3.104-65.525.968zm65.819-.982c20.715-4.169 38.568-13.297 50.269-31.914l-.846-.532c-11.511 18.314-29.079 27.332-49.62 31.465zm-34.615-142.852v116.978h1v-.228-.228-.228-.228-.227-.228-.228-.228-.228-.228-.228-.227-.228-.228-.228-.228-.228-.228-.227-.228-.228-.228-.228-.227-.228-.228-.228-.228-.227-.228-.228-.228-.228-.227-.228-.228-.228-.228-.227-.228-.228-.228-.227-.228-.228-.228-.227-.228-.228-.228-.227-.228-.228-.228-.227-.228-.228-.228-.227-.228-.228-.228-.227-.228-.228-.227-.228-.228-.228-.227-.228-.228-.228-.227-.228-.228-.227-.228-.228-.228-.227-.228-.228-.227-.228-.228-.227-.228-.228-.228-.227-.228-.228-.227-.228-.228-.227-.228-.228-.228-.227-.228-.228-.227-.228-.228-.227-.228-.228-.228-.227-.228-.228-.227-.228-.228-.227-.228-.228-.228-.227-.228-.228-.227-.228-.228-.227-.228-.228-.228-.227-.228-.228-.227-.228-.228-.228-.227-.228-.228-.227-.228-.228-.228-.227-.228-.228-.227-.228-.228-.228-.227-.228-.228-.228-.227-.228-.228-.228-.227-.228-.228-.228-.227-.228-.228-.228-.227-.228-.228-.228-.228-.227-.228-.228-.228-.227-.228-.228-.228-.228-.227-.228-.228-.228-.228-.227-.228-.228-.228-.228-.228-.227-.228-.228-.228-.228-.228-.227-.228-.228-.228-.228-.228-.228-.227-.228-.228-.228-.228-.228-.228-.228-.228-.227-.228-.228-.228-.228-.228-.228-.228-.228-.228-.228-.228-.228-.228-.228-.228-.228-.227-.228-.228-.228-.228-.228-.228-.228-.228-.228-.229-.228-.228-.228-.228-.228-.228-.228-.228-.228-.228-.228-.228-.228-.228-.228-.229-.228-.228-.228-.228-.228-.228-.228-.229-.228-.228-.228-.228-.228-.229-.228-.228-.228-.228-.228-.229-.228-.228-.228-.229-.228-.228-.228-.229-.228-.228-.228-.229-.228-.228-.229-.228-.228-.229-.228-.228-.229-.228-.228-.229-.228-.229-.228-.228-.229-.228-.229-.228-.228-.229-.228-.229-.228-.229-.228-.229-.228-.229-.228-.229-.228-.229-.228-.229-.228-.229-.228-.229-.229-.228-.229-.228-.229-.229-.228-.229-.228-.229-.229-.228-.229-.229-.229-.228-.229-.229-.228-.229-.229-.229-.228-.229-.229-.229-.229-.228-.229-.229-.229-.229-.228-.229-.229-.229-.229-.229-.229-.229-.229-.229-.228-.229-.229-.229-.229-.229-.229-.229-.229-.229-.229-.229-.229-.23-.229-.229-.229-.229-.229-.23-.228-.23-.229-.229-.229-.23-.228-.23-.229-.229-.23-.228-.23-.229-.23-.229-.229-.23-.228-.23-.23-.229-.229-.23-.229-.229-.23-.229-.23-.229-.23-.229-.229-.23-.229-.23-.229-.23-.23-.229-.23-.229-.23-.229-.23-.23-.229-.23-.23-.229-.23-.23-.229-.23-.23-.229-.23-.23-.23-.23-.229-.23-.23-.23-.23-.229-.23-.23-.23-.23-.23-.23-.23-.23-.23-.23-.23-.23-.23-.23-.23-.23-.23-.23-.23-.23-.23-.23-.23-.23-.23-.23-.23-.231-.23-.23-.23-.231-.23-.23-.231-.23-.23-.231-.23-.23-.231-.23-.23-.231-.23-.231-.23-.231-.23-.231-.23-.231-.23-.231zm.5 117.478c6.465 0 12.694.435 18.804-.084l-.085-.997c-6.057.515-12.156.081-18.719.081zm18.804-.084c17.785-1.511 30.827-10.385 37.624-27.028l-.926-.378c-6.644 16.27-19.345 24.928-36.783 26.409zm37.624-27.028c7.849-19.218 8.286-39.092 3.185-59.059l-.969.248c5.056 19.791 4.614 39.442-3.142 58.433zm-129.47-32.52h-1zm.006-44-1-.003zm70.703-77.887.085.996zm77.646 1.955-.213.978zm58.546 72.214-1 .01zm.024 95.498-1-.008zm-68.902 75.149-.099-.995zm-20.441 1.026-.003-1zm-117.584.046h-1v1h1zm171.003-128.492 1-.014v-.023l-.002-.024zm246.857 20.469h-1zm-.084-52.993 1-.011zm-1.866-13.272.967-.256zm-10.086-9.89-.153.988zm-14.646 5.596.778.628zm-5.167 16.844h1zm-.009 61.498h-1zm0 4.887v1h1v-1zm-21.532-.008-.006 1zm-8.586-8.369-1 .002zm-.023-104.109v-1h-1v1zm23.325.15-.033 1zm2.584 3.278.978-.206zm1.049 10.196-.996.092.224 2.42 1.544-1.877zm31.142-15.758.01-1zm28.053 16.395-.886.464.59 1.125.955-.837zm7.872-6.924-.682-.731zm48.59-.194-.723.692zm11.216 29.231-1 .023zm.221 74.488h-1zm-.504 1.252v1h.667l.256-.617zm-29.548 0h-1v1h1zm0-5.774h-1zm-.105-57.496.999-.015zm-2.334-15.708.967-.256zm-10.36-9.53.117-.994zm-14.953 6.635.902.431zm-3.928 15.66 1 .022zm-.179 60.495h-1zm0 5.71v1h1v-1zm-30.141 0h-1v1h1zm392.79-37.268h1v-.035zm.094 32.48 1-.027zm-5.445 5.249-.04.999zm-20.981.008.044.999zm-5.048-5.137-1-.009zm.034-61.465 1-.005zm-1.066-9.873-.975.221zm-11.988-12.337.135-.99zm-17.743 9.225.915.404zm-2.732 12.97 1 .013zm-.045 61.463 1-.008zm-5.025 5.158.044-.999zm-21.48.005-.047-.999zm-4.942-5.237-1-.004zm.069-86.45h-1zm0-20.615v-1h-1v1zm26.118 0 .992-.124-.109-.876h-.883zm1.648 13.255-.993.123.29 2.326 1.479-1.818zm22.425-14.668-.219-.976zm44.156 29.675.991-.137zm-483.264-.055.939-.345-.007-.02-.009-.02zm1.455 50.311-.956-.292zm-52.458 35.895.04-.999zm-46.331-40.415.979-.204zm8.783-55.575-.826-.564zm49.359-20.64.11-.995zm-26.141 39.604-.91-.415-.04.089-.023.095zm-.346 1.458-.977-.215zm4.021 43.129.866-.502zm28.628.366-.877-.48zm.186-53.053-.884.467zm-28.23-.655.829.56zm359.505 16.011h1v-.034l-.003-.034zm0 67.513v1h1v-1zm-24.396-.118.023-1zm-2.273-2.619-.961.277zm-1.325-7.757.987-.158-.325-2.037-1.398 1.517zm-20.089 11.802.209.978zm-40.025-18.5-.916.401zm12.325-45.466-.578-.817zm39.711-11.618.071.998zm4.836-.484.101.995.891-.09.008-.895zm-15.305-17.15.064-.998zm-31.069 7.368-.962.274.317 1.112 1.055-.474zm-5.243-18.96-.972.234zm2.497-3.058.419.908zm52.478-5.836-.253.967zm26.912 32.466-.988.154zm-53.076 31.553-.517-.856-.088.053-.076.07zm-3.255 3.064-.785-.62zm6.194 24.611.205-.979zm19.268-10.508-.967-.256zm2.44-22.426.995.097.103-1.054-1.058-.043zm-464.754 157.029.616.788 2.289-1.788h-2.905zm-8.088 6.29.576.818zm-48.205 16.626.02 1zm-102.881.954-.008-1zm-2.275-.359-.999.055.044.802.793.13zm-.258-4.915h-1zm.116-129.434 1 .01zm23.882-61.804h1v-2.69l-1.757 2.036zm0 6.192h-1zm0 152.924h1zm13.537 13.525v-1zm447.306-8.956-1-.017v.017zm0 39.765v1h1v-1zm-20.698 0h-1v1h1zm-.001-5.312-1 .003zm-.192-41.487 1-.019zm-9.907-13.097.019 1zm-11.133 13.663.999.013zm-.069 40.492 1 .001zm0 5.755v1h1v-1zm-20.558 0h-1v1h1zm0-75.536v-1h-1v1zm17.407 0 .997-.083-.077-.917h-.92zm.724 8.704-.996.083.195 2.341 1.552-1.764zm21.144-10.52.007-1zm19.481 11.647-.87.494.717 1.261.924-1.118zm19.292-11.478.092.996zm23.439 13.898-.931.365zm2.418 10.124 1-.013zm.112 53.18v1h1v-1zm-20.157 0h-1v1h1zm-.003-17.427-1 .003zm-.13-27.491 1-.009zm-.46-4.961-.979.201zm-10.295-10.017-.059-.998zm-10.2 11.117.994.109zm316.178-8.253.956-.293-.01-.034-.013-.034zm-2.231 42.565-.894-.449zm-31.458 15.587.229-.974zm-11.998-5.36.416-.909-1.416-.649v1.558zm0 34.207v1h1v-1zm-21.021 0h-1v1h1zm0-105.484v-1h-1v1zm17.921 0 .994-.109-.098-.891h-.896zm.936 8.478-.994.11.243 2.198 1.49-1.634zm29.175-9.132-.269.963zm-24.41 55.413-.933.36.056.147.1.122zm21.884-2.415.911.412zm.298-28.539.925-.38zm-12.299-8.254-.062-.998zm-11.102 9.185-.976-.221zm-451.453 50.908-.958.287.208.695.725.018zm-1.02-6.037 1-.01zm-.389-41.48-1 .031zm-10.165-12.426.014-1zm-12.025 12.714-1-.034zm-.32 40.978-1-.005zm-.001 6.185v1h1v-1zm-20.931 0h-1v1h1zm0-75.542v-1h-1v1zm17.602 0 .992-.121-.106-.879h-.886zm.834 6.887-.993.121.175 1.438 1.282-.673zm15.67-7.952-.229-.973zm29.916 21.795-.998.069zm.284 55.048v1h1v-1zm361.058-246.998v-1h-1v1zm5.98.009.029-1zm24.28.754.999-.026-.024-.944-.944-.03zm.58 23.842-1 .003zm.134 82.476-1 .008zm-5.682 5.53-.038 1zm-25.292-.09h-1v1h1zm-283.448 100.353h1v-.001zm0 33.796v1h1v-1zm-17.717 0-.975.221.176.779h.799zm-1.08-4.765.975-.221-.256-1.132-1.082.421zm-16.373 6.168.183.984zm-24.666-12.583-.912.41zm6.118-29.228-.651-.758zm26.353-9.374-.093-.996zm5.805-.321.053.999.926-.05.021-.927zm-9.633-11.467-.025-.999zm-22.004 3.227-.958.287.251.836.861-.135zm-3.66-12.212-.514-.857-.667.4.224.744zm29.687-6.605.076-.998zm27.149 30.868-.999.031zm-26.668 31.202.322.946.077-.026.072-.038zm5.244-21.616.987-.158-.172-1.072-1.054.259zm-13.312 3.407-.383-.924zm-5.733 14.536.924-.382zm296.241-50.916-.639-.77-.507.421.187.632zm29.152-7.479.052-.999zm27.378 30.059 1-.012zm.207 37.445 1-.01zm.681 9.697v1h1.076l-.079-1.073zm-18.504 0-.973.23.182.77h.791zm-1.158-4.912.973-.23-.267-1.132-1.079.434zm-15.783 6.149.196.981zm-25.398-12.818.922-.388zm7.357-29.752.615.788zm25.132-8.49.095.995zm5.886-.296.048.999.875-.042.073-.873zm-9.747-11.524.033 1zm-21.798 3.364-.958.287.252.842.868-.142zm26.287 22.496-.024-.999-.139.003-.133.041zm-8.491 2.718.45.893zm-5.475 13.119.962-.271zm8.494 6.255.006 1zm11.331-8.746-.987-.159zm.714-13.406.999.046.048-1.046h-1.047zm-145.92-23.284-.879-.478-.016.03-.014.03zm32.187-18.08-.071.998zm26.923 25.656-.985.172zm1.091 15.905-.998.065zm-4.792 4.424-.013 1zm-39.372-.073v-1h-.834l-.15.82zm9.953 14.999-.17.986zm22.139.046.026 1zm5.281-1.425.977-.214-.227-1.036-1.02.287zm3.177 14.522.432.902.714-.341-.169-.774zm-26.698 4.654-.029.999zm-32.044-55.729.944.331zm41.401 7.867.008 1 .607-.005.276-.54zm-3.663-13.395-.65.76zm-13.76-.306-.62-.784zm-6.544 13.768-.998-.057-.06 1.057h1.058zm270.845 46.661v-1zm-14.092 0h-1v1h1zm0-75.959v-1h-1v1zm20.642 0h1v-1h-1zm0 75.959v1h1v-1zm-138.682-292.637.166-.986-.097-.016-.098.002zm15.008 19.436.983.184zm-20.448 13.088.209-.978zm-12.336-16.854.999.022zm12.958-15.302.17.986zm125.658 204.668-.698.717.094.092.114.064zm-2.744-13.576.935.354zm8.905-6.167-.08-.996zm10.95 5.321.882-.471zm-.771 12.69-.806-.592zm-12.044 3.887.201-.98zm-624.771-81.761 1-.014v-.021l-.001-.022zm-56.052-47.57.572-.82-.019-.014-.02-.013zm.29.218.571-.82-.018-.013-.019-.011zm-114.24 51.346c0-15.003-.032-29.499.006-43.997l-2-.006c-.038 14.502-.006 29.006-.007 44.003zm.006-43.997c.057-21.679 6.742-39.97 18.751-53.294 12.008-13.322 29.407-21.755 51.038-23.6l-.17-1.992c-22.067 1.882-39.962 10.506-52.353 24.253-12.39 13.746-19.208 32.536-19.266 54.627zm69.789-76.894c25.826-2.202 51.856-3.613 77.348 1.937l.426-1.955c-25.814-5.62-52.11-4.178-77.944-1.974zm77.348 1.937c35.222 7.668 57.387 35.18 57.759 71.246l2-.02c-.381-36.99-23.19-65.312-59.333-73.18zm57.759 71.246c.328 31.822.278 63.653.024 95.48l2 .016c.254-31.835.304-63.679-.024-95.517zm.024 95.48c-.322 40.326-27.808 70.186-68.001 74.162l.197 1.99c41.201-4.075 69.473-34.778 69.804-76.136zm-68.001 74.162a212.6 212.6 0 0 1 -20.345 1.021l.006 2a214.375 214.375 0 0 0 20.536-1.031zm-20.345 1.021c-37.164.097-74.328.046-111.497.046v2c37.165 0 74.335.051 111.503-.046zm-111.497.046h-6.084v2h6.084zm-5.084 1v-.242-.242-.242-.242-.242-.242-.242-.242-.242-.242-.242-.242-.242-.243-.242-.242-.242-.242-.242-.242-.242-.242-.242-.242-.242-.241-.242-.242-.242-.242-.242-.242-.242-.242-.242-.242-.242-.242-.242-.242-.242-.242-.241-.242-.242-.242-.242-.242-.242-.242-.242-.241-.242-.242-.242-.242-.242-.242-.241-.242-.242-.242-.242-.242-.241-.242-.242-.242-.242-.242-.241-.242-.242-.242-.242-.241-.242-.242-.242-.242-.241-.242-.242-.242-.241-.242-.242-.242-.241-.242-.242-.242-.242-.241-.242-.242-.242-.241-.242-.242-.241-.242-.242-.242-.241-.242-.242-.242-.241-.242-.242-.242-.241-.242-.242-.241-.242-.242-.242-.241-.242-.242-.241-.242-.242-.241-.242-.242-.242-.241-.242-.242-.241-.242-.242-.241-.242-.242-.242-.241-.242-.242-.241-.242-.242-.241-.242-.242-.241-.242-.242-.241-.242-.242-.241-.242-.242-.242-.241-.242-.242-.241-.242-.242-.241-.242-.242-.241-.242-.242-.241-.242-.242-.241-.242-.242-.242-.241-.242-.242-.241-.242-.242-.241-.242-.242-.241-.242-.242-.242-.241-.242-.242-.241-.242-.242-.241-.242-.242-.242-.241-.242-.242-.241-.242-.242-.242-.241-.242-.242-.242-.241-.242-.242-.241-.242-.242-.242-.241-.242-.242-.242-.241-.242-.242-.242-.241-.242-.242-.242-.241-.242-.242-.242-.242-.241-.242-.242-.242-.241-.242-.242-.242-.242-.241-.242-.242-.242-.242-.241-.242-.242-.242-.242-.242-.241-.242-.242-.242-.242-.242-.242-.241-.242-.242-.242-.242-.242-.242-.241-.242-.242-.242-.242-.242-.242-.242-.242-.242-.241-.242-.242-.242-.242-.242-.242-.242-.242-.242-.242-.242-.242-.242-.242-.242-.242-.242-.242-.242-.242-.242-.242-.242-.242-.242-.242-.242-.242-.242-.242-.242-.242-.242-.242-.242-.242-.242-.243-.242-.242-.242-.242-.242-.242-.242-.242-.243-.242-.242-.242-.242-.242-.243-.242-.242-.242-.242-.242-.243-.242-.242-.242-.243-.242-.242-.242-.243-.242-.242-.242-.243-.242-.242-.242-.243-.242-.242-.243-.242-.242-.243-.242-.242-.243-.242-.243-.242-.242-.243-.242-.243-.242-.242-.243-.242-.243-.242-.243-.242-.242-.243-.242-.243-.242-.243-.242-.243-.243-.242-.243-.242-.243-.242-.243-.242-.243-.243-.242-.243-.242-.243-.243-.242-.243-.243-.242-.243-.243-.242-.243-.243-.243-.242-.243-.243-.242-.243-.243-.243-.243-.242-.243-.243-.243-.243-.242-.243-.243-.243-.243-.243-.243-.242-.243-.243-.243-.243-.243-.243-.243-.243-.243-.243-.243-.243-.243-.243-.243-.243-.243-.243-.243-.243-.243-.243-.244-.243-.243-.243-.243-.243-.243-.244-.243-.243-.243-.243-.244-.243-.243-.243-.244-.243-.243-.244-.243-.243-.243-.244-.243-.243-.244-.243-.244-.243-.243-.244-.243-.244-.243-.244-.243-.244-.243-.244-.243-.244-.243-.244-.243-.244-.243-.244-.244-.243-.244-.244-.243-.244-.244-.243-.244h-2v124.001zm171.001-128.553c-.344-5.579-.423-11.346-1.096-16.989l-1.986.237c.664 5.572.733 11.162 1.086 16.875zm-14.15 57.91c10.962-17.441 14.443-36.743 14.152-57.863l-2 .028c.288 20.881-3.155 39.762-13.846 56.771zm261.009-37.38c0-17.985.122-35.5-.084-53.004l-2 .023c.206 17.489.084 34.977.084 52.981zm-.084-53.004c-.053-4.532-.744-9.15-1.899-13.517l-1.934.511c1.118 4.225 1.782 8.68 1.833 13.03zm-1.899-13.517c-1.408-5.323-4.735-9.663-10.899-10.622l-.307 1.976c5.152.802 8.001 4.353 9.272 9.157zm-10.899-10.621c-6.245-.972-11.566.983-15.578 5.956l1.556 1.256c3.551-4.401 8.154-6.101 13.715-5.236zm-15.578 5.955c-4.159 5.155-5.383 11.217-5.389 17.47l2 .003c.006-6.002 1.179-11.548 4.945-16.217zm-5.389 17.47c-.021 20.501-.009 41.001-.009 61.5h2c0-20.5-.012-40.999.009-61.497zm-.009 61.5v4.887h2v-.013-.013-.013-.013-.014-.013-.013-.013-.013-.013-.012-.013-.013-.013-.013-.013-.013-.012-.013-.013-.013-.012-.013-.013-.012-.013-.013-.012-.013-.012-.013-.013-.012-.012-.013-.012-.013-.012-.013-.012-.012-.013-.012-.012-.012-.013-.012-.012-.012-.012-.013-.012-.012-.012-.012-.012-.012-.012-.012-.012-.012-.012-.012-.012-.012-.011-.012-.012-.012-.012-.011-.012-.012-.012-.011-.012-.012-.011-.012-.012-.011-.012-.011-.012-.011-.012-.011-.012-.011-.012-.011-.011-.012-.011-.012-.011-.011-.011-.012-.011-.011-.011-.012-.011-.011-.011-.011-.011-.012-.011-.011-.011-.011-.011-.011-.011-.011-.011-.011-.011-.011-.01-.011-.011-.011-.011-.011-.01-.011-.011-.011-.01-.011-.011-.011-.01-.011-.011-.01-.011-.01-.011-.01-.011-.011-.01-.011-.01-.011-.01-.01-.011-.01-.011-.01-.01-.011-.01-.01-.011-.01-.01-.011-.01-.01-.01-.01-.011-.01-.01-.01-.01-.01-.011-.01-.01-.01-.01-.01-.01-.01-.01-.01-.01-.01-.01-.01-.01-.009-.01-.01-.01-.01-.01-.01-.009-.01-.01-.01-.01-.009-.01-.01-.009-.01-.01-.009-.01-.01-.009-.01-.01-.009-.01-.009-.01-.009-.01-.01-.009-.01-.009-.009-.01-.009-.01-.009-.01-.009-.009-.01-.009-.01-.009-.009-.01-.009-.009-.009-.01-.009-.009-.009-.01-.009-.009-.009-.01-.009-.009-.009-.009-.009-.009-.009-.01-.009-.009-.009-.009-.009-.009-.009-.009-.009-.009-.009-.009-.009-.009-.009-.009-.009-.009-.009-.008-.009-.009-.009-.009-.009-.009-.008-.009-.009-.009-.009-.008-.009-.009-.009-.008-.009-.009-.009-.008-.009-.009-.008-.009-.009-.008-.009-.009-.008-.009-.009-.008-.009-.008-.009-.008-.009-.009-.008-.009-.008-.009-.008-.009-.008-.009-.008-.009-.008-.009-.008-.008-.009-.008-.009-.008-.009-.008-.008-.009-.008-.008-.009-.008-.009-.008-.008-.009-.008-.008-.008-.009-.008-.008-.009-.008-.008-.008-.009-.008-.008-.008-.009-.008-.008-.008-.008-.009-.008-.008-.008-.008-.009-.008-.008-.008-.008-.008-.008-.008-.009-.008-.008-.008-.008-.008-.008-.008-.008-.008-.008-.009-.008-.008-.008-.008-.008-.008-.008-.008-.008-.008-.008-.008-.008-.008-.008-.008-.008-.008-.008-.008-.008-.008-.008-.008-.007-.008-.008-.008-.008-.008-.008-.008-.008-.008-.008-.008-.007-.008-.008-.008-.008-.008-.008-.008-.008-.007-.008-.008-.008-.008-.008-.007-.008-.008-.008-.008-.008-.008-.007-.008-.008-.008-.008-.007-.008-.008-.008-.008-.007-.008-.008-.008-.008-.007-.008-.008-.008-.008-.007-.008-.008-.008-.007-.008-.008-.008-.008-.007-.008-.008-.008-.007-.008-.008-.008-.007-.008-.008-.008-.007-.008-.008-.008-.007-.008-.008-.008-.007-.008-.008-.008-.007-.008-.008-.008-.007-.008-.008-.008-.007-.008-.008-.007-.008zm1 3.887c-7.372 0-14.447.033-21.526-.008l-.012 2c7.087.041 14.179.008 21.538.008zm-21.526-.008c-2.599-.015-4.336.035-5.59-.027-1.31-.064-1.661-.25-1.789-.386-.133-.141-.282-.492-.293-1.752-.005-.585.015-1.286.038-2.158.022-.864.045-1.875.042-3.049l-2 .005c.003 1.146-.02 2.134-.042 2.993-.021.852-.044 1.598-.038 2.227.01 1.171.098 2.321.836 3.105.743.789 1.898.952 3.149 1.013 1.306.064 3.185.015 5.675.029zm-7.592-7.372c-.067-26.497-.023-52.993-.023-79.495h-2c0 26.497-.044 53 .023 79.5zm-.023-79.495v-12.026-12.585h-2v24.611zm-1-23.61c7.48 0 15.388-.113 23.292.149l.066-1.999c-7.948-.263-15.916-.15-23.358-.15zm23.292.149c-.085-.003-.032-.03.172.131.179.142.39.364.604.647.44.583.768 1.26.862 1.706l1.957-.412c-.173-.822-.67-1.767-1.223-2.499a5.584 5.584 0 0 0 -.959-1.01c-.326-.258-.795-.544-1.347-.562zm1.638 2.484c.593 2.817.626 5.685 1.032 10.082l1.992-.184c-.388-4.192-.443-7.344-1.067-10.31zm2.8 10.625c8.415-10.23 18.179-15.51 30.361-15.393l.019-2c-12.898-.124-23.202 5.52-31.924 16.122zm30.361-15.393c12.377.119 21.692 5.403 27.176 15.86l1.772-.93c-5.86-11.172-15.89-16.805-28.929-16.93zm28.721 16.148c2.616-2.295 5.336-4.556 7.895-6.945l-1.364-1.462c-2.532 2.363-5.178 4.56-7.849 6.903zm7.895-6.945c6.527-6.093 15.425-9.2 24.169-9.244 8.746-.044 17.244 2.976 23.016 9.01l1.445-1.382c-6.222-6.506-15.287-9.674-24.471-9.628-9.187.046-18.587 3.306-25.523 9.782zm47.185-.233c7.573 7.918 10.703 17.987 10.939 28.562l1.999-.045c-.244-10.943-3.493-21.536-11.493-29.9zm10.939 28.562c.554 24.804.215 49.616.221 74.465h2c-.006-24.812.333-49.677-.222-74.51zm.221 74.465c0-.098.039-.131-.054.066-.071.15-.226.447-.374.802l1.847.767c.122-.294.22-.472.333-.71.092-.192.248-.526.248-.926zm.496.252h-29.548v2h29.548zm-28.548 1v-.013-.013-.012-.013-.013-.012-.013-.013-.012-.013-.013-.012-.013-.013-.012-.013-.012-.013-.012-.013-.013-.012-.013-.012-.013-.012-.013-.012-.013-.012-.013-.012-.013-.012-.012-.013-.012-.013-.012-.013-.012-.012-.013-.012-.012-.013-.012-.012-.013-.012-.012-.013-.012-.012-.013-.013-.012-.012-.013-.012-.012-.012-.013-.012-.012-.012-.012-.013-.012-.012-.012-.012-.012-.013-.012-.012-.012-.012-.012-.012-.012-.012-.013-.012-.012-.012-.012-.012-.012-.012-.012-.012-.012-.012-.012-.012-.012-.012-.012-.012-.012-.012-.012-.012-.011-.012-.012-.012-.012-.012-.012-.012-.012-.012-.011-.012-.012-.012-.012-.012-.011-.012-.012-.012-.012-.011-.012-.012-.012-.012-.011-.012-.012-.011-.012-.012-.012-.011-.012-.012-.011-.012-.012-.012-.011-.012-.012-.011-.012-.011-.012-.012-.011-.012-.012-.011-.012-.011-.012-.012-.011-.012-.011-.012-.011-.012-.011-.012-.012-.011-.012-.011-.012-.011-.012-.011-.012-.011-.011-.012-.011-.012-.011-.012-.011-.012-.011-.011-.012-.011-.012-.011-.012-.011-.011-.012-.011-.011-.012-.011-.012-.011-.011-.012-.011-.011-.012-.011-.011-.012-.011-.011-.011-.012-.011-.011-.012-.011-.011-.011-.012-.011-.011-.011-.012-.011-.011-.011-.011-.012-.011-.011-.011-.011-.012-.011-.011-.011-.011-.012-.011-.011-.011-.011-.011-.011-.012-.011-.011-.011-.011-.011-.011-.011-.012-.011-.011-.011-.011-.011-.011-.011-.011-.011-.011-.011-.011-.011-.012-.011-.011-.011-.011-.011-.011-.011-.011-.011-.011-.011-.011-.011-.011-.011-.011-.011-.011-.011-.011-.011-.011-.01-.011-.011-.011-.011-.011-.011-.011-.011-.011-.011-.011-.011-.011-.01-.011-.011-.011-.011-.011-.011-.011-.011-.01-.011-.011-.011-.011-.011-.011-.011-.01-.011-.011-.011-.011-.011-.01-.011-.011-.011-.011-.011-.01-.011-.011-.011-.011-.01-.011-.011-.011-.011-.01-.011-.011-.011-.01-.011-.011-.011-.011-.01-.011-.011-.011-.01-.011-.011-.011-.01-.011-.011-.01-.011-.011-.011-.01-.011-.011-.011-.01-.011-.011-.01-.011-.011-.011-.01-.011-.011-.01-.011-.011-.01-.011-.011-.01-.011-.011-.01-.011-.011-.01-.011-.011-.01-.011-.011-.01-.011-.011-.01-.011-.011-.01-.011-.011-.01-.011-.011-.01-.011-.01-.011-.011-.01-.011-.011-.01-.011-.01-.011-.011-.01-.011-.011-.01-.011-.01-.011-.011-.01-.011-.01-.011-.011-.01-.011-.01-.011-.011-.01-.011-.01-.011-.01-.011-.011-.01-.011-.01-.011-.011-.01-.011-.01-.011-.01-.011-.011-.01-.011-.01-.011-.01-.011-.011-.01-.011-.01-.011-.01-.011-.011-.01-.011-.01-.011-.01-.011-.011-.01-.011-.01-.011-.01-.011-.01-.011-.011-.01-.011-.01-.011-.01-.011-.01-.011-.011-.01-.011-.01-.011-.01-.011-.01-.011-.011-.01-.011h-2v5.774zm0-5.774c0-19.154.162-38.339-.106-57.51l-1.999.027c.267 19.154.105 38.306.105 57.483zm-.106-57.51c-.074-5.359-1-10.8-2.366-15.95l-1.933.512c1.336 5.036 2.228 10.311 2.3 15.465zm-2.366-15.95c-.706-2.66-1.937-5.048-3.8-6.868-1.872-1.829-4.335-3.038-7.41-3.4l-.233 1.987c2.66.312 4.706 1.34 6.245 2.844 1.549 1.513 2.629 3.554 3.265 5.95zm-11.21-10.268c-6.495-.762-12.905.786-15.972 7.197l1.804.863c2.532-5.29 7.829-6.79 13.935-6.073zm-15.972 7.197c-2.338 4.886-3.906 10.63-4.026 16.07l2 .044c.112-5.113 1.594-10.578 3.83-15.25zm-4.026 16.07c-.443 20.171-.179 40.368-.179 60.517h2c0-20.184-.264-40.331.179-60.473zm-.179 60.517v5.709h2v-.012-.013-.012-.012-.013-.012-.013-.012-.012-.013-.012-.012-.013-.012-.012-.012-.013-.012-.012-.013-.012-.012-.012-.013-.012-.012-.012-.012-.013-.012-.012-.012-.012-.013-.012-.012-.012-.012-.012-.012-.013-.012-.012-.012-.012-.012-.012-.012-.012-.012-.012-.012-.012-.012-.013-.012-.012-.012-.012-.012-.012-.012-.012-.011-.012-.012-.012-.012-.012-.012-.012-.012-.012-.012-.012-.012-.011-.012-.012-.012-.012-.012-.012-.012-.011-.012-.012-.012-.012-.011-.012-.012-.012-.012-.011-.012-.012-.012-.011-.012-.012-.012-.011-.012-.012-.012-.011-.012-.012-.011-.012-.012-.011-.012-.012-.011-.012-.012-.011-.012-.012-.011-.012-.011-.012-.012-.011-.012-.011-.012-.011-.012-.012-.011-.012-.011-.012-.011-.012-.011-.012-.011-.012-.011-.012-.011-.012-.011-.012-.011-.012-.011-.012-.011-.012-.011-.011-.012-.011-.012-.011-.011-.012-.011-.012-.011-.011-.012-.011-.012-.011-.011-.012-.011-.011-.012-.011-.011-.012-.011-.011-.012-.011-.011-.012-.011-.011-.011-.012-.011-.011-.011-.012-.011-.011-.011-.012-.011-.011-.011-.012-.011-.011-.011-.011-.012-.011-.011-.011-.011-.012-.011-.011-.011-.011-.011-.012-.011-.011-.011-.011-.011-.011-.012-.011-.011-.011-.011-.011-.011-.011-.011-.011-.012-.011-.011-.011-.011-.011-.011-.011-.011-.011-.011-.011-.011-.011-.011-.011-.011-.011-.011-.011-.011-.011-.011-.011-.011-.011-.011-.011-.011-.011-.011-.011-.011-.011-.011-.011-.011-.011-.011-.011-.011-.011-.011-.011-.01-.011-.011-.011-.011-.011-.011-.011-.011-.011-.011-.01-.011-.011-.011-.011-.011-.011-.01-.011-.011-.011-.011-.011-.011-.01-.011-.011-.011-.011-.011-.01-.011-.011-.011-.011-.011-.01-.011-.011-.011-.011-.01-.011-.011-.011-.01-.011-.011-.011-.011-.01-.011-.011-.011-.01-.011-.011-.011-.01-.011-.011-.011-.01-.011-.011-.011-.01-.011-.011-.01-.011-.011-.011-.01-.011-.011-.01-.011-.011-.011-.01-.011-.011-.01-.011-.011-.01-.011-.011-.01-.011-.011-.01-.011-.011-.01-.011-.011-.01-.011-.011-.01-.011-.011-.01-.011-.011-.01-.011-.011-.01-.011-.01-.011-.011-.01-.011-.011-.01-.011-.01-.011-.011-.01-.011-.011-.01-.011-.01-.011-.011-.01-.011-.01-.011-.011-.01-.011-.01-.011-.011-.01-.011-.01-.011-.01-.011-.011-.01-.011-.01-.011-.011-.01-.011-.01-.011-.01-.011-.01-.011-.011-.01-.011-.01-.011-.01-.011-.011-.01-.011-.01-.011-.01-.011-.01-.011-.011-.01-.011-.01-.011-.01-.011-.01-.011-.01-.011-.011-.01-.011-.01-.011-.01-.011-.01-.011-.01-.011-.01-.011-.011-.01-.011-.01-.011-.01-.011-.01-.011-.01-.011-.01-.011-.01-.011-.011-.01-.011-.01-.011-.01-.011-.01-.011-.01-.011-.01-.011-.01-.011-.01-.011-.01zm1 4.71h-30.141v2h30.141zm-29.141 1-.001-12.29h-2l.001 12.29zm390.79-37.268c0 11.136-.194 21.836.095 32.507l1.999-.054c-.287-10.636-.094-21.268-.094-32.453zm.095 32.507c.056 2.093-.31 3.049-.838 3.532-.551.503-1.568.772-3.567.691l-.081 1.998c2.043.083 3.807-.125 4.997-1.213 1.213-1.108 1.547-2.86 1.488-5.062zm-4.405 4.223c-7.01-.285-14.053-.303-21.066.008l.088 1.998c6.952-.308 13.938-.291 20.897-.008zm-21.066.008c-1.969.087-2.836-.246-3.277-.722-.472-.51-.743-1.473-.727-3.408l-2-.017c-.016 1.958.212 3.653 1.26 4.784 1.078 1.164 2.751 1.453 4.832 1.361zm-4.004-4.13c.171-20.494.127-40.988.034-61.478l-2 .01c.093 20.486.137 40.971-.034 61.451zm.034-61.478c-.015-3.357-.342-6.797-1.091-10.09l-1.95.443c.711 3.126 1.026 6.418 1.041 9.656zm-1.091-10.09c-.754-3.318-2.019-6.335-4.089-8.661-2.088-2.346-4.941-3.927-8.74-4.445l-.27 1.982c3.355.457 5.764 1.824 7.516 3.793 1.77 1.988 2.923 4.652 3.633 7.774zm-12.829-13.106c-8.009-1.091-15.488 2.347-18.792 9.811l1.829.81c2.888-6.526 9.424-9.63 16.693-8.64zm-18.792 9.811c-1.817 4.103-2.758 8.885-2.818 13.361l2 .027c.057-4.237.951-8.748 2.647-12.579zm-2.818 13.361c-.276 20.496-.21 40.995-.045 61.485l2-.016c-.165-20.484-.23-40.967.045-61.442zm-.045 61.485c.016 1.926-.242 2.897-.711 3.416-.431.478-1.287.823-3.27.735l-.088 1.998c2.103.093 3.775-.211 4.842-1.392 1.031-1.14 1.243-2.838 1.227-4.773zm-3.981 4.151c-7.176-.317-14.391-.335-21.571.005l.095 1.998c7.113-.337 14.267-.319 21.388-.005zm-21.571.005c-2.023.096-2.837-.292-3.235-.777-.458-.558-.668-1.568-.66-3.456l-2-.009c-.008 1.851.15 3.56 1.115 4.734 1.025 1.249 2.691 1.61 4.875 1.506zm-3.895-4.233c.124-28.82.068-57.641.069-86.456h-2c-.001 28.82.055 57.633-.069 86.447zm.069-86.456v-20.615h-2v20.614zm-1-19.614h26.118v-2h-26.118zm25.126-.877 1.647 13.255 1.985-.247-1.648-13.256zm3.416 13.763c6.247-7.68 13.247-12.387 21.868-14.324l-.438-1.95c-9.134 2.05-16.504 7.05-22.982 15.012zm21.868-14.324c10.802-2.425 20.775-.686 28.41 4.356 7.629 5.038 13.009 13.43 14.537 24.48l1.981-.273c-1.599-11.57-7.265-20.493-15.416-25.876-8.145-5.379-18.688-7.167-29.95-4.638zm42.947 28.837c2.073 15.002 1.385 30.304 1.943 46.192l1.999-.07c-.55-15.668.13-31.264-1.961-46.396zm-483.212.152c6.112 16.652 6.467 33.196 1.437 49.675l1.913.584c5.156-16.894 4.791-33.885-1.473-50.948zm1.437 49.675c-7.1 23.261-26.314 36.204-51.462 35.188l-.081 1.999c25.991 1.05 46.071-12.411 53.456-36.603zm-51.462 35.188c-22.519-.91-40.54-16.378-45.392-39.62l-1.958.409c5.031 24.097 23.792 40.261 47.269 41.21zm-45.392-39.62c-4.046-19.376-2.764-38.14 8.629-54.807l-1.651-1.128c-11.796 17.254-13.053 36.627-8.936 56.344zm8.629-54.807c11.576-16.931 28.704-22.385 48.424-20.21l.22-1.989c-20.269-2.234-38.206 3.388-50.295 21.07zm48.424-20.21c18.396 2.027 31.07 12.291 38.379 29.815l1.846-.77c-7.562-18.129-20.818-28.918-40.005-31.034zm-27.004 38.379c-.111.466-.24.976-.35 1.474l1.953.43c.106-.477.222-.935.343-1.441zm-.35 1.474c-3.284 14.904-3.956 29.894 4.133 43.845l1.731-1.003c-7.719-13.311-7.153-27.697-3.911-42.412zm4.133 43.845c3.689 6.361 9.469 9.743 15.296 9.85 5.84.106 11.557-3.083 15.074-9.504l-1.754-.961c-3.193 5.831-8.255 8.556-13.283 8.465-5.042-.092-10.22-3.02-13.602-8.853zm30.37.346c9.668-17.653 9.552-36.3.193-54.002l-1.768.935c9.054 17.125 9.157 35.059-.179 52.106zm.193-54.002c-3.279-6.202-8.793-9.351-14.521-9.43-5.712-.077-11.515 2.899-15.422 8.683l1.658 1.12c3.565-5.28 8.76-7.87 13.737-7.803 4.961.068 9.826 2.778 12.78 8.365zm-29.943-.747c-1.717 2.544-2.82 5.567-4.34 8.9l1.82.83c1.613-3.536 2.584-6.25 4.178-8.61zm359.334 16.571v67.513h2v-67.514zm1 66.513c-7.54 0-15.958.073-24.373-.118l-.045 1.999c8.445.192 16.901.119 24.418.119zm-24.373-.118c.094.002.07.035-.088-.08a2.839 2.839 0 0 1 -.488-.481c-.368-.446-.656-.977-.759-1.335l-1.922.554c.198.685.644 1.455 1.137 2.053a4.8 4.8 0 0 0 .858.828c.296.215.72.449 1.217.46zm-1.335-1.896c-.615-2.134-.77-4.325-1.299-7.638l-1.975.315c.494 3.092.692 5.589 1.352 7.877zm-3.022-8.158c-5.664 6.148-12.039 9.894-19.562 11.502l.418 1.956c7.962-1.702 14.696-5.678 20.615-12.103zm-19.562 11.502c-17.221 3.68-32.591-3.502-38.9-17.922l-1.832.801c6.744 15.416 23.141 22.926 41.15 19.077zm-38.9-17.922c-6.903-15.782-1.879-34.436 11.987-44.25l-1.156-1.633c-14.66 10.377-19.937 30.056-12.663 46.684zm11.987-44.25c11.652-8.248 25.161-10.44 39.204-11.436l-.142-1.995c-14.117 1.001-28.097 3.219-40.218 11.798zm39.204-11.436c1.645-.117 3.313-.33 4.866-.487l-.201-1.99c-1.626.165-3.199.368-4.807.482zm5.765-1.472c.056-5.603-1.207-10.005-3.977-13.096-2.776-3.098-6.918-4.716-12.264-5.062l-.129 1.996c5.027.325 8.593 1.822 10.903 4.4 2.317 2.586 3.521 6.423 3.468 11.742zm-16.241-18.158c-5.262-.34-9.39-.18-14.111.935-4.694 1.109-9.935 3.153-17.431 6.519l.819 1.824c7.479-3.358 12.574-5.334 17.072-6.396 4.471-1.056 8.389-1.218 13.522-.886zm-30.171 8.092c-1.822-6.4-3.713-12.61-5.232-18.92l-1.945.469c1.532 6.363 3.445 12.646 5.253 18.999zm-5.232-18.92c.035.147-.03.154.079-.071.09-.186.249-.425.468-.684.452-.533 1.014-.985 1.396-1.16l-.837-1.817c-.736.34-1.52 1.018-2.085 1.685-.289.341-.556.72-.742 1.103-.166.342-.355.867-.224 1.412zm1.943-1.916c16.665-7.68 33.959-10.444 51.806-5.777l.506-1.935c-18.386-4.808-36.158-1.935-53.149 5.896zm51.806-5.777c8.05 2.105 13.953 6.077 18.16 11.455 4.217 5.391 6.773 12.254 8.017 20.198l1.976-.309c-1.28-8.173-3.933-15.387-8.418-21.12-4.496-5.749-10.787-9.95-19.229-12.159zm26.177 31.654c.606 3.874.644 7.786.956 12.33l1.995-.136c-.301-4.39-.351-8.517-.975-12.504zm-52.769 30.665c-.538.5-1.068.928-1.674 1.46-.577.507-1.172 1.067-1.685 1.717l1.571 1.239c.399-.507.886-.971 1.434-1.453.52-.457 1.16-.982 1.715-1.497zm-3.359 3.177c-3.657 4.637-4.542 10.613-3.261 15.692 1.281 5.074 4.779 9.413 10.034 10.518l.411-1.958c-4.314-.907-7.359-4.505-8.506-9.049-1.145-4.539-.342-9.863 2.893-13.964zm6.773 26.21c8.305 1.745 18.178-2.703 20.441-11.23l-1.934-.513c-1.923 7.247-10.557 11.37-18.096 9.785zm20.441-11.23c.97-3.656 1.4-7.434 1.682-11.218.285-3.827.416-7.569.786-11.368l-1.99-.194c-.371 3.807-.515 7.711-.791 11.413-.279 3.744-.698 7.377-1.621 10.854zm1.513-23.683c-9.552-.386-17.391.685-25.204 5.403l1.033 1.712c7.354-4.44 14.753-5.493 24.091-5.116zm-502.509 159.028h37.715v-2h-37.715zm37.1-1.788c-3.33 2.6-5.592 4.531-8.049 6.261l1.152 1.635c2.507-1.766 4.887-3.789 8.128-6.32zm-8.049 6.261c-14.324 10.088-30.222 16.09-47.649 16.443l.04 2c17.887-.363 34.164-6.528 48.761-16.808zm-47.649 16.443c-34.278.695-68.564.687-102.869.954l.016 2c34.283-.267 68.599-.259 102.893-.954zm-102.87.954c-.213.001-.45-.031-.801-.098-.329-.063-.785-.163-1.304-.248l-.323 1.974c.487.08.852.162 1.25.238.377.072.775.137 1.195.134zm-1.268.587c-.096-1.765-.255-3.287-.256-4.861h-2c.001 1.642.17 3.335.26 4.97zm-.256-4.861c-.012-43.154-.305-86.29.116-129.424l-2-.02c-.42 43.148-.128 86.308-.116 129.444zm.116-129.424c.22-22.536 7.731-42.733 23.638-61.16l-1.513-1.308c-16.208 18.776-23.901 39.426-24.125 62.449zm21.882-61.814v6.192h2v-6.192zm0 6.192v152.924h2v-152.924zm0 152.924c0 5.394.658 9.17 3.008 11.519s6.13 3.006 11.53 3.006v-2c-5.41 0-8.4-.706-10.116-2.421-1.715-1.714-2.421-4.7-2.421-10.104zm14.537 14.525c28.652.002 57.305.001 86.457.001v-2c-29.153 0-57.805.001-86.457-.001zm446.306-9.956v39.765h2v-.078-.078-.078-.079-.078-.078-.078-.078-.078-.078-.078-.078-.078-.078-.078-.078-.078-.078-.078-.078-.078-.078-.078-.078-.078-.078-.078-.078-.078-.078-.078-.078-.077-.078-.078-.078-.078-.078-.078-.077-.078-.078-.078-.078-.078-.077-.078-.078-.078-.077-.078-.078-.078-.078-.077-.078-.078-.077-.078-.078-.078-.077-.078-.078-.077-.078-.078-.077-.078-.078-.077-.078-.078-.077-.078-.077-.078-.078-.077-.078-.077-.078-.078-.077-.078-.077-.078-.077-.078-.077-.078-.078-.077-.078-.077-.078-.077-.078-.077-.078-.077-.078-.077-.078-.077-.078-.077-.077-.078-.077-.078-.077-.078-.077-.078-.077-.077-.078-.077-.078-.077-.077-.078-.077-.078-.077-.077-.078-.077-.077-.078-.077-.078-.077-.077-.078-.077-.077-.078-.077-.077-.078-.077-.077-.078-.077-.077-.078-.077-.077-.078-.077-.077-.078-.077-.077-.077-.078-.077-.077-.078-.077-.077-.077-.078-.077-.077-.077-.078-.077-.077-.078-.077-.077-.077-.078-.077-.077-.077-.078-.077-.077-.077-.078-.077-.077-.077-.077-.078-.077-.077-.077-.078-.077-.077-.077-.078-.077-.077-.077-.077-.078-.077-.077-.077-.078-.077-.077-.077-.077-.078-.077-.077-.077-.078-.077-.077-.077-.077-.078-.077-.077-.077-.078-.077-.077-.077-.077-.078-.077-.077-.077-.078-.077-.077-.077-.077-.078-.077-.077-.077-.078-.077-.077-.077-.077-.078-.077-.077-.077-.078-.077-.077-.077-.078-.077-.077-.077-.078-.077-.077-.077-.078-.077-.077-.077-.078-.077-.077-.077-.078-.077-.077-.078-.077-.077-.077-.078-.077-.077-.077-.078-.077-.077-.078-.077-.077-.078-.077-.077-.078-.077-.077-.078-.077-.077-.078-.077-.077-.078-.077-.077-.078-.077-.077-.078-.077-.077-.078-.077-.078-.077-.077-.078-.077-.077-.078-.077-.078-.077-.078-.077-.077-.078-.077-.078-.077-.078-.077-.077-.078-.077-.078-.077-.078-.077-.078-.077-.078-.077-.078-.077-.078-.077-.078-.077-.078-.077-.078-.077-.078-.078-.077-.078-.077-.078-.077-.078-.078-.077-.078-.077-.078-.078-.077-.078-.078-.077-.078-.077-.078-.078-.077-.078-.078-.078-.077-.078-.078-.077-.078-.078-.078-.077-.078-.078-.078-.077-.078-.078-.078-.077-.078-.078-.078-.078-.078-.077-.078-.078-.078-.078-.078-.077-.078-.078-.078-.078-.078-.078-.078-.078-.078-.078-.078-.078-.078-.077-.078-.078-.078-.078-.078-.079-.078-.078-.078-.078-.078-.078-.078-.078-.078-.078-.078-.078-.079-.078-.078-.078-.078-.078-.079-.078-.078-.078-.078-.079-.078-.078-.078-.079-.078-.078-.078-.079-.078-.078-.079-.078-.078-.079-.078-.078-.079-.078-.079-.078-.078-.079-.078-.079-.078-.079-.078-.079-.078-.079-.078-.079-.078-.079-.078-.079-.078-.079-.079-.078-.079-.078-.079-.079-.078-.079-.079-.078-.079-.079-.079-.078-.079-.079-.079-.078-.079-.079-.079-.079-.078-.079-.079-.079zm1 38.765h-20.698v2h20.698zm-19.698 1c0-1.764.005-3.541-.001-5.315l-2 .006c.006 1.771.001 3.538.001 5.309zm-.001-5.315c-.043-13.814.071-27.668-.192-41.503l-2 .038c.263 13.815.149 27.626.192 41.471zm-.192-41.503c-.084-4.396-1.11-7.935-3.002-10.384-1.92-2.485-4.663-3.757-7.924-3.694l.038 2c2.662-.052 4.791.958 6.303 2.917 1.541 1.994 2.506 5.06 2.585 9.199zm-10.926-14.078c-6.776.131-12.009 6.538-12.114 14.65l1.999.026c.097-7.387 4.78-12.573 10.153-12.676zm-12.114 14.65c-.177 13.504-.062 27.019-.069 40.505l2 .001c.007-13.51-.108-26.992.068-40.48zm-.069 40.505v5.755h2v-5.754zm1 4.755h-20.558v2h20.558zm-19.558 1v-.147-.147-.147-.148-.147-.147-.147-.147-.147-.147-.147-.147-.148-.147-.147-.147-.147-.147-.147-.147-.147-.148-.147-.147-.147-.147-.147-.147-.147-.147-.147-.147-.148-.147-.147-.147-.147-.147-.147-.147-.147-.147-.148-.147-.147-.147-.147-.147-.147-.147-.147-.147-.147-.148-.147-.147-.147-.147-.147-.147-.147-.147-.147-.147-.148-.147-.147-.147-.147-.147-.147-.147-.147-.147-.147-.148-.147-.147-.147-.147-.147-.147-.147-.147-.147-.147-.148-.147-.147-.147-.147-.147-.147-.147-.147-.147-.148-.147-.147-.147-.147-.147-.147-.147-.147-.147-.148-.147-.147-.147-.147-.147-.147-.147-.147-.148-.147-.147-.147-.147-.147-.147-.147-.147-.148-.147-.147-.147-.147-.147-.147-.147-.148-.147-.147-.147-.147-.147-.147-.148-.147-.147-.147-.147-.147-.147-.148-.147-.147-.147-.147-.147-.147-.148-.147-.147-.147-.147-.147-.148-.147-.147-.147-.147-.147-.148-.147-.147-.147-.147-.147-.148-.147-.147-.147-.147-.148-.147-.147-.147-.147-.147-.148-.147-.147-.147-.148-.147-.147-.147-.147-.148-.147-.147-.147-.147-.148-.147-.147-.147-.148-.147-.147-.147-.148-.147-.147-.147-.148-.147-.147-.147-.148-.147-.147-.147-.148-.147-.147-.147-.148-.147-.147-.148-.147-.147-.147-.148-.147-.147-.148-.147-.147-.148-.147-.147-.148-.147-.147-.147-.148-.147-.147-.148-.147-.148-.147-.147-.148-.147-.147-.148-.147-.147-.148-.147-.147-.148-.147-.148-.147-.147-.148-.147-.148-.147-.147-.148-.147-.148-.147-.147-.148-.147-.148-.147-.148-.147-.147-.148-.147-.148-.147-.148-.147-.148-.147-.147-.148-.147-.148-.147-.148-.147-.148-.147-.148-.147-.148-.147-.148-.147-.148-.147-.148-.148-.147-.148-.147-.148-.147-.148-.147-.148-.147-.148-.148-.147-.148-.147-.148-.147-.148-.148-.147-.148-.148-.147-.148-.147-.148-.148-.147-.148-.148-.147-.148-.147-.148-.148-.147-.148-.148-.147-.148-.148-.148-.147-.148-.148-.147-.148-.148-.147-.148-.148-.148-.147-.148-.148-.148-.147-.148-.148-.148-.147-.148-.148-.148-.148-.147-.148-.148-.148-.148-.147-.148-.148-.148-.148-.148-.147-.148-.148-.148-.148-.148-.148-.148-.147-.148-.148-.148-.148-.148-.148-.148-.148-.148-.148-.147-.148-.148-.148-.148-.148-.148-.148-.148-.148-.148-.148-.148-.148-.148-.148-.148-.148-.148-.148-.148-.148-.148-.148-.149-.148-.148-.148-.148-.148-.148-.148-.148-.148-.148-.149-.148-.148-.148-.148-.148-.148-.149-.148-.148-.148-.148-.149-.148-.148-.148-.148-.149-.148-.148-.148-.148-.149-.148-.148-.149-.148-.148-.148-.149-.148-.148-.149-.148-.148-.148-.149-.148-.148-.149-.148-.149-.148-.148-.149-.148-.148-.149-.148-.149-.148-.149-.148-.148-.149-.148-.149-.148-.149-.148-.149-.148-.149-.148-.149-.148-.149-.148-.149-.148-.149-.148-.149-.148-.149-.149-.148h-2v75.536zm-1-74.536h17.407v-2h-17.407zm16.411-.917.724 8.704 1.993-.166-.724-8.704zm2.471 9.281c5.906-6.71 12.389-10.238 20.386-10.18l.014-2c-8.717-.063-15.716 3.831-21.901 10.859zm20.386-10.18c4.103.03 7.67.932 10.741 2.745s5.701 4.571 7.877 8.396l1.739-.988c-2.318-4.075-5.179-7.11-8.6-9.13s-7.347-2.991-11.743-3.023zm20.259 11.284c5.14-6.222 10.814-10.401 18.613-11.119l-.183-1.992c-8.528.785-14.646 5.389-19.972 11.837zm18.613-11.119c10.284-.947 18.686 3.755 22.416 13.267l1.862-.73c-4.085-10.418-13.375-15.549-24.461-14.529zm22.416 13.267c1.249 3.187 2.306 6.567 2.349 9.773l2-.027c-.048-3.582-1.218-7.241-2.487-10.476zm2.349 9.773c.239 17.601.112 35.201.112 53.166h2c0-17.945.127-35.575-.112-53.193zm1.112 52.166h-20.157v2h20.157zm-19.157 1c0-5.864.014-11.648-.003-17.429l-2 .005c.017 5.778.003 11.554.003 17.424zm-.003-17.429c-.026-9.164-.052-18.331-.13-27.498l-2 .018c.078 9.16.104 18.321.13 27.485zm-.13-27.498c-.015-1.692-.13-3.448-.48-5.153l-1.959.402c.314 1.532.425 3.148.439 4.769zm-.48-5.153c-.753-3.672-2.013-6.481-3.92-8.329-1.942-1.883-4.442-2.662-7.414-2.485l.119 1.996c2.523-.149 4.438.505 5.903 1.925 1.5 1.453 2.639 3.816 3.353 7.295zm-11.334-10.814c-5.981.354-10.388 5.187-11.135 12.007l1.988.217c.666-6.079 4.472-9.944 9.266-10.228zm-11.135 12.007c-.313 2.861-.164 5.842-.22 9.072l1.999.034c.06-3.419-.091-6.144.209-8.889zm316.216-7.851c4.466 14.544 4.539 28.467-2.169 41.822l1.788.898c6.995-13.928 6.868-28.405 2.293-43.307zm-2.169 41.822c-5.956 11.86-18.212 17.917-30.335 15.062l-.458 1.947c13.1 3.085 26.245-3.497 32.581-16.111zm-30.335 15.062c-1.896-.446-3.736-1.251-5.675-2.216-1.901-.946-3.97-2.086-6.136-3.079l-.833 1.818c2.141.981 4.061 2.048 6.077 3.051 1.979.985 3.984 1.873 6.109 2.373zm-13.227-4.386v16.921h2v-.034-.033-.034-.033-.034-.033-.034-.033-.034-.033-.034-.033-.034-.033-.034-.034-.033-.034-.033-.034-.033-.034-.033-.034-.033-.034-.033-.034-.033-.034-.033-.034-.033-.034-.033-.034-.034-.033-.034-.033-.034-.033-.034-.033-.034-.033-.034-.033-.034-.033-.034-.033-.034-.033-.034-.033-.034-.033-.034-.033-.034-.033-.034-.033-.034-.033-.034-.033-.034-.033-.034-.033-.034-.033-.034-.033-.034-.033-.034-.033-.034-.033-.034-.033-.034-.033-.034-.033-.034-.033-.034-.033-.034-.033-.034-.033-.034-.033-.034-.033-.033-.034-.033-.034-.033-.034-.033-.034-.033-.034-.033-.034-.033-.033-.034-.033-.034-.033-.034-.033-.034-.033-.034-.033-.033-.034-.033-.034-.033-.034-.033-.033-.034-.033-.034-.033-.034-.033-.033-.034-.033-.034-.033-.034-.033-.033-.034-.033-.034-.033-.033-.034-.033-.034-.033-.033-.034-.033-.034-.033-.033-.034-.033-.034-.033-.033-.034-.033-.033-.034-.033-.033-.034-.033-.034-.033-.033-.034-.033-.033-.034-.033-.033-.034-.033-.033-.034-.033-.033-.034-.033-.033-.034-.033-.033-.034-.033-.033-.034-.033-.033-.034-.033-.033-.033-.034-.033-.033-.034-.033-.033-.033-.034-.033-.033-.034-.033-.033-.033-.034-.033-.033-.033-.034-.033-.033-.033-.034-.033-.033-.033-.034-.033-.033-.033-.034-.033-.033-.033-.033-.034-.033-.033-.033-.033-.034-.033-.033-.033-.033-.034-.033-.033-.033-.033-.033-.034-.033-.033-.033-.033-.033-.034-.033-.033-.033-.033-.033-.033-.034-.033-.033-.033-.033-.033-.033-.033-.033-.034-.033-.033-.033-.033-.033-.033-.033-.033-.033-.033-.033-.034-.033-.033-.033-.033-.033-.033-.033-.033-.033-.033-.033-.033-.033-.033-.033-.033-.033-.033-.033-.033-.033-.033-.033-.033-.033-.033-.033-.033-.033-.033-.033-.033-.033-.033-.033-.033-.033-.033-.032-.033-.033-.033-.033-.033-.033-.033-.033-.033-.033-.032-.033-.033-.033-.033-.033-.033-.033-.032-.033-.033-.033-.033-.033-.033-.032-.033-.033-.033-.033-.033-.032-.033-.033-.033-.033-.032-.033-.033-.033-.032-.033-.033-.033-.033-.032-.033-.033-.033-.032-.033-.033-.032-.033-.033-.033-.032-.033-.033-.032-.033-.033-.032-.033-.033-.032-.033-.033-.032-.033-.033-.032-.033-.033-.032-.033-.033-.032-.033-.032-.033-.033-.032-.033-.032-.033-.033-.032-.033-.032-.033-.032-.033-.032-.033-.033-.032-.033-.032-.033-.032-.033-.032-.033-.032-.033-.032-.033-.032-.033-.032-.032-.033-.032-.033-.032-.033-.032-.033-.032-.032-.033-.032-.033-.032-.032-.033-.032-.033-.032-.032-.033-.032-.032-.033-.032-.032-.033-.032-.032-.033-.032-.032-.033-.032-.032-.032-.033-.032-.032-.033-.032-.032-.032-.033-.032-.032-.032-.032-.033-.032-.032-.032-.032-.033-.032-.032-.032-.032-.032-.033-.032-.032-.032-.032-.032-.032-.033-.032-.032-.032-.032zm0 16.921v17.286h2v-.035-.035-.035-.035-.036-.035-.035-.035-.035-.035-.036-.035-.035-.035-.035-.035-.035-.035-.035-.035-.035-.035-.035-.035-.035-.035-.035-.035-.035-.035-.035-.035-.035-.035-.035-.035-.035-.035-.035-.034-.035-.035-.035-.035-.035-.035-.034-.035-.035-.035-.035-.034-.035-.035-.035-.035-.034-.035-.035-.035-.034-.035-.035-.034-.035-.035-.034-.035-.035-.034-.035-.035-.034-.035-.035-.034-.035-.035-.034-.035-.034-.035-.034-.035-.035-.034-.035-.034-.035-.034-.035-.034-.035-.034-.035-.034-.035-.034-.035-.034-.034-.035-.034-.035-.034-.035-.034-.034-.035-.034-.034-.035-.034-.035-.034-.034-.035-.034-.034-.034-.035-.034-.034-.035-.034-.034-.035-.034-.034-.034-.035-.034-.034-.034-.034-.035-.034-.034-.034-.034-.035-.034-.034-.034-.034-.034-.035-.034-.034-.034-.034-.034-.034-.034-.035-.034-.034-.034-.034-.034-.034-.034-.034-.034-.034-.034-.034-.034-.034-.034-.034-.034-.034-.034-.034-.034-.034-.034-.034-.034-.034-.034-.034-.034-.034-.034-.034-.034-.033-.034-.034-.034-.034-.034-.034-.034-.033-.034-.034-.034-.034-.034-.034-.033-.034-.034-.034-.034-.033-.034-.034-.034-.034-.033-.034-.034-.034-.033-.034-.034-.034-.033-.034-.034-.034-.033-.034-.034-.033-.034-.034-.034-.033-.034-.034-.033-.034-.034-.033-.034-.034-.033-.034-.033-.034-.034-.033-.034-.034-.033-.034-.033-.034-.034-.033-.034-.033-.034-.033-.034-.034-.033-.034-.033-.034-.033-.034-.033-.034-.033-.034-.034-.033-.034-.033-.034-.033-.034-.033-.034-.033-.033-.034-.033-.034-.033-.034-.033-.034-.033-.034-.033-.033-.034-.033-.034-.033-.034-.033-.033-.034-.033-.034-.033-.033-.034-.033-.034-.033-.033-.034-.033-.034-.033-.033-.034-.033-.033-.034-.033-.033-.034-.033-.033-.034-.033-.033-.034-.033-.033-.034-.033-.033-.034-.033-.033-.033-.034-.033-.033-.034-.033-.033-.033-.034-.033-.033-.033-.034-.033-.033-.033-.034-.033-.033-.033-.034-.033-.033-.033-.034-.033-.033-.033-.034-.033-.033-.033-.033-.034-.033-.033-.033-.033-.034-.033-.033-.033-.033-.034-.033-.033-.033-.033-.033-.034-.033-.033-.033-.033-.033-.034-.033-.033-.033-.033-.033-.034-.033-.033-.033-.033-.033-.033-.033-.034-.033-.033-.033-.033-.033-.033-.034-.033-.033-.033-.033-.033-.033-.033-.033-.034-.033-.033-.033-.033-.033-.033-.033-.033-.033-.034-.033-.033-.033-.033-.033-.033-.033-.033-.033-.033-.033-.034-.033-.033-.033-.033-.033-.033-.033-.033-.033-.033-.033-.033-.033-.034-.033-.033-.033-.033-.033-.033-.033-.033-.033-.033-.033-.033-.033-.033-.033-.033-.033-.034-.033-.033-.033-.033-.033-.033-.033-.033-.033-.033-.033-.033-.033-.033-.033-.033-.033-.033-.033-.033-.033-.034-.033-.033-.033-.033-.033-.033-.033-.033-.033-.033-.033-.033-.033-.033zm1 16.286h-21.021v2h21.021zm-20.021 1v-.205-.206-.205-.205-.206-.205-.206-.205-.205-.206-.205-.206-.205-.206-.205-.205-.206-.205-.206-.205-.205-.206-.205-.206-.205-.206-.205-.205-.206-.205-.206-.205-.206-.205-.205-.206-.205-.206-.205-.205-.206-.205-.206-.205-.206-.205-.205-.206-.205-.206-.205-.206-.205-.205-.206-.205-.206-.205-.206-.205-.205-.206-.205-.206-.205-.206-.205-.205-.206-.205-.206-.205-.206-.205-.206-.205-.205-.206-.205-.206-.205-.206-.205-.206-.205-.206-.205-.205-.206-.205-.206-.205-.206-.205-.206-.205-.206-.205-.206-.205-.205-.206-.205-.206-.205-.206-.205-.206-.205-.206-.205-.206-.205-.206-.205-.206-.205-.206-.205-.206-.205-.206-.205-.206-.205-.206-.205-.206-.205-.206-.205-.206-.205-.206-.205-.206-.205-.206-.206-.205-.206-.205-.206-.205-.206-.205-.206-.205-.206-.206-.205-.206-.205-.206-.205-.206-.205-.206-.206-.205-.206-.205-.206-.206-.205-.206-.205-.206-.205-.206-.206-.205-.206-.205-.206-.206-.205-.206-.206-.205-.206-.205-.206-.206-.205-.206-.206-.205-.206-.206-.205-.206-.205-.206-.206-.205-.206-.206-.205-.206-.206-.206-.205-.206-.206-.205-.206-.206-.205-.206-.206-.205-.206-.206-.206-.205-.206-.206-.206-.205-.206-.206-.206-.205-.206-.206-.206-.205-.206-.206-.206-.205-.206-.206-.206-.205-.206-.206-.206-.206-.205-.206-.206-.206-.206-.206-.205-.206-.206-.206-.206-.206-.205-.206-.206-.206-.206-.206-.206-.205-.206-.206-.206-.206-.206-.206-.206-.205-.206-.206-.206-.206-.206-.206-.206-.206-.206-.206-.206-.206-.206-.205-.206-.206-.206-.206-.206-.206-.206-.206-.206-.206-.206-.206-.206-.206-.206-.206-.206-.206-.206-.206-.207-.206-.206-.206-.206-.206-.206-.206-.206-.206-.206-.206-.206-.207-.206-.206-.206-.206-.206-.206-.206-.206-.207-.206-.206-.206-.206-.206-.207-.206-.206-.206-.206-.207-.206-.206-.206-.206-.207-.206-.206-.206-.207-.206-.206-.206-.207-.206-.206-.206-.207-.206-.206-.207-.206-.206-.206-.207-.206-.206-.207-.206-.206-.207-.206-.206-.207-.206-.207-.206-.206-.207-.206-.207-.206-.206-.207-.206-.207-.206-.207-.206-.206-.207-.206-.207-.206-.207-.206-.207-.206-.207-.206-.207-.206-.207-.206-.207-.206-.207-.207-.206-.207-.206-.207-.206-.207-.207-.206-.207-.206-.207-.207-.206-.207-.207-.206-.207-.207-.206-.207-.207-.206-.207-.207-.206-.207-.207-.207-.206-.207-.207-.207-.206-.207-.207-.207-.206-.207-.207-.207-.207-.206-.207-.207-.207-.207-.207-.206-.207-.207-.207-.207-.207-.207-.207-.207-.206-.207-.207-.207-.207-.207-.207-.207-.207-.207-.207-.207-.207-.207-.207-.207-.207-.207-.207-.207-.207-.207-.207-.207-.207-.208-.207-.207-.207-.207-.207-.207-.207-.208-.207-.207-.207-.207-.207-.208-.207-.207-.207-.207-.208-.207-.207-.207-.208-.207-.207-.207-.208h-2v105.484zm-1-104.484h17.921v-2h-17.921zm16.927-.89.936 8.478 1.988-.22-.936-8.477zm2.669 9.042c4.081-4.477 8.436-7.425 13.085-8.89 4.644-1.463 9.652-1.469 15.082.047l.538-1.926c-5.752-1.606-11.159-1.623-16.221-.028-5.056 1.593-9.697 4.772-13.962 9.449zm28.167-8.843c9.211 2.572 14.472 9.38 18.013 18.537l1.865-.722c-3.662-9.468-9.283-16.933-19.34-19.741zm-24.918 55.079c3.625 4.48 8.279 6.569 12.726 6.098 4.459-.472 8.471-3.491 10.846-8.73l-1.821-.825c-2.14 4.718-5.61 7.182-9.235 7.566-3.637.385-7.668-1.297-10.962-5.367zm23.572-2.632c4.361-9.618 4.304-19.604.312-29.331l-1.851.76c3.796 9.248 3.837 18.66-.282 27.746zm.312-29.331c-1.287-3.135-3.066-5.467-5.337-6.962-2.276-1.497-4.959-2.096-7.949-1.91l.124 1.997c2.64-.165 4.875.366 6.726 1.584 1.856 1.222 3.411 3.191 4.585 6.051zm-13.286-8.872c-6.328.394-10.712 4.197-12.016 9.962l1.951.441c1.103-4.876 4.725-8.067 10.189-8.406zm-12.016 9.962c-2.227 9.845-2.826 19.986 1.262 30.604l1.866-.719c-3.894-10.115-3.355-19.818-1.177-29.444zm-449.519 50.843c-.617-2.065-.96-3.923-.978-5.761l-2 .02c.021 2.078.409 4.129 1.062 6.314zm-.978-5.761c-.138-13.794.044-27.672-.39-41.501l-1.999.062c.433 13.806.25 27.599.389 41.459zm-.39-41.501c-.132-4.215-1.208-7.545-3.158-9.85-1.97-2.328-4.737-3.497-7.992-3.545l-.029 2c2.762.041 4.95 1.012 6.494 2.837 1.565 1.849 2.563 4.687 2.686 8.62zm-11.15-13.395c-7.091-.105-12.759 5.391-13.039 13.68l1.999.068c.248-7.336 5.141-11.835 11.011-11.748zm-13.039 13.68c-.462 13.666-.252 27.374-.32 41.007l2 .01c.068-13.688-.142-27.321.319-40.949zm-.32 41.007c-.01 1.97-.001 3.945-.001 6.19h2c0-2.257-.009-4.216.001-6.18zm.999 5.19h-20.931v2h20.931zm-19.931 1v-.147-.146-.147-.147-.147-.147-.147-.147-.146-.147-.147-.147-.147-.147-.147-.146-.147-.147-.147-.147-.147-.147-.146-.147-.147-.147-.147-.147-.147-.146-.147-.147-.147-.147-.147-.147-.146-.147-.147-.147-.147-.147-.147-.146-.147-.147-.147-.147-.147-.147-.146-.147-.147-.147-.147-.147-.147-.147-.146-.147-.147-.147-.147-.147-.147-.147-.146-.147-.147-.147-.147-.147-.147-.147-.147-.146-.147-.147-.147-.147-.147-.147-.147-.147-.146-.147-.147-.147-.147-.147-.147-.147-.147-.147-.146-.147-.147-.147-.147-.147-.147-.147-.147-.147-.147-.147-.147-.146-.147-.147-.147-.147-.147-.147-.147-.147-.147-.147-.147-.147-.147-.147-.147-.147-.147-.146-.147-.147-.147-.147-.147-.147-.147-.147-.147-.147-.147-.147-.147-.147-.147-.147-.147-.147-.147-.147-.147-.147-.147-.147-.147-.147-.147-.147-.147-.147-.147-.147-.147-.147-.148-.147-.147-.147-.147-.147-.147-.147-.147-.147-.147-.147-.147-.147-.147-.147-.147-.148-.147-.147-.147-.147-.147-.147-.147-.147-.147-.148-.147-.147-.147-.147-.147-.147-.147-.148-.147-.147-.147-.147-.147-.148-.147-.147-.147-.147-.147-.148-.147-.147-.147-.147-.147-.148-.147-.147-.147-.147-.148-.147-.147-.147-.148-.147-.147-.147-.148-.147-.147-.147-.148-.147-.147-.147-.148-.147-.147-.147-.148-.147-.147-.148-.147-.147-.148-.147-.147-.147-.148-.147-.147-.148-.147-.148-.147-.147-.148-.147-.147-.148-.147-.147-.148-.147-.148-.147-.147-.148-.147-.148-.147-.147-.148-.147-.148-.147-.148-.147-.148-.147-.148-.147-.147-.148-.147-.148-.147-.148-.147-.148-.147-.148-.147-.148-.148-.147-.148-.147-.148-.147-.148-.147-.148-.147-.148-.148-.147-.148-.147-.148-.148-.147-.148-.148-.147-.148-.147-.148-.148-.147-.148-.148-.147-.148-.148-.147-.148-.148-.147-.148-.148-.148-.147-.148-.148-.148-.147-.148-.148-.148-.147-.148-.148-.148-.147-.148-.148-.148-.148-.148-.147-.148-.148-.148-.148-.148-.147-.148-.148-.148-.148-.148-.148-.148-.148-.147-.148-.148-.148-.148-.148-.148-.148-.148-.148-.148-.148-.148-.148-.148-.148-.148-.148-.148-.148-.148-.148-.148-.148-.148-.148-.148-.148-.149-.148-.148-.148-.148-.148-.148-.148-.148-.149-.148-.148-.148-.148-.148-.149-.148-.148-.148-.148-.149-.148-.148-.148-.149-.148-.148-.148-.149-.148-.148-.149-.148-.148-.149-.148-.148-.149-.148-.148-.149-.148-.148-.149-.148-.149-.148-.148-.149-.148-.149-.148-.149-.148-.148-.149-.148-.149-.148-.149-.148-.149-.148-.149-.148-.149-.149-.148-.149-.148-.149-.148-.149-.149-.148-.149-.149-.148-.149-.149-.148-.149-.149-.148-.149-.149-.148-.149-.149-.148-.149-.149-.149-.149-.148-.149-.149-.149-.148-.149-.149-.149-.149-.149-.148-.149-.149-.149-.149-.149-.149-.149-.149-.149-.148-.149-.149-.149-.149h-2v75.542zm-1-74.542h17.602v-2h-17.602zm16.609-.88.834 6.888 1.986-.241-.835-6.888zm2.291 7.653c2.527-1.324 5.143-3.043 7.644-4.488 2.56-1.479 5.118-2.749 7.791-3.376l-.458-1.947c-2.962.696-5.724 2.084-8.333 3.591-2.668 1.541-5.07 3.137-7.572 4.449zm15.435-7.864c7.527-1.769 14.423-.425 19.556 3.256 5.129 3.678 8.59 9.754 9.133 17.634l1.995-.138c-.579-8.413-4.301-15.062-9.963-19.121-5.657-4.057-13.158-5.463-21.179-3.578zm28.689 20.89c1.24 17.997.282 36.094.282 54.979h2c0-18.741.959-37.031-.287-55.117zm1.282 53.979c-6.191 0-12.597 0-19.43-.169l-.05 1.999c6.862.17 13.292.17 19.48.17zm362.058-170.131v-.148-.149-.148-.148-.148-.149-.148-.148-.148-.149-.148-.148-.148-.149-.148-.148-.148-.148-.148-.148-.148-.149-.148-.148-.148-.148-.148-.148-.148-.148-.148-.148-.148-.148-.148-.148-.148-.148-.148-.148-.148-.148-.147-.148-.148-.148-.148-.148-.148-.148-.147-.148-.148-.148-.148-.147-.148-.148-.148-.148-.147-.148-.148-.148-.147-.148-.148-.147-.148-.148-.147-.148-.148-.147-.148-.148-.147-.148-.148-.147-.148-.148-.147-.148-.147-.148-.147-.148-.148-.147-.148-.147-.148-.147-.148-.147-.148-.147-.148-.147-.148-.147-.148-.147-.148-.147-.148-.147-.148-.147-.148-.147-.148-.147-.148-.147-.147-.148-.147-.148-.147-.147-.148-.147-.148-.147-.147-.148-.147-.148-.147-.147-.148-.147-.147-.148-.147-.148-.147-.147-.148-.147-.147-.148-.147-.147-.148-.147-.147-.148-.147-.147-.148-.147-.147-.148-.147-.147-.148-.147-.147-.147-.148-.147-.147-.148-.147-.147-.148-.147-.147-.148-.147-.147-.147-.148-.147-.147-.148-.147-.147-.148-.147-.147-.147-.148-.147-.147-.148-.147-.147-.148-.147-.147-.147-.148-.147-.147-.148-.147-.147-.148-.147-.147-.148-.147-.147-.148-.147-.147-.148-.147-.147-.148-.147-.147-.148-.147-.147-.148-.147-.147-.148-.147-.148-.147-.147-.148-.147-.147-.148-.147-.148-.147-.147-.148-.147-.148-.147-.147-.148-.147-.148-.147-.147-.148-.147-.148-.147-.148-.147-.148-.147-.148-.147-.148-.147-.147-.148-.147-.148-.147-.148-.148-.147-.148-.147-.148-.147-.148-.147-.148-.147-.148-.148-.147-.148-.147-.148-.148-.147-.148-.147-.148-.148-.147-.148-.148-.147-.148-.148-.147-.148-.148-.148-.147-.148-.148-.147-.148-.148-.148-.148-.147-.148-.148-.148-.148-.147-.148-.148-.148-.148-.148-.148-.147-.148-.148-.148-.148-.148-.148-.148-.148-.148-.148-.148-.148-.148-.148-.148-.148-.148-.148-.148-.148-.148-.148-.148-.148-.148-.149-.148-.148-.148-.148-.148-.149-.148-.148-.148-.148-.149-.148-.148-.148-.149-.148-.148-.149-.148-.148-.149-.148-.148-.149-.148-.149-.148-.149-.148-.148-.149-.148-.149-.148-.149-.149-.148-.149-.148-.149-.148-.149-.149-.148-.149-.149-.148-.149-.149-.148-.15-.148-.149-.148-.15-.148-.149-.149-.148-.15-.148-.149-.149-.149-.149-.149-.149-.149-.149-.149-.149-.149-.149-.149-.149-.149-.149-.15-.148-.15-.149-.149-.149-.15-.148-.15-.149-.15-.149-.149-.15-.148-.15-.15-.149-.149-.15-.149-.15-.149-.15-.149-.15-.149-.15-.149-.15-.15-.149-.15-.149-.15-.15-.15-.149-.15-.15-.15-.149-.15-.15-.15-.15-.15-.149-.15-.15-.15-.15-.15-.15-.15-.15-.15-.15-.15-.15-.15-.15-.15-.151-.15-.15-.15-.151-.15-.15-.151-.15-.15-.151-.15-.151-.15-.15-.151-.15-.152-.15-.15-.151-.15-.152-.15-.15-.152-.15-.151-.15-.152h-2v75.867zm-1-74.867c2.21 0 4.069-.046 5.951.008l.058-1.999c-1.919-.056-3.866-.008-6.009-.008zm5.951.008c8.092.235 16.182.5 24.277.754l.063-1.999c-8.091-.254-16.187-.519-24.282-.754zm23.309-.22c.203 7.975.559 15.887.58 23.82l2-.005c-.021-7.963-.379-15.945-.581-23.866zm.58 23.82c.072 27.48-.08 54.989.134 82.481l2-.016c-.214-27.489-.062-54.965-.134-82.47zm.134 82.481c.018 2.239-.344 3.267-.899 3.791-.563.53-1.607.812-3.746.732l-.075 1.999c2.166.081 3.981-.135 5.192-1.276 1.219-1.148 1.546-2.966 1.528-5.262zm-4.645 4.523c-8.296-.311-16.637-.091-25.329-.091v2c8.764 0 17.007-.22 25.254.09zm-24.329.909v-.074-.073-.074-.073-.074-.073-.074-.073-.074-.073-.073-.074-.073-.073-.074-.073-.073-.074-.073-.073-.073-.074-.073-.073-.073-.073-.073-.074-.073-.073-.073-.073-.073-.073-.073-.073-.073-.073-.073-.073-.073-.073-.072-.073-.073-.073-.073-.073-.072-.073-.073-.073-.073-.072-.073-.073-.072-.073-.073-.072-.073-.073-.072-.073-.072-.073-.072-.073-.072-.073-.072-.073-.072-.073-.072-.073-.072-.072-.073-.072-.073-.072-.072-.073-.072-.072-.072-.073-.072-.072-.072-.073-.072-.072-.072-.072-.073-.072-.072-.072-.072-.072-.072-.072-.072-.073-.072-.072-.072-.072-.072-.072-.072-.072-.072-.071-.072-.072-.072-.072-.072-.072-.072-.072-.071-.072-.072-.072-.072-.072-.071-.072-.072-.072-.071-.072-.072-.072-.071-.072-.072-.071-.072-.072-.071-.072-.072-.071-.072-.072-.071-.072-.071-.072-.071-.072-.072-.071-.072-.071-.072-.071-.072-.071-.072-.071-.072-.071-.071-.072-.071-.072-.071-.072-.071-.071-.072-.071-.072-.071-.071-.072-.071-.071-.072-.071-.071-.072-.071-.071-.071-.072-.071-.071-.072-.071-.071-.071-.072-.071-.071-.071-.071-.072-.071-.071-.071-.071-.072-.071-.071-.071-.071-.071-.072-.071-.071-.071-.071-.071-.071-.071-.072-.071-.071-.071-.071-.071-.071-.071-.071-.071-.071-.071-.071-.071-.072-.071-.071-.071-.071-.071-.071-.071-.071-.071-.071-.071-.071-.071-.071-.071-.071-.071-.071-.071-.071-.071-.071-.071-.07-.071-.071-.071-.071-.071-.071-.071-.071-.071-.071-.071-.071-.071-.071-.071-.071-.07-.071-.071-.071-.071-.071-.071-.071-.071-.071-.071-.071-.07-.071-.071-.071-.071-.071-.071-.071-.071-.071-.07-.071-.071-.071-.071-.071-.071-.071-.071-.071-.07-.071-.071-.071-.071-.071-.071-.071-.071-.071-.07-.071-.071-.071-.071-.071-.071-.071-.071-.071-.071-.07-.071-.071-.071-.071-.071-.071-.071-.071-.071-.071-.071-.071-.07-.071-.071-.071-.071-.071-.071-.071-.071-.071-.071-.071-.071-.071-.071-.071-.071-.071-.071-.071-.071-.071-.071-.071-.071-.071-.071-.071-.071-.071-.071-.071-.071-.071-.071-.071-.071-.071-.071-.071-.071-.071-.071-.071-.071-.071-.071-.072-.071-.071-.071-.071-.071-.071-.071-.071-.072-.071-.071-.071-.071-.071-.071-.072-.071-.071-.071-.071-.072-.071-.071-.071-.071-.072-.071-.071-.071-.072-.071-.071-.071-.072-.071-.071-.071-.072-.071-.071-.072-.071-.071-.072-.071-.071-.072-.071-.072-.071-.071-.072-.071-.072-.071-.071-.072-.071-.072-.071-.072-.071-.072-.071-.072-.071-.072-.071-.072-.071-.072-.072-.071-.072-.071-.072-.071-.072-.072-.071-.072-.072-.071-.072-.072-.071-.072-.072-.071-.072-.072-.072-.071-.072-.072-.072-.072-.071-.072-.072-.072-.072-.072-.071-.072-.072-.072-.072-.072-.072-.072-.072-.072-.072-.072-.072-.072-.072-.072-.072-.072h-2v36.654zm-285.448 100.353v33.796h2v-33.796zm1 32.796h-17.717v2h17.717zm-16.742.779-1.08-4.765-1.951.442 1.081 4.765zm-2.418-5.476c-2.753 1.071-5.523 2.387-8.163 3.504-2.683 1.136-5.325 2.111-8.03 2.613l.366 1.967c2.919-.542 5.719-1.584 8.444-2.738 2.768-1.172 5.373-2.418 8.108-3.482zm-16.193 6.117c-10.608 1.971-19.537-3.045-23.571-12.01l-1.824.82c4.412 9.805 14.244 15.296 25.761 13.157zm-23.571-12.01c-4.303-9.563-1.857-21.434 5.858-28.059l-1.303-1.517c-8.424 7.233-11.026 20.069-6.379 30.396zm5.858-28.059c7.316-6.282 16.277-8.256 25.793-9.138l-.185-1.991c-9.637.893-19.114 2.916-26.911 9.612zm25.793-9.138c1.92-.178 3.817-.214 5.766-.317l-.106-1.998c-1.857.099-3.876.141-5.845.324zm6.713-1.294c.087-3.868-.604-7.059-2.386-9.272-1.819-2.259-4.614-3.306-8.272-3.216l.049 1.999c3.245-.079 5.351.84 6.666 2.472 1.351 1.678 2.026 4.305 1.943 7.972zm-10.658-12.488c-7.196.175-14.449 2.039-22.133 3.238l.308 1.976c7.955-1.242 14.846-3.043 21.874-3.215zm-21.021 3.939-3.66-12.212-1.915.574 3.659 12.212zm-4.103-11.067c9.072-5.448 18.893-7.24 29.096-6.466l.152-1.995c-10.549-.8-20.796 1.053-30.277 6.746zm29.096-6.466c9.017.684 15.359 3.358 19.544 8.145 4.2 4.805 6.375 11.905 6.682 21.757l1.999-.062c-.314-10.073-2.542-17.711-7.175-23.011-4.649-5.318-11.571-8.116-20.898-8.824zm26.226 29.902c.124 3.976.019 7.931.02 12.465l2-.001c-.001-4.462.104-8.511-.021-12.526zm-25.198 32.053c3.273-1.749 5.31-4.122 6.193-7.802.858-3.578.612-8.337-.433-14.854l-1.975.317c1.04 6.488 1.222 10.907.463 14.07-.735 3.063-2.363 4.994-5.19 6.505zm4.534-23.469c-2.245.552-4.459.956-6.76 1.466-2.263.502-4.532 1.092-6.696 1.988l.765 1.848c2.003-.829 4.139-1.39 6.364-1.883 2.188-.485 4.548-.922 6.804-1.477zm-13.456 3.454c-6.469 2.678-8.822 9.688-6.274 15.843l1.848-.765c-2.171-5.244-.15-11.019 5.191-13.23zm-6.274 15.843c1.097 2.65 2.924 4.444 5.547 5.167 2.559.705 5.735.353 9.5-.931l-.645-1.893c-3.594 1.225-6.32 1.448-8.323.896-1.939-.535-3.332-1.832-4.231-4.004zm297.803-50.529c8.287-6.872 18.269-7.786 28.461-7.251l.105-1.997c-10.333-.543-20.96.343-29.843 7.708zm28.461-7.251c8.812.464 15.321 3.232 19.663 8.041 4.352 4.819 6.659 11.829 6.768 21.032l2-.024c-.113-9.504-2.499-17.051-7.283-22.348-4.793-5.308-11.864-8.215-21.043-8.698zm26.431 29.073c.149 12.516.082 24.905.207 37.443l2-.02c-.124-12.425-.059-25.002-.207-37.447zm.207 37.442c.032 3.163.436 6.379.683 9.761l1.995-.146c-.258-3.527-.647-6.551-.678-9.634zm1.681 8.688h-18.504v2h18.504zm-17.53.771-1.159-4.913-1.946.459 1.158 4.913zm-2.505-5.611c-2.632 1.057-5.297 2.358-7.841 3.468-2.587 1.129-5.143 2.106-7.764 2.628l.391 1.962c2.833-.565 5.544-1.61 8.173-2.757 2.672-1.165 5.172-2.395 7.787-3.445zm-15.605 6.096c-10.984 2.191-20.405-3.002-24.281-12.225l-1.844.775c4.26 10.134 14.638 15.781 26.516 13.412zm-24.281-12.225c-4.278-10.177-1.363-22.003 7.05-28.576l-1.231-1.576c-9.159 7.156-12.273 19.958-7.663 30.927zm7.05-28.576c7.145-5.582 15.636-7.421 24.612-8.283l-.191-1.991c-9.094.874-18.052 2.761-25.652 8.698zm24.612-8.283c1.938-.186 3.847-.197 5.839-.292l-.096-1.998c-1.878.09-3.937.107-5.934.299zm6.787-1.207c.314-3.735-.381-6.967-2.235-9.251-1.878-2.315-4.8-3.481-8.542-3.356l.067 1.999c3.278-.11 5.53.902 6.922 2.617 1.415 1.744 2.084 4.392 1.795 7.824zm-10.777-12.607c-7.19.24-14.422 2.148-21.925 3.376l.323 1.974c7.771-1.272 14.645-3.117 21.669-3.351zm-20.806 4.077c-.855-2.859-2.084-6.966-3.404-11.44l-1.918.566c1.321 4.478 2.551 8.588 3.406 11.447zm25.033 21.827c-1.414.438-2.802.765-4.303 1.186-1.46.41-2.945.89-4.342 1.594l.9 1.786c1.224-.616 2.563-1.055 3.983-1.454 1.378-.387 2.924-.759 4.354-1.201zm-8.645 2.78c-5.515 2.778-7.654 8.366-5.988 14.283l1.925-.542c-1.432-5.084.382-9.647 4.963-11.955zm-5.988 14.283c.643 2.282 1.779 4.061 3.423 5.258 1.639 1.193 3.69 1.738 6.04 1.726l-.011-2c-2.037.01-3.639-.46-4.852-1.343-1.21-.88-2.128-2.239-2.675-4.183zm9.463 6.984c5.728-.03 11.401-3.906 12.312-9.588l-1.974-.317c-.723 4.502-5.364 7.879-10.349 7.905zm12.312-9.588c.706-4.396.521-9.026.726-13.518l-1.998-.091c-.216 4.736-.02 9.039-.702 13.292zm-.273-14.564c-2.406 0-4.051 0-6.597.061l.048 1.999c2.52-.06 4.145-.06 6.549-.06zm-145.042-21.807c3.469-6.39 7.814-11.01 12.991-13.917 5.176-2.906 11.252-4.138 18.247-3.642l.142-1.995c-7.321-.519-13.799.766-19.368 3.893-5.567 3.126-10.157 8.053-13.769 14.706zm31.238-17.559c7.106.504 12.937 3.002 17.316 7.188 4.384 4.191 7.38 10.137 8.693 17.642l1.97-.345c-1.372-7.837-4.529-14.2-9.281-18.743-4.757-4.547-11.045-7.205-18.556-7.737zm26.009 24.83c.9 5.141.723 10.356 1.078 15.798l1.996-.13c-.338-5.171-.181-10.742-1.104-16.013zm1.078 15.798c.105 1.611-.238 2.33-.682 2.705-.506.428-1.435.677-3.098.654l-.027 2c1.738.023 3.319-.199 4.415-1.126 1.158-.978 1.51-2.494 1.388-4.363zm-3.78 3.359c-13.149-.179-26.308-.073-39.386-.073v2c13.1 0 26.228-.106 39.359.073zm-40.37.747c-1.286 7.034 2.881 14.799 10.767 16.165l.341-1.971c-6.607-1.144-10.261-7.702-9.14-13.834zm10.767 16.165c7.301 1.264 15.091.248 22.335.06l-.052-2c-7.542.196-14.901 1.188-21.942-.031zm22.335.06c.942-.025 1.843-.27 2.719-.553.917-.295 1.763-.616 2.807-.91l-.541-1.925c-1.083.304-2.084.675-2.88.932-.837.27-1.513.439-2.157.456zm4.278-2.212 3.177 14.523 1.954-.427-3.177-14.523zm3.723 13.407c-8.361 3.999-17.206 4.817-26.238 4.556l-.058 1.999c9.177.266 18.387-.555 27.159-4.751zm-26.238 4.556c-16.798-.486-26.373-8.724-30.892-19.443-4.554-10.804-4.001-24.225-.237-34.955l-1.887-.662c-3.892 11.092-4.505 25.038.281 36.394 4.823 11.442 15.098 20.157 32.677 20.665zm-31.129-54.398c.528-1.505 1.248-2.918 2.119-4.813l-1.817-.835c-.826 1.797-1.62 3.364-2.189 4.986zm41.348 7.991c1.125-2.198 1.156-4.985.442-7.594-.717-2.622-2.22-5.198-4.346-7.016l-1.3 1.52c1.786 1.526 3.092 3.739 3.717 6.023.628 2.298.535 4.537-.294 6.156zm-3.904-14.61c-4.14-3.539-10.652-3.795-15.03-.33l1.241 1.568c3.607-2.854 9.054-2.654 12.489.282zm-15.03-.33c-4.513 3.571-6.578 8.391-6.922 14.495l1.996.113c.32-5.665 2.197-9.898 6.167-13.04zm-5.924 15.552c7.919 0 15.499 0 23.975-.067l-.015-2c-8.468.067-16.04.067-23.96.067zm270.845 44.661h-14.092v2h14.092zm-13.092 1v-.15-.149-.15-.15-.149-.15-.149-.15-.15-.149-.15-.149-.15-.149-.15-.149-.15-.149-.15-.149-.15-.149-.149-.15-.149-.15-.149-.149-.15-.149-.15-.149-.149-.15-.149-.149-.149-.15-.149-.149-.149-.15-.149-.149-.149-.15-.149-.149-.149-.149-.149-.15-.149-.149-.149-.149-.149-.149-.149-.149-.15-.149-.149-.149-.149-.149-.149-.149-.149-.149-.149-.149-.149-.149-.149-.148-.149-.149-.149-.149-.149-.149-.149-.149-.149-.148-.149-.149-.149-.149-.149-.148-.149-.149-.149-.149-.148-.149-.149-.149-.148-.149-.149-.149-.148-.149-.149-.148-.149-.149-.148-.149-.149-.148-.149-.149-.148-.149-.149-.148-.149-.148-.149-.149-.148-.149-.148-.149-.148-.149-.148-.149-.148-.149-.148-.149-.148-.149-.148-.149-.148-.149-.148-.149-.148-.149-.148-.149-.148-.148-.149-.148-.149-.148-.148-.149-.148-.149-.148-.148-.149-.148-.148-.149-.148-.148-.149-.148-.148-.149-.148-.148-.149-.148-.148-.148-.149-.148-.148-.148-.149-.148-.148-.148-.149-.148-.148-.148-.149-.148-.148-.148-.148-.149-.148-.148-.148-.148-.149-.148-.148-.148-.148-.148-.149-.148-.148-.148-.148-.148-.148-.148-.149-.148-.148-.148-.148-.148-.148-.148-.148-.149-.148-.148-.148-.148-.148-.148-.148-.148-.148-.148-.148-.148-.148-.148-.148-.149-.148-.148-.148-.148-.148-.148-.148-.148-.148-.148-.148-.148-.148-.148-.148-.148-.148-.148-.148-.148-.148-.148-.148-.148-.148-.148-.148-.148-.148-.148-.147-.148-.148-.148-.148-.148-.148-.148-.148-.148-.148-.148-.148-.148-.148-.148-.148-.148-.148-.148-.147-.148-.148-.148-.148-.148-.148-.148-.148-.148-.148-.148-.148-.148-.148-.147-.148-.148-.148-.148-.148-.148-.148-.148-.148-.148-.148-.147-.148-.148-.148-.148-.148-.148-.148-.148-.148-.148-.148-.147-.148-.148-.148-.148-.148-.148-.148-.148-.148-.148-.148-.148-.147-.148-.148-.148-.148-.148-.148-.148-.148-.148-.148-.148-.148-.147-.148-.148-.148-.148-.148-.148-.148-.148-.148-.148-.148-.148-.148-.148-.148-.148-.148-.147-.148-.148-.148-.148-.148-.148-.148-.148-.148-.148-.148-.148-.148-.148-.148-.148-.148-.148-.148-.148-.148-.148-.148-.148-.148-.148-.148-.148-.148-.148-.148-.148-.148-.148-.148-.148-.148-.148-.148-.148-.148-.149-.148-.148-.148-.148-.148-.148-.148-.148-.148-.148-.148-.148-.149-.148-.148-.148-.148-.148-.148-.148-.148-.149-.148-.148-.148-.148-.148-.148-.149-.148-.148-.148-.148-.148-.149-.148-.148-.148-.148-.149-.148-.148-.148-.148-.149-.148-.148-.148-.149-.148-.148-.148-.149-.148-.148-.148-.149-.148-.148-.149-.148-.148-.148-.149-.148-.148-.149-.148-.148-.149-.148-.148-.149-.148-.149-.148-.148-.149-.148-.149-.148-.148-.149-.148-.149-.148-.148-.149-.148-.149-.148-.149-.148-.149-.148-.149-.148-.149h-2v75.959zm-1-74.959h20.642v-2h-20.642zm19.642-1v75.959h2v-.15-.15-.15-.15-.15-.15-.15-.15-.15-.15-.15-.15-.15-.15-.149-.15-.15-.15-.15-.15-.15-.149-.15-.15-.15-.149-.15-.15-.15-.149-.15-.15-.149-.15-.15-.149-.15-.15-.149-.15-.149-.15-.15-.149-.15-.149-.15-.149-.15-.149-.15-.149-.15-.149-.15-.149-.149-.15-.149-.15-.149-.149-.15-.149-.149-.15-.149-.149-.15-.149-.149-.149-.15-.149-.149-.149-.15-.149-.149-.149-.149-.15-.149-.149-.149-.149-.149-.149-.15-.149-.149-.149-.149-.149-.149-.149-.149-.149-.149-.149-.149-.149-.149-.149-.149-.149-.149-.149-.149-.149-.149-.148-.149-.149-.149-.149-.149-.149-.149-.148-.149-.149-.149-.149-.148-.149-.149-.149-.148-.149-.149-.149-.148-.149-.149-.149-.148-.149-.149-.148-.149-.149-.148-.149-.149-.148-.149-.148-.149-.149-.148-.149-.148-.149-.148-.149-.149-.148-.149-.148-.149-.148-.149-.148-.149-.148-.149-.148-.149-.148-.148-.149-.148-.149-.148-.149-.148-.148-.149-.148-.149-.148-.148-.149-.148-.148-.149-.148-.148-.149-.148-.148-.149-.148-.148-.149-.148-.148-.148-.149-.148-.148-.148-.149-.148-.148-.148-.149-.148-.148-.148-.149-.148-.148-.148-.148-.148-.149-.148-.148-.148-.148-.148-.149-.148-.148-.148-.148-.148-.148-.148-.149-.148-.148-.148-.148-.148-.148-.148-.148-.148-.148-.148-.148-.148-.149-.148-.148-.148-.148-.148-.148-.148-.148-.148-.148-.148-.148-.148-.148-.148-.148-.148-.148-.148-.148-.147-.148-.148-.148-.148-.148-.148-.148-.148-.148-.148-.148-.148-.148-.148-.148-.147-.148-.148-.148-.148-.148-.148-.148-.148-.147-.148-.148-.148-.148-.148-.148-.148-.147-.148-.148-.148-.148-.148-.148-.147-.148-.148-.148-.148-.148-.147-.148-.148-.148-.148-.148-.147-.148-.148-.148-.148-.148-.147-.148-.148-.148-.148-.147-.148-.148-.148-.148-.147-.148-.148-.148-.148-.147-.148-.148-.148-.147-.148-.148-.148-.148-.147-.148-.148-.148-.148-.147-.148-.148-.148-.147-.148-.148-.148-.148-.147-.148-.148-.148-.147-.148-.148-.148-.147-.148-.148-.148-.148-.147-.148-.148-.148-.147-.148-.148-.148-.148-.147-.148-.148-.148-.147-.148-.148-.148-.148-.147-.148-.148-.148-.147-.148-.148-.148-.148-.147-.148-.148-.148-.147-.148-.148-.148-.148-.147-.148-.148-.148-.148-.147-.148-.148-.148-.148-.147-.148-.148-.148-.148-.148-.147-.148-.148-.148-.148-.147-.148-.148-.148-.148-.148-.148-.147-.148-.148-.148-.148-.148-.147-.148-.148-.148-.148-.148-.148-.148-.147-.148-.148-.148-.148-.148-.148-.148-.147-.148-.148-.148-.148-.148-.148-.148-.148-.148-.148-.148-.148-.147-.148-.148-.148-.148-.148-.148-.148-.148-.148-.148-.148-.148-.148-.148-.148-.148-.148-.148-.148-.148-.148-.148-.148-.148-.148-.148-.148-.148-.148-.148-.148-.148-.148-.149-.148-.148-.148zm1 74.959h-6.55v2h6.55zm-138.847-290.65c5.197.871 9.158 3.204 11.606 6.393 2.442 3.182 3.441 7.295 2.584 11.872l1.966.368c.953-5.093-.15-9.792-2.963-13.457-2.807-3.658-7.255-6.208-12.862-7.15zm14.19 18.265c-.871 4.657-3.304 8.22-6.671 10.375-3.37 2.156-7.749 2.949-12.585 1.92l-.417 1.955c5.29 1.127 10.217.282 14.08-2.191 3.867-2.475 6.594-6.534 7.559-11.69zm-19.256 12.294c-3.732-.794-6.643-2.67-8.607-5.352-1.968-2.69-3.032-6.257-2.939-10.502l-1.999-.044c-.101 4.603 1.052 8.622 3.324 11.727 2.278 3.111 5.632 5.239 9.804 6.127zm-11.546-15.854c.166-7.532 4.866-13.085 12.129-14.338l-.34-1.971c-8.236 1.42-13.602 7.808-13.788 16.265zm12.129-14.338c1.382-.239 2.809-.299 4.678-.354l-.059-2c-1.857.056-3.418.117-4.959.383zm126.185 202.966c-1.985-1.931-3.01-3.935-3.354-5.979-.347-2.056-.019-4.236.848-6.527l-1.87-.708c-.954 2.52-1.372 5.068-.95 7.568.423 2.512 1.681 4.89 3.931 7.079zm-2.506-12.506c1.319-3.485 4.217-5.217 8.05-5.524l-.16-1.993c-4.406.353-8.103 2.432-9.76 6.809zm8.05-5.524c2.213-.177 4.196.071 5.869.822 1.657.745 3.069 2.008 4.119 3.974l1.764-.943c-1.25-2.338-2.985-3.921-5.064-4.855-2.063-.927-4.404-1.187-6.848-.991zm9.988 4.796c2.125 3.974 1.982 7.981-.695 11.626l1.612 1.184c3.165-4.311 3.308-9.15.847-13.753zm-.695 11.626c-2.698 3.675-6.58 4.414-11.037 3.499l-.402 1.959c4.917 1.01 9.731.248 13.051-4.274zm-11.037 3.499c-.553-.113-1.116-.366-1.781-.738-.331-.185-.671-.39-1.043-.614-.368-.221-.764-.459-1.184-.695l-.979 1.745c.39.218.761.441 1.131.664.366.22.735.442 1.099.646.727.406 1.502.776 2.355.951zm-625.971-80.767c.287 20.382-3.155 39.263-13.847 56.274l1.694 1.064c10.961-17.44 14.443-36.741 14.152-57.366zm-1.085-17.324c.664 5.567.734 11.165 1.086 17.367l1.997-.114c-.345-6.083-.424-11.842-1.097-17.49zm-53.435-31.107c-13.48-8.498-28.019-8.836-42.604-6.422l.327 1.973c14.354-2.376 28.32-1.985 41.21 6.141zm17.656 25.748c-2.644-10.351-8.074-19.053-17.617-25.721l-1.145 1.64c9.115 6.368 14.287 14.645 16.824 24.577zm-18.471-23.862c8.82 6.147 13.995 14.421 16.533 24.358l1.938-.496c-2.643-10.347-8.07-19.051-17.328-25.503zm-41.462-6.335c14.35-2.375 28.317-1.987 41.499 6.36l1.069-1.69c-13.767-8.717-28.306-9.058-42.895-6.643z" fill="#f2f2f7" mask="url(#a)"/></svg>