<svg height="2500" viewBox="0 17.8 132 120.6" width="2353" xmlns="http://www.w3.org/2000/svg"><path d="m0 28.5v8.5h28.1l-1.8-2.5c-1.2-1.6-2.8-2.4-4.6-2.5-1.6 0-3.7-1-5-2.3-1.2-1.3-3.5-2.7-5.1-3.1s-4.1-2-5.7-3.7c-4.8-5.1-5.9-4.1-5.9 5.6zm126.5-6.5c-.7 2.1-5.3 5-7.9 5-.8 0-2.6 1.1-4 2.5s-3.4 2.5-4.5 2.5-3.1 1.1-4.5 2.5l-2.5 2.5h28.9v-8.5c0-8.3 0-8.5-2.4-8.5-1.6 0-2.7.7-3.1 2zm-75.9 8.6c-13.2 2.9-22.9 10-26 19.1-2.5 7.3-2.1 16.9.9 23 4.7 9.5 11.9 12.7 39.6 17.8 21.6 4.1 25.9 5.5 29.4 9.7 2 2.4 2.5 4 2.5 8.5 0 5.2-.3 5.8-4.4 9.9-2.4 2.4-5.7 4.7-7.3 5-2.2.4-3.5 1.6-4.7 4-1.6 3.4-1.6 3.6 1.1 6.9 3.1 3.9 4.2 3.9 12.8 0 7.1-3.1 12-7.7 15.2-14.3 3.7-7.7 3.9-18.3.4-25.5-4.6-9.4-11.3-12.4-41.7-18.6-21.1-4.3-25.7-6-28.6-10.5-2.4-3.8-1.9-10.6.9-14.5 6.4-8.6 29.9-11.7 42.7-5.6 4.9 2.3 9.5 8.1 10.3 12.7l.6 3.8h14.9l-.6-4.8c-1.5-10.1-7.5-18.6-16.7-23.3-9.4-4.7-27.6-6.2-41.3-3.3zm-30.9 76.1c1.9 14.8 10.9 25.7 24.5 29.8 4.1 1.1 4.2 1.1 7-2.1l2.9-3.3-2-3.9c-1.2-2.3-3.2-4.4-4.9-5.1-6-2.5-12.2-11.4-12.2-17.6 0-2.5-.1-2.5-8-2.5h-8z"/></svg>