<svg viewBox="0 0 800 800" xmlns="http://www.w3.org/2000/svg" width="2500" height="2500"><path d="M0 0v800h800V0z" fill="#00cdbe"/><path d="M0 560h800v240H0z"/><path d="M319.27 618.67h-171.2a2.07 2.07 0 0 0-2.28 2.27v115.3a2.09 2.09 0 0 0 2.28 2.29h171.2c50.29 0 75.67-16.71 75.67-60.31 0-43.3-25.38-59.55-75.67-59.55zm-44.33 97.83h-53.63c-1.52 0-1.83-.61-1.83-1.83v-72.16c0-1.2.31-1.82 1.83-1.82h53.63c31.89 0 44.66 9.11 44.66 37.83s-12.77 37.98-44.66 37.98zM665 733.67l-49.52-34.94c-1.22-.92-2-1.37-2-2s.46-.92 1.53-.92c25 0 44.5-11.69 44.5-37.51s-16.65-39.63-47.51-39.63H424.4a2.06 2.06 0 0 0-2.27 2.27v115.3a2.08 2.08 0 0 0 2.27 2.29h69a2.08 2.08 0 0 0 2.28-2.29V708.9c0-1.37.46-1.82 1.83-1.82h39.73c2 0 2.73.15 4.1 1.22l34.49 28.56a6.6 6.6 0 0 0 4.85 1.67h85.84q1.83 0 1.83-1.38c.04-1.21-2.09-2.57-3.35-3.48zm-107.54-48h-59.81c-1.37 0-1.83-.46-1.83-1.82v-41.34c0-1.36.46-1.82 1.83-1.82h59.85c20.06 0 28.56 5.48 28.56 22 0 16.74-8.5 22.97-28.56 22.97z" fill="#fff"/><g fill="none"><path d="M560.62 112l.22-.06zM558.69 112.45l.34-.08zM556.76 113l.35-.1zM348.84 186.99l-66.81 21.7zM554.83 113.49l.31-.09zM552.9 114l.24-.07zM194.8 343.3q.58 4.27 1.52 8.17-.93-3.9-1.52-8.17zM551 114.61h.14zM349.06 187.85l.15-.74-.15-.05z"/></g><path d="M215 382a42.05 42.05 0 0 1-9.21-9.15c-.33-.44-.66-.89-1-1.36a49.62 49.62 0 0 1-2.66-4.36c-.28-.51-.55-1-.81-1.55-.79-1.58-1.52-3.22-2.18-4.94a69.84 69.84 0 0 1-2.82-9.17q-.93-3.9-1.52-8.17a119 119 0 0 1-1.08-16.09l-.38-89.73 67-21.76.4 95.67c0 7.15 2.6 8.76 3.21 9.24 1.62 1.28 5.51 1 8.58-.22 9.63-3.75 9.9-9.57 9.85-21.57l-.38-90.15L348.84 187l-25.9-8.47v-.35l-22.44-7.52-67 21.85.06 14.29-21.72-7.22-67 21.85.37 89.72c.11 26.23 7.27 44.66 21.27 54.79a41.92 41.92 0 0 0 10 5.33l.23.1 48.8 16.13a42.33 42.33 0 0 1-5.54-2.45A41 41 0 0 1 215 382zM546.73 164.16l-12.83 4.24v30l12.58-4.1c9.87-3.2 16.27-10.25 16.27-20.38v-1c0-10.43-6.16-11.92-16.02-8.76zM487.65 433.57l32-10.24-26-8.48zM495.33 373.34l26.27 8.47-13.08-48.07zM590.43 267.61l-61.78-20.13-50.88 16.53 61.77 20.12 58.7 185.35L649 452.94z" fill="#fff"/><path d="M382.54 158.52v52.3l40.12-13.08v129.33l27.82 9.1L477.77 264v-84.08l38.06-12.42v-41.4l31.27-10.26c1.31-.43 2.61-.84 3.89-1.23h.14l1.77-.53.24-.07 1.69-.48.31-.09 1.62-.44.35-.1 1.58-.41.34-.08q.79-.21 1.59-.39l.22-.06c15.18-3.61 27.36-3.8 36.64.21-13-6.27-44.6-15.26-44.6-15.26-14.49-4.49-30.11-6-54.23 1.92l-16.34 5.37 33.52 10.91z" fill="#fff"/><path d="M477.77 264l-27.29 72.16-27.82-9.1V197.74l-40.12 13.08v-52.3l133.29-43.45-33.52-10.91-26-8.45L322.94 139v39.48l25.9 8.47L282 208.69l.38 90.15c0 12-.22 17.82-9.85 21.57-3.07 1.19-7 1.5-8.58.22-.61-.48-3.18-2.09-3.21-9.24l-.4-95.67-67 21.76.38 89.73a119 119 0 0 0 1.08 16.09q.58 4.27 1.52 8.17a69.84 69.84 0 0 0 2.82 9.17c.66 1.72 1.39 3.36 2.18 4.94.26.52.53 1 .81 1.55a49.62 49.62 0 0 0 2.66 4.36c.32.47.65.92 1 1.36A42.05 42.05 0 0 0 215 382a41 41 0 0 0 4.88 3 42.33 42.33 0 0 0 5.54 2.45 50.35 50.35 0 0 0 11.58 2.7 63 63 0 0 0 6.83.37q13.74 0 30.79-5.53c15.73-5.11 29.08-12.23 39.95-21.23V230.05L374 249.27v106.12l55.11 17.95v60.73l30.24-9.74 28.35 9.24 6-18.72 26 8.48 2.73.89 6.15 22.69 69.71 22.57-58.7-185.35zm-128.71-76.15v-.79l.15.05zm146.27 185.49l13.19-39.6 13.08 48.07z"/><path d="M560.84 111.92l-.22.06q-.79.18-1.59.39l-.34.08-1.58.41-.35.1-1.62.44-.31.09-1.69.48-.24.07-1.77.53h-.14c-1.28.39-2.58.8-3.89 1.23l-31.27 10.3v41.4l-38.06 12.42V264l50.88-16.53 61.78 20.12 43.45-14.11-39.6-48.82c14-15.9 23.32-34.1 23.32-53.33v-1.13c0-17.31-5.26-29-16-35.89a29.82 29.82 0 0 0-4.11-2.18c-9.29-4.01-21.49-3.82-36.65-.21zm1.91 62c0 10.13-6.4 17.18-16.27 20.38l-12.58 4.1v-30l12.83-4.24c9.86-3.2 16-1.67 16 8.72z"/><path d="M373.95 355.39V249.27l-59.34-19.22v166.88l114.45 37.14v-60.73z" fill="#fff"/></svg>