<svg height="221" viewBox=".5 .8 1345.9 117.8" width="2500" xmlns="http://www.w3.org/2000/svg"><path d="m7.9 96.4c-4 0-7.4-3.1-7.4-8.3v-80.2h3.5c5.5 0 8.3 3.1 8.3 8.2v33.6c9.5-12.7 18.4-25.5 29.2-37.1 2.7-3 6-4.7 13.4-4.7h5.9v.6c-10.4 9.1-25 28-35.3 41.1 5 6.8 19.5 24.9 25.6 31.6 4.6 5 7.3 7.4 13.5 10-1.8 3.4-3.3 5.7-7.7 5.7-4.3 0-8.6-1.8-11.3-4.8-10-11.1-26.7-31.8-33.3-41.1v45.3h-4.4zm90.5 1.3c-14.2 0-26.5-8.2-26.5-20.6 0-15 11.6-23.2 32.4-23.2h9.4v-3.3c0-10.1-5.1-14.3-16.4-14.3-10.4 0-18.1 3.9-22.1 9.5h-.7v-5.7c0-6.4 8.3-14.7 23.9-14.7 17.7 0 27.1 9.2 27.1 26.2v21.9c0 14-7.6 24.2-27.1 24.2zm15.4-33.8h-9.5c-13.9 0-20.3 4.3-20.3 12 0 6.1 6 10.9 15 10.9 10.5 0 14.8-4.2 14.8-14.2zm51.8 33c-13.7 0-21.1-6.6-21.1-20.7v-73.5h3.6c4.8 0 8.3 3 8.3 9.1v63c0 8.7 4.4 11.2 10.9 11.2h7.7v3.9c.1 4.8-3 7-9.4 7zm51.2.8c-7.9 0-16.4-5-20-12.2v33.1h-4.3c-5 0-7.7-2.5-7.7-9v-46.1c0-23.6 11-38 33.3-38 15.3 0 29.9 13.9 29.9 34.5.1 23.8-13.6 37.7-31.2 37.7zm-1.2-61c-12.2 0-19 9.2-19 23.6 0 18 8.7 26.4 21.6 26.4 11.2 0 18-8.3 18-23.4-.1-19-8.5-26.6-20.6-26.6zm73.4 61c-14.2 0-26.6-8.2-26.6-20.6 0-15 11.6-23.2 32.4-23.2h9.4v-3.3c0-10.1-5.1-14.3-16.4-14.3-10.4 0-18.1 3.9-22.1 9.5h-.6v-5.7c0-6.4 8.3-14.7 23.9-14.7 17.7 0 27.1 9.2 27.1 26.2v21.9c0 14-7.5 24.2-27.1 24.2zm15.4-33.8h-9.5c-13.9 0-20.3 4.3-20.3 12 0 6.1 6 10.9 15 10.9 10.5 0 14.9-4.2 14.9-14.2v-8.7zm89-.6c-7.9 0-14.2-1.4-17.7-3.8v36.8h-4.4c-4.4 0-7.5-2.5-7.5-7.8v-77.2c5.3-2.1 15.5-4 22.5-4h6.9c17.7 0 30.6 9.9 30.6 27.2 0 16.6-13.3 28.8-30.4 28.8zm0-45h-6.8c-3 0-8.2.6-10.9 1.3v29.8c4.8 2.6 11.1 3.4 17.8 3.4 12.1 0 18.2-6.5 18.2-17.1.1-11.5-6-17.4-18.3-17.4zm96.4 78.1c-6.2 0-8.7-2.5-8.7-7.7v-32.9c0-13.9-5.9-19.1-16.7-19.1-8.1 0-17.3 6.6-17.3 19.8v40h-3.4c-5.9 0-8.3-2.5-8.3-7.7v-86h3.5c5.3 0 8.5 2.3 8.5 8.9v26.2c5.1-9.4 12.4-12.2 18.7-12.2 16.5 0 26.8 9.1 26.8 29.9v41h-3.1zm46 1.3c-14.2 0-26.5-8.2-26.5-20.6 0-15 11.6-23.2 32.4-23.2h9.4v-3.3c0-10.1-5.1-14.3-16.4-14.3-10.4 0-18.1 3.9-22.1 9.5h-.7v-5.7c0-6.4 8.3-14.7 23.9-14.7 17.7 0 27.1 9.2 27.1 26.2v21.9c0 14-7.6 24.2-27.1 24.2zm15.4-33.8h-9.5c-13.9 0-20.3 4.3-20.3 12 0 6.1 6 10.9 15 10.9 10.5 0 14.8-4.2 14.8-14.2zm65.4-22.4c-2.2-2-6-3.5-10.7-3.5-9.2 0-12.7 4.6-12.7 19.4v39h-5.1c-4.3 0-6.8-3.4-6.8-7.9v-32c0-19.3 9.4-29.5 22.9-29.5 9.5 0 13 4.2 13 8.8v5.7zm105.4 54.9c-4.5 0-7.8-3.1-7.8-8.7v-30.7c0-14.6-5.5-20.3-15-20.3-11.5 0-16.3 5.9-16.3 19.9v39.8h-4c-5.7 0-7.9-3.1-7.9-8.7v-30.7c0-12.6-5.6-20.3-15.6-20.3-10.3 0-15.6 6.1-15.6 20.3v39.4h-3.8c-4.9 0-8.2-2.9-8.2-8.7v-32.3c0-16 10.2-29.9 28.4-29.9 10.3 0 17.3 4.6 21.6 12.6 4.6-7.6 12.8-12.6 21.9-12.6 17.3 0 26.6 10.4 26.6 31.1v39.8zm46.8 1.3c-14.2 0-26.5-8.2-26.5-20.6 0-15 11.6-23.2 32.4-23.2h9.4v-3.3c0-10.1-5.1-14.3-16.4-14.3-10.4 0-18.1 3.9-22.1 9.5h-.7v-5.7c0-6.4 8.3-14.7 23.9-14.7 17.7 0 27.1 9.2 27.1 26.2v21.9c0 14-7.5 24.2-27.1 24.2zm15.4-33.8h-9.5c-13.9 0-20.3 4.3-20.3 12 0 6.1 6 10.9 15 10.9 10.5 0 14.8-4.2 14.8-14.2zm80.4-18.3c-2.5-5.2-10.9-9.1-17.7-9.1-13.8 0-23 10.2-23 24.1 0 18.2 12.5 26 23.3 26 7.5 0 13.9-2 17.4-6.1h.7v5c0 4.4-5.2 12.2-20.2 12.2-14.6 0-33.3-12.8-33.3-35.3 0-19.8 13.5-37 34.5-37 10.4 0 19 5.2 19 15.2v5zm44.1 21.4h-17.2c1.2 11.6 9.2 19.8 22.2 19.8 10.7 0 17.2-3.4 21.1-7.1h.7v5.2c0 7.3-7.8 12.9-23.4 12.9-19.1 0-32.7-14.7-32.7-34.8 0-22.5 14.1-37.5 32.5-37.5 13.5 0 26.3 10.3 26.3 24.2.1 12.2-5.6 17.3-29.5 17.3zm2-30.9c-11.5 0-18.7 9.6-19.1 18.6l-.1 2.9 15.7-.3c16.8-.3 19.7-1.8 19.7-7 0-7.5-5.3-14.2-16.2-14.2zm72.2 61.6c-17.1 0-28.4-11.8-28.4-32.3v-38.6h3.6c5.3 0 8.2 3.1 8.2 9.2v28.8c0 14.2 7.2 21.7 17.3 21.7 10.9 0 16.5-6.2 16.5-21.2v-38.5h3.3c5.7 0 8.6 3 8.6 9.2v30.5c0 20.4-10.5 31.2-29.1 31.2zm60.3-70.8h23.9v3.9c0 4.3-2.9 7.2-9.1 7.2h-14.7v34.5c0 9.9 3.9 14.1 11.5 14.1 4.3 0 8.5-.4 10.9-2h.6v4.2c0 5.9-4.5 9-12.6 9-15.5 0-22.2-8.1-22.2-24.1v-45.4c0-4 1-7.9 3-10.8 1.7-2.5 5.6-5 7.3-5h1.4zm44.3-9.8c-4.4 0-8.1-3.6-8.1-8.1 0-4.4 3.6-8.2 8.1-8.2 4.4 0 7.9 3.8 7.9 8.2.1 4.5-3.4 8.1-7.9 8.1zm14.6 79.9c-13.7 0-20.8-6.8-20.8-20.7v-49.5h3.7c4 0 8.2 3.1 8.2 9.2v38.7c0 8.7 4.3 11.5 10.8 11.5h5.1v3.9c-.1 4.3-2.8 6.9-7 6.9zm68.8-51.4c-2.5-5.2-10.9-9.1-17.7-9.1-13.8 0-23 10.2-23 24.1 0 18.2 12.5 26 23.3 26 7.5 0 13.9-2 17.4-6.1h.7v5c0 4.4-5.2 12.2-20.2 12.2-14.6 0-33.3-12.8-33.3-35.3 0-19.8 13.5-37 34.5-37 10.4 0 19 5.2 19 15.2v5zm41.6 52.1c-14.2 0-26.5-8.2-26.5-20.6 0-15 11.6-23.2 32.4-23.2h9.4v-3.3c0-10.1-5.1-14.3-16.4-14.3-10.4 0-18.1 3.9-22.1 9.5h-.7v-5.7c0-6.4 8.3-14.7 23.9-14.7 17.7 0 27.1 9.2 27.1 26.2v21.9c0 14-7.6 24.2-27.1 24.2zm15.4-33.8h-9.5c-13.9 0-20.3 4.3-20.3 12 0 6.1 6 10.9 15 10.9 10.5 0 14.8-4.2 14.8-14.2zm51.9 33c-13.7 0-21.1-6.6-21.1-20.7v-73.5h3.7c4.8 0 8.3 3 8.3 9.1v63c0 8.7 4.4 11.2 10.9 11.2h7.7v3.9c0 4.8-3.2 7-9.5 7zm39.3.8c-11.7 0-21.1-5.5-21.1-13.8v-5.1h.7c3.9 4.3 11.7 7.8 20.7 7.8 10.3 0 14.8-3.3 14.8-10.1 0-5.7-2.5-8.2-18.4-11.6-13-2.7-19.1-7.1-19.1-17.6 0-11.3 10.3-21.9 27.6-21.9 10.3 0 20.3 4.7 20.3 13.1v5.2h-.7c-3-3.6-10.5-7.2-18.7-7.2-11.8 0-16.5 4-16.5 9.9 0 4.7 2.6 6.6 17.1 9.8 13.8 3 20.6 9.4 20.6 19-.1 14.7-11.4 22.5-27.3 22.5z" fill="#2790a5"/></svg>