<svg height="939" viewBox="1.4 13.8 162.2 34.4" width="2500" xmlns="http://www.w3.org/2000/svg"><path d="m70 35.1c0 3.7 2.2 5.1 4.8 5.1 2.9 0 4-1.8 4-3.6s-.8-2.6-1.6-2.9c-1.3-.6-3.1-1.1-5.7-2-3.3-1.1-4.2-3.6-4.2-6.1 0-4.8 3.5-7 7-7 4 0 7.3 2.6 7.3 7.6h-3.3c-.2-3.1-1.8-4.2-4.1-4.2-1.5 0-3.5.7-3.5 3.1 0 1.7.9 2.6 2.3 3.1.3.1 4.5 1.5 5.5 1.8 2.5.9 3.7 3.6 3.7 6.1 0 5.3-3.8 7.5-7.6 7.5-4.4 0-7.9-2.6-8-8.5zm14.7-.7c0-5.3 2.5-9.1 7-9.1 4.4 0 7 3.8 7 9.1s-2.5 9.1-7 9.1-7-3.8-7-9.1zm10.9 0c0-3-1.2-6.1-3.9-6.1s-3.9 3.1-3.9 6.1 1.2 6.1 3.9 6.1 3.9-3.1 3.9-6.1zm4.9-8.6h2.3v-1.4c0-4.4 1.8-5.1 3.8-5.1 1 0 1.7.1 2.1.2v3c-.4-.1-.8-.2-1.4-.2-.8 0-1.5.4-1.5 1.8v1.8h2.6v2.8h-2.6v14.4h-3v-14.5h-2.3zm9 0h2.3v-5.2h3v5.2h2.7v2.8h-2.7v9.2c0 1.6.1 2.4 1.5 2.4.4 0 .9 0 1.3-.1v2.9c-.7.1-1.3.2-2 .2-3.2 0-3.8-1.5-3.8-4.4v-10.2h-2.3zm13.3 9.6c0 2.7 1.2 5.1 3.7 5.1 1.8 0 2.8-1 3.4-2.9h2.9c-.7 3.8-3.2 5.9-6.2 5.9-4.3 0-6.8-3.8-6.8-9.1 0-4.9 2.6-9.1 6.7-9.1 4.4 0 7 4.9 6.5 10.1zm7.1-2.5c-.1-2.4-1.4-4.6-3.5-4.6s-3.6 2-3.6 4.6zm15.4-1.3c-.2-2.1-1.5-3.2-3.1-3.2s-3.8 1-3.8 6.3c0 2.9 1 5.9 3.7 5.9 1.8 0 3-1.5 3.3-3.9h3c-.6 4.5-2.8 7-6.3 7-4.3 0-6.7-3.8-6.7-8.9 0-5.2 2.3-9.3 6.8-9.3 3.2 0 5.9 2 6.2 6.3h-3.1zm6.2-12.4h3v8.8h.1c.7-1.6 2.3-2.7 4.1-2.7 3 0 4.9 2 4.9 5.9v11.9h-3v-10.9c-.1-2.7-.9-3.9-2.7-3.9-2 0-3.3 2-3.3 4.5v10.2h-3v-23.8zm-90.9 29h-57.3c-1.1 0-1.9-.9-1.9-1.9v-30.6c0-1.1.9-1.9 1.9-1.9h57.3c1.1 0 1.9.9 1.9 1.9v30.6c0 1-.9 1.9-1.9 1.9z" fill="#3a4e83"/><path d="m4.5 19.3h7.9c5.9 0 8.4 5.3 8.4 11.9s-2.5 11.9-8.4 11.9h-7.9zm3.3 20.4h3.3c5.2 0 6.4-3.7 6.4-8.5s-1.1-8.5-6.4-8.5h-3.3zm16.7-20.4h9.1c4.2 0 6.3 2.4 6.3 6.5 0 4.6-2.5 5.8-3.2 6v.1c1.1.2 2.8 1.3 2.8 5 0 2.8.3 5.3 1 6.3h-3.5c-.5-1-.5-2.3-.5-3.5 0-4.4-.7-6.3-3.8-6.3h-4.9v9.8h-3.3zm3.3 10.9h5.5c2.1 0 3.3-1.3 3.3-3.8 0-3-1.6-3.6-3.3-3.6h-5.4v7.4zm18.3 5c0 3.7 2.2 5.1 4.8 5.1 2.9 0 4-1.8 4-3.6s-.8-2.6-1.6-2.9c-1.3-.6-3.1-1.1-5.7-2-3.3-1.1-4.2-3.6-4.2-6.1 0-4.8 3.5-7 7-7 4 0 7.3 2.6 7.3 7.6h-3.3c-.2-3.1-1.8-4.2-4.1-4.2-1.5 0-3.5.7-3.5 3.1 0 1.7.9 2.6 2.3 3.1.3.1 4.5 1.5 5.5 1.8 2.5.9 3.7 3.6 3.7 6.1 0 5.3-3.8 7.5-7.6 7.5-4.4 0-7.9-2.6-8-8.5z" fill="#fff"/></svg>