<svg height="400pt" viewBox="31.6 82.9 304.7 196.7" width="400pt" xmlns="http://www.w3.org/2000/svg"><path d="m170.9 91.2-4.1 8.2 2.6 2.1 2.7 2.2-1.5 44.8-1.6 44.8 2.3 1.5c1.2.9 4 3.5 6.3 5.8l4.1 4.4 3.4-4.8c5.1-7.2 11.9-14.2 16.8-17.4 5.8-3.6 13.4-3.9 19.2-.6 2.2 1.2 3.9 2.6 3.9 3.1 0 1.7-5.3 7.7-9.4 10.7-2.2 1.7-6.5 3.8-9.4 4.6-4.8 1.4-5.7 1.4-10.3-.1-2.8-.9-5.3-1.4-5.7-1-1 1 5.4 6.1 11.2 9 6.8 3.4 15.1 3.4 22.3.1 5.6-2.7 16.3-10.3 16.3-11.7 0-.5-2.7-4-6-7.8-15.2-17.7-32.8-23.5-46.1-15.2l-4.7 2.9-.6-7.1c-.3-4-1.1-23.8-1.7-44.2-1.1-36.7-1.1-36.9-3.5-39.7l-2.3-2.9zm-77.7 22.2c-1.6 2.2-2 4.9-2.6 19.8-1.5 39.6-1.7 43-3.5 42.2-11.2-4.9-19.8-5.6-28.6-2.3-7.3 2.7-16.7 9.9-22.3 17.2l-4.6 5.8 5.5 5.5c5.7 5.8 15.5 11.4 19.8 11.4s9.6-1.8 13.8-4.8c6.1-4.1 11.8-9.1 11.1-9.7-.3-.3-3.3.2-6.7 1.1-7.1 1.8-10.7 1.3-16.8-2.2-4.2-2.4-11.3-9.9-11.3-11.9 0-.6 1.2-1.8 2.7-2.7 7.1-4.2 17.4-3 24.1 2.8 3.6 3.1 11.8 13.1 14.1 17.2.8 1.4 1.5 1.1 4.8-1.8 2.2-1.9 5.2-4.4 6.7-5.5l2.7-2-1.4-30.5-1.4-30.5 2.8-3.1 2.9-3-4.2-7.7c-2.3-4.2-4.5-7.7-4.9-7.7s-1.6 1.1-2.7 2.4zm54.5 57.2c-2.7 2.6-4.7 4.7-4.5 4.8.2.2 1.7 1.2 3.4 2.4 3.9 2.7 6.4 7.8 6.4 13.1 0 5.5-2.1 6.5-14.1 6.6-8.9 0-9.9-.2-14.5-3-6.9-4.3-11.4-11.2-11.4-17.6 0-4.2-.3-4.9-2-4.9-1.8 0-2 .7-2 7.3 0 15.1 5.7 23.8 17.8 27.3 20.1 5.9 41.9-13.1 34.8-30.1-1.9-4.4-6.5-10.5-8-10.5-.6 0-3.3 2.1-5.9 4.6zm111.3.4c-1.9 1.7-4.2 3-5 3-1.4 0-1.6.9-1.2 5.5.5 6.6-2.4 13.5-9 21l-4.2 4.8 2.9 2.3c7 5.6 14.6 5.6 23.1 0 5.6-3.7 7.3-6.4 3.2-5.1-6.1 2-9.7 1.7-14.3-.9-4.4-2.7-5.4-3.9-3.6-5.1.8-.4 1.7-2.7 4.6-12.2.3-.7 6.6 4.9 14.2 12.5 14.1 14.2 27.4 25.1 34.1 27.9 9.2 3.9 20.6.9 26.3-7 3.6-4.9 2.2-6.1-3.2-2.8-4.2 2.6-7.5 2.6-14 .2-9.9-3.8-27.2-19.2-41.1-36.7-4.5-5.7-8.5-10.4-8.8-10.4-.3.1-2.1 1.4-4 3z"/><path d="m303.6 175.6-3.9 7.5 2.3 2.4c2 2.2 2.1 2.9 1.4 8.7-.5 3.5-.8 6.7-.9 7.1 0 .4 2.8 2.4 6.3 4.3 3.9 2.2 6.2 3 6.2 2.2-.1-.7-.9-9.3-1.8-19-1.7-16-2.8-20.8-5.1-20.8-.3 0-2.3 3.4-4.5 7.6zm-194.1 42.5c-13 1.9-24.4 7.5-30.3 14.8-1.8 2.2-3.2 4.2-3.2 4.5 0 .2 2.6-1.3 5.8-3.4 8.4-5.6 14.1-7.3 26.2-7.7 11.1-.5 18 .5 57.6 8.2 29 5.5 40.7 6.8 58.4 6.2 16.1-.5 24.1-2.2 33.4-6.9 4.3-2.2 13.1-10.1 14.8-13.2 1-1.8.8-1.8-2.3.3-11.6 7.7-21.6 10.1-43.4 10.1-19 0-35.3-2.2-59.5-8-9.1-2.1-19.4-4.4-23-5-7.6-1.2-25.9-1.1-34.5.1zm.3 30c-3.7 2.1-.5 5.9 3.6 4.3 2.1-.8 2.1-4 0-4.8-1.9-.7-1.5-.8-3.6.5zm84.7-.2c-7.9 1.9-11.5 6.6-11.5 15.1 0 9.8 5.6 15.4 15.5 15.4 9.2.1 15.5-6.1 15.5-15.2 0-10.6-9.2-17.8-19.5-15.3zm9.4 6.7c2.7 3.4 2.9 12.8.5 16.2-3.3 4.7-10 4.5-12.3-.4-2.3-5.2-1-15.4 2.3-17.6 2.6-1.8 7.5-.8 9.5 1.8zm64.4-6.9c-2 .7-1.5 4.1.6 4.8 2.6.8 5.1-.4 5.1-2.6 0-1-.4-1.9-.9-1.9s-1.5-.2-2.3-.4c-.7-.3-1.9-.2-2.5.1zm-195.3 1.9c0 .9.7 2.2 1.6 2.9.9.6 3.8 6.5 6.4 13.1l4.8 11.9h7.4l4.7-12.4c2.7-6.9 5.3-12.7 5.9-12.9.7-.2 1.2-1.2 1.2-2.3 0-1.6-.7-1.9-5.5-1.9s-5.5.2-5.5 2c0 1.1.7 2 1.5 2s1.5.5 1.5 1.1c0 1.1-5.8 18.1-6.4 18.7-.4.3-7.6-17.9-7.6-19.1 0-.4.7-.7 1.5-.7s1.5-.9 1.5-2c0-1.8-.7-2-6.5-2-5.4 0-6.5.3-6.5 1.6zm176-.2c0 .8.7 1.6 1.5 2 1.2.4 1.5 2.7 1.5 11.6s-.3 11.2-1.5 11.6c-.8.4-1.5 1.2-1.5 2 0 1.1 1.6 1.4 6.5 1.4s6.5-.3 6.5-1.4c0-.8-.7-1.6-1.5-2-1.2-.4-1.5-2.9-1.5-13.6v-13h-5c-3.6 0-5 .4-5 1.4zm-214 1.1c0 .8.9 1.9 2 2.5 1.8 1 2 2.1 2 11.1 0 9.2-.2 10.1-2 10.6-1.1.3-2 1.4-2 2.4 0 1.8.8 1.9 13.2 1.7l13.1-.3v-4c0-4.9-2.7-6.2-4.3-2.1-.8 2.3-1.5 2.6-6 2.6h-5.1l.3-4.8c.2-3.9.7-4.8 2.4-5 1.2-.2 2.8.4 3.7 1.2 1.9 1.9 2.7 1.1 2.7-3.1 0-3.2-1.2-4.3-2.5-2.3-.3.5-1.9 1-3.6 1-2.8 0-2.9-.2-2.9-4.5v-4.5h5.1c4.2 0 5.2.3 5.6 2 .3 1.1 1.4 2 2.4 2 1.5 0 1.9-.7 1.9-4v-4h-13c-10.8 0-13 .3-13 1.5zm71 8.4c0 1.2.7 2.1 1.5 2.1 1.2 0 1.5 1.4 1.5 6.5 0 4.9-.4 6.7-1.5 7.1-.8.4-1.5 1.2-1.5 2 0 1 1.5 1.4 6 1.4 6.3 0 7.7-1.3 4.4-4.1-1.2-.9-1.5-3-1.3-8.8l.2-7.6-4.6-.3c-4.2-.3-4.7-.1-4.7 1.7zm18 .1c-4 4-2 8 5.5 10.7 3.7 1.4 5 2.4 5 3.8 0 2.9-4.6 3.2-7 .5-2.8-3.1-5.5-2.6-5.5 1 0 2.7.3 3 3.3 3h7.6c5.2.1 8.1-2.1 8.1-6 0-3.3-1.1-4.3-7.5-6.7-6.2-2.3-7.4-5.3-2.2-5.3 1.9 0 4 .7 4.7 1.5 2 2.4 4 1.8 4-1.3 0-2.7-.1-2.8-7-3-5.8-.1-7.3.1-9 1.8zm24.3-1.3c-.7.2-1.3 1.3-1.3 2.4 0 2.2 3.2 3.9 3.8 2 .7-2 4.9-3.2 7.7-2.1 1.8.7 2.5 1.7 2.5 3.5 0 2.4-.3 2.5-5.4 2.5-8.8 0-13 4.8-8.8 10.1 1.5 1.7 2.9 2.2 6.5 2.2 2.5 0 5.4-.6 6.3-1.4 1.3-1.1 1.8-1.1 2.1-.2.7 1.9 9.3 1.7 9.3-.1 0-.8-.7-1.6-1.5-2-1.1-.4-1.5-2.1-1.5-6.6 0-5.1-.4-6.5-2.5-8.5-2.1-2.2-3.3-2.5-9.2-2.4-3.7 0-7.4.3-8 .6zm12.7 12.7c0 1.3-.6 2.9-1.4 3.5-2.1 1.8-7 1-7.4-1.2-.7-3.5.6-4.7 4.8-4.7 3.5 0 4 .3 4 2.4zm57-11.4c0 1.1.7 2 1.5 2 1.2 0 1.5 1.4 1.5 6.5 0 4.9-.4 6.7-1.5 7.1-.8.4-1.5 1.2-1.5 2 0 1.1 1.6 1.4 6.5 1.4s6.5-.3 6.5-1.4c0-.8-.7-1.6-1.5-2-1.1-.4-1.5-2.1-1.5-5.9 0-5.7 1.2-7.7 4.5-7.7s4.5 2 4.5 7.7c0 3.8-.4 5.5-1.5 5.9-.8.4-1.5 1.2-1.5 2 0 1.1 1.6 1.4 6.5 1.4s6.5-.3 6.5-1.4c0-.8-.7-1.6-1.5-2-1.1-.4-1.5-2.1-1.5-6.1 0-5.5-1.2-9.3-3.4-10.7-1.9-1.3-8.1-.9-10.3.7-1.9 1.3-2.2 1.3-2.7 0-.4-1-2-1.5-5.1-1.5-3.8 0-4.5.3-4.5 2zm47 0c0 1.1.5 2 1 2 1.6 0 1.3 13-.3 13.6-.8.3-1.4 1.1-1.4 1.9 0 1.2 1.5 1.5 6.4 1.5 4.7 0 6.3-.3 6.3-1.4 0-.8-.7-1.6-1.5-2-1.2-.4-1.5-2.4-1.5-9.1v-8.5h-4.5c-3.8 0-4.5.3-4.5 2zm14.4-.8c-.4.7.2 1.8 1.4 2.6 3.1 2 3.2 11.6.2 13.4-4 2.5-2.3 3.8 5 3.8 5.4 0 7-.3 7-1.4 0-.8-.9-1.8-2-2.1-1.6-.5-2-1.5-2-5.5 0-5.5 1.8-8 5.5-8 3.1 0 4.5 2.7 4.5 8.5 0 3.1-.5 4.7-1.5 5.1-.8.4-1.5 1.2-1.5 2 0 1 1.5 1.4 6 1.4s6-.4 6-1.4c0-.8-.7-1.6-1.5-2-1.1-.4-1.5-2.2-1.5-7.5 0-6.1-.3-7.2-2.2-8.5-2.8-2-7.8-2-10.4-.1-2.5 1.9-3.4 1.9-3.4 0s-8.5-2.1-9.6-.3zm36.7.4c-5.1 3.6-6.1 11.9-2 16.3 3.8 4.1 14.1 4.7 18.4 1.1 3.8-3.1 0-5.5-3.9-2.5-3.1 2.3-7.3 1.9-9.2-1-.8-1.3-1.3-2.9-.9-3.5.3-.5 4.2-1 8.7-1h8.1l-.7-3.2c-1-5.2-3.7-7.1-10.3-7.6-4.3-.2-6.4.1-8.2 1.4zm11.3 3c3 3 2 4.4-3.3 4.4-5.7 0-6.6-.8-4.5-3.8 1.8-2.6 5.6-2.9 7.8-.6z"/></svg>