<svg height="196pt" viewBox="28.3 16.7 354.1 174.1" width="401pt" xmlns="http://www.w3.org/2000/svg"><path d="m372.5 19.1c-11.4 5.4-18.9 6.8-47 8.4-14.8.8-28.2 1.5-29.7 1.5-5.1 0-5.7 1.7-4 11.7 1.8 11.3 1.1 33.4-1.3 41.3-3.7 12-9 20.1-16.9 25.7-2.8 2-8 6.4-11.6 9.8-8.3 7.9-16.1 13.6-22.9 17-4.3 2.2-6.3 2.6-10.2 2.3l-4.9-.5v24.3c0 22.7.7 29.4 2.9 29.4.4 0 6.2-5.3 12.7-11.8 17.1-17.1 20.4-19.2 36.5-24.5 12.1-4 15.4-4.7 28.5-5.7 8.1-.6 15.2-1.3 15.6-1.6s.8-1.3.8-2.3c0-4.4 4.4-18.3 8.1-26 6.7-13.6 14.8-20.5 27.4-23.1 3.3-.7 6.4-1.7 6.9-2.1.4-.4.8-5.6.7-11.6-.1-5.9.5-15.5 1.3-21.3 2.4-16.9 5.9-26.3 12.1-33 4.4-4.8 4.9-6.6 2.2-8.5-2.6-1.8-2.2-1.8-7.2.6zm-4.5 12.1c-5.6 10.3-9 28.2-9 47.3v10l-6.3 1.8c-16.7 4.9-28.7 19.3-34.3 41.4-1.3 5.3-2.5 9.8-2.7 9.9-.1.1-6.3.7-13.7 1.3-11.4 1-15.7 1.9-27.6 5.8-16.3 5.2-20.4 7.9-35 22.3-5 5-9.3 9-9.7 9-.9 0-.9-29.6-.1-33.8.6-2.7 1.3-3.3 5.8-4.6 8.9-2.6 17.4-8.5 34.3-23.5 3.5-3.1 8.8-7.8 11.8-10.5 6.8-6.1 12.7-17.4 15-28.8 1.7-8.8 2-30.8.5-38.8-.6-2.9-.9-5.4-.8-5.5.2-.1 13.5-1 29.7-1.9 25.4-1.5 30.2-2 36-4 3.6-1.3 7.1-2.4 7.8-2.5.6 0-.2 2.3-1.7 5.1z"/><path d="m317.5 62.9c-10.9.6-11 .6-11 3.1v2.5l19 .3c20.9.3 23.5 0 23.5-2.6 0-4.4-2.8-4.7-31.5-3.3zm-36.2 55.7c-.4 1.2 2 4.2 8.4 10.5 5 4.9 9.5 8.9 10.2 8.9.6 0 1.4-.7 1.8-1.6.4-1.1-2.1-4.3-8.3-10.5-9-9-11-10.2-12.1-7.3zm-251.6-99.9c-1.4 1.4-.6 3.6 3.2 8.1 4.5 5.5 5.6 7.5 8.2 15 3.2 9.3 4.9 21.7 5 36.3 0 9.4.4 14.1 1.2 14.7.7.5 3.6 1.5 6.6 2.1 12.3 2.6 21.8 10.9 28.1 24.6 3.6 7.7 7 18.9 7 23.2 0 1.1.6 2.5 1.3 3.1s7.6 1.6 15.3 2.2c11.9 1 15.9 1.8 28.1 5.6 11.6 3.7 15.2 5.3 20 9 6.4 4.9 27.3 25.3 27.3 26.6 0 1.6 3.8.8 4.5-.9.8-2.2 1.4-30.5.8-43l-.4-9.1-3 .8c-6.7 2-18.7-4.9-36.1-20.6-4.2-3.8-9.7-8.7-12.3-10.8-9.6-8-14.7-19.3-16.6-36.6-1-9.5-.6-17.4 1.7-33.7.6-3.8.4-4.3-1.7-5.2-1.3-.6-15.4-1.7-31.4-2.6-30.5-1.7-32.6-2-44.2-6.6-7.2-2.8-11.3-3.6-12.6-2.2zm19.8 10.5c4.6 1.5 12.4 2.2 35 3.5 15.9.9 29.1 1.7 29.3 1.8.2.2-.2 5-.9 10.7-2.2 19.5.2 37.3 7 50.3 3.9 7.6 7.7 11.8 18.6 20.7 3.9 3.2 10.2 8.5 14 11.9 8.1 7 17 12.3 23.8 14l4.7 1.1v37l-9.6-9.1c-16-15.1-19.2-17.2-35.6-22.4-11.9-3.8-16.5-4.7-27.8-5.7-7.4-.7-13.5-1.3-13.5-1.3 0-.1-1.1-4.3-2.3-9.2-6-24.1-19-39-37.4-42.9-2.7-.6-2.8-.8-2.8-7.4 0-18.3-3.6-38.6-8.7-49.1-1.5-3.1-2.9-6-3.1-6.5-.3-.5.3-.6 1.4-.1 1.1.4 4.6 1.6 7.9 2.7z"/><path d="m62.5 63.4c-1.6 1.2-1.8 1.8-.9 3.3 1 1.6 3.1 1.8 21.6 2.1 17.7.2 20.7 0 21.2-1.3.3-.8.3-2.2 0-3-.5-1.3-3.5-1.5-18.3-1.5-9.7 0-18.5-.3-19.6-.6s-2.9.2-4 1zm54.6 62.5c-8.8 8.3-10.6 11.3-7 11.8.8.1 5.7-3.7 10.9-8.6 8.2-7.8 9.3-9.1 8.1-10.5-.7-.9-1.6-1.6-2-1.6-.3 0-4.8 4-10 8.9z"/></svg>