<svg height="1280pt" viewBox=".3 13.6 1096.6 1266.3" width="1097pt" xmlns="http://www.w3.org/2000/svg"><path d="m280.1 16.6c-13.2 3.5-20 14.5-17.1 27.7 2.5 12.1 10.5 17.6 26.3 18.5 16.2.8 27.4-3.3 31.7-11.7 3.5-6.9 3.3-7.1-7.7-7.1l-9.8.1-2 3.2c-4 6.3-14.9 5.6-18.7-1.3-2.9-5.2-1.9-12.6 2.2-16.3 4.2-3.7 11.9-3.9 15.5-.2 1.4 1.3 2.5 3.1 2.5 4 0 1.2 1.6 1.5 10 1.5 8.7 0 10-.2 10-1.7 0-3.4-4.3-10.5-7.9-12.8-7.8-5.2-23.7-6.9-35-3.9zm225.9-.1c-3.3 1-6.7 2.8-8.5 4.6-2.6 2.5-3 3.7-3 8.3 0 9.2 5.2 12.6 22 14.6 10.5 1.2 13.5 2.2 13.5 4.3 0 4.1-10.4 5.3-14 1.7-1.7-1.7-3.3-2-12-2-10 0-10 0-10 2.5 0 4 5.2 9 11.5 11 8 2.5 29 1.8 35.5-1.2 7.1-3.2 9.4-6.3 9.4-12.8.1-4.6-.3-5.8-2.7-8.3-3.3-3.4-7.1-4.6-21.3-6.7-11.5-1.7-13.4-2.2-13.4-3.9 0-4 10.4-5.2 14-1.6 1.7 1.7 3.3 2 11.9 2h10l-1-3c-1.4-3.8-5.9-7.6-10.7-9.1-6.2-1.9-24.9-2.1-31.2-.4zm66.7-.1c-6.5 1.8-9.9 4.5-11.5 9.1-2.4 7.1.8 13.2 8.1 15.9 2.3.8 8.4 2 13.6 2.6 10.4 1.2 13.1 2.2 13.1 4.9 0 2.3-1.9 3.1-7.6 3.1-3.1 0-5-.6-6.4-2-1.7-1.7-3.3-2-12-2-11.3 0-11.8.5-8 6.8 3.4 5.5 9.4 7.6 23.6 8 21.4.7 31.4-4.2 31.4-15.2 0-10.1-4.7-12.5-31.2-16.1-2.5-.3-5.2-1.3-5.9-2.2-3.4-4 8.6-6.1 13.4-2.3 2.1 1.7 4 2 12.1 2 10.5 0 10.9-.3 7.7-5.6-3.4-5.6-12.9-8.5-27.5-8.3-4.4 0-10.3.6-12.9 1.3zm71.5.1c-13.4 3.8-20.2 14.7-17.2 28 2.7 12.3 10.5 17.5 27.1 18.3 16.4.8 26.5-3.2 30.9-12.3 2.6-5.4 3.1-14.7 1.1-20.7-1.5-4.5-8.5-10.9-13.8-12.7-6-2-21.9-2.3-28.1-.6zm21.2 13.4c4.8 5 4.4 16-.7 19.4-5.4 3.5-14.2 2.7-17.2-1.5-3.6-5.3-3.1-14 1.2-18.2 2.2-2.2 3.5-2.6 8.2-2.6 5 0 6.1.4 8.5 2.9zm49.9-13.5c-11.2 2.8-17.2 9.4-18 19.9-1.4 17.5 9 26.7 30.3 26.7 16.1 0 26.4-5.6 29.4-15.9l.9-3.1h-10c-9.5 0-10 .1-11 2.4-1.5 3.3-5.4 5.1-10.7 5-3.8-.1-5-.6-7.4-3.3-2.3-2.6-2.8-4.1-2.8-8.2 0-5.5 2-10.3 4.9-11.9 1.1-.5 4.2-1 6.9-1 5 0 8 2 9.5 6.2.6 1.6 2 1.8 10.6 1.8h9.9l-.8-3.7c-1.5-6.5-7.2-12-14.9-14.4-5.6-1.7-20.9-2-26.8-.5zm269.7.1c-3.3 1-6.7 2.8-8.5 4.6-2.6 2.5-3 3.7-3 8.3 0 9.2 5.2 12.6 22 14.6 10.5 1.2 13.5 2.2 13.5 4.3 0 4.1-10.4 5.3-14 1.7-1.7-1.7-3.3-2-12.4-2h-10.5l1 3.2c2.5 8.9 11 12.2 29.7 11.6 11.1-.3 13.4-.7 17.7-2.8 6.5-3.3 9-6.8 9-13 0-8.7-5.1-11.8-23.7-14.5-12-1.7-13.8-2.2-13.8-3.9 0-2.2 2.4-3.6 6.2-3.6 3.9 0 8.8 1.7 8.8 3.2 0 .4 4.7.8 10.4.8h10.5l-1-3c-1.4-3.8-5.9-7.6-10.7-9.1-6.2-1.9-24.9-2.1-31.2-.4zm-913 22.6v23.1l20.3-.4c19.9-.3 20.3-.3 26-3.1 8.1-4 11.1-8.7 11.5-18.1.4-8.1-1.1-12.6-5.5-17-6.1-6.1-13.1-7.6-36-7.6h-16.3zm33-10.8c7.1 2.4 9 13.5 3.4 18.8-2.3 2.1-3.5 2.4-10.7 2.4h-8.2l-.3-9.9c-.1-5.5 0-10.6.2-11.3.7-1.7 10.7-1.7 15.6 0zm37.3-10.8c-1.1 3.1.4 29.8 1.9 33.5 2.2 5.3 7.8 9.6 14.1 11 7.9 1.8 22.2.9 27.2-1.7 8.9-4.6 10.4-8.8 10.5-29.1v-15.2h-16.8l-.3 14.9c-.4 14.2-.5 15.1-2.8 17.5-3.1 3.3-9.6 3.6-13.2.7-2.3-1.8-2.4-2.6-2.9-17.3l-.5-15.3-8.3-.3c-6.8-.2-8.3 0-8.9 1.3zm63.7 4.5v6h16v34h18v-34h16v-12h-50zm128.5-3.7c-.3 1.2-.5 11.4-.3 22.7l.3 20.5 8.8.3 8.7.3v-19.2l10.3.3 10.2.3.3 9.2.3 9.3h16.9v-46h-16.9l-.3 7.7-.3 7.8-10.2.3-10.3.3v-16.1h-8.5c-7.9 0-8.5.1-9 2.3zm113.2-1.6c-.3.4-3.6 8.2-7.5 17.3s-8.2 19.1-9.6 22.2l-2.6 5.8h9.4c9 0 9.3-.1 10.4-2.5 1.2-2.5 1.4-2.6 10.4-2.3 8.5.3 9.4.5 10.3 2.5.9 2.2 1.6 2.3 10.3 2.3s9.3-.1 8.7-1.9c-.3-1-4.3-11.2-9-22.7l-8.4-20.9-11-.3c-6-.1-11.2.1-11.4.5zm14 22c1.3 3.6 2.3 6.8 2.3 7s-2.5.3-5.5.3-5.5-.3-5.5-.8c0-.4.9-3.2 2-6.2 1.2-3 2.3-6.1 2.6-6.9.7-2.1 1.5-.8 4.1 6.6zm307.3.3v23h17v-46h-17zm43.4-19.3c-1.8 4.3-12 27.8-15.8 36.5l-2.6 5.8h9.4c9 0 9.3-.1 10.4-2.5 1.2-2.5 1.4-2.6 10.9-2.3 9.3.3 9.8.4 10.1 2.5.3 2.2.8 2.3 9.8 2.3 5.2 0 9.4-.3 9.4-.8 0-.4-4-10.6-8.9-22.7l-8.9-22-11.1-.3-11.2-.3zm15.1 18.3c1 3 2 6.1 2.3 6.7.3 1-1.1 1.3-5.3 1.3-5.4 0-5.6-.1-4.9-2.3 2.2-7.1 4.7-12.8 5.4-12 .4.4 1.6 3.3 2.5 6.3zm27.5-16v6h8.5c4.7 0 8.4.3 8.4.7-.1.5-.1 8.1 0 17l.1 16.3h17v-33.9l8.3-.3 8.2-.3v-11l-25.2-.3-25.3-.2zm60.7-5.4c-.4.4-.7 10.8-.7 23.1v22.3h50v-11l-13.2-.1c-7.3-.1-13.7-.2-14.3-.4-.5-.1-1.8-.3-2.7-.3-1.3-.2-1.8-1.1-1.8-3.2v-3h25v-11h-25v-6h14.9c16.6 0 16.1.2 15.8-7l-.2-3.5-23.6-.3c-12.9-.1-23.8.1-24.2.4zm-852.3 53.7c-.2.7-.3 179.2-.1 396.7.3 300.3.6 397.8 1.5 405 8.7 68.3 28.8 112.9 68.4 151.6 19.1 18.7 39 32.4 67.3 46.4 35 17.3 67.5 28.3 135 45.5 44.4 11.3 56.4 14.5 76 20.2 67 19.3 106.9 42.2 130.6 74.9 3.4 4.6 6.3 8.4 6.4 8.4s3-3.8 6.3-8.4c17.6-24.2 44.9-43.5 83.1-58.8 25.6-10.3 52.3-18.2 117.6-34.8 42.8-10.9 60.3-15.8 83.2-23.5 26.8-9 35.1-12.4 56.9-23.1 48.8-23.9 83.2-54.9 105.5-94.9 16.5-29.6 26.7-64.2 31.1-105.5 1.1-10.2 1.3-86.5 1.3-406.5v-394l-484.8-.3c-391.7-.2-484.9 0-485.3 1.1zm960.3 401.4c-.3 428.5.1 395.5-5.3 425.3-8.8 48.2-27.9 86.4-58.9 117.6-19.4 19.5-37.8 32.5-66 46.9-32.3 16.3-69.7 28.9-139 46.5-60.7 15.4-81.4 21.3-104.2 29.4-42.7 15.3-74.9 34.6-94.5 56.9-4 4.5-7.4 8.1-7.5 8-.2-.1-3.1-3.4-6.4-7.3-20.8-24-54.6-43.8-102.9-60.2-22.9-7.7-35.1-11.1-100.5-27.8-80.4-20.5-121.7-35.8-159-58.8-21.9-13.6-46.1-35.3-59.6-53.4-27.1-36.5-42.2-80.9-45.9-134.8-1.6-23.3-1.3-780.7.3-781.3.6-.3 214.6-.6 475.5-.6l474.2-.1z"/><path d="m509.8 99c-2 1.1-4.3 2.9-5.1 4.1l-1.5 2.1-7.9-2.7c-27.3-9.2-52.4-2.5-61.2 16.4-3.5 7.6-3.6 20.2-.2 31.1 2.2 7.2 7.6 18.6 12.3 26.2l2.3 3.8 5-3.6c10.1-7.1 22.5-8.2 32.5-2.8 4.9 2.7 16.7 14.1 19 18.4 1 1.9.8 2-3.2 2-7.4 0-28.8-3-40.8-5.6-16-3.6-32.2-9.4-48.4-17.5-7.7-3.8-14.1-6.7-14.4-6.5-.5.6 5.4 9 11.4 16.2 6.2 7.4 18 16.1 30.2 22.1l10.7 5.3-10.5-.6-10.5-.6 2.5 2.1c10 8 27.6 15.9 41.8 18.7 7.8 1.5 27.6 1.8 35.4.5 4.6-.8 4.6-.8 5.2 2.4.9 4.8-1 20.3-3.4 27.5-3.5 10.4-9.5 20.8-20.7 35.6-19 25.2-26.1 36.9-32.8 54.4-3.6 9.2-7.7 25.1-9.5 36.7l-1.2 7.3h-3.8c-2.1 0-10.7-.9-19.1-2-90.7-12.1-154.8-34.4-193.2-67.4-10.6-9.2-19.8-21-25.7-33.1-6.2-12.9-8.2-21.1-8.2-34.5 0-11.8 1.6-20 6.1-30.7 3-7.3 10.5-19.3 12-19.3.5 0 2.4 1.7 4.3 3.7 21.3 23.7 54.7 30.6 86.8 18.2 10.3-3.9 21.6-11.6 28.8-19.4 6.2-6.8 13.2-19.3 13.2-23.7 0-3.4-13.7-19.8-23.6-28.1-13.9-11.7-28.4-19-46.6-23.4-5.7-1.4-11.4-1.8-26.3-1.7-21.3 0-23.8.4-62.5 8.9-13.5 2.9-27.9 5.9-32.1 6.5-10.3 1.6-30.1.9-35.9-1.4-7.2-2.8-8-2.9-8-1.5 0 3.6 8.7 18.4 14.5 24.6 5.1 5.6 15.1 12.9 19.9 14.6.6.3-1.9 3.5-5.5 7.3-14.8 15.6-22.1 29.4-26.7 50.4-1.4 6.8-1.6 39.4-1.9 363.2-.2 195.7 0 355.8.4 355.8.5 0 12.5-9 26.8-19.9l26-19.9.5-265.3.5-265.2 7.2 6.3 7.3 6.3v252.3c0 145.8.4 252.4.9 252.4s12.5-8.9 26.7-19.8l25.9-19.8.5-216 .5-216 7.3 3.3 7.2 3.3v206c0 145.5.3 206 1.1 206 1.1 0 45.2-33.3 50.2-37.8l2.7-2.6v-176.3c0-97 .2-176.3.4-176.3.1 0 1.6.4 3.2 1 1.6.5 4.8 1.4 7.2 2l4.2 1.1v168.4c0 92.7.2 168.5.5 168.5s12.5-9.1 27-20.2l26.5-20.2v-284.7l3.8.7c2 .3 5.3.9 7.2 1.3l3.5.7.3 134.8c.1 88.5.5 134.7 1.2 134.4.5-.2 12.7-9.2 27-20.2l26-19.9v-221.7h3c1.7 0 3 .5 3 1.2 0 3 4.3 38.7 6.6 54.8 6.8 48.2 17.7 102 27.4 136l3 10.5-70 69.9c-38.5 38.5-69.9 70.1-69.7 70.3.2.1 9-1.3 19.6-3.3 10.6-1.9 19.7-3.4 20.1-3.2.8.3-1.6 3.2-40.5 47.3-11.5 13.1-22.4 25.4-24.1 27.3l-3 3.5-26.5-10.8c-14.5-6-30.6-12.6-35.8-14.7s-10-3.7-10.7-3.6c-.7.2-7.1 5.2-14.3 11.1l-12.9 10.8-.6 11.2c-.4 6.2-1.1 17.2-1.7 24.6-.5 7.3-.8 13.5-.6 13.7s7.5-6.1 16.2-14.1l15.8-14.5 4.1.6c2.2.3 10.9 1.7 19.1 2.9 8.3 1.3 17.6 2.7 20.8 3.1 3.2.3 5.5 1 5 1.4-.8.8-15.2 8.7-35.8 19.6-35.6 18.9-48.5 26-48.5 26.7 0 1 24 65 24.6 65.6.2.2.6.2.8 0s2.1-11.2 4.1-24.4 3.8-24.5 4-25.2c.3-.8 2.8-.2 8 1.8 7.6 3 7.6 3 10.1 1 1.3-1 13.2-11.3 26.4-22.8 13.3-11.4 24.5-21 25.1-21.1.6-.2.8.6.5 2-.3 1.2-.7 19.8-1.1 41.3-.3 21.4-.8 42-1.1 45.6l-.6 6.6 6.8 2.7c3.8 1.5 15.2 6.1 25.2 10.3 10.1 4.1 18.6 7.3 18.8 7 .3-.2-3.4-8.1-8.1-17.5s-8.5-17.4-8.5-17.8 3.4-.4 7.5-.1c7.4.7 7.5.6 7-1.6-1-4.1-11.3-50-15.1-67-2-9.2-3.5-16.9-3.2-17.2.4-.5 15.7 6.5 47.9 21.7l11.6 5.6.6 4.3c.3 2.4.9 10.6 1.3 18.2.3 7.5 1 13.9 1.4 14.2.3.2 8.2-7.7 17.4-17.6l16.7-17.9-.9-14.6c-.5-8-1.3-14.9-1.8-15.4s-19.8-5.6-42.9-11.5-42.3-11-42.7-11.4c-.4-.3 2.7-3.6 7-7.2 4.2-3.6 19.4-16.3 33.7-28.4 14.3-12 26.8-22.5 27.8-23.4 1.8-1.5 1.8-.6 1.2 26.4l-.6 28 2.3-2.6c1.3-1.4 5.2-6.6 8.8-11.5 15.3-21.1 39.2-53.7 46.4-63.4l7.8-10.5-.6 25.5c-2.5 104.7-23.5 168.1-61.8 186.9-13 6.4-30.9 7.7-47.5 3.3l-7.3-1.8v2.1c0 3.9 5.3 12.8 11.1 18.6 4.4 4.4 8.4 7.1 16.1 10.8 12.4 6 22.5 8.8 37.9 10.3 19.1 1.8 37.9-1.6 52.8-9.8l6.5-3.6 27.4 27.6c15.1 15.2 27.6 27.6 27.8 27.6s12.6-12.4 27.6-27.6l27.3-27.6 7.6 4.1c9.1 4.9 22.8 8.6 35.4 9.6 25.5 1.9 56.3-7.4 70.3-21.3 5.8-5.7 11.2-14.7 11.2-18.7v-2.1l-7.2 1.9c-11 3-30 2.9-39.5-.1-8.4-2.6-20-10.1-26.4-16.9-26.8-28.7-41.3-86.7-43.5-173.8l-.7-25 3.5 4.5c1.9 2.5 15.8 21.4 30.8 42s28.2 38.4 29.3 39.5c1.9 2 1.9 1.8 1.3-25.9-.7-26.7-.6-27.9 1.1-26.5 1 .8 10.6 8.8 21.3 17.9s25.9 21.9 33.8 28.5c7.8 6.6 14.2 12.2 14.2 12.5s-19.2 5.4-42.8 11.3c-23.5 6-43.1 11.2-43.6 11.7s-1.3 7.4-1.8 15.5l-.9 14.5 16.8 18c9.2 9.9 17 18 17.3 18 .4 0 1.1-8.2 1.7-18.1.6-10 1.5-18.5 2-18.9 1.4-1.5 58.6-28.1 59.1-27.5.4.4-17.3 81.7-18.6 85.2-.3 1 1.3 1.1 7.2.6 4.5-.3 7.6-.2 7.6.3 0 .6-3.8 8.6-8.5 17.9-4.7 9.2-8.3 17-8.1 17.2s11.7-4.2 25.6-9.8l25.3-10.3-.6-8.5c-.4-4.7-.9-25.3-1.2-45.6-.4-20.4-.8-38-1.1-39.3-.2-1.2-.1-2.2.3-2.2.5 0 10.9 8.8 23.3 19.6s24.4 21.2 26.7 23.1l4.1 3.4 7.7-3c5.2-2 7.7-2.6 8-1.8.2.7 2 12 4 25.2 2.1 13.2 3.9 24.2 4.1 24.4s.6.2.8 0c.7-.6 24.6-64.5 24.6-65.5 0-.8-10.1-6.4-47.3-26.2-23.3-12.4-36.2-19.4-36.9-20.1-.4-.3 9.5-2.2 22-4s23.6-3.5 24.8-3.8c1.6-.3 5.7 2.9 17.9 14.1 8.7 8.1 15.9 14.5 16.1 14.3s-.3-10.2-1.1-22.3c-.8-12-1.5-23.1-1.5-24.5 0-2.1-2.5-4.7-13-13.5-7.2-6-13.6-11-14.3-11.2-.7-.1-16.7 6.1-35.6 13.8s-35.2 14.2-36.2 14.3c-1.4.1-11.7-10.9-35.8-38.3-18.7-21.2-33.7-38.7-33.5-38.9s4.3.4 9.1 1.3 13.7 2.5 19.7 3.6 11.1 1.9 11.3 1.6c.2-.2-31.1-31.8-69.6-70.2l-70.1-69.9 3.5-12.5c9.5-33.9 20.4-87.8 26.4-130 2.7-19.2 7.1-55.5 7.1-58.8 0-.7 1.3-1.2 3-1.2h3v221.7l20.7 15.9c23.5 18.1 32 24.4 32.8 24.4.3 0 .6-60.6.7-134.7l.3-134.7 3.5-.7c1.9-.4 5.2-1 7.3-1.3l3.7-.7v284.7l26.1 19.9c14.4 11 26.6 20.1 27 20.3.5.2.9-73.8.9-168.2v-168.5l4.3-1.1c2.3-.6 5.5-1.5 7.1-2 1.6-.6 3.1-1 3.2-1 .2 0 .4 79.3.4 176.3v176.4l2.3 2c1.2 1.2 13.2 10.5 26.7 20.8l24.5 18.7.5-206.7.5-206.7 7.3-3.3 7.2-3.4v431.7l6.3 5c13.8 10.9 44.9 34.4 46.3 34.9 1.2.4 1.4-33.9 1.4-251.9v-252.5l7.3-6.3 7.2-6.3.5 265.2.5 265.3 26 19.9c14.3 10.9 26.3 19.9 26.8 19.9.4 0 .6-160.1.5-355.8-.3-331.6-.4-356.2-2-363.4-4.7-21-11.8-34.4-26.2-49.6-3.9-4.1-6.6-7.7-6-7.9 4.6-1.6 14.8-9 19.9-14.6 5.8-6.2 14.5-21 14.5-24.6 0-1.4-.8-1.3-8 1.5-5.8 2.3-25.6 3-35.9 1.4-4.2-.6-18.6-3.6-32.1-6.5-38.9-8.5-41.3-8.9-62.5-8.9-20.7-.1-26.1.7-41.4 6.3-18.3 6.7-37.6 21.6-51.1 39.5l-4.4 5.8 1.3 4.6c4.1 15.6 21.4 32.6 40.8 40 12.3 4.8 22.8 6.5 35.2 5.9 20.6-1 35.9-7.7 49.7-21.7 3.2-3.3 6.2-6 6.6-6 1.4 0 9 12.3 11.9 19.3 4.5 10.7 6.1 18.9 6.1 30.7 0 13.4-2 21.6-8.2 34.5-24.1 49.6-97.8 83.9-214.8 100-6.2.8-12.4 1.5-13.7 1.5h-2.5v-15.3c-.1-58.3-14.9-135.9-38.6-200.9-3-8.3-5.3-15.2-5.2-15.3.2-.1 3.9-1.4 8.3-2.9 10.5-3.7 15.8-6.4 23-12 5.7-4.3 13.2-12.3 12.3-13.1-.2-.2-2.4.3-4.8 1.3-3.5 1.2-7.9 1.6-19 1.6-21.7-.1-30.8-2.8-74.5-22.7-26-11.8-32-13.9-41.5-14.4-6.1-.3-8.2 0-11.2 1.7zm10.3 20.5c3.7 1.9 4.9 3 4.5 4.3-1.1 4.1-1.7 12.4-1.1 15.4l.8 3.2 2.7-5.4c1.5-3 3.7-6.4 4.9-7.4 2-1.9 2.2-1.9 6.1-.1 6.8 3.1 6.8 3.6-.6 10.4-7 6.4-10.6 8.1-13.3 6.4s-11.2-19.4-11.8-24.6c-.7-5.7.3-6 7.8-2.2zm-519.6 958c0 108.4.1 152.8.2 98.8.2-54 .2-142.6 0-197-.1-54.3-.2-10.2-.2 98.2zm1095.7 14.2-.2 187.3-272.7.3-272.8.2 272.8.3c217.5.1 272.9-.1 273.2-1.1.3-.6.4-85.1.3-187.7l-.3-186.5zm-1095.8 185.8c.1 2 .8 2 273.4 2h273.2l-272.9-.2c-258.9-.3-273-.4-273.4-2.1-.3-1.3-.4-1.2-.3.3z"/></svg>